0, 0, Header, 1, 2, 480
1, 0, Start_track
1, 0, Tempo, 500000
1, 0, Time_signature, 4, 2, 24, 8
1, 1, End_track
2, 0, Start_track
2, 0, Program_c, 0, 0
2, 921, Note_on_c, 0, 41, 46
2, 1185, Note_on_c, 0, 76, 63
2, 1393, Note_on_c, 0, 77, 70
2, 1442, Note_on_c, 0, 76, 0
2, 1601, Note_on_c, 0, 79, 74
2, 1643, Note_on_c, 0, 77, 0
2, 1804, Note_on_c, 0, 77, 70
2, 1818, Note_on_c, 0, 53, 52
2, 1853, Note_on_c, 0, 79, 0
2, 1934, Note_on_c, 0, 41, 0
2, 2014, Note_on_c, 0, 76, 76
2, 2084, Note_on_c, 0, 77, 0
2, 2226, Note_on_c, 0, 74, 72
2, 2274, Note_on_c, 0, 76, 0
2, 2437, Note_on_c, 0, 72, 74
2, 2467, Note_on_c, 0, 74, 0
2, 2655, Note_on_c, 0, 74, 67
2, 2656, Note_on_c, 0, 57, 40
2, 2683, Note_on_c, 0, 72, 0
2, 2866, Note_on_c, 0, 72, 74
2, 2926, Note_on_c, 0, 74, 0
2, 3078, Note_on_c, 0, 70, 76
2, 3129, Note_on_c, 0, 72, 0
2, 3286, Note_on_c, 0, 69, 76
2, 3312, Note_on_c, 0, 70, 0
2, 3513, Note_on_c, 0, 70, 71
2, 3531, Note_on_c, 0, 62, 39
2, 3557, Note_on_c, 0, 69, 0
2, 3577, Note_on_c, 0, 57, 0
2, 3737, Note_on_c, 0, 69, 60
2, 3957, Note_on_c, 0, 67, 54
2, 3966, Note_on_c, 0, 69, 0
2, 4152, Note_on_c, 0, 65, 50
2, 4158, Note_on_c, 0, 67, 0
2, 4368, Note_on_c, 0, 58, 39
2, 4370, Note_on_c, 0, 67, 49
2, 4393, Note_on_c, 0, 65, 0
2, 4424, Note_on_c, 0, 62, 0
2, 4583, Note_on_c, 0, 65, 49
2, 4796, Note_on_c, 0, 65, 0
2, 4804, Note_on_c, 0, 64, 50
2, 5013, Note_on_c, 0, 62, 45
2, 5028, Note_on_c, 0, 64, 0
2, 5232, Note_on_c, 0, 55, 41
2, 5249, Note_on_c, 0, 64, 49
2, 5254, Note_on_c, 0, 58, 0
2, 5308, Note_on_c, 0, 62, 0
2, 5461, Note_on_c, 0, 58, 54
2, 5487, Note_on_c, 0, 55, 0
2, 5673, Note_on_c, 0, 60, 65
2, 5721, Note_on_c, 0, 58, 0
2, 5895, Note_on_c, 0, 62, 66
2, 5915, Note_on_c, 0, 60, 0
2, 6119, Note_on_c, 0, 60, 62
2, 6152, Note_on_c, 0, 62, 0
2, 6332, Note_on_c, 0, 58, 57
2, 6342, Note_on_c, 0, 60, 0
2, 6537, Note_on_c, 0, 58, 0
2, 6549, Note_on_c, 0, 64, 0
2, 6555, Note_on_c, 0, 57, 57
2, 6742, Note_on_c, 0, 57, 0
2, 6759, Note_on_c, 0, 55, 54
2, 6972, Note_on_c, 0, 69, 62
2, 6982, Note_on_c, 0, 65, 35
2, 6983, Note_on_c, 0, 55, 0
2, 6984, Note_on_c, 0, 57, 38
2, 6985, Note_on_c, 0, 60, 39
2, 7023, Note_on_c, 0, 53, 0
2, 7037, Note_on_c, 0, 67, 0
2, 7053, Note_on_c, 0, 70, 0
2, 7203, Note_on_c, 0, 55, 44
2, 7428, Note_on_c, 0, 53, 53
2, 7452, Note_on_c, 0, 55, 0
2, 7579, Note_on_c, 0, 65, 0
2, 7631, Note_on_c, 0, 52, 57
2, 7634, Note_on_c, 0, 53, 0
2, 7646, Note_on_c, 0, 60, 0
2, 7840, Note_on_c, 0, 68, 69
2, 7843, Note_on_c, 0, 52, 0
2, 7852, Note_on_c, 0, 53, 46
2, 7869, Note_on_c, 0, 62, 47
2, 7873, Note_on_c, 0, 65, 44
2, 7922, Note_on_c, 0, 57, 0
2, 8000, Note_on_c, 0, 69, 0
2, 8062, Note_on_c, 0, 50, 51
2, 8278, Note_on_c, 0, 48, 47
2, 8281, Note_on_c, 0, 50, 0
2, 8420, Note_on_c, 0, 62, 0
2, 8484, Note_on_c, 0, 48, 0
2, 8508, Note_on_c, 0, 47, 48
2, 8513, Note_on_c, 0, 53, 0
2, 8715, Note_on_c, 0, 47, 0
2, 8729, Note_on_c, 0, 48, 29
2, 8753, Note_on_c, 0, 60, 56
2, 8798, Note_on_c, 0, 65, 0
2, 8822, Note_on_c, 0, 68, 0
2, 8971, Note_on_c, 0, 68, 68
2, 8988, Note_on_c, 0, 53, 38
2, 9186, Note_on_c, 0, 67, 67
2, 9207, Note_on_c, 0, 52, 43
2, 9262, Note_on_c, 0, 53, 0
2, 9277, Note_on_c, 0, 68, 0
2, 9401, Note_on_c, 0, 65, 68
2, 9415, Note_on_c, 0, 52, 0
2, 9422, Note_on_c, 0, 67, 0
2, 9426, Note_on_c, 0, 50, 44
2, 9625, Note_on_c, 0, 50, 0
2, 9631, Note_on_c, 0, 52, 44
2, 9636, Note_on_c, 0, 67, 66
2, 9681, Note_on_c, 0, 65, 0
2, 9862, Note_on_c, 0, 65, 57
2, 10093, Note_on_c, 0, 64, 62
2, 10094, Note_on_c, 0, 55, 61
2, 10153, Note_on_c, 0, 65, 0
2, 10180, Note_on_c, 0, 52, 0
2, 10235, Note_on_c, 0, 60, 0
2, 10308, Note_on_c, 0, 62, 64
2, 10333, Note_on_c, 0, 64, 0
2, 10551, Note_on_c, 0, 60, 54
2, 10554, Note_on_c, 0, 64, 55
2, 10588, Note_on_c, 0, 55, 0
2, 10620, Note_on_c, 0, 62, 0
2, 10782, Note_on_c, 0, 50, 51
2, 10807, Note_on_c, 0, 48, 0
2, 11015, Note_on_c, 0, 55, 43
2, 11019, Note_on_c, 0, 48, 34
2, 11031, Note_on_c, 0, 50, 0
2, 11114, Note_on_c, 0, 67, 0
2, 11235, Note_on_c, 0, 60, 0
2, 11237, Note_on_c, 0, 46, 46
2, 11271, Note_on_c, 0, 48, 0
2, 11422, Note_on_c, 0, 64, 0
2, 11497, Note_on_c, 0, 55, 0
2, 11512, Note_on_c, 0, 45, 39
2, 11567, Note_on_c, 0, 46, 0
2, 11750, Note_on_c, 0, 60, 40
2, 11975, Note_on_c, 0, 62, 49
2, 11981, Note_on_c, 0, 55, 34
2, 12050, Note_on_c, 0, 60, 0
2, 12193, Note_on_c, 0, 63, 55
2, 12227, Note_on_c, 0, 62, 0
2, 12401, Note_on_c, 0, 45, 0
2, 12403, Note_on_c, 0, 63, 0
2, 12409, Note_on_c, 0, 62, 56
2, 12419, Note_on_c, 0, 54, 42
2, 12426, Note_on_c, 0, 50, 34
2, 12504, Note_on_c, 0, 55, 0
2, 12636, Note_on_c, 0, 64, 58
2, 12844, Note_on_c, 0, 66, 63
2, 12856, Note_on_c, 0, 54, 0
2, 12861, Note_on_c, 0, 58, 46
2, 12951, Note_on_c, 0, 64, 0
2, 13071, Note_on_c, 0, 67, 66
2, 13113, Note_on_c, 0, 66, 0
2, 13204, Note_on_c, 0, 58, 0
2, 13298, Note_on_c, 0, 67, 0
2, 13308, Note_on_c, 0, 66, 63
2, 13310, Note_on_c, 0, 57, 39
2, 13525, Note_on_c, 0, 69, 69
2, 13753, Note_on_c, 0, 70, 76
2, 13834, Note_on_c, 0, 69, 0
2, 13985, Note_on_c, 0, 72, 72
2, 14022, Note_on_c, 0, 57, 0
2, 14032, Note_on_c, 0, 50, 0
2, 14082, Note_on_c, 0, 70, 0
2, 14263, Note_on_c, 0, 43, 52
2, 14524, Note_on_c, 0, 69, 56
2, 14570, Note_on_c, 0, 66, 0
2, 14749, Note_on_c, 0, 67, 59
2, 14755, Note_on_c, 0, 50, 39
2, 14811, Note_on_c, 0, 69, 0
2, 14964, Note_on_c, 0, 66, 64
2, 14987, Note_on_c, 0, 67, 0
2, 15199, Note_on_c, 0, 67, 66
2, 15201, Note_on_c, 0, 46, 48
2, 15227, Note_on_c, 0, 50, 0
2, 15264, Note_on_c, 0, 72, 0
2, 15280, Note_on_c, 0, 66, 0
2, 15314, Note_on_c, 0, 43, 0
2, 15415, Note_on_c, 0, 69, 70
2, 15484, Note_on_c, 0, 67, 0
2, 15633, Note_on_c, 0, 70, 72
2, 15649, Note_on_c, 0, 55, 40
2, 15679, Note_on_c, 0, 69, 0
2, 15851, Note_on_c, 0, 67, 55
2, 15864, Note_on_c, 0, 62, 0
2, 16030, Note_on_c, 0, 67, 0
2, 16067, Note_on_c, 0, 62, 56
2, 16070, Note_on_c, 0, 55, 0
2, 16084, Note_on_c, 0, 43, 42
2, 16115, Note_on_c, 0, 46, 0
2, 16290, Note_on_c, 0, 65, 63
2, 16378, Note_on_c, 0, 62, 0
2, 16514, Note_on_c, 0, 64, 67
2, 16537, Note_on_c, 0, 55, 39
2, 16546, Note_on_c, 0, 65, 0
2, 16601, Note_on_c, 0, 43, 0
2, 16735, Note_on_c, 0, 62, 64
2, 16737, Note_on_c, 0, 64, 0
2, 16976, Note_on_c, 0, 48, 42
2, 16999, Note_on_c, 0, 64, 66
2, 17018, Note_on_c, 0, 55, 0
2, 17090, Note_on_c, 0, 62, 0
2, 17239, Note_on_c, 0, 58, 65
2, 17458, Note_on_c, 0, 60, 67
2, 17493, Note_on_c, 0, 64, 0
2, 17538, Note_on_c, 0, 58, 0
2, 17664, Note_on_c, 0, 61, 73
2, 17700, Note_on_c, 0, 60, 0
2, 17885, Note_on_c, 0, 60, 61
2, 17912, Note_on_c, 0, 52, 45
2, 17928, Note_on_c, 0, 61, 0
2, 17998, Note_on_c, 0, 48, 0
2, 18110, Note_on_c, 0, 62, 62
2, 18335, Note_on_c, 0, 64, 65
2, 18413, Note_on_c, 0, 62, 0
2, 18560, Note_on_c, 0, 65, 63
2, 18583, Note_on_c, 0, 64, 0
2, 18737, Note_on_c, 0, 65, 0
2, 18778, Note_on_c, 0, 64, 56
2, 18781, Note_on_c, 0, 48, 39
2, 18872, Note_on_c, 0, 52, 0
2, 19000, Note_on_c, 0, 67, 57
2, 19109, Note_on_c, 0, 70, 0
2, 19225, Note_on_c, 0, 69, 59
2, 19267, Note_on_c, 0, 67, 0
2, 19447, Note_on_c, 0, 70, 58
2, 19460, Note_on_c, 0, 69, 0
2, 19674, Note_on_c, 0, 53, 42
2, 19740, Note_on_c, 0, 48, 0
2, 19908, Note_on_c, 0, 67, 49
2, 20034, Note_on_c, 0, 64, 0
2, 20130, Note_on_c, 0, 65, 50
2, 20145, Note_on_c, 0, 67, 0
2, 20337, Note_on_c, 0, 64, 54
2, 20360, Note_on_c, 0, 65, 0
2, 20567, Note_on_c, 0, 65, 48
2, 20584, Note_on_c, 0, 57, 31
2, 20614, Note_on_c, 0, 53, 0
2, 20674, Note_on_c, 0, 64, 0
2, 20773, Note_on_c, 0, 70, 0
2, 20791, Note_on_c, 0, 67, 48
2, 21005, Note_on_c, 0, 69, 58
2, 21049, Note_on_c, 0, 65, 0
2, 21054, Note_on_c, 0, 67, 0
2, 21230, Note_on_c, 0, 65, 40
2, 21461, Note_on_c, 0, 57, 0
2, 21463, Note_on_c, 0, 53, 45
2, 21629, Note_on_c, 0, 60, 0
2, 21704, Note_on_c, 0, 63, 45
2, 21908, Note_on_c, 0, 62, 47
2, 21921, Note_on_c, 0, 63, 0
2, 22131, Note_on_c, 0, 60, 56
2, 22131, Note_on_c, 0, 62, 0
2, 22136, Note_on_c, 0, 69, 0
2, 22161, Note_on_c, 0, 53, 0
2, 22238, Note_on_c, 0, 65, 0
2, 22341, Note_on_c, 0, 62, 49
2, 22354, Note_on_c, 0, 60, 0
2, 22359, Note_on_c, 0, 58, 43
2, 22569, Note_on_c, 0, 72, 67
2, 22746, Note_on_c, 0, 58, 0
2, 22766, Note_on_c, 0, 57, 41
2, 22796, Note_on_c, 0, 74, 67
2, 22879, Note_on_c, 0, 72, 0
2, 23006, Note_on_c, 0, 75, 72
2, 23074, Note_on_c, 0, 74, 0
2, 23221, Note_on_c, 0, 74, 70
2, 23232, Note_on_c, 0, 58, 39
2, 23317, Note_on_c, 0, 57, 0
2, 23339, Note_on_c, 0, 75, 0
2, 23373, Note_on_c, 0, 62, 0
2, 23450, Note_on_c, 0, 72, 63
2, 23667, Note_on_c, 0, 70, 61
2, 23690, Note_on_c, 0, 67, 39
2, 23697, Note_on_c, 0, 62, 34
2, 23697, Note_on_c, 0, 72, 0
2, 23883, Note_on_c, 0, 69, 66
2, 23905, Note_on_c, 0, 70, 0
2, 24127, Note_on_c, 0, 70, 72
2, 24148, Note_on_c, 0, 69, 0
2, 24181, Note_on_c, 0, 67, 0
2, 24278, Control_c, 0, 64, 14
2, 24298, Control_c, 0, 64, 48
2, 24317, Control_c, 0, 64, 58
2, 24336, Control_c, 0, 64, 61
2, 24348, Note_on_c, 0, 69, 62
2, 24355, Control_c, 0, 64, 63
2, 24375, Control_c, 0, 64, 64
2, 24394, Control_c, 0, 64, 65
2, 24413, Control_c, 0, 64, 66
2, 24432, Control_c, 0, 64, 68
2, 24443, Note_on_c, 0, 74, 0
2, 24452, Control_c, 0, 64, 71
2, 24470, Control_c, 0, 64, 74
2, 24490, Control_c, 0, 64, 78
2, 24509, Control_c, 0, 64, 82
2, 24528, Control_c, 0, 64, 87
2, 24536, Note_on_c, 0, 69, 0
2, 24543, Note_on_c, 0, 67, 65
2, 24547, Control_c, 0, 64, 93
2, 24566, Control_c, 0, 64, 99
2, 24586, Control_c, 0, 64, 106
2, 24593, Note_on_c, 0, 62, 0
2, 24604, Control_c, 0, 64, 115
2, 24624, Control_c, 0, 64, 127
2, 24670, Note_on_c, 0, 67, 0
2, 24720, Control_c, 0, 64, 122
2, 24726, Note_on_c, 0, 65, 64
2, 24740, Control_c, 0, 64, 120
2, 24758, Control_c, 0, 64, 117
2, 24778, Control_c, 0, 64, 112
2, 24779, Note_on_c, 0, 70, 0
2, 24797, Control_c, 0, 64, 108
2, 24801, Note_on_c, 0, 65, 0
2, 24816, Control_c, 0, 64, 102
2, 24835, Control_c, 0, 64, 95
2, 24835, Note_on_c, 0, 58, 0
2, 24850, Note_on_c, 0, 67, 63
2, 24855, Control_c, 0, 64, 90
2, 24874, Control_c, 0, 64, 84
2, 24893, Control_c, 0, 64, 79
2, 24912, Control_c, 0, 64, 73
2, 24932, Control_c, 0, 64, 67
2, 24939, Note_on_c, 0, 72, 67
2, 24950, Control_c, 0, 64, 63
2, 24970, Control_c, 0, 64, 58
2, 24989, Control_c, 0, 64, 52
2, 25008, Control_c, 0, 64, 44
2, 25013, Note_on_c, 0, 76, 80
2, 25027, Control_c, 0, 64, 34
2, 25046, Control_c, 0, 64, 20
2, 25066, Control_c, 0, 64, 0
2, 25254, Note_on_c, 0, 58, 57
2, 25477, Note_on_c, 0, 60, 65
2, 25515, Note_on_c, 0, 58, 0
2, 25704, Note_on_c, 0, 62, 67
2, 25736, Note_on_c, 0, 60, 0
2, 25912, Note_on_c, 0, 60, 66
2, 25959, Note_on_c, 0, 62, 0
2, 26126, Note_on_c, 0, 58, 65
2, 26145, Note_on_c, 0, 60, 0
2, 26346, Note_on_c, 0, 57, 63
2, 26360, Note_on_c, 0, 58, 0
2, 26402, Note_on_c, 0, 72, 0
2, 26547, Note_on_c, 0, 67, 0
2, 26561, Note_on_c, 0, 55, 68
2, 26587, Note_on_c, 0, 57, 0
2, 26783, Note_on_c, 0, 77, 81
2, 26800, Note_on_c, 0, 57, 53
2, 26810, Note_on_c, 0, 65, 48
2, 26811, Note_on_c, 0, 55, 0
2, 26812, Note_on_c, 0, 72, 59
2, 26971, Note_on_c, 0, 76, 0
2, 27014, Note_on_c, 0, 55, 59
2, 27039, Note_on_c, 0, 57, 0
2, 27246, Note_on_c, 0, 53, 60
2, 27288, Note_on_c, 0, 55, 0
2, 27310, Note_on_c, 0, 65, 0
2, 27353, Note_on_c, 0, 72, 0
2, 27470, Note_on_c, 0, 52, 62
2, 27510, Note_on_c, 0, 53, 0
2, 27704, Note_on_c, 0, 50, 63
2, 27706, Note_on_c, 0, 52, 0
2, 27935, Note_on_c, 0, 76, 74
2, 27993, Note_on_c, 0, 77, 0
2, 28148, Note_on_c, 0, 77, 76
2, 28163, Note_on_c, 0, 57, 48
2, 28220, Note_on_c, 0, 76, 0
2, 28375, Note_on_c, 0, 79, 83
2, 28459, Note_on_c, 0, 77, 0
2, 28597, Note_on_c, 0, 77, 78
2, 28600, Note_on_c, 0, 62, 51
2, 28659, Note_on_c, 0, 57, 0
2, 28676, Note_on_c, 0, 79, 0
2, 28800, Note_on_c, 0, 50, 0
2, 28807, Note_on_c, 0, 76, 77
2, 28891, Note_on_c, 0, 77, 0
2, 29012, Note_on_c, 0, 52, 48
2, 29020, Note_on_c, 0, 74, 71
2, 29078, Note_on_c, 0, 76, 0
2, 29249, Note_on_c, 0, 72, 76
2, 29274, Note_on_c, 0, 74, 0
2, 29459, Note_on_c, 0, 57, 39
2, 29478, Note_on_c, 0, 74, 70
2, 29484, Note_on_c, 0, 53, 39
2, 29510, Note_on_c, 0, 72, 0
2, 29550, Note_on_c, 0, 52, 0
2, 29692, Note_on_c, 0, 72, 70
2, 29765, Note_on_c, 0, 74, 0
2, 29901, Note_on_c, 0, 71, 71
2, 29956, Note_on_c, 0, 72, 0
2, 30116, Note_on_c, 0, 69, 69
2, 30146, Note_on_c, 0, 71, 0
2, 30360, Note_on_c, 0, 55, 33
2, 30361, Note_on_c, 0, 71, 64
2, 30402, Note_on_c, 0, 69, 0
2, 30441, Note_on_c, 0, 57, 0
2, 30577, Note_on_c, 0, 69, 54
2, 30807, Note_on_c, 0, 67, 44
2, 30849, Note_on_c, 0, 69, 0
2, 31016, Note_on_c, 0, 65, 46
2, 31038, Note_on_c, 0, 67, 0
2, 31204, Note_on_c, 0, 62, 0
2, 31236, Note_on_c, 0, 67, 51
2, 31259, Note_on_c, 0, 65, 0
2, 31460, Note_on_c, 0, 65, 48
2, 31681, Note_on_c, 0, 65, 0
2, 31691, Note_on_c, 0, 64, 51
2, 31858, Note_on_c, 0, 67, 0
2, 31895, Note_on_c, 0, 62, 48
2, 31902, Note_on_c, 0, 64, 0
2, 32101, Note_on_c, 0, 55, 0
2, 32126, Note_on_c, 0, 52, 41
2, 32128, Note_on_c, 0, 72, 57
2, 32131, Note_on_c, 0, 53, 0
2, 32152, Note_on_c, 0, 67, 34
2, 32153, Note_on_c, 0, 64, 4
2, 32229, Note_on_c, 0, 62, 0
2, 32254, Note_on_c, 0, 71, 0
2, 32363, Note_on_c, 0, 59, 62
2, 32581, Note_on_c, 0, 60, 62
2, 32621, Note_on_c, 0, 59, 0
2, 32805, Note_on_c, 0, 62, 62
2, 32838, Note_on_c, 0, 60, 0
2, 33030, Note_on_c, 0, 60, 62
2, 33060, Note_on_c, 0, 62, 0
2, 33243, Note_on_c, 0, 59, 59
2, 33249, Note_on_c, 0, 60, 0
2, 33442, Note_on_c, 0, 59, 0
2, 33463, Note_on_c, 0, 57, 57
2, 33574, Note_on_c, 0, 64, 0
2, 33655, Note_on_c, 0, 57, 0
2, 33674, Note_on_c, 0, 55, 50
2, 33866, Note_on_c, 0, 52, 0
2, 33889, Note_on_c, 0, 55, 0
2, 33894, Note_on_c, 0, 65, 59
2, 33899, Note_on_c, 0, 57, 42
2, 33975, Note_on_c, 0, 67, 0
2, 34030, Note_on_c, 0, 72, 0
2, 34107, Note_on_c, 0, 55, 45
2, 34333, Note_on_c, 0, 72, 73
2, 34354, Note_on_c, 0, 53, 43
2, 34356, Note_on_c, 0, 55, 0
2, 34556, Note_on_c, 0, 53, 0
2, 34562, Note_on_c, 0, 52, 53
2, 34752, Note_on_c, 0, 52, 0
2, 34772, Note_on_c, 0, 53, 47
2, 34775, Note_on_c, 0, 74, 75
2, 34994, Note_on_c, 0, 52, 56
2, 35007, Note_on_c, 0, 53, 0
2, 35007, Note_on_c, 0, 72, 0
2, 35230, Note_on_c, 0, 77, 81
2, 35243, Note_on_c, 0, 50, 54
2, 35252, Note_on_c, 0, 52, 0
2, 35386, Note_on_c, 0, 74, 0
2, 35452, Note_on_c, 0, 50, 0
2, 35454, Note_on_c, 0, 48, 61
2, 35653, Note_on_c, 0, 48, 0
2, 35663, Note_on_c, 0, 71, 76
2, 35674, Note_on_c, 0, 50, 52
2, 35781, Note_on_c, 0, 77, 0
2, 35894, Note_on_c, 0, 48, 50
2, 35917, Note_on_c, 0, 50, 0
2, 36103, Note_on_c, 0, 47, 50
2, 36104, Note_on_c, 0, 48, 0
2, 36104, Note_on_c, 0, 72, 81
2, 36321, Note_on_c, 0, 45, 55
2, 36323, Note_on_c, 0, 47, 0
2, 36326, Note_on_c, 0, 57, 0
2, 36344, Note_on_c, 0, 71, 0
2, 36535, Note_on_c, 0, 45, 0
2, 36559, Note_on_c, 0, 47, 35
2, 36564, Note_on_c, 0, 65, 0
2, 36584, Note_on_c, 0, 55, 44
2, 36590, Note_on_c, 0, 74, 68
2, 36652, Note_on_c, 0, 72, 0
2, 36813, Note_on_c, 0, 65, 51
2, 37013, Note_on_c, 0, 43, 47
2, 37038, Note_on_c, 0, 64, 63
2, 37044, Note_on_c, 0, 65, 0
2, 37057, Note_on_c, 0, 47, 0
2, 37220, Note_on_c, 0, 64, 0
2, 37239, Note_on_c, 0, 62, 54
2, 37448, Note_on_c, 0, 62, 0
2, 37460, Note_on_c, 0, 43, 0
2, 37471, Note_on_c, 0, 64, 59
2, 37475, Note_on_c, 0, 48, 44
2, 37691, Note_on_c, 0, 67, 62
2, 37720, Note_on_c, 0, 74, 0
2, 37901, Note_on_c, 0, 47, 50
2, 37909, Note_on_c, 0, 69, 75
2, 37931, Note_on_c, 0, 48, 0
2, 37976, Note_on_c, 0, 67, 0
2, 38092, Note_on_c, 0, 55, 0
2, 38130, Note_on_c, 0, 71, 78
2, 38221, Note_on_c, 0, 69, 0
2, 38336, Note_on_c, 0, 47, 0
2, 38349, Note_on_c, 0, 57, 47
2, 38362, Note_on_c, 0, 45, 40
2, 38367, Note_on_c, 0, 72, 75
2, 38416, Note_on_c, 0, 64, 0
2, 38429, Note_on_c, 0, 71, 0
2, 38592, Note_on_c, 0, 64, 62
2, 38803, Note_on_c, 0, 57, 0
2, 38812, Note_on_c, 0, 43, 52
2, 38815, Note_on_c, 0, 65, 61
2, 38851, Note_on_c, 0, 45, 0
2, 38911, Note_on_c, 0, 64, 0
2, 39022, Note_on_c, 0, 67, 63
2, 39136, Note_on_c, 0, 65, 0
2, 39232, Note_on_c, 0, 41, 47
2, 39245, Note_on_c, 0, 69, 68
2, 39276, Note_on_c, 0, 43, 0
2, 39291, Note_on_c, 0, 67, 0
2, 39458, Note_on_c, 0, 67, 65
2, 39499, Note_on_c, 0, 69, 0
2, 39682, Note_on_c, 0, 65, 60
2, 39686, Note_on_c, 0, 38, 47
2, 39692, Note_on_c, 0, 67, 0
2, 39694, Note_on_c, 0, 41, 0
2, 39906, Note_on_c, 0, 64, 55
2, 39908, Note_on_c, 0, 65, 0
2, 40129, Note_on_c, 0, 62, 52
2, 40142, Note_on_c, 0, 43, 35
2, 40153, Note_on_c, 0, 38, 0
2, 40159, Note_on_c, 0, 64, 0
2, 40355, Note_on_c, 0, 65, 55
2, 40380, Note_on_c, 0, 72, 0
2, 40562, Control_c, 0, 67, 11
2, 40581, Control_c, 0, 67, 15
2, 40585, Note_on_c, 0, 72, 60
2, 40600, Control_c, 0, 67, 21
2, 40609, Note_on_c, 0, 55, 42
2, 40619, Control_c, 0, 67, 28
2, 40639, Control_c, 0, 67, 35
2, 40657, Control_c, 0, 67, 43
2, 40677, Control_c, 0, 67, 54
2, 40696, Control_c, 0, 67, 65
2, 40716, Control_c, 0, 67, 78
2, 40734, Control_c, 0, 67, 92
2, 40754, Control_c, 0, 67, 102
2, 40773, Control_c, 0, 67, 109
2, 40793, Control_c, 0, 67, 116
2, 40812, Control_c, 0, 67, 121
2, 40819, Note_on_c, 0, 71, 64
2, 40832, Control_c, 0, 67, 125
2, 40851, Control_c, 0, 67, 126
2, 40851, Note_on_c, 0, 72, 0
2, 40889, Control_c, 0, 67, 125
2, 40909, Control_c, 0, 67, 125
2, 40913, Note_on_c, 0, 62, 0
2, 40928, Control_c, 0, 67, 124
2, 40947, Control_c, 0, 67, 124
2, 40986, Control_c, 0, 67, 123
2, 41004, Control_c, 0, 67, 122
2, 41024, Control_c, 0, 67, 122
2, 41093, Note_on_c, 0, 72, 63
2, 41100, Control_c, 0, 67, 121
2, 41111, Note_on_c, 0, 48, 32
2, 41132, Note_on_c, 0, 71, 0
2, 41140, Note_on_c, 0, 65, 0
2, 41147, Note_on_c, 0, 60, 38
2, 41176, Control_c, 0, 67, 121
2, 41229, Note_on_c, 0, 43, 0
2, 41362, Note_on_c, 0, 65, 42
2, 41388, Control_c, 0, 67, 120
2, 41575, Note_on_c, 0, 67, 52
2, 41637, Control_c, 0, 67, 121
2, 41664, Note_on_c, 0, 65, 0
2, 41787, Note_on_c, 0, 69, 58
2, 41821, Note_on_c, 0, 67, 0
2, 41849, Control_c, 0, 67, 120
2, 42010, Note_on_c, 0, 67, 55
2, 42037, Note_on_c, 0, 69, 0
2, 42080, Control_c, 0, 67, 121
2, 42097, Note_on_c, 0, 60, 0
2, 42118, Control_c, 0, 67, 121
2, 42131, Note_on_c, 0, 55, 0
2, 42137, Control_c, 0, 67, 122
2, 42175, Control_c, 0, 67, 122
2, 42195, Control_c, 0, 67, 123
2, 42214, Control_c, 0, 67, 123
2, 42233, Control_c, 0, 67, 124
2, 42234, Note_on_c, 0, 65, 50
2, 42272, Control_c, 0, 67, 125
2, 42291, Control_c, 0, 67, 125
2, 42349, Control_c, 0, 67, 126
2, 42368, Control_c, 0, 67, 126
2, 42406, Control_c, 0, 67, 127
2, 42428, Note_on_c, 0, 48, 0
2, 42449, Note_on_c, 0, 65, 0
2, 42453, Note_on_c, 0, 64, 54
2, 42502, Control_c, 0, 67, 126
2, 42540, Control_c, 0, 67, 126
2, 42578, Control_c, 0, 67, 125
2, 42669, Note_on_c, 0, 64, 0
2, 42674, Note_on_c, 0, 62, 53
2, 42713, Control_c, 0, 67, 125
2, 42771, Control_c, 0, 67, 124
2, 42809, Control_c, 0, 67, 124
2, 42901, Note_on_c, 0, 64, 48
2, 42938, Note_on_c, 0, 62, 0
2, 43135, Note_on_c, 0, 62, 53
2, 43155, Control_c, 0, 67, 123
2, 43309, Control_c, 0, 67, 123
2, 43366, Control_c, 0, 67, 122
2, 43370, Note_on_c, 0, 60, 58
2, 43420, Note_on_c, 0, 62, 0
2, 43578, Note_on_c, 0, 59, 64
2, 43594, Note_on_c, 0, 60, 0
2, 43613, Note_on_c, 0, 67, 0
2, 43692, Note_on_c, 0, 72, 0
2, 43712, Control_c, 0, 67, 122
2, 43818, Note_on_c, 0, 64, 0
2, 43830, Note_on_c, 0, 60, 56
2, 43845, Note_on_c, 0, 59, 0
2, 44073, Note_on_c, 0, 71, 58
2, 44115, Control_c, 0, 67, 121
2, 44192, Control_c, 0, 67, 121
2, 44288, Control_c, 0, 67, 120
2, 44290, Note_on_c, 0, 72, 58
2, 44302, Note_on_c, 0, 55, 59
2, 44320, Note_on_c, 0, 71, 0
2, 44361, Note_on_c, 0, 60, 0
2, 44516, Note_on_c, 0, 74, 52
2, 44560, Note_on_c, 0, 72, 0
2, 44737, Note_on_c, 0, 72, 50
2, 44747, Note_on_c, 0, 57, 66
2, 44786, Note_on_c, 0, 48, 34
2, 44830, Note_on_c, 0, 74, 0
2, 44845, Note_on_c, 0, 55, 0
2, 44983, Note_on_c, 0, 71, 56
2, 45018, Note_on_c, 0, 72, 0
2, 45037, Control_c, 0, 67, 120
2, 45203, Note_on_c, 0, 52, 62
2, 45218, Note_on_c, 0, 69, 51
2, 45251, Note_on_c, 0, 71, 0
2, 45292, Note_on_c, 0, 57, 0
2, 45437, Note_on_c, 0, 69, 0
2, 45438, Note_on_c, 0, 67, 52
2, 45657, Note_on_c, 0, 53, 64
2, 45659, Note_on_c, 0, 69, 65
2, 45676, Note_on_c, 0, 67, 0
2, 45709, Control_c, 0, 67, 119
2, 45713, Note_on_c, 0, 52, 0
2, 45862, Control_c, 0, 67, 119
2, 45878, Note_on_c, 0, 67, 56
2, 45924, Note_on_c, 0, 69, 0
2, 46095, Note_on_c, 0, 57, 66
2, 46102, Note_on_c, 0, 65, 56
2, 46131, Note_on_c, 0, 53, 0
2, 46136, Note_on_c, 0, 67, 0
2, 46314, Note_on_c, 0, 65, 0
2, 46317, Note_on_c, 0, 64, 56
2, 46547, Note_on_c, 0, 65, 58
2, 46552, Note_on_c, 0, 50, 58
2, 46571, Note_on_c, 0, 57, 0
2, 46592, Control_c, 0, 67, 118
2, 46604, Note_on_c, 0, 64, 0
2, 46758, Note_on_c, 0, 64, 59
2, 46980, Note_on_c, 0, 62, 47
2, 46999, Note_on_c, 0, 52, 52
2, 47037, Note_on_c, 0, 50, 0
2, 47063, Note_on_c, 0, 64, 0
2, 47210, Note_on_c, 0, 60, 49
2, 47210, Note_on_c, 0, 62, 0
2, 47283, Control_c, 0, 67, 118
2, 47421, Note_on_c, 0, 53, 48
2, 47422, Note_on_c, 0, 62, 44
2, 47453, Note_on_c, 0, 60, 0
2, 47463, Note_on_c, 0, 52, 0
2, 47667, Control_c, 0, 67, 117
2, 47670, Note_on_c, 0, 60, 41
2, 47876, Note_on_c, 0, 59, 47
2, 47884, Note_on_c, 0, 60, 0
2, 48088, Note_on_c, 0, 57, 48
2, 48099, Note_on_c, 0, 59, 0
2, 48288, Note_on_c, 0, 53, 0
2, 48319, Note_on_c, 0, 59, 50
2, 48371, Note_on_c, 0, 57, 0
2, 48547, Note_on_c, 0, 53, 52
2, 48770, Note_on_c, 0, 55, 57
2, 48771, Note_on_c, 0, 53, 0
2, 48981, Note_on_c, 0, 57, 56
2, 48997, Note_on_c, 0, 55, 0
2, 49209, Note_on_c, 0, 55, 54
2, 49232, Note_on_c, 0, 57, 0
2, 49425, Note_on_c, 0, 55, 0
2, 49429, Note_on_c, 0, 53, 55
2, 49630, Note_on_c, 0, 53, 0
2, 49658, Note_on_c, 0, 52, 54
2, 49756, Control_c, 0, 67, 117
2, 49797, Note_on_c, 0, 65, 0
2, 49840, Note_on_c, 0, 52, 0
2, 49852, Note_on_c, 0, 50, 52
2, 50063, Control_c, 0, 67, 116
2, 50071, Note_on_c, 0, 50, 0
2, 50103, Note_on_c, 0, 64, 56
2, 50110, Note_on_c, 0, 55, 37
2, 50119, Note_on_c, 0, 52, 33
2, 50137, Note_on_c, 0, 60, 40
2, 50159, Control_c, 0, 67, 116
2, 50171, Note_on_c, 0, 59, 0
2, 50185, Note_on_c, 0, 48, 0
2, 50197, Control_c, 0, 67, 115
2, 50241, Note_on_c, 0, 62, 0
2, 50323, Note_on_c, 0, 50, 52
2, 50331, Control_c, 0, 67, 115
2, 50428, Control_c, 0, 67, 114
2, 50551, Note_on_c, 0, 48, 50
2, 50559, Note_on_c, 0, 50, 0
2, 50645, Note_on_c, 0, 60, 0
2, 50759, Note_on_c, 0, 48, 0
2, 50771, Note_on_c, 0, 47, 50
2, 50825, Note_on_c, 0, 55, 0
2, 50949, Note_on_c, 0, 47, 0
2, 50990, Note_on_c, 0, 48, 39
2, 50990, Note_on_c, 0, 63, 60
2, 50991, Note_on_c, 0, 60, 51
2, 50994, Note_on_c, 0, 57, 48
2, 51018, Note_on_c, 0, 52, 0
2, 51109, Note_on_c, 0, 64, 0
2, 51233, Note_on_c, 0, 45, 50
2, 51439, Note_on_c, 0, 45, 0
2, 51459, Note_on_c, 0, 43, 44
2, 51596, Note_on_c, 0, 57, 0
2, 51650, Note_on_c, 0, 43, 0
2, 51674, Note_on_c, 0, 42, 50
2, 51681, Note_on_c, 0, 48, 0
2, 51890, Note_on_c, 0, 42, 0
2, 51901, Note_on_c, 0, 43, 32
2, 51910, Note_on_c, 0, 55, 46
2, 51921, Note_on_c, 0, 63, 0
2, 52141, Note_on_c, 0, 63, 59
2, 52151, Note_on_c, 0, 48, 39
2, 52199, Note_on_c, 0, 60, 0
2, 52352, Note_on_c, 0, 48, 0
2, 52360, Note_on_c, 0, 62, 60
2, 52368, Note_on_c, 0, 47, 40
2, 52373, Note_on_c, 0, 63, 0
2, 52558, Control_c, 0, 67, 114
2, 52572, Note_on_c, 0, 60, 63
2, 52573, Note_on_c, 0, 62, 0
2, 52584, Note_on_c, 0, 45, 46
2, 52618, Note_on_c, 0, 47, 0
2, 52691, Control_c, 0, 67, 113
2, 52767, Note_on_c, 0, 45, 0
2, 52790, Note_on_c, 0, 47, 45
2, 52810, Note_on_c, 0, 62, 54
2, 52820, Note_on_c, 0, 60, 0
2, 53033, Note_on_c, 0, 60, 55
2, 53247, Note_on_c, 0, 50, 61
2, 53256, Note_on_c, 0, 60, 0
2, 53264, Note_on_c, 0, 59, 44
2, 53342, Note_on_c, 0, 47, 0
2, 53473, Note_on_c, 0, 59, 0
2, 53477, Note_on_c, 0, 57, 55
2, 53520, Note_on_c, 0, 55, 0
2, 53688, Note_on_c, 0, 55, 46
2, 53709, Note_on_c, 0, 59, 54
2, 53744, Note_on_c, 0, 50, 0
2, 53761, Note_on_c, 0, 57, 0
2, 53937, Note_on_c, 0, 45, 51
2, 53944, Note_on_c, 0, 43, 0
2, 54017, Control_c, 0, 67, 113
2, 54164, Note_on_c, 0, 50, 52
2, 54176, Note_on_c, 0, 43, 47
2, 54217, Note_on_c, 0, 45, 0
2, 54407, Note_on_c, 0, 41, 54
2, 54436, Note_on_c, 0, 43, 0
2, 54468, Note_on_c, 0, 62, 0
2, 54555, Control_c, 0, 67, 112
2, 54571, Note_on_c, 0, 55, 0
2, 54726, Note_on_c, 0, 40, 51
2, 54726, Note_on_c, 0, 59, 0
2, 54729, Note_on_c, 0, 41, 0
2, 54747, Control_c, 0, 67, 112
2, 54969, Note_on_c, 0, 55, 48
2, 55192, Note_on_c, 0, 57, 54
2, 55265, Note_on_c, 0, 55, 0
2, 55422, Note_on_c, 0, 58, 54
2, 55461, Note_on_c, 0, 57, 0
2, 55656, Note_on_c, 0, 57, 50
2, 55673, Note_on_c, 0, 58, 0
2, 55674, Note_on_c, 0, 45, 31
2, 55679, Note_on_c, 0, 49, 44
2, 55690, Note_on_c, 0, 40, 0
2, 55741, Note_on_c, 0, 50, 0
2, 55891, Note_on_c, 0, 59, 58
2, 55956, Control_c, 0, 67, 112
2, 56105, Note_on_c, 0, 61, 61
2, 56109, Note_on_c, 0, 53, 52
2, 56110, Control_c, 0, 67, 113
2, 56197, Note_on_c, 0, 49, 0
2, 56235, Note_on_c, 0, 59, 0
2, 56326, Note_on_c, 0, 62, 64
2, 56366, Note_on_c, 0, 61, 0
2, 56564, Note_on_c, 0, 52, 43
2, 56566, Note_on_c, 0, 53, 0
2, 56569, Note_on_c, 0, 62, 0
2, 56572, Note_on_c, 0, 61, 62
2, 56792, Note_on_c, 0, 64, 64
2, 57021, Note_on_c, 0, 65, 64
2, 57096, Note_on_c, 0, 64, 0
2, 57148, Control_c, 0, 67, 112
2, 57261, Note_on_c, 0, 67, 62
2, 57322, Note_on_c, 0, 52, 0
2, 57330, Note_on_c, 0, 65, 0
2, 57368, Note_on_c, 0, 45, 0
2, 57543, Note_on_c, 0, 38, 49
2, 57806, Note_on_c, 0, 64, 49
2, 57857, Note_on_c, 0, 61, 0
2, 57859, Control_c, 0, 67, 112
2, 58024, Note_on_c, 0, 62, 55
2, 58031, Note_on_c, 0, 45, 33
2, 58045, Note_on_c, 0, 64, 0
2, 58241, Note_on_c, 0, 61, 58
2, 58251, Note_on_c, 0, 62, 0
2, 58458, Note_on_c, 0, 62, 52
2, 58460, Note_on_c, 0, 41, 45
2, 58478, Note_on_c, 0, 45, 0
2, 58532, Note_on_c, 0, 67, 0
2, 58545, Note_on_c, 0, 61, 0
2, 58580, Note_on_c, 0, 38, 0
2, 58691, Note_on_c, 0, 64, 60
2, 58756, Note_on_c, 0, 62, 0
2, 58910, Note_on_c, 0, 65, 59
2, 58913, Note_on_c, 0, 50, 40
2, 58956, Note_on_c, 0, 64, 0
2, 59130, Note_on_c, 0, 62, 59
2, 59189, Note_on_c, 0, 57, 0
2, 59306, Note_on_c, 0, 50, 0
2, 59326, Note_on_c, 0, 62, 0
2, 59343, Note_on_c, 0, 57, 55
2, 59355, Note_on_c, 0, 38, 46
2, 59388, Note_on_c, 0, 41, 0
2, 59573, Note_on_c, 0, 60, 60
2, 59671, Note_on_c, 0, 57, 0
2, 59795, Note_on_c, 0, 50, 43
2, 59798, Note_on_c, 0, 59, 67
2, 59856, Note_on_c, 0, 60, 0
2, 59935, Note_on_c, 0, 38, 0
2, 60021, Note_on_c, 0, 57, 60
2, 60031, Control_c, 0, 67, 111
2, 60066, Note_on_c, 0, 59, 0
2, 60263, Note_on_c, 0, 43, 44
2, 60285, Note_on_c, 0, 59, 67
2, 60293, Note_on_c, 0, 50, 0
2, 60319, Control_c, 0, 67, 111
2, 60399, Note_on_c, 0, 57, 0
2, 60414, Control_c, 0, 67, 110
2, 60511, Control_c, 0, 67, 110
2, 60524, Note_on_c, 0, 53, 66
2, 60568, Control_c, 0, 67, 109
2, 60588, Control_c, 0, 67, 109
2, 60607, Control_c, 0, 67, 105
2, 60625, Control_c, 0, 67, 102
2, 60645, Control_c, 0, 67, 100
2, 60664, Control_c, 0, 67, 99
2, 60683, Control_c, 0, 67, 99
2, 60702, Control_c, 0, 67, 98
2, 60722, Control_c, 0, 67, 98
2, 60741, Control_c, 0, 67, 97
2, 60748, Note_on_c, 0, 55, 67
2, 60779, Control_c, 0, 67, 97
2, 60817, Note_on_c, 0, 53, 0
2, 60818, Control_c, 0, 67, 96
2, 60904, Note_on_c, 0, 59, 0
2, 60970, Note_on_c, 0, 56, 74
2, 61009, Note_on_c, 0, 55, 0
2, 61193, Note_on_c, 0, 55, 61
2, 61197, Note_on_c, 0, 47, 45
2, 61238, Note_on_c, 0, 56, 0
2, 61310, Note_on_c, 0, 43, 0
2, 61317, Control_c, 0, 67, 97
2, 61418, Note_on_c, 0, 57, 59
2, 61471, Control_c, 0, 67, 97
2, 61528, Control_c, 0, 67, 98
2, 61585, Control_c, 0, 67, 98
2, 61624, Control_c, 0, 67, 99
2, 61643, Note_on_c, 0, 59, 64
2, 61742, Note_on_c, 0, 57, 0
2, 61855, Note_on_c, 0, 60, 63
2, 61897, Note_on_c, 0, 59, 0
2, 62008, Control_c, 0, 67, 99
2, 62028, Control_c, 0, 67, 100
2, 62047, Control_c, 0, 67, 100
2, 62079, Note_on_c, 0, 43, 35
2, 62081, Note_on_c, 0, 59, 59
2, 62085, Control_c, 0, 67, 101
2, 62086, Note_on_c, 0, 60, 0
2, 62104, Control_c, 0, 67, 101
2, 62123, Control_c, 0, 67, 102
2, 62123, Note_on_c, 0, 47, 0
2, 62162, Control_c, 0, 67, 102
2, 62181, Control_c, 0, 67, 103
2, 62200, Control_c, 0, 67, 104
2, 62239, Control_c, 0, 67, 104
2, 62248, Note_on_c, 0, 65, 0
2, 62258, Control_c, 0, 67, 105
2, 62277, Control_c, 0, 67, 105
2, 62296, Control_c, 0, 67, 106
2, 62305, Note_on_c, 0, 62, 57
2, 62316, Control_c, 0, 67, 107
2, 62354, Control_c, 0, 67, 108
2, 62373, Control_c, 0, 67, 108
2, 62393, Control_c, 0, 67, 109
2, 62411, Control_c, 0, 67, 109
2, 62431, Control_c, 0, 67, 110
2, 62450, Control_c, 0, 67, 110
2, 62508, Control_c, 0, 67, 111
2, 62527, Control_c, 0, 67, 111
2, 62538, Note_on_c, 0, 64, 60
2, 62545, Control_c, 0, 67, 112
2, 62565, Control_c, 0, 67, 112
2, 62580, Note_on_c, 0, 62, 0
2, 62584, Control_c, 0, 67, 115
2, 62603, Control_c, 0, 67, 118
2, 62622, Control_c, 0, 67, 120
2, 62642, Control_c, 0, 67, 123
2, 62661, Control_c, 0, 67, 125
2, 62680, Control_c, 0, 67, 127
2, 62768, Note_on_c, 0, 65, 52
2, 62791, Note_on_c, 0, 64, 0
2, 62993, Note_on_c, 0, 48, 41
2, 63044, Note_on_c, 0, 43, 0
2, 63199, Control_c, 0, 67, 127
2, 63223, Note_on_c, 0, 62, 49
2, 63237, Control_c, 0, 67, 126
2, 63276, Control_c, 0, 67, 126
2, 63294, Control_c, 0, 67, 125
2, 63371, Control_c, 0, 67, 125
2, 63402, Note_on_c, 0, 59, 0
2, 63410, Control_c, 0, 67, 124
2, 63455, Note_on_c, 0, 60, 49
2, 63457, Note_on_c, 0, 62, 0
2, 63505, Control_c, 0, 67, 124
2, 63640, Control_c, 0, 67, 123
2, 63669, Note_on_c, 0, 59, 52
2, 63681, Note_on_c, 0, 60, 0
2, 63736, Control_c, 0, 67, 123
2, 63774, Control_c, 0, 67, 122
2, 63893, Note_on_c, 0, 52, 36
2, 63898, Note_on_c, 0, 60, 51
2, 63946, Note_on_c, 0, 48, 0
2, 63947, Control_c, 0, 67, 122
2, 64016, Note_on_c, 0, 59, 0
2, 64075, Note_on_c, 0, 65, 0
2, 64120, Note_on_c, 0, 62, 49
2, 64274, Control_c, 0, 67, 121
2, 64331, Control_c, 0, 67, 121
2, 64351, Note_on_c, 0, 64, 53
2, 64376, Note_on_c, 0, 60, 0
2, 64389, Note_on_c, 0, 62, 0
2, 64565, Note_on_c, 0, 60, 43
2, 64763, Note_on_c, 0, 52, 0
2, 64795, Note_on_c, 0, 48, 39
2, 64850, Control_c, 0, 67, 120
2, 64932, Note_on_c, 0, 55, 0
2, 65003, Note_on_c, 0, 58, 51
2, 65219, Note_on_c, 0, 57, 47
2, 65223, Note_on_c, 0, 58, 0
2, 65430, Note_on_c, 0, 57, 0
2, 65442, Note_on_c, 0, 55, 52
2, 65466, Note_on_c, 0, 48, 0
2, 65493, Note_on_c, 0, 60, 0
2, 65502, Control_c, 0, 67, 121
2, 65552, Note_on_c, 0, 64, 0
2, 65669, Note_on_c, 0, 57, 49
2, 65682, Note_on_c, 0, 53, 43
2, 65690, Note_on_c, 0, 55, 0
2, 65714, Control_c, 0, 67, 120
2, 65892, Note_on_c, 0, 67, 55
2, 66021, Control_c, 0, 67, 120
2, 66059, Control_c, 0, 67, 119
2, 66086, Note_on_c, 0, 53, 0
2, 66091, Note_on_c, 0, 52, 44
2, 66109, Note_on_c, 0, 69, 68
2, 66163, Note_on_c, 0, 67, 0
2, 66192, Control_c, 0, 67, 119
2, 66320, Note_on_c, 0, 70, 72
2, 66362, Note_on_c, 0, 69, 0
2, 66544, Note_on_c, 0, 69, 70
2, 66552, Note_on_c, 0, 53, 30
2, 66576, Control_c, 0, 67, 118
2, 66596, Note_on_c, 0, 70, 0
2, 66597, Note_on_c, 0, 52, 0
2, 66672, Control_c, 0, 67, 118
2, 66673, Note_on_c, 0, 57, 0
2, 66770, Note_on_c, 0, 67, 54
2, 66806, Control_c, 0, 67, 117
2, 66902, Control_c, 0, 67, 117
2, 66979, Note_on_c, 0, 67, 0
2, 66996, Note_on_c, 0, 65, 52
2, 67000, Note_on_c, 0, 57, 35
2, 67009, Note_on_c, 0, 62, 39
2, 67171, Control_c, 0, 67, 116
2, 67218, Note_on_c, 0, 64, 51
2, 67236, Note_on_c, 0, 65, 0
2, 67382, Control_c, 0, 67, 116
2, 67443, Note_on_c, 0, 65, 55
2, 67450, Note_on_c, 0, 62, 0
2, 67476, Note_on_c, 0, 64, 0
2, 67497, Control_c, 0, 67, 115
2, 67536, Control_c, 0, 67, 115
2, 67555, Control_c, 0, 67, 114
2, 67594, Control_c, 0, 67, 114
2, 67632, Control_c, 0, 67, 112
2, 67651, Control_c, 0, 67, 111
2, 67665, Note_on_c, 0, 64, 50
2, 67671, Control_c, 0, 67, 110
2, 67707, Control_c, 0, 67, 110
2, 67727, Control_c, 0, 67, 109
2, 67765, Control_c, 0, 67, 109
2, 67784, Control_c, 0, 64, 8
2, 67804, Control_c, 0, 64, 37
2, 67823, Control_c, 0, 64, 52
2, 67842, Control_c, 0, 64, 57
2, 67861, Control_c, 0, 64, 59
2, 67870, Note_on_c, 0, 64, 0
2, 67881, Control_c, 0, 64, 60
2, 67888, Note_on_c, 0, 62, 51
2, 67899, Control_c, 0, 64, 61
2, 67904, Note_on_c, 0, 69, 0
2, 67919, Control_c, 0, 64, 62
2, 67938, Control_c, 0, 64, 63
2, 67938, Control_c, 0, 67, 108
2, 67958, Control_c, 0, 64, 64
2, 67976, Control_c, 0, 64, 64
2, 67995, Control_c, 0, 64, 65
2, 68014, Control_c, 0, 64, 66
2, 68034, Control_c, 0, 64, 68
2, 68035, Note_on_c, 0, 62, 0
2, 68052, Control_c, 0, 64, 69
2, 68072, Note_on_c, 0, 60, 61
2, 68110, Control_c, 0, 64, 68
2, 68116, Note_on_c, 0, 65, 0
2, 68124, Note_on_c, 0, 57, 0
2, 68124, Note_on_c, 0, 60, 0
2, 68129, Control_c, 0, 64, 68
2, 68168, Control_c, 0, 64, 67
2, 68186, Control_c, 0, 64, 67
2, 68204, Note_on_c, 0, 62, 55
2, 68206, Control_c, 0, 64, 66
2, 68225, Control_c, 0, 64, 65
2, 68244, Control_c, 0, 64, 63
2, 68245, Note_on_c, 0, 53, 0
2, 68263, Control_c, 0, 64, 61
2, 68275, Note_on_c, 0, 67, 61
2, 68283, Control_c, 0, 64, 57
2, 68283, Control_c, 0, 67, 108
2, 68302, Control_c, 0, 64, 54
2, 68321, Control_c, 0, 64, 50
2, 68340, Control_c, 0, 64, 44
2, 68360, Control_c, 0, 64, 39
2, 68361, Note_on_c, 0, 71, 72
2, 68378, Control_c, 0, 64, 34
2, 68378, Control_c, 0, 67, 107
2, 68398, Control_c, 0, 64, 29
2, 68398, Control_c, 0, 67, 107
2, 68417, Control_c, 0, 64, 24
2, 68437, Control_c, 0, 64, 17
2, 68437, Control_c, 0, 67, 106
2, 68455, Control_c, 0, 64, 11
2, 68455, Control_c, 0, 67, 105
2, 68475, Control_c, 0, 64, 0
2, 68475, Control_c, 0, 67, 102
2, 68494, Control_c, 0, 67, 99
2, 68514, Control_c, 0, 67, 96
2, 68532, Control_c, 0, 67, 93
2, 68552, Control_c, 0, 67, 91
2, 68571, Control_c, 0, 67, 89
2, 68590, Control_c, 0, 67, 88
2, 68602, Note_on_c, 0, 53, 45
2, 68609, Control_c, 0, 67, 85
2, 68629, Control_c, 0, 67, 82
2, 68649, Control_c, 0, 67, 78
2, 68669, Control_c, 0, 67, 76
2, 68688, Control_c, 0, 67, 75
2, 68707, Control_c, 0, 67, 74
2, 68726, Control_c, 0, 67, 73
2, 68745, Control_c, 0, 67, 71
2, 68765, Control_c, 0, 67, 68
2, 68783, Control_c, 0, 67, 67
2, 68803, Control_c, 0, 67, 66
2, 68816, Note_on_c, 0, 55, 54
2, 68822, Control_c, 0, 67, 65
2, 68827, Note_on_c, 0, 53, 0
2, 68842, Control_c, 0, 67, 64
2, 68860, Control_c, 0, 67, 63
2, 68880, Control_c, 0, 67, 63
2, 68899, Control_c, 0, 67, 62
2, 68918, Control_c, 0, 67, 61
2, 68995, Control_c, 0, 67, 61
2, 69036, Note_on_c, 0, 57, 59
2, 69048, Note_on_c, 0, 55, 0
2, 69168, Control_c, 0, 67, 61
2, 69187, Control_c, 0, 67, 62
2, 69263, Note_on_c, 0, 55, 62
2, 69303, Note_on_c, 0, 57, 0
2, 69474, Note_on_c, 0, 53, 63
2, 69489, Note_on_c, 0, 55, 0
2, 69698, Note_on_c, 0, 53, 0
2, 69700, Note_on_c, 0, 52, 66
2, 69824, Note_on_c, 0, 67, 0
2, 69899, Note_on_c, 0, 62, 0
2, 69917, Note_on_c, 0, 50, 67
2, 69939, Note_on_c, 0, 52, 0
2, 70138, Note_on_c, 0, 72, 76
2, 70153, Note_on_c, 0, 52, 46
2, 70157, Note_on_c, 0, 50, 0
2, 70166, Note_on_c, 0, 67, 46
2, 70176, Note_on_c, 0, 60, 41
2, 70325, Note_on_c, 0, 71, 0
2, 70368, Note_on_c, 0, 50, 58
2, 70393, Note_on_c, 0, 52, 0
2, 70397, Control_c, 0, 67, 61
2, 70435, Control_c, 0, 67, 61
2, 70474, Control_c, 0, 67, 60
2, 70493, Control_c, 0, 67, 60
2, 70512, Control_c, 0, 67, 59
2, 70531, Control_c, 0, 67, 58
2, 70551, Control_c, 0, 67, 55
2, 70569, Control_c, 0, 67, 50
2, 70588, Control_c, 0, 67, 45
2, 70603, Note_on_c, 0, 48, 59
2, 70605, Control_c, 0, 67, 40
2, 70623, Note_on_c, 0, 50, 0
2, 70625, Control_c, 0, 67, 34
2, 70643, Control_c, 0, 67, 27
2, 70663, Control_c, 0, 67, 18
2, 70682, Control_c, 0, 67, 10
2, 70701, Control_c, 0, 67, 0
2, 70747, Note_on_c, 0, 60, 0
2, 70821, Note_on_c, 0, 46, 66
2, 70859, Note_on_c, 0, 48, 0
2, 71012, Note_on_c, 0, 72, 0
2, 71035, Note_on_c, 0, 67, 0
2, 71038, Note_on_c, 0, 46, 0
2, 71039, Note_on_c, 0, 65, 68
2, 71042, Note_on_c, 0, 45, 51
2, 71234, Note_on_c, 0, 45, 0
2, 71259, Note_on_c, 0, 52, 56
2, 71271, Note_on_c, 0, 72, 73
2, 71483, Note_on_c, 0, 52, 0
2, 71485, Note_on_c, 0, 74, 73
2, 71491, Note_on_c, 0, 53, 56
2, 71541, Note_on_c, 0, 72, 0
2, 71690, Note_on_c, 0, 53, 0
2, 71696, Note_on_c, 0, 55, 59
2, 71697, Note_on_c, 0, 75, 84
2, 71782, Note_on_c, 0, 74, 0
2, 71924, Note_on_c, 0, 53, 55
2, 71926, Note_on_c, 0, 55, 0
2, 71926, Note_on_c, 0, 74, 75
2, 72064, Note_on_c, 0, 65, 0
2, 72076, Note_on_c, 0, 75, 0
2, 72151, Note_on_c, 0, 52, 54
2, 72152, Note_on_c, 0, 72, 70
2, 72160, Note_on_c, 0, 53, 0
2, 72358, Note_on_c, 0, 70, 75
2, 72375, Note_on_c, 0, 50, 57
2, 72383, Note_on_c, 0, 52, 0
2, 72394, Note_on_c, 0, 72, 0
2, 72580, Note_on_c, 0, 69, 74
2, 72590, Note_on_c, 0, 50, 0
2, 72600, Note_on_c, 0, 48, 55
2, 72605, Note_on_c, 0, 70, 0
2, 72802, Note_on_c, 0, 48, 0
2, 72813, Note_on_c, 0, 50, 53
2, 72817, Note_on_c, 0, 70, 79
2, 72860, Note_on_c, 0, 69, 0
2, 73029, Note_on_c, 0, 69, 71
2, 73030, Note_on_c, 0, 50, 0
2, 73034, Note_on_c, 0, 48, 53
2, 73063, Control_c, 0, 64, 14
2, 73067, Note_on_c, 0, 74, 0
2, 73082, Control_c, 0, 64, 31
2, 73101, Control_c, 0, 64, 41
2, 73120, Control_c, 0, 64, 48
2, 73140, Control_c, 0, 64, 55
2, 73159, Control_c, 0, 64, 60
2, 73177, Control_c, 0, 64, 63
2, 73197, Control_c, 0, 64, 64
2, 73216, Control_c, 0, 64, 65
2, 73235, Control_c, 0, 64, 66
2, 73247, Note_on_c, 0, 69, 0
2, 73248, Note_on_c, 0, 67, 69
2, 73250, Note_on_c, 0, 46, 56
2, 73254, Control_c, 0, 64, 67
2, 73257, Note_on_c, 0, 48, 0
2, 73274, Control_c, 0, 64, 68
2, 73293, Control_c, 0, 64, 69
2, 73312, Control_c, 0, 64, 70
2, 73312, Note_on_c, 0, 70, 0
2, 73331, Control_c, 0, 64, 71
2, 73408, Control_c, 0, 64, 71
2, 73423, Note_on_c, 0, 67, 0
2, 73428, Note_on_c, 0, 65, 72
2, 73445, Note_on_c, 0, 45, 57
2, 73457, Note_on_c, 0, 46, 0
2, 73486, Control_c, 0, 64, 71
2, 73497, Note_on_c, 0, 65, 0
2, 73506, Control_c, 0, 64, 70
2, 73524, Control_c, 0, 64, 68
2, 73544, Control_c, 0, 64, 67
2, 73561, Note_on_c, 0, 67, 72
2, 73563, Control_c, 0, 64, 64
2, 73582, Control_c, 0, 64, 58
2, 73601, Control_c, 0, 64, 41
2, 73621, Control_c, 0, 64, 0
2, 73631, Note_on_c, 0, 45, 0
2, 73651, Note_on_c, 0, 70, 72
2, 73661, Note_on_c, 0, 43, 53
2, 73697, Control_c, 0, 64, 32
2, 73716, Control_c, 0, 64, 57
2, 73730, Note_on_c, 0, 76, 83
2, 73732, Note_on_c, 0, 43, 0
2, 73735, Control_c, 0, 64, 63
2, 73755, Control_c, 0, 64, 67
2, 73774, Control_c, 0, 64, 73
2, 73793, Control_c, 0, 64, 84
2, 73812, Control_c, 0, 64, 101
2, 73832, Control_c, 0, 64, 127
2, 73992, Note_on_c, 0, 58, 70
2, 74024, Control_c, 0, 64, 111
2, 74043, Control_c, 0, 64, 98
2, 74062, Control_c, 0, 64, 85
2, 74081, Control_c, 0, 64, 76
2, 74101, Control_c, 0, 64, 69
2, 74120, Control_c, 0, 64, 65
2, 74139, Control_c, 0, 64, 63
2, 74158, Control_c, 0, 64, 62
2, 74177, Control_c, 0, 64, 61
2, 74196, Control_c, 0, 64, 60
2, 74212, Note_on_c, 0, 60, 76
2, 74215, Control_c, 0, 64, 59
2, 74235, Control_c, 0, 64, 56
2, 74254, Control_c, 0, 64, 53
2, 74261, Note_on_c, 0, 58, 0
2, 74273, Control_c, 0, 64, 51
2, 74292, Control_c, 0, 64, 47
2, 74312, Control_c, 0, 64, 43
2, 74330, Control_c, 0, 64, 39
2, 74350, Control_c, 0, 64, 37
2, 74369, Control_c, 0, 64, 36
2, 74389, Control_c, 0, 64, 34
2, 74407, Control_c, 0, 64, 32
2, 74416, Note_on_c, 0, 62, 76
2, 74427, Control_c, 0, 64, 30
2, 74446, Control_c, 0, 64, 27
2, 74466, Control_c, 0, 64, 13
2, 74467, Note_on_c, 0, 60, 0
2, 74484, Control_c, 0, 64, 0
2, 74631, Note_on_c, 0, 60, 73
2, 74680, Note_on_c, 0, 62, 0
2, 74848, Note_on_c, 0, 58, 68
2, 74866, Note_on_c, 0, 60, 0
2, 75070, Note_on_c, 0, 57, 72
2, 75095, Note_on_c, 0, 58, 0
2, 75273, Note_on_c, 0, 67, 0
2, 75283, Note_on_c, 0, 55, 75
2, 75290, Note_on_c, 0, 70, 0
2, 75332, Note_on_c, 0, 57, 0
2, 75525, Note_on_c, 0, 57, 53
2, 75525, Note_on_c, 0, 77, 81
2, 75545, Note_on_c, 0, 55, 0
2, 75545, Note_on_c, 0, 65, 54
2, 75559, Note_on_c, 0, 72, 56
2, 75750, Note_on_c, 0, 55, 62
2, 75786, Note_on_c, 0, 57, 0
2, 75828, Note_on_c, 0, 76, 0
2, 75943, Note_on_c, 0, 65, 0
2, 75971, Note_on_c, 0, 53, 65
2, 76023, Note_on_c, 0, 72, 0
2, 76026, Note_on_c, 0, 55, 0
2, 76200, Note_on_c, 0, 52, 63
2, 76252, Note_on_c, 0, 53, 0
2, 76431, Note_on_c, 0, 52, 0
2, 76432, Note_on_c, 0, 50, 66
2, 76581, Note_on_c, 0, 77, 0
2, 76665, Note_on_c, 0, 50, 0
2, 76667, Note_on_c, 0, 57, 56
2, 76671, Note_on_c, 0, 77, 82
2, 76891, Note_on_c, 0, 79, 86
2, 76898, Note_on_c, 0, 57, 0
2, 76903, Note_on_c, 0, 58, 59
2, 77011, Note_on_c, 0, 77, 0
2, 77094, Note_on_c, 0, 58, 0
2, 77109, Note_on_c, 0, 60, 56
2, 77118, Note_on_c, 0, 81, 85
2, 77195, Note_on_c, 0, 79, 0
2, 77330, Note_on_c, 0, 79, 83
2, 77337, Note_on_c, 0, 58, 57
2, 77341, Note_on_c, 0, 60, 0
2, 77440, Note_on_c, 0, 81, 0
2, 77543, Note_on_c, 0, 77, 80
2, 77547, Note_on_c, 0, 57, 57
2, 77556, Note_on_c, 0, 58, 0
2, 77663, Note_on_c, 0, 79, 0
2, 77758, Note_on_c, 0, 55, 57
2, 77760, Note_on_c, 0, 76, 83
2, 77776, Note_on_c, 0, 57, 0
2, 77843, Note_on_c, 0, 77, 0
2, 77976, Note_on_c, 0, 55, 0
2, 77981, Note_on_c, 0, 53, 61
2, 77987, Note_on_c, 0, 74, 79
2, 78002, Note_on_c, 0, 76, 0
2, 78199, Note_on_c, 0, 53, 0
2, 78215, Note_on_c, 0, 55, 57
2, 78231, Note_on_c, 0, 76, 79
2, 78262, Note_on_c, 0, 74, 0
2, 78468, Note_on_c, 0, 74, 79
2, 78474, Note_on_c, 0, 65, 68
2, 78562, Note_on_c, 0, 76, 0
2, 78668, Note_on_c, 0, 64, 70
2, 78670, Note_on_c, 0, 65, 0
2, 78674, Note_on_c, 0, 73, 82
2, 78725, Note_on_c, 0, 74, 0
2, 78871, Note_on_c, 0, 73, 0
2, 78879, Note_on_c, 0, 71, 83
2, 78892, Note_on_c, 0, 64, 0
2, 78893, Note_on_c, 0, 62, 54
2, 79130, Note_on_c, 0, 62, 0
2, 79137, Note_on_c, 0, 73, 77
2, 79142, Note_on_c, 0, 64, 47
2, 79173, Note_on_c, 0, 71, 0
2, 79368, Note_on_c, 0, 70, 68
2, 79588, Note_on_c, 0, 69, 66
2, 79632, Note_on_c, 0, 70, 0
2, 79807, Note_on_c, 0, 67, 58
2, 79808, Note_on_c, 0, 69, 0
2, 80038, Note_on_c, 0, 69, 59
2, 80057, Note_on_c, 0, 67, 0
2, 80226, Control_c, 0, 64, 29
2, 80244, Control_c, 0, 64, 50
2, 80263, Note_on_c, 0, 67, 51
2, 80264, Control_c, 0, 64, 57
2, 80283, Control_c, 0, 64, 60
2, 80301, Note_on_c, 0, 64, 0
2, 80302, Control_c, 0, 64, 61
2, 80321, Control_c, 0, 64, 62
2, 80341, Control_c, 0, 64, 63
2, 80360, Control_c, 0, 64, 64
2, 80378, Control_c, 0, 64, 65
2, 80398, Control_c, 0, 64, 67
2, 80417, Control_c, 0, 64, 69
2, 80436, Control_c, 0, 64, 74
2, 80455, Control_c, 0, 64, 81
2, 80475, Control_c, 0, 64, 87
2, 80486, Note_on_c, 0, 65, 54
2, 80494, Control_c, 0, 64, 92
2, 80511, Note_on_c, 0, 55, 0
2, 80513, Control_c, 0, 64, 97
2, 80520, Note_on_c, 0, 67, 0
2, 80532, Control_c, 0, 64, 103
2, 80552, Control_c, 0, 64, 111
2, 80553, Note_on_c, 0, 69, 0
2, 80570, Control_c, 0, 64, 127
2, 80693, Note_on_c, 0, 64, 62
2, 80718, Note_on_c, 0, 65, 0
2, 80801, Control_c, 0, 64, 120
2, 80821, Control_c, 0, 64, 117
2, 80840, Control_c, 0, 64, 114
2, 80858, Control_c, 0, 64, 112
2, 80878, Control_c, 0, 64, 108
2, 80897, Control_c, 0, 64, 102
2, 80912, Note_on_c, 0, 73, 0
2, 80916, Control_c, 0, 64, 94
2, 80935, Control_c, 0, 64, 84
2, 80937, Note_on_c, 0, 53, 44
2, 80947, Note_on_c, 0, 74, 66
2, 80955, Control_c, 0, 64, 76
2, 80972, Note_on_c, 0, 69, 53
2, 80974, Control_c, 0, 64, 69
2, 80975, Note_on_c, 0, 65, 35
2, 80993, Control_c, 0, 64, 64
2, 81012, Control_c, 0, 64, 58
2, 81032, Control_c, 0, 64, 50
2, 81038, Note_on_c, 0, 64, 0
2, 81050, Control_c, 0, 64, 45
2, 81070, Control_c, 0, 64, 39
2, 81089, Control_c, 0, 64, 36
2, 81109, Control_c, 0, 64, 31
2, 81127, Control_c, 0, 64, 29
2, 81147, Control_c, 0, 64, 28
2, 81166, Control_c, 0, 64, 23
2, 81184, Note_on_c, 0, 61, 60
2, 81186, Control_c, 0, 64, 0
2, 81411, Note_on_c, 0, 62, 68
2, 81459, Note_on_c, 0, 61, 0
2, 81629, Note_on_c, 0, 64, 69
2, 81677, Note_on_c, 0, 62, 0
2, 81754, Note_on_c, 0, 65, 0
2, 81794, Note_on_c, 0, 74, 0
2, 81838, Note_on_c, 0, 69, 0
2, 81841, Note_on_c, 0, 62, 67
2, 81869, Note_on_c, 0, 64, 0
2, 82056, Note_on_c, 0, 62, 0
2, 82067, Note_on_c, 0, 60, 70
2, 82286, Note_on_c, 0, 58, 45
2, 82292, Note_on_c, 0, 77, 84
2, 82305, Note_on_c, 0, 69, 73
2, 82396, Note_on_c, 0, 60, 0
2, 82432, Control_c, 0, 64, 28
2, 82451, Control_c, 0, 64, 53
2, 82471, Control_c, 0, 64, 59
2, 82490, Control_c, 0, 64, 62
2, 82509, Control_c, 0, 64, 63
2, 82511, Note_on_c, 0, 57, 65
2, 82528, Control_c, 0, 64, 64
2, 82532, Note_on_c, 0, 58, 0
2, 82535, Note_on_c, 0, 53, 0
2, 82548, Control_c, 0, 64, 66
2, 82566, Control_c, 0, 64, 69
2, 82586, Control_c, 0, 64, 73
2, 82595, Note_on_c, 0, 69, 0
2, 82605, Control_c, 0, 64, 77
2, 82625, Control_c, 0, 64, 79
2, 82626, Note_on_c, 0, 57, 0
2, 82640, Note_on_c, 0, 77, 0
2, 82643, Control_c, 0, 64, 80
2, 82701, Control_c, 0, 64, 79
2, 82720, Control_c, 0, 64, 77
2, 82731, Note_on_c, 0, 76, 90
2, 82739, Control_c, 0, 64, 72
2, 82751, Note_on_c, 0, 67, 71
2, 82759, Control_c, 0, 64, 65
2, 82762, Note_on_c, 0, 58, 58
2, 82777, Control_c, 0, 64, 56
2, 82797, Control_c, 0, 64, 40
2, 82816, Control_c, 0, 64, 29
2, 82836, Control_c, 0, 64, 26
2, 82874, Control_c, 0, 64, 29
2, 82893, Control_c, 0, 64, 44
2, 82912, Control_c, 0, 64, 57
2, 82931, Control_c, 0, 64, 62
2, 82948, Note_on_c, 0, 57, 66
2, 82951, Control_c, 0, 64, 65
2, 82970, Control_c, 0, 64, 68
2, 82989, Control_c, 0, 64, 74
2, 83008, Control_c, 0, 64, 82
2, 83028, Control_c, 0, 64, 92
2, 83045, Control_c, 0, 64, 107
2, 83065, Control_c, 0, 64, 127
2, 83106, Note_on_c, 0, 76, 0
2, 83147, Note_on_c, 0, 55, 57
2, 83153, Note_on_c, 0, 79, 89
2, 83159, Note_on_c, 0, 70, 74
2, 83161, Control_c, 0, 64, 110
2, 83181, Control_c, 0, 64, 88
2, 83189, Note_on_c, 0, 57, 0
2, 83199, Control_c, 0, 64, 71
2, 83218, Control_c, 0, 64, 61
2, 83238, Control_c, 0, 64, 42
2, 83256, Control_c, 0, 64, 39
2, 83276, Control_c, 0, 64, 52
2, 83295, Control_c, 0, 64, 62
2, 83315, Control_c, 0, 64, 66
2, 83333, Control_c, 0, 64, 69
2, 83341, Note_on_c, 0, 79, 0
2, 83352, Control_c, 0, 64, 74
2, 83370, Note_on_c, 0, 53, 67
2, 83371, Control_c, 0, 64, 82
2, 83375, Note_on_c, 0, 67, 0
2, 83384, Note_on_c, 0, 55, 0
2, 83391, Control_c, 0, 64, 93
2, 83393, Note_on_c, 0, 70, 0
2, 83396, Note_on_c, 0, 58, 0
2, 83409, Control_c, 0, 64, 115
2, 83429, Control_c, 0, 64, 127
2, 83449, Note_on_c, 0, 53, 0
2, 83583, Control_c, 0, 64, 113
2, 83601, Control_c, 0, 64, 95
2, 83605, Note_on_c, 0, 73, 85
2, 83621, Control_c, 0, 64, 82
2, 83627, Note_on_c, 0, 64, 66
2, 83628, Note_on_c, 0, 55, 56
2, 83634, Note_on_c, 0, 57, 46
2, 83640, Control_c, 0, 64, 72
2, 83659, Control_c, 0, 64, 65
2, 83678, Control_c, 0, 64, 58
2, 83697, Control_c, 0, 64, 53
2, 83717, Control_c, 0, 64, 49
2, 83735, Control_c, 0, 64, 48
2, 83755, Control_c, 0, 64, 47
2, 83774, Control_c, 0, 64, 45
2, 83794, Control_c, 0, 64, 45
2, 83812, Control_c, 0, 64, 44
2, 83832, Control_c, 0, 64, 42
2, 83837, Note_on_c, 0, 53, 63
2, 83851, Control_c, 0, 64, 40
2, 83854, Note_on_c, 0, 55, 0
2, 83871, Control_c, 0, 64, 38
2, 83884, Note_on_c, 0, 64, 0
2, 83889, Control_c, 0, 64, 35
2, 83909, Control_c, 0, 64, 33
2, 83928, Control_c, 0, 64, 29
2, 83947, Control_c, 0, 64, 28
2, 83966, Control_c, 0, 64, 27
2, 84007, Control_c, 0, 64, 26
2, 84027, Control_c, 0, 64, 25
2, 84046, Control_c, 0, 64, 21
2, 84066, Control_c, 0, 64, 17
2, 84066, Note_on_c, 0, 52, 54
2, 84069, Note_on_c, 0, 74, 72
2, 84081, Note_on_c, 0, 53, 0
2, 84084, Control_c, 0, 64, 13
2, 84103, Note_on_c, 0, 65, 50
2, 84104, Control_c, 0, 64, 0
2, 84179, Note_on_c, 0, 73, 0
2, 84290, Note_on_c, 0, 52, 0
2, 84317, Note_on_c, 0, 50, 60
2, 84364, Note_on_c, 0, 57, 0
2, 84556, Note_on_c, 0, 50, 0
2, 84564, Note_on_c, 0, 65, 0
2, 84586, Note_on_c, 0, 57, 62
2, 84602, Note_on_c, 0, 74, 0
2, 84848, Note_on_c, 0, 74, 70
2, 84858, Note_on_c, 0, 65, 51
2, 84931, Note_on_c, 0, 65, 0
2, 85071, Note_on_c, 0, 73, 74
2, 85076, Note_on_c, 0, 45, 41
2, 85098, Note_on_c, 0, 64, 55
2, 85111, Note_on_c, 0, 74, 0
2, 85149, Note_on_c, 0, 64, 0
2, 85280, Note_on_c, 0, 71, 70
2, 85320, Note_on_c, 0, 62, 42
2, 85341, Note_on_c, 0, 73, 0
2, 85370, Note_on_c, 0, 62, 0
2, 85516, Note_on_c, 0, 73, 63
2, 85535, Note_on_c, 0, 64, 50
2, 85535, Note_on_c, 0, 69, 51
2, 85558, Note_on_c, 0, 71, 0
2, 85677, Note_on_c, 0, 57, 0
2, 85758, Note_on_c, 0, 55, 60
2, 85835, Note_on_c, 0, 45, 0
2, 85982, Note_on_c, 0, 55, 0
2, 85991, Note_on_c, 0, 57, 64
2, 86202, Note_on_c, 0, 58, 61
2, 86210, Note_on_c, 0, 57, 0
2, 86252, Control_c, 0, 67, 8
2, 86271, Control_c, 0, 67, 11
2, 86290, Control_c, 0, 67, 13
2, 86310, Control_c, 0, 67, 15
2, 86329, Control_c, 0, 67, 18
2, 86348, Control_c, 0, 67, 20
2, 86367, Control_c, 0, 67, 21
2, 86387, Control_c, 0, 67, 25
2, 86405, Control_c, 0, 67, 28
2, 86425, Control_c, 0, 67, 31
2, 86433, Note_on_c, 0, 57, 56
2, 86444, Control_c, 0, 67, 35
2, 86455, Note_on_c, 0, 58, 0
2, 86464, Control_c, 0, 67, 38
2, 86482, Control_c, 0, 67, 42
2, 86502, Control_c, 0, 67, 47
2, 86521, Control_c, 0, 67, 53
2, 86540, Control_c, 0, 67, 59
2, 86559, Control_c, 0, 67, 65
2, 86578, Control_c, 0, 67, 72
2, 86598, Control_c, 0, 67, 79
2, 86616, Control_c, 0, 67, 85
2, 86636, Control_c, 0, 67, 93
2, 86655, Control_c, 0, 67, 102
2, 86660, Note_on_c, 0, 55, 56
2, 86670, Note_on_c, 0, 57, 0
2, 86675, Control_c, 0, 67, 109
2, 86693, Control_c, 0, 67, 116
2, 86713, Control_c, 0, 67, 124
2, 86732, Control_c, 0, 67, 127
2, 86881, Note_on_c, 0, 53, 52
2, 86902, Note_on_c, 0, 55, 0
2, 86962, Note_on_c, 0, 64, 0
2, 87091, Note_on_c, 0, 69, 0
2, 87107, Note_on_c, 0, 53, 0
2, 87113, Note_on_c, 0, 52, 52
2, 87227, Note_on_c, 0, 73, 0
2, 87360, Note_on_c, 0, 53, 47
2, 87372, Note_on_c, 0, 52, 0
2, 87580, Note_on_c, 0, 73, 54
2, 87804, Note_on_c, 0, 74, 59
2, 87830, Note_on_c, 0, 73, 0
2, 88017, Note_on_c, 0, 76, 59
2, 88026, Note_on_c, 0, 74, 0
2, 88243, Note_on_c, 0, 57, 52
2, 88250, Note_on_c, 0, 74, 56
2, 88278, Note_on_c, 0, 76, 0
2, 88470, Note_on_c, 0, 72, 59
2, 88533, Note_on_c, 0, 74, 0
2, 88680, Note_on_c, 0, 70, 62
2, 88716, Note_on_c, 0, 72, 0
2, 88882, Note_on_c, 0, 70, 0
2, 88897, Note_on_c, 0, 69, 59
2, 89121, Note_on_c, 0, 70, 62
2, 89123, Note_on_c, 0, 62, 57
2, 89134, Note_on_c, 0, 69, 0
2, 89197, Note_on_c, 0, 57, 0
2, 89340, Note_on_c, 0, 69, 59
2, 89408, Note_on_c, 0, 70, 0
2, 89565, Note_on_c, 0, 67, 51
2, 89578, Note_on_c, 0, 69, 0
2, 89775, Note_on_c, 0, 67, 0
2, 89779, Note_on_c, 0, 65, 53
2, 89988, Note_on_c, 0, 52, 37
2, 90017, Note_on_c, 0, 67, 54
2, 90053, Note_on_c, 0, 53, 0
2, 90065, Note_on_c, 0, 65, 0
2, 90228, Note_on_c, 0, 65, 44
2, 90455, Note_on_c, 0, 65, 0
2, 90466, Note_on_c, 0, 64, 47
2, 90482, Note_on_c, 0, 62, 0
2, 90668, Note_on_c, 0, 62, 40
2, 90686, Note_on_c, 0, 64, 0
2, 90904, Note_on_c, 0, 64, 53
2, 90923, Note_on_c, 0, 62, 0
2, 91111, Note_on_c, 0, 62, 49
2, 91158, Note_on_c, 0, 52, 0
2, 91330, Note_on_c, 0, 62, 0
2, 91344, Note_on_c, 0, 61, 50
2, 91555, Note_on_c, 0, 59, 53
2, 91563, Note_on_c, 0, 61, 0
2, 91771, Note_on_c, 0, 61, 45
2, 91856, Note_on_c, 0, 59, 0
2, 91989, Note_on_c, 0, 55, 48
2, 92210, Note_on_c, 0, 57, 55
2, 92213, Note_on_c, 0, 55, 0
2, 92420, Note_on_c, 0, 57, 0
2, 92434, Note_on_c, 0, 58, 56
2, 92656, Note_on_c, 0, 58, 0
2, 92666, Note_on_c, 0, 57, 54
2, 92885, Note_on_c, 0, 55, 50
2, 92924, Note_on_c, 0, 57, 0
2, 93032, Note_on_c, 0, 67, 0
2, 93113, Note_on_c, 0, 53, 50
2, 93124, Note_on_c, 0, 55, 0
2, 93328, Note_on_c, 0, 52, 52
2, 93330, Note_on_c, 0, 53, 0
2, 93537, Note_on_c, 0, 52, 0
2, 93558, Note_on_c, 0, 65, 55
2, 93565, Note_on_c, 0, 57, 40
2, 93572, Note_on_c, 0, 53, 45
2, 93585, Note_on_c, 0, 62, 39
2, 93615, Note_on_c, 0, 61, 0
2, 93706, Note_on_c, 0, 64, 0
2, 93781, Note_on_c, 0, 52, 51
2, 93813, Note_on_c, 0, 53, 0
2, 94011, Note_on_c, 0, 50, 54
2, 94017, Note_on_c, 0, 52, 0
2, 94218, Note_on_c, 0, 50, 0
2, 94221, Note_on_c, 0, 49, 58
2, 94450, Note_on_c, 0, 50, 56
2, 94455, Note_on_c, 0, 49, 0
2, 94671, Note_on_c, 0, 48, 52
2, 94708, Note_on_c, 0, 50, 0
2, 94889, Note_on_c, 0, 47, 58
2, 94917, Note_on_c, 0, 48, 0
2, 95100, Note_on_c, 0, 45, 57
2, 95107, Note_on_c, 0, 47, 0
2, 95356, Note_on_c, 0, 47, 51
2, 95368, Note_on_c, 0, 45, 0
2, 95602, Note_on_c, 0, 60, 47
2, 95671, Note_on_c, 0, 62, 0
2, 95740, Note_on_c, 0, 57, 0
2, 95814, Note_on_c, 0, 59, 59
2, 95838, Note_on_c, 0, 60, 0
2, 96011, Note_on_c, 0, 59, 0
2, 96018, Note_on_c, 0, 57, 57
2, 96246, Note_on_c, 0, 56, 60
2, 96348, Note_on_c, 0, 57, 0
2, 96442, Note_on_c, 0, 48, 57
2, 96444, Note_on_c, 0, 47, 0
2, 96655, Note_on_c, 0, 57, 57
2, 96675, Note_on_c, 0, 48, 0
2, 96679, Note_on_c, 0, 50, 58
2, 96717, Note_on_c, 0, 56, 0
2, 96866, Note_on_c, 0, 52, 65
2, 96883, Note_on_c, 0, 50, 0
2, 97065, Control_c, 0, 64, 8
2, 97094, Note_on_c, 0, 50, 58
2, 97103, Note_on_c, 0, 52, 0
2, 97110, Note_on_c, 0, 59, 60
2, 97202, Note_on_c, 0, 57, 0
2, 97309, Note_on_c, 0, 48, 60
2, 97348, Note_on_c, 0, 50, 0
2, 97529, Note_on_c, 0, 47, 65
2, 97533, Note_on_c, 0, 48, 0
2, 97749, Note_on_c, 0, 45, 58
2, 97789, Note_on_c, 0, 47, 0
2, 97814, Control_c, 0, 64, 11
2, 97978, Note_on_c, 0, 45, 0
2, 97987, Note_on_c, 0, 44, 59
2, 98212, Note_on_c, 0, 50, 59
2, 98425, Note_on_c, 0, 52, 63
2, 98469, Note_on_c, 0, 50, 0
2, 98482, Note_on_c, 0, 65, 0
2, 98647, Note_on_c, 0, 59, 0
2, 98658, Note_on_c, 0, 53, 62
2, 98695, Note_on_c, 0, 52, 0
2, 98875, Note_on_c, 0, 52, 61
2, 98908, Note_on_c, 0, 53, 0
2, 99096, Note_on_c, 0, 57, 57
2, 99317, Note_on_c, 0, 59, 67
2, 99401, Note_on_c, 0, 57, 0
2, 99531, Note_on_c, 0, 60, 64
2, 99563, Note_on_c, 0, 59, 0
2, 99733, Note_on_c, 0, 60, 0
2, 99760, Note_on_c, 0, 59, 65
2, 99978, Note_on_c, 0, 61, 62
2, 99982, Note_on_c, 0, 52, 0
2, 100187, Note_on_c, 0, 62, 62
2, 100212, Control_c, 0, 64, 8
2, 100212, Note_on_c, 0, 61, 0
2, 100404, Note_on_c, 0, 64, 59
2, 100443, Note_on_c, 0, 62, 0
2, 100448, Note_on_c, 0, 59, 0
2, 100649, Note_on_c, 0, 61, 60
2, 100654, Note_on_c, 0, 52, 32
2, 100658, Note_on_c, 0, 43, 31
2, 100660, Note_on_c, 0, 64, 0
2, 100666, Note_on_c, 0, 57, 45
2, 100779, Note_on_c, 0, 44, 0
2, 100877, Note_on_c, 0, 64, 59
2, 101101, Note_on_c, 0, 61, 0
2, 101105, Note_on_c, 0, 65, 60
2, 101162, Note_on_c, 0, 64, 0
2, 101319, Note_on_c, 0, 67, 63
2, 101346, Note_on_c, 0, 65, 0
2, 101552, Note_on_c, 0, 69, 67
2, 101564, Note_on_c, 0, 57, 0
2, 101579, Note_on_c, 0, 67, 0
2, 101766, Note_on_c, 0, 59, 63
2, 101772, Note_on_c, 0, 53, 45
2, 101775, Note_on_c, 0, 52, 0
2, 101976, Note_on_c, 0, 53, 0
2, 101997, Note_on_c, 0, 61, 59
2, 102001, Note_on_c, 0, 52, 44
2, 102001, Note_on_c, 0, 59, 0
2, 102180, Note_on_c, 0, 52, 0
2, 102212, Note_on_c, 0, 50, 51
2, 102214, Note_on_c, 0, 62, 57
2, 102233, Note_on_c, 0, 61, 0
2, 102399, Note_on_c, 0, 50, 0
2, 102434, Note_on_c, 0, 62, 0
2, 102438, Note_on_c, 0, 64, 58
2, 102439, Note_on_c, 0, 49, 51
2, 102535, Control_c, 0, 64, 11
2, 102653, Note_on_c, 0, 43, 0
2, 102667, Note_on_c, 0, 46, 53
2, 102894, Note_on_c, 0, 45, 54
2, 102947, Note_on_c, 0, 46, 0
2, 103095, Note_on_c, 0, 45, 0
2, 103112, Note_on_c, 0, 43, 50
2, 103343, Note_on_c, 0, 41, 59
2, 103343, Note_on_c, 0, 43, 0
2, 103516, Note_on_c, 0, 49, 0
2, 103524, Note_on_c, 0, 69, 0
2, 103580, Note_on_c, 0, 67, 55
2, 103641, Note_on_c, 0, 64, 0
2, 103802, Note_on_c, 0, 50, 43
2, 103821, Note_on_c, 0, 70, 68
2, 103831, Note_on_c, 0, 62, 43
2, 103885, Note_on_c, 0, 67, 0
2, 104009, Note_on_c, 0, 70, 0
2, 104011, Note_on_c, 0, 41, 0
2, 104028, Note_on_c, 0, 69, 71
2, 104249, Note_on_c, 0, 67, 64
2, 104252, Note_on_c, 0, 52, 54
2, 104265, Note_on_c, 0, 43, 44
2, 104277, Control_c, 0, 67, 122
2, 104277, Note_on_c, 0, 69, 0
2, 104297, Control_c, 0, 67, 119
2, 104300, Note_on_c, 0, 50, 0
2, 104315, Control_c, 0, 67, 117
2, 104335, Control_c, 0, 67, 115
2, 104354, Control_c, 0, 67, 114
2, 104372, Control_c, 0, 67, 112
2, 104392, Control_c, 0, 67, 110
2, 104411, Control_c, 0, 67, 107
2, 104431, Control_c, 0, 67, 102
2, 104449, Control_c, 0, 67, 97
2, 104463, Note_on_c, 0, 65, 71
2, 104470, Control_c, 0, 67, 92
2, 104489, Control_c, 0, 67, 88
2, 104508, Control_c, 0, 67, 84
2, 104518, Note_on_c, 0, 62, 0
2, 104519, Note_on_c, 0, 67, 0
2, 104527, Control_c, 0, 67, 79
2, 104547, Control_c, 0, 67, 74
2, 104566, Control_c, 0, 67, 69
2, 104585, Control_c, 0, 67, 65
2, 104604, Control_c, 0, 67, 60
2, 104624, Control_c, 0, 67, 56
2, 104643, Control_c, 0, 67, 52
2, 104662, Control_c, 0, 67, 48
2, 104673, Note_on_c, 0, 53, 55
2, 104674, Note_on_c, 0, 64, 71
2, 104681, Control_c, 0, 67, 46
2, 104701, Control_c, 0, 67, 44
2, 104719, Control_c, 0, 67, 43
2, 104722, Note_on_c, 0, 65, 0
2, 104739, Control_c, 0, 67, 43
2, 104747, Note_on_c, 0, 52, 0
2, 104758, Control_c, 0, 67, 42
2, 104778, Control_c, 0, 67, 42
2, 104778, Note_on_c, 0, 43, 0
2, 104796, Control_c, 0, 67, 41
2, 104816, Control_c, 0, 67, 40
2, 104854, Control_c, 0, 67, 40
2, 104873, Control_c, 0, 64, 8
2, 104886, Note_on_c, 0, 62, 64
2, 104892, Control_c, 0, 67, 39
2, 104988, Control_c, 0, 67, 39
2, 105105, Note_on_c, 0, 53, 0
2, 105114, Note_on_c, 0, 55, 55
2, 105126, Control_c, 0, 67, 39
2, 105129, Note_on_c, 0, 61, 70
2, 105144, Note_on_c, 0, 45, 27
2, 105169, Note_on_c, 0, 62, 0
2, 105184, Control_c, 0, 67, 40
2, 105200, Note_on_c, 0, 64, 0
2, 105345, Note_on_c, 0, 64, 70
2, 105564, Note_on_c, 0, 57, 67
2, 105564, Note_on_c, 0, 65, 70
2, 105618, Note_on_c, 0, 45, 0
2, 105627, Note_on_c, 0, 64, 0
2, 105665, Note_on_c, 0, 55, 0
2, 105797, Note_on_c, 0, 67, 69
2, 105861, Note_on_c, 0, 65, 0
2, 105931, Control_c, 0, 67, 40
2, 106071, Note_on_c, 0, 58, 59
2, 106076, Note_on_c, 0, 62, 69
2, 106080, Note_on_c, 0, 50, 34
2, 106114, Note_on_c, 0, 67, 0
2, 106146, Note_on_c, 0, 57, 0
2, 106241, Control_c, 0, 67, 41
2, 106359, Note_on_c, 0, 67, 73
2, 106379, Note_on_c, 0, 61, 0
2, 106450, Control_c, 0, 67, 41
2, 106575, Note_on_c, 0, 65, 69
2, 106583, Note_on_c, 0, 57, 52
2, 106618, Note_on_c, 0, 67, 0
2, 106626, Note_on_c, 0, 58, 0
2, 106642, Control_c, 0, 67, 42
2, 106787, Note_on_c, 0, 64, 72
2, 106796, Control_c, 0, 67, 42
2, 106796, Note_on_c, 0, 57, 0
2, 106800, Note_on_c, 0, 55, 46
2, 106835, Control_c, 0, 67, 43
2, 106837, Note_on_c, 0, 65, 0
2, 106853, Control_c, 0, 67, 43
2, 106911, Control_c, 0, 67, 44
2, 106930, Control_c, 0, 67, 44
2, 106950, Control_c, 0, 67, 45
2, 106988, Control_c, 0, 67, 45
2, 107007, Control_c, 0, 67, 46
2, 107013, Note_on_c, 0, 55, 0
2, 107027, Control_c, 0, 67, 46
2, 107037, Note_on_c, 0, 65, 66
2, 107041, Note_on_c, 0, 57, 37
2, 107046, Control_c, 0, 67, 47
2, 107084, Control_c, 0, 67, 48
2, 107099, Note_on_c, 0, 64, 0
2, 107103, Control_c, 0, 67, 48
2, 107122, Control_c, 0, 67, 50
2, 107134, Note_on_c, 0, 62, 0
2, 107141, Control_c, 0, 67, 50
2, 107161, Control_c, 0, 67, 51
2, 107180, Control_c, 0, 67, 52
2, 107199, Control_c, 0, 67, 52
2, 107218, Control_c, 0, 67, 53
2, 107238, Control_c, 0, 67, 54
2, 107256, Control_c, 0, 67, 55
2, 107276, Control_c, 0, 67, 56
2, 107277, Note_on_c, 0, 64, 63
2, 107295, Control_c, 0, 67, 60
2, 107315, Control_c, 0, 67, 63
2, 107333, Control_c, 0, 67, 65
2, 107352, Control_c, 0, 67, 68
2, 107371, Control_c, 0, 67, 72
2, 107391, Control_c, 0, 67, 75
2, 107409, Control_c, 0, 67, 78
2, 107429, Control_c, 0, 67, 82
2, 107448, Control_c, 0, 67, 85
2, 107467, Control_c, 0, 67, 87
2, 107486, Control_c, 0, 67, 89
2, 107488, Note_on_c, 0, 62, 60
2, 107506, Control_c, 0, 67, 91
2, 107517, Note_on_c, 0, 64, 0
2, 107525, Control_c, 0, 67, 94
2, 107543, Control_c, 0, 67, 97
2, 107563, Control_c, 0, 67, 100
2, 107582, Control_c, 0, 67, 105
2, 107601, Control_c, 0, 67, 109
2, 107620, Control_c, 0, 67, 114
2, 107640, Control_c, 0, 67, 119
2, 107659, Control_c, 0, 67, 125
2, 107678, Control_c, 0, 67, 127
2, 107701, Note_on_c, 0, 61, 60
2, 107704, Note_on_c, 0, 62, 0
2, 107912, Note_on_c, 0, 62, 52
2, 107959, Note_on_c, 0, 61, 0
2, 108139, Note_on_c, 0, 60, 55
2, 108208, Note_on_c, 0, 57, 0
2, 108363, Note_on_c, 0, 58, 59
2, 108364, Note_on_c, 0, 50, 0
2, 108383, Note_on_c, 0, 60, 0
2, 108575, Note_on_c, 0, 57, 56
2, 108596, Note_on_c, 0, 58, 0
2, 108600, Note_on_c, 0, 65, 0
2, 108763, Note_on_c, 0, 57, 0
2, 108829, Note_on_c, 0, 58, 51
2, 109041, Note_on_c, 0, 65, 55
2, 109055, Note_on_c, 0, 50, 42
2, 109217, Note_on_c, 0, 50, 0
2, 109251, Note_on_c, 0, 67, 65
2, 109259, Note_on_c, 0, 52, 42
2, 109395, Note_on_c, 0, 65, 0
2, 109427, Note_on_c, 0, 52, 0
2, 109470, Note_on_c, 0, 69, 71
2, 109472, Note_on_c, 0, 53, 45
2, 109528, Note_on_c, 0, 67, 0
2, 109561, Control_c, 0, 64, 11
2, 109674, Note_on_c, 0, 53, 0
2, 109701, Note_on_c, 0, 70, 72
2, 109714, Note_on_c, 0, 55, 42
2, 109725, Note_on_c, 0, 62, 0
2, 109753, Control_c, 0, 64, 13
2, 109762, Note_on_c, 0, 69, 0
2, 109781, Note_on_c, 0, 58, 0
2, 109830, Control_c, 0, 64, 14
2, 109910, Note_on_c, 0, 62, 54
2, 110041, Control_c, 0, 64, 16
2, 110081, Note_on_c, 0, 55, 0
2, 110126, Note_on_c, 0, 64, 62
2, 110128, Note_on_c, 0, 53, 45
2, 110141, Note_on_c, 0, 57, 47
2, 110193, Note_on_c, 0, 62, 0
2, 110351, Note_on_c, 0, 65, 62
2, 110374, Note_on_c, 0, 57, 0
2, 110459, Note_on_c, 0, 64, 0
2, 110586, Note_on_c, 0, 67, 58
2, 110594, Note_on_c, 0, 55, 44
2, 110600, Note_on_c, 0, 53, 0
2, 110655, Note_on_c, 0, 65, 0
2, 110790, Control_c, 0, 64, 17
2, 110809, Note_on_c, 0, 52, 49
2, 111036, Note_on_c, 0, 64, 60
2, 111041, Note_on_c, 0, 52, 0
2, 111052, Note_on_c, 0, 50, 38
2, 111096, Note_on_c, 0, 67, 0
2, 111236, Note_on_c, 0, 50, 0
2, 111260, Note_on_c, 0, 48, 42
2, 111446, Note_on_c, 0, 48, 0
2, 111492, Note_on_c, 0, 70, 0
2, 111495, Note_on_c, 0, 60, 53
2, 111502, Note_on_c, 0, 53, 38
2, 111599, Note_on_c, 0, 64, 0
2, 111680, Note_on_c, 0, 53, 0
2, 111685, Note_on_c, 0, 55, 0
2, 111721, Note_on_c, 0, 70, 69
2, 111949, Note_on_c, 0, 69, 67
2, 111961, Note_on_c, 0, 53, 43
2, 111962, Note_on_c, 0, 41, 44
2, 112010, Note_on_c, 0, 41, 0
2, 112022, Note_on_c, 0, 70, 0
2, 112143, Note_on_c, 0, 53, 0
2, 112164, Note_on_c, 0, 52, 47
2, 112164, Note_on_c, 0, 67, 62
2, 112190, Note_on_c, 0, 69, 0
2, 112385, Note_on_c, 0, 69, 63
2, 112387, Note_on_c, 0, 52, 0
2, 112432, Note_on_c, 0, 67, 0
2, 112440, Note_on_c, 0, 53, 33
2, 112504, Note_on_c, 0, 60, 0
2, 112625, Note_on_c, 0, 67, 52
2, 112851, Note_on_c, 0, 65, 53
2, 112851, Note_on_c, 0, 67, 0
2, 112856, Note_on_c, 0, 57, 44
2, 113065, Note_on_c, 0, 65, 0
2, 113067, Note_on_c, 0, 64, 55
2, 113293, Note_on_c, 0, 65, 45
2, 113307, Note_on_c, 0, 64, 0
2, 113529, Note_on_c, 0, 57, 0
2, 113531, Note_on_c, 0, 64, 53
2, 113751, Note_on_c, 0, 62, 55
2, 113778, Note_on_c, 0, 64, 0
2, 113880, Control_c, 0, 67, 127
2, 113899, Control_c, 0, 67, 125
2, 113918, Control_c, 0, 67, 122
2, 113937, Control_c, 0, 67, 119
2, 113957, Control_c, 0, 67, 117
2, 113969, Note_on_c, 0, 61, 54
2, 113976, Control_c, 0, 67, 115
2, 113981, Note_on_c, 0, 62, 0
2, 113995, Control_c, 0, 67, 114
2, 114014, Control_c, 0, 67, 113
2, 114034, Control_c, 0, 67, 112
2, 114052, Control_c, 0, 67, 110
2, 114071, Control_c, 0, 67, 109
2, 114090, Control_c, 0, 67, 108
2, 114094, Note_on_c, 0, 69, 0
2, 114110, Control_c, 0, 67, 107
2, 114128, Control_c, 0, 67, 105
2, 114148, Control_c, 0, 67, 100
2, 114167, Control_c, 0, 67, 94
2, 114177, Note_on_c, 0, 62, 51
2, 114179, Note_on_c, 0, 53, 0
2, 114182, Note_on_c, 0, 61, 0
2, 114185, Control_c, 0, 67, 90
2, 114205, Control_c, 0, 67, 85
2, 114224, Control_c, 0, 67, 81
2, 114244, Control_c, 0, 67, 77
2, 114262, Control_c, 0, 67, 70
2, 114282, Control_c, 0, 67, 63
2, 114301, Control_c, 0, 67, 54
2, 114321, Control_c, 0, 67, 47
2, 114339, Control_c, 0, 67, 42
2, 114359, Control_c, 0, 67, 36
2, 114378, Control_c, 0, 67, 32
2, 114396, Note_on_c, 0, 69, 71
2, 114397, Control_c, 0, 67, 28
2, 114409, Note_on_c, 0, 53, 39
2, 114416, Control_c, 0, 67, 23
2, 114436, Control_c, 0, 67, 17
2, 114455, Control_c, 0, 67, 13
2, 114474, Control_c, 0, 67, 10
2, 114493, Control_c, 0, 67, 8
2, 114513, Control_c, 0, 67, 0
2, 114615, Note_on_c, 0, 70, 79
2, 114637, Note_on_c, 0, 55, 37
2, 114654, Note_on_c, 0, 53, 0
2, 114774, Note_on_c, 0, 69, 0
2, 114824, Note_on_c, 0, 72, 81
2, 114841, Note_on_c, 0, 57, 47
2, 114874, Note_on_c, 0, 55, 0
2, 114911, Note_on_c, 0, 70, 0
2, 115055, Note_on_c, 0, 57, 0
2, 115062, Note_on_c, 0, 74, 75
2, 115076, Note_on_c, 0, 58, 50
2, 115129, Note_on_c, 0, 72, 0
2, 115139, Note_on_c, 0, 65, 0
2, 115172, Note_on_c, 0, 62, 0
2, 115289, Note_on_c, 0, 65, 69
2, 115476, Note_on_c, 0, 58, 0
2, 115491, Note_on_c, 0, 57, 49
2, 115504, Note_on_c, 0, 60, 49
2, 115518, Note_on_c, 0, 67, 70
2, 115550, Control_c, 0, 64, 18
2, 115610, Note_on_c, 0, 65, 0
2, 115703, Note_on_c, 0, 60, 0
2, 115716, Note_on_c, 0, 69, 77
2, 115765, Note_on_c, 0, 67, 0
2, 115927, Note_on_c, 0, 57, 0
2, 115948, Note_on_c, 0, 70, 77
2, 115960, Note_on_c, 0, 58, 48
2, 116030, Note_on_c, 0, 69, 0
2, 116125, Control_c, 0, 64, 19
2, 116190, Note_on_c, 0, 55, 65
2, 116259, Control_c, 0, 64, 20
2, 116401, Note_on_c, 0, 53, 56
2, 116403, Note_on_c, 0, 67, 74
2, 116433, Control_c, 0, 64, 21
2, 116447, Note_on_c, 0, 55, 0
2, 116548, Control_c, 0, 64, 22
2, 116604, Note_on_c, 0, 52, 61
2, 116609, Note_on_c, 0, 53, 0
2, 116617, Note_on_c, 0, 70, 0
2, 116644, Control_c, 0, 64, 23
2, 116721, Control_c, 0, 64, 24
2, 116837, Note_on_c, 0, 52, 0
2, 116845, Note_on_c, 0, 57, 54
2, 116859, Note_on_c, 0, 64, 72
2, 116938, Note_on_c, 0, 74, 0
2, 116950, Control_c, 0, 64, 25
2, 117025, Note_on_c, 0, 58, 0
2, 117037, Note_on_c, 0, 57, 0
2, 117056, Note_on_c, 0, 67, 0
2, 117079, Note_on_c, 0, 74, 75
2, 117238, Control_c, 0, 64, 26
2, 117296, Note_on_c, 0, 72, 78
2, 117316, Note_on_c, 0, 57, 51
2, 117320, Note_on_c, 0, 45, 35
2, 117381, Note_on_c, 0, 45, 0
2, 117382, Note_on_c, 0, 74, 0
2, 117498, Note_on_c, 0, 57, 0
2, 117507, Note_on_c, 0, 55, 57
2, 117510, Note_on_c, 0, 70, 80
2, 117545, Note_on_c, 0, 72, 0
2, 117703, Note_on_c, 0, 55, 0
2, 117739, Note_on_c, 0, 72, 74
2, 117751, Note_on_c, 0, 57, 43
2, 117776, Note_on_c, 0, 70, 0
2, 117954, Note_on_c, 0, 70, 67
2, 118008, Note_on_c, 0, 64, 0
2, 118176, Note_on_c, 0, 69, 64
2, 118188, Note_on_c, 0, 60, 53
2, 118220, Note_on_c, 0, 70, 0
2, 118394, Note_on_c, 0, 67, 57
2, 118408, Note_on_c, 0, 69, 0
2, 118617, Note_on_c, 0, 69, 65
2, 118649, Note_on_c, 0, 67, 0
2, 118849, Note_on_c, 0, 67, 59
2, 118862, Note_on_c, 0, 60, 0
2, 119068, Note_on_c, 0, 65, 65
2, 119131, Note_on_c, 0, 67, 0
2, 119178, Control_c, 0, 64, 25
2, 119285, Note_on_c, 0, 64, 63
2, 119348, Note_on_c, 0, 65, 0
2, 119408, Note_on_c, 0, 72, 0
2, 119459, Note_on_c, 0, 57, 0
2, 119509, Note_on_c, 0, 65, 62
2, 119525, Note_on_c, 0, 64, 0
2, 119721, Note_on_c, 0, 72, 78
2, 119731, Note_on_c, 0, 57, 50
2, 119945, Note_on_c, 0, 57, 0
2, 119945, Note_on_c, 0, 59, 58
2, 119945, Note_on_c, 0, 74, 79
2, 120035, Note_on_c, 0, 72, 0
2, 120166, Note_on_c, 0, 60, 58
2, 120169, Note_on_c, 0, 76, 84
2, 120171, Note_on_c, 0, 59, 0
2, 120237, Note_on_c, 0, 74, 0
2, 120406, Note_on_c, 0, 77, 83
2, 120409, Note_on_c, 0, 60, 0
2, 120426, Note_on_c, 0, 62, 51
2, 120457, Note_on_c, 0, 69, 0
2, 120489, Note_on_c, 0, 76, 0
2, 120530, Note_on_c, 0, 65, 0
2, 120636, Note_on_c, 0, 69, 80
2, 120852, Note_on_c, 0, 62, 0
2, 120853, Note_on_c, 0, 60, 56
2, 120857, Note_on_c, 0, 64, 62
2, 120857, Note_on_c, 0, 71, 78
2, 120950, Note_on_c, 0, 69, 0
2, 121066, Note_on_c, 0, 72, 86
2, 121099, Note_on_c, 0, 64, 0
2, 121126, Note_on_c, 0, 71, 0
2, 121292, Note_on_c, 0, 74, 78
2, 121294, Note_on_c, 0, 62, 54
2, 121335, Note_on_c, 0, 60, 0
2, 121349, Note_on_c, 0, 72, 0
2, 121368, Control_c, 0, 64, 26
2, 121521, Note_on_c, 0, 59, 68
2, 121617, Control_c, 0, 64, 26
2, 121730, Note_on_c, 0, 71, 82
2, 121741, Note_on_c, 0, 57, 57
2, 121746, Note_on_c, 0, 59, 0
2, 121846, Note_on_c, 0, 74, 0
2, 121941, Note_on_c, 0, 57, 0
2, 121956, Note_on_c, 0, 55, 66
2, 122172, Note_on_c, 0, 55, 0
2, 122178, Note_on_c, 0, 60, 53
2, 122196, Note_on_c, 0, 67, 75
2, 122265, Note_on_c, 0, 77, 0
2, 122361, Note_on_c, 0, 62, 0
2, 122362, Note_on_c, 0, 71, 0
2, 122389, Note_on_c, 0, 60, 0
2, 122424, Note_on_c, 0, 77, 79
2, 122650, Note_on_c, 0, 76, 79
2, 122664, Note_on_c, 0, 48, 60
2, 122665, Note_on_c, 0, 60, 59
2, 122737, Note_on_c, 0, 77, 0
2, 122743, Note_on_c, 0, 48, 0
2, 122867, Note_on_c, 0, 74, 80
2, 122876, Note_on_c, 0, 59, 58
2, 122876, Note_on_c, 0, 60, 0
2, 122916, Note_on_c, 0, 76, 0
2, 123151, Note_on_c, 0, 76, 80
2, 123154, Note_on_c, 0, 60, 43
2, 123184, Note_on_c, 0, 59, 0
2, 123194, Note_on_c, 0, 74, 0
2, 123419, Note_on_c, 0, 74, 69
2, 123501, Note_on_c, 0, 67, 0
2, 123629, Note_on_c, 0, 72, 71
2, 123696, Note_on_c, 0, 74, 0
2, 123831, Note_on_c, 0, 71, 66
2, 123862, Note_on_c, 0, 72, 0
2, 124045, Note_on_c, 0, 72, 67
2, 124049, Note_on_c, 0, 60, 0
2, 124101, Note_on_c, 0, 71, 0
2, 124267, Note_on_c, 0, 71, 62
2, 124487, Note_on_c, 0, 69, 64
2, 124499, Note_on_c, 0, 71, 0
2, 124692, Note_on_c, 0, 68, 66
2, 124702, Note_on_c, 0, 69, 0
2, 124914, Note_on_c, 0, 69, 60
2, 124972, Note_on_c, 0, 68, 0
2, 125144, Note_on_c, 0, 64, 59
2, 125366, Note_on_c, 0, 65, 70
2, 125393, Note_on_c, 0, 64, 0
2, 125589, Note_on_c, 0, 67, 73
2, 125624, Note_on_c, 0, 72, 0
2, 125626, Note_on_c, 0, 76, 0
2, 125631, Note_on_c, 0, 69, 0
2, 125634, Note_on_c, 0, 65, 0
2, 125811, Note_on_c, 0, 65, 56
2, 125819, Note_on_c, 0, 74, 80
2, 125833, Note_on_c, 0, 69, 59
2, 125833, Note_on_c, 0, 71, 63
2, 125860, Note_on_c, 0, 67, 0
2, 126041, Note_on_c, 0, 64, 62
2, 126066, Note_on_c, 0, 65, 0
2, 126269, Note_on_c, 0, 62, 59
2, 126305, Note_on_c, 0, 64, 0
2, 126496, Note_on_c, 0, 60, 65
2, 126499, Note_on_c, 0, 62, 0
2, 126711, Note_on_c, 0, 62, 61
2, 126715, Note_on_c, 0, 60, 0
2, 126913, Note_on_c, 0, 60, 67
2, 126970, Note_on_c, 0, 62, 0
2, 127134, Note_on_c, 0, 59, 68
2, 127177, Note_on_c, 0, 60, 0
2, 127354, Note_on_c, 0, 57, 66
2, 127374, Note_on_c, 0, 59, 0
2, 127565, Note_on_c, 0, 57, 0
2, 127572, Note_on_c, 0, 68, 77
2, 127596, Note_on_c, 0, 59, 60
2, 127707, Note_on_c, 0, 69, 0
2, 127806, Note_on_c, 0, 57, 67
2, 127841, Note_on_c, 0, 59, 0
2, 128036, Note_on_c, 0, 56, 67
2, 128061, Note_on_c, 0, 57, 0
2, 128244, Note_on_c, 0, 54, 67
2, 128247, Note_on_c, 0, 56, 0
2, 128458, Note_on_c, 0, 54, 0
2, 128463, Note_on_c, 0, 56, 63
2, 128466, Note_on_c, 0, 64, 70
2, 128687, Note_on_c, 0, 50, 66
2, 128700, Note_on_c, 0, 56, 0
2, 128895, Note_on_c, 0, 52, 70
2, 128924, Note_on_c, 0, 50, 0
2, 129104, Note_on_c, 0, 53, 74
2, 129127, Note_on_c, 0, 52, 0
2, 129336, Note_on_c, 0, 52, 71
2, 129343, Note_on_c, 0, 53, 0
2, 129563, Note_on_c, 0, 50, 74
2, 129604, Control_c, 0, 64, 27
2, 129614, Note_on_c, 0, 52, 0
2, 129786, Note_on_c, 0, 48, 70
2, 129815, Control_c, 0, 64, 28
2, 129843, Note_on_c, 0, 50, 0
2, 129937, Note_on_c, 0, 64, 0
2, 130009, Note_on_c, 0, 47, 71
2, 130016, Note_on_c, 0, 74, 0
2, 130029, Note_on_c, 0, 68, 0
2, 130059, Note_on_c, 0, 48, 0
2, 130061, Note_on_c, 0, 71, 0
2, 130087, Control_c, 0, 64, 28
2, 130259, Control_c, 0, 64, 29
2, 130265, Note_on_c, 0, 48, 69
2, 130281, Note_on_c, 0, 47, 0
2, 130374, Control_c, 0, 64, 29
2, 130430, Control_c, 0, 64, 30
2, 130468, Control_c, 0, 64, 31
2, 130507, Control_c, 0, 64, 31
2, 130517, Note_on_c, 0, 74, 69
2, 130545, Control_c, 0, 64, 32
2, 130565, Control_c, 0, 64, 32
2, 130584, Control_c, 0, 64, 33
2, 130603, Control_c, 0, 64, 33
2, 130622, Control_c, 0, 64, 34
2, 130660, Control_c, 0, 64, 34
2, 130679, Control_c, 0, 64, 35
2, 130718, Control_c, 0, 64, 35
2, 130749, Note_on_c, 0, 52, 66
2, 130749, Note_on_c, 0, 76, 72
2, 130776, Control_c, 0, 64, 36
2, 130817, Note_on_c, 0, 74, 0
2, 130967, Note_on_c, 0, 77, 75
2, 131032, Note_on_c, 0, 76, 0
2, 131184, Note_on_c, 0, 76, 73
2, 131194, Note_on_c, 0, 54, 66
2, 131232, Note_on_c, 0, 52, 0
2, 131236, Control_c, 0, 64, 36
2, 131281, Note_on_c, 0, 77, 0
2, 131407, Note_on_c, 0, 74, 70
2, 131486, Control_c, 0, 64, 37
2, 131545, Note_on_c, 0, 76, 0
2, 131617, Note_on_c, 0, 72, 77
2, 131621, Note_on_c, 0, 56, 65
2, 131677, Note_on_c, 0, 74, 0
2, 131678, Note_on_c, 0, 54, 0
2, 131833, Note_on_c, 0, 71, 73
2, 131870, Control_c, 0, 64, 37
2, 131870, Note_on_c, 0, 72, 0
2, 132068, Note_on_c, 0, 72, 74
2, 132069, Note_on_c, 0, 57, 48
2, 132090, Note_on_c, 0, 56, 0
2, 132111, Note_on_c, 0, 71, 0
2, 132283, Note_on_c, 0, 71, 72
2, 132372, Note_on_c, 0, 72, 0
2, 132498, Note_on_c, 0, 59, 58
2, 132499, Note_on_c, 0, 71, 0
2, 132502, Note_on_c, 0, 69, 75
2, 132544, Note_on_c, 0, 57, 0
2, 132638, Control_c, 0, 64, 37
2, 132697, Control_c, 0, 64, 36
2, 132714, Note_on_c, 0, 68, 71
2, 132726, Note_on_c, 0, 69, 0
2, 132774, Control_c, 0, 64, 36
2, 132889, Control_c, 0, 64, 35
2, 132927, Control_c, 0, 64, 35
2, 132932, Note_on_c, 0, 59, 0
2, 132949, Note_on_c, 0, 60, 52
2, 132954, Note_on_c, 0, 69, 69
2, 132980, Note_on_c, 0, 68, 0
2, 132984, Control_c, 0, 64, 34
2, 133004, Control_c, 0, 64, 34
2, 133023, Control_c, 0, 64, 33
2, 133043, Control_c, 0, 64, 33
2, 133061, Control_c, 0, 64, 32
2, 133080, Control_c, 0, 64, 32
2, 133100, Control_c, 0, 64, 31
2, 133118, Control_c, 0, 64, 31
2, 133154, Note_on_c, 0, 60, 0
2, 133157, Control_c, 0, 64, 30
2, 133168, Note_on_c, 0, 67, 56
2, 133195, Control_c, 0, 64, 29
2, 133215, Control_c, 0, 64, 29
2, 133292, Control_c, 0, 64, 28
2, 133349, Control_c, 0, 64, 28
2, 133390, Note_on_c, 0, 48, 0
2, 133394, Note_on_c, 0, 49, 56
2, 133404, Note_on_c, 0, 57, 48
2, 133405, Note_on_c, 0, 65, 51
2, 133445, Note_on_c, 0, 67, 0
2, 133446, Control_c, 0, 64, 27
2, 133617, Note_on_c, 0, 64, 58
2, 133629, Note_on_c, 0, 65, 0
2, 133637, Control_c, 0, 64, 26
2, 133831, Note_on_c, 0, 65, 53
2, 133842, Note_on_c, 0, 49, 0
2, 133843, Note_on_c, 0, 50, 66
2, 133869, Note_on_c, 0, 64, 0
2, 134021, Note_on_c, 0, 57, 0
2, 134060, Note_on_c, 0, 64, 57
2, 134087, Note_on_c, 0, 65, 0
2, 134267, Note_on_c, 0, 50, 0
2, 134267, Note_on_c, 0, 52, 66
2, 134277, Note_on_c, 0, 65, 54
2, 134279, Note_on_c, 0, 61, 68
2, 134337, Note_on_c, 0, 64, 0
2, 134494, Note_on_c, 0, 67, 63
2, 134541, Note_on_c, 0, 65, 0
2, 134558, Control_c, 0, 64, 27
2, 134583, Note_on_c, 0, 61, 0
2, 134715, Note_on_c, 0, 53, 64
2, 134718, Note_on_c, 0, 62, 61
2, 134722, Note_on_c, 0, 65, 66
2, 134733, Note_on_c, 0, 52, 0
2, 134751, Control_c, 0, 64, 28
2, 134780, Note_on_c, 0, 67, 0
2, 134931, Note_on_c, 0, 62, 0
2, 134934, Note_on_c, 0, 64, 74
2, 134997, Note_on_c, 0, 65, 0
2, 135123, Note_on_c, 0, 53, 0
2, 135156, Note_on_c, 0, 55, 54
2, 135158, Note_on_c, 0, 62, 70
2, 135172, Note_on_c, 0, 57, 51
2, 135172, Note_on_c, 0, 64, 0
2, 135376, Note_on_c, 0, 61, 72
2, 135401, Control_c, 0, 64, 22
2, 135411, Note_on_c, 0, 62, 0
2, 135420, Control_c, 0, 64, 0
2, 135540, Note_on_c, 0, 55, 0
2, 135588, Note_on_c, 0, 53, 47
2, 135599, Note_on_c, 0, 61, 0
2, 135625, Note_on_c, 0, 62, 66
2, 135632, Control_c, 0, 64, 56
2, 135646, Note_on_c, 0, 69, 0
2, 135649, Note_on_c, 0, 57, 0
2, 135651, Control_c, 0, 64, 70
2, 135669, Control_c, 0, 64, 80
2, 135689, Control_c, 0, 64, 97
2, 135689, Note_on_c, 0, 62, 0
2, 135708, Control_c, 0, 64, 127
2, 135823, Control_c, 0, 64, 109
2, 135844, Control_c, 0, 64, 99
2, 135862, Control_c, 0, 64, 92
2, 135881, Note_on_c, 0, 79, 76
2, 135882, Control_c, 0, 64, 87
2, 135901, Control_c, 0, 64, 82
2, 135921, Control_c, 0, 64, 78
2, 135939, Control_c, 0, 64, 74
2, 135959, Control_c, 0, 64, 71
2, 135978, Control_c, 0, 64, 69
2, 135997, Control_c, 0, 64, 69
2, 136036, Control_c, 0, 64, 68
2, 136055, Control_c, 0, 64, 68
2, 136074, Control_c, 0, 64, 66
2, 136090, Note_on_c, 0, 57, 57
2, 136092, Note_on_c, 0, 81, 82
2, 136093, Control_c, 0, 64, 64
2, 136113, Control_c, 0, 64, 62
2, 136131, Control_c, 0, 64, 61
2, 136149, Note_on_c, 0, 79, 0
2, 136151, Control_c, 0, 64, 60
2, 136170, Control_c, 0, 64, 57
2, 136189, Control_c, 0, 64, 54
2, 136208, Control_c, 0, 64, 48
2, 136227, Control_c, 0, 64, 44
2, 136247, Control_c, 0, 64, 43
2, 136266, Control_c, 0, 64, 42
2, 136285, Control_c, 0, 64, 41
2, 136302, Note_on_c, 0, 82, 84
2, 136304, Control_c, 0, 64, 39
2, 136324, Control_c, 0, 64, 36
2, 136342, Control_c, 0, 64, 31
2, 136349, Note_on_c, 0, 81, 0
2, 136362, Control_c, 0, 64, 29
2, 136506, Note_on_c, 0, 57, 0
2, 136523, Note_on_c, 0, 81, 80
2, 136531, Note_on_c, 0, 59, 56
2, 136734, Note_on_c, 0, 79, 81
2, 136780, Note_on_c, 0, 82, 0
2, 136855, Note_on_c, 0, 81, 0
2, 136882, Control_c, 0, 64, 30
2, 136958, Note_on_c, 0, 77, 77
2, 136960, Note_on_c, 0, 61, 54
2, 136981, Note_on_c, 0, 59, 0
2, 137009, Note_on_c, 0, 79, 0
2, 137093, Control_c, 0, 64, 31
2, 137182, Note_on_c, 0, 76, 77
2, 137187, Control_c, 0, 64, 31
2, 137245, Note_on_c, 0, 77, 0
2, 137388, Note_on_c, 0, 77, 73
2, 137400, Note_on_c, 0, 62, 73
2, 137459, Note_on_c, 0, 76, 0
2, 137485, Note_on_c, 0, 61, 0
2, 137552, Control_c, 0, 64, 32
2, 137616, Note_on_c, 0, 76, 76
2, 137688, Note_on_c, 0, 77, 0
2, 137724, Control_c, 0, 64, 32
2, 137764, Control_c, 0, 64, 33
2, 137839, Note_on_c, 0, 64, 74
2, 137844, Note_on_c, 0, 74, 70
2, 137875, Note_on_c, 0, 76, 0
2, 137947, Note_on_c, 0, 62, 0
2, 138055, Note_on_c, 0, 73, 74
2, 138104, Note_on_c, 0, 74, 0
2, 138275, Note_on_c, 0, 64, 0
2, 138289, Note_on_c, 0, 65, 60
2, 138293, Note_on_c, 0, 74, 73
2, 138346, Note_on_c, 0, 73, 0
2, 138402, Note_on_c, 0, 53, 0
2, 138490, Note_on_c, 0, 65, 0
2, 138523, Note_on_c, 0, 55, 57
2, 138525, Note_on_c, 0, 76, 80
2, 138580, Note_on_c, 0, 74, 0
2, 138726, Note_on_c, 0, 55, 0
2, 138727, Note_on_c, 0, 57, 55
2, 138738, Note_on_c, 0, 77, 81
2, 138813, Note_on_c, 0, 76, 0
2, 138935, Note_on_c, 0, 57, 0
2, 138949, Note_on_c, 0, 58, 59
2, 138950, Note_on_c, 0, 79, 84
2, 139020, Note_on_c, 0, 77, 0
2, 139088, Control_c, 0, 64, 33
2, 139150, Note_on_c, 0, 58, 0
2, 139167, Note_on_c, 0, 77, 75
2, 139182, Note_on_c, 0, 57, 56
2, 139287, Note_on_c, 0, 79, 0
2, 139387, Note_on_c, 0, 76, 74
2, 139397, Note_on_c, 0, 55, 51
2, 139415, Note_on_c, 0, 57, 0
2, 139462, Note_on_c, 0, 77, 0
2, 139606, Note_on_c, 0, 74, 73
2, 139610, Note_on_c, 0, 76, 0
2, 139611, Note_on_c, 0, 55, 0
2, 139615, Note_on_c, 0, 53, 54
2, 139792, Note_on_c, 0, 53, 0
2, 139810, Note_on_c, 0, 73, 72
2, 139822, Note_on_c, 0, 52, 44
2, 139850, Note_on_c, 0, 74, 0
2, 140009, Note_on_c, 0, 52, 0
2, 140029, Note_on_c, 0, 74, 66
2, 140053, Note_on_c, 0, 53, 47
2, 140078, Note_on_c, 0, 73, 0
2, 140256, Note_on_c, 0, 72, 70
2, 140258, Control_c, 0, 67, 10
2, 140260, Note_on_c, 0, 52, 44
2, 140270, Note_on_c, 0, 53, 0
2, 140278, Control_c, 0, 67, 12
2, 140297, Control_c, 0, 67, 15
2, 140314, Note_on_c, 0, 74, 0
2, 140316, Control_c, 0, 67, 18
2, 140335, Control_c, 0, 67, 21
2, 140355, Control_c, 0, 67, 26
2, 140374, Control_c, 0, 67, 31
2, 140393, Control_c, 0, 67, 38
2, 140412, Control_c, 0, 67, 45
2, 140432, Control_c, 0, 67, 56
2, 140450, Control_c, 0, 67, 66
2, 140454, Note_on_c, 0, 52, 0
2, 140469, Control_c, 0, 67, 78
2, 140480, Note_on_c, 0, 70, 66
2, 140489, Control_c, 0, 67, 90
2, 140493, Note_on_c, 0, 50, 39
2, 140508, Control_c, 0, 67, 103
2, 140510, Note_on_c, 0, 72, 0
2, 140527, Control_c, 0, 67, 117
2, 140546, Control_c, 0, 67, 127
2, 140658, Note_on_c, 0, 50, 0
2, 140697, Note_on_c, 0, 49, 41
2, 140702, Note_on_c, 0, 69, 57
2, 140712, Note_on_c, 0, 70, 0
2, 140909, Note_on_c, 0, 49, 0
2, 140930, Note_on_c, 0, 50, 36
2, 140953, Note_on_c, 0, 70, 54
2, 140977, Note_on_c, 0, 69, 0
2, 141187, Note_on_c, 0, 72, 54
2, 141257, Note_on_c, 0, 70, 0
2, 141414, Note_on_c, 0, 74, 50
2, 141415, Note_on_c, 0, 53, 58
2, 141450, Note_on_c, 0, 72, 0
2, 141628, Note_on_c, 0, 75, 60
2, 141670, Note_on_c, 0, 74, 0
2, 141846, Note_on_c, 0, 74, 52
2, 141848, Note_on_c, 0, 58, 72
2, 141916, Note_on_c, 0, 53, 0
2, 142034, Note_on_c, 0, 75, 0
2, 142070, Note_on_c, 0, 72, 61
2, 142086, Note_on_c, 0, 74, 0
2, 142295, Note_on_c, 0, 60, 73
2, 142305, Note_on_c, 0, 70, 60
2, 142308, Note_on_c, 0, 72, 0
2, 142382, Note_on_c, 0, 58, 0
2, 142517, Note_on_c, 0, 69, 61
2, 142520, Note_on_c, 0, 70, 0
2, 142716, Control_c, 0, 64, 33
2, 142738, Note_on_c, 0, 62, 63
2, 142762, Note_on_c, 0, 70, 58
2, 142765, Note_on_c, 0, 69, 0
2, 142829, Note_on_c, 0, 60, 0
2, 142937, Note_on_c, 0, 70, 0
2, 142957, Note_on_c, 0, 69, 58
2, 143177, Control_c, 0, 64, 32
2, 143188, Note_on_c, 0, 68, 62
2, 143194, Note_on_c, 0, 60, 47
2, 143209, Note_on_c, 0, 69, 0
2, 143249, Note_on_c, 0, 62, 0
2, 143409, Note_on_c, 0, 66, 56
2, 143437, Note_on_c, 0, 68, 0
2, 143523, Control_c, 0, 64, 32
2, 143630, Note_on_c, 0, 60, 0
2, 143632, Note_on_c, 0, 68, 55
2, 143658, Note_on_c, 0, 59, 36
2, 143685, Note_on_c, 0, 66, 0
2, 143695, Control_c, 0, 64, 31
2, 143706, Note_on_c, 0, 50, 0
2, 143871, Note_on_c, 0, 50, 50
2, 143939, Note_on_c, 0, 59, 0
2, 144071, Note_on_c, 0, 50, 0
2, 144091, Note_on_c, 0, 64, 67
2, 144093, Note_on_c, 0, 52, 47
2, 144137, Control_c, 0, 64, 31
2, 144195, Control_c, 0, 67, 125
2, 144214, Control_c, 0, 67, 123
2, 144233, Control_c, 0, 67, 120
2, 144252, Control_c, 0, 67, 117
2, 144262, Note_on_c, 0, 68, 0
2, 144271, Control_c, 0, 67, 115
2, 144290, Control_c, 0, 67, 114
2, 144296, Note_on_c, 0, 52, 0
2, 144298, Note_on_c, 0, 53, 64
2, 144309, Control_c, 0, 67, 112
2, 144329, Control_c, 0, 67, 109
2, 144348, Control_c, 0, 67, 105
2, 144367, Control_c, 0, 67, 99
2, 144386, Control_c, 0, 67, 95
2, 144406, Control_c, 0, 67, 91
2, 144425, Control_c, 0, 67, 88
2, 144444, Control_c, 0, 67, 85
2, 144463, Control_c, 0, 67, 80
2, 144483, Control_c, 0, 67, 76
2, 144500, Control_c, 0, 67, 73
2, 144511, Note_on_c, 0, 53, 0
2, 144520, Control_c, 0, 67, 70
2, 144520, Note_on_c, 0, 68, 77
2, 144521, Note_on_c, 0, 52, 58
2, 144539, Control_c, 0, 67, 68
2, 144559, Control_c, 0, 67, 65
2, 144577, Control_c, 0, 67, 62
2, 144597, Control_c, 0, 67, 58
2, 144616, Control_c, 0, 67, 54
2, 144636, Control_c, 0, 67, 51
2, 144654, Control_c, 0, 67, 48
2, 144674, Control_c, 0, 67, 45
2, 144693, Control_c, 0, 67, 42
2, 144711, Control_c, 0, 67, 39
2, 144731, Control_c, 0, 67, 36
2, 144737, Note_on_c, 0, 50, 68
2, 144750, Control_c, 0, 67, 33
2, 144770, Control_c, 0, 67, 28
2, 144788, Control_c, 0, 67, 23
2, 144793, Note_on_c, 0, 52, 0
2, 144808, Control_c, 0, 67, 17
2, 144827, Control_c, 0, 67, 11
2, 144846, Control_c, 0, 67, 0
2, 144956, Note_on_c, 0, 71, 78
2, 144966, Note_on_c, 0, 48, 61
2, 144991, Note_on_c, 0, 50, 0
2, 145193, Note_on_c, 0, 47, 71
2, 145216, Note_on_c, 0, 48, 0
2, 145419, Note_on_c, 0, 74, 75
2, 145424, Note_on_c, 0, 47, 0
2, 145430, Note_on_c, 0, 48, 65
2, 145557, Control_c, 0, 64, 31
2, 145650, Note_on_c, 0, 47, 71
2, 145714, Note_on_c, 0, 48, 0
2, 145877, Note_on_c, 0, 45, 65
2, 145911, Note_on_c, 0, 47, 0
2, 146094, Note_on_c, 0, 44, 72
2, 146114, Note_on_c, 0, 45, 0
2, 146324, Note_on_c, 0, 45, 73
2, 146336, Note_on_c, 0, 44, 0
2, 146450, Note_on_c, 0, 68, 0
2, 146508, Note_on_c, 0, 74, 0
2, 146544, Note_on_c, 0, 41, 78
2, 146590, Note_on_c, 0, 45, 0
2, 146671, Control_c, 0, 64, 32
2, 146688, Note_on_c, 0, 71, 0
2, 146772, Note_on_c, 0, 72, 85
2, 146775, Note_on_c, 0, 66, 69
2, 146776, Note_on_c, 0, 69, 76
2, 146781, Note_on_c, 0, 40, 69
2, 146796, Note_on_c, 0, 41, 0
2, 146845, Note_on_c, 0, 64, 0
2, 147012, Note_on_c, 0, 39, 80
2, 147044, Note_on_c, 0, 40, 0
2, 147051, Note_on_c, 0, 39, 0
2, 147061, Note_on_c, 0, 40, 60
2, 147247, Note_on_c, 0, 40, 0
2, 147293, Note_on_c, 0, 64, 86
2, 147305, Note_on_c, 0, 40, 60
2, 147367, Note_on_c, 0, 69, 0
2, 147373, Note_on_c, 0, 72, 0
2, 147391, Note_on_c, 0, 66, 0
2, 147562, Note_on_c, 0, 72, 83
2, 147611, Note_on_c, 0, 45, 63
2, 147649, Control_c, 0, 64, 31
2, 147706, Control_c, 0, 64, 31
2, 147773, Note_on_c, 0, 45, 0
2, 147776, Note_on_c, 0, 47, 71
2, 147788, Note_on_c, 0, 71, 82
2, 147846, Note_on_c, 0, 72, 0
2, 147860, Control_c, 0, 64, 30
2, 147956, Note_on_c, 0, 47, 0
2, 147979, Note_on_c, 0, 48, 59
2, 147988, Note_on_c, 0, 69, 84
2, 148041, Note_on_c, 0, 71, 0
2, 148170, Note_on_c, 0, 48, 0
2, 148201, Note_on_c, 0, 50, 67
2, 148206, Note_on_c, 0, 71, 81
2, 148263, Note_on_c, 0, 69, 0
2, 148274, Note_on_c, 0, 64, 0
2, 148432, Note_on_c, 0, 66, 79
2, 148658, Note_on_c, 0, 68, 89
2, 148668, Note_on_c, 0, 52, 74
2, 148717, Note_on_c, 0, 50, 0
2, 148734, Note_on_c, 0, 40, 0
2, 148739, Note_on_c, 0, 66, 0
2, 148792, Note_on_c, 0, 71, 0
2, 148906, Note_on_c, 0, 62, 81
2, 149180, Note_on_c, 0, 53, 63
2, 149185, Note_on_c, 0, 45, 48
2, 149208, Note_on_c, 0, 69, 89
2, 149238, Note_on_c, 0, 52, 0
2, 149257, Note_on_c, 0, 62, 0
2, 149270, Note_on_c, 0, 68, 0
2, 149492, Note_on_c, 0, 62, 80
2, 149553, Control_c, 0, 64, 31
2, 149726, Note_on_c, 0, 64, 81
2, 149728, Note_on_c, 0, 50, 70
2, 149787, Note_on_c, 0, 53, 0
2, 149807, Note_on_c, 0, 62, 0
2, 149839, Control_c, 0, 64, 31
2, 149960, Note_on_c, 0, 65, 81
2, 149993, Control_c, 0, 64, 32
2, 150025, Note_on_c, 0, 64, 0
2, 150108, Control_c, 0, 64, 32
2, 150224, Note_on_c, 0, 64, 85
2, 150238, Note_on_c, 0, 53, 73
2, 150283, Note_on_c, 0, 50, 0
2, 150288, Note_on_c, 0, 65, 0
2, 150501, Note_on_c, 0, 62, 80
2, 150513, Control_c, 0, 64, 33
2, 150528, Note_on_c, 0, 64, 0
2, 150763, Control_c, 0, 64, 32
2, 150783, Control_c, 0, 64, 32
2, 150801, Note_on_c, 0, 61, 88
2, 150802, Control_c, 0, 64, 31
2, 150812, Note_on_c, 0, 56, 82
2, 150821, Control_c, 0, 64, 30
2, 150852, Note_on_c, 0, 62, 0
2, 150869, Note_on_c, 0, 53, 0
2, 150937, Control_c, 0, 64, 32
2, 150955, Control_c, 0, 64, 42
2, 150975, Control_c, 0, 64, 57
2, 150994, Control_c, 0, 64, 64
2, 151013, Control_c, 0, 64, 67
2, 151032, Control_c, 0, 64, 74
2, 151052, Control_c, 0, 64, 89
2, 151071, Control_c, 0, 64, 127
2, 151129, Note_on_c, 0, 59, 91
2, 151159, Note_on_c, 0, 56, 0
2, 151236, Note_on_c, 0, 61, 0
2, 151388, Note_on_c, 0, 59, 0
2, 151608, Control_c, 0, 64, 101
2, 151611, Note_on_c, 0, 52, 48
2, 151618, Note_on_c, 0, 61, 80
2, 151627, Control_c, 0, 64, 79
2, 151631, Note_on_c, 0, 57, 66
2, 151646, Control_c, 0, 64, 68
2, 151665, Control_c, 0, 64, 62
2, 151685, Control_c, 0, 64, 56
2, 151703, Control_c, 0, 64, 54
2, 151722, Control_c, 0, 64, 53
2, 151742, Control_c, 0, 64, 51
2, 151761, Control_c, 0, 64, 48
2, 151780, Control_c, 0, 64, 45
2, 151799, Control_c, 0, 64, 42
2, 151819, Control_c, 0, 64, 37
2, 151838, Control_c, 0, 64, 29
2, 151857, Control_c, 0, 64, 13
2, 151876, Control_c, 0, 64, 0
2, 152008, Note_on_c, 0, 45, 0
2, 152015, Note_on_c, 0, 46, 62
2, 152258, Note_on_c, 0, 45, 61
2, 152301, Note_on_c, 0, 46, 0
2, 152491, Control_c, 0, 67, 10
2, 152497, Note_on_c, 0, 43, 55
2, 152507, Note_on_c, 0, 57, 0
2, 152508, Note_on_c, 0, 52, 0
2, 152510, Control_c, 0, 67, 12
2, 152513, Note_on_c, 0, 45, 0
2, 152529, Control_c, 0, 67, 15
2, 152548, Control_c, 0, 67, 20
2, 152568, Control_c, 0, 67, 25
2, 152587, Control_c, 0, 67, 31
2, 152606, Control_c, 0, 67, 40
2, 152625, Control_c, 0, 67, 52
2, 152630, Note_on_c, 0, 61, 0
2, 152634, Note_on_c, 0, 69, 0
2, 152644, Control_c, 0, 67, 65
2, 152663, Control_c, 0, 67, 78
2, 152682, Control_c, 0, 67, 91
2, 152702, Control_c, 0, 67, 102
2, 152721, Control_c, 0, 67, 111
2, 152740, Control_c, 0, 67, 119
2, 152759, Control_c, 0, 67, 125
2, 152778, Note_on_c, 0, 43, 0
2, 152779, Control_c, 0, 67, 127
2, 152798, Note_on_c, 0, 41, 49
2, 153069, Note_on_c, 0, 76, 57
2, 153294, Note_on_c, 0, 77, 62
2, 153329, Note_on_c, 0, 76, 0
2, 153511, Note_on_c, 0, 79, 67
2, 153538, Note_on_c, 0, 77, 0
2, 153743, Note_on_c, 0, 77, 59
2, 153759, Note_on_c, 0, 53, 46
2, 153782, Note_on_c, 0, 79, 0
2, 153831, Note_on_c, 0, 41, 0
2, 153966, Note_on_c, 0, 76, 63
2, 154004, Note_on_c, 0, 77, 0
2, 154187, Note_on_c, 0, 74, 62
2, 154234, Note_on_c, 0, 76, 0
2, 154413, Note_on_c, 0, 72, 61
2, 154418, Note_on_c, 0, 74, 0
2, 154660, Note_on_c, 0, 57, 41
2, 154662, Note_on_c, 0, 74, 60
2, 154684, Note_on_c, 0, 72, 0
2, 154874, Note_on_c, 0, 72, 64
2, 154911, Note_on_c, 0, 74, 0
2, 154968, Control_c, 0, 67, 127
2, 155025, Control_c, 0, 67, 126
2, 155044, Control_c, 0, 67, 126
2, 155063, Control_c, 0, 67, 125
2, 155091, Note_on_c, 0, 70, 70
2, 155135, Note_on_c, 0, 72, 0
2, 155159, Control_c, 0, 67, 125
2, 155179, Control_c, 0, 67, 124
2, 155198, Control_c, 0, 67, 124
2, 155283, Note_on_c, 0, 70, 0
2, 155299, Note_on_c, 0, 69, 67
2, 155540, Note_on_c, 0, 70, 67
2, 155545, Note_on_c, 0, 62, 29
2, 155564, Note_on_c, 0, 57, 0
2, 155566, Note_on_c, 0, 69, 0
2, 155760, Note_on_c, 0, 69, 58
2, 155928, Control_c, 0, 67, 124
2, 155985, Note_on_c, 0, 67, 53
2, 156006, Note_on_c, 0, 69, 0
2, 156042, Control_c, 0, 67, 125
2, 156198, Note_on_c, 0, 65, 49
2, 156209, Note_on_c, 0, 67, 0
2, 156254, Control_c, 0, 67, 125
2, 156417, Note_on_c, 0, 67, 49
2, 156431, Note_on_c, 0, 58, 26
2, 156438, Note_on_c, 0, 65, 0
2, 156454, Note_on_c, 0, 62, 0
2, 156626, Note_on_c, 0, 65, 45
2, 156843, Note_on_c, 0, 65, 0
2, 156854, Note_on_c, 0, 64, 52
2, 157072, Note_on_c, 0, 62, 45
2, 157078, Note_on_c, 0, 64, 0
2, 157079, Control_c, 0, 67, 125
2, 157304, Note_on_c, 0, 64, 47
2, 157322, Note_on_c, 0, 55, 37
2, 157337, Note_on_c, 0, 58, 0
2, 157340, Note_on_c, 0, 62, 0
2, 157502, Control_c, 0, 67, 124
2, 157535, Note_on_c, 0, 58, 44
2, 157542, Note_on_c, 0, 55, 0
2, 157761, Note_on_c, 0, 60, 53
2, 157797, Note_on_c, 0, 58, 0
2, 157978, Note_on_c, 0, 62, 56
2, 157983, Note_on_c, 0, 60, 0
2, 158136, Control_c, 0, 67, 124
2, 158189, Note_on_c, 0, 60, 52
2, 158199, Note_on_c, 0, 62, 0
2, 158270, Control_c, 0, 67, 123
2, 158416, Note_on_c, 0, 58, 49
2, 158424, Note_on_c, 0, 60, 0
2, 158622, Note_on_c, 0, 58, 0
2, 158647, Note_on_c, 0, 57, 50
2, 158670, Note_on_c, 0, 64, 0
2, 158750, Control_c, 0, 67, 124
2, 158827, Note_on_c, 0, 57, 0
2, 158849, Note_on_c, 0, 55, 46
2, 158922, Control_c, 0, 67, 123
2, 158961, Control_c, 0, 67, 123
2, 159038, Control_c, 0, 67, 122
2, 159056, Control_c, 0, 67, 122
2, 159060, Note_on_c, 0, 69, 62
2, 159067, Note_on_c, 0, 55, 0
2, 159074, Note_on_c, 0, 60, 38
2, 159075, Note_on_c, 0, 57, 32
2, 159077, Note_on_c, 0, 65, 34
2, 159095, Control_c, 0, 67, 121
2, 159107, Note_on_c, 0, 67, 0
2, 159113, Control_c, 0, 67, 120
2, 159121, Note_on_c, 0, 70, 0
2, 159133, Control_c, 0, 67, 117
2, 159142, Note_on_c, 0, 53, 0
2, 159152, Control_c, 0, 67, 114
2, 159172, Control_c, 0, 67, 112
2, 159191, Control_c, 0, 67, 110
2, 159211, Control_c, 0, 67, 109
2, 159230, Control_c, 0, 67, 107
2, 159249, Control_c, 0, 67, 105
2, 159268, Control_c, 0, 67, 103
2, 159282, Note_on_c, 0, 55, 48
2, 159288, Control_c, 0, 67, 102
2, 159307, Control_c, 0, 67, 99
2, 159325, Control_c, 0, 67, 96
2, 159345, Control_c, 0, 67, 93
2, 159364, Control_c, 0, 67, 89
2, 159383, Control_c, 0, 67, 87
2, 159402, Control_c, 0, 67, 84
2, 159422, Control_c, 0, 67, 81
2, 159441, Control_c, 0, 67, 78
2, 159460, Control_c, 0, 67, 75
2, 159479, Control_c, 0, 67, 73
2, 159499, Control_c, 0, 67, 71
2, 159517, Control_c, 0, 67, 70
2, 159519, Note_on_c, 0, 53, 48
2, 159530, Note_on_c, 0, 55, 0
2, 159537, Control_c, 0, 67, 68
2, 159556, Control_c, 0, 67, 66
2, 159576, Control_c, 0, 67, 65
2, 159594, Control_c, 0, 67, 64
2, 159614, Control_c, 0, 67, 63
2, 159652, Control_c, 0, 67, 63
2, 159671, Control_c, 0, 67, 62
2, 159710, Control_c, 0, 67, 62
2, 159710, Note_on_c, 0, 65, 0
2, 159746, Note_on_c, 0, 53, 0
2, 159750, Note_on_c, 0, 52, 49
2, 159780, Note_on_c, 0, 60, 0
2, 159920, Control_c, 0, 67, 62
2, 159953, Note_on_c, 0, 52, 0
2, 159964, Note_on_c, 0, 53, 41
2, 159967, Note_on_c, 0, 68, 61
2, 159978, Control_c, 0, 67, 63
2, 159988, Note_on_c, 0, 65, 43
2, 159997, Control_c, 0, 67, 63
2, 159998, Note_on_c, 0, 62, 38
2, 160021, Note_on_c, 0, 57, 0
2, 160102, Note_on_c, 0, 69, 0
2, 160195, Note_on_c, 0, 50, 49
2, 160424, Note_on_c, 0, 48, 40
2, 160424, Note_on_c, 0, 50, 0
2, 160632, Note_on_c, 0, 48, 0
2, 160648, Note_on_c, 0, 47, 43
2, 160662, Note_on_c, 0, 62, 0
2, 160687, Note_on_c, 0, 53, 0
2, 160840, Control_c, 0, 67, 64
2, 160853, Note_on_c, 0, 48, 27
2, 160893, Note_on_c, 0, 60, 50
2, 160895, Note_on_c, 0, 47, 0
2, 160955, Note_on_c, 0, 65, 0
2, 160972, Note_on_c, 0, 68, 0
2, 161114, Note_on_c, 0, 68, 62
2, 161129, Control_c, 0, 67, 65
2, 161133, Note_on_c, 0, 53, 36
2, 161168, Control_c, 0, 67, 66
2, 161186, Control_c, 0, 67, 67
2, 161225, Control_c, 0, 67, 68
2, 161243, Control_c, 0, 67, 68
2, 161302, Control_c, 0, 67, 69
2, 161336, Note_on_c, 0, 67, 59
2, 161340, Control_c, 0, 67, 69
2, 161342, Note_on_c, 0, 52, 38
2, 161375, Note_on_c, 0, 53, 0
2, 161379, Note_on_c, 0, 68, 0
2, 161436, Control_c, 0, 67, 70
2, 161494, Control_c, 0, 67, 70
2, 161532, Control_c, 0, 67, 71
2, 161551, Control_c, 0, 67, 71
2, 161553, Note_on_c, 0, 67, 0
2, 161554, Note_on_c, 0, 52, 0
2, 161562, Note_on_c, 0, 65, 53
2, 161571, Control_c, 0, 67, 72
2, 161574, Note_on_c, 0, 50, 40
2, 161589, Control_c, 0, 67, 72
2, 161609, Control_c, 0, 67, 73
2, 161628, Control_c, 0, 67, 73
2, 161648, Control_c, 0, 67, 74
2, 161666, Control_c, 0, 67, 75
2, 161685, Control_c, 0, 67, 75
2, 161705, Control_c, 0, 67, 76
2, 161723, Control_c, 0, 67, 77
2, 161743, Control_c, 0, 67, 77
2, 161764, Control_c, 0, 67, 78
2, 161764, Note_on_c, 0, 50, 0
2, 161781, Note_on_c, 0, 52, 37
2, 161783, Control_c, 0, 67, 78
2, 161792, Note_on_c, 0, 67, 55
2, 161802, Control_c, 0, 67, 79
2, 161810, Note_on_c, 0, 65, 0
2, 161822, Control_c, 0, 67, 82
2, 161841, Control_c, 0, 67, 88
2, 161860, Control_c, 0, 67, 95
2, 161879, Control_c, 0, 67, 102
2, 161899, Control_c, 0, 67, 108
2, 161917, Control_c, 0, 67, 114
2, 161937, Control_c, 0, 67, 118
2, 161956, Control_c, 0, 67, 122
2, 161976, Control_c, 0, 67, 126
2, 161994, Control_c, 0, 67, 127
2, 162014, Note_on_c, 0, 65, 42
2, 162249, Note_on_c, 0, 64, 50
2, 162255, Note_on_c, 0, 55, 56
2, 162281, Note_on_c, 0, 65, 0
2, 162343, Note_on_c, 0, 52, 0
2, 162443, Note_on_c, 0, 60, 0
2, 162460, Note_on_c, 0, 64, 0
2, 162469, Note_on_c, 0, 62, 55
2, 162708, Note_on_c, 0, 60, 58
2, 162739, Note_on_c, 0, 64, 52
2, 162749, Note_on_c, 0, 55, 0
2, 162772, Note_on_c, 0, 62, 0
2, 162926, Note_on_c, 0, 50, 54
2, 162930, Note_on_c, 0, 48, 0
2, 163169, Note_on_c, 0, 48, 52
2, 163171, Note_on_c, 0, 55, 42
2, 163184, Note_on_c, 0, 50, 0
2, 163270, Note_on_c, 0, 60, 0
2, 163348, Note_on_c, 0, 67, 0
2, 163397, Note_on_c, 0, 46, 49
2, 163420, Note_on_c, 0, 48, 0
2, 163546, Note_on_c, 0, 64, 0
2, 163681, Note_on_c, 0, 45, 41
2, 163686, Note_on_c, 0, 55, 0
2, 163725, Note_on_c, 0, 46, 0
2, 163926, Note_on_c, 0, 60, 43
2, 164155, Note_on_c, 0, 62, 49
2, 164162, Note_on_c, 0, 55, 36
2, 164203, Note_on_c, 0, 60, 0
2, 164391, Note_on_c, 0, 63, 52
2, 164416, Note_on_c, 0, 62, 0
2, 164589, Note_on_c, 0, 45, 0
2, 164605, Control_c, 0, 67, 127
2, 164607, Note_on_c, 0, 63, 0
2, 164611, Note_on_c, 0, 50, 37
2, 164611, Note_on_c, 0, 62, 53
2, 164622, Note_on_c, 0, 54, 43
2, 164644, Control_c, 0, 67, 126
2, 164664, Control_c, 0, 67, 125
2, 164685, Note_on_c, 0, 55, 0
2, 164759, Control_c, 0, 67, 125
2, 164779, Control_c, 0, 67, 124
2, 164816, Control_c, 0, 67, 122
2, 164835, Note_on_c, 0, 64, 58
2, 164836, Control_c, 0, 67, 120
2, 164913, Control_c, 0, 67, 120
2, 164932, Control_c, 0, 67, 119
2, 164951, Control_c, 0, 67, 119
2, 165051, Note_on_c, 0, 66, 62
2, 165066, Note_on_c, 0, 58, 45
2, 165074, Note_on_c, 0, 54, 0
2, 165120, Note_on_c, 0, 64, 0
2, 165162, Control_c, 0, 67, 118
2, 165220, Control_c, 0, 67, 118
2, 165269, Note_on_c, 0, 67, 59
2, 165306, Note_on_c, 0, 66, 0
2, 165316, Control_c, 0, 67, 117
2, 165392, Note_on_c, 0, 58, 0
2, 165504, Note_on_c, 0, 67, 0
2, 165505, Note_on_c, 0, 57, 39
2, 165511, Note_on_c, 0, 66, 62
2, 165624, Control_c, 0, 67, 117
2, 165713, Control_c, 0, 67, 116
2, 165723, Note_on_c, 0, 69, 66
2, 165733, Control_c, 0, 67, 116
2, 165771, Control_c, 0, 67, 114
2, 165790, Control_c, 0, 67, 112
2, 165810, Control_c, 0, 67, 112
2, 165829, Control_c, 0, 67, 111
2, 165848, Control_c, 0, 67, 111
2, 165867, Control_c, 0, 67, 110
2, 165955, Note_on_c, 0, 70, 73
2, 165982, Control_c, 0, 67, 110
2, 166022, Note_on_c, 0, 69, 0
2, 166170, Note_on_c, 0, 57, 0
2, 166184, Note_on_c, 0, 72, 67
2, 166211, Note_on_c, 0, 50, 0
2, 166277, Note_on_c, 0, 70, 0
2, 166446, Note_on_c, 0, 43, 51
2, 166710, Note_on_c, 0, 69, 54
2, 166728, Note_on_c, 0, 66, 0
2, 166789, Control_c, 0, 67, 109
2, 166808, Control_c, 0, 67, 109
2, 166847, Control_c, 0, 67, 108
2, 166885, Control_c, 0, 67, 108
2, 166904, Control_c, 0, 67, 107
2, 166924, Control_c, 0, 67, 106
2, 166932, Note_on_c, 0, 67, 55
2, 166940, Note_on_c, 0, 50, 43
2, 166942, Control_c, 0, 67, 100
2, 166962, Control_c, 0, 67, 96
2, 166981, Control_c, 0, 67, 93
2, 166986, Note_on_c, 0, 69, 0
2, 167000, Control_c, 0, 67, 92
2, 167019, Control_c, 0, 67, 91
2, 167039, Control_c, 0, 67, 90
2, 167058, Control_c, 0, 67, 88
2, 167077, Control_c, 0, 67, 87
2, 167096, Control_c, 0, 67, 87
2, 167134, Control_c, 0, 67, 86
2, 167141, Note_on_c, 0, 66, 64
2, 167162, Note_on_c, 0, 67, 0
2, 167364, Note_on_c, 0, 46, 47
2, 167366, Note_on_c, 0, 67, 59
2, 167399, Note_on_c, 0, 50, 0
2, 167422, Control_c, 0, 67, 87
2, 167431, Note_on_c, 0, 72, 0
2, 167455, Note_on_c, 0, 43, 0
2, 167456, Note_on_c, 0, 66, 0
2, 167593, Note_on_c, 0, 69, 65
2, 167669, Note_on_c, 0, 67, 0
2, 167812, Note_on_c, 0, 55, 44
2, 167819, Note_on_c, 0, 70, 67
2, 167871, Note_on_c, 0, 69, 0
2, 167884, Control_c, 0, 67, 87
2, 167959, Note_on_c, 0, 46, 0
2, 168042, Note_on_c, 0, 67, 56
2, 168063, Note_on_c, 0, 62, 0
2, 168257, Note_on_c, 0, 55, 0
2, 168269, Note_on_c, 0, 50, 47
2, 168271, Note_on_c, 0, 62, 43
2, 168364, Control_c, 0, 67, 87
2, 168459, Control_c, 0, 67, 86
2, 168479, Control_c, 0, 67, 85
2, 168490, Note_on_c, 0, 54, 60
2, 168517, Control_c, 0, 67, 84
2, 168536, Control_c, 0, 67, 83
2, 168555, Control_c, 0, 67, 79
2, 168574, Control_c, 0, 67, 72
2, 168593, Control_c, 0, 67, 66
2, 168613, Control_c, 0, 67, 60
2, 168632, Control_c, 0, 67, 55
2, 168651, Control_c, 0, 67, 50
2, 168670, Control_c, 0, 67, 44
2, 168690, Control_c, 0, 67, 37
2, 168709, Control_c, 0, 67, 28
2, 168711, Note_on_c, 0, 55, 66
2, 168728, Control_c, 0, 67, 18
2, 168747, Control_c, 0, 67, 0
2, 168773, Note_on_c, 0, 54, 0
2, 168868, Note_on_c, 0, 50, 0
2, 168933, Note_on_c, 0, 57, 67
2, 168938, Note_on_c, 0, 55, 0
2, 168967, Note_on_c, 0, 62, 0
2, 169110, Note_on_c, 0, 67, 0
2, 169163, Note_on_c, 0, 58, 63
2, 169170, Note_on_c, 0, 55, 51
2, 169173, Note_on_c, 0, 70, 0
2, 169193, Note_on_c, 0, 57, 0
2, 169385, Note_on_c, 0, 67, 68
2, 169619, Note_on_c, 0, 69, 75
2, 169733, Note_on_c, 0, 67, 0
2, 169842, Note_on_c, 0, 70, 77
2, 169898, Note_on_c, 0, 69, 0
2, 170028, Note_on_c, 0, 70, 0
2, 170052, Note_on_c, 0, 58, 0
2, 170054, Note_on_c, 0, 72, 82
2, 170063, Note_on_c, 0, 57, 45
2, 170272, Note_on_c, 0, 74, 73
2, 170497, Note_on_c, 0, 75, 80
2, 170543, Note_on_c, 0, 74, 0
2, 170709, Note_on_c, 0, 70, 77
2, 170887, Note_on_c, 0, 55, 0
2, 170907, Note_on_c, 0, 57, 0
2, 170917, Note_on_c, 0, 70, 0
2, 170943, Note_on_c, 0, 53, 49
2, 170969, Note_on_c, 0, 69, 73
2, 171153, Note_on_c, 0, 53, 0
2, 171233, Note_on_c, 0, 67, 66
2, 171466, Note_on_c, 0, 65, 66
2, 171497, Note_on_c, 0, 67, 0
2, 171675, Note_on_c, 0, 63, 65
2, 171676, Note_on_c, 0, 65, 0
2, 171896, Note_on_c, 0, 63, 0
2, 171900, Note_on_c, 0, 62, 68
2, 172108, Note_on_c, 0, 60, 64
2, 172137, Note_on_c, 0, 62, 0
2, 172330, Note_on_c, 0, 58, 65
2, 172344, Note_on_c, 0, 60, 0
2, 172478, Note_on_c, 0, 75, 0
2, 172517, Note_on_c, 0, 72, 0
2, 172536, Note_on_c, 0, 69, 0
2, 172547, Note_on_c, 0, 57, 61
2, 172557, Note_on_c, 0, 58, 0
2, 172717, Note_on_c, 0, 57, 0
2, 172753, Note_on_c, 0, 58, 48
2, 172765, Note_on_c, 0, 74, 71
2, 172775, Note_on_c, 0, 70, 63
2, 172782, Note_on_c, 0, 65, 51
2, 172945, Note_on_c, 0, 58, 0
2, 172987, Note_on_c, 0, 50, 53
2, 173201, Note_on_c, 0, 72, 77
2, 173205, Note_on_c, 0, 51, 52
2, 173214, Note_on_c, 0, 50, 0
2, 173219, Note_on_c, 0, 69, 58
2, 173307, Note_on_c, 0, 70, 0
2, 173318, Note_on_c, 0, 74, 0
2, 173408, Note_on_c, 0, 51, 0
2, 173417, Note_on_c, 0, 53, 63
2, 173634, Note_on_c, 0, 53, 0
2, 173648, Note_on_c, 0, 69, 0
2, 173650, Note_on_c, 0, 74, 71
2, 173655, Note_on_c, 0, 70, 62
2, 173659, Note_on_c, 0, 51, 52
2, 173728, Note_on_c, 0, 72, 0
2, 173838, Note_on_c, 0, 51, 0
2, 173874, Note_on_c, 0, 50, 59
2, 174078, Note_on_c, 0, 68, 63
2, 174097, Note_on_c, 0, 48, 55
2, 174121, Note_on_c, 0, 50, 0
2, 174208, Note_on_c, 0, 70, 0
2, 174274, Note_on_c, 0, 65, 0
2, 174280, Note_on_c, 0, 48, 0
2, 174295, Note_on_c, 0, 46, 58
2, 174522, Note_on_c, 0, 46, 0
2, 174529, Control_c, 0, 64, 8
2, 174538, Note_on_c, 0, 51, 60
2, 174546, Control_c, 0, 64, 11
2, 174566, Control_c, 0, 64, 13
2, 174605, Control_c, 0, 64, 14
2, 174643, Control_c, 0, 64, 16
2, 174700, Control_c, 0, 64, 17
2, 174790, Note_on_c, 0, 65, 60
2, 174814, Note_on_c, 0, 68, 0
2, 174834, Control_c, 0, 64, 18
2, 174931, Control_c, 0, 64, 19
2, 175009, Note_on_c, 0, 50, 59
2, 175021, Note_on_c, 0, 67, 64
2, 175031, Note_on_c, 0, 51, 0
2, 175046, Control_c, 0, 64, 20
2, 175085, Control_c, 0, 64, 21
2, 175120, Note_on_c, 0, 65, 0
2, 175200, Control_c, 0, 64, 22
2, 175226, Note_on_c, 0, 68, 76
2, 175283, Note_on_c, 0, 67, 0
2, 175325, Note_on_c, 0, 74, 0
2, 175435, Note_on_c, 0, 50, 0
2, 175454, Note_on_c, 0, 51, 48
2, 175454, Note_on_c, 0, 72, 75
2, 175459, Note_on_c, 0, 67, 60
2, 175498, Note_on_c, 0, 68, 0
2, 175622, Note_on_c, 0, 67, 0
2, 175665, Note_on_c, 0, 65, 65
2, 175881, Note_on_c, 0, 63, 68
2, 175900, Note_on_c, 0, 65, 0
2, 176097, Note_on_c, 0, 62, 68
2, 176161, Note_on_c, 0, 63, 0
2, 176303, Note_on_c, 0, 63, 74
2, 176322, Note_on_c, 0, 62, 0
2, 176534, Note_on_c, 0, 62, 66
2, 176584, Note_on_c, 0, 63, 0
2, 176713, Note_on_c, 0, 72, 0
2, 176734, Note_on_c, 0, 62, 0
2, 176735, Control_c, 0, 64, 21
2, 176739, Note_on_c, 0, 60, 58
2, 176739, Note_on_c, 0, 74, 71
2, 176811, Control_c, 0, 64, 22
2, 176830, Control_c, 0, 64, 39
2, 176850, Control_c, 0, 64, 57
2, 176869, Control_c, 0, 64, 63
2, 176888, Control_c, 0, 64, 66
2, 176907, Control_c, 0, 64, 70
2, 176927, Control_c, 0, 64, 76
2, 176945, Control_c, 0, 64, 86
2, 176965, Control_c, 0, 64, 98
2, 176965, Note_on_c, 0, 75, 76
2, 176983, Note_on_c, 0, 74, 0
2, 176984, Control_c, 0, 64, 115
2, 176989, Note_on_c, 0, 58, 55
2, 177001, Note_on_c, 0, 60, 0
2, 177004, Control_c, 0, 64, 127
2, 177014, Note_on_c, 0, 75, 0
2, 177108, Note_on_c, 0, 58, 0
2, 177168, Note_on_c, 0, 51, 0
2, 177233, Control_c, 0, 64, 109
2, 177253, Control_c, 0, 64, 98
2, 177258, Note_on_c, 0, 70, 76
2, 177270, Note_on_c, 0, 60, 42
2, 177272, Control_c, 0, 64, 90
2, 177287, Note_on_c, 0, 65, 50
2, 177291, Control_c, 0, 64, 83
2, 177310, Control_c, 0, 64, 76
2, 177330, Control_c, 0, 64, 69
2, 177349, Control_c, 0, 64, 64
2, 177368, Control_c, 0, 64, 61
2, 177387, Control_c, 0, 64, 59
2, 177407, Control_c, 0, 64, 58
2, 177429, Control_c, 0, 64, 56
2, 177448, Control_c, 0, 64, 55
2, 177468, Control_c, 0, 64, 53
2, 177487, Control_c, 0, 64, 51
2, 177506, Control_c, 0, 64, 50
2, 177521, Note_on_c, 0, 51, 56
2, 177525, Control_c, 0, 64, 48
2, 177545, Control_c, 0, 64, 45
2, 177563, Control_c, 0, 64, 43
2, 177583, Control_c, 0, 64, 41
2, 177602, Control_c, 0, 64, 39
2, 177622, Control_c, 0, 64, 38
2, 177640, Control_c, 0, 64, 37
2, 177660, Control_c, 0, 64, 37
2, 177679, Control_c, 0, 64, 36
2, 177698, Control_c, 0, 64, 35
2, 177717, Control_c, 0, 64, 34
2, 177737, Control_c, 0, 64, 34
2, 177738, Note_on_c, 0, 51, 0
2, 177749, Note_on_c, 0, 69, 72
2, 177754, Note_on_c, 0, 53, 57
2, 177847, Note_on_c, 0, 70, 0
2, 177909, Control_c, 0, 64, 33
2, 177977, Note_on_c, 0, 55, 64
2, 177987, Note_on_c, 0, 53, 0
2, 178186, Note_on_c, 0, 53, 65
2, 178218, Note_on_c, 0, 55, 0
2, 178397, Note_on_c, 0, 51, 61
2, 178410, Note_on_c, 0, 53, 0
2, 178621, Note_on_c, 0, 50, 64
2, 178621, Note_on_c, 0, 51, 0
2, 178657, Control_c, 0, 64, 34
2, 178733, Control_c, 0, 64, 34
2, 178739, Note_on_c, 0, 60, 0
2, 178769, Note_on_c, 0, 65, 0
2, 178829, Note_on_c, 0, 48, 57
2, 178842, Note_on_c, 0, 50, 0
2, 179051, Note_on_c, 0, 70, 66
2, 179068, Note_on_c, 0, 48, 0
2, 179072, Note_on_c, 0, 65, 46
2, 179074, Note_on_c, 0, 58, 38
2, 179077, Note_on_c, 0, 50, 43
2, 179222, Note_on_c, 0, 69, 0
2, 179277, Note_on_c, 0, 48, 48
2, 179278, Note_on_c, 0, 50, 0
2, 179390, Note_on_c, 0, 58, 0
2, 179507, Note_on_c, 0, 65, 0
2, 179512, Note_on_c, 0, 46, 48
2, 179523, Note_on_c, 0, 48, 0
2, 179727, Note_on_c, 0, 45, 50
2, 179771, Note_on_c, 0, 46, 0
2, 179863, Control_c, 0, 64, 35
2, 179902, Control_c, 0, 64, 35
2, 179940, Control_c, 0, 64, 36
2, 179955, Note_on_c, 0, 45, 0
2, 179978, Control_c, 0, 64, 36
2, 179980, Note_on_c, 0, 43, 48
2, 180097, Control_c, 0, 64, 37
2, 180215, Note_on_c, 0, 69, 65
2, 180234, Note_on_c, 0, 70, 0
2, 180438, Note_on_c, 0, 70, 68
2, 180451, Note_on_c, 0, 50, 46
2, 180481, Note_on_c, 0, 69, 0
2, 180656, Note_on_c, 0, 72, 69
2, 180712, Note_on_c, 0, 70, 0
2, 180879, Note_on_c, 0, 70, 66
2, 180894, Note_on_c, 0, 55, 42
2, 180903, Note_on_c, 0, 50, 0
2, 180924, Note_on_c, 0, 72, 0
2, 181084, Note_on_c, 0, 43, 0
2, 181105, Note_on_c, 0, 69, 62
2, 181184, Note_on_c, 0, 70, 0
2, 181267, Control_c, 0, 64, 37
2, 181329, Note_on_c, 0, 67, 57
2, 181335, Note_on_c, 0, 45, 48
2, 181378, Note_on_c, 0, 69, 0
2, 181550, Note_on_c, 0, 65, 57
2, 181554, Note_on_c, 0, 67, 0
2, 181786, Note_on_c, 0, 46, 45
2, 181792, Note_on_c, 0, 67, 57
2, 181812, Note_on_c, 0, 65, 0
2, 181914, Note_on_c, 0, 45, 0
2, 182009, Note_on_c, 0, 65, 57
2, 182074, Note_on_c, 0, 67, 0
2, 182227, Control_c, 0, 67, 10
2, 182231, Note_on_c, 0, 64, 60
2, 182246, Control_c, 0, 67, 13
2, 182266, Control_c, 0, 67, 17
2, 182285, Control_c, 0, 67, 22
2, 182295, Note_on_c, 0, 65, 0
2, 182304, Control_c, 0, 67, 27
2, 182323, Control_c, 0, 67, 31
2, 182343, Control_c, 0, 67, 35
2, 182362, Control_c, 0, 67, 39
2, 182381, Control_c, 0, 67, 42
2, 182400, Control_c, 0, 67, 46
2, 182420, Control_c, 0, 67, 50
2, 182438, Control_c, 0, 67, 55
2, 182453, Note_on_c, 0, 62, 58
2, 182458, Control_c, 0, 67, 59
2, 182467, Note_on_c, 0, 64, 0
2, 182477, Control_c, 0, 67, 63
2, 182497, Control_c, 0, 67, 68
2, 182515, Control_c, 0, 67, 74
2, 182535, Control_c, 0, 67, 79
2, 182554, Control_c, 0, 67, 84
2, 182573, Control_c, 0, 67, 89
2, 182592, Control_c, 0, 67, 93
2, 182612, Control_c, 0, 67, 97
2, 182631, Control_c, 0, 67, 100
2, 182649, Control_c, 0, 67, 104
2, 182669, Control_c, 0, 67, 107
2, 182688, Control_c, 0, 67, 110
2, 182693, Note_on_c, 0, 64, 57
2, 182707, Control_c, 0, 67, 113
2, 182726, Control_c, 0, 64, 37
2, 182726, Control_c, 0, 67, 117
2, 182738, Note_on_c, 0, 62, 0
2, 182746, Control_c, 0, 67, 122
2, 182765, Control_c, 0, 67, 127
2, 182902, Note_on_c, 0, 62, 54
2, 183125, Note_on_c, 0, 60, 52
2, 183144, Note_on_c, 0, 62, 0
2, 183348, Note_on_c, 0, 58, 53
2, 183349, Note_on_c, 0, 60, 0
2, 183559, Note_on_c, 0, 60, 55
2, 183568, Note_on_c, 0, 58, 0
2, 183793, Note_on_c, 0, 58, 52
2, 183924, Note_on_c, 0, 55, 0
2, 183938, Control_c, 0, 64, 38
2, 183956, Control_c, 0, 64, 43
2, 183969, Note_on_c, 0, 58, 0
2, 183976, Control_c, 0, 64, 50
2, 183990, Note_on_c, 0, 57, 58
2, 183995, Control_c, 0, 64, 57
2, 184014, Control_c, 0, 64, 61
2, 184033, Control_c, 0, 64, 63
2, 184053, Control_c, 0, 64, 65
2, 184072, Control_c, 0, 64, 67
2, 184090, Control_c, 0, 64, 70
2, 184110, Control_c, 0, 64, 73
2, 184129, Control_c, 0, 64, 77
2, 184148, Control_c, 0, 64, 79
2, 184167, Control_c, 0, 64, 80
2, 184176, Note_on_c, 0, 57, 0
2, 184187, Control_c, 0, 64, 81
2, 184209, Note_on_c, 0, 55, 59
2, 184217, Note_on_c, 0, 64, 0
2, 184225, Control_c, 0, 64, 80
2, 184244, Control_c, 0, 64, 80
2, 184271, Note_on_c, 0, 60, 0
2, 184280, Note_on_c, 0, 55, 0
2, 184359, Control_c, 0, 64, 78
2, 184379, Control_c, 0, 64, 76
2, 184391, Note_on_c, 0, 46, 0
2, 184398, Control_c, 0, 64, 73
2, 184418, Control_c, 0, 64, 70
2, 184436, Control_c, 0, 64, 68
2, 184445, Note_on_c, 0, 45, 38
2, 184456, Control_c, 0, 64, 65
2, 184457, Note_on_c, 0, 65, 50
2, 184470, Note_on_c, 0, 57, 35
2, 184475, Control_c, 0, 64, 63
2, 184477, Note_on_c, 0, 60, 33
2, 184494, Control_c, 0, 64, 61
2, 184513, Control_c, 0, 64, 59
2, 184533, Control_c, 0, 64, 57
2, 184552, Control_c, 0, 64, 56
2, 184570, Control_c, 0, 64, 55
2, 184590, Control_c, 0, 64, 54
2, 184609, Control_c, 0, 64, 51
2, 184628, Control_c, 0, 64, 48
2, 184647, Control_c, 0, 64, 45
2, 184667, Control_c, 0, 64, 44
2, 184674, Note_on_c, 0, 52, 51
2, 184686, Control_c, 0, 64, 43
2, 184705, Control_c, 0, 64, 42
2, 184724, Control_c, 0, 64, 42
2, 184744, Control_c, 0, 64, 41
2, 184898, Note_on_c, 0, 53, 58
2, 184899, Note_on_c, 0, 52, 0
2, 184936, Control_c, 0, 64, 41
2, 185123, Note_on_c, 0, 55, 63
2, 185138, Note_on_c, 0, 53, 0
2, 185359, Note_on_c, 0, 53, 60
2, 185376, Note_on_c, 0, 55, 0
2, 185573, Note_on_c, 0, 52, 59
2, 185575, Note_on_c, 0, 53, 0
2, 185786, Note_on_c, 0, 52, 0
2, 185810, Note_on_c, 0, 50, 53
2, 185947, Note_on_c, 0, 57, 0
2, 186007, Note_on_c, 0, 50, 0
2, 186014, Note_on_c, 0, 48, 49
2, 186031, Control_c, 0, 64, 41
2, 186184, Control_c, 0, 64, 42
2, 186222, Control_c, 0, 64, 42
2, 186243, Note_on_c, 0, 48, 0
2, 186247, Note_on_c, 0, 50, 44
2, 186253, Note_on_c, 0, 45, 0
2, 186256, Note_on_c, 0, 58, 56
2, 186311, Note_on_c, 0, 60, 0
2, 186338, Control_c, 0, 64, 43
2, 186363, Note_on_c, 0, 65, 0
2, 186376, Control_c, 0, 64, 43
2, 186395, Control_c, 0, 64, 44
2, 186475, Note_on_c, 0, 48, 50
2, 186682, Control_c, 0, 64, 44
2, 186701, Note_on_c, 0, 65, 65
2, 186712, Note_on_c, 0, 46, 44
2, 186712, Note_on_c, 0, 48, 0
2, 186894, Control_c, 0, 67, 127
2, 186913, Control_c, 0, 67, 125
2, 186926, Note_on_c, 0, 46, 0
2, 186933, Control_c, 0, 67, 124
2, 186935, Note_on_c, 0, 45, 54
2, 186952, Control_c, 0, 67, 123
2, 186970, Control_c, 0, 67, 122
2, 186990, Control_c, 0, 67, 122
2, 187009, Control_c, 0, 67, 121
2, 187028, Control_c, 0, 67, 121
2, 187047, Control_c, 0, 67, 120
2, 187086, Control_c, 0, 67, 120
2, 187127, Note_on_c, 0, 45, 0
2, 187149, Note_on_c, 0, 67, 68
2, 187151, Note_on_c, 0, 46, 43
2, 187182, Control_c, 0, 67, 119
2, 187278, Control_c, 0, 64, 45
2, 187278, Control_c, 0, 67, 119
2, 187303, Note_on_c, 0, 65, 0
2, 187383, Note_on_c, 0, 45, 50
2, 187412, Note_on_c, 0, 46, 0
2, 187601, Note_on_c, 0, 69, 69
2, 187604, Note_on_c, 0, 45, 0
2, 187610, Note_on_c, 0, 43, 48
2, 187662, Control_c, 0, 67, 118
2, 187739, Control_c, 0, 64, 45
2, 187787, Note_on_c, 0, 43, 0
2, 187810, Note_on_c, 0, 41, 52
2, 187815, Note_on_c, 0, 70, 71
2, 187825, Note_on_c, 0, 67, 0
2, 187853, Note_on_c, 0, 69, 0
2, 187873, Control_c, 0, 67, 118
2, 188014, Note_on_c, 0, 41, 0
2, 188046, Note_on_c, 0, 43, 44
2, 188049, Note_on_c, 0, 64, 70
2, 188101, Note_on_c, 0, 70, 0
2, 188264, Note_on_c, 0, 41, 53
2, 188278, Note_on_c, 0, 43, 0
2, 188482, Note_on_c, 0, 41, 0
2, 188487, Note_on_c, 0, 65, 67
2, 188498, Note_on_c, 0, 40, 46
2, 188604, Note_on_c, 0, 64, 0
2, 188628, Note_on_c, 0, 58, 0
2, 188661, Control_c, 0, 64, 46
2, 188685, Note_on_c, 0, 50, 0
2, 188726, Note_on_c, 0, 38, 52
2, 188748, Note_on_c, 0, 40, 0
2, 188946, Note_on_c, 0, 65, 0
2, 188963, Note_on_c, 0, 40, 22
2, 188966, Note_on_c, 0, 48, 36
2, 188967, Note_on_c, 0, 67, 64
2, 188978, Note_on_c, 0, 38, 0
2, 189064, Control_c, 0, 67, 117
2, 189208, Note_on_c, 0, 58, 56
2, 189397, Note_on_c, 0, 40, 0
2, 189407, Note_on_c, 0, 67, 0
2, 189410, Note_on_c, 0, 36, 45
2, 189411, Note_on_c, 0, 57, 62
2, 189427, Note_on_c, 0, 58, 0
2, 189467, Control_c, 0, 64, 45
2, 189637, Note_on_c, 0, 55, 61
2, 189648, Note_on_c, 0, 57, 0
2, 189837, Note_on_c, 0, 55, 0
2, 189849, Note_on_c, 0, 36, 0
2, 189851, Note_on_c, 0, 41, 50
2, 189860, Note_on_c, 0, 57, 57
2, 190086, Note_on_c, 0, 60, 58
2, 190101, Control_c, 0, 67, 118
2, 190119, Control_c, 0, 64, 45
2, 190309, Note_on_c, 0, 41, 0
2, 190311, Note_on_c, 0, 62, 64
2, 190312, Note_on_c, 0, 40, 42
2, 190427, Control_c, 0, 64, 44
2, 190504, Control_c, 0, 64, 44
2, 190525, Note_on_c, 0, 64, 70
2, 190559, Note_on_c, 0, 60, 0
2, 190594, Note_on_c, 0, 62, 0
2, 190753, Control_c, 0, 64, 43
2, 190754, Note_on_c, 0, 65, 63
2, 190765, Note_on_c, 0, 38, 47
2, 190773, Control_c, 0, 67, 117
2, 190783, Note_on_c, 0, 40, 0
2, 190790, Note_on_c, 0, 64, 0
2, 190798, Note_on_c, 0, 57, 0
2, 190825, Note_on_c, 0, 48, 0
2, 190849, Control_c, 0, 64, 43
2, 190849, Control_c, 0, 67, 117
2, 190965, Note_on_c, 0, 57, 55
2, 191041, Control_c, 0, 67, 116
2, 191079, Control_c, 0, 67, 116
2, 191118, Control_c, 0, 67, 115
2, 191138, Control_c, 0, 67, 115
2, 191156, Control_c, 0, 67, 114
2, 191176, Control_c, 0, 67, 112
2, 191192, Note_on_c, 0, 58, 54
2, 191195, Control_c, 0, 67, 105
2, 191199, Note_on_c, 0, 48, 52
2, 191211, Control_c, 0, 67, 100
2, 191230, Control_c, 0, 67, 96
2, 191250, Control_c, 0, 67, 92
2, 191269, Control_c, 0, 67, 90
2, 191283, Note_on_c, 0, 57, 0
2, 191288, Control_c, 0, 67, 87
2, 191307, Control_c, 0, 67, 86
2, 191327, Control_c, 0, 67, 85
2, 191345, Control_c, 0, 67, 84
2, 191365, Control_c, 0, 67, 83
2, 191384, Control_c, 0, 67, 83
2, 191404, Control_c, 0, 67, 82
2, 191420, Note_on_c, 0, 60, 49
2, 191435, Note_on_c, 0, 58, 0
2, 191442, Note_on_c, 0, 48, 0
2, 191461, Control_c, 0, 67, 81
2, 191479, Control_c, 0, 67, 80
2, 191499, Control_c, 0, 67, 80
2, 191518, Control_c, 0, 67, 78
2, 191538, Control_c, 0, 67, 77
2, 191556, Control_c, 0, 67, 76
2, 191576, Control_c, 0, 67, 75
2, 191595, Control_c, 0, 67, 73
2, 191615, Control_c, 0, 67, 71
2, 191626, Note_on_c, 0, 60, 0
2, 191633, Control_c, 0, 67, 68
2, 191642, Note_on_c, 0, 46, 60
2, 191653, Control_c, 0, 67, 66
2, 191656, Note_on_c, 0, 62, 41
2, 191672, Control_c, 0, 67, 63
2, 191691, Control_c, 0, 67, 62
2, 191710, Control_c, 0, 67, 61
2, 191730, Control_c, 0, 67, 61
2, 191749, Control_c, 0, 67, 60
2, 191768, Control_c, 0, 67, 59
2, 191781, Note_on_c, 0, 62, 0
2, 191787, Control_c, 0, 67, 58
2, 191807, Control_c, 0, 67, 57
2, 191844, Control_c, 0, 67, 57
2, 191866, Note_on_c, 0, 38, 0
2, 191877, Note_on_c, 0, 60, 37
2, 191883, Control_c, 0, 64, 42
2, 192017, Control_c, 0, 67, 57
2, 192091, Note_on_c, 0, 43, 39
2, 192103, Note_on_c, 0, 58, 47
2, 192112, Control_c, 0, 64, 42
2, 192140, Note_on_c, 0, 60, 0
2, 192302, Note_on_c, 0, 58, 0
2, 192316, Note_on_c, 0, 57, 50
2, 192477, Control_c, 0, 64, 41
2, 192540, Note_on_c, 0, 48, 53
2, 192545, Note_on_c, 0, 57, 0
2, 192552, Note_on_c, 0, 55, 44
2, 192589, Note_on_c, 0, 43, 0
2, 192605, Note_on_c, 0, 46, 0
2, 192782, Note_on_c, 0, 58, 49
2, 192792, Note_on_c, 0, 65, 0
2, 193013, Note_on_c, 0, 65, 57
2, 193019, Note_on_c, 0, 36, 35
2, 193252, Note_on_c, 0, 65, 0
2, 193255, Note_on_c, 0, 64, 61
2, 193489, Note_on_c, 0, 64, 0
2, 193496, Note_on_c, 0, 41, 38
2, 193510, Note_on_c, 0, 58, 0
2, 193519, Note_on_c, 0, 65, 53
2, 193526, Note_on_c, 0, 36, 0
2, 193772, Note_on_c, 0, 58, 41
2, 194014, Note_on_c, 0, 58, 0
2, 194015, Note_on_c, 0, 57, 50
2, 194031, Note_on_c, 0, 55, 0
2, 194271, Note_on_c, 0, 55, 47
2, 194296, Note_on_c, 0, 57, 0
2, 194359, Control_c, 0, 67, 58
2, 194556, Note_on_c, 0, 57, 54
2, 194619, Note_on_c, 0, 55, 0
2, 194839, Note_on_c, 0, 55, 38
2, 194952, Control_c, 0, 67, 58
2, 195162, Note_on_c, 0, 53, 44
2, 195193, Note_on_c, 0, 55, 0
2, 195317, Control_c, 0, 67, 59
2, 195490, Control_c, 0, 64, 42
2, 195538, Note_on_c, 0, 53, 0
2, 195557, Note_on_c, 0, 52, 36
2, 195856, Control_c, 0, 64, 42
2, 196046, Note_on_c, 0, 53, 37
2, 196198, Note_on_c, 0, 52, 0
2, 196354, Control_c, 0, 67, 59
2, 196719, Control_c, 0, 67, 59
2, 196931, Control_c, 0, 67, 58
2, 197199, Control_c, 0, 64, 43
2, 197814, Control_c, 0, 67, 58
2, 197871, Control_c, 0, 67, 57
2, 197891, Control_c, 0, 67, 57
2, 197948, Control_c, 0, 67, 56
2, 197968, Control_c, 0, 67, 56
2, 197987, Control_c, 0, 67, 55
2, 198006, Control_c, 0, 67, 55
2, 198045, Control_c, 0, 67, 54
2, 198064, Control_c, 0, 67, 52
2, 198083, Control_c, 0, 67, 46
2, 198102, Control_c, 0, 67, 41
2, 198121, Control_c, 0, 67, 37
2, 198121, Note_on_c, 0, 41, 0
2, 198140, Control_c, 0, 67, 34
2, 198159, Control_c, 0, 67, 30
2, 198176, Note_on_c, 0, 53, 0
2, 198179, Control_c, 0, 67, 27
2, 198198, Control_c, 0, 67, 24
2, 198203, Note_on_c, 0, 65, 0
2, 198211, Note_on_c, 0, 57, 0
2, 198217, Control_c, 0, 67, 21
2, 198236, Control_c, 0, 67, 17
2, 198237, Note_on_c, 0, 48, 0
2, 198256, Control_c, 0, 67, 12
2, 198274, Control_c, 0, 67, 0
2, 198333, Control_c, 0, 64, 42
2, 198428, Control_c, 0, 64, 42
2, 198448, Control_c, 0, 64, 41
2, 198601, Control_c, 0, 64, 41
2, 199139, Note_on_c, 0, 65, 71
2, 199276, Note_on_c, 0, 64, 74
2, 199281, Note_on_c, 0, 65, 0
2, 199314, Note_on_c, 0, 64, 0
2, 199429, Note_on_c, 0, 65, 69
2, 199488, Note_on_c, 0, 65, 0
2, 199584, Note_on_c, 0, 72, 78
2, 199699, Note_on_c, 0, 72, 0
2, 200025, Note_on_c, 0, 69, 80
2, 200080, Control_c, 0, 64, 41
2, 200159, Note_on_c, 0, 67, 70
2, 200164, Note_on_c, 0, 69, 0
2, 200212, Note_on_c, 0, 67, 0
2, 200292, Control_c, 0, 64, 41
2, 200292, Note_on_c, 0, 69, 80
2, 200311, Control_c, 0, 64, 40
2, 200349, Control_c, 0, 64, 39
2, 200351, Note_on_c, 0, 69, 0
2, 200369, Control_c, 0, 64, 39
2, 200388, Control_c, 0, 64, 38
2, 200407, Control_c, 0, 64, 37
2, 200426, Control_c, 0, 64, 36
2, 200446, Control_c, 0, 64, 36
2, 200464, Note_on_c, 0, 74, 75
2, 200484, Control_c, 0, 64, 35
2, 200586, Note_on_c, 0, 74, 0
2, 200599, Control_c, 0, 64, 35
2, 200675, Control_c, 0, 64, 34
2, 200926, Control_c, 0, 64, 34
2, 200931, Note_on_c, 0, 72, 83
2, 201021, Control_c, 0, 64, 33
2, 201060, Control_c, 0, 64, 33
2, 201065, Note_on_c, 0, 74, 80
2, 201072, Note_on_c, 0, 72, 0
2, 201117, Control_c, 0, 64, 32
2, 201130, Note_on_c, 0, 74, 0
2, 201155, Control_c, 0, 64, 32
2, 201209, Note_on_c, 0, 76, 85
2, 201267, Note_on_c, 0, 76, 0
2, 201290, Control_c, 0, 64, 31
2, 201357, Note_on_c, 0, 77, 85
2, 201497, Note_on_c, 0, 76, 82
2, 201526, Note_on_c, 0, 77, 0
2, 201559, Note_on_c, 0, 76, 0
2, 201641, Note_on_c, 0, 74, 76
2, 201684, Note_on_c, 0, 74, 0
2, 201783, Note_on_c, 0, 72, 77
2, 201932, Note_on_c, 0, 74, 69
2, 201947, Note_on_c, 0, 72, 0
2, 201977, Note_on_c, 0, 74, 0
2, 202000, Control_c, 0, 64, 31
2, 202072, Note_on_c, 0, 70, 76
2, 202113, Note_on_c, 0, 70, 0
2, 202207, Note_on_c, 0, 69, 79
2, 202307, Note_on_c, 0, 69, 0
2, 202357, Note_on_c, 0, 67, 69
2, 202407, Note_on_c, 0, 67, 0
2, 202505, Note_on_c, 0, 65, 64
2, 202547, Note_on_c, 0, 65, 0
2, 202557, Control_c, 0, 64, 30
2, 202634, Control_c, 0, 64, 29
2, 202645, Note_on_c, 0, 60, 78
2, 202645, Note_on_c, 0, 64, 62
2, 202672, Control_c, 0, 64, 29
2, 202711, Control_c, 0, 64, 28
2, 202743, Note_on_c, 0, 64, 0
2, 202749, Control_c, 0, 64, 28
2, 202786, Note_on_c, 0, 58, 77
2, 202787, Note_on_c, 0, 60, 0
2, 202788, Control_c, 0, 64, 27
2, 202832, Note_on_c, 0, 58, 0
2, 202846, Control_c, 0, 64, 26
2, 202903, Control_c, 0, 64, 26
2, 202924, Note_on_c, 0, 70, 71
2, 202933, Note_on_c, 0, 60, 74
2, 202941, Control_c, 0, 64, 25
2, 202970, Note_on_c, 0, 70, 0
2, 202971, Note_on_c, 0, 60, 0
2, 202980, Control_c, 0, 64, 24
2, 203081, Note_on_c, 0, 69, 68
2, 203090, Note_on_c, 0, 65, 78
2, 203223, Note_on_c, 0, 65, 0
2, 203261, Note_on_c, 0, 69, 0
2, 203377, Note_on_c, 0, 74, 68
2, 203418, Note_on_c, 0, 74, 0
2, 203498, Control_c, 0, 64, 23
2, 203532, Note_on_c, 0, 64, 84
2, 203532, Note_on_c, 0, 67, 71
2, 203594, Control_c, 0, 64, 22
2, 203632, Control_c, 0, 64, 21
2, 203652, Control_c, 0, 64, 20
2, 203668, Note_on_c, 0, 64, 0
2, 203670, Note_on_c, 0, 62, 75
2, 203671, Control_c, 0, 64, 19
2, 203680, Note_on_c, 0, 67, 0
2, 203690, Control_c, 0, 64, 18
2, 203709, Control_c, 0, 64, 16
2, 203729, Control_c, 0, 64, 14
2, 203738, Note_on_c, 0, 62, 0
2, 203748, Control_c, 0, 64, 13
2, 203767, Control_c, 0, 64, 11
2, 203806, Control_c, 0, 64, 8
2, 203810, Note_on_c, 0, 64, 77
2, 203817, Note_on_c, 0, 74, 74
2, 203852, Note_on_c, 0, 64, 0
2, 203854, Note_on_c, 0, 74, 0
2, 203863, Control_c, 0, 64, 0
2, 203973, Note_on_c, 0, 72, 75
2, 203977, Note_on_c, 0, 69, 82
2, 204139, Note_on_c, 0, 69, 0
2, 204159, Note_on_c, 0, 72, 0
2, 204274, Note_on_c, 0, 77, 77
2, 204329, Note_on_c, 0, 77, 0
2, 204432, Note_on_c, 0, 67, 81
2, 204434, Note_on_c, 0, 71, 75
2, 204575, Note_on_c, 0, 69, 84
2, 204611, Note_on_c, 0, 71, 0
2, 204623, Note_on_c, 0, 67, 0
2, 204637, Note_on_c, 0, 69, 0
2, 204720, Note_on_c, 0, 77, 80
2, 204735, Note_on_c, 0, 71, 85
2, 204779, Note_on_c, 0, 77, 0
2, 204788, Note_on_c, 0, 71, 0
2, 204873, Note_on_c, 0, 72, 84
2, 204879, Note_on_c, 0, 76, 81
2, 204996, Note_on_c, 0, 76, 0
2, 205011, Note_on_c, 0, 72, 0
2, 205014, Note_on_c, 0, 71, 82
2, 205033, Note_on_c, 0, 74, 78
2, 205074, Note_on_c, 0, 71, 0
2, 205098, Note_on_c, 0, 74, 0
2, 205166, Note_on_c, 0, 69, 81
2, 205170, Note_on_c, 0, 72, 77
2, 205211, Note_on_c, 0, 69, 0
2, 205228, Note_on_c, 0, 72, 0
2, 205310, Note_on_c, 0, 67, 72
2, 205313, Note_on_c, 0, 79, 85
2, 205426, Note_on_c, 0, 67, 0
2, 205450, Note_on_c, 0, 69, 76
2, 205484, Note_on_c, 0, 79, 0
2, 205494, Note_on_c, 0, 69, 0
2, 205598, Note_on_c, 0, 71, 73
2, 205616, Note_on_c, 0, 65, 74
2, 205642, Note_on_c, 0, 71, 0
2, 205655, Note_on_c, 0, 65, 0
2, 205745, Note_on_c, 0, 72, 72
2, 205759, Note_on_c, 0, 64, 77
2, 205880, Note_on_c, 0, 64, 0
2, 205897, Note_on_c, 0, 62, 72
2, 205962, Note_on_c, 0, 62, 0
2, 206051, Note_on_c, 0, 60, 79
2, 206109, Note_on_c, 0, 60, 0
2, 206199, Note_on_c, 0, 62, 73
2, 206300, Note_on_c, 0, 62, 0
2, 206321, Note_on_c, 0, 72, 0
2, 206341, Note_on_c, 0, 64, 74
2, 206341, Note_on_c, 0, 70, 72
2, 206388, Note_on_c, 0, 64, 0
2, 206388, Note_on_c, 0, 70, 0
2, 206490, Note_on_c, 0, 66, 69
2, 206492, Note_on_c, 0, 69, 71
2, 206536, Note_on_c, 0, 66, 0
2, 206550, Control_c, 0, 67, 14
2, 206554, Note_on_c, 0, 69, 0
2, 206570, Control_c, 0, 67, 22
2, 206588, Control_c, 0, 67, 30
2, 206608, Control_c, 0, 67, 36
2, 206627, Control_c, 0, 67, 40
2, 206646, Control_c, 0, 67, 41
2, 206653, Note_on_c, 0, 67, 54
2, 206658, Note_on_c, 0, 70, 68
2, 206665, Control_c, 0, 67, 42
2, 206685, Control_c, 0, 67, 42
2, 206704, Control_c, 0, 67, 44
2, 206722, Control_c, 0, 67, 47
2, 206742, Control_c, 0, 67, 51
2, 206746, Note_on_c, 0, 70, 0
2, 206761, Control_c, 0, 67, 57
2, 206780, Control_c, 0, 67, 63
2, 206799, Control_c, 0, 67, 68
2, 206809, Note_on_c, 0, 72, 66
2, 206819, Control_c, 0, 67, 77
2, 206838, Control_c, 0, 67, 85
2, 206857, Control_c, 0, 67, 95
2, 206876, Control_c, 0, 67, 105
2, 206896, Control_c, 0, 67, 116
2, 206915, Control_c, 0, 67, 126
2, 206934, Control_c, 0, 67, 127
2, 206956, Note_on_c, 0, 74, 65
2, 206959, Note_on_c, 0, 72, 0
2, 207120, Note_on_c, 0, 75, 71
2, 207141, Note_on_c, 0, 74, 0
2, 207200, Control_c, 0, 67, 127
2, 207220, Control_c, 0, 67, 126
2, 207239, Control_c, 0, 67, 126
2, 207275, Note_on_c, 0, 65, 58
2, 207277, Control_c, 0, 67, 125
2, 207294, Note_on_c, 0, 67, 0
2, 207316, Control_c, 0, 67, 125
2, 207335, Control_c, 0, 67, 124
2, 207354, Control_c, 0, 67, 123
2, 207374, Control_c, 0, 67, 122
2, 207393, Control_c, 0, 67, 122
2, 207428, Note_on_c, 0, 65, 0
2, 207431, Control_c, 0, 67, 121
2, 207432, Note_on_c, 0, 63, 63
2, 207451, Control_c, 0, 67, 120
2, 207470, Control_c, 0, 67, 117
2, 207489, Control_c, 0, 67, 112
2, 207508, Control_c, 0, 67, 106
2, 207528, Control_c, 0, 64, 8
2, 207528, Control_c, 0, 67, 101
2, 207546, Control_c, 0, 67, 96
2, 207566, Control_c, 0, 67, 92
2, 207573, Note_on_c, 0, 63, 0
2, 207582, Note_on_c, 0, 65, 63
2, 207585, Control_c, 0, 67, 87
2, 207605, Control_c, 0, 67, 81
2, 207623, Control_c, 0, 67, 73
2, 207642, Control_c, 0, 67, 65
2, 207662, Control_c, 0, 67, 60
2, 207680, Control_c, 0, 67, 57
2, 207695, Note_on_c, 0, 65, 0
2, 207700, Control_c, 0, 67, 55
2, 207719, Control_c, 0, 67, 54
2, 207729, Note_on_c, 0, 67, 63
2, 207732, Note_on_c, 0, 74, 71
2, 207739, Control_c, 0, 67, 52
2, 207757, Control_c, 0, 67, 50
2, 207777, Control_c, 0, 67, 49
2, 207784, Note_on_c, 0, 75, 0
2, 207796, Control_c, 0, 67, 48
2, 207834, Control_c, 0, 67, 48
2, 207866, Note_on_c, 0, 67, 0
2, 207875, Note_on_c, 0, 69, 70
2, 207881, Note_on_c, 0, 72, 77
2, 207895, Control_c, 0, 67, 48
2, 207898, Note_on_c, 0, 74, 0
2, 207972, Control_c, 0, 67, 49
2, 207974, Note_on_c, 0, 69, 0
2, 207991, Control_c, 0, 67, 50
2, 208025, Note_on_c, 0, 70, 64
2, 208039, Note_on_c, 0, 74, 75
2, 208049, Control_c, 0, 67, 51
2, 208061, Note_on_c, 0, 72, 0
2, 208106, Control_c, 0, 64, 11
2, 208106, Control_c, 0, 67, 51
2, 208162, Control_c, 0, 67, 52
2, 208182, Control_c, 0, 64, 13
2, 208191, Note_on_c, 0, 76, 79
2, 208224, Note_on_c, 0, 74, 0
2, 208239, Control_c, 0, 67, 52
2, 208259, Control_c, 0, 64, 14
2, 208278, Control_c, 0, 67, 53
2, 208297, Control_c, 0, 67, 53
2, 208303, Note_on_c, 0, 76, 0
2, 208344, Note_on_c, 0, 77, 76
2, 208374, Control_c, 0, 64, 16
2, 208374, Control_c, 0, 67, 54
2, 208413, Control_c, 0, 64, 17
2, 208413, Control_c, 0, 67, 54
2, 208470, Control_c, 0, 64, 18
2, 208500, Note_on_c, 0, 79, 79
2, 208508, Control_c, 0, 64, 19
2, 208526, Note_on_c, 0, 77, 0
2, 208547, Control_c, 0, 64, 20
2, 208605, Control_c, 0, 64, 21
2, 208642, Control_c, 0, 67, 54
2, 208662, Control_c, 0, 64, 22
2, 208666, Note_on_c, 0, 69, 64
2, 208671, Note_on_c, 0, 70, 0
2, 208719, Control_c, 0, 67, 53
2, 208758, Control_c, 0, 67, 53
2, 208777, Control_c, 0, 67, 52
2, 208801, Note_on_c, 0, 69, 0
2, 208806, Note_on_c, 0, 67, 66
2, 208816, Control_c, 0, 67, 52
2, 208835, Control_c, 0, 67, 51
2, 208854, Control_c, 0, 67, 50
2, 208873, Control_c, 0, 67, 49
2, 208893, Control_c, 0, 67, 48
2, 208911, Control_c, 0, 67, 47
2, 208931, Control_c, 0, 67, 46
2, 208950, Control_c, 0, 67, 45
2, 208963, Note_on_c, 0, 69, 69
2, 208970, Control_c, 0, 67, 40
2, 208978, Note_on_c, 0, 67, 0
2, 208988, Control_c, 0, 67, 34
2, 209008, Control_c, 0, 67, 30
2, 209027, Control_c, 0, 67, 26
2, 209046, Control_c, 0, 67, 22
2, 209065, Control_c, 0, 67, 16
2, 209085, Control_c, 0, 67, 10
2, 209098, Note_on_c, 0, 69, 0
2, 209104, Control_c, 0, 67, 0
2, 209104, Note_on_c, 0, 71, 79
2, 209111, Note_on_c, 0, 77, 80
2, 209163, Note_on_c, 0, 79, 0
2, 209199, Note_on_c, 0, 71, 0
2, 209219, Note_on_c, 0, 77, 0
2, 209243, Note_on_c, 0, 73, 76
2, 209267, Note_on_c, 0, 76, 84
2, 209344, Note_on_c, 0, 76, 0
2, 209373, Note_on_c, 0, 73, 0
2, 209412, Note_on_c, 0, 77, 83
2, 209413, Note_on_c, 0, 74, 71
2, 209557, Note_on_c, 0, 79, 86
2, 209573, Note_on_c, 0, 77, 0
2, 209623, Note_on_c, 0, 79, 0
2, 209707, Note_on_c, 0, 81, 90
2, 209774, Note_on_c, 0, 81, 0
2, 209868, Note_on_c, 0, 82, 90
2, 210021, Note_on_c, 0, 74, 0
2, 210027, Note_on_c, 0, 72, 75
2, 210045, Control_c, 0, 64, 23
2, 210102, Note_on_c, 0, 72, 0
2, 210182, Note_on_c, 0, 70, 86
2, 210227, Note_on_c, 0, 70, 0
2, 210329, Note_on_c, 0, 72, 94
2, 210329, Note_on_c, 0, 82, 0
2, 210425, Note_on_c, 0, 72, 0
2, 210464, Note_on_c, 0, 81, 82
2, 210468, Note_on_c, 0, 74, 70
2, 210519, Note_on_c, 0, 74, 0
2, 210540, Note_on_c, 0, 81, 0
2, 210608, Note_on_c, 0, 79, 76
2, 210615, Note_on_c, 0, 76, 66
2, 210650, Note_on_c, 0, 76, 0
2, 210659, Note_on_c, 0, 79, 0
2, 210771, Note_on_c, 0, 53, 87
2, 210776, Note_on_c, 0, 81, 83
2, 210778, Note_on_c, 0, 77, 74
2, 210902, Note_on_c, 0, 81, 0
2, 210914, Note_on_c, 0, 53, 0
2, 210916, Note_on_c, 0, 52, 73
2, 210916, Note_on_c, 0, 82, 72
2, 210976, Note_on_c, 0, 52, 0
2, 210989, Note_on_c, 0, 82, 0
2, 211055, Note_on_c, 0, 81, 74
2, 211065, Note_on_c, 0, 53, 80
2, 211093, Note_on_c, 0, 81, 0
2, 211104, Note_on_c, 0, 53, 0
2, 211195, Control_c, 0, 64, 22
2, 211220, Note_on_c, 0, 60, 82
2, 211248, Note_on_c, 0, 79, 63
2, 211249, Note_on_c, 0, 81, 59
2, 211265, Note_on_c, 0, 77, 0
2, 211272, Control_c, 0, 64, 21
2, 211305, Note_on_c, 0, 81, 0
2, 211344, Note_on_c, 0, 60, 0
2, 211369, Control_c, 0, 67, 17
2, 211384, Note_on_c, 0, 76, 67
2, 211387, Control_c, 0, 67, 29
2, 211407, Control_c, 0, 67, 43
2, 211418, Note_on_c, 0, 79, 0
2, 211426, Control_c, 0, 67, 60
2, 211445, Control_c, 0, 67, 75
2, 211455, Note_on_c, 0, 76, 0
2, 211464, Control_c, 0, 67, 89
2, 211483, Control_c, 0, 67, 101
2, 211503, Control_c, 0, 67, 108
2, 211516, Note_on_c, 0, 74, 67
2, 211521, Control_c, 0, 67, 108
2, 211541, Control_c, 0, 67, 107
2, 211560, Control_c, 0, 67, 104
2, 211580, Control_c, 0, 67, 103
2, 211598, Control_c, 0, 67, 102
2, 211609, Note_on_c, 0, 74, 0
2, 211618, Control_c, 0, 67, 101
2, 211637, Control_c, 0, 67, 100
2, 211655, Note_on_c, 0, 72, 79
2, 211656, Control_c, 0, 67, 99
2, 211658, Note_on_c, 0, 57, 84
2, 211675, Control_c, 0, 67, 98
2, 211695, Control_c, 0, 67, 97
2, 211714, Control_c, 0, 67, 96
2, 211733, Control_c, 0, 67, 96
2, 211752, Control_c, 0, 67, 95
2, 211768, Note_on_c, 0, 57, 0
2, 211772, Control_c, 0, 67, 94
2, 211790, Control_c, 0, 67, 93
2, 211809, Note_on_c, 0, 55, 74
2, 211810, Control_c, 0, 67, 92
2, 211810, Note_on_c, 0, 84, 65
2, 211829, Control_c, 0, 64, 20
2, 211829, Control_c, 0, 67, 90
2, 211846, Note_on_c, 0, 84, 0
2, 211849, Control_c, 0, 67, 87
2, 211867, Control_c, 0, 67, 85
2, 211872, Note_on_c, 0, 55, 0
2, 211887, Control_c, 0, 67, 83
2, 211906, Control_c, 0, 67, 81
2, 211924, Control_c, 0, 67, 78
2, 211944, Control_c, 0, 67, 76
2, 211963, Control_c, 0, 67, 73
2, 211964, Note_on_c, 0, 57, 82
2, 211983, Control_c, 0, 67, 71
2, 211993, Note_on_c, 0, 76, 40
2, 212001, Control_c, 0, 67, 68
2, 212012, Note_on_c, 0, 57, 0
2, 212021, Control_c, 0, 67, 66
2, 212030, Note_on_c, 0, 76, 0
2, 212036, Note_on_c, 0, 72, 0
2, 212040, Control_c, 0, 67, 65
2, 212118, Note_on_c, 0, 77, 59
2, 212121, Note_on_c, 0, 62, 85
2, 212155, Control_c, 0, 67, 65
2, 212232, Control_c, 0, 67, 66
2, 212252, Control_c, 0, 67, 66
2, 212259, Note_on_c, 0, 62, 0
2, 212265, Note_on_c, 0, 69, 68
2, 212279, Note_on_c, 0, 77, 0
2, 212290, Control_c, 0, 67, 67
2, 212402, Note_on_c, 0, 70, 72
2, 212443, Control_c, 0, 67, 67
2, 212462, Note_on_c, 0, 69, 0
2, 212553, Note_on_c, 0, 60, 83
2, 212558, Control_c, 0, 67, 68
2, 212575, Note_on_c, 0, 76, 57
2, 212686, Note_on_c, 0, 70, 0
2, 212697, Note_on_c, 0, 60, 0
2, 212703, Note_on_c, 0, 62, 79
2, 212732, Control_c, 0, 67, 67
2, 212735, Note_on_c, 0, 77, 71
2, 212756, Note_on_c, 0, 76, 0
2, 212767, Note_on_c, 0, 62, 0
2, 212774, Note_on_c, 0, 77, 0
2, 212827, Control_c, 0, 67, 67
2, 212849, Note_on_c, 0, 64, 87
2, 212867, Note_on_c, 0, 79, 74
2, 212900, Note_on_c, 0, 79, 0
2, 212905, Note_on_c, 0, 64, 0
2, 212961, Control_c, 0, 67, 67
2, 213004, Note_on_c, 0, 65, 79
2, 213020, Note_on_c, 0, 69, 74
2, 213021, Note_on_c, 0, 72, 75
2, 213038, Control_c, 0, 67, 68
2, 213096, Control_c, 0, 67, 68
2, 213135, Control_c, 0, 67, 68
2, 213157, Note_on_c, 0, 64, 79
2, 213161, Note_on_c, 0, 65, 0
2, 213173, Note_on_c, 0, 72, 0
2, 213185, Note_on_c, 0, 69, 0
2, 213221, Note_on_c, 0, 64, 0
2, 213250, Control_c, 0, 67, 67
2, 213305, Note_on_c, 0, 77, 76
2, 213307, Note_on_c, 0, 62, 78
2, 213309, Note_on_c, 0, 70, 76
2, 213350, Note_on_c, 0, 70, 0
2, 213350, Note_on_c, 0, 77, 0
2, 213354, Note_on_c, 0, 62, 0
2, 213364, Control_c, 0, 67, 67
2, 213455, Note_on_c, 0, 77, 84
2, 213461, Note_on_c, 0, 60, 72
2, 213463, Note_on_c, 0, 69, 73
2, 213538, Control_c, 0, 67, 67
2, 213581, Note_on_c, 0, 60, 0
2, 213608, Note_on_c, 0, 62, 69
2, 213612, Note_on_c, 0, 69, 0
2, 213612, Note_on_c, 0, 77, 0
2, 213652, Note_on_c, 0, 62, 0
2, 213710, Control_c, 0, 67, 67
2, 213754, Note_on_c, 0, 67, 73
2, 213758, Note_on_c, 0, 76, 63
2, 213768, Note_on_c, 0, 58, 73
2, 213794, Note_on_c, 0, 74, 35
2, 213798, Note_on_c, 0, 67, 0
2, 213814, Note_on_c, 0, 58, 0
2, 213821, Note_on_c, 0, 76, 0
2, 213834, Note_on_c, 0, 74, 0
2, 213916, Note_on_c, 0, 57, 75
2, 213920, Note_on_c, 0, 77, 75
2, 213921, Note_on_c, 0, 72, 76
2, 213953, Note_on_c, 0, 74, 32
2, 213999, Note_on_c, 0, 74, 0
2, 214030, Note_on_c, 0, 57, 0
2, 214058, Note_on_c, 0, 70, 78
2, 214068, Note_on_c, 0, 55, 67
2, 214068, Note_on_c, 0, 72, 0
2, 214112, Note_on_c, 0, 70, 0
2, 214152, Control_c, 0, 67, 67
2, 214179, Note_on_c, 0, 77, 0
2, 214184, Note_on_c, 0, 55, 0
2, 214190, Control_c, 0, 67, 68
2, 214192, Note_on_c, 0, 69, 81
2, 214195, Note_on_c, 0, 53, 58
2, 214210, Control_c, 0, 67, 68
2, 214235, Note_on_c, 0, 53, 0
2, 214267, Control_c, 0, 67, 69
2, 214268, Note_on_c, 0, 69, 0
2, 214287, Control_c, 0, 67, 70
2, 214306, Control_c, 0, 67, 70
2, 214356, Note_on_c, 0, 67, 75
2, 214383, Control_c, 0, 67, 71
2, 214416, Note_on_c, 0, 57, 27
2, 214440, Control_c, 0, 67, 71
2, 214446, Note_on_c, 0, 58, 47
2, 214463, Note_on_c, 0, 57, 0
2, 214506, Note_on_c, 0, 67, 0
2, 214506, Note_on_c, 0, 69, 80
2, 214536, Control_c, 0, 64, 21
2, 214575, Note_on_c, 0, 69, 0
2, 214595, Control_c, 0, 67, 72
2, 214646, Note_on_c, 0, 65, 71
2, 214684, Note_on_c, 0, 65, 0
2, 214691, Control_c, 0, 67, 71
2, 214730, Control_c, 0, 67, 71
2, 214768, Control_c, 0, 67, 70
2, 214785, Note_on_c, 0, 79, 89
2, 214806, Control_c, 0, 67, 70
2, 214809, Note_on_c, 0, 64, 63
2, 214844, Control_c, 0, 67, 69
2, 214863, Control_c, 0, 67, 69
2, 214892, Note_on_c, 0, 79, 0
2, 214901, Control_c, 0, 67, 68
2, 214915, Note_on_c, 0, 64, 0
2, 214940, Note_on_c, 0, 77, 82
2, 214954, Note_on_c, 0, 62, 65
2, 215012, Note_on_c, 0, 62, 0
2, 215015, Note_on_c, 0, 77, 0
2, 215029, Note_on_c, 0, 58, 0
2, 215076, Note_on_c, 0, 60, 70
2, 215110, Note_on_c, 0, 76, 59
2, 215123, Note_on_c, 0, 60, 0
2, 215132, Control_c, 0, 64, 20
2, 215152, Note_on_c, 0, 76, 0
2, 215209, Control_c, 0, 67, 69
2, 215227, Control_c, 0, 67, 70
2, 215239, Note_on_c, 0, 74, 61
2, 215247, Control_c, 0, 67, 71
2, 215251, Note_on_c, 0, 66, 66
2, 215254, Note_on_c, 0, 57, 64
2, 215266, Control_c, 0, 67, 72
2, 215284, Control_c, 0, 67, 74
2, 215304, Control_c, 0, 67, 76
2, 215323, Control_c, 0, 67, 78
2, 215324, Note_on_c, 0, 74, 0
2, 215343, Control_c, 0, 67, 79
2, 215361, Control_c, 0, 67, 81
2, 215381, Control_c, 0, 67, 83
2, 215385, Note_on_c, 0, 75, 78
2, 215389, Note_on_c, 0, 66, 0
2, 215400, Control_c, 0, 67, 84
2, 215414, Note_on_c, 0, 57, 0
2, 215420, Control_c, 0, 67, 85
2, 215438, Control_c, 0, 67, 85
2, 215440, Note_on_c, 0, 75, 0
2, 215477, Control_c, 0, 67, 86
2, 215496, Control_c, 0, 67, 88
2, 215515, Control_c, 0, 67, 92
2, 215533, Note_on_c, 0, 72, 75
2, 215537, Control_c, 0, 67, 96
2, 215555, Control_c, 0, 67, 100
2, 215575, Control_c, 0, 67, 104
2, 215585, Note_on_c, 0, 72, 0
2, 215594, Control_c, 0, 67, 108
2, 215614, Control_c, 0, 67, 113
2, 215632, Control_c, 0, 67, 118
2, 215652, Control_c, 0, 67, 122
2, 215671, Control_c, 0, 67, 126
2, 215684, Note_on_c, 0, 55, 64
2, 215687, Note_on_c, 0, 70, 80
2, 215690, Control_c, 0, 67, 127
2, 215700, Note_on_c, 0, 67, 59
2, 215748, Note_on_c, 0, 67, 0
2, 215820, Note_on_c, 0, 55, 0
2, 215825, Control_c, 0, 67, 126
2, 215831, Note_on_c, 0, 53, 64
2, 215836, Note_on_c, 0, 69, 75
2, 215843, Control_c, 0, 67, 125
2, 215853, Note_on_c, 0, 70, 0
2, 215863, Control_c, 0, 67, 125
2, 215882, Control_c, 0, 67, 124
2, 215884, Note_on_c, 0, 53, 0
2, 215891, Note_on_c, 0, 69, 0
2, 215920, Control_c, 0, 67, 123
2, 215940, Control_c, 0, 67, 122
2, 215959, Control_c, 0, 67, 122
2, 215975, Note_on_c, 0, 67, 71
2, 215990, Note_on_c, 0, 52, 63
2, 216027, Note_on_c, 0, 67, 0
2, 216032, Note_on_c, 0, 52, 0
2, 216074, Control_c, 0, 64, 19
2, 216074, Control_c, 0, 67, 121
2, 216094, Control_c, 0, 67, 121
2, 216139, Note_on_c, 0, 50, 57
2, 216140, Note_on_c, 0, 69, 68
2, 216145, Note_on_c, 0, 65, 53
2, 216189, Control_c, 0, 67, 120
2, 216238, Note_on_c, 0, 50, 0
2, 216280, Note_on_c, 0, 52, 60
2, 216336, Note_on_c, 0, 52, 0
2, 216346, Note_on_c, 0, 69, 0
2, 216439, Note_on_c, 0, 74, 57
2, 216440, Note_on_c, 0, 48, 52
2, 216491, Note_on_c, 0, 74, 0
2, 216494, Note_on_c, 0, 48, 0
2, 216585, Note_on_c, 0, 67, 61
2, 216595, Note_on_c, 0, 47, 56
2, 216698, Note_on_c, 0, 47, 0
2, 216748, Note_on_c, 0, 45, 51
2, 216821, Note_on_c, 0, 45, 0
2, 216827, Note_on_c, 0, 67, 0
2, 216882, Note_on_c, 0, 43, 53
2, 216892, Note_on_c, 0, 65, 0
2, 216892, Note_on_c, 0, 74, 62
2, 216924, Note_on_c, 0, 43, 0
2, 216947, Note_on_c, 0, 74, 0
2, 217041, Note_on_c, 0, 48, 79
2, 217041, Note_on_c, 0, 67, 69
2, 217044, Note_on_c, 0, 64, 64
2, 217050, Control_c, 0, 67, 121
2, 217165, Control_c, 0, 67, 120
2, 217178, Note_on_c, 0, 47, 80
2, 217192, Note_on_c, 0, 48, 0
2, 217203, Control_c, 0, 64, 20
2, 217214, Note_on_c, 0, 67, 0
2, 217222, Control_c, 0, 67, 119
2, 217242, Control_c, 0, 67, 116
2, 217245, Note_on_c, 0, 47, 0
2, 217261, Control_c, 0, 67, 112
2, 217280, Control_c, 0, 67, 107
2, 217299, Control_c, 0, 67, 98
2, 217319, Control_c, 0, 67, 88
2, 217323, Note_on_c, 0, 76, 66
2, 217329, Note_on_c, 0, 48, 84
2, 217337, Control_c, 0, 67, 76
2, 217357, Control_c, 0, 67, 64
2, 217376, Control_c, 0, 67, 55
2, 217382, Note_on_c, 0, 48, 0
2, 217396, Control_c, 0, 67, 47
2, 217414, Control_c, 0, 67, 42
2, 217433, Control_c, 0, 67, 38
2, 217453, Control_c, 0, 67, 37
2, 217472, Control_c, 0, 67, 36
2, 217489, Note_on_c, 0, 69, 73
2, 217491, Note_on_c, 0, 64, 0
2, 217494, Note_on_c, 0, 53, 80
2, 217499, Note_on_c, 0, 76, 0
2, 217587, Control_c, 0, 67, 37
2, 217607, Control_c, 0, 67, 38
2, 217625, Control_c, 0, 67, 38
2, 217631, Note_on_c, 0, 53, 0
2, 217652, Note_on_c, 0, 73, 68
2, 217664, Control_c, 0, 67, 39
2, 217683, Control_c, 0, 67, 40
2, 217702, Control_c, 0, 67, 41
2, 217722, Control_c, 0, 67, 42
2, 217744, Note_on_c, 0, 73, 0
2, 217760, Control_c, 0, 67, 43
2, 217779, Control_c, 0, 67, 43
2, 217805, Note_on_c, 0, 74, 55
2, 217856, Control_c, 0, 67, 44
2, 217880, Note_on_c, 0, 74, 0
2, 217940, Note_on_c, 0, 52, 82
2, 217948, Note_on_c, 0, 67, 65
2, 217976, Note_on_c, 0, 69, 0
2, 218067, Control_c, 0, 67, 44
2, 218089, Note_on_c, 0, 52, 0
2, 218094, Note_on_c, 0, 50, 73
2, 218110, Note_on_c, 0, 71, 66
2, 218148, Note_on_c, 0, 50, 0
2, 218155, Note_on_c, 0, 67, 0
2, 218182, Control_c, 0, 67, 44
2, 218238, Note_on_c, 0, 52, 73
2, 218242, Note_on_c, 0, 72, 72
2, 218260, Note_on_c, 0, 71, 0
2, 218279, Control_c, 0, 67, 43
2, 218284, Note_on_c, 0, 52, 0
2, 218286, Note_on_c, 0, 72, 0
2, 218356, Control_c, 0, 67, 43
2, 218393, Control_c, 0, 67, 42
2, 218402, Note_on_c, 0, 57, 77
2, 218402, Note_on_c, 0, 65, 67
2, 218435, Control_c, 0, 67, 42
2, 218535, Note_on_c, 0, 57, 0
2, 218560, Note_on_c, 0, 76, 68
2, 218653, Note_on_c, 0, 76, 0
2, 218720, Note_on_c, 0, 77, 63
2, 218776, Note_on_c, 0, 77, 0
2, 218852, Note_on_c, 0, 55, 78
2, 218868, Note_on_c, 0, 71, 69
2, 218987, Note_on_c, 0, 71, 0
2, 218998, Note_on_c, 0, 57, 83
2, 219001, Note_on_c, 0, 55, 0
2, 219021, Note_on_c, 0, 72, 58
2, 219062, Note_on_c, 0, 57, 0
2, 219105, Note_on_c, 0, 72, 0
2, 219158, Note_on_c, 0, 59, 95
2, 219173, Note_on_c, 0, 74, 18
2, 219212, Note_on_c, 0, 74, 0
2, 219221, Note_on_c, 0, 59, 0
2, 219299, Control_c, 0, 67, 42
2, 219304, Note_on_c, 0, 60, 86
2, 219320, Note_on_c, 0, 67, 64
2, 219322, Note_on_c, 0, 65, 0
2, 219337, Control_c, 0, 67, 43
2, 219422, Note_on_c, 0, 67, 0
2, 219432, Control_c, 0, 67, 43
2, 219454, Note_on_c, 0, 60, 0
2, 219458, Note_on_c, 0, 59, 78
2, 219462, Note_on_c, 0, 64, 73
2, 219511, Note_on_c, 0, 64, 0
2, 219512, Note_on_c, 0, 59, 0
2, 219606, Note_on_c, 0, 57, 77
2, 219611, Note_on_c, 0, 72, 77
2, 219615, Note_on_c, 0, 65, 64
2, 219654, Note_on_c, 0, 57, 0
2, 219654, Note_on_c, 0, 65, 0
2, 219666, Note_on_c, 0, 72, 0
2, 219756, Note_on_c, 0, 72, 77
2, 219758, Note_on_c, 0, 55, 66
2, 219776, Note_on_c, 0, 64, 59
2, 219885, Note_on_c, 0, 55, 0
2, 219909, Note_on_c, 0, 57, 68
2, 219914, Note_on_c, 0, 64, 0
2, 219945, Note_on_c, 0, 72, 0
2, 219960, Note_on_c, 0, 57, 0
2, 220047, Note_on_c, 0, 71, 78
2, 220060, Note_on_c, 0, 53, 62
2, 220063, Note_on_c, 0, 62, 55
2, 220092, Note_on_c, 0, 62, 0
2, 220105, Note_on_c, 0, 53, 0
2, 220109, Note_on_c, 0, 71, 0
2, 220215, Note_on_c, 0, 52, 57
2, 220215, Note_on_c, 0, 72, 80
2, 220244, Note_on_c, 0, 60, 55
2, 220369, Note_on_c, 0, 52, 0
2, 220375, Note_on_c, 0, 53, 62
2, 220444, Note_on_c, 0, 53, 0
2, 220467, Control_c, 0, 67, 44
2, 220487, Control_c, 0, 67, 44
2, 220529, Note_on_c, 0, 50, 58
2, 220534, Note_on_c, 0, 67, 64
2, 220548, Note_on_c, 0, 72, 0
2, 220571, Note_on_c, 0, 50, 0
2, 220602, Control_c, 0, 67, 45
2, 220624, Note_on_c, 0, 67, 0
2, 220691, Note_on_c, 0, 70, 82
2, 220695, Note_on_c, 0, 48, 57
2, 220793, Control_c, 0, 67, 45
2, 220824, Note_on_c, 0, 48, 0
2, 220832, Control_c, 0, 67, 46
2, 220850, Note_on_c, 0, 50, 59
2, 220870, Control_c, 0, 67, 46
2, 220922, Note_on_c, 0, 50, 0
2, 220928, Control_c, 0, 67, 47
2, 220996, Note_on_c, 0, 67, 71
2, 221012, Note_on_c, 0, 52, 62
2, 221046, Note_on_c, 0, 70, 0
2, 221057, Note_on_c, 0, 52, 0
2, 221175, Note_on_c, 0, 53, 64
2, 221175, Note_on_c, 0, 69, 80
2, 221273, Control_c, 0, 67, 46
2, 221309, Note_on_c, 0, 67, 0
2, 221312, Note_on_c, 0, 60, 0
2, 221331, Control_c, 0, 67, 46
2, 221342, Note_on_c, 0, 55, 58
2, 221343, Note_on_c, 0, 53, 0
2, 221370, Control_c, 0, 67, 45
2, 221392, Note_on_c, 0, 55, 0
2, 221427, Control_c, 0, 67, 45
2, 221468, Control_c, 0, 64, 19
2, 221470, Note_on_c, 0, 60, 63
2, 221498, Note_on_c, 0, 52, 63
2, 221522, Note_on_c, 0, 60, 0
2, 221542, Note_on_c, 0, 52, 0
2, 221641, Control_c, 0, 67, 45
2, 221648, Note_on_c, 0, 65, 71
2, 221656, Note_on_c, 0, 50, 63
2, 221660, Control_c, 0, 64, 18
2, 221660, Control_c, 0, 67, 47
2, 221679, Control_c, 0, 67, 48
2, 221699, Control_c, 0, 67, 49
2, 221718, Control_c, 0, 67, 52
2, 221737, Control_c, 0, 67, 55
2, 221756, Control_c, 0, 67, 63
2, 221776, Control_c, 0, 67, 71
2, 221795, Control_c, 0, 67, 80
2, 221799, Note_on_c, 0, 50, 0
2, 221803, Note_on_c, 0, 52, 65
2, 221814, Control_c, 0, 67, 88
2, 221833, Control_c, 0, 67, 98
2, 221853, Control_c, 0, 67, 108
2, 221866, Note_on_c, 0, 52, 0
2, 221871, Control_c, 0, 67, 112
2, 221891, Control_c, 0, 67, 113
2, 221930, Control_c, 0, 67, 112
2, 221930, Note_on_c, 0, 69, 0
2, 221948, Control_c, 0, 67, 111
2, 221951, Note_on_c, 0, 74, 72
2, 221968, Control_c, 0, 67, 110
2, 221974, Note_on_c, 0, 53, 73
2, 221987, Control_c, 0, 67, 109
2, 222005, Control_c, 0, 67, 109
2, 222017, Note_on_c, 0, 53, 0
2, 222025, Control_c, 0, 67, 108
2, 222034, Note_on_c, 0, 74, 0
2, 222044, Control_c, 0, 67, 107
2, 222082, Control_c, 0, 67, 106
2, 222102, Control_c, 0, 67, 106
2, 222120, Note_on_c, 0, 67, 65
2, 222121, Control_c, 0, 67, 105
2, 222127, Note_on_c, 0, 55, 69
2, 222179, Control_c, 0, 67, 105
2, 222198, Control_c, 0, 67, 104
2, 222217, Control_c, 0, 67, 104
2, 222276, Note_on_c, 0, 57, 69
2, 222281, Note_on_c, 0, 55, 0
2, 222322, Note_on_c, 0, 57, 0
2, 222345, Note_on_c, 0, 65, 0
2, 222370, Control_c, 0, 67, 103
2, 222389, Control_c, 0, 67, 103
2, 222423, Note_on_c, 0, 59, 64
2, 222435, Note_on_c, 0, 53, 66
2, 222446, Control_c, 0, 67, 102
2, 222458, Note_on_c, 0, 59, 0
2, 222472, Note_on_c, 0, 53, 0
2, 222484, Control_c, 0, 64, 17
2, 222576, Note_on_c, 0, 52, 65
2, 222576, Note_on_c, 0, 60, 75
2, 222600, Control_c, 0, 64, 16
2, 222714, Note_on_c, 0, 52, 0
2, 222725, Note_on_c, 0, 53, 64
2, 222743, Note_on_c, 0, 62, 71
2, 222758, Note_on_c, 0, 60, 0
2, 222773, Control_c, 0, 67, 103
2, 222786, Note_on_c, 0, 53, 0
2, 222804, Note_on_c, 0, 62, 0
2, 222862, Note_on_c, 0, 67, 0
2, 222874, Note_on_c, 0, 64, 76
2, 222877, Note_on_c, 0, 55, 63
2, 222889, Control_c, 0, 67, 103
2, 222909, Note_on_c, 0, 64, 0
2, 222913, Note_on_c, 0, 55, 0
2, 222946, Control_c, 0, 67, 104
2, 222984, Control_c, 0, 67, 104
2, 223003, Control_c, 0, 67, 105
2, 223023, Control_c, 0, 67, 106
2, 223028, Note_on_c, 0, 72, 80
2, 223030, Note_on_c, 0, 65, 71
2, 223041, Control_c, 0, 67, 107
2, 223043, Note_on_c, 0, 57, 61
2, 223061, Control_c, 0, 67, 109
2, 223080, Control_c, 0, 67, 110
2, 223100, Control_c, 0, 67, 110
2, 223118, Control_c, 0, 67, 111
2, 223138, Control_c, 0, 67, 113
2, 223157, Control_c, 0, 67, 114
2, 223176, Control_c, 0, 67, 115
2, 223189, Note_on_c, 0, 67, 69
2, 223190, Note_on_c, 0, 55, 64
2, 223190, Note_on_c, 0, 57, 0
2, 223190, Note_on_c, 0, 65, 0
2, 223203, Control_c, 0, 67, 120
2, 223222, Control_c, 0, 67, 127
2, 223250, Note_on_c, 0, 55, 0
2, 223262, Note_on_c, 0, 67, 0
2, 223351, Note_on_c, 0, 69, 70
2, 223358, Note_on_c, 0, 53, 59
2, 223400, Note_on_c, 0, 53, 0
2, 223435, Note_on_c, 0, 72, 0
2, 223443, Note_on_c, 0, 69, 0
2, 223503, Note_on_c, 0, 55, 59
2, 223509, Note_on_c, 0, 62, 63
2, 223579, Note_on_c, 0, 55, 0
2, 223610, Note_on_c, 0, 62, 0
2, 223645, Note_on_c, 0, 72, 66
2, 223745, Note_on_c, 0, 72, 0
2, 223793, Note_on_c, 0, 71, 67
2, 223796, Note_on_c, 0, 43, 54
2, 223830, Note_on_c, 0, 43, 0
2, 223840, Note_on_c, 0, 71, 0
2, 223955, Note_on_c, 0, 72, 69
2, 223969, Note_on_c, 0, 64, 65
2, 223970, Note_on_c, 0, 60, 78
2, 224010, Control_c, 0, 64, 17
2, 224031, Note_on_c, 0, 64, 0
2, 224114, Note_on_c, 0, 60, 0
2, 224115, Note_on_c, 0, 59, 78
2, 224115, Note_on_c, 0, 67, 68
2, 224158, Note_on_c, 0, 59, 0
2, 224162, Note_on_c, 0, 67, 0
2, 224258, Note_on_c, 0, 65, 68
2, 224262, Note_on_c, 0, 57, 72
2, 224306, Note_on_c, 0, 65, 0
2, 224310, Note_on_c, 0, 57, 0
2, 224409, Note_on_c, 0, 64, 68
2, 224411, Note_on_c, 0, 55, 63
2, 224493, Note_on_c, 0, 55, 0
2, 224549, Note_on_c, 0, 57, 59
2, 224556, Note_on_c, 0, 64, 0
2, 224558, Note_on_c, 0, 65, 66
2, 224580, Note_on_c, 0, 72, 0
2, 224605, Note_on_c, 0, 65, 0
2, 224636, Note_on_c, 0, 57, 0
2, 224682, Note_on_c, 0, 53, 66
2, 224699, Note_on_c, 0, 62, 75
2, 224712, Control_c, 0, 64, 18
2, 224732, Note_on_c, 0, 62, 0
2, 224734, Note_on_c, 0, 53, 0
2, 224855, Note_on_c, 0, 79, 93
2, 224857, Note_on_c, 0, 52, 57
2, 224868, Note_on_c, 0, 60, 52
2, 224980, Note_on_c, 0, 52, 0
2, 224991, Note_on_c, 0, 77, 81
2, 224999, Note_on_c, 0, 50, 56
2, 225039, Note_on_c, 0, 79, 0
2, 225072, Note_on_c, 0, 77, 0
2, 225112, Note_on_c, 0, 50, 0
2, 225134, Note_on_c, 0, 48, 46
2, 225156, Note_on_c, 0, 76, 81
2, 225176, Note_on_c, 0, 48, 0
2, 225222, Note_on_c, 0, 76, 0
2, 225303, Note_on_c, 0, 74, 71
2, 225315, Note_on_c, 0, 53, 60
2, 225393, Note_on_c, 0, 74, 0
2, 225441, Control_c, 0, 64, 19
2, 225446, Note_on_c, 0, 60, 0
2, 225456, Note_on_c, 0, 76, 73
2, 225512, Note_on_c, 0, 76, 0
2, 225601, Note_on_c, 0, 72, 75
2, 225615, Control_c, 0, 64, 20
2, 225671, Note_on_c, 0, 72, 0
2, 225748, Note_on_c, 0, 62, 71
2, 225752, Note_on_c, 0, 71, 82
2, 225833, Note_on_c, 0, 71, 0
2, 225896, Note_on_c, 0, 62, 0
2, 225898, Note_on_c, 0, 69, 76
2, 225901, Note_on_c, 0, 60, 66
2, 225954, Note_on_c, 0, 69, 0
2, 225963, Note_on_c, 0, 60, 0
2, 226001, Note_on_c, 0, 53, 0
2, 226044, Note_on_c, 0, 67, 65
2, 226063, Note_on_c, 0, 59, 71
2, 226106, Note_on_c, 0, 67, 0
2, 226115, Note_on_c, 0, 59, 0
2, 226197, Note_on_c, 0, 73, 77
2, 226223, Note_on_c, 0, 57, 65
2, 226235, Note_on_c, 0, 52, 47
2, 226350, Note_on_c, 0, 57, 0
2, 226359, Note_on_c, 0, 58, 71
2, 226413, Note_on_c, 0, 73, 0
2, 226464, Note_on_c, 0, 52, 0
2, 226478, Control_c, 0, 64, 21
2, 226482, Note_on_c, 0, 58, 0
2, 226505, Note_on_c, 0, 55, 69
2, 226552, Note_on_c, 0, 55, 0
2, 226575, Control_c, 0, 64, 22
2, 226668, Note_on_c, 0, 81, 90
2, 226690, Control_c, 0, 64, 23
2, 226695, Note_on_c, 0, 50, 56
2, 226696, Note_on_c, 0, 53, 67
2, 226754, Note_on_c, 0, 50, 0
2, 226813, Note_on_c, 0, 79, 89
2, 226844, Note_on_c, 0, 52, 65
2, 226850, Note_on_c, 0, 53, 0
2, 226856, Note_on_c, 0, 81, 0
2, 226891, Note_on_c, 0, 79, 0
2, 226964, Note_on_c, 0, 77, 84
2, 226969, Note_on_c, 0, 50, 65
2, 226970, Note_on_c, 0, 52, 0
2, 227012, Note_on_c, 0, 50, 0
2, 227039, Note_on_c, 0, 77, 0
2, 227134, Note_on_c, 0, 76, 86
2, 227141, Note_on_c, 0, 55, 63
2, 227145, Note_on_c, 0, 46, 65
2, 227151, Control_c, 0, 64, 24
2, 227271, Note_on_c, 0, 77, 83
2, 227292, Note_on_c, 0, 76, 0
2, 227335, Note_on_c, 0, 77, 0
2, 227366, Note_on_c, 0, 46, 0
2, 227379, Control_c, 0, 64, 25
2, 227419, Note_on_c, 0, 74, 74
2, 227436, Control_c, 0, 64, 26
2, 227465, Note_on_c, 0, 74, 0
2, 227552, Control_c, 0, 64, 26
2, 227559, Note_on_c, 0, 73, 79
2, 227560, Note_on_c, 0, 45, 48
2, 227704, Note_on_c, 0, 71, 73
2, 227717, Note_on_c, 0, 55, 0
2, 227720, Note_on_c, 0, 73, 0
2, 227744, Control_c, 0, 64, 27
2, 227746, Note_on_c, 0, 71, 0
2, 227843, Note_on_c, 0, 69, 68
2, 227896, Note_on_c, 0, 69, 0
2, 228005, Note_on_c, 0, 74, 68
2, 228029, Note_on_c, 0, 53, 64
2, 228159, Note_on_c, 0, 52, 70
2, 228167, Note_on_c, 0, 53, 0
2, 228212, Note_on_c, 0, 52, 0
2, 228297, Note_on_c, 0, 50, 72
2, 228346, Note_on_c, 0, 50, 0
2, 228449, Note_on_c, 0, 52, 71
2, 228529, Note_on_c, 0, 52, 0
2, 228618, Note_on_c, 0, 72, 72
2, 228626, Note_on_c, 0, 54, 62
2, 228661, Note_on_c, 0, 74, 0
2, 228666, Note_on_c, 0, 72, 0
2, 228668, Note_on_c, 0, 54, 0
2, 228724, Control_c, 0, 64, 28
2, 228747, Note_on_c, 0, 56, 67
2, 228763, Note_on_c, 0, 71, 71
2, 228797, Note_on_c, 0, 56, 0
2, 228801, Note_on_c, 0, 71, 0
2, 228854, Note_on_c, 0, 45, 0
2, 228915, Note_on_c, 0, 72, 74
2, 228918, Note_on_c, 0, 57, 50
2, 229013, Control_c, 0, 64, 28
2, 229066, Note_on_c, 0, 46, 60
2, 229121, Note_on_c, 0, 46, 0
2, 229232, Note_on_c, 0, 48, 65
2, 229283, Note_on_c, 0, 48, 0
2, 229377, Control_c, 0, 67, 124
2, 229384, Note_on_c, 0, 50, 69
2, 229396, Control_c, 0, 67, 119
2, 229415, Control_c, 0, 67, 114
2, 229434, Control_c, 0, 67, 109
2, 229454, Control_c, 0, 67, 105
2, 229473, Control_c, 0, 67, 100
2, 229492, Control_c, 0, 67, 96
2, 229511, Control_c, 0, 67, 92
2, 229518, Note_on_c, 0, 50, 0
2, 229531, Control_c, 0, 67, 88
2, 229536, Note_on_c, 0, 52, 70
2, 229543, Note_on_c, 0, 70, 77
2, 229550, Control_c, 0, 67, 84
2, 229558, Note_on_c, 0, 72, 0
2, 229565, Note_on_c, 0, 57, 0
2, 229569, Control_c, 0, 67, 79
2, 229587, Note_on_c, 0, 70, 0
2, 229588, Control_c, 0, 67, 75
2, 229607, Control_c, 0, 67, 72
2, 229618, Note_on_c, 0, 52, 0
2, 229626, Control_c, 0, 67, 69
2, 229645, Control_c, 0, 67, 67
2, 229665, Control_c, 0, 67, 67
2, 229694, Note_on_c, 0, 69, 72
2, 229697, Note_on_c, 0, 54, 71
2, 229745, Note_on_c, 0, 69, 0
2, 229751, Note_on_c, 0, 54, 0
2, 229836, Note_on_c, 0, 55, 69
2, 229855, Note_on_c, 0, 70, 77
2, 229857, Control_c, 0, 67, 67
2, 229895, Control_c, 0, 67, 68
2, 229954, Control_c, 0, 67, 68
2, 229992, Note_on_c, 0, 55, 0
2, 229993, Note_on_c, 0, 57, 76
2, 230052, Note_on_c, 0, 57, 0
2, 230141, Note_on_c, 0, 53, 66
2, 230141, Note_on_c, 0, 58, 74
2, 230180, Note_on_c, 0, 53, 0
2, 230184, Control_c, 0, 67, 69
2, 230184, Note_on_c, 0, 58, 0
2, 230223, Control_c, 0, 67, 69
2, 230301, Note_on_c, 0, 60, 72
2, 230306, Note_on_c, 0, 52, 64
2, 230338, Control_c, 0, 67, 70
2, 230385, Note_on_c, 0, 70, 0
2, 230451, Note_on_c, 0, 72, 73
2, 230472, Control_c, 0, 67, 70
2, 230492, Control_c, 0, 64, 29
2, 230510, Control_c, 0, 67, 71
2, 230515, Note_on_c, 0, 72, 0
2, 230530, Control_c, 0, 67, 71
2, 230549, Control_c, 0, 67, 72
2, 230587, Control_c, 0, 67, 72
2, 230600, Note_on_c, 0, 70, 76
2, 230606, Control_c, 0, 67, 73
2, 230626, Control_c, 0, 67, 73
2, 230654, Note_on_c, 0, 70, 0
2, 230683, Control_c, 0, 67, 74
2, 230690, Note_on_c, 0, 52, 0
2, 230703, Control_c, 0, 67, 75
2, 230721, Control_c, 0, 67, 75
2, 230741, Control_c, 0, 67, 76
2, 230752, Note_on_c, 0, 51, 47
2, 230754, Note_on_c, 0, 69, 70
2, 230760, Control_c, 0, 67, 77
2, 230780, Control_c, 0, 67, 78
2, 230798, Control_c, 0, 67, 79
2, 230818, Control_c, 0, 67, 80
2, 230837, Control_c, 0, 67, 81
2, 230856, Control_c, 0, 67, 83
2, 230875, Control_c, 0, 67, 87
2, 230900, Control_c, 0, 67, 93
2, 230900, Note_on_c, 0, 69, 0
2, 230914, Note_on_c, 0, 70, 67
2, 230918, Control_c, 0, 67, 99
2, 230938, Control_c, 0, 67, 107
2, 230957, Control_c, 0, 67, 113
2, 230960, Note_on_c, 0, 70, 0
2, 230976, Control_c, 0, 67, 119
2, 230995, Control_c, 0, 67, 125
2, 231015, Control_c, 0, 67, 127
2, 231052, Note_on_c, 0, 67, 64
2, 231109, Note_on_c, 0, 67, 0
2, 231154, Note_on_c, 0, 51, 0
2, 231204, Note_on_c, 0, 66, 62
2, 231213, Note_on_c, 0, 50, 47
2, 231362, Note_on_c, 0, 64, 65
2, 231377, Note_on_c, 0, 66, 0
2, 231414, Note_on_c, 0, 64, 0
2, 231510, Note_on_c, 0, 62, 53
2, 231564, Note_on_c, 0, 62, 0
2, 231652, Note_on_c, 0, 60, 0
2, 231665, Note_on_c, 0, 67, 56
2, 231678, Note_on_c, 0, 58, 51
2, 231769, Note_on_c, 0, 58, 0
2, 231833, Note_on_c, 0, 57, 55
2, 231875, Note_on_c, 0, 57, 0
2, 231984, Note_on_c, 0, 55, 59
2, 232081, Note_on_c, 0, 55, 0
2, 232155, Note_on_c, 0, 57, 52
2, 232162, Note_on_c, 0, 50, 0
2, 232277, Control_c, 0, 67, 127
2, 232278, Note_on_c, 0, 65, 62
2, 232298, Note_on_c, 0, 59, 70
2, 232300, Note_on_c, 0, 57, 0
2, 232319, Note_on_c, 0, 67, 0
2, 232332, Note_on_c, 0, 65, 0
2, 232365, Note_on_c, 0, 59, 0
2, 232436, Note_on_c, 0, 64, 70
2, 232439, Note_on_c, 0, 61, 62
2, 232479, Note_on_c, 0, 64, 0
2, 232490, Note_on_c, 0, 61, 0
2, 232592, Note_on_c, 0, 65, 70
2, 232599, Note_on_c, 0, 62, 47
2, 232718, Control_c, 0, 64, 29
2, 232733, Note_on_c, 0, 52, 49
2, 232744, Note_on_c, 0, 67, 73
2, 232765, Note_on_c, 0, 65, 0
2, 232784, Note_on_c, 0, 52, 0
2, 232811, Note_on_c, 0, 67, 0
2, 232893, Note_on_c, 0, 53, 59
2, 232895, Note_on_c, 0, 69, 85
2, 232961, Note_on_c, 0, 69, 0
2, 232986, Note_on_c, 0, 62, 0
2, 232987, Control_c, 0, 64, 30
2, 233007, Note_on_c, 0, 53, 0
2, 233058, Note_on_c, 0, 70, 80
2, 233067, Note_on_c, 0, 55, 48
2, 233103, Control_c, 0, 67, 127
2, 233180, Control_c, 0, 64, 31
2, 233237, Note_on_c, 0, 60, 57
2, 233279, Note_on_c, 0, 60, 0
2, 233371, Note_on_c, 0, 58, 59
2, 233431, Note_on_c, 0, 58, 0
2, 233505, Note_on_c, 0, 55, 0
2, 233527, Note_on_c, 0, 60, 62
2, 233530, Note_on_c, 0, 52, 53
2, 233684, Note_on_c, 0, 69, 71
2, 233725, Note_on_c, 0, 69, 0
2, 233734, Note_on_c, 0, 70, 0
2, 233832, Note_on_c, 0, 67, 62
2, 233892, Note_on_c, 0, 67, 0
2, 233996, Note_on_c, 0, 69, 69
2, 234005, Note_on_c, 0, 60, 0
2, 234017, Note_on_c, 0, 52, 0
2, 234030, Note_on_c, 0, 53, 39
2, 234156, Note_on_c, 0, 62, 54
2, 234214, Note_on_c, 0, 62, 0
2, 234301, Note_on_c, 0, 64, 70
2, 234332, Control_c, 0, 67, 125
2, 234350, Control_c, 0, 67, 124
2, 234358, Note_on_c, 0, 64, 0
2, 234370, Control_c, 0, 67, 123
2, 234389, Control_c, 0, 67, 122
2, 234402, Note_on_c, 0, 69, 0
2, 234408, Control_c, 0, 67, 121
2, 234427, Control_c, 0, 67, 118
2, 234446, Control_c, 0, 67, 113
2, 234456, Note_on_c, 0, 65, 78
2, 234466, Control_c, 0, 67, 108
2, 234485, Control_c, 0, 67, 104
2, 234504, Control_c, 0, 64, 30
2, 234504, Control_c, 0, 67, 101
2, 234523, Control_c, 0, 67, 97
2, 234543, Control_c, 0, 67, 92
2, 234561, Control_c, 0, 67, 87
2, 234581, Control_c, 0, 67, 82
2, 234600, Control_c, 0, 67, 75
2, 234607, Note_on_c, 0, 70, 85
2, 234620, Control_c, 0, 67, 72
2, 234628, Note_on_c, 0, 53, 0
2, 234634, Note_on_c, 0, 55, 64
2, 234638, Control_c, 0, 67, 68
2, 234658, Control_c, 0, 67, 65
2, 234677, Control_c, 0, 67, 61
2, 234684, Note_on_c, 0, 70, 0
2, 234693, Note_on_c, 0, 55, 0
2, 234696, Control_c, 0, 67, 57
2, 234715, Control_c, 0, 67, 53
2, 234736, Control_c, 0, 67, 49
2, 234755, Control_c, 0, 67, 45
2, 234760, Note_on_c, 0, 72, 93
2, 234774, Control_c, 0, 67, 41
2, 234778, Note_on_c, 0, 57, 74
2, 234793, Control_c, 0, 67, 36
2, 234813, Control_c, 0, 67, 30
2, 234815, Note_on_c, 0, 57, 0
2, 234831, Control_c, 0, 67, 24
2, 234832, Note_on_c, 0, 72, 0
2, 234851, Control_c, 0, 67, 16
2, 234870, Control_c, 0, 67, 0
2, 234881, Note_on_c, 0, 65, 0
2, 234920, Note_on_c, 0, 74, 84
2, 234935, Note_on_c, 0, 58, 69
2, 235085, Note_on_c, 0, 64, 71
2, 235138, Note_on_c, 0, 64, 0
2, 235235, Note_on_c, 0, 62, 72
2, 235301, Note_on_c, 0, 62, 0
2, 235365, Note_on_c, 0, 58, 0
2, 235383, Note_on_c, 0, 64, 73
2, 235384, Note_on_c, 0, 55, 61
2, 235536, Note_on_c, 0, 72, 77
2, 235559, Note_on_c, 0, 74, 0
2, 235611, Note_on_c, 0, 72, 0
2, 235683, Note_on_c, 0, 70, 82
2, 235751, Note_on_c, 0, 70, 0
2, 235831, Note_on_c, 0, 64, 0
2, 235861, Note_on_c, 0, 72, 76
2, 235875, Note_on_c, 0, 57, 44
2, 235896, Note_on_c, 0, 55, 0
2, 236014, Note_on_c, 0, 65, 66
2, 236074, Note_on_c, 0, 65, 0
2, 236160, Note_on_c, 0, 67, 72
2, 236251, Note_on_c, 0, 67, 0
2, 236259, Note_on_c, 0, 72, 0
2, 236314, Note_on_c, 0, 69, 86
2, 236468, Note_on_c, 0, 74, 86
2, 236472, Note_on_c, 0, 57, 0
2, 236480, Note_on_c, 0, 58, 72
2, 236545, Note_on_c, 0, 74, 0
2, 236555, Note_on_c, 0, 58, 0
2, 236618, Note_on_c, 0, 76, 89
2, 236627, Note_on_c, 0, 60, 74
2, 236664, Note_on_c, 0, 60, 0
2, 236693, Note_on_c, 0, 76, 0
2, 236779, Note_on_c, 0, 77, 87
2, 236797, Note_on_c, 0, 62, 75
2, 236919, Note_on_c, 0, 69, 0
2, 236945, Note_on_c, 0, 67, 75
2, 236995, Note_on_c, 0, 67, 0
2, 237000, Control_c, 0, 64, 31
2, 237108, Note_on_c, 0, 65, 73
2, 237201, Note_on_c, 0, 65, 0
2, 237232, Note_on_c, 0, 62, 0
2, 237250, Control_c, 0, 67, 11
2, 237257, Note_on_c, 0, 59, 68
2, 237259, Note_on_c, 0, 67, 75
2, 237269, Control_c, 0, 67, 16
2, 237288, Control_c, 0, 67, 21
2, 237307, Control_c, 0, 67, 27
2, 237326, Control_c, 0, 67, 32
2, 237346, Control_c, 0, 67, 36
2, 237365, Control_c, 0, 67, 38
2, 237372, Note_on_c, 0, 77, 0
2, 237384, Control_c, 0, 67, 39
2, 237416, Note_on_c, 0, 76, 85
2, 237423, Control_c, 0, 67, 38
2, 237441, Control_c, 0, 67, 37
2, 237461, Control_c, 0, 67, 36
2, 237480, Control_c, 0, 67, 35
2, 237493, Note_on_c, 0, 76, 0
2, 237500, Control_c, 0, 67, 34
2, 237518, Control_c, 0, 67, 33
2, 237538, Control_c, 0, 67, 32
2, 237557, Control_c, 0, 67, 31
2, 237565, Note_on_c, 0, 74, 86
2, 237576, Control_c, 0, 67, 30
2, 237595, Control_c, 0, 67, 30
2, 237615, Control_c, 0, 67, 29
2, 237634, Control_c, 0, 67, 28
2, 237638, Note_on_c, 0, 74, 0
2, 237653, Control_c, 0, 67, 28
2, 237664, Note_on_c, 0, 67, 0
2, 237672, Control_c, 0, 67, 27
2, 237692, Control_c, 0, 67, 27
2, 237710, Control_c, 0, 67, 26
2, 237717, Note_on_c, 0, 60, 48
2, 237721, Note_on_c, 0, 59, 0
2, 237726, Note_on_c, 0, 76, 83
2, 237749, Control_c, 0, 67, 25
2, 237768, Control_c, 0, 67, 24
2, 237787, Control_c, 0, 67, 21
2, 237806, Control_c, 0, 67, 19
2, 237826, Control_c, 0, 67, 16
2, 237845, Control_c, 0, 67, 12
2, 237864, Control_c, 0, 67, 0
2, 237878, Note_on_c, 0, 69, 66
2, 237937, Note_on_c, 0, 69, 0
2, 238025, Note_on_c, 0, 71, 83
2, 238102, Note_on_c, 0, 71, 0
2, 238112, Note_on_c, 0, 76, 0
2, 238185, Note_on_c, 0, 72, 85
2, 238335, Note_on_c, 0, 60, 0
2, 238335, Note_on_c, 0, 77, 87
2, 238337, Note_on_c, 0, 62, 69
2, 238356, Note_on_c, 0, 72, 0
2, 238381, Note_on_c, 0, 62, 0
2, 238403, Note_on_c, 0, 77, 0
2, 238420, Control_c, 0, 64, 31
2, 238483, Note_on_c, 0, 64, 71
2, 238485, Note_on_c, 0, 79, 94
2, 238531, Note_on_c, 0, 64, 0
2, 238561, Note_on_c, 0, 79, 0
2, 238646, Note_on_c, 0, 65, 69
2, 238647, Note_on_c, 0, 81, 90
2, 238651, Control_c, 0, 67, 11
2, 238670, Control_c, 0, 67, 17
2, 238688, Control_c, 0, 67, 23
2, 238708, Control_c, 0, 67, 28
2, 238727, Control_c, 0, 67, 31
2, 238746, Control_c, 0, 67, 35
2, 238765, Control_c, 0, 67, 37
2, 238785, Control_c, 0, 67, 40
2, 238796, Note_on_c, 0, 79, 84
2, 238804, Control_c, 0, 67, 44
2, 238805, Note_on_c, 0, 64, 67
2, 238808, Note_on_c, 0, 65, 0
2, 238823, Control_c, 0, 67, 47
2, 238837, Note_on_c, 0, 81, 0
2, 238842, Control_c, 0, 64, 32
2, 238842, Control_c, 0, 67, 48
2, 238860, Note_on_c, 0, 64, 0
2, 238862, Control_c, 0, 67, 49
2, 238880, Control_c, 0, 67, 50
2, 238885, Note_on_c, 0, 79, 0
2, 238919, Control_c, 0, 67, 49
2, 238939, Control_c, 0, 67, 48
2, 238955, Note_on_c, 0, 77, 88
2, 238957, Control_c, 0, 67, 47
2, 238958, Note_on_c, 0, 62, 72
2, 238977, Control_c, 0, 67, 47
2, 238996, Control_c, 0, 67, 46
2, 239002, Note_on_c, 0, 62, 0
2, 239015, Control_c, 0, 67, 45
2, 239028, Note_on_c, 0, 77, 0
2, 239034, Control_c, 0, 67, 45
2, 239073, Control_c, 0, 67, 44
2, 239092, Control_c, 0, 67, 44
2, 239110, Note_on_c, 0, 76, 82
2, 239111, Control_c, 0, 67, 43
2, 239112, Note_on_c, 0, 60, 71
2, 239150, Control_c, 0, 67, 43
2, 239168, Control_c, 0, 67, 42
2, 239188, Control_c, 0, 67, 42
2, 239193, Note_on_c, 0, 76, 0
2, 239212, Note_on_c, 0, 60, 0
2, 239245, Control_c, 0, 67, 41
2, 239252, Note_on_c, 0, 62, 66
2, 239260, Note_on_c, 0, 77, 85
2, 239265, Control_c, 0, 67, 40
2, 239284, Control_c, 0, 67, 40
2, 239291, Note_on_c, 0, 62, 0
2, 239335, Note_on_c, 0, 76, 80
2, 239360, Control_c, 0, 67, 39
2, 239382, Note_on_c, 0, 77, 0
2, 239398, Note_on_c, 0, 74, 78
2, 239411, Note_on_c, 0, 58, 67
2, 239434, Note_on_c, 0, 76, 0
2, 239456, Note_on_c, 0, 58, 0
2, 239474, Note_on_c, 0, 72, 80
2, 239483, Note_on_c, 0, 74, 0
2, 239558, Note_on_c, 0, 77, 83
2, 239564, Note_on_c, 0, 57, 72
2, 239583, Note_on_c, 0, 72, 0
2, 239698, Note_on_c, 0, 55, 70
2, 239698, Note_on_c, 0, 57, 0
2, 239786, Note_on_c, 0, 55, 0
2, 239822, Control_c, 0, 67, 40
2, 239846, Note_on_c, 0, 74, 74
2, 239848, Note_on_c, 0, 53, 66
2, 239889, Note_on_c, 0, 53, 0
2, 239900, Note_on_c, 0, 74, 0
2, 239917, Control_c, 0, 67, 40
2, 239956, Control_c, 0, 67, 41
2, 239993, Note_on_c, 0, 55, 75
2, 239994, Control_c, 0, 67, 41
2, 240006, Note_on_c, 0, 71, 74
2, 240014, Control_c, 0, 67, 42
2, 240052, Control_c, 0, 67, 42
2, 240071, Control_c, 0, 67, 43
2, 240091, Control_c, 0, 67, 44
2, 240110, Control_c, 0, 67, 45
2, 240121, Note_on_c, 0, 55, 0
2, 240128, Control_c, 0, 67, 46
2, 240145, Note_on_c, 0, 57, 75
2, 240148, Control_c, 0, 67, 47
2, 240167, Control_c, 0, 67, 48
2, 240186, Control_c, 0, 67, 50
2, 240205, Control_c, 0, 67, 52
2, 240209, Note_on_c, 0, 57, 0
2, 240225, Control_c, 0, 67, 56
2, 240244, Control_c, 0, 67, 65
2, 240251, Note_on_c, 0, 71, 0
2, 240263, Control_c, 0, 67, 77
2, 240282, Control_c, 0, 67, 93
2, 240291, Note_on_c, 0, 67, 69
2, 240302, Control_c, 0, 67, 109
2, 240310, Note_on_c, 0, 59, 72
2, 240320, Control_c, 0, 67, 125
2, 240340, Control_c, 0, 67, 127
2, 240344, Note_on_c, 0, 77, 0
2, 240347, Note_on_c, 0, 59, 0
2, 240461, Note_on_c, 0, 75, 73
2, 240463, Note_on_c, 0, 60, 61
2, 240548, Note_on_c, 0, 75, 0
2, 240612, Note_on_c, 0, 60, 0
2, 240615, Note_on_c, 0, 59, 61
2, 240619, Note_on_c, 0, 79, 74
2, 240621, Note_on_c, 0, 67, 0
2, 240666, Note_on_c, 0, 59, 0
2, 240692, Note_on_c, 0, 79, 0
2, 240759, Note_on_c, 0, 78, 73
2, 240774, Note_on_c, 0, 57, 67
2, 240780, Note_on_c, 0, 72, 63
2, 240812, Note_on_c, 0, 57, 0
2, 240818, Note_on_c, 0, 78, 0
2, 240819, Note_on_c, 0, 72, 0
2, 240910, Note_on_c, 0, 79, 72
2, 240914, Note_on_c, 0, 55, 57
2, 240918, Note_on_c, 0, 71, 70
2, 241003, Note_on_c, 0, 71, 0
2, 241044, Note_on_c, 0, 55, 0
2, 241068, Note_on_c, 0, 56, 66
2, 241079, Note_on_c, 0, 72, 68
2, 241113, Note_on_c, 0, 56, 0
2, 241127, Note_on_c, 0, 72, 0
2, 241223, Control_c, 0, 64, 32
2, 241223, Note_on_c, 0, 74, 67
2, 241229, Note_on_c, 0, 53, 65
2, 241269, Note_on_c, 0, 74, 0
2, 241272, Note_on_c, 0, 53, 0
2, 241385, Note_on_c, 0, 72, 70
2, 241401, Note_on_c, 0, 51, 34
2, 241464, Note_on_c, 0, 51, 0
2, 241532, Note_on_c, 0, 50, 48
2, 241541, Note_on_c, 0, 74, 67
2, 241549, Note_on_c, 0, 72, 0
2, 241580, Note_on_c, 0, 50, 0
2, 241589, Note_on_c, 0, 74, 0
2, 241629, Note_on_c, 0, 79, 0
2, 241681, Note_on_c, 0, 48, 54
2, 241718, Note_on_c, 0, 76, 48
2, 241722, Note_on_c, 0, 48, 0
2, 241751, Note_on_c, 0, 76, 0
2, 241832, Note_on_c, 0, 50, 59
2, 241841, Note_on_c, 0, 78, 80
2, 241869, Note_on_c, 0, 69, 52
2, 241935, Note_on_c, 0, 78, 0
2, 241952, Note_on_c, 0, 50, 0
2, 241989, Note_on_c, 0, 52, 67
2, 241995, Note_on_c, 0, 79, 75
2, 242018, Note_on_c, 0, 78, 28
2, 242040, Note_on_c, 0, 52, 0
2, 242062, Note_on_c, 0, 78, 0
2, 242070, Note_on_c, 0, 79, 0
2, 242124, Note_on_c, 0, 81, 73
2, 242143, Note_on_c, 0, 54, 69
2, 242160, Note_on_c, 0, 81, 0
2, 242179, Note_on_c, 0, 54, 0
2, 242301, Note_on_c, 0, 55, 60
2, 242312, Note_on_c, 0, 70, 68
2, 242388, Note_on_c, 0, 69, 0
2, 242448, Note_on_c, 0, 55, 0
2, 242449, Note_on_c, 0, 53, 65
2, 242455, Note_on_c, 0, 74, 73
2, 242479, Note_on_c, 0, 70, 0
2, 242489, Note_on_c, 0, 53, 0
2, 242508, Note_on_c, 0, 74, 0
2, 242606, Note_on_c, 0, 51, 57
2, 242614, Note_on_c, 0, 72, 73
2, 242620, Note_on_c, 0, 67, 55
2, 242656, Note_on_c, 0, 51, 0
2, 242656, Note_on_c, 0, 67, 0
2, 242664, Note_on_c, 0, 72, 0
2, 242754, Note_on_c, 0, 50, 55
2, 242757, Note_on_c, 0, 67, 63
2, 242802, Note_on_c, 0, 70, 34
2, 242842, Note_on_c, 0, 70, 0
2, 242915, Note_on_c, 0, 50, 0
2, 242939, Note_on_c, 0, 51, 51
2, 242963, Note_on_c, 0, 70, 33
2, 242972, Note_on_c, 0, 67, 0
2, 242980, Note_on_c, 0, 69, 59
2, 242987, Note_on_c, 0, 51, 0
2, 243005, Note_on_c, 0, 69, 0
2, 243006, Note_on_c, 0, 66, 29
2, 243009, Note_on_c, 0, 70, 0
2, 243062, Note_on_c, 0, 66, 0
2, 243089, Note_on_c, 0, 69, 72
2, 243099, Note_on_c, 0, 48, 54
2, 243116, Note_on_c, 0, 66, 49
2, 243132, Note_on_c, 0, 67, 39
2, 243155, Note_on_c, 0, 66, 0
2, 243156, Note_on_c, 0, 48, 0
2, 243157, Note_on_c, 0, 67, 0
2, 243160, Note_on_c, 0, 69, 0
2, 243240, Note_on_c, 0, 66, 77
2, 243243, Note_on_c, 0, 46, 65
2, 243305, Note_on_c, 0, 46, 0
2, 243342, Note_on_c, 0, 66, 0
2, 243367, Note_on_c, 0, 67, 47
2, 243395, Note_on_c, 0, 45, 57
2, 243453, Note_on_c, 0, 45, 0
2, 243568, Note_on_c, 0, 43, 50
2, 243569, Note_on_c, 0, 75, 85
2, 243619, Note_on_c, 0, 43, 0
2, 243690, Note_on_c, 0, 45, 55
2, 243701, Note_on_c, 0, 73, 80
2, 243758, Note_on_c, 0, 75, 0
2, 243778, Note_on_c, 0, 45, 0
2, 243835, Note_on_c, 0, 47, 65
2, 243888, Note_on_c, 0, 47, 0
2, 243977, Note_on_c, 0, 69, 75
2, 243986, Note_on_c, 0, 49, 65
2, 243989, Note_on_c, 0, 67, 0
2, 244037, Note_on_c, 0, 49, 0
2, 244039, Note_on_c, 0, 73, 0
2, 244056, Note_on_c, 0, 69, 0
2, 244123, Note_on_c, 0, 65, 70
2, 244134, Note_on_c, 0, 50, 60
2, 244253, Note_on_c, 0, 50, 0
2, 244281, Note_on_c, 0, 48, 56
2, 244295, Note_on_c, 0, 69, 65
2, 244310, Note_on_c, 0, 65, 0
2, 244334, Note_on_c, 0, 48, 0
2, 244340, Note_on_c, 0, 69, 0
2, 244444, Note_on_c, 0, 46, 59
2, 244447, Note_on_c, 0, 67, 67
2, 244486, Note_on_c, 0, 46, 0
2, 244495, Note_on_c, 0, 67, 0
2, 244514, Note_on_c, 0, 73, 7
2, 244575, Note_on_c, 0, 73, 0
2, 244575, Note_on_c, 0, 73, 41
2, 244582, Note_on_c, 0, 45, 51
2, 244590, Note_on_c, 0, 69, 74
2, 244672, Note_on_c, 0, 45, 0
2, 244700, Note_on_c, 0, 46, 51
2, 244706, Note_on_c, 0, 73, 0
2, 244734, Note_on_c, 0, 74, 63
2, 244763, Note_on_c, 0, 46, 0
2, 244797, Note_on_c, 0, 74, 0
2, 244890, Note_on_c, 0, 76, 72
2, 244929, Note_on_c, 0, 76, 0
2, 245042, Note_on_c, 0, 41, 52
2, 245044, Note_on_c, 0, 74, 71
2, 245136, Note_on_c, 0, 74, 0
2, 245145, Note_on_c, 0, 41, 0
2, 245190, Note_on_c, 0, 76, 67
2, 245195, Note_on_c, 0, 40, 45
2, 245237, Note_on_c, 0, 76, 0
2, 245267, Note_on_c, 0, 40, 0
2, 245312, Control_c, 0, 67, 126
2, 245328, Note_on_c, 0, 38, 56
2, 245330, Control_c, 0, 67, 118
2, 245350, Control_c, 0, 67, 105
2, 245352, Note_on_c, 0, 77, 63
2, 245361, Note_on_c, 0, 38, 0
2, 245369, Control_c, 0, 67, 87
2, 245389, Control_c, 0, 67, 65
2, 245407, Control_c, 0, 67, 39
2, 245427, Control_c, 0, 67, 10
2, 245428, Note_on_c, 0, 77, 0
2, 245446, Control_c, 0, 67, 0
2, 245480, Note_on_c, 0, 70, 68
2, 245496, Note_on_c, 0, 53, 83
2, 245511, Note_on_c, 0, 50, 65
2, 245564, Note_on_c, 0, 69, 0
2, 245609, Note_on_c, 0, 50, 0
2, 245634, Note_on_c, 0, 52, 78
2, 245639, Note_on_c, 0, 53, 0
2, 245700, Note_on_c, 0, 52, 0
2, 245797, Note_on_c, 0, 53, 82
2, 245850, Note_on_c, 0, 53, 0
2, 245954, Note_on_c, 0, 60, 84
2, 245964, Note_on_c, 0, 52, 67
2, 246100, Note_on_c, 0, 52, 0
2, 246100, Note_on_c, 0, 60, 0
2, 246100, Note_on_c, 0, 70, 0
2, 246107, Note_on_c, 0, 76, 71
2, 246160, Note_on_c, 0, 76, 0
2, 246257, Note_on_c, 0, 79, 74
2, 246320, Note_on_c, 0, 79, 0
2, 246392, Note_on_c, 0, 51, 53
2, 246397, Note_on_c, 0, 72, 73
2, 246403, Note_on_c, 0, 57, 67
2, 246464, Note_on_c, 0, 51, 0
2, 246541, Control_c, 0, 64, 32
2, 246554, Note_on_c, 0, 72, 0
2, 246560, Note_on_c, 0, 55, 75
2, 246564, Note_on_c, 0, 57, 0
2, 246607, Note_on_c, 0, 55, 0
2, 246716, Note_on_c, 0, 57, 78
2, 246753, Control_c, 0, 64, 31
2, 246760, Note_on_c, 0, 57, 0
2, 246864, Note_on_c, 0, 62, 81
2, 246883, Note_on_c, 0, 50, 66
2, 247003, Note_on_c, 0, 50, 0
2, 247003, Note_on_c, 0, 62, 0
2, 247020, Note_on_c, 0, 70, 67
2, 247031, Note_on_c, 0, 52, 55
2, 247040, Control_c, 0, 67, 11
2, 247060, Control_c, 0, 64, 31
2, 247060, Control_c, 0, 67, 18
2, 247079, Control_c, 0, 67, 25
2, 247081, Note_on_c, 0, 52, 0
2, 247084, Note_on_c, 0, 70, 0
2, 247099, Control_c, 0, 67, 31
2, 247117, Control_c, 0, 67, 38
2, 247137, Control_c, 0, 64, 30
2, 247137, Control_c, 0, 67, 45
2, 247156, Control_c, 0, 67, 51
2, 247158, Note_on_c, 0, 69, 79
2, 247174, Note_on_c, 0, 53, 55
2, 247176, Control_c, 0, 67, 55
2, 247192, Note_on_c, 0, 69, 0
2, 247194, Control_c, 0, 67, 58
2, 247206, Note_on_c, 0, 53, 0
2, 247214, Control_c, 0, 64, 29
2, 247214, Control_c, 0, 67, 60
2, 247233, Control_c, 0, 67, 62
2, 247252, Control_c, 0, 67, 66
2, 247271, Control_c, 0, 67, 72
2, 247290, Control_c, 0, 64, 29
2, 247290, Control_c, 0, 67, 78
2, 247310, Control_c, 0, 67, 84
2, 247314, Note_on_c, 0, 52, 60
2, 247326, Note_on_c, 0, 70, 81
2, 247327, Note_on_c, 0, 60, 74
2, 247328, Control_c, 0, 67, 90
2, 247348, Control_c, 0, 67, 94
2, 247367, Control_c, 0, 67, 97
2, 247386, Control_c, 0, 67, 99
2, 247410, Note_on_c, 0, 69, 33
2, 247430, Note_on_c, 0, 70, 0
2, 247444, Control_c, 0, 67, 99
2, 247459, Note_on_c, 0, 52, 0
2, 247463, Control_c, 0, 67, 98
2, 247466, Note_on_c, 0, 62, 78
2, 247473, Note_on_c, 0, 53, 65
2, 247481, Note_on_c, 0, 60, 0
2, 247482, Control_c, 0, 67, 98
2, 247502, Control_c, 0, 67, 97
2, 247520, Control_c, 0, 67, 97
2, 247534, Note_on_c, 0, 69, 0
2, 247536, Note_on_c, 0, 53, 0
2, 247536, Note_on_c, 0, 62, 0
2, 247540, Control_c, 0, 67, 96
2, 247559, Control_c, 0, 67, 96
2, 247597, Control_c, 0, 67, 95
2, 247620, Note_on_c, 0, 64, 81
2, 247621, Note_on_c, 0, 55, 67
2, 247669, Note_on_c, 0, 55, 0
2, 247674, Control_c, 0, 67, 95
2, 247692, Note_on_c, 0, 64, 0
2, 247713, Control_c, 0, 67, 94
2, 247751, Control_c, 0, 67, 94
2, 247770, Control_c, 0, 67, 93
2, 247776, Note_on_c, 0, 65, 85
2, 247788, Note_on_c, 0, 45, 66
2, 247828, Control_c, 0, 67, 93
2, 247847, Control_c, 0, 67, 92
2, 247865, Note_on_c, 0, 65, 0
2, 247866, Control_c, 0, 67, 92
2, 247913, Note_on_c, 0, 45, 0
2, 247921, Note_on_c, 0, 64, 80
2, 247981, Note_on_c, 0, 64, 0
2, 248066, Note_on_c, 0, 46, 59
2, 248077, Note_on_c, 0, 62, 67
2, 248096, Note_on_c, 0, 70, 71
2, 248108, Note_on_c, 0, 46, 0
2, 248116, Control_c, 0, 67, 92
2, 248129, Note_on_c, 0, 62, 0
2, 248136, Control_c, 0, 67, 93
2, 248142, Note_on_c, 0, 70, 0
2, 248229, Note_on_c, 0, 60, 77
2, 248231, Note_on_c, 0, 48, 58
2, 248234, Control_c, 0, 67, 92
2, 248272, Control_c, 0, 67, 92
2, 248290, Note_on_c, 0, 69, 38
2, 248311, Control_c, 0, 67, 91
2, 248330, Control_c, 0, 67, 91
2, 248349, Control_c, 0, 67, 90
2, 248368, Control_c, 0, 67, 90
2, 248369, Note_on_c, 0, 48, 0
2, 248383, Note_on_c, 0, 62, 74
2, 248385, Note_on_c, 0, 60, 0
2, 248427, Note_on_c, 0, 62, 0
2, 248428, Note_on_c, 0, 69, 0
2, 248445, Control_c, 0, 67, 90
2, 248499, Control_c, 0, 67, 91
2, 248518, Control_c, 0, 67, 92
2, 248525, Note_on_c, 0, 49, 63
2, 248538, Control_c, 0, 67, 94
2, 248538, Note_on_c, 0, 67, 68
2, 248539, Note_on_c, 0, 58, 67
2, 248556, Control_c, 0, 67, 96
2, 248575, Note_on_c, 0, 58, 0
2, 248575, Note_on_c, 0, 67, 0
2, 248576, Control_c, 0, 67, 97
2, 248595, Control_c, 0, 67, 99
2, 248602, Note_on_c, 0, 49, 0
2, 248615, Control_c, 0, 67, 100
2, 248633, Control_c, 0, 64, 28
2, 248633, Control_c, 0, 67, 101
2, 248653, Control_c, 0, 67, 103
2, 248672, Control_c, 0, 64, 28
2, 248672, Control_c, 0, 67, 108
2, 248686, Note_on_c, 0, 57, 75
2, 248690, Control_c, 0, 64, 27
2, 248690, Control_c, 0, 67, 117
2, 248695, Note_on_c, 0, 65, 63
2, 248703, Note_on_c, 0, 50, 54
2, 248710, Control_c, 0, 64, 26
2, 248710, Control_c, 0, 67, 127
2, 248729, Control_c, 0, 64, 26
2, 248729, Control_c, 0, 67, 127
2, 248749, Control_c, 0, 64, 25
2, 248787, Control_c, 0, 64, 24
2, 248821, Note_on_c, 0, 57, 0
2, 248825, Control_c, 0, 64, 23
2, 248870, Note_on_c, 0, 55, 53
2, 248907, Note_on_c, 0, 55, 0
2, 248921, Control_c, 0, 64, 22
2, 248985, Note_on_c, 0, 53, 69
2, 249022, Note_on_c, 0, 53, 0
2, 249056, Control_c, 0, 64, 21
2, 249165, Note_on_c, 0, 58, 65
2, 249193, Control_c, 0, 64, 20
2, 249245, Note_on_c, 0, 65, 0
2, 249305, Note_on_c, 0, 50, 0
2, 249314, Note_on_c, 0, 63, 64
2, 249327, Note_on_c, 0, 48, 44
2, 249364, Note_on_c, 0, 63, 0
2, 249421, Note_on_c, 0, 48, 0
2, 249449, Note_on_c, 0, 46, 56
2, 249463, Note_on_c, 0, 62, 63
2, 249485, Note_on_c, 0, 46, 0
2, 249540, Note_on_c, 0, 62, 0
2, 249626, Note_on_c, 0, 60, 58
2, 249632, Note_on_c, 0, 53, 64
2, 249650, Note_on_c, 0, 58, 0
2, 249783, Note_on_c, 0, 57, 61
2, 249830, Note_on_c, 0, 57, 0
2, 249883, Note_on_c, 0, 53, 0
2, 249949, Note_on_c, 0, 55, 50
2, 249997, Note_on_c, 0, 55, 0
2, 250102, Note_on_c, 0, 57, 57
2, 250246, Note_on_c, 0, 62, 63
2, 250286, Note_on_c, 0, 57, 0
2, 250296, Note_on_c, 0, 62, 0
2, 250346, Note_on_c, 0, 60, 0
2, 250385, Note_on_c, 0, 51, 49
2, 250391, Note_on_c, 0, 63, 69
2, 250432, Note_on_c, 0, 51, 0
2, 250461, Note_on_c, 0, 63, 0
2, 250549, Note_on_c, 0, 65, 65
2, 250552, Note_on_c, 0, 50, 65
2, 250611, Control_c, 0, 64, 21
2, 250628, Note_on_c, 0, 50, 0
2, 250711, Note_on_c, 0, 58, 66
2, 250759, Note_on_c, 0, 58, 0
2, 250849, Note_on_c, 0, 48, 64
2, 250857, Note_on_c, 0, 60, 71
2, 250894, Note_on_c, 0, 65, 0
2, 250895, Note_on_c, 0, 48, 0
2, 250909, Note_on_c, 0, 60, 0
2, 250939, Control_c, 0, 67, 125
2, 250957, Control_c, 0, 67, 123
2, 250977, Control_c, 0, 67, 120
2, 250996, Control_c, 0, 67, 117
2, 251007, Note_on_c, 0, 46, 69
2, 251011, Note_on_c, 0, 62, 70
2, 251016, Control_c, 0, 67, 114
2, 251034, Control_c, 0, 67, 111
2, 251054, Control_c, 0, 67, 109
2, 251073, Control_c, 0, 67, 106
2, 251091, Control_c, 0, 67, 102
2, 251095, Note_on_c, 0, 46, 0
2, 251111, Control_c, 0, 67, 97
2, 251130, Control_c, 0, 67, 90
2, 251150, Control_c, 0, 67, 85
2, 251158, Note_on_c, 0, 67, 77
2, 251168, Control_c, 0, 67, 80
2, 251188, Control_c, 0, 67, 73
2, 251207, Control_c, 0, 67, 65
2, 251226, Control_c, 0, 67, 57
2, 251244, Note_on_c, 0, 67, 0
2, 251245, Control_c, 0, 67, 49
2, 251265, Control_c, 0, 67, 40
2, 251284, Control_c, 0, 67, 33
2, 251299, Note_on_c, 0, 45, 71
2, 251303, Control_c, 0, 67, 26
2, 251305, Note_on_c, 0, 69, 77
2, 251322, Control_c, 0, 67, 21
2, 251342, Control_c, 0, 67, 19
2, 251352, Note_on_c, 0, 45, 0
2, 251360, Control_c, 0, 67, 17
2, 251380, Control_c, 0, 67, 16
2, 251384, Note_on_c, 0, 69, 0
2, 251399, Control_c, 0, 67, 15
2, 251463, Note_on_c, 0, 70, 80
2, 251469, Note_on_c, 0, 43, 78
2, 251541, Note_on_c, 0, 62, 0
2, 251581, Note_on_c, 0, 43, 0
2, 251591, Control_c, 0, 64, 22
2, 251608, Note_on_c, 0, 63, 74
2, 251648, Control_c, 0, 67, 15
2, 251664, Note_on_c, 0, 63, 0
2, 251687, Control_c, 0, 67, 16
2, 251748, Note_on_c, 0, 41, 74
2, 251761, Note_on_c, 0, 65, 75
2, 251764, Control_c, 0, 67, 16
2, 251792, Note_on_c, 0, 41, 0
2, 251803, Note_on_c, 0, 65, 0
2, 251840, Note_on_c, 0, 70, 0
2, 251879, Control_c, 0, 64, 23
2, 251907, Note_on_c, 0, 39, 77
2, 251911, Note_on_c, 0, 67, 81
2, 252017, Control_c, 0, 67, 17
2, 252030, Note_on_c, 0, 39, 0
2, 252065, Note_on_c, 0, 72, 87
2, 252094, Control_c, 0, 64, 24
2, 252153, Note_on_c, 0, 72, 0
2, 252189, Control_c, 0, 67, 16
2, 252208, Control_c, 0, 67, 16
2, 252215, Note_on_c, 0, 38, 82
2, 252222, Note_on_c, 0, 74, 83
2, 252228, Control_c, 0, 67, 15
2, 252246, Control_c, 0, 67, 15
2, 252266, Control_c, 0, 67, 14
2, 252270, Note_on_c, 0, 38, 0
2, 252285, Control_c, 0, 67, 13
2, 252295, Note_on_c, 0, 67, 0
2, 252299, Note_on_c, 0, 74, 0
2, 252301, Control_c, 0, 67, 11
2, 252320, Control_c, 0, 67, 0
2, 252358, Control_c, 0, 64, 25
2, 252363, Note_on_c, 0, 75, 85
2, 252377, Note_on_c, 0, 36, 78
2, 252521, Note_on_c, 0, 69, 79
2, 252583, Note_on_c, 0, 69, 0
2, 252686, Note_on_c, 0, 70, 84
2, 252723, Control_c, 0, 64, 26
2, 252774, Note_on_c, 0, 70, 0
2, 252853, Note_on_c, 0, 72, 89
2, 252876, Control_c, 0, 64, 26
2, 252953, Control_c, 0, 64, 27
2, 253010, Note_on_c, 0, 38, 77
2, 253017, Note_on_c, 0, 36, 0
2, 253069, Control_c, 0, 64, 28
2, 253101, Note_on_c, 0, 38, 0
2, 253119, Note_on_c, 0, 72, 0
2, 253169, Note_on_c, 0, 70, 84
2, 253170, Note_on_c, 0, 39, 70
2, 253184, Control_c, 0, 64, 28
2, 253209, Note_on_c, 0, 39, 0
2, 253257, Note_on_c, 0, 70, 0
2, 253261, Control_c, 0, 64, 29
2, 253356, Control_c, 0, 64, 29
2, 253359, Note_on_c, 0, 69, 81
2, 253365, Note_on_c, 0, 41, 76
2, 253472, Control_c, 0, 64, 30
2, 253527, Note_on_c, 0, 74, 73
2, 253566, Note_on_c, 0, 75, 0
2, 253606, Control_c, 0, 64, 31
2, 253610, Note_on_c, 0, 74, 0
2, 253676, Note_on_c, 0, 72, 81
2, 253768, Note_on_c, 0, 69, 0
2, 253783, Note_on_c, 0, 72, 0
2, 253852, Note_on_c, 0, 74, 77
2, 253858, Note_on_c, 0, 70, 78
2, 254009, Note_on_c, 0, 75, 80
2, 254029, Control_c, 0, 64, 31
2, 254049, Note_on_c, 0, 74, 0
2, 254087, Note_on_c, 0, 75, 0
2, 254163, Note_on_c, 0, 74, 75
2, 254270, Note_on_c, 0, 74, 0
2, 254320, Note_on_c, 0, 72, 80
2, 254323, Note_on_c, 0, 70, 0
2, 254472, Note_on_c, 0, 69, 69
2, 254522, Note_on_c, 0, 69, 0
2, 254620, Note_on_c, 0, 67, 73
2, 254675, Note_on_c, 0, 67, 0
2, 254705, Note_on_c, 0, 72, 0
2, 254776, Note_on_c, 0, 69, 85
2, 254929, Note_on_c, 0, 72, 75
2, 255012, Note_on_c, 0, 72, 0
2, 255072, Note_on_c, 0, 77, 72
2, 255131, Note_on_c, 0, 77, 0
2, 255229, Note_on_c, 0, 70, 74
2, 255233, Note_on_c, 0, 69, 0
2, 255389, Note_on_c, 0, 67, 61
2, 255435, Note_on_c, 0, 67, 0
2, 255541, Note_on_c, 0, 65, 70
2, 255589, Note_on_c, 0, 65, 0
2, 255605, Note_on_c, 0, 70, 0
2, 255688, Note_on_c, 0, 67, 75
2, 255863, Note_on_c, 0, 70, 66
2, 255873, Control_c, 0, 67, 9
2, 255891, Control_c, 0, 67, 13
2, 255911, Control_c, 0, 67, 18
2, 255930, Control_c, 0, 67, 26
2, 255950, Control_c, 0, 67, 35
2, 255968, Control_c, 0, 67, 44
2, 255988, Control_c, 0, 67, 58
2, 255991, Note_on_c, 0, 70, 0
2, 255991, Note_on_c, 0, 75, 64
2, 256007, Control_c, 0, 67, 73
2, 256026, Control_c, 0, 67, 91
2, 256045, Control_c, 0, 67, 110
2, 256065, Control_c, 0, 67, 127
2, 256084, Note_on_c, 0, 75, 0
2, 256154, Note_on_c, 0, 69, 74
2, 256180, Note_on_c, 0, 67, 0
2, 256309, Note_on_c, 0, 65, 63
2, 256364, Note_on_c, 0, 65, 0
2, 256470, Note_on_c, 0, 64, 56
2, 256511, Note_on_c, 0, 64, 0
2, 256560, Note_on_c, 0, 69, 0
2, 256618, Note_on_c, 0, 65, 71
2, 256771, Note_on_c, 0, 69, 63
2, 256835, Note_on_c, 0, 69, 0
2, 256918, Note_on_c, 0, 74, 59
2, 256960, Note_on_c, 0, 74, 0
2, 257073, Note_on_c, 0, 67, 65
2, 257090, Note_on_c, 0, 65, 0
2, 257252, Note_on_c, 0, 63, 46
2, 257288, Note_on_c, 0, 63, 0
2, 257376, Note_on_c, 0, 62, 54
2, 257405, Note_on_c, 0, 62, 0
2, 257466, Control_c, 0, 64, 31
2, 257546, Note_on_c, 0, 63, 65
2, 257556, Note_on_c, 0, 67, 0
2, 257710, Note_on_c, 0, 67, 58
2, 257770, Note_on_c, 0, 67, 0
2, 257836, Note_on_c, 0, 72, 53
2, 257865, Note_on_c, 0, 72, 0
2, 257907, Control_c, 0, 64, 30
2, 257954, Note_on_c, 0, 63, 0
2, 257974, Note_on_c, 0, 41, 0
2, 257989, Note_on_c, 0, 65, 62
2, 258150, Note_on_c, 0, 62, 48
2, 258216, Note_on_c, 0, 62, 0
2, 258294, Note_on_c, 0, 60, 48
2, 258336, Note_on_c, 0, 60, 0
2, 258451, Note_on_c, 0, 46, 73
2, 258464, Note_on_c, 0, 62, 57
2, 258546, Note_on_c, 0, 62, 0
2, 258597, Note_on_c, 0, 46, 0
2, 258609, Note_on_c, 0, 45, 68
2, 258666, Note_on_c, 0, 45, 0
2, 258675, Control_c, 0, 67, 118
2, 258695, Control_c, 0, 67, 107
2, 258713, Control_c, 0, 67, 96
2, 258732, Control_c, 0, 67, 88
2, 258749, Note_on_c, 0, 46, 69
2, 258752, Control_c, 0, 67, 80
2, 258756, Note_on_c, 0, 70, 65
2, 258770, Control_c, 0, 67, 71
2, 258790, Control_c, 0, 67, 63
2, 258796, Note_on_c, 0, 46, 0
2, 258809, Control_c, 0, 67, 57
2, 258829, Control_c, 0, 67, 55
2, 258830, Note_on_c, 0, 65, 0
2, 258847, Control_c, 0, 67, 55
2, 258871, Note_on_c, 0, 70, 0
2, 258916, Note_on_c, 0, 53, 74
2, 258919, Note_on_c, 0, 60, 62
2, 259016, Note_on_c, 0, 53, 0
2, 259038, Control_c, 0, 67, 55
2, 259056, Note_on_c, 0, 60, 0
2, 259057, Control_c, 0, 67, 56
2, 259058, Note_on_c, 0, 67, 66
2, 259096, Control_c, 0, 67, 56
2, 259133, Control_c, 0, 67, 57
2, 259191, Control_c, 0, 67, 57
2, 259201, Note_on_c, 0, 69, 72
2, 259239, Note_on_c, 0, 67, 0
2, 259270, Note_on_c, 0, 69, 0
2, 259352, Note_on_c, 0, 65, 57
2, 259370, Note_on_c, 0, 50, 76
2, 259499, Control_c, 0, 67, 57
2, 259508, Note_on_c, 0, 48, 71
2, 259509, Note_on_c, 0, 50, 0
2, 259575, Note_on_c, 0, 48, 0
2, 259595, Control_c, 0, 64, 29
2, 259656, Note_on_c, 0, 50, 78
2, 259658, Note_on_c, 0, 74, 65
2, 259690, Control_c, 0, 64, 29
2, 259690, Control_c, 0, 67, 56
2, 259701, Note_on_c, 0, 50, 0
2, 259714, Note_on_c, 0, 74, 0
2, 259729, Control_c, 0, 67, 56
2, 259812, Note_on_c, 0, 65, 0
2, 259815, Note_on_c, 0, 70, 58
2, 259830, Note_on_c, 0, 55, 74
2, 259874, Note_on_c, 0, 70, 0
2, 259939, Note_on_c, 0, 55, 0
2, 259941, Control_c, 0, 67, 56
2, 259975, Note_on_c, 0, 62, 62
2, 259979, Control_c, 0, 67, 57
2, 259999, Control_c, 0, 67, 57
2, 260035, Note_on_c, 0, 62, 0
2, 260037, Control_c, 0, 67, 58
2, 260057, Control_c, 0, 67, 59
2, 260095, Control_c, 0, 67, 59
2, 260120, Note_on_c, 0, 63, 68
2, 260156, Note_on_c, 0, 63, 0
2, 260210, Control_c, 0, 67, 59
2, 260268, Control_c, 0, 67, 58
2, 260285, Note_on_c, 0, 69, 78
2, 260286, Note_on_c, 0, 53, 66
2, 260306, Control_c, 0, 67, 58
2, 260345, Control_c, 0, 67, 57
2, 260411, Note_on_c, 0, 53, 0
2, 260435, Note_on_c, 0, 70, 82
2, 260439, Note_on_c, 0, 55, 67
2, 260450, Note_on_c, 0, 69, 0
2, 260495, Note_on_c, 0, 55, 0
2, 260498, Control_c, 0, 67, 57
2, 260500, Note_on_c, 0, 70, 0
2, 260537, Control_c, 0, 67, 56
2, 260555, Control_c, 0, 67, 55
2, 260575, Control_c, 0, 67, 55
2, 260585, Note_on_c, 0, 72, 85
2, 260591, Note_on_c, 0, 57, 69
2, 260594, Control_c, 0, 67, 54
2, 260613, Control_c, 0, 67, 53
2, 260632, Control_c, 0, 67, 52
2, 260641, Note_on_c, 0, 57, 0
2, 260648, Note_on_c, 0, 72, 0
2, 260651, Control_c, 0, 67, 49
2, 260671, Control_c, 0, 67, 43
2, 260690, Control_c, 0, 67, 39
2, 260709, Control_c, 0, 67, 35
2, 260728, Control_c, 0, 67, 32
2, 260736, Note_on_c, 0, 74, 76
2, 260739, Note_on_c, 0, 58, 68
2, 260748, Control_c, 0, 67, 30
2, 260766, Control_c, 0, 67, 28
2, 260786, Control_c, 0, 67, 26
2, 260805, Control_c, 0, 67, 24
2, 260825, Control_c, 0, 67, 22
2, 260839, Note_on_c, 0, 74, 0
2, 260843, Control_c, 0, 67, 21
2, 260863, Control_c, 0, 67, 21
2, 260864, Note_on_c, 0, 58, 0
2, 260882, Control_c, 0, 67, 20
2, 260886, Note_on_c, 0, 72, 83
2, 260888, Note_on_c, 0, 57, 66
2, 260901, Control_c, 0, 67, 20
2, 260920, Control_c, 0, 67, 19
2, 260941, Note_on_c, 0, 57, 0
2, 260954, Note_on_c, 0, 72, 0
2, 260997, Control_c, 0, 64, 29
2, 260997, Control_c, 0, 67, 20
2, 261017, Control_c, 0, 67, 20
2, 261035, Control_c, 0, 67, 21
2, 261043, Note_on_c, 0, 75, 82
2, 261052, Note_on_c, 0, 55, 64
2, 261055, Control_c, 0, 67, 21
2, 261092, Note_on_c, 0, 55, 0
2, 261093, Control_c, 0, 67, 22
2, 261119, Note_on_c, 0, 75, 0
2, 261151, Control_c, 0, 67, 22
2, 261194, Note_on_c, 0, 74, 82
2, 261196, Note_on_c, 0, 53, 60
2, 261246, Control_c, 0, 67, 23
2, 261266, Control_c, 0, 67, 23
2, 261317, Note_on_c, 0, 53, 0
2, 261343, Control_c, 0, 67, 24
2, 261355, Note_on_c, 0, 75, 78
2, 261358, Note_on_c, 0, 55, 62
2, 261362, Control_c, 0, 64, 30
2, 261362, Control_c, 0, 67, 25
2, 261397, Note_on_c, 0, 74, 0
2, 261400, Control_c, 0, 67, 25
2, 261401, Note_on_c, 0, 55, 0
2, 261420, Control_c, 0, 67, 26
2, 261428, Note_on_c, 0, 75, 0
2, 261439, Control_c, 0, 67, 27
2, 261458, Control_c, 0, 67, 28
2, 261477, Control_c, 0, 67, 28
2, 261497, Control_c, 0, 67, 30
2, 261515, Control_c, 0, 67, 33
2, 261517, Note_on_c, 0, 72, 77
2, 261521, Note_on_c, 0, 51, 62
2, 261535, Control_c, 0, 67, 36
2, 261554, Control_c, 0, 67, 43
2, 261559, Note_on_c, 0, 51, 0
2, 261573, Control_c, 0, 67, 52
2, 261590, Note_on_c, 0, 72, 0
2, 261592, Control_c, 0, 67, 59
2, 261612, Control_c, 0, 67, 65
2, 261632, Control_c, 0, 67, 71
2, 261650, Control_c, 0, 67, 77
2, 261667, Note_on_c, 0, 70, 74
2, 261670, Control_c, 0, 67, 83
2, 261671, Note_on_c, 0, 50, 65
2, 261689, Control_c, 0, 67, 89
2, 261709, Control_c, 0, 67, 92
2, 261727, Control_c, 0, 67, 95
2, 261747, Control_c, 0, 67, 98
2, 261766, Control_c, 0, 67, 100
2, 261786, Control_c, 0, 67, 102
2, 261797, Note_on_c, 0, 50, 0
2, 261804, Control_c, 0, 67, 104
2, 261824, Control_c, 0, 64, 31
2, 261824, Control_c, 0, 67, 105
2, 261824, Note_on_c, 0, 48, 61
2, 261843, Control_c, 0, 67, 106
2, 261884, Note_on_c, 0, 48, 0
2, 261920, Control_c, 0, 67, 106
2, 261958, Control_c, 0, 67, 105
2, 261981, Note_on_c, 0, 46, 63
2, 261996, Control_c, 0, 67, 105
2, 262020, Note_on_c, 0, 46, 0
2, 262150, Control_c, 0, 67, 104
2, 262151, Note_on_c, 0, 62, 53
2, 262165, Note_on_c, 0, 58, 57
2, 262189, Control_c, 0, 67, 104
2, 262227, Control_c, 0, 67, 103
2, 262246, Control_c, 0, 67, 103
2, 262266, Control_c, 0, 67, 102
2, 262275, Note_on_c, 0, 58, 0
2, 262284, Control_c, 0, 67, 102
2, 262285, Note_on_c, 0, 62, 0
2, 262308, Note_on_c, 0, 63, 56
2, 262312, Note_on_c, 0, 60, 62
2, 262342, Control_c, 0, 67, 101
2, 262361, Control_c, 0, 67, 101
2, 262364, Note_on_c, 0, 63, 0
2, 262381, Control_c, 0, 64, 31
2, 262381, Control_c, 0, 67, 100
2, 262392, Note_on_c, 0, 60, 0
2, 262400, Control_c, 0, 67, 100
2, 262419, Control_c, 0, 67, 99
2, 262448, Note_on_c, 0, 62, 55
2, 262448, Note_on_c, 0, 65, 62
2, 262458, Control_c, 0, 67, 99
2, 262584, Note_on_c, 0, 62, 0
2, 262595, Note_on_c, 0, 65, 0
2, 262606, Note_on_c, 0, 63, 60
2, 262609, Note_on_c, 0, 67, 58
2, 262743, Note_on_c, 0, 63, 0
2, 262762, Note_on_c, 0, 62, 53
2, 262764, Control_c, 0, 67, 98
2, 262768, Note_on_c, 0, 65, 61
2, 262784, Control_c, 0, 67, 98
2, 262799, Note_on_c, 0, 67, 0
2, 262841, Control_c, 0, 67, 97
2, 262899, Control_c, 0, 67, 97
2, 262908, Note_on_c, 0, 62, 0
2, 262919, Note_on_c, 0, 65, 0
2, 262919, Note_on_c, 0, 68, 70
2, 262928, Note_on_c, 0, 60, 53
2, 263007, Note_on_c, 0, 68, 0
2, 263021, Note_on_c, 0, 60, 0
2, 263075, Note_on_c, 0, 67, 59
2, 263084, Note_on_c, 0, 58, 58
2, 263199, Note_on_c, 0, 58, 0
2, 263206, Control_c, 0, 67, 96
2, 263225, Note_on_c, 0, 68, 68
2, 263233, Note_on_c, 0, 60, 56
2, 263243, Note_on_c, 0, 67, 0
2, 263264, Control_c, 0, 67, 96
2, 263283, Control_c, 0, 67, 95
2, 263285, Note_on_c, 0, 68, 0
2, 263299, Note_on_c, 0, 60, 0
2, 263321, Control_c, 0, 67, 95
2, 263360, Control_c, 0, 64, 32
2, 263375, Note_on_c, 0, 56, 52
2, 263381, Note_on_c, 0, 65, 56
2, 263418, Control_c, 0, 67, 95
2, 263468, Note_on_c, 0, 56, 0
2, 263518, Note_on_c, 0, 65, 0
2, 263535, Note_on_c, 0, 55, 64
2, 263546, Note_on_c, 0, 64, 62
2, 263590, Control_c, 0, 67, 96
2, 263600, Note_on_c, 0, 55, 0
2, 263663, Note_on_c, 0, 64, 0
2, 263686, Control_c, 0, 67, 96
2, 263688, Note_on_c, 0, 65, 55
2, 263744, Control_c, 0, 67, 97
2, 263843, Note_on_c, 0, 67, 59
2, 263846, Note_on_c, 0, 53, 48
2, 263857, Control_c, 0, 67, 96
2, 263876, Control_c, 0, 67, 96
2, 263883, Note_on_c, 0, 53, 0
2, 263885, Note_on_c, 0, 65, 0
2, 263915, Control_c, 0, 67, 95
2, 263998, Note_on_c, 0, 52, 60
2, 264002, Note_on_c, 0, 60, 64
2, 264010, Control_c, 0, 67, 94
2, 264010, Note_on_c, 0, 67, 0
2, 264030, Control_c, 0, 67, 93
2, 264068, Control_c, 0, 67, 93
2, 264080, Note_on_c, 0, 52, 0
2, 264107, Control_c, 0, 67, 92
2, 264125, Control_c, 0, 67, 92
2, 264142, Note_on_c, 0, 67, 64
2, 264161, Note_on_c, 0, 60, 0
2, 264164, Control_c, 0, 67, 91
2, 264181, Note_on_c, 0, 70, 0
2, 264184, Control_c, 0, 64, 32
2, 264184, Control_c, 0, 67, 91
2, 264202, Control_c, 0, 67, 90
2, 264221, Note_on_c, 0, 67, 0
2, 264222, Control_c, 0, 67, 88
2, 264241, Control_c, 0, 67, 85
2, 264261, Control_c, 0, 67, 82
2, 264279, Control_c, 0, 67, 80
2, 264293, Note_on_c, 0, 48, 55
2, 264296, Note_on_c, 0, 68, 78
2, 264299, Control_c, 0, 67, 78
2, 264318, Control_c, 0, 67, 76
2, 264337, Control_c, 0, 67, 73
2, 264356, Control_c, 0, 67, 69
2, 264366, Note_on_c, 0, 68, 0
2, 264376, Control_c, 0, 67, 65
2, 264395, Control_c, 0, 67, 63
2, 264413, Control_c, 0, 67, 61
2, 264413, Note_on_c, 0, 48, 0
2, 264433, Control_c, 0, 67, 60
2, 264452, Control_c, 0, 67, 58
2, 264456, Note_on_c, 0, 68, 77
2, 264458, Note_on_c, 0, 53, 65
2, 264471, Control_c, 0, 67, 56
2, 264492, Control_c, 0, 67, 53
2, 264512, Control_c, 0, 67, 49
2, 264530, Control_c, 0, 67, 45
2, 264550, Control_c, 0, 67, 43
2, 264569, Control_c, 0, 67, 39
2, 264589, Control_c, 0, 67, 35
2, 264605, Note_on_c, 0, 53, 0
2, 264607, Control_c, 0, 67, 28
2, 264610, Note_on_c, 0, 56, 73
2, 264627, Control_c, 0, 67, 20
2, 264646, Control_c, 0, 67, 10
2, 264666, Control_c, 0, 67, 0
2, 264684, Note_on_c, 0, 56, 0
2, 264742, Control_c, 0, 64, 33
2, 264764, Note_on_c, 0, 58, 69
2, 264804, Note_on_c, 0, 58, 0
2, 264876, Control_c, 0, 64, 33
2, 264927, Note_on_c, 0, 58, 69
2, 264939, Note_on_c, 0, 50, 59
2, 265031, Note_on_c, 0, 68, 0
2, 265071, Note_on_c, 0, 65, 66
2, 265083, Note_on_c, 0, 50, 0
2, 265116, Note_on_c, 0, 65, 0
2, 265216, Note_on_c, 0, 67, 70
2, 265222, Control_c, 0, 64, 34
2, 265270, Note_on_c, 0, 67, 0
2, 265379, Note_on_c, 0, 67, 71
2, 265382, Note_on_c, 0, 52, 54
2, 265434, Note_on_c, 0, 58, 0
2, 265472, Control_c, 0, 64, 34
2, 265494, Note_on_c, 0, 52, 0
2, 265536, Note_on_c, 0, 55, 62
2, 265567, Control_c, 0, 64, 35
2, 265591, Note_on_c, 0, 55, 0
2, 265691, Note_on_c, 0, 56, 70
2, 265730, Note_on_c, 0, 56, 0
2, 265837, Note_on_c, 0, 56, 66
2, 265863, Note_on_c, 0, 53, 52
2, 265948, Note_on_c, 0, 53, 0
2, 265978, Note_on_c, 0, 67, 0
2, 266009, Control_c, 0, 67, 11
2, 266020, Note_on_c, 0, 64, 64
2, 266029, Control_c, 0, 67, 16
2, 266047, Control_c, 0, 67, 21
2, 266060, Note_on_c, 0, 64, 0
2, 266067, Control_c, 0, 67, 26
2, 266086, Control_c, 0, 67, 32
2, 266106, Control_c, 0, 67, 37
2, 266124, Control_c, 0, 67, 42
2, 266144, Control_c, 0, 67, 48
2, 266160, Note_on_c, 0, 65, 65
2, 266163, Control_c, 0, 67, 56
2, 266182, Control_c, 0, 67, 63
2, 266201, Control_c, 0, 67, 70
2, 266202, Note_on_c, 0, 65, 0
2, 266221, Control_c, 0, 67, 79
2, 266240, Control_c, 0, 67, 88
2, 266259, Control_c, 0, 67, 98
2, 266278, Control_c, 0, 67, 108
2, 266298, Control_c, 0, 67, 120
2, 266311, Note_on_c, 0, 49, 49
2, 266315, Note_on_c, 0, 65, 57
2, 266316, Control_c, 0, 67, 127
2, 266364, Note_on_c, 0, 56, 0
2, 266435, Note_on_c, 0, 49, 0
2, 266470, Note_on_c, 0, 53, 63
2, 266521, Note_on_c, 0, 53, 0
2, 266635, Note_on_c, 0, 55, 65
2, 266686, Note_on_c, 0, 55, 0
2, 266800, Note_on_c, 0, 47, 49
2, 266800, Note_on_c, 0, 55, 58
2, 266863, Note_on_c, 0, 65, 0
2, 266866, Note_on_c, 0, 47, 0
2, 266954, Note_on_c, 0, 62, 52
2, 267014, Note_on_c, 0, 62, 0
2, 267120, Note_on_c, 0, 64, 56
2, 267168, Note_on_c, 0, 64, 0
2, 267254, Note_on_c, 0, 55, 0
2, 267269, Note_on_c, 0, 64, 65
2, 267278, Note_on_c, 0, 48, 46
2, 267436, Note_on_c, 0, 59, 65
2, 267488, Note_on_c, 0, 59, 0
2, 267576, Note_on_c, 0, 60, 60
2, 267653, Note_on_c, 0, 60, 0
2, 267744, Note_on_c, 0, 68, 76
2, 267767, Note_on_c, 0, 64, 0
2, 267871, Control_c, 0, 67, 126
2, 267890, Control_c, 0, 67, 125
2, 267908, Note_on_c, 0, 64, 57
2, 267909, Control_c, 0, 67, 123
2, 267928, Control_c, 0, 67, 121
2, 267948, Control_c, 0, 67, 120
2, 267966, Control_c, 0, 67, 118
2, 267986, Control_c, 0, 67, 117
2, 268005, Control_c, 0, 67, 116
2, 268014, Note_on_c, 0, 64, 0
2, 268025, Control_c, 0, 67, 115
2, 268043, Control_c, 0, 67, 113
2, 268054, Note_on_c, 0, 65, 47
2, 268063, Control_c, 0, 67, 112
2, 268082, Control_c, 0, 67, 110
2, 268101, Control_c, 0, 67, 107
2, 268120, Control_c, 0, 67, 104
2, 268140, Control_c, 0, 67, 100
2, 268159, Control_c, 0, 67, 97
2, 268160, Note_on_c, 0, 65, 0
2, 268178, Control_c, 0, 67, 93
2, 268197, Control_c, 0, 67, 90
2, 268217, Control_c, 0, 67, 88
2, 268219, Note_on_c, 0, 58, 64
2, 268235, Control_c, 0, 67, 87
2, 268254, Control_c, 0, 67, 86
2, 268274, Control_c, 0, 67, 84
2, 268293, Control_c, 0, 67, 82
2, 268312, Control_c, 0, 67, 82
2, 268336, Control_c, 0, 67, 81
2, 268367, Note_on_c, 0, 67, 72
2, 268373, Control_c, 0, 67, 81
2, 268410, Note_on_c, 0, 67, 0
2, 268412, Control_c, 0, 67, 80
2, 268416, Note_on_c, 0, 68, 0
2, 268489, Control_c, 0, 67, 81
2, 268521, Note_on_c, 0, 65, 64
2, 268565, Control_c, 0, 64, 34
2, 268576, Note_on_c, 0, 65, 0
2, 268604, Control_c, 0, 67, 80
2, 268672, Note_on_c, 0, 67, 63
2, 268677, Control_c, 0, 64, 34
2, 268773, Control_c, 0, 64, 33
2, 268792, Control_c, 0, 67, 80
2, 268798, Note_on_c, 0, 58, 0
2, 268811, Control_c, 0, 67, 79
2, 268831, Control_c, 0, 67, 79
2, 268837, Note_on_c, 0, 52, 55
2, 268850, Control_c, 0, 67, 78
2, 268869, Control_c, 0, 67, 78
2, 268884, Note_on_c, 0, 52, 0
2, 268888, Control_c, 0, 67, 74
2, 268908, Control_c, 0, 67, 65
2, 268926, Control_c, 0, 67, 54
2, 268946, Control_c, 0, 67, 42
2, 268965, Control_c, 0, 67, 31
2, 268970, Note_on_c, 0, 55, 68
2, 268985, Control_c, 0, 67, 20
2, 269003, Control_c, 0, 67, 10
2, 269018, Note_on_c, 0, 55, 0
2, 269023, Control_c, 0, 67, 0
2, 269131, Note_on_c, 0, 56, 67
2, 269291, Note_on_c, 0, 65, 64
2, 269304, Note_on_c, 0, 67, 0
2, 269331, Note_on_c, 0, 65, 0
2, 269432, Note_on_c, 0, 64, 72
2, 269474, Note_on_c, 0, 64, 0
2, 269593, Note_on_c, 0, 65, 71
2, 269746, Note_on_c, 0, 72, 75
2, 269753, Note_on_c, 0, 65, 0
2, 269817, Note_on_c, 0, 72, 0
2, 269888, Note_on_c, 0, 77, 75
2, 269952, Note_on_c, 0, 77, 0
2, 270057, Note_on_c, 0, 70, 71
2, 270111, Note_on_c, 0, 56, 0
2, 270205, Note_on_c, 0, 55, 65
2, 270247, Note_on_c, 0, 55, 0
2, 270349, Note_on_c, 0, 53, 68
2, 270388, Note_on_c, 0, 53, 0
2, 270510, Note_on_c, 0, 52, 70
2, 270645, Note_on_c, 0, 52, 0
2, 270651, Note_on_c, 0, 70, 0
2, 270657, Note_on_c, 0, 55, 73
2, 270666, Note_on_c, 0, 76, 78
2, 270730, Note_on_c, 0, 76, 0
2, 270741, Note_on_c, 0, 55, 0
2, 270803, Note_on_c, 0, 58, 67
2, 270820, Note_on_c, 0, 79, 86
2, 270828, Control_c, 0, 64, 34
2, 270887, Note_on_c, 0, 79, 0
2, 270980, Note_on_c, 0, 72, 84
2, 271070, Note_on_c, 0, 58, 0
2, 271128, Note_on_c, 0, 56, 76
2, 271170, Note_on_c, 0, 56, 0
2, 271286, Note_on_c, 0, 55, 75
2, 271331, Note_on_c, 0, 55, 0
2, 271423, Control_c, 0, 64, 34
2, 271430, Note_on_c, 0, 53, 76
2, 271545, Note_on_c, 0, 53, 0
2, 271581, Note_on_c, 0, 77, 80
2, 271592, Note_on_c, 0, 56, 78
2, 271636, Note_on_c, 0, 72, 0
2, 271668, Note_on_c, 0, 77, 0
2, 271675, Note_on_c, 0, 56, 0
2, 271737, Note_on_c, 0, 80, 88
2, 271738, Note_on_c, 0, 60, 68
2, 271806, Control_c, 0, 64, 35
2, 271810, Note_on_c, 0, 80, 0
2, 271895, Note_on_c, 0, 73, 88
2, 271903, Control_c, 0, 64, 35
2, 271960, Control_c, 0, 64, 36
2, 272001, Note_on_c, 0, 60, 0
2, 272039, Note_on_c, 0, 58, 78
2, 272076, Control_c, 0, 64, 36
2, 272104, Note_on_c, 0, 58, 0
2, 272116, Note_on_c, 0, 73, 0
2, 272207, Note_on_c, 0, 77, 88
2, 272211, Note_on_c, 0, 56, 70
2, 272268, Control_c, 0, 64, 37
2, 272287, Note_on_c, 0, 77, 0
2, 272309, Note_on_c, 0, 56, 0
2, 272364, Note_on_c, 0, 55, 68
2, 272366, Note_on_c, 0, 82, 92
2, 272460, Control_c, 0, 64, 37
2, 272475, Note_on_c, 0, 55, 0
2, 272514, Note_on_c, 0, 56, 77
2, 272594, Control_c, 0, 64, 38
2, 272596, Note_on_c, 0, 56, 0
2, 272601, Note_on_c, 0, 82, 0
2, 272668, Note_on_c, 0, 48, 0
2, 272668, Note_on_c, 0, 48, 11
2, 272669, Note_on_c, 0, 73, 88
2, 272681, Note_on_c, 0, 53, 68
2, 272738, Note_on_c, 0, 73, 0
2, 272779, Note_on_c, 0, 53, 0
2, 272830, Note_on_c, 0, 72, 91
2, 272846, Note_on_c, 0, 52, 62
2, 272983, Note_on_c, 0, 50, 65
2, 272985, Note_on_c, 0, 52, 0
2, 273053, Note_on_c, 0, 48, 0
2, 273077, Note_on_c, 0, 72, 0
2, 273129, Note_on_c, 0, 52, 73
2, 273139, Note_on_c, 0, 82, 92
2, 273152, Note_on_c, 0, 50, 0
2, 273202, Note_on_c, 0, 80, 23
2, 273222, Note_on_c, 0, 80, 0
2, 273291, Note_on_c, 0, 80, 88
2, 273300, Note_on_c, 0, 52, 0
2, 273300, Note_on_c, 0, 53, 72
2, 273351, Note_on_c, 0, 82, 0
2, 273403, Note_on_c, 0, 53, 0
2, 273437, Note_on_c, 0, 55, 75
2, 273501, Note_on_c, 0, 80, 0
2, 273527, Note_on_c, 0, 55, 0
2, 273593, Control_c, 0, 64, 38
2, 273593, Note_on_c, 0, 56, 87
2, 273594, Note_on_c, 0, 77, 83
2, 273623, Note_on_c, 0, 56, 0
2, 273695, Note_on_c, 0, 77, 0
2, 273763, Note_on_c, 0, 71, 91
2, 273770, Note_on_c, 0, 38, 91
2, 273912, Note_on_c, 0, 71, 0
2, 273925, Note_on_c, 0, 77, 89
2, 273996, Control_c, 0, 64, 38
2, 274003, Note_on_c, 0, 77, 0
2, 274085, Note_on_c, 0, 79, 95
2, 274164, Note_on_c, 0, 79, 0
2, 274249, Note_on_c, 0, 80, 90
2, 274250, Note_on_c, 0, 47, 82
2, 274394, Note_on_c, 0, 80, 0
2, 274395, Note_on_c, 0, 47, 0
2, 274418, Note_on_c, 0, 79, 91
2, 274509, Note_on_c, 0, 79, 0
2, 274535, Control_c, 0, 67, 11
2, 274555, Control_c, 0, 67, 15
2, 274568, Note_on_c, 0, 77, 88
2, 274574, Control_c, 0, 67, 19
2, 274594, Control_c, 0, 67, 23
2, 274612, Control_c, 0, 67, 26
2, 274632, Control_c, 0, 67, 29
2, 274651, Control_c, 0, 67, 32
2, 274671, Control_c, 0, 67, 35
2, 274681, Note_on_c, 0, 38, 0
2, 274689, Control_c, 0, 67, 38
2, 274709, Control_c, 0, 67, 40
2, 274720, Note_on_c, 0, 36, 71
2, 274722, Note_on_c, 0, 48, 80
2, 274728, Control_c, 0, 67, 41
2, 274766, Control_c, 0, 67, 41
2, 274786, Control_c, 0, 67, 40
2, 274787, Note_on_c, 0, 77, 0
2, 274799, Note_on_c, 0, 36, 0
2, 274805, Control_c, 0, 67, 40
2, 274814, Note_on_c, 0, 48, 0
2, 274824, Control_c, 0, 67, 39
2, 274843, Control_c, 0, 67, 39
2, 274863, Control_c, 0, 67, 38
2, 274881, Control_c, 0, 67, 38
2, 274889, Note_on_c, 0, 76, 78
2, 274901, Control_c, 0, 67, 37
2, 274920, Control_c, 0, 67, 37
2, 274940, Control_c, 0, 67, 36
2, 274947, Note_on_c, 0, 76, 0
2, 275015, Control_c, 0, 67, 36
2, 275025, Note_on_c, 0, 50, 75
2, 275035, Control_c, 0, 67, 35
2, 275035, Note_on_c, 0, 73, 82
2, 275073, Control_c, 0, 67, 35
2, 275090, Note_on_c, 0, 50, 0
2, 275184, Note_on_c, 0, 52, 77
2, 275226, Control_c, 0, 67, 34
2, 275242, Note_on_c, 0, 52, 0
2, 275245, Control_c, 0, 67, 34
2, 275265, Control_c, 0, 67, 33
2, 275282, Note_on_c, 0, 73, 0
2, 275284, Control_c, 0, 67, 33
2, 275303, Control_c, 0, 67, 32
2, 275334, Note_on_c, 0, 72, 78
2, 275375, Control_c, 0, 67, 32
2, 275404, Note_on_c, 0, 72, 0
2, 275433, Control_c, 0, 67, 31
2, 275480, Note_on_c, 0, 48, 60
2, 275483, Note_on_c, 0, 70, 78
2, 275666, Note_on_c, 0, 53, 53
2, 275713, Note_on_c, 0, 53, 0
2, 275739, Note_on_c, 0, 70, 0
2, 275800, Note_on_c, 0, 68, 65
2, 275856, Note_on_c, 0, 68, 0
2, 275921, Note_on_c, 0, 55, 65
2, 275946, Note_on_c, 0, 67, 75
2, 276007, Note_on_c, 0, 55, 0
2, 276010, Control_c, 0, 67, 31
2, 276023, Note_on_c, 0, 67, 0
2, 276095, Note_on_c, 0, 65, 86
2, 276106, Note_on_c, 0, 56, 73
2, 276107, Control_c, 0, 67, 30
2, 276125, Control_c, 0, 67, 30
2, 276164, Control_c, 0, 67, 29
2, 276184, Control_c, 0, 67, 28
2, 276186, Note_on_c, 0, 65, 0
2, 276200, Note_on_c, 0, 56, 0
2, 276202, Control_c, 0, 67, 28
2, 276222, Control_c, 0, 67, 27
2, 276241, Control_c, 0, 67, 27
2, 276242, Note_on_c, 0, 48, 0
2, 276250, Note_on_c, 0, 64, 84
2, 276261, Note_on_c, 0, 60, 68
2, 276279, Control_c, 0, 67, 26
2, 276310, Note_on_c, 0, 64, 0
2, 276315, Note_on_c, 0, 60, 0
2, 276336, Control_c, 0, 64, 29
2, 276356, Control_c, 0, 64, 0
2, 276356, Control_c, 0, 67, 27
2, 276375, Control_c, 0, 67, 27
2, 276383, Note_on_c, 0, 59, 77
2, 276385, Note_on_c, 0, 65, 80
2, 276395, Control_c, 0, 67, 28
2, 276413, Control_c, 0, 67, 28
2, 276426, Note_on_c, 0, 59, 0
2, 276433, Control_c, 0, 67, 29
2, 276452, Control_c, 0, 67, 30
2, 276453, Note_on_c, 0, 65, 0
2, 276529, Control_c, 0, 67, 29
2, 276529, Note_on_c, 0, 72, 85
2, 276548, Control_c, 0, 67, 29
2, 276565, Note_on_c, 0, 60, 68
2, 276567, Control_c, 0, 64, 47
2, 276578, Note_on_c, 0, 55, 60
2, 276587, Control_c, 0, 64, 57
2, 276598, Note_on_c, 0, 48, 36
2, 276605, Control_c, 0, 64, 58
2, 276605, Control_c, 0, 67, 29
2, 276614, Note_on_c, 0, 60, 0
2, 276625, Control_c, 0, 64, 59
2, 276636, Note_on_c, 0, 55, 0
2, 276642, Note_on_c, 0, 48, 0
2, 276644, Control_c, 0, 64, 61
2, 276644, Control_c, 0, 67, 29
2, 276664, Control_c, 0, 64, 61
2, 276689, Note_on_c, 0, 62, 63
2, 276702, Control_c, 0, 64, 61
2, 276731, Note_on_c, 0, 72, 0
2, 276800, Note_on_c, 0, 64, 57
2, 276830, Note_on_c, 0, 62, 0
2, 276852, Note_on_c, 0, 64, 0
2, 276855, Control_c, 0, 64, 60
2, 276855, Control_c, 0, 67, 29
2, 276875, Control_c, 0, 64, 57
2, 276893, Control_c, 0, 64, 34
2, 276896, Note_on_c, 0, 48, 52
2, 276913, Control_c, 0, 64, 0
2, 276913, Control_c, 0, 67, 29
2, 276967, Control_c, 0, 67, 28
2, 276969, Note_on_c, 0, 53, 80
2, 276981, Note_on_c, 0, 63, 77
2, 276984, Note_on_c, 0, 60, 79
2, 276988, Note_on_c, 0, 69, 89
2, 276997, Note_on_c, 0, 48, 0
2, 277006, Control_c, 0, 67, 28
2, 277008, Note_on_c, 0, 53, 0
2, 277026, Control_c, 0, 64, 60
2, 277044, Control_c, 0, 64, 81
2, 277064, Control_c, 0, 64, 127
2, 277076, Note_on_c, 0, 63, 0
2, 277083, Control_c, 0, 67, 28
2, 277151, Note_on_c, 0, 69, 0
2, 277157, Note_on_c, 0, 67, 77
2, 277236, Control_c, 0, 67, 29
2, 277237, Note_on_c, 0, 60, 0
2, 277251, Note_on_c, 0, 67, 0
2, 277287, Note_on_c, 0, 69, 88
2, 277340, Note_on_c, 0, 69, 0
2, 277370, Control_c, 0, 67, 28
2, 277466, Control_c, 0, 67, 30
2, 277476, Note_on_c, 0, 46, 71
2, 277489, Note_on_c, 0, 58, 62
2, 277505, Control_c, 0, 67, 31
2, 277523, Control_c, 0, 64, 87
2, 277523, Control_c, 0, 67, 31
2, 277543, Control_c, 0, 64, 63
2, 277543, Note_on_c, 0, 61, 67
2, 277543, Note_on_c, 0, 65, 70
2, 277562, Control_c, 0, 64, 0
2, 277562, Control_c, 0, 67, 32
2, 277564, Note_on_c, 0, 70, 85
2, 277568, Note_on_c, 0, 73, 88
2, 277620, Control_c, 0, 67, 31
2, 277677, Control_c, 0, 64, 56
2, 277677, Control_c, 0, 67, 31
2, 277685, Note_on_c, 0, 58, 0
2, 277696, Control_c, 0, 64, 65
2, 277716, Control_c, 0, 64, 71
2, 277716, Control_c, 0, 67, 30
2, 277734, Control_c, 0, 64, 77
2, 277754, Control_c, 0, 64, 79
2, 277755, Note_on_c, 0, 49, 74
2, 277756, Note_on_c, 0, 46, 0
2, 277758, Note_on_c, 0, 61, 0
2, 277773, Control_c, 0, 64, 78
2, 277792, Control_c, 0, 64, 76
2, 277792, Control_c, 0, 67, 30
2, 277799, Note_on_c, 0, 65, 0
2, 277811, Control_c, 0, 64, 73
2, 277831, Control_c, 0, 64, 71
2, 277836, Note_on_c, 0, 49, 0
2, 277850, Control_c, 0, 64, 68
2, 277859, Note_on_c, 0, 70, 0
2, 277868, Note_on_c, 0, 73, 0
2, 277869, Control_c, 0, 64, 65
2, 277888, Control_c, 0, 64, 63
2, 277922, Control_c, 0, 64, 62
2, 277922, Control_c, 0, 67, 30
2, 277929, Note_on_c, 0, 53, 71
2, 277940, Control_c, 0, 64, 60
2, 277957, Control_c, 0, 64, 59
2, 277957, Control_c, 0, 67, 31
2, 277971, Note_on_c, 0, 53, 0
2, 277977, Control_c, 0, 64, 58
2, 277977, Control_c, 0, 67, 31
2, 277996, Control_c, 0, 64, 54
2, 278015, Control_c, 0, 64, 50
2, 278034, Control_c, 0, 64, 42
2, 278054, Control_c, 0, 64, 37
2, 278073, Control_c, 0, 64, 32
2, 278092, Control_c, 0, 64, 28
2, 278092, Control_c, 0, 67, 33
2, 278108, Note_on_c, 0, 72, 91
2, 278111, Control_c, 0, 64, 22
2, 278111, Control_c, 0, 67, 33
2, 278117, Note_on_c, 0, 58, 71
2, 278131, Control_c, 0, 64, 18
2, 278131, Control_c, 0, 67, 34
2, 278149, Control_c, 0, 64, 16
2, 278149, Control_c, 0, 67, 35
2, 278188, Control_c, 0, 64, 14
2, 278188, Control_c, 0, 67, 35
2, 278208, Control_c, 0, 64, 11
2, 278208, Control_c, 0, 67, 36
2, 278226, Control_c, 0, 64, 8
2, 278226, Control_c, 0, 67, 38
2, 278245, Control_c, 0, 67, 40
2, 278265, Control_c, 0, 67, 41
2, 278271, Note_on_c, 0, 58, 0
2, 278273, Note_on_c, 0, 57, 66
2, 278278, Note_on_c, 0, 74, 83
2, 278283, Control_c, 0, 67, 45
2, 278300, Note_on_c, 0, 72, 0
2, 278303, Control_c, 0, 64, 0
2, 278303, Control_c, 0, 67, 52
2, 278322, Control_c, 0, 67, 60
2, 278325, Note_on_c, 0, 57, 0
2, 278342, Control_c, 0, 67, 69
2, 278349, Note_on_c, 0, 74, 0
2, 278360, Control_c, 0, 67, 77
2, 278380, Control_c, 0, 67, 82
2, 278399, Control_c, 0, 67, 87
2, 278418, Control_c, 0, 67, 88
2, 278433, Note_on_c, 0, 76, 91
2, 278450, Note_on_c, 0, 55, 55
2, 278476, Control_c, 0, 67, 88
2, 278487, Note_on_c, 0, 55, 0
2, 278495, Control_c, 0, 67, 87
2, 278501, Note_on_c, 0, 76, 0
2, 278514, Control_c, 0, 67, 86
2, 278534, Control_c, 0, 67, 85
2, 278553, Control_c, 0, 67, 85
2, 278572, Control_c, 0, 67, 84
2, 278583, Note_on_c, 0, 77, 88
2, 278591, Control_c, 0, 67, 83
2, 278605, Note_on_c, 0, 57, 64
2, 278629, Control_c, 0, 67, 82
2, 278668, Control_c, 0, 67, 82
2, 278672, Note_on_c, 0, 77, 0
2, 278728, Note_on_c, 0, 76, 85
2, 278738, Note_on_c, 0, 57, 0
2, 278786, Note_on_c, 0, 76, 0
2, 278802, Control_c, 0, 67, 81
2, 278840, Control_c, 0, 67, 81
2, 278867, Note_on_c, 0, 58, 66
2, 278881, Note_on_c, 0, 74, 75
2, 278892, Note_on_c, 0, 70, 79
2, 278915, Note_on_c, 0, 58, 0
2, 278947, Note_on_c, 0, 74, 0
2, 279014, Note_on_c, 0, 70, 0
2, 279033, Note_on_c, 0, 72, 81
2, 279040, Note_on_c, 0, 70, 32
2, 279052, Note_on_c, 0, 69, 68
2, 279056, Note_on_c, 0, 60, 58
2, 279072, Note_on_c, 0, 70, 0
2, 279119, Note_on_c, 0, 60, 0
2, 279122, Note_on_c, 0, 72, 0
2, 279186, Note_on_c, 0, 74, 68
2, 279195, Note_on_c, 0, 69, 0
2, 279200, Control_c, 0, 64, 8
2, 279247, Note_on_c, 0, 74, 0
2, 279318, Note_on_c, 0, 48, 44
2, 279320, Note_on_c, 0, 70, 78
2, 279326, Note_on_c, 0, 67, 67
2, 279359, Note_on_c, 0, 48, 0
2, 279361, Note_on_c, 0, 70, 0
2, 279364, Note_on_c, 0, 67, 0
2, 279473, Note_on_c, 0, 69, 75
2, 279481, Note_on_c, 0, 65, 70
2, 279484, Note_on_c, 0, 53, 64
2, 279519, Note_on_c, 0, 53, 0
2, 279521, Note_on_c, 0, 65, 0
2, 279527, Control_c, 0, 67, 81
2, 279543, Note_on_c, 0, 69, 0
2, 279546, Control_c, 0, 67, 82
2, 279565, Control_c, 0, 67, 83
2, 279585, Control_c, 0, 67, 84
2, 279607, Control_c, 0, 67, 87
2, 279625, Control_c, 0, 67, 88
2, 279645, Control_c, 0, 67, 90
2, 279664, Control_c, 0, 67, 91
2, 279672, Note_on_c, 0, 65, 58
2, 279683, Control_c, 0, 67, 93
2, 279702, Control_c, 0, 67, 99
2, 279722, Control_c, 0, 67, 102
2, 279733, Note_on_c, 0, 67, 65
2, 279741, Control_c, 0, 67, 103
2, 279746, Note_on_c, 0, 65, 0
2, 279760, Control_c, 0, 67, 104
2, 279805, Note_on_c, 0, 69, 64
2, 279818, Note_on_c, 0, 67, 0
2, 279837, Note_on_c, 0, 70, 71
2, 279875, Note_on_c, 0, 69, 0
2, 279893, Control_c, 0, 67, 103
2, 279904, Note_on_c, 0, 72, 73
2, 279905, Note_on_c, 0, 41, 61
2, 279913, Control_c, 0, 67, 103
2, 279932, Control_c, 0, 64, 0
2, 279932, Control_c, 0, 67, 102
2, 279936, Note_on_c, 0, 70, 0
2, 279952, Control_c, 0, 67, 102
2, 279970, Control_c, 0, 67, 101
2, 279990, Control_c, 0, 67, 100
2, 280009, Control_c, 0, 67, 100
2, 280018, Note_on_c, 0, 41, 0
2, 280028, Control_c, 0, 67, 99
2, 280047, Control_c, 0, 67, 98
2, 280060, Note_on_c, 0, 69, 64
2, 280066, Control_c, 0, 67, 98
2, 280086, Control_c, 0, 67, 97
2, 280092, Note_on_c, 0, 40, 47
2, 280111, Note_on_c, 0, 69, 0
2, 280124, Control_c, 0, 67, 97
2, 280131, Note_on_c, 0, 40, 0
2, 280180, Control_c, 0, 67, 96
2, 280224, Note_on_c, 0, 41, 68
2, 280234, Note_on_c, 0, 63, 71
2, 280239, Control_c, 0, 67, 96
2, 280267, Note_on_c, 0, 41, 0
2, 280271, Note_on_c, 0, 63, 0
2, 280381, Note_on_c, 0, 63, 65
2, 280382, Note_on_c, 0, 46, 70
2, 280462, Note_on_c, 0, 63, 0
2, 280475, Note_on_c, 0, 46, 0
2, 280538, Note_on_c, 0, 62, 62
2, 280595, Note_on_c, 0, 72, 0
2, 280622, Note_on_c, 0, 65, 61
2, 280674, Note_on_c, 0, 62, 0
2, 280677, Note_on_c, 0, 67, 60
2, 280680, Control_c, 0, 67, 95
2, 280721, Note_on_c, 0, 65, 0
2, 280723, Note_on_c, 0, 69, 68
2, 280774, Note_on_c, 0, 67, 0
2, 280795, Control_c, 0, 67, 95
2, 280802, Note_on_c, 0, 70, 77
2, 280809, Note_on_c, 0, 43, 64
2, 280834, Control_c, 0, 64, 8
2, 280834, Control_c, 0, 67, 94
2, 280841, Note_on_c, 0, 69, 0
2, 280911, Control_c, 0, 67, 93
2, 280929, Control_c, 0, 67, 93
2, 280948, Control_c, 0, 67, 92
2, 280968, Control_c, 0, 67, 92
2, 280975, Note_on_c, 0, 43, 0
2, 280977, Note_on_c, 0, 41, 63
2, 280977, Note_on_c, 0, 62, 62
2, 280987, Control_c, 0, 67, 91
2, 281006, Control_c, 0, 67, 90
2, 281018, Note_on_c, 0, 62, 0
2, 281021, Note_on_c, 0, 41, 0
2, 281025, Control_c, 0, 67, 89
2, 281045, Control_c, 0, 67, 87
2, 281063, Control_c, 0, 67, 82
2, 281083, Control_c, 0, 67, 76
2, 281102, Control_c, 0, 67, 69
2, 281116, Note_on_c, 0, 43, 75
2, 281122, Control_c, 0, 67, 62
2, 281122, Note_on_c, 0, 65, 60
2, 281140, Control_c, 0, 67, 52
2, 281160, Control_c, 0, 67, 42
2, 281165, Note_on_c, 0, 43, 0
2, 281166, Note_on_c, 0, 65, 0
2, 281179, Control_c, 0, 67, 32
2, 281199, Control_c, 0, 67, 25
2, 281217, Control_c, 0, 67, 21
2, 281237, Control_c, 0, 67, 19
2, 281256, Control_c, 0, 67, 17
2, 281268, Note_on_c, 0, 48, 78
2, 281275, Control_c, 0, 67, 15
2, 281292, Note_on_c, 0, 65, 57
2, 281294, Control_c, 0, 67, 13
2, 281314, Control_c, 0, 67, 13
2, 281348, Note_on_c, 0, 48, 0
2, 281371, Note_on_c, 0, 65, 0
2, 281396, Note_on_c, 0, 70, 0
2, 281421, Note_on_c, 0, 64, 67
2, 281448, Control_c, 0, 67, 13
2, 281528, Note_on_c, 0, 67, 62
2, 281588, Note_on_c, 0, 69, 67
2, 281606, Note_on_c, 0, 64, 0
2, 281620, Control_c, 0, 67, 14
2, 281628, Note_on_c, 0, 67, 0
2, 281633, Note_on_c, 0, 70, 71
2, 281679, Control_c, 0, 67, 14
2, 281682, Note_on_c, 0, 69, 0
2, 281691, Note_on_c, 0, 45, 64
2, 281697, Control_c, 0, 67, 15
2, 281714, Note_on_c, 0, 72, 79
2, 281755, Control_c, 0, 67, 15
2, 281755, Note_on_c, 0, 70, 0
2, 281840, Note_on_c, 0, 45, 0
2, 281863, Note_on_c, 0, 64, 72
2, 281874, Note_on_c, 0, 43, 61
2, 281913, Note_on_c, 0, 64, 0
2, 281926, Note_on_c, 0, 43, 0
2, 281993, Control_c, 0, 67, 15
2, 282008, Note_on_c, 0, 67, 74
2, 282018, Note_on_c, 0, 45, 68
2, 282050, Note_on_c, 0, 67, 0
2, 282066, Note_on_c, 0, 45, 0
2, 282162, Note_on_c, 0, 50, 75
2, 282172, Note_on_c, 0, 67, 67
2, 282175, Control_c, 0, 67, 15
2, 282214, Control_c, 0, 67, 16
2, 282218, Note_on_c, 0, 72, 0
2, 282234, Control_c, 0, 67, 16
2, 282236, Note_on_c, 0, 50, 0
2, 282247, Note_on_c, 0, 67, 0
2, 282291, Control_c, 0, 67, 17
2, 282298, Note_on_c, 0, 65, 59
2, 282310, Control_c, 0, 67, 18
2, 282329, Control_c, 0, 67, 18
2, 282368, Control_c, 0, 67, 19
2, 282380, Note_on_c, 0, 69, 73
2, 282383, Note_on_c, 0, 65, 0
2, 282406, Control_c, 0, 67, 19
2, 282444, Control_c, 0, 67, 20
2, 282453, Note_on_c, 0, 70, 70
2, 282462, Note_on_c, 0, 69, 0
2, 282514, Note_on_c, 0, 72, 70
2, 282538, Note_on_c, 0, 70, 0
2, 282576, Note_on_c, 0, 74, 76
2, 282588, Note_on_c, 0, 46, 67
2, 282588, Note_on_c, 0, 72, 0
2, 282665, Note_on_c, 0, 72, 61
2, 282694, Control_c, 0, 67, 19
2, 282696, Note_on_c, 0, 46, 0
2, 282718, Note_on_c, 0, 70, 71
2, 282747, Note_on_c, 0, 72, 0
2, 282753, Note_on_c, 0, 45, 58
2, 282788, Note_on_c, 0, 69, 73
2, 282803, Note_on_c, 0, 70, 0
2, 282811, Control_c, 0, 67, 19
2, 282823, Note_on_c, 0, 45, 0
2, 282827, Note_on_c, 0, 69, 0
2, 282844, Note_on_c, 0, 46, 59
2, 282859, Note_on_c, 0, 67, 63
2, 282868, Control_c, 0, 67, 18
2, 282878, Note_on_c, 0, 46, 0
2, 282914, Note_on_c, 0, 67, 0
2, 282939, Note_on_c, 0, 65, 69
2, 282983, Control_c, 0, 67, 18
2, 282985, Note_on_c, 0, 65, 0
2, 282997, Note_on_c, 0, 52, 82
2, 283015, Note_on_c, 0, 67, 78
2, 283056, Note_on_c, 0, 67, 0
2, 283079, Note_on_c, 0, 52, 0
2, 283100, Note_on_c, 0, 70, 74
2, 283100, Note_on_c, 0, 74, 0
2, 283131, Note_on_c, 0, 70, 0
2, 283170, Note_on_c, 0, 72, 84
2, 283176, Control_c, 0, 67, 18
2, 283251, Note_on_c, 0, 74, 81
2, 283253, Note_on_c, 0, 72, 0
2, 283319, Note_on_c, 0, 76, 78
2, 283343, Note_on_c, 0, 74, 0
2, 283384, Note_on_c, 0, 77, 69
2, 283416, Note_on_c, 0, 76, 0
2, 283438, Note_on_c, 0, 79, 86
2, 283448, Note_on_c, 0, 48, 76
2, 283456, Note_on_c, 0, 77, 0
2, 283483, Control_c, 0, 67, 18
2, 283520, Note_on_c, 0, 77, 73
2, 283522, Control_c, 0, 67, 18
2, 283554, Note_on_c, 0, 48, 0
2, 283570, Note_on_c, 0, 79, 0
2, 283580, Note_on_c, 0, 76, 72
2, 283604, Note_on_c, 0, 50, 76
2, 283605, Note_on_c, 0, 77, 0
2, 283650, Note_on_c, 0, 74, 76
2, 283652, Note_on_c, 0, 50, 0
2, 283653, Note_on_c, 0, 76, 0
2, 283688, Note_on_c, 0, 74, 0
2, 283709, Note_on_c, 0, 72, 69
2, 283763, Note_on_c, 0, 52, 79
2, 283796, Note_on_c, 0, 70, 81
2, 283800, Note_on_c, 0, 52, 0
2, 283801, Note_on_c, 0, 72, 0
2, 283884, Note_on_c, 0, 69, 85
2, 283907, Note_on_c, 0, 53, 83
2, 283927, Note_on_c, 0, 70, 0
2, 283942, Control_c, 0, 67, 19
2, 284012, Note_on_c, 0, 69, 0
2, 284047, Note_on_c, 0, 72, 78
2, 284053, Note_on_c, 0, 53, 0
2, 284057, Note_on_c, 0, 52, 69
2, 284101, Note_on_c, 0, 52, 0
2, 284109, Note_on_c, 0, 72, 0
2, 284115, Control_c, 0, 67, 19
2, 284200, Note_on_c, 0, 70, 78
2, 284206, Note_on_c, 0, 50, 70
2, 284243, Note_on_c, 0, 70, 0
2, 284248, Note_on_c, 0, 50, 0
2, 284288, Control_c, 0, 67, 19
2, 284356, Note_on_c, 0, 72, 80
2, 284360, Note_on_c, 0, 48, 61
2, 284492, Note_on_c, 0, 48, 0
2, 284518, Note_on_c, 0, 50, 65
2, 284557, Control_c, 0, 67, 18
2, 284563, Note_on_c, 0, 50, 0
2, 284676, Note_on_c, 0, 64, 69
2, 284682, Note_on_c, 0, 46, 60
2, 284707, Note_on_c, 0, 64, 0
2, 284711, Control_c, 0, 67, 18
2, 284723, Note_on_c, 0, 46, 0
2, 284730, Control_c, 0, 67, 17
2, 284768, Control_c, 0, 67, 17
2, 284787, Control_c, 0, 67, 16
2, 284807, Control_c, 0, 67, 15
2, 284826, Control_c, 0, 67, 13
2, 284835, Note_on_c, 0, 45, 62
2, 284841, Note_on_c, 0, 65, 67
2, 284845, Control_c, 0, 67, 10
2, 284864, Control_c, 0, 67, 0
2, 284985, Note_on_c, 0, 46, 64
2, 284991, Note_on_c, 0, 45, 0
2, 285047, Note_on_c, 0, 72, 0
2, 285052, Note_on_c, 0, 46, 0
2, 285147, Note_on_c, 0, 65, 0
2, 285153, Note_on_c, 0, 70, 72
2, 285156, Note_on_c, 0, 74, 71
2, 285158, Note_on_c, 0, 43, 60
2, 285191, Note_on_c, 0, 70, 0
2, 285201, Note_on_c, 0, 43, 0
2, 285201, Note_on_c, 0, 74, 0
2, 285304, Note_on_c, 0, 75, 77
2, 285311, Note_on_c, 0, 41, 68
2, 285317, Note_on_c, 0, 69, 64
2, 285448, Note_on_c, 0, 41, 0
2, 285466, Note_on_c, 0, 70, 73
2, 285473, Note_on_c, 0, 43, 59
2, 285548, Note_on_c, 0, 43, 0
2, 285560, Note_on_c, 0, 70, 0
2, 285620, Note_on_c, 0, 72, 79
2, 285626, Note_on_c, 0, 45, 65
2, 285646, Note_on_c, 0, 75, 0
2, 285665, Note_on_c, 0, 45, 0
2, 285792, Note_on_c, 0, 46, 66
2, 285792, Note_on_c, 0, 74, 87
2, 285835, Note_on_c, 0, 69, 0
2, 285952, Note_on_c, 0, 48, 65
2, 285957, Note_on_c, 0, 46, 0
2, 285992, Note_on_c, 0, 48, 0
2, 285992, Note_on_c, 0, 72, 0
2, 286110, Note_on_c, 0, 65, 76
2, 286116, Note_on_c, 0, 45, 67
2, 286151, Note_on_c, 0, 65, 0
2, 286166, Note_on_c, 0, 45, 0
2, 286167, Control_c, 0, 64, 0
2, 286271, Note_on_c, 0, 70, 91
2, 286275, Note_on_c, 0, 43, 68
2, 286294, Note_on_c, 0, 74, 0
2, 286423, Note_on_c, 0, 43, 0
2, 286431, Note_on_c, 0, 45, 70
2, 286510, Note_on_c, 0, 45, 0
2, 286577, Note_on_c, 0, 79, 89
2, 286580, Note_on_c, 0, 46, 78
2, 286630, Note_on_c, 0, 46, 0
2, 286655, Note_on_c, 0, 79, 0
2, 286752, Note_on_c, 0, 48, 82
2, 286757, Note_on_c, 0, 76, 92
2, 286907, Note_on_c, 0, 50, 77
2, 286913, Note_on_c, 0, 48, 0
2, 286949, Note_on_c, 0, 70, 0
2, 286950, Note_on_c, 0, 50, 0
2, 287077, Note_on_c, 0, 67, 78
2, 287082, Note_on_c, 0, 46, 74
2, 287143, Note_on_c, 0, 67, 0
2, 287151, Note_on_c, 0, 46, 0
2, 287243, Note_on_c, 0, 72, 95
2, 287249, Note_on_c, 0, 45, 76
2, 287303, Note_on_c, 0, 76, 0
2, 287392, Note_on_c, 0, 45, 0
2, 287405, Note_on_c, 0, 46, 79
2, 287478, Note_on_c, 0, 46, 0
2, 287567, Note_on_c, 0, 81, 91
2, 287571, Note_on_c, 0, 48, 80
2, 287628, Note_on_c, 0, 48, 0
2, 287654, Note_on_c, 0, 81, 0
2, 287746, Note_on_c, 0, 77, 87
2, 287755, Note_on_c, 0, 50, 75
2, 287870, Note_on_c, 0, 77, 0
2, 287903, Note_on_c, 0, 69, 80
2, 287908, Note_on_c, 0, 48, 72
2, 287913, Note_on_c, 0, 50, 0
2, 287913, Note_on_c, 0, 72, 0
2, 287955, Note_on_c, 0, 48, 0
2, 287957, Note_on_c, 0, 69, 0
2, 288063, Note_on_c, 0, 74, 84
2, 288065, Note_on_c, 0, 70, 82
2, 288070, Note_on_c, 0, 46, 73
2, 288106, Note_on_c, 0, 70, 0
2, 288115, Note_on_c, 0, 46, 0
2, 288125, Note_on_c, 0, 74, 0
2, 288256, Note_on_c, 0, 69, 89
2, 288262, Note_on_c, 0, 48, 70
2, 288266, Note_on_c, 0, 65, 75
2, 288461, Note_on_c, 0, 70, 88
2, 288474, Note_on_c, 0, 48, 0
2, 288478, Note_on_c, 0, 65, 0
2, 288486, Note_on_c, 0, 69, 0
2, 288518, Note_on_c, 0, 70, 0
2, 288689, Note_on_c, 0, 67, 84
2, 288692, Note_on_c, 0, 36, 63
2, 288696, Note_on_c, 0, 64, 75
2, 288756, Note_on_c, 0, 36, 0
2, 288759, Note_on_c, 0, 64, 0
2, 288783, Note_on_c, 0, 67, 0
2, 289052, Note_on_c, 0, 65, 87
2, 289057, Note_on_c, 0, 41, 67
2, 290241, Note_on_c, 0, 41, 0
2, 290283, Note_on_c, 0, 65, 0
2, 290284, End_track
0, 0, End_of_file
