0, 0, Header, 1, 2, 480
1, 0, Start_track
1, 0, Tempo, 500000
1, 0, Time_signature, 4, 2, 24, 8
1, 1, End_track
2,0,Start_track
2,0, Note_on_c, 0, 65, 71
2,137, Note_on_c, 0, 64, 74
2,142, Note_on_c, 0, 65, 0
2,175, Note_on_c, 0, 64, 0
2,290, Note_on_c, 0, 65, 69
2,349, Note_on_c, 0, 65, 0
2,445, Note_on_c, 0, 72, 78
2,560, Note_on_c, 0, 72, 0
2,886, Note_on_c, 0, 69, 80
2,941, Control_c, 0, 64, 41
2,1020, Note_on_c, 0, 67, 70
2,1025, Note_on_c, 0, 69, 0
2,1073, Note_on_c, 0, 67, 0
2,1153, Control_c, 0, 64, 41
2,1153, Note_on_c, 0, 69, 80
2,1172, Control_c, 0, 64, 40
2,1210, Control_c, 0, 64, 39
2,1212, Note_on_c, 0, 69, 0
2,1230, Control_c, 0, 64, 39
2,1249, Control_c, 0, 64, 38
2,1268, Control_c, 0, 64, 37
2,1287, Control_c, 0, 64, 36
2,1307, Control_c, 0, 64, 36
2,1325, Note_on_c, 0, 74, 75
2,1345, Control_c, 0, 64, 35
2,1447, Note_on_c, 0, 74, 0
2,1460, Control_c, 0, 64, 35
2,1536, Control_c, 0, 64, 34
2,1787, Control_c, 0, 64, 34
2,1792, Note_on_c, 0, 72, 83
2,1882, Control_c, 0, 64, 33
2,1921, Control_c, 0, 64, 33
2,1926, Note_on_c, 0, 74, 80
2,1933, Note_on_c, 0, 72, 0
2,1978, Control_c, 0, 64, 32
2,1991, Note_on_c, 0, 74, 0
2,2016, Control_c, 0, 64, 32
2,2070, Note_on_c, 0, 76, 85
2,2128, Note_on_c, 0, 76, 0
2,2151, Control_c, 0, 64, 31
2,2218, Note_on_c, 0, 77, 85
2,2358, Note_on_c, 0, 76, 82
2,2387, Note_on_c, 0, 77, 0
2,2420, Note_on_c, 0, 76, 0
2,2502, Note_on_c, 0, 74, 76
2,2545, Note_on_c, 0, 74, 0
2,2644, Note_on_c, 0, 72, 77
2,2793, Note_on_c, 0, 74, 69
2,2808, Note_on_c, 0, 72, 0
2,2838, Note_on_c, 0, 74, 0
2,2861, Control_c, 0, 64, 31
2,2933, Note_on_c, 0, 70, 76
2,2974, Note_on_c, 0, 70, 0
2,3068, Note_on_c, 0, 69, 79
2,3168, Note_on_c, 0, 69, 0
2,3218, Note_on_c, 0, 67, 69
2,3268, Note_on_c, 0, 67, 0
2,3366, Note_on_c, 0, 65, 64
2,3408, Note_on_c, 0, 65, 0
2,3418, Control_c, 0, 64, 30
2,3495, Control_c, 0, 64, 29
2,3506, Note_on_c, 0, 60, 78
2,3506, Note_on_c, 0, 64, 62
2,3533, Control_c, 0, 64, 29
2,3572, Control_c, 0, 64, 28
2,3604, Note_on_c, 0, 64, 0
2,3610, Control_c, 0, 64, 28
2,3647, Note_on_c, 0, 58, 77
2,3648, Note_on_c, 0, 60, 0
2,3649, Control_c, 0, 64, 27
2,3693, Note_on_c, 0, 58, 0
2,3707, Control_c, 0, 64, 26
2,3764, Control_c, 0, 64, 26
2,3785, Note_on_c, 0, 70, 71
2,3794, Note_on_c, 0, 60, 74
2,3802, Control_c, 0, 64, 25
2,3831, Note_on_c, 0, 70, 0
2,3832, Note_on_c, 0, 60, 0
2,3841, Control_c, 0, 64, 24
2,3942, Note_on_c, 0, 69, 68
2,3951, Note_on_c, 0, 65, 78
2,4084, Note_on_c, 0, 65, 0
2,4122, Note_on_c, 0, 69, 0
2,4238, Note_on_c, 0, 74, 68
2,4279, Note_on_c, 0, 74, 0
2,4359, Control_c, 0, 64, 23
2,4393, Note_on_c, 0, 64, 84
2,4393, Note_on_c, 0, 67, 71
2,4455, Control_c, 0, 64, 22
2,4493, Control_c, 0, 64, 21
2,4513, Control_c, 0, 64, 20
2,4529, Note_on_c, 0, 64, 0
2,4531, Note_on_c, 0, 62, 75
2,4532, Control_c, 0, 64, 19
2,4541, Note_on_c, 0, 67, 0
2,4551, Control_c, 0, 64, 18
2,4570, Control_c, 0, 64, 16
2,4590, Control_c, 0, 64, 14
2,4599, Note_on_c, 0, 62, 0
2,4609, Control_c, 0, 64, 13
2,4628, Control_c, 0, 64, 11
2,4667, Control_c, 0, 64, 8
2,4671, Note_on_c, 0, 64, 77
2,4678, Note_on_c, 0, 74, 74
2,4713, Note_on_c, 0, 64, 0
2,4715, Note_on_c, 0, 74, 0
2,4724, Control_c, 0, 64, 0
2,4834, Note_on_c, 0, 72, 75
2,4838, Note_on_c, 0, 69, 82
2,5000, Note_on_c, 0, 69, 0
2,5020, Note_on_c, 0, 72, 0
2,5135, Note_on_c, 0, 77, 77
2,5190, Note_on_c, 0, 77, 0
2,5293, Note_on_c, 0, 67, 81
2,5295, Note_on_c, 0, 71, 75
2,5436, Note_on_c, 0, 69, 84
2,5472, Note_on_c, 0, 71, 0
2,5484, Note_on_c, 0, 67, 0
2,5498, Note_on_c, 0, 69, 0
2,5581, Note_on_c, 0, 77, 80
2,5596, Note_on_c, 0, 71, 85
2,5640, Note_on_c, 0, 77, 0
2,5649, Note_on_c, 0, 71, 0
2,5734, Note_on_c, 0, 72, 84
2,5740, Note_on_c, 0, 76, 81
2,5857, Note_on_c, 0, 76, 0
2,5872, Note_on_c, 0, 72, 0
2,5875, Note_on_c, 0, 71, 82
2,5894, Note_on_c, 0, 74, 78
2,5935, Note_on_c, 0, 71, 0
2,5959, Note_on_c, 0, 74, 0
2,6027, Note_on_c, 0, 69, 81
2,6031, Note_on_c, 0, 72, 77
2,6072, Note_on_c, 0, 69, 0
2,6089, Note_on_c, 0, 72, 0
2,6171, Note_on_c, 0, 67, 72
2,6174, Note_on_c, 0, 79, 85
2,6287, Note_on_c, 0, 67, 0
2,6311, Note_on_c, 0, 69, 76
2,6345, Note_on_c, 0, 79, 0
2,6355, Note_on_c, 0, 69, 0
2,6459, Note_on_c, 0, 71, 73
2,6477, Note_on_c, 0, 65, 74
2,6503, Note_on_c, 0, 71, 0
2,6516, Note_on_c, 0, 65, 0
2,6606, Note_on_c, 0, 72, 72
2,6620, Note_on_c, 0, 64, 77
2,6741, Note_on_c, 0, 64, 0
2,6758, Note_on_c, 0, 62, 72
2,6823, Note_on_c, 0, 62, 0
2,6912, Note_on_c, 0, 60, 79
2,6970, Note_on_c, 0, 60, 0
2,7060, Note_on_c, 0, 62, 73
2,7161, Note_on_c, 0, 62, 0
2,7182, Note_on_c, 0, 72, 0
2,7202, Note_on_c, 0, 64, 74
2,7202, Note_on_c, 0, 70, 72
2,7249, Note_on_c, 0, 64, 0
2,7249, Note_on_c, 0, 70, 0
2,7351, Note_on_c, 0, 66, 69
2,7353, Note_on_c, 0, 69, 71
2,7397, Note_on_c, 0, 66, 0
2,7411, Control_c, 0, 67, 14
2,7415, Note_on_c, 0, 69, 0
2,7431, Control_c, 0, 67, 22
2,7449, Control_c, 0, 67, 30
2,7469, Control_c, 0, 67, 36
2,7488, Control_c, 0, 67, 40
2,7507, Control_c, 0, 67, 41
2,7514, Note_on_c, 0, 67, 54
2,7519, Note_on_c, 0, 70, 68
2,7526, Control_c, 0, 67, 42
2,7546, Control_c, 0, 67, 42
2,7565, Control_c, 0, 67, 44
2,7583, Control_c, 0, 67, 47
2,7603, Control_c, 0, 67, 51
2,7607, Note_on_c, 0, 70, 0
2,7622, Control_c, 0, 67, 57
2,7641, Control_c, 0, 67, 63
2,7660, Control_c, 0, 67, 68
2,7670, Note_on_c, 0, 72, 66
2,7680, Control_c, 0, 67, 77
2,7699, Control_c, 0, 67, 85
2,7718, Control_c, 0, 67, 95
2,7737, Control_c, 0, 67, 105
2,7757, Control_c, 0, 67, 116
2,7776, Control_c, 0, 67, 126
2,7795, Control_c, 0, 67, 127
2,7817, Note_on_c, 0, 74, 65
2,7820, Note_on_c, 0, 72, 0
2,7981, Note_on_c, 0, 75, 71
2,8002, Note_on_c, 0, 74, 0
2,8061, Control_c, 0, 67, 127
2,8081, Control_c, 0, 67, 126
2,8100, Control_c, 0, 67, 126
2,8136, Note_on_c, 0, 65, 58
2,8138, Control_c, 0, 67, 125
2,8155, Note_on_c, 0, 67, 0
2,8177, Control_c, 0, 67, 125
2,8196, Control_c, 0, 67, 124
2,8215, Control_c, 0, 67, 123
2,8235, Control_c, 0, 67, 122
2,8254, Control_c, 0, 67, 122
2,8289, Note_on_c, 0, 65, 0
2,8292, Control_c, 0, 67, 121
2,8293, Note_on_c, 0, 63, 63
2,8312, Control_c, 0, 67, 120
2,8331, Control_c, 0, 67, 117
2,8350, Control_c, 0, 67, 112
2,8369, Control_c, 0, 67, 106
2,8389, Control_c, 0, 64, 8
2,8389, Control_c, 0, 67, 101
2,8407, Control_c, 0, 67, 96
2,8427, Control_c, 0, 67, 92
2,8434, Note_on_c, 0, 63, 0
2,8443, Note_on_c, 0, 65, 63
2,8446, Control_c, 0, 67, 87
2,8466, Control_c, 0, 67, 81
2,8484, Control_c, 0, 67, 73
2,8503, Control_c, 0, 67, 65
2,8523, Control_c, 0, 67, 60
2,8541, Control_c, 0, 67, 57
2,8556, Note_on_c, 0, 65, 0
2,8561, Control_c, 0, 67, 55
2,8580, Control_c, 0, 67, 54
2,8590, Note_on_c, 0, 67, 63
2,8593, Note_on_c, 0, 74, 71
2,8600, Control_c, 0, 67, 52
2,8618, Control_c, 0, 67, 50
2,8638, Control_c, 0, 67, 49
2,8645, Note_on_c, 0, 75, 0
2,8657, Control_c, 0, 67, 48
2,8695, Control_c, 0, 67, 48
2,8727, Note_on_c, 0, 67, 0
2,8736, Note_on_c, 0, 69, 70
2,8742, Note_on_c, 0, 72, 77
2,8756, Control_c, 0, 67, 48
2,8759, Note_on_c, 0, 74, 0
2,8833, Control_c, 0, 67, 49
2,8835, Note_on_c, 0, 69, 0
2,8852, Control_c, 0, 67, 50
2,8886, Note_on_c, 0, 70, 64
2,8900, Note_on_c, 0, 74, 75
2,8910, Control_c, 0, 67, 51
2,8922, Note_on_c, 0, 72, 0
2,8967, Control_c, 0, 64, 11
2,8967, Control_c, 0, 67, 51
2,9023, Control_c, 0, 67, 52
2,9043, Control_c, 0, 64, 13
2,9052, Note_on_c, 0, 76, 79
2,9085, Note_on_c, 0, 74, 0
2,9100, Control_c, 0, 67, 52
2,9120, Control_c, 0, 64, 14
2,9139, Control_c, 0, 67, 53
2,9158, Control_c, 0, 67, 53
2,9164, Note_on_c, 0, 76, 0
2,9205, Note_on_c, 0, 77, 76
2,9235, Control_c, 0, 64, 16
2,9235, Control_c, 0, 67, 54
2,9274, Control_c, 0, 64, 17
2,9274, Control_c, 0, 67, 54
2,9331, Control_c, 0, 64, 18
2,9361, Note_on_c, 0, 79, 79
2,9369, Control_c, 0, 64, 19
2,9387, Note_on_c, 0, 77, 0
2,9408, Control_c, 0, 64, 20
2,9466, Control_c, 0, 64, 21
2,9503, Control_c, 0, 67, 54
2,9523, Control_c, 0, 64, 22
2,9527, Note_on_c, 0, 69, 64
2,9532, Note_on_c, 0, 70, 0
2,9580, Control_c, 0, 67, 53
2,9619, Control_c, 0, 67, 53
2,9638, Control_c, 0, 67, 52
2,9662, Note_on_c, 0, 69, 0
2,9667, Note_on_c, 0, 67, 66
2,9677, Control_c, 0, 67, 52
2,9696, Control_c, 0, 67, 51
2,9715, Control_c, 0, 67, 50
2,9734, Control_c, 0, 67, 49
2,9754, Control_c, 0, 67, 48
2,9772, Control_c, 0, 67, 47
2,9792, Control_c, 0, 67, 46
2,9811, Control_c, 0, 67, 45
2,9824, Note_on_c, 0, 69, 69
2,9831, Control_c, 0, 67, 40
2,9839, Note_on_c, 0, 67, 0
2,9849, Control_c, 0, 67, 34
2,9869, Control_c, 0, 67, 30
2,9888, Control_c, 0, 67, 26
2,9907, Control_c, 0, 67, 22
2,9926, Control_c, 0, 67, 16
2,9946, Control_c, 0, 67, 10
2,9959, Note_on_c, 0, 69, 0
2,9965, Control_c, 0, 67, 0
2,9965, Note_on_c, 0, 71, 79
2,9972, Note_on_c, 0, 77, 80
2,10024, Note_on_c, 0, 79, 0
2,10060, Note_on_c, 0, 71, 0
2,10080, Note_on_c, 0, 77, 0
2,10104, Note_on_c, 0, 73, 76
2,10128, Note_on_c, 0, 76, 84
2,10205, Note_on_c, 0, 76, 0
2,10234, Note_on_c, 0, 73, 0
2,10273, Note_on_c, 0, 77, 83
2,10274, Note_on_c, 0, 74, 71
2,10418, Note_on_c, 0, 79, 86
2,10434, Note_on_c, 0, 77, 0
2,10484, Note_on_c, 0, 79, 0
2,10568, Note_on_c, 0, 81, 90
2,10635, Note_on_c, 0, 81, 0
2,10729, Note_on_c, 0, 82, 90
2,10882, Note_on_c, 0, 74, 0
2,10888, Note_on_c, 0, 72, 75
2,10906, Control_c, 0, 64, 23
2,10963, Note_on_c, 0, 72, 0
2,11043, Note_on_c, 0, 70, 86
2,11088, Note_on_c, 0, 70, 0
2,11190, Note_on_c, 0, 72, 94
2,11190, Note_on_c, 0, 82, 0
2,11286, Note_on_c, 0, 72, 0
2,11325, Note_on_c, 0, 81, 82
2,11329, Note_on_c, 0, 74, 70
2,11380, Note_on_c, 0, 74, 0
2,11401, Note_on_c, 0, 81, 0
2,11469, Note_on_c, 0, 79, 76
2,11476, Note_on_c, 0, 76, 66
2,11511, Note_on_c, 0, 76, 0
2,11520, Note_on_c, 0, 79, 0
2,11632, Note_on_c, 0, 53, 87
2,11637, Note_on_c, 0, 81, 83
2,11639, Note_on_c, 0, 77, 74
2,11763, Note_on_c, 0, 81, 0
2,11775, Note_on_c, 0, 53, 0
2,11777, Note_on_c, 0, 52, 73
2,11777, Note_on_c, 0, 82, 72
2,11837, Note_on_c, 0, 52, 0
2,11850, Note_on_c, 0, 82, 0
2,11916, Note_on_c, 0, 81, 74
2,11926, Note_on_c, 0, 53, 80
2,11954, Note_on_c, 0, 81, 0
2,11965, Note_on_c, 0, 53, 0
2,12056, Control_c, 0, 64, 22
2,12081, Note_on_c, 0, 60, 82
2,12109, Note_on_c, 0, 79, 63
2,12110, Note_on_c, 0, 81, 59
2,12126, Note_on_c, 0, 77, 0
2,12133, Control_c, 0, 64, 21
2,12166, Note_on_c, 0, 81, 0
2,12205, Note_on_c, 0, 60, 0
2,12230, Control_c, 0, 67, 17
2,12245, Note_on_c, 0, 76, 67
2,12248, Control_c, 0, 67, 29
2,12268, Control_c, 0, 67, 43
2,12279, Note_on_c, 0, 79, 0
2,12287, Control_c, 0, 67, 60
2,12306, Control_c, 0, 67, 75
2,12316, Note_on_c, 0, 76, 0
2,12325, Control_c, 0, 67, 89
2,12344, Control_c, 0, 67, 101
2,12364, Control_c, 0, 67, 108
2,12377, Note_on_c, 0, 74, 67
2,12382, Control_c, 0, 67, 108
2,12402, Control_c, 0, 67, 107
2,12421, Control_c, 0, 67, 104
2,12441, Control_c, 0, 67, 103
2,12459, Control_c, 0, 67, 102
2,12470, Note_on_c, 0, 74, 0
2,12479, Control_c, 0, 67, 101
2,12498, Control_c, 0, 67, 100
2,12516, Note_on_c, 0, 72, 79
2,12517, Control_c, 0, 67, 99
2,12519, Note_on_c, 0, 57, 84
2,12536, Control_c, 0, 67, 98
2,12556, Control_c, 0, 67, 97
2,12575, Control_c, 0, 67, 96
2,12594, Control_c, 0, 67, 96
2,12613, Control_c, 0, 67, 95
2,12629, Note_on_c, 0, 57, 0
2,12633, Control_c, 0, 67, 94
2,12651, Control_c, 0, 67, 93
2,12670, Note_on_c, 0, 55, 74
2,12671, Control_c, 0, 67, 92
2,12671, Note_on_c, 0, 84, 65
2,12690, Control_c, 0, 64, 20
2,12690, Control_c, 0, 67, 90
2,12707, Note_on_c, 0, 84, 0
2,12710, Control_c, 0, 67, 87
2,12728, Control_c, 0, 67, 85
2,12733, Note_on_c, 0, 55, 0
2,12748, Control_c, 0, 67, 83
2,12767, Control_c, 0, 67, 81
2,12785, Control_c, 0, 67, 78
2,12805, Control_c, 0, 67, 76
2,12824, Control_c, 0, 67, 73
2,12825, Note_on_c, 0, 57, 82
2,12844, Control_c, 0, 67, 71
2,12854, Note_on_c, 0, 76, 40
2,12862, Control_c, 0, 67, 68
2,12873, Note_on_c, 0, 57, 0
2,12882, Control_c, 0, 67, 66
2,12891, Note_on_c, 0, 76, 0
2,12897, Note_on_c, 0, 72, 0
2,12901, Control_c, 0, 67, 65
2,12979, Note_on_c, 0, 77, 59
2,12982, Note_on_c, 0, 62, 85
2,13016, Control_c, 0, 67, 65
2,13093, Control_c, 0, 67, 66
2,13113, Control_c, 0, 67, 66
2,13120, Note_on_c, 0, 62, 0
2,13126, Note_on_c, 0, 69, 68
2,13140, Note_on_c, 0, 77, 0
2,13151, Control_c, 0, 67, 67
2,13263, Note_on_c, 0, 70, 72
2,13304, Control_c, 0, 67, 67
2,13323, Note_on_c, 0, 69, 0
2,13414, Note_on_c, 0, 60, 83
2,13419, Control_c, 0, 67, 68
2,13436, Note_on_c, 0, 76, 57
2,13547, Note_on_c, 0, 70, 0
2,13558, Note_on_c, 0, 60, 0
2,13564, Note_on_c, 0, 62, 79
2,13593, Control_c, 0, 67, 67
2,13596, Note_on_c, 0, 77, 71
2,13617, Note_on_c, 0, 76, 0
2,13628, Note_on_c, 0, 62, 0
2,13635, Note_on_c, 0, 77, 0
2,13688, Control_c, 0, 67, 67
2,13710, Note_on_c, 0, 64, 87
2,13728, Note_on_c, 0, 79, 74
2,13761, Note_on_c, 0, 79, 0
2,13766, Note_on_c, 0, 64, 0
2,13822, Control_c, 0, 67, 67
2,13865, Note_on_c, 0, 65, 79
2,13881, Note_on_c, 0, 69, 74
2,13882, Note_on_c, 0, 72, 75
2,13899, Control_c, 0, 67, 68
2,13957, Control_c, 0, 67, 68
2,13996, Control_c, 0, 67, 68
2,14018, Note_on_c, 0, 64, 79
2,14022, Note_on_c, 0, 65, 0
2,14034, Note_on_c, 0, 72, 0
2,14046, Note_on_c, 0, 69, 0
2,14082, Note_on_c, 0, 64, 0
2,14111, Control_c, 0, 67, 67
2,14166, Note_on_c, 0, 77, 76
2,14168, Note_on_c, 0, 62, 78
2,14170, Note_on_c, 0, 70, 76
2,14211, Note_on_c, 0, 70, 0
2,14211, Note_on_c, 0, 77, 0
2,14215, Note_on_c, 0, 62, 0
2,14225, Control_c, 0, 67, 67
2,14316, Note_on_c, 0, 77, 84
2,14322, Note_on_c, 0, 60, 72
2,14324, Note_on_c, 0, 69, 73
2,14399, Control_c, 0, 67, 67
2,14442, Note_on_c, 0, 60, 0
2,14469, Note_on_c, 0, 62, 69
2,14473, Note_on_c, 0, 69, 0
2,14473, Note_on_c, 0, 77, 0
2,14513, Note_on_c, 0, 62, 0
2,14571, Control_c, 0, 67, 67
2,14615, Note_on_c, 0, 67, 73
2,14619, Note_on_c, 0, 76, 63
2,14629, Note_on_c, 0, 58, 73
2,14655, Note_on_c, 0, 74, 35
2,14659, Note_on_c, 0, 67, 0
2,14675, Note_on_c, 0, 58, 0
2,14682, Note_on_c, 0, 76, 0
2,14695, Note_on_c, 0, 74, 0
2,14777, Note_on_c, 0, 57, 75
2,14781, Note_on_c, 0, 77, 75
2,14782, Note_on_c, 0, 72, 76
2,14814, Note_on_c, 0, 74, 32
2,14860, Note_on_c, 0, 74, 0
2,14891, Note_on_c, 0, 57, 0
2,14919, Note_on_c, 0, 70, 78
2,14929, Note_on_c, 0, 55, 67
2,14929, Note_on_c, 0, 72, 0
2,14973, Note_on_c, 0, 70, 0
2,15013, Control_c, 0, 67, 67
2,15040, Note_on_c, 0, 77, 0
2,15045, Note_on_c, 0, 55, 0
2,15051, Control_c, 0, 67, 68
2,15053, Note_on_c, 0, 69, 81
2,15056, Note_on_c, 0, 53, 58
2,15071, Control_c, 0, 67, 68
2,15096, Note_on_c, 0, 53, 0
2,15128, Control_c, 0, 67, 69
2,15129, Note_on_c, 0, 69, 0
2,15148, Control_c, 0, 67, 70
2,15167, Control_c, 0, 67, 70
2,15217, Note_on_c, 0, 67, 75
2,15244, Control_c, 0, 67, 71
2,15277, Note_on_c, 0, 57, 27
2,15301, Control_c, 0, 67, 71
2,15307, Note_on_c, 0, 58, 47
2,15324, Note_on_c, 0, 57, 0
2,15367, Note_on_c, 0, 67, 0
2,15367, Note_on_c, 0, 69, 80
2,15397, Control_c, 0, 64, 21
2,15436, Note_on_c, 0, 69, 0
2,15456, Control_c, 0, 67, 72
2,15507, Note_on_c, 0, 65, 71
2,15545, Note_on_c, 0, 65, 0
2,15552, Control_c, 0, 67, 71
2,15591, Control_c, 0, 67, 71
2,15629, Control_c, 0, 67, 70
2,15646, Note_on_c, 0, 79, 89
2,15667, Control_c, 0, 67, 70
2,15670, Note_on_c, 0, 64, 63
2,15705, Control_c, 0, 67, 69
2,15724, Control_c, 0, 67, 69
2,15753, Note_on_c, 0, 79, 0
2,15762, Control_c, 0, 67, 68
2,15776, Note_on_c, 0, 64, 0
2,15801, Note_on_c, 0, 77, 82
2,15815, Note_on_c, 0, 62, 65
2,15873, Note_on_c, 0, 62, 0
2,15876, Note_on_c, 0, 77, 0
2,15890, Note_on_c, 0, 58, 0
2,15937, Note_on_c, 0, 60, 70
2,15971, Note_on_c, 0, 76, 59
2,15984, Note_on_c, 0, 60, 0
2,15993, Control_c, 0, 64, 20
2,16013, Note_on_c, 0, 76, 0
2,16070, Control_c, 0, 67, 69
2,16088, Control_c, 0, 67, 70
2,16100, Note_on_c, 0, 74, 61
2,16108, Control_c, 0, 67, 71
2,16112, Note_on_c, 0, 66, 66
2,16115, Note_on_c, 0, 57, 64
2,16127, Control_c, 0, 67, 72
2,16145, Control_c, 0, 67, 74
2,16165, Control_c, 0, 67, 76
2,16184, Control_c, 0, 67, 78
2,16185, Note_on_c, 0, 74, 0
2,16204, Control_c, 0, 67, 79
2,16222, Control_c, 0, 67, 81
2,16242, Control_c, 0, 67, 83
2,16246, Note_on_c, 0, 75, 78
2,16250, Note_on_c, 0, 66, 0
2,16261, Control_c, 0, 67, 84
2,16275, Note_on_c, 0, 57, 0
2,16281, Control_c, 0, 67, 85
2,16299, Control_c, 0, 67, 85
2,16301, Note_on_c, 0, 75, 0
2,16338, Control_c, 0, 67, 86
2,16357, Control_c, 0, 67, 88
2,16376, Control_c, 0, 67, 92
2,16394, Note_on_c, 0, 72, 75
2,16398, Control_c, 0, 67, 96
2,16416, Control_c, 0, 67, 100
2,16436, Control_c, 0, 67, 104
2,16446, Note_on_c, 0, 72, 0
2,16455, Control_c, 0, 67, 108
2,16475, Control_c, 0, 67, 113
2,16493, Control_c, 0, 67, 118
2,16513, Control_c, 0, 67, 122
2,16532, Control_c, 0, 67, 126
2,16545, Note_on_c, 0, 55, 64
2,16548, Note_on_c, 0, 70, 80
2,16551, Control_c, 0, 67, 127
2,16561, Note_on_c, 0, 67, 59
2,16609, Note_on_c, 0, 67, 0
2,16681, Note_on_c, 0, 55, 0
2,16686, Control_c, 0, 67, 126
2,16692, Note_on_c, 0, 53, 64
2,16697, Note_on_c, 0, 69, 75
2,16704, Control_c, 0, 67, 125
2,16714, Note_on_c, 0, 70, 0
2,16724, Control_c, 0, 67, 125
2,16743, Control_c, 0, 67, 124
2,16745, Note_on_c, 0, 53, 0
2,16752, Note_on_c, 0, 69, 0
2,16781, Control_c, 0, 67, 123
2,16801, Control_c, 0, 67, 122
2,16820, Control_c, 0, 67, 122
2,16836, Note_on_c, 0, 67, 71
2,16851, Note_on_c, 0, 52, 63
2,16888, Note_on_c, 0, 67, 0
2,16893, Note_on_c, 0, 52, 0
2,16935, Control_c, 0, 64, 19
2,16935, Control_c, 0, 67, 121
2,16955, Control_c, 0, 67, 121
2,17000, Note_on_c, 0, 50, 57
2,17001, Note_on_c, 0, 69, 68
2,17006, Note_on_c, 0, 65, 53
2,17050, Control_c, 0, 67, 120
2,17099, Note_on_c, 0, 50, 0
2,17141, Note_on_c, 0, 52, 60
2,17197, Note_on_c, 0, 52, 0
2,17207, Note_on_c, 0, 69, 0
2,17300, Note_on_c, 0, 74, 57
2,17301, Note_on_c, 0, 48, 52
2,17352, Note_on_c, 0, 74, 0
2,17355, Note_on_c, 0, 48, 0
2,17446, Note_on_c, 0, 67, 61
2,17456, Note_on_c, 0, 47, 56
2,17559, Note_on_c, 0, 47, 0
2,17609, Note_on_c, 0, 45, 51
2,17682, Note_on_c, 0, 45, 0
2,17688, Note_on_c, 0, 67, 0
2,17743, Note_on_c, 0, 43, 53
2,17753, Note_on_c, 0, 65, 0
2,17753, Note_on_c, 0, 74, 62
2,17785, Note_on_c, 0, 43, 0
2,17808, Note_on_c, 0, 74, 0
2,17902, Note_on_c, 0, 48, 79
2,17902, Note_on_c, 0, 67, 69
2,17905, Note_on_c, 0, 64, 64
2,17911, Control_c, 0, 67, 121
2,18026, Control_c, 0, 67, 120
2,18039, Note_on_c, 0, 47, 80
2,18053, Note_on_c, 0, 48, 0
2,18064, Control_c, 0, 64, 20
2,18075, Note_on_c, 0, 67, 0
2,18083, Control_c, 0, 67, 119
2,18103, Control_c, 0, 67, 116
2,18106, Note_on_c, 0, 47, 0
2,18122, Control_c, 0, 67, 112
2,18141, Control_c, 0, 67, 107
2,18160, Control_c, 0, 67, 98
2,18180, Control_c, 0, 67, 88
2,18184, Note_on_c, 0, 76, 66
2,18190, Note_on_c, 0, 48, 84
2,18198, Control_c, 0, 67, 76
2,18218, Control_c, 0, 67, 64
2,18237, Control_c, 0, 67, 55
2,18243, Note_on_c, 0, 48, 0
2,18257, Control_c, 0, 67, 47
2,18275, Control_c, 0, 67, 42
2,18294, Control_c, 0, 67, 38
2,18314, Control_c, 0, 67, 37
2,18333, Control_c, 0, 67, 36
2,18350, Note_on_c, 0, 69, 73
2,18352, Note_on_c, 0, 64, 0
2,18355, Note_on_c, 0, 53, 80
2,18360, Note_on_c, 0, 76, 0
2,18448, Control_c, 0, 67, 37
2,18468, Control_c, 0, 67, 38
2,18486, Control_c, 0, 67, 38
2,18492, Note_on_c, 0, 53, 0
2,18513, Note_on_c, 0, 73, 68
2,18525, Control_c, 0, 67, 39
2,18544, Control_c, 0, 67, 40
2,18563, Control_c, 0, 67, 41
2,18583, Control_c, 0, 67, 42
2,18605, Note_on_c, 0, 73, 0
2,18621, Control_c, 0, 67, 43
2,18640, Control_c, 0, 67, 43
2,18666, Note_on_c, 0, 74, 55
2,18717, Control_c, 0, 67, 44
2,18741, Note_on_c, 0, 74, 0
2,18801, Note_on_c, 0, 52, 82
2,18809, Note_on_c, 0, 67, 65
2,18837, Note_on_c, 0, 69, 0
2,18928, Control_c, 0, 67, 44
2,18950, Note_on_c, 0, 52, 0
2,18955, Note_on_c, 0, 50, 73
2,18971, Note_on_c, 0, 71, 66
2,19009, Note_on_c, 0, 50, 0
2,19016, Note_on_c, 0, 67, 0
2,19043, Control_c, 0, 67, 44
2,19099, Note_on_c, 0, 52, 73
2,19103, Note_on_c, 0, 72, 72
2,19121, Note_on_c, 0, 71, 0
2,19140, Control_c, 0, 67, 43
2,19145, Note_on_c, 0, 52, 0
2,19147, Note_on_c, 0, 72, 0
2,19217, Control_c, 0, 67, 43
2,19254, Control_c, 0, 67, 42
2,19263, Note_on_c, 0, 57, 77
2,19263, Note_on_c, 0, 65, 67
2,19296, Control_c, 0, 67, 42
2,19396, Note_on_c, 0, 57, 0
2,19421, Note_on_c, 0, 76, 68
2,19514, Note_on_c, 0, 76, 0
2,19581, Note_on_c, 0, 77, 63
2,19637, Note_on_c, 0, 77, 0
2,19713, Note_on_c, 0, 55, 78
2,19729, Note_on_c, 0, 71, 69
2,19848, Note_on_c, 0, 71, 0
2,19859, Note_on_c, 0, 57, 83
2,19862, Note_on_c, 0, 55, 0
2,19882, Note_on_c, 0, 72, 58
2,19923, Note_on_c, 0, 57, 0
2,19966, Note_on_c, 0, 72, 0
2,20019, Note_on_c, 0, 59, 95
2,20034, Note_on_c, 0, 74, 18
2,20073, Note_on_c, 0, 74, 0
2,20082, Note_on_c, 0, 59, 0
2,20160, Control_c, 0, 67, 42
2,20165, Note_on_c, 0, 60, 86
2,20181, Note_on_c, 0, 67, 64
2,20183, Note_on_c, 0, 65, 0
2,20198, Control_c, 0, 67, 43
2,20283, Note_on_c, 0, 67, 0
2,20293, Control_c, 0, 67, 43
2,20315, Note_on_c, 0, 60, 0
2,20319, Note_on_c, 0, 59, 78
2,20323, Note_on_c, 0, 64, 73
2,20372, Note_on_c, 0, 64, 0
2,20373, Note_on_c, 0, 59, 0
2,20467, Note_on_c, 0, 57, 77
2,20472, Note_on_c, 0, 72, 77
2,20476, Note_on_c, 0, 65, 64
2,20515, Note_on_c, 0, 57, 0
2,20515, Note_on_c, 0, 65, 0
2,20527, Note_on_c, 0, 72, 0
2,20617, Note_on_c, 0, 72, 77
2,20619, Note_on_c, 0, 55, 66
2,20637, Note_on_c, 0, 64, 59
2,20746, Note_on_c, 0, 55, 0
2,20770, Note_on_c, 0, 57, 68
2,20775, Note_on_c, 0, 64, 0
2,20806, Note_on_c, 0, 72, 0
2,20821, Note_on_c, 0, 57, 0
2,20908, Note_on_c, 0, 71, 78
2,20921, Note_on_c, 0, 53, 62
2,20924, Note_on_c, 0, 62, 55
2,20953, Note_on_c, 0, 62, 0
2,20966, Note_on_c, 0, 53, 0
2,20970, Note_on_c, 0, 71, 0
2,21076, Note_on_c, 0, 52, 57
2,21076, Note_on_c, 0, 72, 80
2,21105, Note_on_c, 0, 60, 55
2,21230, Note_on_c, 0, 52, 0
2,21236, Note_on_c, 0, 53, 62
2,21305, Note_on_c, 0, 53, 0
2,21328, Control_c, 0, 67, 44
2,21348, Control_c, 0, 67, 44
2,21390, Note_on_c, 0, 50, 58
2,21395, Note_on_c, 0, 67, 64
2,21409, Note_on_c, 0, 72, 0
2,21432, Note_on_c, 0, 50, 0
2,21463, Control_c, 0, 67, 45
2,21485, Note_on_c, 0, 67, 0
2,21552, Note_on_c, 0, 70, 82
2,21556, Note_on_c, 0, 48, 57
2,21654, Control_c, 0, 67, 45
2,21685, Note_on_c, 0, 48, 0
2,21693, Control_c, 0, 67, 46
2,21711, Note_on_c, 0, 50, 59
2,21731, Control_c, 0, 67, 46
2,21783, Note_on_c, 0, 50, 0
2,21789, Control_c, 0, 67, 47
2,21857, Note_on_c, 0, 67, 71
2,21873, Note_on_c, 0, 52, 62
2,21907, Note_on_c, 0, 70, 0
2,21918, Note_on_c, 0, 52, 0
2,22036, Note_on_c, 0, 53, 64
2,22036, Note_on_c, 0, 69, 80
2,22134, Control_c, 0, 67, 46
2,22170, Note_on_c, 0, 67, 0
2,22173, Note_on_c, 0, 60, 0
2,22192, Control_c, 0, 67, 46
2,22203, Note_on_c, 0, 55, 58
2,22204, Note_on_c, 0, 53, 0
2,22231, Control_c, 0, 67, 45
2,22253, Note_on_c, 0, 55, 0
2,22288, Control_c, 0, 67, 45
2,22329, Control_c, 0, 64, 19
2,22331, Note_on_c, 0, 60, 63
2,22359, Note_on_c, 0, 52, 63
2,22383, Note_on_c, 0, 60, 0
2,22403, Note_on_c, 0, 52, 0
2,22502, Control_c, 0, 67, 45
2,22509, Note_on_c, 0, 65, 71
2,22517, Note_on_c, 0, 50, 63
2,22521, Control_c, 0, 64, 18
2,22521, Control_c, 0, 67, 47
2,22540, Control_c, 0, 67, 48
2,22560, Control_c, 0, 67, 49
2,22579, Control_c, 0, 67, 52
2,22598, Control_c, 0, 67, 55
2,22617, Control_c, 0, 67, 63
2,22637, Control_c, 0, 67, 71
2,22656, Control_c, 0, 67, 80
2,22660, Note_on_c, 0, 50, 0
2,22664, Note_on_c, 0, 52, 65
2,22675, Control_c, 0, 67, 88
2,22694, Control_c, 0, 67, 98
2,22714, Control_c, 0, 67, 108
2,22727, Note_on_c, 0, 52, 0
2,22732, Control_c, 0, 67, 112
2,22752, Control_c, 0, 67, 113
2,22791, Control_c, 0, 67, 112
2,22791, Note_on_c, 0, 69, 0
2,22809, Control_c, 0, 67, 111
2,22812, Note_on_c, 0, 74, 72
2,22829, Control_c, 0, 67, 110
2,22835, Note_on_c, 0, 53, 73
2,22848, Control_c, 0, 67, 109
2,22866, Control_c, 0, 67, 109
2,22878, Note_on_c, 0, 53, 0
2,22886, Control_c, 0, 67, 108
2,22895, Note_on_c, 0, 74, 0
2,22905, Control_c, 0, 67, 107
2,22943, Control_c, 0, 67, 106
2,22963, Control_c, 0, 67, 106
2,22981, Note_on_c, 0, 67, 65
2,22982, Control_c, 0, 67, 105
2,22988, Note_on_c, 0, 55, 69
2,23040, Control_c, 0, 67, 105
2,23059, Control_c, 0, 67, 104
2,23078, Control_c, 0, 67, 104
2,23137, Note_on_c, 0, 57, 69
2,23142, Note_on_c, 0, 55, 0
2,23183, Note_on_c, 0, 57, 0
2,23206, Note_on_c, 0, 65, 0
2,23231, Control_c, 0, 67, 103
2,23250, Control_c, 0, 67, 103
2,23284, Note_on_c, 0, 59, 64
2,23296, Note_on_c, 0, 53, 66
2,23307, Control_c, 0, 67, 102
2,23319, Note_on_c, 0, 59, 0
2,23333, Note_on_c, 0, 53, 0
2,23345, Control_c, 0, 64, 17
2,23437, Note_on_c, 0, 52, 65
2,23437, Note_on_c, 0, 60, 75
2,23461, Control_c, 0, 64, 16
2,23575, Note_on_c, 0, 52, 0
2,23586, Note_on_c, 0, 53, 64
2,23604, Note_on_c, 0, 62, 71
2,23619, Note_on_c, 0, 60, 0
2,23634, Control_c, 0, 67, 103
2,23647, Note_on_c, 0, 53, 0
2,23665, Note_on_c, 0, 62, 0
2,23723, Note_on_c, 0, 67, 0
2,23735, Note_on_c, 0, 64, 76
2,23738, Note_on_c, 0, 55, 63
2,23750, Control_c, 0, 67, 103
2,23770, Note_on_c, 0, 64, 0
2,23774, Note_on_c, 0, 55, 0
2,23807, Control_c, 0, 67, 104
2,23845, Control_c, 0, 67, 104
2,23864, Control_c, 0, 67, 105
2,23884, Control_c, 0, 67, 106
2,23889, Note_on_c, 0, 72, 80
2,23891, Note_on_c, 0, 65, 71
2,23902, Control_c, 0, 67, 107
2,23904, Note_on_c, 0, 57, 61
2,23922, Control_c, 0, 67, 109
2,23941, Control_c, 0, 67, 110
2,23961, Control_c, 0, 67, 110
2,23979, Control_c, 0, 67, 111
2,23999, Control_c, 0, 67, 113
2,24018, Control_c, 0, 67, 114
2,24037, Control_c, 0, 67, 115
2,24050, Note_on_c, 0, 67, 69
2,24051, Note_on_c, 0, 55, 64
2,24051, Note_on_c, 0, 57, 0
2,24051, Note_on_c, 0, 65, 0
2,24064, Control_c, 0, 67, 120
2,24083, Control_c, 0, 67, 127
2,24111, Note_on_c, 0, 55, 0
2,24123, Note_on_c, 0, 67, 0
2,24212, Note_on_c, 0, 69, 70
2,24219, Note_on_c, 0, 53, 59
2,24261, Note_on_c, 0, 53, 0
2,24296, Note_on_c, 0, 72, 0
2,24304, Note_on_c, 0, 69, 0
2,24364, Note_on_c, 0, 55, 59
2,24370, Note_on_c, 0, 62, 63
2,24440, Note_on_c, 0, 55, 0
2,24471, Note_on_c, 0, 62, 0
2,24506, Note_on_c, 0, 72, 66
2,24606, Note_on_c, 0, 72, 0
2,24654, Note_on_c, 0, 71, 67
2,24657, Note_on_c, 0, 43, 54
2,24691, Note_on_c, 0, 43, 0
2,24701, Note_on_c, 0, 71, 0
2,24816, Note_on_c, 0, 72, 69
2,24830, Note_on_c, 0, 64, 65
2,24831, Note_on_c, 0, 60, 78
2,24871, Control_c, 0, 64, 17
2,24892, Note_on_c, 0, 64, 0
2,24975, Note_on_c, 0, 60, 0
2,24976, Note_on_c, 0, 59, 78
2,24976, Note_on_c, 0, 67, 68
2,25019, Note_on_c, 0, 59, 0
2,25023, Note_on_c, 0, 67, 0
2,25119, Note_on_c, 0, 65, 68
2,25123, Note_on_c, 0, 57, 72
2,25167, Note_on_c, 0, 65, 0
2,25171, Note_on_c, 0, 57, 0
2,25270, Note_on_c, 0, 64, 68
2,25272, Note_on_c, 0, 55, 63
2,25354, Note_on_c, 0, 55, 0
2,25410, Note_on_c, 0, 57, 59
2,25417, Note_on_c, 0, 64, 0
2,25419, Note_on_c, 0, 65, 66
2,25441, Note_on_c, 0, 72, 0
2,25466, Note_on_c, 0, 65, 0
2,25497, Note_on_c, 0, 57, 0
2,25543, Note_on_c, 0, 53, 66
2,25560, Note_on_c, 0, 62, 75
2,25573, Control_c, 0, 64, 18
2,25593, Note_on_c, 0, 62, 0
2,25595, Note_on_c, 0, 53, 0
2,25716, Note_on_c, 0, 79, 93
2,25718, Note_on_c, 0, 52, 57
2,25729, Note_on_c, 0, 60, 52
2,25841, Note_on_c, 0, 52, 0
2,25852, Note_on_c, 0, 77, 81
2,25860, Note_on_c, 0, 50, 56
2,25900, Note_on_c, 0, 79, 0
2,25933, Note_on_c, 0, 77, 0
2,25973, Note_on_c, 0, 50, 0
2,25995, Note_on_c, 0, 48, 46
2,26017, Note_on_c, 0, 76, 81
2,26037, Note_on_c, 0, 48, 0
2,26083, Note_on_c, 0, 76, 0
2,26164, Note_on_c, 0, 74, 71
2,26176, Note_on_c, 0, 53, 60
2,26254, Note_on_c, 0, 74, 0
2,26302, Control_c, 0, 64, 19
2,26307, Note_on_c, 0, 60, 0
2,26317, Note_on_c, 0, 76, 73
2,26373, Note_on_c, 0, 76, 0
2,26462, Note_on_c, 0, 72, 75
2,26476, Control_c, 0, 64, 20
2,26532, Note_on_c, 0, 72, 0
2,26609, Note_on_c, 0, 62, 71
2,26613, Note_on_c, 0, 71, 82
2,26694, Note_on_c, 0, 71, 0
2,26757, Note_on_c, 0, 62, 0
2,26759, Note_on_c, 0, 69, 76
2,26762, Note_on_c, 0, 60, 66
2,26815, Note_on_c, 0, 69, 0
2,26824, Note_on_c, 0, 60, 0
2,26862, Note_on_c, 0, 53, 0
2,26905, Note_on_c, 0, 67, 65
2,26924, Note_on_c, 0, 59, 71
2,26967, Note_on_c, 0, 67, 0
2,26976, Note_on_c, 0, 59, 0
2,27058, Note_on_c, 0, 73, 77
2,27084, Note_on_c, 0, 57, 65
2,27096, Note_on_c, 0, 52, 47
2,27211, Note_on_c, 0, 57, 0
2,27220, Note_on_c, 0, 58, 71
2,27274, Note_on_c, 0, 73, 0
2,27325, Note_on_c, 0, 52, 0
2,27339, Control_c, 0, 64, 21
2,27343, Note_on_c, 0, 58, 0
2,27366, Note_on_c, 0, 55, 69
2,27413, Note_on_c, 0, 55, 0
2,27436, Control_c, 0, 64, 22
2,27529, Note_on_c, 0, 81, 90
2,27551, Control_c, 0, 64, 23
2,27556, Note_on_c, 0, 50, 56
2,27557, Note_on_c, 0, 53, 67
2,27615, Note_on_c, 0, 50, 0
2,27674, Note_on_c, 0, 79, 89
2,27705, Note_on_c, 0, 52, 65
2,27711, Note_on_c, 0, 53, 0
2,27717, Note_on_c, 0, 81, 0
2,27752, Note_on_c, 0, 79, 0
2,27825, Note_on_c, 0, 77, 84
2,27830, Note_on_c, 0, 50, 65
2,27831, Note_on_c, 0, 52, 0
2,27873, Note_on_c, 0, 50, 0
2,27900, Note_on_c, 0, 77, 0
2,27995, Note_on_c, 0, 76, 86
2,28002, Note_on_c, 0, 55, 63
2,28006, Note_on_c, 0, 46, 65
2,28012, Control_c, 0, 64, 24
2,28132, Note_on_c, 0, 77, 83
2,28153, Note_on_c, 0, 76, 0
2,28196, Note_on_c, 0, 77, 0
2,28227, Note_on_c, 0, 46, 0
2,28240, Control_c, 0, 64, 25
2,28280, Note_on_c, 0, 74, 74
2,28297, Control_c, 0, 64, 26
2,28326, Note_on_c, 0, 74, 0
2,28413, Control_c, 0, 64, 26
2,28420, Note_on_c, 0, 73, 79
2,28421, Note_on_c, 0, 45, 48
2,28565, Note_on_c, 0, 71, 73
2,28578, Note_on_c, 0, 55, 0
2,28581, Note_on_c, 0, 73, 0
2,28605, Control_c, 0, 64, 27
2,28607, Note_on_c, 0, 71, 0
2,28704, Note_on_c, 0, 69, 68
2,28757, Note_on_c, 0, 69, 0
2,28866, Note_on_c, 0, 74, 68
2,28890, Note_on_c, 0, 53, 64
2,29020, Note_on_c, 0, 52, 70
2,29028, Note_on_c, 0, 53, 0
2,29073, Note_on_c, 0, 52, 0
2,29158, Note_on_c, 0, 50, 72
2,29207, Note_on_c, 0, 50, 0
2,29310, Note_on_c, 0, 52, 71
2,29390, Note_on_c, 0, 52, 0
2,29479, Note_on_c, 0, 72, 72
2,29487, Note_on_c, 0, 54, 62
2,29522, Note_on_c, 0, 74, 0
2,29527, Note_on_c, 0, 72, 0
2,29529, Note_on_c, 0, 54, 0
2,29585, Control_c, 0, 64, 28
2,29608, Note_on_c, 0, 56, 67
2,29624, Note_on_c, 0, 71, 71
2,29658, Note_on_c, 0, 56, 0
2,29662, Note_on_c, 0, 71, 0
2,29715, Note_on_c, 0, 45, 0
2,29776, Note_on_c, 0, 72, 74
2,29779, Note_on_c, 0, 57, 50
2,29874, Control_c, 0, 64, 28
2,29927, Note_on_c, 0, 46, 60
2,29982, Note_on_c, 0, 46, 0
2,30093, Note_on_c, 0, 48, 65
2,30144, Note_on_c, 0, 48, 0
2,30238, Control_c, 0, 67, 124
2,30245, Note_on_c, 0, 50, 69
2,30257, Control_c, 0, 67, 119
2,30276, Control_c, 0, 67, 114
2,30295, Control_c, 0, 67, 109
2,30315, Control_c, 0, 67, 105
2,30334, Control_c, 0, 67, 100
2,30353, Control_c, 0, 67, 96
2,30372, Control_c, 0, 67, 92
2,30379, Note_on_c, 0, 50, 0
2,30392, Control_c, 0, 67, 88
2,30397, Note_on_c, 0, 52, 70
2,30404, Note_on_c, 0, 70, 77
2,30411, Control_c, 0, 67, 84
2,30419, Note_on_c, 0, 72, 0
2,30426, Note_on_c, 0, 57, 0
2,30430, Control_c, 0, 67, 79
2,30448, Note_on_c, 0, 70, 0
2,30449, Control_c, 0, 67, 75
2,30468, Control_c, 0, 67, 72
2,30479, Note_on_c, 0, 52, 0
2,30487, Control_c, 0, 67, 69
2,30506, Control_c, 0, 67, 67
2,30526, Control_c, 0, 67, 67
2,30555, Note_on_c, 0, 69, 72
2,30558, Note_on_c, 0, 54, 71
2,30606, Note_on_c, 0, 69, 0
2,30612, Note_on_c, 0, 54, 0
2,30697, Note_on_c, 0, 55, 69
2,30716, Note_on_c, 0, 70, 77
2,30718, Control_c, 0, 67, 67
2,30756, Control_c, 0, 67, 68
2,30815, Control_c, 0, 67, 68
2,30853, Note_on_c, 0, 55, 0
2,30854, Note_on_c, 0, 57, 76
2,30913, Note_on_c, 0, 57, 0
2,31002, Note_on_c, 0, 53, 66
2,31002, Note_on_c, 0, 58, 74
2,31041, Note_on_c, 0, 53, 0
2,31045, Control_c, 0, 67, 69
2,31045, Note_on_c, 0, 58, 0
2,31084, Control_c, 0, 67, 69
2,31162, Note_on_c, 0, 60, 72
2,31167, Note_on_c, 0, 52, 64
2,31199, Control_c, 0, 67, 70
2,31246, Note_on_c, 0, 70, 0
2,31312, Note_on_c, 0, 72, 73
2,31333, Control_c, 0, 67, 70
2,31353, Control_c, 0, 64, 29
2,31371, Control_c, 0, 67, 71
2,31376, Note_on_c, 0, 72, 0
2,31391, Control_c, 0, 67, 71
2,31410, Control_c, 0, 67, 72
2,31448, Control_c, 0, 67, 72
2,31461, Note_on_c, 0, 70, 76
2,31467, Control_c, 0, 67, 73
2,31487, Control_c, 0, 67, 73
2,31515, Note_on_c, 0, 70, 0
2,31544, Control_c, 0, 67, 74
2,31551, Note_on_c, 0, 52, 0
2,31564, Control_c, 0, 67, 75
2,31582, Control_c, 0, 67, 75
2,31602, Control_c, 0, 67, 76
2,31613, Note_on_c, 0, 51, 47
2,31615, Note_on_c, 0, 69, 70
2,31621, Control_c, 0, 67, 77
2,31641, Control_c, 0, 67, 78
2,31659, Control_c, 0, 67, 79
2,31679, Control_c, 0, 67, 80
2,31698, Control_c, 0, 67, 81
2,31717, Control_c, 0, 67, 83
2,31736, Control_c, 0, 67, 87
2,31761, Control_c, 0, 67, 93
2,31761, Note_on_c, 0, 69, 0
2,31775, Note_on_c, 0, 70, 67
2,31779, Control_c, 0, 67, 99
2,31799, Control_c, 0, 67, 107
2,31818, Control_c, 0, 67, 113
2,31821, Note_on_c, 0, 70, 0
2,31837, Control_c, 0, 67, 119
2,31856, Control_c, 0, 67, 125
2,31876, Control_c, 0, 67, 127
2,31913, Note_on_c, 0, 67, 64
2,31970, Note_on_c, 0, 67, 0
2,32015, Note_on_c, 0, 51, 0
2,32065, Note_on_c, 0, 66, 62
2,32074, Note_on_c, 0, 50, 47
2,32223, Note_on_c, 0, 64, 65
2,32238, Note_on_c, 0, 66, 0
2,32275, Note_on_c, 0, 64, 0
2,32371, Note_on_c, 0, 62, 53
2,32425, Note_on_c, 0, 62, 0
2,32513, Note_on_c, 0, 60, 0
2,32526, Note_on_c, 0, 67, 56
2,32539, Note_on_c, 0, 58, 51
2,32630, Note_on_c, 0, 58, 0
2,32694, Note_on_c, 0, 57, 55
2,32736, Note_on_c, 0, 57, 0
2,32845, Note_on_c, 0, 55, 59
2,32942, Note_on_c, 0, 55, 0
2,33016, Note_on_c, 0, 57, 52
2,33023, Note_on_c, 0, 50, 0
2,33138, Control_c, 0, 67, 127
2,33139, Note_on_c, 0, 65, 62
2,33159, Note_on_c, 0, 59, 70
2,33161, Note_on_c, 0, 57, 0
2,33180, Note_on_c, 0, 67, 0
2,33193, Note_on_c, 0, 65, 0
2,33226, Note_on_c, 0, 59, 0
2,33297, Note_on_c, 0, 64, 70
2,33300, Note_on_c, 0, 61, 62
2,33340, Note_on_c, 0, 64, 0
2,33351, Note_on_c, 0, 61, 0
2,33453, Note_on_c, 0, 65, 70
2,33460, Note_on_c, 0, 62, 47
2,33579, Control_c, 0, 64, 29
2,33594, Note_on_c, 0, 52, 49
2,33605, Note_on_c, 0, 67, 73
2,33626, Note_on_c, 0, 65, 0
2,33645, Note_on_c, 0, 52, 0
2,33672, Note_on_c, 0, 67, 0
2,33754, Note_on_c, 0, 53, 59
2,33756, Note_on_c, 0, 69, 85
2,33822, Note_on_c, 0, 69, 0
2,33847, Note_on_c, 0, 62, 0
2,33848, Control_c, 0, 64, 30
2,33868, Note_on_c, 0, 53, 0
2,33919, Note_on_c, 0, 70, 80
2,33928, Note_on_c, 0, 55, 48
2,33964, Control_c, 0, 67, 127
2,34041, Control_c, 0, 64, 31
2,34098, Note_on_c, 0, 60, 57
2,34140, Note_on_c, 0, 60, 0
2,34232, Note_on_c, 0, 58, 59
2,34292, Note_on_c, 0, 58, 0
2,34366, Note_on_c, 0, 55, 0
2,34388, Note_on_c, 0, 60, 62
2,34391, Note_on_c, 0, 52, 53
2,34545, Note_on_c, 0, 69, 71
2,34586, Note_on_c, 0, 69, 0
2,34595, Note_on_c, 0, 70, 0
2,34693, Note_on_c, 0, 67, 62
2,34753, Note_on_c, 0, 67, 0
2,34857, Note_on_c, 0, 69, 69
2,34866, Note_on_c, 0, 60, 0
2,34878, Note_on_c, 0, 52, 0
2,34891, Note_on_c, 0, 53, 39
2,35017, Note_on_c, 0, 62, 54
2,35075, Note_on_c, 0, 62, 0
2,35162, Note_on_c, 0, 64, 70
2,35193, Control_c, 0, 67, 125
2,35211, Control_c, 0, 67, 124
2,35219, Note_on_c, 0, 64, 0
2,35231, Control_c, 0, 67, 123
2,35250, Control_c, 0, 67, 122
2,35263, Note_on_c, 0, 69, 0
2,35269, Control_c, 0, 67, 121
2,35288, Control_c, 0, 67, 118
2,35307, Control_c, 0, 67, 113
2,35317, Note_on_c, 0, 65, 78
2,35327, Control_c, 0, 67, 108
2,35346, Control_c, 0, 67, 104
2,35365, Control_c, 0, 64, 30
2,35365, Control_c, 0, 67, 101
2,35384, Control_c, 0, 67, 97
2,35404, Control_c, 0, 67, 92
2,35422, Control_c, 0, 67, 87
2,35442, Control_c, 0, 67, 82
2,35461, Control_c, 0, 67, 75
2,35468, Note_on_c, 0, 70, 85
2,35481, Control_c, 0, 67, 72
2,35489, Note_on_c, 0, 53, 0
2,35495, Note_on_c, 0, 55, 64
2,35499, Control_c, 0, 67, 68
2,35519, Control_c, 0, 67, 65
2,35538, Control_c, 0, 67, 61
2,35545, Note_on_c, 0, 70, 0
2,35554, Note_on_c, 0, 55, 0
2,35557, Control_c, 0, 67, 57
2,35576, Control_c, 0, 67, 53
2,35597, Control_c, 0, 67, 49
2,35616, Control_c, 0, 67, 45
2,35621, Note_on_c, 0, 72, 93
2,35635, Control_c, 0, 67, 41
2,35639, Note_on_c, 0, 57, 74
2,35654, Control_c, 0, 67, 36
2,35674, Control_c, 0, 67, 30
2,35676, Note_on_c, 0, 57, 0
2,35692, Control_c, 0, 67, 24
2,35693, Note_on_c, 0, 72, 0
2,35712, Control_c, 0, 67, 16
2,35731, Control_c, 0, 67, 0
2,35742, Note_on_c, 0, 65, 0
2,35781, Note_on_c, 0, 74, 84
2,35796, Note_on_c, 0, 58, 69
2,35946, Note_on_c, 0, 64, 71
2,35999, Note_on_c, 0, 64, 0
2,36096, Note_on_c, 0, 62, 72
2,36162, Note_on_c, 0, 62, 0
2,36226, Note_on_c, 0, 58, 0
2,36244, Note_on_c, 0, 64, 73
2,36245, Note_on_c, 0, 55, 61
2,36397, Note_on_c, 0, 72, 77
2,36420, Note_on_c, 0, 74, 0
2,36472, Note_on_c, 0, 72, 0
2,36544, Note_on_c, 0, 70, 82
2,36612, Note_on_c, 0, 70, 0
2,36692, Note_on_c, 0, 64, 0
2,36722, Note_on_c, 0, 72, 76
2,36736, Note_on_c, 0, 57, 44
2,36757, Note_on_c, 0, 55, 0
2,36875, Note_on_c, 0, 65, 66
2,36935, Note_on_c, 0, 65, 0
2,37021, Note_on_c, 0, 67, 72
2,37112, Note_on_c, 0, 67, 0
2,37120, Note_on_c, 0, 72, 0
2,37175, Note_on_c, 0, 69, 86
2,37329, Note_on_c, 0, 74, 86
2,37333, Note_on_c, 0, 57, 0
2,37341, Note_on_c, 0, 58, 72
2,37406, Note_on_c, 0, 74, 0
2,37416, Note_on_c, 0, 58, 0
2,37479, Note_on_c, 0, 76, 89
2,37488, Note_on_c, 0, 60, 74
2,37525, Note_on_c, 0, 60, 0
2,37554, Note_on_c, 0, 76, 0
2,37640, Note_on_c, 0, 77, 87
2,37658, Note_on_c, 0, 62, 75
2,37780, Note_on_c, 0, 69, 0
2,37806, Note_on_c, 0, 67, 75
2,37856, Note_on_c, 0, 67, 0
2,37861, Control_c, 0, 64, 31
2,37969, Note_on_c, 0, 65, 73
2,38062, Note_on_c, 0, 65, 0
2,38093, Note_on_c, 0, 62, 0
2,38111, Control_c, 0, 67, 11
2,38118, Note_on_c, 0, 59, 68
2,38120, Note_on_c, 0, 67, 75
2,38130, Control_c, 0, 67, 16
2,38149, Control_c, 0, 67, 21
2,38168, Control_c, 0, 67, 27
2,38187, Control_c, 0, 67, 32
2,38207, Control_c, 0, 67, 36
2,38226, Control_c, 0, 67, 38
2,38233, Note_on_c, 0, 77, 0
2,38245, Control_c, 0, 67, 39
2,38277, Note_on_c, 0, 76, 85
2,38284, Control_c, 0, 67, 38
2,38302, Control_c, 0, 67, 37
2,38322, Control_c, 0, 67, 36
2,38341, Control_c, 0, 67, 35
2,38354, Note_on_c, 0, 76, 0
2,38361, Control_c, 0, 67, 34
2,38379, Control_c, 0, 67, 33
2,38399, Control_c, 0, 67, 32
2,38418, Control_c, 0, 67, 31
2,38426, Note_on_c, 0, 74, 86
2,38437, Control_c, 0, 67, 30
2,38456, Control_c, 0, 67, 30
2,38476, Control_c, 0, 67, 29
2,38495, Control_c, 0, 67, 28
2,38499, Note_on_c, 0, 74, 0
2,38514, Control_c, 0, 67, 28
2,38525, Note_on_c, 0, 67, 0
2,38533, Control_c, 0, 67, 27
2,38553, Control_c, 0, 67, 27
2,38571, Control_c, 0, 67, 26
2,38578, Note_on_c, 0, 60, 48
2,38582, Note_on_c, 0, 59, 0
2,38587, Note_on_c, 0, 76, 83
2,38610, Control_c, 0, 67, 25
2,38629, Control_c, 0, 67, 24
2,38648, Control_c, 0, 67, 21
2,38667, Control_c, 0, 67, 19
2,38687, Control_c, 0, 67, 16
2,38706, Control_c, 0, 67, 12
2,38725, Control_c, 0, 67, 0
2,38739, Note_on_c, 0, 69, 66
2,38798, Note_on_c, 0, 69, 0
2,38886, Note_on_c, 0, 71, 83
2,38963, Note_on_c, 0, 71, 0
2,38973, Note_on_c, 0, 76, 0
2,39046, Note_on_c, 0, 72, 85
2,39196, Note_on_c, 0, 60, 0
2,39196, Note_on_c, 0, 77, 87
2,39198, Note_on_c, 0, 62, 69
2,39217, Note_on_c, 0, 72, 0
2,39242, Note_on_c, 0, 62, 0
2,39264, Note_on_c, 0, 77, 0
2,39281, Control_c, 0, 64, 31
2,39344, Note_on_c, 0, 64, 71
2,39346, Note_on_c, 0, 79, 94
2,39392, Note_on_c, 0, 64, 0
2,39422, Note_on_c, 0, 79, 0
2,39507, Note_on_c, 0, 65, 69
2,39508, Note_on_c, 0, 81, 90
2,39512, Control_c, 0, 67, 11
2,39531, Control_c, 0, 67, 17
2,39549, Control_c, 0, 67, 23
2,39569, Control_c, 0, 67, 28
2,39588, Control_c, 0, 67, 31
2,39607, Control_c, 0, 67, 35
2,39626, Control_c, 0, 67, 37
2,39646, Control_c, 0, 67, 40
2,39657, Note_on_c, 0, 79, 84
2,39665, Control_c, 0, 67, 44
2,39666, Note_on_c, 0, 64, 67
2,39669, Note_on_c, 0, 65, 0
2,39684, Control_c, 0, 67, 47
2,39698, Note_on_c, 0, 81, 0
2,39703, Control_c, 0, 64, 32
2,39703, Control_c, 0, 67, 48
2,39721, Note_on_c, 0, 64, 0
2,39723, Control_c, 0, 67, 49
2,39741, Control_c, 0, 67, 50
2,39746, Note_on_c, 0, 79, 0
2,39780, Control_c, 0, 67, 49
2,39800, Control_c, 0, 67, 48
2,39816, Note_on_c, 0, 77, 88
2,39818, Control_c, 0, 67, 47
2,39819, Note_on_c, 0, 62, 72
2,39838, Control_c, 0, 67, 47
2,39857, Control_c, 0, 67, 46
2,39863, Note_on_c, 0, 62, 0
2,39876, Control_c, 0, 67, 45
2,39889, Note_on_c, 0, 77, 0
2,39895, Control_c, 0, 67, 45
2,39934, Control_c, 0, 67, 44
2,39953, Control_c, 0, 67, 44
2,39971, Note_on_c, 0, 76, 82
2,39972, Control_c, 0, 67, 43
2,39973, Note_on_c, 0, 60, 71
2,40011, Control_c, 0, 67, 43
2,40029, Control_c, 0, 67, 42
2,40049, Control_c, 0, 67, 42
2,40054, Note_on_c, 0, 76, 0
2,40073, Note_on_c, 0, 60, 0
2,40106, Control_c, 0, 67, 41
2,40113, Note_on_c, 0, 62, 66
2,40121, Note_on_c, 0, 77, 85
2,40126, Control_c, 0, 67, 40
2,40145, Control_c, 0, 67, 40
2,40152, Note_on_c, 0, 62, 0
2,40196, Note_on_c, 0, 76, 80
2,40221, Control_c, 0, 67, 39
2,40243, Note_on_c, 0, 77, 0
2,40259, Note_on_c, 0, 74, 78
2,40272, Note_on_c, 0, 58, 67
2,40295, Note_on_c, 0, 76, 0
2,40317, Note_on_c, 0, 58, 0
2,40335, Note_on_c, 0, 72, 80
2,40344, Note_on_c, 0, 74, 0
2,40419, Note_on_c, 0, 77, 83
2,40425, Note_on_c, 0, 57, 72
2,40444, Note_on_c, 0, 72, 0
2,40559, Note_on_c, 0, 55, 70
2,40559, Note_on_c, 0, 57, 0
2,40647, Note_on_c, 0, 55, 0
2,40683, Control_c, 0, 67, 40
2,40707, Note_on_c, 0, 74, 74
2,40709, Note_on_c, 0, 53, 66
2,40750, Note_on_c, 0, 53, 0
2,40761, Note_on_c, 0, 74, 0
2,40778, Control_c, 0, 67, 40
2,40817, Control_c, 0, 67, 41
2,40854, Note_on_c, 0, 55, 75
2,40855, Control_c, 0, 67, 41
2,40867, Note_on_c, 0, 71, 74
2,40875, Control_c, 0, 67, 42
2,40913, Control_c, 0, 67, 42
2,40932, Control_c, 0, 67, 43
2,40952, Control_c, 0, 67, 44
2,40971, Control_c, 0, 67, 45
2,40982, Note_on_c, 0, 55, 0
2,40989, Control_c, 0, 67, 46
2,41006, Note_on_c, 0, 57, 75
2,41009, Control_c, 0, 67, 47
2,41028, Control_c, 0, 67, 48
2,41047, Control_c, 0, 67, 50
2,41066, Control_c, 0, 67, 52
2,41070, Note_on_c, 0, 57, 0
2,41086, Control_c, 0, 67, 56
2,41105, Control_c, 0, 67, 65
2,41112, Note_on_c, 0, 71, 0
2,41124, Control_c, 0, 67, 77
2,41143, Control_c, 0, 67, 93
2,41152, Note_on_c, 0, 67, 69
2,41163, Control_c, 0, 67, 109
2,41171, Note_on_c, 0, 59, 72
2,41181, Control_c, 0, 67, 125
2,41201, Control_c, 0, 67, 127
2,41205, Note_on_c, 0, 77, 0
2,41208, Note_on_c, 0, 59, 0
2,41322, Note_on_c, 0, 75, 73
2,41324, Note_on_c, 0, 60, 61
2,41409, Note_on_c, 0, 75, 0
2,41473, Note_on_c, 0, 60, 0
2,41476, Note_on_c, 0, 59, 61
2,41480, Note_on_c, 0, 79, 74
2,41482, Note_on_c, 0, 67, 0
2,41527, Note_on_c, 0, 59, 0
2,41553, Note_on_c, 0, 79, 0
2,41620, Note_on_c, 0, 78, 73
2,41635, Note_on_c, 0, 57, 67
2,41641, Note_on_c, 0, 72, 63
2,41673, Note_on_c, 0, 57, 0
2,41679, Note_on_c, 0, 78, 0
2,41680, Note_on_c, 0, 72, 0
2,41771, Note_on_c, 0, 79, 72
2,41775, Note_on_c, 0, 55, 57
2,41779, Note_on_c, 0, 71, 70
2,41864, Note_on_c, 0, 71, 0
2,41905, Note_on_c, 0, 55, 0
2,41929, Note_on_c, 0, 56, 66
2,41940, Note_on_c, 0, 72, 68
2,41974, Note_on_c, 0, 56, 0
2,41988, Note_on_c, 0, 72, 0
2,42084, Control_c, 0, 64, 32
2,42084, Note_on_c, 0, 74, 67
2,42090, Note_on_c, 0, 53, 65
2,42130, Note_on_c, 0, 74, 0
2,42133, Note_on_c, 0, 53, 0
2,42246, Note_on_c, 0, 72, 70
2,42262, Note_on_c, 0, 51, 34
2,42325, Note_on_c, 0, 51, 0
2,42393, Note_on_c, 0, 50, 48
2,42402, Note_on_c, 0, 74, 67
2,42410, Note_on_c, 0, 72, 0
2,42441, Note_on_c, 0, 50, 0
2,42450, Note_on_c, 0, 74, 0
2,42490, Note_on_c, 0, 79, 0
2,42542, Note_on_c, 0, 48, 54
2,42579, Note_on_c, 0, 76, 48
2,42583, Note_on_c, 0, 48, 0
2,42612, Note_on_c, 0, 76, 0
2,42693, Note_on_c, 0, 50, 59
2,42702, Note_on_c, 0, 78, 80
2,42730, Note_on_c, 0, 69, 52
2,42796, Note_on_c, 0, 78, 0
2,42813, Note_on_c, 0, 50, 0
2,42850, Note_on_c, 0, 52, 67
2,42856, Note_on_c, 0, 79, 75
2,42879, Note_on_c, 0, 78, 28
2,42901, Note_on_c, 0, 52, 0
2,42923, Note_on_c, 0, 78, 0
2,42931, Note_on_c, 0, 79, 0
2,42985, Note_on_c, 0, 81, 73
2,43004, Note_on_c, 0, 54, 69
2,43021, Note_on_c, 0, 81, 0
2,43040, Note_on_c, 0, 54, 0
2,43162, Note_on_c, 0, 55, 60
2,43173, Note_on_c, 0, 70, 68
2,43249, Note_on_c, 0, 69, 0
2,43309, Note_on_c, 0, 55, 0
2,43310, Note_on_c, 0, 53, 65
2,43316, Note_on_c, 0, 74, 73
2,43340, Note_on_c, 0, 70, 0
2,43350, Note_on_c, 0, 53, 0
2,43369, Note_on_c, 0, 74, 0
2,43467, Note_on_c, 0, 51, 57
2,43475, Note_on_c, 0, 72, 73
2,43481, Note_on_c, 0, 67, 55
2,43517, Note_on_c, 0, 51, 0
2,43517, Note_on_c, 0, 67, 0
2,43525, Note_on_c, 0, 72, 0
2,43615, Note_on_c, 0, 50, 55
2,43618, Note_on_c, 0, 67, 63
2,43663, Note_on_c, 0, 70, 34
2,43703, Note_on_c, 0, 70, 0
2,43776, Note_on_c, 0, 50, 0
2,43800, Note_on_c, 0, 51, 51
2,43824, Note_on_c, 0, 70, 33
2,43833, Note_on_c, 0, 67, 0
2,43841, Note_on_c, 0, 69, 59
2,43848, Note_on_c, 0, 51, 0
2,43866, Note_on_c, 0, 69, 0
2,43867, Note_on_c, 0, 66, 29
2,43870, Note_on_c, 0, 70, 0
2,43923, Note_on_c, 0, 66, 0
2,43950, Note_on_c, 0, 69, 72
2,43960, Note_on_c, 0, 48, 54
2,43977, Note_on_c, 0, 66, 49
2,43993, Note_on_c, 0, 67, 39
2,44016, Note_on_c, 0, 66, 0
2,44017, Note_on_c, 0, 48, 0
2,44018, Note_on_c, 0, 67, 0
2,44021, Note_on_c, 0, 69, 0
2,44101, Note_on_c, 0, 66, 77
2,44104, Note_on_c, 0, 46, 65
2,44166, Note_on_c, 0, 46, 0
2,44203, Note_on_c, 0, 66, 0
2,44228, Note_on_c, 0, 67, 47
2,44256, Note_on_c, 0, 45, 57
2,44314, Note_on_c, 0, 45, 0
2,44429, Note_on_c, 0, 43, 50
2,44430, Note_on_c, 0, 75, 85
2,44480, Note_on_c, 0, 43, 0
2,44551, Note_on_c, 0, 45, 55
2,44562, Note_on_c, 0, 73, 80
2,44619, Note_on_c, 0, 75, 0
2,44639, Note_on_c, 0, 45, 0
2,44696, Note_on_c, 0, 47, 65
2,44749, Note_on_c, 0, 47, 0
2,44838, Note_on_c, 0, 69, 75
2,44847, Note_on_c, 0, 49, 65
2,44850, Note_on_c, 0, 67, 0
2,44898, Note_on_c, 0, 49, 0
2,44900, Note_on_c, 0, 73, 0
2,44917, Note_on_c, 0, 69, 0
2,44984, Note_on_c, 0, 65, 70
2,44995, Note_on_c, 0, 50, 60
2,45114, Note_on_c, 0, 50, 0
2,45142, Note_on_c, 0, 48, 56
2,45156, Note_on_c, 0, 69, 65
2,45171, Note_on_c, 0, 65, 0
2,45195, Note_on_c, 0, 48, 0
2,45201, Note_on_c, 0, 69, 0
2,45305, Note_on_c, 0, 46, 59
2,45308, Note_on_c, 0, 67, 67
2,45347, Note_on_c, 0, 46, 0
2,45356, Note_on_c, 0, 67, 0
2,45375, Note_on_c, 0, 73, 7
2,45436, Note_on_c, 0, 73, 0
2,45436, Note_on_c, 0, 73, 41
2,45443, Note_on_c, 0, 45, 51
2,45451, Note_on_c, 0, 69, 74
2,45533, Note_on_c, 0, 45, 0
2,45561, Note_on_c, 0, 46, 51
2,45567, Note_on_c, 0, 73, 0
2,45595, Note_on_c, 0, 74, 63
2,45624, Note_on_c, 0, 46, 0
2,45658, Note_on_c, 0, 74, 0
2,45751, Note_on_c, 0, 76, 72
2,45790, Note_on_c, 0, 76, 0
2,45903, Note_on_c, 0, 41, 52
2,45905, Note_on_c, 0, 74, 71
2,45997, Note_on_c, 0, 74, 0
2,46006, Note_on_c, 0, 41, 0
2,46051, Note_on_c, 0, 76, 67
2,46056, Note_on_c, 0, 40, 45
2,46098, Note_on_c, 0, 76, 0
2,46128, Note_on_c, 0, 40, 0
2,46173, Control_c, 0, 67, 126
2,46189, Note_on_c, 0, 38, 56
2,46191, Control_c, 0, 67, 118
2,46211, Control_c, 0, 67, 105
2,46213, Note_on_c, 0, 77, 63
2,46222, Note_on_c, 0, 38, 0
2,46230, Control_c, 0, 67, 87
2,46250, Control_c, 0, 67, 65
2,46268, Control_c, 0, 67, 39
2,46288, Control_c, 0, 67, 10
2,46289, Note_on_c, 0, 77, 0
2,46307, Control_c, 0, 67, 0
2,46341, Note_on_c, 0, 70, 68
2,46357, Note_on_c, 0, 53, 83
2,46372, Note_on_c, 0, 50, 65
2,46425, Note_on_c, 0, 69, 0
2,46470, Note_on_c, 0, 50, 0
2,46495, Note_on_c, 0, 52, 78
2,46500, Note_on_c, 0, 53, 0
2,46561, Note_on_c, 0, 52, 0
2,46658, Note_on_c, 0, 53, 82
2,46711, Note_on_c, 0, 53, 0
2,46815, Note_on_c, 0, 60, 84
2,46825, Note_on_c, 0, 52, 67
2,46961, Note_on_c, 0, 52, 0
2,46961, Note_on_c, 0, 60, 0
2,46961, Note_on_c, 0, 70, 0
2,46968, Note_on_c, 0, 76, 71
2,47021, Note_on_c, 0, 76, 0
2,47118, Note_on_c, 0, 79, 74
2,47181, Note_on_c, 0, 79, 0
2,47253, Note_on_c, 0, 51, 53
2,47258, Note_on_c, 0, 72, 73
2,47264, Note_on_c, 0, 57, 67
2,47325, Note_on_c, 0, 51, 0
2,47402, Control_c, 0, 64, 32
2,47415, Note_on_c, 0, 72, 0
2,47421, Note_on_c, 0, 55, 75
2,47425, Note_on_c, 0, 57, 0
2,47468, Note_on_c, 0, 55, 0
2,47577, Note_on_c, 0, 57, 78
2,47614, Control_c, 0, 64, 31
2,47621, Note_on_c, 0, 57, 0
2,47725, Note_on_c, 0, 62, 81
2,47744, Note_on_c, 0, 50, 66
2,47864, Note_on_c, 0, 50, 0
2,47864, Note_on_c, 0, 62, 0
2,47881, Note_on_c, 0, 70, 67
2,47892, Note_on_c, 0, 52, 55
2,47901, Control_c, 0, 67, 11
2,47921, Control_c, 0, 64, 31
2,47921, Control_c, 0, 67, 18
2,47940, Control_c, 0, 67, 25
2,47942, Note_on_c, 0, 52, 0
2,47945, Note_on_c, 0, 70, 0
2,47960, Control_c, 0, 67, 31
2,47978, Control_c, 0, 67, 38
2,47998, Control_c, 0, 64, 30
2,47998, Control_c, 0, 67, 45
2,48017, Control_c, 0, 67, 51
2,48019, Note_on_c, 0, 69, 79
2,48035, Note_on_c, 0, 53, 55
2,48037, Control_c, 0, 67, 55
2,48053, Note_on_c, 0, 69, 0
2,48055, Control_c, 0, 67, 58
2,48067, Note_on_c, 0, 53, 0
2,48075, Control_c, 0, 64, 29
2,48075, Control_c, 0, 67, 60
2,48094, Control_c, 0, 67, 62
2,48113, Control_c, 0, 67, 66
2,48132, Control_c, 0, 67, 72
2,48151, Control_c, 0, 64, 29
2,48151, Control_c, 0, 67, 78
2,48171, Control_c, 0, 67, 84
2,48175, Note_on_c, 0, 52, 60
2,48187, Note_on_c, 0, 70, 81
2,48188, Note_on_c, 0, 60, 74
2,48189, Control_c, 0, 67, 90
2,48209, Control_c, 0, 67, 94
2,48228, Control_c, 0, 67, 97
2,48247, Control_c, 0, 67, 99
2,48271, Note_on_c, 0, 69, 33
2,48291, Note_on_c, 0, 70, 0
2,48305, Control_c, 0, 67, 99
2,48320, Note_on_c, 0, 52, 0
2,48324, Control_c, 0, 67, 98
2,48327, Note_on_c, 0, 62, 78
2,48334, Note_on_c, 0, 53, 65
2,48342, Note_on_c, 0, 60, 0
2,48343, Control_c, 0, 67, 98
2,48363, Control_c, 0, 67, 97
2,48381, Control_c, 0, 67, 97
2,48395, Note_on_c, 0, 69, 0
2,48397, Note_on_c, 0, 53, 0
2,48397, Note_on_c, 0, 62, 0
2,48401, Control_c, 0, 67, 96
2,48420, Control_c, 0, 67, 96
2,48458, Control_c, 0, 67, 95
2,48481, Note_on_c, 0, 64, 81
2,48482, Note_on_c, 0, 55, 67
2,48530, Note_on_c, 0, 55, 0
2,48535, Control_c, 0, 67, 95
2,48553, Note_on_c, 0, 64, 0
2,48574, Control_c, 0, 67, 94
2,48612, Control_c, 0, 67, 94
2,48631, Control_c, 0, 67, 93
2,48637, Note_on_c, 0, 65, 85
2,48649, Note_on_c, 0, 45, 66
2,48689, Control_c, 0, 67, 93
2,48708, Control_c, 0, 67, 92
2,48726, Note_on_c, 0, 65, 0
2,48727, Control_c, 0, 67, 92
2,48774, Note_on_c, 0, 45, 0
2,48782, Note_on_c, 0, 64, 80
2,48842, Note_on_c, 0, 64, 0
2,48927, Note_on_c, 0, 46, 59
2,48938, Note_on_c, 0, 62, 67
2,48957, Note_on_c, 0, 70, 71
2,48969, Note_on_c, 0, 46, 0
2,48977, Control_c, 0, 67, 92
2,48990, Note_on_c, 0, 62, 0
2,48997, Control_c, 0, 67, 93
2,49003, Note_on_c, 0, 70, 0
2,49090, Note_on_c, 0, 60, 77
2,49092, Note_on_c, 0, 48, 58
2,49095, Control_c, 0, 67, 92
2,49133, Control_c, 0, 67, 92
2,49151, Note_on_c, 0, 69, 38
2,49172, Control_c, 0, 67, 91
2,49191, Control_c, 0, 67, 91
2,49210, Control_c, 0, 67, 90
2,49229, Control_c, 0, 67, 90
2,49230, Note_on_c, 0, 48, 0
2,49244, Note_on_c, 0, 62, 74
2,49246, Note_on_c, 0, 60, 0
2,49288, Note_on_c, 0, 62, 0
2,49289, Note_on_c, 0, 69, 0
2,49306, Control_c, 0, 67, 90
2,49360, Control_c, 0, 67, 91
2,49379, Control_c, 0, 67, 92
2,49386, Note_on_c, 0, 49, 63
2,49399, Control_c, 0, 67, 94
2,49399, Note_on_c, 0, 67, 68
2,49400, Note_on_c, 0, 58, 67
2,49417, Control_c, 0, 67, 96
2,49436, Note_on_c, 0, 58, 0
2,49436, Note_on_c, 0, 67, 0
2,49437, Control_c, 0, 67, 97
2,49456, Control_c, 0, 67, 99
2,49463, Note_on_c, 0, 49, 0
2,49476, Control_c, 0, 67, 100
2,49494, Control_c, 0, 64, 28
2,49494, Control_c, 0, 67, 101
2,49514, Control_c, 0, 67, 103
2,49533, Control_c, 0, 64, 28
2,49533, Control_c, 0, 67, 108
2,49547, Note_on_c, 0, 57, 75
2,49551, Control_c, 0, 64, 27
2,49551, Control_c, 0, 67, 117
2,49556, Note_on_c, 0, 65, 63
2,49564, Note_on_c, 0, 50, 54
2,49571, Control_c, 0, 64, 26
2,49571, Control_c, 0, 67, 127
2,49590, Control_c, 0, 64, 26
2,49590, Control_c, 0, 67, 127
2,49610, Control_c, 0, 64, 25
2,49648, Control_c, 0, 64, 24
2,49682, Note_on_c, 0, 57, 0
2,49686, Control_c, 0, 64, 23
2,49731, Note_on_c, 0, 55, 53
2,49768, Note_on_c, 0, 55, 0
2,49782, Control_c, 0, 64, 22
2,49846, Note_on_c, 0, 53, 69
2,49883, Note_on_c, 0, 53, 0
2,49917, Control_c, 0, 64, 21
2,50026, Note_on_c, 0, 58, 65
2,50054, Control_c, 0, 64, 20
2,50106, Note_on_c, 0, 65, 0
2,50166, Note_on_c, 0, 50, 0
2,50175, Note_on_c, 0, 63, 64
2,50188, Note_on_c, 0, 48, 44
2,50225, Note_on_c, 0, 63, 0
2,50282, Note_on_c, 0, 48, 0
2,50310, Note_on_c, 0, 46, 56
2,50324, Note_on_c, 0, 62, 63
2,50346, Note_on_c, 0, 46, 0
2,50401, Note_on_c, 0, 62, 0
2,50487, Note_on_c, 0, 60, 58
2,50493, Note_on_c, 0, 53, 64
2,50511, Note_on_c, 0, 58, 0
2,50644, Note_on_c, 0, 57, 61
2,50691, Note_on_c, 0, 57, 0
2,50744, Note_on_c, 0, 53, 0
2,50810, Note_on_c, 0, 55, 50
2,50858, Note_on_c, 0, 55, 0
2,50963, Note_on_c, 0, 57, 57
2,51107, Note_on_c, 0, 62, 63
2,51147, Note_on_c, 0, 57, 0
2,51157, Note_on_c, 0, 62, 0
2,51207, Note_on_c, 0, 60, 0
2,51246, Note_on_c, 0, 51, 49
2,51252, Note_on_c, 0, 63, 69
2,51293, Note_on_c, 0, 51, 0
2,51322, Note_on_c, 0, 63, 0
2,51410, Note_on_c, 0, 65, 65
2,51413, Note_on_c, 0, 50, 65
2,51472, Control_c, 0, 64, 21
2,51489, Note_on_c, 0, 50, 0
2,51572, Note_on_c, 0, 58, 66
2,51620, Note_on_c, 0, 58, 0
2,51710, Note_on_c, 0, 48, 64
2,51718, Note_on_c, 0, 60, 71
2,51755, Note_on_c, 0, 65, 0
2,51756, Note_on_c, 0, 48, 0
2,51770, Note_on_c, 0, 60, 0
2,51800, Control_c, 0, 67, 125
2,51818, Control_c, 0, 67, 123
2,51838, Control_c, 0, 67, 120
2,51857, Control_c, 0, 67, 117
2,51868, Note_on_c, 0, 46, 69
2,51872, Note_on_c, 0, 62, 70
2,51877, Control_c, 0, 67, 114
2,51895, Control_c, 0, 67, 111
2,51915, Control_c, 0, 67, 109
2,51934, Control_c, 0, 67, 106
2,51952, Control_c, 0, 67, 102
2,51956, Note_on_c, 0, 46, 0
2,51972, Control_c, 0, 67, 97
2,51991, Control_c, 0, 67, 90
2,52011, Control_c, 0, 67, 85
2,52019, Note_on_c, 0, 67, 77
2,52029, Control_c, 0, 67, 80
2,52049, Control_c, 0, 67, 73
2,52068, Control_c, 0, 67, 65
2,52087, Control_c, 0, 67, 57
2,52105, Note_on_c, 0, 67, 0
2,52106, Control_c, 0, 67, 49
2,52126, Control_c, 0, 67, 40
2,52145, Control_c, 0, 67, 33
2,52160, Note_on_c, 0, 45, 71
2,52164, Control_c, 0, 67, 26
2,52166, Note_on_c, 0, 69, 77
2,52183, Control_c, 0, 67, 21
2,52203, Control_c, 0, 67, 19
2,52213, Note_on_c, 0, 45, 0
2,52221, Control_c, 0, 67, 17
2,52241, Control_c, 0, 67, 16
2,52245, Note_on_c, 0, 69, 0
2,52260, Control_c, 0, 67, 15
2,52324, Note_on_c, 0, 70, 80
2,52330, Note_on_c, 0, 43, 78
2,52402, Note_on_c, 0, 62, 0
2,52442, Note_on_c, 0, 43, 0
2,52452, Control_c, 0, 64, 22
2,52469, Note_on_c, 0, 63, 74
2,52509, Control_c, 0, 67, 15
2,52525, Note_on_c, 0, 63, 0
2,52548, Control_c, 0, 67, 16
2,52609, Note_on_c, 0, 41, 74
2,52622, Note_on_c, 0, 65, 75
2,52625, Control_c, 0, 67, 16
2,52653, Note_on_c, 0, 41, 0
2,52664, Note_on_c, 0, 65, 0
2,52701, Note_on_c, 0, 70, 0
2,52740, Control_c, 0, 64, 23
2,52768, Note_on_c, 0, 39, 77
2,52772, Note_on_c, 0, 67, 81
2,52878, Control_c, 0, 67, 17
2,52891, Note_on_c, 0, 39, 0
2,52926, Note_on_c, 0, 72, 87
2,52955, Control_c, 0, 64, 24
2,53014, Note_on_c, 0, 72, 0
2,53050, Control_c, 0, 67, 16
2,53069, Control_c, 0, 67, 16
2,53076, Note_on_c, 0, 38, 82
2,53083, Note_on_c, 0, 74, 83
2,53089, Control_c, 0, 67, 15
2,53107, Control_c, 0, 67, 15
2,53127, Control_c, 0, 67, 14
2,53131, Note_on_c, 0, 38, 0
2,53146, Control_c, 0, 67, 13
2,53156, Note_on_c, 0, 67, 0
2,53160, Note_on_c, 0, 74, 0
2,53162, Control_c, 0, 67, 11
2,53181, Control_c, 0, 67, 0
2,53219, Control_c, 0, 64, 25
2,53224, Note_on_c, 0, 75, 85
2,53238, Note_on_c, 0, 36, 78
2,53382, Note_on_c, 0, 69, 79
2,53444, Note_on_c, 0, 69, 0
2,53547, Note_on_c, 0, 70, 84
2,53584, Control_c, 0, 64, 26
2,53635, Note_on_c, 0, 70, 0
2,53714, Note_on_c, 0, 72, 89
2,53737, Control_c, 0, 64, 26
2,53814, Control_c, 0, 64, 27
2,53871, Note_on_c, 0, 38, 77
2,53878, Note_on_c, 0, 36, 0
2,53930, Control_c, 0, 64, 28
2,53962, Note_on_c, 0, 38, 0
2,53980, Note_on_c, 0, 72, 0
2,54030, Note_on_c, 0, 70, 84
2,54031, Note_on_c, 0, 39, 70
2,54045, Control_c, 0, 64, 28
2,54070, Note_on_c, 0, 39, 0
2,54118, Note_on_c, 0, 70, 0
2,54122, Control_c, 0, 64, 29
2,54217, Control_c, 0, 64, 29
2,54220, Note_on_c, 0, 69, 81
2,54226, Note_on_c, 0, 41, 76
2,54333, Control_c, 0, 64, 30
2,54388, Note_on_c, 0, 74, 73
2,54427, Note_on_c, 0, 75, 0
2,54467, Control_c, 0, 64, 31
2,54471, Note_on_c, 0, 74, 0
2,54537, Note_on_c, 0, 72, 81
2,54629, Note_on_c, 0, 69, 0
2,54644, Note_on_c, 0, 72, 0
2,54713, Note_on_c, 0, 74, 77
2,54719, Note_on_c, 0, 70, 78
2,54870, Note_on_c, 0, 75, 80
2,54890, Control_c, 0, 64, 31
2,54910, Note_on_c, 0, 74, 0
2,54948, Note_on_c, 0, 75, 0
2,55024, Note_on_c, 0, 74, 75
2,55131, Note_on_c, 0, 74, 0
2,55181, Note_on_c, 0, 72, 80
2,55184, Note_on_c, 0, 70, 0
2,55333, Note_on_c, 0, 69, 69
2,55383, Note_on_c, 0, 69, 0
2,55481, Note_on_c, 0, 67, 73
2,55536, Note_on_c, 0, 67, 0
2,55566, Note_on_c, 0, 72, 0
2,55637, Note_on_c, 0, 69, 85
2,55790, Note_on_c, 0, 72, 75
2,55873, Note_on_c, 0, 72, 0
2,55933, Note_on_c, 0, 77, 72
2,55992, Note_on_c, 0, 77, 0
2,56090, Note_on_c, 0, 70, 74
2,56094, Note_on_c, 0, 69, 0
2,56250, Note_on_c, 0, 67, 61
2,56296, Note_on_c, 0, 67, 0
2,56402, Note_on_c, 0, 65, 70
2,56450, Note_on_c, 0, 65, 0
2,56466, Note_on_c, 0, 70, 0
2,56549, Note_on_c, 0, 67, 75
2,56724, Note_on_c, 0, 70, 66
2,56734, Control_c, 0, 67, 9
2,56752, Control_c, 0, 67, 13
2,56772, Control_c, 0, 67, 18
2,56791, Control_c, 0, 67, 26
2,56811, Control_c, 0, 67, 35
2,56829, Control_c, 0, 67, 44
2,56849, Control_c, 0, 67, 58
2,56852, Note_on_c, 0, 70, 0
2,56852, Note_on_c, 0, 75, 64
2,56868, Control_c, 0, 67, 73
2,56887, Control_c, 0, 67, 91
2,56906, Control_c, 0, 67, 110
2,56926, Control_c, 0, 67, 127
2,56945, Note_on_c, 0, 75, 0
2,57015, Note_on_c, 0, 69, 74
2,57041, Note_on_c, 0, 67, 0
2,57170, Note_on_c, 0, 65, 63
2,57225, Note_on_c, 0, 65, 0
2,57331, Note_on_c, 0, 64, 56
2,57372, Note_on_c, 0, 64, 0
2,57421, Note_on_c, 0, 69, 0
2,57479, Note_on_c, 0, 65, 71
2,57632, Note_on_c, 0, 69, 63
2,57696, Note_on_c, 0, 69, 0
2,57779, Note_on_c, 0, 74, 59
2,57821, Note_on_c, 0, 74, 0
2,57934, Note_on_c, 0, 67, 65
2,57951, Note_on_c, 0, 65, 0
2,58113, Note_on_c, 0, 63, 46
2,58149, Note_on_c, 0, 63, 0
2,58237, Note_on_c, 0, 62, 54
2,58266, Note_on_c, 0, 62, 0
2,58327, Control_c, 0, 64, 31
2,58407, Note_on_c, 0, 63, 65
2,58417, Note_on_c, 0, 67, 0
2,58571, Note_on_c, 0, 67, 58
2,58631, Note_on_c, 0, 67, 0
2,58697, Note_on_c, 0, 72, 53
2,58726, Note_on_c, 0, 72, 0
2,58768, Control_c, 0, 64, 30
2,58815, Note_on_c, 0, 63, 0
2,58835, Note_on_c, 0, 41, 0
2,58850, Note_on_c, 0, 65, 62
2,59011, Note_on_c, 0, 62, 48
2,59077, Note_on_c, 0, 62, 0
2,59155, Note_on_c, 0, 60, 48
2,59197, Note_on_c, 0, 60, 0
2,59312, Note_on_c, 0, 46, 73
2,59325, Note_on_c, 0, 62, 57
2,59407, Note_on_c, 0, 62, 0
2,59458, Note_on_c, 0, 46, 0
2,59470, Note_on_c, 0, 45, 68
2,59527, Note_on_c, 0, 45, 0
2,59536, Control_c, 0, 67, 118
2,59556, Control_c, 0, 67, 107
2,59574, Control_c, 0, 67, 96
2,59593, Control_c, 0, 67, 88
2,59610, Note_on_c, 0, 46, 69
2,59613, Control_c, 0, 67, 80
2,59617, Note_on_c, 0, 70, 65
2,59631, Control_c, 0, 67, 71
2,59651, Control_c, 0, 67, 63
2,59657, Note_on_c, 0, 46, 0
2,59670, Control_c, 0, 67, 57
2,59690, Control_c, 0, 67, 55
2,59691, Note_on_c, 0, 65, 0
2,59708, Control_c, 0, 67, 55
2,59732, Note_on_c, 0, 70, 0
2,59777, Note_on_c, 0, 53, 74
2,59780, Note_on_c, 0, 60, 62
2,59877, Note_on_c, 0, 53, 0
2,59899, Control_c, 0, 67, 55
2,59917, Note_on_c, 0, 60, 0
2,59918, Control_c, 0, 67, 56
2,59919, Note_on_c, 0, 67, 66
2,59957, Control_c, 0, 67, 56
2,59994, Control_c, 0, 67, 57
2,60052, Control_c, 0, 67, 57
2,60062, Note_on_c, 0, 69, 72
2,60100, Note_on_c, 0, 67, 0
2,60131, Note_on_c, 0, 69, 0
2,60213, Note_on_c, 0, 65, 57
2,60231, Note_on_c, 0, 50, 76
2,60360, Control_c, 0, 67, 57
2,60369, Note_on_c, 0, 48, 71
2,60370, Note_on_c, 0, 50, 0
2,60436, Note_on_c, 0, 48, 0
2,60456, Control_c, 0, 64, 29
2,60517, Note_on_c, 0, 50, 78
2,60519, Note_on_c, 0, 74, 65
2,60551, Control_c, 0, 64, 29
2,60551, Control_c, 0, 67, 56
2,60562, Note_on_c, 0, 50, 0
2,60575, Note_on_c, 0, 74, 0
2,60590, Control_c, 0, 67, 56
2,60673, Note_on_c, 0, 65, 0
2,60676, Note_on_c, 0, 70, 58
2,60691, Note_on_c, 0, 55, 74
2,60735, Note_on_c, 0, 70, 0
2,60800, Note_on_c, 0, 55, 0
2,60802, Control_c, 0, 67, 56
2,60836, Note_on_c, 0, 62, 62
2,60840, Control_c, 0, 67, 57
2,60860, Control_c, 0, 67, 57
2,60896, Note_on_c, 0, 62, 0
2,60898, Control_c, 0, 67, 58
2,60918, Control_c, 0, 67, 59
2,60956, Control_c, 0, 67, 59
2,60981, Note_on_c, 0, 63, 68
2,61017, Note_on_c, 0, 63, 0
2,61071, Control_c, 0, 67, 59
2,61129, Control_c, 0, 67, 58
2,61146, Note_on_c, 0, 69, 78
2,61147, Note_on_c, 0, 53, 66
2,61167, Control_c, 0, 67, 58
2,61206, Control_c, 0, 67, 57
2,61272, Note_on_c, 0, 53, 0
2,61296, Note_on_c, 0, 70, 82
2,61300, Note_on_c, 0, 55, 67
2,61311, Note_on_c, 0, 69, 0
2,61356, Note_on_c, 0, 55, 0
2,61359, Control_c, 0, 67, 57
2,61361, Note_on_c, 0, 70, 0
2,61398, Control_c, 0, 67, 56
2,61416, Control_c, 0, 67, 55
2,61436, Control_c, 0, 67, 55
2,61446, Note_on_c, 0, 72, 85
2,61452, Note_on_c, 0, 57, 69
2,61455, Control_c, 0, 67, 54
2,61474, Control_c, 0, 67, 53
2,61493, Control_c, 0, 67, 52
2,61502, Note_on_c, 0, 57, 0
2,61509, Note_on_c, 0, 72, 0
2,61512, Control_c, 0, 67, 49
2,61532, Control_c, 0, 67, 43
2,61551, Control_c, 0, 67, 39
2,61570, Control_c, 0, 67, 35
2,61589, Control_c, 0, 67, 32
2,61597, Note_on_c, 0, 74, 76
2,61600, Note_on_c, 0, 58, 68
2,61609, Control_c, 0, 67, 30
2,61627, Control_c, 0, 67, 28
2,61647, Control_c, 0, 67, 26
2,61666, Control_c, 0, 67, 24
2,61686, Control_c, 0, 67, 22
2,61700, Note_on_c, 0, 74, 0
2,61704, Control_c, 0, 67, 21
2,61724, Control_c, 0, 67, 21
2,61725, Note_on_c, 0, 58, 0
2,61743, Control_c, 0, 67, 20
2,61747, Note_on_c, 0, 72, 83
2,61749, Note_on_c, 0, 57, 66
2,61762, Control_c, 0, 67, 20
2,61781, Control_c, 0, 67, 19
2,61802, Note_on_c, 0, 57, 0
2,61815, Note_on_c, 0, 72, 0
2,61858, Control_c, 0, 64, 29
2,61858, Control_c, 0, 67, 20
2,61878, Control_c, 0, 67, 20
2,61896, Control_c, 0, 67, 21
2,61904, Note_on_c, 0, 75, 82
2,61913, Note_on_c, 0, 55, 64
2,61916, Control_c, 0, 67, 21
2,61953, Note_on_c, 0, 55, 0
2,61954, Control_c, 0, 67, 22
2,61980, Note_on_c, 0, 75, 0
2,62012, Control_c, 0, 67, 22
2,62055, Note_on_c, 0, 74, 82
2,62057, Note_on_c, 0, 53, 60
2,62107, Control_c, 0, 67, 23
2,62127, Control_c, 0, 67, 23
2,62178, Note_on_c, 0, 53, 0
2,62204, Control_c, 0, 67, 24
2,62216, Note_on_c, 0, 75, 78
2,62219, Note_on_c, 0, 55, 62
2,62223, Control_c, 0, 64, 30
2,62223, Control_c, 0, 67, 25
2,62258, Note_on_c, 0, 74, 0
2,62261, Control_c, 0, 67, 25
2,62262, Note_on_c, 0, 55, 0
2,62281, Control_c, 0, 67, 26
2,62289, Note_on_c, 0, 75, 0
2,62300, Control_c, 0, 67, 27
2,62319, Control_c, 0, 67, 28
2,62338, Control_c, 0, 67, 28
2,62358, Control_c, 0, 67, 30
2,62376, Control_c, 0, 67, 33
2,62378, Note_on_c, 0, 72, 77
2,62382, Note_on_c, 0, 51, 62
2,62396, Control_c, 0, 67, 36
2,62415, Control_c, 0, 67, 43
2,62420, Note_on_c, 0, 51, 0
2,62434, Control_c, 0, 67, 52
2,62451, Note_on_c, 0, 72, 0
2,62453, Control_c, 0, 67, 59
2,62473, Control_c, 0, 67, 65
2,62493, Control_c, 0, 67, 71
2,62511, Control_c, 0, 67, 77
2,62528, Note_on_c, 0, 70, 74
2,62531, Control_c, 0, 67, 83
2,62532, Note_on_c, 0, 50, 65
2,62550, Control_c, 0, 67, 89
2,62570, Control_c, 0, 67, 92
2,62588, Control_c, 0, 67, 95
2,62608, Control_c, 0, 67, 98
2,62627, Control_c, 0, 67, 100
2,62647, Control_c, 0, 67, 102
2,62658, Note_on_c, 0, 50, 0
2,62665, Control_c, 0, 67, 104
2,62685, Control_c, 0, 64, 31
2,62685, Control_c, 0, 67, 105
2,62685, Note_on_c, 0, 48, 61
2,62704, Control_c, 0, 67, 106
2,62745, Note_on_c, 0, 48, 0
2,62781, Control_c, 0, 67, 106
2,62819, Control_c, 0, 67, 105
2,62842, Note_on_c, 0, 46, 63
2,62857, Control_c, 0, 67, 105
2,62881, Note_on_c, 0, 46, 0
2,63011, Control_c, 0, 67, 104
2,63012, Note_on_c, 0, 62, 53
2,63026, Note_on_c, 0, 58, 57
2,63050, Control_c, 0, 67, 104
2,63088, Control_c, 0, 67, 103
2,63107, Control_c, 0, 67, 103
2,63127, Control_c, 0, 67, 102
2,63136, Note_on_c, 0, 58, 0
2,63145, Control_c, 0, 67, 102
2,63146, Note_on_c, 0, 62, 0
2,63169, Note_on_c, 0, 63, 56
2,63173, Note_on_c, 0, 60, 62
2,63203, Control_c, 0, 67, 101
2,63222, Control_c, 0, 67, 101
2,63225, Note_on_c, 0, 63, 0
2,63242, Control_c, 0, 64, 31
2,63242, Control_c, 0, 67, 100
2,63253, Note_on_c, 0, 60, 0
2,63261, Control_c, 0, 67, 100
2,63280, Control_c, 0, 67, 99
2,63309, Note_on_c, 0, 62, 55
2,63309, Note_on_c, 0, 65, 62
2,63319, Control_c, 0, 67, 99
2,63445, Note_on_c, 0, 62, 0
2,63456, Note_on_c, 0, 65, 0
2,63467, Note_on_c, 0, 63, 60
2,63470, Note_on_c, 0, 67, 58
2,63604, Note_on_c, 0, 63, 0
2,63623, Note_on_c, 0, 62, 53
2,63625, Control_c, 0, 67, 98
2,63629, Note_on_c, 0, 65, 61
2,63645, Control_c, 0, 67, 98
2,63660, Note_on_c, 0, 67, 0
2,63702, Control_c, 0, 67, 97
2,63760, Control_c, 0, 67, 97
2,63769, Note_on_c, 0, 62, 0
2,63780, Note_on_c, 0, 65, 0
2,63780, Note_on_c, 0, 68, 70
2,63789, Note_on_c, 0, 60, 53
2,63868, Note_on_c, 0, 68, 0
2,63882, Note_on_c, 0, 60, 0
2,63936, Note_on_c, 0, 67, 59
2,63945, Note_on_c, 0, 58, 58
2,64060, Note_on_c, 0, 58, 0
2,64067, Control_c, 0, 67, 96
2,64086, Note_on_c, 0, 68, 68
2,64094, Note_on_c, 0, 60, 56
2,64104, Note_on_c, 0, 67, 0
2,64125, Control_c, 0, 67, 96
2,64144, Control_c, 0, 67, 95
2,64146, Note_on_c, 0, 68, 0
2,64160, Note_on_c, 0, 60, 0
2,64182, Control_c, 0, 67, 95
2,64221, Control_c, 0, 64, 32
2,64236, Note_on_c, 0, 56, 52
2,64242, Note_on_c, 0, 65, 56
2,64279, Control_c, 0, 67, 95
2,64329, Note_on_c, 0, 56, 0
2,64379, Note_on_c, 0, 65, 0
2,64396, Note_on_c, 0, 55, 64
2,64407, Note_on_c, 0, 64, 62
2,64451, Control_c, 0, 67, 96
2,64461, Note_on_c, 0, 55, 0
2,64524, Note_on_c, 0, 64, 0
2,64547, Control_c, 0, 67, 96
2,64549, Note_on_c, 0, 65, 55
2,64605, Control_c, 0, 67, 97
2,64704, Note_on_c, 0, 67, 59
2,64707, Note_on_c, 0, 53, 48
2,64718, Control_c, 0, 67, 96
2,64737, Control_c, 0, 67, 96
2,64744, Note_on_c, 0, 53, 0
2,64746, Note_on_c, 0, 65, 0
2,64776, Control_c, 0, 67, 95
2,64859, Note_on_c, 0, 52, 60
2,64863, Note_on_c, 0, 60, 64
2,64871, Control_c, 0, 67, 94
2,64871, Note_on_c, 0, 67, 0
2,64891, Control_c, 0, 67, 93
2,64929, Control_c, 0, 67, 93
2,64941, Note_on_c, 0, 52, 0
2,64968, Control_c, 0, 67, 92
2,64986, Control_c, 0, 67, 92
2,65003, Note_on_c, 0, 67, 64
2,65022, Note_on_c, 0, 60, 0
2,65025, Control_c, 0, 67, 91
2,65042, Note_on_c, 0, 70, 0
2,65045, Control_c, 0, 64, 32
2,65045, Control_c, 0, 67, 91
2,65063, Control_c, 0, 67, 90
2,65082, Note_on_c, 0, 67, 0
2,65083, Control_c, 0, 67, 88
2,65102, Control_c, 0, 67, 85
2,65122, Control_c, 0, 67, 82
2,65140, Control_c, 0, 67, 80
2,65154, Note_on_c, 0, 48, 55
2,65157, Note_on_c, 0, 68, 78
2,65160, Control_c, 0, 67, 78
2,65179, Control_c, 0, 67, 76
2,65198, Control_c, 0, 67, 73
2,65217, Control_c, 0, 67, 69
2,65227, Note_on_c, 0, 68, 0
2,65237, Control_c, 0, 67, 65
2,65256, Control_c, 0, 67, 63
2,65274, Control_c, 0, 67, 61
2,65274, Note_on_c, 0, 48, 0
2,65294, Control_c, 0, 67, 60
2,65313, Control_c, 0, 67, 58
2,65317, Note_on_c, 0, 68, 77
2,65319, Note_on_c, 0, 53, 65
2,65332, Control_c, 0, 67, 56
2,65353, Control_c, 0, 67, 53
2,65373, Control_c, 0, 67, 49
2,65391, Control_c, 0, 67, 45
2,65411, Control_c, 0, 67, 43
2,65430, Control_c, 0, 67, 39
2,65450, Control_c, 0, 67, 35
2,65466, Note_on_c, 0, 53, 0
2,65468, Control_c, 0, 67, 28
2,65471, Note_on_c, 0, 56, 73
2,65488, Control_c, 0, 67, 20
2,65507, Control_c, 0, 67, 10
2,65527, Control_c, 0, 67, 0
2,65545, Note_on_c, 0, 56, 0
2,65603, Control_c, 0, 64, 33
2,65625, Note_on_c, 0, 58, 69
2,65665, Note_on_c, 0, 58, 0
2,65737, Control_c, 0, 64, 33
2,65788, Note_on_c, 0, 58, 69
2,65800, Note_on_c, 0, 50, 59
2,65892, Note_on_c, 0, 68, 0
2,65932, Note_on_c, 0, 65, 66
2,65944, Note_on_c, 0, 50, 0
2,65977, Note_on_c, 0, 65, 0
2,66077, Note_on_c, 0, 67, 70
2,66083, Control_c, 0, 64, 34
2,66131, Note_on_c, 0, 67, 0
2,66240, Note_on_c, 0, 67, 71
2,66243, Note_on_c, 0, 52, 54
2,66295, Note_on_c, 0, 58, 0
2,66333, Control_c, 0, 64, 34
2,66355, Note_on_c, 0, 52, 0
2,66397, Note_on_c, 0, 55, 62
2,66428, Control_c, 0, 64, 35
2,66452, Note_on_c, 0, 55, 0
2,66552, Note_on_c, 0, 56, 70
2,66591, Note_on_c, 0, 56, 0
2,66698, Note_on_c, 0, 56, 66
2,66724, Note_on_c, 0, 53, 52
2,66809, Note_on_c, 0, 53, 0
2,66839, Note_on_c, 0, 67, 0
2,66870, Control_c, 0, 67, 11
2,66881, Note_on_c, 0, 64, 64
2,66890, Control_c, 0, 67, 16
2,66908, Control_c, 0, 67, 21
2,66921, Note_on_c, 0, 64, 0
2,66928, Control_c, 0, 67, 26
2,66947, Control_c, 0, 67, 32
2,66967, Control_c, 0, 67, 37
2,66985, Control_c, 0, 67, 42
2,67005, Control_c, 0, 67, 48
2,67021, Note_on_c, 0, 65, 65
2,67024, Control_c, 0, 67, 56
2,67043, Control_c, 0, 67, 63
2,67062, Control_c, 0, 67, 70
2,67063, Note_on_c, 0, 65, 0
2,67082, Control_c, 0, 67, 79
2,67101, Control_c, 0, 67, 88
2,67120, Control_c, 0, 67, 98
2,67139, Control_c, 0, 67, 108
2,67159, Control_c, 0, 67, 120
2,67172, Note_on_c, 0, 49, 49
2,67176, Note_on_c, 0, 65, 57
2,67177, Control_c, 0, 67, 127
2,67225, Note_on_c, 0, 56, 0
2,67296, Note_on_c, 0, 49, 0
2,67331, Note_on_c, 0, 53, 63
2,67382, Note_on_c, 0, 53, 0
2,67496, Note_on_c, 0, 55, 65
2,67547, Note_on_c, 0, 55, 0
2,67661, Note_on_c, 0, 47, 49
2,67661, Note_on_c, 0, 55, 58
2,67724, Note_on_c, 0, 65, 0
2,67727, Note_on_c, 0, 47, 0
2,67815, Note_on_c, 0, 62, 52
2,67875, Note_on_c, 0, 62, 0
2,67981, Note_on_c, 0, 64, 56
2,68029, Note_on_c, 0, 64, 0
2,68115, Note_on_c, 0, 55, 0
2,68130, Note_on_c, 0, 64, 65
2,68139, Note_on_c, 0, 48, 46
2,68297, Note_on_c, 0, 59, 65
2,68349, Note_on_c, 0, 59, 0
2,68437, Note_on_c, 0, 60, 60
2,68514, Note_on_c, 0, 60, 0
2,68605, Note_on_c, 0, 68, 76
2,68628, Note_on_c, 0, 64, 0
2,68732, Control_c, 0, 67, 126
2,68751, Control_c, 0, 67, 125
2,68769, Note_on_c, 0, 64, 57
2,68770, Control_c, 0, 67, 123
2,68789, Control_c, 0, 67, 121
2,68809, Control_c, 0, 67, 120
2,68827, Control_c, 0, 67, 118
2,68847, Control_c, 0, 67, 117
2,68866, Control_c, 0, 67, 116
2,68875, Note_on_c, 0, 64, 0
2,68886, Control_c, 0, 67, 115
2,68904, Control_c, 0, 67, 113
2,68915, Note_on_c, 0, 65, 47
2,68924, Control_c, 0, 67, 112
2,68943, Control_c, 0, 67, 110
2,68962, Control_c, 0, 67, 107
2,68981, Control_c, 0, 67, 104
2,69001, Control_c, 0, 67, 100
2,69020, Control_c, 0, 67, 97
2,69021, Note_on_c, 0, 65, 0
2,69039, Control_c, 0, 67, 93
2,69058, Control_c, 0, 67, 90
2,69078, Control_c, 0, 67, 88
2,69080, Note_on_c, 0, 58, 64
2,69096, Control_c, 0, 67, 87
2,69115, Control_c, 0, 67, 86
2,69135, Control_c, 0, 67, 84
2,69154, Control_c, 0, 67, 82
2,69173, Control_c, 0, 67, 82
2,69197, Control_c, 0, 67, 81
2,69228, Note_on_c, 0, 67, 72
2,69234, Control_c, 0, 67, 81
2,69271, Note_on_c, 0, 67, 0
2,69273, Control_c, 0, 67, 80
2,69277, Note_on_c, 0, 68, 0
2,69350, Control_c, 0, 67, 81
2,69382, Note_on_c, 0, 65, 64
2,69426, Control_c, 0, 64, 34
2,69437, Note_on_c, 0, 65, 0
2,69465, Control_c, 0, 67, 80
2,69533, Note_on_c, 0, 67, 63
2,69538, Control_c, 0, 64, 34
2,69634, Control_c, 0, 64, 33
2,69653, Control_c, 0, 67, 80
2,69659, Note_on_c, 0, 58, 0
2,69672, Control_c, 0, 67, 79
2,69692, Control_c, 0, 67, 79
2,69698, Note_on_c, 0, 52, 55
2,69711, Control_c, 0, 67, 78
2,69730, Control_c, 0, 67, 78
2,69745, Note_on_c, 0, 52, 0
2,69749, Control_c, 0, 67, 74
2,69769, Control_c, 0, 67, 65
2,69787, Control_c, 0, 67, 54
2,69807, Control_c, 0, 67, 42
2,69826, Control_c, 0, 67, 31
2,69831, Note_on_c, 0, 55, 68
2,69846, Control_c, 0, 67, 20
2,69864, Control_c, 0, 67, 10
2,69879, Note_on_c, 0, 55, 0
2,69884, Control_c, 0, 67, 0
2,69992, Note_on_c, 0, 56, 67
2,70152, Note_on_c, 0, 65, 64
2,70165, Note_on_c, 0, 67, 0
2,70192, Note_on_c, 0, 65, 0
2,70293, Note_on_c, 0, 64, 72
2,70335, Note_on_c, 0, 64, 0
2,70454, Note_on_c, 0, 65, 71
2,70607, Note_on_c, 0, 72, 75
2,70614, Note_on_c, 0, 65, 0
2,70678, Note_on_c, 0, 72, 0
2,70749, Note_on_c, 0, 77, 75
2,70813, Note_on_c, 0, 77, 0
2,70918, Note_on_c, 0, 70, 71
2,70972, Note_on_c, 0, 56, 0
2,71066, Note_on_c, 0, 55, 65
2,71108, Note_on_c, 0, 55, 0
2,71210, Note_on_c, 0, 53, 68
2,71249, Note_on_c, 0, 53, 0
2,71371, Note_on_c, 0, 52, 70
2,71506, Note_on_c, 0, 52, 0
2,71512, Note_on_c, 0, 70, 0
2,71518, Note_on_c, 0, 55, 73
2,71527, Note_on_c, 0, 76, 78
2,71591, Note_on_c, 0, 76, 0
2,71602, Note_on_c, 0, 55, 0
2,71664, Note_on_c, 0, 58, 67
2,71681, Note_on_c, 0, 79, 86
2,71689, Control_c, 0, 64, 34
2,71748, Note_on_c, 0, 79, 0
2,71841, Note_on_c, 0, 72, 84
2,71931, Note_on_c, 0, 58, 0
2,71989, Note_on_c, 0, 56, 76
2,72031, Note_on_c, 0, 56, 0
2,72147, Note_on_c, 0, 55, 75
2,72192, Note_on_c, 0, 55, 0
2,72284, Control_c, 0, 64, 34
2,72291, Note_on_c, 0, 53, 76
2,72406, Note_on_c, 0, 53, 0
2,72442, Note_on_c, 0, 77, 80
2,72453, Note_on_c, 0, 56, 78
2,72497, Note_on_c, 0, 72, 0
2,72529, Note_on_c, 0, 77, 0
2,72536, Note_on_c, 0, 56, 0
2,72598, Note_on_c, 0, 80, 88
2,72599, Note_on_c, 0, 60, 68
2,72667, Control_c, 0, 64, 35
2,72671, Note_on_c, 0, 80, 0
2,72756, Note_on_c, 0, 73, 88
2,72764, Control_c, 0, 64, 35
2,72821, Control_c, 0, 64, 36
2,72862, Note_on_c, 0, 60, 0
2,72900, Note_on_c, 0, 58, 78
2,72937, Control_c, 0, 64, 36
2,72965, Note_on_c, 0, 58, 0
2,72977, Note_on_c, 0, 73, 0
2,73068, Note_on_c, 0, 77, 88
2,73072, Note_on_c, 0, 56, 70
2,73129, Control_c, 0, 64, 37
2,73148, Note_on_c, 0, 77, 0
2,73170, Note_on_c, 0, 56, 0
2,73225, Note_on_c, 0, 55, 68
2,73227, Note_on_c, 0, 82, 92
2,73321, Control_c, 0, 64, 37
2,73336, Note_on_c, 0, 55, 0
2,73375, Note_on_c, 0, 56, 77
2,73455, Control_c, 0, 64, 38
2,73457, Note_on_c, 0, 56, 0
2,73462, Note_on_c, 0, 82, 0
2,73529, Note_on_c, 0, 48, 0
2,73529, Note_on_c, 0, 48, 11
2,73530, Note_on_c, 0, 73, 88
2,73542, Note_on_c, 0, 53, 68
2,73599, Note_on_c, 0, 73, 0
2,73640, Note_on_c, 0, 53, 0
2,73691, Note_on_c, 0, 72, 91
2,73707, Note_on_c, 0, 52, 62
2,73844, Note_on_c, 0, 50, 65
2,73846, Note_on_c, 0, 52, 0
2,73914, Note_on_c, 0, 48, 0
2,73938, Note_on_c, 0, 72, 0
2,73990, Note_on_c, 0, 52, 73
2,74000, Note_on_c, 0, 82, 92
2,74013, Note_on_c, 0, 50, 0
2,74063, Note_on_c, 0, 80, 23
2,74083, Note_on_c, 0, 80, 0
2,74152, Note_on_c, 0, 80, 88
2,74161, Note_on_c, 0, 52, 0
2,74161, Note_on_c, 0, 53, 72
2,74212, Note_on_c, 0, 82, 0
2,74264, Note_on_c, 0, 53, 0
2,74298, Note_on_c, 0, 55, 75
2,74362, Note_on_c, 0, 80, 0
2,74388, Note_on_c, 0, 55, 0
2,74454, Control_c, 0, 64, 38
2,74454, Note_on_c, 0, 56, 87
2,74455, Note_on_c, 0, 77, 83
2,74484, Note_on_c, 0, 56, 0
2,74556, Note_on_c, 0, 77, 0
2,74624, Note_on_c, 0, 71, 91
2,74631, Note_on_c, 0, 38, 91
2,74773, Note_on_c, 0, 71, 0
2,74786, Note_on_c, 0, 77, 89
2,74857, Control_c, 0, 64, 38
2,74864, Note_on_c, 0, 77, 0
2,74946, Note_on_c, 0, 79, 95
2,75025, Note_on_c, 0, 79, 0
2,75110, Note_on_c, 0, 80, 90
2,75111, Note_on_c, 0, 47, 82
2,75255, Note_on_c, 0, 80, 0
2,75256, Note_on_c, 0, 47, 0
2,75279, Note_on_c, 0, 79, 91
2,75370, Note_on_c, 0, 79, 0
2,75396, Control_c, 0, 67, 11
2,75416, Control_c, 0, 67, 15
2,75429, Note_on_c, 0, 77, 88
2,75435, Control_c, 0, 67, 19
2,75455, Control_c, 0, 67, 23
2,75473, Control_c, 0, 67, 26
2,75493, Control_c, 0, 67, 29
2,75512, Control_c, 0, 67, 32
2,75532, Control_c, 0, 67, 35
2,75542, Note_on_c, 0, 38, 0
2,75550, Control_c, 0, 67, 38
2,75570, Control_c, 0, 67, 40
2,75581, Note_on_c, 0, 36, 71
2,75583, Note_on_c, 0, 48, 80
2,75589, Control_c, 0, 67, 41
2,75627, Control_c, 0, 67, 41
2,75647, Control_c, 0, 67, 40
2,75648, Note_on_c, 0, 77, 0
2,75660, Note_on_c, 0, 36, 0
2,75666, Control_c, 0, 67, 40
2,75675, Note_on_c, 0, 48, 0
2,75685, Control_c, 0, 67, 39
2,75704, Control_c, 0, 67, 39
2,75724, Control_c, 0, 67, 38
2,75742, Control_c, 0, 67, 38
2,75750, Note_on_c, 0, 76, 78
2,75762, Control_c, 0, 67, 37
2,75781, Control_c, 0, 67, 37
2,75801, Control_c, 0, 67, 36
2,75808, Note_on_c, 0, 76, 0
2,75876, Control_c, 0, 67, 36
2,75886, Note_on_c, 0, 50, 75
2,75896, Control_c, 0, 67, 35
2,75896, Note_on_c, 0, 73, 82
2,75934, Control_c, 0, 67, 35
2,75951, Note_on_c, 0, 50, 0
2,76045, Note_on_c, 0, 52, 77
2,76087, Control_c, 0, 67, 34
2,76103, Note_on_c, 0, 52, 0
2,76106, Control_c, 0, 67, 34
2,76126, Control_c, 0, 67, 33
2,76143, Note_on_c, 0, 73, 0
2,76145, Control_c, 0, 67, 33
2,76164, Control_c, 0, 67, 32
2,76195, Note_on_c, 0, 72, 78
2,76236, Control_c, 0, 67, 32
2,76265, Note_on_c, 0, 72, 0
2,76294, Control_c, 0, 67, 31
2,76341, Note_on_c, 0, 48, 60
2,76344, Note_on_c, 0, 70, 78
2,76527, Note_on_c, 0, 53, 53
2,76574, Note_on_c, 0, 53, 0
2,76600, Note_on_c, 0, 70, 0
2,76661, Note_on_c, 0, 68, 65
2,76717, Note_on_c, 0, 68, 0
2,76782, Note_on_c, 0, 55, 65
2,76807, Note_on_c, 0, 67, 75
2,76868, Note_on_c, 0, 55, 0
2,76871, Control_c, 0, 67, 31
2,76884, Note_on_c, 0, 67, 0
2,76956, Note_on_c, 0, 65, 86
2,76967, Note_on_c, 0, 56, 73
2,76968, Control_c, 0, 67, 30
2,76986, Control_c, 0, 67, 30
2,77025, Control_c, 0, 67, 29
2,77045, Control_c, 0, 67, 28
2,77047, Note_on_c, 0, 65, 0
2,77061, Note_on_c, 0, 56, 0
2,77063, Control_c, 0, 67, 28
2,77083, Control_c, 0, 67, 27
2,77102, Control_c, 0, 67, 27
2,77103, Note_on_c, 0, 48, 0
2,77111, Note_on_c, 0, 64, 84
2,77122, Note_on_c, 0, 60, 68
2,77140, Control_c, 0, 67, 26
2,77171, Note_on_c, 0, 64, 0
2,77176, Note_on_c, 0, 60, 0
2,77197, Control_c, 0, 64, 29
2,77217, Control_c, 0, 64, 0
2,77217, Control_c, 0, 67, 27
2,77236, Control_c, 0, 67, 27
2,77244, Note_on_c, 0, 59, 77
2,77246, Note_on_c, 0, 65, 80
2,77256, Control_c, 0, 67, 28
2,77274, Control_c, 0, 67, 28
2,77287, Note_on_c, 0, 59, 0
2,77294, Control_c, 0, 67, 29
2,77313, Control_c, 0, 67, 30
2,77314, Note_on_c, 0, 65, 0
2,77390, Control_c, 0, 67, 29
2,77390, Note_on_c, 0, 72, 85
2,77409, Control_c, 0, 67, 29
2,77426, Note_on_c, 0, 60, 68
2,77428, Control_c, 0, 64, 47
2,77439, Note_on_c, 0, 55, 60
2,77448, Control_c, 0, 64, 57
2,77459, Note_on_c, 0, 48, 36
2,77466, Control_c, 0, 64, 58
2,77466, Control_c, 0, 67, 29
2,77475, Note_on_c, 0, 60, 0
2,77486, Control_c, 0, 64, 59
2,77497, Note_on_c, 0, 55, 0
2,77503, Note_on_c, 0, 48, 0
2,77505, Control_c, 0, 64, 61
2,77505, Control_c, 0, 67, 29
2,77525, Control_c, 0, 64, 61
2,77550, Note_on_c, 0, 62, 63
2,77563, Control_c, 0, 64, 61
2,77592, Note_on_c, 0, 72, 0
2,77661, Note_on_c, 0, 64, 57
2,77691, Note_on_c, 0, 62, 0
2,77713, Note_on_c, 0, 64, 0
2,77716, Control_c, 0, 64, 60
2,77716, Control_c, 0, 67, 29
2,77736, Control_c, 0, 64, 57
2,77754, Control_c, 0, 64, 34
2,77757, Note_on_c, 0, 48, 52
2,77774, Control_c, 0, 64, 0
2,77774, Control_c, 0, 67, 29
2,77828, Control_c, 0, 67, 28
2,77830, Note_on_c, 0, 53, 80
2,77842, Note_on_c, 0, 63, 77
2,77845, Note_on_c, 0, 60, 79
2,77849, Note_on_c, 0, 69, 89
2,77858, Note_on_c, 0, 48, 0
2,77867, Control_c, 0, 67, 28
2,77869, Note_on_c, 0, 53, 0
2,77887, Control_c, 0, 64, 60
2,77905, Control_c, 0, 64, 81
2,77925, Control_c, 0, 64, 127
2,77937, Note_on_c, 0, 63, 0
2,77944, Control_c, 0, 67, 28
2,78012, Note_on_c, 0, 69, 0
2,78018, Note_on_c, 0, 67, 77
2,78097, Control_c, 0, 67, 29
2,78098, Note_on_c, 0, 60, 0
2,78112, Note_on_c, 0, 67, 0
2,78148, Note_on_c, 0, 69, 88
2,78201, Note_on_c, 0, 69, 0
2,78231, Control_c, 0, 67, 28
2,78327, Control_c, 0, 67, 30
2,78337, Note_on_c, 0, 46, 71
2,78350, Note_on_c, 0, 58, 62
2,78366, Control_c, 0, 67, 31
2,78384, Control_c, 0, 64, 87
2,78384, Control_c, 0, 67, 31
2,78404, Control_c, 0, 64, 63
2,78404, Note_on_c, 0, 61, 67
2,78404, Note_on_c, 0, 65, 70
2,78423, Control_c, 0, 64, 0
2,78423, Control_c, 0, 67, 32
2,78425, Note_on_c, 0, 70, 85
2,78429, Note_on_c, 0, 73, 88
2,78481, Control_c, 0, 67, 31
2,78538, Control_c, 0, 64, 56
2,78538, Control_c, 0, 67, 31
2,78546, Note_on_c, 0, 58, 0
2,78557, Control_c, 0, 64, 65
2,78577, Control_c, 0, 64, 71
2,78577, Control_c, 0, 67, 30
2,78595, Control_c, 0, 64, 77
2,78615, Control_c, 0, 64, 79
2,78616, Note_on_c, 0, 49, 74
2,78617, Note_on_c, 0, 46, 0
2,78619, Note_on_c, 0, 61, 0
2,78634, Control_c, 0, 64, 78
2,78653, Control_c, 0, 64, 76
2,78653, Control_c, 0, 67, 30
2,78660, Note_on_c, 0, 65, 0
2,78672, Control_c, 0, 64, 73
2,78692, Control_c, 0, 64, 71
2,78697, Note_on_c, 0, 49, 0
2,78711, Control_c, 0, 64, 68
2,78720, Note_on_c, 0, 70, 0
2,78729, Note_on_c, 0, 73, 0
2,78730, Control_c, 0, 64, 65
2,78749, Control_c, 0, 64, 63
2,78783, Control_c, 0, 64, 62
2,78783, Control_c, 0, 67, 30
2,78790, Note_on_c, 0, 53, 71
2,78801, Control_c, 0, 64, 60
2,78818, Control_c, 0, 64, 59
2,78818, Control_c, 0, 67, 31
2,78832, Note_on_c, 0, 53, 0
2,78838, Control_c, 0, 64, 58
2,78838, Control_c, 0, 67, 31
2,78857, Control_c, 0, 64, 54
2,78876, Control_c, 0, 64, 50
2,78895, Control_c, 0, 64, 42
2,78915, Control_c, 0, 64, 37
2,78934, Control_c, 0, 64, 32
2,78953, Control_c, 0, 64, 28
2,78953, Control_c, 0, 67, 33
2,78969, Note_on_c, 0, 72, 91
2,78972, Control_c, 0, 64, 22
2,78972, Control_c, 0, 67, 33
2,78978, Note_on_c, 0, 58, 71
2,78992, Control_c, 0, 64, 18
2,78992, Control_c, 0, 67, 34
2,79010, Control_c, 0, 64, 16
2,79010, Control_c, 0, 67, 35
2,79049, Control_c, 0, 64, 14
2,79049, Control_c, 0, 67, 35
2,79069, Control_c, 0, 64, 11
2,79069, Control_c, 0, 67, 36
2,79087, Control_c, 0, 64, 8
2,79087, Control_c, 0, 67, 38
2,79106, Control_c, 0, 67, 40
2,79126, Control_c, 0, 67, 41
2,79132, Note_on_c, 0, 58, 0
2,79134, Note_on_c, 0, 57, 66
2,79139, Note_on_c, 0, 74, 83
2,79144, Control_c, 0, 67, 45
2,79161, Note_on_c, 0, 72, 0
2,79164, Control_c, 0, 64, 0
2,79164, Control_c, 0, 67, 52
2,79183, Control_c, 0, 67, 60
2,79186, Note_on_c, 0, 57, 0
2,79203, Control_c, 0, 67, 69
2,79210, Note_on_c, 0, 74, 0
2,79221, Control_c, 0, 67, 77
2,79241, Control_c, 0, 67, 82
2,79260, Control_c, 0, 67, 87
2,79279, Control_c, 0, 67, 88
2,79294, Note_on_c, 0, 76, 91
2,79311, Note_on_c, 0, 55, 55
2,79337, Control_c, 0, 67, 88
2,79348, Note_on_c, 0, 55, 0
2,79356, Control_c, 0, 67, 87
2,79362, Note_on_c, 0, 76, 0
2,79375, Control_c, 0, 67, 86
2,79395, Control_c, 0, 67, 85
2,79414, Control_c, 0, 67, 85
2,79433, Control_c, 0, 67, 84
2,79444, Note_on_c, 0, 77, 88
2,79452, Control_c, 0, 67, 83
2,79466, Note_on_c, 0, 57, 64
2,79490, Control_c, 0, 67, 82
2,79529, Control_c, 0, 67, 82
2,79533, Note_on_c, 0, 77, 0
2,79589, Note_on_c, 0, 76, 85
2,79599, Note_on_c, 0, 57, 0
2,79647, Note_on_c, 0, 76, 0
2,79663, Control_c, 0, 67, 81
2,79701, Control_c, 0, 67, 81
2,79728, Note_on_c, 0, 58, 66
2,79742, Note_on_c, 0, 74, 75
2,79753, Note_on_c, 0, 70, 79
2,79776, Note_on_c, 0, 58, 0
2,79808, Note_on_c, 0, 74, 0
2,79875, Note_on_c, 0, 70, 0
2,79894, Note_on_c, 0, 72, 81
2,79901, Note_on_c, 0, 70, 32
2,79913, Note_on_c, 0, 69, 68
2,79917, Note_on_c, 0, 60, 58
2,79933, Note_on_c, 0, 70, 0
2,79980, Note_on_c, 0, 60, 0
2,79983, Note_on_c, 0, 72, 0
2,80047, Note_on_c, 0, 74, 68
2,80056, Note_on_c, 0, 69, 0
2,80061, Control_c, 0, 64, 8
2,80108, Note_on_c, 0, 74, 0
2,80179, Note_on_c, 0, 48, 44
2,80181, Note_on_c, 0, 70, 78
2,80187, Note_on_c, 0, 67, 67
2,80220, Note_on_c, 0, 48, 0
2,80222, Note_on_c, 0, 70, 0
2,80225, Note_on_c, 0, 67, 0
2,80334, Note_on_c, 0, 69, 75
2,80342, Note_on_c, 0, 65, 70
2,80345, Note_on_c, 0, 53, 64
2,80380, Note_on_c, 0, 53, 0
2,80382, Note_on_c, 0, 65, 0
2,80388, Control_c, 0, 67, 81
2,80404, Note_on_c, 0, 69, 0
2,80407, Control_c, 0, 67, 82
2,80426, Control_c, 0, 67, 83
2,80446, Control_c, 0, 67, 84
2,80468, Control_c, 0, 67, 87
2,80486, Control_c, 0, 67, 88
2,80506, Control_c, 0, 67, 90
2,80525, Control_c, 0, 67, 91
2,80533, Note_on_c, 0, 65, 58
2,80544, Control_c, 0, 67, 93
2,80563, Control_c, 0, 67, 99
2,80583, Control_c, 0, 67, 102
2,80594, Note_on_c, 0, 67, 65
2,80602, Control_c, 0, 67, 103
2,80607, Note_on_c, 0, 65, 0
2,80621, Control_c, 0, 67, 104
2,80666, Note_on_c, 0, 69, 64
2,80679, Note_on_c, 0, 67, 0
2,80698, Note_on_c, 0, 70, 71
2,80736, Note_on_c, 0, 69, 0
2,80754, Control_c, 0, 67, 103
2,80765, Note_on_c, 0, 72, 73
2,80766, Note_on_c, 0, 41, 61
2,80774, Control_c, 0, 67, 103
2,80793, Control_c, 0, 64, 0
2,80793, Control_c, 0, 67, 102
2,80797, Note_on_c, 0, 70, 0
2,80813, Control_c, 0, 67, 102
2,80831, Control_c, 0, 67, 101
2,80851, Control_c, 0, 67, 100
2,80870, Control_c, 0, 67, 100
2,80879, Note_on_c, 0, 41, 0
2,80889, Control_c, 0, 67, 99
2,80908, Control_c, 0, 67, 98
2,80921, Note_on_c, 0, 69, 64
2,80927, Control_c, 0, 67, 98
2,80947, Control_c, 0, 67, 97
2,80953, Note_on_c, 0, 40, 47
2,80972, Note_on_c, 0, 69, 0
2,80985, Control_c, 0, 67, 97
2,80992, Note_on_c, 0, 40, 0
2,81041, Control_c, 0, 67, 96
2,81085, Note_on_c, 0, 41, 68
2,81095, Note_on_c, 0, 63, 71
2,81100, Control_c, 0, 67, 96
2,81128, Note_on_c, 0, 41, 0
2,81132, Note_on_c, 0, 63, 0
2,81242, Note_on_c, 0, 63, 65
2,81243, Note_on_c, 0, 46, 70
2,81323, Note_on_c, 0, 63, 0
2,81336, Note_on_c, 0, 46, 0
2,81399, Note_on_c, 0, 62, 62
2,81456, Note_on_c, 0, 72, 0
2,81483, Note_on_c, 0, 65, 61
2,81535, Note_on_c, 0, 62, 0
2,81538, Note_on_c, 0, 67, 60
2,81541, Control_c, 0, 67, 95
2,81582, Note_on_c, 0, 65, 0
2,81584, Note_on_c, 0, 69, 68
2,81635, Note_on_c, 0, 67, 0
2,81656, Control_c, 0, 67, 95
2,81663, Note_on_c, 0, 70, 77
2,81670, Note_on_c, 0, 43, 64
2,81695, Control_c, 0, 64, 8
2,81695, Control_c, 0, 67, 94
2,81702, Note_on_c, 0, 69, 0
2,81772, Control_c, 0, 67, 93
2,81790, Control_c, 0, 67, 93
2,81809, Control_c, 0, 67, 92
2,81829, Control_c, 0, 67, 92
2,81836, Note_on_c, 0, 43, 0
2,81838, Note_on_c, 0, 41, 63
2,81838, Note_on_c, 0, 62, 62
2,81848, Control_c, 0, 67, 91
2,81867, Control_c, 0, 67, 90
2,81879, Note_on_c, 0, 62, 0
2,81882, Note_on_c, 0, 41, 0
2,81886, Control_c, 0, 67, 89
2,81906, Control_c, 0, 67, 87
2,81924, Control_c, 0, 67, 82
2,81944, Control_c, 0, 67, 76
2,81963, Control_c, 0, 67, 69
2,81977, Note_on_c, 0, 43, 75
2,81983, Control_c, 0, 67, 62
2,81983, Note_on_c, 0, 65, 60
2,82001, Control_c, 0, 67, 52
2,82021, Control_c, 0, 67, 42
2,82026, Note_on_c, 0, 43, 0
2,82027, Note_on_c, 0, 65, 0
2,82040, Control_c, 0, 67, 32
2,82060, Control_c, 0, 67, 25
2,82078, Control_c, 0, 67, 21
2,82098, Control_c, 0, 67, 19
2,82117, Control_c, 0, 67, 17
2,82129, Note_on_c, 0, 48, 78
2,82136, Control_c, 0, 67, 15
2,82153, Note_on_c, 0, 65, 57
2,82155, Control_c, 0, 67, 13
2,82175, Control_c, 0, 67, 13
2,82209, Note_on_c, 0, 48, 0
2,82232, Note_on_c, 0, 65, 0
2,82257, Note_on_c, 0, 70, 0
2,82282, Note_on_c, 0, 64, 67
2,82309, Control_c, 0, 67, 13
2,82389, Note_on_c, 0, 67, 62
2,82449, Note_on_c, 0, 69, 67
2,82467, Note_on_c, 0, 64, 0
2,82481, Control_c, 0, 67, 14
2,82489, Note_on_c, 0, 67, 0
2,82494, Note_on_c, 0, 70, 71
2,82540, Control_c, 0, 67, 14
2,82543, Note_on_c, 0, 69, 0
2,82552, Note_on_c, 0, 45, 64
2,82558, Control_c, 0, 67, 15
2,82575, Note_on_c, 0, 72, 79
2,82616, Control_c, 0, 67, 15
2,82616, Note_on_c, 0, 70, 0
2,82701, Note_on_c, 0, 45, 0
2,82724, Note_on_c, 0, 64, 72
2,82735, Note_on_c, 0, 43, 61
2,82774, Note_on_c, 0, 64, 0
2,82787, Note_on_c, 0, 43, 0
2,82854, Control_c, 0, 67, 15
2,82869, Note_on_c, 0, 67, 74
2,82879, Note_on_c, 0, 45, 68
2,82911, Note_on_c, 0, 67, 0
2,82927, Note_on_c, 0, 45, 0
2,83023, Note_on_c, 0, 50, 75
2,83033, Note_on_c, 0, 67, 67
2,83036, Control_c, 0, 67, 15
2,83075, Control_c, 0, 67, 16
2,83079, Note_on_c, 0, 72, 0
2,83095, Control_c, 0, 67, 16
2,83097, Note_on_c, 0, 50, 0
2,83108, Note_on_c, 0, 67, 0
2,83152, Control_c, 0, 67, 17
2,83159, Note_on_c, 0, 65, 59
2,83171, Control_c, 0, 67, 18
2,83190, Control_c, 0, 67, 18
2,83229, Control_c, 0, 67, 19
2,83241, Note_on_c, 0, 69, 73
2,83244, Note_on_c, 0, 65, 0
2,83267, Control_c, 0, 67, 19
2,83305, Control_c, 0, 67, 20
2,83314, Note_on_c, 0, 70, 70
2,83323, Note_on_c, 0, 69, 0
2,83375, Note_on_c, 0, 72, 70
2,83399, Note_on_c, 0, 70, 0
2,83437, Note_on_c, 0, 74, 76
2,83449, Note_on_c, 0, 46, 67
2,83449, Note_on_c, 0, 72, 0
2,83526, Note_on_c, 0, 72, 61
2,83555, Control_c, 0, 67, 19
2,83557, Note_on_c, 0, 46, 0
2,83579, Note_on_c, 0, 70, 71
2,83608, Note_on_c, 0, 72, 0
2,83614, Note_on_c, 0, 45, 58
2,83649, Note_on_c, 0, 69, 73
2,83664, Note_on_c, 0, 70, 0
2,83672, Control_c, 0, 67, 19
2,83684, Note_on_c, 0, 45, 0
2,83688, Note_on_c, 0, 69, 0
2,83705, Note_on_c, 0, 46, 59
2,83720, Note_on_c, 0, 67, 63
2,83729, Control_c, 0, 67, 18
2,83739, Note_on_c, 0, 46, 0
2,83775, Note_on_c, 0, 67, 0
2,83800, Note_on_c, 0, 65, 69
2,83844, Control_c, 0, 67, 18
2,83846, Note_on_c, 0, 65, 0
2,83858, Note_on_c, 0, 52, 82
2,83876, Note_on_c, 0, 67, 78
2,83917, Note_on_c, 0, 67, 0
2,83940, Note_on_c, 0, 52, 0
2,83961, Note_on_c, 0, 70, 74
2,83961, Note_on_c, 0, 74, 0
2,83992, Note_on_c, 0, 70, 0
2,84031, Note_on_c, 0, 72, 84
2,84037, Control_c, 0, 67, 18
2,84112, Note_on_c, 0, 74, 81
2,84114, Note_on_c, 0, 72, 0
2,84180, Note_on_c, 0, 76, 78
2,84204, Note_on_c, 0, 74, 0
2,84245, Note_on_c, 0, 77, 69
2,84277, Note_on_c, 0, 76, 0
2,84299, Note_on_c, 0, 79, 86
2,84309, Note_on_c, 0, 48, 76
2,84317, Note_on_c, 0, 77, 0
2,84344, Control_c, 0, 67, 18
2,84381, Note_on_c, 0, 77, 73
2,84383, Control_c, 0, 67, 18
2,84415, Note_on_c, 0, 48, 0
2,84431, Note_on_c, 0, 79, 0
2,84441, Note_on_c, 0, 76, 72
2,84465, Note_on_c, 0, 50, 76
2,84466, Note_on_c, 0, 77, 0
2,84511, Note_on_c, 0, 74, 76
2,84513, Note_on_c, 0, 50, 0
2,84514, Note_on_c, 0, 76, 0
2,84549, Note_on_c, 0, 74, 0
2,84570, Note_on_c, 0, 72, 69
2,84624, Note_on_c, 0, 52, 79
2,84657, Note_on_c, 0, 70, 81
2,84661, Note_on_c, 0, 52, 0
2,84662, Note_on_c, 0, 72, 0
2,84745, Note_on_c, 0, 69, 85
2,84768, Note_on_c, 0, 53, 83
2,84788, Note_on_c, 0, 70, 0
2,84803, Control_c, 0, 67, 19
2,84873, Note_on_c, 0, 69, 0
2,84908, Note_on_c, 0, 72, 78
2,84914, Note_on_c, 0, 53, 0
2,84918, Note_on_c, 0, 52, 69
2,84962, Note_on_c, 0, 52, 0
2,84970, Note_on_c, 0, 72, 0
2,84976, Control_c, 0, 67, 19
2,85061, Note_on_c, 0, 70, 78
2,85067, Note_on_c, 0, 50, 70
2,85104, Note_on_c, 0, 70, 0
2,85109, Note_on_c, 0, 50, 0
2,85149, Control_c, 0, 67, 19
2,85217, Note_on_c, 0, 72, 80
2,85221, Note_on_c, 0, 48, 61
2,85353, Note_on_c, 0, 48, 0
2,85379, Note_on_c, 0, 50, 65
2,85418, Control_c, 0, 67, 18
2,85424, Note_on_c, 0, 50, 0
2,85537, Note_on_c, 0, 64, 69
2,85543, Note_on_c, 0, 46, 60
2,85568, Note_on_c, 0, 64, 0
2,85572, Control_c, 0, 67, 18
2,85584, Note_on_c, 0, 46, 0
2,85591, Control_c, 0, 67, 17
2,85629, Control_c, 0, 67, 17
2,85648, Control_c, 0, 67, 16
2,85668, Control_c, 0, 67, 15
2,85687, Control_c, 0, 67, 13
2,85696, Note_on_c, 0, 45, 62
2,85702, Note_on_c, 0, 65, 67
2,85706, Control_c, 0, 67, 10
2,85725, Control_c, 0, 67, 0
2,85846, Note_on_c, 0, 46, 64
2,85852, Note_on_c, 0, 45, 0
2,85908, Note_on_c, 0, 72, 0
2,85913, Note_on_c, 0, 46, 0
2,86008, Note_on_c, 0, 65, 0
2,86014, Note_on_c, 0, 70, 72
2,86017, Note_on_c, 0, 74, 71
2,86019, Note_on_c, 0, 43, 60
2,86052, Note_on_c, 0, 70, 0
2,86062, Note_on_c, 0, 43, 0
2,86062, Note_on_c, 0, 74, 0
2,86165, Note_on_c, 0, 75, 77
2,86172, Note_on_c, 0, 41, 68
2,86178, Note_on_c, 0, 69, 64
2,86309, Note_on_c, 0, 41, 0
2,86327, Note_on_c, 0, 70, 73
2,86334, Note_on_c, 0, 43, 59
2,86409, Note_on_c, 0, 43, 0
2,86421, Note_on_c, 0, 70, 0
2,86481, Note_on_c, 0, 72, 79
2,86487, Note_on_c, 0, 45, 65
2,86507, Note_on_c, 0, 75, 0
2,86526, Note_on_c, 0, 45, 0
2,86653, Note_on_c, 0, 46, 66
2,86653, Note_on_c, 0, 74, 87
2,86696, Note_on_c, 0, 69, 0
2,86813, Note_on_c, 0, 48, 65
2,86818, Note_on_c, 0, 46, 0
2,86853, Note_on_c, 0, 48, 0
2,86853, Note_on_c, 0, 72, 0
2,86971, Note_on_c, 0, 65, 76
2,86977, Note_on_c, 0, 45, 67
2,87012, Note_on_c, 0, 65, 0
2,87027, Note_on_c, 0, 45, 0
2,87028, Control_c, 0, 64, 0
2,87132, Note_on_c, 0, 70, 91
2,87136, Note_on_c, 0, 43, 68
2,87155, Note_on_c, 0, 74, 0
2,87284, Note_on_c, 0, 43, 0
2,87292, Note_on_c, 0, 45, 70
2,87371, Note_on_c, 0, 45, 0
2,87438, Note_on_c, 0, 79, 89
2,87441, Note_on_c, 0, 46, 78
2,87491, Note_on_c, 0, 46, 0
2,87516, Note_on_c, 0, 79, 0
2,87613, Note_on_c, 0, 48, 82
2,87618, Note_on_c, 0, 76, 92
2,87768, Note_on_c, 0, 50, 77
2,87774, Note_on_c, 0, 48, 0
2,87810, Note_on_c, 0, 70, 0
2,87811, Note_on_c, 0, 50, 0
2,87938, Note_on_c, 0, 67, 78
2,87943, Note_on_c, 0, 46, 74
2,88004, Note_on_c, 0, 67, 0
2,88012, Note_on_c, 0, 46, 0
2,88104, Note_on_c, 0, 72, 95
2,88110, Note_on_c, 0, 45, 76
2,88164, Note_on_c, 0, 76, 0
2,88253, Note_on_c, 0, 45, 0
2,88266, Note_on_c, 0, 46, 79
2,88339, Note_on_c, 0, 46, 0
2,88428, Note_on_c, 0, 81, 91
2,88432, Note_on_c, 0, 48, 80
2,88489, Note_on_c, 0, 48, 0
2,88515, Note_on_c, 0, 81, 0
2,88607, Note_on_c, 0, 77, 87
2,88616, Note_on_c, 0, 50, 75
2,88731, Note_on_c, 0, 77, 0
2,88764, Note_on_c, 0, 69, 80
2,88769, Note_on_c, 0, 48, 72
2,88774, Note_on_c, 0, 50, 0
2,88774, Note_on_c, 0, 72, 0
2,88816, Note_on_c, 0, 48, 0
2,88818, Note_on_c, 0, 69, 0
2,88924, Note_on_c, 0, 74, 84
2,88926, Note_on_c, 0, 70, 82
2,88931, Note_on_c, 0, 46, 73
2,88967, Note_on_c, 0, 70, 0
2,88976, Note_on_c, 0, 46, 0
2,88986, Note_on_c, 0, 74, 0
2,89117, Note_on_c, 0, 69, 89
2,89123, Note_on_c, 0, 48, 70
2,89127, Note_on_c, 0, 65, 75
2,89322, Note_on_c, 0, 70, 88
2,89335, Note_on_c, 0, 48, 0
2,89339, Note_on_c, 0, 65, 0
2,89347, Note_on_c, 0, 69, 0
2,89379, Note_on_c, 0, 70, 0
2,89550, Note_on_c, 0, 67, 84
2,89553, Note_on_c, 0, 36, 63
2,89557, Note_on_c, 0, 64, 75
2,89617, Note_on_c, 0, 36, 0
2,89620, Note_on_c, 0, 64, 0
2,89644, Note_on_c, 0, 67, 0
2,89913, Note_on_c, 0, 65, 87
2,89918, Note_on_c, 0, 41, 67
2,91102, Note_on_c, 0, 41, 0
2,91144, Note_on_c, 0, 65, 0
2,91145, End_track
0, 0, End_of_file
