0, 0, Header, 1, 2, 384
1, 0, Start_track
1, 0, Tempo, 500000
1, 0, Time_signature, 4, 2, 24, 8
1, 1, End_track
2,0,Start_track
2,0, Note_on_c, 0, 60, 30
2,729, Note_on_c, 0, 60, 0
2,825, Note_on_c, 0, 61, 45
2,1640, Note_on_c, 0, 61, 0
2,1653, Note_on_c, 0, 60, 45
2,2498, Note_on_c, 0, 59, 40
2,2586, Note_on_c, 0, 60, 0
2,3207, Note_on_c, 0, 59, 0
2,3426, Note_on_c, 0, 64, 31
2,4232, Note_on_c, 0, 65, 35
2,4325, Note_on_c, 0, 64, 0
2,4944, Note_on_c, 0, 65, 0
2,5068, Note_on_c, 0, 58, 40
2,5852, Note_on_c, 0, 58, 0
2,5931, Note_on_c, 0, 57, 45
2,6661, Note_on_c, 0, 57, 0
2,6731, Note_on_c, 0, 56, 53
2,7521, Note_on_c, 0, 56, 0
2,7582, Note_on_c, 0, 55, 51
2,9231, Note_on_c, 0, 53, 37
2,9290, Note_on_c, 0, 55, 0
2,9508, Note_on_c, 0, 53, 0
2,9756, Note_on_c, 0, 53, 28
2,9849, Note_on_c, 0, 53, 0
2,9926, Note_on_c, 0, 55, 36
2,10002, Note_on_c, 0, 55, 0
2,10128, Note_on_c, 0, 65, 47
2,10134, Note_on_c, 0, 56, 35
2,10348, Note_on_c, 0, 56, 0
2,10518, Note_on_c, 0, 56, 46
2,10624, Note_on_c, 0, 56, 0
2,10687, Note_on_c, 0, 58, 59
2,10791, Note_on_c, 0, 58, 0
2,10869, Note_on_c, 0, 65, 0
2,10878, Note_on_c, 0, 68, 59
2,10895, Note_on_c, 0, 60, 37
2,10950, Note_on_c, 0, 60, 0
2,11061, Note_on_c, 0, 47, 45
2,11118, Note_on_c, 0, 47, 0
2,11239, Note_on_c, 0, 48, 45
2,11285, Note_on_c, 0, 48, 0
2,11420, Note_on_c, 0, 50, 25
2,11465, Note_on_c, 0, 50, 0
2,11637, Note_on_c, 0, 51, 36
2,11637, Note_on_c, 0, 67, 46
2,11681, Note_on_c, 0, 68, 0
2,12400, Note_on_c, 0, 51, 0
2,12429, Note_on_c, 0, 66, 57
2,12458, Note_on_c, 0, 67, 0
2,12587, Note_on_c, 0, 48, 50
2,12657, Note_on_c, 0, 48, 0
2,12752, Note_on_c, 0, 50, 57
2,12800, Note_on_c, 0, 50, 0
2,12918, Note_on_c, 0, 51, 57
2,12982, Note_on_c, 0, 51, 0
2,13151, Note_on_c, 0, 71, 65
2,13153, Note_on_c, 0, 66, 0
2,13155, Note_on_c, 0, 53, 44
2,13931, Note_on_c, 0, 72, 66
2,13978, Note_on_c, 0, 71, 0
2,13984, Note_on_c, 0, 53, 0
2,14101, Note_on_c, 0, 51, 57
2,14135, Control_c, 0, 67, 127
2,14150, Control_c, 0, 67, 126
2,14163, Note_on_c, 0, 51, 0
2,14165, Control_c, 0, 67, 125
2,14211, Control_c, 0, 67, 125
2,14241, Control_c, 0, 67, 124
2,14273, Note_on_c, 0, 53, 64
2,14286, Control_c, 0, 67, 125
2,14315, Control_c, 0, 67, 126
2,14330, Control_c, 0, 67, 127
2,14337, Note_on_c, 0, 53, 0
2,14449, Note_on_c, 0, 55, 54
2,14519, Note_on_c, 0, 55, 0
2,14662, Note_on_c, 0, 65, 67
2,14682, Note_on_c, 0, 56, 48
2,14761, Note_on_c, 0, 72, 0
2,15290, Control_c, 0, 67, 123
2,15305, Control_c, 0, 67, 109
2,15320, Control_c, 0, 67, 98
2,15335, Control_c, 0, 67, 90
2,15351, Control_c, 0, 67, 85
2,15366, Control_c, 0, 67, 80
2,15381, Control_c, 0, 67, 78
2,15397, Control_c, 0, 67, 76
2,15412, Control_c, 0, 67, 74
2,15417, Note_on_c, 0, 64, 67
2,15428, Control_c, 0, 67, 72
2,15441, Note_on_c, 0, 56, 0
2,15442, Control_c, 0, 67, 70
2,15457, Control_c, 0, 67, 69
2,15479, Note_on_c, 0, 65, 0
2,15518, Control_c, 0, 67, 69
2,15533, Control_c, 0, 67, 70
2,15549, Control_c, 0, 67, 71
2,15563, Control_c, 0, 67, 71
2,15592, Note_on_c, 0, 55, 56
2,15594, Control_c, 0, 67, 72
2,15609, Control_c, 0, 67, 72
2,15625, Control_c, 0, 67, 73
2,15639, Control_c, 0, 67, 75
2,15654, Control_c, 0, 67, 75
2,15673, Note_on_c, 0, 55, 0
2,15684, Control_c, 0, 67, 76
2,15699, Control_c, 0, 67, 76
2,15714, Control_c, 0, 67, 77
2,15745, Control_c, 0, 67, 77
2,15752, Note_on_c, 0, 57, 66
2,15790, Control_c, 0, 67, 77
2,15831, Note_on_c, 0, 57, 0
2,15895, Control_c, 0, 67, 76
2,15926, Note_on_c, 0, 59, 70
2,15941, Control_c, 0, 67, 77
2,15996, Note_on_c, 0, 59, 0
2,16071, Control_c, 0, 67, 77
2,16086, Control_c, 0, 67, 78
2,16127, Note_on_c, 0, 63, 77
2,16149, Note_on_c, 0, 60, 49
2,16163, Control_c, 0, 67, 78
2,16178, Control_c, 0, 67, 79
2,16203, Note_on_c, 0, 64, 0
2,16208, Control_c, 0, 67, 80
2,16224, Control_c, 0, 67, 80
2,16254, Control_c, 0, 67, 81
2,16299, Control_c, 0, 67, 82
2,16315, Control_c, 0, 67, 84
2,16329, Control_c, 0, 67, 87
2,16345, Control_c, 0, 67, 89
2,16360, Control_c, 0, 67, 91
2,16375, Control_c, 0, 67, 92
2,16405, Control_c, 0, 67, 93
2,16420, Control_c, 0, 67, 94
2,16436, Control_c, 0, 67, 98
2,16451, Control_c, 0, 67, 102
2,16467, Control_c, 0, 67, 107
2,16482, Control_c, 0, 67, 111
2,16497, Control_c, 0, 67, 114
2,16513, Control_c, 0, 67, 117
2,16527, Control_c, 0, 67, 119
2,16542, Control_c, 0, 67, 121
2,16558, Control_c, 0, 67, 124
2,16573, Control_c, 0, 67, 126
2,16589, Control_c, 0, 67, 127
2,16971, Note_on_c, 0, 62, 74
2,17045, Note_on_c, 0, 63, 0
2,17351, Note_on_c, 0, 59, 53
2,17379, Note_on_c, 0, 60, 0
2,17400, Note_on_c, 0, 59, 0
2,17527, Note_on_c, 0, 57, 45
2,17587, Note_on_c, 0, 57, 0
2,17801, Note_on_c, 0, 59, 46
2,18636, Note_on_c, 0, 60, 54
2,18649, Note_on_c, 0, 62, 0
2,18669, Note_on_c, 0, 59, 0
2,18739, Note_on_c, 0, 60, 0
2,19013, Note_on_c, 0, 60, 45
2,19026, Note_on_c, 0, 55, 26
2,19096, Note_on_c, 0, 55, 0
2,19106, Note_on_c, 0, 60, 0
2,19182, Note_on_c, 0, 62, 48
2,19265, Note_on_c, 0, 62, 0
2,19389, Note_on_c, 0, 64, 53
2,19396, Note_on_c, 0, 48, 54
2,19405, Note_on_c, 0, 60, 39
2,19742, Note_on_c, 0, 62, 52
2,19751, Note_on_c, 0, 58, 40
2,19753, Note_on_c, 0, 60, 0
2,19754, Note_on_c, 0, 64, 0
2,19782, Note_on_c, 0, 58, 0
2,19904, Note_on_c, 0, 62, 0
2,19919, Note_on_c, 0, 64, 51
2,20049, Note_on_c, 0, 64, 0
2,20102, Note_on_c, 0, 48, 0
2,20112, Note_on_c, 0, 49, 52
2,20115, Note_on_c, 0, 65, 62
2,20135, Note_on_c, 0, 56, 18
2,20187, Note_on_c, 0, 56, 0
2,20242, Note_on_c, 0, 65, 0
2,20282, Note_on_c, 0, 52, 48
2,20324, Note_on_c, 0, 52, 0
2,20462, Note_on_c, 0, 53, 47
2,20466, Note_on_c, 0, 65, 68
2,20524, Note_on_c, 0, 53, 0
2,20637, Note_on_c, 0, 55, 53
2,20705, Note_on_c, 0, 55, 0
2,20829, Note_on_c, 0, 48, 59
2,20833, Note_on_c, 0, 56, 52
2,20858, Note_on_c, 0, 49, 0
2,20862, Control_c, 0, 67, 124
2,20878, Control_c, 0, 67, 115
2,20892, Control_c, 0, 67, 107
2,20908, Control_c, 0, 67, 96
2,20923, Control_c, 0, 67, 83
2,20938, Control_c, 0, 67, 68
2,20954, Control_c, 0, 67, 52
2,20968, Control_c, 0, 67, 35
2,20984, Control_c, 0, 67, 16
2,20999, Control_c, 0, 67, 0
2,21203, Note_on_c, 0, 63, 63
2,21259, Note_on_c, 0, 65, 0
2,21563, Note_on_c, 0, 62, 62
2,21576, Note_on_c, 0, 47, 58
2,21584, Note_on_c, 0, 63, 0
2,21600, Note_on_c, 0, 48, 0
2,21646, Note_on_c, 0, 56, 0
2,21738, Note_on_c, 0, 53, 56
2,21797, Note_on_c, 0, 53, 0
2,21913, Note_on_c, 0, 63, 72
2,21926, Note_on_c, 0, 55, 56
2,21947, Note_on_c, 0, 62, 0
2,21998, Note_on_c, 0, 55, 0
2,22052, Note_on_c, 0, 63, 0
2,22078, Note_on_c, 0, 65, 74
2,22089, Note_on_c, 0, 56, 57
2,22190, Note_on_c, 0, 56, 0
2,22279, Note_on_c, 0, 67, 69
2,22287, Note_on_c, 0, 58, 55
2,22287, Note_on_c, 0, 65, 0
2,22294, Note_on_c, 0, 52, 54
2,22349, Note_on_c, 0, 47, 0
2,22466, Note_on_c, 0, 65, 64
2,22466, Note_on_c, 0, 67, 0
2,22581, Note_on_c, 0, 65, 0
2,22628, Note_on_c, 0, 64, 64
2,22722, Note_on_c, 0, 64, 0
2,22795, Note_on_c, 0, 62, 60
2,22862, Note_on_c, 0, 62, 0
2,22982, Note_on_c, 0, 60, 53
2,23000, Note_on_c, 0, 53, 49
2,23034, Note_on_c, 0, 52, 0
2,23085, Note_on_c, 0, 58, 0
2,23152, Note_on_c, 0, 56, 68
2,23220, Note_on_c, 0, 56, 0
2,23281, Note_on_c, 0, 60, 0
2,23331, Note_on_c, 0, 58, 65
2,23384, Note_on_c, 0, 58, 0
2,23494, Note_on_c, 0, 60, 71
2,23573, Note_on_c, 0, 60, 0
2,23686, Note_on_c, 0, 61, 61
2,23704, Note_on_c, 0, 46, 72
2,23729, Note_on_c, 0, 53, 0
2,23869, Note_on_c, 0, 58, 59
2,23930, Note_on_c, 0, 58, 0
2,24042, Note_on_c, 0, 56, 65
2,24097, Note_on_c, 0, 56, 0
2,24208, Note_on_c, 0, 55, 63
2,24353, Note_on_c, 0, 55, 0
2,24376, Note_on_c, 0, 46, 0
2,24407, Note_on_c, 0, 45, 66
2,24417, Note_on_c, 0, 53, 62
2,24484, Note_on_c, 0, 61, 0
2,24595, Note_on_c, 0, 60, 71
2,24676, Note_on_c, 0, 60, 0
2,24761, Note_on_c, 0, 62, 76
2,24831, Note_on_c, 0, 62, 0
2,24929, Note_on_c, 0, 64, 76
2,25017, Note_on_c, 0, 64, 0
2,25107, Note_on_c, 0, 44, 71
2,25107, Note_on_c, 0, 65, 75
2,25137, Note_on_c, 0, 53, 0
2,25162, Note_on_c, 0, 45, 0
2,25287, Note_on_c, 0, 53, 71
2,25347, Note_on_c, 0, 53, 0
2,25455, Note_on_c, 0, 55, 69
2,25509, Note_on_c, 0, 55, 0
2,25625, Note_on_c, 0, 56, 76
2,25691, Note_on_c, 0, 56, 0
2,25846, Note_on_c, 0, 58, 65
2,25855, Note_on_c, 0, 43, 57
2,25938, Note_on_c, 0, 44, 0
2,26104, Note_on_c, 0, 65, 0
2,26222, Note_on_c, 0, 64, 59
2,26285, Note_on_c, 0, 64, 0
2,26401, Note_on_c, 0, 62, 59
2,26476, Note_on_c, 0, 62, 0
2,26589, Note_on_c, 0, 64, 59
2,26926, Note_on_c, 0, 58, 0
2,26982, Note_on_c, 0, 56, 38
2,27067, Note_on_c, 0, 56, 0
2,27087, Note_on_c, 0, 64, 0
2,27167, Note_on_c, 0, 55, 43
2,27299, Note_on_c, 0, 55, 0
2,27403, Note_on_c, 0, 65, 40
2,27409, Note_on_c, 0, 43, 0
2,27409, Note_on_c, 0, 56, 37
2,27445, Note_on_c, 0, 41, 28
2,27648, Note_on_c, 0, 56, 0
2,27751, Note_on_c, 0, 65, 0
2,27860, Note_on_c, 0, 65, 19
2,27914, Note_on_c, 0, 65, 0
2,27947, Note_on_c, 0, 41, 0
2,28042, Note_on_c, 0, 67, 42
2,28115, Note_on_c, 0, 67, 0
2,28246, Note_on_c, 0, 68, 39
2,28528, Note_on_c, 0, 68, 0
2,28608, Note_on_c, 0, 68, 47
2,28616, Note_on_c, 0, 53, 35
2,28687, Note_on_c, 0, 53, 0
2,28687, Note_on_c, 0, 68, 0
2,28769, Note_on_c, 0, 70, 65
2,28783, Note_on_c, 0, 55, 41
2,28846, Note_on_c, 0, 70, 0
2,28848, Note_on_c, 0, 55, 0
2,28959, Note_on_c, 0, 72, 69
2,28983, Note_on_c, 0, 56, 44
2,29151, Note_on_c, 0, 56, 0
2,29295, Note_on_c, 0, 56, 56
2,29297, Note_on_c, 0, 60, 64
2,29359, Note_on_c, 0, 60, 0
2,29374, Note_on_c, 0, 56, 0
2,29469, Note_on_c, 0, 58, 61
2,29478, Note_on_c, 0, 61, 56
2,29546, Note_on_c, 0, 61, 0
2,29562, Note_on_c, 0, 58, 0
2,29655, Note_on_c, 0, 63, 57
2,29658, Note_on_c, 0, 60, 53
2,29776, Note_on_c, 0, 60, 0
2,29815, Note_on_c, 0, 70, 62
2,29885, Note_on_c, 0, 72, 0
2,29962, Note_on_c, 0, 70, 0
2,30001, Note_on_c, 0, 68, 64
2,30014, Note_on_c, 0, 48, 46
2,30109, Note_on_c, 0, 48, 0
2,30120, Note_on_c, 0, 68, 0
2,30178, Note_on_c, 0, 67, 58
2,30292, Note_on_c, 0, 67, 0
2,30372, Note_on_c, 0, 65, 48
2,30393, Note_on_c, 0, 49, 29
2,30684, Note_on_c, 0, 65, 0
2,30706, Note_on_c, 0, 63, 0
2,30761, Note_on_c, 0, 61, 47
2,30822, Note_on_c, 0, 61, 0
2,30884, Note_on_c, 0, 49, 0
2,30917, Note_on_c, 0, 63, 51
2,31007, Note_on_c, 0, 63, 0
2,31118, Note_on_c, 0, 65, 43
2,31418, Note_on_c, 0, 65, 0
2,31490, Note_on_c, 0, 49, 40
2,31491, Note_on_c, 0, 65, 53
2,31567, Note_on_c, 0, 49, 0
2,31573, Note_on_c, 0, 65, 0
2,31657, Note_on_c, 0, 67, 69
2,31671, Note_on_c, 0, 51, 49
2,31723, Note_on_c, 0, 67, 0
2,31727, Note_on_c, 0, 51, 0
2,31847, Note_on_c, 0, 68, 65
2,31866, Note_on_c, 0, 53, 40
2,32068, Note_on_c, 0, 53, 0
2,32192, Note_on_c, 0, 56, 52
2,32221, Note_on_c, 0, 53, 36
2,32261, Note_on_c, 0, 56, 0
2,32263, Note_on_c, 0, 53, 0
2,32372, Note_on_c, 0, 58, 48
2,32382, Note_on_c, 0, 55, 37
2,32433, Note_on_c, 0, 55, 0
2,32448, Note_on_c, 0, 58, 0
2,32561, Note_on_c, 0, 60, 47
2,32575, Note_on_c, 0, 56, 38
2,32740, Note_on_c, 0, 66, 49
2,32807, Note_on_c, 0, 68, 0
2,32893, Note_on_c, 0, 66, 0
2,32941, Note_on_c, 0, 65, 52
2,32956, Note_on_c, 0, 44, 28
2,33084, Note_on_c, 0, 44, 0
2,33084, Note_on_c, 0, 65, 0
2,33114, Note_on_c, 0, 63, 47
2,33321, Note_on_c, 0, 61, 47
2,33322, Note_on_c, 0, 63, 0
2,33334, Note_on_c, 0, 46, 31
2,33707, Note_on_c, 0, 60, 0
2,33719, Note_on_c, 0, 58, 52
2,33738, Note_on_c, 0, 61, 0
2,33817, Note_on_c, 0, 58, 0
2,33882, Note_on_c, 0, 46, 0
2,33893, Note_on_c, 0, 56, 0
2,33893, Note_on_c, 0, 60, 61
2,33973, Note_on_c, 0, 60, 0
2,34070, Note_on_c, 0, 61, 61
2,34380, Note_on_c, 0, 61, 0
2,34430, Note_on_c, 0, 46, 48
2,34441, Note_on_c, 0, 61, 67
2,34507, Note_on_c, 0, 46, 0
2,34545, Note_on_c, 0, 61, 0
2,34606, Note_on_c, 0, 63, 74
2,34626, Note_on_c, 0, 48, 48
2,34673, Note_on_c, 0, 48, 0
2,34698, Note_on_c, 0, 63, 0
2,34787, Note_on_c, 0, 65, 75
2,34825, Note_on_c, 0, 49, 47
2,35042, Note_on_c, 0, 49, 0
2,35172, Note_on_c, 0, 53, 56
2,35182, Note_on_c, 0, 49, 52
2,35241, Note_on_c, 0, 53, 0
2,35243, Note_on_c, 0, 49, 0
2,35315, Note_on_c, 0, 55, 59
2,35330, Note_on_c, 0, 51, 48
2,35374, Note_on_c, 0, 55, 0
2,35380, Note_on_c, 0, 51, 0
2,35511, Note_on_c, 0, 56, 63
2,35516, Note_on_c, 0, 53, 56
2,35661, Note_on_c, 0, 53, 0
2,35700, Note_on_c, 0, 56, 0
2,35884, Note_on_c, 0, 56, 52
2,35915, Note_on_c, 0, 41, 44
2,35962, Note_on_c, 0, 41, 0
2,35965, Note_on_c, 0, 56, 0
2,36061, Note_on_c, 0, 58, 64
2,36116, Note_on_c, 0, 58, 0
2,36248, Note_on_c, 0, 60, 62
2,36284, Note_on_c, 0, 48, 37
2,36432, Note_on_c, 0, 48, 0
2,36592, Note_on_c, 0, 64, 71
2,36595, Note_on_c, 0, 48, 40
2,36595, Note_on_c, 0, 65, 0
2,36606, Note_on_c, 0, 55, 38
2,36649, Note_on_c, 0, 60, 0
2,36763, Note_on_c, 0, 65, 70
2,36768, Note_on_c, 0, 64, 0
2,36780, Note_on_c, 0, 48, 0
2,36789, Note_on_c, 0, 50, 43
2,36868, Note_on_c, 0, 65, 0
2,36941, Note_on_c, 0, 50, 0
2,36947, Note_on_c, 0, 72, 80
2,36966, Note_on_c, 0, 67, 60
2,36980, Note_on_c, 0, 52, 50
2,36981, Note_on_c, 0, 60, 49
2,36988, Note_on_c, 0, 55, 0
2,37114, Note_on_c, 0, 60, 0
2,37174, Note_on_c, 0, 52, 0
2,37310, Note_on_c, 0, 50, 43
2,37342, Note_on_c, 0, 58, 42
2,37477, Note_on_c, 0, 52, 47
2,37486, Note_on_c, 0, 58, 0
2,37514, Note_on_c, 0, 50, 0
2,37594, Note_on_c, 0, 52, 0
2,37676, Note_on_c, 0, 73, 68
2,37682, Note_on_c, 0, 56, 47
2,37683, Note_on_c, 0, 53, 47
2,37697, Note_on_c, 0, 72, 0
2,37703, Note_on_c, 0, 67, 0
2,37722, Note_on_c, 0, 53, 0
2,37724, Note_on_c, 0, 56, 0
2,37894, Note_on_c, 0, 38, 6
2,37903, Note_on_c, 0, 40, 32
2,37945, Note_on_c, 0, 40, 0
2,37947, Note_on_c, 0, 38, 0
2,38031, Note_on_c, 0, 41, 56
2,38049, Note_on_c, 0, 65, 63
2,38116, Note_on_c, 0, 41, 0
2,38219, Note_on_c, 0, 43, 59
2,38286, Note_on_c, 0, 43, 0
2,38371, Note_on_c, 0, 73, 0
2,38400, Note_on_c, 0, 72, 73
2,38405, Note_on_c, 0, 44, 56
2,38559, Note_on_c, 0, 48, 63
2,38628, Note_on_c, 0, 48, 0
2,38721, Note_on_c, 0, 63, 70
2,38734, Note_on_c, 0, 50, 58
2,38750, Note_on_c, 0, 65, 0
2,38804, Note_on_c, 0, 50, 0
2,38886, Note_on_c, 0, 51, 61
2,38963, Note_on_c, 0, 51, 0
2,39042, Note_on_c, 0, 63, 0
2,39075, Note_on_c, 0, 71, 78
2,39092, Note_on_c, 0, 62, 53
2,39097, Note_on_c, 0, 72, 0
2,39100, Note_on_c, 0, 53, 56
2,39106, Note_on_c, 0, 44, 0
2,39251, Note_on_c, 0, 41, 58
2,39332, Note_on_c, 0, 41, 0
2,39428, Note_on_c, 0, 63, 66
2,39431, Note_on_c, 0, 43, 65
2,39454, Note_on_c, 0, 62, 0
2,39498, Note_on_c, 0, 43, 0
2,39506, Note_on_c, 0, 63, 0
2,39587, Note_on_c, 0, 44, 60
2,39589, Note_on_c, 0, 65, 63
2,39659, Note_on_c, 0, 44, 0
2,39749, Note_on_c, 0, 65, 0
2,39768, Note_on_c, 0, 76, 79
2,39777, Note_on_c, 0, 46, 62
2,39791, Note_on_c, 0, 67, 57
2,39812, Note_on_c, 0, 71, 0
2,39821, Note_on_c, 0, 53, 0
2,39955, Note_on_c, 0, 67, 0
2,39965, Note_on_c, 0, 65, 58
2,40137, Note_on_c, 0, 64, 62
2,40149, Note_on_c, 0, 65, 0
2,40150, Note_on_c, 0, 55, 49
2,40200, Control_c, 0, 64, 62
2,40214, Control_c, 0, 64, 69
2,40215, Note_on_c, 0, 76, 0
2,40230, Control_c, 0, 64, 76
2,40245, Control_c, 0, 64, 82
2,40259, Control_c, 0, 64, 85
2,40275, Control_c, 0, 64, 86
2,40275, Note_on_c, 0, 55, 0
2,40290, Control_c, 0, 64, 87
2,40290, Note_on_c, 0, 64, 0
2,40299, Note_on_c, 0, 62, 63
2,40306, Control_c, 0, 64, 88
2,40321, Control_c, 0, 64, 89
2,40335, Control_c, 0, 64, 90
2,40351, Control_c, 0, 64, 90
2,40381, Control_c, 0, 64, 91
2,40457, Control_c, 0, 64, 90
2,40470, Note_on_c, 0, 62, 0
2,40488, Control_c, 0, 64, 88
2,40488, Note_on_c, 0, 77, 78
2,40500, Note_on_c, 0, 56, 56
2,40502, Note_on_c, 0, 46, 0
2,40503, Control_c, 0, 64, 84
2,40519, Control_c, 0, 64, 75
2,40534, Control_c, 0, 64, 56
2,40549, Control_c, 0, 64, 0
2,40668, Note_on_c, 0, 44, 55
2,40724, Note_on_c, 0, 44, 0
2,40838, Note_on_c, 0, 46, 63
2,40897, Note_on_c, 0, 46, 0
2,41005, Note_on_c, 0, 48, 57
2,41078, Note_on_c, 0, 48, 0
2,41176, Note_on_c, 0, 77, 0
2,41187, Note_on_c, 0, 70, 62
2,41205, Note_on_c, 0, 49, 49
2,41226, Note_on_c, 0, 56, 0
2,41381, Note_on_c, 0, 58, 41
2,41436, Note_on_c, 0, 58, 0
2,41557, Note_on_c, 0, 58, 58
2,41576, Note_on_c, 0, 56, 37
2,41625, Note_on_c, 0, 56, 0
2,41698, Note_on_c, 0, 58, 0
2,41742, Note_on_c, 0, 55, 32
2,41806, Note_on_c, 0, 55, 0
2,41813, Note_on_c, 0, 49, 0
2,41897, Note_on_c, 0, 69, 59
2,41900, Note_on_c, 0, 70, 0
2,41920, Note_on_c, 0, 60, 39
2,41921, Note_on_c, 0, 53, 39
2,42084, Note_on_c, 0, 48, 42
2,42146, Note_on_c, 0, 48, 0
2,42259, Note_on_c, 0, 50, 37
2,42320, Note_on_c, 0, 50, 0
2,42439, Note_on_c, 0, 52, 45
2,42488, Note_on_c, 0, 52, 0
2,42505, Note_on_c, 0, 53, 0
2,42611, Note_on_c, 0, 53, 53
2,42612, Note_on_c, 0, 68, 56
2,42612, Note_on_c, 0, 69, 0
2,42672, Note_on_c, 0, 53, 0
2,42693, Note_on_c, 0, 60, 0
2,42785, Note_on_c, 0, 53, 54
2,42964, Note_on_c, 0, 60, 67
2,42986, Note_on_c, 0, 55, 57
2,43071, Note_on_c, 0, 55, 0
2,43130, Note_on_c, 0, 60, 0
2,43141, Note_on_c, 0, 56, 58
2,43223, Note_on_c, 0, 56, 0
2,43338, Note_on_c, 0, 67, 67
2,43349, Note_on_c, 0, 58, 49
2,43357, Note_on_c, 0, 61, 50
2,43430, Note_on_c, 0, 68, 0
2,43703, Note_on_c, 0, 61, 0
2,43706, Note_on_c, 0, 53, 0
2,43707, Note_on_c, 0, 52, 47
2,43722, Note_on_c, 0, 60, 46
2,43767, Note_on_c, 0, 58, 0
2,43775, Note_on_c, 0, 52, 0
2,43786, Note_on_c, 0, 60, 0
2,43878, Note_on_c, 0, 58, 50
2,43887, Note_on_c, 0, 50, 45
2,43936, Note_on_c, 0, 58, 0
2,43963, Note_on_c, 0, 50, 0
2,44061, Note_on_c, 0, 60, 50
2,44089, Note_on_c, 0, 52, 39
2,44420, Note_on_c, 0, 56, 36
2,44482, Note_on_c, 0, 56, 0
2,44514, Note_on_c, 0, 52, 0
2,44598, Note_on_c, 0, 55, 41
2,44672, Note_on_c, 0, 55, 0
2,44809, Note_on_c, 0, 56, 40
2,44831, Note_on_c, 0, 53, 30
2,44895, Note_on_c, 0, 60, 0
2,44957, Note_on_c, 0, 67, 0
2,45162, Note_on_c, 0, 65, 52
2,45230, Note_on_c, 0, 65, 0
2,45342, Note_on_c, 0, 67, 51
2,45400, Note_on_c, 0, 67, 0
2,45547, Note_on_c, 0, 53, 0
2,45557, Note_on_c, 0, 56, 0
2,45557, Note_on_c, 0, 68, 42
2,45932, Note_on_c, 0, 53, 38
2,46018, Note_on_c, 0, 53, 0
2,46123, Note_on_c, 0, 51, 39
2,46198, Note_on_c, 0, 51, 0
2,46302, Note_on_c, 0, 50, 43
2,46529, Note_on_c, 0, 50, 0
2,46660, Note_on_c, 0, 65, 52
2,46669, Note_on_c, 0, 50, 30
2,46716, Note_on_c, 0, 50, 0
2,46840, Note_on_c, 0, 63, 50
2,46840, Note_on_c, 0, 65, 0
2,46844, Note_on_c, 0, 48, 31
2,46896, Note_on_c, 0, 48, 0
2,47025, Note_on_c, 0, 62, 51
2,47027, Note_on_c, 0, 46, 37
2,47028, Note_on_c, 0, 63, 0
2,47223, Note_on_c, 0, 62, 0
2,47305, Note_on_c, 0, 46, 0
2,47361, Note_on_c, 0, 62, 62
2,47382, Note_on_c, 0, 48, 36
2,47462, Note_on_c, 0, 62, 0
2,47474, Note_on_c, 0, 48, 0
2,47537, Note_on_c, 0, 60, 51
2,47557, Note_on_c, 0, 50, 33
2,47620, Note_on_c, 0, 50, 0
2,47653, Note_on_c, 0, 60, 0
2,47729, Note_on_c, 0, 58, 54
2,47733, Note_on_c, 0, 68, 0
2,47740, Note_on_c, 0, 51, 42
2,47962, Note_on_c, 0, 58, 0
2,48016, Note_on_c, 0, 51, 0
2,48061, Note_on_c, 0, 58, 66
2,48066, Note_on_c, 0, 67, 62
2,48127, Note_on_c, 0, 58, 0
2,48199, Note_on_c, 0, 67, 0
2,48226, Note_on_c, 0, 68, 68
2,48230, Note_on_c, 0, 56, 60
2,48321, Note_on_c, 0, 56, 0
2,48351, Note_on_c, 0, 68, 0
2,48415, Note_on_c, 0, 70, 62
2,48422, Note_on_c, 0, 55, 58
2,48676, Note_on_c, 0, 55, 0
2,48785, Note_on_c, 0, 55, 66
2,48853, Note_on_c, 0, 55, 0
2,48955, Note_on_c, 0, 53, 60
2,49032, Note_on_c, 0, 53, 0
2,49151, Note_on_c, 0, 52, 54
2,49393, Note_on_c, 0, 52, 0
2,49496, Note_on_c, 0, 67, 65
2,49505, Note_on_c, 0, 52, 33
2,49582, Note_on_c, 0, 52, 0
2,49651, Note_on_c, 0, 67, 0
2,49660, Note_on_c, 0, 65, 65
2,49674, Note_on_c, 0, 50, 47
2,49752, Note_on_c, 0, 50, 0
2,49847, Note_on_c, 0, 65, 0
2,49852, Note_on_c, 0, 64, 63
2,49877, Note_on_c, 0, 48, 44
2,50070, Note_on_c, 0, 64, 0
2,50195, Note_on_c, 0, 64, 72
2,50201, Note_on_c, 0, 50, 47
2,50215, Note_on_c, 0, 48, 0
2,50298, Note_on_c, 0, 50, 0
2,50351, Note_on_c, 0, 64, 0
2,50366, Note_on_c, 0, 52, 50
2,50366, Note_on_c, 0, 62, 74
2,50475, Note_on_c, 0, 52, 0
2,50507, Note_on_c, 0, 62, 0
2,50537, Note_on_c, 0, 60, 70
2,50547, Note_on_c, 0, 70, 0
2,50553, Note_on_c, 0, 53, 63
2,50718, Note_on_c, 0, 67, 77
2,50760, Note_on_c, 0, 60, 0
2,50868, Note_on_c, 0, 67, 0
2,50885, Note_on_c, 0, 60, 70
2,50888, Note_on_c, 0, 68, 76
2,50968, Note_on_c, 0, 60, 0
2,51015, Note_on_c, 0, 68, 0
2,51051, Note_on_c, 0, 72, 67
2,51061, Note_on_c, 0, 58, 77
2,51100, Note_on_c, 0, 72, 0
2,51198, Note_on_c, 0, 58, 0
2,51243, Note_on_c, 0, 77, 71
2,51250, Note_on_c, 0, 56, 67
2,51476, Note_on_c, 0, 56, 0
2,51515, Note_on_c, 0, 53, 0
2,51593, Note_on_c, 0, 50, 67
2,51684, Note_on_c, 0, 50, 0
2,51758, Note_on_c, 0, 48, 68
2,51854, Note_on_c, 0, 48, 0
2,51950, Note_on_c, 0, 47, 63
2,52210, Note_on_c, 0, 47, 0
2,52333, Note_on_c, 0, 74, 65
2,52334, Note_on_c, 0, 47, 56
2,52400, Note_on_c, 0, 47, 0
2,52488, Note_on_c, 0, 74, 0
2,52502, Note_on_c, 0, 72, 71
2,52509, Note_on_c, 0, 45, 51
2,52561, Note_on_c, 0, 45, 0
2,52638, Note_on_c, 0, 72, 0
2,52697, Note_on_c, 0, 71, 69
2,52714, Note_on_c, 0, 43, 44
2,52973, Note_on_c, 0, 71, 0
2,53040, Note_on_c, 0, 71, 70
2,53055, Note_on_c, 0, 45, 53
2,53057, Note_on_c, 0, 43, 0
2,53137, Note_on_c, 0, 45, 0
2,53177, Note_on_c, 0, 71, 0
2,53207, Note_on_c, 0, 69, 79
2,53219, Note_on_c, 0, 47, 55
2,53280, Note_on_c, 0, 47, 0
2,53326, Note_on_c, 0, 69, 0
2,53389, Note_on_c, 0, 67, 75
2,53404, Note_on_c, 0, 48, 51
2,53628, Note_on_c, 0, 67, 0
2,53723, Note_on_c, 0, 75, 82
2,53743, Note_on_c, 0, 67, 66
2,53772, Note_on_c, 0, 77, 0
2,53788, Note_on_c, 0, 67, 0
2,53899, Note_on_c, 0, 69, 66
2,53949, Note_on_c, 0, 48, 0
2,54112, Note_on_c, 0, 74, 74
2,54113, Note_on_c, 0, 55, 70
2,54118, Note_on_c, 0, 69, 0
2,54121, Note_on_c, 0, 71, 65
2,54158, Note_on_c, 0, 75, 0
2,54491, Note_on_c, 0, 79, 77
2,54504, Note_on_c, 0, 71, 0
2,54506, Note_on_c, 0, 69, 61
2,54508, Note_on_c, 0, 74, 0
2,54667, Note_on_c, 0, 69, 0
2,54672, Note_on_c, 0, 71, 69
2,54720, Note_on_c, 0, 79, 0
2,54846, Note_on_c, 0, 56, 77
2,54863, Note_on_c, 0, 72, 69
2,54870, Note_on_c, 0, 71, 0
2,54919, Note_on_c, 0, 55, 0
2,55029, Note_on_c, 0, 71, 62
2,55035, Note_on_c, 0, 72, 0
2,55138, Note_on_c, 0, 71, 0
2,55221, Note_on_c, 0, 72, 68
2,55289, Note_on_c, 0, 72, 0
2,55383, Note_on_c, 0, 74, 68
2,55475, Note_on_c, 0, 74, 0
2,55586, Note_on_c, 0, 75, 69
2,55589, Note_on_c, 0, 55, 67
2,55640, Note_on_c, 0, 56, 0
2,55972, Note_on_c, 0, 70, 56
2,56303, Note_on_c, 0, 70, 0
2,56311, Note_on_c, 0, 54, 57
2,56313, Note_on_c, 0, 69, 56
2,56362, Note_on_c, 0, 55, 0
2,56473, Note_on_c, 0, 75, 0
2,56482, Note_on_c, 0, 69, 0
2,56492, Note_on_c, 0, 72, 60
2,56645, Note_on_c, 0, 72, 0
2,56673, Note_on_c, 0, 74, 63
2,56677, Note_on_c, 0, 71, 56
2,56789, Note_on_c, 0, 54, 0
2,56790, Note_on_c, 0, 71, 0
2,56800, Note_on_c, 0, 74, 0
2,56842, Note_on_c, 0, 75, 72
2,56861, Note_on_c, 0, 72, 55
2,56911, Note_on_c, 0, 72, 0
2,57026, Note_on_c, 0, 77, 77
2,57035, Note_on_c, 0, 59, 64
2,57040, Note_on_c, 0, 74, 63
2,57102, Note_on_c, 0, 75, 0
2,57191, Note_on_c, 0, 74, 0
2,57218, Note_on_c, 0, 72, 57
2,57379, Note_on_c, 0, 72, 0
2,57398, Note_on_c, 0, 71, 54
2,57521, Note_on_c, 0, 71, 0
2,57588, Note_on_c, 0, 69, 53
2,57740, Note_on_c, 0, 69, 0
2,57780, Note_on_c, 0, 67, 54
2,57796, Note_on_c, 0, 60, 54
2,57829, Note_on_c, 0, 59, 0
2,57881, Note_on_c, 0, 77, 0
2,57964, Note_on_c, 0, 75, 56
2,58071, Note_on_c, 0, 75, 0
2,58132, Note_on_c, 0, 77, 62
2,58205, Note_on_c, 0, 77, 0
2,58310, Note_on_c, 0, 79, 59
2,58355, Note_on_c, 0, 60, 0
2,58374, Note_on_c, 0, 67, 0
2,58391, Note_on_c, 0, 79, 0
2,58490, Note_on_c, 0, 80, 60
2,58507, Note_on_c, 0, 53, 48
2,58663, Note_on_c, 0, 65, 51
2,58737, Note_on_c, 0, 65, 0
2,58820, Note_on_c, 0, 63, 63
2,58891, Note_on_c, 0, 63, 0
2,58983, Note_on_c, 0, 62, 64
2,59038, Note_on_c, 0, 53, 0
2,59127, Note_on_c, 0, 62, 0
2,59166, Note_on_c, 0, 52, 57
2,59167, Note_on_c, 0, 60, 61
2,59323, Note_on_c, 0, 80, 0
2,59333, Note_on_c, 0, 79, 72
2,59422, Note_on_c, 0, 79, 0
2,59504, Note_on_c, 0, 81, 85
2,59597, Note_on_c, 0, 81, 0
2,59686, Note_on_c, 0, 83, 82
2,59807, Note_on_c, 0, 83, 0
2,59881, Note_on_c, 0, 84, 80
2,59887, Note_on_c, 0, 51, 52
2,59918, Note_on_c, 0, 52, 0
2,59972, Note_on_c, 0, 60, 0
2,60049, Note_on_c, 0, 72, 66
2,60113, Note_on_c, 0, 72, 0
2,60205, Note_on_c, 0, 74, 65
2,60278, Note_on_c, 0, 74, 0
2,60376, Note_on_c, 0, 75, 61
2,60451, Note_on_c, 0, 75, 0
2,60574, Note_on_c, 0, 77, 49
2,60588, Note_on_c, 0, 50, 32
2,60649, Note_on_c, 0, 51, 0
2,60910, Note_on_c, 0, 83, 68
2,60947, Note_on_c, 0, 84, 0
2,61009, Note_on_c, 0, 83, 0
2,61086, Note_on_c, 0, 81, 73
2,61183, Note_on_c, 0, 81, 0
2,61283, Note_on_c, 0, 83, 63
2,61691, Note_on_c, 0, 75, 54
2,61710, Note_on_c, 0, 77, 0
2,61759, Note_on_c, 0, 75, 0
2,61875, Note_on_c, 0, 74, 46
2,62083, Note_on_c, 0, 74, 0
2,62120, Note_on_c, 0, 84, 47
2,62134, Note_on_c, 0, 48, 32
2,62143, Note_on_c, 0, 75, 32
2,62242, Note_on_c, 0, 83, 0
2,62259, Note_on_c, 0, 50, 0
2,62448, Note_on_c, 0, 75, 0
2,62455, Note_on_c, 0, 84, 0
2,62466, Note_on_c, 0, 79, 67
2,62482, Note_on_c, 0, 72, 52
2,62510, Note_on_c, 0, 72, 0
2,62513, Note_on_c, 0, 48, 0
2,62642, Note_on_c, 0, 74, 57
2,62715, Note_on_c, 0, 74, 0
2,62827, Note_on_c, 0, 84, 79
2,62849, Note_on_c, 0, 75, 59
2,62886, Note_on_c, 0, 79, 0
2,63190, Note_on_c, 0, 72, 64
2,63273, Note_on_c, 0, 72, 0
2,63350, Note_on_c, 0, 70, 67
2,63437, Note_on_c, 0, 70, 0
2,63549, Note_on_c, 0, 69, 52
2,63733, Note_on_c, 0, 84, 0
2,63813, Note_on_c, 0, 69, 0
2,63881, Note_on_c, 0, 84, 66
2,63883, Note_on_c, 0, 69, 46
2,64039, Note_on_c, 0, 69, 0
2,64046, Note_on_c, 0, 82, 74
2,64069, Note_on_c, 0, 67, 46
2,64091, Note_on_c, 0, 84, 0
2,64212, Note_on_c, 0, 82, 0
2,64238, Note_on_c, 0, 67, 0
2,64239, Note_on_c, 0, 81, 75
2,64262, Note_on_c, 0, 65, 40
2,64520, Note_on_c, 0, 81, 0
2,64535, Note_on_c, 0, 65, 0
2,64593, Note_on_c, 0, 67, 49
2,64593, Note_on_c, 0, 81, 72
2,64669, Note_on_c, 0, 67, 0
2,64758, Note_on_c, 0, 79, 77
2,64773, Note_on_c, 0, 69, 48
2,64788, Note_on_c, 0, 81, 0
2,64841, Note_on_c, 0, 69, 0
2,64947, Note_on_c, 0, 77, 73
2,64965, Note_on_c, 0, 79, 0
2,64966, Note_on_c, 0, 70, 51
2,65055, Note_on_c, 0, 75, 0
2,65194, Note_on_c, 0, 70, 0
2,65254, Note_on_c, 0, 77, 0
2,65321, Note_on_c, 0, 79, 70
2,65336, Note_on_c, 0, 58, 41
2,65337, Note_on_c, 0, 70, 54
2,65401, Note_on_c, 0, 70, 0
2,65416, Note_on_c, 0, 58, 0
2,65486, Note_on_c, 0, 81, 74
2,65517, Note_on_c, 0, 79, 0
2,65523, Note_on_c, 0, 72, 43
2,65559, Note_on_c, 0, 72, 0
2,65686, Note_on_c, 0, 81, 0
2,65693, Note_on_c, 0, 82, 64
2,65728, Note_on_c, 0, 73, 50
2,66067, Note_on_c, 0, 70, 50
2,66159, Note_on_c, 0, 70, 0
2,66240, Note_on_c, 0, 68, 50
2,66307, Note_on_c, 0, 68, 0
2,66431, Note_on_c, 0, 67, 44
2,66668, Note_on_c, 0, 82, 0
2,66676, Note_on_c, 0, 67, 0
2,66771, Note_on_c, 0, 82, 61
2,66786, Note_on_c, 0, 67, 33
2,66936, Note_on_c, 0, 80, 61
2,66939, Note_on_c, 0, 67, 0
2,66967, Note_on_c, 0, 65, 37
2,66996, Note_on_c, 0, 82, 0
2,67095, Note_on_c, 0, 80, 0
2,67137, Note_on_c, 0, 79, 52
2,67158, Note_on_c, 0, 63, 31
2,67159, Note_on_c, 0, 65, 0
2,67386, Note_on_c, 0, 79, 0
2,67497, Note_on_c, 0, 65, 37
2,67500, Note_on_c, 0, 79, 53
2,67549, Note_on_c, 0, 63, 0
2,67569, Note_on_c, 0, 65, 0
2,67638, Note_on_c, 0, 79, 0
2,67656, Note_on_c, 0, 77, 58
2,67682, Note_on_c, 0, 67, 31
2,67726, Note_on_c, 0, 67, 0
2,67836, Note_on_c, 0, 77, 0
2,67858, Note_on_c, 0, 75, 49
2,67895, Note_on_c, 0, 68, 28
2,68031, Note_on_c, 0, 73, 0
2,68071, Note_on_c, 0, 75, 0
2,68073, Note_on_c, 0, 68, 0
2,68224, Note_on_c, 0, 68, 49
2,68226, Note_on_c, 0, 77, 52
2,68249, Note_on_c, 0, 56, 28
2,68299, Note_on_c, 0, 68, 0
2,68359, Note_on_c, 0, 77, 0
2,68361, Note_on_c, 0, 56, 0
2,68401, Note_on_c, 0, 79, 60
2,68418, Note_on_c, 0, 70, 49
2,68495, Note_on_c, 0, 70, 0
2,68609, Note_on_c, 0, 80, 53
2,68624, Note_on_c, 0, 72, 36
2,68639, Note_on_c, 0, 79, 0
2,68980, Note_on_c, 0, 68, 42
2,69088, Note_on_c, 0, 68, 0
2,69162, Note_on_c, 0, 67, 43
2,69274, Note_on_c, 0, 67, 0
2,69361, Note_on_c, 0, 65, 32
2,69598, Note_on_c, 0, 80, 0
2,69623, Note_on_c, 0, 65, 0
2,69722, Note_on_c, 0, 80, 56
2,69741, Note_on_c, 0, 65, 40
2,69843, Note_on_c, 0, 80, 0
2,69897, Note_on_c, 0, 65, 0
2,69897, Note_on_c, 0, 79, 57
2,69940, Note_on_c, 0, 63, 32
2,70011, Note_on_c, 0, 63, 0
2,70063, Note_on_c, 0, 79, 0
2,70087, Note_on_c, 0, 77, 60
2,70124, Note_on_c, 0, 61, 38
2,70339, Note_on_c, 0, 61, 0
2,70344, Note_on_c, 0, 77, 0
2,70441, Note_on_c, 0, 77, 61
2,70461, Note_on_c, 0, 61, 39
2,70505, Note_on_c, 0, 61, 0
2,70617, Note_on_c, 0, 75, 63
2,70618, Note_on_c, 0, 77, 0
2,70622, Note_on_c, 0, 60, 45
2,70688, Note_on_c, 0, 60, 0
2,70805, Note_on_c, 0, 75, 0
2,70806, Note_on_c, 0, 73, 62
2,70816, Note_on_c, 0, 58, 42
2,70854, Note_on_c, 0, 72, 0
2,71160, Note_on_c, 0, 60, 55
2,71163, Note_on_c, 0, 70, 61
2,71177, Note_on_c, 0, 58, 0
2,71215, Note_on_c, 0, 70, 0
2,71230, Note_on_c, 0, 60, 0
2,71334, Note_on_c, 0, 68, 66
2,71338, Note_on_c, 0, 61, 48
2,71386, Note_on_c, 0, 61, 0
2,71442, Note_on_c, 0, 68, 0
2,71521, Note_on_c, 0, 67, 62
2,71543, Note_on_c, 0, 63, 47
2,71839, Note_on_c, 0, 73, 0
2,71857, Note_on_c, 0, 75, 66
2,71879, Note_on_c, 0, 51, 51
2,71950, Note_on_c, 0, 63, 0
2,72026, Note_on_c, 0, 73, 69
2,72033, Note_on_c, 0, 51, 0
2,72110, Note_on_c, 0, 75, 0
2,72180, Note_on_c, 0, 73, 0
2,72225, Note_on_c, 0, 72, 65
2,72230, Note_on_c, 0, 56, 55
2,72364, Note_on_c, 0, 67, 0
2,72417, Note_on_c, 0, 56, 0
2,72468, Note_on_c, 0, 72, 0
2,72570, Note_on_c, 0, 72, 71
2,72572, Note_on_c, 0, 58, 58
2,72661, Note_on_c, 0, 58, 0
2,72695, Note_on_c, 0, 72, 0
2,72739, Note_on_c, 0, 70, 76
2,72747, Note_on_c, 0, 60, 63
2,72811, Note_on_c, 0, 60, 0
2,72871, Note_on_c, 0, 70, 0
2,72933, Note_on_c, 0, 68, 72
2,72958, Note_on_c, 0, 61, 50
2,73288, Note_on_c, 0, 65, 60
2,73351, Note_on_c, 0, 65, 0
2,73456, Note_on_c, 0, 64, 57
2,73530, Note_on_c, 0, 64, 0
2,73663, Note_on_c, 0, 65, 56
2,73733, Note_on_c, 0, 68, 0
2,73908, Note_on_c, 0, 61, 0
2,74010, Note_on_c, 0, 70, 58
2,74021, Note_on_c, 0, 61, 51
2,74070, Note_on_c, 0, 61, 0
2,74095, Note_on_c, 0, 70, 0
2,74172, Note_on_c, 0, 72, 64
2,74182, Note_on_c, 0, 60, 49
2,74238, Note_on_c, 0, 60, 0
2,74276, Note_on_c, 0, 72, 0
2,74365, Note_on_c, 0, 73, 58
2,74390, Note_on_c, 0, 58, 46
2,74520, Note_on_c, 0, 65, 0
2,74598, Note_on_c, 0, 58, 0
2,74715, Note_on_c, 0, 67, 66
2,74733, Note_on_c, 0, 58, 52
2,74780, Note_on_c, 0, 58, 0
2,74791, Note_on_c, 0, 67, 0
2,74877, Note_on_c, 0, 68, 68
2,74880, Note_on_c, 0, 56, 55
2,74930, Note_on_c, 0, 56, 0
2,74991, Note_on_c, 0, 68, 0
2,75050, Note_on_c, 0, 55, 59
2,75065, Note_on_c, 0, 70, 68
2,75163, Note_on_c, 0, 73, 0
2,75237, Note_on_c, 0, 72, 70
2,75265, Note_on_c, 0, 70, 0
2,75302, Note_on_c, 0, 55, 0
2,75406, Note_on_c, 0, 73, 73
2,75410, Note_on_c, 0, 55, 69
2,75420, Note_on_c, 0, 72, 0
2,75475, Note_on_c, 0, 55, 0
2,75536, Note_on_c, 0, 73, 0
2,75558, Note_on_c, 0, 70, 73
2,75565, Note_on_c, 0, 53, 64
2,75654, Note_on_c, 0, 53, 0
2,75666, Note_on_c, 0, 70, 0
2,75730, Note_on_c, 0, 79, 73
2,75743, Note_on_c, 0, 52, 67
2,75927, Note_on_c, 0, 68, 73
2,75931, Note_on_c, 0, 52, 0
2,76018, Note_on_c, 0, 68, 0
2,76097, Note_on_c, 0, 70, 71
2,76107, Note_on_c, 0, 48, 58
2,76212, Note_on_c, 0, 70, 0
2,76262, Note_on_c, 0, 67, 79
2,76268, Note_on_c, 0, 48, 0
2,76364, Note_on_c, 0, 67, 0
2,76446, Note_on_c, 0, 68, 75
2,76461, Note_on_c, 0, 53, 52
2,76612, Note_on_c, 0, 79, 0
2,76617, Note_on_c, 0, 72, 76
2,76802, Note_on_c, 0, 73, 79
2,76822, Note_on_c, 0, 65, 58
2,76826, Note_on_c, 0, 53, 0
2,76831, Note_on_c, 0, 72, 0
2,76838, Note_on_c, 0, 68, 0
2,76850, Note_on_c, 0, 65, 0
2,76910, Note_on_c, 0, 73, 0
2,76972, Note_on_c, 0, 72, 80
2,76985, Note_on_c, 0, 63, 56
2,77020, Note_on_c, 0, 63, 0
2,77045, Note_on_c, 0, 72, 0
2,77160, Note_on_c, 0, 77, 81
2,77178, Note_on_c, 0, 61, 55
2,77246, Note_on_c, 0, 61, 0
2,77255, Note_on_c, 0, 63, 55
2,77328, Note_on_c, 0, 63, 0
2,77339, Note_on_c, 0, 61, 57
2,77343, Note_on_c, 0, 67, 80
2,77393, Note_on_c, 0, 61, 0
2,77397, Note_on_c, 0, 63, 44
2,77481, Note_on_c, 0, 61, 57
2,77486, Note_on_c, 0, 63, 0
2,77517, Note_on_c, 0, 68, 79
2,77541, Note_on_c, 0, 67, 0
2,77559, Note_on_c, 0, 63, 53
2,77562, Note_on_c, 0, 61, 0
2,77597, Note_on_c, 0, 68, 0
2,77620, Note_on_c, 0, 61, 48
2,77633, Note_on_c, 0, 63, 0
2,77681, Note_on_c, 0, 65, 67
2,77701, Note_on_c, 0, 63, 53
2,77706, Note_on_c, 0, 61, 0
2,77773, Note_on_c, 0, 61, 52
2,77795, Note_on_c, 0, 63, 0
2,77876, Note_on_c, 0, 61, 0
2,77883, Note_on_c, 0, 65, 0
2,77883, Note_on_c, 0, 72, 71
2,77885, Note_on_c, 0, 60, 64
2,77919, Note_on_c, 0, 77, 0
2,78013, Note_on_c, 0, 60, 0
2,78013, Note_on_c, 0, 72, 0
2,78230, Note_on_c, 0, 48, 64
2,78230, Note_on_c, 0, 67, 66
2,78236, Note_on_c, 0, 76, 66
2,78305, Note_on_c, 0, 48, 0
2,78318, Note_on_c, 0, 76, 0
2,78403, Note_on_c, 0, 77, 75
2,78404, Note_on_c, 0, 50, 66
2,78417, Note_on_c, 0, 67, 0
2,78487, Note_on_c, 0, 50, 0
2,78497, Note_on_c, 0, 77, 0
2,78633, Note_on_c, 0, 48, 75
2,78636, Note_on_c, 0, 79, 77
2,78645, Note_on_c, 0, 72, 59
2,78663, Note_on_c, 0, 52, 48
2,78975, Note_on_c, 0, 52, 0
2,79014, Note_on_c, 0, 70, 69
2,79019, Note_on_c, 0, 50, 44
2,79026, Note_on_c, 0, 72, 0
2,79116, Note_on_c, 0, 50, 0
2,79146, Note_on_c, 0, 70, 0
2,79176, Note_on_c, 0, 79, 0
2,79205, Note_on_c, 0, 52, 37
2,79255, Note_on_c, 0, 52, 0
2,79372, Note_on_c, 0, 53, 64
2,79372, Note_on_c, 0, 77, 81
2,79380, Note_on_c, 0, 49, 67
2,79385, Note_on_c, 0, 68, 64
2,79430, Note_on_c, 0, 48, 0
2,79464, Note_on_c, 0, 53, 0
2,79477, Note_on_c, 0, 68, 0
2,79545, Note_on_c, 0, 52, 69
2,79626, Note_on_c, 0, 52, 0
2,79715, Note_on_c, 0, 70, 71
2,79721, Note_on_c, 0, 53, 60
2,79779, Note_on_c, 0, 53, 0
2,79827, Note_on_c, 0, 70, 0
2,79888, Note_on_c, 0, 55, 62
2,79955, Note_on_c, 0, 55, 0
2,80073, Note_on_c, 0, 49, 0
2,80075, Note_on_c, 0, 72, 64
2,80079, Note_on_c, 0, 48, 59
2,80087, Note_on_c, 0, 56, 51
2,80095, Note_on_c, 0, 77, 0
2,80179, Note_on_c, 0, 72, 0
2,80267, Note_on_c, 0, 60, 58
2,80327, Note_on_c, 0, 60, 0
2,80426, Note_on_c, 0, 75, 69
2,80444, Note_on_c, 0, 62, 59
2,80489, Note_on_c, 0, 62, 0
2,80533, Note_on_c, 0, 75, 0
2,80596, Note_on_c, 0, 63, 66
2,80666, Note_on_c, 0, 63, 0
2,80775, Note_on_c, 0, 74, 66
2,80784, Note_on_c, 0, 65, 56
2,80794, Note_on_c, 0, 47, 60
2,80795, Note_on_c, 0, 48, 0
2,80877, Note_on_c, 0, 56, 0
2,80961, Note_on_c, 0, 53, 48
2,81038, Note_on_c, 0, 53, 0
2,81105, Note_on_c, 0, 74, 0
2,81121, Note_on_c, 0, 55, 63
2,81123, Note_on_c, 0, 75, 75
2,81210, Note_on_c, 0, 55, 0
2,81264, Note_on_c, 0, 75, 0
2,81279, Note_on_c, 0, 56, 53
2,81298, Note_on_c, 0, 77, 74
2,81386, Note_on_c, 0, 56, 0
2,81405, Note_on_c, 0, 65, 0
2,81438, Note_on_c, 0, 77, 0
2,81492, Note_on_c, 0, 52, 70
2,81493, Note_on_c, 0, 79, 75
2,81497, Note_on_c, 0, 58, 56
2,81525, Note_on_c, 0, 47, 0
2,81681, Note_on_c, 0, 77, 74
2,81688, Note_on_c, 0, 79, 0
2,81803, Note_on_c, 0, 77, 0
2,81851, Note_on_c, 0, 67, 66
2,81858, Note_on_c, 0, 76, 62
2,81938, Note_on_c, 0, 76, 0
2,81947, Note_on_c, 0, 67, 0
2,82023, Note_on_c, 0, 74, 66
2,82035, Note_on_c, 0, 67, 32
2,82084, Note_on_c, 0, 74, 0
2,82197, Note_on_c, 0, 72, 58
2,82200, Note_on_c, 0, 67, 0
2,82202, Note_on_c, 0, 53, 70
2,82203, Note_on_c, 0, 68, 56
2,82248, Note_on_c, 0, 58, 0
2,82259, Note_on_c, 0, 52, 0
2,82379, Note_on_c, 0, 56, 64
2,82465, Note_on_c, 0, 56, 0
2,82567, Note_on_c, 0, 58, 66
2,82625, Note_on_c, 0, 58, 0
2,82714, Note_on_c, 0, 68, 0
2,82738, Note_on_c, 0, 60, 63
2,82781, Note_on_c, 0, 60, 0
2,82872, Note_on_c, 0, 53, 0
2,82920, Note_on_c, 0, 46, 78
2,82928, Note_on_c, 0, 61, 71
2,83100, Note_on_c, 0, 70, 63
2,83100, Note_on_c, 0, 72, 0
2,83187, Note_on_c, 0, 70, 0
2,83271, Note_on_c, 0, 68, 68
2,83340, Note_on_c, 0, 68, 0
2,83430, Note_on_c, 0, 67, 77
2,83505, Note_on_c, 0, 67, 0
2,83508, Note_on_c, 0, 61, 0
2,83620, Note_on_c, 0, 65, 66
2,83622, Note_on_c, 0, 72, 60
2,83631, Note_on_c, 0, 45, 60
2,83655, Note_on_c, 0, 46, 0
2,83763, Note_on_c, 0, 65, 0
2,83798, Note_on_c, 0, 60, 76
2,83883, Note_on_c, 0, 60, 0
2,83964, Note_on_c, 0, 62, 78
2,84037, Note_on_c, 0, 62, 0
2,84123, Note_on_c, 0, 64, 81
2,84208, Note_on_c, 0, 64, 0
2,84301, Note_on_c, 0, 44, 68
2,84301, Note_on_c, 0, 65, 74
2,84399, Note_on_c, 0, 45, 0
2,84407, Note_on_c, 0, 65, 0
2,84450, Note_on_c, 0, 72, 0
2,84475, Note_on_c, 0, 65, 75
2,84597, Note_on_c, 0, 65, 0
2,84649, Note_on_c, 0, 67, 72
2,84652, Note_on_c, 0, 72, 74
2,84750, Note_on_c, 0, 67, 0
2,84791, Note_on_c, 0, 72, 0
2,84827, Note_on_c, 0, 68, 80
2,84914, Note_on_c, 0, 68, 0
2,85054, Note_on_c, 0, 73, 73
2,85056, Note_on_c, 0, 43, 68
2,85057, Note_on_c, 0, 70, 68
2,85174, Note_on_c, 0, 44, 0
2,85386, Note_on_c, 0, 73, 0
2,85430, Note_on_c, 0, 72, 64
2,85442, Note_on_c, 0, 64, 53
2,85486, Note_on_c, 0, 70, 0
2,85489, Note_on_c, 0, 64, 0
2,85542, Note_on_c, 0, 72, 0
2,85596, Note_on_c, 0, 70, 64
2,85605, Note_on_c, 0, 62, 57
2,85651, Note_on_c, 0, 62, 0
2,85703, Note_on_c, 0, 70, 0
2,85790, Note_on_c, 0, 72, 55
2,85808, Note_on_c, 0, 64, 40
2,86199, Note_on_c, 0, 68, 53
2,86201, Note_on_c, 0, 72, 0
2,86206, Note_on_c, 0, 64, 0
2,86284, Note_on_c, 0, 68, 0
2,86348, Control_c, 0, 67, 8
2,86363, Control_c, 0, 67, 9
2,86378, Control_c, 0, 67, 11
2,86393, Control_c, 0, 67, 13
2,86393, Note_on_c, 0, 67, 44
2,86409, Control_c, 0, 67, 15
2,86424, Control_c, 0, 67, 18
2,86438, Control_c, 0, 67, 20
2,86454, Control_c, 0, 67, 23
2,86469, Control_c, 0, 67, 25
2,86485, Control_c, 0, 67, 27
2,86494, Note_on_c, 0, 67, 0
2,86500, Control_c, 0, 67, 29
2,86514, Control_c, 0, 67, 31
2,86530, Control_c, 0, 67, 32
2,86546, Control_c, 0, 67, 34
2,86562, Control_c, 0, 67, 36
2,86577, Control_c, 0, 67, 37
2,86592, Control_c, 0, 67, 38
2,86608, Control_c, 0, 67, 40
2,86622, Control_c, 0, 67, 40
2,86634, Note_on_c, 0, 68, 41
2,86637, Control_c, 0, 67, 41
2,86675, Control_c, 0, 67, 41
2,86683, Note_on_c, 0, 65, 21
2,86688, Note_on_c, 0, 41, 30
2,86691, Control_c, 0, 67, 42
2,86692, Note_on_c, 0, 43, 0
2,86706, Control_c, 0, 67, 43
2,86722, Control_c, 0, 67, 45
2,86737, Control_c, 0, 67, 49
2,86751, Control_c, 0, 67, 52
2,86767, Control_c, 0, 67, 57
2,86782, Control_c, 0, 67, 62
2,86797, Control_c, 0, 67, 68
2,86812, Control_c, 0, 67, 75
2,86827, Control_c, 0, 67, 84
2,86843, Control_c, 0, 67, 92
2,86858, Control_c, 0, 67, 100
2,86863, Note_on_c, 0, 41, 0
2,86873, Control_c, 0, 67, 106
2,86888, Control_c, 0, 67, 111
2,86903, Control_c, 0, 67, 116
2,86918, Control_c, 0, 67, 120
2,86934, Control_c, 0, 67, 123
2,86949, Control_c, 0, 67, 125
2,86965, Control_c, 0, 67, 126
2,86980, Control_c, 0, 67, 127
2,87056, Control_c, 0, 67, 126
2,87116, Control_c, 0, 67, 126
2,87132, Control_c, 0, 67, 125
2,87142, Note_on_c, 0, 53, 37
2,87161, Note_on_c, 0, 65, 0
2,87212, Note_on_c, 0, 53, 0
2,87215, Note_on_c, 0, 68, 0
2,87283, Control_c, 0, 67, 125
2,87304, Note_on_c, 0, 55, 42
2,87329, Control_c, 0, 67, 124
2,87344, Control_c, 0, 67, 124
2,87361, Control_c, 0, 67, 123
2,87384, Note_on_c, 0, 55, 0
2,87459, Control_c, 0, 67, 123
2,87512, Note_on_c, 0, 56, 42
2,87671, Control_c, 0, 67, 123
2,87673, Note_on_c, 0, 56, 0
2,87876, Note_on_c, 0, 56, 45
2,87878, Note_on_c, 0, 60, 51
2,87945, Control_c, 0, 67, 124
2,87967, Note_on_c, 0, 60, 0
2,87970, Note_on_c, 0, 56, 0
2,87990, Control_c, 0, 67, 124
2,88051, Control_c, 0, 67, 125
2,88051, Note_on_c, 0, 58, 53
2,88057, Note_on_c, 0, 61, 59
2,88124, Note_on_c, 0, 58, 0
2,88125, Note_on_c, 0, 61, 0
2,88242, Note_on_c, 0, 63, 59
2,88255, Note_on_c, 0, 60, 55
2,88288, Control_c, 0, 67, 124
2,88334, Control_c, 0, 67, 124
2,88389, Note_on_c, 0, 60, 0
2,88425, Control_c, 0, 67, 123
2,88499, Note_on_c, 0, 63, 0
2,88546, Control_c, 0, 67, 123
2,88583, Note_on_c, 0, 78, 74
2,88589, Note_on_c, 0, 63, 60
2,88591, Note_on_c, 0, 60, 55
2,88652, Control_c, 0, 67, 123
2,88668, Control_c, 0, 67, 124
2,88684, Control_c, 0, 67, 124
2,88761, Note_on_c, 0, 77, 76
2,88768, Note_on_c, 0, 65, 70
2,88772, Note_on_c, 0, 63, 0
2,88774, Control_c, 0, 67, 125
2,88789, Note_on_c, 0, 78, 0
2,88835, Control_c, 0, 67, 124
2,88866, Control_c, 0, 67, 124
2,88882, Control_c, 0, 67, 123
2,88917, Note_on_c, 0, 65, 0
2,88927, Control_c, 0, 67, 123
2,88931, Note_on_c, 0, 75, 78
2,88938, Note_on_c, 0, 77, 0
2,88942, Control_c, 0, 67, 122
2,88951, Note_on_c, 0, 60, 0
2,88951, Note_on_c, 0, 66, 70
2,88957, Control_c, 0, 67, 122
2,88979, Control_c, 0, 67, 121
2,89011, Control_c, 0, 67, 120
2,89026, Control_c, 0, 67, 119
2,89056, Control_c, 0, 67, 119
2,89071, Control_c, 0, 67, 118
2,89087, Control_c, 0, 67, 118
2,89102, Control_c, 0, 67, 117
2,89111, Note_on_c, 0, 73, 76
2,89116, Note_on_c, 0, 58, 67
2,89117, Control_c, 0, 67, 117
2,89118, Note_on_c, 0, 75, 0
2,89132, Control_c, 0, 67, 116
2,89163, Control_c, 0, 67, 116
2,89193, Control_c, 0, 67, 115
2,89209, Control_c, 0, 67, 114
2,89224, Control_c, 0, 67, 114
2,89238, Control_c, 0, 67, 112
2,89238, Note_on_c, 0, 58, 0
2,89254, Control_c, 0, 67, 111
2,89285, Control_c, 0, 67, 111
2,89285, Note_on_c, 0, 72, 67
2,89285, Note_on_c, 0, 73, 0
2,89300, Control_c, 0, 67, 110
2,89303, Note_on_c, 0, 56, 47
2,89345, Control_c, 0, 67, 110
2,89408, Note_on_c, 0, 56, 0
2,89451, Control_c, 0, 67, 110
2,89452, Note_on_c, 0, 70, 67
2,89465, Note_on_c, 0, 54, 47
2,89470, Note_on_c, 0, 72, 0
2,89511, Control_c, 0, 67, 111
2,89527, Control_c, 0, 67, 111
2,89542, Control_c, 0, 67, 112
2,89572, Control_c, 0, 67, 113
2,89578, Note_on_c, 0, 66, 0
2,89584, Note_on_c, 0, 54, 0
2,89603, Control_c, 0, 67, 113
2,89618, Control_c, 0, 67, 114
2,89632, Note_on_c, 0, 70, 0
2,89642, Note_on_c, 0, 68, 67
2,89649, Control_c, 0, 67, 114
2,89663, Control_c, 0, 67, 115
2,89663, Note_on_c, 0, 65, 45
2,89674, Note_on_c, 0, 53, 41
2,89709, Control_c, 0, 67, 115
2,89725, Control_c, 0, 67, 116
2,89829, Note_on_c, 0, 65, 0
2,89842, Note_on_c, 0, 53, 0
2,89890, Note_on_c, 0, 68, 0
2,89976, Control_c, 0, 67, 116
2,89990, Note_on_c, 0, 70, 67
2,89994, Note_on_c, 0, 65, 60
2,90007, Control_c, 0, 67, 117
2,90010, Note_on_c, 0, 49, 47
2,90022, Control_c, 0, 67, 117
2,90035, Note_on_c, 0, 65, 0
2,90036, Control_c, 0, 67, 118
2,90052, Control_c, 0, 67, 119
2,90067, Control_c, 0, 67, 120
2,90083, Control_c, 0, 67, 121
2,90083, Note_on_c, 0, 49, 0
2,90097, Control_c, 0, 67, 121
2,90112, Control_c, 0, 67, 122
2,90128, Control_c, 0, 67, 124
2,90143, Control_c, 0, 67, 127
2,90156, Note_on_c, 0, 72, 71
2,90177, Note_on_c, 0, 51, 50
2,90181, Note_on_c, 0, 63, 47
2,90187, Note_on_c, 0, 70, 0
2,90230, Note_on_c, 0, 63, 0
2,90260, Note_on_c, 0, 51, 0
2,90354, Note_on_c, 0, 73, 57
2,90364, Note_on_c, 0, 72, 0
2,90369, Note_on_c, 0, 61, 41
2,90379, Note_on_c, 0, 53, 47
2,90491, Note_on_c, 0, 53, 0
2,90726, Note_on_c, 0, 56, 54
2,90751, Note_on_c, 0, 53, 35
2,90841, Note_on_c, 0, 56, 0
2,90878, Note_on_c, 0, 61, 0
2,90879, Note_on_c, 0, 53, 0
2,90896, Control_c, 0, 67, 113
2,90896, Note_on_c, 0, 58, 43
2,90901, Note_on_c, 0, 55, 43
2,90911, Control_c, 0, 67, 96
2,90927, Control_c, 0, 67, 85
2,90941, Control_c, 0, 67, 76
2,90956, Control_c, 0, 67, 68
2,90972, Control_c, 0, 67, 62
2,90987, Control_c, 0, 67, 58
2,91029, Note_on_c, 0, 58, 0
2,91032, Control_c, 0, 67, 59
2,91043, Note_on_c, 0, 55, 0
2,91048, Control_c, 0, 67, 60
2,91063, Control_c, 0, 67, 60
2,91077, Control_c, 0, 67, 61
2,91083, Note_on_c, 0, 56, 39
2,91086, Note_on_c, 0, 60, 42
2,91093, Control_c, 0, 67, 62
2,91169, Control_c, 0, 67, 63
2,91215, Control_c, 0, 67, 63
2,91221, Note_on_c, 0, 60, 0
2,91229, Control_c, 0, 67, 64
2,91244, Note_on_c, 0, 73, 0
2,91245, Control_c, 0, 67, 66
2,91260, Control_c, 0, 67, 69
2,91283, Control_c, 0, 67, 70
2,91298, Control_c, 0, 67, 70
2,91313, Control_c, 0, 67, 72
2,91329, Control_c, 0, 67, 74
2,91344, Control_c, 0, 67, 76
2,91358, Control_c, 0, 67, 78
2,91374, Control_c, 0, 67, 79
2,91389, Control_c, 0, 67, 81
2,91405, Control_c, 0, 67, 82
2,91420, Control_c, 0, 67, 84
2,91434, Control_c, 0, 67, 86
2,91450, Control_c, 0, 67, 89
2,91466, Control_c, 0, 67, 91
2,91477, Note_on_c, 0, 60, 39
2,91479, Note_on_c, 0, 75, 58
2,91482, Control_c, 0, 67, 94
2,91497, Control_c, 0, 67, 96
2,91511, Control_c, 0, 67, 98
2,91527, Control_c, 0, 67, 100
2,91542, Control_c, 0, 67, 102
2,91557, Control_c, 0, 67, 104
2,91573, Control_c, 0, 67, 106
2,91587, Control_c, 0, 67, 106
2,91603, Control_c, 0, 67, 106
2,91644, Note_on_c, 0, 73, 69
2,91646, Note_on_c, 0, 60, 0
2,91649, Control_c, 0, 67, 106
2,91657, Note_on_c, 0, 61, 55
2,91663, Control_c, 0, 67, 107
2,91675, Note_on_c, 0, 75, 0
2,91709, Control_c, 0, 67, 107
2,91721, Note_on_c, 0, 61, 0
2,91725, Control_c, 0, 67, 108
2,91740, Control_c, 0, 67, 109
2,91755, Control_c, 0, 67, 109
2,91825, Note_on_c, 0, 72, 70
2,91828, Note_on_c, 0, 63, 46
2,91847, Control_c, 0, 67, 108
2,91859, Note_on_c, 0, 73, 0
2,91862, Control_c, 0, 67, 108
2,91877, Control_c, 0, 67, 107
2,91893, Control_c, 0, 67, 106
2,91908, Control_c, 0, 67, 105
2,91923, Control_c, 0, 67, 105
2,91979, Note_on_c, 0, 72, 0
2,91984, Control_c, 0, 67, 104
2,91989, Note_on_c, 0, 70, 68
2,91993, Note_on_c, 0, 54, 47
2,92001, Note_on_c, 0, 56, 0
2,92029, Control_c, 0, 67, 105
2,92052, Control_c, 0, 67, 106
2,92067, Control_c, 0, 67, 107
2,92083, Control_c, 0, 67, 107
2,92098, Control_c, 0, 67, 108
2,92113, Control_c, 0, 67, 108
2,92122, Note_on_c, 0, 54, 0
2,92143, Control_c, 0, 67, 109
2,92154, Note_on_c, 0, 70, 0
2,92158, Control_c, 0, 67, 109
2,92168, Note_on_c, 0, 68, 64
2,92174, Control_c, 0, 67, 110
2,92189, Control_c, 0, 67, 110
2,92204, Note_on_c, 0, 53, 26
2,92219, Control_c, 0, 67, 111
2,92234, Control_c, 0, 67, 114
2,92250, Control_c, 0, 67, 116
2,92264, Control_c, 0, 67, 119
2,92281, Control_c, 0, 67, 122
2,92296, Control_c, 0, 67, 125
2,92308, Note_on_c, 0, 68, 0
2,92311, Control_c, 0, 67, 127
2,92317, Note_on_c, 0, 53, 0
2,92325, Note_on_c, 0, 66, 65
2,92339, Note_on_c, 0, 51, 43
2,92414, Note_on_c, 0, 51, 0
2,92493, Note_on_c, 0, 66, 0
2,92516, Note_on_c, 0, 65, 60
2,92539, Note_on_c, 0, 49, 31
2,92597, Note_on_c, 0, 63, 0
2,92692, Note_on_c, 0, 49, 0
2,92703, Note_on_c, 0, 65, 0
2,92897, Note_on_c, 0, 67, 54
2,92905, Note_on_c, 0, 46, 38
2,92928, Note_on_c, 0, 61, 39
2,92995, Note_on_c, 0, 46, 0
2,93047, Note_on_c, 0, 67, 0
2,93087, Note_on_c, 0, 69, 54
2,93097, Note_on_c, 0, 48, 41
2,93109, Note_on_c, 0, 61, 0
2,93133, Note_on_c, 0, 60, 11
2,93174, Note_on_c, 0, 60, 0
2,93187, Note_on_c, 0, 48, 0
2,93271, Note_on_c, 0, 69, 0
2,93287, Note_on_c, 0, 70, 51
2,93309, Note_on_c, 0, 49, 34
2,93312, Note_on_c, 0, 58, 28
2,93454, Note_on_c, 0, 49, 0
2,93669, Note_on_c, 0, 49, 38
2,93669, Note_on_c, 0, 53, 42
2,93696, Note_on_c, 0, 58, 0
2,93797, Note_on_c, 0, 53, 0
2,93808, Note_on_c, 0, 49, 0
2,93846, Note_on_c, 0, 55, 54
2,93905, Control_c, 0, 67, 123
2,93922, Control_c, 0, 67, 119
2,93937, Control_c, 0, 67, 116
2,93952, Control_c, 0, 67, 113
2,93967, Control_c, 0, 67, 107
2,93982, Control_c, 0, 67, 101
2,93997, Control_c, 0, 67, 96
2,93997, Note_on_c, 0, 55, 0
2,94013, Control_c, 0, 67, 94
2,94028, Control_c, 0, 67, 94
2,94028, Note_on_c, 0, 53, 24
2,94030, Note_on_c, 0, 56, 53
2,94043, Control_c, 0, 67, 93
2,94058, Control_c, 0, 67, 91
2,94073, Control_c, 0, 67, 89
2,94089, Control_c, 0, 67, 87
2,94149, Control_c, 0, 67, 88
2,94165, Control_c, 0, 67, 88
2,94167, Note_on_c, 0, 70, 0
2,94180, Control_c, 0, 67, 89
2,94195, Control_c, 0, 67, 91
2,94209, Note_on_c, 0, 56, 0
2,94210, Control_c, 0, 67, 92
2,94225, Control_c, 0, 67, 93
2,94241, Control_c, 0, 67, 94
2,94256, Control_c, 0, 67, 95
2,94271, Control_c, 0, 67, 96
2,94287, Control_c, 0, 67, 97
2,94302, Control_c, 0, 67, 98
2,94317, Control_c, 0, 67, 98
2,94332, Control_c, 0, 67, 99
2,94370, Control_c, 0, 67, 99
2,94384, Control_c, 0, 67, 100
2,94399, Control_c, 0, 67, 101
2,94410, Note_on_c, 0, 72, 47
2,94415, Control_c, 0, 67, 103
2,94430, Control_c, 0, 67, 106
2,94446, Control_c, 0, 67, 108
2,94456, Note_on_c, 0, 56, 21
2,94461, Control_c, 0, 67, 111
2,94476, Control_c, 0, 67, 113
2,94492, Control_c, 0, 67, 116
2,94507, Control_c, 0, 67, 120
2,94522, Control_c, 0, 67, 123
2,94537, Control_c, 0, 67, 125
2,94552, Control_c, 0, 67, 127
2,94554, Note_on_c, 0, 56, 0
2,94568, Control_c, 0, 67, 127
2,94583, Note_on_c, 0, 70, 62
2,94584, Note_on_c, 0, 58, 43
2,94642, Note_on_c, 0, 58, 0
2,94654, Note_on_c, 0, 72, 0
2,94757, Note_on_c, 0, 68, 67
2,94776, Note_on_c, 0, 60, 36
2,94796, Note_on_c, 0, 70, 0
2,94904, Note_on_c, 0, 53, 0
2,94918, Note_on_c, 0, 67, 72
2,94930, Note_on_c, 0, 51, 45
2,94939, Note_on_c, 0, 68, 0
2,95101, Note_on_c, 0, 65, 78
2,95105, Note_on_c, 0, 67, 0
2,95124, Note_on_c, 0, 49, 44
2,95205, Note_on_c, 0, 51, 0
2,95229, Note_on_c, 0, 49, 0
2,95271, Note_on_c, 0, 63, 76
2,95272, Note_on_c, 0, 60, 0
2,95292, Note_on_c, 0, 48, 51
2,95329, Note_on_c, 0, 65, 0
2,95442, Note_on_c, 0, 48, 0
2,95456, Note_on_c, 0, 61, 74
2,95463, Note_on_c, 0, 46, 49
2,95473, Control_c, 0, 67, 126
2,95488, Control_c, 0, 67, 123
2,95497, Note_on_c, 0, 63, 0
2,95503, Control_c, 0, 67, 122
2,95518, Control_c, 0, 67, 120
2,95534, Control_c, 0, 67, 118
2,95549, Control_c, 0, 67, 115
2,95565, Control_c, 0, 67, 111
2,95580, Control_c, 0, 67, 103
2,95595, Control_c, 0, 67, 94
2,95611, Control_c, 0, 67, 81
2,95625, Note_on_c, 0, 48, 57
2,95626, Control_c, 0, 67, 66
2,95632, Note_on_c, 0, 46, 0
2,95641, Control_c, 0, 67, 47
2,95656, Control_c, 0, 67, 26
2,95671, Control_c, 0, 67, 0
2,95818, Note_on_c, 0, 58, 72
2,95834, Note_on_c, 0, 49, 54
2,95838, Note_on_c, 0, 48, 0
2,95853, Note_on_c, 0, 61, 0
2,95956, Note_on_c, 0, 49, 0
2,95988, Note_on_c, 0, 60, 73
2,95992, Note_on_c, 0, 48, 58
2,96003, Note_on_c, 0, 58, 0
2,96126, Note_on_c, 0, 60, 0
2,96151, Note_on_c, 0, 48, 0
2,96161, Note_on_c, 0, 61, 73
2,96163, Note_on_c, 0, 46, 68
2,96298, Note_on_c, 0, 46, 0
2,96322, Note_on_c, 0, 44, 63
2,96338, Note_on_c, 0, 65, 57
2,96375, Note_on_c, 0, 64, 20
2,96385, Note_on_c, 0, 64, 0
2,96472, Note_on_c, 0, 44, 0
2,96485, Control_c, 0, 67, 8
2,96499, Control_c, 0, 67, 10
2,96506, Note_on_c, 0, 70, 68
2,96512, Note_on_c, 0, 43, 60
2,96514, Control_c, 0, 67, 14
2,96530, Control_c, 0, 67, 18
2,96534, Note_on_c, 0, 65, 0
2,96545, Control_c, 0, 67, 23
2,96561, Control_c, 0, 67, 27
2,96575, Control_c, 0, 67, 30
2,96590, Control_c, 0, 67, 32
2,96606, Control_c, 0, 67, 35
2,96621, Control_c, 0, 67, 40
2,96635, Control_c, 0, 67, 46
2,96637, Note_on_c, 0, 43, 0
2,96659, Control_c, 0, 67, 52
2,96673, Note_on_c, 0, 41, 52
2,96674, Control_c, 0, 67, 59
2,96676, Note_on_c, 0, 68, 72
2,96690, Control_c, 0, 67, 66
2,96704, Control_c, 0, 67, 72
2,96718, Note_on_c, 0, 70, 0
2,96719, Control_c, 0, 67, 76
2,96735, Control_c, 0, 67, 80
2,96750, Control_c, 0, 67, 84
2,96766, Control_c, 0, 67, 87
2,96780, Control_c, 0, 67, 90
2,96795, Control_c, 0, 67, 94
2,96805, Note_on_c, 0, 41, 0
2,96809, Note_on_c, 0, 68, 0
2,96811, Control_c, 0, 67, 98
2,96826, Control_c, 0, 67, 102
2,96841, Control_c, 0, 67, 105
2,96856, Control_c, 0, 67, 108
2,96859, Note_on_c, 0, 67, 67
2,96865, Note_on_c, 0, 39, 54
2,96871, Control_c, 0, 67, 110
2,96887, Control_c, 0, 67, 112
2,96902, Control_c, 0, 67, 114
2,96916, Control_c, 0, 67, 115
2,96935, Note_on_c, 0, 39, 0
2,96992, Control_c, 0, 67, 114
2,97008, Control_c, 0, 67, 114
2,97023, Control_c, 0, 67, 113
2,97038, Control_c, 0, 67, 113
2,97069, Control_c, 0, 67, 112
2,97161, Control_c, 0, 67, 113
2,97208, Note_on_c, 0, 63, 74
2,97210, Note_on_c, 0, 61, 0
2,97221, Note_on_c, 0, 46, 64
2,97277, Note_on_c, 0, 67, 0
2,97281, Note_on_c, 0, 46, 0
2,97343, Control_c, 0, 67, 112
2,97367, Note_on_c, 0, 61, 79
2,97375, Note_on_c, 0, 63, 0
2,97389, Control_c, 0, 67, 112
2,97534, Control_c, 0, 67, 111
2,97598, Note_on_c, 0, 63, 86
2,97616, Note_on_c, 0, 68, 68
2,97619, Note_on_c, 0, 60, 62
2,97624, Note_on_c, 0, 48, 61
2,97645, Note_on_c, 0, 61, 0
2,97670, Note_on_c, 0, 48, 0
2,97685, Control_c, 0, 67, 112
2,97746, Control_c, 0, 67, 111
2,97761, Control_c, 0, 67, 111
2,97778, Note_on_c, 0, 60, 0
2,97791, Control_c, 0, 67, 110
2,97928, Control_c, 0, 67, 111
2,97943, Control_c, 0, 67, 111
2,97974, Control_c, 0, 67, 112
2,97974, Note_on_c, 0, 44, 51
2,97975, Note_on_c, 0, 61, 59
2,97989, Control_c, 0, 67, 112
2,98005, Control_c, 0, 67, 113
2,98020, Control_c, 0, 67, 115
2,98035, Control_c, 0, 67, 116
2,98051, Control_c, 0, 67, 119
2,98065, Control_c, 0, 67, 127
2,98065, Note_on_c, 0, 44, 0
2,98129, Note_on_c, 0, 61, 0
2,98166, Note_on_c, 0, 60, 65
2,98198, Note_on_c, 0, 68, 0
2,98343, Note_on_c, 0, 65, 78
2,98364, Note_on_c, 0, 49, 58
2,98365, Note_on_c, 0, 58, 63
2,98379, Note_on_c, 0, 60, 0
2,98411, Note_on_c, 0, 49, 0
2,98514, Note_on_c, 0, 67, 61
2,98533, Note_on_c, 0, 63, 0
2,98569, Note_on_c, 0, 65, 0
2,98575, Note_on_c, 0, 58, 0
2,98629, Note_on_c, 0, 67, 0
2,98699, Note_on_c, 0, 68, 69
2,98712, Note_on_c, 0, 46, 53
2,98837, Note_on_c, 0, 46, 0
2,98854, Note_on_c, 0, 70, 75
2,98859, Note_on_c, 0, 68, 0
2,98964, Control_c, 0, 67, 121
2,98979, Control_c, 0, 67, 109
2,98994, Control_c, 0, 67, 99
2,99010, Control_c, 0, 67, 85
2,99025, Control_c, 0, 67, 72
2,99039, Control_c, 0, 67, 58
2,99055, Control_c, 0, 67, 46
2,99063, Note_on_c, 0, 63, 79
2,99070, Control_c, 0, 67, 38
2,99074, Note_on_c, 0, 72, 65
2,99081, Note_on_c, 0, 51, 52
2,99084, Note_on_c, 0, 70, 0
2,99086, Control_c, 0, 67, 35
2,99115, Control_c, 0, 67, 35
2,99131, Control_c, 0, 67, 36
2,99162, Control_c, 0, 67, 36
2,99163, Note_on_c, 0, 51, 0
2,99176, Control_c, 0, 67, 37
2,99191, Control_c, 0, 67, 40
2,99207, Control_c, 0, 67, 42
2,99222, Control_c, 0, 67, 42
2,99267, Control_c, 0, 67, 43
2,99283, Control_c, 0, 67, 44
2,99298, Control_c, 0, 67, 47
2,99313, Control_c, 0, 67, 51
2,99328, Control_c, 0, 67, 53
2,99343, Control_c, 0, 67, 55
2,99358, Control_c, 0, 67, 57
2,99374, Control_c, 0, 67, 58
2,99389, Control_c, 0, 67, 60
2,99405, Control_c, 0, 67, 62
2,99417, Note_on_c, 0, 48, 39
2,99419, Control_c, 0, 67, 64
2,99423, Note_on_c, 0, 56, 44
2,99434, Control_c, 0, 67, 65
2,99450, Control_c, 0, 67, 66
2,99465, Control_c, 0, 67, 69
2,99481, Control_c, 0, 67, 72
2,99495, Control_c, 0, 67, 76
2,99510, Control_c, 0, 67, 80
2,99526, Control_c, 0, 67, 85
2,99541, Control_c, 0, 67, 88
2,99556, Control_c, 0, 67, 92
2,99571, Control_c, 0, 67, 96
2,99571, Note_on_c, 0, 56, 0
2,99579, Note_on_c, 0, 55, 53
2,99586, Control_c, 0, 67, 100
2,99602, Control_c, 0, 67, 102
2,99617, Control_c, 0, 67, 104
2,99631, Control_c, 0, 67, 105
2,99649, Control_c, 0, 67, 106
2,99664, Control_c, 0, 67, 107
2,99678, Control_c, 0, 67, 108
2,99694, Control_c, 0, 67, 109
2,99709, Control_c, 0, 67, 110
2,99732, Control_c, 0, 67, 110
2,99747, Control_c, 0, 67, 111
2,99759, Note_on_c, 0, 55, 0
2,99763, Control_c, 0, 67, 112
2,99767, Note_on_c, 0, 63, 0
2,99777, Note_on_c, 0, 62, 79
2,99778, Control_c, 0, 67, 112
2,99782, Note_on_c, 0, 48, 0
2,99790, Note_on_c, 0, 53, 53
2,99793, Control_c, 0, 67, 114
2,99808, Control_c, 0, 67, 115
2,99810, Note_on_c, 0, 56, 44
2,99823, Control_c, 0, 67, 115
2,99838, Control_c, 0, 67, 116
2,99853, Note_on_c, 0, 56, 0
2,99854, Control_c, 0, 67, 118
2,99863, Note_on_c, 0, 53, 0
2,99869, Control_c, 0, 67, 120
2,99884, Control_c, 0, 67, 121
2,99899, Control_c, 0, 67, 121
2,99929, Control_c, 0, 67, 122
2,99957, Note_on_c, 0, 68, 53
2,99975, Control_c, 0, 67, 122
2,100044, Note_on_c, 0, 72, 0
2,100065, Control_c, 0, 67, 122
2,100090, Note_on_c, 0, 68, 0
2,100096, Control_c, 0, 67, 121
2,100111, Control_c, 0, 67, 121
2,100111, Note_on_c, 0, 70, 62
2,100127, Control_c, 0, 67, 120
2,100132, Note_on_c, 0, 46, 39
2,100132, Note_on_c, 0, 55, 45
2,100141, Control_c, 0, 67, 119
2,100156, Control_c, 0, 67, 119
2,100187, Control_c, 0, 67, 119
2,100203, Control_c, 0, 67, 120
2,100217, Control_c, 0, 67, 120
2,100232, Control_c, 0, 67, 121
2,100253, Note_on_c, 0, 55, 0
2,100262, Control_c, 0, 67, 122
2,100293, Control_c, 0, 67, 122
2,100293, Note_on_c, 0, 72, 48
2,100294, Note_on_c, 0, 70, 0
2,100300, Note_on_c, 0, 56, 51
2,100308, Control_c, 0, 67, 123
2,100324, Control_c, 0, 67, 123
2,100338, Control_c, 0, 67, 125
2,100353, Control_c, 0, 67, 127
2,100358, Note_on_c, 0, 72, 0
2,100358, Note_on_c, 0, 72, 3
2,100381, Note_on_c, 0, 56, 0
2,100475, Note_on_c, 0, 67, 83
2,100481, Note_on_c, 0, 73, 72
2,100498, Note_on_c, 0, 62, 0
2,100513, Note_on_c, 0, 58, 51
2,100539, Note_on_c, 0, 72, 0
2,100574, Note_on_c, 0, 46, 0
2,100645, Note_on_c, 0, 58, 0
2,100671, Note_on_c, 0, 56, 54
2,100798, Note_on_c, 0, 56, 0
2,100849, Note_on_c, 0, 55, 45
2,100860, Note_on_c, 0, 51, 50
2,100951, Note_on_c, 0, 55, 0
2,100970, Note_on_c, 0, 51, 0
2,101006, Note_on_c, 0, 49, 45
2,101009, Note_on_c, 0, 53, 46
2,101102, Note_on_c, 0, 67, 0
2,101191, Note_on_c, 0, 49, 0
2,101194, Note_on_c, 0, 68, 75
2,101196, Note_on_c, 0, 53, 0
2,101198, Note_on_c, 0, 51, 56
2,101212, Note_on_c, 0, 48, 55
2,101270, Note_on_c, 0, 51, 0
2,101310, Note_on_c, 0, 73, 0
2,101357, Note_on_c, 0, 48, 0
2,101367, Note_on_c, 0, 72, 59
2,101494, Note_on_c, 0, 72, 0
2,101542, Note_on_c, 0, 56, 53
2,101543, Note_on_c, 0, 73, 59
2,101555, Note_on_c, 0, 53, 48
2,101686, Note_on_c, 0, 73, 0
2,101708, Note_on_c, 0, 75, 52
2,101854, Note_on_c, 0, 75, 0
2,101857, Note_on_c, 0, 56, 0
2,101864, Note_on_c, 0, 53, 0
2,101875, Note_on_c, 0, 68, 0
2,101898, Note_on_c, 0, 77, 61
2,101900, Note_on_c, 0, 61, 69
2,102050, Control_c, 0, 67, 121
2,102053, Note_on_c, 0, 55, 51
2,102065, Control_c, 0, 67, 116
2,102067, Note_on_c, 0, 51, 30
2,102081, Control_c, 0, 67, 112
2,102095, Control_c, 0, 67, 109
2,102112, Control_c, 0, 67, 100
2,102128, Control_c, 0, 67, 75
2,102142, Control_c, 0, 67, 53
2,102157, Control_c, 0, 67, 38
2,102173, Control_c, 0, 67, 29
2,102187, Control_c, 0, 67, 20
2,102201, Note_on_c, 0, 55, 0
2,102203, Control_c, 0, 67, 13
2,102218, Control_c, 0, 67, 0
2,102233, Control_c, 0, 64, 63
2,102235, Note_on_c, 0, 51, 0
2,102245, Note_on_c, 0, 53, 39
2,102246, Note_on_c, 0, 56, 47
2,102249, Control_c, 0, 64, 70
2,102263, Control_c, 0, 64, 77
2,102275, Note_on_c, 0, 61, 0
2,102278, Control_c, 0, 64, 84
2,102294, Control_c, 0, 64, 87
2,102309, Control_c, 0, 64, 88
2,102325, Control_c, 0, 64, 90
2,102340, Control_c, 0, 64, 91
2,102355, Control_c, 0, 64, 92
2,102370, Control_c, 0, 64, 93
2,102385, Control_c, 0, 64, 94
2,102399, Note_on_c, 0, 53, 0
2,102401, Control_c, 0, 64, 95
2,102402, Note_on_c, 0, 58, 70
2,102404, Note_on_c, 0, 55, 52
2,102416, Control_c, 0, 64, 96
2,102431, Control_c, 0, 64, 96
2,102431, Note_on_c, 0, 56, 0
2,102447, Control_c, 0, 64, 97
2,102478, Note_on_c, 0, 55, 0
2,102481, Note_on_c, 0, 58, 0
2,102572, Note_on_c, 0, 60, 80
2,102578, Note_on_c, 0, 56, 57
2,102583, Control_c, 0, 64, 96
2,102597, Control_c, 0, 64, 91
2,102613, Control_c, 0, 64, 84
2,102628, Control_c, 0, 64, 73
2,102644, Control_c, 0, 64, 39
2,102657, Note_on_c, 0, 56, 0
2,102659, Control_c, 0, 64, 0
2,102741, Note_on_c, 0, 55, 54
2,102743, Note_on_c, 0, 77, 0
2,102746, Note_on_c, 0, 75, 62
2,102907, Note_on_c, 0, 55, 0
2,102917, Note_on_c, 0, 53, 57
2,102939, Note_on_c, 0, 77, 71
2,102962, Note_on_c, 0, 75, 0
2,103064, Note_on_c, 0, 77, 0
2,103085, Note_on_c, 0, 79, 70
2,103103, Note_on_c, 0, 51, 52
2,103118, Note_on_c, 0, 53, 0
2,103192, Note_on_c, 0, 60, 0
2,103239, Note_on_c, 0, 79, 0
2,103264, Note_on_c, 0, 80, 80
2,103266, Note_on_c, 0, 59, 77
2,103269, Note_on_c, 0, 50, 62
2,103306, Note_on_c, 0, 51, 0
2,103431, Note_on_c, 0, 53, 57
2,103609, Note_on_c, 0, 53, 0
2,103631, Note_on_c, 0, 55, 54
2,103658, Note_on_c, 0, 59, 0
2,103768, Note_on_c, 0, 55, 0
2,103775, Note_on_c, 0, 56, 73
2,103785, Control_c, 0, 67, 10
2,103799, Control_c, 0, 67, 13
2,103830, Control_c, 0, 67, 12
2,103846, Control_c, 0, 67, 12
2,103861, Control_c, 0, 67, 13
2,103861, Note_on_c, 0, 56, 0
2,103875, Control_c, 0, 67, 14
2,103922, Control_c, 0, 67, 13
2,103937, Control_c, 0, 67, 13
2,103967, Control_c, 0, 67, 14
2,103974, Note_on_c, 0, 58, 75
2,103978, Note_on_c, 0, 50, 0
2,103982, Control_c, 0, 67, 14
2,103985, Note_on_c, 0, 51, 52
2,103997, Control_c, 0, 67, 16
2,104012, Control_c, 0, 67, 20
2,104027, Control_c, 0, 67, 23
2,104043, Control_c, 0, 67, 26
2,104046, Note_on_c, 0, 51, 0
2,104058, Control_c, 0, 67, 28
2,104073, Control_c, 0, 67, 30
2,104089, Control_c, 0, 67, 32
2,104104, Control_c, 0, 67, 33
2,104119, Control_c, 0, 67, 35
2,104134, Control_c, 0, 67, 37
2,104149, Control_c, 0, 67, 39
2,104165, Control_c, 0, 67, 42
2,104180, Control_c, 0, 67, 44
2,104195, Control_c, 0, 67, 46
2,104210, Control_c, 0, 67, 47
2,104225, Control_c, 0, 67, 49
2,104241, Control_c, 0, 67, 50
2,104256, Control_c, 0, 67, 51
2,104271, Control_c, 0, 67, 53
2,104286, Control_c, 0, 67, 55
2,104295, Note_on_c, 0, 80, 0
2,104299, Note_on_c, 0, 79, 50
2,104301, Control_c, 0, 67, 58
2,104316, Control_c, 0, 67, 63
2,104325, Note_on_c, 0, 50, 47
2,104339, Control_c, 0, 67, 67
2,104354, Control_c, 0, 67, 72
2,104370, Control_c, 0, 67, 76
2,104385, Control_c, 0, 67, 80
2,104401, Control_c, 0, 67, 85
2,104407, Note_on_c, 0, 50, 0
2,104415, Control_c, 0, 67, 88
2,104420, Note_on_c, 0, 79, 0
2,104430, Control_c, 0, 67, 89
2,104446, Control_c, 0, 67, 90
2,104461, Control_c, 0, 67, 91
2,104490, Note_on_c, 0, 77, 58
2,104551, Control_c, 0, 67, 91
2,104569, Control_c, 0, 67, 92
2,104587, Note_on_c, 0, 77, 0
2,104598, Control_c, 0, 67, 92
2,104614, Control_c, 0, 67, 94
2,104629, Control_c, 0, 67, 96
2,104644, Control_c, 0, 67, 98
2,104659, Control_c, 0, 67, 99
2,104664, Note_on_c, 0, 79, 55
2,104674, Control_c, 0, 67, 100
2,104690, Control_c, 0, 67, 101
2,104692, Note_on_c, 0, 52, 34
2,104719, Control_c, 0, 67, 101
2,104735, Control_c, 0, 67, 102
2,104766, Control_c, 0, 67, 103
2,104794, Control_c, 0, 67, 103
2,104839, Note_on_c, 0, 55, 47
2,104869, Note_on_c, 0, 52, 0
2,104947, Control_c, 0, 67, 104
2,104963, Control_c, 0, 67, 104
2,105023, Control_c, 0, 67, 105
2,105033, Note_on_c, 0, 53, 43
2,105038, Control_c, 0, 67, 108
2,105038, Note_on_c, 0, 48, 38
2,105039, Note_on_c, 0, 55, 0
2,105053, Control_c, 0, 67, 111
2,105068, Control_c, 0, 67, 113
2,105084, Control_c, 0, 67, 114
2,105106, Control_c, 0, 67, 116
2,105122, Control_c, 0, 67, 118
2,105137, Control_c, 0, 67, 119
2,105152, Control_c, 0, 67, 119
2,105182, Control_c, 0, 67, 120
2,105214, Note_on_c, 0, 53, 0
2,105235, Note_on_c, 0, 52, 38
2,105442, Control_c, 0, 67, 119
2,105458, Note_on_c, 0, 56, 42
2,105462, Note_on_c, 0, 53, 35
2,105472, Note_on_c, 0, 58, 0
2,105492, Note_on_c, 0, 52, 0
2,105549, Note_on_c, 0, 48, 0
2,105630, Note_on_c, 0, 72, 59
2,105668, Note_on_c, 0, 53, 0
2,105669, Control_c, 0, 67, 119
2,105685, Control_c, 0, 67, 118
2,105700, Control_c, 0, 67, 118
2,105715, Control_c, 0, 67, 117
2,105745, Control_c, 0, 67, 117
2,105761, Control_c, 0, 67, 116
2,105776, Control_c, 0, 67, 116
2,105791, Control_c, 0, 67, 115
2,105807, Control_c, 0, 67, 114
2,105808, Note_on_c, 0, 74, 73
2,105816, Note_on_c, 0, 53, 46
2,105831, Note_on_c, 0, 79, 0
2,105852, Control_c, 0, 67, 114
2,105874, Control_c, 0, 67, 113
2,105874, Note_on_c, 0, 72, 0
2,105890, Control_c, 0, 67, 111
2,105904, Control_c, 0, 67, 109
2,105919, Control_c, 0, 67, 107
2,105935, Control_c, 0, 67, 106
2,105939, Note_on_c, 0, 53, 0
2,105950, Control_c, 0, 67, 102
2,105966, Control_c, 0, 67, 97
2,105973, Note_on_c, 0, 75, 79
2,105978, Note_on_c, 0, 74, 0
2,105981, Control_c, 0, 67, 94
2,105982, Note_on_c, 0, 51, 45
2,105996, Control_c, 0, 67, 91
2,106010, Note_on_c, 0, 56, 0
2,106012, Control_c, 0, 67, 89
2,106026, Control_c, 0, 67, 85
2,106042, Control_c, 0, 67, 77
2,106057, Control_c, 0, 67, 68
2,106072, Control_c, 0, 67, 62
2,106088, Control_c, 0, 67, 59
2,106117, Control_c, 0, 67, 58
2,106121, Note_on_c, 0, 51, 0
2,106133, Control_c, 0, 67, 58
2,106144, Note_on_c, 0, 75, 0
2,106148, Control_c, 0, 67, 56
2,106148, Note_on_c, 0, 77, 76
2,106163, Control_c, 0, 67, 53
2,106174, Note_on_c, 0, 50, 37
2,106178, Control_c, 0, 67, 51
2,106193, Control_c, 0, 67, 50
2,106210, Control_c, 0, 67, 47
2,106225, Control_c, 0, 67, 43
2,106241, Control_c, 0, 67, 36
2,106255, Control_c, 0, 67, 28
2,106270, Control_c, 0, 67, 18
2,106286, Control_c, 0, 67, 8
2,106301, Control_c, 0, 67, 0
2,106314, Note_on_c, 0, 71, 79
2,106357, Note_on_c, 0, 50, 0
2,106471, Note_on_c, 0, 71, 0
2,106472, Note_on_c, 0, 72, 80
2,106483, Note_on_c, 0, 50, 51
2,106575, Note_on_c, 0, 50, 0
2,106615, Note_on_c, 0, 72, 0
2,106625, Note_on_c, 0, 74, 76
2,106651, Note_on_c, 0, 48, 50
2,106748, Note_on_c, 0, 48, 0
2,106766, Note_on_c, 0, 74, 0
2,106813, Note_on_c, 0, 67, 69
2,106819, Note_on_c, 0, 47, 45
2,106984, Note_on_c, 0, 43, 41
2,107003, Note_on_c, 0, 47, 0
2,107139, Note_on_c, 0, 75, 74
2,107143, Note_on_c, 0, 45, 53
2,107144, Note_on_c, 0, 43, 0
2,107205, Control_c, 0, 67, 8
2,107219, Control_c, 0, 67, 10
2,107223, Note_on_c, 0, 77, 0
2,107234, Control_c, 0, 67, 12
2,107250, Control_c, 0, 67, 14
2,107265, Control_c, 0, 67, 16
2,107278, Note_on_c, 0, 45, 0
2,107279, Note_on_c, 0, 75, 0
2,107281, Control_c, 0, 67, 18
2,107289, Note_on_c, 0, 74, 81
2,107296, Control_c, 0, 67, 19
2,107297, Note_on_c, 0, 47, 53
2,107311, Control_c, 0, 67, 22
2,107326, Control_c, 0, 67, 24
2,107341, Control_c, 0, 67, 27
2,107356, Control_c, 0, 67, 30
2,107372, Control_c, 0, 67, 33
2,107384, Note_on_c, 0, 47, 0
2,107387, Control_c, 0, 67, 37
2,107410, Control_c, 0, 67, 42
2,107425, Control_c, 0, 67, 47
2,107439, Control_c, 0, 67, 52
2,107455, Control_c, 0, 67, 58
2,107468, Note_on_c, 0, 74, 0
2,107470, Control_c, 0, 67, 65
2,107481, Note_on_c, 0, 75, 76
2,107486, Control_c, 0, 67, 71
2,107491, Note_on_c, 0, 48, 45
2,107501, Control_c, 0, 67, 78
2,107515, Control_c, 0, 67, 87
2,107531, Control_c, 0, 67, 95
2,107546, Control_c, 0, 67, 102
2,107562, Control_c, 0, 67, 110
2,107577, Control_c, 0, 67, 118
2,107592, Control_c, 0, 67, 126
2,107608, Control_c, 0, 67, 127
2,107633, Note_on_c, 0, 44, 52
2,107671, Note_on_c, 0, 48, 0
2,107800, Note_on_c, 0, 67, 0
2,107805, Note_on_c, 0, 66, 63
2,107827, Note_on_c, 0, 46, 50
2,107838, Note_on_c, 0, 44, 0
2,107919, Note_on_c, 0, 46, 0
2,107956, Note_on_c, 0, 48, 50
2,108039, Note_on_c, 0, 48, 0
2,108130, Note_on_c, 0, 66, 0
2,108136, Note_on_c, 0, 65, 58
2,108153, Note_on_c, 0, 49, 45
2,108311, Note_on_c, 0, 68, 62
2,108346, Note_on_c, 0, 49, 0
2,108436, Control_c, 0, 67, 124
2,108448, Note_on_c, 0, 68, 0
2,108451, Control_c, 0, 67, 116
2,108466, Control_c, 0, 67, 107
2,108482, Control_c, 0, 67, 94
2,108483, Note_on_c, 0, 70, 72
2,108491, Note_on_c, 0, 49, 53
2,108497, Control_c, 0, 67, 79
2,108498, Note_on_c, 0, 75, 0
2,108512, Control_c, 0, 67, 66
2,108528, Control_c, 0, 67, 55
2,108543, Control_c, 0, 67, 43
2,108557, Control_c, 0, 67, 31
2,108573, Control_c, 0, 67, 19
2,108588, Control_c, 0, 67, 0
2,108605, Note_on_c, 0, 49, 0
2,108645, Note_on_c, 0, 72, 76
2,108650, Note_on_c, 0, 48, 55
2,108671, Note_on_c, 0, 70, 0
2,108818, Control_c, 0, 67, 10
2,108824, Note_on_c, 0, 73, 64
2,108830, Note_on_c, 0, 48, 0
2,108833, Control_c, 0, 67, 16
2,108834, Note_on_c, 0, 46, 48
2,108843, Note_on_c, 0, 65, 0
2,108849, Control_c, 0, 67, 23
2,108852, Note_on_c, 0, 72, 0
2,108863, Control_c, 0, 67, 34
2,108878, Control_c, 0, 67, 41
2,108894, Control_c, 0, 67, 43
2,108909, Control_c, 0, 67, 43
2,108924, Control_c, 0, 67, 44
2,108962, Control_c, 0, 67, 44
2,108977, Control_c, 0, 67, 45
2,108992, Control_c, 0, 67, 47
2,109005, Note_on_c, 0, 67, 58
2,109008, Control_c, 0, 67, 48
2,109011, Note_on_c, 0, 46, 0
2,109023, Control_c, 0, 67, 49
2,109038, Control_c, 0, 67, 50
2,109053, Control_c, 0, 67, 51
2,109068, Control_c, 0, 67, 53
2,109084, Control_c, 0, 67, 56
2,109099, Control_c, 0, 67, 59
2,109114, Control_c, 0, 67, 63
2,109129, Control_c, 0, 67, 68
2,109144, Control_c, 0, 67, 74
2,109159, Control_c, 0, 67, 83
2,109159, Note_on_c, 0, 46, 37
2,109170, Note_on_c, 0, 68, 58
2,109172, Note_on_c, 0, 67, 0
2,109175, Control_c, 0, 67, 94
2,109190, Control_c, 0, 67, 102
2,109205, Control_c, 0, 67, 108
2,109220, Control_c, 0, 67, 114
2,109235, Control_c, 0, 67, 118
2,109250, Control_c, 0, 67, 121
2,109265, Control_c, 0, 67, 122
2,109274, Note_on_c, 0, 68, 0
2,109280, Control_c, 0, 67, 122
2,109296, Control_c, 0, 67, 123
2,109316, Note_on_c, 0, 46, 0
2,109324, Note_on_c, 0, 70, 54
2,109326, Control_c, 0, 67, 123
2,109335, Note_on_c, 0, 44, 36
2,109426, Note_on_c, 0, 44, 0
2,109448, Control_c, 0, 67, 123
2,109463, Control_c, 0, 67, 122
2,109478, Control_c, 0, 67, 122
2,109494, Control_c, 0, 67, 121
2,109500, Note_on_c, 0, 63, 52
2,109507, Note_on_c, 0, 43, 41
2,109509, Control_c, 0, 67, 120
2,109515, Note_on_c, 0, 70, 0
2,109525, Control_c, 0, 67, 119
2,109540, Control_c, 0, 67, 117
2,109555, Control_c, 0, 67, 117
2,109559, Note_on_c, 0, 73, 0
2,109585, Control_c, 0, 67, 116
2,109647, Control_c, 0, 67, 117
2,109655, Note_on_c, 0, 43, 0
2,109666, Note_on_c, 0, 39, 34
2,109730, Control_c, 0, 67, 117
2,109833, Note_on_c, 0, 39, 0
2,109837, Note_on_c, 0, 72, 51
2,109850, Note_on_c, 0, 41, 43
2,109897, Control_c, 0, 67, 117
2,109912, Control_c, 0, 67, 116
2,109966, Note_on_c, 0, 41, 0
2,109988, Control_c, 0, 67, 116
2,110000, Note_on_c, 0, 72, 0
2,110008, Note_on_c, 0, 70, 57
2,110016, Note_on_c, 0, 43, 42
2,110087, Note_on_c, 0, 43, 0
2,110129, Note_on_c, 0, 70, 0
2,110153, Note_on_c, 0, 72, 56
2,110172, Note_on_c, 0, 44, 38
2,110276, Control_c, 0, 67, 115
2,110286, Note_on_c, 0, 44, 0
2,110295, Note_on_c, 0, 63, 0
2,110323, Control_c, 0, 67, 115
2,110328, Note_on_c, 0, 66, 59
2,110336, Note_on_c, 0, 41, 44
2,110384, Control_c, 0, 67, 114
2,110398, Control_c, 0, 67, 114
2,110429, Control_c, 0, 67, 113
2,110445, Control_c, 0, 67, 113
2,110460, Control_c, 0, 67, 112
2,110483, Control_c, 0, 67, 111
2,110498, Control_c, 0, 67, 111
2,110503, Note_on_c, 0, 41, 0
2,110504, Note_on_c, 0, 43, 44
2,110509, Note_on_c, 0, 65, 57
2,110513, Control_c, 0, 67, 110
2,110527, Note_on_c, 0, 66, 0
2,110529, Control_c, 0, 67, 108
2,110543, Control_c, 0, 67, 105
2,110558, Control_c, 0, 67, 102
2,110574, Control_c, 0, 67, 98
2,110589, Control_c, 0, 67, 91
2,110605, Control_c, 0, 67, 82
2,110619, Control_c, 0, 67, 73
2,110634, Control_c, 0, 67, 62
2,110650, Control_c, 0, 67, 55
2,110665, Control_c, 0, 67, 49
2,110668, Note_on_c, 0, 43, 0
2,110668, Note_on_c, 0, 65, 0
2,110671, Note_on_c, 0, 63, 62
2,110675, Note_on_c, 0, 45, 53
2,110680, Control_c, 0, 67, 44
2,110695, Control_c, 0, 67, 38
2,110710, Control_c, 0, 67, 31
2,110726, Control_c, 0, 67, 23
2,110741, Control_c, 0, 67, 14
2,110756, Control_c, 0, 67, 9
2,110772, Control_c, 0, 67, 0
2,110803, Note_on_c, 0, 45, 0
2,110847, Note_on_c, 0, 46, 47
2,110854, Note_on_c, 0, 61, 63
2,110854, Note_on_c, 0, 63, 0
2,110996, Note_on_c, 0, 46, 0
2,111006, Note_on_c, 0, 45, 43
2,111178, Note_on_c, 0, 65, 66
2,111184, Note_on_c, 0, 45, 0
2,111184, Note_on_c, 0, 46, 40
2,111222, Note_on_c, 0, 72, 0
2,111331, Note_on_c, 0, 46, 0
2,111358, Note_on_c, 0, 48, 50
2,111496, Note_on_c, 0, 48, 0
2,111527, Note_on_c, 0, 49, 46
2,111527, Note_on_c, 0, 70, 70
2,111569, Note_on_c, 0, 65, 0
2,111687, Note_on_c, 0, 46, 60
2,111752, Note_on_c, 0, 49, 0
2,111854, Note_on_c, 0, 68, 75
2,111856, Note_on_c, 0, 48, 58
2,111873, Note_on_c, 0, 46, 0
2,111892, Note_on_c, 0, 70, 0
2,111964, Note_on_c, 0, 48, 0
2,111999, Note_on_c, 0, 49, 62
2,112128, Note_on_c, 0, 49, 0
2,112190, Note_on_c, 0, 67, 68
2,112196, Note_on_c, 0, 51, 52
2,112196, Note_on_c, 0, 61, 0
2,112230, Note_on_c, 0, 68, 0
2,112348, Note_on_c, 0, 58, 66
2,112373, Note_on_c, 0, 51, 0
2,112513, Note_on_c, 0, 60, 73
2,112525, Note_on_c, 0, 51, 52
2,112527, Note_on_c, 0, 58, 0
2,112655, Note_on_c, 0, 51, 0
2,112669, Note_on_c, 0, 61, 75
2,112670, Note_on_c, 0, 49, 54
2,112682, Note_on_c, 0, 60, 0
2,112758, Note_on_c, 0, 67, 0
2,112822, Note_on_c, 0, 61, 0
2,112853, Note_on_c, 0, 48, 59
2,112853, Note_on_c, 0, 49, 0
2,112853, Note_on_c, 0, 63, 79
2,113010, Note_on_c, 0, 67, 74
2,113070, Note_on_c, 0, 48, 0
2,113183, Note_on_c, 0, 68, 83
2,113199, Note_on_c, 0, 48, 68
2,113278, Note_on_c, 0, 67, 0
2,113328, Note_on_c, 0, 48, 0
2,113344, Note_on_c, 0, 70, 81
2,113351, Note_on_c, 0, 68, 0
2,113355, Note_on_c, 0, 46, 60
2,113416, Note_on_c, 0, 63, 0
2,113483, Note_on_c, 0, 46, 0
2,113526, Note_on_c, 0, 44, 58
2,113528, Note_on_c, 0, 72, 73
2,113559, Note_on_c, 0, 70, 0
2,113719, Note_on_c, 0, 63, 70
2,113760, Note_on_c, 0, 44, 0
2,113884, Note_on_c, 0, 63, 0
2,113884, Note_on_c, 0, 65, 75
2,113887, Note_on_c, 0, 56, 63
2,113995, Note_on_c, 0, 56, 0
2,114049, Note_on_c, 0, 55, 68
2,114053, Note_on_c, 0, 67, 76
2,114063, Note_on_c, 0, 65, 0
2,114083, Note_on_c, 0, 72, 0
2,114162, Note_on_c, 0, 67, 0
2,114206, Note_on_c, 0, 55, 0
2,114214, Note_on_c, 0, 53, 73
2,114220, Note_on_c, 0, 68, 72
2,114389, Note_on_c, 0, 72, 79
2,114450, Note_on_c, 0, 53, 0
2,114576, Note_on_c, 0, 53, 72
2,114577, Note_on_c, 0, 74, 77
2,114603, Note_on_c, 0, 72, 0
2,114720, Note_on_c, 0, 53, 0
2,114731, Note_on_c, 0, 51, 73
2,114734, Note_on_c, 0, 75, 78
2,114850, Note_on_c, 0, 51, 0
2,114871, Note_on_c, 0, 74, 0
2,114905, Note_on_c, 0, 77, 77
2,114917, Note_on_c, 0, 50, 63
2,114941, Note_on_c, 0, 75, 0
2,115004, Note_on_c, 0, 68, 0
2,115094, Note_on_c, 0, 72, 65
2,115260, Note_on_c, 0, 72, 0
2,115272, Note_on_c, 0, 70, 60
2,115393, Note_on_c, 0, 70, 0
2,115434, Note_on_c, 0, 50, 0
2,115436, Note_on_c, 0, 68, 60
2,115636, Note_on_c, 0, 68, 0
2,115649, Note_on_c, 0, 67, 64
2,115665, Note_on_c, 0, 58, 79
2,115673, Note_on_c, 0, 51, 56
2,115777, Note_on_c, 0, 51, 0
2,115827, Note_on_c, 0, 70, 52
2,116006, Note_on_c, 0, 70, 0
2,116017, Note_on_c, 0, 67, 0
2,116028, Note_on_c, 0, 75, 56
2,116038, Note_on_c, 0, 55, 51
2,116118, Note_on_c, 0, 77, 0
2,116120, Note_on_c, 0, 55, 0
2,116180, Note_on_c, 0, 67, 59
2,116207, Note_on_c, 0, 75, 0
2,116278, Note_on_c, 0, 67, 0
2,116355, Note_on_c, 0, 65, 63
2,116356, Note_on_c, 0, 60, 77
2,116364, Note_on_c, 0, 56, 56
2,116397, Note_on_c, 0, 58, 0
2,116444, Note_on_c, 0, 56, 0
2,116494, Note_on_c, 0, 65, 0
2,116547, Note_on_c, 0, 75, 58
2,116738, Note_on_c, 0, 74, 60
2,116746, Note_on_c, 0, 53, 52
2,116769, Note_on_c, 0, 75, 0
2,116835, Note_on_c, 0, 53, 0
2,116902, Note_on_c, 0, 72, 62
2,116903, Note_on_c, 0, 74, 0
2,117085, Note_on_c, 0, 58, 67
2,117086, Note_on_c, 0, 74, 58
2,117092, Note_on_c, 0, 72, 0
2,117124, Note_on_c, 0, 60, 0
2,117253, Note_on_c, 0, 75, 58
2,117262, Note_on_c, 0, 74, 0
2,117427, Note_on_c, 0, 75, 0
2,117440, Note_on_c, 0, 46, 50
2,117442, Note_on_c, 0, 72, 55
2,117536, Note_on_c, 0, 46, 0
2,117594, Note_on_c, 0, 74, 55
2,117608, Note_on_c, 0, 72, 0
2,117789, Note_on_c, 0, 57, 60
2,117794, Note_on_c, 0, 75, 53
2,117808, Note_on_c, 0, 48, 47
2,117821, Note_on_c, 0, 74, 0
2,117838, Note_on_c, 0, 58, 0
2,117899, Note_on_c, 0, 48, 0
2,117940, Note_on_c, 0, 75, 0
2,117956, Note_on_c, 0, 72, 53
2,118125, Note_on_c, 0, 60, 48
2,118126, Note_on_c, 0, 74, 61
2,118210, Note_on_c, 0, 72, 0
2,118270, Note_on_c, 0, 74, 0
2,118289, Note_on_c, 0, 75, 68
2,118291, Note_on_c, 0, 58, 59
2,118302, Note_on_c, 0, 57, 0
2,118315, Note_on_c, 0, 60, 0
2,118466, Note_on_c, 0, 77, 73
2,118468, Note_on_c, 0, 58, 0
2,118476, Note_on_c, 0, 56, 56
2,118477, Note_on_c, 0, 62, 75
2,118495, Note_on_c, 0, 75, 0
2,118632, Note_on_c, 0, 56, 0
2,118657, Note_on_c, 0, 75, 59
2,118724, Note_on_c, 0, 77, 0
2,118816, Note_on_c, 0, 74, 59
2,118847, Note_on_c, 0, 58, 49
2,118876, Note_on_c, 0, 75, 0
2,118953, Note_on_c, 0, 74, 0
2,118955, Note_on_c, 0, 58, 0
2,118985, Note_on_c, 0, 56, 53
2,118985, Note_on_c, 0, 72, 62
2,119056, Note_on_c, 0, 62, 0
2,119123, Note_on_c, 0, 72, 0
2,119147, Note_on_c, 0, 56, 0
2,119162, Note_on_c, 0, 70, 68
2,119170, Note_on_c, 0, 55, 47
2,119173, Control_c, 0, 64, 44
2,119176, Note_on_c, 0, 63, 66
2,119188, Control_c, 0, 64, 62
2,119204, Control_c, 0, 64, 65
2,119219, Control_c, 0, 64, 68
2,119233, Control_c, 0, 64, 72
2,119249, Control_c, 0, 64, 77
2,119264, Control_c, 0, 64, 82
2,119279, Control_c, 0, 64, 84
2,119294, Control_c, 0, 64, 85
2,119294, Note_on_c, 0, 63, 0
2,119310, Control_c, 0, 64, 86
2,119317, Note_on_c, 0, 55, 0
2,119326, Control_c, 0, 64, 88
2,119335, Note_on_c, 0, 60, 63
2,119341, Control_c, 0, 64, 88
2,119509, Note_on_c, 0, 62, 74
2,119527, Note_on_c, 0, 46, 42
2,119538, Control_c, 0, 64, 88
2,119551, Control_c, 0, 64, 87
2,119566, Control_c, 0, 64, 85
2,119582, Control_c, 0, 64, 82
2,119593, Note_on_c, 0, 70, 0
2,119596, Control_c, 0, 64, 77
2,119612, Control_c, 0, 64, 71
2,119623, Note_on_c, 0, 60, 0
2,119627, Control_c, 0, 64, 61
2,119642, Control_c, 0, 64, 0
2,119666, Note_on_c, 0, 48, 54
2,119672, Note_on_c, 0, 63, 78
2,119680, Note_on_c, 0, 46, 0
2,119731, Note_on_c, 0, 62, 0
2,119843, Note_on_c, 0, 48, 0
2,119869, Note_on_c, 0, 56, 59
2,119871, Note_on_c, 0, 65, 73
2,119877, Note_on_c, 0, 50, 47
2,119905, Note_on_c, 0, 63, 0
2,120032, Note_on_c, 0, 63, 74
2,120064, Note_on_c, 0, 65, 0
2,120207, Note_on_c, 0, 50, 0
2,120214, Note_on_c, 0, 62, 69
2,120223, Note_on_c, 0, 48, 43
2,120238, Note_on_c, 0, 63, 0
2,120364, Note_on_c, 0, 62, 0
2,120374, Note_on_c, 0, 50, 45
2,120374, Note_on_c, 0, 60, 66
2,120395, Note_on_c, 0, 48, 0
2,120470, Note_on_c, 0, 56, 0
2,120541, Note_on_c, 0, 50, 0
2,120565, Note_on_c, 0, 58, 59
2,120566, Note_on_c, 0, 60, 0
2,120573, Note_on_c, 0, 55, 50
2,120579, Note_on_c, 0, 51, 40
2,120739, Note_on_c, 0, 68, 62
2,120781, Note_on_c, 0, 51, 0
2,120876, Note_on_c, 0, 68, 0
2,120904, Note_on_c, 0, 67, 60
2,120905, Note_on_c, 0, 51, 48
2,121060, Note_on_c, 0, 51, 0
2,121074, Note_on_c, 0, 65, 58
2,121085, Note_on_c, 0, 50, 47
2,121268, Note_on_c, 0, 67, 0
2,121278, Note_on_c, 0, 65, 0
2,121280, Note_on_c, 0, 48, 37
2,121283, Note_on_c, 0, 63, 51
2,121293, Note_on_c, 0, 55, 0
2,121295, Note_on_c, 0, 54, 49
2,121315, Note_on_c, 0, 50, 0
2,121341, Note_on_c, 0, 58, 0
2,121406, Note_on_c, 0, 48, 0
2,121661, Note_on_c, 0, 57, 46
2,121672, Note_on_c, 0, 48, 32
2,121788, Note_on_c, 0, 57, 0
2,121819, Note_on_c, 0, 58, 46
2,121833, Note_on_c, 0, 48, 0
2,121842, Note_on_c, 0, 46, 30
2,122004, Note_on_c, 0, 58, 0
2,122012, Note_on_c, 0, 60, 52
2,122014, Note_on_c, 0, 46, 0
2,122019, Note_on_c, 0, 53, 45
2,122023, Note_on_c, 0, 63, 0
2,122050, Note_on_c, 0, 45, 41
2,122069, Note_on_c, 0, 54, 0
2,122191, Note_on_c, 0, 63, 60
2,122302, Note_on_c, 0, 60, 0
2,122357, Note_on_c, 0, 63, 0
2,122363, Note_on_c, 0, 65, 66
2,122516, Note_on_c, 0, 63, 70
2,122530, Note_on_c, 0, 65, 0
2,122702, Note_on_c, 0, 63, 0
2,122705, Note_on_c, 0, 62, 70
2,122724, Note_on_c, 0, 46, 40
2,122751, Note_on_c, 0, 45, 0
2,122883, Note_on_c, 0, 62, 0
2,122892, Note_on_c, 0, 72, 65
2,123085, Note_on_c, 0, 70, 53
2,123108, Note_on_c, 0, 72, 0
2,123240, Note_on_c, 0, 70, 0
2,123242, Note_on_c, 0, 68, 52
2,123438, Note_on_c, 0, 68, 0
2,123466, Note_on_c, 0, 67, 48
2,123486, Note_on_c, 0, 51, 27
2,123500, Note_on_c, 0, 46, 0
2,123547, Note_on_c, 0, 53, 0
2,123650, Note_on_c, 0, 67, 0
2,123725, Note_on_c, 0, 51, 0
2,123889, Note_on_c, 0, 70, 48
2,123904, Note_on_c, 0, 63, 36
2,123957, Note_on_c, 0, 63, 0
2,124061, Note_on_c, 0, 65, 47
2,124122, Note_on_c, 0, 65, 0
2,124251, Note_on_c, 0, 75, 50
2,124269, Note_on_c, 0, 67, 37
2,124325, Note_on_c, 0, 70, 0
2,124414, Note_on_c, 0, 67, 0
2,124611, Note_on_c, 0, 67, 45
2,124633, Note_on_c, 0, 51, 39
2,124733, Note_on_c, 0, 51, 0
2,124762, Note_on_c, 0, 67, 0
2,124776, Note_on_c, 0, 68, 57
2,124796, Note_on_c, 0, 53, 42
2,124885, Note_on_c, 0, 53, 0
2,124898, Note_on_c, 0, 68, 0
2,124917, Note_on_c, 0, 75, 0
2,124929, Note_on_c, 0, 70, 63
2,124962, Note_on_c, 0, 55, 53
2,125058, Note_on_c, 0, 55, 0
2,125129, Note_on_c, 0, 79, 73
2,125297, Note_on_c, 0, 55, 48
2,125301, Note_on_c, 0, 77, 76
2,125313, Note_on_c, 0, 79, 0
2,125316, Note_on_c, 0, 58, 44
2,125428, Note_on_c, 0, 55, 0
2,125445, Note_on_c, 0, 75, 80
2,125462, Note_on_c, 0, 58, 0
2,125466, Note_on_c, 0, 60, 60
2,125476, Note_on_c, 0, 56, 48
2,125486, Note_on_c, 0, 77, 0
2,125512, Note_on_c, 0, 70, 0
2,125545, Note_on_c, 0, 60, 0
2,125569, Note_on_c, 0, 56, 0
2,125624, Note_on_c, 0, 74, 73
2,125634, Note_on_c, 0, 58, 30
2,125642, Note_on_c, 0, 62, 60
2,125653, Note_on_c, 0, 75, 0
2,125677, Note_on_c, 0, 58, 0
2,125703, Note_on_c, 0, 62, 0
2,125809, Note_on_c, 0, 68, 55
2,125811, Note_on_c, 0, 60, 36
2,125849, Note_on_c, 0, 60, 0
2,125952, Note_on_c, 0, 74, 0
2,125970, Note_on_c, 0, 46, 51
2,125977, Note_on_c, 0, 68, 0
2,125988, Note_on_c, 0, 58, 44
2,125997, Note_on_c, 0, 67, 54
2,126063, Note_on_c, 0, 46, 0
2,126083, Note_on_c, 0, 58, 0
2,126143, Note_on_c, 0, 65, 59
2,126144, Note_on_c, 0, 56, 45
2,126180, Note_on_c, 0, 67, 0
2,126207, Note_on_c, 0, 56, 0
2,126316, Note_on_c, 0, 55, 38
2,126323, Note_on_c, 0, 63, 55
2,126326, Note_on_c, 0, 48, 30
2,126338, Note_on_c, 0, 65, 0
2,126485, Note_on_c, 0, 62, 58
2,126519, Note_on_c, 0, 63, 0
2,126533, Note_on_c, 0, 48, 0
2,126553, Note_on_c, 0, 55, 0
2,126650, Note_on_c, 0, 62, 0
2,126660, Note_on_c, 0, 67, 57
2,126683, Note_on_c, 0, 60, 37
2,126726, Note_on_c, 0, 60, 0
2,126834, Note_on_c, 0, 62, 47
2,126866, Note_on_c, 0, 67, 0
2,126977, Note_on_c, 0, 62, 0
2,127032, Note_on_c, 0, 72, 53
2,127035, Note_on_c, 0, 63, 41
2,127127, Note_on_c, 0, 63, 0
2,127388, Note_on_c, 0, 48, 38
2,127399, Note_on_c, 0, 63, 35
2,127503, Note_on_c, 0, 63, 0
2,127508, Note_on_c, 0, 48, 0
2,127541, Note_on_c, 0, 65, 45
2,127558, Note_on_c, 0, 50, 34
2,127692, Note_on_c, 0, 65, 0
2,127714, Note_on_c, 0, 67, 53
2,127717, Note_on_c, 0, 50, 0
2,127721, Note_on_c, 0, 72, 0
2,127730, Note_on_c, 0, 51, 42
2,127853, Note_on_c, 0, 51, 0
2,127890, Note_on_c, 0, 75, 55
2,128041, Note_on_c, 0, 75, 0
2,128066, Note_on_c, 0, 74, 51
2,128074, Note_on_c, 0, 51, 30
2,128076, Note_on_c, 0, 55, 40
2,128158, Note_on_c, 0, 51, 0
2,128231, Note_on_c, 0, 74, 0
2,128237, Note_on_c, 0, 72, 59
2,128246, Note_on_c, 0, 55, 0
2,128265, Note_on_c, 0, 53, 38
2,128267, Note_on_c, 0, 56, 48
2,128286, Note_on_c, 0, 67, 0
2,128322, Note_on_c, 0, 56, 0
2,128371, Note_on_c, 0, 53, 0
2,128405, Note_on_c, 0, 72, 0
2,128408, Note_on_c, 0, 70, 68
2,128417, Note_on_c, 0, 55, 42
2,128430, Note_on_c, 0, 58, 55
2,128493, Note_on_c, 0, 58, 0
2,128528, Note_on_c, 0, 55, 0
2,128572, Note_on_c, 0, 56, 70
2,128692, Note_on_c, 0, 56, 0
2,128751, Note_on_c, 0, 55, 60
2,128769, Note_on_c, 0, 43, 38
2,128888, Note_on_c, 0, 55, 0
2,128919, Note_on_c, 0, 53, 61
2,128931, Note_on_c, 0, 43, 0
2,129113, Note_on_c, 0, 60, 57
2,129127, Note_on_c, 0, 53, 0
2,129139, Note_on_c, 0, 44, 33
2,129151, Note_on_c, 0, 51, 38
2,129254, Note_on_c, 0, 70, 0
2,129284, Note_on_c, 0, 58, 66
2,129296, Note_on_c, 0, 44, 0
2,129299, Note_on_c, 0, 60, 0
2,129315, Note_on_c, 0, 51, 0
2,129457, Note_on_c, 0, 58, 0
2,129469, Note_on_c, 0, 63, 79
2,129492, Note_on_c, 0, 56, 43
2,129567, Note_on_c, 0, 56, 0
2,129567, Note_on_c, 0, 56, 17
2,129642, Note_on_c, 0, 58, 56
2,129679, Note_on_c, 0, 56, 0
2,129830, Note_on_c, 0, 68, 84
2,129848, Note_on_c, 0, 58, 0
2,129858, Note_on_c, 0, 60, 55
2,129878, Note_on_c, 0, 63, 0
2,129923, Note_on_c, 0, 60, 0
2,130193, Note_on_c, 0, 60, 54
2,130209, Note_on_c, 0, 44, 45
2,130327, Note_on_c, 0, 60, 0
2,130352, Note_on_c, 0, 62, 65
2,130363, Note_on_c, 0, 44, 0
2,130363, Note_on_c, 0, 46, 56
2,130469, Note_on_c, 0, 46, 0
2,130510, Note_on_c, 0, 62, 0
2,130519, Note_on_c, 0, 48, 66
2,130522, Note_on_c, 0, 63, 63
2,130524, Note_on_c, 0, 68, 0
2,130644, Note_on_c, 0, 48, 0
2,130679, Note_on_c, 0, 72, 75
2,130844, Note_on_c, 0, 51, 53
2,130848, Note_on_c, 0, 70, 75
2,130851, Note_on_c, 0, 48, 56
2,130918, Note_on_c, 0, 72, 0
2,130932, Control_c, 0, 64, 53
2,130948, Control_c, 0, 64, 65
2,130962, Control_c, 0, 64, 69
2,130967, Note_on_c, 0, 48, 0
2,130978, Control_c, 0, 64, 73
2,130993, Control_c, 0, 64, 77
2,131003, Note_on_c, 0, 68, 81
2,131007, Note_on_c, 0, 53, 62
2,131008, Control_c, 0, 64, 82
2,131022, Note_on_c, 0, 70, 0
2,131024, Control_c, 0, 64, 87
2,131038, Control_c, 0, 64, 89
2,131038, Note_on_c, 0, 50, 27
2,131052, Note_on_c, 0, 51, 0
2,131065, Note_on_c, 0, 68, 0
2,131079, Note_on_c, 0, 63, 0
2,131085, Note_on_c, 0, 53, 0
2,131100, Control_c, 0, 64, 89
2,131114, Control_c, 0, 64, 87
2,131129, Control_c, 0, 64, 84
2,131143, Note_on_c, 0, 50, 0
2,131145, Control_c, 0, 64, 77
2,131160, Control_c, 0, 64, 68
2,131161, Note_on_c, 0, 51, 26
2,131163, Note_on_c, 0, 67, 74
2,131174, Control_c, 0, 64, 0
2,131185, Note_on_c, 0, 63, 66
2,131192, Note_on_c, 0, 55, 60
2,131247, Note_on_c, 0, 55, 0
2,131307, Note_on_c, 0, 51, 0
2,131347, Note_on_c, 0, 63, 0
2,131350, Note_on_c, 0, 62, 67
2,131354, Note_on_c, 0, 53, 57
2,131400, Note_on_c, 0, 53, 0
2,131503, Note_on_c, 0, 62, 0
2,131511, Note_on_c, 0, 60, 68
2,131527, Note_on_c, 0, 51, 55
2,131563, Note_on_c, 0, 39, 22
2,131630, Note_on_c, 0, 51, 0
2,131646, Note_on_c, 0, 60, 0
2,131652, Note_on_c, 0, 39, 0
2,131673, Note_on_c, 0, 50, 56
2,131674, Note_on_c, 0, 58, 57
2,131784, Note_on_c, 0, 50, 0
2,131820, Note_on_c, 0, 58, 0
2,131826, Note_on_c, 0, 67, 0
2,131846, Note_on_c, 0, 56, 64
2,131853, Note_on_c, 0, 48, 50
2,131869, Note_on_c, 0, 41, 45
2,131941, Note_on_c, 0, 41, 0
2,132024, Note_on_c, 0, 65, 70
2,132147, Note_on_c, 0, 48, 0
2,132193, Note_on_c, 0, 68, 78
2,132203, Note_on_c, 0, 47, 45
2,132213, Note_on_c, 0, 43, 48
2,132214, Note_on_c, 0, 50, 51
2,132318, Note_on_c, 0, 56, 0
2,132320, Note_on_c, 0, 65, 0
2,132358, Note_on_c, 0, 67, 82
2,132362, Note_on_c, 0, 50, 0
2,132366, Note_on_c, 0, 47, 0
2,132369, Note_on_c, 0, 51, 63
2,132372, Note_on_c, 0, 43, 0
2,132391, Note_on_c, 0, 68, 0
2,132520, Note_on_c, 0, 51, 0
2,132538, Note_on_c, 0, 65, 82
2,132540, Note_on_c, 0, 48, 54
2,132551, Note_on_c, 0, 53, 67
2,132560, Note_on_c, 0, 44, 55
2,132580, Note_on_c, 0, 67, 0
2,132710, Note_on_c, 0, 63, 86
2,132715, Note_on_c, 0, 48, 0
2,132731, Note_on_c, 0, 53, 0
2,132757, Note_on_c, 0, 65, 0
2,132768, Note_on_c, 0, 44, 0
2,132893, Note_on_c, 0, 62, 87
2,132905, Note_on_c, 0, 48, 48
2,132906, Note_on_c, 0, 45, 53
2,132911, Note_on_c, 0, 54, 62
2,132927, Note_on_c, 0, 63, 0
2,133065, Note_on_c, 0, 60, 81
2,133094, Note_on_c, 0, 45, 0
2,133096, Note_on_c, 0, 54, 0
2,133119, Note_on_c, 0, 62, 0
2,133147, Note_on_c, 0, 48, 0
2,133280, Note_on_c, 0, 60, 0
2,133283, Note_on_c, 0, 59, 71
2,133311, Note_on_c, 0, 43, 42
2,133314, Note_on_c, 0, 55, 47
2,133318, Note_on_c, 0, 50, 42
2,133401, Note_on_c, 0, 50, 0
2,133409, Note_on_c, 0, 43, 0
2,133440, Note_on_c, 0, 55, 0
2,133673, Note_on_c, 0, 59, 0
2,133698, Note_on_c, 0, 55, 73
2,133802, Note_on_c, 0, 55, 0
2,133863, Note_on_c, 0, 57, 75
2,133976, Note_on_c, 0, 57, 0
2,134073, Note_on_c, 0, 79, 83
2,134084, Note_on_c, 0, 59, 55
2,134442, Note_on_c, 0, 57, 51
2,134443, Note_on_c, 0, 59, 0
2,134549, Note_on_c, 0, 57, 0
2,134593, Note_on_c, 0, 59, 51
2,134677, Note_on_c, 0, 59, 0
2,134763, Note_on_c, 0, 80, 83
2,134781, Note_on_c, 0, 60, 50
2,134822, Note_on_c, 0, 79, 0
2,134837, Note_on_c, 0, 60, 0
2,134932, Note_on_c, 0, 59, 50
2,135026, Note_on_c, 0, 59, 0
2,135116, Note_on_c, 0, 72, 58
2,135131, Note_on_c, 0, 60, 45
2,135205, Note_on_c, 0, 60, 0
2,135287, Note_on_c, 0, 62, 45
2,135366, Note_on_c, 0, 62, 0
2,135480, Note_on_c, 0, 79, 76
2,135496, Note_on_c, 0, 63, 50
2,135519, Note_on_c, 0, 80, 0
2,135846, Note_on_c, 0, 70, 62
2,135888, Note_on_c, 0, 72, 0
2,136119, Note_on_c, 0, 70, 0
2,136198, Note_on_c, 0, 78, 71
2,136221, Note_on_c, 0, 69, 32
2,136245, Note_on_c, 0, 63, 0
2,136246, Note_on_c, 0, 79, 0
2,136388, Note_on_c, 0, 60, 47
2,136441, Note_on_c, 0, 60, 0
2,136538, Note_on_c, 0, 70, 60
2,136540, Note_on_c, 0, 62, 57
2,136571, Note_on_c, 0, 69, 0
2,136594, Note_on_c, 0, 62, 0
2,136639, Note_on_c, 0, 70, 0
2,136704, Note_on_c, 0, 63, 60
2,136720, Note_on_c, 0, 72, 59
2,136767, Note_on_c, 0, 63, 0
2,136840, Note_on_c, 0, 72, 0
2,136877, Note_on_c, 0, 83, 80
2,136897, Note_on_c, 0, 74, 57
2,136916, Note_on_c, 0, 78, 0
2,136917, Note_on_c, 0, 65, 44
2,137035, Note_on_c, 0, 74, 0
2,137079, Note_on_c, 0, 72, 53
2,137218, Note_on_c, 0, 72, 0
2,137243, Note_on_c, 0, 70, 51
2,137271, Note_on_c, 0, 71, 57
2,137320, Note_on_c, 0, 71, 0
2,137320, Note_on_c, 0, 71, 10
2,137323, Note_on_c, 0, 83, 0
2,137325, Note_on_c, 0, 70, 0
2,137393, Note_on_c, 0, 71, 0
2,137408, Note_on_c, 0, 69, 67
2,137520, Note_on_c, 0, 69, 0
2,137580, Note_on_c, 0, 84, 81
2,137595, Note_on_c, 0, 67, 57
2,137598, Note_on_c, 0, 65, 0
2,137670, Note_on_c, 0, 67, 0
2,137766, Note_on_c, 0, 63, 53
2,137826, Note_on_c, 0, 63, 0
2,137923, Note_on_c, 0, 65, 54
2,137973, Note_on_c, 0, 65, 0
2,138058, Note_on_c, 0, 84, 0
2,138088, Note_on_c, 0, 67, 60
2,138143, Note_on_c, 0, 67, 0
2,138251, Note_on_c, 0, 77, 79
2,138287, Note_on_c, 0, 68, 51
2,138375, Note_on_c, 0, 68, 0
2,138375, Note_on_c, 0, 68, 4
2,138442, Note_on_c, 0, 55, 45
2,138498, Note_on_c, 0, 55, 0
2,138592, Note_on_c, 0, 56, 56
2,138641, Note_on_c, 0, 56, 0
2,138752, Note_on_c, 0, 58, 54
2,138803, Note_on_c, 0, 58, 0
2,138939, Note_on_c, 0, 76, 64
2,138945, Note_on_c, 0, 60, 45
2,138975, Note_on_c, 0, 77, 0
2,138978, Note_on_c, 0, 68, 0
2,139094, Note_on_c, 0, 67, 57
2,139170, Note_on_c, 0, 67, 0
2,139219, Note_on_c, 0, 76, 0
2,139262, Note_on_c, 0, 69, 55
2,139364, Note_on_c, 0, 69, 0
2,139426, Note_on_c, 0, 71, 61
2,139518, Note_on_c, 0, 71, 0
2,139603, Note_on_c, 0, 75, 64
2,139607, Note_on_c, 0, 60, 0
2,139617, Note_on_c, 0, 72, 49
2,139782, Note_on_c, 0, 60, 47
2,139851, Note_on_c, 0, 60, 0
2,139945, Note_on_c, 0, 62, 54
2,139992, Note_on_c, 0, 62, 0
2,140117, Note_on_c, 0, 63, 51
2,140160, Note_on_c, 0, 63, 0
2,140295, Note_on_c, 0, 74, 53
2,140322, Note_on_c, 0, 65, 30
2,140323, Note_on_c, 0, 75, 0
2,140377, Note_on_c, 0, 65, 0
2,140484, Note_on_c, 0, 62, 40
2,140547, Note_on_c, 0, 62, 0
2,140619, Note_on_c, 0, 72, 0
2,140637, Note_on_c, 0, 63, 51
2,140640, Note_on_c, 0, 71, 49
2,140686, Note_on_c, 0, 63, 0
2,140714, Note_on_c, 0, 71, 0
2,140778, Note_on_c, 0, 69, 61
2,140793, Note_on_c, 0, 65, 57
2,140853, Note_on_c, 0, 65, 0
2,140854, Note_on_c, 0, 69, 0
2,140958, Note_on_c, 0, 67, 54
2,140958, Note_on_c, 0, 71, 63
2,141091, Note_on_c, 0, 67, 0
2,141102, Note_on_c, 0, 68, 64
2,141108, Note_on_c, 0, 72, 72
2,141109, Note_on_c, 0, 71, 0
2,141133, Note_on_c, 0, 74, 0
2,141174, Note_on_c, 0, 68, 0
2,141194, Note_on_c, 0, 72, 0
2,141274, Note_on_c, 0, 67, 61
2,141279, Note_on_c, 0, 71, 71
2,141329, Note_on_c, 0, 67, 0
2,141372, Note_on_c, 0, 71, 0
2,141433, Note_on_c, 0, 74, 77
2,141435, Note_on_c, 0, 65, 55
2,141505, Note_on_c, 0, 65, 0
2,141518, Note_on_c, 0, 74, 0
2,141603, Note_on_c, 0, 67, 76
2,141626, Note_on_c, 0, 63, 48
2,141748, Note_on_c, 0, 63, 0
2,141780, Note_on_c, 0, 65, 56
2,141885, Note_on_c, 0, 65, 0
2,141930, Note_on_c, 0, 63, 57
2,141931, Note_on_c, 0, 72, 78
2,142015, Note_on_c, 0, 63, 0
2,142041, Note_on_c, 0, 72, 0
2,142104, Note_on_c, 0, 74, 80
2,142117, Note_on_c, 0, 62, 39
2,142193, Note_on_c, 0, 67, 0
2,142207, Note_on_c, 0, 74, 0
2,142254, Note_on_c, 0, 62, 0
2,142290, Note_on_c, 0, 75, 74
2,142317, Note_on_c, 0, 60, 51
2,142500, Note_on_c, 0, 60, 0
2,142630, Note_on_c, 0, 67, 68
2,142637, Note_on_c, 0, 60, 44
2,142700, Note_on_c, 0, 60, 0
2,142719, Note_on_c, 0, 67, 0
2,142791, Note_on_c, 0, 58, 48
2,142861, Note_on_c, 0, 58, 0
2,142964, Note_on_c, 0, 60, 51
2,142970, Note_on_c, 0, 57, 43
2,143112, Note_on_c, 0, 57, 0
2,143294, Note_on_c, 0, 57, 44
2,143299, Note_on_c, 0, 72, 63
2,143355, Note_on_c, 0, 57, 0
2,143388, Note_on_c, 0, 72, 0
2,143453, Note_on_c, 0, 70, 58
2,143468, Note_on_c, 0, 55, 42
2,143520, Note_on_c, 0, 55, 0
2,143532, Note_on_c, 0, 70, 0
2,143634, Note_on_c, 0, 69, 56
2,143646, Note_on_c, 0, 53, 46
2,143958, Note_on_c, 0, 53, 0
2,143958, Note_on_c, 0, 70, 52
2,143966, Note_on_c, 0, 69, 0
2,143979, Note_on_c, 0, 55, 38
2,144040, Note_on_c, 0, 55, 0
2,144063, Note_on_c, 0, 70, 0
2,144112, Note_on_c, 0, 72, 63
2,144128, Note_on_c, 0, 57, 35
2,144171, Note_on_c, 0, 57, 0
2,144202, Note_on_c, 0, 72, 0
2,144271, Note_on_c, 0, 75, 0
2,144309, Note_on_c, 0, 65, 49
2,144315, Note_on_c, 0, 60, 0
2,144322, Note_on_c, 0, 58, 36
2,144548, Note_on_c, 0, 65, 0
2,144626, Note_on_c, 0, 74, 56
2,144639, Note_on_c, 0, 65, 41
2,144642, Note_on_c, 0, 70, 46
2,144653, Note_on_c, 0, 58, 0
2,144680, Note_on_c, 0, 70, 0
2,144701, Note_on_c, 0, 65, 0
2,144716, Note_on_c, 0, 74, 0
2,144795, Note_on_c, 0, 75, 58
2,144824, Note_on_c, 0, 63, 28
2,144869, Note_on_c, 0, 63, 0
2,144875, Note_on_c, 0, 75, 0
2,144986, Note_on_c, 0, 77, 59
2,145001, Note_on_c, 0, 62, 35
2,145250, Note_on_c, 0, 62, 0
2,145327, Note_on_c, 0, 68, 49
2,145339, Note_on_c, 0, 62, 35
2,145401, Note_on_c, 0, 62, 0
2,145423, Note_on_c, 0, 68, 0
2,145486, Note_on_c, 0, 60, 48
2,145554, Note_on_c, 0, 60, 0
2,145655, Note_on_c, 0, 67, 54
2,145676, Note_on_c, 0, 59, 41
2,145905, Note_on_c, 0, 59, 0
2,146005, Note_on_c, 0, 74, 66
2,146022, Note_on_c, 0, 59, 47
2,146067, Note_on_c, 0, 59, 0
2,146105, Note_on_c, 0, 67, 0
2,146112, Note_on_c, 0, 74, 0
2,146165, Note_on_c, 0, 72, 72
2,146185, Note_on_c, 0, 57, 44
2,146237, Note_on_c, 0, 57, 0
2,146257, Note_on_c, 0, 72, 0
2,146354, Note_on_c, 0, 71, 69
2,146368, Note_on_c, 0, 55, 45
2,146673, Note_on_c, 0, 57, 56
2,146680, Note_on_c, 0, 72, 70
2,146735, Note_on_c, 0, 71, 0
2,146740, Note_on_c, 0, 55, 0
2,146758, Note_on_c, 0, 57, 0
2,146771, Note_on_c, 0, 72, 0
2,146823, Note_on_c, 0, 74, 74
2,146834, Note_on_c, 0, 59, 55
2,146887, Note_on_c, 0, 59, 0
2,146944, Note_on_c, 0, 74, 0
2,146962, Note_on_c, 0, 77, 0
2,146997, Note_on_c, 0, 67, 75
2,147012, Note_on_c, 0, 60, 58
2,147155, Note_on_c, 0, 74, 79
2,147281, Note_on_c, 0, 74, 0
2,147315, Note_on_c, 0, 76, 83
2,147318, Note_on_c, 0, 60, 0
2,147323, Note_on_c, 0, 58, 68
2,147408, Note_on_c, 0, 58, 0
2,147425, Note_on_c, 0, 76, 0
2,147483, Note_on_c, 0, 67, 0
2,147483, Note_on_c, 0, 67, 11
2,147489, Note_on_c, 0, 56, 66
2,147491, Note_on_c, 0, 79, 81
2,147588, Note_on_c, 0, 56, 0
2,147654, Note_on_c, 0, 79, 0
2,147678, Note_on_c, 0, 55, 60
2,147678, Note_on_c, 0, 70, 75
2,147782, Note_on_c, 0, 67, 0
2,147909, Note_on_c, 0, 55, 0
2,148014, Note_on_c, 0, 61, 82
2,148030, Note_on_c, 0, 55, 63
2,148091, Note_on_c, 0, 55, 0
2,148173, Note_on_c, 0, 53, 65
2,148253, Note_on_c, 0, 53, 0
2,148340, Note_on_c, 0, 61, 0
2,148366, Note_on_c, 0, 60, 83
2,148385, Note_on_c, 0, 52, 57
2,148540, Note_on_c, 0, 52, 0
2,148733, Note_on_c, 0, 67, 77
2,148737, Note_on_c, 0, 52, 58
2,148780, Note_on_c, 0, 60, 0
2,148785, Note_on_c, 0, 52, 0
2,148885, Note_on_c, 0, 67, 0
2,148892, Note_on_c, 0, 65, 75
2,148903, Note_on_c, 0, 50, 54
2,148965, Note_on_c, 0, 50, 0
2,148998, Note_on_c, 0, 65, 0
2,149081, Note_on_c, 0, 64, 79
2,149092, Note_on_c, 0, 48, 55
2,149417, Note_on_c, 0, 50, 60
2,149417, Note_on_c, 0, 65, 76
2,149443, Note_on_c, 0, 48, 0
2,149443, Note_on_c, 0, 64, 0
2,149498, Note_on_c, 0, 50, 0
2,149533, Note_on_c, 0, 65, 0
2,149567, Note_on_c, 0, 67, 80
2,149568, Note_on_c, 0, 52, 65
2,149625, Note_on_c, 0, 52, 0
2,149713, Note_on_c, 0, 67, 0
2,149749, Note_on_c, 0, 53, 65
2,149749, Note_on_c, 0, 60, 78
2,149831, Note_on_c, 0, 53, 0
2,149900, Note_on_c, 0, 55, 72
2,149973, Note_on_c, 0, 55, 0
2,150060, Note_on_c, 0, 68, 80
2,150066, Note_on_c, 0, 60, 0
2,150071, Note_on_c, 0, 56, 72
2,150073, Note_on_c, 0, 65, 64
2,150131, Note_on_c, 0, 70, 0
2,150160, Note_on_c, 0, 56, 0
2,150229, Note_on_c, 0, 58, 69
2,150313, Note_on_c, 0, 58, 0
2,150483, Note_on_c, 0, 67, 75
2,150484, Note_on_c, 0, 48, 82
2,150498, Note_on_c, 0, 60, 68
2,150538, Note_on_c, 0, 68, 0
2,150575, Note_on_c, 0, 65, 0
2,150864, Note_on_c, 0, 64, 65
2,150917, Note_on_c, 0, 67, 0
2,151232, Note_on_c, 0, 49, 84
2,151247, Note_on_c, 0, 65, 69
2,151274, Note_on_c, 0, 48, 0
2,151284, Note_on_c, 0, 64, 0
2,151333, Note_on_c, 0, 60, 0
2,151410, Note_on_c, 0, 65, 0
2,151418, Note_on_c, 0, 64, 63
2,151589, Note_on_c, 0, 65, 70
2,151599, Note_on_c, 0, 58, 46
2,151603, Note_on_c, 0, 64, 0
2,151753, Note_on_c, 0, 67, 71
2,151780, Note_on_c, 0, 65, 0
2,151957, Note_on_c, 0, 48, 71
2,151957, Note_on_c, 0, 68, 62
2,151961, Note_on_c, 0, 67, 0
2,152006, Note_on_c, 0, 49, 0
2,152100, Note_on_c, 0, 68, 0
2,152138, Note_on_c, 0, 67, 61
2,152157, Note_on_c, 0, 58, 0
2,152286, Note_on_c, 0, 67, 0
2,152308, Note_on_c, 0, 65, 63
2,152320, Note_on_c, 0, 56, 49
2,152467, Note_on_c, 0, 63, 56
2,152473, Note_on_c, 0, 65, 0
2,152649, Note_on_c, 0, 63, 0
2,152654, Note_on_c, 0, 62, 56
2,152668, Note_on_c, 0, 47, 62
2,152722, Note_on_c, 0, 48, 0
2,152833, Note_on_c, 0, 65, 56
2,152925, Note_on_c, 0, 56, 0
2,152966, Note_on_c, 0, 62, 0
2,153013, Note_on_c, 0, 67, 67
2,153023, Note_on_c, 0, 65, 0
2,153028, Note_on_c, 0, 55, 47
2,153120, Note_on_c, 0, 55, 0
2,153159, Note_on_c, 0, 67, 0
2,153170, Note_on_c, 0, 68, 74
2,153188, Note_on_c, 0, 53, 54
2,153277, Note_on_c, 0, 53, 0
2,153303, Note_on_c, 0, 68, 0
2,153327, Note_on_c, 0, 47, 0
2,153338, Note_on_c, 0, 70, 81
2,153341, Note_on_c, 0, 52, 76
2,153495, Note_on_c, 0, 58, 67
2,153555, Note_on_c, 0, 58, 0
2,153683, Note_on_c, 0, 61, 79
2,153686, Note_on_c, 0, 56, 57
2,153750, Note_on_c, 0, 56, 0
2,153830, Note_on_c, 0, 55, 58
2,154010, Note_on_c, 0, 53, 75
2,154026, Note_on_c, 0, 55, 0
2,154035, Note_on_c, 0, 52, 0
2,154169, Note_on_c, 0, 68, 71
2,154169, Note_on_c, 0, 70, 0
2,154194, Note_on_c, 0, 61, 0
2,154307, Note_on_c, 0, 68, 0
2,154348, Note_on_c, 0, 70, 78
2,154349, Note_on_c, 0, 55, 74
2,154349, Note_on_c, 0, 60, 76
2,154386, Note_on_c, 0, 60, 0
2,154443, Note_on_c, 0, 70, 0
2,154455, Note_on_c, 0, 55, 0
2,154497, Note_on_c, 0, 72, 79
2,154502, Note_on_c, 0, 56, 65
2,154566, Note_on_c, 0, 72, 0
2,154572, Note_on_c, 0, 56, 0
2,154672, Note_on_c, 0, 53, 0
2,154686, Note_on_c, 0, 73, 83
2,154689, Note_on_c, 0, 46, 84
2,154691, Note_on_c, 0, 58, 71
2,154785, Note_on_c, 0, 58, 0
2,154851, Note_on_c, 0, 53, 56
2,154943, Note_on_c, 0, 53, 0
2,155043, Note_on_c, 0, 51, 67
2,155043, Note_on_c, 0, 66, 85
2,155100, Note_on_c, 0, 51, 0
2,155198, Note_on_c, 0, 49, 68
2,155290, Note_on_c, 0, 46, 0
2,155290, Note_on_c, 0, 49, 0
2,155370, Note_on_c, 0, 45, 82
2,155386, Note_on_c, 0, 48, 68
2,155464, Note_on_c, 0, 66, 0
2,155487, Note_on_c, 0, 73, 0
2,155532, Note_on_c, 0, 72, 78
2,155649, Note_on_c, 0, 72, 0
2,155698, Note_on_c, 0, 65, 84
2,155704, Note_on_c, 0, 74, 77
2,155814, Note_on_c, 0, 74, 0
2,155865, Note_on_c, 0, 76, 86
2,155901, Note_on_c, 0, 45, 0
2,155968, Note_on_c, 0, 76, 0
2,156046, Note_on_c, 0, 44, 84
2,156049, Note_on_c, 0, 77, 87
2,156100, Note_on_c, 0, 65, 0
2,156116, Note_on_c, 0, 48, 0
2,156211, Note_on_c, 0, 65, 83
2,156223, Note_on_c, 0, 50, 69
2,156301, Note_on_c, 0, 50, 0
2,156307, Note_on_c, 0, 65, 0
2,156370, Note_on_c, 0, 67, 90
2,156389, Note_on_c, 0, 52, 78
2,156457, Note_on_c, 0, 52, 0
2,156460, Note_on_c, 0, 67, 0
2,156539, Note_on_c, 0, 68, 91
2,156563, Note_on_c, 0, 53, 70
2,156637, Note_on_c, 0, 68, 0
2,156675, Note_on_c, 0, 53, 0
2,156721, Note_on_c, 0, 44, 0
2,156763, Note_on_c, 0, 70, 84
2,156778, Note_on_c, 0, 43, 81
2,156782, Note_on_c, 0, 55, 81
2,156954, Note_on_c, 0, 77, 0
2,157137, Note_on_c, 0, 76, 79
2,157230, Note_on_c, 0, 76, 0
2,157300, Note_on_c, 0, 74, 80
2,157418, Note_on_c, 0, 74, 0
2,157479, Note_on_c, 0, 76, 82
2,157642, Note_on_c, 0, 45, 71
2,157679, Note_on_c, 0, 55, 0
2,157731, Note_on_c, 0, 45, 0
2,157823, Note_on_c, 0, 46, 72
2,157901, Note_on_c, 0, 46, 0
2,158006, Note_on_c, 0, 48, 66
2,158082, Note_on_c, 0, 43, 0
2,158177, Note_on_c, 0, 48, 0
2,158205, Note_on_c, 0, 77, 66
2,158214, Note_on_c, 0, 41, 65
2,158218, Note_on_c, 0, 49, 54
2,158225, Note_on_c, 0, 76, 0
2,158391, Note_on_c, 0, 49, 0
2,158393, Note_on_c, 0, 70, 0
2,158400, Note_on_c, 0, 73, 66
2,158405, Note_on_c, 0, 48, 59
2,158503, Note_on_c, 0, 48, 0
2,158524, Note_on_c, 0, 73, 0
2,158559, Note_on_c, 0, 72, 76
2,158571, Note_on_c, 0, 49, 65
2,158614, Note_on_c, 0, 49, 0
2,158647, Note_on_c, 0, 72, 0
2,158715, Note_on_c, 0, 70, 79
2,158718, Note_on_c, 0, 51, 64
2,158810, Note_on_c, 0, 70, 0
2,158838, Note_on_c, 0, 51, 0
2,158887, Note_on_c, 0, 69, 82
2,158890, Note_on_c, 0, 53, 76
2,158917, Note_on_c, 0, 41, 0
2,159033, Note_on_c, 0, 41, 77
2,159051, Note_on_c, 0, 75, 78
2,159098, Note_on_c, 0, 77, 0
2,159131, Note_on_c, 0, 41, 0
2,159202, Note_on_c, 0, 43, 82
2,159221, Note_on_c, 0, 73, 78
2,159253, Note_on_c, 0, 75, 0
2,159307, Note_on_c, 0, 43, 0
2,159373, Note_on_c, 0, 45, 80
2,159384, Note_on_c, 0, 72, 79
2,159388, Note_on_c, 0, 73, 0
2,159438, Note_on_c, 0, 69, 0
2,159467, Note_on_c, 0, 45, 0
2,159546, Note_on_c, 0, 46, 80
2,159547, Note_on_c, 0, 73, 80
2,159560, Note_on_c, 0, 72, 0
2,159596, Note_on_c, 0, 53, 0
2,159718, Note_on_c, 0, 53, 75
2,159718, Note_on_c, 0, 72, 79
2,159786, Note_on_c, 0, 53, 0
2,159849, Note_on_c, 0, 72, 0
2,159881, Note_on_c, 0, 70, 79
2,159886, Note_on_c, 0, 55, 75
2,159953, Note_on_c, 0, 55, 0
2,159961, Note_on_c, 0, 70, 0
2,160048, Note_on_c, 0, 68, 79
2,160065, Note_on_c, 0, 56, 62
2,160135, Note_on_c, 0, 56, 0
2,160180, Note_on_c, 0, 68, 0
2,160232, Note_on_c, 0, 67, 79
2,160235, Note_on_c, 0, 58, 71
2,160329, Note_on_c, 0, 67, 0
2,160377, Note_on_c, 0, 73, 0
2,160402, Note_on_c, 0, 70, 79
2,160405, Note_on_c, 0, 49, 71
2,160410, Note_on_c, 0, 65, 77
2,160428, Note_on_c, 0, 46, 0
2,160486, Note_on_c, 0, 65, 0
2,160569, Note_on_c, 0, 72, 80
2,160571, Note_on_c, 0, 70, 0
2,160578, Note_on_c, 0, 48, 70
2,160584, Note_on_c, 0, 63, 85
2,160608, Note_on_c, 0, 49, 0
2,160670, Note_on_c, 0, 63, 0
2,160710, Note_on_c, 0, 72, 0
2,160731, Note_on_c, 0, 48, 0
2,160739, Note_on_c, 0, 73, 86
2,160740, Note_on_c, 0, 61, 84
2,160742, Note_on_c, 0, 46, 80
2,160890, Note_on_c, 0, 61, 0
2,160920, Note_on_c, 0, 46, 0
2,160920, Note_on_c, 0, 73, 0
2,160946, Note_on_c, 0, 64, 81
2,160950, Note_on_c, 0, 48, 78
2,160952, Note_on_c, 0, 60, 79
2,160993, Note_on_c, 0, 58, 0
2,161130, Note_on_c, 0, 58, 79
2,161244, Note_on_c, 0, 58, 0
2,161308, Note_on_c, 0, 72, 84
2,161321, Note_on_c, 0, 56, 77
2,161340, Note_on_c, 0, 64, 0
2,161445, Note_on_c, 0, 56, 0
2,161479, Note_on_c, 0, 55, 76
2,161508, Note_on_c, 0, 57, 46
2,161528, Note_on_c, 0, 57, 0
2,161590, Note_on_c, 0, 55, 0
2,161680, Note_on_c, 0, 56, 81
2,161866, Note_on_c, 0, 67, 78
2,161899, Note_on_c, 0, 60, 0
2,162086, Note_on_c, 0, 72, 0
2,162097, Note_on_c, 0, 68, 86
2,162172, Note_on_c, 0, 67, 0
2,162313, Note_on_c, 0, 65, 84
2,162356, Note_on_c, 0, 56, 0
2,162371, Note_on_c, 0, 68, 0
2,162508, Note_on_c, 0, 56, 73
2,162619, Note_on_c, 0, 55, 67
2,162633, Note_on_c, 0, 56, 0
2,162664, Note_on_c, 0, 65, 0
2,162757, Note_on_c, 0, 56, 68
2,162759, Note_on_c, 0, 55, 0
2,162764, Note_on_c, 0, 65, 81
2,162855, Note_on_c, 0, 56, 0
2,162874, Note_on_c, 0, 55, 63
2,162980, Note_on_c, 0, 55, 0
2,162992, Note_on_c, 0, 64, 86
2,162997, Note_on_c, 0, 56, 56
2,163042, Note_on_c, 0, 65, 0
2,163078, Note_on_c, 0, 56, 0
2,163104, Note_on_c, 0, 55, 57
2,163232, Note_on_c, 0, 56, 49
2,163233, Note_on_c, 0, 62, 89
2,163249, Note_on_c, 0, 55, 0
2,163327, Note_on_c, 0, 64, 0
2,163349, Note_on_c, 0, 56, 0
2,163372, Note_on_c, 0, 55, 53
2,163526, Note_on_c, 0, 65, 85
2,163531, Note_on_c, 0, 55, 0
2,163548, Note_on_c, 0, 56, 46
2,163568, Note_on_c, 0, 62, 0
2,163730, Note_on_c, 0, 64, 82
2,163748, Note_on_c, 0, 56, 0
2,163758, Note_on_c, 0, 55, 49
2,163779, Note_on_c, 0, 65, 0
2,163886, Note_on_c, 0, 65, 79
2,163905, Note_on_c, 0, 55, 0
2,163914, Note_on_c, 0, 56, 45
2,163921, Note_on_c, 0, 64, 0
2,164047, Note_on_c, 0, 56, 0
2,164054, Note_on_c, 0, 64, 73
2,164069, Note_on_c, 0, 55, 41
2,164091, Note_on_c, 0, 65, 0
2,164222, Note_on_c, 0, 65, 67
2,164244, Note_on_c, 0, 56, 40
2,164269, Note_on_c, 0, 64, 0
2,164278, Note_on_c, 0, 55, 0
2,164438, Note_on_c, 0, 64, 67
2,164443, Note_on_c, 0, 55, 40
2,164447, Note_on_c, 0, 56, 0
2,164466, Note_on_c, 0, 65, 0
2,164714, Note_on_c, 0, 62, 70
2,164724, Note_on_c, 0, 53, 44
2,164764, Note_on_c, 0, 64, 0
2,164813, Note_on_c, 0, 55, 0
2,165081, Note_on_c, 0, 64, 75
2,165087, Note_on_c, 0, 53, 0
2,165091, Note_on_c, 0, 55, 43
2,165135, Note_on_c, 0, 62, 0
2,165278, Control_c, 0, 64, 64
2,165292, Control_c, 0, 64, 68
2,165308, Control_c, 0, 64, 72
2,165323, Control_c, 0, 64, 76
2,165338, Control_c, 0, 64, 79
2,165354, Control_c, 0, 64, 81
2,165369, Control_c, 0, 64, 84
2,165385, Control_c, 0, 64, 86
2,165400, Control_c, 0, 64, 89
2,165415, Control_c, 0, 64, 91
2,165431, Control_c, 0, 64, 93
2,165445, Control_c, 0, 64, 95
2,165460, Control_c, 0, 64, 96
2,165476, Control_c, 0, 64, 98
2,165491, Control_c, 0, 64, 99
2,165507, Control_c, 0, 64, 101
2,165522, Control_c, 0, 64, 102
2,165537, Control_c, 0, 64, 103
2,165553, Control_c, 0, 64, 105
2,165567, Control_c, 0, 64, 107
2,165582, Control_c, 0, 64, 109
2,165598, Control_c, 0, 64, 110
2,165612, Control_c, 0, 64, 111
2,165628, Control_c, 0, 64, 112
2,165788, Note_on_c, 0, 65, 71
2,165800, Note_on_c, 0, 60, 49
2,165802, Note_on_c, 0, 57, 49
2,165820, Note_on_c, 0, 41, 43
2,165834, Note_on_c, 0, 64, 0
2,165848, Control_c, 0, 64, 111
2,165854, Note_on_c, 0, 48, 0
2,165863, Control_c, 0, 64, 110
2,165879, Control_c, 0, 64, 106
2,165894, Control_c, 0, 64, 101
2,165909, Control_c, 0, 64, 96
2,165924, Control_c, 0, 64, 90
2,165939, Control_c, 0, 64, 83
2,165955, Control_c, 0, 64, 75
2,165970, Control_c, 0, 64, 64
2,165985, Control_c, 0, 64, 0
2,166063, Note_on_c, 0, 55, 0
2,171449, Note_on_c, 0, 41, 0
2,171480, Note_on_c, 0, 57, 0
2,171480, Note_on_c, 0, 65, 0
2,171489, Note_on_c, 0, 60, 0
2,171490, End_track
0, 0, End_of_file
