0, 0, Header, 1, 2, 384
1, 0, Start_track
1, 0, Tempo, 500000
1, 0, Time_signature, 4, 2, 24, 8
1, 1, End_track
2, 0, Start_track
2, 0, Title_t," ""Lisiecki04-07.MID"""
2, 0, Program_c, 0, 0
2, 0, Control_c, 0, 64, 38
2, 232, Control_c, 0, 64, 37
2, 414, Control_c, 0, 64, 36
2, 506, Control_c, 0, 64, 36
2, 566, Control_c, 0, 64, 35
2, 687, Control_c, 0, 64, 34
2, 801, Control_c, 0, 64, 34
2, 819, Note_on_c, 0, 65, 40
2, 843, Note_on_c, 0, 56, 16
2, 846, Control_c, 0, 64, 33
2, 849, Note_on_c, 0, 53, 13
2, 907, Control_c, 0, 64, 34
2, 922, Control_c, 0, 64, 34
2, 937, Control_c, 0, 64, 36
2, 953, Control_c, 0, 64, 38
2, 968, Control_c, 0, 64, 42
2, 991, Control_c, 0, 64, 49
2, 1006, Control_c, 0, 64, 56
2, 1022, Control_c, 0, 64, 61
2, 1036, Control_c, 0, 64, 63
2, 1051, Control_c, 0, 64, 64
2, 1067, Control_c, 0, 64, 65
2, 1081, Control_c, 0, 64, 67
2, 1096, Control_c, 0, 64, 69
2, 1112, Control_c, 0, 64, 71
2, 1127, Control_c, 0, 64, 73
2, 1143, Control_c, 0, 64, 75
2, 1158, Control_c, 0, 64, 77
2, 1173, Control_c, 0, 64, 79
2, 1189, Control_c, 0, 64, 82
2, 1203, Control_c, 0, 64, 85
2, 1218, Control_c, 0, 64, 87
2, 1234, Control_c, 0, 64, 88
2, 1249, Control_c, 0, 64, 90
2, 1265, Control_c, 0, 64, 91
2, 1280, Control_c, 0, 64, 92
2, 1294, Control_c, 0, 64, 93
2, 1310, Control_c, 0, 64, 94
2, 1325, Control_c, 0, 64, 95
2, 1340, Control_c, 0, 64, 95
2, 1370, Control_c, 0, 64, 96
2, 1401, Control_c, 0, 64, 96
2, 1411, Note_on_c, 0, 68, 39
2, 1630, Note_on_c, 0, 68, 0
2, 1705, Control_c, 0, 64, 96
2, 1709, Note_on_c, 0, 72, 49
2, 1803, Control_c, 0, 64, 95
2, 1818, Control_c, 0, 64, 95
2, 1834, Control_c, 0, 64, 94
2, 1849, Control_c, 0, 64, 93
2, 1865, Control_c, 0, 64, 90
2, 1879, Control_c, 0, 64, 86
2, 1894, Control_c, 0, 64, 79
2, 1910, Control_c, 0, 64, 71
2, 1925, Control_c, 0, 64, 50
2, 1931, Note_on_c, 0, 72, 0
2, 1940, Control_c, 0, 64, 0
2, 1968, Note_on_c, 0, 77, 47
2, 2047, Note_on_c, 0, 65, 0
2, 2201, Note_on_c, 0, 58, 34
2, 2204, Note_on_c, 0, 67, 52
2, 2304, Note_on_c, 0, 77, 0
2, 2334, Note_on_c, 0, 56, 0
2, 2427, Note_on_c, 0, 77, 59
2, 2647, Note_on_c, 0, 76, 59
2, 2672, Note_on_c, 0, 77, 0
2, 2849, Note_on_c, 0, 76, 0
2, 2860, Note_on_c, 0, 79, 61
2, 3087, Control_c, 0, 67, 8
2, 3090, Note_on_c, 0, 68, 64
2, 3096, Note_on_c, 0, 60, 32
2, 3103, Control_c, 0, 67, 9
2, 3117, Control_c, 0, 67, 10
2, 3123, Note_on_c, 0, 67, 0
2, 3148, Control_c, 0, 67, 10
2, 3175, Note_on_c, 0, 58, 0
2, 3178, Control_c, 0, 67, 11
2, 3185, Note_on_c, 0, 79, 0
2, 3194, Control_c, 0, 67, 12
2, 3209, Control_c, 0, 67, 12
2, 3225, Control_c, 0, 67, 13
2, 3271, Control_c, 0, 67, 13
2, 3293, Control_c, 0, 67, 14
2, 3324, Control_c, 0, 67, 14
2, 3328, Note_on_c, 0, 72, 64
2, 3339, Control_c, 0, 67, 15
2, 3369, Control_c, 0, 67, 15
2, 3385, Control_c, 0, 67, 16
2, 3400, Control_c, 0, 67, 18
2, 3414, Control_c, 0, 67, 19
2, 3430, Control_c, 0, 67, 21
2, 3445, Control_c, 0, 67, 22
2, 3460, Control_c, 0, 67, 23
2, 3476, Control_c, 0, 67, 24
2, 3490, Control_c, 0, 67, 26
2, 3506, Control_c, 0, 67, 27
2, 3521, Control_c, 0, 67, 27
2, 3524, Note_on_c, 0, 72, 0
2, 3536, Control_c, 0, 67, 28
2, 3536, Note_on_c, 0, 77, 69
2, 3552, Control_c, 0, 67, 29
2, 3567, Control_c, 0, 67, 29
2, 3583, Control_c, 0, 67, 30
2, 3597, Control_c, 0, 67, 31
2, 3612, Control_c, 0, 67, 32
2, 3628, Control_c, 0, 67, 33
2, 3643, Control_c, 0, 67, 34
2, 3658, Control_c, 0, 67, 34
2, 3674, Control_c, 0, 67, 35
2, 3704, Control_c, 0, 67, 35
2, 3749, Control_c, 0, 67, 36
2, 3765, Note_on_c, 0, 76, 57
2, 3795, Control_c, 0, 67, 36
2, 3808, Note_on_c, 0, 77, 0
2, 3825, Control_c, 0, 67, 37
2, 3840, Control_c, 0, 67, 37
2, 3855, Control_c, 0, 67, 39
2, 3871, Control_c, 0, 67, 41
2, 3886, Control_c, 0, 67, 43
2, 3900, Control_c, 0, 67, 45
2, 3916, Control_c, 0, 67, 46
2, 3931, Control_c, 0, 67, 46
2, 3946, Control_c, 0, 67, 47
2, 3961, Control_c, 0, 67, 48
2, 3965, Note_on_c, 0, 76, 0
2, 3976, Control_c, 0, 67, 49
2, 3989, Note_on_c, 0, 77, 57
2, 3992, Control_c, 0, 67, 50
2, 4007, Control_c, 0, 67, 51
2, 4023, Control_c, 0, 67, 51
2, 4023, Note_on_c, 0, 56, 32
2, 4038, Control_c, 0, 67, 52
2, 4060, Control_c, 0, 67, 52
2, 4077, Control_c, 0, 67, 53
2, 4092, Control_c, 0, 67, 53
2, 4108, Control_c, 0, 67, 54
2, 4179, Note_on_c, 0, 68, 0
2, 4223, Note_on_c, 0, 60, 0
2, 4232, Note_on_c, 0, 72, 53
2, 4335, Control_c, 0, 67, 54
2, 4426, Control_c, 0, 67, 54
2, 4441, Control_c, 0, 67, 53
2, 4448, Note_on_c, 0, 70, 47
2, 4456, Note_on_c, 0, 72, 0
2, 4487, Control_c, 0, 67, 54
2, 4503, Control_c, 0, 67, 56
2, 4518, Control_c, 0, 67, 61
2, 4533, Control_c, 0, 67, 71
2, 4549, Control_c, 0, 67, 80
2, 4563, Control_c, 0, 67, 83
2, 4594, Control_c, 0, 67, 81
2, 4609, Control_c, 0, 67, 81
2, 4625, Control_c, 0, 67, 80
2, 4655, Control_c, 0, 67, 80
2, 4668, Note_on_c, 0, 68, 47
2, 4684, Note_on_c, 0, 70, 0
2, 4776, Control_c, 0, 67, 79
2, 4806, Control_c, 0, 67, 79
2, 4903, Note_on_c, 0, 73, 54
2, 4908, Note_on_c, 0, 68, 0
2, 4909, Note_on_c, 0, 58, 38
2, 5022, Note_on_c, 0, 56, 0
2, 5037, Note_on_c, 0, 77, 0
2, 5119, Note_on_c, 0, 68, 49
2, 5300, Control_c, 0, 67, 78
2, 5310, Note_on_c, 0, 68, 0
2, 5344, Note_on_c, 0, 67, 46
2, 5376, Control_c, 0, 67, 79
2, 5438, Control_c, 0, 67, 79
2, 5484, Control_c, 0, 67, 80
2, 5484, Note_on_c, 0, 67, 0
2, 5544, Note_on_c, 0, 70, 47
2, 5545, Control_c, 0, 67, 80
2, 5658, Control_c, 0, 67, 80
2, 5769, Note_on_c, 0, 70, 0
2, 5789, Note_on_c, 0, 64, 52
2, 5805, Note_on_c, 0, 55, 30
2, 5815, Note_on_c, 0, 73, 0
2, 5841, Note_on_c, 0, 58, 0
2, 5887, Control_c, 0, 67, 80
2, 5918, Control_c, 0, 67, 81
2, 5933, Control_c, 0, 67, 81
2, 5948, Control_c, 0, 67, 82
2, 5978, Control_c, 0, 67, 82
2, 5993, Control_c, 0, 67, 83
2, 6008, Control_c, 0, 67, 83
2, 6022, Note_on_c, 0, 73, 48
2, 6024, Control_c, 0, 67, 84
2, 6039, Control_c, 0, 67, 85
2, 6054, Control_c, 0, 67, 87
2, 6069, Control_c, 0, 67, 94
2, 6084, Control_c, 0, 67, 101
2, 6099, Control_c, 0, 67, 105
2, 6115, Control_c, 0, 67, 109
2, 6130, Control_c, 0, 67, 114
2, 6145, Control_c, 0, 67, 119
2, 6160, Control_c, 0, 67, 123
2, 6175, Control_c, 0, 67, 125
2, 6236, Control_c, 0, 67, 125
2, 6247, Note_on_c, 0, 72, 52
2, 6251, Control_c, 0, 67, 126
2, 6267, Control_c, 0, 67, 126
2, 6282, Control_c, 0, 67, 127
2, 6290, Note_on_c, 0, 73, 0
2, 6492, Note_on_c, 0, 70, 53
2, 6492, Note_on_c, 0, 72, 0
2, 6553, Note_on_c, 0, 64, 0
2, 6606, Note_on_c, 0, 53, 0
2, 6753, Note_on_c, 0, 65, 44
2, 6755, Note_on_c, 0, 68, 45
2, 6757, Note_on_c, 0, 70, 0
2, 6759, Note_on_c, 0, 53, 35
2, 6854, Note_on_c, 0, 55, 0
2, 7012, Note_on_c, 0, 56, 34
2, 7088, Note_on_c, 0, 65, 0
2, 7236, Note_on_c, 0, 60, 34
2, 7423, Note_on_c, 0, 56, 0
2, 7443, Note_on_c, 0, 70, 58
2, 7459, Note_on_c, 0, 65, 33
2, 7474, Note_on_c, 0, 68, 0
2, 7523, Note_on_c, 0, 60, 0
2, 7670, Note_on_c, 0, 55, 53
2, 7670, Note_on_c, 0, 70, 0
2, 7670, Note_on_c, 0, 72, 54
2, 7729, Note_on_c, 0, 53, 0
2, 7756, Note_on_c, 0, 65, 0
2, 7767, Note_on_c, 0, 72, 0
2, 7775, Note_on_c, 0, 70, 60
2, 7855, Note_on_c, 0, 70, 0
2, 7875, Note_on_c, 0, 72, 64
2, 7903, Note_on_c, 0, 65, 42
2, 7954, Note_on_c, 0, 72, 0
2, 7964, Note_on_c, 0, 70, 62
2, 8025, Note_on_c, 0, 70, 0
2, 8034, Note_on_c, 0, 72, 61
2, 8075, Note_on_c, 0, 65, 0
2, 8097, Note_on_c, 0, 64, 43
2, 8104, Note_on_c, 0, 72, 0
2, 8112, Note_on_c, 0, 70, 60
2, 8159, Note_on_c, 0, 70, 0
2, 8168, Note_on_c, 0, 72, 56
2, 8238, Note_on_c, 0, 70, 60
2, 8241, Note_on_c, 0, 72, 0
2, 8271, Note_on_c, 0, 64, 0
2, 8296, Note_on_c, 0, 68, 69
2, 8296, Note_on_c, 0, 70, 0
2, 8297, Note_on_c, 0, 67, 60
2, 8375, Note_on_c, 0, 68, 0
2, 8395, Note_on_c, 0, 70, 67
2, 8502, Note_on_c, 0, 67, 0
2, 8514, Note_on_c, 0, 72, 70
2, 8520, Note_on_c, 0, 70, 0
2, 8526, Note_on_c, 0, 56, 62
2, 8590, Note_on_c, 0, 55, 0
2, 8736, Note_on_c, 0, 68, 69
2, 8807, Control_c, 0, 67, 120
2, 8822, Control_c, 0, 67, 109
2, 8837, Control_c, 0, 67, 100
2, 8852, Control_c, 0, 67, 93
2, 8867, Control_c, 0, 67, 87
2, 8882, Control_c, 0, 67, 79
2, 8897, Control_c, 0, 67, 70
2, 8913, Control_c, 0, 67, 58
2, 8928, Control_c, 0, 67, 46
2, 8935, Note_on_c, 0, 68, 0
2, 8943, Control_c, 0, 67, 36
2, 8951, Note_on_c, 0, 64, 64
2, 8958, Control_c, 0, 67, 31
2, 8973, Control_c, 0, 67, 30
2, 8990, Control_c, 0, 67, 30
2, 9005, Control_c, 0, 67, 32
2, 9020, Control_c, 0, 67, 35
2, 9036, Control_c, 0, 67, 37
2, 9050, Control_c, 0, 67, 39
2, 9066, Control_c, 0, 67, 40
2, 9081, Control_c, 0, 67, 42
2, 9095, Control_c, 0, 67, 44
2, 9111, Control_c, 0, 67, 48
2, 9126, Control_c, 0, 67, 52
2, 9142, Control_c, 0, 67, 55
2, 9149, Note_on_c, 0, 64, 0
2, 9157, Control_c, 0, 67, 56
2, 9164, Note_on_c, 0, 65, 62
2, 9171, Control_c, 0, 67, 55
2, 9187, Control_c, 0, 67, 54
2, 9202, Control_c, 0, 67, 53
2, 9217, Control_c, 0, 67, 52
2, 9233, Control_c, 0, 67, 51
2, 9238, Note_on_c, 0, 72, 0
2, 9247, Control_c, 0, 67, 51
2, 9278, Control_c, 0, 67, 50
2, 9293, Control_c, 0, 67, 50
2, 9309, Control_c, 0, 67, 49
2, 9373, Note_on_c, 0, 58, 47
2, 9387, Note_on_c, 0, 61, 41
2, 9400, Note_on_c, 0, 65, 0
2, 9438, Control_c, 0, 67, 50
2, 9452, Control_c, 0, 67, 51
2, 9457, Note_on_c, 0, 56, 0
2, 9468, Control_c, 0, 67, 51
2, 9483, Control_c, 0, 67, 52
2, 9514, Control_c, 0, 67, 53
2, 9544, Control_c, 0, 67, 53
2, 9618, Note_on_c, 0, 73, 58
2, 9681, Control_c, 0, 67, 54
2, 9726, Control_c, 0, 67, 54
2, 9802, Control_c, 0, 67, 55
2, 9834, Control_c, 0, 67, 55
2, 9850, Note_on_c, 0, 73, 0
2, 9855, Note_on_c, 0, 67, 56
2, 9865, Control_c, 0, 67, 56
2, 9894, Control_c, 0, 67, 56
2, 9925, Control_c, 0, 67, 57
2, 10085, Note_on_c, 0, 70, 52
2, 10128, Note_on_c, 0, 67, 0
2, 10251, Control_c, 0, 67, 57
2, 10296, Control_c, 0, 67, 58
2, 10362, Note_on_c, 0, 70, 0
2, 10368, Note_on_c, 0, 64, 45
2, 10372, Note_on_c, 0, 48, 43
2, 10373, Note_on_c, 0, 61, 0
2, 10399, Note_on_c, 0, 60, 28
2, 10469, Note_on_c, 0, 58, 0
2, 10537, Note_on_c, 0, 60, 0
2, 10601, Control_c, 0, 67, 58
2, 10616, Control_c, 0, 67, 61
2, 10617, Note_on_c, 0, 52, 45
2, 10633, Control_c, 0, 67, 73
2, 10647, Control_c, 0, 67, 84
2, 10663, Control_c, 0, 67, 93
2, 10678, Control_c, 0, 67, 98
2, 10693, Control_c, 0, 67, 102
2, 10708, Control_c, 0, 67, 107
2, 10723, Control_c, 0, 67, 112
2, 10738, Control_c, 0, 67, 117
2, 10754, Control_c, 0, 67, 120
2, 10769, Control_c, 0, 67, 123
2, 10784, Control_c, 0, 67, 123
2, 10845, Control_c, 0, 67, 123
2, 10845, Note_on_c, 0, 52, 0
2, 10851, Note_on_c, 0, 55, 43
2, 10875, Control_c, 0, 67, 122
2, 11019, Control_c, 0, 67, 122
2, 11035, Control_c, 0, 67, 123
2, 11065, Control_c, 0, 67, 123
2, 11080, Control_c, 0, 67, 124
2, 11080, Note_on_c, 0, 65, 55
2, 11090, Note_on_c, 0, 64, 0
2, 11106, Note_on_c, 0, 60, 38
2, 11115, Note_on_c, 0, 55, 0
2, 11232, Control_c, 0, 67, 123
2, 11263, Control_c, 0, 67, 123
2, 11292, Control_c, 0, 67, 122
2, 11308, Control_c, 0, 67, 122
2, 11323, Control_c, 0, 67, 121
2, 11338, Control_c, 0, 67, 120
2, 11347, Note_on_c, 0, 65, 0
2, 11354, Control_c, 0, 67, 119
2, 11358, Note_on_c, 0, 49, 42
2, 11360, Note_on_c, 0, 67, 48
2, 11385, Control_c, 0, 67, 117
2, 11388, Note_on_c, 0, 48, 0
2, 11399, Control_c, 0, 67, 116
2, 11414, Control_c, 0, 67, 114
2, 11430, Control_c, 0, 67, 113
2, 11442, Note_on_c, 0, 60, 0
2, 11454, Note_on_c, 0, 67, 0
2, 11476, Control_c, 0, 67, 112
2, 11479, Note_on_c, 0, 65, 54
2, 11491, Control_c, 0, 67, 112
2, 11551, Note_on_c, 0, 65, 0
2, 11567, Control_c, 0, 67, 112
2, 11572, Note_on_c, 0, 67, 57
2, 11583, Control_c, 0, 67, 113
2, 11596, Note_on_c, 0, 60, 34
2, 11598, Control_c, 0, 67, 113
2, 11617, Note_on_c, 0, 67, 0
2, 11628, Control_c, 0, 67, 114
2, 11643, Note_on_c, 0, 65, 56
2, 11658, Control_c, 0, 67, 114
2, 11674, Control_c, 0, 67, 115
2, 11689, Control_c, 0, 67, 114
2, 11692, Note_on_c, 0, 65, 0
2, 11704, Control_c, 0, 67, 113
2, 11709, Note_on_c, 0, 67, 62
2, 11719, Control_c, 0, 67, 113
2, 11743, Control_c, 0, 67, 112
2, 11746, Note_on_c, 0, 60, 0
2, 11755, Note_on_c, 0, 67, 0
2, 11772, Control_c, 0, 67, 112
2, 11772, Note_on_c, 0, 65, 54
2, 11779, Note_on_c, 0, 58, 37
2, 11788, Control_c, 0, 67, 111
2, 11815, Note_on_c, 0, 65, 0
2, 11822, Note_on_c, 0, 67, 56
2, 11833, Control_c, 0, 67, 112
2, 11848, Control_c, 0, 67, 113
2, 11863, Note_on_c, 0, 67, 0
2, 11864, Control_c, 0, 67, 114
2, 11879, Control_c, 0, 67, 115
2, 11884, Note_on_c, 0, 65, 56
2, 11909, Control_c, 0, 67, 115
2, 11957, Note_on_c, 0, 65, 0
2, 11975, Note_on_c, 0, 64, 60
2, 11987, Note_on_c, 0, 61, 41
2, 12005, Note_on_c, 0, 58, 0
2, 12057, Note_on_c, 0, 64, 0
2, 12077, Note_on_c, 0, 65, 58
2, 12167, Control_c, 0, 67, 114
2, 12182, Note_on_c, 0, 65, 0
2, 12183, Control_c, 0, 67, 113
2, 12198, Control_c, 0, 67, 111
2, 12212, Note_on_c, 0, 67, 60
2, 12213, Control_c, 0, 67, 110
2, 12227, Note_on_c, 0, 52, 48
2, 12229, Control_c, 0, 67, 108
2, 12243, Control_c, 0, 67, 104
2, 12257, Note_on_c, 0, 61, 0
2, 12258, Control_c, 0, 67, 100
2, 12274, Control_c, 0, 67, 96
2, 12289, Control_c, 0, 67, 93
2, 12302, Note_on_c, 0, 49, 0
2, 12305, Control_c, 0, 67, 90
2, 12320, Control_c, 0, 67, 88
2, 12335, Control_c, 0, 67, 85
2, 12351, Control_c, 0, 67, 80
2, 12366, Control_c, 0, 67, 75
2, 12382, Control_c, 0, 67, 71
2, 12396, Control_c, 0, 67, 65
2, 12411, Control_c, 0, 67, 58
2, 12427, Control_c, 0, 67, 50
2, 12442, Control_c, 0, 67, 41
2, 12445, Note_on_c, 0, 72, 73
2, 12457, Control_c, 0, 67, 33
2, 12472, Control_c, 0, 67, 28
2, 12487, Control_c, 0, 67, 24
2, 12510, Control_c, 0, 67, 23
2, 12616, Control_c, 0, 67, 24
2, 12632, Control_c, 0, 67, 25
2, 12647, Control_c, 0, 67, 25
2, 12663, Control_c, 0, 67, 26
2, 12677, Control_c, 0, 67, 27
2, 12679, Note_on_c, 0, 70, 71
2, 12696, Note_on_c, 0, 72, 0
2, 12706, Note_on_c, 0, 55, 36
2, 12753, Control_c, 0, 67, 27
2, 12768, Control_c, 0, 67, 28
2, 12782, Note_on_c, 0, 67, 0
2, 12813, Control_c, 0, 67, 28
2, 12829, Control_c, 0, 67, 29
2, 12844, Control_c, 0, 67, 29
2, 12859, Control_c, 0, 67, 30
2, 12875, Control_c, 0, 67, 30
2, 12903, Note_on_c, 0, 73, 69
2, 12920, Note_on_c, 0, 70, 0
2, 12934, Control_c, 0, 67, 30
2, 13127, Note_on_c, 0, 64, 64
2, 13127, Note_on_c, 0, 73, 0
2, 13150, Note_on_c, 0, 60, 36
2, 13274, Note_on_c, 0, 55, 0
2, 13293, Control_c, 0, 67, 30
2, 13338, Control_c, 0, 67, 31
2, 13348, Note_on_c, 0, 73, 71
2, 13354, Control_c, 0, 67, 32
2, 13368, Control_c, 0, 67, 32
2, 13384, Control_c, 0, 67, 33
2, 13399, Control_c, 0, 67, 34
2, 13414, Control_c, 0, 67, 34
2, 13430, Control_c, 0, 67, 35
2, 13576, Note_on_c, 0, 72, 67
2, 13588, Note_on_c, 0, 64, 0
2, 13589, Note_on_c, 0, 73, 0
2, 13597, Control_c, 0, 67, 35
2, 13619, Note_on_c, 0, 48, 40
2, 13623, Note_on_c, 0, 52, 0
2, 13628, Control_c, 0, 67, 36
2, 13643, Control_c, 0, 67, 36
2, 13657, Control_c, 0, 67, 38
2, 13668, Note_on_c, 0, 60, 0
2, 13673, Control_c, 0, 67, 43
2, 13688, Control_c, 0, 67, 46
2, 13704, Control_c, 0, 67, 48
2, 13717, Control_c, 0, 67, 50
2, 13732, Control_c, 0, 67, 51
2, 13748, Control_c, 0, 67, 53
2, 13763, Control_c, 0, 67, 53
2, 13793, Control_c, 0, 67, 54
2, 13808, Control_c, 0, 67, 54
2, 13809, Note_on_c, 0, 70, 65
2, 13824, Control_c, 0, 67, 55
2, 13839, Control_c, 0, 67, 57
2, 13840, Note_on_c, 0, 72, 0
2, 13853, Control_c, 0, 67, 58
2, 13869, Control_c, 0, 67, 58
2, 13884, Control_c, 0, 67, 58
2, 13947, Control_c, 0, 67, 57
2, 13961, Control_c, 0, 67, 56
2, 13976, Control_c, 0, 67, 56
2, 14022, Control_c, 0, 67, 55
2, 14059, Control_c, 0, 67, 55
2, 14063, Note_on_c, 0, 69, 58
2, 14081, Note_on_c, 0, 63, 40
2, 14089, Note_on_c, 0, 41, 35
2, 14090, Control_c, 0, 67, 55
2, 14093, Note_on_c, 0, 70, 0
2, 14106, Control_c, 0, 67, 56
2, 14136, Control_c, 0, 67, 56
2, 14152, Control_c, 0, 67, 57
2, 14162, Note_on_c, 0, 48, 0
2, 14182, Control_c, 0, 67, 56
2, 14211, Control_c, 0, 67, 57
2, 14227, Control_c, 0, 67, 58
2, 14242, Control_c, 0, 67, 59
2, 14257, Control_c, 0, 67, 59
2, 14273, Control_c, 0, 67, 62
2, 14287, Control_c, 0, 67, 65
2, 14302, Note_on_c, 0, 45, 39
2, 14303, Control_c, 0, 67, 67
2, 14318, Control_c, 0, 67, 69
2, 14333, Control_c, 0, 67, 69
2, 14349, Control_c, 0, 67, 70
2, 14363, Control_c, 0, 67, 71
2, 14378, Control_c, 0, 67, 72
2, 14394, Control_c, 0, 67, 73
2, 14424, Control_c, 0, 67, 73
2, 14439, Control_c, 0, 67, 74
2, 14454, Control_c, 0, 67, 76
2, 14470, Control_c, 0, 67, 80
2, 14470, Note_on_c, 0, 45, 0
2, 14486, Control_c, 0, 67, 83
2, 14500, Control_c, 0, 67, 84
2, 14516, Control_c, 0, 67, 84
2, 14517, Note_on_c, 0, 48, 38
2, 14531, Control_c, 0, 67, 85
2, 14546, Control_c, 0, 67, 87
2, 14561, Control_c, 0, 67, 89
2, 14576, Control_c, 0, 67, 93
2, 14592, Control_c, 0, 67, 96
2, 14607, Control_c, 0, 67, 98
2, 14623, Control_c, 0, 67, 100
2, 14638, Control_c, 0, 67, 101
2, 14652, Control_c, 0, 67, 103
2, 14668, Control_c, 0, 67, 105
2, 14683, Control_c, 0, 67, 108
2, 14698, Control_c, 0, 67, 108
2, 14714, Control_c, 0, 67, 109
2, 14729, Control_c, 0, 67, 109
2, 14732, Note_on_c, 0, 70, 55
2, 14750, Note_on_c, 0, 48, 0
2, 14772, Note_on_c, 0, 53, 29
2, 14859, Note_on_c, 0, 63, 0
2, 14905, Control_c, 0, 67, 110
2, 15026, Note_on_c, 0, 72, 51
2, 15031, Note_on_c, 0, 70, 0
2, 15047, Note_on_c, 0, 61, 38
2, 15047, Note_on_c, 0, 69, 0
2, 15051, Note_on_c, 0, 42, 33
2, 15056, Note_on_c, 0, 53, 0
2, 15096, Note_on_c, 0, 41, 0
2, 15158, Note_on_c, 0, 72, 0
2, 15160, Note_on_c, 0, 70, 58
2, 15163, Control_c, 0, 67, 109
2, 15194, Control_c, 0, 67, 108
2, 15243, Note_on_c, 0, 70, 0
2, 15262, Note_on_c, 0, 72, 50
2, 15310, Note_on_c, 0, 53, 31
2, 15316, Control_c, 0, 67, 109
2, 15331, Control_c, 0, 67, 109
2, 15333, Note_on_c, 0, 72, 0
2, 15347, Note_on_c, 0, 70, 61
2, 15402, Note_on_c, 0, 70, 0
2, 15433, Note_on_c, 0, 72, 49
2, 15459, Note_on_c, 0, 53, 0
2, 15487, Note_on_c, 0, 72, 0
2, 15497, Note_on_c, 0, 70, 58
2, 15499, Note_on_c, 0, 51, 33
2, 15506, Note_on_c, 0, 61, 0
2, 15543, Note_on_c, 0, 70, 0
2, 15561, Note_on_c, 0, 72, 46
2, 15631, Note_on_c, 0, 70, 54
2, 15643, Note_on_c, 0, 72, 0
2, 15697, Note_on_c, 0, 70, 0
2, 15711, Note_on_c, 0, 69, 57
2, 15720, Note_on_c, 0, 51, 0
2, 15754, Note_on_c, 0, 54, 30
2, 15813, Note_on_c, 0, 69, 0
2, 15817, Note_on_c, 0, 70, 60
2, 15939, Note_on_c, 0, 70, 0
2, 15975, Note_on_c, 0, 72, 47
2, 16002, Note_on_c, 0, 45, 31
2, 16004, Note_on_c, 0, 42, 0
2, 16007, Control_c, 0, 67, 110
2, 16031, Note_on_c, 0, 54, 0
2, 16083, Control_c, 0, 67, 109
2, 16098, Control_c, 0, 67, 109
2, 16114, Control_c, 0, 67, 108
2, 16129, Control_c, 0, 67, 108
2, 16145, Control_c, 0, 67, 107
2, 16160, Control_c, 0, 67, 106
2, 16175, Control_c, 0, 67, 105
2, 16190, Control_c, 0, 67, 104
2, 16205, Control_c, 0, 67, 104
2, 16217, Note_on_c, 0, 65, 43
2, 16220, Control_c, 0, 67, 103
2, 16235, Control_c, 0, 67, 103
2, 16250, Control_c, 0, 67, 102
2, 16266, Control_c, 0, 67, 101
2, 16281, Control_c, 0, 67, 101
2, 16326, Control_c, 0, 67, 100
2, 16350, Control_c, 0, 67, 100
2, 16411, Control_c, 0, 67, 99
2, 16450, Note_on_c, 0, 63, 55
2, 16456, Control_c, 0, 67, 99
2, 16465, Note_on_c, 0, 48, 38
2, 16465, Note_on_c, 0, 65, 0
2, 16518, Control_c, 0, 67, 98
2, 16563, Control_c, 0, 67, 97
2, 16612, Note_on_c, 0, 45, 0
2, 16657, Note_on_c, 0, 66, 59
2, 16688, Note_on_c, 0, 63, 0
2, 16699, Control_c, 0, 67, 98
2, 16745, Control_c, 0, 67, 98
2, 16760, Control_c, 0, 67, 99
2, 16851, Control_c, 0, 67, 98
2, 16867, Control_c, 0, 67, 98
2, 16885, Note_on_c, 0, 45, 41
2, 16896, Control_c, 0, 67, 97
2, 16912, Control_c, 0, 67, 96
2, 16927, Control_c, 0, 67, 95
2, 16943, Control_c, 0, 67, 93
2, 16958, Control_c, 0, 67, 88
2, 16959, Note_on_c, 0, 48, 0
2, 16973, Control_c, 0, 67, 82
2, 16989, Control_c, 0, 67, 78
2, 17003, Control_c, 0, 67, 75
2, 17018, Control_c, 0, 67, 73
2, 17031, Note_on_c, 0, 66, 0
2, 17034, Control_c, 0, 67, 72
2, 17049, Control_c, 0, 67, 71
2, 17079, Control_c, 0, 67, 71
2, 17094, Control_c, 0, 67, 72
2, 17098, Note_on_c, 0, 66, 60
2, 17117, Control_c, 0, 67, 72
2, 17132, Control_c, 0, 67, 73
2, 17148, Control_c, 0, 67, 73
2, 17163, Control_c, 0, 67, 74
2, 17178, Control_c, 0, 67, 75
2, 17194, Control_c, 0, 67, 76
2, 17209, Control_c, 0, 67, 77
2, 17225, Control_c, 0, 67, 77
2, 17240, Control_c, 0, 67, 78
2, 17255, Control_c, 0, 67, 78
2, 17270, Control_c, 0, 67, 79
2, 17300, Control_c, 0, 67, 79
2, 17316, Control_c, 0, 67, 80
2, 17334, Note_on_c, 0, 65, 65
2, 17347, Control_c, 0, 67, 80
2, 17350, Note_on_c, 0, 41, 38
2, 17367, Note_on_c, 0, 66, 0
2, 17407, Control_c, 0, 67, 81
2, 17408, Note_on_c, 0, 45, 0
2, 17423, Control_c, 0, 67, 81
2, 17452, Control_c, 0, 67, 82
2, 17483, Control_c, 0, 67, 82
2, 17514, Control_c, 0, 67, 83
2, 17528, Control_c, 0, 67, 83
2, 17544, Control_c, 0, 67, 85
2, 17551, Note_on_c, 0, 63, 65
2, 17560, Control_c, 0, 67, 89
2, 17565, Note_on_c, 0, 65, 0
2, 17573, Control_c, 0, 67, 94
2, 17587, Control_c, 0, 67, 100
2, 17603, Control_c, 0, 67, 105
2, 17618, Control_c, 0, 67, 110
2, 17634, Control_c, 0, 67, 115
2, 17648, Control_c, 0, 67, 120
2, 17663, Control_c, 0, 67, 124
2, 17679, Control_c, 0, 67, 127
2, 17763, Note_on_c, 0, 63, 0
2, 17767, Note_on_c, 0, 61, 63
2, 17800, Note_on_c, 0, 46, 38
2, 17891, Note_on_c, 0, 41, 0
2, 17891, Note_on_c, 0, 72, 0
2, 17986, Note_on_c, 0, 72, 78
2, 18200, Note_on_c, 0, 70, 73
2, 18204, Control_c, 0, 67, 121
2, 18219, Control_c, 0, 67, 108
2, 18234, Control_c, 0, 67, 96
2, 18242, Note_on_c, 0, 72, 0
2, 18249, Control_c, 0, 67, 87
2, 18264, Control_c, 0, 67, 80
2, 18280, Control_c, 0, 67, 73
2, 18295, Control_c, 0, 67, 65
2, 18311, Control_c, 0, 67, 58
2, 18325, Control_c, 0, 67, 55
2, 18340, Control_c, 0, 67, 56
2, 18356, Control_c, 0, 67, 58
2, 18370, Control_c, 0, 67, 59
2, 18385, Control_c, 0, 67, 61
2, 18401, Control_c, 0, 67, 62
2, 18416, Control_c, 0, 67, 64
2, 18420, Note_on_c, 0, 73, 74
2, 18431, Control_c, 0, 67, 65
2, 18446, Control_c, 0, 67, 65
2, 18454, Note_on_c, 0, 70, 0
2, 18461, Control_c, 0, 67, 66
2, 18477, Control_c, 0, 67, 67
2, 18491, Control_c, 0, 67, 69
2, 18506, Control_c, 0, 67, 73
2, 18522, Control_c, 0, 67, 79
2, 18537, Control_c, 0, 67, 87
2, 18553, Control_c, 0, 67, 99
2, 18567, Control_c, 0, 67, 110
2, 18582, Control_c, 0, 67, 120
2, 18598, Control_c, 0, 67, 127
2, 18604, Note_on_c, 0, 61, 0
2, 18629, Note_on_c, 0, 67, 76
2, 18667, Note_on_c, 0, 73, 0
2, 18754, Note_on_c, 0, 46, 0
2, 18867, Note_on_c, 0, 46, 52
2, 19074, Note_on_c, 0, 70, 57
2, 19097, Note_on_c, 0, 48, 38
2, 19111, Note_on_c, 0, 70, 0
2, 19127, Note_on_c, 0, 68, 59
2, 19158, Note_on_c, 0, 68, 0
2, 19165, Note_on_c, 0, 67, 0
2, 19181, Note_on_c, 0, 70, 55
2, 19220, Note_on_c, 0, 68, 67
2, 19225, Note_on_c, 0, 70, 0
2, 19245, Note_on_c, 0, 46, 0
2, 19322, Note_on_c, 0, 48, 0
2, 19334, Note_on_c, 0, 49, 43
2, 19591, Note_on_c, 0, 70, 58
2, 19592, Note_on_c, 0, 68, 0
2, 19618, Note_on_c, 0, 43, 33
2, 19689, Note_on_c, 0, 49, 0
2, 19837, Note_on_c, 0, 60, 58
2, 20060, Note_on_c, 0, 61, 56
2, 20069, Note_on_c, 0, 60, 0
2, 20082, Note_on_c, 0, 46, 39
2, 20191, Note_on_c, 0, 43, 0
2, 20286, Note_on_c, 0, 65, 55
2, 20295, Note_on_c, 0, 61, 0
2, 20519, Note_on_c, 0, 46, 0
2, 20538, Note_on_c, 0, 51, 33
2, 20541, Note_on_c, 0, 55, 25
2, 20684, Note_on_c, 0, 65, 0
2, 20731, Note_on_c, 0, 65, 40
2, 20787, Note_on_c, 0, 55, 0
2, 20992, Note_on_c, 0, 63, 49
2, 21042, Note_on_c, 0, 39, 18
2, 21066, Note_on_c, 0, 65, 0
2, 21227, Note_on_c, 0, 61, 46
2, 21231, Note_on_c, 0, 63, 0
2, 21259, Note_on_c, 0, 51, 0
2, 21526, Note_on_c, 0, 60, 42
2, 21528, Note_on_c, 0, 44, 33
2, 21536, Note_on_c, 0, 61, 0
2, 21588, Note_on_c, 0, 39, 0
2, 21848, Note_on_c, 0, 68, 38
2, 21868, Note_on_c, 0, 48, 40
2, 21869, Note_on_c, 0, 70, 0
2, 22085, Note_on_c, 0, 51, 29
2, 22096, Note_on_c, 0, 72, 50
2, 22109, Note_on_c, 0, 68, 0
2, 22116, Note_on_c, 0, 48, 0
2, 22310, Note_on_c, 0, 51, 0
2, 22312, Note_on_c, 0, 56, 25
2, 22423, Note_on_c, 0, 60, 0
2, 22514, Note_on_c, 0, 44, 0
2, 22533, Note_on_c, 0, 61, 52
2, 22543, Note_on_c, 0, 46, 39
2, 22594, Note_on_c, 0, 56, 0
2, 22702, Control_c, 0, 67, 125
2, 22717, Control_c, 0, 67, 119
2, 22732, Control_c, 0, 67, 112
2, 22735, Note_on_c, 0, 70, 51
2, 22747, Control_c, 0, 67, 104
2, 22747, Note_on_c, 0, 72, 0
2, 22763, Control_c, 0, 67, 97
2, 22763, Note_on_c, 0, 56, 41
2, 22778, Control_c, 0, 67, 91
2, 22793, Control_c, 0, 67, 87
2, 22808, Control_c, 0, 67, 85
2, 22823, Control_c, 0, 67, 84
2, 22839, Control_c, 0, 67, 84
2, 22854, Control_c, 0, 67, 85
2, 22869, Control_c, 0, 67, 86
2, 22884, Control_c, 0, 67, 86
2, 22899, Control_c, 0, 67, 87
2, 22916, Control_c, 0, 67, 88
2, 22931, Control_c, 0, 67, 90
2, 22946, Control_c, 0, 67, 91
2, 22959, Note_on_c, 0, 70, 0
2, 22962, Control_c, 0, 67, 91
2, 22969, Note_on_c, 0, 73, 56
2, 22975, Note_on_c, 0, 55, 43
2, 22976, Control_c, 0, 67, 92
2, 22991, Control_c, 0, 67, 94
2, 22997, Note_on_c, 0, 56, 0
2, 23007, Control_c, 0, 67, 97
2, 23022, Control_c, 0, 67, 103
2, 23038, Control_c, 0, 67, 114
2, 23053, Control_c, 0, 67, 127
2, 23067, Control_c, 0, 67, 127
2, 23114, Note_on_c, 0, 55, 0
2, 23178, Note_on_c, 0, 58, 44
2, 23237, Note_on_c, 0, 61, 0
2, 23297, Note_on_c, 0, 46, 0
2, 23402, Note_on_c, 0, 63, 66
2, 23417, Note_on_c, 0, 48, 53
2, 23570, Note_on_c, 0, 58, 0
2, 23624, Note_on_c, 0, 72, 66
2, 23642, Note_on_c, 0, 51, 39
2, 23687, Note_on_c, 0, 73, 0
2, 23834, Note_on_c, 0, 51, 0
2, 23842, Note_on_c, 0, 75, 65
2, 23850, Note_on_c, 0, 72, 0
2, 23854, Note_on_c, 0, 56, 37
2, 24025, Note_on_c, 0, 56, 0
2, 24060, Note_on_c, 0, 60, 42
2, 24265, Note_on_c, 0, 65, 74
2, 24270, Note_on_c, 0, 48, 0
2, 24271, Note_on_c, 0, 49, 57
2, 24276, Note_on_c, 0, 63, 0
2, 24318, Note_on_c, 0, 60, 0
2, 24438, Control_c, 0, 67, 126
2, 24452, Control_c, 0, 67, 123
2, 24469, Control_c, 0, 67, 119
2, 24481, Note_on_c, 0, 73, 67
2, 24484, Control_c, 0, 67, 116
2, 24489, Note_on_c, 0, 60, 45
2, 24499, Control_c, 0, 67, 113
2, 24515, Control_c, 0, 67, 111
2, 24531, Control_c, 0, 67, 109
2, 24531, Note_on_c, 0, 75, 0
2, 24578, Control_c, 0, 67, 110
2, 24608, Control_c, 0, 67, 111
2, 24624, Control_c, 0, 67, 112
2, 24639, Control_c, 0, 67, 112
2, 24654, Control_c, 0, 67, 113
2, 24657, Note_on_c, 0, 60, 0
2, 24670, Control_c, 0, 67, 114
2, 24684, Control_c, 0, 67, 115
2, 24688, Note_on_c, 0, 77, 72
2, 24693, Note_on_c, 0, 58, 48
2, 24716, Note_on_c, 0, 73, 0
2, 24746, Control_c, 0, 67, 116
2, 24760, Control_c, 0, 67, 116
2, 24775, Control_c, 0, 67, 117
2, 24799, Control_c, 0, 67, 117
2, 24829, Control_c, 0, 67, 118
2, 24862, Note_on_c, 0, 58, 0
2, 24889, Control_c, 0, 67, 117
2, 24899, Note_on_c, 0, 61, 53
2, 24948, Note_on_c, 0, 65, 0
2, 25027, Control_c, 0, 67, 118
2, 25087, Control_c, 0, 67, 117
2, 25114, Note_on_c, 0, 67, 74
2, 25121, Note_on_c, 0, 51, 52
2, 25124, Note_on_c, 0, 49, 0
2, 25173, Note_on_c, 0, 61, 0
2, 25194, Control_c, 0, 67, 118
2, 25319, Note_on_c, 0, 75, 72
2, 25329, Note_on_c, 0, 55, 55
2, 25366, Note_on_c, 0, 77, 0
2, 25377, Control_c, 0, 67, 118
2, 25452, Control_c, 0, 67, 119
2, 25468, Control_c, 0, 67, 119
2, 25483, Control_c, 0, 67, 120
2, 25498, Control_c, 0, 67, 121
2, 25514, Control_c, 0, 67, 122
2, 25528, Control_c, 0, 67, 123
2, 25528, Note_on_c, 0, 73, 72
2, 25544, Control_c, 0, 67, 126
2, 25546, Note_on_c, 0, 58, 55
2, 25567, Control_c, 0, 67, 127
2, 25572, Note_on_c, 0, 55, 0
2, 25582, Note_on_c, 0, 75, 0
2, 25734, Note_on_c, 0, 72, 73
2, 25735, Note_on_c, 0, 58, 0
2, 25754, Note_on_c, 0, 63, 51
2, 25756, Note_on_c, 0, 73, 0
2, 25926, Note_on_c, 0, 67, 0
2, 25947, Note_on_c, 0, 53, 64
2, 25959, Note_on_c, 0, 70, 74
2, 25990, Note_on_c, 0, 72, 0
2, 25998, Note_on_c, 0, 51, 0
2, 26035, Note_on_c, 0, 63, 0
2, 26149, Note_on_c, 0, 67, 75
2, 26151, Note_on_c, 0, 70, 0
2, 26155, Note_on_c, 0, 63, 55
2, 26367, Note_on_c, 0, 68, 73
2, 26374, Note_on_c, 0, 67, 0
2, 26381, Note_on_c, 0, 61, 50
2, 26398, Note_on_c, 0, 63, 0
2, 26557, Note_on_c, 0, 61, 0
2, 26575, Note_on_c, 0, 73, 68
2, 26577, Note_on_c, 0, 65, 58
2, 26598, Note_on_c, 0, 68, 0
2, 26817, Note_on_c, 0, 55, 56
2, 26818, Note_on_c, 0, 72, 62
2, 26857, Note_on_c, 0, 73, 0
2, 26882, Note_on_c, 0, 53, 0
2, 26888, Note_on_c, 0, 65, 0
2, 26941, Note_on_c, 0, 72, 0
2, 26947, Note_on_c, 0, 70, 61
2, 27026, Note_on_c, 0, 70, 0
2, 27043, Note_on_c, 0, 65, 46
2, 27044, Note_on_c, 0, 72, 61
2, 27113, Note_on_c, 0, 72, 0
2, 27127, Note_on_c, 0, 70, 57
2, 27192, Note_on_c, 0, 70, 0
2, 27205, Note_on_c, 0, 72, 57
2, 27206, Note_on_c, 0, 65, 0
2, 27235, Note_on_c, 0, 63, 44
2, 27260, Note_on_c, 0, 72, 0
2, 27275, Note_on_c, 0, 70, 47
2, 27330, Note_on_c, 0, 70, 0
2, 27339, Note_on_c, 0, 72, 49
2, 27397, Note_on_c, 0, 72, 0
2, 27404, Note_on_c, 0, 63, 0
2, 27406, Note_on_c, 0, 70, 37
2, 27447, Note_on_c, 0, 61, 35
2, 27639, Note_on_c, 0, 61, 0
2, 27639, Note_on_c, 0, 70, 0
2, 27659, Note_on_c, 0, 60, 45
2, 27674, Note_on_c, 0, 56, 44
2, 27721, Note_on_c, 0, 55, 0
2, 27895, Note_on_c, 0, 63, 47
2, 28106, Note_on_c, 0, 65, 63
2, 28112, Note_on_c, 0, 63, 0
2, 28118, Note_on_c, 0, 55, 43
2, 28182, Note_on_c, 0, 56, 0
2, 28323, Note_on_c, 0, 67, 79
2, 28372, Note_on_c, 0, 65, 0
2, 28554, Note_on_c, 0, 67, 0
2, 28556, Note_on_c, 0, 68, 72
2, 28562, Note_on_c, 0, 53, 53
2, 28568, Note_on_c, 0, 55, 0
2, 28773, Note_on_c, 0, 68, 0
2, 28782, Note_on_c, 0, 67, 70
2, 28988, Note_on_c, 0, 49, 37
2, 28993, Note_on_c, 0, 53, 0
2, 29008, Note_on_c, 0, 68, 64
2, 29009, Note_on_c, 0, 67, 0
2, 29246, Note_on_c, 0, 77, 61
2, 29254, Note_on_c, 0, 68, 0
2, 29393, Note_on_c, 0, 60, 0
2, 29518, Note_on_c, 0, 75, 51
2, 29525, Note_on_c, 0, 60, 41
2, 29545, Note_on_c, 0, 49, 0
2, 29555, Note_on_c, 0, 51, 31
2, 29587, Note_on_c, 0, 77, 0
2, 29632, Note_on_c, 0, 60, 0
2, 29667, Note_on_c, 0, 58, 40
2, 29769, Note_on_c, 0, 58, 0
2, 29791, Note_on_c, 0, 68, 53
2, 29792, Note_on_c, 0, 75, 0
2, 29803, Note_on_c, 0, 60, 38
2, 29885, Note_on_c, 0, 60, 0
2, 29916, Note_on_c, 0, 58, 45
2, 30039, Note_on_c, 0, 58, 0
2, 30060, Note_on_c, 0, 68, 0
2, 30063, Note_on_c, 0, 67, 46
2, 30065, Note_on_c, 0, 60, 35
2, 30174, Note_on_c, 0, 60, 0
2, 30212, Note_on_c, 0, 58, 36
2, 30337, Note_on_c, 0, 58, 0
2, 30393, Note_on_c, 0, 56, 35
2, 30394, Note_on_c, 0, 67, 0
2, 30396, Note_on_c, 0, 73, 40
2, 30529, Note_on_c, 0, 56, 0
2, 30585, Note_on_c, 0, 58, 36
2, 30662, Note_on_c, 0, 58, 0
2, 30844, Note_on_c, 0, 72, 39
2, 30870, Note_on_c, 0, 73, 0
2, 30876, Note_on_c, 0, 44, 31
2, 30876, Note_on_c, 0, 56, 25
2, 30954, Note_on_c, 0, 51, 0
2, 31157, Note_on_c, 0, 68, 38
2, 31161, Note_on_c, 0, 72, 0
2, 31366, Note_on_c, 0, 68, 0
2, 31385, Note_on_c, 0, 44, 0
2, 31394, Note_on_c, 0, 72, 52
2, 31440, Note_on_c, 0, 56, 0
2, 31623, Note_on_c, 0, 72, 0
2, 31625, Note_on_c, 0, 76, 60
2, 31652, Control_c, 0, 67, 127
2, 31667, Control_c, 0, 67, 123
2, 31683, Control_c, 0, 67, 120
2, 31705, Control_c, 0, 67, 117
2, 31721, Control_c, 0, 67, 116
2, 31736, Control_c, 0, 67, 114
2, 31750, Control_c, 0, 67, 113
2, 31766, Control_c, 0, 67, 111
2, 31781, Control_c, 0, 67, 110
2, 31826, Control_c, 0, 67, 111
2, 31837, Note_on_c, 0, 77, 62
2, 31859, Note_on_c, 0, 76, 0
2, 31887, Control_c, 0, 67, 111
2, 31918, Control_c, 0, 67, 112
2, 31949, Control_c, 0, 67, 112
2, 32074, Note_on_c, 0, 79, 62
2, 32078, Note_on_c, 0, 77, 0
2, 32082, Note_on_c, 0, 56, 36
2, 32176, Control_c, 0, 67, 112
2, 32302, Note_on_c, 0, 76, 68
2, 32308, Note_on_c, 0, 55, 38
2, 32329, Control_c, 0, 67, 112
2, 32335, Note_on_c, 0, 79, 0
2, 32355, Note_on_c, 0, 56, 0
2, 32375, Control_c, 0, 67, 113
2, 32420, Control_c, 0, 67, 113
2, 32451, Control_c, 0, 67, 114
2, 32503, Control_c, 0, 67, 114
2, 32522, Note_on_c, 0, 76, 0
2, 32522, Note_on_c, 0, 77, 75
2, 32529, Note_on_c, 0, 55, 0
2, 32546, Note_on_c, 0, 53, 37
2, 32670, Control_c, 0, 67, 114
2, 32740, Note_on_c, 0, 53, 0
2, 32763, Note_on_c, 0, 79, 69
2, 32770, Note_on_c, 0, 52, 39
2, 32775, Note_on_c, 0, 77, 0
2, 32854, Control_c, 0, 67, 113
2, 32899, Control_c, 0, 67, 114
2, 32929, Control_c, 0, 67, 114
2, 32943, Control_c, 0, 67, 115
2, 32959, Control_c, 0, 67, 116
2, 32974, Control_c, 0, 67, 116
2, 32989, Control_c, 0, 67, 117
2, 32991, Note_on_c, 0, 55, 53
2, 33005, Control_c, 0, 67, 118
2, 33020, Control_c, 0, 67, 119
2, 33035, Control_c, 0, 67, 120
2, 33050, Control_c, 0, 67, 121
2, 33065, Control_c, 0, 67, 122
2, 33096, Control_c, 0, 67, 122
2, 33127, Control_c, 0, 67, 123
2, 33157, Control_c, 0, 67, 122
2, 33172, Control_c, 0, 67, 122
2, 33208, Note_on_c, 0, 58, 65
2, 33232, Note_on_c, 0, 55, 0
2, 33240, Control_c, 0, 67, 121
2, 33332, Control_c, 0, 67, 122
2, 33377, Control_c, 0, 67, 122
2, 33392, Control_c, 0, 67, 123
2, 33422, Note_on_c, 0, 58, 0
2, 33423, Control_c, 0, 67, 123
2, 33448, Note_on_c, 0, 61, 61
2, 33453, Control_c, 0, 67, 125
2, 33468, Control_c, 0, 67, 127
2, 33660, Note_on_c, 0, 48, 45
2, 33665, Note_on_c, 0, 61, 0
2, 33684, Note_on_c, 0, 52, 0
2, 33896, Note_on_c, 0, 53, 38
2, 34114, Note_on_c, 0, 53, 0
2, 34126, Note_on_c, 0, 52, 32
2, 34283, Note_on_c, 0, 52, 0
2, 34355, Note_on_c, 0, 55, 21
2, 34573, Note_on_c, 0, 55, 0
2, 34582, Note_on_c, 0, 56, 36
2, 34585, Note_on_c, 0, 48, 0
2, 34805, Note_on_c, 0, 79, 0
2, 34814, Note_on_c, 0, 72, 53
2, 35060, Note_on_c, 0, 72, 0
2, 35061, Note_on_c, 0, 77, 65
2, 35286, Note_on_c, 0, 77, 0
2, 35286, Note_on_c, 0, 80, 59
2, 35456, Note_on_c, 0, 80, 0
2, 35458, Note_on_c, 0, 56, 0
2, 35499, Note_on_c, 0, 74, 50
2, 35701, Note_on_c, 0, 74, 0
2, 35719, Note_on_c, 0, 77, 49
2, 35733, Note_on_c, 0, 53, 33
2, 35947, Note_on_c, 0, 77, 0
2, 35951, Note_on_c, 0, 71, 48
2, 35971, Note_on_c, 0, 51, 35
2, 35974, Note_on_c, 0, 53, 0
2, 36147, Note_on_c, 0, 71, 0
2, 36153, Note_on_c, 0, 72, 48
2, 36185, Note_on_c, 0, 51, 0
2, 36187, Note_on_c, 0, 50, 38
2, 36428, Note_on_c, 0, 72, 0
2, 36430, Note_on_c, 0, 71, 44
2, 36443, Note_on_c, 0, 55, 36
2, 36445, Note_on_c, 0, 50, 0
2, 36527, Note_on_c, 0, 71, 0
2, 36539, Note_on_c, 0, 72, 55
2, 36647, Note_on_c, 0, 72, 0
2, 36655, Note_on_c, 0, 71, 57
2, 36689, Note_on_c, 0, 59, 26
2, 36728, Note_on_c, 0, 71, 0
2, 36737, Note_on_c, 0, 72, 63
2, 36831, Note_on_c, 0, 72, 0
2, 36845, Note_on_c, 0, 71, 64
2, 36848, Note_on_c, 0, 59, 0
2, 36875, Note_on_c, 0, 62, 43
2, 36914, Note_on_c, 0, 71, 0
2, 36921, Note_on_c, 0, 72, 65
2, 36951, Note_on_c, 0, 62, 0
2, 36951, Note_on_c, 0, 62, 7
2, 37018, Note_on_c, 0, 72, 0
2, 37043, Note_on_c, 0, 71, 64
2, 37075, Note_on_c, 0, 67, 42
2, 37113, Note_on_c, 0, 67, 0
2, 37113, Note_on_c, 0, 67, 13
2, 37130, Note_on_c, 0, 62, 0
2, 37135, Note_on_c, 0, 71, 0
2, 37142, Note_on_c, 0, 72, 70
2, 37159, Note_on_c, 0, 55, 0
2, 37284, Note_on_c, 0, 72, 0
2, 37295, Note_on_c, 0, 74, 64
2, 37300, Note_on_c, 0, 56, 52
2, 37365, Note_on_c, 0, 67, 0
2, 37377, Note_on_c, 0, 74, 0
2, 37394, Note_on_c, 0, 72, 65
2, 37468, Note_on_c, 0, 72, 0
2, 37484, Note_on_c, 0, 74, 64
2, 37490, Note_on_c, 0, 67, 59
2, 37539, Note_on_c, 0, 74, 0
2, 37554, Note_on_c, 0, 72, 67
2, 37606, Note_on_c, 0, 72, 0
2, 37617, Note_on_c, 0, 74, 62
2, 37659, Note_on_c, 0, 74, 0
2, 37664, Note_on_c, 0, 67, 0
2, 37667, Note_on_c, 0, 72, 61
2, 37677, Note_on_c, 0, 65, 52
2, 37719, Note_on_c, 0, 72, 0
2, 37722, Note_on_c, 0, 74, 63
2, 37769, Note_on_c, 0, 74, 0
2, 37780, Note_on_c, 0, 72, 67
2, 37854, Note_on_c, 0, 72, 0
2, 37864, Note_on_c, 0, 71, 75
2, 37869, Note_on_c, 0, 65, 0
2, 37884, Note_on_c, 0, 68, 56
2, 37947, Note_on_c, 0, 71, 0
2, 37964, Note_on_c, 0, 72, 74
2, 38045, Note_on_c, 0, 72, 0
2, 38077, Note_on_c, 0, 59, 57
2, 38084, Note_on_c, 0, 74, 74
2, 38114, Note_on_c, 0, 56, 0
2, 38131, Note_on_c, 0, 68, 0
2, 38298, Note_on_c, 0, 79, 82
2, 38501, Note_on_c, 0, 77, 82
2, 38510, Note_on_c, 0, 62, 55
2, 38525, Note_on_c, 0, 79, 0
2, 38575, Note_on_c, 0, 74, 0
2, 38735, Note_on_c, 0, 80, 82
2, 38873, Note_on_c, 0, 77, 0
2, 38960, Note_on_c, 0, 71, 78
2, 38977, Note_on_c, 0, 67, 54
2, 39004, Note_on_c, 0, 80, 0
2, 39178, Note_on_c, 0, 80, 85
2, 39347, Note_on_c, 0, 62, 0
2, 39416, Note_on_c, 0, 79, 79
2, 39425, Note_on_c, 0, 55, 48
2, 39451, Note_on_c, 0, 80, 0
2, 39547, Note_on_c, 0, 59, 0
2, 39622, Note_on_c, 0, 71, 0
2, 39648, Note_on_c, 0, 77, 81
2, 39691, Note_on_c, 0, 79, 0
2, 39879, Note_on_c, 0, 75, 74
2, 39884, Note_on_c, 0, 60, 53
2, 39927, Note_on_c, 0, 77, 0
2, 39936, Note_on_c, 0, 67, 0
2, 39978, Note_on_c, 0, 55, 0
2, 40097, Note_on_c, 0, 84, 81
2, 40329, Note_on_c, 0, 77, 70
2, 40346, Note_on_c, 0, 56, 43
2, 40388, Note_on_c, 0, 75, 0
2, 40557, Note_on_c, 0, 83, 81
2, 40587, Note_on_c, 0, 84, 0
2, 40801, Note_on_c, 0, 51, 39
2, 40804, Note_on_c, 0, 84, 70
2, 40814, Note_on_c, 0, 83, 0
2, 40853, Note_on_c, 0, 56, 0
2, 41042, Note_on_c, 0, 79, 69
2, 41125, Note_on_c, 0, 77, 0
2, 41254, Note_on_c, 0, 53, 38
2, 41259, Note_on_c, 0, 80, 64
2, 41302, Note_on_c, 0, 51, 0
2, 41311, Note_on_c, 0, 84, 0
2, 41393, Note_on_c, 0, 79, 0
2, 41458, Note_on_c, 0, 80, 0
2, 41467, Note_on_c, 0, 77, 57
2, 41692, Note_on_c, 0, 75, 57
2, 41704, Note_on_c, 0, 55, 29
2, 41727, Note_on_c, 0, 77, 0
2, 41780, Note_on_c, 0, 53, 0
2, 41919, Note_on_c, 0, 71, 65
2, 42112, Note_on_c, 0, 71, 0
2, 42148, Note_on_c, 0, 72, 62
2, 42353, Note_on_c, 0, 66, 56
2, 42387, Note_on_c, 0, 72, 0
2, 42573, Note_on_c, 0, 66, 0
2, 42606, Note_on_c, 0, 67, 52
2, 42824, Note_on_c, 0, 72, 53
2, 42890, Note_on_c, 0, 75, 0
2, 43093, Note_on_c, 0, 74, 46
2, 43097, Note_on_c, 0, 67, 0
2, 43129, Note_on_c, 0, 59, 28
2, 43200, Note_on_c, 0, 60, 0
2, 43315, Note_on_c, 0, 72, 0
2, 43346, Note_on_c, 0, 65, 46
2, 43601, Note_on_c, 0, 72, 51
2, 43605, Note_on_c, 0, 48, 36
2, 43606, Note_on_c, 0, 60, 36
2, 43639, Note_on_c, 0, 74, 0
2, 43694, Note_on_c, 0, 55, 0
2, 43707, Note_on_c, 0, 65, 0
2, 43768, Note_on_c, 0, 59, 0
2, 43831, Note_on_c, 0, 65, 49
2, 44061, Note_on_c, 0, 64, 49
2, 44067, Note_on_c, 0, 55, 39
2, 44121, Note_on_c, 0, 65, 0
2, 44130, Note_on_c, 0, 60, 0
2, 44279, Note_on_c, 0, 67, 54
2, 44290, Note_on_c, 0, 64, 0
2, 44510, Note_on_c, 0, 67, 0
2, 44541, Note_on_c, 0, 60, 41
2, 44796, Note_on_c, 0, 53, 38
2, 44894, Note_on_c, 0, 55, 0
2, 45095, Note_on_c, 0, 52, 35
2, 45155, Note_on_c, 0, 53, 0
2, 45340, Note_on_c, 0, 52, 0
2, 45395, Note_on_c, 0, 55, 35
2, 45482, Note_on_c, 0, 48, 0
2, 45525, Note_on_c, 0, 60, 0
2, 45867, Note_on_c, 0, 45, 35
2, 45889, Note_on_c, 0, 65, 43
2, 45925, Note_on_c, 0, 72, 0
2, 46032, Note_on_c, 0, 55, 0
2, 46207, Note_on_c, 0, 69, 36
2, 46430, Note_on_c, 0, 69, 0
2, 46449, Note_on_c, 0, 72, 37
2, 46467, Note_on_c, 0, 53, 28
2, 46646, Note_on_c, 0, 72, 0
2, 46655, Note_on_c, 0, 75, 47
2, 46891, Note_on_c, 0, 69, 60
2, 46917, Note_on_c, 0, 41, 30
2, 46932, Note_on_c, 0, 65, 0
2, 47026, Note_on_c, 0, 45, 0
2, 47101, Note_on_c, 0, 53, 0
2, 47107, Note_on_c, 0, 78, 75
2, 47197, Note_on_c, 0, 75, 0
2, 47290, Control_c, 0, 67, 121
2, 47305, Control_c, 0, 67, 114
2, 47320, Control_c, 0, 67, 108
2, 47329, Note_on_c, 0, 72, 69
2, 47333, Note_on_c, 0, 53, 38
2, 47336, Control_c, 0, 67, 101
2, 47351, Control_c, 0, 67, 94
2, 47367, Control_c, 0, 67, 86
2, 47380, Note_on_c, 0, 78, 0
2, 47382, Control_c, 0, 67, 83
2, 47397, Control_c, 0, 67, 84
2, 47412, Control_c, 0, 67, 85
2, 47427, Control_c, 0, 67, 86
2, 47442, Control_c, 0, 67, 87
2, 47457, Control_c, 0, 67, 87
2, 47472, Control_c, 0, 67, 88
2, 47489, Control_c, 0, 67, 89
2, 47504, Control_c, 0, 67, 89
2, 47519, Control_c, 0, 67, 90
2, 47532, Note_on_c, 0, 75, 69
2, 47535, Control_c, 0, 67, 90
2, 47540, Note_on_c, 0, 72, 0
2, 47565, Control_c, 0, 67, 91
2, 47611, Control_c, 0, 67, 91
2, 47656, Control_c, 0, 67, 92
2, 47697, Note_on_c, 0, 53, 0
2, 47754, Note_on_c, 0, 41, 0
2, 47767, Note_on_c, 0, 73, 65
2, 47781, Note_on_c, 0, 46, 53
2, 47789, Note_on_c, 0, 69, 0
2, 47830, Note_on_c, 0, 75, 0
2, 47994, Note_on_c, 0, 49, 52
2, 47998, Control_c, 0, 67, 91
2, 48029, Control_c, 0, 67, 91
2, 48119, Control_c, 0, 67, 90
2, 48204, Note_on_c, 0, 49, 0
2, 48211, Note_on_c, 0, 70, 57
2, 48214, Note_on_c, 0, 53, 48
2, 48384, Note_on_c, 0, 53, 0
2, 48405, Note_on_c, 0, 58, 55
2, 48409, Control_c, 0, 67, 91
2, 48465, Note_on_c, 0, 70, 0
2, 48531, Control_c, 0, 67, 91
2, 48561, Control_c, 0, 67, 92
2, 48614, Control_c, 0, 67, 92
2, 48625, Note_on_c, 0, 64, 62
2, 48631, Note_on_c, 0, 48, 61
2, 48645, Control_c, 0, 67, 93
2, 48674, Control_c, 0, 67, 93
2, 48687, Note_on_c, 0, 58, 0
2, 48705, Control_c, 0, 67, 94
2, 48706, Note_on_c, 0, 46, 0
2, 48736, Control_c, 0, 67, 94
2, 48766, Control_c, 0, 67, 95
2, 48796, Control_c, 0, 67, 95
2, 48855, Note_on_c, 0, 58, 46
2, 48858, Control_c, 0, 67, 95
2, 48903, Control_c, 0, 67, 94
2, 49051, Note_on_c, 0, 72, 69
2, 49055, Note_on_c, 0, 58, 0
2, 49062, Note_on_c, 0, 56, 45
2, 49093, Note_on_c, 0, 73, 0
2, 49238, Control_c, 0, 67, 94
2, 49248, Note_on_c, 0, 60, 60
2, 49316, Note_on_c, 0, 64, 0
2, 49338, Note_on_c, 0, 56, 0
2, 49382, Control_c, 0, 67, 94
2, 49444, Control_c, 0, 67, 95
2, 49466, Note_on_c, 0, 60, 0
2, 49468, Note_on_c, 0, 65, 66
2, 49488, Note_on_c, 0, 50, 55
2, 49489, Control_c, 0, 67, 95
2, 49500, Note_on_c, 0, 53, 47
2, 49518, Note_on_c, 0, 48, 0
2, 49549, Control_c, 0, 67, 96
2, 49565, Control_c, 0, 67, 96
2, 49580, Control_c, 0, 67, 97
2, 49594, Control_c, 0, 67, 101
2, 49610, Control_c, 0, 67, 107
2, 49625, Control_c, 0, 67, 114
2, 49640, Control_c, 0, 67, 121
2, 49656, Control_c, 0, 67, 127
2, 49677, Note_on_c, 0, 70, 71
2, 49709, Note_on_c, 0, 53, 0
2, 49729, Note_on_c, 0, 72, 0
2, 49885, Note_on_c, 0, 52, 67
2, 49889, Note_on_c, 0, 67, 77
2, 49897, Note_on_c, 0, 50, 0
2, 49909, Note_on_c, 0, 65, 0
2, 49911, Note_on_c, 0, 55, 16
2, 49918, Note_on_c, 0, 70, 0
2, 50091, Note_on_c, 0, 67, 0
2, 50096, Note_on_c, 0, 64, 72
2, 50308, Note_on_c, 0, 60, 67
2, 50331, Note_on_c, 0, 56, 41
2, 50336, Note_on_c, 0, 53, 48
2, 50353, Note_on_c, 0, 64, 0
2, 50374, Note_on_c, 0, 55, 0
2, 50437, Note_on_c, 0, 52, 0
2, 50520, Note_on_c, 0, 64, 64
2, 50521, Note_on_c, 0, 60, 0
2, 50740, Note_on_c, 0, 65, 64
2, 50747, Note_on_c, 0, 64, 0
2, 50964, Note_on_c, 0, 65, 0
2, 50971, Note_on_c, 0, 71, 60
2, 51209, Note_on_c, 0, 71, 0
2, 51209, Note_on_c, 0, 72, 57
2, 51236, Note_on_c, 0, 48, 32
2, 51242, Note_on_c, 0, 55, 29
2, 51337, Note_on_c, 0, 56, 0
2, 51346, Note_on_c, 0, 53, 0
2, 51451, Note_on_c, 0, 65, 53
2, 51668, Note_on_c, 0, 65, 0
2, 51676, Note_on_c, 0, 64, 60
2, 51894, Note_on_c, 0, 67, 73
2, 51925, Note_on_c, 0, 72, 0
2, 51928, Note_on_c, 0, 64, 0
2, 52118, Note_on_c, 0, 70, 72
2, 52126, Note_on_c, 0, 67, 0
2, 52334, Note_on_c, 0, 73, 66
2, 52346, Note_on_c, 0, 70, 0
2, 52564, Note_on_c, 0, 72, 58
2, 52576, Note_on_c, 0, 73, 0
2, 52787, Note_on_c, 0, 72, 0
2, 52794, Note_on_c, 0, 70, 51
2, 52814, Note_on_c, 0, 49, 36
2, 52905, Note_on_c, 0, 48, 0
2, 53059, Note_on_c, 0, 69, 54
2, 53065, Note_on_c, 0, 70, 0
2, 53073, Note_on_c, 0, 51, 30
2, 53096, Note_on_c, 0, 53, 31
2, 53098, Note_on_c, 0, 49, 0
2, 53098, Note_on_c, 0, 55, 0
2, 53309, Note_on_c, 0, 65, 57
2, 53336, Note_on_c, 0, 69, 0
2, 53536, Note_on_c, 0, 63, 67
2, 53547, Note_on_c, 0, 69, 63
2, 53550, Note_on_c, 0, 65, 0
2, 53566, Note_on_c, 0, 53, 0
2, 53621, Note_on_c, 0, 51, 0
2, 53750, Note_on_c, 0, 69, 0
2, 53756, Note_on_c, 0, 72, 72
2, 53975, Note_on_c, 0, 77, 70
2, 53985, Note_on_c, 0, 61, 63
2, 54005, Note_on_c, 0, 72, 0
2, 54059, Note_on_c, 0, 63, 0
2, 54227, Note_on_c, 0, 70, 56
2, 54440, Note_on_c, 0, 69, 50
2, 54447, Note_on_c, 0, 60, 47
2, 54460, Note_on_c, 0, 70, 0
2, 54490, Note_on_c, 0, 61, 0
2, 54680, Note_on_c, 0, 75, 53
2, 54783, Note_on_c, 0, 69, 0
2, 54810, Note_on_c, 0, 77, 0
2, 54891, Note_on_c, 0, 60, 0
2, 54914, Note_on_c, 0, 73, 60
2, 54920, Note_on_c, 0, 58, 43
2, 54922, Note_on_c, 0, 75, 0
2, 54986, Control_c, 0, 64, 32
2, 55001, Control_c, 0, 64, 42
2, 55016, Control_c, 0, 64, 52
2, 55031, Control_c, 0, 64, 59
2, 55047, Control_c, 0, 64, 62
2, 55061, Control_c, 0, 64, 63
2, 55092, Control_c, 0, 64, 63
2, 55107, Control_c, 0, 64, 61
2, 55122, Control_c, 0, 64, 55
2, 55138, Control_c, 0, 64, 25
2, 55152, Control_c, 0, 64, 0
2, 55167, Note_on_c, 0, 68, 60
2, 55169, Note_on_c, 0, 53, 37
2, 55380, Note_on_c, 0, 67, 61
2, 55397, Note_on_c, 0, 49, 47
2, 55397, Note_on_c, 0, 68, 0
2, 55404, Note_on_c, 0, 53, 0
2, 55575, Note_on_c, 0, 67, 0
2, 55594, Note_on_c, 0, 49, 0
2, 55594, Note_on_c, 0, 70, 64
2, 55596, Note_on_c, 0, 46, 54
2, 55808, Note_on_c, 0, 55, 55
2, 55810, Note_on_c, 0, 64, 63
2, 55813, Note_on_c, 0, 58, 0
2, 55814, Note_on_c, 0, 70, 0
2, 55826, Note_on_c, 0, 46, 0
2, 55878, Note_on_c, 0, 73, 0
2, 56026, Note_on_c, 0, 72, 76
2, 56038, Note_on_c, 0, 48, 54
2, 56128, Note_on_c, 0, 64, 0
2, 56235, Note_on_c, 0, 65, 72
2, 56242, Note_on_c, 0, 49, 58
2, 56272, Note_on_c, 0, 48, 0
2, 56442, Note_on_c, 0, 70, 78
2, 56468, Note_on_c, 0, 65, 0
2, 56469, Note_on_c, 0, 46, 59
2, 56473, Note_on_c, 0, 72, 0
2, 56484, Note_on_c, 0, 49, 0
2, 56663, Note_on_c, 0, 64, 67
2, 56669, Note_on_c, 0, 48, 60
2, 56679, Note_on_c, 0, 46, 0
2, 56697, Note_on_c, 0, 55, 0
2, 56712, Note_on_c, 0, 70, 0
2, 56868, Note_on_c, 0, 73, 80
2, 56888, Note_on_c, 0, 55, 58
2, 57088, Note_on_c, 0, 72, 77
2, 57091, Note_on_c, 0, 55, 0
2, 57094, Note_on_c, 0, 56, 65
2, 57106, Note_on_c, 0, 64, 0
2, 57121, Note_on_c, 0, 73, 0
2, 57295, Note_on_c, 0, 65, 78
2, 57305, Note_on_c, 0, 56, 0
2, 57306, Note_on_c, 0, 59, 65
2, 57532, Note_on_c, 0, 68, 79
2, 57547, Note_on_c, 0, 60, 65
2, 57569, Note_on_c, 0, 65, 0
2, 57577, Note_on_c, 0, 59, 0
2, 57580, Note_on_c, 0, 72, 0
2, 57752, Note_on_c, 0, 65, 72
2, 57859, Note_on_c, 0, 48, 0
2, 57981, Control_c, 0, 67, 123
2, 57995, Note_on_c, 0, 64, 70
2, 57996, Control_c, 0, 67, 116
2, 58001, Note_on_c, 0, 48, 62
2, 58012, Control_c, 0, 67, 110
2, 58026, Control_c, 0, 67, 104
2, 58032, Note_on_c, 0, 65, 0
2, 58041, Control_c, 0, 67, 98
2, 58057, Control_c, 0, 67, 92
2, 58072, Control_c, 0, 67, 87
2, 58088, Control_c, 0, 67, 85
2, 58118, Control_c, 0, 67, 86
2, 58134, Control_c, 0, 67, 87
2, 58149, Control_c, 0, 67, 87
2, 58165, Control_c, 0, 67, 89
2, 58180, Control_c, 0, 67, 90
2, 58193, Note_on_c, 0, 68, 0
2, 58194, Control_c, 0, 67, 91
2, 58210, Control_c, 0, 67, 92
2, 58225, Control_c, 0, 67, 93
2, 58240, Control_c, 0, 67, 94
2, 58240, Note_on_c, 0, 67, 71
2, 58256, Control_c, 0, 67, 96
2, 58271, Control_c, 0, 67, 98
2, 58287, Control_c, 0, 67, 100
2, 58302, Control_c, 0, 67, 103
2, 58317, Control_c, 0, 67, 106
2, 58333, Control_c, 0, 67, 110
2, 58347, Control_c, 0, 64, 16
2, 58347, Control_c, 0, 67, 113
2, 58362, Control_c, 0, 64, 52
2, 58362, Control_c, 0, 67, 120
2, 58378, Control_c, 0, 64, 57
2, 58378, Control_c, 0, 67, 127
2, 58393, Control_c, 0, 64, 59
2, 58409, Control_c, 0, 64, 61
2, 58424, Control_c, 0, 64, 62
2, 58439, Control_c, 0, 64, 63
2, 58485, Control_c, 0, 64, 63
2, 58499, Control_c, 0, 64, 62
2, 58510, Note_on_c, 0, 65, 76
2, 58514, Control_c, 0, 64, 58
2, 58515, Note_on_c, 0, 48, 0
2, 58521, Note_on_c, 0, 67, 0
2, 58522, Note_on_c, 0, 64, 0
2, 58528, Note_on_c, 0, 49, 52
2, 58530, Control_c, 0, 64, 46
2, 58545, Control_c, 0, 64, 0
2, 58738, Note_on_c, 0, 68, 61
2, 58780, Control_c, 0, 64, 38
2, 58795, Control_c, 0, 64, 56
2, 58811, Control_c, 0, 64, 61
2, 58826, Control_c, 0, 64, 63
2, 58841, Control_c, 0, 64, 64
2, 58856, Control_c, 0, 64, 66
2, 58871, Control_c, 0, 64, 67
2, 58887, Control_c, 0, 64, 70
2, 58901, Control_c, 0, 64, 74
2, 58916, Control_c, 0, 64, 79
2, 58932, Control_c, 0, 64, 83
2, 58947, Control_c, 0, 64, 85
2, 58963, Control_c, 0, 64, 88
2, 58973, Note_on_c, 0, 72, 60
2, 58979, Control_c, 0, 64, 92
2, 58985, Note_on_c, 0, 68, 0
2, 58994, Control_c, 0, 64, 96
2, 59009, Control_c, 0, 64, 103
2, 59024, Control_c, 0, 64, 111
2, 59038, Control_c, 0, 64, 119
2, 59054, Control_c, 0, 64, 127
2, 59215, Note_on_c, 0, 77, 65
2, 59222, Note_on_c, 0, 65, 0
2, 59223, Note_on_c, 0, 72, 0
2, 59445, Note_on_c, 0, 67, 80
2, 59455, Note_on_c, 0, 58, 57
2, 59457, Control_c, 0, 64, 123
2, 59467, Note_on_c, 0, 77, 0
2, 59472, Control_c, 0, 64, 117
2, 59488, Control_c, 0, 64, 111
2, 59495, Note_on_c, 0, 60, 0
2, 59502, Control_c, 0, 64, 104
2, 59517, Control_c, 0, 64, 97
2, 59533, Control_c, 0, 64, 89
2, 59547, Control_c, 0, 64, 80
2, 59562, Control_c, 0, 64, 69
2, 59578, Control_c, 0, 64, 0
2, 59674, Note_on_c, 0, 77, 66
2, 59867, Control_c, 0, 64, 39
2, 59882, Control_c, 0, 64, 57
2, 59882, Note_on_c, 0, 76, 62
2, 59895, Note_on_c, 0, 77, 0
2, 59898, Control_c, 0, 64, 62
2, 59913, Control_c, 0, 64, 64
2, 59929, Control_c, 0, 64, 66
2, 59943, Control_c, 0, 64, 69
2, 59958, Control_c, 0, 64, 72
2, 59974, Control_c, 0, 64, 77
2, 59989, Control_c, 0, 64, 83
2, 60005, Control_c, 0, 64, 86
2, 60020, Control_c, 0, 64, 89
2, 60035, Control_c, 0, 64, 92
2, 60050, Control_c, 0, 64, 96
2, 60065, Control_c, 0, 64, 102
2, 60080, Control_c, 0, 64, 110
2, 60086, Note_on_c, 0, 76, 0
2, 60091, Note_on_c, 0, 79, 63
2, 60096, Control_c, 0, 64, 126
2, 60117, Control_c, 0, 64, 127
2, 60149, Note_on_c, 0, 67, 0
2, 60205, Note_on_c, 0, 49, 0
2, 60295, Note_on_c, 0, 79, 0
2, 60305, Note_on_c, 0, 68, 80
2, 60318, Note_on_c, 0, 60, 48
2, 60328, Note_on_c, 0, 48, 48
2, 60346, Control_c, 0, 64, 115
2, 60361, Control_c, 0, 64, 105
2, 60377, Control_c, 0, 64, 96
2, 60391, Control_c, 0, 64, 84
2, 60407, Control_c, 0, 64, 73
2, 60422, Control_c, 0, 64, 52
2, 60423, Note_on_c, 0, 58, 0
2, 60437, Control_c, 0, 64, 0
2, 60514, Note_on_c, 0, 72, 54
2, 60711, Control_c, 0, 64, 47
2, 60723, Note_on_c, 0, 72, 0
2, 60727, Control_c, 0, 64, 55
2, 60739, Note_on_c, 0, 77, 54
2, 60742, Control_c, 0, 64, 58
2, 60756, Control_c, 0, 64, 59
2, 60772, Control_c, 0, 64, 62
2, 60787, Control_c, 0, 64, 63
2, 60802, Control_c, 0, 64, 65
2, 60818, Control_c, 0, 64, 66
2, 60833, Control_c, 0, 64, 68
2, 60849, Control_c, 0, 64, 69
2, 60864, Control_c, 0, 64, 71
2, 60887, Control_c, 0, 64, 73
2, 60901, Control_c, 0, 64, 74
2, 60916, Control_c, 0, 64, 75
2, 60932, Control_c, 0, 64, 76
2, 60947, Control_c, 0, 64, 76
2, 60952, Note_on_c, 0, 77, 0
2, 60955, Note_on_c, 0, 76, 56
2, 61114, Control_c, 0, 64, 76
2, 61130, Control_c, 0, 64, 75
2, 61145, Control_c, 0, 64, 72
2, 61148, Note_on_c, 0, 76, 0
2, 61152, Note_on_c, 0, 77, 70
2, 61159, Control_c, 0, 64, 66
2, 61175, Control_c, 0, 64, 32
2, 61178, Note_on_c, 0, 56, 44
2, 61184, Note_on_c, 0, 60, 0
2, 61190, Control_c, 0, 64, 0
2, 61360, Note_on_c, 0, 68, 0
2, 61363, Note_on_c, 0, 72, 51
2, 61373, Control_c, 0, 64, 22
2, 61388, Control_c, 0, 64, 47
2, 61403, Control_c, 0, 64, 52
2, 61420, Control_c, 0, 64, 55
2, 61435, Control_c, 0, 64, 57
2, 61451, Control_c, 0, 64, 61
2, 61465, Control_c, 0, 64, 64
2, 61480, Control_c, 0, 64, 66
2, 61496, Control_c, 0, 64, 69
2, 61511, Control_c, 0, 64, 71
2, 61527, Control_c, 0, 64, 74
2, 61541, Control_c, 0, 64, 76
2, 61556, Control_c, 0, 64, 78
2, 61568, Note_on_c, 0, 70, 50
2, 61571, Note_on_c, 0, 72, 0
2, 61572, Control_c, 0, 64, 79
2, 61587, Control_c, 0, 64, 81
2, 61601, Control_c, 0, 64, 82
2, 61617, Control_c, 0, 64, 84
2, 61632, Control_c, 0, 64, 85
2, 61656, Control_c, 0, 64, 86
2, 61670, Control_c, 0, 64, 87
2, 61686, Control_c, 0, 64, 87
2, 61716, Control_c, 0, 64, 88
2, 61746, Control_c, 0, 64, 88
2, 61792, Control_c, 0, 64, 89
2, 61792, Note_on_c, 0, 68, 51
2, 61822, Control_c, 0, 64, 89
2, 61837, Control_c, 0, 64, 90
2, 61847, Note_on_c, 0, 70, 0
2, 61853, Control_c, 0, 64, 90
2, 61974, Control_c, 0, 64, 90
2, 61988, Note_on_c, 0, 73, 70
2, 61989, Control_c, 0, 64, 88
2, 62005, Control_c, 0, 64, 85
2, 62020, Control_c, 0, 64, 80
2, 62020, Note_on_c, 0, 77, 0
2, 62023, Note_on_c, 0, 58, 44
2, 62034, Control_c, 0, 64, 73
2, 62041, Note_on_c, 0, 68, 0
2, 62050, Control_c, 0, 64, 61
2, 62065, Control_c, 0, 64, 0
2, 62068, Note_on_c, 0, 56, 0
2, 62189, Note_on_c, 0, 68, 42
2, 62233, Control_c, 0, 64, 44
2, 62249, Control_c, 0, 64, 58
2, 62264, Control_c, 0, 64, 62
2, 62279, Control_c, 0, 64, 63
2, 62295, Control_c, 0, 64, 65
2, 62309, Control_c, 0, 64, 66
2, 62325, Control_c, 0, 64, 67
2, 62340, Control_c, 0, 64, 69
2, 62355, Control_c, 0, 64, 71
2, 62370, Control_c, 0, 64, 73
2, 62385, Control_c, 0, 64, 75
2, 62400, Control_c, 0, 64, 76
2, 62423, Control_c, 0, 64, 78
2, 62426, Note_on_c, 0, 67, 53
2, 62428, Note_on_c, 0, 68, 0
2, 62438, Control_c, 0, 64, 79
2, 62454, Control_c, 0, 64, 80
2, 62469, Control_c, 0, 64, 81
2, 62485, Control_c, 0, 64, 82
2, 62500, Control_c, 0, 64, 82
2, 62530, Control_c, 0, 64, 83
2, 62545, Control_c, 0, 64, 83
2, 62560, Control_c, 0, 64, 84
2, 62575, Control_c, 0, 64, 84
2, 62614, Note_on_c, 0, 67, 0
2, 62629, Note_on_c, 0, 70, 56
2, 62790, Note_on_c, 0, 73, 0
2, 62833, Control_c, 0, 64, 83
2, 62835, Note_on_c, 0, 64, 66
2, 62848, Control_c, 0, 64, 81
2, 62857, Note_on_c, 0, 55, 41
2, 62859, Note_on_c, 0, 70, 0
2, 62863, Control_c, 0, 64, 77
2, 62878, Control_c, 0, 64, 72
2, 62894, Control_c, 0, 64, 66
2, 62909, Control_c, 0, 64, 58
2, 62910, Note_on_c, 0, 58, 0
2, 62923, Control_c, 0, 64, 40
2, 62939, Control_c, 0, 64, 0
2, 63050, Note_on_c, 0, 73, 50
2, 63269, Note_on_c, 0, 72, 57
2, 63320, Note_on_c, 0, 73, 0
2, 63343, Control_c, 0, 64, 53
2, 63358, Control_c, 0, 64, 62
2, 63373, Control_c, 0, 64, 65
2, 63388, Control_c, 0, 64, 67
2, 63403, Control_c, 0, 64, 68
2, 63418, Control_c, 0, 64, 70
2, 63433, Control_c, 0, 64, 73
2, 63449, Control_c, 0, 64, 75
2, 63464, Control_c, 0, 64, 77
2, 63476, Note_on_c, 0, 70, 60
2, 63479, Control_c, 0, 64, 78
2, 63494, Control_c, 0, 64, 80
2, 63508, Note_on_c, 0, 72, 0
2, 63509, Control_c, 0, 64, 80
2, 63525, Control_c, 0, 64, 81
2, 63540, Control_c, 0, 64, 81
2, 63547, Note_on_c, 0, 64, 0
2, 63680, Note_on_c, 0, 65, 68
2, 63692, Control_c, 0, 64, 81
2, 63695, Note_on_c, 0, 68, 64
2, 63708, Note_on_c, 0, 56, 48
2, 63722, Control_c, 0, 64, 80
2, 63734, Note_on_c, 0, 70, 0
2, 63753, Control_c, 0, 64, 79
2, 63768, Control_c, 0, 64, 78
2, 63783, Control_c, 0, 64, 76
2, 63792, Note_on_c, 0, 55, 0
2, 63798, Control_c, 0, 64, 75
2, 63813, Control_c, 0, 64, 73
2, 63828, Control_c, 0, 64, 72
2, 63843, Control_c, 0, 64, 71
2, 63859, Control_c, 0, 64, 68
2, 63875, Control_c, 0, 64, 66
2, 63891, Control_c, 0, 64, 63
2, 63893, Note_on_c, 0, 63, 74
2, 63894, Note_on_c, 0, 65, 0
2, 63906, Control_c, 0, 64, 61
2, 63920, Control_c, 0, 64, 58
2, 63936, Control_c, 0, 64, 56
2, 63958, Control_c, 0, 64, 54
2, 63974, Control_c, 0, 64, 48
2, 63989, Control_c, 0, 64, 33
2, 64003, Control_c, 0, 64, 0
2, 64090, Note_on_c, 0, 62, 74
2, 64101, Note_on_c, 0, 63, 0
2, 64278, Note_on_c, 0, 62, 0
2, 64294, Note_on_c, 0, 65, 73
2, 64464, Note_on_c, 0, 68, 0
2, 64517, Note_on_c, 0, 59, 65
2, 64523, Note_on_c, 0, 65, 0
2, 64555, Note_on_c, 0, 53, 44
2, 64675, Note_on_c, 0, 56, 0
2, 64727, Note_on_c, 0, 68, 74
2, 64956, Note_on_c, 0, 67, 81
2, 64991, Note_on_c, 0, 68, 0
2, 65172, Note_on_c, 0, 65, 82
2, 65187, Note_on_c, 0, 67, 0
2, 65400, Note_on_c, 0, 64, 79
2, 65403, Note_on_c, 0, 59, 0
2, 65410, Note_on_c, 0, 65, 0
2, 65418, Note_on_c, 0, 55, 55
2, 65468, Note_on_c, 0, 53, 0
2, 65537, Control_c, 0, 67, 124
2, 65552, Control_c, 0, 67, 120
2, 65567, Control_c, 0, 67, 114
2, 65583, Control_c, 0, 67, 107
2, 65598, Control_c, 0, 67, 100
2, 65613, Control_c, 0, 67, 93
2, 65618, Note_on_c, 0, 60, 77
2, 65628, Control_c, 0, 67, 87
2, 65643, Control_c, 0, 67, 82
2, 65659, Control_c, 0, 67, 76
2, 65674, Control_c, 0, 67, 67
2, 65689, Control_c, 0, 67, 58
2, 65705, Control_c, 0, 67, 49
2, 65719, Control_c, 0, 67, 41
2, 65735, Control_c, 0, 67, 35
2, 65750, Control_c, 0, 67, 30
2, 65765, Control_c, 0, 67, 27
2, 65781, Control_c, 0, 67, 25
2, 65796, Control_c, 0, 67, 25
2, 65821, Note_on_c, 0, 58, 77
2, 65841, Control_c, 0, 67, 24
2, 65857, Control_c, 0, 67, 24
2, 65862, Note_on_c, 0, 60, 0
2, 65871, Control_c, 0, 67, 22
2, 65886, Control_c, 0, 67, 19
2, 65902, Control_c, 0, 67, 14
2, 65917, Control_c, 0, 67, 0
2, 66026, Note_on_c, 0, 61, 80
2, 66037, Note_on_c, 0, 58, 0
2, 66114, Control_c, 0, 64, 21
2, 66129, Control_c, 0, 64, 62
2, 66145, Control_c, 0, 64, 67
2, 66156, Note_on_c, 0, 55, 0
2, 66160, Control_c, 0, 64, 71
2, 66176, Control_c, 0, 64, 75
2, 66190, Control_c, 0, 64, 77
2, 66205, Control_c, 0, 64, 79
2, 66218, Note_on_c, 0, 61, 0
2, 66221, Control_c, 0, 64, 79
2, 66238, Note_on_c, 0, 55, 62
2, 66255, Note_on_c, 0, 52, 59
2, 66319, Control_c, 0, 64, 78
2, 66336, Control_c, 0, 64, 76
2, 66351, Control_c, 0, 64, 70
2, 66366, Control_c, 0, 64, 51
2, 66381, Control_c, 0, 64, 0
2, 66457, Note_on_c, 0, 61, 75
2, 66675, Note_on_c, 0, 60, 77
2, 66707, Note_on_c, 0, 64, 0
2, 66719, Note_on_c, 0, 61, 0
2, 66822, Control_c, 0, 64, 51
2, 66836, Control_c, 0, 64, 60
2, 66852, Control_c, 0, 64, 64
2, 66867, Control_c, 0, 64, 66
2, 66882, Control_c, 0, 64, 70
2, 66898, Control_c, 0, 64, 76
2, 66901, Note_on_c, 0, 58, 75
2, 66906, Note_on_c, 0, 60, 0
2, 66912, Control_c, 0, 64, 81
2, 66927, Control_c, 0, 64, 84
2, 66943, Control_c, 0, 64, 86
2, 66958, Control_c, 0, 64, 88
2, 66961, Note_on_c, 0, 48, 0
2, 66974, Control_c, 0, 64, 89
2, 66988, Control_c, 0, 64, 90
2, 67003, Control_c, 0, 64, 91
2, 67027, Control_c, 0, 64, 91
2, 67067, Note_on_c, 0, 58, 0
2, 67126, Note_on_c, 0, 55, 0
2, 67149, Control_c, 0, 64, 91
2, 67161, Note_on_c, 0, 56, 77
2, 67164, Control_c, 0, 64, 89
2, 67169, Note_on_c, 0, 52, 0
2, 67172, Note_on_c, 0, 48, 61
2, 67180, Control_c, 0, 64, 84
2, 67182, Note_on_c, 0, 53, 64
2, 67195, Control_c, 0, 64, 76
2, 67210, Control_c, 0, 64, 62
2, 67225, Control_c, 0, 64, 0
2, 67397, Note_on_c, 0, 72, 71
2, 67617, Note_on_c, 0, 70, 70
2, 67645, Note_on_c, 0, 72, 0
2, 67818, Note_on_c, 0, 73, 69
2, 67837, Note_on_c, 0, 70, 0
2, 68022, Note_on_c, 0, 56, 0
2, 68052, Note_on_c, 0, 64, 72
2, 68057, Note_on_c, 0, 73, 0
2, 68060, Note_on_c, 0, 58, 81
2, 68070, Note_on_c, 0, 55, 57
2, 68113, Note_on_c, 0, 53, 0
2, 68269, Note_on_c, 0, 73, 67
2, 68507, Note_on_c, 0, 72, 71
2, 68536, Note_on_c, 0, 64, 0
2, 68539, Note_on_c, 0, 73, 0
2, 68639, Control_c, 0, 64, 63
2, 68655, Control_c, 0, 64, 68
2, 68670, Control_c, 0, 64, 73
2, 68685, Control_c, 0, 64, 79
2, 68701, Control_c, 0, 64, 82
2, 68701, Note_on_c, 0, 72, 0
2, 68713, Note_on_c, 0, 70, 75
2, 68716, Control_c, 0, 64, 84
2, 68732, Control_c, 0, 64, 86
2, 68746, Control_c, 0, 64, 87
2, 68760, Note_on_c, 0, 55, 0
2, 68761, Control_c, 0, 64, 87
2, 68761, Control_c, 0, 67, 8
2, 68777, Control_c, 0, 67, 11
2, 68792, Control_c, 0, 67, 16
2, 68807, Control_c, 0, 67, 23
2, 68823, Control_c, 0, 67, 30
2, 68837, Note_on_c, 0, 58, 0
2, 68838, Control_c, 0, 67, 35
2, 68854, Control_c, 0, 67, 37
2, 68869, Control_c, 0, 67, 38
2, 68884, Control_c, 0, 67, 37
2, 68914, Control_c, 0, 64, 87
2, 68918, Note_on_c, 0, 70, 0
2, 68929, Control_c, 0, 64, 86
2, 68932, Note_on_c, 0, 68, 74
2, 68945, Control_c, 0, 64, 84
2, 68947, Note_on_c, 0, 60, 56
2, 68949, Note_on_c, 0, 56, 51
2, 68960, Control_c, 0, 64, 81
2, 68960, Control_c, 0, 67, 38
2, 68975, Control_c, 0, 64, 76
2, 68975, Control_c, 0, 67, 38
2, 68990, Control_c, 0, 64, 67
2, 68990, Control_c, 0, 67, 40
2, 69005, Control_c, 0, 64, 0
2, 69005, Control_c, 0, 67, 45
2, 69021, Control_c, 0, 67, 53
2, 69036, Control_c, 0, 67, 63
2, 69050, Control_c, 0, 67, 76
2, 69066, Control_c, 0, 67, 87
2, 69081, Control_c, 0, 67, 98
2, 69096, Control_c, 0, 67, 109
2, 69111, Control_c, 0, 67, 120
2, 69126, Control_c, 0, 67, 127
2, 69151, Note_on_c, 0, 79, 79
2, 69387, Note_on_c, 0, 77, 78
2, 69406, Note_on_c, 0, 79, 0
2, 69575, Control_c, 0, 67, 124
2, 69590, Control_c, 0, 67, 116
2, 69605, Control_c, 0, 67, 106
2, 69614, Note_on_c, 0, 80, 85
2, 69621, Control_c, 0, 67, 95
2, 69627, Note_on_c, 0, 68, 0
2, 69636, Control_c, 0, 67, 87
2, 69642, Note_on_c, 0, 77, 0
2, 69652, Control_c, 0, 67, 86
2, 69682, Control_c, 0, 67, 84
2, 69698, Control_c, 0, 67, 80
2, 69712, Control_c, 0, 67, 73
2, 69727, Control_c, 0, 67, 66
2, 69743, Control_c, 0, 67, 59
2, 69757, Note_on_c, 0, 56, 0
2, 69758, Control_c, 0, 67, 53
2, 69774, Control_c, 0, 67, 47
2, 69788, Control_c, 0, 67, 37
2, 69803, Control_c, 0, 67, 23
2, 69818, Control_c, 0, 67, 0
2, 69843, Note_on_c, 0, 71, 79
2, 69853, Note_on_c, 0, 56, 38
2, 69856, Note_on_c, 0, 80, 0
2, 69868, Note_on_c, 0, 53, 44
2, 69932, Note_on_c, 0, 60, 0
2, 70072, Note_on_c, 0, 80, 86
2, 70297, Note_on_c, 0, 79, 79
2, 70329, Note_on_c, 0, 80, 0
2, 70419, Control_c, 0, 67, 8
2, 70436, Control_c, 0, 67, 11
2, 70452, Control_c, 0, 67, 15
2, 70467, Control_c, 0, 67, 20
2, 70482, Control_c, 0, 67, 25
2, 70498, Control_c, 0, 67, 30
2, 70512, Control_c, 0, 67, 35
2, 70513, Note_on_c, 0, 77, 83
2, 70528, Control_c, 0, 67, 39
2, 70543, Control_c, 0, 67, 43
2, 70548, Note_on_c, 0, 79, 0
2, 70558, Control_c, 0, 67, 46
2, 70573, Control_c, 0, 67, 49
2, 70588, Control_c, 0, 67, 51
2, 70588, Note_on_c, 0, 56, 0
2, 70603, Control_c, 0, 67, 53
2, 70619, Control_c, 0, 67, 55
2, 70634, Control_c, 0, 67, 57
2, 70650, Control_c, 0, 67, 58
2, 70664, Control_c, 0, 67, 59
2, 70679, Control_c, 0, 67, 59
2, 70710, Control_c, 0, 67, 59
2, 70737, Note_on_c, 0, 76, 77
2, 70757, Note_on_c, 0, 55, 45
2, 70760, Note_on_c, 0, 58, 49
2, 70782, Note_on_c, 0, 77, 0
2, 70785, Control_c, 0, 67, 59
2, 70791, Note_on_c, 0, 53, 0
2, 70823, Note_on_c, 0, 71, 0
2, 70831, Control_c, 0, 67, 60
2, 70847, Control_c, 0, 67, 60
2, 70869, Control_c, 0, 67, 61
2, 70885, Control_c, 0, 67, 62
2, 70900, Control_c, 0, 67, 65
2, 70914, Control_c, 0, 67, 69
2, 70930, Control_c, 0, 67, 70
2, 70945, Control_c, 0, 67, 71
2, 70960, Control_c, 0, 67, 71
2, 70967, Note_on_c, 0, 77, 85
2, 70976, Control_c, 0, 67, 72
2, 70990, Control_c, 0, 67, 73
2, 70997, Note_on_c, 0, 76, 0
2, 71066, Control_c, 0, 67, 72
2, 71157, Control_c, 0, 67, 73
2, 71202, Note_on_c, 0, 79, 76
2, 71203, Control_c, 0, 67, 73
2, 71219, Note_on_c, 0, 77, 0
2, 71234, Control_c, 0, 67, 74
2, 71250, Control_c, 0, 67, 76
2, 71265, Control_c, 0, 67, 79
2, 71280, Control_c, 0, 67, 84
2, 71296, Control_c, 0, 67, 92
2, 71310, Control_c, 0, 67, 102
2, 71327, Control_c, 0, 67, 111
2, 71342, Control_c, 0, 67, 118
2, 71357, Control_c, 0, 67, 122
2, 71372, Control_c, 0, 67, 124
2, 71402, Control_c, 0, 67, 123
2, 71418, Control_c, 0, 67, 122
2, 71427, Note_on_c, 0, 76, 73
2, 71433, Control_c, 0, 67, 122
2, 71448, Note_on_c, 0, 79, 0
2, 71449, Control_c, 0, 67, 121
2, 71464, Control_c, 0, 67, 120
2, 71478, Control_c, 0, 67, 120
2, 71509, Control_c, 0, 67, 119
2, 71543, Note_on_c, 0, 55, 0
2, 71554, Control_c, 0, 67, 120
2, 71570, Control_c, 0, 67, 120
2, 71585, Control_c, 0, 67, 121
2, 71600, Control_c, 0, 67, 122
2, 71637, Control_c, 0, 67, 122
2, 71653, Control_c, 0, 67, 123
2, 71668, Control_c, 0, 67, 124
2, 71683, Control_c, 0, 67, 127
2, 71687, Note_on_c, 0, 82, 72
2, 71708, Note_on_c, 0, 55, 47
2, 71712, Note_on_c, 0, 76, 0
2, 71714, Note_on_c, 0, 52, 39
2, 71786, Note_on_c, 0, 58, 0
2, 71938, Note_on_c, 0, 73, 70
2, 72016, Note_on_c, 0, 82, 0
2, 72166, Note_on_c, 0, 72, 74
2, 72198, Note_on_c, 0, 73, 0
2, 72375, Note_on_c, 0, 70, 71
2, 72432, Note_on_c, 0, 72, 0
2, 72613, Note_on_c, 0, 68, 73
2, 72623, Note_on_c, 0, 60, 43
2, 72633, Note_on_c, 0, 53, 36
2, 72645, Note_on_c, 0, 52, 0
2, 72655, Note_on_c, 0, 70, 0
2, 72697, Note_on_c, 0, 55, 0
2, 72837, Note_on_c, 0, 70, 72
2, 72876, Note_on_c, 0, 68, 0
2, 73077, Note_on_c, 0, 72, 65
2, 73087, Note_on_c, 0, 70, 0
2, 73294, Note_on_c, 0, 72, 0
2, 73313, Note_on_c, 0, 65, 59
2, 73572, Note_on_c, 0, 74, 56
2, 73574, Note_on_c, 0, 59, 40
2, 73665, Note_on_c, 0, 60, 0
2, 73824, Note_on_c, 0, 68, 66
2, 73851, Note_on_c, 0, 65, 0
2, 73864, Note_on_c, 0, 74, 0
2, 74065, Note_on_c, 0, 67, 56
2, 74096, Note_on_c, 0, 68, 0
2, 74287, Note_on_c, 0, 67, 0
2, 74289, Note_on_c, 0, 65, 60
2, 74552, Note_on_c, 0, 64, 48
2, 74560, Note_on_c, 0, 60, 36
2, 74590, Note_on_c, 0, 59, 0
2, 74598, Note_on_c, 0, 65, 0
2, 74650, Note_on_c, 0, 53, 0
2, 74762, Note_on_c, 0, 60, 0
2, 74819, Note_on_c, 0, 60, 44
2, 75049, Note_on_c, 0, 55, 63
2, 75090, Note_on_c, 0, 60, 0
2, 75278, Note_on_c, 0, 58, 67
2, 75527, Note_on_c, 0, 65, 73
2, 75546, Note_on_c, 0, 56, 55
2, 75548, Note_on_c, 0, 58, 0
2, 75594, Note_on_c, 0, 55, 0
2, 75698, Note_on_c, 0, 64, 0
2, 75761, Note_on_c, 0, 53, 58
2, 75785, Note_on_c, 0, 48, 0
2, 75858, Control_c, 0, 67, 127
2, 75878, Control_c, 0, 67, 122
2, 75893, Control_c, 0, 67, 119
2, 75907, Control_c, 0, 67, 118
2, 75923, Control_c, 0, 67, 118
2, 75969, Control_c, 0, 67, 117
2, 75999, Control_c, 0, 67, 116
2, 76006, Note_on_c, 0, 47, 66
2, 76014, Control_c, 0, 67, 115
2, 76029, Control_c, 0, 67, 109
2, 76045, Control_c, 0, 67, 102
2, 76060, Control_c, 0, 67, 93
2, 76076, Control_c, 0, 67, 81
2, 76078, Note_on_c, 0, 53, 0
2, 76091, Control_c, 0, 67, 66
2, 76106, Control_c, 0, 67, 49
2, 76121, Control_c, 0, 67, 32
2, 76136, Control_c, 0, 67, 23
2, 76152, Control_c, 0, 67, 16
2, 76167, Control_c, 0, 67, 10
2, 76182, Control_c, 0, 67, 0
2, 76293, Note_on_c, 0, 50, 65
2, 76328, Note_on_c, 0, 47, 0
2, 76620, Note_on_c, 0, 55, 66
2, 76635, Note_on_c, 0, 36, 56
2, 76659, Note_on_c, 0, 56, 0
2, 76771, Note_on_c, 0, 50, 0
2, 76906, Note_on_c, 0, 62, 74
2, 76995, Note_on_c, 0, 55, 0
2, 77193, Note_on_c, 0, 59, 73
2, 77200, Note_on_c, 0, 53, 63
2, 77241, Note_on_c, 0, 62, 0
2, 77277, Control_c, 0, 67, 8
2, 77307, Control_c, 0, 67, 8
2, 77323, Control_c, 0, 67, 9
2, 77338, Control_c, 0, 67, 9
2, 77399, Control_c, 0, 67, 10
2, 77414, Control_c, 0, 67, 10
2, 77473, Note_on_c, 0, 60, 76
2, 77503, Control_c, 0, 67, 10
2, 77519, Control_c, 0, 67, 9
2, 77533, Note_on_c, 0, 59, 0
2, 77549, Control_c, 0, 67, 9
2, 77643, Note_on_c, 0, 53, 0
2, 77800, Note_on_c, 0, 55, 62
2, 77812, Control_c, 0, 67, 9
2, 77841, Control_c, 0, 67, 10
2, 77862, Note_on_c, 0, 60, 0
2, 77872, Control_c, 0, 67, 10
2, 77933, Control_c, 0, 67, 11
2, 77963, Control_c, 0, 67, 11
2, 77994, Control_c, 0, 67, 12
2, 78039, Control_c, 0, 67, 12
2, 78055, Control_c, 0, 67, 13
2, 78070, Control_c, 0, 67, 14
2, 78086, Control_c, 0, 67, 15
2, 78100, Control_c, 0, 67, 16
2, 78108, Note_on_c, 0, 58, 70
2, 78131, Control_c, 0, 67, 17
2, 78146, Control_c, 0, 67, 17
2, 78298, Control_c, 0, 67, 17
2, 78313, Control_c, 0, 67, 16
2, 78389, Control_c, 0, 67, 16
2, 78420, Control_c, 0, 67, 15
2, 78461, Note_on_c, 0, 60, 64
2, 78496, Control_c, 0, 64, 13
2, 78496, Control_c, 0, 67, 16
2, 78511, Control_c, 0, 64, 34
2, 78526, Control_c, 0, 64, 51
2, 78549, Control_c, 0, 64, 60
2, 78565, Control_c, 0, 64, 64
2, 78579, Control_c, 0, 64, 66
2, 78594, Control_c, 0, 64, 68
2, 78610, Control_c, 0, 64, 71
2, 78626, Control_c, 0, 64, 74
2, 78641, Control_c, 0, 64, 76
2, 78641, Control_c, 0, 67, 15
2, 78657, Control_c, 0, 64, 78
2, 78671, Control_c, 0, 64, 79
2, 78687, Control_c, 0, 64, 80
2, 78702, Control_c, 0, 64, 81
2, 78717, Control_c, 0, 64, 81
2, 78793, Control_c, 0, 64, 82
2, 78793, Control_c, 0, 67, 16
2, 78838, Control_c, 0, 67, 16
2, 78899, Control_c, 0, 67, 17
2, 78914, Control_c, 0, 67, 17
2, 78928, Note_on_c, 0, 64, 65
2, 78945, Control_c, 0, 64, 81
2, 78945, Control_c, 0, 67, 18
2, 78960, Control_c, 0, 64, 80
2, 78960, Control_c, 0, 67, 18
2, 78976, Control_c, 0, 64, 76
2, 78976, Control_c, 0, 67, 19
2, 78982, Note_on_c, 0, 65, 0
2, 78991, Control_c, 0, 64, 70
2, 78991, Control_c, 0, 67, 19
2, 79006, Control_c, 0, 64, 60
2, 79006, Control_c, 0, 67, 23
2, 79021, Control_c, 0, 64, 0
2, 79021, Control_c, 0, 67, 30
2, 79036, Control_c, 0, 67, 34
2, 79052, Control_c, 0, 67, 38
2, 79067, Control_c, 0, 67, 42
2, 79082, Control_c, 0, 67, 47
2, 79098, Control_c, 0, 67, 52
2, 79113, Control_c, 0, 64, 30
2, 79113, Control_c, 0, 67, 58
2, 79128, Control_c, 0, 64, 62
2, 79128, Control_c, 0, 67, 64
2, 79143, Control_c, 0, 64, 66
2, 79143, Control_c, 0, 67, 68
2, 79158, Control_c, 0, 64, 69
2, 79158, Control_c, 0, 67, 73
2, 79169, Note_on_c, 0, 60, 0
2, 79174, Control_c, 0, 64, 71
2, 79174, Control_c, 0, 67, 78
2, 79189, Control_c, 0, 64, 74
2, 79189, Control_c, 0, 67, 84
2, 79198, Note_on_c, 0, 55, 0
2, 79203, Control_c, 0, 64, 76
2, 79203, Control_c, 0, 67, 89
2, 79208, Note_on_c, 0, 36, 0
2, 79217, Control_c, 0, 64, 78
2, 79217, Control_c, 0, 67, 94
2, 79232, Control_c, 0, 64, 79
2, 79232, Control_c, 0, 67, 99
2, 79247, Control_c, 0, 64, 80
2, 79247, Control_c, 0, 67, 101
2, 79263, Control_c, 0, 64, 81
2, 79263, Control_c, 0, 67, 104
2, 79277, Control_c, 0, 64, 82
2, 79277, Control_c, 0, 67, 106
2, 79293, Control_c, 0, 67, 108
2, 79315, Control_c, 0, 67, 109
2, 79330, Control_c, 0, 67, 111
2, 79346, Control_c, 0, 67, 113
2, 79361, Control_c, 0, 67, 116
2, 79377, Control_c, 0, 67, 119
2, 79392, Control_c, 0, 67, 122
2, 79407, Control_c, 0, 67, 124
2, 79422, Control_c, 0, 67, 125
2, 79499, Control_c, 0, 67, 124
2, 79529, Control_c, 0, 67, 124
2, 79545, Control_c, 0, 67, 123
2, 79636, Control_c, 0, 67, 123
2, 79650, Control_c, 0, 67, 122
2, 79681, Control_c, 0, 67, 122
2, 79712, Control_c, 0, 67, 121
2, 79749, Note_on_c, 0, 65, 53
2, 79763, Note_on_c, 0, 58, 0
2, 79768, Note_on_c, 0, 60, 45
2, 79772, Control_c, 0, 67, 120
2, 79775, Note_on_c, 0, 57, 35
2, 79787, Control_c, 0, 67, 120
2, 79802, Control_c, 0, 67, 119
2, 79806, Note_on_c, 0, 53, 25
2, 79818, Control_c, 0, 64, 81
2, 79826, Note_on_c, 0, 41, 19
2, 79847, Control_c, 0, 64, 81
2, 79857, Note_on_c, 0, 64, 0
2, 79863, Control_c, 0, 64, 80
2, 79878, Control_c, 0, 64, 79
2, 79894, Control_c, 0, 64, 77
2, 79894, Control_c, 0, 67, 119
2, 79909, Control_c, 0, 64, 73
2, 79924, Control_c, 0, 64, 68
2, 79940, Control_c, 0, 64, 58
2, 79954, Control_c, 0, 64, 0
2, 80016, Control_c, 0, 67, 119
2, 80045, Control_c, 0, 67, 120
2, 80099, Control_c, 0, 67, 120
2, 80113, Control_c, 0, 67, 121
2, 80159, Control_c, 0, 67, 121
2, 80205, Control_c, 0, 67, 122
2, 80585, Control_c, 0, 67, 121
2, 80752, Control_c, 0, 67, 121
2, 80897, Control_c, 0, 67, 120
2, 80973, Control_c, 0, 67, 120
2, 81217, Control_c, 0, 67, 119
2, 81293, Control_c, 0, 67, 119
2, 81309, Control_c, 0, 67, 118
2, 81650, Control_c, 0, 67, 119
2, 82388, Control_c, 0, 67, 118
2, 82661, Control_c, 0, 67, 118
2, 82738, Control_c, 0, 67, 117
2, 82768, Control_c, 0, 67, 117
2, 82814, Control_c, 0, 67, 116
2, 82949, Control_c, 0, 67, 116
2, 83040, Control_c, 0, 67, 115
2, 83070, Control_c, 0, 67, 115
2, 83199, Control_c, 0, 67, 114
2, 83230, Control_c, 0, 67, 114
2, 83321, Control_c, 0, 67, 113
2, 83351, Control_c, 0, 67, 113
2, 83487, Control_c, 0, 67, 112
2, 83869, Control_c, 0, 67, 112
2, 84340, Note_on_c, 0, 57, 0
2, 84460, Note_on_c, 0, 60, 0
2, 84466, Note_on_c, 0, 53, 0
2, 84467, Note_on_c, 0, 41, 0
2, 84529, Note_on_c, 0, 65, 0
2, 85357, Control_c, 0, 67, 112
2, 85372, Control_c, 0, 67, 113
2, 85820, Control_c, 0, 67, 114
2, 85836, Control_c, 0, 67, 115
2, 85850, Control_c, 0, 67, 116
2, 85866, Control_c, 0, 67, 117
2, 85881, Control_c, 0, 67, 118
2, 85896, Control_c, 0, 67, 118
2, 85912, Control_c, 0, 67, 119
2, 85927, Control_c, 0, 67, 120
2, 85941, Control_c, 0, 67, 120
2, 85957, Control_c, 0, 67, 121
2, 85972, Control_c, 0, 67, 122
2, 85989, Control_c, 0, 67, 123
2, 86019, Control_c, 0, 67, 123
2, 86034, Control_c, 0, 67, 124
2, 86049, Control_c, 0, 67, 125
2, 86064, Control_c, 0, 67, 126
2, 86080, Control_c, 0, 67, 126
2, 86094, Control_c, 0, 67, 127
2, 87090,End_track
0, 0, End_of_file
