0, 0, Header, 1, 2, 384
1, 0, Start_track
1, 0, Tempo, 500000
1, 0, Time_signature, 4, 2, 24, 8
1, 1, End_track
2, 0, Start_track
2, 0, Title_t, "Lisiecki04-07.MID"
2, 0, Program_c, 0, 0
2, 0, Control_c, 0, 64, 38
2, 232, Control_c, 0, 64, 37
2, 414, Control_c, 0, 64, 36
2, 506, Control_c, 0, 64, 36
2, 566, Control_c, 0, 64, 35
2, 687, Control_c, 0, 64, 34
2, 801, Control_c, 0, 64, 34
2, 819, Note_on_c, 0, 65, 40
2, 843, Note_on_c, 0, 56, 16
2, 846, Control_c, 0, 64, 33
2, 849, Note_on_c, 0, 53, 13
2, 907, Control_c, 0, 64, 34
2, 922, Control_c, 0, 64, 34
2, 937, Control_c, 0, 64, 36
2, 953, Control_c, 0, 64, 38
2, 968, Control_c, 0, 64, 42
2, 991, Control_c, 0, 64, 49
2, 1006, Control_c, 0, 64, 56
2, 1022, Control_c, 0, 64, 61
2, 1036, Control_c, 0, 64, 63
2, 1051, Control_c, 0, 64, 64
2, 1067, Control_c, 0, 64, 65
2, 1081, Control_c, 0, 64, 67
2, 1096, Control_c, 0, 64, 69
2, 1112, Control_c, 0, 64, 71
2, 1127, Control_c, 0, 64, 73
2, 1143, Control_c, 0, 64, 75
2, 1158, Control_c, 0, 64, 77
2, 1173, Control_c, 0, 64, 79
2, 1189, Control_c, 0, 64, 82
2, 1203, Control_c, 0, 64, 85
2, 1218, Control_c, 0, 64, 87
2, 1234, Control_c, 0, 64, 88
2, 1249, Control_c, 0, 64, 90
2, 1265, Control_c, 0, 64, 91
2, 1280, Control_c, 0, 64, 92
2, 1294, Control_c, 0, 64, 93
2, 1310, Control_c, 0, 64, 94
2, 1325, Control_c, 0, 64, 95
2, 1340, Control_c, 0, 64, 95
2, 1370, Control_c, 0, 64, 96
2, 1401, Control_c, 0, 64, 96
2, 1411, Note_on_c, 0, 68, 39
2, 1630, Note_on_c, 0, 68, 0
2, 1705, Control_c, 0, 64, 96
2, 1709, Note_on_c, 0, 72, 49
2, 1803, Control_c, 0, 64, 95
2, 1818, Control_c, 0, 64, 95
2, 1834, Control_c, 0, 64, 94
2, 1849, Control_c, 0, 64, 93
2, 1865, Control_c, 0, 64, 90
2, 1879, Control_c, 0, 64, 86
2, 1894, Control_c, 0, 64, 79
2, 1910, Control_c, 0, 64, 71
2, 1925, Control_c, 0, 64, 50
2, 1931, Note_on_c, 0, 72, 0
2, 1940, Control_c, 0, 64, 0
2, 1968, Note_on_c, 0, 77, 47
2, 2047, Note_on_c, 0, 65, 0
2, 2201, Note_on_c, 0, 58, 34
2, 2204, Note_on_c, 0, 67, 52
2, 2304, Note_on_c, 0, 77, 0
2, 2334, Note_on_c, 0, 56, 0
2, 2427, Note_on_c, 0, 77, 59
2, 2647, Note_on_c, 0, 76, 59
2, 2672, Note_on_c, 0, 77, 0
2, 2849, Note_on_c, 0, 76, 0
2, 2860, Note_on_c, 0, 79, 61
2, 3087, Control_c, 0, 67, 8
2, 3090, Note_on_c, 0, 68, 64
2, 3096, Note_on_c, 0, 60, 32
2, 3103, Control_c, 0, 67, 9
2, 3117, Control_c, 0, 67, 10
2, 3123, Note_on_c, 0, 67, 0
2, 3148, Control_c, 0, 67, 10
2, 3175, Note_on_c, 0, 58, 0
2, 3178, Control_c, 0, 67, 11
2, 3185, Note_on_c, 0, 79, 0
2, 3194, Control_c, 0, 67, 12
2, 3209, Control_c, 0, 67, 12
2, 3225, Control_c, 0, 67, 13
2, 3271, Control_c, 0, 67, 13
2, 3293, Control_c, 0, 67, 14
2, 3324, Control_c, 0, 67, 14
2, 3328, Note_on_c, 0, 72, 64
2, 3339, Control_c, 0, 67, 15
2, 3369, Control_c, 0, 67, 15
2, 3385, Control_c, 0, 67, 16
2, 3400, Control_c, 0, 67, 18
2, 3414, Control_c, 0, 67, 19
2, 3430, Control_c, 0, 67, 21
2, 3445, Control_c, 0, 67, 22
2, 3460, Control_c, 0, 67, 23
2, 3476, Control_c, 0, 67, 24
2, 3490, Control_c, 0, 67, 26
2, 3506, Control_c, 0, 67, 27
2, 3521, Control_c, 0, 67, 27
2, 3524, Note_on_c, 0, 72, 0
2, 3536, Control_c, 0, 67, 28
2, 3536, Note_on_c, 0, 77, 69
2, 3552, Control_c, 0, 67, 29
2, 3567, Control_c, 0, 67, 29
2, 3583, Control_c, 0, 67, 30
2, 3597, Control_c, 0, 67, 31
2, 3612, Control_c, 0, 67, 32
2, 3628, Control_c, 0, 67, 33
2, 3643, Control_c, 0, 67, 34
2, 3658, Control_c, 0, 67, 34
2, 3674, Control_c, 0, 67, 35
2, 3704, Control_c, 0, 67, 35
2, 3749, Control_c, 0, 67, 36
2, 3765, Note_on_c, 0, 76, 57
2, 3795, Control_c, 0, 67, 36
2, 3808, Note_on_c, 0, 77, 0
2, 3825, Control_c, 0, 67, 37
2, 3840, Control_c, 0, 67, 37
2, 3855, Control_c, 0, 67, 39
2, 3871, Control_c, 0, 67, 41
2, 3886, Control_c, 0, 67, 43
2, 3900, Control_c, 0, 67, 45
2, 3916, Control_c, 0, 67, 46
2, 3931, Control_c, 0, 67, 46
2, 3946, Control_c, 0, 67, 47
2, 3961, Control_c, 0, 67, 48
2, 3965, Note_on_c, 0, 76, 0
2, 3976, Control_c, 0, 67, 49
2, 3989, Note_on_c, 0, 77, 57
2, 3992, Control_c, 0, 67, 50
2, 4007, Control_c, 0, 67, 51
2, 4023, Control_c, 0, 67, 51
2, 4023, Note_on_c, 0, 56, 32
2, 4038, Control_c, 0, 67, 52
2, 4060, Control_c, 0, 67, 52
2, 4077, Control_c, 0, 67, 53
2, 4092, Control_c, 0, 67, 53
2, 4108, Control_c, 0, 67, 54
2, 4179, Note_on_c, 0, 68, 0
2, 4223, Note_on_c, 0, 60, 0
2, 4232, Note_on_c, 0, 72, 53
2, 4335, Control_c, 0, 67, 54
2, 4426, Control_c, 0, 67, 54
2, 4441, Control_c, 0, 67, 53
2, 4448, Note_on_c, 0, 70, 47
2, 4456, Note_on_c, 0, 72, 0
2, 4487, Control_c, 0, 67, 54
2, 4503, Control_c, 0, 67, 56
2, 4518, Control_c, 0, 67, 61
2, 4533, Control_c, 0, 67, 71
2, 4549, Control_c, 0, 67, 80
2, 4563, Control_c, 0, 67, 83
2, 4594, Control_c, 0, 67, 81
2, 4609, Control_c, 0, 67, 81
2, 4625, Control_c, 0, 67, 80
2, 4655, Control_c, 0, 67, 80
2, 4668, Note_on_c, 0, 68, 47
2, 4684, Note_on_c, 0, 70, 0
2, 4776, Control_c, 0, 67, 79
2, 4806, Control_c, 0, 67, 79
2, 4903, Note_on_c, 0, 73, 54
2, 4908, Note_on_c, 0, 68, 0
2, 4909, Note_on_c, 0, 58, 38
2, 5022, Note_on_c, 0, 56, 0
2, 5037, Note_on_c, 0, 77, 0
2, 5119, Note_on_c, 0, 68, 49
2, 5300, Control_c, 0, 67, 78
2, 5310, Note_on_c, 0, 68, 0
2, 5344, Note_on_c, 0, 67, 46
2, 5376, Control_c, 0, 67, 79
2, 5438, Control_c, 0, 67, 79
2, 5484, Control_c, 0, 67, 80
2, 5484, Note_on_c, 0, 67, 0
2, 5544, Note_on_c, 0, 70, 47
2, 5545, Control_c, 0, 67, 80
2, 5658, Control_c, 0, 67, 80
2, 5769, Note_on_c, 0, 70, 0
2, 5789, Note_on_c, 0, 64, 52
2, 5805, Note_on_c, 0, 55, 30
2, 5815, Note_on_c, 0, 73, 0
2, 5841, Note_on_c, 0, 58, 0
2, 5887, Control_c, 0, 67, 80
2, 5918, Control_c, 0, 67, 81
2, 5933, Control_c, 0, 67, 81
2, 5948, Control_c, 0, 67, 82
2, 5978, Control_c, 0, 67, 82
2, 5993, Control_c, 0, 67, 83
2, 6008, Control_c, 0, 67, 83
2, 6022, Note_on_c, 0, 73, 48
2, 6024, Control_c, 0, 67, 84
2, 6039, Control_c, 0, 67, 85
2, 6054, Control_c, 0, 67, 87
2, 6069, Control_c, 0, 67, 94
2, 6084, Control_c, 0, 67, 101
2, 6099, Control_c, 0, 67, 105
2, 6115, Control_c, 0, 67, 109
2, 6130, Control_c, 0, 67, 114
2, 6145, Control_c, 0, 67, 119
2, 6160, Control_c, 0, 67, 123
2, 6175, Control_c, 0, 67, 125
2, 6236, Control_c, 0, 67, 125
2, 6247, Note_on_c, 0, 72, 52
2, 6251, Control_c, 0, 67, 126
2, 6267, Control_c, 0, 67, 126
2, 6282, Control_c, 0, 67, 127
2, 6290, Note_on_c, 0, 73, 0
2, 6492, Note_on_c, 0, 70, 53
2, 6492, Note_on_c, 0, 72, 0
2, 6553, Note_on_c, 0, 64, 0
2, 6606, Note_on_c, 0, 53, 0
2, 6753, Note_on_c, 0, 65, 44
2, 6755, Note_on_c, 0, 68, 45
2, 6757, Note_on_c, 0, 70, 0
2, 6759, Note_on_c, 0, 53, 35
2, 6854, Note_on_c, 0, 55, 0
2, 7012, Note_on_c, 0, 56, 34
2, 7088, Note_on_c, 0, 65, 0
2, 7236, Note_on_c, 0, 60, 34
2, 7423, Note_on_c, 0, 56, 0
2, 7443, Note_on_c, 0, 70, 58
2, 7459, Note_on_c, 0, 65, 33
2, 7474, Note_on_c, 0, 68, 0
2, 7523, Note_on_c, 0, 60, 0
2, 7670, Note_on_c, 0, 55, 53
2, 7670, Note_on_c, 0, 70, 0
2, 7670, Note_on_c, 0, 72, 54
2, 7729, Note_on_c, 0, 53, 0
2, 7756, Note_on_c, 0, 65, 0
2, 7767, Note_on_c, 0, 72, 0
2, 7775, Note_on_c, 0, 70, 60
2, 7855, Note_on_c, 0, 70, 0
2, 7875, Note_on_c, 0, 72, 64
2, 7903, Note_on_c, 0, 65, 42
2, 7954, Note_on_c, 0, 72, 0
2, 7964, Note_on_c, 0, 70, 62
2, 8025, Note_on_c, 0, 70, 0
2, 8034, Note_on_c, 0, 72, 61
2, 8075, Note_on_c, 0, 65, 0
2, 8097, Note_on_c, 0, 64, 43
2, 8104, Note_on_c, 0, 72, 0
2, 8112, Note_on_c, 0, 70, 60
2, 8159, Note_on_c, 0, 70, 0
2, 8168, Note_on_c, 0, 72, 56
2, 8238, Note_on_c, 0, 70, 60
2, 8241, Note_on_c, 0, 72, 0
2, 8271, Note_on_c, 0, 64, 0
2, 8296, Note_on_c, 0, 68, 69
2, 8296, Note_on_c, 0, 70, 0
2, 8297, Note_on_c, 0, 67, 60
2, 8375, Note_on_c, 0, 68, 0
2, 8395, Note_on_c, 0, 70, 67
2, 8502, Note_on_c, 0, 67, 0
2, 8514, Note_on_c, 0, 72, 70
2, 8520, Note_on_c, 0, 70, 0
2, 8526, Note_on_c, 0, 56, 62
2, 8590, Note_on_c, 0, 55, 0
2, 8736, Note_on_c, 0, 68, 69
2, 8807, Control_c, 0, 67, 120
2, 8822, Control_c, 0, 67, 109
2, 8837, Control_c, 0, 67, 100
2, 8852, Control_c, 0, 67, 93
2, 8867, Control_c, 0, 67, 87
2, 8882, Control_c, 0, 67, 79
2, 8897, Control_c, 0, 67, 70
2, 8913, Control_c, 0, 67, 58
2, 8928, Control_c, 0, 67, 46
2, 8935, Note_on_c, 0, 68, 0
2, 8943, Control_c, 0, 67, 36
2, 8951, Note_on_c, 0, 64, 64
2, 8958, Control_c, 0, 67, 31
2, 8973, Control_c, 0, 67, 30
2, 8990, Control_c, 0, 67, 30
2, 9005, Control_c, 0, 67, 32
2, 9020, Control_c, 0, 67, 35
2, 9036, Control_c, 0, 67, 37
2, 9050, Control_c, 0, 67, 39
2, 9066, Control_c, 0, 67, 40
2, 9081, Control_c, 0, 67, 42
2, 9095, Control_c, 0, 67, 44
2, 9111, Control_c, 0, 67, 48
2, 9126, Control_c, 0, 67, 52
2, 9142, Control_c, 0, 67, 55
2, 9149, Note_on_c, 0, 64, 0
2, 9157, Control_c, 0, 67, 56
2, 9164, Note_on_c, 0, 65, 62
2, 9171, Control_c, 0, 67, 55
2, 9187, Control_c, 0, 67, 54
2, 9202, Control_c, 0, 67, 53
2, 9217, Control_c, 0, 67, 52
2, 9233, Control_c, 0, 67, 51
2, 9238, Note_on_c, 0, 72, 0
2, 9247, Control_c, 0, 67, 51
2, 9278, Control_c, 0, 67, 50
2, 9293, Control_c, 0, 67, 50
2, 9309, Control_c, 0, 67, 49
2, 9373, Note_on_c, 0, 58, 47
2, 9387, Note_on_c, 0, 61, 41
2, 9400, Note_on_c, 0, 65, 0
2, 9438, Control_c, 0, 67, 50
2, 9452, Control_c, 0, 67, 51
2, 9457, Note_on_c, 0, 56, 0
2, 9468, Control_c, 0, 67, 51
2, 9483, Control_c, 0, 67, 52
2, 9514, Control_c, 0, 67, 53
2, 9544, Control_c, 0, 67, 53
2, 9618, Note_on_c, 0, 73, 58
2, 9681, Control_c, 0, 67, 54
2, 9726, Control_c, 0, 67, 54
2, 9802, Control_c, 0, 67, 55
2, 9834, Control_c, 0, 67, 55
2, 9850, Note_on_c, 0, 73, 0
2, 9855, Note_on_c, 0, 67, 56
2, 9865, Control_c, 0, 67, 56
2, 9894, Control_c, 0, 67, 56
2, 9925, Control_c, 0, 67, 57
2, 10085, Note_on_c, 0, 70, 52
2, 10128, Note_on_c, 0, 67, 0
2, 10251, Control_c, 0, 67, 57
2, 10296, Control_c, 0, 67, 58
2, 10362, Note_on_c, 0, 70, 0
2, 10368, Note_on_c, 0, 64, 45
2, 10372, Note_on_c, 0, 48, 43
2, 10373, Note_on_c, 0, 61, 0
2, 10399, Note_on_c, 0, 60, 28
2, 10469, Note_on_c, 0, 58, 0
2, 10537, Note_on_c, 0, 60, 0
2, 10601, Control_c, 0, 67, 58
2, 10616, Control_c, 0, 67, 61
2, 10617, Note_on_c, 0, 52, 45
2, 10633, Control_c, 0, 67, 73
2, 10647, Control_c, 0, 67, 84
2, 10663, Control_c, 0, 67, 93
2, 10678, Control_c, 0, 67, 98
2, 10693, Control_c, 0, 67, 102
2, 10708, Control_c, 0, 67, 107
2, 10723, Control_c, 0, 67, 112
2, 10738, Control_c, 0, 67, 117
2, 10754, Control_c, 0, 67, 120
2, 10769, Control_c, 0, 67, 123
2, 10784, Control_c, 0, 67, 123
2, 10845, Control_c, 0, 67, 123
2, 10845, Note_on_c, 0, 52, 0
2, 10851, Note_on_c, 0, 55, 43
2, 10875, Control_c, 0, 67, 122
2, 11019, Control_c, 0, 67, 122
2, 11035, Control_c, 0, 67, 123
2, 11065, Control_c, 0, 67, 123
2, 11080, Control_c, 0, 67, 124
2, 11080, Note_on_c, 0, 65, 55
2, 11090, Note_on_c, 0, 64, 0
2, 11106, Note_on_c, 0, 60, 38
2, 11115, Note_on_c, 0, 55, 0
2, 11232, Control_c, 0, 67, 123
2, 11263, Control_c, 0, 67, 123
2, 11292, Control_c, 0, 67, 122
2, 11308, Control_c, 0, 67, 122
2, 11323, Control_c, 0, 67, 121
2, 11338, Control_c, 0, 67, 120
2, 11347, Note_on_c, 0, 65, 0
2, 11354, Control_c, 0, 67, 119
2, 11358, Note_on_c, 0, 49, 42
2, 11360, Note_on_c, 0, 67, 48
2, 11385, Control_c, 0, 67, 117
2, 11388, Note_on_c, 0, 48, 0
2, 11399, Control_c, 0, 67, 116
2, 11414, Control_c, 0, 67, 114
2, 11430, Control_c, 0, 67, 113
2, 11442, Note_on_c, 0, 60, 0
2, 11454, Note_on_c, 0, 67, 0
2, 11476, Control_c, 0, 67, 112
2, 11479, Note_on_c, 0, 65, 54
2, 11491, Control_c, 0, 67, 112
2, 11551, Note_on_c, 0, 65, 0
2, 11567, Control_c, 0, 67, 112
2, 11572, Note_on_c, 0, 67, 57
2, 11583, Control_c, 0, 67, 113
2, 11596, Note_on_c, 0, 60, 34
2, 11598, Control_c, 0, 67, 113
2, 11617, Note_on_c, 0, 67, 0
2, 11628, Control_c, 0, 67, 114
2, 11643, Note_on_c, 0, 65, 56
2, 11658, Control_c, 0, 67, 114
2, 11674, Control_c, 0, 67, 115
2, 11689, Control_c, 0, 67, 114
2, 11692, Note_on_c, 0, 65, 0
2, 11704, Control_c, 0, 67, 113
2, 11709, Note_on_c, 0, 67, 62
2, 11719, Control_c, 0, 67, 113
2, 11743, Control_c, 0, 67, 112
2, 11746, Note_on_c, 0, 60, 0
2, 11755, Note_on_c, 0, 67, 0
2, 11772, Control_c, 0, 67, 112
2, 11772, Note_on_c, 0, 65, 54
2, 11779, Note_on_c, 0, 58, 37
2, 11788, Control_c, 0, 67, 111
2, 11815, Note_on_c, 0, 65, 0
2, 11822, Note_on_c, 0, 67, 56
2, 11833, Control_c, 0, 67, 112
2, 11848, Control_c, 0, 67, 113
2, 11863, Note_on_c, 0, 67, 0
2, 11864, Control_c, 0, 67, 114
2, 11879, Control_c, 0, 67, 115
2, 11884, Note_on_c, 0, 65, 56
2, 11909, Control_c, 0, 67, 115
2, 11957, Note_on_c, 0, 65, 0
2, 11975, Note_on_c, 0, 64, 60
2, 11987, Note_on_c, 0, 61, 41
2, 12005, Note_on_c, 0, 58, 0
2, 12057, Note_on_c, 0, 64, 0
2, 12077, Note_on_c, 0, 65, 58
2, 12167, Control_c, 0, 67, 114
2, 12182, Note_on_c, 0, 65, 0
2, 12183, Control_c, 0, 67, 113
2, 12198, Control_c, 0, 67, 111
2, 12212, Note_on_c, 0, 67, 60
2, 12213, Control_c, 0, 67, 110
2, 12227, Note_on_c, 0, 52, 48
2, 12229, Control_c, 0, 67, 108
2, 12243, Control_c, 0, 67, 104
2, 12257, Note_on_c, 0, 61, 0
2, 12258, Control_c, 0, 67, 100
2, 12274, Control_c, 0, 67, 96
2, 12289, Control_c, 0, 67, 93
2, 12302, Note_on_c, 0, 49, 0
2, 12305, Control_c, 0, 67, 90
2, 12320, Control_c, 0, 67, 88
2, 12335, Control_c, 0, 67, 85
2, 12351, Control_c, 0, 67, 80
2, 12366, Control_c, 0, 67, 75
2, 12382, Control_c, 0, 67, 71
2, 12396, Control_c, 0, 67, 65
2, 12411, Control_c, 0, 67, 58
2, 12427, Control_c, 0, 67, 50
2, 12442, Control_c, 0, 67, 41
2, 12445, Note_on_c, 0, 72, 73
2, 12457, Control_c, 0, 67, 33
2, 12472, Control_c, 0, 67, 28
2, 12487, Control_c, 0, 67, 24
2, 12510, Control_c, 0, 67, 23
2, 12616, Control_c, 0, 67, 24
2, 12632, Control_c, 0, 67, 25
2, 12647, Control_c, 0, 67, 25
2, 12663, Control_c, 0, 67, 26
2, 12677, Control_c, 0, 67, 27
2, 12679, Note_on_c, 0, 70, 71
2, 12696, Note_on_c, 0, 72, 0
2, 12706, Note_on_c, 0, 55, 36
2, 12753, Control_c, 0, 67, 27
2, 12768, Control_c, 0, 67, 28
2, 12782, Note_on_c, 0, 67, 0
2, 12813, Control_c, 0, 67, 28
2, 12829, Control_c, 0, 67, 29
2, 12844, Control_c, 0, 67, 29
2, 12859, Control_c, 0, 67, 30
2, 12875, Control_c, 0, 67, 30
2, 12903, Note_on_c, 0, 73, 69
2, 12920, Note_on_c, 0, 70, 0
2, 12934, Control_c, 0, 67, 30
2, 13127, Note_on_c, 0, 64, 64
2, 13127, Note_on_c, 0, 73, 0
2, 13150, Note_on_c, 0, 60, 36
2, 13274, Note_on_c, 0, 55, 0
2, 13293, Control_c, 0, 67, 30
2, 13338, Control_c, 0, 67, 31
2, 13348, Note_on_c, 0, 73, 71
2, 13354, Control_c, 0, 67, 32
2, 13368, Control_c, 0, 67, 32
2, 13384, Control_c, 0, 67, 33
2, 13399, Control_c, 0, 67, 34
2, 13414, Control_c, 0, 67, 34
2, 13430, Control_c, 0, 67, 35
2, 13576, Note_on_c, 0, 72, 67
2, 13588, Note_on_c, 0, 64, 0
2, 13589, Note_on_c, 0, 73, 0
2, 13597, Control_c, 0, 67, 35
2, 13619, Note_on_c, 0, 48, 40
2, 13623, Note_on_c, 0, 52, 0
2, 13628, Control_c, 0, 67, 36
2, 13643, Control_c, 0, 67, 36
2, 13657, Control_c, 0, 67, 38
2, 13668, Note_on_c, 0, 60, 0
2, 13673, Control_c, 0, 67, 43
2, 13688, Control_c, 0, 67, 46
2, 13704, Control_c, 0, 67, 48
2, 13717, Control_c, 0, 67, 50
2, 13732, Control_c, 0, 67, 51
2, 13748, Control_c, 0, 67, 53
2, 13763, Control_c, 0, 67, 53
2, 13793, Control_c, 0, 67, 54
2, 13808, Control_c, 0, 67, 54
2, 13809, Note_on_c, 0, 70, 65
2, 13824, Control_c, 0, 67, 55
2, 13839, Control_c, 0, 67, 57
2, 13840, Note_on_c, 0, 72, 0
2, 13853, Control_c, 0, 67, 58
2, 13869, Control_c, 0, 67, 58
2, 13884, Control_c, 0, 67, 58
2, 13947, Control_c, 0, 67, 57
2, 13961, Control_c, 0, 67, 56
2, 13976, Control_c, 0, 67, 56
2, 14022, Control_c, 0, 67, 55
2, 14059, Control_c, 0, 67, 55
2, 14063, Note_on_c, 0, 69, 58
2, 14081, Note_on_c, 0, 63, 40
2, 14089, Note_on_c, 0, 41, 35
2, 14090, Control_c, 0, 67, 55
2, 14093, Note_on_c, 0, 70, 0
2, 14106, Control_c, 0, 67, 56
2, 14136, Control_c, 0, 67, 56
2, 14152, Control_c, 0, 67, 57
2, 14162, Note_on_c, 0, 48, 0
2, 14182, Control_c, 0, 67, 56
2, 14211, Control_c, 0, 67, 57
2, 14227, Control_c, 0, 67, 58
2, 14242, Control_c, 0, 67, 59
2, 14257, Control_c, 0, 67, 59
2, 14273, Control_c, 0, 67, 62
2, 14287, Control_c, 0, 67, 65
2, 14302, Note_on_c, 0, 45, 39
2, 14303, Control_c, 0, 67, 67
2, 14318, Control_c, 0, 67, 69
2, 14333, Control_c, 0, 67, 69
2, 14349, Control_c, 0, 67, 70
2, 14363, Control_c, 0, 67, 71
2, 14378, Control_c, 0, 67, 72
2, 14394, Control_c, 0, 67, 73
2, 14424, Control_c, 0, 67, 73
2, 14439, Control_c, 0, 67, 74
2, 14454, Control_c, 0, 67, 76
2, 14470, Control_c, 0, 67, 80
2, 14470, Note_on_c, 0, 45, 0
2, 14486, Control_c, 0, 67, 83
2, 14500, Control_c, 0, 67, 84
2, 14516, Control_c, 0, 67, 84
2, 14517, Note_on_c, 0, 48, 38
2, 14531, Control_c, 0, 67, 85
2, 14546, Control_c, 0, 67, 87
2, 14561, Control_c, 0, 67, 89
2, 14576, Control_c, 0, 67, 93
2, 14592, Control_c, 0, 67, 96
2, 14607, Control_c, 0, 67, 98
2, 14623, Control_c, 0, 67, 100
2, 14638, Control_c, 0, 67, 101
2, 14652, Control_c, 0, 67, 103
2, 14668, Control_c, 0, 67, 105
2, 14683, Control_c, 0, 67, 108
2, 14698, Control_c, 0, 67, 108
2, 14714, Control_c, 0, 67, 109
2, 14729, Control_c, 0, 67, 109
2, 14732, Note_on_c, 0, 70, 55
2, 14750, Note_on_c, 0, 48, 0
2, 14772, Note_on_c, 0, 53, 29
2, 14859, Note_on_c, 0, 63, 0
2, 14905, Control_c, 0, 67, 110
2, 15026, Note_on_c, 0, 72, 51
2, 15031, Note_on_c, 0, 70, 0
2, 15047, Note_on_c, 0, 61, 38
2, 15047, Note_on_c, 0, 69, 0
2, 15051, Note_on_c, 0, 42, 33
2, 15056, Note_on_c, 0, 53, 0
2, 15096, Note_on_c, 0, 41, 0
2, 15158, Note_on_c, 0, 72, 0
2, 15160, Note_on_c, 0, 70, 58
2, 15163, Control_c, 0, 67, 109
2, 15194, Control_c, 0, 67, 108
2, 15243, Note_on_c, 0, 70, 0
2, 15262, Note_on_c, 0, 72, 50
2, 15310, Note_on_c, 0, 53, 31
2, 15316, Control_c, 0, 67, 109
2, 15331, Control_c, 0, 67, 109
2, 15333, Note_on_c, 0, 72, 0
2, 15347, Note_on_c, 0, 70, 61
2, 15402, Note_on_c, 0, 70, 0
2, 15433, Note_on_c, 0, 72, 49
2, 15459, Note_on_c, 0, 53, 0
2, 15487, Note_on_c, 0, 72, 0
2, 15497, Note_on_c, 0, 70, 58
2, 15499, Note_on_c, 0, 51, 33
2, 15506, Note_on_c, 0, 61, 0
2, 15543, Note_on_c, 0, 70, 0
2, 15561, Note_on_c, 0, 72, 46
2, 15631, Note_on_c, 0, 70, 54
2, 15643, Note_on_c, 0, 72, 0
2, 15697, Note_on_c, 0, 70, 0
2, 15711, Note_on_c, 0, 69, 57
2, 15720, Note_on_c, 0, 51, 0
2, 15754, Note_on_c, 0, 54, 30
2, 15813, Note_on_c, 0, 69, 0
2, 15817, Note_on_c, 0, 70, 60
2, 15939, Note_on_c, 0, 70, 0
2, 15975, Note_on_c, 0, 72, 47
2, 16002, Note_on_c, 0, 45, 31
2, 16004, Note_on_c, 0, 42, 0
2, 16007, Control_c, 0, 67, 110
2, 16031, Note_on_c, 0, 54, 0
2, 16083, Control_c, 0, 67, 109
2, 16098, Control_c, 0, 67, 109
2, 16114, Control_c, 0, 67, 108
2, 16129, Control_c, 0, 67, 108
2, 16145, Control_c, 0, 67, 107
2, 16160, Control_c, 0, 67, 106
2, 16175, Control_c, 0, 67, 105
2, 16190, Control_c, 0, 67, 104
2, 16205, Control_c, 0, 67, 104
2, 16217, Note_on_c, 0, 65, 43
2, 16220, Control_c, 0, 67, 103
2, 16235, Control_c, 0, 67, 103
2, 16250, Control_c, 0, 67, 102
2, 16266, Control_c, 0, 67, 101
2, 16281, Control_c, 0, 67, 101
2, 16326, Control_c, 0, 67, 100
2, 16350, Control_c, 0, 67, 100
2, 16411, Control_c, 0, 67, 99
2, 16450, Note_on_c, 0, 63, 55
2, 16456, Control_c, 0, 67, 99
2, 16465, Note_on_c, 0, 48, 38
2, 16465, Note_on_c, 0, 65, 0
2, 16518, Control_c, 0, 67, 98
2, 16563, Control_c, 0, 67, 97
2, 16612, Note_on_c, 0, 45, 0
2, 16657, Note_on_c, 0, 66, 59
2, 16688, Note_on_c, 0, 63, 0
2, 16699, Control_c, 0, 67, 98
2, 16745, Control_c, 0, 67, 98
2, 16760, Control_c, 0, 67, 99
2, 16851, Control_c, 0, 67, 98
2, 16867, Control_c, 0, 67, 98
2, 16885, Note_on_c, 0, 45, 41
2, 16896, Control_c, 0, 67, 97
2, 16912, Control_c, 0, 67, 96
2, 16927, Control_c, 0, 67, 95
2, 16943, Control_c, 0, 67, 93
2, 16958, Control_c, 0, 67, 88
2, 16959, Note_on_c, 0, 48, 0
2, 16973, Control_c, 0, 67, 82
2, 16989, Control_c, 0, 67, 78
2, 17003, Control_c, 0, 67, 75
2, 17018, Control_c, 0, 67, 73
2, 17031, Note_on_c, 0, 66, 0
2, 17034, Control_c, 0, 67, 72
2, 17049, Control_c, 0, 67, 71
2, 17079, Control_c, 0, 67, 71
2, 17094, Control_c, 0, 67, 72
2, 17098, Note_on_c, 0, 66, 60
2, 17117, Control_c, 0, 67, 72
2, 17132, Control_c, 0, 67, 73
2, 17148, Control_c, 0, 67, 73
2, 17163, Control_c, 0, 67, 74
2, 17178, Control_c, 0, 67, 75
2, 17194, Control_c, 0, 67, 76
2, 17209, Control_c, 0, 67, 77
2, 17225, Control_c, 0, 67, 77
2, 17240, Control_c, 0, 67, 78
2, 17255, Control_c, 0, 67, 78
2, 17270, Control_c, 0, 67, 79
2, 17300, Control_c, 0, 67, 79
2, 17316, Control_c, 0, 67, 80
2, 17334, Note_on_c, 0, 65, 65
2, 17347, Control_c, 0, 67, 80
2, 17350, Note_on_c, 0, 41, 38
2, 17367, Note_on_c, 0, 66, 0
2, 17407, Control_c, 0, 67, 81
2, 17408, Note_on_c, 0, 45, 0
2, 17423, Control_c, 0, 67, 81
2, 17452, Control_c, 0, 67, 82
2, 17483, Control_c, 0, 67, 82
2, 17514, Control_c, 0, 67, 83
2, 17528, Control_c, 0, 67, 83
2, 17544, Control_c, 0, 67, 85
2, 17551, Note_on_c, 0, 63, 65
2, 17560, Control_c, 0, 67, 89
2, 17565, Note_on_c, 0, 65, 0
2, 17573, Control_c, 0, 67, 94
2, 17587, Control_c, 0, 67, 100
2, 17603, Control_c, 0, 67, 105
2, 17618, Control_c, 0, 67, 110
2, 17634, Control_c, 0, 67, 115
2, 17648, Control_c, 0, 67, 120
2, 17663, Control_c, 0, 67, 124
2, 17679, Control_c, 0, 67, 127
2, 17763, Note_on_c, 0, 63, 0
2, 17767, Note_on_c, 0, 61, 63
2, 17800, Note_on_c, 0, 46, 38
2, 17891, Note_on_c, 0, 41, 0
2, 17891, Note_on_c, 0, 72, 0
2, 17986, Note_on_c, 0, 72, 78
2, 18200, Note_on_c, 0, 70, 73
2, 18204, Control_c, 0, 67, 121
2, 18219, Control_c, 0, 67, 108
2, 18234, Control_c, 0, 67, 96
2, 18242, Note_on_c, 0, 72, 0
2, 18249, Control_c, 0, 67, 87
2, 18264, Control_c, 0, 67, 80
2, 18280, Control_c, 0, 67, 73
2, 18295, Control_c, 0, 67, 65
2, 18311, Control_c, 0, 67, 58
2, 18325, Control_c, 0, 67, 55
2, 18340, Control_c, 0, 67, 56
2, 18356, Control_c, 0, 67, 58
2, 18370, Control_c, 0, 67, 59
2, 18385, Control_c, 0, 67, 61
2, 18401, Control_c, 0, 67, 62
2, 18416, Control_c, 0, 67, 64
2, 18420, Note_on_c, 0, 73, 74
2, 18431, Control_c, 0, 67, 65
2, 18446, Control_c, 0, 67, 65
2, 18454, Note_on_c, 0, 70, 0
2, 18461, Control_c, 0, 67, 66
2, 18477, Control_c, 0, 67, 67
2, 18491, Control_c, 0, 67, 69
2, 18506, Control_c, 0, 67, 73
2, 18522, Control_c, 0, 67, 79
2, 18537, Control_c, 0, 67, 87
2, 18553, Control_c, 0, 67, 99
2, 18567, Control_c, 0, 67, 110
2, 18582, Control_c, 0, 67, 120
2, 18598, Control_c, 0, 67, 127
2, 18604, Note_on_c, 0, 61, 0
2, 18629, Note_on_c, 0, 67, 76
2, 18667, Note_on_c, 0, 73, 0
2, 18754, Note_on_c, 0, 46, 0
2, 18867, Note_on_c, 0, 46, 52
2, 19074, Note_on_c, 0, 70, 57
2, 19097, Note_on_c, 0, 48, 38
2, 19111, Note_on_c, 0, 70, 0
2, 19127, Note_on_c, 0, 68, 59
2, 19158, Note_on_c, 0, 68, 0
2, 19165, Note_on_c, 0, 67, 0
2, 19181, Note_on_c, 0, 70, 55
2, 19220, Note_on_c, 0, 68, 67
2, 19225, Note_on_c, 0, 70, 0
2, 19245, Note_on_c, 0, 46, 0
2, 19322, Note_on_c, 0, 48, 0
2, 19334, Note_on_c, 0, 49, 43
2, 19591, Note_on_c, 0, 70, 58
2, 19592, Note_on_c, 0, 68, 0
2, 19618, Note_on_c, 0, 43, 33
2, 19689, Note_on_c, 0, 49, 0
2, 19837, Note_on_c, 0, 60, 58
2, 20060, Note_on_c, 0, 61, 56
2, 20069, Note_on_c, 0, 60, 0
2, 20082, Note_on_c, 0, 46, 39
2, 20191, Note_on_c, 0, 43, 0
2, 20286, Note_on_c, 0, 65, 55
2, 20295, Note_on_c, 0, 61, 0
2, 20519, Note_on_c, 0, 46, 0
2, 20538, Note_on_c, 0, 51, 33
2, 20541, Note_on_c, 0, 55, 25
2, 20684, Note_on_c, 0, 65, 0
2, 20731, Note_on_c, 0, 65, 40
2, 20787, Note_on_c, 0, 55, 0
2, 20992, Note_on_c, 0, 63, 49
2, 21042, Note_on_c, 0, 39, 18
2, 21066, Note_on_c, 0, 65, 0
2, 21227, Note_on_c, 0, 61, 46
2, 21231, Note_on_c, 0, 63, 0
2, 21259, Note_on_c, 0, 51, 0
2, 21526, Note_on_c, 0, 60, 42
2, 21528, Note_on_c, 0, 44, 33
2, 21536, Note_on_c, 0, 61, 0
2, 21588, Note_on_c, 0, 39, 0
2, 21848, Note_on_c, 0, 68, 38
2, 21868, Note_on_c, 0, 48, 40
2, 21869, Note_on_c, 0, 70, 0
2, 22085, Note_on_c, 0, 51, 29
2, 22096, Note_on_c, 0, 72, 50
2, 22109, Note_on_c, 0, 68, 0
2, 22116, Note_on_c, 0, 48, 0
2, 22310, Note_on_c, 0, 51, 0
2, 22312, Note_on_c, 0, 56, 25
2, 22423, Note_on_c, 0, 60, 0
2, 22514, Note_on_c, 0, 44, 0
2, 22533, Note_on_c, 0, 61, 52
2, 22543, Note_on_c, 0, 46, 39
2, 22594, Note_on_c, 0, 56, 0
2, 22702, Control_c, 0, 67, 125
2, 22717, Control_c, 0, 67, 119
2, 22732, Control_c, 0, 67, 112
2, 22735, Note_on_c, 0, 70, 51
2, 22747, Control_c, 0, 67, 104
2, 22747, Note_on_c, 0, 72, 0
2, 22763, Control_c, 0, 67, 97
2, 22763, Note_on_c, 0, 56, 41
2, 22778, Control_c, 0, 67, 91
2, 22793, Control_c, 0, 67, 87
2, 22808, Control_c, 0, 67, 85
2, 22823, Control_c, 0, 67, 84
2, 22839, Control_c, 0, 67, 84
2, 22854, Control_c, 0, 67, 85
2, 22869, Control_c, 0, 67, 86
2, 22884, Control_c, 0, 67, 86
2, 22899, Control_c, 0, 67, 87
2, 22916, Control_c, 0, 67, 88
2, 22931, Control_c, 0, 67, 90
2, 22946, Control_c, 0, 67, 91
2, 22959, Note_on_c, 0, 70, 0
2, 22962, Control_c, 0, 67, 91
2, 22969, Note_on_c, 0, 73, 56
2, 22975, Note_on_c, 0, 55, 43
2, 22976, Control_c, 0, 67, 92
2, 22991, Control_c, 0, 67, 94
2, 22997, Note_on_c, 0, 56, 0
2, 23007, Control_c, 0, 67, 97
2, 23022, Control_c, 0, 67, 103
2, 23038, Control_c, 0, 67, 114
2, 23053, Control_c, 0, 67, 127
2, 23067, Control_c, 0, 67, 127
2, 23114, Note_on_c, 0, 55, 0
2, 23178, Note_on_c, 0, 58, 44
2, 23237, Note_on_c, 0, 61, 0
2, 23297, Note_on_c, 0, 46, 0
2, 23402, Note_on_c, 0, 63, 66
2, 23417, Note_on_c, 0, 48, 53
2, 23570, Note_on_c, 0, 58, 0
2, 23624, Note_on_c, 0, 72, 66
2, 23642, Note_on_c, 0, 51, 39
2, 23687, Note_on_c, 0, 73, 0
2, 23834, Note_on_c, 0, 51, 0
2, 23842, Note_on_c, 0, 75, 65
2, 23850, Note_on_c, 0, 72, 0
2, 23854, Note_on_c, 0, 56, 37
2, 24025, Note_on_c, 0, 56, 0
2, 24060, Note_on_c, 0, 60, 42
2, 24265, Note_on_c, 0, 65, 74
2, 24270, Note_on_c, 0, 48, 0
2, 24271, Note_on_c, 0, 49, 57
2, 24276, Note_on_c, 0, 63, 0
2, 24318, Note_on_c, 0, 60, 0
2, 24438, Control_c, 0, 67, 126
2, 24452, Control_c, 0, 67, 123
2, 24469, Control_c, 0, 67, 119
2, 24481, Note_on_c, 0, 73, 67
2, 24484, Control_c, 0, 67, 116
2, 24489, Note_on_c, 0, 60, 45
2, 24499, Control_c, 0, 67, 113
2, 24515, Control_c, 0, 67, 111
2, 24531, Control_c, 0, 67, 109
2, 24531, Note_on_c, 0, 75, 0
2, 24578, Control_c, 0, 67, 110
2, 24608, Control_c, 0, 67, 111
2, 24624, Control_c, 0, 67, 112
2, 24639, Control_c, 0, 67, 112
2, 24654, Control_c, 0, 67, 113
2, 24657, Note_on_c, 0, 60, 0
2, 24670, Control_c, 0, 67, 114
2, 24684, Control_c, 0, 67, 115
2, 24688, Note_on_c, 0, 77, 72
2, 24693, Note_on_c, 0, 58, 48
2, 24716, Note_on_c, 0, 73, 0
2, 24746, Control_c, 0, 67, 116
2, 24760, Control_c, 0, 67, 116
2, 24775, Control_c, 0, 67, 117
2, 24799, Control_c, 0, 67, 117
2, 24829, Control_c, 0, 67, 118
2, 24862, Note_on_c, 0, 58, 0
2, 24889, Control_c, 0, 67, 117
2, 24899, Note_on_c, 0, 61, 53
2, 24948, Note_on_c, 0, 65, 0
2, 25027, Control_c, 0, 67, 118
2, 25087, Control_c, 0, 67, 117
2, 25114, Note_on_c, 0, 67, 74
2, 25121, Note_on_c, 0, 51, 52
2, 25124, Note_on_c, 0, 49, 0
2, 25173, Note_on_c, 0, 61, 0
2, 25194, Control_c, 0, 67, 118
2, 25319, Note_on_c, 0, 75, 72
2, 25329, Note_on_c, 0, 55, 55
2, 25366, Note_on_c, 0, 77, 0
2, 25377, Control_c, 0, 67, 118
2, 25452, Control_c, 0, 67, 119
2, 25468, Control_c, 0, 67, 119
2, 25483, Control_c, 0, 67, 120
2, 25498, Control_c, 0, 67, 121
2, 25514, Control_c, 0, 67, 122
2, 25528, Control_c, 0, 67, 123
2, 25528, Note_on_c, 0, 73, 72
2, 25544, Control_c, 0, 67, 126
2, 25546, Note_on_c, 0, 58, 55
2, 25567, Control_c, 0, 67, 127
2, 25572, Note_on_c, 0, 55, 0
2, 25582, Note_on_c, 0, 75, 0
2, 25734, Note_on_c, 0, 72, 73
2, 25735, Note_on_c, 0, 58, 0
2, 25754, Note_on_c, 0, 63, 51
2, 25756, Note_on_c, 0, 73, 0
2, 25926, Note_on_c, 0, 67, 0
2, 25947, Note_on_c, 0, 53, 64
2, 25959, Note_on_c, 0, 70, 74
2, 25990, Note_on_c, 0, 72, 0
2, 25998, Note_on_c, 0, 51, 0
2, 26035, Note_on_c, 0, 63, 0
2, 26149, Note_on_c, 0, 67, 75
2, 26151, Note_on_c, 0, 70, 0
2, 26155, Note_on_c, 0, 63, 55
2, 26367, Note_on_c, 0, 68, 73
2, 26374, Note_on_c, 0, 67, 0
2, 26381, Note_on_c, 0, 61, 50
2, 26398, Note_on_c, 0, 63, 0
2, 26557, Note_on_c, 0, 61, 0
2, 26575, Note_on_c, 0, 73, 68
2, 26577, Note_on_c, 0, 65, 58
2, 26598, Note_on_c, 0, 68, 0
2, 26817, Note_on_c, 0, 55, 56
2, 26818, Note_on_c, 0, 72, 62
2, 26857, Note_on_c, 0, 73, 0
2, 26882, Note_on_c, 0, 53, 0
2, 26888, Note_on_c, 0, 65, 0
2, 26941, Note_on_c, 0, 72, 0
2, 26947, Note_on_c, 0, 70, 61
2, 27026, Note_on_c, 0, 70, 0
2, 27043, Note_on_c, 0, 65, 46
2, 27044, Note_on_c, 0, 72, 61
2, 27113, Note_on_c, 0, 72, 0
2, 27127, Note_on_c, 0, 70, 57
2, 27192, Note_on_c, 0, 70, 0
2, 27205, Note_on_c, 0, 72, 57
2, 27206, Note_on_c, 0, 65, 0
2, 27235, Note_on_c, 0, 63, 44
2, 27260, Note_on_c, 0, 72, 0
2, 27275, Note_on_c, 0, 70, 47
2, 27330, Note_on_c, 0, 70, 0
2, 27339, Note_on_c, 0, 72, 49
2, 27397, Note_on_c, 0, 72, 0
2, 27404, Note_on_c, 0, 63, 0
2, 27406, Note_on_c, 0, 70, 37
2, 27447, Note_on_c, 0, 61, 35
2, 27639, Note_on_c, 0, 61, 0
2, 27639, Note_on_c, 0, 70, 0
2, 27659, Note_on_c, 0, 60, 45
2, 27674, Note_on_c, 0, 56, 44
2, 27721, Note_on_c, 0, 55, 0
2, 27895, Note_on_c, 0, 63, 47
2, 28106, Note_on_c, 0, 65, 63
2, 28112, Note_on_c, 0, 63, 0
2, 28118, Note_on_c, 0, 55, 43
2, 28182, Note_on_c, 0, 56, 0
2, 28323, Note_on_c, 0, 67, 79
2, 28372, Note_on_c, 0, 65, 0
2, 28554, Note_on_c, 0, 67, 0
2, 28556, Note_on_c, 0, 68, 72
2, 28562, Note_on_c, 0, 53, 53
2, 28568, Note_on_c, 0, 55, 0
2, 28773, Note_on_c, 0, 68, 0
2, 28782, Note_on_c, 0, 67, 70
2, 28988, Note_on_c, 0, 49, 37
2, 28993, Note_on_c, 0, 53, 0
2, 29008, Note_on_c, 0, 68, 64
2, 29009, Note_on_c, 0, 67, 0
2, 29246, Note_on_c, 0, 77, 61
2, 29254, Note_on_c, 0, 68, 0
2, 29393, Note_on_c, 0, 60, 0
2, 29518, Note_on_c, 0, 75, 51
2, 29525, Note_on_c, 0, 60, 41
2, 29545, Note_on_c, 0, 49, 0
2, 29555, Note_on_c, 0, 51, 31
2, 29587, Note_on_c, 0, 77, 0
2, 29632, Note_on_c, 0, 60, 0
2, 29667, Note_on_c, 0, 58, 40
2, 29769, Note_on_c, 0, 58, 0
2, 29791, Note_on_c, 0, 68, 53
2, 29792, Note_on_c, 0, 75, 0
2, 29803, Note_on_c, 0, 60, 38
2, 29885, Note_on_c, 0, 60, 0
2, 29916, Note_on_c, 0, 58, 45
2, 30039, Note_on_c, 0, 58, 0
2, 30060, Note_on_c, 0, 68, 0
2, 30063, Note_on_c, 0, 67, 46
2, 30065, Note_on_c, 0, 60, 35
2, 30174, Note_on_c, 0, 60, 0
2, 30212, Note_on_c, 0, 58, 36
2, 30337, Note_on_c, 0, 58, 0
2, 30393, Note_on_c, 0, 56, 35
2, 30394, Note_on_c, 0, 67, 0
2, 30396, Note_on_c, 0, 73, 40
2, 30529, Note_on_c, 0, 56, 0
2, 30585, Note_on_c, 0, 58, 36
2, 30662, Note_on_c, 0, 58, 0
2, 30844, Note_on_c, 0, 72, 39
2, 30870, Note_on_c, 0, 73, 0
2, 30876, Note_on_c, 0, 44, 31
2, 30876, Note_on_c, 0, 56, 25
2, 30954, Note_on_c, 0, 51, 0
2, 31157, Note_on_c, 0, 68, 38
2, 31161, Note_on_c, 0, 72, 0
2, 31366, Note_on_c, 0, 68, 0
2, 31385, Note_on_c, 0, 44, 0
2, 31394, Note_on_c, 0, 72, 52
2, 31440, Note_on_c, 0, 56, 0
2, 31623, Note_on_c, 0, 72, 0
2, 31625, Note_on_c, 0, 76, 60
2, 31652, Control_c, 0, 67, 127
2, 31667, Control_c, 0, 67, 123
2, 31683, Control_c, 0, 67, 120
2, 31705, Control_c, 0, 67, 117
2, 31721, Control_c, 0, 67, 116
2, 31736, Control_c, 0, 67, 114
2, 31750, Control_c, 0, 67, 113
2, 31766, Control_c, 0, 67, 111
2, 31781, Control_c, 0, 67, 110
2, 31826, Control_c, 0, 67, 111
2, 31837, Note_on_c, 0, 77, 62
2, 31859, Note_on_c, 0, 76, 0
2, 31887, Control_c, 0, 67, 111
2, 31918, Control_c, 0, 67, 112
2, 31949, Control_c, 0, 67, 112
2, 32074, Note_on_c, 0, 79, 62
2, 32078, Note_on_c, 0, 77, 0
2, 32082, Note_on_c, 0, 56, 36
2, 32176, Control_c, 0, 67, 112
2, 32302, Note_on_c, 0, 76, 68
2, 32308, Note_on_c, 0, 55, 38
2, 32329, Control_c, 0, 67, 112
2, 32335, Note_on_c, 0, 79, 0
2, 32355, Note_on_c, 0, 56, 0
2, 32375, Control_c, 0, 67, 113
2, 32420, Control_c, 0, 67, 113
2, 32451, Control_c, 0, 67, 114
2, 32503, Control_c, 0, 67, 114
2, 32522, Note_on_c, 0, 76, 0
2, 32522, Note_on_c, 0, 77, 75
2, 32529, Note_on_c, 0, 55, 0
2, 32546, Note_on_c, 0, 53, 37
2, 32670, Control_c, 0, 67, 114
2, 32740, Note_on_c, 0, 53, 0
2, 32763, Note_on_c, 0, 79, 69
2, 32770, Note_on_c, 0, 52, 39
2, 32775, Note_on_c, 0, 77, 0
2, 32854, Control_c, 0, 67, 113
2, 32899, Control_c, 0, 67, 114
2, 32929, Control_c, 0, 67, 114
2, 32943, Control_c, 0, 67, 115
2, 32959, Control_c, 0, 67, 116
2, 32974, Control_c, 0, 67, 116
2, 32989, Control_c, 0, 67, 117
2, 32991, Note_on_c, 0, 55, 53
2, 33005, Control_c, 0, 67, 118
2, 33020, Control_c, 0, 67, 119
2, 33035, Control_c, 0, 67, 120
2, 33050, Control_c, 0, 67, 121
2, 33065, Control_c, 0, 67, 122
2, 33096, Control_c, 0, 67, 122
2, 33127, Control_c, 0, 67, 123
2, 33157, Control_c, 0, 67, 122
2, 33172, Control_c, 0, 67, 122
2, 33208, Note_on_c, 0, 58, 65
2, 33232, Note_on_c, 0, 55, 0
2, 33240, Control_c, 0, 67, 121
2, 33332, Control_c, 0, 67, 122
2, 33377, Control_c, 0, 67, 122
2, 33392, Control_c, 0, 67, 123
2, 33422, Note_on_c, 0, 58, 0
2, 33423, Control_c, 0, 67, 123
2, 33448, Note_on_c, 0, 61, 61
2, 33453, Control_c, 0, 67, 125
2, 33468, Control_c, 0, 67, 127
2, 33660, Note_on_c, 0, 48, 45
2, 33665, Note_on_c, 0, 61, 0
2, 33684, Note_on_c, 0, 52, 0
2, 33896, Note_on_c, 0, 53, 38
2, 34114, Note_on_c, 0, 53, 0
2, 34126, Note_on_c, 0, 52, 32
2, 34283, Note_on_c, 0, 52, 0
2, 34355, Note_on_c, 0, 55, 21
2, 34573, Note_on_c, 0, 55, 0
2, 34582, Note_on_c, 0, 56, 36
2, 34585, Note_on_c, 0, 48, 0
2, 34805, Note_on_c, 0, 79, 0
2, 34814, Note_on_c, 0, 72, 53
2, 35060, Note_on_c, 0, 72, 0
2, 35061, Note_on_c, 0, 77, 65
2, 35286, Note_on_c, 0, 77, 0
2, 35286, Note_on_c, 0, 80, 59
2, 35456, Note_on_c, 0, 80, 0
2, 35458, Note_on_c, 0, 56, 0
2, 35499, Note_on_c, 0, 74, 50
2, 35701, Note_on_c, 0, 74, 0
2, 35719, Note_on_c, 0, 77, 49
2, 35733, Note_on_c, 0, 53, 33
2, 35947, Note_on_c, 0, 77, 0
2, 35951, Note_on_c, 0, 71, 48
2, 35971, Note_on_c, 0, 51, 35
2, 35974, Note_on_c, 0, 53, 0
2, 36147, Note_on_c, 0, 71, 0
2, 36153, Note_on_c, 0, 72, 48
2, 36185, Note_on_c, 0, 51, 0
2, 36187, Note_on_c, 0, 50, 38
2, 36428, Note_on_c, 0, 72, 0
2, 36430, Note_on_c, 0, 71, 44
2, 36443, Note_on_c, 0, 55, 36
2, 36445, Note_on_c, 0, 50, 0
2, 36527, Note_on_c, 0, 71, 0
2, 36539, Note_on_c, 0, 72, 55
2, 36647, Note_on_c, 0, 72, 0
2, 36655, Note_on_c, 0, 71, 57
2, 36689, Note_on_c, 0, 59, 26
2, 36728, Note_on_c, 0, 71, 0
2, 36737, Note_on_c, 0, 72, 63
2, 36831, Note_on_c, 0, 72, 0
2, 36845, Note_on_c, 0, 71, 64
2, 36848, Note_on_c, 0, 59, 0
2, 36875, Note_on_c, 0, 62, 43
2, 36914, Note_on_c, 0, 71, 0
2, 36921, Note_on_c, 0, 72, 65
2, 36951, Note_on_c, 0, 62, 0
2, 36951, Note_on_c, 0, 62, 7
2, 37018, Note_on_c, 0, 72, 0
2, 37043, Note_on_c, 0, 71, 64
2, 37075, Note_on_c, 0, 67, 42
2, 37113, Note_on_c, 0, 67, 0
2, 37113, Note_on_c, 0, 67, 13
2, 37130, Note_on_c, 0, 62, 0
2, 37135, Note_on_c, 0, 71, 0
2, 37142, Note_on_c, 0, 72, 70
2, 37159, Note_on_c, 0, 55, 0
2, 37284, Note_on_c, 0, 72, 0
2, 37295, Note_on_c, 0, 74, 64
2, 37300, Note_on_c, 0, 56, 52
2, 37365, Note_on_c, 0, 67, 0
2, 37377, Note_on_c, 0, 74, 0
2, 37394, Note_on_c, 0, 72, 65
2, 37468, Note_on_c, 0, 72, 0
2, 37484, Note_on_c, 0, 74, 64
2, 37490, Note_on_c, 0, 67, 59
2, 37539, Note_on_c, 0, 74, 0
2, 37554, Note_on_c, 0, 72, 67
2, 37606, Note_on_c, 0, 72, 0
2, 37617, Note_on_c, 0, 74, 62
2, 37659, Note_on_c, 0, 74, 0
2, 37664, Note_on_c, 0, 67, 0
2, 37667, Note_on_c, 0, 72, 61
2, 37677, Note_on_c, 0, 65, 52
2, 37719, Note_on_c, 0, 72, 0
2, 37722, Note_on_c, 0, 74, 63
2, 37769, Note_on_c, 0, 74, 0
2, 37780, Note_on_c, 0, 72, 67
2, 37854, Note_on_c, 0, 72, 0
2, 37864, Note_on_c, 0, 71, 75
2, 37869, Note_on_c, 0, 65, 0
2, 37884, Note_on_c, 0, 68, 56
2, 37947, Note_on_c, 0, 71, 0
2, 37964, Note_on_c, 0, 72, 74
2, 38045, Note_on_c, 0, 72, 0
2, 38077, Note_on_c, 0, 59, 57
2, 38084, Note_on_c, 0, 74, 74
2, 38114, Note_on_c, 0, 56, 0
2, 38131, Note_on_c, 0, 68, 0
2, 38298, Note_on_c, 0, 79, 82
2, 38501, Note_on_c, 0, 77, 82
2, 38510, Note_on_c, 0, 62, 55
2, 38525, Note_on_c, 0, 79, 0
2, 38575, Note_on_c, 0, 74, 0
2, 38735, Note_on_c, 0, 80, 82
2, 38873, Note_on_c, 0, 77, 0
2, 38960, Note_on_c, 0, 71, 78
2, 38977, Note_on_c, 0, 67, 54
2, 39004, Note_on_c, 0, 80, 0
2, 39178, Note_on_c, 0, 80, 85
2, 39347, Note_on_c, 0, 62, 0
2, 39416, Note_on_c, 0, 79, 79
2, 39425, Note_on_c, 0, 55, 48
2, 39451, Note_on_c, 0, 80, 0
2, 39547, Note_on_c, 0, 59, 0
2, 39622, Note_on_c, 0, 71, 0
2, 39648, Note_on_c, 0, 77, 81
2, 39691, Note_on_c, 0, 79, 0
2, 39879, Note_on_c, 0, 75, 74
2, 39884, Note_on_c, 0, 60, 53
2, 39927, Note_on_c, 0, 77, 0
2, 39936, Note_on_c, 0, 67, 0
2, 39978, Note_on_c, 0, 55, 0
2, 40097, Note_on_c, 0, 84, 81
2, 40329, Note_on_c, 0, 77, 70
2, 40346, Note_on_c, 0, 56, 43
2, 40388, Note_on_c, 0, 75, 0
2, 40557, Note_on_c, 0, 83, 81
2, 40587, Note_on_c, 0, 84, 0
2, 40801, Note_on_c, 0, 51, 39
2, 40804, Note_on_c, 0, 84, 70
2, 40814, Note_on_c, 0, 83, 0
2, 40853, Note_on_c, 0, 56, 0
2, 41042, Note_on_c, 0, 79, 69
2, 41125, Note_on_c, 0, 77, 0
2, 41254, Note_on_c, 0, 53, 38
2, 41259, Note_on_c, 0, 80, 64
2, 41302, Note_on_c, 0, 51, 0
2, 41311, Note_on_c, 0, 84, 0
2, 41393, Note_on_c, 0, 79, 0
2, 41458, Note_on_c, 0, 80, 0
2, 41467, Note_on_c, 0, 77, 57
2, 41692, Note_on_c, 0, 75, 57
2, 41704, Note_on_c, 0, 55, 29
2, 41727, Note_on_c, 0, 77, 0
2, 41780, Note_on_c, 0, 53, 0
2, 41919, Note_on_c, 0, 71, 65
2, 42112, Note_on_c, 0, 71, 0
2, 42148, Note_on_c, 0, 72, 62
2, 42353, Note_on_c, 0, 66, 56
2, 42387, Note_on_c, 0, 72, 0
2, 42573, Note_on_c, 0, 66, 0
2, 42606, Note_on_c, 0, 67, 52
2, 42824, Note_on_c, 0, 72, 53
2, 42890, Note_on_c, 0, 75, 0
2, 43093, Note_on_c, 0, 74, 46
2, 43097, Note_on_c, 0, 67, 0
2, 43129, Note_on_c, 0, 59, 28
2, 43200, Note_on_c, 0, 60, 0
2, 43315, Note_on_c, 0, 72, 0
2, 43346, Note_on_c, 0, 65, 46
2, 43601, Note_on_c, 0, 72, 51
2, 43605, Note_on_c, 0, 48, 36
2, 43606, Note_on_c, 0, 60, 36
2, 43639, Note_on_c, 0, 74, 0
2, 43694, Note_on_c, 0, 55, 0
2, 43707, Note_on_c, 0, 65, 0
2, 43768, Note_on_c, 0, 59, 0
2, 43831, Note_on_c, 0, 65, 49
2, 44061, Note_on_c, 0, 64, 49
2, 44067, Note_on_c, 0, 55, 39
2, 44121, Note_on_c, 0, 65, 0
2, 44130, Note_on_c, 0, 60, 0
2, 44279, Note_on_c, 0, 67, 54
2, 44290, Note_on_c, 0, 64, 0
2, 44510, Note_on_c, 0, 67, 0
2, 44541, Note_on_c, 0, 60, 41
2, 44796, Note_on_c, 0, 53, 38
2, 44894, Note_on_c, 0, 55, 0
2, 45095, Note_on_c, 0, 52, 35
2, 45155, Note_on_c, 0, 53, 0
2, 45340, Note_on_c, 0, 52, 0
2, 45395, Note_on_c, 0, 55, 35
2, 45482, Note_on_c, 0, 48, 0
2, 45525, Note_on_c, 0, 60, 0
2, 45867, Note_on_c, 0, 45, 35
2, 45889, Note_on_c, 0, 65, 43
2, 45925, Note_on_c, 0, 72, 0
2, 46032, Note_on_c, 0, 55, 0
2, 46207, Note_on_c, 0, 69, 36
2, 46430, Note_on_c, 0, 69, 0
2, 46449, Note_on_c, 0, 72, 37
2, 46467, Note_on_c, 0, 53, 28
2, 46646, Note_on_c, 0, 72, 0
2, 46655, Note_on_c, 0, 75, 47
2, 46891, Note_on_c, 0, 69, 60
2, 46917, Note_on_c, 0, 41, 30
2, 46932, Note_on_c, 0, 65, 0
2, 47026, Note_on_c, 0, 45, 0
2, 47101, Note_on_c, 0, 53, 0
2, 47107, Note_on_c, 0, 78, 75
2, 47197, Note_on_c, 0, 75, 0
2, 47290, Control_c, 0, 67, 121
2, 47305, Control_c, 0, 67, 114
2, 47320, Control_c, 0, 67, 108
2, 47329, Note_on_c, 0, 72, 69
2, 47333, Note_on_c, 0, 53, 38
2, 47336, Control_c, 0, 67, 101
2, 47351, Control_c, 0, 67, 94
2, 47367, Control_c, 0, 67, 86
2, 47380, Note_on_c, 0, 78, 0
2, 47382, Control_c, 0, 67, 83
2, 47397, Control_c, 0, 67, 84
2, 47412, Control_c, 0, 67, 85
2, 47427, Control_c, 0, 67, 86
2, 47442, Control_c, 0, 67, 87
2, 47457, Control_c, 0, 67, 87
2, 47472, Control_c, 0, 67, 88
2, 47489, Control_c, 0, 67, 89
2, 47504, Control_c, 0, 67, 89
2, 47519, Control_c, 0, 67, 90
2, 47532, Note_on_c, 0, 75, 69
2, 47535, Control_c, 0, 67, 90
2, 47540, Note_on_c, 0, 72, 0
2, 47565, Control_c, 0, 67, 91
2, 47611, Control_c, 0, 67, 91
2, 47656, Control_c, 0, 67, 92
2, 47697, Note_on_c, 0, 53, 0
2, 47754, Note_on_c, 0, 41, 0
2, 47767, Note_on_c, 0, 73, 65
2, 47781, Note_on_c, 0, 46, 53
2, 47789, Note_on_c, 0, 69, 0
2, 47830, Note_on_c, 0, 75, 0
2, 47994, Note_on_c, 0, 49, 52
2, 47998, Control_c, 0, 67, 91
2, 48029, Control_c, 0, 67, 91
2, 48119, Control_c, 0, 67, 90
2, 48204, Note_on_c, 0, 49, 0
2, 48211, Note_on_c, 0, 70, 57
2, 48214, Note_on_c, 0, 53, 48
2, 48384, Note_on_c, 0, 53, 0
2, 48405, Note_on_c, 0, 58, 55
2, 48409, Control_c, 0, 67, 91
2, 48465, Note_on_c, 0, 70, 0
2, 48531, Control_c, 0, 67, 91
2, 48561, Control_c, 0, 67, 92
2, 48614, Control_c, 0, 67, 92
2, 48625, Note_on_c, 0, 64, 62
2, 48631, Note_on_c, 0, 48, 61
2, 48645, Control_c, 0, 67, 93
2, 48674, Control_c, 0, 67, 93
2, 48687, Note_on_c, 0, 58, 0
2, 48705, Control_c, 0, 67, 94
2, 48706, Note_on_c, 0, 46, 0
2, 48736, Control_c, 0, 67, 94
2, 48766, Control_c, 0, 67, 95
2, 48796, Control_c, 0, 67, 95
2, 48855, Note_on_c, 0, 58, 46
2, 48858, Control_c, 0, 67, 95
2, 48903, Control_c, 0, 67, 94
2, 49051, Note_on_c, 0, 72, 69
2, 49055, Note_on_c, 0, 58, 0
2, 49062, Note_on_c, 0, 56, 45
2, 49093, Note_on_c, 0, 73, 0
2, 49238, Control_c, 0, 67, 94
2, 49248, Note_on_c, 0, 60, 60
2, 49316, Note_on_c, 0, 64, 0
2, 49338, Note_on_c, 0, 56, 0
2, 49382, Control_c, 0, 67, 94
2, 49444, Control_c, 0, 67, 95
2, 49466, Note_on_c, 0, 60, 0
2, 49468, Note_on_c, 0, 65, 66
2, 49488, Note_on_c, 0, 50, 55
2, 49489, Control_c, 0, 67, 95
2, 49500, Note_on_c, 0, 53, 47
2, 49518, Note_on_c, 0, 48, 0
2, 49549, Control_c, 0, 67, 96
2, 49565, Control_c, 0, 67, 96
2, 49580, Control_c, 0, 67, 97
2, 49594, Control_c, 0, 67, 101
2, 49610, Control_c, 0, 67, 107
2, 49625, Control_c, 0, 67, 114
2, 49640, Control_c, 0, 67, 121
2, 49656, Control_c, 0, 67, 127
2, 49677, Note_on_c, 0, 70, 71
2, 49709, Note_on_c, 0, 53, 0
2, 49729, Note_on_c, 0, 72, 0
2, 49885, Note_on_c, 0, 52, 67
2, 49889, Note_on_c, 0, 67, 77
2, 49897, Note_on_c, 0, 50, 0
2, 49909, Note_on_c, 0, 65, 0
2, 49911, Note_on_c, 0, 55, 16
2, 49918, Note_on_c, 0, 70, 0
2, 50091, Note_on_c, 0, 67, 0
2, 50096, Note_on_c, 0, 64, 72
2, 50308, Note_on_c, 0, 60, 67
2, 50331, Note_on_c, 0, 56, 41
2, 50336, Note_on_c, 0, 53, 48
2, 50353, Note_on_c, 0, 64, 0
2, 50374, Note_on_c, 0, 55, 0
2, 50437, Note_on_c, 0, 52, 0
2, 50520, Note_on_c, 0, 64, 64
2, 50521, Note_on_c, 0, 60, 0
2, 50740, Note_on_c, 0, 65, 64
2, 50747, Note_on_c, 0, 64, 0
2, 50964, Note_on_c, 0, 65, 0
2, 50971, Note_on_c, 0, 71, 60
2, 51209, Note_on_c, 0, 71, 0
2, 51209, Note_on_c, 0, 72, 57
2, 51236, Note_on_c, 0, 48, 32
2, 51242, Note_on_c, 0, 55, 29
2, 51337, Note_on_c, 0, 56, 0
2, 51346, Note_on_c, 0, 53, 0
2, 51451, Note_on_c, 0, 65, 53
2, 51668, Note_on_c, 0, 65, 0
2, 51676, Note_on_c, 0, 64, 60
2, 51894, Note_on_c, 0, 67, 73
2, 51925, Note_on_c, 0, 72, 0
2, 51928, Note_on_c, 0, 64, 0
2, 52118, Note_on_c, 0, 70, 72
2, 52126, Note_on_c, 0, 67, 0
2, 52334, Note_on_c, 0, 73, 66
2, 52346, Note_on_c, 0, 70, 0
2, 52564, Note_on_c, 0, 72, 58
2, 52576, Note_on_c, 0, 73, 0
2, 52787, Note_on_c, 0, 72, 0
2, 52794, Note_on_c, 0, 70, 51
2, 52814, Note_on_c, 0, 49, 36
2, 52905, Note_on_c, 0, 48, 0
2, 53059, Note_on_c, 0, 69, 54
2, 53065, Note_on_c, 0, 70, 0
2, 53073, Note_on_c, 0, 51, 30
2, 53096, Note_on_c, 0, 53, 31
2, 53098, Note_on_c, 0, 49, 0
2, 53098, Note_on_c, 0, 55, 0
2, 53309, Note_on_c, 0, 65, 57
2, 53336, Note_on_c, 0, 69, 0
2, 53536, Note_on_c, 0, 63, 67
2, 53547, Note_on_c, 0, 69, 63
2, 53550, Note_on_c, 0, 65, 0
2, 53566, Note_on_c, 0, 53, 0
2, 53621, Note_on_c, 0, 51, 0
2, 53750, Note_on_c, 0, 69, 0
2, 53756, Note_on_c, 0, 72, 72
2, 53975, Note_on_c, 0, 77, 70
2, 53985, Note_on_c, 0, 61, 63
2, 54005, Note_on_c, 0, 72, 0
2, 54059, Note_on_c, 0, 63, 0
2, 54227, Note_on_c, 0, 70, 56
2, 54440, Note_on_c, 0, 69, 50
2, 54447, Note_on_c, 0, 60, 47
2, 54460, Note_on_c, 0, 70, 0
2, 54490, Note_on_c, 0, 61, 0
2, 54680, Note_on_c, 0, 75, 53
2, 54783, Note_on_c, 0, 69, 0
2, 54810, Note_on_c, 0, 77, 0
2, 54891, Note_on_c, 0, 60, 0
2, 54914, Note_on_c, 0, 73, 60
2, 54920, Note_on_c, 0, 58, 43
2, 54922, Note_on_c, 0, 75, 0
2, 54986, Control_c, 0, 64, 32
2, 55001, Control_c, 0, 64, 42
2, 55016, Control_c, 0, 64, 52
2, 55031, Control_c, 0, 64, 59
2, 55047, Control_c, 0, 64, 62
2, 55061, Control_c, 0, 64, 63
2, 55092, Control_c, 0, 64, 63
2, 55107, Control_c, 0, 64, 61
2, 55122, Control_c, 0, 64, 55
2, 55138, Control_c, 0, 64, 25
2, 55152, Control_c, 0, 64, 0
2, 55167, Note_on_c, 0, 68, 60
2, 55169, Note_on_c, 0, 53, 37
2, 55380, Note_on_c, 0, 67, 61
2, 55397, Note_on_c, 0, 49, 47
2, 55397, Note_on_c, 0, 68, 0
2, 55404, Note_on_c, 0, 53, 0
2, 55575, Note_on_c, 0, 67, 0
2, 55594, Note_on_c, 0, 49, 0
2, 55594, Note_on_c, 0, 70, 64
2, 55596, Note_on_c, 0, 46, 54
2, 55808, Note_on_c, 0, 55, 55
2, 55810, Note_on_c, 0, 64, 63
2, 55813, Note_on_c, 0, 58, 0
2, 55814, Note_on_c, 0, 70, 0
2, 55826, Note_on_c, 0, 46, 0
2, 55878, Note_on_c, 0, 73, 0
2, 56026, Note_on_c, 0, 72, 76
2, 56038, Note_on_c, 0, 48, 54
2, 56128, Note_on_c, 0, 64, 0
2, 56235, Note_on_c, 0, 65, 72
2, 56242, Note_on_c, 0, 49, 58
2, 56272, Note_on_c, 0, 48, 0
2, 56442, Note_on_c, 0, 70, 78
2, 56468, Note_on_c, 0, 65, 0
2, 56469, Note_on_c, 0, 46, 59
2, 56473, Note_on_c, 0, 72, 0
2, 56484, Note_on_c, 0, 49, 0
2, 56663, Note_on_c, 0, 64, 67
2, 56669, Note_on_c, 0, 48, 60
2, 56679, Note_on_c, 0, 46, 0
2, 56697, Note_on_c, 0, 55, 0
2, 56712, Note_on_c, 0, 70, 0
2, 56868, Note_on_c, 0, 73, 80
2, 56888, Note_on_c, 0, 55, 58
2, 57088, Note_on_c, 0, 72, 77
2, 57091, Note_on_c, 0, 55, 0
2, 57094, Note_on_c, 0, 56, 65
2, 57106, Note_on_c, 0, 64, 0
2, 57121, Note_on_c, 0, 73, 0
2, 57295, Note_on_c, 0, 65, 78
2, 57305, Note_on_c, 0, 56, 0
2, 57306, Note_on_c, 0, 59, 65
2, 57532, Note_on_c, 0, 68, 79
2, 57547, Note_on_c, 0, 60, 65
2, 57569, Note_on_c, 0, 65, 0
2, 57577, Note_on_c, 0, 59, 0
2, 57580, Note_on_c, 0, 72, 0
2, 57752, Note_on_c, 0, 65, 72
2, 57859, Note_on_c, 0, 48, 0
2, 57981, Control_c, 0, 67, 123
2, 57995, Note_on_c, 0, 64, 70
2, 57996, Control_c, 0, 67, 116
2, 58001, Note_on_c, 0, 48, 62
2, 58012, Control_c, 0, 67, 110
2, 58026, Control_c, 0, 67, 104
2, 58032, Note_on_c, 0, 65, 0
2, 58041, Control_c, 0, 67, 98
2, 58057, Control_c, 0, 67, 92
2, 58072, Control_c, 0, 67, 87
2, 58088, Control_c, 0, 67, 85
2, 58118, Control_c, 0, 67, 86
2, 58134, Control_c, 0, 67, 87
2, 58149, Control_c, 0, 67, 87
2, 58165, Control_c, 0, 67, 89
2, 58180, Control_c, 0, 67, 90
2, 58193, Note_on_c, 0, 68, 0
2, 58194, Control_c, 0, 67, 91
2, 58210, Control_c, 0, 67, 92
2, 58225, Control_c, 0, 67, 93
2, 58240, Control_c, 0, 67, 94
2, 58240, Note_on_c, 0, 67, 71
2, 58256, Control_c, 0, 67, 96
2, 58271, Control_c, 0, 67, 98
2, 58287, Control_c, 0, 67, 100
2, 58302, Control_c, 0, 67, 103
2, 58317, Control_c, 0, 67, 106
2, 58333, Control_c, 0, 67, 110
2, 58347, Control_c, 0, 64, 16
2, 58347, Control_c, 0, 67, 113
2, 58362, Control_c, 0, 64, 52
2, 58362, Control_c, 0, 67, 120
2, 58378, Control_c, 0, 64, 57
2, 58378, Control_c, 0, 67, 127
2, 58393, Control_c, 0, 64, 59
2, 58409, Control_c, 0, 64, 61
2, 58424, Control_c, 0, 64, 62
2, 58439, Control_c, 0, 64, 63
2, 58485, Control_c, 0, 64, 63
2, 58499, Control_c, 0, 64, 62
2, 58510, Note_on_c, 0, 65, 76
2, 58514, Control_c, 0, 64, 58
2, 58515, Note_on_c, 0, 48, 0
2, 58521, Note_on_c, 0, 67, 0
2, 58522, Note_on_c, 0, 64, 0
2, 58528, Note_on_c, 0, 49, 52
2, 58530, Control_c, 0, 64, 46
2, 58545, Control_c, 0, 64, 0
2, 58738, Note_on_c, 0, 68, 61
2, 58780, Control_c, 0, 64, 38
2, 58795, Control_c, 0, 64, 56
2, 58811, Control_c, 0, 64, 61
2, 58826, Control_c, 0, 64, 63
2, 58841, Control_c, 0, 64, 64
2, 58856, Control_c, 0, 64, 66
2, 58871, Control_c, 0, 64, 67
2, 58887, Control_c, 0, 64, 70
2, 58901, Control_c, 0, 64, 74
2, 58916, Control_c, 0, 64, 79
2, 58932, Control_c, 0, 64, 83
2, 58947, Control_c, 0, 64, 85
2, 58963, Control_c, 0, 64, 88
2, 58973, Note_on_c, 0, 72, 60
2, 58979, Control_c, 0, 64, 92
2, 58985, Note_on_c, 0, 68, 0
2, 58994, Control_c, 0, 64, 96
2, 59009, Control_c, 0, 64, 103
2, 59024, Control_c, 0, 64, 111
2, 59038, Control_c, 0, 64, 119
2, 59054, Control_c, 0, 64, 127
2, 59215, Note_on_c, 0, 77, 65
2, 59222, Note_on_c, 0, 65, 0
2, 59223, Note_on_c, 0, 72, 0
2, 59445, Note_on_c, 0, 67, 80
2, 59455, Note_on_c, 0, 58, 57
2, 59457, Control_c, 0, 64, 123
2, 59467, Note_on_c, 0, 77, 0
2, 59472, Control_c, 0, 64, 117
2, 59488, Control_c, 0, 64, 111
2, 59495, Note_on_c, 0, 60, 0
2, 59502, Control_c, 0, 64, 104
2, 59517, Control_c, 0, 64, 97
2, 59533, Control_c, 0, 64, 89
2, 59547, Control_c, 0, 64, 80
2, 59562, Control_c, 0, 64, 69
2, 59578, Control_c, 0, 64, 0
2, 59674, Note_on_c, 0, 77, 66
2, 59867, Control_c, 0, 64, 39
2, 59882, Control_c, 0, 64, 57
2, 59882, Note_on_c, 0, 76, 62
2, 59895, Note_on_c, 0, 77, 0
2, 59898, Control_c, 0, 64, 62
2, 59913, Control_c, 0, 64, 64
2, 59929, Control_c, 0, 64, 66
2, 59943, Control_c, 0, 64, 69
2, 59958, Control_c, 0, 64, 72
2, 59974, Control_c, 0, 64, 77
2, 59989, Control_c, 0, 64, 83
2, 60005, Control_c, 0, 64, 86
2, 60020, Control_c, 0, 64, 89
2, 60035, Control_c, 0, 64, 92
2, 60050, Control_c, 0, 64, 96
2, 60065, Control_c, 0, 64, 102
2, 60080, Control_c, 0, 64, 110
2, 60086, Note_on_c, 0, 76, 0
2, 60091, Note_on_c, 0, 79, 63
2, 60096, Control_c, 0, 64, 126
2, 60117, Control_c, 0, 64, 127
2, 60149, Note_on_c, 0, 67, 0
2, 60205, Note_on_c, 0, 49, 0
2, 60295, Note_on_c, 0, 79, 0
2, 60305, Note_on_c, 0, 68, 80
2, 60318, Note_on_c, 0, 60, 48
2, 60328, Note_on_c, 0, 48, 48
2, 60346, Control_c, 0, 64, 115
2, 60361, Control_c, 0, 64, 105
2, 60377, Control_c, 0, 64, 96
2, 60391, Control_c, 0, 64, 84
2, 60407, Control_c, 0, 64, 73
2, 60422, Control_c, 0, 64, 52
2, 60423, Note_on_c, 0, 58, 0
2, 60437, Control_c, 0, 64, 0
2, 60514, Note_on_c, 0, 72, 54
2, 60711, Control_c, 0, 64, 47
2, 60723, Note_on_c, 0, 72, 0
2, 60727, Control_c, 0, 64, 55
2, 60739, Note_on_c, 0, 77, 54
2, 60742, Control_c, 0, 64, 58
2, 60756, Control_c, 0, 64, 59
2, 60772, Control_c, 0, 64, 62
2, 60787, Control_c, 0, 64, 63
2, 60802, Control_c, 0, 64, 65
2, 60818, Control_c, 0, 64, 66
2, 60833, Control_c, 0, 64, 68
2, 60849, Control_c, 0, 64, 69
2, 60864, Control_c, 0, 64, 71
2, 60887, Control_c, 0, 64, 73
2, 60901, Control_c, 0, 64, 74
2, 60916, Control_c, 0, 64, 75
2, 60932, Control_c, 0, 64, 76
2, 60947, Control_c, 0, 64, 76
2, 60952, Note_on_c, 0, 77, 0
2, 60955, Note_on_c, 0, 76, 56
2, 61114, Control_c, 0, 64, 76
2, 61130, Control_c, 0, 64, 75
2, 61145, Control_c, 0, 64, 72
2, 61148, Note_on_c, 0, 76, 0
2, 61152, Note_on_c, 0, 77, 70
2, 61159, Control_c, 0, 64, 66
2, 61175, Control_c, 0, 64, 32
2, 61178, Note_on_c, 0, 56, 44
2, 61184, Note_on_c, 0, 60, 0
2, 61190, Control_c, 0, 64, 0
2, 61360, Note_on_c, 0, 68, 0
2, 61363, Note_on_c, 0, 72, 51
2, 61373, Control_c, 0, 64, 22
2, 61388, Control_c, 0, 64, 47
2, 61403, Control_c, 0, 64, 52
2, 61420, Control_c, 0, 64, 55
2, 61435, Control_c, 0, 64, 57
2, 61451, Control_c, 0, 64, 61
2, 61465, Control_c, 0, 64, 64
2, 61480, Control_c, 0, 64, 66
2, 61496, Control_c, 0, 64, 69
2, 61511, Control_c, 0, 64, 71
2, 61527, Control_c, 0, 64, 74
2, 61541, Control_c, 0, 64, 76
2, 61556, Control_c, 0, 64, 78
2, 61568, Note_on_c, 0, 70, 50
2, 61571, Note_on_c, 0, 72, 0
2, 61572, Control_c, 0, 64, 79
2, 61587, Control_c, 0, 64, 81
2, 61601, Control_c, 0, 64, 82
2, 61617, Control_c, 0, 64, 84
2, 61632, Control_c, 0, 64, 85
2, 61656, Control_c, 0, 64, 86
2, 61670, Control_c, 0, 64, 87
2, 61686, Control_c, 0, 64, 87
2, 61716, Control_c, 0, 64, 88
2, 61746, Control_c, 0, 64, 88
2, 61792, Control_c, 0, 64, 89
2, 61792, Note_on_c, 0, 68, 51
2, 61822, Control_c, 0, 64, 89
2, 61837, Control_c, 0, 64, 90
2, 61847, Note_on_c, 0, 70, 0
2, 61853, Control_c, 0, 64, 90
2, 61974, Control_c, 0, 64, 90
2, 61988, Note_on_c, 0, 73, 70
2, 61989, Control_c, 0, 64, 88
2, 62005, Control_c, 0, 64, 85
2, 62020, Control_c, 0, 64, 80
2, 62020, Note_on_c, 0, 77, 0
2, 62023, Note_on_c, 0, 58, 44
2, 62034, Control_c, 0, 64, 73
2, 62041, Note_on_c, 0, 68, 0
2, 62050, Control_c, 0, 64, 61
2, 62065, Control_c, 0, 64, 0
2, 62068, Note_on_c, 0, 56, 0
2, 62189, Note_on_c, 0, 68, 42
2, 62233, Control_c, 0, 64, 44
2, 62249, Control_c, 0, 64, 58
2, 62264, Control_c, 0, 64, 62
2, 62279, Control_c, 0, 64, 63
2, 62295, Control_c, 0, 64, 65
2, 62309, Control_c, 0, 64, 66
2, 62325, Control_c, 0, 64, 67
2, 62340, Control_c, 0, 64, 69
2, 62355, Control_c, 0, 64, 71
2, 62370, Control_c, 0, 64, 73
2, 62385, Control_c, 0, 64, 75
2, 62400, Control_c, 0, 64, 76
2, 62423, Control_c, 0, 64, 78
2, 62426, Note_on_c, 0, 67, 53
2, 62428, Note_on_c, 0, 68, 0
2, 62438, Control_c, 0, 64, 79
2, 62454, Control_c, 0, 64, 80
2, 62469, Control_c, 0, 64, 81
2, 62485, Control_c, 0, 64, 82
2, 62500, Control_c, 0, 64, 82
2, 62530, Control_c, 0, 64, 83
2, 62545, Control_c, 0, 64, 83
2, 62560, Control_c, 0, 64, 84
2, 62575, Control_c, 0, 64, 84
2, 62614, Note_on_c, 0, 67, 0
2, 62629, Note_on_c, 0, 70, 56
2, 62790, Note_on_c, 0, 73, 0
2, 62833, Control_c, 0, 64, 83
2, 62835, Note_on_c, 0, 64, 66
2, 62848, Control_c, 0, 64, 81
2, 62857, Note_on_c, 0, 55, 41
2, 62859, Note_on_c, 0, 70, 0
2, 62863, Control_c, 0, 64, 77
2, 62878, Control_c, 0, 64, 72
2, 62894, Control_c, 0, 64, 66
2, 62909, Control_c, 0, 64, 58
2, 62910, Note_on_c, 0, 58, 0
2, 62923, Control_c, 0, 64, 40
2, 62939, Control_c, 0, 64, 0
2, 63050, Note_on_c, 0, 73, 50
2, 63269, Note_on_c, 0, 72, 57
2, 63320, Note_on_c, 0, 73, 0
2, 63343, Control_c, 0, 64, 53
2, 63358, Control_c, 0, 64, 62
2, 63373, Control_c, 0, 64, 65
2, 63388, Control_c, 0, 64, 67
2, 63403, Control_c, 0, 64, 68
2, 63418, Control_c, 0, 64, 70
2, 63433, Control_c, 0, 64, 73
2, 63449, Control_c, 0, 64, 75
2, 63464, Control_c, 0, 64, 77
2, 63476, Note_on_c, 0, 70, 60
2, 63479, Control_c, 0, 64, 78
2, 63494, Control_c, 0, 64, 80
2, 63508, Note_on_c, 0, 72, 0
2, 63509, Control_c, 0, 64, 80
2, 63525, Control_c, 0, 64, 81
2, 63540, Control_c, 0, 64, 81
2, 63547, Note_on_c, 0, 64, 0
2, 63680, Note_on_c, 0, 65, 68
2, 63692, Control_c, 0, 64, 81
2, 63695, Note_on_c, 0, 68, 64
2, 63708, Note_on_c, 0, 56, 48
2, 63722, Control_c, 0, 64, 80
2, 63734, Note_on_c, 0, 70, 0
2, 63753, Control_c, 0, 64, 79
2, 63768, Control_c, 0, 64, 78
2, 63783, Control_c, 0, 64, 76
2, 63792, Note_on_c, 0, 55, 0
2, 63798, Control_c, 0, 64, 75
2, 63813, Control_c, 0, 64, 73
2, 63828, Control_c, 0, 64, 72
2, 63843, Control_c, 0, 64, 71
2, 63859, Control_c, 0, 64, 68
2, 63875, Control_c, 0, 64, 66
2, 63891, Control_c, 0, 64, 63
2, 63893, Note_on_c, 0, 63, 74
2, 63894, Note_on_c, 0, 65, 0
2, 63906, Control_c, 0, 64, 61
2, 63920, Control_c, 0, 64, 58
2, 63936, Control_c, 0, 64, 56
2, 63958, Control_c, 0, 64, 54
2, 63974, Control_c, 0, 64, 48
2, 63989, Control_c, 0, 64, 33
2, 64003, Control_c, 0, 64, 0
2, 64090, Note_on_c, 0, 62, 74
2, 64101, Note_on_c, 0, 63, 0
2, 64278, Note_on_c, 0, 62, 0
2, 64294, Note_on_c, 0, 65, 73
2, 64464, Note_on_c, 0, 68, 0
2, 64517, Note_on_c, 0, 59, 65
2, 64523, Note_on_c, 0, 65, 0
2, 64555, Note_on_c, 0, 53, 44
2, 64675, Note_on_c, 0, 56, 0
2, 64727, Note_on_c, 0, 68, 74
2, 64956, Note_on_c, 0, 67, 81
2, 64991, Note_on_c, 0, 68, 0
2, 65172, Note_on_c, 0, 65, 82
2, 65187, Note_on_c, 0, 67, 0
2, 65400, Note_on_c, 0, 64, 79
2, 65403, Note_on_c, 0, 59, 0
2, 65410, Note_on_c, 0, 65, 0
2, 65418, Note_on_c, 0, 55, 55
2, 65468, Note_on_c, 0, 53, 0
2, 65537, Control_c, 0, 67, 124
2, 65552, Control_c, 0, 67, 120
2, 65567, Control_c, 0, 67, 114
2, 65583, Control_c, 0, 67, 107
2, 65598, Control_c, 0, 67, 100
2, 65613, Control_c, 0, 67, 93
2, 65618, Note_on_c, 0, 60, 77
2, 65628, Control_c, 0, 67, 87
2, 65643, Control_c, 0, 67, 82
2, 65659, Control_c, 0, 67, 76
2, 65674, Control_c, 0, 67, 67
2, 65689, Control_c, 0, 67, 58
2, 65705, Control_c, 0, 67, 49
2, 65719, Control_c, 0, 67, 41
2, 65735, Control_c, 0, 67, 35
2, 65750, Control_c, 0, 67, 30
2, 65765, Control_c, 0, 67, 27
2, 65781, Control_c, 0, 67, 25
2, 65796, Control_c, 0, 67, 25
2, 65821, Note_on_c, 0, 58, 77
2, 65841, Control_c, 0, 67, 24
2, 65857, Control_c, 0, 67, 24
2, 65862, Note_on_c, 0, 60, 0
2, 65871, Control_c, 0, 67, 22
2, 65886, Control_c, 0, 67, 19
2, 65902, Control_c, 0, 67, 14
2, 65917, Control_c, 0, 67, 0
2, 66026, Note_on_c, 0, 61, 80
2, 66037, Note_on_c, 0, 58, 0
2, 66114, Control_c, 0, 64, 21
2, 66129, Control_c, 0, 64, 62
2, 66145, Control_c, 0, 64, 67
2, 66156, Note_on_c, 0, 55, 0
2, 66160, Control_c, 0, 64, 71
2, 66176, Control_c, 0, 64, 75
2, 66190, Control_c, 0, 64, 77
2, 66205, Control_c, 0, 64, 79
2, 66218, Note_on_c, 0, 61, 0
2, 66221, Control_c, 0, 64, 79
2, 66238, Note_on_c, 0, 55, 62
2, 66255, Note_on_c, 0, 52, 59
2, 66319, Control_c, 0, 64, 78
2, 66336, Control_c, 0, 64, 76
2, 66351, Control_c, 0, 64, 70
2, 66366, Control_c, 0, 64, 51
2, 66381, Control_c, 0, 64, 0
2, 66457, Note_on_c, 0, 61, 75
2, 66675, Note_on_c, 0, 60, 77
2, 66707, Note_on_c, 0, 64, 0
2, 66719, Note_on_c, 0, 61, 0
2, 66822, Control_c, 0, 64, 51
2, 66836, Control_c, 0, 64, 60
2, 66852, Control_c, 0, 64, 64
2, 66867, Control_c, 0, 64, 66
2, 66882, Control_c, 0, 64, 70
2, 66898, Control_c, 0, 64, 76
2, 66901, Note_on_c, 0, 58, 75
2, 66906, Note_on_c, 0, 60, 0
2, 66912, Control_c, 0, 64, 81
2, 66927, Control_c, 0, 64, 84
2, 66943, Control_c, 0, 64, 86
2, 66958, Control_c, 0, 64, 88
2, 66961, Note_on_c, 0, 48, 0
2, 66974, Control_c, 0, 64, 89
2, 66988, Control_c, 0, 64, 90
2, 67003, Control_c, 0, 64, 91
2, 67027, Control_c, 0, 64, 91
2, 67067, Note_on_c, 0, 58, 0
2, 67126, Note_on_c, 0, 55, 0
2, 67149, Control_c, 0, 64, 91
2, 67161, Note_on_c, 0, 56, 77
2, 67164, Control_c, 0, 64, 89
2, 67169, Note_on_c, 0, 52, 0
2, 67172, Note_on_c, 0, 48, 61
2, 67180, Control_c, 0, 64, 84
2, 67182, Note_on_c, 0, 53, 64
2, 67195, Control_c, 0, 64, 76
2, 67210, Control_c, 0, 64, 62
2, 67225, Control_c, 0, 64, 0
2, 67397, Note_on_c, 0, 72, 71
2, 67617, Note_on_c, 0, 70, 70
2, 67645, Note_on_c, 0, 72, 0
2, 67818, Note_on_c, 0, 73, 69
2, 67837, Note_on_c, 0, 70, 0
2, 68022, Note_on_c, 0, 56, 0
2, 68052, Note_on_c, 0, 64, 72
2, 68057, Note_on_c, 0, 73, 0
2, 68060, Note_on_c, 0, 58, 81
2, 68070, Note_on_c, 0, 55, 57
2, 68113, Note_on_c, 0, 53, 0
2, 68269, Note_on_c, 0, 73, 67
2, 68507, Note_on_c, 0, 72, 71
2, 68536, Note_on_c, 0, 64, 0
2, 68539, Note_on_c, 0, 73, 0
2, 68639, Control_c, 0, 64, 63
2, 68655, Control_c, 0, 64, 68
2, 68670, Control_c, 0, 64, 73
2, 68685, Control_c, 0, 64, 79
2, 68701, Control_c, 0, 64, 82
2, 68701, Note_on_c, 0, 72, 0
2, 68713, Note_on_c, 0, 70, 75
2, 68716, Control_c, 0, 64, 84
2, 68732, Control_c, 0, 64, 86
2, 68746, Control_c, 0, 64, 87
2, 68760, Note_on_c, 0, 55, 0
2, 68761, Control_c, 0, 64, 87
2, 68761, Control_c, 0, 67, 8
2, 68777, Control_c, 0, 67, 11
2, 68792, Control_c, 0, 67, 16
2, 68807, Control_c, 0, 67, 23
2, 68823, Control_c, 0, 67, 30
2, 68837, Note_on_c, 0, 58, 0
2, 68838, Control_c, 0, 67, 35
2, 68854, Control_c, 0, 67, 37
2, 68869, Control_c, 0, 67, 38
2, 68884, Control_c, 0, 67, 37
2, 68914, Control_c, 0, 64, 87
2, 68918, Note_on_c, 0, 70, 0
2, 68929, Control_c, 0, 64, 86
2, 68932, Note_on_c, 0, 68, 74
2, 68945, Control_c, 0, 64, 84
2, 68947, Note_on_c, 0, 60, 56
2, 68949, Note_on_c, 0, 56, 51
2, 68960, Control_c, 0, 64, 81
2, 68960, Control_c, 0, 67, 38
2, 68975, Control_c, 0, 64, 76
2, 68975, Control_c, 0, 67, 38
2, 68990, Control_c, 0, 64, 67
2, 68990, Control_c, 0, 67, 40
2, 69005, Control_c, 0, 64, 0
2, 69005, Control_c, 0, 67, 45
2, 69021, Control_c, 0, 67, 53
2, 69036, Control_c, 0, 67, 63
2, 69050, Control_c, 0, 67, 76
2, 69066, Control_c, 0, 67, 87
2, 69081, Control_c, 0, 67, 98
2, 69096, Control_c, 0, 67, 109
2, 69111, Control_c, 0, 67, 120
2, 69126, Control_c, 0, 67, 127
2, 69151, Note_on_c, 0, 79, 79
2, 69387, Note_on_c, 0, 77, 78
2, 69406, Note_on_c, 0, 79, 0
2, 69575, Control_c, 0, 67, 124
2, 69590, Control_c, 0, 67, 116
2, 69605, Control_c, 0, 67, 106
2, 69614, Note_on_c, 0, 80, 85
2, 69621, Control_c, 0, 67, 95
2, 69627, Note_on_c, 0, 68, 0
2, 69636, Control_c, 0, 67, 87
2, 69642, Note_on_c, 0, 77, 0
2, 69652, Control_c, 0, 67, 86
2, 69682, Control_c, 0, 67, 84
2, 69698, Control_c, 0, 67, 80
2, 69712, Control_c, 0, 67, 73
2, 69727, Control_c, 0, 67, 66
2, 69743, Control_c, 0, 67, 59
2, 69757, Note_on_c, 0, 56, 0
2, 69758, Control_c, 0, 67, 53
2, 69774, Control_c, 0, 67, 47
2, 69788, Control_c, 0, 67, 37
2, 69803, Control_c, 0, 67, 23
2, 69818, Control_c, 0, 67, 0
2, 69843, Note_on_c, 0, 71, 79
2, 69853, Note_on_c, 0, 56, 38
2, 69856, Note_on_c, 0, 80, 0
2, 69868, Note_on_c, 0, 53, 44
2, 69932, Note_on_c, 0, 60, 0
2, 70072, Note_on_c, 0, 80, 86
2, 70297, Note_on_c, 0, 79, 79
2, 70329, Note_on_c, 0, 80, 0
2, 70419, Control_c, 0, 67, 8
2, 70436, Control_c, 0, 67, 11
2, 70452, Control_c, 0, 67, 15
2, 70467, Control_c, 0, 67, 20
2, 70482, Control_c, 0, 67, 25
2, 70498, Control_c, 0, 67, 30
2, 70512, Control_c, 0, 67, 35
2, 70513, Note_on_c, 0, 77, 83
2, 70528, Control_c, 0, 67, 39
2, 70543, Control_c, 0, 67, 43
2, 70548, Note_on_c, 0, 79, 0
2, 70558, Control_c, 0, 67, 46
2, 70573, Control_c, 0, 67, 49
2, 70588, Control_c, 0, 67, 51
2, 70588, Note_on_c, 0, 56, 0
2, 70603, Control_c, 0, 67, 53
2, 70619, Control_c, 0, 67, 55
2, 70634, Control_c, 0, 67, 57
2, 70650, Control_c, 0, 67, 58
2, 70664, Control_c, 0, 67, 59
2, 70679, Control_c, 0, 67, 59
2, 70710, Control_c, 0, 67, 59
2, 70737, Note_on_c, 0, 76, 77
2, 70757, Note_on_c, 0, 55, 45
2, 70760, Note_on_c, 0, 58, 49
2, 70782, Note_on_c, 0, 77, 0
2, 70785, Control_c, 0, 67, 59
2, 70791, Note_on_c, 0, 53, 0
2, 70823, Note_on_c, 0, 71, 0
2, 70831, Control_c, 0, 67, 60
2, 70847, Control_c, 0, 67, 60
2, 70869, Control_c, 0, 67, 61
2, 70885, Control_c, 0, 67, 62
2, 70900, Control_c, 0, 67, 65
2, 70914, Control_c, 0, 67, 69
2, 70930, Control_c, 0, 67, 70
2, 70945, Control_c, 0, 67, 71
2, 70960, Control_c, 0, 67, 71
2, 70967, Note_on_c, 0, 77, 85
2, 70976, Control_c, 0, 67, 72
2, 70990, Control_c, 0, 67, 73
2, 70997, Note_on_c, 0, 76, 0
2, 71066, Control_c, 0, 67, 72
2, 71157, Control_c, 0, 67, 73
2, 71202, Note_on_c, 0, 79, 76
2, 71203, Control_c, 0, 67, 73
2, 71219, Note_on_c, 0, 77, 0
2, 71234, Control_c, 0, 67, 74
2, 71250, Control_c, 0, 67, 76
2, 71265, Control_c, 0, 67, 79
2, 71280, Control_c, 0, 67, 84
2, 71296, Control_c, 0, 67, 92
2, 71310, Control_c, 0, 67, 102
2, 71327, Control_c, 0, 67, 111
2, 71342, Control_c, 0, 67, 118
2, 71357, Control_c, 0, 67, 122
2, 71372, Control_c, 0, 67, 124
2, 71402, Control_c, 0, 67, 123
2, 71418, Control_c, 0, 67, 122
2, 71427, Note_on_c, 0, 76, 73
2, 71433, Control_c, 0, 67, 122
2, 71448, Note_on_c, 0, 79, 0
2, 71449, Control_c, 0, 67, 121
2, 71464, Control_c, 0, 67, 120
2, 71478, Control_c, 0, 67, 120
2, 71509, Control_c, 0, 67, 119
2, 71543, Note_on_c, 0, 55, 0
2, 71554, Control_c, 0, 67, 120
2, 71570, Control_c, 0, 67, 120
2, 71585, Control_c, 0, 67, 121
2, 71600, Control_c, 0, 67, 122
2, 71637, Control_c, 0, 67, 122
2, 71653, Control_c, 0, 67, 123
2, 71668, Control_c, 0, 67, 124
2, 71683, Control_c, 0, 67, 127
2, 71687, Note_on_c, 0, 82, 72
2, 71708, Note_on_c, 0, 55, 47
2, 71712, Note_on_c, 0, 76, 0
2, 71714, Note_on_c, 0, 52, 39
2, 71786, Note_on_c, 0, 58, 0
2, 71938, Note_on_c, 0, 73, 70
2, 72016, Note_on_c, 0, 82, 0
2, 72166, Note_on_c, 0, 72, 74
2, 72198, Note_on_c, 0, 73, 0
2, 72375, Note_on_c, 0, 70, 71
2, 72432, Note_on_c, 0, 72, 0
2, 72613, Note_on_c, 0, 68, 73
2, 72623, Note_on_c, 0, 60, 43
2, 72633, Note_on_c, 0, 53, 36
2, 72645, Note_on_c, 0, 52, 0
2, 72655, Note_on_c, 0, 70, 0
2, 72697, Note_on_c, 0, 55, 0
2, 72837, Note_on_c, 0, 70, 72
2, 72876, Note_on_c, 0, 68, 0
2, 73077, Note_on_c, 0, 72, 65
2, 73087, Note_on_c, 0, 70, 0
2, 73294, Note_on_c, 0, 72, 0
2, 73313, Note_on_c, 0, 65, 59
2, 73572, Note_on_c, 0, 74, 56
2, 73574, Note_on_c, 0, 59, 40
2, 73665, Note_on_c, 0, 60, 0
2, 73824, Note_on_c, 0, 68, 66
2, 73851, Note_on_c, 0, 65, 0
2, 73864, Note_on_c, 0, 74, 0
2, 74065, Note_on_c, 0, 67, 56
2, 74096, Note_on_c, 0, 68, 0
2, 74287, Note_on_c, 0, 67, 0
2, 74289, Note_on_c, 0, 65, 60
2, 74552, Note_on_c, 0, 64, 48
2, 74560, Note_on_c, 0, 60, 36
2, 74590, Note_on_c, 0, 59, 0
2, 74598, Note_on_c, 0, 65, 0
2, 74650, Note_on_c, 0, 53, 0
2, 74762, Note_on_c, 0, 60, 0
2, 74819, Note_on_c, 0, 60, 44
2, 75049, Note_on_c, 0, 55, 63
2, 75090, Note_on_c, 0, 60, 0
2, 75278, Note_on_c, 0, 58, 67
2, 75527, Note_on_c, 0, 65, 73
2, 75546, Note_on_c, 0, 56, 55
2, 75548, Note_on_c, 0, 58, 0
2, 75594, Note_on_c, 0, 55, 0
2, 75698, Note_on_c, 0, 64, 0
2, 75761, Note_on_c, 0, 53, 58
2, 75785, Note_on_c, 0, 48, 0
2, 75858, Control_c, 0, 67, 127
2, 75878, Control_c, 0, 67, 122
2, 75893, Control_c, 0, 67, 119
2, 75907, Control_c, 0, 67, 118
2, 75923, Control_c, 0, 67, 118
2, 75969, Control_c, 0, 67, 117
2, 75999, Control_c, 0, 67, 116
2, 76006, Note_on_c, 0, 47, 66
2, 76014, Control_c, 0, 67, 115
2, 76029, Control_c, 0, 67, 109
2, 76045, Control_c, 0, 67, 102
2, 76060, Control_c, 0, 67, 93
2, 76076, Control_c, 0, 67, 81
2, 76078, Note_on_c, 0, 53, 0
2, 76091, Control_c, 0, 67, 66
2, 76106, Control_c, 0, 67, 49
2, 76121, Control_c, 0, 67, 32
2, 76136, Control_c, 0, 67, 23
2, 76152, Control_c, 0, 67, 16
2, 76167, Control_c, 0, 67, 10
2, 76182, Control_c, 0, 67, 0
2, 76293, Note_on_c, 0, 50, 65
2, 76328, Note_on_c, 0, 47, 0
2, 76620, Note_on_c, 0, 55, 66
2, 76635, Note_on_c, 0, 36, 56
2, 76659, Note_on_c, 0, 56, 0
2, 76771, Note_on_c, 0, 50, 0
2, 76906, Note_on_c, 0, 62, 74
2, 76995, Note_on_c, 0, 55, 0
2, 77193, Note_on_c, 0, 59, 73
2, 77200, Note_on_c, 0, 53, 63
2, 77241, Note_on_c, 0, 62, 0
2, 77277, Control_c, 0, 67, 8
2, 77307, Control_c, 0, 67, 8
2, 77323, Control_c, 0, 67, 9
2, 77338, Control_c, 0, 67, 9
2, 77399, Control_c, 0, 67, 10
2, 77414, Control_c, 0, 67, 10
2, 77473, Note_on_c, 0, 60, 76
2, 77503, Control_c, 0, 67, 10
2, 77519, Control_c, 0, 67, 9
2, 77533, Note_on_c, 0, 59, 0
2, 77549, Control_c, 0, 67, 9
2, 77643, Note_on_c, 0, 53, 0
2, 77800, Note_on_c, 0, 55, 62
2, 77812, Control_c, 0, 67, 9
2, 77841, Control_c, 0, 67, 10
2, 77862, Note_on_c, 0, 60, 0
2, 77872, Control_c, 0, 67, 10
2, 77933, Control_c, 0, 67, 11
2, 77963, Control_c, 0, 67, 11
2, 77994, Control_c, 0, 67, 12
2, 78039, Control_c, 0, 67, 12
2, 78055, Control_c, 0, 67, 13
2, 78070, Control_c, 0, 67, 14
2, 78086, Control_c, 0, 67, 15
2, 78100, Control_c, 0, 67, 16
2, 78108, Note_on_c, 0, 58, 70
2, 78131, Control_c, 0, 67, 17
2, 78146, Control_c, 0, 67, 17
2, 78298, Control_c, 0, 67, 17
2, 78313, Control_c, 0, 67, 16
2, 78389, Control_c, 0, 67, 16
2, 78420, Control_c, 0, 67, 15
2, 78461, Note_on_c, 0, 60, 64
2, 78496, Control_c, 0, 64, 13
2, 78496, Control_c, 0, 67, 16
2, 78511, Control_c, 0, 64, 34
2, 78526, Control_c, 0, 64, 51
2, 78549, Control_c, 0, 64, 60
2, 78565, Control_c, 0, 64, 64
2, 78579, Control_c, 0, 64, 66
2, 78594, Control_c, 0, 64, 68
2, 78610, Control_c, 0, 64, 71
2, 78626, Control_c, 0, 64, 74
2, 78641, Control_c, 0, 64, 76
2, 78641, Control_c, 0, 67, 15
2, 78657, Control_c, 0, 64, 78
2, 78671, Control_c, 0, 64, 79
2, 78687, Control_c, 0, 64, 80
2, 78702, Control_c, 0, 64, 81
2, 78717, Control_c, 0, 64, 81
2, 78793, Control_c, 0, 64, 82
2, 78793, Control_c, 0, 67, 16
2, 78838, Control_c, 0, 67, 16
2, 78899, Control_c, 0, 67, 17
2, 78914, Control_c, 0, 67, 17
2, 78928, Note_on_c, 0, 64, 65
2, 78945, Control_c, 0, 64, 81
2, 78945, Control_c, 0, 67, 18
2, 78960, Control_c, 0, 64, 80
2, 78960, Control_c, 0, 67, 18
2, 78976, Control_c, 0, 64, 76
2, 78976, Control_c, 0, 67, 19
2, 78982, Note_on_c, 0, 65, 0
2, 78991, Control_c, 0, 64, 70
2, 78991, Control_c, 0, 67, 19
2, 79006, Control_c, 0, 64, 60
2, 79006, Control_c, 0, 67, 23
2, 79021, Control_c, 0, 64, 0
2, 79021, Control_c, 0, 67, 30
2, 79036, Control_c, 0, 67, 34
2, 79052, Control_c, 0, 67, 38
2, 79067, Control_c, 0, 67, 42
2, 79082, Control_c, 0, 67, 47
2, 79098, Control_c, 0, 67, 52
2, 79113, Control_c, 0, 64, 30
2, 79113, Control_c, 0, 67, 58
2, 79128, Control_c, 0, 64, 62
2, 79128, Control_c, 0, 67, 64
2, 79143, Control_c, 0, 64, 66
2, 79143, Control_c, 0, 67, 68
2, 79158, Control_c, 0, 64, 69
2, 79158, Control_c, 0, 67, 73
2, 79169, Note_on_c, 0, 60, 0
2, 79174, Control_c, 0, 64, 71
2, 79174, Control_c, 0, 67, 78
2, 79189, Control_c, 0, 64, 74
2, 79189, Control_c, 0, 67, 84
2, 79198, Note_on_c, 0, 55, 0
2, 79203, Control_c, 0, 64, 76
2, 79203, Control_c, 0, 67, 89
2, 79208, Note_on_c, 0, 36, 0
2, 79217, Control_c, 0, 64, 78
2, 79217, Control_c, 0, 67, 94
2, 79232, Control_c, 0, 64, 79
2, 79232, Control_c, 0, 67, 99
2, 79247, Control_c, 0, 64, 80
2, 79247, Control_c, 0, 67, 101
2, 79263, Control_c, 0, 64, 81
2, 79263, Control_c, 0, 67, 104
2, 79277, Control_c, 0, 64, 82
2, 79277, Control_c, 0, 67, 106
2, 79293, Control_c, 0, 67, 108
2, 79315, Control_c, 0, 67, 109
2, 79330, Control_c, 0, 67, 111
2, 79346, Control_c, 0, 67, 113
2, 79361, Control_c, 0, 67, 116
2, 79377, Control_c, 0, 67, 119
2, 79392, Control_c, 0, 67, 122
2, 79407, Control_c, 0, 67, 124
2, 79422, Control_c, 0, 67, 125
2, 79499, Control_c, 0, 67, 124
2, 79529, Control_c, 0, 67, 124
2, 79545, Control_c, 0, 67, 123
2, 79636, Control_c, 0, 67, 123
2, 79650, Control_c, 0, 67, 122
2, 79681, Control_c, 0, 67, 122
2, 79712, Control_c, 0, 67, 121
2, 79749, Note_on_c, 0, 65, 53
2, 79763, Note_on_c, 0, 58, 0
2, 79768, Note_on_c, 0, 60, 45
2, 79772, Control_c, 0, 67, 120
2, 79775, Note_on_c, 0, 57, 35
2, 79787, Control_c, 0, 67, 120
2, 79802, Control_c, 0, 67, 119
2, 79806, Note_on_c, 0, 53, 25
2, 79818, Control_c, 0, 64, 81
2, 79826, Note_on_c, 0, 41, 19
2, 79847, Control_c, 0, 64, 81
2, 79857, Note_on_c, 0, 64, 0
2, 79863, Control_c, 0, 64, 80
2, 79878, Control_c, 0, 64, 79
2, 79894, Control_c, 0, 64, 77
2, 79894, Control_c, 0, 67, 119
2, 79909, Control_c, 0, 64, 73
2, 79924, Control_c, 0, 64, 68
2, 79940, Control_c, 0, 64, 58
2, 79954, Control_c, 0, 64, 0
2, 80016, Control_c, 0, 67, 119
2, 80045, Control_c, 0, 67, 120
2, 80099, Control_c, 0, 67, 120
2, 80113, Control_c, 0, 67, 121
2, 80159, Control_c, 0, 67, 121
2, 80205, Control_c, 0, 67, 122
2, 80585, Control_c, 0, 67, 121
2, 80752, Control_c, 0, 67, 121
2, 80897, Control_c, 0, 67, 120
2, 80973, Control_c, 0, 67, 120
2, 81217, Control_c, 0, 67, 119
2, 81293, Control_c, 0, 67, 119
2, 81309, Control_c, 0, 67, 118
2, 81650, Control_c, 0, 67, 119
2, 82388, Control_c, 0, 67, 118
2, 82661, Control_c, 0, 67, 118
2, 82738, Control_c, 0, 67, 117
2, 82768, Control_c, 0, 67, 117
2, 82814, Control_c, 0, 67, 116
2, 82949, Control_c, 0, 67, 116
2, 83040, Control_c, 0, 67, 115
2, 83070, Control_c, 0, 67, 115
2, 83199, Control_c, 0, 67, 114
2, 83230, Control_c, 0, 67, 114
2, 83321, Control_c, 0, 67, 113
2, 83351, Control_c, 0, 67, 113
2, 83487, Control_c, 0, 67, 112
2, 83869, Control_c, 0, 67, 112
2, 84340, Note_on_c, 0, 57, 0
2, 84460, Note_on_c, 0, 60, 0
2, 84466, Note_on_c, 0, 53, 0
2, 84467, Note_on_c, 0, 41, 0
2, 84529, Note_on_c, 0, 65, 0
2, 85357, Control_c, 0, 67, 112
2, 85372, Control_c, 0, 67, 113
2, 85820, Control_c, 0, 67, 114
2, 85836, Control_c, 0, 67, 115
2, 85850, Control_c, 0, 67, 116
2, 85866, Control_c, 0, 67, 117
2, 85881, Control_c, 0, 67, 118
2, 85896, Control_c, 0, 67, 118
2, 85912, Control_c, 0, 67, 119
2, 85927, Control_c, 0, 67, 120
2, 85941, Control_c, 0, 67, 120
2, 85957, Control_c, 0, 67, 121
2, 85972, Control_c, 0, 67, 122
2, 85989, Control_c, 0, 67, 123
2, 86019, Control_c, 0, 67, 123
2, 86034, Control_c, 0, 67, 124
2, 86049, Control_c, 0, 67, 125
2, 86064, Control_c, 0, 67, 126
2, 86080, Control_c, 0, 67, 126
2, 86094, Control_c, 0, 67, 127
2, 87090, Note_on_c, 0, 60, 30
2, 87819, Note_on_c, 0, 60, 0
2, 87915, Note_on_c, 0, 61, 45
2, 88730, Note_on_c, 0, 61, 0
2, 88743, Note_on_c, 0, 60, 45
2, 89588, Note_on_c, 0, 59, 40
2, 89676, Note_on_c, 0, 60, 0
2, 90297, Note_on_c, 0, 59, 0
2, 90516, Note_on_c, 0, 64, 31
2, 91322, Note_on_c, 0, 65, 35
2, 91415, Note_on_c, 0, 64, 0
2, 92034, Note_on_c, 0, 65, 0
2, 92158, Note_on_c, 0, 58, 40
2, 92942, Note_on_c, 0, 58, 0
2, 93021, Note_on_c, 0, 57, 45
2, 93751, Note_on_c, 0, 57, 0
2, 93821, Note_on_c, 0, 56, 53
2, 94611, Note_on_c, 0, 56, 0
2, 94672, Note_on_c, 0, 55, 51
2, 96321, Note_on_c, 0, 53, 37
2, 96380, Note_on_c, 0, 55, 0
2, 96598, Note_on_c, 0, 53, 0
2, 96846, Note_on_c, 0, 53, 28
2, 96939, Note_on_c, 0, 53, 0
2, 97016, Note_on_c, 0, 55, 36
2, 97092, Note_on_c, 0, 55, 0
2, 97218, Note_on_c, 0, 65, 47
2, 97224, Note_on_c, 0, 56, 35
2, 97438, Note_on_c, 0, 56, 0
2, 97608, Note_on_c, 0, 56, 46
2, 97714, Note_on_c, 0, 56, 0
2, 97777, Note_on_c, 0, 58, 59
2, 97881, Note_on_c, 0, 58, 0
2, 97959, Note_on_c, 0, 65, 0
2, 97968, Note_on_c, 0, 68, 59
2, 97985, Note_on_c, 0, 60, 37
2, 98040, Note_on_c, 0, 60, 0
2, 98151, Note_on_c, 0, 47, 45
2, 98208, Note_on_c, 0, 47, 0
2, 98329, Note_on_c, 0, 48, 45
2, 98375, Note_on_c, 0, 48, 0
2, 98510, Note_on_c, 0, 50, 25
2, 98555, Note_on_c, 0, 50, 0
2, 98727, Note_on_c, 0, 51, 36
2, 98727, Note_on_c, 0, 67, 46
2, 98771, Note_on_c, 0, 68, 0
2, 99490, Note_on_c, 0, 51, 0
2, 99519, Note_on_c, 0, 66, 57
2, 99548, Note_on_c, 0, 67, 0
2, 99677, Note_on_c, 0, 48, 50
2, 99747, Note_on_c, 0, 48, 0
2, 99842, Note_on_c, 0, 50, 57
2, 99890, Note_on_c, 0, 50, 0
2, 100008, Note_on_c, 0, 51, 57
2, 100072, Note_on_c, 0, 51, 0
2, 100241, Note_on_c, 0, 71, 65
2, 100243, Note_on_c, 0, 66, 0
2, 100245, Note_on_c, 0, 53, 44
2, 101021, Note_on_c, 0, 72, 66
2, 101068, Note_on_c, 0, 71, 0
2, 101074, Note_on_c, 0, 53, 0
2, 101191, Note_on_c, 0, 51, 57
2, 101225, Control_c, 0, 67, 127
2, 101240, Control_c, 0, 67, 126
2, 101253, Note_on_c, 0, 51, 0
2, 101255, Control_c, 0, 67, 125
2, 101301, Control_c, 0, 67, 125
2, 101331, Control_c, 0, 67, 124
2, 101363, Note_on_c, 0, 53, 64
2, 101376, Control_c, 0, 67, 125
2, 101405, Control_c, 0, 67, 126
2, 101420, Control_c, 0, 67, 127
2, 101427, Note_on_c, 0, 53, 0
2, 101539, Note_on_c, 0, 55, 54
2, 101609, Note_on_c, 0, 55, 0
2, 101752, Note_on_c, 0, 65, 67
2, 101772, Note_on_c, 0, 56, 48
2, 101851, Note_on_c, 0, 72, 0
2, 102380, Control_c, 0, 67, 123
2, 102395, Control_c, 0, 67, 109
2, 102410, Control_c, 0, 67, 98
2, 102425, Control_c, 0, 67, 90
2, 102441, Control_c, 0, 67, 85
2, 102456, Control_c, 0, 67, 80
2, 102471, Control_c, 0, 67, 78
2, 102487, Control_c, 0, 67, 76
2, 102502, Control_c, 0, 67, 74
2, 102507, Note_on_c, 0, 64, 67
2, 102518, Control_c, 0, 67, 72
2, 102531, Note_on_c, 0, 56, 0
2, 102532, Control_c, 0, 67, 70
2, 102547, Control_c, 0, 67, 69
2, 102569, Note_on_c, 0, 65, 0
2, 102608, Control_c, 0, 67, 69
2, 102623, Control_c, 0, 67, 70
2, 102639, Control_c, 0, 67, 71
2, 102653, Control_c, 0, 67, 71
2, 102682, Note_on_c, 0, 55, 56
2, 102684, Control_c, 0, 67, 72
2, 102699, Control_c, 0, 67, 72
2, 102715, Control_c, 0, 67, 73
2, 102729, Control_c, 0, 67, 75
2, 102744, Control_c, 0, 67, 75
2, 102763, Note_on_c, 0, 55, 0
2, 102774, Control_c, 0, 67, 76
2, 102789, Control_c, 0, 67, 76
2, 102804, Control_c, 0, 67, 77
2, 102835, Control_c, 0, 67, 77
2, 102842, Note_on_c, 0, 57, 66
2, 102880, Control_c, 0, 67, 77
2, 102921, Note_on_c, 0, 57, 0
2, 102985, Control_c, 0, 67, 76
2, 103016, Note_on_c, 0, 59, 70
2, 103031, Control_c, 0, 67, 77
2, 103086, Note_on_c, 0, 59, 0
2, 103161, Control_c, 0, 67, 77
2, 103176, Control_c, 0, 67, 78
2, 103217, Note_on_c, 0, 63, 77
2, 103239, Note_on_c, 0, 60, 49
2, 103253, Control_c, 0, 67, 78
2, 103268, Control_c, 0, 67, 79
2, 103293, Note_on_c, 0, 64, 0
2, 103298, Control_c, 0, 67, 80
2, 103314, Control_c, 0, 67, 80
2, 103344, Control_c, 0, 67, 81
2, 103389, Control_c, 0, 67, 82
2, 103405, Control_c, 0, 67, 84
2, 103419, Control_c, 0, 67, 87
2, 103435, Control_c, 0, 67, 89
2, 103450, Control_c, 0, 67, 91
2, 103465, Control_c, 0, 67, 92
2, 103495, Control_c, 0, 67, 93
2, 103510, Control_c, 0, 67, 94
2, 103526, Control_c, 0, 67, 98
2, 103541, Control_c, 0, 67, 102
2, 103557, Control_c, 0, 67, 107
2, 103572, Control_c, 0, 67, 111
2, 103587, Control_c, 0, 67, 114
2, 103603, Control_c, 0, 67, 117
2, 103617, Control_c, 0, 67, 119
2, 103632, Control_c, 0, 67, 121
2, 103648, Control_c, 0, 67, 124
2, 103663, Control_c, 0, 67, 126
2, 103679, Control_c, 0, 67, 127
2, 104061, Note_on_c, 0, 62, 74
2, 104135, Note_on_c, 0, 63, 0
2, 104441, Note_on_c, 0, 59, 53
2, 104469, Note_on_c, 0, 60, 0
2, 104490, Note_on_c, 0, 59, 0
2, 104617, Note_on_c, 0, 57, 45
2, 104677, Note_on_c, 0, 57, 0
2, 104891, Note_on_c, 0, 59, 46
2, 105726, Note_on_c, 0, 60, 54
2, 105739, Note_on_c, 0, 62, 0
2, 105759, Note_on_c, 0, 59, 0
2, 105829, Note_on_c, 0, 60, 0
2, 106103, Note_on_c, 0, 60, 45
2, 106116, Note_on_c, 0, 55, 26
2, 106186, Note_on_c, 0, 55, 0
2, 106196, Note_on_c, 0, 60, 0
2, 106272, Note_on_c, 0, 62, 48
2, 106355, Note_on_c, 0, 62, 0
2, 106479, Note_on_c, 0, 64, 53
2, 106486, Note_on_c, 0, 48, 54
2, 106495, Note_on_c, 0, 60, 39
2, 106832, Note_on_c, 0, 62, 52
2, 106841, Note_on_c, 0, 58, 40
2, 106843, Note_on_c, 0, 60, 0
2, 106844, Note_on_c, 0, 64, 0
2, 106872, Note_on_c, 0, 58, 0
2, 106994, Note_on_c, 0, 62, 0
2, 107009, Note_on_c, 0, 64, 51
2, 107139, Note_on_c, 0, 64, 0
2, 107192, Note_on_c, 0, 48, 0
2, 107202, Note_on_c, 0, 49, 52
2, 107205, Note_on_c, 0, 65, 62
2, 107225, Note_on_c, 0, 56, 18
2, 107277, Note_on_c, 0, 56, 0
2, 107332, Note_on_c, 0, 65, 0
2, 107372, Note_on_c, 0, 52, 48
2, 107414, Note_on_c, 0, 52, 0
2, 107552, Note_on_c, 0, 53, 47
2, 107556, Note_on_c, 0, 65, 68
2, 107614, Note_on_c, 0, 53, 0
2, 107727, Note_on_c, 0, 55, 53
2, 107795, Note_on_c, 0, 55, 0
2, 107919, Note_on_c, 0, 48, 59
2, 107923, Note_on_c, 0, 56, 52
2, 107948, Note_on_c, 0, 49, 0
2, 107952, Control_c, 0, 67, 124
2, 107968, Control_c, 0, 67, 115
2, 107982, Control_c, 0, 67, 107
2, 107998, Control_c, 0, 67, 96
2, 108013, Control_c, 0, 67, 83
2, 108028, Control_c, 0, 67, 68
2, 108044, Control_c, 0, 67, 52
2, 108058, Control_c, 0, 67, 35
2, 108074, Control_c, 0, 67, 16
2, 108089, Control_c, 0, 67, 0
2, 108293, Note_on_c, 0, 63, 63
2, 108349, Note_on_c, 0, 65, 0
2, 108653, Note_on_c, 0, 62, 62
2, 108666, Note_on_c, 0, 47, 58
2, 108674, Note_on_c, 0, 63, 0
2, 108690, Note_on_c, 0, 48, 0
2, 108736, Note_on_c, 0, 56, 0
2, 108828, Note_on_c, 0, 53, 56
2, 108887, Note_on_c, 0, 53, 0
2, 109003, Note_on_c, 0, 63, 72
2, 109016, Note_on_c, 0, 55, 56
2, 109037, Note_on_c, 0, 62, 0
2, 109088, Note_on_c, 0, 55, 0
2, 109142, Note_on_c, 0, 63, 0
2, 109168, Note_on_c, 0, 65, 74
2, 109179, Note_on_c, 0, 56, 57
2, 109280, Note_on_c, 0, 56, 0
2, 109369, Note_on_c, 0, 67, 69
2, 109377, Note_on_c, 0, 58, 55
2, 109377, Note_on_c, 0, 65, 0
2, 109384, Note_on_c, 0, 52, 54
2, 109439, Note_on_c, 0, 47, 0
2, 109556, Note_on_c, 0, 65, 64
2, 109556, Note_on_c, 0, 67, 0
2, 109671, Note_on_c, 0, 65, 0
2, 109718, Note_on_c, 0, 64, 64
2, 109812, Note_on_c, 0, 64, 0
2, 109885, Note_on_c, 0, 62, 60
2, 109952, Note_on_c, 0, 62, 0
2, 110072, Note_on_c, 0, 60, 53
2, 110090, Note_on_c, 0, 53, 49
2, 110124, Note_on_c, 0, 52, 0
2, 110175, Note_on_c, 0, 58, 0
2, 110242, Note_on_c, 0, 56, 68
2, 110310, Note_on_c, 0, 56, 0
2, 110371, Note_on_c, 0, 60, 0
2, 110421, Note_on_c, 0, 58, 65
2, 110474, Note_on_c, 0, 58, 0
2, 110584, Note_on_c, 0, 60, 71
2, 110663, Note_on_c, 0, 60, 0
2, 110776, Note_on_c, 0, 61, 61
2, 110794, Note_on_c, 0, 46, 72
2, 110819, Note_on_c, 0, 53, 0
2, 110959, Note_on_c, 0, 58, 59
2, 111020, Note_on_c, 0, 58, 0
2, 111132, Note_on_c, 0, 56, 65
2, 111187, Note_on_c, 0, 56, 0
2, 111298, Note_on_c, 0, 55, 63
2, 111443, Note_on_c, 0, 55, 0
2, 111466, Note_on_c, 0, 46, 0
2, 111497, Note_on_c, 0, 45, 66
2, 111507, Note_on_c, 0, 53, 62
2, 111574, Note_on_c, 0, 61, 0
2, 111685, Note_on_c, 0, 60, 71
2, 111766, Note_on_c, 0, 60, 0
2, 111851, Note_on_c, 0, 62, 76
2, 111921, Note_on_c, 0, 62, 0
2, 112019, Note_on_c, 0, 64, 76
2, 112107, Note_on_c, 0, 64, 0
2, 112197, Note_on_c, 0, 44, 71
2, 112197, Note_on_c, 0, 65, 75
2, 112227, Note_on_c, 0, 53, 0
2, 112252, Note_on_c, 0, 45, 0
2, 112377, Note_on_c, 0, 53, 71
2, 112437, Note_on_c, 0, 53, 0
2, 112545, Note_on_c, 0, 55, 69
2, 112599, Note_on_c, 0, 55, 0
2, 112715, Note_on_c, 0, 56, 76
2, 112781, Note_on_c, 0, 56, 0
2, 112936, Note_on_c, 0, 58, 65
2, 112945, Note_on_c, 0, 43, 57
2, 113028, Note_on_c, 0, 44, 0
2, 113194, Note_on_c, 0, 65, 0
2, 113312, Note_on_c, 0, 64, 59
2, 113375, Note_on_c, 0, 64, 0
2, 113491, Note_on_c, 0, 62, 59
2, 113566, Note_on_c, 0, 62, 0
2, 113679, Note_on_c, 0, 64, 59
2, 114016, Note_on_c, 0, 58, 0
2, 114072, Note_on_c, 0, 56, 38
2, 114157, Note_on_c, 0, 56, 0
2, 114177, Note_on_c, 0, 64, 0
2, 114257, Note_on_c, 0, 55, 43
2, 114389, Note_on_c, 0, 55, 0
2, 114493, Note_on_c, 0, 65, 40
2, 114499, Note_on_c, 0, 43, 0
2, 114499, Note_on_c, 0, 56, 37
2, 114535, Note_on_c, 0, 41, 28
2, 114738, Note_on_c, 0, 56, 0
2, 114841, Note_on_c, 0, 65, 0
2, 114950, Note_on_c, 0, 65, 19
2, 115004, Note_on_c, 0, 65, 0
2, 115037, Note_on_c, 0, 41, 0
2, 115132, Note_on_c, 0, 67, 42
2, 115205, Note_on_c, 0, 67, 0
2, 115336, Note_on_c, 0, 68, 39
2, 115618, Note_on_c, 0, 68, 0
2, 115698, Note_on_c, 0, 68, 47
2, 115706, Note_on_c, 0, 53, 35
2, 115777, Note_on_c, 0, 53, 0
2, 115777, Note_on_c, 0, 68, 0
2, 115859, Note_on_c, 0, 70, 65
2, 115873, Note_on_c, 0, 55, 41
2, 115936, Note_on_c, 0, 70, 0
2, 115938, Note_on_c, 0, 55, 0
2, 116049, Note_on_c, 0, 72, 69
2, 116073, Note_on_c, 0, 56, 44
2, 116241, Note_on_c, 0, 56, 0
2, 116385, Note_on_c, 0, 56, 56
2, 116387, Note_on_c, 0, 60, 64
2, 116449, Note_on_c, 0, 60, 0
2, 116464, Note_on_c, 0, 56, 0
2, 116559, Note_on_c, 0, 58, 61
2, 116568, Note_on_c, 0, 61, 56
2, 116636, Note_on_c, 0, 61, 0
2, 116652, Note_on_c, 0, 58, 0
2, 116745, Note_on_c, 0, 63, 57
2, 116748, Note_on_c, 0, 60, 53
2, 116866, Note_on_c, 0, 60, 0
2, 116905, Note_on_c, 0, 70, 62
2, 116975, Note_on_c, 0, 72, 0
2, 117052, Note_on_c, 0, 70, 0
2, 117091, Note_on_c, 0, 68, 64
2, 117104, Note_on_c, 0, 48, 46
2, 117199, Note_on_c, 0, 48, 0
2, 117210, Note_on_c, 0, 68, 0
2, 117268, Note_on_c, 0, 67, 58
2, 117382, Note_on_c, 0, 67, 0
2, 117462, Note_on_c, 0, 65, 48
2, 117483, Note_on_c, 0, 49, 29
2, 117774, Note_on_c, 0, 65, 0
2, 117796, Note_on_c, 0, 63, 0
2, 117851, Note_on_c, 0, 61, 47
2, 117912, Note_on_c, 0, 61, 0
2, 117974, Note_on_c, 0, 49, 0
2, 118007, Note_on_c, 0, 63, 51
2, 118097, Note_on_c, 0, 63, 0
2, 118208, Note_on_c, 0, 65, 43
2, 118508, Note_on_c, 0, 65, 0
2, 118580, Note_on_c, 0, 49, 40
2, 118581, Note_on_c, 0, 65, 53
2, 118657, Note_on_c, 0, 49, 0
2, 118663, Note_on_c, 0, 65, 0
2, 118747, Note_on_c, 0, 67, 69
2, 118761, Note_on_c, 0, 51, 49
2, 118813, Note_on_c, 0, 67, 0
2, 118817, Note_on_c, 0, 51, 0
2, 118937, Note_on_c, 0, 68, 65
2, 118956, Note_on_c, 0, 53, 40
2, 119158, Note_on_c, 0, 53, 0
2, 119282, Note_on_c, 0, 56, 52
2, 119311, Note_on_c, 0, 53, 36
2, 119351, Note_on_c, 0, 56, 0
2, 119353, Note_on_c, 0, 53, 0
2, 119462, Note_on_c, 0, 58, 48
2, 119472, Note_on_c, 0, 55, 37
2, 119523, Note_on_c, 0, 55, 0
2, 119538, Note_on_c, 0, 58, 0
2, 119651, Note_on_c, 0, 60, 47
2, 119665, Note_on_c, 0, 56, 38
2, 119830, Note_on_c, 0, 66, 49
2, 119897, Note_on_c, 0, 68, 0
2, 119983, Note_on_c, 0, 66, 0
2, 120031, Note_on_c, 0, 65, 52
2, 120046, Note_on_c, 0, 44, 28
2, 120174, Note_on_c, 0, 44, 0
2, 120174, Note_on_c, 0, 65, 0
2, 120204, Note_on_c, 0, 63, 47
2, 120411, Note_on_c, 0, 61, 47
2, 120412, Note_on_c, 0, 63, 0
2, 120424, Note_on_c, 0, 46, 31
2, 120797, Note_on_c, 0, 60, 0
2, 120809, Note_on_c, 0, 58, 52
2, 120828, Note_on_c, 0, 61, 0
2, 120907, Note_on_c, 0, 58, 0
2, 120972, Note_on_c, 0, 46, 0
2, 120983, Note_on_c, 0, 56, 0
2, 120983, Note_on_c, 0, 60, 61
2, 121063, Note_on_c, 0, 60, 0
2, 121160, Note_on_c, 0, 61, 61
2, 121470, Note_on_c, 0, 61, 0
2, 121520, Note_on_c, 0, 46, 48
2, 121531, Note_on_c, 0, 61, 67
2, 121597, Note_on_c, 0, 46, 0
2, 121635, Note_on_c, 0, 61, 0
2, 121696, Note_on_c, 0, 63, 74
2, 121716, Note_on_c, 0, 48, 48
2, 121763, Note_on_c, 0, 48, 0
2, 121788, Note_on_c, 0, 63, 0
2, 121877, Note_on_c, 0, 65, 75
2, 121915, Note_on_c, 0, 49, 47
2, 122132, Note_on_c, 0, 49, 0
2, 122262, Note_on_c, 0, 53, 56
2, 122272, Note_on_c, 0, 49, 52
2, 122331, Note_on_c, 0, 53, 0
2, 122333, Note_on_c, 0, 49, 0
2, 122405, Note_on_c, 0, 55, 59
2, 122420, Note_on_c, 0, 51, 48
2, 122464, Note_on_c, 0, 55, 0
2, 122470, Note_on_c, 0, 51, 0
2, 122601, Note_on_c, 0, 56, 63
2, 122606, Note_on_c, 0, 53, 56
2, 122751, Note_on_c, 0, 53, 0
2, 122790, Note_on_c, 0, 56, 0
2, 122974, Note_on_c, 0, 56, 52
2, 123005, Note_on_c, 0, 41, 44
2, 123052, Note_on_c, 0, 41, 0
2, 123055, Note_on_c, 0, 56, 0
2, 123151, Note_on_c, 0, 58, 64
2, 123206, Note_on_c, 0, 58, 0
2, 123338, Note_on_c, 0, 60, 62
2, 123374, Note_on_c, 0, 48, 37
2, 123522, Note_on_c, 0, 48, 0
2, 123682, Note_on_c, 0, 64, 71
2, 123685, Note_on_c, 0, 48, 40
2, 123685, Note_on_c, 0, 65, 0
2, 123696, Note_on_c, 0, 55, 38
2, 123739, Note_on_c, 0, 60, 0
2, 123853, Note_on_c, 0, 65, 70
2, 123858, Note_on_c, 0, 64, 0
2, 123870, Note_on_c, 0, 48, 0
2, 123879, Note_on_c, 0, 50, 43
2, 123958, Note_on_c, 0, 65, 0
2, 124031, Note_on_c, 0, 50, 0
2, 124037, Note_on_c, 0, 72, 80
2, 124056, Note_on_c, 0, 67, 60
2, 124070, Note_on_c, 0, 52, 50
2, 124071, Note_on_c, 0, 60, 49
2, 124078, Note_on_c, 0, 55, 0
2, 124204, Note_on_c, 0, 60, 0
2, 124264, Note_on_c, 0, 52, 0
2, 124400, Note_on_c, 0, 50, 43
2, 124432, Note_on_c, 0, 58, 42
2, 124567, Note_on_c, 0, 52, 47
2, 124576, Note_on_c, 0, 58, 0
2, 124604, Note_on_c, 0, 50, 0
2, 124684, Note_on_c, 0, 52, 0
2, 124766, Note_on_c, 0, 73, 68
2, 124772, Note_on_c, 0, 56, 47
2, 124773, Note_on_c, 0, 53, 47
2, 124787, Note_on_c, 0, 72, 0
2, 124793, Note_on_c, 0, 67, 0
2, 124812, Note_on_c, 0, 53, 0
2, 124814, Note_on_c, 0, 56, 0
2, 124984, Note_on_c, 0, 38, 6
2, 124993, Note_on_c, 0, 40, 32
2, 125035, Note_on_c, 0, 40, 0
2, 125037, Note_on_c, 0, 38, 0
2, 125121, Note_on_c, 0, 41, 56
2, 125139, Note_on_c, 0, 65, 63
2, 125206, Note_on_c, 0, 41, 0
2, 125309, Note_on_c, 0, 43, 59
2, 125376, Note_on_c, 0, 43, 0
2, 125461, Note_on_c, 0, 73, 0
2, 125490, Note_on_c, 0, 72, 73
2, 125495, Note_on_c, 0, 44, 56
2, 125649, Note_on_c, 0, 48, 63
2, 125718, Note_on_c, 0, 48, 0
2, 125811, Note_on_c, 0, 63, 70
2, 125824, Note_on_c, 0, 50, 58
2, 125840, Note_on_c, 0, 65, 0
2, 125894, Note_on_c, 0, 50, 0
2, 125976, Note_on_c, 0, 51, 61
2, 126053, Note_on_c, 0, 51, 0
2, 126132, Note_on_c, 0, 63, 0
2, 126165, Note_on_c, 0, 71, 78
2, 126182, Note_on_c, 0, 62, 53
2, 126187, Note_on_c, 0, 72, 0
2, 126190, Note_on_c, 0, 53, 56
2, 126196, Note_on_c, 0, 44, 0
2, 126341, Note_on_c, 0, 41, 58
2, 126422, Note_on_c, 0, 41, 0
2, 126518, Note_on_c, 0, 63, 66
2, 126521, Note_on_c, 0, 43, 65
2, 126544, Note_on_c, 0, 62, 0
2, 126588, Note_on_c, 0, 43, 0
2, 126596, Note_on_c, 0, 63, 0
2, 126677, Note_on_c, 0, 44, 60
2, 126679, Note_on_c, 0, 65, 63
2, 126749, Note_on_c, 0, 44, 0
2, 126839, Note_on_c, 0, 65, 0
2, 126858, Note_on_c, 0, 76, 79
2, 126867, Note_on_c, 0, 46, 62
2, 126881, Note_on_c, 0, 67, 57
2, 126902, Note_on_c, 0, 71, 0
2, 126911, Note_on_c, 0, 53, 0
2, 127045, Note_on_c, 0, 67, 0
2, 127055, Note_on_c, 0, 65, 58
2, 127227, Note_on_c, 0, 64, 62
2, 127239, Note_on_c, 0, 65, 0
2, 127240, Note_on_c, 0, 55, 49
2, 127290, Control_c, 0, 64, 62
2, 127304, Control_c, 0, 64, 69
2, 127305, Note_on_c, 0, 76, 0
2, 127320, Control_c, 0, 64, 76
2, 127335, Control_c, 0, 64, 82
2, 127349, Control_c, 0, 64, 85
2, 127365, Control_c, 0, 64, 86
2, 127365, Note_on_c, 0, 55, 0
2, 127380, Control_c, 0, 64, 87
2, 127380, Note_on_c, 0, 64, 0
2, 127389, Note_on_c, 0, 62, 63
2, 127396, Control_c, 0, 64, 88
2, 127411, Control_c, 0, 64, 89
2, 127425, Control_c, 0, 64, 90
2, 127441, Control_c, 0, 64, 90
2, 127471, Control_c, 0, 64, 91
2, 127547, Control_c, 0, 64, 90
2, 127560, Note_on_c, 0, 62, 0
2, 127578, Control_c, 0, 64, 88
2, 127578, Note_on_c, 0, 77, 78
2, 127590, Note_on_c, 0, 56, 56
2, 127592, Note_on_c, 0, 46, 0
2, 127593, Control_c, 0, 64, 84
2, 127609, Control_c, 0, 64, 75
2, 127624, Control_c, 0, 64, 56
2, 127639, Control_c, 0, 64, 0
2, 127758, Note_on_c, 0, 44, 55
2, 127814, Note_on_c, 0, 44, 0
2, 127928, Note_on_c, 0, 46, 63
2, 127987, Note_on_c, 0, 46, 0
2, 128095, Note_on_c, 0, 48, 57
2, 128168, Note_on_c, 0, 48, 0
2, 128266, Note_on_c, 0, 77, 0
2, 128277, Note_on_c, 0, 70, 62
2, 128295, Note_on_c, 0, 49, 49
2, 128316, Note_on_c, 0, 56, 0
2, 128471, Note_on_c, 0, 58, 41
2, 128526, Note_on_c, 0, 58, 0
2, 128647, Note_on_c, 0, 58, 58
2, 128666, Note_on_c, 0, 56, 37
2, 128715, Note_on_c, 0, 56, 0
2, 128788, Note_on_c, 0, 58, 0
2, 128832, Note_on_c, 0, 55, 32
2, 128896, Note_on_c, 0, 55, 0
2, 128903, Note_on_c, 0, 49, 0
2, 128987, Note_on_c, 0, 69, 59
2, 128990, Note_on_c, 0, 70, 0
2, 129010, Note_on_c, 0, 60, 39
2, 129011, Note_on_c, 0, 53, 39
2, 129174, Note_on_c, 0, 48, 42
2, 129236, Note_on_c, 0, 48, 0
2, 129349, Note_on_c, 0, 50, 37
2, 129410, Note_on_c, 0, 50, 0
2, 129529, Note_on_c, 0, 52, 45
2, 129578, Note_on_c, 0, 52, 0
2, 129595, Note_on_c, 0, 53, 0
2, 129701, Note_on_c, 0, 53, 53
2, 129702, Note_on_c, 0, 68, 56
2, 129702, Note_on_c, 0, 69, 0
2, 129762, Note_on_c, 0, 53, 0
2, 129783, Note_on_c, 0, 60, 0
2, 129875, Note_on_c, 0, 53, 54
2, 130054, Note_on_c, 0, 60, 67
2, 130076, Note_on_c, 0, 55, 57
2, 130161, Note_on_c, 0, 55, 0
2, 130220, Note_on_c, 0, 60, 0
2, 130231, Note_on_c, 0, 56, 58
2, 130313, Note_on_c, 0, 56, 0
2, 130428, Note_on_c, 0, 67, 67
2, 130439, Note_on_c, 0, 58, 49
2, 130447, Note_on_c, 0, 61, 50
2, 130520, Note_on_c, 0, 68, 0
2, 130793, Note_on_c, 0, 61, 0
2, 130796, Note_on_c, 0, 53, 0
2, 130797, Note_on_c, 0, 52, 47
2, 130812, Note_on_c, 0, 60, 46
2, 130857, Note_on_c, 0, 58, 0
2, 130865, Note_on_c, 0, 52, 0
2, 130876, Note_on_c, 0, 60, 0
2, 130968, Note_on_c, 0, 58, 50
2, 130977, Note_on_c, 0, 50, 45
2, 131026, Note_on_c, 0, 58, 0
2, 131053, Note_on_c, 0, 50, 0
2, 131151, Note_on_c, 0, 60, 50
2, 131179, Note_on_c, 0, 52, 39
2, 131510, Note_on_c, 0, 56, 36
2, 131572, Note_on_c, 0, 56, 0
2, 131604, Note_on_c, 0, 52, 0
2, 131688, Note_on_c, 0, 55, 41
2, 131762, Note_on_c, 0, 55, 0
2, 131899, Note_on_c, 0, 56, 40
2, 131921, Note_on_c, 0, 53, 30
2, 131985, Note_on_c, 0, 60, 0
2, 132047, Note_on_c, 0, 67, 0
2, 132252, Note_on_c, 0, 65, 52
2, 132320, Note_on_c, 0, 65, 0
2, 132432, Note_on_c, 0, 67, 51
2, 132490, Note_on_c, 0, 67, 0
2, 132637, Note_on_c, 0, 53, 0
2, 132647, Note_on_c, 0, 56, 0
2, 132647, Note_on_c, 0, 68, 42
2, 133022, Note_on_c, 0, 53, 38
2, 133108, Note_on_c, 0, 53, 0
2, 133213, Note_on_c, 0, 51, 39
2, 133288, Note_on_c, 0, 51, 0
2, 133392, Note_on_c, 0, 50, 43
2, 133619, Note_on_c, 0, 50, 0
2, 133750, Note_on_c, 0, 65, 52
2, 133759, Note_on_c, 0, 50, 30
2, 133806, Note_on_c, 0, 50, 0
2, 133930, Note_on_c, 0, 63, 50
2, 133930, Note_on_c, 0, 65, 0
2, 133934, Note_on_c, 0, 48, 31
2, 133986, Note_on_c, 0, 48, 0
2, 134115, Note_on_c, 0, 62, 51
2, 134117, Note_on_c, 0, 46, 37
2, 134118, Note_on_c, 0, 63, 0
2, 134313, Note_on_c, 0, 62, 0
2, 134395, Note_on_c, 0, 46, 0
2, 134451, Note_on_c, 0, 62, 62
2, 134472, Note_on_c, 0, 48, 36
2, 134552, Note_on_c, 0, 62, 0
2, 134564, Note_on_c, 0, 48, 0
2, 134627, Note_on_c, 0, 60, 51
2, 134647, Note_on_c, 0, 50, 33
2, 134710, Note_on_c, 0, 50, 0
2, 134743, Note_on_c, 0, 60, 0
2, 134819, Note_on_c, 0, 58, 54
2, 134823, Note_on_c, 0, 68, 0
2, 134830, Note_on_c, 0, 51, 42
2, 135052, Note_on_c, 0, 58, 0
2, 135106, Note_on_c, 0, 51, 0
2, 135151, Note_on_c, 0, 58, 66
2, 135156, Note_on_c, 0, 67, 62
2, 135217, Note_on_c, 0, 58, 0
2, 135289, Note_on_c, 0, 67, 0
2, 135316, Note_on_c, 0, 68, 68
2, 135320, Note_on_c, 0, 56, 60
2, 135411, Note_on_c, 0, 56, 0
2, 135441, Note_on_c, 0, 68, 0
2, 135505, Note_on_c, 0, 70, 62
2, 135512, Note_on_c, 0, 55, 58
2, 135766, Note_on_c, 0, 55, 0
2, 135875, Note_on_c, 0, 55, 66
2, 135943, Note_on_c, 0, 55, 0
2, 136045, Note_on_c, 0, 53, 60
2, 136122, Note_on_c, 0, 53, 0
2, 136241, Note_on_c, 0, 52, 54
2, 136483, Note_on_c, 0, 52, 0
2, 136586, Note_on_c, 0, 67, 65
2, 136595, Note_on_c, 0, 52, 33
2, 136672, Note_on_c, 0, 52, 0
2, 136741, Note_on_c, 0, 67, 0
2, 136750, Note_on_c, 0, 65, 65
2, 136764, Note_on_c, 0, 50, 47
2, 136842, Note_on_c, 0, 50, 0
2, 136937, Note_on_c, 0, 65, 0
2, 136942, Note_on_c, 0, 64, 63
2, 136967, Note_on_c, 0, 48, 44
2, 137160, Note_on_c, 0, 64, 0
2, 137285, Note_on_c, 0, 64, 72
2, 137291, Note_on_c, 0, 50, 47
2, 137305, Note_on_c, 0, 48, 0
2, 137388, Note_on_c, 0, 50, 0
2, 137441, Note_on_c, 0, 64, 0
2, 137456, Note_on_c, 0, 52, 50
2, 137456, Note_on_c, 0, 62, 74
2, 137565, Note_on_c, 0, 52, 0
2, 137597, Note_on_c, 0, 62, 0
2, 137627, Note_on_c, 0, 60, 70
2, 137637, Note_on_c, 0, 70, 0
2, 137643, Note_on_c, 0, 53, 63
2, 137808, Note_on_c, 0, 67, 77
2, 137850, Note_on_c, 0, 60, 0
2, 137958, Note_on_c, 0, 67, 0
2, 137975, Note_on_c, 0, 60, 70
2, 137978, Note_on_c, 0, 68, 76
2, 138058, Note_on_c, 0, 60, 0
2, 138105, Note_on_c, 0, 68, 0
2, 138141, Note_on_c, 0, 72, 67
2, 138151, Note_on_c, 0, 58, 77
2, 138190, Note_on_c, 0, 72, 0
2, 138288, Note_on_c, 0, 58, 0
2, 138333, Note_on_c, 0, 77, 71
2, 138340, Note_on_c, 0, 56, 67
2, 138566, Note_on_c, 0, 56, 0
2, 138605, Note_on_c, 0, 53, 0
2, 138683, Note_on_c, 0, 50, 67
2, 138774, Note_on_c, 0, 50, 0
2, 138848, Note_on_c, 0, 48, 68
2, 138944, Note_on_c, 0, 48, 0
2, 139040, Note_on_c, 0, 47, 63
2, 139300, Note_on_c, 0, 47, 0
2, 139423, Note_on_c, 0, 74, 65
2, 139424, Note_on_c, 0, 47, 56
2, 139490, Note_on_c, 0, 47, 0
2, 139578, Note_on_c, 0, 74, 0
2, 139592, Note_on_c, 0, 72, 71
2, 139599, Note_on_c, 0, 45, 51
2, 139651, Note_on_c, 0, 45, 0
2, 139728, Note_on_c, 0, 72, 0
2, 139787, Note_on_c, 0, 71, 69
2, 139804, Note_on_c, 0, 43, 44
2, 140063, Note_on_c, 0, 71, 0
2, 140130, Note_on_c, 0, 71, 70
2, 140145, Note_on_c, 0, 45, 53
2, 140147, Note_on_c, 0, 43, 0
2, 140227, Note_on_c, 0, 45, 0
2, 140267, Note_on_c, 0, 71, 0
2, 140297, Note_on_c, 0, 69, 79
2, 140309, Note_on_c, 0, 47, 55
2, 140370, Note_on_c, 0, 47, 0
2, 140416, Note_on_c, 0, 69, 0
2, 140479, Note_on_c, 0, 67, 75
2, 140494, Note_on_c, 0, 48, 51
2, 140718, Note_on_c, 0, 67, 0
2, 140813, Note_on_c, 0, 75, 82
2, 140833, Note_on_c, 0, 67, 66
2, 140862, Note_on_c, 0, 77, 0
2, 140878, Note_on_c, 0, 67, 0
2, 140989, Note_on_c, 0, 69, 66
2, 141039, Note_on_c, 0, 48, 0
2, 141202, Note_on_c, 0, 74, 74
2, 141203, Note_on_c, 0, 55, 70
2, 141208, Note_on_c, 0, 69, 0
2, 141211, Note_on_c, 0, 71, 65
2, 141248, Note_on_c, 0, 75, 0
2, 141581, Note_on_c, 0, 79, 77
2, 141594, Note_on_c, 0, 71, 0
2, 141596, Note_on_c, 0, 69, 61
2, 141598, Note_on_c, 0, 74, 0
2, 141757, Note_on_c, 0, 69, 0
2, 141762, Note_on_c, 0, 71, 69
2, 141810, Note_on_c, 0, 79, 0
2, 141936, Note_on_c, 0, 56, 77
2, 141953, Note_on_c, 0, 72, 69
2, 141960, Note_on_c, 0, 71, 0
2, 142009, Note_on_c, 0, 55, 0
2, 142119, Note_on_c, 0, 71, 62
2, 142125, Note_on_c, 0, 72, 0
2, 142228, Note_on_c, 0, 71, 0
2, 142311, Note_on_c, 0, 72, 68
2, 142379, Note_on_c, 0, 72, 0
2, 142473, Note_on_c, 0, 74, 68
2, 142565, Note_on_c, 0, 74, 0
2, 142676, Note_on_c, 0, 75, 69
2, 142679, Note_on_c, 0, 55, 67
2, 142730, Note_on_c, 0, 56, 0
2, 143062, Note_on_c, 0, 70, 56
2, 143393, Note_on_c, 0, 70, 0
2, 143401, Note_on_c, 0, 54, 57
2, 143403, Note_on_c, 0, 69, 56
2, 143452, Note_on_c, 0, 55, 0
2, 143563, Note_on_c, 0, 75, 0
2, 143572, Note_on_c, 0, 69, 0
2, 143582, Note_on_c, 0, 72, 60
2, 143735, Note_on_c, 0, 72, 0
2, 143763, Note_on_c, 0, 74, 63
2, 143767, Note_on_c, 0, 71, 56
2, 143879, Note_on_c, 0, 54, 0
2, 143880, Note_on_c, 0, 71, 0
2, 143890, Note_on_c, 0, 74, 0
2, 143932, Note_on_c, 0, 75, 72
2, 143951, Note_on_c, 0, 72, 55
2, 144001, Note_on_c, 0, 72, 0
2, 144116, Note_on_c, 0, 77, 77
2, 144125, Note_on_c, 0, 59, 64
2, 144130, Note_on_c, 0, 74, 63
2, 144192, Note_on_c, 0, 75, 0
2, 144281, Note_on_c, 0, 74, 0
2, 144308, Note_on_c, 0, 72, 57
2, 144469, Note_on_c, 0, 72, 0
2, 144488, Note_on_c, 0, 71, 54
2, 144611, Note_on_c, 0, 71, 0
2, 144678, Note_on_c, 0, 69, 53
2, 144830, Note_on_c, 0, 69, 0
2, 144870, Note_on_c, 0, 67, 54
2, 144886, Note_on_c, 0, 60, 54
2, 144919, Note_on_c, 0, 59, 0
2, 144971, Note_on_c, 0, 77, 0
2, 145054, Note_on_c, 0, 75, 56
2, 145161, Note_on_c, 0, 75, 0
2, 145222, Note_on_c, 0, 77, 62
2, 145295, Note_on_c, 0, 77, 0
2, 145400, Note_on_c, 0, 79, 59
2, 145445, Note_on_c, 0, 60, 0
2, 145464, Note_on_c, 0, 67, 0
2, 145481, Note_on_c, 0, 79, 0
2, 145580, Note_on_c, 0, 80, 60
2, 145597, Note_on_c, 0, 53, 48
2, 145753, Note_on_c, 0, 65, 51
2, 145827, Note_on_c, 0, 65, 0
2, 145910, Note_on_c, 0, 63, 63
2, 145981, Note_on_c, 0, 63, 0
2, 146073, Note_on_c, 0, 62, 64
2, 146128, Note_on_c, 0, 53, 0
2, 146217, Note_on_c, 0, 62, 0
2, 146256, Note_on_c, 0, 52, 57
2, 146257, Note_on_c, 0, 60, 61
2, 146413, Note_on_c, 0, 80, 0
2, 146423, Note_on_c, 0, 79, 72
2, 146512, Note_on_c, 0, 79, 0
2, 146594, Note_on_c, 0, 81, 85
2, 146687, Note_on_c, 0, 81, 0
2, 146776, Note_on_c, 0, 83, 82
2, 146897, Note_on_c, 0, 83, 0
2, 146971, Note_on_c, 0, 84, 80
2, 146977, Note_on_c, 0, 51, 52
2, 147008, Note_on_c, 0, 52, 0
2, 147062, Note_on_c, 0, 60, 0
2, 147139, Note_on_c, 0, 72, 66
2, 147203, Note_on_c, 0, 72, 0
2, 147295, Note_on_c, 0, 74, 65
2, 147368, Note_on_c, 0, 74, 0
2, 147466, Note_on_c, 0, 75, 61
2, 147541, Note_on_c, 0, 75, 0
2, 147664, Note_on_c, 0, 77, 49
2, 147678, Note_on_c, 0, 50, 32
2, 147739, Note_on_c, 0, 51, 0
2, 148000, Note_on_c, 0, 83, 68
2, 148037, Note_on_c, 0, 84, 0
2, 148099, Note_on_c, 0, 83, 0
2, 148176, Note_on_c, 0, 81, 73
2, 148273, Note_on_c, 0, 81, 0
2, 148373, Note_on_c, 0, 83, 63
2, 148781, Note_on_c, 0, 75, 54
2, 148800, Note_on_c, 0, 77, 0
2, 148849, Note_on_c, 0, 75, 0
2, 148965, Note_on_c, 0, 74, 46
2, 149173, Note_on_c, 0, 74, 0
2, 149210, Note_on_c, 0, 84, 47
2, 149224, Note_on_c, 0, 48, 32
2, 149233, Note_on_c, 0, 75, 32
2, 149332, Note_on_c, 0, 83, 0
2, 149349, Note_on_c, 0, 50, 0
2, 149538, Note_on_c, 0, 75, 0
2, 149545, Note_on_c, 0, 84, 0
2, 149556, Note_on_c, 0, 79, 67
2, 149572, Note_on_c, 0, 72, 52
2, 149600, Note_on_c, 0, 72, 0
2, 149603, Note_on_c, 0, 48, 0
2, 149732, Note_on_c, 0, 74, 57
2, 149805, Note_on_c, 0, 74, 0
2, 149917, Note_on_c, 0, 84, 79
2, 149939, Note_on_c, 0, 75, 59
2, 149976, Note_on_c, 0, 79, 0
2, 150280, Note_on_c, 0, 72, 64
2, 150363, Note_on_c, 0, 72, 0
2, 150440, Note_on_c, 0, 70, 67
2, 150527, Note_on_c, 0, 70, 0
2, 150639, Note_on_c, 0, 69, 52
2, 150823, Note_on_c, 0, 84, 0
2, 150903, Note_on_c, 0, 69, 0
2, 150971, Note_on_c, 0, 84, 66
2, 150973, Note_on_c, 0, 69, 46
2, 151129, Note_on_c, 0, 69, 0
2, 151136, Note_on_c, 0, 82, 74
2, 151159, Note_on_c, 0, 67, 46
2, 151181, Note_on_c, 0, 84, 0
2, 151302, Note_on_c, 0, 82, 0
2, 151328, Note_on_c, 0, 67, 0
2, 151329, Note_on_c, 0, 81, 75
2, 151352, Note_on_c, 0, 65, 40
2, 151610, Note_on_c, 0, 81, 0
2, 151625, Note_on_c, 0, 65, 0
2, 151683, Note_on_c, 0, 67, 49
2, 151683, Note_on_c, 0, 81, 72
2, 151759, Note_on_c, 0, 67, 0
2, 151848, Note_on_c, 0, 79, 77
2, 151863, Note_on_c, 0, 69, 48
2, 151878, Note_on_c, 0, 81, 0
2, 151931, Note_on_c, 0, 69, 0
2, 152037, Note_on_c, 0, 77, 73
2, 152055, Note_on_c, 0, 79, 0
2, 152056, Note_on_c, 0, 70, 51
2, 152145, Note_on_c, 0, 75, 0
2, 152284, Note_on_c, 0, 70, 0
2, 152344, Note_on_c, 0, 77, 0
2, 152411, Note_on_c, 0, 79, 70
2, 152426, Note_on_c, 0, 58, 41
2, 152427, Note_on_c, 0, 70, 54
2, 152491, Note_on_c, 0, 70, 0
2, 152506, Note_on_c, 0, 58, 0
2, 152576, Note_on_c, 0, 81, 74
2, 152607, Note_on_c, 0, 79, 0
2, 152613, Note_on_c, 0, 72, 43
2, 152649, Note_on_c, 0, 72, 0
2, 152776, Note_on_c, 0, 81, 0
2, 152783, Note_on_c, 0, 82, 64
2, 152818, Note_on_c, 0, 73, 50
2, 153157, Note_on_c, 0, 70, 50
2, 153249, Note_on_c, 0, 70, 0
2, 153330, Note_on_c, 0, 68, 50
2, 153397, Note_on_c, 0, 68, 0
2, 153521, Note_on_c, 0, 67, 44
2, 153758, Note_on_c, 0, 82, 0
2, 153766, Note_on_c, 0, 67, 0
2, 153861, Note_on_c, 0, 82, 61
2, 153876, Note_on_c, 0, 67, 33
2, 154026, Note_on_c, 0, 80, 61
2, 154029, Note_on_c, 0, 67, 0
2, 154057, Note_on_c, 0, 65, 37
2, 154086, Note_on_c, 0, 82, 0
2, 154185, Note_on_c, 0, 80, 0
2, 154227, Note_on_c, 0, 79, 52
2, 154248, Note_on_c, 0, 63, 31
2, 154249, Note_on_c, 0, 65, 0
2, 154476, Note_on_c, 0, 79, 0
2, 154587, Note_on_c, 0, 65, 37
2, 154590, Note_on_c, 0, 79, 53
2, 154639, Note_on_c, 0, 63, 0
2, 154659, Note_on_c, 0, 65, 0
2, 154728, Note_on_c, 0, 79, 0
2, 154746, Note_on_c, 0, 77, 58
2, 154772, Note_on_c, 0, 67, 31
2, 154816, Note_on_c, 0, 67, 0
2, 154926, Note_on_c, 0, 77, 0
2, 154948, Note_on_c, 0, 75, 49
2, 154985, Note_on_c, 0, 68, 28
2, 155121, Note_on_c, 0, 73, 0
2, 155161, Note_on_c, 0, 75, 0
2, 155163, Note_on_c, 0, 68, 0
2, 155314, Note_on_c, 0, 68, 49
2, 155316, Note_on_c, 0, 77, 52
2, 155339, Note_on_c, 0, 56, 28
2, 155389, Note_on_c, 0, 68, 0
2, 155449, Note_on_c, 0, 77, 0
2, 155451, Note_on_c, 0, 56, 0
2, 155491, Note_on_c, 0, 79, 60
2, 155508, Note_on_c, 0, 70, 49
2, 155585, Note_on_c, 0, 70, 0
2, 155699, Note_on_c, 0, 80, 53
2, 155714, Note_on_c, 0, 72, 36
2, 155729, Note_on_c, 0, 79, 0
2, 156070, Note_on_c, 0, 68, 42
2, 156178, Note_on_c, 0, 68, 0
2, 156252, Note_on_c, 0, 67, 43
2, 156364, Note_on_c, 0, 67, 0
2, 156451, Note_on_c, 0, 65, 32
2, 156688, Note_on_c, 0, 80, 0
2, 156713, Note_on_c, 0, 65, 0
2, 156812, Note_on_c, 0, 80, 56
2, 156831, Note_on_c, 0, 65, 40
2, 156933, Note_on_c, 0, 80, 0
2, 156987, Note_on_c, 0, 65, 0
2, 156987, Note_on_c, 0, 79, 57
2, 157030, Note_on_c, 0, 63, 32
2, 157101, Note_on_c, 0, 63, 0
2, 157153, Note_on_c, 0, 79, 0
2, 157177, Note_on_c, 0, 77, 60
2, 157214, Note_on_c, 0, 61, 38
2, 157429, Note_on_c, 0, 61, 0
2, 157434, Note_on_c, 0, 77, 0
2, 157531, Note_on_c, 0, 77, 61
2, 157551, Note_on_c, 0, 61, 39
2, 157595, Note_on_c, 0, 61, 0
2, 157707, Note_on_c, 0, 75, 63
2, 157708, Note_on_c, 0, 77, 0
2, 157712, Note_on_c, 0, 60, 45
2, 157778, Note_on_c, 0, 60, 0
2, 157895, Note_on_c, 0, 75, 0
2, 157896, Note_on_c, 0, 73, 62
2, 157906, Note_on_c, 0, 58, 42
2, 157944, Note_on_c, 0, 72, 0
2, 158250, Note_on_c, 0, 60, 55
2, 158253, Note_on_c, 0, 70, 61
2, 158267, Note_on_c, 0, 58, 0
2, 158305, Note_on_c, 0, 70, 0
2, 158320, Note_on_c, 0, 60, 0
2, 158424, Note_on_c, 0, 68, 66
2, 158428, Note_on_c, 0, 61, 48
2, 158476, Note_on_c, 0, 61, 0
2, 158532, Note_on_c, 0, 68, 0
2, 158611, Note_on_c, 0, 67, 62
2, 158633, Note_on_c, 0, 63, 47
2, 158929, Note_on_c, 0, 73, 0
2, 158947, Note_on_c, 0, 75, 66
2, 158969, Note_on_c, 0, 51, 51
2, 159040, Note_on_c, 0, 63, 0
2, 159116, Note_on_c, 0, 73, 69
2, 159123, Note_on_c, 0, 51, 0
2, 159200, Note_on_c, 0, 75, 0
2, 159270, Note_on_c, 0, 73, 0
2, 159315, Note_on_c, 0, 72, 65
2, 159320, Note_on_c, 0, 56, 55
2, 159454, Note_on_c, 0, 67, 0
2, 159507, Note_on_c, 0, 56, 0
2, 159558, Note_on_c, 0, 72, 0
2, 159660, Note_on_c, 0, 72, 71
2, 159662, Note_on_c, 0, 58, 58
2, 159751, Note_on_c, 0, 58, 0
2, 159785, Note_on_c, 0, 72, 0
2, 159829, Note_on_c, 0, 70, 76
2, 159837, Note_on_c, 0, 60, 63
2, 159901, Note_on_c, 0, 60, 0
2, 159961, Note_on_c, 0, 70, 0
2, 160023, Note_on_c, 0, 68, 72
2, 160048, Note_on_c, 0, 61, 50
2, 160378, Note_on_c, 0, 65, 60
2, 160441, Note_on_c, 0, 65, 0
2, 160546, Note_on_c, 0, 64, 57
2, 160620, Note_on_c, 0, 64, 0
2, 160753, Note_on_c, 0, 65, 56
2, 160823, Note_on_c, 0, 68, 0
2, 160998, Note_on_c, 0, 61, 0
2, 161100, Note_on_c, 0, 70, 58
2, 161111, Note_on_c, 0, 61, 51
2, 161160, Note_on_c, 0, 61, 0
2, 161185, Note_on_c, 0, 70, 0
2, 161262, Note_on_c, 0, 72, 64
2, 161272, Note_on_c, 0, 60, 49
2, 161328, Note_on_c, 0, 60, 0
2, 161366, Note_on_c, 0, 72, 0
2, 161455, Note_on_c, 0, 73, 58
2, 161480, Note_on_c, 0, 58, 46
2, 161610, Note_on_c, 0, 65, 0
2, 161688, Note_on_c, 0, 58, 0
2, 161805, Note_on_c, 0, 67, 66
2, 161823, Note_on_c, 0, 58, 52
2, 161870, Note_on_c, 0, 58, 0
2, 161881, Note_on_c, 0, 67, 0
2, 161967, Note_on_c, 0, 68, 68
2, 161970, Note_on_c, 0, 56, 55
2, 162020, Note_on_c, 0, 56, 0
2, 162081, Note_on_c, 0, 68, 0
2, 162140, Note_on_c, 0, 55, 59
2, 162155, Note_on_c, 0, 70, 68
2, 162253, Note_on_c, 0, 73, 0
2, 162327, Note_on_c, 0, 72, 70
2, 162355, Note_on_c, 0, 70, 0
2, 162392, Note_on_c, 0, 55, 0
2, 162496, Note_on_c, 0, 73, 73
2, 162500, Note_on_c, 0, 55, 69
2, 162510, Note_on_c, 0, 72, 0
2, 162565, Note_on_c, 0, 55, 0
2, 162626, Note_on_c, 0, 73, 0
2, 162648, Note_on_c, 0, 70, 73
2, 162655, Note_on_c, 0, 53, 64
2, 162744, Note_on_c, 0, 53, 0
2, 162756, Note_on_c, 0, 70, 0
2, 162820, Note_on_c, 0, 79, 73
2, 162833, Note_on_c, 0, 52, 67
2, 163017, Note_on_c, 0, 68, 73
2, 163021, Note_on_c, 0, 52, 0
2, 163108, Note_on_c, 0, 68, 0
2, 163187, Note_on_c, 0, 70, 71
2, 163197, Note_on_c, 0, 48, 58
2, 163302, Note_on_c, 0, 70, 0
2, 163352, Note_on_c, 0, 67, 79
2, 163358, Note_on_c, 0, 48, 0
2, 163454, Note_on_c, 0, 67, 0
2, 163536, Note_on_c, 0, 68, 75
2, 163551, Note_on_c, 0, 53, 52
2, 163702, Note_on_c, 0, 79, 0
2, 163707, Note_on_c, 0, 72, 76
2, 163892, Note_on_c, 0, 73, 79
2, 163912, Note_on_c, 0, 65, 58
2, 163916, Note_on_c, 0, 53, 0
2, 163921, Note_on_c, 0, 72, 0
2, 163928, Note_on_c, 0, 68, 0
2, 163940, Note_on_c, 0, 65, 0
2, 164000, Note_on_c, 0, 73, 0
2, 164062, Note_on_c, 0, 72, 80
2, 164075, Note_on_c, 0, 63, 56
2, 164110, Note_on_c, 0, 63, 0
2, 164135, Note_on_c, 0, 72, 0
2, 164250, Note_on_c, 0, 77, 81
2, 164268, Note_on_c, 0, 61, 55
2, 164336, Note_on_c, 0, 61, 0
2, 164345, Note_on_c, 0, 63, 55
2, 164418, Note_on_c, 0, 63, 0
2, 164429, Note_on_c, 0, 61, 57
2, 164433, Note_on_c, 0, 67, 80
2, 164483, Note_on_c, 0, 61, 0
2, 164487, Note_on_c, 0, 63, 44
2, 164571, Note_on_c, 0, 61, 57
2, 164576, Note_on_c, 0, 63, 0
2, 164607, Note_on_c, 0, 68, 79
2, 164631, Note_on_c, 0, 67, 0
2, 164649, Note_on_c, 0, 63, 53
2, 164652, Note_on_c, 0, 61, 0
2, 164687, Note_on_c, 0, 68, 0
2, 164710, Note_on_c, 0, 61, 48
2, 164723, Note_on_c, 0, 63, 0
2, 164771, Note_on_c, 0, 65, 67
2, 164791, Note_on_c, 0, 63, 53
2, 164796, Note_on_c, 0, 61, 0
2, 164863, Note_on_c, 0, 61, 52
2, 164885, Note_on_c, 0, 63, 0
2, 164966, Note_on_c, 0, 61, 0
2, 164973, Note_on_c, 0, 65, 0
2, 164973, Note_on_c, 0, 72, 71
2, 164975, Note_on_c, 0, 60, 64
2, 165009, Note_on_c, 0, 77, 0
2, 165103, Note_on_c, 0, 60, 0
2, 165103, Note_on_c, 0, 72, 0
2, 165320, Note_on_c, 0, 48, 64
2, 165320, Note_on_c, 0, 67, 66
2, 165326, Note_on_c, 0, 76, 66
2, 165395, Note_on_c, 0, 48, 0
2, 165408, Note_on_c, 0, 76, 0
2, 165493, Note_on_c, 0, 77, 75
2, 165494, Note_on_c, 0, 50, 66
2, 165507, Note_on_c, 0, 67, 0
2, 165577, Note_on_c, 0, 50, 0
2, 165587, Note_on_c, 0, 77, 0
2, 165723, Note_on_c, 0, 48, 75
2, 165726, Note_on_c, 0, 79, 77
2, 165735, Note_on_c, 0, 72, 59
2, 165753, Note_on_c, 0, 52, 48
2, 166065, Note_on_c, 0, 52, 0
2, 166104, Note_on_c, 0, 70, 69
2, 166109, Note_on_c, 0, 50, 44
2, 166116, Note_on_c, 0, 72, 0
2, 166206, Note_on_c, 0, 50, 0
2, 166236, Note_on_c, 0, 70, 0
2, 166266, Note_on_c, 0, 79, 0
2, 166295, Note_on_c, 0, 52, 37
2, 166345, Note_on_c, 0, 52, 0
2, 166462, Note_on_c, 0, 53, 64
2, 166462, Note_on_c, 0, 77, 81
2, 166470, Note_on_c, 0, 49, 67
2, 166475, Note_on_c, 0, 68, 64
2, 166520, Note_on_c, 0, 48, 0
2, 166554, Note_on_c, 0, 53, 0
2, 166567, Note_on_c, 0, 68, 0
2, 166635, Note_on_c, 0, 52, 69
2, 166716, Note_on_c, 0, 52, 0
2, 166805, Note_on_c, 0, 70, 71
2, 166811, Note_on_c, 0, 53, 60
2, 166869, Note_on_c, 0, 53, 0
2, 166917, Note_on_c, 0, 70, 0
2, 166978, Note_on_c, 0, 55, 62
2, 167045, Note_on_c, 0, 55, 0
2, 167163, Note_on_c, 0, 49, 0
2, 167165, Note_on_c, 0, 72, 64
2, 167169, Note_on_c, 0, 48, 59
2, 167177, Note_on_c, 0, 56, 51
2, 167185, Note_on_c, 0, 77, 0
2, 167269, Note_on_c, 0, 72, 0
2, 167357, Note_on_c, 0, 60, 58
2, 167417, Note_on_c, 0, 60, 0
2, 167516, Note_on_c, 0, 75, 69
2, 167534, Note_on_c, 0, 62, 59
2, 167579, Note_on_c, 0, 62, 0
2, 167623, Note_on_c, 0, 75, 0
2, 167686, Note_on_c, 0, 63, 66
2, 167756, Note_on_c, 0, 63, 0
2, 167865, Note_on_c, 0, 74, 66
2, 167874, Note_on_c, 0, 65, 56
2, 167884, Note_on_c, 0, 47, 60
2, 167885, Note_on_c, 0, 48, 0
2, 167967, Note_on_c, 0, 56, 0
2, 168051, Note_on_c, 0, 53, 48
2, 168128, Note_on_c, 0, 53, 0
2, 168195, Note_on_c, 0, 74, 0
2, 168211, Note_on_c, 0, 55, 63
2, 168213, Note_on_c, 0, 75, 75
2, 168300, Note_on_c, 0, 55, 0
2, 168354, Note_on_c, 0, 75, 0
2, 168369, Note_on_c, 0, 56, 53
2, 168388, Note_on_c, 0, 77, 74
2, 168476, Note_on_c, 0, 56, 0
2, 168495, Note_on_c, 0, 65, 0
2, 168528, Note_on_c, 0, 77, 0
2, 168582, Note_on_c, 0, 52, 70
2, 168583, Note_on_c, 0, 79, 75
2, 168587, Note_on_c, 0, 58, 56
2, 168615, Note_on_c, 0, 47, 0
2, 168771, Note_on_c, 0, 77, 74
2, 168778, Note_on_c, 0, 79, 0
2, 168893, Note_on_c, 0, 77, 0
2, 168941, Note_on_c, 0, 67, 66
2, 168948, Note_on_c, 0, 76, 62
2, 169028, Note_on_c, 0, 76, 0
2, 169037, Note_on_c, 0, 67, 0
2, 169113, Note_on_c, 0, 74, 66
2, 169125, Note_on_c, 0, 67, 32
2, 169174, Note_on_c, 0, 74, 0
2, 169287, Note_on_c, 0, 72, 58
2, 169290, Note_on_c, 0, 67, 0
2, 169292, Note_on_c, 0, 53, 70
2, 169293, Note_on_c, 0, 68, 56
2, 169338, Note_on_c, 0, 58, 0
2, 169349, Note_on_c, 0, 52, 0
2, 169469, Note_on_c, 0, 56, 64
2, 169555, Note_on_c, 0, 56, 0
2, 169657, Note_on_c, 0, 58, 66
2, 169715, Note_on_c, 0, 58, 0
2, 169804, Note_on_c, 0, 68, 0
2, 169828, Note_on_c, 0, 60, 63
2, 169871, Note_on_c, 0, 60, 0
2, 169962, Note_on_c, 0, 53, 0
2, 170010, Note_on_c, 0, 46, 78
2, 170018, Note_on_c, 0, 61, 71
2, 170190, Note_on_c, 0, 70, 63
2, 170190, Note_on_c, 0, 72, 0
2, 170277, Note_on_c, 0, 70, 0
2, 170361, Note_on_c, 0, 68, 68
2, 170430, Note_on_c, 0, 68, 0
2, 170520, Note_on_c, 0, 67, 77
2, 170595, Note_on_c, 0, 67, 0
2, 170598, Note_on_c, 0, 61, 0
2, 170710, Note_on_c, 0, 65, 66
2, 170712, Note_on_c, 0, 72, 60
2, 170721, Note_on_c, 0, 45, 60
2, 170745, Note_on_c, 0, 46, 0
2, 170853, Note_on_c, 0, 65, 0
2, 170888, Note_on_c, 0, 60, 76
2, 170973, Note_on_c, 0, 60, 0
2, 171054, Note_on_c, 0, 62, 78
2, 171127, Note_on_c, 0, 62, 0
2, 171213, Note_on_c, 0, 64, 81
2, 171298, Note_on_c, 0, 64, 0
2, 171391, Note_on_c, 0, 44, 68
2, 171391, Note_on_c, 0, 65, 74
2, 171489, Note_on_c, 0, 45, 0
2, 171497, Note_on_c, 0, 65, 0
2, 171540, Note_on_c, 0, 72, 0
2, 171565, Note_on_c, 0, 65, 75
2, 171687, Note_on_c, 0, 65, 0
2, 171739, Note_on_c, 0, 67, 72
2, 171742, Note_on_c, 0, 72, 74
2, 171840, Note_on_c, 0, 67, 0
2, 171881, Note_on_c, 0, 72, 0
2, 171917, Note_on_c, 0, 68, 80
2, 172004, Note_on_c, 0, 68, 0
2, 172144, Note_on_c, 0, 73, 73
2, 172146, Note_on_c, 0, 43, 68
2, 172147, Note_on_c, 0, 70, 68
2, 172264, Note_on_c, 0, 44, 0
2, 172476, Note_on_c, 0, 73, 0
2, 172520, Note_on_c, 0, 72, 64
2, 172532, Note_on_c, 0, 64, 53
2, 172576, Note_on_c, 0, 70, 0
2, 172579, Note_on_c, 0, 64, 0
2, 172632, Note_on_c, 0, 72, 0
2, 172686, Note_on_c, 0, 70, 64
2, 172695, Note_on_c, 0, 62, 57
2, 172741, Note_on_c, 0, 62, 0
2, 172793, Note_on_c, 0, 70, 0
2, 172880, Note_on_c, 0, 72, 55
2, 172898, Note_on_c, 0, 64, 40
2, 173289, Note_on_c, 0, 68, 53
2, 173291, Note_on_c, 0, 72, 0
2, 173296, Note_on_c, 0, 64, 0
2, 173374, Note_on_c, 0, 68, 0
2, 173438, Control_c, 0, 67, 8
2, 173453, Control_c, 0, 67, 9
2, 173468, Control_c, 0, 67, 11
2, 173483, Control_c, 0, 67, 13
2, 173483, Note_on_c, 0, 67, 44
2, 173499, Control_c, 0, 67, 15
2, 173514, Control_c, 0, 67, 18
2, 173528, Control_c, 0, 67, 20
2, 173544, Control_c, 0, 67, 23
2, 173559, Control_c, 0, 67, 25
2, 173575, Control_c, 0, 67, 27
2, 173584, Note_on_c, 0, 67, 0
2, 173590, Control_c, 0, 67, 29
2, 173604, Control_c, 0, 67, 31
2, 173620, Control_c, 0, 67, 32
2, 173636, Control_c, 0, 67, 34
2, 173652, Control_c, 0, 67, 36
2, 173667, Control_c, 0, 67, 37
2, 173682, Control_c, 0, 67, 38
2, 173698, Control_c, 0, 67, 40
2, 173712, Control_c, 0, 67, 40
2, 173724, Note_on_c, 0, 68, 41
2, 173727, Control_c, 0, 67, 41
2, 173765, Control_c, 0, 67, 41
2, 173773, Note_on_c, 0, 65, 21
2, 173778, Note_on_c, 0, 41, 30
2, 173781, Control_c, 0, 67, 42
2, 173782, Note_on_c, 0, 43, 0
2, 173796, Control_c, 0, 67, 43
2, 173812, Control_c, 0, 67, 45
2, 173827, Control_c, 0, 67, 49
2, 173841, Control_c, 0, 67, 52
2, 173857, Control_c, 0, 67, 57
2, 173872, Control_c, 0, 67, 62
2, 173887, Control_c, 0, 67, 68
2, 173902, Control_c, 0, 67, 75
2, 173917, Control_c, 0, 67, 84
2, 173933, Control_c, 0, 67, 92
2, 173948, Control_c, 0, 67, 100
2, 173953, Note_on_c, 0, 41, 0
2, 173963, Control_c, 0, 67, 106
2, 173978, Control_c, 0, 67, 111
2, 173993, Control_c, 0, 67, 116
2, 174008, Control_c, 0, 67, 120
2, 174024, Control_c, 0, 67, 123
2, 174039, Control_c, 0, 67, 125
2, 174055, Control_c, 0, 67, 126
2, 174070, Control_c, 0, 67, 127
2, 174146, Control_c, 0, 67, 126
2, 174206, Control_c, 0, 67, 126
2, 174222, Control_c, 0, 67, 125
2, 174232, Note_on_c, 0, 53, 37
2, 174251, Note_on_c, 0, 65, 0
2, 174302, Note_on_c, 0, 53, 0
2, 174305, Note_on_c, 0, 68, 0
2, 174373, Control_c, 0, 67, 125
2, 174394, Note_on_c, 0, 55, 42
2, 174419, Control_c, 0, 67, 124
2, 174434, Control_c, 0, 67, 124
2, 174451, Control_c, 0, 67, 123
2, 174474, Note_on_c, 0, 55, 0
2, 174549, Control_c, 0, 67, 123
2, 174602, Note_on_c, 0, 56, 42
2, 174761, Control_c, 0, 67, 123
2, 174763, Note_on_c, 0, 56, 0
2, 174966, Note_on_c, 0, 56, 45
2, 174968, Note_on_c, 0, 60, 51
2, 175035, Control_c, 0, 67, 124
2, 175057, Note_on_c, 0, 60, 0
2, 175060, Note_on_c, 0, 56, 0
2, 175080, Control_c, 0, 67, 124
2, 175141, Control_c, 0, 67, 125
2, 175141, Note_on_c, 0, 58, 53
2, 175147, Note_on_c, 0, 61, 59
2, 175214, Note_on_c, 0, 58, 0
2, 175215, Note_on_c, 0, 61, 0
2, 175332, Note_on_c, 0, 63, 59
2, 175345, Note_on_c, 0, 60, 55
2, 175378, Control_c, 0, 67, 124
2, 175424, Control_c, 0, 67, 124
2, 175479, Note_on_c, 0, 60, 0
2, 175515, Control_c, 0, 67, 123
2, 175589, Note_on_c, 0, 63, 0
2, 175636, Control_c, 0, 67, 123
2, 175673, Note_on_c, 0, 78, 74
2, 175679, Note_on_c, 0, 63, 60
2, 175681, Note_on_c, 0, 60, 55
2, 175742, Control_c, 0, 67, 123
2, 175758, Control_c, 0, 67, 124
2, 175774, Control_c, 0, 67, 124
2, 175851, Note_on_c, 0, 77, 76
2, 175858, Note_on_c, 0, 65, 70
2, 175862, Note_on_c, 0, 63, 0
2, 175864, Control_c, 0, 67, 125
2, 175879, Note_on_c, 0, 78, 0
2, 175925, Control_c, 0, 67, 124
2, 175956, Control_c, 0, 67, 124
2, 175972, Control_c, 0, 67, 123
2, 176007, Note_on_c, 0, 65, 0
2, 176017, Control_c, 0, 67, 123
2, 176021, Note_on_c, 0, 75, 78
2, 176028, Note_on_c, 0, 77, 0
2, 176032, Control_c, 0, 67, 122
2, 176041, Note_on_c, 0, 60, 0
2, 176041, Note_on_c, 0, 66, 70
2, 176047, Control_c, 0, 67, 122
2, 176069, Control_c, 0, 67, 121
2, 176101, Control_c, 0, 67, 120
2, 176116, Control_c, 0, 67, 119
2, 176146, Control_c, 0, 67, 119
2, 176161, Control_c, 0, 67, 118
2, 176177, Control_c, 0, 67, 118
2, 176192, Control_c, 0, 67, 117
2, 176201, Note_on_c, 0, 73, 76
2, 176206, Note_on_c, 0, 58, 67
2, 176207, Control_c, 0, 67, 117
2, 176208, Note_on_c, 0, 75, 0
2, 176222, Control_c, 0, 67, 116
2, 176253, Control_c, 0, 67, 116
2, 176283, Control_c, 0, 67, 115
2, 176299, Control_c, 0, 67, 114
2, 176314, Control_c, 0, 67, 114
2, 176328, Control_c, 0, 67, 112
2, 176328, Note_on_c, 0, 58, 0
2, 176344, Control_c, 0, 67, 111
2, 176375, Control_c, 0, 67, 111
2, 176375, Note_on_c, 0, 72, 67
2, 176375, Note_on_c, 0, 73, 0
2, 176390, Control_c, 0, 67, 110
2, 176393, Note_on_c, 0, 56, 47
2, 176435, Control_c, 0, 67, 110
2, 176498, Note_on_c, 0, 56, 0
2, 176541, Control_c, 0, 67, 110
2, 176542, Note_on_c, 0, 70, 67
2, 176555, Note_on_c, 0, 54, 47
2, 176560, Note_on_c, 0, 72, 0
2, 176601, Control_c, 0, 67, 111
2, 176617, Control_c, 0, 67, 111
2, 176632, Control_c, 0, 67, 112
2, 176662, Control_c, 0, 67, 113
2, 176668, Note_on_c, 0, 66, 0
2, 176674, Note_on_c, 0, 54, 0
2, 176693, Control_c, 0, 67, 113
2, 176708, Control_c, 0, 67, 114
2, 176722, Note_on_c, 0, 70, 0
2, 176732, Note_on_c, 0, 68, 67
2, 176739, Control_c, 0, 67, 114
2, 176753, Control_c, 0, 67, 115
2, 176753, Note_on_c, 0, 65, 45
2, 176764, Note_on_c, 0, 53, 41
2, 176799, Control_c, 0, 67, 115
2, 176815, Control_c, 0, 67, 116
2, 176919, Note_on_c, 0, 65, 0
2, 176932, Note_on_c, 0, 53, 0
2, 176980, Note_on_c, 0, 68, 0
2, 177066, Control_c, 0, 67, 116
2, 177080, Note_on_c, 0, 70, 67
2, 177084, Note_on_c, 0, 65, 60
2, 177097, Control_c, 0, 67, 117
2, 177100, Note_on_c, 0, 49, 47
2, 177112, Control_c, 0, 67, 117
2, 177125, Note_on_c, 0, 65, 0
2, 177126, Control_c, 0, 67, 118
2, 177142, Control_c, 0, 67, 119
2, 177157, Control_c, 0, 67, 120
2, 177173, Control_c, 0, 67, 121
2, 177173, Note_on_c, 0, 49, 0
2, 177187, Control_c, 0, 67, 121
2, 177202, Control_c, 0, 67, 122
2, 177218, Control_c, 0, 67, 124
2, 177233, Control_c, 0, 67, 127
2, 177246, Note_on_c, 0, 72, 71
2, 177267, Note_on_c, 0, 51, 50
2, 177271, Note_on_c, 0, 63, 47
2, 177277, Note_on_c, 0, 70, 0
2, 177320, Note_on_c, 0, 63, 0
2, 177350, Note_on_c, 0, 51, 0
2, 177444, Note_on_c, 0, 73, 57
2, 177454, Note_on_c, 0, 72, 0
2, 177459, Note_on_c, 0, 61, 41
2, 177469, Note_on_c, 0, 53, 47
2, 177581, Note_on_c, 0, 53, 0
2, 177816, Note_on_c, 0, 56, 54
2, 177841, Note_on_c, 0, 53, 35
2, 177931, Note_on_c, 0, 56, 0
2, 177968, Note_on_c, 0, 61, 0
2, 177969, Note_on_c, 0, 53, 0
2, 177986, Control_c, 0, 67, 113
2, 177986, Note_on_c, 0, 58, 43
2, 177991, Note_on_c, 0, 55, 43
2, 178001, Control_c, 0, 67, 96
2, 178017, Control_c, 0, 67, 85
2, 178031, Control_c, 0, 67, 76
2, 178046, Control_c, 0, 67, 68
2, 178062, Control_c, 0, 67, 62
2, 178077, Control_c, 0, 67, 58
2, 178119, Note_on_c, 0, 58, 0
2, 178122, Control_c, 0, 67, 59
2, 178133, Note_on_c, 0, 55, 0
2, 178138, Control_c, 0, 67, 60
2, 178153, Control_c, 0, 67, 60
2, 178167, Control_c, 0, 67, 61
2, 178173, Note_on_c, 0, 56, 39
2, 178176, Note_on_c, 0, 60, 42
2, 178183, Control_c, 0, 67, 62
2, 178259, Control_c, 0, 67, 63
2, 178305, Control_c, 0, 67, 63
2, 178311, Note_on_c, 0, 60, 0
2, 178319, Control_c, 0, 67, 64
2, 178334, Note_on_c, 0, 73, 0
2, 178335, Control_c, 0, 67, 66
2, 178350, Control_c, 0, 67, 69
2, 178373, Control_c, 0, 67, 70
2, 178388, Control_c, 0, 67, 70
2, 178403, Control_c, 0, 67, 72
2, 178419, Control_c, 0, 67, 74
2, 178434, Control_c, 0, 67, 76
2, 178448, Control_c, 0, 67, 78
2, 178464, Control_c, 0, 67, 79
2, 178479, Control_c, 0, 67, 81
2, 178495, Control_c, 0, 67, 82
2, 178510, Control_c, 0, 67, 84
2, 178524, Control_c, 0, 67, 86
2, 178540, Control_c, 0, 67, 89
2, 178556, Control_c, 0, 67, 91
2, 178567, Note_on_c, 0, 60, 39
2, 178569, Note_on_c, 0, 75, 58
2, 178572, Control_c, 0, 67, 94
2, 178587, Control_c, 0, 67, 96
2, 178601, Control_c, 0, 67, 98
2, 178617, Control_c, 0, 67, 100
2, 178632, Control_c, 0, 67, 102
2, 178647, Control_c, 0, 67, 104
2, 178663, Control_c, 0, 67, 106
2, 178677, Control_c, 0, 67, 106
2, 178693, Control_c, 0, 67, 106
2, 178734, Note_on_c, 0, 73, 69
2, 178736, Note_on_c, 0, 60, 0
2, 178739, Control_c, 0, 67, 106
2, 178747, Note_on_c, 0, 61, 55
2, 178753, Control_c, 0, 67, 107
2, 178765, Note_on_c, 0, 75, 0
2, 178799, Control_c, 0, 67, 107
2, 178811, Note_on_c, 0, 61, 0
2, 178815, Control_c, 0, 67, 108
2, 178830, Control_c, 0, 67, 109
2, 178845, Control_c, 0, 67, 109
2, 178915, Note_on_c, 0, 72, 70
2, 178918, Note_on_c, 0, 63, 46
2, 178937, Control_c, 0, 67, 108
2, 178949, Note_on_c, 0, 73, 0
2, 178952, Control_c, 0, 67, 108
2, 178967, Control_c, 0, 67, 107
2, 178983, Control_c, 0, 67, 106
2, 178998, Control_c, 0, 67, 105
2, 179013, Control_c, 0, 67, 105
2, 179069, Note_on_c, 0, 72, 0
2, 179074, Control_c, 0, 67, 104
2, 179079, Note_on_c, 0, 70, 68
2, 179083, Note_on_c, 0, 54, 47
2, 179091, Note_on_c, 0, 56, 0
2, 179119, Control_c, 0, 67, 105
2, 179142, Control_c, 0, 67, 106
2, 179157, Control_c, 0, 67, 107
2, 179173, Control_c, 0, 67, 107
2, 179188, Control_c, 0, 67, 108
2, 179203, Control_c, 0, 67, 108
2, 179212, Note_on_c, 0, 54, 0
2, 179233, Control_c, 0, 67, 109
2, 179244, Note_on_c, 0, 70, 0
2, 179248, Control_c, 0, 67, 109
2, 179258, Note_on_c, 0, 68, 64
2, 179264, Control_c, 0, 67, 110
2, 179279, Control_c, 0, 67, 110
2, 179294, Note_on_c, 0, 53, 26
2, 179309, Control_c, 0, 67, 111
2, 179324, Control_c, 0, 67, 114
2, 179340, Control_c, 0, 67, 116
2, 179354, Control_c, 0, 67, 119
2, 179371, Control_c, 0, 67, 122
2, 179386, Control_c, 0, 67, 125
2, 179398, Note_on_c, 0, 68, 0
2, 179401, Control_c, 0, 67, 127
2, 179407, Note_on_c, 0, 53, 0
2, 179415, Note_on_c, 0, 66, 65
2, 179429, Note_on_c, 0, 51, 43
2, 179504, Note_on_c, 0, 51, 0
2, 179583, Note_on_c, 0, 66, 0
2, 179606, Note_on_c, 0, 65, 60
2, 179629, Note_on_c, 0, 49, 31
2, 179687, Note_on_c, 0, 63, 0
2, 179782, Note_on_c, 0, 49, 0
2, 179793, Note_on_c, 0, 65, 0
2, 179987, Note_on_c, 0, 67, 54
2, 179995, Note_on_c, 0, 46, 38
2, 180018, Note_on_c, 0, 61, 39
2, 180085, Note_on_c, 0, 46, 0
2, 180137, Note_on_c, 0, 67, 0
2, 180177, Note_on_c, 0, 69, 54
2, 180187, Note_on_c, 0, 48, 41
2, 180199, Note_on_c, 0, 61, 0
2, 180223, Note_on_c, 0, 60, 11
2, 180264, Note_on_c, 0, 60, 0
2, 180277, Note_on_c, 0, 48, 0
2, 180361, Note_on_c, 0, 69, 0
2, 180377, Note_on_c, 0, 70, 51
2, 180399, Note_on_c, 0, 49, 34
2, 180402, Note_on_c, 0, 58, 28
2, 180544, Note_on_c, 0, 49, 0
2, 180759, Note_on_c, 0, 49, 38
2, 180759, Note_on_c, 0, 53, 42
2, 180786, Note_on_c, 0, 58, 0
2, 180887, Note_on_c, 0, 53, 0
2, 180898, Note_on_c, 0, 49, 0
2, 180936, Note_on_c, 0, 55, 54
2, 180995, Control_c, 0, 67, 123
2, 181012, Control_c, 0, 67, 119
2, 181027, Control_c, 0, 67, 116
2, 181042, Control_c, 0, 67, 113
2, 181057, Control_c, 0, 67, 107
2, 181072, Control_c, 0, 67, 101
2, 181087, Control_c, 0, 67, 96
2, 181087, Note_on_c, 0, 55, 0
2, 181103, Control_c, 0, 67, 94
2, 181118, Control_c, 0, 67, 94
2, 181118, Note_on_c, 0, 53, 24
2, 181120, Note_on_c, 0, 56, 53
2, 181133, Control_c, 0, 67, 93
2, 181148, Control_c, 0, 67, 91
2, 181163, Control_c, 0, 67, 89
2, 181179, Control_c, 0, 67, 87
2, 181239, Control_c, 0, 67, 88
2, 181255, Control_c, 0, 67, 88
2, 181257, Note_on_c, 0, 70, 0
2, 181270, Control_c, 0, 67, 89
2, 181285, Control_c, 0, 67, 91
2, 181299, Note_on_c, 0, 56, 0
2, 181300, Control_c, 0, 67, 92
2, 181315, Control_c, 0, 67, 93
2, 181331, Control_c, 0, 67, 94
2, 181346, Control_c, 0, 67, 95
2, 181361, Control_c, 0, 67, 96
2, 181377, Control_c, 0, 67, 97
2, 181392, Control_c, 0, 67, 98
2, 181407, Control_c, 0, 67, 98
2, 181422, Control_c, 0, 67, 99
2, 181460, Control_c, 0, 67, 99
2, 181474, Control_c, 0, 67, 100
2, 181489, Control_c, 0, 67, 101
2, 181500, Note_on_c, 0, 72, 47
2, 181505, Control_c, 0, 67, 103
2, 181520, Control_c, 0, 67, 106
2, 181536, Control_c, 0, 67, 108
2, 181546, Note_on_c, 0, 56, 21
2, 181551, Control_c, 0, 67, 111
2, 181566, Control_c, 0, 67, 113
2, 181582, Control_c, 0, 67, 116
2, 181597, Control_c, 0, 67, 120
2, 181612, Control_c, 0, 67, 123
2, 181627, Control_c, 0, 67, 125
2, 181642, Control_c, 0, 67, 127
2, 181644, Note_on_c, 0, 56, 0
2, 181658, Control_c, 0, 67, 127
2, 181673, Note_on_c, 0, 70, 62
2, 181674, Note_on_c, 0, 58, 43
2, 181732, Note_on_c, 0, 58, 0
2, 181744, Note_on_c, 0, 72, 0
2, 181847, Note_on_c, 0, 68, 67
2, 181866, Note_on_c, 0, 60, 36
2, 181886, Note_on_c, 0, 70, 0
2, 181994, Note_on_c, 0, 53, 0
2, 182008, Note_on_c, 0, 67, 72
2, 182020, Note_on_c, 0, 51, 45
2, 182029, Note_on_c, 0, 68, 0
2, 182191, Note_on_c, 0, 65, 78
2, 182195, Note_on_c, 0, 67, 0
2, 182214, Note_on_c, 0, 49, 44
2, 182295, Note_on_c, 0, 51, 0
2, 182319, Note_on_c, 0, 49, 0
2, 182361, Note_on_c, 0, 63, 76
2, 182362, Note_on_c, 0, 60, 0
2, 182382, Note_on_c, 0, 48, 51
2, 182419, Note_on_c, 0, 65, 0
2, 182532, Note_on_c, 0, 48, 0
2, 182546, Note_on_c, 0, 61, 74
2, 182553, Note_on_c, 0, 46, 49
2, 182563, Control_c, 0, 67, 126
2, 182578, Control_c, 0, 67, 123
2, 182587, Note_on_c, 0, 63, 0
2, 182593, Control_c, 0, 67, 122
2, 182608, Control_c, 0, 67, 120
2, 182624, Control_c, 0, 67, 118
2, 182639, Control_c, 0, 67, 115
2, 182655, Control_c, 0, 67, 111
2, 182670, Control_c, 0, 67, 103
2, 182685, Control_c, 0, 67, 94
2, 182701, Control_c, 0, 67, 81
2, 182715, Note_on_c, 0, 48, 57
2, 182716, Control_c, 0, 67, 66
2, 182722, Note_on_c, 0, 46, 0
2, 182731, Control_c, 0, 67, 47
2, 182746, Control_c, 0, 67, 26
2, 182761, Control_c, 0, 67, 0
2, 182908, Note_on_c, 0, 58, 72
2, 182924, Note_on_c, 0, 49, 54
2, 182928, Note_on_c, 0, 48, 0
2, 182943, Note_on_c, 0, 61, 0
2, 183046, Note_on_c, 0, 49, 0
2, 183078, Note_on_c, 0, 60, 73
2, 183082, Note_on_c, 0, 48, 58
2, 183093, Note_on_c, 0, 58, 0
2, 183216, Note_on_c, 0, 60, 0
2, 183241, Note_on_c, 0, 48, 0
2, 183251, Note_on_c, 0, 61, 73
2, 183253, Note_on_c, 0, 46, 68
2, 183388, Note_on_c, 0, 46, 0
2, 183412, Note_on_c, 0, 44, 63
2, 183428, Note_on_c, 0, 65, 57
2, 183465, Note_on_c, 0, 64, 20
2, 183475, Note_on_c, 0, 64, 0
2, 183562, Note_on_c, 0, 44, 0
2, 183575, Control_c, 0, 67, 8
2, 183589, Control_c, 0, 67, 10
2, 183596, Note_on_c, 0, 70, 68
2, 183602, Note_on_c, 0, 43, 60
2, 183604, Control_c, 0, 67, 14
2, 183620, Control_c, 0, 67, 18
2, 183624, Note_on_c, 0, 65, 0
2, 183635, Control_c, 0, 67, 23
2, 183651, Control_c, 0, 67, 27
2, 183665, Control_c, 0, 67, 30
2, 183680, Control_c, 0, 67, 32
2, 183696, Control_c, 0, 67, 35
2, 183711, Control_c, 0, 67, 40
2, 183725, Control_c, 0, 67, 46
2, 183727, Note_on_c, 0, 43, 0
2, 183749, Control_c, 0, 67, 52
2, 183763, Note_on_c, 0, 41, 52
2, 183764, Control_c, 0, 67, 59
2, 183766, Note_on_c, 0, 68, 72
2, 183780, Control_c, 0, 67, 66
2, 183794, Control_c, 0, 67, 72
2, 183808, Note_on_c, 0, 70, 0
2, 183809, Control_c, 0, 67, 76
2, 183825, Control_c, 0, 67, 80
2, 183840, Control_c, 0, 67, 84
2, 183856, Control_c, 0, 67, 87
2, 183870, Control_c, 0, 67, 90
2, 183885, Control_c, 0, 67, 94
2, 183895, Note_on_c, 0, 41, 0
2, 183899, Note_on_c, 0, 68, 0
2, 183901, Control_c, 0, 67, 98
2, 183916, Control_c, 0, 67, 102
2, 183931, Control_c, 0, 67, 105
2, 183946, Control_c, 0, 67, 108
2, 183949, Note_on_c, 0, 67, 67
2, 183955, Note_on_c, 0, 39, 54
2, 183961, Control_c, 0, 67, 110
2, 183977, Control_c, 0, 67, 112
2, 183992, Control_c, 0, 67, 114
2, 184006, Control_c, 0, 67, 115
2, 184025, Note_on_c, 0, 39, 0
2, 184082, Control_c, 0, 67, 114
2, 184098, Control_c, 0, 67, 114
2, 184113, Control_c, 0, 67, 113
2, 184128, Control_c, 0, 67, 113
2, 184159, Control_c, 0, 67, 112
2, 184251, Control_c, 0, 67, 113
2, 184298, Note_on_c, 0, 63, 74
2, 184300, Note_on_c, 0, 61, 0
2, 184311, Note_on_c, 0, 46, 64
2, 184367, Note_on_c, 0, 67, 0
2, 184371, Note_on_c, 0, 46, 0
2, 184433, Control_c, 0, 67, 112
2, 184457, Note_on_c, 0, 61, 79
2, 184465, Note_on_c, 0, 63, 0
2, 184479, Control_c, 0, 67, 112
2, 184624, Control_c, 0, 67, 111
2, 184688, Note_on_c, 0, 63, 86
2, 184706, Note_on_c, 0, 68, 68
2, 184709, Note_on_c, 0, 60, 62
2, 184714, Note_on_c, 0, 48, 61
2, 184735, Note_on_c, 0, 61, 0
2, 184760, Note_on_c, 0, 48, 0
2, 184775, Control_c, 0, 67, 112
2, 184836, Control_c, 0, 67, 111
2, 184851, Control_c, 0, 67, 111
2, 184868, Note_on_c, 0, 60, 0
2, 184881, Control_c, 0, 67, 110
2, 185018, Control_c, 0, 67, 111
2, 185033, Control_c, 0, 67, 111
2, 185064, Control_c, 0, 67, 112
2, 185064, Note_on_c, 0, 44, 51
2, 185065, Note_on_c, 0, 61, 59
2, 185079, Control_c, 0, 67, 112
2, 185095, Control_c, 0, 67, 113
2, 185110, Control_c, 0, 67, 115
2, 185125, Control_c, 0, 67, 116
2, 185141, Control_c, 0, 67, 119
2, 185155, Control_c, 0, 67, 127
2, 185155, Note_on_c, 0, 44, 0
2, 185219, Note_on_c, 0, 61, 0
2, 185256, Note_on_c, 0, 60, 65
2, 185288, Note_on_c, 0, 68, 0
2, 185433, Note_on_c, 0, 65, 78
2, 185454, Note_on_c, 0, 49, 58
2, 185455, Note_on_c, 0, 58, 63
2, 185469, Note_on_c, 0, 60, 0
2, 185501, Note_on_c, 0, 49, 0
2, 185604, Note_on_c, 0, 67, 61
2, 185623, Note_on_c, 0, 63, 0
2, 185659, Note_on_c, 0, 65, 0
2, 185665, Note_on_c, 0, 58, 0
2, 185719, Note_on_c, 0, 67, 0
2, 185789, Note_on_c, 0, 68, 69
2, 185802, Note_on_c, 0, 46, 53
2, 185927, Note_on_c, 0, 46, 0
2, 185944, Note_on_c, 0, 70, 75
2, 185949, Note_on_c, 0, 68, 0
2, 186054, Control_c, 0, 67, 121
2, 186069, Control_c, 0, 67, 109
2, 186084, Control_c, 0, 67, 99
2, 186100, Control_c, 0, 67, 85
2, 186115, Control_c, 0, 67, 72
2, 186129, Control_c, 0, 67, 58
2, 186145, Control_c, 0, 67, 46
2, 186153, Note_on_c, 0, 63, 79
2, 186160, Control_c, 0, 67, 38
2, 186164, Note_on_c, 0, 72, 65
2, 186171, Note_on_c, 0, 51, 52
2, 186174, Note_on_c, 0, 70, 0
2, 186176, Control_c, 0, 67, 35
2, 186205, Control_c, 0, 67, 35
2, 186221, Control_c, 0, 67, 36
2, 186252, Control_c, 0, 67, 36
2, 186253, Note_on_c, 0, 51, 0
2, 186266, Control_c, 0, 67, 37
2, 186281, Control_c, 0, 67, 40
2, 186297, Control_c, 0, 67, 42
2, 186312, Control_c, 0, 67, 42
2, 186357, Control_c, 0, 67, 43
2, 186373, Control_c, 0, 67, 44
2, 186388, Control_c, 0, 67, 47
2, 186403, Control_c, 0, 67, 51
2, 186418, Control_c, 0, 67, 53
2, 186433, Control_c, 0, 67, 55
2, 186448, Control_c, 0, 67, 57
2, 186464, Control_c, 0, 67, 58
2, 186479, Control_c, 0, 67, 60
2, 186495, Control_c, 0, 67, 62
2, 186507, Note_on_c, 0, 48, 39
2, 186509, Control_c, 0, 67, 64
2, 186513, Note_on_c, 0, 56, 44
2, 186524, Control_c, 0, 67, 65
2, 186540, Control_c, 0, 67, 66
2, 186555, Control_c, 0, 67, 69
2, 186571, Control_c, 0, 67, 72
2, 186585, Control_c, 0, 67, 76
2, 186600, Control_c, 0, 67, 80
2, 186616, Control_c, 0, 67, 85
2, 186631, Control_c, 0, 67, 88
2, 186646, Control_c, 0, 67, 92
2, 186661, Control_c, 0, 67, 96
2, 186661, Note_on_c, 0, 56, 0
2, 186669, Note_on_c, 0, 55, 53
2, 186676, Control_c, 0, 67, 100
2, 186692, Control_c, 0, 67, 102
2, 186707, Control_c, 0, 67, 104
2, 186721, Control_c, 0, 67, 105
2, 186739, Control_c, 0, 67, 106
2, 186754, Control_c, 0, 67, 107
2, 186768, Control_c, 0, 67, 108
2, 186784, Control_c, 0, 67, 109
2, 186799, Control_c, 0, 67, 110
2, 186822, Control_c, 0, 67, 110
2, 186837, Control_c, 0, 67, 111
2, 186849, Note_on_c, 0, 55, 0
2, 186853, Control_c, 0, 67, 112
2, 186857, Note_on_c, 0, 63, 0
2, 186867, Note_on_c, 0, 62, 79
2, 186868, Control_c, 0, 67, 112
2, 186872, Note_on_c, 0, 48, 0
2, 186880, Note_on_c, 0, 53, 53
2, 186883, Control_c, 0, 67, 114
2, 186898, Control_c, 0, 67, 115
2, 186900, Note_on_c, 0, 56, 44
2, 186913, Control_c, 0, 67, 115
2, 186928, Control_c, 0, 67, 116
2, 186943, Note_on_c, 0, 56, 0
2, 186944, Control_c, 0, 67, 118
2, 186953, Note_on_c, 0, 53, 0
2, 186959, Control_c, 0, 67, 120
2, 186974, Control_c, 0, 67, 121
2, 186989, Control_c, 0, 67, 121
2, 187019, Control_c, 0, 67, 122
2, 187047, Note_on_c, 0, 68, 53
2, 187065, Control_c, 0, 67, 122
2, 187134, Note_on_c, 0, 72, 0
2, 187155, Control_c, 0, 67, 122
2, 187180, Note_on_c, 0, 68, 0
2, 187186, Control_c, 0, 67, 121
2, 187201, Control_c, 0, 67, 121
2, 187201, Note_on_c, 0, 70, 62
2, 187217, Control_c, 0, 67, 120
2, 187222, Note_on_c, 0, 46, 39
2, 187222, Note_on_c, 0, 55, 45
2, 187231, Control_c, 0, 67, 119
2, 187246, Control_c, 0, 67, 119
2, 187277, Control_c, 0, 67, 119
2, 187293, Control_c, 0, 67, 120
2, 187307, Control_c, 0, 67, 120
2, 187322, Control_c, 0, 67, 121
2, 187343, Note_on_c, 0, 55, 0
2, 187352, Control_c, 0, 67, 122
2, 187383, Control_c, 0, 67, 122
2, 187383, Note_on_c, 0, 72, 48
2, 187384, Note_on_c, 0, 70, 0
2, 187390, Note_on_c, 0, 56, 51
2, 187398, Control_c, 0, 67, 123
2, 187414, Control_c, 0, 67, 123
2, 187428, Control_c, 0, 67, 125
2, 187443, Control_c, 0, 67, 127
2, 187448, Note_on_c, 0, 72, 0
2, 187448, Note_on_c, 0, 72, 3
2, 187471, Note_on_c, 0, 56, 0
2, 187565, Note_on_c, 0, 67, 83
2, 187571, Note_on_c, 0, 73, 72
2, 187588, Note_on_c, 0, 62, 0
2, 187603, Note_on_c, 0, 58, 51
2, 187629, Note_on_c, 0, 72, 0
2, 187664, Note_on_c, 0, 46, 0
2, 187735, Note_on_c, 0, 58, 0
2, 187761, Note_on_c, 0, 56, 54
2, 187888, Note_on_c, 0, 56, 0
2, 187939, Note_on_c, 0, 55, 45
2, 187950, Note_on_c, 0, 51, 50
2, 188041, Note_on_c, 0, 55, 0
2, 188060, Note_on_c, 0, 51, 0
2, 188096, Note_on_c, 0, 49, 45
2, 188099, Note_on_c, 0, 53, 46
2, 188192, Note_on_c, 0, 67, 0
2, 188281, Note_on_c, 0, 49, 0
2, 188284, Note_on_c, 0, 68, 75
2, 188286, Note_on_c, 0, 53, 0
2, 188288, Note_on_c, 0, 51, 56
2, 188302, Note_on_c, 0, 48, 55
2, 188360, Note_on_c, 0, 51, 0
2, 188400, Note_on_c, 0, 73, 0
2, 188447, Note_on_c, 0, 48, 0
2, 188457, Note_on_c, 0, 72, 59
2, 188584, Note_on_c, 0, 72, 0
2, 188632, Note_on_c, 0, 56, 53
2, 188633, Note_on_c, 0, 73, 59
2, 188645, Note_on_c, 0, 53, 48
2, 188776, Note_on_c, 0, 73, 0
2, 188798, Note_on_c, 0, 75, 52
2, 188944, Note_on_c, 0, 75, 0
2, 188947, Note_on_c, 0, 56, 0
2, 188954, Note_on_c, 0, 53, 0
2, 188965, Note_on_c, 0, 68, 0
2, 188988, Note_on_c, 0, 77, 61
2, 188990, Note_on_c, 0, 61, 69
2, 189140, Control_c, 0, 67, 121
2, 189143, Note_on_c, 0, 55, 51
2, 189155, Control_c, 0, 67, 116
2, 189157, Note_on_c, 0, 51, 30
2, 189171, Control_c, 0, 67, 112
2, 189185, Control_c, 0, 67, 109
2, 189202, Control_c, 0, 67, 100
2, 189218, Control_c, 0, 67, 75
2, 189232, Control_c, 0, 67, 53
2, 189247, Control_c, 0, 67, 38
2, 189263, Control_c, 0, 67, 29
2, 189277, Control_c, 0, 67, 20
2, 189291, Note_on_c, 0, 55, 0
2, 189293, Control_c, 0, 67, 13
2, 189308, Control_c, 0, 67, 0
2, 189323, Control_c, 0, 64, 63
2, 189325, Note_on_c, 0, 51, 0
2, 189335, Note_on_c, 0, 53, 39
2, 189336, Note_on_c, 0, 56, 47
2, 189339, Control_c, 0, 64, 70
2, 189353, Control_c, 0, 64, 77
2, 189365, Note_on_c, 0, 61, 0
2, 189368, Control_c, 0, 64, 84
2, 189384, Control_c, 0, 64, 87
2, 189399, Control_c, 0, 64, 88
2, 189415, Control_c, 0, 64, 90
2, 189430, Control_c, 0, 64, 91
2, 189445, Control_c, 0, 64, 92
2, 189460, Control_c, 0, 64, 93
2, 189475, Control_c, 0, 64, 94
2, 189489, Note_on_c, 0, 53, 0
2, 189491, Control_c, 0, 64, 95
2, 189492, Note_on_c, 0, 58, 70
2, 189494, Note_on_c, 0, 55, 52
2, 189506, Control_c, 0, 64, 96
2, 189521, Control_c, 0, 64, 96
2, 189521, Note_on_c, 0, 56, 0
2, 189537, Control_c, 0, 64, 97
2, 189568, Note_on_c, 0, 55, 0
2, 189571, Note_on_c, 0, 58, 0
2, 189662, Note_on_c, 0, 60, 80
2, 189668, Note_on_c, 0, 56, 57
2, 189673, Control_c, 0, 64, 96
2, 189687, Control_c, 0, 64, 91
2, 189703, Control_c, 0, 64, 84
2, 189718, Control_c, 0, 64, 73
2, 189734, Control_c, 0, 64, 39
2, 189747, Note_on_c, 0, 56, 0
2, 189749, Control_c, 0, 64, 0
2, 189831, Note_on_c, 0, 55, 54
2, 189833, Note_on_c, 0, 77, 0
2, 189836, Note_on_c, 0, 75, 62
2, 189997, Note_on_c, 0, 55, 0
2, 190007, Note_on_c, 0, 53, 57
2, 190029, Note_on_c, 0, 77, 71
2, 190052, Note_on_c, 0, 75, 0
2, 190154, Note_on_c, 0, 77, 0
2, 190175, Note_on_c, 0, 79, 70
2, 190193, Note_on_c, 0, 51, 52
2, 190208, Note_on_c, 0, 53, 0
2, 190282, Note_on_c, 0, 60, 0
2, 190329, Note_on_c, 0, 79, 0
2, 190354, Note_on_c, 0, 80, 80
2, 190356, Note_on_c, 0, 59, 77
2, 190359, Note_on_c, 0, 50, 62
2, 190396, Note_on_c, 0, 51, 0
2, 190521, Note_on_c, 0, 53, 57
2, 190699, Note_on_c, 0, 53, 0
2, 190721, Note_on_c, 0, 55, 54
2, 190748, Note_on_c, 0, 59, 0
2, 190858, Note_on_c, 0, 55, 0
2, 190865, Note_on_c, 0, 56, 73
2, 190875, Control_c, 0, 67, 10
2, 190889, Control_c, 0, 67, 13
2, 190920, Control_c, 0, 67, 12
2, 190936, Control_c, 0, 67, 12
2, 190951, Control_c, 0, 67, 13
2, 190951, Note_on_c, 0, 56, 0
2, 190965, Control_c, 0, 67, 14
2, 191012, Control_c, 0, 67, 13
2, 191027, Control_c, 0, 67, 13
2, 191057, Control_c, 0, 67, 14
2, 191064, Note_on_c, 0, 58, 75
2, 191068, Note_on_c, 0, 50, 0
2, 191072, Control_c, 0, 67, 14
2, 191075, Note_on_c, 0, 51, 52
2, 191087, Control_c, 0, 67, 16
2, 191102, Control_c, 0, 67, 20
2, 191117, Control_c, 0, 67, 23
2, 191133, Control_c, 0, 67, 26
2, 191136, Note_on_c, 0, 51, 0
2, 191148, Control_c, 0, 67, 28
2, 191163, Control_c, 0, 67, 30
2, 191179, Control_c, 0, 67, 32
2, 191194, Control_c, 0, 67, 33
2, 191209, Control_c, 0, 67, 35
2, 191224, Control_c, 0, 67, 37
2, 191239, Control_c, 0, 67, 39
2, 191255, Control_c, 0, 67, 42
2, 191270, Control_c, 0, 67, 44
2, 191285, Control_c, 0, 67, 46
2, 191300, Control_c, 0, 67, 47
2, 191315, Control_c, 0, 67, 49
2, 191331, Control_c, 0, 67, 50
2, 191346, Control_c, 0, 67, 51
2, 191361, Control_c, 0, 67, 53
2, 191376, Control_c, 0, 67, 55
2, 191385, Note_on_c, 0, 80, 0
2, 191389, Note_on_c, 0, 79, 50
2, 191391, Control_c, 0, 67, 58
2, 191406, Control_c, 0, 67, 63
2, 191415, Note_on_c, 0, 50, 47
2, 191429, Control_c, 0, 67, 67
2, 191444, Control_c, 0, 67, 72
2, 191460, Control_c, 0, 67, 76
2, 191475, Control_c, 0, 67, 80
2, 191491, Control_c, 0, 67, 85
2, 191497, Note_on_c, 0, 50, 0
2, 191505, Control_c, 0, 67, 88
2, 191510, Note_on_c, 0, 79, 0
2, 191520, Control_c, 0, 67, 89
2, 191536, Control_c, 0, 67, 90
2, 191551, Control_c, 0, 67, 91
2, 191580, Note_on_c, 0, 77, 58
2, 191641, Control_c, 0, 67, 91
2, 191659, Control_c, 0, 67, 92
2, 191677, Note_on_c, 0, 77, 0
2, 191688, Control_c, 0, 67, 92
2, 191704, Control_c, 0, 67, 94
2, 191719, Control_c, 0, 67, 96
2, 191734, Control_c, 0, 67, 98
2, 191749, Control_c, 0, 67, 99
2, 191754, Note_on_c, 0, 79, 55
2, 191764, Control_c, 0, 67, 100
2, 191780, Control_c, 0, 67, 101
2, 191782, Note_on_c, 0, 52, 34
2, 191809, Control_c, 0, 67, 101
2, 191825, Control_c, 0, 67, 102
2, 191856, Control_c, 0, 67, 103
2, 191884, Control_c, 0, 67, 103
2, 191929, Note_on_c, 0, 55, 47
2, 191959, Note_on_c, 0, 52, 0
2, 192037, Control_c, 0, 67, 104
2, 192053, Control_c, 0, 67, 104
2, 192113, Control_c, 0, 67, 105
2, 192123, Note_on_c, 0, 53, 43
2, 192128, Control_c, 0, 67, 108
2, 192128, Note_on_c, 0, 48, 38
2, 192129, Note_on_c, 0, 55, 0
2, 192143, Control_c, 0, 67, 111
2, 192158, Control_c, 0, 67, 113
2, 192174, Control_c, 0, 67, 114
2, 192196, Control_c, 0, 67, 116
2, 192212, Control_c, 0, 67, 118
2, 192227, Control_c, 0, 67, 119
2, 192242, Control_c, 0, 67, 119
2, 192272, Control_c, 0, 67, 120
2, 192304, Note_on_c, 0, 53, 0
2, 192325, Note_on_c, 0, 52, 38
2, 192532, Control_c, 0, 67, 119
2, 192548, Note_on_c, 0, 56, 42
2, 192552, Note_on_c, 0, 53, 35
2, 192562, Note_on_c, 0, 58, 0
2, 192582, Note_on_c, 0, 52, 0
2, 192639, Note_on_c, 0, 48, 0
2, 192720, Note_on_c, 0, 72, 59
2, 192758, Note_on_c, 0, 53, 0
2, 192759, Control_c, 0, 67, 119
2, 192775, Control_c, 0, 67, 118
2, 192790, Control_c, 0, 67, 118
2, 192805, Control_c, 0, 67, 117
2, 192835, Control_c, 0, 67, 117
2, 192851, Control_c, 0, 67, 116
2, 192866, Control_c, 0, 67, 116
2, 192881, Control_c, 0, 67, 115
2, 192897, Control_c, 0, 67, 114
2, 192898, Note_on_c, 0, 74, 73
2, 192906, Note_on_c, 0, 53, 46
2, 192921, Note_on_c, 0, 79, 0
2, 192942, Control_c, 0, 67, 114
2, 192964, Control_c, 0, 67, 113
2, 192964, Note_on_c, 0, 72, 0
2, 192980, Control_c, 0, 67, 111
2, 192994, Control_c, 0, 67, 109
2, 193009, Control_c, 0, 67, 107
2, 193025, Control_c, 0, 67, 106
2, 193029, Note_on_c, 0, 53, 0
2, 193040, Control_c, 0, 67, 102
2, 193056, Control_c, 0, 67, 97
2, 193063, Note_on_c, 0, 75, 79
2, 193068, Note_on_c, 0, 74, 0
2, 193071, Control_c, 0, 67, 94
2, 193072, Note_on_c, 0, 51, 45
2, 193086, Control_c, 0, 67, 91
2, 193100, Note_on_c, 0, 56, 0
2, 193102, Control_c, 0, 67, 89
2, 193116, Control_c, 0, 67, 85
2, 193132, Control_c, 0, 67, 77
2, 193147, Control_c, 0, 67, 68
2, 193162, Control_c, 0, 67, 62
2, 193178, Control_c, 0, 67, 59
2, 193207, Control_c, 0, 67, 58
2, 193211, Note_on_c, 0, 51, 0
2, 193223, Control_c, 0, 67, 58
2, 193234, Note_on_c, 0, 75, 0
2, 193238, Control_c, 0, 67, 56
2, 193238, Note_on_c, 0, 77, 76
2, 193253, Control_c, 0, 67, 53
2, 193264, Note_on_c, 0, 50, 37
2, 193268, Control_c, 0, 67, 51
2, 193283, Control_c, 0, 67, 50
2, 193300, Control_c, 0, 67, 47
2, 193315, Control_c, 0, 67, 43
2, 193331, Control_c, 0, 67, 36
2, 193345, Control_c, 0, 67, 28
2, 193360, Control_c, 0, 67, 18
2, 193376, Control_c, 0, 67, 8
2, 193391, Control_c, 0, 67, 0
2, 193404, Note_on_c, 0, 71, 79
2, 193447, Note_on_c, 0, 50, 0
2, 193561, Note_on_c, 0, 71, 0
2, 193562, Note_on_c, 0, 72, 80
2, 193573, Note_on_c, 0, 50, 51
2, 193665, Note_on_c, 0, 50, 0
2, 193705, Note_on_c, 0, 72, 0
2, 193715, Note_on_c, 0, 74, 76
2, 193741, Note_on_c, 0, 48, 50
2, 193838, Note_on_c, 0, 48, 0
2, 193856, Note_on_c, 0, 74, 0
2, 193903, Note_on_c, 0, 67, 69
2, 193909, Note_on_c, 0, 47, 45
2, 194074, Note_on_c, 0, 43, 41
2, 194093, Note_on_c, 0, 47, 0
2, 194229, Note_on_c, 0, 75, 74
2, 194233, Note_on_c, 0, 45, 53
2, 194234, Note_on_c, 0, 43, 0
2, 194295, Control_c, 0, 67, 8
2, 194309, Control_c, 0, 67, 10
2, 194313, Note_on_c, 0, 77, 0
2, 194324, Control_c, 0, 67, 12
2, 194340, Control_c, 0, 67, 14
2, 194355, Control_c, 0, 67, 16
2, 194368, Note_on_c, 0, 45, 0
2, 194369, Note_on_c, 0, 75, 0
2, 194371, Control_c, 0, 67, 18
2, 194379, Note_on_c, 0, 74, 81
2, 194386, Control_c, 0, 67, 19
2, 194387, Note_on_c, 0, 47, 53
2, 194401, Control_c, 0, 67, 22
2, 194416, Control_c, 0, 67, 24
2, 194431, Control_c, 0, 67, 27
2, 194446, Control_c, 0, 67, 30
2, 194462, Control_c, 0, 67, 33
2, 194474, Note_on_c, 0, 47, 0
2, 194477, Control_c, 0, 67, 37
2, 194500, Control_c, 0, 67, 42
2, 194515, Control_c, 0, 67, 47
2, 194529, Control_c, 0, 67, 52
2, 194545, Control_c, 0, 67, 58
2, 194558, Note_on_c, 0, 74, 0
2, 194560, Control_c, 0, 67, 65
2, 194571, Note_on_c, 0, 75, 76
2, 194576, Control_c, 0, 67, 71
2, 194581, Note_on_c, 0, 48, 45
2, 194591, Control_c, 0, 67, 78
2, 194605, Control_c, 0, 67, 87
2, 194621, Control_c, 0, 67, 95
2, 194636, Control_c, 0, 67, 102
2, 194652, Control_c, 0, 67, 110
2, 194667, Control_c, 0, 67, 118
2, 194682, Control_c, 0, 67, 126
2, 194698, Control_c, 0, 67, 127
2, 194723, Note_on_c, 0, 44, 52
2, 194761, Note_on_c, 0, 48, 0
2, 194890, Note_on_c, 0, 67, 0
2, 194895, Note_on_c, 0, 66, 63
2, 194917, Note_on_c, 0, 46, 50
2, 194928, Note_on_c, 0, 44, 0
2, 195009, Note_on_c, 0, 46, 0
2, 195046, Note_on_c, 0, 48, 50
2, 195129, Note_on_c, 0, 48, 0
2, 195220, Note_on_c, 0, 66, 0
2, 195226, Note_on_c, 0, 65, 58
2, 195243, Note_on_c, 0, 49, 45
2, 195401, Note_on_c, 0, 68, 62
2, 195436, Note_on_c, 0, 49, 0
2, 195526, Control_c, 0, 67, 124
2, 195538, Note_on_c, 0, 68, 0
2, 195541, Control_c, 0, 67, 116
2, 195556, Control_c, 0, 67, 107
2, 195572, Control_c, 0, 67, 94
2, 195573, Note_on_c, 0, 70, 72
2, 195581, Note_on_c, 0, 49, 53
2, 195587, Control_c, 0, 67, 79
2, 195588, Note_on_c, 0, 75, 0
2, 195602, Control_c, 0, 67, 66
2, 195618, Control_c, 0, 67, 55
2, 195633, Control_c, 0, 67, 43
2, 195647, Control_c, 0, 67, 31
2, 195663, Control_c, 0, 67, 19
2, 195678, Control_c, 0, 67, 0
2, 195695, Note_on_c, 0, 49, 0
2, 195735, Note_on_c, 0, 72, 76
2, 195740, Note_on_c, 0, 48, 55
2, 195761, Note_on_c, 0, 70, 0
2, 195908, Control_c, 0, 67, 10
2, 195914, Note_on_c, 0, 73, 64
2, 195920, Note_on_c, 0, 48, 0
2, 195923, Control_c, 0, 67, 16
2, 195924, Note_on_c, 0, 46, 48
2, 195933, Note_on_c, 0, 65, 0
2, 195939, Control_c, 0, 67, 23
2, 195942, Note_on_c, 0, 72, 0
2, 195953, Control_c, 0, 67, 34
2, 195968, Control_c, 0, 67, 41
2, 195984, Control_c, 0, 67, 43
2, 195999, Control_c, 0, 67, 43
2, 196014, Control_c, 0, 67, 44
2, 196052, Control_c, 0, 67, 44
2, 196067, Control_c, 0, 67, 45
2, 196082, Control_c, 0, 67, 47
2, 196095, Note_on_c, 0, 67, 58
2, 196098, Control_c, 0, 67, 48
2, 196101, Note_on_c, 0, 46, 0
2, 196113, Control_c, 0, 67, 49
2, 196128, Control_c, 0, 67, 50
2, 196143, Control_c, 0, 67, 51
2, 196158, Control_c, 0, 67, 53
2, 196174, Control_c, 0, 67, 56
2, 196189, Control_c, 0, 67, 59
2, 196204, Control_c, 0, 67, 63
2, 196219, Control_c, 0, 67, 68
2, 196234, Control_c, 0, 67, 74
2, 196249, Control_c, 0, 67, 83
2, 196249, Note_on_c, 0, 46, 37
2, 196260, Note_on_c, 0, 68, 58
2, 196262, Note_on_c, 0, 67, 0
2, 196265, Control_c, 0, 67, 94
2, 196280, Control_c, 0, 67, 102
2, 196295, Control_c, 0, 67, 108
2, 196310, Control_c, 0, 67, 114
2, 196325, Control_c, 0, 67, 118
2, 196340, Control_c, 0, 67, 121
2, 196355, Control_c, 0, 67, 122
2, 196364, Note_on_c, 0, 68, 0
2, 196370, Control_c, 0, 67, 122
2, 196386, Control_c, 0, 67, 123
2, 196406, Note_on_c, 0, 46, 0
2, 196414, Note_on_c, 0, 70, 54
2, 196416, Control_c, 0, 67, 123
2, 196425, Note_on_c, 0, 44, 36
2, 196516, Note_on_c, 0, 44, 0
2, 196538, Control_c, 0, 67, 123
2, 196553, Control_c, 0, 67, 122
2, 196568, Control_c, 0, 67, 122
2, 196584, Control_c, 0, 67, 121
2, 196590, Note_on_c, 0, 63, 52
2, 196597, Note_on_c, 0, 43, 41
2, 196599, Control_c, 0, 67, 120
2, 196605, Note_on_c, 0, 70, 0
2, 196615, Control_c, 0, 67, 119
2, 196630, Control_c, 0, 67, 117
2, 196645, Control_c, 0, 67, 117
2, 196649, Note_on_c, 0, 73, 0
2, 196675, Control_c, 0, 67, 116
2, 196737, Control_c, 0, 67, 117
2, 196745, Note_on_c, 0, 43, 0
2, 196756, Note_on_c, 0, 39, 34
2, 196820, Control_c, 0, 67, 117
2, 196923, Note_on_c, 0, 39, 0
2, 196927, Note_on_c, 0, 72, 51
2, 196940, Note_on_c, 0, 41, 43
2, 196987, Control_c, 0, 67, 117
2, 197002, Control_c, 0, 67, 116
2, 197056, Note_on_c, 0, 41, 0
2, 197078, Control_c, 0, 67, 116
2, 197090, Note_on_c, 0, 72, 0
2, 197098, Note_on_c, 0, 70, 57
2, 197106, Note_on_c, 0, 43, 42
2, 197177, Note_on_c, 0, 43, 0
2, 197219, Note_on_c, 0, 70, 0
2, 197243, Note_on_c, 0, 72, 56
2, 197262, Note_on_c, 0, 44, 38
2, 197366, Control_c, 0, 67, 115
2, 197376, Note_on_c, 0, 44, 0
2, 197385, Note_on_c, 0, 63, 0
2, 197413, Control_c, 0, 67, 115
2, 197418, Note_on_c, 0, 66, 59
2, 197426, Note_on_c, 0, 41, 44
2, 197474, Control_c, 0, 67, 114
2, 197488, Control_c, 0, 67, 114
2, 197519, Control_c, 0, 67, 113
2, 197535, Control_c, 0, 67, 113
2, 197550, Control_c, 0, 67, 112
2, 197573, Control_c, 0, 67, 111
2, 197588, Control_c, 0, 67, 111
2, 197593, Note_on_c, 0, 41, 0
2, 197594, Note_on_c, 0, 43, 44
2, 197599, Note_on_c, 0, 65, 57
2, 197603, Control_c, 0, 67, 110
2, 197617, Note_on_c, 0, 66, 0
2, 197619, Control_c, 0, 67, 108
2, 197633, Control_c, 0, 67, 105
2, 197648, Control_c, 0, 67, 102
2, 197664, Control_c, 0, 67, 98
2, 197679, Control_c, 0, 67, 91
2, 197695, Control_c, 0, 67, 82
2, 197709, Control_c, 0, 67, 73
2, 197724, Control_c, 0, 67, 62
2, 197740, Control_c, 0, 67, 55
2, 197755, Control_c, 0, 67, 49
2, 197758, Note_on_c, 0, 43, 0
2, 197758, Note_on_c, 0, 65, 0
2, 197761, Note_on_c, 0, 63, 62
2, 197765, Note_on_c, 0, 45, 53
2, 197770, Control_c, 0, 67, 44
2, 197785, Control_c, 0, 67, 38
2, 197800, Control_c, 0, 67, 31
2, 197816, Control_c, 0, 67, 23
2, 197831, Control_c, 0, 67, 14
2, 197846, Control_c, 0, 67, 9
2, 197862, Control_c, 0, 67, 0
2, 197893, Note_on_c, 0, 45, 0
2, 197937, Note_on_c, 0, 46, 47
2, 197944, Note_on_c, 0, 61, 63
2, 197944, Note_on_c, 0, 63, 0
2, 198086, Note_on_c, 0, 46, 0
2, 198096, Note_on_c, 0, 45, 43
2, 198268, Note_on_c, 0, 65, 66
2, 198274, Note_on_c, 0, 45, 0
2, 198274, Note_on_c, 0, 46, 40
2, 198312, Note_on_c, 0, 72, 0
2, 198421, Note_on_c, 0, 46, 0
2, 198448, Note_on_c, 0, 48, 50
2, 198586, Note_on_c, 0, 48, 0
2, 198617, Note_on_c, 0, 49, 46
2, 198617, Note_on_c, 0, 70, 70
2, 198659, Note_on_c, 0, 65, 0
2, 198777, Note_on_c, 0, 46, 60
2, 198842, Note_on_c, 0, 49, 0
2, 198944, Note_on_c, 0, 68, 75
2, 198946, Note_on_c, 0, 48, 58
2, 198963, Note_on_c, 0, 46, 0
2, 198982, Note_on_c, 0, 70, 0
2, 199054, Note_on_c, 0, 48, 0
2, 199089, Note_on_c, 0, 49, 62
2, 199218, Note_on_c, 0, 49, 0
2, 199280, Note_on_c, 0, 67, 68
2, 199286, Note_on_c, 0, 51, 52
2, 199286, Note_on_c, 0, 61, 0
2, 199320, Note_on_c, 0, 68, 0
2, 199438, Note_on_c, 0, 58, 66
2, 199463, Note_on_c, 0, 51, 0
2, 199603, Note_on_c, 0, 60, 73
2, 199615, Note_on_c, 0, 51, 52
2, 199617, Note_on_c, 0, 58, 0
2, 199745, Note_on_c, 0, 51, 0
2, 199759, Note_on_c, 0, 61, 75
2, 199760, Note_on_c, 0, 49, 54
2, 199772, Note_on_c, 0, 60, 0
2, 199848, Note_on_c, 0, 67, 0
2, 199912, Note_on_c, 0, 61, 0
2, 199943, Note_on_c, 0, 48, 59
2, 199943, Note_on_c, 0, 49, 0
2, 199943, Note_on_c, 0, 63, 79
2, 200100, Note_on_c, 0, 67, 74
2, 200160, Note_on_c, 0, 48, 0
2, 200273, Note_on_c, 0, 68, 83
2, 200289, Note_on_c, 0, 48, 68
2, 200368, Note_on_c, 0, 67, 0
2, 200418, Note_on_c, 0, 48, 0
2, 200434, Note_on_c, 0, 70, 81
2, 200441, Note_on_c, 0, 68, 0
2, 200445, Note_on_c, 0, 46, 60
2, 200506, Note_on_c, 0, 63, 0
2, 200573, Note_on_c, 0, 46, 0
2, 200616, Note_on_c, 0, 44, 58
2, 200618, Note_on_c, 0, 72, 73
2, 200649, Note_on_c, 0, 70, 0
2, 200809, Note_on_c, 0, 63, 70
2, 200850, Note_on_c, 0, 44, 0
2, 200974, Note_on_c, 0, 63, 0
2, 200974, Note_on_c, 0, 65, 75
2, 200977, Note_on_c, 0, 56, 63
2, 201085, Note_on_c, 0, 56, 0
2, 201139, Note_on_c, 0, 55, 68
2, 201143, Note_on_c, 0, 67, 76
2, 201153, Note_on_c, 0, 65, 0
2, 201173, Note_on_c, 0, 72, 0
2, 201252, Note_on_c, 0, 67, 0
2, 201296, Note_on_c, 0, 55, 0
2, 201304, Note_on_c, 0, 53, 73
2, 201310, Note_on_c, 0, 68, 72
2, 201479, Note_on_c, 0, 72, 79
2, 201540, Note_on_c, 0, 53, 0
2, 201666, Note_on_c, 0, 53, 72
2, 201667, Note_on_c, 0, 74, 77
2, 201693, Note_on_c, 0, 72, 0
2, 201810, Note_on_c, 0, 53, 0
2, 201821, Note_on_c, 0, 51, 73
2, 201824, Note_on_c, 0, 75, 78
2, 201940, Note_on_c, 0, 51, 0
2, 201961, Note_on_c, 0, 74, 0
2, 201995, Note_on_c, 0, 77, 77
2, 202007, Note_on_c, 0, 50, 63
2, 202031, Note_on_c, 0, 75, 0
2, 202094, Note_on_c, 0, 68, 0
2, 202184, Note_on_c, 0, 72, 65
2, 202350, Note_on_c, 0, 72, 0
2, 202362, Note_on_c, 0, 70, 60
2, 202483, Note_on_c, 0, 70, 0
2, 202524, Note_on_c, 0, 50, 0
2, 202526, Note_on_c, 0, 68, 60
2, 202726, Note_on_c, 0, 68, 0
2, 202739, Note_on_c, 0, 67, 64
2, 202755, Note_on_c, 0, 58, 79
2, 202763, Note_on_c, 0, 51, 56
2, 202867, Note_on_c, 0, 51, 0
2, 202917, Note_on_c, 0, 70, 52
2, 203096, Note_on_c, 0, 70, 0
2, 203107, Note_on_c, 0, 67, 0
2, 203118, Note_on_c, 0, 75, 56
2, 203128, Note_on_c, 0, 55, 51
2, 203208, Note_on_c, 0, 77, 0
2, 203210, Note_on_c, 0, 55, 0
2, 203270, Note_on_c, 0, 67, 59
2, 203297, Note_on_c, 0, 75, 0
2, 203368, Note_on_c, 0, 67, 0
2, 203445, Note_on_c, 0, 65, 63
2, 203446, Note_on_c, 0, 60, 77
2, 203454, Note_on_c, 0, 56, 56
2, 203487, Note_on_c, 0, 58, 0
2, 203534, Note_on_c, 0, 56, 0
2, 203584, Note_on_c, 0, 65, 0
2, 203637, Note_on_c, 0, 75, 58
2, 203828, Note_on_c, 0, 74, 60
2, 203836, Note_on_c, 0, 53, 52
2, 203859, Note_on_c, 0, 75, 0
2, 203925, Note_on_c, 0, 53, 0
2, 203992, Note_on_c, 0, 72, 62
2, 203993, Note_on_c, 0, 74, 0
2, 204175, Note_on_c, 0, 58, 67
2, 204176, Note_on_c, 0, 74, 58
2, 204182, Note_on_c, 0, 72, 0
2, 204214, Note_on_c, 0, 60, 0
2, 204343, Note_on_c, 0, 75, 58
2, 204352, Note_on_c, 0, 74, 0
2, 204517, Note_on_c, 0, 75, 0
2, 204530, Note_on_c, 0, 46, 50
2, 204532, Note_on_c, 0, 72, 55
2, 204626, Note_on_c, 0, 46, 0
2, 204684, Note_on_c, 0, 74, 55
2, 204698, Note_on_c, 0, 72, 0
2, 204879, Note_on_c, 0, 57, 60
2, 204884, Note_on_c, 0, 75, 53
2, 204898, Note_on_c, 0, 48, 47
2, 204911, Note_on_c, 0, 74, 0
2, 204928, Note_on_c, 0, 58, 0
2, 204989, Note_on_c, 0, 48, 0
2, 205030, Note_on_c, 0, 75, 0
2, 205046, Note_on_c, 0, 72, 53
2, 205215, Note_on_c, 0, 60, 48
2, 205216, Note_on_c, 0, 74, 61
2, 205300, Note_on_c, 0, 72, 0
2, 205360, Note_on_c, 0, 74, 0
2, 205379, Note_on_c, 0, 75, 68
2, 205381, Note_on_c, 0, 58, 59
2, 205392, Note_on_c, 0, 57, 0
2, 205405, Note_on_c, 0, 60, 0
2, 205556, Note_on_c, 0, 77, 73
2, 205558, Note_on_c, 0, 58, 0
2, 205566, Note_on_c, 0, 56, 56
2, 205567, Note_on_c, 0, 62, 75
2, 205585, Note_on_c, 0, 75, 0
2, 205722, Note_on_c, 0, 56, 0
2, 205747, Note_on_c, 0, 75, 59
2, 205814, Note_on_c, 0, 77, 0
2, 205906, Note_on_c, 0, 74, 59
2, 205937, Note_on_c, 0, 58, 49
2, 205966, Note_on_c, 0, 75, 0
2, 206043, Note_on_c, 0, 74, 0
2, 206045, Note_on_c, 0, 58, 0
2, 206075, Note_on_c, 0, 56, 53
2, 206075, Note_on_c, 0, 72, 62
2, 206146, Note_on_c, 0, 62, 0
2, 206213, Note_on_c, 0, 72, 0
2, 206237, Note_on_c, 0, 56, 0
2, 206252, Note_on_c, 0, 70, 68
2, 206260, Note_on_c, 0, 55, 47
2, 206263, Control_c, 0, 64, 44
2, 206266, Note_on_c, 0, 63, 66
2, 206278, Control_c, 0, 64, 62
2, 206294, Control_c, 0, 64, 65
2, 206309, Control_c, 0, 64, 68
2, 206323, Control_c, 0, 64, 72
2, 206339, Control_c, 0, 64, 77
2, 206354, Control_c, 0, 64, 82
2, 206369, Control_c, 0, 64, 84
2, 206384, Control_c, 0, 64, 85
2, 206384, Note_on_c, 0, 63, 0
2, 206400, Control_c, 0, 64, 86
2, 206407, Note_on_c, 0, 55, 0
2, 206416, Control_c, 0, 64, 88
2, 206425, Note_on_c, 0, 60, 63
2, 206431, Control_c, 0, 64, 88
2, 206599, Note_on_c, 0, 62, 74
2, 206617, Note_on_c, 0, 46, 42
2, 206628, Control_c, 0, 64, 88
2, 206641, Control_c, 0, 64, 87
2, 206656, Control_c, 0, 64, 85
2, 206672, Control_c, 0, 64, 82
2, 206683, Note_on_c, 0, 70, 0
2, 206686, Control_c, 0, 64, 77
2, 206702, Control_c, 0, 64, 71
2, 206713, Note_on_c, 0, 60, 0
2, 206717, Control_c, 0, 64, 61
2, 206732, Control_c, 0, 64, 0
2, 206756, Note_on_c, 0, 48, 54
2, 206762, Note_on_c, 0, 63, 78
2, 206770, Note_on_c, 0, 46, 0
2, 206821, Note_on_c, 0, 62, 0
2, 206933, Note_on_c, 0, 48, 0
2, 206959, Note_on_c, 0, 56, 59
2, 206961, Note_on_c, 0, 65, 73
2, 206967, Note_on_c, 0, 50, 47
2, 206995, Note_on_c, 0, 63, 0
2, 207122, Note_on_c, 0, 63, 74
2, 207154, Note_on_c, 0, 65, 0
2, 207297, Note_on_c, 0, 50, 0
2, 207304, Note_on_c, 0, 62, 69
2, 207313, Note_on_c, 0, 48, 43
2, 207328, Note_on_c, 0, 63, 0
2, 207454, Note_on_c, 0, 62, 0
2, 207464, Note_on_c, 0, 50, 45
2, 207464, Note_on_c, 0, 60, 66
2, 207485, Note_on_c, 0, 48, 0
2, 207560, Note_on_c, 0, 56, 0
2, 207631, Note_on_c, 0, 50, 0
2, 207655, Note_on_c, 0, 58, 59
2, 207656, Note_on_c, 0, 60, 0
2, 207663, Note_on_c, 0, 55, 50
2, 207669, Note_on_c, 0, 51, 40
2, 207829, Note_on_c, 0, 68, 62
2, 207871, Note_on_c, 0, 51, 0
2, 207966, Note_on_c, 0, 68, 0
2, 207994, Note_on_c, 0, 67, 60
2, 207995, Note_on_c, 0, 51, 48
2, 208150, Note_on_c, 0, 51, 0
2, 208164, Note_on_c, 0, 65, 58
2, 208175, Note_on_c, 0, 50, 47
2, 208358, Note_on_c, 0, 67, 0
2, 208368, Note_on_c, 0, 65, 0
2, 208370, Note_on_c, 0, 48, 37
2, 208373, Note_on_c, 0, 63, 51
2, 208383, Note_on_c, 0, 55, 0
2, 208385, Note_on_c, 0, 54, 49
2, 208405, Note_on_c, 0, 50, 0
2, 208431, Note_on_c, 0, 58, 0
2, 208496, Note_on_c, 0, 48, 0
2, 208751, Note_on_c, 0, 57, 46
2, 208762, Note_on_c, 0, 48, 32
2, 208878, Note_on_c, 0, 57, 0
2, 208909, Note_on_c, 0, 58, 46
2, 208923, Note_on_c, 0, 48, 0
2, 208932, Note_on_c, 0, 46, 30
2, 209094, Note_on_c, 0, 58, 0
2, 209102, Note_on_c, 0, 60, 52
2, 209104, Note_on_c, 0, 46, 0
2, 209109, Note_on_c, 0, 53, 45
2, 209113, Note_on_c, 0, 63, 0
2, 209140, Note_on_c, 0, 45, 41
2, 209159, Note_on_c, 0, 54, 0
2, 209281, Note_on_c, 0, 63, 60
2, 209392, Note_on_c, 0, 60, 0
2, 209447, Note_on_c, 0, 63, 0
2, 209453, Note_on_c, 0, 65, 66
2, 209606, Note_on_c, 0, 63, 70
2, 209620, Note_on_c, 0, 65, 0
2, 209792, Note_on_c, 0, 63, 0
2, 209795, Note_on_c, 0, 62, 70
2, 209814, Note_on_c, 0, 46, 40
2, 209841, Note_on_c, 0, 45, 0
2, 209973, Note_on_c, 0, 62, 0
2, 209982, Note_on_c, 0, 72, 65
2, 210175, Note_on_c, 0, 70, 53
2, 210198, Note_on_c, 0, 72, 0
2, 210330, Note_on_c, 0, 70, 0
2, 210332, Note_on_c, 0, 68, 52
2, 210528, Note_on_c, 0, 68, 0
2, 210556, Note_on_c, 0, 67, 48
2, 210576, Note_on_c, 0, 51, 27
2, 210590, Note_on_c, 0, 46, 0
2, 210637, Note_on_c, 0, 53, 0
2, 210740, Note_on_c, 0, 67, 0
2, 210815, Note_on_c, 0, 51, 0
2, 210979, Note_on_c, 0, 70, 48
2, 210994, Note_on_c, 0, 63, 36
2, 211047, Note_on_c, 0, 63, 0
2, 211151, Note_on_c, 0, 65, 47
2, 211212, Note_on_c, 0, 65, 0
2, 211341, Note_on_c, 0, 75, 50
2, 211359, Note_on_c, 0, 67, 37
2, 211415, Note_on_c, 0, 70, 0
2, 211504, Note_on_c, 0, 67, 0
2, 211701, Note_on_c, 0, 67, 45
2, 211723, Note_on_c, 0, 51, 39
2, 211823, Note_on_c, 0, 51, 0
2, 211852, Note_on_c, 0, 67, 0
2, 211866, Note_on_c, 0, 68, 57
2, 211886, Note_on_c, 0, 53, 42
2, 211975, Note_on_c, 0, 53, 0
2, 211988, Note_on_c, 0, 68, 0
2, 212007, Note_on_c, 0, 75, 0
2, 212019, Note_on_c, 0, 70, 63
2, 212052, Note_on_c, 0, 55, 53
2, 212148, Note_on_c, 0, 55, 0
2, 212219, Note_on_c, 0, 79, 73
2, 212387, Note_on_c, 0, 55, 48
2, 212391, Note_on_c, 0, 77, 76
2, 212403, Note_on_c, 0, 79, 0
2, 212406, Note_on_c, 0, 58, 44
2, 212518, Note_on_c, 0, 55, 0
2, 212535, Note_on_c, 0, 75, 80
2, 212552, Note_on_c, 0, 58, 0
2, 212556, Note_on_c, 0, 60, 60
2, 212566, Note_on_c, 0, 56, 48
2, 212576, Note_on_c, 0, 77, 0
2, 212602, Note_on_c, 0, 70, 0
2, 212635, Note_on_c, 0, 60, 0
2, 212659, Note_on_c, 0, 56, 0
2, 212714, Note_on_c, 0, 74, 73
2, 212724, Note_on_c, 0, 58, 30
2, 212732, Note_on_c, 0, 62, 60
2, 212743, Note_on_c, 0, 75, 0
2, 212767, Note_on_c, 0, 58, 0
2, 212793, Note_on_c, 0, 62, 0
2, 212899, Note_on_c, 0, 68, 55
2, 212901, Note_on_c, 0, 60, 36
2, 212939, Note_on_c, 0, 60, 0
2, 213042, Note_on_c, 0, 74, 0
2, 213060, Note_on_c, 0, 46, 51
2, 213067, Note_on_c, 0, 68, 0
2, 213078, Note_on_c, 0, 58, 44
2, 213087, Note_on_c, 0, 67, 54
2, 213153, Note_on_c, 0, 46, 0
2, 213173, Note_on_c, 0, 58, 0
2, 213233, Note_on_c, 0, 65, 59
2, 213234, Note_on_c, 0, 56, 45
2, 213270, Note_on_c, 0, 67, 0
2, 213297, Note_on_c, 0, 56, 0
2, 213406, Note_on_c, 0, 55, 38
2, 213413, Note_on_c, 0, 63, 55
2, 213416, Note_on_c, 0, 48, 30
2, 213428, Note_on_c, 0, 65, 0
2, 213575, Note_on_c, 0, 62, 58
2, 213609, Note_on_c, 0, 63, 0
2, 213623, Note_on_c, 0, 48, 0
2, 213643, Note_on_c, 0, 55, 0
2, 213740, Note_on_c, 0, 62, 0
2, 213750, Note_on_c, 0, 67, 57
2, 213773, Note_on_c, 0, 60, 37
2, 213816, Note_on_c, 0, 60, 0
2, 213924, Note_on_c, 0, 62, 47
2, 213956, Note_on_c, 0, 67, 0
2, 214067, Note_on_c, 0, 62, 0
2, 214122, Note_on_c, 0, 72, 53
2, 214125, Note_on_c, 0, 63, 41
2, 214217, Note_on_c, 0, 63, 0
2, 214478, Note_on_c, 0, 48, 38
2, 214489, Note_on_c, 0, 63, 35
2, 214593, Note_on_c, 0, 63, 0
2, 214598, Note_on_c, 0, 48, 0
2, 214631, Note_on_c, 0, 65, 45
2, 214648, Note_on_c, 0, 50, 34
2, 214782, Note_on_c, 0, 65, 0
2, 214804, Note_on_c, 0, 67, 53
2, 214807, Note_on_c, 0, 50, 0
2, 214811, Note_on_c, 0, 72, 0
2, 214820, Note_on_c, 0, 51, 42
2, 214943, Note_on_c, 0, 51, 0
2, 214980, Note_on_c, 0, 75, 55
2, 215131, Note_on_c, 0, 75, 0
2, 215156, Note_on_c, 0, 74, 51
2, 215164, Note_on_c, 0, 51, 30
2, 215166, Note_on_c, 0, 55, 40
2, 215248, Note_on_c, 0, 51, 0
2, 215321, Note_on_c, 0, 74, 0
2, 215327, Note_on_c, 0, 72, 59
2, 215336, Note_on_c, 0, 55, 0
2, 215355, Note_on_c, 0, 53, 38
2, 215357, Note_on_c, 0, 56, 48
2, 215376, Note_on_c, 0, 67, 0
2, 215412, Note_on_c, 0, 56, 0
2, 215461, Note_on_c, 0, 53, 0
2, 215495, Note_on_c, 0, 72, 0
2, 215498, Note_on_c, 0, 70, 68
2, 215507, Note_on_c, 0, 55, 42
2, 215520, Note_on_c, 0, 58, 55
2, 215583, Note_on_c, 0, 58, 0
2, 215618, Note_on_c, 0, 55, 0
2, 215662, Note_on_c, 0, 56, 70
2, 215782, Note_on_c, 0, 56, 0
2, 215841, Note_on_c, 0, 55, 60
2, 215859, Note_on_c, 0, 43, 38
2, 215978, Note_on_c, 0, 55, 0
2, 216009, Note_on_c, 0, 53, 61
2, 216021, Note_on_c, 0, 43, 0
2, 216203, Note_on_c, 0, 60, 57
2, 216217, Note_on_c, 0, 53, 0
2, 216229, Note_on_c, 0, 44, 33
2, 216241, Note_on_c, 0, 51, 38
2, 216344, Note_on_c, 0, 70, 0
2, 216374, Note_on_c, 0, 58, 66
2, 216386, Note_on_c, 0, 44, 0
2, 216389, Note_on_c, 0, 60, 0
2, 216405, Note_on_c, 0, 51, 0
2, 216547, Note_on_c, 0, 58, 0
2, 216559, Note_on_c, 0, 63, 79
2, 216582, Note_on_c, 0, 56, 43
2, 216657, Note_on_c, 0, 56, 0
2, 216657, Note_on_c, 0, 56, 17
2, 216732, Note_on_c, 0, 58, 56
2, 216769, Note_on_c, 0, 56, 0
2, 216920, Note_on_c, 0, 68, 84
2, 216938, Note_on_c, 0, 58, 0
2, 216948, Note_on_c, 0, 60, 55
2, 216968, Note_on_c, 0, 63, 0
2, 217013, Note_on_c, 0, 60, 0
2, 217283, Note_on_c, 0, 60, 54
2, 217299, Note_on_c, 0, 44, 45
2, 217417, Note_on_c, 0, 60, 0
2, 217442, Note_on_c, 0, 62, 65
2, 217453, Note_on_c, 0, 44, 0
2, 217453, Note_on_c, 0, 46, 56
2, 217559, Note_on_c, 0, 46, 0
2, 217600, Note_on_c, 0, 62, 0
2, 217609, Note_on_c, 0, 48, 66
2, 217612, Note_on_c, 0, 63, 63
2, 217614, Note_on_c, 0, 68, 0
2, 217734, Note_on_c, 0, 48, 0
2, 217769, Note_on_c, 0, 72, 75
2, 217934, Note_on_c, 0, 51, 53
2, 217938, Note_on_c, 0, 70, 75
2, 217941, Note_on_c, 0, 48, 56
2, 218008, Note_on_c, 0, 72, 0
2, 218022, Control_c, 0, 64, 53
2, 218038, Control_c, 0, 64, 65
2, 218052, Control_c, 0, 64, 69
2, 218057, Note_on_c, 0, 48, 0
2, 218068, Control_c, 0, 64, 73
2, 218083, Control_c, 0, 64, 77
2, 218093, Note_on_c, 0, 68, 81
2, 218097, Note_on_c, 0, 53, 62
2, 218098, Control_c, 0, 64, 82
2, 218112, Note_on_c, 0, 70, 0
2, 218114, Control_c, 0, 64, 87
2, 218128, Control_c, 0, 64, 89
2, 218128, Note_on_c, 0, 50, 27
2, 218142, Note_on_c, 0, 51, 0
2, 218155, Note_on_c, 0, 68, 0
2, 218169, Note_on_c, 0, 63, 0
2, 218175, Note_on_c, 0, 53, 0
2, 218190, Control_c, 0, 64, 89
2, 218204, Control_c, 0, 64, 87
2, 218219, Control_c, 0, 64, 84
2, 218233, Note_on_c, 0, 50, 0
2, 218235, Control_c, 0, 64, 77
2, 218250, Control_c, 0, 64, 68
2, 218251, Note_on_c, 0, 51, 26
2, 218253, Note_on_c, 0, 67, 74
2, 218264, Control_c, 0, 64, 0
2, 218275, Note_on_c, 0, 63, 66
2, 218282, Note_on_c, 0, 55, 60
2, 218337, Note_on_c, 0, 55, 0
2, 218397, Note_on_c, 0, 51, 0
2, 218437, Note_on_c, 0, 63, 0
2, 218440, Note_on_c, 0, 62, 67
2, 218444, Note_on_c, 0, 53, 57
2, 218490, Note_on_c, 0, 53, 0
2, 218593, Note_on_c, 0, 62, 0
2, 218601, Note_on_c, 0, 60, 68
2, 218617, Note_on_c, 0, 51, 55
2, 218653, Note_on_c, 0, 39, 22
2, 218720, Note_on_c, 0, 51, 0
2, 218736, Note_on_c, 0, 60, 0
2, 218742, Note_on_c, 0, 39, 0
2, 218763, Note_on_c, 0, 50, 56
2, 218764, Note_on_c, 0, 58, 57
2, 218874, Note_on_c, 0, 50, 0
2, 218910, Note_on_c, 0, 58, 0
2, 218916, Note_on_c, 0, 67, 0
2, 218936, Note_on_c, 0, 56, 64
2, 218943, Note_on_c, 0, 48, 50
2, 218959, Note_on_c, 0, 41, 45
2, 219031, Note_on_c, 0, 41, 0
2, 219114, Note_on_c, 0, 65, 70
2, 219237, Note_on_c, 0, 48, 0
2, 219283, Note_on_c, 0, 68, 78
2, 219293, Note_on_c, 0, 47, 45
2, 219303, Note_on_c, 0, 43, 48
2, 219304, Note_on_c, 0, 50, 51
2, 219408, Note_on_c, 0, 56, 0
2, 219410, Note_on_c, 0, 65, 0
2, 219448, Note_on_c, 0, 67, 82
2, 219452, Note_on_c, 0, 50, 0
2, 219456, Note_on_c, 0, 47, 0
2, 219459, Note_on_c, 0, 51, 63
2, 219462, Note_on_c, 0, 43, 0
2, 219481, Note_on_c, 0, 68, 0
2, 219610, Note_on_c, 0, 51, 0
2, 219628, Note_on_c, 0, 65, 82
2, 219630, Note_on_c, 0, 48, 54
2, 219641, Note_on_c, 0, 53, 67
2, 219650, Note_on_c, 0, 44, 55
2, 219670, Note_on_c, 0, 67, 0
2, 219800, Note_on_c, 0, 63, 86
2, 219805, Note_on_c, 0, 48, 0
2, 219821, Note_on_c, 0, 53, 0
2, 219847, Note_on_c, 0, 65, 0
2, 219858, Note_on_c, 0, 44, 0
2, 219983, Note_on_c, 0, 62, 87
2, 219995, Note_on_c, 0, 48, 48
2, 219996, Note_on_c, 0, 45, 53
2, 220001, Note_on_c, 0, 54, 62
2, 220017, Note_on_c, 0, 63, 0
2, 220155, Note_on_c, 0, 60, 81
2, 220184, Note_on_c, 0, 45, 0
2, 220186, Note_on_c, 0, 54, 0
2, 220209, Note_on_c, 0, 62, 0
2, 220237, Note_on_c, 0, 48, 0
2, 220370, Note_on_c, 0, 60, 0
2, 220373, Note_on_c, 0, 59, 71
2, 220401, Note_on_c, 0, 43, 42
2, 220404, Note_on_c, 0, 55, 47
2, 220408, Note_on_c, 0, 50, 42
2, 220491, Note_on_c, 0, 50, 0
2, 220499, Note_on_c, 0, 43, 0
2, 220530, Note_on_c, 0, 55, 0
2, 220763, Note_on_c, 0, 59, 0
2, 220788, Note_on_c, 0, 55, 73
2, 220892, Note_on_c, 0, 55, 0
2, 220953, Note_on_c, 0, 57, 75
2, 221066, Note_on_c, 0, 57, 0
2, 221163, Note_on_c, 0, 79, 83
2, 221174, Note_on_c, 0, 59, 55
2, 221532, Note_on_c, 0, 57, 51
2, 221533, Note_on_c, 0, 59, 0
2, 221639, Note_on_c, 0, 57, 0
2, 221683, Note_on_c, 0, 59, 51
2, 221767, Note_on_c, 0, 59, 0
2, 221853, Note_on_c, 0, 80, 83
2, 221871, Note_on_c, 0, 60, 50
2, 221912, Note_on_c, 0, 79, 0
2, 221927, Note_on_c, 0, 60, 0
2, 222022, Note_on_c, 0, 59, 50
2, 222116, Note_on_c, 0, 59, 0
2, 222206, Note_on_c, 0, 72, 58
2, 222221, Note_on_c, 0, 60, 45
2, 222295, Note_on_c, 0, 60, 0
2, 222377, Note_on_c, 0, 62, 45
2, 222456, Note_on_c, 0, 62, 0
2, 222570, Note_on_c, 0, 79, 76
2, 222586, Note_on_c, 0, 63, 50
2, 222609, Note_on_c, 0, 80, 0
2, 222936, Note_on_c, 0, 70, 62
2, 222978, Note_on_c, 0, 72, 0
2, 223209, Note_on_c, 0, 70, 0
2, 223288, Note_on_c, 0, 78, 71
2, 223311, Note_on_c, 0, 69, 32
2, 223335, Note_on_c, 0, 63, 0
2, 223336, Note_on_c, 0, 79, 0
2, 223478, Note_on_c, 0, 60, 47
2, 223531, Note_on_c, 0, 60, 0
2, 223628, Note_on_c, 0, 70, 60
2, 223630, Note_on_c, 0, 62, 57
2, 223661, Note_on_c, 0, 69, 0
2, 223684, Note_on_c, 0, 62, 0
2, 223729, Note_on_c, 0, 70, 0
2, 223794, Note_on_c, 0, 63, 60
2, 223810, Note_on_c, 0, 72, 59
2, 223857, Note_on_c, 0, 63, 0
2, 223930, Note_on_c, 0, 72, 0
2, 223967, Note_on_c, 0, 83, 80
2, 223987, Note_on_c, 0, 74, 57
2, 224006, Note_on_c, 0, 78, 0
2, 224007, Note_on_c, 0, 65, 44
2, 224125, Note_on_c, 0, 74, 0
2, 224169, Note_on_c, 0, 72, 53
2, 224308, Note_on_c, 0, 72, 0
2, 224333, Note_on_c, 0, 70, 51
2, 224361, Note_on_c, 0, 71, 57
2, 224410, Note_on_c, 0, 71, 0
2, 224410, Note_on_c, 0, 71, 10
2, 224413, Note_on_c, 0, 83, 0
2, 224415, Note_on_c, 0, 70, 0
2, 224483, Note_on_c, 0, 71, 0
2, 224498, Note_on_c, 0, 69, 67
2, 224610, Note_on_c, 0, 69, 0
2, 224670, Note_on_c, 0, 84, 81
2, 224685, Note_on_c, 0, 67, 57
2, 224688, Note_on_c, 0, 65, 0
2, 224760, Note_on_c, 0, 67, 0
2, 224856, Note_on_c, 0, 63, 53
2, 224916, Note_on_c, 0, 63, 0
2, 225013, Note_on_c, 0, 65, 54
2, 225063, Note_on_c, 0, 65, 0
2, 225148, Note_on_c, 0, 84, 0
2, 225178, Note_on_c, 0, 67, 60
2, 225233, Note_on_c, 0, 67, 0
2, 225341, Note_on_c, 0, 77, 79
2, 225377, Note_on_c, 0, 68, 51
2, 225465, Note_on_c, 0, 68, 0
2, 225465, Note_on_c, 0, 68, 4
2, 225532, Note_on_c, 0, 55, 45
2, 225588, Note_on_c, 0, 55, 0
2, 225682, Note_on_c, 0, 56, 56
2, 225731, Note_on_c, 0, 56, 0
2, 225842, Note_on_c, 0, 58, 54
2, 225893, Note_on_c, 0, 58, 0
2, 226029, Note_on_c, 0, 76, 64
2, 226035, Note_on_c, 0, 60, 45
2, 226065, Note_on_c, 0, 77, 0
2, 226068, Note_on_c, 0, 68, 0
2, 226184, Note_on_c, 0, 67, 57
2, 226260, Note_on_c, 0, 67, 0
2, 226309, Note_on_c, 0, 76, 0
2, 226352, Note_on_c, 0, 69, 55
2, 226454, Note_on_c, 0, 69, 0
2, 226516, Note_on_c, 0, 71, 61
2, 226608, Note_on_c, 0, 71, 0
2, 226693, Note_on_c, 0, 75, 64
2, 226697, Note_on_c, 0, 60, 0
2, 226707, Note_on_c, 0, 72, 49
2, 226872, Note_on_c, 0, 60, 47
2, 226941, Note_on_c, 0, 60, 0
2, 227035, Note_on_c, 0, 62, 54
2, 227082, Note_on_c, 0, 62, 0
2, 227207, Note_on_c, 0, 63, 51
2, 227250, Note_on_c, 0, 63, 0
2, 227385, Note_on_c, 0, 74, 53
2, 227412, Note_on_c, 0, 65, 30
2, 227413, Note_on_c, 0, 75, 0
2, 227467, Note_on_c, 0, 65, 0
2, 227574, Note_on_c, 0, 62, 40
2, 227637, Note_on_c, 0, 62, 0
2, 227709, Note_on_c, 0, 72, 0
2, 227727, Note_on_c, 0, 63, 51
2, 227730, Note_on_c, 0, 71, 49
2, 227776, Note_on_c, 0, 63, 0
2, 227804, Note_on_c, 0, 71, 0
2, 227868, Note_on_c, 0, 69, 61
2, 227883, Note_on_c, 0, 65, 57
2, 227943, Note_on_c, 0, 65, 0
2, 227944, Note_on_c, 0, 69, 0
2, 228048, Note_on_c, 0, 67, 54
2, 228048, Note_on_c, 0, 71, 63
2, 228181, Note_on_c, 0, 67, 0
2, 228192, Note_on_c, 0, 68, 64
2, 228198, Note_on_c, 0, 72, 72
2, 228199, Note_on_c, 0, 71, 0
2, 228223, Note_on_c, 0, 74, 0
2, 228264, Note_on_c, 0, 68, 0
2, 228284, Note_on_c, 0, 72, 0
2, 228364, Note_on_c, 0, 67, 61
2, 228369, Note_on_c, 0, 71, 71
2, 228419, Note_on_c, 0, 67, 0
2, 228462, Note_on_c, 0, 71, 0
2, 228523, Note_on_c, 0, 74, 77
2, 228525, Note_on_c, 0, 65, 55
2, 228595, Note_on_c, 0, 65, 0
2, 228608, Note_on_c, 0, 74, 0
2, 228693, Note_on_c, 0, 67, 76
2, 228716, Note_on_c, 0, 63, 48
2, 228838, Note_on_c, 0, 63, 0
2, 228870, Note_on_c, 0, 65, 56
2, 228975, Note_on_c, 0, 65, 0
2, 229020, Note_on_c, 0, 63, 57
2, 229021, Note_on_c, 0, 72, 78
2, 229105, Note_on_c, 0, 63, 0
2, 229131, Note_on_c, 0, 72, 0
2, 229194, Note_on_c, 0, 74, 80
2, 229207, Note_on_c, 0, 62, 39
2, 229283, Note_on_c, 0, 67, 0
2, 229297, Note_on_c, 0, 74, 0
2, 229344, Note_on_c, 0, 62, 0
2, 229380, Note_on_c, 0, 75, 74
2, 229407, Note_on_c, 0, 60, 51
2, 229590, Note_on_c, 0, 60, 0
2, 229720, Note_on_c, 0, 67, 68
2, 229727, Note_on_c, 0, 60, 44
2, 229790, Note_on_c, 0, 60, 0
2, 229809, Note_on_c, 0, 67, 0
2, 229881, Note_on_c, 0, 58, 48
2, 229951, Note_on_c, 0, 58, 0
2, 230054, Note_on_c, 0, 60, 51
2, 230060, Note_on_c, 0, 57, 43
2, 230202, Note_on_c, 0, 57, 0
2, 230384, Note_on_c, 0, 57, 44
2, 230389, Note_on_c, 0, 72, 63
2, 230445, Note_on_c, 0, 57, 0
2, 230478, Note_on_c, 0, 72, 0
2, 230543, Note_on_c, 0, 70, 58
2, 230558, Note_on_c, 0, 55, 42
2, 230610, Note_on_c, 0, 55, 0
2, 230622, Note_on_c, 0, 70, 0
2, 230724, Note_on_c, 0, 69, 56
2, 230736, Note_on_c, 0, 53, 46
2, 231048, Note_on_c, 0, 53, 0
2, 231048, Note_on_c, 0, 70, 52
2, 231056, Note_on_c, 0, 69, 0
2, 231069, Note_on_c, 0, 55, 38
2, 231130, Note_on_c, 0, 55, 0
2, 231153, Note_on_c, 0, 70, 0
2, 231202, Note_on_c, 0, 72, 63
2, 231218, Note_on_c, 0, 57, 35
2, 231261, Note_on_c, 0, 57, 0
2, 231292, Note_on_c, 0, 72, 0
2, 231361, Note_on_c, 0, 75, 0
2, 231399, Note_on_c, 0, 65, 49
2, 231405, Note_on_c, 0, 60, 0
2, 231412, Note_on_c, 0, 58, 36
2, 231638, Note_on_c, 0, 65, 0
2, 231716, Note_on_c, 0, 74, 56
2, 231729, Note_on_c, 0, 65, 41
2, 231732, Note_on_c, 0, 70, 46
2, 231743, Note_on_c, 0, 58, 0
2, 231770, Note_on_c, 0, 70, 0
2, 231791, Note_on_c, 0, 65, 0
2, 231806, Note_on_c, 0, 74, 0
2, 231885, Note_on_c, 0, 75, 58
2, 231914, Note_on_c, 0, 63, 28
2, 231959, Note_on_c, 0, 63, 0
2, 231965, Note_on_c, 0, 75, 0
2, 232076, Note_on_c, 0, 77, 59
2, 232091, Note_on_c, 0, 62, 35
2, 232340, Note_on_c, 0, 62, 0
2, 232417, Note_on_c, 0, 68, 49
2, 232429, Note_on_c, 0, 62, 35
2, 232491, Note_on_c, 0, 62, 0
2, 232513, Note_on_c, 0, 68, 0
2, 232576, Note_on_c, 0, 60, 48
2, 232644, Note_on_c, 0, 60, 0
2, 232745, Note_on_c, 0, 67, 54
2, 232766, Note_on_c, 0, 59, 41
2, 232995, Note_on_c, 0, 59, 0
2, 233095, Note_on_c, 0, 74, 66
2, 233112, Note_on_c, 0, 59, 47
2, 233157, Note_on_c, 0, 59, 0
2, 233195, Note_on_c, 0, 67, 0
2, 233202, Note_on_c, 0, 74, 0
2, 233255, Note_on_c, 0, 72, 72
2, 233275, Note_on_c, 0, 57, 44
2, 233327, Note_on_c, 0, 57, 0
2, 233347, Note_on_c, 0, 72, 0
2, 233444, Note_on_c, 0, 71, 69
2, 233458, Note_on_c, 0, 55, 45
2, 233763, Note_on_c, 0, 57, 56
2, 233770, Note_on_c, 0, 72, 70
2, 233825, Note_on_c, 0, 71, 0
2, 233830, Note_on_c, 0, 55, 0
2, 233848, Note_on_c, 0, 57, 0
2, 233861, Note_on_c, 0, 72, 0
2, 233913, Note_on_c, 0, 74, 74
2, 233924, Note_on_c, 0, 59, 55
2, 233977, Note_on_c, 0, 59, 0
2, 234034, Note_on_c, 0, 74, 0
2, 234052, Note_on_c, 0, 77, 0
2, 234087, Note_on_c, 0, 67, 75
2, 234102, Note_on_c, 0, 60, 58
2, 234245, Note_on_c, 0, 74, 79
2, 234371, Note_on_c, 0, 74, 0
2, 234405, Note_on_c, 0, 76, 83
2, 234408, Note_on_c, 0, 60, 0
2, 234413, Note_on_c, 0, 58, 68
2, 234498, Note_on_c, 0, 58, 0
2, 234515, Note_on_c, 0, 76, 0
2, 234573, Note_on_c, 0, 67, 0
2, 234573, Note_on_c, 0, 67, 11
2, 234579, Note_on_c, 0, 56, 66
2, 234581, Note_on_c, 0, 79, 81
2, 234678, Note_on_c, 0, 56, 0
2, 234744, Note_on_c, 0, 79, 0
2, 234768, Note_on_c, 0, 55, 60
2, 234768, Note_on_c, 0, 70, 75
2, 234872, Note_on_c, 0, 67, 0
2, 234999, Note_on_c, 0, 55, 0
2, 235104, Note_on_c, 0, 61, 82
2, 235120, Note_on_c, 0, 55, 63
2, 235181, Note_on_c, 0, 55, 0
2, 235263, Note_on_c, 0, 53, 65
2, 235343, Note_on_c, 0, 53, 0
2, 235430, Note_on_c, 0, 61, 0
2, 235456, Note_on_c, 0, 60, 83
2, 235475, Note_on_c, 0, 52, 57
2, 235630, Note_on_c, 0, 52, 0
2, 235823, Note_on_c, 0, 67, 77
2, 235827, Note_on_c, 0, 52, 58
2, 235870, Note_on_c, 0, 60, 0
2, 235875, Note_on_c, 0, 52, 0
2, 235975, Note_on_c, 0, 67, 0
2, 235982, Note_on_c, 0, 65, 75
2, 235993, Note_on_c, 0, 50, 54
2, 236055, Note_on_c, 0, 50, 0
2, 236088, Note_on_c, 0, 65, 0
2, 236171, Note_on_c, 0, 64, 79
2, 236182, Note_on_c, 0, 48, 55
2, 236507, Note_on_c, 0, 50, 60
2, 236507, Note_on_c, 0, 65, 76
2, 236533, Note_on_c, 0, 48, 0
2, 236533, Note_on_c, 0, 64, 0
2, 236588, Note_on_c, 0, 50, 0
2, 236623, Note_on_c, 0, 65, 0
2, 236657, Note_on_c, 0, 67, 80
2, 236658, Note_on_c, 0, 52, 65
2, 236715, Note_on_c, 0, 52, 0
2, 236803, Note_on_c, 0, 67, 0
2, 236839, Note_on_c, 0, 53, 65
2, 236839, Note_on_c, 0, 60, 78
2, 236921, Note_on_c, 0, 53, 0
2, 236990, Note_on_c, 0, 55, 72
2, 237063, Note_on_c, 0, 55, 0
2, 237150, Note_on_c, 0, 68, 80
2, 237156, Note_on_c, 0, 60, 0
2, 237161, Note_on_c, 0, 56, 72
2, 237163, Note_on_c, 0, 65, 64
2, 237221, Note_on_c, 0, 70, 0
2, 237250, Note_on_c, 0, 56, 0
2, 237319, Note_on_c, 0, 58, 69
2, 237403, Note_on_c, 0, 58, 0
2, 237573, Note_on_c, 0, 67, 75
2, 237574, Note_on_c, 0, 48, 82
2, 237588, Note_on_c, 0, 60, 68
2, 237628, Note_on_c, 0, 68, 0
2, 237665, Note_on_c, 0, 65, 0
2, 237954, Note_on_c, 0, 64, 65
2, 238007, Note_on_c, 0, 67, 0
2, 238322, Note_on_c, 0, 49, 84
2, 238337, Note_on_c, 0, 65, 69
2, 238364, Note_on_c, 0, 48, 0
2, 238374, Note_on_c, 0, 64, 0
2, 238423, Note_on_c, 0, 60, 0
2, 238500, Note_on_c, 0, 65, 0
2, 238508, Note_on_c, 0, 64, 63
2, 238679, Note_on_c, 0, 65, 70
2, 238689, Note_on_c, 0, 58, 46
2, 238693, Note_on_c, 0, 64, 0
2, 238843, Note_on_c, 0, 67, 71
2, 238870, Note_on_c, 0, 65, 0
2, 239047, Note_on_c, 0, 48, 71
2, 239047, Note_on_c, 0, 68, 62
2, 239051, Note_on_c, 0, 67, 0
2, 239096, Note_on_c, 0, 49, 0
2, 239190, Note_on_c, 0, 68, 0
2, 239228, Note_on_c, 0, 67, 61
2, 239247, Note_on_c, 0, 58, 0
2, 239376, Note_on_c, 0, 67, 0
2, 239398, Note_on_c, 0, 65, 63
2, 239410, Note_on_c, 0, 56, 49
2, 239557, Note_on_c, 0, 63, 56
2, 239563, Note_on_c, 0, 65, 0
2, 239739, Note_on_c, 0, 63, 0
2, 239744, Note_on_c, 0, 62, 56
2, 239758, Note_on_c, 0, 47, 62
2, 239812, Note_on_c, 0, 48, 0
2, 239923, Note_on_c, 0, 65, 56
2, 240015, Note_on_c, 0, 56, 0
2, 240056, Note_on_c, 0, 62, 0
2, 240103, Note_on_c, 0, 67, 67
2, 240113, Note_on_c, 0, 65, 0
2, 240118, Note_on_c, 0, 55, 47
2, 240210, Note_on_c, 0, 55, 0
2, 240249, Note_on_c, 0, 67, 0
2, 240260, Note_on_c, 0, 68, 74
2, 240278, Note_on_c, 0, 53, 54
2, 240367, Note_on_c, 0, 53, 0
2, 240393, Note_on_c, 0, 68, 0
2, 240417, Note_on_c, 0, 47, 0
2, 240428, Note_on_c, 0, 70, 81
2, 240431, Note_on_c, 0, 52, 76
2, 240585, Note_on_c, 0, 58, 67
2, 240645, Note_on_c, 0, 58, 0
2, 240773, Note_on_c, 0, 61, 79
2, 240776, Note_on_c, 0, 56, 57
2, 240840, Note_on_c, 0, 56, 0
2, 240920, Note_on_c, 0, 55, 58
2, 241100, Note_on_c, 0, 53, 75
2, 241116, Note_on_c, 0, 55, 0
2, 241125, Note_on_c, 0, 52, 0
2, 241259, Note_on_c, 0, 68, 71
2, 241259, Note_on_c, 0, 70, 0
2, 241284, Note_on_c, 0, 61, 0
2, 241397, Note_on_c, 0, 68, 0
2, 241438, Note_on_c, 0, 70, 78
2, 241439, Note_on_c, 0, 55, 74
2, 241439, Note_on_c, 0, 60, 76
2, 241476, Note_on_c, 0, 60, 0
2, 241533, Note_on_c, 0, 70, 0
2, 241545, Note_on_c, 0, 55, 0
2, 241587, Note_on_c, 0, 72, 79
2, 241592, Note_on_c, 0, 56, 65
2, 241656, Note_on_c, 0, 72, 0
2, 241662, Note_on_c, 0, 56, 0
2, 241762, Note_on_c, 0, 53, 0
2, 241776, Note_on_c, 0, 73, 83
2, 241779, Note_on_c, 0, 46, 84
2, 241781, Note_on_c, 0, 58, 71
2, 241875, Note_on_c, 0, 58, 0
2, 241941, Note_on_c, 0, 53, 56
2, 242033, Note_on_c, 0, 53, 0
2, 242133, Note_on_c, 0, 51, 67
2, 242133, Note_on_c, 0, 66, 85
2, 242190, Note_on_c, 0, 51, 0
2, 242288, Note_on_c, 0, 49, 68
2, 242380, Note_on_c, 0, 46, 0
2, 242380, Note_on_c, 0, 49, 0
2, 242460, Note_on_c, 0, 45, 82
2, 242476, Note_on_c, 0, 48, 68
2, 242554, Note_on_c, 0, 66, 0
2, 242577, Note_on_c, 0, 73, 0
2, 242622, Note_on_c, 0, 72, 78
2, 242739, Note_on_c, 0, 72, 0
2, 242788, Note_on_c, 0, 65, 84
2, 242794, Note_on_c, 0, 74, 77
2, 242904, Note_on_c, 0, 74, 0
2, 242955, Note_on_c, 0, 76, 86
2, 242991, Note_on_c, 0, 45, 0
2, 243058, Note_on_c, 0, 76, 0
2, 243136, Note_on_c, 0, 44, 84
2, 243139, Note_on_c, 0, 77, 87
2, 243190, Note_on_c, 0, 65, 0
2, 243206, Note_on_c, 0, 48, 0
2, 243301, Note_on_c, 0, 65, 83
2, 243313, Note_on_c, 0, 50, 69
2, 243391, Note_on_c, 0, 50, 0
2, 243397, Note_on_c, 0, 65, 0
2, 243460, Note_on_c, 0, 67, 90
2, 243479, Note_on_c, 0, 52, 78
2, 243547, Note_on_c, 0, 52, 0
2, 243550, Note_on_c, 0, 67, 0
2, 243629, Note_on_c, 0, 68, 91
2, 243653, Note_on_c, 0, 53, 70
2, 243727, Note_on_c, 0, 68, 0
2, 243765, Note_on_c, 0, 53, 0
2, 243811, Note_on_c, 0, 44, 0
2, 243853, Note_on_c, 0, 70, 84
2, 243868, Note_on_c, 0, 43, 81
2, 243872, Note_on_c, 0, 55, 81
2, 244044, Note_on_c, 0, 77, 0
2, 244227, Note_on_c, 0, 76, 79
2, 244320, Note_on_c, 0, 76, 0
2, 244390, Note_on_c, 0, 74, 80
2, 244508, Note_on_c, 0, 74, 0
2, 244569, Note_on_c, 0, 76, 82
2, 244732, Note_on_c, 0, 45, 71
2, 244769, Note_on_c, 0, 55, 0
2, 244821, Note_on_c, 0, 45, 0
2, 244913, Note_on_c, 0, 46, 72
2, 244991, Note_on_c, 0, 46, 0
2, 245096, Note_on_c, 0, 48, 66
2, 245172, Note_on_c, 0, 43, 0
2, 245267, Note_on_c, 0, 48, 0
2, 245295, Note_on_c, 0, 77, 66
2, 245304, Note_on_c, 0, 41, 65
2, 245308, Note_on_c, 0, 49, 54
2, 245315, Note_on_c, 0, 76, 0
2, 245481, Note_on_c, 0, 49, 0
2, 245483, Note_on_c, 0, 70, 0
2, 245490, Note_on_c, 0, 73, 66
2, 245495, Note_on_c, 0, 48, 59
2, 245593, Note_on_c, 0, 48, 0
2, 245614, Note_on_c, 0, 73, 0
2, 245649, Note_on_c, 0, 72, 76
2, 245661, Note_on_c, 0, 49, 65
2, 245704, Note_on_c, 0, 49, 0
2, 245737, Note_on_c, 0, 72, 0
2, 245805, Note_on_c, 0, 70, 79
2, 245808, Note_on_c, 0, 51, 64
2, 245900, Note_on_c, 0, 70, 0
2, 245928, Note_on_c, 0, 51, 0
2, 245977, Note_on_c, 0, 69, 82
2, 245980, Note_on_c, 0, 53, 76
2, 246007, Note_on_c, 0, 41, 0
2, 246123, Note_on_c, 0, 41, 77
2, 246141, Note_on_c, 0, 75, 78
2, 246188, Note_on_c, 0, 77, 0
2, 246221, Note_on_c, 0, 41, 0
2, 246292, Note_on_c, 0, 43, 82
2, 246311, Note_on_c, 0, 73, 78
2, 246343, Note_on_c, 0, 75, 0
2, 246397, Note_on_c, 0, 43, 0
2, 246463, Note_on_c, 0, 45, 80
2, 246474, Note_on_c, 0, 72, 79
2, 246478, Note_on_c, 0, 73, 0
2, 246528, Note_on_c, 0, 69, 0
2, 246557, Note_on_c, 0, 45, 0
2, 246636, Note_on_c, 0, 46, 80
2, 246637, Note_on_c, 0, 73, 80
2, 246650, Note_on_c, 0, 72, 0
2, 246686, Note_on_c, 0, 53, 0
2, 246808, Note_on_c, 0, 53, 75
2, 246808, Note_on_c, 0, 72, 79
2, 246876, Note_on_c, 0, 53, 0
2, 246939, Note_on_c, 0, 72, 0
2, 246971, Note_on_c, 0, 70, 79
2, 246976, Note_on_c, 0, 55, 75
2, 247043, Note_on_c, 0, 55, 0
2, 247051, Note_on_c, 0, 70, 0
2, 247138, Note_on_c, 0, 68, 79
2, 247155, Note_on_c, 0, 56, 62
2, 247225, Note_on_c, 0, 56, 0
2, 247270, Note_on_c, 0, 68, 0
2, 247322, Note_on_c, 0, 67, 79
2, 247325, Note_on_c, 0, 58, 71
2, 247419, Note_on_c, 0, 67, 0
2, 247467, Note_on_c, 0, 73, 0
2, 247492, Note_on_c, 0, 70, 79
2, 247495, Note_on_c, 0, 49, 71
2, 247500, Note_on_c, 0, 65, 77
2, 247518, Note_on_c, 0, 46, 0
2, 247576, Note_on_c, 0, 65, 0
2, 247659, Note_on_c, 0, 72, 80
2, 247661, Note_on_c, 0, 70, 0
2, 247668, Note_on_c, 0, 48, 70
2, 247674, Note_on_c, 0, 63, 85
2, 247698, Note_on_c, 0, 49, 0
2, 247760, Note_on_c, 0, 63, 0
2, 247800, Note_on_c, 0, 72, 0
2, 247821, Note_on_c, 0, 48, 0
2, 247829, Note_on_c, 0, 73, 86
2, 247830, Note_on_c, 0, 61, 84
2, 247832, Note_on_c, 0, 46, 80
2, 247980, Note_on_c, 0, 61, 0
2, 248010, Note_on_c, 0, 46, 0
2, 248010, Note_on_c, 0, 73, 0
2, 248036, Note_on_c, 0, 64, 81
2, 248040, Note_on_c, 0, 48, 78
2, 248042, Note_on_c, 0, 60, 79
2, 248083, Note_on_c, 0, 58, 0
2, 248220, Note_on_c, 0, 58, 79
2, 248334, Note_on_c, 0, 58, 0
2, 248398, Note_on_c, 0, 72, 84
2, 248411, Note_on_c, 0, 56, 77
2, 248430, Note_on_c, 0, 64, 0
2, 248535, Note_on_c, 0, 56, 0
2, 248569, Note_on_c, 0, 55, 76
2, 248598, Note_on_c, 0, 57, 46
2, 248618, Note_on_c, 0, 57, 0
2, 248680, Note_on_c, 0, 55, 0
2, 248770, Note_on_c, 0, 56, 81
2, 248956, Note_on_c, 0, 67, 78
2, 248989, Note_on_c, 0, 60, 0
2, 249176, Note_on_c, 0, 72, 0
2, 249187, Note_on_c, 0, 68, 86
2, 249262, Note_on_c, 0, 67, 0
2, 249403, Note_on_c, 0, 65, 84
2, 249446, Note_on_c, 0, 56, 0
2, 249461, Note_on_c, 0, 68, 0
2, 249598, Note_on_c, 0, 56, 73
2, 249709, Note_on_c, 0, 55, 67
2, 249723, Note_on_c, 0, 56, 0
2, 249754, Note_on_c, 0, 65, 0
2, 249847, Note_on_c, 0, 56, 68
2, 249849, Note_on_c, 0, 55, 0
2, 249854, Note_on_c, 0, 65, 81
2, 249945, Note_on_c, 0, 56, 0
2, 249964, Note_on_c, 0, 55, 63
2, 250070, Note_on_c, 0, 55, 0
2, 250082, Note_on_c, 0, 64, 86
2, 250087, Note_on_c, 0, 56, 56
2, 250132, Note_on_c, 0, 65, 0
2, 250168, Note_on_c, 0, 56, 0
2, 250194, Note_on_c, 0, 55, 57
2, 250322, Note_on_c, 0, 56, 49
2, 250323, Note_on_c, 0, 62, 89
2, 250339, Note_on_c, 0, 55, 0
2, 250417, Note_on_c, 0, 64, 0
2, 250439, Note_on_c, 0, 56, 0
2, 250462, Note_on_c, 0, 55, 53
2, 250616, Note_on_c, 0, 65, 85
2, 250621, Note_on_c, 0, 55, 0
2, 250638, Note_on_c, 0, 56, 46
2, 250658, Note_on_c, 0, 62, 0
2, 250820, Note_on_c, 0, 64, 82
2, 250838, Note_on_c, 0, 56, 0
2, 250848, Note_on_c, 0, 55, 49
2, 250869, Note_on_c, 0, 65, 0
2, 250976, Note_on_c, 0, 65, 79
2, 250995, Note_on_c, 0, 55, 0
2, 251004, Note_on_c, 0, 56, 45
2, 251011, Note_on_c, 0, 64, 0
2, 251137, Note_on_c, 0, 56, 0
2, 251144, Note_on_c, 0, 64, 73
2, 251159, Note_on_c, 0, 55, 41
2, 251181, Note_on_c, 0, 65, 0
2, 251312, Note_on_c, 0, 65, 67
2, 251334, Note_on_c, 0, 56, 40
2, 251359, Note_on_c, 0, 64, 0
2, 251368, Note_on_c, 0, 55, 0
2, 251528, Note_on_c, 0, 64, 67
2, 251533, Note_on_c, 0, 55, 40
2, 251537, Note_on_c, 0, 56, 0
2, 251556, Note_on_c, 0, 65, 0
2, 251804, Note_on_c, 0, 62, 70
2, 251814, Note_on_c, 0, 53, 44
2, 251854, Note_on_c, 0, 64, 0
2, 251903, Note_on_c, 0, 55, 0
2, 252171, Note_on_c, 0, 64, 75
2, 252177, Note_on_c, 0, 53, 0
2, 252181, Note_on_c, 0, 55, 43
2, 252225, Note_on_c, 0, 62, 0
2, 252368, Control_c, 0, 64, 64
2, 252382, Control_c, 0, 64, 68
2, 252398, Control_c, 0, 64, 72
2, 252413, Control_c, 0, 64, 76
2, 252428, Control_c, 0, 64, 79
2, 252444, Control_c, 0, 64, 81
2, 252459, Control_c, 0, 64, 84
2, 252475, Control_c, 0, 64, 86
2, 252490, Control_c, 0, 64, 89
2, 252505, Control_c, 0, 64, 91
2, 252521, Control_c, 0, 64, 93
2, 252535, Control_c, 0, 64, 95
2, 252550, Control_c, 0, 64, 96
2, 252566, Control_c, 0, 64, 98
2, 252581, Control_c, 0, 64, 99
2, 252597, Control_c, 0, 64, 101
2, 252612, Control_c, 0, 64, 102
2, 252627, Control_c, 0, 64, 103
2, 252643, Control_c, 0, 64, 105
2, 252657, Control_c, 0, 64, 107
2, 252672, Control_c, 0, 64, 109
2, 252688, Control_c, 0, 64, 110
2, 252702, Control_c, 0, 64, 111
2, 252718, Control_c, 0, 64, 112
2, 252878, Note_on_c, 0, 65, 71
2, 252890, Note_on_c, 0, 60, 49
2, 252892, Note_on_c, 0, 57, 49
2, 252910, Note_on_c, 0, 41, 43
2, 252924, Note_on_c, 0, 64, 0
2, 252938, Control_c, 0, 64, 111
2, 252944, Note_on_c, 0, 48, 0
2, 252953, Control_c, 0, 64, 110
2, 252969, Control_c, 0, 64, 106
2, 252984, Control_c, 0, 64, 101
2, 252999, Control_c, 0, 64, 96
2, 253014, Control_c, 0, 64, 90
2, 253029, Control_c, 0, 64, 83
2, 253045, Control_c, 0, 64, 75
2, 253060, Control_c, 0, 64, 64
2, 253075, Control_c, 0, 64, 0
2, 253153, Note_on_c, 0, 55, 0
2, 258539, Note_on_c, 0, 41, 0
2, 258570, Note_on_c, 0, 57, 0
2, 258570, Note_on_c, 0, 65, 0
2, 258579, Note_on_c, 0, 60, 0
2, 258580, End_track
0, 0, End_of_file
