0, 0, Header, 1, 2, 480
1, 0, Start_track
1, 0, Tempo, 500000
1, 0, Time_signature, 4, 2, 24, 8
1, 3, Time_signature, 4, 2, 24, 8
1, 4, End_track
2, 0, Start_track
2, 0, Program_c, 0, 0
2, 3, Control_c, 0, 64, 88
2, 3, Control_c, 0, 67, 0
2, 7, Control_c, 0, 64, 91
2, 30, Control_c, 0, 64, 94
2, 52, Control_c, 0, 64, 98
2, 78, Control_c, 0, 64, 102
2, 99, Control_c, 0, 64, 107
2, 118, Control_c, 0, 64, 116
2, 138, Control_c, 0, 64, 127
2, 721, Control_c, 0, 64, 118
2, 741, Control_c, 0, 64, 111
2, 758, Control_c, 0, 64, 107
2, 780, Control_c, 0, 64, 104
2, 796, Control_c, 0, 64, 102
2, 818, Control_c, 0, 64, 99
2, 836, Control_c, 0, 64, 97
2, 854, Control_c, 0, 64, 93
2, 874, Control_c, 0, 64, 90
2, 892, Control_c, 0, 64, 87
2, 911, Control_c, 0, 64, 85
2, 932, Control_c, 0, 64, 84
2, 951, Control_c, 0, 64, 82
2, 955, Note_on_c, 0, 65, 35
2, 970, Control_c, 0, 64, 81
2, 985, Note_on_c, 0, 56, 30
2, 990, Control_c, 0, 64, 79
2, 1000, Note_on_c, 0, 53, 30
2, 1009, Control_c, 0, 64, 77
2, 1027, Control_c, 0, 64, 76
2, 1046, Control_c, 0, 64, 74
2, 1066, Control_c, 0, 64, 73
2, 1084, Control_c, 0, 64, 71
2, 1103, Control_c, 0, 64, 69
2, 1126, Control_c, 0, 64, 67
2, 1143, Control_c, 0, 64, 65
2, 1161, Control_c, 0, 64, 64
2, 1201, Control_c, 0, 64, 63
2, 1219, Control_c, 0, 64, 62
2, 1257, Control_c, 0, 64, 61
2, 1277, Control_c, 0, 64, 60
2, 1303, Note_on_c, 0, 68, 43
2, 1333, Control_c, 0, 64, 59
2, 1376, Control_c, 0, 64, 58
2, 1430, Control_c, 0, 64, 57
2, 1472, Control_c, 0, 64, 56
2, 1510, Control_c, 0, 64, 55
2, 1544, Control_c, 0, 64, 54
2, 1565, Control_c, 0, 64, 52
2, 1582, Note_on_c, 0, 72, 55
2, 1586, Control_c, 0, 64, 48
2, 1586, Note_on_c, 0, 68, 0
2, 1604, Control_c, 0, 64, 42
2, 1621, Control_c, 0, 64, 37
2, 1642, Control_c, 0, 64, 32
2, 1662, Control_c, 0, 64, 28
2, 1680, Control_c, 0, 64, 26
2, 1738, Control_c, 0, 64, 28
2, 1755, Control_c, 0, 64, 34
2, 1775, Control_c, 0, 64, 42
2, 1794, Control_c, 0, 64, 51
2, 1815, Control_c, 0, 64, 58
2, 1828, Note_on_c, 0, 77, 62
2, 1836, Control_c, 0, 64, 60
2, 1855, Control_c, 0, 64, 62
2, 1873, Control_c, 0, 64, 63
2, 1891, Control_c, 0, 64, 64
2, 1905, Note_on_c, 0, 65, 0
2, 1907, Note_on_c, 0, 72, 0
2, 1911, Control_c, 0, 64, 65
2, 1929, Control_c, 0, 64, 67
2, 1951, Control_c, 0, 64, 70
2, 1970, Control_c, 0, 64, 73
2, 1988, Control_c, 0, 64, 75
2, 2006, Control_c, 0, 64, 76
2, 2063, Control_c, 0, 64, 75
2, 2084, Control_c, 0, 64, 74
2, 2105, Control_c, 0, 64, 72
2, 2119, Note_on_c, 0, 67, 52
2, 2121, Control_c, 0, 64, 71
2, 2140, Note_on_c, 0, 58, 44
2, 2145, Control_c, 0, 64, 70
2, 2162, Control_c, 0, 64, 69
2, 2182, Control_c, 0, 64, 67
2, 2197, Control_c, 0, 64, 66
2, 2220, Control_c, 0, 64, 65
2, 2239, Control_c, 0, 64, 64
2, 2239, Note_on_c, 0, 77, 0
2, 2255, Control_c, 0, 64, 63
2, 2276, Control_c, 0, 64, 62
2, 2287, Note_on_c, 0, 56, 0
2, 2314, Control_c, 0, 64, 61
2, 2352, Control_c, 0, 64, 60
2, 2366, Note_on_c, 0, 77, 68
2, 2375, Control_c, 0, 64, 58
2, 2410, Control_c, 0, 64, 57
2, 2431, Control_c, 0, 64, 56
2, 2449, Control_c, 0, 64, 54
2, 2469, Control_c, 0, 64, 53
2, 2486, Control_c, 0, 64, 50
2, 2506, Control_c, 0, 64, 48
2, 2524, Control_c, 0, 64, 46
2, 2544, Control_c, 0, 64, 43
2, 2564, Control_c, 0, 64, 40
2, 2581, Control_c, 0, 64, 38
2, 2601, Control_c, 0, 64, 35
2, 2620, Control_c, 0, 64, 31
2, 2630, Note_on_c, 0, 76, 68
2, 2639, Control_c, 0, 64, 26
2, 2658, Control_c, 0, 64, 22
2, 2671, Note_on_c, 0, 77, 0
2, 2680, Control_c, 0, 64, 20
2, 2697, Control_c, 0, 64, 19
2, 2775, Control_c, 0, 64, 23
2, 2793, Control_c, 0, 64, 30
2, 2813, Control_c, 0, 64, 41
2, 2831, Control_c, 0, 64, 50
2, 2850, Control_c, 0, 64, 56
2, 2873, Control_c, 0, 64, 58
2, 2884, Note_on_c, 0, 79, 73
2, 2893, Control_c, 0, 64, 60
2, 2911, Control_c, 0, 64, 62
2, 2933, Control_c, 0, 64, 64
2, 2933, Note_on_c, 0, 76, 0
2, 2950, Control_c, 0, 64, 65
2, 2961, Note_on_c, 0, 67, 0
2, 2971, Control_c, 0, 64, 67
2, 2987, Control_c, 0, 64, 70
2, 3006, Control_c, 0, 64, 73
2, 3029, Control_c, 0, 64, 76
2, 3045, Control_c, 0, 64, 77
2, 3104, Control_c, 0, 64, 76
2, 3145, Control_c, 0, 64, 75
2, 3152, Note_on_c, 0, 68, 68
2, 3162, Control_c, 0, 64, 74
2, 3184, Control_c, 0, 64, 73
2, 3193, Note_on_c, 0, 60, 40
2, 3200, Control_c, 0, 64, 72
2, 3218, Control_c, 0, 64, 70
2, 3237, Control_c, 0, 64, 68
2, 3258, Control_c, 0, 64, 66
2, 3279, Control_c, 0, 64, 65
2, 3294, Control_c, 0, 64, 64
2, 3317, Control_c, 0, 64, 62
2, 3333, Control_c, 0, 64, 61
2, 3353, Control_c, 0, 64, 60
2, 3362, Note_on_c, 0, 58, 0
2, 3373, Control_c, 0, 64, 59
2, 3387, Note_on_c, 0, 79, 0
2, 3391, Control_c, 0, 64, 57
2, 3398, Note_on_c, 0, 72, 77
2, 3413, Control_c, 0, 64, 56
2, 3429, Control_c, 0, 64, 54
2, 3451, Control_c, 0, 64, 52
2, 3468, Control_c, 0, 64, 48
2, 3489, Control_c, 0, 64, 44
2, 3507, Control_c, 0, 64, 40
2, 3528, Control_c, 0, 64, 38
2, 3548, Control_c, 0, 64, 36
2, 3564, Control_c, 0, 64, 35
2, 3623, Control_c, 0, 64, 34
2, 3653, Note_on_c, 0, 77, 73
2, 3769, Note_on_c, 0, 72, 0
2, 3885, Note_on_c, 0, 76, 80
2, 3944, Note_on_c, 0, 77, 0
2, 4191, Note_on_c, 0, 77, 77
2, 4199, Note_on_c, 0, 56, 37
2, 4242, Note_on_c, 0, 76, 0
2, 4390, Note_on_c, 0, 60, 0
2, 4449, Note_on_c, 0, 72, 64
2, 4489, Note_on_c, 0, 68, 0
2, 4710, Note_on_c, 0, 70, 69
2, 4778, Note_on_c, 0, 72, 0
2, 4960, Note_on_c, 0, 68, 64
2, 4985, Control_c, 0, 64, 33
2, 5010, Note_on_c, 0, 70, 0
2, 5023, Control_c, 0, 64, 32
2, 5062, Control_c, 0, 64, 31
2, 5138, Control_c, 0, 64, 30
2, 5259, Note_on_c, 0, 58, 35
2, 5302, Note_on_c, 0, 73, 68
2, 5373, Note_on_c, 0, 77, 0
2, 5402, Note_on_c, 0, 56, 0
2, 5426, Note_on_c, 0, 68, 0
2, 5584, Note_on_c, 0, 68, 50
2, 5846, Note_on_c, 0, 67, 54
2, 5881, Note_on_c, 0, 68, 0
2, 6109, Note_on_c, 0, 70, 55
2, 6113, Note_on_c, 0, 67, 0
2, 6376, Note_on_c, 0, 64, 54
2, 6412, Note_on_c, 0, 55, 27
2, 6478, Note_on_c, 0, 73, 0
2, 6498, Note_on_c, 0, 58, 0
2, 6520, Control_c, 0, 64, 29
2, 6558, Control_c, 0, 64, 28
2, 6578, Control_c, 0, 64, 27
2, 6617, Control_c, 0, 64, 25
2, 6631, Note_on_c, 0, 73, 63
2, 6640, Control_c, 0, 64, 22
2, 6644, Note_on_c, 0, 70, 0
2, 6657, Control_c, 0, 64, 15
2, 6675, Control_c, 0, 64, 0
2, 6891, Note_on_c, 0, 72, 70
2, 6940, Note_on_c, 0, 73, 0
2, 6944, Control_c, 0, 64, 28
2, 6962, Control_c, 0, 64, 44
2, 6981, Control_c, 0, 64, 53
2, 7000, Control_c, 0, 64, 58
2, 7022, Control_c, 0, 64, 60
2, 7040, Control_c, 0, 64, 61
2, 7059, Control_c, 0, 64, 63
2, 7079, Control_c, 0, 64, 65
2, 7097, Control_c, 0, 64, 67
2, 7118, Control_c, 0, 64, 70
2, 7135, Control_c, 0, 64, 73
2, 7148, Note_on_c, 0, 70, 74
2, 7154, Control_c, 0, 64, 76
2, 7170, Note_on_c, 0, 53, 0
2, 7174, Control_c, 0, 64, 78
2, 7194, Control_c, 0, 64, 80
2, 7213, Control_c, 0, 64, 82
2, 7232, Note_on_c, 0, 72, 0
2, 7271, Note_on_c, 0, 64, 0
2, 7291, Control_c, 0, 64, 81
2, 7310, Control_c, 0, 64, 80
2, 7328, Control_c, 0, 64, 78
2, 7348, Control_c, 0, 64, 76
2, 7367, Control_c, 0, 64, 74
2, 7385, Control_c, 0, 64, 71
2, 7403, Control_c, 0, 64, 69
2, 7408, Note_on_c, 0, 53, 38
2, 7426, Control_c, 0, 64, 66
2, 7445, Control_c, 0, 64, 64
2, 7461, Control_c, 0, 64, 62
2, 7490, Note_on_c, 0, 68, 70
2, 7501, Control_c, 0, 64, 61
2, 7519, Control_c, 0, 64, 60
2, 7524, Note_on_c, 0, 65, 47
2, 7526, Note_on_c, 0, 55, 0
2, 7539, Control_c, 0, 64, 59
2, 7559, Control_c, 0, 64, 58
2, 7579, Control_c, 0, 64, 57
2, 7593, Note_on_c, 0, 70, 0
2, 7598, Control_c, 0, 64, 56
2, 7616, Control_c, 0, 64, 55
2, 7636, Control_c, 0, 64, 53
2, 7654, Control_c, 0, 64, 51
2, 7675, Control_c, 0, 64, 49
2, 7693, Control_c, 0, 64, 46
2, 7712, Control_c, 0, 64, 44
2, 7730, Control_c, 0, 64, 42
2, 7750, Control_c, 0, 64, 39
2, 7763, Note_on_c, 0, 56, 56
2, 7770, Control_c, 0, 64, 36
2, 7789, Control_c, 0, 64, 32
2, 7807, Control_c, 0, 64, 25
2, 7825, Control_c, 0, 64, 14
2, 7847, Control_c, 0, 64, 0
2, 8012, Note_on_c, 0, 60, 62
2, 8043, Note_on_c, 0, 65, 0
2, 8057, Control_c, 0, 64, 11
2, 8076, Control_c, 0, 64, 33
2, 8095, Control_c, 0, 64, 45
2, 8114, Control_c, 0, 64, 53
2, 8134, Control_c, 0, 64, 57
2, 8154, Control_c, 0, 64, 60
2, 8171, Control_c, 0, 64, 61
2, 8191, Control_c, 0, 64, 62
2, 8229, Control_c, 0, 64, 63
2, 8249, Control_c, 0, 64, 64
2, 8262, Note_on_c, 0, 70, 74
2, 8269, Control_c, 0, 64, 65
2, 8277, Note_on_c, 0, 65, 46
2, 8287, Control_c, 0, 64, 67
2, 8306, Control_c, 0, 64, 69
2, 8325, Control_c, 0, 64, 70
2, 8329, Note_on_c, 0, 68, 0
2, 8338, Note_on_c, 0, 53, 0
2, 8345, Control_c, 0, 64, 72
2, 8364, Control_c, 0, 64, 74
2, 8384, Control_c, 0, 64, 77
2, 8404, Control_c, 0, 64, 79
2, 8424, Control_c, 0, 64, 80
2, 8460, Control_c, 0, 64, 79
2, 8499, Control_c, 0, 64, 78
2, 8518, Control_c, 0, 64, 77
2, 8518, Note_on_c, 0, 70, 0
2, 8541, Control_c, 0, 64, 76
2, 8541, Note_on_c, 0, 72, 59
2, 8549, Note_on_c, 0, 55, 46
2, 8556, Control_c, 0, 64, 75
2, 8575, Control_c, 0, 64, 73
2, 8584, Note_on_c, 0, 65, 0
2, 8594, Control_c, 0, 64, 71
2, 8615, Control_c, 0, 64, 69
2, 8632, Control_c, 0, 64, 67
2, 8653, Note_on_c, 0, 72, 0
2, 8658, Note_on_c, 0, 56, 0
2, 8671, Control_c, 0, 64, 66
2, 8674, Note_on_c, 0, 70, 57
2, 8729, Control_c, 0, 64, 65
2, 8733, Note_on_c, 0, 60, 0
2, 8755, Note_on_c, 0, 70, 0
2, 8789, Note_on_c, 0, 72, 65
2, 8806, Control_c, 0, 64, 64
2, 8812, Note_on_c, 0, 65, 40
2, 8834, Note_on_c, 0, 72, 0
2, 8865, Control_c, 0, 64, 63
2, 8865, Note_on_c, 0, 70, 61
2, 8899, Note_on_c, 0, 70, 0
2, 8908, Note_on_c, 0, 72, 63
2, 8921, Control_c, 0, 64, 62
2, 8960, Control_c, 0, 64, 61
2, 8960, Note_on_c, 0, 72, 0
2, 8979, Control_c, 0, 64, 60
2, 8985, Note_on_c, 0, 70, 70
2, 8998, Control_c, 0, 64, 59
2, 9018, Control_c, 0, 64, 58
2, 9038, Note_on_c, 0, 70, 0
2, 9038, Note_on_c, 0, 72, 64
2, 9042, Note_on_c, 0, 64, 53
2, 9056, Control_c, 0, 64, 57
2, 9082, Note_on_c, 0, 65, 0
2, 9094, Control_c, 0, 64, 55
2, 9113, Note_on_c, 0, 72, 0
2, 9118, Control_c, 0, 64, 53
2, 9132, Control_c, 0, 64, 52
2, 9140, Note_on_c, 0, 70, 70
2, 9150, Control_c, 0, 64, 51
2, 9170, Control_c, 0, 64, 50
2, 9188, Control_c, 0, 64, 48
2, 9210, Control_c, 0, 64, 46
2, 9232, Control_c, 0, 64, 43
2, 9248, Control_c, 0, 64, 40
2, 9269, Control_c, 0, 64, 38
2, 9269, Note_on_c, 0, 70, 0
2, 9281, Note_on_c, 0, 68, 68
2, 9287, Control_c, 0, 64, 37
2, 9292, Note_on_c, 0, 67, 55
2, 9296, Note_on_c, 0, 64, 0
2, 9305, Control_c, 0, 64, 34
2, 9325, Control_c, 0, 64, 29
2, 9343, Control_c, 0, 64, 13
2, 9363, Control_c, 0, 64, 0
2, 9376, Note_on_c, 0, 68, 0
2, 9376, Note_on_c, 0, 70, 71
2, 9573, Note_on_c, 0, 72, 66
2, 9604, Note_on_c, 0, 56, 43
2, 9622, Note_on_c, 0, 70, 0
2, 9712, Note_on_c, 0, 55, 0
2, 9739, Note_on_c, 0, 67, 0
2, 9882, Note_on_c, 0, 68, 61
2, 10127, Note_on_c, 0, 64, 59
2, 10132, Note_on_c, 0, 68, 0
2, 10353, Note_on_c, 0, 64, 0
2, 10382, Note_on_c, 0, 65, 52
2, 10642, Note_on_c, 0, 61, 46
2, 10649, Note_on_c, 0, 58, 38
2, 10704, Note_on_c, 0, 65, 0
2, 10720, Note_on_c, 0, 56, 0
2, 10720, Note_on_c, 0, 72, 0
2, 10890, Note_on_c, 0, 73, 59
2, 11072, Control_c, 0, 64, 22
2, 11091, Control_c, 0, 64, 35
2, 11110, Control_c, 0, 64, 43
2, 11130, Control_c, 0, 64, 49
2, 11150, Control_c, 0, 64, 54
2, 11154, Note_on_c, 0, 67, 60
2, 11168, Control_c, 0, 64, 57
2, 11179, Note_on_c, 0, 73, 0
2, 11188, Control_c, 0, 64, 60
2, 11207, Control_c, 0, 64, 61
2, 11224, Control_c, 0, 64, 62
2, 11244, Control_c, 0, 64, 64
2, 11262, Control_c, 0, 64, 66
2, 11282, Control_c, 0, 64, 69
2, 11304, Control_c, 0, 64, 73
2, 11320, Control_c, 0, 64, 78
2, 11341, Control_c, 0, 64, 83
2, 11360, Control_c, 0, 64, 89
2, 11378, Control_c, 0, 64, 96
2, 11398, Control_c, 0, 64, 104
2, 11408, Note_on_c, 0, 70, 70
2, 11414, Note_on_c, 0, 58, 0
2, 11418, Control_c, 0, 64, 120
2, 11423, Note_on_c, 0, 61, 0
2, 11436, Control_c, 0, 64, 127
2, 11551, Control_c, 0, 64, 115
2, 11572, Control_c, 0, 64, 106
2, 11589, Control_c, 0, 64, 97
2, 11610, Control_c, 0, 64, 90
2, 11629, Control_c, 0, 64, 84
2, 11634, Note_on_c, 0, 48, 49
2, 11646, Control_c, 0, 64, 79
2, 11667, Control_c, 0, 64, 75
2, 11685, Control_c, 0, 64, 72
2, 11706, Control_c, 0, 64, 69
2, 11723, Control_c, 0, 64, 66
2, 11728, Note_on_c, 0, 64, 64
2, 11735, Note_on_c, 0, 60, 53
2, 11742, Control_c, 0, 64, 64
2, 11761, Control_c, 0, 64, 63
2, 11782, Control_c, 0, 64, 62
2, 11802, Control_c, 0, 64, 61
2, 11810, Note_on_c, 0, 67, 0
2, 11821, Note_on_c, 0, 70, 0
2, 11841, Control_c, 0, 64, 60
2, 11859, Control_c, 0, 64, 59
2, 11877, Control_c, 0, 64, 58
2, 11898, Control_c, 0, 64, 57
2, 11934, Control_c, 0, 64, 56
2, 11955, Control_c, 0, 64, 55
2, 11974, Control_c, 0, 64, 53
2, 11982, Note_on_c, 0, 52, 61
2, 11993, Control_c, 0, 64, 51
2, 12012, Control_c, 0, 64, 48
2, 12032, Control_c, 0, 64, 45
2, 12051, Control_c, 0, 64, 39
2, 12071, Control_c, 0, 64, 28
2, 12088, Control_c, 0, 64, 0
2, 12242, Control_c, 0, 64, 28
2, 12247, Note_on_c, 0, 55, 66
2, 12260, Control_c, 0, 64, 40
2, 12281, Control_c, 0, 64, 49
2, 12303, Control_c, 0, 64, 52
2, 12318, Control_c, 0, 64, 54
2, 12328, Note_on_c, 0, 60, 0
2, 12339, Control_c, 0, 64, 57
2, 12358, Control_c, 0, 64, 58
2, 12376, Control_c, 0, 64, 60
2, 12390, Note_on_c, 0, 52, 0
2, 12398, Control_c, 0, 64, 61
2, 12415, Control_c, 0, 64, 62
2, 12438, Control_c, 0, 64, 63
2, 12453, Control_c, 0, 64, 64
2, 12483, Note_on_c, 0, 65, 67
2, 12492, Control_c, 0, 64, 65
2, 12492, Note_on_c, 0, 60, 60
2, 12513, Control_c, 0, 64, 67
2, 12531, Control_c, 0, 64, 68
2, 12549, Control_c, 0, 64, 70
2, 12572, Control_c, 0, 64, 71
2, 12572, Note_on_c, 0, 64, 0
2, 12588, Control_c, 0, 64, 72
2, 12626, Control_c, 0, 64, 71
2, 12664, Control_c, 0, 64, 70
2, 12726, Control_c, 0, 64, 69
2, 12741, Control_c, 0, 64, 68
2, 12750, Note_on_c, 0, 49, 55
2, 12763, Control_c, 0, 64, 67
2, 12763, Note_on_c, 0, 67, 63
2, 12767, Note_on_c, 0, 65, 0
2, 12781, Control_c, 0, 64, 66
2, 12787, Note_on_c, 0, 48, 0
2, 12801, Control_c, 0, 64, 65
2, 12818, Control_c, 0, 64, 64
2, 12823, Note_on_c, 0, 60, 0
2, 12858, Control_c, 0, 64, 63
2, 12882, Note_on_c, 0, 55, 0
2, 12889, Note_on_c, 0, 67, 0
2, 12895, Control_c, 0, 64, 62
2, 12909, Note_on_c, 0, 65, 64
2, 12973, Control_c, 0, 64, 61
2, 12992, Note_on_c, 0, 65, 0
2, 13006, Note_on_c, 0, 60, 51
2, 13010, Control_c, 0, 64, 60
2, 13028, Note_on_c, 0, 67, 62
2, 13070, Note_on_c, 0, 67, 0
2, 13088, Control_c, 0, 64, 59
2, 13090, Note_on_c, 0, 65, 60
2, 13126, Control_c, 0, 64, 58
2, 13138, Note_on_c, 0, 65, 0
2, 13148, Note_on_c, 0, 67, 57
2, 13198, Note_on_c, 0, 67, 0
2, 13206, Control_c, 0, 64, 57
2, 13214, Note_on_c, 0, 65, 61
2, 13220, Note_on_c, 0, 58, 59
2, 13224, Control_c, 0, 64, 56
2, 13226, Note_on_c, 0, 60, 0
2, 13243, Control_c, 0, 64, 55
2, 13260, Control_c, 0, 64, 54
2, 13281, Note_on_c, 0, 65, 0
2, 13290, Note_on_c, 0, 67, 65
2, 13299, Control_c, 0, 64, 53
2, 13320, Control_c, 0, 64, 52
2, 13339, Control_c, 0, 64, 50
2, 13356, Control_c, 0, 64, 48
2, 13363, Note_on_c, 0, 67, 0
2, 13372, Note_on_c, 0, 65, 60
2, 13376, Control_c, 0, 64, 46
2, 13394, Control_c, 0, 64, 45
2, 13412, Control_c, 0, 64, 44
2, 13434, Control_c, 0, 64, 41
2, 13438, Note_on_c, 0, 61, 54
2, 13455, Control_c, 0, 64, 38
2, 13455, Note_on_c, 0, 58, 0
2, 13472, Note_on_c, 0, 65, 0
2, 13477, Control_c, 0, 64, 34
2, 13477, Note_on_c, 0, 64, 76
2, 13490, Control_c, 0, 64, 30
2, 13510, Control_c, 0, 64, 27
2, 13528, Control_c, 0, 64, 24
2, 13547, Control_c, 0, 64, 22
2, 13568, Control_c, 0, 64, 18
2, 13573, Note_on_c, 0, 64, 0
2, 13580, Note_on_c, 0, 65, 72
2, 13587, Control_c, 0, 64, 13
2, 13604, Control_c, 0, 64, 0
2, 13743, Note_on_c, 0, 52, 56
2, 13750, Note_on_c, 0, 67, 62
2, 13765, Note_on_c, 0, 65, 0
2, 13867, Note_on_c, 0, 49, 0
2, 13870, Note_on_c, 0, 61, 0
2, 14031, Note_on_c, 0, 72, 75
2, 14290, Note_on_c, 0, 70, 73
2, 14294, Note_on_c, 0, 55, 67
2, 14336, Note_on_c, 0, 72, 0
2, 14393, Control_c, 0, 64, 14
2, 14415, Control_c, 0, 64, 28
2, 14429, Control_c, 0, 64, 40
2, 14451, Control_c, 0, 64, 50
2, 14470, Control_c, 0, 64, 56
2, 14488, Control_c, 0, 64, 59
2, 14510, Control_c, 0, 64, 61
2, 14528, Control_c, 0, 64, 62
2, 14537, Note_on_c, 0, 73, 82
2, 14549, Control_c, 0, 64, 63
2, 14567, Control_c, 0, 64, 64
2, 14588, Note_on_c, 0, 67, 0
2, 14589, Control_c, 0, 64, 66
2, 14593, Note_on_c, 0, 70, 0
2, 14607, Control_c, 0, 64, 67
2, 14623, Control_c, 0, 64, 69
2, 14643, Control_c, 0, 64, 70
2, 14664, Control_c, 0, 64, 71
2, 14719, Control_c, 0, 64, 70
2, 14738, Control_c, 0, 64, 69
2, 14757, Control_c, 0, 64, 67
2, 14778, Control_c, 0, 64, 65
2, 14797, Control_c, 0, 64, 64
2, 14819, Control_c, 0, 64, 63
2, 14819, Note_on_c, 0, 60, 64
2, 14819, Note_on_c, 0, 64, 77
2, 14834, Control_c, 0, 64, 62
2, 14856, Control_c, 0, 64, 61
2, 14871, Control_c, 0, 64, 60
2, 14893, Control_c, 0, 64, 58
2, 14904, Note_on_c, 0, 73, 0
2, 14913, Control_c, 0, 64, 57
2, 14932, Control_c, 0, 64, 55
2, 14946, Note_on_c, 0, 52, 0
2, 14950, Control_c, 0, 64, 53
2, 14968, Note_on_c, 0, 55, 0
2, 14972, Control_c, 0, 64, 51
2, 14989, Control_c, 0, 64, 49
2, 15006, Control_c, 0, 64, 46
2, 15026, Control_c, 0, 64, 43
2, 15048, Control_c, 0, 64, 40
2, 15063, Control_c, 0, 64, 38
2, 15074, Note_on_c, 0, 73, 79
2, 15083, Control_c, 0, 64, 35
2, 15103, Control_c, 0, 64, 32
2, 15121, Control_c, 0, 64, 28
2, 15140, Control_c, 0, 64, 25
2, 15159, Control_c, 0, 64, 18
2, 15179, Control_c, 0, 64, 0
2, 15328, Note_on_c, 0, 72, 80
2, 15343, Note_on_c, 0, 48, 66
2, 15392, Control_c, 0, 64, 27
2, 15410, Control_c, 0, 64, 43
2, 15429, Control_c, 0, 64, 54
2, 15451, Control_c, 0, 64, 60
2, 15467, Control_c, 0, 64, 62
2, 15491, Control_c, 0, 64, 64
2, 15508, Control_c, 0, 64, 67
2, 15508, Note_on_c, 0, 60, 0
2, 15525, Control_c, 0, 64, 72
2, 15534, Note_on_c, 0, 73, 0
2, 15545, Control_c, 0, 64, 82
2, 15565, Control_c, 0, 64, 94
2, 15582, Control_c, 0, 64, 113
2, 15593, Note_on_c, 0, 70, 85
2, 15602, Control_c, 0, 64, 127
2, 15612, Note_on_c, 0, 48, 0
2, 15707, Note_on_c, 0, 64, 0
2, 15712, Note_on_c, 0, 72, 0
2, 15776, Control_c, 0, 64, 122
2, 15794, Control_c, 0, 64, 110
2, 15813, Control_c, 0, 64, 103
2, 15833, Control_c, 0, 64, 97
2, 15852, Control_c, 0, 64, 91
2, 15857, Note_on_c, 0, 41, 62
2, 15871, Control_c, 0, 64, 85
2, 15890, Control_c, 0, 64, 79
2, 15913, Control_c, 0, 64, 74
2, 15928, Control_c, 0, 64, 70
2, 15935, Note_on_c, 0, 69, 70
2, 15948, Control_c, 0, 64, 67
2, 15968, Control_c, 0, 64, 65
2, 15968, Note_on_c, 0, 63, 59
2, 15989, Control_c, 0, 64, 64
2, 16009, Control_c, 0, 64, 62
2, 16018, Note_on_c, 0, 70, 0
2, 16025, Control_c, 0, 64, 61
2, 16043, Control_c, 0, 64, 59
2, 16063, Control_c, 0, 64, 58
2, 16083, Control_c, 0, 64, 57
2, 16101, Control_c, 0, 64, 55
2, 16121, Control_c, 0, 64, 54
2, 16142, Control_c, 0, 64, 53
2, 16160, Control_c, 0, 64, 51
2, 16178, Control_c, 0, 64, 48
2, 16200, Control_c, 0, 64, 46
2, 16200, Note_on_c, 0, 45, 64
2, 16220, Control_c, 0, 64, 43
2, 16236, Control_c, 0, 64, 40
2, 16256, Control_c, 0, 64, 37
2, 16276, Control_c, 0, 64, 32
2, 16297, Control_c, 0, 64, 23
2, 16315, Control_c, 0, 64, 0
2, 16450, Note_on_c, 0, 48, 73
2, 16522, Note_on_c, 0, 45, 0
2, 16581, Control_c, 0, 64, 15
2, 16602, Control_c, 0, 64, 30
2, 16619, Control_c, 0, 64, 41
2, 16640, Control_c, 0, 64, 49
2, 16657, Control_c, 0, 64, 54
2, 16678, Control_c, 0, 64, 56
2, 16696, Note_on_c, 0, 70, 77
2, 16701, Control_c, 0, 64, 57
2, 16705, Note_on_c, 0, 53, 68
2, 16716, Control_c, 0, 64, 58
2, 16734, Control_c, 0, 64, 60
2, 16743, Note_on_c, 0, 69, 0
2, 16756, Control_c, 0, 64, 61
2, 16774, Control_c, 0, 64, 62
2, 16801, Note_on_c, 0, 63, 0
2, 16813, Control_c, 0, 64, 63
2, 16831, Control_c, 0, 64, 64
2, 16964, Note_on_c, 0, 42, 58
2, 16975, Note_on_c, 0, 41, 0
2, 16996, Note_on_c, 0, 72, 70
2, 17001, Note_on_c, 0, 70, 0
2, 17023, Control_c, 0, 64, 63
2, 17028, Note_on_c, 0, 61, 53
2, 17049, Note_on_c, 0, 53, 0
2, 17095, Note_on_c, 0, 48, 0
2, 17121, Note_on_c, 0, 72, 0
2, 17141, Note_on_c, 0, 70, 69
2, 17196, Control_c, 0, 64, 62
2, 17219, Note_on_c, 0, 70, 0
2, 17242, Note_on_c, 0, 53, 51
2, 17242, Note_on_c, 0, 72, 66
2, 17274, Control_c, 0, 64, 61
2, 17289, Note_on_c, 0, 70, 61
2, 17311, Control_c, 0, 64, 60
2, 17329, Control_c, 0, 64, 59
2, 17346, Note_on_c, 0, 72, 0
2, 17346, Note_on_c, 0, 72, 61
2, 17350, Control_c, 0, 64, 58
2, 17356, Note_on_c, 0, 70, 0
2, 17389, Control_c, 0, 64, 56
2, 17405, Control_c, 0, 64, 55
2, 17425, Control_c, 0, 64, 52
2, 17427, Note_on_c, 0, 70, 59
2, 17448, Control_c, 0, 64, 49
2, 17448, Note_on_c, 0, 72, 0
2, 17465, Control_c, 0, 64, 42
2, 17469, Note_on_c, 0, 51, 64
2, 17472, Note_on_c, 0, 53, 0
2, 17485, Control_c, 0, 64, 34
2, 17507, Control_c, 0, 64, 18
2, 17524, Control_c, 0, 64, 0
2, 17727, Note_on_c, 0, 69, 62
2, 17736, Note_on_c, 0, 54, 52
2, 17780, Note_on_c, 0, 70, 0
2, 17795, Note_on_c, 0, 51, 0
2, 17820, Note_on_c, 0, 70, 53
2, 17829, Note_on_c, 0, 69, 0
2, 18013, Note_on_c, 0, 45, 47
2, 18024, Note_on_c, 0, 70, 0
2, 18039, Note_on_c, 0, 72, 60
2, 18085, Note_on_c, 0, 42, 0
2, 18152, Note_on_c, 0, 54, 0
2, 18283, Note_on_c, 0, 61, 0
2, 18350, Note_on_c, 0, 65, 49
2, 18607, Note_on_c, 0, 63, 44
2, 18616, Note_on_c, 0, 48, 41
2, 18636, Note_on_c, 0, 65, 0
2, 18788, Control_c, 0, 64, 16
2, 18807, Control_c, 0, 64, 32
2, 18827, Control_c, 0, 64, 43
2, 18843, Control_c, 0, 64, 51
2, 18862, Note_on_c, 0, 66, 55
2, 18865, Control_c, 0, 64, 55
2, 18882, Control_c, 0, 64, 58
2, 18906, Control_c, 0, 64, 59
2, 18906, Note_on_c, 0, 45, 0
2, 18914, Note_on_c, 0, 63, 0
2, 18921, Control_c, 0, 64, 61
2, 18941, Control_c, 0, 64, 63
2, 18959, Control_c, 0, 64, 64
2, 18978, Control_c, 0, 64, 66
2, 19016, Control_c, 0, 64, 67
2, 19112, Control_c, 0, 64, 66
2, 19138, Note_on_c, 0, 45, 44
2, 19149, Note_on_c, 0, 66, 0
2, 19152, Control_c, 0, 64, 65
2, 19169, Control_c, 0, 64, 64
2, 19208, Control_c, 0, 64, 63
2, 19228, Control_c, 0, 64, 62
2, 19248, Control_c, 0, 64, 61
2, 19252, Note_on_c, 0, 48, 0
2, 19286, Control_c, 0, 64, 60
2, 19304, Control_c, 0, 64, 59
2, 19347, Control_c, 0, 64, 58
2, 19382, Control_c, 0, 64, 57
2, 19387, Note_on_c, 0, 66, 50
2, 19420, Control_c, 0, 64, 56
2, 19438, Control_c, 0, 64, 55
2, 19461, Control_c, 0, 64, 54
2, 19497, Control_c, 0, 64, 53
2, 19515, Control_c, 0, 64, 52
2, 19534, Control_c, 0, 64, 51
2, 19574, Control_c, 0, 64, 50
2, 19591, Control_c, 0, 64, 49
2, 19610, Control_c, 0, 64, 48
2, 19633, Control_c, 0, 64, 46
2, 19645, Note_on_c, 0, 65, 45
2, 19655, Control_c, 0, 64, 44
2, 19655, Note_on_c, 0, 41, 37
2, 19659, Note_on_c, 0, 66, 0
2, 19673, Control_c, 0, 64, 41
2, 19689, Control_c, 0, 64, 38
2, 19709, Control_c, 0, 64, 33
2, 19727, Control_c, 0, 64, 29
2, 19749, Control_c, 0, 64, 26
2, 19769, Control_c, 0, 64, 24
2, 19786, Control_c, 0, 64, 22
2, 19806, Control_c, 0, 64, 20
2, 19882, Note_on_c, 0, 65, 0
2, 19915, Note_on_c, 0, 63, 53
2, 20204, Note_on_c, 0, 61, 44
2, 20209, Note_on_c, 0, 63, 0
2, 20228, Note_on_c, 0, 46, 35
2, 20317, Note_on_c, 0, 72, 0
2, 20349, Note_on_c, 0, 41, 0
2, 20423, Note_on_c, 0, 45, 0
2, 20450, Note_on_c, 0, 72, 61
2, 20712, Note_on_c, 0, 70, 66
2, 20760, Note_on_c, 0, 72, 0
2, 20962, Note_on_c, 0, 73, 76
2, 21036, Note_on_c, 0, 70, 0
2, 21054, Control_c, 0, 64, 19
2, 21074, Control_c, 0, 64, 17
2, 21091, Control_c, 0, 64, 10
2, 21109, Control_c, 0, 64, 0
2, 21215, Note_on_c, 0, 67, 68
2, 21280, Note_on_c, 0, 73, 0
2, 21301, Control_c, 0, 64, 20
2, 21313, Note_on_c, 0, 46, 0
2, 21322, Control_c, 0, 64, 30
2, 21342, Control_c, 0, 64, 38
2, 21358, Control_c, 0, 64, 46
2, 21377, Control_c, 0, 64, 51
2, 21399, Control_c, 0, 64, 55
2, 21417, Control_c, 0, 64, 58
2, 21436, Control_c, 0, 64, 60
2, 21447, Note_on_c, 0, 46, 51
2, 21459, Control_c, 0, 64, 61
2, 21475, Control_c, 0, 64, 63
2, 21495, Control_c, 0, 64, 64
2, 21512, Control_c, 0, 64, 66
2, 21532, Control_c, 0, 64, 67
2, 21551, Control_c, 0, 64, 69
2, 21573, Control_c, 0, 64, 71
2, 21589, Control_c, 0, 64, 73
2, 21610, Control_c, 0, 64, 74
2, 21687, Note_on_c, 0, 67, 0
2, 21688, Note_on_c, 0, 70, 59
2, 21710, Note_on_c, 0, 48, 40
2, 21747, Control_c, 0, 64, 73
2, 21747, Note_on_c, 0, 70, 0
2, 21767, Note_on_c, 0, 68, 57
2, 21789, Note_on_c, 0, 46, 0
2, 21800, Control_c, 0, 64, 72
2, 21814, Note_on_c, 0, 68, 0
2, 21823, Control_c, 0, 64, 71
2, 21843, Control_c, 0, 64, 70
2, 21843, Note_on_c, 0, 70, 53
2, 21878, Control_c, 0, 64, 69
2, 21896, Control_c, 0, 64, 68
2, 21907, Note_on_c, 0, 68, 72
2, 21907, Note_on_c, 0, 70, 0
2, 21918, Control_c, 0, 64, 67
2, 21922, Note_on_c, 0, 49, 43
2, 21936, Control_c, 0, 64, 66
2, 21947, Note_on_c, 0, 68, 0
2, 21971, Note_on_c, 0, 67, 63
2, 21992, Control_c, 0, 64, 65
2, 22016, Note_on_c, 0, 48, 0
2, 22031, Control_c, 0, 64, 64
2, 22047, Note_on_c, 0, 67, 0
2, 22056, Note_on_c, 0, 68, 71
2, 22069, Control_c, 0, 64, 63
2, 22107, Control_c, 0, 64, 62
2, 22112, Note_on_c, 0, 68, 0
2, 22126, Control_c, 0, 64, 60
2, 22141, Note_on_c, 0, 70, 60
2, 22145, Control_c, 0, 64, 55
2, 22166, Control_c, 0, 64, 48
2, 22170, Note_on_c, 0, 43, 47
2, 22179, Note_on_c, 0, 49, 0
2, 22185, Control_c, 0, 64, 37
2, 22202, Control_c, 0, 64, 29
2, 22224, Control_c, 0, 64, 22
2, 22224, Note_on_c, 0, 61, 0
2, 22241, Control_c, 0, 64, 18
2, 22261, Control_c, 0, 64, 17
2, 22358, Control_c, 0, 64, 18
2, 22404, Note_on_c, 0, 60, 53
2, 22455, Control_c, 0, 64, 19
2, 22530, Control_c, 0, 64, 20
2, 22664, Note_on_c, 0, 60, 0
2, 22677, Note_on_c, 0, 43, 0
2, 22677, Note_on_c, 0, 61, 47
2, 22682, Note_on_c, 0, 46, 45
2, 22706, Control_c, 0, 64, 21
2, 22722, Control_c, 0, 64, 22
2, 22778, Control_c, 0, 64, 23
2, 22915, Note_on_c, 0, 61, 0
2, 22923, Note_on_c, 0, 65, 47
2, 22993, Control_c, 0, 64, 22
2, 23125, Control_c, 0, 64, 23
2, 23145, Control_c, 0, 64, 30
2, 23163, Control_c, 0, 64, 40
2, 23182, Control_c, 0, 64, 50
2, 23193, Note_on_c, 0, 65, 0
2, 23198, Note_on_c, 0, 51, 43
2, 23205, Control_c, 0, 64, 58
2, 23209, Note_on_c, 0, 55, 35
2, 23220, Control_c, 0, 64, 61
2, 23225, Note_on_c, 0, 46, 0
2, 23243, Control_c, 0, 64, 63
2, 23260, Control_c, 0, 64, 64
2, 23282, Control_c, 0, 64, 65
2, 23297, Control_c, 0, 64, 67
2, 23318, Control_c, 0, 64, 69
2, 23337, Control_c, 0, 64, 72
2, 23356, Control_c, 0, 64, 75
2, 23374, Control_c, 0, 64, 77
2, 23394, Control_c, 0, 64, 78
2, 23406, Note_on_c, 0, 55, 0
2, 23415, Control_c, 0, 64, 79
2, 23444, Note_on_c, 0, 51, 0
2, 23456, Note_on_c, 0, 65, 45
2, 23510, Control_c, 0, 64, 78
2, 23547, Control_c, 0, 64, 77
2, 23567, Control_c, 0, 64, 76
2, 23586, Control_c, 0, 64, 75
2, 23606, Control_c, 0, 64, 74
2, 23626, Control_c, 0, 64, 73
2, 23643, Control_c, 0, 64, 72
2, 23664, Control_c, 0, 64, 70
2, 23682, Control_c, 0, 64, 67
2, 23702, Control_c, 0, 64, 60
2, 23722, Control_c, 0, 64, 52
2, 23722, Note_on_c, 0, 65, 0
2, 23740, Control_c, 0, 64, 42
2, 23763, Control_c, 0, 64, 33
2, 23763, Note_on_c, 0, 39, 35
2, 23763, Note_on_c, 0, 63, 38
2, 23779, Control_c, 0, 64, 32
2, 23798, Control_c, 0, 64, 35
2, 23817, Control_c, 0, 64, 43
2, 23836, Control_c, 0, 64, 55
2, 23855, Control_c, 0, 64, 61
2, 23874, Control_c, 0, 64, 64
2, 23892, Control_c, 0, 64, 65
2, 23913, Control_c, 0, 64, 67
2, 23925, Note_on_c, 0, 39, 0
2, 23931, Control_c, 0, 64, 69
2, 23949, Control_c, 0, 64, 72
2, 23970, Control_c, 0, 64, 76
2, 23989, Control_c, 0, 64, 81
2, 24008, Control_c, 0, 64, 85
2, 24030, Control_c, 0, 64, 87
2, 24046, Note_on_c, 0, 61, 43
2, 24050, Control_c, 0, 64, 88
2, 24068, Note_on_c, 0, 63, 0
2, 24085, Control_c, 0, 64, 87
2, 24124, Control_c, 0, 64, 86
2, 24143, Control_c, 0, 64, 85
2, 24181, Control_c, 0, 64, 83
2, 24201, Control_c, 0, 64, 82
2, 24220, Control_c, 0, 64, 81
2, 24239, Control_c, 0, 64, 79
2, 24257, Control_c, 0, 64, 78
2, 24278, Control_c, 0, 64, 77
2, 24298, Control_c, 0, 64, 76
2, 24316, Control_c, 0, 64, 75
2, 24335, Control_c, 0, 64, 73
2, 24356, Control_c, 0, 64, 71
2, 24374, Control_c, 0, 64, 70
2, 24392, Control_c, 0, 64, 68
2, 24412, Control_c, 0, 64, 67
2, 24416, Note_on_c, 0, 60, 39
2, 24427, Note_on_c, 0, 61, 0
2, 24431, Control_c, 0, 64, 66
2, 24450, Control_c, 0, 64, 65
2, 24457, Note_on_c, 0, 44, 18
2, 24470, Control_c, 0, 64, 64
2, 24492, Control_c, 0, 64, 63
2, 24509, Control_c, 0, 64, 62
2, 24527, Control_c, 0, 64, 61
2, 24546, Control_c, 0, 64, 59
2, 24566, Control_c, 0, 64, 58
2, 24586, Control_c, 0, 64, 57
2, 24606, Control_c, 0, 64, 56
2, 24622, Control_c, 0, 64, 55
2, 24643, Control_c, 0, 64, 54
2, 24662, Control_c, 0, 64, 52
2, 24680, Control_c, 0, 64, 50
2, 24700, Control_c, 0, 64, 48
2, 24720, Control_c, 0, 64, 46
2, 24738, Control_c, 0, 64, 45
2, 24742, Note_on_c, 0, 68, 52
2, 24758, Control_c, 0, 64, 44
2, 24771, Note_on_c, 0, 48, 26
2, 24776, Note_on_c, 0, 70, 0
2, 24780, Control_c, 0, 64, 43
2, 24795, Control_c, 0, 64, 40
2, 24815, Control_c, 0, 64, 36
2, 24833, Control_c, 0, 64, 32
2, 24854, Control_c, 0, 64, 28
2, 24873, Control_c, 0, 64, 25
2, 24891, Control_c, 0, 64, 24
2, 24912, Control_c, 0, 64, 23
2, 25008, Control_c, 0, 64, 26
2, 25027, Control_c, 0, 64, 30
2, 25041, Note_on_c, 0, 72, 64
2, 25046, Control_c, 0, 64, 35
2, 25059, Note_on_c, 0, 51, 42
2, 25061, Note_on_c, 0, 68, 0
2, 25066, Control_c, 0, 64, 41
2, 25086, Control_c, 0, 64, 49
2, 25086, Note_on_c, 0, 48, 0
2, 25104, Control_c, 0, 64, 55
2, 25124, Control_c, 0, 64, 58
2, 25142, Control_c, 0, 64, 60
2, 25160, Control_c, 0, 64, 61
2, 25177, Note_on_c, 0, 60, 0
2, 25182, Control_c, 0, 64, 62
2, 25200, Control_c, 0, 64, 64
2, 25219, Control_c, 0, 64, 65
2, 25237, Control_c, 0, 64, 67
2, 25258, Control_c, 0, 64, 69
2, 25276, Control_c, 0, 64, 72
2, 25294, Control_c, 0, 64, 76
2, 25298, Note_on_c, 0, 56, 48
2, 25315, Control_c, 0, 64, 81
2, 25333, Control_c, 0, 64, 85
2, 25354, Control_c, 0, 64, 89
2, 25372, Control_c, 0, 64, 90
2, 25466, Control_c, 0, 64, 89
2, 25488, Control_c, 0, 64, 88
2, 25506, Control_c, 0, 64, 86
2, 25526, Control_c, 0, 64, 85
2, 25544, Note_on_c, 0, 61, 52
2, 25548, Control_c, 0, 64, 84
2, 25557, Note_on_c, 0, 46, 53
2, 25564, Control_c, 0, 64, 83
2, 25578, Note_on_c, 0, 44, 0
2, 25583, Control_c, 0, 64, 80
2, 25601, Note_on_c, 0, 56, 0
2, 25605, Control_c, 0, 64, 78
2, 25622, Control_c, 0, 64, 76
2, 25639, Control_c, 0, 64, 73
2, 25659, Control_c, 0, 64, 71
2, 25682, Control_c, 0, 64, 69
2, 25682, Note_on_c, 0, 51, 0
2, 25696, Control_c, 0, 64, 67
2, 25718, Control_c, 0, 64, 65
2, 25736, Control_c, 0, 64, 64
2, 25756, Control_c, 0, 64, 63
2, 25796, Control_c, 0, 64, 62
2, 25796, Note_on_c, 0, 70, 68
2, 25810, Note_on_c, 0, 56, 45
2, 25815, Control_c, 0, 64, 61
2, 25832, Control_c, 0, 64, 60
2, 25851, Control_c, 0, 64, 58
2, 25860, Note_on_c, 0, 72, 0
2, 25871, Control_c, 0, 64, 57
2, 25910, Control_c, 0, 64, 56
2, 25930, Control_c, 0, 64, 55
2, 25948, Control_c, 0, 64, 53
2, 25969, Control_c, 0, 64, 51
2, 25986, Control_c, 0, 64, 49
2, 26006, Control_c, 0, 64, 47
2, 26025, Control_c, 0, 64, 44
2, 26045, Control_c, 0, 64, 35
2, 26063, Control_c, 0, 64, 20
2, 26070, Note_on_c, 0, 73, 75
2, 26081, Control_c, 0, 64, 0
2, 26096, Note_on_c, 0, 55, 53
2, 26123, Note_on_c, 0, 70, 0
2, 26134, Note_on_c, 0, 56, 0
2, 26179, Control_c, 0, 64, 10
2, 26200, Control_c, 0, 64, 31
2, 26216, Control_c, 0, 64, 46
2, 26238, Control_c, 0, 64, 55
2, 26256, Control_c, 0, 64, 60
2, 26275, Control_c, 0, 64, 62
2, 26287, Note_on_c, 0, 61, 0
2, 26294, Control_c, 0, 64, 63
2, 26313, Control_c, 0, 64, 65
2, 26318, Note_on_c, 0, 58, 59
2, 26320, Note_on_c, 0, 46, 0
2, 26333, Control_c, 0, 64, 69
2, 26351, Control_c, 0, 64, 73
2, 26370, Control_c, 0, 64, 78
2, 26389, Control_c, 0, 64, 80
2, 26409, Control_c, 0, 64, 81
2, 26524, Control_c, 0, 64, 80
2, 26542, Control_c, 0, 64, 79
2, 26566, Note_on_c, 0, 48, 60
2, 26581, Note_on_c, 0, 63, 66
2, 26585, Control_c, 0, 64, 77
2, 26595, Note_on_c, 0, 55, 0
2, 26599, Control_c, 0, 64, 74
2, 26621, Control_c, 0, 64, 71
2, 26639, Control_c, 0, 64, 69
2, 26659, Control_c, 0, 64, 67
2, 26678, Control_c, 0, 64, 65
2, 26701, Control_c, 0, 64, 63
2, 26716, Control_c, 0, 64, 61
2, 26734, Control_c, 0, 64, 59
2, 26755, Control_c, 0, 64, 57
2, 26778, Control_c, 0, 64, 55
2, 26796, Control_c, 0, 64, 52
2, 26814, Control_c, 0, 64, 50
2, 26826, Note_on_c, 0, 51, 60
2, 26836, Control_c, 0, 64, 47
2, 26836, Note_on_c, 0, 72, 79
2, 26854, Control_c, 0, 64, 44
2, 26872, Control_c, 0, 64, 40
2, 26879, Note_on_c, 0, 73, 0
2, 26891, Control_c, 0, 64, 36
2, 26911, Control_c, 0, 64, 32
2, 26930, Control_c, 0, 64, 27
2, 26951, Control_c, 0, 64, 23
2, 26951, Note_on_c, 0, 58, 0
2, 26971, Control_c, 0, 64, 18
2, 26987, Control_c, 0, 64, 0
2, 27095, Note_on_c, 0, 75, 81
2, 27114, Note_on_c, 0, 56, 59
2, 27147, Note_on_c, 0, 72, 0
2, 27163, Note_on_c, 0, 51, 0
2, 27276, Control_c, 0, 64, 16
2, 27296, Control_c, 0, 64, 33
2, 27316, Control_c, 0, 64, 42
2, 27334, Control_c, 0, 64, 50
2, 27352, Control_c, 0, 64, 57
2, 27360, Note_on_c, 0, 63, 0
2, 27364, Note_on_c, 0, 60, 66
2, 27373, Control_c, 0, 64, 60
2, 27389, Control_c, 0, 64, 62
2, 27409, Control_c, 0, 64, 63
2, 27429, Control_c, 0, 64, 64
2, 27448, Control_c, 0, 64, 66
2, 27467, Control_c, 0, 64, 68
2, 27488, Control_c, 0, 64, 71
2, 27506, Control_c, 0, 64, 73
2, 27525, Control_c, 0, 64, 74
2, 27545, Control_c, 0, 64, 73
2, 27565, Control_c, 0, 64, 72
2, 27581, Control_c, 0, 64, 71
2, 27603, Control_c, 0, 64, 70
2, 27622, Note_on_c, 0, 65, 71
2, 27626, Note_on_c, 0, 49, 58
2, 27641, Control_c, 0, 64, 69
2, 27660, Control_c, 0, 64, 67
2, 27669, Note_on_c, 0, 48, 0
2, 27678, Control_c, 0, 64, 66
2, 27700, Control_c, 0, 64, 64
2, 27705, Note_on_c, 0, 60, 0
2, 27717, Control_c, 0, 64, 63
2, 27737, Control_c, 0, 64, 62
2, 27775, Control_c, 0, 64, 61
2, 27793, Control_c, 0, 64, 60
2, 27814, Control_c, 0, 64, 59
2, 27834, Control_c, 0, 64, 57
2, 27851, Control_c, 0, 64, 56
2, 27857, Note_on_c, 0, 56, 0
2, 27873, Control_c, 0, 64, 55
2, 27878, Note_on_c, 0, 60, 61
2, 27878, Note_on_c, 0, 73, 83
2, 27889, Control_c, 0, 64, 54
2, 27909, Control_c, 0, 64, 53
2, 27927, Note_on_c, 0, 75, 0
2, 27929, Control_c, 0, 64, 52
2, 27948, Control_c, 0, 64, 50
2, 27968, Control_c, 0, 64, 47
2, 27985, Control_c, 0, 64, 45
2, 28006, Control_c, 0, 64, 44
2, 28025, Control_c, 0, 64, 42
2, 28044, Control_c, 0, 64, 39
2, 28066, Control_c, 0, 64, 33
2, 28082, Control_c, 0, 64, 20
2, 28099, Control_c, 0, 64, 0
2, 28165, Note_on_c, 0, 58, 62
2, 28165, Note_on_c, 0, 77, 86
2, 28213, Note_on_c, 0, 73, 0
2, 28224, Note_on_c, 0, 60, 0
2, 28293, Control_c, 0, 64, 25
2, 28311, Control_c, 0, 64, 46
2, 28331, Control_c, 0, 64, 58
2, 28351, Control_c, 0, 64, 62
2, 28370, Control_c, 0, 64, 63
2, 28390, Control_c, 0, 64, 64
2, 28409, Control_c, 0, 64, 65
2, 28431, Control_c, 0, 64, 66
2, 28445, Note_on_c, 0, 61, 63
2, 28447, Control_c, 0, 64, 68
2, 28454, Note_on_c, 0, 49, 0
2, 28466, Note_on_c, 0, 65, 0
2, 28471, Control_c, 0, 64, 71
2, 28486, Control_c, 0, 64, 74
2, 28504, Control_c, 0, 64, 75
2, 28562, Control_c, 0, 64, 74
2, 28602, Control_c, 0, 64, 73
2, 28619, Control_c, 0, 64, 72
2, 28639, Control_c, 0, 64, 71
2, 28659, Control_c, 0, 64, 70
2, 28678, Control_c, 0, 64, 68
2, 28696, Control_c, 0, 64, 67
2, 28729, Note_on_c, 0, 51, 46
2, 28734, Control_c, 0, 64, 66
2, 28773, Control_c, 0, 64, 65
2, 28787, Note_on_c, 0, 67, 62
2, 28795, Control_c, 0, 64, 64
2, 28812, Control_c, 0, 64, 63
2, 28830, Control_c, 0, 64, 62
2, 28869, Control_c, 0, 64, 61
2, 28895, Note_on_c, 0, 61, 0
2, 28909, Control_c, 0, 64, 60
2, 28927, Control_c, 0, 64, 59
2, 28931, Note_on_c, 0, 58, 0
2, 28947, Control_c, 0, 64, 58
2, 29003, Control_c, 0, 64, 57
2, 29023, Control_c, 0, 64, 56
2, 29044, Control_c, 0, 64, 55
2, 29080, Control_c, 0, 64, 54
2, 29096, Note_on_c, 0, 75, 66
2, 29102, Note_on_c, 0, 55, 46
2, 29119, Control_c, 0, 64, 53
2, 29136, Control_c, 0, 64, 52
2, 29176, Control_c, 0, 64, 51
2, 29191, Note_on_c, 0, 77, 0
2, 29195, Control_c, 0, 64, 50
2, 29235, Control_c, 0, 64, 49
2, 29291, Control_c, 0, 64, 48
2, 29313, Control_c, 0, 64, 45
2, 29329, Control_c, 0, 64, 38
2, 29348, Control_c, 0, 64, 25
2, 29363, Note_on_c, 0, 58, 57
2, 29372, Control_c, 0, 64, 0
2, 29372, Note_on_c, 0, 73, 74
2, 29428, Note_on_c, 0, 75, 0
2, 29430, Note_on_c, 0, 55, 0
2, 29466, Control_c, 0, 64, 20
2, 29483, Control_c, 0, 64, 33
2, 29501, Control_c, 0, 64, 42
2, 29521, Control_c, 0, 64, 51
2, 29544, Control_c, 0, 64, 57
2, 29559, Control_c, 0, 64, 60
2, 29579, Control_c, 0, 64, 61
2, 29598, Control_c, 0, 64, 62
2, 29614, Note_on_c, 0, 72, 81
2, 29618, Control_c, 0, 64, 63
2, 29625, Note_on_c, 0, 63, 60
2, 29636, Control_c, 0, 64, 65
2, 29655, Control_c, 0, 64, 66
2, 29664, Note_on_c, 0, 51, 0
2, 29677, Control_c, 0, 64, 69
2, 29686, Note_on_c, 0, 73, 0
2, 29697, Control_c, 0, 64, 72
2, 29715, Control_c, 0, 64, 74
2, 29734, Control_c, 0, 64, 76
2, 29753, Control_c, 0, 64, 78
2, 29811, Control_c, 0, 64, 77
2, 29848, Control_c, 0, 64, 76
2, 29868, Control_c, 0, 64, 75
2, 29881, Note_on_c, 0, 70, 74
2, 29888, Control_c, 0, 64, 74
2, 29897, Note_on_c, 0, 53, 54
2, 29906, Control_c, 0, 64, 73
2, 29925, Control_c, 0, 64, 72
2, 29929, Note_on_c, 0, 72, 0
2, 29944, Control_c, 0, 64, 70
2, 29960, Note_on_c, 0, 67, 0
2, 29964, Control_c, 0, 64, 69
2, 29983, Control_c, 0, 64, 67
2, 29985, Note_on_c, 0, 63, 0
2, 30000, Control_c, 0, 64, 65
2, 30020, Control_c, 0, 64, 64
2, 30042, Control_c, 0, 64, 63
2, 30078, Control_c, 0, 64, 62
2, 30099, Control_c, 0, 64, 61
2, 30112, Note_on_c, 0, 67, 69
2, 30133, Note_on_c, 0, 58, 0
2, 30136, Control_c, 0, 64, 60
2, 30145, Note_on_c, 0, 63, 61
2, 30155, Control_c, 0, 64, 59
2, 30208, Note_on_c, 0, 70, 0
2, 30212, Control_c, 0, 64, 58
2, 30231, Control_c, 0, 64, 57
2, 30270, Control_c, 0, 64, 56
2, 30289, Control_c, 0, 64, 55
2, 30308, Control_c, 0, 64, 52
2, 30329, Control_c, 0, 64, 46
2, 30348, Control_c, 0, 64, 35
2, 30367, Control_c, 0, 64, 18
2, 30385, Control_c, 0, 64, 0
2, 30394, Note_on_c, 0, 68, 69
2, 30400, Note_on_c, 0, 61, 46
2, 30452, Note_on_c, 0, 67, 0
2, 30453, Note_on_c, 0, 63, 0
2, 30482, Control_c, 0, 64, 17
2, 30500, Control_c, 0, 64, 33
2, 30518, Control_c, 0, 64, 43
2, 30540, Control_c, 0, 64, 50
2, 30558, Control_c, 0, 64, 56
2, 30577, Control_c, 0, 64, 60
2, 30597, Control_c, 0, 64, 62
2, 30617, Control_c, 0, 64, 63
2, 30638, Control_c, 0, 64, 64
2, 30642, Note_on_c, 0, 73, 69
2, 30649, Note_on_c, 0, 53, 0
2, 30656, Control_c, 0, 64, 66
2, 30662, Note_on_c, 0, 65, 46
2, 30674, Control_c, 0, 64, 69
2, 30686, Note_on_c, 0, 68, 0
2, 30693, Control_c, 0, 64, 73
2, 30711, Control_c, 0, 64, 77
2, 30730, Control_c, 0, 64, 81
2, 30751, Control_c, 0, 64, 84
2, 30770, Control_c, 0, 64, 85
2, 30807, Note_on_c, 0, 73, 0
2, 30864, Control_c, 0, 64, 84
2, 30885, Control_c, 0, 64, 82
2, 30905, Control_c, 0, 64, 81
2, 30924, Control_c, 0, 64, 79
2, 30929, Note_on_c, 0, 55, 50
2, 30939, Note_on_c, 0, 72, 60
2, 30943, Control_c, 0, 64, 78
2, 30963, Control_c, 0, 64, 76
2, 30985, Control_c, 0, 64, 74
2, 30985, Note_on_c, 0, 72, 0
2, 30999, Note_on_c, 0, 70, 58
2, 31004, Control_c, 0, 64, 71
2, 31004, Note_on_c, 0, 65, 0
2, 31019, Control_c, 0, 64, 69
2, 31035, Note_on_c, 0, 70, 0
2, 31040, Control_c, 0, 64, 67
2, 31058, Control_c, 0, 64, 64
2, 31065, Note_on_c, 0, 72, 72
2, 31076, Control_c, 0, 64, 63
2, 31096, Control_c, 0, 64, 61
2, 31100, Note_on_c, 0, 61, 0
2, 31119, Control_c, 0, 64, 59
2, 31136, Control_c, 0, 64, 54
2, 31138, Note_on_c, 0, 70, 60
2, 31140, Note_on_c, 0, 72, 0
2, 31147, Note_on_c, 0, 65, 51
2, 31153, Control_c, 0, 64, 47
2, 31172, Control_c, 0, 64, 36
2, 31194, Control_c, 0, 64, 24
2, 31212, Control_c, 0, 64, 11
2, 31230, Control_c, 0, 64, 0
2, 31419, Note_on_c, 0, 65, 0
2, 31428, Note_on_c, 0, 63, 51
2, 31683, Note_on_c, 0, 63, 0
2, 31694, Note_on_c, 0, 61, 47
2, 31993, Note_on_c, 0, 60, 36
2, 32000, Note_on_c, 0, 55, 0
2, 32000, Note_on_c, 0, 56, 43
2, 32005, Note_on_c, 0, 61, 0
2, 32189, Control_c, 0, 64, 8
2, 32268, Control_c, 0, 64, 9
2, 32274, Note_on_c, 0, 70, 0
2, 32285, Note_on_c, 0, 63, 47
2, 32305, Control_c, 0, 64, 10
2, 32343, Control_c, 0, 64, 11
2, 32458, Control_c, 0, 64, 12
2, 32533, Control_c, 0, 64, 13
2, 32537, Note_on_c, 0, 65, 60
2, 32539, Note_on_c, 0, 55, 54
2, 32585, Note_on_c, 0, 63, 0
2, 32711, Note_on_c, 0, 56, 0
2, 32787, Note_on_c, 0, 67, 70
2, 32854, Note_on_c, 0, 65, 0
2, 33031, Note_on_c, 0, 53, 55
2, 33031, Note_on_c, 0, 68, 72
2, 33122, Note_on_c, 0, 67, 0
2, 33130, Note_on_c, 0, 55, 0
2, 33227, Control_c, 0, 64, 12
2, 33270, Note_on_c, 0, 67, 77
2, 33281, Control_c, 0, 64, 11
2, 33301, Note_on_c, 0, 68, 0
2, 33494, Control_c, 0, 64, 10
2, 33513, Control_c, 0, 64, 8
2, 33534, Control_c, 0, 64, 0
2, 33547, Note_on_c, 0, 53, 0
2, 33554, Note_on_c, 0, 49, 53
2, 33554, Note_on_c, 0, 68, 72
2, 33584, Note_on_c, 0, 67, 0
2, 33686, Control_c, 0, 64, 18
2, 33704, Control_c, 0, 64, 31
2, 33725, Control_c, 0, 64, 43
2, 33743, Control_c, 0, 64, 54
2, 33763, Control_c, 0, 64, 62
2, 33780, Control_c, 0, 64, 64
2, 33801, Control_c, 0, 64, 66
2, 33820, Control_c, 0, 64, 68
2, 33820, Note_on_c, 0, 77, 70
2, 33839, Control_c, 0, 64, 70
2, 33857, Control_c, 0, 64, 72
2, 33861, Note_on_c, 0, 49, 0
2, 33876, Control_c, 0, 64, 75
2, 33881, Note_on_c, 0, 68, 0
2, 33897, Control_c, 0, 64, 79
2, 33904, Note_on_c, 0, 60, 0
2, 33916, Control_c, 0, 64, 81
2, 34012, Control_c, 0, 64, 80
2, 34049, Control_c, 0, 64, 79
2, 34069, Control_c, 0, 64, 78
2, 34090, Control_c, 0, 64, 76
2, 34090, Note_on_c, 0, 60, 38
2, 34109, Control_c, 0, 64, 74
2, 34126, Control_c, 0, 64, 73
2, 34133, Note_on_c, 0, 51, 40
2, 34143, Note_on_c, 0, 77, 0
2, 34147, Control_c, 0, 64, 71
2, 34151, Note_on_c, 0, 75, 54
2, 34165, Control_c, 0, 64, 69
2, 34185, Control_c, 0, 64, 68
2, 34202, Control_c, 0, 64, 67
2, 34222, Control_c, 0, 64, 65
2, 34242, Control_c, 0, 64, 64
2, 34251, Note_on_c, 0, 60, 0
2, 34261, Control_c, 0, 64, 63
2, 34280, Control_c, 0, 64, 62
2, 34291, Note_on_c, 0, 58, 46
2, 34298, Control_c, 0, 64, 61
2, 34346, Note_on_c, 0, 58, 0
2, 34355, Control_c, 0, 64, 60
2, 34376, Control_c, 0, 64, 59
2, 34382, Note_on_c, 0, 60, 51
2, 34387, Note_on_c, 0, 68, 52
2, 34396, Control_c, 0, 64, 58
2, 34414, Control_c, 0, 64, 57
2, 34424, Note_on_c, 0, 60, 0
2, 34435, Control_c, 0, 64, 55
2, 34454, Control_c, 0, 64, 53
2, 34458, Note_on_c, 0, 58, 53
2, 34463, Note_on_c, 0, 75, 0
2, 34476, Control_c, 0, 64, 47
2, 34489, Note_on_c, 0, 58, 0
2, 34493, Control_c, 0, 64, 33
2, 34510, Control_c, 0, 64, 0
2, 34516, Note_on_c, 0, 60, 67
2, 34577, Note_on_c, 0, 68, 0
2, 34600, Note_on_c, 0, 60, 0
2, 34602, Note_on_c, 0, 58, 53
2, 34614, Note_on_c, 0, 67, 47
2, 34683, Control_c, 0, 64, 28
2, 34703, Control_c, 0, 64, 43
2, 34722, Control_c, 0, 64, 54
2, 34740, Control_c, 0, 64, 59
2, 34763, Control_c, 0, 64, 62
2, 34780, Control_c, 0, 64, 64
2, 34798, Control_c, 0, 64, 67
2, 34817, Control_c, 0, 64, 71
2, 34836, Control_c, 0, 64, 75
2, 34847, Note_on_c, 0, 58, 0
2, 34856, Control_c, 0, 64, 81
2, 34879, Control_c, 0, 64, 87
2, 34879, Note_on_c, 0, 73, 64
2, 34896, Control_c, 0, 64, 91
2, 34917, Control_c, 0, 64, 93
2, 34931, Note_on_c, 0, 51, 0
2, 34938, Note_on_c, 0, 67, 0
2, 34993, Control_c, 0, 64, 92
2, 35008, Control_c, 0, 64, 91
2, 35030, Control_c, 0, 64, 90
2, 35050, Control_c, 0, 64, 88
2, 35067, Control_c, 0, 64, 86
2, 35087, Control_c, 0, 64, 83
2, 35105, Control_c, 0, 64, 80
2, 35125, Control_c, 0, 64, 77
2, 35144, Control_c, 0, 64, 75
2, 35162, Control_c, 0, 64, 74
2, 35185, Control_c, 0, 64, 72
2, 35203, Control_c, 0, 64, 70
2, 35217, Note_on_c, 0, 56, 42
2, 35217, Note_on_c, 0, 72, 58
2, 35222, Control_c, 0, 64, 69
2, 35230, Note_on_c, 0, 44, 40
2, 35239, Control_c, 0, 64, 67
2, 35260, Control_c, 0, 64, 66
2, 35265, Note_on_c, 0, 73, 0
2, 35278, Control_c, 0, 64, 65
2, 35316, Control_c, 0, 64, 64
2, 35374, Control_c, 0, 64, 63
2, 35394, Control_c, 0, 64, 62
2, 35415, Control_c, 0, 64, 61
2, 35432, Control_c, 0, 64, 60
2, 35491, Control_c, 0, 64, 59
2, 35495, Note_on_c, 0, 68, 61
2, 35510, Control_c, 0, 64, 58
2, 35523, Note_on_c, 0, 72, 0
2, 35547, Control_c, 0, 64, 57
2, 35567, Control_c, 0, 64, 56
2, 35585, Control_c, 0, 64, 55
2, 35603, Control_c, 0, 64, 54
2, 35623, Control_c, 0, 64, 53
2, 35643, Control_c, 0, 64, 51
2, 35663, Control_c, 0, 64, 50
2, 35681, Control_c, 0, 64, 47
2, 35700, Control_c, 0, 64, 44
2, 35719, Control_c, 0, 64, 42
2, 35739, Control_c, 0, 64, 40
2, 35760, Control_c, 0, 64, 39
2, 35760, Note_on_c, 0, 72, 76
2, 35778, Control_c, 0, 64, 37
2, 35797, Control_c, 0, 64, 36
2, 35801, Note_on_c, 0, 68, 0
2, 35816, Control_c, 0, 64, 34
2, 35835, Control_c, 0, 64, 33
2, 35854, Control_c, 0, 64, 32
2, 35873, Control_c, 0, 64, 31
2, 35893, Control_c, 0, 64, 30
2, 35915, Control_c, 0, 64, 28
2, 35935, Control_c, 0, 64, 26
2, 35949, Control_c, 0, 64, 22
2, 35968, Control_c, 0, 64, 17
2, 35988, Control_c, 0, 64, 10
2, 36000, Note_on_c, 0, 76, 77
2, 36009, Control_c, 0, 64, 0
2, 36098, Note_on_c, 0, 72, 0
2, 36274, Note_on_c, 0, 77, 86
2, 36353, Note_on_c, 0, 76, 0
2, 36372, Note_on_c, 0, 56, 0
2, 36518, Note_on_c, 0, 79, 84
2, 36529, Control_c, 0, 64, 9
2, 36539, Note_on_c, 0, 56, 62
2, 36545, Control_c, 0, 64, 11
2, 36566, Note_on_c, 0, 77, 0
2, 36569, Note_on_c, 0, 44, 0
2, 36584, Control_c, 0, 64, 13
2, 36604, Control_c, 0, 64, 14
2, 36622, Control_c, 0, 64, 15
2, 36738, Control_c, 0, 64, 16
2, 36777, Note_on_c, 0, 76, 83
2, 36797, Note_on_c, 0, 55, 71
2, 36817, Note_on_c, 0, 79, 0
2, 36868, Note_on_c, 0, 56, 0
2, 37040, Note_on_c, 0, 77, 88
2, 37044, Note_on_c, 0, 53, 74
2, 37139, Note_on_c, 0, 76, 0
2, 37157, Note_on_c, 0, 55, 0
2, 37405, Note_on_c, 0, 79, 84
2, 37410, Note_on_c, 0, 52, 72
2, 37428, Control_c, 0, 64, 15
2, 37466, Control_c, 0, 64, 14
2, 37487, Control_c, 0, 64, 13
2, 37493, Note_on_c, 0, 77, 0
2, 37521, Note_on_c, 0, 53, 0
2, 37639, Control_c, 0, 64, 15
2, 37658, Control_c, 0, 64, 18
2, 37679, Control_c, 0, 64, 22
2, 37697, Control_c, 0, 64, 27
2, 37718, Control_c, 0, 64, 35
2, 37736, Control_c, 0, 64, 43
2, 37755, Note_on_c, 0, 55, 41
2, 37760, Control_c, 0, 64, 50
2, 37773, Control_c, 0, 64, 55
2, 37794, Control_c, 0, 64, 56
2, 37813, Control_c, 0, 64, 58
2, 37833, Control_c, 0, 64, 60
2, 37853, Control_c, 0, 64, 61
2, 37869, Control_c, 0, 64, 63
2, 37888, Control_c, 0, 64, 64
2, 37908, Control_c, 0, 64, 65
2, 37929, Control_c, 0, 64, 67
2, 37948, Control_c, 0, 64, 69
2, 37968, Control_c, 0, 64, 73
2, 37984, Control_c, 0, 64, 78
2, 37998, Note_on_c, 0, 58, 70
2, 38007, Control_c, 0, 64, 86
2, 38030, Control_c, 0, 64, 100
2, 38035, Note_on_c, 0, 55, 0
2, 38046, Control_c, 0, 64, 115
2, 38061, Control_c, 0, 64, 127
2, 38218, Note_on_c, 0, 58, 0
2, 38244, Note_on_c, 0, 61, 66
2, 38347, Note_on_c, 0, 61, 0
2, 38428, Control_c, 0, 64, 113
2, 38446, Control_c, 0, 64, 108
2, 38465, Control_c, 0, 64, 104
2, 38486, Control_c, 0, 64, 100
2, 38503, Control_c, 0, 64, 97
2, 38518, Note_on_c, 0, 48, 68
2, 38523, Control_c, 0, 64, 94
2, 38542, Control_c, 0, 64, 91
2, 38564, Control_c, 0, 64, 89
2, 38581, Control_c, 0, 64, 85
2, 38598, Control_c, 0, 64, 82
2, 38619, Control_c, 0, 64, 79
2, 38638, Control_c, 0, 64, 77
2, 38659, Control_c, 0, 64, 76
2, 38676, Control_c, 0, 64, 74
2, 38698, Control_c, 0, 64, 73
2, 38716, Control_c, 0, 64, 71
2, 38734, Control_c, 0, 64, 69
2, 38753, Control_c, 0, 64, 68
2, 38772, Control_c, 0, 64, 67
2, 38784, Note_on_c, 0, 53, 69
2, 38793, Control_c, 0, 64, 66
2, 38811, Control_c, 0, 64, 65
2, 38832, Note_on_c, 0, 52, 0
2, 38851, Control_c, 0, 64, 64
2, 38887, Control_c, 0, 64, 63
2, 38944, Control_c, 0, 64, 62
2, 38985, Control_c, 0, 64, 61
2, 39021, Control_c, 0, 64, 60
2, 39042, Note_on_c, 0, 52, 67
2, 39064, Control_c, 0, 64, 59
2, 39099, Control_c, 0, 64, 58
2, 39120, Control_c, 0, 64, 56
2, 39138, Control_c, 0, 64, 55
2, 39143, Note_on_c, 0, 53, 0
2, 39156, Control_c, 0, 64, 53
2, 39175, Control_c, 0, 64, 51
2, 39194, Control_c, 0, 64, 49
2, 39216, Control_c, 0, 64, 47
2, 39234, Control_c, 0, 64, 46
2, 39256, Control_c, 0, 64, 44
2, 39272, Control_c, 0, 64, 43
2, 39313, Note_on_c, 0, 55, 65
2, 39349, Control_c, 0, 64, 42
2, 39374, Note_on_c, 0, 52, 0
2, 39520, Control_c, 0, 64, 41
2, 39664, Note_on_c, 0, 56, 56
2, 39669, Note_on_c, 0, 53, 52
2, 39759, Note_on_c, 0, 48, 0
2, 39790, Note_on_c, 0, 55, 0
2, 39993, Note_on_c, 0, 72, 62
2, 40238, Note_on_c, 0, 79, 0
2, 40242, Note_on_c, 0, 77, 74
2, 40372, Note_on_c, 0, 72, 0
2, 40500, Note_on_c, 0, 80, 78
2, 40694, Note_on_c, 0, 77, 0
2, 40738, Note_on_c, 0, 74, 72
2, 40828, Note_on_c, 0, 80, 0
2, 40882, Note_on_c, 0, 53, 0
2, 40981, Note_on_c, 0, 77, 79
2, 40987, Note_on_c, 0, 53, 50
2, 41040, Note_on_c, 0, 74, 0
2, 41253, Note_on_c, 0, 71, 75
2, 41268, Note_on_c, 0, 51, 60
2, 41274, Note_on_c, 0, 53, 0
2, 41327, Note_on_c, 0, 77, 0
2, 41384, Control_c, 0, 64, 42
2, 41423, Control_c, 0, 64, 44
2, 41441, Control_c, 0, 64, 45
2, 41461, Control_c, 0, 64, 48
2, 41479, Control_c, 0, 64, 51
2, 41485, Note_on_c, 0, 51, 0
2, 41496, Note_on_c, 0, 50, 58
2, 41500, Control_c, 0, 64, 54
2, 41500, Note_on_c, 0, 72, 80
2, 41519, Control_c, 0, 64, 56
2, 41535, Note_on_c, 0, 71, 0
2, 41540, Control_c, 0, 64, 58
2, 41557, Control_c, 0, 64, 59
2, 41578, Control_c, 0, 64, 61
2, 41596, Control_c, 0, 64, 62
2, 41614, Control_c, 0, 64, 63
2, 41654, Control_c, 0, 64, 64
2, 41674, Control_c, 0, 64, 66
2, 41674, Note_on_c, 0, 56, 0
2, 41693, Control_c, 0, 64, 67
2, 41713, Control_c, 0, 64, 70
2, 41713, Note_on_c, 0, 72, 0
2, 41729, Control_c, 0, 64, 73
2, 41751, Control_c, 0, 64, 77
2, 41766, Note_on_c, 0, 72, 66
2, 41768, Control_c, 0, 64, 80
2, 41777, Note_on_c, 0, 55, 57
2, 41786, Control_c, 0, 64, 82
2, 41798, Note_on_c, 0, 50, 0
2, 41827, Control_c, 0, 64, 83
2, 41864, Control_c, 0, 64, 82
2, 41904, Control_c, 0, 64, 81
2, 41918, Note_on_c, 0, 72, 0
2, 41923, Control_c, 0, 64, 80
2, 41927, Note_on_c, 0, 71, 68
2, 41960, Control_c, 0, 64, 79
2, 41980, Control_c, 0, 64, 78
2, 41997, Control_c, 0, 64, 77
2, 42016, Control_c, 0, 64, 75
2, 42039, Control_c, 0, 64, 73
2, 42039, Note_on_c, 0, 71, 0
2, 42054, Note_on_c, 0, 72, 71
2, 42059, Control_c, 0, 64, 71
2, 42078, Control_c, 0, 64, 69
2, 42088, Note_on_c, 0, 59, 33
2, 42096, Control_c, 0, 64, 67
2, 42100, Note_on_c, 0, 72, 0
2, 42111, Note_on_c, 0, 60, 26
2, 42116, Control_c, 0, 64, 65
2, 42116, Note_on_c, 0, 71, 66
2, 42136, Control_c, 0, 64, 64
2, 42152, Control_c, 0, 64, 63
2, 42161, Note_on_c, 0, 60, 0
2, 42165, Note_on_c, 0, 71, 0
2, 42172, Control_c, 0, 64, 62
2, 42188, Note_on_c, 0, 72, 78
2, 42212, Control_c, 0, 64, 61
2, 42230, Control_c, 0, 64, 60
2, 42250, Control_c, 0, 64, 59
2, 42256, Note_on_c, 0, 72, 0
2, 42261, Note_on_c, 0, 71, 76
2, 42267, Control_c, 0, 64, 58
2, 42287, Control_c, 0, 64, 57
2, 42299, Note_on_c, 0, 62, 65
2, 42305, Control_c, 0, 64, 55
2, 42325, Control_c, 0, 64, 53
2, 42347, Control_c, 0, 64, 49
2, 42353, Note_on_c, 0, 59, 0
2, 42362, Control_c, 0, 64, 43
2, 42382, Control_c, 0, 64, 33
2, 42401, Control_c, 0, 64, 14
2, 42421, Control_c, 0, 64, 0
2, 42547, Note_on_c, 0, 67, 68
2, 42669, Control_c, 0, 64, 15
2, 42693, Control_c, 0, 64, 32
2, 42693, Note_on_c, 0, 72, 77
2, 42700, Note_on_c, 0, 71, 0
2, 42708, Control_c, 0, 64, 42
2, 42727, Control_c, 0, 64, 50
2, 42747, Control_c, 0, 64, 55
2, 42766, Control_c, 0, 64, 57
2, 42785, Control_c, 0, 64, 58
2, 42805, Control_c, 0, 64, 59
2, 42820, Note_on_c, 0, 56, 66
2, 42825, Control_c, 0, 64, 60
2, 42842, Control_c, 0, 64, 61
2, 42862, Control_c, 0, 64, 62
2, 42871, Note_on_c, 0, 55, 0
2, 42880, Note_on_c, 0, 74, 71
2, 42889, Note_on_c, 0, 72, 0
2, 42936, Note_on_c, 0, 67, 0
2, 42988, Note_on_c, 0, 74, 0
2, 43004, Note_on_c, 0, 72, 71
2, 43008, Note_on_c, 0, 62, 0
2, 43078, Note_on_c, 0, 72, 0
2, 43110, Note_on_c, 0, 74, 65
2, 43118, Note_on_c, 0, 67, 59
2, 43134, Control_c, 0, 64, 61
2, 43158, Note_on_c, 0, 74, 0
2, 43187, Note_on_c, 0, 72, 73
2, 43209, Control_c, 0, 64, 60
2, 43232, Note_on_c, 0, 72, 0
2, 43232, Note_on_c, 0, 74, 70
2, 43300, Note_on_c, 0, 74, 0
2, 43304, Control_c, 0, 64, 59
2, 43309, Note_on_c, 0, 72, 73
2, 43327, Note_on_c, 0, 65, 60
2, 43334, Note_on_c, 0, 67, 0
2, 43363, Control_c, 0, 64, 58
2, 43377, Note_on_c, 0, 72, 0
2, 43377, Note_on_c, 0, 74, 69
2, 43380, Control_c, 0, 64, 57
2, 43419, Control_c, 0, 64, 56
2, 43438, Control_c, 0, 64, 55
2, 43458, Note_on_c, 0, 72, 73
2, 43464, Note_on_c, 0, 74, 0
2, 43477, Control_c, 0, 64, 54
2, 43496, Control_c, 0, 64, 53
2, 43536, Control_c, 0, 64, 52
2, 43543, Note_on_c, 0, 68, 72
2, 43550, Note_on_c, 0, 71, 80
2, 43550, Note_on_c, 0, 72, 0
2, 43556, Control_c, 0, 64, 50
2, 43574, Control_c, 0, 64, 49
2, 43589, Note_on_c, 0, 65, 0
2, 43594, Control_c, 0, 64, 46
2, 43612, Control_c, 0, 64, 45
2, 43632, Control_c, 0, 64, 43
2, 43654, Control_c, 0, 64, 42
2, 43654, Note_on_c, 0, 71, 0
2, 43654, Note_on_c, 0, 72, 87
2, 43668, Control_c, 0, 64, 40
2, 43688, Control_c, 0, 64, 37
2, 43708, Control_c, 0, 64, 35
2, 43727, Control_c, 0, 64, 31
2, 43745, Control_c, 0, 64, 25
2, 43764, Control_c, 0, 64, 17
2, 43785, Control_c, 0, 64, 0
2, 43792, Note_on_c, 0, 59, 70
2, 43792, Note_on_c, 0, 74, 79
2, 43797, Note_on_c, 0, 72, 0
2, 43922, Note_on_c, 0, 56, 0
2, 43943, Note_on_c, 0, 68, 0
2, 44064, Note_on_c, 0, 79, 84
2, 44336, Note_on_c, 0, 62, 71
2, 44340, Note_on_c, 0, 77, 82
2, 44380, Control_c, 0, 64, 8
2, 44398, Note_on_c, 0, 79, 0
2, 44403, Control_c, 0, 64, 18
2, 44417, Control_c, 0, 64, 27
2, 44437, Control_c, 0, 64, 35
2, 44457, Control_c, 0, 64, 42
2, 44475, Control_c, 0, 64, 48
2, 44495, Control_c, 0, 64, 52
2, 44514, Control_c, 0, 64, 55
2, 44532, Control_c, 0, 64, 57
2, 44552, Control_c, 0, 64, 59
2, 44570, Control_c, 0, 64, 60
2, 44578, Note_on_c, 0, 80, 84
2, 44594, Control_c, 0, 64, 61
2, 44610, Note_on_c, 0, 74, 0
2, 44612, Control_c, 0, 64, 62
2, 44612, Note_on_c, 0, 77, 0
2, 44628, Control_c, 0, 64, 64
2, 44686, Control_c, 0, 64, 65
2, 44801, Control_c, 0, 64, 64
2, 44850, Note_on_c, 0, 71, 78
2, 44859, Control_c, 0, 64, 63
2, 44859, Note_on_c, 0, 67, 73
2, 44878, Control_c, 0, 64, 62
2, 44905, Note_on_c, 0, 80, 0
2, 44917, Control_c, 0, 64, 61
2, 44937, Control_c, 0, 64, 60
2, 44957, Control_c, 0, 64, 59
2, 44975, Control_c, 0, 64, 57
2, 44993, Control_c, 0, 64, 56
2, 45007, Note_on_c, 0, 59, 0
2, 45016, Control_c, 0, 64, 54
2, 45031, Control_c, 0, 64, 52
2, 45053, Control_c, 0, 64, 49
2, 45053, Note_on_c, 0, 62, 0
2, 45069, Control_c, 0, 64, 46
2, 45088, Control_c, 0, 64, 44
2, 45110, Note_on_c, 0, 80, 84
2, 45114, Control_c, 0, 64, 41
2, 45127, Control_c, 0, 64, 38
2, 45147, Control_c, 0, 64, 35
2, 45166, Control_c, 0, 64, 31
2, 45185, Control_c, 0, 64, 25
2, 45203, Control_c, 0, 64, 18
2, 45224, Control_c, 0, 64, 0
2, 45364, Note_on_c, 0, 79, 84
2, 45368, Note_on_c, 0, 55, 70
2, 45438, Note_on_c, 0, 80, 0
2, 45609, Control_c, 0, 64, 23
2, 45626, Control_c, 0, 64, 41
2, 45643, Note_on_c, 0, 77, 86
2, 45645, Control_c, 0, 64, 52
2, 45664, Control_c, 0, 64, 57
2, 45684, Control_c, 0, 64, 59
2, 45695, Note_on_c, 0, 67, 0
2, 45704, Control_c, 0, 64, 61
2, 45709, Note_on_c, 0, 79, 0
2, 45721, Control_c, 0, 64, 64
2, 45743, Control_c, 0, 64, 67
2, 45763, Control_c, 0, 64, 70
2, 45781, Control_c, 0, 64, 75
2, 45800, Control_c, 0, 64, 79
2, 45822, Control_c, 0, 64, 83
2, 45839, Control_c, 0, 64, 86
2, 45858, Control_c, 0, 64, 87
2, 45877, Control_c, 0, 64, 86
2, 45915, Control_c, 0, 64, 85
2, 45934, Control_c, 0, 64, 84
2, 45943, Note_on_c, 0, 71, 0
2, 45956, Control_c, 0, 64, 83
2, 45974, Control_c, 0, 64, 81
2, 45974, Note_on_c, 0, 60, 65
2, 45995, Control_c, 0, 64, 78
2, 46010, Control_c, 0, 64, 75
2, 46033, Control_c, 0, 64, 73
2, 46033, Note_on_c, 0, 75, 81
2, 46049, Control_c, 0, 64, 72
2, 46086, Control_c, 0, 64, 71
2, 46106, Control_c, 0, 64, 69
2, 46113, Note_on_c, 0, 77, 0
2, 46126, Control_c, 0, 64, 67
2, 46147, Note_on_c, 0, 55, 0
2, 46151, Control_c, 0, 64, 64
2, 46165, Control_c, 0, 64, 63
2, 46202, Control_c, 0, 64, 62
2, 46223, Control_c, 0, 64, 61
2, 46242, Control_c, 0, 64, 60
2, 46264, Control_c, 0, 64, 58
2, 46280, Control_c, 0, 64, 55
2, 46299, Control_c, 0, 64, 52
2, 46317, Control_c, 0, 64, 50
2, 46341, Control_c, 0, 64, 48
2, 46355, Control_c, 0, 64, 46
2, 46376, Control_c, 0, 64, 44
2, 46376, Note_on_c, 0, 84, 80
2, 46397, Control_c, 0, 64, 42
2, 46414, Control_c, 0, 64, 41
2, 46432, Control_c, 0, 64, 39
2, 46454, Control_c, 0, 64, 38
2, 46472, Control_c, 0, 64, 37
2, 46493, Control_c, 0, 64, 36
2, 46510, Control_c, 0, 64, 34
2, 46531, Control_c, 0, 64, 33
2, 46550, Control_c, 0, 64, 32
2, 46569, Control_c, 0, 64, 31
2, 46589, Control_c, 0, 64, 30
2, 46609, Control_c, 0, 64, 29
2, 46629, Control_c, 0, 64, 27
2, 46645, Control_c, 0, 64, 24
2, 46647, Note_on_c, 0, 77, 82
2, 46659, Note_on_c, 0, 56, 63
2, 46663, Control_c, 0, 64, 18
2, 46683, Control_c, 0, 64, 0
2, 46698, Note_on_c, 0, 75, 0
2, 46857, Control_c, 0, 64, 20
2, 46875, Control_c, 0, 64, 39
2, 46893, Control_c, 0, 64, 50
2, 46902, Note_on_c, 0, 83, 83
2, 46915, Control_c, 0, 64, 57
2, 46936, Control_c, 0, 64, 59
2, 46936, Note_on_c, 0, 84, 0
2, 46969, Control_c, 0, 64, 60
2, 46991, Control_c, 0, 64, 62
2, 47009, Control_c, 0, 64, 63
2, 47027, Control_c, 0, 64, 64
2, 47105, Control_c, 0, 64, 63
2, 47162, Control_c, 0, 64, 62
2, 47176, Note_on_c, 0, 51, 51
2, 47221, Control_c, 0, 64, 61
2, 47240, Control_c, 0, 64, 60
2, 47279, Control_c, 0, 64, 59
2, 47280, Note_on_c, 0, 84, 75
2, 47309, Note_on_c, 0, 77, 0
2, 47335, Control_c, 0, 64, 58
2, 47354, Control_c, 0, 64, 57
2, 47366, Note_on_c, 0, 83, 0
2, 47374, Control_c, 0, 64, 56
2, 47392, Control_c, 0, 64, 55
2, 47411, Control_c, 0, 64, 54
2, 47416, Note_on_c, 0, 56, 0
2, 47432, Control_c, 0, 64, 53
2, 47452, Control_c, 0, 64, 52
2, 47470, Control_c, 0, 64, 51
2, 47490, Control_c, 0, 64, 50
2, 47510, Control_c, 0, 64, 48
2, 47527, Control_c, 0, 64, 46
2, 47547, Control_c, 0, 64, 45
2, 47568, Control_c, 0, 64, 44
2, 47576, Note_on_c, 0, 79, 64
2, 47586, Control_c, 0, 64, 43
2, 47607, Control_c, 0, 64, 42
2, 47626, Control_c, 0, 64, 41
2, 47645, Control_c, 0, 64, 40
2, 47666, Control_c, 0, 64, 37
2, 47684, Control_c, 0, 64, 34
2, 47701, Control_c, 0, 64, 28
2, 47721, Control_c, 0, 64, 0
2, 47832, Note_on_c, 0, 53, 45
2, 47839, Note_on_c, 0, 80, 65
2, 47858, Note_on_c, 0, 51, 0
2, 47858, Note_on_c, 0, 79, 0
2, 47912, Control_c, 0, 64, 11
2, 47932, Control_c, 0, 64, 36
2, 47950, Control_c, 0, 64, 48
2, 47970, Control_c, 0, 64, 55
2, 47988, Control_c, 0, 64, 59
2, 48009, Control_c, 0, 64, 61
2, 48026, Control_c, 0, 64, 62
2, 48046, Control_c, 0, 64, 64
2, 48066, Control_c, 0, 64, 65
2, 48083, Note_on_c, 0, 77, 74
2, 48087, Control_c, 0, 64, 66
2, 48102, Control_c, 0, 64, 67
2, 48123, Control_c, 0, 64, 68
2, 48142, Note_on_c, 0, 84, 0
2, 48175, Note_on_c, 0, 80, 0
2, 48199, Note_on_c, 0, 77, 0
2, 48335, Control_c, 0, 64, 67
2, 48388, Note_on_c, 0, 55, 40
2, 48397, Note_on_c, 0, 75, 59
2, 48410, Control_c, 0, 64, 66
2, 48449, Note_on_c, 0, 53, 0
2, 48453, Control_c, 0, 64, 65
2, 48468, Control_c, 0, 64, 64
2, 48488, Control_c, 0, 64, 62
2, 48508, Control_c, 0, 64, 60
2, 48527, Control_c, 0, 64, 57
2, 48547, Control_c, 0, 64, 55
2, 48564, Control_c, 0, 64, 51
2, 48584, Control_c, 0, 64, 47
2, 48604, Control_c, 0, 64, 44
2, 48622, Control_c, 0, 64, 39
2, 48642, Control_c, 0, 64, 35
2, 48660, Control_c, 0, 64, 30
2, 48674, Note_on_c, 0, 71, 47
2, 48681, Control_c, 0, 64, 24
2, 48698, Control_c, 0, 64, 11
2, 48717, Control_c, 0, 64, 0
2, 48927, Note_on_c, 0, 72, 58
2, 48946, Note_on_c, 0, 71, 0
2, 49176, Note_on_c, 0, 72, 0
2, 49200, Note_on_c, 0, 66, 47
2, 49483, Note_on_c, 0, 67, 42
2, 49524, Note_on_c, 0, 66, 0
2, 49740, Note_on_c, 0, 72, 59
2, 49790, Note_on_c, 0, 75, 0
2, 50055, Note_on_c, 0, 74, 52
2, 50057, Note_on_c, 0, 72, 0
2, 50088, Note_on_c, 0, 59, 33
2, 50131, Note_on_c, 0, 60, 0
2, 50198, Control_c, 0, 64, 24
2, 50214, Control_c, 0, 64, 36
2, 50235, Control_c, 0, 64, 46
2, 50257, Control_c, 0, 64, 54
2, 50273, Control_c, 0, 64, 59
2, 50292, Control_c, 0, 64, 61
2, 50311, Control_c, 0, 64, 62
2, 50331, Control_c, 0, 64, 63
2, 50351, Note_on_c, 0, 65, 43
2, 50356, Control_c, 0, 64, 64
2, 50369, Control_c, 0, 64, 67
2, 50374, Note_on_c, 0, 67, 0
2, 50378, Note_on_c, 0, 59, 0
2, 50387, Control_c, 0, 64, 70
2, 50407, Control_c, 0, 64, 77
2, 50427, Control_c, 0, 64, 82
2, 50445, Control_c, 0, 64, 88
2, 50464, Control_c, 0, 64, 94
2, 50484, Control_c, 0, 64, 102
2, 50505, Control_c, 0, 64, 112
2, 50523, Control_c, 0, 64, 127
2, 50619, Control_c, 0, 64, 118
2, 50638, Control_c, 0, 64, 111
2, 50657, Control_c, 0, 64, 106
2, 50676, Control_c, 0, 64, 101
2, 50691, Note_on_c, 0, 74, 0
2, 50695, Control_c, 0, 64, 96
2, 50718, Control_c, 0, 64, 91
2, 50729, Note_on_c, 0, 72, 52
2, 50733, Control_c, 0, 64, 87
2, 50752, Control_c, 0, 64, 83
2, 50761, Note_on_c, 0, 60, 35
2, 50772, Control_c, 0, 64, 79
2, 50777, Note_on_c, 0, 48, 35
2, 50792, Control_c, 0, 64, 76
2, 50812, Control_c, 0, 64, 73
2, 50829, Control_c, 0, 64, 69
2, 50849, Control_c, 0, 64, 67
2, 50858, Note_on_c, 0, 65, 0
2, 50870, Control_c, 0, 64, 65
2, 50872, Note_on_c, 0, 55, 0
2, 50887, Control_c, 0, 64, 64
2, 50906, Control_c, 0, 64, 63
2, 50925, Control_c, 0, 64, 62
2, 50947, Control_c, 0, 64, 61
2, 50966, Control_c, 0, 64, 60
2, 50987, Control_c, 0, 64, 59
2, 51004, Control_c, 0, 64, 58
2, 51022, Control_c, 0, 64, 57
2, 51060, Control_c, 0, 64, 56
2, 51080, Control_c, 0, 64, 55
2, 51117, Control_c, 0, 64, 54
2, 51124, Note_on_c, 0, 65, 34
2, 51137, Control_c, 0, 64, 53
2, 51156, Control_c, 0, 64, 52
2, 51175, Control_c, 0, 64, 51
2, 51214, Control_c, 0, 64, 50
2, 51234, Control_c, 0, 64, 48
2, 51252, Control_c, 0, 64, 47
2, 51271, Control_c, 0, 64, 46
2, 51290, Control_c, 0, 64, 44
2, 51310, Control_c, 0, 64, 43
2, 51330, Control_c, 0, 64, 41
2, 51348, Control_c, 0, 64, 39
2, 51367, Control_c, 0, 64, 35
2, 51387, Control_c, 0, 64, 29
2, 51392, Note_on_c, 0, 65, 0
2, 51399, Note_on_c, 0, 64, 41
2, 51405, Control_c, 0, 64, 18
2, 51409, Note_on_c, 0, 55, 35
2, 51425, Control_c, 0, 64, 0
2, 51521, Note_on_c, 0, 60, 0
2, 51628, Note_on_c, 0, 64, 0
2, 51635, Note_on_c, 0, 67, 44
2, 51922, Note_on_c, 0, 60, 41
2, 51981, Note_on_c, 0, 67, 0
2, 52195, Note_on_c, 0, 53, 34
2, 52258, Note_on_c, 0, 55, 0
2, 52424, Control_c, 0, 64, 9
2, 52443, Control_c, 0, 64, 13
2, 52463, Control_c, 0, 64, 17
2, 52468, Note_on_c, 0, 52, 36
2, 52468, Note_on_c, 0, 53, 0
2, 52480, Control_c, 0, 64, 25
2, 52500, Control_c, 0, 64, 34
2, 52522, Control_c, 0, 64, 42
2, 52542, Control_c, 0, 64, 50
2, 52560, Control_c, 0, 64, 57
2, 52576, Control_c, 0, 64, 60
2, 52596, Control_c, 0, 64, 62
2, 52617, Control_c, 0, 64, 63
2, 52635, Control_c, 0, 64, 65
2, 52653, Note_on_c, 0, 60, 0
2, 52657, Control_c, 0, 64, 67
2, 52673, Control_c, 0, 64, 69
2, 52696, Control_c, 0, 64, 73
2, 52711, Control_c, 0, 64, 79
2, 52735, Control_c, 0, 64, 85
2, 52751, Control_c, 0, 64, 93
2, 52764, Note_on_c, 0, 52, 0
2, 52769, Control_c, 0, 64, 102
2, 52789, Control_c, 0, 64, 113
2, 52799, Note_on_c, 0, 48, 0
2, 52799, Note_on_c, 0, 55, 39
2, 52809, Control_c, 0, 64, 127
2, 53075, Control_c, 0, 64, 111
2, 53097, Control_c, 0, 64, 104
2, 53114, Control_c, 0, 64, 101
2, 53133, Control_c, 0, 64, 98
2, 53156, Control_c, 0, 64, 96
2, 53175, Control_c, 0, 64, 94
2, 53191, Control_c, 0, 64, 91
2, 53212, Control_c, 0, 64, 88
2, 53230, Control_c, 0, 64, 85
2, 53249, Control_c, 0, 64, 81
2, 53265, Note_on_c, 0, 45, 31
2, 53269, Control_c, 0, 64, 78
2, 53289, Control_c, 0, 64, 75
2, 53289, Note_on_c, 0, 65, 35
2, 53307, Control_c, 0, 64, 73
2, 53327, Control_c, 0, 64, 71
2, 53345, Control_c, 0, 64, 69
2, 53364, Control_c, 0, 64, 68
2, 53384, Control_c, 0, 64, 66
2, 53399, Note_on_c, 0, 72, 0
2, 53403, Control_c, 0, 64, 65
2, 53419, Note_on_c, 0, 55, 0
2, 53422, Control_c, 0, 64, 64
2, 53442, Control_c, 0, 64, 62
2, 53459, Control_c, 0, 64, 60
2, 53480, Control_c, 0, 64, 58
2, 53499, Control_c, 0, 64, 53
2, 53517, Control_c, 0, 64, 47
2, 53537, Control_c, 0, 64, 40
2, 53555, Control_c, 0, 64, 35
2, 53576, Control_c, 0, 64, 31
2, 53595, Control_c, 0, 64, 28
2, 53615, Control_c, 0, 64, 25
2, 53692, Note_on_c, 0, 69, 36
2, 53845, Control_c, 0, 64, 26
2, 53863, Control_c, 0, 64, 28
2, 53882, Control_c, 0, 64, 31
2, 53900, Control_c, 0, 64, 36
2, 53920, Control_c, 0, 64, 41
2, 53939, Control_c, 0, 64, 47
2, 53959, Control_c, 0, 64, 53
2, 53966, Note_on_c, 0, 72, 51
2, 53968, Note_on_c, 0, 69, 0
2, 53979, Control_c, 0, 64, 58
2, 53993, Note_on_c, 0, 53, 28
2, 53997, Control_c, 0, 64, 60
2, 54018, Control_c, 0, 64, 61
2, 54039, Control_c, 0, 64, 62
2, 54056, Control_c, 0, 64, 64
2, 54074, Control_c, 0, 64, 65
2, 54093, Control_c, 0, 64, 67
2, 54116, Control_c, 0, 64, 69
2, 54132, Control_c, 0, 64, 73
2, 54152, Control_c, 0, 64, 77
2, 54170, Control_c, 0, 64, 82
2, 54190, Control_c, 0, 64, 88
2, 54204, Note_on_c, 0, 65, 0
2, 54212, Control_c, 0, 64, 93
2, 54212, Note_on_c, 0, 75, 61
2, 54228, Control_c, 0, 64, 99
2, 54247, Note_on_c, 0, 72, 0
2, 54251, Control_c, 0, 64, 106
2, 54268, Control_c, 0, 64, 109
2, 54343, Control_c, 0, 64, 107
2, 54362, Control_c, 0, 64, 106
2, 54380, Control_c, 0, 64, 103
2, 54400, Control_c, 0, 64, 100
2, 54419, Control_c, 0, 64, 96
2, 54440, Control_c, 0, 64, 93
2, 54459, Control_c, 0, 64, 90
2, 54477, Note_on_c, 0, 69, 58
2, 54482, Control_c, 0, 64, 87
2, 54502, Control_c, 0, 64, 85
2, 54502, Note_on_c, 0, 41, 37
2, 54516, Control_c, 0, 64, 82
2, 54529, Note_on_c, 0, 45, 0
2, 54536, Control_c, 0, 64, 77
2, 54554, Control_c, 0, 64, 73
2, 54563, Note_on_c, 0, 75, 0
2, 54575, Control_c, 0, 64, 70
2, 54591, Control_c, 0, 64, 67
2, 54612, Control_c, 0, 64, 65
2, 54631, Control_c, 0, 64, 64
2, 54647, Note_on_c, 0, 53, 0
2, 54651, Control_c, 0, 64, 63
2, 54709, Control_c, 0, 64, 62
2, 54735, Note_on_c, 0, 78, 67
2, 54747, Control_c, 0, 64, 61
2, 54767, Control_c, 0, 64, 60
2, 54785, Control_c, 0, 64, 56
2, 54805, Control_c, 0, 64, 50
2, 54822, Control_c, 0, 64, 38
2, 54843, Control_c, 0, 64, 22
2, 54863, Control_c, 0, 64, 0
2, 54939, Control_c, 0, 64, 14
2, 54957, Control_c, 0, 64, 27
2, 54979, Control_c, 0, 64, 38
2, 54979, Note_on_c, 0, 72, 60
2, 54984, Note_on_c, 0, 78, 0
2, 54999, Control_c, 0, 64, 48
2, 55010, Note_on_c, 0, 53, 29
2, 55014, Control_c, 0, 64, 56
2, 55034, Control_c, 0, 64, 59
2, 55055, Control_c, 0, 64, 61
2, 55077, Control_c, 0, 64, 62
2, 55091, Control_c, 0, 64, 64
2, 55097, Note_on_c, 0, 41, 0
2, 55112, Control_c, 0, 64, 66
2, 55130, Control_c, 0, 64, 69
2, 55150, Control_c, 0, 64, 73
2, 55169, Control_c, 0, 64, 76
2, 55188, Control_c, 0, 64, 79
2, 55209, Control_c, 0, 64, 81
2, 55216, Note_on_c, 0, 72, 0
2, 55231, Note_on_c, 0, 75, 60
2, 55247, Control_c, 0, 64, 82
2, 55342, Control_c, 0, 64, 81
2, 55363, Control_c, 0, 64, 80
2, 55400, Control_c, 0, 64, 78
2, 55418, Control_c, 0, 64, 77
2, 55439, Control_c, 0, 64, 76
2, 55456, Control_c, 0, 64, 75
2, 55477, Control_c, 0, 64, 74
2, 55498, Note_on_c, 0, 46, 39
2, 55515, Control_c, 0, 64, 73
2, 55528, Note_on_c, 0, 75, 0
2, 55533, Control_c, 0, 64, 71
2, 55553, Control_c, 0, 64, 70
2, 55565, Note_on_c, 0, 73, 58
2, 55572, Control_c, 0, 64, 68
2, 55594, Control_c, 0, 64, 67
2, 55610, Control_c, 0, 64, 66
2, 55630, Control_c, 0, 64, 65
2, 55630, Note_on_c, 0, 53, 0
2, 55649, Control_c, 0, 64, 64
2, 55667, Note_on_c, 0, 69, 0
2, 55671, Control_c, 0, 64, 63
2, 55687, Control_c, 0, 64, 62
2, 55706, Control_c, 0, 64, 61
2, 55744, Control_c, 0, 64, 60
2, 55764, Control_c, 0, 64, 59
2, 55783, Control_c, 0, 64, 58
2, 55815, Note_on_c, 0, 49, 51
2, 55822, Control_c, 0, 64, 57
2, 55843, Control_c, 0, 64, 56
2, 55881, Control_c, 0, 64, 55
2, 55898, Control_c, 0, 64, 54
2, 55917, Control_c, 0, 64, 53
2, 55937, Control_c, 0, 64, 52
2, 55957, Control_c, 0, 64, 49
2, 55976, Control_c, 0, 64, 45
2, 55994, Control_c, 0, 64, 38
2, 56014, Control_c, 0, 64, 27
2, 56034, Control_c, 0, 64, 11
2, 56052, Control_c, 0, 64, 0
2, 56056, Note_on_c, 0, 70, 66
2, 56071, Note_on_c, 0, 53, 50
2, 56129, Note_on_c, 0, 49, 0
2, 56149, Control_c, 0, 64, 18
2, 56168, Control_c, 0, 64, 28
2, 56187, Control_c, 0, 64, 38
2, 56206, Control_c, 0, 64, 45
2, 56225, Control_c, 0, 64, 51
2, 56247, Control_c, 0, 64, 56
2, 56262, Control_c, 0, 64, 58
2, 56283, Control_c, 0, 64, 59
2, 56302, Control_c, 0, 64, 60
2, 56319, Note_on_c, 0, 58, 56
2, 56321, Control_c, 0, 64, 61
2, 56339, Control_c, 0, 64, 62
2, 56360, Control_c, 0, 64, 63
2, 56381, Control_c, 0, 64, 65
2, 56401, Control_c, 0, 64, 66
2, 56416, Control_c, 0, 64, 67
2, 56436, Control_c, 0, 64, 69
2, 56456, Control_c, 0, 64, 70
2, 56475, Control_c, 0, 64, 72
2, 56553, Control_c, 0, 64, 71
2, 56586, Note_on_c, 0, 64, 58
2, 56596, Note_on_c, 0, 48, 58
2, 56610, Control_c, 0, 64, 70
2, 56648, Control_c, 0, 64, 69
2, 56667, Control_c, 0, 64, 68
2, 56686, Control_c, 0, 64, 67
2, 56686, Note_on_c, 0, 58, 0
2, 56704, Control_c, 0, 64, 66
2, 56728, Control_c, 0, 64, 65
2, 56728, Note_on_c, 0, 46, 0
2, 56743, Control_c, 0, 64, 64
2, 56761, Control_c, 0, 64, 63
2, 56801, Control_c, 0, 64, 62
2, 56824, Note_on_c, 0, 53, 0
2, 56841, Control_c, 0, 64, 61
2, 56841, Note_on_c, 0, 58, 57
2, 56877, Control_c, 0, 64, 59
2, 56955, Control_c, 0, 64, 58
2, 56973, Control_c, 0, 64, 57
2, 56993, Control_c, 0, 64, 55
2, 57011, Control_c, 0, 64, 48
2, 57031, Control_c, 0, 64, 37
2, 57051, Control_c, 0, 64, 19
2, 57070, Control_c, 0, 64, 0
2, 57079, Note_on_c, 0, 58, 0
2, 57086, Note_on_c, 0, 72, 69
2, 57104, Note_on_c, 0, 56, 48
2, 57108, Note_on_c, 0, 70, 0
2, 57131, Note_on_c, 0, 73, 0
2, 57168, Control_c, 0, 64, 19
2, 57186, Control_c, 0, 64, 32
2, 57204, Control_c, 0, 64, 44
2, 57224, Control_c, 0, 64, 53
2, 57242, Control_c, 0, 64, 59
2, 57262, Control_c, 0, 64, 62
2, 57280, Control_c, 0, 64, 63
2, 57300, Control_c, 0, 64, 64
2, 57320, Control_c, 0, 64, 65
2, 57328, Note_on_c, 0, 60, 54
2, 57332, Note_on_c, 0, 48, 0
2, 57339, Control_c, 0, 64, 67
2, 57357, Control_c, 0, 64, 69
2, 57376, Control_c, 0, 64, 72
2, 57395, Control_c, 0, 64, 75
2, 57415, Control_c, 0, 64, 76
2, 57433, Control_c, 0, 64, 77
2, 57453, Control_c, 0, 64, 78
2, 57511, Control_c, 0, 64, 77
2, 57552, Control_c, 0, 64, 76
2, 57569, Control_c, 0, 64, 75
2, 57601, Note_on_c, 0, 53, 43
2, 57601, Note_on_c, 0, 65, 48
2, 57610, Control_c, 0, 64, 74
2, 57610, Note_on_c, 0, 64, 0
2, 57628, Control_c, 0, 64, 72
2, 57632, Note_on_c, 0, 50, 45
2, 57644, Note_on_c, 0, 56, 0
2, 57647, Control_c, 0, 64, 71
2, 57664, Control_c, 0, 64, 70
2, 57684, Control_c, 0, 64, 69
2, 57703, Control_c, 0, 64, 67
2, 57722, Control_c, 0, 64, 66
2, 57741, Control_c, 0, 64, 65
2, 57762, Control_c, 0, 64, 64
2, 57770, Note_on_c, 0, 60, 0
2, 57780, Control_c, 0, 64, 63
2, 57838, Control_c, 0, 64, 62
2, 57850, Note_on_c, 0, 70, 66
2, 57876, Control_c, 0, 64, 61
2, 57895, Control_c, 0, 64, 60
2, 57904, Note_on_c, 0, 72, 0
2, 57953, Control_c, 0, 64, 59
2, 57991, Control_c, 0, 64, 58
2, 58029, Control_c, 0, 64, 57
2, 58050, Control_c, 0, 64, 56
2, 58069, Control_c, 0, 64, 55
2, 58087, Control_c, 0, 64, 54
2, 58096, Note_on_c, 0, 50, 0
2, 58106, Control_c, 0, 64, 52
2, 58115, Note_on_c, 0, 67, 60
2, 58119, Note_on_c, 0, 52, 48
2, 58119, Note_on_c, 0, 65, 0
2, 58126, Note_on_c, 0, 55, 45
2, 58128, Control_c, 0, 64, 50
2, 58145, Control_c, 0, 64, 47
2, 58163, Control_c, 0, 64, 44
2, 58172, Note_on_c, 0, 53, 0
2, 58185, Control_c, 0, 64, 42
2, 58198, Note_on_c, 0, 70, 0
2, 58202, Control_c, 0, 64, 39
2, 58222, Control_c, 0, 64, 38
2, 58241, Control_c, 0, 64, 36
2, 58259, Control_c, 0, 64, 34
2, 58279, Control_c, 0, 64, 33
2, 58300, Control_c, 0, 64, 32
2, 58381, Note_on_c, 0, 64, 58
2, 58432, Note_on_c, 0, 67, 0
2, 58655, Note_on_c, 0, 60, 46
2, 58670, Note_on_c, 0, 56, 22
2, 58688, Note_on_c, 0, 53, 31
2, 58707, Note_on_c, 0, 55, 0
2, 58707, Note_on_c, 0, 64, 0
2, 58784, Note_on_c, 0, 52, 0
2, 58913, Note_on_c, 0, 60, 0
2, 58924, Note_on_c, 0, 64, 50
2, 59087, Control_c, 0, 64, 33
2, 59123, Control_c, 0, 64, 34
2, 59143, Control_c, 0, 64, 35
2, 59162, Control_c, 0, 64, 36
2, 59183, Control_c, 0, 64, 38
2, 59192, Note_on_c, 0, 64, 0
2, 59201, Control_c, 0, 64, 41
2, 59213, Note_on_c, 0, 65, 38
2, 59221, Control_c, 0, 64, 46
2, 59238, Control_c, 0, 64, 51
2, 59258, Control_c, 0, 64, 55
2, 59280, Control_c, 0, 64, 57
2, 59298, Control_c, 0, 64, 58
2, 59317, Control_c, 0, 64, 59
2, 59336, Control_c, 0, 64, 61
2, 59356, Control_c, 0, 64, 62
2, 59391, Control_c, 0, 64, 63
2, 59451, Control_c, 0, 64, 64
2, 59469, Control_c, 0, 64, 65
2, 59488, Control_c, 0, 64, 67
2, 59491, Note_on_c, 0, 71, 49
2, 59511, Control_c, 0, 64, 69
2, 59528, Control_c, 0, 64, 71
2, 59545, Control_c, 0, 64, 73
2, 59565, Control_c, 0, 64, 75
2, 59580, Note_on_c, 0, 56, 0
2, 59585, Control_c, 0, 64, 77
2, 59604, Control_c, 0, 64, 78
2, 59623, Control_c, 0, 64, 80
2, 59645, Control_c, 0, 64, 82
2, 59663, Control_c, 0, 64, 85
2, 59680, Control_c, 0, 64, 86
2, 59797, Control_c, 0, 64, 85
2, 59817, Control_c, 0, 64, 84
2, 59855, Control_c, 0, 64, 83
2, 59874, Control_c, 0, 64, 82
2, 59892, Control_c, 0, 64, 81
2, 59912, Control_c, 0, 64, 80
2, 59932, Control_c, 0, 64, 78
2, 59933, Note_on_c, 0, 72, 46
2, 59935, Note_on_c, 0, 55, 31
2, 59953, Control_c, 0, 64, 77
2, 59953, Note_on_c, 0, 48, 24
2, 59969, Control_c, 0, 64, 76
2, 59978, Note_on_c, 0, 71, 0
2, 59990, Control_c, 0, 64, 74
2, 60008, Control_c, 0, 64, 73
2, 60026, Control_c, 0, 64, 71
2, 60033, Note_on_c, 0, 53, 0
2, 60042, Note_on_c, 0, 65, 0
2, 60047, Control_c, 0, 64, 69
2, 60064, Control_c, 0, 64, 68
2, 60086, Control_c, 0, 64, 66
2, 60121, Control_c, 0, 64, 65
2, 60162, Control_c, 0, 64, 64
2, 60180, Control_c, 0, 64, 63
2, 60218, Control_c, 0, 64, 62
2, 60258, Control_c, 0, 64, 61
2, 60258, Note_on_c, 0, 65, 34
2, 60294, Control_c, 0, 64, 60
2, 60315, Control_c, 0, 64, 59
2, 60354, Control_c, 0, 64, 58
2, 60372, Control_c, 0, 64, 57
2, 60409, Control_c, 0, 64, 56
2, 60449, Control_c, 0, 64, 55
2, 60467, Control_c, 0, 64, 54
2, 60486, Control_c, 0, 64, 53
2, 60506, Control_c, 0, 64, 51
2, 60523, Note_on_c, 0, 64, 48
2, 60528, Control_c, 0, 64, 50
2, 60532, Note_on_c, 0, 65, 0
2, 60545, Control_c, 0, 64, 48
2, 60565, Control_c, 0, 64, 45
2, 60583, Control_c, 0, 64, 43
2, 60603, Control_c, 0, 64, 41
2, 60622, Control_c, 0, 64, 39
2, 60641, Control_c, 0, 64, 36
2, 60661, Control_c, 0, 64, 33
2, 60682, Control_c, 0, 64, 30
2, 60698, Control_c, 0, 64, 28
2, 60717, Control_c, 0, 64, 27
2, 60736, Control_c, 0, 64, 25
2, 60773, Control_c, 0, 64, 24
2, 60784, Note_on_c, 0, 67, 50
2, 60816, Control_c, 0, 64, 23
2, 60839, Note_on_c, 0, 72, 0
2, 61035, Note_on_c, 0, 70, 56
2, 61083, Note_on_c, 0, 67, 0
2, 61275, Note_on_c, 0, 73, 68
2, 61315, Note_on_c, 0, 70, 0
2, 61448, Control_c, 0, 64, 24
2, 61530, Note_on_c, 0, 72, 72
2, 61545, Control_c, 0, 64, 25
2, 61651, Note_on_c, 0, 73, 0
2, 61782, Note_on_c, 0, 70, 69
2, 61790, Note_on_c, 0, 49, 50
2, 61830, Note_on_c, 0, 72, 0
2, 61858, Note_on_c, 0, 48, 0
2, 62003, Control_c, 0, 64, 24
2, 62023, Control_c, 0, 64, 23
2, 62042, Control_c, 0, 64, 20
2, 62054, Note_on_c, 0, 64, 0
2, 62054, Note_on_c, 0, 69, 64
2, 62065, Control_c, 0, 64, 15
2, 62065, Note_on_c, 0, 53, 52
2, 62071, Note_on_c, 0, 51, 53
2, 62081, Control_c, 0, 64, 0
2, 62092, Note_on_c, 0, 55, 0
2, 62102, Note_on_c, 0, 49, 0
2, 62113, Note_on_c, 0, 70, 0
2, 62256, Control_c, 0, 64, 31
2, 62274, Control_c, 0, 64, 45
2, 62293, Control_c, 0, 64, 54
2, 62302, Note_on_c, 0, 65, 68
2, 62311, Control_c, 0, 64, 60
2, 62331, Control_c, 0, 64, 62
2, 62350, Control_c, 0, 64, 63
2, 62361, Note_on_c, 0, 69, 0
2, 62370, Control_c, 0, 64, 65
2, 62376, Note_on_c, 0, 53, 0
2, 62391, Control_c, 0, 64, 66
2, 62409, Control_c, 0, 64, 68
2, 62429, Control_c, 0, 64, 71
2, 62448, Control_c, 0, 64, 73
2, 62466, Control_c, 0, 64, 76
2, 62504, Control_c, 0, 64, 75
2, 62542, Control_c, 0, 64, 74
2, 62562, Control_c, 0, 64, 73
2, 62568, Note_on_c, 0, 63, 67
2, 62572, Note_on_c, 0, 69, 63
2, 62580, Control_c, 0, 64, 72
2, 62598, Control_c, 0, 64, 70
2, 62617, Control_c, 0, 64, 68
2, 62637, Control_c, 0, 64, 66
2, 62653, Note_on_c, 0, 51, 0
2, 62657, Control_c, 0, 64, 64
2, 62662, Note_on_c, 0, 65, 0
2, 62676, Control_c, 0, 64, 63
2, 62695, Control_c, 0, 64, 62
2, 62733, Control_c, 0, 64, 61
2, 62752, Control_c, 0, 64, 60
2, 62772, Control_c, 0, 64, 59
2, 62794, Control_c, 0, 64, 58
2, 62812, Control_c, 0, 64, 57
2, 62820, Note_on_c, 0, 72, 78
2, 62831, Control_c, 0, 64, 56
2, 62886, Control_c, 0, 64, 55
2, 62906, Control_c, 0, 64, 54
2, 62911, Note_on_c, 0, 69, 0
2, 62928, Control_c, 0, 64, 53
2, 62963, Control_c, 0, 64, 52
2, 63003, Control_c, 0, 64, 51
2, 63023, Control_c, 0, 64, 50
2, 63040, Control_c, 0, 64, 49
2, 63079, Control_c, 0, 64, 48
2, 63084, Note_on_c, 0, 77, 75
2, 63101, Control_c, 0, 64, 47
2, 63109, Note_on_c, 0, 61, 58
2, 63145, Note_on_c, 0, 72, 0
2, 63156, Control_c, 0, 64, 46
2, 63211, Note_on_c, 0, 63, 0
2, 63214, Control_c, 0, 64, 45
2, 63251, Control_c, 0, 64, 44
2, 63270, Control_c, 0, 64, 43
2, 63293, Control_c, 0, 64, 42
2, 63310, Control_c, 0, 64, 41
2, 63328, Control_c, 0, 64, 39
2, 63346, Note_on_c, 0, 70, 74
2, 63349, Control_c, 0, 64, 37
2, 63367, Control_c, 0, 64, 35
2, 63387, Control_c, 0, 64, 33
2, 63404, Control_c, 0, 64, 30
2, 63427, Control_c, 0, 64, 28
2, 63443, Control_c, 0, 64, 26
2, 63465, Control_c, 0, 64, 24
2, 63483, Control_c, 0, 64, 22
2, 63608, Note_on_c, 0, 69, 66
2, 63617, Note_on_c, 0, 60, 61
2, 63636, Control_c, 0, 64, 25
2, 63642, Note_on_c, 0, 61, 0
2, 63646, Note_on_c, 0, 70, 0
2, 63656, Control_c, 0, 64, 28
2, 63674, Control_c, 0, 64, 33
2, 63694, Control_c, 0, 64, 39
2, 63713, Control_c, 0, 64, 45
2, 63731, Control_c, 0, 64, 51
2, 63753, Control_c, 0, 64, 55
2, 63771, Control_c, 0, 64, 58
2, 63790, Control_c, 0, 64, 60
2, 63808, Control_c, 0, 64, 61
2, 63827, Control_c, 0, 64, 62
2, 63846, Control_c, 0, 64, 64
2, 63870, Control_c, 0, 64, 66
2, 63870, Note_on_c, 0, 75, 77
2, 63888, Control_c, 0, 64, 68
2, 63908, Control_c, 0, 64, 71
2, 63908, Note_on_c, 0, 60, 0
2, 63922, Control_c, 0, 64, 75
2, 63932, Note_on_c, 0, 77, 0
2, 63942, Control_c, 0, 64, 81
2, 63965, Control_c, 0, 64, 90
2, 63981, Control_c, 0, 64, 100
2, 64001, Control_c, 0, 64, 115
2, 64023, Control_c, 0, 64, 127
2, 64111, Note_on_c, 0, 69, 0
2, 64174, Control_c, 0, 64, 120
2, 64194, Control_c, 0, 64, 107
2, 64200, Note_on_c, 0, 73, 80
2, 64204, Note_on_c, 0, 58, 60
2, 64211, Control_c, 0, 64, 100
2, 64232, Control_c, 0, 64, 94
2, 64252, Control_c, 0, 64, 88
2, 64257, Note_on_c, 0, 75, 0
2, 64269, Control_c, 0, 64, 83
2, 64289, Control_c, 0, 64, 78
2, 64308, Control_c, 0, 64, 73
2, 64327, Control_c, 0, 64, 70
2, 64346, Control_c, 0, 64, 68
2, 64364, Control_c, 0, 64, 67
2, 64385, Control_c, 0, 64, 66
2, 64404, Control_c, 0, 64, 65
2, 64423, Control_c, 0, 64, 64
2, 64443, Control_c, 0, 64, 63
2, 64461, Control_c, 0, 64, 62
2, 64499, Control_c, 0, 64, 61
2, 64524, Note_on_c, 0, 53, 59
2, 64539, Control_c, 0, 64, 60
2, 64546, Note_on_c, 0, 68, 70
2, 64557, Control_c, 0, 64, 59
2, 64579, Control_c, 0, 64, 58
2, 64596, Control_c, 0, 64, 56
2, 64617, Control_c, 0, 64, 54
2, 64633, Control_c, 0, 64, 53
2, 64654, Control_c, 0, 64, 52
2, 64672, Control_c, 0, 64, 49
2, 64692, Control_c, 0, 64, 46
2, 64709, Control_c, 0, 64, 42
2, 64729, Control_c, 0, 64, 37
2, 64751, Control_c, 0, 64, 30
2, 64771, Control_c, 0, 64, 23
2, 64788, Control_c, 0, 64, 22
2, 64818, Note_on_c, 0, 67, 68
2, 64830, Note_on_c, 0, 49, 56
2, 64849, Control_c, 0, 64, 26
2, 64849, Note_on_c, 0, 68, 0
2, 64865, Control_c, 0, 64, 32
2, 64884, Control_c, 0, 64, 38
2, 64890, Note_on_c, 0, 53, 0
2, 64907, Control_c, 0, 64, 46
2, 64923, Control_c, 0, 64, 54
2, 64942, Control_c, 0, 64, 59
2, 64960, Control_c, 0, 64, 62
2, 64984, Control_c, 0, 64, 63
2, 64999, Control_c, 0, 64, 64
2, 65017, Control_c, 0, 64, 65
2, 65038, Control_c, 0, 64, 66
2, 65060, Control_c, 0, 64, 69
2, 65060, Note_on_c, 0, 46, 60
2, 65064, Note_on_c, 0, 70, 71
2, 65077, Control_c, 0, 64, 72
2, 65094, Control_c, 0, 64, 75
2, 65099, Note_on_c, 0, 67, 0
2, 65115, Control_c, 0, 64, 78
2, 65131, Note_on_c, 0, 58, 0
2, 65135, Control_c, 0, 64, 80
2, 65151, Control_c, 0, 64, 81
2, 65248, Control_c, 0, 64, 80
2, 65268, Control_c, 0, 64, 79
2, 65287, Control_c, 0, 64, 78
2, 65293, Note_on_c, 0, 49, 0
2, 65307, Control_c, 0, 64, 77
2, 65322, Note_on_c, 0, 64, 66
2, 65330, Note_on_c, 0, 55, 59
2, 65345, Control_c, 0, 64, 76
2, 65367, Control_c, 0, 64, 75
2, 65383, Control_c, 0, 64, 74
2, 65402, Control_c, 0, 64, 73
2, 65420, Control_c, 0, 64, 71
2, 65439, Control_c, 0, 64, 69
2, 65460, Control_c, 0, 64, 67
2, 65482, Control_c, 0, 64, 66
2, 65497, Control_c, 0, 64, 64
2, 65517, Control_c, 0, 64, 63
2, 65556, Control_c, 0, 64, 62
2, 65565, Note_on_c, 0, 72, 73
2, 65581, Note_on_c, 0, 48, 61
2, 65590, Note_on_c, 0, 46, 0
2, 65594, Control_c, 0, 64, 61
2, 65616, Note_on_c, 0, 73, 0
2, 65620, Control_c, 0, 64, 60
2, 65620, Note_on_c, 0, 70, 0
2, 65652, Control_c, 0, 64, 59
2, 65690, Control_c, 0, 64, 58
2, 65730, Control_c, 0, 64, 57
2, 65767, Control_c, 0, 64, 56
2, 65786, Control_c, 0, 64, 55
2, 65805, Control_c, 0, 64, 54
2, 65829, Control_c, 0, 64, 53
2, 65829, Note_on_c, 0, 49, 58
2, 65838, Note_on_c, 0, 65, 72
2, 65843, Note_on_c, 0, 48, 0
2, 65863, Control_c, 0, 64, 52
2, 65883, Note_on_c, 0, 64, 0
2, 65887, Control_c, 0, 64, 51
2, 65901, Control_c, 0, 64, 50
2, 65921, Control_c, 0, 64, 49
2, 65939, Control_c, 0, 64, 48
2, 65999, Control_c, 0, 64, 47
2, 66034, Control_c, 0, 64, 46
2, 66056, Control_c, 0, 64, 45
2, 66077, Note_on_c, 0, 70, 78
2, 66081, Note_on_c, 0, 46, 55
2, 66131, Note_on_c, 0, 72, 0
2, 66135, Control_c, 0, 64, 44
2, 66170, Control_c, 0, 64, 43
2, 66228, Control_c, 0, 64, 42
2, 66266, Control_c, 0, 64, 41
2, 66291, Note_on_c, 0, 49, 0
2, 66304, Control_c, 0, 64, 40
2, 66345, Control_c, 0, 64, 39
2, 66346, Note_on_c, 0, 48, 61
2, 66351, Note_on_c, 0, 64, 76
2, 66391, Note_on_c, 0, 46, 0
2, 66458, Note_on_c, 0, 55, 0
2, 66589, Note_on_c, 0, 65, 0
2, 66597, Note_on_c, 0, 73, 82
2, 66616, Note_on_c, 0, 55, 65
2, 66653, Note_on_c, 0, 70, 0
2, 66805, Control_c, 0, 64, 40
2, 66859, Note_on_c, 0, 72, 82
2, 66863, Note_on_c, 0, 56, 74
2, 66918, Note_on_c, 0, 73, 0
2, 67035, Note_on_c, 0, 55, 0
2, 67140, Note_on_c, 0, 65, 74
2, 67146, Note_on_c, 0, 59, 76
2, 67176, Note_on_c, 0, 64, 0
2, 67270, Note_on_c, 0, 56, 0
2, 67515, Control_c, 0, 64, 39
2, 67551, Note_on_c, 0, 68, 83
2, 67556, Note_on_c, 0, 60, 66
2, 67651, Note_on_c, 0, 65, 0
2, 67684, Note_on_c, 0, 72, 0
2, 67730, Note_on_c, 0, 59, 0
2, 67801, Control_c, 0, 64, 38
2, 67902, Note_on_c, 0, 48, 0
2, 67922, Note_on_c, 0, 65, 73
2, 68199, Note_on_c, 0, 48, 75
2, 68207, Control_c, 0, 64, 37
2, 68207, Note_on_c, 0, 64, 74
2, 68244, Control_c, 0, 64, 36
2, 68264, Control_c, 0, 64, 34
2, 68264, Note_on_c, 0, 65, 0
2, 68281, Control_c, 0, 64, 32
2, 68302, Control_c, 0, 64, 29
2, 68320, Control_c, 0, 64, 25
2, 68339, Control_c, 0, 64, 16
2, 68359, Control_c, 0, 64, 0
2, 68492, Note_on_c, 0, 67, 82
2, 68512, Control_c, 0, 64, 15
2, 68531, Control_c, 0, 64, 36
2, 68551, Control_c, 0, 64, 51
2, 68569, Control_c, 0, 64, 61
2, 68590, Control_c, 0, 64, 64
2, 68609, Control_c, 0, 64, 67
2, 68630, Control_c, 0, 64, 71
2, 68635, Note_on_c, 0, 64, 0
2, 68647, Control_c, 0, 64, 78
2, 68669, Control_c, 0, 64, 88
2, 68686, Control_c, 0, 64, 103
2, 68704, Control_c, 0, 64, 127
2, 68806, Note_on_c, 0, 68, 0
2, 68828, Note_on_c, 0, 67, 0
2, 68855, Note_on_c, 0, 49, 70
2, 68916, Control_c, 0, 64, 113
2, 68934, Control_c, 0, 64, 100
2, 68950, Note_on_c, 0, 65, 76
2, 68955, Control_c, 0, 64, 90
2, 68976, Control_c, 0, 64, 82
2, 68992, Control_c, 0, 64, 75
2, 69009, Note_on_c, 0, 48, 0
2, 69013, Control_c, 0, 64, 71
2, 69030, Control_c, 0, 64, 68
2, 69050, Control_c, 0, 64, 65
2, 69068, Control_c, 0, 64, 64
2, 69089, Control_c, 0, 64, 62
2, 69107, Control_c, 0, 64, 61
2, 69126, Control_c, 0, 64, 60
2, 69144, Control_c, 0, 64, 59
2, 69184, Control_c, 0, 64, 57
2, 69207, Control_c, 0, 64, 56
2, 69225, Control_c, 0, 64, 54
2, 69243, Control_c, 0, 64, 52
2, 69262, Control_c, 0, 64, 49
2, 69280, Control_c, 0, 64, 47
2, 69300, Control_c, 0, 64, 44
2, 69320, Control_c, 0, 64, 42
2, 69329, Note_on_c, 0, 68, 73
2, 69338, Control_c, 0, 64, 39
2, 69356, Control_c, 0, 64, 36
2, 69376, Control_c, 0, 64, 30
2, 69396, Control_c, 0, 64, 20
2, 69415, Control_c, 0, 64, 0
2, 69619, Note_on_c, 0, 72, 73
2, 69625, Control_c, 0, 64, 21
2, 69646, Control_c, 0, 64, 39
2, 69666, Control_c, 0, 64, 51
2, 69684, Control_c, 0, 64, 59
2, 69699, Note_on_c, 0, 68, 0
2, 69704, Control_c, 0, 64, 61
2, 69723, Control_c, 0, 64, 62
2, 69741, Control_c, 0, 64, 64
2, 69761, Control_c, 0, 64, 65
2, 69783, Control_c, 0, 64, 68
2, 69797, Control_c, 0, 64, 73
2, 69819, Control_c, 0, 64, 81
2, 69837, Control_c, 0, 64, 91
2, 69857, Control_c, 0, 64, 101
2, 69866, Note_on_c, 0, 77, 83
2, 69875, Control_c, 0, 64, 112
2, 69895, Control_c, 0, 64, 127
2, 69932, Note_on_c, 0, 65, 0
2, 69943, Note_on_c, 0, 72, 0
2, 70048, Control_c, 0, 64, 118
2, 70071, Control_c, 0, 64, 110
2, 70087, Control_c, 0, 64, 104
2, 70107, Control_c, 0, 64, 99
2, 70126, Control_c, 0, 64, 94
2, 70131, Note_on_c, 0, 67, 76
2, 70145, Control_c, 0, 64, 90
2, 70145, Note_on_c, 0, 58, 70
2, 70164, Control_c, 0, 64, 87
2, 70185, Control_c, 0, 64, 83
2, 70203, Control_c, 0, 64, 80
2, 70222, Control_c, 0, 64, 77
2, 70241, Control_c, 0, 64, 74
2, 70262, Control_c, 0, 64, 72
2, 70262, Note_on_c, 0, 77, 0
2, 70279, Control_c, 0, 64, 70
2, 70301, Control_c, 0, 64, 68
2, 70301, Note_on_c, 0, 60, 0
2, 70317, Control_c, 0, 64, 66
2, 70338, Control_c, 0, 64, 65
2, 70355, Control_c, 0, 64, 64
2, 70386, Note_on_c, 0, 77, 81
2, 70414, Control_c, 0, 64, 63
2, 70435, Control_c, 0, 64, 60
2, 70455, Control_c, 0, 64, 55
2, 70469, Control_c, 0, 64, 48
2, 70489, Control_c, 0, 64, 38
2, 70510, Control_c, 0, 64, 29
2, 70529, Control_c, 0, 64, 21
2, 70547, Control_c, 0, 64, 13
2, 70567, Control_c, 0, 64, 10
2, 70624, Control_c, 0, 64, 16
2, 70646, Control_c, 0, 64, 29
2, 70646, Note_on_c, 0, 76, 80
2, 70663, Control_c, 0, 64, 39
2, 70683, Control_c, 0, 64, 50
2, 70701, Control_c, 0, 64, 57
2, 70723, Control_c, 0, 64, 61
2, 70739, Control_c, 0, 64, 63
2, 70759, Control_c, 0, 64, 65
2, 70778, Note_on_c, 0, 77, 0
2, 70782, Control_c, 0, 64, 69
2, 70800, Control_c, 0, 64, 75
2, 70818, Control_c, 0, 64, 85
2, 70835, Control_c, 0, 64, 102
2, 70856, Control_c, 0, 64, 127
2, 70860, Note_on_c, 0, 49, 0
2, 70893, Note_on_c, 0, 79, 87
2, 70917, Note_on_c, 0, 76, 0
2, 70934, Note_on_c, 0, 58, 0
2, 70992, Note_on_c, 0, 67, 0
2, 71201, Note_on_c, 0, 60, 69
2, 71201, Note_on_c, 0, 68, 76
2, 71216, Note_on_c, 0, 48, 59
2, 71221, Control_c, 0, 64, 108
2, 71240, Control_c, 0, 64, 100
2, 71260, Control_c, 0, 64, 95
2, 71278, Control_c, 0, 64, 92
2, 71299, Control_c, 0, 64, 89
2, 71315, Control_c, 0, 64, 85
2, 71333, Control_c, 0, 64, 82
2, 71352, Control_c, 0, 64, 79
2, 71373, Control_c, 0, 64, 77
2, 71394, Control_c, 0, 64, 75
2, 71412, Control_c, 0, 64, 73
2, 71430, Control_c, 0, 64, 71
2, 71453, Control_c, 0, 64, 70
2, 71453, Note_on_c, 0, 79, 0
2, 71463, Note_on_c, 0, 72, 76
2, 71470, Control_c, 0, 64, 68
2, 71491, Control_c, 0, 64, 66
2, 71509, Control_c, 0, 64, 65
2, 71529, Control_c, 0, 64, 64
2, 71567, Control_c, 0, 64, 63
2, 71607, Control_c, 0, 64, 62
2, 71622, Control_c, 0, 64, 61
2, 71641, Control_c, 0, 64, 60
2, 71664, Control_c, 0, 64, 59
2, 71680, Control_c, 0, 64, 58
2, 71700, Control_c, 0, 64, 57
2, 71718, Control_c, 0, 64, 56
2, 71740, Control_c, 0, 64, 53
2, 71740, Note_on_c, 0, 77, 79
2, 71757, Control_c, 0, 64, 51
2, 71776, Control_c, 0, 64, 48
2, 71796, Control_c, 0, 64, 45
2, 71796, Note_on_c, 0, 72, 0
2, 71816, Control_c, 0, 64, 42
2, 71835, Control_c, 0, 64, 40
2, 71856, Control_c, 0, 64, 39
2, 71873, Control_c, 0, 64, 38
2, 71911, Control_c, 0, 64, 37
2, 71984, Note_on_c, 0, 76, 80
2, 72058, Note_on_c, 0, 77, 0
2, 72300, Note_on_c, 0, 56, 52
2, 72300, Note_on_c, 0, 77, 78
2, 72341, Note_on_c, 0, 76, 0
2, 72547, Note_on_c, 0, 60, 0
2, 72575, Note_on_c, 0, 72, 65
2, 72623, Note_on_c, 0, 68, 0
2, 72833, Note_on_c, 0, 70, 66
2, 72865, Note_on_c, 0, 72, 0
2, 72870, Control_c, 0, 64, 38
2, 73085, Note_on_c, 0, 68, 68
2, 73127, Note_on_c, 0, 70, 0
2, 73383, Note_on_c, 0, 73, 72
2, 73401, Note_on_c, 0, 58, 46
2, 73432, Note_on_c, 0, 77, 0
2, 73516, Note_on_c, 0, 68, 0
2, 73619, Note_on_c, 0, 56, 0
2, 73661, Note_on_c, 0, 68, 68
2, 73921, Note_on_c, 0, 67, 50
2, 73935, Note_on_c, 0, 68, 0
2, 74166, Note_on_c, 0, 70, 56
2, 74185, Note_on_c, 0, 67, 0
2, 74426, Note_on_c, 0, 64, 55
2, 74445, Note_on_c, 0, 55, 44
2, 74521, Note_on_c, 0, 73, 0
2, 74687, Note_on_c, 0, 73, 60
2, 74720, Note_on_c, 0, 70, 0
2, 74901, Note_on_c, 0, 58, 0
2, 74930, Note_on_c, 0, 72, 66
2, 74969, Note_on_c, 0, 73, 0
2, 75004, Control_c, 0, 64, 39
2, 75022, Control_c, 0, 64, 42
2, 75040, Control_c, 0, 64, 48
2, 75059, Control_c, 0, 64, 54
2, 75078, Control_c, 0, 64, 59
2, 75098, Control_c, 0, 64, 62
2, 75115, Control_c, 0, 64, 63
2, 75137, Control_c, 0, 64, 64
2, 75155, Control_c, 0, 64, 65
2, 75177, Control_c, 0, 64, 66
2, 75177, Note_on_c, 0, 72, 0
2, 75182, Note_on_c, 0, 70, 63
2, 75193, Control_c, 0, 64, 69
2, 75214, Control_c, 0, 64, 73
2, 75231, Note_on_c, 0, 64, 0
2, 75235, Control_c, 0, 64, 76
2, 75251, Control_c, 0, 64, 80
2, 75269, Control_c, 0, 64, 82
2, 75290, Control_c, 0, 64, 83
2, 75301, Note_on_c, 0, 70, 0
2, 75386, Control_c, 0, 64, 82
2, 75404, Control_c, 0, 64, 81
2, 75426, Control_c, 0, 64, 80
2, 75443, Control_c, 0, 64, 79
2, 75465, Control_c, 0, 64, 77
2, 75465, Note_on_c, 0, 68, 60
2, 75482, Control_c, 0, 64, 74
2, 75492, Note_on_c, 0, 65, 44
2, 75496, Note_on_c, 0, 56, 40
2, 75500, Control_c, 0, 64, 72
2, 75520, Control_c, 0, 64, 69
2, 75540, Control_c, 0, 64, 66
2, 75558, Control_c, 0, 64, 64
2, 75577, Control_c, 0, 64, 62
2, 75597, Control_c, 0, 64, 61
2, 75618, Control_c, 0, 64, 60
2, 75657, Control_c, 0, 64, 59
2, 75673, Note_on_c, 0, 55, 0
2, 75678, Control_c, 0, 64, 58
2, 75696, Control_c, 0, 64, 57
2, 75709, Note_on_c, 0, 65, 0
2, 75713, Control_c, 0, 64, 56
2, 75732, Control_c, 0, 64, 55
2, 75732, Note_on_c, 0, 63, 53
2, 75769, Control_c, 0, 64, 53
2, 75790, Control_c, 0, 64, 52
2, 75810, Control_c, 0, 64, 51
2, 75828, Control_c, 0, 64, 49
2, 75847, Control_c, 0, 64, 47
2, 75867, Control_c, 0, 64, 45
2, 75887, Control_c, 0, 64, 43
2, 75907, Control_c, 0, 64, 42
2, 75980, Note_on_c, 0, 62, 47
2, 75988, Note_on_c, 0, 63, 0
2, 76237, Note_on_c, 0, 65, 46
2, 76244, Note_on_c, 0, 62, 0
2, 76498, Control_c, 0, 64, 43
2, 76507, Note_on_c, 0, 59, 47
2, 76528, Note_on_c, 0, 53, 35
2, 76594, Note_on_c, 0, 68, 0
2, 76670, Note_on_c, 0, 56, 0
2, 76773, Note_on_c, 0, 65, 0
2, 76773, Note_on_c, 0, 68, 51
2, 76923, Control_c, 0, 64, 44
2, 76979, Control_c, 0, 64, 45
2, 77020, Control_c, 0, 64, 46
2, 77030, Note_on_c, 0, 67, 50
2, 77030, Note_on_c, 0, 68, 0
2, 77058, Control_c, 0, 64, 48
2, 77076, Control_c, 0, 64, 51
2, 77094, Control_c, 0, 64, 54
2, 77115, Control_c, 0, 64, 57
2, 77134, Control_c, 0, 64, 59
2, 77153, Control_c, 0, 64, 60
2, 77172, Control_c, 0, 64, 61
2, 77192, Control_c, 0, 64, 63
2, 77212, Control_c, 0, 64, 64
2, 77229, Control_c, 0, 64, 66
2, 77249, Control_c, 0, 64, 69
2, 77268, Control_c, 0, 64, 72
2, 77273, Note_on_c, 0, 65, 53
2, 77284, Note_on_c, 0, 67, 0
2, 77289, Control_c, 0, 64, 75
2, 77305, Control_c, 0, 64, 78
2, 77327, Control_c, 0, 64, 81
2, 77345, Control_c, 0, 64, 85
2, 77360, Note_on_c, 0, 65, 0
2, 77364, Control_c, 0, 64, 88
2, 77382, Control_c, 0, 64, 89
2, 77421, Control_c, 0, 64, 88
2, 77440, Control_c, 0, 64, 87
2, 77458, Control_c, 0, 64, 86
2, 77482, Control_c, 0, 64, 85
2, 77496, Control_c, 0, 64, 82
2, 77517, Control_c, 0, 64, 79
2, 77537, Control_c, 0, 64, 76
2, 77556, Note_on_c, 0, 59, 0
2, 77556, Note_on_c, 0, 64, 51
2, 77561, Control_c, 0, 64, 73
2, 77565, Note_on_c, 0, 55, 43
2, 77575, Control_c, 0, 64, 70
2, 77595, Control_c, 0, 64, 67
2, 77613, Control_c, 0, 64, 64
2, 77634, Control_c, 0, 64, 62
2, 77636, Note_on_c, 0, 53, 0
2, 77652, Control_c, 0, 64, 61
2, 77670, Control_c, 0, 64, 60
2, 77709, Control_c, 0, 64, 59
2, 77729, Control_c, 0, 64, 58
2, 77747, Control_c, 0, 64, 57
2, 77767, Control_c, 0, 64, 56
2, 77798, Note_on_c, 0, 60, 43
2, 77807, Control_c, 0, 64, 55
2, 77824, Control_c, 0, 64, 53
2, 77842, Control_c, 0, 64, 52
2, 77865, Control_c, 0, 64, 51
2, 77881, Control_c, 0, 64, 50
2, 77902, Control_c, 0, 64, 48
2, 77921, Control_c, 0, 64, 45
2, 77939, Control_c, 0, 64, 40
2, 77958, Control_c, 0, 64, 33
2, 77979, Control_c, 0, 64, 25
2, 78001, Control_c, 0, 64, 18
2, 78017, Control_c, 0, 64, 15
2, 78045, Note_on_c, 0, 60, 0
2, 78066, Note_on_c, 0, 58, 42
2, 78074, Control_c, 0, 64, 21
2, 78091, Control_c, 0, 64, 30
2, 78112, Control_c, 0, 64, 39
2, 78132, Control_c, 0, 64, 47
2, 78151, Control_c, 0, 64, 53
2, 78171, Control_c, 0, 64, 56
2, 78191, Control_c, 0, 64, 58
2, 78209, Control_c, 0, 64, 60
2, 78227, Control_c, 0, 64, 62
2, 78245, Control_c, 0, 64, 64
2, 78265, Control_c, 0, 64, 65
2, 78285, Control_c, 0, 64, 67
2, 78305, Control_c, 0, 64, 68
2, 78322, Control_c, 0, 64, 70
2, 78331, Note_on_c, 0, 58, 0
2, 78331, Note_on_c, 0, 61, 40
2, 78344, Control_c, 0, 64, 71
2, 78353, Note_on_c, 0, 55, 0
2, 78478, Control_c, 0, 64, 70
2, 78516, Control_c, 0, 64, 69
2, 78555, Control_c, 0, 64, 68
2, 78579, Note_on_c, 0, 55, 30
2, 78594, Control_c, 0, 64, 67
2, 78608, Note_on_c, 0, 52, 30
2, 78611, Control_c, 0, 64, 66
2, 78627, Note_on_c, 0, 61, 0
2, 78631, Control_c, 0, 64, 65
2, 78669, Control_c, 0, 64, 64
2, 78688, Control_c, 0, 64, 63
2, 78707, Control_c, 0, 64, 62
2, 78726, Control_c, 0, 64, 61
2, 78745, Control_c, 0, 64, 60
2, 78763, Control_c, 0, 64, 59
2, 78786, Control_c, 0, 64, 58
2, 78804, Control_c, 0, 64, 57
2, 78823, Control_c, 0, 64, 55
2, 78845, Control_c, 0, 64, 53
2, 78845, Note_on_c, 0, 61, 37
2, 78850, Note_on_c, 0, 55, 0
2, 78863, Control_c, 0, 64, 51
2, 78881, Control_c, 0, 64, 48
2, 78902, Control_c, 0, 64, 45
2, 78921, Control_c, 0, 64, 43
2, 78938, Control_c, 0, 64, 40
2, 78957, Control_c, 0, 64, 36
2, 78977, Control_c, 0, 64, 33
2, 78997, Control_c, 0, 64, 29
2, 79017, Control_c, 0, 64, 26
2, 79035, Control_c, 0, 64, 25
2, 79053, Control_c, 0, 64, 24
2, 79153, Note_on_c, 0, 60, 34
2, 79170, Control_c, 0, 64, 25
2, 79170, Note_on_c, 0, 61, 0
2, 79189, Control_c, 0, 64, 26
2, 79207, Control_c, 0, 64, 27
2, 79227, Control_c, 0, 64, 30
2, 79244, Control_c, 0, 64, 33
2, 79264, Control_c, 0, 64, 38
2, 79286, Control_c, 0, 64, 43
2, 79304, Control_c, 0, 64, 48
2, 79322, Control_c, 0, 64, 52
2, 79343, Control_c, 0, 64, 55
2, 79343, Note_on_c, 0, 48, 0
2, 79362, Control_c, 0, 64, 57
2, 79379, Control_c, 0, 64, 59
2, 79397, Control_c, 0, 64, 60
2, 79418, Control_c, 0, 64, 62
2, 79440, Control_c, 0, 64, 63
2, 79440, Note_on_c, 0, 58, 32
2, 79457, Control_c, 0, 64, 64
2, 79467, Note_on_c, 0, 60, 0
2, 79474, Control_c, 0, 64, 65
2, 79496, Control_c, 0, 64, 67
2, 79514, Control_c, 0, 64, 70
2, 79532, Control_c, 0, 64, 73
2, 79551, Control_c, 0, 64, 78
2, 79573, Control_c, 0, 64, 84
2, 79591, Control_c, 0, 64, 90
2, 79611, Control_c, 0, 64, 96
2, 79630, Control_c, 0, 64, 105
2, 79648, Control_c, 0, 64, 120
2, 79657, Note_on_c, 0, 58, 0
2, 79668, Control_c, 0, 64, 127
2, 79725, Note_on_c, 0, 64, 0
2, 79782, Control_c, 0, 64, 120
2, 79791, Note_on_c, 0, 53, 39
2, 79804, Control_c, 0, 64, 112
2, 79804, Note_on_c, 0, 56, 38
2, 79822, Control_c, 0, 64, 106
2, 79843, Control_c, 0, 64, 100
2, 79853, Note_on_c, 0, 48, 17
2, 79859, Control_c, 0, 64, 94
2, 79878, Control_c, 0, 64, 90
2, 79897, Control_c, 0, 64, 86
2, 79916, Control_c, 0, 64, 81
2, 79936, Note_on_c, 0, 52, 0
2, 79940, Control_c, 0, 64, 77
2, 79956, Control_c, 0, 64, 72
2, 79977, Control_c, 0, 64, 69
2, 79993, Control_c, 0, 64, 67
2, 80011, Control_c, 0, 64, 66
2, 80031, Control_c, 0, 64, 65
2, 80051, Control_c, 0, 64, 64
2, 80070, Control_c, 0, 64, 63
2, 80079, Note_on_c, 0, 72, 46
2, 80092, Control_c, 0, 64, 62
2, 80127, Control_c, 0, 64, 61
2, 80166, Control_c, 0, 64, 59
2, 80188, Control_c, 0, 64, 58
2, 80204, Control_c, 0, 64, 55
2, 80224, Control_c, 0, 64, 51
2, 80246, Control_c, 0, 64, 45
2, 80263, Control_c, 0, 64, 39
2, 80281, Control_c, 0, 64, 33
2, 80301, Control_c, 0, 64, 32
2, 80341, Note_on_c, 0, 72, 0
2, 80348, Note_on_c, 0, 70, 47
2, 80359, Control_c, 0, 64, 34
2, 80380, Control_c, 0, 64, 38
2, 80398, Control_c, 0, 64, 45
2, 80417, Control_c, 0, 64, 55
2, 80433, Control_c, 0, 64, 60
2, 80453, Control_c, 0, 64, 63
2, 80472, Control_c, 0, 64, 64
2, 80493, Control_c, 0, 64, 66
2, 80511, Control_c, 0, 64, 68
2, 80532, Control_c, 0, 64, 72
2, 80553, Control_c, 0, 64, 79
2, 80572, Control_c, 0, 64, 87
2, 80583, Note_on_c, 0, 73, 62
2, 80586, Note_on_c, 0, 53, 0
2, 80590, Control_c, 0, 64, 97
2, 80590, Note_on_c, 0, 70, 0
2, 80608, Control_c, 0, 64, 110
2, 80630, Control_c, 0, 64, 127
2, 80639, Note_on_c, 0, 56, 0
2, 80820, Control_c, 0, 64, 120
2, 80837, Control_c, 0, 64, 106
2, 80853, Note_on_c, 0, 64, 56
2, 80857, Control_c, 0, 64, 98
2, 80863, Note_on_c, 0, 58, 48
2, 80876, Control_c, 0, 64, 93
2, 80881, Note_on_c, 0, 55, 50
2, 80896, Control_c, 0, 64, 90
2, 80900, Note_on_c, 0, 73, 0
2, 80916, Control_c, 0, 64, 87
2, 80936, Control_c, 0, 64, 83
2, 80955, Control_c, 0, 64, 78
2, 80973, Control_c, 0, 64, 74
2, 80993, Control_c, 0, 64, 71
2, 81011, Control_c, 0, 64, 68
2, 81030, Control_c, 0, 64, 65
2, 81050, Control_c, 0, 64, 64
2, 81069, Control_c, 0, 64, 63
2, 81100, Note_on_c, 0, 73, 67
2, 81107, Control_c, 0, 64, 61
2, 81126, Control_c, 0, 64, 59
2, 81146, Control_c, 0, 64, 54
2, 81165, Control_c, 0, 64, 47
2, 81176, Note_on_c, 0, 64, 0
2, 81188, Control_c, 0, 64, 38
2, 81203, Control_c, 0, 64, 28
2, 81223, Control_c, 0, 64, 16
2, 81241, Control_c, 0, 64, 0
2, 81344, Note_on_c, 0, 72, 71
2, 81376, Control_c, 0, 64, 19
2, 81399, Control_c, 0, 64, 29
2, 81418, Control_c, 0, 64, 40
2, 81421, Note_on_c, 0, 73, 0
2, 81433, Control_c, 0, 64, 49
2, 81453, Control_c, 0, 64, 56
2, 81472, Control_c, 0, 64, 60
2, 81495, Control_c, 0, 64, 62
2, 81510, Control_c, 0, 64, 64
2, 81530, Control_c, 0, 64, 65
2, 81549, Control_c, 0, 64, 67
2, 81568, Control_c, 0, 64, 71
2, 81585, Control_c, 0, 64, 77
2, 81607, Control_c, 0, 64, 83
2, 81611, Note_on_c, 0, 70, 76
2, 81622, Note_on_c, 0, 55, 0
2, 81628, Control_c, 0, 64, 91
2, 81646, Control_c, 0, 64, 98
2, 81652, Note_on_c, 0, 72, 0
2, 81663, Control_c, 0, 64, 106
2, 81670, Note_on_c, 0, 58, 0
2, 81683, Control_c, 0, 64, 112
2, 81702, Control_c, 0, 64, 113
2, 81760, Control_c, 0, 64, 110
2, 81782, Control_c, 0, 64, 107
2, 81798, Control_c, 0, 64, 103
2, 81818, Control_c, 0, 64, 99
2, 81838, Control_c, 0, 64, 95
2, 81857, Control_c, 0, 64, 91
2, 81861, Note_on_c, 0, 70, 0
2, 81870, Note_on_c, 0, 68, 74
2, 81879, Control_c, 0, 64, 86
2, 81879, Note_on_c, 0, 56, 55
2, 81879, Note_on_c, 0, 60, 56
2, 81895, Control_c, 0, 64, 82
2, 81914, Control_c, 0, 64, 79
2, 81934, Control_c, 0, 64, 75
2, 81952, Control_c, 0, 64, 73
2, 81972, Control_c, 0, 64, 70
2, 81992, Control_c, 0, 64, 68
2, 82010, Control_c, 0, 64, 66
2, 82028, Control_c, 0, 64, 64
2, 82047, Control_c, 0, 64, 63
2, 82108, Note_on_c, 0, 79, 77
2, 82120, Note_on_c, 0, 68, 0
2, 82124, Control_c, 0, 64, 62
2, 82145, Control_c, 0, 64, 61
2, 82181, Control_c, 0, 64, 60
2, 82222, Control_c, 0, 64, 59
2, 82240, Control_c, 0, 64, 58
2, 82260, Control_c, 0, 64, 56
2, 82280, Control_c, 0, 64, 50
2, 82298, Control_c, 0, 64, 41
2, 82316, Control_c, 0, 64, 29
2, 82336, Control_c, 0, 64, 16
2, 82355, Control_c, 0, 64, 13
2, 82381, Note_on_c, 0, 77, 74
2, 82416, Control_c, 0, 64, 16
2, 82421, Note_on_c, 0, 79, 0
2, 82433, Control_c, 0, 64, 23
2, 82451, Control_c, 0, 64, 32
2, 82469, Control_c, 0, 64, 42
2, 82488, Control_c, 0, 64, 53
2, 82509, Control_c, 0, 64, 58
2, 82529, Control_c, 0, 64, 61
2, 82547, Control_c, 0, 64, 62
2, 82567, Control_c, 0, 64, 63
2, 82587, Control_c, 0, 64, 65
2, 82606, Control_c, 0, 64, 66
2, 82623, Control_c, 0, 64, 70
2, 82635, Note_on_c, 0, 80, 77
2, 82646, Control_c, 0, 64, 74
2, 82662, Control_c, 0, 64, 80
2, 82664, Note_on_c, 0, 56, 0
2, 82682, Control_c, 0, 64, 85
2, 82692, Note_on_c, 0, 77, 0
2, 82703, Control_c, 0, 64, 90
2, 82722, Control_c, 0, 64, 94
2, 82738, Control_c, 0, 64, 100
2, 82758, Control_c, 0, 64, 106
2, 82778, Control_c, 0, 64, 108
2, 82836, Control_c, 0, 64, 105
2, 82855, Control_c, 0, 64, 103
2, 82874, Control_c, 0, 64, 100
2, 82891, Control_c, 0, 64, 97
2, 82901, Note_on_c, 0, 71, 70
2, 82906, Note_on_c, 0, 56, 57
2, 82908, Note_on_c, 0, 53, 55
2, 82912, Control_c, 0, 64, 94
2, 82930, Control_c, 0, 64, 90
2, 82951, Control_c, 0, 64, 86
2, 82964, Note_on_c, 0, 80, 0
2, 82969, Control_c, 0, 64, 83
2, 82988, Control_c, 0, 64, 79
2, 83007, Control_c, 0, 64, 77
2, 83027, Control_c, 0, 64, 75
2, 83048, Control_c, 0, 64, 73
2, 83068, Control_c, 0, 64, 71
2, 83086, Control_c, 0, 64, 69
2, 83105, Control_c, 0, 64, 68
2, 83124, Control_c, 0, 64, 66
2, 83143, Control_c, 0, 64, 65
2, 83145, Note_on_c, 0, 80, 73
2, 83183, Control_c, 0, 64, 64
2, 83202, Control_c, 0, 64, 63
2, 83214, Note_on_c, 0, 60, 0
2, 83214, Note_on_c, 0, 71, 0
2, 83297, Control_c, 0, 64, 62
2, 83334, Control_c, 0, 64, 61
2, 83373, Control_c, 0, 64, 60
2, 83402, Note_on_c, 0, 79, 78
2, 83431, Control_c, 0, 64, 59
2, 83470, Control_c, 0, 64, 58
2, 83486, Control_c, 0, 64, 57
2, 83507, Control_c, 0, 64, 56
2, 83515, Note_on_c, 0, 80, 0
2, 83527, Control_c, 0, 64, 55
2, 83545, Control_c, 0, 64, 54
2, 83565, Control_c, 0, 64, 53
2, 83585, Control_c, 0, 64, 51
2, 83607, Control_c, 0, 64, 49
2, 83622, Control_c, 0, 64, 47
2, 83642, Control_c, 0, 64, 45
2, 83657, Note_on_c, 0, 77, 81
2, 83662, Control_c, 0, 64, 43
2, 83681, Control_c, 0, 64, 40
2, 83700, Control_c, 0, 64, 37
2, 83719, Control_c, 0, 64, 34
2, 83741, Control_c, 0, 64, 32
2, 83741, Note_on_c, 0, 79, 0
2, 83759, Control_c, 0, 64, 31
2, 83776, Control_c, 0, 64, 30
2, 83796, Control_c, 0, 64, 29
2, 83815, Control_c, 0, 64, 28
2, 83932, Note_on_c, 0, 76, 71
2, 83937, Note_on_c, 0, 58, 59
2, 83948, Note_on_c, 0, 55, 55
2, 84035, Note_on_c, 0, 77, 0
2, 84067, Note_on_c, 0, 56, 0
2, 84097, Note_on_c, 0, 53, 0
2, 84105, Control_c, 0, 64, 27
2, 84212, Note_on_c, 0, 77, 73
2, 84257, Note_on_c, 0, 76, 0
2, 84353, Control_c, 0, 64, 28
2, 84370, Control_c, 0, 64, 29
2, 84389, Control_c, 0, 64, 31
2, 84409, Control_c, 0, 64, 34
2, 84430, Control_c, 0, 64, 37
2, 84447, Control_c, 0, 64, 40
2, 84458, Note_on_c, 0, 79, 78
2, 84467, Control_c, 0, 64, 44
2, 84487, Control_c, 0, 64, 48
2, 84507, Control_c, 0, 64, 53
2, 84511, Note_on_c, 0, 77, 0
2, 84524, Control_c, 0, 64, 56
2, 84544, Control_c, 0, 64, 59
2, 84563, Control_c, 0, 64, 60
2, 84582, Control_c, 0, 64, 62
2, 84604, Control_c, 0, 64, 63
2, 84604, Note_on_c, 0, 55, 0
2, 84622, Control_c, 0, 64, 64
2, 84638, Control_c, 0, 64, 65
2, 84661, Control_c, 0, 64, 67
2, 84681, Control_c, 0, 64, 71
2, 84697, Control_c, 0, 64, 75
2, 84718, Control_c, 0, 64, 81
2, 84718, Note_on_c, 0, 76, 79
2, 84740, Control_c, 0, 64, 86
2, 84756, Control_c, 0, 64, 93
2, 84772, Note_on_c, 0, 79, 0
2, 84774, Control_c, 0, 64, 100
2, 84792, Control_c, 0, 64, 111
2, 84813, Control_c, 0, 64, 127
2, 84985, Control_c, 0, 64, 109
2, 84994, Note_on_c, 0, 52, 42
2, 84999, Note_on_c, 0, 55, 49
2, 85004, Control_c, 0, 64, 101
2, 85023, Control_c, 0, 64, 94
2, 85042, Control_c, 0, 64, 90
2, 85060, Note_on_c, 0, 82, 71
2, 85062, Control_c, 0, 64, 88
2, 85082, Control_c, 0, 64, 85
2, 85100, Control_c, 0, 64, 82
2, 85120, Control_c, 0, 64, 80
2, 85136, Note_on_c, 0, 58, 0
2, 85140, Control_c, 0, 64, 77
2, 85158, Control_c, 0, 64, 75
2, 85177, Control_c, 0, 64, 73
2, 85199, Control_c, 0, 64, 71
2, 85199, Note_on_c, 0, 76, 0
2, 85216, Control_c, 0, 64, 69
2, 85233, Control_c, 0, 64, 67
2, 85273, Control_c, 0, 64, 66
2, 85314, Control_c, 0, 64, 65
2, 85350, Control_c, 0, 64, 64
2, 85370, Control_c, 0, 64, 63
2, 85374, Note_on_c, 0, 73, 75
2, 85429, Control_c, 0, 64, 62
2, 85445, Note_on_c, 0, 82, 0
2, 85505, Control_c, 0, 64, 61
2, 85541, Control_c, 0, 64, 60
2, 85621, Control_c, 0, 64, 59
2, 85621, Note_on_c, 0, 72, 76
2, 85652, Note_on_c, 0, 73, 0
2, 85658, Control_c, 0, 64, 58
2, 85714, Control_c, 0, 64, 57
2, 85754, Control_c, 0, 64, 56
2, 85776, Control_c, 0, 64, 55
2, 85810, Control_c, 0, 64, 54
2, 85833, Control_c, 0, 64, 53
2, 85870, Control_c, 0, 64, 52
2, 85875, Note_on_c, 0, 70, 73
2, 85908, Control_c, 0, 64, 51
2, 85927, Control_c, 0, 64, 50
2, 85939, Note_on_c, 0, 72, 0
2, 85963, Control_c, 0, 64, 49
2, 86024, Control_c, 0, 64, 48
2, 86149, Note_on_c, 0, 68, 63
2, 86159, Control_c, 0, 64, 47
2, 86159, Note_on_c, 0, 60, 43
2, 86162, Note_on_c, 0, 53, 38
2, 86217, Note_on_c, 0, 70, 0
2, 86253, Control_c, 0, 64, 46
2, 86293, Control_c, 0, 64, 45
2, 86295, Note_on_c, 0, 52, 0
2, 86311, Control_c, 0, 64, 44
2, 86329, Control_c, 0, 64, 43
2, 86367, Control_c, 0, 64, 42
2, 86372, Note_on_c, 0, 55, 0
2, 86405, Control_c, 0, 64, 41
2, 86416, Note_on_c, 0, 70, 64
2, 86454, Note_on_c, 0, 68, 0
2, 86462, Control_c, 0, 64, 40
2, 86618, Control_c, 0, 64, 39
2, 86664, Note_on_c, 0, 72, 64
2, 86686, Note_on_c, 0, 70, 0
2, 86950, Note_on_c, 0, 72, 0
2, 86955, Note_on_c, 0, 65, 45
2, 87237, Note_on_c, 0, 74, 48
2, 87273, Note_on_c, 0, 59, 34
2, 87304, Note_on_c, 0, 65, 0
2, 87441, Note_on_c, 0, 60, 0
2, 87508, Note_on_c, 0, 68, 52
2, 87548, Note_on_c, 0, 74, 0
2, 87778, Note_on_c, 0, 67, 51
2, 87797, Note_on_c, 0, 68, 0
2, 88026, Note_on_c, 0, 65, 50
2, 88026, Note_on_c, 0, 67, 0
2, 88344, Note_on_c, 0, 64, 52
2, 88346, Control_c, 0, 64, 40
2, 88349, Note_on_c, 0, 65, 0
2, 88360, Note_on_c, 0, 55, 30
2, 88366, Control_c, 0, 64, 41
2, 88384, Control_c, 0, 64, 43
2, 88407, Control_c, 0, 64, 45
2, 88422, Control_c, 0, 64, 47
2, 88427, Note_on_c, 0, 53, 0
2, 88444, Control_c, 0, 64, 49
2, 88463, Control_c, 0, 64, 51
2, 88484, Control_c, 0, 64, 53
2, 88484, Note_on_c, 0, 59, 0
2, 88500, Control_c, 0, 64, 55
2, 88519, Control_c, 0, 64, 56
2, 88538, Control_c, 0, 64, 57
2, 88558, Control_c, 0, 64, 58
2, 88576, Control_c, 0, 64, 60
2, 88594, Control_c, 0, 64, 61
2, 88633, Control_c, 0, 64, 62
2, 88671, Note_on_c, 0, 60, 51
2, 88676, Control_c, 0, 64, 63
2, 88690, Control_c, 0, 64, 65
2, 88710, Control_c, 0, 64, 67
2, 88730, Control_c, 0, 64, 70
2, 88747, Control_c, 0, 64, 74
2, 88763, Note_on_c, 0, 55, 0
2, 88767, Control_c, 0, 64, 78
2, 88790, Control_c, 0, 64, 83
2, 88809, Control_c, 0, 64, 90
2, 88825, Control_c, 0, 64, 99
2, 88845, Control_c, 0, 64, 118
2, 88864, Control_c, 0, 64, 127
2, 88881, Note_on_c, 0, 60, 0
2, 88930, Note_on_c, 0, 48, 0
2, 88941, Note_on_c, 0, 55, 58
2, 89183, Note_on_c, 0, 55, 0
2, 89187, Note_on_c, 0, 58, 74
2, 89287, Control_c, 0, 64, 115
2, 89305, Control_c, 0, 64, 108
2, 89326, Control_c, 0, 64, 104
2, 89345, Control_c, 0, 64, 101
2, 89366, Control_c, 0, 64, 97
2, 89381, Control_c, 0, 64, 94
2, 89404, Control_c, 0, 64, 90
2, 89421, Control_c, 0, 64, 87
2, 89441, Control_c, 0, 64, 83
2, 89459, Control_c, 0, 64, 80
2, 89470, Note_on_c, 0, 65, 74
2, 89481, Control_c, 0, 64, 78
2, 89489, Note_on_c, 0, 56, 64
2, 89498, Control_c, 0, 64, 76
2, 89516, Control_c, 0, 64, 74
2, 89536, Control_c, 0, 64, 72
2, 89554, Control_c, 0, 64, 71
2, 89574, Control_c, 0, 64, 69
2, 89581, Note_on_c, 0, 64, 0
2, 89594, Control_c, 0, 64, 68
2, 89604, Note_on_c, 0, 58, 0
2, 89636, Control_c, 0, 64, 67
2, 89653, Control_c, 0, 64, 66
2, 89670, Control_c, 0, 64, 65
2, 89690, Control_c, 0, 64, 63
2, 89708, Control_c, 0, 64, 60
2, 89730, Control_c, 0, 64, 56
2, 89730, Note_on_c, 0, 53, 67
2, 89746, Control_c, 0, 64, 49
2, 89767, Control_c, 0, 64, 40
2, 89785, Control_c, 0, 64, 28
2, 89803, Control_c, 0, 64, 18
2, 89824, Control_c, 0, 64, 16
2, 89863, Control_c, 0, 64, 18
2, 89880, Control_c, 0, 64, 25
2, 89900, Control_c, 0, 64, 33
2, 89919, Control_c, 0, 64, 43
2, 89940, Control_c, 0, 64, 51
2, 89957, Control_c, 0, 64, 56
2, 89977, Control_c, 0, 64, 59
2, 89997, Control_c, 0, 64, 60
2, 90010, Note_on_c, 0, 47, 71
2, 90017, Control_c, 0, 64, 62
2, 90035, Control_c, 0, 64, 63
2, 90054, Control_c, 0, 64, 65
2, 90073, Control_c, 0, 64, 67
2, 90078, Note_on_c, 0, 53, 0
2, 90095, Control_c, 0, 64, 71
2, 90111, Control_c, 0, 64, 76
2, 90132, Control_c, 0, 64, 83
2, 90152, Control_c, 0, 64, 92
2, 90169, Control_c, 0, 64, 111
2, 90188, Control_c, 0, 64, 127
2, 90310, Note_on_c, 0, 50, 70
2, 90346, Note_on_c, 0, 47, 0
2, 90477, Control_c, 0, 64, 122
2, 90495, Control_c, 0, 64, 110
2, 90515, Control_c, 0, 64, 103
2, 90533, Control_c, 0, 64, 96
2, 90552, Control_c, 0, 64, 91
2, 90573, Control_c, 0, 64, 87
2, 90593, Control_c, 0, 64, 84
2, 90611, Control_c, 0, 64, 83
2, 90631, Control_c, 0, 64, 81
2, 90653, Control_c, 0, 64, 78
2, 90669, Control_c, 0, 64, 75
2, 90683, Note_on_c, 0, 36, 54
2, 90687, Control_c, 0, 64, 72
2, 90687, Note_on_c, 0, 55, 54
2, 90708, Control_c, 0, 64, 68
2, 90725, Control_c, 0, 64, 64
2, 90745, Control_c, 0, 64, 56
2, 90765, Control_c, 0, 64, 46
2, 90785, Control_c, 0, 64, 32
2, 90797, Note_on_c, 0, 56, 0
2, 90804, Note_on_c, 0, 50, 0
2, 90808, Control_c, 0, 64, 13
2, 90822, Control_c, 0, 64, 0
2, 90860, Control_c, 0, 64, 9
2, 90882, Control_c, 0, 64, 27
2, 90899, Control_c, 0, 64, 40
2, 90916, Control_c, 0, 64, 51
2, 90937, Control_c, 0, 64, 58
2, 90959, Control_c, 0, 64, 62
2, 90976, Control_c, 0, 64, 63
2, 90996, Control_c, 0, 64, 65
2, 91000, Note_on_c, 0, 62, 64
2, 91016, Control_c, 0, 64, 67
2, 91033, Control_c, 0, 64, 69
2, 91052, Control_c, 0, 64, 73
2, 91052, Note_on_c, 0, 55, 0
2, 91072, Control_c, 0, 64, 76
2, 91093, Control_c, 0, 64, 78
2, 91110, Control_c, 0, 64, 79
2, 91167, Control_c, 0, 64, 78
2, 91245, Control_c, 0, 64, 76
2, 91265, Control_c, 0, 64, 71
2, 91286, Control_c, 0, 64, 64
2, 91286, Note_on_c, 0, 59, 50
2, 91296, Note_on_c, 0, 53, 46
2, 91302, Control_c, 0, 64, 56
2, 91322, Control_c, 0, 64, 47
2, 91322, Note_on_c, 0, 62, 0
2, 91342, Control_c, 0, 64, 36
2, 91359, Control_c, 0, 64, 30
2, 91401, Control_c, 0, 64, 35
2, 91417, Control_c, 0, 64, 45
2, 91437, Control_c, 0, 64, 54
2, 91456, Control_c, 0, 64, 59
2, 91475, Control_c, 0, 64, 62
2, 91493, Control_c, 0, 64, 63
2, 91515, Control_c, 0, 64, 64
2, 91533, Control_c, 0, 64, 65
2, 91553, Control_c, 0, 64, 67
2, 91571, Control_c, 0, 64, 68
2, 91587, Note_on_c, 0, 60, 46
2, 91598, Note_on_c, 0, 53, 0
2, 91609, Control_c, 0, 64, 69
2, 91627, Control_c, 0, 64, 70
2, 91630, Note_on_c, 0, 59, 0
2, 91647, Control_c, 0, 64, 72
2, 91666, Control_c, 0, 64, 73
2, 91688, Control_c, 0, 64, 74
2, 91703, Control_c, 0, 64, 75
2, 91762, Control_c, 0, 64, 74
2, 91840, Control_c, 0, 64, 73
2, 91879, Control_c, 0, 64, 72
2, 91898, Control_c, 0, 64, 71
2, 91915, Control_c, 0, 64, 70
2, 91932, Note_on_c, 0, 55, 48
2, 91937, Control_c, 0, 64, 68
2, 91957, Control_c, 0, 64, 64
2, 91975, Control_c, 0, 64, 59
2, 91990, Note_on_c, 0, 60, 0
2, 91992, Control_c, 0, 64, 52
2, 92013, Control_c, 0, 64, 44
2, 92031, Control_c, 0, 64, 35
2, 92052, Control_c, 0, 64, 27
2, 92067, Note_on_c, 0, 65, 0
2, 92071, Control_c, 0, 64, 20
2, 92090, Control_c, 0, 64, 17
2, 92109, Control_c, 0, 64, 16
2, 92267, Note_on_c, 0, 58, 40
2, 92320, Control_c, 0, 64, 17
2, 92397, Control_c, 0, 64, 18
2, 92494, Control_c, 0, 64, 19
2, 92588, Control_c, 0, 64, 20
2, 92653, Note_on_c, 0, 60, 37
2, 92664, Control_c, 0, 64, 21
2, 92686, Control_c, 0, 64, 23
2, 92704, Control_c, 0, 64, 25
2, 92722, Control_c, 0, 64, 27
2, 92743, Control_c, 0, 64, 29
2, 92761, Control_c, 0, 64, 31
2, 92781, Control_c, 0, 64, 33
2, 92800, Control_c, 0, 64, 36
2, 92820, Control_c, 0, 64, 38
2, 92839, Control_c, 0, 64, 41
2, 92858, Control_c, 0, 64, 43
2, 92876, Control_c, 0, 64, 44
2, 92896, Control_c, 0, 64, 46
2, 92914, Control_c, 0, 64, 47
2, 92935, Control_c, 0, 64, 50
2, 92953, Control_c, 0, 64, 51
2, 92973, Control_c, 0, 64, 53
2, 92991, Control_c, 0, 64, 54
2, 93010, Control_c, 0, 64, 55
2, 93029, Control_c, 0, 64, 56
2, 93050, Control_c, 0, 64, 58
2, 93068, Control_c, 0, 64, 59
2, 93087, Control_c, 0, 64, 61
2, 93106, Control_c, 0, 64, 62
2, 93117, Note_on_c, 0, 64, 44
2, 93127, Control_c, 0, 64, 63
2, 93144, Control_c, 0, 64, 64
2, 93165, Control_c, 0, 64, 66
2, 93171, Note_on_c, 0, 36, 0
2, 93185, Control_c, 0, 64, 68
2, 93203, Control_c, 0, 64, 72
2, 93225, Control_c, 0, 64, 77
2, 93241, Control_c, 0, 64, 82
2, 93267, Control_c, 0, 64, 88
2, 93267, Note_on_c, 0, 55, 0
2, 93267, Note_on_c, 0, 60, 0
2, 93281, Control_c, 0, 64, 93
2, 93301, Control_c, 0, 64, 101
2, 93309, Note_on_c, 0, 58, 0
2, 93319, Control_c, 0, 64, 120
2, 93324, Note_on_c, 0, 64, 0
2, 93338, Control_c, 0, 64, 127
2, 93874, Control_c, 0, 64, 118
2, 93897, Control_c, 0, 64, 111
2, 93897, Note_on_c, 0, 57, 34
2, 93897, Note_on_c, 0, 65, 39
2, 93906, Note_on_c, 0, 60, 38
2, 93913, Control_c, 0, 64, 103
2, 93928, Note_on_c, 0, 53, 33
2, 93932, Control_c, 0, 64, 95
2, 93943, Note_on_c, 0, 41, 30
2, 93955, Control_c, 0, 64, 86
2, 93973, Control_c, 0, 64, 75
2, 93990, Control_c, 0, 64, 66
2, 94010, Control_c, 0, 64, 59
2, 94028, Control_c, 0, 64, 52
2, 94047, Control_c, 0, 64, 46
2, 94068, Control_c, 0, 64, 39
2, 94089, Control_c, 0, 64, 32
2, 94105, Control_c, 0, 64, 27
2, 94124, Control_c, 0, 64, 23
2, 94143, Control_c, 0, 64, 22
2, 94374, Control_c, 0, 64, 23
2, 94411, Control_c, 0, 64, 24
2, 94432, Control_c, 0, 64, 25
2, 94470, Control_c, 0, 64, 26
2, 94509, Control_c, 0, 64, 27
2, 94529, Control_c, 0, 64, 28
2, 94548, Control_c, 0, 64, 30
2, 94585, Control_c, 0, 64, 31
2, 94624, Control_c, 0, 64, 32
2, 94662, Control_c, 0, 64, 33
2, 94681, Control_c, 0, 64, 34
2, 94701, Control_c, 0, 64, 35
2, 94738, Control_c, 0, 64, 36
2, 94777, Control_c, 0, 64, 37
2, 94797, Control_c, 0, 64, 38
2, 94816, Control_c, 0, 64, 39
2, 94874, Control_c, 0, 64, 40
2, 94913, Control_c, 0, 64, 41
2, 94932, Control_c, 0, 64, 42
2, 94951, Control_c, 0, 64, 43
2, 94969, Control_c, 0, 64, 45
2, 94987, Control_c, 0, 64, 46
2, 95066, Control_c, 0, 64, 47
2, 95106, Control_c, 0, 64, 48
2, 95181, Control_c, 0, 64, 49
2, 95217, Control_c, 0, 64, 50
2, 95278, Control_c, 0, 64, 51
2, 95296, Control_c, 0, 64, 52
2, 95319, Control_c, 0, 64, 53
2, 95356, Control_c, 0, 64, 54
2, 95372, Control_c, 0, 64, 55
2, 95394, Control_c, 0, 64, 56
2, 95411, Control_c, 0, 64, 57
2, 95450, Control_c, 0, 64, 58
2, 95487, Control_c, 0, 64, 59
2, 95546, Control_c, 0, 64, 60
2, 95584, Control_c, 0, 64, 61
2, 95640, Control_c, 0, 64, 62
2, 95680, Control_c, 0, 64, 63
2, 95702, Control_c, 0, 64, 64
2, 95737, Control_c, 0, 64, 65
2, 95775, Control_c, 0, 64, 66
2, 95815, Control_c, 0, 64, 67
2, 95834, Control_c, 0, 64, 68
2, 95871, Control_c, 0, 64, 69
2, 95891, Control_c, 0, 64, 70
2, 95911, Control_c, 0, 64, 71
2, 95930, Control_c, 0, 64, 73
2, 95948, Control_c, 0, 64, 75
2, 95968, Control_c, 0, 64, 77
2, 95986, Control_c, 0, 64, 79
2, 96006, Control_c, 0, 64, 81
2, 96026, Control_c, 0, 64, 83
2, 96047, Control_c, 0, 64, 85
2, 96063, Control_c, 0, 64, 86
2, 96081, Control_c, 0, 64, 87
2, 96103, Control_c, 0, 64, 90
2, 96121, Control_c, 0, 64, 93
2, 96141, Control_c, 0, 64, 95
2, 96161, Control_c, 0, 64, 98
2, 96179, Control_c, 0, 64, 102
2, 96201, Control_c, 0, 64, 106
2, 96218, Control_c, 0, 64, 113
2, 96236, Control_c, 0, 64, 127
2, 96679, Note_on_c, 0, 65, 0
2, 96716, Note_on_c, 0, 41, 0
2, 96740, Note_on_c, 0, 53, 0
2, 96751, Note_on_c, 0, 57, 0
2, 96755, Control_c, 0, 64, 120
2, 96774, Control_c, 0, 64, 113
2, 96792, Control_c, 0, 64, 109
2, 96811, Control_c, 0, 64, 105
2, 96832, Control_c, 0, 64, 101
2, 96852, Control_c, 0, 64, 98
2, 96859, Note_on_c, 0, 60, 0
2, 96869, Control_c, 0, 64, 95
2, 96889, Control_c, 0, 64, 92
2, 96908, Control_c, 0, 64, 90
2, 96927, Control_c, 0, 64, 87
2, 96946, Control_c, 0, 64, 85
2, 96964, Control_c, 0, 64, 83
2, 96984, Control_c, 0, 64, 81
2, 97006, Control_c, 0, 64, 78
2, 97023, Control_c, 0, 64, 77
2, 97042, Control_c, 0, 64, 75
2, 97062, Control_c, 0, 64, 74
2, 97081, Control_c, 0, 64, 73
2, 97099, Control_c, 0, 64, 72
2, 97120, Control_c, 0, 64, 71
2, 97139, Control_c, 0, 64, 70
2, 97156, Control_c, 0, 64, 68
2, 97178, Control_c, 0, 64, 67
2, 97197, Control_c, 0, 64, 66
2, 97215, Control_c, 0, 64, 65
2, 97255, Control_c, 0, 64, 64
2, 97292, Control_c, 0, 64, 63
2, 97330, Control_c, 0, 64, 62
2, 97350, Control_c, 0, 64, 61
2, 97388, Control_c, 0, 64, 60
2, 97408, Control_c, 0, 64, 59
2, 97446, Control_c, 0, 64, 58
2, 97463, Control_c, 0, 64, 57
2, 97485, Control_c, 0, 64, 56
2, 97523, Control_c, 0, 64, 55
2, 97541, Control_c, 0, 64, 54
2, 97562, Control_c, 0, 64, 53
2, 97581, Control_c, 0, 64, 52
2, 97601, Control_c, 0, 64, 51
2, 97622, Control_c, 0, 64, 49
2, 97640, Control_c, 0, 64, 48
2, 97659, Control_c, 0, 64, 45
2, 97678, Control_c, 0, 64, 42
2, 97694, Control_c, 0, 64, 38
2, 97715, Control_c, 0, 64, 36
2, 97734, Control_c, 0, 64, 35
2, 97773, Control_c, 0, 64, 34
2, 98234, Control_c, 0, 64, 35
2, 98655, Control_c, 0, 64, 36
2, 99004, Control_c, 0, 64, 37
2, 99116, Control_c, 0, 64, 38
2, 99596, Control_c, 0, 64, 39
2, 99941, Control_c, 0, 64, 40
2, 101785, Control_c, 0, 64, 41
2, 102169, Control_c, 0, 64, 42
2, 102342, Control_c, 0, 64, 43
2, 102763, Control_c, 0, 64, 44
2, 102791, Note_on_c, 0, 60, 42
2, 102859,End_track
0, 0, End_of_file
