0, 0, Header, 1, 2, 480
1, 0, Start_track
1, 0, Tempo, 500000
1, 0, Time_signature, 4, 2, 24, 8
1, 3, Time_signature, 4, 2, 24, 8
1, 4, End_track
2, 0, Start_track
2, 0, Program_c, 0, 0
2, 3, Control_c, 0, 64, 88
2, 3, Control_c, 0, 67, 0
2, 7, Control_c, 0, 64, 91
2, 30, Control_c, 0, 64, 94
2, 52, Control_c, 0, 64, 98
2, 78, Control_c, 0, 64, 102
2, 99, Control_c, 0, 64, 107
2, 118, Control_c, 0, 64, 116
2, 138, Control_c, 0, 64, 127
2, 721, Control_c, 0, 64, 118
2, 741, Control_c, 0, 64, 111
2, 758, Control_c, 0, 64, 107
2, 780, Control_c, 0, 64, 104
2, 796, Control_c, 0, 64, 102
2, 818, Control_c, 0, 64, 99
2, 836, Control_c, 0, 64, 97
2, 854, Control_c, 0, 64, 93
2, 874, Control_c, 0, 64, 90
2, 892, Control_c, 0, 64, 87
2, 911, Control_c, 0, 64, 85
2, 932, Control_c, 0, 64, 84
2, 951, Control_c, 0, 64, 82
2, 955, Note_on_c, 0, 65, 35
2, 970, Control_c, 0, 64, 81
2, 985, Note_on_c, 0, 56, 30
2, 990, Control_c, 0, 64, 79
2, 1000, Note_on_c, 0, 53, 30
2, 1009, Control_c, 0, 64, 77
2, 1027, Control_c, 0, 64, 76
2, 1046, Control_c, 0, 64, 74
2, 1066, Control_c, 0, 64, 73
2, 1084, Control_c, 0, 64, 71
2, 1103, Control_c, 0, 64, 69
2, 1126, Control_c, 0, 64, 67
2, 1143, Control_c, 0, 64, 65
2, 1161, Control_c, 0, 64, 64
2, 1201, Control_c, 0, 64, 63
2, 1219, Control_c, 0, 64, 62
2, 1257, Control_c, 0, 64, 61
2, 1277, Control_c, 0, 64, 60
2, 1303, Note_on_c, 0, 68, 43
2, 1333, Control_c, 0, 64, 59
2, 1376, Control_c, 0, 64, 58
2, 1430, Control_c, 0, 64, 57
2, 1472, Control_c, 0, 64, 56
2, 1510, Control_c, 0, 64, 55
2, 1544, Control_c, 0, 64, 54
2, 1565, Control_c, 0, 64, 52
2, 1582, Note_on_c, 0, 72, 55
2, 1586, Control_c, 0, 64, 48
2, 1586, Note_on_c, 0, 68, 0
2, 1604, Control_c, 0, 64, 42
2, 1621, Control_c, 0, 64, 37
2, 1642, Control_c, 0, 64, 32
2, 1662, Control_c, 0, 64, 28
2, 1680, Control_c, 0, 64, 26
2, 1738, Control_c, 0, 64, 28
2, 1755, Control_c, 0, 64, 34
2, 1775, Control_c, 0, 64, 42
2, 1794, Control_c, 0, 64, 51
2, 1815, Control_c, 0, 64, 58
2, 1828, Note_on_c, 0, 77, 62
2, 1836, Control_c, 0, 64, 60
2, 1855, Control_c, 0, 64, 62
2, 1873, Control_c, 0, 64, 63
2, 1891, Control_c, 0, 64, 64
2, 1905, Note_on_c, 0, 65, 0
2, 1907, Note_on_c, 0, 72, 0
2, 1911, Control_c, 0, 64, 65
2, 1929, Control_c, 0, 64, 67
2, 1951, Control_c, 0, 64, 70
2, 1970, Control_c, 0, 64, 73
2, 1988, Control_c, 0, 64, 75
2, 2006, Control_c, 0, 64, 76
2, 2063, Control_c, 0, 64, 75
2, 2084, Control_c, 0, 64, 74
2, 2105, Control_c, 0, 64, 72
2, 2119, Note_on_c, 0, 67, 52
2, 2121, Control_c, 0, 64, 71
2, 2140, Note_on_c, 0, 58, 44
2, 2145, Control_c, 0, 64, 70
2, 2162, Control_c, 0, 64, 69
2, 2182, Control_c, 0, 64, 67
2, 2197, Control_c, 0, 64, 66
2, 2220, Control_c, 0, 64, 65
2, 2239, Control_c, 0, 64, 64
2, 2239, Note_on_c, 0, 77, 0
2, 2255, Control_c, 0, 64, 63
2, 2276, Control_c, 0, 64, 62
2, 2287, Note_on_c, 0, 56, 0
2, 2314, Control_c, 0, 64, 61
2, 2352, Control_c, 0, 64, 60
2, 2366, Note_on_c, 0, 77, 68
2, 2375, Control_c, 0, 64, 58
2, 2410, Control_c, 0, 64, 57
2, 2431, Control_c, 0, 64, 56
2, 2449, Control_c, 0, 64, 54
2, 2469, Control_c, 0, 64, 53
2, 2486, Control_c, 0, 64, 50
2, 2506, Control_c, 0, 64, 48
2, 2524, Control_c, 0, 64, 46
2, 2544, Control_c, 0, 64, 43
2, 2564, Control_c, 0, 64, 40
2, 2581, Control_c, 0, 64, 38
2, 2601, Control_c, 0, 64, 35
2, 2620, Control_c, 0, 64, 31
2, 2630, Note_on_c, 0, 76, 68
2, 2639, Control_c, 0, 64, 26
2, 2658, Control_c, 0, 64, 22
2, 2671, Note_on_c, 0, 77, 0
2, 2680, Control_c, 0, 64, 20
2, 2697, Control_c, 0, 64, 19
2, 2775, Control_c, 0, 64, 23
2, 2793, Control_c, 0, 64, 30
2, 2813, Control_c, 0, 64, 41
2, 2831, Control_c, 0, 64, 50
2, 2850, Control_c, 0, 64, 56
2, 2873, Control_c, 0, 64, 58
2, 2884, Note_on_c, 0, 79, 73
2, 2893, Control_c, 0, 64, 60
2, 2911, Control_c, 0, 64, 62
2, 2933, Control_c, 0, 64, 64
2, 2933, Note_on_c, 0, 76, 0
2, 2950, Control_c, 0, 64, 65
2, 2961, Note_on_c, 0, 67, 0
2, 2971, Control_c, 0, 64, 67
2, 2987, Control_c, 0, 64, 70
2, 3006, Control_c, 0, 64, 73
2, 3029, Control_c, 0, 64, 76
2, 3045, Control_c, 0, 64, 77
2, 3104, Control_c, 0, 64, 76
2, 3145, Control_c, 0, 64, 75
2, 3152, Note_on_c, 0, 68, 68
2, 3162, Control_c, 0, 64, 74
2, 3184, Control_c, 0, 64, 73
2, 3193, Note_on_c, 0, 60, 40
2, 3200, Control_c, 0, 64, 72
2, 3218, Control_c, 0, 64, 70
2, 3237, Control_c, 0, 64, 68
2, 3258, Control_c, 0, 64, 66
2, 3279, Control_c, 0, 64, 65
2, 3294, Control_c, 0, 64, 64
2, 3317, Control_c, 0, 64, 62
2, 3333, Control_c, 0, 64, 61
2, 3353, Control_c, 0, 64, 60
2, 3362, Note_on_c, 0, 58, 0
2, 3373, Control_c, 0, 64, 59
2, 3387, Note_on_c, 0, 79, 0
2, 3391, Control_c, 0, 64, 57
2, 3398, Note_on_c, 0, 72, 77
2, 3413, Control_c, 0, 64, 56
2, 3429, Control_c, 0, 64, 54
2, 3451, Control_c, 0, 64, 52
2, 3468, Control_c, 0, 64, 48
2, 3489, Control_c, 0, 64, 44
2, 3507, Control_c, 0, 64, 40
2, 3528, Control_c, 0, 64, 38
2, 3548, Control_c, 0, 64, 36
2, 3564, Control_c, 0, 64, 35
2, 3623, Control_c, 0, 64, 34
2, 3653, Note_on_c, 0, 77, 73
2, 3769, Note_on_c, 0, 72, 0
2, 3885, Note_on_c, 0, 76, 80
2, 3944, Note_on_c, 0, 77, 0
2, 4191, Note_on_c, 0, 77, 77
2, 4199, Note_on_c, 0, 56, 37
2, 4242, Note_on_c, 0, 76, 0
2, 4390, Note_on_c, 0, 60, 0
2, 4449, Note_on_c, 0, 72, 64
2, 4489, Note_on_c, 0, 68, 0
2, 4710, Note_on_c, 0, 70, 69
2, 4778, Note_on_c, 0, 72, 0
2, 4960, Note_on_c, 0, 68, 64
2, 4985, Control_c, 0, 64, 33
2, 5010, Note_on_c, 0, 70, 0
2, 5023, Control_c, 0, 64, 32
2, 5062, Control_c, 0, 64, 31
2, 5138, Control_c, 0, 64, 30
2, 5259, Note_on_c, 0, 58, 35
2, 5302, Note_on_c, 0, 73, 68
2, 5373, Note_on_c, 0, 77, 0
2, 5402, Note_on_c, 0, 56, 0
2, 5426, Note_on_c, 0, 68, 0
2, 5584, Note_on_c, 0, 68, 50
2, 5846, Note_on_c, 0, 67, 54
2, 5881, Note_on_c, 0, 68, 0
2, 6109, Note_on_c, 0, 70, 55
2, 6113, Note_on_c, 0, 67, 0
2, 6376, Note_on_c, 0, 64, 54
2, 6412, Note_on_c, 0, 55, 27
2, 6478, Note_on_c, 0, 73, 0
2, 6498, Note_on_c, 0, 58, 0
2, 6520, Control_c, 0, 64, 29
2, 6558, Control_c, 0, 64, 28
2, 6578, Control_c, 0, 64, 27
2, 6617, Control_c, 0, 64, 25
2, 6631, Note_on_c, 0, 73, 63
2, 6640, Control_c, 0, 64, 22
2, 6644, Note_on_c, 0, 70, 0
2, 6657, Control_c, 0, 64, 15
2, 6675, Control_c, 0, 64, 0
2, 6891, Note_on_c, 0, 72, 70
2, 6940, Note_on_c, 0, 73, 0
2, 6944, Control_c, 0, 64, 28
2, 6962, Control_c, 0, 64, 44
2, 6981, Control_c, 0, 64, 53
2, 7000, Control_c, 0, 64, 58
2, 7022, Control_c, 0, 64, 60
2, 7040, Control_c, 0, 64, 61
2, 7059, Control_c, 0, 64, 63
2, 7079, Control_c, 0, 64, 65
2, 7097, Control_c, 0, 64, 67
2, 7118, Control_c, 0, 64, 70
2, 7135, Control_c, 0, 64, 73
2, 7148, Note_on_c, 0, 70, 74
2, 7154, Control_c, 0, 64, 76
2, 7170, Note_on_c, 0, 53, 0
2, 7174, Control_c, 0, 64, 78
2, 7194, Control_c, 0, 64, 80
2, 7213, Control_c, 0, 64, 82
2, 7232, Note_on_c, 0, 72, 0
2, 7271, Note_on_c, 0, 64, 0
2, 7291, Control_c, 0, 64, 81
2, 7310, Control_c, 0, 64, 80
2, 7328, Control_c, 0, 64, 78
2, 7348, Control_c, 0, 64, 76
2, 7367, Control_c, 0, 64, 74
2, 7385, Control_c, 0, 64, 71
2, 7403, Control_c, 0, 64, 69
2, 7408, Note_on_c, 0, 53, 38
2, 7426, Control_c, 0, 64, 66
2, 7445, Control_c, 0, 64, 64
2, 7461, Control_c, 0, 64, 62
2, 7490, Note_on_c, 0, 68, 70
2, 7501, Control_c, 0, 64, 61
2, 7519, Control_c, 0, 64, 60
2, 7524, Note_on_c, 0, 65, 47
2, 7526, Note_on_c, 0, 55, 0
2, 7539, Control_c, 0, 64, 59
2, 7559, Control_c, 0, 64, 58
2, 7579, Control_c, 0, 64, 57
2, 7593, Note_on_c, 0, 70, 0
2, 7598, Control_c, 0, 64, 56
2, 7616, Control_c, 0, 64, 55
2, 7636, Control_c, 0, 64, 53
2, 7654, Control_c, 0, 64, 51
2, 7675, Control_c, 0, 64, 49
2, 7693, Control_c, 0, 64, 46
2, 7712, Control_c, 0, 64, 44
2, 7730, Control_c, 0, 64, 42
2, 7750, Control_c, 0, 64, 39
2, 7763, Note_on_c, 0, 56, 56
2, 7770, Control_c, 0, 64, 36
2, 7789, Control_c, 0, 64, 32
2, 7807, Control_c, 0, 64, 25
2, 7825, Control_c, 0, 64, 14
2, 7847, Control_c, 0, 64, 0
2, 8012, Note_on_c, 0, 60, 62
2, 8043, Note_on_c, 0, 65, 0
2, 8057, Control_c, 0, 64, 11
2, 8076, Control_c, 0, 64, 33
2, 8095, Control_c, 0, 64, 45
2, 8114, Control_c, 0, 64, 53
2, 8134, Control_c, 0, 64, 57
2, 8154, Control_c, 0, 64, 60
2, 8171, Control_c, 0, 64, 61
2, 8191, Control_c, 0, 64, 62
2, 8229, Control_c, 0, 64, 63
2, 8249, Control_c, 0, 64, 64
2, 8262, Note_on_c, 0, 70, 74
2, 8269, Control_c, 0, 64, 65
2, 8277, Note_on_c, 0, 65, 46
2, 8287, Control_c, 0, 64, 67
2, 8306, Control_c, 0, 64, 69
2, 8325, Control_c, 0, 64, 70
2, 8329, Note_on_c, 0, 68, 0
2, 8338, Note_on_c, 0, 53, 0
2, 8345, Control_c, 0, 64, 72
2, 8364, Control_c, 0, 64, 74
2, 8384, Control_c, 0, 64, 77
2, 8404, Control_c, 0, 64, 79
2, 8424, Control_c, 0, 64, 80
2, 8460, Control_c, 0, 64, 79
2, 8499, Control_c, 0, 64, 78
2, 8518, Control_c, 0, 64, 77
2, 8518, Note_on_c, 0, 70, 0
2, 8541, Control_c, 0, 64, 76
2, 8541, Note_on_c, 0, 72, 59
2, 8549, Note_on_c, 0, 55, 46
2, 8556, Control_c, 0, 64, 75
2, 8575, Control_c, 0, 64, 73
2, 8584, Note_on_c, 0, 65, 0
2, 8594, Control_c, 0, 64, 71
2, 8615, Control_c, 0, 64, 69
2, 8632, Control_c, 0, 64, 67
2, 8653, Note_on_c, 0, 72, 0
2, 8658, Note_on_c, 0, 56, 0
2, 8671, Control_c, 0, 64, 66
2, 8674, Note_on_c, 0, 70, 57
2, 8729, Control_c, 0, 64, 65
2, 8733, Note_on_c, 0, 60, 0
2, 8755, Note_on_c, 0, 70, 0
2, 8789, Note_on_c, 0, 72, 65
2, 8806, Control_c, 0, 64, 64
2, 8812, Note_on_c, 0, 65, 40
2, 8834, Note_on_c, 0, 72, 0
2, 8865, Control_c, 0, 64, 63
2, 8865, Note_on_c, 0, 70, 61
2, 8899, Note_on_c, 0, 70, 0
2, 8908, Note_on_c, 0, 72, 63
2, 8921, Control_c, 0, 64, 62
2, 8960, Control_c, 0, 64, 61
2, 8960, Note_on_c, 0, 72, 0
2, 8979, Control_c, 0, 64, 60
2, 8985, Note_on_c, 0, 70, 70
2, 8998, Control_c, 0, 64, 59
2, 9018, Control_c, 0, 64, 58
2, 9038, Note_on_c, 0, 70, 0
2, 9038, Note_on_c, 0, 72, 64
2, 9042, Note_on_c, 0, 64, 53
2, 9056, Control_c, 0, 64, 57
2, 9082, Note_on_c, 0, 65, 0
2, 9094, Control_c, 0, 64, 55
2, 9113, Note_on_c, 0, 72, 0
2, 9118, Control_c, 0, 64, 53
2, 9132, Control_c, 0, 64, 52
2, 9140, Note_on_c, 0, 70, 70
2, 9150, Control_c, 0, 64, 51
2, 9170, Control_c, 0, 64, 50
2, 9188, Control_c, 0, 64, 48
2, 9210, Control_c, 0, 64, 46
2, 9232, Control_c, 0, 64, 43
2, 9248, Control_c, 0, 64, 40
2, 9269, Control_c, 0, 64, 38
2, 9269, Note_on_c, 0, 70, 0
2, 9281, Note_on_c, 0, 68, 68
2, 9287, Control_c, 0, 64, 37
2, 9292, Note_on_c, 0, 67, 55
2, 9296, Note_on_c, 0, 64, 0
2, 9305, Control_c, 0, 64, 34
2, 9325, Control_c, 0, 64, 29
2, 9343, Control_c, 0, 64, 13
2, 9363, Control_c, 0, 64, 0
2, 9376, Note_on_c, 0, 68, 0
2, 9376, Note_on_c, 0, 70, 71
2, 9573, Note_on_c, 0, 72, 66
2, 9604, Note_on_c, 0, 56, 43
2, 9622, Note_on_c, 0, 70, 0
2, 9712, Note_on_c, 0, 55, 0
2, 9739, Note_on_c, 0, 67, 0
2, 9882, Note_on_c, 0, 68, 61
2, 10127, Note_on_c, 0, 64, 59
2, 10132, Note_on_c, 0, 68, 0
2, 10353, Note_on_c, 0, 64, 0
2, 10382, Note_on_c, 0, 65, 52
2, 10642, Note_on_c, 0, 61, 46
2, 10649, Note_on_c, 0, 58, 38
2, 10704, Note_on_c, 0, 65, 0
2, 10720, Note_on_c, 0, 56, 0
2, 10720, Note_on_c, 0, 72, 0
2, 10890, Note_on_c, 0, 73, 59
2, 11072, Control_c, 0, 64, 22
2, 11091, Control_c, 0, 64, 35
2, 11110, Control_c, 0, 64, 43
2, 11130, Control_c, 0, 64, 49
2, 11150, Control_c, 0, 64, 54
2, 11154, Note_on_c, 0, 67, 60
2, 11168, Control_c, 0, 64, 57
2, 11179, Note_on_c, 0, 73, 0
2, 11188, Control_c, 0, 64, 60
2, 11207, Control_c, 0, 64, 61
2, 11224, Control_c, 0, 64, 62
2, 11244, Control_c, 0, 64, 64
2, 11262, Control_c, 0, 64, 66
2, 11282, Control_c, 0, 64, 69
2, 11304, Control_c, 0, 64, 73
2, 11320, Control_c, 0, 64, 78
2, 11341, Control_c, 0, 64, 83
2, 11360, Control_c, 0, 64, 89
2, 11378, Control_c, 0, 64, 96
2, 11398, Control_c, 0, 64, 104
2, 11408, Note_on_c, 0, 70, 70
2, 11414, Note_on_c, 0, 58, 0
2, 11418, Control_c, 0, 64, 120
2, 11423, Note_on_c, 0, 61, 0
2, 11436, Control_c, 0, 64, 127
2, 11551, Control_c, 0, 64, 115
2, 11572, Control_c, 0, 64, 106
2, 11589, Control_c, 0, 64, 97
2, 11610, Control_c, 0, 64, 90
2, 11629, Control_c, 0, 64, 84
2, 11634, Note_on_c, 0, 48, 49
2, 11646, Control_c, 0, 64, 79
2, 11667, Control_c, 0, 64, 75
2, 11685, Control_c, 0, 64, 72
2, 11706, Control_c, 0, 64, 69
2, 11723, Control_c, 0, 64, 66
2, 11728, Note_on_c, 0, 64, 64
2, 11735, Note_on_c, 0, 60, 53
2, 11742, Control_c, 0, 64, 64
2, 11761, Control_c, 0, 64, 63
2, 11782, Control_c, 0, 64, 62
2, 11802, Control_c, 0, 64, 61
2, 11810, Note_on_c, 0, 67, 0
2, 11821, Note_on_c, 0, 70, 0
2, 11841, Control_c, 0, 64, 60
2, 11859, Control_c, 0, 64, 59
2, 11877, Control_c, 0, 64, 58
2, 11898, Control_c, 0, 64, 57
2, 11934, Control_c, 0, 64, 56
2, 11955, Control_c, 0, 64, 55
2, 11974, Control_c, 0, 64, 53
2, 11982, Note_on_c, 0, 52, 61
2, 11993, Control_c, 0, 64, 51
2, 12012, Control_c, 0, 64, 48
2, 12032, Control_c, 0, 64, 45
2, 12051, Control_c, 0, 64, 39
2, 12071, Control_c, 0, 64, 28
2, 12088, Control_c, 0, 64, 0
2, 12242, Control_c, 0, 64, 28
2, 12247, Note_on_c, 0, 55, 66
2, 12260, Control_c, 0, 64, 40
2, 12281, Control_c, 0, 64, 49
2, 12303, Control_c, 0, 64, 52
2, 12318, Control_c, 0, 64, 54
2, 12328, Note_on_c, 0, 60, 0
2, 12339, Control_c, 0, 64, 57
2, 12358, Control_c, 0, 64, 58
2, 12376, Control_c, 0, 64, 60
2, 12390, Note_on_c, 0, 52, 0
2, 12398, Control_c, 0, 64, 61
2, 12415, Control_c, 0, 64, 62
2, 12438, Control_c, 0, 64, 63
2, 12453, Control_c, 0, 64, 64
2, 12483, Note_on_c, 0, 65, 67
2, 12492, Control_c, 0, 64, 65
2, 12492, Note_on_c, 0, 60, 60
2, 12513, Control_c, 0, 64, 67
2, 12531, Control_c, 0, 64, 68
2, 12549, Control_c, 0, 64, 70
2, 12572, Control_c, 0, 64, 71
2, 12572, Note_on_c, 0, 64, 0
2, 12588, Control_c, 0, 64, 72
2, 12626, Control_c, 0, 64, 71
2, 12664, Control_c, 0, 64, 70
2, 12726, Control_c, 0, 64, 69
2, 12741, Control_c, 0, 64, 68
2, 12750, Note_on_c, 0, 49, 55
2, 12763, Control_c, 0, 64, 67
2, 12763, Note_on_c, 0, 67, 63
2, 12767, Note_on_c, 0, 65, 0
2, 12781, Control_c, 0, 64, 66
2, 12787, Note_on_c, 0, 48, 0
2, 12801, Control_c, 0, 64, 65
2, 12818, Control_c, 0, 64, 64
2, 12823, Note_on_c, 0, 60, 0
2, 12858, Control_c, 0, 64, 63
2, 12882, Note_on_c, 0, 55, 0
2, 12889, Note_on_c, 0, 67, 0
2, 12895, Control_c, 0, 64, 62
2, 12909, Note_on_c, 0, 65, 64
2, 12973, Control_c, 0, 64, 61
2, 12992, Note_on_c, 0, 65, 0
2, 13006, Note_on_c, 0, 60, 51
2, 13010, Control_c, 0, 64, 60
2, 13028, Note_on_c, 0, 67, 62
2, 13070, Note_on_c, 0, 67, 0
2, 13088, Control_c, 0, 64, 59
2, 13090, Note_on_c, 0, 65, 60
2, 13126, Control_c, 0, 64, 58
2, 13138, Note_on_c, 0, 65, 0
2, 13148, Note_on_c, 0, 67, 57
2, 13198, Note_on_c, 0, 67, 0
2, 13206, Control_c, 0, 64, 57
2, 13214, Note_on_c, 0, 65, 61
2, 13220, Note_on_c, 0, 58, 59
2, 13224, Control_c, 0, 64, 56
2, 13226, Note_on_c, 0, 60, 0
2, 13243, Control_c, 0, 64, 55
2, 13260, Control_c, 0, 64, 54
2, 13281, Note_on_c, 0, 65, 0
2, 13290, Note_on_c, 0, 67, 65
2, 13299, Control_c, 0, 64, 53
2, 13320, Control_c, 0, 64, 52
2, 13339, Control_c, 0, 64, 50
2, 13356, Control_c, 0, 64, 48
2, 13363, Note_on_c, 0, 67, 0
2, 13372, Note_on_c, 0, 65, 60
2, 13376, Control_c, 0, 64, 46
2, 13394, Control_c, 0, 64, 45
2, 13412, Control_c, 0, 64, 44
2, 13434, Control_c, 0, 64, 41
2, 13438, Note_on_c, 0, 61, 54
2, 13455, Control_c, 0, 64, 38
2, 13455, Note_on_c, 0, 58, 0
2, 13472, Note_on_c, 0, 65, 0
2, 13477, Control_c, 0, 64, 34
2, 13477, Note_on_c, 0, 64, 76
2, 13490, Control_c, 0, 64, 30
2, 13510, Control_c, 0, 64, 27
2, 13528, Control_c, 0, 64, 24
2, 13547, Control_c, 0, 64, 22
2, 13568, Control_c, 0, 64, 18
2, 13573, Note_on_c, 0, 64, 0
2, 13580, Note_on_c, 0, 65, 72
2, 13587, Control_c, 0, 64, 13
2, 13604, Control_c, 0, 64, 0
2, 13743, Note_on_c, 0, 52, 56
2, 13750, Note_on_c, 0, 67, 62
2, 13765, Note_on_c, 0, 65, 0
2, 13867, Note_on_c, 0, 49, 0
2, 13870, Note_on_c, 0, 61, 0
2, 14031, Note_on_c, 0, 72, 75
2, 14290, Note_on_c, 0, 70, 73
2, 14294, Note_on_c, 0, 55, 67
2, 14336, Note_on_c, 0, 72, 0
2, 14393, Control_c, 0, 64, 14
2, 14415, Control_c, 0, 64, 28
2, 14429, Control_c, 0, 64, 40
2, 14451, Control_c, 0, 64, 50
2, 14470, Control_c, 0, 64, 56
2, 14488, Control_c, 0, 64, 59
2, 14510, Control_c, 0, 64, 61
2, 14528, Control_c, 0, 64, 62
2, 14537, Note_on_c, 0, 73, 82
2, 14549, Control_c, 0, 64, 63
2, 14567, Control_c, 0, 64, 64
2, 14588, Note_on_c, 0, 67, 0
2, 14589, Control_c, 0, 64, 66
2, 14593, Note_on_c, 0, 70, 0
2, 14607, Control_c, 0, 64, 67
2, 14623, Control_c, 0, 64, 69
2, 14643, Control_c, 0, 64, 70
2, 14664, Control_c, 0, 64, 71
2, 14719, Control_c, 0, 64, 70
2, 14738, Control_c, 0, 64, 69
2, 14757, Control_c, 0, 64, 67
2, 14778, Control_c, 0, 64, 65
2, 14797, Control_c, 0, 64, 64
2, 14819, Control_c, 0, 64, 63
2, 14819, Note_on_c, 0, 60, 64
2, 14819, Note_on_c, 0, 64, 77
2, 14834, Control_c, 0, 64, 62
2, 14856, Control_c, 0, 64, 61
2, 14871, Control_c, 0, 64, 60
2, 14893, Control_c, 0, 64, 58
2, 14904, Note_on_c, 0, 73, 0
2, 14913, Control_c, 0, 64, 57
2, 14932, Control_c, 0, 64, 55
2, 14946, Note_on_c, 0, 52, 0
2, 14950, Control_c, 0, 64, 53
2, 14968, Note_on_c, 0, 55, 0
2, 14972, Control_c, 0, 64, 51
2, 14989, Control_c, 0, 64, 49
2, 15006, Control_c, 0, 64, 46
2, 15026, Control_c, 0, 64, 43
2, 15048, Control_c, 0, 64, 40
2, 15063, Control_c, 0, 64, 38
2, 15074, Note_on_c, 0, 73, 79
2, 15083, Control_c, 0, 64, 35
2, 15103, Control_c, 0, 64, 32
2, 15121, Control_c, 0, 64, 28
2, 15140, Control_c, 0, 64, 25
2, 15159, Control_c, 0, 64, 18
2, 15179, Control_c, 0, 64, 0
2, 15328, Note_on_c, 0, 72, 80
2, 15343, Note_on_c, 0, 48, 66
2, 15392, Control_c, 0, 64, 27
2, 15410, Control_c, 0, 64, 43
2, 15429, Control_c, 0, 64, 54
2, 15451, Control_c, 0, 64, 60
2, 15467, Control_c, 0, 64, 62
2, 15491, Control_c, 0, 64, 64
2, 15508, Control_c, 0, 64, 67
2, 15508, Note_on_c, 0, 60, 0
2, 15525, Control_c, 0, 64, 72
2, 15534, Note_on_c, 0, 73, 0
2, 15545, Control_c, 0, 64, 82
2, 15565, Control_c, 0, 64, 94
2, 15582, Control_c, 0, 64, 113
2, 15593, Note_on_c, 0, 70, 85
2, 15602, Control_c, 0, 64, 127
2, 15612, Note_on_c, 0, 48, 0
2, 15707, Note_on_c, 0, 64, 0
2, 15712, Note_on_c, 0, 72, 0
2, 15776, Control_c, 0, 64, 122
2, 15794, Control_c, 0, 64, 110
2, 15813, Control_c, 0, 64, 103
2, 15833, Control_c, 0, 64, 97
2, 15852, Control_c, 0, 64, 91
2, 15857, Note_on_c, 0, 41, 62
2, 15871, Control_c, 0, 64, 85
2, 15890, Control_c, 0, 64, 79
2, 15913, Control_c, 0, 64, 74
2, 15928, Control_c, 0, 64, 70
2, 15935, Note_on_c, 0, 69, 70
2, 15948, Control_c, 0, 64, 67
2, 15968, Control_c, 0, 64, 65
2, 15968, Note_on_c, 0, 63, 59
2, 15989, Control_c, 0, 64, 64
2, 16009, Control_c, 0, 64, 62
2, 16018, Note_on_c, 0, 70, 0
2, 16025, Control_c, 0, 64, 61
2, 16043, Control_c, 0, 64, 59
2, 16063, Control_c, 0, 64, 58
2, 16083, Control_c, 0, 64, 57
2, 16101, Control_c, 0, 64, 55
2, 16121, Control_c, 0, 64, 54
2, 16142, Control_c, 0, 64, 53
2, 16160, Control_c, 0, 64, 51
2, 16178, Control_c, 0, 64, 48
2, 16200, Control_c, 0, 64, 46
2, 16200, Note_on_c, 0, 45, 64
2, 16220, Control_c, 0, 64, 43
2, 16236, Control_c, 0, 64, 40
2, 16256, Control_c, 0, 64, 37
2, 16276, Control_c, 0, 64, 32
2, 16297, Control_c, 0, 64, 23
2, 16315, Control_c, 0, 64, 0
2, 16450, Note_on_c, 0, 48, 73
2, 16522, Note_on_c, 0, 45, 0
2, 16581, Control_c, 0, 64, 15
2, 16602, Control_c, 0, 64, 30
2, 16619, Control_c, 0, 64, 41
2, 16640, Control_c, 0, 64, 49
2, 16657, Control_c, 0, 64, 54
2, 16678, Control_c, 0, 64, 56
2, 16696, Note_on_c, 0, 70, 77
2, 16701, Control_c, 0, 64, 57
2, 16705, Note_on_c, 0, 53, 68
2, 16716, Control_c, 0, 64, 58
2, 16734, Control_c, 0, 64, 60
2, 16743, Note_on_c, 0, 69, 0
2, 16756, Control_c, 0, 64, 61
2, 16774, Control_c, 0, 64, 62
2, 16801, Note_on_c, 0, 63, 0
2, 16813, Control_c, 0, 64, 63
2, 16831, Control_c, 0, 64, 64
2, 16964, Note_on_c, 0, 42, 58
2, 16975, Note_on_c, 0, 41, 0
2, 16996, Note_on_c, 0, 72, 70
2, 17001, Note_on_c, 0, 70, 0
2, 17023, Control_c, 0, 64, 63
2, 17028, Note_on_c, 0, 61, 53
2, 17049, Note_on_c, 0, 53, 0
2, 17095, Note_on_c, 0, 48, 0
2, 17121, Note_on_c, 0, 72, 0
2, 17141, Note_on_c, 0, 70, 69
2, 17196, Control_c, 0, 64, 62
2, 17219, Note_on_c, 0, 70, 0
2, 17242, Note_on_c, 0, 53, 51
2, 17242, Note_on_c, 0, 72, 66
2, 17274, Control_c, 0, 64, 61
2, 17289, Note_on_c, 0, 70, 61
2, 17311, Control_c, 0, 64, 60
2, 17329, Control_c, 0, 64, 59
2, 17346, Note_on_c, 0, 72, 0
2, 17346, Note_on_c, 0, 72, 61
2, 17350, Control_c, 0, 64, 58
2, 17356, Note_on_c, 0, 70, 0
2, 17389, Control_c, 0, 64, 56
2, 17405, Control_c, 0, 64, 55
2, 17425, Control_c, 0, 64, 52
2, 17427, Note_on_c, 0, 70, 59
2, 17448, Control_c, 0, 64, 49
2, 17448, Note_on_c, 0, 72, 0
2, 17465, Control_c, 0, 64, 42
2, 17469, Note_on_c, 0, 51, 64
2, 17472, Note_on_c, 0, 53, 0
2, 17485, Control_c, 0, 64, 34
2, 17507, Control_c, 0, 64, 18
2, 17524, Control_c, 0, 64, 0
2, 17727, Note_on_c, 0, 69, 62
2, 17736, Note_on_c, 0, 54, 52
2, 17780, Note_on_c, 0, 70, 0
2, 17795, Note_on_c, 0, 51, 0
2, 17820, Note_on_c, 0, 70, 53
2, 17829, Note_on_c, 0, 69, 0
2, 18013, Note_on_c, 0, 45, 47
2, 18024, Note_on_c, 0, 70, 0
2, 18039, Note_on_c, 0, 72, 60
2, 18085, Note_on_c, 0, 42, 0
2, 18152, Note_on_c, 0, 54, 0
2, 18283, Note_on_c, 0, 61, 0
2, 18350, Note_on_c, 0, 65, 49
2, 18607, Note_on_c, 0, 63, 44
2, 18616, Note_on_c, 0, 48, 41
2, 18636, Note_on_c, 0, 65, 0
2, 18788, Control_c, 0, 64, 16
2, 18807, Control_c, 0, 64, 32
2, 18827, Control_c, 0, 64, 43
2, 18843, Control_c, 0, 64, 51
2, 18862, Note_on_c, 0, 66, 55
2, 18865, Control_c, 0, 64, 55
2, 18882, Control_c, 0, 64, 58
2, 18906, Control_c, 0, 64, 59
2, 18906, Note_on_c, 0, 45, 0
2, 18914, Note_on_c, 0, 63, 0
2, 18921, Control_c, 0, 64, 61
2, 18941, Control_c, 0, 64, 63
2, 18959, Control_c, 0, 64, 64
2, 18978, Control_c, 0, 64, 66
2, 19016, Control_c, 0, 64, 67
2, 19112, Control_c, 0, 64, 66
2, 19138, Note_on_c, 0, 45, 44
2, 19149, Note_on_c, 0, 66, 0
2, 19152, Control_c, 0, 64, 65
2, 19169, Control_c, 0, 64, 64
2, 19208, Control_c, 0, 64, 63
2, 19228, Control_c, 0, 64, 62
2, 19248, Control_c, 0, 64, 61
2, 19252, Note_on_c, 0, 48, 0
2, 19286, Control_c, 0, 64, 60
2, 19304, Control_c, 0, 64, 59
2, 19347, Control_c, 0, 64, 58
2, 19382, Control_c, 0, 64, 57
2, 19387, Note_on_c, 0, 66, 50
2, 19420, Control_c, 0, 64, 56
2, 19438, Control_c, 0, 64, 55
2, 19461, Control_c, 0, 64, 54
2, 19497, Control_c, 0, 64, 53
2, 19515, Control_c, 0, 64, 52
2, 19534, Control_c, 0, 64, 51
2, 19574, Control_c, 0, 64, 50
2, 19591, Control_c, 0, 64, 49
2, 19610, Control_c, 0, 64, 48
2, 19633, Control_c, 0, 64, 46
2, 19645, Note_on_c, 0, 65, 45
2, 19655, Control_c, 0, 64, 44
2, 19655, Note_on_c, 0, 41, 37
2, 19659, Note_on_c, 0, 66, 0
2, 19673, Control_c, 0, 64, 41
2, 19689, Control_c, 0, 64, 38
2, 19709, Control_c, 0, 64, 33
2, 19727, Control_c, 0, 64, 29
2, 19749, Control_c, 0, 64, 26
2, 19769, Control_c, 0, 64, 24
2, 19786, Control_c, 0, 64, 22
2, 19806, Control_c, 0, 64, 20
2, 19882, Note_on_c, 0, 65, 0
2, 19915, Note_on_c, 0, 63, 53
2, 20204, Note_on_c, 0, 61, 44
2, 20209, Note_on_c, 0, 63, 0
2, 20228, Note_on_c, 0, 46, 35
2, 20317, Note_on_c, 0, 72, 0
2, 20349, Note_on_c, 0, 41, 0
2, 20423, Note_on_c, 0, 45, 0
2, 20450, Note_on_c, 0, 72, 61
2, 20712, Note_on_c, 0, 70, 66
2, 20760, Note_on_c, 0, 72, 0
2, 20962, Note_on_c, 0, 73, 76
2, 21036, Note_on_c, 0, 70, 0
2, 21054, Control_c, 0, 64, 19
2, 21074, Control_c, 0, 64, 17
2, 21091, Control_c, 0, 64, 10
2, 21109, Control_c, 0, 64, 0
2, 21215, Note_on_c, 0, 67, 68
2, 21280, Note_on_c, 0, 73, 0
2, 21301, Control_c, 0, 64, 20
2, 21313, Note_on_c, 0, 46, 0
2, 21322, Control_c, 0, 64, 30
2, 21342, Control_c, 0, 64, 38
2, 21358, Control_c, 0, 64, 46
2, 21377, Control_c, 0, 64, 51
2, 21399, Control_c, 0, 64, 55
2, 21417, Control_c, 0, 64, 58
2, 21436, Control_c, 0, 64, 60
2, 21447, Note_on_c, 0, 46, 51
2, 21459, Control_c, 0, 64, 61
2, 21475, Control_c, 0, 64, 63
2, 21495, Control_c, 0, 64, 64
2, 21512, Control_c, 0, 64, 66
2, 21532, Control_c, 0, 64, 67
2, 21551, Control_c, 0, 64, 69
2, 21573, Control_c, 0, 64, 71
2, 21589, Control_c, 0, 64, 73
2, 21610, Control_c, 0, 64, 74
2, 21687, Note_on_c, 0, 67, 0
2, 21688, Note_on_c, 0, 70, 59
2, 21710, Note_on_c, 0, 48, 40
2, 21747, Control_c, 0, 64, 73
2, 21747, Note_on_c, 0, 70, 0
2, 21767, Note_on_c, 0, 68, 57
2, 21789, Note_on_c, 0, 46, 0
2, 21800, Control_c, 0, 64, 72
2, 21814, Note_on_c, 0, 68, 0
2, 21823, Control_c, 0, 64, 71
2, 21843, Control_c, 0, 64, 70
2, 21843, Note_on_c, 0, 70, 53
2, 21878, Control_c, 0, 64, 69
2, 21896, Control_c, 0, 64, 68
2, 21907, Note_on_c, 0, 68, 72
2, 21907, Note_on_c, 0, 70, 0
2, 21918, Control_c, 0, 64, 67
2, 21922, Note_on_c, 0, 49, 43
2, 21936, Control_c, 0, 64, 66
2, 21947, Note_on_c, 0, 68, 0
2, 21971, Note_on_c, 0, 67, 63
2, 21992, Control_c, 0, 64, 65
2, 22016, Note_on_c, 0, 48, 0
2, 22031, Control_c, 0, 64, 64
2, 22047, Note_on_c, 0, 67, 0
2, 22056, Note_on_c, 0, 68, 71
2, 22069, Control_c, 0, 64, 63
2, 22107, Control_c, 0, 64, 62
2, 22112, Note_on_c, 0, 68, 0
2, 22126, Control_c, 0, 64, 60
2, 22141, Note_on_c, 0, 70, 60
2, 22145, Control_c, 0, 64, 55
2, 22166, Control_c, 0, 64, 48
2, 22170, Note_on_c, 0, 43, 47
2, 22179, Note_on_c, 0, 49, 0
2, 22185, Control_c, 0, 64, 37
2, 22202, Control_c, 0, 64, 29
2, 22224, Control_c, 0, 64, 22
2, 22224, Note_on_c, 0, 61, 0
2, 22241, Control_c, 0, 64, 18
2, 22261, Control_c, 0, 64, 17
2, 22358, Control_c, 0, 64, 18
2, 22404, Note_on_c, 0, 60, 53
2, 22455, Control_c, 0, 64, 19
2, 22530, Control_c, 0, 64, 20
2, 22664, Note_on_c, 0, 60, 0
2, 22677, Note_on_c, 0, 43, 0
2, 22677, Note_on_c, 0, 61, 47
2, 22682, Note_on_c, 0, 46, 45
2, 22706, Control_c, 0, 64, 21
2, 22722, Control_c, 0, 64, 22
2, 22778, Control_c, 0, 64, 23
2, 22915, Note_on_c, 0, 61, 0
2, 22923, Note_on_c, 0, 65, 47
2, 22993, Control_c, 0, 64, 22
2, 23125, Control_c, 0, 64, 23
2, 23145, Control_c, 0, 64, 30
2, 23163, Control_c, 0, 64, 40
2, 23182, Control_c, 0, 64, 50
2, 23193, Note_on_c, 0, 65, 0
2, 23198, Note_on_c, 0, 51, 43
2, 23205, Control_c, 0, 64, 58
2, 23209, Note_on_c, 0, 55, 35
2, 23220, Control_c, 0, 64, 61
2, 23225, Note_on_c, 0, 46, 0
2, 23243, Control_c, 0, 64, 63
2, 23260, Control_c, 0, 64, 64
2, 23282, Control_c, 0, 64, 65
2, 23297, Control_c, 0, 64, 67
2, 23318, Control_c, 0, 64, 69
2, 23337, Control_c, 0, 64, 72
2, 23356, Control_c, 0, 64, 75
2, 23374, Control_c, 0, 64, 77
2, 23394, Control_c, 0, 64, 78
2, 23406, Note_on_c, 0, 55, 0
2, 23415, Control_c, 0, 64, 79
2, 23444, Note_on_c, 0, 51, 0
2, 23456, Note_on_c, 0, 65, 45
2, 23510, Control_c, 0, 64, 78
2, 23547, Control_c, 0, 64, 77
2, 23567, Control_c, 0, 64, 76
2, 23586, Control_c, 0, 64, 75
2, 23606, Control_c, 0, 64, 74
2, 23626, Control_c, 0, 64, 73
2, 23643, Control_c, 0, 64, 72
2, 23664, Control_c, 0, 64, 70
2, 23682, Control_c, 0, 64, 67
2, 23702, Control_c, 0, 64, 60
2, 23722, Control_c, 0, 64, 52
2, 23722, Note_on_c, 0, 65, 0
2, 23740, Control_c, 0, 64, 42
2, 23763, Control_c, 0, 64, 33
2, 23763, Note_on_c, 0, 39, 35
2, 23763, Note_on_c, 0, 63, 38
2, 23779, Control_c, 0, 64, 32
2, 23798, Control_c, 0, 64, 35
2, 23817, Control_c, 0, 64, 43
2, 23836, Control_c, 0, 64, 55
2, 23855, Control_c, 0, 64, 61
2, 23874, Control_c, 0, 64, 64
2, 23892, Control_c, 0, 64, 65
2, 23913, Control_c, 0, 64, 67
2, 23925, Note_on_c, 0, 39, 0
2, 23931, Control_c, 0, 64, 69
2, 23949, Control_c, 0, 64, 72
2, 23970, Control_c, 0, 64, 76
2, 23989, Control_c, 0, 64, 81
2, 24008, Control_c, 0, 64, 85
2, 24030, Control_c, 0, 64, 87
2, 24046, Note_on_c, 0, 61, 43
2, 24050, Control_c, 0, 64, 88
2, 24068, Note_on_c, 0, 63, 0
2, 24085, Control_c, 0, 64, 87
2, 24124, Control_c, 0, 64, 86
2, 24143, Control_c, 0, 64, 85
2, 24181, Control_c, 0, 64, 83
2, 24201, Control_c, 0, 64, 82
2, 24220, Control_c, 0, 64, 81
2, 24239, Control_c, 0, 64, 79
2, 24257, Control_c, 0, 64, 78
2, 24278, Control_c, 0, 64, 77
2, 24298, Control_c, 0, 64, 76
2, 24316, Control_c, 0, 64, 75
2, 24335, Control_c, 0, 64, 73
2, 24356, Control_c, 0, 64, 71
2, 24374, Control_c, 0, 64, 70
2, 24392, Control_c, 0, 64, 68
2, 24412, Control_c, 0, 64, 67
2, 24416, Note_on_c, 0, 60, 39
2, 24427, Note_on_c, 0, 61, 0
2, 24431, Control_c, 0, 64, 66
2, 24450, Control_c, 0, 64, 65
2, 24457, Note_on_c, 0, 44, 18
2, 24470, Control_c, 0, 64, 64
2, 24492, Control_c, 0, 64, 63
2, 24509, Control_c, 0, 64, 62
2, 24527, Control_c, 0, 64, 61
2, 24546, Control_c, 0, 64, 59
2, 24566, Control_c, 0, 64, 58
2, 24586, Control_c, 0, 64, 57
2, 24606, Control_c, 0, 64, 56
2, 24622, Control_c, 0, 64, 55
2, 24643, Control_c, 0, 64, 54
2, 24662, Control_c, 0, 64, 52
2, 24680, Control_c, 0, 64, 50
2, 24700, Control_c, 0, 64, 48
2, 24720, Control_c, 0, 64, 46
2, 24738, Control_c, 0, 64, 45
2, 24742, Note_on_c, 0, 68, 52
2, 24758, Control_c, 0, 64, 44
2, 24771, Note_on_c, 0, 48, 26
2, 24776, Note_on_c, 0, 70, 0
2, 24780, Control_c, 0, 64, 43
2, 24795, Control_c, 0, 64, 40
2, 24815, Control_c, 0, 64, 36
2, 24833, Control_c, 0, 64, 32
2, 24854, Control_c, 0, 64, 28
2, 24873, Control_c, 0, 64, 25
2, 24891, Control_c, 0, 64, 24
2, 24912, Control_c, 0, 64, 23
2, 25008, Control_c, 0, 64, 26
2, 25027, Control_c, 0, 64, 30
2, 25041, Note_on_c, 0, 72, 64
2, 25046, Control_c, 0, 64, 35
2, 25059, Note_on_c, 0, 51, 42
2, 25061, Note_on_c, 0, 68, 0
2, 25066, Control_c, 0, 64, 41
2, 25086, Control_c, 0, 64, 49
2, 25086, Note_on_c, 0, 48, 0
2, 25104, Control_c, 0, 64, 55
2, 25124, Control_c, 0, 64, 58
2, 25142, Control_c, 0, 64, 60
2, 25160, Control_c, 0, 64, 61
2, 25177, Note_on_c, 0, 60, 0
2, 25182, Control_c, 0, 64, 62
2, 25200, Control_c, 0, 64, 64
2, 25219, Control_c, 0, 64, 65
2, 25237, Control_c, 0, 64, 67
2, 25258, Control_c, 0, 64, 69
2, 25276, Control_c, 0, 64, 72
2, 25294, Control_c, 0, 64, 76
2, 25298, Note_on_c, 0, 56, 48
2, 25315, Control_c, 0, 64, 81
2, 25333, Control_c, 0, 64, 85
2, 25354, Control_c, 0, 64, 89
2, 25372, Control_c, 0, 64, 90
2, 25466, Control_c, 0, 64, 89
2, 25488, Control_c, 0, 64, 88
2, 25506, Control_c, 0, 64, 86
2, 25526, Control_c, 0, 64, 85
2, 25544, Note_on_c, 0, 61, 52
2, 25548, Control_c, 0, 64, 84
2, 25557, Note_on_c, 0, 46, 53
2, 25564, Control_c, 0, 64, 83
2, 25578, Note_on_c, 0, 44, 0
2, 25583, Control_c, 0, 64, 80
2, 25601, Note_on_c, 0, 56, 0
2, 25605, Control_c, 0, 64, 78
2, 25622, Control_c, 0, 64, 76
2, 25639, Control_c, 0, 64, 73
2, 25659, Control_c, 0, 64, 71
2, 25682, Control_c, 0, 64, 69
2, 25682, Note_on_c, 0, 51, 0
2, 25696, Control_c, 0, 64, 67
2, 25718, Control_c, 0, 64, 65
2, 25736, Control_c, 0, 64, 64
2, 25756, Control_c, 0, 64, 63
2, 25796, Control_c, 0, 64, 62
2, 25796, Note_on_c, 0, 70, 68
2, 25810, Note_on_c, 0, 56, 45
2, 25815, Control_c, 0, 64, 61
2, 25832, Control_c, 0, 64, 60
2, 25851, Control_c, 0, 64, 58
2, 25860, Note_on_c, 0, 72, 0
2, 25871, Control_c, 0, 64, 57
2, 25910, Control_c, 0, 64, 56
2, 25930, Control_c, 0, 64, 55
2, 25948, Control_c, 0, 64, 53
2, 25969, Control_c, 0, 64, 51
2, 25986, Control_c, 0, 64, 49
2, 26006, Control_c, 0, 64, 47
2, 26025, Control_c, 0, 64, 44
2, 26045, Control_c, 0, 64, 35
2, 26063, Control_c, 0, 64, 20
2, 26070, Note_on_c, 0, 73, 75
2, 26081, Control_c, 0, 64, 0
2, 26096, Note_on_c, 0, 55, 53
2, 26123, Note_on_c, 0, 70, 0
2, 26134, Note_on_c, 0, 56, 0
2, 26179, Control_c, 0, 64, 10
2, 26200, Control_c, 0, 64, 31
2, 26216, Control_c, 0, 64, 46
2, 26238, Control_c, 0, 64, 55
2, 26256, Control_c, 0, 64, 60
2, 26275, Control_c, 0, 64, 62
2, 26287, Note_on_c, 0, 61, 0
2, 26294, Control_c, 0, 64, 63
2, 26313, Control_c, 0, 64, 65
2, 26318, Note_on_c, 0, 58, 59
2, 26320, Note_on_c, 0, 46, 0
2, 26333, Control_c, 0, 64, 69
2, 26351, Control_c, 0, 64, 73
2, 26370, Control_c, 0, 64, 78
2, 26389, Control_c, 0, 64, 80
2, 26409, Control_c, 0, 64, 81
2, 26524, Control_c, 0, 64, 80
2, 26542, Control_c, 0, 64, 79
2, 26566, Note_on_c, 0, 48, 60
2, 26581, Note_on_c, 0, 63, 66
2, 26585, Control_c, 0, 64, 77
2, 26595, Note_on_c, 0, 55, 0
2, 26599, Control_c, 0, 64, 74
2, 26621, Control_c, 0, 64, 71
2, 26639, Control_c, 0, 64, 69
2, 26659, Control_c, 0, 64, 67
2, 26678, Control_c, 0, 64, 65
2, 26701, Control_c, 0, 64, 63
2, 26716, Control_c, 0, 64, 61
2, 26734, Control_c, 0, 64, 59
2, 26755, Control_c, 0, 64, 57
2, 26778, Control_c, 0, 64, 55
2, 26796, Control_c, 0, 64, 52
2, 26814, Control_c, 0, 64, 50
2, 26826, Note_on_c, 0, 51, 60
2, 26836, Control_c, 0, 64, 47
2, 26836, Note_on_c, 0, 72, 79
2, 26854, Control_c, 0, 64, 44
2, 26872, Control_c, 0, 64, 40
2, 26879, Note_on_c, 0, 73, 0
2, 26891, Control_c, 0, 64, 36
2, 26911, Control_c, 0, 64, 32
2, 26930, Control_c, 0, 64, 27
2, 26951, Control_c, 0, 64, 23
2, 26951, Note_on_c, 0, 58, 0
2, 26971, Control_c, 0, 64, 18
2, 26987, Control_c, 0, 64, 0
2, 27095, Note_on_c, 0, 75, 81
2, 27114, Note_on_c, 0, 56, 59
2, 27147, Note_on_c, 0, 72, 0
2, 27163, Note_on_c, 0, 51, 0
2, 27276, Control_c, 0, 64, 16
2, 27296, Control_c, 0, 64, 33
2, 27316, Control_c, 0, 64, 42
2, 27334, Control_c, 0, 64, 50
2, 27352, Control_c, 0, 64, 57
2, 27360, Note_on_c, 0, 63, 0
2, 27364, Note_on_c, 0, 60, 66
2, 27373, Control_c, 0, 64, 60
2, 27389, Control_c, 0, 64, 62
2, 27409, Control_c, 0, 64, 63
2, 27429, Control_c, 0, 64, 64
2, 27448, Control_c, 0, 64, 66
2, 27467, Control_c, 0, 64, 68
2, 27488, Control_c, 0, 64, 71
2, 27506, Control_c, 0, 64, 73
2, 27525, Control_c, 0, 64, 74
2, 27545, Control_c, 0, 64, 73
2, 27565, Control_c, 0, 64, 72
2, 27581, Control_c, 0, 64, 71
2, 27603, Control_c, 0, 64, 70
2, 27622, Note_on_c, 0, 65, 71
2, 27626, Note_on_c, 0, 49, 58
2, 27641, Control_c, 0, 64, 69
2, 27660, Control_c, 0, 64, 67
2, 27669, Note_on_c, 0, 48, 0
2, 27678, Control_c, 0, 64, 66
2, 27700, Control_c, 0, 64, 64
2, 27705, Note_on_c, 0, 60, 0
2, 27717, Control_c, 0, 64, 63
2, 27737, Control_c, 0, 64, 62
2, 27775, Control_c, 0, 64, 61
2, 27793, Control_c, 0, 64, 60
2, 27814, Control_c, 0, 64, 59
2, 27834, Control_c, 0, 64, 57
2, 27851, Control_c, 0, 64, 56
2, 27857, Note_on_c, 0, 56, 0
2, 27873, Control_c, 0, 64, 55
2, 27878, Note_on_c, 0, 60, 61
2, 27878, Note_on_c, 0, 73, 83
2, 27889, Control_c, 0, 64, 54
2, 27909, Control_c, 0, 64, 53
2, 27927, Note_on_c, 0, 75, 0
2, 27929, Control_c, 0, 64, 52
2, 27948, Control_c, 0, 64, 50
2, 27968, Control_c, 0, 64, 47
2, 27985, Control_c, 0, 64, 45
2, 28006, Control_c, 0, 64, 44
2, 28025, Control_c, 0, 64, 42
2, 28044, Control_c, 0, 64, 39
2, 28066, Control_c, 0, 64, 33
2, 28082, Control_c, 0, 64, 20
2, 28099, Control_c, 0, 64, 0
2, 28165, Note_on_c, 0, 58, 62
2, 28165, Note_on_c, 0, 77, 86
2, 28213, Note_on_c, 0, 73, 0
2, 28224, Note_on_c, 0, 60, 0
2, 28293, Control_c, 0, 64, 25
2, 28311, Control_c, 0, 64, 46
2, 28331, Control_c, 0, 64, 58
2, 28351, Control_c, 0, 64, 62
2, 28370, Control_c, 0, 64, 63
2, 28390, Control_c, 0, 64, 64
2, 28409, Control_c, 0, 64, 65
2, 28431, Control_c, 0, 64, 66
2, 28445, Note_on_c, 0, 61, 63
2, 28447, Control_c, 0, 64, 68
2, 28454, Note_on_c, 0, 49, 0
2, 28466, Note_on_c, 0, 65, 0
2, 28471, Control_c, 0, 64, 71
2, 28486, Control_c, 0, 64, 74
2, 28504, Control_c, 0, 64, 75
2, 28562, Control_c, 0, 64, 74
2, 28602, Control_c, 0, 64, 73
2, 28619, Control_c, 0, 64, 72
2, 28639, Control_c, 0, 64, 71
2, 28659, Control_c, 0, 64, 70
2, 28678, Control_c, 0, 64, 68
2, 28696, Control_c, 0, 64, 67
2, 28729, Note_on_c, 0, 51, 46
2, 28734, Control_c, 0, 64, 66
2, 28773, Control_c, 0, 64, 65
2, 28787, Note_on_c, 0, 67, 62
2, 28795, Control_c, 0, 64, 64
2, 28812, Control_c, 0, 64, 63
2, 28830, Control_c, 0, 64, 62
2, 28869, Control_c, 0, 64, 61
2, 28895, Note_on_c, 0, 61, 0
2, 28909, Control_c, 0, 64, 60
2, 28927, Control_c, 0, 64, 59
2, 28931, Note_on_c, 0, 58, 0
2, 28947, Control_c, 0, 64, 58
2, 29003, Control_c, 0, 64, 57
2, 29023, Control_c, 0, 64, 56
2, 29044, Control_c, 0, 64, 55
2, 29080, Control_c, 0, 64, 54
2, 29096, Note_on_c, 0, 75, 66
2, 29102, Note_on_c, 0, 55, 46
2, 29119, Control_c, 0, 64, 53
2, 29136, Control_c, 0, 64, 52
2, 29176, Control_c, 0, 64, 51
2, 29191, Note_on_c, 0, 77, 0
2, 29195, Control_c, 0, 64, 50
2, 29235, Control_c, 0, 64, 49
2, 29291, Control_c, 0, 64, 48
2, 29313, Control_c, 0, 64, 45
2, 29329, Control_c, 0, 64, 38
2, 29348, Control_c, 0, 64, 25
2, 29363, Note_on_c, 0, 58, 57
2, 29372, Control_c, 0, 64, 0
2, 29372, Note_on_c, 0, 73, 74
2, 29428, Note_on_c, 0, 75, 0
2, 29430, Note_on_c, 0, 55, 0
2, 29466, Control_c, 0, 64, 20
2, 29483, Control_c, 0, 64, 33
2, 29501, Control_c, 0, 64, 42
2, 29521, Control_c, 0, 64, 51
2, 29544, Control_c, 0, 64, 57
2, 29559, Control_c, 0, 64, 60
2, 29579, Control_c, 0, 64, 61
2, 29598, Control_c, 0, 64, 62
2, 29614, Note_on_c, 0, 72, 81
2, 29618, Control_c, 0, 64, 63
2, 29625, Note_on_c, 0, 63, 60
2, 29636, Control_c, 0, 64, 65
2, 29655, Control_c, 0, 64, 66
2, 29664, Note_on_c, 0, 51, 0
2, 29677, Control_c, 0, 64, 69
2, 29686, Note_on_c, 0, 73, 0
2, 29697, Control_c, 0, 64, 72
2, 29715, Control_c, 0, 64, 74
2, 29734, Control_c, 0, 64, 76
2, 29753, Control_c, 0, 64, 78
2, 29811, Control_c, 0, 64, 77
2, 29848, Control_c, 0, 64, 76
2, 29868, Control_c, 0, 64, 75
2, 29881, Note_on_c, 0, 70, 74
2, 29888, Control_c, 0, 64, 74
2, 29897, Note_on_c, 0, 53, 54
2, 29906, Control_c, 0, 64, 73
2, 29925, Control_c, 0, 64, 72
2, 29929, Note_on_c, 0, 72, 0
2, 29944, Control_c, 0, 64, 70
2, 29960, Note_on_c, 0, 67, 0
2, 29964, Control_c, 0, 64, 69
2, 29983, Control_c, 0, 64, 67
2, 29985, Note_on_c, 0, 63, 0
2, 30000, Control_c, 0, 64, 65
2, 30020, Control_c, 0, 64, 64
2, 30042, Control_c, 0, 64, 63
2, 30078, Control_c, 0, 64, 62
2, 30099, Control_c, 0, 64, 61
2, 30112, Note_on_c, 0, 67, 69
2, 30133, Note_on_c, 0, 58, 0
2, 30136, Control_c, 0, 64, 60
2, 30145, Note_on_c, 0, 63, 61
2, 30155, Control_c, 0, 64, 59
2, 30208, Note_on_c, 0, 70, 0
2, 30212, Control_c, 0, 64, 58
2, 30231, Control_c, 0, 64, 57
2, 30270, Control_c, 0, 64, 56
2, 30289, Control_c, 0, 64, 55
2, 30308, Control_c, 0, 64, 52
2, 30329, Control_c, 0, 64, 46
2, 30348, Control_c, 0, 64, 35
2, 30367, Control_c, 0, 64, 18
2, 30385, Control_c, 0, 64, 0
2, 30394, Note_on_c, 0, 68, 69
2, 30400, Note_on_c, 0, 61, 46
2, 30452, Note_on_c, 0, 67, 0
2, 30453, Note_on_c, 0, 63, 0
2, 30482, Control_c, 0, 64, 17
2, 30500, Control_c, 0, 64, 33
2, 30518, Control_c, 0, 64, 43
2, 30540, Control_c, 0, 64, 50
2, 30558, Control_c, 0, 64, 56
2, 30577, Control_c, 0, 64, 60
2, 30597, Control_c, 0, 64, 62
2, 30617, Control_c, 0, 64, 63
2, 30638, Control_c, 0, 64, 64
2, 30642, Note_on_c, 0, 73, 69
2, 30649, Note_on_c, 0, 53, 0
2, 30656, Control_c, 0, 64, 66
2, 30662, Note_on_c, 0, 65, 46
2, 30674, Control_c, 0, 64, 69
2, 30686, Note_on_c, 0, 68, 0
2, 30693, Control_c, 0, 64, 73
2, 30711, Control_c, 0, 64, 77
2, 30730, Control_c, 0, 64, 81
2, 30751, Control_c, 0, 64, 84
2, 30770, Control_c, 0, 64, 85
2, 30807, Note_on_c, 0, 73, 0
2, 30864, Control_c, 0, 64, 84
2, 30885, Control_c, 0, 64, 82
2, 30905, Control_c, 0, 64, 81
2, 30924, Control_c, 0, 64, 79
2, 30929, Note_on_c, 0, 55, 50
2, 30939, Note_on_c, 0, 72, 60
2, 30943, Control_c, 0, 64, 78
2, 30963, Control_c, 0, 64, 76
2, 30985, Control_c, 0, 64, 74
2, 30985, Note_on_c, 0, 72, 0
2, 30999, Note_on_c, 0, 70, 58
2, 31004, Control_c, 0, 64, 71
2, 31004, Note_on_c, 0, 65, 0
2, 31019, Control_c, 0, 64, 69
2, 31035, Note_on_c, 0, 70, 0
2, 31040, Control_c, 0, 64, 67
2, 31058, Control_c, 0, 64, 64
2, 31065, Note_on_c, 0, 72, 72
2, 31076, Control_c, 0, 64, 63
2, 31096, Control_c, 0, 64, 61
2, 31100, Note_on_c, 0, 61, 0
2, 31119, Control_c, 0, 64, 59
2, 31136, Control_c, 0, 64, 54
2, 31138, Note_on_c, 0, 70, 60
2, 31140, Note_on_c, 0, 72, 0
2, 31147, Note_on_c, 0, 65, 51
2, 31153, Control_c, 0, 64, 47
2, 31172, Control_c, 0, 64, 36
2, 31194, Control_c, 0, 64, 24
2, 31212, Control_c, 0, 64, 11
2, 31230, Control_c, 0, 64, 0
2, 31419, Note_on_c, 0, 65, 0
2, 31428, Note_on_c, 0, 63, 51
2, 31683, Note_on_c, 0, 63, 0
2, 31694, Note_on_c, 0, 61, 47
2, 31993, Note_on_c, 0, 60, 36
2, 32000, Note_on_c, 0, 55, 0
2, 32000, Note_on_c, 0, 56, 43
2, 32005, Note_on_c, 0, 61, 0
2, 32189, Control_c, 0, 64, 8
2, 32268, Control_c, 0, 64, 9
2, 32274, Note_on_c, 0, 70, 0
2, 32285, Note_on_c, 0, 63, 47
2, 32305, Control_c, 0, 64, 10
2, 32343, Control_c, 0, 64, 11
2, 32458, Control_c, 0, 64, 12
2, 32533, Control_c, 0, 64, 13
2, 32537, Note_on_c, 0, 65, 60
2, 32539, Note_on_c, 0, 55, 54
2, 32585, Note_on_c, 0, 63, 0
2, 32711, Note_on_c, 0, 56, 0
2, 32787, Note_on_c, 0, 67, 70
2, 32854, Note_on_c, 0, 65, 0
2, 33031, Note_on_c, 0, 53, 55
2, 33031, Note_on_c, 0, 68, 72
2, 33122, Note_on_c, 0, 67, 0
2, 33130, Note_on_c, 0, 55, 0
2, 33227, Control_c, 0, 64, 12
2, 33270, Note_on_c, 0, 67, 77
2, 33281, Control_c, 0, 64, 11
2, 33301, Note_on_c, 0, 68, 0
2, 33494, Control_c, 0, 64, 10
2, 33513, Control_c, 0, 64, 8
2, 33534, Control_c, 0, 64, 0
2, 33547, Note_on_c, 0, 53, 0
2, 33554, Note_on_c, 0, 49, 53
2, 33554, Note_on_c, 0, 68, 72
2, 33584, Note_on_c, 0, 67, 0
2, 33686, Control_c, 0, 64, 18
2, 33704, Control_c, 0, 64, 31
2, 33725, Control_c, 0, 64, 43
2, 33743, Control_c, 0, 64, 54
2, 33763, Control_c, 0, 64, 62
2, 33780, Control_c, 0, 64, 64
2, 33801, Control_c, 0, 64, 66
2, 33820, Control_c, 0, 64, 68
2, 33820, Note_on_c, 0, 77, 70
2, 33839, Control_c, 0, 64, 70
2, 33857, Control_c, 0, 64, 72
2, 33861, Note_on_c, 0, 49, 0
2, 33876, Control_c, 0, 64, 75
2, 33881, Note_on_c, 0, 68, 0
2, 33897, Control_c, 0, 64, 79
2, 33904, Note_on_c, 0, 60, 0
2, 33916, Control_c, 0, 64, 81
2, 34012, Control_c, 0, 64, 80
2, 34049, Control_c, 0, 64, 79
2, 34069, Control_c, 0, 64, 78
2, 34090, Control_c, 0, 64, 76
2, 34090, Note_on_c, 0, 60, 38
2, 34109, Control_c, 0, 64, 74
2, 34126, Control_c, 0, 64, 73
2, 34133, Note_on_c, 0, 51, 40
2, 34143, Note_on_c, 0, 77, 0
2, 34147, Control_c, 0, 64, 71
2, 34151, Note_on_c, 0, 75, 54
2, 34165, Control_c, 0, 64, 69
2, 34185, Control_c, 0, 64, 68
2, 34202, Control_c, 0, 64, 67
2, 34222, Control_c, 0, 64, 65
2, 34242, Control_c, 0, 64, 64
2, 34251, Note_on_c, 0, 60, 0
2, 34261, Control_c, 0, 64, 63
2, 34280, Control_c, 0, 64, 62
2, 34291, Note_on_c, 0, 58, 46
2, 34298, Control_c, 0, 64, 61
2, 34346, Note_on_c, 0, 58, 0
2, 34355, Control_c, 0, 64, 60
2, 34376, Control_c, 0, 64, 59
2, 34382, Note_on_c, 0, 60, 51
2, 34387, Note_on_c, 0, 68, 52
2, 34396, Control_c, 0, 64, 58
2, 34414, Control_c, 0, 64, 57
2, 34424, Note_on_c, 0, 60, 0
2, 34435, Control_c, 0, 64, 55
2, 34454, Control_c, 0, 64, 53
2, 34458, Note_on_c, 0, 58, 53
2, 34463, Note_on_c, 0, 75, 0
2, 34476, Control_c, 0, 64, 47
2, 34489, Note_on_c, 0, 58, 0
2, 34493, Control_c, 0, 64, 33
2, 34510, Control_c, 0, 64, 0
2, 34516, Note_on_c, 0, 60, 67
2, 34577, Note_on_c, 0, 68, 0
2, 34600, Note_on_c, 0, 60, 0
2, 34602, Note_on_c, 0, 58, 53
2, 34614, Note_on_c, 0, 67, 47
2, 34683, Control_c, 0, 64, 28
2, 34703, Control_c, 0, 64, 43
2, 34722, Control_c, 0, 64, 54
2, 34740, Control_c, 0, 64, 59
2, 34763, Control_c, 0, 64, 62
2, 34780, Control_c, 0, 64, 64
2, 34798, Control_c, 0, 64, 67
2, 34817, Control_c, 0, 64, 71
2, 34836, Control_c, 0, 64, 75
2, 34847, Note_on_c, 0, 58, 0
2, 34856, Control_c, 0, 64, 81
2, 34879, Control_c, 0, 64, 87
2, 34879, Note_on_c, 0, 73, 64
2, 34896, Control_c, 0, 64, 91
2, 34917, Control_c, 0, 64, 93
2, 34931, Note_on_c, 0, 51, 0
2, 34938, Note_on_c, 0, 67, 0
2, 34993, Control_c, 0, 64, 92
2, 35008, Control_c, 0, 64, 91
2, 35030, Control_c, 0, 64, 90
2, 35050, Control_c, 0, 64, 88
2, 35067, Control_c, 0, 64, 86
2, 35087, Control_c, 0, 64, 83
2, 35105, Control_c, 0, 64, 80
2, 35125, Control_c, 0, 64, 77
2, 35144, Control_c, 0, 64, 75
2, 35162, Control_c, 0, 64, 74
2, 35185, Control_c, 0, 64, 72
2, 35203, Control_c, 0, 64, 70
2, 35217, Note_on_c, 0, 56, 42
2, 35217, Note_on_c, 0, 72, 58
2, 35222, Control_c, 0, 64, 69
2, 35230, Note_on_c, 0, 44, 40
2, 35239, Control_c, 0, 64, 67
2, 35260, Control_c, 0, 64, 66
2, 35265, Note_on_c, 0, 73, 0
2, 35278, Control_c, 0, 64, 65
2, 35316, Control_c, 0, 64, 64
2, 35374, Control_c, 0, 64, 63
2, 35394, Control_c, 0, 64, 62
2, 35415, Control_c, 0, 64, 61
2, 35432, Control_c, 0, 64, 60
2, 35491, Control_c, 0, 64, 59
2, 35495, Note_on_c, 0, 68, 61
2, 35510, Control_c, 0, 64, 58
2, 35523, Note_on_c, 0, 72, 0
2, 35547, Control_c, 0, 64, 57
2, 35567, Control_c, 0, 64, 56
2, 35585, Control_c, 0, 64, 55
2, 35603, Control_c, 0, 64, 54
2, 35623, Control_c, 0, 64, 53
2, 35643, Control_c, 0, 64, 51
2, 35663, Control_c, 0, 64, 50
2, 35681, Control_c, 0, 64, 47
2, 35700, Control_c, 0, 64, 44
2, 35719, Control_c, 0, 64, 42
2, 35739, Control_c, 0, 64, 40
2, 35760, Control_c, 0, 64, 39
2, 35760, Note_on_c, 0, 72, 76
2, 35778, Control_c, 0, 64, 37
2, 35797, Control_c, 0, 64, 36
2, 35801, Note_on_c, 0, 68, 0
2, 35816, Control_c, 0, 64, 34
2, 35835, Control_c, 0, 64, 33
2, 35854, Control_c, 0, 64, 32
2, 35873, Control_c, 0, 64, 31
2, 35893, Control_c, 0, 64, 30
2, 35915, Control_c, 0, 64, 28
2, 35935, Control_c, 0, 64, 26
2, 35949, Control_c, 0, 64, 22
2, 35968, Control_c, 0, 64, 17
2, 35988, Control_c, 0, 64, 10
2, 36000, Note_on_c, 0, 76, 77
2, 36009, Control_c, 0, 64, 0
2, 36098, Note_on_c, 0, 72, 0
2, 36274, Note_on_c, 0, 77, 86
2, 36353, Note_on_c, 0, 76, 0
2, 36372, Note_on_c, 0, 56, 0
2, 36518, Note_on_c, 0, 79, 84
2, 36529, Control_c, 0, 64, 9
2, 36539, Note_on_c, 0, 56, 62
2, 36545, Control_c, 0, 64, 11
2, 36566, Note_on_c, 0, 77, 0
2, 36569, Note_on_c, 0, 44, 0
2, 36584, Control_c, 0, 64, 13
2, 36604, Control_c, 0, 64, 14
2, 36622, Control_c, 0, 64, 15
2, 36738, Control_c, 0, 64, 16
2, 36777, Note_on_c, 0, 76, 83
2, 36797, Note_on_c, 0, 55, 71
2, 36817, Note_on_c, 0, 79, 0
2, 36868, Note_on_c, 0, 56, 0
2, 37040, Note_on_c, 0, 77, 88
2, 37044, Note_on_c, 0, 53, 74
2, 37139, Note_on_c, 0, 76, 0
2, 37157, Note_on_c, 0, 55, 0
2, 37405, Note_on_c, 0, 79, 84
2, 37410, Note_on_c, 0, 52, 72
2, 37428, Control_c, 0, 64, 15
2, 37466, Control_c, 0, 64, 14
2, 37487, Control_c, 0, 64, 13
2, 37493, Note_on_c, 0, 77, 0
2, 37521, Note_on_c, 0, 53, 0
2, 37639, Control_c, 0, 64, 15
2, 37658, Control_c, 0, 64, 18
2, 37679, Control_c, 0, 64, 22
2, 37697, Control_c, 0, 64, 27
2, 37718, Control_c, 0, 64, 35
2, 37736, Control_c, 0, 64, 43
2, 37755, Note_on_c, 0, 55, 41
2, 37760, Control_c, 0, 64, 50
2, 37773, Control_c, 0, 64, 55
2, 37794, Control_c, 0, 64, 56
2, 37813, Control_c, 0, 64, 58
2, 37833, Control_c, 0, 64, 60
2, 37853, Control_c, 0, 64, 61
2, 37869, Control_c, 0, 64, 63
2, 37888, Control_c, 0, 64, 64
2, 37908, Control_c, 0, 64, 65
2, 37929, Control_c, 0, 64, 67
2, 37948, Control_c, 0, 64, 69
2, 37968, Control_c, 0, 64, 73
2, 37984, Control_c, 0, 64, 78
2, 37998, Note_on_c, 0, 58, 70
2, 38007, Control_c, 0, 64, 86
2, 38030, Control_c, 0, 64, 100
2, 38035, Note_on_c, 0, 55, 0
2, 38046, Control_c, 0, 64, 115
2, 38061, Control_c, 0, 64, 127
2, 38218, Note_on_c, 0, 58, 0
2, 38244, Note_on_c, 0, 61, 66
2, 38347, Note_on_c, 0, 61, 0
2, 38428, Control_c, 0, 64, 113
2, 38446, Control_c, 0, 64, 108
2, 38465, Control_c, 0, 64, 104
2, 38486, Control_c, 0, 64, 100
2, 38503, Control_c, 0, 64, 97
2, 38518, Note_on_c, 0, 48, 68
2, 38523, Control_c, 0, 64, 94
2, 38542, Control_c, 0, 64, 91
2, 38564, Control_c, 0, 64, 89
2, 38581, Control_c, 0, 64, 85
2, 38598, Control_c, 0, 64, 82
2, 38619, Control_c, 0, 64, 79
2, 38638, Control_c, 0, 64, 77
2, 38659, Control_c, 0, 64, 76
2, 38676, Control_c, 0, 64, 74
2, 38698, Control_c, 0, 64, 73
2, 38716, Control_c, 0, 64, 71
2, 38734, Control_c, 0, 64, 69
2, 38753, Control_c, 0, 64, 68
2, 38772, Control_c, 0, 64, 67
2, 38784, Note_on_c, 0, 53, 69
2, 38793, Control_c, 0, 64, 66
2, 38811, Control_c, 0, 64, 65
2, 38832, Note_on_c, 0, 52, 0
2, 38851, Control_c, 0, 64, 64
2, 38887, Control_c, 0, 64, 63
2, 38944, Control_c, 0, 64, 62
2, 38985, Control_c, 0, 64, 61
2, 39021, Control_c, 0, 64, 60
2, 39042, Note_on_c, 0, 52, 67
2, 39064, Control_c, 0, 64, 59
2, 39099, Control_c, 0, 64, 58
2, 39120, Control_c, 0, 64, 56
2, 39138, Control_c, 0, 64, 55
2, 39143, Note_on_c, 0, 53, 0
2, 39156, Control_c, 0, 64, 53
2, 39175, Control_c, 0, 64, 51
2, 39194, Control_c, 0, 64, 49
2, 39216, Control_c, 0, 64, 47
2, 39234, Control_c, 0, 64, 46
2, 39256, Control_c, 0, 64, 44
2, 39272, Control_c, 0, 64, 43
2, 39313, Note_on_c, 0, 55, 65
2, 39349, Control_c, 0, 64, 42
2, 39374, Note_on_c, 0, 52, 0
2, 39520, Control_c, 0, 64, 41
2, 39664, Note_on_c, 0, 56, 56
2, 39669, Note_on_c, 0, 53, 52
2, 39759, Note_on_c, 0, 48, 0
2, 39790, Note_on_c, 0, 55, 0
2, 39993, Note_on_c, 0, 72, 62
2, 40238, Note_on_c, 0, 79, 0
2, 40242, Note_on_c, 0, 77, 74
2, 40372, Note_on_c, 0, 72, 0
2, 40500, Note_on_c, 0, 80, 78
2, 40694, Note_on_c, 0, 77, 0
2, 40738, Note_on_c, 0, 74, 72
2, 40828, Note_on_c, 0, 80, 0
2, 40882, Note_on_c, 0, 53, 0
2, 40981, Note_on_c, 0, 77, 79
2, 40987, Note_on_c, 0, 53, 50
2, 41040, Note_on_c, 0, 74, 0
2, 41253, Note_on_c, 0, 71, 75
2, 41268, Note_on_c, 0, 51, 60
2, 41274, Note_on_c, 0, 53, 0
2, 41327, Note_on_c, 0, 77, 0
2, 41384, Control_c, 0, 64, 42
2, 41423, Control_c, 0, 64, 44
2, 41441, Control_c, 0, 64, 45
2, 41461, Control_c, 0, 64, 48
2, 41479, Control_c, 0, 64, 51
2, 41485, Note_on_c, 0, 51, 0
2, 41496, Note_on_c, 0, 50, 58
2, 41500, Control_c, 0, 64, 54
2, 41500, Note_on_c, 0, 72, 80
2, 41519, Control_c, 0, 64, 56
2, 41535, Note_on_c, 0, 71, 0
2, 41540, Control_c, 0, 64, 58
2, 41557, Control_c, 0, 64, 59
2, 41578, Control_c, 0, 64, 61
2, 41596, Control_c, 0, 64, 62
2, 41614, Control_c, 0, 64, 63
2, 41654, Control_c, 0, 64, 64
2, 41674, Control_c, 0, 64, 66
2, 41674, Note_on_c, 0, 56, 0
2, 41693, Control_c, 0, 64, 67
2, 41713, Control_c, 0, 64, 70
2, 41713, Note_on_c, 0, 72, 0
2, 41729, Control_c, 0, 64, 73
2, 41751, Control_c, 0, 64, 77
2, 41766, Note_on_c, 0, 72, 66
2, 41768, Control_c, 0, 64, 80
2, 41777, Note_on_c, 0, 55, 57
2, 41786, Control_c, 0, 64, 82
2, 41798, Note_on_c, 0, 50, 0
2, 41827, Control_c, 0, 64, 83
2, 41864, Control_c, 0, 64, 82
2, 41904, Control_c, 0, 64, 81
2, 41918, Note_on_c, 0, 72, 0
2, 41923, Control_c, 0, 64, 80
2, 41927, Note_on_c, 0, 71, 68
2, 41960, Control_c, 0, 64, 79
2, 41980, Control_c, 0, 64, 78
2, 41997, Control_c, 0, 64, 77
2, 42016, Control_c, 0, 64, 75
2, 42039, Control_c, 0, 64, 73
2, 42039, Note_on_c, 0, 71, 0
2, 42054, Note_on_c, 0, 72, 71
2, 42059, Control_c, 0, 64, 71
2, 42078, Control_c, 0, 64, 69
2, 42088, Note_on_c, 0, 59, 33
2, 42096, Control_c, 0, 64, 67
2, 42100, Note_on_c, 0, 72, 0
2, 42111, Note_on_c, 0, 60, 26
2, 42116, Control_c, 0, 64, 65
2, 42116, Note_on_c, 0, 71, 66
2, 42136, Control_c, 0, 64, 64
2, 42152, Control_c, 0, 64, 63
2, 42161, Note_on_c, 0, 60, 0
2, 42165, Note_on_c, 0, 71, 0
2, 42172, Control_c, 0, 64, 62
2, 42188, Note_on_c, 0, 72, 78
2, 42212, Control_c, 0, 64, 61
2, 42230, Control_c, 0, 64, 60
2, 42250, Control_c, 0, 64, 59
2, 42256, Note_on_c, 0, 72, 0
2, 42261, Note_on_c, 0, 71, 76
2, 42267, Control_c, 0, 64, 58
2, 42287, Control_c, 0, 64, 57
2, 42299, Note_on_c, 0, 62, 65
2, 42305, Control_c, 0, 64, 55
2, 42325, Control_c, 0, 64, 53
2, 42347, Control_c, 0, 64, 49
2, 42353, Note_on_c, 0, 59, 0
2, 42362, Control_c, 0, 64, 43
2, 42382, Control_c, 0, 64, 33
2, 42401, Control_c, 0, 64, 14
2, 42421, Control_c, 0, 64, 0
2, 42547, Note_on_c, 0, 67, 68
2, 42669, Control_c, 0, 64, 15
2, 42693, Control_c, 0, 64, 32
2, 42693, Note_on_c, 0, 72, 77
2, 42700, Note_on_c, 0, 71, 0
2, 42708, Control_c, 0, 64, 42
2, 42727, Control_c, 0, 64, 50
2, 42747, Control_c, 0, 64, 55
2, 42766, Control_c, 0, 64, 57
2, 42785, Control_c, 0, 64, 58
2, 42805, Control_c, 0, 64, 59
2, 42820, Note_on_c, 0, 56, 66
2, 42825, Control_c, 0, 64, 60
2, 42842, Control_c, 0, 64, 61
2, 42862, Control_c, 0, 64, 62
2, 42871, Note_on_c, 0, 55, 0
2, 42880, Note_on_c, 0, 74, 71
2, 42889, Note_on_c, 0, 72, 0
2, 42936, Note_on_c, 0, 67, 0
2, 42988, Note_on_c, 0, 74, 0
2, 43004, Note_on_c, 0, 72, 71
2, 43008, Note_on_c, 0, 62, 0
2, 43078, Note_on_c, 0, 72, 0
2, 43110, Note_on_c, 0, 74, 65
2, 43118, Note_on_c, 0, 67, 59
2, 43134, Control_c, 0, 64, 61
2, 43158, Note_on_c, 0, 74, 0
2, 43187, Note_on_c, 0, 72, 73
2, 43209, Control_c, 0, 64, 60
2, 43232, Note_on_c, 0, 72, 0
2, 43232, Note_on_c, 0, 74, 70
2, 43300, Note_on_c, 0, 74, 0
2, 43304, Control_c, 0, 64, 59
2, 43309, Note_on_c, 0, 72, 73
2, 43327, Note_on_c, 0, 65, 60
2, 43334, Note_on_c, 0, 67, 0
2, 43363, Control_c, 0, 64, 58
2, 43377, Note_on_c, 0, 72, 0
2, 43377, Note_on_c, 0, 74, 69
2, 43380, Control_c, 0, 64, 57
2, 43419, Control_c, 0, 64, 56
2, 43438, Control_c, 0, 64, 55
2, 43458, Note_on_c, 0, 72, 73
2, 43464, Note_on_c, 0, 74, 0
2, 43477, Control_c, 0, 64, 54
2, 43496, Control_c, 0, 64, 53
2, 43536, Control_c, 0, 64, 52
2, 43543, Note_on_c, 0, 68, 72
2, 43550, Note_on_c, 0, 71, 80
2, 43550, Note_on_c, 0, 72, 0
2, 43556, Control_c, 0, 64, 50
2, 43574, Control_c, 0, 64, 49
2, 43589, Note_on_c, 0, 65, 0
2, 43594, Control_c, 0, 64, 46
2, 43612, Control_c, 0, 64, 45
2, 43632, Control_c, 0, 64, 43
2, 43654, Control_c, 0, 64, 42
2, 43654, Note_on_c, 0, 71, 0
2, 43654, Note_on_c, 0, 72, 87
2, 43668, Control_c, 0, 64, 40
2, 43688, Control_c, 0, 64, 37
2, 43708, Control_c, 0, 64, 35
2, 43727, Control_c, 0, 64, 31
2, 43745, Control_c, 0, 64, 25
2, 43764, Control_c, 0, 64, 17
2, 43785, Control_c, 0, 64, 0
2, 43792, Note_on_c, 0, 59, 70
2, 43792, Note_on_c, 0, 74, 79
2, 43797, Note_on_c, 0, 72, 0
2, 43922, Note_on_c, 0, 56, 0
2, 43943, Note_on_c, 0, 68, 0
2, 44064, Note_on_c, 0, 79, 84
2, 44336, Note_on_c, 0, 62, 71
2, 44340, Note_on_c, 0, 77, 82
2, 44380, Control_c, 0, 64, 8
2, 44398, Note_on_c, 0, 79, 0
2, 44403, Control_c, 0, 64, 18
2, 44417, Control_c, 0, 64, 27
2, 44437, Control_c, 0, 64, 35
2, 44457, Control_c, 0, 64, 42
2, 44475, Control_c, 0, 64, 48
2, 44495, Control_c, 0, 64, 52
2, 44514, Control_c, 0, 64, 55
2, 44532, Control_c, 0, 64, 57
2, 44552, Control_c, 0, 64, 59
2, 44570, Control_c, 0, 64, 60
2, 44578, Note_on_c, 0, 80, 84
2, 44594, Control_c, 0, 64, 61
2, 44610, Note_on_c, 0, 74, 0
2, 44612, Control_c, 0, 64, 62
2, 44612, Note_on_c, 0, 77, 0
2, 44628, Control_c, 0, 64, 64
2, 44686, Control_c, 0, 64, 65
2, 44801, Control_c, 0, 64, 64
2, 44850, Note_on_c, 0, 71, 78
2, 44859, Control_c, 0, 64, 63
2, 44859, Note_on_c, 0, 67, 73
2, 44878, Control_c, 0, 64, 62
2, 44905, Note_on_c, 0, 80, 0
2, 44917, Control_c, 0, 64, 61
2, 44937, Control_c, 0, 64, 60
2, 44957, Control_c, 0, 64, 59
2, 44975, Control_c, 0, 64, 57
2, 44993, Control_c, 0, 64, 56
2, 45007, Note_on_c, 0, 59, 0
2, 45016, Control_c, 0, 64, 54
2, 45031, Control_c, 0, 64, 52
2, 45053, Control_c, 0, 64, 49
2, 45053, Note_on_c, 0, 62, 0
2, 45069, Control_c, 0, 64, 46
2, 45088, Control_c, 0, 64, 44
2, 45110, Note_on_c, 0, 80, 84
2, 45114, Control_c, 0, 64, 41
2, 45127, Control_c, 0, 64, 38
2, 45147, Control_c, 0, 64, 35
2, 45166, Control_c, 0, 64, 31
2, 45185, Control_c, 0, 64, 25
2, 45203, Control_c, 0, 64, 18
2, 45224, Control_c, 0, 64, 0
2, 45364, Note_on_c, 0, 79, 84
2, 45368, Note_on_c, 0, 55, 70
2, 45438, Note_on_c, 0, 80, 0
2, 45609, Control_c, 0, 64, 23
2, 45626, Control_c, 0, 64, 41
2, 45643, Note_on_c, 0, 77, 86
2, 45645, Control_c, 0, 64, 52
2, 45664, Control_c, 0, 64, 57
2, 45684, Control_c, 0, 64, 59
2, 45695, Note_on_c, 0, 67, 0
2, 45704, Control_c, 0, 64, 61
2, 45709, Note_on_c, 0, 79, 0
2, 45721, Control_c, 0, 64, 64
2, 45743, Control_c, 0, 64, 67
2, 45763, Control_c, 0, 64, 70
2, 45781, Control_c, 0, 64, 75
2, 45800, Control_c, 0, 64, 79
2, 45822, Control_c, 0, 64, 83
2, 45839, Control_c, 0, 64, 86
2, 45858, Control_c, 0, 64, 87
2, 45877, Control_c, 0, 64, 86
2, 45915, Control_c, 0, 64, 85
2, 45934, Control_c, 0, 64, 84
2, 45943, Note_on_c, 0, 71, 0
2, 45956, Control_c, 0, 64, 83
2, 45974, Control_c, 0, 64, 81
2, 45974, Note_on_c, 0, 60, 65
2, 45995, Control_c, 0, 64, 78
2, 46010, Control_c, 0, 64, 75
2, 46033, Control_c, 0, 64, 73
2, 46033, Note_on_c, 0, 75, 81
2, 46049, Control_c, 0, 64, 72
2, 46086, Control_c, 0, 64, 71
2, 46106, Control_c, 0, 64, 69
2, 46113, Note_on_c, 0, 77, 0
2, 46126, Control_c, 0, 64, 67
2, 46147, Note_on_c, 0, 55, 0
2, 46151, Control_c, 0, 64, 64
2, 46165, Control_c, 0, 64, 63
2, 46202, Control_c, 0, 64, 62
2, 46223, Control_c, 0, 64, 61
2, 46242, Control_c, 0, 64, 60
2, 46264, Control_c, 0, 64, 58
2, 46280, Control_c, 0, 64, 55
2, 46299, Control_c, 0, 64, 52
2, 46317, Control_c, 0, 64, 50
2, 46341, Control_c, 0, 64, 48
2, 46355, Control_c, 0, 64, 46
2, 46376, Control_c, 0, 64, 44
2, 46376, Note_on_c, 0, 84, 80
2, 46397, Control_c, 0, 64, 42
2, 46414, Control_c, 0, 64, 41
2, 46432, Control_c, 0, 64, 39
2, 46454, Control_c, 0, 64, 38
2, 46472, Control_c, 0, 64, 37
2, 46493, Control_c, 0, 64, 36
2, 46510, Control_c, 0, 64, 34
2, 46531, Control_c, 0, 64, 33
2, 46550, Control_c, 0, 64, 32
2, 46569, Control_c, 0, 64, 31
2, 46589, Control_c, 0, 64, 30
2, 46609, Control_c, 0, 64, 29
2, 46629, Control_c, 0, 64, 27
2, 46645, Control_c, 0, 64, 24
2, 46647, Note_on_c, 0, 77, 82
2, 46659, Note_on_c, 0, 56, 63
2, 46663, Control_c, 0, 64, 18
2, 46683, Control_c, 0, 64, 0
2, 46698, Note_on_c, 0, 75, 0
2, 46857, Control_c, 0, 64, 20
2, 46875, Control_c, 0, 64, 39
2, 46893, Control_c, 0, 64, 50
2, 46902, Note_on_c, 0, 83, 83
2, 46915, Control_c, 0, 64, 57
2, 46936, Control_c, 0, 64, 59
2, 46936, Note_on_c, 0, 84, 0
2, 46969, Control_c, 0, 64, 60
2, 46991, Control_c, 0, 64, 62
2, 47009, Control_c, 0, 64, 63
2, 47027, Control_c, 0, 64, 64
2, 47105, Control_c, 0, 64, 63
2, 47162, Control_c, 0, 64, 62
2, 47176, Note_on_c, 0, 51, 51
2, 47221, Control_c, 0, 64, 61
2, 47240, Control_c, 0, 64, 60
2, 47279, Control_c, 0, 64, 59
2, 47280, Note_on_c, 0, 84, 75
2, 47309, Note_on_c, 0, 77, 0
2, 47335, Control_c, 0, 64, 58
2, 47354, Control_c, 0, 64, 57
2, 47366, Note_on_c, 0, 83, 0
2, 47374, Control_c, 0, 64, 56
2, 47392, Control_c, 0, 64, 55
2, 47411, Control_c, 0, 64, 54
2, 47416, Note_on_c, 0, 56, 0
2, 47432, Control_c, 0, 64, 53
2, 47452, Control_c, 0, 64, 52
2, 47470, Control_c, 0, 64, 51
2, 47490, Control_c, 0, 64, 50
2, 47510, Control_c, 0, 64, 48
2, 47527, Control_c, 0, 64, 46
2, 47547, Control_c, 0, 64, 45
2, 47568, Control_c, 0, 64, 44
2, 47576, Note_on_c, 0, 79, 64
2, 47586, Control_c, 0, 64, 43
2, 47607, Control_c, 0, 64, 42
2, 47626, Control_c, 0, 64, 41
2, 47645, Control_c, 0, 64, 40
2, 47666, Control_c, 0, 64, 37
2, 47684, Control_c, 0, 64, 34
2, 47701, Control_c, 0, 64, 28
2, 47721, Control_c, 0, 64, 0
2, 47832, Note_on_c, 0, 53, 45
2, 47839, Note_on_c, 0, 80, 65
2, 47858, Note_on_c, 0, 51, 0
2, 47858, Note_on_c, 0, 79, 0
2, 47912, Control_c, 0, 64, 11
2, 47932, Control_c, 0, 64, 36
2, 47950, Control_c, 0, 64, 48
2, 47970, Control_c, 0, 64, 55
2, 47988, Control_c, 0, 64, 59
2, 48009, Control_c, 0, 64, 61
2, 48026, Control_c, 0, 64, 62
2, 48046, Control_c, 0, 64, 64
2, 48066, Control_c, 0, 64, 65
2, 48083, Note_on_c, 0, 77, 74
2, 48087, Control_c, 0, 64, 66
2, 48102, Control_c, 0, 64, 67
2, 48123, Control_c, 0, 64, 68
2, 48142, Note_on_c, 0, 84, 0
2, 48175, Note_on_c, 0, 80, 0
2, 48199, Note_on_c, 0, 77, 0
2, 48335, Control_c, 0, 64, 67
2, 48388, Note_on_c, 0, 55, 40
2, 48397, Note_on_c, 0, 75, 59
2, 48410, Control_c, 0, 64, 66
2, 48449, Note_on_c, 0, 53, 0
2, 48453, Control_c, 0, 64, 65
2, 48468, Control_c, 0, 64, 64
2, 48488, Control_c, 0, 64, 62
2, 48508, Control_c, 0, 64, 60
2, 48527, Control_c, 0, 64, 57
2, 48547, Control_c, 0, 64, 55
2, 48564, Control_c, 0, 64, 51
2, 48584, Control_c, 0, 64, 47
2, 48604, Control_c, 0, 64, 44
2, 48622, Control_c, 0, 64, 39
2, 48642, Control_c, 0, 64, 35
2, 48660, Control_c, 0, 64, 30
2, 48674, Note_on_c, 0, 71, 47
2, 48681, Control_c, 0, 64, 24
2, 48698, Control_c, 0, 64, 11
2, 48717, Control_c, 0, 64, 0
2, 48927, Note_on_c, 0, 72, 58
2, 48946, Note_on_c, 0, 71, 0
2, 49176, Note_on_c, 0, 72, 0
2, 49200, Note_on_c, 0, 66, 47
2, 49483, Note_on_c, 0, 67, 42
2, 49524, Note_on_c, 0, 66, 0
2, 49740, Note_on_c, 0, 72, 59
2, 49790, Note_on_c, 0, 75, 0
2, 50055, Note_on_c, 0, 74, 52
2, 50057, Note_on_c, 0, 72, 0
2, 50088, Note_on_c, 0, 59, 33
2, 50131, Note_on_c, 0, 60, 0
2, 50198, Control_c, 0, 64, 24
2, 50214, Control_c, 0, 64, 36
2, 50235, Control_c, 0, 64, 46
2, 50257, Control_c, 0, 64, 54
2, 50273, Control_c, 0, 64, 59
2, 50292, Control_c, 0, 64, 61
2, 50311, Control_c, 0, 64, 62
2, 50331, Control_c, 0, 64, 63
2, 50351, Note_on_c, 0, 65, 43
2, 50356, Control_c, 0, 64, 64
2, 50369, Control_c, 0, 64, 67
2, 50374, Note_on_c, 0, 67, 0
2, 50378, Note_on_c, 0, 59, 0
2, 50387, Control_c, 0, 64, 70
2, 50407, Control_c, 0, 64, 77
2, 50427, Control_c, 0, 64, 82
2, 50445, Control_c, 0, 64, 88
2, 50464, Control_c, 0, 64, 94
2, 50484, Control_c, 0, 64, 102
2, 50505, Control_c, 0, 64, 112
2, 50523, Control_c, 0, 64, 127
2, 50619, Control_c, 0, 64, 118
2, 50638, Control_c, 0, 64, 111
2, 50657, Control_c, 0, 64, 106
2, 50676, Control_c, 0, 64, 101
2, 50691, Note_on_c, 0, 74, 0
2, 50695, Control_c, 0, 64, 96
2, 50718, Control_c, 0, 64, 91
2, 50729, Note_on_c, 0, 72, 52
2, 50733, Control_c, 0, 64, 87
2, 50752, Control_c, 0, 64, 83
2, 50761, Note_on_c, 0, 60, 35
2, 50772, Control_c, 0, 64, 79
2, 50777, Note_on_c, 0, 48, 35
2, 50792, Control_c, 0, 64, 76
2, 50812, Control_c, 0, 64, 73
2, 50829, Control_c, 0, 64, 69
2, 50849, Control_c, 0, 64, 67
2, 50858, Note_on_c, 0, 65, 0
2, 50870, Control_c, 0, 64, 65
2, 50872, Note_on_c, 0, 55, 0
2, 50887, Control_c, 0, 64, 64
2, 50906, Control_c, 0, 64, 63
2, 50925, Control_c, 0, 64, 62
2, 50947, Control_c, 0, 64, 61
2, 50966, Control_c, 0, 64, 60
2, 50987, Control_c, 0, 64, 59
2, 51004, Control_c, 0, 64, 58
2, 51022, Control_c, 0, 64, 57
2, 51060, Control_c, 0, 64, 56
2, 51080, Control_c, 0, 64, 55
2, 51117, Control_c, 0, 64, 54
2, 51124, Note_on_c, 0, 65, 34
2, 51137, Control_c, 0, 64, 53
2, 51156, Control_c, 0, 64, 52
2, 51175, Control_c, 0, 64, 51
2, 51214, Control_c, 0, 64, 50
2, 51234, Control_c, 0, 64, 48
2, 51252, Control_c, 0, 64, 47
2, 51271, Control_c, 0, 64, 46
2, 51290, Control_c, 0, 64, 44
2, 51310, Control_c, 0, 64, 43
2, 51330, Control_c, 0, 64, 41
2, 51348, Control_c, 0, 64, 39
2, 51367, Control_c, 0, 64, 35
2, 51387, Control_c, 0, 64, 29
2, 51392, Note_on_c, 0, 65, 0
2, 51399, Note_on_c, 0, 64, 41
2, 51405, Control_c, 0, 64, 18
2, 51409, Note_on_c, 0, 55, 35
2, 51425, Control_c, 0, 64, 0
2, 51521, Note_on_c, 0, 60, 0
2, 51628, Note_on_c, 0, 64, 0
2, 51635, Note_on_c, 0, 67, 44
2, 51922, Note_on_c, 0, 60, 41
2, 51981, Note_on_c, 0, 67, 0
2, 52195, Note_on_c, 0, 53, 34
2, 52258, Note_on_c, 0, 55, 0
2, 52424, Control_c, 0, 64, 9
2, 52443, Control_c, 0, 64, 13
2, 52463, Control_c, 0, 64, 17
2, 52468, Note_on_c, 0, 52, 36
2, 52468, Note_on_c, 0, 53, 0
2, 52480, Control_c, 0, 64, 25
2, 52500, Control_c, 0, 64, 34
2, 52522, Control_c, 0, 64, 42
2, 52542, Control_c, 0, 64, 50
2, 52560, Control_c, 0, 64, 57
2, 52576, Control_c, 0, 64, 60
2, 52596, Control_c, 0, 64, 62
2, 52617, Control_c, 0, 64, 63
2, 52635, Control_c, 0, 64, 65
2, 52653, Note_on_c, 0, 60, 0
2, 52657, Control_c, 0, 64, 67
2, 52673, Control_c, 0, 64, 69
2, 52696, Control_c, 0, 64, 73
2, 52711, Control_c, 0, 64, 79
2, 52735, Control_c, 0, 64, 85
2, 52751, Control_c, 0, 64, 93
2, 52764, Note_on_c, 0, 52, 0
2, 52769, Control_c, 0, 64, 102
2, 52789, Control_c, 0, 64, 113
2, 52799, Note_on_c, 0, 48, 0
2, 52799, Note_on_c, 0, 55, 39
2, 52809, Control_c, 0, 64, 127
2, 53075, Control_c, 0, 64, 111
2, 53097, Control_c, 0, 64, 104
2, 53114, Control_c, 0, 64, 101
2, 53133, Control_c, 0, 64, 98
2, 53156, Control_c, 0, 64, 96
2, 53175, Control_c, 0, 64, 94
2, 53191, Control_c, 0, 64, 91
2, 53212, Control_c, 0, 64, 88
2, 53230, Control_c, 0, 64, 85
2, 53249, Control_c, 0, 64, 81
2, 53265, Note_on_c, 0, 45, 31
2, 53269, Control_c, 0, 64, 78
2, 53289, Control_c, 0, 64, 75
2, 53289, Note_on_c, 0, 65, 35
2, 53307, Control_c, 0, 64, 73
2, 53327, Control_c, 0, 64, 71
2, 53345, Control_c, 0, 64, 69
2, 53364, Control_c, 0, 64, 68
2, 53384, Control_c, 0, 64, 66
2, 53399, Note_on_c, 0, 72, 0
2, 53403, Control_c, 0, 64, 65
2, 53419, Note_on_c, 0, 55, 0
2, 53422, Control_c, 0, 64, 64
2, 53442, Control_c, 0, 64, 62
2, 53459, Control_c, 0, 64, 60
2, 53480, Control_c, 0, 64, 58
2, 53499, Control_c, 0, 64, 53
2, 53517, Control_c, 0, 64, 47
2, 53537, Control_c, 0, 64, 40
2, 53555, Control_c, 0, 64, 35
2, 53576, Control_c, 0, 64, 31
2, 53595, Control_c, 0, 64, 28
2, 53615, Control_c, 0, 64, 25
2, 53692, Note_on_c, 0, 69, 36
2, 53845, Control_c, 0, 64, 26
2, 53863, Control_c, 0, 64, 28
2, 53882, Control_c, 0, 64, 31
2, 53900, Control_c, 0, 64, 36
2, 53920, Control_c, 0, 64, 41
2, 53939, Control_c, 0, 64, 47
2, 53959, Control_c, 0, 64, 53
2, 53966, Note_on_c, 0, 72, 51
2, 53968, Note_on_c, 0, 69, 0
2, 53979, Control_c, 0, 64, 58
2, 53993, Note_on_c, 0, 53, 28
2, 53997, Control_c, 0, 64, 60
2, 54018, Control_c, 0, 64, 61
2, 54039, Control_c, 0, 64, 62
2, 54056, Control_c, 0, 64, 64
2, 54074, Control_c, 0, 64, 65
2, 54093, Control_c, 0, 64, 67
2, 54116, Control_c, 0, 64, 69
2, 54132, Control_c, 0, 64, 73
2, 54152, Control_c, 0, 64, 77
2, 54170, Control_c, 0, 64, 82
2, 54190, Control_c, 0, 64, 88
2, 54204, Note_on_c, 0, 65, 0
2, 54212, Control_c, 0, 64, 93
2, 54212, Note_on_c, 0, 75, 61
2, 54228, Control_c, 0, 64, 99
2, 54247, Note_on_c, 0, 72, 0
2, 54251, Control_c, 0, 64, 106
2, 54268, Control_c, 0, 64, 109
2, 54343, Control_c, 0, 64, 107
2, 54362, Control_c, 0, 64, 106
2, 54380, Control_c, 0, 64, 103
2, 54400, Control_c, 0, 64, 100
2, 54419, Control_c, 0, 64, 96
2, 54440, Control_c, 0, 64, 93
2, 54459, Control_c, 0, 64, 90
2, 54477, Note_on_c, 0, 69, 58
2, 54482, Control_c, 0, 64, 87
2, 54502, Control_c, 0, 64, 85
2, 54502, Note_on_c, 0, 41, 37
2, 54516, Control_c, 0, 64, 82
2, 54529, Note_on_c, 0, 45, 0
2, 54536, Control_c, 0, 64, 77
2, 54554, Control_c, 0, 64, 73
2, 54563, Note_on_c, 0, 75, 0
2, 54575, Control_c, 0, 64, 70
2, 54591, Control_c, 0, 64, 67
2, 54612, Control_c, 0, 64, 65
2, 54631, Control_c, 0, 64, 64
2, 54647, Note_on_c, 0, 53, 0
2, 54651, Control_c, 0, 64, 63
2, 54709, Control_c, 0, 64, 62
2, 54735, Note_on_c, 0, 78, 67
2, 54747, Control_c, 0, 64, 61
2, 54767, Control_c, 0, 64, 60
2, 54785, Control_c, 0, 64, 56
2, 54805, Control_c, 0, 64, 50
2, 54822, Control_c, 0, 64, 38
2, 54843, Control_c, 0, 64, 22
2, 54863, Control_c, 0, 64, 0
2, 54939, Control_c, 0, 64, 14
2, 54957, Control_c, 0, 64, 27
2, 54979, Control_c, 0, 64, 38
2, 54979, Note_on_c, 0, 72, 60
2, 54984, Note_on_c, 0, 78, 0
2, 54999, Control_c, 0, 64, 48
2, 55010, Note_on_c, 0, 53, 29
2, 55014, Control_c, 0, 64, 56
2, 55034, Control_c, 0, 64, 59
2, 55055, Control_c, 0, 64, 61
2, 55077, Control_c, 0, 64, 62
2, 55091, Control_c, 0, 64, 64
2, 55097, Note_on_c, 0, 41, 0
2, 55112, Control_c, 0, 64, 66
2, 55130, Control_c, 0, 64, 69
2, 55150, Control_c, 0, 64, 73
2, 55169, Control_c, 0, 64, 76
2, 55188, Control_c, 0, 64, 79
2, 55209, Control_c, 0, 64, 81
2, 55216, Note_on_c, 0, 72, 0
2, 55231, Note_on_c, 0, 75, 60
2, 55247, Control_c, 0, 64, 82
2, 55342, Control_c, 0, 64, 81
2, 55363, Control_c, 0, 64, 80
2, 55400, Control_c, 0, 64, 78
2, 55418, Control_c, 0, 64, 77
2, 55439, Control_c, 0, 64, 76
2, 55456, Control_c, 0, 64, 75
2, 55477, Control_c, 0, 64, 74
2, 55498, Note_on_c, 0, 46, 39
2, 55515, Control_c, 0, 64, 73
2, 55528, Note_on_c, 0, 75, 0
2, 55533, Control_c, 0, 64, 71
2, 55553, Control_c, 0, 64, 70
2, 55565, Note_on_c, 0, 73, 58
2, 55572, Control_c, 0, 64, 68
2, 55594, Control_c, 0, 64, 67
2, 55610, Control_c, 0, 64, 66
2, 55630, Control_c, 0, 64, 65
2, 55630, Note_on_c, 0, 53, 0
2, 55649, Control_c, 0, 64, 64
2, 55667, Note_on_c, 0, 69, 0
2, 55671, Control_c, 0, 64, 63
2, 55687, Control_c, 0, 64, 62
2, 55706, Control_c, 0, 64, 61
2, 55744, Control_c, 0, 64, 60
2, 55764, Control_c, 0, 64, 59
2, 55783, Control_c, 0, 64, 58
2, 55815, Note_on_c, 0, 49, 51
2, 55822, Control_c, 0, 64, 57
2, 55843, Control_c, 0, 64, 56
2, 55881, Control_c, 0, 64, 55
2, 55898, Control_c, 0, 64, 54
2, 55917, Control_c, 0, 64, 53
2, 55937, Control_c, 0, 64, 52
2, 55957, Control_c, 0, 64, 49
2, 55976, Control_c, 0, 64, 45
2, 55994, Control_c, 0, 64, 38
2, 56014, Control_c, 0, 64, 27
2, 56034, Control_c, 0, 64, 11
2, 56052, Control_c, 0, 64, 0
2, 56056, Note_on_c, 0, 70, 66
2, 56071, Note_on_c, 0, 53, 50
2, 56129, Note_on_c, 0, 49, 0
2, 56149, Control_c, 0, 64, 18
2, 56168, Control_c, 0, 64, 28
2, 56187, Control_c, 0, 64, 38
2, 56206, Control_c, 0, 64, 45
2, 56225, Control_c, 0, 64, 51
2, 56247, Control_c, 0, 64, 56
2, 56262, Control_c, 0, 64, 58
2, 56283, Control_c, 0, 64, 59
2, 56302, Control_c, 0, 64, 60
2, 56319, Note_on_c, 0, 58, 56
2, 56321, Control_c, 0, 64, 61
2, 56339, Control_c, 0, 64, 62
2, 56360, Control_c, 0, 64, 63
2, 56381, Control_c, 0, 64, 65
2, 56401, Control_c, 0, 64, 66
2, 56416, Control_c, 0, 64, 67
2, 56436, Control_c, 0, 64, 69
2, 56456, Control_c, 0, 64, 70
2, 56475, Control_c, 0, 64, 72
2, 56553, Control_c, 0, 64, 71
2, 56586, Note_on_c, 0, 64, 58
2, 56596, Note_on_c, 0, 48, 58
2, 56610, Control_c, 0, 64, 70
2, 56648, Control_c, 0, 64, 69
2, 56667, Control_c, 0, 64, 68
2, 56686, Control_c, 0, 64, 67
2, 56686, Note_on_c, 0, 58, 0
2, 56704, Control_c, 0, 64, 66
2, 56728, Control_c, 0, 64, 65
2, 56728, Note_on_c, 0, 46, 0
2, 56743, Control_c, 0, 64, 64
2, 56761, Control_c, 0, 64, 63
2, 56801, Control_c, 0, 64, 62
2, 56824, Note_on_c, 0, 53, 0
2, 56841, Control_c, 0, 64, 61
2, 56841, Note_on_c, 0, 58, 57
2, 56877, Control_c, 0, 64, 59
2, 56955, Control_c, 0, 64, 58
2, 56973, Control_c, 0, 64, 57
2, 56993, Control_c, 0, 64, 55
2, 57011, Control_c, 0, 64, 48
2, 57031, Control_c, 0, 64, 37
2, 57051, Control_c, 0, 64, 19
2, 57070, Control_c, 0, 64, 0
2, 57079, Note_on_c, 0, 58, 0
2, 57086, Note_on_c, 0, 72, 69
2, 57104, Note_on_c, 0, 56, 48
2, 57108, Note_on_c, 0, 70, 0
2, 57131, Note_on_c, 0, 73, 0
2, 57168, Control_c, 0, 64, 19
2, 57186, Control_c, 0, 64, 32
2, 57204, Control_c, 0, 64, 44
2, 57224, Control_c, 0, 64, 53
2, 57242, Control_c, 0, 64, 59
2, 57262, Control_c, 0, 64, 62
2, 57280, Control_c, 0, 64, 63
2, 57300, Control_c, 0, 64, 64
2, 57320, Control_c, 0, 64, 65
2, 57328, Note_on_c, 0, 60, 54
2, 57332, Note_on_c, 0, 48, 0
2, 57339, Control_c, 0, 64, 67
2, 57357, Control_c, 0, 64, 69
2, 57376, Control_c, 0, 64, 72
2, 57395, Control_c, 0, 64, 75
2, 57415, Control_c, 0, 64, 76
2, 57433, Control_c, 0, 64, 77
2, 57453, Control_c, 0, 64, 78
2, 57511, Control_c, 0, 64, 77
2, 57552, Control_c, 0, 64, 76
2, 57569, Control_c, 0, 64, 75
2, 57601, Note_on_c, 0, 53, 43
2, 57601, Note_on_c, 0, 65, 48
2, 57610, Control_c, 0, 64, 74
2, 57610, Note_on_c, 0, 64, 0
2, 57628, Control_c, 0, 64, 72
2, 57632, Note_on_c, 0, 50, 45
2, 57644, Note_on_c, 0, 56, 0
2, 57647, Control_c, 0, 64, 71
2, 57664, Control_c, 0, 64, 70
2, 57684, Control_c, 0, 64, 69
2, 57703, Control_c, 0, 64, 67
2, 57722, Control_c, 0, 64, 66
2, 57741, Control_c, 0, 64, 65
2, 57762, Control_c, 0, 64, 64
2, 57770, Note_on_c, 0, 60, 0
2, 57780, Control_c, 0, 64, 63
2, 57838, Control_c, 0, 64, 62
2, 57850, Note_on_c, 0, 70, 66
2, 57876, Control_c, 0, 64, 61
2, 57895, Control_c, 0, 64, 60
2, 57904, Note_on_c, 0, 72, 0
2, 57953, Control_c, 0, 64, 59
2, 57991, Control_c, 0, 64, 58
2, 58029, Control_c, 0, 64, 57
2, 58050, Control_c, 0, 64, 56
2, 58069, Control_c, 0, 64, 55
2, 58087, Control_c, 0, 64, 54
2, 58096, Note_on_c, 0, 50, 0
2, 58106, Control_c, 0, 64, 52
2, 58115, Note_on_c, 0, 67, 60
2, 58119, Note_on_c, 0, 52, 48
2, 58119, Note_on_c, 0, 65, 0
2, 58126, Note_on_c, 0, 55, 45
2, 58128, Control_c, 0, 64, 50
2, 58145, Control_c, 0, 64, 47
2, 58163, Control_c, 0, 64, 44
2, 58172, Note_on_c, 0, 53, 0
2, 58185, Control_c, 0, 64, 42
2, 58198, Note_on_c, 0, 70, 0
2, 58202, Control_c, 0, 64, 39
2, 58222, Control_c, 0, 64, 38
2, 58241, Control_c, 0, 64, 36
2, 58259, Control_c, 0, 64, 34
2, 58279, Control_c, 0, 64, 33
2, 58300, Control_c, 0, 64, 32
2, 58381, Note_on_c, 0, 64, 58
2, 58432, Note_on_c, 0, 67, 0
2, 58655, Note_on_c, 0, 60, 46
2, 58670, Note_on_c, 0, 56, 22
2, 58688, Note_on_c, 0, 53, 31
2, 58707, Note_on_c, 0, 55, 0
2, 58707, Note_on_c, 0, 64, 0
2, 58784, Note_on_c, 0, 52, 0
2, 58913, Note_on_c, 0, 60, 0
2, 58924, Note_on_c, 0, 64, 50
2, 59087, Control_c, 0, 64, 33
2, 59123, Control_c, 0, 64, 34
2, 59143, Control_c, 0, 64, 35
2, 59162, Control_c, 0, 64, 36
2, 59183, Control_c, 0, 64, 38
2, 59192, Note_on_c, 0, 64, 0
2, 59201, Control_c, 0, 64, 41
2, 59213, Note_on_c, 0, 65, 38
2, 59221, Control_c, 0, 64, 46
2, 59238, Control_c, 0, 64, 51
2, 59258, Control_c, 0, 64, 55
2, 59280, Control_c, 0, 64, 57
2, 59298, Control_c, 0, 64, 58
2, 59317, Control_c, 0, 64, 59
2, 59336, Control_c, 0, 64, 61
2, 59356, Control_c, 0, 64, 62
2, 59391, Control_c, 0, 64, 63
2, 59451, Control_c, 0, 64, 64
2, 59469, Control_c, 0, 64, 65
2, 59488, Control_c, 0, 64, 67
2, 59491, Note_on_c, 0, 71, 49
2, 59511, Control_c, 0, 64, 69
2, 59528, Control_c, 0, 64, 71
2, 59545, Control_c, 0, 64, 73
2, 59565, Control_c, 0, 64, 75
2, 59580, Note_on_c, 0, 56, 0
2, 59585, Control_c, 0, 64, 77
2, 59604, Control_c, 0, 64, 78
2, 59623, Control_c, 0, 64, 80
2, 59645, Control_c, 0, 64, 82
2, 59663, Control_c, 0, 64, 85
2, 59680, Control_c, 0, 64, 86
2, 59797, Control_c, 0, 64, 85
2, 59817, Control_c, 0, 64, 84
2, 59855, Control_c, 0, 64, 83
2, 59874, Control_c, 0, 64, 82
2, 59892, Control_c, 0, 64, 81
2, 59912, Control_c, 0, 64, 80
2, 59932, Control_c, 0, 64, 78
2, 59933, Note_on_c, 0, 72, 46
2, 59935, Note_on_c, 0, 55, 31
2, 59953, Control_c, 0, 64, 77
2, 59953, Note_on_c, 0, 48, 24
2, 59969, Control_c, 0, 64, 76
2, 59978, Note_on_c, 0, 71, 0
2, 59990, Control_c, 0, 64, 74
2, 60008, Control_c, 0, 64, 73
2, 60026, Control_c, 0, 64, 71
2, 60033, Note_on_c, 0, 53, 0
2, 60042, Note_on_c, 0, 65, 0
2, 60047, Control_c, 0, 64, 69
2, 60064, Control_c, 0, 64, 68
2, 60086, Control_c, 0, 64, 66
2, 60121, Control_c, 0, 64, 65
2, 60162, Control_c, 0, 64, 64
2, 60180, Control_c, 0, 64, 63
2, 60218, Control_c, 0, 64, 62
2, 60258, Control_c, 0, 64, 61
2, 60258, Note_on_c, 0, 65, 34
2, 60294, Control_c, 0, 64, 60
2, 60315, Control_c, 0, 64, 59
2, 60354, Control_c, 0, 64, 58
2, 60372, Control_c, 0, 64, 57
2, 60409, Control_c, 0, 64, 56
2, 60449, Control_c, 0, 64, 55
2, 60467, Control_c, 0, 64, 54
2, 60486, Control_c, 0, 64, 53
2, 60506, Control_c, 0, 64, 51
2, 60523, Note_on_c, 0, 64, 48
2, 60528, Control_c, 0, 64, 50
2, 60532, Note_on_c, 0, 65, 0
2, 60545, Control_c, 0, 64, 48
2, 60565, Control_c, 0, 64, 45
2, 60583, Control_c, 0, 64, 43
2, 60603, Control_c, 0, 64, 41
2, 60622, Control_c, 0, 64, 39
2, 60641, Control_c, 0, 64, 36
2, 60661, Control_c, 0, 64, 33
2, 60682, Control_c, 0, 64, 30
2, 60698, Control_c, 0, 64, 28
2, 60717, Control_c, 0, 64, 27
2, 60736, Control_c, 0, 64, 25
2, 60773, Control_c, 0, 64, 24
2, 60784, Note_on_c, 0, 67, 50
2, 60816, Control_c, 0, 64, 23
2, 60839, Note_on_c, 0, 72, 0
2, 61035, Note_on_c, 0, 70, 56
2, 61083, Note_on_c, 0, 67, 0
2, 61275, Note_on_c, 0, 73, 68
2, 61315, Note_on_c, 0, 70, 0
2, 61448, Control_c, 0, 64, 24
2, 61530, Note_on_c, 0, 72, 72
2, 61545, Control_c, 0, 64, 25
2, 61651, Note_on_c, 0, 73, 0
2, 61782, Note_on_c, 0, 70, 69
2, 61790, Note_on_c, 0, 49, 50
2, 61830, Note_on_c, 0, 72, 0
2, 61858, Note_on_c, 0, 48, 0
2, 62003, Control_c, 0, 64, 24
2, 62023, Control_c, 0, 64, 23
2, 62042, Control_c, 0, 64, 20
2, 62054, Note_on_c, 0, 64, 0
2, 62054, Note_on_c, 0, 69, 64
2, 62065, Control_c, 0, 64, 15
2, 62065, Note_on_c, 0, 53, 52
2, 62071, Note_on_c, 0, 51, 53
2, 62081, Control_c, 0, 64, 0
2, 62092, Note_on_c, 0, 55, 0
2, 62102, Note_on_c, 0, 49, 0
2, 62113, Note_on_c, 0, 70, 0
2, 62256, Control_c, 0, 64, 31
2, 62274, Control_c, 0, 64, 45
2, 62293, Control_c, 0, 64, 54
2, 62302, Note_on_c, 0, 65, 68
2, 62311, Control_c, 0, 64, 60
2, 62331, Control_c, 0, 64, 62
2, 62350, Control_c, 0, 64, 63
2, 62361, Note_on_c, 0, 69, 0
2, 62370, Control_c, 0, 64, 65
2, 62376, Note_on_c, 0, 53, 0
2, 62391, Control_c, 0, 64, 66
2, 62409, Control_c, 0, 64, 68
2, 62429, Control_c, 0, 64, 71
2, 62448, Control_c, 0, 64, 73
2, 62466, Control_c, 0, 64, 76
2, 62504, Control_c, 0, 64, 75
2, 62542, Control_c, 0, 64, 74
2, 62562, Control_c, 0, 64, 73
2, 62568, Note_on_c, 0, 63, 67
2, 62572, Note_on_c, 0, 69, 63
2, 62580, Control_c, 0, 64, 72
2, 62598, Control_c, 0, 64, 70
2, 62617, Control_c, 0, 64, 68
2, 62637, Control_c, 0, 64, 66
2, 62653, Note_on_c, 0, 51, 0
2, 62657, Control_c, 0, 64, 64
2, 62662, Note_on_c, 0, 65, 0
2, 62676, Control_c, 0, 64, 63
2, 62695, Control_c, 0, 64, 62
2, 62733, Control_c, 0, 64, 61
2, 62752, Control_c, 0, 64, 60
2, 62772, Control_c, 0, 64, 59
2, 62794, Control_c, 0, 64, 58
2, 62812, Control_c, 0, 64, 57
2, 62820, Note_on_c, 0, 72, 78
2, 62831, Control_c, 0, 64, 56
2, 62886, Control_c, 0, 64, 55
2, 62906, Control_c, 0, 64, 54
2, 62911, Note_on_c, 0, 69, 0
2, 62928, Control_c, 0, 64, 53
2, 62963, Control_c, 0, 64, 52
2, 63003, Control_c, 0, 64, 51
2, 63023, Control_c, 0, 64, 50
2, 63040, Control_c, 0, 64, 49
2, 63079, Control_c, 0, 64, 48
2, 63084, Note_on_c, 0, 77, 75
2, 63101, Control_c, 0, 64, 47
2, 63109, Note_on_c, 0, 61, 58
2, 63145, Note_on_c, 0, 72, 0
2, 63156, Control_c, 0, 64, 46
2, 63211, Note_on_c, 0, 63, 0
2, 63214, Control_c, 0, 64, 45
2, 63251, Control_c, 0, 64, 44
2, 63270, Control_c, 0, 64, 43
2, 63293, Control_c, 0, 64, 42
2, 63310, Control_c, 0, 64, 41
2, 63328, Control_c, 0, 64, 39
2, 63346, Note_on_c, 0, 70, 74
2, 63349, Control_c, 0, 64, 37
2, 63367, Control_c, 0, 64, 35
2, 63387, Control_c, 0, 64, 33
2, 63404, Control_c, 0, 64, 30
2, 63427, Control_c, 0, 64, 28
2, 63443, Control_c, 0, 64, 26
2, 63465, Control_c, 0, 64, 24
2, 63483, Control_c, 0, 64, 22
2, 63608, Note_on_c, 0, 69, 66
2, 63617, Note_on_c, 0, 60, 61
2, 63636, Control_c, 0, 64, 25
2, 63642, Note_on_c, 0, 61, 0
2, 63646, Note_on_c, 0, 70, 0
2, 63656, Control_c, 0, 64, 28
2, 63674, Control_c, 0, 64, 33
2, 63694, Control_c, 0, 64, 39
2, 63713, Control_c, 0, 64, 45
2, 63731, Control_c, 0, 64, 51
2, 63753, Control_c, 0, 64, 55
2, 63771, Control_c, 0, 64, 58
2, 63790, Control_c, 0, 64, 60
2, 63808, Control_c, 0, 64, 61
2, 63827, Control_c, 0, 64, 62
2, 63846, Control_c, 0, 64, 64
2, 63870, Control_c, 0, 64, 66
2, 63870, Note_on_c, 0, 75, 77
2, 63888, Control_c, 0, 64, 68
2, 63908, Control_c, 0, 64, 71
2, 63908, Note_on_c, 0, 60, 0
2, 63922, Control_c, 0, 64, 75
2, 63932, Note_on_c, 0, 77, 0
2, 63942, Control_c, 0, 64, 81
2, 63965, Control_c, 0, 64, 90
2, 63981, Control_c, 0, 64, 100
2, 64001, Control_c, 0, 64, 115
2, 64023, Control_c, 0, 64, 127
2, 64111, Note_on_c, 0, 69, 0
2, 64174, Control_c, 0, 64, 120
2, 64194, Control_c, 0, 64, 107
2, 64200, Note_on_c, 0, 73, 80
2, 64204, Note_on_c, 0, 58, 60
2, 64211, Control_c, 0, 64, 100
2, 64232, Control_c, 0, 64, 94
2, 64252, Control_c, 0, 64, 88
2, 64257, Note_on_c, 0, 75, 0
2, 64269, Control_c, 0, 64, 83
2, 64289, Control_c, 0, 64, 78
2, 64308, Control_c, 0, 64, 73
2, 64327, Control_c, 0, 64, 70
2, 64346, Control_c, 0, 64, 68
2, 64364, Control_c, 0, 64, 67
2, 64385, Control_c, 0, 64, 66
2, 64404, Control_c, 0, 64, 65
2, 64423, Control_c, 0, 64, 64
2, 64443, Control_c, 0, 64, 63
2, 64461, Control_c, 0, 64, 62
2, 64499, Control_c, 0, 64, 61
2, 64524, Note_on_c, 0, 53, 59
2, 64539, Control_c, 0, 64, 60
2, 64546, Note_on_c, 0, 68, 70
2, 64557, Control_c, 0, 64, 59
2, 64579, Control_c, 0, 64, 58
2, 64596, Control_c, 0, 64, 56
2, 64617, Control_c, 0, 64, 54
2, 64633, Control_c, 0, 64, 53
2, 64654, Control_c, 0, 64, 52
2, 64672, Control_c, 0, 64, 49
2, 64692, Control_c, 0, 64, 46
2, 64709, Control_c, 0, 64, 42
2, 64729, Control_c, 0, 64, 37
2, 64751, Control_c, 0, 64, 30
2, 64771, Control_c, 0, 64, 23
2, 64788, Control_c, 0, 64, 22
2, 64818, Note_on_c, 0, 67, 68
2, 64830, Note_on_c, 0, 49, 56
2, 64849, Control_c, 0, 64, 26
2, 64849, Note_on_c, 0, 68, 0
2, 64865, Control_c, 0, 64, 32
2, 64884, Control_c, 0, 64, 38
2, 64890, Note_on_c, 0, 53, 0
2, 64907, Control_c, 0, 64, 46
2, 64923, Control_c, 0, 64, 54
2, 64942, Control_c, 0, 64, 59
2, 64960, Control_c, 0, 64, 62
2, 64984, Control_c, 0, 64, 63
2, 64999, Control_c, 0, 64, 64
2, 65017, Control_c, 0, 64, 65
2, 65038, Control_c, 0, 64, 66
2, 65060, Control_c, 0, 64, 69
2, 65060, Note_on_c, 0, 46, 60
2, 65064, Note_on_c, 0, 70, 71
2, 65077, Control_c, 0, 64, 72
2, 65094, Control_c, 0, 64, 75
2, 65099, Note_on_c, 0, 67, 0
2, 65115, Control_c, 0, 64, 78
2, 65131, Note_on_c, 0, 58, 0
2, 65135, Control_c, 0, 64, 80
2, 65151, Control_c, 0, 64, 81
2, 65248, Control_c, 0, 64, 80
2, 65268, Control_c, 0, 64, 79
2, 65287, Control_c, 0, 64, 78
2, 65293, Note_on_c, 0, 49, 0
2, 65307, Control_c, 0, 64, 77
2, 65322, Note_on_c, 0, 64, 66
2, 65330, Note_on_c, 0, 55, 59
2, 65345, Control_c, 0, 64, 76
2, 65367, Control_c, 0, 64, 75
2, 65383, Control_c, 0, 64, 74
2, 65402, Control_c, 0, 64, 73
2, 65420, Control_c, 0, 64, 71
2, 65439, Control_c, 0, 64, 69
2, 65460, Control_c, 0, 64, 67
2, 65482, Control_c, 0, 64, 66
2, 65497, Control_c, 0, 64, 64
2, 65517, Control_c, 0, 64, 63
2, 65556, Control_c, 0, 64, 62
2, 65565, Note_on_c, 0, 72, 73
2, 65581, Note_on_c, 0, 48, 61
2, 65590, Note_on_c, 0, 46, 0
2, 65594, Control_c, 0, 64, 61
2, 65616, Note_on_c, 0, 73, 0
2, 65620, Control_c, 0, 64, 60
2, 65620, Note_on_c, 0, 70, 0
2, 65652, Control_c, 0, 64, 59
2, 65690, Control_c, 0, 64, 58
2, 65730, Control_c, 0, 64, 57
2, 65767, Control_c, 0, 64, 56
2, 65786, Control_c, 0, 64, 55
2, 65805, Control_c, 0, 64, 54
2, 65829, Control_c, 0, 64, 53
2, 65829, Note_on_c, 0, 49, 58
2, 65838, Note_on_c, 0, 65, 72
2, 65843, Note_on_c, 0, 48, 0
2, 65863, Control_c, 0, 64, 52
2, 65883, Note_on_c, 0, 64, 0
2, 65887, Control_c, 0, 64, 51
2, 65901, Control_c, 0, 64, 50
2, 65921, Control_c, 0, 64, 49
2, 65939, Control_c, 0, 64, 48
2, 65999, Control_c, 0, 64, 47
2, 66034, Control_c, 0, 64, 46
2, 66056, Control_c, 0, 64, 45
2, 66077, Note_on_c, 0, 70, 78
2, 66081, Note_on_c, 0, 46, 55
2, 66131, Note_on_c, 0, 72, 0
2, 66135, Control_c, 0, 64, 44
2, 66170, Control_c, 0, 64, 43
2, 66228, Control_c, 0, 64, 42
2, 66266, Control_c, 0, 64, 41
2, 66291, Note_on_c, 0, 49, 0
2, 66304, Control_c, 0, 64, 40
2, 66345, Control_c, 0, 64, 39
2, 66346, Note_on_c, 0, 48, 61
2, 66351, Note_on_c, 0, 64, 76
2, 66391, Note_on_c, 0, 46, 0
2, 66458, Note_on_c, 0, 55, 0
2, 66589, Note_on_c, 0, 65, 0
2, 66597, Note_on_c, 0, 73, 82
2, 66616, Note_on_c, 0, 55, 65
2, 66653, Note_on_c, 0, 70, 0
2, 66805, Control_c, 0, 64, 40
2, 66859, Note_on_c, 0, 72, 82
2, 66863, Note_on_c, 0, 56, 74
2, 66918, Note_on_c, 0, 73, 0
2, 67035, Note_on_c, 0, 55, 0
2, 67140, Note_on_c, 0, 65, 74
2, 67146, Note_on_c, 0, 59, 76
2, 67176, Note_on_c, 0, 64, 0
2, 67270, Note_on_c, 0, 56, 0
2, 67515, Control_c, 0, 64, 39
2, 67551, Note_on_c, 0, 68, 83
2, 67556, Note_on_c, 0, 60, 66
2, 67651, Note_on_c, 0, 65, 0
2, 67684, Note_on_c, 0, 72, 0
2, 67730, Note_on_c, 0, 59, 0
2, 67801, Control_c, 0, 64, 38
2, 67902, Note_on_c, 0, 48, 0
2, 67922, Note_on_c, 0, 65, 73
2, 68199, Note_on_c, 0, 48, 75
2, 68207, Control_c, 0, 64, 37
2, 68207, Note_on_c, 0, 64, 74
2, 68244, Control_c, 0, 64, 36
2, 68264, Control_c, 0, 64, 34
2, 68264, Note_on_c, 0, 65, 0
2, 68281, Control_c, 0, 64, 32
2, 68302, Control_c, 0, 64, 29
2, 68320, Control_c, 0, 64, 25
2, 68339, Control_c, 0, 64, 16
2, 68359, Control_c, 0, 64, 0
2, 68492, Note_on_c, 0, 67, 82
2, 68512, Control_c, 0, 64, 15
2, 68531, Control_c, 0, 64, 36
2, 68551, Control_c, 0, 64, 51
2, 68569, Control_c, 0, 64, 61
2, 68590, Control_c, 0, 64, 64
2, 68609, Control_c, 0, 64, 67
2, 68630, Control_c, 0, 64, 71
2, 68635, Note_on_c, 0, 64, 0
2, 68647, Control_c, 0, 64, 78
2, 68669, Control_c, 0, 64, 88
2, 68686, Control_c, 0, 64, 103
2, 68704, Control_c, 0, 64, 127
2, 68806, Note_on_c, 0, 68, 0
2, 68828, Note_on_c, 0, 67, 0
2, 68855, Note_on_c, 0, 49, 70
2, 68916, Control_c, 0, 64, 113
2, 68934, Control_c, 0, 64, 100
2, 68950, Note_on_c, 0, 65, 76
2, 68955, Control_c, 0, 64, 90
2, 68976, Control_c, 0, 64, 82
2, 68992, Control_c, 0, 64, 75
2, 69009, Note_on_c, 0, 48, 0
2, 69013, Control_c, 0, 64, 71
2, 69030, Control_c, 0, 64, 68
2, 69050, Control_c, 0, 64, 65
2, 69068, Control_c, 0, 64, 64
2, 69089, Control_c, 0, 64, 62
2, 69107, Control_c, 0, 64, 61
2, 69126, Control_c, 0, 64, 60
2, 69144, Control_c, 0, 64, 59
2, 69184, Control_c, 0, 64, 57
2, 69207, Control_c, 0, 64, 56
2, 69225, Control_c, 0, 64, 54
2, 69243, Control_c, 0, 64, 52
2, 69262, Control_c, 0, 64, 49
2, 69280, Control_c, 0, 64, 47
2, 69300, Control_c, 0, 64, 44
2, 69320, Control_c, 0, 64, 42
2, 69329, Note_on_c, 0, 68, 73
2, 69338, Control_c, 0, 64, 39
2, 69356, Control_c, 0, 64, 36
2, 69376, Control_c, 0, 64, 30
2, 69396, Control_c, 0, 64, 20
2, 69415, Control_c, 0, 64, 0
2, 69619, Note_on_c, 0, 72, 73
2, 69625, Control_c, 0, 64, 21
2, 69646, Control_c, 0, 64, 39
2, 69666, Control_c, 0, 64, 51
2, 69684, Control_c, 0, 64, 59
2, 69699, Note_on_c, 0, 68, 0
2, 69704, Control_c, 0, 64, 61
2, 69723, Control_c, 0, 64, 62
2, 69741, Control_c, 0, 64, 64
2, 69761, Control_c, 0, 64, 65
2, 69783, Control_c, 0, 64, 68
2, 69797, Control_c, 0, 64, 73
2, 69819, Control_c, 0, 64, 81
2, 69837, Control_c, 0, 64, 91
2, 69857, Control_c, 0, 64, 101
2, 69866, Note_on_c, 0, 77, 83
2, 69875, Control_c, 0, 64, 112
2, 69895, Control_c, 0, 64, 127
2, 69932, Note_on_c, 0, 65, 0
2, 69943, Note_on_c, 0, 72, 0
2, 70048, Control_c, 0, 64, 118
2, 70071, Control_c, 0, 64, 110
2, 70087, Control_c, 0, 64, 104
2, 70107, Control_c, 0, 64, 99
2, 70126, Control_c, 0, 64, 94
2, 70131, Note_on_c, 0, 67, 76
2, 70145, Control_c, 0, 64, 90
2, 70145, Note_on_c, 0, 58, 70
2, 70164, Control_c, 0, 64, 87
2, 70185, Control_c, 0, 64, 83
2, 70203, Control_c, 0, 64, 80
2, 70222, Control_c, 0, 64, 77
2, 70241, Control_c, 0, 64, 74
2, 70262, Control_c, 0, 64, 72
2, 70262, Note_on_c, 0, 77, 0
2, 70279, Control_c, 0, 64, 70
2, 70301, Control_c, 0, 64, 68
2, 70301, Note_on_c, 0, 60, 0
2, 70317, Control_c, 0, 64, 66
2, 70338, Control_c, 0, 64, 65
2, 70355, Control_c, 0, 64, 64
2, 70386, Note_on_c, 0, 77, 81
2, 70414, Control_c, 0, 64, 63
2, 70435, Control_c, 0, 64, 60
2, 70455, Control_c, 0, 64, 55
2, 70469, Control_c, 0, 64, 48
2, 70489, Control_c, 0, 64, 38
2, 70510, Control_c, 0, 64, 29
2, 70529, Control_c, 0, 64, 21
2, 70547, Control_c, 0, 64, 13
2, 70567, Control_c, 0, 64, 10
2, 70624, Control_c, 0, 64, 16
2, 70646, Control_c, 0, 64, 29
2, 70646, Note_on_c, 0, 76, 80
2, 70663, Control_c, 0, 64, 39
2, 70683, Control_c, 0, 64, 50
2, 70701, Control_c, 0, 64, 57
2, 70723, Control_c, 0, 64, 61
2, 70739, Control_c, 0, 64, 63
2, 70759, Control_c, 0, 64, 65
2, 70778, Note_on_c, 0, 77, 0
2, 70782, Control_c, 0, 64, 69
2, 70800, Control_c, 0, 64, 75
2, 70818, Control_c, 0, 64, 85
2, 70835, Control_c, 0, 64, 102
2, 70856, Control_c, 0, 64, 127
2, 70860, Note_on_c, 0, 49, 0
2, 70893, Note_on_c, 0, 79, 87
2, 70917, Note_on_c, 0, 76, 0
2, 70934, Note_on_c, 0, 58, 0
2, 70992, Note_on_c, 0, 67, 0
2, 71201, Note_on_c, 0, 60, 69
2, 71201, Note_on_c, 0, 68, 76
2, 71216, Note_on_c, 0, 48, 59
2, 71221, Control_c, 0, 64, 108
2, 71240, Control_c, 0, 64, 100
2, 71260, Control_c, 0, 64, 95
2, 71278, Control_c, 0, 64, 92
2, 71299, Control_c, 0, 64, 89
2, 71315, Control_c, 0, 64, 85
2, 71333, Control_c, 0, 64, 82
2, 71352, Control_c, 0, 64, 79
2, 71373, Control_c, 0, 64, 77
2, 71394, Control_c, 0, 64, 75
2, 71412, Control_c, 0, 64, 73
2, 71430, Control_c, 0, 64, 71
2, 71453, Control_c, 0, 64, 70
2, 71453, Note_on_c, 0, 79, 0
2, 71463, Note_on_c, 0, 72, 76
2, 71470, Control_c, 0, 64, 68
2, 71491, Control_c, 0, 64, 66
2, 71509, Control_c, 0, 64, 65
2, 71529, Control_c, 0, 64, 64
2, 71567, Control_c, 0, 64, 63
2, 71607, Control_c, 0, 64, 62
2, 71622, Control_c, 0, 64, 61
2, 71641, Control_c, 0, 64, 60
2, 71664, Control_c, 0, 64, 59
2, 71680, Control_c, 0, 64, 58
2, 71700, Control_c, 0, 64, 57
2, 71718, Control_c, 0, 64, 56
2, 71740, Control_c, 0, 64, 53
2, 71740, Note_on_c, 0, 77, 79
2, 71757, Control_c, 0, 64, 51
2, 71776, Control_c, 0, 64, 48
2, 71796, Control_c, 0, 64, 45
2, 71796, Note_on_c, 0, 72, 0
2, 71816, Control_c, 0, 64, 42
2, 71835, Control_c, 0, 64, 40
2, 71856, Control_c, 0, 64, 39
2, 71873, Control_c, 0, 64, 38
2, 71911, Control_c, 0, 64, 37
2, 71984, Note_on_c, 0, 76, 80
2, 72058, Note_on_c, 0, 77, 0
2, 72300, Note_on_c, 0, 56, 52
2, 72300, Note_on_c, 0, 77, 78
2, 72341, Note_on_c, 0, 76, 0
2, 72547, Note_on_c, 0, 60, 0
2, 72575, Note_on_c, 0, 72, 65
2, 72623, Note_on_c, 0, 68, 0
2, 72833, Note_on_c, 0, 70, 66
2, 72865, Note_on_c, 0, 72, 0
2, 72870, Control_c, 0, 64, 38
2, 73085, Note_on_c, 0, 68, 68
2, 73127, Note_on_c, 0, 70, 0
2, 73383, Note_on_c, 0, 73, 72
2, 73401, Note_on_c, 0, 58, 46
2, 73432, Note_on_c, 0, 77, 0
2, 73516, Note_on_c, 0, 68, 0
2, 73619, Note_on_c, 0, 56, 0
2, 73661, Note_on_c, 0, 68, 68
2, 73921, Note_on_c, 0, 67, 50
2, 73935, Note_on_c, 0, 68, 0
2, 74166, Note_on_c, 0, 70, 56
2, 74185, Note_on_c, 0, 67, 0
2, 74426, Note_on_c, 0, 64, 55
2, 74445, Note_on_c, 0, 55, 44
2, 74521, Note_on_c, 0, 73, 0
2, 74687, Note_on_c, 0, 73, 60
2, 74720, Note_on_c, 0, 70, 0
2, 74901, Note_on_c, 0, 58, 0
2, 74930, Note_on_c, 0, 72, 66
2, 74969, Note_on_c, 0, 73, 0
2, 75004, Control_c, 0, 64, 39
2, 75022, Control_c, 0, 64, 42
2, 75040, Control_c, 0, 64, 48
2, 75059, Control_c, 0, 64, 54
2, 75078, Control_c, 0, 64, 59
2, 75098, Control_c, 0, 64, 62
2, 75115, Control_c, 0, 64, 63
2, 75137, Control_c, 0, 64, 64
2, 75155, Control_c, 0, 64, 65
2, 75177, Control_c, 0, 64, 66
2, 75177, Note_on_c, 0, 72, 0
2, 75182, Note_on_c, 0, 70, 63
2, 75193, Control_c, 0, 64, 69
2, 75214, Control_c, 0, 64, 73
2, 75231, Note_on_c, 0, 64, 0
2, 75235, Control_c, 0, 64, 76
2, 75251, Control_c, 0, 64, 80
2, 75269, Control_c, 0, 64, 82
2, 75290, Control_c, 0, 64, 83
2, 75301, Note_on_c, 0, 70, 0
2, 75386, Control_c, 0, 64, 82
2, 75404, Control_c, 0, 64, 81
2, 75426, Control_c, 0, 64, 80
2, 75443, Control_c, 0, 64, 79
2, 75465, Control_c, 0, 64, 77
2, 75465, Note_on_c, 0, 68, 60
2, 75482, Control_c, 0, 64, 74
2, 75492, Note_on_c, 0, 65, 44
2, 75496, Note_on_c, 0, 56, 40
2, 75500, Control_c, 0, 64, 72
2, 75520, Control_c, 0, 64, 69
2, 75540, Control_c, 0, 64, 66
2, 75558, Control_c, 0, 64, 64
2, 75577, Control_c, 0, 64, 62
2, 75597, Control_c, 0, 64, 61
2, 75618, Control_c, 0, 64, 60
2, 75657, Control_c, 0, 64, 59
2, 75673, Note_on_c, 0, 55, 0
2, 75678, Control_c, 0, 64, 58
2, 75696, Control_c, 0, 64, 57
2, 75709, Note_on_c, 0, 65, 0
2, 75713, Control_c, 0, 64, 56
2, 75732, Control_c, 0, 64, 55
2, 75732, Note_on_c, 0, 63, 53
2, 75769, Control_c, 0, 64, 53
2, 75790, Control_c, 0, 64, 52
2, 75810, Control_c, 0, 64, 51
2, 75828, Control_c, 0, 64, 49
2, 75847, Control_c, 0, 64, 47
2, 75867, Control_c, 0, 64, 45
2, 75887, Control_c, 0, 64, 43
2, 75907, Control_c, 0, 64, 42
2, 75980, Note_on_c, 0, 62, 47
2, 75988, Note_on_c, 0, 63, 0
2, 76237, Note_on_c, 0, 65, 46
2, 76244, Note_on_c, 0, 62, 0
2, 76498, Control_c, 0, 64, 43
2, 76507, Note_on_c, 0, 59, 47
2, 76528, Note_on_c, 0, 53, 35
2, 76594, Note_on_c, 0, 68, 0
2, 76670, Note_on_c, 0, 56, 0
2, 76773, Note_on_c, 0, 65, 0
2, 76773, Note_on_c, 0, 68, 51
2, 76923, Control_c, 0, 64, 44
2, 76979, Control_c, 0, 64, 45
2, 77020, Control_c, 0, 64, 46
2, 77030, Note_on_c, 0, 67, 50
2, 77030, Note_on_c, 0, 68, 0
2, 77058, Control_c, 0, 64, 48
2, 77076, Control_c, 0, 64, 51
2, 77094, Control_c, 0, 64, 54
2, 77115, Control_c, 0, 64, 57
2, 77134, Control_c, 0, 64, 59
2, 77153, Control_c, 0, 64, 60
2, 77172, Control_c, 0, 64, 61
2, 77192, Control_c, 0, 64, 63
2, 77212, Control_c, 0, 64, 64
2, 77229, Control_c, 0, 64, 66
2, 77249, Control_c, 0, 64, 69
2, 77268, Control_c, 0, 64, 72
2, 77273, Note_on_c, 0, 65, 53
2, 77284, Note_on_c, 0, 67, 0
2, 77289, Control_c, 0, 64, 75
2, 77305, Control_c, 0, 64, 78
2, 77327, Control_c, 0, 64, 81
2, 77345, Control_c, 0, 64, 85
2, 77360, Note_on_c, 0, 65, 0
2, 77364, Control_c, 0, 64, 88
2, 77382, Control_c, 0, 64, 89
2, 77421, Control_c, 0, 64, 88
2, 77440, Control_c, 0, 64, 87
2, 77458, Control_c, 0, 64, 86
2, 77482, Control_c, 0, 64, 85
2, 77496, Control_c, 0, 64, 82
2, 77517, Control_c, 0, 64, 79
2, 77537, Control_c, 0, 64, 76
2, 77556, Note_on_c, 0, 59, 0
2, 77556, Note_on_c, 0, 64, 51
2, 77561, Control_c, 0, 64, 73
2, 77565, Note_on_c, 0, 55, 43
2, 77575, Control_c, 0, 64, 70
2, 77595, Control_c, 0, 64, 67
2, 77613, Control_c, 0, 64, 64
2, 77634, Control_c, 0, 64, 62
2, 77636, Note_on_c, 0, 53, 0
2, 77652, Control_c, 0, 64, 61
2, 77670, Control_c, 0, 64, 60
2, 77709, Control_c, 0, 64, 59
2, 77729, Control_c, 0, 64, 58
2, 77747, Control_c, 0, 64, 57
2, 77767, Control_c, 0, 64, 56
2, 77798, Note_on_c, 0, 60, 43
2, 77807, Control_c, 0, 64, 55
2, 77824, Control_c, 0, 64, 53
2, 77842, Control_c, 0, 64, 52
2, 77865, Control_c, 0, 64, 51
2, 77881, Control_c, 0, 64, 50
2, 77902, Control_c, 0, 64, 48
2, 77921, Control_c, 0, 64, 45
2, 77939, Control_c, 0, 64, 40
2, 77958, Control_c, 0, 64, 33
2, 77979, Control_c, 0, 64, 25
2, 78001, Control_c, 0, 64, 18
2, 78017, Control_c, 0, 64, 15
2, 78045, Note_on_c, 0, 60, 0
2, 78066, Note_on_c, 0, 58, 42
2, 78074, Control_c, 0, 64, 21
2, 78091, Control_c, 0, 64, 30
2, 78112, Control_c, 0, 64, 39
2, 78132, Control_c, 0, 64, 47
2, 78151, Control_c, 0, 64, 53
2, 78171, Control_c, 0, 64, 56
2, 78191, Control_c, 0, 64, 58
2, 78209, Control_c, 0, 64, 60
2, 78227, Control_c, 0, 64, 62
2, 78245, Control_c, 0, 64, 64
2, 78265, Control_c, 0, 64, 65
2, 78285, Control_c, 0, 64, 67
2, 78305, Control_c, 0, 64, 68
2, 78322, Control_c, 0, 64, 70
2, 78331, Note_on_c, 0, 58, 0
2, 78331, Note_on_c, 0, 61, 40
2, 78344, Control_c, 0, 64, 71
2, 78353, Note_on_c, 0, 55, 0
2, 78478, Control_c, 0, 64, 70
2, 78516, Control_c, 0, 64, 69
2, 78555, Control_c, 0, 64, 68
2, 78579, Note_on_c, 0, 55, 30
2, 78594, Control_c, 0, 64, 67
2, 78608, Note_on_c, 0, 52, 30
2, 78611, Control_c, 0, 64, 66
2, 78627, Note_on_c, 0, 61, 0
2, 78631, Control_c, 0, 64, 65
2, 78669, Control_c, 0, 64, 64
2, 78688, Control_c, 0, 64, 63
2, 78707, Control_c, 0, 64, 62
2, 78726, Control_c, 0, 64, 61
2, 78745, Control_c, 0, 64, 60
2, 78763, Control_c, 0, 64, 59
2, 78786, Control_c, 0, 64, 58
2, 78804, Control_c, 0, 64, 57
2, 78823, Control_c, 0, 64, 55
2, 78845, Control_c, 0, 64, 53
2, 78845, Note_on_c, 0, 61, 37
2, 78850, Note_on_c, 0, 55, 0
2, 78863, Control_c, 0, 64, 51
2, 78881, Control_c, 0, 64, 48
2, 78902, Control_c, 0, 64, 45
2, 78921, Control_c, 0, 64, 43
2, 78938, Control_c, 0, 64, 40
2, 78957, Control_c, 0, 64, 36
2, 78977, Control_c, 0, 64, 33
2, 78997, Control_c, 0, 64, 29
2, 79017, Control_c, 0, 64, 26
2, 79035, Control_c, 0, 64, 25
2, 79053, Control_c, 0, 64, 24
2, 79153, Note_on_c, 0, 60, 34
2, 79170, Control_c, 0, 64, 25
2, 79170, Note_on_c, 0, 61, 0
2, 79189, Control_c, 0, 64, 26
2, 79207, Control_c, 0, 64, 27
2, 79227, Control_c, 0, 64, 30
2, 79244, Control_c, 0, 64, 33
2, 79264, Control_c, 0, 64, 38
2, 79286, Control_c, 0, 64, 43
2, 79304, Control_c, 0, 64, 48
2, 79322, Control_c, 0, 64, 52
2, 79343, Control_c, 0, 64, 55
2, 79343, Note_on_c, 0, 48, 0
2, 79362, Control_c, 0, 64, 57
2, 79379, Control_c, 0, 64, 59
2, 79397, Control_c, 0, 64, 60
2, 79418, Control_c, 0, 64, 62
2, 79440, Control_c, 0, 64, 63
2, 79440, Note_on_c, 0, 58, 32
2, 79457, Control_c, 0, 64, 64
2, 79467, Note_on_c, 0, 60, 0
2, 79474, Control_c, 0, 64, 65
2, 79496, Control_c, 0, 64, 67
2, 79514, Control_c, 0, 64, 70
2, 79532, Control_c, 0, 64, 73
2, 79551, Control_c, 0, 64, 78
2, 79573, Control_c, 0, 64, 84
2, 79591, Control_c, 0, 64, 90
2, 79611, Control_c, 0, 64, 96
2, 79630, Control_c, 0, 64, 105
2, 79648, Control_c, 0, 64, 120
2, 79657, Note_on_c, 0, 58, 0
2, 79668, Control_c, 0, 64, 127
2, 79725, Note_on_c, 0, 64, 0
2, 79782, Control_c, 0, 64, 120
2, 79791, Note_on_c, 0, 53, 39
2, 79804, Control_c, 0, 64, 112
2, 79804, Note_on_c, 0, 56, 38
2, 79822, Control_c, 0, 64, 106
2, 79843, Control_c, 0, 64, 100
2, 79853, Note_on_c, 0, 48, 17
2, 79859, Control_c, 0, 64, 94
2, 79878, Control_c, 0, 64, 90
2, 79897, Control_c, 0, 64, 86
2, 79916, Control_c, 0, 64, 81
2, 79936, Note_on_c, 0, 52, 0
2, 79940, Control_c, 0, 64, 77
2, 79956, Control_c, 0, 64, 72
2, 79977, Control_c, 0, 64, 69
2, 79993, Control_c, 0, 64, 67
2, 80011, Control_c, 0, 64, 66
2, 80031, Control_c, 0, 64, 65
2, 80051, Control_c, 0, 64, 64
2, 80070, Control_c, 0, 64, 63
2, 80079, Note_on_c, 0, 72, 46
2, 80092, Control_c, 0, 64, 62
2, 80127, Control_c, 0, 64, 61
2, 80166, Control_c, 0, 64, 59
2, 80188, Control_c, 0, 64, 58
2, 80204, Control_c, 0, 64, 55
2, 80224, Control_c, 0, 64, 51
2, 80246, Control_c, 0, 64, 45
2, 80263, Control_c, 0, 64, 39
2, 80281, Control_c, 0, 64, 33
2, 80301, Control_c, 0, 64, 32
2, 80341, Note_on_c, 0, 72, 0
2, 80348, Note_on_c, 0, 70, 47
2, 80359, Control_c, 0, 64, 34
2, 80380, Control_c, 0, 64, 38
2, 80398, Control_c, 0, 64, 45
2, 80417, Control_c, 0, 64, 55
2, 80433, Control_c, 0, 64, 60
2, 80453, Control_c, 0, 64, 63
2, 80472, Control_c, 0, 64, 64
2, 80493, Control_c, 0, 64, 66
2, 80511, Control_c, 0, 64, 68
2, 80532, Control_c, 0, 64, 72
2, 80553, Control_c, 0, 64, 79
2, 80572, Control_c, 0, 64, 87
2, 80583, Note_on_c, 0, 73, 62
2, 80586, Note_on_c, 0, 53, 0
2, 80590, Control_c, 0, 64, 97
2, 80590, Note_on_c, 0, 70, 0
2, 80608, Control_c, 0, 64, 110
2, 80630, Control_c, 0, 64, 127
2, 80639, Note_on_c, 0, 56, 0
2, 80820, Control_c, 0, 64, 120
2, 80837, Control_c, 0, 64, 106
2, 80853, Note_on_c, 0, 64, 56
2, 80857, Control_c, 0, 64, 98
2, 80863, Note_on_c, 0, 58, 48
2, 80876, Control_c, 0, 64, 93
2, 80881, Note_on_c, 0, 55, 50
2, 80896, Control_c, 0, 64, 90
2, 80900, Note_on_c, 0, 73, 0
2, 80916, Control_c, 0, 64, 87
2, 80936, Control_c, 0, 64, 83
2, 80955, Control_c, 0, 64, 78
2, 80973, Control_c, 0, 64, 74
2, 80993, Control_c, 0, 64, 71
2, 81011, Control_c, 0, 64, 68
2, 81030, Control_c, 0, 64, 65
2, 81050, Control_c, 0, 64, 64
2, 81069, Control_c, 0, 64, 63
2, 81100, Note_on_c, 0, 73, 67
2, 81107, Control_c, 0, 64, 61
2, 81126, Control_c, 0, 64, 59
2, 81146, Control_c, 0, 64, 54
2, 81165, Control_c, 0, 64, 47
2, 81176, Note_on_c, 0, 64, 0
2, 81188, Control_c, 0, 64, 38
2, 81203, Control_c, 0, 64, 28
2, 81223, Control_c, 0, 64, 16
2, 81241, Control_c, 0, 64, 0
2, 81344, Note_on_c, 0, 72, 71
2, 81376, Control_c, 0, 64, 19
2, 81399, Control_c, 0, 64, 29
2, 81418, Control_c, 0, 64, 40
2, 81421, Note_on_c, 0, 73, 0
2, 81433, Control_c, 0, 64, 49
2, 81453, Control_c, 0, 64, 56
2, 81472, Control_c, 0, 64, 60
2, 81495, Control_c, 0, 64, 62
2, 81510, Control_c, 0, 64, 64
2, 81530, Control_c, 0, 64, 65
2, 81549, Control_c, 0, 64, 67
2, 81568, Control_c, 0, 64, 71
2, 81585, Control_c, 0, 64, 77
2, 81607, Control_c, 0, 64, 83
2, 81611, Note_on_c, 0, 70, 76
2, 81622, Note_on_c, 0, 55, 0
2, 81628, Control_c, 0, 64, 91
2, 81646, Control_c, 0, 64, 98
2, 81652, Note_on_c, 0, 72, 0
2, 81663, Control_c, 0, 64, 106
2, 81670, Note_on_c, 0, 58, 0
2, 81683, Control_c, 0, 64, 112
2, 81702, Control_c, 0, 64, 113
2, 81760, Control_c, 0, 64, 110
2, 81782, Control_c, 0, 64, 107
2, 81798, Control_c, 0, 64, 103
2, 81818, Control_c, 0, 64, 99
2, 81838, Control_c, 0, 64, 95
2, 81857, Control_c, 0, 64, 91
2, 81861, Note_on_c, 0, 70, 0
2, 81870, Note_on_c, 0, 68, 74
2, 81879, Control_c, 0, 64, 86
2, 81879, Note_on_c, 0, 56, 55
2, 81879, Note_on_c, 0, 60, 56
2, 81895, Control_c, 0, 64, 82
2, 81914, Control_c, 0, 64, 79
2, 81934, Control_c, 0, 64, 75
2, 81952, Control_c, 0, 64, 73
2, 81972, Control_c, 0, 64, 70
2, 81992, Control_c, 0, 64, 68
2, 82010, Control_c, 0, 64, 66
2, 82028, Control_c, 0, 64, 64
2, 82047, Control_c, 0, 64, 63
2, 82108, Note_on_c, 0, 79, 77
2, 82120, Note_on_c, 0, 68, 0
2, 82124, Control_c, 0, 64, 62
2, 82145, Control_c, 0, 64, 61
2, 82181, Control_c, 0, 64, 60
2, 82222, Control_c, 0, 64, 59
2, 82240, Control_c, 0, 64, 58
2, 82260, Control_c, 0, 64, 56
2, 82280, Control_c, 0, 64, 50
2, 82298, Control_c, 0, 64, 41
2, 82316, Control_c, 0, 64, 29
2, 82336, Control_c, 0, 64, 16
2, 82355, Control_c, 0, 64, 13
2, 82381, Note_on_c, 0, 77, 74
2, 82416, Control_c, 0, 64, 16
2, 82421, Note_on_c, 0, 79, 0
2, 82433, Control_c, 0, 64, 23
2, 82451, Control_c, 0, 64, 32
2, 82469, Control_c, 0, 64, 42
2, 82488, Control_c, 0, 64, 53
2, 82509, Control_c, 0, 64, 58
2, 82529, Control_c, 0, 64, 61
2, 82547, Control_c, 0, 64, 62
2, 82567, Control_c, 0, 64, 63
2, 82587, Control_c, 0, 64, 65
2, 82606, Control_c, 0, 64, 66
2, 82623, Control_c, 0, 64, 70
2, 82635, Note_on_c, 0, 80, 77
2, 82646, Control_c, 0, 64, 74
2, 82662, Control_c, 0, 64, 80
2, 82664, Note_on_c, 0, 56, 0
2, 82682, Control_c, 0, 64, 85
2, 82692, Note_on_c, 0, 77, 0
2, 82703, Control_c, 0, 64, 90
2, 82722, Control_c, 0, 64, 94
2, 82738, Control_c, 0, 64, 100
2, 82758, Control_c, 0, 64, 106
2, 82778, Control_c, 0, 64, 108
2, 82836, Control_c, 0, 64, 105
2, 82855, Control_c, 0, 64, 103
2, 82874, Control_c, 0, 64, 100
2, 82891, Control_c, 0, 64, 97
2, 82901, Note_on_c, 0, 71, 70
2, 82906, Note_on_c, 0, 56, 57
2, 82908, Note_on_c, 0, 53, 55
2, 82912, Control_c, 0, 64, 94
2, 82930, Control_c, 0, 64, 90
2, 82951, Control_c, 0, 64, 86
2, 82964, Note_on_c, 0, 80, 0
2, 82969, Control_c, 0, 64, 83
2, 82988, Control_c, 0, 64, 79
2, 83007, Control_c, 0, 64, 77
2, 83027, Control_c, 0, 64, 75
2, 83048, Control_c, 0, 64, 73
2, 83068, Control_c, 0, 64, 71
2, 83086, Control_c, 0, 64, 69
2, 83105, Control_c, 0, 64, 68
2, 83124, Control_c, 0, 64, 66
2, 83143, Control_c, 0, 64, 65
2, 83145, Note_on_c, 0, 80, 73
2, 83183, Control_c, 0, 64, 64
2, 83202, Control_c, 0, 64, 63
2, 83214, Note_on_c, 0, 60, 0
2, 83214, Note_on_c, 0, 71, 0
2, 83297, Control_c, 0, 64, 62
2, 83334, Control_c, 0, 64, 61
2, 83373, Control_c, 0, 64, 60
2, 83402, Note_on_c, 0, 79, 78
2, 83431, Control_c, 0, 64, 59
2, 83470, Control_c, 0, 64, 58
2, 83486, Control_c, 0, 64, 57
2, 83507, Control_c, 0, 64, 56
2, 83515, Note_on_c, 0, 80, 0
2, 83527, Control_c, 0, 64, 55
2, 83545, Control_c, 0, 64, 54
2, 83565, Control_c, 0, 64, 53
2, 83585, Control_c, 0, 64, 51
2, 83607, Control_c, 0, 64, 49
2, 83622, Control_c, 0, 64, 47
2, 83642, Control_c, 0, 64, 45
2, 83657, Note_on_c, 0, 77, 81
2, 83662, Control_c, 0, 64, 43
2, 83681, Control_c, 0, 64, 40
2, 83700, Control_c, 0, 64, 37
2, 83719, Control_c, 0, 64, 34
2, 83741, Control_c, 0, 64, 32
2, 83741, Note_on_c, 0, 79, 0
2, 83759, Control_c, 0, 64, 31
2, 83776, Control_c, 0, 64, 30
2, 83796, Control_c, 0, 64, 29
2, 83815, Control_c, 0, 64, 28
2, 83932, Note_on_c, 0, 76, 71
2, 83937, Note_on_c, 0, 58, 59
2, 83948, Note_on_c, 0, 55, 55
2, 84035, Note_on_c, 0, 77, 0
2, 84067, Note_on_c, 0, 56, 0
2, 84097, Note_on_c, 0, 53, 0
2, 84105, Control_c, 0, 64, 27
2, 84212, Note_on_c, 0, 77, 73
2, 84257, Note_on_c, 0, 76, 0
2, 84353, Control_c, 0, 64, 28
2, 84370, Control_c, 0, 64, 29
2, 84389, Control_c, 0, 64, 31
2, 84409, Control_c, 0, 64, 34
2, 84430, Control_c, 0, 64, 37
2, 84447, Control_c, 0, 64, 40
2, 84458, Note_on_c, 0, 79, 78
2, 84467, Control_c, 0, 64, 44
2, 84487, Control_c, 0, 64, 48
2, 84507, Control_c, 0, 64, 53
2, 84511, Note_on_c, 0, 77, 0
2, 84524, Control_c, 0, 64, 56
2, 84544, Control_c, 0, 64, 59
2, 84563, Control_c, 0, 64, 60
2, 84582, Control_c, 0, 64, 62
2, 84604, Control_c, 0, 64, 63
2, 84604, Note_on_c, 0, 55, 0
2, 84622, Control_c, 0, 64, 64
2, 84638, Control_c, 0, 64, 65
2, 84661, Control_c, 0, 64, 67
2, 84681, Control_c, 0, 64, 71
2, 84697, Control_c, 0, 64, 75
2, 84718, Control_c, 0, 64, 81
2, 84718, Note_on_c, 0, 76, 79
2, 84740, Control_c, 0, 64, 86
2, 84756, Control_c, 0, 64, 93
2, 84772, Note_on_c, 0, 79, 0
2, 84774, Control_c, 0, 64, 100
2, 84792, Control_c, 0, 64, 111
2, 84813, Control_c, 0, 64, 127
2, 84985, Control_c, 0, 64, 109
2, 84994, Note_on_c, 0, 52, 42
2, 84999, Note_on_c, 0, 55, 49
2, 85004, Control_c, 0, 64, 101
2, 85023, Control_c, 0, 64, 94
2, 85042, Control_c, 0, 64, 90
2, 85060, Note_on_c, 0, 82, 71
2, 85062, Control_c, 0, 64, 88
2, 85082, Control_c, 0, 64, 85
2, 85100, Control_c, 0, 64, 82
2, 85120, Control_c, 0, 64, 80
2, 85136, Note_on_c, 0, 58, 0
2, 85140, Control_c, 0, 64, 77
2, 85158, Control_c, 0, 64, 75
2, 85177, Control_c, 0, 64, 73
2, 85199, Control_c, 0, 64, 71
2, 85199, Note_on_c, 0, 76, 0
2, 85216, Control_c, 0, 64, 69
2, 85233, Control_c, 0, 64, 67
2, 85273, Control_c, 0, 64, 66
2, 85314, Control_c, 0, 64, 65
2, 85350, Control_c, 0, 64, 64
2, 85370, Control_c, 0, 64, 63
2, 85374, Note_on_c, 0, 73, 75
2, 85429, Control_c, 0, 64, 62
2, 85445, Note_on_c, 0, 82, 0
2, 85505, Control_c, 0, 64, 61
2, 85541, Control_c, 0, 64, 60
2, 85621, Control_c, 0, 64, 59
2, 85621, Note_on_c, 0, 72, 76
2, 85652, Note_on_c, 0, 73, 0
2, 85658, Control_c, 0, 64, 58
2, 85714, Control_c, 0, 64, 57
2, 85754, Control_c, 0, 64, 56
2, 85776, Control_c, 0, 64, 55
2, 85810, Control_c, 0, 64, 54
2, 85833, Control_c, 0, 64, 53
2, 85870, Control_c, 0, 64, 52
2, 85875, Note_on_c, 0, 70, 73
2, 85908, Control_c, 0, 64, 51
2, 85927, Control_c, 0, 64, 50
2, 85939, Note_on_c, 0, 72, 0
2, 85963, Control_c, 0, 64, 49
2, 86024, Control_c, 0, 64, 48
2, 86149, Note_on_c, 0, 68, 63
2, 86159, Control_c, 0, 64, 47
2, 86159, Note_on_c, 0, 60, 43
2, 86162, Note_on_c, 0, 53, 38
2, 86217, Note_on_c, 0, 70, 0
2, 86253, Control_c, 0, 64, 46
2, 86293, Control_c, 0, 64, 45
2, 86295, Note_on_c, 0, 52, 0
2, 86311, Control_c, 0, 64, 44
2, 86329, Control_c, 0, 64, 43
2, 86367, Control_c, 0, 64, 42
2, 86372, Note_on_c, 0, 55, 0
2, 86405, Control_c, 0, 64, 41
2, 86416, Note_on_c, 0, 70, 64
2, 86454, Note_on_c, 0, 68, 0
2, 86462, Control_c, 0, 64, 40
2, 86618, Control_c, 0, 64, 39
2, 86664, Note_on_c, 0, 72, 64
2, 86686, Note_on_c, 0, 70, 0
2, 86950, Note_on_c, 0, 72, 0
2, 86955, Note_on_c, 0, 65, 45
2, 87237, Note_on_c, 0, 74, 48
2, 87273, Note_on_c, 0, 59, 34
2, 87304, Note_on_c, 0, 65, 0
2, 87441, Note_on_c, 0, 60, 0
2, 87508, Note_on_c, 0, 68, 52
2, 87548, Note_on_c, 0, 74, 0
2, 87778, Note_on_c, 0, 67, 51
2, 87797, Note_on_c, 0, 68, 0
2, 88026, Note_on_c, 0, 65, 50
2, 88026, Note_on_c, 0, 67, 0
2, 88344, Note_on_c, 0, 64, 52
2, 88346, Control_c, 0, 64, 40
2, 88349, Note_on_c, 0, 65, 0
2, 88360, Note_on_c, 0, 55, 30
2, 88366, Control_c, 0, 64, 41
2, 88384, Control_c, 0, 64, 43
2, 88407, Control_c, 0, 64, 45
2, 88422, Control_c, 0, 64, 47
2, 88427, Note_on_c, 0, 53, 0
2, 88444, Control_c, 0, 64, 49
2, 88463, Control_c, 0, 64, 51
2, 88484, Control_c, 0, 64, 53
2, 88484, Note_on_c, 0, 59, 0
2, 88500, Control_c, 0, 64, 55
2, 88519, Control_c, 0, 64, 56
2, 88538, Control_c, 0, 64, 57
2, 88558, Control_c, 0, 64, 58
2, 88576, Control_c, 0, 64, 60
2, 88594, Control_c, 0, 64, 61
2, 88633, Control_c, 0, 64, 62
2, 88671, Note_on_c, 0, 60, 51
2, 88676, Control_c, 0, 64, 63
2, 88690, Control_c, 0, 64, 65
2, 88710, Control_c, 0, 64, 67
2, 88730, Control_c, 0, 64, 70
2, 88747, Control_c, 0, 64, 74
2, 88763, Note_on_c, 0, 55, 0
2, 88767, Control_c, 0, 64, 78
2, 88790, Control_c, 0, 64, 83
2, 88809, Control_c, 0, 64, 90
2, 88825, Control_c, 0, 64, 99
2, 88845, Control_c, 0, 64, 118
2, 88864, Control_c, 0, 64, 127
2, 88881, Note_on_c, 0, 60, 0
2, 88930, Note_on_c, 0, 48, 0
2, 88941, Note_on_c, 0, 55, 58
2, 89183, Note_on_c, 0, 55, 0
2, 89187, Note_on_c, 0, 58, 74
2, 89287, Control_c, 0, 64, 115
2, 89305, Control_c, 0, 64, 108
2, 89326, Control_c, 0, 64, 104
2, 89345, Control_c, 0, 64, 101
2, 89366, Control_c, 0, 64, 97
2, 89381, Control_c, 0, 64, 94
2, 89404, Control_c, 0, 64, 90
2, 89421, Control_c, 0, 64, 87
2, 89441, Control_c, 0, 64, 83
2, 89459, Control_c, 0, 64, 80
2, 89470, Note_on_c, 0, 65, 74
2, 89481, Control_c, 0, 64, 78
2, 89489, Note_on_c, 0, 56, 64
2, 89498, Control_c, 0, 64, 76
2, 89516, Control_c, 0, 64, 74
2, 89536, Control_c, 0, 64, 72
2, 89554, Control_c, 0, 64, 71
2, 89574, Control_c, 0, 64, 69
2, 89581, Note_on_c, 0, 64, 0
2, 89594, Control_c, 0, 64, 68
2, 89604, Note_on_c, 0, 58, 0
2, 89636, Control_c, 0, 64, 67
2, 89653, Control_c, 0, 64, 66
2, 89670, Control_c, 0, 64, 65
2, 89690, Control_c, 0, 64, 63
2, 89708, Control_c, 0, 64, 60
2, 89730, Control_c, 0, 64, 56
2, 89730, Note_on_c, 0, 53, 67
2, 89746, Control_c, 0, 64, 49
2, 89767, Control_c, 0, 64, 40
2, 89785, Control_c, 0, 64, 28
2, 89803, Control_c, 0, 64, 18
2, 89824, Control_c, 0, 64, 16
2, 89863, Control_c, 0, 64, 18
2, 89880, Control_c, 0, 64, 25
2, 89900, Control_c, 0, 64, 33
2, 89919, Control_c, 0, 64, 43
2, 89940, Control_c, 0, 64, 51
2, 89957, Control_c, 0, 64, 56
2, 89977, Control_c, 0, 64, 59
2, 89997, Control_c, 0, 64, 60
2, 90010, Note_on_c, 0, 47, 71
2, 90017, Control_c, 0, 64, 62
2, 90035, Control_c, 0, 64, 63
2, 90054, Control_c, 0, 64, 65
2, 90073, Control_c, 0, 64, 67
2, 90078, Note_on_c, 0, 53, 0
2, 90095, Control_c, 0, 64, 71
2, 90111, Control_c, 0, 64, 76
2, 90132, Control_c, 0, 64, 83
2, 90152, Control_c, 0, 64, 92
2, 90169, Control_c, 0, 64, 111
2, 90188, Control_c, 0, 64, 127
2, 90310, Note_on_c, 0, 50, 70
2, 90346, Note_on_c, 0, 47, 0
2, 90477, Control_c, 0, 64, 122
2, 90495, Control_c, 0, 64, 110
2, 90515, Control_c, 0, 64, 103
2, 90533, Control_c, 0, 64, 96
2, 90552, Control_c, 0, 64, 91
2, 90573, Control_c, 0, 64, 87
2, 90593, Control_c, 0, 64, 84
2, 90611, Control_c, 0, 64, 83
2, 90631, Control_c, 0, 64, 81
2, 90653, Control_c, 0, 64, 78
2, 90669, Control_c, 0, 64, 75
2, 90683, Note_on_c, 0, 36, 54
2, 90687, Control_c, 0, 64, 72
2, 90687, Note_on_c, 0, 55, 54
2, 90708, Control_c, 0, 64, 68
2, 90725, Control_c, 0, 64, 64
2, 90745, Control_c, 0, 64, 56
2, 90765, Control_c, 0, 64, 46
2, 90785, Control_c, 0, 64, 32
2, 90797, Note_on_c, 0, 56, 0
2, 90804, Note_on_c, 0, 50, 0
2, 90808, Control_c, 0, 64, 13
2, 90822, Control_c, 0, 64, 0
2, 90860, Control_c, 0, 64, 9
2, 90882, Control_c, 0, 64, 27
2, 90899, Control_c, 0, 64, 40
2, 90916, Control_c, 0, 64, 51
2, 90937, Control_c, 0, 64, 58
2, 90959, Control_c, 0, 64, 62
2, 90976, Control_c, 0, 64, 63
2, 90996, Control_c, 0, 64, 65
2, 91000, Note_on_c, 0, 62, 64
2, 91016, Control_c, 0, 64, 67
2, 91033, Control_c, 0, 64, 69
2, 91052, Control_c, 0, 64, 73
2, 91052, Note_on_c, 0, 55, 0
2, 91072, Control_c, 0, 64, 76
2, 91093, Control_c, 0, 64, 78
2, 91110, Control_c, 0, 64, 79
2, 91167, Control_c, 0, 64, 78
2, 91245, Control_c, 0, 64, 76
2, 91265, Control_c, 0, 64, 71
2, 91286, Control_c, 0, 64, 64
2, 91286, Note_on_c, 0, 59, 50
2, 91296, Note_on_c, 0, 53, 46
2, 91302, Control_c, 0, 64, 56
2, 91322, Control_c, 0, 64, 47
2, 91322, Note_on_c, 0, 62, 0
2, 91342, Control_c, 0, 64, 36
2, 91359, Control_c, 0, 64, 30
2, 91401, Control_c, 0, 64, 35
2, 91417, Control_c, 0, 64, 45
2, 91437, Control_c, 0, 64, 54
2, 91456, Control_c, 0, 64, 59
2, 91475, Control_c, 0, 64, 62
2, 91493, Control_c, 0, 64, 63
2, 91515, Control_c, 0, 64, 64
2, 91533, Control_c, 0, 64, 65
2, 91553, Control_c, 0, 64, 67
2, 91571, Control_c, 0, 64, 68
2, 91587, Note_on_c, 0, 60, 46
2, 91598, Note_on_c, 0, 53, 0
2, 91609, Control_c, 0, 64, 69
2, 91627, Control_c, 0, 64, 70
2, 91630, Note_on_c, 0, 59, 0
2, 91647, Control_c, 0, 64, 72
2, 91666, Control_c, 0, 64, 73
2, 91688, Control_c, 0, 64, 74
2, 91703, Control_c, 0, 64, 75
2, 91762, Control_c, 0, 64, 74
2, 91840, Control_c, 0, 64, 73
2, 91879, Control_c, 0, 64, 72
2, 91898, Control_c, 0, 64, 71
2, 91915, Control_c, 0, 64, 70
2, 91932, Note_on_c, 0, 55, 48
2, 91937, Control_c, 0, 64, 68
2, 91957, Control_c, 0, 64, 64
2, 91975, Control_c, 0, 64, 59
2, 91990, Note_on_c, 0, 60, 0
2, 91992, Control_c, 0, 64, 52
2, 92013, Control_c, 0, 64, 44
2, 92031, Control_c, 0, 64, 35
2, 92052, Control_c, 0, 64, 27
2, 92067, Note_on_c, 0, 65, 0
2, 92071, Control_c, 0, 64, 20
2, 92090, Control_c, 0, 64, 17
2, 92109, Control_c, 0, 64, 16
2, 92267, Note_on_c, 0, 58, 40
2, 92320, Control_c, 0, 64, 17
2, 92397, Control_c, 0, 64, 18
2, 92494, Control_c, 0, 64, 19
2, 92588, Control_c, 0, 64, 20
2, 92653, Note_on_c, 0, 60, 37
2, 92664, Control_c, 0, 64, 21
2, 92686, Control_c, 0, 64, 23
2, 92704, Control_c, 0, 64, 25
2, 92722, Control_c, 0, 64, 27
2, 92743, Control_c, 0, 64, 29
2, 92761, Control_c, 0, 64, 31
2, 92781, Control_c, 0, 64, 33
2, 92800, Control_c, 0, 64, 36
2, 92820, Control_c, 0, 64, 38
2, 92839, Control_c, 0, 64, 41
2, 92858, Control_c, 0, 64, 43
2, 92876, Control_c, 0, 64, 44
2, 92896, Control_c, 0, 64, 46
2, 92914, Control_c, 0, 64, 47
2, 92935, Control_c, 0, 64, 50
2, 92953, Control_c, 0, 64, 51
2, 92973, Control_c, 0, 64, 53
2, 92991, Control_c, 0, 64, 54
2, 93010, Control_c, 0, 64, 55
2, 93029, Control_c, 0, 64, 56
2, 93050, Control_c, 0, 64, 58
2, 93068, Control_c, 0, 64, 59
2, 93087, Control_c, 0, 64, 61
2, 93106, Control_c, 0, 64, 62
2, 93117, Note_on_c, 0, 64, 44
2, 93127, Control_c, 0, 64, 63
2, 93144, Control_c, 0, 64, 64
2, 93165, Control_c, 0, 64, 66
2, 93171, Note_on_c, 0, 36, 0
2, 93185, Control_c, 0, 64, 68
2, 93203, Control_c, 0, 64, 72
2, 93225, Control_c, 0, 64, 77
2, 93241, Control_c, 0, 64, 82
2, 93267, Control_c, 0, 64, 88
2, 93267, Note_on_c, 0, 55, 0
2, 93267, Note_on_c, 0, 60, 0
2, 93281, Control_c, 0, 64, 93
2, 93301, Control_c, 0, 64, 101
2, 93309, Note_on_c, 0, 58, 0
2, 93319, Control_c, 0, 64, 120
2, 93324, Note_on_c, 0, 64, 0
2, 93338, Control_c, 0, 64, 127
2, 93874, Control_c, 0, 64, 118
2, 93897, Control_c, 0, 64, 111
2, 93897, Note_on_c, 0, 57, 34
2, 93897, Note_on_c, 0, 65, 39
2, 93906, Note_on_c, 0, 60, 38
2, 93913, Control_c, 0, 64, 103
2, 93928, Note_on_c, 0, 53, 33
2, 93932, Control_c, 0, 64, 95
2, 93943, Note_on_c, 0, 41, 30
2, 93955, Control_c, 0, 64, 86
2, 93973, Control_c, 0, 64, 75
2, 93990, Control_c, 0, 64, 66
2, 94010, Control_c, 0, 64, 59
2, 94028, Control_c, 0, 64, 52
2, 94047, Control_c, 0, 64, 46
2, 94068, Control_c, 0, 64, 39
2, 94089, Control_c, 0, 64, 32
2, 94105, Control_c, 0, 64, 27
2, 94124, Control_c, 0, 64, 23
2, 94143, Control_c, 0, 64, 22
2, 94374, Control_c, 0, 64, 23
2, 94411, Control_c, 0, 64, 24
2, 94432, Control_c, 0, 64, 25
2, 94470, Control_c, 0, 64, 26
2, 94509, Control_c, 0, 64, 27
2, 94529, Control_c, 0, 64, 28
2, 94548, Control_c, 0, 64, 30
2, 94585, Control_c, 0, 64, 31
2, 94624, Control_c, 0, 64, 32
2, 94662, Control_c, 0, 64, 33
2, 94681, Control_c, 0, 64, 34
2, 94701, Control_c, 0, 64, 35
2, 94738, Control_c, 0, 64, 36
2, 94777, Control_c, 0, 64, 37
2, 94797, Control_c, 0, 64, 38
2, 94816, Control_c, 0, 64, 39
2, 94874, Control_c, 0, 64, 40
2, 94913, Control_c, 0, 64, 41
2, 94932, Control_c, 0, 64, 42
2, 94951, Control_c, 0, 64, 43
2, 94969, Control_c, 0, 64, 45
2, 94987, Control_c, 0, 64, 46
2, 95066, Control_c, 0, 64, 47
2, 95106, Control_c, 0, 64, 48
2, 95181, Control_c, 0, 64, 49
2, 95217, Control_c, 0, 64, 50
2, 95278, Control_c, 0, 64, 51
2, 95296, Control_c, 0, 64, 52
2, 95319, Control_c, 0, 64, 53
2, 95356, Control_c, 0, 64, 54
2, 95372, Control_c, 0, 64, 55
2, 95394, Control_c, 0, 64, 56
2, 95411, Control_c, 0, 64, 57
2, 95450, Control_c, 0, 64, 58
2, 95487, Control_c, 0, 64, 59
2, 95546, Control_c, 0, 64, 60
2, 95584, Control_c, 0, 64, 61
2, 95640, Control_c, 0, 64, 62
2, 95680, Control_c, 0, 64, 63
2, 95702, Control_c, 0, 64, 64
2, 95737, Control_c, 0, 64, 65
2, 95775, Control_c, 0, 64, 66
2, 95815, Control_c, 0, 64, 67
2, 95834, Control_c, 0, 64, 68
2, 95871, Control_c, 0, 64, 69
2, 95891, Control_c, 0, 64, 70
2, 95911, Control_c, 0, 64, 71
2, 95930, Control_c, 0, 64, 73
2, 95948, Control_c, 0, 64, 75
2, 95968, Control_c, 0, 64, 77
2, 95986, Control_c, 0, 64, 79
2, 96006, Control_c, 0, 64, 81
2, 96026, Control_c, 0, 64, 83
2, 96047, Control_c, 0, 64, 85
2, 96063, Control_c, 0, 64, 86
2, 96081, Control_c, 0, 64, 87
2, 96103, Control_c, 0, 64, 90
2, 96121, Control_c, 0, 64, 93
2, 96141, Control_c, 0, 64, 95
2, 96161, Control_c, 0, 64, 98
2, 96179, Control_c, 0, 64, 102
2, 96201, Control_c, 0, 64, 106
2, 96218, Control_c, 0, 64, 113
2, 96236, Control_c, 0, 64, 127
2, 96679, Note_on_c, 0, 65, 0
2, 96716, Note_on_c, 0, 41, 0
2, 96740, Note_on_c, 0, 53, 0
2, 96751, Note_on_c, 0, 57, 0
2, 96755, Control_c, 0, 64, 120
2, 96774, Control_c, 0, 64, 113
2, 96792, Control_c, 0, 64, 109
2, 96811, Control_c, 0, 64, 105
2, 96832, Control_c, 0, 64, 101
2, 96852, Control_c, 0, 64, 98
2, 96859, Note_on_c, 0, 60, 0
2, 96869, Control_c, 0, 64, 95
2, 96889, Control_c, 0, 64, 92
2, 96908, Control_c, 0, 64, 90
2, 96927, Control_c, 0, 64, 87
2, 96946, Control_c, 0, 64, 85
2, 96964, Control_c, 0, 64, 83
2, 96984, Control_c, 0, 64, 81
2, 97006, Control_c, 0, 64, 78
2, 97023, Control_c, 0, 64, 77
2, 97042, Control_c, 0, 64, 75
2, 97062, Control_c, 0, 64, 74
2, 97081, Control_c, 0, 64, 73
2, 97099, Control_c, 0, 64, 72
2, 97120, Control_c, 0, 64, 71
2, 97139, Control_c, 0, 64, 70
2, 97156, Control_c, 0, 64, 68
2, 97178, Control_c, 0, 64, 67
2, 97197, Control_c, 0, 64, 66
2, 97215, Control_c, 0, 64, 65
2, 97255, Control_c, 0, 64, 64
2, 97292, Control_c, 0, 64, 63
2, 97330, Control_c, 0, 64, 62
2, 97350, Control_c, 0, 64, 61
2, 97388, Control_c, 0, 64, 60
2, 97408, Control_c, 0, 64, 59
2, 97446, Control_c, 0, 64, 58
2, 97463, Control_c, 0, 64, 57
2, 97485, Control_c, 0, 64, 56
2, 97523, Control_c, 0, 64, 55
2, 97541, Control_c, 0, 64, 54
2, 97562, Control_c, 0, 64, 53
2, 97581, Control_c, 0, 64, 52
2, 97601, Control_c, 0, 64, 51
2, 97622, Control_c, 0, 64, 49
2, 97640, Control_c, 0, 64, 48
2, 97659, Control_c, 0, 64, 45
2, 97678, Control_c, 0, 64, 42
2, 97694, Control_c, 0, 64, 38
2, 97715, Control_c, 0, 64, 36
2, 97734, Control_c, 0, 64, 35
2, 97773, Control_c, 0, 64, 34
2, 98234, Control_c, 0, 64, 35
2, 98655, Control_c, 0, 64, 36
2, 99004, Control_c, 0, 64, 37
2, 99116, Control_c, 0, 64, 38
2, 99596, Control_c, 0, 64, 39
2, 99941, Control_c, 0, 64, 40
2, 101785, Control_c, 0, 64, 41
2, 102169, Control_c, 0, 64, 42
2, 102342, Control_c, 0, 64, 43
2, 102763, Control_c, 0, 64, 44
2, 102791, Note_on_c, 0, 60, 42
2, 102859, Control_c, 0, 64, 45
2, 102955, Control_c, 0, 64, 46
2, 103609, Note_on_c, 0, 61, 52
2, 103752, Note_on_c, 0, 60, 0
2, 104376, Control_c, 0, 64, 45
2, 104437, Note_on_c, 0, 60, 53
2, 104613, Note_on_c, 0, 61, 0
2, 104724, Control_c, 0, 64, 44
2, 105127, Control_c, 0, 64, 43
2, 105221, Control_c, 0, 64, 42
2, 105288, Note_on_c, 0, 59, 62
2, 105337, Control_c, 0, 64, 41
2, 105415, Control_c, 0, 64, 40
2, 105474, Note_on_c, 0, 60, 0
2, 106118, Note_on_c, 0, 64, 71
2, 106124, Control_c, 0, 64, 39
2, 106182, Control_c, 0, 64, 38
2, 106340, Note_on_c, 0, 59, 0
2, 106966, Note_on_c, 0, 65, 53
2, 107134, Note_on_c, 0, 64, 0
2, 107315, Control_c, 0, 64, 39
2, 107775, Control_c, 0, 64, 40
2, 107800, Note_on_c, 0, 58, 54
2, 107911, Control_c, 0, 64, 41
2, 107974, Note_on_c, 0, 65, 0
2, 108024, Control_c, 0, 64, 42
2, 108219, Control_c, 0, 64, 43
2, 108371, Control_c, 0, 64, 44
2, 108659, Note_on_c, 0, 57, 57
2, 108879, Note_on_c, 0, 58, 0
2, 108908, Control_c, 0, 64, 43
2, 109508, Note_on_c, 0, 56, 51
2, 109541, Control_c, 0, 64, 42
2, 109579, Control_c, 0, 64, 41
2, 109599, Control_c, 0, 64, 40
2, 109617, Control_c, 0, 64, 39
2, 109639, Note_on_c, 0, 57, 0
2, 109717, Control_c, 0, 64, 40
2, 109735, Control_c, 0, 64, 43
2, 109752, Control_c, 0, 64, 48
2, 109773, Control_c, 0, 64, 54
2, 109791, Control_c, 0, 64, 58
2, 109812, Control_c, 0, 64, 61
2, 109828, Control_c, 0, 64, 63
2, 109849, Control_c, 0, 64, 66
2, 109870, Control_c, 0, 64, 70
2, 109888, Control_c, 0, 64, 74
2, 109906, Control_c, 0, 64, 78
2, 109925, Control_c, 0, 64, 83
2, 109945, Control_c, 0, 64, 90
2, 109965, Control_c, 0, 64, 99
2, 109981, Control_c, 0, 64, 113
2, 110001, Control_c, 0, 64, 127
2, 110050, Note_on_c, 0, 56, 0
2, 110414, Note_on_c, 0, 56, 47
2, 110443, Control_c, 0, 64, 95
2, 110464, Control_c, 0, 64, 76
2, 110484, Control_c, 0, 64, 66
2, 110503, Control_c, 0, 64, 61
2, 110522, Control_c, 0, 64, 60
2, 110541, Control_c, 0, 64, 62
2, 110560, Control_c, 0, 64, 65
2, 110578, Control_c, 0, 64, 69
2, 110584, Note_on_c, 0, 56, 0
2, 110598, Control_c, 0, 64, 76
2, 110613, Control_c, 0, 64, 85
2, 110628, Note_on_c, 0, 55, 42
2, 110635, Control_c, 0, 64, 98
2, 110652, Control_c, 0, 64, 116
2, 110672, Control_c, 0, 64, 127
2, 110690, Note_on_c, 0, 55, 0
2, 110763, Note_on_c, 0, 56, 41
2, 110824, Note_on_c, 0, 55, 51
2, 110868, Note_on_c, 0, 56, 0
2, 110868, Note_on_c, 0, 56, 39
2, 110903, Control_c, 0, 64, 115
2, 110923, Control_c, 0, 64, 109
2, 110940, Control_c, 0, 64, 103
2, 110963, Control_c, 0, 64, 98
2, 110963, Note_on_c, 0, 55, 0
2, 110977, Note_on_c, 0, 56, 0
2, 110977, Note_on_c, 0, 56, 52
2, 110981, Control_c, 0, 64, 94
2, 110997, Control_c, 0, 64, 91
2, 111016, Control_c, 0, 64, 85
2, 111037, Control_c, 0, 64, 79
2, 111057, Control_c, 0, 64, 72
2, 111062, Note_on_c, 0, 56, 0
2, 111075, Control_c, 0, 64, 67
2, 111082, Note_on_c, 0, 55, 45
2, 111093, Control_c, 0, 64, 64
2, 111113, Control_c, 0, 64, 61
2, 111131, Control_c, 0, 64, 60
2, 111151, Control_c, 0, 64, 57
2, 111171, Control_c, 0, 64, 54
2, 111189, Control_c, 0, 64, 49
2, 111209, Control_c, 0, 64, 42
2, 111227, Control_c, 0, 64, 32
2, 111249, Control_c, 0, 64, 0
2, 111984, Note_on_c, 0, 55, 0
2, 111993, Note_on_c, 0, 53, 29
2, 112034, Control_c, 0, 64, 20
2, 112053, Control_c, 0, 64, 35
2, 112074, Control_c, 0, 64, 48
2, 112091, Control_c, 0, 64, 56
2, 112113, Control_c, 0, 64, 60
2, 112133, Control_c, 0, 64, 62
2, 112150, Control_c, 0, 64, 63
2, 112167, Control_c, 0, 64, 65
2, 112187, Control_c, 0, 64, 67
2, 112207, Control_c, 0, 64, 71
2, 112218, Note_on_c, 0, 53, 0
2, 112228, Control_c, 0, 64, 76
2, 112246, Control_c, 0, 64, 83
2, 112267, Control_c, 0, 64, 91
2, 112283, Control_c, 0, 64, 99
2, 112304, Control_c, 0, 64, 105
2, 112324, Control_c, 0, 64, 106
2, 112382, Control_c, 0, 64, 104
2, 112395, Note_on_c, 0, 53, 43
2, 112399, Control_c, 0, 64, 100
2, 112421, Control_c, 0, 64, 97
2, 112438, Control_c, 0, 64, 94
2, 112459, Control_c, 0, 64, 91
2, 112475, Control_c, 0, 64, 86
2, 112496, Control_c, 0, 64, 81
2, 112514, Control_c, 0, 64, 77
2, 112533, Control_c, 0, 64, 73
2, 112553, Control_c, 0, 64, 70
2, 112562, Note_on_c, 0, 53, 0
2, 112577, Control_c, 0, 64, 67
2, 112577, Note_on_c, 0, 55, 46
2, 112592, Control_c, 0, 64, 65
2, 112610, Control_c, 0, 64, 64
2, 112629, Control_c, 0, 64, 63
2, 112650, Control_c, 0, 64, 62
2, 112668, Control_c, 0, 64, 61
2, 112686, Control_c, 0, 64, 60
2, 112707, Control_c, 0, 64, 59
2, 112728, Control_c, 0, 64, 58
2, 112765, Control_c, 0, 64, 57
2, 112770, Note_on_c, 0, 55, 0
2, 112779, Note_on_c, 0, 65, 58
2, 112786, Control_c, 0, 64, 56
2, 112809, Note_on_c, 0, 56, 39
2, 112822, Control_c, 0, 64, 54
2, 112842, Control_c, 0, 64, 52
2, 112860, Control_c, 0, 64, 49
2, 112879, Control_c, 0, 64, 45
2, 112900, Control_c, 0, 64, 39
2, 112918, Control_c, 0, 64, 33
2, 112938, Control_c, 0, 64, 24
2, 112956, Control_c, 0, 64, 11
2, 112977, Control_c, 0, 64, 0
2, 112977, Note_on_c, 0, 56, 0
2, 113231, Note_on_c, 0, 56, 44
2, 113373, Note_on_c, 0, 56, 0
2, 113384, Note_on_c, 0, 58, 50
2, 113577, Note_on_c, 0, 58, 0
2, 113591, Note_on_c, 0, 68, 67
2, 113623, Note_on_c, 0, 60, 50
2, 113709, Note_on_c, 0, 65, 0
2, 113802, Note_on_c, 0, 47, 31
2, 113855, Note_on_c, 0, 60, 0
2, 113963, Note_on_c, 0, 48, 29
2, 114018, Note_on_c, 0, 47, 0
2, 114156, Note_on_c, 0, 50, 51
2, 114206, Note_on_c, 0, 48, 0
2, 114392, Note_on_c, 0, 67, 59
2, 114402, Note_on_c, 0, 51, 47
2, 114445, Note_on_c, 0, 50, 0
2, 114504, Note_on_c, 0, 68, 0
2, 114685, Control_c, 0, 64, 13
2, 114702, Control_c, 0, 64, 23
2, 114722, Control_c, 0, 64, 30
2, 114742, Control_c, 0, 64, 37
2, 114760, Control_c, 0, 64, 43
2, 114778, Control_c, 0, 64, 49
2, 114800, Control_c, 0, 64, 54
2, 114817, Control_c, 0, 64, 57
2, 114838, Control_c, 0, 64, 59
2, 114858, Control_c, 0, 64, 60
2, 114875, Control_c, 0, 64, 61
2, 114897, Control_c, 0, 64, 62
2, 114916, Control_c, 0, 64, 63
2, 114934, Control_c, 0, 64, 64
2, 114972, Control_c, 0, 64, 65
2, 114990, Control_c, 0, 64, 66
2, 115163, Control_c, 0, 64, 65
2, 115183, Note_on_c, 0, 51, 0
2, 115206, Control_c, 0, 64, 64
2, 115238, Note_on_c, 0, 66, 63
2, 115262, Control_c, 0, 64, 63
2, 115299, Control_c, 0, 64, 62
2, 115319, Control_c, 0, 64, 61
2, 115339, Control_c, 0, 64, 60
2, 115357, Note_on_c, 0, 67, 0
2, 115376, Control_c, 0, 64, 59
2, 115395, Control_c, 0, 64, 58
2, 115434, Control_c, 0, 64, 57
2, 115440, Note_on_c, 0, 48, 46
2, 115451, Control_c, 0, 64, 55
2, 115474, Control_c, 0, 64, 54
2, 115493, Control_c, 0, 64, 53
2, 115511, Control_c, 0, 64, 52
2, 115528, Control_c, 0, 64, 51
2, 115549, Control_c, 0, 64, 50
2, 115567, Control_c, 0, 64, 49
2, 115588, Control_c, 0, 64, 47
2, 115606, Control_c, 0, 64, 45
2, 115623, Note_on_c, 0, 50, 63
2, 115627, Control_c, 0, 64, 43
2, 115643, Control_c, 0, 64, 41
2, 115654, Note_on_c, 0, 48, 0
2, 115664, Control_c, 0, 64, 39
2, 115683, Control_c, 0, 64, 37
2, 115702, Control_c, 0, 64, 35
2, 115721, Control_c, 0, 64, 33
2, 115740, Control_c, 0, 64, 32
2, 115761, Control_c, 0, 64, 31
2, 115778, Control_c, 0, 64, 30
2, 115798, Note_on_c, 0, 51, 71
2, 115839, Note_on_c, 0, 50, 0
2, 115894, Control_c, 0, 64, 29
2, 115969, Control_c, 0, 64, 28
2, 116007, Control_c, 0, 64, 27
2, 116013, Note_on_c, 0, 71, 77
2, 116049, Control_c, 0, 64, 26
2, 116049, Note_on_c, 0, 53, 50
2, 116070, Control_c, 0, 64, 25
2, 116086, Control_c, 0, 64, 24
2, 116092, Note_on_c, 0, 51, 0
2, 116106, Control_c, 0, 64, 23
2, 116119, Note_on_c, 0, 66, 0
2, 116123, Control_c, 0, 64, 21
2, 116143, Control_c, 0, 64, 18
2, 116162, Control_c, 0, 64, 11
2, 116182, Control_c, 0, 64, 0
2, 116279, Control_c, 0, 64, 14
2, 116295, Control_c, 0, 64, 28
2, 116315, Control_c, 0, 64, 41
2, 116335, Control_c, 0, 64, 53
2, 116355, Control_c, 0, 64, 59
2, 116374, Control_c, 0, 64, 62
2, 116393, Control_c, 0, 64, 63
2, 116411, Control_c, 0, 64, 64
2, 116432, Control_c, 0, 64, 66
2, 116449, Control_c, 0, 64, 68
2, 116469, Control_c, 0, 64, 70
2, 116491, Control_c, 0, 64, 73
2, 116509, Control_c, 0, 64, 76
2, 116526, Control_c, 0, 64, 78
2, 116546, Control_c, 0, 64, 80
2, 116566, Control_c, 0, 64, 81
2, 116584, Control_c, 0, 64, 82
2, 116606, Control_c, 0, 64, 83
2, 116654, Note_on_c, 0, 53, 0
2, 116702, Control_c, 0, 64, 82
2, 116740, Control_c, 0, 64, 81
2, 116757, Control_c, 0, 64, 80
2, 116778, Control_c, 0, 64, 79
2, 116796, Control_c, 0, 64, 78
2, 116815, Control_c, 0, 64, 76
2, 116836, Control_c, 0, 64, 73
2, 116836, Note_on_c, 0, 72, 73
2, 116854, Control_c, 0, 64, 71
2, 116875, Control_c, 0, 64, 69
2, 116892, Control_c, 0, 64, 66
2, 116911, Control_c, 0, 64, 64
2, 116931, Control_c, 0, 64, 62
2, 116950, Control_c, 0, 64, 61
2, 116978, Note_on_c, 0, 71, 0
2, 116987, Control_c, 0, 64, 60
2, 117006, Control_c, 0, 64, 59
2, 117023, Control_c, 0, 64, 58
2, 117032, Note_on_c, 0, 51, 58
2, 117044, Control_c, 0, 64, 56
2, 117064, Control_c, 0, 64, 55
2, 117082, Control_c, 0, 64, 53
2, 117101, Control_c, 0, 64, 52
2, 117121, Control_c, 0, 64, 50
2, 117141, Control_c, 0, 64, 48
2, 117159, Control_c, 0, 64, 47
2, 117177, Control_c, 0, 64, 45
2, 117201, Control_c, 0, 64, 43
2, 117201, Note_on_c, 0, 53, 68
2, 117217, Control_c, 0, 64, 41
2, 117236, Control_c, 0, 64, 40
2, 117255, Control_c, 0, 64, 39
2, 117255, Note_on_c, 0, 51, 0
2, 117293, Control_c, 0, 64, 37
2, 117313, Control_c, 0, 64, 36
2, 117331, Control_c, 0, 64, 34
2, 117351, Control_c, 0, 64, 33
2, 117372, Control_c, 0, 64, 32
2, 117391, Control_c, 0, 64, 31
2, 117391, Note_on_c, 0, 55, 72
2, 117411, Control_c, 0, 64, 30
2, 117426, Control_c, 0, 64, 28
2, 117436, Note_on_c, 0, 53, 0
2, 117445, Control_c, 0, 64, 25
2, 117467, Control_c, 0, 64, 24
2, 117485, Control_c, 0, 64, 22
2, 117504, Control_c, 0, 64, 20
2, 117523, Control_c, 0, 64, 18
2, 117542, Control_c, 0, 64, 15
2, 117562, Control_c, 0, 64, 11
2, 117581, Control_c, 0, 64, 0
2, 117614, Note_on_c, 0, 65, 69
2, 117636, Note_on_c, 0, 56, 56
2, 117695, Note_on_c, 0, 55, 0
2, 117812, Note_on_c, 0, 72, 0
2, 117908, Control_c, 0, 64, 27
2, 117927, Control_c, 0, 64, 42
2, 117947, Control_c, 0, 64, 52
2, 117965, Control_c, 0, 64, 58
2, 117983, Control_c, 0, 64, 60
2, 118003, Control_c, 0, 64, 61
2, 118024, Control_c, 0, 64, 62
2, 118043, Control_c, 0, 64, 63
2, 118061, Control_c, 0, 64, 65
2, 118079, Control_c, 0, 64, 68
2, 118101, Control_c, 0, 64, 72
2, 118105, Note_on_c, 0, 56, 0
2, 118118, Control_c, 0, 64, 76
2, 118140, Control_c, 0, 64, 79
2, 118157, Control_c, 0, 64, 83
2, 118176, Control_c, 0, 64, 88
2, 118197, Control_c, 0, 64, 92
2, 118215, Control_c, 0, 64, 97
2, 118235, Control_c, 0, 64, 102
2, 118254, Control_c, 0, 64, 104
2, 118292, Control_c, 0, 64, 103
2, 118313, Control_c, 0, 64, 101
2, 118331, Control_c, 0, 64, 100
2, 118351, Control_c, 0, 64, 99
2, 118368, Control_c, 0, 64, 98
2, 118388, Control_c, 0, 64, 96
2, 118405, Control_c, 0, 64, 92
2, 118425, Control_c, 0, 64, 87
2, 118448, Control_c, 0, 64, 84
2, 118448, Note_on_c, 0, 64, 68
2, 118466, Control_c, 0, 64, 82
2, 118487, Control_c, 0, 64, 81
2, 118501, Control_c, 0, 64, 79
2, 118521, Control_c, 0, 64, 77
2, 118542, Control_c, 0, 64, 73
2, 118563, Control_c, 0, 64, 70
2, 118579, Control_c, 0, 64, 68
2, 118599, Control_c, 0, 64, 67
2, 118620, Control_c, 0, 64, 66
2, 118633, Note_on_c, 0, 55, 55
2, 118638, Control_c, 0, 64, 65
2, 118646, Note_on_c, 0, 65, 0
2, 118678, Control_c, 0, 64, 64
2, 118694, Control_c, 0, 64, 63
2, 118713, Control_c, 0, 64, 62
2, 118732, Control_c, 0, 64, 61
2, 118752, Control_c, 0, 64, 60
2, 118810, Control_c, 0, 64, 58
2, 118823, Note_on_c, 0, 57, 72
2, 118830, Control_c, 0, 64, 57
2, 118848, Control_c, 0, 64, 56
2, 118868, Control_c, 0, 64, 54
2, 118883, Note_on_c, 0, 55, 0
2, 118887, Control_c, 0, 64, 52
2, 118906, Control_c, 0, 64, 50
2, 118925, Control_c, 0, 64, 48
2, 118943, Control_c, 0, 64, 46
2, 118964, Control_c, 0, 64, 45
2, 118986, Control_c, 0, 64, 43
2, 118997, Note_on_c, 0, 59, 74
2, 119001, Control_c, 0, 64, 42
2, 119020, Control_c, 0, 64, 39
2, 119040, Control_c, 0, 64, 38
2, 119060, Control_c, 0, 64, 37
2, 119062, Note_on_c, 0, 57, 0
2, 119079, Control_c, 0, 64, 36
2, 119098, Control_c, 0, 64, 35
2, 119136, Control_c, 0, 64, 34
2, 119155, Control_c, 0, 64, 33
2, 119175, Control_c, 0, 64, 32
2, 119212, Control_c, 0, 64, 31
2, 119254, Note_on_c, 0, 60, 53
2, 119259, Note_on_c, 0, 63, 66
2, 119273, Control_c, 0, 64, 30
2, 119310, Control_c, 0, 64, 28
2, 119328, Control_c, 0, 64, 26
2, 119341, Note_on_c, 0, 64, 0
2, 119349, Control_c, 0, 64, 22
2, 119349, Note_on_c, 0, 59, 0
2, 119367, Control_c, 0, 64, 10
2, 119385, Control_c, 0, 64, 0
2, 119520, Control_c, 0, 64, 18
2, 119539, Control_c, 0, 64, 30
2, 119558, Control_c, 0, 64, 41
2, 119578, Control_c, 0, 64, 48
2, 119596, Control_c, 0, 64, 54
2, 119615, Control_c, 0, 64, 58
2, 119635, Control_c, 0, 64, 60
2, 119656, Control_c, 0, 64, 61
2, 119673, Control_c, 0, 64, 63
2, 119693, Control_c, 0, 64, 65
2, 119712, Control_c, 0, 64, 67
2, 119730, Control_c, 0, 64, 69
2, 119750, Control_c, 0, 64, 72
2, 119773, Control_c, 0, 64, 76
2, 119791, Control_c, 0, 64, 81
2, 119810, Control_c, 0, 64, 87
2, 119815, Note_on_c, 0, 63, 0
2, 119827, Control_c, 0, 64, 92
2, 119850, Control_c, 0, 64, 97
2, 119866, Control_c, 0, 64, 100
2, 119884, Control_c, 0, 64, 102
2, 119961, Control_c, 0, 64, 100
2, 119980, Control_c, 0, 64, 98
2, 120001, Control_c, 0, 64, 96
2, 120021, Control_c, 0, 64, 95
2, 120039, Control_c, 0, 64, 93
2, 120059, Control_c, 0, 64, 90
2, 120077, Control_c, 0, 64, 88
2, 120090, Note_on_c, 0, 63, 43
2, 120097, Control_c, 0, 64, 86
2, 120116, Control_c, 0, 64, 84
2, 120134, Control_c, 0, 64, 82
2, 120155, Control_c, 0, 64, 81
2, 120162, Note_on_c, 0, 63, 0
2, 120173, Control_c, 0, 64, 79
2, 120207, Note_on_c, 0, 62, 57
2, 120214, Control_c, 0, 64, 78
2, 120252, Control_c, 0, 64, 77
2, 120259, Note_on_c, 0, 62, 0
2, 120269, Control_c, 0, 64, 76
2, 120288, Control_c, 0, 64, 75
2, 120307, Note_on_c, 0, 63, 56
2, 120347, Note_on_c, 0, 63, 0
2, 120374, Note_on_c, 0, 62, 55
2, 120383, Control_c, 0, 64, 74
2, 120388, Note_on_c, 0, 59, 51
2, 120399, Note_on_c, 0, 62, 0
2, 120404, Control_c, 0, 64, 73
2, 120423, Control_c, 0, 64, 71
2, 120443, Note_on_c, 0, 60, 0
2, 120445, Control_c, 0, 64, 69
2, 120460, Control_c, 0, 64, 66
2, 120464, Note_on_c, 0, 63, 4
2, 120469, Note_on_c, 0, 62, 54
2, 120481, Control_c, 0, 64, 65
2, 120499, Control_c, 0, 64, 64
2, 120520, Note_on_c, 0, 62, 0
2, 120538, Control_c, 0, 64, 63
2, 120558, Control_c, 0, 64, 62
2, 120576, Note_on_c, 0, 59, 0
2, 120580, Control_c, 0, 64, 60
2, 120594, Control_c, 0, 64, 59
2, 120601, Note_on_c, 0, 57, 40
2, 120619, Note_on_c, 0, 63, 0
2, 120632, Note_on_c, 0, 62, 57
2, 120635, Control_c, 0, 64, 58
2, 120655, Control_c, 0, 64, 57
2, 120674, Control_c, 0, 64, 56
2, 120692, Control_c, 0, 64, 55
2, 120711, Control_c, 0, 64, 53
2, 120731, Control_c, 0, 64, 52
2, 120750, Control_c, 0, 64, 50
2, 120768, Control_c, 0, 64, 49
2, 120786, Control_c, 0, 64, 47
2, 120795, Note_on_c, 0, 57, 0
2, 120806, Control_c, 0, 64, 46
2, 120815, Note_on_c, 0, 60, 49
2, 120825, Control_c, 0, 64, 44
2, 120845, Control_c, 0, 64, 42
2, 120866, Control_c, 0, 64, 41
2, 120883, Control_c, 0, 64, 40
2, 120913, Note_on_c, 0, 60, 0
2, 120926, Note_on_c, 0, 59, 55
2, 120944, Control_c, 0, 64, 39
2, 120973, Note_on_c, 0, 59, 0
2, 120980, Control_c, 0, 64, 38
2, 121000, Control_c, 0, 64, 37
2, 121004, Note_on_c, 0, 60, 51
2, 121039, Control_c, 0, 64, 36
2, 121052, Note_on_c, 0, 60, 0
2, 121074, Note_on_c, 0, 59, 61
2, 121078, Control_c, 0, 64, 35
2, 121095, Control_c, 0, 64, 34
2, 121111, Note_on_c, 0, 59, 0
2, 121115, Control_c, 0, 64, 33
2, 121135, Control_c, 0, 64, 31
2, 121149, Note_on_c, 0, 60, 65
2, 121154, Control_c, 0, 64, 30
2, 121169, Control_c, 0, 64, 29
2, 121190, Control_c, 0, 64, 27
2, 121197, Note_on_c, 0, 60, 0
2, 121201, Note_on_c, 0, 59, 59
2, 121210, Control_c, 0, 64, 25
2, 121228, Control_c, 0, 64, 24
2, 121249, Control_c, 0, 64, 22
2, 121263, Note_on_c, 0, 59, 0
2, 121267, Control_c, 0, 64, 20
2, 121286, Control_c, 0, 64, 18
2, 121294, Note_on_c, 0, 57, 56
2, 121306, Control_c, 0, 64, 16
2, 121323, Control_c, 0, 64, 10
2, 121344, Control_c, 0, 64, 0
2, 121348, Note_on_c, 0, 57, 0
2, 121406, Note_on_c, 0, 59, 50
2, 121488, Note_on_c, 0, 62, 0
2, 121494, Note_on_c, 0, 60, 53
2, 121518, Note_on_c, 0, 59, 0
2, 121594, Control_c, 0, 64, 35
2, 121615, Control_c, 0, 64, 51
2, 121632, Control_c, 0, 64, 60
2, 121652, Control_c, 0, 64, 63
2, 121670, Control_c, 0, 64, 64
2, 121689, Control_c, 0, 64, 65
2, 121708, Control_c, 0, 64, 68
2, 121728, Control_c, 0, 64, 73
2, 121748, Control_c, 0, 64, 82
2, 121768, Control_c, 0, 64, 93
2, 121768, Note_on_c, 0, 60, 0
2, 121787, Control_c, 0, 64, 103
2, 121806, Control_c, 0, 64, 107
2, 121895, Note_on_c, 0, 60, 50
2, 121907, Note_on_c, 0, 55, 53
2, 121939, Control_c, 0, 64, 106
2, 121959, Control_c, 0, 64, 104
2, 121977, Control_c, 0, 64, 102
2, 121997, Control_c, 0, 64, 101
2, 122017, Control_c, 0, 64, 99
2, 122036, Control_c, 0, 64, 97
2, 122055, Control_c, 0, 64, 96
2, 122074, Control_c, 0, 64, 94
2, 122088, Note_on_c, 0, 62, 67
2, 122096, Control_c, 0, 64, 92
2, 122096, Note_on_c, 0, 60, 0
2, 122112, Control_c, 0, 64, 91
2, 122129, Control_c, 0, 64, 89
2, 122151, Control_c, 0, 64, 87
2, 122169, Control_c, 0, 64, 86
2, 122190, Control_c, 0, 64, 84
2, 122206, Control_c, 0, 64, 82
2, 122227, Control_c, 0, 64, 79
2, 122247, Control_c, 0, 64, 76
2, 122265, Control_c, 0, 64, 74
2, 122285, Control_c, 0, 64, 73
2, 122305, Control_c, 0, 64, 72
2, 122327, Control_c, 0, 64, 70
2, 122337, Note_on_c, 0, 62, 0
2, 122341, Note_on_c, 0, 48, 67
2, 122346, Control_c, 0, 64, 67
2, 122355, Note_on_c, 0, 64, 57
2, 122362, Control_c, 0, 64, 61
2, 122379, Note_on_c, 0, 60, 47
2, 122383, Control_c, 0, 64, 49
2, 122400, Control_c, 0, 64, 30
2, 122422, Control_c, 0, 64, 11
2, 122438, Control_c, 0, 64, 0
2, 122459, Control_c, 0, 64, 10
2, 122459, Note_on_c, 0, 55, 0
2, 122477, Control_c, 0, 64, 24
2, 122496, Control_c, 0, 64, 39
2, 122516, Control_c, 0, 64, 54
2, 122537, Control_c, 0, 64, 62
2, 122553, Control_c, 0, 64, 65
2, 122574, Control_c, 0, 64, 67
2, 122594, Control_c, 0, 64, 70
2, 122611, Control_c, 0, 64, 74
2, 122630, Control_c, 0, 64, 79
2, 122650, Control_c, 0, 64, 85
2, 122668, Control_c, 0, 64, 90
2, 122687, Control_c, 0, 64, 92
2, 122716, Note_on_c, 0, 64, 0
2, 122736, Note_on_c, 0, 60, 0
2, 122747, Note_on_c, 0, 62, 58
2, 122751, Note_on_c, 0, 58, 58
2, 122787, Note_on_c, 0, 58, 0
2, 122804, Control_c, 0, 64, 91
2, 122824, Control_c, 0, 64, 90
2, 122841, Control_c, 0, 64, 89
2, 122861, Control_c, 0, 64, 88
2, 122880, Control_c, 0, 64, 87
2, 122900, Control_c, 0, 64, 85
2, 122917, Control_c, 0, 64, 84
2, 122938, Note_on_c, 0, 64, 70
2, 122943, Control_c, 0, 64, 82
2, 122943, Note_on_c, 0, 62, 0
2, 122959, Control_c, 0, 64, 80
2, 122978, Control_c, 0, 64, 77
2, 122994, Control_c, 0, 64, 73
2, 123013, Control_c, 0, 64, 70
2, 123033, Control_c, 0, 64, 67
2, 123052, Control_c, 0, 64, 65
2, 123070, Control_c, 0, 64, 64
2, 123092, Control_c, 0, 64, 63
2, 123129, Control_c, 0, 64, 62
2, 123142, Note_on_c, 0, 64, 0
2, 123154, Note_on_c, 0, 49, 65
2, 123165, Note_on_c, 0, 65, 54
2, 123170, Control_c, 0, 64, 61
2, 123183, Note_on_c, 0, 56, 48
2, 123187, Control_c, 0, 64, 60
2, 123225, Control_c, 0, 64, 59
2, 123248, Control_c, 0, 64, 58
2, 123248, Note_on_c, 0, 48, 0
2, 123264, Control_c, 0, 64, 57
2, 123268, Note_on_c, 0, 65, 0
2, 123286, Control_c, 0, 64, 55
2, 123302, Control_c, 0, 64, 53
2, 123322, Control_c, 0, 64, 50
2, 123342, Control_c, 0, 64, 45
2, 123347, Note_on_c, 0, 52, 64
2, 123360, Control_c, 0, 64, 35
2, 123380, Control_c, 0, 64, 14
2, 123401, Control_c, 0, 64, 0
2, 123525, Note_on_c, 0, 52, 0
2, 123559, Note_on_c, 0, 53, 54
2, 123559, Note_on_c, 0, 65, 61
2, 123571, Control_c, 0, 64, 20
2, 123591, Control_c, 0, 64, 38
2, 123603, Note_on_c, 0, 56, 0
2, 123610, Control_c, 0, 64, 49
2, 123633, Control_c, 0, 64, 56
2, 123647, Control_c, 0, 64, 60
2, 123667, Control_c, 0, 64, 62
2, 123681, Note_on_c, 0, 53, 0
2, 123686, Control_c, 0, 64, 64
2, 123705, Control_c, 0, 64, 66
2, 123725, Control_c, 0, 64, 69
2, 123736, Note_on_c, 0, 55, 68
2, 123745, Control_c, 0, 64, 73
2, 123764, Control_c, 0, 64, 79
2, 123783, Control_c, 0, 64, 84
2, 123801, Control_c, 0, 64, 85
2, 123840, Control_c, 0, 64, 84
2, 123859, Control_c, 0, 64, 83
2, 123898, Control_c, 0, 64, 81
2, 123916, Control_c, 0, 64, 79
2, 123937, Control_c, 0, 64, 75
2, 123946, Note_on_c, 0, 48, 68
2, 123955, Control_c, 0, 64, 70
2, 123957, Note_on_c, 0, 55, 0
2, 123977, Control_c, 0, 64, 64
2, 123977, Note_on_c, 0, 56, 64
2, 123996, Control_c, 0, 64, 57
2, 124001, Note_on_c, 0, 49, 0
2, 124012, Control_c, 0, 64, 50
2, 124033, Control_c, 0, 64, 43
2, 124051, Control_c, 0, 64, 35
2, 124072, Control_c, 0, 64, 25
2, 124089, Control_c, 0, 64, 18
2, 124109, Control_c, 0, 64, 16
2, 124208, Control_c, 0, 64, 18
2, 124223, Control_c, 0, 64, 20
2, 124242, Control_c, 0, 64, 21
2, 124263, Control_c, 0, 64, 22
2, 124281, Control_c, 0, 64, 24
2, 124301, Control_c, 0, 64, 26
2, 124320, Control_c, 0, 64, 28
2, 124338, Control_c, 0, 64, 30
2, 124395, Note_on_c, 0, 63, 61
2, 124436, Note_on_c, 0, 65, 0
2, 124454, Control_c, 0, 64, 31
2, 124493, Control_c, 0, 64, 32
2, 124815, Note_on_c, 0, 47, 67
2, 124834, Note_on_c, 0, 62, 54
2, 124923, Note_on_c, 0, 63, 0
2, 124928, Note_on_c, 0, 56, 0
2, 124971, Note_on_c, 0, 48, 0
2, 125010, Note_on_c, 0, 53, 63
2, 125193, Note_on_c, 0, 53, 0
2, 125204, Note_on_c, 0, 55, 66
2, 125213, Note_on_c, 0, 63, 63
2, 125358, Control_c, 0, 64, 31
2, 125399, Note_on_c, 0, 56, 71
2, 125399, Note_on_c, 0, 65, 65
2, 125406, Note_on_c, 0, 55, 0
2, 125415, Control_c, 0, 64, 30
2, 125429, Note_on_c, 0, 63, 0
2, 125491, Control_c, 0, 64, 29
2, 125509, Control_c, 0, 64, 28
2, 125549, Control_c, 0, 64, 27
2, 125625, Control_c, 0, 64, 26
2, 125641, Note_on_c, 0, 65, 0
2, 125646, Control_c, 0, 64, 25
2, 125653, Note_on_c, 0, 52, 72
2, 125653, Note_on_c, 0, 58, 64
2, 125659, Note_on_c, 0, 67, 59
2, 125663, Control_c, 0, 64, 24
2, 125686, Control_c, 0, 64, 22
2, 125686, Note_on_c, 0, 56, 0
2, 125701, Control_c, 0, 64, 18
2, 125723, Control_c, 0, 64, 11
2, 125742, Control_c, 0, 64, 0
2, 125765, Note_on_c, 0, 47, 0
2, 125867, Note_on_c, 0, 65, 68
2, 125896, Control_c, 0, 64, 20
2, 125916, Control_c, 0, 64, 33
2, 125920, Note_on_c, 0, 62, 0
2, 125920, Note_on_c, 0, 67, 0
2, 125937, Control_c, 0, 64, 44
2, 125954, Control_c, 0, 64, 53
2, 125974, Control_c, 0, 64, 59
2, 125991, Control_c, 0, 64, 61
2, 126011, Control_c, 0, 64, 62
2, 126030, Control_c, 0, 64, 63
2, 126049, Control_c, 0, 64, 65
2, 126056, Note_on_c, 0, 64, 73
2, 126070, Control_c, 0, 64, 67
2, 126087, Control_c, 0, 64, 69
2, 126098, Note_on_c, 0, 65, 0
2, 126110, Control_c, 0, 64, 73
2, 126127, Control_c, 0, 64, 77
2, 126148, Control_c, 0, 64, 81
2, 126148, Note_on_c, 0, 58, 0
2, 126168, Control_c, 0, 64, 86
2, 126183, Control_c, 0, 64, 90
2, 126194, Note_on_c, 0, 64, 0
2, 126203, Control_c, 0, 64, 92
2, 126223, Control_c, 0, 64, 94
2, 126231, Note_on_c, 0, 62, 75
2, 126299, Control_c, 0, 64, 92
2, 126318, Control_c, 0, 64, 90
2, 126337, Control_c, 0, 64, 88
2, 126342, Note_on_c, 0, 62, 0
2, 126357, Control_c, 0, 64, 86
2, 126376, Control_c, 0, 64, 83
2, 126396, Control_c, 0, 64, 80
2, 126416, Control_c, 0, 64, 76
2, 126433, Control_c, 0, 64, 73
2, 126455, Control_c, 0, 64, 69
2, 126455, Note_on_c, 0, 53, 73
2, 126475, Control_c, 0, 64, 66
2, 126475, Note_on_c, 0, 60, 59
2, 126492, Control_c, 0, 64, 64
2, 126509, Control_c, 0, 64, 63
2, 126529, Control_c, 0, 64, 62
2, 126562, Note_on_c, 0, 52, 0
2, 126566, Control_c, 0, 64, 61
2, 126589, Control_c, 0, 64, 60
2, 126607, Control_c, 0, 64, 58
2, 126626, Control_c, 0, 64, 54
2, 126646, Control_c, 0, 64, 46
2, 126662, Note_on_c, 0, 56, 63
2, 126666, Control_c, 0, 64, 30
2, 126684, Control_c, 0, 64, 13
2, 126703, Control_c, 0, 64, 0
2, 126761, Control_c, 0, 64, 13
2, 126780, Control_c, 0, 64, 25
2, 126799, Control_c, 0, 64, 38
2, 126818, Control_c, 0, 64, 49
2, 126838, Control_c, 0, 64, 58
2, 126859, Control_c, 0, 64, 62
2, 126859, Note_on_c, 0, 58, 72
2, 126875, Control_c, 0, 64, 64
2, 126896, Control_c, 0, 64, 66
2, 126901, Note_on_c, 0, 60, 0
2, 126913, Control_c, 0, 64, 68
2, 126933, Control_c, 0, 64, 71
2, 126952, Control_c, 0, 64, 74
2, 126970, Control_c, 0, 64, 78
2, 126990, Control_c, 0, 64, 82
2, 127035, Note_on_c, 0, 60, 77
2, 127065, Note_on_c, 0, 58, 0
2, 127069, Control_c, 0, 64, 81
2, 127086, Control_c, 0, 64, 80
2, 127107, Control_c, 0, 64, 78
2, 127126, Control_c, 0, 64, 77
2, 127146, Control_c, 0, 64, 75
2, 127163, Control_c, 0, 64, 73
2, 127186, Control_c, 0, 64, 71
2, 127202, Control_c, 0, 64, 70
2, 127223, Control_c, 0, 64, 68
2, 127241, Control_c, 0, 64, 66
2, 127262, Control_c, 0, 64, 65
2, 127275, Note_on_c, 0, 46, 73
2, 127280, Control_c, 0, 64, 64
2, 127291, Note_on_c, 0, 56, 0
2, 127291, Note_on_c, 0, 60, 0
2, 127291, Note_on_c, 0, 61, 61
2, 127298, Control_c, 0, 64, 63
2, 127355, Control_c, 0, 64, 62
2, 127392, Control_c, 0, 64, 61
2, 127414, Control_c, 0, 64, 60
2, 127431, Control_c, 0, 64, 59
2, 127477, Note_on_c, 0, 53, 0
2, 127481, Note_on_c, 0, 58, 64
2, 127494, Control_c, 0, 64, 58
2, 127510, Control_c, 0, 64, 57
2, 127528, Control_c, 0, 64, 56
2, 127548, Control_c, 0, 64, 54
2, 127568, Control_c, 0, 64, 52
2, 127587, Control_c, 0, 64, 50
2, 127605, Control_c, 0, 64, 48
2, 127625, Control_c, 0, 64, 44
2, 127644, Control_c, 0, 64, 42
2, 127662, Control_c, 0, 64, 40
2, 127683, Control_c, 0, 64, 39
2, 127692, Note_on_c, 0, 56, 67
2, 127772, Note_on_c, 0, 58, 0
2, 127869, Note_on_c, 0, 55, 65
2, 127978, Note_on_c, 0, 61, 0
2, 127996, Note_on_c, 0, 56, 0
2, 128084, Note_on_c, 0, 45, 67
2, 128106, Note_on_c, 0, 53, 58
2, 128126, Control_c, 0, 64, 40
2, 128159, Note_on_c, 0, 46, 0
2, 128275, Note_on_c, 0, 55, 0
2, 128283, Note_on_c, 0, 60, 71
2, 128317, Control_c, 0, 64, 41
2, 128472, Note_on_c, 0, 62, 77
2, 128554, Note_on_c, 0, 60, 0
2, 128662, Note_on_c, 0, 64, 82
2, 128709, Note_on_c, 0, 62, 0
2, 128887, Note_on_c, 0, 44, 79
2, 128900, Note_on_c, 0, 65, 66
2, 128909, Note_on_c, 0, 53, 0
2, 128941, Note_on_c, 0, 45, 0
2, 128951, Control_c, 0, 64, 40
2, 128963, Note_on_c, 0, 64, 0
2, 129007, Control_c, 0, 64, 39
2, 129043, Control_c, 0, 64, 38
2, 129065, Control_c, 0, 64, 37
2, 129092, Note_on_c, 0, 53, 59
2, 129103, Control_c, 0, 64, 36
2, 129141, Control_c, 0, 64, 35
2, 129159, Control_c, 0, 64, 34
2, 129256, Control_c, 0, 64, 37
2, 129276, Control_c, 0, 64, 43
2, 129296, Control_c, 0, 64, 50
2, 129299, Note_on_c, 0, 55, 67
2, 129314, Control_c, 0, 64, 57
2, 129332, Control_c, 0, 64, 61
2, 129346, Note_on_c, 0, 53, 0
2, 129353, Control_c, 0, 64, 63
2, 129374, Control_c, 0, 64, 64
2, 129392, Control_c, 0, 64, 66
2, 129409, Control_c, 0, 64, 68
2, 129430, Control_c, 0, 64, 71
2, 129448, Control_c, 0, 64, 75
2, 129468, Control_c, 0, 64, 81
2, 129485, Control_c, 0, 64, 89
2, 129496, Note_on_c, 0, 55, 0
2, 129504, Note_on_c, 0, 56, 74
2, 129509, Control_c, 0, 64, 94
2, 129524, Control_c, 0, 64, 97
2, 129544, Control_c, 0, 64, 99
2, 129583, Control_c, 0, 64, 100
2, 129660, Control_c, 0, 64, 98
2, 129679, Control_c, 0, 64, 95
2, 129698, Control_c, 0, 64, 93
2, 129716, Control_c, 0, 64, 90
2, 129720, Note_on_c, 0, 44, 0
2, 129720, Note_on_c, 0, 44, 35
2, 129736, Control_c, 0, 64, 88
2, 129757, Control_c, 0, 64, 85
2, 129772, Note_on_c, 0, 58, 63
2, 129776, Control_c, 0, 64, 83
2, 129794, Control_c, 0, 64, 80
2, 129806, Note_on_c, 0, 56, 0
2, 129813, Control_c, 0, 64, 77
2, 129832, Control_c, 0, 64, 73
2, 129850, Control_c, 0, 64, 70
2, 129870, Control_c, 0, 64, 67
2, 129893, Control_c, 0, 64, 65
2, 129895, Note_on_c, 0, 44, 0
2, 129907, Control_c, 0, 64, 64
2, 129911, Note_on_c, 0, 43, 61
2, 129928, Control_c, 0, 64, 63
2, 129969, Control_c, 0, 64, 62
2, 129987, Control_c, 0, 64, 61
2, 130000, Note_on_c, 0, 43, 0
2, 130008, Control_c, 0, 64, 60
2, 130008, Note_on_c, 0, 44, 66
2, 130044, Control_c, 0, 64, 59
2, 130077, Note_on_c, 0, 43, 66
2, 130082, Control_c, 0, 64, 58
2, 130082, Note_on_c, 0, 44, 0
2, 130104, Control_c, 0, 64, 57
2, 130139, Control_c, 0, 64, 56
2, 130148, Note_on_c, 0, 43, 0
2, 130152, Note_on_c, 0, 44, 67
2, 130159, Control_c, 0, 64, 55
2, 130163, Note_on_c, 0, 64, 70
2, 130178, Control_c, 0, 64, 54
2, 130182, Note_on_c, 0, 65, 0
2, 130196, Control_c, 0, 64, 53
2, 130217, Control_c, 0, 64, 52
2, 130228, Note_on_c, 0, 43, 70
2, 130228, Note_on_c, 0, 44, 0
2, 130241, Control_c, 0, 64, 51
2, 130274, Control_c, 0, 64, 50
2, 130285, Note_on_c, 0, 43, 0
2, 130296, Control_c, 0, 64, 48
2, 130296, Note_on_c, 0, 44, 72
2, 130312, Control_c, 0, 64, 47
2, 130332, Control_c, 0, 64, 46
2, 130341, Note_on_c, 0, 62, 69
2, 130350, Control_c, 0, 64, 45
2, 130362, Note_on_c, 0, 64, 0
2, 130369, Note_on_c, 0, 43, 70
2, 130374, Control_c, 0, 64, 44
2, 130378, Note_on_c, 0, 44, 0
2, 130390, Control_c, 0, 64, 42
2, 130407, Control_c, 0, 64, 41
2, 130426, Control_c, 0, 64, 40
2, 130430, Note_on_c, 0, 43, 0
2, 130435, Note_on_c, 0, 44, 69
2, 130447, Control_c, 0, 64, 39
2, 130466, Control_c, 0, 64, 38
2, 130488, Control_c, 0, 64, 37
2, 130505, Control_c, 0, 64, 36
2, 130521, Note_on_c, 0, 43, 70
2, 130525, Control_c, 0, 64, 35
2, 130530, Note_on_c, 0, 44, 0
2, 130545, Control_c, 0, 64, 34
2, 130561, Control_c, 0, 64, 33
2, 130576, Note_on_c, 0, 64, 70
2, 130581, Control_c, 0, 64, 29
2, 130587, Note_on_c, 0, 62, 0
2, 130600, Control_c, 0, 64, 22
2, 130622, Control_c, 0, 64, 0
2, 130988, Note_on_c, 0, 58, 0
2, 131011, Note_on_c, 0, 56, 60
2, 131198, Note_on_c, 0, 64, 0
2, 131214, Note_on_c, 0, 55, 53
2, 131219, Note_on_c, 0, 56, 0
2, 131509, Note_on_c, 0, 65, 48
2, 131526, Note_on_c, 0, 55, 0
2, 131537, Note_on_c, 0, 56, 38
2, 131540, Note_on_c, 0, 41, 38
2, 131544, Note_on_c, 0, 43, 0
2, 131637, Control_c, 0, 64, 20
2, 131655, Control_c, 0, 64, 42
2, 131676, Control_c, 0, 64, 56
2, 131695, Control_c, 0, 64, 62
2, 131713, Control_c, 0, 64, 65
2, 131731, Control_c, 0, 64, 67
2, 131747, Note_on_c, 0, 65, 0
2, 131752, Control_c, 0, 64, 71
2, 131771, Control_c, 0, 64, 74
2, 131790, Control_c, 0, 64, 78
2, 131810, Control_c, 0, 64, 82
2, 131810, Note_on_c, 0, 41, 0
2, 131832, Control_c, 0, 64, 84
2, 131886, Control_c, 0, 64, 83
2, 131906, Control_c, 0, 64, 82
2, 131926, Control_c, 0, 64, 81
2, 131964, Control_c, 0, 64, 79
2, 131979, Note_on_c, 0, 65, 43
2, 131983, Control_c, 0, 64, 77
2, 132002, Control_c, 0, 64, 74
2, 132021, Control_c, 0, 64, 70
2, 132040, Control_c, 0, 64, 68
2, 132059, Control_c, 0, 64, 66
2, 132078, Control_c, 0, 64, 64
2, 132098, Control_c, 0, 64, 63
2, 132116, Control_c, 0, 64, 62
2, 132135, Control_c, 0, 64, 61
2, 132152, Note_on_c, 0, 67, 57
2, 132157, Control_c, 0, 64, 60
2, 132168, Note_on_c, 0, 65, 0
2, 132175, Control_c, 0, 64, 59
2, 132184, Note_on_c, 0, 56, 0
2, 132212, Control_c, 0, 64, 58
2, 132232, Control_c, 0, 64, 57
2, 132255, Control_c, 0, 64, 56
2, 132270, Control_c, 0, 64, 53
2, 132289, Control_c, 0, 64, 46
2, 132308, Control_c, 0, 64, 31
2, 132328, Control_c, 0, 64, 9
2, 132348, Control_c, 0, 64, 0
2, 132374, Note_on_c, 0, 67, 0
2, 132382, Note_on_c, 0, 68, 61
2, 132427, Control_c, 0, 64, 10
2, 132443, Control_c, 0, 64, 35
2, 132461, Control_c, 0, 64, 50
2, 132482, Control_c, 0, 64, 60
2, 132503, Control_c, 0, 64, 65
2, 132519, Control_c, 0, 64, 69
2, 132538, Control_c, 0, 64, 73
2, 132558, Control_c, 0, 64, 78
2, 132564, Note_on_c, 0, 68, 0
2, 132578, Control_c, 0, 64, 82
2, 132597, Control_c, 0, 64, 84
2, 132615, Control_c, 0, 64, 85
2, 132674, Control_c, 0, 64, 83
2, 132695, Control_c, 0, 64, 81
2, 132714, Control_c, 0, 64, 78
2, 132732, Control_c, 0, 64, 75
2, 132752, Control_c, 0, 64, 72
2, 132770, Control_c, 0, 64, 69
2, 132790, Control_c, 0, 64, 67
2, 132799, Note_on_c, 0, 68, 51
2, 132810, Control_c, 0, 64, 65
2, 132814, Note_on_c, 0, 53, 38
2, 132828, Control_c, 0, 64, 64
2, 132847, Control_c, 0, 64, 63
2, 132865, Control_c, 0, 64, 62
2, 132886, Control_c, 0, 64, 61
2, 132903, Control_c, 0, 64, 60
2, 132933, Note_on_c, 0, 53, 0
2, 132942, Control_c, 0, 64, 59
2, 132962, Control_c, 0, 64, 57
2, 132983, Control_c, 0, 64, 56
2, 132983, Note_on_c, 0, 55, 45
2, 132983, Note_on_c, 0, 70, 66
2, 133000, Control_c, 0, 64, 53
2, 133009, Note_on_c, 0, 68, 0
2, 133021, Control_c, 0, 64, 51
2, 133041, Control_c, 0, 64, 49
2, 133057, Control_c, 0, 64, 47
2, 133075, Control_c, 0, 64, 45
2, 133097, Control_c, 0, 64, 42
2, 133116, Control_c, 0, 64, 38
2, 133135, Control_c, 0, 64, 30
2, 133153, Control_c, 0, 64, 17
2, 133171, Control_c, 0, 64, 0
2, 133176, Note_on_c, 0, 55, 0
2, 133197, Note_on_c, 0, 70, 0
2, 133213, Note_on_c, 0, 72, 64
2, 133227, Note_on_c, 0, 56, 47
2, 133289, Control_c, 0, 64, 26
2, 133308, Control_c, 0, 64, 42
2, 133325, Control_c, 0, 64, 55
2, 133344, Control_c, 0, 64, 63
2, 133365, Control_c, 0, 64, 67
2, 133384, Control_c, 0, 64, 72
2, 133402, Control_c, 0, 64, 81
2, 133423, Control_c, 0, 64, 93
2, 133443, Control_c, 0, 64, 112
2, 133447, Note_on_c, 0, 56, 0
2, 133465, Control_c, 0, 64, 127
2, 133614, Control_c, 0, 64, 105
2, 133621, Note_on_c, 0, 60, 58
2, 133637, Control_c, 0, 64, 96
2, 133641, Note_on_c, 0, 56, 50
2, 133657, Control_c, 0, 64, 90
2, 133672, Control_c, 0, 64, 85
2, 133691, Control_c, 0, 64, 80
2, 133711, Control_c, 0, 64, 76
2, 133733, Control_c, 0, 64, 72
2, 133751, Control_c, 0, 64, 69
2, 133766, Control_c, 0, 64, 65
2, 133788, Control_c, 0, 64, 63
2, 133807, Control_c, 0, 64, 60
2, 133811, Note_on_c, 0, 61, 62
2, 133815, Note_on_c, 0, 58, 62
2, 133826, Control_c, 0, 64, 58
2, 133846, Control_c, 0, 64, 56
2, 133846, Note_on_c, 0, 56, 0
2, 133853, Note_on_c, 0, 60, 0
2, 133864, Control_c, 0, 64, 53
2, 133885, Control_c, 0, 64, 48
2, 133903, Control_c, 0, 64, 44
2, 133921, Control_c, 0, 64, 40
2, 133941, Control_c, 0, 64, 37
2, 133959, Control_c, 0, 64, 36
2, 134005, Note_on_c, 0, 58, 0
2, 134034, Note_on_c, 0, 60, 53
2, 134050, Note_on_c, 0, 63, 56
2, 134083, Note_on_c, 0, 61, 0
2, 134115, Control_c, 0, 64, 37
2, 134134, Control_c, 0, 64, 38
2, 134154, Control_c, 0, 64, 39
2, 134191, Control_c, 0, 64, 40
2, 134234, Note_on_c, 0, 70, 61
2, 134252, Note_on_c, 0, 72, 0
2, 134306, Control_c, 0, 64, 41
2, 134423, Control_c, 0, 64, 42
2, 134423, Note_on_c, 0, 70, 0
2, 134439, Note_on_c, 0, 68, 59
2, 134454, Note_on_c, 0, 48, 37
2, 134581, Note_on_c, 0, 68, 0
2, 134611, Note_on_c, 0, 67, 54
2, 134878, Note_on_c, 0, 65, 43
2, 134898, Note_on_c, 0, 67, 0
2, 134918, Note_on_c, 0, 49, 37
2, 134922, Note_on_c, 0, 60, 0
2, 135011, Note_on_c, 0, 48, 0
2, 135055, Control_c, 0, 64, 41
2, 135091, Control_c, 0, 64, 40
2, 135111, Control_c, 0, 64, 39
2, 135132, Control_c, 0, 64, 38
2, 135172, Control_c, 0, 64, 37
2, 135189, Control_c, 0, 64, 36
2, 135227, Control_c, 0, 64, 35
2, 135303, Control_c, 0, 64, 34
2, 135337, Note_on_c, 0, 61, 41
2, 135345, Control_c, 0, 64, 33
2, 135361, Control_c, 0, 64, 32
2, 135378, Note_on_c, 0, 63, 0
2, 135382, Control_c, 0, 64, 31
2, 135402, Control_c, 0, 64, 29
2, 135419, Control_c, 0, 64, 26
2, 135438, Control_c, 0, 64, 20
2, 135457, Control_c, 0, 64, 11
2, 135479, Control_c, 0, 64, 0
2, 135516, Note_on_c, 0, 63, 57
2, 135559, Note_on_c, 0, 65, 0
2, 135571, Note_on_c, 0, 61, 0
2, 135723, Note_on_c, 0, 65, 43
2, 135758, Note_on_c, 0, 63, 0
2, 135784, Control_c, 0, 64, 38
2, 135803, Control_c, 0, 64, 56
2, 135822, Control_c, 0, 64, 64
2, 135843, Control_c, 0, 64, 67
2, 135861, Control_c, 0, 64, 69
2, 135881, Control_c, 0, 64, 71
2, 135899, Control_c, 0, 64, 72
2, 135917, Control_c, 0, 64, 73
2, 135924, Note_on_c, 0, 65, 0
2, 135947, Note_on_c, 0, 49, 0
2, 135978, Control_c, 0, 64, 72
2, 135996, Control_c, 0, 64, 70
2, 136015, Control_c, 0, 64, 68
2, 136032, Control_c, 0, 64, 66
2, 136051, Control_c, 0, 64, 65
2, 136071, Control_c, 0, 64, 64
2, 136091, Control_c, 0, 64, 63
2, 136108, Control_c, 0, 64, 62
2, 136128, Control_c, 0, 64, 61
2, 136133, Note_on_c, 0, 49, 32
2, 136145, Note_on_c, 0, 65, 45
2, 136150, Control_c, 0, 64, 60
2, 136169, Control_c, 0, 64, 59
2, 136208, Control_c, 0, 64, 58
2, 136226, Control_c, 0, 64, 57
2, 136245, Control_c, 0, 64, 56
2, 136263, Control_c, 0, 64, 55
2, 136283, Control_c, 0, 64, 53
2, 136304, Control_c, 0, 64, 52
2, 136315, Note_on_c, 0, 49, 0
2, 136321, Control_c, 0, 64, 50
2, 136327, Note_on_c, 0, 67, 67
2, 136341, Control_c, 0, 64, 47
2, 136345, Note_on_c, 0, 51, 48
2, 136360, Control_c, 0, 64, 45
2, 136367, Note_on_c, 0, 65, 0
2, 136383, Control_c, 0, 64, 43
2, 136399, Control_c, 0, 64, 42
2, 136418, Control_c, 0, 64, 40
2, 136438, Control_c, 0, 64, 37
2, 136457, Control_c, 0, 64, 33
2, 136475, Control_c, 0, 64, 28
2, 136493, Control_c, 0, 64, 25
2, 136517, Control_c, 0, 64, 20
2, 136533, Control_c, 0, 64, 0
2, 136550, Note_on_c, 0, 68, 70
2, 136554, Note_on_c, 0, 51, 0
2, 136565, Note_on_c, 0, 53, 48
2, 136582, Note_on_c, 0, 67, 0
2, 136801, Note_on_c, 0, 53, 0
2, 136967, Note_on_c, 0, 56, 61
2, 136985, Note_on_c, 0, 53, 48
2, 137116, Note_on_c, 0, 53, 0
2, 137143, Note_on_c, 0, 56, 0
2, 137150, Note_on_c, 0, 58, 69
2, 137164, Note_on_c, 0, 55, 53
2, 137353, Note_on_c, 0, 55, 0
2, 137359, Note_on_c, 0, 58, 0
2, 137363, Note_on_c, 0, 60, 63
2, 137370, Note_on_c, 0, 56, 54
2, 137490, Note_on_c, 0, 68, 0
2, 137514, Control_c, 0, 64, 8
2, 137544, Note_on_c, 0, 66, 60
2, 137590, Control_c, 0, 64, 9
2, 137719, Note_on_c, 0, 66, 0
2, 137759, Note_on_c, 0, 65, 51
2, 137774, Note_on_c, 0, 44, 44
2, 137818, Control_c, 0, 64, 10
2, 137838, Control_c, 0, 64, 11
2, 137877, Control_c, 0, 64, 12
2, 137945, Note_on_c, 0, 63, 59
2, 137960, Note_on_c, 0, 65, 0
2, 138191, Note_on_c, 0, 61, 49
2, 138206, Note_on_c, 0, 46, 38
2, 138218, Note_on_c, 0, 63, 0
2, 138231, Note_on_c, 0, 44, 0
2, 138316, Note_on_c, 0, 56, 0
2, 138357, Control_c, 0, 64, 13
2, 138377, Control_c, 0, 64, 14
2, 138646, Note_on_c, 0, 58, 47
2, 138659, Note_on_c, 0, 60, 0
2, 138801, Control_c, 0, 64, 13
2, 138801, Note_on_c, 0, 61, 0
2, 138833, Note_on_c, 0, 60, 57
2, 138872, Note_on_c, 0, 58, 0
2, 138877, Control_c, 0, 64, 12
2, 138933, Control_c, 0, 64, 11
2, 138952, Control_c, 0, 64, 9
2, 138972, Control_c, 0, 64, 0
2, 139048, Note_on_c, 0, 61, 47
2, 139053, Note_on_c, 0, 60, 0
2, 139183, Control_c, 0, 64, 36
2, 139203, Control_c, 0, 64, 51
2, 139223, Control_c, 0, 64, 60
2, 139239, Control_c, 0, 64, 63
2, 139260, Control_c, 0, 64, 65
2, 139278, Control_c, 0, 64, 67
2, 139287, Note_on_c, 0, 46, 0
2, 139291, Note_on_c, 0, 61, 0
2, 139296, Control_c, 0, 64, 69
2, 139318, Control_c, 0, 64, 73
2, 139336, Control_c, 0, 64, 76
2, 139355, Control_c, 0, 64, 77
2, 139432, Control_c, 0, 64, 76
2, 139451, Control_c, 0, 64, 74
2, 139456, Note_on_c, 0, 61, 53
2, 139466, Note_on_c, 0, 46, 34
2, 139470, Control_c, 0, 64, 73
2, 139489, Control_c, 0, 64, 70
2, 139510, Control_c, 0, 64, 68
2, 139530, Control_c, 0, 64, 65
2, 139545, Control_c, 0, 64, 63
2, 139568, Control_c, 0, 64, 61
2, 139586, Control_c, 0, 64, 60
2, 139605, Control_c, 0, 64, 59
2, 139645, Control_c, 0, 64, 58
2, 139656, Note_on_c, 0, 46, 0
2, 139656, Note_on_c, 0, 63, 66
2, 139660, Note_on_c, 0, 48, 46
2, 139663, Control_c, 0, 64, 57
2, 139683, Control_c, 0, 64, 55
2, 139692, Note_on_c, 0, 61, 0
2, 139701, Control_c, 0, 64, 54
2, 139721, Control_c, 0, 64, 52
2, 139741, Control_c, 0, 64, 50
2, 139761, Control_c, 0, 64, 48
2, 139779, Control_c, 0, 64, 47
2, 139798, Control_c, 0, 64, 46
2, 139815, Control_c, 0, 64, 44
2, 139836, Control_c, 0, 64, 43
2, 139855, Control_c, 0, 64, 41
2, 139870, Note_on_c, 0, 48, 0
2, 139879, Control_c, 0, 64, 36
2, 139879, Note_on_c, 0, 65, 64
2, 139892, Control_c, 0, 64, 29
2, 139897, Note_on_c, 0, 49, 46
2, 139907, Note_on_c, 0, 63, 0
2, 139911, Control_c, 0, 64, 11
2, 139934, Control_c, 0, 64, 0
2, 140127, Note_on_c, 0, 49, 0
2, 140254, Note_on_c, 0, 53, 62
2, 140300, Note_on_c, 0, 49, 51
2, 140440, Note_on_c, 0, 55, 66
2, 140460, Note_on_c, 0, 51, 65
2, 140498, Note_on_c, 0, 53, 0
2, 140521, Note_on_c, 0, 49, 0
2, 140683, Note_on_c, 0, 53, 52
2, 140685, Note_on_c, 0, 56, 72
2, 140720, Note_on_c, 0, 51, 0
2, 140760, Note_on_c, 0, 55, 0
2, 140943, Note_on_c, 0, 56, 0
2, 141093, Note_on_c, 0, 41, 55
2, 141110, Note_on_c, 0, 56, 64
2, 141287, Note_on_c, 0, 58, 72
2, 141354, Note_on_c, 0, 56, 0
2, 141366, Note_on_c, 0, 53, 0
2, 141469, Note_on_c, 0, 58, 0
2, 141508, Note_on_c, 0, 60, 75
2, 141512, Note_on_c, 0, 48, 59
2, 141526, Control_c, 0, 64, 16
2, 141544, Control_c, 0, 64, 29
2, 141555, Note_on_c, 0, 41, 0
2, 141564, Control_c, 0, 64, 39
2, 141582, Control_c, 0, 64, 50
2, 141602, Control_c, 0, 64, 58
2, 141622, Control_c, 0, 64, 63
2, 141638, Control_c, 0, 64, 66
2, 141658, Control_c, 0, 64, 71
2, 141680, Control_c, 0, 64, 77
2, 141680, Note_on_c, 0, 48, 0
2, 141699, Control_c, 0, 64, 86
2, 141718, Control_c, 0, 64, 106
2, 141736, Control_c, 0, 64, 127
2, 141842, Note_on_c, 0, 65, 0
2, 141923, Note_on_c, 0, 64, 83
2, 141932, Note_on_c, 0, 60, 0
2, 141942, Note_on_c, 0, 55, 55
2, 141949, Note_on_c, 0, 48, 54
2, 142065, Control_c, 0, 64, 116
2, 142080, Control_c, 0, 64, 100
2, 142103, Control_c, 0, 64, 92
2, 142119, Control_c, 0, 64, 86
2, 142135, Note_on_c, 0, 50, 65
2, 142137, Note_on_c, 0, 64, 0
2, 142137, Note_on_c, 0, 65, 85
2, 142141, Control_c, 0, 64, 81
2, 142160, Control_c, 0, 64, 78
2, 142176, Control_c, 0, 64, 75
2, 142183, Note_on_c, 0, 48, 0
2, 142197, Control_c, 0, 64, 72
2, 142214, Control_c, 0, 64, 69
2, 142235, Control_c, 0, 64, 67
2, 142254, Control_c, 0, 64, 66
2, 142274, Control_c, 0, 64, 65
2, 142398, Note_on_c, 0, 60, 52
2, 142408, Control_c, 0, 64, 64
2, 142437, Note_on_c, 0, 52, 54
2, 142465, Control_c, 0, 64, 63
2, 142485, Control_c, 0, 64, 62
2, 142490, Note_on_c, 0, 72, 85
2, 142494, Note_on_c, 0, 50, 0
2, 142503, Control_c, 0, 64, 61
2, 142518, Note_on_c, 0, 67, 58
2, 142537, Note_on_c, 0, 55, 0
2, 142537, Note_on_c, 0, 65, 0
2, 142541, Control_c, 0, 64, 60
2, 142579, Control_c, 0, 64, 59
2, 142618, Control_c, 0, 64, 58
2, 142637, Control_c, 0, 64, 56
2, 142656, Control_c, 0, 64, 55
2, 142677, Control_c, 0, 64, 54
2, 142699, Control_c, 0, 64, 53
2, 142717, Control_c, 0, 64, 52
2, 142735, Control_c, 0, 64, 51
2, 142754, Control_c, 0, 64, 50
2, 142772, Control_c, 0, 64, 49
2, 142795, Control_c, 0, 64, 48
2, 142810, Control_c, 0, 64, 47
2, 142830, Control_c, 0, 64, 46
2, 142850, Control_c, 0, 64, 45
2, 142867, Control_c, 0, 64, 44
2, 142887, Control_c, 0, 64, 43
2, 142906, Control_c, 0, 64, 41
2, 142933, Note_on_c, 0, 58, 61
2, 142945, Control_c, 0, 64, 40
2, 142949, Note_on_c, 0, 50, 57
2, 142967, Note_on_c, 0, 52, 0
2, 142976, Note_on_c, 0, 60, 0
2, 142984, Control_c, 0, 64, 39
2, 143041, Control_c, 0, 64, 38
2, 143080, Control_c, 0, 64, 37
2, 143125, Note_on_c, 0, 50, 0
2, 143132, Note_on_c, 0, 52, 65
2, 143140, Control_c, 0, 64, 35
2, 143156, Control_c, 0, 64, 32
2, 143178, Control_c, 0, 64, 20
2, 143195, Control_c, 0, 64, 0
2, 143276, Note_on_c, 0, 58, 0
2, 143361, Note_on_c, 0, 73, 87
2, 143379, Note_on_c, 0, 56, 59
2, 143386, Control_c, 0, 64, 16
2, 143390, Note_on_c, 0, 72, 0
2, 143407, Control_c, 0, 64, 38
2, 143417, Note_on_c, 0, 52, 0
2, 143428, Control_c, 0, 64, 52
2, 143428, Note_on_c, 0, 53, 60
2, 143446, Control_c, 0, 64, 62
2, 143464, Control_c, 0, 64, 64
2, 143464, Note_on_c, 0, 56, 0
2, 143472, Note_on_c, 0, 53, 0
2, 143481, Control_c, 0, 64, 66
2, 143501, Control_c, 0, 64, 68
2, 143522, Control_c, 0, 64, 71
2, 143541, Control_c, 0, 64, 75
2, 143559, Control_c, 0, 64, 81
2, 143578, Control_c, 0, 64, 91
2, 143598, Control_c, 0, 64, 97
2, 143607, Note_on_c, 0, 40, 62
2, 143637, Control_c, 0, 64, 95
2, 143655, Control_c, 0, 64, 93
2, 143675, Control_c, 0, 64, 89
2, 143694, Control_c, 0, 64, 85
2, 143714, Control_c, 0, 64, 82
2, 143735, Control_c, 0, 64, 78
2, 143751, Control_c, 0, 64, 74
2, 143770, Control_c, 0, 64, 71
2, 143792, Control_c, 0, 64, 67
2, 143796, Note_on_c, 0, 41, 58
2, 143796, Note_on_c, 0, 65, 67
2, 143809, Control_c, 0, 64, 65
2, 143817, Note_on_c, 0, 40, 0
2, 143827, Control_c, 0, 64, 64
2, 143848, Control_c, 0, 64, 63
2, 143867, Control_c, 0, 64, 62
2, 143923, Control_c, 0, 64, 61
2, 143976, Note_on_c, 0, 43, 70
2, 143985, Note_on_c, 0, 41, 0
2, 144002, Control_c, 0, 64, 60
2, 144040, Control_c, 0, 64, 59
2, 144079, Control_c, 0, 64, 58
2, 144157, Control_c, 0, 64, 57
2, 144198, Note_on_c, 0, 72, 83
2, 144217, Note_on_c, 0, 44, 61
2, 144239, Note_on_c, 0, 43, 0
2, 144239, Note_on_c, 0, 67, 0
2, 144269, Control_c, 0, 64, 56
2, 144294, Note_on_c, 0, 73, 0
2, 144311, Control_c, 0, 64, 55
2, 144326, Control_c, 0, 64, 53
2, 144348, Control_c, 0, 64, 50
2, 144368, Control_c, 0, 64, 45
2, 144384, Control_c, 0, 64, 39
2, 144388, Note_on_c, 0, 48, 62
2, 144406, Control_c, 0, 64, 30
2, 144423, Control_c, 0, 64, 22
2, 144442, Control_c, 0, 64, 15
2, 144460, Control_c, 0, 64, 11
2, 144582, Note_on_c, 0, 63, 70
2, 144591, Note_on_c, 0, 48, 0
2, 144595, Note_on_c, 0, 50, 63
2, 144623, Note_on_c, 0, 65, 0
2, 144672, Control_c, 0, 64, 12
2, 144690, Control_c, 0, 64, 13
2, 144729, Control_c, 0, 64, 14
2, 144748, Control_c, 0, 64, 15
2, 144780, Note_on_c, 0, 51, 76
2, 144786, Control_c, 0, 64, 16
2, 144797, Note_on_c, 0, 50, 0
2, 144827, Control_c, 0, 64, 17
2, 144844, Control_c, 0, 64, 19
2, 144865, Control_c, 0, 64, 20
2, 144939, Control_c, 0, 64, 21
2, 144961, Control_c, 0, 64, 22
2, 145006, Note_on_c, 0, 71, 79
2, 145031, Note_on_c, 0, 62, 64
2, 145050, Note_on_c, 0, 53, 59
2, 145059, Note_on_c, 0, 63, 0
2, 145061, Note_on_c, 0, 51, 0
2, 145065, Note_on_c, 0, 44, 0
2, 145093, Control_c, 0, 64, 23
2, 145207, Control_c, 0, 64, 19
2, 145216, Note_on_c, 0, 41, 69
2, 145227, Control_c, 0, 64, 10
2, 145237, Note_on_c, 0, 72, 0
2, 145248, Control_c, 0, 64, 0
2, 145375, Note_on_c, 0, 62, 0
2, 145382, Control_c, 0, 64, 15
2, 145401, Control_c, 0, 64, 29
2, 145412, Note_on_c, 0, 63, 78
2, 145427, Control_c, 0, 64, 41
2, 145427, Note_on_c, 0, 41, 0
2, 145427, Note_on_c, 0, 43, 59
2, 145440, Control_c, 0, 64, 50
2, 145461, Control_c, 0, 64, 58
2, 145477, Control_c, 0, 64, 62
2, 145497, Control_c, 0, 64, 65
2, 145519, Control_c, 0, 64, 69
2, 145534, Control_c, 0, 64, 75
2, 145553, Control_c, 0, 64, 83
2, 145567, Note_on_c, 0, 63, 0
2, 145573, Control_c, 0, 64, 91
2, 145596, Control_c, 0, 64, 99
2, 145598, Note_on_c, 0, 65, 77
2, 145606, Note_on_c, 0, 44, 71
2, 145606, Note_on_c, 0, 71, 0
2, 145611, Note_on_c, 0, 43, 0
2, 145613, Control_c, 0, 64, 101
2, 145662, Note_on_c, 0, 44, 0
2, 145689, Control_c, 0, 64, 100
2, 145709, Control_c, 0, 64, 99
2, 145726, Control_c, 0, 64, 97
2, 145746, Control_c, 0, 64, 96
2, 145765, Control_c, 0, 64, 95
2, 145824, Control_c, 0, 64, 93
2, 145843, Note_on_c, 0, 76, 82
2, 145847, Control_c, 0, 64, 83
2, 145854, Note_on_c, 0, 65, 0
2, 145866, Control_c, 0, 64, 68
2, 145866, Note_on_c, 0, 67, 67
2, 145873, Note_on_c, 0, 46, 45
2, 145881, Control_c, 0, 64, 56
2, 145888, Note_on_c, 0, 44, 40
2, 145900, Control_c, 0, 64, 42
2, 145920, Note_on_c, 0, 44, 0
2, 145924, Control_c, 0, 64, 32
2, 145938, Control_c, 0, 64, 31
2, 145942, Note_on_c, 0, 53, 0
2, 145957, Control_c, 0, 64, 32
2, 145976, Control_c, 0, 64, 38
2, 145994, Control_c, 0, 64, 48
2, 146015, Control_c, 0, 64, 57
2, 146025, Note_on_c, 0, 67, 0
2, 146037, Control_c, 0, 64, 62
2, 146042, Note_on_c, 0, 65, 68
2, 146053, Control_c, 0, 64, 64
2, 146073, Control_c, 0, 64, 66
2, 146090, Control_c, 0, 64, 68
2, 146110, Control_c, 0, 64, 73
2, 146119, Note_on_c, 0, 65, 0
2, 146134, Control_c, 0, 64, 79
2, 146151, Control_c, 0, 64, 86
2, 146169, Control_c, 0, 64, 93
2, 146188, Control_c, 0, 64, 101
2, 146206, Control_c, 0, 64, 127
2, 146226, Note_on_c, 0, 55, 64
2, 146240, Note_on_c, 0, 64, 75
2, 146261, Note_on_c, 0, 76, 0
2, 146304, Note_on_c, 0, 46, 0
2, 146308, Note_on_c, 0, 55, 0
2, 146315, Note_on_c, 0, 64, 0
2, 146413, Note_on_c, 0, 62, 86
2, 146491, Note_on_c, 0, 62, 0
2, 146611, Control_c, 0, 64, 109
2, 146631, Control_c, 0, 64, 73
2, 146643, Note_on_c, 0, 60, 59
2, 146643, Note_on_c, 0, 77, 89
2, 146651, Control_c, 0, 64, 55
2, 146660, Note_on_c, 0, 56, 58
2, 146672, Control_c, 0, 64, 31
2, 146688, Control_c, 0, 64, 13
2, 146708, Control_c, 0, 64, 23
2, 146726, Control_c, 0, 64, 40
2, 146735, Note_on_c, 0, 60, 0
2, 146746, Control_c, 0, 64, 56
2, 146759, Note_on_c, 0, 56, 0
2, 146763, Control_c, 0, 64, 66
2, 146784, Control_c, 0, 64, 73
2, 146804, Control_c, 0, 64, 86
2, 146821, Control_c, 0, 64, 104
2, 146842, Control_c, 0, 64, 127
2, 146863, Note_on_c, 0, 44, 69
2, 146961, Note_on_c, 0, 77, 0
2, 147053, Note_on_c, 0, 46, 75
2, 147074, Note_on_c, 0, 44, 0
2, 147169, Control_c, 0, 64, 122
2, 147188, Control_c, 0, 64, 106
2, 147208, Control_c, 0, 64, 100
2, 147226, Control_c, 0, 64, 97
2, 147231, Note_on_c, 0, 48, 72
2, 147245, Control_c, 0, 64, 95
2, 147250, Note_on_c, 0, 46, 0
2, 147283, Control_c, 0, 64, 94
2, 147300, Note_on_c, 0, 48, 0
2, 147302, Control_c, 0, 64, 93
2, 147322, Control_c, 0, 64, 90
2, 147340, Control_c, 0, 64, 87
2, 147360, Control_c, 0, 64, 84
2, 147380, Control_c, 0, 64, 81
2, 147397, Control_c, 0, 64, 80
2, 147415, Control_c, 0, 64, 78
2, 147457, Note_on_c, 0, 70, 85
2, 147474, Note_on_c, 0, 49, 58
2, 147478, Control_c, 0, 64, 77
2, 147496, Control_c, 0, 64, 73
2, 147512, Control_c, 0, 64, 64
2, 147535, Control_c, 0, 64, 52
2, 147552, Control_c, 0, 64, 34
2, 147570, Control_c, 0, 64, 11
2, 147589, Control_c, 0, 64, 0
2, 147628, Control_c, 0, 64, 13
2, 147651, Control_c, 0, 64, 30
2, 147653, Note_on_c, 0, 58, 69
2, 147665, Control_c, 0, 64, 45
2, 147685, Control_c, 0, 64, 57
2, 147706, Control_c, 0, 64, 63
2, 147725, Control_c, 0, 64, 67
2, 147742, Control_c, 0, 64, 70
2, 147761, Control_c, 0, 64, 74
2, 147781, Control_c, 0, 64, 78
2, 147802, Note_on_c, 0, 58, 0
2, 147806, Control_c, 0, 64, 81
2, 147822, Control_c, 0, 64, 85
2, 147841, Control_c, 0, 64, 89
2, 147850, Note_on_c, 0, 58, 54
2, 147859, Control_c, 0, 64, 96
2, 147859, Note_on_c, 0, 56, 62
2, 147877, Control_c, 0, 64, 106
2, 147897, Control_c, 0, 64, 127
2, 147948, Note_on_c, 0, 58, 0
2, 147990, Note_on_c, 0, 56, 0
2, 148047, Note_on_c, 0, 55, 69
2, 148050, Control_c, 0, 64, 113
2, 148072, Control_c, 0, 64, 108
2, 148090, Control_c, 0, 64, 104
2, 148104, Note_on_c, 0, 55, 0
2, 148109, Control_c, 0, 64, 100
2, 148126, Control_c, 0, 64, 97
2, 148146, Control_c, 0, 64, 92
2, 148167, Control_c, 0, 64, 87
2, 148185, Control_c, 0, 64, 83
2, 148203, Control_c, 0, 64, 78
2, 148223, Control_c, 0, 64, 74
2, 148242, Control_c, 0, 64, 71
2, 148260, Control_c, 0, 64, 68
2, 148281, Control_c, 0, 64, 66
2, 148281, Note_on_c, 0, 69, 74
2, 148301, Control_c, 0, 64, 65
2, 148306, Note_on_c, 0, 53, 53
2, 148306, Note_on_c, 0, 60, 64
2, 148320, Control_c, 0, 64, 64
2, 148338, Control_c, 0, 64, 63
2, 148358, Control_c, 0, 64, 62
2, 148358, Note_on_c, 0, 70, 0
2, 148366, Note_on_c, 0, 49, 0
2, 148381, Control_c, 0, 64, 61
2, 148396, Control_c, 0, 64, 60
2, 148436, Control_c, 0, 64, 59
2, 148455, Control_c, 0, 64, 58
2, 148473, Control_c, 0, 64, 57
2, 148491, Control_c, 0, 64, 56
2, 148504, Note_on_c, 0, 48, 59
2, 148514, Control_c, 0, 64, 55
2, 148532, Control_c, 0, 64, 54
2, 148549, Control_c, 0, 64, 53
2, 148569, Control_c, 0, 64, 52
2, 148607, Control_c, 0, 64, 51
2, 148625, Control_c, 0, 64, 50
2, 148644, Control_c, 0, 64, 49
2, 148664, Control_c, 0, 64, 47
2, 148688, Control_c, 0, 64, 46
2, 148688, Note_on_c, 0, 50, 70
2, 148702, Control_c, 0, 64, 44
2, 148737, Note_on_c, 0, 48, 0
2, 148743, Control_c, 0, 64, 43
2, 148760, Control_c, 0, 64, 42
2, 148782, Control_c, 0, 64, 41
2, 148811, Note_on_c, 0, 53, 0
2, 148820, Control_c, 0, 64, 40
2, 148836, Control_c, 0, 64, 39
2, 148857, Control_c, 0, 64, 38
2, 148877, Control_c, 0, 64, 37
2, 148877, Note_on_c, 0, 52, 70
2, 148895, Control_c, 0, 64, 35
2, 148915, Control_c, 0, 64, 34
2, 148929, Note_on_c, 0, 50, 0
2, 148990, Control_c, 0, 64, 33
2, 149011, Control_c, 0, 64, 31
2, 149031, Control_c, 0, 64, 26
2, 149049, Control_c, 0, 64, 10
2, 149070, Control_c, 0, 64, 0
2, 149118, Note_on_c, 0, 68, 83
2, 149167, Note_on_c, 0, 53, 58
2, 149169, Note_on_c, 0, 52, 0
2, 149213, Note_on_c, 0, 69, 0
2, 149262, Control_c, 0, 64, 16
2, 149262, Note_on_c, 0, 53, 0
2, 149279, Control_c, 0, 64, 33
2, 149299, Control_c, 0, 64, 46
2, 149318, Control_c, 0, 64, 56
2, 149330, Note_on_c, 0, 53, 64
2, 149334, Note_on_c, 0, 60, 0
2, 149337, Control_c, 0, 64, 60
2, 149394, Control_c, 0, 64, 61
2, 149413, Control_c, 0, 64, 62
2, 149432, Control_c, 0, 64, 63
2, 149452, Control_c, 0, 64, 64
2, 149470, Control_c, 0, 64, 65
2, 149489, Control_c, 0, 64, 66
2, 149509, Control_c, 0, 64, 68
2, 149529, Control_c, 0, 64, 69
2, 149545, Note_on_c, 0, 55, 60
2, 149545, Note_on_c, 0, 60, 74
2, 149549, Control_c, 0, 64, 72
2, 149566, Control_c, 0, 64, 75
2, 149586, Control_c, 0, 64, 78
2, 149606, Control_c, 0, 64, 81
2, 149626, Control_c, 0, 64, 85
2, 149645, Control_c, 0, 64, 90
2, 149663, Control_c, 0, 64, 94
2, 149682, Control_c, 0, 64, 97
2, 149700, Control_c, 0, 64, 100
2, 149724, Control_c, 0, 64, 101
2, 149724, Note_on_c, 0, 68, 0
2, 149742, Note_on_c, 0, 56, 79
2, 149746, Note_on_c, 0, 55, 0
2, 149818, Control_c, 0, 64, 100
2, 149836, Control_c, 0, 64, 99
2, 149853, Control_c, 0, 64, 97
2, 149874, Control_c, 0, 64, 95
2, 149897, Control_c, 0, 64, 94
2, 149914, Control_c, 0, 64, 91
2, 149931, Control_c, 0, 64, 89
2, 149951, Control_c, 0, 64, 86
2, 149970, Control_c, 0, 64, 83
2, 149991, Control_c, 0, 64, 81
2, 150007, Control_c, 0, 64, 78
2, 150027, Control_c, 0, 64, 77
2, 150048, Control_c, 0, 64, 75
2, 150066, Note_on_c, 0, 58, 49
2, 150070, Control_c, 0, 64, 73
2, 150087, Control_c, 0, 64, 71
2, 150094, Note_on_c, 0, 67, 75
2, 150105, Control_c, 0, 64, 69
2, 150125, Control_c, 0, 64, 68
2, 150142, Note_on_c, 0, 61, 49
2, 150144, Control_c, 0, 64, 67
2, 150166, Control_c, 0, 64, 66
2, 150182, Control_c, 0, 64, 65
2, 150204, Control_c, 0, 64, 64
2, 150219, Control_c, 0, 64, 63
2, 150225, Note_on_c, 0, 56, 0
2, 150239, Control_c, 0, 64, 62
2, 150247, Note_on_c, 0, 60, 0
2, 150278, Control_c, 0, 64, 61
2, 150297, Control_c, 0, 64, 60
2, 150315, Control_c, 0, 64, 59
2, 150334, Control_c, 0, 64, 57
2, 150357, Control_c, 0, 64, 56
2, 150373, Control_c, 0, 64, 55
2, 150392, Control_c, 0, 64, 53
2, 150411, Control_c, 0, 64, 52
2, 150430, Control_c, 0, 64, 51
2, 150450, Control_c, 0, 64, 49
2, 150469, Control_c, 0, 64, 48
2, 150488, Control_c, 0, 64, 46
2, 150508, Control_c, 0, 64, 45
2, 150528, Control_c, 0, 64, 43
2, 150548, Control_c, 0, 64, 42
2, 150566, Control_c, 0, 64, 41
2, 150584, Control_c, 0, 64, 40
2, 150598, Note_on_c, 0, 52, 37
2, 150598, Note_on_c, 0, 60, 50
2, 150607, Control_c, 0, 64, 37
2, 150607, Note_on_c, 0, 58, 0
2, 150625, Control_c, 0, 64, 35
2, 150642, Control_c, 0, 64, 32
2, 150657, Note_on_c, 0, 53, 0
2, 150657, Note_on_c, 0, 61, 0
2, 150662, Control_c, 0, 64, 29
2, 150680, Control_c, 0, 64, 25
2, 150700, Control_c, 0, 64, 21
2, 150718, Control_c, 0, 64, 17
2, 150739, Control_c, 0, 64, 13
2, 150757, Control_c, 0, 64, 9
2, 150779, Control_c, 0, 64, 0
2, 150779, Note_on_c, 0, 50, 51
2, 150794, Note_on_c, 0, 58, 58
2, 150826, Note_on_c, 0, 60, 0
2, 150832, Note_on_c, 0, 52, 0
2, 151035, Note_on_c, 0, 52, 37
2, 151048, Note_on_c, 0, 50, 0
2, 151052, Note_on_c, 0, 60, 46
2, 151102, Control_c, 0, 64, 9
2, 151122, Control_c, 0, 64, 10
2, 151145, Control_c, 0, 64, 11
2, 151162, Control_c, 0, 64, 12
2, 151180, Control_c, 0, 64, 13
2, 151198, Control_c, 0, 64, 14
2, 151275, Control_c, 0, 64, 15
2, 151448, Control_c, 0, 64, 16
2, 151468, Note_on_c, 0, 56, 44
2, 151503, Note_on_c, 0, 58, 0
2, 151524, Control_c, 0, 64, 17
2, 151623, Note_on_c, 0, 56, 0
2, 151659, Note_on_c, 0, 55, 43
2, 151774, Control_c, 0, 64, 18
2, 151832, Control_c, 0, 64, 19
2, 151889, Control_c, 0, 64, 20
2, 151965, Note_on_c, 0, 53, 31
2, 151970, Note_on_c, 0, 56, 39
2, 152007, Note_on_c, 0, 55, 0
2, 152024, Note_on_c, 0, 52, 0
2, 152101, Control_c, 0, 64, 21
2, 152400, Note_on_c, 0, 65, 38
2, 152423, Note_on_c, 0, 67, 0
2, 152525, Control_c, 0, 64, 22
2, 152592, Note_on_c, 0, 67, 55
2, 152623, Note_on_c, 0, 65, 0
2, 152641, Control_c, 0, 64, 23
2, 152736, Control_c, 0, 64, 24
2, 152784, Note_on_c, 0, 53, 0
2, 152789, Note_on_c, 0, 56, 0
2, 152815, Note_on_c, 0, 67, 0
2, 152833, Control_c, 0, 64, 25
2, 152833, Note_on_c, 0, 68, 56
2, 152871, Note_on_c, 0, 60, 0
2, 153211, Note_on_c, 0, 53, 42
2, 153410, Note_on_c, 0, 51, 44
2, 153423, Note_on_c, 0, 53, 0
2, 153502, Control_c, 0, 64, 24
2, 153521, Note_on_c, 0, 51, 0
2, 153542, Control_c, 0, 64, 23
2, 153602, Control_c, 0, 64, 24
2, 153621, Control_c, 0, 64, 28
2, 153621, Note_on_c, 0, 50, 41
2, 153637, Control_c, 0, 64, 39
2, 153657, Control_c, 0, 64, 50
2, 153677, Control_c, 0, 64, 58
2, 153696, Control_c, 0, 64, 63
2, 153716, Control_c, 0, 64, 65
2, 153733, Control_c, 0, 64, 68
2, 153743, Note_on_c, 0, 50, 0
2, 153754, Control_c, 0, 64, 72
2, 153771, Control_c, 0, 64, 78
2, 153793, Control_c, 0, 64, 83
2, 153809, Control_c, 0, 64, 89
2, 153829, Control_c, 0, 64, 94
2, 153849, Control_c, 0, 64, 97
2, 153866, Control_c, 0, 64, 99
2, 153887, Control_c, 0, 64, 102
2, 153909, Control_c, 0, 64, 107
2, 153925, Control_c, 0, 64, 111
2, 153943, Control_c, 0, 64, 112
2, 154032, Note_on_c, 0, 50, 42
2, 154041, Control_c, 0, 64, 109
2, 154053, Note_on_c, 0, 65, 43
2, 154062, Control_c, 0, 64, 105
2, 154080, Control_c, 0, 64, 101
2, 154099, Control_c, 0, 64, 96
2, 154117, Control_c, 0, 64, 92
2, 154139, Control_c, 0, 64, 88
2, 154155, Control_c, 0, 64, 85
2, 154175, Control_c, 0, 64, 82
2, 154193, Control_c, 0, 64, 80
2, 154201, Note_on_c, 0, 48, 44
2, 154208, Note_on_c, 0, 65, 0
2, 154213, Control_c, 0, 64, 79
2, 154233, Control_c, 0, 64, 78
2, 154233, Note_on_c, 0, 50, 0
2, 154237, Note_on_c, 0, 63, 54
2, 154309, Control_c, 0, 64, 77
2, 154329, Control_c, 0, 64, 75
2, 154350, Control_c, 0, 64, 71
2, 154368, Control_c, 0, 64, 64
2, 154385, Control_c, 0, 64, 56
2, 154410, Control_c, 0, 64, 45
2, 154410, Note_on_c, 0, 48, 0
2, 154410, Note_on_c, 0, 63, 0
2, 154426, Control_c, 0, 64, 36
2, 154444, Control_c, 0, 64, 30
2, 154458, Note_on_c, 0, 46, 36
2, 154458, Note_on_c, 0, 62, 49
2, 154463, Control_c, 0, 64, 29
2, 154482, Control_c, 0, 64, 31
2, 154500, Control_c, 0, 64, 37
2, 154520, Control_c, 0, 64, 47
2, 154539, Control_c, 0, 64, 57
2, 154559, Control_c, 0, 64, 62
2, 154578, Control_c, 0, 64, 64
2, 154598, Control_c, 0, 64, 66
2, 154617, Control_c, 0, 64, 68
2, 154636, Control_c, 0, 64, 71
2, 154653, Control_c, 0, 64, 74
2, 154677, Control_c, 0, 64, 77
2, 154677, Note_on_c, 0, 62, 0
2, 154692, Control_c, 0, 64, 80
2, 154714, Control_c, 0, 64, 81
2, 154806, Control_c, 0, 64, 80
2, 154829, Note_on_c, 0, 62, 50
2, 154842, Note_on_c, 0, 46, 0
2, 154848, Control_c, 0, 64, 79
2, 154861, Note_on_c, 0, 48, 39
2, 154865, Control_c, 0, 64, 78
2, 154888, Control_c, 0, 64, 77
2, 154904, Control_c, 0, 64, 76
2, 154925, Control_c, 0, 64, 75
2, 154946, Control_c, 0, 64, 74
2, 154961, Control_c, 0, 64, 73
2, 154977, Note_on_c, 0, 62, 0
2, 154979, Note_on_c, 0, 48, 0
2, 154983, Control_c, 0, 64, 71
2, 155002, Control_c, 0, 64, 70
2, 155011, Note_on_c, 0, 60, 55
2, 155019, Control_c, 0, 64, 68
2, 155024, Note_on_c, 0, 50, 37
2, 155040, Control_c, 0, 64, 67
2, 155060, Control_c, 0, 64, 66
2, 155095, Control_c, 0, 64, 65
2, 155115, Control_c, 0, 64, 64
2, 155134, Control_c, 0, 64, 58
2, 155155, Control_c, 0, 64, 43
2, 155172, Control_c, 0, 64, 17
2, 155183, Note_on_c, 0, 60, 0
2, 155188, Note_on_c, 0, 50, 0
2, 155193, Control_c, 0, 64, 0
2, 155243, Note_on_c, 0, 51, 42
2, 155248, Note_on_c, 0, 58, 50
2, 155252, Control_c, 0, 64, 17
2, 155271, Control_c, 0, 64, 36
2, 155290, Control_c, 0, 64, 54
2, 155307, Control_c, 0, 64, 62
2, 155327, Control_c, 0, 64, 66
2, 155345, Control_c, 0, 64, 69
2, 155368, Control_c, 0, 64, 73
2, 155368, Note_on_c, 0, 51, 0
2, 155384, Control_c, 0, 64, 77
2, 155406, Control_c, 0, 64, 83
2, 155422, Control_c, 0, 64, 89
2, 155427, Note_on_c, 0, 58, 0
2, 155444, Control_c, 0, 64, 95
2, 155461, Control_c, 0, 64, 101
2, 155470, Note_on_c, 0, 68, 0
2, 155481, Control_c, 0, 64, 103
2, 155558, Control_c, 0, 64, 102
2, 155576, Control_c, 0, 64, 99
2, 155599, Control_c, 0, 64, 97
2, 155614, Control_c, 0, 64, 94
2, 155633, Control_c, 0, 64, 91
2, 155654, Control_c, 0, 64, 88
2, 155654, Note_on_c, 0, 67, 61
2, 155675, Control_c, 0, 64, 86
2, 155679, Note_on_c, 0, 58, 35
2, 155694, Control_c, 0, 64, 83
2, 155712, Control_c, 0, 64, 79
2, 155733, Control_c, 0, 64, 75
2, 155748, Control_c, 0, 64, 73
2, 155771, Control_c, 0, 64, 70
2, 155791, Control_c, 0, 64, 69
2, 155809, Control_c, 0, 64, 67
2, 155826, Control_c, 0, 64, 65
2, 155826, Note_on_c, 0, 68, 79
2, 155847, Note_on_c, 0, 56, 55
2, 155851, Control_c, 0, 64, 64
2, 155890, Note_on_c, 0, 67, 0
2, 155923, Control_c, 0, 64, 63
2, 155934, Note_on_c, 0, 58, 0
2, 155960, Control_c, 0, 64, 62
2, 156062, Note_on_c, 0, 70, 76
2, 156067, Note_on_c, 0, 55, 45
2, 156075, Control_c, 0, 64, 61
2, 156075, Note_on_c, 0, 56, 0
2, 156096, Control_c, 0, 64, 60
2, 156114, Control_c, 0, 64, 59
2, 156129, Note_on_c, 0, 68, 0
2, 156133, Control_c, 0, 64, 58
2, 156154, Control_c, 0, 64, 57
2, 156173, Control_c, 0, 64, 55
2, 156192, Control_c, 0, 64, 54
2, 156210, Control_c, 0, 64, 52
2, 156231, Control_c, 0, 64, 50
2, 156248, Control_c, 0, 64, 49
2, 156306, Control_c, 0, 64, 48
2, 156325, Note_on_c, 0, 55, 0
2, 156330, Control_c, 0, 64, 47
2, 156346, Control_c, 0, 64, 46
2, 156363, Control_c, 0, 64, 45
2, 156403, Control_c, 0, 64, 44
2, 156441, Control_c, 0, 64, 43
2, 156478, Control_c, 0, 64, 42
2, 156498, Note_on_c, 0, 55, 55
2, 156502, Control_c, 0, 64, 41
2, 156516, Control_c, 0, 64, 39
2, 156576, Control_c, 0, 64, 38
2, 156613, Control_c, 0, 64, 37
2, 156632, Control_c, 0, 64, 36
2, 156672, Control_c, 0, 64, 35
2, 156681, Note_on_c, 0, 53, 64
2, 156690, Control_c, 0, 64, 33
2, 156709, Control_c, 0, 64, 31
2, 156719, Note_on_c, 0, 55, 0
2, 156728, Control_c, 0, 64, 27
2, 156747, Control_c, 0, 64, 20
2, 156765, Control_c, 0, 64, 0
2, 156908, Note_on_c, 0, 52, 61
2, 156908, Note_on_c, 0, 53, 0
2, 156996, Control_c, 0, 64, 23
2, 157020, Control_c, 0, 64, 39
2, 157038, Control_c, 0, 64, 50
2, 157057, Control_c, 0, 64, 58
2, 157076, Control_c, 0, 64, 61
2, 157094, Control_c, 0, 64, 63
2, 157116, Control_c, 0, 64, 66
2, 157125, Note_on_c, 0, 52, 0
2, 157131, Control_c, 0, 64, 69
2, 157151, Control_c, 0, 64, 74
2, 157170, Control_c, 0, 64, 80
2, 157190, Control_c, 0, 64, 86
2, 157208, Control_c, 0, 64, 92
2, 157227, Control_c, 0, 64, 95
2, 157248, Control_c, 0, 64, 97
2, 157266, Control_c, 0, 64, 98
2, 157292, Note_on_c, 0, 67, 57
2, 157326, Note_on_c, 0, 52, 45
2, 157362, Control_c, 0, 64, 97
2, 157382, Control_c, 0, 64, 95
2, 157400, Control_c, 0, 64, 94
2, 157420, Control_c, 0, 64, 93
2, 157438, Control_c, 0, 64, 91
2, 157460, Control_c, 0, 64, 90
2, 157481, Control_c, 0, 64, 86
2, 157481, Note_on_c, 0, 65, 67
2, 157497, Control_c, 0, 64, 83
2, 157502, Note_on_c, 0, 67, 0
2, 157509, Note_on_c, 0, 50, 55
2, 157516, Control_c, 0, 64, 81
2, 157530, Note_on_c, 0, 52, 0
2, 157538, Control_c, 0, 64, 79
2, 157553, Control_c, 0, 64, 77
2, 157575, Control_c, 0, 64, 76
2, 157593, Control_c, 0, 64, 73
2, 157615, Control_c, 0, 64, 72
2, 157630, Control_c, 0, 64, 70
2, 157649, Control_c, 0, 64, 69
2, 157672, Control_c, 0, 64, 66
2, 157676, Note_on_c, 0, 65, 0
2, 157690, Control_c, 0, 64, 62
2, 157712, Control_c, 0, 64, 55
2, 157712, Note_on_c, 0, 64, 68
2, 157730, Control_c, 0, 64, 42
2, 157730, Note_on_c, 0, 48, 47
2, 157737, Note_on_c, 0, 50, 0
2, 157751, Control_c, 0, 64, 16
2, 157768, Control_c, 0, 64, 0
2, 157845, Control_c, 0, 64, 32
2, 157861, Control_c, 0, 64, 49
2, 157883, Control_c, 0, 64, 59
2, 157902, Control_c, 0, 64, 63
2, 157920, Control_c, 0, 64, 65
2, 157941, Control_c, 0, 64, 66
2, 157941, Note_on_c, 0, 64, 0
2, 157958, Control_c, 0, 64, 68
2, 157980, Control_c, 0, 64, 71
2, 157997, Control_c, 0, 64, 74
2, 158017, Control_c, 0, 64, 78
2, 158038, Control_c, 0, 64, 81
2, 158056, Control_c, 0, 64, 82
2, 158083, Note_on_c, 0, 48, 0
2, 158097, Note_on_c, 0, 50, 54
2, 158101, Note_on_c, 0, 64, 69
2, 158141, Note_on_c, 0, 70, 0
2, 158209, Control_c, 0, 64, 81
2, 158246, Control_c, 0, 64, 80
2, 158281, Note_on_c, 0, 50, 0
2, 158283, Note_on_c, 0, 62, 78
2, 158287, Control_c, 0, 64, 79
2, 158297, Note_on_c, 0, 52, 57
2, 158306, Control_c, 0, 64, 78
2, 158306, Note_on_c, 0, 64, 0
2, 158325, Control_c, 0, 64, 77
2, 158362, Control_c, 0, 64, 76
2, 158421, Control_c, 0, 64, 73
2, 158438, Control_c, 0, 64, 66
2, 158454, Note_on_c, 0, 62, 0
2, 158458, Control_c, 0, 64, 55
2, 158467, Note_on_c, 0, 52, 0
2, 158477, Control_c, 0, 64, 41
2, 158482, Note_on_c, 0, 60, 69
2, 158492, Note_on_c, 0, 53, 57
2, 158497, Control_c, 0, 64, 29
2, 158516, Control_c, 0, 64, 27
2, 158534, Control_c, 0, 64, 28
2, 158556, Control_c, 0, 64, 34
2, 158574, Control_c, 0, 64, 45
2, 158592, Control_c, 0, 64, 57
2, 158611, Control_c, 0, 64, 63
2, 158631, Control_c, 0, 64, 65
2, 158655, Control_c, 0, 64, 67
2, 158655, Note_on_c, 0, 67, 81
2, 158670, Control_c, 0, 64, 69
2, 158684, Note_on_c, 0, 60, 0
2, 158690, Control_c, 0, 64, 72
2, 158694, Note_on_c, 0, 53, 0
2, 158707, Control_c, 0, 64, 76
2, 158727, Control_c, 0, 64, 80
2, 158747, Control_c, 0, 64, 82
2, 158769, Control_c, 0, 64, 83
2, 158849, Note_on_c, 0, 68, 85
2, 158863, Control_c, 0, 64, 82
2, 158867, Note_on_c, 0, 60, 66
2, 158883, Note_on_c, 0, 67, 0
2, 158899, Control_c, 0, 64, 81
2, 158920, Control_c, 0, 64, 80
2, 158957, Control_c, 0, 64, 79
2, 158995, Control_c, 0, 64, 78
2, 159016, Control_c, 0, 64, 76
2, 159033, Control_c, 0, 64, 74
2, 159053, Note_on_c, 0, 72, 87
2, 159058, Control_c, 0, 64, 71
2, 159058, Note_on_c, 0, 58, 73
2, 159058, Note_on_c, 0, 68, 0
2, 159074, Control_c, 0, 64, 69
2, 159092, Control_c, 0, 64, 67
2, 159097, Note_on_c, 0, 60, 0
2, 159110, Control_c, 0, 64, 65
2, 159130, Control_c, 0, 64, 64
2, 159149, Control_c, 0, 64, 63
2, 159208, Control_c, 0, 64, 62
2, 159245, Control_c, 0, 64, 61
2, 159284, Control_c, 0, 64, 60
2, 159324, Control_c, 0, 64, 59
2, 159324, Note_on_c, 0, 77, 84
2, 159328, Note_on_c, 0, 56, 57
2, 159362, Control_c, 0, 64, 58
2, 159395, Note_on_c, 0, 58, 0
2, 159395, Note_on_c, 0, 72, 0
2, 159399, Control_c, 0, 64, 57
2, 159437, Control_c, 0, 64, 56
2, 159475, Control_c, 0, 64, 55
2, 159496, Control_c, 0, 64, 54
2, 159515, Control_c, 0, 64, 52
2, 159532, Control_c, 0, 64, 50
2, 159552, Control_c, 0, 64, 48
2, 159574, Control_c, 0, 64, 47
2, 159609, Control_c, 0, 64, 46
2, 159650, Control_c, 0, 64, 44
2, 159667, Control_c, 0, 64, 43
2, 159687, Control_c, 0, 64, 42
2, 159707, Control_c, 0, 64, 41
2, 159758, Note_on_c, 0, 50, 60
2, 159765, Control_c, 0, 64, 40
2, 159784, Control_c, 0, 64, 39
2, 159820, Control_c, 0, 64, 38
2, 159947, Note_on_c, 0, 48, 66
2, 159982, Note_on_c, 0, 50, 0
2, 160123, Note_on_c, 0, 48, 0
2, 160128, Control_c, 0, 64, 34
2, 160148, Control_c, 0, 64, 17
2, 160170, Control_c, 0, 64, 0
2, 160176, Note_on_c, 0, 47, 69
2, 160260, Control_c, 0, 64, 18
2, 160281, Control_c, 0, 64, 38
2, 160300, Control_c, 0, 64, 51
2, 160320, Control_c, 0, 64, 60
2, 160340, Control_c, 0, 64, 63
2, 160340, Note_on_c, 0, 47, 0
2, 160358, Control_c, 0, 64, 66
2, 160376, Control_c, 0, 64, 71
2, 160398, Control_c, 0, 64, 78
2, 160413, Control_c, 0, 64, 86
2, 160433, Control_c, 0, 64, 95
2, 160452, Control_c, 0, 64, 102
2, 160473, Control_c, 0, 64, 103
2, 160512, Control_c, 0, 64, 102
2, 160532, Control_c, 0, 64, 101
2, 160550, Control_c, 0, 64, 99
2, 160567, Control_c, 0, 64, 97
2, 160583, Note_on_c, 0, 74, 64
2, 160588, Control_c, 0, 64, 93
2, 160600, Note_on_c, 0, 47, 55
2, 160609, Control_c, 0, 64, 89
2, 160626, Control_c, 0, 64, 86
2, 160648, Control_c, 0, 64, 85
2, 160666, Control_c, 0, 64, 83
2, 160685, Control_c, 0, 64, 82
2, 160705, Control_c, 0, 64, 80
2, 160721, Control_c, 0, 64, 78
2, 160740, Control_c, 0, 64, 76
2, 160761, Control_c, 0, 64, 73
2, 160761, Note_on_c, 0, 72, 78
2, 160781, Control_c, 0, 64, 71
2, 160781, Note_on_c, 0, 45, 59
2, 160781, Note_on_c, 0, 47, 0
2, 160794, Note_on_c, 0, 74, 0
2, 160798, Control_c, 0, 64, 70
2, 160817, Control_c, 0, 64, 69
2, 160915, Control_c, 0, 64, 68
2, 160933, Control_c, 0, 64, 66
2, 160953, Control_c, 0, 64, 62
2, 160960, Note_on_c, 0, 45, 0
2, 160971, Control_c, 0, 64, 55
2, 160975, Note_on_c, 0, 72, 0
2, 160984, Note_on_c, 0, 71, 76
2, 160994, Control_c, 0, 64, 44
2, 160994, Note_on_c, 0, 43, 61
2, 161012, Control_c, 0, 64, 28
2, 161029, Control_c, 0, 64, 11
2, 161047, Control_c, 0, 64, 0
2, 161066, Control_c, 0, 64, 15
2, 161086, Control_c, 0, 64, 28
2, 161108, Control_c, 0, 64, 40
2, 161127, Control_c, 0, 64, 51
2, 161143, Control_c, 0, 64, 59
2, 161164, Control_c, 0, 64, 63
2, 161183, Control_c, 0, 64, 65
2, 161194, Note_on_c, 0, 71, 0
2, 161202, Control_c, 0, 64, 69
2, 161222, Control_c, 0, 64, 74
2, 161240, Control_c, 0, 64, 80
2, 161259, Control_c, 0, 64, 87
2, 161277, Control_c, 0, 64, 93
2, 161297, Control_c, 0, 64, 95
2, 161316, Control_c, 0, 64, 96
2, 161395, Control_c, 0, 64, 95
2, 161397, Note_on_c, 0, 71, 68
2, 161402, Note_on_c, 0, 45, 57
2, 161434, Control_c, 0, 64, 94
2, 161454, Control_c, 0, 64, 93
2, 161454, Note_on_c, 0, 43, 0
2, 161456, Note_on_c, 0, 77, 0
2, 161472, Control_c, 0, 64, 92
2, 161490, Control_c, 0, 64, 91
2, 161510, Control_c, 0, 64, 89
2, 161529, Control_c, 0, 64, 87
2, 161549, Control_c, 0, 64, 85
2, 161566, Control_c, 0, 64, 84
2, 161575, Note_on_c, 0, 45, 0
2, 161578, Note_on_c, 0, 47, 66
2, 161583, Note_on_c, 0, 69, 76
2, 161587, Control_c, 0, 64, 82
2, 161605, Control_c, 0, 64, 80
2, 161626, Control_c, 0, 64, 79
2, 161626, Note_on_c, 0, 71, 0
2, 161645, Control_c, 0, 64, 77
2, 161663, Control_c, 0, 64, 76
2, 161681, Control_c, 0, 64, 74
2, 161702, Control_c, 0, 64, 72
2, 161720, Note_on_c, 0, 47, 0
2, 161722, Control_c, 0, 64, 70
2, 161740, Control_c, 0, 64, 69
2, 161758, Control_c, 0, 64, 67
2, 161775, Note_on_c, 0, 69, 0
2, 161815, Note_on_c, 0, 48, 61
2, 161819, Control_c, 0, 64, 65
2, 161834, Note_on_c, 0, 67, 78
2, 161837, Control_c, 0, 64, 61
2, 161855, Control_c, 0, 64, 48
2, 161873, Control_c, 0, 64, 0
2, 162007, Control_c, 0, 64, 41
2, 162027, Control_c, 0, 64, 59
2, 162046, Control_c, 0, 64, 66
2, 162069, Control_c, 0, 64, 71
2, 162087, Control_c, 0, 64, 80
2, 162105, Control_c, 0, 64, 94
2, 162124, Control_c, 0, 64, 127
2, 162156, Note_on_c, 0, 67, 0
2, 162187, Note_on_c, 0, 56, 0
2, 162257, Note_on_c, 0, 75, 83
2, 162271, Note_on_c, 0, 67, 74
2, 162376, Note_on_c, 0, 67, 0
2, 162409, Note_on_c, 0, 48, 0
2, 162453, Note_on_c, 0, 75, 0
2, 162462, Note_on_c, 0, 69, 82
2, 162661, Control_c, 0, 64, 116
2, 162681, Control_c, 0, 64, 108
2, 162702, Control_c, 0, 64, 102
2, 162717, Control_c, 0, 64, 97
2, 162737, Control_c, 0, 64, 93
2, 162756, Control_c, 0, 64, 88
2, 162776, Control_c, 0, 64, 83
2, 162791, Note_on_c, 0, 55, 82
2, 162797, Control_c, 0, 64, 79
2, 162814, Control_c, 0, 64, 77
2, 162837, Control_c, 0, 64, 75
2, 162843, Note_on_c, 0, 74, 71
2, 162848, Note_on_c, 0, 69, 0
2, 162855, Control_c, 0, 64, 73
2, 162863, Note_on_c, 0, 71, 68
2, 162873, Control_c, 0, 64, 71
2, 162892, Control_c, 0, 64, 70
2, 162911, Control_c, 0, 64, 67
2, 162929, Control_c, 0, 64, 64
2, 162949, Control_c, 0, 64, 60
2, 162970, Control_c, 0, 64, 54
2, 162989, Control_c, 0, 64, 46
2, 163008, Control_c, 0, 64, 37
2, 163025, Control_c, 0, 64, 32
2, 163044, Control_c, 0, 64, 29
2, 163084, Control_c, 0, 64, 28
2, 163202, Control_c, 0, 64, 29
2, 163353, Control_c, 0, 64, 30
2, 163362, Note_on_c, 0, 79, 79
2, 163390, Note_on_c, 0, 69, 51
2, 163410, Note_on_c, 0, 71, 0
2, 163448, Control_c, 0, 64, 31
2, 163479, Note_on_c, 0, 74, 0
2, 163485, Control_c, 0, 64, 32
2, 163525, Control_c, 0, 64, 33
2, 163574, Note_on_c, 0, 71, 77
2, 163583, Note_on_c, 0, 69, 0
2, 163621, Control_c, 0, 64, 34
2, 163678, Control_c, 0, 64, 35
2, 163754, Control_c, 0, 64, 36
2, 163793, Control_c, 0, 64, 37
2, 163813, Note_on_c, 0, 56, 70
2, 163828, Note_on_c, 0, 72, 62
2, 163870, Control_c, 0, 64, 38
2, 163886, Note_on_c, 0, 71, 0
2, 163958, Note_on_c, 0, 55, 0
2, 164032, Note_on_c, 0, 71, 66
2, 164065, Control_c, 0, 64, 39
2, 164083, Note_on_c, 0, 72, 0
2, 164229, Note_on_c, 0, 72, 74
2, 164287, Note_on_c, 0, 71, 0
2, 164369, Control_c, 0, 64, 40
2, 164404, Note_on_c, 0, 74, 76
2, 164411, Control_c, 0, 64, 41
2, 164411, Note_on_c, 0, 79, 0
2, 164447, Control_c, 0, 64, 42
2, 164485, Control_c, 0, 64, 43
2, 164582, Control_c, 0, 64, 44
2, 164648, Note_on_c, 0, 55, 68
2, 164654, Note_on_c, 0, 75, 66
2, 164701, Note_on_c, 0, 74, 0
2, 164767, Note_on_c, 0, 56, 0
2, 164831, Control_c, 0, 64, 43
2, 164890, Control_c, 0, 64, 42
2, 164926, Control_c, 0, 64, 41
2, 164985, Control_c, 0, 64, 42
2, 165022, Control_c, 0, 64, 43
2, 165041, Control_c, 0, 64, 46
2, 165060, Control_c, 0, 64, 51
2, 165081, Control_c, 0, 64, 56
2, 165081, Note_on_c, 0, 72, 0
2, 165093, Note_on_c, 0, 70, 60
2, 165100, Control_c, 0, 64, 59
2, 165118, Control_c, 0, 64, 61
2, 165138, Control_c, 0, 64, 63
2, 165155, Control_c, 0, 64, 64
2, 165176, Control_c, 0, 64, 66
2, 165196, Control_c, 0, 64, 69
2, 165213, Control_c, 0, 64, 73
2, 165233, Control_c, 0, 64, 80
2, 165252, Control_c, 0, 64, 89
2, 165273, Control_c, 0, 64, 100
2, 165291, Control_c, 0, 64, 110
2, 165311, Control_c, 0, 64, 116
2, 165367, Control_c, 0, 64, 113
2, 165387, Control_c, 0, 64, 108
2, 165407, Control_c, 0, 64, 104
2, 165425, Control_c, 0, 64, 99
2, 165445, Control_c, 0, 64, 95
2, 165464, Control_c, 0, 64, 92
2, 165483, Control_c, 0, 64, 88
2, 165502, Control_c, 0, 64, 84
2, 165525, Control_c, 0, 64, 80
2, 165535, Note_on_c, 0, 54, 66
2, 165541, Control_c, 0, 64, 78
2, 165553, Note_on_c, 0, 69, 56
2, 165558, Note_on_c, 0, 70, 0
2, 165560, Control_c, 0, 64, 76
2, 165578, Control_c, 0, 64, 75
2, 165599, Control_c, 0, 64, 74
2, 165619, Control_c, 0, 64, 72
2, 165637, Control_c, 0, 64, 70
2, 165655, Control_c, 0, 64, 68
2, 165677, Control_c, 0, 64, 67
2, 165697, Control_c, 0, 64, 66
2, 165714, Control_c, 0, 64, 65
2, 165730, Note_on_c, 0, 72, 76
2, 165737, Note_on_c, 0, 69, 0
2, 165772, Control_c, 0, 64, 64
2, 165786, Note_on_c, 0, 55, 0
2, 165811, Control_c, 0, 64, 63
2, 165867, Control_c, 0, 64, 62
2, 165887, Control_c, 0, 64, 61
2, 165907, Control_c, 0, 64, 60
2, 165931, Control_c, 0, 64, 59
2, 165931, Note_on_c, 0, 71, 75
2, 165931, Note_on_c, 0, 74, 77
2, 165945, Control_c, 0, 64, 58
2, 165964, Note_on_c, 0, 75, 0
2, 165967, Control_c, 0, 64, 56
2, 165967, Note_on_c, 0, 72, 0
2, 165985, Control_c, 0, 64, 55
2, 166001, Control_c, 0, 64, 53
2, 166020, Control_c, 0, 64, 52
2, 166045, Control_c, 0, 64, 50
2, 166060, Control_c, 0, 64, 49
2, 166080, Control_c, 0, 64, 47
2, 166100, Control_c, 0, 64, 44
2, 166111, Note_on_c, 0, 75, 76
2, 166122, Control_c, 0, 64, 42
2, 166122, Note_on_c, 0, 72, 78
2, 166141, Control_c, 0, 64, 40
2, 166157, Control_c, 0, 64, 39
2, 166163, Note_on_c, 0, 71, 0
2, 166167, Note_on_c, 0, 74, 0
2, 166363, Note_on_c, 0, 59, 71
2, 166375, Note_on_c, 0, 74, 68
2, 166375, Note_on_c, 0, 77, 74
2, 166423, Note_on_c, 0, 75, 0
2, 166434, Note_on_c, 0, 72, 0
2, 166491, Note_on_c, 0, 54, 0
2, 166504, Control_c, 0, 64, 40
2, 166579, Control_c, 0, 64, 41
2, 166583, Note_on_c, 0, 72, 73
2, 166642, Note_on_c, 0, 74, 0
2, 166657, Control_c, 0, 64, 42
2, 166694, Control_c, 0, 64, 43
2, 166714, Control_c, 0, 64, 46
2, 166733, Control_c, 0, 64, 50
2, 166752, Control_c, 0, 64, 54
2, 166774, Control_c, 0, 64, 58
2, 166785, Note_on_c, 0, 71, 75
2, 166792, Control_c, 0, 64, 60
2, 166808, Note_on_c, 0, 72, 0
2, 166812, Control_c, 0, 64, 62
2, 166828, Control_c, 0, 64, 63
2, 166849, Control_c, 0, 64, 65
2, 166869, Control_c, 0, 64, 67
2, 166886, Control_c, 0, 64, 69
2, 166907, Control_c, 0, 64, 71
2, 166926, Control_c, 0, 64, 73
2, 166944, Control_c, 0, 64, 74
2, 166965, Control_c, 0, 64, 75
2, 166974, Note_on_c, 0, 69, 75
2, 166987, Note_on_c, 0, 71, 0
2, 167040, Control_c, 0, 64, 74
2, 167078, Control_c, 0, 64, 73
2, 167118, Control_c, 0, 64, 72
2, 167137, Control_c, 0, 64, 71
2, 167193, Control_c, 0, 64, 70
2, 167202, Note_on_c, 0, 69, 0
2, 167210, Note_on_c, 0, 60, 75
2, 167210, Note_on_c, 0, 67, 73
2, 167252, Control_c, 0, 64, 69
2, 167271, Control_c, 0, 64, 64
2, 167289, Control_c, 0, 64, 56
2, 167301, Note_on_c, 0, 77, 0
2, 167310, Control_c, 0, 64, 43
2, 167322, Note_on_c, 0, 59, 0
2, 167328, Control_c, 0, 64, 28
2, 167350, Control_c, 0, 64, 18
2, 167385, Control_c, 0, 64, 24
2, 167401, Note_on_c, 0, 75, 81
2, 167406, Control_c, 0, 64, 38
2, 167424, Control_c, 0, 64, 51
2, 167444, Control_c, 0, 64, 60
2, 167461, Control_c, 0, 64, 64
2, 167483, Control_c, 0, 64, 66
2, 167504, Control_c, 0, 64, 69
2, 167521, Control_c, 0, 64, 73
2, 167539, Control_c, 0, 64, 78
2, 167562, Control_c, 0, 64, 83
2, 167573, Note_on_c, 0, 67, 0
2, 167582, Control_c, 0, 64, 88
2, 167599, Note_on_c, 0, 77, 85
2, 167604, Control_c, 0, 64, 92
2, 167616, Control_c, 0, 64, 95
2, 167634, Control_c, 0, 64, 97
2, 167661, Note_on_c, 0, 75, 0
2, 167787, Note_on_c, 0, 79, 89
2, 167806, Note_on_c, 0, 60, 0
2, 167825, Note_on_c, 0, 77, 0
2, 167846, Control_c, 0, 64, 96
2, 167903, Control_c, 0, 64, 95
2, 167945, Control_c, 0, 64, 94
2, 168000, Control_c, 0, 64, 93
2, 168020, Control_c, 0, 64, 92
2, 168028, Note_on_c, 0, 53, 77
2, 168034, Note_on_c, 0, 79, 0
2, 168043, Note_on_c, 0, 80, 78
2, 168057, Control_c, 0, 64, 91
2, 168079, Control_c, 0, 64, 90
2, 168096, Control_c, 0, 64, 84
2, 168116, Control_c, 0, 64, 71
2, 168134, Control_c, 0, 64, 60
2, 168154, Control_c, 0, 64, 46
2, 168174, Control_c, 0, 64, 33
2, 168191, Control_c, 0, 64, 26
2, 168231, Control_c, 0, 64, 27
2, 168249, Control_c, 0, 64, 32
2, 168255, Note_on_c, 0, 65, 70
2, 168268, Control_c, 0, 64, 39
2, 168290, Control_c, 0, 64, 48
2, 168306, Control_c, 0, 64, 57
2, 168329, Control_c, 0, 64, 62
2, 168346, Control_c, 0, 64, 64
2, 168369, Control_c, 0, 64, 65
2, 168406, Control_c, 0, 64, 67
2, 168425, Control_c, 0, 64, 69
2, 168443, Control_c, 0, 64, 72
2, 168447, Note_on_c, 0, 63, 74
2, 168463, Control_c, 0, 64, 78
2, 168467, Note_on_c, 0, 65, 0
2, 168480, Control_c, 0, 64, 87
2, 168498, Control_c, 0, 64, 100
2, 168518, Control_c, 0, 64, 115
2, 168541, Control_c, 0, 64, 127
2, 168545, Note_on_c, 0, 63, 0
2, 168625, Note_on_c, 0, 62, 82
2, 168699, Note_on_c, 0, 62, 0
2, 168740, Note_on_c, 0, 53, 0
2, 168859, Note_on_c, 0, 52, 74
2, 168865, Control_c, 0, 64, 113
2, 168877, Note_on_c, 0, 60, 68
2, 168886, Control_c, 0, 64, 105
2, 168903, Control_c, 0, 64, 98
2, 168922, Control_c, 0, 64, 92
2, 168943, Control_c, 0, 64, 86
2, 168950, Note_on_c, 0, 80, 0
2, 168960, Control_c, 0, 64, 82
2, 168979, Control_c, 0, 64, 78
2, 168997, Control_c, 0, 64, 75
2, 169018, Control_c, 0, 64, 73
2, 169037, Control_c, 0, 64, 70
2, 169057, Control_c, 0, 64, 67
2, 169059, Note_on_c, 0, 79, 81
2, 169076, Control_c, 0, 64, 65
2, 169094, Control_c, 0, 64, 64
2, 169151, Control_c, 0, 64, 63
2, 169192, Control_c, 0, 64, 62
2, 169250, Control_c, 0, 64, 61
2, 169259, Note_on_c, 0, 81, 85
2, 169269, Control_c, 0, 64, 60
2, 169305, Control_c, 0, 64, 59
2, 169329, Control_c, 0, 64, 58
2, 169344, Note_on_c, 0, 79, 0
2, 169349, Control_c, 0, 64, 57
2, 169363, Control_c, 0, 64, 56
2, 169382, Control_c, 0, 64, 55
2, 169402, Control_c, 0, 64, 54
2, 169421, Control_c, 0, 64, 52
2, 169440, Control_c, 0, 64, 49
2, 169462, Control_c, 0, 64, 46
2, 169462, Note_on_c, 0, 83, 86
2, 169478, Control_c, 0, 64, 44
2, 169498, Control_c, 0, 64, 43
2, 169509, Note_on_c, 0, 81, 0
2, 169519, Control_c, 0, 64, 41
2, 169536, Control_c, 0, 64, 38
2, 169555, Control_c, 0, 64, 35
2, 169577, Control_c, 0, 64, 32
2, 169592, Control_c, 0, 64, 28
2, 169617, Control_c, 0, 64, 25
2, 169633, Control_c, 0, 64, 23
2, 169651, Control_c, 0, 64, 22
2, 169672, Control_c, 0, 64, 20
2, 169689, Note_on_c, 0, 51, 79
2, 169693, Control_c, 0, 64, 18
2, 169702, Note_on_c, 0, 84, 78
2, 169711, Control_c, 0, 64, 17
2, 169734, Note_on_c, 0, 83, 0
2, 169744, Note_on_c, 0, 52, 0
2, 169785, Control_c, 0, 64, 18
2, 169805, Control_c, 0, 64, 22
2, 169823, Control_c, 0, 64, 28
2, 169844, Control_c, 0, 64, 35
2, 169863, Control_c, 0, 64, 42
2, 169885, Control_c, 0, 64, 50
2, 169900, Control_c, 0, 64, 55
2, 169921, Control_c, 0, 64, 58
2, 169929, Note_on_c, 0, 72, 76
2, 169938, Control_c, 0, 64, 60
2, 169958, Control_c, 0, 64, 61
2, 169979, Control_c, 0, 64, 63
2, 169996, Control_c, 0, 64, 64
2, 170015, Control_c, 0, 64, 65
2, 170035, Control_c, 0, 64, 68
2, 170047, Note_on_c, 0, 72, 0
2, 170056, Control_c, 0, 64, 71
2, 170074, Control_c, 0, 64, 77
2, 170092, Control_c, 0, 64, 83
2, 170112, Control_c, 0, 64, 91
2, 170129, Note_on_c, 0, 74, 84
2, 170132, Control_c, 0, 64, 101
2, 170150, Note_on_c, 0, 60, 0
2, 170154, Control_c, 0, 64, 127
2, 170313, Note_on_c, 0, 75, 89
2, 170348, Note_on_c, 0, 74, 0
2, 170413, Note_on_c, 0, 51, 0
2, 170477, Control_c, 0, 64, 115
2, 170495, Note_on_c, 0, 51, 60
2, 170497, Control_c, 0, 64, 108
2, 170515, Control_c, 0, 64, 102
2, 170537, Control_c, 0, 64, 98
2, 170555, Control_c, 0, 64, 94
2, 170576, Control_c, 0, 64, 90
2, 170592, Control_c, 0, 64, 87
2, 170596, Note_on_c, 0, 77, 80
2, 170614, Control_c, 0, 64, 84
2, 170630, Control_c, 0, 64, 81
2, 170648, Note_on_c, 0, 75, 0
2, 170652, Control_c, 0, 64, 79
2, 170669, Control_c, 0, 64, 78
2, 170688, Control_c, 0, 64, 77
2, 170710, Control_c, 0, 64, 76
2, 170714, Note_on_c, 0, 50, 62
2, 170714, Note_on_c, 0, 51, 0
2, 170728, Control_c, 0, 64, 74
2, 170744, Control_c, 0, 64, 73
2, 170764, Control_c, 0, 64, 72
2, 170783, Control_c, 0, 64, 71
2, 170822, Control_c, 0, 64, 70
2, 170827, Note_on_c, 0, 50, 0
2, 170831, Note_on_c, 0, 51, 71
2, 170881, Control_c, 0, 64, 69
2, 170900, Control_c, 0, 64, 68
2, 170906, Note_on_c, 0, 50, 67
2, 170914, Note_on_c, 0, 51, 0
2, 170938, Control_c, 0, 64, 67
2, 170987, Note_on_c, 0, 51, 68
2, 170992, Note_on_c, 0, 50, 0
2, 171016, Control_c, 0, 64, 66
2, 171031, Note_on_c, 0, 83, 74
2, 171053, Control_c, 0, 64, 65
2, 171065, Note_on_c, 0, 50, 72
2, 171070, Note_on_c, 0, 51, 0
2, 171093, Control_c, 0, 64, 64
2, 171112, Note_on_c, 0, 84, 0
2, 171116, Control_c, 0, 64, 63
2, 171141, Note_on_c, 0, 51, 73
2, 171147, Note_on_c, 0, 50, 0
2, 171151, Control_c, 0, 64, 62
2, 171187, Control_c, 0, 64, 61
2, 171211, Note_on_c, 0, 50, 65
2, 171223, Note_on_c, 0, 51, 0
2, 171227, Control_c, 0, 64, 60
2, 171232, Note_on_c, 0, 81, 78
2, 171245, Control_c, 0, 64, 59
2, 171262, Control_c, 0, 64, 58
2, 171286, Control_c, 0, 64, 57
2, 171286, Note_on_c, 0, 83, 0
2, 171292, Note_on_c, 0, 51, 79
2, 171300, Note_on_c, 0, 50, 0
2, 171305, Control_c, 0, 64, 56
2, 171324, Control_c, 0, 64, 55
2, 171341, Control_c, 0, 64, 53
2, 171360, Control_c, 0, 64, 52
2, 171380, Control_c, 0, 64, 51
2, 171398, Note_on_c, 0, 50, 69
2, 171400, Control_c, 0, 64, 49
2, 171405, Note_on_c, 0, 51, 0
2, 171420, Control_c, 0, 64, 47
2, 171439, Control_c, 0, 64, 45
2, 171452, Note_on_c, 0, 83, 70
2, 171456, Control_c, 0, 64, 42
2, 171474, Note_on_c, 0, 81, 0
2, 171478, Control_c, 0, 64, 38
2, 171494, Control_c, 0, 64, 26
2, 171516, Control_c, 0, 64, 0
2, 171865, Note_on_c, 0, 77, 0
2, 171870, Note_on_c, 0, 75, 67
2, 172071, Note_on_c, 0, 74, 69
2, 172119, Note_on_c, 0, 83, 0
2, 172125, Note_on_c, 0, 75, 0
2, 172396, Note_on_c, 0, 48, 34
2, 172400, Note_on_c, 0, 74, 0
2, 172411, Note_on_c, 0, 50, 0
2, 172411, Note_on_c, 0, 84, 56
2, 172430, Note_on_c, 0, 75, 40
2, 172456, Control_c, 0, 64, 18
2, 172474, Control_c, 0, 64, 31
2, 172492, Control_c, 0, 64, 43
2, 172513, Control_c, 0, 64, 51
2, 172533, Control_c, 0, 64, 57
2, 172550, Control_c, 0, 64, 61
2, 172569, Control_c, 0, 64, 65
2, 172588, Control_c, 0, 64, 70
2, 172607, Control_c, 0, 64, 81
2, 172612, Note_on_c, 0, 84, 0
2, 172628, Control_c, 0, 64, 110
2, 172641, Note_on_c, 0, 48, 0
2, 172643, Note_on_c, 0, 75, 0
2, 172646, Control_c, 0, 64, 127
2, 172917, Control_c, 0, 64, 113
2, 172933, Control_c, 0, 64, 102
2, 172947, Note_on_c, 0, 79, 60
2, 172953, Control_c, 0, 64, 95
2, 172960, Note_on_c, 0, 72, 50
2, 172972, Control_c, 0, 64, 90
2, 172993, Control_c, 0, 64, 85
2, 173011, Control_c, 0, 64, 81
2, 173031, Control_c, 0, 64, 78
2, 173050, Control_c, 0, 64, 75
2, 173068, Control_c, 0, 64, 73
2, 173089, Control_c, 0, 64, 71
2, 173109, Control_c, 0, 64, 69
2, 173127, Control_c, 0, 64, 67
2, 173143, Note_on_c, 0, 72, 0
2, 173146, Control_c, 0, 64, 65
2, 173156, Note_on_c, 0, 74, 65
2, 173164, Control_c, 0, 64, 64
2, 173173, Note_on_c, 0, 79, 0
2, 173222, Control_c, 0, 64, 63
2, 173260, Control_c, 0, 64, 62
2, 173278, Control_c, 0, 64, 61
2, 173338, Control_c, 0, 64, 60
2, 173375, Control_c, 0, 64, 58
2, 173384, Note_on_c, 0, 84, 59
2, 173399, Control_c, 0, 64, 56
2, 173399, Note_on_c, 0, 75, 44
2, 173416, Control_c, 0, 64, 52
2, 173416, Note_on_c, 0, 74, 0
2, 173434, Control_c, 0, 64, 47
2, 173455, Control_c, 0, 64, 40
2, 173473, Control_c, 0, 64, 35
2, 173493, Control_c, 0, 64, 28
2, 173509, Control_c, 0, 64, 23
2, 173531, Control_c, 0, 64, 19
2, 173549, Control_c, 0, 64, 18
2, 173569, Control_c, 0, 64, 17
2, 173829, Note_on_c, 0, 72, 48
2, 174016, Note_on_c, 0, 70, 56
2, 174040, Note_on_c, 0, 72, 0
2, 174085, Control_c, 0, 64, 13
2, 174106, Control_c, 0, 64, 0
2, 174184, Note_on_c, 0, 70, 0
2, 174203, Control_c, 0, 64, 9
2, 174222, Control_c, 0, 64, 23
2, 174242, Control_c, 0, 64, 35
2, 174242, Note_on_c, 0, 69, 49
2, 174258, Control_c, 0, 64, 47
2, 174281, Control_c, 0, 64, 58
2, 174281, Note_on_c, 0, 84, 0
2, 174298, Control_c, 0, 64, 62
2, 174316, Control_c, 0, 64, 65
2, 174336, Control_c, 0, 64, 67
2, 174357, Control_c, 0, 64, 71
2, 174357, Note_on_c, 0, 69, 0
2, 174374, Control_c, 0, 64, 77
2, 174392, Control_c, 0, 64, 83
2, 174417, Control_c, 0, 64, 88
2, 174432, Control_c, 0, 64, 90
2, 174509, Control_c, 0, 64, 89
2, 174527, Control_c, 0, 64, 88
2, 174547, Control_c, 0, 64, 87
2, 174568, Control_c, 0, 64, 85
2, 174586, Control_c, 0, 64, 83
2, 174604, Control_c, 0, 64, 80
2, 174627, Control_c, 0, 64, 77
2, 174636, Note_on_c, 0, 84, 50
2, 174645, Control_c, 0, 64, 75
2, 174663, Control_c, 0, 64, 73
2, 174665, Note_on_c, 0, 69, 30
2, 174680, Control_c, 0, 64, 71
2, 174703, Control_c, 0, 64, 69
2, 174719, Control_c, 0, 64, 67
2, 174739, Control_c, 0, 64, 65
2, 174761, Control_c, 0, 64, 64
2, 174777, Control_c, 0, 64, 63
2, 174786, Note_on_c, 0, 84, 0
2, 174807, Note_on_c, 0, 82, 61
2, 174816, Control_c, 0, 64, 62
2, 174827, Note_on_c, 0, 67, 40
2, 174857, Note_on_c, 0, 69, 0
2, 174893, Control_c, 0, 64, 61
2, 174933, Control_c, 0, 64, 60
2, 174950, Control_c, 0, 64, 56
2, 174970, Control_c, 0, 64, 49
2, 174977, Note_on_c, 0, 82, 0
2, 174989, Control_c, 0, 64, 39
2, 175008, Control_c, 0, 64, 30
2, 175028, Control_c, 0, 64, 23
2, 175032, Note_on_c, 0, 81, 55
2, 175047, Control_c, 0, 64, 22
2, 175058, Note_on_c, 0, 65, 33
2, 175063, Note_on_c, 0, 67, 0
2, 175065, Control_c, 0, 64, 24
2, 175085, Control_c, 0, 64, 31
2, 175105, Control_c, 0, 64, 44
2, 175125, Control_c, 0, 64, 55
2, 175142, Control_c, 0, 64, 61
2, 175161, Control_c, 0, 64, 64
2, 175179, Note_on_c, 0, 81, 0
2, 175181, Control_c, 0, 64, 66
2, 175200, Control_c, 0, 64, 70
2, 175218, Control_c, 0, 64, 75
2, 175237, Control_c, 0, 64, 81
2, 175256, Control_c, 0, 64, 87
2, 175278, Control_c, 0, 64, 92
2, 175296, Control_c, 0, 64, 95
2, 175314, Control_c, 0, 64, 97
2, 175391, Control_c, 0, 64, 95
2, 175413, Control_c, 0, 64, 92
2, 175431, Control_c, 0, 64, 89
2, 175447, Note_on_c, 0, 81, 54
2, 175452, Control_c, 0, 64, 87
2, 175472, Control_c, 0, 64, 85
2, 175472, Note_on_c, 0, 67, 42
2, 175479, Note_on_c, 0, 65, 0
2, 175487, Control_c, 0, 64, 84
2, 175510, Control_c, 0, 64, 83
2, 175527, Control_c, 0, 64, 82
2, 175544, Control_c, 0, 64, 80
2, 175564, Control_c, 0, 64, 78
2, 175583, Control_c, 0, 64, 75
2, 175603, Control_c, 0, 64, 73
2, 175628, Control_c, 0, 64, 71
2, 175628, Note_on_c, 0, 67, 0
2, 175628, Note_on_c, 0, 79, 71
2, 175628, Note_on_c, 0, 81, 0
2, 175642, Control_c, 0, 64, 69
2, 175655, Note_on_c, 0, 69, 46
2, 175662, Control_c, 0, 64, 68
2, 175679, Control_c, 0, 64, 67
2, 175702, Control_c, 0, 64, 66
2, 175719, Control_c, 0, 64, 65
2, 175738, Control_c, 0, 64, 64
2, 175758, Control_c, 0, 64, 63
2, 175758, Note_on_c, 0, 75, 0
2, 175775, Control_c, 0, 64, 61
2, 175795, Control_c, 0, 64, 57
2, 175815, Control_c, 0, 64, 49
2, 175834, Note_on_c, 0, 69, 0
2, 175837, Control_c, 0, 64, 34
2, 175856, Control_c, 0, 64, 0
2, 175867, Note_on_c, 0, 77, 65
2, 175881, Note_on_c, 0, 70, 44
2, 175892, Note_on_c, 0, 79, 0
2, 175949, Control_c, 0, 64, 19
2, 175972, Control_c, 0, 64, 36
2, 175988, Control_c, 0, 64, 48
2, 176005, Control_c, 0, 64, 57
2, 176026, Control_c, 0, 64, 61
2, 176047, Control_c, 0, 64, 63
2, 176065, Control_c, 0, 64, 65
2, 176083, Control_c, 0, 64, 68
2, 176103, Control_c, 0, 64, 73
2, 176122, Control_c, 0, 64, 80
2, 176142, Control_c, 0, 64, 87
2, 176160, Control_c, 0, 64, 93
2, 176160, Note_on_c, 0, 70, 0
2, 176183, Control_c, 0, 64, 97
2, 176197, Control_c, 0, 64, 101
2, 176218, Control_c, 0, 64, 103
2, 176273, Note_on_c, 0, 58, 30
2, 176273, Note_on_c, 0, 77, 0
2, 176295, Control_c, 0, 64, 102
2, 176295, Note_on_c, 0, 79, 62
2, 176306, Note_on_c, 0, 70, 53
2, 176315, Control_c, 0, 64, 100
2, 176333, Control_c, 0, 64, 99
2, 176355, Control_c, 0, 64, 96
2, 176373, Note_on_c, 0, 70, 0
2, 176377, Control_c, 0, 64, 94
2, 176391, Control_c, 0, 64, 91
2, 176412, Control_c, 0, 64, 88
2, 176428, Control_c, 0, 64, 85
2, 176449, Control_c, 0, 64, 82
2, 176454, Note_on_c, 0, 58, 0
2, 176469, Control_c, 0, 64, 79
2, 176471, Note_on_c, 0, 81, 67
2, 176482, Note_on_c, 0, 79, 0
2, 176487, Control_c, 0, 64, 76
2, 176503, Note_on_c, 0, 72, 57
2, 176507, Control_c, 0, 64, 74
2, 176525, Control_c, 0, 64, 72
2, 176547, Control_c, 0, 64, 71
2, 176556, Note_on_c, 0, 81, 0
2, 176567, Control_c, 0, 64, 69
2, 176585, Control_c, 0, 64, 68
2, 176602, Control_c, 0, 64, 67
2, 176620, Control_c, 0, 64, 66
2, 176642, Note_on_c, 0, 72, 0
2, 176642, Note_on_c, 0, 72, 19
2, 176698, Control_c, 0, 64, 65
2, 176707, Note_on_c, 0, 82, 59
2, 176720, Control_c, 0, 64, 64
2, 176720, Note_on_c, 0, 72, 0
2, 176731, Note_on_c, 0, 73, 46
2, 176738, Control_c, 0, 64, 61
2, 176757, Control_c, 0, 64, 54
2, 176774, Control_c, 0, 64, 47
2, 176794, Control_c, 0, 64, 39
2, 176814, Control_c, 0, 64, 32
2, 176832, Control_c, 0, 64, 27
2, 176871, Control_c, 0, 64, 26
2, 177061, Control_c, 0, 64, 27
2, 177082, Control_c, 0, 64, 28
2, 177152, Note_on_c, 0, 70, 38
2, 177178, Control_c, 0, 64, 29
2, 177324, Note_on_c, 0, 68, 53
2, 177369, Note_on_c, 0, 70, 0
2, 177408, Control_c, 0, 64, 28
2, 177427, Control_c, 0, 64, 27
2, 177446, Control_c, 0, 64, 26
2, 177466, Control_c, 0, 64, 25
2, 177481, Note_on_c, 0, 68, 0
2, 177523, Control_c, 0, 64, 29
2, 177537, Note_on_c, 0, 67, 48
2, 177542, Control_c, 0, 64, 37
2, 177563, Control_c, 0, 64, 46
2, 177580, Control_c, 0, 64, 55
2, 177601, Control_c, 0, 64, 61
2, 177621, Control_c, 0, 64, 64
2, 177640, Control_c, 0, 64, 66
2, 177649, Note_on_c, 0, 82, 0
2, 177658, Control_c, 0, 64, 69
2, 177678, Control_c, 0, 64, 74
2, 177678, Note_on_c, 0, 67, 0
2, 177697, Control_c, 0, 64, 80
2, 177715, Control_c, 0, 64, 86
2, 177733, Control_c, 0, 64, 91
2, 177849, Control_c, 0, 64, 90
2, 177869, Control_c, 0, 64, 87
2, 177888, Control_c, 0, 64, 85
2, 177907, Control_c, 0, 64, 84
2, 177927, Control_c, 0, 64, 83
2, 177943, Note_on_c, 0, 82, 52
2, 177945, Control_c, 0, 64, 82
2, 177966, Control_c, 0, 64, 81
2, 177966, Note_on_c, 0, 67, 36
2, 177985, Control_c, 0, 64, 79
2, 178003, Control_c, 0, 64, 76
2, 178022, Control_c, 0, 64, 74
2, 178043, Control_c, 0, 64, 72
2, 178061, Control_c, 0, 64, 70
2, 178079, Control_c, 0, 64, 68
2, 178100, Control_c, 0, 64, 67
2, 178114, Note_on_c, 0, 82, 0
2, 178118, Note_on_c, 0, 80, 66
2, 178119, Control_c, 0, 64, 66
2, 178133, Note_on_c, 0, 65, 31
2, 178138, Control_c, 0, 64, 65
2, 178164, Note_on_c, 0, 67, 0
2, 178194, Control_c, 0, 64, 64
2, 178252, Control_c, 0, 64, 61
2, 178259, Note_on_c, 0, 80, 0
2, 178271, Control_c, 0, 64, 55
2, 178291, Control_c, 0, 64, 46
2, 178310, Control_c, 0, 64, 38
2, 178331, Control_c, 0, 64, 33
2, 178341, Note_on_c, 0, 79, 61
2, 178350, Control_c, 0, 64, 32
2, 178377, Note_on_c, 0, 65, 0
2, 178383, Note_on_c, 0, 63, 34
2, 178388, Control_c, 0, 64, 38
2, 178406, Control_c, 0, 64, 50
2, 178428, Control_c, 0, 64, 59
2, 178444, Control_c, 0, 64, 63
2, 178465, Control_c, 0, 64, 65
2, 178469, Note_on_c, 0, 79, 0
2, 178485, Control_c, 0, 64, 67
2, 178505, Control_c, 0, 64, 71
2, 178520, Control_c, 0, 64, 78
2, 178543, Control_c, 0, 64, 88
2, 178562, Control_c, 0, 64, 105
2, 178580, Control_c, 0, 64, 127
2, 178752, Control_c, 0, 64, 122
2, 178759, Note_on_c, 0, 79, 61
2, 178772, Control_c, 0, 64, 107
2, 178778, Note_on_c, 0, 63, 0
2, 178790, Note_on_c, 0, 65, 37
2, 178792, Control_c, 0, 64, 99
2, 178810, Control_c, 0, 64, 93
2, 178829, Control_c, 0, 64, 88
2, 178848, Control_c, 0, 64, 82
2, 178868, Control_c, 0, 64, 78
2, 178886, Control_c, 0, 64, 75
2, 178906, Control_c, 0, 64, 72
2, 178928, Control_c, 0, 64, 70
2, 178939, Note_on_c, 0, 79, 0
2, 178941, Note_on_c, 0, 77, 68
2, 178945, Control_c, 0, 64, 69
2, 178956, Note_on_c, 0, 65, 0
2, 178956, Note_on_c, 0, 67, 42
2, 178965, Control_c, 0, 64, 68
2, 178983, Control_c, 0, 64, 67
2, 179001, Control_c, 0, 64, 66
2, 179020, Control_c, 0, 64, 65
2, 179060, Note_on_c, 0, 73, 0
2, 179115, Control_c, 0, 64, 64
2, 179130, Note_on_c, 0, 67, 0
2, 179155, Control_c, 0, 64, 63
2, 179174, Control_c, 0, 64, 61
2, 179194, Control_c, 0, 64, 56
2, 179214, Control_c, 0, 64, 49
2, 179218, Note_on_c, 0, 75, 56
2, 179232, Control_c, 0, 64, 37
2, 179239, Note_on_c, 0, 77, 0
2, 179253, Control_c, 0, 64, 30
2, 179262, Note_on_c, 0, 68, 34
2, 179272, Control_c, 0, 64, 29
2, 179290, Control_c, 0, 64, 31
2, 179310, Control_c, 0, 64, 40
2, 179327, Control_c, 0, 64, 51
2, 179347, Control_c, 0, 64, 61
2, 179367, Control_c, 0, 64, 65
2, 179386, Control_c, 0, 64, 68
2, 179404, Control_c, 0, 64, 72
2, 179426, Control_c, 0, 64, 77
2, 179443, Control_c, 0, 64, 83
2, 179463, Control_c, 0, 64, 88
2, 179480, Control_c, 0, 64, 92
2, 179498, Note_on_c, 0, 68, 0
2, 179500, Control_c, 0, 64, 94
2, 179558, Control_c, 0, 64, 95
2, 179623, Note_on_c, 0, 75, 0
2, 179634, Note_on_c, 0, 56, 27
2, 179638, Note_on_c, 0, 77, 59
2, 179649, Note_on_c, 0, 68, 39
2, 179707, Note_on_c, 0, 68, 0
2, 179732, Control_c, 0, 64, 94
2, 179759, Note_on_c, 0, 56, 0
2, 179789, Control_c, 0, 64, 93
2, 179798, Note_on_c, 0, 77, 0
2, 179808, Control_c, 0, 64, 91
2, 179822, Note_on_c, 0, 79, 68
2, 179828, Control_c, 0, 64, 89
2, 179843, Note_on_c, 0, 70, 53
2, 179848, Control_c, 0, 64, 88
2, 179865, Control_c, 0, 64, 86
2, 179888, Control_c, 0, 64, 85
2, 179888, Note_on_c, 0, 79, 0
2, 179905, Control_c, 0, 64, 83
2, 179923, Control_c, 0, 64, 81
2, 179943, Control_c, 0, 64, 79
2, 179961, Control_c, 0, 64, 78
2, 179981, Control_c, 0, 64, 76
2, 179998, Control_c, 0, 64, 75
2, 180038, Control_c, 0, 64, 72
2, 180052, Note_on_c, 0, 70, 0
2, 180058, Control_c, 0, 64, 64
2, 180063, Note_on_c, 0, 80, 56
2, 180081, Control_c, 0, 64, 55
2, 180089, Note_on_c, 0, 72, 48
2, 180096, Control_c, 0, 64, 45
2, 180114, Control_c, 0, 64, 39
2, 180137, Control_c, 0, 64, 37
2, 180173, Control_c, 0, 64, 36
2, 180192, Control_c, 0, 64, 35
2, 180211, Control_c, 0, 64, 34
2, 180491, Note_on_c, 0, 68, 42
2, 180642, Note_on_c, 0, 68, 0
2, 180679, Note_on_c, 0, 67, 49
2, 180786, Control_c, 0, 64, 35
2, 180807, Control_c, 0, 64, 36
2, 180824, Control_c, 0, 64, 37
2, 180845, Control_c, 0, 64, 40
2, 180863, Control_c, 0, 64, 44
2, 180868, Note_on_c, 0, 67, 0
2, 180883, Control_c, 0, 64, 53
2, 180902, Control_c, 0, 64, 59
2, 180907, Note_on_c, 0, 65, 47
2, 180921, Control_c, 0, 64, 63
2, 180941, Control_c, 0, 64, 65
2, 180950, Note_on_c, 0, 80, 0
2, 180960, Control_c, 0, 64, 67
2, 180979, Control_c, 0, 64, 71
2, 180997, Control_c, 0, 64, 75
2, 181017, Control_c, 0, 64, 82
2, 181036, Note_on_c, 0, 65, 0
2, 181038, Control_c, 0, 64, 91
2, 181056, Control_c, 0, 64, 100
2, 181075, Control_c, 0, 64, 109
2, 181094, Control_c, 0, 64, 118
2, 181115, Control_c, 0, 64, 120
2, 181170, Control_c, 0, 64, 116
2, 181191, Control_c, 0, 64, 112
2, 181211, Control_c, 0, 64, 109
2, 181231, Control_c, 0, 64, 106
2, 181246, Control_c, 0, 64, 101
2, 181267, Control_c, 0, 64, 95
2, 181287, Control_c, 0, 64, 90
2, 181304, Control_c, 0, 64, 85
2, 181315, Note_on_c, 0, 80, 60
2, 181318, Note_on_c, 0, 65, 47
2, 181325, Control_c, 0, 64, 82
2, 181345, Control_c, 0, 64, 80
2, 181364, Control_c, 0, 64, 78
2, 181383, Control_c, 0, 64, 76
2, 181401, Control_c, 0, 64, 75
2, 181421, Control_c, 0, 64, 73
2, 181440, Control_c, 0, 64, 72
2, 181449, Note_on_c, 0, 80, 0
2, 181463, Control_c, 0, 64, 70
2, 181481, Control_c, 0, 64, 69
2, 181485, Note_on_c, 0, 79, 68
2, 181498, Control_c, 0, 64, 68
2, 181502, Note_on_c, 0, 65, 0
2, 181518, Note_on_c, 0, 63, 43
2, 181614, Control_c, 0, 64, 67
2, 181632, Control_c, 0, 64, 65
2, 181652, Control_c, 0, 64, 59
2, 181659, Note_on_c, 0, 79, 0
2, 181663, Note_on_c, 0, 63, 0
2, 181670, Control_c, 0, 64, 49
2, 181688, Control_c, 0, 64, 37
2, 181703, Note_on_c, 0, 77, 70
2, 181710, Control_c, 0, 64, 28
2, 181731, Control_c, 0, 64, 25
2, 181743, Note_on_c, 0, 61, 38
2, 181748, Control_c, 0, 64, 26
2, 181767, Control_c, 0, 64, 32
2, 181785, Control_c, 0, 64, 42
2, 181804, Control_c, 0, 64, 53
2, 181824, Control_c, 0, 64, 61
2, 181846, Control_c, 0, 64, 65
2, 181861, Control_c, 0, 64, 69
2, 181882, Control_c, 0, 64, 78
2, 181902, Control_c, 0, 64, 91
2, 181902, Note_on_c, 0, 61, 0
2, 181914, Note_on_c, 0, 77, 0
2, 181922, Control_c, 0, 64, 127
2, 182137, Note_on_c, 0, 77, 72
2, 182139, Note_on_c, 0, 61, 44
2, 182188, Control_c, 0, 64, 108
2, 182207, Control_c, 0, 64, 99
2, 182228, Control_c, 0, 64, 93
2, 182248, Control_c, 0, 64, 87
2, 182266, Control_c, 0, 64, 82
2, 182285, Control_c, 0, 64, 78
2, 182303, Control_c, 0, 64, 76
2, 182325, Control_c, 0, 64, 74
2, 182325, Note_on_c, 0, 75, 74
2, 182343, Control_c, 0, 64, 72
2, 182347, Note_on_c, 0, 60, 57
2, 182362, Control_c, 0, 64, 71
2, 182367, Note_on_c, 0, 77, 0
2, 182380, Control_c, 0, 64, 69
2, 182400, Control_c, 0, 64, 68
2, 182419, Control_c, 0, 64, 67
2, 182452, Note_on_c, 0, 61, 0
2, 182457, Control_c, 0, 64, 66
2, 182592, Control_c, 0, 64, 65
2, 182614, Note_on_c, 0, 58, 47
2, 182639, Note_on_c, 0, 73, 73
2, 182689, Control_c, 0, 64, 64
2, 182692, Note_on_c, 0, 60, 0
2, 182704, Note_on_c, 0, 75, 0
2, 182708, Control_c, 0, 64, 63
2, 182727, Control_c, 0, 64, 60
2, 182744, Control_c, 0, 64, 57
2, 182764, Control_c, 0, 64, 54
2, 182784, Control_c, 0, 64, 53
2, 182803, Control_c, 0, 64, 52
2, 182860, Control_c, 0, 64, 51
2, 183033, Control_c, 0, 64, 52
2, 183067, Note_on_c, 0, 70, 58
2, 183079, Note_on_c, 0, 60, 42
2, 183119, Note_on_c, 0, 72, 0
2, 183146, Note_on_c, 0, 58, 0
2, 183246, Note_on_c, 0, 68, 65
2, 183249, Note_on_c, 0, 60, 0
2, 183275, Note_on_c, 0, 61, 44
2, 183279, Note_on_c, 0, 70, 0
2, 183400, Control_c, 0, 64, 51
2, 183465, Note_on_c, 0, 61, 0
2, 183478, Note_on_c, 0, 67, 53
2, 183487, Note_on_c, 0, 68, 0
2, 183496, Note_on_c, 0, 63, 46
2, 183514, Control_c, 0, 64, 50
2, 183894, Note_on_c, 0, 75, 59
2, 183908, Note_on_c, 0, 51, 36
2, 183945, Note_on_c, 0, 73, 0
2, 184004, Note_on_c, 0, 63, 0
2, 184088, Note_on_c, 0, 73, 74
2, 184099, Note_on_c, 0, 75, 0
2, 184185, Control_c, 0, 64, 49
2, 184204, Control_c, 0, 64, 48
2, 184225, Control_c, 0, 64, 45
2, 184242, Control_c, 0, 64, 40
2, 184262, Control_c, 0, 64, 34
2, 184269, Note_on_c, 0, 73, 0
2, 184280, Control_c, 0, 64, 29
2, 184301, Control_c, 0, 64, 25
2, 184312, Note_on_c, 0, 72, 62
2, 184323, Note_on_c, 0, 56, 43
2, 184327, Note_on_c, 0, 51, 0
2, 184357, Control_c, 0, 64, 28
2, 184378, Control_c, 0, 64, 37
2, 184399, Control_c, 0, 64, 48
2, 184414, Control_c, 0, 64, 57
2, 184434, Control_c, 0, 64, 62
2, 184455, Control_c, 0, 64, 64
2, 184474, Control_c, 0, 64, 66
2, 184492, Control_c, 0, 64, 69
2, 184499, Note_on_c, 0, 72, 0
2, 184513, Control_c, 0, 64, 72
2, 184531, Control_c, 0, 64, 76
2, 184551, Control_c, 0, 64, 80
2, 184569, Control_c, 0, 64, 83
2, 184588, Control_c, 0, 64, 85
2, 184628, Control_c, 0, 64, 84
2, 184666, Control_c, 0, 64, 83
2, 184685, Control_c, 0, 64, 81
2, 184704, Control_c, 0, 64, 80
2, 184709, Note_on_c, 0, 58, 43
2, 184713, Note_on_c, 0, 72, 57
2, 184721, Control_c, 0, 64, 78
2, 184742, Control_c, 0, 64, 76
2, 184761, Control_c, 0, 64, 74
2, 184781, Control_c, 0, 64, 73
2, 184798, Control_c, 0, 64, 71
2, 184811, Note_on_c, 0, 56, 0
2, 184819, Control_c, 0, 64, 69
2, 184839, Control_c, 0, 64, 67
2, 184857, Control_c, 0, 64, 65
2, 184879, Control_c, 0, 64, 63
2, 184886, Note_on_c, 0, 72, 0
2, 184897, Control_c, 0, 64, 62
2, 184902, Note_on_c, 0, 58, 0
2, 184916, Note_on_c, 0, 70, 51
2, 184920, Control_c, 0, 64, 61
2, 184931, Note_on_c, 0, 60, 38
2, 184935, Control_c, 0, 64, 60
2, 184952, Control_c, 0, 64, 59
2, 184972, Control_c, 0, 64, 58
2, 185011, Control_c, 0, 64, 57
2, 185049, Control_c, 0, 64, 56
2, 185071, Control_c, 0, 64, 55
2, 185087, Control_c, 0, 64, 54
2, 185127, Control_c, 0, 64, 53
2, 185146, Control_c, 0, 64, 52
2, 185163, Control_c, 0, 64, 51
2, 185183, Control_c, 0, 64, 50
2, 185204, Control_c, 0, 64, 48
2, 185222, Control_c, 0, 64, 45
2, 185229, Note_on_c, 0, 68, 44
2, 185229, Note_on_c, 0, 70, 0
2, 185240, Control_c, 0, 64, 41
2, 185254, Note_on_c, 0, 61, 19
2, 185262, Control_c, 0, 64, 37
2, 185271, Note_on_c, 0, 60, 0
2, 185280, Control_c, 0, 64, 34
2, 185299, Control_c, 0, 64, 31
2, 185317, Control_c, 0, 64, 30
2, 185340, Control_c, 0, 64, 29
2, 185374, Control_c, 0, 64, 28
2, 185625, Note_on_c, 0, 67, 0
2, 185689, Note_on_c, 0, 65, 36
2, 185883, Note_on_c, 0, 64, 50
2, 185896, Note_on_c, 0, 65, 0
2, 186009, Control_c, 0, 64, 29
2, 186068, Control_c, 0, 64, 30
2, 186074, Note_on_c, 0, 64, 0
2, 186099, Note_on_c, 0, 65, 50
2, 186155, Note_on_c, 0, 68, 0
2, 186200, Note_on_c, 0, 61, 0
2, 186486, Note_on_c, 0, 70, 56
2, 186497, Note_on_c, 0, 61, 42
2, 186685, Note_on_c, 0, 72, 69
2, 186699, Note_on_c, 0, 60, 51
2, 186713, Note_on_c, 0, 70, 0
2, 186722, Note_on_c, 0, 61, 0
2, 186869, Note_on_c, 0, 60, 0
2, 186875, Control_c, 0, 64, 28
2, 186881, Note_on_c, 0, 72, 0
2, 186892, Control_c, 0, 64, 23
2, 186907, Note_on_c, 0, 73, 69
2, 186912, Control_c, 0, 64, 13
2, 186914, Note_on_c, 0, 58, 54
2, 186930, Control_c, 0, 64, 0
2, 186988, Control_c, 0, 64, 11
2, 187008, Control_c, 0, 64, 26
2, 187027, Control_c, 0, 64, 41
2, 187046, Control_c, 0, 64, 54
2, 187066, Control_c, 0, 64, 62
2, 187070, Note_on_c, 0, 65, 0
2, 187088, Control_c, 0, 64, 66
2, 187103, Control_c, 0, 64, 69
2, 187119, Note_on_c, 0, 58, 0
2, 187124, Control_c, 0, 64, 73
2, 187141, Control_c, 0, 64, 76
2, 187162, Control_c, 0, 64, 78
2, 187180, Control_c, 0, 64, 79
2, 187200, Control_c, 0, 64, 81
2, 187237, Control_c, 0, 64, 80
2, 187257, Control_c, 0, 64, 79
2, 187276, Control_c, 0, 64, 78
2, 187296, Control_c, 0, 64, 76
2, 187309, Note_on_c, 0, 58, 51
2, 187309, Note_on_c, 0, 67, 63
2, 187317, Control_c, 0, 64, 74
2, 187333, Control_c, 0, 64, 72
2, 187355, Control_c, 0, 64, 70
2, 187373, Control_c, 0, 64, 67
2, 187393, Control_c, 0, 64, 66
2, 187409, Control_c, 0, 64, 65
2, 187487, Note_on_c, 0, 68, 73
2, 187489, Control_c, 0, 64, 64
2, 187489, Note_on_c, 0, 56, 60
2, 187525, Note_on_c, 0, 58, 0
2, 187564, Control_c, 0, 64, 63
2, 187588, Note_on_c, 0, 67, 0
2, 187622, Control_c, 0, 64, 62
2, 187626, Note_on_c, 0, 73, 0
2, 187642, Control_c, 0, 64, 59
2, 187659, Control_c, 0, 64, 51
2, 187682, Control_c, 0, 64, 41
2, 187697, Control_c, 0, 64, 31
2, 187707, Note_on_c, 0, 55, 57
2, 187707, Note_on_c, 0, 70, 70
2, 187711, Note_on_c, 0, 56, 0
2, 187720, Control_c, 0, 64, 25
2, 187755, Control_c, 0, 64, 29
2, 187775, Control_c, 0, 64, 39
2, 187795, Control_c, 0, 64, 50
2, 187798, Note_on_c, 0, 68, 0
2, 187816, Control_c, 0, 64, 60
2, 187836, Control_c, 0, 64, 64
2, 187851, Control_c, 0, 64, 66
2, 187873, Control_c, 0, 64, 69
2, 187894, Control_c, 0, 64, 74
2, 187899, Note_on_c, 0, 72, 80
2, 187912, Control_c, 0, 64, 81
2, 187928, Control_c, 0, 64, 89
2, 187950, Control_c, 0, 64, 99
2, 187954, Note_on_c, 0, 55, 0
2, 187958, Note_on_c, 0, 70, 0
2, 187972, Control_c, 0, 64, 110
2, 187987, Control_c, 0, 64, 127
2, 188078, Note_on_c, 0, 73, 81
2, 188082, Control_c, 0, 64, 116
2, 188109, Control_c, 0, 64, 109
2, 188109, Note_on_c, 0, 55, 69
2, 188122, Control_c, 0, 64, 100
2, 188143, Control_c, 0, 64, 93
2, 188151, Note_on_c, 0, 72, 0
2, 188160, Control_c, 0, 64, 87
2, 188180, Control_c, 0, 64, 83
2, 188199, Control_c, 0, 64, 81
2, 188216, Control_c, 0, 64, 78
2, 188238, Control_c, 0, 64, 75
2, 188256, Control_c, 0, 64, 72
2, 188273, Note_on_c, 0, 70, 75
2, 188277, Control_c, 0, 64, 70
2, 188284, Note_on_c, 0, 53, 69
2, 188289, Note_on_c, 0, 73, 0
2, 188293, Control_c, 0, 64, 68
2, 188314, Control_c, 0, 64, 67
2, 188361, Note_on_c, 0, 55, 0
2, 188391, Control_c, 0, 64, 66
2, 188427, Control_c, 0, 64, 65
2, 188449, Control_c, 0, 64, 64
2, 188508, Control_c, 0, 64, 63
2, 188508, Note_on_c, 0, 79, 74
2, 188513, Note_on_c, 0, 52, 63
2, 188544, Control_c, 0, 64, 62
2, 188599, Note_on_c, 0, 53, 0
2, 188604, Control_c, 0, 64, 61
2, 188642, Control_c, 0, 64, 60
2, 188700, Note_on_c, 0, 68, 71
2, 188716, Control_c, 0, 64, 59
2, 188734, Control_c, 0, 64, 58
2, 188756, Control_c, 0, 64, 55
2, 188760, Note_on_c, 0, 70, 0
2, 188777, Control_c, 0, 64, 49
2, 188792, Control_c, 0, 64, 39
2, 188812, Control_c, 0, 64, 29
2, 188832, Control_c, 0, 64, 21
2, 188850, Control_c, 0, 64, 20
2, 188869, Control_c, 0, 64, 21
2, 188889, Control_c, 0, 64, 27
2, 188896, Note_on_c, 0, 48, 65
2, 188896, Note_on_c, 0, 70, 75
2, 188900, Note_on_c, 0, 68, 0
2, 188912, Control_c, 0, 64, 36
2, 188926, Control_c, 0, 64, 47
2, 188941, Note_on_c, 0, 52, 0
2, 188946, Control_c, 0, 64, 57
2, 188967, Control_c, 0, 64, 61
2, 188985, Control_c, 0, 64, 63
2, 189003, Control_c, 0, 64, 64
2, 189022, Control_c, 0, 64, 65
2, 189045, Control_c, 0, 64, 67
2, 189063, Control_c, 0, 64, 69
2, 189081, Control_c, 0, 64, 73
2, 189087, Note_on_c, 0, 67, 75
2, 189090, Note_on_c, 0, 70, 0
2, 189100, Control_c, 0, 64, 77
2, 189118, Control_c, 0, 64, 82
2, 189142, Control_c, 0, 64, 86
2, 189157, Control_c, 0, 64, 88
2, 189180, Note_on_c, 0, 67, 0
2, 189272, Control_c, 0, 64, 87
2, 189291, Control_c, 0, 64, 86
2, 189309, Control_c, 0, 64, 85
2, 189334, Note_on_c, 0, 68, 76
2, 189338, Note_on_c, 0, 53, 66
2, 189350, Control_c, 0, 64, 84
2, 189354, Note_on_c, 0, 48, 0
2, 189367, Control_c, 0, 64, 82
2, 189387, Control_c, 0, 64, 81
2, 189405, Control_c, 0, 64, 79
2, 189425, Control_c, 0, 64, 77
2, 189444, Control_c, 0, 64, 75
2, 189464, Control_c, 0, 64, 73
2, 189482, Control_c, 0, 64, 72
2, 189503, Control_c, 0, 64, 71
2, 189520, Control_c, 0, 64, 70
2, 189547, Note_on_c, 0, 72, 79
2, 189581, Control_c, 0, 64, 69
2, 189599, Control_c, 0, 64, 65
2, 189617, Control_c, 0, 64, 57
2, 189636, Control_c, 0, 64, 42
2, 189654, Control_c, 0, 64, 22
2, 189675, Control_c, 0, 64, 0
2, 189718, Note_on_c, 0, 79, 0
2, 189733, Control_c, 0, 64, 14
2, 189733, Note_on_c, 0, 65, 61
2, 189747, Note_on_c, 0, 73, 77
2, 189751, Control_c, 0, 64, 27
2, 189771, Control_c, 0, 64, 41
2, 189781, Note_on_c, 0, 72, 0
2, 189792, Control_c, 0, 64, 54
2, 189809, Control_c, 0, 64, 62
2, 189828, Control_c, 0, 64, 65
2, 189848, Control_c, 0, 64, 68
2, 189866, Control_c, 0, 64, 70
2, 189884, Control_c, 0, 64, 73
2, 189893, Note_on_c, 0, 53, 0
2, 189904, Control_c, 0, 64, 75
2, 189916, Note_on_c, 0, 72, 82
2, 189925, Control_c, 0, 64, 78
2, 189925, Note_on_c, 0, 63, 64
2, 189934, Note_on_c, 0, 65, 0
2, 189945, Control_c, 0, 64, 81
2, 189950, Note_on_c, 0, 73, 0
2, 189954, Note_on_c, 0, 68, 0
2, 189963, Control_c, 0, 64, 83
2, 190028, Note_on_c, 0, 63, 0
2, 190098, Control_c, 0, 64, 82
2, 190116, Control_c, 0, 64, 81
2, 190134, Note_on_c, 0, 63, 52
2, 190158, Control_c, 0, 64, 80
2, 190158, Note_on_c, 0, 72, 0
2, 190158, Note_on_c, 0, 77, 73
2, 190173, Control_c, 0, 64, 79
2, 190181, Note_on_c, 0, 63, 0
2, 190212, Control_c, 0, 64, 78
2, 190222, Note_on_c, 0, 61, 61
2, 190233, Control_c, 0, 64, 77
2, 190264, Note_on_c, 0, 61, 0
2, 190269, Control_c, 0, 64, 76
2, 190298, Note_on_c, 0, 63, 60
2, 190309, Control_c, 0, 64, 75
2, 190340, Note_on_c, 0, 63, 0
2, 190347, Control_c, 0, 64, 74
2, 190354, Note_on_c, 0, 61, 63
2, 190372, Note_on_c, 0, 67, 60
2, 190385, Control_c, 0, 64, 73
2, 190396, Note_on_c, 0, 61, 0
2, 190404, Control_c, 0, 64, 72
2, 190407, Note_on_c, 0, 63, 65
2, 190442, Control_c, 0, 64, 71
2, 190458, Note_on_c, 0, 63, 0
2, 190462, Control_c, 0, 64, 70
2, 190482, Control_c, 0, 64, 69
2, 190482, Note_on_c, 0, 61, 63
2, 190501, Control_c, 0, 64, 68
2, 190523, Control_c, 0, 64, 66
2, 190524, Note_on_c, 0, 61, 0
2, 190530, Note_on_c, 0, 63, 68
2, 190530, Note_on_c, 0, 67, 0
2, 190537, Note_on_c, 0, 68, 72
2, 190541, Control_c, 0, 64, 65
2, 190596, Control_c, 0, 64, 64
2, 190604, Note_on_c, 0, 61, 64
2, 190608, Note_on_c, 0, 63, 0
2, 190654, Control_c, 0, 64, 63
2, 190673, Control_c, 0, 64, 62
2, 190679, Note_on_c, 0, 68, 0
2, 190684, Note_on_c, 0, 61, 0
2, 190693, Control_c, 0, 64, 61
2, 190693, Note_on_c, 0, 63, 67
2, 190711, Control_c, 0, 64, 60
2, 190740, Note_on_c, 0, 65, 52
2, 190750, Control_c, 0, 64, 59
2, 190768, Control_c, 0, 64, 57
2, 190790, Control_c, 0, 64, 55
2, 190797, Note_on_c, 0, 61, 59
2, 190808, Control_c, 0, 64, 51
2, 190825, Control_c, 0, 64, 46
2, 190834, Note_on_c, 0, 63, 0
2, 190848, Control_c, 0, 64, 39
2, 190865, Control_c, 0, 64, 22
2, 190885, Control_c, 0, 64, 0
2, 190916, Note_on_c, 0, 65, 0
2, 190927, Note_on_c, 0, 60, 65
2, 190944, Note_on_c, 0, 61, 0
2, 190946, Note_on_c, 0, 72, 77
2, 191020, Note_on_c, 0, 77, 0
2, 191038, Control_c, 0, 64, 38
2, 191059, Control_c, 0, 64, 54
2, 191078, Control_c, 0, 64, 64
2, 191096, Control_c, 0, 64, 69
2, 191098, Note_on_c, 0, 72, 0
2, 191106, Note_on_c, 0, 60, 0
2, 191117, Control_c, 0, 64, 77
2, 191134, Control_c, 0, 64, 89
2, 191153, Control_c, 0, 64, 118
2, 191173, Control_c, 0, 64, 127
2, 191367, Note_on_c, 0, 48, 71
2, 191371, Note_on_c, 0, 76, 78
2, 191378, Note_on_c, 0, 67, 72
2, 191422, Control_c, 0, 64, 122
2, 191442, Control_c, 0, 64, 109
2, 191463, Control_c, 0, 64, 101
2, 191478, Control_c, 0, 64, 95
2, 191498, Control_c, 0, 64, 88
2, 191517, Control_c, 0, 64, 82
2, 191538, Control_c, 0, 64, 78
2, 191554, Control_c, 0, 64, 75
2, 191576, Note_on_c, 0, 50, 81
2, 191577, Control_c, 0, 64, 73
2, 191582, Note_on_c, 0, 77, 84
2, 191594, Control_c, 0, 64, 72
2, 191615, Control_c, 0, 64, 70
2, 191632, Control_c, 0, 64, 68
2, 191647, Note_on_c, 0, 48, 0
2, 191647, Note_on_c, 0, 76, 0
2, 191651, Control_c, 0, 64, 67
2, 191671, Control_c, 0, 64, 66
2, 191708, Control_c, 0, 64, 65
2, 191768, Control_c, 0, 64, 64
2, 191863, Control_c, 0, 64, 63
2, 191900, Note_on_c, 0, 48, 73
2, 191904, Note_on_c, 0, 79, 81
2, 191918, Note_on_c, 0, 72, 67
2, 191927, Note_on_c, 0, 52, 69
2, 191961, Note_on_c, 0, 77, 0
2, 191981, Control_c, 0, 64, 61
2, 191981, Note_on_c, 0, 50, 0
2, 191981, Note_on_c, 0, 67, 0
2, 191996, Control_c, 0, 64, 59
2, 192016, Control_c, 0, 64, 56
2, 192037, Control_c, 0, 64, 49
2, 192055, Control_c, 0, 64, 40
2, 192074, Control_c, 0, 64, 27
2, 192093, Control_c, 0, 64, 0
2, 192305, Control_c, 0, 64, 11
2, 192324, Control_c, 0, 64, 13
2, 192341, Control_c, 0, 64, 15
2, 192361, Control_c, 0, 64, 18
2, 192381, Control_c, 0, 64, 20
2, 192402, Control_c, 0, 64, 22
2, 192416, Note_on_c, 0, 70, 64
2, 192420, Control_c, 0, 64, 23
2, 192442, Control_c, 0, 64, 24
2, 192446, Note_on_c, 0, 50, 57
2, 192459, Control_c, 0, 64, 25
2, 192459, Note_on_c, 0, 72, 0
2, 192475, Note_on_c, 0, 52, 0
2, 192480, Control_c, 0, 64, 26
2, 192497, Control_c, 0, 64, 27
2, 192516, Control_c, 0, 64, 28
2, 192538, Control_c, 0, 64, 29
2, 192557, Control_c, 0, 64, 30
2, 192596, Control_c, 0, 64, 31
2, 192614, Control_c, 0, 64, 32
2, 192621, Note_on_c, 0, 50, 0
2, 192625, Note_on_c, 0, 52, 64
2, 192634, Control_c, 0, 64, 33
2, 192653, Control_c, 0, 64, 34
2, 192864, Note_on_c, 0, 49, 69
2, 192890, Note_on_c, 0, 68, 64
2, 192918, Note_on_c, 0, 52, 0
2, 192940, Control_c, 0, 64, 35
2, 192946, Note_on_c, 0, 70, 0
2, 192946, Note_on_c, 0, 79, 0
2, 192973, Note_on_c, 0, 53, 18
2, 193065, Note_on_c, 0, 48, 0
2, 193076, Control_c, 0, 64, 36
2, 193076, Note_on_c, 0, 53, 0
2, 193081, Note_on_c, 0, 52, 62
2, 193094, Control_c, 0, 64, 37
2, 193151, Control_c, 0, 64, 36
2, 193192, Control_c, 0, 64, 35
2, 193209, Control_c, 0, 64, 34
2, 193264, Note_on_c, 0, 77, 77
2, 193268, Control_c, 0, 64, 36
2, 193277, Note_on_c, 0, 70, 74
2, 193290, Control_c, 0, 64, 42
2, 193290, Note_on_c, 0, 52, 0
2, 193290, Note_on_c, 0, 53, 67
2, 193307, Control_c, 0, 64, 50
2, 193323, Note_on_c, 0, 68, 0
2, 193325, Control_c, 0, 64, 58
2, 193344, Control_c, 0, 64, 62
2, 193363, Control_c, 0, 64, 64
2, 193380, Control_c, 0, 64, 65
2, 193400, Control_c, 0, 64, 67
2, 193420, Control_c, 0, 64, 68
2, 193437, Note_on_c, 0, 53, 0
2, 193469, Note_on_c, 0, 55, 73
2, 193555, Control_c, 0, 64, 67
2, 193669, Control_c, 0, 64, 66
2, 193685, Note_on_c, 0, 48, 75
2, 193689, Control_c, 0, 64, 60
2, 193705, Note_on_c, 0, 55, 0
2, 193710, Control_c, 0, 64, 45
2, 193714, Note_on_c, 0, 56, 60
2, 193723, Note_on_c, 0, 70, 0
2, 193723, Note_on_c, 0, 72, 65
2, 193730, Control_c, 0, 64, 0
2, 193730, Note_on_c, 0, 49, 0
2, 193822, Control_c, 0, 64, 27
2, 193843, Control_c, 0, 64, 45
2, 193862, Control_c, 0, 64, 57
2, 193881, Control_c, 0, 64, 62
2, 193892, Note_on_c, 0, 60, 72
2, 193899, Control_c, 0, 64, 64
2, 193919, Control_c, 0, 64, 65
2, 193939, Control_c, 0, 64, 66
2, 193958, Control_c, 0, 64, 68
2, 193974, Note_on_c, 0, 60, 0
2, 193979, Control_c, 0, 64, 71
2, 193996, Control_c, 0, 64, 74
2, 194018, Control_c, 0, 64, 78
2, 194034, Control_c, 0, 64, 82
2, 194055, Control_c, 0, 64, 87
2, 194074, Control_c, 0, 64, 90
2, 194081, Note_on_c, 0, 77, 0
2, 194094, Control_c, 0, 64, 94
2, 194094, Note_on_c, 0, 75, 79
2, 194110, Note_on_c, 0, 62, 78
2, 194112, Control_c, 0, 64, 99
2, 194131, Control_c, 0, 64, 109
2, 194151, Control_c, 0, 64, 127
2, 194181, Note_on_c, 0, 62, 0
2, 194190, Note_on_c, 0, 72, 0
2, 194212, Note_on_c, 0, 56, 0
2, 194227, Note_on_c, 0, 48, 0
2, 194291, Note_on_c, 0, 63, 74
2, 194365, Note_on_c, 0, 63, 0
2, 194532, Note_on_c, 0, 47, 78
2, 194554, Control_c, 0, 64, 115
2, 194554, Note_on_c, 0, 75, 0
2, 194574, Control_c, 0, 64, 104
2, 194578, Note_on_c, 0, 74, 67
2, 194592, Control_c, 0, 64, 98
2, 194601, Note_on_c, 0, 65, 53
2, 194612, Control_c, 0, 64, 93
2, 194629, Control_c, 0, 64, 87
2, 194651, Control_c, 0, 64, 80
2, 194669, Control_c, 0, 64, 72
2, 194688, Control_c, 0, 64, 66
2, 194705, Control_c, 0, 64, 62
2, 194728, Control_c, 0, 64, 60
2, 194750, Note_on_c, 0, 53, 65
2, 194763, Control_c, 0, 64, 59
2, 194783, Control_c, 0, 64, 58
2, 194805, Control_c, 0, 64, 57
2, 194821, Control_c, 0, 64, 56
2, 194861, Control_c, 0, 64, 55
2, 194907, Note_on_c, 0, 74, 0
2, 194917, Control_c, 0, 64, 54
2, 194942, Control_c, 0, 64, 53
2, 194942, Note_on_c, 0, 55, 73
2, 194946, Note_on_c, 0, 53, 0
2, 194946, Note_on_c, 0, 75, 66
2, 194957, Control_c, 0, 64, 52
2, 194976, Control_c, 0, 64, 50
2, 195034, Control_c, 0, 64, 49
2, 195110, Control_c, 0, 64, 48
2, 195130, Control_c, 0, 64, 47
2, 195140, Note_on_c, 0, 77, 79
2, 195144, Note_on_c, 0, 56, 75
2, 195153, Note_on_c, 0, 55, 0
2, 195182, Note_on_c, 0, 75, 0
2, 195184, Note_on_c, 0, 65, 0
2, 195205, Control_c, 0, 64, 46
2, 195264, Control_c, 0, 64, 45
2, 195386, Note_on_c, 0, 52, 74
2, 195395, Note_on_c, 0, 58, 73
2, 195402, Note_on_c, 0, 79, 71
2, 195422, Note_on_c, 0, 56, 0
2, 195458, Note_on_c, 0, 47, 0
2, 195549, Note_on_c, 0, 77, 0
2, 195553, Control_c, 0, 64, 41
2, 195570, Control_c, 0, 64, 29
2, 195584, Note_on_c, 0, 79, 0
2, 195589, Control_c, 0, 64, 0
2, 195589, Note_on_c, 0, 78, 77
2, 195665, Note_on_c, 0, 78, 0
2, 195675, Note_on_c, 0, 77, 58
2, 195744, Control_c, 0, 64, 27
2, 195753, Note_on_c, 0, 77, 0
2, 195762, Control_c, 0, 64, 47
2, 195781, Control_c, 0, 64, 58
2, 195788, Note_on_c, 0, 76, 78
2, 195792, Note_on_c, 0, 67, 71
2, 195801, Control_c, 0, 64, 63
2, 195821, Control_c, 0, 64, 66
2, 195840, Control_c, 0, 64, 69
2, 195849, Note_on_c, 0, 52, 0
2, 195860, Control_c, 0, 64, 72
2, 195878, Control_c, 0, 64, 77
2, 195896, Control_c, 0, 64, 83
2, 195915, Control_c, 0, 64, 89
2, 195919, Note_on_c, 0, 58, 0
2, 195935, Control_c, 0, 64, 94
2, 195957, Control_c, 0, 64, 95
2, 195957, Note_on_c, 0, 76, 0
2, 195969, Note_on_c, 0, 74, 75
2, 195992, Control_c, 0, 64, 94
2, 196014, Control_c, 0, 64, 93
2, 196030, Control_c, 0, 64, 91
2, 196050, Control_c, 0, 64, 89
2, 196068, Control_c, 0, 64, 87
2, 196068, Note_on_c, 0, 67, 0
2, 196089, Control_c, 0, 64, 85
2, 196111, Control_c, 0, 64, 81
2, 196130, Control_c, 0, 64, 78
2, 196149, Control_c, 0, 64, 75
2, 196165, Control_c, 0, 64, 72
2, 196186, Control_c, 0, 64, 70
2, 196200, Note_on_c, 0, 53, 79
2, 196209, Note_on_c, 0, 72, 71
2, 196213, Note_on_c, 0, 74, 0
2, 196226, Control_c, 0, 64, 69
2, 196226, Note_on_c, 0, 68, 64
2, 196242, Control_c, 0, 64, 68
2, 196263, Control_c, 0, 64, 65
2, 196281, Control_c, 0, 64, 58
2, 196299, Control_c, 0, 64, 44
2, 196319, Control_c, 0, 64, 19
2, 196339, Control_c, 0, 64, 0
2, 196407, Note_on_c, 0, 56, 72
2, 196434, Control_c, 0, 64, 19
2, 196453, Control_c, 0, 64, 36
2, 196472, Control_c, 0, 64, 48
2, 196494, Control_c, 0, 64, 57
2, 196509, Control_c, 0, 64, 61
2, 196530, Control_c, 0, 64, 63
2, 196551, Control_c, 0, 64, 64
2, 196560, Note_on_c, 0, 56, 0
2, 196569, Control_c, 0, 64, 66
2, 196588, Control_c, 0, 64, 67
2, 196602, Note_on_c, 0, 58, 81
2, 196611, Control_c, 0, 64, 70
2, 196630, Control_c, 0, 64, 74
2, 196645, Control_c, 0, 64, 79
2, 196666, Control_c, 0, 64, 86
2, 196683, Control_c, 0, 64, 93
2, 196705, Control_c, 0, 64, 101
2, 196722, Control_c, 0, 64, 109
2, 196743, Control_c, 0, 64, 112
2, 196755, Note_on_c, 0, 58, 0
2, 196761, Control_c, 0, 64, 113
2, 196798, Note_on_c, 0, 60, 82
2, 196857, Note_on_c, 0, 53, 0
2, 196872, Note_on_c, 0, 60, 0
2, 196895, Control_c, 0, 64, 112
2, 196915, Control_c, 0, 64, 111
2, 196934, Control_c, 0, 64, 109
2, 196953, Control_c, 0, 64, 107
2, 196972, Control_c, 0, 64, 106
2, 196991, Control_c, 0, 64, 105
2, 197010, Control_c, 0, 64, 104
2, 197029, Control_c, 0, 64, 103
2, 197050, Control_c, 0, 64, 101
2, 197054, Note_on_c, 0, 46, 80
2, 197069, Control_c, 0, 64, 99
2, 197078, Note_on_c, 0, 72, 0
2, 197086, Note_on_c, 0, 61, 65
2, 197088, Control_c, 0, 64, 97
2, 197108, Control_c, 0, 64, 95
2, 197126, Control_c, 0, 64, 93
2, 197139, Note_on_c, 0, 68, 0
2, 197148, Control_c, 0, 64, 92
2, 197164, Control_c, 0, 64, 90
2, 197184, Control_c, 0, 64, 86
2, 197203, Control_c, 0, 64, 79
2, 197222, Control_c, 0, 64, 68
2, 197241, Control_c, 0, 64, 58
2, 197259, Control_c, 0, 64, 43
2, 197275, Note_on_c, 0, 70, 69
2, 197279, Control_c, 0, 64, 15
2, 197297, Control_c, 0, 64, 0
2, 197392, Control_c, 0, 64, 11
2, 197412, Control_c, 0, 64, 30
2, 197430, Control_c, 0, 64, 42
2, 197453, Control_c, 0, 64, 52
2, 197469, Control_c, 0, 64, 59
2, 197482, Note_on_c, 0, 68, 82
2, 197489, Control_c, 0, 64, 63
2, 197504, Note_on_c, 0, 70, 0
2, 197509, Control_c, 0, 64, 65
2, 197528, Control_c, 0, 64, 66
2, 197534, Note_on_c, 0, 61, 0
2, 197546, Control_c, 0, 64, 68
2, 197568, Control_c, 0, 64, 71
2, 197584, Control_c, 0, 64, 74
2, 197604, Control_c, 0, 64, 79
2, 197622, Control_c, 0, 64, 83
2, 197642, Control_c, 0, 64, 85
2, 197673, Note_on_c, 0, 67, 82
2, 197720, Note_on_c, 0, 68, 0
2, 197737, Control_c, 0, 64, 84
2, 197776, Control_c, 0, 64, 83
2, 197795, Control_c, 0, 64, 82
2, 197816, Control_c, 0, 64, 81
2, 197833, Control_c, 0, 64, 80
2, 197872, Control_c, 0, 64, 79
2, 197893, Control_c, 0, 64, 77
2, 197893, Note_on_c, 0, 72, 76
2, 197902, Note_on_c, 0, 45, 82
2, 197912, Control_c, 0, 64, 76
2, 197912, Note_on_c, 0, 65, 62
2, 197922, Note_on_c, 0, 67, 0
2, 197931, Control_c, 0, 64, 75
2, 197950, Note_on_c, 0, 46, 0
2, 197955, Control_c, 0, 64, 72
2, 197969, Control_c, 0, 64, 65
2, 197989, Control_c, 0, 64, 55
2, 198008, Control_c, 0, 64, 38
2, 198028, Control_c, 0, 64, 18
2, 198046, Control_c, 0, 64, 0
2, 198119, Note_on_c, 0, 60, 70
2, 198123, Note_on_c, 0, 65, 0
2, 198124, Control_c, 0, 64, 15
2, 198141, Control_c, 0, 64, 30
2, 198163, Control_c, 0, 64, 43
2, 198180, Control_c, 0, 64, 52
2, 198198, Control_c, 0, 64, 59
2, 198217, Control_c, 0, 64, 62
2, 198236, Control_c, 0, 64, 63
2, 198243, Note_on_c, 0, 60, 0
2, 198296, Control_c, 0, 64, 64
2, 198313, Control_c, 0, 64, 65
2, 198326, Note_on_c, 0, 60, 55
2, 198333, Control_c, 0, 64, 66
2, 198352, Control_c, 0, 64, 68
2, 198356, Note_on_c, 0, 62, 50
2, 198372, Control_c, 0, 64, 71
2, 198395, Control_c, 0, 64, 74
2, 198395, Note_on_c, 0, 60, 0
2, 198395, Note_on_c, 0, 62, 0
2, 198411, Control_c, 0, 64, 77
2, 198429, Control_c, 0, 64, 79
2, 198449, Control_c, 0, 64, 82
2, 198467, Control_c, 0, 64, 84
2, 198486, Control_c, 0, 64, 85
2, 198519, Note_on_c, 0, 64, 80
2, 198659, Control_c, 0, 64, 84
2, 198681, Control_c, 0, 64, 83
2, 198690, Note_on_c, 0, 64, 0
2, 198696, Control_c, 0, 64, 82
2, 198737, Control_c, 0, 64, 81
2, 198746, Note_on_c, 0, 44, 85
2, 198751, Note_on_c, 0, 65, 68
2, 198760, Control_c, 0, 64, 79
2, 198760, Note_on_c, 0, 72, 0
2, 198775, Control_c, 0, 64, 78
2, 198794, Control_c, 0, 64, 76
2, 198805, Note_on_c, 0, 45, 0
2, 198814, Control_c, 0, 64, 75
2, 198832, Control_c, 0, 64, 73
2, 198854, Control_c, 0, 64, 71
2, 198865, Note_on_c, 0, 65, 0
2, 198872, Control_c, 0, 64, 70
2, 198893, Control_c, 0, 64, 69
2, 198908, Control_c, 0, 64, 68
2, 198957, Note_on_c, 0, 65, 74
2, 198968, Control_c, 0, 64, 67
2, 198984, Control_c, 0, 64, 66
2, 199006, Control_c, 0, 64, 65
2, 199025, Control_c, 0, 64, 62
2, 199046, Control_c, 0, 64, 54
2, 199062, Control_c, 0, 64, 35
2, 199081, Control_c, 0, 64, 0
2, 199138, Control_c, 0, 64, 17
2, 199162, Control_c, 0, 64, 33
2, 199162, Note_on_c, 0, 67, 78
2, 199167, Note_on_c, 0, 72, 79
2, 199179, Control_c, 0, 64, 48
2, 199196, Control_c, 0, 64, 60
2, 199218, Control_c, 0, 64, 64
2, 199218, Note_on_c, 0, 65, 0
2, 199238, Control_c, 0, 64, 66
2, 199253, Control_c, 0, 64, 68
2, 199276, Control_c, 0, 64, 72
2, 199296, Control_c, 0, 64, 76
2, 199314, Control_c, 0, 64, 81
2, 199330, Control_c, 0, 64, 89
2, 199352, Control_c, 0, 64, 98
2, 199359, Note_on_c, 0, 68, 88
2, 199373, Control_c, 0, 64, 112
2, 199389, Control_c, 0, 64, 127
2, 199396, Note_on_c, 0, 72, 0
2, 199443, Note_on_c, 0, 44, 0
2, 199542, Note_on_c, 0, 67, 0
2, 199592, Note_on_c, 0, 44, 66
2, 199660, Control_c, 0, 64, 113
2, 199680, Note_on_c, 0, 73, 73
2, 199683, Control_c, 0, 64, 107
2, 199683, Note_on_c, 0, 70, 69
2, 199687, Note_on_c, 0, 65, 66
2, 199696, Control_c, 0, 64, 102
2, 199719, Control_c, 0, 64, 99
2, 199736, Control_c, 0, 64, 96
2, 199755, Control_c, 0, 64, 94
2, 199755, Note_on_c, 0, 68, 0
2, 199772, Control_c, 0, 64, 93
2, 199792, Control_c, 0, 64, 91
2, 199799, Note_on_c, 0, 44, 0
2, 199803, Note_on_c, 0, 43, 62
2, 199813, Control_c, 0, 64, 89
2, 199831, Control_c, 0, 64, 87
2, 199853, Control_c, 0, 64, 86
2, 199869, Control_c, 0, 64, 84
2, 199889, Control_c, 0, 64, 83
2, 199896, Note_on_c, 0, 73, 0
2, 199912, Control_c, 0, 64, 82
2, 199912, Note_on_c, 0, 43, 0
2, 199916, Note_on_c, 0, 44, 72
2, 199925, Control_c, 0, 64, 81
2, 199945, Control_c, 0, 64, 80
2, 199967, Control_c, 0, 64, 78
2, 199983, Control_c, 0, 64, 77
2, 199992, Note_on_c, 0, 43, 66
2, 199999, Note_on_c, 0, 44, 0
2, 200004, Control_c, 0, 64, 75
2, 200024, Control_c, 0, 64, 73
2, 200043, Control_c, 0, 64, 71
2, 200064, Control_c, 0, 64, 70
2, 200064, Note_on_c, 0, 64, 71
2, 200064, Note_on_c, 0, 72, 73
2, 200071, Note_on_c, 0, 65, 0
2, 200075, Note_on_c, 0, 43, 0
2, 200075, Note_on_c, 0, 44, 70
2, 200080, Control_c, 0, 64, 69
2, 200096, Note_on_c, 0, 70, 0
2, 200100, Control_c, 0, 64, 67
2, 200120, Control_c, 0, 64, 66
2, 200139, Control_c, 0, 64, 65
2, 200150, Note_on_c, 0, 43, 67
2, 200154, Note_on_c, 0, 44, 0
2, 200159, Control_c, 0, 64, 63
2, 200197, Control_c, 0, 64, 62
2, 200226, Note_on_c, 0, 44, 75
2, 200231, Note_on_c, 0, 43, 0
2, 200235, Control_c, 0, 64, 61
2, 200247, Note_on_c, 0, 72, 0
2, 200253, Control_c, 0, 64, 60
2, 200265, Note_on_c, 0, 70, 65
2, 200274, Control_c, 0, 64, 59
2, 200283, Note_on_c, 0, 64, 0
2, 200289, Note_on_c, 0, 62, 68
2, 200294, Control_c, 0, 64, 58
2, 200305, Note_on_c, 0, 43, 70
2, 200317, Note_on_c, 0, 44, 0
2, 200331, Control_c, 0, 64, 57
2, 200349, Control_c, 0, 64, 56
2, 200367, Control_c, 0, 64, 55
2, 200385, Note_on_c, 0, 43, 0
2, 200385, Note_on_c, 0, 44, 72
2, 200389, Control_c, 0, 64, 53
2, 200406, Control_c, 0, 64, 51
2, 200425, Control_c, 0, 64, 48
2, 200444, Control_c, 0, 64, 45
2, 200458, Note_on_c, 0, 43, 60
2, 200465, Control_c, 0, 64, 42
2, 200477, Note_on_c, 0, 44, 0
2, 200486, Control_c, 0, 64, 39
2, 200498, Note_on_c, 0, 62, 0
2, 200498, Note_on_c, 0, 64, 66
2, 200503, Control_c, 0, 64, 31
2, 200503, Note_on_c, 0, 72, 74
2, 200522, Control_c, 0, 64, 0
2, 200551, Note_on_c, 0, 70, 0
2, 200811, Control_c, 0, 64, 11
2, 200848, Control_c, 0, 64, 12
2, 200906, Control_c, 0, 64, 11
2, 200927, Control_c, 0, 64, 0
2, 200927, Note_on_c, 0, 68, 68
2, 201136, Note_on_c, 0, 68, 0
2, 201148, Note_on_c, 0, 67, 62
2, 201221, Note_on_c, 0, 64, 0
2, 201465, Note_on_c, 0, 67, 0
2, 201470, Note_on_c, 0, 68, 45
2, 201482, Note_on_c, 0, 43, 0
2, 201497, Note_on_c, 0, 65, 37
2, 201509, Note_on_c, 0, 41, 36
2, 201579, Control_c, 0, 64, 14
2, 201596, Control_c, 0, 64, 25
2, 201619, Control_c, 0, 64, 35
2, 201635, Control_c, 0, 64, 44
2, 201655, Control_c, 0, 64, 53
2, 201674, Control_c, 0, 64, 60
2, 201692, Control_c, 0, 64, 63
2, 201712, Control_c, 0, 64, 65
2, 201732, Control_c, 0, 64, 68
2, 201750, Control_c, 0, 64, 73
2, 201764, Note_on_c, 0, 41, 0
2, 201769, Control_c, 0, 64, 80
2, 201790, Control_c, 0, 64, 91
2, 201809, Control_c, 0, 64, 112
2, 201831, Control_c, 0, 64, 127
2, 201923, Note_on_c, 0, 53, 45
2, 201988, Note_on_c, 0, 72, 0
2, 201998, Note_on_c, 0, 65, 0
2, 202077, Control_c, 0, 64, 120
2, 202084, Note_on_c, 0, 68, 0
2, 202086, Note_on_c, 0, 53, 0
2, 202099, Control_c, 0, 64, 107
2, 202111, Note_on_c, 0, 55, 53
2, 202116, Control_c, 0, 64, 101
2, 202134, Control_c, 0, 64, 96
2, 202153, Control_c, 0, 64, 91
2, 202175, Control_c, 0, 64, 86
2, 202192, Control_c, 0, 64, 83
2, 202213, Control_c, 0, 64, 81
2, 202232, Control_c, 0, 64, 79
2, 202251, Control_c, 0, 64, 77
2, 202269, Control_c, 0, 64, 73
2, 202289, Control_c, 0, 64, 67
2, 202308, Control_c, 0, 64, 59
2, 202308, Note_on_c, 0, 55, 0
2, 202327, Control_c, 0, 64, 50
2, 202347, Control_c, 0, 64, 43
2, 202347, Note_on_c, 0, 56, 54
2, 202366, Control_c, 0, 64, 39
2, 202402, Control_c, 0, 64, 41
2, 202422, Control_c, 0, 64, 46
2, 202442, Control_c, 0, 64, 55
2, 202463, Control_c, 0, 64, 62
2, 202481, Control_c, 0, 64, 66
2, 202498, Control_c, 0, 64, 71
2, 202511, Note_on_c, 0, 56, 0
2, 202520, Control_c, 0, 64, 80
2, 202539, Control_c, 0, 64, 91
2, 202557, Control_c, 0, 64, 102
2, 202575, Control_c, 0, 64, 107
2, 202597, Control_c, 0, 64, 108
2, 202632, Control_c, 0, 64, 107
2, 202654, Control_c, 0, 64, 106
2, 202673, Control_c, 0, 64, 103
2, 202692, Control_c, 0, 64, 100
2, 202713, Control_c, 0, 64, 96
2, 202730, Control_c, 0, 64, 92
2, 202748, Control_c, 0, 64, 88
2, 202772, Control_c, 0, 64, 83
2, 202772, Note_on_c, 0, 60, 50
2, 202787, Control_c, 0, 64, 80
2, 202805, Note_on_c, 0, 56, 42
2, 202810, Control_c, 0, 64, 76
2, 202826, Control_c, 0, 64, 74
2, 202846, Control_c, 0, 64, 72
2, 202865, Control_c, 0, 64, 70
2, 202884, Control_c, 0, 64, 69
2, 202902, Control_c, 0, 64, 67
2, 202922, Control_c, 0, 64, 66
2, 202944, Control_c, 0, 64, 65
2, 202961, Control_c, 0, 64, 64
2, 202972, Note_on_c, 0, 56, 0
2, 202972, Note_on_c, 0, 60, 0
2, 202989, Note_on_c, 0, 61, 48
2, 202994, Note_on_c, 0, 58, 45
2, 203021, Control_c, 0, 64, 63
2, 203074, Control_c, 0, 64, 62
2, 203114, Control_c, 0, 64, 61
2, 203154, Control_c, 0, 64, 60
2, 203172, Control_c, 0, 64, 58
2, 203186, Note_on_c, 0, 61, 0
2, 203190, Control_c, 0, 64, 51
2, 203211, Control_c, 0, 64, 41
2, 203224, Note_on_c, 0, 58, 0
2, 203231, Control_c, 0, 64, 28
2, 203231, Note_on_c, 0, 60, 45
2, 203249, Control_c, 0, 64, 8
2, 203254, Note_on_c, 0, 63, 39
2, 203267, Control_c, 0, 64, 0
2, 203325, Control_c, 0, 64, 20
2, 203343, Control_c, 0, 64, 36
2, 203364, Control_c, 0, 64, 50
2, 203382, Control_c, 0, 64, 59
2, 203401, Control_c, 0, 64, 63
2, 203419, Control_c, 0, 64, 65
2, 203442, Control_c, 0, 64, 67
2, 203462, Control_c, 0, 64, 69
2, 203480, Control_c, 0, 64, 72
2, 203496, Control_c, 0, 64, 75
2, 203517, Control_c, 0, 64, 79
2, 203536, Control_c, 0, 64, 82
2, 203554, Control_c, 0, 64, 83
2, 203561, Note_on_c, 0, 63, 0
2, 203642, Note_on_c, 0, 63, 31
2, 203644, Note_on_c, 0, 78, 52
2, 203651, Control_c, 0, 64, 82
2, 203692, Control_c, 0, 64, 81
2, 203727, Control_c, 0, 64, 80
2, 203748, Control_c, 0, 64, 78
2, 203766, Control_c, 0, 64, 77
2, 203784, Control_c, 0, 64, 76
2, 203807, Control_c, 0, 64, 74
2, 203827, Control_c, 0, 64, 73
2, 203827, Note_on_c, 0, 78, 0
2, 203831, Note_on_c, 0, 77, 65
2, 203844, Control_c, 0, 64, 71
2, 203849, Note_on_c, 0, 65, 46
2, 203862, Control_c, 0, 64, 70
2, 203881, Control_c, 0, 64, 69
2, 203886, Note_on_c, 0, 63, 0
2, 203901, Control_c, 0, 64, 68
2, 203921, Control_c, 0, 64, 67
2, 203939, Control_c, 0, 64, 66
2, 203959, Control_c, 0, 64, 65
2, 203978, Control_c, 0, 64, 64
2, 204023, Note_on_c, 0, 65, 0
2, 204038, Control_c, 0, 64, 63
2, 204060, Note_on_c, 0, 75, 61
2, 204067, Note_on_c, 0, 77, 0
2, 204075, Control_c, 0, 64, 62
2, 204079, Note_on_c, 0, 66, 42
2, 204170, Control_c, 0, 64, 61
2, 204227, Control_c, 0, 64, 60
2, 204253, Note_on_c, 0, 73, 70
2, 204257, Note_on_c, 0, 58, 49
2, 204269, Note_on_c, 0, 60, 0
2, 204274, Note_on_c, 0, 75, 0
2, 204285, Control_c, 0, 64, 59
2, 204342, Control_c, 0, 64, 58
2, 204380, Control_c, 0, 64, 57
2, 204419, Control_c, 0, 64, 56
2, 204435, Note_on_c, 0, 58, 0
2, 204459, Control_c, 0, 64, 55
2, 204459, Note_on_c, 0, 72, 73
2, 204470, Note_on_c, 0, 56, 54
2, 204489, Note_on_c, 0, 73, 0
2, 204495, Control_c, 0, 64, 54
2, 204516, Control_c, 0, 64, 53
2, 204534, Control_c, 0, 64, 51
2, 204553, Control_c, 0, 64, 49
2, 204573, Control_c, 0, 64, 46
2, 204593, Control_c, 0, 64, 44
2, 204613, Control_c, 0, 64, 42
2, 204632, Control_c, 0, 64, 40
2, 204649, Control_c, 0, 64, 38
2, 204656, Note_on_c, 0, 70, 72
2, 204670, Control_c, 0, 64, 37
2, 204685, Note_on_c, 0, 54, 52
2, 204695, Note_on_c, 0, 72, 0
2, 204717, Note_on_c, 0, 56, 0
2, 204725, Control_c, 0, 64, 36
2, 204889, Note_on_c, 0, 68, 69
2, 204912, Note_on_c, 0, 54, 0
2, 204928, Note_on_c, 0, 53, 42
2, 204946, Note_on_c, 0, 70, 0
2, 205035, Control_c, 0, 64, 37
2, 205248, Control_c, 0, 64, 38
2, 205266, Control_c, 0, 64, 41
2, 205289, Note_on_c, 0, 66, 0
2, 205293, Control_c, 0, 64, 44
2, 205293, Note_on_c, 0, 68, 0
2, 205293, Note_on_c, 0, 70, 59
2, 205305, Control_c, 0, 64, 50
2, 205317, Note_on_c, 0, 49, 39
2, 205321, Note_on_c, 0, 65, 48
2, 205327, Control_c, 0, 64, 57
2, 205343, Note_on_c, 0, 53, 0
2, 205348, Control_c, 0, 64, 61
2, 205363, Control_c, 0, 64, 63
2, 205382, Control_c, 0, 64, 64
2, 205401, Control_c, 0, 64, 66
2, 205419, Control_c, 0, 64, 68
2, 205439, Control_c, 0, 64, 71
2, 205456, Control_c, 0, 64, 74
2, 205471, Note_on_c, 0, 70, 0
2, 205478, Control_c, 0, 64, 76
2, 205482, Note_on_c, 0, 65, 0
2, 205494, Note_on_c, 0, 51, 53
2, 205494, Note_on_c, 0, 72, 65
2, 205499, Note_on_c, 0, 63, 59
2, 205534, Note_on_c, 0, 49, 0
2, 205538, Control_c, 0, 64, 75
2, 205554, Note_on_c, 0, 63, 0
2, 205574, Control_c, 0, 64, 74
2, 205613, Control_c, 0, 64, 73
2, 205630, Control_c, 0, 64, 72
2, 205650, Control_c, 0, 64, 71
2, 205670, Control_c, 0, 64, 68
2, 205670, Note_on_c, 0, 51, 0
2, 205692, Control_c, 0, 64, 62
2, 205708, Control_c, 0, 64, 52
2, 205730, Control_c, 0, 64, 34
2, 205730, Note_on_c, 0, 53, 45
2, 205740, Note_on_c, 0, 73, 61
2, 205744, Note_on_c, 0, 72, 0
2, 205747, Control_c, 0, 64, 0
2, 205750, Note_on_c, 0, 61, 43
2, 205822, Control_c, 0, 64, 23
2, 205842, Control_c, 0, 64, 44
2, 205860, Control_c, 0, 64, 58
2, 205882, Control_c, 0, 64, 64
2, 205898, Note_on_c, 0, 53, 0
2, 205902, Control_c, 0, 64, 67
2, 205919, Control_c, 0, 64, 71
2, 205939, Control_c, 0, 64, 77
2, 205958, Control_c, 0, 64, 82
2, 205975, Control_c, 0, 64, 88
2, 205996, Control_c, 0, 64, 94
2, 206000, Note_on_c, 0, 61, 0
2, 206015, Control_c, 0, 64, 99
2, 206034, Control_c, 0, 64, 101
2, 206091, Control_c, 0, 64, 100
2, 206106, Note_on_c, 0, 73, 0
2, 206130, Control_c, 0, 64, 98
2, 206150, Control_c, 0, 64, 96
2, 206157, Note_on_c, 0, 56, 57
2, 206168, Control_c, 0, 64, 94
2, 206173, Note_on_c, 0, 53, 50
2, 206191, Control_c, 0, 64, 92
2, 206208, Control_c, 0, 64, 89
2, 206228, Control_c, 0, 64, 87
2, 206246, Control_c, 0, 64, 84
2, 206266, Control_c, 0, 64, 81
2, 206283, Control_c, 0, 64, 77
2, 206303, Control_c, 0, 64, 73
2, 206314, Note_on_c, 0, 53, 0
2, 206325, Control_c, 0, 64, 70
2, 206338, Note_on_c, 0, 58, 61
2, 206339, Note_on_c, 0, 56, 0
2, 206343, Control_c, 0, 64, 67
2, 206352, Note_on_c, 0, 55, 60
2, 206361, Control_c, 0, 64, 65
2, 206380, Control_c, 0, 64, 64
2, 206397, Control_c, 0, 64, 63
2, 206437, Control_c, 0, 64, 62
2, 206457, Control_c, 0, 64, 59
2, 206474, Control_c, 0, 64, 53
2, 206494, Control_c, 0, 64, 35
2, 206512, Control_c, 0, 64, 0
2, 206556, Note_on_c, 0, 58, 0
2, 206575, Note_on_c, 0, 55, 0
2, 206598, Note_on_c, 0, 60, 52
2, 206605, Note_on_c, 0, 56, 52
2, 206649, Control_c, 0, 64, 26
2, 206671, Control_c, 0, 64, 40
2, 206689, Control_c, 0, 64, 50
2, 206707, Control_c, 0, 64, 58
2, 206726, Control_c, 0, 64, 62
2, 206745, Control_c, 0, 64, 64
2, 206763, Control_c, 0, 64, 65
2, 206783, Control_c, 0, 64, 66
2, 206804, Control_c, 0, 64, 69
2, 206822, Control_c, 0, 64, 73
2, 206840, Control_c, 0, 64, 78
2, 206847, Note_on_c, 0, 60, 0
2, 206860, Control_c, 0, 64, 85
2, 206878, Control_c, 0, 64, 92
2, 206899, Control_c, 0, 64, 95
2, 206917, Control_c, 0, 64, 96
2, 207001, Note_on_c, 0, 75, 56
2, 207014, Control_c, 0, 64, 95
2, 207027, Note_on_c, 0, 60, 51
2, 207033, Control_c, 0, 64, 93
2, 207052, Control_c, 0, 64, 92
2, 207070, Control_c, 0, 64, 90
2, 207089, Control_c, 0, 64, 88
2, 207110, Control_c, 0, 64, 86
2, 207128, Control_c, 0, 64, 85
2, 207147, Control_c, 0, 64, 83
2, 207167, Control_c, 0, 64, 81
2, 207189, Control_c, 0, 64, 78
2, 207189, Note_on_c, 0, 75, 0
2, 207200, Note_on_c, 0, 73, 64
2, 207204, Control_c, 0, 64, 75
2, 207215, Note_on_c, 0, 61, 51
2, 207227, Control_c, 0, 64, 73
2, 207227, Note_on_c, 0, 60, 0
2, 207245, Control_c, 0, 64, 71
2, 207263, Control_c, 0, 64, 70
2, 207282, Control_c, 0, 64, 69
2, 207300, Control_c, 0, 64, 67
2, 207320, Control_c, 0, 64, 66
2, 207342, Control_c, 0, 64, 65
2, 207398, Control_c, 0, 64, 64
2, 207421, Note_on_c, 0, 72, 67
2, 207427, Note_on_c, 0, 73, 0
2, 207439, Control_c, 0, 64, 63
2, 207459, Control_c, 0, 64, 62
2, 207459, Note_on_c, 0, 61, 0
2, 207464, Note_on_c, 0, 63, 47
2, 207570, Control_c, 0, 64, 61
2, 207590, Control_c, 0, 64, 60
2, 207609, Control_c, 0, 64, 57
2, 207623, Note_on_c, 0, 70, 70
2, 207632, Control_c, 0, 64, 53
2, 207632, Note_on_c, 0, 54, 51
2, 207648, Control_c, 0, 64, 48
2, 207650, Note_on_c, 0, 72, 0
2, 207662, Note_on_c, 0, 56, 0
2, 207667, Control_c, 0, 64, 40
2, 207687, Control_c, 0, 64, 34
2, 207706, Control_c, 0, 64, 32
2, 207725, Control_c, 0, 64, 33
2, 207742, Control_c, 0, 64, 35
2, 207764, Control_c, 0, 64, 40
2, 207782, Control_c, 0, 64, 47
2, 207797, Note_on_c, 0, 54, 0
2, 207803, Control_c, 0, 64, 54
2, 207808, Note_on_c, 0, 68, 74
2, 207819, Control_c, 0, 64, 59
2, 207829, Note_on_c, 0, 53, 51
2, 207840, Control_c, 0, 64, 61
2, 207858, Control_c, 0, 64, 62
2, 207864, Note_on_c, 0, 70, 0
2, 207878, Control_c, 0, 64, 63
2, 207897, Control_c, 0, 64, 65
2, 207918, Control_c, 0, 64, 67
2, 207935, Control_c, 0, 64, 69
2, 207954, Control_c, 0, 64, 72
2, 207974, Control_c, 0, 64, 73
2, 208001, Note_on_c, 0, 66, 77
2, 208015, Note_on_c, 0, 51, 62
2, 208053, Control_c, 0, 64, 72
2, 208053, Note_on_c, 0, 68, 0
2, 208087, Control_c, 0, 64, 71
2, 208099, Note_on_c, 0, 53, 0
2, 208103, Note_on_c, 0, 66, 0
2, 208147, Control_c, 0, 64, 70
2, 208165, Control_c, 0, 64, 69
2, 208185, Control_c, 0, 64, 68
2, 208205, Control_c, 0, 64, 67
2, 208225, Note_on_c, 0, 65, 65
2, 208244, Control_c, 0, 64, 66
2, 208253, Note_on_c, 0, 49, 53
2, 208261, Control_c, 0, 64, 65
2, 208280, Control_c, 0, 64, 63
2, 208299, Control_c, 0, 64, 62
2, 208313, Note_on_c, 0, 51, 0
2, 208318, Control_c, 0, 64, 60
2, 208340, Control_c, 0, 64, 57
2, 208357, Control_c, 0, 64, 54
2, 208377, Control_c, 0, 64, 51
2, 208397, Control_c, 0, 64, 47
2, 208415, Control_c, 0, 64, 43
2, 208434, Control_c, 0, 64, 38
2, 208454, Control_c, 0, 64, 34
2, 208475, Control_c, 0, 64, 29
2, 208492, Control_c, 0, 64, 23
2, 208513, Control_c, 0, 64, 17
2, 208529, Control_c, 0, 64, 13
2, 208587, Control_c, 0, 64, 17
2, 208609, Control_c, 0, 64, 22
2, 208627, Control_c, 0, 64, 29
2, 208627, Note_on_c, 0, 67, 60
2, 208642, Note_on_c, 0, 65, 0
2, 208646, Control_c, 0, 64, 38
2, 208655, Note_on_c, 0, 63, 0
2, 208660, Note_on_c, 0, 46, 43
2, 208664, Note_on_c, 0, 61, 55
2, 208668, Control_c, 0, 64, 47
2, 208686, Control_c, 0, 64, 55
2, 208707, Control_c, 0, 64, 61
2, 208713, Note_on_c, 0, 49, 0
2, 208724, Control_c, 0, 64, 63
2, 208742, Control_c, 0, 64, 64
2, 208762, Control_c, 0, 64, 65
2, 208781, Control_c, 0, 64, 67
2, 208799, Control_c, 0, 64, 68
2, 208814, Note_on_c, 0, 67, 0
2, 208821, Control_c, 0, 64, 70
2, 208832, Note_on_c, 0, 69, 68
2, 208839, Control_c, 0, 64, 71
2, 208843, Note_on_c, 0, 60, 60
2, 208855, Note_on_c, 0, 61, 0
2, 208859, Control_c, 0, 64, 72
2, 208862, Note_on_c, 0, 48, 48
2, 208888, Note_on_c, 0, 46, 0
2, 208892, Note_on_c, 0, 60, 0
2, 208991, Control_c, 0, 64, 71
2, 209009, Control_c, 0, 64, 70
2, 209029, Control_c, 0, 64, 66
2, 209049, Control_c, 0, 64, 59
2, 209069, Control_c, 0, 64, 50
2, 209069, Note_on_c, 0, 48, 0
2, 209086, Control_c, 0, 64, 42
2, 209093, Note_on_c, 0, 70, 63
2, 209104, Note_on_c, 0, 49, 47
2, 209109, Control_c, 0, 64, 38
2, 209109, Note_on_c, 0, 58, 52
2, 209127, Control_c, 0, 64, 37
2, 209147, Control_c, 0, 64, 39
2, 209152, Note_on_c, 0, 69, 0
2, 209163, Control_c, 0, 64, 43
2, 209184, Control_c, 0, 64, 51
2, 209203, Control_c, 0, 64, 58
2, 209222, Control_c, 0, 64, 62
2, 209244, Control_c, 0, 64, 64
2, 209244, Note_on_c, 0, 49, 0
2, 209259, Control_c, 0, 64, 65
2, 209281, Control_c, 0, 64, 68
2, 209299, Control_c, 0, 64, 71
2, 209317, Control_c, 0, 64, 76
2, 209340, Control_c, 0, 64, 81
2, 209357, Control_c, 0, 64, 88
2, 209376, Control_c, 0, 64, 93
2, 209396, Control_c, 0, 64, 96
2, 209406, Note_on_c, 0, 58, 0
2, 209413, Control_c, 0, 64, 97
2, 209469, Note_on_c, 0, 70, 0
2, 209473, Control_c, 0, 64, 96
2, 209507, Note_on_c, 0, 53, 56
2, 209512, Control_c, 0, 64, 95
2, 209518, Note_on_c, 0, 49, 48
2, 209530, Control_c, 0, 64, 93
2, 209551, Control_c, 0, 64, 91
2, 209568, Control_c, 0, 64, 89
2, 209587, Control_c, 0, 64, 87
2, 209606, Control_c, 0, 64, 85
2, 209625, Control_c, 0, 64, 83
2, 209644, Control_c, 0, 64, 80
2, 209662, Control_c, 0, 64, 77
2, 209683, Control_c, 0, 64, 73
2, 209694, Note_on_c, 0, 51, 63
2, 209703, Control_c, 0, 64, 70
2, 209712, Note_on_c, 0, 55, 63
2, 209723, Control_c, 0, 64, 66
2, 209740, Note_on_c, 0, 53, 0
2, 209745, Control_c, 0, 64, 64
2, 209745, Note_on_c, 0, 49, 0
2, 209758, Control_c, 0, 64, 63
2, 209778, Control_c, 0, 64, 62
2, 209796, Control_c, 0, 64, 61
2, 209837, Control_c, 0, 64, 60
2, 209857, Control_c, 0, 64, 58
2, 209875, Control_c, 0, 64, 55
2, 209892, Control_c, 0, 64, 49
2, 209915, Control_c, 0, 64, 37
2, 209931, Control_c, 0, 64, 19
2, 209953, Control_c, 0, 64, 0
2, 209953, Note_on_c, 0, 55, 0
2, 209956, Note_on_c, 0, 53, 54
2, 209965, Note_on_c, 0, 56, 57
2, 209970, Note_on_c, 0, 51, 0
2, 210027, Control_c, 0, 64, 11
2, 210048, Control_c, 0, 64, 23
2, 210067, Control_c, 0, 64, 37
2, 210086, Control_c, 0, 64, 49
2, 210103, Control_c, 0, 64, 58
2, 210123, Control_c, 0, 64, 62
2, 210146, Control_c, 0, 64, 64
2, 210163, Control_c, 0, 64, 66
2, 210180, Control_c, 0, 64, 67
2, 210201, Control_c, 0, 64, 70
2, 210219, Control_c, 0, 64, 74
2, 210235, Note_on_c, 0, 56, 0
2, 210242, Control_c, 0, 64, 80
2, 210260, Control_c, 0, 64, 87
2, 210279, Control_c, 0, 64, 94
2, 210296, Control_c, 0, 64, 100
2, 210317, Control_c, 0, 64, 103
2, 210335, Control_c, 0, 64, 104
2, 210387, Note_on_c, 0, 72, 56
2, 210405, Note_on_c, 0, 56, 50
2, 210430, Control_c, 0, 64, 103
2, 210452, Control_c, 0, 64, 102
2, 210469, Control_c, 0, 64, 100
2, 210489, Control_c, 0, 64, 99
2, 210507, Control_c, 0, 64, 97
2, 210527, Control_c, 0, 64, 94
2, 210547, Control_c, 0, 64, 92
2, 210568, Control_c, 0, 64, 90
2, 210579, Note_on_c, 0, 72, 0
2, 210584, Note_on_c, 0, 70, 67
2, 210588, Control_c, 0, 64, 88
2, 210596, Note_on_c, 0, 58, 48
2, 210605, Control_c, 0, 64, 86
2, 210624, Control_c, 0, 64, 84
2, 210644, Control_c, 0, 64, 82
2, 210662, Control_c, 0, 64, 80
2, 210682, Control_c, 0, 64, 78
2, 210700, Control_c, 0, 64, 76
2, 210718, Control_c, 0, 64, 75
2, 210738, Control_c, 0, 64, 73
2, 210759, Control_c, 0, 64, 72
2, 210778, Control_c, 0, 64, 71
2, 210782, Note_on_c, 0, 58, 0
2, 210788, Note_on_c, 0, 68, 64
2, 210797, Control_c, 0, 64, 69
2, 210797, Note_on_c, 0, 70, 0
2, 210815, Control_c, 0, 64, 68
2, 210820, Note_on_c, 0, 60, 52
2, 210835, Control_c, 0, 64, 67
2, 210872, Control_c, 0, 64, 66
2, 210883, Note_on_c, 0, 56, 0
2, 210930, Control_c, 0, 64, 65
2, 210972, Control_c, 0, 64, 64
2, 210988, Note_on_c, 0, 51, 54
2, 210990, Note_on_c, 0, 67, 65
2, 210996, Note_on_c, 0, 68, 0
2, 211026, Control_c, 0, 64, 63
2, 211051, Note_on_c, 0, 53, 0
2, 211085, Control_c, 0, 64, 62
2, 211141, Control_c, 0, 64, 61
2, 211180, Control_c, 0, 64, 60
2, 211191, Note_on_c, 0, 51, 0
2, 211201, Note_on_c, 0, 65, 69
2, 211208, Note_on_c, 0, 49, 60
2, 211217, Control_c, 0, 64, 59
2, 211256, Control_c, 0, 64, 58
2, 211269, Note_on_c, 0, 67, 0
2, 211278, Control_c, 0, 64, 57
2, 211293, Control_c, 0, 64, 56
2, 211313, Control_c, 0, 64, 54
2, 211332, Control_c, 0, 64, 52
2, 211354, Control_c, 0, 64, 50
2, 211375, Control_c, 0, 64, 48
2, 211392, Control_c, 0, 64, 46
2, 211392, Note_on_c, 0, 63, 76
2, 211413, Control_c, 0, 64, 44
2, 211413, Note_on_c, 0, 48, 61
2, 211431, Control_c, 0, 64, 43
2, 211454, Note_on_c, 0, 49, 0
2, 211485, Note_on_c, 0, 65, 0
2, 211609, Note_on_c, 0, 46, 60
2, 211609, Note_on_c, 0, 61, 72
2, 211654, Note_on_c, 0, 48, 0
2, 211687, Note_on_c, 0, 60, 0
2, 211715, Note_on_c, 0, 63, 0
2, 211797, Note_on_c, 0, 48, 67
2, 211813, Control_c, 0, 64, 44
2, 211857, Note_on_c, 0, 46, 0
2, 212004, Note_on_c, 0, 58, 69
2, 212019, Note_on_c, 0, 49, 58
2, 212053, Note_on_c, 0, 48, 0
2, 212194, Note_on_c, 0, 60, 76
2, 212198, Note_on_c, 0, 48, 72
2, 212223, Note_on_c, 0, 49, 0
2, 212236, Control_c, 0, 64, 45
2, 212248, Note_on_c, 0, 58, 0
2, 212253, Note_on_c, 0, 61, 0
2, 212332, Control_c, 0, 64, 46
2, 212402, Note_on_c, 0, 46, 66
2, 212402, Note_on_c, 0, 61, 75
2, 212460, Note_on_c, 0, 60, 0
2, 212464, Note_on_c, 0, 48, 0
2, 212595, Note_on_c, 0, 65, 72
2, 212602, Note_on_c, 0, 44, 65
2, 212619, Control_c, 0, 64, 47
2, 212662, Note_on_c, 0, 46, 0
2, 212755, Control_c, 0, 64, 48
2, 212765, Note_on_c, 0, 44, 0
2, 212788, Note_on_c, 0, 43, 67
2, 212797, Note_on_c, 0, 70, 80
2, 212976, Note_on_c, 0, 41, 65
2, 212983, Note_on_c, 0, 68, 87
2, 213001, Note_on_c, 0, 43, 0
2, 213024, Control_c, 0, 64, 46
2, 213033, Note_on_c, 0, 65, 0
2, 213041, Control_c, 0, 64, 42
2, 213061, Control_c, 0, 64, 37
2, 213081, Control_c, 0, 64, 33
2, 213093, Note_on_c, 0, 70, 0
2, 213102, Control_c, 0, 64, 32
2, 213118, Control_c, 0, 64, 33
2, 213139, Control_c, 0, 64, 36
2, 213156, Control_c, 0, 64, 41
2, 213175, Control_c, 0, 64, 49
2, 213196, Control_c, 0, 64, 56
2, 213214, Control_c, 0, 64, 61
2, 213219, Note_on_c, 0, 39, 56
2, 213235, Control_c, 0, 64, 64
2, 213235, Note_on_c, 0, 69, 71
2, 213257, Control_c, 0, 64, 65
2, 213257, Note_on_c, 0, 41, 0
2, 213272, Control_c, 0, 64, 68
2, 213286, Note_on_c, 0, 68, 0
2, 213295, Control_c, 0, 64, 72
2, 213312, Control_c, 0, 64, 77
2, 213312, Note_on_c, 0, 69, 0
2, 213330, Control_c, 0, 64, 82
2, 213351, Control_c, 0, 64, 85
2, 213370, Control_c, 0, 64, 87
2, 213405, Note_on_c, 0, 67, 72
2, 213463, Control_c, 0, 64, 86
2, 213482, Control_c, 0, 64, 85
2, 213502, Control_c, 0, 64, 84
2, 213560, Control_c, 0, 64, 83
2, 213581, Control_c, 0, 64, 78
2, 213599, Control_c, 0, 64, 69
2, 213619, Control_c, 0, 64, 61
2, 213637, Control_c, 0, 64, 52
2, 213645, Note_on_c, 0, 63, 64
2, 213659, Control_c, 0, 64, 45
2, 213674, Control_c, 0, 64, 43
2, 213679, Note_on_c, 0, 46, 56
2, 213697, Note_on_c, 0, 61, 0
2, 213715, Control_c, 0, 64, 46
2, 213735, Control_c, 0, 64, 52
2, 213751, Control_c, 0, 64, 60
2, 213771, Control_c, 0, 64, 65
2, 213790, Control_c, 0, 64, 71
2, 213808, Note_on_c, 0, 39, 0
2, 213811, Control_c, 0, 64, 81
2, 213831, Control_c, 0, 64, 98
2, 213836, Note_on_c, 0, 46, 0
2, 213844, Note_on_c, 0, 61, 72
2, 213844, Note_on_c, 0, 67, 0
2, 213848, Control_c, 0, 64, 127
2, 213869, Note_on_c, 0, 63, 0
2, 214047, Note_on_c, 0, 61, 0
2, 214136, Control_c, 0, 64, 120
2, 214145, Note_on_c, 0, 63, 84
2, 214156, Note_on_c, 0, 48, 55
2, 214159, Control_c, 0, 64, 103
2, 214176, Control_c, 0, 64, 94
2, 214185, Note_on_c, 0, 68, 74
2, 214194, Control_c, 0, 64, 85
2, 214198, Note_on_c, 0, 60, 62
2, 214213, Control_c, 0, 64, 78
2, 214235, Control_c, 0, 64, 70
2, 214252, Control_c, 0, 64, 64
2, 214269, Control_c, 0, 64, 58
2, 214290, Control_c, 0, 64, 50
2, 214311, Control_c, 0, 64, 35
2, 214329, Control_c, 0, 64, 0
2, 214464, Control_c, 0, 64, 30
2, 214483, Control_c, 0, 64, 51
2, 214500, Control_c, 0, 64, 61
2, 214521, Control_c, 0, 64, 65
2, 214541, Control_c, 0, 64, 69
2, 214559, Control_c, 0, 64, 73
2, 214578, Control_c, 0, 64, 78
2, 214583, Note_on_c, 0, 60, 0
2, 214598, Control_c, 0, 64, 82
2, 214617, Control_c, 0, 64, 88
2, 214636, Control_c, 0, 64, 95
2, 214655, Control_c, 0, 64, 109
2, 214660, Note_on_c, 0, 44, 55
2, 214660, Note_on_c, 0, 61, 63
2, 214675, Control_c, 0, 64, 127
2, 214709, Note_on_c, 0, 63, 0
2, 214720, Note_on_c, 0, 48, 0
2, 214741, Note_on_c, 0, 68, 0
2, 214801, Note_on_c, 0, 44, 0
2, 214830, Note_on_c, 0, 61, 0
2, 214839, Note_on_c, 0, 60, 76
2, 215017, Note_on_c, 0, 60, 0
2, 215049, Note_on_c, 0, 65, 82
2, 215078, Note_on_c, 0, 49, 56
2, 215078, Note_on_c, 0, 58, 53
2, 215096, Control_c, 0, 64, 122
2, 215116, Control_c, 0, 64, 108
2, 215134, Control_c, 0, 64, 97
2, 215153, Control_c, 0, 64, 81
2, 215172, Control_c, 0, 64, 63
2, 215193, Control_c, 0, 64, 46
2, 215211, Control_c, 0, 64, 20
2, 215230, Control_c, 0, 64, 0
2, 215245, Note_on_c, 0, 67, 68
2, 215289, Control_c, 0, 64, 12
2, 215307, Control_c, 0, 64, 31
2, 215326, Control_c, 0, 64, 45
2, 215345, Control_c, 0, 64, 55
2, 215364, Control_c, 0, 64, 60
2, 215385, Control_c, 0, 64, 62
2, 215404, Control_c, 0, 64, 63
2, 215422, Control_c, 0, 64, 64
2, 215429, Note_on_c, 0, 67, 0
2, 215442, Control_c, 0, 64, 65
2, 215447, Note_on_c, 0, 46, 56
2, 215456, Note_on_c, 0, 68, 72
2, 215463, Control_c, 0, 64, 68
2, 215476, Note_on_c, 0, 49, 0
2, 215480, Control_c, 0, 64, 72
2, 215499, Control_c, 0, 64, 77
2, 215519, Control_c, 0, 64, 86
2, 215537, Control_c, 0, 64, 95
2, 215555, Control_c, 0, 64, 106
2, 215572, Control_c, 0, 64, 127
2, 215639, Note_on_c, 0, 70, 77
2, 215655, Note_on_c, 0, 68, 0
2, 215663, Note_on_c, 0, 65, 0
2, 215719, Note_on_c, 0, 70, 0
2, 215786, Control_c, 0, 64, 115
2, 215805, Control_c, 0, 64, 108
2, 215825, Control_c, 0, 64, 103
2, 215845, Control_c, 0, 64, 97
2, 215849, Note_on_c, 0, 46, 0
2, 215857, Note_on_c, 0, 63, 80
2, 215865, Control_c, 0, 64, 93
2, 215881, Control_c, 0, 64, 89
2, 215885, Note_on_c, 0, 72, 75
2, 215890, Note_on_c, 0, 51, 56
2, 215900, Control_c, 0, 64, 87
2, 215923, Control_c, 0, 64, 83
2, 215939, Control_c, 0, 64, 77
2, 215957, Control_c, 0, 64, 67
2, 215978, Control_c, 0, 64, 56
2, 215996, Control_c, 0, 64, 36
2, 216015, Control_c, 0, 64, 10
2, 216035, Control_c, 0, 64, 0
2, 216131, Control_c, 0, 64, 12
2, 216152, Control_c, 0, 64, 22
2, 216170, Control_c, 0, 64, 31
2, 216189, Control_c, 0, 64, 41
2, 216210, Control_c, 0, 64, 51
2, 216227, Control_c, 0, 64, 59
2, 216245, Control_c, 0, 64, 62
2, 216267, Control_c, 0, 64, 64
2, 216288, Control_c, 0, 64, 65
2, 216292, Note_on_c, 0, 56, 61
2, 216301, Note_on_c, 0, 48, 60
2, 216305, Control_c, 0, 64, 66
2, 216308, Note_on_c, 0, 51, 0
2, 216324, Control_c, 0, 64, 70
2, 216328, Note_on_c, 0, 58, 0
2, 216342, Control_c, 0, 64, 76
2, 216363, Control_c, 0, 64, 86
2, 216379, Control_c, 0, 64, 103
2, 216399, Control_c, 0, 64, 127
2, 216406, Note_on_c, 0, 63, 0
2, 216491, Note_on_c, 0, 55, 75
2, 216530, Note_on_c, 0, 56, 0
2, 216677, Note_on_c, 0, 72, 0
2, 216724, Note_on_c, 0, 48, 0
2, 216724, Note_on_c, 0, 53, 59
2, 216731, Note_on_c, 0, 62, 82
2, 216742, Note_on_c, 0, 56, 53
2, 216803, Control_c, 0, 64, 112
2, 216807, Note_on_c, 0, 55, 0
2, 216823, Control_c, 0, 64, 92
2, 216841, Control_c, 0, 64, 71
2, 216860, Control_c, 0, 64, 57
2, 216879, Control_c, 0, 64, 38
2, 216899, Control_c, 0, 64, 16
2, 216917, Control_c, 0, 64, 11
2, 216940, Control_c, 0, 64, 13
2, 216940, Note_on_c, 0, 68, 74
2, 216959, Control_c, 0, 64, 24
2, 216977, Control_c, 0, 64, 37
2, 216996, Control_c, 0, 64, 51
2, 217013, Control_c, 0, 64, 61
2, 217033, Control_c, 0, 64, 65
2, 217055, Control_c, 0, 64, 69
2, 217073, Control_c, 0, 64, 74
2, 217093, Control_c, 0, 64, 81
2, 217111, Control_c, 0, 64, 88
2, 217130, Control_c, 0, 64, 97
2, 217130, Note_on_c, 0, 55, 65
2, 217139, Note_on_c, 0, 70, 80
2, 217144, Note_on_c, 0, 53, 0
2, 217153, Control_c, 0, 64, 110
2, 217153, Note_on_c, 0, 46, 55
2, 217170, Control_c, 0, 64, 127
2, 217170, Note_on_c, 0, 56, 0
2, 217180, Note_on_c, 0, 68, 0
2, 217280, Note_on_c, 0, 62, 0
2, 217319, Note_on_c, 0, 55, 0
2, 217319, Note_on_c, 0, 56, 72
2, 217319, Note_on_c, 0, 72, 85
2, 217360, Note_on_c, 0, 70, 0
2, 217451, Note_on_c, 0, 56, 0
2, 217477, Note_on_c, 0, 72, 0
2, 217514, Control_c, 0, 64, 115
2, 217535, Control_c, 0, 64, 80
2, 217546, Note_on_c, 0, 67, 82
2, 217554, Control_c, 0, 64, 62
2, 217563, Note_on_c, 0, 58, 62
2, 217570, Control_c, 0, 64, 46
2, 217579, Note_on_c, 0, 73, 70
2, 217591, Control_c, 0, 64, 31
2, 217610, Control_c, 0, 64, 27
2, 217628, Control_c, 0, 64, 29
2, 217647, Control_c, 0, 64, 37
2, 217669, Control_c, 0, 64, 50
2, 217685, Control_c, 0, 64, 62
2, 217706, Control_c, 0, 64, 68
2, 217714, Note_on_c, 0, 58, 0
2, 217724, Control_c, 0, 64, 80
2, 217731, Note_on_c, 0, 56, 72
2, 217744, Control_c, 0, 64, 115
2, 217762, Control_c, 0, 64, 127
2, 217836, Note_on_c, 0, 46, 0
2, 217878, Note_on_c, 0, 56, 0
2, 217909, Note_on_c, 0, 67, 0
2, 217927, Note_on_c, 0, 55, 71
2, 217934, Note_on_c, 0, 51, 69
2, 217969, Note_on_c, 0, 73, 0
2, 217983, Note_on_c, 0, 51, 0
2, 218007, Note_on_c, 0, 55, 0
2, 218113, Note_on_c, 0, 53, 67
2, 218120, Note_on_c, 0, 49, 60
2, 218173, Note_on_c, 0, 49, 0
2, 218175, Note_on_c, 0, 53, 0
2, 218302, Control_c, 0, 64, 118
2, 218319, Control_c, 0, 64, 93
2, 218326, Note_on_c, 0, 68, 88
2, 218342, Control_c, 0, 64, 69
2, 218342, Note_on_c, 0, 51, 62
2, 218346, Note_on_c, 0, 48, 61
2, 218358, Control_c, 0, 64, 52
2, 218378, Control_c, 0, 64, 24
2, 218395, Control_c, 0, 64, 0
2, 218455, Control_c, 0, 64, 8
2, 218475, Control_c, 0, 64, 40
2, 218492, Control_c, 0, 64, 57
2, 218512, Control_c, 0, 64, 66
2, 218519, Note_on_c, 0, 72, 77
2, 218533, Control_c, 0, 64, 73
2, 218540, Note_on_c, 0, 48, 0
2, 218540, Note_on_c, 0, 51, 0
2, 218552, Control_c, 0, 64, 83
2, 218568, Control_c, 0, 64, 95
2, 218588, Control_c, 0, 64, 106
2, 218611, Control_c, 0, 64, 109
2, 218702, Control_c, 0, 64, 108
2, 218736, Note_on_c, 0, 73, 73
2, 218745, Control_c, 0, 64, 106
2, 218747, Note_on_c, 0, 56, 77
2, 218751, Note_on_c, 0, 53, 70
2, 218763, Note_on_c, 0, 72, 0
2, 218767, Control_c, 0, 64, 97
2, 218783, Control_c, 0, 64, 79
2, 218801, Control_c, 0, 64, 64
2, 218819, Control_c, 0, 64, 53
2, 218838, Control_c, 0, 64, 43
2, 218876, Control_c, 0, 64, 49
2, 218897, Control_c, 0, 64, 57
2, 218918, Control_c, 0, 64, 63
2, 218929, Note_on_c, 0, 75, 80
2, 218933, Control_c, 0, 64, 67
2, 218955, Control_c, 0, 64, 72
2, 218974, Control_c, 0, 64, 79
2, 218978, Note_on_c, 0, 68, 0
2, 218985, Note_on_c, 0, 73, 0
2, 218992, Control_c, 0, 64, 87
2, 219010, Control_c, 0, 64, 93
2, 219033, Control_c, 0, 64, 94
2, 219050, Control_c, 0, 64, 95
2, 219067, Control_c, 0, 64, 94
2, 219087, Control_c, 0, 64, 91
2, 219106, Control_c, 0, 64, 88
2, 219125, Control_c, 0, 64, 85
2, 219145, Control_c, 0, 64, 81
2, 219165, Control_c, 0, 64, 76
2, 219186, Control_c, 0, 64, 71
2, 219197, Note_on_c, 0, 61, 78
2, 219202, Control_c, 0, 64, 66
2, 219214, Note_on_c, 0, 75, 0
2, 219223, Control_c, 0, 64, 63
2, 219223, Note_on_c, 0, 77, 64
2, 219242, Control_c, 0, 64, 60
2, 219261, Control_c, 0, 64, 59
2, 219282, Control_c, 0, 64, 57
2, 219298, Control_c, 0, 64, 55
2, 219319, Control_c, 0, 64, 53
2, 219335, Note_on_c, 0, 56, 0
2, 219339, Control_c, 0, 64, 51
2, 219357, Control_c, 0, 64, 49
2, 219378, Control_c, 0, 64, 46
2, 219385, Note_on_c, 0, 53, 0
2, 219393, Note_on_c, 0, 51, 59
2, 219397, Control_c, 0, 64, 44
2, 219415, Control_c, 0, 64, 40
2, 219433, Control_c, 0, 64, 21
2, 219448, Note_on_c, 0, 55, 54
2, 219453, Control_c, 0, 64, 0
2, 219588, Control_c, 0, 64, 18
2, 219606, Control_c, 0, 64, 43
2, 219626, Control_c, 0, 64, 55
2, 219637, Note_on_c, 0, 53, 66
2, 219637, Note_on_c, 0, 56, 71
2, 219645, Control_c, 0, 64, 62
2, 219650, Note_on_c, 0, 51, 0
2, 219650, Note_on_c, 0, 55, 0
2, 219665, Control_c, 0, 64, 64
2, 219665, Note_on_c, 0, 61, 0
2, 219686, Control_c, 0, 64, 65
2, 219704, Control_c, 0, 64, 67
2, 219721, Control_c, 0, 64, 69
2, 219740, Control_c, 0, 64, 72
2, 219762, Control_c, 0, 64, 75
2, 219762, Note_on_c, 0, 56, 0
2, 219781, Control_c, 0, 64, 77
2, 219797, Control_c, 0, 64, 78
2, 219803, Note_on_c, 0, 58, 72
2, 219830, Note_on_c, 0, 55, 55
2, 219875, Control_c, 0, 64, 77
2, 219892, Note_on_c, 0, 53, 0
2, 219892, Note_on_c, 0, 58, 0
2, 219933, Control_c, 0, 64, 76
2, 219951, Control_c, 0, 64, 74
2, 219970, Control_c, 0, 64, 73
2, 219993, Control_c, 0, 64, 71
2, 220010, Control_c, 0, 64, 69
2, 220010, Note_on_c, 0, 77, 0
2, 220026, Note_on_c, 0, 60, 80
2, 220031, Control_c, 0, 64, 67
2, 220046, Note_on_c, 0, 56, 72
2, 220050, Control_c, 0, 64, 65
2, 220057, Note_on_c, 0, 55, 0
2, 220068, Control_c, 0, 64, 63
2, 220088, Control_c, 0, 64, 60
2, 220105, Control_c, 0, 64, 59
2, 220144, Control_c, 0, 64, 58
2, 220163, Control_c, 0, 64, 55
2, 220182, Control_c, 0, 64, 45
2, 220202, Control_c, 0, 64, 13
2, 220220, Note_on_c, 0, 75, 74
2, 220225, Control_c, 0, 64, 0
2, 220225, Note_on_c, 0, 55, 62
2, 220276, Note_on_c, 0, 56, 0
2, 220393, Control_c, 0, 64, 38
2, 220413, Control_c, 0, 64, 53
2, 220420, Note_on_c, 0, 77, 81
2, 220433, Control_c, 0, 64, 61
2, 220433, Note_on_c, 0, 53, 70
2, 220433, Note_on_c, 0, 55, 0
2, 220453, Control_c, 0, 64, 64
2, 220470, Control_c, 0, 64, 66
2, 220478, Note_on_c, 0, 75, 0
2, 220491, Control_c, 0, 64, 68
2, 220509, Control_c, 0, 64, 71
2, 220527, Control_c, 0, 64, 76
2, 220547, Control_c, 0, 64, 81
2, 220568, Control_c, 0, 64, 85
2, 220585, Control_c, 0, 64, 88
2, 220614, Note_on_c, 0, 51, 78
2, 220615, Note_on_c, 0, 79, 87
2, 220641, Note_on_c, 0, 53, 0
2, 220657, Note_on_c, 0, 77, 0
2, 220675, Note_on_c, 0, 60, 0
2, 220701, Control_c, 0, 64, 87
2, 220713, Note_on_c, 0, 51, 0
2, 220720, Control_c, 0, 64, 86
2, 220737, Control_c, 0, 64, 85
2, 220757, Control_c, 0, 64, 84
2, 220777, Control_c, 0, 64, 82
2, 220797, Control_c, 0, 64, 80
2, 220815, Control_c, 0, 64, 78
2, 220835, Control_c, 0, 64, 75
2, 220853, Control_c, 0, 64, 72
2, 220876, Control_c, 0, 64, 69
2, 220876, Note_on_c, 0, 59, 80
2, 220898, Control_c, 0, 64, 66
2, 220898, Note_on_c, 0, 50, 66
2, 220898, Note_on_c, 0, 79, 0
2, 220898, Note_on_c, 0, 80, 70
2, 220912, Control_c, 0, 64, 63
2, 220931, Control_c, 0, 64, 62
2, 220952, Control_c, 0, 64, 61
2, 220988, Control_c, 0, 64, 59
2, 221008, Control_c, 0, 64, 55
2, 221027, Control_c, 0, 64, 46
2, 221046, Control_c, 0, 64, 28
2, 221065, Control_c, 0, 64, 0
2, 221087, Note_on_c, 0, 53, 70
2, 221237, Control_c, 0, 64, 15
2, 221257, Control_c, 0, 64, 37
2, 221275, Control_c, 0, 64, 50
2, 221294, Control_c, 0, 64, 58
2, 221308, Note_on_c, 0, 55, 71
2, 221316, Control_c, 0, 64, 60
2, 221322, Note_on_c, 0, 53, 0
2, 221336, Control_c, 0, 64, 62
2, 221356, Control_c, 0, 64, 63
2, 221374, Control_c, 0, 64, 64
2, 221393, Control_c, 0, 64, 65
2, 221414, Control_c, 0, 64, 67
2, 221431, Control_c, 0, 64, 69
2, 221451, Control_c, 0, 64, 72
2, 221468, Control_c, 0, 64, 74
2, 221488, Control_c, 0, 64, 75
2, 221504, Note_on_c, 0, 56, 79
2, 221516, Note_on_c, 0, 55, 0
2, 221545, Control_c, 0, 64, 74
2, 221552, Note_on_c, 0, 59, 0
2, 221585, Control_c, 0, 64, 73
2, 221622, Control_c, 0, 64, 72
2, 221640, Control_c, 0, 64, 70
2, 221660, Control_c, 0, 64, 68
2, 221682, Control_c, 0, 64, 66
2, 221701, Control_c, 0, 64, 65
2, 221717, Control_c, 0, 64, 64
2, 221775, Control_c, 0, 64, 63
2, 221796, Control_c, 0, 64, 62
2, 221804, Note_on_c, 0, 58, 68
2, 221827, Note_on_c, 0, 51, 59
2, 221834, Control_c, 0, 64, 61
2, 221872, Control_c, 0, 64, 60
2, 221892, Control_c, 0, 64, 56
2, 221901, Note_on_c, 0, 50, 0
2, 221909, Control_c, 0, 64, 49
2, 221930, Control_c, 0, 64, 39
2, 221949, Control_c, 0, 64, 24
2, 221954, Note_on_c, 0, 56, 0
2, 221969, Control_c, 0, 64, 0
2, 222275, Note_on_c, 0, 51, 0
2, 222275, Note_on_c, 0, 79, 62
2, 222287, Note_on_c, 0, 50, 51
2, 222294, Control_c, 0, 64, 10
2, 222372, Control_c, 0, 64, 11
2, 222392, Control_c, 0, 64, 12
2, 222392, Note_on_c, 0, 80, 0
2, 222408, Control_c, 0, 64, 13
2, 222428, Control_c, 0, 64, 14
2, 222448, Control_c, 0, 64, 15
2, 222458, Note_on_c, 0, 77, 66
2, 222504, Control_c, 0, 64, 16
2, 222527, Note_on_c, 0, 79, 0
2, 222582, Control_c, 0, 64, 17
2, 222602, Control_c, 0, 64, 18
2, 222620, Control_c, 0, 64, 19
2, 222641, Control_c, 0, 64, 20
2, 222648, Note_on_c, 0, 50, 0
2, 222659, Control_c, 0, 64, 22
2, 222680, Control_c, 0, 64, 24
2, 222684, Note_on_c, 0, 79, 67
2, 222692, Note_on_c, 0, 52, 49
2, 222701, Control_c, 0, 64, 25
2, 222752, Note_on_c, 0, 77, 0
2, 222755, Control_c, 0, 64, 26
2, 222773, Control_c, 0, 64, 27
2, 222812, Control_c, 0, 64, 28
2, 222832, Control_c, 0, 64, 29
2, 222871, Control_c, 0, 64, 30
2, 222886, Note_on_c, 0, 55, 53
2, 222908, Control_c, 0, 64, 31
2, 223004, Control_c, 0, 64, 32
2, 223052, Note_on_c, 0, 52, 0
2, 223100, Note_on_c, 0, 53, 49
2, 223111, Note_on_c, 0, 55, 0
2, 223121, Control_c, 0, 64, 33
2, 223124, Note_on_c, 0, 48, 23
2, 223179, Control_c, 0, 64, 34
2, 223283, Note_on_c, 0, 53, 0
2, 223298, Note_on_c, 0, 48, 0
2, 223312, Note_on_c, 0, 52, 48
2, 223334, Control_c, 0, 64, 35
2, 223388, Control_c, 0, 64, 36
2, 223427, Control_c, 0, 64, 37
2, 223600, Note_on_c, 0, 56, 50
2, 223628, Note_on_c, 0, 53, 40
2, 223651, Note_on_c, 0, 52, 0
2, 223711, Note_on_c, 0, 58, 0
2, 223879, Note_on_c, 0, 72, 49
2, 223921, Note_on_c, 0, 53, 0
2, 224069, Note_on_c, 0, 72, 0
2, 224086, Note_on_c, 0, 74, 55
2, 224100, Note_on_c, 0, 53, 43
2, 224143, Note_on_c, 0, 79, 0
2, 224155, Control_c, 0, 64, 38
2, 224195, Note_on_c, 0, 53, 0
2, 224233, Control_c, 0, 64, 39
2, 224263, Note_on_c, 0, 51, 45
2, 224274, Control_c, 0, 64, 40
2, 224290, Note_on_c, 0, 75, 55
2, 224310, Control_c, 0, 64, 41
2, 224336, Note_on_c, 0, 74, 0
2, 224369, Control_c, 0, 64, 42
2, 224424, Note_on_c, 0, 51, 0
2, 224446, Control_c, 0, 64, 43
2, 224481, Note_on_c, 0, 75, 0
2, 224496, Note_on_c, 0, 77, 60
2, 224509, Note_on_c, 0, 50, 35
2, 224661, Note_on_c, 0, 56, 0
2, 224690, Note_on_c, 0, 71, 58
2, 224716, Note_on_c, 0, 50, 0
2, 224880, Note_on_c, 0, 71, 0
2, 224889, Note_on_c, 0, 50, 34
2, 224891, Note_on_c, 0, 72, 62
2, 225078, Note_on_c, 0, 74, 59
2, 225082, Note_on_c, 0, 48, 48
2, 225095, Note_on_c, 0, 72, 0
2, 225114, Note_on_c, 0, 50, 0
2, 225264, Note_on_c, 0, 67, 53
2, 225287, Note_on_c, 0, 48, 0
2, 225296, Note_on_c, 0, 74, 0
2, 225300, Note_on_c, 0, 47, 39
2, 225427, Control_c, 0, 64, 44
2, 225470, Note_on_c, 0, 47, 0
2, 225484, Control_c, 0, 64, 45
2, 225484, Note_on_c, 0, 43, 48
2, 225519, Control_c, 0, 64, 46
2, 225537, Control_c, 0, 64, 47
2, 225658, Note_on_c, 0, 43, 0
2, 225682, Note_on_c, 0, 75, 61
2, 225691, Note_on_c, 0, 45, 41
2, 225711, Control_c, 0, 64, 48
2, 225711, Note_on_c, 0, 77, 0
2, 225770, Control_c, 0, 64, 47
2, 225860, Note_on_c, 0, 74, 71
2, 225886, Note_on_c, 0, 47, 46
2, 225886, Note_on_c, 0, 75, 0
2, 225902, Control_c, 0, 64, 48
2, 225909, Note_on_c, 0, 45, 0
2, 226065, Note_on_c, 0, 47, 0
2, 226072, Note_on_c, 0, 75, 66
2, 226076, Note_on_c, 0, 74, 0
2, 226099, Note_on_c, 0, 48, 45
2, 226117, Control_c, 0, 64, 49
2, 226231, Control_c, 0, 64, 50
2, 226280, Note_on_c, 0, 44, 60
2, 226336, Note_on_c, 0, 48, 0
2, 226385, Control_c, 0, 64, 51
2, 226486, Note_on_c, 0, 66, 68
2, 226497, Note_on_c, 0, 46, 51
2, 226501, Note_on_c, 0, 67, 0
2, 226508, Note_on_c, 0, 44, 0
2, 226677, Note_on_c, 0, 46, 0
2, 226689, Note_on_c, 0, 48, 54
2, 226749, Control_c, 0, 64, 52
2, 226930, Note_on_c, 0, 65, 47
2, 226938, Note_on_c, 0, 49, 38
2, 226953, Note_on_c, 0, 66, 0
2, 226973, Note_on_c, 0, 48, 0
2, 227111, Note_on_c, 0, 75, 0
2, 227152, Note_on_c, 0, 68, 60
2, 227155, Control_c, 0, 64, 53
2, 227166, Note_on_c, 0, 49, 0
2, 227344, Note_on_c, 0, 49, 37
2, 227350, Note_on_c, 0, 70, 62
2, 227366, Note_on_c, 0, 68, 0
2, 227422, Control_c, 0, 64, 52
2, 227532, Note_on_c, 0, 72, 69
2, 227539, Note_on_c, 0, 70, 0
2, 227543, Note_on_c, 0, 48, 43
2, 227548, Note_on_c, 0, 49, 0
2, 227748, Note_on_c, 0, 73, 62
2, 227772, Note_on_c, 0, 46, 41
2, 227783, Note_on_c, 0, 72, 0
2, 227812, Note_on_c, 0, 48, 0
2, 227945, Note_on_c, 0, 67, 54
2, 227959, Note_on_c, 0, 46, 0
2, 227965, Note_on_c, 0, 65, 0
2, 228035, Control_c, 0, 64, 53
2, 228073, Control_c, 0, 64, 52
2, 228125, Note_on_c, 0, 46, 43
2, 228138, Note_on_c, 0, 68, 58
2, 228156, Note_on_c, 0, 67, 0
2, 228321, Note_on_c, 0, 70, 60
2, 228327, Note_on_c, 0, 44, 52
2, 228341, Note_on_c, 0, 68, 0
2, 228348, Note_on_c, 0, 46, 0
2, 228379, Control_c, 0, 64, 53
2, 228554, Note_on_c, 0, 63, 45
2, 228563, Note_on_c, 0, 43, 35
2, 228584, Note_on_c, 0, 70, 0
2, 228592, Note_on_c, 0, 44, 0
2, 228753, Note_on_c, 0, 39, 43
2, 228803, Control_c, 0, 64, 52
2, 228857, Note_on_c, 0, 43, 0
2, 228907, Note_on_c, 0, 39, 0
2, 228948, Note_on_c, 0, 72, 55
2, 228953, Note_on_c, 0, 73, 0
2, 228955, Note_on_c, 0, 41, 40
2, 229119, Note_on_c, 0, 41, 0
2, 229131, Note_on_c, 0, 72, 0
2, 229137, Note_on_c, 0, 70, 59
2, 229149, Note_on_c, 0, 43, 43
2, 229323, Note_on_c, 0, 43, 0
2, 229339, Note_on_c, 0, 70, 0
2, 229348, Note_on_c, 0, 72, 57
2, 229355, Note_on_c, 0, 44, 48
2, 229435, Note_on_c, 0, 63, 0
2, 229528, Note_on_c, 0, 66, 58
2, 229551, Note_on_c, 0, 41, 45
2, 229600, Note_on_c, 0, 44, 0
2, 229610, Control_c, 0, 64, 51
2, 229712, Note_on_c, 0, 66, 0
2, 229735, Note_on_c, 0, 65, 58
2, 229745, Note_on_c, 0, 43, 48
2, 229786, Note_on_c, 0, 41, 0
2, 229929, Note_on_c, 0, 63, 65
2, 229933, Note_on_c, 0, 65, 0
2, 229942, Note_on_c, 0, 43, 0
2, 229954, Note_on_c, 0, 45, 45
2, 229991, Control_c, 0, 64, 50
2, 230155, Note_on_c, 0, 46, 47
2, 230159, Note_on_c, 0, 61, 52
2, 230166, Control_c, 0, 64, 51
2, 230179, Note_on_c, 0, 45, 0
2, 230214, Note_on_c, 0, 63, 0
2, 230337, Note_on_c, 0, 45, 50
2, 230358, Control_c, 0, 64, 50
2, 230377, Note_on_c, 0, 46, 0
2, 230553, Note_on_c, 0, 65, 58
2, 230568, Note_on_c, 0, 46, 44
2, 230577, Note_on_c, 0, 45, 0
2, 230599, Note_on_c, 0, 72, 0
2, 230740, Note_on_c, 0, 46, 0
2, 230758, Note_on_c, 0, 48, 45
2, 230988, Note_on_c, 0, 65, 0
2, 230995, Note_on_c, 0, 49, 34
2, 231052, Note_on_c, 0, 48, 0
2, 231174, Note_on_c, 0, 68, 37
2, 231215, Note_on_c, 0, 68, 0
2, 231315, Note_on_c, 0, 46, 20
2, 231322, Note_on_c, 0, 68, 60
2, 231368, Note_on_c, 0, 46, 0
2, 231379, Note_on_c, 0, 49, 0
2, 231429, Note_on_c, 0, 48, 23
2, 231564, Note_on_c, 0, 48, 0
2, 231580, Note_on_c, 0, 49, 41
2, 231681, Control_c, 0, 64, 51
2, 231779, Note_on_c, 0, 68, 0
2, 231786, Note_on_c, 0, 67, 45
2, 231804, Note_on_c, 0, 49, 0
2, 231804, Note_on_c, 0, 51, 32
2, 231840, Note_on_c, 0, 61, 0
2, 231894, Control_c, 0, 64, 50
2, 231951, Control_c, 0, 64, 51
2, 231964, Note_on_c, 0, 60, 39
2, 231999, Note_on_c, 0, 60, 0
2, 232024, Note_on_c, 0, 51, 0
2, 232028, Note_on_c, 0, 58, 47
2, 232186, Note_on_c, 0, 51, 37
2, 232191, Note_on_c, 0, 58, 0
2, 232209, Note_on_c, 0, 60, 43
2, 232348, Note_on_c, 0, 60, 0
2, 232391, Note_on_c, 0, 61, 51
2, 232395, Note_on_c, 0, 49, 44
2, 232462, Note_on_c, 0, 51, 0
2, 232569, Note_on_c, 0, 61, 0
2, 232601, Note_on_c, 0, 48, 42
2, 232606, Note_on_c, 0, 63, 56
2, 232615, Note_on_c, 0, 67, 0
2, 232689, Note_on_c, 0, 49, 0
2, 232765, Note_on_c, 0, 48, 0
2, 232785, Note_on_c, 0, 67, 53
2, 232971, Note_on_c, 0, 48, 38
2, 232984, Note_on_c, 0, 67, 0
2, 232987, Note_on_c, 0, 68, 63
2, 233151, Note_on_c, 0, 48, 0
2, 233178, Note_on_c, 0, 68, 0
2, 233183, Note_on_c, 0, 70, 62
2, 233199, Note_on_c, 0, 46, 46
2, 233220, Control_c, 0, 64, 52
2, 233407, Note_on_c, 0, 70, 0
2, 233407, Note_on_c, 0, 72, 55
2, 233430, Note_on_c, 0, 44, 43
2, 233435, Note_on_c, 0, 63, 0
2, 233437, Note_on_c, 0, 46, 0
2, 233595, Note_on_c, 0, 63, 57
2, 233757, Note_on_c, 0, 44, 0
2, 233764, Note_on_c, 0, 63, 0
2, 233797, Note_on_c, 0, 65, 58
2, 233808, Note_on_c, 0, 56, 41
2, 233983, Note_on_c, 0, 67, 53
2, 233987, Note_on_c, 0, 56, 0
2, 233987, Note_on_c, 0, 65, 0
2, 234006, Note_on_c, 0, 55, 42
2, 234162, Control_c, 0, 64, 53
2, 234167, Note_on_c, 0, 67, 0
2, 234176, Note_on_c, 0, 72, 0
2, 234200, Note_on_c, 0, 53, 39
2, 234209, Note_on_c, 0, 68, 59
2, 234231, Note_on_c, 0, 55, 0
2, 234350, Control_c, 0, 64, 52
2, 234372, Note_on_c, 0, 72, 62
2, 234433, Note_on_c, 0, 53, 0
2, 234578, Note_on_c, 0, 53, 43
2, 234598, Note_on_c, 0, 74, 63
2, 234607, Note_on_c, 0, 72, 0
2, 234791, Note_on_c, 0, 53, 0
2, 234798, Note_on_c, 0, 75, 66
2, 234811, Note_on_c, 0, 74, 0
2, 234820, Note_on_c, 0, 51, 47
2, 235052, Note_on_c, 0, 50, 39
2, 235070, Note_on_c, 0, 51, 0
2, 235125, Note_on_c, 0, 75, 0
2, 235156, Note_on_c, 0, 77, 56
2, 235196, Control_c, 0, 64, 51
2, 235352, Note_on_c, 0, 68, 0
2, 235370, Control_c, 0, 64, 52
2, 235407, Control_c, 0, 64, 53
2, 235410, Note_on_c, 0, 72, 48
2, 235426, Control_c, 0, 64, 55
2, 235445, Control_c, 0, 64, 58
2, 235465, Control_c, 0, 64, 61
2, 235485, Control_c, 0, 64, 63
2, 235506, Control_c, 0, 64, 64
2, 235521, Control_c, 0, 64, 66
2, 235542, Control_c, 0, 64, 69
2, 235562, Control_c, 0, 64, 74
2, 235579, Control_c, 0, 64, 81
2, 235591, Note_on_c, 0, 72, 0
2, 235599, Control_c, 0, 64, 93
2, 235619, Control_c, 0, 64, 115
2, 235623, Note_on_c, 0, 70, 53
2, 235634, Note_on_c, 0, 77, 0
2, 235639, Control_c, 0, 64, 127
2, 235774, Note_on_c, 0, 50, 0
2, 235774, Note_on_c, 0, 70, 0
2, 235824, Note_on_c, 0, 68, 59
2, 235889, Note_on_c, 0, 68, 0
2, 236060, Control_c, 0, 64, 113
2, 236079, Control_c, 0, 64, 101
2, 236097, Control_c, 0, 64, 94
2, 236111, Note_on_c, 0, 58, 63
2, 236117, Control_c, 0, 64, 88
2, 236138, Control_c, 0, 64, 84
2, 236156, Control_c, 0, 64, 80
2, 236169, Note_on_c, 0, 51, 49
2, 236176, Control_c, 0, 64, 77
2, 236181, Note_on_c, 0, 67, 48
2, 236194, Control_c, 0, 64, 74
2, 236212, Control_c, 0, 64, 70
2, 236229, Control_c, 0, 64, 68
2, 236248, Control_c, 0, 64, 66
2, 236267, Control_c, 0, 64, 65
2, 236290, Control_c, 0, 64, 64
2, 236309, Control_c, 0, 64, 62
2, 236325, Control_c, 0, 64, 60
2, 236345, Control_c, 0, 64, 57
2, 236363, Control_c, 0, 64, 52
2, 236382, Control_c, 0, 64, 47
2, 236403, Control_c, 0, 64, 40
2, 236422, Control_c, 0, 64, 33
2, 236440, Control_c, 0, 64, 28
2, 236458, Control_c, 0, 64, 27
2, 236458, Note_on_c, 0, 70, 51
2, 236499, Control_c, 0, 64, 32
2, 236518, Control_c, 0, 64, 39
2, 236535, Control_c, 0, 64, 48
2, 236556, Control_c, 0, 64, 55
2, 236576, Control_c, 0, 64, 60
2, 236594, Control_c, 0, 64, 62
2, 236614, Control_c, 0, 64, 64
2, 236633, Control_c, 0, 64, 65
2, 236652, Control_c, 0, 64, 68
2, 236666, Note_on_c, 0, 70, 0
2, 236675, Control_c, 0, 64, 71
2, 236675, Note_on_c, 0, 55, 48
2, 236680, Note_on_c, 0, 75, 50
2, 236690, Control_c, 0, 64, 77
2, 236711, Note_on_c, 0, 67, 0
2, 236716, Control_c, 0, 64, 85
2, 236729, Control_c, 0, 64, 97
2, 236748, Control_c, 0, 64, 116
2, 236768, Control_c, 0, 64, 127
2, 236781, Note_on_c, 0, 58, 0
2, 236859, Note_on_c, 0, 67, 50
2, 236879, Note_on_c, 0, 75, 0
2, 236896, Note_on_c, 0, 51, 0
2, 236914, Note_on_c, 0, 67, 0
2, 236961, Control_c, 0, 64, 122
2, 236979, Control_c, 0, 64, 107
2, 236999, Control_c, 0, 64, 101
2, 237019, Control_c, 0, 64, 95
2, 237036, Control_c, 0, 64, 88
2, 237057, Control_c, 0, 64, 83
2, 237057, Note_on_c, 0, 60, 71
2, 237078, Control_c, 0, 64, 78
2, 237099, Control_c, 0, 64, 74
2, 237099, Note_on_c, 0, 56, 54
2, 237103, Note_on_c, 0, 55, 0
2, 237103, Note_on_c, 0, 65, 54
2, 237115, Control_c, 0, 64, 71
2, 237131, Control_c, 0, 64, 69
2, 237150, Control_c, 0, 64, 66
2, 237174, Control_c, 0, 64, 65
2, 237192, Control_c, 0, 64, 63
2, 237209, Control_c, 0, 64, 62
2, 237250, Control_c, 0, 64, 60
2, 237266, Control_c, 0, 64, 58
2, 237286, Control_c, 0, 64, 53
2, 237306, Note_on_c, 0, 75, 52
2, 237311, Control_c, 0, 64, 46
2, 237327, Control_c, 0, 64, 35
2, 237344, Control_c, 0, 64, 26
2, 237361, Control_c, 0, 64, 22
2, 237400, Control_c, 0, 64, 26
2, 237422, Control_c, 0, 64, 34
2, 237422, Note_on_c, 0, 75, 0
2, 237429, Note_on_c, 0, 56, 0
2, 237444, Control_c, 0, 64, 45
2, 237458, Control_c, 0, 64, 57
2, 237480, Control_c, 0, 64, 62
2, 237485, Note_on_c, 0, 53, 56
2, 237487, Note_on_c, 0, 74, 55
2, 237497, Control_c, 0, 64, 64
2, 237516, Control_c, 0, 64, 66
2, 237534, Control_c, 0, 64, 69
2, 237555, Control_c, 0, 64, 72
2, 237559, Note_on_c, 0, 60, 0
2, 237573, Control_c, 0, 64, 78
2, 237594, Control_c, 0, 64, 85
2, 237613, Control_c, 0, 64, 93
2, 237631, Control_c, 0, 64, 99
2, 237641, Note_on_c, 0, 74, 0
2, 237652, Control_c, 0, 64, 103
2, 237661, Note_on_c, 0, 53, 0
2, 237681, Note_on_c, 0, 72, 67
2, 237747, Control_c, 0, 64, 102
2, 237766, Control_c, 0, 64, 100
2, 237783, Control_c, 0, 64, 97
2, 237803, Control_c, 0, 64, 94
2, 237824, Control_c, 0, 64, 90
2, 237841, Control_c, 0, 64, 86
2, 237861, Control_c, 0, 64, 82
2, 237887, Control_c, 0, 64, 81
2, 237887, Note_on_c, 0, 58, 74
2, 237891, Note_on_c, 0, 65, 0
2, 237891, Note_on_c, 0, 72, 0
2, 237900, Control_c, 0, 64, 80
2, 237911, Note_on_c, 0, 74, 59
2, 237919, Control_c, 0, 64, 79
2, 237939, Control_c, 0, 64, 78
2, 237958, Control_c, 0, 64, 75
2, 237979, Control_c, 0, 64, 71
2, 237996, Control_c, 0, 64, 65
2, 238017, Control_c, 0, 64, 58
2, 238034, Control_c, 0, 64, 50
2, 238054, Control_c, 0, 64, 40
2, 238072, Control_c, 0, 64, 29
2, 238092, Control_c, 0, 64, 21
2, 238099, Note_on_c, 0, 74, 0
2, 238104, Note_on_c, 0, 75, 59
2, 238113, Control_c, 0, 64, 19
2, 238131, Control_c, 0, 64, 20
2, 238150, Control_c, 0, 64, 25
2, 238169, Control_c, 0, 64, 32
2, 238188, Control_c, 0, 64, 42
2, 238207, Control_c, 0, 64, 51
2, 238226, Control_c, 0, 64, 59
2, 238246, Control_c, 0, 64, 63
2, 238266, Control_c, 0, 64, 65
2, 238284, Note_on_c, 0, 46, 62
2, 238289, Control_c, 0, 64, 68
2, 238306, Control_c, 0, 64, 74
2, 238319, Note_on_c, 0, 72, 58
2, 238319, Note_on_c, 0, 75, 0
2, 238323, Control_c, 0, 64, 81
2, 238341, Control_c, 0, 64, 93
2, 238355, Note_on_c, 0, 46, 0
2, 238362, Control_c, 0, 64, 109
2, 238376, Note_on_c, 0, 58, 0
2, 238383, Control_c, 0, 64, 127
2, 238489, Note_on_c, 0, 72, 0
2, 238500, Note_on_c, 0, 74, 57
2, 238631, Control_c, 0, 64, 112
2, 238647, Control_c, 0, 64, 105
2, 238670, Control_c, 0, 64, 99
2, 238686, Control_c, 0, 64, 90
2, 238706, Control_c, 0, 64, 75
2, 238713, Note_on_c, 0, 57, 71
2, 238729, Control_c, 0, 64, 63
2, 238738, Note_on_c, 0, 48, 56
2, 238743, Note_on_c, 0, 75, 58
2, 238745, Control_c, 0, 64, 49
2, 238764, Control_c, 0, 64, 32
2, 238776, Note_on_c, 0, 74, 0
2, 238784, Control_c, 0, 64, 18
2, 238803, Control_c, 0, 64, 13
2, 238821, Control_c, 0, 64, 14
2, 238842, Control_c, 0, 64, 24
2, 238859, Control_c, 0, 64, 36
2, 238880, Control_c, 0, 64, 47
2, 238901, Control_c, 0, 64, 56
2, 238917, Control_c, 0, 64, 61
2, 238939, Control_c, 0, 64, 63
2, 238943, Note_on_c, 0, 72, 63
2, 238956, Control_c, 0, 64, 65
2, 238960, Note_on_c, 0, 75, 0
2, 238976, Control_c, 0, 64, 68
2, 238998, Control_c, 0, 64, 71
2, 239014, Control_c, 0, 64, 76
2, 239021, Note_on_c, 0, 48, 0
2, 239032, Control_c, 0, 64, 82
2, 239053, Control_c, 0, 64, 89
2, 239072, Control_c, 0, 64, 95
2, 239089, Control_c, 0, 64, 101
2, 239108, Control_c, 0, 64, 106
2, 239115, Note_on_c, 0, 57, 0
2, 239130, Control_c, 0, 64, 109
2, 239130, Note_on_c, 0, 60, 60
2, 239134, Note_on_c, 0, 74, 63
2, 239140, Note_on_c, 0, 72, 0
2, 239149, Control_c, 0, 64, 111
2, 239167, Control_c, 0, 64, 113
2, 239186, Note_on_c, 0, 60, 0
2, 239263, Control_c, 0, 64, 111
2, 239283, Control_c, 0, 64, 110
2, 239294, Note_on_c, 0, 74, 0
2, 239298, Note_on_c, 0, 58, 70
2, 239303, Control_c, 0, 64, 108
2, 239312, Note_on_c, 0, 75, 61
2, 239320, Control_c, 0, 64, 105
2, 239340, Control_c, 0, 64, 102
2, 239344, Note_on_c, 0, 58, 0
2, 239358, Control_c, 0, 64, 97
2, 239377, Control_c, 0, 64, 94
2, 239399, Control_c, 0, 64, 89
2, 239417, Control_c, 0, 64, 85
2, 239435, Control_c, 0, 64, 81
2, 239455, Control_c, 0, 64, 79
2, 239475, Control_c, 0, 64, 78
2, 239496, Control_c, 0, 64, 77
2, 239512, Control_c, 0, 64, 76
2, 239532, Control_c, 0, 64, 75
2, 239535, Note_on_c, 0, 62, 77
2, 239543, Note_on_c, 0, 75, 0
2, 239550, Control_c, 0, 64, 72
2, 239571, Note_on_c, 0, 77, 65
2, 239574, Control_c, 0, 64, 66
2, 239588, Note_on_c, 0, 56, 46
2, 239593, Control_c, 0, 64, 58
2, 239611, Control_c, 0, 64, 46
2, 239630, Control_c, 0, 64, 34
2, 239647, Control_c, 0, 64, 27
2, 239665, Control_c, 0, 64, 25
2, 239687, Control_c, 0, 64, 26
2, 239705, Control_c, 0, 64, 32
2, 239724, Control_c, 0, 64, 41
2, 239743, Control_c, 0, 64, 51
2, 239764, Control_c, 0, 64, 59
2, 239764, Note_on_c, 0, 77, 0
2, 239770, Note_on_c, 0, 75, 65
2, 239783, Control_c, 0, 64, 62
2, 239801, Control_c, 0, 64, 64
2, 239821, Control_c, 0, 64, 66
2, 239842, Control_c, 0, 64, 68
2, 239855, Note_on_c, 0, 75, 0
2, 239862, Control_c, 0, 64, 71
2, 239879, Control_c, 0, 64, 76
2, 239896, Control_c, 0, 64, 81
2, 239916, Control_c, 0, 64, 85
2, 239934, Note_on_c, 0, 58, 67
2, 239938, Control_c, 0, 64, 88
2, 239947, Note_on_c, 0, 74, 68
2, 239954, Control_c, 0, 64, 89
2, 239994, Note_on_c, 0, 56, 0
2, 240051, Control_c, 0, 64, 88
2, 240069, Note_on_c, 0, 74, 0
2, 240078, Note_on_c, 0, 62, 0
2, 240110, Control_c, 0, 64, 87
2, 240135, Note_on_c, 0, 73, 59
2, 240139, Note_on_c, 0, 56, 61
2, 240139, Note_on_c, 0, 72, 68
2, 240165, Note_on_c, 0, 58, 0
2, 240169, Control_c, 0, 64, 86
2, 240206, Control_c, 0, 64, 85
2, 240243, Note_on_c, 0, 73, 0
2, 240247, Control_c, 0, 64, 83
2, 240263, Control_c, 0, 64, 73
2, 240263, Note_on_c, 0, 72, 0
2, 240281, Control_c, 0, 64, 61
2, 240300, Control_c, 0, 64, 45
2, 240307, Note_on_c, 0, 70, 59
2, 240318, Control_c, 0, 64, 23
2, 240335, Note_on_c, 0, 63, 76
2, 240340, Control_c, 0, 64, 15
2, 240353, Note_on_c, 0, 55, 53
2, 240358, Control_c, 0, 64, 18
2, 240379, Control_c, 0, 64, 30
2, 240379, Note_on_c, 0, 56, 0
2, 240395, Control_c, 0, 64, 46
2, 240417, Control_c, 0, 64, 59
2, 240433, Control_c, 0, 64, 64
2, 240440, Note_on_c, 0, 63, 0
2, 240454, Control_c, 0, 64, 67
2, 240474, Control_c, 0, 64, 71
2, 240495, Control_c, 0, 64, 74
2, 240514, Control_c, 0, 64, 76
2, 240530, Control_c, 0, 64, 77
2, 240548, Note_on_c, 0, 60, 62
2, 240590, Control_c, 0, 64, 76
2, 240690, Note_on_c, 0, 60, 0
2, 240724, Control_c, 0, 64, 73
2, 240741, Control_c, 0, 64, 67
2, 240746, Note_on_c, 0, 62, 61
2, 240761, Control_c, 0, 64, 60
2, 240777, Note_on_c, 0, 46, 47
2, 240782, Control_c, 0, 64, 56
2, 240800, Control_c, 0, 64, 57
2, 240819, Control_c, 0, 64, 59
2, 240836, Control_c, 0, 64, 61
2, 240856, Control_c, 0, 64, 63
2, 240876, Control_c, 0, 64, 66
2, 240894, Control_c, 0, 64, 71
2, 240915, Control_c, 0, 64, 77
2, 240921, Note_on_c, 0, 55, 0
2, 240928, Note_on_c, 0, 62, 0
2, 240935, Control_c, 0, 64, 82
2, 240935, Note_on_c, 0, 63, 69
2, 240941, Note_on_c, 0, 48, 65
2, 240954, Control_c, 0, 64, 86
2, 240990, Note_on_c, 0, 46, 0
2, 240992, Control_c, 0, 64, 85
2, 241010, Control_c, 0, 64, 84
2, 241028, Control_c, 0, 64, 82
2, 241051, Control_c, 0, 64, 80
2, 241068, Control_c, 0, 64, 77
2, 241088, Control_c, 0, 64, 74
2, 241105, Control_c, 0, 64, 72
2, 241126, Note_on_c, 0, 63, 0
2, 241130, Control_c, 0, 64, 69
2, 241147, Control_c, 0, 64, 67
2, 241159, Note_on_c, 0, 56, 74
2, 241167, Control_c, 0, 64, 65
2, 241171, Note_on_c, 0, 48, 0
2, 241181, Note_on_c, 0, 50, 60
2, 241186, Control_c, 0, 64, 64
2, 241186, Note_on_c, 0, 65, 55
2, 241201, Control_c, 0, 64, 63
2, 241221, Control_c, 0, 64, 61
2, 241243, Control_c, 0, 64, 58
2, 241258, Control_c, 0, 64, 53
2, 241279, Control_c, 0, 64, 41
2, 241298, Control_c, 0, 64, 0
2, 241385, Note_on_c, 0, 63, 64
2, 241418, Note_on_c, 0, 65, 0
2, 241452, Control_c, 0, 64, 30
2, 241471, Control_c, 0, 64, 42
2, 241489, Control_c, 0, 64, 51
2, 241512, Control_c, 0, 64, 58
2, 241512, Note_on_c, 0, 70, 0
2, 241529, Control_c, 0, 64, 62
2, 241542, Note_on_c, 0, 63, 0
2, 241548, Control_c, 0, 64, 64
2, 241568, Control_c, 0, 64, 65
2, 241568, Note_on_c, 0, 48, 59
2, 241572, Note_on_c, 0, 62, 66
2, 241580, Note_on_c, 0, 50, 0
2, 241587, Control_c, 0, 64, 66
2, 241605, Control_c, 0, 64, 68
2, 241623, Control_c, 0, 64, 71
2, 241646, Control_c, 0, 64, 74
2, 241660, Note_on_c, 0, 56, 0
2, 241664, Control_c, 0, 64, 78
2, 241684, Control_c, 0, 64, 80
2, 241702, Control_c, 0, 64, 81
2, 241706, Note_on_c, 0, 62, 0
2, 241739, Note_on_c, 0, 50, 65
2, 241745, Note_on_c, 0, 60, 63
2, 241799, Control_c, 0, 64, 80
2, 241808, Note_on_c, 0, 48, 0
2, 241837, Control_c, 0, 64, 79
2, 241855, Control_c, 0, 64, 77
2, 241875, Control_c, 0, 64, 76
2, 241894, Control_c, 0, 64, 74
2, 241913, Control_c, 0, 64, 72
2, 241933, Control_c, 0, 64, 70
2, 241941, Note_on_c, 0, 60, 0
2, 241952, Control_c, 0, 64, 69
2, 241974, Control_c, 0, 64, 68
2, 241977, Note_on_c, 0, 55, 73
2, 241986, Note_on_c, 0, 58, 64
2, 241991, Control_c, 0, 64, 66
2, 242008, Control_c, 0, 64, 64
2, 242030, Control_c, 0, 64, 62
2, 242030, Note_on_c, 0, 51, 58
2, 242047, Control_c, 0, 64, 60
2, 242065, Control_c, 0, 64, 57
2, 242076, Note_on_c, 0, 50, 0
2, 242085, Control_c, 0, 64, 54
2, 242104, Control_c, 0, 64, 47
2, 242123, Control_c, 0, 64, 32
2, 242143, Control_c, 0, 64, 0
2, 242178, Note_on_c, 0, 68, 74
2, 242271, Note_on_c, 0, 51, 0
2, 242336, Control_c, 0, 64, 26
2, 242356, Control_c, 0, 64, 43
2, 242373, Control_c, 0, 64, 54
2, 242384, Note_on_c, 0, 67, 72
2, 242393, Control_c, 0, 64, 59
2, 242400, Note_on_c, 0, 51, 73
2, 242412, Control_c, 0, 64, 61
2, 242417, Note_on_c, 0, 68, 0
2, 242431, Control_c, 0, 64, 62
2, 242449, Control_c, 0, 64, 63
2, 242469, Control_c, 0, 64, 64
2, 242489, Control_c, 0, 64, 66
2, 242507, Control_c, 0, 64, 68
2, 242526, Control_c, 0, 64, 70
2, 242547, Control_c, 0, 64, 72
2, 242576, Note_on_c, 0, 65, 77
2, 242585, Control_c, 0, 64, 73
2, 242585, Note_on_c, 0, 50, 71
2, 242591, Note_on_c, 0, 55, 0
2, 242605, Control_c, 0, 64, 74
2, 242613, Note_on_c, 0, 67, 0
2, 242622, Note_on_c, 0, 51, 0
2, 242642, Control_c, 0, 64, 73
2, 242682, Control_c, 0, 64, 72
2, 242699, Control_c, 0, 64, 70
2, 242719, Control_c, 0, 64, 69
2, 242739, Control_c, 0, 64, 67
2, 242759, Control_c, 0, 64, 66
2, 242776, Control_c, 0, 64, 65
2, 242796, Control_c, 0, 64, 64
2, 242817, Control_c, 0, 64, 63
2, 242836, Control_c, 0, 64, 62
2, 242855, Control_c, 0, 64, 61
2, 242874, Control_c, 0, 64, 60
2, 242874, Note_on_c, 0, 54, 77
2, 242892, Note_on_c, 0, 63, 66
2, 242897, Control_c, 0, 64, 59
2, 242906, Note_on_c, 0, 48, 65
2, 242913, Control_c, 0, 64, 57
2, 242913, Note_on_c, 0, 50, 0
2, 242926, Note_on_c, 0, 65, 0
2, 242931, Control_c, 0, 64, 52
2, 242948, Control_c, 0, 64, 41
2, 242968, Control_c, 0, 64, 0
2, 243103, Control_c, 0, 64, 18
2, 243124, Control_c, 0, 64, 36
2, 243141, Control_c, 0, 64, 47
2, 243161, Control_c, 0, 64, 56
2, 243166, Note_on_c, 0, 48, 0
2, 243174, Note_on_c, 0, 58, 0
2, 243183, Control_c, 0, 64, 60
2, 243201, Control_c, 0, 64, 62
2, 243238, Control_c, 0, 64, 63
2, 243278, Control_c, 0, 64, 64
2, 243336, Note_on_c, 0, 48, 58
2, 243348, Note_on_c, 0, 57, 60
2, 243497, Note_on_c, 0, 57, 0
2, 243532, Note_on_c, 0, 58, 61
2, 243538, Note_on_c, 0, 54, 0
2, 243542, Note_on_c, 0, 46, 57
2, 243557, Note_on_c, 0, 48, 0
2, 243640, Control_c, 0, 64, 63
2, 243756, Note_on_c, 0, 53, 64
2, 243756, Note_on_c, 0, 58, 0
2, 243769, Note_on_c, 0, 63, 0
2, 243777, Control_c, 0, 64, 62
2, 243781, Note_on_c, 0, 60, 52
2, 243808, Note_on_c, 0, 45, 48
2, 243812, Note_on_c, 0, 46, 0
2, 243832, Control_c, 0, 64, 61
2, 243871, Control_c, 0, 64, 60
2, 243889, Control_c, 0, 64, 59
2, 243909, Control_c, 0, 64, 58
2, 243932, Control_c, 0, 64, 56
2, 243947, Control_c, 0, 64, 53
2, 243953, Note_on_c, 0, 63, 53
2, 243971, Control_c, 0, 64, 50
2, 243988, Control_c, 0, 64, 46
2, 244005, Control_c, 0, 64, 43
2, 244023, Control_c, 0, 64, 39
2, 244043, Control_c, 0, 64, 37
2, 244064, Control_c, 0, 64, 35
2, 244083, Control_c, 0, 64, 34
2, 244100, Control_c, 0, 64, 33
2, 244121, Control_c, 0, 64, 32
2, 244141, Control_c, 0, 64, 30
2, 244161, Note_on_c, 0, 65, 55
2, 244165, Note_on_c, 0, 63, 0
2, 244325, Note_on_c, 0, 60, 0
2, 244332, Note_on_c, 0, 63, 49
2, 244397, Note_on_c, 0, 65, 0
2, 244410, Control_c, 0, 64, 31
2, 244571, Note_on_c, 0, 63, 0
2, 244576, Note_on_c, 0, 62, 47
2, 244579, Note_on_c, 0, 46, 45
2, 244594, Note_on_c, 0, 58, 36
2, 244598, Note_on_c, 0, 45, 0
2, 244763, Note_on_c, 0, 72, 61
2, 244792, Control_c, 0, 64, 32
2, 244887, Control_c, 0, 64, 33
2, 244968, Note_on_c, 0, 70, 60
2, 244968, Note_on_c, 0, 72, 0
2, 245024, Control_c, 0, 64, 34
2, 245080, Control_c, 0, 64, 35
2, 245185, Note_on_c, 0, 68, 61
2, 245204, Note_on_c, 0, 70, 0
2, 245465, Control_c, 0, 64, 34
2, 245465, Note_on_c, 0, 46, 0
2, 245482, Control_c, 0, 64, 33
2, 245487, Note_on_c, 0, 67, 49
2, 245491, Note_on_c, 0, 51, 31
2, 245506, Control_c, 0, 64, 31
2, 245506, Note_on_c, 0, 53, 0
2, 245520, Note_on_c, 0, 62, 0
2, 245524, Control_c, 0, 64, 27
2, 245529, Note_on_c, 0, 68, 0
2, 245543, Control_c, 0, 64, 22
2, 245559, Control_c, 0, 64, 17
2, 245598, Control_c, 0, 64, 20
2, 245620, Control_c, 0, 64, 31
2, 245635, Control_c, 0, 64, 43
2, 245655, Control_c, 0, 64, 54
2, 245677, Control_c, 0, 64, 60
2, 245695, Control_c, 0, 64, 63
2, 245715, Control_c, 0, 64, 64
2, 245736, Control_c, 0, 64, 65
2, 245754, Control_c, 0, 64, 66
2, 245774, Control_c, 0, 64, 68
2, 245792, Control_c, 0, 64, 70
2, 245813, Control_c, 0, 64, 71
2, 245829, Control_c, 0, 64, 72
2, 245869, Note_on_c, 0, 67, 0
2, 245873, Control_c, 0, 64, 71
2, 245906, Note_on_c, 0, 70, 54
2, 245928, Note_on_c, 0, 63, 42
2, 245961, Note_on_c, 0, 58, 0
2, 245963, Control_c, 0, 64, 70
2, 246020, Control_c, 0, 64, 69
2, 246033, Note_on_c, 0, 63, 0
2, 246061, Control_c, 0, 64, 68
2, 246079, Control_c, 0, 64, 67
2, 246093, Note_on_c, 0, 51, 0
2, 246107, Note_on_c, 0, 65, 49
2, 246116, Control_c, 0, 64, 66
2, 246136, Control_c, 0, 64, 65
2, 246173, Note_on_c, 0, 65, 0
2, 246177, Control_c, 0, 64, 64
2, 246213, Control_c, 0, 64, 63
2, 246291, Control_c, 0, 64, 62
2, 246332, Note_on_c, 0, 75, 63
2, 246367, Control_c, 0, 64, 61
2, 246374, Note_on_c, 0, 67, 35
2, 246388, Note_on_c, 0, 70, 0
2, 246424, Control_c, 0, 64, 60
2, 246444, Control_c, 0, 64, 59
2, 246462, Control_c, 0, 64, 58
2, 246501, Control_c, 0, 64, 57
2, 246559, Control_c, 0, 64, 56
2, 246596, Note_on_c, 0, 67, 0
2, 246600, Control_c, 0, 64, 55
2, 246731, Control_c, 0, 64, 54
2, 246752, Control_c, 0, 64, 53
2, 246752, Note_on_c, 0, 67, 51
2, 246762, Note_on_c, 0, 51, 38
2, 246773, Control_c, 0, 64, 51
2, 246790, Control_c, 0, 64, 47
2, 246811, Control_c, 0, 64, 43
2, 246829, Control_c, 0, 64, 39
2, 246847, Control_c, 0, 64, 36
2, 246865, Control_c, 0, 64, 34
2, 246919, Note_on_c, 0, 51, 0
2, 246923, Note_on_c, 0, 67, 0
2, 246946, Note_on_c, 0, 53, 47
2, 246948, Note_on_c, 0, 68, 66
2, 247099, Note_on_c, 0, 75, 0
2, 247154, Control_c, 0, 64, 35
2, 247181, Note_on_c, 0, 53, 0
2, 247181, Note_on_c, 0, 68, 0
2, 247198, Note_on_c, 0, 70, 52
2, 247216, Note_on_c, 0, 55, 38
2, 247379, Note_on_c, 0, 79, 68
2, 247415, Note_on_c, 0, 55, 0
2, 247569, Note_on_c, 0, 79, 0
2, 247573, Note_on_c, 0, 77, 70
2, 247596, Note_on_c, 0, 55, 52
2, 247598, Note_on_c, 0, 58, 54
2, 247743, Note_on_c, 0, 55, 0
2, 247764, Note_on_c, 0, 75, 72
2, 247767, Note_on_c, 0, 58, 0
2, 247773, Note_on_c, 0, 60, 55
2, 247774, Note_on_c, 0, 77, 0
2, 247785, Note_on_c, 0, 56, 54
2, 247962, Control_c, 0, 64, 36
2, 247971, Note_on_c, 0, 56, 0
2, 247971, Note_on_c, 0, 60, 0
2, 247971, Note_on_c, 0, 75, 0
2, 247981, Note_on_c, 0, 74, 71
2, 247992, Note_on_c, 0, 62, 50
2, 248001, Control_c, 0, 64, 38
2, 248001, Note_on_c, 0, 58, 43
2, 248005, Note_on_c, 0, 70, 0
2, 248021, Control_c, 0, 64, 41
2, 248037, Control_c, 0, 64, 48
2, 248056, Control_c, 0, 64, 56
2, 248076, Control_c, 0, 64, 61
2, 248094, Control_c, 0, 64, 63
2, 248113, Control_c, 0, 64, 64
2, 248134, Control_c, 0, 64, 66
2, 248154, Control_c, 0, 64, 68
2, 248165, Note_on_c, 0, 60, 57
2, 248165, Note_on_c, 0, 62, 0
2, 248172, Control_c, 0, 64, 71
2, 248172, Note_on_c, 0, 68, 69
2, 248191, Note_on_c, 0, 58, 0
2, 248195, Control_c, 0, 64, 76
2, 248211, Note_on_c, 0, 60, 0
2, 248216, Control_c, 0, 64, 80
2, 248229, Control_c, 0, 64, 84
2, 248246, Control_c, 0, 64, 86
2, 248266, Control_c, 0, 64, 87
2, 248308, Control_c, 0, 64, 88
2, 248326, Control_c, 0, 64, 90
2, 248344, Control_c, 0, 64, 91
2, 248353, Note_on_c, 0, 68, 0
2, 248374, Note_on_c, 0, 67, 63
2, 248385, Control_c, 0, 64, 85
2, 248385, Note_on_c, 0, 58, 56
2, 248394, Note_on_c, 0, 46, 56
2, 248402, Control_c, 0, 64, 76
2, 248420, Control_c, 0, 64, 67
2, 248441, Control_c, 0, 64, 62
2, 248461, Control_c, 0, 64, 60
2, 248478, Control_c, 0, 64, 62
2, 248498, Control_c, 0, 64, 64
2, 248518, Control_c, 0, 64, 65
2, 248527, Note_on_c, 0, 58, 0
2, 248533, Note_on_c, 0, 67, 0
2, 248537, Control_c, 0, 64, 68
2, 248549, Note_on_c, 0, 74, 0
2, 248551, Note_on_c, 0, 65, 69
2, 248555, Control_c, 0, 64, 73
2, 248572, Note_on_c, 0, 56, 64
2, 248576, Control_c, 0, 64, 79
2, 248597, Control_c, 0, 64, 85
2, 248611, Control_c, 0, 64, 89
2, 248632, Control_c, 0, 64, 90
2, 248709, Control_c, 0, 64, 89
2, 248730, Control_c, 0, 64, 85
2, 248735, Note_on_c, 0, 56, 0
2, 248748, Control_c, 0, 64, 73
2, 248757, Note_on_c, 0, 46, 0
2, 248768, Control_c, 0, 64, 63
2, 248773, Note_on_c, 0, 55, 53
2, 248786, Note_on_c, 0, 48, 50
2, 248791, Control_c, 0, 64, 55
2, 248791, Note_on_c, 0, 63, 59
2, 248807, Control_c, 0, 64, 49
2, 248825, Control_c, 0, 64, 47
2, 248841, Note_on_c, 0, 65, 0
2, 248843, Control_c, 0, 64, 48
2, 248866, Control_c, 0, 64, 49
2, 248882, Control_c, 0, 64, 53
2, 248902, Control_c, 0, 64, 57
2, 248919, Control_c, 0, 64, 60
2, 248939, Control_c, 0, 64, 63
2, 248962, Control_c, 0, 64, 64
2, 248967, Note_on_c, 0, 63, 0
2, 248977, Control_c, 0, 64, 66
2, 248996, Note_on_c, 0, 62, 66
2, 249000, Control_c, 0, 64, 68
2, 249016, Control_c, 0, 64, 71
2, 249035, Control_c, 0, 64, 73
2, 249053, Control_c, 0, 64, 74
2, 249096, Control_c, 0, 64, 73
2, 249129, Control_c, 0, 64, 72
2, 249152, Control_c, 0, 64, 69
2, 249171, Control_c, 0, 64, 64
2, 249180, Note_on_c, 0, 67, 66
2, 249186, Note_on_c, 0, 62, 0
2, 249192, Control_c, 0, 64, 59
2, 249209, Control_c, 0, 64, 55
2, 249209, Note_on_c, 0, 60, 54
2, 249230, Control_c, 0, 64, 54
2, 249247, Control_c, 0, 64, 56
2, 249267, Control_c, 0, 64, 58
2, 249285, Control_c, 0, 64, 61
2, 249307, Control_c, 0, 64, 64
2, 249327, Control_c, 0, 64, 66
2, 249343, Control_c, 0, 64, 69
2, 249352, Note_on_c, 0, 60, 0
2, 249366, Control_c, 0, 64, 74
2, 249366, Note_on_c, 0, 67, 0
2, 249378, Note_on_c, 0, 62, 63
2, 249383, Control_c, 0, 64, 78
2, 249403, Control_c, 0, 64, 83
2, 249410, Note_on_c, 0, 55, 0
2, 249419, Control_c, 0, 64, 84
2, 249442, Control_c, 0, 64, 83
2, 249452, Note_on_c, 0, 48, 0
2, 249458, Control_c, 0, 64, 81
2, 249480, Control_c, 0, 64, 79
2, 249496, Control_c, 0, 64, 76
2, 249518, Control_c, 0, 64, 73
2, 249534, Control_c, 0, 64, 70
2, 249554, Control_c, 0, 64, 67
2, 249573, Control_c, 0, 64, 65
2, 249594, Control_c, 0, 64, 64
2, 249607, Note_on_c, 0, 62, 0
2, 249611, Control_c, 0, 64, 63
2, 249620, Note_on_c, 0, 72, 71
2, 249651, Control_c, 0, 64, 62
2, 249655, Note_on_c, 0, 63, 41
2, 249672, Control_c, 0, 64, 61
2, 249687, Control_c, 0, 64, 59
2, 249710, Control_c, 0, 64, 58
2, 249726, Control_c, 0, 64, 56
2, 249746, Control_c, 0, 64, 54
2, 249764, Control_c, 0, 64, 52
2, 249783, Control_c, 0, 64, 50
2, 249804, Control_c, 0, 64, 49
2, 249843, Control_c, 0, 64, 48
2, 249913, Note_on_c, 0, 63, 0
2, 250060, Note_on_c, 0, 48, 42
2, 250060, Note_on_c, 0, 63, 55
2, 250149, Control_c, 0, 64, 47
2, 250210, Note_on_c, 0, 48, 0
2, 250227, Note_on_c, 0, 63, 0
2, 250241, Note_on_c, 0, 65, 65
2, 250245, Note_on_c, 0, 50, 50
2, 250323, Note_on_c, 0, 72, 0
2, 250439, Note_on_c, 0, 65, 0
2, 250450, Note_on_c, 0, 50, 0
2, 250450, Note_on_c, 0, 67, 60
2, 250471, Note_on_c, 0, 51, 49
2, 250621, Note_on_c, 0, 51, 0
2, 250641, Note_on_c, 0, 75, 60
2, 250830, Note_on_c, 0, 51, 51
2, 250836, Note_on_c, 0, 74, 70
2, 250841, Control_c, 0, 64, 48
2, 250867, Note_on_c, 0, 55, 50
2, 250877, Control_c, 0, 64, 50
2, 250895, Note_on_c, 0, 75, 0
2, 250900, Control_c, 0, 64, 53
2, 250917, Control_c, 0, 64, 56
2, 250936, Control_c, 0, 64, 60
2, 250954, Control_c, 0, 64, 62
2, 250975, Control_c, 0, 64, 64
2, 250995, Control_c, 0, 64, 65
2, 251013, Control_c, 0, 64, 67
2, 251027, Note_on_c, 0, 51, 0
2, 251036, Control_c, 0, 64, 70
2, 251036, Note_on_c, 0, 72, 76
2, 251045, Note_on_c, 0, 55, 0
2, 251045, Note_on_c, 0, 56, 61
2, 251054, Control_c, 0, 64, 73
2, 251058, Note_on_c, 0, 53, 53
2, 251065, Note_on_c, 0, 74, 0
2, 251075, Control_c, 0, 64, 76
2, 251090, Control_c, 0, 64, 78
2, 251109, Control_c, 0, 64, 79
2, 251114, Note_on_c, 0, 72, 0
2, 251128, Control_c, 0, 64, 80
2, 251147, Control_c, 0, 64, 81
2, 251187, Control_c, 0, 64, 82
2, 251191, Note_on_c, 0, 67, 0
2, 251193, Note_on_c, 0, 56, 0
2, 251207, Control_c, 0, 64, 81
2, 251226, Control_c, 0, 64, 74
2, 251239, Note_on_c, 0, 55, 54
2, 251243, Note_on_c, 0, 53, 0
2, 251247, Control_c, 0, 64, 66
2, 251247, Note_on_c, 0, 58, 63
2, 251247, Note_on_c, 0, 70, 71
2, 251262, Control_c, 0, 64, 60
2, 251282, Control_c, 0, 64, 57
2, 251320, Control_c, 0, 64, 58
2, 251341, Control_c, 0, 64, 60
2, 251357, Control_c, 0, 64, 62
2, 251377, Control_c, 0, 64, 65
2, 251398, Control_c, 0, 64, 67
2, 251417, Control_c, 0, 64, 72
2, 251424, Note_on_c, 0, 65, 70
2, 251434, Control_c, 0, 64, 79
2, 251439, Note_on_c, 0, 56, 67
2, 251441, Note_on_c, 0, 55, 0
2, 251455, Control_c, 0, 64, 88
2, 251462, Note_on_c, 0, 58, 0
2, 251475, Control_c, 0, 64, 100
2, 251496, Control_c, 0, 64, 112
2, 251514, Control_c, 0, 64, 116
2, 251514, Note_on_c, 0, 56, 0
2, 251532, Control_c, 0, 64, 118
2, 251550, Control_c, 0, 64, 122
2, 251569, Control_c, 0, 64, 127
2, 251629, Control_c, 0, 64, 102
2, 251644, Note_on_c, 0, 55, 72
2, 251644, Note_on_c, 0, 63, 69
2, 251648, Control_c, 0, 64, 84
2, 251664, Control_c, 0, 64, 70
2, 251681, Note_on_c, 0, 43, 58
2, 251687, Control_c, 0, 64, 63
2, 251687, Note_on_c, 0, 65, 0
2, 251703, Control_c, 0, 64, 59
2, 251732, Note_on_c, 0, 55, 0
2, 251741, Control_c, 0, 64, 61
2, 251763, Control_c, 0, 64, 63
2, 251774, Note_on_c, 0, 70, 0
2, 251783, Control_c, 0, 64, 65
2, 251799, Control_c, 0, 64, 68
2, 251818, Control_c, 0, 64, 72
2, 251825, Note_on_c, 0, 63, 0
2, 251835, Note_on_c, 0, 61, 65
2, 251842, Control_c, 0, 64, 77
2, 251851, Note_on_c, 0, 53, 73
2, 251859, Control_c, 0, 64, 82
2, 251877, Control_c, 0, 64, 87
2, 251895, Control_c, 0, 64, 88
2, 251936, Control_c, 0, 64, 87
2, 251973, Control_c, 0, 64, 86
2, 251991, Control_c, 0, 64, 85
2, 252013, Control_c, 0, 64, 84
2, 252029, Control_c, 0, 64, 82
2, 252035, Note_on_c, 0, 61, 0
2, 252050, Control_c, 0, 64, 79
2, 252053, Note_on_c, 0, 60, 69
2, 252068, Control_c, 0, 64, 77
2, 252073, Note_on_c, 0, 51, 68
2, 252078, Note_on_c, 0, 44, 65
2, 252089, Control_c, 0, 64, 74
2, 252107, Control_c, 0, 64, 71
2, 252128, Control_c, 0, 64, 70
2, 252145, Control_c, 0, 64, 68
2, 252185, Note_on_c, 0, 43, 0
2, 252186, Control_c, 0, 64, 67
2, 252204, Control_c, 0, 64, 66
2, 252224, Control_c, 0, 64, 65
2, 252244, Control_c, 0, 64, 64
2, 252253, Note_on_c, 0, 58, 72
2, 252253, Note_on_c, 0, 60, 0
2, 252282, Control_c, 0, 64, 63
2, 252286, Note_on_c, 0, 53, 0
2, 252338, Control_c, 0, 64, 62
2, 252396, Control_c, 0, 64, 61
2, 252447, Note_on_c, 0, 63, 75
2, 252454, Control_c, 0, 64, 60
2, 252465, Note_on_c, 0, 56, 59
2, 252470, Note_on_c, 0, 58, 0
2, 252474, Control_c, 0, 64, 59
2, 252512, Control_c, 0, 64, 58
2, 252567, Control_c, 0, 64, 57
2, 252607, Control_c, 0, 64, 56
2, 252610, Note_on_c, 0, 56, 0
2, 252629, Note_on_c, 0, 63, 0
2, 252641, Note_on_c, 0, 58, 66
2, 252647, Control_c, 0, 64, 55
2, 252703, Control_c, 0, 64, 54
2, 252742, Control_c, 0, 64, 53
2, 252760, Control_c, 0, 64, 52
2, 252780, Control_c, 0, 64, 51
2, 252799, Control_c, 0, 64, 50
2, 252819, Control_c, 0, 64, 48
2, 252839, Control_c, 0, 64, 45
2, 252856, Control_c, 0, 64, 40
2, 252878, Control_c, 0, 64, 32
2, 252894, Note_on_c, 0, 68, 73
2, 252896, Control_c, 0, 64, 26
2, 252914, Control_c, 0, 64, 24
2, 252923, Note_on_c, 0, 60, 60
2, 252928, Note_on_c, 0, 58, 0
2, 252972, Control_c, 0, 64, 27
2, 252991, Control_c, 0, 64, 32
2, 253010, Control_c, 0, 64, 40
2, 253029, Control_c, 0, 64, 49
2, 253048, Control_c, 0, 64, 56
2, 253067, Control_c, 0, 64, 60
2, 253073, Note_on_c, 0, 51, 0
2, 253087, Control_c, 0, 64, 62
2, 253105, Control_c, 0, 64, 63
2, 253125, Control_c, 0, 64, 64
2, 253143, Control_c, 0, 64, 65
2, 253152, Note_on_c, 0, 60, 0
2, 253165, Control_c, 0, 64, 66
2, 253180, Note_on_c, 0, 44, 0
2, 253202, Control_c, 0, 64, 67
2, 253223, Control_c, 0, 64, 66
2, 253318, Control_c, 0, 64, 65
2, 253337, Note_on_c, 0, 44, 52
2, 253347, Note_on_c, 0, 60, 53
2, 253356, Control_c, 0, 64, 64
2, 253393, Control_c, 0, 64, 63
2, 253451, Control_c, 0, 64, 62
2, 253489, Control_c, 0, 64, 61
2, 253529, Note_on_c, 0, 60, 0
2, 253533, Note_on_c, 0, 62, 65
2, 253547, Note_on_c, 0, 46, 57
2, 253551, Control_c, 0, 64, 60
2, 253589, Note_on_c, 0, 44, 0
2, 253607, Control_c, 0, 64, 59
2, 253697, Note_on_c, 0, 68, 0
2, 253702, Control_c, 0, 64, 58
2, 253734, Note_on_c, 0, 62, 0
2, 253741, Control_c, 0, 64, 57
2, 253745, Note_on_c, 0, 63, 62
2, 253755, Note_on_c, 0, 48, 51
2, 253778, Control_c, 0, 64, 56
2, 253794, Note_on_c, 0, 46, 0
2, 253816, Control_c, 0, 64, 55
2, 253872, Control_c, 0, 64, 54
2, 253912, Control_c, 0, 64, 53
2, 253929, Note_on_c, 0, 48, 0
2, 253933, Note_on_c, 0, 72, 62
2, 253951, Control_c, 0, 64, 52
2, 254009, Control_c, 0, 64, 51
2, 254089, Control_c, 0, 64, 50
2, 254107, Control_c, 0, 64, 49
2, 254123, Note_on_c, 0, 48, 54
2, 254125, Note_on_c, 0, 72, 0
2, 254136, Note_on_c, 0, 70, 69
2, 254147, Note_on_c, 0, 51, 58
2, 254319, Note_on_c, 0, 68, 74
2, 254326, Note_on_c, 0, 53, 65
2, 254337, Note_on_c, 0, 48, 0
2, 254337, Note_on_c, 0, 50, 57
2, 254346, Note_on_c, 0, 70, 0
2, 254350, Note_on_c, 0, 51, 0
2, 254433, Control_c, 0, 64, 47
2, 254453, Control_c, 0, 64, 43
2, 254474, Control_c, 0, 64, 36
2, 254493, Control_c, 0, 64, 28
2, 254511, Control_c, 0, 64, 25
2, 254527, Note_on_c, 0, 50, 0
2, 254527, Note_on_c, 0, 51, 59
2, 254527, Note_on_c, 0, 63, 0
2, 254534, Note_on_c, 0, 55, 61
2, 254534, Note_on_c, 0, 67, 71
2, 254538, Note_on_c, 0, 53, 0
2, 254538, Note_on_c, 0, 68, 0
2, 254569, Control_c, 0, 64, 29
2, 254588, Control_c, 0, 64, 36
2, 254606, Control_c, 0, 64, 46
2, 254626, Control_c, 0, 64, 55
2, 254646, Control_c, 0, 64, 60
2, 254663, Control_c, 0, 64, 63
2, 254682, Control_c, 0, 64, 64
2, 254702, Control_c, 0, 64, 66
2, 254717, Note_on_c, 0, 53, 67
2, 254717, Note_on_c, 0, 62, 72
2, 254722, Control_c, 0, 64, 68
2, 254732, Note_on_c, 0, 55, 0
2, 254741, Control_c, 0, 64, 71
2, 254759, Note_on_c, 0, 51, 0
2, 254764, Control_c, 0, 64, 75
2, 254779, Control_c, 0, 64, 79
2, 254792, Note_on_c, 0, 53, 0
2, 254800, Control_c, 0, 64, 84
2, 254818, Control_c, 0, 64, 88
2, 254837, Control_c, 0, 64, 92
2, 254857, Control_c, 0, 64, 95
2, 254900, Control_c, 0, 64, 90
2, 254900, Note_on_c, 0, 62, 0
2, 254914, Control_c, 0, 64, 79
2, 254914, Note_on_c, 0, 60, 71
2, 254923, Note_on_c, 0, 51, 74
2, 254934, Control_c, 0, 64, 68
2, 254952, Control_c, 0, 64, 61
2, 254961, Note_on_c, 0, 39, 59
2, 254973, Control_c, 0, 64, 59
2, 254975, Note_on_c, 0, 67, 0
2, 254991, Control_c, 0, 64, 60
2, 255010, Control_c, 0, 64, 62
2, 255028, Control_c, 0, 64, 64
2, 255050, Control_c, 0, 64, 67
2, 255052, Note_on_c, 0, 51, 0
2, 255068, Control_c, 0, 64, 70
2, 255088, Control_c, 0, 64, 76
2, 255091, Note_on_c, 0, 50, 75
2, 255099, Note_on_c, 0, 60, 0
2, 255106, Control_c, 0, 64, 80
2, 255110, Note_on_c, 0, 58, 77
2, 255124, Control_c, 0, 64, 82
2, 255177, Note_on_c, 0, 50, 0
2, 255279, Control_c, 0, 64, 80
2, 255288, Note_on_c, 0, 58, 0
2, 255297, Control_c, 0, 64, 71
2, 255317, Control_c, 0, 64, 62
2, 255326, Note_on_c, 0, 56, 71
2, 255330, Note_on_c, 0, 41, 71
2, 255335, Note_on_c, 0, 48, 73
2, 255339, Control_c, 0, 64, 50
2, 255355, Control_c, 0, 64, 41
2, 255393, Control_c, 0, 64, 44
2, 255406, Note_on_c, 0, 39, 0
2, 255415, Control_c, 0, 64, 51
2, 255432, Control_c, 0, 64, 59
2, 255450, Control_c, 0, 64, 63
2, 255469, Control_c, 0, 64, 65
2, 255489, Control_c, 0, 64, 68
2, 255511, Note_on_c, 0, 41, 0
2, 255512, Control_c, 0, 64, 71
2, 255521, Note_on_c, 0, 65, 77
2, 255525, Note_on_c, 0, 56, 0
2, 255529, Control_c, 0, 64, 75
2, 255546, Control_c, 0, 64, 80
2, 255567, Control_c, 0, 64, 85
2, 255587, Control_c, 0, 64, 87
2, 255595, Note_on_c, 0, 48, 0
2, 255702, Control_c, 0, 64, 80
2, 255715, Note_on_c, 0, 50, 69
2, 255715, Note_on_c, 0, 68, 81
2, 255726, Control_c, 0, 64, 68
2, 255734, Note_on_c, 0, 43, 66
2, 255734, Note_on_c, 0, 47, 60
2, 255741, Control_c, 0, 64, 57
2, 255751, Note_on_c, 0, 65, 0
2, 255761, Control_c, 0, 64, 45
2, 255782, Control_c, 0, 64, 43
2, 255801, Control_c, 0, 64, 46
2, 255817, Control_c, 0, 64, 53
2, 255837, Control_c, 0, 64, 60
2, 255854, Note_on_c, 0, 43, 0
2, 255858, Control_c, 0, 64, 64
2, 255877, Control_c, 0, 64, 68
2, 255895, Control_c, 0, 64, 73
2, 255901, Note_on_c, 0, 51, 79
2, 255901, Note_on_c, 0, 67, 78
2, 255915, Control_c, 0, 64, 83
2, 255934, Control_c, 0, 64, 95
2, 255941, Note_on_c, 0, 47, 0
2, 255941, Note_on_c, 0, 50, 0
2, 255952, Control_c, 0, 64, 110
2, 255970, Control_c, 0, 64, 127
2, 255991, Note_on_c, 0, 68, 0
2, 256022, Note_on_c, 0, 51, 0
2, 256087, Control_c, 0, 64, 103
2, 256110, Control_c, 0, 64, 77
2, 256110, Note_on_c, 0, 65, 76
2, 256125, Control_c, 0, 64, 62
2, 256134, Note_on_c, 0, 44, 68
2, 256134, Note_on_c, 0, 48, 62
2, 256134, Note_on_c, 0, 53, 77
2, 256146, Control_c, 0, 64, 48
2, 256152, Note_on_c, 0, 67, 0
2, 256167, Control_c, 0, 64, 39
2, 256182, Control_c, 0, 64, 38
2, 256202, Control_c, 0, 64, 41
2, 256224, Control_c, 0, 64, 48
2, 256240, Control_c, 0, 64, 57
2, 256260, Control_c, 0, 64, 63
2, 256278, Control_c, 0, 64, 66
2, 256300, Control_c, 0, 64, 68
2, 256311, Note_on_c, 0, 63, 82
2, 256318, Control_c, 0, 64, 72
2, 256340, Control_c, 0, 64, 75
2, 256340, Note_on_c, 0, 53, 0
2, 256356, Control_c, 0, 64, 78
2, 256376, Control_c, 0, 64, 80
2, 256380, Note_on_c, 0, 65, 0
2, 256394, Control_c, 0, 64, 81
2, 256412, Control_c, 0, 64, 83
2, 256433, Control_c, 0, 64, 84
2, 256451, Control_c, 0, 64, 85
2, 256488, Control_c, 0, 64, 81
2, 256497, Note_on_c, 0, 44, 0
2, 256508, Control_c, 0, 64, 71
2, 256522, Note_on_c, 0, 54, 80
2, 256526, Note_on_c, 0, 62, 83
2, 256532, Control_c, 0, 64, 61
2, 256532, Note_on_c, 0, 45, 63
2, 256548, Control_c, 0, 64, 50
2, 256570, Control_c, 0, 64, 44
2, 256574, Note_on_c, 0, 63, 0
2, 256586, Control_c, 0, 64, 46
2, 256605, Control_c, 0, 64, 52
2, 256625, Control_c, 0, 64, 59
2, 256643, Control_c, 0, 64, 65
2, 256665, Control_c, 0, 64, 71
2, 256682, Control_c, 0, 64, 82
2, 256701, Control_c, 0, 64, 100
2, 256722, Control_c, 0, 64, 127
2, 256722, Note_on_c, 0, 54, 0
2, 256734, Note_on_c, 0, 60, 88
2, 256775, Note_on_c, 0, 62, 0
2, 256875, Control_c, 0, 64, 110
2, 256895, Control_c, 0, 64, 101
2, 256910, Control_c, 0, 64, 94
2, 256930, Control_c, 0, 64, 88
2, 256950, Control_c, 0, 64, 83
2, 256969, Control_c, 0, 64, 79
2, 256990, Control_c, 0, 64, 76
2, 257004, Note_on_c, 0, 45, 0
2, 257008, Control_c, 0, 64, 73
2, 257028, Control_c, 0, 64, 69
2, 257033, Note_on_c, 0, 50, 63
2, 257033, Note_on_c, 0, 59, 75
2, 257039, Note_on_c, 0, 55, 60
2, 257043, Note_on_c, 0, 43, 62
2, 257048, Control_c, 0, 64, 64
2, 257066, Control_c, 0, 64, 55
2, 257071, Note_on_c, 0, 48, 0
2, 257082, Note_on_c, 0, 60, 0
2, 257087, Control_c, 0, 64, 39
2, 257104, Control_c, 0, 64, 0
2, 257239, Control_c, 0, 64, 40
2, 257260, Control_c, 0, 64, 58
2, 257265, Note_on_c, 0, 43, 0
2, 257277, Control_c, 0, 64, 67
2, 257296, Control_c, 0, 64, 75
2, 257300, Note_on_c, 0, 50, 0
2, 257308, Note_on_c, 0, 59, 0
2, 257317, Control_c, 0, 64, 86
2, 257337, Control_c, 0, 64, 99
2, 257354, Note_on_c, 0, 55, 0
2, 257356, Control_c, 0, 64, 120
2, 257373, Control_c, 0, 64, 127
2, 257498, Note_on_c, 0, 55, 71
2, 257522, Control_c, 0, 64, 118
2, 257541, Control_c, 0, 64, 101
2, 257561, Control_c, 0, 64, 90
2, 257579, Control_c, 0, 64, 84
2, 257599, Control_c, 0, 64, 81
2, 257618, Control_c, 0, 64, 79
2, 257637, Control_c, 0, 64, 78
2, 257656, Control_c, 0, 64, 76
2, 257676, Control_c, 0, 64, 74
2, 257694, Control_c, 0, 64, 71
2, 257706, Note_on_c, 0, 57, 81
2, 257712, Control_c, 0, 64, 69
2, 257732, Control_c, 0, 64, 68
2, 257741, Note_on_c, 0, 55, 0
2, 257752, Control_c, 0, 64, 67
2, 257808, Control_c, 0, 64, 66
2, 257868, Control_c, 0, 64, 65
2, 257924, Control_c, 0, 64, 64
2, 257964, Control_c, 0, 64, 63
2, 258001, Control_c, 0, 64, 62
2, 258013, Note_on_c, 0, 59, 48
2, 258013, Note_on_c, 0, 79, 87
2, 258060, Control_c, 0, 64, 61
2, 258083, Note_on_c, 0, 57, 0
2, 258116, Control_c, 0, 64, 60
2, 258136, Control_c, 0, 64, 59
2, 258155, Control_c, 0, 64, 58
2, 258174, Control_c, 0, 64, 55
2, 258196, Control_c, 0, 64, 50
2, 258216, Control_c, 0, 64, 43
2, 258232, Control_c, 0, 64, 35
2, 258254, Control_c, 0, 64, 25
2, 258270, Control_c, 0, 64, 18
2, 258290, Control_c, 0, 64, 13
2, 258328, Control_c, 0, 64, 12
2, 258350, Control_c, 0, 64, 11
2, 258494, Note_on_c, 0, 57, 62
2, 258559, Note_on_c, 0, 59, 0
2, 258674, Control_c, 0, 64, 12
2, 258694, Control_c, 0, 64, 13
2, 258696, Note_on_c, 0, 59, 80
2, 258735, Note_on_c, 0, 57, 0
2, 258771, Control_c, 0, 64, 14
2, 258846, Control_c, 0, 64, 15
2, 258865, Control_c, 0, 64, 16
2, 258885, Control_c, 0, 64, 17
2, 258928, Note_on_c, 0, 80, 88
2, 258955, Note_on_c, 0, 60, 58
2, 258959, Note_on_c, 0, 59, 0
2, 259013, Note_on_c, 0, 79, 0
2, 259037, Control_c, 0, 64, 18
2, 259124, Note_on_c, 0, 59, 71
2, 259167, Note_on_c, 0, 60, 0
2, 259174, Control_c, 0, 64, 19
2, 259231, Control_c, 0, 64, 20
2, 259307, Control_c, 0, 64, 21
2, 259326, Control_c, 0, 64, 22
2, 259335, Note_on_c, 0, 60, 61
2, 259335, Note_on_c, 0, 72, 78
2, 259348, Control_c, 0, 64, 23
2, 259348, Note_on_c, 0, 59, 0
2, 259366, Control_c, 0, 64, 24
2, 259423, Control_c, 0, 64, 25
2, 259499, Control_c, 0, 64, 27
2, 259517, Note_on_c, 0, 62, 71
2, 259533, Note_on_c, 0, 60, 0
2, 259596, Control_c, 0, 64, 28
2, 259614, Control_c, 0, 64, 29
2, 259654, Control_c, 0, 64, 30
2, 259748, Note_on_c, 0, 79, 83
2, 259784, Note_on_c, 0, 63, 52
2, 259819, Note_on_c, 0, 80, 0
2, 259856, Note_on_c, 0, 62, 0
2, 259941, Control_c, 0, 64, 31
2, 259978, Control_c, 0, 64, 32
2, 260039, Control_c, 0, 64, 33
2, 260113, Control_c, 0, 64, 34
2, 260202, Note_on_c, 0, 70, 69
2, 260239, Note_on_c, 0, 72, 0
2, 260248, Control_c, 0, 64, 35
2, 260458, Control_c, 0, 64, 36
2, 260614, Control_c, 0, 64, 37
2, 260614, Note_on_c, 0, 78, 84
2, 260667, Note_on_c, 0, 63, 0
2, 260667, Note_on_c, 0, 69, 40
2, 260677, Note_on_c, 0, 79, 0
2, 260682, Note_on_c, 0, 70, 0
2, 260818, Note_on_c, 0, 60, 64
2, 260825, Control_c, 0, 64, 38
2, 260841, Control_c, 0, 64, 39
2, 261011, Note_on_c, 0, 69, 0
2, 261020, Note_on_c, 0, 70, 74
2, 261030, Note_on_c, 0, 62, 66
2, 261034, Note_on_c, 0, 60, 0
2, 261094, Control_c, 0, 64, 40
2, 261131, Control_c, 0, 64, 41
2, 261220, Note_on_c, 0, 70, 0
2, 261224, Note_on_c, 0, 63, 66
2, 261224, Note_on_c, 0, 72, 76
2, 261246, Note_on_c, 0, 62, 0
2, 261416, Note_on_c, 0, 72, 0
2, 261440, Note_on_c, 0, 83, 82
2, 261445, Note_on_c, 0, 65, 55
2, 261471, Note_on_c, 0, 74, 68
2, 261478, Control_c, 0, 64, 40
2, 261495, Note_on_c, 0, 63, 0
2, 261508, Note_on_c, 0, 78, 0
2, 261635, Note_on_c, 0, 72, 80
2, 261641, Note_on_c, 0, 74, 0
2, 261822, Note_on_c, 0, 71, 75
2, 261922, Note_on_c, 0, 72, 0
2, 261977, Control_c, 0, 64, 39
2, 262020, Note_on_c, 0, 69, 71
2, 262053, Note_on_c, 0, 71, 0
2, 262265, Control_c, 0, 64, 38
2, 262270, Note_on_c, 0, 84, 82
2, 262301, Note_on_c, 0, 67, 59
2, 262319, Note_on_c, 0, 69, 0
2, 262336, Note_on_c, 0, 65, 0
2, 262345, Note_on_c, 0, 83, 0
2, 262360, Control_c, 0, 64, 37
2, 262379, Control_c, 0, 64, 36
2, 262399, Control_c, 0, 64, 34
2, 262417, Control_c, 0, 64, 32
2, 262435, Control_c, 0, 64, 30
2, 262490, Note_on_c, 0, 63, 65
2, 262532, Control_c, 0, 64, 31
2, 262552, Control_c, 0, 64, 33
2, 262571, Control_c, 0, 64, 36
2, 262590, Control_c, 0, 64, 42
2, 262608, Control_c, 0, 64, 50
2, 262630, Control_c, 0, 64, 57
2, 262647, Control_c, 0, 64, 63
2, 262668, Note_on_c, 0, 65, 67
2, 262670, Control_c, 0, 64, 65
2, 262673, Note_on_c, 0, 84, 0
2, 262690, Control_c, 0, 64, 66
2, 262707, Control_c, 0, 64, 67
2, 262717, Note_on_c, 0, 63, 0
2, 262717, Note_on_c, 0, 67, 0
2, 262725, Control_c, 0, 64, 68
2, 262745, Control_c, 0, 64, 72
2, 262763, Control_c, 0, 64, 78
2, 262784, Control_c, 0, 64, 87
2, 262801, Control_c, 0, 64, 96
2, 262820, Control_c, 0, 64, 106
2, 262843, Control_c, 0, 64, 122
2, 262853, Note_on_c, 0, 65, 0
2, 262860, Control_c, 0, 64, 127
2, 262868, Note_on_c, 0, 67, 70
2, 262938, Control_c, 0, 64, 120
2, 262955, Control_c, 0, 64, 110
2, 262974, Control_c, 0, 64, 103
2, 262986, Note_on_c, 0, 67, 0
2, 262994, Control_c, 0, 64, 97
2, 263012, Control_c, 0, 64, 91
2, 263031, Control_c, 0, 64, 87
2, 263052, Control_c, 0, 64, 81
2, 263073, Control_c, 0, 64, 76
2, 263088, Control_c, 0, 64, 72
2, 263097, Note_on_c, 0, 77, 85
2, 263110, Control_c, 0, 64, 68
2, 263120, Note_on_c, 0, 68, 68
2, 263128, Control_c, 0, 64, 64
2, 263151, Control_c, 0, 64, 63
2, 263168, Control_c, 0, 64, 61
2, 263185, Control_c, 0, 64, 60
2, 263205, Control_c, 0, 64, 59
2, 263225, Control_c, 0, 64, 58
2, 263243, Control_c, 0, 64, 56
2, 263265, Control_c, 0, 64, 53
2, 263282, Control_c, 0, 64, 50
2, 263302, Control_c, 0, 64, 45
2, 263306, Note_on_c, 0, 55, 61
2, 263321, Control_c, 0, 64, 35
2, 263341, Control_c, 0, 64, 0
2, 263514, Control_c, 0, 64, 16
2, 263514, Note_on_c, 0, 56, 70
2, 263529, Note_on_c, 0, 55, 0
2, 263533, Control_c, 0, 64, 36
2, 263550, Control_c, 0, 64, 49
2, 263573, Control_c, 0, 64, 58
2, 263589, Control_c, 0, 64, 61
2, 263607, Control_c, 0, 64, 63
2, 263628, Control_c, 0, 64, 64
2, 263632, Note_on_c, 0, 77, 0
2, 263647, Control_c, 0, 64, 66
2, 263664, Control_c, 0, 64, 70
2, 263686, Control_c, 0, 64, 76
2, 263705, Control_c, 0, 64, 84
2, 263707, Note_on_c, 0, 58, 72
2, 263725, Control_c, 0, 64, 90
2, 263734, Note_on_c, 0, 56, 0
2, 263741, Control_c, 0, 64, 92
2, 263818, Control_c, 0, 64, 90
2, 263839, Control_c, 0, 64, 88
2, 263857, Control_c, 0, 64, 85
2, 263876, Control_c, 0, 64, 80
2, 263894, Control_c, 0, 64, 76
2, 263914, Control_c, 0, 64, 72
2, 263932, Note_on_c, 0, 76, 82
2, 263936, Control_c, 0, 64, 69
2, 263956, Control_c, 0, 64, 65
2, 263967, Note_on_c, 0, 58, 0
2, 263974, Note_on_c, 0, 60, 45
2, 263976, Control_c, 0, 64, 63
2, 263995, Control_c, 0, 64, 62
2, 264005, Note_on_c, 0, 68, 0
2, 264011, Control_c, 0, 64, 61
2, 264031, Control_c, 0, 64, 60
2, 264049, Control_c, 0, 64, 57
2, 264068, Control_c, 0, 64, 49
2, 264088, Control_c, 0, 64, 26
2, 264106, Control_c, 0, 64, 0
2, 264128, Note_on_c, 0, 67, 54
2, 264222, Control_c, 0, 64, 32
2, 264243, Control_c, 0, 64, 49
2, 264261, Control_c, 0, 64, 59
2, 264280, Control_c, 0, 64, 64
2, 264299, Control_c, 0, 64, 66
2, 264319, Control_c, 0, 64, 68
2, 264336, Note_on_c, 0, 69, 63
2, 264338, Control_c, 0, 64, 71
2, 264356, Control_c, 0, 64, 74
2, 264361, Note_on_c, 0, 67, 0
2, 264376, Control_c, 0, 64, 79
2, 264397, Control_c, 0, 64, 87
2, 264415, Control_c, 0, 64, 100
2, 264437, Control_c, 0, 64, 127
2, 264534, Note_on_c, 0, 71, 81
2, 264539, Note_on_c, 0, 69, 0
2, 264588, Control_c, 0, 64, 122
2, 264607, Control_c, 0, 64, 115
2, 264624, Control_c, 0, 64, 110
2, 264644, Control_c, 0, 64, 104
2, 264664, Control_c, 0, 64, 99
2, 264683, Control_c, 0, 64, 95
2, 264701, Control_c, 0, 64, 91
2, 264721, Control_c, 0, 64, 88
2, 264741, Control_c, 0, 64, 85
2, 264754, Note_on_c, 0, 60, 0
2, 264762, Control_c, 0, 64, 81
2, 264762, Note_on_c, 0, 75, 80
2, 264780, Control_c, 0, 64, 78
2, 264791, Note_on_c, 0, 72, 69
2, 264800, Control_c, 0, 64, 75
2, 264818, Control_c, 0, 64, 72
2, 264823, Note_on_c, 0, 71, 0
2, 264838, Control_c, 0, 64, 70
2, 264847, Note_on_c, 0, 76, 0
2, 264855, Control_c, 0, 64, 68
2, 264878, Control_c, 0, 64, 67
2, 264896, Control_c, 0, 64, 66
2, 264914, Control_c, 0, 64, 65
2, 264933, Control_c, 0, 64, 64
2, 264961, Note_on_c, 0, 60, 60
2, 264991, Control_c, 0, 64, 63
2, 265028, Control_c, 0, 64, 62
2, 265087, Control_c, 0, 64, 61
2, 265125, Control_c, 0, 64, 60
2, 265163, Control_c, 0, 64, 59
2, 265173, Note_on_c, 0, 62, 71
2, 265182, Control_c, 0, 64, 58
2, 265201, Control_c, 0, 64, 57
2, 265212, Note_on_c, 0, 60, 0
2, 265219, Control_c, 0, 64, 56
2, 265241, Control_c, 0, 64, 55
2, 265262, Control_c, 0, 64, 53
2, 265277, Control_c, 0, 64, 51
2, 265301, Control_c, 0, 64, 48
2, 265316, Control_c, 0, 64, 46
2, 265334, Control_c, 0, 64, 45
2, 265388, Note_on_c, 0, 63, 70
2, 265407, Note_on_c, 0, 62, 0
2, 265642, Control_c, 0, 64, 44
2, 265658, Note_on_c, 0, 65, 43
2, 265719, Note_on_c, 0, 74, 74
2, 265732, Note_on_c, 0, 63, 0
2, 265804, Note_on_c, 0, 75, 0
2, 265973, Note_on_c, 0, 62, 51
2, 266069, Note_on_c, 0, 65, 0
2, 266197, Note_on_c, 0, 71, 58
2, 266214, Note_on_c, 0, 63, 48
2, 266238, Note_on_c, 0, 62, 0
2, 266276, Note_on_c, 0, 72, 0
2, 266386, Note_on_c, 0, 69, 58
2, 266400, Note_on_c, 0, 65, 53
2, 266409, Note_on_c, 0, 63, 0
2, 266465, Note_on_c, 0, 71, 0
2, 266606, Note_on_c, 0, 71, 74
2, 266610, Note_on_c, 0, 67, 58
2, 266612, Note_on_c, 0, 65, 0
2, 266644, Control_c, 0, 64, 43
2, 266662, Note_on_c, 0, 69, 0
2, 266780, Note_on_c, 0, 72, 74
2, 266798, Note_on_c, 0, 68, 64
2, 266806, Note_on_c, 0, 67, 0
2, 266850, Note_on_c, 0, 71, 0
2, 266973, Note_on_c, 0, 68, 0
2, 266993, Note_on_c, 0, 67, 50
2, 266993, Note_on_c, 0, 71, 72
2, 267022, Note_on_c, 0, 74, 0
2, 267079, Note_on_c, 0, 72, 0
2, 267177, Note_on_c, 0, 74, 68
2, 267186, Note_on_c, 0, 65, 52
2, 267191, Note_on_c, 0, 67, 0
2, 267379, Note_on_c, 0, 65, 0
2, 267397, Note_on_c, 0, 67, 51
2, 267410, Note_on_c, 0, 63, 49
2, 267559, Note_on_c, 0, 63, 0
2, 267591, Note_on_c, 0, 65, 45
2, 267785, Note_on_c, 0, 74, 0
2, 267794, Note_on_c, 0, 72, 59
2, 267803, Note_on_c, 0, 71, 0
2, 267814, Note_on_c, 0, 63, 50
2, 267883, Note_on_c, 0, 65, 0
2, 267977, Note_on_c, 0, 63, 0
2, 267988, Note_on_c, 0, 74, 59
2, 268005, Note_on_c, 0, 62, 43
2, 268010, Note_on_c, 0, 72, 0
2, 268166, Note_on_c, 0, 62, 0
2, 268177, Control_c, 0, 64, 42
2, 268191, Note_on_c, 0, 74, 0
2, 268254, Note_on_c, 0, 75, 51
2, 268273, Control_c, 0, 64, 44
2, 268286, Note_on_c, 0, 60, 23
2, 268295, Control_c, 0, 64, 48
2, 268315, Control_c, 0, 64, 53
2, 268332, Control_c, 0, 64, 59
2, 268350, Control_c, 0, 64, 63
2, 268359, Note_on_c, 0, 67, 0
2, 268370, Control_c, 0, 64, 66
2, 268388, Control_c, 0, 64, 71
2, 268407, Control_c, 0, 64, 78
2, 268416, Note_on_c, 0, 60, 0
2, 268429, Control_c, 0, 64, 88
2, 268448, Control_c, 0, 64, 96
2, 268466, Control_c, 0, 64, 102
2, 268485, Control_c, 0, 64, 106
2, 268503, Control_c, 0, 64, 107
2, 268543, Control_c, 0, 64, 106
2, 268560, Control_c, 0, 64, 104
2, 268583, Control_c, 0, 64, 102
2, 268600, Control_c, 0, 64, 98
2, 268619, Control_c, 0, 64, 94
2, 268640, Control_c, 0, 64, 91
2, 268657, Control_c, 0, 64, 88
2, 268677, Control_c, 0, 64, 86
2, 268695, Control_c, 0, 64, 83
2, 268715, Control_c, 0, 64, 78
2, 268728, Note_on_c, 0, 60, 41
2, 268738, Control_c, 0, 64, 75
2, 268738, Note_on_c, 0, 67, 36
2, 268756, Control_c, 0, 64, 72
2, 268772, Control_c, 0, 64, 70
2, 268791, Control_c, 0, 64, 68
2, 268813, Control_c, 0, 64, 66
2, 268829, Control_c, 0, 64, 65
2, 268867, Control_c, 0, 64, 64
2, 268909, Note_on_c, 0, 58, 51
2, 268942, Note_on_c, 0, 60, 0
2, 268966, Control_c, 0, 64, 63
2, 269044, Control_c, 0, 64, 62
2, 269044, Note_on_c, 0, 58, 0
2, 269063, Control_c, 0, 64, 61
2, 269079, Control_c, 0, 64, 55
2, 269099, Control_c, 0, 64, 42
2, 269121, Control_c, 0, 64, 0
2, 269121, Note_on_c, 0, 60, 43
2, 269143, Note_on_c, 0, 57, 52
2, 269195, Control_c, 0, 64, 21
2, 269214, Control_c, 0, 64, 41
2, 269234, Control_c, 0, 64, 55
2, 269241, Note_on_c, 0, 67, 0
2, 269255, Control_c, 0, 64, 64
2, 269271, Control_c, 0, 64, 67
2, 269292, Control_c, 0, 64, 72
2, 269302, Note_on_c, 0, 60, 0
2, 269313, Control_c, 0, 64, 79
2, 269315, Note_on_c, 0, 57, 0
2, 269329, Control_c, 0, 64, 88
2, 269348, Control_c, 0, 64, 102
2, 269366, Control_c, 0, 64, 127
2, 269501, Control_c, 0, 64, 120
2, 269523, Control_c, 0, 64, 105
2, 269530, Note_on_c, 0, 72, 51
2, 269543, Control_c, 0, 64, 97
2, 269552, Note_on_c, 0, 57, 39
2, 269561, Control_c, 0, 64, 92
2, 269580, Control_c, 0, 64, 88
2, 269599, Control_c, 0, 64, 85
2, 269617, Control_c, 0, 64, 82
2, 269636, Control_c, 0, 64, 79
2, 269658, Control_c, 0, 64, 76
2, 269674, Control_c, 0, 64, 73
2, 269696, Control_c, 0, 64, 71
2, 269712, Control_c, 0, 64, 69
2, 269729, Note_on_c, 0, 70, 61
2, 269729, Note_on_c, 0, 72, 0
2, 269733, Control_c, 0, 64, 68
2, 269747, Note_on_c, 0, 55, 46
2, 269752, Control_c, 0, 64, 67
2, 269758, Note_on_c, 0, 57, 0
2, 269772, Control_c, 0, 64, 66
2, 269791, Control_c, 0, 64, 65
2, 269868, Control_c, 0, 64, 64
2, 269908, Control_c, 0, 64, 63
2, 269927, Control_c, 0, 64, 61
2, 269943, Control_c, 0, 64, 57
2, 269949, Note_on_c, 0, 69, 51
2, 269963, Control_c, 0, 64, 53
2, 269963, Note_on_c, 0, 70, 0
2, 269987, Control_c, 0, 64, 48
2, 269987, Note_on_c, 0, 53, 43
2, 269992, Note_on_c, 0, 55, 0
2, 270001, Control_c, 0, 64, 45
2, 270021, Control_c, 0, 64, 42
2, 270039, Control_c, 0, 64, 41
2, 270061, Control_c, 0, 64, 40
2, 270362, Note_on_c, 0, 53, 0
2, 270362, Note_on_c, 0, 69, 0
2, 270362, Note_on_c, 0, 70, 48
2, 270398, Note_on_c, 0, 55, 41
2, 270511, Note_on_c, 0, 55, 0
2, 270529, Note_on_c, 0, 70, 0
2, 270533, Note_on_c, 0, 72, 60
2, 270549, Note_on_c, 0, 57, 46
2, 270616, Control_c, 0, 64, 39
2, 270637, Control_c, 0, 64, 38
2, 270655, Control_c, 0, 64, 37
2, 270673, Control_c, 0, 64, 36
2, 270710, Note_on_c, 0, 72, 0
2, 270714, Note_on_c, 0, 57, 0
2, 270772, Note_on_c, 0, 58, 44
2, 270777, Note_on_c, 0, 65, 44
2, 270792, Control_c, 0, 64, 39
2, 270808, Control_c, 0, 64, 44
2, 270826, Control_c, 0, 64, 53
2, 270846, Control_c, 0, 64, 60
2, 270864, Control_c, 0, 64, 63
2, 270885, Control_c, 0, 64, 66
2, 270906, Control_c, 0, 64, 70
2, 270906, Note_on_c, 0, 58, 0
2, 270927, Control_c, 0, 64, 76
2, 270941, Control_c, 0, 64, 84
2, 270961, Control_c, 0, 64, 94
2, 270972, Note_on_c, 0, 65, 0
2, 270980, Control_c, 0, 64, 106
2, 270999, Control_c, 0, 64, 127
2, 271180, Note_on_c, 0, 74, 70
2, 271199, Note_on_c, 0, 70, 58
2, 271199, Note_on_c, 0, 75, 0
2, 271211, Control_c, 0, 64, 113
2, 271211, Note_on_c, 0, 65, 43
2, 271231, Control_c, 0, 64, 106
2, 271249, Control_c, 0, 64, 101
2, 271268, Control_c, 0, 64, 97
2, 271287, Control_c, 0, 64, 92
2, 271307, Control_c, 0, 64, 87
2, 271328, Control_c, 0, 64, 84
2, 271347, Control_c, 0, 64, 82
2, 271367, Control_c, 0, 64, 81
2, 271378, Note_on_c, 0, 75, 80
2, 271384, Control_c, 0, 64, 79
2, 271397, Note_on_c, 0, 63, 57
2, 271404, Control_c, 0, 64, 78
2, 271416, Note_on_c, 0, 65, 0
2, 271423, Control_c, 0, 64, 76
2, 271438, Note_on_c, 0, 74, 0
2, 271442, Control_c, 0, 64, 74
2, 271459, Control_c, 0, 64, 73
2, 271480, Control_c, 0, 64, 72
2, 271500, Control_c, 0, 64, 70
2, 271518, Control_c, 0, 64, 69
2, 271537, Control_c, 0, 64, 67
2, 271557, Control_c, 0, 64, 66
2, 271578, Control_c, 0, 64, 65
2, 271594, Control_c, 0, 64, 64
2, 271613, Note_on_c, 0, 77, 81
2, 271635, Control_c, 0, 64, 63
2, 271635, Note_on_c, 0, 63, 0
2, 271639, Note_on_c, 0, 62, 48
2, 271661, Note_on_c, 0, 75, 0
2, 271673, Control_c, 0, 64, 62
2, 271690, Control_c, 0, 64, 61
2, 271710, Control_c, 0, 64, 60
2, 271731, Control_c, 0, 64, 59
2, 271767, Control_c, 0, 64, 58
2, 271808, Control_c, 0, 64, 57
2, 271824, Control_c, 0, 64, 56
2, 271845, Control_c, 0, 64, 55
2, 271866, Control_c, 0, 64, 54
2, 271866, Note_on_c, 0, 62, 0
2, 271884, Control_c, 0, 64, 52
2, 271896, Note_on_c, 0, 70, 0
2, 271901, Control_c, 0, 64, 51
2, 271922, Control_c, 0, 64, 49
2, 271940, Control_c, 0, 64, 48
2, 271960, Control_c, 0, 64, 47
2, 271978, Control_c, 0, 64, 45
2, 271998, Control_c, 0, 64, 44
2, 272018, Control_c, 0, 64, 42
2, 272025, Note_on_c, 0, 68, 68
2, 272037, Control_c, 0, 64, 39
2, 272042, Note_on_c, 0, 62, 49
2, 272057, Control_c, 0, 64, 34
2, 272074, Control_c, 0, 64, 27
2, 272094, Control_c, 0, 64, 0
2, 272209, Note_on_c, 0, 60, 61
2, 272218, Note_on_c, 0, 62, 0
2, 272371, Note_on_c, 0, 60, 0
2, 272437, Note_on_c, 0, 59, 46
2, 272437, Note_on_c, 0, 67, 53
2, 272441, Control_c, 0, 64, 15
2, 272448, Note_on_c, 0, 68, 0
2, 272459, Control_c, 0, 64, 35
2, 272477, Control_c, 0, 64, 47
2, 272497, Control_c, 0, 64, 57
2, 272517, Control_c, 0, 64, 61
2, 272535, Control_c, 0, 64, 63
2, 272553, Control_c, 0, 64, 64
2, 272574, Control_c, 0, 64, 65
2, 272592, Control_c, 0, 64, 67
2, 272613, Control_c, 0, 64, 71
2, 272623, Note_on_c, 0, 59, 0
2, 272633, Control_c, 0, 64, 75
2, 272652, Control_c, 0, 64, 81
2, 272673, Control_c, 0, 64, 87
2, 272689, Control_c, 0, 64, 92
2, 272697, Note_on_c, 0, 67, 0
2, 272709, Control_c, 0, 64, 94
2, 272823, Control_c, 0, 64, 93
2, 272839, Note_on_c, 0, 59, 46
2, 272843, Control_c, 0, 64, 92
2, 272849, Note_on_c, 0, 74, 60
2, 272863, Control_c, 0, 64, 91
2, 272880, Control_c, 0, 64, 90
2, 272901, Control_c, 0, 64, 88
2, 272939, Control_c, 0, 64, 86
2, 272959, Control_c, 0, 64, 84
2, 272978, Control_c, 0, 64, 82
2, 272996, Control_c, 0, 64, 81
2, 273014, Control_c, 0, 64, 79
2, 273025, Note_on_c, 0, 72, 72
2, 273038, Control_c, 0, 64, 78
2, 273042, Note_on_c, 0, 57, 58
2, 273054, Control_c, 0, 64, 77
2, 273074, Control_c, 0, 64, 76
2, 273092, Control_c, 0, 64, 75
2, 273100, Note_on_c, 0, 59, 0
2, 273116, Control_c, 0, 64, 74
2, 273130, Control_c, 0, 64, 73
2, 273149, Control_c, 0, 64, 72
2, 273170, Control_c, 0, 64, 71
2, 273189, Control_c, 0, 64, 70
2, 273245, Note_on_c, 0, 55, 59
2, 273245, Note_on_c, 0, 71, 76
2, 273274, Note_on_c, 0, 74, 0
2, 273311, Note_on_c, 0, 72, 0
2, 273322, Control_c, 0, 64, 69
2, 273342, Control_c, 0, 64, 68
2, 273349, Note_on_c, 0, 57, 0
2, 273361, Control_c, 0, 64, 66
2, 273379, Control_c, 0, 64, 63
2, 273398, Control_c, 0, 64, 61
2, 273422, Control_c, 0, 64, 59
2, 273440, Control_c, 0, 64, 57
2, 273458, Control_c, 0, 64, 56
2, 273475, Control_c, 0, 64, 55
2, 273495, Control_c, 0, 64, 54
2, 273515, Control_c, 0, 64, 52
2, 273533, Control_c, 0, 64, 50
2, 273556, Control_c, 0, 64, 48
2, 273572, Control_c, 0, 64, 47
2, 273593, Control_c, 0, 64, 45
2, 273612, Control_c, 0, 64, 44
2, 273639, Note_on_c, 0, 72, 79
2, 273645, Note_on_c, 0, 57, 60
2, 273650, Control_c, 0, 64, 43
2, 273668, Control_c, 0, 64, 42
2, 273690, Control_c, 0, 64, 41
2, 273690, Note_on_c, 0, 55, 0
2, 273703, Note_on_c, 0, 71, 0
2, 273708, Control_c, 0, 64, 40
2, 273808, Note_on_c, 0, 74, 78
2, 273825, Note_on_c, 0, 59, 66
2, 273866, Note_on_c, 0, 72, 0
2, 273873, Note_on_c, 0, 57, 0
2, 274033, Note_on_c, 0, 67, 75
2, 274040, Note_on_c, 0, 60, 65
2, 274114, Note_on_c, 0, 59, 0
2, 274143, Note_on_c, 0, 74, 0
2, 274219, Note_on_c, 0, 74, 73
2, 274233, Note_on_c, 0, 77, 0
2, 274429, Note_on_c, 0, 76, 89
2, 274440, Note_on_c, 0, 58, 64
2, 274461, Note_on_c, 0, 74, 0
2, 274528, Note_on_c, 0, 60, 0
2, 274623, Note_on_c, 0, 79, 90
2, 274634, Note_on_c, 0, 56, 65
2, 274655, Note_on_c, 0, 76, 0
2, 274666, Note_on_c, 0, 58, 0
2, 274762, Control_c, 0, 64, 37
2, 274780, Control_c, 0, 64, 28
2, 274800, Control_c, 0, 64, 0
2, 274889, Note_on_c, 0, 56, 0
2, 274889, Note_on_c, 0, 79, 0
2, 274893, Note_on_c, 0, 70, 80
2, 274916, Note_on_c, 0, 55, 55
2, 274945, Note_on_c, 0, 67, 0
2, 274954, Control_c, 0, 64, 31
2, 274973, Control_c, 0, 64, 47
2, 274993, Control_c, 0, 64, 58
2, 275015, Control_c, 0, 64, 63
2, 275031, Control_c, 0, 64, 66
2, 275053, Control_c, 0, 64, 68
2, 275072, Control_c, 0, 64, 72
2, 275090, Control_c, 0, 64, 77
2, 275109, Control_c, 0, 64, 81
2, 275118, Note_on_c, 0, 55, 0
2, 275127, Control_c, 0, 64, 82
2, 275146, Control_c, 0, 64, 81
2, 275167, Control_c, 0, 64, 79
2, 275184, Control_c, 0, 64, 78
2, 275204, Control_c, 0, 64, 76
2, 275223, Control_c, 0, 64, 75
2, 275242, Control_c, 0, 64, 73
2, 275262, Control_c, 0, 64, 71
2, 275281, Control_c, 0, 64, 69
2, 275300, Control_c, 0, 64, 66
2, 275309, Note_on_c, 0, 61, 66
2, 275319, Control_c, 0, 64, 64
2, 275332, Note_on_c, 0, 55, 52
2, 275358, Control_c, 0, 64, 63
2, 275395, Control_c, 0, 64, 62
2, 275435, Control_c, 0, 64, 61
2, 275455, Control_c, 0, 64, 60
2, 275490, Note_on_c, 0, 53, 70
2, 275492, Control_c, 0, 64, 59
2, 275513, Control_c, 0, 64, 58
2, 275513, Note_on_c, 0, 55, 0
2, 275531, Control_c, 0, 64, 57
2, 275552, Control_c, 0, 64, 56
2, 275572, Control_c, 0, 64, 55
2, 275589, Control_c, 0, 64, 53
2, 275608, Control_c, 0, 64, 51
2, 275627, Control_c, 0, 64, 46
2, 275644, Control_c, 0, 64, 35
2, 275665, Control_c, 0, 64, 0
2, 275699, Note_on_c, 0, 53, 0
2, 275732, Note_on_c, 0, 60, 59
2, 275736, Note_on_c, 0, 52, 51
2, 275771, Note_on_c, 0, 61, 0
2, 275838, Control_c, 0, 64, 25
2, 275857, Control_c, 0, 64, 48
2, 275876, Control_c, 0, 64, 60
2, 275894, Control_c, 0, 64, 65
2, 275913, Control_c, 0, 64, 69
2, 275935, Control_c, 0, 64, 75
2, 275954, Note_on_c, 0, 52, 0
2, 275958, Control_c, 0, 64, 80
2, 275972, Control_c, 0, 64, 82
2, 276011, Control_c, 0, 64, 83
2, 276067, Control_c, 0, 64, 82
2, 276107, Control_c, 0, 64, 81
2, 276126, Control_c, 0, 64, 79
2, 276139, Note_on_c, 0, 67, 64
2, 276148, Control_c, 0, 64, 78
2, 276155, Note_on_c, 0, 52, 47
2, 276165, Control_c, 0, 64, 76
2, 276183, Control_c, 0, 64, 74
2, 276202, Control_c, 0, 64, 73
2, 276222, Control_c, 0, 64, 71
2, 276242, Control_c, 0, 64, 70
2, 276259, Control_c, 0, 64, 68
2, 276279, Control_c, 0, 64, 67
2, 276301, Control_c, 0, 64, 65
2, 276318, Control_c, 0, 64, 64
2, 276325, Note_on_c, 0, 65, 68
2, 276334, Note_on_c, 0, 50, 59
2, 276354, Note_on_c, 0, 52, 0
2, 276376, Control_c, 0, 64, 63
2, 276414, Control_c, 0, 64, 62
2, 276434, Note_on_c, 0, 67, 0
2, 276451, Control_c, 0, 64, 61
2, 276547, Control_c, 0, 64, 60
2, 276554, Note_on_c, 0, 64, 78
2, 276561, Note_on_c, 0, 48, 58
2, 276587, Control_c, 0, 64, 59
2, 276607, Note_on_c, 0, 60, 0
2, 276613, Note_on_c, 0, 65, 0
2, 276644, Control_c, 0, 64, 58
2, 276666, Control_c, 0, 64, 57
2, 276684, Control_c, 0, 64, 54
2, 276702, Control_c, 0, 64, 50
2, 276720, Control_c, 0, 64, 43
2, 276732, Note_on_c, 0, 50, 0
2, 276741, Control_c, 0, 64, 38
2, 276759, Control_c, 0, 64, 35
2, 276778, Control_c, 0, 64, 34
2, 276800, Control_c, 0, 64, 33
2, 276816, Control_c, 0, 64, 32
2, 276836, Control_c, 0, 64, 31
2, 276854, Control_c, 0, 64, 30
2, 276894, Control_c, 0, 64, 29
2, 276971, Note_on_c, 0, 65, 74
2, 277003, Note_on_c, 0, 50, 64
2, 277019, Note_on_c, 0, 64, 0
2, 277021, Note_on_c, 0, 48, 0
2, 277182, Note_on_c, 0, 52, 73
2, 277182, Note_on_c, 0, 67, 79
2, 277230, Note_on_c, 0, 65, 0
2, 277239, Note_on_c, 0, 50, 0
2, 277316, Control_c, 0, 64, 28
2, 277399, Note_on_c, 0, 53, 73
2, 277405, Note_on_c, 0, 60, 76
2, 277462, Note_on_c, 0, 52, 0
2, 277476, Note_on_c, 0, 67, 0
2, 277599, Note_on_c, 0, 55, 79
2, 277607, Control_c, 0, 64, 30
2, 277621, Note_on_c, 0, 53, 0
2, 277625, Control_c, 0, 64, 32
2, 277641, Control_c, 0, 64, 37
2, 277661, Control_c, 0, 64, 41
2, 277681, Control_c, 0, 64, 45
2, 277699, Control_c, 0, 64, 48
2, 277717, Control_c, 0, 64, 51
2, 277741, Control_c, 0, 64, 53
2, 277758, Control_c, 0, 64, 55
2, 277778, Control_c, 0, 64, 57
2, 277797, Control_c, 0, 64, 58
2, 277815, Control_c, 0, 64, 59
2, 277824, Note_on_c, 0, 56, 80
2, 277832, Note_on_c, 0, 68, 82
2, 277836, Control_c, 0, 64, 60
2, 277840, Note_on_c, 0, 65, 70
2, 277853, Control_c, 0, 64, 61
2, 277878, Control_c, 0, 64, 62
2, 277878, Note_on_c, 0, 55, 0
2, 277878, Note_on_c, 0, 60, 0
2, 277887, Note_on_c, 0, 70, 0
2, 277892, Control_c, 0, 64, 63
2, 277912, Control_c, 0, 64, 64
2, 277931, Control_c, 0, 64, 67
2, 277952, Control_c, 0, 64, 70
2, 277970, Control_c, 0, 64, 76
2, 277988, Control_c, 0, 64, 83
2, 278007, Control_c, 0, 64, 95
2, 278026, Control_c, 0, 64, 127
2, 278055, Note_on_c, 0, 58, 87
2, 278067, Note_on_c, 0, 56, 0
2, 278244, Note_on_c, 0, 58, 0
2, 278428, Note_on_c, 0, 67, 73
2, 278439, Note_on_c, 0, 48, 78
2, 278448, Control_c, 0, 64, 120
2, 278448, Note_on_c, 0, 60, 82
2, 278470, Control_c, 0, 64, 103
2, 278479, Note_on_c, 0, 68, 0
2, 278488, Control_c, 0, 64, 93
2, 278508, Control_c, 0, 64, 85
2, 278525, Control_c, 0, 64, 79
2, 278545, Control_c, 0, 64, 74
2, 278564, Control_c, 0, 64, 70
2, 278586, Control_c, 0, 64, 67
2, 278603, Control_c, 0, 64, 64
2, 278621, Control_c, 0, 64, 62
2, 278644, Control_c, 0, 64, 61
2, 278659, Control_c, 0, 64, 60
2, 278699, Control_c, 0, 64, 59
2, 278721, Control_c, 0, 64, 58
2, 278738, Control_c, 0, 64, 57
2, 278758, Control_c, 0, 64, 56
2, 278778, Control_c, 0, 64, 55
2, 278815, Control_c, 0, 64, 54
2, 278834, Control_c, 0, 64, 53
2, 278852, Control_c, 0, 64, 51
2, 278872, Control_c, 0, 64, 50
2, 278891, Control_c, 0, 64, 47
2, 278908, Control_c, 0, 64, 44
2, 278928, Control_c, 0, 64, 41
2, 278951, Control_c, 0, 64, 38
2, 278967, Control_c, 0, 64, 35
2, 278989, Control_c, 0, 64, 32
2, 279006, Control_c, 0, 64, 29
2, 279026, Control_c, 0, 64, 27
2, 279035, Note_on_c, 0, 64, 67
2, 279044, Control_c, 0, 64, 26
2, 279048, Note_on_c, 0, 65, 0
2, 279276, Control_c, 0, 64, 27
2, 279372, Control_c, 0, 64, 28
2, 279559, Note_on_c, 0, 49, 75
2, 279582, Note_on_c, 0, 65, 62
2, 279603, Note_on_c, 0, 64, 0
2, 279614, Note_on_c, 0, 67, 0
2, 279633, Note_on_c, 0, 48, 0
2, 279809, Note_on_c, 0, 64, 68
2, 279814, Control_c, 0, 64, 32
2, 279832, Control_c, 0, 64, 39
2, 279836, Note_on_c, 0, 60, 0
2, 279853, Control_c, 0, 64, 51
2, 279853, Note_on_c, 0, 65, 0
2, 279869, Control_c, 0, 64, 58
2, 279890, Control_c, 0, 64, 62
2, 279907, Control_c, 0, 64, 64
2, 279927, Control_c, 0, 64, 65
2, 279945, Control_c, 0, 64, 66
2, 279966, Control_c, 0, 64, 69
2, 279984, Control_c, 0, 64, 73
2, 280004, Control_c, 0, 64, 79
2, 280013, Note_on_c, 0, 65, 63
2, 280026, Control_c, 0, 64, 86
2, 280030, Note_on_c, 0, 58, 71
2, 280042, Control_c, 0, 64, 90
2, 280064, Control_c, 0, 64, 92
2, 280081, Control_c, 0, 64, 93
2, 280157, Control_c, 0, 64, 92
2, 280177, Control_c, 0, 64, 91
2, 280198, Control_c, 0, 64, 90
2, 280212, Note_on_c, 0, 67, 74
2, 280216, Control_c, 0, 64, 89
2, 280234, Control_c, 0, 64, 88
2, 280254, Control_c, 0, 64, 86
2, 280259, Note_on_c, 0, 65, 0
2, 280272, Control_c, 0, 64, 85
2, 280295, Control_c, 0, 64, 83
2, 280312, Control_c, 0, 64, 81
2, 280332, Control_c, 0, 64, 79
2, 280349, Control_c, 0, 64, 77
2, 280369, Control_c, 0, 64, 75
2, 280387, Control_c, 0, 64, 74
2, 280408, Control_c, 0, 64, 73
2, 280419, Note_on_c, 0, 48, 79
2, 280426, Control_c, 0, 64, 72
2, 280446, Control_c, 0, 64, 70
2, 280447, Note_on_c, 0, 68, 69
2, 280463, Note_on_c, 0, 49, 0
2, 280463, Note_on_c, 0, 67, 0
2, 280465, Control_c, 0, 64, 69
2, 280485, Control_c, 0, 64, 67
2, 280504, Control_c, 0, 64, 66
2, 280524, Control_c, 0, 64, 64
2, 280562, Control_c, 0, 64, 63
2, 280622, Note_on_c, 0, 64, 0
2, 280622, Note_on_c, 0, 67, 63
2, 280638, Control_c, 0, 64, 62
2, 280664, Note_on_c, 0, 58, 0
2, 280675, Control_c, 0, 64, 61
2, 280699, Control_c, 0, 64, 60
2, 280715, Control_c, 0, 64, 57
2, 280733, Control_c, 0, 64, 52
2, 280753, Control_c, 0, 64, 44
2, 280775, Control_c, 0, 64, 35
2, 280791, Control_c, 0, 64, 29
2, 280813, Control_c, 0, 64, 28
2, 280829, Control_c, 0, 64, 29
2, 280835, Note_on_c, 0, 65, 60
2, 280842, Note_on_c, 0, 56, 64
2, 280852, Control_c, 0, 64, 32
2, 280866, Control_c, 0, 64, 36
2, 280887, Control_c, 0, 64, 41
2, 280905, Control_c, 0, 64, 47
2, 280925, Control_c, 0, 64, 54
2, 280948, Control_c, 0, 64, 60
2, 280968, Control_c, 0, 64, 63
2, 280982, Control_c, 0, 64, 65
2, 281001, Control_c, 0, 64, 67
2, 281015, Note_on_c, 0, 65, 0
2, 281022, Control_c, 0, 64, 70
2, 281035, Note_on_c, 0, 63, 69
2, 281045, Control_c, 0, 64, 74
2, 281060, Control_c, 0, 64, 79
2, 281085, Control_c, 0, 64, 84
2, 281103, Control_c, 0, 64, 86
2, 281141, Control_c, 0, 64, 85
2, 281160, Control_c, 0, 64, 84
2, 281182, Control_c, 0, 64, 83
2, 281200, Control_c, 0, 64, 82
2, 281218, Note_on_c, 0, 68, 0
2, 281223, Control_c, 0, 64, 80
2, 281237, Control_c, 0, 64, 78
2, 281257, Control_c, 0, 64, 76
2, 281276, Control_c, 0, 64, 73
2, 281289, Note_on_c, 0, 47, 77
2, 281289, Note_on_c, 0, 63, 0
2, 281293, Control_c, 0, 64, 70
2, 281293, Note_on_c, 0, 62, 66
2, 281313, Control_c, 0, 64, 68
2, 281337, Control_c, 0, 64, 66
2, 281357, Control_c, 0, 64, 65
2, 281357, Note_on_c, 0, 56, 0
2, 281373, Control_c, 0, 64, 64
2, 281393, Control_c, 0, 64, 63
2, 281412, Control_c, 0, 64, 62
2, 281423, Note_on_c, 0, 48, 0
2, 281450, Control_c, 0, 64, 61
2, 281483, Note_on_c, 0, 65, 70
2, 281545, Control_c, 0, 64, 60
2, 281566, Note_on_c, 0, 67, 0
2, 281641, Control_c, 0, 64, 59
2, 281683, Control_c, 0, 64, 58
2, 281683, Note_on_c, 0, 67, 70
2, 281687, Note_on_c, 0, 55, 74
2, 281720, Control_c, 0, 64, 57
2, 281736, Note_on_c, 0, 65, 0
2, 281776, Control_c, 0, 64, 56
2, 281814, Control_c, 0, 64, 55
2, 281860, Note_on_c, 0, 68, 85
2, 281869, Note_on_c, 0, 53, 72
2, 281914, Control_c, 0, 64, 54
2, 281914, Note_on_c, 0, 67, 0
2, 281948, Control_c, 0, 64, 53
2, 281952, Note_on_c, 0, 55, 0
2, 281956, Note_on_c, 0, 47, 0
2, 281989, Control_c, 0, 64, 52
2, 282006, Control_c, 0, 64, 51
2, 282026, Control_c, 0, 64, 49
2, 282047, Control_c, 0, 64, 48
2, 282063, Control_c, 0, 64, 46
2, 282074, Note_on_c, 0, 52, 75
2, 282085, Control_c, 0, 64, 45
2, 282085, Note_on_c, 0, 70, 78
2, 282090, Note_on_c, 0, 53, 0
2, 282091, Note_on_c, 0, 55, 75
2, 282102, Control_c, 0, 64, 44
2, 282122, Control_c, 0, 64, 42
2, 282130, Note_on_c, 0, 62, 0
2, 282143, Control_c, 0, 64, 41
2, 282143, Note_on_c, 0, 68, 0
2, 282257, Note_on_c, 0, 55, 0
2, 282275, Note_on_c, 0, 58, 78
2, 282494, Note_on_c, 0, 56, 63
2, 282519, Note_on_c, 0, 58, 0
2, 282519, Note_on_c, 0, 61, 79
2, 282715, Note_on_c, 0, 55, 70
2, 282755, Note_on_c, 0, 56, 0
2, 282917, Note_on_c, 0, 53, 78
2, 282947, Control_c, 0, 64, 40
2, 282973, Note_on_c, 0, 52, 0
2, 283015, Note_on_c, 0, 55, 0
2, 283041, Control_c, 0, 64, 41
2, 283061, Control_c, 0, 64, 43
2, 283083, Control_c, 0, 64, 47
2, 283096, Note_on_c, 0, 68, 82
2, 283100, Control_c, 0, 64, 53
2, 283121, Control_c, 0, 64, 57
2, 283132, Note_on_c, 0, 70, 0
2, 283138, Control_c, 0, 64, 59
2, 283158, Control_c, 0, 64, 61
2, 283176, Control_c, 0, 64, 62
2, 283197, Control_c, 0, 64, 63
2, 283201, Note_on_c, 0, 61, 0
2, 283219, Control_c, 0, 64, 64
2, 283237, Control_c, 0, 64, 66
2, 283252, Control_c, 0, 64, 68
2, 283272, Control_c, 0, 64, 71
2, 283279, Note_on_c, 0, 55, 73
2, 283284, Note_on_c, 0, 70, 70
2, 283294, Control_c, 0, 64, 75
2, 283296, Note_on_c, 0, 60, 74
2, 283311, Control_c, 0, 64, 80
2, 283329, Control_c, 0, 64, 86
2, 283350, Control_c, 0, 64, 93
2, 283363, Note_on_c, 0, 55, 0
2, 283371, Control_c, 0, 64, 100
2, 283380, Note_on_c, 0, 60, 0
2, 283388, Control_c, 0, 64, 113
2, 283407, Control_c, 0, 64, 127
2, 283482, Note_on_c, 0, 56, 83
2, 283482, Note_on_c, 0, 72, 80
2, 283519, Note_on_c, 0, 70, 0
2, 283530, Note_on_c, 0, 53, 0
2, 283530, Note_on_c, 0, 68, 0
2, 283560, Note_on_c, 0, 56, 0
2, 283580, Control_c, 0, 64, 122
2, 283600, Control_c, 0, 64, 112
2, 283621, Control_c, 0, 64, 106
2, 283637, Control_c, 0, 64, 98
2, 283657, Control_c, 0, 64, 90
2, 283676, Control_c, 0, 64, 83
2, 283698, Control_c, 0, 64, 77
2, 283715, Control_c, 0, 64, 73
2, 283719, Note_on_c, 0, 46, 76
2, 283719, Note_on_c, 0, 72, 0
2, 283724, Note_on_c, 0, 58, 82
2, 283728, Note_on_c, 0, 73, 76
2, 283737, Control_c, 0, 64, 70
2, 283753, Control_c, 0, 64, 66
2, 283771, Control_c, 0, 64, 64
2, 283794, Control_c, 0, 64, 61
2, 283810, Control_c, 0, 64, 60
2, 283829, Control_c, 0, 64, 58
2, 283849, Control_c, 0, 64, 57
2, 283867, Control_c, 0, 64, 55
2, 283888, Control_c, 0, 64, 53
2, 283893, Note_on_c, 0, 53, 76
2, 283907, Control_c, 0, 64, 51
2, 283911, Note_on_c, 0, 58, 0
2, 283949, Control_c, 0, 64, 50
2, 283986, Control_c, 0, 64, 49
2, 284002, Control_c, 0, 64, 47
2, 284023, Control_c, 0, 64, 42
2, 284042, Control_c, 0, 64, 29
2, 284059, Control_c, 0, 64, 0
2, 284103, Note_on_c, 0, 51, 82
2, 284114, Note_on_c, 0, 66, 78
2, 284119, Note_on_c, 0, 53, 0
2, 284194, Control_c, 0, 64, 25
2, 284216, Control_c, 0, 64, 46
2, 284233, Control_c, 0, 64, 59
2, 284249, Note_on_c, 0, 51, 0
2, 284253, Control_c, 0, 64, 65
2, 284271, Control_c, 0, 64, 69
2, 284283, Note_on_c, 0, 49, 80
2, 284290, Control_c, 0, 64, 75
2, 284308, Control_c, 0, 64, 82
2, 284329, Control_c, 0, 64, 88
2, 284350, Control_c, 0, 64, 92
2, 284355, Note_on_c, 0, 46, 0
2, 284368, Control_c, 0, 64, 93
2, 284372, Note_on_c, 0, 49, 0
2, 284407, Control_c, 0, 64, 92
2, 284424, Control_c, 0, 64, 89
2, 284444, Control_c, 0, 64, 86
2, 284467, Control_c, 0, 64, 83
2, 284485, Control_c, 0, 64, 80
2, 284501, Control_c, 0, 64, 76
2, 284514, Note_on_c, 0, 45, 81
2, 284521, Control_c, 0, 64, 71
2, 284542, Control_c, 0, 64, 66
2, 284551, Note_on_c, 0, 48, 69
2, 284558, Control_c, 0, 64, 63
2, 284578, Control_c, 0, 64, 61
2, 284597, Control_c, 0, 64, 60
2, 284619, Control_c, 0, 64, 57
2, 284636, Control_c, 0, 64, 52
2, 284657, Control_c, 0, 64, 38
2, 284675, Control_c, 0, 64, 0
2, 284716, Note_on_c, 0, 72, 82
2, 284762, Note_on_c, 0, 73, 0
2, 284857, Note_on_c, 0, 66, 0
2, 284925, Note_on_c, 0, 74, 80
2, 284929, Note_on_c, 0, 65, 72
2, 284946, Control_c, 0, 64, 9
2, 284962, Control_c, 0, 64, 33
2, 284966, Note_on_c, 0, 72, 0
2, 284982, Control_c, 0, 64, 47
2, 284999, Control_c, 0, 64, 57
2, 285020, Control_c, 0, 64, 62
2, 285041, Control_c, 0, 64, 64
2, 285076, Control_c, 0, 64, 65
2, 285096, Control_c, 0, 64, 66
2, 285117, Control_c, 0, 64, 67
2, 285130, Note_on_c, 0, 76, 88
2, 285154, Control_c, 0, 64, 68
2, 285163, Note_on_c, 0, 74, 0
2, 285172, Control_c, 0, 64, 67
2, 285207, Note_on_c, 0, 65, 0
2, 285232, Control_c, 0, 64, 66
2, 285270, Control_c, 0, 64, 65
2, 285307, Control_c, 0, 64, 64
2, 285326, Control_c, 0, 64, 63
2, 285331, Note_on_c, 0, 44, 87
2, 285351, Note_on_c, 0, 77, 83
2, 285363, Control_c, 0, 64, 62
2, 285377, Note_on_c, 0, 48, 0
2, 285379, Note_on_c, 0, 76, 0
2, 285402, Note_on_c, 0, 45, 0
2, 285420, Control_c, 0, 64, 60
2, 285436, Control_c, 0, 64, 58
2, 285458, Control_c, 0, 64, 54
2, 285476, Control_c, 0, 64, 46
2, 285495, Control_c, 0, 64, 26
2, 285516, Control_c, 0, 64, 0
2, 285540, Note_on_c, 0, 50, 79
2, 285553, Note_on_c, 0, 65, 74
2, 285657, Note_on_c, 0, 65, 0
2, 285727, Control_c, 0, 64, 22
2, 285745, Control_c, 0, 64, 45
2, 285760, Note_on_c, 0, 52, 79
2, 285760, Note_on_c, 0, 67, 82
2, 285765, Control_c, 0, 64, 60
2, 285784, Control_c, 0, 64, 64
2, 285789, Note_on_c, 0, 50, 0
2, 285802, Control_c, 0, 64, 67
2, 285822, Control_c, 0, 64, 72
2, 285840, Control_c, 0, 64, 79
2, 285849, Note_on_c, 0, 44, 0
2, 285864, Control_c, 0, 64, 92
2, 285880, Control_c, 0, 64, 127
2, 285976, Note_on_c, 0, 53, 87
2, 285985, Note_on_c, 0, 68, 88
2, 286001, Note_on_c, 0, 67, 0
2, 286017, Note_on_c, 0, 52, 0
2, 286076, Note_on_c, 0, 53, 0
2, 286281, Note_on_c, 0, 68, 0
2, 286298, Note_on_c, 0, 70, 74
2, 286304, Note_on_c, 0, 55, 85
2, 286309, Note_on_c, 0, 43, 82
2, 286379, Control_c, 0, 64, 109
2, 286396, Control_c, 0, 64, 79
2, 286416, Control_c, 0, 64, 63
2, 286436, Control_c, 0, 64, 50
2, 286456, Control_c, 0, 64, 31
2, 286473, Control_c, 0, 64, 13
2, 286494, Control_c, 0, 64, 0
2, 286826, Note_on_c, 0, 76, 77
2, 286899, Note_on_c, 0, 77, 0
2, 287041, Note_on_c, 0, 74, 79
2, 287110, Note_on_c, 0, 76, 0
2, 287286, Note_on_c, 0, 76, 81
2, 287343, Note_on_c, 0, 74, 0
2, 287504, Note_on_c, 0, 45, 74
2, 287546, Note_on_c, 0, 55, 0
2, 287727, Control_c, 0, 64, 18
2, 287727, Note_on_c, 0, 46, 83
2, 287741, Control_c, 0, 64, 27
2, 287764, Control_c, 0, 64, 37
2, 287764, Note_on_c, 0, 45, 0
2, 287782, Control_c, 0, 64, 46
2, 287800, Control_c, 0, 64, 53
2, 287817, Control_c, 0, 64, 58
2, 287839, Control_c, 0, 64, 61
2, 287858, Control_c, 0, 64, 63
2, 287897, Control_c, 0, 64, 64
2, 287915, Control_c, 0, 64, 65
2, 287934, Control_c, 0, 64, 66
2, 287953, Control_c, 0, 64, 67
2, 287969, Note_on_c, 0, 48, 85
2, 287973, Control_c, 0, 64, 70
2, 287993, Control_c, 0, 64, 73
2, 287997, Note_on_c, 0, 46, 0
2, 288012, Control_c, 0, 64, 76
2, 288030, Control_c, 0, 64, 81
2, 288047, Control_c, 0, 64, 85
2, 288067, Control_c, 0, 64, 89
2, 288087, Control_c, 0, 64, 91
2, 288107, Control_c, 0, 64, 92
2, 288183, Control_c, 0, 64, 91
2, 288203, Control_c, 0, 64, 90
2, 288220, Control_c, 0, 64, 89
2, 288260, Control_c, 0, 64, 88
2, 288298, Control_c, 0, 64, 87
2, 288315, Note_on_c, 0, 41, 75
2, 288320, Control_c, 0, 64, 85
2, 288336, Control_c, 0, 64, 81
2, 288345, Note_on_c, 0, 49, 72
2, 288354, Note_on_c, 0, 77, 73
2, 288358, Control_c, 0, 64, 72
2, 288367, Note_on_c, 0, 43, 0
2, 288377, Control_c, 0, 64, 63
2, 288377, Note_on_c, 0, 70, 0
2, 288381, Note_on_c, 0, 76, 0
2, 288394, Control_c, 0, 64, 52
2, 288415, Control_c, 0, 64, 41
2, 288415, Note_on_c, 0, 48, 0
2, 288432, Control_c, 0, 64, 30
2, 288451, Control_c, 0, 64, 23
2, 288472, Control_c, 0, 64, 18
2, 288489, Control_c, 0, 64, 13
2, 288509, Control_c, 0, 64, 11
2, 288529, Control_c, 0, 64, 10
2, 288549, Control_c, 0, 64, 8
2, 288568, Control_c, 0, 64, 0
2, 288684, Note_on_c, 0, 73, 68
2, 288696, Note_on_c, 0, 48, 58
2, 288735, Note_on_c, 0, 49, 0
2, 288906, Note_on_c, 0, 72, 72
2, 288928, Note_on_c, 0, 49, 63
2, 288928, Note_on_c, 0, 73, 0
2, 288986, Note_on_c, 0, 48, 0
2, 289117, Note_on_c, 0, 51, 71
2, 289117, Note_on_c, 0, 70, 71
2, 289137, Note_on_c, 0, 72, 0
2, 289144, Control_c, 0, 64, 8
2, 289154, Note_on_c, 0, 49, 0
2, 289277, Control_c, 0, 64, 9
2, 289295, Control_c, 0, 64, 11
2, 289332, Note_on_c, 0, 69, 64
2, 289339, Control_c, 0, 64, 13
2, 289339, Note_on_c, 0, 53, 67
2, 289354, Note_on_c, 0, 70, 0
2, 289362, Note_on_c, 0, 51, 0
2, 289424, Note_on_c, 0, 41, 0
2, 289522, Note_on_c, 0, 75, 74
2, 289539, Note_on_c, 0, 41, 64
2, 289577, Note_on_c, 0, 77, 0
2, 289623, Control_c, 0, 64, 14
2, 289641, Control_c, 0, 64, 20
2, 289662, Control_c, 0, 64, 30
2, 289681, Control_c, 0, 64, 41
2, 289701, Control_c, 0, 64, 50
2, 289717, Control_c, 0, 64, 58
2, 289733, Note_on_c, 0, 43, 71
2, 289733, Note_on_c, 0, 73, 80
2, 289737, Control_c, 0, 64, 61
2, 289758, Control_c, 0, 64, 63
2, 289776, Control_c, 0, 64, 65
2, 289796, Control_c, 0, 64, 66
2, 289800, Note_on_c, 0, 41, 0
2, 289800, Note_on_c, 0, 75, 0
2, 289814, Control_c, 0, 64, 68
2, 289835, Control_c, 0, 64, 70
2, 289856, Control_c, 0, 64, 73
2, 289872, Control_c, 0, 64, 76
2, 289891, Control_c, 0, 64, 79
2, 289910, Control_c, 0, 64, 80
2, 289917, Note_on_c, 0, 45, 76
2, 289928, Note_on_c, 0, 72, 85
2, 289953, Note_on_c, 0, 43, 0
2, 289968, Control_c, 0, 64, 79
2, 289972, Note_on_c, 0, 73, 0
2, 289989, Control_c, 0, 64, 77
2, 289996, Note_on_c, 0, 45, 0
2, 290007, Control_c, 0, 64, 75
2, 290009, Note_on_c, 0, 72, 0
2, 290028, Control_c, 0, 64, 72
2, 290047, Control_c, 0, 64, 70
2, 290065, Control_c, 0, 64, 67
2, 290082, Control_c, 0, 64, 64
2, 290106, Control_c, 0, 64, 63
2, 290122, Control_c, 0, 64, 62
2, 290133, Note_on_c, 0, 73, 76
2, 290143, Control_c, 0, 64, 61
2, 290143, Note_on_c, 0, 46, 75
2, 290161, Control_c, 0, 64, 60
2, 290179, Control_c, 0, 64, 59
2, 290198, Control_c, 0, 64, 57
2, 290219, Control_c, 0, 64, 55
2, 290232, Note_on_c, 0, 53, 0
2, 290237, Control_c, 0, 64, 53
2, 290257, Control_c, 0, 64, 51
2, 290276, Control_c, 0, 64, 49
2, 290295, Control_c, 0, 64, 47
2, 290314, Control_c, 0, 64, 44
2, 290325, Note_on_c, 0, 53, 68
2, 290336, Control_c, 0, 64, 41
2, 290336, Note_on_c, 0, 72, 76
2, 290352, Control_c, 0, 64, 38
2, 290364, Note_on_c, 0, 69, 0
2, 290373, Control_c, 0, 64, 36
2, 290390, Control_c, 0, 64, 35
2, 290430, Control_c, 0, 64, 34
2, 290486, Control_c, 0, 64, 33
2, 290530, Note_on_c, 0, 55, 71
2, 290530, Note_on_c, 0, 70, 83
2, 290539, Note_on_c, 0, 53, 0
2, 290587, Note_on_c, 0, 72, 0
2, 290716, Note_on_c, 0, 56, 75
2, 290720, Note_on_c, 0, 68, 83
2, 290750, Note_on_c, 0, 55, 0
2, 290775, Note_on_c, 0, 70, 0
2, 290853, Control_c, 0, 64, 34
2, 290923, Note_on_c, 0, 67, 78
2, 290932, Note_on_c, 0, 68, 0
2, 290936, Note_on_c, 0, 58, 81
2, 290949, Note_on_c, 0, 56, 0
2, 291007, Control_c, 0, 64, 35
2, 291120, Control_c, 0, 64, 36
2, 291128, Note_on_c, 0, 65, 74
2, 291137, Note_on_c, 0, 49, 73
2, 291137, Note_on_c, 0, 70, 75
2, 291152, Note_on_c, 0, 67, 0
2, 291197, Note_on_c, 0, 73, 0
2, 291245, Note_on_c, 0, 46, 0
2, 291273, Control_c, 0, 64, 37
2, 291332, Control_c, 0, 64, 38
2, 291344, Note_on_c, 0, 48, 73
2, 291348, Note_on_c, 0, 72, 82
2, 291353, Control_c, 0, 64, 39
2, 291355, Note_on_c, 0, 63, 80
2, 291358, Note_on_c, 0, 65, 0
2, 291370, Control_c, 0, 64, 41
2, 291383, Note_on_c, 0, 49, 0
2, 291388, Note_on_c, 0, 70, 0
2, 291390, Control_c, 0, 64, 45
2, 291408, Control_c, 0, 64, 52
2, 291428, Control_c, 0, 64, 57
2, 291447, Control_c, 0, 64, 61
2, 291469, Control_c, 0, 64, 63
2, 291469, Note_on_c, 0, 63, 0
2, 291488, Control_c, 0, 64, 64
2, 291505, Control_c, 0, 64, 66
2, 291523, Control_c, 0, 64, 69
2, 291542, Control_c, 0, 64, 73
2, 291561, Control_c, 0, 64, 78
2, 291569, Note_on_c, 0, 61, 81
2, 291574, Note_on_c, 0, 46, 75
2, 291574, Note_on_c, 0, 73, 84
2, 291583, Control_c, 0, 64, 84
2, 291587, Note_on_c, 0, 72, 0
2, 291604, Control_c, 0, 64, 92
2, 291619, Control_c, 0, 64, 100
2, 291629, Note_on_c, 0, 48, 0
2, 291639, Control_c, 0, 64, 108
2, 291658, Control_c, 0, 64, 118
2, 291679, Control_c, 0, 64, 127
2, 291679, Note_on_c, 0, 73, 0
2, 291703, Note_on_c, 0, 61, 0
2, 291754, Control_c, 0, 64, 122
2, 291774, Control_c, 0, 64, 115
2, 291794, Control_c, 0, 64, 110
2, 291815, Control_c, 0, 64, 106
2, 291815, Note_on_c, 0, 48, 71
2, 291831, Control_c, 0, 64, 102
2, 291849, Control_c, 0, 64, 100
2, 291869, Control_c, 0, 64, 97
2, 291874, Note_on_c, 0, 46, 0
2, 291876, Note_on_c, 0, 64, 81
2, 291890, Control_c, 0, 64, 95
2, 291890, Note_on_c, 0, 60, 78
2, 291908, Control_c, 0, 64, 93
2, 291927, Control_c, 0, 64, 90
2, 291927, Note_on_c, 0, 58, 0
2, 291947, Control_c, 0, 64, 85
2, 291966, Control_c, 0, 64, 79
2, 291984, Control_c, 0, 64, 74
2, 292004, Control_c, 0, 64, 68
2, 292024, Control_c, 0, 64, 64
2, 292041, Control_c, 0, 64, 60
2, 292061, Control_c, 0, 64, 57
2, 292080, Control_c, 0, 64, 55
2, 292100, Control_c, 0, 64, 52
2, 292112, Note_on_c, 0, 58, 73
2, 292118, Control_c, 0, 64, 50
2, 292138, Control_c, 0, 64, 48
2, 292156, Control_c, 0, 64, 46
2, 292175, Control_c, 0, 64, 45
2, 292196, Control_c, 0, 64, 43
2, 292216, Control_c, 0, 64, 42
2, 292235, Control_c, 0, 64, 40
2, 292255, Control_c, 0, 64, 39
2, 292272, Control_c, 0, 64, 38
2, 292292, Control_c, 0, 64, 36
2, 292312, Control_c, 0, 64, 35
2, 292326, Note_on_c, 0, 72, 83
2, 292331, Control_c, 0, 64, 34
2, 292340, Note_on_c, 0, 56, 72
2, 292349, Control_c, 0, 64, 33
2, 292356, Note_on_c, 0, 58, 0
2, 292369, Control_c, 0, 64, 31
2, 292388, Control_c, 0, 64, 29
2, 292408, Control_c, 0, 64, 27
2, 292426, Control_c, 0, 64, 25
2, 292442, Note_on_c, 0, 64, 0
2, 292446, Control_c, 0, 64, 24
2, 292464, Control_c, 0, 64, 22
2, 292484, Control_c, 0, 64, 20
2, 292501, Control_c, 0, 64, 14
2, 292521, Control_c, 0, 64, 0
2, 292553, Note_on_c, 0, 55, 75
2, 292624, Note_on_c, 0, 56, 0
2, 292797, Note_on_c, 0, 56, 76
2, 292889, Note_on_c, 0, 55, 0
2, 293016, Note_on_c, 0, 67, 76
2, 293082, Note_on_c, 0, 72, 0
2, 293214, Control_c, 0, 64, 13
2, 293232, Control_c, 0, 64, 23
2, 293252, Control_c, 0, 64, 31
2, 293259, Note_on_c, 0, 68, 81
2, 293270, Control_c, 0, 64, 37
2, 293290, Control_c, 0, 64, 43
2, 293312, Control_c, 0, 64, 47
2, 293327, Control_c, 0, 64, 52
2, 293332, Note_on_c, 0, 67, 0
2, 293348, Control_c, 0, 64, 56
2, 293365, Control_c, 0, 64, 58
2, 293385, Control_c, 0, 64, 60
2, 293404, Control_c, 0, 64, 61
2, 293442, Control_c, 0, 64, 62
2, 293462, Control_c, 0, 64, 63
2, 293484, Control_c, 0, 64, 64
2, 293502, Control_c, 0, 64, 65
2, 293513, Note_on_c, 0, 65, 75
2, 293521, Control_c, 0, 64, 66
2, 293541, Control_c, 0, 64, 68
2, 293557, Note_on_c, 0, 68, 0
2, 293561, Control_c, 0, 64, 70
2, 293580, Control_c, 0, 64, 73
2, 293598, Control_c, 0, 64, 76
2, 293611, Note_on_c, 0, 56, 0
2, 293616, Control_c, 0, 64, 79
2, 293636, Control_c, 0, 64, 82
2, 293655, Control_c, 0, 64, 86
2, 293674, Control_c, 0, 64, 89
2, 293693, Control_c, 0, 64, 93
2, 293716, Control_c, 0, 64, 96
2, 293731, Control_c, 0, 64, 97
2, 293760, Note_on_c, 0, 56, 67
2, 293826, Control_c, 0, 64, 96
2, 293848, Control_c, 0, 64, 95
2, 293850, Note_on_c, 0, 65, 0
2, 293866, Control_c, 0, 64, 94
2, 293883, Control_c, 0, 64, 93
2, 293903, Control_c, 0, 64, 92
2, 293926, Control_c, 0, 64, 91
2, 293936, Note_on_c, 0, 55, 60
2, 293943, Control_c, 0, 64, 90
2, 293943, Note_on_c, 0, 56, 0
2, 293963, Control_c, 0, 64, 88
2, 293981, Control_c, 0, 64, 87
2, 294001, Control_c, 0, 64, 85
2, 294020, Control_c, 0, 64, 83
2, 294038, Control_c, 0, 64, 82
2, 294059, Control_c, 0, 64, 81
2, 294068, Note_on_c, 0, 55, 0
2, 294073, Note_on_c, 0, 65, 68
2, 294077, Control_c, 0, 64, 79
2, 294086, Note_on_c, 0, 56, 67
2, 294097, Control_c, 0, 64, 77
2, 294116, Control_c, 0, 64, 76
2, 294134, Control_c, 0, 64, 74
2, 294154, Control_c, 0, 64, 73
2, 294172, Control_c, 0, 64, 71
2, 294191, Control_c, 0, 64, 70
2, 294199, Note_on_c, 0, 55, 69
2, 294203, Note_on_c, 0, 56, 0
2, 294214, Control_c, 0, 64, 68
2, 294231, Control_c, 0, 64, 67
2, 294248, Control_c, 0, 64, 66
2, 294289, Control_c, 0, 64, 65
2, 294308, Control_c, 0, 64, 64
2, 294312, Note_on_c, 0, 64, 75
2, 294324, Note_on_c, 0, 55, 0
2, 294335, Note_on_c, 0, 56, 72
2, 294347, Control_c, 0, 64, 63
2, 294374, Note_on_c, 0, 65, 0
2, 294385, Control_c, 0, 64, 62
2, 294423, Control_c, 0, 64, 61
2, 294457, Note_on_c, 0, 55, 73
2, 294464, Note_on_c, 0, 56, 0
2, 294481, Control_c, 0, 64, 60
2, 294520, Control_c, 0, 64, 59
2, 294565, Note_on_c, 0, 62, 79
2, 294598, Control_c, 0, 64, 58
2, 294598, Note_on_c, 0, 56, 75
2, 294611, Note_on_c, 0, 55, 0
2, 294635, Control_c, 0, 64, 56
2, 294641, Note_on_c, 0, 64, 0
2, 294656, Control_c, 0, 64, 52
2, 294672, Control_c, 0, 64, 45
2, 294690, Control_c, 0, 64, 36
2, 294711, Control_c, 0, 64, 21
2, 294730, Control_c, 0, 64, 0
2, 294739, Note_on_c, 0, 55, 70
2, 294752, Note_on_c, 0, 56, 0
2, 294826, Control_c, 0, 64, 9
2, 294845, Control_c, 0, 64, 24
2, 294865, Control_c, 0, 64, 34
2, 294883, Control_c, 0, 64, 42
2, 294903, Control_c, 0, 64, 49
2, 294927, Control_c, 0, 64, 54
2, 294927, Note_on_c, 0, 56, 61
2, 294927, Note_on_c, 0, 65, 64
2, 294938, Control_c, 0, 64, 57
2, 294950, Note_on_c, 0, 55, 0
2, 294958, Control_c, 0, 64, 59
2, 294970, Note_on_c, 0, 62, 0
2, 294976, Control_c, 0, 64, 60
2, 294996, Control_c, 0, 64, 61
2, 295016, Control_c, 0, 64, 62
2, 295054, Control_c, 0, 64, 63
2, 295072, Control_c, 0, 64, 64
2, 295093, Control_c, 0, 64, 65
2, 295107, Note_on_c, 0, 65, 0
2, 295111, Note_on_c, 0, 56, 0
2, 295116, Note_on_c, 0, 55, 60
2, 295124, Note_on_c, 0, 64, 69
2, 295130, Control_c, 0, 64, 67
2, 295148, Control_c, 0, 64, 68
2, 295169, Control_c, 0, 64, 70
2, 295186, Control_c, 0, 64, 71
2, 295226, Note_on_c, 0, 55, 0
2, 295247, Note_on_c, 0, 64, 0
2, 295256, Note_on_c, 0, 65, 65
2, 295258, Note_on_c, 0, 56, 65
2, 295325, Note_on_c, 0, 56, 0
2, 295333, Note_on_c, 0, 65, 0
2, 295358, Note_on_c, 0, 64, 69
2, 295367, Note_on_c, 0, 55, 55
2, 295398, Control_c, 0, 64, 70
2, 295419, Note_on_c, 0, 55, 0
2, 295423, Note_on_c, 0, 64, 0
2, 295446, Note_on_c, 0, 56, 66
2, 295446, Note_on_c, 0, 65, 60
2, 295506, Note_on_c, 0, 65, 0
2, 295517, Note_on_c, 0, 56, 0
2, 295521, Note_on_c, 0, 55, 64
2, 295521, Note_on_c, 0, 64, 68
2, 295563, Note_on_c, 0, 55, 0
2, 295569, Note_on_c, 0, 64, 0
2, 295578, Note_on_c, 0, 56, 59
2, 295582, Note_on_c, 0, 65, 51
2, 295629, Note_on_c, 0, 65, 0
2, 295663, Note_on_c, 0, 56, 0
2, 295670, Note_on_c, 0, 55, 62
2, 295712, Note_on_c, 0, 55, 0
2, 295727, Control_c, 0, 64, 69
2, 295736, Note_on_c, 0, 56, 71
2, 295782, Note_on_c, 0, 64, 62
2, 295802, Note_on_c, 0, 55, 70
2, 295809, Note_on_c, 0, 60, 0
2, 295813, Note_on_c, 0, 60, 18
2, 295843, Note_on_c, 0, 56, 0
2, 295863, Control_c, 0, 64, 68
2, 295940, Control_c, 0, 64, 67
2, 295990, Note_on_c, 0, 62, 83
2, 296003, Note_on_c, 0, 53, 72
2, 296013, Control_c, 0, 64, 66
2, 296030, Note_on_c, 0, 55, 0
2, 296030, Note_on_c, 0, 64, 0
2, 296035, Control_c, 0, 64, 63
2, 296051, Control_c, 0, 64, 56
2, 296069, Control_c, 0, 64, 46
2, 296089, Control_c, 0, 64, 29
2, 296110, Control_c, 0, 64, 10
2, 296128, Control_c, 0, 64, 0
2, 296206, Control_c, 0, 64, 16
2, 296225, Control_c, 0, 64, 29
2, 296245, Control_c, 0, 64, 39
2, 296265, Control_c, 0, 64, 47
2, 296284, Note_on_c, 0, 55, 76
2, 296288, Control_c, 0, 64, 54
2, 296288, Note_on_c, 0, 64, 87
2, 296300, Control_c, 0, 64, 59
2, 296306, Note_on_c, 0, 53, 0
2, 296321, Control_c, 0, 64, 61
2, 296329, Note_on_c, 0, 60, 0
2, 296343, Control_c, 0, 64, 62
2, 296343, Note_on_c, 0, 62, 0
2, 296359, Note_on_c, 0, 48, 0
2, 296363, Control_c, 0, 64, 64
2, 296380, Control_c, 0, 64, 65
2, 296398, Control_c, 0, 64, 68
2, 296417, Control_c, 0, 64, 72
2, 296438, Control_c, 0, 64, 78
2, 296454, Control_c, 0, 64, 87
2, 296474, Control_c, 0, 64, 101
2, 296496, Control_c, 0, 64, 127
2, 296857, Note_on_c, 0, 41, 70
2, 296857, Note_on_c, 0, 65, 80
2, 296861, Note_on_c, 0, 60, 69
2, 296868, Note_on_c, 0, 57, 68
2, 296989, Note_on_c, 0, 55, 0
2, 296989, Note_on_c, 0, 64, 0
2, 297043, Control_c, 0, 64, 106
2, 297061, Control_c, 0, 64, 96
2, 297081, Control_c, 0, 64, 88
2, 297102, Control_c, 0, 64, 81
2, 297119, Control_c, 0, 64, 75
2, 297140, Control_c, 0, 64, 70
2, 297157, Control_c, 0, 64, 65
2, 297175, Control_c, 0, 64, 61
2, 297196, Control_c, 0, 64, 58
2, 297215, Control_c, 0, 64, 55
2, 297234, Control_c, 0, 64, 51
2, 297252, Control_c, 0, 64, 45
2, 297273, Control_c, 0, 64, 38
2, 297290, Control_c, 0, 64, 33
2, 297309, Control_c, 0, 64, 28
2, 297332, Control_c, 0, 64, 26
2, 297349, Control_c, 0, 64, 25
2, 297544, Control_c, 0, 64, 26
2, 297659, Control_c, 0, 64, 27
2, 297713, Control_c, 0, 64, 28
2, 297734, Control_c, 0, 64, 29
2, 297752, Control_c, 0, 64, 30
2, 297771, Control_c, 0, 64, 31
2, 297792, Control_c, 0, 64, 32
2, 297829, Control_c, 0, 64, 33
2, 297888, Control_c, 0, 64, 34
2, 298195, Control_c, 0, 64, 35
2, 298273, Control_c, 0, 64, 36
2, 298310, Control_c, 0, 64, 37
2, 298347, Control_c, 0, 64, 38
2, 298386, Control_c, 0, 64, 39
2, 298462, Control_c, 0, 64, 40
2, 298481, Control_c, 0, 64, 41
2, 298538, Control_c, 0, 64, 42
2, 298558, Control_c, 0, 64, 43
2, 298597, Control_c, 0, 64, 44
2, 298615, Control_c, 0, 64, 45
2, 298635, Control_c, 0, 64, 46
2, 298654, Control_c, 0, 64, 48
2, 298673, Control_c, 0, 64, 49
2, 298694, Control_c, 0, 64, 50
2, 298713, Control_c, 0, 64, 51
2, 298750, Control_c, 0, 64, 52
2, 298770, Control_c, 0, 64, 53
2, 298792, Control_c, 0, 64, 54
2, 298808, Control_c, 0, 64, 55
2, 298848, Control_c, 0, 64, 56
2, 298887, Control_c, 0, 64, 57
2, 298937, Control_c, 0, 64, 58
2, 298955, Control_c, 0, 64, 59
2, 298994, Control_c, 0, 64, 60
2, 299031, Control_c, 0, 64, 61
2, 299071, Control_c, 0, 64, 62
2, 299089, Control_c, 0, 64, 63
2, 299129, Control_c, 0, 64, 64
2, 299170, Control_c, 0, 64, 65
2, 299185, Control_c, 0, 64, 66
2, 299206, Control_c, 0, 64, 67
2, 299243, Control_c, 0, 64, 69
2, 299265, Control_c, 0, 64, 70
2, 299303, Control_c, 0, 64, 71
2, 299321, Control_c, 0, 64, 73
2, 299341, Control_c, 0, 64, 74
2, 299358, Control_c, 0, 64, 76
2, 299379, Control_c, 0, 64, 78
2, 299397, Control_c, 0, 64, 80
2, 299416, Control_c, 0, 64, 81
2, 299436, Control_c, 0, 64, 83
2, 299457, Control_c, 0, 64, 85
2, 299475, Control_c, 0, 64, 86
2, 299492, Control_c, 0, 64, 88
2, 299513, Control_c, 0, 64, 91
2, 299535, Control_c, 0, 64, 93
2, 299551, Control_c, 0, 64, 96
2, 299572, Control_c, 0, 64, 99
2, 299591, Control_c, 0, 64, 102
2, 299609, Control_c, 0, 64, 106
2, 299629, Control_c, 0, 64, 112
2, 299648, Control_c, 0, 64, 127
2, 300120, Note_on_c, 0, 65, 0
2, 300136, Note_on_c, 0, 41, 0
2, 300186, Control_c, 0, 64, 122
2, 300186, Note_on_c, 0, 57, 0
2, 300205, Control_c, 0, 64, 102
2, 300205, Note_on_c, 0, 60, 0
2, 300223, Control_c, 0, 64, 87
2, 300246, Control_c, 0, 64, 72
2, 300261, Control_c, 0, 64, 63
2, 300280, Control_c, 0, 64, 56
2, 300299, Control_c, 0, 64, 51
2, 300321, Control_c, 0, 64, 46
2, 300336, Control_c, 0, 64, 42
2, 300358, Control_c, 0, 64, 40
2, 300376, Control_c, 0, 64, 38
2, 300396, Control_c, 0, 64, 37
2, 300417, Control_c, 0, 64, 36
2, 300684, Control_c, 0, 64, 35
2, 300742, Control_c, 0, 64, 34
2, 300896, Control_c, 0, 64, 33
2, 301029, Control_c, 0, 64, 32
2, 301030, End_track
0, 0, End_of_file
