0, 0, Header, 1, 2, 480
1, 0, Start_track
1, 0, Tempo, 500000
1, 0, Time_signature, 4, 2, 24, 8
1, 3, Time_signature, 4, 2, 24, 8
1, 4, End_track
2,0,Start_track
2,0, Control_c, 0, 64, 45
2,96, Control_c, 0, 64, 46
2,750, Note_on_c, 0, 61, 52
2,893, Note_on_c, 0, 60, 0
2,1517, Control_c, 0, 64, 45
2,1578, Note_on_c, 0, 60, 53
2,1754, Note_on_c, 0, 61, 0
2,1865, Control_c, 0, 64, 44
2,2268, Control_c, 0, 64, 43
2,2362, Control_c, 0, 64, 42
2,2429, Note_on_c, 0, 59, 62
2,2478, Control_c, 0, 64, 41
2,2556, Control_c, 0, 64, 40
2,2615, Note_on_c, 0, 60, 0
2,3259, Note_on_c, 0, 64, 71
2,3265, Control_c, 0, 64, 39
2,3323, Control_c, 0, 64, 38
2,3481, Note_on_c, 0, 59, 0
2,4107, Note_on_c, 0, 65, 53
2,4275, Note_on_c, 0, 64, 0
2,4456, Control_c, 0, 64, 39
2,4916, Control_c, 0, 64, 40
2,4941, Note_on_c, 0, 58, 54
2,5052, Control_c, 0, 64, 41
2,5115, Note_on_c, 0, 65, 0
2,5165, Control_c, 0, 64, 42
2,5360, Control_c, 0, 64, 43
2,5512, Control_c, 0, 64, 44
2,5800, Note_on_c, 0, 57, 57
2,6020, Note_on_c, 0, 58, 0
2,6049, Control_c, 0, 64, 43
2,6649, Note_on_c, 0, 56, 51
2,6682, Control_c, 0, 64, 42
2,6720, Control_c, 0, 64, 41
2,6740, Control_c, 0, 64, 40
2,6758, Control_c, 0, 64, 39
2,6780, Note_on_c, 0, 57, 0
2,6858, Control_c, 0, 64, 40
2,6876, Control_c, 0, 64, 43
2,6893, Control_c, 0, 64, 48
2,6914, Control_c, 0, 64, 54
2,6932, Control_c, 0, 64, 58
2,6953, Control_c, 0, 64, 61
2,6969, Control_c, 0, 64, 63
2,6990, Control_c, 0, 64, 66
2,7011, Control_c, 0, 64, 70
2,7029, Control_c, 0, 64, 74
2,7047, Control_c, 0, 64, 78
2,7066, Control_c, 0, 64, 83
2,7086, Control_c, 0, 64, 90
2,7106, Control_c, 0, 64, 99
2,7122, Control_c, 0, 64, 113
2,7142, Control_c, 0, 64, 127
2,7191, Note_on_c, 0, 56, 0
2,7555, Note_on_c, 0, 56, 47
2,7584, Control_c, 0, 64, 95
2,7605, Control_c, 0, 64, 76
2,7625, Control_c, 0, 64, 66
2,7644, Control_c, 0, 64, 61
2,7663, Control_c, 0, 64, 60
2,7682, Control_c, 0, 64, 62
2,7701, Control_c, 0, 64, 65
2,7719, Control_c, 0, 64, 69
2,7725, Note_on_c, 0, 56, 0
2,7739, Control_c, 0, 64, 76
2,7754, Control_c, 0, 64, 85
2,7769, Note_on_c, 0, 55, 42
2,7776, Control_c, 0, 64, 98
2,7793, Control_c, 0, 64, 116
2,7813, Control_c, 0, 64, 127
2,7831, Note_on_c, 0, 55, 0
2,7904, Note_on_c, 0, 56, 41
2,7965, Note_on_c, 0, 55, 51
2,8009, Note_on_c, 0, 56, 0
2,8009, Note_on_c, 0, 56, 39
2,8044, Control_c, 0, 64, 115
2,8064, Control_c, 0, 64, 109
2,8081, Control_c, 0, 64, 103
2,8104, Control_c, 0, 64, 98
2,8104, Note_on_c, 0, 55, 0
2,8118, Note_on_c, 0, 56, 0
2,8118, Note_on_c, 0, 56, 52
2,8122, Control_c, 0, 64, 94
2,8138, Control_c, 0, 64, 91
2,8157, Control_c, 0, 64, 85
2,8178, Control_c, 0, 64, 79
2,8198, Control_c, 0, 64, 72
2,8203, Note_on_c, 0, 56, 0
2,8216, Control_c, 0, 64, 67
2,8223, Note_on_c, 0, 55, 45
2,8234, Control_c, 0, 64, 64
2,8254, Control_c, 0, 64, 61
2,8272, Control_c, 0, 64, 60
2,8292, Control_c, 0, 64, 57
2,8312, Control_c, 0, 64, 54
2,8330, Control_c, 0, 64, 49
2,8350, Control_c, 0, 64, 42
2,8368, Control_c, 0, 64, 32
2,8390, Control_c, 0, 64, 0
2,9125, Note_on_c, 0, 55, 0
2,9134, Note_on_c, 0, 53, 29
2,9175, Control_c, 0, 64, 20
2,9194, Control_c, 0, 64, 35
2,9215, Control_c, 0, 64, 48
2,9232, Control_c, 0, 64, 56
2,9254, Control_c, 0, 64, 60
2,9274, Control_c, 0, 64, 62
2,9291, Control_c, 0, 64, 63
2,9308, Control_c, 0, 64, 65
2,9328, Control_c, 0, 64, 67
2,9348, Control_c, 0, 64, 71
2,9359, Note_on_c, 0, 53, 0
2,9369, Control_c, 0, 64, 76
2,9387, Control_c, 0, 64, 83
2,9408, Control_c, 0, 64, 91
2,9424, Control_c, 0, 64, 99
2,9445, Control_c, 0, 64, 105
2,9465, Control_c, 0, 64, 106
2,9523, Control_c, 0, 64, 104
2,9536, Note_on_c, 0, 53, 43
2,9540, Control_c, 0, 64, 100
2,9562, Control_c, 0, 64, 97
2,9579, Control_c, 0, 64, 94
2,9600, Control_c, 0, 64, 91
2,9616, Control_c, 0, 64, 86
2,9637, Control_c, 0, 64, 81
2,9655, Control_c, 0, 64, 77
2,9674, Control_c, 0, 64, 73
2,9694, Control_c, 0, 64, 70
2,9703, Note_on_c, 0, 53, 0
2,9718, Control_c, 0, 64, 67
2,9718, Note_on_c, 0, 55, 46
2,9733, Control_c, 0, 64, 65
2,9751, Control_c, 0, 64, 64
2,9770, Control_c, 0, 64, 63
2,9791, Control_c, 0, 64, 62
2,9809, Control_c, 0, 64, 61
2,9827, Control_c, 0, 64, 60
2,9848, Control_c, 0, 64, 59
2,9869, Control_c, 0, 64, 58
2,9906, Control_c, 0, 64, 57
2,9911, Note_on_c, 0, 55, 0
2,9920, Note_on_c, 0, 65, 58
2,9927, Control_c, 0, 64, 56
2,9950, Note_on_c, 0, 56, 39
2,9963, Control_c, 0, 64, 54
2,9983, Control_c, 0, 64, 52
2,10001, Control_c, 0, 64, 49
2,10020, Control_c, 0, 64, 45
2,10041, Control_c, 0, 64, 39
2,10059, Control_c, 0, 64, 33
2,10079, Control_c, 0, 64, 24
2,10097, Control_c, 0, 64, 11
2,10118, Control_c, 0, 64, 0
2,10118, Note_on_c, 0, 56, 0
2,10372, Note_on_c, 0, 56, 44
2,10514, Note_on_c, 0, 56, 0
2,10525, Note_on_c, 0, 58, 50
2,10718, Note_on_c, 0, 58, 0
2,10732, Note_on_c, 0, 68, 67
2,10764, Note_on_c, 0, 60, 50
2,10850, Note_on_c, 0, 65, 0
2,10943, Note_on_c, 0, 47, 31
2,10996, Note_on_c, 0, 60, 0
2,11104, Note_on_c, 0, 48, 29
2,11159, Note_on_c, 0, 47, 0
2,11297, Note_on_c, 0, 50, 51
2,11347, Note_on_c, 0, 48, 0
2,11533, Note_on_c, 0, 67, 59
2,11543, Note_on_c, 0, 51, 47
2,11586, Note_on_c, 0, 50, 0
2,11645, Note_on_c, 0, 68, 0
2,11826, Control_c, 0, 64, 13
2,11843, Control_c, 0, 64, 23
2,11863, Control_c, 0, 64, 30
2,11883, Control_c, 0, 64, 37
2,11901, Control_c, 0, 64, 43
2,11919, Control_c, 0, 64, 49
2,11941, Control_c, 0, 64, 54
2,11958, Control_c, 0, 64, 57
2,11979, Control_c, 0, 64, 59
2,11999, Control_c, 0, 64, 60
2,12016, Control_c, 0, 64, 61
2,12038, Control_c, 0, 64, 62
2,12057, Control_c, 0, 64, 63
2,12075, Control_c, 0, 64, 64
2,12113, Control_c, 0, 64, 65
2,12131, Control_c, 0, 64, 66
2,12304, Control_c, 0, 64, 65
2,12324, Note_on_c, 0, 51, 0
2,12347, Control_c, 0, 64, 64
2,12379, Note_on_c, 0, 66, 63
2,12403, Control_c, 0, 64, 63
2,12440, Control_c, 0, 64, 62
2,12460, Control_c, 0, 64, 61
2,12480, Control_c, 0, 64, 60
2,12498, Note_on_c, 0, 67, 0
2,12517, Control_c, 0, 64, 59
2,12536, Control_c, 0, 64, 58
2,12575, Control_c, 0, 64, 57
2,12581, Note_on_c, 0, 48, 46
2,12592, Control_c, 0, 64, 55
2,12615, Control_c, 0, 64, 54
2,12634, Control_c, 0, 64, 53
2,12652, Control_c, 0, 64, 52
2,12669, Control_c, 0, 64, 51
2,12690, Control_c, 0, 64, 50
2,12708, Control_c, 0, 64, 49
2,12729, Control_c, 0, 64, 47
2,12747, Control_c, 0, 64, 45
2,12764, Note_on_c, 0, 50, 63
2,12768, Control_c, 0, 64, 43
2,12784, Control_c, 0, 64, 41
2,12795, Note_on_c, 0, 48, 0
2,12805, Control_c, 0, 64, 39
2,12824, Control_c, 0, 64, 37
2,12843, Control_c, 0, 64, 35
2,12862, Control_c, 0, 64, 33
2,12881, Control_c, 0, 64, 32
2,12902, Control_c, 0, 64, 31
2,12919, Control_c, 0, 64, 30
2,12939, Note_on_c, 0, 51, 71
2,12980, Note_on_c, 0, 50, 0
2,13035, Control_c, 0, 64, 29
2,13110, Control_c, 0, 64, 28
2,13148, Control_c, 0, 64, 27
2,13154, Note_on_c, 0, 71, 77
2,13190, Control_c, 0, 64, 26
2,13190, Note_on_c, 0, 53, 50
2,13211, Control_c, 0, 64, 25
2,13227, Control_c, 0, 64, 24
2,13233, Note_on_c, 0, 51, 0
2,13247, Control_c, 0, 64, 23
2,13260, Note_on_c, 0, 66, 0
2,13264, Control_c, 0, 64, 21
2,13284, Control_c, 0, 64, 18
2,13303, Control_c, 0, 64, 11
2,13323, Control_c, 0, 64, 0
2,13420, Control_c, 0, 64, 14
2,13436, Control_c, 0, 64, 28
2,13456, Control_c, 0, 64, 41
2,13476, Control_c, 0, 64, 53
2,13496, Control_c, 0, 64, 59
2,13515, Control_c, 0, 64, 62
2,13534, Control_c, 0, 64, 63
2,13552, Control_c, 0, 64, 64
2,13573, Control_c, 0, 64, 66
2,13590, Control_c, 0, 64, 68
2,13610, Control_c, 0, 64, 70
2,13632, Control_c, 0, 64, 73
2,13650, Control_c, 0, 64, 76
2,13667, Control_c, 0, 64, 78
2,13687, Control_c, 0, 64, 80
2,13707, Control_c, 0, 64, 81
2,13725, Control_c, 0, 64, 82
2,13747, Control_c, 0, 64, 83
2,13795, Note_on_c, 0, 53, 0
2,13843, Control_c, 0, 64, 82
2,13881, Control_c, 0, 64, 81
2,13898, Control_c, 0, 64, 80
2,13919, Control_c, 0, 64, 79
2,13937, Control_c, 0, 64, 78
2,13956, Control_c, 0, 64, 76
2,13977, Control_c, 0, 64, 73
2,13977, Note_on_c, 0, 72, 73
2,13995, Control_c, 0, 64, 71
2,14016, Control_c, 0, 64, 69
2,14033, Control_c, 0, 64, 66
2,14052, Control_c, 0, 64, 64
2,14072, Control_c, 0, 64, 62
2,14091, Control_c, 0, 64, 61
2,14119, Note_on_c, 0, 71, 0
2,14128, Control_c, 0, 64, 60
2,14147, Control_c, 0, 64, 59
2,14164, Control_c, 0, 64, 58
2,14173, Note_on_c, 0, 51, 58
2,14185, Control_c, 0, 64, 56
2,14205, Control_c, 0, 64, 55
2,14223, Control_c, 0, 64, 53
2,14242, Control_c, 0, 64, 52
2,14262, Control_c, 0, 64, 50
2,14282, Control_c, 0, 64, 48
2,14300, Control_c, 0, 64, 47
2,14318, Control_c, 0, 64, 45
2,14342, Control_c, 0, 64, 43
2,14342, Note_on_c, 0, 53, 68
2,14358, Control_c, 0, 64, 41
2,14377, Control_c, 0, 64, 40
2,14396, Control_c, 0, 64, 39
2,14396, Note_on_c, 0, 51, 0
2,14434, Control_c, 0, 64, 37
2,14454, Control_c, 0, 64, 36
2,14472, Control_c, 0, 64, 34
2,14492, Control_c, 0, 64, 33
2,14513, Control_c, 0, 64, 32
2,14532, Control_c, 0, 64, 31
2,14532, Note_on_c, 0, 55, 72
2,14552, Control_c, 0, 64, 30
2,14567, Control_c, 0, 64, 28
2,14577, Note_on_c, 0, 53, 0
2,14586, Control_c, 0, 64, 25
2,14608, Control_c, 0, 64, 24
2,14626, Control_c, 0, 64, 22
2,14645, Control_c, 0, 64, 20
2,14664, Control_c, 0, 64, 18
2,14683, Control_c, 0, 64, 15
2,14703, Control_c, 0, 64, 11
2,14722, Control_c, 0, 64, 0
2,14755, Note_on_c, 0, 65, 69
2,14777, Note_on_c, 0, 56, 56
2,14836, Note_on_c, 0, 55, 0
2,14953, Note_on_c, 0, 72, 0
2,15049, Control_c, 0, 64, 27
2,15068, Control_c, 0, 64, 42
2,15088, Control_c, 0, 64, 52
2,15106, Control_c, 0, 64, 58
2,15124, Control_c, 0, 64, 60
2,15144, Control_c, 0, 64, 61
2,15165, Control_c, 0, 64, 62
2,15184, Control_c, 0, 64, 63
2,15202, Control_c, 0, 64, 65
2,15220, Control_c, 0, 64, 68
2,15242, Control_c, 0, 64, 72
2,15246, Note_on_c, 0, 56, 0
2,15259, Control_c, 0, 64, 76
2,15281, Control_c, 0, 64, 79
2,15298, Control_c, 0, 64, 83
2,15317, Control_c, 0, 64, 88
2,15338, Control_c, 0, 64, 92
2,15356, Control_c, 0, 64, 97
2,15376, Control_c, 0, 64, 102
2,15395, Control_c, 0, 64, 104
2,15433, Control_c, 0, 64, 103
2,15454, Control_c, 0, 64, 101
2,15472, Control_c, 0, 64, 100
2,15492, Control_c, 0, 64, 99
2,15509, Control_c, 0, 64, 98
2,15529, Control_c, 0, 64, 96
2,15546, Control_c, 0, 64, 92
2,15566, Control_c, 0, 64, 87
2,15589, Control_c, 0, 64, 84
2,15589, Note_on_c, 0, 64, 68
2,15607, Control_c, 0, 64, 82
2,15628, Control_c, 0, 64, 81
2,15642, Control_c, 0, 64, 79
2,15662, Control_c, 0, 64, 77
2,15683, Control_c, 0, 64, 73
2,15704, Control_c, 0, 64, 70
2,15720, Control_c, 0, 64, 68
2,15740, Control_c, 0, 64, 67
2,15761, Control_c, 0, 64, 66
2,15774, Note_on_c, 0, 55, 55
2,15779, Control_c, 0, 64, 65
2,15787, Note_on_c, 0, 65, 0
2,15819, Control_c, 0, 64, 64
2,15835, Control_c, 0, 64, 63
2,15854, Control_c, 0, 64, 62
2,15873, Control_c, 0, 64, 61
2,15893, Control_c, 0, 64, 60
2,15951, Control_c, 0, 64, 58
2,15964, Note_on_c, 0, 57, 72
2,15971, Control_c, 0, 64, 57
2,15989, Control_c, 0, 64, 56
2,16009, Control_c, 0, 64, 54
2,16024, Note_on_c, 0, 55, 0
2,16028, Control_c, 0, 64, 52
2,16047, Control_c, 0, 64, 50
2,16066, Control_c, 0, 64, 48
2,16084, Control_c, 0, 64, 46
2,16105, Control_c, 0, 64, 45
2,16127, Control_c, 0, 64, 43
2,16138, Note_on_c, 0, 59, 74
2,16142, Control_c, 0, 64, 42
2,16161, Control_c, 0, 64, 39
2,16181, Control_c, 0, 64, 38
2,16201, Control_c, 0, 64, 37
2,16203, Note_on_c, 0, 57, 0
2,16220, Control_c, 0, 64, 36
2,16239, Control_c, 0, 64, 35
2,16277, Control_c, 0, 64, 34
2,16296, Control_c, 0, 64, 33
2,16316, Control_c, 0, 64, 32
2,16353, Control_c, 0, 64, 31
2,16395, Note_on_c, 0, 60, 53
2,16400, Note_on_c, 0, 63, 66
2,16414, Control_c, 0, 64, 30
2,16451, Control_c, 0, 64, 28
2,16469, Control_c, 0, 64, 26
2,16482, Note_on_c, 0, 64, 0
2,16490, Control_c, 0, 64, 22
2,16490, Note_on_c, 0, 59, 0
2,16508, Control_c, 0, 64, 10
2,16526, Control_c, 0, 64, 0
2,16661, Control_c, 0, 64, 18
2,16680, Control_c, 0, 64, 30
2,16699, Control_c, 0, 64, 41
2,16719, Control_c, 0, 64, 48
2,16737, Control_c, 0, 64, 54
2,16756, Control_c, 0, 64, 58
2,16776, Control_c, 0, 64, 60
2,16797, Control_c, 0, 64, 61
2,16814, Control_c, 0, 64, 63
2,16834, Control_c, 0, 64, 65
2,16853, Control_c, 0, 64, 67
2,16871, Control_c, 0, 64, 69
2,16891, Control_c, 0, 64, 72
2,16914, Control_c, 0, 64, 76
2,16932, Control_c, 0, 64, 81
2,16951, Control_c, 0, 64, 87
2,16956, Note_on_c, 0, 63, 0
2,16968, Control_c, 0, 64, 92
2,16991, Control_c, 0, 64, 97
2,17007, Control_c, 0, 64, 100
2,17025, Control_c, 0, 64, 102
2,17102, Control_c, 0, 64, 100
2,17121, Control_c, 0, 64, 98
2,17142, Control_c, 0, 64, 96
2,17162, Control_c, 0, 64, 95
2,17180, Control_c, 0, 64, 93
2,17200, Control_c, 0, 64, 90
2,17218, Control_c, 0, 64, 88
2,17231, Note_on_c, 0, 63, 43
2,17238, Control_c, 0, 64, 86
2,17257, Control_c, 0, 64, 84
2,17275, Control_c, 0, 64, 82
2,17296, Control_c, 0, 64, 81
2,17303, Note_on_c, 0, 63, 0
2,17314, Control_c, 0, 64, 79
2,17348, Note_on_c, 0, 62, 57
2,17355, Control_c, 0, 64, 78
2,17393, Control_c, 0, 64, 77
2,17400, Note_on_c, 0, 62, 0
2,17410, Control_c, 0, 64, 76
2,17429, Control_c, 0, 64, 75
2,17448, Note_on_c, 0, 63, 56
2,17488, Note_on_c, 0, 63, 0
2,17515, Note_on_c, 0, 62, 55
2,17524, Control_c, 0, 64, 74
2,17529, Note_on_c, 0, 59, 51
2,17540, Note_on_c, 0, 62, 0
2,17545, Control_c, 0, 64, 73
2,17564, Control_c, 0, 64, 71
2,17584, Note_on_c, 0, 60, 0
2,17586, Control_c, 0, 64, 69
2,17601, Control_c, 0, 64, 66
2,17605, Note_on_c, 0, 63, 4
2,17610, Note_on_c, 0, 62, 54
2,17622, Control_c, 0, 64, 65
2,17640, Control_c, 0, 64, 64
2,17661, Note_on_c, 0, 62, 0
2,17679, Control_c, 0, 64, 63
2,17699, Control_c, 0, 64, 62
2,17717, Note_on_c, 0, 59, 0
2,17721, Control_c, 0, 64, 60
2,17735, Control_c, 0, 64, 59
2,17742, Note_on_c, 0, 57, 40
2,17760, Note_on_c, 0, 63, 0
2,17773, Note_on_c, 0, 62, 57
2,17776, Control_c, 0, 64, 58
2,17796, Control_c, 0, 64, 57
2,17815, Control_c, 0, 64, 56
2,17833, Control_c, 0, 64, 55
2,17852, Control_c, 0, 64, 53
2,17872, Control_c, 0, 64, 52
2,17891, Control_c, 0, 64, 50
2,17909, Control_c, 0, 64, 49
2,17927, Control_c, 0, 64, 47
2,17936, Note_on_c, 0, 57, 0
2,17947, Control_c, 0, 64, 46
2,17956, Note_on_c, 0, 60, 49
2,17966, Control_c, 0, 64, 44
2,17986, Control_c, 0, 64, 42
2,18007, Control_c, 0, 64, 41
2,18024, Control_c, 0, 64, 40
2,18054, Note_on_c, 0, 60, 0
2,18067, Note_on_c, 0, 59, 55
2,18085, Control_c, 0, 64, 39
2,18114, Note_on_c, 0, 59, 0
2,18121, Control_c, 0, 64, 38
2,18141, Control_c, 0, 64, 37
2,18145, Note_on_c, 0, 60, 51
2,18180, Control_c, 0, 64, 36
2,18193, Note_on_c, 0, 60, 0
2,18215, Note_on_c, 0, 59, 61
2,18219, Control_c, 0, 64, 35
2,18236, Control_c, 0, 64, 34
2,18252, Note_on_c, 0, 59, 0
2,18256, Control_c, 0, 64, 33
2,18276, Control_c, 0, 64, 31
2,18290, Note_on_c, 0, 60, 65
2,18295, Control_c, 0, 64, 30
2,18310, Control_c, 0, 64, 29
2,18331, Control_c, 0, 64, 27
2,18338, Note_on_c, 0, 60, 0
2,18342, Note_on_c, 0, 59, 59
2,18351, Control_c, 0, 64, 25
2,18369, Control_c, 0, 64, 24
2,18390, Control_c, 0, 64, 22
2,18404, Note_on_c, 0, 59, 0
2,18408, Control_c, 0, 64, 20
2,18427, Control_c, 0, 64, 18
2,18435, Note_on_c, 0, 57, 56
2,18447, Control_c, 0, 64, 16
2,18464, Control_c, 0, 64, 10
2,18485, Control_c, 0, 64, 0
2,18489, Note_on_c, 0, 57, 0
2,18547, Note_on_c, 0, 59, 50
2,18629, Note_on_c, 0, 62, 0
2,18635, Note_on_c, 0, 60, 53
2,18659, Note_on_c, 0, 59, 0
2,18735, Control_c, 0, 64, 35
2,18756, Control_c, 0, 64, 51
2,18773, Control_c, 0, 64, 60
2,18793, Control_c, 0, 64, 63
2,18811, Control_c, 0, 64, 64
2,18830, Control_c, 0, 64, 65
2,18849, Control_c, 0, 64, 68
2,18869, Control_c, 0, 64, 73
2,18889, Control_c, 0, 64, 82
2,18909, Control_c, 0, 64, 93
2,18909, Note_on_c, 0, 60, 0
2,18928, Control_c, 0, 64, 103
2,18947, Control_c, 0, 64, 107
2,19036, Note_on_c, 0, 60, 50
2,19048, Note_on_c, 0, 55, 53
2,19080, Control_c, 0, 64, 106
2,19100, Control_c, 0, 64, 104
2,19118, Control_c, 0, 64, 102
2,19138, Control_c, 0, 64, 101
2,19158, Control_c, 0, 64, 99
2,19177, Control_c, 0, 64, 97
2,19196, Control_c, 0, 64, 96
2,19215, Control_c, 0, 64, 94
2,19229, Note_on_c, 0, 62, 67
2,19237, Control_c, 0, 64, 92
2,19237, Note_on_c, 0, 60, 0
2,19253, Control_c, 0, 64, 91
2,19270, Control_c, 0, 64, 89
2,19292, Control_c, 0, 64, 87
2,19310, Control_c, 0, 64, 86
2,19331, Control_c, 0, 64, 84
2,19347, Control_c, 0, 64, 82
2,19368, Control_c, 0, 64, 79
2,19388, Control_c, 0, 64, 76
2,19406, Control_c, 0, 64, 74
2,19426, Control_c, 0, 64, 73
2,19446, Control_c, 0, 64, 72
2,19468, Control_c, 0, 64, 70
2,19478, Note_on_c, 0, 62, 0
2,19482, Note_on_c, 0, 48, 67
2,19487, Control_c, 0, 64, 67
2,19496, Note_on_c, 0, 64, 57
2,19503, Control_c, 0, 64, 61
2,19520, Note_on_c, 0, 60, 47
2,19524, Control_c, 0, 64, 49
2,19541, Control_c, 0, 64, 30
2,19563, Control_c, 0, 64, 11
2,19579, Control_c, 0, 64, 0
2,19600, Control_c, 0, 64, 10
2,19600, Note_on_c, 0, 55, 0
2,19618, Control_c, 0, 64, 24
2,19637, Control_c, 0, 64, 39
2,19657, Control_c, 0, 64, 54
2,19678, Control_c, 0, 64, 62
2,19694, Control_c, 0, 64, 65
2,19715, Control_c, 0, 64, 67
2,19735, Control_c, 0, 64, 70
2,19752, Control_c, 0, 64, 74
2,19771, Control_c, 0, 64, 79
2,19791, Control_c, 0, 64, 85
2,19809, Control_c, 0, 64, 90
2,19828, Control_c, 0, 64, 92
2,19857, Note_on_c, 0, 64, 0
2,19877, Note_on_c, 0, 60, 0
2,19888, Note_on_c, 0, 62, 58
2,19892, Note_on_c, 0, 58, 58
2,19928, Note_on_c, 0, 58, 0
2,19945, Control_c, 0, 64, 91
2,19965, Control_c, 0, 64, 90
2,19982, Control_c, 0, 64, 89
2,20002, Control_c, 0, 64, 88
2,20021, Control_c, 0, 64, 87
2,20041, Control_c, 0, 64, 85
2,20058, Control_c, 0, 64, 84
2,20079, Note_on_c, 0, 64, 70
2,20084, Control_c, 0, 64, 82
2,20084, Note_on_c, 0, 62, 0
2,20100, Control_c, 0, 64, 80
2,20119, Control_c, 0, 64, 77
2,20135, Control_c, 0, 64, 73
2,20154, Control_c, 0, 64, 70
2,20174, Control_c, 0, 64, 67
2,20193, Control_c, 0, 64, 65
2,20211, Control_c, 0, 64, 64
2,20233, Control_c, 0, 64, 63
2,20270, Control_c, 0, 64, 62
2,20283, Note_on_c, 0, 64, 0
2,20295, Note_on_c, 0, 49, 65
2,20306, Note_on_c, 0, 65, 54
2,20311, Control_c, 0, 64, 61
2,20324, Note_on_c, 0, 56, 48
2,20328, Control_c, 0, 64, 60
2,20366, Control_c, 0, 64, 59
2,20389, Control_c, 0, 64, 58
2,20389, Note_on_c, 0, 48, 0
2,20405, Control_c, 0, 64, 57
2,20409, Note_on_c, 0, 65, 0
2,20427, Control_c, 0, 64, 55
2,20443, Control_c, 0, 64, 53
2,20463, Control_c, 0, 64, 50
2,20483, Control_c, 0, 64, 45
2,20488, Note_on_c, 0, 52, 64
2,20501, Control_c, 0, 64, 35
2,20521, Control_c, 0, 64, 14
2,20542, Control_c, 0, 64, 0
2,20666, Note_on_c, 0, 52, 0
2,20700, Note_on_c, 0, 53, 54
2,20700, Note_on_c, 0, 65, 61
2,20712, Control_c, 0, 64, 20
2,20732, Control_c, 0, 64, 38
2,20744, Note_on_c, 0, 56, 0
2,20751, Control_c, 0, 64, 49
2,20774, Control_c, 0, 64, 56
2,20788, Control_c, 0, 64, 60
2,20808, Control_c, 0, 64, 62
2,20822, Note_on_c, 0, 53, 0
2,20827, Control_c, 0, 64, 64
2,20846, Control_c, 0, 64, 66
2,20866, Control_c, 0, 64, 69
2,20877, Note_on_c, 0, 55, 68
2,20886, Control_c, 0, 64, 73
2,20905, Control_c, 0, 64, 79
2,20924, Control_c, 0, 64, 84
2,20942, Control_c, 0, 64, 85
2,20981, Control_c, 0, 64, 84
2,21000, Control_c, 0, 64, 83
2,21039, Control_c, 0, 64, 81
2,21057, Control_c, 0, 64, 79
2,21078, Control_c, 0, 64, 75
2,21087, Note_on_c, 0, 48, 68
2,21096, Control_c, 0, 64, 70
2,21098, Note_on_c, 0, 55, 0
2,21118, Control_c, 0, 64, 64
2,21118, Note_on_c, 0, 56, 64
2,21137, Control_c, 0, 64, 57
2,21142, Note_on_c, 0, 49, 0
2,21153, Control_c, 0, 64, 50
2,21174, Control_c, 0, 64, 43
2,21192, Control_c, 0, 64, 35
2,21213, Control_c, 0, 64, 25
2,21230, Control_c, 0, 64, 18
2,21250, Control_c, 0, 64, 16
2,21349, Control_c, 0, 64, 18
2,21364, Control_c, 0, 64, 20
2,21383, Control_c, 0, 64, 21
2,21404, Control_c, 0, 64, 22
2,21422, Control_c, 0, 64, 24
2,21442, Control_c, 0, 64, 26
2,21461, Control_c, 0, 64, 28
2,21479, Control_c, 0, 64, 30
2,21536, Note_on_c, 0, 63, 61
2,21577, Note_on_c, 0, 65, 0
2,21595, Control_c, 0, 64, 31
2,21634, Control_c, 0, 64, 32
2,21956, Note_on_c, 0, 47, 67
2,21975, Note_on_c, 0, 62, 54
2,22064, Note_on_c, 0, 63, 0
2,22069, Note_on_c, 0, 56, 0
2,22112, Note_on_c, 0, 48, 0
2,22151, Note_on_c, 0, 53, 63
2,22334, Note_on_c, 0, 53, 0
2,22345, Note_on_c, 0, 55, 66
2,22354, Note_on_c, 0, 63, 63
2,22499, Control_c, 0, 64, 31
2,22540, Note_on_c, 0, 56, 71
2,22540, Note_on_c, 0, 65, 65
2,22547, Note_on_c, 0, 55, 0
2,22556, Control_c, 0, 64, 30
2,22570, Note_on_c, 0, 63, 0
2,22632, Control_c, 0, 64, 29
2,22650, Control_c, 0, 64, 28
2,22690, Control_c, 0, 64, 27
2,22766, Control_c, 0, 64, 26
2,22782, Note_on_c, 0, 65, 0
2,22787, Control_c, 0, 64, 25
2,22794, Note_on_c, 0, 52, 72
2,22794, Note_on_c, 0, 58, 64
2,22800, Note_on_c, 0, 67, 59
2,22804, Control_c, 0, 64, 24
2,22827, Control_c, 0, 64, 22
2,22827, Note_on_c, 0, 56, 0
2,22842, Control_c, 0, 64, 18
2,22864, Control_c, 0, 64, 11
2,22883, Control_c, 0, 64, 0
2,22906, Note_on_c, 0, 47, 0
2,23008, Note_on_c, 0, 65, 68
2,23037, Control_c, 0, 64, 20
2,23057, Control_c, 0, 64, 33
2,23061, Note_on_c, 0, 62, 0
2,23061, Note_on_c, 0, 67, 0
2,23078, Control_c, 0, 64, 44
2,23095, Control_c, 0, 64, 53
2,23115, Control_c, 0, 64, 59
2,23132, Control_c, 0, 64, 61
2,23152, Control_c, 0, 64, 62
2,23171, Control_c, 0, 64, 63
2,23190, Control_c, 0, 64, 65
2,23197, Note_on_c, 0, 64, 73
2,23211, Control_c, 0, 64, 67
2,23228, Control_c, 0, 64, 69
2,23239, Note_on_c, 0, 65, 0
2,23251, Control_c, 0, 64, 73
2,23268, Control_c, 0, 64, 77
2,23289, Control_c, 0, 64, 81
2,23289, Note_on_c, 0, 58, 0
2,23309, Control_c, 0, 64, 86
2,23324, Control_c, 0, 64, 90
2,23335, Note_on_c, 0, 64, 0
2,23344, Control_c, 0, 64, 92
2,23364, Control_c, 0, 64, 94
2,23372, Note_on_c, 0, 62, 75
2,23440, Control_c, 0, 64, 92
2,23459, Control_c, 0, 64, 90
2,23478, Control_c, 0, 64, 88
2,23483, Note_on_c, 0, 62, 0
2,23498, Control_c, 0, 64, 86
2,23517, Control_c, 0, 64, 83
2,23537, Control_c, 0, 64, 80
2,23557, Control_c, 0, 64, 76
2,23574, Control_c, 0, 64, 73
2,23596, Control_c, 0, 64, 69
2,23596, Note_on_c, 0, 53, 73
2,23616, Control_c, 0, 64, 66
2,23616, Note_on_c, 0, 60, 59
2,23633, Control_c, 0, 64, 64
2,23650, Control_c, 0, 64, 63
2,23670, Control_c, 0, 64, 62
2,23703, Note_on_c, 0, 52, 0
2,23707, Control_c, 0, 64, 61
2,23730, Control_c, 0, 64, 60
2,23748, Control_c, 0, 64, 58
2,23767, Control_c, 0, 64, 54
2,23787, Control_c, 0, 64, 46
2,23803, Note_on_c, 0, 56, 63
2,23807, Control_c, 0, 64, 30
2,23825, Control_c, 0, 64, 13
2,23844, Control_c, 0, 64, 0
2,23902, Control_c, 0, 64, 13
2,23921, Control_c, 0, 64, 25
2,23940, Control_c, 0, 64, 38
2,23959, Control_c, 0, 64, 49
2,23979, Control_c, 0, 64, 58
2,24000, Control_c, 0, 64, 62
2,24000, Note_on_c, 0, 58, 72
2,24016, Control_c, 0, 64, 64
2,24037, Control_c, 0, 64, 66
2,24042, Note_on_c, 0, 60, 0
2,24054, Control_c, 0, 64, 68
2,24074, Control_c, 0, 64, 71
2,24093, Control_c, 0, 64, 74
2,24111, Control_c, 0, 64, 78
2,24131, Control_c, 0, 64, 82
2,24176, Note_on_c, 0, 60, 77
2,24206, Note_on_c, 0, 58, 0
2,24210, Control_c, 0, 64, 81
2,24227, Control_c, 0, 64, 80
2,24248, Control_c, 0, 64, 78
2,24267, Control_c, 0, 64, 77
2,24287, Control_c, 0, 64, 75
2,24304, Control_c, 0, 64, 73
2,24327, Control_c, 0, 64, 71
2,24343, Control_c, 0, 64, 70
2,24364, Control_c, 0, 64, 68
2,24382, Control_c, 0, 64, 66
2,24403, Control_c, 0, 64, 65
2,24416, Note_on_c, 0, 46, 73
2,24421, Control_c, 0, 64, 64
2,24432, Note_on_c, 0, 56, 0
2,24432, Note_on_c, 0, 60, 0
2,24432, Note_on_c, 0, 61, 61
2,24439, Control_c, 0, 64, 63
2,24496, Control_c, 0, 64, 62
2,24533, Control_c, 0, 64, 61
2,24555, Control_c, 0, 64, 60
2,24572, Control_c, 0, 64, 59
2,24618, Note_on_c, 0, 53, 0
2,24622, Note_on_c, 0, 58, 64
2,24635, Control_c, 0, 64, 58
2,24651, Control_c, 0, 64, 57
2,24669, Control_c, 0, 64, 56
2,24689, Control_c, 0, 64, 54
2,24709, Control_c, 0, 64, 52
2,24728, Control_c, 0, 64, 50
2,24746, Control_c, 0, 64, 48
2,24766, Control_c, 0, 64, 44
2,24785, Control_c, 0, 64, 42
2,24803, Control_c, 0, 64, 40
2,24824, Control_c, 0, 64, 39
2,24833, Note_on_c, 0, 56, 67
2,24913, Note_on_c, 0, 58, 0
2,25010, Note_on_c, 0, 55, 65
2,25119, Note_on_c, 0, 61, 0
2,25137, Note_on_c, 0, 56, 0
2,25225, Note_on_c, 0, 45, 67
2,25247, Note_on_c, 0, 53, 58
2,25267, Control_c, 0, 64, 40
2,25300, Note_on_c, 0, 46, 0
2,25416, Note_on_c, 0, 55, 0
2,25424, Note_on_c, 0, 60, 71
2,25458, Control_c, 0, 64, 41
2,25613, Note_on_c, 0, 62, 77
2,25695, Note_on_c, 0, 60, 0
2,25803, Note_on_c, 0, 64, 82
2,25850, Note_on_c, 0, 62, 0
2,26028, Note_on_c, 0, 44, 79
2,26041, Note_on_c, 0, 65, 66
2,26050, Note_on_c, 0, 53, 0
2,26082, Note_on_c, 0, 45, 0
2,26092, Control_c, 0, 64, 40
2,26104, Note_on_c, 0, 64, 0
2,26148, Control_c, 0, 64, 39
2,26184, Control_c, 0, 64, 38
2,26206, Control_c, 0, 64, 37
2,26233, Note_on_c, 0, 53, 59
2,26244, Control_c, 0, 64, 36
2,26282, Control_c, 0, 64, 35
2,26300, Control_c, 0, 64, 34
2,26397, Control_c, 0, 64, 37
2,26417, Control_c, 0, 64, 43
2,26437, Control_c, 0, 64, 50
2,26440, Note_on_c, 0, 55, 67
2,26455, Control_c, 0, 64, 57
2,26473, Control_c, 0, 64, 61
2,26487, Note_on_c, 0, 53, 0
2,26494, Control_c, 0, 64, 63
2,26515, Control_c, 0, 64, 64
2,26533, Control_c, 0, 64, 66
2,26550, Control_c, 0, 64, 68
2,26571, Control_c, 0, 64, 71
2,26589, Control_c, 0, 64, 75
2,26609, Control_c, 0, 64, 81
2,26626, Control_c, 0, 64, 89
2,26637, Note_on_c, 0, 55, 0
2,26645, Note_on_c, 0, 56, 74
2,26650, Control_c, 0, 64, 94
2,26665, Control_c, 0, 64, 97
2,26685, Control_c, 0, 64, 99
2,26724, Control_c, 0, 64, 100
2,26801, Control_c, 0, 64, 98
2,26820, Control_c, 0, 64, 95
2,26839, Control_c, 0, 64, 93
2,26857, Control_c, 0, 64, 90
2,26861, Note_on_c, 0, 44, 0
2,26861, Note_on_c, 0, 44, 35
2,26877, Control_c, 0, 64, 88
2,26898, Control_c, 0, 64, 85
2,26913, Note_on_c, 0, 58, 63
2,26917, Control_c, 0, 64, 83
2,26935, Control_c, 0, 64, 80
2,26947, Note_on_c, 0, 56, 0
2,26954, Control_c, 0, 64, 77
2,26973, Control_c, 0, 64, 73
2,26991, Control_c, 0, 64, 70
2,27011, Control_c, 0, 64, 67
2,27034, Control_c, 0, 64, 65
2,27036, Note_on_c, 0, 44, 0
2,27048, Control_c, 0, 64, 64
2,27052, Note_on_c, 0, 43, 61
2,27069, Control_c, 0, 64, 63
2,27110, Control_c, 0, 64, 62
2,27128, Control_c, 0, 64, 61
2,27141, Note_on_c, 0, 43, 0
2,27149, Control_c, 0, 64, 60
2,27149, Note_on_c, 0, 44, 66
2,27185, Control_c, 0, 64, 59
2,27218, Note_on_c, 0, 43, 66
2,27223, Control_c, 0, 64, 58
2,27223, Note_on_c, 0, 44, 0
2,27245, Control_c, 0, 64, 57
2,27280, Control_c, 0, 64, 56
2,27289, Note_on_c, 0, 43, 0
2,27293, Note_on_c, 0, 44, 67
2,27300, Control_c, 0, 64, 55
2,27304, Note_on_c, 0, 64, 70
2,27319, Control_c, 0, 64, 54
2,27323, Note_on_c, 0, 65, 0
2,27337, Control_c, 0, 64, 53
2,27358, Control_c, 0, 64, 52
2,27369, Note_on_c, 0, 43, 70
2,27369, Note_on_c, 0, 44, 0
2,27382, Control_c, 0, 64, 51
2,27415, Control_c, 0, 64, 50
2,27426, Note_on_c, 0, 43, 0
2,27437, Control_c, 0, 64, 48
2,27437, Note_on_c, 0, 44, 72
2,27453, Control_c, 0, 64, 47
2,27473, Control_c, 0, 64, 46
2,27482, Note_on_c, 0, 62, 69
2,27491, Control_c, 0, 64, 45
2,27503, Note_on_c, 0, 64, 0
2,27510, Note_on_c, 0, 43, 70
2,27515, Control_c, 0, 64, 44
2,27519, Note_on_c, 0, 44, 0
2,27531, Control_c, 0, 64, 42
2,27548, Control_c, 0, 64, 41
2,27567, Control_c, 0, 64, 40
2,27571, Note_on_c, 0, 43, 0
2,27576, Note_on_c, 0, 44, 69
2,27588, Control_c, 0, 64, 39
2,27607, Control_c, 0, 64, 38
2,27629, Control_c, 0, 64, 37
2,27646, Control_c, 0, 64, 36
2,27662, Note_on_c, 0, 43, 70
2,27666, Control_c, 0, 64, 35
2,27671, Note_on_c, 0, 44, 0
2,27686, Control_c, 0, 64, 34
2,27702, Control_c, 0, 64, 33
2,27717, Note_on_c, 0, 64, 70
2,27722, Control_c, 0, 64, 29
2,27728, Note_on_c, 0, 62, 0
2,27741, Control_c, 0, 64, 22
2,27763, Control_c, 0, 64, 0
2,28129, Note_on_c, 0, 58, 0
2,28152, Note_on_c, 0, 56, 60
2,28339, Note_on_c, 0, 64, 0
2,28355, Note_on_c, 0, 55, 53
2,28360, Note_on_c, 0, 56, 0
2,28650, Note_on_c, 0, 65, 48
2,28667, Note_on_c, 0, 55, 0
2,28678, Note_on_c, 0, 56, 38
2,28681, Note_on_c, 0, 41, 38
2,28685, Note_on_c, 0, 43, 0
2,28778, Control_c, 0, 64, 20
2,28796, Control_c, 0, 64, 42
2,28817, Control_c, 0, 64, 56
2,28836, Control_c, 0, 64, 62
2,28854, Control_c, 0, 64, 65
2,28872, Control_c, 0, 64, 67
2,28888, Note_on_c, 0, 65, 0
2,28893, Control_c, 0, 64, 71
2,28912, Control_c, 0, 64, 74
2,28931, Control_c, 0, 64, 78
2,28951, Control_c, 0, 64, 82
2,28951, Note_on_c, 0, 41, 0
2,28973, Control_c, 0, 64, 84
2,29027, Control_c, 0, 64, 83
2,29047, Control_c, 0, 64, 82
2,29067, Control_c, 0, 64, 81
2,29105, Control_c, 0, 64, 79
2,29120, Note_on_c, 0, 65, 43
2,29124, Control_c, 0, 64, 77
2,29143, Control_c, 0, 64, 74
2,29162, Control_c, 0, 64, 70
2,29181, Control_c, 0, 64, 68
2,29200, Control_c, 0, 64, 66
2,29219, Control_c, 0, 64, 64
2,29239, Control_c, 0, 64, 63
2,29257, Control_c, 0, 64, 62
2,29276, Control_c, 0, 64, 61
2,29293, Note_on_c, 0, 67, 57
2,29298, Control_c, 0, 64, 60
2,29309, Note_on_c, 0, 65, 0
2,29316, Control_c, 0, 64, 59
2,29325, Note_on_c, 0, 56, 0
2,29353, Control_c, 0, 64, 58
2,29373, Control_c, 0, 64, 57
2,29396, Control_c, 0, 64, 56
2,29411, Control_c, 0, 64, 53
2,29430, Control_c, 0, 64, 46
2,29449, Control_c, 0, 64, 31
2,29469, Control_c, 0, 64, 9
2,29489, Control_c, 0, 64, 0
2,29515, Note_on_c, 0, 67, 0
2,29523, Note_on_c, 0, 68, 61
2,29568, Control_c, 0, 64, 10
2,29584, Control_c, 0, 64, 35
2,29602, Control_c, 0, 64, 50
2,29623, Control_c, 0, 64, 60
2,29644, Control_c, 0, 64, 65
2,29660, Control_c, 0, 64, 69
2,29679, Control_c, 0, 64, 73
2,29699, Control_c, 0, 64, 78
2,29705, Note_on_c, 0, 68, 0
2,29719, Control_c, 0, 64, 82
2,29738, Control_c, 0, 64, 84
2,29756, Control_c, 0, 64, 85
2,29815, Control_c, 0, 64, 83
2,29836, Control_c, 0, 64, 81
2,29855, Control_c, 0, 64, 78
2,29873, Control_c, 0, 64, 75
2,29893, Control_c, 0, 64, 72
2,29911, Control_c, 0, 64, 69
2,29931, Control_c, 0, 64, 67
2,29940, Note_on_c, 0, 68, 51
2,29951, Control_c, 0, 64, 65
2,29955, Note_on_c, 0, 53, 38
2,29969, Control_c, 0, 64, 64
2,29988, Control_c, 0, 64, 63
2,30006, Control_c, 0, 64, 62
2,30027, Control_c, 0, 64, 61
2,30044, Control_c, 0, 64, 60
2,30074, Note_on_c, 0, 53, 0
2,30083, Control_c, 0, 64, 59
2,30103, Control_c, 0, 64, 57
2,30124, Control_c, 0, 64, 56
2,30124, Note_on_c, 0, 55, 45
2,30124, Note_on_c, 0, 70, 66
2,30141, Control_c, 0, 64, 53
2,30150, Note_on_c, 0, 68, 0
2,30162, Control_c, 0, 64, 51
2,30182, Control_c, 0, 64, 49
2,30198, Control_c, 0, 64, 47
2,30216, Control_c, 0, 64, 45
2,30238, Control_c, 0, 64, 42
2,30257, Control_c, 0, 64, 38
2,30276, Control_c, 0, 64, 30
2,30294, Control_c, 0, 64, 17
2,30312, Control_c, 0, 64, 0
2,30317, Note_on_c, 0, 55, 0
2,30338, Note_on_c, 0, 70, 0
2,30354, Note_on_c, 0, 72, 64
2,30368, Note_on_c, 0, 56, 47
2,30430, Control_c, 0, 64, 26
2,30449, Control_c, 0, 64, 42
2,30466, Control_c, 0, 64, 55
2,30485, Control_c, 0, 64, 63
2,30506, Control_c, 0, 64, 67
2,30525, Control_c, 0, 64, 72
2,30543, Control_c, 0, 64, 81
2,30564, Control_c, 0, 64, 93
2,30584, Control_c, 0, 64, 112
2,30588, Note_on_c, 0, 56, 0
2,30606, Control_c, 0, 64, 127
2,30755, Control_c, 0, 64, 105
2,30762, Note_on_c, 0, 60, 58
2,30778, Control_c, 0, 64, 96
2,30782, Note_on_c, 0, 56, 50
2,30798, Control_c, 0, 64, 90
2,30813, Control_c, 0, 64, 85
2,30832, Control_c, 0, 64, 80
2,30852, Control_c, 0, 64, 76
2,30874, Control_c, 0, 64, 72
2,30892, Control_c, 0, 64, 69
2,30907, Control_c, 0, 64, 65
2,30929, Control_c, 0, 64, 63
2,30948, Control_c, 0, 64, 60
2,30952, Note_on_c, 0, 61, 62
2,30956, Note_on_c, 0, 58, 62
2,30967, Control_c, 0, 64, 58
2,30987, Control_c, 0, 64, 56
2,30987, Note_on_c, 0, 56, 0
2,30994, Note_on_c, 0, 60, 0
2,31005, Control_c, 0, 64, 53
2,31026, Control_c, 0, 64, 48
2,31044, Control_c, 0, 64, 44
2,31062, Control_c, 0, 64, 40
2,31082, Control_c, 0, 64, 37
2,31100, Control_c, 0, 64, 36
2,31146, Note_on_c, 0, 58, 0
2,31175, Note_on_c, 0, 60, 53
2,31191, Note_on_c, 0, 63, 56
2,31224, Note_on_c, 0, 61, 0
2,31256, Control_c, 0, 64, 37
2,31275, Control_c, 0, 64, 38
2,31295, Control_c, 0, 64, 39
2,31332, Control_c, 0, 64, 40
2,31375, Note_on_c, 0, 70, 61
2,31393, Note_on_c, 0, 72, 0
2,31447, Control_c, 0, 64, 41
2,31564, Control_c, 0, 64, 42
2,31564, Note_on_c, 0, 70, 0
2,31580, Note_on_c, 0, 68, 59
2,31595, Note_on_c, 0, 48, 37
2,31722, Note_on_c, 0, 68, 0
2,31752, Note_on_c, 0, 67, 54
2,32019, Note_on_c, 0, 65, 43
2,32039, Note_on_c, 0, 67, 0
2,32059, Note_on_c, 0, 49, 37
2,32063, Note_on_c, 0, 60, 0
2,32152, Note_on_c, 0, 48, 0
2,32196, Control_c, 0, 64, 41
2,32232, Control_c, 0, 64, 40
2,32252, Control_c, 0, 64, 39
2,32273, Control_c, 0, 64, 38
2,32313, Control_c, 0, 64, 37
2,32330, Control_c, 0, 64, 36
2,32368, Control_c, 0, 64, 35
2,32444, Control_c, 0, 64, 34
2,32478, Note_on_c, 0, 61, 41
2,32486, Control_c, 0, 64, 33
2,32502, Control_c, 0, 64, 32
2,32519, Note_on_c, 0, 63, 0
2,32523, Control_c, 0, 64, 31
2,32543, Control_c, 0, 64, 29
2,32560, Control_c, 0, 64, 26
2,32579, Control_c, 0, 64, 20
2,32598, Control_c, 0, 64, 11
2,32620, Control_c, 0, 64, 0
2,32657, Note_on_c, 0, 63, 57
2,32700, Note_on_c, 0, 65, 0
2,32712, Note_on_c, 0, 61, 0
2,32864, Note_on_c, 0, 65, 43
2,32899, Note_on_c, 0, 63, 0
2,32925, Control_c, 0, 64, 38
2,32944, Control_c, 0, 64, 56
2,32963, Control_c, 0, 64, 64
2,32984, Control_c, 0, 64, 67
2,33002, Control_c, 0, 64, 69
2,33022, Control_c, 0, 64, 71
2,33040, Control_c, 0, 64, 72
2,33058, Control_c, 0, 64, 73
2,33065, Note_on_c, 0, 65, 0
2,33088, Note_on_c, 0, 49, 0
2,33119, Control_c, 0, 64, 72
2,33137, Control_c, 0, 64, 70
2,33156, Control_c, 0, 64, 68
2,33173, Control_c, 0, 64, 66
2,33192, Control_c, 0, 64, 65
2,33212, Control_c, 0, 64, 64
2,33232, Control_c, 0, 64, 63
2,33249, Control_c, 0, 64, 62
2,33269, Control_c, 0, 64, 61
2,33274, Note_on_c, 0, 49, 32
2,33286, Note_on_c, 0, 65, 45
2,33291, Control_c, 0, 64, 60
2,33310, Control_c, 0, 64, 59
2,33349, Control_c, 0, 64, 58
2,33367, Control_c, 0, 64, 57
2,33386, Control_c, 0, 64, 56
2,33404, Control_c, 0, 64, 55
2,33424, Control_c, 0, 64, 53
2,33445, Control_c, 0, 64, 52
2,33456, Note_on_c, 0, 49, 0
2,33462, Control_c, 0, 64, 50
2,33468, Note_on_c, 0, 67, 67
2,33482, Control_c, 0, 64, 47
2,33486, Note_on_c, 0, 51, 48
2,33501, Control_c, 0, 64, 45
2,33508, Note_on_c, 0, 65, 0
2,33524, Control_c, 0, 64, 43
2,33540, Control_c, 0, 64, 42
2,33559, Control_c, 0, 64, 40
2,33579, Control_c, 0, 64, 37
2,33598, Control_c, 0, 64, 33
2,33616, Control_c, 0, 64, 28
2,33634, Control_c, 0, 64, 25
2,33658, Control_c, 0, 64, 20
2,33674, Control_c, 0, 64, 0
2,33691, Note_on_c, 0, 68, 70
2,33695, Note_on_c, 0, 51, 0
2,33706, Note_on_c, 0, 53, 48
2,33723, Note_on_c, 0, 67, 0
2,33942, Note_on_c, 0, 53, 0
2,34108, Note_on_c, 0, 56, 61
2,34126, Note_on_c, 0, 53, 48
2,34257, Note_on_c, 0, 53, 0
2,34284, Note_on_c, 0, 56, 0
2,34291, Note_on_c, 0, 58, 69
2,34305, Note_on_c, 0, 55, 53
2,34494, Note_on_c, 0, 55, 0
2,34500, Note_on_c, 0, 58, 0
2,34504, Note_on_c, 0, 60, 63
2,34511, Note_on_c, 0, 56, 54
2,34631, Note_on_c, 0, 68, 0
2,34655, Control_c, 0, 64, 8
2,34685, Note_on_c, 0, 66, 60
2,34731, Control_c, 0, 64, 9
2,34860, Note_on_c, 0, 66, 0
2,34900, Note_on_c, 0, 65, 51
2,34915, Note_on_c, 0, 44, 44
2,34959, Control_c, 0, 64, 10
2,34979, Control_c, 0, 64, 11
2,35018, Control_c, 0, 64, 12
2,35086, Note_on_c, 0, 63, 59
2,35101, Note_on_c, 0, 65, 0
2,35332, Note_on_c, 0, 61, 49
2,35347, Note_on_c, 0, 46, 38
2,35359, Note_on_c, 0, 63, 0
2,35372, Note_on_c, 0, 44, 0
2,35457, Note_on_c, 0, 56, 0
2,35498, Control_c, 0, 64, 13
2,35518, Control_c, 0, 64, 14
2,35787, Note_on_c, 0, 58, 47
2,35800, Note_on_c, 0, 60, 0
2,35942, Control_c, 0, 64, 13
2,35942, Note_on_c, 0, 61, 0
2,35974, Note_on_c, 0, 60, 57
2,36013, Note_on_c, 0, 58, 0
2,36018, Control_c, 0, 64, 12
2,36074, Control_c, 0, 64, 11
2,36093, Control_c, 0, 64, 9
2,36113, Control_c, 0, 64, 0
2,36189, Note_on_c, 0, 61, 47
2,36194, Note_on_c, 0, 60, 0
2,36324, Control_c, 0, 64, 36
2,36344, Control_c, 0, 64, 51
2,36364, Control_c, 0, 64, 60
2,36380, Control_c, 0, 64, 63
2,36401, Control_c, 0, 64, 65
2,36419, Control_c, 0, 64, 67
2,36428, Note_on_c, 0, 46, 0
2,36432, Note_on_c, 0, 61, 0
2,36437, Control_c, 0, 64, 69
2,36459, Control_c, 0, 64, 73
2,36477, Control_c, 0, 64, 76
2,36496, Control_c, 0, 64, 77
2,36573, Control_c, 0, 64, 76
2,36592, Control_c, 0, 64, 74
2,36597, Note_on_c, 0, 61, 53
2,36607, Note_on_c, 0, 46, 34
2,36611, Control_c, 0, 64, 73
2,36630, Control_c, 0, 64, 70
2,36651, Control_c, 0, 64, 68
2,36671, Control_c, 0, 64, 65
2,36686, Control_c, 0, 64, 63
2,36709, Control_c, 0, 64, 61
2,36727, Control_c, 0, 64, 60
2,36746, Control_c, 0, 64, 59
2,36786, Control_c, 0, 64, 58
2,36797, Note_on_c, 0, 46, 0
2,36797, Note_on_c, 0, 63, 66
2,36801, Note_on_c, 0, 48, 46
2,36804, Control_c, 0, 64, 57
2,36824, Control_c, 0, 64, 55
2,36833, Note_on_c, 0, 61, 0
2,36842, Control_c, 0, 64, 54
2,36862, Control_c, 0, 64, 52
2,36882, Control_c, 0, 64, 50
2,36902, Control_c, 0, 64, 48
2,36920, Control_c, 0, 64, 47
2,36939, Control_c, 0, 64, 46
2,36956, Control_c, 0, 64, 44
2,36977, Control_c, 0, 64, 43
2,36996, Control_c, 0, 64, 41
2,37011, Note_on_c, 0, 48, 0
2,37020, Control_c, 0, 64, 36
2,37020, Note_on_c, 0, 65, 64
2,37033, Control_c, 0, 64, 29
2,37038, Note_on_c, 0, 49, 46
2,37048, Note_on_c, 0, 63, 0
2,37052, Control_c, 0, 64, 11
2,37075, Control_c, 0, 64, 0
2,37268, Note_on_c, 0, 49, 0
2,37395, Note_on_c, 0, 53, 62
2,37441, Note_on_c, 0, 49, 51
2,37581, Note_on_c, 0, 55, 66
2,37601, Note_on_c, 0, 51, 65
2,37639, Note_on_c, 0, 53, 0
2,37662, Note_on_c, 0, 49, 0
2,37824, Note_on_c, 0, 53, 52
2,37826, Note_on_c, 0, 56, 72
2,37861, Note_on_c, 0, 51, 0
2,37901, Note_on_c, 0, 55, 0
2,38084, Note_on_c, 0, 56, 0
2,38234, Note_on_c, 0, 41, 55
2,38251, Note_on_c, 0, 56, 64
2,38428, Note_on_c, 0, 58, 72
2,38495, Note_on_c, 0, 56, 0
2,38507, Note_on_c, 0, 53, 0
2,38610, Note_on_c, 0, 58, 0
2,38649, Note_on_c, 0, 60, 75
2,38653, Note_on_c, 0, 48, 59
2,38667, Control_c, 0, 64, 16
2,38685, Control_c, 0, 64, 29
2,38696, Note_on_c, 0, 41, 0
2,38705, Control_c, 0, 64, 39
2,38723, Control_c, 0, 64, 50
2,38743, Control_c, 0, 64, 58
2,38763, Control_c, 0, 64, 63
2,38779, Control_c, 0, 64, 66
2,38799, Control_c, 0, 64, 71
2,38821, Control_c, 0, 64, 77
2,38821, Note_on_c, 0, 48, 0
2,38840, Control_c, 0, 64, 86
2,38859, Control_c, 0, 64, 106
2,38877, Control_c, 0, 64, 127
2,38983, Note_on_c, 0, 65, 0
2,39064, Note_on_c, 0, 64, 83
2,39073, Note_on_c, 0, 60, 0
2,39083, Note_on_c, 0, 55, 55
2,39090, Note_on_c, 0, 48, 54
2,39206, Control_c, 0, 64, 116
2,39221, Control_c, 0, 64, 100
2,39244, Control_c, 0, 64, 92
2,39260, Control_c, 0, 64, 86
2,39276, Note_on_c, 0, 50, 65
2,39278, Note_on_c, 0, 64, 0
2,39278, Note_on_c, 0, 65, 85
2,39282, Control_c, 0, 64, 81
2,39301, Control_c, 0, 64, 78
2,39317, Control_c, 0, 64, 75
2,39324, Note_on_c, 0, 48, 0
2,39338, Control_c, 0, 64, 72
2,39355, Control_c, 0, 64, 69
2,39376, Control_c, 0, 64, 67
2,39395, Control_c, 0, 64, 66
2,39415, Control_c, 0, 64, 65
2,39539, Note_on_c, 0, 60, 52
2,39549, Control_c, 0, 64, 64
2,39578, Note_on_c, 0, 52, 54
2,39606, Control_c, 0, 64, 63
2,39626, Control_c, 0, 64, 62
2,39631, Note_on_c, 0, 72, 85
2,39635, Note_on_c, 0, 50, 0
2,39644, Control_c, 0, 64, 61
2,39659, Note_on_c, 0, 67, 58
2,39678, Note_on_c, 0, 55, 0
2,39678, Note_on_c, 0, 65, 0
2,39682, Control_c, 0, 64, 60
2,39720, Control_c, 0, 64, 59
2,39759, Control_c, 0, 64, 58
2,39778, Control_c, 0, 64, 56
2,39797, Control_c, 0, 64, 55
2,39818, Control_c, 0, 64, 54
2,39840, Control_c, 0, 64, 53
2,39858, Control_c, 0, 64, 52
2,39876, Control_c, 0, 64, 51
2,39895, Control_c, 0, 64, 50
2,39913, Control_c, 0, 64, 49
2,39936, Control_c, 0, 64, 48
2,39951, Control_c, 0, 64, 47
2,39971, Control_c, 0, 64, 46
2,39991, Control_c, 0, 64, 45
2,40008, Control_c, 0, 64, 44
2,40028, Control_c, 0, 64, 43
2,40047, Control_c, 0, 64, 41
2,40074, Note_on_c, 0, 58, 61
2,40086, Control_c, 0, 64, 40
2,40090, Note_on_c, 0, 50, 57
2,40108, Note_on_c, 0, 52, 0
2,40117, Note_on_c, 0, 60, 0
2,40125, Control_c, 0, 64, 39
2,40182, Control_c, 0, 64, 38
2,40221, Control_c, 0, 64, 37
2,40266, Note_on_c, 0, 50, 0
2,40273, Note_on_c, 0, 52, 65
2,40281, Control_c, 0, 64, 35
2,40297, Control_c, 0, 64, 32
2,40319, Control_c, 0, 64, 20
2,40336, Control_c, 0, 64, 0
2,40417, Note_on_c, 0, 58, 0
2,40502, Note_on_c, 0, 73, 87
2,40520, Note_on_c, 0, 56, 59
2,40527, Control_c, 0, 64, 16
2,40531, Note_on_c, 0, 72, 0
2,40548, Control_c, 0, 64, 38
2,40558, Note_on_c, 0, 52, 0
2,40569, Control_c, 0, 64, 52
2,40569, Note_on_c, 0, 53, 60
2,40587, Control_c, 0, 64, 62
2,40605, Control_c, 0, 64, 64
2,40605, Note_on_c, 0, 56, 0
2,40613, Note_on_c, 0, 53, 0
2,40622, Control_c, 0, 64, 66
2,40642, Control_c, 0, 64, 68
2,40663, Control_c, 0, 64, 71
2,40682, Control_c, 0, 64, 75
2,40700, Control_c, 0, 64, 81
2,40719, Control_c, 0, 64, 91
2,40739, Control_c, 0, 64, 97
2,40748, Note_on_c, 0, 40, 62
2,40778, Control_c, 0, 64, 95
2,40796, Control_c, 0, 64, 93
2,40816, Control_c, 0, 64, 89
2,40835, Control_c, 0, 64, 85
2,40855, Control_c, 0, 64, 82
2,40876, Control_c, 0, 64, 78
2,40892, Control_c, 0, 64, 74
2,40911, Control_c, 0, 64, 71
2,40933, Control_c, 0, 64, 67
2,40937, Note_on_c, 0, 41, 58
2,40937, Note_on_c, 0, 65, 67
2,40950, Control_c, 0, 64, 65
2,40958, Note_on_c, 0, 40, 0
2,40968, Control_c, 0, 64, 64
2,40989, Control_c, 0, 64, 63
2,41008, Control_c, 0, 64, 62
2,41064, Control_c, 0, 64, 61
2,41117, Note_on_c, 0, 43, 70
2,41126, Note_on_c, 0, 41, 0
2,41143, Control_c, 0, 64, 60
2,41181, Control_c, 0, 64, 59
2,41220, Control_c, 0, 64, 58
2,41298, Control_c, 0, 64, 57
2,41339, Note_on_c, 0, 72, 83
2,41358, Note_on_c, 0, 44, 61
2,41380, Note_on_c, 0, 43, 0
2,41380, Note_on_c, 0, 67, 0
2,41410, Control_c, 0, 64, 56
2,41435, Note_on_c, 0, 73, 0
2,41452, Control_c, 0, 64, 55
2,41467, Control_c, 0, 64, 53
2,41489, Control_c, 0, 64, 50
2,41509, Control_c, 0, 64, 45
2,41525, Control_c, 0, 64, 39
2,41529, Note_on_c, 0, 48, 62
2,41547, Control_c, 0, 64, 30
2,41564, Control_c, 0, 64, 22
2,41583, Control_c, 0, 64, 15
2,41601, Control_c, 0, 64, 11
2,41723, Note_on_c, 0, 63, 70
2,41732, Note_on_c, 0, 48, 0
2,41736, Note_on_c, 0, 50, 63
2,41764, Note_on_c, 0, 65, 0
2,41813, Control_c, 0, 64, 12
2,41831, Control_c, 0, 64, 13
2,41870, Control_c, 0, 64, 14
2,41889, Control_c, 0, 64, 15
2,41921, Note_on_c, 0, 51, 76
2,41927, Control_c, 0, 64, 16
2,41938, Note_on_c, 0, 50, 0
2,41968, Control_c, 0, 64, 17
2,41985, Control_c, 0, 64, 19
2,42006, Control_c, 0, 64, 20
2,42080, Control_c, 0, 64, 21
2,42102, Control_c, 0, 64, 22
2,42147, Note_on_c, 0, 71, 79
2,42172, Note_on_c, 0, 62, 64
2,42191, Note_on_c, 0, 53, 59
2,42200, Note_on_c, 0, 63, 0
2,42202, Note_on_c, 0, 51, 0
2,42206, Note_on_c, 0, 44, 0
2,42234, Control_c, 0, 64, 23
2,42348, Control_c, 0, 64, 19
2,42357, Note_on_c, 0, 41, 69
2,42368, Control_c, 0, 64, 10
2,42378, Note_on_c, 0, 72, 0
2,42389, Control_c, 0, 64, 0
2,42516, Note_on_c, 0, 62, 0
2,42523, Control_c, 0, 64, 15
2,42542, Control_c, 0, 64, 29
2,42553, Note_on_c, 0, 63, 78
2,42568, Control_c, 0, 64, 41
2,42568, Note_on_c, 0, 41, 0
2,42568, Note_on_c, 0, 43, 59
2,42581, Control_c, 0, 64, 50
2,42602, Control_c, 0, 64, 58
2,42618, Control_c, 0, 64, 62
2,42638, Control_c, 0, 64, 65
2,42660, Control_c, 0, 64, 69
2,42675, Control_c, 0, 64, 75
2,42694, Control_c, 0, 64, 83
2,42708, Note_on_c, 0, 63, 0
2,42714, Control_c, 0, 64, 91
2,42737, Control_c, 0, 64, 99
2,42739, Note_on_c, 0, 65, 77
2,42747, Note_on_c, 0, 44, 71
2,42747, Note_on_c, 0, 71, 0
2,42752, Note_on_c, 0, 43, 0
2,42754, Control_c, 0, 64, 101
2,42803, Note_on_c, 0, 44, 0
2,42830, Control_c, 0, 64, 100
2,42850, Control_c, 0, 64, 99
2,42867, Control_c, 0, 64, 97
2,42887, Control_c, 0, 64, 96
2,42906, Control_c, 0, 64, 95
2,42965, Control_c, 0, 64, 93
2,42984, Note_on_c, 0, 76, 82
2,42988, Control_c, 0, 64, 83
2,42995, Note_on_c, 0, 65, 0
2,43007, Control_c, 0, 64, 68
2,43007, Note_on_c, 0, 67, 67
2,43014, Note_on_c, 0, 46, 45
2,43022, Control_c, 0, 64, 56
2,43029, Note_on_c, 0, 44, 40
2,43041, Control_c, 0, 64, 42
2,43061, Note_on_c, 0, 44, 0
2,43065, Control_c, 0, 64, 32
2,43079, Control_c, 0, 64, 31
2,43083, Note_on_c, 0, 53, 0
2,43098, Control_c, 0, 64, 32
2,43117, Control_c, 0, 64, 38
2,43135, Control_c, 0, 64, 48
2,43156, Control_c, 0, 64, 57
2,43166, Note_on_c, 0, 67, 0
2,43178, Control_c, 0, 64, 62
2,43183, Note_on_c, 0, 65, 68
2,43194, Control_c, 0, 64, 64
2,43214, Control_c, 0, 64, 66
2,43231, Control_c, 0, 64, 68
2,43251, Control_c, 0, 64, 73
2,43260, Note_on_c, 0, 65, 0
2,43275, Control_c, 0, 64, 79
2,43292, Control_c, 0, 64, 86
2,43310, Control_c, 0, 64, 93
2,43329, Control_c, 0, 64, 101
2,43347, Control_c, 0, 64, 127
2,43367, Note_on_c, 0, 55, 64
2,43381, Note_on_c, 0, 64, 75
2,43402, Note_on_c, 0, 76, 0
2,43445, Note_on_c, 0, 46, 0
2,43449, Note_on_c, 0, 55, 0
2,43456, Note_on_c, 0, 64, 0
2,43554, Note_on_c, 0, 62, 86
2,43632, Note_on_c, 0, 62, 0
2,43752, Control_c, 0, 64, 109
2,43772, Control_c, 0, 64, 73
2,43784, Note_on_c, 0, 60, 59
2,43784, Note_on_c, 0, 77, 89
2,43792, Control_c, 0, 64, 55
2,43801, Note_on_c, 0, 56, 58
2,43813, Control_c, 0, 64, 31
2,43829, Control_c, 0, 64, 13
2,43849, Control_c, 0, 64, 23
2,43867, Control_c, 0, 64, 40
2,43876, Note_on_c, 0, 60, 0
2,43887, Control_c, 0, 64, 56
2,43900, Note_on_c, 0, 56, 0
2,43904, Control_c, 0, 64, 66
2,43925, Control_c, 0, 64, 73
2,43945, Control_c, 0, 64, 86
2,43962, Control_c, 0, 64, 104
2,43983, Control_c, 0, 64, 127
2,44004, Note_on_c, 0, 44, 69
2,44102, Note_on_c, 0, 77, 0
2,44194, Note_on_c, 0, 46, 75
2,44215, Note_on_c, 0, 44, 0
2,44310, Control_c, 0, 64, 122
2,44329, Control_c, 0, 64, 106
2,44349, Control_c, 0, 64, 100
2,44367, Control_c, 0, 64, 97
2,44372, Note_on_c, 0, 48, 72
2,44386, Control_c, 0, 64, 95
2,44391, Note_on_c, 0, 46, 0
2,44424, Control_c, 0, 64, 94
2,44441, Note_on_c, 0, 48, 0
2,44443, Control_c, 0, 64, 93
2,44463, Control_c, 0, 64, 90
2,44481, Control_c, 0, 64, 87
2,44501, Control_c, 0, 64, 84
2,44521, Control_c, 0, 64, 81
2,44538, Control_c, 0, 64, 80
2,44556, Control_c, 0, 64, 78
2,44598, Note_on_c, 0, 70, 85
2,44615, Note_on_c, 0, 49, 58
2,44619, Control_c, 0, 64, 77
2,44637, Control_c, 0, 64, 73
2,44653, Control_c, 0, 64, 64
2,44676, Control_c, 0, 64, 52
2,44693, Control_c, 0, 64, 34
2,44711, Control_c, 0, 64, 11
2,44730, Control_c, 0, 64, 0
2,44769, Control_c, 0, 64, 13
2,44792, Control_c, 0, 64, 30
2,44794, Note_on_c, 0, 58, 69
2,44806, Control_c, 0, 64, 45
2,44826, Control_c, 0, 64, 57
2,44847, Control_c, 0, 64, 63
2,44866, Control_c, 0, 64, 67
2,44883, Control_c, 0, 64, 70
2,44902, Control_c, 0, 64, 74
2,44922, Control_c, 0, 64, 78
2,44943, Note_on_c, 0, 58, 0
2,44947, Control_c, 0, 64, 81
2,44963, Control_c, 0, 64, 85
2,44982, Control_c, 0, 64, 89
2,44991, Note_on_c, 0, 58, 54
2,45000, Control_c, 0, 64, 96
2,45000, Note_on_c, 0, 56, 62
2,45018, Control_c, 0, 64, 106
2,45038, Control_c, 0, 64, 127
2,45089, Note_on_c, 0, 58, 0
2,45131, Note_on_c, 0, 56, 0
2,45188, Note_on_c, 0, 55, 69
2,45191, Control_c, 0, 64, 113
2,45213, Control_c, 0, 64, 108
2,45231, Control_c, 0, 64, 104
2,45245, Note_on_c, 0, 55, 0
2,45250, Control_c, 0, 64, 100
2,45267, Control_c, 0, 64, 97
2,45287, Control_c, 0, 64, 92
2,45308, Control_c, 0, 64, 87
2,45326, Control_c, 0, 64, 83
2,45344, Control_c, 0, 64, 78
2,45364, Control_c, 0, 64, 74
2,45383, Control_c, 0, 64, 71
2,45401, Control_c, 0, 64, 68
2,45422, Control_c, 0, 64, 66
2,45422, Note_on_c, 0, 69, 74
2,45442, Control_c, 0, 64, 65
2,45447, Note_on_c, 0, 53, 53
2,45447, Note_on_c, 0, 60, 64
2,45461, Control_c, 0, 64, 64
2,45479, Control_c, 0, 64, 63
2,45499, Control_c, 0, 64, 62
2,45499, Note_on_c, 0, 70, 0
2,45507, Note_on_c, 0, 49, 0
2,45522, Control_c, 0, 64, 61
2,45537, Control_c, 0, 64, 60
2,45577, Control_c, 0, 64, 59
2,45596, Control_c, 0, 64, 58
2,45614, Control_c, 0, 64, 57
2,45632, Control_c, 0, 64, 56
2,45645, Note_on_c, 0, 48, 59
2,45655, Control_c, 0, 64, 55
2,45673, Control_c, 0, 64, 54
2,45690, Control_c, 0, 64, 53
2,45710, Control_c, 0, 64, 52
2,45748, Control_c, 0, 64, 51
2,45766, Control_c, 0, 64, 50
2,45785, Control_c, 0, 64, 49
2,45805, Control_c, 0, 64, 47
2,45829, Control_c, 0, 64, 46
2,45829, Note_on_c, 0, 50, 70
2,45843, Control_c, 0, 64, 44
2,45878, Note_on_c, 0, 48, 0
2,45884, Control_c, 0, 64, 43
2,45901, Control_c, 0, 64, 42
2,45923, Control_c, 0, 64, 41
2,45952, Note_on_c, 0, 53, 0
2,45961, Control_c, 0, 64, 40
2,45977, Control_c, 0, 64, 39
2,45998, Control_c, 0, 64, 38
2,46018, Control_c, 0, 64, 37
2,46018, Note_on_c, 0, 52, 70
2,46036, Control_c, 0, 64, 35
2,46056, Control_c, 0, 64, 34
2,46070, Note_on_c, 0, 50, 0
2,46131, Control_c, 0, 64, 33
2,46152, Control_c, 0, 64, 31
2,46172, Control_c, 0, 64, 26
2,46190, Control_c, 0, 64, 10
2,46211, Control_c, 0, 64, 0
2,46259, Note_on_c, 0, 68, 83
2,46308, Note_on_c, 0, 53, 58
2,46310, Note_on_c, 0, 52, 0
2,46354, Note_on_c, 0, 69, 0
2,46403, Control_c, 0, 64, 16
2,46403, Note_on_c, 0, 53, 0
2,46420, Control_c, 0, 64, 33
2,46440, Control_c, 0, 64, 46
2,46459, Control_c, 0, 64, 56
2,46471, Note_on_c, 0, 53, 64
2,46475, Note_on_c, 0, 60, 0
2,46478, Control_c, 0, 64, 60
2,46535, Control_c, 0, 64, 61
2,46554, Control_c, 0, 64, 62
2,46573, Control_c, 0, 64, 63
2,46593, Control_c, 0, 64, 64
2,46611, Control_c, 0, 64, 65
2,46630, Control_c, 0, 64, 66
2,46650, Control_c, 0, 64, 68
2,46670, Control_c, 0, 64, 69
2,46686, Note_on_c, 0, 55, 60
2,46686, Note_on_c, 0, 60, 74
2,46690, Control_c, 0, 64, 72
2,46707, Control_c, 0, 64, 75
2,46727, Control_c, 0, 64, 78
2,46747, Control_c, 0, 64, 81
2,46767, Control_c, 0, 64, 85
2,46786, Control_c, 0, 64, 90
2,46804, Control_c, 0, 64, 94
2,46823, Control_c, 0, 64, 97
2,46841, Control_c, 0, 64, 100
2,46865, Control_c, 0, 64, 101
2,46865, Note_on_c, 0, 68, 0
2,46883, Note_on_c, 0, 56, 79
2,46887, Note_on_c, 0, 55, 0
2,46959, Control_c, 0, 64, 100
2,46977, Control_c, 0, 64, 99
2,46994, Control_c, 0, 64, 97
2,47015, Control_c, 0, 64, 95
2,47038, Control_c, 0, 64, 94
2,47055, Control_c, 0, 64, 91
2,47072, Control_c, 0, 64, 89
2,47092, Control_c, 0, 64, 86
2,47111, Control_c, 0, 64, 83
2,47132, Control_c, 0, 64, 81
2,47148, Control_c, 0, 64, 78
2,47168, Control_c, 0, 64, 77
2,47189, Control_c, 0, 64, 75
2,47207, Note_on_c, 0, 58, 49
2,47211, Control_c, 0, 64, 73
2,47228, Control_c, 0, 64, 71
2,47235, Note_on_c, 0, 67, 75
2,47246, Control_c, 0, 64, 69
2,47266, Control_c, 0, 64, 68
2,47283, Note_on_c, 0, 61, 49
2,47285, Control_c, 0, 64, 67
2,47307, Control_c, 0, 64, 66
2,47323, Control_c, 0, 64, 65
2,47345, Control_c, 0, 64, 64
2,47360, Control_c, 0, 64, 63
2,47366, Note_on_c, 0, 56, 0
2,47380, Control_c, 0, 64, 62
2,47388, Note_on_c, 0, 60, 0
2,47419, Control_c, 0, 64, 61
2,47438, Control_c, 0, 64, 60
2,47456, Control_c, 0, 64, 59
2,47475, Control_c, 0, 64, 57
2,47498, Control_c, 0, 64, 56
2,47514, Control_c, 0, 64, 55
2,47533, Control_c, 0, 64, 53
2,47552, Control_c, 0, 64, 52
2,47571, Control_c, 0, 64, 51
2,47591, Control_c, 0, 64, 49
2,47610, Control_c, 0, 64, 48
2,47629, Control_c, 0, 64, 46
2,47649, Control_c, 0, 64, 45
2,47669, Control_c, 0, 64, 43
2,47689, Control_c, 0, 64, 42
2,47707, Control_c, 0, 64, 41
2,47725, Control_c, 0, 64, 40
2,47739, Note_on_c, 0, 52, 37
2,47739, Note_on_c, 0, 60, 50
2,47748, Control_c, 0, 64, 37
2,47748, Note_on_c, 0, 58, 0
2,47766, Control_c, 0, 64, 35
2,47783, Control_c, 0, 64, 32
2,47798, Note_on_c, 0, 53, 0
2,47798, Note_on_c, 0, 61, 0
2,47803, Control_c, 0, 64, 29
2,47821, Control_c, 0, 64, 25
2,47841, Control_c, 0, 64, 21
2,47859, Control_c, 0, 64, 17
2,47880, Control_c, 0, 64, 13
2,47898, Control_c, 0, 64, 9
2,47920, Control_c, 0, 64, 0
2,47920, Note_on_c, 0, 50, 51
2,47935, Note_on_c, 0, 58, 58
2,47967, Note_on_c, 0, 60, 0
2,47973, Note_on_c, 0, 52, 0
2,48176, Note_on_c, 0, 52, 37
2,48189, Note_on_c, 0, 50, 0
2,48193, Note_on_c, 0, 60, 46
2,48243, Control_c, 0, 64, 9
2,48263, Control_c, 0, 64, 10
2,48286, Control_c, 0, 64, 11
2,48303, Control_c, 0, 64, 12
2,48321, Control_c, 0, 64, 13
2,48339, Control_c, 0, 64, 14
2,48416, Control_c, 0, 64, 15
2,48589, Control_c, 0, 64, 16
2,48609, Note_on_c, 0, 56, 44
2,48644, Note_on_c, 0, 58, 0
2,48665, Control_c, 0, 64, 17
2,48764, Note_on_c, 0, 56, 0
2,48800, Note_on_c, 0, 55, 43
2,48915, Control_c, 0, 64, 18
2,48973, Control_c, 0, 64, 19
2,49030, Control_c, 0, 64, 20
2,49106, Note_on_c, 0, 53, 31
2,49111, Note_on_c, 0, 56, 39
2,49148, Note_on_c, 0, 55, 0
2,49165, Note_on_c, 0, 52, 0
2,49242, Control_c, 0, 64, 21
2,49541, Note_on_c, 0, 65, 38
2,49564, Note_on_c, 0, 67, 0
2,49666, Control_c, 0, 64, 22
2,49733, Note_on_c, 0, 67, 55
2,49764, Note_on_c, 0, 65, 0
2,49782, Control_c, 0, 64, 23
2,49877, Control_c, 0, 64, 24
2,49925, Note_on_c, 0, 53, 0
2,49930, Note_on_c, 0, 56, 0
2,49956, Note_on_c, 0, 67, 0
2,49974, Control_c, 0, 64, 25
2,49974, Note_on_c, 0, 68, 56
2,50012, Note_on_c, 0, 60, 0
2,50352, Note_on_c, 0, 53, 42
2,50551, Note_on_c, 0, 51, 44
2,50564, Note_on_c, 0, 53, 0
2,50643, Control_c, 0, 64, 24
2,50662, Note_on_c, 0, 51, 0
2,50683, Control_c, 0, 64, 23
2,50743, Control_c, 0, 64, 24
2,50762, Control_c, 0, 64, 28
2,50762, Note_on_c, 0, 50, 41
2,50778, Control_c, 0, 64, 39
2,50798, Control_c, 0, 64, 50
2,50818, Control_c, 0, 64, 58
2,50837, Control_c, 0, 64, 63
2,50857, Control_c, 0, 64, 65
2,50874, Control_c, 0, 64, 68
2,50884, Note_on_c, 0, 50, 0
2,50895, Control_c, 0, 64, 72
2,50912, Control_c, 0, 64, 78
2,50934, Control_c, 0, 64, 83
2,50950, Control_c, 0, 64, 89
2,50970, Control_c, 0, 64, 94
2,50990, Control_c, 0, 64, 97
2,51007, Control_c, 0, 64, 99
2,51028, Control_c, 0, 64, 102
2,51050, Control_c, 0, 64, 107
2,51066, Control_c, 0, 64, 111
2,51084, Control_c, 0, 64, 112
2,51173, Note_on_c, 0, 50, 42
2,51182, Control_c, 0, 64, 109
2,51194, Note_on_c, 0, 65, 43
2,51203, Control_c, 0, 64, 105
2,51221, Control_c, 0, 64, 101
2,51240, Control_c, 0, 64, 96
2,51258, Control_c, 0, 64, 92
2,51280, Control_c, 0, 64, 88
2,51296, Control_c, 0, 64, 85
2,51316, Control_c, 0, 64, 82
2,51334, Control_c, 0, 64, 80
2,51342, Note_on_c, 0, 48, 44
2,51349, Note_on_c, 0, 65, 0
2,51354, Control_c, 0, 64, 79
2,51374, Control_c, 0, 64, 78
2,51374, Note_on_c, 0, 50, 0
2,51378, Note_on_c, 0, 63, 54
2,51450, Control_c, 0, 64, 77
2,51470, Control_c, 0, 64, 75
2,51491, Control_c, 0, 64, 71
2,51509, Control_c, 0, 64, 64
2,51526, Control_c, 0, 64, 56
2,51551, Control_c, 0, 64, 45
2,51551, Note_on_c, 0, 48, 0
2,51551, Note_on_c, 0, 63, 0
2,51567, Control_c, 0, 64, 36
2,51585, Control_c, 0, 64, 30
2,51599, Note_on_c, 0, 46, 36
2,51599, Note_on_c, 0, 62, 49
2,51604, Control_c, 0, 64, 29
2,51623, Control_c, 0, 64, 31
2,51641, Control_c, 0, 64, 37
2,51661, Control_c, 0, 64, 47
2,51680, Control_c, 0, 64, 57
2,51700, Control_c, 0, 64, 62
2,51719, Control_c, 0, 64, 64
2,51739, Control_c, 0, 64, 66
2,51758, Control_c, 0, 64, 68
2,51777, Control_c, 0, 64, 71
2,51794, Control_c, 0, 64, 74
2,51818, Control_c, 0, 64, 77
2,51818, Note_on_c, 0, 62, 0
2,51833, Control_c, 0, 64, 80
2,51855, Control_c, 0, 64, 81
2,51947, Control_c, 0, 64, 80
2,51970, Note_on_c, 0, 62, 50
2,51983, Note_on_c, 0, 46, 0
2,51989, Control_c, 0, 64, 79
2,52002, Note_on_c, 0, 48, 39
2,52006, Control_c, 0, 64, 78
2,52029, Control_c, 0, 64, 77
2,52045, Control_c, 0, 64, 76
2,52066, Control_c, 0, 64, 75
2,52087, Control_c, 0, 64, 74
2,52102, Control_c, 0, 64, 73
2,52118, Note_on_c, 0, 62, 0
2,52120, Note_on_c, 0, 48, 0
2,52124, Control_c, 0, 64, 71
2,52143, Control_c, 0, 64, 70
2,52152, Note_on_c, 0, 60, 55
2,52160, Control_c, 0, 64, 68
2,52165, Note_on_c, 0, 50, 37
2,52181, Control_c, 0, 64, 67
2,52201, Control_c, 0, 64, 66
2,52236, Control_c, 0, 64, 65
2,52256, Control_c, 0, 64, 64
2,52275, Control_c, 0, 64, 58
2,52296, Control_c, 0, 64, 43
2,52313, Control_c, 0, 64, 17
2,52324, Note_on_c, 0, 60, 0
2,52329, Note_on_c, 0, 50, 0
2,52334, Control_c, 0, 64, 0
2,52384, Note_on_c, 0, 51, 42
2,52389, Note_on_c, 0, 58, 50
2,52393, Control_c, 0, 64, 17
2,52412, Control_c, 0, 64, 36
2,52431, Control_c, 0, 64, 54
2,52448, Control_c, 0, 64, 62
2,52468, Control_c, 0, 64, 66
2,52486, Control_c, 0, 64, 69
2,52509, Control_c, 0, 64, 73
2,52509, Note_on_c, 0, 51, 0
2,52525, Control_c, 0, 64, 77
2,52547, Control_c, 0, 64, 83
2,52563, Control_c, 0, 64, 89
2,52568, Note_on_c, 0, 58, 0
2,52585, Control_c, 0, 64, 95
2,52602, Control_c, 0, 64, 101
2,52611, Note_on_c, 0, 68, 0
2,52622, Control_c, 0, 64, 103
2,52699, Control_c, 0, 64, 102
2,52717, Control_c, 0, 64, 99
2,52740, Control_c, 0, 64, 97
2,52755, Control_c, 0, 64, 94
2,52774, Control_c, 0, 64, 91
2,52795, Control_c, 0, 64, 88
2,52795, Note_on_c, 0, 67, 61
2,52816, Control_c, 0, 64, 86
2,52820, Note_on_c, 0, 58, 35
2,52835, Control_c, 0, 64, 83
2,52853, Control_c, 0, 64, 79
2,52874, Control_c, 0, 64, 75
2,52889, Control_c, 0, 64, 73
2,52912, Control_c, 0, 64, 70
2,52932, Control_c, 0, 64, 69
2,52950, Control_c, 0, 64, 67
2,52967, Control_c, 0, 64, 65
2,52967, Note_on_c, 0, 68, 79
2,52988, Note_on_c, 0, 56, 55
2,52992, Control_c, 0, 64, 64
2,53031, Note_on_c, 0, 67, 0
2,53064, Control_c, 0, 64, 63
2,53075, Note_on_c, 0, 58, 0
2,53101, Control_c, 0, 64, 62
2,53203, Note_on_c, 0, 70, 76
2,53208, Note_on_c, 0, 55, 45
2,53216, Control_c, 0, 64, 61
2,53216, Note_on_c, 0, 56, 0
2,53237, Control_c, 0, 64, 60
2,53255, Control_c, 0, 64, 59
2,53270, Note_on_c, 0, 68, 0
2,53274, Control_c, 0, 64, 58
2,53295, Control_c, 0, 64, 57
2,53314, Control_c, 0, 64, 55
2,53333, Control_c, 0, 64, 54
2,53351, Control_c, 0, 64, 52
2,53372, Control_c, 0, 64, 50
2,53389, Control_c, 0, 64, 49
2,53447, Control_c, 0, 64, 48
2,53466, Note_on_c, 0, 55, 0
2,53471, Control_c, 0, 64, 47
2,53487, Control_c, 0, 64, 46
2,53504, Control_c, 0, 64, 45
2,53544, Control_c, 0, 64, 44
2,53582, Control_c, 0, 64, 43
2,53619, Control_c, 0, 64, 42
2,53639, Note_on_c, 0, 55, 55
2,53643, Control_c, 0, 64, 41
2,53657, Control_c, 0, 64, 39
2,53717, Control_c, 0, 64, 38
2,53754, Control_c, 0, 64, 37
2,53773, Control_c, 0, 64, 36
2,53813, Control_c, 0, 64, 35
2,53822, Note_on_c, 0, 53, 64
2,53831, Control_c, 0, 64, 33
2,53850, Control_c, 0, 64, 31
2,53860, Note_on_c, 0, 55, 0
2,53869, Control_c, 0, 64, 27
2,53888, Control_c, 0, 64, 20
2,53906, Control_c, 0, 64, 0
2,54049, Note_on_c, 0, 52, 61
2,54049, Note_on_c, 0, 53, 0
2,54137, Control_c, 0, 64, 23
2,54161, Control_c, 0, 64, 39
2,54179, Control_c, 0, 64, 50
2,54198, Control_c, 0, 64, 58
2,54217, Control_c, 0, 64, 61
2,54235, Control_c, 0, 64, 63
2,54257, Control_c, 0, 64, 66
2,54266, Note_on_c, 0, 52, 0
2,54272, Control_c, 0, 64, 69
2,54292, Control_c, 0, 64, 74
2,54311, Control_c, 0, 64, 80
2,54331, Control_c, 0, 64, 86
2,54349, Control_c, 0, 64, 92
2,54368, Control_c, 0, 64, 95
2,54389, Control_c, 0, 64, 97
2,54407, Control_c, 0, 64, 98
2,54433, Note_on_c, 0, 67, 57
2,54467, Note_on_c, 0, 52, 45
2,54503, Control_c, 0, 64, 97
2,54523, Control_c, 0, 64, 95
2,54541, Control_c, 0, 64, 94
2,54561, Control_c, 0, 64, 93
2,54579, Control_c, 0, 64, 91
2,54601, Control_c, 0, 64, 90
2,54622, Control_c, 0, 64, 86
2,54622, Note_on_c, 0, 65, 67
2,54638, Control_c, 0, 64, 83
2,54643, Note_on_c, 0, 67, 0
2,54650, Note_on_c, 0, 50, 55
2,54657, Control_c, 0, 64, 81
2,54671, Note_on_c, 0, 52, 0
2,54679, Control_c, 0, 64, 79
2,54694, Control_c, 0, 64, 77
2,54716, Control_c, 0, 64, 76
2,54734, Control_c, 0, 64, 73
2,54756, Control_c, 0, 64, 72
2,54771, Control_c, 0, 64, 70
2,54790, Control_c, 0, 64, 69
2,54813, Control_c, 0, 64, 66
2,54817, Note_on_c, 0, 65, 0
2,54831, Control_c, 0, 64, 62
2,54853, Control_c, 0, 64, 55
2,54853, Note_on_c, 0, 64, 68
2,54871, Control_c, 0, 64, 42
2,54871, Note_on_c, 0, 48, 47
2,54878, Note_on_c, 0, 50, 0
2,54892, Control_c, 0, 64, 16
2,54909, Control_c, 0, 64, 0
2,54986, Control_c, 0, 64, 32
2,55002, Control_c, 0, 64, 49
2,55024, Control_c, 0, 64, 59
2,55043, Control_c, 0, 64, 63
2,55061, Control_c, 0, 64, 65
2,55082, Control_c, 0, 64, 66
2,55082, Note_on_c, 0, 64, 0
2,55099, Control_c, 0, 64, 68
2,55121, Control_c, 0, 64, 71
2,55138, Control_c, 0, 64, 74
2,55158, Control_c, 0, 64, 78
2,55179, Control_c, 0, 64, 81
2,55197, Control_c, 0, 64, 82
2,55224, Note_on_c, 0, 48, 0
2,55238, Note_on_c, 0, 50, 54
2,55242, Note_on_c, 0, 64, 69
2,55282, Note_on_c, 0, 70, 0
2,55350, Control_c, 0, 64, 81
2,55387, Control_c, 0, 64, 80
2,55422, Note_on_c, 0, 50, 0
2,55424, Note_on_c, 0, 62, 78
2,55428, Control_c, 0, 64, 79
2,55438, Note_on_c, 0, 52, 57
2,55447, Control_c, 0, 64, 78
2,55447, Note_on_c, 0, 64, 0
2,55466, Control_c, 0, 64, 77
2,55503, Control_c, 0, 64, 76
2,55562, Control_c, 0, 64, 73
2,55579, Control_c, 0, 64, 66
2,55595, Note_on_c, 0, 62, 0
2,55599, Control_c, 0, 64, 55
2,55608, Note_on_c, 0, 52, 0
2,55618, Control_c, 0, 64, 41
2,55623, Note_on_c, 0, 60, 69
2,55633, Note_on_c, 0, 53, 57
2,55638, Control_c, 0, 64, 29
2,55657, Control_c, 0, 64, 27
2,55675, Control_c, 0, 64, 28
2,55697, Control_c, 0, 64, 34
2,55715, Control_c, 0, 64, 45
2,55733, Control_c, 0, 64, 57
2,55752, Control_c, 0, 64, 63
2,55772, Control_c, 0, 64, 65
2,55796, Control_c, 0, 64, 67
2,55796, Note_on_c, 0, 67, 81
2,55811, Control_c, 0, 64, 69
2,55825, Note_on_c, 0, 60, 0
2,55831, Control_c, 0, 64, 72
2,55835, Note_on_c, 0, 53, 0
2,55848, Control_c, 0, 64, 76
2,55868, Control_c, 0, 64, 80
2,55888, Control_c, 0, 64, 82
2,55910, Control_c, 0, 64, 83
2,55990, Note_on_c, 0, 68, 85
2,56004, Control_c, 0, 64, 82
2,56008, Note_on_c, 0, 60, 66
2,56024, Note_on_c, 0, 67, 0
2,56040, Control_c, 0, 64, 81
2,56061, Control_c, 0, 64, 80
2,56098, Control_c, 0, 64, 79
2,56136, Control_c, 0, 64, 78
2,56157, Control_c, 0, 64, 76
2,56174, Control_c, 0, 64, 74
2,56194, Note_on_c, 0, 72, 87
2,56199, Control_c, 0, 64, 71
2,56199, Note_on_c, 0, 58, 73
2,56199, Note_on_c, 0, 68, 0
2,56215, Control_c, 0, 64, 69
2,56233, Control_c, 0, 64, 67
2,56238, Note_on_c, 0, 60, 0
2,56251, Control_c, 0, 64, 65
2,56271, Control_c, 0, 64, 64
2,56290, Control_c, 0, 64, 63
2,56349, Control_c, 0, 64, 62
2,56386, Control_c, 0, 64, 61
2,56425, Control_c, 0, 64, 60
2,56465, Control_c, 0, 64, 59
2,56465, Note_on_c, 0, 77, 84
2,56469, Note_on_c, 0, 56, 57
2,56503, Control_c, 0, 64, 58
2,56536, Note_on_c, 0, 58, 0
2,56536, Note_on_c, 0, 72, 0
2,56540, Control_c, 0, 64, 57
2,56578, Control_c, 0, 64, 56
2,56616, Control_c, 0, 64, 55
2,56637, Control_c, 0, 64, 54
2,56656, Control_c, 0, 64, 52
2,56673, Control_c, 0, 64, 50
2,56693, Control_c, 0, 64, 48
2,56715, Control_c, 0, 64, 47
2,56750, Control_c, 0, 64, 46
2,56791, Control_c, 0, 64, 44
2,56808, Control_c, 0, 64, 43
2,56828, Control_c, 0, 64, 42
2,56848, Control_c, 0, 64, 41
2,56899, Note_on_c, 0, 50, 60
2,56906, Control_c, 0, 64, 40
2,56925, Control_c, 0, 64, 39
2,56961, Control_c, 0, 64, 38
2,57088, Note_on_c, 0, 48, 66
2,57123, Note_on_c, 0, 50, 0
2,57264, Note_on_c, 0, 48, 0
2,57269, Control_c, 0, 64, 34
2,57289, Control_c, 0, 64, 17
2,57311, Control_c, 0, 64, 0
2,57317, Note_on_c, 0, 47, 69
2,57401, Control_c, 0, 64, 18
2,57422, Control_c, 0, 64, 38
2,57441, Control_c, 0, 64, 51
2,57461, Control_c, 0, 64, 60
2,57481, Control_c, 0, 64, 63
2,57481, Note_on_c, 0, 47, 0
2,57499, Control_c, 0, 64, 66
2,57517, Control_c, 0, 64, 71
2,57539, Control_c, 0, 64, 78
2,57554, Control_c, 0, 64, 86
2,57574, Control_c, 0, 64, 95
2,57593, Control_c, 0, 64, 102
2,57614, Control_c, 0, 64, 103
2,57653, Control_c, 0, 64, 102
2,57673, Control_c, 0, 64, 101
2,57691, Control_c, 0, 64, 99
2,57708, Control_c, 0, 64, 97
2,57724, Note_on_c, 0, 74, 64
2,57729, Control_c, 0, 64, 93
2,57741, Note_on_c, 0, 47, 55
2,57750, Control_c, 0, 64, 89
2,57767, Control_c, 0, 64, 86
2,57789, Control_c, 0, 64, 85
2,57807, Control_c, 0, 64, 83
2,57826, Control_c, 0, 64, 82
2,57846, Control_c, 0, 64, 80
2,57862, Control_c, 0, 64, 78
2,57881, Control_c, 0, 64, 76
2,57902, Control_c, 0, 64, 73
2,57902, Note_on_c, 0, 72, 78
2,57922, Control_c, 0, 64, 71
2,57922, Note_on_c, 0, 45, 59
2,57922, Note_on_c, 0, 47, 0
2,57935, Note_on_c, 0, 74, 0
2,57939, Control_c, 0, 64, 70
2,57958, Control_c, 0, 64, 69
2,58056, Control_c, 0, 64, 68
2,58074, Control_c, 0, 64, 66
2,58094, Control_c, 0, 64, 62
2,58101, Note_on_c, 0, 45, 0
2,58112, Control_c, 0, 64, 55
2,58116, Note_on_c, 0, 72, 0
2,58125, Note_on_c, 0, 71, 76
2,58135, Control_c, 0, 64, 44
2,58135, Note_on_c, 0, 43, 61
2,58153, Control_c, 0, 64, 28
2,58170, Control_c, 0, 64, 11
2,58188, Control_c, 0, 64, 0
2,58207, Control_c, 0, 64, 15
2,58227, Control_c, 0, 64, 28
2,58249, Control_c, 0, 64, 40
2,58268, Control_c, 0, 64, 51
2,58284, Control_c, 0, 64, 59
2,58305, Control_c, 0, 64, 63
2,58324, Control_c, 0, 64, 65
2,58335, Note_on_c, 0, 71, 0
2,58343, Control_c, 0, 64, 69
2,58363, Control_c, 0, 64, 74
2,58381, Control_c, 0, 64, 80
2,58400, Control_c, 0, 64, 87
2,58418, Control_c, 0, 64, 93
2,58438, Control_c, 0, 64, 95
2,58457, Control_c, 0, 64, 96
2,58536, Control_c, 0, 64, 95
2,58538, Note_on_c, 0, 71, 68
2,58543, Note_on_c, 0, 45, 57
2,58575, Control_c, 0, 64, 94
2,58595, Control_c, 0, 64, 93
2,58595, Note_on_c, 0, 43, 0
2,58597, Note_on_c, 0, 77, 0
2,58613, Control_c, 0, 64, 92
2,58631, Control_c, 0, 64, 91
2,58651, Control_c, 0, 64, 89
2,58670, Control_c, 0, 64, 87
2,58690, Control_c, 0, 64, 85
2,58707, Control_c, 0, 64, 84
2,58716, Note_on_c, 0, 45, 0
2,58719, Note_on_c, 0, 47, 66
2,58724, Note_on_c, 0, 69, 76
2,58728, Control_c, 0, 64, 82
2,58746, Control_c, 0, 64, 80
2,58767, Control_c, 0, 64, 79
2,58767, Note_on_c, 0, 71, 0
2,58786, Control_c, 0, 64, 77
2,58804, Control_c, 0, 64, 76
2,58822, Control_c, 0, 64, 74
2,58843, Control_c, 0, 64, 72
2,58861, Note_on_c, 0, 47, 0
2,58863, Control_c, 0, 64, 70
2,58881, Control_c, 0, 64, 69
2,58899, Control_c, 0, 64, 67
2,58916, Note_on_c, 0, 69, 0
2,58956, Note_on_c, 0, 48, 61
2,58960, Control_c, 0, 64, 65
2,58975, Note_on_c, 0, 67, 78
2,58978, Control_c, 0, 64, 61
2,58996, Control_c, 0, 64, 48
2,59014, Control_c, 0, 64, 0
2,59148, Control_c, 0, 64, 41
2,59168, Control_c, 0, 64, 59
2,59187, Control_c, 0, 64, 66
2,59210, Control_c, 0, 64, 71
2,59228, Control_c, 0, 64, 80
2,59246, Control_c, 0, 64, 94
2,59265, Control_c, 0, 64, 127
2,59297, Note_on_c, 0, 67, 0
2,59328, Note_on_c, 0, 56, 0
2,59398, Note_on_c, 0, 75, 83
2,59412, Note_on_c, 0, 67, 74
2,59517, Note_on_c, 0, 67, 0
2,59550, Note_on_c, 0, 48, 0
2,59594, Note_on_c, 0, 75, 0
2,59603, Note_on_c, 0, 69, 82
2,59802, Control_c, 0, 64, 116
2,59822, Control_c, 0, 64, 108
2,59843, Control_c, 0, 64, 102
2,59858, Control_c, 0, 64, 97
2,59878, Control_c, 0, 64, 93
2,59897, Control_c, 0, 64, 88
2,59917, Control_c, 0, 64, 83
2,59932, Note_on_c, 0, 55, 82
2,59938, Control_c, 0, 64, 79
2,59955, Control_c, 0, 64, 77
2,59978, Control_c, 0, 64, 75
2,59984, Note_on_c, 0, 74, 71
2,59989, Note_on_c, 0, 69, 0
2,59996, Control_c, 0, 64, 73
2,60004, Note_on_c, 0, 71, 68
2,60014, Control_c, 0, 64, 71
2,60033, Control_c, 0, 64, 70
2,60052, Control_c, 0, 64, 67
2,60070, Control_c, 0, 64, 64
2,60090, Control_c, 0, 64, 60
2,60111, Control_c, 0, 64, 54
2,60130, Control_c, 0, 64, 46
2,60149, Control_c, 0, 64, 37
2,60166, Control_c, 0, 64, 32
2,60185, Control_c, 0, 64, 29
2,60225, Control_c, 0, 64, 28
2,60343, Control_c, 0, 64, 29
2,60494, Control_c, 0, 64, 30
2,60503, Note_on_c, 0, 79, 79
2,60531, Note_on_c, 0, 69, 51
2,60551, Note_on_c, 0, 71, 0
2,60589, Control_c, 0, 64, 31
2,60620, Note_on_c, 0, 74, 0
2,60626, Control_c, 0, 64, 32
2,60666, Control_c, 0, 64, 33
2,60715, Note_on_c, 0, 71, 77
2,60724, Note_on_c, 0, 69, 0
2,60762, Control_c, 0, 64, 34
2,60819, Control_c, 0, 64, 35
2,60895, Control_c, 0, 64, 36
2,60934, Control_c, 0, 64, 37
2,60954, Note_on_c, 0, 56, 70
2,60969, Note_on_c, 0, 72, 62
2,61011, Control_c, 0, 64, 38
2,61027, Note_on_c, 0, 71, 0
2,61099, Note_on_c, 0, 55, 0
2,61173, Note_on_c, 0, 71, 66
2,61206, Control_c, 0, 64, 39
2,61224, Note_on_c, 0, 72, 0
2,61370, Note_on_c, 0, 72, 74
2,61428, Note_on_c, 0, 71, 0
2,61510, Control_c, 0, 64, 40
2,61545, Note_on_c, 0, 74, 76
2,61552, Control_c, 0, 64, 41
2,61552, Note_on_c, 0, 79, 0
2,61588, Control_c, 0, 64, 42
2,61626, Control_c, 0, 64, 43
2,61723, Control_c, 0, 64, 44
2,61789, Note_on_c, 0, 55, 68
2,61795, Note_on_c, 0, 75, 66
2,61842, Note_on_c, 0, 74, 0
2,61908, Note_on_c, 0, 56, 0
2,61972, Control_c, 0, 64, 43
2,62031, Control_c, 0, 64, 42
2,62067, Control_c, 0, 64, 41
2,62126, Control_c, 0, 64, 42
2,62163, Control_c, 0, 64, 43
2,62182, Control_c, 0, 64, 46
2,62201, Control_c, 0, 64, 51
2,62222, Control_c, 0, 64, 56
2,62222, Note_on_c, 0, 72, 0
2,62234, Note_on_c, 0, 70, 60
2,62241, Control_c, 0, 64, 59
2,62259, Control_c, 0, 64, 61
2,62279, Control_c, 0, 64, 63
2,62296, Control_c, 0, 64, 64
2,62317, Control_c, 0, 64, 66
2,62337, Control_c, 0, 64, 69
2,62354, Control_c, 0, 64, 73
2,62374, Control_c, 0, 64, 80
2,62393, Control_c, 0, 64, 89
2,62414, Control_c, 0, 64, 100
2,62432, Control_c, 0, 64, 110
2,62452, Control_c, 0, 64, 116
2,62508, Control_c, 0, 64, 113
2,62528, Control_c, 0, 64, 108
2,62548, Control_c, 0, 64, 104
2,62566, Control_c, 0, 64, 99
2,62586, Control_c, 0, 64, 95
2,62605, Control_c, 0, 64, 92
2,62624, Control_c, 0, 64, 88
2,62643, Control_c, 0, 64, 84
2,62666, Control_c, 0, 64, 80
2,62676, Note_on_c, 0, 54, 66
2,62682, Control_c, 0, 64, 78
2,62694, Note_on_c, 0, 69, 56
2,62699, Note_on_c, 0, 70, 0
2,62701, Control_c, 0, 64, 76
2,62719, Control_c, 0, 64, 75
2,62740, Control_c, 0, 64, 74
2,62760, Control_c, 0, 64, 72
2,62778, Control_c, 0, 64, 70
2,62796, Control_c, 0, 64, 68
2,62818, Control_c, 0, 64, 67
2,62838, Control_c, 0, 64, 66
2,62855, Control_c, 0, 64, 65
2,62871, Note_on_c, 0, 72, 76
2,62878, Note_on_c, 0, 69, 0
2,62913, Control_c, 0, 64, 64
2,62927, Note_on_c, 0, 55, 0
2,62952, Control_c, 0, 64, 63
2,63008, Control_c, 0, 64, 62
2,63028, Control_c, 0, 64, 61
2,63048, Control_c, 0, 64, 60
2,63072, Control_c, 0, 64, 59
2,63072, Note_on_c, 0, 71, 75
2,63072, Note_on_c, 0, 74, 77
2,63086, Control_c, 0, 64, 58
2,63105, Note_on_c, 0, 75, 0
2,63108, Control_c, 0, 64, 56
2,63108, Note_on_c, 0, 72, 0
2,63126, Control_c, 0, 64, 55
2,63142, Control_c, 0, 64, 53
2,63161, Control_c, 0, 64, 52
2,63186, Control_c, 0, 64, 50
2,63201, Control_c, 0, 64, 49
2,63221, Control_c, 0, 64, 47
2,63241, Control_c, 0, 64, 44
2,63252, Note_on_c, 0, 75, 76
2,63263, Control_c, 0, 64, 42
2,63263, Note_on_c, 0, 72, 78
2,63282, Control_c, 0, 64, 40
2,63298, Control_c, 0, 64, 39
2,63304, Note_on_c, 0, 71, 0
2,63308, Note_on_c, 0, 74, 0
2,63504, Note_on_c, 0, 59, 71
2,63516, Note_on_c, 0, 74, 68
2,63516, Note_on_c, 0, 77, 74
2,63564, Note_on_c, 0, 75, 0
2,63575, Note_on_c, 0, 72, 0
2,63632, Note_on_c, 0, 54, 0
2,63645, Control_c, 0, 64, 40
2,63720, Control_c, 0, 64, 41
2,63724, Note_on_c, 0, 72, 73
2,63783, Note_on_c, 0, 74, 0
2,63798, Control_c, 0, 64, 42
2,63835, Control_c, 0, 64, 43
2,63855, Control_c, 0, 64, 46
2,63874, Control_c, 0, 64, 50
2,63893, Control_c, 0, 64, 54
2,63915, Control_c, 0, 64, 58
2,63926, Note_on_c, 0, 71, 75
2,63933, Control_c, 0, 64, 60
2,63949, Note_on_c, 0, 72, 0
2,63953, Control_c, 0, 64, 62
2,63969, Control_c, 0, 64, 63
2,63990, Control_c, 0, 64, 65
2,64010, Control_c, 0, 64, 67
2,64027, Control_c, 0, 64, 69
2,64048, Control_c, 0, 64, 71
2,64067, Control_c, 0, 64, 73
2,64085, Control_c, 0, 64, 74
2,64106, Control_c, 0, 64, 75
2,64115, Note_on_c, 0, 69, 75
2,64128, Note_on_c, 0, 71, 0
2,64181, Control_c, 0, 64, 74
2,64219, Control_c, 0, 64, 73
2,64259, Control_c, 0, 64, 72
2,64278, Control_c, 0, 64, 71
2,64334, Control_c, 0, 64, 70
2,64343, Note_on_c, 0, 69, 0
2,64351, Note_on_c, 0, 60, 75
2,64351, Note_on_c, 0, 67, 73
2,64393, Control_c, 0, 64, 69
2,64412, Control_c, 0, 64, 64
2,64430, Control_c, 0, 64, 56
2,64442, Note_on_c, 0, 77, 0
2,64451, Control_c, 0, 64, 43
2,64463, Note_on_c, 0, 59, 0
2,64469, Control_c, 0, 64, 28
2,64491, Control_c, 0, 64, 18
2,64526, Control_c, 0, 64, 24
2,64542, Note_on_c, 0, 75, 81
2,64547, Control_c, 0, 64, 38
2,64565, Control_c, 0, 64, 51
2,64585, Control_c, 0, 64, 60
2,64602, Control_c, 0, 64, 64
2,64624, Control_c, 0, 64, 66
2,64645, Control_c, 0, 64, 69
2,64662, Control_c, 0, 64, 73
2,64680, Control_c, 0, 64, 78
2,64703, Control_c, 0, 64, 83
2,64714, Note_on_c, 0, 67, 0
2,64723, Control_c, 0, 64, 88
2,64740, Note_on_c, 0, 77, 85
2,64745, Control_c, 0, 64, 92
2,64757, Control_c, 0, 64, 95
2,64775, Control_c, 0, 64, 97
2,64802, Note_on_c, 0, 75, 0
2,64928, Note_on_c, 0, 79, 89
2,64947, Note_on_c, 0, 60, 0
2,64966, Note_on_c, 0, 77, 0
2,64987, Control_c, 0, 64, 96
2,65044, Control_c, 0, 64, 95
2,65086, Control_c, 0, 64, 94
2,65141, Control_c, 0, 64, 93
2,65161, Control_c, 0, 64, 92
2,65169, Note_on_c, 0, 53, 77
2,65175, Note_on_c, 0, 79, 0
2,65184, Note_on_c, 0, 80, 78
2,65198, Control_c, 0, 64, 91
2,65220, Control_c, 0, 64, 90
2,65237, Control_c, 0, 64, 84
2,65257, Control_c, 0, 64, 71
2,65275, Control_c, 0, 64, 60
2,65295, Control_c, 0, 64, 46
2,65315, Control_c, 0, 64, 33
2,65332, Control_c, 0, 64, 26
2,65372, Control_c, 0, 64, 27
2,65390, Control_c, 0, 64, 32
2,65396, Note_on_c, 0, 65, 70
2,65409, Control_c, 0, 64, 39
2,65431, Control_c, 0, 64, 48
2,65447, Control_c, 0, 64, 57
2,65470, Control_c, 0, 64, 62
2,65487, Control_c, 0, 64, 64
2,65510, Control_c, 0, 64, 65
2,65547, Control_c, 0, 64, 67
2,65566, Control_c, 0, 64, 69
2,65584, Control_c, 0, 64, 72
2,65588, Note_on_c, 0, 63, 74
2,65604, Control_c, 0, 64, 78
2,65608, Note_on_c, 0, 65, 0
2,65621, Control_c, 0, 64, 87
2,65639, Control_c, 0, 64, 100
2,65659, Control_c, 0, 64, 115
2,65682, Control_c, 0, 64, 127
2,65686, Note_on_c, 0, 63, 0
2,65766, Note_on_c, 0, 62, 82
2,65840, Note_on_c, 0, 62, 0
2,65881, Note_on_c, 0, 53, 0
2,66000, Note_on_c, 0, 52, 74
2,66006, Control_c, 0, 64, 113
2,66018, Note_on_c, 0, 60, 68
2,66027, Control_c, 0, 64, 105
2,66044, Control_c, 0, 64, 98
2,66063, Control_c, 0, 64, 92
2,66084, Control_c, 0, 64, 86
2,66091, Note_on_c, 0, 80, 0
2,66101, Control_c, 0, 64, 82
2,66120, Control_c, 0, 64, 78
2,66138, Control_c, 0, 64, 75
2,66159, Control_c, 0, 64, 73
2,66178, Control_c, 0, 64, 70
2,66198, Control_c, 0, 64, 67
2,66200, Note_on_c, 0, 79, 81
2,66217, Control_c, 0, 64, 65
2,66235, Control_c, 0, 64, 64
2,66292, Control_c, 0, 64, 63
2,66333, Control_c, 0, 64, 62
2,66391, Control_c, 0, 64, 61
2,66400, Note_on_c, 0, 81, 85
2,66410, Control_c, 0, 64, 60
2,66446, Control_c, 0, 64, 59
2,66470, Control_c, 0, 64, 58
2,66485, Note_on_c, 0, 79, 0
2,66490, Control_c, 0, 64, 57
2,66504, Control_c, 0, 64, 56
2,66523, Control_c, 0, 64, 55
2,66543, Control_c, 0, 64, 54
2,66562, Control_c, 0, 64, 52
2,66581, Control_c, 0, 64, 49
2,66603, Control_c, 0, 64, 46
2,66603, Note_on_c, 0, 83, 86
2,66619, Control_c, 0, 64, 44
2,66639, Control_c, 0, 64, 43
2,66650, Note_on_c, 0, 81, 0
2,66660, Control_c, 0, 64, 41
2,66677, Control_c, 0, 64, 38
2,66696, Control_c, 0, 64, 35
2,66718, Control_c, 0, 64, 32
2,66733, Control_c, 0, 64, 28
2,66758, Control_c, 0, 64, 25
2,66774, Control_c, 0, 64, 23
2,66792, Control_c, 0, 64, 22
2,66813, Control_c, 0, 64, 20
2,66830, Note_on_c, 0, 51, 79
2,66834, Control_c, 0, 64, 18
2,66843, Note_on_c, 0, 84, 78
2,66852, Control_c, 0, 64, 17
2,66875, Note_on_c, 0, 83, 0
2,66885, Note_on_c, 0, 52, 0
2,66926, Control_c, 0, 64, 18
2,66946, Control_c, 0, 64, 22
2,66964, Control_c, 0, 64, 28
2,66985, Control_c, 0, 64, 35
2,67004, Control_c, 0, 64, 42
2,67026, Control_c, 0, 64, 50
2,67041, Control_c, 0, 64, 55
2,67062, Control_c, 0, 64, 58
2,67070, Note_on_c, 0, 72, 76
2,67079, Control_c, 0, 64, 60
2,67099, Control_c, 0, 64, 61
2,67120, Control_c, 0, 64, 63
2,67137, Control_c, 0, 64, 64
2,67156, Control_c, 0, 64, 65
2,67176, Control_c, 0, 64, 68
2,67188, Note_on_c, 0, 72, 0
2,67197, Control_c, 0, 64, 71
2,67215, Control_c, 0, 64, 77
2,67233, Control_c, 0, 64, 83
2,67253, Control_c, 0, 64, 91
2,67270, Note_on_c, 0, 74, 84
2,67273, Control_c, 0, 64, 101
2,67291, Note_on_c, 0, 60, 0
2,67295, Control_c, 0, 64, 127
2,67454, Note_on_c, 0, 75, 89
2,67489, Note_on_c, 0, 74, 0
2,67554, Note_on_c, 0, 51, 0
2,67618, Control_c, 0, 64, 115
2,67636, Note_on_c, 0, 51, 60
2,67638, Control_c, 0, 64, 108
2,67656, Control_c, 0, 64, 102
2,67678, Control_c, 0, 64, 98
2,67696, Control_c, 0, 64, 94
2,67717, Control_c, 0, 64, 90
2,67733, Control_c, 0, 64, 87
2,67737, Note_on_c, 0, 77, 80
2,67755, Control_c, 0, 64, 84
2,67771, Control_c, 0, 64, 81
2,67789, Note_on_c, 0, 75, 0
2,67793, Control_c, 0, 64, 79
2,67810, Control_c, 0, 64, 78
2,67829, Control_c, 0, 64, 77
2,67851, Control_c, 0, 64, 76
2,67855, Note_on_c, 0, 50, 62
2,67855, Note_on_c, 0, 51, 0
2,67869, Control_c, 0, 64, 74
2,67885, Control_c, 0, 64, 73
2,67905, Control_c, 0, 64, 72
2,67924, Control_c, 0, 64, 71
2,67963, Control_c, 0, 64, 70
2,67968, Note_on_c, 0, 50, 0
2,67972, Note_on_c, 0, 51, 71
2,68022, Control_c, 0, 64, 69
2,68041, Control_c, 0, 64, 68
2,68047, Note_on_c, 0, 50, 67
2,68055, Note_on_c, 0, 51, 0
2,68079, Control_c, 0, 64, 67
2,68128, Note_on_c, 0, 51, 68
2,68133, Note_on_c, 0, 50, 0
2,68157, Control_c, 0, 64, 66
2,68172, Note_on_c, 0, 83, 74
2,68194, Control_c, 0, 64, 65
2,68206, Note_on_c, 0, 50, 72
2,68211, Note_on_c, 0, 51, 0
2,68234, Control_c, 0, 64, 64
2,68253, Note_on_c, 0, 84, 0
2,68257, Control_c, 0, 64, 63
2,68282, Note_on_c, 0, 51, 73
2,68288, Note_on_c, 0, 50, 0
2,68292, Control_c, 0, 64, 62
2,68328, Control_c, 0, 64, 61
2,68352, Note_on_c, 0, 50, 65
2,68364, Note_on_c, 0, 51, 0
2,68368, Control_c, 0, 64, 60
2,68373, Note_on_c, 0, 81, 78
2,68386, Control_c, 0, 64, 59
2,68403, Control_c, 0, 64, 58
2,68427, Control_c, 0, 64, 57
2,68427, Note_on_c, 0, 83, 0
2,68433, Note_on_c, 0, 51, 79
2,68441, Note_on_c, 0, 50, 0
2,68446, Control_c, 0, 64, 56
2,68465, Control_c, 0, 64, 55
2,68482, Control_c, 0, 64, 53
2,68501, Control_c, 0, 64, 52
2,68521, Control_c, 0, 64, 51
2,68539, Note_on_c, 0, 50, 69
2,68541, Control_c, 0, 64, 49
2,68546, Note_on_c, 0, 51, 0
2,68561, Control_c, 0, 64, 47
2,68580, Control_c, 0, 64, 45
2,68593, Note_on_c, 0, 83, 70
2,68597, Control_c, 0, 64, 42
2,68615, Note_on_c, 0, 81, 0
2,68619, Control_c, 0, 64, 38
2,68635, Control_c, 0, 64, 26
2,68657, Control_c, 0, 64, 0
2,69006, Note_on_c, 0, 77, 0
2,69011, Note_on_c, 0, 75, 67
2,69212, Note_on_c, 0, 74, 69
2,69260, Note_on_c, 0, 83, 0
2,69266, Note_on_c, 0, 75, 0
2,69537, Note_on_c, 0, 48, 34
2,69541, Note_on_c, 0, 74, 0
2,69552, Note_on_c, 0, 50, 0
2,69552, Note_on_c, 0, 84, 56
2,69571, Note_on_c, 0, 75, 40
2,69597, Control_c, 0, 64, 18
2,69615, Control_c, 0, 64, 31
2,69633, Control_c, 0, 64, 43
2,69654, Control_c, 0, 64, 51
2,69674, Control_c, 0, 64, 57
2,69691, Control_c, 0, 64, 61
2,69710, Control_c, 0, 64, 65
2,69729, Control_c, 0, 64, 70
2,69748, Control_c, 0, 64, 81
2,69753, Note_on_c, 0, 84, 0
2,69769, Control_c, 0, 64, 110
2,69782, Note_on_c, 0, 48, 0
2,69784, Note_on_c, 0, 75, 0
2,69787, Control_c, 0, 64, 127
2,70058, Control_c, 0, 64, 113
2,70074, Control_c, 0, 64, 102
2,70088, Note_on_c, 0, 79, 60
2,70094, Control_c, 0, 64, 95
2,70101, Note_on_c, 0, 72, 50
2,70113, Control_c, 0, 64, 90
2,70134, Control_c, 0, 64, 85
2,70152, Control_c, 0, 64, 81
2,70172, Control_c, 0, 64, 78
2,70191, Control_c, 0, 64, 75
2,70209, Control_c, 0, 64, 73
2,70230, Control_c, 0, 64, 71
2,70250, Control_c, 0, 64, 69
2,70268, Control_c, 0, 64, 67
2,70284, Note_on_c, 0, 72, 0
2,70287, Control_c, 0, 64, 65
2,70297, Note_on_c, 0, 74, 65
2,70305, Control_c, 0, 64, 64
2,70314, Note_on_c, 0, 79, 0
2,70363, Control_c, 0, 64, 63
2,70401, Control_c, 0, 64, 62
2,70419, Control_c, 0, 64, 61
2,70479, Control_c, 0, 64, 60
2,70516, Control_c, 0, 64, 58
2,70525, Note_on_c, 0, 84, 59
2,70540, Control_c, 0, 64, 56
2,70540, Note_on_c, 0, 75, 44
2,70557, Control_c, 0, 64, 52
2,70557, Note_on_c, 0, 74, 0
2,70575, Control_c, 0, 64, 47
2,70596, Control_c, 0, 64, 40
2,70614, Control_c, 0, 64, 35
2,70634, Control_c, 0, 64, 28
2,70650, Control_c, 0, 64, 23
2,70672, Control_c, 0, 64, 19
2,70690, Control_c, 0, 64, 18
2,70710, Control_c, 0, 64, 17
2,70970, Note_on_c, 0, 72, 48
2,71157, Note_on_c, 0, 70, 56
2,71181, Note_on_c, 0, 72, 0
2,71226, Control_c, 0, 64, 13
2,71247, Control_c, 0, 64, 0
2,71325, Note_on_c, 0, 70, 0
2,71344, Control_c, 0, 64, 9
2,71363, Control_c, 0, 64, 23
2,71383, Control_c, 0, 64, 35
2,71383, Note_on_c, 0, 69, 49
2,71399, Control_c, 0, 64, 47
2,71422, Control_c, 0, 64, 58
2,71422, Note_on_c, 0, 84, 0
2,71439, Control_c, 0, 64, 62
2,71457, Control_c, 0, 64, 65
2,71477, Control_c, 0, 64, 67
2,71498, Control_c, 0, 64, 71
2,71498, Note_on_c, 0, 69, 0
2,71515, Control_c, 0, 64, 77
2,71533, Control_c, 0, 64, 83
2,71558, Control_c, 0, 64, 88
2,71573, Control_c, 0, 64, 90
2,71650, Control_c, 0, 64, 89
2,71668, Control_c, 0, 64, 88
2,71688, Control_c, 0, 64, 87
2,71709, Control_c, 0, 64, 85
2,71727, Control_c, 0, 64, 83
2,71745, Control_c, 0, 64, 80
2,71768, Control_c, 0, 64, 77
2,71777, Note_on_c, 0, 84, 50
2,71786, Control_c, 0, 64, 75
2,71804, Control_c, 0, 64, 73
2,71806, Note_on_c, 0, 69, 30
2,71821, Control_c, 0, 64, 71
2,71844, Control_c, 0, 64, 69
2,71860, Control_c, 0, 64, 67
2,71880, Control_c, 0, 64, 65
2,71902, Control_c, 0, 64, 64
2,71918, Control_c, 0, 64, 63
2,71927, Note_on_c, 0, 84, 0
2,71948, Note_on_c, 0, 82, 61
2,71957, Control_c, 0, 64, 62
2,71968, Note_on_c, 0, 67, 40
2,71998, Note_on_c, 0, 69, 0
2,72034, Control_c, 0, 64, 61
2,72074, Control_c, 0, 64, 60
2,72091, Control_c, 0, 64, 56
2,72111, Control_c, 0, 64, 49
2,72118, Note_on_c, 0, 82, 0
2,72130, Control_c, 0, 64, 39
2,72149, Control_c, 0, 64, 30
2,72169, Control_c, 0, 64, 23
2,72173, Note_on_c, 0, 81, 55
2,72188, Control_c, 0, 64, 22
2,72199, Note_on_c, 0, 65, 33
2,72204, Note_on_c, 0, 67, 0
2,72206, Control_c, 0, 64, 24
2,72226, Control_c, 0, 64, 31
2,72246, Control_c, 0, 64, 44
2,72266, Control_c, 0, 64, 55
2,72283, Control_c, 0, 64, 61
2,72302, Control_c, 0, 64, 64
2,72320, Note_on_c, 0, 81, 0
2,72322, Control_c, 0, 64, 66
2,72341, Control_c, 0, 64, 70
2,72359, Control_c, 0, 64, 75
2,72378, Control_c, 0, 64, 81
2,72397, Control_c, 0, 64, 87
2,72419, Control_c, 0, 64, 92
2,72437, Control_c, 0, 64, 95
2,72455, Control_c, 0, 64, 97
2,72532, Control_c, 0, 64, 95
2,72554, Control_c, 0, 64, 92
2,72572, Control_c, 0, 64, 89
2,72588, Note_on_c, 0, 81, 54
2,72593, Control_c, 0, 64, 87
2,72613, Control_c, 0, 64, 85
2,72613, Note_on_c, 0, 67, 42
2,72620, Note_on_c, 0, 65, 0
2,72628, Control_c, 0, 64, 84
2,72651, Control_c, 0, 64, 83
2,72668, Control_c, 0, 64, 82
2,72685, Control_c, 0, 64, 80
2,72705, Control_c, 0, 64, 78
2,72724, Control_c, 0, 64, 75
2,72744, Control_c, 0, 64, 73
2,72769, Control_c, 0, 64, 71
2,72769, Note_on_c, 0, 67, 0
2,72769, Note_on_c, 0, 79, 71
2,72769, Note_on_c, 0, 81, 0
2,72783, Control_c, 0, 64, 69
2,72796, Note_on_c, 0, 69, 46
2,72803, Control_c, 0, 64, 68
2,72820, Control_c, 0, 64, 67
2,72843, Control_c, 0, 64, 66
2,72860, Control_c, 0, 64, 65
2,72879, Control_c, 0, 64, 64
2,72899, Control_c, 0, 64, 63
2,72899, Note_on_c, 0, 75, 0
2,72916, Control_c, 0, 64, 61
2,72936, Control_c, 0, 64, 57
2,72956, Control_c, 0, 64, 49
2,72975, Note_on_c, 0, 69, 0
2,72978, Control_c, 0, 64, 34
2,72997, Control_c, 0, 64, 0
2,73008, Note_on_c, 0, 77, 65
2,73022, Note_on_c, 0, 70, 44
2,73033, Note_on_c, 0, 79, 0
2,73090, Control_c, 0, 64, 19
2,73113, Control_c, 0, 64, 36
2,73129, Control_c, 0, 64, 48
2,73146, Control_c, 0, 64, 57
2,73167, Control_c, 0, 64, 61
2,73188, Control_c, 0, 64, 63
2,73206, Control_c, 0, 64, 65
2,73224, Control_c, 0, 64, 68
2,73244, Control_c, 0, 64, 73
2,73263, Control_c, 0, 64, 80
2,73283, Control_c, 0, 64, 87
2,73301, Control_c, 0, 64, 93
2,73301, Note_on_c, 0, 70, 0
2,73324, Control_c, 0, 64, 97
2,73338, Control_c, 0, 64, 101
2,73359, Control_c, 0, 64, 103
2,73414, Note_on_c, 0, 58, 30
2,73414, Note_on_c, 0, 77, 0
2,73436, Control_c, 0, 64, 102
2,73436, Note_on_c, 0, 79, 62
2,73447, Note_on_c, 0, 70, 53
2,73456, Control_c, 0, 64, 100
2,73474, Control_c, 0, 64, 99
2,73496, Control_c, 0, 64, 96
2,73514, Note_on_c, 0, 70, 0
2,73518, Control_c, 0, 64, 94
2,73532, Control_c, 0, 64, 91
2,73553, Control_c, 0, 64, 88
2,73569, Control_c, 0, 64, 85
2,73590, Control_c, 0, 64, 82
2,73595, Note_on_c, 0, 58, 0
2,73610, Control_c, 0, 64, 79
2,73612, Note_on_c, 0, 81, 67
2,73623, Note_on_c, 0, 79, 0
2,73628, Control_c, 0, 64, 76
2,73644, Note_on_c, 0, 72, 57
2,73648, Control_c, 0, 64, 74
2,73666, Control_c, 0, 64, 72
2,73688, Control_c, 0, 64, 71
2,73697, Note_on_c, 0, 81, 0
2,73708, Control_c, 0, 64, 69
2,73726, Control_c, 0, 64, 68
2,73743, Control_c, 0, 64, 67
2,73761, Control_c, 0, 64, 66
2,73783, Note_on_c, 0, 72, 0
2,73783, Note_on_c, 0, 72, 19
2,73839, Control_c, 0, 64, 65
2,73848, Note_on_c, 0, 82, 59
2,73861, Control_c, 0, 64, 64
2,73861, Note_on_c, 0, 72, 0
2,73872, Note_on_c, 0, 73, 46
2,73879, Control_c, 0, 64, 61
2,73898, Control_c, 0, 64, 54
2,73915, Control_c, 0, 64, 47
2,73935, Control_c, 0, 64, 39
2,73955, Control_c, 0, 64, 32
2,73973, Control_c, 0, 64, 27
2,74012, Control_c, 0, 64, 26
2,74202, Control_c, 0, 64, 27
2,74223, Control_c, 0, 64, 28
2,74293, Note_on_c, 0, 70, 38
2,74319, Control_c, 0, 64, 29
2,74465, Note_on_c, 0, 68, 53
2,74510, Note_on_c, 0, 70, 0
2,74549, Control_c, 0, 64, 28
2,74568, Control_c, 0, 64, 27
2,74587, Control_c, 0, 64, 26
2,74607, Control_c, 0, 64, 25
2,74622, Note_on_c, 0, 68, 0
2,74664, Control_c, 0, 64, 29
2,74678, Note_on_c, 0, 67, 48
2,74683, Control_c, 0, 64, 37
2,74704, Control_c, 0, 64, 46
2,74721, Control_c, 0, 64, 55
2,74742, Control_c, 0, 64, 61
2,74762, Control_c, 0, 64, 64
2,74781, Control_c, 0, 64, 66
2,74790, Note_on_c, 0, 82, 0
2,74799, Control_c, 0, 64, 69
2,74819, Control_c, 0, 64, 74
2,74819, Note_on_c, 0, 67, 0
2,74838, Control_c, 0, 64, 80
2,74856, Control_c, 0, 64, 86
2,74874, Control_c, 0, 64, 91
2,74990, Control_c, 0, 64, 90
2,75010, Control_c, 0, 64, 87
2,75029, Control_c, 0, 64, 85
2,75048, Control_c, 0, 64, 84
2,75068, Control_c, 0, 64, 83
2,75084, Note_on_c, 0, 82, 52
2,75086, Control_c, 0, 64, 82
2,75107, Control_c, 0, 64, 81
2,75107, Note_on_c, 0, 67, 36
2,75126, Control_c, 0, 64, 79
2,75144, Control_c, 0, 64, 76
2,75163, Control_c, 0, 64, 74
2,75184, Control_c, 0, 64, 72
2,75202, Control_c, 0, 64, 70
2,75220, Control_c, 0, 64, 68
2,75241, Control_c, 0, 64, 67
2,75255, Note_on_c, 0, 82, 0
2,75259, Note_on_c, 0, 80, 66
2,75260, Control_c, 0, 64, 66
2,75274, Note_on_c, 0, 65, 31
2,75279, Control_c, 0, 64, 65
2,75305, Note_on_c, 0, 67, 0
2,75335, Control_c, 0, 64, 64
2,75393, Control_c, 0, 64, 61
2,75400, Note_on_c, 0, 80, 0
2,75412, Control_c, 0, 64, 55
2,75432, Control_c, 0, 64, 46
2,75451, Control_c, 0, 64, 38
2,75472, Control_c, 0, 64, 33
2,75482, Note_on_c, 0, 79, 61
2,75491, Control_c, 0, 64, 32
2,75518, Note_on_c, 0, 65, 0
2,75524, Note_on_c, 0, 63, 34
2,75529, Control_c, 0, 64, 38
2,75547, Control_c, 0, 64, 50
2,75569, Control_c, 0, 64, 59
2,75585, Control_c, 0, 64, 63
2,75606, Control_c, 0, 64, 65
2,75610, Note_on_c, 0, 79, 0
2,75626, Control_c, 0, 64, 67
2,75646, Control_c, 0, 64, 71
2,75661, Control_c, 0, 64, 78
2,75684, Control_c, 0, 64, 88
2,75703, Control_c, 0, 64, 105
2,75721, Control_c, 0, 64, 127
2,75893, Control_c, 0, 64, 122
2,75900, Note_on_c, 0, 79, 61
2,75913, Control_c, 0, 64, 107
2,75919, Note_on_c, 0, 63, 0
2,75931, Note_on_c, 0, 65, 37
2,75933, Control_c, 0, 64, 99
2,75951, Control_c, 0, 64, 93
2,75970, Control_c, 0, 64, 88
2,75989, Control_c, 0, 64, 82
2,76009, Control_c, 0, 64, 78
2,76027, Control_c, 0, 64, 75
2,76047, Control_c, 0, 64, 72
2,76069, Control_c, 0, 64, 70
2,76080, Note_on_c, 0, 79, 0
2,76082, Note_on_c, 0, 77, 68
2,76086, Control_c, 0, 64, 69
2,76097, Note_on_c, 0, 65, 0
2,76097, Note_on_c, 0, 67, 42
2,76106, Control_c, 0, 64, 68
2,76124, Control_c, 0, 64, 67
2,76142, Control_c, 0, 64, 66
2,76161, Control_c, 0, 64, 65
2,76201, Note_on_c, 0, 73, 0
2,76256, Control_c, 0, 64, 64
2,76271, Note_on_c, 0, 67, 0
2,76296, Control_c, 0, 64, 63
2,76315, Control_c, 0, 64, 61
2,76335, Control_c, 0, 64, 56
2,76355, Control_c, 0, 64, 49
2,76359, Note_on_c, 0, 75, 56
2,76373, Control_c, 0, 64, 37
2,76380, Note_on_c, 0, 77, 0
2,76394, Control_c, 0, 64, 30
2,76403, Note_on_c, 0, 68, 34
2,76413, Control_c, 0, 64, 29
2,76431, Control_c, 0, 64, 31
2,76451, Control_c, 0, 64, 40
2,76468, Control_c, 0, 64, 51
2,76488, Control_c, 0, 64, 61
2,76508, Control_c, 0, 64, 65
2,76527, Control_c, 0, 64, 68
2,76545, Control_c, 0, 64, 72
2,76567, Control_c, 0, 64, 77
2,76584, Control_c, 0, 64, 83
2,76604, Control_c, 0, 64, 88
2,76621, Control_c, 0, 64, 92
2,76639, Note_on_c, 0, 68, 0
2,76641, Control_c, 0, 64, 94
2,76699, Control_c, 0, 64, 95
2,76764, Note_on_c, 0, 75, 0
2,76775, Note_on_c, 0, 56, 27
2,76779, Note_on_c, 0, 77, 59
2,76790, Note_on_c, 0, 68, 39
2,76848, Note_on_c, 0, 68, 0
2,76873, Control_c, 0, 64, 94
2,76900, Note_on_c, 0, 56, 0
2,76930, Control_c, 0, 64, 93
2,76939, Note_on_c, 0, 77, 0
2,76949, Control_c, 0, 64, 91
2,76963, Note_on_c, 0, 79, 68
2,76969, Control_c, 0, 64, 89
2,76984, Note_on_c, 0, 70, 53
2,76989, Control_c, 0, 64, 88
2,77006, Control_c, 0, 64, 86
2,77029, Control_c, 0, 64, 85
2,77029, Note_on_c, 0, 79, 0
2,77046, Control_c, 0, 64, 83
2,77064, Control_c, 0, 64, 81
2,77084, Control_c, 0, 64, 79
2,77102, Control_c, 0, 64, 78
2,77122, Control_c, 0, 64, 76
2,77139, Control_c, 0, 64, 75
2,77179, Control_c, 0, 64, 72
2,77193, Note_on_c, 0, 70, 0
2,77199, Control_c, 0, 64, 64
2,77204, Note_on_c, 0, 80, 56
2,77222, Control_c, 0, 64, 55
2,77230, Note_on_c, 0, 72, 48
2,77237, Control_c, 0, 64, 45
2,77255, Control_c, 0, 64, 39
2,77278, Control_c, 0, 64, 37
2,77314, Control_c, 0, 64, 36
2,77333, Control_c, 0, 64, 35
2,77352, Control_c, 0, 64, 34
2,77632, Note_on_c, 0, 68, 42
2,77783, Note_on_c, 0, 68, 0
2,77820, Note_on_c, 0, 67, 49
2,77927, Control_c, 0, 64, 35
2,77948, Control_c, 0, 64, 36
2,77965, Control_c, 0, 64, 37
2,77986, Control_c, 0, 64, 40
2,78004, Control_c, 0, 64, 44
2,78009, Note_on_c, 0, 67, 0
2,78024, Control_c, 0, 64, 53
2,78043, Control_c, 0, 64, 59
2,78048, Note_on_c, 0, 65, 47
2,78062, Control_c, 0, 64, 63
2,78082, Control_c, 0, 64, 65
2,78091, Note_on_c, 0, 80, 0
2,78101, Control_c, 0, 64, 67
2,78120, Control_c, 0, 64, 71
2,78138, Control_c, 0, 64, 75
2,78158, Control_c, 0, 64, 82
2,78177, Note_on_c, 0, 65, 0
2,78179, Control_c, 0, 64, 91
2,78197, Control_c, 0, 64, 100
2,78216, Control_c, 0, 64, 109
2,78235, Control_c, 0, 64, 118
2,78256, Control_c, 0, 64, 120
2,78311, Control_c, 0, 64, 116
2,78332, Control_c, 0, 64, 112
2,78352, Control_c, 0, 64, 109
2,78372, Control_c, 0, 64, 106
2,78387, Control_c, 0, 64, 101
2,78408, Control_c, 0, 64, 95
2,78428, Control_c, 0, 64, 90
2,78445, Control_c, 0, 64, 85
2,78456, Note_on_c, 0, 80, 60
2,78459, Note_on_c, 0, 65, 47
2,78466, Control_c, 0, 64, 82
2,78486, Control_c, 0, 64, 80
2,78505, Control_c, 0, 64, 78
2,78524, Control_c, 0, 64, 76
2,78542, Control_c, 0, 64, 75
2,78562, Control_c, 0, 64, 73
2,78581, Control_c, 0, 64, 72
2,78590, Note_on_c, 0, 80, 0
2,78604, Control_c, 0, 64, 70
2,78622, Control_c, 0, 64, 69
2,78626, Note_on_c, 0, 79, 68
2,78639, Control_c, 0, 64, 68
2,78643, Note_on_c, 0, 65, 0
2,78659, Note_on_c, 0, 63, 43
2,78755, Control_c, 0, 64, 67
2,78773, Control_c, 0, 64, 65
2,78793, Control_c, 0, 64, 59
2,78800, Note_on_c, 0, 79, 0
2,78804, Note_on_c, 0, 63, 0
2,78811, Control_c, 0, 64, 49
2,78829, Control_c, 0, 64, 37
2,78844, Note_on_c, 0, 77, 70
2,78851, Control_c, 0, 64, 28
2,78872, Control_c, 0, 64, 25
2,78884, Note_on_c, 0, 61, 38
2,78889, Control_c, 0, 64, 26
2,78908, Control_c, 0, 64, 32
2,78926, Control_c, 0, 64, 42
2,78945, Control_c, 0, 64, 53
2,78965, Control_c, 0, 64, 61
2,78987, Control_c, 0, 64, 65
2,79002, Control_c, 0, 64, 69
2,79023, Control_c, 0, 64, 78
2,79043, Control_c, 0, 64, 91
2,79043, Note_on_c, 0, 61, 0
2,79055, Note_on_c, 0, 77, 0
2,79063, Control_c, 0, 64, 127
2,79278, Note_on_c, 0, 77, 72
2,79280, Note_on_c, 0, 61, 44
2,79329, Control_c, 0, 64, 108
2,79348, Control_c, 0, 64, 99
2,79369, Control_c, 0, 64, 93
2,79389, Control_c, 0, 64, 87
2,79407, Control_c, 0, 64, 82
2,79426, Control_c, 0, 64, 78
2,79444, Control_c, 0, 64, 76
2,79466, Control_c, 0, 64, 74
2,79466, Note_on_c, 0, 75, 74
2,79484, Control_c, 0, 64, 72
2,79488, Note_on_c, 0, 60, 57
2,79503, Control_c, 0, 64, 71
2,79508, Note_on_c, 0, 77, 0
2,79521, Control_c, 0, 64, 69
2,79541, Control_c, 0, 64, 68
2,79560, Control_c, 0, 64, 67
2,79593, Note_on_c, 0, 61, 0
2,79598, Control_c, 0, 64, 66
2,79733, Control_c, 0, 64, 65
2,79755, Note_on_c, 0, 58, 47
2,79780, Note_on_c, 0, 73, 73
2,79830, Control_c, 0, 64, 64
2,79833, Note_on_c, 0, 60, 0
2,79845, Note_on_c, 0, 75, 0
2,79849, Control_c, 0, 64, 63
2,79868, Control_c, 0, 64, 60
2,79885, Control_c, 0, 64, 57
2,79905, Control_c, 0, 64, 54
2,79925, Control_c, 0, 64, 53
2,79944, Control_c, 0, 64, 52
2,80001, Control_c, 0, 64, 51
2,80174, Control_c, 0, 64, 52
2,80208, Note_on_c, 0, 70, 58
2,80220, Note_on_c, 0, 60, 42
2,80260, Note_on_c, 0, 72, 0
2,80287, Note_on_c, 0, 58, 0
2,80387, Note_on_c, 0, 68, 65
2,80390, Note_on_c, 0, 60, 0
2,80416, Note_on_c, 0, 61, 44
2,80420, Note_on_c, 0, 70, 0
2,80541, Control_c, 0, 64, 51
2,80606, Note_on_c, 0, 61, 0
2,80619, Note_on_c, 0, 67, 53
2,80628, Note_on_c, 0, 68, 0
2,80637, Note_on_c, 0, 63, 46
2,80655, Control_c, 0, 64, 50
2,81035, Note_on_c, 0, 75, 59
2,81049, Note_on_c, 0, 51, 36
2,81086, Note_on_c, 0, 73, 0
2,81145, Note_on_c, 0, 63, 0
2,81229, Note_on_c, 0, 73, 74
2,81240, Note_on_c, 0, 75, 0
2,81326, Control_c, 0, 64, 49
2,81345, Control_c, 0, 64, 48
2,81366, Control_c, 0, 64, 45
2,81383, Control_c, 0, 64, 40
2,81403, Control_c, 0, 64, 34
2,81410, Note_on_c, 0, 73, 0
2,81421, Control_c, 0, 64, 29
2,81442, Control_c, 0, 64, 25
2,81453, Note_on_c, 0, 72, 62
2,81464, Note_on_c, 0, 56, 43
2,81468, Note_on_c, 0, 51, 0
2,81498, Control_c, 0, 64, 28
2,81519, Control_c, 0, 64, 37
2,81540, Control_c, 0, 64, 48
2,81555, Control_c, 0, 64, 57
2,81575, Control_c, 0, 64, 62
2,81596, Control_c, 0, 64, 64
2,81615, Control_c, 0, 64, 66
2,81633, Control_c, 0, 64, 69
2,81640, Note_on_c, 0, 72, 0
2,81654, Control_c, 0, 64, 72
2,81672, Control_c, 0, 64, 76
2,81692, Control_c, 0, 64, 80
2,81710, Control_c, 0, 64, 83
2,81729, Control_c, 0, 64, 85
2,81769, Control_c, 0, 64, 84
2,81807, Control_c, 0, 64, 83
2,81826, Control_c, 0, 64, 81
2,81845, Control_c, 0, 64, 80
2,81850, Note_on_c, 0, 58, 43
2,81854, Note_on_c, 0, 72, 57
2,81862, Control_c, 0, 64, 78
2,81883, Control_c, 0, 64, 76
2,81902, Control_c, 0, 64, 74
2,81922, Control_c, 0, 64, 73
2,81939, Control_c, 0, 64, 71
2,81952, Note_on_c, 0, 56, 0
2,81960, Control_c, 0, 64, 69
2,81980, Control_c, 0, 64, 67
2,81998, Control_c, 0, 64, 65
2,82020, Control_c, 0, 64, 63
2,82027, Note_on_c, 0, 72, 0
2,82038, Control_c, 0, 64, 62
2,82043, Note_on_c, 0, 58, 0
2,82057, Note_on_c, 0, 70, 51
2,82061, Control_c, 0, 64, 61
2,82072, Note_on_c, 0, 60, 38
2,82076, Control_c, 0, 64, 60
2,82093, Control_c, 0, 64, 59
2,82113, Control_c, 0, 64, 58
2,82152, Control_c, 0, 64, 57
2,82190, Control_c, 0, 64, 56
2,82212, Control_c, 0, 64, 55
2,82228, Control_c, 0, 64, 54
2,82268, Control_c, 0, 64, 53
2,82287, Control_c, 0, 64, 52
2,82304, Control_c, 0, 64, 51
2,82324, Control_c, 0, 64, 50
2,82345, Control_c, 0, 64, 48
2,82363, Control_c, 0, 64, 45
2,82370, Note_on_c, 0, 68, 44
2,82370, Note_on_c, 0, 70, 0
2,82381, Control_c, 0, 64, 41
2,82395, Note_on_c, 0, 61, 19
2,82403, Control_c, 0, 64, 37
2,82412, Note_on_c, 0, 60, 0
2,82421, Control_c, 0, 64, 34
2,82440, Control_c, 0, 64, 31
2,82458, Control_c, 0, 64, 30
2,82481, Control_c, 0, 64, 29
2,82515, Control_c, 0, 64, 28
2,82766, Note_on_c, 0, 67, 0
2,82830, Note_on_c, 0, 65, 36
2,83024, Note_on_c, 0, 64, 50
2,83037, Note_on_c, 0, 65, 0
2,83150, Control_c, 0, 64, 29
2,83209, Control_c, 0, 64, 30
2,83215, Note_on_c, 0, 64, 0
2,83240, Note_on_c, 0, 65, 50
2,83296, Note_on_c, 0, 68, 0
2,83341, Note_on_c, 0, 61, 0
2,83627, Note_on_c, 0, 70, 56
2,83638, Note_on_c, 0, 61, 42
2,83826, Note_on_c, 0, 72, 69
2,83840, Note_on_c, 0, 60, 51
2,83854, Note_on_c, 0, 70, 0
2,83863, Note_on_c, 0, 61, 0
2,84010, Note_on_c, 0, 60, 0
2,84016, Control_c, 0, 64, 28
2,84022, Note_on_c, 0, 72, 0
2,84033, Control_c, 0, 64, 23
2,84048, Note_on_c, 0, 73, 69
2,84053, Control_c, 0, 64, 13
2,84055, Note_on_c, 0, 58, 54
2,84071, Control_c, 0, 64, 0
2,84129, Control_c, 0, 64, 11
2,84149, Control_c, 0, 64, 26
2,84168, Control_c, 0, 64, 41
2,84187, Control_c, 0, 64, 54
2,84207, Control_c, 0, 64, 62
2,84211, Note_on_c, 0, 65, 0
2,84229, Control_c, 0, 64, 66
2,84244, Control_c, 0, 64, 69
2,84260, Note_on_c, 0, 58, 0
2,84265, Control_c, 0, 64, 73
2,84282, Control_c, 0, 64, 76
2,84303, Control_c, 0, 64, 78
2,84321, Control_c, 0, 64, 79
2,84341, Control_c, 0, 64, 81
2,84378, Control_c, 0, 64, 80
2,84398, Control_c, 0, 64, 79
2,84417, Control_c, 0, 64, 78
2,84437, Control_c, 0, 64, 76
2,84450, Note_on_c, 0, 58, 51
2,84450, Note_on_c, 0, 67, 63
2,84458, Control_c, 0, 64, 74
2,84474, Control_c, 0, 64, 72
2,84496, Control_c, 0, 64, 70
2,84514, Control_c, 0, 64, 67
2,84534, Control_c, 0, 64, 66
2,84550, Control_c, 0, 64, 65
2,84628, Note_on_c, 0, 68, 73
2,84630, Control_c, 0, 64, 64
2,84630, Note_on_c, 0, 56, 60
2,84666, Note_on_c, 0, 58, 0
2,84705, Control_c, 0, 64, 63
2,84729, Note_on_c, 0, 67, 0
2,84763, Control_c, 0, 64, 62
2,84767, Note_on_c, 0, 73, 0
2,84783, Control_c, 0, 64, 59
2,84800, Control_c, 0, 64, 51
2,84823, Control_c, 0, 64, 41
2,84838, Control_c, 0, 64, 31
2,84848, Note_on_c, 0, 55, 57
2,84848, Note_on_c, 0, 70, 70
2,84852, Note_on_c, 0, 56, 0
2,84861, Control_c, 0, 64, 25
2,84896, Control_c, 0, 64, 29
2,84916, Control_c, 0, 64, 39
2,84936, Control_c, 0, 64, 50
2,84939, Note_on_c, 0, 68, 0
2,84957, Control_c, 0, 64, 60
2,84977, Control_c, 0, 64, 64
2,84992, Control_c, 0, 64, 66
2,85014, Control_c, 0, 64, 69
2,85035, Control_c, 0, 64, 74
2,85040, Note_on_c, 0, 72, 80
2,85053, Control_c, 0, 64, 81
2,85069, Control_c, 0, 64, 89
2,85091, Control_c, 0, 64, 99
2,85095, Note_on_c, 0, 55, 0
2,85099, Note_on_c, 0, 70, 0
2,85113, Control_c, 0, 64, 110
2,85128, Control_c, 0, 64, 127
2,85219, Note_on_c, 0, 73, 81
2,85223, Control_c, 0, 64, 116
2,85250, Control_c, 0, 64, 109
2,85250, Note_on_c, 0, 55, 69
2,85263, Control_c, 0, 64, 100
2,85284, Control_c, 0, 64, 93
2,85292, Note_on_c, 0, 72, 0
2,85301, Control_c, 0, 64, 87
2,85321, Control_c, 0, 64, 83
2,85340, Control_c, 0, 64, 81
2,85357, Control_c, 0, 64, 78
2,85379, Control_c, 0, 64, 75
2,85397, Control_c, 0, 64, 72
2,85414, Note_on_c, 0, 70, 75
2,85418, Control_c, 0, 64, 70
2,85425, Note_on_c, 0, 53, 69
2,85430, Note_on_c, 0, 73, 0
2,85434, Control_c, 0, 64, 68
2,85455, Control_c, 0, 64, 67
2,85502, Note_on_c, 0, 55, 0
2,85532, Control_c, 0, 64, 66
2,85568, Control_c, 0, 64, 65
2,85590, Control_c, 0, 64, 64
2,85649, Control_c, 0, 64, 63
2,85649, Note_on_c, 0, 79, 74
2,85654, Note_on_c, 0, 52, 63
2,85685, Control_c, 0, 64, 62
2,85740, Note_on_c, 0, 53, 0
2,85745, Control_c, 0, 64, 61
2,85783, Control_c, 0, 64, 60
2,85841, Note_on_c, 0, 68, 71
2,85857, Control_c, 0, 64, 59
2,85875, Control_c, 0, 64, 58
2,85897, Control_c, 0, 64, 55
2,85901, Note_on_c, 0, 70, 0
2,85918, Control_c, 0, 64, 49
2,85933, Control_c, 0, 64, 39
2,85953, Control_c, 0, 64, 29
2,85973, Control_c, 0, 64, 21
2,85991, Control_c, 0, 64, 20
2,86010, Control_c, 0, 64, 21
2,86030, Control_c, 0, 64, 27
2,86037, Note_on_c, 0, 48, 65
2,86037, Note_on_c, 0, 70, 75
2,86041, Note_on_c, 0, 68, 0
2,86053, Control_c, 0, 64, 36
2,86067, Control_c, 0, 64, 47
2,86082, Note_on_c, 0, 52, 0
2,86087, Control_c, 0, 64, 57
2,86108, Control_c, 0, 64, 61
2,86126, Control_c, 0, 64, 63
2,86144, Control_c, 0, 64, 64
2,86163, Control_c, 0, 64, 65
2,86186, Control_c, 0, 64, 67
2,86204, Control_c, 0, 64, 69
2,86222, Control_c, 0, 64, 73
2,86228, Note_on_c, 0, 67, 75
2,86231, Note_on_c, 0, 70, 0
2,86241, Control_c, 0, 64, 77
2,86259, Control_c, 0, 64, 82
2,86283, Control_c, 0, 64, 86
2,86298, Control_c, 0, 64, 88
2,86321, Note_on_c, 0, 67, 0
2,86413, Control_c, 0, 64, 87
2,86432, Control_c, 0, 64, 86
2,86450, Control_c, 0, 64, 85
2,86475, Note_on_c, 0, 68, 76
2,86479, Note_on_c, 0, 53, 66
2,86491, Control_c, 0, 64, 84
2,86495, Note_on_c, 0, 48, 0
2,86508, Control_c, 0, 64, 82
2,86528, Control_c, 0, 64, 81
2,86546, Control_c, 0, 64, 79
2,86566, Control_c, 0, 64, 77
2,86585, Control_c, 0, 64, 75
2,86605, Control_c, 0, 64, 73
2,86623, Control_c, 0, 64, 72
2,86644, Control_c, 0, 64, 71
2,86661, Control_c, 0, 64, 70
2,86688, Note_on_c, 0, 72, 79
2,86722, Control_c, 0, 64, 69
2,86740, Control_c, 0, 64, 65
2,86758, Control_c, 0, 64, 57
2,86777, Control_c, 0, 64, 42
2,86795, Control_c, 0, 64, 22
2,86816, Control_c, 0, 64, 0
2,86859, Note_on_c, 0, 79, 0
2,86874, Control_c, 0, 64, 14
2,86874, Note_on_c, 0, 65, 61
2,86888, Note_on_c, 0, 73, 77
2,86892, Control_c, 0, 64, 27
2,86912, Control_c, 0, 64, 41
2,86922, Note_on_c, 0, 72, 0
2,86933, Control_c, 0, 64, 54
2,86950, Control_c, 0, 64, 62
2,86969, Control_c, 0, 64, 65
2,86989, Control_c, 0, 64, 68
2,87007, Control_c, 0, 64, 70
2,87025, Control_c, 0, 64, 73
2,87034, Note_on_c, 0, 53, 0
2,87045, Control_c, 0, 64, 75
2,87057, Note_on_c, 0, 72, 82
2,87066, Control_c, 0, 64, 78
2,87066, Note_on_c, 0, 63, 64
2,87075, Note_on_c, 0, 65, 0
2,87086, Control_c, 0, 64, 81
2,87091, Note_on_c, 0, 73, 0
2,87095, Note_on_c, 0, 68, 0
2,87104, Control_c, 0, 64, 83
2,87169, Note_on_c, 0, 63, 0
2,87239, Control_c, 0, 64, 82
2,87257, Control_c, 0, 64, 81
2,87275, Note_on_c, 0, 63, 52
2,87299, Control_c, 0, 64, 80
2,87299, Note_on_c, 0, 72, 0
2,87299, Note_on_c, 0, 77, 73
2,87314, Control_c, 0, 64, 79
2,87322, Note_on_c, 0, 63, 0
2,87353, Control_c, 0, 64, 78
2,87363, Note_on_c, 0, 61, 61
2,87374, Control_c, 0, 64, 77
2,87405, Note_on_c, 0, 61, 0
2,87410, Control_c, 0, 64, 76
2,87439, Note_on_c, 0, 63, 60
2,87450, Control_c, 0, 64, 75
2,87481, Note_on_c, 0, 63, 0
2,87488, Control_c, 0, 64, 74
2,87495, Note_on_c, 0, 61, 63
2,87513, Note_on_c, 0, 67, 60
2,87526, Control_c, 0, 64, 73
2,87537, Note_on_c, 0, 61, 0
2,87545, Control_c, 0, 64, 72
2,87548, Note_on_c, 0, 63, 65
2,87583, Control_c, 0, 64, 71
2,87599, Note_on_c, 0, 63, 0
2,87603, Control_c, 0, 64, 70
2,87623, Control_c, 0, 64, 69
2,87623, Note_on_c, 0, 61, 63
2,87642, Control_c, 0, 64, 68
2,87664, Control_c, 0, 64, 66
2,87665, Note_on_c, 0, 61, 0
2,87671, Note_on_c, 0, 63, 68
2,87671, Note_on_c, 0, 67, 0
2,87678, Note_on_c, 0, 68, 72
2,87682, Control_c, 0, 64, 65
2,87737, Control_c, 0, 64, 64
2,87745, Note_on_c, 0, 61, 64
2,87749, Note_on_c, 0, 63, 0
2,87795, Control_c, 0, 64, 63
2,87814, Control_c, 0, 64, 62
2,87820, Note_on_c, 0, 68, 0
2,87825, Note_on_c, 0, 61, 0
2,87834, Control_c, 0, 64, 61
2,87834, Note_on_c, 0, 63, 67
2,87852, Control_c, 0, 64, 60
2,87881, Note_on_c, 0, 65, 52
2,87891, Control_c, 0, 64, 59
2,87909, Control_c, 0, 64, 57
2,87931, Control_c, 0, 64, 55
2,87938, Note_on_c, 0, 61, 59
2,87949, Control_c, 0, 64, 51
2,87966, Control_c, 0, 64, 46
2,87975, Note_on_c, 0, 63, 0
2,87989, Control_c, 0, 64, 39
2,88006, Control_c, 0, 64, 22
2,88026, Control_c, 0, 64, 0
2,88057, Note_on_c, 0, 65, 0
2,88068, Note_on_c, 0, 60, 65
2,88085, Note_on_c, 0, 61, 0
2,88087, Note_on_c, 0, 72, 77
2,88161, Note_on_c, 0, 77, 0
2,88179, Control_c, 0, 64, 38
2,88200, Control_c, 0, 64, 54
2,88219, Control_c, 0, 64, 64
2,88237, Control_c, 0, 64, 69
2,88239, Note_on_c, 0, 72, 0
2,88247, Note_on_c, 0, 60, 0
2,88258, Control_c, 0, 64, 77
2,88275, Control_c, 0, 64, 89
2,88294, Control_c, 0, 64, 118
2,88314, Control_c, 0, 64, 127
2,88508, Note_on_c, 0, 48, 71
2,88512, Note_on_c, 0, 76, 78
2,88519, Note_on_c, 0, 67, 72
2,88563, Control_c, 0, 64, 122
2,88583, Control_c, 0, 64, 109
2,88604, Control_c, 0, 64, 101
2,88619, Control_c, 0, 64, 95
2,88639, Control_c, 0, 64, 88
2,88658, Control_c, 0, 64, 82
2,88679, Control_c, 0, 64, 78
2,88695, Control_c, 0, 64, 75
2,88717, Note_on_c, 0, 50, 81
2,88718, Control_c, 0, 64, 73
2,88723, Note_on_c, 0, 77, 84
2,88735, Control_c, 0, 64, 72
2,88756, Control_c, 0, 64, 70
2,88773, Control_c, 0, 64, 68
2,88788, Note_on_c, 0, 48, 0
2,88788, Note_on_c, 0, 76, 0
2,88792, Control_c, 0, 64, 67
2,88812, Control_c, 0, 64, 66
2,88849, Control_c, 0, 64, 65
2,88909, Control_c, 0, 64, 64
2,89004, Control_c, 0, 64, 63
2,89041, Note_on_c, 0, 48, 73
2,89045, Note_on_c, 0, 79, 81
2,89059, Note_on_c, 0, 72, 67
2,89068, Note_on_c, 0, 52, 69
2,89102, Note_on_c, 0, 77, 0
2,89122, Control_c, 0, 64, 61
2,89122, Note_on_c, 0, 50, 0
2,89122, Note_on_c, 0, 67, 0
2,89137, Control_c, 0, 64, 59
2,89157, Control_c, 0, 64, 56
2,89178, Control_c, 0, 64, 49
2,89196, Control_c, 0, 64, 40
2,89215, Control_c, 0, 64, 27
2,89234, Control_c, 0, 64, 0
2,89446, Control_c, 0, 64, 11
2,89465, Control_c, 0, 64, 13
2,89482, Control_c, 0, 64, 15
2,89502, Control_c, 0, 64, 18
2,89522, Control_c, 0, 64, 20
2,89543, Control_c, 0, 64, 22
2,89557, Note_on_c, 0, 70, 64
2,89561, Control_c, 0, 64, 23
2,89583, Control_c, 0, 64, 24
2,89587, Note_on_c, 0, 50, 57
2,89600, Control_c, 0, 64, 25
2,89600, Note_on_c, 0, 72, 0
2,89616, Note_on_c, 0, 52, 0
2,89621, Control_c, 0, 64, 26
2,89638, Control_c, 0, 64, 27
2,89657, Control_c, 0, 64, 28
2,89679, Control_c, 0, 64, 29
2,89698, Control_c, 0, 64, 30
2,89737, Control_c, 0, 64, 31
2,89755, Control_c, 0, 64, 32
2,89762, Note_on_c, 0, 50, 0
2,89766, Note_on_c, 0, 52, 64
2,89775, Control_c, 0, 64, 33
2,89794, Control_c, 0, 64, 34
2,90005, Note_on_c, 0, 49, 69
2,90031, Note_on_c, 0, 68, 64
2,90059, Note_on_c, 0, 52, 0
2,90081, Control_c, 0, 64, 35
2,90087, Note_on_c, 0, 70, 0
2,90087, Note_on_c, 0, 79, 0
2,90114, Note_on_c, 0, 53, 18
2,90206, Note_on_c, 0, 48, 0
2,90217, Control_c, 0, 64, 36
2,90217, Note_on_c, 0, 53, 0
2,90222, Note_on_c, 0, 52, 62
2,90235, Control_c, 0, 64, 37
2,90292, Control_c, 0, 64, 36
2,90333, Control_c, 0, 64, 35
2,90350, Control_c, 0, 64, 34
2,90405, Note_on_c, 0, 77, 77
2,90409, Control_c, 0, 64, 36
2,90418, Note_on_c, 0, 70, 74
2,90431, Control_c, 0, 64, 42
2,90431, Note_on_c, 0, 52, 0
2,90431, Note_on_c, 0, 53, 67
2,90448, Control_c, 0, 64, 50
2,90464, Note_on_c, 0, 68, 0
2,90466, Control_c, 0, 64, 58
2,90485, Control_c, 0, 64, 62
2,90504, Control_c, 0, 64, 64
2,90521, Control_c, 0, 64, 65
2,90541, Control_c, 0, 64, 67
2,90561, Control_c, 0, 64, 68
2,90578, Note_on_c, 0, 53, 0
2,90610, Note_on_c, 0, 55, 73
2,90696, Control_c, 0, 64, 67
2,90810, Control_c, 0, 64, 66
2,90826, Note_on_c, 0, 48, 75
2,90830, Control_c, 0, 64, 60
2,90846, Note_on_c, 0, 55, 0
2,90851, Control_c, 0, 64, 45
2,90855, Note_on_c, 0, 56, 60
2,90864, Note_on_c, 0, 70, 0
2,90864, Note_on_c, 0, 72, 65
2,90871, Control_c, 0, 64, 0
2,90871, Note_on_c, 0, 49, 0
2,90963, Control_c, 0, 64, 27
2,90984, Control_c, 0, 64, 45
2,91003, Control_c, 0, 64, 57
2,91022, Control_c, 0, 64, 62
2,91033, Note_on_c, 0, 60, 72
2,91040, Control_c, 0, 64, 64
2,91060, Control_c, 0, 64, 65
2,91080, Control_c, 0, 64, 66
2,91099, Control_c, 0, 64, 68
2,91115, Note_on_c, 0, 60, 0
2,91120, Control_c, 0, 64, 71
2,91137, Control_c, 0, 64, 74
2,91159, Control_c, 0, 64, 78
2,91175, Control_c, 0, 64, 82
2,91196, Control_c, 0, 64, 87
2,91215, Control_c, 0, 64, 90
2,91222, Note_on_c, 0, 77, 0
2,91235, Control_c, 0, 64, 94
2,91235, Note_on_c, 0, 75, 79
2,91251, Note_on_c, 0, 62, 78
2,91253, Control_c, 0, 64, 99
2,91272, Control_c, 0, 64, 109
2,91292, Control_c, 0, 64, 127
2,91322, Note_on_c, 0, 62, 0
2,91331, Note_on_c, 0, 72, 0
2,91353, Note_on_c, 0, 56, 0
2,91368, Note_on_c, 0, 48, 0
2,91432, Note_on_c, 0, 63, 74
2,91506, Note_on_c, 0, 63, 0
2,91673, Note_on_c, 0, 47, 78
2,91695, Control_c, 0, 64, 115
2,91695, Note_on_c, 0, 75, 0
2,91715, Control_c, 0, 64, 104
2,91719, Note_on_c, 0, 74, 67
2,91733, Control_c, 0, 64, 98
2,91742, Note_on_c, 0, 65, 53
2,91753, Control_c, 0, 64, 93
2,91770, Control_c, 0, 64, 87
2,91792, Control_c, 0, 64, 80
2,91810, Control_c, 0, 64, 72
2,91829, Control_c, 0, 64, 66
2,91846, Control_c, 0, 64, 62
2,91869, Control_c, 0, 64, 60
2,91891, Note_on_c, 0, 53, 65
2,91904, Control_c, 0, 64, 59
2,91924, Control_c, 0, 64, 58
2,91946, Control_c, 0, 64, 57
2,91962, Control_c, 0, 64, 56
2,92002, Control_c, 0, 64, 55
2,92048, Note_on_c, 0, 74, 0
2,92058, Control_c, 0, 64, 54
2,92083, Control_c, 0, 64, 53
2,92083, Note_on_c, 0, 55, 73
2,92087, Note_on_c, 0, 53, 0
2,92087, Note_on_c, 0, 75, 66
2,92098, Control_c, 0, 64, 52
2,92117, Control_c, 0, 64, 50
2,92175, Control_c, 0, 64, 49
2,92251, Control_c, 0, 64, 48
2,92271, Control_c, 0, 64, 47
2,92281, Note_on_c, 0, 77, 79
2,92285, Note_on_c, 0, 56, 75
2,92294, Note_on_c, 0, 55, 0
2,92323, Note_on_c, 0, 75, 0
2,92325, Note_on_c, 0, 65, 0
2,92346, Control_c, 0, 64, 46
2,92405, Control_c, 0, 64, 45
2,92527, Note_on_c, 0, 52, 74
2,92536, Note_on_c, 0, 58, 73
2,92543, Note_on_c, 0, 79, 71
2,92563, Note_on_c, 0, 56, 0
2,92599, Note_on_c, 0, 47, 0
2,92690, Note_on_c, 0, 77, 0
2,92694, Control_c, 0, 64, 41
2,92711, Control_c, 0, 64, 29
2,92725, Note_on_c, 0, 79, 0
2,92730, Control_c, 0, 64, 0
2,92730, Note_on_c, 0, 78, 77
2,92806, Note_on_c, 0, 78, 0
2,92816, Note_on_c, 0, 77, 58
2,92885, Control_c, 0, 64, 27
2,92894, Note_on_c, 0, 77, 0
2,92903, Control_c, 0, 64, 47
2,92922, Control_c, 0, 64, 58
2,92929, Note_on_c, 0, 76, 78
2,92933, Note_on_c, 0, 67, 71
2,92942, Control_c, 0, 64, 63
2,92962, Control_c, 0, 64, 66
2,92981, Control_c, 0, 64, 69
2,92990, Note_on_c, 0, 52, 0
2,93001, Control_c, 0, 64, 72
2,93019, Control_c, 0, 64, 77
2,93037, Control_c, 0, 64, 83
2,93056, Control_c, 0, 64, 89
2,93060, Note_on_c, 0, 58, 0
2,93076, Control_c, 0, 64, 94
2,93098, Control_c, 0, 64, 95
2,93098, Note_on_c, 0, 76, 0
2,93110, Note_on_c, 0, 74, 75
2,93133, Control_c, 0, 64, 94
2,93155, Control_c, 0, 64, 93
2,93171, Control_c, 0, 64, 91
2,93191, Control_c, 0, 64, 89
2,93209, Control_c, 0, 64, 87
2,93209, Note_on_c, 0, 67, 0
2,93230, Control_c, 0, 64, 85
2,93252, Control_c, 0, 64, 81
2,93271, Control_c, 0, 64, 78
2,93290, Control_c, 0, 64, 75
2,93306, Control_c, 0, 64, 72
2,93327, Control_c, 0, 64, 70
2,93341, Note_on_c, 0, 53, 79
2,93350, Note_on_c, 0, 72, 71
2,93354, Note_on_c, 0, 74, 0
2,93367, Control_c, 0, 64, 69
2,93367, Note_on_c, 0, 68, 64
2,93383, Control_c, 0, 64, 68
2,93404, Control_c, 0, 64, 65
2,93422, Control_c, 0, 64, 58
2,93440, Control_c, 0, 64, 44
2,93460, Control_c, 0, 64, 19
2,93480, Control_c, 0, 64, 0
2,93548, Note_on_c, 0, 56, 72
2,93575, Control_c, 0, 64, 19
2,93594, Control_c, 0, 64, 36
2,93613, Control_c, 0, 64, 48
2,93635, Control_c, 0, 64, 57
2,93650, Control_c, 0, 64, 61
2,93671, Control_c, 0, 64, 63
2,93692, Control_c, 0, 64, 64
2,93701, Note_on_c, 0, 56, 0
2,93710, Control_c, 0, 64, 66
2,93729, Control_c, 0, 64, 67
2,93743, Note_on_c, 0, 58, 81
2,93752, Control_c, 0, 64, 70
2,93771, Control_c, 0, 64, 74
2,93786, Control_c, 0, 64, 79
2,93807, Control_c, 0, 64, 86
2,93824, Control_c, 0, 64, 93
2,93846, Control_c, 0, 64, 101
2,93863, Control_c, 0, 64, 109
2,93884, Control_c, 0, 64, 112
2,93896, Note_on_c, 0, 58, 0
2,93902, Control_c, 0, 64, 113
2,93939, Note_on_c, 0, 60, 82
2,93998, Note_on_c, 0, 53, 0
2,94013, Note_on_c, 0, 60, 0
2,94036, Control_c, 0, 64, 112
2,94056, Control_c, 0, 64, 111
2,94075, Control_c, 0, 64, 109
2,94094, Control_c, 0, 64, 107
2,94113, Control_c, 0, 64, 106
2,94132, Control_c, 0, 64, 105
2,94151, Control_c, 0, 64, 104
2,94170, Control_c, 0, 64, 103
2,94191, Control_c, 0, 64, 101
2,94195, Note_on_c, 0, 46, 80
2,94210, Control_c, 0, 64, 99
2,94219, Note_on_c, 0, 72, 0
2,94227, Note_on_c, 0, 61, 65
2,94229, Control_c, 0, 64, 97
2,94249, Control_c, 0, 64, 95
2,94267, Control_c, 0, 64, 93
2,94280, Note_on_c, 0, 68, 0
2,94289, Control_c, 0, 64, 92
2,94305, Control_c, 0, 64, 90
2,94325, Control_c, 0, 64, 86
2,94344, Control_c, 0, 64, 79
2,94363, Control_c, 0, 64, 68
2,94382, Control_c, 0, 64, 58
2,94400, Control_c, 0, 64, 43
2,94416, Note_on_c, 0, 70, 69
2,94420, Control_c, 0, 64, 15
2,94438, Control_c, 0, 64, 0
2,94533, Control_c, 0, 64, 11
2,94553, Control_c, 0, 64, 30
2,94571, Control_c, 0, 64, 42
2,94594, Control_c, 0, 64, 52
2,94610, Control_c, 0, 64, 59
2,94623, Note_on_c, 0, 68, 82
2,94630, Control_c, 0, 64, 63
2,94645, Note_on_c, 0, 70, 0
2,94650, Control_c, 0, 64, 65
2,94669, Control_c, 0, 64, 66
2,94675, Note_on_c, 0, 61, 0
2,94687, Control_c, 0, 64, 68
2,94709, Control_c, 0, 64, 71
2,94725, Control_c, 0, 64, 74
2,94745, Control_c, 0, 64, 79
2,94763, Control_c, 0, 64, 83
2,94783, Control_c, 0, 64, 85
2,94814, Note_on_c, 0, 67, 82
2,94861, Note_on_c, 0, 68, 0
2,94878, Control_c, 0, 64, 84
2,94917, Control_c, 0, 64, 83
2,94936, Control_c, 0, 64, 82
2,94957, Control_c, 0, 64, 81
2,94974, Control_c, 0, 64, 80
2,95013, Control_c, 0, 64, 79
2,95034, Control_c, 0, 64, 77
2,95034, Note_on_c, 0, 72, 76
2,95043, Note_on_c, 0, 45, 82
2,95053, Control_c, 0, 64, 76
2,95053, Note_on_c, 0, 65, 62
2,95063, Note_on_c, 0, 67, 0
2,95072, Control_c, 0, 64, 75
2,95091, Note_on_c, 0, 46, 0
2,95096, Control_c, 0, 64, 72
2,95110, Control_c, 0, 64, 65
2,95130, Control_c, 0, 64, 55
2,95149, Control_c, 0, 64, 38
2,95169, Control_c, 0, 64, 18
2,95187, Control_c, 0, 64, 0
2,95260, Note_on_c, 0, 60, 70
2,95264, Note_on_c, 0, 65, 0
2,95265, Control_c, 0, 64, 15
2,95282, Control_c, 0, 64, 30
2,95304, Control_c, 0, 64, 43
2,95321, Control_c, 0, 64, 52
2,95339, Control_c, 0, 64, 59
2,95358, Control_c, 0, 64, 62
2,95377, Control_c, 0, 64, 63
2,95384, Note_on_c, 0, 60, 0
2,95437, Control_c, 0, 64, 64
2,95454, Control_c, 0, 64, 65
2,95467, Note_on_c, 0, 60, 55
2,95474, Control_c, 0, 64, 66
2,95493, Control_c, 0, 64, 68
2,95497, Note_on_c, 0, 62, 50
2,95513, Control_c, 0, 64, 71
2,95536, Control_c, 0, 64, 74
2,95536, Note_on_c, 0, 60, 0
2,95536, Note_on_c, 0, 62, 0
2,95552, Control_c, 0, 64, 77
2,95570, Control_c, 0, 64, 79
2,95590, Control_c, 0, 64, 82
2,95608, Control_c, 0, 64, 84
2,95627, Control_c, 0, 64, 85
2,95660, Note_on_c, 0, 64, 80
2,95800, Control_c, 0, 64, 84
2,95822, Control_c, 0, 64, 83
2,95831, Note_on_c, 0, 64, 0
2,95837, Control_c, 0, 64, 82
2,95878, Control_c, 0, 64, 81
2,95887, Note_on_c, 0, 44, 85
2,95892, Note_on_c, 0, 65, 68
2,95901, Control_c, 0, 64, 79
2,95901, Note_on_c, 0, 72, 0
2,95916, Control_c, 0, 64, 78
2,95935, Control_c, 0, 64, 76
2,95946, Note_on_c, 0, 45, 0
2,95955, Control_c, 0, 64, 75
2,95973, Control_c, 0, 64, 73
2,95995, Control_c, 0, 64, 71
2,96006, Note_on_c, 0, 65, 0
2,96013, Control_c, 0, 64, 70
2,96034, Control_c, 0, 64, 69
2,96049, Control_c, 0, 64, 68
2,96098, Note_on_c, 0, 65, 74
2,96109, Control_c, 0, 64, 67
2,96125, Control_c, 0, 64, 66
2,96147, Control_c, 0, 64, 65
2,96166, Control_c, 0, 64, 62
2,96187, Control_c, 0, 64, 54
2,96203, Control_c, 0, 64, 35
2,96222, Control_c, 0, 64, 0
2,96279, Control_c, 0, 64, 17
2,96303, Control_c, 0, 64, 33
2,96303, Note_on_c, 0, 67, 78
2,96308, Note_on_c, 0, 72, 79
2,96320, Control_c, 0, 64, 48
2,96337, Control_c, 0, 64, 60
2,96359, Control_c, 0, 64, 64
2,96359, Note_on_c, 0, 65, 0
2,96379, Control_c, 0, 64, 66
2,96394, Control_c, 0, 64, 68
2,96417, Control_c, 0, 64, 72
2,96437, Control_c, 0, 64, 76
2,96455, Control_c, 0, 64, 81
2,96471, Control_c, 0, 64, 89
2,96493, Control_c, 0, 64, 98
2,96500, Note_on_c, 0, 68, 88
2,96514, Control_c, 0, 64, 112
2,96530, Control_c, 0, 64, 127
2,96537, Note_on_c, 0, 72, 0
2,96584, Note_on_c, 0, 44, 0
2,96683, Note_on_c, 0, 67, 0
2,96733, Note_on_c, 0, 44, 66
2,96801, Control_c, 0, 64, 113
2,96821, Note_on_c, 0, 73, 73
2,96824, Control_c, 0, 64, 107
2,96824, Note_on_c, 0, 70, 69
2,96828, Note_on_c, 0, 65, 66
2,96837, Control_c, 0, 64, 102
2,96860, Control_c, 0, 64, 99
2,96877, Control_c, 0, 64, 96
2,96896, Control_c, 0, 64, 94
2,96896, Note_on_c, 0, 68, 0
2,96913, Control_c, 0, 64, 93
2,96933, Control_c, 0, 64, 91
2,96940, Note_on_c, 0, 44, 0
2,96944, Note_on_c, 0, 43, 62
2,96954, Control_c, 0, 64, 89
2,96972, Control_c, 0, 64, 87
2,96994, Control_c, 0, 64, 86
2,97010, Control_c, 0, 64, 84
2,97030, Control_c, 0, 64, 83
2,97037, Note_on_c, 0, 73, 0
2,97053, Control_c, 0, 64, 82
2,97053, Note_on_c, 0, 43, 0
2,97057, Note_on_c, 0, 44, 72
2,97066, Control_c, 0, 64, 81
2,97086, Control_c, 0, 64, 80
2,97108, Control_c, 0, 64, 78
2,97124, Control_c, 0, 64, 77
2,97133, Note_on_c, 0, 43, 66
2,97140, Note_on_c, 0, 44, 0
2,97145, Control_c, 0, 64, 75
2,97165, Control_c, 0, 64, 73
2,97184, Control_c, 0, 64, 71
2,97205, Control_c, 0, 64, 70
2,97205, Note_on_c, 0, 64, 71
2,97205, Note_on_c, 0, 72, 73
2,97212, Note_on_c, 0, 65, 0
2,97216, Note_on_c, 0, 43, 0
2,97216, Note_on_c, 0, 44, 70
2,97221, Control_c, 0, 64, 69
2,97237, Note_on_c, 0, 70, 0
2,97241, Control_c, 0, 64, 67
2,97261, Control_c, 0, 64, 66
2,97280, Control_c, 0, 64, 65
2,97291, Note_on_c, 0, 43, 67
2,97295, Note_on_c, 0, 44, 0
2,97300, Control_c, 0, 64, 63
2,97338, Control_c, 0, 64, 62
2,97367, Note_on_c, 0, 44, 75
2,97372, Note_on_c, 0, 43, 0
2,97376, Control_c, 0, 64, 61
2,97388, Note_on_c, 0, 72, 0
2,97394, Control_c, 0, 64, 60
2,97406, Note_on_c, 0, 70, 65
2,97415, Control_c, 0, 64, 59
2,97424, Note_on_c, 0, 64, 0
2,97430, Note_on_c, 0, 62, 68
2,97435, Control_c, 0, 64, 58
2,97446, Note_on_c, 0, 43, 70
2,97458, Note_on_c, 0, 44, 0
2,97472, Control_c, 0, 64, 57
2,97490, Control_c, 0, 64, 56
2,97508, Control_c, 0, 64, 55
2,97526, Note_on_c, 0, 43, 0
2,97526, Note_on_c, 0, 44, 72
2,97530, Control_c, 0, 64, 53
2,97547, Control_c, 0, 64, 51
2,97566, Control_c, 0, 64, 48
2,97585, Control_c, 0, 64, 45
2,97599, Note_on_c, 0, 43, 60
2,97606, Control_c, 0, 64, 42
2,97618, Note_on_c, 0, 44, 0
2,97627, Control_c, 0, 64, 39
2,97639, Note_on_c, 0, 62, 0
2,97639, Note_on_c, 0, 64, 66
2,97644, Control_c, 0, 64, 31
2,97644, Note_on_c, 0, 72, 74
2,97663, Control_c, 0, 64, 0
2,97692, Note_on_c, 0, 70, 0
2,97952, Control_c, 0, 64, 11
2,97989, Control_c, 0, 64, 12
2,98047, Control_c, 0, 64, 11
2,98068, Control_c, 0, 64, 0
2,98068, Note_on_c, 0, 68, 68
2,98277, Note_on_c, 0, 68, 0
2,98289, Note_on_c, 0, 67, 62
2,98362, Note_on_c, 0, 64, 0
2,98606, Note_on_c, 0, 67, 0
2,98611, Note_on_c, 0, 68, 45
2,98623, Note_on_c, 0, 43, 0
2,98638, Note_on_c, 0, 65, 37
2,98650, Note_on_c, 0, 41, 36
2,98720, Control_c, 0, 64, 14
2,98737, Control_c, 0, 64, 25
2,98760, Control_c, 0, 64, 35
2,98776, Control_c, 0, 64, 44
2,98796, Control_c, 0, 64, 53
2,98815, Control_c, 0, 64, 60
2,98833, Control_c, 0, 64, 63
2,98853, Control_c, 0, 64, 65
2,98873, Control_c, 0, 64, 68
2,98891, Control_c, 0, 64, 73
2,98905, Note_on_c, 0, 41, 0
2,98910, Control_c, 0, 64, 80
2,98931, Control_c, 0, 64, 91
2,98950, Control_c, 0, 64, 112
2,98972, Control_c, 0, 64, 127
2,99064, Note_on_c, 0, 53, 45
2,99129, Note_on_c, 0, 72, 0
2,99139, Note_on_c, 0, 65, 0
2,99218, Control_c, 0, 64, 120
2,99225, Note_on_c, 0, 68, 0
2,99227, Note_on_c, 0, 53, 0
2,99240, Control_c, 0, 64, 107
2,99252, Note_on_c, 0, 55, 53
2,99257, Control_c, 0, 64, 101
2,99275, Control_c, 0, 64, 96
2,99294, Control_c, 0, 64, 91
2,99316, Control_c, 0, 64, 86
2,99333, Control_c, 0, 64, 83
2,99354, Control_c, 0, 64, 81
2,99373, Control_c, 0, 64, 79
2,99392, Control_c, 0, 64, 77
2,99410, Control_c, 0, 64, 73
2,99430, Control_c, 0, 64, 67
2,99449, Control_c, 0, 64, 59
2,99449, Note_on_c, 0, 55, 0
2,99468, Control_c, 0, 64, 50
2,99488, Control_c, 0, 64, 43
2,99488, Note_on_c, 0, 56, 54
2,99507, Control_c, 0, 64, 39
2,99543, Control_c, 0, 64, 41
2,99563, Control_c, 0, 64, 46
2,99583, Control_c, 0, 64, 55
2,99604, Control_c, 0, 64, 62
2,99622, Control_c, 0, 64, 66
2,99639, Control_c, 0, 64, 71
2,99652, Note_on_c, 0, 56, 0
2,99661, Control_c, 0, 64, 80
2,99680, Control_c, 0, 64, 91
2,99698, Control_c, 0, 64, 102
2,99716, Control_c, 0, 64, 107
2,99738, Control_c, 0, 64, 108
2,99773, Control_c, 0, 64, 107
2,99795, Control_c, 0, 64, 106
2,99814, Control_c, 0, 64, 103
2,99833, Control_c, 0, 64, 100
2,99854, Control_c, 0, 64, 96
2,99871, Control_c, 0, 64, 92
2,99889, Control_c, 0, 64, 88
2,99913, Control_c, 0, 64, 83
2,99913, Note_on_c, 0, 60, 50
2,99928, Control_c, 0, 64, 80
2,99946, Note_on_c, 0, 56, 42
2,99951, Control_c, 0, 64, 76
2,99967, Control_c, 0, 64, 74
2,99987, Control_c, 0, 64, 72
2,100006, Control_c, 0, 64, 70
2,100025, Control_c, 0, 64, 69
2,100043, Control_c, 0, 64, 67
2,100063, Control_c, 0, 64, 66
2,100085, Control_c, 0, 64, 65
2,100102, Control_c, 0, 64, 64
2,100113, Note_on_c, 0, 56, 0
2,100113, Note_on_c, 0, 60, 0
2,100130, Note_on_c, 0, 61, 48
2,100135, Note_on_c, 0, 58, 45
2,100162, Control_c, 0, 64, 63
2,100215, Control_c, 0, 64, 62
2,100255, Control_c, 0, 64, 61
2,100295, Control_c, 0, 64, 60
2,100313, Control_c, 0, 64, 58
2,100327, Note_on_c, 0, 61, 0
2,100331, Control_c, 0, 64, 51
2,100352, Control_c, 0, 64, 41
2,100365, Note_on_c, 0, 58, 0
2,100372, Control_c, 0, 64, 28
2,100372, Note_on_c, 0, 60, 45
2,100390, Control_c, 0, 64, 8
2,100395, Note_on_c, 0, 63, 39
2,100408, Control_c, 0, 64, 0
2,100466, Control_c, 0, 64, 20
2,100484, Control_c, 0, 64, 36
2,100505, Control_c, 0, 64, 50
2,100523, Control_c, 0, 64, 59
2,100542, Control_c, 0, 64, 63
2,100560, Control_c, 0, 64, 65
2,100583, Control_c, 0, 64, 67
2,100603, Control_c, 0, 64, 69
2,100621, Control_c, 0, 64, 72
2,100637, Control_c, 0, 64, 75
2,100658, Control_c, 0, 64, 79
2,100677, Control_c, 0, 64, 82
2,100695, Control_c, 0, 64, 83
2,100702, Note_on_c, 0, 63, 0
2,100783, Note_on_c, 0, 63, 31
2,100785, Note_on_c, 0, 78, 52
2,100792, Control_c, 0, 64, 82
2,100833, Control_c, 0, 64, 81
2,100868, Control_c, 0, 64, 80
2,100889, Control_c, 0, 64, 78
2,100907, Control_c, 0, 64, 77
2,100925, Control_c, 0, 64, 76
2,100948, Control_c, 0, 64, 74
2,100968, Control_c, 0, 64, 73
2,100968, Note_on_c, 0, 78, 0
2,100972, Note_on_c, 0, 77, 65
2,100985, Control_c, 0, 64, 71
2,100990, Note_on_c, 0, 65, 46
2,101003, Control_c, 0, 64, 70
2,101022, Control_c, 0, 64, 69
2,101027, Note_on_c, 0, 63, 0
2,101042, Control_c, 0, 64, 68
2,101062, Control_c, 0, 64, 67
2,101080, Control_c, 0, 64, 66
2,101100, Control_c, 0, 64, 65
2,101119, Control_c, 0, 64, 64
2,101164, Note_on_c, 0, 65, 0
2,101179, Control_c, 0, 64, 63
2,101201, Note_on_c, 0, 75, 61
2,101208, Note_on_c, 0, 77, 0
2,101216, Control_c, 0, 64, 62
2,101220, Note_on_c, 0, 66, 42
2,101311, Control_c, 0, 64, 61
2,101368, Control_c, 0, 64, 60
2,101394, Note_on_c, 0, 73, 70
2,101398, Note_on_c, 0, 58, 49
2,101410, Note_on_c, 0, 60, 0
2,101415, Note_on_c, 0, 75, 0
2,101426, Control_c, 0, 64, 59
2,101483, Control_c, 0, 64, 58
2,101521, Control_c, 0, 64, 57
2,101560, Control_c, 0, 64, 56
2,101576, Note_on_c, 0, 58, 0
2,101600, Control_c, 0, 64, 55
2,101600, Note_on_c, 0, 72, 73
2,101611, Note_on_c, 0, 56, 54
2,101630, Note_on_c, 0, 73, 0
2,101636, Control_c, 0, 64, 54
2,101657, Control_c, 0, 64, 53
2,101675, Control_c, 0, 64, 51
2,101694, Control_c, 0, 64, 49
2,101714, Control_c, 0, 64, 46
2,101734, Control_c, 0, 64, 44
2,101754, Control_c, 0, 64, 42
2,101773, Control_c, 0, 64, 40
2,101790, Control_c, 0, 64, 38
2,101797, Note_on_c, 0, 70, 72
2,101811, Control_c, 0, 64, 37
2,101826, Note_on_c, 0, 54, 52
2,101836, Note_on_c, 0, 72, 0
2,101858, Note_on_c, 0, 56, 0
2,101866, Control_c, 0, 64, 36
2,102030, Note_on_c, 0, 68, 69
2,102053, Note_on_c, 0, 54, 0
2,102069, Note_on_c, 0, 53, 42
2,102087, Note_on_c, 0, 70, 0
2,102176, Control_c, 0, 64, 37
2,102389, Control_c, 0, 64, 38
2,102407, Control_c, 0, 64, 41
2,102430, Note_on_c, 0, 66, 0
2,102434, Control_c, 0, 64, 44
2,102434, Note_on_c, 0, 68, 0
2,102434, Note_on_c, 0, 70, 59
2,102446, Control_c, 0, 64, 50
2,102458, Note_on_c, 0, 49, 39
2,102462, Note_on_c, 0, 65, 48
2,102468, Control_c, 0, 64, 57
2,102484, Note_on_c, 0, 53, 0
2,102489, Control_c, 0, 64, 61
2,102504, Control_c, 0, 64, 63
2,102523, Control_c, 0, 64, 64
2,102542, Control_c, 0, 64, 66
2,102560, Control_c, 0, 64, 68
2,102580, Control_c, 0, 64, 71
2,102597, Control_c, 0, 64, 74
2,102612, Note_on_c, 0, 70, 0
2,102619, Control_c, 0, 64, 76
2,102623, Note_on_c, 0, 65, 0
2,102635, Note_on_c, 0, 51, 53
2,102635, Note_on_c, 0, 72, 65
2,102640, Note_on_c, 0, 63, 59
2,102675, Note_on_c, 0, 49, 0
2,102679, Control_c, 0, 64, 75
2,102695, Note_on_c, 0, 63, 0
2,102715, Control_c, 0, 64, 74
2,102754, Control_c, 0, 64, 73
2,102771, Control_c, 0, 64, 72
2,102791, Control_c, 0, 64, 71
2,102811, Control_c, 0, 64, 68
2,102811, Note_on_c, 0, 51, 0
2,102833, Control_c, 0, 64, 62
2,102849, Control_c, 0, 64, 52
2,102871, Control_c, 0, 64, 34
2,102871, Note_on_c, 0, 53, 45
2,102881, Note_on_c, 0, 73, 61
2,102885, Note_on_c, 0, 72, 0
2,102888, Control_c, 0, 64, 0
2,102891, Note_on_c, 0, 61, 43
2,102963, Control_c, 0, 64, 23
2,102983, Control_c, 0, 64, 44
2,103001, Control_c, 0, 64, 58
2,103023, Control_c, 0, 64, 64
2,103039, Note_on_c, 0, 53, 0
2,103043, Control_c, 0, 64, 67
2,103060, Control_c, 0, 64, 71
2,103080, Control_c, 0, 64, 77
2,103099, Control_c, 0, 64, 82
2,103116, Control_c, 0, 64, 88
2,103137, Control_c, 0, 64, 94
2,103141, Note_on_c, 0, 61, 0
2,103156, Control_c, 0, 64, 99
2,103175, Control_c, 0, 64, 101
2,103232, Control_c, 0, 64, 100
2,103247, Note_on_c, 0, 73, 0
2,103271, Control_c, 0, 64, 98
2,103291, Control_c, 0, 64, 96
2,103298, Note_on_c, 0, 56, 57
2,103309, Control_c, 0, 64, 94
2,103314, Note_on_c, 0, 53, 50
2,103332, Control_c, 0, 64, 92
2,103349, Control_c, 0, 64, 89
2,103369, Control_c, 0, 64, 87
2,103387, Control_c, 0, 64, 84
2,103407, Control_c, 0, 64, 81
2,103424, Control_c, 0, 64, 77
2,103444, Control_c, 0, 64, 73
2,103455, Note_on_c, 0, 53, 0
2,103466, Control_c, 0, 64, 70
2,103479, Note_on_c, 0, 58, 61
2,103480, Note_on_c, 0, 56, 0
2,103484, Control_c, 0, 64, 67
2,103493, Note_on_c, 0, 55, 60
2,103502, Control_c, 0, 64, 65
2,103521, Control_c, 0, 64, 64
2,103538, Control_c, 0, 64, 63
2,103578, Control_c, 0, 64, 62
2,103598, Control_c, 0, 64, 59
2,103615, Control_c, 0, 64, 53
2,103635, Control_c, 0, 64, 35
2,103653, Control_c, 0, 64, 0
2,103697, Note_on_c, 0, 58, 0
2,103716, Note_on_c, 0, 55, 0
2,103739, Note_on_c, 0, 60, 52
2,103746, Note_on_c, 0, 56, 52
2,103790, Control_c, 0, 64, 26
2,103812, Control_c, 0, 64, 40
2,103830, Control_c, 0, 64, 50
2,103848, Control_c, 0, 64, 58
2,103867, Control_c, 0, 64, 62
2,103886, Control_c, 0, 64, 64
2,103904, Control_c, 0, 64, 65
2,103924, Control_c, 0, 64, 66
2,103945, Control_c, 0, 64, 69
2,103963, Control_c, 0, 64, 73
2,103981, Control_c, 0, 64, 78
2,103988, Note_on_c, 0, 60, 0
2,104001, Control_c, 0, 64, 85
2,104019, Control_c, 0, 64, 92
2,104040, Control_c, 0, 64, 95
2,104058, Control_c, 0, 64, 96
2,104142, Note_on_c, 0, 75, 56
2,104155, Control_c, 0, 64, 95
2,104168, Note_on_c, 0, 60, 51
2,104174, Control_c, 0, 64, 93
2,104193, Control_c, 0, 64, 92
2,104211, Control_c, 0, 64, 90
2,104230, Control_c, 0, 64, 88
2,104251, Control_c, 0, 64, 86
2,104269, Control_c, 0, 64, 85
2,104288, Control_c, 0, 64, 83
2,104308, Control_c, 0, 64, 81
2,104330, Control_c, 0, 64, 78
2,104330, Note_on_c, 0, 75, 0
2,104341, Note_on_c, 0, 73, 64
2,104345, Control_c, 0, 64, 75
2,104356, Note_on_c, 0, 61, 51
2,104368, Control_c, 0, 64, 73
2,104368, Note_on_c, 0, 60, 0
2,104386, Control_c, 0, 64, 71
2,104404, Control_c, 0, 64, 70
2,104423, Control_c, 0, 64, 69
2,104441, Control_c, 0, 64, 67
2,104461, Control_c, 0, 64, 66
2,104483, Control_c, 0, 64, 65
2,104539, Control_c, 0, 64, 64
2,104562, Note_on_c, 0, 72, 67
2,104568, Note_on_c, 0, 73, 0
2,104580, Control_c, 0, 64, 63
2,104600, Control_c, 0, 64, 62
2,104600, Note_on_c, 0, 61, 0
2,104605, Note_on_c, 0, 63, 47
2,104711, Control_c, 0, 64, 61
2,104731, Control_c, 0, 64, 60
2,104750, Control_c, 0, 64, 57
2,104764, Note_on_c, 0, 70, 70
2,104773, Control_c, 0, 64, 53
2,104773, Note_on_c, 0, 54, 51
2,104789, Control_c, 0, 64, 48
2,104791, Note_on_c, 0, 72, 0
2,104803, Note_on_c, 0, 56, 0
2,104808, Control_c, 0, 64, 40
2,104828, Control_c, 0, 64, 34
2,104847, Control_c, 0, 64, 32
2,104866, Control_c, 0, 64, 33
2,104883, Control_c, 0, 64, 35
2,104905, Control_c, 0, 64, 40
2,104923, Control_c, 0, 64, 47
2,104938, Note_on_c, 0, 54, 0
2,104944, Control_c, 0, 64, 54
2,104949, Note_on_c, 0, 68, 74
2,104960, Control_c, 0, 64, 59
2,104970, Note_on_c, 0, 53, 51
2,104981, Control_c, 0, 64, 61
2,104999, Control_c, 0, 64, 62
2,105005, Note_on_c, 0, 70, 0
2,105019, Control_c, 0, 64, 63
2,105038, Control_c, 0, 64, 65
2,105059, Control_c, 0, 64, 67
2,105076, Control_c, 0, 64, 69
2,105095, Control_c, 0, 64, 72
2,105115, Control_c, 0, 64, 73
2,105142, Note_on_c, 0, 66, 77
2,105156, Note_on_c, 0, 51, 62
2,105194, Control_c, 0, 64, 72
2,105194, Note_on_c, 0, 68, 0
2,105228, Control_c, 0, 64, 71
2,105240, Note_on_c, 0, 53, 0
2,105244, Note_on_c, 0, 66, 0
2,105288, Control_c, 0, 64, 70
2,105306, Control_c, 0, 64, 69
2,105326, Control_c, 0, 64, 68
2,105346, Control_c, 0, 64, 67
2,105366, Note_on_c, 0, 65, 65
2,105385, Control_c, 0, 64, 66
2,105394, Note_on_c, 0, 49, 53
2,105402, Control_c, 0, 64, 65
2,105421, Control_c, 0, 64, 63
2,105440, Control_c, 0, 64, 62
2,105454, Note_on_c, 0, 51, 0
2,105459, Control_c, 0, 64, 60
2,105481, Control_c, 0, 64, 57
2,105498, Control_c, 0, 64, 54
2,105518, Control_c, 0, 64, 51
2,105538, Control_c, 0, 64, 47
2,105556, Control_c, 0, 64, 43
2,105575, Control_c, 0, 64, 38
2,105595, Control_c, 0, 64, 34
2,105616, Control_c, 0, 64, 29
2,105633, Control_c, 0, 64, 23
2,105654, Control_c, 0, 64, 17
2,105670, Control_c, 0, 64, 13
2,105728, Control_c, 0, 64, 17
2,105750, Control_c, 0, 64, 22
2,105768, Control_c, 0, 64, 29
2,105768, Note_on_c, 0, 67, 60
2,105783, Note_on_c, 0, 65, 0
2,105787, Control_c, 0, 64, 38
2,105796, Note_on_c, 0, 63, 0
2,105801, Note_on_c, 0, 46, 43
2,105805, Note_on_c, 0, 61, 55
2,105809, Control_c, 0, 64, 47
2,105827, Control_c, 0, 64, 55
2,105848, Control_c, 0, 64, 61
2,105854, Note_on_c, 0, 49, 0
2,105865, Control_c, 0, 64, 63
2,105883, Control_c, 0, 64, 64
2,105903, Control_c, 0, 64, 65
2,105922, Control_c, 0, 64, 67
2,105940, Control_c, 0, 64, 68
2,105955, Note_on_c, 0, 67, 0
2,105962, Control_c, 0, 64, 70
2,105973, Note_on_c, 0, 69, 68
2,105980, Control_c, 0, 64, 71
2,105984, Note_on_c, 0, 60, 60
2,105996, Note_on_c, 0, 61, 0
2,106000, Control_c, 0, 64, 72
2,106003, Note_on_c, 0, 48, 48
2,106029, Note_on_c, 0, 46, 0
2,106033, Note_on_c, 0, 60, 0
2,106132, Control_c, 0, 64, 71
2,106150, Control_c, 0, 64, 70
2,106170, Control_c, 0, 64, 66
2,106190, Control_c, 0, 64, 59
2,106210, Control_c, 0, 64, 50
2,106210, Note_on_c, 0, 48, 0
2,106227, Control_c, 0, 64, 42
2,106234, Note_on_c, 0, 70, 63
2,106245, Note_on_c, 0, 49, 47
2,106250, Control_c, 0, 64, 38
2,106250, Note_on_c, 0, 58, 52
2,106268, Control_c, 0, 64, 37
2,106288, Control_c, 0, 64, 39
2,106293, Note_on_c, 0, 69, 0
2,106304, Control_c, 0, 64, 43
2,106325, Control_c, 0, 64, 51
2,106344, Control_c, 0, 64, 58
2,106363, Control_c, 0, 64, 62
2,106385, Control_c, 0, 64, 64
2,106385, Note_on_c, 0, 49, 0
2,106400, Control_c, 0, 64, 65
2,106422, Control_c, 0, 64, 68
2,106440, Control_c, 0, 64, 71
2,106458, Control_c, 0, 64, 76
2,106481, Control_c, 0, 64, 81
2,106498, Control_c, 0, 64, 88
2,106517, Control_c, 0, 64, 93
2,106537, Control_c, 0, 64, 96
2,106547, Note_on_c, 0, 58, 0
2,106554, Control_c, 0, 64, 97
2,106610, Note_on_c, 0, 70, 0
2,106614, Control_c, 0, 64, 96
2,106648, Note_on_c, 0, 53, 56
2,106653, Control_c, 0, 64, 95
2,106659, Note_on_c, 0, 49, 48
2,106671, Control_c, 0, 64, 93
2,106692, Control_c, 0, 64, 91
2,106709, Control_c, 0, 64, 89
2,106728, Control_c, 0, 64, 87
2,106747, Control_c, 0, 64, 85
2,106766, Control_c, 0, 64, 83
2,106785, Control_c, 0, 64, 80
2,106803, Control_c, 0, 64, 77
2,106824, Control_c, 0, 64, 73
2,106835, Note_on_c, 0, 51, 63
2,106844, Control_c, 0, 64, 70
2,106853, Note_on_c, 0, 55, 63
2,106864, Control_c, 0, 64, 66
2,106881, Note_on_c, 0, 53, 0
2,106886, Control_c, 0, 64, 64
2,106886, Note_on_c, 0, 49, 0
2,106899, Control_c, 0, 64, 63
2,106919, Control_c, 0, 64, 62
2,106937, Control_c, 0, 64, 61
2,106978, Control_c, 0, 64, 60
2,106998, Control_c, 0, 64, 58
2,107016, Control_c, 0, 64, 55
2,107033, Control_c, 0, 64, 49
2,107056, Control_c, 0, 64, 37
2,107072, Control_c, 0, 64, 19
2,107094, Control_c, 0, 64, 0
2,107094, Note_on_c, 0, 55, 0
2,107097, Note_on_c, 0, 53, 54
2,107106, Note_on_c, 0, 56, 57
2,107111, Note_on_c, 0, 51, 0
2,107168, Control_c, 0, 64, 11
2,107189, Control_c, 0, 64, 23
2,107208, Control_c, 0, 64, 37
2,107227, Control_c, 0, 64, 49
2,107244, Control_c, 0, 64, 58
2,107264, Control_c, 0, 64, 62
2,107287, Control_c, 0, 64, 64
2,107304, Control_c, 0, 64, 66
2,107321, Control_c, 0, 64, 67
2,107342, Control_c, 0, 64, 70
2,107360, Control_c, 0, 64, 74
2,107376, Note_on_c, 0, 56, 0
2,107383, Control_c, 0, 64, 80
2,107401, Control_c, 0, 64, 87
2,107420, Control_c, 0, 64, 94
2,107437, Control_c, 0, 64, 100
2,107458, Control_c, 0, 64, 103
2,107476, Control_c, 0, 64, 104
2,107528, Note_on_c, 0, 72, 56
2,107546, Note_on_c, 0, 56, 50
2,107571, Control_c, 0, 64, 103
2,107593, Control_c, 0, 64, 102
2,107610, Control_c, 0, 64, 100
2,107630, Control_c, 0, 64, 99
2,107648, Control_c, 0, 64, 97
2,107668, Control_c, 0, 64, 94
2,107688, Control_c, 0, 64, 92
2,107709, Control_c, 0, 64, 90
2,107720, Note_on_c, 0, 72, 0
2,107725, Note_on_c, 0, 70, 67
2,107729, Control_c, 0, 64, 88
2,107737, Note_on_c, 0, 58, 48
2,107746, Control_c, 0, 64, 86
2,107765, Control_c, 0, 64, 84
2,107785, Control_c, 0, 64, 82
2,107803, Control_c, 0, 64, 80
2,107823, Control_c, 0, 64, 78
2,107841, Control_c, 0, 64, 76
2,107859, Control_c, 0, 64, 75
2,107879, Control_c, 0, 64, 73
2,107900, Control_c, 0, 64, 72
2,107919, Control_c, 0, 64, 71
2,107923, Note_on_c, 0, 58, 0
2,107929, Note_on_c, 0, 68, 64
2,107938, Control_c, 0, 64, 69
2,107938, Note_on_c, 0, 70, 0
2,107956, Control_c, 0, 64, 68
2,107961, Note_on_c, 0, 60, 52
2,107976, Control_c, 0, 64, 67
2,108013, Control_c, 0, 64, 66
2,108024, Note_on_c, 0, 56, 0
2,108071, Control_c, 0, 64, 65
2,108113, Control_c, 0, 64, 64
2,108129, Note_on_c, 0, 51, 54
2,108131, Note_on_c, 0, 67, 65
2,108137, Note_on_c, 0, 68, 0
2,108167, Control_c, 0, 64, 63
2,108192, Note_on_c, 0, 53, 0
2,108226, Control_c, 0, 64, 62
2,108282, Control_c, 0, 64, 61
2,108321, Control_c, 0, 64, 60
2,108332, Note_on_c, 0, 51, 0
2,108342, Note_on_c, 0, 65, 69
2,108349, Note_on_c, 0, 49, 60
2,108358, Control_c, 0, 64, 59
2,108397, Control_c, 0, 64, 58
2,108410, Note_on_c, 0, 67, 0
2,108419, Control_c, 0, 64, 57
2,108434, Control_c, 0, 64, 56
2,108454, Control_c, 0, 64, 54
2,108473, Control_c, 0, 64, 52
2,108495, Control_c, 0, 64, 50
2,108516, Control_c, 0, 64, 48
2,108533, Control_c, 0, 64, 46
2,108533, Note_on_c, 0, 63, 76
2,108554, Control_c, 0, 64, 44
2,108554, Note_on_c, 0, 48, 61
2,108572, Control_c, 0, 64, 43
2,108595, Note_on_c, 0, 49, 0
2,108626, Note_on_c, 0, 65, 0
2,108750, Note_on_c, 0, 46, 60
2,108750, Note_on_c, 0, 61, 72
2,108795, Note_on_c, 0, 48, 0
2,108828, Note_on_c, 0, 60, 0
2,108856, Note_on_c, 0, 63, 0
2,108938, Note_on_c, 0, 48, 67
2,108954, Control_c, 0, 64, 44
2,108998, Note_on_c, 0, 46, 0
2,109145, Note_on_c, 0, 58, 69
2,109160, Note_on_c, 0, 49, 58
2,109194, Note_on_c, 0, 48, 0
2,109335, Note_on_c, 0, 60, 76
2,109339, Note_on_c, 0, 48, 72
2,109364, Note_on_c, 0, 49, 0
2,109377, Control_c, 0, 64, 45
2,109389, Note_on_c, 0, 58, 0
2,109394, Note_on_c, 0, 61, 0
2,109473, Control_c, 0, 64, 46
2,109543, Note_on_c, 0, 46, 66
2,109543, Note_on_c, 0, 61, 75
2,109601, Note_on_c, 0, 60, 0
2,109605, Note_on_c, 0, 48, 0
2,109736, Note_on_c, 0, 65, 72
2,109743, Note_on_c, 0, 44, 65
2,109760, Control_c, 0, 64, 47
2,109803, Note_on_c, 0, 46, 0
2,109896, Control_c, 0, 64, 48
2,109906, Note_on_c, 0, 44, 0
2,109929, Note_on_c, 0, 43, 67
2,109938, Note_on_c, 0, 70, 80
2,110117, Note_on_c, 0, 41, 65
2,110124, Note_on_c, 0, 68, 87
2,110142, Note_on_c, 0, 43, 0
2,110165, Control_c, 0, 64, 46
2,110174, Note_on_c, 0, 65, 0
2,110182, Control_c, 0, 64, 42
2,110202, Control_c, 0, 64, 37
2,110222, Control_c, 0, 64, 33
2,110234, Note_on_c, 0, 70, 0
2,110243, Control_c, 0, 64, 32
2,110259, Control_c, 0, 64, 33
2,110280, Control_c, 0, 64, 36
2,110297, Control_c, 0, 64, 41
2,110316, Control_c, 0, 64, 49
2,110337, Control_c, 0, 64, 56
2,110355, Control_c, 0, 64, 61
2,110360, Note_on_c, 0, 39, 56
2,110376, Control_c, 0, 64, 64
2,110376, Note_on_c, 0, 69, 71
2,110398, Control_c, 0, 64, 65
2,110398, Note_on_c, 0, 41, 0
2,110413, Control_c, 0, 64, 68
2,110427, Note_on_c, 0, 68, 0
2,110436, Control_c, 0, 64, 72
2,110453, Control_c, 0, 64, 77
2,110453, Note_on_c, 0, 69, 0
2,110471, Control_c, 0, 64, 82
2,110492, Control_c, 0, 64, 85
2,110511, Control_c, 0, 64, 87
2,110546, Note_on_c, 0, 67, 72
2,110604, Control_c, 0, 64, 86
2,110623, Control_c, 0, 64, 85
2,110643, Control_c, 0, 64, 84
2,110701, Control_c, 0, 64, 83
2,110722, Control_c, 0, 64, 78
2,110740, Control_c, 0, 64, 69
2,110760, Control_c, 0, 64, 61
2,110778, Control_c, 0, 64, 52
2,110786, Note_on_c, 0, 63, 64
2,110800, Control_c, 0, 64, 45
2,110815, Control_c, 0, 64, 43
2,110820, Note_on_c, 0, 46, 56
2,110838, Note_on_c, 0, 61, 0
2,110856, Control_c, 0, 64, 46
2,110876, Control_c, 0, 64, 52
2,110892, Control_c, 0, 64, 60
2,110912, Control_c, 0, 64, 65
2,110931, Control_c, 0, 64, 71
2,110949, Note_on_c, 0, 39, 0
2,110952, Control_c, 0, 64, 81
2,110972, Control_c, 0, 64, 98
2,110977, Note_on_c, 0, 46, 0
2,110985, Note_on_c, 0, 61, 72
2,110985, Note_on_c, 0, 67, 0
2,110989, Control_c, 0, 64, 127
2,111010, Note_on_c, 0, 63, 0
2,111188, Note_on_c, 0, 61, 0
2,111277, Control_c, 0, 64, 120
2,111286, Note_on_c, 0, 63, 84
2,111297, Note_on_c, 0, 48, 55
2,111300, Control_c, 0, 64, 103
2,111317, Control_c, 0, 64, 94
2,111326, Note_on_c, 0, 68, 74
2,111335, Control_c, 0, 64, 85
2,111339, Note_on_c, 0, 60, 62
2,111354, Control_c, 0, 64, 78
2,111376, Control_c, 0, 64, 70
2,111393, Control_c, 0, 64, 64
2,111410, Control_c, 0, 64, 58
2,111431, Control_c, 0, 64, 50
2,111452, Control_c, 0, 64, 35
2,111470, Control_c, 0, 64, 0
2,111605, Control_c, 0, 64, 30
2,111624, Control_c, 0, 64, 51
2,111641, Control_c, 0, 64, 61
2,111662, Control_c, 0, 64, 65
2,111682, Control_c, 0, 64, 69
2,111700, Control_c, 0, 64, 73
2,111719, Control_c, 0, 64, 78
2,111724, Note_on_c, 0, 60, 0
2,111739, Control_c, 0, 64, 82
2,111758, Control_c, 0, 64, 88
2,111777, Control_c, 0, 64, 95
2,111796, Control_c, 0, 64, 109
2,111801, Note_on_c, 0, 44, 55
2,111801, Note_on_c, 0, 61, 63
2,111816, Control_c, 0, 64, 127
2,111850, Note_on_c, 0, 63, 0
2,111861, Note_on_c, 0, 48, 0
2,111882, Note_on_c, 0, 68, 0
2,111942, Note_on_c, 0, 44, 0
2,111971, Note_on_c, 0, 61, 0
2,111980, Note_on_c, 0, 60, 76
2,112158, Note_on_c, 0, 60, 0
2,112190, Note_on_c, 0, 65, 82
2,112219, Note_on_c, 0, 49, 56
2,112219, Note_on_c, 0, 58, 53
2,112237, Control_c, 0, 64, 122
2,112257, Control_c, 0, 64, 108
2,112275, Control_c, 0, 64, 97
2,112294, Control_c, 0, 64, 81
2,112313, Control_c, 0, 64, 63
2,112334, Control_c, 0, 64, 46
2,112352, Control_c, 0, 64, 20
2,112371, Control_c, 0, 64, 0
2,112386, Note_on_c, 0, 67, 68
2,112430, Control_c, 0, 64, 12
2,112448, Control_c, 0, 64, 31
2,112467, Control_c, 0, 64, 45
2,112486, Control_c, 0, 64, 55
2,112505, Control_c, 0, 64, 60
2,112526, Control_c, 0, 64, 62
2,112545, Control_c, 0, 64, 63
2,112563, Control_c, 0, 64, 64
2,112570, Note_on_c, 0, 67, 0
2,112583, Control_c, 0, 64, 65
2,112588, Note_on_c, 0, 46, 56
2,112597, Note_on_c, 0, 68, 72
2,112604, Control_c, 0, 64, 68
2,112617, Note_on_c, 0, 49, 0
2,112621, Control_c, 0, 64, 72
2,112640, Control_c, 0, 64, 77
2,112660, Control_c, 0, 64, 86
2,112678, Control_c, 0, 64, 95
2,112696, Control_c, 0, 64, 106
2,112713, Control_c, 0, 64, 127
2,112780, Note_on_c, 0, 70, 77
2,112796, Note_on_c, 0, 68, 0
2,112804, Note_on_c, 0, 65, 0
2,112860, Note_on_c, 0, 70, 0
2,112927, Control_c, 0, 64, 115
2,112946, Control_c, 0, 64, 108
2,112966, Control_c, 0, 64, 103
2,112986, Control_c, 0, 64, 97
2,112990, Note_on_c, 0, 46, 0
2,112998, Note_on_c, 0, 63, 80
2,113006, Control_c, 0, 64, 93
2,113022, Control_c, 0, 64, 89
2,113026, Note_on_c, 0, 72, 75
2,113031, Note_on_c, 0, 51, 56
2,113041, Control_c, 0, 64, 87
2,113064, Control_c, 0, 64, 83
2,113080, Control_c, 0, 64, 77
2,113098, Control_c, 0, 64, 67
2,113119, Control_c, 0, 64, 56
2,113137, Control_c, 0, 64, 36
2,113156, Control_c, 0, 64, 10
2,113176, Control_c, 0, 64, 0
2,113272, Control_c, 0, 64, 12
2,113293, Control_c, 0, 64, 22
2,113311, Control_c, 0, 64, 31
2,113330, Control_c, 0, 64, 41
2,113351, Control_c, 0, 64, 51
2,113368, Control_c, 0, 64, 59
2,113386, Control_c, 0, 64, 62
2,113408, Control_c, 0, 64, 64
2,113429, Control_c, 0, 64, 65
2,113433, Note_on_c, 0, 56, 61
2,113442, Note_on_c, 0, 48, 60
2,113446, Control_c, 0, 64, 66
2,113449, Note_on_c, 0, 51, 0
2,113465, Control_c, 0, 64, 70
2,113469, Note_on_c, 0, 58, 0
2,113483, Control_c, 0, 64, 76
2,113504, Control_c, 0, 64, 86
2,113520, Control_c, 0, 64, 103
2,113540, Control_c, 0, 64, 127
2,113547, Note_on_c, 0, 63, 0
2,113632, Note_on_c, 0, 55, 75
2,113671, Note_on_c, 0, 56, 0
2,113818, Note_on_c, 0, 72, 0
2,113865, Note_on_c, 0, 48, 0
2,113865, Note_on_c, 0, 53, 59
2,113872, Note_on_c, 0, 62, 82
2,113883, Note_on_c, 0, 56, 53
2,113944, Control_c, 0, 64, 112
2,113948, Note_on_c, 0, 55, 0
2,113964, Control_c, 0, 64, 92
2,113982, Control_c, 0, 64, 71
2,114001, Control_c, 0, 64, 57
2,114020, Control_c, 0, 64, 38
2,114040, Control_c, 0, 64, 16
2,114058, Control_c, 0, 64, 11
2,114081, Control_c, 0, 64, 13
2,114081, Note_on_c, 0, 68, 74
2,114100, Control_c, 0, 64, 24
2,114118, Control_c, 0, 64, 37
2,114137, Control_c, 0, 64, 51
2,114154, Control_c, 0, 64, 61
2,114174, Control_c, 0, 64, 65
2,114196, Control_c, 0, 64, 69
2,114214, Control_c, 0, 64, 74
2,114234, Control_c, 0, 64, 81
2,114252, Control_c, 0, 64, 88
2,114271, Control_c, 0, 64, 97
2,114271, Note_on_c, 0, 55, 65
2,114280, Note_on_c, 0, 70, 80
2,114285, Note_on_c, 0, 53, 0
2,114294, Control_c, 0, 64, 110
2,114294, Note_on_c, 0, 46, 55
2,114311, Control_c, 0, 64, 127
2,114311, Note_on_c, 0, 56, 0
2,114321, Note_on_c, 0, 68, 0
2,114421, Note_on_c, 0, 62, 0
2,114460, Note_on_c, 0, 55, 0
2,114460, Note_on_c, 0, 56, 72
2,114460, Note_on_c, 0, 72, 85
2,114501, Note_on_c, 0, 70, 0
2,114592, Note_on_c, 0, 56, 0
2,114618, Note_on_c, 0, 72, 0
2,114655, Control_c, 0, 64, 115
2,114676, Control_c, 0, 64, 80
2,114687, Note_on_c, 0, 67, 82
2,114695, Control_c, 0, 64, 62
2,114704, Note_on_c, 0, 58, 62
2,114711, Control_c, 0, 64, 46
2,114720, Note_on_c, 0, 73, 70
2,114732, Control_c, 0, 64, 31
2,114751, Control_c, 0, 64, 27
2,114769, Control_c, 0, 64, 29
2,114788, Control_c, 0, 64, 37
2,114810, Control_c, 0, 64, 50
2,114826, Control_c, 0, 64, 62
2,114847, Control_c, 0, 64, 68
2,114855, Note_on_c, 0, 58, 0
2,114865, Control_c, 0, 64, 80
2,114872, Note_on_c, 0, 56, 72
2,114885, Control_c, 0, 64, 115
2,114903, Control_c, 0, 64, 127
2,114977, Note_on_c, 0, 46, 0
2,115019, Note_on_c, 0, 56, 0
2,115050, Note_on_c, 0, 67, 0
2,115068, Note_on_c, 0, 55, 71
2,115075, Note_on_c, 0, 51, 69
2,115110, Note_on_c, 0, 73, 0
2,115124, Note_on_c, 0, 51, 0
2,115148, Note_on_c, 0, 55, 0
2,115254, Note_on_c, 0, 53, 67
2,115261, Note_on_c, 0, 49, 60
2,115314, Note_on_c, 0, 49, 0
2,115316, Note_on_c, 0, 53, 0
2,115443, Control_c, 0, 64, 118
2,115460, Control_c, 0, 64, 93
2,115467, Note_on_c, 0, 68, 88
2,115483, Control_c, 0, 64, 69
2,115483, Note_on_c, 0, 51, 62
2,115487, Note_on_c, 0, 48, 61
2,115499, Control_c, 0, 64, 52
2,115519, Control_c, 0, 64, 24
2,115536, Control_c, 0, 64, 0
2,115596, Control_c, 0, 64, 8
2,115616, Control_c, 0, 64, 40
2,115633, Control_c, 0, 64, 57
2,115653, Control_c, 0, 64, 66
2,115660, Note_on_c, 0, 72, 77
2,115674, Control_c, 0, 64, 73
2,115681, Note_on_c, 0, 48, 0
2,115681, Note_on_c, 0, 51, 0
2,115693, Control_c, 0, 64, 83
2,115709, Control_c, 0, 64, 95
2,115729, Control_c, 0, 64, 106
2,115752, Control_c, 0, 64, 109
2,115843, Control_c, 0, 64, 108
2,115877, Note_on_c, 0, 73, 73
2,115886, Control_c, 0, 64, 106
2,115888, Note_on_c, 0, 56, 77
2,115892, Note_on_c, 0, 53, 70
2,115904, Note_on_c, 0, 72, 0
2,115908, Control_c, 0, 64, 97
2,115924, Control_c, 0, 64, 79
2,115942, Control_c, 0, 64, 64
2,115960, Control_c, 0, 64, 53
2,115979, Control_c, 0, 64, 43
2,116017, Control_c, 0, 64, 49
2,116038, Control_c, 0, 64, 57
2,116059, Control_c, 0, 64, 63
2,116070, Note_on_c, 0, 75, 80
2,116074, Control_c, 0, 64, 67
2,116096, Control_c, 0, 64, 72
2,116115, Control_c, 0, 64, 79
2,116119, Note_on_c, 0, 68, 0
2,116126, Note_on_c, 0, 73, 0
2,116133, Control_c, 0, 64, 87
2,116151, Control_c, 0, 64, 93
2,116174, Control_c, 0, 64, 94
2,116191, Control_c, 0, 64, 95
2,116208, Control_c, 0, 64, 94
2,116228, Control_c, 0, 64, 91
2,116247, Control_c, 0, 64, 88
2,116266, Control_c, 0, 64, 85
2,116286, Control_c, 0, 64, 81
2,116306, Control_c, 0, 64, 76
2,116327, Control_c, 0, 64, 71
2,116338, Note_on_c, 0, 61, 78
2,116343, Control_c, 0, 64, 66
2,116355, Note_on_c, 0, 75, 0
2,116364, Control_c, 0, 64, 63
2,116364, Note_on_c, 0, 77, 64
2,116383, Control_c, 0, 64, 60
2,116402, Control_c, 0, 64, 59
2,116423, Control_c, 0, 64, 57
2,116439, Control_c, 0, 64, 55
2,116460, Control_c, 0, 64, 53
2,116476, Note_on_c, 0, 56, 0
2,116480, Control_c, 0, 64, 51
2,116498, Control_c, 0, 64, 49
2,116519, Control_c, 0, 64, 46
2,116526, Note_on_c, 0, 53, 0
2,116534, Note_on_c, 0, 51, 59
2,116538, Control_c, 0, 64, 44
2,116556, Control_c, 0, 64, 40
2,116574, Control_c, 0, 64, 21
2,116589, Note_on_c, 0, 55, 54
2,116594, Control_c, 0, 64, 0
2,116729, Control_c, 0, 64, 18
2,116747, Control_c, 0, 64, 43
2,116767, Control_c, 0, 64, 55
2,116778, Note_on_c, 0, 53, 66
2,116778, Note_on_c, 0, 56, 71
2,116786, Control_c, 0, 64, 62
2,116791, Note_on_c, 0, 51, 0
2,116791, Note_on_c, 0, 55, 0
2,116806, Control_c, 0, 64, 64
2,116806, Note_on_c, 0, 61, 0
2,116827, Control_c, 0, 64, 65
2,116845, Control_c, 0, 64, 67
2,116862, Control_c, 0, 64, 69
2,116881, Control_c, 0, 64, 72
2,116903, Control_c, 0, 64, 75
2,116903, Note_on_c, 0, 56, 0
2,116922, Control_c, 0, 64, 77
2,116938, Control_c, 0, 64, 78
2,116944, Note_on_c, 0, 58, 72
2,116971, Note_on_c, 0, 55, 55
2,117016, Control_c, 0, 64, 77
2,117033, Note_on_c, 0, 53, 0
2,117033, Note_on_c, 0, 58, 0
2,117074, Control_c, 0, 64, 76
2,117092, Control_c, 0, 64, 74
2,117111, Control_c, 0, 64, 73
2,117134, Control_c, 0, 64, 71
2,117151, Control_c, 0, 64, 69
2,117151, Note_on_c, 0, 77, 0
2,117167, Note_on_c, 0, 60, 80
2,117172, Control_c, 0, 64, 67
2,117187, Note_on_c, 0, 56, 72
2,117191, Control_c, 0, 64, 65
2,117198, Note_on_c, 0, 55, 0
2,117209, Control_c, 0, 64, 63
2,117229, Control_c, 0, 64, 60
2,117246, Control_c, 0, 64, 59
2,117285, Control_c, 0, 64, 58
2,117304, Control_c, 0, 64, 55
2,117323, Control_c, 0, 64, 45
2,117343, Control_c, 0, 64, 13
2,117361, Note_on_c, 0, 75, 74
2,117366, Control_c, 0, 64, 0
2,117366, Note_on_c, 0, 55, 62
2,117417, Note_on_c, 0, 56, 0
2,117534, Control_c, 0, 64, 38
2,117554, Control_c, 0, 64, 53
2,117561, Note_on_c, 0, 77, 81
2,117574, Control_c, 0, 64, 61
2,117574, Note_on_c, 0, 53, 70
2,117574, Note_on_c, 0, 55, 0
2,117594, Control_c, 0, 64, 64
2,117611, Control_c, 0, 64, 66
2,117619, Note_on_c, 0, 75, 0
2,117632, Control_c, 0, 64, 68
2,117650, Control_c, 0, 64, 71
2,117668, Control_c, 0, 64, 76
2,117688, Control_c, 0, 64, 81
2,117709, Control_c, 0, 64, 85
2,117726, Control_c, 0, 64, 88
2,117755, Note_on_c, 0, 51, 78
2,117756, Note_on_c, 0, 79, 87
2,117782, Note_on_c, 0, 53, 0
2,117798, Note_on_c, 0, 77, 0
2,117816, Note_on_c, 0, 60, 0
2,117842, Control_c, 0, 64, 87
2,117854, Note_on_c, 0, 51, 0
2,117861, Control_c, 0, 64, 86
2,117878, Control_c, 0, 64, 85
2,117898, Control_c, 0, 64, 84
2,117918, Control_c, 0, 64, 82
2,117938, Control_c, 0, 64, 80
2,117956, Control_c, 0, 64, 78
2,117976, Control_c, 0, 64, 75
2,117994, Control_c, 0, 64, 72
2,118017, Control_c, 0, 64, 69
2,118017, Note_on_c, 0, 59, 80
2,118039, Control_c, 0, 64, 66
2,118039, Note_on_c, 0, 50, 66
2,118039, Note_on_c, 0, 79, 0
2,118039, Note_on_c, 0, 80, 70
2,118053, Control_c, 0, 64, 63
2,118072, Control_c, 0, 64, 62
2,118093, Control_c, 0, 64, 61
2,118129, Control_c, 0, 64, 59
2,118149, Control_c, 0, 64, 55
2,118168, Control_c, 0, 64, 46
2,118187, Control_c, 0, 64, 28
2,118206, Control_c, 0, 64, 0
2,118228, Note_on_c, 0, 53, 70
2,118378, Control_c, 0, 64, 15
2,118398, Control_c, 0, 64, 37
2,118416, Control_c, 0, 64, 50
2,118435, Control_c, 0, 64, 58
2,118449, Note_on_c, 0, 55, 71
2,118457, Control_c, 0, 64, 60
2,118463, Note_on_c, 0, 53, 0
2,118477, Control_c, 0, 64, 62
2,118497, Control_c, 0, 64, 63
2,118515, Control_c, 0, 64, 64
2,118534, Control_c, 0, 64, 65
2,118555, Control_c, 0, 64, 67
2,118572, Control_c, 0, 64, 69
2,118592, Control_c, 0, 64, 72
2,118609, Control_c, 0, 64, 74
2,118629, Control_c, 0, 64, 75
2,118645, Note_on_c, 0, 56, 79
2,118657, Note_on_c, 0, 55, 0
2,118686, Control_c, 0, 64, 74
2,118693, Note_on_c, 0, 59, 0
2,118726, Control_c, 0, 64, 73
2,118763, Control_c, 0, 64, 72
2,118781, Control_c, 0, 64, 70
2,118801, Control_c, 0, 64, 68
2,118823, Control_c, 0, 64, 66
2,118842, Control_c, 0, 64, 65
2,118858, Control_c, 0, 64, 64
2,118916, Control_c, 0, 64, 63
2,118937, Control_c, 0, 64, 62
2,118945, Note_on_c, 0, 58, 68
2,118968, Note_on_c, 0, 51, 59
2,118975, Control_c, 0, 64, 61
2,119013, Control_c, 0, 64, 60
2,119033, Control_c, 0, 64, 56
2,119042, Note_on_c, 0, 50, 0
2,119050, Control_c, 0, 64, 49
2,119071, Control_c, 0, 64, 39
2,119090, Control_c, 0, 64, 24
2,119095, Note_on_c, 0, 56, 0
2,119110, Control_c, 0, 64, 0
2,119416, Note_on_c, 0, 51, 0
2,119416, Note_on_c, 0, 79, 62
2,119428, Note_on_c, 0, 50, 51
2,119435, Control_c, 0, 64, 10
2,119513, Control_c, 0, 64, 11
2,119533, Control_c, 0, 64, 12
2,119533, Note_on_c, 0, 80, 0
2,119549, Control_c, 0, 64, 13
2,119569, Control_c, 0, 64, 14
2,119589, Control_c, 0, 64, 15
2,119599, Note_on_c, 0, 77, 66
2,119645, Control_c, 0, 64, 16
2,119668, Note_on_c, 0, 79, 0
2,119723, Control_c, 0, 64, 17
2,119743, Control_c, 0, 64, 18
2,119761, Control_c, 0, 64, 19
2,119782, Control_c, 0, 64, 20
2,119789, Note_on_c, 0, 50, 0
2,119800, Control_c, 0, 64, 22
2,119821, Control_c, 0, 64, 24
2,119825, Note_on_c, 0, 79, 67
2,119833, Note_on_c, 0, 52, 49
2,119842, Control_c, 0, 64, 25
2,119893, Note_on_c, 0, 77, 0
2,119896, Control_c, 0, 64, 26
2,119914, Control_c, 0, 64, 27
2,119953, Control_c, 0, 64, 28
2,119973, Control_c, 0, 64, 29
2,120012, Control_c, 0, 64, 30
2,120027, Note_on_c, 0, 55, 53
2,120049, Control_c, 0, 64, 31
2,120145, Control_c, 0, 64, 32
2,120193, Note_on_c, 0, 52, 0
2,120241, Note_on_c, 0, 53, 49
2,120252, Note_on_c, 0, 55, 0
2,120262, Control_c, 0, 64, 33
2,120265, Note_on_c, 0, 48, 23
2,120320, Control_c, 0, 64, 34
2,120424, Note_on_c, 0, 53, 0
2,120439, Note_on_c, 0, 48, 0
2,120453, Note_on_c, 0, 52, 48
2,120475, Control_c, 0, 64, 35
2,120529, Control_c, 0, 64, 36
2,120568, Control_c, 0, 64, 37
2,120741, Note_on_c, 0, 56, 50
2,120769, Note_on_c, 0, 53, 40
2,120792, Note_on_c, 0, 52, 0
2,120852, Note_on_c, 0, 58, 0
2,121020, Note_on_c, 0, 72, 49
2,121062, Note_on_c, 0, 53, 0
2,121210, Note_on_c, 0, 72, 0
2,121227, Note_on_c, 0, 74, 55
2,121241, Note_on_c, 0, 53, 43
2,121284, Note_on_c, 0, 79, 0
2,121296, Control_c, 0, 64, 38
2,121336, Note_on_c, 0, 53, 0
2,121374, Control_c, 0, 64, 39
2,121404, Note_on_c, 0, 51, 45
2,121415, Control_c, 0, 64, 40
2,121431, Note_on_c, 0, 75, 55
2,121451, Control_c, 0, 64, 41
2,121477, Note_on_c, 0, 74, 0
2,121510, Control_c, 0, 64, 42
2,121565, Note_on_c, 0, 51, 0
2,121587, Control_c, 0, 64, 43
2,121622, Note_on_c, 0, 75, 0
2,121637, Note_on_c, 0, 77, 60
2,121650, Note_on_c, 0, 50, 35
2,121802, Note_on_c, 0, 56, 0
2,121831, Note_on_c, 0, 71, 58
2,121857, Note_on_c, 0, 50, 0
2,122021, Note_on_c, 0, 71, 0
2,122030, Note_on_c, 0, 50, 34
2,122032, Note_on_c, 0, 72, 62
2,122219, Note_on_c, 0, 74, 59
2,122223, Note_on_c, 0, 48, 48
2,122236, Note_on_c, 0, 72, 0
2,122255, Note_on_c, 0, 50, 0
2,122405, Note_on_c, 0, 67, 53
2,122428, Note_on_c, 0, 48, 0
2,122437, Note_on_c, 0, 74, 0
2,122441, Note_on_c, 0, 47, 39
2,122568, Control_c, 0, 64, 44
2,122611, Note_on_c, 0, 47, 0
2,122625, Control_c, 0, 64, 45
2,122625, Note_on_c, 0, 43, 48
2,122660, Control_c, 0, 64, 46
2,122678, Control_c, 0, 64, 47
2,122799, Note_on_c, 0, 43, 0
2,122823, Note_on_c, 0, 75, 61
2,122832, Note_on_c, 0, 45, 41
2,122852, Control_c, 0, 64, 48
2,122852, Note_on_c, 0, 77, 0
2,122911, Control_c, 0, 64, 47
2,123001, Note_on_c, 0, 74, 71
2,123027, Note_on_c, 0, 47, 46
2,123027, Note_on_c, 0, 75, 0
2,123043, Control_c, 0, 64, 48
2,123050, Note_on_c, 0, 45, 0
2,123206, Note_on_c, 0, 47, 0
2,123213, Note_on_c, 0, 75, 66
2,123217, Note_on_c, 0, 74, 0
2,123240, Note_on_c, 0, 48, 45
2,123258, Control_c, 0, 64, 49
2,123372, Control_c, 0, 64, 50
2,123421, Note_on_c, 0, 44, 60
2,123477, Note_on_c, 0, 48, 0
2,123526, Control_c, 0, 64, 51
2,123627, Note_on_c, 0, 66, 68
2,123638, Note_on_c, 0, 46, 51
2,123642, Note_on_c, 0, 67, 0
2,123649, Note_on_c, 0, 44, 0
2,123818, Note_on_c, 0, 46, 0
2,123830, Note_on_c, 0, 48, 54
2,123890, Control_c, 0, 64, 52
2,124071, Note_on_c, 0, 65, 47
2,124079, Note_on_c, 0, 49, 38
2,124094, Note_on_c, 0, 66, 0
2,124114, Note_on_c, 0, 48, 0
2,124252, Note_on_c, 0, 75, 0
2,124293, Note_on_c, 0, 68, 60
2,124296, Control_c, 0, 64, 53
2,124307, Note_on_c, 0, 49, 0
2,124485, Note_on_c, 0, 49, 37
2,124491, Note_on_c, 0, 70, 62
2,124507, Note_on_c, 0, 68, 0
2,124563, Control_c, 0, 64, 52
2,124673, Note_on_c, 0, 72, 69
2,124680, Note_on_c, 0, 70, 0
2,124684, Note_on_c, 0, 48, 43
2,124689, Note_on_c, 0, 49, 0
2,124889, Note_on_c, 0, 73, 62
2,124913, Note_on_c, 0, 46, 41
2,124924, Note_on_c, 0, 72, 0
2,124953, Note_on_c, 0, 48, 0
2,125086, Note_on_c, 0, 67, 54
2,125100, Note_on_c, 0, 46, 0
2,125106, Note_on_c, 0, 65, 0
2,125176, Control_c, 0, 64, 53
2,125214, Control_c, 0, 64, 52
2,125266, Note_on_c, 0, 46, 43
2,125279, Note_on_c, 0, 68, 58
2,125297, Note_on_c, 0, 67, 0
2,125462, Note_on_c, 0, 70, 60
2,125468, Note_on_c, 0, 44, 52
2,125482, Note_on_c, 0, 68, 0
2,125489, Note_on_c, 0, 46, 0
2,125520, Control_c, 0, 64, 53
2,125695, Note_on_c, 0, 63, 45
2,125704, Note_on_c, 0, 43, 35
2,125725, Note_on_c, 0, 70, 0
2,125733, Note_on_c, 0, 44, 0
2,125894, Note_on_c, 0, 39, 43
2,125944, Control_c, 0, 64, 52
2,125998, Note_on_c, 0, 43, 0
2,126048, Note_on_c, 0, 39, 0
2,126089, Note_on_c, 0, 72, 55
2,126094, Note_on_c, 0, 73, 0
2,126096, Note_on_c, 0, 41, 40
2,126260, Note_on_c, 0, 41, 0
2,126272, Note_on_c, 0, 72, 0
2,126278, Note_on_c, 0, 70, 59
2,126290, Note_on_c, 0, 43, 43
2,126464, Note_on_c, 0, 43, 0
2,126480, Note_on_c, 0, 70, 0
2,126489, Note_on_c, 0, 72, 57
2,126496, Note_on_c, 0, 44, 48
2,126576, Note_on_c, 0, 63, 0
2,126669, Note_on_c, 0, 66, 58
2,126692, Note_on_c, 0, 41, 45
2,126741, Note_on_c, 0, 44, 0
2,126751, Control_c, 0, 64, 51
2,126853, Note_on_c, 0, 66, 0
2,126876, Note_on_c, 0, 65, 58
2,126886, Note_on_c, 0, 43, 48
2,126927, Note_on_c, 0, 41, 0
2,127070, Note_on_c, 0, 63, 65
2,127074, Note_on_c, 0, 65, 0
2,127083, Note_on_c, 0, 43, 0
2,127095, Note_on_c, 0, 45, 45
2,127132, Control_c, 0, 64, 50
2,127296, Note_on_c, 0, 46, 47
2,127300, Note_on_c, 0, 61, 52
2,127307, Control_c, 0, 64, 51
2,127320, Note_on_c, 0, 45, 0
2,127355, Note_on_c, 0, 63, 0
2,127478, Note_on_c, 0, 45, 50
2,127499, Control_c, 0, 64, 50
2,127518, Note_on_c, 0, 46, 0
2,127694, Note_on_c, 0, 65, 58
2,127709, Note_on_c, 0, 46, 44
2,127718, Note_on_c, 0, 45, 0
2,127740, Note_on_c, 0, 72, 0
2,127881, Note_on_c, 0, 46, 0
2,127899, Note_on_c, 0, 48, 45
2,128129, Note_on_c, 0, 65, 0
2,128136, Note_on_c, 0, 49, 34
2,128193, Note_on_c, 0, 48, 0
2,128315, Note_on_c, 0, 68, 37
2,128356, Note_on_c, 0, 68, 0
2,128456, Note_on_c, 0, 46, 20
2,128463, Note_on_c, 0, 68, 60
2,128509, Note_on_c, 0, 46, 0
2,128520, Note_on_c, 0, 49, 0
2,128570, Note_on_c, 0, 48, 23
2,128705, Note_on_c, 0, 48, 0
2,128721, Note_on_c, 0, 49, 41
2,128822, Control_c, 0, 64, 51
2,128920, Note_on_c, 0, 68, 0
2,128927, Note_on_c, 0, 67, 45
2,128945, Note_on_c, 0, 49, 0
2,128945, Note_on_c, 0, 51, 32
2,128981, Note_on_c, 0, 61, 0
2,129035, Control_c, 0, 64, 50
2,129092, Control_c, 0, 64, 51
2,129105, Note_on_c, 0, 60, 39
2,129140, Note_on_c, 0, 60, 0
2,129165, Note_on_c, 0, 51, 0
2,129169, Note_on_c, 0, 58, 47
2,129327, Note_on_c, 0, 51, 37
2,129332, Note_on_c, 0, 58, 0
2,129350, Note_on_c, 0, 60, 43
2,129489, Note_on_c, 0, 60, 0
2,129532, Note_on_c, 0, 61, 51
2,129536, Note_on_c, 0, 49, 44
2,129603, Note_on_c, 0, 51, 0
2,129710, Note_on_c, 0, 61, 0
2,129742, Note_on_c, 0, 48, 42
2,129747, Note_on_c, 0, 63, 56
2,129756, Note_on_c, 0, 67, 0
2,129830, Note_on_c, 0, 49, 0
2,129906, Note_on_c, 0, 48, 0
2,129926, Note_on_c, 0, 67, 53
2,130112, Note_on_c, 0, 48, 38
2,130125, Note_on_c, 0, 67, 0
2,130128, Note_on_c, 0, 68, 63
2,130292, Note_on_c, 0, 48, 0
2,130319, Note_on_c, 0, 68, 0
2,130324, Note_on_c, 0, 70, 62
2,130340, Note_on_c, 0, 46, 46
2,130361, Control_c, 0, 64, 52
2,130548, Note_on_c, 0, 70, 0
2,130548, Note_on_c, 0, 72, 55
2,130571, Note_on_c, 0, 44, 43
2,130576, Note_on_c, 0, 63, 0
2,130578, Note_on_c, 0, 46, 0
2,130736, Note_on_c, 0, 63, 57
2,130898, Note_on_c, 0, 44, 0
2,130905, Note_on_c, 0, 63, 0
2,130938, Note_on_c, 0, 65, 58
2,130949, Note_on_c, 0, 56, 41
2,131124, Note_on_c, 0, 67, 53
2,131128, Note_on_c, 0, 56, 0
2,131128, Note_on_c, 0, 65, 0
2,131147, Note_on_c, 0, 55, 42
2,131303, Control_c, 0, 64, 53
2,131308, Note_on_c, 0, 67, 0
2,131317, Note_on_c, 0, 72, 0
2,131341, Note_on_c, 0, 53, 39
2,131350, Note_on_c, 0, 68, 59
2,131372, Note_on_c, 0, 55, 0
2,131491, Control_c, 0, 64, 52
2,131513, Note_on_c, 0, 72, 62
2,131574, Note_on_c, 0, 53, 0
2,131719, Note_on_c, 0, 53, 43
2,131739, Note_on_c, 0, 74, 63
2,131748, Note_on_c, 0, 72, 0
2,131932, Note_on_c, 0, 53, 0
2,131939, Note_on_c, 0, 75, 66
2,131952, Note_on_c, 0, 74, 0
2,131961, Note_on_c, 0, 51, 47
2,132193, Note_on_c, 0, 50, 39
2,132211, Note_on_c, 0, 51, 0
2,132266, Note_on_c, 0, 75, 0
2,132297, Note_on_c, 0, 77, 56
2,132337, Control_c, 0, 64, 51
2,132493, Note_on_c, 0, 68, 0
2,132511, Control_c, 0, 64, 52
2,132548, Control_c, 0, 64, 53
2,132551, Note_on_c, 0, 72, 48
2,132567, Control_c, 0, 64, 55
2,132586, Control_c, 0, 64, 58
2,132606, Control_c, 0, 64, 61
2,132626, Control_c, 0, 64, 63
2,132647, Control_c, 0, 64, 64
2,132662, Control_c, 0, 64, 66
2,132683, Control_c, 0, 64, 69
2,132703, Control_c, 0, 64, 74
2,132720, Control_c, 0, 64, 81
2,132732, Note_on_c, 0, 72, 0
2,132740, Control_c, 0, 64, 93
2,132760, Control_c, 0, 64, 115
2,132764, Note_on_c, 0, 70, 53
2,132775, Note_on_c, 0, 77, 0
2,132780, Control_c, 0, 64, 127
2,132915, Note_on_c, 0, 50, 0
2,132915, Note_on_c, 0, 70, 0
2,132965, Note_on_c, 0, 68, 59
2,133030, Note_on_c, 0, 68, 0
2,133201, Control_c, 0, 64, 113
2,133220, Control_c, 0, 64, 101
2,133238, Control_c, 0, 64, 94
2,133252, Note_on_c, 0, 58, 63
2,133258, Control_c, 0, 64, 88
2,133279, Control_c, 0, 64, 84
2,133297, Control_c, 0, 64, 80
2,133310, Note_on_c, 0, 51, 49
2,133317, Control_c, 0, 64, 77
2,133322, Note_on_c, 0, 67, 48
2,133335, Control_c, 0, 64, 74
2,133353, Control_c, 0, 64, 70
2,133370, Control_c, 0, 64, 68
2,133389, Control_c, 0, 64, 66
2,133408, Control_c, 0, 64, 65
2,133431, Control_c, 0, 64, 64
2,133450, Control_c, 0, 64, 62
2,133466, Control_c, 0, 64, 60
2,133486, Control_c, 0, 64, 57
2,133504, Control_c, 0, 64, 52
2,133523, Control_c, 0, 64, 47
2,133544, Control_c, 0, 64, 40
2,133563, Control_c, 0, 64, 33
2,133581, Control_c, 0, 64, 28
2,133599, Control_c, 0, 64, 27
2,133599, Note_on_c, 0, 70, 51
2,133640, Control_c, 0, 64, 32
2,133659, Control_c, 0, 64, 39
2,133676, Control_c, 0, 64, 48
2,133697, Control_c, 0, 64, 55
2,133717, Control_c, 0, 64, 60
2,133735, Control_c, 0, 64, 62
2,133755, Control_c, 0, 64, 64
2,133774, Control_c, 0, 64, 65
2,133793, Control_c, 0, 64, 68
2,133807, Note_on_c, 0, 70, 0
2,133816, Control_c, 0, 64, 71
2,133816, Note_on_c, 0, 55, 48
2,133821, Note_on_c, 0, 75, 50
2,133831, Control_c, 0, 64, 77
2,133852, Note_on_c, 0, 67, 0
2,133857, Control_c, 0, 64, 85
2,133870, Control_c, 0, 64, 97
2,133889, Control_c, 0, 64, 116
2,133909, Control_c, 0, 64, 127
2,133922, Note_on_c, 0, 58, 0
2,134000, Note_on_c, 0, 67, 50
2,134020, Note_on_c, 0, 75, 0
2,134037, Note_on_c, 0, 51, 0
2,134055, Note_on_c, 0, 67, 0
2,134102, Control_c, 0, 64, 122
2,134120, Control_c, 0, 64, 107
2,134140, Control_c, 0, 64, 101
2,134160, Control_c, 0, 64, 95
2,134177, Control_c, 0, 64, 88
2,134198, Control_c, 0, 64, 83
2,134198, Note_on_c, 0, 60, 71
2,134219, Control_c, 0, 64, 78
2,134240, Control_c, 0, 64, 74
2,134240, Note_on_c, 0, 56, 54
2,134244, Note_on_c, 0, 55, 0
2,134244, Note_on_c, 0, 65, 54
2,134256, Control_c, 0, 64, 71
2,134272, Control_c, 0, 64, 69
2,134291, Control_c, 0, 64, 66
2,134315, Control_c, 0, 64, 65
2,134333, Control_c, 0, 64, 63
2,134350, Control_c, 0, 64, 62
2,134391, Control_c, 0, 64, 60
2,134407, Control_c, 0, 64, 58
2,134427, Control_c, 0, 64, 53
2,134447, Note_on_c, 0, 75, 52
2,134452, Control_c, 0, 64, 46
2,134468, Control_c, 0, 64, 35
2,134485, Control_c, 0, 64, 26
2,134502, Control_c, 0, 64, 22
2,134541, Control_c, 0, 64, 26
2,134563, Control_c, 0, 64, 34
2,134563, Note_on_c, 0, 75, 0
2,134570, Note_on_c, 0, 56, 0
2,134585, Control_c, 0, 64, 45
2,134599, Control_c, 0, 64, 57
2,134621, Control_c, 0, 64, 62
2,134626, Note_on_c, 0, 53, 56
2,134628, Note_on_c, 0, 74, 55
2,134638, Control_c, 0, 64, 64
2,134657, Control_c, 0, 64, 66
2,134675, Control_c, 0, 64, 69
2,134696, Control_c, 0, 64, 72
2,134700, Note_on_c, 0, 60, 0
2,134714, Control_c, 0, 64, 78
2,134735, Control_c, 0, 64, 85
2,134754, Control_c, 0, 64, 93
2,134772, Control_c, 0, 64, 99
2,134782, Note_on_c, 0, 74, 0
2,134793, Control_c, 0, 64, 103
2,134802, Note_on_c, 0, 53, 0
2,134822, Note_on_c, 0, 72, 67
2,134888, Control_c, 0, 64, 102
2,134907, Control_c, 0, 64, 100
2,134924, Control_c, 0, 64, 97
2,134944, Control_c, 0, 64, 94
2,134965, Control_c, 0, 64, 90
2,134982, Control_c, 0, 64, 86
2,135002, Control_c, 0, 64, 82
2,135028, Control_c, 0, 64, 81
2,135028, Note_on_c, 0, 58, 74
2,135032, Note_on_c, 0, 65, 0
2,135032, Note_on_c, 0, 72, 0
2,135041, Control_c, 0, 64, 80
2,135052, Note_on_c, 0, 74, 59
2,135060, Control_c, 0, 64, 79
2,135080, Control_c, 0, 64, 78
2,135099, Control_c, 0, 64, 75
2,135120, Control_c, 0, 64, 71
2,135137, Control_c, 0, 64, 65
2,135158, Control_c, 0, 64, 58
2,135175, Control_c, 0, 64, 50
2,135195, Control_c, 0, 64, 40
2,135213, Control_c, 0, 64, 29
2,135233, Control_c, 0, 64, 21
2,135240, Note_on_c, 0, 74, 0
2,135245, Note_on_c, 0, 75, 59
2,135254, Control_c, 0, 64, 19
2,135272, Control_c, 0, 64, 20
2,135291, Control_c, 0, 64, 25
2,135310, Control_c, 0, 64, 32
2,135329, Control_c, 0, 64, 42
2,135348, Control_c, 0, 64, 51
2,135367, Control_c, 0, 64, 59
2,135387, Control_c, 0, 64, 63
2,135407, Control_c, 0, 64, 65
2,135425, Note_on_c, 0, 46, 62
2,135430, Control_c, 0, 64, 68
2,135447, Control_c, 0, 64, 74
2,135460, Note_on_c, 0, 72, 58
2,135460, Note_on_c, 0, 75, 0
2,135464, Control_c, 0, 64, 81
2,135482, Control_c, 0, 64, 93
2,135496, Note_on_c, 0, 46, 0
2,135503, Control_c, 0, 64, 109
2,135517, Note_on_c, 0, 58, 0
2,135524, Control_c, 0, 64, 127
2,135630, Note_on_c, 0, 72, 0
2,135641, Note_on_c, 0, 74, 57
2,135772, Control_c, 0, 64, 112
2,135788, Control_c, 0, 64, 105
2,135811, Control_c, 0, 64, 99
2,135827, Control_c, 0, 64, 90
2,135847, Control_c, 0, 64, 75
2,135854, Note_on_c, 0, 57, 71
2,135870, Control_c, 0, 64, 63
2,135879, Note_on_c, 0, 48, 56
2,135884, Note_on_c, 0, 75, 58
2,135886, Control_c, 0, 64, 49
2,135905, Control_c, 0, 64, 32
2,135917, Note_on_c, 0, 74, 0
2,135925, Control_c, 0, 64, 18
2,135944, Control_c, 0, 64, 13
2,135962, Control_c, 0, 64, 14
2,135983, Control_c, 0, 64, 24
2,136000, Control_c, 0, 64, 36
2,136021, Control_c, 0, 64, 47
2,136042, Control_c, 0, 64, 56
2,136058, Control_c, 0, 64, 61
2,136080, Control_c, 0, 64, 63
2,136084, Note_on_c, 0, 72, 63
2,136097, Control_c, 0, 64, 65
2,136101, Note_on_c, 0, 75, 0
2,136117, Control_c, 0, 64, 68
2,136139, Control_c, 0, 64, 71
2,136155, Control_c, 0, 64, 76
2,136162, Note_on_c, 0, 48, 0
2,136173, Control_c, 0, 64, 82
2,136194, Control_c, 0, 64, 89
2,136213, Control_c, 0, 64, 95
2,136230, Control_c, 0, 64, 101
2,136249, Control_c, 0, 64, 106
2,136256, Note_on_c, 0, 57, 0
2,136271, Control_c, 0, 64, 109
2,136271, Note_on_c, 0, 60, 60
2,136275, Note_on_c, 0, 74, 63
2,136281, Note_on_c, 0, 72, 0
2,136290, Control_c, 0, 64, 111
2,136308, Control_c, 0, 64, 113
2,136327, Note_on_c, 0, 60, 0
2,136404, Control_c, 0, 64, 111
2,136424, Control_c, 0, 64, 110
2,136435, Note_on_c, 0, 74, 0
2,136439, Note_on_c, 0, 58, 70
2,136444, Control_c, 0, 64, 108
2,136453, Note_on_c, 0, 75, 61
2,136461, Control_c, 0, 64, 105
2,136481, Control_c, 0, 64, 102
2,136485, Note_on_c, 0, 58, 0
2,136499, Control_c, 0, 64, 97
2,136518, Control_c, 0, 64, 94
2,136540, Control_c, 0, 64, 89
2,136558, Control_c, 0, 64, 85
2,136576, Control_c, 0, 64, 81
2,136596, Control_c, 0, 64, 79
2,136616, Control_c, 0, 64, 78
2,136637, Control_c, 0, 64, 77
2,136653, Control_c, 0, 64, 76
2,136673, Control_c, 0, 64, 75
2,136676, Note_on_c, 0, 62, 77
2,136684, Note_on_c, 0, 75, 0
2,136691, Control_c, 0, 64, 72
2,136712, Note_on_c, 0, 77, 65
2,136715, Control_c, 0, 64, 66
2,136729, Note_on_c, 0, 56, 46
2,136734, Control_c, 0, 64, 58
2,136752, Control_c, 0, 64, 46
2,136771, Control_c, 0, 64, 34
2,136788, Control_c, 0, 64, 27
2,136806, Control_c, 0, 64, 25
2,136828, Control_c, 0, 64, 26
2,136846, Control_c, 0, 64, 32
2,136865, Control_c, 0, 64, 41
2,136884, Control_c, 0, 64, 51
2,136905, Control_c, 0, 64, 59
2,136905, Note_on_c, 0, 77, 0
2,136911, Note_on_c, 0, 75, 65
2,136924, Control_c, 0, 64, 62
2,136942, Control_c, 0, 64, 64
2,136962, Control_c, 0, 64, 66
2,136983, Control_c, 0, 64, 68
2,136996, Note_on_c, 0, 75, 0
2,137003, Control_c, 0, 64, 71
2,137020, Control_c, 0, 64, 76
2,137037, Control_c, 0, 64, 81
2,137057, Control_c, 0, 64, 85
2,137075, Note_on_c, 0, 58, 67
2,137079, Control_c, 0, 64, 88
2,137088, Note_on_c, 0, 74, 68
2,137095, Control_c, 0, 64, 89
2,137135, Note_on_c, 0, 56, 0
2,137192, Control_c, 0, 64, 88
2,137210, Note_on_c, 0, 74, 0
2,137219, Note_on_c, 0, 62, 0
2,137251, Control_c, 0, 64, 87
2,137276, Note_on_c, 0, 73, 59
2,137280, Note_on_c, 0, 56, 61
2,137280, Note_on_c, 0, 72, 68
2,137306, Note_on_c, 0, 58, 0
2,137310, Control_c, 0, 64, 86
2,137347, Control_c, 0, 64, 85
2,137384, Note_on_c, 0, 73, 0
2,137388, Control_c, 0, 64, 83
2,137404, Control_c, 0, 64, 73
2,137404, Note_on_c, 0, 72, 0
2,137422, Control_c, 0, 64, 61
2,137441, Control_c, 0, 64, 45
2,137448, Note_on_c, 0, 70, 59
2,137459, Control_c, 0, 64, 23
2,137476, Note_on_c, 0, 63, 76
2,137481, Control_c, 0, 64, 15
2,137494, Note_on_c, 0, 55, 53
2,137499, Control_c, 0, 64, 18
2,137520, Control_c, 0, 64, 30
2,137520, Note_on_c, 0, 56, 0
2,137536, Control_c, 0, 64, 46
2,137558, Control_c, 0, 64, 59
2,137574, Control_c, 0, 64, 64
2,137581, Note_on_c, 0, 63, 0
2,137595, Control_c, 0, 64, 67
2,137615, Control_c, 0, 64, 71
2,137636, Control_c, 0, 64, 74
2,137655, Control_c, 0, 64, 76
2,137671, Control_c, 0, 64, 77
2,137689, Note_on_c, 0, 60, 62
2,137731, Control_c, 0, 64, 76
2,137831, Note_on_c, 0, 60, 0
2,137865, Control_c, 0, 64, 73
2,137882, Control_c, 0, 64, 67
2,137887, Note_on_c, 0, 62, 61
2,137902, Control_c, 0, 64, 60
2,137918, Note_on_c, 0, 46, 47
2,137923, Control_c, 0, 64, 56
2,137941, Control_c, 0, 64, 57
2,137960, Control_c, 0, 64, 59
2,137977, Control_c, 0, 64, 61
2,137997, Control_c, 0, 64, 63
2,138017, Control_c, 0, 64, 66
2,138035, Control_c, 0, 64, 71
2,138056, Control_c, 0, 64, 77
2,138062, Note_on_c, 0, 55, 0
2,138069, Note_on_c, 0, 62, 0
2,138076, Control_c, 0, 64, 82
2,138076, Note_on_c, 0, 63, 69
2,138082, Note_on_c, 0, 48, 65
2,138095, Control_c, 0, 64, 86
2,138131, Note_on_c, 0, 46, 0
2,138133, Control_c, 0, 64, 85
2,138151, Control_c, 0, 64, 84
2,138169, Control_c, 0, 64, 82
2,138192, Control_c, 0, 64, 80
2,138209, Control_c, 0, 64, 77
2,138229, Control_c, 0, 64, 74
2,138246, Control_c, 0, 64, 72
2,138267, Note_on_c, 0, 63, 0
2,138271, Control_c, 0, 64, 69
2,138288, Control_c, 0, 64, 67
2,138300, Note_on_c, 0, 56, 74
2,138308, Control_c, 0, 64, 65
2,138312, Note_on_c, 0, 48, 0
2,138322, Note_on_c, 0, 50, 60
2,138327, Control_c, 0, 64, 64
2,138327, Note_on_c, 0, 65, 55
2,138342, Control_c, 0, 64, 63
2,138362, Control_c, 0, 64, 61
2,138384, Control_c, 0, 64, 58
2,138399, Control_c, 0, 64, 53
2,138420, Control_c, 0, 64, 41
2,138439, Control_c, 0, 64, 0
2,138526, Note_on_c, 0, 63, 64
2,138559, Note_on_c, 0, 65, 0
2,138593, Control_c, 0, 64, 30
2,138612, Control_c, 0, 64, 42
2,138630, Control_c, 0, 64, 51
2,138653, Control_c, 0, 64, 58
2,138653, Note_on_c, 0, 70, 0
2,138670, Control_c, 0, 64, 62
2,138683, Note_on_c, 0, 63, 0
2,138689, Control_c, 0, 64, 64
2,138709, Control_c, 0, 64, 65
2,138709, Note_on_c, 0, 48, 59
2,138713, Note_on_c, 0, 62, 66
2,138721, Note_on_c, 0, 50, 0
2,138728, Control_c, 0, 64, 66
2,138746, Control_c, 0, 64, 68
2,138764, Control_c, 0, 64, 71
2,138787, Control_c, 0, 64, 74
2,138801, Note_on_c, 0, 56, 0
2,138805, Control_c, 0, 64, 78
2,138825, Control_c, 0, 64, 80
2,138843, Control_c, 0, 64, 81
2,138847, Note_on_c, 0, 62, 0
2,138880, Note_on_c, 0, 50, 65
2,138886, Note_on_c, 0, 60, 63
2,138940, Control_c, 0, 64, 80
2,138949, Note_on_c, 0, 48, 0
2,138978, Control_c, 0, 64, 79
2,138996, Control_c, 0, 64, 77
2,139016, Control_c, 0, 64, 76
2,139035, Control_c, 0, 64, 74
2,139054, Control_c, 0, 64, 72
2,139074, Control_c, 0, 64, 70
2,139082, Note_on_c, 0, 60, 0
2,139093, Control_c, 0, 64, 69
2,139115, Control_c, 0, 64, 68
2,139118, Note_on_c, 0, 55, 73
2,139127, Note_on_c, 0, 58, 64
2,139132, Control_c, 0, 64, 66
2,139149, Control_c, 0, 64, 64
2,139171, Control_c, 0, 64, 62
2,139171, Note_on_c, 0, 51, 58
2,139188, Control_c, 0, 64, 60
2,139206, Control_c, 0, 64, 57
2,139217, Note_on_c, 0, 50, 0
2,139226, Control_c, 0, 64, 54
2,139245, Control_c, 0, 64, 47
2,139264, Control_c, 0, 64, 32
2,139284, Control_c, 0, 64, 0
2,139319, Note_on_c, 0, 68, 74
2,139412, Note_on_c, 0, 51, 0
2,139477, Control_c, 0, 64, 26
2,139497, Control_c, 0, 64, 43
2,139514, Control_c, 0, 64, 54
2,139525, Note_on_c, 0, 67, 72
2,139534, Control_c, 0, 64, 59
2,139541, Note_on_c, 0, 51, 73
2,139553, Control_c, 0, 64, 61
2,139558, Note_on_c, 0, 68, 0
2,139572, Control_c, 0, 64, 62
2,139590, Control_c, 0, 64, 63
2,139610, Control_c, 0, 64, 64
2,139630, Control_c, 0, 64, 66
2,139648, Control_c, 0, 64, 68
2,139667, Control_c, 0, 64, 70
2,139688, Control_c, 0, 64, 72
2,139717, Note_on_c, 0, 65, 77
2,139726, Control_c, 0, 64, 73
2,139726, Note_on_c, 0, 50, 71
2,139732, Note_on_c, 0, 55, 0
2,139746, Control_c, 0, 64, 74
2,139754, Note_on_c, 0, 67, 0
2,139763, Note_on_c, 0, 51, 0
2,139783, Control_c, 0, 64, 73
2,139823, Control_c, 0, 64, 72
2,139840, Control_c, 0, 64, 70
2,139860, Control_c, 0, 64, 69
2,139880, Control_c, 0, 64, 67
2,139900, Control_c, 0, 64, 66
2,139917, Control_c, 0, 64, 65
2,139937, Control_c, 0, 64, 64
2,139958, Control_c, 0, 64, 63
2,139977, Control_c, 0, 64, 62
2,139996, Control_c, 0, 64, 61
2,140015, Control_c, 0, 64, 60
2,140015, Note_on_c, 0, 54, 77
2,140033, Note_on_c, 0, 63, 66
2,140038, Control_c, 0, 64, 59
2,140047, Note_on_c, 0, 48, 65
2,140054, Control_c, 0, 64, 57
2,140054, Note_on_c, 0, 50, 0
2,140067, Note_on_c, 0, 65, 0
2,140072, Control_c, 0, 64, 52
2,140089, Control_c, 0, 64, 41
2,140109, Control_c, 0, 64, 0
2,140244, Control_c, 0, 64, 18
2,140265, Control_c, 0, 64, 36
2,140282, Control_c, 0, 64, 47
2,140302, Control_c, 0, 64, 56
2,140307, Note_on_c, 0, 48, 0
2,140315, Note_on_c, 0, 58, 0
2,140324, Control_c, 0, 64, 60
2,140342, Control_c, 0, 64, 62
2,140379, Control_c, 0, 64, 63
2,140419, Control_c, 0, 64, 64
2,140477, Note_on_c, 0, 48, 58
2,140489, Note_on_c, 0, 57, 60
2,140638, Note_on_c, 0, 57, 0
2,140673, Note_on_c, 0, 58, 61
2,140679, Note_on_c, 0, 54, 0
2,140683, Note_on_c, 0, 46, 57
2,140698, Note_on_c, 0, 48, 0
2,140781, Control_c, 0, 64, 63
2,140897, Note_on_c, 0, 53, 64
2,140897, Note_on_c, 0, 58, 0
2,140910, Note_on_c, 0, 63, 0
2,140918, Control_c, 0, 64, 62
2,140922, Note_on_c, 0, 60, 52
2,140949, Note_on_c, 0, 45, 48
2,140953, Note_on_c, 0, 46, 0
2,140973, Control_c, 0, 64, 61
2,141012, Control_c, 0, 64, 60
2,141030, Control_c, 0, 64, 59
2,141050, Control_c, 0, 64, 58
2,141073, Control_c, 0, 64, 56
2,141088, Control_c, 0, 64, 53
2,141094, Note_on_c, 0, 63, 53
2,141112, Control_c, 0, 64, 50
2,141129, Control_c, 0, 64, 46
2,141146, Control_c, 0, 64, 43
2,141164, Control_c, 0, 64, 39
2,141184, Control_c, 0, 64, 37
2,141205, Control_c, 0, 64, 35
2,141224, Control_c, 0, 64, 34
2,141241, Control_c, 0, 64, 33
2,141262, Control_c, 0, 64, 32
2,141282, Control_c, 0, 64, 30
2,141302, Note_on_c, 0, 65, 55
2,141306, Note_on_c, 0, 63, 0
2,141466, Note_on_c, 0, 60, 0
2,141473, Note_on_c, 0, 63, 49
2,141538, Note_on_c, 0, 65, 0
2,141551, Control_c, 0, 64, 31
2,141712, Note_on_c, 0, 63, 0
2,141717, Note_on_c, 0, 62, 47
2,141720, Note_on_c, 0, 46, 45
2,141735, Note_on_c, 0, 58, 36
2,141739, Note_on_c, 0, 45, 0
2,141904, Note_on_c, 0, 72, 61
2,141933, Control_c, 0, 64, 32
2,142028, Control_c, 0, 64, 33
2,142109, Note_on_c, 0, 70, 60
2,142109, Note_on_c, 0, 72, 0
2,142165, Control_c, 0, 64, 34
2,142221, Control_c, 0, 64, 35
2,142326, Note_on_c, 0, 68, 61
2,142345, Note_on_c, 0, 70, 0
2,142606, Control_c, 0, 64, 34
2,142606, Note_on_c, 0, 46, 0
2,142623, Control_c, 0, 64, 33
2,142628, Note_on_c, 0, 67, 49
2,142632, Note_on_c, 0, 51, 31
2,142647, Control_c, 0, 64, 31
2,142647, Note_on_c, 0, 53, 0
2,142661, Note_on_c, 0, 62, 0
2,142665, Control_c, 0, 64, 27
2,142670, Note_on_c, 0, 68, 0
2,142684, Control_c, 0, 64, 22
2,142700, Control_c, 0, 64, 17
2,142739, Control_c, 0, 64, 20
2,142761, Control_c, 0, 64, 31
2,142776, Control_c, 0, 64, 43
2,142796, Control_c, 0, 64, 54
2,142818, Control_c, 0, 64, 60
2,142836, Control_c, 0, 64, 63
2,142856, Control_c, 0, 64, 64
2,142877, Control_c, 0, 64, 65
2,142895, Control_c, 0, 64, 66
2,142915, Control_c, 0, 64, 68
2,142933, Control_c, 0, 64, 70
2,142954, Control_c, 0, 64, 71
2,142970, Control_c, 0, 64, 72
2,143010, Note_on_c, 0, 67, 0
2,143014, Control_c, 0, 64, 71
2,143047, Note_on_c, 0, 70, 54
2,143069, Note_on_c, 0, 63, 42
2,143102, Note_on_c, 0, 58, 0
2,143104, Control_c, 0, 64, 70
2,143161, Control_c, 0, 64, 69
2,143174, Note_on_c, 0, 63, 0
2,143202, Control_c, 0, 64, 68
2,143220, Control_c, 0, 64, 67
2,143234, Note_on_c, 0, 51, 0
2,143248, Note_on_c, 0, 65, 49
2,143257, Control_c, 0, 64, 66
2,143277, Control_c, 0, 64, 65
2,143314, Note_on_c, 0, 65, 0
2,143318, Control_c, 0, 64, 64
2,143354, Control_c, 0, 64, 63
2,143432, Control_c, 0, 64, 62
2,143473, Note_on_c, 0, 75, 63
2,143508, Control_c, 0, 64, 61
2,143515, Note_on_c, 0, 67, 35
2,143529, Note_on_c, 0, 70, 0
2,143565, Control_c, 0, 64, 60
2,143585, Control_c, 0, 64, 59
2,143603, Control_c, 0, 64, 58
2,143642, Control_c, 0, 64, 57
2,143700, Control_c, 0, 64, 56
2,143737, Note_on_c, 0, 67, 0
2,143741, Control_c, 0, 64, 55
2,143872, Control_c, 0, 64, 54
2,143893, Control_c, 0, 64, 53
2,143893, Note_on_c, 0, 67, 51
2,143903, Note_on_c, 0, 51, 38
2,143914, Control_c, 0, 64, 51
2,143931, Control_c, 0, 64, 47
2,143952, Control_c, 0, 64, 43
2,143970, Control_c, 0, 64, 39
2,143988, Control_c, 0, 64, 36
2,144006, Control_c, 0, 64, 34
2,144060, Note_on_c, 0, 51, 0
2,144064, Note_on_c, 0, 67, 0
2,144087, Note_on_c, 0, 53, 47
2,144089, Note_on_c, 0, 68, 66
2,144240, Note_on_c, 0, 75, 0
2,144295, Control_c, 0, 64, 35
2,144322, Note_on_c, 0, 53, 0
2,144322, Note_on_c, 0, 68, 0
2,144339, Note_on_c, 0, 70, 52
2,144357, Note_on_c, 0, 55, 38
2,144520, Note_on_c, 0, 79, 68
2,144556, Note_on_c, 0, 55, 0
2,144710, Note_on_c, 0, 79, 0
2,144714, Note_on_c, 0, 77, 70
2,144737, Note_on_c, 0, 55, 52
2,144739, Note_on_c, 0, 58, 54
2,144884, Note_on_c, 0, 55, 0
2,144905, Note_on_c, 0, 75, 72
2,144908, Note_on_c, 0, 58, 0
2,144914, Note_on_c, 0, 60, 55
2,144915, Note_on_c, 0, 77, 0
2,144926, Note_on_c, 0, 56, 54
2,145103, Control_c, 0, 64, 36
2,145112, Note_on_c, 0, 56, 0
2,145112, Note_on_c, 0, 60, 0
2,145112, Note_on_c, 0, 75, 0
2,145122, Note_on_c, 0, 74, 71
2,145133, Note_on_c, 0, 62, 50
2,145142, Control_c, 0, 64, 38
2,145142, Note_on_c, 0, 58, 43
2,145146, Note_on_c, 0, 70, 0
2,145162, Control_c, 0, 64, 41
2,145178, Control_c, 0, 64, 48
2,145197, Control_c, 0, 64, 56
2,145217, Control_c, 0, 64, 61
2,145235, Control_c, 0, 64, 63
2,145254, Control_c, 0, 64, 64
2,145275, Control_c, 0, 64, 66
2,145295, Control_c, 0, 64, 68
2,145306, Note_on_c, 0, 60, 57
2,145306, Note_on_c, 0, 62, 0
2,145313, Control_c, 0, 64, 71
2,145313, Note_on_c, 0, 68, 69
2,145332, Note_on_c, 0, 58, 0
2,145336, Control_c, 0, 64, 76
2,145352, Note_on_c, 0, 60, 0
2,145357, Control_c, 0, 64, 80
2,145370, Control_c, 0, 64, 84
2,145387, Control_c, 0, 64, 86
2,145407, Control_c, 0, 64, 87
2,145449, Control_c, 0, 64, 88
2,145467, Control_c, 0, 64, 90
2,145485, Control_c, 0, 64, 91
2,145494, Note_on_c, 0, 68, 0
2,145515, Note_on_c, 0, 67, 63
2,145526, Control_c, 0, 64, 85
2,145526, Note_on_c, 0, 58, 56
2,145535, Note_on_c, 0, 46, 56
2,145543, Control_c, 0, 64, 76
2,145561, Control_c, 0, 64, 67
2,145582, Control_c, 0, 64, 62
2,145602, Control_c, 0, 64, 60
2,145619, Control_c, 0, 64, 62
2,145639, Control_c, 0, 64, 64
2,145659, Control_c, 0, 64, 65
2,145668, Note_on_c, 0, 58, 0
2,145674, Note_on_c, 0, 67, 0
2,145678, Control_c, 0, 64, 68
2,145690, Note_on_c, 0, 74, 0
2,145692, Note_on_c, 0, 65, 69
2,145696, Control_c, 0, 64, 73
2,145713, Note_on_c, 0, 56, 64
2,145717, Control_c, 0, 64, 79
2,145738, Control_c, 0, 64, 85
2,145752, Control_c, 0, 64, 89
2,145773, Control_c, 0, 64, 90
2,145850, Control_c, 0, 64, 89
2,145871, Control_c, 0, 64, 85
2,145876, Note_on_c, 0, 56, 0
2,145889, Control_c, 0, 64, 73
2,145898, Note_on_c, 0, 46, 0
2,145909, Control_c, 0, 64, 63
2,145914, Note_on_c, 0, 55, 53
2,145927, Note_on_c, 0, 48, 50
2,145932, Control_c, 0, 64, 55
2,145932, Note_on_c, 0, 63, 59
2,145948, Control_c, 0, 64, 49
2,145966, Control_c, 0, 64, 47
2,145982, Note_on_c, 0, 65, 0
2,145984, Control_c, 0, 64, 48
2,146007, Control_c, 0, 64, 49
2,146023, Control_c, 0, 64, 53
2,146043, Control_c, 0, 64, 57
2,146060, Control_c, 0, 64, 60
2,146080, Control_c, 0, 64, 63
2,146103, Control_c, 0, 64, 64
2,146108, Note_on_c, 0, 63, 0
2,146118, Control_c, 0, 64, 66
2,146137, Note_on_c, 0, 62, 66
2,146141, Control_c, 0, 64, 68
2,146157, Control_c, 0, 64, 71
2,146176, Control_c, 0, 64, 73
2,146194, Control_c, 0, 64, 74
2,146237, Control_c, 0, 64, 73
2,146270, Control_c, 0, 64, 72
2,146293, Control_c, 0, 64, 69
2,146312, Control_c, 0, 64, 64
2,146321, Note_on_c, 0, 67, 66
2,146327, Note_on_c, 0, 62, 0
2,146333, Control_c, 0, 64, 59
2,146350, Control_c, 0, 64, 55
2,146350, Note_on_c, 0, 60, 54
2,146371, Control_c, 0, 64, 54
2,146388, Control_c, 0, 64, 56
2,146408, Control_c, 0, 64, 58
2,146426, Control_c, 0, 64, 61
2,146448, Control_c, 0, 64, 64
2,146468, Control_c, 0, 64, 66
2,146484, Control_c, 0, 64, 69
2,146493, Note_on_c, 0, 60, 0
2,146507, Control_c, 0, 64, 74
2,146507, Note_on_c, 0, 67, 0
2,146519, Note_on_c, 0, 62, 63
2,146524, Control_c, 0, 64, 78
2,146544, Control_c, 0, 64, 83
2,146551, Note_on_c, 0, 55, 0
2,146560, Control_c, 0, 64, 84
2,146583, Control_c, 0, 64, 83
2,146593, Note_on_c, 0, 48, 0
2,146599, Control_c, 0, 64, 81
2,146621, Control_c, 0, 64, 79
2,146637, Control_c, 0, 64, 76
2,146659, Control_c, 0, 64, 73
2,146675, Control_c, 0, 64, 70
2,146695, Control_c, 0, 64, 67
2,146714, Control_c, 0, 64, 65
2,146735, Control_c, 0, 64, 64
2,146748, Note_on_c, 0, 62, 0
2,146752, Control_c, 0, 64, 63
2,146761, Note_on_c, 0, 72, 71
2,146792, Control_c, 0, 64, 62
2,146796, Note_on_c, 0, 63, 41
2,146813, Control_c, 0, 64, 61
2,146828, Control_c, 0, 64, 59
2,146851, Control_c, 0, 64, 58
2,146867, Control_c, 0, 64, 56
2,146887, Control_c, 0, 64, 54
2,146905, Control_c, 0, 64, 52
2,146924, Control_c, 0, 64, 50
2,146945, Control_c, 0, 64, 49
2,146984, Control_c, 0, 64, 48
2,147054, Note_on_c, 0, 63, 0
2,147201, Note_on_c, 0, 48, 42
2,147201, Note_on_c, 0, 63, 55
2,147290, Control_c, 0, 64, 47
2,147351, Note_on_c, 0, 48, 0
2,147368, Note_on_c, 0, 63, 0
2,147382, Note_on_c, 0, 65, 65
2,147386, Note_on_c, 0, 50, 50
2,147464, Note_on_c, 0, 72, 0
2,147580, Note_on_c, 0, 65, 0
2,147591, Note_on_c, 0, 50, 0
2,147591, Note_on_c, 0, 67, 60
2,147612, Note_on_c, 0, 51, 49
2,147762, Note_on_c, 0, 51, 0
2,147782, Note_on_c, 0, 75, 60
2,147971, Note_on_c, 0, 51, 51
2,147977, Note_on_c, 0, 74, 70
2,147982, Control_c, 0, 64, 48
2,148008, Note_on_c, 0, 55, 50
2,148018, Control_c, 0, 64, 50
2,148036, Note_on_c, 0, 75, 0
2,148041, Control_c, 0, 64, 53
2,148058, Control_c, 0, 64, 56
2,148077, Control_c, 0, 64, 60
2,148095, Control_c, 0, 64, 62
2,148116, Control_c, 0, 64, 64
2,148136, Control_c, 0, 64, 65
2,148154, Control_c, 0, 64, 67
2,148168, Note_on_c, 0, 51, 0
2,148177, Control_c, 0, 64, 70
2,148177, Note_on_c, 0, 72, 76
2,148186, Note_on_c, 0, 55, 0
2,148186, Note_on_c, 0, 56, 61
2,148195, Control_c, 0, 64, 73
2,148199, Note_on_c, 0, 53, 53
2,148206, Note_on_c, 0, 74, 0
2,148216, Control_c, 0, 64, 76
2,148231, Control_c, 0, 64, 78
2,148250, Control_c, 0, 64, 79
2,148255, Note_on_c, 0, 72, 0
2,148269, Control_c, 0, 64, 80
2,148288, Control_c, 0, 64, 81
2,148328, Control_c, 0, 64, 82
2,148332, Note_on_c, 0, 67, 0
2,148334, Note_on_c, 0, 56, 0
2,148348, Control_c, 0, 64, 81
2,148367, Control_c, 0, 64, 74
2,148380, Note_on_c, 0, 55, 54
2,148384, Note_on_c, 0, 53, 0
2,148388, Control_c, 0, 64, 66
2,148388, Note_on_c, 0, 58, 63
2,148388, Note_on_c, 0, 70, 71
2,148403, Control_c, 0, 64, 60
2,148423, Control_c, 0, 64, 57
2,148461, Control_c, 0, 64, 58
2,148482, Control_c, 0, 64, 60
2,148498, Control_c, 0, 64, 62
2,148518, Control_c, 0, 64, 65
2,148539, Control_c, 0, 64, 67
2,148558, Control_c, 0, 64, 72
2,148565, Note_on_c, 0, 65, 70
2,148575, Control_c, 0, 64, 79
2,148580, Note_on_c, 0, 56, 67
2,148582, Note_on_c, 0, 55, 0
2,148596, Control_c, 0, 64, 88
2,148603, Note_on_c, 0, 58, 0
2,148616, Control_c, 0, 64, 100
2,148637, Control_c, 0, 64, 112
2,148655, Control_c, 0, 64, 116
2,148655, Note_on_c, 0, 56, 0
2,148673, Control_c, 0, 64, 118
2,148691, Control_c, 0, 64, 122
2,148710, Control_c, 0, 64, 127
2,148770, Control_c, 0, 64, 102
2,148785, Note_on_c, 0, 55, 72
2,148785, Note_on_c, 0, 63, 69
2,148789, Control_c, 0, 64, 84
2,148805, Control_c, 0, 64, 70
2,148822, Note_on_c, 0, 43, 58
2,148828, Control_c, 0, 64, 63
2,148828, Note_on_c, 0, 65, 0
2,148844, Control_c, 0, 64, 59
2,148873, Note_on_c, 0, 55, 0
2,148882, Control_c, 0, 64, 61
2,148904, Control_c, 0, 64, 63
2,148915, Note_on_c, 0, 70, 0
2,148924, Control_c, 0, 64, 65
2,148940, Control_c, 0, 64, 68
2,148959, Control_c, 0, 64, 72
2,148966, Note_on_c, 0, 63, 0
2,148976, Note_on_c, 0, 61, 65
2,148983, Control_c, 0, 64, 77
2,148992, Note_on_c, 0, 53, 73
2,149000, Control_c, 0, 64, 82
2,149018, Control_c, 0, 64, 87
2,149036, Control_c, 0, 64, 88
2,149077, Control_c, 0, 64, 87
2,149114, Control_c, 0, 64, 86
2,149132, Control_c, 0, 64, 85
2,149154, Control_c, 0, 64, 84
2,149170, Control_c, 0, 64, 82
2,149176, Note_on_c, 0, 61, 0
2,149191, Control_c, 0, 64, 79
2,149194, Note_on_c, 0, 60, 69
2,149209, Control_c, 0, 64, 77
2,149214, Note_on_c, 0, 51, 68
2,149219, Note_on_c, 0, 44, 65
2,149230, Control_c, 0, 64, 74
2,149248, Control_c, 0, 64, 71
2,149269, Control_c, 0, 64, 70
2,149286, Control_c, 0, 64, 68
2,149326, Note_on_c, 0, 43, 0
2,149327, Control_c, 0, 64, 67
2,149345, Control_c, 0, 64, 66
2,149365, Control_c, 0, 64, 65
2,149385, Control_c, 0, 64, 64
2,149394, Note_on_c, 0, 58, 72
2,149394, Note_on_c, 0, 60, 0
2,149423, Control_c, 0, 64, 63
2,149427, Note_on_c, 0, 53, 0
2,149479, Control_c, 0, 64, 62
2,149537, Control_c, 0, 64, 61
2,149588, Note_on_c, 0, 63, 75
2,149595, Control_c, 0, 64, 60
2,149606, Note_on_c, 0, 56, 59
2,149611, Note_on_c, 0, 58, 0
2,149615, Control_c, 0, 64, 59
2,149653, Control_c, 0, 64, 58
2,149708, Control_c, 0, 64, 57
2,149748, Control_c, 0, 64, 56
2,149751, Note_on_c, 0, 56, 0
2,149770, Note_on_c, 0, 63, 0
2,149782, Note_on_c, 0, 58, 66
2,149788, Control_c, 0, 64, 55
2,149844, Control_c, 0, 64, 54
2,149883, Control_c, 0, 64, 53
2,149901, Control_c, 0, 64, 52
2,149921, Control_c, 0, 64, 51
2,149940, Control_c, 0, 64, 50
2,149960, Control_c, 0, 64, 48
2,149980, Control_c, 0, 64, 45
2,149997, Control_c, 0, 64, 40
2,150019, Control_c, 0, 64, 32
2,150035, Note_on_c, 0, 68, 73
2,150037, Control_c, 0, 64, 26
2,150055, Control_c, 0, 64, 24
2,150064, Note_on_c, 0, 60, 60
2,150069, Note_on_c, 0, 58, 0
2,150113, Control_c, 0, 64, 27
2,150132, Control_c, 0, 64, 32
2,150151, Control_c, 0, 64, 40
2,150170, Control_c, 0, 64, 49
2,150189, Control_c, 0, 64, 56
2,150208, Control_c, 0, 64, 60
2,150214, Note_on_c, 0, 51, 0
2,150228, Control_c, 0, 64, 62
2,150246, Control_c, 0, 64, 63
2,150266, Control_c, 0, 64, 64
2,150284, Control_c, 0, 64, 65
2,150293, Note_on_c, 0, 60, 0
2,150306, Control_c, 0, 64, 66
2,150321, Note_on_c, 0, 44, 0
2,150343, Control_c, 0, 64, 67
2,150364, Control_c, 0, 64, 66
2,150459, Control_c, 0, 64, 65
2,150478, Note_on_c, 0, 44, 52
2,150488, Note_on_c, 0, 60, 53
2,150497, Control_c, 0, 64, 64
2,150534, Control_c, 0, 64, 63
2,150592, Control_c, 0, 64, 62
2,150630, Control_c, 0, 64, 61
2,150670, Note_on_c, 0, 60, 0
2,150674, Note_on_c, 0, 62, 65
2,150688, Note_on_c, 0, 46, 57
2,150692, Control_c, 0, 64, 60
2,150730, Note_on_c, 0, 44, 0
2,150748, Control_c, 0, 64, 59
2,150838, Note_on_c, 0, 68, 0
2,150843, Control_c, 0, 64, 58
2,150875, Note_on_c, 0, 62, 0
2,150882, Control_c, 0, 64, 57
2,150886, Note_on_c, 0, 63, 62
2,150896, Note_on_c, 0, 48, 51
2,150919, Control_c, 0, 64, 56
2,150935, Note_on_c, 0, 46, 0
2,150957, Control_c, 0, 64, 55
2,151013, Control_c, 0, 64, 54
2,151053, Control_c, 0, 64, 53
2,151070, Note_on_c, 0, 48, 0
2,151074, Note_on_c, 0, 72, 62
2,151092, Control_c, 0, 64, 52
2,151150, Control_c, 0, 64, 51
2,151230, Control_c, 0, 64, 50
2,151248, Control_c, 0, 64, 49
2,151264, Note_on_c, 0, 48, 54
2,151266, Note_on_c, 0, 72, 0
2,151277, Note_on_c, 0, 70, 69
2,151288, Note_on_c, 0, 51, 58
2,151460, Note_on_c, 0, 68, 74
2,151467, Note_on_c, 0, 53, 65
2,151478, Note_on_c, 0, 48, 0
2,151478, Note_on_c, 0, 50, 57
2,151487, Note_on_c, 0, 70, 0
2,151491, Note_on_c, 0, 51, 0
2,151574, Control_c, 0, 64, 47
2,151594, Control_c, 0, 64, 43
2,151615, Control_c, 0, 64, 36
2,151634, Control_c, 0, 64, 28
2,151652, Control_c, 0, 64, 25
2,151668, Note_on_c, 0, 50, 0
2,151668, Note_on_c, 0, 51, 59
2,151668, Note_on_c, 0, 63, 0
2,151675, Note_on_c, 0, 55, 61
2,151675, Note_on_c, 0, 67, 71
2,151679, Note_on_c, 0, 53, 0
2,151679, Note_on_c, 0, 68, 0
2,151710, Control_c, 0, 64, 29
2,151729, Control_c, 0, 64, 36
2,151747, Control_c, 0, 64, 46
2,151767, Control_c, 0, 64, 55
2,151787, Control_c, 0, 64, 60
2,151804, Control_c, 0, 64, 63
2,151823, Control_c, 0, 64, 64
2,151843, Control_c, 0, 64, 66
2,151858, Note_on_c, 0, 53, 67
2,151858, Note_on_c, 0, 62, 72
2,151863, Control_c, 0, 64, 68
2,151873, Note_on_c, 0, 55, 0
2,151882, Control_c, 0, 64, 71
2,151900, Note_on_c, 0, 51, 0
2,151905, Control_c, 0, 64, 75
2,151920, Control_c, 0, 64, 79
2,151933, Note_on_c, 0, 53, 0
2,151941, Control_c, 0, 64, 84
2,151959, Control_c, 0, 64, 88
2,151978, Control_c, 0, 64, 92
2,151998, Control_c, 0, 64, 95
2,152041, Control_c, 0, 64, 90
2,152041, Note_on_c, 0, 62, 0
2,152055, Control_c, 0, 64, 79
2,152055, Note_on_c, 0, 60, 71
2,152064, Note_on_c, 0, 51, 74
2,152075, Control_c, 0, 64, 68
2,152093, Control_c, 0, 64, 61
2,152102, Note_on_c, 0, 39, 59
2,152114, Control_c, 0, 64, 59
2,152116, Note_on_c, 0, 67, 0
2,152132, Control_c, 0, 64, 60
2,152151, Control_c, 0, 64, 62
2,152169, Control_c, 0, 64, 64
2,152191, Control_c, 0, 64, 67
2,152193, Note_on_c, 0, 51, 0
2,152209, Control_c, 0, 64, 70
2,152229, Control_c, 0, 64, 76
2,152232, Note_on_c, 0, 50, 75
2,152240, Note_on_c, 0, 60, 0
2,152247, Control_c, 0, 64, 80
2,152251, Note_on_c, 0, 58, 77
2,152265, Control_c, 0, 64, 82
2,152318, Note_on_c, 0, 50, 0
2,152420, Control_c, 0, 64, 80
2,152429, Note_on_c, 0, 58, 0
2,152438, Control_c, 0, 64, 71
2,152458, Control_c, 0, 64, 62
2,152467, Note_on_c, 0, 56, 71
2,152471, Note_on_c, 0, 41, 71
2,152476, Note_on_c, 0, 48, 73
2,152480, Control_c, 0, 64, 50
2,152496, Control_c, 0, 64, 41
2,152534, Control_c, 0, 64, 44
2,152547, Note_on_c, 0, 39, 0
2,152556, Control_c, 0, 64, 51
2,152573, Control_c, 0, 64, 59
2,152591, Control_c, 0, 64, 63
2,152610, Control_c, 0, 64, 65
2,152630, Control_c, 0, 64, 68
2,152652, Note_on_c, 0, 41, 0
2,152653, Control_c, 0, 64, 71
2,152662, Note_on_c, 0, 65, 77
2,152666, Note_on_c, 0, 56, 0
2,152670, Control_c, 0, 64, 75
2,152687, Control_c, 0, 64, 80
2,152708, Control_c, 0, 64, 85
2,152728, Control_c, 0, 64, 87
2,152736, Note_on_c, 0, 48, 0
2,152843, Control_c, 0, 64, 80
2,152856, Note_on_c, 0, 50, 69
2,152856, Note_on_c, 0, 68, 81
2,152867, Control_c, 0, 64, 68
2,152875, Note_on_c, 0, 43, 66
2,152875, Note_on_c, 0, 47, 60
2,152882, Control_c, 0, 64, 57
2,152892, Note_on_c, 0, 65, 0
2,152902, Control_c, 0, 64, 45
2,152923, Control_c, 0, 64, 43
2,152942, Control_c, 0, 64, 46
2,152958, Control_c, 0, 64, 53
2,152978, Control_c, 0, 64, 60
2,152995, Note_on_c, 0, 43, 0
2,152999, Control_c, 0, 64, 64
2,153018, Control_c, 0, 64, 68
2,153036, Control_c, 0, 64, 73
2,153042, Note_on_c, 0, 51, 79
2,153042, Note_on_c, 0, 67, 78
2,153056, Control_c, 0, 64, 83
2,153075, Control_c, 0, 64, 95
2,153082, Note_on_c, 0, 47, 0
2,153082, Note_on_c, 0, 50, 0
2,153093, Control_c, 0, 64, 110
2,153111, Control_c, 0, 64, 127
2,153132, Note_on_c, 0, 68, 0
2,153163, Note_on_c, 0, 51, 0
2,153228, Control_c, 0, 64, 103
2,153251, Control_c, 0, 64, 77
2,153251, Note_on_c, 0, 65, 76
2,153266, Control_c, 0, 64, 62
2,153275, Note_on_c, 0, 44, 68
2,153275, Note_on_c, 0, 48, 62
2,153275, Note_on_c, 0, 53, 77
2,153287, Control_c, 0, 64, 48
2,153293, Note_on_c, 0, 67, 0
2,153308, Control_c, 0, 64, 39
2,153323, Control_c, 0, 64, 38
2,153343, Control_c, 0, 64, 41
2,153365, Control_c, 0, 64, 48
2,153381, Control_c, 0, 64, 57
2,153401, Control_c, 0, 64, 63
2,153419, Control_c, 0, 64, 66
2,153441, Control_c, 0, 64, 68
2,153452, Note_on_c, 0, 63, 82
2,153459, Control_c, 0, 64, 72
2,153481, Control_c, 0, 64, 75
2,153481, Note_on_c, 0, 53, 0
2,153497, Control_c, 0, 64, 78
2,153517, Control_c, 0, 64, 80
2,153521, Note_on_c, 0, 65, 0
2,153535, Control_c, 0, 64, 81
2,153553, Control_c, 0, 64, 83
2,153574, Control_c, 0, 64, 84
2,153592, Control_c, 0, 64, 85
2,153629, Control_c, 0, 64, 81
2,153638, Note_on_c, 0, 44, 0
2,153649, Control_c, 0, 64, 71
2,153663, Note_on_c, 0, 54, 80
2,153667, Note_on_c, 0, 62, 83
2,153673, Control_c, 0, 64, 61
2,153673, Note_on_c, 0, 45, 63
2,153689, Control_c, 0, 64, 50
2,153711, Control_c, 0, 64, 44
2,153715, Note_on_c, 0, 63, 0
2,153727, Control_c, 0, 64, 46
2,153746, Control_c, 0, 64, 52
2,153766, Control_c, 0, 64, 59
2,153784, Control_c, 0, 64, 65
2,153806, Control_c, 0, 64, 71
2,153823, Control_c, 0, 64, 82
2,153842, Control_c, 0, 64, 100
2,153863, Control_c, 0, 64, 127
2,153863, Note_on_c, 0, 54, 0
2,153875, Note_on_c, 0, 60, 88
2,153916, Note_on_c, 0, 62, 0
2,154016, Control_c, 0, 64, 110
2,154036, Control_c, 0, 64, 101
2,154051, Control_c, 0, 64, 94
2,154071, Control_c, 0, 64, 88
2,154091, Control_c, 0, 64, 83
2,154110, Control_c, 0, 64, 79
2,154131, Control_c, 0, 64, 76
2,154145, Note_on_c, 0, 45, 0
2,154149, Control_c, 0, 64, 73
2,154169, Control_c, 0, 64, 69
2,154174, Note_on_c, 0, 50, 63
2,154174, Note_on_c, 0, 59, 75
2,154180, Note_on_c, 0, 55, 60
2,154184, Note_on_c, 0, 43, 62
2,154189, Control_c, 0, 64, 64
2,154207, Control_c, 0, 64, 55
2,154212, Note_on_c, 0, 48, 0
2,154223, Note_on_c, 0, 60, 0
2,154228, Control_c, 0, 64, 39
2,154245, Control_c, 0, 64, 0
2,154380, Control_c, 0, 64, 40
2,154401, Control_c, 0, 64, 58
2,154406, Note_on_c, 0, 43, 0
2,154418, Control_c, 0, 64, 67
2,154437, Control_c, 0, 64, 75
2,154441, Note_on_c, 0, 50, 0
2,154449, Note_on_c, 0, 59, 0
2,154458, Control_c, 0, 64, 86
2,154478, Control_c, 0, 64, 99
2,154495, Note_on_c, 0, 55, 0
2,154497, Control_c, 0, 64, 120
2,154514, Control_c, 0, 64, 127
2,154639, Note_on_c, 0, 55, 71
2,154663, Control_c, 0, 64, 118
2,154682, Control_c, 0, 64, 101
2,154702, Control_c, 0, 64, 90
2,154720, Control_c, 0, 64, 84
2,154740, Control_c, 0, 64, 81
2,154759, Control_c, 0, 64, 79
2,154778, Control_c, 0, 64, 78
2,154797, Control_c, 0, 64, 76
2,154817, Control_c, 0, 64, 74
2,154835, Control_c, 0, 64, 71
2,154847, Note_on_c, 0, 57, 81
2,154853, Control_c, 0, 64, 69
2,154873, Control_c, 0, 64, 68
2,154882, Note_on_c, 0, 55, 0
2,154893, Control_c, 0, 64, 67
2,154949, Control_c, 0, 64, 66
2,155009, Control_c, 0, 64, 65
2,155065, Control_c, 0, 64, 64
2,155105, Control_c, 0, 64, 63
2,155142, Control_c, 0, 64, 62
2,155154, Note_on_c, 0, 59, 48
2,155154, Note_on_c, 0, 79, 87
2,155201, Control_c, 0, 64, 61
2,155224, Note_on_c, 0, 57, 0
2,155257, Control_c, 0, 64, 60
2,155277, Control_c, 0, 64, 59
2,155296, Control_c, 0, 64, 58
2,155315, Control_c, 0, 64, 55
2,155337, Control_c, 0, 64, 50
2,155357, Control_c, 0, 64, 43
2,155373, Control_c, 0, 64, 35
2,155395, Control_c, 0, 64, 25
2,155411, Control_c, 0, 64, 18
2,155431, Control_c, 0, 64, 13
2,155469, Control_c, 0, 64, 12
2,155491, Control_c, 0, 64, 11
2,155635, Note_on_c, 0, 57, 62
2,155700, Note_on_c, 0, 59, 0
2,155815, Control_c, 0, 64, 12
2,155835, Control_c, 0, 64, 13
2,155837, Note_on_c, 0, 59, 80
2,155876, Note_on_c, 0, 57, 0
2,155912, Control_c, 0, 64, 14
2,155987, Control_c, 0, 64, 15
2,156006, Control_c, 0, 64, 16
2,156026, Control_c, 0, 64, 17
2,156069, Note_on_c, 0, 80, 88
2,156096, Note_on_c, 0, 60, 58
2,156100, Note_on_c, 0, 59, 0
2,156154, Note_on_c, 0, 79, 0
2,156178, Control_c, 0, 64, 18
2,156265, Note_on_c, 0, 59, 71
2,156308, Note_on_c, 0, 60, 0
2,156315, Control_c, 0, 64, 19
2,156372, Control_c, 0, 64, 20
2,156448, Control_c, 0, 64, 21
2,156467, Control_c, 0, 64, 22
2,156476, Note_on_c, 0, 60, 61
2,156476, Note_on_c, 0, 72, 78
2,156489, Control_c, 0, 64, 23
2,156489, Note_on_c, 0, 59, 0
2,156507, Control_c, 0, 64, 24
2,156564, Control_c, 0, 64, 25
2,156640, Control_c, 0, 64, 27
2,156658, Note_on_c, 0, 62, 71
2,156674, Note_on_c, 0, 60, 0
2,156737, Control_c, 0, 64, 28
2,156755, Control_c, 0, 64, 29
2,156795, Control_c, 0, 64, 30
2,156889, Note_on_c, 0, 79, 83
2,156925, Note_on_c, 0, 63, 52
2,156960, Note_on_c, 0, 80, 0
2,156997, Note_on_c, 0, 62, 0
2,157082, Control_c, 0, 64, 31
2,157119, Control_c, 0, 64, 32
2,157180, Control_c, 0, 64, 33
2,157254, Control_c, 0, 64, 34
2,157343, Note_on_c, 0, 70, 69
2,157380, Note_on_c, 0, 72, 0
2,157389, Control_c, 0, 64, 35
2,157599, Control_c, 0, 64, 36
2,157755, Control_c, 0, 64, 37
2,157755, Note_on_c, 0, 78, 84
2,157808, Note_on_c, 0, 63, 0
2,157808, Note_on_c, 0, 69, 40
2,157818, Note_on_c, 0, 79, 0
2,157823, Note_on_c, 0, 70, 0
2,157959, Note_on_c, 0, 60, 64
2,157966, Control_c, 0, 64, 38
2,157982, Control_c, 0, 64, 39
2,158152, Note_on_c, 0, 69, 0
2,158161, Note_on_c, 0, 70, 74
2,158171, Note_on_c, 0, 62, 66
2,158175, Note_on_c, 0, 60, 0
2,158235, Control_c, 0, 64, 40
2,158272, Control_c, 0, 64, 41
2,158361, Note_on_c, 0, 70, 0
2,158365, Note_on_c, 0, 63, 66
2,158365, Note_on_c, 0, 72, 76
2,158387, Note_on_c, 0, 62, 0
2,158557, Note_on_c, 0, 72, 0
2,158581, Note_on_c, 0, 83, 82
2,158586, Note_on_c, 0, 65, 55
2,158612, Note_on_c, 0, 74, 68
2,158619, Control_c, 0, 64, 40
2,158636, Note_on_c, 0, 63, 0
2,158649, Note_on_c, 0, 78, 0
2,158776, Note_on_c, 0, 72, 80
2,158782, Note_on_c, 0, 74, 0
2,158963, Note_on_c, 0, 71, 75
2,159063, Note_on_c, 0, 72, 0
2,159118, Control_c, 0, 64, 39
2,159161, Note_on_c, 0, 69, 71
2,159194, Note_on_c, 0, 71, 0
2,159406, Control_c, 0, 64, 38
2,159411, Note_on_c, 0, 84, 82
2,159442, Note_on_c, 0, 67, 59
2,159460, Note_on_c, 0, 69, 0
2,159477, Note_on_c, 0, 65, 0
2,159486, Note_on_c, 0, 83, 0
2,159501, Control_c, 0, 64, 37
2,159520, Control_c, 0, 64, 36
2,159540, Control_c, 0, 64, 34
2,159558, Control_c, 0, 64, 32
2,159576, Control_c, 0, 64, 30
2,159631, Note_on_c, 0, 63, 65
2,159673, Control_c, 0, 64, 31
2,159693, Control_c, 0, 64, 33
2,159712, Control_c, 0, 64, 36
2,159731, Control_c, 0, 64, 42
2,159749, Control_c, 0, 64, 50
2,159771, Control_c, 0, 64, 57
2,159788, Control_c, 0, 64, 63
2,159809, Note_on_c, 0, 65, 67
2,159811, Control_c, 0, 64, 65
2,159814, Note_on_c, 0, 84, 0
2,159831, Control_c, 0, 64, 66
2,159848, Control_c, 0, 64, 67
2,159858, Note_on_c, 0, 63, 0
2,159858, Note_on_c, 0, 67, 0
2,159866, Control_c, 0, 64, 68
2,159886, Control_c, 0, 64, 72
2,159904, Control_c, 0, 64, 78
2,159925, Control_c, 0, 64, 87
2,159942, Control_c, 0, 64, 96
2,159961, Control_c, 0, 64, 106
2,159984, Control_c, 0, 64, 122
2,159994, Note_on_c, 0, 65, 0
2,160001, Control_c, 0, 64, 127
2,160009, Note_on_c, 0, 67, 70
2,160079, Control_c, 0, 64, 120
2,160096, Control_c, 0, 64, 110
2,160115, Control_c, 0, 64, 103
2,160127, Note_on_c, 0, 67, 0
2,160135, Control_c, 0, 64, 97
2,160153, Control_c, 0, 64, 91
2,160172, Control_c, 0, 64, 87
2,160193, Control_c, 0, 64, 81
2,160214, Control_c, 0, 64, 76
2,160229, Control_c, 0, 64, 72
2,160238, Note_on_c, 0, 77, 85
2,160251, Control_c, 0, 64, 68
2,160261, Note_on_c, 0, 68, 68
2,160269, Control_c, 0, 64, 64
2,160292, Control_c, 0, 64, 63
2,160309, Control_c, 0, 64, 61
2,160326, Control_c, 0, 64, 60
2,160346, Control_c, 0, 64, 59
2,160366, Control_c, 0, 64, 58
2,160384, Control_c, 0, 64, 56
2,160406, Control_c, 0, 64, 53
2,160423, Control_c, 0, 64, 50
2,160443, Control_c, 0, 64, 45
2,160447, Note_on_c, 0, 55, 61
2,160462, Control_c, 0, 64, 35
2,160482, Control_c, 0, 64, 0
2,160655, Control_c, 0, 64, 16
2,160655, Note_on_c, 0, 56, 70
2,160670, Note_on_c, 0, 55, 0
2,160674, Control_c, 0, 64, 36
2,160691, Control_c, 0, 64, 49
2,160714, Control_c, 0, 64, 58
2,160730, Control_c, 0, 64, 61
2,160748, Control_c, 0, 64, 63
2,160769, Control_c, 0, 64, 64
2,160773, Note_on_c, 0, 77, 0
2,160788, Control_c, 0, 64, 66
2,160805, Control_c, 0, 64, 70
2,160827, Control_c, 0, 64, 76
2,160846, Control_c, 0, 64, 84
2,160848, Note_on_c, 0, 58, 72
2,160866, Control_c, 0, 64, 90
2,160875, Note_on_c, 0, 56, 0
2,160882, Control_c, 0, 64, 92
2,160959, Control_c, 0, 64, 90
2,160980, Control_c, 0, 64, 88
2,160998, Control_c, 0, 64, 85
2,161017, Control_c, 0, 64, 80
2,161035, Control_c, 0, 64, 76
2,161055, Control_c, 0, 64, 72
2,161073, Note_on_c, 0, 76, 82
2,161077, Control_c, 0, 64, 69
2,161097, Control_c, 0, 64, 65
2,161108, Note_on_c, 0, 58, 0
2,161115, Note_on_c, 0, 60, 45
2,161117, Control_c, 0, 64, 63
2,161136, Control_c, 0, 64, 62
2,161146, Note_on_c, 0, 68, 0
2,161152, Control_c, 0, 64, 61
2,161172, Control_c, 0, 64, 60
2,161190, Control_c, 0, 64, 57
2,161209, Control_c, 0, 64, 49
2,161229, Control_c, 0, 64, 26
2,161247, Control_c, 0, 64, 0
2,161269, Note_on_c, 0, 67, 54
2,161363, Control_c, 0, 64, 32
2,161384, Control_c, 0, 64, 49
2,161402, Control_c, 0, 64, 59
2,161421, Control_c, 0, 64, 64
2,161440, Control_c, 0, 64, 66
2,161460, Control_c, 0, 64, 68
2,161477, Note_on_c, 0, 69, 63
2,161479, Control_c, 0, 64, 71
2,161497, Control_c, 0, 64, 74
2,161502, Note_on_c, 0, 67, 0
2,161517, Control_c, 0, 64, 79
2,161538, Control_c, 0, 64, 87
2,161556, Control_c, 0, 64, 100
2,161578, Control_c, 0, 64, 127
2,161675, Note_on_c, 0, 71, 81
2,161680, Note_on_c, 0, 69, 0
2,161729, Control_c, 0, 64, 122
2,161748, Control_c, 0, 64, 115
2,161765, Control_c, 0, 64, 110
2,161785, Control_c, 0, 64, 104
2,161805, Control_c, 0, 64, 99
2,161824, Control_c, 0, 64, 95
2,161842, Control_c, 0, 64, 91
2,161862, Control_c, 0, 64, 88
2,161882, Control_c, 0, 64, 85
2,161895, Note_on_c, 0, 60, 0
2,161903, Control_c, 0, 64, 81
2,161903, Note_on_c, 0, 75, 80
2,161921, Control_c, 0, 64, 78
2,161932, Note_on_c, 0, 72, 69
2,161941, Control_c, 0, 64, 75
2,161959, Control_c, 0, 64, 72
2,161964, Note_on_c, 0, 71, 0
2,161979, Control_c, 0, 64, 70
2,161988, Note_on_c, 0, 76, 0
2,161996, Control_c, 0, 64, 68
2,162019, Control_c, 0, 64, 67
2,162037, Control_c, 0, 64, 66
2,162055, Control_c, 0, 64, 65
2,162074, Control_c, 0, 64, 64
2,162102, Note_on_c, 0, 60, 60
2,162132, Control_c, 0, 64, 63
2,162169, Control_c, 0, 64, 62
2,162228, Control_c, 0, 64, 61
2,162266, Control_c, 0, 64, 60
2,162304, Control_c, 0, 64, 59
2,162314, Note_on_c, 0, 62, 71
2,162323, Control_c, 0, 64, 58
2,162342, Control_c, 0, 64, 57
2,162353, Note_on_c, 0, 60, 0
2,162360, Control_c, 0, 64, 56
2,162382, Control_c, 0, 64, 55
2,162403, Control_c, 0, 64, 53
2,162418, Control_c, 0, 64, 51
2,162442, Control_c, 0, 64, 48
2,162457, Control_c, 0, 64, 46
2,162475, Control_c, 0, 64, 45
2,162529, Note_on_c, 0, 63, 70
2,162548, Note_on_c, 0, 62, 0
2,162783, Control_c, 0, 64, 44
2,162799, Note_on_c, 0, 65, 43
2,162860, Note_on_c, 0, 74, 74
2,162873, Note_on_c, 0, 63, 0
2,162945, Note_on_c, 0, 75, 0
2,163114, Note_on_c, 0, 62, 51
2,163210, Note_on_c, 0, 65, 0
2,163338, Note_on_c, 0, 71, 58
2,163355, Note_on_c, 0, 63, 48
2,163379, Note_on_c, 0, 62, 0
2,163417, Note_on_c, 0, 72, 0
2,163527, Note_on_c, 0, 69, 58
2,163541, Note_on_c, 0, 65, 53
2,163550, Note_on_c, 0, 63, 0
2,163606, Note_on_c, 0, 71, 0
2,163747, Note_on_c, 0, 71, 74
2,163751, Note_on_c, 0, 67, 58
2,163753, Note_on_c, 0, 65, 0
2,163785, Control_c, 0, 64, 43
2,163803, Note_on_c, 0, 69, 0
2,163921, Note_on_c, 0, 72, 74
2,163939, Note_on_c, 0, 68, 64
2,163947, Note_on_c, 0, 67, 0
2,163991, Note_on_c, 0, 71, 0
2,164114, Note_on_c, 0, 68, 0
2,164134, Note_on_c, 0, 67, 50
2,164134, Note_on_c, 0, 71, 72
2,164163, Note_on_c, 0, 74, 0
2,164220, Note_on_c, 0, 72, 0
2,164318, Note_on_c, 0, 74, 68
2,164327, Note_on_c, 0, 65, 52
2,164332, Note_on_c, 0, 67, 0
2,164520, Note_on_c, 0, 65, 0
2,164538, Note_on_c, 0, 67, 51
2,164551, Note_on_c, 0, 63, 49
2,164700, Note_on_c, 0, 63, 0
2,164732, Note_on_c, 0, 65, 45
2,164926, Note_on_c, 0, 74, 0
2,164935, Note_on_c, 0, 72, 59
2,164944, Note_on_c, 0, 71, 0
2,164955, Note_on_c, 0, 63, 50
2,165024, Note_on_c, 0, 65, 0
2,165118, Note_on_c, 0, 63, 0
2,165129, Note_on_c, 0, 74, 59
2,165146, Note_on_c, 0, 62, 43
2,165151, Note_on_c, 0, 72, 0
2,165307, Note_on_c, 0, 62, 0
2,165318, Control_c, 0, 64, 42
2,165332, Note_on_c, 0, 74, 0
2,165395, Note_on_c, 0, 75, 51
2,165414, Control_c, 0, 64, 44
2,165427, Note_on_c, 0, 60, 23
2,165436, Control_c, 0, 64, 48
2,165456, Control_c, 0, 64, 53
2,165473, Control_c, 0, 64, 59
2,165491, Control_c, 0, 64, 63
2,165500, Note_on_c, 0, 67, 0
2,165511, Control_c, 0, 64, 66
2,165529, Control_c, 0, 64, 71
2,165548, Control_c, 0, 64, 78
2,165557, Note_on_c, 0, 60, 0
2,165570, Control_c, 0, 64, 88
2,165589, Control_c, 0, 64, 96
2,165607, Control_c, 0, 64, 102
2,165626, Control_c, 0, 64, 106
2,165644, Control_c, 0, 64, 107
2,165684, Control_c, 0, 64, 106
2,165701, Control_c, 0, 64, 104
2,165724, Control_c, 0, 64, 102
2,165741, Control_c, 0, 64, 98
2,165760, Control_c, 0, 64, 94
2,165781, Control_c, 0, 64, 91
2,165798, Control_c, 0, 64, 88
2,165818, Control_c, 0, 64, 86
2,165836, Control_c, 0, 64, 83
2,165856, Control_c, 0, 64, 78
2,165869, Note_on_c, 0, 60, 41
2,165879, Control_c, 0, 64, 75
2,165879, Note_on_c, 0, 67, 36
2,165897, Control_c, 0, 64, 72
2,165913, Control_c, 0, 64, 70
2,165932, Control_c, 0, 64, 68
2,165954, Control_c, 0, 64, 66
2,165970, Control_c, 0, 64, 65
2,166008, Control_c, 0, 64, 64
2,166050, Note_on_c, 0, 58, 51
2,166083, Note_on_c, 0, 60, 0
2,166107, Control_c, 0, 64, 63
2,166185, Control_c, 0, 64, 62
2,166185, Note_on_c, 0, 58, 0
2,166204, Control_c, 0, 64, 61
2,166220, Control_c, 0, 64, 55
2,166240, Control_c, 0, 64, 42
2,166262, Control_c, 0, 64, 0
2,166262, Note_on_c, 0, 60, 43
2,166284, Note_on_c, 0, 57, 52
2,166336, Control_c, 0, 64, 21
2,166355, Control_c, 0, 64, 41
2,166375, Control_c, 0, 64, 55
2,166382, Note_on_c, 0, 67, 0
2,166396, Control_c, 0, 64, 64
2,166412, Control_c, 0, 64, 67
2,166433, Control_c, 0, 64, 72
2,166443, Note_on_c, 0, 60, 0
2,166454, Control_c, 0, 64, 79
2,166456, Note_on_c, 0, 57, 0
2,166470, Control_c, 0, 64, 88
2,166489, Control_c, 0, 64, 102
2,166507, Control_c, 0, 64, 127
2,166642, Control_c, 0, 64, 120
2,166664, Control_c, 0, 64, 105
2,166671, Note_on_c, 0, 72, 51
2,166684, Control_c, 0, 64, 97
2,166693, Note_on_c, 0, 57, 39
2,166702, Control_c, 0, 64, 92
2,166721, Control_c, 0, 64, 88
2,166740, Control_c, 0, 64, 85
2,166758, Control_c, 0, 64, 82
2,166777, Control_c, 0, 64, 79
2,166799, Control_c, 0, 64, 76
2,166815, Control_c, 0, 64, 73
2,166837, Control_c, 0, 64, 71
2,166853, Control_c, 0, 64, 69
2,166870, Note_on_c, 0, 70, 61
2,166870, Note_on_c, 0, 72, 0
2,166874, Control_c, 0, 64, 68
2,166888, Note_on_c, 0, 55, 46
2,166893, Control_c, 0, 64, 67
2,166899, Note_on_c, 0, 57, 0
2,166913, Control_c, 0, 64, 66
2,166932, Control_c, 0, 64, 65
2,167009, Control_c, 0, 64, 64
2,167049, Control_c, 0, 64, 63
2,167068, Control_c, 0, 64, 61
2,167084, Control_c, 0, 64, 57
2,167090, Note_on_c, 0, 69, 51
2,167104, Control_c, 0, 64, 53
2,167104, Note_on_c, 0, 70, 0
2,167128, Control_c, 0, 64, 48
2,167128, Note_on_c, 0, 53, 43
2,167133, Note_on_c, 0, 55, 0
2,167142, Control_c, 0, 64, 45
2,167162, Control_c, 0, 64, 42
2,167180, Control_c, 0, 64, 41
2,167202, Control_c, 0, 64, 40
2,167503, Note_on_c, 0, 53, 0
2,167503, Note_on_c, 0, 69, 0
2,167503, Note_on_c, 0, 70, 48
2,167539, Note_on_c, 0, 55, 41
2,167652, Note_on_c, 0, 55, 0
2,167670, Note_on_c, 0, 70, 0
2,167674, Note_on_c, 0, 72, 60
2,167690, Note_on_c, 0, 57, 46
2,167757, Control_c, 0, 64, 39
2,167778, Control_c, 0, 64, 38
2,167796, Control_c, 0, 64, 37
2,167814, Control_c, 0, 64, 36
2,167851, Note_on_c, 0, 72, 0
2,167855, Note_on_c, 0, 57, 0
2,167913, Note_on_c, 0, 58, 44
2,167918, Note_on_c, 0, 65, 44
2,167933, Control_c, 0, 64, 39
2,167949, Control_c, 0, 64, 44
2,167967, Control_c, 0, 64, 53
2,167987, Control_c, 0, 64, 60
2,168005, Control_c, 0, 64, 63
2,168026, Control_c, 0, 64, 66
2,168047, Control_c, 0, 64, 70
2,168047, Note_on_c, 0, 58, 0
2,168068, Control_c, 0, 64, 76
2,168082, Control_c, 0, 64, 84
2,168102, Control_c, 0, 64, 94
2,168113, Note_on_c, 0, 65, 0
2,168121, Control_c, 0, 64, 106
2,168140, Control_c, 0, 64, 127
2,168321, Note_on_c, 0, 74, 70
2,168340, Note_on_c, 0, 70, 58
2,168340, Note_on_c, 0, 75, 0
2,168352, Control_c, 0, 64, 113
2,168352, Note_on_c, 0, 65, 43
2,168372, Control_c, 0, 64, 106
2,168390, Control_c, 0, 64, 101
2,168409, Control_c, 0, 64, 97
2,168428, Control_c, 0, 64, 92
2,168448, Control_c, 0, 64, 87
2,168469, Control_c, 0, 64, 84
2,168488, Control_c, 0, 64, 82
2,168508, Control_c, 0, 64, 81
2,168519, Note_on_c, 0, 75, 80
2,168525, Control_c, 0, 64, 79
2,168538, Note_on_c, 0, 63, 57
2,168545, Control_c, 0, 64, 78
2,168557, Note_on_c, 0, 65, 0
2,168564, Control_c, 0, 64, 76
2,168579, Note_on_c, 0, 74, 0
2,168583, Control_c, 0, 64, 74
2,168600, Control_c, 0, 64, 73
2,168621, Control_c, 0, 64, 72
2,168641, Control_c, 0, 64, 70
2,168659, Control_c, 0, 64, 69
2,168678, Control_c, 0, 64, 67
2,168698, Control_c, 0, 64, 66
2,168719, Control_c, 0, 64, 65
2,168735, Control_c, 0, 64, 64
2,168754, Note_on_c, 0, 77, 81
2,168776, Control_c, 0, 64, 63
2,168776, Note_on_c, 0, 63, 0
2,168780, Note_on_c, 0, 62, 48
2,168802, Note_on_c, 0, 75, 0
2,168814, Control_c, 0, 64, 62
2,168831, Control_c, 0, 64, 61
2,168851, Control_c, 0, 64, 60
2,168872, Control_c, 0, 64, 59
2,168908, Control_c, 0, 64, 58
2,168949, Control_c, 0, 64, 57
2,168965, Control_c, 0, 64, 56
2,168986, Control_c, 0, 64, 55
2,169007, Control_c, 0, 64, 54
2,169007, Note_on_c, 0, 62, 0
2,169025, Control_c, 0, 64, 52
2,169037, Note_on_c, 0, 70, 0
2,169042, Control_c, 0, 64, 51
2,169063, Control_c, 0, 64, 49
2,169081, Control_c, 0, 64, 48
2,169101, Control_c, 0, 64, 47
2,169119, Control_c, 0, 64, 45
2,169139, Control_c, 0, 64, 44
2,169159, Control_c, 0, 64, 42
2,169166, Note_on_c, 0, 68, 68
2,169178, Control_c, 0, 64, 39
2,169183, Note_on_c, 0, 62, 49
2,169198, Control_c, 0, 64, 34
2,169215, Control_c, 0, 64, 27
2,169235, Control_c, 0, 64, 0
2,169350, Note_on_c, 0, 60, 61
2,169359, Note_on_c, 0, 62, 0
2,169512, Note_on_c, 0, 60, 0
2,169578, Note_on_c, 0, 59, 46
2,169578, Note_on_c, 0, 67, 53
2,169582, Control_c, 0, 64, 15
2,169589, Note_on_c, 0, 68, 0
2,169600, Control_c, 0, 64, 35
2,169618, Control_c, 0, 64, 47
2,169638, Control_c, 0, 64, 57
2,169658, Control_c, 0, 64, 61
2,169676, Control_c, 0, 64, 63
2,169694, Control_c, 0, 64, 64
2,169715, Control_c, 0, 64, 65
2,169733, Control_c, 0, 64, 67
2,169754, Control_c, 0, 64, 71
2,169764, Note_on_c, 0, 59, 0
2,169774, Control_c, 0, 64, 75
2,169793, Control_c, 0, 64, 81
2,169814, Control_c, 0, 64, 87
2,169830, Control_c, 0, 64, 92
2,169838, Note_on_c, 0, 67, 0
2,169850, Control_c, 0, 64, 94
2,169964, Control_c, 0, 64, 93
2,169980, Note_on_c, 0, 59, 46
2,169984, Control_c, 0, 64, 92
2,169990, Note_on_c, 0, 74, 60
2,170004, Control_c, 0, 64, 91
2,170021, Control_c, 0, 64, 90
2,170042, Control_c, 0, 64, 88
2,170080, Control_c, 0, 64, 86
2,170100, Control_c, 0, 64, 84
2,170119, Control_c, 0, 64, 82
2,170137, Control_c, 0, 64, 81
2,170155, Control_c, 0, 64, 79
2,170166, Note_on_c, 0, 72, 72
2,170179, Control_c, 0, 64, 78
2,170183, Note_on_c, 0, 57, 58
2,170195, Control_c, 0, 64, 77
2,170215, Control_c, 0, 64, 76
2,170233, Control_c, 0, 64, 75
2,170241, Note_on_c, 0, 59, 0
2,170257, Control_c, 0, 64, 74
2,170271, Control_c, 0, 64, 73
2,170290, Control_c, 0, 64, 72
2,170311, Control_c, 0, 64, 71
2,170330, Control_c, 0, 64, 70
2,170386, Note_on_c, 0, 55, 59
2,170386, Note_on_c, 0, 71, 76
2,170415, Note_on_c, 0, 74, 0
2,170452, Note_on_c, 0, 72, 0
2,170463, Control_c, 0, 64, 69
2,170483, Control_c, 0, 64, 68
2,170490, Note_on_c, 0, 57, 0
2,170502, Control_c, 0, 64, 66
2,170520, Control_c, 0, 64, 63
2,170539, Control_c, 0, 64, 61
2,170563, Control_c, 0, 64, 59
2,170581, Control_c, 0, 64, 57
2,170599, Control_c, 0, 64, 56
2,170616, Control_c, 0, 64, 55
2,170636, Control_c, 0, 64, 54
2,170656, Control_c, 0, 64, 52
2,170674, Control_c, 0, 64, 50
2,170697, Control_c, 0, 64, 48
2,170713, Control_c, 0, 64, 47
2,170734, Control_c, 0, 64, 45
2,170753, Control_c, 0, 64, 44
2,170780, Note_on_c, 0, 72, 79
2,170786, Note_on_c, 0, 57, 60
2,170791, Control_c, 0, 64, 43
2,170809, Control_c, 0, 64, 42
2,170831, Control_c, 0, 64, 41
2,170831, Note_on_c, 0, 55, 0
2,170844, Note_on_c, 0, 71, 0
2,170849, Control_c, 0, 64, 40
2,170949, Note_on_c, 0, 74, 78
2,170966, Note_on_c, 0, 59, 66
2,171007, Note_on_c, 0, 72, 0
2,171014, Note_on_c, 0, 57, 0
2,171174, Note_on_c, 0, 67, 75
2,171181, Note_on_c, 0, 60, 65
2,171255, Note_on_c, 0, 59, 0
2,171284, Note_on_c, 0, 74, 0
2,171360, Note_on_c, 0, 74, 73
2,171374, Note_on_c, 0, 77, 0
2,171570, Note_on_c, 0, 76, 89
2,171581, Note_on_c, 0, 58, 64
2,171602, Note_on_c, 0, 74, 0
2,171669, Note_on_c, 0, 60, 0
2,171764, Note_on_c, 0, 79, 90
2,171775, Note_on_c, 0, 56, 65
2,171796, Note_on_c, 0, 76, 0
2,171807, Note_on_c, 0, 58, 0
2,171903, Control_c, 0, 64, 37
2,171921, Control_c, 0, 64, 28
2,171941, Control_c, 0, 64, 0
2,172030, Note_on_c, 0, 56, 0
2,172030, Note_on_c, 0, 79, 0
2,172034, Note_on_c, 0, 70, 80
2,172057, Note_on_c, 0, 55, 55
2,172086, Note_on_c, 0, 67, 0
2,172095, Control_c, 0, 64, 31
2,172114, Control_c, 0, 64, 47
2,172134, Control_c, 0, 64, 58
2,172156, Control_c, 0, 64, 63
2,172172, Control_c, 0, 64, 66
2,172194, Control_c, 0, 64, 68
2,172213, Control_c, 0, 64, 72
2,172231, Control_c, 0, 64, 77
2,172250, Control_c, 0, 64, 81
2,172259, Note_on_c, 0, 55, 0
2,172268, Control_c, 0, 64, 82
2,172287, Control_c, 0, 64, 81
2,172308, Control_c, 0, 64, 79
2,172325, Control_c, 0, 64, 78
2,172345, Control_c, 0, 64, 76
2,172364, Control_c, 0, 64, 75
2,172383, Control_c, 0, 64, 73
2,172403, Control_c, 0, 64, 71
2,172422, Control_c, 0, 64, 69
2,172441, Control_c, 0, 64, 66
2,172450, Note_on_c, 0, 61, 66
2,172460, Control_c, 0, 64, 64
2,172473, Note_on_c, 0, 55, 52
2,172499, Control_c, 0, 64, 63
2,172536, Control_c, 0, 64, 62
2,172576, Control_c, 0, 64, 61
2,172596, Control_c, 0, 64, 60
2,172631, Note_on_c, 0, 53, 70
2,172633, Control_c, 0, 64, 59
2,172654, Control_c, 0, 64, 58
2,172654, Note_on_c, 0, 55, 0
2,172672, Control_c, 0, 64, 57
2,172693, Control_c, 0, 64, 56
2,172713, Control_c, 0, 64, 55
2,172730, Control_c, 0, 64, 53
2,172749, Control_c, 0, 64, 51
2,172768, Control_c, 0, 64, 46
2,172785, Control_c, 0, 64, 35
2,172806, Control_c, 0, 64, 0
2,172840, Note_on_c, 0, 53, 0
2,172873, Note_on_c, 0, 60, 59
2,172877, Note_on_c, 0, 52, 51
2,172912, Note_on_c, 0, 61, 0
2,172979, Control_c, 0, 64, 25
2,172998, Control_c, 0, 64, 48
2,173017, Control_c, 0, 64, 60
2,173035, Control_c, 0, 64, 65
2,173054, Control_c, 0, 64, 69
2,173076, Control_c, 0, 64, 75
2,173095, Note_on_c, 0, 52, 0
2,173099, Control_c, 0, 64, 80
2,173113, Control_c, 0, 64, 82
2,173152, Control_c, 0, 64, 83
2,173208, Control_c, 0, 64, 82
2,173248, Control_c, 0, 64, 81
2,173267, Control_c, 0, 64, 79
2,173280, Note_on_c, 0, 67, 64
2,173289, Control_c, 0, 64, 78
2,173296, Note_on_c, 0, 52, 47
2,173306, Control_c, 0, 64, 76
2,173324, Control_c, 0, 64, 74
2,173343, Control_c, 0, 64, 73
2,173363, Control_c, 0, 64, 71
2,173383, Control_c, 0, 64, 70
2,173400, Control_c, 0, 64, 68
2,173420, Control_c, 0, 64, 67
2,173442, Control_c, 0, 64, 65
2,173459, Control_c, 0, 64, 64
2,173466, Note_on_c, 0, 65, 68
2,173475, Note_on_c, 0, 50, 59
2,173495, Note_on_c, 0, 52, 0
2,173517, Control_c, 0, 64, 63
2,173555, Control_c, 0, 64, 62
2,173575, Note_on_c, 0, 67, 0
2,173592, Control_c, 0, 64, 61
2,173688, Control_c, 0, 64, 60
2,173695, Note_on_c, 0, 64, 78
2,173702, Note_on_c, 0, 48, 58
2,173728, Control_c, 0, 64, 59
2,173748, Note_on_c, 0, 60, 0
2,173754, Note_on_c, 0, 65, 0
2,173785, Control_c, 0, 64, 58
2,173807, Control_c, 0, 64, 57
2,173825, Control_c, 0, 64, 54
2,173843, Control_c, 0, 64, 50
2,173861, Control_c, 0, 64, 43
2,173873, Note_on_c, 0, 50, 0
2,173882, Control_c, 0, 64, 38
2,173900, Control_c, 0, 64, 35
2,173919, Control_c, 0, 64, 34
2,173941, Control_c, 0, 64, 33
2,173957, Control_c, 0, 64, 32
2,173977, Control_c, 0, 64, 31
2,173995, Control_c, 0, 64, 30
2,174035, Control_c, 0, 64, 29
2,174112, Note_on_c, 0, 65, 74
2,174144, Note_on_c, 0, 50, 64
2,174160, Note_on_c, 0, 64, 0
2,174162, Note_on_c, 0, 48, 0
2,174323, Note_on_c, 0, 52, 73
2,174323, Note_on_c, 0, 67, 79
2,174371, Note_on_c, 0, 65, 0
2,174380, Note_on_c, 0, 50, 0
2,174457, Control_c, 0, 64, 28
2,174540, Note_on_c, 0, 53, 73
2,174546, Note_on_c, 0, 60, 76
2,174603, Note_on_c, 0, 52, 0
2,174617, Note_on_c, 0, 67, 0
2,174740, Note_on_c, 0, 55, 79
2,174748, Control_c, 0, 64, 30
2,174762, Note_on_c, 0, 53, 0
2,174766, Control_c, 0, 64, 32
2,174782, Control_c, 0, 64, 37
2,174802, Control_c, 0, 64, 41
2,174822, Control_c, 0, 64, 45
2,174840, Control_c, 0, 64, 48
2,174858, Control_c, 0, 64, 51
2,174882, Control_c, 0, 64, 53
2,174899, Control_c, 0, 64, 55
2,174919, Control_c, 0, 64, 57
2,174938, Control_c, 0, 64, 58
2,174956, Control_c, 0, 64, 59
2,174965, Note_on_c, 0, 56, 80
2,174973, Note_on_c, 0, 68, 82
2,174977, Control_c, 0, 64, 60
2,174981, Note_on_c, 0, 65, 70
2,174994, Control_c, 0, 64, 61
2,175019, Control_c, 0, 64, 62
2,175019, Note_on_c, 0, 55, 0
2,175019, Note_on_c, 0, 60, 0
2,175028, Note_on_c, 0, 70, 0
2,175033, Control_c, 0, 64, 63
2,175053, Control_c, 0, 64, 64
2,175072, Control_c, 0, 64, 67
2,175093, Control_c, 0, 64, 70
2,175111, Control_c, 0, 64, 76
2,175129, Control_c, 0, 64, 83
2,175148, Control_c, 0, 64, 95
2,175167, Control_c, 0, 64, 127
2,175196, Note_on_c, 0, 58, 87
2,175208, Note_on_c, 0, 56, 0
2,175385, Note_on_c, 0, 58, 0
2,175569, Note_on_c, 0, 67, 73
2,175580, Note_on_c, 0, 48, 78
2,175589, Control_c, 0, 64, 120
2,175589, Note_on_c, 0, 60, 82
2,175611, Control_c, 0, 64, 103
2,175620, Note_on_c, 0, 68, 0
2,175629, Control_c, 0, 64, 93
2,175649, Control_c, 0, 64, 85
2,175666, Control_c, 0, 64, 79
2,175686, Control_c, 0, 64, 74
2,175705, Control_c, 0, 64, 70
2,175727, Control_c, 0, 64, 67
2,175744, Control_c, 0, 64, 64
2,175762, Control_c, 0, 64, 62
2,175785, Control_c, 0, 64, 61
2,175800, Control_c, 0, 64, 60
2,175840, Control_c, 0, 64, 59
2,175862, Control_c, 0, 64, 58
2,175879, Control_c, 0, 64, 57
2,175899, Control_c, 0, 64, 56
2,175919, Control_c, 0, 64, 55
2,175956, Control_c, 0, 64, 54
2,175975, Control_c, 0, 64, 53
2,175993, Control_c, 0, 64, 51
2,176013, Control_c, 0, 64, 50
2,176032, Control_c, 0, 64, 47
2,176049, Control_c, 0, 64, 44
2,176069, Control_c, 0, 64, 41
2,176092, Control_c, 0, 64, 38
2,176108, Control_c, 0, 64, 35
2,176130, Control_c, 0, 64, 32
2,176147, Control_c, 0, 64, 29
2,176167, Control_c, 0, 64, 27
2,176176, Note_on_c, 0, 64, 67
2,176185, Control_c, 0, 64, 26
2,176189, Note_on_c, 0, 65, 0
2,176417, Control_c, 0, 64, 27
2,176513, Control_c, 0, 64, 28
2,176700, Note_on_c, 0, 49, 75
2,176723, Note_on_c, 0, 65, 62
2,176744, Note_on_c, 0, 64, 0
2,176755, Note_on_c, 0, 67, 0
2,176774, Note_on_c, 0, 48, 0
2,176950, Note_on_c, 0, 64, 68
2,176955, Control_c, 0, 64, 32
2,176973, Control_c, 0, 64, 39
2,176977, Note_on_c, 0, 60, 0
2,176994, Control_c, 0, 64, 51
2,176994, Note_on_c, 0, 65, 0
2,177010, Control_c, 0, 64, 58
2,177031, Control_c, 0, 64, 62
2,177048, Control_c, 0, 64, 64
2,177068, Control_c, 0, 64, 65
2,177086, Control_c, 0, 64, 66
2,177107, Control_c, 0, 64, 69
2,177125, Control_c, 0, 64, 73
2,177145, Control_c, 0, 64, 79
2,177154, Note_on_c, 0, 65, 63
2,177167, Control_c, 0, 64, 86
2,177171, Note_on_c, 0, 58, 71
2,177183, Control_c, 0, 64, 90
2,177205, Control_c, 0, 64, 92
2,177222, Control_c, 0, 64, 93
2,177298, Control_c, 0, 64, 92
2,177318, Control_c, 0, 64, 91
2,177339, Control_c, 0, 64, 90
2,177353, Note_on_c, 0, 67, 74
2,177357, Control_c, 0, 64, 89
2,177375, Control_c, 0, 64, 88
2,177395, Control_c, 0, 64, 86
2,177400, Note_on_c, 0, 65, 0
2,177413, Control_c, 0, 64, 85
2,177436, Control_c, 0, 64, 83
2,177453, Control_c, 0, 64, 81
2,177473, Control_c, 0, 64, 79
2,177490, Control_c, 0, 64, 77
2,177510, Control_c, 0, 64, 75
2,177528, Control_c, 0, 64, 74
2,177549, Control_c, 0, 64, 73
2,177560, Note_on_c, 0, 48, 79
2,177567, Control_c, 0, 64, 72
2,177587, Control_c, 0, 64, 70
2,177588, Note_on_c, 0, 68, 69
2,177604, Note_on_c, 0, 49, 0
2,177604, Note_on_c, 0, 67, 0
2,177606, Control_c, 0, 64, 69
2,177626, Control_c, 0, 64, 67
2,177645, Control_c, 0, 64, 66
2,177665, Control_c, 0, 64, 64
2,177703, Control_c, 0, 64, 63
2,177763, Note_on_c, 0, 64, 0
2,177763, Note_on_c, 0, 67, 63
2,177779, Control_c, 0, 64, 62
2,177805, Note_on_c, 0, 58, 0
2,177816, Control_c, 0, 64, 61
2,177840, Control_c, 0, 64, 60
2,177856, Control_c, 0, 64, 57
2,177874, Control_c, 0, 64, 52
2,177894, Control_c, 0, 64, 44
2,177916, Control_c, 0, 64, 35
2,177932, Control_c, 0, 64, 29
2,177954, Control_c, 0, 64, 28
2,177970, Control_c, 0, 64, 29
2,177976, Note_on_c, 0, 65, 60
2,177983, Note_on_c, 0, 56, 64
2,177993, Control_c, 0, 64, 32
2,178007, Control_c, 0, 64, 36
2,178028, Control_c, 0, 64, 41
2,178046, Control_c, 0, 64, 47
2,178066, Control_c, 0, 64, 54
2,178089, Control_c, 0, 64, 60
2,178109, Control_c, 0, 64, 63
2,178123, Control_c, 0, 64, 65
2,178142, Control_c, 0, 64, 67
2,178156, Note_on_c, 0, 65, 0
2,178163, Control_c, 0, 64, 70
2,178176, Note_on_c, 0, 63, 69
2,178186, Control_c, 0, 64, 74
2,178201, Control_c, 0, 64, 79
2,178226, Control_c, 0, 64, 84
2,178244, Control_c, 0, 64, 86
2,178282, Control_c, 0, 64, 85
2,178301, Control_c, 0, 64, 84
2,178323, Control_c, 0, 64, 83
2,178341, Control_c, 0, 64, 82
2,178359, Note_on_c, 0, 68, 0
2,178364, Control_c, 0, 64, 80
2,178378, Control_c, 0, 64, 78
2,178398, Control_c, 0, 64, 76
2,178417, Control_c, 0, 64, 73
2,178430, Note_on_c, 0, 47, 77
2,178430, Note_on_c, 0, 63, 0
2,178434, Control_c, 0, 64, 70
2,178434, Note_on_c, 0, 62, 66
2,178454, Control_c, 0, 64, 68
2,178478, Control_c, 0, 64, 66
2,178498, Control_c, 0, 64, 65
2,178498, Note_on_c, 0, 56, 0
2,178514, Control_c, 0, 64, 64
2,178534, Control_c, 0, 64, 63
2,178553, Control_c, 0, 64, 62
2,178564, Note_on_c, 0, 48, 0
2,178591, Control_c, 0, 64, 61
2,178624, Note_on_c, 0, 65, 70
2,178686, Control_c, 0, 64, 60
2,178707, Note_on_c, 0, 67, 0
2,178782, Control_c, 0, 64, 59
2,178824, Control_c, 0, 64, 58
2,178824, Note_on_c, 0, 67, 70
2,178828, Note_on_c, 0, 55, 74
2,178861, Control_c, 0, 64, 57
2,178877, Note_on_c, 0, 65, 0
2,178917, Control_c, 0, 64, 56
2,178955, Control_c, 0, 64, 55
2,179001, Note_on_c, 0, 68, 85
2,179010, Note_on_c, 0, 53, 72
2,179055, Control_c, 0, 64, 54
2,179055, Note_on_c, 0, 67, 0
2,179089, Control_c, 0, 64, 53
2,179093, Note_on_c, 0, 55, 0
2,179097, Note_on_c, 0, 47, 0
2,179130, Control_c, 0, 64, 52
2,179147, Control_c, 0, 64, 51
2,179167, Control_c, 0, 64, 49
2,179188, Control_c, 0, 64, 48
2,179204, Control_c, 0, 64, 46
2,179215, Note_on_c, 0, 52, 75
2,179226, Control_c, 0, 64, 45
2,179226, Note_on_c, 0, 70, 78
2,179231, Note_on_c, 0, 53, 0
2,179232, Note_on_c, 0, 55, 75
2,179243, Control_c, 0, 64, 44
2,179263, Control_c, 0, 64, 42
2,179271, Note_on_c, 0, 62, 0
2,179284, Control_c, 0, 64, 41
2,179284, Note_on_c, 0, 68, 0
2,179398, Note_on_c, 0, 55, 0
2,179416, Note_on_c, 0, 58, 78
2,179635, Note_on_c, 0, 56, 63
2,179660, Note_on_c, 0, 58, 0
2,179660, Note_on_c, 0, 61, 79
2,179856, Note_on_c, 0, 55, 70
2,179896, Note_on_c, 0, 56, 0
2,180058, Note_on_c, 0, 53, 78
2,180088, Control_c, 0, 64, 40
2,180114, Note_on_c, 0, 52, 0
2,180156, Note_on_c, 0, 55, 0
2,180182, Control_c, 0, 64, 41
2,180202, Control_c, 0, 64, 43
2,180224, Control_c, 0, 64, 47
2,180237, Note_on_c, 0, 68, 82
2,180241, Control_c, 0, 64, 53
2,180262, Control_c, 0, 64, 57
2,180273, Note_on_c, 0, 70, 0
2,180279, Control_c, 0, 64, 59
2,180299, Control_c, 0, 64, 61
2,180317, Control_c, 0, 64, 62
2,180338, Control_c, 0, 64, 63
2,180342, Note_on_c, 0, 61, 0
2,180360, Control_c, 0, 64, 64
2,180378, Control_c, 0, 64, 66
2,180393, Control_c, 0, 64, 68
2,180413, Control_c, 0, 64, 71
2,180420, Note_on_c, 0, 55, 73
2,180425, Note_on_c, 0, 70, 70
2,180435, Control_c, 0, 64, 75
2,180437, Note_on_c, 0, 60, 74
2,180452, Control_c, 0, 64, 80
2,180470, Control_c, 0, 64, 86
2,180491, Control_c, 0, 64, 93
2,180504, Note_on_c, 0, 55, 0
2,180512, Control_c, 0, 64, 100
2,180521, Note_on_c, 0, 60, 0
2,180529, Control_c, 0, 64, 113
2,180548, Control_c, 0, 64, 127
2,180623, Note_on_c, 0, 56, 83
2,180623, Note_on_c, 0, 72, 80
2,180660, Note_on_c, 0, 70, 0
2,180671, Note_on_c, 0, 53, 0
2,180671, Note_on_c, 0, 68, 0
2,180701, Note_on_c, 0, 56, 0
2,180721, Control_c, 0, 64, 122
2,180741, Control_c, 0, 64, 112
2,180762, Control_c, 0, 64, 106
2,180778, Control_c, 0, 64, 98
2,180798, Control_c, 0, 64, 90
2,180817, Control_c, 0, 64, 83
2,180839, Control_c, 0, 64, 77
2,180856, Control_c, 0, 64, 73
2,180860, Note_on_c, 0, 46, 76
2,180860, Note_on_c, 0, 72, 0
2,180865, Note_on_c, 0, 58, 82
2,180869, Note_on_c, 0, 73, 76
2,180878, Control_c, 0, 64, 70
2,180894, Control_c, 0, 64, 66
2,180912, Control_c, 0, 64, 64
2,180935, Control_c, 0, 64, 61
2,180951, Control_c, 0, 64, 60
2,180970, Control_c, 0, 64, 58
2,180990, Control_c, 0, 64, 57
2,181008, Control_c, 0, 64, 55
2,181029, Control_c, 0, 64, 53
2,181034, Note_on_c, 0, 53, 76
2,181048, Control_c, 0, 64, 51
2,181052, Note_on_c, 0, 58, 0
2,181090, Control_c, 0, 64, 50
2,181127, Control_c, 0, 64, 49
2,181143, Control_c, 0, 64, 47
2,181164, Control_c, 0, 64, 42
2,181183, Control_c, 0, 64, 29
2,181200, Control_c, 0, 64, 0
2,181244, Note_on_c, 0, 51, 82
2,181255, Note_on_c, 0, 66, 78
2,181260, Note_on_c, 0, 53, 0
2,181335, Control_c, 0, 64, 25
2,181357, Control_c, 0, 64, 46
2,181374, Control_c, 0, 64, 59
2,181390, Note_on_c, 0, 51, 0
2,181394, Control_c, 0, 64, 65
2,181412, Control_c, 0, 64, 69
2,181424, Note_on_c, 0, 49, 80
2,181431, Control_c, 0, 64, 75
2,181449, Control_c, 0, 64, 82
2,181470, Control_c, 0, 64, 88
2,181491, Control_c, 0, 64, 92
2,181496, Note_on_c, 0, 46, 0
2,181509, Control_c, 0, 64, 93
2,181513, Note_on_c, 0, 49, 0
2,181548, Control_c, 0, 64, 92
2,181565, Control_c, 0, 64, 89
2,181585, Control_c, 0, 64, 86
2,181608, Control_c, 0, 64, 83
2,181626, Control_c, 0, 64, 80
2,181642, Control_c, 0, 64, 76
2,181655, Note_on_c, 0, 45, 81
2,181662, Control_c, 0, 64, 71
2,181683, Control_c, 0, 64, 66
2,181692, Note_on_c, 0, 48, 69
2,181699, Control_c, 0, 64, 63
2,181719, Control_c, 0, 64, 61
2,181738, Control_c, 0, 64, 60
2,181760, Control_c, 0, 64, 57
2,181777, Control_c, 0, 64, 52
2,181798, Control_c, 0, 64, 38
2,181816, Control_c, 0, 64, 0
2,181857, Note_on_c, 0, 72, 82
2,181903, Note_on_c, 0, 73, 0
2,181998, Note_on_c, 0, 66, 0
2,182066, Note_on_c, 0, 74, 80
2,182070, Note_on_c, 0, 65, 72
2,182087, Control_c, 0, 64, 9
2,182103, Control_c, 0, 64, 33
2,182107, Note_on_c, 0, 72, 0
2,182123, Control_c, 0, 64, 47
2,182140, Control_c, 0, 64, 57
2,182161, Control_c, 0, 64, 62
2,182182, Control_c, 0, 64, 64
2,182217, Control_c, 0, 64, 65
2,182237, Control_c, 0, 64, 66
2,182258, Control_c, 0, 64, 67
2,182271, Note_on_c, 0, 76, 88
2,182295, Control_c, 0, 64, 68
2,182304, Note_on_c, 0, 74, 0
2,182313, Control_c, 0, 64, 67
2,182348, Note_on_c, 0, 65, 0
2,182373, Control_c, 0, 64, 66
2,182411, Control_c, 0, 64, 65
2,182448, Control_c, 0, 64, 64
2,182467, Control_c, 0, 64, 63
2,182472, Note_on_c, 0, 44, 87
2,182492, Note_on_c, 0, 77, 83
2,182504, Control_c, 0, 64, 62
2,182518, Note_on_c, 0, 48, 0
2,182520, Note_on_c, 0, 76, 0
2,182543, Note_on_c, 0, 45, 0
2,182561, Control_c, 0, 64, 60
2,182577, Control_c, 0, 64, 58
2,182599, Control_c, 0, 64, 54
2,182617, Control_c, 0, 64, 46
2,182636, Control_c, 0, 64, 26
2,182657, Control_c, 0, 64, 0
2,182681, Note_on_c, 0, 50, 79
2,182694, Note_on_c, 0, 65, 74
2,182798, Note_on_c, 0, 65, 0
2,182868, Control_c, 0, 64, 22
2,182886, Control_c, 0, 64, 45
2,182901, Note_on_c, 0, 52, 79
2,182901, Note_on_c, 0, 67, 82
2,182906, Control_c, 0, 64, 60
2,182925, Control_c, 0, 64, 64
2,182930, Note_on_c, 0, 50, 0
2,182943, Control_c, 0, 64, 67
2,182963, Control_c, 0, 64, 72
2,182981, Control_c, 0, 64, 79
2,182990, Note_on_c, 0, 44, 0
2,183005, Control_c, 0, 64, 92
2,183021, Control_c, 0, 64, 127
2,183117, Note_on_c, 0, 53, 87
2,183126, Note_on_c, 0, 68, 88
2,183142, Note_on_c, 0, 67, 0
2,183158, Note_on_c, 0, 52, 0
2,183217, Note_on_c, 0, 53, 0
2,183422, Note_on_c, 0, 68, 0
2,183439, Note_on_c, 0, 70, 74
2,183445, Note_on_c, 0, 55, 85
2,183450, Note_on_c, 0, 43, 82
2,183520, Control_c, 0, 64, 109
2,183537, Control_c, 0, 64, 79
2,183557, Control_c, 0, 64, 63
2,183577, Control_c, 0, 64, 50
2,183597, Control_c, 0, 64, 31
2,183614, Control_c, 0, 64, 13
2,183635, Control_c, 0, 64, 0
2,183967, Note_on_c, 0, 76, 77
2,184040, Note_on_c, 0, 77, 0
2,184182, Note_on_c, 0, 74, 79
2,184251, Note_on_c, 0, 76, 0
2,184427, Note_on_c, 0, 76, 81
2,184484, Note_on_c, 0, 74, 0
2,184645, Note_on_c, 0, 45, 74
2,184687, Note_on_c, 0, 55, 0
2,184868, Control_c, 0, 64, 18
2,184868, Note_on_c, 0, 46, 83
2,184882, Control_c, 0, 64, 27
2,184905, Control_c, 0, 64, 37
2,184905, Note_on_c, 0, 45, 0
2,184923, Control_c, 0, 64, 46
2,184941, Control_c, 0, 64, 53
2,184958, Control_c, 0, 64, 58
2,184980, Control_c, 0, 64, 61
2,184999, Control_c, 0, 64, 63
2,185038, Control_c, 0, 64, 64
2,185056, Control_c, 0, 64, 65
2,185075, Control_c, 0, 64, 66
2,185094, Control_c, 0, 64, 67
2,185110, Note_on_c, 0, 48, 85
2,185114, Control_c, 0, 64, 70
2,185134, Control_c, 0, 64, 73
2,185138, Note_on_c, 0, 46, 0
2,185153, Control_c, 0, 64, 76
2,185171, Control_c, 0, 64, 81
2,185188, Control_c, 0, 64, 85
2,185208, Control_c, 0, 64, 89
2,185228, Control_c, 0, 64, 91
2,185248, Control_c, 0, 64, 92
2,185324, Control_c, 0, 64, 91
2,185344, Control_c, 0, 64, 90
2,185361, Control_c, 0, 64, 89
2,185401, Control_c, 0, 64, 88
2,185439, Control_c, 0, 64, 87
2,185456, Note_on_c, 0, 41, 75
2,185461, Control_c, 0, 64, 85
2,185477, Control_c, 0, 64, 81
2,185486, Note_on_c, 0, 49, 72
2,185495, Note_on_c, 0, 77, 73
2,185499, Control_c, 0, 64, 72
2,185508, Note_on_c, 0, 43, 0
2,185518, Control_c, 0, 64, 63
2,185518, Note_on_c, 0, 70, 0
2,185522, Note_on_c, 0, 76, 0
2,185535, Control_c, 0, 64, 52
2,185556, Control_c, 0, 64, 41
2,185556, Note_on_c, 0, 48, 0
2,185573, Control_c, 0, 64, 30
2,185592, Control_c, 0, 64, 23
2,185613, Control_c, 0, 64, 18
2,185630, Control_c, 0, 64, 13
2,185650, Control_c, 0, 64, 11
2,185670, Control_c, 0, 64, 10
2,185690, Control_c, 0, 64, 8
2,185709, Control_c, 0, 64, 0
2,185825, Note_on_c, 0, 73, 68
2,185837, Note_on_c, 0, 48, 58
2,185876, Note_on_c, 0, 49, 0
2,186047, Note_on_c, 0, 72, 72
2,186069, Note_on_c, 0, 49, 63
2,186069, Note_on_c, 0, 73, 0
2,186127, Note_on_c, 0, 48, 0
2,186258, Note_on_c, 0, 51, 71
2,186258, Note_on_c, 0, 70, 71
2,186278, Note_on_c, 0, 72, 0
2,186285, Control_c, 0, 64, 8
2,186295, Note_on_c, 0, 49, 0
2,186418, Control_c, 0, 64, 9
2,186436, Control_c, 0, 64, 11
2,186473, Note_on_c, 0, 69, 64
2,186480, Control_c, 0, 64, 13
2,186480, Note_on_c, 0, 53, 67
2,186495, Note_on_c, 0, 70, 0
2,186503, Note_on_c, 0, 51, 0
2,186565, Note_on_c, 0, 41, 0
2,186663, Note_on_c, 0, 75, 74
2,186680, Note_on_c, 0, 41, 64
2,186718, Note_on_c, 0, 77, 0
2,186764, Control_c, 0, 64, 14
2,186782, Control_c, 0, 64, 20
2,186803, Control_c, 0, 64, 30
2,186822, Control_c, 0, 64, 41
2,186842, Control_c, 0, 64, 50
2,186858, Control_c, 0, 64, 58
2,186874, Note_on_c, 0, 43, 71
2,186874, Note_on_c, 0, 73, 80
2,186878, Control_c, 0, 64, 61
2,186899, Control_c, 0, 64, 63
2,186917, Control_c, 0, 64, 65
2,186937, Control_c, 0, 64, 66
2,186941, Note_on_c, 0, 41, 0
2,186941, Note_on_c, 0, 75, 0
2,186955, Control_c, 0, 64, 68
2,186976, Control_c, 0, 64, 70
2,186997, Control_c, 0, 64, 73
2,187013, Control_c, 0, 64, 76
2,187032, Control_c, 0, 64, 79
2,187051, Control_c, 0, 64, 80
2,187058, Note_on_c, 0, 45, 76
2,187069, Note_on_c, 0, 72, 85
2,187094, Note_on_c, 0, 43, 0
2,187109, Control_c, 0, 64, 79
2,187113, Note_on_c, 0, 73, 0
2,187130, Control_c, 0, 64, 77
2,187137, Note_on_c, 0, 45, 0
2,187148, Control_c, 0, 64, 75
2,187150, Note_on_c, 0, 72, 0
2,187169, Control_c, 0, 64, 72
2,187188, Control_c, 0, 64, 70
2,187206, Control_c, 0, 64, 67
2,187223, Control_c, 0, 64, 64
2,187247, Control_c, 0, 64, 63
2,187263, Control_c, 0, 64, 62
2,187274, Note_on_c, 0, 73, 76
2,187284, Control_c, 0, 64, 61
2,187284, Note_on_c, 0, 46, 75
2,187302, Control_c, 0, 64, 60
2,187320, Control_c, 0, 64, 59
2,187339, Control_c, 0, 64, 57
2,187360, Control_c, 0, 64, 55
2,187373, Note_on_c, 0, 53, 0
2,187378, Control_c, 0, 64, 53
2,187398, Control_c, 0, 64, 51
2,187417, Control_c, 0, 64, 49
2,187436, Control_c, 0, 64, 47
2,187455, Control_c, 0, 64, 44
2,187466, Note_on_c, 0, 53, 68
2,187477, Control_c, 0, 64, 41
2,187477, Note_on_c, 0, 72, 76
2,187493, Control_c, 0, 64, 38
2,187505, Note_on_c, 0, 69, 0
2,187514, Control_c, 0, 64, 36
2,187531, Control_c, 0, 64, 35
2,187571, Control_c, 0, 64, 34
2,187627, Control_c, 0, 64, 33
2,187671, Note_on_c, 0, 55, 71
2,187671, Note_on_c, 0, 70, 83
2,187680, Note_on_c, 0, 53, 0
2,187728, Note_on_c, 0, 72, 0
2,187857, Note_on_c, 0, 56, 75
2,187861, Note_on_c, 0, 68, 83
2,187891, Note_on_c, 0, 55, 0
2,187916, Note_on_c, 0, 70, 0
2,187994, Control_c, 0, 64, 34
2,188064, Note_on_c, 0, 67, 78
2,188073, Note_on_c, 0, 68, 0
2,188077, Note_on_c, 0, 58, 81
2,188090, Note_on_c, 0, 56, 0
2,188148, Control_c, 0, 64, 35
2,188261, Control_c, 0, 64, 36
2,188269, Note_on_c, 0, 65, 74
2,188278, Note_on_c, 0, 49, 73
2,188278, Note_on_c, 0, 70, 75
2,188293, Note_on_c, 0, 67, 0
2,188338, Note_on_c, 0, 73, 0
2,188386, Note_on_c, 0, 46, 0
2,188414, Control_c, 0, 64, 37
2,188473, Control_c, 0, 64, 38
2,188485, Note_on_c, 0, 48, 73
2,188489, Note_on_c, 0, 72, 82
2,188494, Control_c, 0, 64, 39
2,188496, Note_on_c, 0, 63, 80
2,188499, Note_on_c, 0, 65, 0
2,188511, Control_c, 0, 64, 41
2,188524, Note_on_c, 0, 49, 0
2,188529, Note_on_c, 0, 70, 0
2,188531, Control_c, 0, 64, 45
2,188549, Control_c, 0, 64, 52
2,188569, Control_c, 0, 64, 57
2,188588, Control_c, 0, 64, 61
2,188610, Control_c, 0, 64, 63
2,188610, Note_on_c, 0, 63, 0
2,188629, Control_c, 0, 64, 64
2,188646, Control_c, 0, 64, 66
2,188664, Control_c, 0, 64, 69
2,188683, Control_c, 0, 64, 73
2,188702, Control_c, 0, 64, 78
2,188710, Note_on_c, 0, 61, 81
2,188715, Note_on_c, 0, 46, 75
2,188715, Note_on_c, 0, 73, 84
2,188724, Control_c, 0, 64, 84
2,188728, Note_on_c, 0, 72, 0
2,188745, Control_c, 0, 64, 92
2,188760, Control_c, 0, 64, 100
2,188770, Note_on_c, 0, 48, 0
2,188780, Control_c, 0, 64, 108
2,188799, Control_c, 0, 64, 118
2,188820, Control_c, 0, 64, 127
2,188820, Note_on_c, 0, 73, 0
2,188844, Note_on_c, 0, 61, 0
2,188895, Control_c, 0, 64, 122
2,188915, Control_c, 0, 64, 115
2,188935, Control_c, 0, 64, 110
2,188956, Control_c, 0, 64, 106
2,188956, Note_on_c, 0, 48, 71
2,188972, Control_c, 0, 64, 102
2,188990, Control_c, 0, 64, 100
2,189010, Control_c, 0, 64, 97
2,189015, Note_on_c, 0, 46, 0
2,189017, Note_on_c, 0, 64, 81
2,189031, Control_c, 0, 64, 95
2,189031, Note_on_c, 0, 60, 78
2,189049, Control_c, 0, 64, 93
2,189068, Control_c, 0, 64, 90
2,189068, Note_on_c, 0, 58, 0
2,189088, Control_c, 0, 64, 85
2,189107, Control_c, 0, 64, 79
2,189125, Control_c, 0, 64, 74
2,189145, Control_c, 0, 64, 68
2,189165, Control_c, 0, 64, 64
2,189182, Control_c, 0, 64, 60
2,189202, Control_c, 0, 64, 57
2,189221, Control_c, 0, 64, 55
2,189241, Control_c, 0, 64, 52
2,189253, Note_on_c, 0, 58, 73
2,189259, Control_c, 0, 64, 50
2,189279, Control_c, 0, 64, 48
2,189297, Control_c, 0, 64, 46
2,189316, Control_c, 0, 64, 45
2,189337, Control_c, 0, 64, 43
2,189357, Control_c, 0, 64, 42
2,189376, Control_c, 0, 64, 40
2,189396, Control_c, 0, 64, 39
2,189413, Control_c, 0, 64, 38
2,189433, Control_c, 0, 64, 36
2,189453, Control_c, 0, 64, 35
2,189467, Note_on_c, 0, 72, 83
2,189472, Control_c, 0, 64, 34
2,189481, Note_on_c, 0, 56, 72
2,189490, Control_c, 0, 64, 33
2,189497, Note_on_c, 0, 58, 0
2,189510, Control_c, 0, 64, 31
2,189529, Control_c, 0, 64, 29
2,189549, Control_c, 0, 64, 27
2,189567, Control_c, 0, 64, 25
2,189583, Note_on_c, 0, 64, 0
2,189587, Control_c, 0, 64, 24
2,189605, Control_c, 0, 64, 22
2,189625, Control_c, 0, 64, 20
2,189642, Control_c, 0, 64, 14
2,189662, Control_c, 0, 64, 0
2,189694, Note_on_c, 0, 55, 75
2,189765, Note_on_c, 0, 56, 0
2,189938, Note_on_c, 0, 56, 76
2,190030, Note_on_c, 0, 55, 0
2,190157, Note_on_c, 0, 67, 76
2,190223, Note_on_c, 0, 72, 0
2,190355, Control_c, 0, 64, 13
2,190373, Control_c, 0, 64, 23
2,190393, Control_c, 0, 64, 31
2,190400, Note_on_c, 0, 68, 81
2,190411, Control_c, 0, 64, 37
2,190431, Control_c, 0, 64, 43
2,190453, Control_c, 0, 64, 47
2,190468, Control_c, 0, 64, 52
2,190473, Note_on_c, 0, 67, 0
2,190489, Control_c, 0, 64, 56
2,190506, Control_c, 0, 64, 58
2,190526, Control_c, 0, 64, 60
2,190545, Control_c, 0, 64, 61
2,190583, Control_c, 0, 64, 62
2,190603, Control_c, 0, 64, 63
2,190625, Control_c, 0, 64, 64
2,190643, Control_c, 0, 64, 65
2,190654, Note_on_c, 0, 65, 75
2,190662, Control_c, 0, 64, 66
2,190682, Control_c, 0, 64, 68
2,190698, Note_on_c, 0, 68, 0
2,190702, Control_c, 0, 64, 70
2,190721, Control_c, 0, 64, 73
2,190739, Control_c, 0, 64, 76
2,190752, Note_on_c, 0, 56, 0
2,190757, Control_c, 0, 64, 79
2,190777, Control_c, 0, 64, 82
2,190796, Control_c, 0, 64, 86
2,190815, Control_c, 0, 64, 89
2,190834, Control_c, 0, 64, 93
2,190857, Control_c, 0, 64, 96
2,190872, Control_c, 0, 64, 97
2,190901, Note_on_c, 0, 56, 67
2,190967, Control_c, 0, 64, 96
2,190989, Control_c, 0, 64, 95
2,190991, Note_on_c, 0, 65, 0
2,191007, Control_c, 0, 64, 94
2,191024, Control_c, 0, 64, 93
2,191044, Control_c, 0, 64, 92
2,191067, Control_c, 0, 64, 91
2,191077, Note_on_c, 0, 55, 60
2,191084, Control_c, 0, 64, 90
2,191084, Note_on_c, 0, 56, 0
2,191104, Control_c, 0, 64, 88
2,191122, Control_c, 0, 64, 87
2,191142, Control_c, 0, 64, 85
2,191161, Control_c, 0, 64, 83
2,191179, Control_c, 0, 64, 82
2,191200, Control_c, 0, 64, 81
2,191209, Note_on_c, 0, 55, 0
2,191214, Note_on_c, 0, 65, 68
2,191218, Control_c, 0, 64, 79
2,191227, Note_on_c, 0, 56, 67
2,191238, Control_c, 0, 64, 77
2,191257, Control_c, 0, 64, 76
2,191275, Control_c, 0, 64, 74
2,191295, Control_c, 0, 64, 73
2,191313, Control_c, 0, 64, 71
2,191332, Control_c, 0, 64, 70
2,191340, Note_on_c, 0, 55, 69
2,191344, Note_on_c, 0, 56, 0
2,191355, Control_c, 0, 64, 68
2,191372, Control_c, 0, 64, 67
2,191389, Control_c, 0, 64, 66
2,191430, Control_c, 0, 64, 65
2,191449, Control_c, 0, 64, 64
2,191453, Note_on_c, 0, 64, 75
2,191465, Note_on_c, 0, 55, 0
2,191476, Note_on_c, 0, 56, 72
2,191488, Control_c, 0, 64, 63
2,191515, Note_on_c, 0, 65, 0
2,191526, Control_c, 0, 64, 62
2,191564, Control_c, 0, 64, 61
2,191598, Note_on_c, 0, 55, 73
2,191605, Note_on_c, 0, 56, 0
2,191622, Control_c, 0, 64, 60
2,191661, Control_c, 0, 64, 59
2,191706, Note_on_c, 0, 62, 79
2,191739, Control_c, 0, 64, 58
2,191739, Note_on_c, 0, 56, 75
2,191752, Note_on_c, 0, 55, 0
2,191776, Control_c, 0, 64, 56
2,191782, Note_on_c, 0, 64, 0
2,191797, Control_c, 0, 64, 52
2,191813, Control_c, 0, 64, 45
2,191831, Control_c, 0, 64, 36
2,191852, Control_c, 0, 64, 21
2,191871, Control_c, 0, 64, 0
2,191880, Note_on_c, 0, 55, 70
2,191893, Note_on_c, 0, 56, 0
2,191967, Control_c, 0, 64, 9
2,191986, Control_c, 0, 64, 24
2,192006, Control_c, 0, 64, 34
2,192024, Control_c, 0, 64, 42
2,192044, Control_c, 0, 64, 49
2,192068, Control_c, 0, 64, 54
2,192068, Note_on_c, 0, 56, 61
2,192068, Note_on_c, 0, 65, 64
2,192079, Control_c, 0, 64, 57
2,192091, Note_on_c, 0, 55, 0
2,192099, Control_c, 0, 64, 59
2,192111, Note_on_c, 0, 62, 0
2,192117, Control_c, 0, 64, 60
2,192137, Control_c, 0, 64, 61
2,192157, Control_c, 0, 64, 62
2,192195, Control_c, 0, 64, 63
2,192213, Control_c, 0, 64, 64
2,192234, Control_c, 0, 64, 65
2,192248, Note_on_c, 0, 65, 0
2,192252, Note_on_c, 0, 56, 0
2,192257, Note_on_c, 0, 55, 60
2,192265, Note_on_c, 0, 64, 69
2,192271, Control_c, 0, 64, 67
2,192289, Control_c, 0, 64, 68
2,192310, Control_c, 0, 64, 70
2,192327, Control_c, 0, 64, 71
2,192367, Note_on_c, 0, 55, 0
2,192388, Note_on_c, 0, 64, 0
2,192397, Note_on_c, 0, 65, 65
2,192399, Note_on_c, 0, 56, 65
2,192466, Note_on_c, 0, 56, 0
2,192474, Note_on_c, 0, 65, 0
2,192499, Note_on_c, 0, 64, 69
2,192508, Note_on_c, 0, 55, 55
2,192539, Control_c, 0, 64, 70
2,192560, Note_on_c, 0, 55, 0
2,192564, Note_on_c, 0, 64, 0
2,192587, Note_on_c, 0, 56, 66
2,192587, Note_on_c, 0, 65, 60
2,192647, Note_on_c, 0, 65, 0
2,192658, Note_on_c, 0, 56, 0
2,192662, Note_on_c, 0, 55, 64
2,192662, Note_on_c, 0, 64, 68
2,192704, Note_on_c, 0, 55, 0
2,192710, Note_on_c, 0, 64, 0
2,192719, Note_on_c, 0, 56, 59
2,192723, Note_on_c, 0, 65, 51
2,192770, Note_on_c, 0, 65, 0
2,192804, Note_on_c, 0, 56, 0
2,192811, Note_on_c, 0, 55, 62
2,192853, Note_on_c, 0, 55, 0
2,192868, Control_c, 0, 64, 69
2,192877, Note_on_c, 0, 56, 71
2,192923, Note_on_c, 0, 64, 62
2,192943, Note_on_c, 0, 55, 70
2,192950, Note_on_c, 0, 60, 0
2,192954, Note_on_c, 0, 60, 18
2,192984, Note_on_c, 0, 56, 0
2,193004, Control_c, 0, 64, 68
2,193081, Control_c, 0, 64, 67
2,193131, Note_on_c, 0, 62, 83
2,193144, Note_on_c, 0, 53, 72
2,193154, Control_c, 0, 64, 66
2,193171, Note_on_c, 0, 55, 0
2,193171, Note_on_c, 0, 64, 0
2,193176, Control_c, 0, 64, 63
2,193192, Control_c, 0, 64, 56
2,193210, Control_c, 0, 64, 46
2,193230, Control_c, 0, 64, 29
2,193251, Control_c, 0, 64, 10
2,193269, Control_c, 0, 64, 0
2,193347, Control_c, 0, 64, 16
2,193366, Control_c, 0, 64, 29
2,193386, Control_c, 0, 64, 39
2,193406, Control_c, 0, 64, 47
2,193425, Note_on_c, 0, 55, 76
2,193429, Control_c, 0, 64, 54
2,193429, Note_on_c, 0, 64, 87
2,193441, Control_c, 0, 64, 59
2,193447, Note_on_c, 0, 53, 0
2,193462, Control_c, 0, 64, 61
2,193470, Note_on_c, 0, 60, 0
2,193484, Control_c, 0, 64, 62
2,193484, Note_on_c, 0, 62, 0
2,193500, Note_on_c, 0, 48, 0
2,193504, Control_c, 0, 64, 64
2,193521, Control_c, 0, 64, 65
2,193539, Control_c, 0, 64, 68
2,193558, Control_c, 0, 64, 72
2,193579, Control_c, 0, 64, 78
2,193595, Control_c, 0, 64, 87
2,193615, Control_c, 0, 64, 101
2,193637, Control_c, 0, 64, 127
2,193998, Note_on_c, 0, 41, 70
2,193998, Note_on_c, 0, 65, 80
2,194002, Note_on_c, 0, 60, 69
2,194009, Note_on_c, 0, 57, 68
2,194130, Note_on_c, 0, 55, 0
2,194130, Note_on_c, 0, 64, 0
2,194184, Control_c, 0, 64, 106
2,194202, Control_c, 0, 64, 96
2,194222, Control_c, 0, 64, 88
2,194243, Control_c, 0, 64, 81
2,194260, Control_c, 0, 64, 75
2,194281, Control_c, 0, 64, 70
2,194298, Control_c, 0, 64, 65
2,194316, Control_c, 0, 64, 61
2,194337, Control_c, 0, 64, 58
2,194356, Control_c, 0, 64, 55
2,194375, Control_c, 0, 64, 51
2,194393, Control_c, 0, 64, 45
2,194414, Control_c, 0, 64, 38
2,194431, Control_c, 0, 64, 33
2,194450, Control_c, 0, 64, 28
2,194473, Control_c, 0, 64, 26
2,194490, Control_c, 0, 64, 25
2,194685, Control_c, 0, 64, 26
2,194800, Control_c, 0, 64, 27
2,194854, Control_c, 0, 64, 28
2,194875, Control_c, 0, 64, 29
2,194893, Control_c, 0, 64, 30
2,194912, Control_c, 0, 64, 31
2,194933, Control_c, 0, 64, 32
2,194970, Control_c, 0, 64, 33
2,195029, Control_c, 0, 64, 34
2,195336, Control_c, 0, 64, 35
2,195414, Control_c, 0, 64, 36
2,195451, Control_c, 0, 64, 37
2,195488, Control_c, 0, 64, 38
2,195527, Control_c, 0, 64, 39
2,195603, Control_c, 0, 64, 40
2,195622, Control_c, 0, 64, 41
2,195679, Control_c, 0, 64, 42
2,195699, Control_c, 0, 64, 43
2,195738, Control_c, 0, 64, 44
2,195756, Control_c, 0, 64, 45
2,195776, Control_c, 0, 64, 46
2,195795, Control_c, 0, 64, 48
2,195814, Control_c, 0, 64, 49
2,195835, Control_c, 0, 64, 50
2,195854, Control_c, 0, 64, 51
2,195891, Control_c, 0, 64, 52
2,195911, Control_c, 0, 64, 53
2,195933, Control_c, 0, 64, 54
2,195949, Control_c, 0, 64, 55
2,195989, Control_c, 0, 64, 56
2,196028, Control_c, 0, 64, 57
2,196078, Control_c, 0, 64, 58
2,196096, Control_c, 0, 64, 59
2,196135, Control_c, 0, 64, 60
2,196172, Control_c, 0, 64, 61
2,196212, Control_c, 0, 64, 62
2,196230, Control_c, 0, 64, 63
2,196270, Control_c, 0, 64, 64
2,196311, Control_c, 0, 64, 65
2,196326, Control_c, 0, 64, 66
2,196347, Control_c, 0, 64, 67
2,196384, Control_c, 0, 64, 69
2,196406, Control_c, 0, 64, 70
2,196444, Control_c, 0, 64, 71
2,196462, Control_c, 0, 64, 73
2,196482, Control_c, 0, 64, 74
2,196499, Control_c, 0, 64, 76
2,196520, Control_c, 0, 64, 78
2,196538, Control_c, 0, 64, 80
2,196557, Control_c, 0, 64, 81
2,196577, Control_c, 0, 64, 83
2,196598, Control_c, 0, 64, 85
2,196616, Control_c, 0, 64, 86
2,196633, Control_c, 0, 64, 88
2,196654, Control_c, 0, 64, 91
2,196676, Control_c, 0, 64, 93
2,196692, Control_c, 0, 64, 96
2,196713, Control_c, 0, 64, 99
2,196732, Control_c, 0, 64, 102
2,196750, Control_c, 0, 64, 106
2,196770, Control_c, 0, 64, 112
2,196789, Control_c, 0, 64, 127
2,197261, Note_on_c, 0, 65, 0
2,197277, Note_on_c, 0, 41, 0
2,197327, Control_c, 0, 64, 122
2,197327, Note_on_c, 0, 57, 0
2,197346, Control_c, 0, 64, 102
2,197346, Note_on_c, 0, 60, 0
2,197364, Control_c, 0, 64, 87
2,197387, Control_c, 0, 64, 72
2,197402, Control_c, 0, 64, 63
2,197421, Control_c, 0, 64, 56
2,197440, Control_c, 0, 64, 51
2,197462, Control_c, 0, 64, 46
2,197477, Control_c, 0, 64, 42
2,197499, Control_c, 0, 64, 40
2,197517, Control_c, 0, 64, 38
2,197537, Control_c, 0, 64, 37
2,197558, Control_c, 0, 64, 36
2,197825, Control_c, 0, 64, 35
2,197883, Control_c, 0, 64, 34
2,198037, Control_c, 0, 64, 33
2,198170, Control_c, 0, 64, 32
2,198171, End_track
0, 0, End_of_file
