0, 0, Header, 1, 2, 480
1, 0, Start_track
1, 0, Tempo, 500000
1, 0, Time_signature, 4, 2, 24, 8
1, 1, End_track
2, 0, Start_track
2, 0, Program_c, 0, 0
2, 0, Control_c, 0, 64, 106
2, 0, Control_c, 0, 67, 0
2, 412, Control_c, 0, 64, 105
2, 989, Control_c, 0, 64, 104
2, 1025, Control_c, 0, 64, 103
2, 1030, Note_on_c, 0, 56, 33
2, 1032, Note_on_c, 0, 65, 50
2, 1054, Note_on_c, 0, 53, 35
2, 1086, Control_c, 0, 64, 102
2, 1142, Control_c, 0, 64, 101
2, 1180, Control_c, 0, 64, 100
2, 1200, Control_c, 0, 64, 99
2, 1218, Control_c, 0, 64, 98
2, 1240, Control_c, 0, 64, 97
2, 1257, Control_c, 0, 64, 96
2, 1278, Control_c, 0, 64, 95
2, 1295, Control_c, 0, 64, 94
2, 1315, Control_c, 0, 64, 93
2, 1333, Control_c, 0, 64, 92
2, 1371, Control_c, 0, 64, 91
2, 1393, Control_c, 0, 64, 90
2, 1413, Control_c, 0, 64, 89
2, 1441, Note_on_c, 0, 68, 46
2, 1467, Control_c, 0, 64, 88
2, 1776, Control_c, 0, 64, 89
2, 1785, Note_on_c, 0, 72, 54
2, 1794, Control_c, 0, 64, 90
2, 1815, Control_c, 0, 64, 92
2, 1824, Note_on_c, 0, 68, 0
2, 1833, Control_c, 0, 64, 94
2, 1853, Control_c, 0, 64, 96
2, 1871, Control_c, 0, 64, 100
2, 1888, Control_c, 0, 64, 104
2, 1911, Control_c, 0, 64, 112
2, 1929, Control_c, 0, 64, 127
2, 2112, Note_on_c, 0, 65, 0
2, 2135, Note_on_c, 0, 77, 52
2, 2274, Control_c, 0, 67, 13
2, 2294, Control_c, 0, 67, 20
2, 2312, Control_c, 0, 67, 23
2, 2350, Note_on_c, 0, 77, 0
2, 2428, Control_c, 0, 67, 22
2, 2486, Control_c, 0, 67, 21
2, 2499, Note_on_c, 0, 67, 56
2, 2502, Note_on_c, 0, 72, 0
2, 2520, Note_on_c, 0, 58, 43
2, 2542, Note_on_c, 0, 56, 0
2, 2562, Control_c, 0, 67, 20
2, 2660, Control_c, 0, 64, 118
2, 2660, Control_c, 0, 67, 19
2, 2678, Control_c, 0, 64, 104
2, 2697, Control_c, 0, 64, 97
2, 2715, Control_c, 0, 64, 91
2, 2736, Control_c, 0, 64, 85
2, 2758, Control_c, 0, 64, 79
2, 2774, Control_c, 0, 64, 70
2, 2792, Control_c, 0, 64, 63
2, 2815, Control_c, 0, 64, 57
2, 2832, Control_c, 0, 64, 53
2, 2853, Control_c, 0, 64, 48
2, 2866, Note_on_c, 0, 77, 56
2, 2871, Control_c, 0, 64, 43
2, 2888, Control_c, 0, 64, 37
2, 2908, Control_c, 0, 64, 29
2, 2928, Control_c, 0, 64, 24
2, 2948, Control_c, 0, 64, 22
2, 3045, Control_c, 0, 64, 24
2, 3061, Control_c, 0, 64, 31
2, 3082, Control_c, 0, 64, 38
2, 3100, Control_c, 0, 64, 46
2, 3119, Control_c, 0, 64, 54
2, 3139, Control_c, 0, 64, 60
2, 3159, Control_c, 0, 64, 63
2, 3177, Control_c, 0, 64, 65
2, 3195, Control_c, 0, 64, 66
2, 3212, Note_on_c, 0, 76, 56
2, 3216, Control_c, 0, 64, 69
2, 3238, Control_c, 0, 64, 74
2, 3254, Control_c, 0, 64, 79
2, 3259, Note_on_c, 0, 77, 0
2, 3274, Control_c, 0, 64, 81
2, 3311, Control_c, 0, 64, 82
2, 3483, Control_c, 0, 64, 83
2, 3554, Note_on_c, 0, 67, 0
2, 3554, Note_on_c, 0, 79, 61
2, 3641, Note_on_c, 0, 76, 0
2, 3850, Control_c, 0, 64, 82
2, 3868, Control_c, 0, 64, 81
2, 3888, Control_c, 0, 64, 78
2, 3908, Control_c, 0, 64, 74
2, 3912, Note_on_c, 0, 68, 63
2, 3917, Note_on_c, 0, 79, 0
2, 3921, Note_on_c, 0, 58, 0
2, 3926, Control_c, 0, 64, 70
2, 3931, Note_on_c, 0, 60, 43
2, 3946, Control_c, 0, 64, 66
2, 3964, Control_c, 0, 64, 63
2, 3986, Control_c, 0, 64, 61
2, 4003, Control_c, 0, 64, 59
2, 4024, Control_c, 0, 64, 56
2, 4042, Control_c, 0, 64, 53
2, 4062, Control_c, 0, 64, 49
2, 4078, Control_c, 0, 64, 45
2, 4101, Control_c, 0, 64, 42
2, 4119, Control_c, 0, 64, 39
2, 4137, Control_c, 0, 64, 37
2, 4157, Control_c, 0, 64, 34
2, 4176, Control_c, 0, 64, 31
2, 4198, Control_c, 0, 64, 26
2, 4213, Control_c, 0, 64, 20
2, 4233, Control_c, 0, 64, 16
2, 4253, Control_c, 0, 64, 15
2, 4264, Note_on_c, 0, 72, 56
2, 4310, Control_c, 0, 64, 14
2, 4329, Control_c, 0, 64, 13
2, 4483, Control_c, 0, 64, 14
2, 4521, Control_c, 0, 64, 16
2, 4539, Control_c, 0, 64, 17
2, 4558, Control_c, 0, 64, 20
2, 4579, Control_c, 0, 64, 24
2, 4601, Control_c, 0, 64, 27
2, 4617, Control_c, 0, 64, 29
2, 4617, Note_on_c, 0, 77, 56
2, 4635, Control_c, 0, 64, 31
2, 4656, Control_c, 0, 64, 33
2, 4676, Control_c, 0, 64, 36
2, 4676, Note_on_c, 0, 72, 0
2, 4694, Control_c, 0, 64, 38
2, 4752, Control_c, 0, 64, 39
2, 4771, Control_c, 0, 64, 40
2, 4973, Note_on_c, 0, 76, 63
2, 4982, Control_c, 0, 64, 39
2, 5030, Note_on_c, 0, 77, 0
2, 5269, Control_c, 0, 64, 40
2, 5290, Control_c, 0, 64, 41
2, 5307, Control_c, 0, 64, 44
2, 5327, Control_c, 0, 64, 47
2, 5347, Control_c, 0, 64, 51
2, 5358, Note_on_c, 0, 56, 43
2, 5366, Note_on_c, 0, 60, 0
2, 5370, Control_c, 0, 64, 55
2, 5370, Note_on_c, 0, 77, 69
2, 5385, Control_c, 0, 64, 56
2, 5403, Control_c, 0, 64, 57
2, 5437, Note_on_c, 0, 76, 0
2, 5520, Control_c, 0, 64, 56
2, 5580, Control_c, 0, 64, 55
2, 5596, Control_c, 0, 64, 54
2, 5616, Control_c, 0, 64, 53
2, 5634, Control_c, 0, 64, 52
2, 5653, Control_c, 0, 64, 50
2, 5671, Control_c, 0, 64, 47
2, 5691, Control_c, 0, 64, 44
2, 5714, Control_c, 0, 64, 41
2, 5733, Control_c, 0, 64, 36
2, 5742, Note_on_c, 0, 72, 54
2, 5749, Control_c, 0, 64, 33
2, 5769, Control_c, 0, 64, 29
2, 5787, Control_c, 0, 64, 25
2, 5807, Control_c, 0, 64, 21
2, 5825, Control_c, 0, 64, 18
2, 5846, Control_c, 0, 64, 16
2, 5865, Control_c, 0, 64, 14
2, 5883, Control_c, 0, 64, 13
2, 5942, Control_c, 0, 64, 16
2, 5960, Control_c, 0, 64, 22
2, 5982, Control_c, 0, 64, 29
2, 6000, Control_c, 0, 64, 36
2, 6020, Control_c, 0, 64, 42
2, 6027, Note_on_c, 0, 68, 0
2, 6038, Control_c, 0, 64, 46
2, 6060, Control_c, 0, 64, 51
2, 6077, Control_c, 0, 64, 55
2, 6095, Control_c, 0, 64, 56
2, 6104, Note_on_c, 0, 70, 42
2, 6115, Control_c, 0, 64, 57
2, 6134, Control_c, 0, 64, 58
2, 6152, Control_c, 0, 64, 59
2, 6248, Control_c, 0, 64, 60
2, 6289, Control_c, 0, 67, 18
2, 6327, Note_on_c, 0, 72, 0
2, 6345, Control_c, 0, 64, 61
2, 6456, Note_on_c, 0, 68, 54
2, 6480, Note_on_c, 0, 70, 0
2, 6822, Note_on_c, 0, 73, 69
2, 6826, Control_c, 0, 64, 60
2, 6833, Note_on_c, 0, 56, 0
2, 6845, Note_on_c, 0, 58, 40
2, 6850, Note_on_c, 0, 77, 0
2, 6863, Control_c, 0, 64, 59
2, 6889, Note_on_c, 0, 68, 0
2, 6902, Control_c, 0, 64, 58
2, 6920, Control_c, 0, 64, 57
2, 6939, Control_c, 0, 64, 56
2, 6959, Control_c, 0, 64, 55
2, 6977, Control_c, 0, 64, 53
2, 6996, Control_c, 0, 64, 52
2, 7017, Control_c, 0, 64, 49
2, 7037, Control_c, 0, 64, 45
2, 7054, Control_c, 0, 64, 41
2, 7075, Control_c, 0, 64, 37
2, 7094, Control_c, 0, 64, 34
2, 7114, Control_c, 0, 64, 32
2, 7131, Control_c, 0, 64, 31
2, 7169, Control_c, 0, 64, 30
2, 7178, Note_on_c, 0, 68, 52
2, 7542, Note_on_c, 0, 67, 49
2, 7584, Note_on_c, 0, 68, 0
2, 7593, Control_c, 0, 67, 17
2, 7880, Control_c, 0, 64, 29
2, 7910, Note_on_c, 0, 70, 55
2, 7938, Note_on_c, 0, 67, 0
2, 8014, Control_c, 0, 64, 28
2, 8092, Control_c, 0, 64, 27
2, 8150, Control_c, 0, 64, 26
2, 8190, Control_c, 0, 64, 25
2, 8246, Control_c, 0, 64, 24
2, 8292, Note_on_c, 0, 64, 63
2, 8296, Note_on_c, 0, 55, 41
2, 8300, Note_on_c, 0, 58, 0
2, 8304, Control_c, 0, 64, 23
2, 8342, Control_c, 0, 64, 22
2, 8346, Note_on_c, 0, 73, 0
2, 8356, Note_on_c, 0, 70, 0
2, 8399, Control_c, 0, 64, 21
2, 8438, Control_c, 0, 64, 20
2, 8553, Control_c, 0, 64, 19
2, 8664, Note_on_c, 0, 73, 57
2, 8689, Control_c, 0, 64, 20
2, 8706, Control_c, 0, 64, 21
2, 8725, Control_c, 0, 64, 24
2, 8745, Control_c, 0, 64, 27
2, 8765, Control_c, 0, 64, 32
2, 8783, Control_c, 0, 64, 36
2, 8801, Control_c, 0, 64, 40
2, 8820, Control_c, 0, 64, 44
2, 8842, Control_c, 0, 64, 49
2, 8862, Control_c, 0, 64, 56
2, 8878, Control_c, 0, 64, 61
2, 8897, Control_c, 0, 64, 62
2, 8939, Control_c, 0, 64, 64
2, 8939, Control_c, 0, 67, 16
2, 8957, Control_c, 0, 64, 65
2, 8976, Control_c, 0, 64, 68
2, 8995, Control_c, 0, 64, 72
2, 9013, Control_c, 0, 64, 76
2, 9035, Control_c, 0, 64, 79
2, 9035, Note_on_c, 0, 72, 58
2, 9052, Control_c, 0, 64, 81
2, 9077, Note_on_c, 0, 53, 0
2, 9093, Control_c, 0, 64, 82
2, 9097, Note_on_c, 0, 73, 0
2, 9165, Note_on_c, 0, 55, 0
2, 9226, Control_c, 0, 64, 81
2, 9281, Control_c, 0, 64, 80
2, 9370, Note_on_c, 0, 64, 0
2, 9370, Note_on_c, 0, 70, 58
2, 9378, Control_c, 0, 64, 79
2, 9704, Control_c, 0, 64, 77
2, 9723, Control_c, 0, 64, 73
2, 9744, Control_c, 0, 64, 68
2, 9755, Note_on_c, 0, 53, 56
2, 9760, Note_on_c, 0, 70, 0
2, 9764, Control_c, 0, 64, 64
2, 9764, Note_on_c, 0, 65, 49
2, 9764, Note_on_c, 0, 68, 54
2, 9785, Control_c, 0, 64, 58
2, 9800, Control_c, 0, 64, 51
2, 9813, Note_on_c, 0, 72, 0
2, 9822, Control_c, 0, 64, 43
2, 9840, Control_c, 0, 64, 36
2, 9859, Control_c, 0, 64, 30
2, 9879, Control_c, 0, 64, 27
2, 9897, Control_c, 0, 64, 23
2, 9915, Control_c, 0, 64, 19
2, 9936, Control_c, 0, 64, 16
2, 9956, Control_c, 0, 64, 14
2, 9974, Control_c, 0, 64, 13
2, 10012, Control_c, 0, 64, 12
2, 10052, Control_c, 0, 64, 11
2, 10099, Note_on_c, 0, 56, 50
2, 10282, Control_c, 0, 64, 12
2, 10451, Note_on_c, 0, 56, 0
2, 10460, Note_on_c, 0, 60, 53
2, 10480, Note_on_c, 0, 65, 0
2, 10685, Control_c, 0, 64, 13
2, 10703, Control_c, 0, 64, 18
2, 10722, Control_c, 0, 64, 26
2, 10742, Control_c, 0, 64, 35
2, 10761, Control_c, 0, 64, 45
2, 10779, Control_c, 0, 64, 53
2, 10795, Note_on_c, 0, 60, 0
2, 10799, Control_c, 0, 64, 59
2, 10820, Control_c, 0, 64, 62
2, 10820, Note_on_c, 0, 65, 50
2, 10824, Note_on_c, 0, 70, 56
2, 10833, Note_on_c, 0, 68, 0
2, 10838, Control_c, 0, 64, 63
2, 10856, Control_c, 0, 64, 64
2, 10877, Control_c, 0, 64, 65
2, 10897, Control_c, 0, 64, 68
2, 10914, Control_c, 0, 64, 71
2, 10934, Control_c, 0, 64, 73
2, 10952, Control_c, 0, 64, 74
2, 11067, Control_c, 0, 64, 73
2, 11117, Note_on_c, 0, 65, 0
2, 11122, Note_on_c, 0, 53, 0
2, 11141, Note_on_c, 0, 55, 52
2, 11167, Control_c, 0, 64, 72
2, 11204, Control_c, 0, 64, 71
2, 11204, Note_on_c, 0, 70, 0
2, 11223, Control_c, 0, 64, 70
2, 11237, Note_on_c, 0, 72, 59
2, 11241, Control_c, 0, 64, 69
2, 11260, Control_c, 0, 64, 67
2, 11282, Control_c, 0, 64, 65
2, 11302, Control_c, 0, 64, 63
2, 11302, Note_on_c, 0, 72, 0
2, 11318, Control_c, 0, 64, 60
2, 11329, Note_on_c, 0, 70, 62
2, 11340, Control_c, 0, 64, 57
2, 11356, Control_c, 0, 64, 52
2, 11376, Control_c, 0, 64, 46
2, 11380, Note_on_c, 0, 70, 0
2, 11398, Control_c, 0, 64, 39
2, 11415, Control_c, 0, 64, 32
2, 11415, Note_on_c, 0, 72, 50
2, 11435, Control_c, 0, 64, 27
2, 11451, Control_c, 0, 64, 23
2, 11472, Control_c, 0, 64, 20
2, 11472, Note_on_c, 0, 72, 0
2, 11479, Note_on_c, 0, 70, 62
2, 11492, Control_c, 0, 64, 16
2, 11510, Control_c, 0, 64, 12
2, 11528, Control_c, 0, 64, 0
2, 11564, Note_on_c, 0, 65, 59
2, 11890, Note_on_c, 0, 64, 62
2, 11912, Note_on_c, 0, 65, 0
2, 12214, Note_on_c, 0, 64, 0
2, 12232, Note_on_c, 0, 68, 67
2, 12232, Note_on_c, 0, 70, 0
2, 12236, Note_on_c, 0, 67, 58
2, 12413, Note_on_c, 0, 68, 0
2, 12417, Note_on_c, 0, 70, 67
2, 12634, Note_on_c, 0, 56, 65
2, 12654, Note_on_c, 0, 72, 66
2, 12659, Note_on_c, 0, 70, 0
2, 12677, Note_on_c, 0, 67, 0
2, 12695, Note_on_c, 0, 55, 0
2, 12892, Control_c, 0, 67, 17
2, 12996, Note_on_c, 0, 68, 58
2, 13219, Control_c, 0, 67, 16
2, 13256, Control_c, 0, 67, 15
2, 13276, Control_c, 0, 67, 14
2, 13294, Control_c, 0, 67, 13
2, 13313, Control_c, 0, 67, 11
2, 13344, Note_on_c, 0, 64, 58
2, 13355, Control_c, 0, 67, 10
2, 13380, Note_on_c, 0, 68, 0
2, 13411, Control_c, 0, 67, 11
2, 13488, Control_c, 0, 67, 12
2, 13679, Note_on_c, 0, 64, 0
2, 13682, Control_c, 0, 67, 13
2, 13686, Note_on_c, 0, 65, 59
2, 14026, Note_on_c, 0, 72, 0
2, 14058, Note_on_c, 0, 58, 67
2, 14058, Note_on_c, 0, 61, 51
2, 14072, Note_on_c, 0, 65, 0
2, 14140, Control_c, 0, 67, 14
2, 14144, Note_on_c, 0, 56, 0
2, 14431, Note_on_c, 0, 73, 66
2, 14715, Control_c, 0, 64, 15
2, 14735, Control_c, 0, 64, 33
2, 14755, Control_c, 0, 64, 46
2, 14773, Control_c, 0, 64, 54
2, 14786, Note_on_c, 0, 67, 59
2, 14793, Control_c, 0, 64, 60
2, 14815, Control_c, 0, 64, 62
2, 14831, Control_c, 0, 64, 63
2, 14835, Note_on_c, 0, 73, 0
2, 14850, Control_c, 0, 64, 65
2, 14871, Control_c, 0, 64, 68
2, 14889, Control_c, 0, 64, 75
2, 14908, Control_c, 0, 64, 83
2, 14927, Control_c, 0, 64, 91
2, 14946, Control_c, 0, 64, 98
2, 14961, Note_on_c, 0, 58, 0
2, 14968, Control_c, 0, 64, 122
2, 14988, Control_c, 0, 64, 127
2, 15175, Note_on_c, 0, 67, 0
2, 15180, Note_on_c, 0, 70, 62
2, 15215, Note_on_c, 0, 61, 0
2, 15273, Note_on_c, 0, 70, 0
2, 15561, Control_c, 0, 64, 87
2, 15570, Note_on_c, 0, 48, 67
2, 15581, Note_on_c, 0, 60, 55
2, 15581, Note_on_c, 0, 64, 59
2, 15584, Control_c, 0, 64, 67
2, 15598, Control_c, 0, 64, 58
2, 15619, Control_c, 0, 64, 46
2, 15637, Control_c, 0, 64, 37
2, 15657, Control_c, 0, 64, 30
2, 15675, Control_c, 0, 64, 25
2, 15694, Control_c, 0, 64, 17
2, 15714, Control_c, 0, 64, 0
2, 15735, Control_c, 0, 67, 15
2, 15937, Note_on_c, 0, 52, 58
2, 16208, Note_on_c, 0, 60, 0
2, 16284, Note_on_c, 0, 52, 0
2, 16291, Control_c, 0, 67, 14
2, 16295, Note_on_c, 0, 55, 57
2, 16520, Control_c, 0, 64, 21
2, 16540, Control_c, 0, 64, 37
2, 16558, Control_c, 0, 64, 47
2, 16579, Control_c, 0, 64, 56
2, 16599, Control_c, 0, 64, 60
2, 16617, Control_c, 0, 64, 62
2, 16637, Control_c, 0, 64, 63
2, 16637, Note_on_c, 0, 55, 0
2, 16648, Note_on_c, 0, 60, 56
2, 16654, Control_c, 0, 64, 65
2, 16666, Note_on_c, 0, 64, 0
2, 16666, Note_on_c, 0, 65, 53
2, 16673, Control_c, 0, 64, 71
2, 16693, Control_c, 0, 64, 77
2, 16712, Control_c, 0, 64, 81
2, 16734, Control_c, 0, 64, 83
2, 16752, Control_c, 0, 64, 84
2, 16752, Note_on_c, 0, 60, 0
2, 16790, Control_c, 0, 64, 85
2, 16866, Control_c, 0, 64, 84
2, 16924, Control_c, 0, 64, 83
2, 16970, Note_on_c, 0, 49, 62
2, 16983, Control_c, 0, 64, 82
2, 16987, Note_on_c, 0, 48, 0
2, 17001, Control_c, 0, 64, 81
2, 17018, Control_c, 0, 64, 79
2, 17030, Note_on_c, 0, 65, 0
2, 17039, Control_c, 0, 64, 74
2, 17054, Note_on_c, 0, 67, 60
2, 17059, Control_c, 0, 64, 68
2, 17077, Control_c, 0, 64, 63
2, 17095, Control_c, 0, 64, 57
2, 17115, Control_c, 0, 64, 52
2, 17122, Note_on_c, 0, 67, 0
2, 17139, Control_c, 0, 64, 46
2, 17139, Note_on_c, 0, 65, 61
2, 17154, Control_c, 0, 64, 41
2, 17172, Control_c, 0, 64, 37
2, 17193, Control_c, 0, 64, 33
2, 17215, Control_c, 0, 64, 31
2, 17215, Note_on_c, 0, 65, 0
2, 17215, Note_on_c, 0, 67, 56
2, 17230, Control_c, 0, 64, 30
2, 17284, Note_on_c, 0, 65, 55
2, 17289, Control_c, 0, 64, 29
2, 17319, Note_on_c, 0, 67, 0
2, 17326, Control_c, 0, 64, 28
2, 17388, Note_on_c, 0, 60, 63
2, 17422, Control_c, 0, 64, 27
2, 17499, Control_c, 0, 64, 26
2, 17518, Control_c, 0, 64, 25
2, 17537, Control_c, 0, 64, 24
2, 17556, Control_c, 0, 64, 22
2, 17597, Control_c, 0, 64, 21
2, 17615, Control_c, 0, 64, 20
2, 17635, Control_c, 0, 64, 19
2, 17653, Control_c, 0, 64, 17
2, 17675, Control_c, 0, 64, 16
2, 17694, Control_c, 0, 64, 15
2, 17729, Note_on_c, 0, 58, 65
2, 17731, Control_c, 0, 64, 14
2, 17738, Note_on_c, 0, 60, 0
2, 17750, Control_c, 0, 64, 13
2, 17768, Control_c, 0, 64, 11
2, 17846, Control_c, 0, 64, 10
2, 17864, Control_c, 0, 64, 9
2, 17883, Control_c, 0, 64, 8
2, 17902, Control_c, 0, 64, 0
2, 18072, Note_on_c, 0, 65, 0
2, 18079, Note_on_c, 0, 64, 64
2, 18083, Note_on_c, 0, 58, 0
2, 18083, Note_on_c, 0, 61, 63
2, 18272, Note_on_c, 0, 64, 0
2, 18275, Note_on_c, 0, 65, 63
2, 18466, Note_on_c, 0, 65, 0
2, 18493, Note_on_c, 0, 52, 70
2, 18497, Note_on_c, 0, 67, 67
2, 18552, Note_on_c, 0, 61, 0
2, 18685, Note_on_c, 0, 49, 0
2, 18853, Note_on_c, 0, 72, 74
2, 19203, Note_on_c, 0, 70, 71
2, 19207, Note_on_c, 0, 55, 56
2, 19216, Note_on_c, 0, 72, 0
2, 19573, Note_on_c, 0, 73, 75
2, 19591, Note_on_c, 0, 67, 0
2, 19766, Control_c, 0, 67, 15
2, 19900, Control_c, 0, 64, 27
2, 19919, Control_c, 0, 64, 41
2, 19937, Control_c, 0, 64, 50
2, 19947, Note_on_c, 0, 64, 57
2, 19958, Control_c, 0, 64, 56
2, 19966, Note_on_c, 0, 60, 50
2, 19970, Note_on_c, 0, 52, 0
2, 19970, Note_on_c, 0, 70, 0
2, 19979, Control_c, 0, 64, 60
2, 19979, Note_on_c, 0, 73, 0
2, 19996, Control_c, 0, 64, 62
2, 20029, Note_on_c, 0, 55, 0
2, 20056, Control_c, 0, 64, 63
2, 20056, Control_c, 0, 67, 14
2, 20341, Control_c, 0, 64, 62
2, 20350, Note_on_c, 0, 73, 63
2, 20418, Control_c, 0, 64, 61
2, 20455, Control_c, 0, 64, 60
2, 20495, Control_c, 0, 64, 59
2, 20515, Control_c, 0, 64, 57
2, 20533, Control_c, 0, 64, 55
2, 20553, Control_c, 0, 64, 52
2, 20571, Control_c, 0, 64, 47
2, 20589, Control_c, 0, 64, 41
2, 20608, Control_c, 0, 64, 35
2, 20628, Control_c, 0, 64, 34
2, 20672, Control_c, 0, 64, 35
2, 20688, Control_c, 0, 64, 38
2, 20709, Control_c, 0, 64, 44
2, 20713, Control_c, 0, 67, 13
2, 20713, Note_on_c, 0, 48, 40
2, 20713, Note_on_c, 0, 72, 62
2, 20726, Control_c, 0, 64, 51
2, 20730, Control_c, 0, 67, 12
2, 20746, Control_c, 0, 64, 57
2, 20746, Note_on_c, 0, 73, 0
2, 20752, Control_c, 0, 67, 11
2, 20766, Control_c, 0, 64, 60
2, 20788, Control_c, 0, 64, 62
2, 20788, Control_c, 0, 67, 10
2, 20804, Control_c, 0, 64, 64
2, 20804, Control_c, 0, 67, 9
2, 20823, Control_c, 0, 64, 70
2, 20845, Control_c, 0, 64, 79
2, 20845, Control_c, 0, 67, 8
2, 20862, Control_c, 0, 64, 97
2, 20862, Control_c, 0, 67, 0
2, 20877, Control_c, 0, 64, 127
2, 20893, Note_on_c, 0, 60, 0
2, 21020, Note_on_c, 0, 48, 0
2, 21049, Note_on_c, 0, 64, 0
2, 21068, Note_on_c, 0, 70, 64
2, 21112, Note_on_c, 0, 72, 0
2, 21433, Note_on_c, 0, 41, 68
2, 21437, Control_c, 0, 64, 122
2, 21454, Control_c, 0, 64, 75
2, 21472, Control_c, 0, 64, 59
2, 21491, Control_c, 0, 64, 37
2, 21510, Note_on_c, 0, 70, 0
2, 21515, Note_on_c, 0, 69, 60
2, 21517, Control_c, 0, 64, 0
2, 21517, Note_on_c, 0, 63, 58
2, 21838, Control_c, 0, 64, 33
2, 21854, Note_on_c, 0, 45, 55
2, 21858, Control_c, 0, 64, 46
2, 21878, Control_c, 0, 64, 54
2, 21897, Control_c, 0, 64, 56
2, 21933, Control_c, 0, 64, 57
2, 21973, Control_c, 0, 64, 56
2, 22013, Control_c, 0, 64, 55
2, 22049, Control_c, 0, 64, 54
2, 22069, Control_c, 0, 64, 53
2, 22091, Control_c, 0, 64, 51
2, 22107, Control_c, 0, 64, 49
2, 22126, Control_c, 0, 64, 48
2, 22146, Control_c, 0, 64, 45
2, 22167, Control_c, 0, 64, 43
2, 22182, Control_c, 0, 64, 41
2, 22196, Note_on_c, 0, 45, 0
2, 22203, Control_c, 0, 64, 40
2, 22207, Note_on_c, 0, 48, 59
2, 22223, Control_c, 0, 64, 39
2, 22243, Control_c, 0, 64, 38
2, 22319, Control_c, 0, 64, 37
2, 22357, Control_c, 0, 64, 36
2, 22394, Control_c, 0, 64, 35
2, 22414, Control_c, 0, 64, 36
2, 22435, Control_c, 0, 64, 37
2, 22455, Control_c, 0, 64, 41
2, 22472, Control_c, 0, 64, 48
2, 22493, Control_c, 0, 64, 55
2, 22513, Control_c, 0, 64, 60
2, 22531, Control_c, 0, 64, 63
2, 22548, Control_c, 0, 64, 65
2, 22563, Note_on_c, 0, 53, 59
2, 22563, Note_on_c, 0, 70, 65
2, 22567, Control_c, 0, 64, 68
2, 22567, Note_on_c, 0, 48, 0
2, 22589, Note_on_c, 0, 69, 0
2, 22594, Control_c, 0, 64, 74
2, 22606, Control_c, 0, 64, 82
2, 22625, Note_on_c, 0, 63, 0
2, 22628, Control_c, 0, 64, 89
2, 22644, Control_c, 0, 64, 92
2, 22659, Note_on_c, 0, 70, 0
2, 22664, Control_c, 0, 64, 94
2, 22798, Control_c, 0, 64, 93
2, 22818, Note_on_c, 0, 53, 0
2, 22835, Note_on_c, 0, 41, 0
2, 22839, Note_on_c, 0, 42, 66
2, 22857, Control_c, 0, 64, 92
2, 22933, Control_c, 0, 64, 91
2, 22954, Note_on_c, 0, 61, 47
2, 22954, Note_on_c, 0, 72, 65
2, 22958, Control_c, 0, 64, 90
2, 22975, Control_c, 0, 64, 88
2, 22991, Control_c, 0, 64, 84
2, 23011, Control_c, 0, 64, 75
2, 23015, Note_on_c, 0, 72, 0
2, 23030, Control_c, 0, 64, 67
2, 23030, Note_on_c, 0, 70, 67
2, 23050, Control_c, 0, 64, 63
2, 23066, Control_c, 0, 64, 59
2, 23085, Control_c, 0, 64, 55
2, 23103, Note_on_c, 0, 72, 62
2, 23107, Control_c, 0, 64, 49
2, 23112, Note_on_c, 0, 70, 0
2, 23126, Control_c, 0, 64, 42
2, 23145, Control_c, 0, 64, 35
2, 23163, Control_c, 0, 64, 29
2, 23180, Note_on_c, 0, 70, 68
2, 23184, Control_c, 0, 64, 23
2, 23201, Control_c, 0, 64, 16
2, 23211, Note_on_c, 0, 72, 0
2, 23221, Control_c, 0, 64, 0
2, 23299, Note_on_c, 0, 53, 68
2, 23616, Note_on_c, 0, 51, 71
2, 23637, Note_on_c, 0, 53, 0
2, 23976, Note_on_c, 0, 51, 0
2, 23976, Note_on_c, 0, 69, 63
2, 23981, Note_on_c, 0, 54, 63
2, 24008, Note_on_c, 0, 70, 0
2, 24149, Note_on_c, 0, 70, 75
2, 24179, Note_on_c, 0, 69, 0
2, 24411, Note_on_c, 0, 72, 63
2, 24413, Note_on_c, 0, 45, 65
2, 24456, Note_on_c, 0, 70, 0
2, 24472, Note_on_c, 0, 54, 0
2, 24477, Note_on_c, 0, 42, 0
2, 24565, Note_on_c, 0, 61, 0
2, 24762, Note_on_c, 0, 65, 56
2, 25123, Note_on_c, 0, 65, 0
2, 25127, Note_on_c, 0, 63, 56
2, 25136, Note_on_c, 0, 48, 49
2, 25468, Control_c, 0, 64, 33
2, 25486, Control_c, 0, 64, 49
2, 25508, Control_c, 0, 64, 58
2, 25508, Note_on_c, 0, 66, 58
2, 25524, Control_c, 0, 64, 62
2, 25542, Note_on_c, 0, 45, 0
2, 25544, Control_c, 0, 64, 63
2, 25563, Control_c, 0, 64, 65
2, 25582, Control_c, 0, 64, 67
2, 25586, Note_on_c, 0, 63, 0
2, 25601, Control_c, 0, 64, 72
2, 25624, Control_c, 0, 64, 78
2, 25640, Control_c, 0, 64, 83
2, 25659, Control_c, 0, 64, 86
2, 25677, Control_c, 0, 64, 88
2, 25697, Control_c, 0, 64, 91
2, 25717, Control_c, 0, 64, 93
2, 25737, Control_c, 0, 64, 94
2, 25756, Control_c, 0, 64, 95
2, 25816, Control_c, 0, 64, 94
2, 25852, Control_c, 0, 64, 93
2, 25858, Note_on_c, 0, 66, 0
2, 25869, Note_on_c, 0, 48, 0
2, 25874, Control_c, 0, 64, 91
2, 25879, Note_on_c, 0, 45, 48
2, 25890, Control_c, 0, 64, 90
2, 25910, Control_c, 0, 64, 89
2, 25928, Control_c, 0, 64, 87
2, 25951, Control_c, 0, 64, 85
2, 25966, Control_c, 0, 64, 83
2, 25985, Control_c, 0, 64, 81
2, 26008, Control_c, 0, 64, 79
2, 26025, Control_c, 0, 64, 78
2, 26043, Control_c, 0, 64, 77
2, 26083, Control_c, 0, 64, 76
2, 26101, Control_c, 0, 64, 75
2, 26118, Control_c, 0, 64, 74
2, 26139, Control_c, 0, 64, 73
2, 26161, Control_c, 0, 64, 72
2, 26177, Control_c, 0, 64, 70
2, 26197, Control_c, 0, 64, 67
2, 26214, Control_c, 0, 64, 64
2, 26234, Control_c, 0, 64, 63
2, 26240, Note_on_c, 0, 66, 51
2, 26254, Control_c, 0, 64, 61
2, 26272, Control_c, 0, 64, 57
2, 26295, Control_c, 0, 64, 50
2, 26313, Control_c, 0, 64, 41
2, 26333, Control_c, 0, 64, 34
2, 26352, Control_c, 0, 64, 30
2, 26370, Control_c, 0, 64, 25
2, 26390, Control_c, 0, 64, 16
2, 26407, Control_c, 0, 64, 0
2, 26592, Note_on_c, 0, 41, 40
2, 26601, Note_on_c, 0, 66, 0
2, 26607, Note_on_c, 0, 65, 51
2, 26971, Note_on_c, 0, 63, 58
2, 26975, Note_on_c, 0, 65, 0
2, 27307, Note_on_c, 0, 72, 0
2, 27320, Note_on_c, 0, 63, 0
2, 27331, Note_on_c, 0, 61, 57
2, 27355, Note_on_c, 0, 46, 49
2, 27363, Note_on_c, 0, 45, 0
2, 27445, Note_on_c, 0, 41, 0
2, 27680, Note_on_c, 0, 72, 73
2, 28043, Note_on_c, 0, 70, 73
2, 28085, Note_on_c, 0, 72, 0
2, 28414, Note_on_c, 0, 73, 75
2, 28466, Note_on_c, 0, 70, 0
2, 28772, Note_on_c, 0, 67, 67
2, 28790, Control_c, 0, 64, 26
2, 28810, Note_on_c, 0, 73, 0
2, 28814, Control_c, 0, 64, 44
2, 28827, Control_c, 0, 64, 54
2, 28845, Control_c, 0, 64, 60
2, 28866, Control_c, 0, 64, 62
2, 28885, Control_c, 0, 64, 63
2, 28888, Note_on_c, 0, 46, 0
2, 28905, Control_c, 0, 64, 65
2, 28923, Control_c, 0, 64, 68
2, 28941, Control_c, 0, 64, 76
2, 28962, Control_c, 0, 64, 85
2, 28981, Control_c, 0, 64, 91
2, 29004, Control_c, 0, 64, 92
2, 29019, Control_c, 0, 64, 94
2, 29037, Control_c, 0, 64, 95
2, 29058, Control_c, 0, 64, 96
2, 29078, Control_c, 0, 64, 97
2, 29102, Note_on_c, 0, 46, 62
2, 29126, Note_on_c, 0, 67, 0
2, 29288, Control_c, 0, 64, 95
2, 29307, Control_c, 0, 64, 94
2, 29325, Control_c, 0, 64, 93
2, 29366, Control_c, 0, 64, 92
2, 29404, Control_c, 0, 64, 91
2, 29444, Control_c, 0, 64, 89
2, 29460, Note_on_c, 0, 48, 57
2, 29464, Control_c, 0, 64, 83
2, 29464, Note_on_c, 0, 70, 62
2, 29481, Control_c, 0, 64, 74
2, 29499, Control_c, 0, 64, 67
2, 29508, Note_on_c, 0, 46, 0
2, 29519, Control_c, 0, 64, 62
2, 29523, Note_on_c, 0, 70, 0
2, 29537, Control_c, 0, 64, 57
2, 29552, Note_on_c, 0, 68, 71
2, 29556, Control_c, 0, 64, 54
2, 29576, Control_c, 0, 64, 50
2, 29597, Control_c, 0, 64, 47
2, 29608, Note_on_c, 0, 68, 0
2, 29614, Control_c, 0, 64, 43
2, 29633, Control_c, 0, 64, 40
2, 29633, Note_on_c, 0, 70, 55
2, 29652, Control_c, 0, 64, 37
2, 29675, Control_c, 0, 64, 35
2, 29691, Control_c, 0, 64, 32
2, 29696, Note_on_c, 0, 68, 64
2, 29708, Note_on_c, 0, 70, 0
2, 29712, Control_c, 0, 64, 30
2, 29730, Control_c, 0, 64, 28
2, 29748, Control_c, 0, 64, 26
2, 29770, Control_c, 0, 64, 25
2, 29807, Control_c, 0, 64, 24
2, 29826, Control_c, 0, 64, 23
2, 29846, Control_c, 0, 64, 22
2, 29864, Control_c, 0, 64, 21
2, 29884, Control_c, 0, 64, 20
2, 29900, Note_on_c, 0, 49, 55
2, 29906, Note_on_c, 0, 48, 0
2, 30248, Control_c, 0, 64, 19
2, 30328, Note_on_c, 0, 70, 53
2, 30337, Note_on_c, 0, 43, 41
2, 30337, Note_on_c, 0, 68, 0
2, 30403, Control_c, 0, 64, 18
2, 30403, Note_on_c, 0, 49, 0
2, 30423, Control_c, 0, 64, 17
2, 30479, Control_c, 0, 64, 16
2, 30594, Control_c, 0, 64, 15
2, 30638, Note_on_c, 0, 61, 0
2, 30714, Note_on_c, 0, 60, 49
2, 30748, Control_c, 0, 64, 14
2, 30824, Control_c, 0, 64, 13
2, 30957, Control_c, 0, 64, 12
2, 30995, Control_c, 0, 64, 11
2, 31055, Note_on_c, 0, 61, 48
2, 31068, Note_on_c, 0, 46, 44
2, 31088, Note_on_c, 0, 60, 0
2, 31131, Control_c, 0, 64, 10
2, 31160, Note_on_c, 0, 43, 0
2, 31173, Control_c, 0, 64, 9
2, 31227, Control_c, 0, 64, 8
2, 31283, Control_c, 0, 64, 0
2, 31343, Control_c, 0, 64, 8
2, 31362, Control_c, 0, 64, 13
2, 31381, Control_c, 0, 64, 19
2, 31399, Control_c, 0, 64, 24
2, 31413, Note_on_c, 0, 65, 51
2, 31422, Control_c, 0, 64, 30
2, 31432, Note_on_c, 0, 61, 0
2, 31440, Control_c, 0, 64, 36
2, 31456, Control_c, 0, 64, 41
2, 31476, Control_c, 0, 64, 44
2, 31535, Control_c, 0, 64, 45
2, 31574, Control_c, 0, 64, 46
2, 31670, Control_c, 0, 64, 47
2, 31687, Control_c, 0, 64, 48
2, 31709, Control_c, 0, 64, 50
2, 31725, Control_c, 0, 64, 53
2, 31734, Note_on_c, 0, 65, 0
2, 31747, Control_c, 0, 64, 55
2, 31747, Note_on_c, 0, 51, 49
2, 31756, Note_on_c, 0, 46, 0
2, 31760, Note_on_c, 0, 55, 38
2, 31765, Control_c, 0, 64, 58
2, 31785, Control_c, 0, 64, 60
2, 31805, Control_c, 0, 64, 61
2, 31821, Control_c, 0, 64, 63
2, 31841, Control_c, 0, 64, 64
2, 31862, Control_c, 0, 64, 65
2, 31879, Control_c, 0, 64, 66
2, 31899, Control_c, 0, 64, 68
2, 31918, Control_c, 0, 64, 72
2, 31936, Control_c, 0, 64, 76
2, 31957, Control_c, 0, 64, 80
2, 31976, Control_c, 0, 64, 83
2, 31983, Note_on_c, 0, 55, 0
2, 31997, Control_c, 0, 64, 85
2, 32014, Control_c, 0, 64, 86
2, 32035, Control_c, 0, 64, 87
2, 32048, Note_on_c, 0, 51, 0
2, 32111, Note_on_c, 0, 65, 48
2, 32378, Control_c, 0, 64, 82
2, 32400, Control_c, 0, 64, 70
2, 32418, Control_c, 0, 64, 60
2, 32435, Control_c, 0, 64, 45
2, 32456, Note_on_c, 0, 39, 42
2, 32460, Control_c, 0, 64, 33
2, 32479, Note_on_c, 0, 63, 47
2, 32486, Note_on_c, 0, 65, 0
2, 32495, Control_c, 0, 64, 37
2, 32515, Control_c, 0, 64, 46
2, 32532, Control_c, 0, 64, 54
2, 32552, Control_c, 0, 64, 60
2, 32571, Control_c, 0, 64, 63
2, 32589, Control_c, 0, 64, 65
2, 32609, Control_c, 0, 64, 68
2, 32627, Control_c, 0, 64, 77
2, 32632, Note_on_c, 0, 39, 0
2, 32649, Control_c, 0, 64, 95
2, 32666, Control_c, 0, 64, 120
2, 32686, Control_c, 0, 64, 127
2, 32811, Note_on_c, 0, 63, 0
2, 32851, Note_on_c, 0, 61, 47
2, 33148, Note_on_c, 0, 61, 0
2, 33185, Control_c, 0, 64, 111
2, 33205, Control_c, 0, 64, 86
2, 33214, Note_on_c, 0, 44, 42
2, 33223, Note_on_c, 0, 60, 47
2, 33227, Control_c, 0, 64, 72
2, 33246, Control_c, 0, 64, 64
2, 33262, Control_c, 0, 64, 58
2, 33282, Control_c, 0, 64, 54
2, 33301, Control_c, 0, 64, 50
2, 33319, Control_c, 0, 64, 46
2, 33341, Control_c, 0, 64, 43
2, 33360, Control_c, 0, 64, 41
2, 33395, Control_c, 0, 64, 40
2, 33435, Control_c, 0, 64, 39
2, 33455, Control_c, 0, 64, 38
2, 33473, Control_c, 0, 64, 37
2, 33490, Note_on_c, 0, 70, 0
2, 33552, Note_on_c, 0, 48, 42
2, 33580, Note_on_c, 0, 68, 47
2, 33588, Control_c, 0, 64, 36
2, 33820, Control_c, 0, 64, 35
2, 33914, Note_on_c, 0, 48, 0
2, 33949, Note_on_c, 0, 51, 48
2, 33955, Note_on_c, 0, 72, 53
2, 34026, Note_on_c, 0, 68, 0
2, 34106, Control_c, 0, 64, 36
2, 34128, Control_c, 0, 64, 37
2, 34148, Control_c, 0, 64, 40
2, 34167, Control_c, 0, 64, 46
2, 34186, Control_c, 0, 64, 52
2, 34204, Control_c, 0, 64, 57
2, 34222, Control_c, 0, 64, 59
2, 34242, Control_c, 0, 64, 61
2, 34262, Note_on_c, 0, 51, 0
2, 34267, Control_c, 0, 64, 64
2, 34267, Note_on_c, 0, 60, 0
2, 34280, Control_c, 0, 64, 68
2, 34299, Control_c, 0, 64, 76
2, 34309, Note_on_c, 0, 56, 47
2, 34318, Control_c, 0, 64, 83
2, 34338, Control_c, 0, 64, 89
2, 34357, Control_c, 0, 64, 92
2, 34375, Control_c, 0, 64, 95
2, 34395, Control_c, 0, 64, 99
2, 34413, Control_c, 0, 64, 104
2, 34432, Control_c, 0, 64, 109
2, 34455, Control_c, 0, 64, 110
2, 34489, Control_c, 0, 64, 111
2, 34510, Control_c, 0, 64, 113
2, 34532, Control_c, 0, 64, 116
2, 34549, Control_c, 0, 64, 122
2, 34567, Control_c, 0, 64, 127
2, 34626, Control_c, 0, 64, 110
2, 34646, Control_c, 0, 64, 93
2, 34656, Note_on_c, 0, 56, 0
2, 34667, Control_c, 0, 64, 76
2, 34667, Note_on_c, 0, 46, 60
2, 34674, Note_on_c, 0, 44, 0
2, 34686, Control_c, 0, 64, 66
2, 34686, Note_on_c, 0, 61, 50
2, 34703, Control_c, 0, 64, 60
2, 34721, Control_c, 0, 64, 55
2, 34741, Control_c, 0, 64, 52
2, 34763, Control_c, 0, 64, 49
2, 34778, Control_c, 0, 64, 46
2, 34797, Control_c, 0, 64, 44
2, 34817, Control_c, 0, 64, 43
2, 34837, Control_c, 0, 64, 42
2, 34855, Control_c, 0, 64, 41
2, 34875, Control_c, 0, 64, 39
2, 34897, Control_c, 0, 64, 38
2, 34913, Control_c, 0, 64, 37
2, 34980, Note_on_c, 0, 72, 0
2, 34990, Control_c, 0, 64, 36
2, 35012, Note_on_c, 0, 70, 57
2, 35021, Note_on_c, 0, 56, 52
2, 35087, Control_c, 0, 64, 35
2, 35316, Control_c, 0, 64, 34
2, 35349, Note_on_c, 0, 56, 0
2, 35371, Note_on_c, 0, 55, 52
2, 35380, Note_on_c, 0, 73, 61
2, 35417, Note_on_c, 0, 70, 0
2, 35508, Control_c, 0, 64, 33
2, 35605, Control_c, 0, 64, 37
2, 35625, Control_c, 0, 64, 44
2, 35625, Note_on_c, 0, 61, 0
2, 35644, Control_c, 0, 64, 53
2, 35662, Control_c, 0, 64, 59
2, 35681, Control_c, 0, 64, 63
2, 35703, Control_c, 0, 64, 65
2, 35703, Note_on_c, 0, 46, 0
2, 35717, Note_on_c, 0, 55, 0
2, 35721, Control_c, 0, 64, 67
2, 35726, Note_on_c, 0, 58, 54
2, 35739, Control_c, 0, 64, 75
2, 35758, Control_c, 0, 64, 89
2, 35777, Control_c, 0, 64, 127
2, 36035, Note_on_c, 0, 58, 0
2, 36085, Note_on_c, 0, 63, 61
2, 36089, Control_c, 0, 64, 104
2, 36089, Note_on_c, 0, 48, 60
2, 36103, Control_c, 0, 64, 77
2, 36123, Control_c, 0, 64, 64
2, 36143, Control_c, 0, 64, 56
2, 36161, Control_c, 0, 64, 50
2, 36183, Control_c, 0, 64, 46
2, 36202, Control_c, 0, 64, 43
2, 36220, Control_c, 0, 64, 40
2, 36238, Control_c, 0, 64, 37
2, 36257, Control_c, 0, 64, 35
2, 36297, Control_c, 0, 64, 34
2, 36315, Control_c, 0, 64, 33
2, 36335, Control_c, 0, 64, 31
2, 36354, Control_c, 0, 64, 30
2, 36418, Note_on_c, 0, 73, 0
2, 36439, Note_on_c, 0, 72, 65
2, 36445, Note_on_c, 0, 51, 56
2, 36507, Control_c, 0, 64, 29
2, 36525, Control_c, 0, 64, 28
2, 36547, Control_c, 0, 64, 27
2, 36641, Control_c, 0, 64, 25
2, 36660, Control_c, 0, 64, 23
2, 36678, Control_c, 0, 64, 22
2, 36701, Control_c, 0, 64, 20
2, 36717, Control_c, 0, 64, 18
2, 36739, Control_c, 0, 64, 16
2, 36756, Control_c, 0, 64, 11
2, 36776, Control_c, 0, 64, 8
2, 36806, Note_on_c, 0, 56, 56
2, 36815, Note_on_c, 0, 51, 0
2, 36833, Control_c, 0, 64, 0
2, 36833, Note_on_c, 0, 75, 69
2, 36899, Note_on_c, 0, 72, 0
2, 36988, Control_c, 0, 64, 13
2, 37006, Control_c, 0, 64, 28
2, 37026, Control_c, 0, 64, 42
2, 37044, Control_c, 0, 64, 53
2, 37064, Control_c, 0, 64, 61
2, 37083, Control_c, 0, 64, 64
2, 37102, Control_c, 0, 64, 66
2, 37121, Control_c, 0, 64, 71
2, 37141, Control_c, 0, 64, 79
2, 37141, Note_on_c, 0, 56, 0
2, 37162, Control_c, 0, 64, 91
2, 37166, Note_on_c, 0, 60, 60
2, 37166, Note_on_c, 0, 63, 0
2, 37179, Control_c, 0, 64, 109
2, 37202, Control_c, 0, 64, 127
2, 37241, Note_on_c, 0, 60, 0
2, 37505, Control_c, 0, 64, 97
2, 37527, Control_c, 0, 64, 76
2, 37530, Note_on_c, 0, 49, 65
2, 37530, Note_on_c, 0, 65, 65
2, 37538, Note_on_c, 0, 48, 0
2, 37545, Control_c, 0, 64, 65
2, 37563, Control_c, 0, 64, 59
2, 37583, Control_c, 0, 64, 56
2, 37602, Control_c, 0, 64, 53
2, 37620, Control_c, 0, 64, 50
2, 37642, Control_c, 0, 64, 48
2, 37659, Control_c, 0, 64, 47
2, 37679, Control_c, 0, 64, 46
2, 37754, Control_c, 0, 64, 45
2, 37775, Control_c, 0, 64, 44
2, 37890, Note_on_c, 0, 75, 0
2, 37895, Note_on_c, 0, 73, 74
2, 37904, Note_on_c, 0, 60, 61
2, 38119, Control_c, 0, 64, 43
2, 38273, Note_on_c, 0, 58, 64
2, 38277, Note_on_c, 0, 77, 79
2, 38281, Note_on_c, 0, 60, 0
2, 38312, Control_c, 0, 64, 42
2, 38426, Control_c, 0, 64, 43
2, 38445, Control_c, 0, 64, 45
2, 38468, Control_c, 0, 64, 47
2, 38485, Control_c, 0, 64, 52
2, 38503, Control_c, 0, 64, 57
2, 38524, Control_c, 0, 64, 61
2, 38544, Control_c, 0, 64, 63
2, 38560, Control_c, 0, 64, 67
2, 38580, Control_c, 0, 64, 72
2, 38602, Control_c, 0, 64, 84
2, 38602, Note_on_c, 0, 49, 0
2, 38606, Note_on_c, 0, 65, 0
2, 38621, Control_c, 0, 64, 106
2, 38627, Note_on_c, 0, 61, 59
2, 38641, Control_c, 0, 64, 127
2, 38658, Note_on_c, 0, 58, 0
2, 38811, Note_on_c, 0, 73, 0
2, 39003, Control_c, 0, 64, 94
2, 39014, Note_on_c, 0, 51, 75
2, 39019, Note_on_c, 0, 67, 62
2, 39022, Control_c, 0, 64, 74
2, 39043, Control_c, 0, 64, 65
2, 39054, Note_on_c, 0, 61, 0
2, 39062, Control_c, 0, 64, 60
2, 39082, Control_c, 0, 64, 57
2, 39098, Control_c, 0, 64, 54
2, 39119, Control_c, 0, 64, 50
2, 39137, Control_c, 0, 64, 47
2, 39155, Control_c, 0, 64, 45
2, 39233, Control_c, 0, 64, 44
2, 39252, Control_c, 0, 64, 43
2, 39290, Control_c, 0, 64, 42
2, 39394, Note_on_c, 0, 75, 69
2, 39403, Note_on_c, 0, 55, 63
2, 39709, Note_on_c, 0, 77, 0
2, 39733, Control_c, 0, 64, 43
2, 39742, Note_on_c, 0, 73, 74
2, 39746, Note_on_c, 0, 58, 73
2, 39750, Control_c, 0, 64, 45
2, 39771, Control_c, 0, 64, 46
2, 39789, Control_c, 0, 64, 47
2, 39812, Control_c, 0, 64, 48
2, 39812, Note_on_c, 0, 75, 0
2, 39831, Control_c, 0, 64, 51
2, 39847, Control_c, 0, 64, 54
2, 39926, Control_c, 0, 64, 55
2, 39942, Control_c, 0, 64, 58
2, 39963, Control_c, 0, 64, 59
2, 39983, Control_c, 0, 64, 60
2, 40001, Control_c, 0, 64, 61
2, 40019, Control_c, 0, 64, 63
2, 40040, Control_c, 0, 64, 65
2, 40060, Control_c, 0, 64, 68
2, 40079, Control_c, 0, 64, 73
2, 40083, Note_on_c, 0, 51, 0
2, 40083, Note_on_c, 0, 55, 0
2, 40090, Note_on_c, 0, 72, 77
2, 40099, Control_c, 0, 64, 79
2, 40104, Note_on_c, 0, 63, 71
2, 40119, Control_c, 0, 64, 86
2, 40119, Note_on_c, 0, 73, 0
2, 40135, Control_c, 0, 64, 92
2, 40149, Note_on_c, 0, 58, 0
2, 40156, Control_c, 0, 64, 97
2, 40173, Control_c, 0, 64, 101
2, 40192, Control_c, 0, 64, 105
2, 40214, Control_c, 0, 64, 111
2, 40232, Control_c, 0, 64, 118
2, 40252, Control_c, 0, 64, 127
2, 40445, Control_c, 0, 64, 110
2, 40463, Control_c, 0, 64, 84
2, 40463, Note_on_c, 0, 53, 79
2, 40482, Control_c, 0, 64, 70
2, 40482, Note_on_c, 0, 70, 74
2, 40493, Note_on_c, 0, 63, 0
2, 40502, Control_c, 0, 64, 62
2, 40506, Note_on_c, 0, 72, 0
2, 40511, Note_on_c, 0, 67, 0
2, 40519, Control_c, 0, 64, 58
2, 40539, Control_c, 0, 64, 56
2, 40558, Control_c, 0, 64, 53
2, 40579, Control_c, 0, 64, 49
2, 40597, Control_c, 0, 64, 46
2, 40614, Control_c, 0, 64, 44
2, 40634, Control_c, 0, 64, 43
2, 40693, Control_c, 0, 64, 42
2, 40816, Note_on_c, 0, 67, 72
2, 40820, Note_on_c, 0, 63, 71
2, 40837, Note_on_c, 0, 70, 0
2, 41054, Control_c, 0, 64, 41
2, 41091, Control_c, 0, 64, 40
2, 41151, Control_c, 0, 64, 39
2, 41171, Control_c, 0, 64, 38
2, 41171, Note_on_c, 0, 61, 66
2, 41175, Note_on_c, 0, 68, 76
2, 41180, Note_on_c, 0, 63, 0
2, 41189, Control_c, 0, 64, 37
2, 41210, Control_c, 0, 64, 36
2, 41228, Control_c, 0, 64, 35
2, 41246, Control_c, 0, 64, 34
2, 41266, Control_c, 0, 64, 32
2, 41288, Control_c, 0, 64, 25
2, 41303, Control_c, 0, 64, 0
2, 41514, Control_c, 0, 64, 42
2, 41535, Control_c, 0, 64, 59
2, 41535, Note_on_c, 0, 53, 0
2, 41547, Note_on_c, 0, 73, 76
2, 41554, Control_c, 0, 64, 68
2, 41554, Note_on_c, 0, 65, 67
2, 41573, Control_c, 0, 64, 79
2, 41578, Note_on_c, 0, 68, 0
2, 41583, Note_on_c, 0, 61, 0
2, 41594, Control_c, 0, 64, 127
2, 41675, Note_on_c, 0, 73, 0
2, 41914, Note_on_c, 0, 55, 79
2, 41946, Note_on_c, 0, 67, 0
2, 41949, Note_on_c, 0, 65, 0
2, 41962, Control_c, 0, 64, 99
2, 41962, Note_on_c, 0, 72, 73
2, 41979, Control_c, 0, 64, 75
2, 41995, Control_c, 0, 64, 63
2, 42014, Control_c, 0, 64, 56
2, 42034, Control_c, 0, 64, 53
2, 42054, Control_c, 0, 64, 50
2, 42058, Note_on_c, 0, 70, 77
2, 42058, Note_on_c, 0, 72, 0
2, 42071, Control_c, 0, 64, 46
2, 42091, Control_c, 0, 64, 41
2, 42113, Control_c, 0, 64, 36
2, 42129, Control_c, 0, 64, 34
2, 42141, Note_on_c, 0, 70, 0
2, 42145, Note_on_c, 0, 72, 76
2, 42169, Control_c, 0, 64, 33
2, 42187, Control_c, 0, 64, 31
2, 42205, Control_c, 0, 64, 28
2, 42224, Note_on_c, 0, 70, 79
2, 42241, Note_on_c, 0, 72, 0
2, 42283, Note_on_c, 0, 65, 74
2, 42613, Note_on_c, 0, 63, 78
2, 42626, Note_on_c, 0, 65, 0
2, 42650, Control_c, 0, 64, 29
2, 42666, Control_c, 0, 64, 30
2, 42725, Control_c, 0, 64, 27
2, 42743, Control_c, 0, 64, 12
2, 42763, Control_c, 0, 64, 0
2, 42919, Control_c, 0, 64, 41
2, 42937, Control_c, 0, 64, 60
2, 42954, Control_c, 0, 64, 71
2, 42961, Note_on_c, 0, 61, 75
2, 42977, Control_c, 0, 64, 98
2, 42994, Control_c, 0, 64, 127
2, 43011, Note_on_c, 0, 63, 0
2, 43039, Note_on_c, 0, 61, 0
2, 43060, Note_on_c, 0, 55, 0
2, 43368, Note_on_c, 0, 56, 82
2, 43372, Note_on_c, 0, 60, 76
2, 43381, Control_c, 0, 64, 94
2, 43398, Control_c, 0, 64, 72
2, 43416, Control_c, 0, 64, 62
2, 43436, Control_c, 0, 64, 55
2, 43454, Control_c, 0, 64, 52
2, 43474, Control_c, 0, 64, 48
2, 43494, Control_c, 0, 64, 43
2, 43511, Control_c, 0, 64, 36
2, 43530, Control_c, 0, 64, 28
2, 43552, Control_c, 0, 64, 24
2, 43570, Control_c, 0, 64, 23
2, 43590, Control_c, 0, 64, 21
2, 43608, Control_c, 0, 64, 18
2, 43628, Control_c, 0, 64, 17
2, 43646, Control_c, 0, 64, 15
2, 43663, Control_c, 0, 64, 14
2, 43748, Note_on_c, 0, 63, 74
2, 43831, Note_on_c, 0, 70, 0
2, 43994, Control_c, 0, 64, 13
2, 44013, Control_c, 0, 64, 11
2, 44101, Note_on_c, 0, 55, 72
2, 44115, Note_on_c, 0, 65, 72
2, 44124, Note_on_c, 0, 63, 0
2, 44161, Note_on_c, 0, 56, 0
2, 44470, Note_on_c, 0, 67, 79
2, 44510, Control_c, 0, 64, 10
2, 44533, Control_c, 0, 64, 9
2, 44533, Note_on_c, 0, 65, 0
2, 44547, Control_c, 0, 64, 8
2, 44702, Control_c, 0, 64, 0
2, 44848, Note_on_c, 0, 53, 65
2, 44848, Note_on_c, 0, 68, 79
2, 44882, Note_on_c, 0, 55, 0
2, 44882, Note_on_c, 0, 67, 0
2, 45192, Note_on_c, 0, 67, 70
2, 45212, Note_on_c, 0, 68, 0
2, 45560, Note_on_c, 0, 49, 53
2, 45587, Note_on_c, 0, 53, 0
2, 45587, Note_on_c, 0, 68, 69
2, 45620, Note_on_c, 0, 67, 0
2, 45663, Control_c, 0, 64, 9
2, 45681, Control_c, 0, 64, 15
2, 45700, Control_c, 0, 64, 20
2, 45719, Control_c, 0, 64, 29
2, 45741, Control_c, 0, 64, 39
2, 45757, Control_c, 0, 64, 51
2, 45777, Control_c, 0, 64, 59
2, 45797, Control_c, 0, 64, 63
2, 45814, Control_c, 0, 64, 66
2, 45836, Control_c, 0, 64, 71
2, 45852, Control_c, 0, 64, 85
2, 45877, Control_c, 0, 64, 127
2, 45905, Note_on_c, 0, 49, 0
2, 45964, Note_on_c, 0, 77, 72
2, 46018, Note_on_c, 0, 68, 0
2, 46040, Note_on_c, 0, 60, 0
2, 46313, Note_on_c, 0, 51, 49
2, 46332, Note_on_c, 0, 60, 52
2, 46354, Control_c, 0, 64, 92
2, 46373, Control_c, 0, 64, 75
2, 46393, Control_c, 0, 64, 65
2, 46413, Control_c, 0, 64, 58
2, 46413, Note_on_c, 0, 75, 61
2, 46429, Control_c, 0, 64, 53
2, 46449, Control_c, 0, 64, 50
2, 46464, Note_on_c, 0, 60, 0
2, 46469, Control_c, 0, 64, 46
2, 46487, Control_c, 0, 64, 42
2, 46508, Control_c, 0, 64, 38
2, 46513, Note_on_c, 0, 58, 54
2, 46522, Note_on_c, 0, 77, 0
2, 46526, Control_c, 0, 64, 34
2, 46545, Control_c, 0, 64, 29
2, 46563, Control_c, 0, 64, 26
2, 46584, Control_c, 0, 64, 25
2, 46604, Control_c, 0, 64, 22
2, 46604, Note_on_c, 0, 58, 0
2, 46623, Control_c, 0, 64, 19
2, 46627, Note_on_c, 0, 60, 56
2, 46644, Control_c, 0, 64, 16
2, 46661, Control_c, 0, 64, 15
2, 46679, Control_c, 0, 64, 13
2, 46693, Note_on_c, 0, 60, 0
2, 46729, Note_on_c, 0, 58, 48
2, 46758, Control_c, 0, 64, 12
2, 46778, Control_c, 0, 64, 11
2, 46796, Control_c, 0, 64, 8
2, 46814, Control_c, 0, 64, 0
2, 46825, Note_on_c, 0, 68, 60
2, 46929, Control_c, 0, 64, 9
2, 46949, Control_c, 0, 64, 18
2, 46968, Control_c, 0, 64, 26
2, 46986, Control_c, 0, 64, 35
2, 47004, Control_c, 0, 64, 44
2, 47024, Control_c, 0, 64, 53
2, 47047, Control_c, 0, 64, 60
2, 47066, Control_c, 0, 64, 63
2, 47081, Control_c, 0, 64, 66
2, 47102, Control_c, 0, 64, 72
2, 47122, Control_c, 0, 64, 84
2, 47140, Control_c, 0, 64, 104
2, 47147, Note_on_c, 0, 68, 0
2, 47150, Note_on_c, 0, 58, 0
2, 47159, Control_c, 0, 64, 127
2, 47170, Note_on_c, 0, 67, 53
2, 47223, Note_on_c, 0, 51, 0
2, 47516, Note_on_c, 0, 73, 62
2, 47867, Note_on_c, 0, 75, 0
2, 47874, Control_c, 0, 64, 120
2, 47889, Note_on_c, 0, 67, 0
2, 47894, Control_c, 0, 64, 82
2, 47903, Note_on_c, 0, 72, 55
2, 47912, Control_c, 0, 64, 66
2, 47912, Note_on_c, 0, 44, 45
2, 47928, Control_c, 0, 64, 54
2, 47943, Note_on_c, 0, 56, 35
2, 47948, Control_c, 0, 64, 44
2, 47965, Control_c, 0, 64, 36
2, 47984, Note_on_c, 0, 73, 0
2, 47987, Control_c, 0, 64, 25
2, 48005, Control_c, 0, 64, 0
2, 48256, Note_on_c, 0, 72, 0
2, 48276, Note_on_c, 0, 68, 57
2, 48369, Control_c, 0, 64, 15
2, 48386, Control_c, 0, 64, 24
2, 48407, Control_c, 0, 64, 30
2, 48427, Control_c, 0, 64, 35
2, 48445, Control_c, 0, 64, 41
2, 48465, Control_c, 0, 64, 47
2, 48488, Control_c, 0, 64, 54
2, 48503, Control_c, 0, 64, 57
2, 48522, Control_c, 0, 64, 59
2, 48561, Control_c, 0, 64, 60
2, 48582, Control_c, 0, 64, 61
2, 48600, Control_c, 0, 64, 62
2, 48617, Note_on_c, 0, 68, 0
2, 48617, Note_on_c, 0, 72, 63
2, 48621, Control_c, 0, 64, 63
2, 48639, Control_c, 0, 64, 64
2, 48695, Control_c, 0, 64, 65
2, 48752, Control_c, 0, 64, 64
2, 48909, Note_on_c, 0, 44, 0
2, 48967, Note_on_c, 0, 76, 69
2, 49044, Note_on_c, 0, 72, 0
2, 49099, Note_on_c, 0, 56, 0
2, 49118, Control_c, 0, 64, 65
2, 49194, Control_c, 0, 64, 66
2, 49232, Control_c, 0, 64, 67
2, 49255, Control_c, 0, 64, 68
2, 49270, Control_c, 0, 64, 71
2, 49290, Control_c, 0, 64, 74
2, 49309, Control_c, 0, 64, 79
2, 49314, Note_on_c, 0, 77, 66
2, 49329, Control_c, 0, 64, 85
2, 49351, Control_c, 0, 64, 90
2, 49368, Control_c, 0, 64, 93
2, 49385, Note_on_c, 0, 76, 0
2, 49389, Control_c, 0, 64, 95
2, 49405, Control_c, 0, 64, 97
2, 49503, Control_c, 0, 64, 98
2, 49578, Control_c, 0, 64, 97
2, 49618, Control_c, 0, 64, 95
2, 49635, Control_c, 0, 64, 94
2, 49655, Control_c, 0, 64, 92
2, 49660, Note_on_c, 0, 79, 66
2, 49677, Control_c, 0, 64, 91
2, 49677, Note_on_c, 0, 56, 49
2, 49694, Control_c, 0, 64, 90
2, 49700, Note_on_c, 0, 77, 0
2, 49711, Control_c, 0, 64, 88
2, 49733, Control_c, 0, 64, 86
2, 49753, Control_c, 0, 64, 85
2, 49772, Control_c, 0, 64, 84
2, 49790, Control_c, 0, 64, 82
2, 49810, Control_c, 0, 64, 81
2, 49851, Control_c, 0, 64, 80
2, 49867, Control_c, 0, 64, 79
2, 49903, Control_c, 0, 64, 78
2, 49923, Control_c, 0, 64, 77
2, 49943, Control_c, 0, 64, 76
2, 49962, Control_c, 0, 64, 75
2, 49981, Control_c, 0, 64, 74
2, 50001, Control_c, 0, 64, 73
2, 50011, Note_on_c, 0, 56, 0
2, 50022, Control_c, 0, 64, 72
2, 50026, Note_on_c, 0, 76, 62
2, 50034, Note_on_c, 0, 55, 46
2, 50039, Note_on_c, 0, 79, 0
2, 50041, Control_c, 0, 64, 71
2, 50059, Control_c, 0, 64, 70
2, 50077, Control_c, 0, 64, 69
2, 50097, Control_c, 0, 64, 68
2, 50116, Control_c, 0, 64, 67
2, 50153, Control_c, 0, 64, 66
2, 50173, Control_c, 0, 64, 65
2, 50251, Control_c, 0, 64, 64
2, 50308, Control_c, 0, 64, 63
2, 50345, Control_c, 0, 64, 62
2, 50387, Note_on_c, 0, 55, 0
2, 50391, Control_c, 0, 64, 61
2, 50391, Note_on_c, 0, 77, 62
2, 50402, Note_on_c, 0, 53, 45
2, 50406, Control_c, 0, 64, 60
2, 50422, Control_c, 0, 64, 59
2, 50428, Note_on_c, 0, 76, 0
2, 50443, Control_c, 0, 64, 58
2, 50481, Control_c, 0, 64, 57
2, 50498, Control_c, 0, 64, 55
2, 50518, Control_c, 0, 64, 54
2, 50539, Control_c, 0, 64, 53
2, 50575, Control_c, 0, 64, 52
2, 50595, Control_c, 0, 64, 50
2, 50614, Control_c, 0, 64, 49
2, 50667, Note_on_c, 0, 53, 0
2, 50674, Control_c, 0, 64, 48
2, 50704, Note_on_c, 0, 52, 39
2, 50711, Control_c, 0, 64, 47
2, 50804, Note_on_c, 0, 79, 56
2, 50809, Control_c, 0, 64, 46
2, 50857, Note_on_c, 0, 77, 0
2, 51116, Control_c, 0, 64, 47
2, 51123, Note_on_c, 0, 55, 45
2, 51154, Control_c, 0, 64, 48
2, 51174, Control_c, 0, 64, 49
2, 51212, Control_c, 0, 64, 50
2, 51248, Control_c, 0, 64, 51
2, 51287, Control_c, 0, 64, 52
2, 51305, Control_c, 0, 64, 53
2, 51325, Control_c, 0, 64, 54
2, 51345, Control_c, 0, 64, 56
2, 51367, Control_c, 0, 64, 58
2, 51382, Control_c, 0, 64, 59
2, 51402, Control_c, 0, 64, 60
2, 51423, Control_c, 0, 64, 61
2, 51441, Control_c, 0, 64, 62
2, 51457, Note_on_c, 0, 55, 0
2, 51461, Control_c, 0, 64, 63
2, 51481, Note_on_c, 0, 58, 50
2, 51500, Control_c, 0, 64, 64
2, 51537, Control_c, 0, 64, 65
2, 51557, Control_c, 0, 64, 66
2, 51575, Control_c, 0, 64, 68
2, 51595, Control_c, 0, 64, 70
2, 51614, Control_c, 0, 64, 73
2, 51633, Control_c, 0, 64, 79
2, 51653, Control_c, 0, 64, 91
2, 51673, Control_c, 0, 64, 127
2, 51797, Note_on_c, 0, 58, 0
2, 51833, Note_on_c, 0, 61, 50
2, 51846, Note_on_c, 0, 52, 0
2, 51966, Note_on_c, 0, 61, 0
2, 52195, Note_on_c, 0, 48, 46
2, 52246, Control_c, 0, 64, 88
2, 52265, Control_c, 0, 64, 71
2, 52285, Control_c, 0, 64, 62
2, 52304, Control_c, 0, 64, 57
2, 52323, Control_c, 0, 64, 53
2, 52343, Control_c, 0, 64, 50
2, 52364, Control_c, 0, 64, 48
2, 52382, Control_c, 0, 64, 45
2, 52401, Control_c, 0, 64, 43
2, 52423, Control_c, 0, 64, 42
2, 52442, Control_c, 0, 64, 39
2, 52460, Control_c, 0, 64, 36
2, 52478, Control_c, 0, 64, 33
2, 52498, Control_c, 0, 64, 31
2, 52520, Control_c, 0, 64, 30
2, 52537, Note_on_c, 0, 53, 53
2, 52575, Control_c, 0, 64, 29
2, 52688, Control_c, 0, 64, 28
2, 52925, Note_on_c, 0, 52, 57
2, 52945, Note_on_c, 0, 53, 0
2, 52978, Control_c, 0, 64, 29
2, 53259, Note_on_c, 0, 52, 0
2, 53276, Note_on_c, 0, 55, 62
2, 53628, Note_on_c, 0, 55, 0
2, 53642, Note_on_c, 0, 56, 51
2, 53656, Note_on_c, 0, 53, 50
2, 53749, Note_on_c, 0, 48, 0
2, 53996, Note_on_c, 0, 72, 54
2, 54016, Control_c, 0, 64, 30
2, 54075, Note_on_c, 0, 79, 0
2, 54303, Control_c, 0, 64, 31
2, 54348, Note_on_c, 0, 77, 59
2, 54454, Control_c, 0, 64, 32
2, 54629, Control_c, 0, 64, 33
2, 54648, Control_c, 0, 64, 35
2, 54666, Control_c, 0, 64, 40
2, 54685, Control_c, 0, 64, 44
2, 54707, Control_c, 0, 64, 50
2, 54709, Note_on_c, 0, 80, 62
2, 54725, Control_c, 0, 64, 55
2, 54744, Control_c, 0, 64, 59
2, 54762, Control_c, 0, 64, 61
2, 54782, Control_c, 0, 64, 64
2, 54800, Control_c, 0, 64, 67
2, 54820, Control_c, 0, 64, 75
2, 54825, Note_on_c, 0, 77, 0
2, 54840, Control_c, 0, 64, 86
2, 54860, Control_c, 0, 64, 103
2, 54880, Control_c, 0, 64, 127
2, 55048, Note_on_c, 0, 53, 0
2, 55059, Note_on_c, 0, 74, 63
2, 55073, Note_on_c, 0, 80, 0
2, 55202, Note_on_c, 0, 72, 0
2, 55388, Note_on_c, 0, 77, 67
2, 55401, Note_on_c, 0, 53, 47
2, 55438, Note_on_c, 0, 74, 0
2, 55532, Control_c, 0, 64, 120
2, 55549, Control_c, 0, 64, 111
2, 55571, Control_c, 0, 64, 105
2, 55587, Control_c, 0, 64, 100
2, 55607, Control_c, 0, 64, 96
2, 55627, Control_c, 0, 64, 89
2, 55647, Control_c, 0, 64, 81
2, 55664, Control_c, 0, 64, 73
2, 55687, Control_c, 0, 64, 68
2, 55704, Control_c, 0, 64, 64
2, 55723, Control_c, 0, 64, 61
2, 55742, Control_c, 0, 64, 56
2, 55763, Note_on_c, 0, 71, 62
2, 55764, Control_c, 0, 64, 50
2, 55768, Note_on_c, 0, 51, 48
2, 55768, Note_on_c, 0, 53, 0
2, 55779, Control_c, 0, 64, 41
2, 55801, Control_c, 0, 64, 32
2, 55805, Note_on_c, 0, 77, 0
2, 55822, Control_c, 0, 64, 24
2, 55837, Control_c, 0, 64, 9
2, 55855, Control_c, 0, 64, 0
2, 56070, Control_c, 0, 64, 38
2, 56088, Control_c, 0, 64, 55
2, 56104, Note_on_c, 0, 50, 41
2, 56108, Control_c, 0, 64, 63
2, 56117, Note_on_c, 0, 72, 61
2, 56128, Control_c, 0, 64, 68
2, 56132, Note_on_c, 0, 71, 0
2, 56146, Control_c, 0, 64, 75
2, 56158, Note_on_c, 0, 56, 0
2, 56165, Control_c, 0, 64, 86
2, 56169, Note_on_c, 0, 50, 0
2, 56180, Note_on_c, 0, 51, 0
2, 56185, Control_c, 0, 64, 127
2, 56348, Note_on_c, 0, 72, 0
2, 56512, Control_c, 0, 64, 91
2, 56512, Note_on_c, 0, 55, 49
2, 56531, Control_c, 0, 64, 71
2, 56531, Note_on_c, 0, 71, 59
2, 56550, Control_c, 0, 64, 61
2, 56567, Control_c, 0, 64, 54
2, 56581, Note_on_c, 0, 71, 0
2, 56590, Control_c, 0, 64, 49
2, 56606, Control_c, 0, 64, 44
2, 56611, Note_on_c, 0, 72, 62
2, 56624, Control_c, 0, 64, 38
2, 56643, Control_c, 0, 64, 31
2, 56663, Control_c, 0, 64, 25
2, 56682, Control_c, 0, 64, 22
2, 56691, Note_on_c, 0, 72, 0
2, 56704, Note_on_c, 0, 71, 64
2, 56722, Control_c, 0, 64, 20
2, 56739, Control_c, 0, 64, 16
2, 56761, Control_c, 0, 64, 13
2, 56779, Control_c, 0, 64, 11
2, 56841, Note_on_c, 0, 59, 59
2, 56934, Control_c, 0, 64, 8
2, 56952, Control_c, 0, 64, 0
2, 57209, Note_on_c, 0, 62, 59
2, 57220, Note_on_c, 0, 59, 0
2, 57471, Control_c, 0, 64, 34
2, 57489, Control_c, 0, 64, 49
2, 57509, Control_c, 0, 64, 59
2, 57525, Note_on_c, 0, 62, 0
2, 57529, Control_c, 0, 64, 63
2, 57538, Note_on_c, 0, 67, 51
2, 57548, Control_c, 0, 64, 66
2, 57548, Note_on_c, 0, 72, 61
2, 57553, Note_on_c, 0, 71, 0
2, 57564, Control_c, 0, 64, 71
2, 57586, Control_c, 0, 64, 79
2, 57605, Control_c, 0, 64, 92
2, 57623, Control_c, 0, 64, 113
2, 57644, Control_c, 0, 64, 127
2, 57696, Note_on_c, 0, 67, 0
2, 57810, Note_on_c, 0, 55, 0
2, 57833, Note_on_c, 0, 56, 56
2, 57899, Note_on_c, 0, 72, 0
2, 57930, Note_on_c, 0, 74, 59
2, 57984, Note_on_c, 0, 74, 0
2, 57988, Control_c, 0, 64, 113
2, 58008, Control_c, 0, 64, 86
2, 58008, Note_on_c, 0, 72, 67
2, 58026, Control_c, 0, 64, 71
2, 58049, Control_c, 0, 64, 63
2, 58064, Control_c, 0, 64, 56
2, 58073, Note_on_c, 0, 72, 0
2, 58085, Control_c, 0, 64, 51
2, 58090, Note_on_c, 0, 74, 62
2, 58104, Control_c, 0, 64, 46
2, 58124, Control_c, 0, 64, 42
2, 58142, Control_c, 0, 64, 39
2, 58149, Note_on_c, 0, 72, 67
2, 58162, Control_c, 0, 64, 36
2, 58175, Note_on_c, 0, 74, 0
2, 58180, Control_c, 0, 64, 34
2, 58202, Control_c, 0, 64, 33
2, 58218, Control_c, 0, 64, 31
2, 58239, Control_c, 0, 64, 30
2, 58254, Note_on_c, 0, 67, 60
2, 58259, Control_c, 0, 64, 29
2, 58296, Control_c, 0, 64, 28
2, 58333, Control_c, 0, 64, 27
2, 58355, Control_c, 0, 64, 25
2, 58371, Control_c, 0, 64, 24
2, 58411, Control_c, 0, 64, 23
2, 58431, Control_c, 0, 64, 21
2, 58448, Control_c, 0, 64, 20
2, 58470, Control_c, 0, 64, 18
2, 58507, Control_c, 0, 64, 17
2, 58529, Control_c, 0, 64, 15
2, 58548, Control_c, 0, 64, 12
2, 58564, Control_c, 0, 64, 11
2, 58583, Control_c, 0, 64, 10
2, 58595, Note_on_c, 0, 65, 64
2, 58597, Note_on_c, 0, 67, 0
2, 58623, Control_c, 0, 64, 9
2, 58661, Control_c, 0, 64, 8
2, 58812, Control_c, 0, 64, 0
2, 58944, Note_on_c, 0, 65, 0
2, 58949, Note_on_c, 0, 68, 69
2, 58949, Note_on_c, 0, 72, 0
2, 58953, Note_on_c, 0, 71, 67
2, 59140, Note_on_c, 0, 71, 0
2, 59140, Note_on_c, 0, 72, 73
2, 59314, Note_on_c, 0, 72, 0
2, 59339, Note_on_c, 0, 59, 67
2, 59341, Note_on_c, 0, 74, 75
2, 59401, Note_on_c, 0, 68, 0
2, 59497, Note_on_c, 0, 56, 0
2, 59695, Note_on_c, 0, 79, 77
2, 60051, Note_on_c, 0, 77, 72
2, 60062, Note_on_c, 0, 62, 57
2, 60424, Note_on_c, 0, 80, 75
2, 60429, Note_on_c, 0, 74, 0
2, 60559, Control_c, 0, 64, 31
2, 60579, Control_c, 0, 64, 48
2, 60598, Control_c, 0, 64, 59
2, 60617, Control_c, 0, 64, 63
2, 60639, Control_c, 0, 64, 64
2, 60658, Control_c, 0, 64, 65
2, 60667, Note_on_c, 0, 77, 0
2, 60676, Control_c, 0, 64, 67
2, 60696, Control_c, 0, 64, 71
2, 60715, Control_c, 0, 64, 79
2, 60733, Control_c, 0, 64, 88
2, 60755, Control_c, 0, 64, 95
2, 60755, Note_on_c, 0, 79, 0
2, 60767, Note_on_c, 0, 59, 0
2, 60771, Control_c, 0, 64, 100
2, 60793, Control_c, 0, 64, 105
2, 60793, Note_on_c, 0, 71, 57
2, 60809, Note_on_c, 0, 80, 0
2, 60813, Control_c, 0, 64, 109
2, 60829, Note_on_c, 0, 62, 0
2, 60833, Control_c, 0, 64, 113
2, 60833, Note_on_c, 0, 67, 48
2, 60849, Control_c, 0, 64, 115
2, 61022, Control_c, 0, 64, 113
2, 61040, Control_c, 0, 64, 112
2, 61060, Control_c, 0, 64, 111
2, 61080, Control_c, 0, 64, 109
2, 61118, Control_c, 0, 64, 108
2, 61137, Control_c, 0, 64, 106
2, 61159, Control_c, 0, 64, 104
2, 61179, Control_c, 0, 64, 100
2, 61186, Note_on_c, 0, 80, 63
2, 61195, Control_c, 0, 64, 92
2, 61213, Control_c, 0, 64, 81
2, 61235, Control_c, 0, 64, 71
2, 61252, Control_c, 0, 64, 65
2, 61272, Control_c, 0, 64, 60
2, 61290, Control_c, 0, 64, 56
2, 61312, Control_c, 0, 64, 51
2, 61328, Control_c, 0, 64, 46
2, 61349, Control_c, 0, 64, 39
2, 61367, Control_c, 0, 64, 33
2, 61387, Control_c, 0, 64, 27
2, 61409, Control_c, 0, 64, 20
2, 61424, Control_c, 0, 64, 0
2, 61564, Note_on_c, 0, 79, 63
2, 61584, Note_on_c, 0, 55, 43
2, 61599, Control_c, 0, 64, 34
2, 61620, Control_c, 0, 64, 50
2, 61636, Control_c, 0, 64, 60
2, 61656, Control_c, 0, 64, 64
2, 61660, Note_on_c, 0, 80, 0
2, 61678, Control_c, 0, 64, 67
2, 61695, Control_c, 0, 64, 74
2, 61713, Control_c, 0, 64, 86
2, 61733, Control_c, 0, 64, 127
2, 61842, Note_on_c, 0, 67, 0
2, 61884, Note_on_c, 0, 71, 0
2, 61923, Note_on_c, 0, 77, 65
2, 61928, Note_on_c, 0, 55, 0
2, 61951, Note_on_c, 0, 79, 0
2, 62296, Note_on_c, 0, 75, 61
2, 62307, Control_c, 0, 64, 96
2, 62307, Note_on_c, 0, 60, 46
2, 62323, Note_on_c, 0, 77, 0
2, 62328, Control_c, 0, 64, 70
2, 62346, Control_c, 0, 64, 58
2, 62363, Control_c, 0, 64, 47
2, 62388, Control_c, 0, 64, 38
2, 62404, Control_c, 0, 64, 27
2, 62424, Control_c, 0, 64, 0
2, 62684, Note_on_c, 0, 84, 65
2, 62749, Control_c, 0, 64, 8
2, 62769, Control_c, 0, 64, 32
2, 62788, Control_c, 0, 64, 39
2, 62805, Control_c, 0, 64, 40
2, 62865, Control_c, 0, 64, 41
2, 62883, Control_c, 0, 64, 40
2, 62887, Note_on_c, 0, 75, 0
2, 62926, Control_c, 0, 64, 39
2, 62941, Control_c, 0, 64, 38
2, 63037, Control_c, 0, 64, 37
2, 63052, Note_on_c, 0, 56, 50
2, 63057, Control_c, 0, 64, 36
2, 63057, Note_on_c, 0, 77, 51
2, 63113, Control_c, 0, 64, 35
2, 63210, Control_c, 0, 64, 34
2, 63230, Control_c, 0, 64, 33
2, 63269, Control_c, 0, 64, 32
2, 63402, Control_c, 0, 64, 31
2, 63447, Note_on_c, 0, 83, 64
2, 63477, Note_on_c, 0, 84, 0
2, 63615, Control_c, 0, 64, 30
2, 63671, Control_c, 0, 64, 29
2, 63805, Control_c, 0, 64, 28
2, 63855, Note_on_c, 0, 51, 38
2, 63870, Note_on_c, 0, 77, 0
2, 63874, Note_on_c, 0, 84, 59
2, 63892, Note_on_c, 0, 56, 0
2, 63908, Note_on_c, 0, 83, 0
2, 63978, Control_c, 0, 64, 27
2, 64190, Control_c, 0, 64, 26
2, 64216, Note_on_c, 0, 79, 54
2, 64581, Note_on_c, 0, 53, 52
2, 64588, Note_on_c, 0, 80, 58
2, 64619, Note_on_c, 0, 79, 0
2, 64636, Note_on_c, 0, 51, 0
2, 64729, Control_c, 0, 64, 27
2, 64747, Control_c, 0, 64, 29
2, 64765, Control_c, 0, 64, 34
2, 64787, Control_c, 0, 64, 41
2, 64804, Control_c, 0, 64, 53
2, 64824, Control_c, 0, 64, 63
2, 64841, Control_c, 0, 64, 70
2, 64861, Control_c, 0, 64, 95
2, 64881, Control_c, 0, 64, 127
2, 64902, Note_on_c, 0, 84, 0
2, 64935, Note_on_c, 0, 80, 0
2, 64940, Note_on_c, 0, 77, 65
2, 64993, Note_on_c, 0, 77, 0
2, 65322, Note_on_c, 0, 53, 0
2, 65331, Note_on_c, 0, 75, 69
2, 65348, Note_on_c, 0, 55, 46
2, 65380, Control_c, 0, 64, 93
2, 65400, Control_c, 0, 64, 70
2, 65418, Control_c, 0, 64, 61
2, 65437, Control_c, 0, 64, 55
2, 65459, Control_c, 0, 64, 51
2, 65476, Control_c, 0, 64, 47
2, 65494, Control_c, 0, 64, 41
2, 65517, Control_c, 0, 64, 34
2, 65535, Control_c, 0, 64, 29
2, 65552, Control_c, 0, 64, 26
2, 65572, Control_c, 0, 64, 25
2, 65592, Control_c, 0, 64, 24
2, 65612, Control_c, 0, 64, 20
2, 65629, Control_c, 0, 64, 16
2, 65650, Control_c, 0, 64, 13
2, 65687, Note_on_c, 0, 71, 57
2, 65803, Control_c, 0, 64, 12
2, 65843, Control_c, 0, 64, 11
2, 65993, Control_c, 0, 64, 10
2, 66046, Note_on_c, 0, 72, 62
2, 66055, Note_on_c, 0, 71, 0
2, 66188, Control_c, 0, 64, 9
2, 66322, Control_c, 0, 64, 8
2, 66388, Note_on_c, 0, 72, 0
2, 66399, Note_on_c, 0, 66, 53
2, 66552, Control_c, 0, 64, 0
2, 66792, Note_on_c, 0, 67, 50
2, 66807, Note_on_c, 0, 66, 0
2, 67178, Note_on_c, 0, 72, 48
2, 67218, Note_on_c, 0, 75, 0
2, 67318, Control_c, 0, 64, 9
2, 67338, Control_c, 0, 64, 13
2, 67358, Control_c, 0, 64, 15
2, 67376, Control_c, 0, 64, 16
2, 67414, Control_c, 0, 64, 18
2, 67434, Control_c, 0, 64, 20
2, 67452, Control_c, 0, 64, 23
2, 67471, Control_c, 0, 64, 25
2, 67491, Control_c, 0, 64, 27
2, 67511, Control_c, 0, 64, 28
2, 67530, Control_c, 0, 64, 29
2, 67545, Note_on_c, 0, 60, 0
2, 67549, Control_c, 0, 64, 31
2, 67569, Control_c, 0, 64, 33
2, 67586, Note_on_c, 0, 74, 47
2, 67588, Control_c, 0, 64, 36
2, 67591, Note_on_c, 0, 59, 35
2, 67608, Control_c, 0, 64, 40
2, 67626, Control_c, 0, 64, 44
2, 67647, Control_c, 0, 64, 49
2, 67666, Control_c, 0, 64, 56
2, 67677, Note_on_c, 0, 72, 0
2, 67684, Control_c, 0, 64, 61
2, 67706, Control_c, 0, 64, 64
2, 67722, Control_c, 0, 64, 69
2, 67742, Control_c, 0, 64, 82
2, 67763, Control_c, 0, 64, 122
2, 67780, Control_c, 0, 64, 127
2, 67816, Note_on_c, 0, 59, 0
2, 67848, Note_on_c, 0, 74, 0
2, 67899, Note_on_c, 0, 55, 0
2, 67953, Note_on_c, 0, 65, 49
2, 67962, Note_on_c, 0, 67, 0
2, 68369, Note_on_c, 0, 72, 56
2, 68376, Note_on_c, 0, 48, 41
2, 68378, Control_c, 0, 64, 101
2, 68382, Note_on_c, 0, 65, 0
2, 68389, Note_on_c, 0, 60, 42
2, 68396, Control_c, 0, 64, 77
2, 68413, Control_c, 0, 64, 65
2, 68434, Control_c, 0, 64, 57
2, 68452, Control_c, 0, 64, 53
2, 68474, Control_c, 0, 64, 50
2, 68490, Control_c, 0, 64, 44
2, 68512, Control_c, 0, 64, 37
2, 68529, Control_c, 0, 64, 31
2, 68547, Control_c, 0, 64, 27
2, 68568, Control_c, 0, 64, 25
2, 68586, Control_c, 0, 64, 23
2, 68605, Control_c, 0, 64, 20
2, 68623, Control_c, 0, 64, 17
2, 68684, Control_c, 0, 64, 16
2, 68721, Control_c, 0, 64, 15
2, 68753, Note_on_c, 0, 65, 47
2, 68990, Control_c, 0, 64, 14
2, 69082, Note_on_c, 0, 60, 0
2, 69105, Note_on_c, 0, 64, 54
2, 69109, Note_on_c, 0, 55, 44
2, 69109, Note_on_c, 0, 65, 0
2, 69412, Control_c, 0, 64, 13
2, 69468, Note_on_c, 0, 67, 56
2, 69503, Note_on_c, 0, 64, 0
2, 69840, Note_on_c, 0, 60, 58
2, 69854, Control_c, 0, 64, 12
2, 69892, Control_c, 0, 64, 11
2, 69910, Note_on_c, 0, 67, 0
2, 69930, Control_c, 0, 64, 10
2, 70202, Note_on_c, 0, 53, 57
2, 70233, Note_on_c, 0, 55, 0
2, 70295, Control_c, 0, 64, 9
2, 70409, Control_c, 0, 64, 8
2, 70428, Control_c, 0, 64, 0
2, 70560, Note_on_c, 0, 52, 60
2, 70565, Note_on_c, 0, 53, 0
2, 70716, Control_c, 0, 64, 26
2, 70736, Control_c, 0, 64, 47
2, 70754, Control_c, 0, 64, 59
2, 70774, Control_c, 0, 64, 65
2, 70794, Control_c, 0, 64, 69
2, 70812, Control_c, 0, 64, 77
2, 70827, Note_on_c, 0, 60, 0
2, 70832, Control_c, 0, 64, 97
2, 70852, Control_c, 0, 64, 127
2, 70892, Note_on_c, 0, 52, 0
2, 70897, Note_on_c, 0, 48, 0
2, 70897, Note_on_c, 0, 72, 0
2, 70940, Note_on_c, 0, 55, 60
2, 71314, Control_c, 0, 64, 91
2, 71323, Note_on_c, 0, 45, 53
2, 71323, Note_on_c, 0, 65, 67
2, 71329, Note_on_c, 0, 55, 0
2, 71334, Control_c, 0, 64, 67
2, 71352, Control_c, 0, 64, 56
2, 71371, Control_c, 0, 64, 46
2, 71389, Control_c, 0, 64, 40
2, 71410, Control_c, 0, 64, 34
2, 71429, Control_c, 0, 64, 25
2, 71447, Control_c, 0, 64, 11
2, 71466, Control_c, 0, 64, 0
2, 71676, Note_on_c, 0, 69, 62
2, 72043, Note_on_c, 0, 72, 71
2, 72050, Note_on_c, 0, 53, 49
2, 72291, Control_c, 0, 64, 11
2, 72311, Control_c, 0, 64, 41
2, 72331, Control_c, 0, 64, 56
2, 72349, Control_c, 0, 64, 63
2, 72351, Note_on_c, 0, 45, 0
2, 72367, Control_c, 0, 64, 66
2, 72386, Control_c, 0, 64, 71
2, 72391, Note_on_c, 0, 75, 72
2, 72410, Control_c, 0, 64, 81
2, 72427, Control_c, 0, 64, 106
2, 72440, Note_on_c, 0, 65, 0
2, 72444, Note_on_c, 0, 72, 0
2, 72448, Control_c, 0, 64, 127
2, 72473, Note_on_c, 0, 69, 0
2, 72715, Control_c, 0, 64, 93
2, 72733, Control_c, 0, 64, 64
2, 72748, Note_on_c, 0, 41, 60
2, 72753, Control_c, 0, 64, 44
2, 72771, Control_c, 0, 64, 32
2, 72771, Note_on_c, 0, 69, 55
2, 72787, Note_on_c, 0, 53, 0
2, 72787, Note_on_c, 0, 75, 0
2, 72792, Control_c, 0, 64, 39
2, 72809, Control_c, 0, 64, 48
2, 72829, Control_c, 0, 64, 60
2, 72849, Control_c, 0, 64, 66
2, 72868, Control_c, 0, 64, 71
2, 72887, Control_c, 0, 64, 79
2, 72907, Control_c, 0, 64, 87
2, 72924, Control_c, 0, 64, 91
2, 72945, Control_c, 0, 64, 92
2, 72982, Control_c, 0, 64, 91
2, 73003, Control_c, 0, 64, 90
2, 73111, Note_on_c, 0, 78, 75
2, 73120, Control_c, 0, 64, 88
2, 73137, Control_c, 0, 64, 87
2, 73155, Control_c, 0, 64, 85
2, 73173, Control_c, 0, 64, 83
2, 73194, Control_c, 0, 64, 82
2, 73211, Control_c, 0, 64, 81
2, 73233, Control_c, 0, 64, 80
2, 73253, Control_c, 0, 64, 79
2, 73272, Control_c, 0, 64, 77
2, 73290, Control_c, 0, 64, 75
2, 73310, Control_c, 0, 64, 72
2, 73330, Control_c, 0, 64, 68
2, 73348, Control_c, 0, 64, 64
2, 73370, Control_c, 0, 64, 59
2, 73385, Control_c, 0, 64, 49
2, 73409, Control_c, 0, 64, 31
2, 73423, Control_c, 0, 64, 0
2, 73487, Note_on_c, 0, 53, 53
2, 73492, Note_on_c, 0, 72, 68
2, 73521, Control_c, 0, 64, 21
2, 73538, Control_c, 0, 64, 43
2, 73552, Note_on_c, 0, 78, 0
2, 73560, Control_c, 0, 64, 56
2, 73565, Note_on_c, 0, 41, 0
2, 73578, Control_c, 0, 64, 63
2, 73599, Control_c, 0, 64, 66
2, 73619, Control_c, 0, 64, 71
2, 73637, Control_c, 0, 64, 81
2, 73654, Control_c, 0, 64, 97
2, 73674, Control_c, 0, 64, 127
2, 73841, Note_on_c, 0, 75, 72
2, 73868, Note_on_c, 0, 72, 0
2, 73928, Note_on_c, 0, 75, 0
2, 74193, Control_c, 0, 64, 101
2, 74212, Control_c, 0, 64, 70
2, 74216, Note_on_c, 0, 53, 0
2, 74220, Note_on_c, 0, 46, 66
2, 74220, Note_on_c, 0, 73, 67
2, 74232, Control_c, 0, 64, 60
2, 74246, Note_on_c, 0, 69, 0
2, 74250, Control_c, 0, 64, 52
2, 74270, Control_c, 0, 64, 48
2, 74291, Control_c, 0, 64, 42
2, 74306, Control_c, 0, 64, 34
2, 74326, Control_c, 0, 64, 25
2, 74346, Control_c, 0, 64, 19
2, 74402, Control_c, 0, 64, 17
2, 74423, Control_c, 0, 64, 13
2, 74441, Control_c, 0, 64, 8
2, 74461, Control_c, 0, 64, 0
2, 74580, Note_on_c, 0, 49, 62
2, 74939, Note_on_c, 0, 53, 64
2, 74946, Note_on_c, 0, 70, 59
2, 74957, Note_on_c, 0, 49, 0
2, 75310, Note_on_c, 0, 58, 61
2, 75314, Note_on_c, 0, 53, 0
2, 75654, Note_on_c, 0, 48, 59
2, 75658, Note_on_c, 0, 70, 0
2, 75663, Note_on_c, 0, 64, 60
2, 75667, Note_on_c, 0, 46, 0
2, 75683, Note_on_c, 0, 58, 0
2, 76011, Note_on_c, 0, 58, 62
2, 76394, Note_on_c, 0, 56, 65
2, 76396, Note_on_c, 0, 58, 0
2, 76401, Note_on_c, 0, 72, 66
2, 76458, Control_c, 0, 64, 37
2, 76476, Control_c, 0, 64, 51
2, 76496, Control_c, 0, 64, 60
2, 76503, Note_on_c, 0, 73, 0
2, 76518, Control_c, 0, 64, 63
2, 76534, Control_c, 0, 64, 64
2, 76552, Control_c, 0, 64, 67
2, 76570, Note_on_c, 0, 64, 0
2, 76575, Control_c, 0, 64, 72
2, 76595, Control_c, 0, 64, 84
2, 76612, Control_c, 0, 64, 104
2, 76630, Control_c, 0, 64, 127
2, 76701, Note_on_c, 0, 48, 0
2, 76762, Note_on_c, 0, 56, 0
2, 76762, Note_on_c, 0, 60, 57
2, 76995, Control_c, 0, 64, 120
2, 77015, Control_c, 0, 64, 113
2, 77033, Control_c, 0, 64, 106
2, 77055, Control_c, 0, 64, 95
2, 77071, Control_c, 0, 64, 82
2, 77091, Control_c, 0, 64, 70
2, 77106, Note_on_c, 0, 60, 0
2, 77110, Control_c, 0, 64, 60
2, 77122, Note_on_c, 0, 50, 43
2, 77126, Note_on_c, 0, 53, 49
2, 77130, Control_c, 0, 64, 50
2, 77149, Control_c, 0, 64, 41
2, 77154, Note_on_c, 0, 65, 24
2, 77168, Control_c, 0, 64, 34
2, 77188, Control_c, 0, 64, 29
2, 77206, Control_c, 0, 64, 24
2, 77227, Control_c, 0, 64, 20
2, 77246, Control_c, 0, 64, 16
2, 77265, Control_c, 0, 64, 12
2, 77283, Control_c, 0, 64, 0
2, 77399, Control_c, 0, 64, 20
2, 77417, Control_c, 0, 64, 37
2, 77436, Control_c, 0, 64, 49
2, 77456, Control_c, 0, 64, 57
2, 77459, Note_on_c, 0, 70, 60
2, 77478, Control_c, 0, 64, 61
2, 77495, Control_c, 0, 64, 63
2, 77514, Control_c, 0, 64, 65
2, 77531, Control_c, 0, 64, 70
2, 77546, Note_on_c, 0, 53, 0
2, 77553, Control_c, 0, 64, 83
2, 77573, Control_c, 0, 64, 118
2, 77584, Note_on_c, 0, 72, 0
2, 77590, Control_c, 0, 64, 127
2, 77597, Note_on_c, 0, 50, 0
2, 77803, Control_c, 0, 64, 101
2, 77822, Control_c, 0, 64, 73
2, 77826, Note_on_c, 0, 67, 64
2, 77833, Note_on_c, 0, 52, 52
2, 77840, Note_on_c, 0, 65, 0
2, 77844, Control_c, 0, 64, 62
2, 77844, Note_on_c, 0, 55, 57
2, 77859, Control_c, 0, 64, 53
2, 77879, Control_c, 0, 64, 46
2, 77884, Note_on_c, 0, 70, 0
2, 77901, Control_c, 0, 64, 38
2, 77916, Control_c, 0, 64, 22
2, 77934, Control_c, 0, 64, 0
2, 78110, Control_c, 0, 64, 25
2, 78130, Control_c, 0, 64, 47
2, 78146, Control_c, 0, 64, 60
2, 78165, Control_c, 0, 64, 66
2, 78186, Control_c, 0, 64, 70
2, 78192, Note_on_c, 0, 64, 70
2, 78197, Note_on_c, 0, 52, 0
2, 78206, Control_c, 0, 64, 81
2, 78228, Control_c, 0, 64, 95
2, 78228, Note_on_c, 0, 55, 0
2, 78228, Note_on_c, 0, 67, 0
2, 78244, Control_c, 0, 64, 127
2, 78512, Control_c, 0, 64, 110
2, 78534, Control_c, 0, 64, 74
2, 78541, Note_on_c, 0, 53, 64
2, 78552, Control_c, 0, 64, 61
2, 78556, Note_on_c, 0, 56, 62
2, 78556, Note_on_c, 0, 64, 0
2, 78565, Note_on_c, 0, 60, 57
2, 78573, Control_c, 0, 64, 50
2, 78589, Control_c, 0, 64, 41
2, 78607, Control_c, 0, 64, 31
2, 78627, Control_c, 0, 64, 0
2, 78917, Note_on_c, 0, 64, 70
2, 78941, Note_on_c, 0, 60, 0
2, 79238, Note_on_c, 0, 64, 0
2, 79243, Control_c, 0, 64, 40
2, 79258, Note_on_c, 0, 65, 65
2, 79259, Control_c, 0, 64, 57
2, 79280, Control_c, 0, 64, 65
2, 79299, Control_c, 0, 64, 73
2, 79319, Control_c, 0, 64, 85
2, 79340, Control_c, 0, 64, 107
2, 79360, Control_c, 0, 64, 127
2, 79384, Note_on_c, 0, 53, 0
2, 79414, Note_on_c, 0, 56, 0
2, 79629, Note_on_c, 0, 71, 60
2, 79740, Control_c, 0, 64, 116
2, 79758, Control_c, 0, 64, 113
2, 79780, Control_c, 0, 64, 110
2, 79800, Control_c, 0, 64, 108
2, 79818, Control_c, 0, 64, 106
2, 79837, Control_c, 0, 64, 105
2, 79855, Control_c, 0, 64, 104
2, 79875, Control_c, 0, 64, 103
2, 79913, Control_c, 0, 64, 101
2, 79932, Control_c, 0, 64, 98
2, 79952, Control_c, 0, 64, 90
2, 79971, Control_c, 0, 64, 78
2, 79993, Control_c, 0, 64, 67
2, 79993, Note_on_c, 0, 71, 0
2, 80013, Control_c, 0, 64, 60
2, 80013, Note_on_c, 0, 72, 52
2, 80014, Note_on_c, 0, 48, 40
2, 80018, Note_on_c, 0, 55, 41
2, 80027, Note_on_c, 0, 65, 0
2, 80029, Control_c, 0, 64, 55
2, 80047, Control_c, 0, 64, 51
2, 80069, Control_c, 0, 64, 45
2, 80086, Control_c, 0, 64, 38
2, 80106, Control_c, 0, 64, 30
2, 80123, Control_c, 0, 64, 22
2, 80143, Control_c, 0, 64, 16
2, 80162, Control_c, 0, 64, 15
2, 80181, Control_c, 0, 64, 14
2, 80201, Control_c, 0, 64, 10
2, 80221, Control_c, 0, 64, 0
2, 80363, Note_on_c, 0, 65, 53
2, 80734, Note_on_c, 0, 64, 62
2, 80749, Note_on_c, 0, 65, 0
2, 81081, Note_on_c, 0, 72, 0
2, 81085, Note_on_c, 0, 67, 61
2, 81429, Note_on_c, 0, 70, 68
2, 81500, Note_on_c, 0, 67, 0
2, 81790, Note_on_c, 0, 73, 73
2, 81879, Note_on_c, 0, 70, 0
2, 82128, Note_on_c, 0, 72, 70
2, 82256, Control_c, 0, 64, 25
2, 82274, Control_c, 0, 64, 46
2, 82295, Control_c, 0, 64, 61
2, 82315, Control_c, 0, 64, 69
2, 82335, Control_c, 0, 64, 83
2, 82355, Control_c, 0, 64, 127
2, 82497, Note_on_c, 0, 49, 59
2, 82497, Note_on_c, 0, 70, 67
2, 82545, Note_on_c, 0, 48, 0
2, 82549, Note_on_c, 0, 49, 0
2, 82560, Note_on_c, 0, 73, 0
2, 82634, Note_on_c, 0, 64, 0
2, 82652, Note_on_c, 0, 72, 0
2, 82689, Note_on_c, 0, 55, 0
2, 82832, Control_c, 0, 64, 110
2, 82851, Control_c, 0, 64, 76
2, 82875, Control_c, 0, 64, 64
2, 82875, Note_on_c, 0, 51, 71
2, 82879, Note_on_c, 0, 53, 69
2, 82879, Note_on_c, 0, 69, 60
2, 82890, Control_c, 0, 64, 57
2, 82906, Note_on_c, 0, 70, 0
2, 82910, Control_c, 0, 64, 54
2, 82929, Control_c, 0, 64, 50
2, 82945, Control_c, 0, 64, 44
2, 82966, Control_c, 0, 64, 37
2, 82988, Control_c, 0, 64, 31
2, 83005, Control_c, 0, 64, 29
2, 83043, Control_c, 0, 64, 28
2, 83063, Control_c, 0, 64, 27
2, 83081, Control_c, 0, 64, 26
2, 83099, Control_c, 0, 64, 25
2, 83226, Note_on_c, 0, 69, 0
2, 83235, Note_on_c, 0, 65, 65
2, 83293, Control_c, 0, 64, 24
2, 83330, Control_c, 0, 64, 23
2, 83446, Control_c, 0, 64, 22
2, 83464, Control_c, 0, 64, 21
2, 83484, Control_c, 0, 64, 20
2, 83504, Control_c, 0, 64, 19
2, 83596, Note_on_c, 0, 69, 65
2, 83611, Note_on_c, 0, 63, 79
2, 83620, Control_c, 0, 64, 18
2, 83642, Note_on_c, 0, 51, 0
2, 83668, Note_on_c, 0, 53, 0
2, 83673, Note_on_c, 0, 65, 0
2, 83677, Control_c, 0, 64, 17
2, 83736, Control_c, 0, 64, 16
2, 83849, Control_c, 0, 64, 15
2, 83871, Control_c, 0, 64, 14
2, 83927, Control_c, 0, 64, 13
2, 83969, Note_on_c, 0, 72, 82
2, 83986, Control_c, 0, 64, 11
2, 84006, Control_c, 0, 64, 10
2, 84008, Note_on_c, 0, 69, 0
2, 84022, Control_c, 0, 64, 9
2, 84041, Control_c, 0, 64, 8
2, 84059, Control_c, 0, 64, 0
2, 84359, Note_on_c, 0, 77, 84
2, 84363, Note_on_c, 0, 61, 68
2, 84380, Note_on_c, 0, 63, 0
2, 84394, Note_on_c, 0, 72, 0
2, 84728, Note_on_c, 0, 70, 71
2, 85101, Note_on_c, 0, 69, 55
2, 85105, Note_on_c, 0, 60, 63
2, 85110, Note_on_c, 0, 70, 0
2, 85117, Note_on_c, 0, 61, 0
2, 85270, Control_c, 0, 64, 30
2, 85288, Control_c, 0, 64, 47
2, 85309, Control_c, 0, 64, 59
2, 85329, Control_c, 0, 64, 65
2, 85347, Control_c, 0, 64, 70
2, 85365, Control_c, 0, 64, 88
2, 85386, Control_c, 0, 64, 127
2, 85401, Note_on_c, 0, 60, 0
2, 85455, Note_on_c, 0, 75, 73
2, 85495, Note_on_c, 0, 77, 0
2, 85533, Note_on_c, 0, 75, 0
2, 85856, Note_on_c, 0, 58, 73
2, 85865, Control_c, 0, 64, 92
2, 85865, Note_on_c, 0, 73, 73
2, 85885, Control_c, 0, 64, 69
2, 85907, Control_c, 0, 64, 57
2, 85907, Note_on_c, 0, 69, 0
2, 85924, Control_c, 0, 64, 48
2, 85942, Control_c, 0, 64, 43
2, 85963, Control_c, 0, 64, 36
2, 85982, Control_c, 0, 64, 25
2, 86002, Control_c, 0, 64, 12
2, 86018, Control_c, 0, 64, 0
2, 86229, Note_on_c, 0, 53, 67
2, 86247, Note_on_c, 0, 68, 61
2, 86576, Note_on_c, 0, 49, 61
2, 86576, Note_on_c, 0, 67, 63
2, 86591, Note_on_c, 0, 68, 0
2, 86609, Note_on_c, 0, 53, 0
2, 86964, Note_on_c, 0, 46, 56
2, 86964, Note_on_c, 0, 70, 59
2, 86980, Control_c, 0, 64, 33
2, 86982, Note_on_c, 0, 67, 0
2, 87001, Control_c, 0, 64, 50
2, 87020, Control_c, 0, 64, 61
2, 87038, Control_c, 0, 64, 64
2, 87047, Note_on_c, 0, 58, 0
2, 87056, Control_c, 0, 64, 66
2, 87076, Control_c, 0, 64, 70
2, 87095, Control_c, 0, 64, 81
2, 87113, Control_c, 0, 64, 115
2, 87117, Note_on_c, 0, 49, 0
2, 87136, Control_c, 0, 64, 127
2, 87307, Control_c, 0, 64, 96
2, 87323, Control_c, 0, 64, 72
2, 87336, Note_on_c, 0, 64, 64
2, 87336, Note_on_c, 0, 70, 0
2, 87341, Note_on_c, 0, 55, 61
2, 87345, Control_c, 0, 64, 61
2, 87363, Control_c, 0, 64, 53
2, 87382, Control_c, 0, 64, 47
2, 87400, Control_c, 0, 64, 42
2, 87420, Control_c, 0, 64, 34
2, 87440, Control_c, 0, 64, 20
2, 87462, Control_c, 0, 64, 0
2, 87698, Note_on_c, 0, 48, 62
2, 87702, Note_on_c, 0, 72, 68
2, 87728, Control_c, 0, 64, 26
2, 87732, Note_on_c, 0, 46, 0
2, 87748, Control_c, 0, 64, 45
2, 87764, Note_on_c, 0, 64, 0
2, 87769, Control_c, 0, 64, 56
2, 87785, Control_c, 0, 64, 61
2, 87804, Control_c, 0, 64, 63
2, 87824, Control_c, 0, 64, 64
2, 87842, Control_c, 0, 64, 68
2, 87862, Control_c, 0, 64, 77
2, 87881, Control_c, 0, 64, 91
2, 87902, Control_c, 0, 64, 109
2, 87919, Control_c, 0, 64, 118
2, 87958, Control_c, 0, 64, 115
2, 87978, Control_c, 0, 64, 100
2, 87997, Control_c, 0, 64, 83
2, 88014, Control_c, 0, 64, 68
2, 88036, Control_c, 0, 64, 61
2, 88051, Note_on_c, 0, 48, 0
2, 88053, Control_c, 0, 64, 56
2, 88062, Note_on_c, 0, 49, 66
2, 88076, Control_c, 0, 64, 53
2, 88076, Note_on_c, 0, 65, 59
2, 88094, Control_c, 0, 64, 48
2, 88112, Control_c, 0, 64, 38
2, 88130, Control_c, 0, 64, 27
2, 88150, Control_c, 0, 64, 14
2, 88170, Control_c, 0, 64, 0
2, 88437, Control_c, 0, 64, 30
2, 88444, Note_on_c, 0, 70, 74
2, 88449, Note_on_c, 0, 46, 62
2, 88459, Control_c, 0, 64, 53
2, 88474, Note_on_c, 0, 73, 0
2, 88478, Control_c, 0, 64, 63
2, 88491, Note_on_c, 0, 49, 0
2, 88496, Control_c, 0, 64, 68
2, 88502, Note_on_c, 0, 65, 0
2, 88515, Control_c, 0, 64, 74
2, 88536, Control_c, 0, 64, 85
2, 88554, Control_c, 0, 64, 101
2, 88574, Control_c, 0, 64, 127
2, 88580, Note_on_c, 0, 72, 0
2, 88590, Note_on_c, 0, 55, 0
2, 88657, Note_on_c, 0, 46, 0
2, 88786, Control_c, 0, 64, 96
2, 88803, Control_c, 0, 64, 68
2, 88808, Note_on_c, 0, 48, 69
2, 88810, Note_on_c, 0, 64, 72
2, 88824, Control_c, 0, 64, 58
2, 88842, Control_c, 0, 64, 50
2, 88859, Control_c, 0, 64, 45
2, 88878, Control_c, 0, 64, 42
2, 88901, Control_c, 0, 64, 36
2, 88920, Control_c, 0, 64, 29
2, 88938, Control_c, 0, 64, 25
2, 88957, Control_c, 0, 64, 23
2, 88976, Control_c, 0, 64, 22
2, 88994, Control_c, 0, 64, 20
2, 89014, Control_c, 0, 64, 17
2, 89033, Control_c, 0, 64, 14
2, 89056, Control_c, 0, 64, 13
2, 89149, Control_c, 0, 64, 12
2, 89166, Control_c, 0, 64, 11
2, 89192, Note_on_c, 0, 73, 84
2, 89199, Note_on_c, 0, 55, 68
2, 89226, Note_on_c, 0, 70, 0
2, 89343, Control_c, 0, 64, 10
2, 89359, Control_c, 0, 64, 0
2, 89567, Note_on_c, 0, 56, 73
2, 89572, Note_on_c, 0, 72, 78
2, 89610, Note_on_c, 0, 55, 0
2, 89615, Note_on_c, 0, 73, 0
2, 89632, Note_on_c, 0, 64, 0
2, 89921, Note_on_c, 0, 59, 77
2, 89923, Note_on_c, 0, 65, 62
2, 89978, Note_on_c, 0, 56, 0
2, 90320, Control_c, 0, 64, 15
2, 90329, Note_on_c, 0, 60, 65
2, 90334, Note_on_c, 0, 59, 0
2, 90342, Control_c, 0, 64, 36
2, 90342, Note_on_c, 0, 68, 65
2, 90358, Control_c, 0, 64, 48
2, 90368, Note_on_c, 0, 72, 0
2, 90377, Note_on_c, 0, 65, 0
2, 90381, Control_c, 0, 64, 57
2, 90397, Control_c, 0, 64, 61
2, 90415, Control_c, 0, 64, 62
2, 90435, Control_c, 0, 64, 63
2, 90453, Control_c, 0, 64, 64
2, 90569, Control_c, 0, 64, 65
2, 90588, Control_c, 0, 64, 66
2, 90606, Control_c, 0, 64, 67
2, 90626, Control_c, 0, 64, 69
2, 90645, Control_c, 0, 64, 71
2, 90665, Control_c, 0, 64, 74
2, 90687, Control_c, 0, 64, 78
2, 90687, Note_on_c, 0, 48, 0
2, 90707, Control_c, 0, 64, 83
2, 90721, Note_on_c, 0, 65, 54
2, 90725, Control_c, 0, 64, 90
2, 90741, Control_c, 0, 64, 100
2, 90762, Control_c, 0, 64, 120
2, 90781, Control_c, 0, 64, 127
2, 91068, Control_c, 0, 64, 105
2, 91088, Control_c, 0, 64, 78
2, 91106, Control_c, 0, 64, 64
2, 91126, Control_c, 0, 64, 53
2, 91126, Note_on_c, 0, 65, 0
2, 91148, Control_c, 0, 64, 35
2, 91153, Note_on_c, 0, 48, 36
2, 91153, Note_on_c, 0, 64, 50
2, 91166, Control_c, 0, 64, 13
2, 91184, Control_c, 0, 64, 0
2, 91203, Control_c, 0, 67, 13
2, 91225, Control_c, 0, 67, 27
2, 91241, Control_c, 0, 67, 42
2, 91261, Control_c, 0, 67, 59
2, 91279, Control_c, 0, 67, 71
2, 91298, Control_c, 0, 67, 80
2, 91318, Control_c, 0, 67, 85
2, 91335, Control_c, 0, 67, 87
2, 91454, Control_c, 0, 64, 15
2, 91473, Control_c, 0, 64, 21
2, 91473, Control_c, 0, 67, 86
2, 91491, Control_c, 0, 64, 28
2, 91515, Control_c, 0, 64, 37
2, 91515, Control_c, 0, 67, 85
2, 91533, Control_c, 0, 64, 46
2, 91533, Control_c, 0, 67, 84
2, 91549, Control_c, 0, 64, 55
2, 91569, Control_c, 0, 64, 59
2, 91591, Control_c, 0, 64, 61
2, 91591, Control_c, 0, 67, 83
2, 91608, Control_c, 0, 64, 62
2, 91612, Note_on_c, 0, 67, 47
2, 91623, Note_on_c, 0, 68, 0
2, 91628, Control_c, 0, 64, 64
2, 91645, Control_c, 0, 64, 68
2, 91665, Control_c, 0, 64, 74
2, 91669, Control_c, 0, 67, 82
2, 91680, Note_on_c, 0, 64, 0
2, 91682, Control_c, 0, 64, 81
2, 91703, Control_c, 0, 64, 85
2, 91720, Control_c, 0, 64, 86
2, 91740, Control_c, 0, 64, 88
2, 91758, Control_c, 0, 64, 93
2, 91778, Control_c, 0, 64, 100
2, 91797, Control_c, 0, 64, 107
2, 91817, Control_c, 0, 64, 112
2, 91835, Control_c, 0, 64, 116
2, 91855, Control_c, 0, 64, 120
2, 91875, Control_c, 0, 64, 127
2, 92202, Control_c, 0, 64, 122
2, 92202, Control_c, 0, 67, 81
2, 92221, Control_c, 0, 64, 90
2, 92234, Note_on_c, 0, 49, 48
2, 92241, Control_c, 0, 64, 70
2, 92245, Note_on_c, 0, 48, 0
2, 92245, Note_on_c, 0, 65, 49
2, 92254, Note_on_c, 0, 67, 0
2, 92260, Control_c, 0, 64, 62
2, 92278, Control_c, 0, 64, 54
2, 92296, Control_c, 0, 64, 48
2, 92315, Control_c, 0, 64, 43
2, 92335, Control_c, 0, 64, 37
2, 92354, Control_c, 0, 64, 32
2, 92376, Control_c, 0, 64, 28
2, 92393, Control_c, 0, 64, 27
2, 92413, Control_c, 0, 64, 26
2, 92431, Control_c, 0, 64, 25
2, 92451, Control_c, 0, 64, 24
2, 92470, Control_c, 0, 64, 23
2, 92690, Note_on_c, 0, 68, 47
2, 92969, Control_c, 0, 64, 24
2, 92989, Control_c, 0, 64, 25
2, 93007, Control_c, 0, 64, 28
2, 93026, Control_c, 0, 64, 30
2, 93045, Control_c, 0, 64, 33
2, 93058, Note_on_c, 0, 72, 54
2, 93065, Control_c, 0, 64, 38
2, 93082, Note_on_c, 0, 68, 0
2, 93087, Control_c, 0, 64, 42
2, 93106, Control_c, 0, 64, 48
2, 93122, Control_c, 0, 64, 53
2, 93141, Control_c, 0, 64, 56
2, 93161, Control_c, 0, 64, 58
2, 93181, Control_c, 0, 64, 60
2, 93199, Control_c, 0, 64, 61
2, 93219, Control_c, 0, 64, 63
2, 93240, Control_c, 0, 64, 64
2, 93258, Control_c, 0, 64, 67
2, 93275, Control_c, 0, 64, 70
2, 93295, Control_c, 0, 64, 75
2, 93314, Control_c, 0, 64, 82
2, 93335, Control_c, 0, 64, 90
2, 93354, Control_c, 0, 64, 103
2, 93372, Control_c, 0, 64, 127
2, 93411, Note_on_c, 0, 65, 0
2, 93413, Note_on_c, 0, 77, 51
2, 93661, Note_on_c, 0, 77, 0
2, 93770, Note_on_c, 0, 67, 61
2, 93775, Note_on_c, 0, 58, 49
2, 93809, Note_on_c, 0, 72, 0
2, 93851, Note_on_c, 0, 60, 0
2, 93873, Control_c, 0, 64, 122
2, 93890, Control_c, 0, 64, 102
2, 93910, Control_c, 0, 64, 95
2, 93929, Control_c, 0, 64, 92
2, 93947, Control_c, 0, 64, 91
2, 93987, Control_c, 0, 64, 90
2, 94006, Control_c, 0, 64, 88
2, 94024, Control_c, 0, 64, 85
2, 94045, Control_c, 0, 64, 82
2, 94063, Control_c, 0, 64, 78
2, 94082, Control_c, 0, 64, 74
2, 94101, Control_c, 0, 64, 69
2, 94121, Control_c, 0, 64, 65
2, 94140, Control_c, 0, 64, 61
2, 94149, Note_on_c, 0, 77, 49
2, 94162, Control_c, 0, 64, 56
2, 94180, Control_c, 0, 64, 48
2, 94198, Control_c, 0, 64, 40
2, 94217, Control_c, 0, 64, 33
2, 94237, Control_c, 0, 64, 28
2, 94255, Control_c, 0, 64, 26
2, 94275, Control_c, 0, 64, 24
2, 94295, Control_c, 0, 64, 21
2, 94312, Control_c, 0, 64, 19
2, 94350, Control_c, 0, 64, 20
2, 94374, Control_c, 0, 64, 24
2, 94389, Control_c, 0, 64, 26
2, 94411, Control_c, 0, 64, 29
2, 94431, Control_c, 0, 64, 34
2, 94448, Control_c, 0, 64, 43
2, 94468, Control_c, 0, 64, 51
2, 94487, Control_c, 0, 64, 58
2, 94487, Note_on_c, 0, 76, 57
2, 94505, Control_c, 0, 64, 61
2, 94525, Control_c, 0, 64, 63
2, 94533, Note_on_c, 0, 77, 0
2, 94544, Control_c, 0, 64, 64
2, 94564, Control_c, 0, 64, 66
2, 94585, Control_c, 0, 64, 71
2, 94601, Control_c, 0, 64, 76
2, 94621, Control_c, 0, 64, 82
2, 94642, Control_c, 0, 64, 86
2, 94659, Control_c, 0, 64, 89
2, 94679, Control_c, 0, 64, 93
2, 94697, Control_c, 0, 64, 99
2, 94719, Control_c, 0, 64, 115
2, 94730, Note_on_c, 0, 58, 0
2, 94737, Control_c, 0, 64, 127
2, 94792, Note_on_c, 0, 49, 0
2, 94851, Note_on_c, 0, 79, 61
2, 94879, Note_on_c, 0, 67, 0
2, 95115, Note_on_c, 0, 76, 0
2, 95231, Note_on_c, 0, 48, 45
2, 95231, Note_on_c, 0, 68, 70
2, 95235, Control_c, 0, 64, 105
2, 95242, Note_on_c, 0, 60, 48
2, 95254, Control_c, 0, 64, 80
2, 95259, Note_on_c, 0, 79, 0
2, 95272, Control_c, 0, 64, 65
2, 95292, Control_c, 0, 64, 58
2, 95312, Control_c, 0, 64, 54
2, 95329, Control_c, 0, 64, 51
2, 95349, Control_c, 0, 64, 48
2, 95369, Control_c, 0, 64, 44
2, 95389, Control_c, 0, 64, 42
2, 95410, Control_c, 0, 64, 40
2, 95446, Control_c, 0, 64, 39
2, 95484, Control_c, 0, 64, 38
2, 95503, Control_c, 0, 64, 36
2, 95540, Control_c, 0, 64, 35
2, 95607, Note_on_c, 0, 72, 61
2, 95657, Control_c, 0, 64, 34
2, 95695, Control_c, 0, 64, 33
2, 95958, Note_on_c, 0, 77, 52
2, 96034, Note_on_c, 0, 72, 0
2, 96327, Note_on_c, 0, 76, 57
2, 96360, Note_on_c, 0, 77, 0
2, 96757, Note_on_c, 0, 56, 46
2, 96761, Note_on_c, 0, 77, 68
2, 96832, Note_on_c, 0, 60, 0
2, 96837, Note_on_c, 0, 76, 0
2, 97133, Note_on_c, 0, 72, 54
2, 97382, Note_on_c, 0, 68, 0
2, 97490, Note_on_c, 0, 70, 45
2, 97635, Control_c, 0, 64, 32
2, 97763, Note_on_c, 0, 72, 0
2, 97808, Control_c, 0, 64, 33
2, 97827, Control_c, 0, 64, 34
2, 97845, Control_c, 0, 64, 36
2, 97858, Note_on_c, 0, 68, 53
2, 97865, Control_c, 0, 64, 38
2, 97884, Control_c, 0, 64, 41
2, 97903, Control_c, 0, 64, 42
2, 97921, Note_on_c, 0, 70, 0
2, 97925, Control_c, 0, 64, 43
2, 98210, Control_c, 0, 64, 42
2, 98237, Note_on_c, 0, 58, 45
2, 98241, Note_on_c, 0, 73, 71
2, 98248, Note_on_c, 0, 56, 0
2, 98275, Note_on_c, 0, 77, 0
2, 98288, Control_c, 0, 64, 41
2, 98288, Note_on_c, 0, 68, 0
2, 98441, Control_c, 0, 64, 40
2, 98612, Note_on_c, 0, 68, 53
2, 98747, Control_c, 0, 64, 39
2, 98921, Control_c, 0, 64, 38
2, 98984, Note_on_c, 0, 67, 55
2, 99023, Note_on_c, 0, 68, 0
2, 99131, Control_c, 0, 64, 37
2, 99345, Control_c, 0, 64, 36
2, 99345, Note_on_c, 0, 70, 51
2, 99353, Note_on_c, 0, 67, 0
2, 99554, Control_c, 0, 67, 80
2, 99577, Control_c, 0, 64, 35
2, 99736, Note_on_c, 0, 64, 64
2, 99755, Note_on_c, 0, 55, 43
2, 99783, Control_c, 0, 64, 34
2, 99799, Note_on_c, 0, 58, 0
2, 99809, Note_on_c, 0, 70, 0
2, 99814, Note_on_c, 0, 73, 0
2, 100113, Note_on_c, 0, 73, 65
2, 100148, Control_c, 0, 64, 33
2, 100378, Control_c, 0, 64, 32
2, 100474, Note_on_c, 0, 72, 66
2, 100547, Note_on_c, 0, 73, 0
2, 100568, Control_c, 0, 64, 31
2, 100799, Control_c, 0, 64, 33
2, 100819, Control_c, 0, 64, 39
2, 100841, Control_c, 0, 64, 47
2, 100841, Note_on_c, 0, 70, 64
2, 100857, Control_c, 0, 64, 54
2, 100875, Control_c, 0, 64, 57
2, 100891, Note_on_c, 0, 72, 0
2, 100898, Control_c, 0, 64, 59
2, 100898, Note_on_c, 0, 64, 0
2, 100914, Control_c, 0, 64, 61
2, 100934, Control_c, 0, 64, 62
2, 100951, Control_c, 0, 64, 64
2, 100974, Control_c, 0, 64, 65
2, 100993, Control_c, 0, 64, 66
2, 101009, Control_c, 0, 64, 67
2, 101029, Control_c, 0, 64, 68
2, 101048, Control_c, 0, 64, 69
2, 101068, Control_c, 0, 64, 70
2, 101089, Control_c, 0, 64, 71
2, 101107, Control_c, 0, 64, 72
2, 101164, Control_c, 0, 64, 71
2, 101184, Control_c, 0, 64, 68
2, 101203, Control_c, 0, 64, 65
2, 101220, Control_c, 0, 64, 62
2, 101229, Note_on_c, 0, 56, 49
2, 101233, Note_on_c, 0, 68, 65
2, 101242, Note_on_c, 0, 65, 53
2, 101244, Control_c, 0, 64, 59
2, 101244, Note_on_c, 0, 55, 0
2, 101252, Note_on_c, 0, 70, 0
2, 101261, Control_c, 0, 64, 56
2, 101266, Control_c, 0, 67, 79
2, 101282, Control_c, 0, 64, 52
2, 101300, Control_c, 0, 64, 49
2, 101300, Control_c, 0, 67, 78
2, 101319, Control_c, 0, 64, 43
2, 101319, Control_c, 0, 67, 76
2, 101339, Control_c, 0, 64, 37
2, 101357, Control_c, 0, 64, 35
2, 101361, Control_c, 0, 67, 75
2, 101376, Control_c, 0, 64, 34
2, 101396, Control_c, 0, 64, 33
2, 101396, Control_c, 0, 67, 74
2, 101414, Control_c, 0, 64, 32
2, 101434, Control_c, 0, 64, 31
2, 101452, Control_c, 0, 64, 30
2, 101511, Control_c, 0, 67, 75
2, 101548, Control_c, 0, 67, 76
2, 101559, Note_on_c, 0, 65, 0
2, 101568, Control_c, 0, 67, 77
2, 101594, Note_on_c, 0, 63, 45
2, 101607, Control_c, 0, 67, 78
2, 101682, Control_c, 0, 67, 79
2, 101724, Control_c, 0, 64, 29
2, 101724, Control_c, 0, 67, 80
2, 101739, Control_c, 0, 67, 81
2, 101778, Control_c, 0, 67, 82
2, 101938, Note_on_c, 0, 62, 56
2, 101978, Note_on_c, 0, 63, 0
2, 102126, Control_c, 0, 67, 83
2, 102144, Control_c, 0, 64, 28
2, 102239, Control_c, 0, 64, 27
2, 102297, Note_on_c, 0, 62, 0
2, 102312, Note_on_c, 0, 65, 46
2, 102547, Control_c, 0, 64, 28
2, 102568, Control_c, 0, 64, 31
2, 102585, Control_c, 0, 64, 35
2, 102606, Control_c, 0, 64, 42
2, 102623, Control_c, 0, 64, 50
2, 102643, Control_c, 0, 64, 55
2, 102663, Control_c, 0, 64, 58
2, 102680, Control_c, 0, 64, 60
2, 102691, Note_on_c, 0, 53, 39
2, 102691, Note_on_c, 0, 56, 0
2, 102691, Note_on_c, 0, 59, 49
2, 102700, Control_c, 0, 64, 62
2, 102719, Control_c, 0, 64, 63
2, 102724, Note_on_c, 0, 65, 0
2, 102742, Control_c, 0, 64, 64
2, 102742, Note_on_c, 0, 68, 0
2, 102760, Control_c, 0, 64, 66
2, 102777, Control_c, 0, 64, 67
2, 102797, Control_c, 0, 64, 69
2, 102819, Control_c, 0, 64, 71
2, 102834, Control_c, 0, 64, 73
2, 103007, Control_c, 0, 67, 84
2, 103026, Control_c, 0, 64, 72
2, 103065, Control_c, 0, 64, 71
2, 103125, Control_c, 0, 64, 70
2, 103125, Note_on_c, 0, 68, 49
2, 103333, Control_c, 0, 64, 69
2, 103410, Control_c, 0, 64, 68
2, 103487, Note_on_c, 0, 67, 43
2, 103529, Control_c, 0, 64, 67
2, 103529, Note_on_c, 0, 68, 0
2, 103603, Control_c, 0, 64, 66
2, 103717, Control_c, 0, 64, 65
2, 103831, Control_c, 0, 64, 64
2, 103860, Note_on_c, 0, 65, 41
2, 103924, Note_on_c, 0, 67, 0
2, 104141, Control_c, 0, 64, 63
2, 104244, Note_on_c, 0, 53, 0
2, 104252, Note_on_c, 0, 65, 0
2, 104257, Note_on_c, 0, 55, 34
2, 104261, Note_on_c, 0, 64, 43
2, 104351, Control_c, 0, 64, 62
2, 104358, Note_on_c, 0, 59, 0
2, 104544, Control_c, 0, 64, 61
2, 104630, Note_on_c, 0, 60, 43
2, 104943, Note_on_c, 0, 60, 0
2, 104963, Note_on_c, 0, 58, 49
2, 105004, Control_c, 0, 64, 62
2, 105062, Control_c, 0, 64, 63
2, 105081, Control_c, 0, 64, 64
2, 105100, Control_c, 0, 64, 65
2, 105120, Control_c, 0, 64, 66
2, 105140, Control_c, 0, 64, 67
2, 105159, Control_c, 0, 64, 68
2, 105176, Control_c, 0, 64, 70
2, 105196, Control_c, 0, 64, 71
2, 105215, Control_c, 0, 64, 73
2, 105233, Control_c, 0, 64, 74
2, 105253, Control_c, 0, 64, 76
2, 105273, Control_c, 0, 64, 77
2, 105296, Note_on_c, 0, 55, 0
2, 105307, Note_on_c, 0, 58, 0
2, 105338, Note_on_c, 0, 61, 48
2, 105502, Control_c, 0, 64, 76
2, 105639, Note_on_c, 0, 61, 0
2, 105677, Note_on_c, 0, 52, 45
2, 105678, Control_c, 0, 64, 75
2, 105686, Note_on_c, 0, 55, 44
2, 105696, Control_c, 0, 64, 74
2, 105716, Control_c, 0, 64, 73
2, 105733, Control_c, 0, 64, 69
2, 105755, Control_c, 0, 64, 64
2, 105773, Control_c, 0, 64, 60
2, 105791, Control_c, 0, 64, 57
2, 105809, Control_c, 0, 64, 54
2, 105829, Control_c, 0, 64, 50
2, 105849, Control_c, 0, 64, 45
2, 105871, Control_c, 0, 64, 40
2, 105887, Control_c, 0, 64, 38
2, 105906, Control_c, 0, 64, 37
2, 106002, Control_c, 0, 64, 36
2, 106052, Note_on_c, 0, 61, 44
2, 106117, Control_c, 0, 64, 37
2, 106214, Control_c, 0, 64, 38
2, 106232, Control_c, 0, 64, 39
2, 106253, Control_c, 0, 64, 40
2, 106275, Control_c, 0, 64, 41
2, 106292, Control_c, 0, 64, 43
2, 106312, Control_c, 0, 64, 45
2, 106330, Control_c, 0, 64, 48
2, 106349, Control_c, 0, 64, 52
2, 106370, Control_c, 0, 64, 55
2, 106370, Note_on_c, 0, 61, 0
2, 106387, Control_c, 0, 64, 57
2, 106396, Note_on_c, 0, 60, 45
2, 106409, Control_c, 0, 64, 58
2, 106426, Control_c, 0, 64, 60
2, 106445, Control_c, 0, 64, 61
2, 106462, Control_c, 0, 64, 62
2, 106502, Control_c, 0, 64, 63
2, 106522, Control_c, 0, 64, 64
2, 106540, Control_c, 0, 64, 65
2, 106549, Note_on_c, 0, 52, 0
2, 106559, Control_c, 0, 64, 66
2, 106580, Control_c, 0, 64, 68
2, 106597, Control_c, 0, 64, 70
2, 106617, Control_c, 0, 64, 73
2, 106638, Control_c, 0, 64, 76
2, 106655, Control_c, 0, 64, 78
2, 106674, Control_c, 0, 64, 81
2, 106692, Control_c, 0, 64, 85
2, 106713, Control_c, 0, 64, 89
2, 106734, Control_c, 0, 64, 92
2, 106754, Control_c, 0, 64, 96
2, 106754, Note_on_c, 0, 60, 0
2, 106771, Control_c, 0, 64, 99
2, 106771, Note_on_c, 0, 58, 47
2, 106791, Control_c, 0, 64, 102
2, 106809, Control_c, 0, 64, 105
2, 106827, Control_c, 0, 64, 108
2, 106840, Note_on_c, 0, 55, 0
2, 106850, Control_c, 0, 64, 109
2, 106866, Control_c, 0, 64, 110
2, 106886, Control_c, 0, 64, 111
2, 106889, Note_on_c, 0, 58, 0
2, 106907, Note_on_c, 0, 64, 0
2, 107041, Control_c, 0, 64, 110
2, 107057, Control_c, 0, 64, 108
2, 107077, Control_c, 0, 64, 103
2, 107096, Control_c, 0, 64, 96
2, 107117, Control_c, 0, 64, 84
2, 107135, Control_c, 0, 64, 73
2, 107144, Note_on_c, 0, 53, 48
2, 107155, Control_c, 0, 64, 65
2, 107162, Note_on_c, 0, 56, 47
2, 107173, Control_c, 0, 64, 60
2, 107192, Control_c, 0, 64, 57
2, 107215, Control_c, 0, 64, 54
2, 107233, Control_c, 0, 64, 50
2, 107250, Control_c, 0, 64, 45
2, 107268, Control_c, 0, 64, 41
2, 107288, Control_c, 0, 64, 39
2, 107326, Control_c, 0, 64, 38
2, 107346, Control_c, 0, 64, 37
2, 107365, Control_c, 0, 64, 35
2, 107387, Control_c, 0, 64, 33
2, 107387, Control_c, 0, 67, 83
2, 107481, Note_on_c, 0, 72, 55
2, 107501, Control_c, 0, 67, 82
2, 107520, Control_c, 0, 64, 35
2, 107520, Control_c, 0, 67, 81
2, 107539, Control_c, 0, 64, 37
2, 107541, Control_c, 0, 67, 80
2, 107557, Control_c, 0, 64, 40
2, 107577, Control_c, 0, 64, 45
2, 107577, Control_c, 0, 67, 79
2, 107599, Control_c, 0, 64, 50
2, 107616, Control_c, 0, 64, 54
2, 107616, Control_c, 0, 67, 78
2, 107636, Control_c, 0, 64, 56
2, 107636, Control_c, 0, 67, 76
2, 107656, Control_c, 0, 64, 58
2, 107656, Control_c, 0, 67, 74
2, 107674, Control_c, 0, 67, 73
2, 107694, Control_c, 0, 64, 59
2, 107694, Control_c, 0, 67, 72
2, 107712, Control_c, 0, 67, 71
2, 107732, Control_c, 0, 64, 60
2, 107732, Control_c, 0, 67, 69
2, 107752, Control_c, 0, 67, 67
2, 107768, Control_c, 0, 67, 62
2, 107790, Control_c, 0, 64, 61
2, 107790, Control_c, 0, 67, 51
2, 107808, Control_c, 0, 67, 41
2, 107828, Control_c, 0, 67, 33
2, 107842, Note_on_c, 0, 72, 0
2, 107848, Control_c, 0, 64, 63
2, 107848, Control_c, 0, 67, 32
2, 107852, Note_on_c, 0, 70, 56
2, 107886, Control_c, 0, 64, 64
2, 107886, Control_c, 0, 67, 33
2, 107921, Control_c, 0, 67, 34
2, 107960, Control_c, 0, 64, 65
2, 108001, Control_c, 0, 67, 33
2, 108056, Control_c, 0, 67, 32
2, 108079, Control_c, 0, 64, 66
2, 108079, Control_c, 0, 67, 31
2, 108096, Control_c, 0, 67, 29
2, 108118, Control_c, 0, 64, 67
2, 108118, Control_c, 0, 67, 25
2, 108128, Note_on_c, 0, 53, 0
2, 108135, Control_c, 0, 67, 12
2, 108152, Control_c, 0, 67, 0
2, 108171, Note_on_c, 0, 56, 0
2, 108176, Control_c, 0, 64, 68
2, 108183, Note_on_c, 0, 70, 0
2, 108199, Note_on_c, 0, 73, 59
2, 108211, Control_c, 0, 64, 69
2, 108307, Control_c, 0, 64, 70
2, 108403, Control_c, 0, 64, 71
2, 108440, Control_c, 0, 64, 72
2, 108463, Control_c, 0, 64, 73
2, 108480, Control_c, 0, 64, 74
2, 108499, Control_c, 0, 64, 73
2, 108517, Note_on_c, 0, 73, 0
2, 108521, Control_c, 0, 64, 70
2, 108537, Control_c, 0, 64, 67
2, 108548, Note_on_c, 0, 64, 54
2, 108550, Note_on_c, 0, 55, 50
2, 108557, Control_c, 0, 64, 64
2, 108561, Note_on_c, 0, 58, 52
2, 108574, Control_c, 0, 64, 61
2, 108594, Control_c, 0, 64, 59
2, 108614, Control_c, 0, 64, 55
2, 108635, Control_c, 0, 64, 52
2, 108652, Control_c, 0, 64, 49
2, 108670, Control_c, 0, 64, 46
2, 108690, Control_c, 0, 64, 43
2, 108710, Control_c, 0, 64, 40
2, 108727, Control_c, 0, 64, 37
2, 108747, Control_c, 0, 64, 34
2, 108767, Control_c, 0, 64, 32
2, 108786, Control_c, 0, 64, 31
2, 108824, Control_c, 0, 64, 29
2, 108847, Control_c, 0, 64, 26
2, 108864, Control_c, 0, 64, 24
2, 108882, Control_c, 0, 64, 23
2, 108904, Control_c, 0, 64, 22
2, 108917, Note_on_c, 0, 73, 66
2, 108941, Control_c, 0, 64, 20
2, 108959, Control_c, 0, 64, 17
2, 108980, Control_c, 0, 64, 16
2, 108998, Control_c, 0, 64, 15
2, 109267, Control_c, 0, 64, 17
2, 109267, Note_on_c, 0, 72, 65
2, 109269, Note_on_c, 0, 64, 0
2, 109288, Control_c, 0, 64, 21
2, 109304, Control_c, 0, 64, 25
2, 109325, Control_c, 0, 64, 30
2, 109343, Control_c, 0, 64, 36
2, 109361, Control_c, 0, 64, 42
2, 109382, Control_c, 0, 64, 49
2, 109402, Control_c, 0, 64, 57
2, 109420, Control_c, 0, 64, 62
2, 109438, Control_c, 0, 64, 65
2, 109462, Control_c, 0, 64, 67
2, 109462, Note_on_c, 0, 55, 0
2, 109481, Control_c, 0, 64, 70
2, 109498, Control_c, 0, 64, 77
2, 109504, Note_on_c, 0, 58, 0
2, 109515, Control_c, 0, 64, 87
2, 109534, Control_c, 0, 64, 100
2, 109556, Control_c, 0, 64, 116
2, 109574, Control_c, 0, 64, 127
2, 109591, Note_on_c, 0, 70, 73
2, 109614, Note_on_c, 0, 73, 0
2, 109639, Note_on_c, 0, 72, 0
2, 109882, Control_c, 0, 64, 77
2, 109899, Control_c, 0, 64, 57
2, 109921, Control_c, 0, 64, 36
2, 109939, Control_c, 0, 64, 28
2, 109952, Note_on_c, 0, 56, 54
2, 109961, Note_on_c, 0, 70, 0
2, 109979, Note_on_c, 0, 60, 47
2, 109979, Note_on_c, 0, 68, 68
2, 109983, Control_c, 0, 64, 35
2, 109996, Control_c, 0, 64, 48
2, 110016, Control_c, 0, 64, 55
2, 110034, Control_c, 0, 64, 59
2, 110054, Control_c, 0, 64, 62
2, 110073, Control_c, 0, 64, 64
2, 110093, Control_c, 0, 64, 66
2, 110109, Control_c, 0, 64, 68
2, 110131, Control_c, 0, 64, 70
2, 110131, Note_on_c, 0, 68, 0
2, 110152, Control_c, 0, 64, 71
2, 110244, Control_c, 0, 64, 70
2, 110264, Control_c, 0, 64, 69
2, 110287, Control_c, 0, 64, 68
2, 110295, Note_on_c, 0, 79, 76
2, 110321, Control_c, 0, 64, 67
2, 110342, Control_c, 0, 64, 65
2, 110384, Control_c, 0, 64, 64
2, 110457, Control_c, 0, 64, 63
2, 110534, Control_c, 0, 64, 62
2, 110647, Note_on_c, 0, 77, 76
2, 110649, Control_c, 0, 64, 61
2, 110686, Control_c, 0, 64, 60
2, 110706, Control_c, 0, 64, 59
2, 110728, Control_c, 0, 64, 58
2, 110744, Control_c, 0, 64, 57
2, 110766, Control_c, 0, 64, 55
2, 110786, Control_c, 0, 64, 53
2, 110804, Control_c, 0, 64, 51
2, 110822, Control_c, 0, 64, 46
2, 110841, Control_c, 0, 64, 40
2, 110859, Control_c, 0, 64, 29
2, 110879, Control_c, 0, 64, 0
2, 111018, Note_on_c, 0, 80, 80
2, 111032, Control_c, 0, 64, 35
2, 111054, Control_c, 0, 64, 53
2, 111072, Control_c, 0, 64, 62
2, 111092, Control_c, 0, 64, 65
2, 111101, Note_on_c, 0, 56, 0
2, 111110, Control_c, 0, 64, 68
2, 111121, Note_on_c, 0, 77, 0
2, 111130, Control_c, 0, 64, 74
2, 111150, Control_c, 0, 64, 87
2, 111168, Control_c, 0, 64, 127
2, 111321, Note_on_c, 0, 79, 0
2, 111362, Note_on_c, 0, 80, 0
2, 111371, Note_on_c, 0, 53, 62
2, 111371, Note_on_c, 0, 71, 72
2, 111380, Control_c, 0, 64, 106
2, 111384, Note_on_c, 0, 56, 67
2, 111399, Control_c, 0, 64, 85
2, 111399, Note_on_c, 0, 60, 0
2, 111417, Control_c, 0, 64, 73
2, 111437, Control_c, 0, 64, 67
2, 111454, Control_c, 0, 64, 64
2, 111474, Control_c, 0, 64, 62
2, 111493, Control_c, 0, 64, 61
2, 111512, Control_c, 0, 64, 58
2, 111534, Control_c, 0, 64, 56
2, 111551, Control_c, 0, 64, 55
2, 111573, Control_c, 0, 64, 54
2, 111591, Control_c, 0, 64, 53
2, 111609, Control_c, 0, 64, 52
2, 111627, Control_c, 0, 64, 51
2, 111647, Control_c, 0, 64, 49
2, 111687, Control_c, 0, 64, 48
2, 111706, Control_c, 0, 64, 47
2, 111724, Control_c, 0, 64, 46
2, 111739, Note_on_c, 0, 80, 78
2, 111810, Note_on_c, 0, 71, 0
2, 112031, Control_c, 0, 64, 47
2, 112050, Control_c, 0, 64, 48
2, 112068, Control_c, 0, 64, 50
2, 112079, Note_on_c, 0, 79, 75
2, 112088, Control_c, 0, 64, 53
2, 112108, Control_c, 0, 64, 56
2, 112127, Control_c, 0, 64, 59
2, 112145, Control_c, 0, 64, 62
2, 112166, Control_c, 0, 64, 65
2, 112186, Control_c, 0, 64, 69
2, 112205, Control_c, 0, 64, 78
2, 112223, Control_c, 0, 64, 96
2, 112243, Control_c, 0, 64, 127
2, 112243, Note_on_c, 0, 56, 0
2, 112302, Note_on_c, 0, 53, 0
2, 112445, Note_on_c, 0, 77, 80
2, 112461, Note_on_c, 0, 80, 0
2, 112513, Note_on_c, 0, 79, 0
2, 112801, Control_c, 0, 64, 103
2, 112806, Note_on_c, 0, 55, 67
2, 112810, Note_on_c, 0, 58, 68
2, 112815, Note_on_c, 0, 77, 0
2, 112819, Control_c, 0, 64, 77
2, 112824, Note_on_c, 0, 76, 69
2, 112839, Control_c, 0, 64, 66
2, 112856, Control_c, 0, 64, 61
2, 112878, Control_c, 0, 64, 57
2, 112896, Control_c, 0, 64, 54
2, 112914, Control_c, 0, 64, 49
2, 112935, Control_c, 0, 64, 43
2, 112953, Control_c, 0, 64, 35
2, 112971, Control_c, 0, 64, 25
2, 112993, Control_c, 0, 64, 0
2, 113178, Note_on_c, 0, 77, 81
2, 113254, Note_on_c, 0, 76, 0
2, 113532, Note_on_c, 0, 79, 81
2, 113572, Note_on_c, 0, 77, 0
2, 113856, Control_c, 0, 64, 45
2, 113877, Control_c, 0, 64, 62
2, 113877, Note_on_c, 0, 76, 83
2, 113893, Control_c, 0, 64, 74
2, 113901, Note_on_c, 0, 79, 0
2, 113916, Control_c, 0, 64, 116
2, 113932, Control_c, 0, 64, 127
2, 113936, Note_on_c, 0, 55, 0
2, 113951, Note_on_c, 0, 58, 0
2, 114279, Control_c, 0, 64, 82
2, 114279, Note_on_c, 0, 82, 79
2, 114283, Note_on_c, 0, 52, 60
2, 114288, Note_on_c, 0, 55, 62
2, 114299, Control_c, 0, 64, 65
2, 114315, Control_c, 0, 64, 56
2, 114324, Note_on_c, 0, 76, 0
2, 114335, Control_c, 0, 64, 48
2, 114353, Control_c, 0, 64, 40
2, 114373, Control_c, 0, 64, 25
2, 114395, Control_c, 0, 64, 0
2, 114662, Note_on_c, 0, 73, 77
2, 114724, Note_on_c, 0, 82, 0
2, 114874, Control_c, 0, 64, 19
2, 114890, Control_c, 0, 64, 29
2, 114910, Control_c, 0, 64, 30
2, 114932, Control_c, 0, 64, 33
2, 114949, Control_c, 0, 64, 37
2, 114968, Control_c, 0, 64, 48
2, 114988, Control_c, 0, 64, 58
2, 115007, Control_c, 0, 64, 60
2, 115016, Note_on_c, 0, 72, 72
2, 115027, Note_on_c, 0, 73, 0
2, 115085, Control_c, 0, 64, 61
2, 115103, Control_c, 0, 64, 63
2, 115181, Control_c, 0, 64, 64
2, 115335, Control_c, 0, 64, 65
2, 115362, Note_on_c, 0, 70, 68
2, 115372, Control_c, 0, 64, 67
2, 115394, Control_c, 0, 64, 68
2, 115394, Note_on_c, 0, 72, 0
2, 115410, Control_c, 0, 64, 69
2, 115430, Control_c, 0, 64, 70
2, 115452, Control_c, 0, 64, 71
2, 115470, Control_c, 0, 64, 73
2, 115487, Control_c, 0, 64, 75
2, 115509, Control_c, 0, 64, 77
2, 115526, Control_c, 0, 64, 79
2, 115547, Control_c, 0, 64, 81
2, 115548, Note_on_c, 0, 55, 0
2, 115564, Control_c, 0, 64, 82
2, 115582, Control_c, 0, 64, 83
2, 115602, Control_c, 0, 64, 84
2, 115611, Note_on_c, 0, 52, 0
2, 115622, Control_c, 0, 64, 85
2, 115680, Control_c, 0, 64, 83
2, 115700, Control_c, 0, 64, 78
2, 115716, Control_c, 0, 64, 72
2, 115739, Control_c, 0, 64, 66
2, 115747, Note_on_c, 0, 70, 0
2, 115752, Note_on_c, 0, 53, 50
2, 115752, Note_on_c, 0, 68, 67
2, 115756, Control_c, 0, 64, 62
2, 115756, Note_on_c, 0, 60, 51
2, 115774, Control_c, 0, 64, 58
2, 115794, Control_c, 0, 64, 56
2, 115813, Control_c, 0, 64, 54
2, 115833, Control_c, 0, 64, 51
2, 115852, Control_c, 0, 64, 49
2, 115871, Control_c, 0, 64, 46
2, 115892, Control_c, 0, 64, 44
2, 115947, Control_c, 0, 64, 43
2, 115968, Control_c, 0, 64, 42
2, 116105, Note_on_c, 0, 70, 68
2, 116129, Note_on_c, 0, 68, 0
2, 116160, Control_c, 0, 64, 41
2, 116333, Control_c, 0, 64, 40
2, 116351, Control_c, 0, 64, 39
2, 116472, Note_on_c, 0, 72, 66
2, 116478, Note_on_c, 0, 70, 0
2, 116505, Control_c, 0, 64, 38
2, 116639, Control_c, 0, 64, 37
2, 116657, Control_c, 0, 64, 36
2, 116736, Control_c, 0, 64, 39
2, 116754, Control_c, 0, 64, 43
2, 116775, Control_c, 0, 64, 52
2, 116791, Control_c, 0, 64, 59
2, 116813, Control_c, 0, 64, 63
2, 116813, Note_on_c, 0, 72, 0
2, 116834, Control_c, 0, 64, 65
2, 116841, Note_on_c, 0, 65, 52
2, 116853, Control_c, 0, 64, 69
2, 116868, Control_c, 0, 64, 76
2, 116888, Control_c, 0, 64, 91
2, 116908, Control_c, 0, 64, 116
2, 116917, Note_on_c, 0, 60, 0
2, 116928, Control_c, 0, 64, 127
2, 117254, Control_c, 0, 64, 97
2, 117263, Note_on_c, 0, 74, 55
2, 117272, Control_c, 0, 64, 76
2, 117281, Note_on_c, 0, 59, 42
2, 117292, Control_c, 0, 64, 64
2, 117310, Control_c, 0, 64, 59
2, 117329, Control_c, 0, 64, 56
2, 117349, Control_c, 0, 64, 53
2, 117371, Control_c, 0, 64, 49
2, 117386, Control_c, 0, 64, 44
2, 117406, Control_c, 0, 64, 41
2, 117425, Control_c, 0, 64, 39
2, 117445, Control_c, 0, 64, 38
2, 117464, Control_c, 0, 64, 37
2, 117483, Control_c, 0, 64, 35
2, 117505, Control_c, 0, 64, 33
2, 117523, Control_c, 0, 64, 30
2, 117608, Note_on_c, 0, 74, 0
2, 117621, Note_on_c, 0, 68, 56
2, 117638, Control_c, 0, 64, 29
2, 117652, Note_on_c, 0, 65, 0
2, 117716, Control_c, 0, 64, 28
2, 117732, Control_c, 0, 64, 27
2, 117829, Control_c, 0, 64, 26
2, 117847, Control_c, 0, 64, 25
2, 117886, Control_c, 0, 64, 24
2, 117924, Control_c, 0, 64, 23
2, 117945, Control_c, 0, 64, 22
2, 117991, Note_on_c, 0, 67, 54
2, 118002, Control_c, 0, 64, 21
2, 118022, Control_c, 0, 64, 20
2, 118062, Note_on_c, 0, 68, 0
2, 118118, Control_c, 0, 64, 19
2, 118137, Control_c, 0, 64, 18
2, 118174, Control_c, 0, 64, 17
2, 118214, Control_c, 0, 64, 15
2, 118232, Control_c, 0, 64, 13
2, 118291, Control_c, 0, 64, 15
2, 118310, Control_c, 0, 64, 21
2, 118328, Control_c, 0, 64, 28
2, 118346, Note_on_c, 0, 67, 0
2, 118348, Control_c, 0, 64, 36
2, 118359, Note_on_c, 0, 65, 53
2, 118366, Control_c, 0, 64, 46
2, 118386, Control_c, 0, 64, 55
2, 118405, Control_c, 0, 64, 61
2, 118423, Control_c, 0, 64, 64
2, 118442, Control_c, 0, 64, 66
2, 118464, Control_c, 0, 64, 69
2, 118483, Control_c, 0, 64, 76
2, 118503, Control_c, 0, 64, 86
2, 118520, Control_c, 0, 64, 99
2, 118539, Control_c, 0, 64, 120
2, 118558, Control_c, 0, 64, 127
2, 118710, Note_on_c, 0, 59, 0
2, 118732, Control_c, 0, 64, 106
2, 118750, Note_on_c, 0, 53, 0
2, 118755, Control_c, 0, 64, 79
2, 118766, Note_on_c, 0, 64, 52
2, 118770, Control_c, 0, 64, 66
2, 118770, Note_on_c, 0, 65, 0
2, 118777, Note_on_c, 0, 55, 39
2, 118788, Control_c, 0, 64, 59
2, 118808, Control_c, 0, 64, 54
2, 118830, Control_c, 0, 64, 51
2, 118847, Control_c, 0, 64, 46
2, 118866, Control_c, 0, 64, 41
2, 118887, Control_c, 0, 64, 37
2, 118904, Control_c, 0, 64, 36
2, 118945, Control_c, 0, 64, 35
2, 118963, Control_c, 0, 64, 34
2, 118980, Control_c, 0, 64, 33
2, 119133, Note_on_c, 0, 60, 50
2, 119249, Control_c, 0, 64, 34
2, 119269, Control_c, 0, 64, 35
2, 119284, Note_on_c, 0, 55, 0
2, 119288, Control_c, 0, 64, 36
2, 119308, Control_c, 0, 64, 38
2, 119328, Control_c, 0, 64, 40
2, 119346, Control_c, 0, 64, 43
2, 119366, Control_c, 0, 64, 50
2, 119384, Control_c, 0, 64, 56
2, 119403, Control_c, 0, 64, 60
2, 119422, Control_c, 0, 64, 61
2, 119462, Control_c, 0, 64, 62
2, 119475, Note_on_c, 0, 60, 0
2, 119480, Control_c, 0, 64, 63
2, 119485, Note_on_c, 0, 55, 44
2, 119500, Control_c, 0, 64, 64
2, 119520, Control_c, 0, 64, 65
2, 119539, Control_c, 0, 64, 66
2, 119556, Control_c, 0, 64, 68
2, 119576, Control_c, 0, 64, 72
2, 119598, Control_c, 0, 64, 79
2, 119617, Control_c, 0, 64, 89
2, 119633, Control_c, 0, 64, 103
2, 119655, Control_c, 0, 64, 118
2, 119672, Control_c, 0, 64, 127
2, 119803, Note_on_c, 0, 64, 0
2, 119850, Note_on_c, 0, 55, 0
2, 119856, Note_on_c, 0, 58, 54
2, 119924, Note_on_c, 0, 48, 0
2, 120269, Control_c, 0, 64, 100
2, 120271, Note_on_c, 0, 65, 66
2, 120276, Note_on_c, 0, 56, 63
2, 120286, Control_c, 0, 64, 76
2, 120306, Control_c, 0, 64, 64
2, 120324, Control_c, 0, 64, 55
2, 120347, Control_c, 0, 64, 50
2, 120358, Note_on_c, 0, 58, 0
2, 120362, Control_c, 0, 64, 46
2, 120385, Control_c, 0, 64, 41
2, 120403, Control_c, 0, 64, 34
2, 120422, Control_c, 0, 64, 27
2, 120439, Control_c, 0, 64, 24
2, 120478, Control_c, 0, 64, 23
2, 120498, Control_c, 0, 64, 22
2, 120515, Control_c, 0, 64, 18
2, 120537, Control_c, 0, 64, 17
2, 120557, Control_c, 0, 64, 16
2, 120646, Note_on_c, 0, 53, 52
2, 120957, Control_c, 0, 64, 18
2, 120962, Note_on_c, 0, 53, 0
2, 120978, Control_c, 0, 64, 22
2, 120997, Control_c, 0, 64, 28
2, 121001, Note_on_c, 0, 47, 47
2, 121017, Control_c, 0, 64, 35
2, 121038, Control_c, 0, 64, 43
2, 121059, Control_c, 0, 64, 51
2, 121074, Control_c, 0, 64, 57
2, 121096, Control_c, 0, 64, 61
2, 121113, Control_c, 0, 64, 62
2, 121132, Control_c, 0, 64, 64
2, 121150, Control_c, 0, 64, 67
2, 121169, Control_c, 0, 64, 71
2, 121192, Control_c, 0, 64, 79
2, 121210, Control_c, 0, 64, 92
2, 121229, Control_c, 0, 64, 109
2, 121235, Note_on_c, 0, 65, 0
2, 121246, Control_c, 0, 64, 127
2, 121310, Note_on_c, 0, 47, 0
2, 121357, Note_on_c, 0, 56, 0
2, 121377, Note_on_c, 0, 50, 51
2, 121505, Note_on_c, 0, 50, 0
2, 121781, Control_c, 0, 64, 82
2, 121795, Note_on_c, 0, 36, 43
2, 121795, Note_on_c, 0, 55, 49
2, 121803, Control_c, 0, 64, 66
2, 121819, Control_c, 0, 64, 57
2, 121838, Control_c, 0, 64, 50
2, 121858, Control_c, 0, 64, 43
2, 121877, Control_c, 0, 64, 35
2, 121896, Control_c, 0, 64, 23
2, 121915, Control_c, 0, 64, 10
2, 121935, Control_c, 0, 64, 0
2, 122163, Note_on_c, 0, 62, 57
2, 122542, Note_on_c, 0, 62, 0
2, 122565, Note_on_c, 0, 59, 53
2, 122570, Note_on_c, 0, 53, 54
2, 122606, Note_on_c, 0, 55, 0
2, 122941, Note_on_c, 0, 59, 0
2, 122955, Note_on_c, 0, 60, 53
2, 123349, Note_on_c, 0, 53, 0
2, 123369, Note_on_c, 0, 55, 51
2, 123823, Note_on_c, 0, 58, 52
2, 123832, Note_on_c, 0, 60, 0
2, 124315, Note_on_c, 0, 60, 59
2, 124737, Control_c, 0, 64, 11
2, 124756, Control_c, 0, 64, 21
2, 124776, Control_c, 0, 64, 31
2, 124794, Control_c, 0, 64, 41
2, 124814, Control_c, 0, 64, 49
2, 124836, Control_c, 0, 64, 55
2, 124853, Control_c, 0, 64, 59
2, 124873, Control_c, 0, 64, 61
2, 124891, Control_c, 0, 64, 62
2, 124900, Note_on_c, 0, 64, 60
2, 124911, Control_c, 0, 64, 64
2, 124929, Control_c, 0, 64, 66
2, 124948, Control_c, 0, 64, 68
2, 124952, Note_on_c, 0, 58, 0
2, 124961, Note_on_c, 0, 36, 0
2, 124972, Control_c, 0, 64, 73
2, 124972, Note_on_c, 0, 60, 0
2, 124989, Control_c, 0, 64, 78
2, 125006, Control_c, 0, 64, 86
2, 125027, Control_c, 0, 64, 95
2, 125045, Control_c, 0, 64, 109
2, 125064, Control_c, 0, 64, 127
2, 125172, Note_on_c, 0, 55, 0
2, 125460, Note_on_c, 0, 64, 0
2, 125873, Note_on_c, 0, 41, 41
2, 125967, Control_c, 0, 64, 110
2, 125986, Control_c, 0, 64, 87
2, 125999, Note_on_c, 0, 53, 48
2, 126005, Control_c, 0, 64, 73
2, 126025, Control_c, 0, 64, 65
2, 126043, Control_c, 0, 64, 61
2, 126056, Note_on_c, 0, 57, 38
2, 126063, Control_c, 0, 64, 57
2, 126081, Control_c, 0, 64, 53
2, 126101, Control_c, 0, 64, 47
2, 126119, Control_c, 0, 64, 40
2, 126140, Control_c, 0, 64, 33
2, 126153, Note_on_c, 0, 60, 49
2, 126162, Control_c, 0, 64, 24
2, 126178, Control_c, 0, 64, 15
2, 126197, Control_c, 0, 64, 0
2, 126217, Note_on_c, 0, 65, 51
2, 126755, Control_c, 0, 64, 16
2, 126774, Control_c, 0, 64, 32
2, 126793, Control_c, 0, 64, 40
2, 126812, Control_c, 0, 64, 44
2, 126829, Control_c, 0, 64, 48
2, 126849, Control_c, 0, 64, 52
2, 126870, Control_c, 0, 64, 56
2, 126889, Control_c, 0, 64, 58
2, 126907, Control_c, 0, 64, 59
2, 126927, Control_c, 0, 64, 60
2, 126945, Control_c, 0, 64, 61
2, 126966, Control_c, 0, 64, 62
2, 126983, Control_c, 0, 64, 63
2, 127003, Control_c, 0, 64, 64
2, 127041, Control_c, 0, 64, 65
2, 127060, Control_c, 0, 64, 66
2, 127083, Control_c, 0, 64, 67
2, 127120, Control_c, 0, 64, 68
2, 127138, Control_c, 0, 64, 69
2, 127160, Control_c, 0, 64, 70
2, 127176, Control_c, 0, 64, 71
2, 127196, Control_c, 0, 64, 72
2, 127213, Control_c, 0, 64, 74
2, 127235, Control_c, 0, 64, 76
2, 127253, Control_c, 0, 64, 78
2, 127272, Control_c, 0, 64, 79
2, 127291, Control_c, 0, 64, 81
2, 127311, Control_c, 0, 64, 82
2, 127331, Control_c, 0, 64, 85
2, 127349, Control_c, 0, 64, 88
2, 127368, Control_c, 0, 64, 92
2, 127387, Control_c, 0, 64, 97
2, 127407, Control_c, 0, 64, 102
2, 127424, Control_c, 0, 64, 109
2, 127445, Control_c, 0, 64, 127
2, 129417, Note_on_c, 0, 65, 0
2, 129424, Note_on_c, 0, 60, 0
2, 129467, Note_on_c, 0, 57, 0
2, 129531, Note_on_c, 0, 41, 0
2, 129531, Note_on_c, 0, 53, 0
2, 129882, Control_c, 0, 64, 109
2, 129901, Control_c, 0, 64, 103
2, 129922, Control_c, 0, 64, 97
2, 129943, Control_c, 0, 64, 92
2, 129959, Control_c, 0, 64, 87
2, 129979, Control_c, 0, 64, 85
2, 129998, Control_c, 0, 64, 83
2, 130021, Control_c, 0, 64, 82
2, 130039, Control_c, 0, 64, 80
2, 130058, Control_c, 0, 64, 78
2, 130074, Control_c, 0, 64, 77
2, 130096, Control_c, 0, 64, 75
2, 130132, Control_c, 0, 64, 74
2, 130151, Control_c, 0, 64, 73
2, 130174, Control_c, 0, 64, 72
2, 130193, Control_c, 0, 64, 70
2, 130211, Control_c, 0, 64, 69
2, 130229, Control_c, 0, 64, 67
2, 130363, Control_c, 0, 64, 66
2, 130575, Control_c, 0, 64, 65
2, 130671, Control_c, 0, 64, 64
2, 130730, Control_c, 0, 64, 63
2, 130747, Control_c, 0, 64, 61
2, 130767, Control_c, 0, 64, 60
2, 130786, Control_c, 0, 64, 57
2, 130804, Control_c, 0, 64, 55
2, 130824, Control_c, 0, 64, 51
2, 130843, Control_c, 0, 64, 47
2, 130865, Control_c, 0, 64, 42
2, 130881, Control_c, 0, 64, 36
2, 130901, Control_c, 0, 64, 29
2, 130918, Control_c, 0, 64, 18
2, 130940, Control_c, 0, 64, 0
2, 132133, Note_on_c, 0, 60, 44
2, 133050, Note_on_c, 0, 61, 53
2, 133142, Note_on_c, 0, 60, 0
2, 133963, Note_on_c, 0, 60, 51
2, 134068, Note_on_c, 0, 61, 0
2, 134874, Note_on_c, 0, 59, 50
2, 134951, Note_on_c, 0, 60, 0
2, 135786, Note_on_c, 0, 64, 62
2, 135849, Note_on_c, 0, 59, 0
2, 136706, Note_on_c, 0, 65, 57
2, 136775, Note_on_c, 0, 64, 0
2, 137667, Note_on_c, 0, 58, 53
2, 137792, Note_on_c, 0, 65, 0
2, 138597, Note_on_c, 0, 57, 54
2, 138693, Note_on_c, 0, 58, 0
2, 139522, Note_on_c, 0, 56, 47
2, 139666, Note_on_c, 0, 57, 0
2, 140532, Note_on_c, 0, 55, 39
2, 140627, Note_on_c, 0, 56, 0
2, 142334, Note_on_c, 0, 53, 31
2, 142363, Note_on_c, 0, 55, 0
2, 142466, Note_on_c, 0, 53, 0
2, 142734, Note_on_c, 0, 53, 45
2, 142928, Note_on_c, 0, 53, 0
2, 142943, Note_on_c, 0, 55, 50
2, 143170, Note_on_c, 0, 55, 0
2, 143218, Note_on_c, 0, 56, 41
2, 143218, Note_on_c, 0, 65, 51
2, 143337, Note_on_c, 0, 56, 0
2, 143627, Note_on_c, 0, 56, 48
2, 143713, Control_c, 0, 64, 12
2, 143730, Control_c, 0, 64, 13
2, 143749, Control_c, 0, 64, 14
2, 143769, Control_c, 0, 64, 16
2, 143785, Control_c, 0, 64, 17
2, 143802, Note_on_c, 0, 56, 0
2, 143807, Control_c, 0, 64, 18
2, 143835, Note_on_c, 0, 58, 50
2, 143921, Control_c, 0, 64, 17
2, 143997, Control_c, 0, 64, 16
2, 144015, Note_on_c, 0, 58, 0
2, 144073, Note_on_c, 0, 68, 70
2, 144077, Control_c, 0, 64, 15
2, 144077, Note_on_c, 0, 60, 52
2, 144097, Control_c, 0, 64, 12
2, 144114, Control_c, 0, 64, 0
2, 144173, Note_on_c, 0, 60, 0
2, 144247, Note_on_c, 0, 65, 0
2, 144265, Note_on_c, 0, 47, 48
2, 144475, Note_on_c, 0, 47, 0
2, 144495, Note_on_c, 0, 48, 47
2, 144663, Note_on_c, 0, 48, 0
2, 144700, Note_on_c, 0, 50, 45
2, 144901, Note_on_c, 0, 50, 0
2, 144936, Note_on_c, 0, 67, 56
2, 144945, Note_on_c, 0, 51, 40
2, 145068, Note_on_c, 0, 68, 0
2, 145246, Control_c, 0, 64, 25
2, 145266, Control_c, 0, 64, 34
2, 145284, Control_c, 0, 64, 42
2, 145303, Control_c, 0, 64, 51
2, 145323, Control_c, 0, 64, 58
2, 145340, Control_c, 0, 64, 61
2, 145360, Control_c, 0, 64, 62
2, 145380, Control_c, 0, 64, 63
2, 145402, Control_c, 0, 64, 66
2, 145420, Control_c, 0, 64, 70
2, 145439, Control_c, 0, 64, 76
2, 145456, Control_c, 0, 64, 81
2, 145476, Control_c, 0, 64, 82
2, 145555, Control_c, 0, 64, 81
2, 145591, Control_c, 0, 64, 79
2, 145609, Control_c, 0, 64, 78
2, 145631, Control_c, 0, 64, 77
2, 145650, Control_c, 0, 64, 76
2, 145669, Control_c, 0, 64, 74
2, 145686, Control_c, 0, 64, 73
2, 145726, Control_c, 0, 64, 72
2, 145744, Control_c, 0, 64, 71
2, 145766, Control_c, 0, 64, 70
2, 145774, Note_on_c, 0, 51, 0
2, 145787, Control_c, 0, 64, 69
2, 145803, Control_c, 0, 64, 68
2, 145822, Control_c, 0, 64, 67
2, 145842, Control_c, 0, 64, 66
2, 145856, Note_on_c, 0, 66, 54
2, 145861, Control_c, 0, 64, 65
2, 145880, Control_c, 0, 64, 63
2, 145899, Control_c, 0, 64, 60
2, 145901, Note_on_c, 0, 67, 0
2, 145919, Control_c, 0, 64, 58
2, 145940, Control_c, 0, 64, 56
2, 145956, Control_c, 0, 64, 54
2, 145975, Control_c, 0, 64, 52
2, 145997, Control_c, 0, 64, 50
2, 146015, Control_c, 0, 64, 48
2, 146033, Control_c, 0, 64, 47
2, 146053, Control_c, 0, 64, 46
2, 146071, Control_c, 0, 64, 45
2, 146075, Note_on_c, 0, 48, 44
2, 146110, Control_c, 0, 64, 44
2, 146127, Control_c, 0, 64, 43
2, 146266, Note_on_c, 0, 48, 0
2, 146291, Note_on_c, 0, 50, 51
2, 146463, Note_on_c, 0, 50, 0
2, 146483, Note_on_c, 0, 51, 56
2, 146646, Control_c, 0, 64, 42
2, 146717, Note_on_c, 0, 71, 69
2, 146738, Note_on_c, 0, 51, 0
2, 146743, Note_on_c, 0, 53, 47
2, 146747, Control_c, 0, 64, 41
2, 146782, Control_c, 0, 64, 40
2, 146843, Control_c, 0, 64, 39
2, 146843, Note_on_c, 0, 66, 0
2, 147032, Control_c, 0, 64, 38
2, 147203, Control_c, 0, 64, 37
2, 147597, Note_on_c, 0, 72, 71
2, 147626, Note_on_c, 0, 53, 0
2, 147688, Note_on_c, 0, 71, 0
2, 147704, Control_c, 0, 64, 36
2, 147816, Note_on_c, 0, 51, 60
2, 147820, Control_c, 0, 64, 35
2, 148026, Note_on_c, 0, 53, 62
2, 148030, Control_c, 0, 64, 34
2, 148050, Note_on_c, 0, 51, 0
2, 148186, Note_on_c, 0, 53, 0
2, 148228, Note_on_c, 0, 55, 53
2, 148447, Note_on_c, 0, 55, 0
2, 148467, Note_on_c, 0, 65, 58
2, 148469, Note_on_c, 0, 56, 48
2, 148603, Note_on_c, 0, 72, 0
2, 149087, Control_c, 0, 64, 33
2, 149123, Control_c, 0, 64, 32
2, 149162, Control_c, 0, 64, 31
2, 149181, Control_c, 0, 64, 30
2, 149242, Control_c, 0, 64, 29
2, 149277, Control_c, 0, 64, 28
2, 149352, Note_on_c, 0, 56, 0
2, 149372, Note_on_c, 0, 64, 54
2, 149420, Note_on_c, 0, 65, 0
2, 149509, Control_c, 0, 64, 27
2, 149593, Note_on_c, 0, 55, 43
2, 149791, Note_on_c, 0, 55, 0
2, 149811, Note_on_c, 0, 57, 51
2, 149976, Note_on_c, 0, 57, 0
2, 150018, Note_on_c, 0, 59, 42
2, 150233, Note_on_c, 0, 59, 0
2, 150246, Note_on_c, 0, 63, 49
2, 150277, Note_on_c, 0, 60, 40
2, 150317, Note_on_c, 0, 64, 0
2, 151123, Note_on_c, 0, 62, 42
2, 151207, Note_on_c, 0, 63, 0
2, 151517, Note_on_c, 0, 60, 0
2, 151543, Note_on_c, 0, 59, 44
2, 151726, Note_on_c, 0, 59, 0
2, 151757, Note_on_c, 0, 57, 48
2, 151964, Note_on_c, 0, 57, 0
2, 152009, Note_on_c, 0, 59, 44
2, 152191, Note_on_c, 0, 59, 0
2, 152226, Note_on_c, 0, 60, 49
2, 152277, Note_on_c, 0, 60, 0
2, 152320, Note_on_c, 0, 59, 48
2, 152382, Note_on_c, 0, 59, 0
2, 152407, Note_on_c, 0, 60, 58
2, 152465, Note_on_c, 0, 60, 0
2, 152498, Note_on_c, 0, 59, 59
2, 152547, Note_on_c, 0, 59, 0
2, 152577, Note_on_c, 0, 57, 64
2, 152660, Note_on_c, 0, 57, 0
2, 152685, Note_on_c, 0, 59, 58
2, 152696, Control_c, 0, 64, 21
2, 152716, Control_c, 0, 64, 0
2, 152771, Note_on_c, 0, 62, 0
2, 152800, Note_on_c, 0, 60, 58
2, 152837, Note_on_c, 0, 59, 0
2, 152930, Note_on_c, 0, 60, 0
2, 153187, Note_on_c, 0, 55, 46
2, 153200, Note_on_c, 0, 60, 47
2, 153244, Note_on_c, 0, 55, 0
2, 153349, Note_on_c, 0, 60, 0
2, 153395, Note_on_c, 0, 62, 53
2, 153646, Note_on_c, 0, 48, 64
2, 153666, Note_on_c, 0, 64, 58
2, 153671, Note_on_c, 0, 62, 0
2, 153682, Note_on_c, 0, 60, 51
2, 153816, Note_on_c, 0, 60, 0
2, 154088, Note_on_c, 0, 64, 0
2, 154098, Note_on_c, 0, 62, 59
2, 154102, Note_on_c, 0, 58, 54
2, 154276, Note_on_c, 0, 58, 0
2, 154281, Note_on_c, 0, 64, 59
2, 154334, Note_on_c, 0, 62, 0
2, 154530, Note_on_c, 0, 49, 70
2, 154550, Note_on_c, 0, 56, 62
2, 154550, Note_on_c, 0, 65, 67
2, 154578, Note_on_c, 0, 48, 0
2, 154600, Note_on_c, 0, 64, 0
2, 154680, Note_on_c, 0, 56, 0
2, 154684, Note_on_c, 0, 65, 0
2, 154739, Note_on_c, 0, 52, 65
2, 154954, Note_on_c, 0, 52, 0
2, 154970, Note_on_c, 0, 53, 58
2, 154970, Note_on_c, 0, 65, 55
2, 155124, Note_on_c, 0, 53, 0
2, 155187, Note_on_c, 0, 55, 58
2, 155358, Note_on_c, 0, 55, 0
2, 155418, Note_on_c, 0, 48, 68
2, 155433, Note_on_c, 0, 56, 67
2, 155446, Note_on_c, 0, 49, 0
2, 155781, Note_on_c, 0, 56, 0
2, 155853, Note_on_c, 0, 63, 63
2, 155889, Note_on_c, 0, 65, 0
2, 156284, Note_on_c, 0, 48, 0
2, 156286, Note_on_c, 0, 47, 62
2, 156292, Note_on_c, 0, 63, 0
2, 156296, Note_on_c, 0, 62, 64
2, 156491, Note_on_c, 0, 53, 65
2, 156706, Note_on_c, 0, 53, 0
2, 156715, Note_on_c, 0, 55, 67
2, 156729, Note_on_c, 0, 63, 72
2, 156815, Note_on_c, 0, 62, 0
2, 156834, Note_on_c, 0, 55, 0
2, 156920, Note_on_c, 0, 65, 68
2, 156930, Note_on_c, 0, 56, 68
2, 156946, Note_on_c, 0, 63, 0
2, 156988, Note_on_c, 0, 56, 0
2, 157152, Note_on_c, 0, 65, 0
2, 157164, Note_on_c, 0, 67, 67
2, 157171, Note_on_c, 0, 52, 81
2, 157171, Note_on_c, 0, 58, 62
2, 157235, Note_on_c, 0, 47, 0
2, 157377, Note_on_c, 0, 65, 71
2, 157600, Note_on_c, 0, 64, 70
2, 157617, Note_on_c, 0, 58, 0
2, 157639, Note_on_c, 0, 67, 0
2, 157795, Note_on_c, 0, 62, 69
2, 157797, Note_on_c, 0, 65, 0
2, 157813, Note_on_c, 0, 64, 0
2, 158024, Note_on_c, 0, 62, 0
2, 158048, Note_on_c, 0, 60, 68
2, 158056, Note_on_c, 0, 53, 74
2, 158081, Note_on_c, 0, 52, 0
2, 158257, Note_on_c, 0, 56, 69
2, 158304, Note_on_c, 0, 60, 0
2, 158476, Note_on_c, 0, 58, 66
2, 158487, Note_on_c, 0, 56, 0
2, 158667, Note_on_c, 0, 58, 0
2, 158681, Note_on_c, 0, 60, 69
2, 158906, Note_on_c, 0, 60, 0
2, 158910, Note_on_c, 0, 46, 66
2, 158915, Note_on_c, 0, 61, 58
2, 158947, Note_on_c, 0, 53, 0
2, 159122, Note_on_c, 0, 58, 58
2, 159349, Note_on_c, 0, 56, 58
2, 159443, Note_on_c, 0, 61, 0
2, 159534, Note_on_c, 0, 58, 0
2, 159557, Note_on_c, 0, 55, 53
2, 159595, Note_on_c, 0, 56, 0
2, 159737, Note_on_c, 0, 55, 0
2, 159782, Note_on_c, 0, 53, 61
2, 159786, Note_on_c, 0, 45, 61
2, 159806, Note_on_c, 0, 46, 0
2, 160002, Note_on_c, 0, 60, 53
2, 160175, Note_on_c, 0, 60, 0
2, 160210, Note_on_c, 0, 62, 57
2, 160399, Note_on_c, 0, 62, 0
2, 160426, Note_on_c, 0, 64, 59
2, 160644, Note_on_c, 0, 44, 65
2, 160674, Note_on_c, 0, 64, 0
2, 160679, Note_on_c, 0, 45, 0
2, 160679, Note_on_c, 0, 65, 59
2, 160690, Note_on_c, 0, 53, 0
2, 160867, Note_on_c, 0, 53, 43
2, 161090, Note_on_c, 0, 55, 53
2, 161117, Note_on_c, 0, 53, 0
2, 161246, Note_on_c, 0, 55, 0
2, 161294, Note_on_c, 0, 56, 48
2, 161516, Note_on_c, 0, 56, 0
2, 161566, Note_on_c, 0, 43, 56
2, 161566, Note_on_c, 0, 58, 47
2, 161595, Note_on_c, 0, 44, 0
2, 161947, Note_on_c, 0, 65, 0
2, 161991, Note_on_c, 0, 64, 56
2, 162174, Note_on_c, 0, 64, 0
2, 162202, Note_on_c, 0, 62, 59
2, 162413, Note_on_c, 0, 62, 0
2, 162426, Note_on_c, 0, 64, 64
2, 162631, Note_on_c, 0, 64, 0
2, 162642, Note_on_c, 0, 65, 58
2, 162736, Note_on_c, 0, 65, 0
2, 162755, Note_on_c, 0, 64, 65
2, 162833, Note_on_c, 0, 56, 66
2, 162843, Note_on_c, 0, 64, 0
2, 162851, Note_on_c, 0, 65, 62
2, 162906, Note_on_c, 0, 56, 0
2, 162935, Note_on_c, 0, 64, 67
2, 162950, Note_on_c, 0, 65, 0
2, 162987, Note_on_c, 0, 58, 0
2, 163038, Note_on_c, 0, 64, 0
2, 163042, Note_on_c, 0, 55, 49
2, 163047, Note_on_c, 0, 62, 71
2, 163078, Note_on_c, 0, 55, 0
2, 163148, Note_on_c, 0, 62, 0
2, 163148, Note_on_c, 0, 64, 65
2, 163278, Note_on_c, 0, 43, 0
2, 163295, Note_on_c, 0, 64, 0
2, 163309, Note_on_c, 0, 65, 59
2, 163313, Note_on_c, 0, 41, 45
2, 163320, Note_on_c, 0, 56, 57
2, 163367, Control_c, 0, 64, 13
2, 163385, Control_c, 0, 64, 41
2, 163405, Control_c, 0, 64, 61
2, 163409, Note_on_c, 0, 41, 0
2, 163416, Note_on_c, 0, 56, 0
2, 163427, Control_c, 0, 64, 71
2, 163446, Control_c, 0, 64, 84
2, 163454, Note_on_c, 0, 65, 0
2, 163463, Control_c, 0, 64, 127
2, 163755, Note_on_c, 0, 65, 53
2, 163771, Control_c, 0, 64, 110
2, 163789, Control_c, 0, 64, 78
2, 163809, Control_c, 0, 64, 63
2, 163827, Control_c, 0, 64, 45
2, 163847, Control_c, 0, 64, 23
2, 163867, Control_c, 0, 64, 0
2, 163974, Note_on_c, 0, 65, 0
2, 163979, Note_on_c, 0, 67, 64
2, 164212, Control_c, 0, 64, 25
2, 164232, Control_c, 0, 64, 46
2, 164237, Note_on_c, 0, 67, 0
2, 164237, Note_on_c, 0, 68, 68
2, 164250, Control_c, 0, 64, 57
2, 164269, Control_c, 0, 64, 63
2, 164289, Control_c, 0, 64, 66
2, 164308, Control_c, 0, 64, 68
2, 164326, Control_c, 0, 64, 73
2, 164346, Control_c, 0, 64, 79
2, 164364, Control_c, 0, 64, 89
2, 164387, Control_c, 0, 64, 100
2, 164387, Note_on_c, 0, 68, 0
2, 164403, Control_c, 0, 64, 120
2, 164421, Control_c, 0, 64, 127
2, 164636, Control_c, 0, 64, 88
2, 164653, Control_c, 0, 64, 69
2, 164658, Note_on_c, 0, 68, 72
2, 164663, Note_on_c, 0, 53, 55
2, 164672, Control_c, 0, 64, 60
2, 164693, Control_c, 0, 64, 49
2, 164711, Control_c, 0, 64, 35
2, 164730, Control_c, 0, 64, 17
2, 164750, Control_c, 0, 64, 0
2, 164861, Note_on_c, 0, 53, 0
2, 164866, Note_on_c, 0, 70, 78
2, 164874, Note_on_c, 0, 55, 62
2, 164888, Note_on_c, 0, 68, 0
2, 165102, Note_on_c, 0, 55, 0
2, 165132, Note_on_c, 0, 56, 57
2, 165132, Note_on_c, 0, 72, 77
2, 165145, Note_on_c, 0, 70, 0
2, 165209, Control_c, 0, 64, 31
2, 165229, Control_c, 0, 64, 47
2, 165249, Control_c, 0, 64, 58
2, 165266, Control_c, 0, 64, 63
2, 165286, Control_c, 0, 64, 65
2, 165293, Note_on_c, 0, 56, 0
2, 165305, Control_c, 0, 64, 67
2, 165328, Control_c, 0, 64, 71
2, 165346, Control_c, 0, 64, 77
2, 165363, Control_c, 0, 64, 87
2, 165387, Control_c, 0, 64, 100
2, 165405, Control_c, 0, 64, 127
2, 165537, Control_c, 0, 64, 98
2, 165556, Control_c, 0, 64, 74
2, 165563, Note_on_c, 0, 60, 68
2, 165570, Note_on_c, 0, 56, 65
2, 165574, Control_c, 0, 64, 63
2, 165595, Control_c, 0, 64, 55
2, 165613, Control_c, 0, 64, 45
2, 165631, Control_c, 0, 64, 39
2, 165651, Control_c, 0, 64, 32
2, 165673, Control_c, 0, 64, 24
2, 165693, Control_c, 0, 64, 16
2, 165709, Control_c, 0, 64, 0
2, 165763, Note_on_c, 0, 60, 0
2, 165773, Note_on_c, 0, 58, 70
2, 165789, Note_on_c, 0, 56, 0
2, 165793, Note_on_c, 0, 61, 60
2, 166002, Note_on_c, 0, 61, 0
2, 166022, Note_on_c, 0, 60, 63
2, 166022, Note_on_c, 0, 63, 71
2, 166049, Note_on_c, 0, 58, 0
2, 166109, Note_on_c, 0, 60, 0
2, 166210, Note_on_c, 0, 70, 73
2, 166246, Note_on_c, 0, 72, 0
2, 166433, Note_on_c, 0, 70, 0
2, 166437, Note_on_c, 0, 48, 55
2, 166437, Note_on_c, 0, 68, 70
2, 166511, Note_on_c, 0, 48, 0
2, 166600, Note_on_c, 0, 68, 0
2, 166647, Note_on_c, 0, 67, 64
2, 166886, Note_on_c, 0, 67, 0
2, 166930, Note_on_c, 0, 49, 45
2, 166930, Note_on_c, 0, 65, 57
2, 167315, Note_on_c, 0, 63, 0
2, 167351, Note_on_c, 0, 65, 0
2, 167362, Note_on_c, 0, 61, 57
2, 167568, Note_on_c, 0, 63, 66
2, 167577, Note_on_c, 0, 61, 0
2, 167826, Note_on_c, 0, 65, 63
2, 167835, Note_on_c, 0, 63, 0
2, 167841, Control_c, 0, 64, 26
2, 167859, Control_c, 0, 64, 45
2, 167878, Control_c, 0, 64, 58
2, 167898, Control_c, 0, 64, 63
2, 167916, Control_c, 0, 64, 66
2, 167936, Control_c, 0, 64, 69
2, 167943, Note_on_c, 0, 49, 0
2, 167956, Control_c, 0, 64, 75
2, 167975, Control_c, 0, 64, 84
2, 167984, Note_on_c, 0, 65, 0
2, 167997, Control_c, 0, 64, 95
2, 168012, Control_c, 0, 64, 113
2, 168033, Control_c, 0, 64, 127
2, 168225, Control_c, 0, 64, 80
2, 168247, Control_c, 0, 64, 64
2, 168247, Note_on_c, 0, 49, 54
2, 168247, Note_on_c, 0, 65, 64
2, 168262, Control_c, 0, 64, 53
2, 168282, Control_c, 0, 64, 38
2, 168301, Control_c, 0, 64, 13
2, 168319, Control_c, 0, 64, 0
2, 168437, Note_on_c, 0, 49, 0
2, 168467, Note_on_c, 0, 51, 58
2, 168467, Note_on_c, 0, 67, 69
2, 168469, Note_on_c, 0, 65, 0
2, 168676, Note_on_c, 0, 51, 0
2, 168713, Note_on_c, 0, 53, 49
2, 168718, Note_on_c, 0, 67, 0
2, 168722, Note_on_c, 0, 68, 67
2, 168783, Control_c, 0, 64, 37
2, 168800, Control_c, 0, 64, 50
2, 168821, Control_c, 0, 64, 58
2, 168838, Control_c, 0, 64, 62
2, 168847, Note_on_c, 0, 53, 0
2, 168858, Control_c, 0, 64, 64
2, 168881, Control_c, 0, 64, 66
2, 168896, Control_c, 0, 64, 73
2, 168916, Control_c, 0, 64, 93
2, 168936, Control_c, 0, 64, 127
2, 169090, Control_c, 0, 64, 85
2, 169108, Control_c, 0, 64, 67
2, 169126, Control_c, 0, 64, 57
2, 169136, Note_on_c, 0, 53, 55
2, 169147, Control_c, 0, 64, 48
2, 169147, Note_on_c, 0, 56, 59
2, 169165, Control_c, 0, 64, 41
2, 169185, Control_c, 0, 64, 36
2, 169203, Control_c, 0, 64, 31
2, 169222, Control_c, 0, 64, 25
2, 169242, Control_c, 0, 64, 22
2, 169263, Control_c, 0, 64, 21
2, 169279, Control_c, 0, 64, 20
2, 169301, Control_c, 0, 64, 18
2, 169320, Control_c, 0, 64, 16
2, 169326, Note_on_c, 0, 56, 0
2, 169330, Note_on_c, 0, 53, 0
2, 169339, Note_on_c, 0, 58, 61
2, 169343, Control_c, 0, 64, 15
2, 169359, Note_on_c, 0, 55, 59
2, 169473, Control_c, 0, 64, 14
2, 169491, Control_c, 0, 64, 11
2, 169512, Control_c, 0, 64, 0
2, 169512, Note_on_c, 0, 58, 0
2, 169565, Note_on_c, 0, 55, 0
2, 169576, Note_on_c, 0, 60, 58
2, 169611, Note_on_c, 0, 56, 53
2, 169680, Note_on_c, 0, 56, 0
2, 169800, Note_on_c, 0, 66, 58
2, 169804, Note_on_c, 0, 68, 0
2, 169997, Note_on_c, 0, 44, 44
2, 170021, Note_on_c, 0, 66, 0
2, 170034, Note_on_c, 0, 65, 54
2, 170066, Note_on_c, 0, 44, 0
2, 170219, Note_on_c, 0, 65, 0
2, 170264, Note_on_c, 0, 63, 49
2, 170532, Note_on_c, 0, 63, 0
2, 170537, Note_on_c, 0, 46, 36
2, 170548, Note_on_c, 0, 61, 42
2, 170938, Note_on_c, 0, 61, 0
2, 170971, Note_on_c, 0, 60, 0
2, 170982, Note_on_c, 0, 58, 47
2, 171159, Note_on_c, 0, 58, 0
2, 171177, Note_on_c, 0, 60, 54
2, 171392, Control_c, 0, 64, 18
2, 171410, Control_c, 0, 64, 42
2, 171425, Note_on_c, 0, 60, 0
2, 171430, Control_c, 0, 64, 55
2, 171453, Control_c, 0, 64, 62
2, 171453, Note_on_c, 0, 61, 49
2, 171470, Control_c, 0, 64, 64
2, 171490, Control_c, 0, 64, 67
2, 171504, Note_on_c, 0, 61, 0
2, 171509, Control_c, 0, 64, 70
2, 171513, Note_on_c, 0, 46, 0
2, 171528, Control_c, 0, 64, 80
2, 171546, Control_c, 0, 64, 94
2, 171568, Control_c, 0, 64, 127
2, 171850, Note_on_c, 0, 61, 58
2, 171858, Note_on_c, 0, 46, 49
2, 171872, Control_c, 0, 64, 89
2, 171890, Control_c, 0, 64, 71
2, 171912, Control_c, 0, 64, 61
2, 171931, Control_c, 0, 64, 47
2, 171949, Control_c, 0, 64, 35
2, 171969, Control_c, 0, 64, 22
2, 171988, Control_c, 0, 64, 0
2, 172009, Note_on_c, 0, 46, 0
2, 172052, Note_on_c, 0, 48, 49
2, 172070, Note_on_c, 0, 61, 0
2, 172074, Note_on_c, 0, 63, 66
2, 172289, Note_on_c, 0, 48, 0
2, 172331, Note_on_c, 0, 49, 48
2, 172331, Note_on_c, 0, 65, 58
2, 172373, Control_c, 0, 64, 31
2, 172377, Note_on_c, 0, 63, 0
2, 172390, Control_c, 0, 64, 49
2, 172411, Control_c, 0, 64, 60
2, 172429, Control_c, 0, 64, 65
2, 172445, Note_on_c, 0, 49, 0
2, 172449, Control_c, 0, 64, 68
2, 172467, Control_c, 0, 64, 74
2, 172488, Control_c, 0, 64, 88
2, 172507, Control_c, 0, 64, 127
2, 172739, Control_c, 0, 64, 78
2, 172757, Control_c, 0, 64, 63
2, 172757, Note_on_c, 0, 49, 53
2, 172761, Note_on_c, 0, 53, 52
2, 172776, Control_c, 0, 64, 48
2, 172796, Control_c, 0, 64, 36
2, 172814, Control_c, 0, 64, 23
2, 172833, Control_c, 0, 64, 0
2, 172942, Note_on_c, 0, 53, 0
2, 172955, Note_on_c, 0, 49, 0
2, 172973, Note_on_c, 0, 51, 62
2, 172975, Note_on_c, 0, 55, 52
2, 173218, Note_on_c, 0, 56, 56
2, 173225, Note_on_c, 0, 51, 0
2, 173229, Note_on_c, 0, 53, 52
2, 173269, Note_on_c, 0, 55, 0
2, 173314, Control_c, 0, 64, 39
2, 173330, Control_c, 0, 64, 54
2, 173347, Note_on_c, 0, 53, 0
2, 173351, Control_c, 0, 64, 61
2, 173370, Control_c, 0, 64, 62
2, 173385, Note_on_c, 0, 56, 0
2, 173389, Control_c, 0, 64, 61
2, 173408, Control_c, 0, 64, 60
2, 173427, Control_c, 0, 64, 57
2, 173447, Control_c, 0, 64, 50
2, 173467, Control_c, 0, 64, 39
2, 173484, Control_c, 0, 64, 0
2, 173637, Note_on_c, 0, 41, 58
2, 173637, Note_on_c, 0, 56, 52
2, 173723, Note_on_c, 0, 41, 0
2, 173817, Note_on_c, 0, 56, 0
2, 173835, Note_on_c, 0, 58, 62
2, 174041, Control_c, 0, 64, 29
2, 174061, Control_c, 0, 64, 50
2, 174074, Note_on_c, 0, 58, 0
2, 174083, Control_c, 0, 64, 59
2, 174092, Note_on_c, 0, 60, 58
2, 174096, Note_on_c, 0, 48, 52
2, 174096, Note_on_c, 0, 65, 0
2, 174101, Control_c, 0, 64, 63
2, 174121, Control_c, 0, 64, 65
2, 174139, Control_c, 0, 64, 68
2, 174157, Control_c, 0, 64, 71
2, 174177, Control_c, 0, 64, 76
2, 174199, Control_c, 0, 64, 82
2, 174205, Note_on_c, 0, 48, 0
2, 174214, Control_c, 0, 64, 85
2, 174236, Control_c, 0, 64, 87
2, 174272, Control_c, 0, 64, 88
2, 174290, Control_c, 0, 64, 90
2, 174313, Control_c, 0, 64, 91
2, 174331, Control_c, 0, 64, 92
2, 174464, Note_on_c, 0, 60, 0
2, 174484, Control_c, 0, 64, 88
2, 174502, Control_c, 0, 64, 83
2, 174506, Note_on_c, 0, 48, 55
2, 174520, Note_on_c, 0, 64, 59
2, 174524, Control_c, 0, 64, 74
2, 174533, Note_on_c, 0, 55, 44
2, 174542, Control_c, 0, 64, 66
2, 174560, Control_c, 0, 64, 59
2, 174581, Control_c, 0, 64, 52
2, 174599, Control_c, 0, 64, 45
2, 174619, Control_c, 0, 64, 35
2, 174637, Control_c, 0, 64, 19
2, 174657, Note_on_c, 0, 48, 0
2, 174660, Control_c, 0, 64, 0
2, 174678, Note_on_c, 0, 64, 0
2, 174723, Note_on_c, 0, 65, 54
2, 174728, Note_on_c, 0, 50, 51
2, 174972, Note_on_c, 0, 50, 0
2, 175031, Note_on_c, 0, 55, 0
2, 175031, Note_on_c, 0, 67, 71
2, 175031, Note_on_c, 0, 72, 81
2, 175044, Note_on_c, 0, 52, 52
2, 175055, Note_on_c, 0, 60, 52
2, 175100, Control_c, 0, 64, 42
2, 175107, Note_on_c, 0, 65, 0
2, 175117, Control_c, 0, 64, 54
2, 175137, Control_c, 0, 64, 61
2, 175155, Control_c, 0, 64, 64
2, 175175, Control_c, 0, 64, 66
2, 175194, Control_c, 0, 64, 69
2, 175194, Note_on_c, 0, 60, 0
2, 175212, Control_c, 0, 64, 75
2, 175231, Control_c, 0, 64, 89
2, 175250, Control_c, 0, 64, 127
2, 175284, Note_on_c, 0, 52, 0
2, 175444, Control_c, 0, 64, 78
2, 175463, Control_c, 0, 64, 58
2, 175481, Control_c, 0, 64, 18
2, 175503, Control_c, 0, 64, 0
2, 175503, Note_on_c, 0, 50, 61
2, 175507, Note_on_c, 0, 58, 58
2, 175519, Control_c, 0, 64, 14
2, 175539, Control_c, 0, 64, 40
2, 175559, Control_c, 0, 64, 57
2, 175581, Control_c, 0, 64, 66
2, 175597, Control_c, 0, 64, 74
2, 175615, Control_c, 0, 64, 87
2, 175636, Control_c, 0, 64, 104
2, 175643, Note_on_c, 0, 72, 0
2, 175654, Control_c, 0, 64, 127
2, 175665, Note_on_c, 0, 58, 0
2, 175686, Note_on_c, 0, 50, 0
2, 175724, Note_on_c, 0, 52, 62
2, 175884, Control_c, 0, 64, 99
2, 175905, Control_c, 0, 64, 64
2, 175924, Control_c, 0, 64, 29
2, 175939, Note_on_c, 0, 52, 0
2, 175943, Control_c, 0, 64, 0
2, 175960, Note_on_c, 0, 53, 67
2, 175960, Note_on_c, 0, 73, 89
2, 175964, Control_c, 0, 64, 33
2, 175964, Note_on_c, 0, 56, 59
2, 175982, Control_c, 0, 64, 51
2, 175999, Control_c, 0, 64, 63
2, 176006, Note_on_c, 0, 56, 0
2, 176010, Note_on_c, 0, 53, 0
2, 176019, Control_c, 0, 64, 72
2, 176038, Control_c, 0, 64, 87
2, 176058, Control_c, 0, 64, 127
2, 176189, Note_on_c, 0, 40, 55
2, 176215, Control_c, 0, 64, 87
2, 176234, Control_c, 0, 64, 70
2, 176252, Control_c, 0, 64, 60
2, 176272, Control_c, 0, 64, 42
2, 176292, Control_c, 0, 64, 0
2, 176400, Note_on_c, 0, 40, 0
2, 176418, Note_on_c, 0, 41, 62
2, 176418, Note_on_c, 0, 65, 55
2, 176427, Control_c, 0, 64, 36
2, 176445, Control_c, 0, 64, 54
2, 176466, Control_c, 0, 64, 62
2, 176482, Control_c, 0, 64, 64
2, 176501, Control_c, 0, 64, 66
2, 176522, Control_c, 0, 64, 70
2, 176542, Note_on_c, 0, 73, 0
2, 176546, Control_c, 0, 64, 78
2, 176560, Control_c, 0, 64, 92
2, 176575, Note_on_c, 0, 41, 0
2, 176579, Control_c, 0, 64, 104
2, 176597, Control_c, 0, 64, 108
2, 176617, Control_c, 0, 64, 110
2, 176626, Note_on_c, 0, 43, 65
2, 176637, Control_c, 0, 64, 113
2, 176643, Note_on_c, 0, 67, 0
2, 176656, Control_c, 0, 64, 122
2, 176678, Control_c, 0, 64, 127
2, 176828, Control_c, 0, 64, 104
2, 176835, Note_on_c, 0, 43, 0
2, 176850, Control_c, 0, 64, 76
2, 176850, Note_on_c, 0, 72, 84
2, 176854, Note_on_c, 0, 44, 69
2, 176870, Control_c, 0, 64, 62
2, 176888, Control_c, 0, 64, 48
2, 176905, Control_c, 0, 64, 32
2, 176926, Control_c, 0, 64, 23
2, 176946, Control_c, 0, 64, 17
2, 176964, Control_c, 0, 64, 13
2, 176982, Control_c, 0, 64, 11
2, 177020, Control_c, 0, 64, 10
2, 177040, Control_c, 0, 64, 0
2, 177076, Note_on_c, 0, 48, 54
2, 177254, Note_on_c, 0, 48, 0
2, 177296, Note_on_c, 0, 63, 58
2, 177301, Note_on_c, 0, 50, 55
2, 177342, Note_on_c, 0, 65, 0
2, 177394, Note_on_c, 0, 63, 0
2, 177452, Note_on_c, 0, 50, 0
2, 177497, Note_on_c, 0, 51, 55
2, 177690, Note_on_c, 0, 44, 0
2, 177708, Note_on_c, 0, 51, 0
2, 177725, Note_on_c, 0, 53, 54
2, 177737, Note_on_c, 0, 71, 68
2, 177753, Note_on_c, 0, 62, 53
2, 177815, Note_on_c, 0, 72, 0
2, 177944, Note_on_c, 0, 41, 58
2, 178111, Note_on_c, 0, 41, 0
2, 178146, Note_on_c, 0, 62, 0
2, 178165, Note_on_c, 0, 63, 60
2, 178169, Note_on_c, 0, 43, 56
2, 178303, Note_on_c, 0, 63, 0
2, 178305, Control_c, 0, 64, 32
2, 178325, Control_c, 0, 64, 47
2, 178345, Control_c, 0, 64, 57
2, 178358, Note_on_c, 0, 71, 0
2, 178363, Note_on_c, 0, 43, 0
2, 178363, Note_on_c, 0, 65, 52
2, 178365, Control_c, 0, 64, 61
2, 178382, Control_c, 0, 64, 62
2, 178384, Note_on_c, 0, 44, 64
2, 178399, Control_c, 0, 64, 63
2, 178418, Control_c, 0, 64, 65
2, 178440, Control_c, 0, 64, 69
2, 178458, Control_c, 0, 64, 76
2, 178481, Control_c, 0, 64, 87
2, 178495, Control_c, 0, 64, 94
2, 178516, Control_c, 0, 64, 96
2, 178533, Control_c, 0, 64, 89
2, 178555, Control_c, 0, 64, 67
2, 178572, Control_c, 0, 64, 48
2, 178592, Control_c, 0, 64, 0
2, 178597, Note_on_c, 0, 65, 0
2, 178601, Note_on_c, 0, 67, 73
2, 178606, Note_on_c, 0, 76, 79
2, 178631, Note_on_c, 0, 46, 65
2, 178648, Control_c, 0, 64, 31
2, 178668, Control_c, 0, 64, 53
2, 178686, Note_on_c, 0, 53, 0
2, 178690, Control_c, 0, 64, 66
2, 178690, Note_on_c, 0, 44, 0
2, 178703, Note_on_c, 0, 46, 0
2, 178708, Control_c, 0, 64, 74
2, 178726, Control_c, 0, 64, 90
2, 178746, Control_c, 0, 64, 127
2, 178791, Note_on_c, 0, 67, 0
2, 178804, Note_on_c, 0, 65, 70
2, 178958, Control_c, 0, 64, 109
2, 178978, Control_c, 0, 64, 73
2, 178997, Control_c, 0, 64, 58
2, 179012, Note_on_c, 0, 65, 0
2, 179017, Control_c, 0, 64, 41
2, 179034, Control_c, 0, 64, 19
2, 179043, Note_on_c, 0, 64, 66
2, 179047, Note_on_c, 0, 55, 63
2, 179052, Control_c, 0, 64, 0
2, 179165, Note_on_c, 0, 55, 0
2, 179196, Note_on_c, 0, 64, 0
2, 179266, Note_on_c, 0, 62, 60
2, 179462, Note_on_c, 0, 62, 0
2, 179476, Control_c, 0, 64, 43
2, 179491, Note_on_c, 0, 77, 91
2, 179496, Control_c, 0, 64, 60
2, 179496, Note_on_c, 0, 60, 50
2, 179507, Note_on_c, 0, 56, 61
2, 179516, Control_c, 0, 64, 68
2, 179525, Note_on_c, 0, 60, 0
2, 179534, Control_c, 0, 64, 77
2, 179547, Note_on_c, 0, 56, 0
2, 179551, Control_c, 0, 64, 95
2, 179572, Control_c, 0, 64, 127
2, 179615, Note_on_c, 0, 76, 0
2, 179706, Note_on_c, 0, 44, 73
2, 179918, Control_c, 0, 64, 113
2, 179925, Note_on_c, 0, 46, 72
2, 179938, Control_c, 0, 64, 81
2, 179938, Note_on_c, 0, 44, 0
2, 179956, Control_c, 0, 64, 64
2, 179973, Control_c, 0, 64, 50
2, 179992, Control_c, 0, 64, 31
2, 180012, Control_c, 0, 64, 0
2, 180096, Note_on_c, 0, 46, 0
2, 180121, Note_on_c, 0, 48, 69
2, 180339, Control_c, 0, 64, 39
2, 180358, Control_c, 0, 64, 58
2, 180365, Note_on_c, 0, 49, 66
2, 180365, Note_on_c, 0, 70, 83
2, 180369, Note_on_c, 0, 48, 0
2, 180376, Note_on_c, 0, 77, 0
2, 180380, Control_c, 0, 64, 65
2, 180397, Control_c, 0, 64, 70
2, 180416, Control_c, 0, 64, 80
2, 180436, Control_c, 0, 64, 102
2, 180454, Control_c, 0, 64, 127
2, 180565, Note_on_c, 0, 58, 69
2, 180726, Control_c, 0, 64, 75
2, 180726, Note_on_c, 0, 58, 0
2, 180745, Control_c, 0, 64, 58
2, 180761, Control_c, 0, 64, 41
2, 180780, Control_c, 0, 64, 14
2, 180793, Note_on_c, 0, 58, 62
2, 180800, Note_on_c, 0, 56, 55
2, 180804, Control_c, 0, 64, 0
2, 180901, Note_on_c, 0, 58, 0
2, 180957, Note_on_c, 0, 56, 0
2, 181013, Note_on_c, 0, 55, 54
2, 181168, Note_on_c, 0, 49, 0
2, 181237, Note_on_c, 0, 55, 0
2, 181245, Note_on_c, 0, 60, 57
2, 181250, Note_on_c, 0, 69, 65
2, 181254, Note_on_c, 0, 53, 60
2, 181369, Note_on_c, 0, 70, 0
2, 181473, Note_on_c, 0, 48, 54
2, 181666, Note_on_c, 0, 48, 0
2, 181709, Note_on_c, 0, 50, 59
2, 181888, Note_on_c, 0, 53, 0
2, 181912, Note_on_c, 0, 52, 59
2, 181925, Note_on_c, 0, 50, 0
2, 182085, Control_c, 0, 64, 28
2, 182108, Control_c, 0, 64, 46
2, 182124, Control_c, 0, 64, 58
2, 182134, Note_on_c, 0, 52, 0
2, 182146, Note_on_c, 0, 53, 55
2, 182150, Control_c, 0, 64, 62
2, 182150, Note_on_c, 0, 68, 75
2, 182164, Control_c, 0, 64, 64
2, 182182, Control_c, 0, 64, 67
2, 182202, Note_on_c, 0, 69, 0
2, 182204, Control_c, 0, 64, 71
2, 182204, Note_on_c, 0, 53, 0
2, 182220, Control_c, 0, 64, 81
2, 182239, Control_c, 0, 64, 100
2, 182253, Note_on_c, 0, 60, 0
2, 182262, Control_c, 0, 64, 127
2, 182356, Note_on_c, 0, 53, 57
2, 182431, Control_c, 0, 64, 87
2, 182453, Control_c, 0, 64, 69
2, 182474, Control_c, 0, 64, 59
2, 182490, Control_c, 0, 64, 48
2, 182507, Control_c, 0, 64, 37
2, 182528, Control_c, 0, 64, 25
2, 182550, Control_c, 0, 64, 0
2, 182590, Note_on_c, 0, 60, 58
2, 182599, Note_on_c, 0, 55, 48
2, 182674, Note_on_c, 0, 60, 0
2, 182683, Note_on_c, 0, 55, 0
2, 182782, Note_on_c, 0, 56, 53
2, 183033, Note_on_c, 0, 56, 0
2, 183051, Note_on_c, 0, 61, 51
2, 183053, Note_on_c, 0, 58, 48
2, 183058, Note_on_c, 0, 67, 61
2, 183071, Note_on_c, 0, 68, 0
2, 183397, Note_on_c, 0, 58, 0
2, 183462, Note_on_c, 0, 53, 0
2, 183462, Note_on_c, 0, 61, 0
2, 183501, Note_on_c, 0, 60, 51
2, 183510, Note_on_c, 0, 52, 49
2, 183671, Note_on_c, 0, 52, 0
2, 183671, Note_on_c, 0, 60, 0
2, 183706, Note_on_c, 0, 58, 53
2, 183711, Note_on_c, 0, 50, 50
2, 183901, Note_on_c, 0, 58, 0
2, 183910, Note_on_c, 0, 50, 0
2, 183948, Note_on_c, 0, 60, 56
2, 183957, Note_on_c, 0, 52, 50
2, 184364, Note_on_c, 0, 56, 50
2, 184508, Note_on_c, 0, 56, 0
2, 184566, Note_on_c, 0, 55, 43
2, 184768, Note_on_c, 0, 52, 0
2, 184776, Note_on_c, 0, 55, 0
2, 184835, Note_on_c, 0, 53, 45
2, 184839, Note_on_c, 0, 56, 41
2, 185173, Note_on_c, 0, 67, 0
2, 185254, Note_on_c, 0, 65, 39
2, 185280, Note_on_c, 0, 60, 0
2, 185453, Note_on_c, 0, 67, 52
2, 185460, Note_on_c, 0, 65, 0
2, 185728, Note_on_c, 0, 68, 56
2, 185737, Note_on_c, 0, 56, 0
2, 185745, Note_on_c, 0, 53, 0
2, 185801, Note_on_c, 0, 67, 0
2, 186174, Note_on_c, 0, 53, 41
2, 186342, Note_on_c, 0, 53, 0
2, 186370, Note_on_c, 0, 51, 53
2, 186584, Note_on_c, 0, 51, 0
2, 186612, Note_on_c, 0, 50, 50
2, 186617, Control_c, 0, 64, 27
2, 186637, Control_c, 0, 64, 45
2, 186656, Control_c, 0, 64, 57
2, 186675, Control_c, 0, 64, 62
2, 186692, Control_c, 0, 64, 64
2, 186717, Control_c, 0, 64, 66
2, 186733, Control_c, 0, 64, 70
2, 186752, Control_c, 0, 64, 80
2, 186755, Note_on_c, 0, 50, 0
2, 186773, Control_c, 0, 64, 97
2, 186790, Control_c, 0, 64, 127
2, 187001, Control_c, 0, 64, 89
2, 187021, Control_c, 0, 64, 71
2, 187034, Note_on_c, 0, 65, 53
2, 187038, Control_c, 0, 64, 61
2, 187048, Note_on_c, 0, 50, 46
2, 187059, Control_c, 0, 64, 51
2, 187081, Control_c, 0, 64, 41
2, 187097, Control_c, 0, 64, 29
2, 187115, Control_c, 0, 64, 0
2, 187217, Note_on_c, 0, 50, 0
2, 187234, Note_on_c, 0, 65, 0
2, 187251, Note_on_c, 0, 48, 48
2, 187255, Note_on_c, 0, 63, 56
2, 187451, Note_on_c, 0, 48, 0
2, 187487, Note_on_c, 0, 63, 0
2, 187501, Control_c, 0, 64, 39
2, 187506, Note_on_c, 0, 46, 48
2, 187518, Note_on_c, 0, 62, 52
2, 187519, Control_c, 0, 64, 54
2, 187537, Control_c, 0, 64, 62
2, 187558, Control_c, 0, 64, 65
2, 187579, Control_c, 0, 64, 67
2, 187590, Note_on_c, 0, 62, 0
2, 187598, Control_c, 0, 64, 72
2, 187619, Control_c, 0, 64, 81
2, 187636, Control_c, 0, 64, 101
2, 187654, Control_c, 0, 64, 127
2, 187903, Control_c, 0, 64, 91
2, 187908, Note_on_c, 0, 62, 60
2, 187914, Note_on_c, 0, 48, 57
2, 187924, Control_c, 0, 64, 69
2, 187928, Note_on_c, 0, 46, 0
2, 187941, Control_c, 0, 64, 56
2, 187962, Control_c, 0, 64, 40
2, 187979, Control_c, 0, 64, 16
2, 188001, Control_c, 0, 64, 0
2, 188055, Note_on_c, 0, 48, 0
2, 188101, Note_on_c, 0, 62, 0
2, 188114, Note_on_c, 0, 60, 55
2, 188131, Note_on_c, 0, 50, 50
2, 188312, Note_on_c, 0, 50, 0
2, 188327, Control_c, 0, 64, 11
2, 188339, Note_on_c, 0, 60, 0
2, 188344, Control_c, 0, 64, 44
2, 188363, Note_on_c, 0, 51, 53
2, 188367, Control_c, 0, 64, 57
2, 188367, Note_on_c, 0, 58, 54
2, 188383, Control_c, 0, 64, 64
2, 188403, Control_c, 0, 64, 67
2, 188411, Note_on_c, 0, 68, 0
2, 188421, Control_c, 0, 64, 71
2, 188441, Control_c, 0, 64, 79
2, 188463, Control_c, 0, 64, 96
2, 188467, Note_on_c, 0, 58, 0
2, 188480, Control_c, 0, 64, 127
2, 188768, Control_c, 0, 64, 96
2, 188788, Control_c, 0, 64, 72
2, 188788, Note_on_c, 0, 67, 65
2, 188793, Note_on_c, 0, 58, 52
2, 188805, Control_c, 0, 64, 61
2, 188826, Control_c, 0, 64, 50
2, 188845, Control_c, 0, 64, 35
2, 188865, Control_c, 0, 64, 0
2, 188958, Note_on_c, 0, 58, 0
2, 188992, Note_on_c, 0, 68, 78
2, 188995, Note_on_c, 0, 56, 55
2, 189026, Note_on_c, 0, 67, 0
2, 189228, Note_on_c, 0, 56, 0
2, 189243, Note_on_c, 0, 55, 50
2, 189251, Note_on_c, 0, 70, 68
2, 189275, Note_on_c, 0, 68, 0
2, 189326, Control_c, 0, 64, 32
2, 189343, Control_c, 0, 64, 50
2, 189366, Control_c, 0, 64, 60
2, 189379, Note_on_c, 0, 51, 0
2, 189384, Control_c, 0, 64, 64
2, 189403, Control_c, 0, 64, 67
2, 189405, Note_on_c, 0, 55, 0
2, 189420, Control_c, 0, 64, 74
2, 189441, Control_c, 0, 64, 86
2, 189460, Control_c, 0, 64, 122
2, 189478, Control_c, 0, 64, 127
2, 189612, Control_c, 0, 64, 78
2, 189632, Control_c, 0, 64, 63
2, 189649, Control_c, 0, 64, 50
2, 189668, Control_c, 0, 64, 32
2, 189678, Note_on_c, 0, 55, 62
2, 189689, Control_c, 0, 64, 0
2, 189866, Note_on_c, 0, 55, 0
2, 189887, Note_on_c, 0, 53, 60
2, 190114, Note_on_c, 0, 52, 58
2, 190122, Note_on_c, 0, 53, 0
2, 190131, Control_c, 0, 64, 8
2, 190151, Control_c, 0, 64, 39
2, 190171, Control_c, 0, 64, 52
2, 190188, Control_c, 0, 64, 60
2, 190208, Control_c, 0, 64, 63
2, 190226, Control_c, 0, 64, 65
2, 190246, Control_c, 0, 64, 70
2, 190259, Note_on_c, 0, 52, 0
2, 190265, Control_c, 0, 64, 78
2, 190288, Control_c, 0, 64, 92
2, 190305, Control_c, 0, 64, 110
2, 190322, Control_c, 0, 64, 127
2, 190419, Control_c, 0, 64, 105
2, 190438, Control_c, 0, 64, 87
2, 190456, Control_c, 0, 64, 70
2, 190475, Control_c, 0, 64, 61
2, 190498, Control_c, 0, 64, 51
2, 190515, Control_c, 0, 64, 33
2, 190532, Control_c, 0, 64, 0
2, 190541, Note_on_c, 0, 52, 56
2, 190550, Note_on_c, 0, 67, 59
2, 190740, Note_on_c, 0, 52, 0
2, 190762, Note_on_c, 0, 67, 0
2, 190771, Note_on_c, 0, 50, 58
2, 190771, Note_on_c, 0, 65, 60
2, 190974, Note_on_c, 0, 50, 0
2, 190989, Note_on_c, 0, 65, 0
2, 190998, Note_on_c, 0, 48, 55
2, 191009, Note_on_c, 0, 64, 54
2, 191013, Control_c, 0, 64, 22
2, 191033, Control_c, 0, 64, 44
2, 191055, Control_c, 0, 64, 57
2, 191073, Control_c, 0, 64, 64
2, 191090, Control_c, 0, 64, 67
2, 191109, Control_c, 0, 64, 72
2, 191129, Control_c, 0, 64, 83
2, 191148, Control_c, 0, 64, 127
2, 191155, Note_on_c, 0, 64, 0
2, 191236, Note_on_c, 0, 48, 0
2, 191340, Control_c, 0, 64, 93
2, 191359, Control_c, 0, 64, 66
2, 191378, Control_c, 0, 64, 48
2, 191397, Control_c, 0, 64, 0
2, 191410, Note_on_c, 0, 64, 64
2, 191421, Note_on_c, 0, 50, 56
2, 191582, Note_on_c, 0, 50, 0
2, 191611, Note_on_c, 0, 70, 0
2, 191624, Note_on_c, 0, 62, 60
2, 191628, Note_on_c, 0, 52, 60
2, 191642, Note_on_c, 0, 64, 0
2, 191761, Note_on_c, 0, 52, 0
2, 191801, Control_c, 0, 64, 28
2, 191814, Note_on_c, 0, 62, 0
2, 191823, Control_c, 0, 64, 30
2, 191839, Control_c, 0, 64, 28
2, 191844, Note_on_c, 0, 53, 56
2, 191854, Note_on_c, 0, 60, 66
2, 191878, Control_c, 0, 64, 29
2, 191898, Control_c, 0, 64, 28
2, 191918, Control_c, 0, 64, 27
2, 191936, Control_c, 0, 64, 25
2, 191958, Control_c, 0, 64, 23
2, 191989, Note_on_c, 0, 60, 0
2, 192013, Control_c, 0, 64, 21
2, 192033, Control_c, 0, 64, 20
2, 192041, Note_on_c, 0, 67, 71
2, 192109, Control_c, 0, 64, 17
2, 192126, Control_c, 0, 64, 12
2, 192146, Control_c, 0, 64, 0
2, 192224, Control_c, 0, 64, 15
2, 192243, Control_c, 0, 64, 33
2, 192252, Note_on_c, 0, 60, 66
2, 192261, Control_c, 0, 64, 47
2, 192266, Note_on_c, 0, 68, 82
2, 192281, Control_c, 0, 64, 59
2, 192299, Control_c, 0, 64, 64
2, 192305, Note_on_c, 0, 67, 0
2, 192319, Control_c, 0, 64, 68
2, 192338, Control_c, 0, 64, 74
2, 192358, Control_c, 0, 64, 86
2, 192377, Note_on_c, 0, 68, 0
2, 192382, Control_c, 0, 64, 112
2, 192397, Control_c, 0, 64, 127
2, 192459, Note_on_c, 0, 60, 0
2, 192463, Note_on_c, 0, 58, 70
2, 192468, Note_on_c, 0, 72, 80
2, 192505, Note_on_c, 0, 58, 0
2, 192525, Note_on_c, 0, 53, 0
2, 192781, Control_c, 0, 64, 78
2, 192801, Control_c, 0, 64, 63
2, 192808, Note_on_c, 0, 77, 87
2, 192819, Note_on_c, 0, 56, 61
2, 192823, Control_c, 0, 64, 51
2, 192839, Control_c, 0, 64, 40
2, 192858, Control_c, 0, 64, 26
2, 192876, Control_c, 0, 64, 0
2, 192889, Note_on_c, 0, 72, 0
2, 193218, Note_on_c, 0, 50, 69
2, 193439, Note_on_c, 0, 48, 69
2, 193452, Note_on_c, 0, 50, 0
2, 193693, Note_on_c, 0, 47, 66
2, 193716, Note_on_c, 0, 48, 0
2, 193730, Control_c, 0, 64, 20
2, 193746, Control_c, 0, 64, 49
2, 193765, Control_c, 0, 64, 61
2, 193784, Note_on_c, 0, 56, 0
2, 193788, Control_c, 0, 64, 65
2, 193805, Control_c, 0, 64, 69
2, 193805, Note_on_c, 0, 47, 0
2, 193823, Control_c, 0, 64, 77
2, 193844, Control_c, 0, 64, 95
2, 193863, Control_c, 0, 64, 127
2, 194073, Control_c, 0, 64, 87
2, 194091, Control_c, 0, 64, 65
2, 194108, Note_on_c, 0, 47, 63
2, 194113, Control_c, 0, 64, 47
2, 194127, Note_on_c, 0, 74, 66
2, 194131, Control_c, 0, 64, 23
2, 194152, Control_c, 0, 64, 0
2, 194331, Note_on_c, 0, 47, 0
2, 194340, Note_on_c, 0, 45, 62
2, 194344, Note_on_c, 0, 72, 66
2, 194353, Note_on_c, 0, 74, 0
2, 194565, Note_on_c, 0, 72, 0
2, 194577, Note_on_c, 0, 45, 0
2, 194581, Note_on_c, 0, 71, 57
2, 194601, Note_on_c, 0, 43, 58
2, 194667, Control_c, 0, 64, 32
2, 194687, Control_c, 0, 64, 48
2, 194705, Control_c, 0, 64, 59
2, 194726, Control_c, 0, 64, 64
2, 194739, Note_on_c, 0, 71, 0
2, 194744, Control_c, 0, 64, 67
2, 194765, Control_c, 0, 64, 73
2, 194785, Control_c, 0, 64, 84
2, 194802, Control_c, 0, 64, 127
2, 194956, Control_c, 0, 64, 104
2, 194973, Note_on_c, 0, 43, 0
2, 194977, Control_c, 0, 64, 73
2, 194986, Note_on_c, 0, 45, 63
2, 194990, Control_c, 0, 64, 54
2, 194990, Note_on_c, 0, 71, 66
2, 195008, Control_c, 0, 64, 0
2, 195180, Note_on_c, 0, 71, 0
2, 195193, Note_on_c, 0, 69, 64
2, 195197, Note_on_c, 0, 45, 0
2, 195215, Note_on_c, 0, 47, 61
2, 195408, Note_on_c, 0, 69, 0
2, 195417, Note_on_c, 0, 47, 0
2, 195444, Note_on_c, 0, 67, 65
2, 195448, Note_on_c, 0, 48, 56
2, 195488, Control_c, 0, 64, 21
2, 195507, Control_c, 0, 64, 38
2, 195527, Control_c, 0, 64, 52
2, 195545, Control_c, 0, 64, 62
2, 195565, Control_c, 0, 64, 65
2, 195583, Control_c, 0, 64, 66
2, 195603, Control_c, 0, 64, 67
2, 195623, Control_c, 0, 64, 69
2, 195623, Note_on_c, 0, 48, 0
2, 195643, Control_c, 0, 64, 73
2, 195663, Control_c, 0, 64, 80
2, 195663, Note_on_c, 0, 67, 0
2, 195679, Control_c, 0, 64, 85
2, 195699, Control_c, 0, 64, 87
2, 195719, Control_c, 0, 64, 88
2, 195738, Control_c, 0, 64, 89
2, 195757, Control_c, 0, 64, 96
2, 195774, Control_c, 0, 64, 111
2, 195795, Control_c, 0, 64, 127
2, 195886, Note_on_c, 0, 67, 62
2, 195886, Note_on_c, 0, 75, 68
2, 195955, Note_on_c, 0, 77, 0
2, 195966, Note_on_c, 0, 67, 0
2, 196108, Note_on_c, 0, 69, 55
2, 196252, Note_on_c, 0, 75, 0
2, 196314, Note_on_c, 0, 69, 0
2, 196332, Control_c, 0, 64, 91
2, 196352, Control_c, 0, 64, 72
2, 196357, Note_on_c, 0, 55, 83
2, 196375, Control_c, 0, 64, 61
2, 196375, Note_on_c, 0, 74, 60
2, 196379, Note_on_c, 0, 71, 49
2, 196392, Control_c, 0, 64, 51
2, 196407, Control_c, 0, 64, 40
2, 196428, Control_c, 0, 64, 30
2, 196447, Control_c, 0, 64, 18
2, 196452, Note_on_c, 0, 71, 0
2, 196468, Control_c, 0, 64, 12
2, 196484, Control_c, 0, 64, 11
2, 196526, Control_c, 0, 64, 10
2, 196543, Control_c, 0, 64, 9
2, 196564, Control_c, 0, 64, 0
2, 196807, Note_on_c, 0, 79, 68
2, 196811, Note_on_c, 0, 74, 0
2, 196817, Note_on_c, 0, 69, 60
2, 197010, Note_on_c, 0, 69, 0
2, 197033, Note_on_c, 0, 71, 61
2, 197244, Note_on_c, 0, 79, 0
2, 197251, Note_on_c, 0, 71, 0
2, 197266, Note_on_c, 0, 56, 82
2, 197276, Note_on_c, 0, 72, 66
2, 197326, Note_on_c, 0, 55, 0
2, 197463, Note_on_c, 0, 72, 0
2, 197474, Note_on_c, 0, 71, 67
2, 197673, Note_on_c, 0, 71, 0
2, 197689, Note_on_c, 0, 72, 76
2, 197899, Note_on_c, 0, 74, 71
2, 198166, Note_on_c, 0, 55, 71
2, 198170, Note_on_c, 0, 75, 63
2, 198235, Note_on_c, 0, 74, 0
2, 198242, Note_on_c, 0, 56, 0
2, 198573, Note_on_c, 0, 70, 59
2, 198677, Note_on_c, 0, 72, 0
2, 198699, Note_on_c, 0, 70, 0
2, 199013, Note_on_c, 0, 75, 0
2, 199027, Note_on_c, 0, 54, 64
2, 199029, Note_on_c, 0, 69, 51
2, 199091, Note_on_c, 0, 55, 0
2, 199229, Note_on_c, 0, 69, 0
2, 199257, Note_on_c, 0, 72, 73
2, 199471, Note_on_c, 0, 74, 76
2, 199475, Note_on_c, 0, 71, 71
2, 199480, Note_on_c, 0, 72, 0
2, 199669, Note_on_c, 0, 75, 72
2, 199680, Note_on_c, 0, 72, 71
2, 199687, Note_on_c, 0, 74, 0
2, 199723, Note_on_c, 0, 71, 0
2, 199878, Note_on_c, 0, 75, 0
2, 199911, Note_on_c, 0, 59, 89
2, 199911, Note_on_c, 0, 77, 74
2, 199915, Note_on_c, 0, 72, 0
2, 199915, Note_on_c, 0, 74, 69
2, 199968, Note_on_c, 0, 54, 0
2, 200130, Note_on_c, 0, 72, 74
2, 200154, Note_on_c, 0, 74, 0
2, 200350, Note_on_c, 0, 72, 0
2, 200359, Note_on_c, 0, 71, 72
2, 200556, Note_on_c, 0, 71, 0
2, 200563, Note_on_c, 0, 69, 63
2, 200636, Note_on_c, 0, 77, 0
2, 200793, Note_on_c, 0, 69, 0
2, 200818, Note_on_c, 0, 60, 85
2, 200835, Note_on_c, 0, 67, 62
2, 200864, Note_on_c, 0, 59, 0
2, 201031, Note_on_c, 0, 67, 0
2, 201031, Note_on_c, 0, 75, 76
2, 201234, Note_on_c, 0, 77, 80
2, 201304, Note_on_c, 0, 75, 0
2, 201436, Note_on_c, 0, 79, 84
2, 201451, Note_on_c, 0, 77, 0
2, 201683, Note_on_c, 0, 53, 86
2, 201698, Note_on_c, 0, 80, 78
2, 201709, Note_on_c, 0, 60, 0
2, 201713, Note_on_c, 0, 79, 0
2, 201894, Note_on_c, 0, 65, 65
2, 202034, Control_c, 0, 64, 10
2, 202053, Control_c, 0, 64, 29
2, 202076, Control_c, 0, 64, 45
2, 202091, Control_c, 0, 64, 59
2, 202102, Note_on_c, 0, 65, 0
2, 202114, Control_c, 0, 64, 65
2, 202122, Note_on_c, 0, 63, 70
2, 202133, Control_c, 0, 64, 70
2, 202150, Control_c, 0, 64, 81
2, 202169, Control_c, 0, 64, 113
2, 202188, Control_c, 0, 64, 127
2, 202263, Note_on_c, 0, 63, 0
2, 202300, Note_on_c, 0, 53, 0
2, 202337, Note_on_c, 0, 62, 68
2, 202515, Note_on_c, 0, 62, 0
2, 202555, Control_c, 0, 64, 94
2, 202572, Control_c, 0, 64, 69
2, 202585, Note_on_c, 0, 60, 76
2, 202594, Control_c, 0, 64, 56
2, 202594, Note_on_c, 0, 52, 70
2, 202609, Control_c, 0, 64, 42
2, 202629, Control_c, 0, 64, 21
2, 202649, Control_c, 0, 64, 0
2, 202789, Note_on_c, 0, 80, 0
2, 202811, Note_on_c, 0, 79, 71
2, 202822, Control_c, 0, 64, 31
2, 202842, Control_c, 0, 64, 46
2, 202860, Control_c, 0, 64, 56
2, 202881, Control_c, 0, 64, 61
2, 202899, Control_c, 0, 64, 62
2, 202919, Control_c, 0, 64, 63
2, 202919, Note_on_c, 0, 60, 0
2, 202938, Control_c, 0, 64, 64
2, 202954, Control_c, 0, 64, 66
2, 202974, Control_c, 0, 64, 67
2, 202993, Control_c, 0, 64, 69
2, 203026, Note_on_c, 0, 79, 0
2, 203033, Control_c, 0, 64, 70
2, 203038, Note_on_c, 0, 81, 68
2, 203148, Control_c, 0, 64, 69
2, 203207, Control_c, 0, 64, 68
2, 203224, Control_c, 0, 64, 69
2, 203240, Note_on_c, 0, 81, 0
2, 203250, Note_on_c, 0, 83, 69
2, 203303, Control_c, 0, 64, 68
2, 203436, Control_c, 0, 64, 64
2, 203455, Control_c, 0, 64, 55
2, 203474, Control_c, 0, 64, 39
2, 203494, Control_c, 0, 64, 0
2, 203505, Note_on_c, 0, 51, 62
2, 203517, Note_on_c, 0, 83, 0
2, 203517, Note_on_c, 0, 84, 63
2, 203523, Note_on_c, 0, 52, 0
2, 203588, Control_c, 0, 64, 18
2, 203608, Control_c, 0, 64, 34
2, 203626, Control_c, 0, 64, 45
2, 203647, Control_c, 0, 64, 53
2, 203668, Control_c, 0, 64, 58
2, 203686, Control_c, 0, 64, 61
2, 203705, Control_c, 0, 64, 62
2, 203727, Control_c, 0, 64, 63
2, 203731, Note_on_c, 0, 72, 62
2, 203744, Control_c, 0, 64, 64
2, 203762, Control_c, 0, 64, 65
2, 203791, Note_on_c, 0, 72, 0
2, 203802, Control_c, 0, 64, 66
2, 203962, Note_on_c, 0, 74, 59
2, 204051, Control_c, 0, 64, 65
2, 204139, Note_on_c, 0, 74, 0
2, 204161, Note_on_c, 0, 75, 57
2, 204377, Control_c, 0, 64, 64
2, 204391, Note_on_c, 0, 75, 0
2, 204397, Control_c, 0, 64, 63
2, 204415, Control_c, 0, 64, 61
2, 204433, Control_c, 0, 64, 59
2, 204437, Note_on_c, 0, 77, 57
2, 204442, Note_on_c, 0, 50, 53
2, 204452, Control_c, 0, 64, 55
2, 204472, Control_c, 0, 64, 52
2, 204494, Control_c, 0, 64, 49
2, 204494, Note_on_c, 0, 51, 0
2, 204512, Control_c, 0, 64, 44
2, 204531, Control_c, 0, 64, 40
2, 204552, Control_c, 0, 64, 39
2, 204569, Control_c, 0, 64, 38
2, 204588, Control_c, 0, 64, 37
2, 204608, Control_c, 0, 64, 36
2, 204904, Note_on_c, 0, 83, 57
2, 204919, Note_on_c, 0, 84, 0
2, 205090, Note_on_c, 0, 83, 0
2, 205106, Note_on_c, 0, 81, 58
2, 205366, Note_on_c, 0, 81, 0
2, 205382, Note_on_c, 0, 83, 57
2, 205585, Control_c, 0, 64, 37
2, 205747, Note_on_c, 0, 77, 0
2, 205821, Note_on_c, 0, 75, 40
2, 205961, Note_on_c, 0, 75, 0
2, 205999, Note_on_c, 0, 74, 47
2, 206029, Control_c, 0, 64, 36
2, 206065, Control_c, 0, 64, 35
2, 206086, Control_c, 0, 64, 30
2, 206105, Control_c, 0, 64, 9
2, 206124, Control_c, 0, 64, 0
2, 206210, Note_on_c, 0, 50, 0
2, 206239, Control_c, 0, 64, 24
2, 206260, Control_c, 0, 64, 46
2, 206281, Note_on_c, 0, 48, 42
2, 206286, Control_c, 0, 64, 59
2, 206286, Note_on_c, 0, 84, 56
2, 206298, Control_c, 0, 64, 65
2, 206298, Note_on_c, 0, 75, 53
2, 206316, Note_on_c, 0, 74, 0
2, 206321, Control_c, 0, 64, 71
2, 206337, Control_c, 0, 64, 83
2, 206337, Note_on_c, 0, 84, 0
2, 206345, Note_on_c, 0, 48, 0
2, 206354, Control_c, 0, 64, 127
2, 206383, Note_on_c, 0, 75, 0
2, 206394, Note_on_c, 0, 83, 0
2, 206716, Note_on_c, 0, 72, 70
2, 206721, Note_on_c, 0, 79, 68
2, 206760, Control_c, 0, 64, 90
2, 206771, Note_on_c, 0, 79, 0
2, 206778, Control_c, 0, 64, 70
2, 206799, Control_c, 0, 64, 62
2, 206815, Control_c, 0, 64, 57
2, 206835, Control_c, 0, 64, 54
2, 206853, Control_c, 0, 64, 52
2, 206874, Control_c, 0, 64, 49
2, 206892, Control_c, 0, 64, 45
2, 206910, Control_c, 0, 64, 40
2, 206929, Control_c, 0, 64, 39
2, 206934, Note_on_c, 0, 74, 80
2, 206938, Note_on_c, 0, 72, 0
2, 206952, Control_c, 0, 64, 38
2, 206969, Control_c, 0, 64, 37
2, 206987, Control_c, 0, 64, 36
2, 207007, Control_c, 0, 64, 34
2, 207027, Control_c, 0, 64, 33
2, 207102, Control_c, 0, 64, 32
2, 207122, Control_c, 0, 64, 31
2, 207179, Control_c, 0, 64, 30
2, 207192, Note_on_c, 0, 75, 72
2, 207201, Control_c, 0, 64, 29
2, 207201, Note_on_c, 0, 84, 70
2, 207228, Note_on_c, 0, 74, 0
2, 207238, Control_c, 0, 64, 28
2, 207296, Control_c, 0, 64, 27
2, 207315, Control_c, 0, 64, 26
2, 207332, Control_c, 0, 64, 25
2, 207372, Control_c, 0, 64, 24
2, 207411, Control_c, 0, 64, 23
2, 207429, Control_c, 0, 64, 20
2, 207449, Control_c, 0, 64, 19
2, 207469, Control_c, 0, 64, 18
2, 207488, Control_c, 0, 64, 17
2, 207524, Control_c, 0, 64, 16
2, 207545, Control_c, 0, 64, 15
2, 207636, Note_on_c, 0, 72, 64
2, 207641, Control_c, 0, 64, 14
2, 207660, Control_c, 0, 64, 13
2, 207716, Control_c, 0, 64, 12
2, 207757, Control_c, 0, 64, 11
2, 207846, Note_on_c, 0, 72, 0
2, 207858, Note_on_c, 0, 70, 58
2, 207870, Control_c, 0, 64, 10
2, 207890, Control_c, 0, 64, 9
2, 207912, Control_c, 0, 64, 8
2, 207945, Note_on_c, 0, 84, 0
2, 207949, Control_c, 0, 64, 0
2, 208102, Note_on_c, 0, 70, 0
2, 208106, Note_on_c, 0, 69, 57
2, 208143, Control_c, 0, 64, 45
2, 208158, Control_c, 0, 64, 60
2, 208178, Control_c, 0, 64, 68
2, 208198, Control_c, 0, 64, 76
2, 208215, Control_c, 0, 64, 97
2, 208224, Note_on_c, 0, 69, 0
2, 208237, Control_c, 0, 64, 127
2, 208532, Note_on_c, 0, 69, 50
2, 208545, Control_c, 0, 64, 80
2, 208546, Note_on_c, 0, 84, 63
2, 208561, Control_c, 0, 64, 64
2, 208582, Control_c, 0, 64, 56
2, 208600, Control_c, 0, 64, 49
2, 208620, Control_c, 0, 64, 44
2, 208638, Control_c, 0, 64, 36
2, 208657, Control_c, 0, 64, 24
2, 208677, Control_c, 0, 64, 0
2, 208719, Note_on_c, 0, 69, 0
2, 208739, Note_on_c, 0, 82, 69
2, 208749, Note_on_c, 0, 67, 51
2, 208938, Note_on_c, 0, 84, 0
2, 208947, Control_c, 0, 64, 19
2, 208958, Note_on_c, 0, 67, 0
2, 208966, Control_c, 0, 64, 48
2, 208980, Note_on_c, 0, 81, 68
2, 208986, Control_c, 0, 64, 61
2, 208999, Note_on_c, 0, 65, 49
2, 209003, Control_c, 0, 64, 68
2, 209025, Control_c, 0, 64, 77
2, 209045, Control_c, 0, 64, 97
2, 209045, Note_on_c, 0, 82, 0
2, 209062, Control_c, 0, 64, 127
2, 209079, Note_on_c, 0, 81, 0
2, 209368, Note_on_c, 0, 65, 0
2, 209399, Note_on_c, 0, 81, 65
2, 209405, Note_on_c, 0, 67, 61
2, 209427, Control_c, 0, 64, 97
2, 209447, Control_c, 0, 64, 75
2, 209466, Control_c, 0, 64, 64
2, 209485, Control_c, 0, 64, 57
2, 209504, Control_c, 0, 64, 52
2, 209520, Control_c, 0, 64, 49
2, 209540, Control_c, 0, 64, 45
2, 209560, Control_c, 0, 64, 40
2, 209582, Control_c, 0, 64, 34
2, 209598, Control_c, 0, 64, 29
2, 209598, Note_on_c, 0, 67, 0
2, 209611, Note_on_c, 0, 69, 64
2, 209611, Note_on_c, 0, 79, 71
2, 209619, Control_c, 0, 64, 27
2, 209638, Note_on_c, 0, 81, 0
2, 209656, Control_c, 0, 64, 23
2, 209675, Control_c, 0, 64, 18
2, 209694, Control_c, 0, 64, 17
2, 209717, Control_c, 0, 64, 16
2, 209752, Control_c, 0, 64, 15
2, 209772, Control_c, 0, 64, 8
2, 209790, Control_c, 0, 64, 0
2, 209830, Note_on_c, 0, 69, 0
2, 209881, Note_on_c, 0, 70, 58
2, 209883, Note_on_c, 0, 77, 67
2, 209898, Note_on_c, 0, 79, 0
2, 209907, Note_on_c, 0, 75, 0
2, 209985, Note_on_c, 0, 70, 0
2, 210252, Control_c, 0, 64, 23
2, 210272, Control_c, 0, 64, 40
2, 210292, Control_c, 0, 64, 52
2, 210305, Note_on_c, 0, 77, 0
2, 210311, Note_on_c, 0, 58, 44
2, 210316, Control_c, 0, 64, 60
2, 210316, Note_on_c, 0, 79, 68
2, 210329, Control_c, 0, 64, 64
2, 210336, Note_on_c, 0, 70, 43
2, 210348, Control_c, 0, 64, 66
2, 210370, Control_c, 0, 64, 70
2, 210370, Note_on_c, 0, 58, 0
2, 210374, Note_on_c, 0, 70, 0
2, 210388, Control_c, 0, 64, 79
2, 210405, Control_c, 0, 64, 94
2, 210425, Control_c, 0, 64, 112
2, 210443, Control_c, 0, 64, 127
2, 210504, Note_on_c, 0, 79, 0
2, 210529, Note_on_c, 0, 72, 75
2, 210529, Note_on_c, 0, 81, 67
2, 210770, Control_c, 0, 64, 89
2, 210790, Control_c, 0, 64, 73
2, 210801, Note_on_c, 0, 73, 73
2, 210806, Note_on_c, 0, 72, 0
2, 210806, Note_on_c, 0, 82, 74
2, 210810, Control_c, 0, 64, 63
2, 210815, Note_on_c, 0, 81, 0
2, 210827, Control_c, 0, 64, 55
2, 210848, Control_c, 0, 64, 47
2, 210867, Control_c, 0, 64, 40
2, 210886, Control_c, 0, 64, 32
2, 210904, Control_c, 0, 64, 21
2, 210924, Control_c, 0, 64, 11
2, 210942, Control_c, 0, 64, 0
2, 211231, Note_on_c, 0, 70, 59
2, 211425, Note_on_c, 0, 70, 0
2, 211438, Note_on_c, 0, 68, 62
2, 211647, Note_on_c, 0, 82, 0
2, 211672, Control_c, 0, 64, 34
2, 211684, Note_on_c, 0, 68, 0
2, 211688, Note_on_c, 0, 67, 59
2, 211693, Control_c, 0, 64, 51
2, 211711, Control_c, 0, 64, 61
2, 211732, Control_c, 0, 64, 66
2, 211752, Control_c, 0, 64, 69
2, 211767, Control_c, 0, 64, 77
2, 211789, Control_c, 0, 64, 92
2, 211789, Note_on_c, 0, 67, 0
2, 211808, Control_c, 0, 64, 127
2, 212077, Control_c, 0, 64, 100
2, 212096, Control_c, 0, 64, 77
2, 212103, Note_on_c, 0, 67, 50
2, 212108, Note_on_c, 0, 82, 59
2, 212117, Control_c, 0, 64, 65
2, 212132, Control_c, 0, 64, 57
2, 212151, Control_c, 0, 64, 52
2, 212170, Control_c, 0, 64, 47
2, 212190, Control_c, 0, 64, 41
2, 212208, Control_c, 0, 64, 34
2, 212228, Control_c, 0, 64, 25
2, 212247, Control_c, 0, 64, 16
2, 212267, Control_c, 0, 64, 10
2, 212281, Note_on_c, 0, 67, 0
2, 212289, Control_c, 0, 64, 0
2, 212324, Note_on_c, 0, 80, 59
2, 212333, Note_on_c, 0, 65, 40
2, 212458, Note_on_c, 0, 82, 0
2, 212525, Note_on_c, 0, 65, 0
2, 212536, Control_c, 0, 64, 38
2, 212555, Control_c, 0, 64, 59
2, 212569, Note_on_c, 0, 79, 63
2, 212574, Control_c, 0, 64, 67
2, 212578, Note_on_c, 0, 63, 47
2, 212595, Control_c, 0, 64, 77
2, 212615, Control_c, 0, 64, 100
2, 212619, Note_on_c, 0, 80, 0
2, 212633, Control_c, 0, 64, 127
2, 212649, Note_on_c, 0, 79, 0
2, 212941, Note_on_c, 0, 63, 0
2, 212986, Note_on_c, 0, 79, 61
2, 212994, Note_on_c, 0, 65, 51
2, 212999, Control_c, 0, 64, 81
2, 213018, Control_c, 0, 64, 66
2, 213037, Control_c, 0, 64, 58
2, 213055, Control_c, 0, 64, 51
2, 213075, Control_c, 0, 64, 46
2, 213092, Control_c, 0, 64, 42
2, 213112, Control_c, 0, 64, 37
2, 213130, Control_c, 0, 64, 32
2, 213151, Control_c, 0, 64, 28
2, 213168, Control_c, 0, 64, 27
2, 213175, Note_on_c, 0, 65, 0
2, 213188, Control_c, 0, 64, 25
2, 213193, Note_on_c, 0, 79, 0
2, 213197, Note_on_c, 0, 77, 65
2, 213208, Note_on_c, 0, 67, 53
2, 213212, Control_c, 0, 64, 23
2, 213229, Control_c, 0, 64, 21
2, 213247, Control_c, 0, 64, 19
2, 213266, Control_c, 0, 64, 18
2, 213285, Control_c, 0, 64, 17
2, 213304, Control_c, 0, 64, 13
2, 213324, Control_c, 0, 64, 0
2, 213418, Note_on_c, 0, 67, 0
2, 213458, Note_on_c, 0, 77, 0
2, 213466, Note_on_c, 0, 75, 54
2, 213470, Note_on_c, 0, 68, 54
2, 213498, Note_on_c, 0, 73, 0
2, 213532, Note_on_c, 0, 68, 0
2, 213785, Control_c, 0, 64, 10
2, 213803, Control_c, 0, 64, 27
2, 213823, Control_c, 0, 64, 42
2, 213843, Control_c, 0, 64, 54
2, 213850, Note_on_c, 0, 75, 0
2, 213865, Control_c, 0, 64, 62
2, 213880, Control_c, 0, 64, 65
2, 213891, Note_on_c, 0, 68, 50
2, 213891, Note_on_c, 0, 77, 61
2, 213900, Note_on_c, 0, 56, 41
2, 213901, Control_c, 0, 64, 68
2, 213919, Control_c, 0, 64, 75
2, 213939, Control_c, 0, 64, 89
2, 213947, Note_on_c, 0, 56, 0
2, 213947, Note_on_c, 0, 68, 0
2, 213956, Control_c, 0, 64, 127
2, 214095, Note_on_c, 0, 77, 0
2, 214122, Note_on_c, 0, 79, 65
2, 214127, Note_on_c, 0, 70, 58
2, 214421, Note_on_c, 0, 70, 0
2, 214438, Control_c, 0, 64, 102
2, 214438, Note_on_c, 0, 79, 0
2, 214453, Note_on_c, 0, 72, 61
2, 214457, Control_c, 0, 64, 79
2, 214457, Note_on_c, 0, 80, 59
2, 214476, Control_c, 0, 64, 64
2, 214495, Control_c, 0, 64, 55
2, 214514, Control_c, 0, 64, 47
2, 214532, Control_c, 0, 64, 42
2, 214553, Control_c, 0, 64, 37
2, 214573, Control_c, 0, 64, 31
2, 214591, Control_c, 0, 64, 25
2, 214609, Control_c, 0, 64, 21
2, 214631, Control_c, 0, 64, 20
2, 214648, Control_c, 0, 64, 19
2, 214667, Control_c, 0, 64, 17
2, 214686, Control_c, 0, 64, 15
2, 214705, Control_c, 0, 64, 14
2, 214764, Control_c, 0, 64, 15
2, 214881, Note_on_c, 0, 68, 50
2, 215054, Note_on_c, 0, 68, 0
2, 215102, Note_on_c, 0, 67, 53
2, 215224, Control_c, 0, 64, 13
2, 215262, Control_c, 0, 64, 15
2, 215282, Control_c, 0, 64, 25
2, 215300, Control_c, 0, 64, 41
2, 215318, Note_on_c, 0, 67, 0
2, 215320, Control_c, 0, 64, 53
2, 215340, Control_c, 0, 64, 61
2, 215357, Control_c, 0, 64, 64
2, 215366, Note_on_c, 0, 65, 42
2, 215378, Control_c, 0, 64, 67
2, 215396, Control_c, 0, 64, 74
2, 215418, Control_c, 0, 64, 92
2, 215438, Control_c, 0, 64, 127
2, 215438, Note_on_c, 0, 80, 0
2, 215471, Note_on_c, 0, 65, 0
2, 215807, Note_on_c, 0, 80, 54
2, 215814, Note_on_c, 0, 65, 36
2, 215900, Control_c, 0, 64, 104
2, 215917, Control_c, 0, 64, 85
2, 215935, Control_c, 0, 64, 74
2, 215954, Control_c, 0, 64, 67
2, 215974, Control_c, 0, 64, 62
2, 215994, Control_c, 0, 64, 58
2, 215994, Note_on_c, 0, 65, 0
2, 216011, Control_c, 0, 64, 56
2, 216028, Note_on_c, 0, 79, 51
2, 216031, Control_c, 0, 64, 54
2, 216039, Note_on_c, 0, 63, 40
2, 216050, Control_c, 0, 64, 51
2, 216069, Control_c, 0, 64, 47
2, 216088, Control_c, 0, 64, 40
2, 216108, Control_c, 0, 64, 23
2, 216128, Control_c, 0, 64, 0
2, 216143, Note_on_c, 0, 80, 0
2, 216242, Control_c, 0, 64, 27
2, 216262, Control_c, 0, 64, 51
2, 216265, Note_on_c, 0, 77, 64
2, 216287, Control_c, 0, 64, 62
2, 216287, Note_on_c, 0, 61, 40
2, 216287, Note_on_c, 0, 63, 0
2, 216301, Control_c, 0, 64, 68
2, 216306, Note_on_c, 0, 79, 0
2, 216320, Control_c, 0, 64, 74
2, 216340, Control_c, 0, 64, 85
2, 216356, Control_c, 0, 64, 102
2, 216377, Control_c, 0, 64, 127
2, 216397, Note_on_c, 0, 61, 0
2, 216397, Note_on_c, 0, 77, 0
2, 216694, Note_on_c, 0, 77, 64
2, 216719, Note_on_c, 0, 61, 45
2, 216838, Control_c, 0, 64, 108
2, 216855, Control_c, 0, 64, 93
2, 216876, Control_c, 0, 64, 82
2, 216887, Note_on_c, 0, 61, 0
2, 216898, Control_c, 0, 64, 74
2, 216909, Note_on_c, 0, 60, 64
2, 216917, Control_c, 0, 64, 67
2, 216917, Note_on_c, 0, 75, 64
2, 216931, Control_c, 0, 64, 61
2, 216951, Control_c, 0, 64, 55
2, 216971, Control_c, 0, 64, 51
2, 216993, Control_c, 0, 64, 49
2, 217009, Control_c, 0, 64, 46
2, 217023, Note_on_c, 0, 77, 0
2, 217031, Control_c, 0, 64, 43
2, 217048, Control_c, 0, 64, 41
2, 217067, Control_c, 0, 64, 39
2, 217085, Control_c, 0, 64, 38
2, 217105, Control_c, 0, 64, 37
2, 217138, Note_on_c, 0, 60, 0
2, 217151, Note_on_c, 0, 58, 58
2, 217163, Note_on_c, 0, 73, 68
2, 217203, Note_on_c, 0, 72, 0
2, 217233, Note_on_c, 0, 75, 0
2, 217470, Control_c, 0, 64, 36
2, 217525, Note_on_c, 0, 58, 0
2, 217566, Note_on_c, 0, 60, 62
2, 217581, Note_on_c, 0, 70, 59
2, 217772, Note_on_c, 0, 60, 0
2, 217785, Note_on_c, 0, 61, 63
2, 217785, Note_on_c, 0, 70, 0
2, 217789, Note_on_c, 0, 68, 61
2, 217981, Note_on_c, 0, 68, 0
2, 218015, Note_on_c, 0, 61, 0
2, 218028, Note_on_c, 0, 67, 56
2, 218050, Note_on_c, 0, 63, 60
2, 218122, Note_on_c, 0, 63, 0
2, 218427, Note_on_c, 0, 51, 59
2, 218436, Note_on_c, 0, 73, 0
2, 218436, Note_on_c, 0, 75, 62
2, 218486, Note_on_c, 0, 51, 0
2, 218654, Note_on_c, 0, 73, 64
2, 218661, Control_c, 0, 64, 35
2, 218758, Note_on_c, 0, 75, 0
2, 218775, Control_c, 0, 64, 34
2, 218794, Control_c, 0, 64, 33
2, 218854, Control_c, 0, 64, 36
2, 218873, Control_c, 0, 64, 42
2, 218891, Control_c, 0, 64, 50
2, 218906, Note_on_c, 0, 56, 61
2, 218910, Control_c, 0, 64, 57
2, 218917, Note_on_c, 0, 72, 61
2, 218931, Control_c, 0, 64, 61
2, 218950, Control_c, 0, 64, 63
2, 218965, Note_on_c, 0, 73, 0
2, 218969, Control_c, 0, 64, 65
2, 218987, Control_c, 0, 64, 68
2, 219007, Control_c, 0, 64, 73
2, 219026, Control_c, 0, 64, 83
2, 219041, Note_on_c, 0, 72, 0
2, 219048, Control_c, 0, 64, 94
2, 219065, Control_c, 0, 64, 103
2, 219085, Control_c, 0, 64, 109
2, 219103, Control_c, 0, 64, 116
2, 219120, Control_c, 0, 64, 127
2, 219332, Note_on_c, 0, 58, 66
2, 219337, Note_on_c, 0, 72, 70
2, 219372, Control_c, 0, 64, 118
2, 219375, Note_on_c, 0, 56, 0
2, 219394, Control_c, 0, 64, 104
2, 219412, Control_c, 0, 64, 94
2, 219428, Control_c, 0, 64, 82
2, 219447, Control_c, 0, 64, 73
2, 219468, Control_c, 0, 64, 66
2, 219485, Control_c, 0, 64, 63
2, 219505, Control_c, 0, 64, 59
2, 219525, Control_c, 0, 64, 55
2, 219547, Control_c, 0, 64, 52
2, 219547, Note_on_c, 0, 60, 71
2, 219556, Note_on_c, 0, 70, 71
2, 219561, Note_on_c, 0, 58, 0
2, 219565, Control_c, 0, 64, 44
2, 219583, Control_c, 0, 64, 36
2, 219597, Note_on_c, 0, 72, 0
2, 219602, Control_c, 0, 64, 27
2, 219621, Control_c, 0, 64, 17
2, 219642, Control_c, 0, 64, 0
2, 219796, Note_on_c, 0, 60, 0
2, 219809, Note_on_c, 0, 61, 49
2, 219811, Note_on_c, 0, 68, 67
2, 219832, Note_on_c, 0, 67, 0
2, 219856, Note_on_c, 0, 70, 0
2, 220232, Note_on_c, 0, 65, 55
2, 220413, Note_on_c, 0, 65, 0
2, 220439, Note_on_c, 0, 64, 57
2, 220652, Note_on_c, 0, 64, 0
2, 220661, Control_c, 0, 64, 25
2, 220677, Control_c, 0, 64, 45
2, 220699, Control_c, 0, 64, 58
2, 220704, Note_on_c, 0, 65, 54
2, 220704, Note_on_c, 0, 68, 0
2, 220710, Note_on_c, 0, 61, 0
2, 220715, Control_c, 0, 64, 63
2, 220733, Control_c, 0, 64, 65
2, 220753, Control_c, 0, 64, 68
2, 220773, Control_c, 0, 64, 73
2, 220790, Control_c, 0, 64, 83
2, 220811, Control_c, 0, 64, 100
2, 220830, Control_c, 0, 64, 127
2, 221099, Note_on_c, 0, 61, 53
2, 221104, Control_c, 0, 64, 112
2, 221108, Note_on_c, 0, 70, 63
2, 221119, Control_c, 0, 64, 81
2, 221139, Control_c, 0, 64, 66
2, 221156, Control_c, 0, 64, 56
2, 221177, Control_c, 0, 64, 46
2, 221197, Control_c, 0, 64, 37
2, 221214, Control_c, 0, 64, 21
2, 221234, Control_c, 0, 64, 0
2, 221290, Note_on_c, 0, 61, 0
2, 221314, Note_on_c, 0, 72, 68
2, 221329, Note_on_c, 0, 70, 0
2, 221334, Note_on_c, 0, 60, 43
2, 221523, Note_on_c, 0, 60, 0
2, 221550, Note_on_c, 0, 72, 0
2, 221564, Note_on_c, 0, 73, 64
2, 221568, Note_on_c, 0, 58, 50
2, 221581, Control_c, 0, 64, 34
2, 221597, Control_c, 0, 64, 50
2, 221618, Control_c, 0, 64, 60
2, 221638, Control_c, 0, 64, 66
2, 221650, Note_on_c, 0, 65, 0
2, 221656, Control_c, 0, 64, 73
2, 221676, Control_c, 0, 64, 91
2, 221698, Control_c, 0, 64, 127
2, 221698, Note_on_c, 0, 58, 0
2, 221964, Note_on_c, 0, 67, 60
2, 221971, Note_on_c, 0, 58, 58
2, 222001, Control_c, 0, 64, 85
2, 222021, Control_c, 0, 64, 68
2, 222039, Control_c, 0, 64, 58
2, 222060, Control_c, 0, 64, 51
2, 222079, Control_c, 0, 64, 46
2, 222096, Control_c, 0, 64, 40
2, 222116, Control_c, 0, 64, 29
2, 222136, Control_c, 0, 64, 8
2, 222152, Note_on_c, 0, 67, 0
2, 222156, Control_c, 0, 64, 0
2, 222161, Note_on_c, 0, 58, 0
2, 222174, Note_on_c, 0, 56, 61
2, 222185, Note_on_c, 0, 68, 58
2, 222356, Note_on_c, 0, 73, 0
2, 222360, Note_on_c, 0, 68, 0
2, 222386, Control_c, 0, 64, 36
2, 222398, Note_on_c, 0, 70, 61
2, 222404, Control_c, 0, 64, 53
2, 222417, Note_on_c, 0, 55, 58
2, 222424, Control_c, 0, 64, 63
2, 222429, Note_on_c, 0, 56, 0
2, 222443, Control_c, 0, 64, 68
2, 222462, Control_c, 0, 64, 77
2, 222483, Control_c, 0, 64, 87
2, 222500, Control_c, 0, 64, 122
2, 222520, Control_c, 0, 64, 127
2, 222542, Note_on_c, 0, 55, 0
2, 222570, Note_on_c, 0, 70, 0
2, 222613, Note_on_c, 0, 72, 77
2, 222732, Control_c, 0, 64, 99
2, 222752, Control_c, 0, 64, 74
2, 222768, Control_c, 0, 64, 61
2, 222789, Control_c, 0, 64, 44
2, 222809, Control_c, 0, 64, 0
2, 222822, Note_on_c, 0, 73, 77
2, 222831, Note_on_c, 0, 55, 55
2, 222855, Note_on_c, 0, 72, 0
2, 223001, Control_c, 0, 64, 43
2, 223007, Note_on_c, 0, 55, 0
2, 223019, Control_c, 0, 64, 59
2, 223023, Note_on_c, 0, 53, 67
2, 223028, Note_on_c, 0, 73, 0
2, 223033, Note_on_c, 0, 70, 76
2, 223041, Control_c, 0, 64, 65
2, 223056, Control_c, 0, 64, 71
2, 223076, Control_c, 0, 64, 85
2, 223097, Control_c, 0, 64, 127
2, 223104, Note_on_c, 0, 70, 0
2, 223273, Control_c, 0, 64, 81
2, 223273, Note_on_c, 0, 52, 65
2, 223275, Note_on_c, 0, 79, 85
2, 223288, Control_c, 0, 64, 64
2, 223293, Note_on_c, 0, 53, 0
2, 223309, Control_c, 0, 64, 53
2, 223328, Control_c, 0, 64, 45
2, 223346, Control_c, 0, 64, 42
2, 223352, Note_on_c, 0, 52, 0
2, 223367, Control_c, 0, 64, 39
2, 223384, Control_c, 0, 64, 35
2, 223405, Control_c, 0, 64, 30
2, 223423, Control_c, 0, 64, 25
2, 223440, Control_c, 0, 64, 24
2, 223481, Control_c, 0, 64, 23
2, 223492, Note_on_c, 0, 68, 75
2, 223498, Control_c, 0, 64, 20
2, 223518, Control_c, 0, 64, 17
2, 223558, Control_c, 0, 64, 16
2, 223574, Control_c, 0, 64, 14
2, 223595, Control_c, 0, 64, 0
2, 223696, Note_on_c, 0, 48, 61
2, 223698, Note_on_c, 0, 68, 0
2, 223716, Note_on_c, 0, 70, 64
2, 223731, Control_c, 0, 64, 28
2, 223749, Control_c, 0, 64, 46
2, 223769, Control_c, 0, 64, 56
2, 223769, Note_on_c, 0, 48, 0
2, 223787, Control_c, 0, 64, 59
2, 223844, Control_c, 0, 64, 60
2, 223878, Note_on_c, 0, 70, 0
2, 223903, Control_c, 0, 64, 59
2, 223909, Note_on_c, 0, 67, 66
2, 223921, Control_c, 0, 64, 58
2, 223943, Control_c, 0, 64, 53
2, 223959, Control_c, 0, 64, 36
2, 223966, Note_on_c, 0, 67, 0
2, 223979, Control_c, 0, 64, 0
2, 224057, Control_c, 0, 64, 8
2, 224075, Control_c, 0, 64, 42
2, 224093, Control_c, 0, 64, 59
2, 224108, Note_on_c, 0, 53, 70
2, 224112, Control_c, 0, 64, 67
2, 224126, Note_on_c, 0, 68, 72
2, 224130, Control_c, 0, 64, 74
2, 224151, Control_c, 0, 64, 88
2, 224169, Control_c, 0, 64, 127
2, 224208, Note_on_c, 0, 53, 0
2, 224283, Note_on_c, 0, 79, 0
2, 224329, Note_on_c, 0, 68, 0
2, 224343, Note_on_c, 0, 72, 68
2, 224559, Note_on_c, 0, 65, 73
2, 224568, Note_on_c, 0, 72, 0
2, 224568, Note_on_c, 0, 73, 82
2, 224776, Note_on_c, 0, 63, 82
2, 224780, Note_on_c, 0, 72, 84
2, 224789, Note_on_c, 0, 65, 0
2, 224811, Note_on_c, 0, 73, 0
2, 224976, Control_c, 0, 64, 120
2, 224999, Control_c, 0, 64, 90
2, 224999, Note_on_c, 0, 72, 0
2, 224999, Note_on_c, 0, 77, 87
2, 225003, Note_on_c, 0, 61, 78
2, 225008, Note_on_c, 0, 63, 0
2, 225015, Control_c, 0, 64, 74
2, 225034, Control_c, 0, 64, 66
2, 225052, Control_c, 0, 64, 60
2, 225074, Control_c, 0, 64, 55
2, 225090, Control_c, 0, 64, 52
2, 225111, Control_c, 0, 64, 49
2, 225129, Control_c, 0, 64, 47
2, 225149, Control_c, 0, 64, 45
2, 225167, Control_c, 0, 64, 44
2, 225187, Control_c, 0, 64, 42
2, 225207, Control_c, 0, 64, 41
2, 225207, Note_on_c, 0, 61, 0
2, 225217, Note_on_c, 0, 63, 74
2, 225218, Note_on_c, 0, 67, 61
2, 225263, Control_c, 0, 64, 40
2, 225314, Note_on_c, 0, 63, 0
2, 225322, Note_on_c, 0, 61, 76
2, 225364, Note_on_c, 0, 67, 0
2, 225380, Note_on_c, 0, 68, 68
2, 225412, Note_on_c, 0, 61, 0
2, 225421, Note_on_c, 0, 63, 75
2, 225512, Note_on_c, 0, 63, 0
2, 225517, Control_c, 0, 64, 41
2, 225517, Note_on_c, 0, 61, 78
2, 225531, Control_c, 0, 64, 42
2, 225554, Note_on_c, 0, 68, 0
2, 225590, Note_on_c, 0, 65, 70
2, 225660, Note_on_c, 0, 63, 66
2, 225668, Control_c, 0, 64, 43
2, 225668, Note_on_c, 0, 61, 0
2, 225763, Note_on_c, 0, 61, 74
2, 225777, Note_on_c, 0, 63, 0
2, 225815, Note_on_c, 0, 65, 0
2, 225842, Note_on_c, 0, 77, 0
2, 225854, Note_on_c, 0, 72, 84
2, 225868, Note_on_c, 0, 61, 0
2, 225880, Note_on_c, 0, 60, 80
2, 225898, Control_c, 0, 64, 42
2, 226013, Control_c, 0, 64, 41
2, 226069, Control_c, 0, 64, 39
2, 226090, Control_c, 0, 64, 35
2, 226106, Control_c, 0, 64, 9
2, 226128, Control_c, 0, 64, 0
2, 226202, Note_on_c, 0, 60, 0
2, 226239, Note_on_c, 0, 48, 64
2, 226243, Note_on_c, 0, 72, 0
2, 226257, Note_on_c, 0, 67, 65
2, 226257, Note_on_c, 0, 76, 71
2, 226281, Control_c, 0, 64, 33
2, 226301, Control_c, 0, 64, 52
2, 226318, Control_c, 0, 64, 62
2, 226338, Control_c, 0, 64, 65
2, 226360, Control_c, 0, 64, 68
2, 226377, Control_c, 0, 64, 72
2, 226397, Control_c, 0, 64, 84
2, 226417, Control_c, 0, 64, 116
2, 226425, Note_on_c, 0, 48, 0
2, 226434, Control_c, 0, 64, 127
2, 226443, Note_on_c, 0, 50, 61
2, 226469, Note_on_c, 0, 77, 70
2, 226477, Note_on_c, 0, 76, 0
2, 226501, Note_on_c, 0, 50, 0
2, 226674, Note_on_c, 0, 67, 0
2, 226753, Note_on_c, 0, 48, 85
2, 226764, Control_c, 0, 64, 91
2, 226764, Note_on_c, 0, 52, 81
2, 226771, Note_on_c, 0, 72, 66
2, 226771, Note_on_c, 0, 79, 78
2, 226784, Control_c, 0, 64, 65
2, 226800, Control_c, 0, 64, 48
2, 226819, Control_c, 0, 64, 25
2, 226839, Control_c, 0, 64, 0
2, 226978, Note_on_c, 0, 77, 0
2, 227200, Note_on_c, 0, 52, 0
2, 227214, Note_on_c, 0, 70, 62
2, 227218, Note_on_c, 0, 50, 62
2, 227319, Note_on_c, 0, 70, 0
2, 227368, Note_on_c, 0, 50, 0
2, 227389, Note_on_c, 0, 52, 67
2, 227656, Note_on_c, 0, 49, 75
2, 227667, Note_on_c, 0, 53, 73
2, 227667, Note_on_c, 0, 68, 75
2, 227688, Note_on_c, 0, 52, 0
2, 227701, Note_on_c, 0, 48, 0
2, 227847, Note_on_c, 0, 68, 0
2, 227861, Note_on_c, 0, 53, 0
2, 227883, Note_on_c, 0, 52, 70
2, 228107, Note_on_c, 0, 53, 73
2, 228107, Note_on_c, 0, 70, 69
2, 228112, Note_on_c, 0, 77, 75
2, 228118, Note_on_c, 0, 72, 0
2, 228123, Note_on_c, 0, 52, 0
2, 228154, Note_on_c, 0, 79, 0
2, 228270, Note_on_c, 0, 53, 0
2, 228312, Note_on_c, 0, 55, 69
2, 228524, Note_on_c, 0, 49, 0
2, 228537, Note_on_c, 0, 56, 80
2, 228540, Note_on_c, 0, 48, 74
2, 228546, Note_on_c, 0, 72, 73
2, 228557, Note_on_c, 0, 55, 0
2, 228569, Note_on_c, 0, 77, 0
2, 228585, Control_c, 0, 64, 17
2, 228603, Control_c, 0, 64, 41
2, 228608, Note_on_c, 0, 70, 0
2, 228624, Control_c, 0, 64, 47
2, 228653, Note_on_c, 0, 72, 0
2, 228682, Control_c, 0, 64, 49
2, 228721, Control_c, 0, 64, 48
2, 228738, Control_c, 0, 64, 47
2, 228749, Note_on_c, 0, 60, 75
2, 228757, Control_c, 0, 64, 46
2, 228796, Control_c, 0, 64, 45
2, 228815, Control_c, 0, 64, 43
2, 228827, Note_on_c, 0, 56, 0
2, 228873, Control_c, 0, 64, 45
2, 228893, Control_c, 0, 64, 50
2, 228913, Control_c, 0, 64, 58
2, 228933, Control_c, 0, 64, 66
2, 228949, Control_c, 0, 64, 76
2, 228967, Note_on_c, 0, 62, 81
2, 228967, Note_on_c, 0, 75, 78
2, 228971, Control_c, 0, 64, 127
2, 228987, Note_on_c, 0, 60, 0
2, 229027, Note_on_c, 0, 62, 0
2, 229047, Note_on_c, 0, 73, 11
2, 229062, Note_on_c, 0, 48, 0
2, 229110, Note_on_c, 0, 73, 0
2, 229171, Note_on_c, 0, 63, 69
2, 229237, Note_on_c, 0, 63, 0
2, 229258, Note_on_c, 0, 75, 0
2, 229416, Note_on_c, 0, 47, 76
2, 229433, Control_c, 0, 64, 90
2, 229437, Note_on_c, 0, 65, 63
2, 229437, Note_on_c, 0, 74, 68
2, 229448, Control_c, 0, 64, 68
2, 229469, Control_c, 0, 64, 55
2, 229487, Control_c, 0, 64, 44
2, 229506, Control_c, 0, 64, 34
2, 229525, Control_c, 0, 64, 18
2, 229545, Control_c, 0, 64, 0
2, 229642, Note_on_c, 0, 53, 66
2, 229659, Note_on_c, 0, 65, 0
2, 229838, Note_on_c, 0, 53, 0
2, 229865, Note_on_c, 0, 55, 69
2, 229865, Note_on_c, 0, 75, 59
2, 229873, Note_on_c, 0, 74, 0
2, 230044, Note_on_c, 0, 75, 0
2, 230060, Note_on_c, 0, 55, 0
2, 230071, Note_on_c, 0, 56, 65
2, 230071, Note_on_c, 0, 77, 66
2, 230285, Note_on_c, 0, 56, 0
2, 230309, Note_on_c, 0, 52, 85
2, 230309, Note_on_c, 0, 58, 82
2, 230325, Note_on_c, 0, 79, 76
2, 230330, Note_on_c, 0, 47, 0
2, 230331, Note_on_c, 0, 77, 0
2, 230353, Control_c, 0, 64, 58
2, 230370, Control_c, 0, 64, 73
2, 230390, Control_c, 0, 64, 127
2, 230549, Note_on_c, 0, 77, 75
2, 230549, Note_on_c, 0, 79, 0
2, 230600, Note_on_c, 0, 77, 0
2, 230735, Control_c, 0, 64, 85
2, 230753, Control_c, 0, 64, 65
2, 230764, Note_on_c, 0, 76, 74
2, 230768, Note_on_c, 0, 67, 61
2, 230773, Control_c, 0, 64, 54
2, 230792, Control_c, 0, 64, 42
2, 230812, Control_c, 0, 64, 28
2, 230830, Control_c, 0, 64, 0
2, 230849, Note_on_c, 0, 58, 0
2, 230969, Note_on_c, 0, 74, 69
2, 230974, Note_on_c, 0, 67, 0
2, 230974, Note_on_c, 0, 76, 0
2, 231218, Note_on_c, 0, 52, 0
2, 231224, Note_on_c, 0, 53, 85
2, 231228, Note_on_c, 0, 72, 74
2, 231237, Note_on_c, 0, 68, 68
2, 231251, Note_on_c, 0, 74, 0
2, 231370, Control_c, 0, 64, 22
2, 231388, Control_c, 0, 64, 36
2, 231410, Control_c, 0, 64, 55
2, 231425, Control_c, 0, 64, 65
2, 231436, Note_on_c, 0, 56, 71
2, 231447, Control_c, 0, 64, 72
2, 231458, Note_on_c, 0, 72, 0
2, 231465, Control_c, 0, 64, 81
2, 231485, Control_c, 0, 64, 87
2, 231490, Note_on_c, 0, 68, 0
2, 231504, Control_c, 0, 64, 91
2, 231523, Control_c, 0, 64, 95
2, 231543, Control_c, 0, 64, 103
2, 231561, Control_c, 0, 64, 120
2, 231579, Control_c, 0, 64, 127
2, 231653, Note_on_c, 0, 56, 0
2, 231659, Note_on_c, 0, 58, 74
2, 231822, Note_on_c, 0, 58, 0
2, 231860, Note_on_c, 0, 60, 70
2, 231928, Note_on_c, 0, 60, 0
2, 232078, Control_c, 0, 64, 84
2, 232099, Note_on_c, 0, 53, 0
2, 232103, Control_c, 0, 64, 64
2, 232107, Note_on_c, 0, 46, 79
2, 232119, Control_c, 0, 64, 55
2, 232121, Note_on_c, 0, 61, 65
2, 232137, Control_c, 0, 64, 45
2, 232157, Control_c, 0, 64, 32
2, 232175, Control_c, 0, 64, 0
2, 232339, Note_on_c, 0, 70, 63
2, 232407, Control_c, 0, 64, 41
2, 232412, Note_on_c, 0, 61, 0
2, 232424, Control_c, 0, 64, 59
2, 232445, Control_c, 0, 64, 68
2, 232464, Control_c, 0, 64, 76
2, 232484, Control_c, 0, 64, 90
2, 232501, Control_c, 0, 64, 112
2, 232520, Control_c, 0, 64, 127
2, 232544, Note_on_c, 0, 68, 72
2, 232611, Note_on_c, 0, 70, 0
2, 232705, Note_on_c, 0, 68, 0
2, 232747, Note_on_c, 0, 67, 66
2, 232906, Control_c, 0, 64, 88
2, 232925, Control_c, 0, 64, 60
2, 232943, Control_c, 0, 64, 17
2, 232962, Control_c, 0, 64, 0
2, 232979, Note_on_c, 0, 67, 0
2, 232997, Note_on_c, 0, 45, 72
2, 233001, Note_on_c, 0, 65, 61
2, 233001, Note_on_c, 0, 72, 62
2, 233038, Note_on_c, 0, 46, 0
2, 233116, Control_c, 0, 64, 34
2, 233135, Control_c, 0, 64, 50
2, 233157, Control_c, 0, 64, 61
2, 233157, Note_on_c, 0, 65, 0
2, 233175, Control_c, 0, 64, 64
2, 233194, Control_c, 0, 64, 65
2, 233210, Note_on_c, 0, 60, 68
2, 233215, Control_c, 0, 64, 66
2, 233232, Control_c, 0, 64, 67
2, 233251, Control_c, 0, 64, 70
2, 233270, Control_c, 0, 64, 73
2, 233292, Control_c, 0, 64, 77
2, 233297, Note_on_c, 0, 60, 0
2, 233308, Control_c, 0, 64, 78
2, 233436, Note_on_c, 0, 62, 68
2, 233537, Control_c, 0, 64, 77
2, 233557, Control_c, 0, 64, 76
2, 233579, Control_c, 0, 64, 73
2, 233596, Control_c, 0, 64, 67
2, 233614, Control_c, 0, 64, 62
2, 233635, Note_on_c, 0, 62, 0
2, 233639, Control_c, 0, 64, 59
2, 233657, Control_c, 0, 64, 57
2, 233657, Note_on_c, 0, 64, 66
2, 233673, Control_c, 0, 64, 54
2, 233692, Control_c, 0, 64, 50
2, 233713, Control_c, 0, 64, 45
2, 233731, Control_c, 0, 64, 41
2, 233751, Control_c, 0, 64, 38
2, 233788, Control_c, 0, 64, 36
2, 233807, Control_c, 0, 64, 34
2, 233825, Control_c, 0, 64, 31
2, 233845, Control_c, 0, 64, 30
2, 233862, Note_on_c, 0, 64, 0
2, 233866, Note_on_c, 0, 44, 66
2, 233891, Note_on_c, 0, 65, 56
2, 233900, Note_on_c, 0, 45, 0
2, 233906, Note_on_c, 0, 72, 0
2, 233945, Note_on_c, 0, 65, 0
2, 234019, Control_c, 0, 64, 28
2, 234057, Control_c, 0, 64, 27
2, 234083, Note_on_c, 0, 65, 58
2, 234191, Control_c, 0, 64, 26
2, 234304, Note_on_c, 0, 72, 63
2, 234313, Note_on_c, 0, 67, 54
2, 234383, Control_c, 0, 64, 25
2, 234396, Note_on_c, 0, 72, 0
2, 234488, Note_on_c, 0, 67, 0
2, 234524, Note_on_c, 0, 68, 58
2, 234672, Control_c, 0, 64, 23
2, 234689, Control_c, 0, 64, 15
2, 234711, Control_c, 0, 64, 0
2, 234771, Note_on_c, 0, 43, 61
2, 234789, Control_c, 0, 64, 23
2, 234791, Note_on_c, 0, 73, 61
2, 234802, Note_on_c, 0, 44, 0
2, 234802, Note_on_c, 0, 70, 52
2, 234807, Control_c, 0, 64, 42
2, 234822, Note_on_c, 0, 68, 0
2, 234827, Control_c, 0, 64, 56
2, 234843, Control_c, 0, 64, 64
2, 234864, Control_c, 0, 64, 66
2, 234864, Note_on_c, 0, 65, 0
2, 234885, Control_c, 0, 64, 69
2, 234901, Control_c, 0, 64, 76
2, 234912, Note_on_c, 0, 73, 0
2, 234921, Control_c, 0, 64, 88
2, 234927, Note_on_c, 0, 70, 0
2, 234940, Control_c, 0, 64, 118
2, 234959, Control_c, 0, 64, 127
2, 235191, Control_c, 0, 64, 98
2, 235204, Note_on_c, 0, 72, 68
2, 235211, Control_c, 0, 64, 73
2, 235215, Note_on_c, 0, 64, 63
2, 235228, Control_c, 0, 64, 62
2, 235248, Control_c, 0, 64, 53
2, 235266, Control_c, 0, 64, 48
2, 235286, Control_c, 0, 64, 43
2, 235303, Control_c, 0, 64, 37
2, 235323, Control_c, 0, 64, 31
2, 235343, Control_c, 0, 64, 23
2, 235362, Control_c, 0, 64, 16
2, 235381, Control_c, 0, 64, 0
2, 235392, Note_on_c, 0, 64, 0
2, 235423, Note_on_c, 0, 62, 65
2, 235423, Note_on_c, 0, 70, 63
2, 235423, Note_on_c, 0, 72, 0
2, 235665, Note_on_c, 0, 70, 0
2, 235676, Note_on_c, 0, 64, 61
2, 235676, Note_on_c, 0, 72, 64
2, 235714, Note_on_c, 0, 62, 0
2, 235727, Control_c, 0, 64, 22
2, 235745, Control_c, 0, 64, 44
2, 235765, Control_c, 0, 64, 59
2, 235785, Control_c, 0, 64, 65
2, 235805, Control_c, 0, 64, 72
2, 235823, Control_c, 0, 64, 87
2, 235843, Control_c, 0, 64, 127
2, 235863, Note_on_c, 0, 72, 0
2, 235890, Note_on_c, 0, 64, 0
2, 236107, Note_on_c, 0, 68, 65
2, 236306, Control_c, 0, 64, 87
2, 236306, Note_on_c, 0, 68, 0
2, 236322, Note_on_c, 0, 67, 61
2, 236328, Control_c, 0, 64, 72
2, 236342, Control_c, 0, 64, 64
2, 236361, Control_c, 0, 64, 60
2, 236381, Control_c, 0, 64, 56
2, 236400, Control_c, 0, 64, 51
2, 236419, Control_c, 0, 64, 38
2, 236437, Control_c, 0, 64, 20
2, 236457, Control_c, 0, 64, 0
2, 236533, Note_on_c, 0, 67, 0
2, 236564, Note_on_c, 0, 43, 0
2, 236585, Note_on_c, 0, 41, 54
2, 236585, Note_on_c, 0, 68, 51
2, 236587, Note_on_c, 0, 65, 48
2, 236592, Note_on_c, 0, 72, 54
2, 236631, Control_c, 0, 64, 11
2, 236648, Control_c, 0, 64, 45
2, 236671, Control_c, 0, 64, 59
2, 236680, Note_on_c, 0, 41, 0
2, 236687, Control_c, 0, 64, 66
2, 236707, Control_c, 0, 64, 72
2, 236725, Control_c, 0, 64, 86
2, 236745, Control_c, 0, 64, 127
2, 236917, Note_on_c, 0, 65, 0
2, 236936, Note_on_c, 0, 68, 0
2, 236970, Note_on_c, 0, 72, 0
2, 237044, Note_on_c, 0, 53, 50
2, 237222, Note_on_c, 0, 53, 0
2, 237244, Control_c, 0, 64, 98
2, 237255, Note_on_c, 0, 55, 60
2, 237266, Control_c, 0, 64, 75
2, 237284, Control_c, 0, 64, 62
2, 237303, Control_c, 0, 64, 49
2, 237321, Control_c, 0, 64, 27
2, 237339, Control_c, 0, 64, 0
2, 237480, Note_on_c, 0, 55, 0
2, 237518, Note_on_c, 0, 56, 58
2, 237534, Control_c, 0, 64, 31
2, 237551, Control_c, 0, 64, 50
2, 237573, Control_c, 0, 64, 62
2, 237588, Control_c, 0, 64, 67
2, 237607, Note_on_c, 0, 56, 0
2, 237611, Control_c, 0, 64, 73
2, 237628, Control_c, 0, 64, 82
2, 237648, Control_c, 0, 64, 96
2, 237665, Control_c, 0, 64, 127
2, 237918, Note_on_c, 0, 60, 65
2, 237935, Control_c, 0, 64, 104
2, 237954, Control_c, 0, 64, 86
2, 237977, Control_c, 0, 64, 75
2, 237994, Control_c, 0, 64, 67
2, 238013, Control_c, 0, 64, 62
2, 238031, Control_c, 0, 64, 60
2, 238049, Control_c, 0, 64, 59
2, 238138, Note_on_c, 0, 61, 66
2, 238146, Note_on_c, 0, 60, 0
2, 238162, Note_on_c, 0, 58, 56
2, 238184, Control_c, 0, 64, 58
2, 238222, Control_c, 0, 64, 57
2, 238246, Control_c, 0, 64, 56
2, 238261, Control_c, 0, 64, 55
2, 238281, Control_c, 0, 64, 50
2, 238299, Control_c, 0, 64, 35
2, 238318, Control_c, 0, 64, 0
2, 238378, Note_on_c, 0, 61, 0
2, 238395, Control_c, 0, 64, 24
2, 238408, Note_on_c, 0, 60, 64
2, 238408, Note_on_c, 0, 63, 62
2, 238415, Control_c, 0, 64, 47
2, 238426, Note_on_c, 0, 58, 0
2, 238435, Control_c, 0, 64, 60
2, 238455, Control_c, 0, 64, 65
2, 238473, Control_c, 0, 64, 67
2, 238493, Control_c, 0, 64, 70
2, 238511, Control_c, 0, 64, 73
2, 238531, Control_c, 0, 64, 79
2, 238550, Control_c, 0, 64, 84
2, 238558, Note_on_c, 0, 63, 0
2, 238570, Control_c, 0, 64, 88
2, 238588, Control_c, 0, 64, 90
2, 238607, Control_c, 0, 64, 91
2, 238625, Control_c, 0, 64, 94
2, 238644, Control_c, 0, 64, 101
2, 238664, Control_c, 0, 64, 110
2, 238683, Control_c, 0, 64, 127
2, 238742, Control_c, 0, 64, 120
2, 238760, Control_c, 0, 64, 106
2, 238781, Control_c, 0, 64, 95
2, 238790, Note_on_c, 0, 63, 63
2, 238794, Note_on_c, 0, 78, 66
2, 238799, Control_c, 0, 64, 83
2, 238819, Control_c, 0, 64, 72
2, 238837, Control_c, 0, 64, 64
2, 238857, Control_c, 0, 64, 58
2, 238879, Control_c, 0, 64, 53
2, 238895, Control_c, 0, 64, 50
2, 238914, Control_c, 0, 64, 46
2, 238933, Control_c, 0, 64, 43
2, 238952, Control_c, 0, 64, 39
2, 238973, Control_c, 0, 64, 36
2, 238991, Control_c, 0, 64, 34
2, 238999, Note_on_c, 0, 78, 0
2, 239013, Control_c, 0, 64, 33
2, 239013, Note_on_c, 0, 77, 70
2, 239024, Note_on_c, 0, 65, 52
2, 239028, Note_on_c, 0, 63, 0
2, 239031, Control_c, 0, 64, 32
2, 239068, Control_c, 0, 64, 31
2, 239088, Control_c, 0, 64, 30
2, 239234, Note_on_c, 0, 77, 0
2, 239251, Note_on_c, 0, 66, 64
2, 239251, Note_on_c, 0, 75, 67
2, 239348, Note_on_c, 0, 65, 0
2, 239441, Note_on_c, 0, 75, 0
2, 239447, Note_on_c, 0, 73, 67
2, 239452, Note_on_c, 0, 60, 0
2, 239470, Note_on_c, 0, 58, 61
2, 239615, Note_on_c, 0, 58, 0
2, 239670, Note_on_c, 0, 56, 60
2, 239684, Note_on_c, 0, 72, 65
2, 239717, Note_on_c, 0, 73, 0
2, 239850, Note_on_c, 0, 56, 0
2, 239862, Note_on_c, 0, 72, 0
2, 239868, Note_on_c, 0, 54, 59
2, 239874, Note_on_c, 0, 70, 65
2, 240047, Control_c, 0, 64, 29
2, 240101, Note_on_c, 0, 54, 0
2, 240119, Note_on_c, 0, 53, 55
2, 240129, Note_on_c, 0, 70, 0
2, 240134, Note_on_c, 0, 68, 58
2, 240144, Control_c, 0, 64, 32
2, 240163, Control_c, 0, 64, 35
2, 240181, Control_c, 0, 64, 41
2, 240202, Control_c, 0, 64, 47
2, 240220, Control_c, 0, 64, 50
2, 240240, Control_c, 0, 64, 52
2, 240290, Note_on_c, 0, 66, 0
2, 240355, Control_c, 0, 64, 51
2, 240450, Control_c, 0, 64, 50
2, 240509, Control_c, 0, 64, 49
2, 240529, Note_on_c, 0, 53, 0
2, 240534, Note_on_c, 0, 68, 0
2, 240542, Note_on_c, 0, 70, 62
2, 240547, Control_c, 0, 64, 48
2, 240547, Note_on_c, 0, 65, 55
2, 240556, Note_on_c, 0, 49, 49
2, 240568, Control_c, 0, 64, 47
2, 240605, Note_on_c, 0, 65, 0
2, 240609, Control_c, 0, 64, 46
2, 240662, Control_c, 0, 64, 45
2, 240713, Note_on_c, 0, 49, 0
2, 240722, Control_c, 0, 64, 44
2, 240751, Note_on_c, 0, 70, 0
2, 240768, Note_on_c, 0, 51, 58
2, 240768, Note_on_c, 0, 63, 56
2, 240772, Note_on_c, 0, 72, 64
2, 240816, Control_c, 0, 64, 43
2, 240835, Note_on_c, 0, 63, 0
2, 240854, Control_c, 0, 64, 42
2, 240891, Control_c, 0, 64, 40
2, 240910, Control_c, 0, 64, 37
2, 240933, Control_c, 0, 64, 29
2, 240948, Control_c, 0, 64, 0
2, 240970, Note_on_c, 0, 51, 0
2, 240989, Note_on_c, 0, 72, 0
2, 241011, Note_on_c, 0, 53, 44
2, 241019, Note_on_c, 0, 73, 61
2, 241026, Control_c, 0, 64, 33
2, 241046, Control_c, 0, 64, 48
2, 241050, Note_on_c, 0, 61, 47
2, 241067, Control_c, 0, 64, 60
2, 241083, Control_c, 0, 64, 64
2, 241102, Control_c, 0, 64, 67
2, 241124, Control_c, 0, 64, 71
2, 241133, Note_on_c, 0, 53, 0
2, 241142, Control_c, 0, 64, 80
2, 241161, Control_c, 0, 64, 95
2, 241179, Control_c, 0, 64, 127
2, 241326, Note_on_c, 0, 61, 0
2, 241448, Control_c, 0, 64, 108
2, 241452, Note_on_c, 0, 56, 63
2, 241467, Control_c, 0, 64, 84
2, 241481, Note_on_c, 0, 53, 57
2, 241488, Control_c, 0, 64, 70
2, 241507, Control_c, 0, 64, 63
2, 241525, Control_c, 0, 64, 57
2, 241544, Control_c, 0, 64, 52
2, 241564, Control_c, 0, 64, 49
2, 241571, Note_on_c, 0, 73, 0
2, 241583, Control_c, 0, 64, 45
2, 241603, Control_c, 0, 64, 42
2, 241624, Control_c, 0, 64, 39
2, 241624, Note_on_c, 0, 56, 0
2, 241635, Note_on_c, 0, 53, 0
2, 241641, Control_c, 0, 64, 37
2, 241659, Control_c, 0, 64, 36
2, 241675, Note_on_c, 0, 55, 60
2, 241679, Note_on_c, 0, 58, 71
2, 241699, Control_c, 0, 64, 35
2, 241716, Control_c, 0, 64, 34
2, 241813, Control_c, 0, 64, 33
2, 241833, Control_c, 0, 64, 32
2, 241905, Note_on_c, 0, 58, 0
2, 241930, Control_c, 0, 64, 33
2, 241932, Note_on_c, 0, 56, 65
2, 241937, Note_on_c, 0, 60, 58
2, 241941, Note_on_c, 0, 55, 0
2, 241948, Control_c, 0, 64, 37
2, 241966, Control_c, 0, 64, 46
2, 241985, Control_c, 0, 64, 55
2, 242006, Control_c, 0, 64, 61
2, 242026, Control_c, 0, 64, 63
2, 242044, Control_c, 0, 64, 64
2, 242055, Note_on_c, 0, 60, 0
2, 242064, Control_c, 0, 64, 66
2, 242082, Control_c, 0, 64, 69
2, 242101, Control_c, 0, 64, 74
2, 242121, Control_c, 0, 64, 79
2, 242141, Control_c, 0, 64, 85
2, 242159, Control_c, 0, 64, 89
2, 242178, Control_c, 0, 64, 91
2, 242196, Control_c, 0, 64, 94
2, 242216, Control_c, 0, 64, 97
2, 242234, Control_c, 0, 64, 99
2, 242255, Control_c, 0, 64, 100
2, 242273, Control_c, 0, 64, 95
2, 242292, Control_c, 0, 64, 79
2, 242313, Control_c, 0, 64, 64
2, 242334, Control_c, 0, 64, 48
2, 242350, Note_on_c, 0, 60, 57
2, 242355, Control_c, 0, 64, 21
2, 242363, Note_on_c, 0, 75, 60
2, 242370, Control_c, 0, 64, 0
2, 242431, Control_c, 0, 64, 27
2, 242448, Control_c, 0, 64, 41
2, 242467, Control_c, 0, 64, 52
2, 242484, Control_c, 0, 64, 60
2, 242506, Control_c, 0, 64, 63
2, 242526, Control_c, 0, 64, 64
2, 242535, Note_on_c, 0, 60, 0
2, 242556, Note_on_c, 0, 61, 55
2, 242561, Control_c, 0, 64, 65
2, 242561, Note_on_c, 0, 75, 0
2, 242574, Note_on_c, 0, 73, 65
2, 242581, Control_c, 0, 64, 67
2, 242600, Control_c, 0, 64, 69
2, 242620, Control_c, 0, 64, 71
2, 242640, Control_c, 0, 64, 73
2, 242657, Control_c, 0, 64, 75
2, 242678, Control_c, 0, 64, 78
2, 242699, Control_c, 0, 64, 81
2, 242714, Control_c, 0, 64, 82
2, 242736, Control_c, 0, 64, 81
2, 242753, Control_c, 0, 64, 75
2, 242768, Note_on_c, 0, 73, 0
2, 242776, Control_c, 0, 64, 67
2, 242795, Control_c, 0, 64, 61
2, 242795, Note_on_c, 0, 61, 0
2, 242799, Note_on_c, 0, 72, 72
2, 242803, Note_on_c, 0, 63, 64
2, 242812, Control_c, 0, 64, 57
2, 242831, Control_c, 0, 64, 52
2, 242850, Control_c, 0, 64, 48
2, 242870, Control_c, 0, 64, 43
2, 242890, Control_c, 0, 64, 41
2, 242907, Control_c, 0, 64, 40
2, 242981, Note_on_c, 0, 56, 0
2, 242986, Note_on_c, 0, 72, 0
2, 242997, Note_on_c, 0, 54, 64
2, 243005, Note_on_c, 0, 70, 69
2, 243120, Control_c, 0, 64, 39
2, 243148, Note_on_c, 0, 54, 0
2, 243206, Note_on_c, 0, 53, 60
2, 243213, Note_on_c, 0, 68, 72
2, 243240, Note_on_c, 0, 70, 0
2, 243255, Control_c, 0, 64, 40
2, 243271, Control_c, 0, 64, 41
2, 243369, Control_c, 0, 64, 42
2, 243385, Note_on_c, 0, 53, 0
2, 243389, Control_c, 0, 64, 44
2, 243407, Control_c, 0, 64, 48
2, 243414, Note_on_c, 0, 51, 59
2, 243420, Note_on_c, 0, 66, 66
2, 243425, Control_c, 0, 64, 53
2, 243434, Note_on_c, 0, 68, 0
2, 243445, Control_c, 0, 64, 57
2, 243468, Control_c, 0, 64, 60
2, 243483, Control_c, 0, 64, 61
2, 243503, Control_c, 0, 64, 63
2, 243521, Control_c, 0, 64, 64
2, 243540, Control_c, 0, 64, 66
2, 243545, Note_on_c, 0, 66, 0
2, 243563, Control_c, 0, 64, 67
2, 243580, Control_c, 0, 64, 69
2, 243618, Control_c, 0, 64, 65
2, 243638, Control_c, 0, 64, 58
2, 243658, Control_c, 0, 64, 47
2, 243678, Control_c, 0, 64, 36
2, 243678, Note_on_c, 0, 51, 0
2, 243678, Note_on_c, 0, 65, 58
2, 243682, Note_on_c, 0, 49, 53
2, 243696, Control_c, 0, 64, 31
2, 243717, Control_c, 0, 64, 34
2, 243730, Note_on_c, 0, 63, 0
2, 243735, Control_c, 0, 64, 41
2, 243752, Control_c, 0, 64, 48
2, 243773, Control_c, 0, 64, 54
2, 243790, Control_c, 0, 64, 57
2, 243810, Control_c, 0, 64, 58
2, 243830, Control_c, 0, 64, 59
2, 243962, Control_c, 0, 64, 58
2, 243982, Control_c, 0, 64, 57
2, 244002, Control_c, 0, 64, 56
2, 244020, Control_c, 0, 64, 53
2, 244040, Control_c, 0, 64, 50
2, 244060, Control_c, 0, 64, 47
2, 244078, Control_c, 0, 64, 43
2, 244094, Note_on_c, 0, 49, 0
2, 244094, Note_on_c, 0, 65, 0
2, 244099, Control_c, 0, 64, 37
2, 244104, Note_on_c, 0, 67, 67
2, 244111, Note_on_c, 0, 61, 60
2, 244118, Note_on_c, 0, 46, 56
2, 244120, Control_c, 0, 64, 29
2, 244138, Control_c, 0, 64, 12
2, 244156, Control_c, 0, 64, 0
2, 244178, Note_on_c, 0, 61, 0
2, 244276, Note_on_c, 0, 46, 0
2, 244314, Note_on_c, 0, 69, 70
2, 244316, Note_on_c, 0, 60, 68
2, 244324, Note_on_c, 0, 67, 0
2, 244328, Note_on_c, 0, 48, 56
2, 244367, Note_on_c, 0, 60, 0
2, 244556, Note_on_c, 0, 69, 0
2, 244563, Note_on_c, 0, 48, 0
2, 244587, Note_on_c, 0, 49, 62
2, 244587, Note_on_c, 0, 70, 69
2, 244592, Note_on_c, 0, 58, 64
2, 244617, Control_c, 0, 64, 35
2, 244637, Control_c, 0, 64, 54
2, 244657, Control_c, 0, 64, 62
2, 244671, Note_on_c, 0, 49, 0
2, 244673, Control_c, 0, 64, 66
2, 244692, Control_c, 0, 64, 70
2, 244713, Control_c, 0, 64, 79
2, 244731, Control_c, 0, 64, 98
2, 244750, Control_c, 0, 64, 127
2, 244926, Note_on_c, 0, 58, 0
2, 244997, Note_on_c, 0, 53, 68
2, 245001, Control_c, 0, 64, 88
2, 245001, Note_on_c, 0, 49, 65
2, 245019, Control_c, 0, 64, 66
2, 245039, Control_c, 0, 64, 56
2, 245059, Control_c, 0, 64, 48
2, 245077, Control_c, 0, 64, 43
2, 245088, Note_on_c, 0, 70, 0
2, 245097, Control_c, 0, 64, 38
2, 245114, Control_c, 0, 64, 34
2, 245135, Control_c, 0, 64, 31
2, 245153, Control_c, 0, 64, 28
2, 245164, Note_on_c, 0, 53, 0
2, 245173, Control_c, 0, 64, 26
2, 245184, Note_on_c, 0, 49, 0
2, 245195, Control_c, 0, 64, 25
2, 245203, Note_on_c, 0, 51, 66
2, 245212, Control_c, 0, 64, 24
2, 245217, Note_on_c, 0, 55, 72
2, 245234, Control_c, 0, 64, 23
2, 245269, Control_c, 0, 64, 22
2, 245307, Control_c, 0, 64, 21
2, 245326, Control_c, 0, 64, 18
2, 245344, Control_c, 0, 64, 13
2, 245366, Control_c, 0, 64, 0
2, 245443, Note_on_c, 0, 55, 0
2, 245464, Note_on_c, 0, 53, 71
2, 245473, Note_on_c, 0, 56, 68
2, 245477, Note_on_c, 0, 51, 0
2, 245538, Control_c, 0, 64, 34
2, 245558, Control_c, 0, 64, 49
2, 245576, Control_c, 0, 64, 60
2, 245598, Control_c, 0, 64, 64
2, 245616, Control_c, 0, 64, 66
2, 245633, Control_c, 0, 64, 70
2, 245646, Note_on_c, 0, 56, 0
2, 245654, Control_c, 0, 64, 77
2, 245672, Control_c, 0, 64, 86
2, 245693, Control_c, 0, 64, 97
2, 245711, Control_c, 0, 64, 103
2, 245732, Control_c, 0, 64, 107
2, 245750, Control_c, 0, 64, 116
2, 245768, Control_c, 0, 64, 127
2, 245845, Control_c, 0, 64, 93
2, 245866, Control_c, 0, 64, 74
2, 245883, Control_c, 0, 64, 64
2, 245907, Control_c, 0, 64, 56
2, 245907, Note_on_c, 0, 56, 66
2, 245907, Note_on_c, 0, 72, 70
2, 245926, Control_c, 0, 64, 50
2, 245943, Control_c, 0, 64, 43
2, 245963, Control_c, 0, 64, 34
2, 245979, Control_c, 0, 64, 21
2, 245998, Control_c, 0, 64, 0
2, 246112, Note_on_c, 0, 56, 0
2, 246117, Note_on_c, 0, 58, 68
2, 246128, Note_on_c, 0, 70, 76
2, 246162, Note_on_c, 0, 72, 0
2, 246342, Note_on_c, 0, 60, 74
2, 246342, Note_on_c, 0, 68, 78
2, 246348, Control_c, 0, 64, 45
2, 246352, Note_on_c, 0, 70, 0
2, 246365, Control_c, 0, 64, 60
2, 246385, Control_c, 0, 64, 67
2, 246401, Control_c, 0, 64, 74
2, 246422, Control_c, 0, 64, 89
2, 246440, Control_c, 0, 64, 127
2, 246478, Note_on_c, 0, 58, 0
2, 246546, Note_on_c, 0, 67, 75
2, 246551, Note_on_c, 0, 51, 72
2, 246551, Note_on_c, 0, 68, 0
2, 246564, Note_on_c, 0, 53, 0
2, 246575, Control_c, 0, 64, 96
2, 246594, Control_c, 0, 64, 71
2, 246614, Control_c, 0, 64, 60
2, 246635, Control_c, 0, 64, 49
2, 246652, Control_c, 0, 64, 42
2, 246674, Control_c, 0, 64, 38
2, 246690, Control_c, 0, 64, 34
2, 246703, Note_on_c, 0, 51, 0
2, 246710, Control_c, 0, 64, 28
2, 246728, Control_c, 0, 64, 24
2, 246749, Control_c, 0, 64, 23
2, 246753, Note_on_c, 0, 49, 63
2, 246767, Control_c, 0, 64, 22
2, 246771, Note_on_c, 0, 65, 67
2, 246805, Control_c, 0, 64, 20
2, 246827, Control_c, 0, 64, 18
2, 246844, Control_c, 0, 64, 16
2, 246849, Note_on_c, 0, 67, 0
2, 246865, Control_c, 0, 64, 15
2, 246882, Control_c, 0, 64, 14
2, 246919, Control_c, 0, 64, 13
2, 246941, Note_on_c, 0, 49, 0
2, 246985, Note_on_c, 0, 48, 49
2, 246989, Note_on_c, 0, 63, 71
2, 246998, Control_c, 0, 64, 11
2, 247005, Note_on_c, 0, 47, 47
2, 247018, Control_c, 0, 64, 0
2, 247025, Note_on_c, 0, 65, 0
2, 247056, Note_on_c, 0, 47, 0
2, 247163, Note_on_c, 0, 48, 0
2, 247163, Note_on_c, 0, 60, 0
2, 247186, Note_on_c, 0, 46, 67
2, 247194, Control_c, 0, 64, 10
2, 247194, Note_on_c, 0, 61, 68
2, 247203, Note_on_c, 0, 63, 0
2, 247208, Control_c, 0, 64, 26
2, 247227, Control_c, 0, 64, 41
2, 247248, Control_c, 0, 64, 52
2, 247266, Control_c, 0, 64, 59
2, 247286, Control_c, 0, 64, 62
2, 247305, Control_c, 0, 64, 63
2, 247323, Control_c, 0, 64, 64
2, 247345, Control_c, 0, 64, 66
2, 247361, Control_c, 0, 64, 68
2, 247374, Note_on_c, 0, 46, 0
2, 247381, Control_c, 0, 64, 71
2, 247400, Control_c, 0, 64, 74
2, 247404, Note_on_c, 0, 48, 70
2, 247420, Control_c, 0, 64, 77
2, 247439, Control_c, 0, 64, 78
2, 247496, Control_c, 0, 64, 75
2, 247514, Control_c, 0, 64, 70
2, 247535, Control_c, 0, 64, 64
2, 247554, Control_c, 0, 64, 57
2, 247574, Control_c, 0, 64, 47
2, 247593, Control_c, 0, 64, 18
2, 247600, Note_on_c, 0, 48, 0
2, 247609, Note_on_c, 0, 49, 69
2, 247613, Control_c, 0, 64, 0
2, 247617, Note_on_c, 0, 58, 64
2, 247766, Control_c, 0, 64, 28
2, 247784, Control_c, 0, 64, 55
2, 247802, Control_c, 0, 64, 66
2, 247811, Note_on_c, 0, 49, 0
2, 247818, Note_on_c, 0, 48, 71
2, 247820, Note_on_c, 0, 60, 71
2, 247824, Control_c, 0, 64, 75
2, 247843, Control_c, 0, 64, 109
2, 247847, Note_on_c, 0, 58, 0
2, 247863, Control_c, 0, 64, 127
2, 247891, Note_on_c, 0, 61, 0
2, 247895, Note_on_c, 0, 60, 0
2, 247908, Note_on_c, 0, 48, 0
2, 248044, Note_on_c, 0, 46, 66
2, 248047, Note_on_c, 0, 61, 64
2, 248076, Control_c, 0, 64, 78
2, 248094, Control_c, 0, 64, 62
2, 248114, Control_c, 0, 64, 51
2, 248132, Control_c, 0, 64, 42
2, 248150, Control_c, 0, 64, 37
2, 248169, Control_c, 0, 64, 31
2, 248189, Control_c, 0, 64, 21
2, 248209, Control_c, 0, 64, 11
2, 248228, Control_c, 0, 64, 0
2, 248247, Note_on_c, 0, 44, 73
2, 248251, Note_on_c, 0, 46, 0
2, 248251, Note_on_c, 0, 65, 66
2, 248465, Note_on_c, 0, 44, 0
2, 248469, Note_on_c, 0, 43, 75
2, 248478, Note_on_c, 0, 70, 72
2, 248482, Note_on_c, 0, 65, 0
2, 248663, Note_on_c, 0, 43, 0
2, 248671, Note_on_c, 0, 41, 69
2, 248685, Note_on_c, 0, 68, 73
2, 248843, Note_on_c, 0, 70, 0
2, 248909, Note_on_c, 0, 41, 0
2, 248925, Note_on_c, 0, 39, 58
2, 248929, Note_on_c, 0, 67, 63
2, 248964, Note_on_c, 0, 68, 0
2, 249041, Note_on_c, 0, 39, 0
2, 249323, Control_c, 0, 64, 43
2, 249341, Control_c, 0, 64, 62
2, 249346, Note_on_c, 0, 61, 0
2, 249362, Control_c, 0, 64, 74
2, 249371, Note_on_c, 0, 67, 0
2, 249373, Note_on_c, 0, 46, 48
2, 249378, Note_on_c, 0, 63, 63
2, 249382, Control_c, 0, 64, 127
2, 249509, Note_on_c, 0, 63, 0
2, 249531, Note_on_c, 0, 46, 0
2, 249563, Note_on_c, 0, 61, 45
2, 249675, Note_on_c, 0, 61, 0
2, 249802, Control_c, 0, 64, 91
2, 249822, Control_c, 0, 64, 64
2, 249835, Note_on_c, 0, 63, 82
2, 249839, Note_on_c, 0, 60, 58
2, 249844, Control_c, 0, 64, 42
2, 249848, Note_on_c, 0, 48, 51
2, 249848, Note_on_c, 0, 68, 63
2, 249860, Control_c, 0, 64, 0
2, 249908, Note_on_c, 0, 48, 0
2, 250207, Control_c, 0, 64, 35
2, 250225, Control_c, 0, 64, 54
2, 250241, Note_on_c, 0, 60, 0
2, 250245, Control_c, 0, 64, 65
2, 250262, Control_c, 0, 64, 74
2, 250271, Note_on_c, 0, 44, 54
2, 250284, Control_c, 0, 64, 97
2, 250290, Note_on_c, 0, 61, 55
2, 250303, Control_c, 0, 64, 127
2, 250323, Note_on_c, 0, 44, 0
2, 250507, Note_on_c, 0, 61, 0
2, 250507, Note_on_c, 0, 68, 0
2, 250515, Note_on_c, 0, 60, 50
2, 250535, Note_on_c, 0, 63, 0
2, 250551, Note_on_c, 0, 60, 0
2, 250742, Control_c, 0, 64, 95
2, 250754, Note_on_c, 0, 65, 83
2, 250765, Note_on_c, 0, 49, 55
2, 250769, Control_c, 0, 64, 68
2, 250769, Note_on_c, 0, 58, 59
2, 250781, Control_c, 0, 64, 57
2, 250801, Control_c, 0, 64, 45
2, 250822, Control_c, 0, 64, 34
2, 250839, Control_c, 0, 64, 24
2, 250860, Control_c, 0, 64, 0
2, 250878, Note_on_c, 0, 49, 0
2, 250968, Note_on_c, 0, 67, 67
2, 251184, Note_on_c, 0, 67, 0
2, 251193, Note_on_c, 0, 46, 54
2, 251197, Note_on_c, 0, 68, 68
2, 251265, Note_on_c, 0, 46, 0
2, 251391, Note_on_c, 0, 68, 0
2, 251402, Note_on_c, 0, 70, 70
2, 251626, Note_on_c, 0, 70, 0
2, 251631, Note_on_c, 0, 51, 63
2, 251631, Note_on_c, 0, 72, 79
2, 251642, Note_on_c, 0, 63, 80
2, 251724, Note_on_c, 0, 58, 0
2, 251737, Note_on_c, 0, 65, 0
2, 251746, Note_on_c, 0, 51, 0
2, 252036, Note_on_c, 0, 48, 58
2, 252041, Note_on_c, 0, 56, 66
2, 252193, Note_on_c, 0, 48, 0
2, 252229, Note_on_c, 0, 56, 0
2, 252250, Note_on_c, 0, 55, 65
2, 252456, Note_on_c, 0, 55, 0
2, 252476, Note_on_c, 0, 63, 0
2, 252485, Note_on_c, 0, 56, 57
2, 252495, Note_on_c, 0, 53, 50
2, 252495, Note_on_c, 0, 62, 82
2, 252555, Note_on_c, 0, 72, 0
2, 252660, Note_on_c, 0, 53, 0
2, 252664, Note_on_c, 0, 56, 0
2, 252700, Note_on_c, 0, 68, 69
2, 252911, Note_on_c, 0, 46, 62
2, 252922, Note_on_c, 0, 68, 0
2, 252926, Note_on_c, 0, 55, 55
2, 252926, Note_on_c, 0, 70, 65
2, 253064, Note_on_c, 0, 46, 0
2, 253092, Note_on_c, 0, 55, 0
2, 253123, Note_on_c, 0, 72, 73
2, 253132, Note_on_c, 0, 56, 59
2, 253132, Note_on_c, 0, 70, 0
2, 253368, Note_on_c, 0, 67, 86
2, 253384, Note_on_c, 0, 56, 0
2, 253384, Note_on_c, 0, 73, 77
2, 253399, Note_on_c, 0, 58, 63
2, 253467, Control_c, 0, 64, 13
2, 253487, Control_c, 0, 64, 39
2, 253506, Control_c, 0, 64, 52
2, 253524, Control_c, 0, 64, 62
2, 253544, Control_c, 0, 64, 66
2, 253549, Note_on_c, 0, 58, 0
2, 253563, Control_c, 0, 64, 75
2, 253578, Note_on_c, 0, 56, 74
2, 253582, Control_c, 0, 64, 91
2, 253602, Control_c, 0, 64, 127
2, 253620, Note_on_c, 0, 62, 0
2, 253708, Note_on_c, 0, 67, 0
2, 253708, Note_on_c, 0, 73, 0
2, 253734, Note_on_c, 0, 72, 0
2, 253749, Note_on_c, 0, 56, 0
2, 253801, Note_on_c, 0, 51, 74
2, 253810, Note_on_c, 0, 55, 63
2, 253939, Note_on_c, 0, 51, 0
2, 253944, Note_on_c, 0, 55, 0
2, 254015, Note_on_c, 0, 49, 66
2, 254015, Note_on_c, 0, 53, 73
2, 254215, Control_c, 0, 64, 95
2, 254235, Control_c, 0, 64, 68
2, 254257, Control_c, 0, 64, 53
2, 254257, Note_on_c, 0, 53, 0
2, 254262, Note_on_c, 0, 48, 61
2, 254262, Note_on_c, 0, 68, 90
2, 254265, Note_on_c, 0, 51, 66
2, 254272, Control_c, 0, 64, 40
2, 254296, Control_c, 0, 64, 30
2, 254298, Note_on_c, 0, 49, 0
2, 254313, Control_c, 0, 64, 19
2, 254332, Control_c, 0, 64, 0
2, 254371, Note_on_c, 0, 48, 0
2, 254391, Note_on_c, 0, 51, 0
2, 254453, Note_on_c, 0, 72, 74
2, 254695, Note_on_c, 0, 56, 64
2, 254699, Note_on_c, 0, 53, 60
2, 254699, Note_on_c, 0, 73, 72
2, 254791, Note_on_c, 0, 53, 0
2, 254833, Note_on_c, 0, 56, 0
2, 254862, Note_on_c, 0, 72, 0
2, 254889, Note_on_c, 0, 73, 0
2, 254895, Note_on_c, 0, 75, 66
2, 255130, Note_on_c, 0, 61, 85
2, 255132, Note_on_c, 0, 77, 76
2, 255158, Control_c, 0, 64, 39
2, 255174, Note_on_c, 0, 75, 0
2, 255176, Control_c, 0, 64, 59
2, 255196, Control_c, 0, 64, 67
2, 255213, Control_c, 0, 64, 73
2, 255232, Control_c, 0, 64, 80
2, 255253, Control_c, 0, 64, 85
2, 255273, Control_c, 0, 64, 91
2, 255290, Control_c, 0, 64, 95
2, 255306, Note_on_c, 0, 68, 0
2, 255310, Control_c, 0, 64, 97
2, 255330, Control_c, 0, 64, 98
2, 255335, Note_on_c, 0, 51, 70
2, 255351, Control_c, 0, 64, 100
2, 255351, Note_on_c, 0, 55, 63
2, 255364, Note_on_c, 0, 77, 0
2, 255368, Control_c, 0, 64, 101
2, 255387, Control_c, 0, 64, 102
2, 255410, Control_c, 0, 64, 104
2, 255425, Control_c, 0, 64, 105
2, 255444, Control_c, 0, 64, 106
2, 255513, Note_on_c, 0, 55, 0
2, 255517, Note_on_c, 0, 51, 0
2, 255558, Note_on_c, 0, 56, 81
2, 255562, Note_on_c, 0, 61, 0
2, 255565, Note_on_c, 0, 53, 68
2, 255579, Control_c, 0, 64, 107
2, 255617, Control_c, 0, 64, 108
2, 255654, Control_c, 0, 64, 109
2, 255713, Control_c, 0, 64, 112
2, 255731, Control_c, 0, 64, 116
2, 255750, Control_c, 0, 64, 127
2, 255755, Note_on_c, 0, 58, 80
2, 255772, Note_on_c, 0, 55, 73
2, 255777, Note_on_c, 0, 56, 0
2, 255784, Note_on_c, 0, 53, 0
2, 255851, Note_on_c, 0, 58, 0
2, 255944, Control_c, 0, 64, 115
2, 255963, Control_c, 0, 64, 73
2, 255983, Control_c, 0, 64, 59
2, 255990, Note_on_c, 0, 55, 0
2, 256005, Control_c, 0, 64, 43
2, 256005, Note_on_c, 0, 56, 82
2, 256005, Note_on_c, 0, 60, 84
2, 256021, Control_c, 0, 64, 28
2, 256039, Control_c, 0, 64, 0
2, 256206, Note_on_c, 0, 75, 74
2, 256211, Note_on_c, 0, 55, 66
2, 256429, Note_on_c, 0, 53, 65
2, 256429, Note_on_c, 0, 77, 76
2, 256463, Control_c, 0, 64, 28
2, 256476, Note_on_c, 0, 75, 0
2, 256481, Control_c, 0, 64, 45
2, 256501, Control_c, 0, 64, 56
2, 256523, Control_c, 0, 64, 62
2, 256538, Control_c, 0, 64, 65
2, 256558, Control_c, 0, 64, 68
2, 256577, Control_c, 0, 64, 74
2, 256584, Note_on_c, 0, 56, 0
2, 256598, Control_c, 0, 64, 90
2, 256616, Control_c, 0, 64, 127
2, 256621, Note_on_c, 0, 51, 68
2, 256633, Note_on_c, 0, 79, 76
2, 256647, Note_on_c, 0, 77, 0
2, 256668, Note_on_c, 0, 60, 0
2, 256701, Note_on_c, 0, 53, 0
2, 256730, Note_on_c, 0, 51, 0
2, 256807, Note_on_c, 0, 55, 0
2, 256849, Control_c, 0, 64, 67
2, 256867, Control_c, 0, 64, 0
2, 256881, Note_on_c, 0, 59, 84
2, 256885, Note_on_c, 0, 80, 77
2, 256889, Note_on_c, 0, 79, 0
2, 256894, Note_on_c, 0, 50, 78
2, 257075, Note_on_c, 0, 50, 0
2, 257095, Note_on_c, 0, 53, 65
2, 257135, Control_c, 0, 64, 37
2, 257155, Control_c, 0, 64, 51
2, 257172, Control_c, 0, 64, 59
2, 257193, Control_c, 0, 64, 62
2, 257213, Control_c, 0, 64, 63
2, 257230, Control_c, 0, 64, 64
2, 257267, Control_c, 0, 64, 65
2, 257287, Control_c, 0, 64, 67
2, 257307, Control_c, 0, 64, 68
2, 257325, Note_on_c, 0, 53, 0
2, 257330, Control_c, 0, 64, 71
2, 257338, Note_on_c, 0, 55, 63
2, 257347, Control_c, 0, 64, 74
2, 257368, Control_c, 0, 64, 78
2, 257387, Control_c, 0, 64, 82
2, 257399, Note_on_c, 0, 80, 0
2, 257403, Control_c, 0, 64, 85
2, 257421, Control_c, 0, 64, 86
2, 257461, Control_c, 0, 64, 87
2, 257471, Note_on_c, 0, 59, 0
2, 257519, Control_c, 0, 64, 88
2, 257547, Note_on_c, 0, 55, 0
2, 257558, Control_c, 0, 64, 89
2, 257563, Note_on_c, 0, 56, 60
2, 257577, Control_c, 0, 64, 90
2, 257595, Control_c, 0, 64, 91
2, 257672, Control_c, 0, 64, 92
2, 257710, Control_c, 0, 64, 93
2, 257730, Control_c, 0, 64, 92
2, 257748, Control_c, 0, 64, 82
2, 257768, Control_c, 0, 64, 70
2, 257789, Control_c, 0, 64, 61
2, 257807, Control_c, 0, 64, 50
2, 257827, Control_c, 0, 64, 28
2, 257827, Note_on_c, 0, 56, 0
2, 257836, Note_on_c, 0, 58, 67
2, 257840, Note_on_c, 0, 51, 70
2, 257847, Control_c, 0, 64, 0
2, 258001, Control_c, 0, 64, 15
2, 258019, Control_c, 0, 64, 46
2, 258039, Control_c, 0, 64, 61
2, 258057, Control_c, 0, 64, 69
2, 258076, Control_c, 0, 64, 78
2, 258076, Note_on_c, 0, 51, 0
2, 258096, Control_c, 0, 64, 92
2, 258117, Control_c, 0, 64, 103
2, 258153, Control_c, 0, 64, 95
2, 258172, Control_c, 0, 64, 80
2, 258192, Control_c, 0, 64, 66
2, 258210, Control_c, 0, 64, 58
2, 258230, Control_c, 0, 64, 51
2, 258249, Control_c, 0, 64, 41
2, 258264, Note_on_c, 0, 50, 48
2, 258268, Control_c, 0, 64, 25
2, 258273, Note_on_c, 0, 79, 70
2, 258285, Control_c, 0, 64, 0
2, 258390, Note_on_c, 0, 50, 0
2, 258457, Note_on_c, 0, 79, 0
2, 258477, Note_on_c, 0, 77, 68
2, 258681, Note_on_c, 0, 77, 0
2, 258689, Note_on_c, 0, 52, 56
2, 258707, Note_on_c, 0, 79, 66
2, 258883, Note_on_c, 0, 52, 0
2, 258899, Note_on_c, 0, 55, 65
2, 259111, Note_on_c, 0, 48, 66
2, 259128, Note_on_c, 0, 53, 60
2, 259231, Note_on_c, 0, 48, 0
2, 259308, Note_on_c, 0, 55, 0
2, 259308, Note_on_c, 0, 58, 0
2, 259318, Note_on_c, 0, 52, 69
2, 259356, Note_on_c, 0, 53, 0
2, 259566, Note_on_c, 0, 52, 0
2, 259566, Note_on_c, 0, 53, 68
2, 259566, Note_on_c, 0, 56, 74
2, 259730, Note_on_c, 0, 79, 0
2, 259757, Note_on_c, 0, 72, 75
2, 259776, Note_on_c, 0, 53, 0
2, 259968, Note_on_c, 0, 74, 79
2, 259980, Note_on_c, 0, 53, 62
2, 260047, Note_on_c, 0, 72, 0
2, 260175, Note_on_c, 0, 51, 65
2, 260175, Note_on_c, 0, 75, 77
2, 260182, Note_on_c, 0, 53, 0
2, 260200, Note_on_c, 0, 74, 0
2, 260357, Note_on_c, 0, 51, 0
2, 260394, Note_on_c, 0, 50, 52
2, 260399, Note_on_c, 0, 77, 84
2, 260437, Note_on_c, 0, 75, 0
2, 260555, Note_on_c, 0, 56, 0
2, 260605, Note_on_c, 0, 71, 71
2, 260619, Note_on_c, 0, 50, 0
2, 260805, Note_on_c, 0, 50, 62
2, 260826, Note_on_c, 0, 72, 72
2, 260845, Note_on_c, 0, 71, 0
2, 261004, Note_on_c, 0, 50, 0
2, 261017, Note_on_c, 0, 48, 66
2, 261019, Note_on_c, 0, 74, 71
2, 261052, Note_on_c, 0, 72, 0
2, 261215, Note_on_c, 0, 74, 0
2, 261226, Note_on_c, 0, 67, 64
2, 261237, Note_on_c, 0, 48, 0
2, 261245, Note_on_c, 0, 47, 64
2, 261412, Note_on_c, 0, 47, 0
2, 261438, Note_on_c, 0, 43, 66
2, 261632, Note_on_c, 0, 43, 0
2, 261650, Note_on_c, 0, 45, 60
2, 261656, Note_on_c, 0, 75, 71
2, 261729, Note_on_c, 0, 77, 0
2, 261841, Note_on_c, 0, 45, 0
2, 261846, Note_on_c, 0, 47, 60
2, 261852, Note_on_c, 0, 74, 77
2, 261875, Note_on_c, 0, 75, 0
2, 262056, Note_on_c, 0, 75, 67
2, 262063, Note_on_c, 0, 74, 0
2, 262069, Note_on_c, 0, 47, 0
2, 262092, Note_on_c, 0, 48, 59
2, 262274, Note_on_c, 0, 48, 0
2, 262299, Note_on_c, 0, 67, 0
2, 262308, Note_on_c, 0, 44, 66
2, 262505, Note_on_c, 0, 44, 0
2, 262510, Note_on_c, 0, 46, 62
2, 262541, Note_on_c, 0, 66, 64
2, 262600, Note_on_c, 0, 66, 0
2, 262702, Note_on_c, 0, 46, 0
2, 262725, Note_on_c, 0, 48, 56
2, 262917, Control_c, 0, 64, 23
2, 262922, Note_on_c, 0, 48, 0
2, 262937, Control_c, 0, 64, 44
2, 262954, Control_c, 0, 64, 56
2, 262965, Note_on_c, 0, 65, 53
2, 262969, Note_on_c, 0, 49, 43
2, 262974, Control_c, 0, 64, 61
2, 262994, Control_c, 0, 64, 62
2, 263013, Control_c, 0, 64, 63
2, 263031, Control_c, 0, 64, 65
2, 263047, Note_on_c, 0, 49, 0
2, 263051, Control_c, 0, 64, 67
2, 263068, Control_c, 0, 64, 70
2, 263087, Control_c, 0, 64, 74
2, 263107, Control_c, 0, 64, 78
2, 263122, Note_on_c, 0, 75, 0
2, 263126, Control_c, 0, 64, 81
2, 263145, Control_c, 0, 64, 82
2, 263163, Control_c, 0, 64, 83
2, 263174, Note_on_c, 0, 68, 60
2, 263185, Control_c, 0, 64, 84
2, 263205, Control_c, 0, 64, 86
2, 263223, Control_c, 0, 64, 87
2, 263318, Control_c, 0, 64, 86
2, 263359, Control_c, 0, 64, 85
2, 263374, Control_c, 0, 64, 83
2, 263379, Note_on_c, 0, 68, 0
2, 263388, Note_on_c, 0, 49, 50
2, 263397, Control_c, 0, 64, 80
2, 263397, Note_on_c, 0, 70, 61
2, 263418, Control_c, 0, 64, 77
2, 263433, Control_c, 0, 64, 73
2, 263453, Control_c, 0, 64, 68
2, 263473, Control_c, 0, 64, 62
2, 263491, Control_c, 0, 64, 58
2, 263511, Control_c, 0, 64, 53
2, 263529, Control_c, 0, 64, 47
2, 263549, Control_c, 0, 64, 39
2, 263569, Control_c, 0, 64, 28
2, 263569, Note_on_c, 0, 49, 0
2, 263582, Note_on_c, 0, 70, 0
2, 263588, Control_c, 0, 64, 13
2, 263603, Note_on_c, 0, 48, 40
2, 263608, Control_c, 0, 64, 0
2, 263608, Note_on_c, 0, 72, 61
2, 263759, Control_c, 0, 64, 18
2, 263779, Control_c, 0, 64, 30
2, 263798, Control_c, 0, 64, 41
2, 263817, Control_c, 0, 64, 51
2, 263838, Control_c, 0, 64, 59
2, 263838, Note_on_c, 0, 48, 0
2, 263846, Note_on_c, 0, 72, 0
2, 263857, Control_c, 0, 64, 63
2, 263866, Note_on_c, 0, 73, 58
2, 263875, Control_c, 0, 64, 64
2, 263879, Note_on_c, 0, 46, 41
2, 263894, Control_c, 0, 64, 67
2, 263914, Control_c, 0, 64, 70
2, 263934, Control_c, 0, 64, 76
2, 263951, Control_c, 0, 64, 83
2, 263970, Control_c, 0, 64, 90
2, 263985, Note_on_c, 0, 46, 0
2, 263991, Control_c, 0, 64, 95
2, 264002, Note_on_c, 0, 65, 0
2, 264010, Control_c, 0, 64, 99
2, 264029, Control_c, 0, 64, 103
2, 264047, Control_c, 0, 64, 107
2, 264068, Control_c, 0, 64, 112
2, 264088, Control_c, 0, 64, 120
2, 264088, Note_on_c, 0, 67, 54
2, 264106, Control_c, 0, 64, 127
2, 264296, Note_on_c, 0, 46, 57
2, 264300, Control_c, 0, 64, 99
2, 264305, Note_on_c, 0, 68, 67
2, 264318, Control_c, 0, 64, 84
2, 264335, Control_c, 0, 64, 72
2, 264355, Control_c, 0, 64, 64
2, 264373, Control_c, 0, 64, 58
2, 264391, Control_c, 0, 64, 52
2, 264411, Control_c, 0, 64, 45
2, 264432, Control_c, 0, 64, 37
2, 264452, Control_c, 0, 64, 32
2, 264452, Note_on_c, 0, 67, 0
2, 264467, Control_c, 0, 64, 28
2, 264472, Note_on_c, 0, 46, 0
2, 264487, Note_on_c, 0, 68, 0
2, 264492, Control_c, 0, 64, 27
2, 264493, Note_on_c, 0, 70, 64
2, 264496, Note_on_c, 0, 44, 61
2, 264507, Control_c, 0, 64, 26
2, 264526, Control_c, 0, 64, 23
2, 264545, Control_c, 0, 64, 20
2, 264566, Control_c, 0, 64, 17
2, 264666, Note_on_c, 0, 44, 0
2, 264674, Note_on_c, 0, 70, 0
2, 264712, Note_on_c, 0, 63, 58
2, 264716, Note_on_c, 0, 43, 58
2, 264898, Note_on_c, 0, 43, 0
2, 264911, Note_on_c, 0, 39, 63
2, 265026, Control_c, 0, 64, 16
2, 265044, Control_c, 0, 64, 15
2, 265102, Control_c, 0, 64, 14
2, 265118, Note_on_c, 0, 39, 0
2, 265122, Control_c, 0, 64, 13
2, 265127, Note_on_c, 0, 41, 59
2, 265134, Note_on_c, 0, 72, 68
2, 265160, Control_c, 0, 64, 12
2, 265298, Note_on_c, 0, 73, 0
2, 265303, Note_on_c, 0, 41, 0
2, 265334, Note_on_c, 0, 72, 0
2, 265335, Note_on_c, 0, 43, 59
2, 265341, Note_on_c, 0, 70, 65
2, 265444, Note_on_c, 0, 63, 0
2, 265557, Note_on_c, 0, 43, 0
2, 265582, Note_on_c, 0, 44, 59
2, 265582, Note_on_c, 0, 70, 0
2, 265582, Note_on_c, 0, 72, 73
2, 265758, Note_on_c, 0, 44, 0
2, 265786, Note_on_c, 0, 41, 54
2, 265800, Note_on_c, 0, 66, 56
2, 265970, Note_on_c, 0, 66, 0
2, 265980, Note_on_c, 0, 43, 61
2, 265988, Note_on_c, 0, 41, 0
2, 266002, Note_on_c, 0, 65, 60
2, 266163, Note_on_c, 0, 43, 0
2, 266181, Note_on_c, 0, 65, 0
2, 266190, Note_on_c, 0, 63, 65
2, 266204, Note_on_c, 0, 45, 58
2, 266373, Note_on_c, 0, 63, 0
2, 266395, Note_on_c, 0, 45, 0
2, 266410, Note_on_c, 0, 61, 61
2, 266421, Note_on_c, 0, 46, 57
2, 266581, Note_on_c, 0, 46, 0
2, 266601, Note_on_c, 0, 45, 62
2, 266815, Note_on_c, 0, 72, 0
2, 266824, Note_on_c, 0, 45, 0
2, 266828, Note_on_c, 0, 46, 64
2, 266828, Note_on_c, 0, 65, 72
2, 266945, Control_c, 0, 64, 11
2, 266995, Note_on_c, 0, 46, 0
2, 267026, Note_on_c, 0, 48, 63
2, 267235, Note_on_c, 0, 48, 0
2, 267253, Note_on_c, 0, 49, 56
2, 267259, Note_on_c, 0, 70, 73
2, 267327, Note_on_c, 0, 65, 0
2, 267426, Note_on_c, 0, 49, 0
2, 267444, Control_c, 0, 64, 8
2, 267465, Control_c, 0, 64, 0
2, 267465, Note_on_c, 0, 46, 59
2, 267652, Note_on_c, 0, 46, 0
2, 267683, Note_on_c, 0, 48, 48
2, 267700, Note_on_c, 0, 68, 66
2, 267713, Control_c, 0, 64, 35
2, 267732, Control_c, 0, 64, 53
2, 267750, Control_c, 0, 64, 62
2, 267765, Note_on_c, 0, 70, 0
2, 267774, Control_c, 0, 64, 64
2, 267791, Control_c, 0, 64, 66
2, 267809, Control_c, 0, 64, 68
2, 267827, Control_c, 0, 64, 73
2, 267847, Control_c, 0, 64, 84
2, 267867, Control_c, 0, 64, 103
2, 267871, Note_on_c, 0, 68, 0
2, 267879, Note_on_c, 0, 48, 0
2, 267888, Control_c, 0, 64, 127
2, 267895, Note_on_c, 0, 61, 0
2, 267921, Note_on_c, 0, 49, 52
2, 268152, Note_on_c, 0, 49, 0
2, 268177, Control_c, 0, 64, 92
2, 268183, Note_on_c, 0, 51, 48
2, 268185, Note_on_c, 0, 67, 57
2, 268194, Control_c, 0, 64, 70
2, 268213, Control_c, 0, 64, 58
2, 268234, Control_c, 0, 64, 45
2, 268252, Control_c, 0, 64, 34
2, 268270, Control_c, 0, 64, 30
2, 268288, Control_c, 0, 64, 31
2, 268308, Control_c, 0, 64, 34
2, 268328, Control_c, 0, 64, 36
2, 268346, Control_c, 0, 64, 37
2, 268401, Note_on_c, 0, 51, 0
2, 268419, Note_on_c, 0, 58, 52
2, 268560, Note_on_c, 0, 58, 0
2, 268616, Control_c, 0, 64, 36
2, 268620, Note_on_c, 0, 51, 60
2, 268620, Note_on_c, 0, 60, 56
2, 268791, Note_on_c, 0, 60, 0
2, 268796, Note_on_c, 0, 51, 0
2, 268814, Note_on_c, 0, 67, 0
2, 268818, Note_on_c, 0, 61, 59
2, 268825, Note_on_c, 0, 49, 53
2, 268976, Note_on_c, 0, 61, 0
2, 269037, Note_on_c, 0, 49, 0
2, 269037, Note_on_c, 0, 63, 58
2, 269049, Note_on_c, 0, 48, 53
2, 269202, Note_on_c, 0, 48, 0
2, 269229, Note_on_c, 0, 67, 72
2, 269234, Control_c, 0, 64, 35
2, 269248, Control_c, 0, 64, 34
2, 269268, Control_c, 0, 64, 33
2, 269291, Control_c, 0, 64, 31
2, 269310, Control_c, 0, 64, 29
2, 269328, Control_c, 0, 64, 27
2, 269345, Control_c, 0, 64, 24
2, 269365, Control_c, 0, 64, 21
2, 269385, Control_c, 0, 64, 17
2, 269402, Control_c, 0, 64, 15
2, 269442, Control_c, 0, 64, 14
2, 269446, Note_on_c, 0, 48, 69
2, 269446, Note_on_c, 0, 68, 81
2, 269478, Control_c, 0, 64, 13
2, 269641, Note_on_c, 0, 48, 0
2, 269641, Note_on_c, 0, 67, 0
2, 269645, Note_on_c, 0, 70, 73
2, 269654, Note_on_c, 0, 46, 69
2, 269654, Note_on_c, 0, 68, 0
2, 269750, Control_c, 0, 64, 11
2, 269768, Control_c, 0, 64, 0
2, 269879, Note_on_c, 0, 44, 65
2, 269879, Note_on_c, 0, 46, 0
2, 269879, Note_on_c, 0, 72, 73
2, 269892, Note_on_c, 0, 63, 0
2, 269900, Note_on_c, 0, 70, 0
2, 270068, Note_on_c, 0, 44, 0
2, 270089, Note_on_c, 0, 63, 62
2, 270290, Note_on_c, 0, 56, 84
2, 270299, Note_on_c, 0, 65, 64
2, 270355, Note_on_c, 0, 63, 0
2, 270470, Note_on_c, 0, 72, 0
2, 270492, Note_on_c, 0, 56, 0
2, 270497, Note_on_c, 0, 55, 78
2, 270508, Note_on_c, 0, 67, 68
2, 270530, Note_on_c, 0, 65, 0
2, 270645, Note_on_c, 0, 67, 0
2, 270721, Note_on_c, 0, 53, 74
2, 270732, Note_on_c, 0, 68, 65
2, 270746, Note_on_c, 0, 55, 0
2, 270909, Note_on_c, 0, 53, 0
2, 270923, Note_on_c, 0, 72, 84
2, 271135, Note_on_c, 0, 74, 84
2, 271141, Note_on_c, 0, 53, 72
2, 271198, Note_on_c, 0, 72, 0
2, 271330, Note_on_c, 0, 75, 79
2, 271341, Note_on_c, 0, 53, 0
2, 271347, Note_on_c, 0, 51, 70
2, 271351, Note_on_c, 0, 74, 0
2, 271560, Note_on_c, 0, 77, 78
2, 271561, Note_on_c, 0, 50, 58
2, 271566, Note_on_c, 0, 51, 0
2, 271570, Note_on_c, 0, 75, 0
2, 271759, Note_on_c, 0, 72, 73
2, 271790, Note_on_c, 0, 50, 0
2, 271795, Note_on_c, 0, 68, 0
2, 271977, Control_c, 0, 64, 16
2, 271997, Control_c, 0, 64, 39
2, 271997, Note_on_c, 0, 70, 66
2, 272015, Control_c, 0, 64, 56
2, 272032, Control_c, 0, 64, 63
2, 272052, Control_c, 0, 64, 65
2, 272063, Note_on_c, 0, 72, 0
2, 272073, Control_c, 0, 64, 67
2, 272091, Control_c, 0, 64, 74
2, 272109, Control_c, 0, 64, 92
2, 272129, Control_c, 0, 64, 127
2, 272149, Note_on_c, 0, 77, 0
2, 272200, Note_on_c, 0, 68, 66
2, 272200, Note_on_c, 0, 70, 0
2, 272304, Note_on_c, 0, 68, 0
2, 272417, Note_on_c, 0, 51, 71
2, 272421, Note_on_c, 0, 58, 89
2, 272437, Control_c, 0, 64, 76
2, 272454, Control_c, 0, 64, 62
2, 272454, Note_on_c, 0, 67, 63
2, 272476, Control_c, 0, 64, 49
2, 272494, Control_c, 0, 64, 40
2, 272512, Control_c, 0, 64, 33
2, 272517, Note_on_c, 0, 51, 0
2, 272531, Control_c, 0, 64, 24
2, 272555, Control_c, 0, 64, 0
2, 272657, Note_on_c, 0, 70, 54
2, 272774, Note_on_c, 0, 67, 0
2, 272850, Note_on_c, 0, 55, 59
2, 272863, Note_on_c, 0, 70, 0
2, 272875, Note_on_c, 0, 75, 61
2, 272922, Note_on_c, 0, 55, 0
2, 273042, Note_on_c, 0, 75, 0
2, 273086, Note_on_c, 0, 67, 53
2, 273285, Note_on_c, 0, 67, 0
2, 273296, Note_on_c, 0, 56, 77
2, 273303, Note_on_c, 0, 60, 82
2, 273320, Note_on_c, 0, 58, 0
2, 273324, Note_on_c, 0, 65, 63
2, 273403, Note_on_c, 0, 56, 0
2, 273532, Note_on_c, 0, 75, 61
2, 273692, Note_on_c, 0, 75, 0
2, 273740, Note_on_c, 0, 74, 65
2, 273744, Note_on_c, 0, 53, 62
2, 273821, Note_on_c, 0, 53, 0
2, 273934, Note_on_c, 0, 74, 0
2, 273948, Note_on_c, 0, 72, 64
2, 274143, Note_on_c, 0, 58, 75
2, 274156, Note_on_c, 0, 60, 0
2, 274172, Note_on_c, 0, 65, 0
2, 274172, Note_on_c, 0, 74, 72
2, 274180, Note_on_c, 0, 72, 0
2, 274375, Note_on_c, 0, 75, 64
2, 274387, Note_on_c, 0, 74, 0
2, 274565, Control_c, 0, 64, 30
2, 274567, Note_on_c, 0, 75, 0
2, 274572, Note_on_c, 0, 46, 58
2, 274588, Control_c, 0, 64, 47
2, 274588, Note_on_c, 0, 72, 58
2, 274606, Control_c, 0, 64, 59
2, 274622, Control_c, 0, 64, 66
2, 274640, Control_c, 0, 64, 69
2, 274650, Note_on_c, 0, 46, 0
2, 274663, Control_c, 0, 64, 76
2, 274663, Note_on_c, 0, 58, 0
2, 274681, Control_c, 0, 64, 87
2, 274700, Control_c, 0, 64, 112
2, 274717, Control_c, 0, 64, 127
2, 274762, Note_on_c, 0, 72, 0
2, 274777, Note_on_c, 0, 74, 67
2, 274989, Control_c, 0, 64, 79
2, 274995, Note_on_c, 0, 57, 76
2, 275001, Note_on_c, 0, 48, 73
2, 275006, Control_c, 0, 64, 61
2, 275008, Note_on_c, 0, 63, 57
2, 275015, Note_on_c, 0, 74, 0
2, 275024, Note_on_c, 0, 75, 54
2, 275025, Control_c, 0, 64, 39
2, 275043, Control_c, 0, 64, 0
2, 275091, Note_on_c, 0, 63, 0
2, 275095, Note_on_c, 0, 48, 0
2, 275176, Note_on_c, 0, 75, 0
2, 275212, Note_on_c, 0, 72, 63
2, 275410, Note_on_c, 0, 72, 0
2, 275437, Note_on_c, 0, 60, 60
2, 275437, Note_on_c, 0, 74, 62
2, 275448, Control_c, 0, 64, 30
2, 275466, Control_c, 0, 64, 46
2, 275486, Control_c, 0, 64, 56
2, 275506, Control_c, 0, 64, 62
2, 275518, Note_on_c, 0, 57, 0
2, 275524, Control_c, 0, 64, 64
2, 275544, Control_c, 0, 64, 65
2, 275563, Control_c, 0, 64, 68
2, 275581, Control_c, 0, 64, 76
2, 275594, Note_on_c, 0, 74, 0
2, 275598, Note_on_c, 0, 60, 0
2, 275603, Control_c, 0, 64, 87
2, 275621, Control_c, 0, 64, 104
2, 275642, Control_c, 0, 64, 127
2, 275651, Note_on_c, 0, 58, 58
2, 275651, Note_on_c, 0, 75, 59
2, 275853, Control_c, 0, 64, 78
2, 275871, Note_on_c, 0, 75, 0
2, 275875, Control_c, 0, 64, 62
2, 275882, Note_on_c, 0, 77, 76
2, 275884, Note_on_c, 0, 56, 76
2, 275886, Note_on_c, 0, 62, 89
2, 275891, Control_c, 0, 64, 49
2, 275908, Control_c, 0, 64, 34
2, 275928, Control_c, 0, 64, 11
2, 275948, Control_c, 0, 64, 0
2, 275981, Note_on_c, 0, 58, 0
2, 276098, Note_on_c, 0, 75, 69
2, 276102, Note_on_c, 0, 77, 0
2, 276307, Note_on_c, 0, 56, 0
2, 276311, Note_on_c, 0, 58, 71
2, 276320, Note_on_c, 0, 75, 0
2, 276325, Note_on_c, 0, 74, 64
2, 276331, Control_c, 0, 64, 32
2, 276350, Control_c, 0, 64, 53
2, 276372, Control_c, 0, 64, 65
2, 276388, Control_c, 0, 64, 77
2, 276408, Control_c, 0, 64, 127
2, 276436, Note_on_c, 0, 62, 0
2, 276458, Note_on_c, 0, 74, 0
2, 276498, Note_on_c, 0, 56, 49
2, 276507, Note_on_c, 0, 72, 62
2, 276511, Note_on_c, 0, 58, 0
2, 276540, Note_on_c, 0, 56, 0
2, 276540, Note_on_c, 0, 72, 0
2, 276735, Control_c, 0, 64, 74
2, 276750, Note_on_c, 0, 55, 80
2, 276757, Control_c, 0, 64, 45
2, 276757, Note_on_c, 0, 63, 87
2, 276774, Control_c, 0, 64, 0
2, 276774, Note_on_c, 0, 70, 65
2, 276813, Control_c, 0, 64, 26
2, 276828, Control_c, 0, 64, 56
2, 276848, Control_c, 0, 64, 68
2, 276869, Control_c, 0, 64, 78
2, 276889, Control_c, 0, 64, 101
2, 276906, Control_c, 0, 64, 127
2, 276921, Note_on_c, 0, 63, 0
2, 276961, Note_on_c, 0, 55, 0
2, 276981, Note_on_c, 0, 60, 64
2, 277042, Control_c, 0, 64, 116
2, 277060, Control_c, 0, 64, 106
2, 277078, Control_c, 0, 64, 100
2, 277100, Control_c, 0, 64, 94
2, 277118, Control_c, 0, 64, 89
2, 277118, Note_on_c, 0, 60, 0
2, 277136, Control_c, 0, 64, 85
2, 277158, Control_c, 0, 64, 80
2, 277177, Control_c, 0, 64, 76
2, 277195, Control_c, 0, 64, 73
2, 277201, Note_on_c, 0, 46, 56
2, 277210, Note_on_c, 0, 62, 59
2, 277217, Control_c, 0, 64, 70
2, 277293, Control_c, 0, 64, 69
2, 277297, Note_on_c, 0, 46, 0
2, 277330, Control_c, 0, 64, 68
2, 277395, Note_on_c, 0, 62, 0
2, 277410, Note_on_c, 0, 48, 67
2, 277434, Note_on_c, 0, 63, 47
2, 277464, Control_c, 0, 64, 69
2, 277482, Control_c, 0, 64, 70
2, 277500, Control_c, 0, 64, 71
2, 277520, Control_c, 0, 64, 72
2, 277542, Control_c, 0, 64, 73
2, 277558, Control_c, 0, 64, 72
2, 277580, Control_c, 0, 64, 71
2, 277598, Control_c, 0, 64, 70
2, 277615, Control_c, 0, 64, 67
2, 277630, Note_on_c, 0, 48, 0
2, 277639, Control_c, 0, 64, 64
2, 277639, Note_on_c, 0, 63, 0
2, 277654, Note_on_c, 0, 56, 82
2, 277658, Control_c, 0, 64, 58
2, 277663, Note_on_c, 0, 50, 78
2, 277667, Note_on_c, 0, 65, 58
2, 277676, Control_c, 0, 64, 53
2, 277692, Control_c, 0, 64, 46
2, 277712, Control_c, 0, 64, 39
2, 277733, Control_c, 0, 64, 32
2, 277751, Control_c, 0, 64, 24
2, 277769, Control_c, 0, 64, 15
2, 277789, Control_c, 0, 64, 10
2, 277810, Control_c, 0, 64, 9
2, 277828, Control_c, 0, 64, 0
2, 277839, Note_on_c, 0, 65, 0
2, 277877, Note_on_c, 0, 63, 57
2, 278086, Note_on_c, 0, 63, 0
2, 278104, Note_on_c, 0, 62, 60
2, 278109, Note_on_c, 0, 50, 0
2, 278113, Note_on_c, 0, 48, 61
2, 278135, Control_c, 0, 64, 22
2, 278153, Control_c, 0, 64, 39
2, 278177, Control_c, 0, 64, 51
2, 278192, Control_c, 0, 64, 60
2, 278210, Control_c, 0, 64, 63
2, 278232, Control_c, 0, 64, 65
2, 278252, Control_c, 0, 64, 68
2, 278263, Note_on_c, 0, 62, 0
2, 278272, Control_c, 0, 64, 76
2, 278292, Control_c, 0, 64, 86
2, 278292, Note_on_c, 0, 50, 62
2, 278296, Note_on_c, 0, 60, 66
2, 278301, Note_on_c, 0, 48, 0
2, 278310, Control_c, 0, 64, 127
2, 278355, Note_on_c, 0, 60, 0
2, 278363, Note_on_c, 0, 56, 0
2, 278404, Note_on_c, 0, 50, 0
2, 278465, Control_c, 0, 64, 88
2, 278484, Control_c, 0, 64, 60
2, 278503, Control_c, 0, 64, 0
2, 278533, Note_on_c, 0, 51, 74
2, 278533, Note_on_c, 0, 55, 74
2, 278542, Note_on_c, 0, 58, 62
2, 278580, Control_c, 0, 64, 33
2, 278600, Control_c, 0, 64, 51
2, 278618, Control_c, 0, 64, 61
2, 278637, Control_c, 0, 64, 63
2, 278676, Control_c, 0, 64, 64
2, 278698, Control_c, 0, 64, 65
2, 278709, Note_on_c, 0, 51, 0
2, 278719, Control_c, 0, 64, 66
2, 278733, Control_c, 0, 64, 67
2, 278737, Note_on_c, 0, 58, 0
2, 278748, Note_on_c, 0, 68, 69
2, 278754, Control_c, 0, 64, 69
2, 278771, Control_c, 0, 64, 71
2, 278778, Note_on_c, 0, 70, 0
2, 278791, Control_c, 0, 64, 75
2, 278808, Control_c, 0, 64, 82
2, 278831, Control_c, 0, 64, 92
2, 278846, Note_on_c, 0, 68, 0
2, 278850, Control_c, 0, 64, 104
2, 278868, Control_c, 0, 64, 118
2, 278888, Control_c, 0, 64, 122
2, 278908, Control_c, 0, 64, 94
2, 278926, Control_c, 0, 64, 70
2, 278946, Control_c, 0, 64, 56
2, 278963, Note_on_c, 0, 51, 65
2, 278968, Control_c, 0, 64, 33
2, 278979, Note_on_c, 0, 67, 63
2, 278983, Control_c, 0, 64, 0
2, 279021, Control_c, 0, 64, 21
2, 279041, Control_c, 0, 64, 35
2, 279061, Control_c, 0, 64, 45
2, 279079, Control_c, 0, 64, 52
2, 279097, Control_c, 0, 64, 57
2, 279117, Control_c, 0, 64, 59
2, 279137, Control_c, 0, 64, 61
2, 279150, Note_on_c, 0, 67, 0
2, 279159, Control_c, 0, 64, 63
2, 279175, Control_c, 0, 64, 65
2, 279181, Note_on_c, 0, 51, 0
2, 279181, Note_on_c, 0, 55, 0
2, 279181, Note_on_c, 0, 65, 55
2, 279191, Note_on_c, 0, 50, 60
2, 279196, Control_c, 0, 64, 68
2, 279212, Control_c, 0, 64, 74
2, 279233, Control_c, 0, 64, 82
2, 279250, Control_c, 0, 64, 93
2, 279273, Control_c, 0, 64, 104
2, 279293, Control_c, 0, 64, 127
2, 279331, Control_c, 0, 64, 109
2, 279349, Control_c, 0, 64, 78
2, 279366, Control_c, 0, 64, 60
2, 279385, Control_c, 0, 64, 32
2, 279394, Note_on_c, 0, 50, 0
2, 279403, Note_on_c, 0, 65, 0
2, 279408, Control_c, 0, 64, 0
2, 279433, Note_on_c, 0, 54, 70
2, 279433, Note_on_c, 0, 63, 60
2, 279438, Note_on_c, 0, 48, 65
2, 279483, Control_c, 0, 64, 18
2, 279503, Control_c, 0, 64, 41
2, 279521, Control_c, 0, 64, 55
2, 279539, Control_c, 0, 64, 62
2, 279558, Control_c, 0, 64, 64
2, 279580, Control_c, 0, 64, 65
2, 279580, Note_on_c, 0, 48, 0
2, 279596, Control_c, 0, 64, 66
2, 279615, Control_c, 0, 64, 69
2, 279634, Control_c, 0, 64, 73
2, 279655, Control_c, 0, 64, 78
2, 279672, Control_c, 0, 64, 82
2, 279693, Control_c, 0, 64, 83
2, 279714, Control_c, 0, 64, 84
2, 279750, Control_c, 0, 64, 82
2, 279773, Control_c, 0, 64, 74
2, 279790, Control_c, 0, 64, 64
2, 279809, Control_c, 0, 64, 50
2, 279827, Control_c, 0, 64, 0
2, 279864, Note_on_c, 0, 48, 46
2, 279864, Note_on_c, 0, 57, 52
2, 280002, Control_c, 0, 64, 38
2, 280020, Control_c, 0, 64, 57
2, 280038, Control_c, 0, 64, 64
2, 280042, Note_on_c, 0, 46, 58
2, 280060, Control_c, 0, 64, 69
2, 280060, Note_on_c, 0, 48, 0
2, 280060, Note_on_c, 0, 57, 0
2, 280080, Control_c, 0, 64, 76
2, 280080, Note_on_c, 0, 54, 0
2, 280080, Note_on_c, 0, 63, 0
2, 280084, Note_on_c, 0, 58, 57
2, 280099, Control_c, 0, 64, 90
2, 280115, Control_c, 0, 64, 127
2, 280121, Note_on_c, 0, 46, 0
2, 280243, Note_on_c, 0, 58, 0
2, 280294, Note_on_c, 0, 53, 63
2, 280310, Note_on_c, 0, 45, 59
2, 280310, Note_on_c, 0, 60, 58
2, 280328, Control_c, 0, 64, 79
2, 280348, Control_c, 0, 64, 59
2, 280366, Control_c, 0, 64, 11
2, 280385, Control_c, 0, 64, 0
2, 280503, Note_on_c, 0, 63, 58
2, 280547, Note_on_c, 0, 60, 0
2, 280556, Control_c, 0, 64, 33
2, 280577, Control_c, 0, 64, 59
2, 280600, Control_c, 0, 64, 71
2, 280615, Control_c, 0, 64, 86
2, 280636, Control_c, 0, 64, 127
2, 280713, Note_on_c, 0, 63, 0
2, 280718, Note_on_c, 0, 65, 67
2, 280731, Note_on_c, 0, 45, 0
2, 280903, Note_on_c, 0, 65, 0
2, 280912, Note_on_c, 0, 63, 58
2, 281091, Note_on_c, 0, 63, 0
2, 281133, Control_c, 0, 64, 118
2, 281141, Note_on_c, 0, 58, 64
2, 281154, Control_c, 0, 64, 90
2, 281159, Note_on_c, 0, 46, 61
2, 281159, Note_on_c, 0, 62, 60
2, 281173, Control_c, 0, 64, 73
2, 281190, Control_c, 0, 64, 61
2, 281210, Control_c, 0, 64, 47
2, 281230, Control_c, 0, 64, 19
2, 281248, Control_c, 0, 64, 0
2, 281364, Note_on_c, 0, 72, 70
2, 281569, Note_on_c, 0, 72, 0
2, 281576, Note_on_c, 0, 70, 67
2, 281711, Note_on_c, 0, 62, 0
2, 281772, Note_on_c, 0, 70, 0
2, 281777, Note_on_c, 0, 68, 64
2, 282011, Note_on_c, 0, 68, 0
2, 282036, Note_on_c, 0, 51, 58
2, 282036, Note_on_c, 0, 67, 57
2, 282046, Note_on_c, 0, 58, 0
2, 282048, Note_on_c, 0, 53, 0
2, 282059, Control_c, 0, 64, 25
2, 282074, Control_c, 0, 64, 47
2, 282090, Note_on_c, 0, 46, 0
2, 282094, Control_c, 0, 64, 62
2, 282112, Control_c, 0, 64, 69
2, 282128, Note_on_c, 0, 67, 0
2, 282132, Control_c, 0, 64, 77
2, 282150, Control_c, 0, 64, 89
2, 282169, Control_c, 0, 64, 113
2, 282186, Note_on_c, 0, 51, 0
2, 282191, Control_c, 0, 64, 127
2, 282422, Control_c, 0, 64, 79
2, 282438, Control_c, 0, 64, 60
2, 282460, Control_c, 0, 64, 0
2, 282460, Note_on_c, 0, 70, 71
2, 282471, Note_on_c, 0, 63, 64
2, 282524, Note_on_c, 0, 70, 0
2, 282663, Note_on_c, 0, 63, 0
2, 282663, Note_on_c, 0, 65, 60
2, 282669, Control_c, 0, 64, 44
2, 282689, Control_c, 0, 64, 60
2, 282706, Note_on_c, 0, 65, 0
2, 282710, Control_c, 0, 64, 68
2, 282726, Control_c, 0, 64, 77
2, 282748, Control_c, 0, 64, 116
2, 282766, Control_c, 0, 64, 127
2, 282862, Control_c, 0, 64, 80
2, 282879, Control_c, 0, 64, 52
2, 282899, Control_c, 0, 64, 0
2, 282917, Note_on_c, 0, 75, 65
2, 282926, Note_on_c, 0, 67, 56
2, 282958, Control_c, 0, 64, 34
2, 282979, Control_c, 0, 64, 52
2, 282996, Control_c, 0, 64, 63
2, 283014, Control_c, 0, 64, 65
2, 283033, Control_c, 0, 64, 66
2, 283055, Control_c, 0, 64, 67
2, 283075, Control_c, 0, 64, 69
2, 283092, Control_c, 0, 64, 73
2, 283101, Note_on_c, 0, 67, 0
2, 283109, Control_c, 0, 64, 78
2, 283131, Control_c, 0, 64, 81
2, 283187, Control_c, 0, 64, 80
2, 283208, Control_c, 0, 64, 76
2, 283225, Control_c, 0, 64, 71
2, 283246, Control_c, 0, 64, 64
2, 283264, Control_c, 0, 64, 59
2, 283283, Control_c, 0, 64, 53
2, 283301, Control_c, 0, 64, 47
2, 283321, Control_c, 0, 64, 41
2, 283328, Note_on_c, 0, 51, 57
2, 283342, Control_c, 0, 64, 35
2, 283342, Note_on_c, 0, 67, 51
2, 283361, Control_c, 0, 64, 29
2, 283379, Control_c, 0, 64, 22
2, 283398, Control_c, 0, 64, 16
2, 283418, Control_c, 0, 64, 0
2, 283482, Note_on_c, 0, 51, 0
2, 283524, Note_on_c, 0, 67, 0
2, 283530, Note_on_c, 0, 53, 54
2, 283549, Note_on_c, 0, 68, 62
2, 283549, Note_on_c, 0, 75, 0
2, 283592, Control_c, 0, 64, 18
2, 283610, Control_c, 0, 64, 28
2, 283629, Control_c, 0, 64, 34
2, 283652, Control_c, 0, 64, 39
2, 283667, Control_c, 0, 64, 43
2, 283687, Control_c, 0, 64, 46
2, 283707, Control_c, 0, 64, 50
2, 283709, Note_on_c, 0, 68, 0
2, 283729, Control_c, 0, 64, 53
2, 283745, Control_c, 0, 64, 56
2, 283762, Control_c, 0, 64, 58
2, 283771, Note_on_c, 0, 53, 0
2, 283780, Note_on_c, 0, 70, 55
2, 283784, Control_c, 0, 64, 60
2, 283792, Note_on_c, 0, 55, 56
2, 283805, Control_c, 0, 64, 61
2, 283842, Control_c, 0, 64, 62
2, 283913, Note_on_c, 0, 55, 0
2, 283918, Control_c, 0, 64, 63
2, 283970, Note_on_c, 0, 79, 68
2, 284090, Control_c, 0, 64, 62
2, 284108, Control_c, 0, 64, 61
2, 284128, Control_c, 0, 64, 59
2, 284149, Control_c, 0, 64, 54
2, 284171, Control_c, 0, 64, 44
2, 284186, Control_c, 0, 64, 0
2, 284186, Note_on_c, 0, 77, 73
2, 284189, Note_on_c, 0, 58, 63
2, 284193, Note_on_c, 0, 55, 53
2, 284321, Control_c, 0, 64, 30
2, 284328, Note_on_c, 0, 79, 0
2, 284339, Control_c, 0, 64, 52
2, 284355, Note_on_c, 0, 55, 0
2, 284355, Note_on_c, 0, 58, 0
2, 284359, Control_c, 0, 64, 64
2, 284377, Control_c, 0, 64, 76
2, 284389, Note_on_c, 0, 56, 64
2, 284393, Note_on_c, 0, 75, 76
2, 284397, Control_c, 0, 64, 127
2, 284404, Note_on_c, 0, 60, 62
2, 284427, Note_on_c, 0, 77, 0
2, 284474, Note_on_c, 0, 75, 0
2, 284493, Note_on_c, 0, 70, 0
2, 284589, Note_on_c, 0, 60, 0
2, 284593, Control_c, 0, 64, 73
2, 284605, Note_on_c, 0, 56, 0
2, 284610, Control_c, 0, 64, 55
2, 284615, Note_on_c, 0, 74, 78
2, 284629, Control_c, 0, 64, 18
2, 284629, Note_on_c, 0, 58, 62
2, 284634, Note_on_c, 0, 62, 67
2, 284650, Control_c, 0, 64, 0
2, 284819, Control_c, 0, 64, 47
2, 284824, Note_on_c, 0, 62, 0
2, 284828, Note_on_c, 0, 60, 69
2, 284832, Note_on_c, 0, 58, 0
2, 284832, Note_on_c, 0, 68, 69
2, 284837, Control_c, 0, 64, 59
2, 284857, Control_c, 0, 64, 64
2, 284861, Note_on_c, 0, 60, 0
2, 284877, Control_c, 0, 64, 68
2, 284895, Control_c, 0, 64, 78
2, 284917, Control_c, 0, 64, 100
2, 284935, Control_c, 0, 64, 116
2, 284955, Control_c, 0, 64, 85
2, 284972, Control_c, 0, 64, 65
2, 284992, Control_c, 0, 64, 47
2, 285010, Note_on_c, 0, 68, 0
2, 285014, Control_c, 0, 64, 0
2, 285023, Note_on_c, 0, 74, 0
2, 285027, Note_on_c, 0, 46, 70
2, 285038, Note_on_c, 0, 58, 71
2, 285048, Note_on_c, 0, 67, 60
2, 285066, Note_on_c, 0, 46, 0
2, 285201, Note_on_c, 0, 58, 0
2, 285201, Note_on_c, 0, 67, 0
2, 285244, Note_on_c, 0, 65, 62
2, 285249, Note_on_c, 0, 56, 66
2, 285412, Note_on_c, 0, 56, 0
2, 285439, Note_on_c, 0, 65, 0
2, 285455, Control_c, 0, 64, 26
2, 285459, Note_on_c, 0, 48, 65
2, 285466, Note_on_c, 0, 55, 65
2, 285470, Note_on_c, 0, 63, 63
2, 285475, Control_c, 0, 64, 55
2, 285492, Control_c, 0, 64, 65
2, 285510, Control_c, 0, 64, 68
2, 285519, Note_on_c, 0, 48, 0
2, 285519, Note_on_c, 0, 63, 0
2, 285530, Control_c, 0, 64, 73
2, 285553, Control_c, 0, 64, 81
2, 285564, Note_on_c, 0, 55, 0
2, 285569, Control_c, 0, 64, 93
2, 285587, Control_c, 0, 64, 108
2, 285608, Control_c, 0, 64, 127
2, 285669, Note_on_c, 0, 62, 67
2, 285715, Note_on_c, 0, 62, 0
2, 285858, Control_c, 0, 64, 87
2, 285876, Control_c, 0, 64, 61
2, 285886, Note_on_c, 0, 67, 70
2, 285897, Control_c, 0, 64, 23
2, 285897, Note_on_c, 0, 60, 68
2, 285915, Control_c, 0, 64, 0
2, 285943, Note_on_c, 0, 67, 0
2, 286088, Control_c, 0, 64, 43
2, 286088, Note_on_c, 0, 62, 72
2, 286093, Note_on_c, 0, 60, 0
2, 286106, Control_c, 0, 64, 59
2, 286122, Note_on_c, 0, 62, 0
2, 286126, Control_c, 0, 64, 65
2, 286144, Control_c, 0, 64, 72
2, 286164, Control_c, 0, 64, 96
2, 286182, Control_c, 0, 64, 127
2, 286279, Control_c, 0, 64, 95
2, 286299, Control_c, 0, 64, 61
2, 286317, Control_c, 0, 64, 0
2, 286331, Note_on_c, 0, 72, 75
2, 286335, Note_on_c, 0, 63, 64
2, 286393, Control_c, 0, 64, 42
2, 286413, Control_c, 0, 64, 57
2, 286431, Control_c, 0, 64, 64
2, 286451, Control_c, 0, 64, 66
2, 286471, Control_c, 0, 64, 70
2, 286489, Control_c, 0, 64, 77
2, 286508, Control_c, 0, 64, 87
2, 286530, Control_c, 0, 64, 101
2, 286549, Control_c, 0, 64, 111
2, 286549, Note_on_c, 0, 63, 0
2, 286567, Control_c, 0, 64, 118
2, 286585, Control_c, 0, 64, 122
2, 286623, Control_c, 0, 64, 106
2, 286642, Control_c, 0, 64, 90
2, 286666, Control_c, 0, 64, 73
2, 286683, Control_c, 0, 64, 63
2, 286702, Control_c, 0, 64, 53
2, 286720, Control_c, 0, 64, 44
2, 286740, Control_c, 0, 64, 36
2, 286743, Note_on_c, 0, 63, 62
2, 286752, Note_on_c, 0, 48, 56
2, 286758, Control_c, 0, 64, 27
2, 286779, Control_c, 0, 64, 12
2, 286796, Control_c, 0, 64, 0
2, 286862, Note_on_c, 0, 63, 0
2, 286938, Note_on_c, 0, 48, 0
2, 286954, Note_on_c, 0, 65, 54
2, 286960, Note_on_c, 0, 50, 62
2, 286985, Note_on_c, 0, 72, 0
2, 287146, Note_on_c, 0, 65, 0
2, 287187, Note_on_c, 0, 50, 0
2, 287193, Note_on_c, 0, 67, 61
2, 287202, Note_on_c, 0, 51, 64
2, 287206, Control_c, 0, 64, 40
2, 287220, Control_c, 0, 64, 54
2, 287237, Control_c, 0, 64, 61
2, 287258, Control_c, 0, 64, 65
2, 287262, Note_on_c, 0, 51, 0
2, 287278, Control_c, 0, 64, 69
2, 287298, Control_c, 0, 64, 78
2, 287317, Control_c, 0, 64, 101
2, 287335, Control_c, 0, 64, 127
2, 287397, Note_on_c, 0, 75, 77
2, 287508, Control_c, 0, 64, 118
2, 287528, Control_c, 0, 64, 81
2, 287548, Control_c, 0, 64, 63
2, 287565, Control_c, 0, 64, 38
2, 287576, Note_on_c, 0, 51, 70
2, 287586, Control_c, 0, 64, 0
2, 287597, Note_on_c, 0, 55, 64
2, 287600, Note_on_c, 0, 74, 77
2, 287723, Note_on_c, 0, 51, 0
2, 287725, Note_on_c, 0, 75, 0
2, 287795, Control_c, 0, 64, 49
2, 287800, Note_on_c, 0, 53, 70
2, 287804, Note_on_c, 0, 72, 76
2, 287809, Note_on_c, 0, 56, 76
2, 287816, Control_c, 0, 64, 63
2, 287825, Note_on_c, 0, 74, 0
2, 287834, Control_c, 0, 64, 74
2, 287853, Control_c, 0, 64, 108
2, 287869, Note_on_c, 0, 55, 0
2, 287873, Control_c, 0, 64, 127
2, 287883, Note_on_c, 0, 72, 0
2, 288009, Control_c, 0, 64, 71
2, 288013, Note_on_c, 0, 53, 0
2, 288020, Note_on_c, 0, 56, 0
2, 288027, Control_c, 0, 64, 43
2, 288031, Note_on_c, 0, 55, 64
2, 288031, Note_on_c, 0, 70, 76
2, 288034, Note_on_c, 0, 67, 0
2, 288042, Note_on_c, 0, 58, 70
2, 288047, Control_c, 0, 64, 0
2, 288200, Control_c, 0, 64, 30
2, 288218, Control_c, 0, 64, 61
2, 288224, Note_on_c, 0, 55, 0
2, 288233, Note_on_c, 0, 56, 69
2, 288237, Note_on_c, 0, 58, 0
2, 288237, Note_on_c, 0, 65, 65
2, 288242, Control_c, 0, 64, 70
2, 288257, Control_c, 0, 64, 78
2, 288267, Note_on_c, 0, 56, 0
2, 288279, Control_c, 0, 64, 81
2, 288294, Control_c, 0, 64, 78
2, 288316, Control_c, 0, 64, 69
2, 288331, Control_c, 0, 64, 59
2, 288353, Control_c, 0, 64, 42
2, 288370, Control_c, 0, 64, 0
2, 288429, Note_on_c, 0, 65, 0
2, 288450, Note_on_c, 0, 43, 71
2, 288450, Note_on_c, 0, 55, 76
2, 288463, Note_on_c, 0, 63, 61
2, 288499, Note_on_c, 0, 43, 0
2, 288589, Note_on_c, 0, 55, 0
2, 288613, Note_on_c, 0, 70, 0
2, 288651, Note_on_c, 0, 53, 69
2, 288656, Note_on_c, 0, 63, 0
2, 288660, Note_on_c, 0, 61, 62
2, 288787, Note_on_c, 0, 53, 0
2, 288865, Note_on_c, 0, 44, 65
2, 288869, Note_on_c, 0, 61, 0
2, 288885, Note_on_c, 0, 51, 74
2, 288885, Note_on_c, 0, 60, 67
2, 288892, Control_c, 0, 64, 37
2, 288910, Control_c, 0, 64, 58
2, 288929, Control_c, 0, 64, 67
2, 288943, Note_on_c, 0, 44, 0
2, 288948, Control_c, 0, 64, 77
2, 288956, Note_on_c, 0, 60, 0
2, 288971, Control_c, 0, 64, 95
2, 288985, Control_c, 0, 64, 127
2, 289094, Note_on_c, 0, 58, 62
2, 289098, Note_on_c, 0, 51, 0
2, 289146, Note_on_c, 0, 58, 0
2, 289275, Control_c, 0, 64, 86
2, 289290, Control_c, 0, 64, 61
2, 289301, Note_on_c, 0, 56, 75
2, 289301, Note_on_c, 0, 63, 72
2, 289310, Control_c, 0, 64, 31
2, 289329, Control_c, 0, 64, 0
2, 289379, Note_on_c, 0, 63, 0
2, 289509, Note_on_c, 0, 56, 0
2, 289509, Note_on_c, 0, 58, 67
2, 289559, Control_c, 0, 64, 20
2, 289578, Control_c, 0, 64, 43
2, 289586, Note_on_c, 0, 58, 0
2, 289596, Control_c, 0, 64, 57
2, 289617, Control_c, 0, 64, 68
2, 289636, Control_c, 0, 64, 88
2, 289655, Control_c, 0, 64, 127
2, 289732, Control_c, 0, 64, 70
2, 289752, Control_c, 0, 64, 40
2, 289762, Note_on_c, 0, 68, 84
2, 289771, Control_c, 0, 64, 0
2, 289771, Note_on_c, 0, 60, 76
2, 289809, Control_c, 0, 64, 33
2, 289829, Control_c, 0, 64, 53
2, 289847, Control_c, 0, 64, 64
2, 289866, Control_c, 0, 64, 68
2, 289886, Control_c, 0, 64, 73
2, 289906, Control_c, 0, 64, 80
2, 289924, Control_c, 0, 64, 87
2, 289941, Control_c, 0, 64, 96
2, 289961, Control_c, 0, 64, 104
2, 289982, Control_c, 0, 64, 113
2, 289990, Note_on_c, 0, 60, 0
2, 289999, Control_c, 0, 64, 127
2, 290117, Control_c, 0, 64, 92
2, 290135, Control_c, 0, 64, 67
2, 290155, Control_c, 0, 64, 54
2, 290174, Control_c, 0, 64, 34
2, 290192, Control_c, 0, 64, 16
2, 290197, Note_on_c, 0, 44, 70
2, 290201, Note_on_c, 0, 60, 61
2, 290211, Control_c, 0, 64, 0
2, 290382, Note_on_c, 0, 44, 0
2, 290393, Note_on_c, 0, 46, 68
2, 290400, Note_on_c, 0, 60, 0
2, 290413, Note_on_c, 0, 62, 71
2, 290424, Note_on_c, 0, 68, 0
2, 290441, Control_c, 0, 64, 21
2, 290480, Control_c, 0, 64, 20
2, 290517, Control_c, 0, 64, 18
2, 290539, Control_c, 0, 64, 14
2, 290559, Control_c, 0, 64, 11
2, 290559, Note_on_c, 0, 62, 0
2, 290577, Control_c, 0, 64, 13
2, 290595, Control_c, 0, 64, 20
2, 290615, Control_c, 0, 64, 30
2, 290636, Control_c, 0, 64, 40
2, 290641, Note_on_c, 0, 48, 69
2, 290641, Note_on_c, 0, 63, 64
2, 290645, Note_on_c, 0, 46, 0
2, 290654, Control_c, 0, 64, 49
2, 290675, Control_c, 0, 64, 55
2, 290694, Control_c, 0, 64, 57
2, 290712, Control_c, 0, 64, 58
2, 290788, Control_c, 0, 64, 59
2, 290788, Note_on_c, 0, 48, 0
2, 290828, Note_on_c, 0, 72, 79
2, 290864, Control_c, 0, 64, 60
2, 290905, Control_c, 0, 64, 61
2, 290980, Control_c, 0, 64, 59
2, 291000, Control_c, 0, 64, 51
2, 291018, Control_c, 0, 64, 28
2, 291037, Control_c, 0, 64, 0
2, 291046, Note_on_c, 0, 70, 79
2, 291052, Note_on_c, 0, 51, 71
2, 291069, Note_on_c, 0, 48, 59
2, 291085, Note_on_c, 0, 72, 0
2, 291192, Control_c, 0, 64, 32
2, 291192, Note_on_c, 0, 51, 0
2, 291210, Control_c, 0, 64, 54
2, 291217, Note_on_c, 0, 48, 0
2, 291233, Control_c, 0, 64, 64
2, 291247, Control_c, 0, 64, 73
2, 291254, Note_on_c, 0, 50, 64
2, 291254, Note_on_c, 0, 53, 73
2, 291258, Note_on_c, 0, 68, 78
2, 291269, Control_c, 0, 64, 108
2, 291286, Control_c, 0, 64, 127
2, 291291, Note_on_c, 0, 70, 0
2, 291348, Note_on_c, 0, 68, 0
2, 291363, Note_on_c, 0, 63, 0
2, 291442, Control_c, 0, 64, 74
2, 291450, Note_on_c, 0, 50, 0
2, 291456, Note_on_c, 0, 53, 0
2, 291461, Control_c, 0, 64, 49
2, 291477, Note_on_c, 0, 67, 84
2, 291480, Control_c, 0, 64, 0
2, 291484, Note_on_c, 0, 51, 74
2, 291491, Note_on_c, 0, 55, 73
2, 291671, Control_c, 0, 64, 26
2, 291682, Note_on_c, 0, 53, 67
2, 291682, Note_on_c, 0, 55, 0
2, 291691, Control_c, 0, 64, 64
2, 291691, Note_on_c, 0, 51, 0
2, 291709, Control_c, 0, 64, 75
2, 291714, Note_on_c, 0, 62, 72
2, 291723, Note_on_c, 0, 53, 0
2, 291732, Control_c, 0, 64, 96
2, 291749, Control_c, 0, 64, 127
2, 291749, Note_on_c, 0, 67, 0
2, 291823, Control_c, 0, 64, 103
2, 291843, Control_c, 0, 64, 65
2, 291861, Control_c, 0, 64, 34
2, 291881, Control_c, 0, 64, 0
2, 291893, Note_on_c, 0, 62, 0
2, 291899, Note_on_c, 0, 51, 77
2, 291905, Note_on_c, 0, 39, 70
2, 291920, Note_on_c, 0, 60, 73
2, 291968, Note_on_c, 0, 39, 0
2, 291977, Control_c, 0, 64, 31
2, 291995, Note_on_c, 0, 51, 0
2, 291997, Control_c, 0, 64, 44
2, 292016, Control_c, 0, 64, 51
2, 292057, Control_c, 0, 64, 50
2, 292065, Note_on_c, 0, 60, 0
2, 292078, Control_c, 0, 64, 49
2, 292109, Note_on_c, 0, 58, 69
2, 292124, Note_on_c, 0, 50, 61
2, 292131, Control_c, 0, 64, 48
2, 292188, Control_c, 0, 64, 49
2, 292246, Control_c, 0, 64, 46
2, 292266, Control_c, 0, 64, 30
2, 292266, Note_on_c, 0, 50, 0
2, 292286, Note_on_c, 0, 58, 0
2, 292288, Control_c, 0, 64, 0
2, 292333, Note_on_c, 0, 56, 75
2, 292335, Note_on_c, 0, 48, 75
2, 292351, Note_on_c, 0, 41, 73
2, 292383, Control_c, 0, 64, 38
2, 292399, Control_c, 0, 64, 54
2, 292419, Control_c, 0, 64, 62
2, 292440, Control_c, 0, 64, 65
2, 292460, Control_c, 0, 64, 66
2, 292464, Note_on_c, 0, 56, 0
2, 292477, Control_c, 0, 64, 68
2, 292482, Note_on_c, 0, 41, 0
2, 292497, Control_c, 0, 64, 72
2, 292502, Note_on_c, 0, 48, 0
2, 292516, Control_c, 0, 64, 86
2, 292532, Note_on_c, 0, 65, 76
2, 292535, Control_c, 0, 64, 120
2, 292553, Control_c, 0, 64, 127
2, 292727, Control_c, 0, 64, 72
2, 292749, Control_c, 0, 64, 41
2, 292767, Control_c, 0, 64, 0
2, 292783, Note_on_c, 0, 68, 82
2, 292787, Note_on_c, 0, 50, 73
2, 292789, Note_on_c, 0, 43, 70
2, 292794, Note_on_c, 0, 47, 74
2, 292804, Control_c, 0, 64, 28
2, 292816, Note_on_c, 0, 65, 0
2, 292823, Control_c, 0, 64, 54
2, 292841, Control_c, 0, 64, 69
2, 292862, Control_c, 0, 64, 91
2, 292880, Control_c, 0, 64, 127
2, 292891, Note_on_c, 0, 43, 0
2, 292916, Note_on_c, 0, 68, 0
2, 292931, Note_on_c, 0, 47, 0
2, 292947, Note_on_c, 0, 50, 0
2, 292981, Note_on_c, 0, 67, 81
2, 292988, Note_on_c, 0, 51, 72
2, 293189, Note_on_c, 0, 51, 0
2, 293193, Control_c, 0, 64, 66
2, 293206, Control_c, 0, 64, 0
2, 293226, Note_on_c, 0, 44, 78
2, 293226, Note_on_c, 0, 53, 77
2, 293230, Note_on_c, 0, 48, 71
2, 293234, Note_on_c, 0, 65, 79
2, 293304, Control_c, 0, 64, 37
2, 293322, Control_c, 0, 64, 50
2, 293341, Control_c, 0, 64, 60
2, 293360, Control_c, 0, 64, 64
2, 293379, Control_c, 0, 64, 66
2, 293399, Note_on_c, 0, 53, 0
2, 293403, Control_c, 0, 64, 68
2, 293412, Note_on_c, 0, 44, 0
2, 293417, Control_c, 0, 64, 72
2, 293432, Note_on_c, 0, 67, 0
2, 293436, Note_on_c, 0, 63, 79
2, 293441, Control_c, 0, 64, 80
2, 293457, Control_c, 0, 64, 98
2, 293477, Control_c, 0, 64, 127
2, 293482, Note_on_c, 0, 65, 0
2, 293611, Control_c, 0, 64, 85
2, 293630, Control_c, 0, 64, 50
2, 293647, Control_c, 0, 64, 0
2, 293667, Note_on_c, 0, 54, 82
2, 293674, Note_on_c, 0, 45, 75
2, 293690, Note_on_c, 0, 62, 82
2, 293709, Note_on_c, 0, 63, 0
2, 293725, Control_c, 0, 64, 34
2, 293746, Control_c, 0, 64, 56
2, 293763, Control_c, 0, 64, 64
2, 293781, Control_c, 0, 64, 67
2, 293801, Control_c, 0, 64, 70
2, 293821, Control_c, 0, 64, 76
2, 293829, Note_on_c, 0, 54, 0
2, 293838, Note_on_c, 0, 45, 0
2, 293842, Control_c, 0, 64, 84
2, 293853, Note_on_c, 0, 48, 0
2, 293863, Control_c, 0, 64, 94
2, 293878, Control_c, 0, 64, 104
2, 293895, Note_on_c, 0, 60, 85
2, 293899, Control_c, 0, 64, 111
2, 293904, Note_on_c, 0, 62, 0
2, 293917, Control_c, 0, 64, 116
2, 293936, Control_c, 0, 64, 127
2, 294111, Control_c, 0, 64, 90
2, 294130, Control_c, 0, 64, 64
2, 294148, Control_c, 0, 64, 0
2, 294205, Note_on_c, 0, 43, 69
2, 294205, Note_on_c, 0, 50, 66
2, 294210, Note_on_c, 0, 55, 71
2, 294227, Note_on_c, 0, 59, 80
2, 294250, Note_on_c, 0, 60, 0
2, 294301, Control_c, 0, 64, 59
2, 294313, Note_on_c, 0, 43, 0
2, 294321, Control_c, 0, 64, 65
2, 294339, Control_c, 0, 64, 68
2, 294344, Note_on_c, 0, 50, 0
2, 294359, Control_c, 0, 64, 71
2, 294378, Control_c, 0, 64, 76
2, 294396, Control_c, 0, 64, 85
2, 294415, Control_c, 0, 64, 94
2, 294424, Note_on_c, 0, 55, 0
2, 294437, Control_c, 0, 64, 100
2, 294449, Note_on_c, 0, 59, 0
2, 294513, Control_c, 0, 64, 99
2, 294532, Control_c, 0, 64, 97
2, 294550, Control_c, 0, 64, 95
2, 294570, Control_c, 0, 64, 94
2, 294647, Control_c, 0, 64, 95
2, 294685, Control_c, 0, 64, 96
2, 294745, Note_on_c, 0, 55, 42
2, 294781, Control_c, 0, 64, 95
2, 294801, Control_c, 0, 64, 94
2, 294818, Control_c, 0, 64, 93
2, 294858, Control_c, 0, 64, 92
2, 294876, Control_c, 0, 64, 91
2, 294888, Note_on_c, 0, 55, 0
2, 294897, Control_c, 0, 64, 90
2, 294915, Control_c, 0, 64, 88
2, 294936, Control_c, 0, 64, 87
2, 294953, Control_c, 0, 64, 86
2, 294973, Control_c, 0, 64, 85
2, 294978, Note_on_c, 0, 57, 32
2, 295375, Control_c, 0, 64, 84
2, 295398, Control_c, 0, 64, 80
2, 295398, Note_on_c, 0, 57, 0
2, 295416, Control_c, 0, 64, 72
2, 295424, Note_on_c, 0, 79, 61
2, 295434, Control_c, 0, 64, 64
2, 295438, Note_on_c, 0, 59, 37
2, 295453, Control_c, 0, 64, 59
2, 295471, Control_c, 0, 64, 54
2, 295491, Control_c, 0, 64, 48
2, 295512, Control_c, 0, 64, 40
2, 295532, Control_c, 0, 64, 34
2, 295550, Control_c, 0, 64, 29
2, 295567, Control_c, 0, 64, 28
2, 295625, Control_c, 0, 64, 27
2, 295781, Control_c, 0, 64, 28
2, 295831, Note_on_c, 0, 59, 0
2, 295896, Note_on_c, 0, 57, 35
2, 295933, Control_c, 0, 64, 27
2, 295952, Control_c, 0, 64, 26
2, 295970, Control_c, 0, 64, 25
2, 295991, Control_c, 0, 64, 24
2, 296011, Control_c, 0, 64, 23
2, 296054, Note_on_c, 0, 57, 0
2, 296103, Note_on_c, 0, 59, 39
2, 296267, Note_on_c, 0, 59, 0
2, 296330, Note_on_c, 0, 80, 65
2, 296346, Note_on_c, 0, 60, 38
2, 296428, Note_on_c, 0, 79, 0
2, 296501, Note_on_c, 0, 60, 0
2, 296567, Note_on_c, 0, 59, 35
2, 296724, Control_c, 0, 64, 26
2, 296742, Control_c, 0, 64, 33
2, 296753, Note_on_c, 0, 59, 0
2, 296758, Control_c, 0, 64, 44
2, 296762, Note_on_c, 0, 72, 50
2, 296781, Control_c, 0, 64, 55
2, 296798, Control_c, 0, 64, 61
2, 296802, Note_on_c, 0, 60, 40
2, 296817, Control_c, 0, 64, 63
2, 296835, Control_c, 0, 64, 65
2, 296855, Control_c, 0, 64, 71
2, 296874, Control_c, 0, 64, 85
2, 296882, Note_on_c, 0, 80, 0
2, 296894, Control_c, 0, 64, 127
2, 296898, Note_on_c, 0, 60, 0
2, 296986, Note_on_c, 0, 62, 42
2, 297161, Note_on_c, 0, 62, 0
2, 297219, Control_c, 0, 64, 103
2, 297228, Note_on_c, 0, 63, 42
2, 297228, Note_on_c, 0, 79, 58
2, 297239, Control_c, 0, 64, 78
2, 297259, Control_c, 0, 64, 65
2, 297277, Control_c, 0, 64, 57
2, 297297, Control_c, 0, 64, 51
2, 297315, Control_c, 0, 64, 47
2, 297335, Control_c, 0, 64, 45
2, 297353, Control_c, 0, 64, 43
2, 297374, Control_c, 0, 64, 42
2, 297392, Control_c, 0, 64, 41
2, 297430, Control_c, 0, 64, 40
2, 297469, Control_c, 0, 64, 39
2, 297659, Note_on_c, 0, 70, 51
2, 297709, Note_on_c, 0, 72, 0
2, 297762, Note_on_c, 0, 70, 0
2, 298120, Note_on_c, 0, 78, 62
2, 298132, Note_on_c, 0, 69, 36
2, 298207, Note_on_c, 0, 79, 0
2, 298278, Note_on_c, 0, 63, 0
2, 298336, Note_on_c, 0, 60, 45
2, 298491, Control_c, 0, 64, 42
2, 298510, Control_c, 0, 64, 47
2, 298510, Note_on_c, 0, 60, 0
2, 298519, Note_on_c, 0, 69, 0
2, 298526, Control_c, 0, 64, 55
2, 298544, Control_c, 0, 64, 60
2, 298551, Note_on_c, 0, 62, 43
2, 298557, Note_on_c, 0, 70, 53
2, 298564, Control_c, 0, 64, 62
2, 298583, Control_c, 0, 64, 63
2, 298601, Control_c, 0, 64, 65
2, 298621, Control_c, 0, 64, 68
2, 298643, Control_c, 0, 64, 72
2, 298659, Control_c, 0, 64, 78
2, 298663, Note_on_c, 0, 70, 0
2, 298679, Control_c, 0, 64, 86
2, 298684, Note_on_c, 0, 78, 0
2, 298698, Control_c, 0, 64, 90
2, 298718, Control_c, 0, 64, 92
2, 298720, Note_on_c, 0, 62, 0
2, 298764, Note_on_c, 0, 72, 55
2, 298768, Note_on_c, 0, 63, 53
2, 298774, Control_c, 0, 64, 93
2, 298793, Control_c, 0, 64, 94
2, 298832, Control_c, 0, 64, 95
2, 298853, Control_c, 0, 64, 96
2, 298871, Control_c, 0, 64, 97
2, 298889, Control_c, 0, 64, 98
2, 298929, Control_c, 0, 64, 86
2, 298936, Note_on_c, 0, 63, 0
2, 298947, Control_c, 0, 64, 69
2, 298954, Note_on_c, 0, 72, 0
2, 298969, Control_c, 0, 64, 56
2, 298986, Control_c, 0, 64, 36
2, 299006, Control_c, 0, 64, 28
2, 299010, Note_on_c, 0, 83, 69
2, 299017, Note_on_c, 0, 74, 56
2, 299024, Note_on_c, 0, 65, 42
2, 299028, Control_c, 0, 64, 34
2, 299044, Control_c, 0, 64, 43
2, 299063, Control_c, 0, 64, 53
2, 299085, Control_c, 0, 64, 60
2, 299101, Control_c, 0, 64, 63
2, 299120, Control_c, 0, 64, 65
2, 299132, Note_on_c, 0, 65, 0
2, 299139, Control_c, 0, 64, 68
2, 299159, Control_c, 0, 64, 70
2, 299179, Control_c, 0, 64, 74
2, 299179, Note_on_c, 0, 74, 0
2, 299196, Control_c, 0, 64, 77
2, 299216, Control_c, 0, 64, 78
2, 299229, Note_on_c, 0, 72, 56
2, 299293, Control_c, 0, 64, 76
2, 299311, Control_c, 0, 64, 73
2, 299332, Control_c, 0, 64, 68
2, 299353, Control_c, 0, 64, 63
2, 299369, Control_c, 0, 64, 59
2, 299390, Control_c, 0, 64, 57
2, 299408, Control_c, 0, 64, 55
2, 299427, Control_c, 0, 64, 53
2, 299448, Control_c, 0, 64, 51
2, 299454, Note_on_c, 0, 71, 48
2, 299468, Control_c, 0, 64, 49
2, 299468, Note_on_c, 0, 72, 0
2, 299485, Control_c, 0, 64, 47
2, 299526, Control_c, 0, 64, 46
2, 299542, Control_c, 0, 64, 45
2, 299561, Control_c, 0, 64, 43
2, 299582, Control_c, 0, 64, 42
2, 299608, Note_on_c, 0, 71, 0
2, 299651, Note_on_c, 0, 69, 43
2, 299753, Control_c, 0, 64, 41
2, 299836, Note_on_c, 0, 69, 0
2, 299889, Note_on_c, 0, 84, 72
2, 299934, Note_on_c, 0, 67, 47
2, 299990, Note_on_c, 0, 83, 0
2, 300066, Note_on_c, 0, 67, 0
2, 300106, Note_on_c, 0, 63, 51
2, 300275, Note_on_c, 0, 63, 0
2, 300327, Note_on_c, 0, 65, 51
2, 300482, Control_c, 0, 64, 40
2, 300501, Control_c, 0, 64, 39
2, 300523, Control_c, 0, 64, 38
2, 300523, Note_on_c, 0, 65, 0
2, 300541, Control_c, 0, 64, 37
2, 300553, Note_on_c, 0, 67, 55
2, 300562, Control_c, 0, 64, 36
2, 300599, Control_c, 0, 64, 35
2, 300619, Control_c, 0, 64, 34
2, 300636, Control_c, 0, 64, 33
2, 300657, Control_c, 0, 64, 32
2, 300695, Control_c, 0, 64, 31
2, 300711, Note_on_c, 0, 67, 0
2, 300735, Control_c, 0, 64, 30
2, 300752, Control_c, 0, 64, 29
2, 300781, Note_on_c, 0, 77, 62
2, 300786, Note_on_c, 0, 68, 55
2, 300790, Control_c, 0, 64, 28
2, 300830, Control_c, 0, 64, 27
2, 300834, Note_on_c, 0, 84, 0
2, 300906, Note_on_c, 0, 68, 0
2, 300910, Control_c, 0, 64, 31
2, 300925, Control_c, 0, 64, 38
2, 300943, Control_c, 0, 64, 48
2, 300963, Control_c, 0, 64, 57
2, 300984, Control_c, 0, 64, 61
2, 300993, Note_on_c, 0, 55, 47
2, 301002, Control_c, 0, 64, 62
2, 301022, Control_c, 0, 64, 63
2, 301040, Control_c, 0, 64, 65
2, 301059, Control_c, 0, 64, 69
2, 301079, Control_c, 0, 64, 79
2, 301099, Control_c, 0, 64, 97
2, 301118, Control_c, 0, 64, 120
2, 301131, Note_on_c, 0, 77, 0
2, 301135, Control_c, 0, 64, 127
2, 301172, Note_on_c, 0, 55, 0
2, 301216, Note_on_c, 0, 56, 53
2, 301379, Note_on_c, 0, 56, 0
2, 301424, Note_on_c, 0, 58, 55
2, 301627, Note_on_c, 0, 58, 0
2, 301636, Control_c, 0, 64, 88
2, 301652, Note_on_c, 0, 76, 70
2, 301654, Control_c, 0, 64, 70
2, 301670, Note_on_c, 0, 60, 48
2, 301674, Control_c, 0, 64, 61
2, 301696, Control_c, 0, 64, 54
2, 301713, Control_c, 0, 64, 48
2, 301733, Control_c, 0, 64, 44
2, 301750, Control_c, 0, 64, 40
2, 301770, Control_c, 0, 64, 38
2, 301790, Control_c, 0, 64, 35
2, 301808, Control_c, 0, 64, 34
2, 301846, Control_c, 0, 64, 33
2, 301873, Note_on_c, 0, 67, 49
2, 302045, Note_on_c, 0, 67, 0
2, 302058, Control_c, 0, 64, 35
2, 302075, Control_c, 0, 64, 37
2, 302084, Note_on_c, 0, 69, 44
2, 302097, Control_c, 0, 64, 42
2, 302117, Control_c, 0, 64, 48
2, 302135, Control_c, 0, 64, 54
2, 302152, Control_c, 0, 64, 58
2, 302172, Control_c, 0, 64, 60
2, 302192, Control_c, 0, 64, 62
2, 302210, Control_c, 0, 64, 63
2, 302226, Note_on_c, 0, 69, 0
2, 302230, Control_c, 0, 64, 65
2, 302248, Control_c, 0, 64, 68
2, 302268, Control_c, 0, 64, 73
2, 302281, Note_on_c, 0, 71, 60
2, 302288, Control_c, 0, 64, 82
2, 302299, Note_on_c, 0, 60, 0
2, 302308, Control_c, 0, 64, 87
2, 302327, Control_c, 0, 64, 90
2, 302350, Control_c, 0, 64, 92
2, 302364, Control_c, 0, 64, 96
2, 302383, Control_c, 0, 64, 101
2, 302403, Control_c, 0, 64, 106
2, 302426, Control_c, 0, 64, 115
2, 302441, Control_c, 0, 64, 127
2, 302519, Control_c, 0, 64, 103
2, 302538, Note_on_c, 0, 71, 0
2, 302538, Note_on_c, 0, 75, 63
2, 302539, Control_c, 0, 64, 87
2, 302544, Note_on_c, 0, 72, 60
2, 302558, Control_c, 0, 64, 71
2, 302577, Control_c, 0, 64, 63
2, 302577, Note_on_c, 0, 76, 0
2, 302593, Control_c, 0, 64, 57
2, 302613, Control_c, 0, 64, 52
2, 302633, Control_c, 0, 64, 47
2, 302653, Control_c, 0, 64, 41
2, 302670, Control_c, 0, 64, 34
2, 302691, Control_c, 0, 64, 28
2, 302710, Control_c, 0, 64, 27
2, 302754, Note_on_c, 0, 60, 39
2, 302769, Control_c, 0, 64, 28
2, 302789, Control_c, 0, 64, 29
2, 302806, Control_c, 0, 64, 33
2, 302826, Control_c, 0, 64, 40
2, 302844, Control_c, 0, 64, 49
2, 302864, Control_c, 0, 64, 56
2, 302882, Control_c, 0, 64, 60
2, 302901, Control_c, 0, 64, 62
2, 302915, Note_on_c, 0, 60, 0
2, 302923, Control_c, 0, 64, 64
2, 302941, Control_c, 0, 64, 65
2, 302960, Control_c, 0, 64, 68
2, 302972, Note_on_c, 0, 62, 37
2, 302981, Control_c, 0, 64, 74
2, 302998, Control_c, 0, 64, 84
2, 303005, Note_on_c, 0, 75, 0
2, 303018, Control_c, 0, 64, 93
2, 303037, Control_c, 0, 64, 98
2, 303058, Control_c, 0, 64, 103
2, 303075, Control_c, 0, 64, 111
2, 303097, Control_c, 0, 64, 127
2, 303137, Note_on_c, 0, 62, 0
2, 303182, Note_on_c, 0, 63, 49
2, 303358, Note_on_c, 0, 63, 0
2, 303438, Note_on_c, 0, 74, 62
2, 303443, Note_on_c, 0, 65, 38
2, 303443, Note_on_c, 0, 72, 0
2, 303462, Control_c, 0, 64, 115
2, 303477, Control_c, 0, 64, 92
2, 303498, Control_c, 0, 64, 76
2, 303516, Control_c, 0, 64, 66
2, 303536, Control_c, 0, 64, 59
2, 303554, Control_c, 0, 64, 54
2, 303573, Control_c, 0, 64, 51
2, 303594, Control_c, 0, 64, 49
2, 303612, Control_c, 0, 64, 47
2, 303628, Note_on_c, 0, 65, 0
2, 303632, Control_c, 0, 64, 46
2, 303643, Note_on_c, 0, 62, 50
2, 303652, Control_c, 0, 64, 44
2, 303690, Control_c, 0, 64, 43
2, 303708, Control_c, 0, 64, 42
2, 303730, Control_c, 0, 64, 40
2, 303746, Control_c, 0, 64, 39
2, 303803, Note_on_c, 0, 62, 0
2, 303853, Note_on_c, 0, 63, 45
2, 303864, Control_c, 0, 64, 38
2, 303880, Note_on_c, 0, 71, 49
2, 303901, Control_c, 0, 64, 37
2, 303940, Control_c, 0, 64, 36
2, 304027, Note_on_c, 0, 71, 0
2, 304049, Note_on_c, 0, 63, 0
2, 304054, Control_c, 0, 64, 35
2, 304068, Note_on_c, 0, 65, 51
2, 304068, Note_on_c, 0, 69, 50
2, 304111, Control_c, 0, 64, 34
2, 304222, Note_on_c, 0, 65, 0
2, 304254, Note_on_c, 0, 69, 0
2, 304265, Control_c, 0, 64, 33
2, 304278, Note_on_c, 0, 67, 49
2, 304278, Note_on_c, 0, 71, 51
2, 304437, Note_on_c, 0, 67, 0
2, 304437, Note_on_c, 0, 71, 0
2, 304459, Control_c, 0, 64, 32
2, 304475, Note_on_c, 0, 68, 55
2, 304481, Note_on_c, 0, 72, 55
2, 304638, Note_on_c, 0, 68, 0
2, 304676, Note_on_c, 0, 74, 0
2, 304685, Note_on_c, 0, 72, 0
2, 304702, Note_on_c, 0, 71, 56
2, 304705, Note_on_c, 0, 67, 46
2, 304850, Note_on_c, 0, 67, 0
2, 304872, Note_on_c, 0, 71, 0
2, 304893, Note_on_c, 0, 74, 53
2, 304902, Note_on_c, 0, 65, 44
2, 305066, Note_on_c, 0, 65, 0
2, 305084, Note_on_c, 0, 74, 0
2, 305124, Note_on_c, 0, 67, 44
2, 305129, Note_on_c, 0, 63, 44
2, 305269, Note_on_c, 0, 63, 0
2, 305391, Note_on_c, 0, 65, 25
2, 305534, Note_on_c, 0, 65, 0
2, 305540, Note_on_c, 0, 72, 55
2, 305563, Note_on_c, 0, 63, 33
2, 305630, Note_on_c, 0, 67, 0
2, 305732, Note_on_c, 0, 63, 0
2, 305747, Note_on_c, 0, 74, 59
2, 305756, Note_on_c, 0, 72, 0
2, 305765, Control_c, 0, 64, 33
2, 305770, Note_on_c, 0, 62, 42
2, 305955, Control_c, 0, 64, 35
2, 305964, Note_on_c, 0, 62, 0
2, 305977, Control_c, 0, 64, 39
2, 305994, Control_c, 0, 64, 48
2, 306013, Control_c, 0, 64, 57
2, 306020, Note_on_c, 0, 74, 0
2, 306024, Note_on_c, 0, 60, 40
2, 306033, Control_c, 0, 64, 61
2, 306039, Note_on_c, 0, 75, 53
2, 306051, Control_c, 0, 64, 63
2, 306071, Control_c, 0, 64, 65
2, 306089, Control_c, 0, 64, 67
2, 306105, Note_on_c, 0, 60, 0
2, 306108, Control_c, 0, 64, 73
2, 306129, Control_c, 0, 64, 88
2, 306146, Control_c, 0, 64, 127
2, 306397, Control_c, 0, 64, 110
2, 306415, Control_c, 0, 64, 77
2, 306433, Note_on_c, 0, 67, 52
2, 306437, Control_c, 0, 64, 64
2, 306446, Note_on_c, 0, 60, 49
2, 306454, Control_c, 0, 64, 53
2, 306473, Control_c, 0, 64, 40
2, 306493, Control_c, 0, 64, 20
2, 306512, Control_c, 0, 64, 0
2, 306512, Note_on_c, 0, 67, 0
2, 306611, Note_on_c, 0, 60, 0
2, 306655, Note_on_c, 0, 58, 55
2, 306851, Note_on_c, 0, 58, 0
2, 306898, Control_c, 0, 64, 35
2, 306898, Note_on_c, 0, 57, 55
2, 306902, Note_on_c, 0, 60, 50
2, 306915, Control_c, 0, 64, 51
2, 306935, Control_c, 0, 64, 62
2, 306955, Control_c, 0, 64, 66
2, 306973, Control_c, 0, 64, 72
2, 306991, Control_c, 0, 64, 81
2, 307011, Control_c, 0, 64, 96
2, 307031, Control_c, 0, 64, 127
2, 307051, Note_on_c, 0, 57, 0
2, 307051, Note_on_c, 0, 60, 0
2, 307280, Control_c, 0, 64, 97
2, 307300, Control_c, 0, 64, 72
2, 307304, Note_on_c, 0, 72, 58
2, 307317, Control_c, 0, 64, 60
2, 307321, Note_on_c, 0, 57, 48
2, 307337, Control_c, 0, 64, 48
2, 307359, Control_c, 0, 64, 34
2, 307376, Control_c, 0, 64, 17
2, 307394, Control_c, 0, 64, 0
2, 307495, Note_on_c, 0, 57, 0
2, 307520, Note_on_c, 0, 70, 59
2, 307532, Note_on_c, 0, 55, 52
2, 307593, Note_on_c, 0, 72, 0
2, 307739, Note_on_c, 0, 55, 0
2, 307752, Note_on_c, 0, 70, 0
2, 307780, Note_on_c, 0, 69, 52
2, 307786, Note_on_c, 0, 53, 49
2, 308171, Note_on_c, 0, 53, 0
2, 308181, Note_on_c, 0, 69, 0
2, 308192, Note_on_c, 0, 70, 54
2, 308203, Note_on_c, 0, 55, 49
2, 308352, Note_on_c, 0, 55, 0
2, 308357, Note_on_c, 0, 70, 0
2, 308393, Note_on_c, 0, 57, 53
2, 308402, Note_on_c, 0, 72, 55
2, 308503, Note_on_c, 0, 75, 0
2, 308565, Control_c, 0, 64, 11
2, 308580, Note_on_c, 0, 72, 0
2, 308585, Control_c, 0, 64, 38
2, 308607, Control_c, 0, 64, 53
2, 308607, Note_on_c, 0, 57, 0
2, 308625, Control_c, 0, 64, 62
2, 308643, Note_on_c, 0, 58, 47
2, 308648, Control_c, 0, 64, 65
2, 308653, Note_on_c, 0, 65, 48
2, 308661, Control_c, 0, 64, 68
2, 308681, Control_c, 0, 64, 78
2, 308701, Control_c, 0, 64, 106
2, 308712, Note_on_c, 0, 65, 0
2, 308722, Control_c, 0, 64, 127
2, 308722, Note_on_c, 0, 58, 0
2, 309028, Control_c, 0, 64, 104
2, 309039, Note_on_c, 0, 70, 64
2, 309043, Note_on_c, 0, 65, 47
2, 309043, Note_on_c, 0, 74, 67
2, 309048, Control_c, 0, 64, 77
2, 309065, Control_c, 0, 64, 64
2, 309085, Control_c, 0, 64, 54
2, 309104, Control_c, 0, 64, 46
2, 309122, Control_c, 0, 64, 43
2, 309142, Control_c, 0, 64, 39
2, 309161, Control_c, 0, 64, 32
2, 309179, Control_c, 0, 64, 23
2, 309201, Control_c, 0, 64, 14
2, 309218, Control_c, 0, 64, 9
2, 309229, Note_on_c, 0, 65, 0
2, 309238, Control_c, 0, 64, 0
2, 309249, Note_on_c, 0, 75, 75
2, 309254, Note_on_c, 0, 63, 53
2, 309318, Note_on_c, 0, 74, 0
2, 309466, Note_on_c, 0, 63, 0
2, 309497, Note_on_c, 0, 62, 53
2, 309502, Note_on_c, 0, 77, 79
2, 309525, Control_c, 0, 64, 31
2, 309536, Note_on_c, 0, 70, 0
2, 309545, Control_c, 0, 64, 52
2, 309564, Control_c, 0, 64, 63
2, 309579, Note_on_c, 0, 75, 0
2, 309586, Control_c, 0, 64, 69
2, 309601, Control_c, 0, 64, 78
2, 309623, Control_c, 0, 64, 94
2, 309638, Note_on_c, 0, 62, 0
2, 309642, Control_c, 0, 64, 127
2, 309854, Control_c, 0, 64, 88
2, 309871, Control_c, 0, 64, 65
2, 309894, Control_c, 0, 64, 45
2, 309911, Control_c, 0, 64, 0
2, 309932, Note_on_c, 0, 68, 66
2, 309939, Note_on_c, 0, 62, 50
2, 310010, Note_on_c, 0, 68, 0
2, 310088, Note_on_c, 0, 62, 0
2, 310135, Note_on_c, 0, 60, 65
2, 310337, Note_on_c, 0, 60, 0
2, 310350, Note_on_c, 0, 67, 62
2, 310352, Note_on_c, 0, 59, 56
2, 310371, Control_c, 0, 64, 19
2, 310391, Control_c, 0, 64, 43
2, 310408, Control_c, 0, 64, 57
2, 310429, Control_c, 0, 64, 63
2, 310449, Control_c, 0, 64, 66
2, 310467, Control_c, 0, 64, 70
2, 310486, Control_c, 0, 64, 79
2, 310491, Note_on_c, 0, 67, 0
2, 310495, Note_on_c, 0, 59, 0
2, 310506, Control_c, 0, 64, 94
2, 310524, Control_c, 0, 64, 127
2, 310786, Note_on_c, 0, 59, 59
2, 310795, Note_on_c, 0, 74, 71
2, 310799, Control_c, 0, 64, 89
2, 310814, Control_c, 0, 64, 69
2, 310832, Control_c, 0, 64, 60
2, 310850, Control_c, 0, 64, 52
2, 310870, Control_c, 0, 64, 46
2, 310888, Control_c, 0, 64, 43
2, 310908, Control_c, 0, 64, 38
2, 310928, Control_c, 0, 64, 33
2, 310948, Control_c, 0, 64, 29
2, 310966, Control_c, 0, 64, 26
2, 310983, Note_on_c, 0, 59, 0
2, 310988, Control_c, 0, 64, 25
2, 311002, Note_on_c, 0, 57, 68
2, 311007, Control_c, 0, 64, 23
2, 311007, Note_on_c, 0, 72, 71
2, 311027, Control_c, 0, 64, 22
2, 311044, Control_c, 0, 64, 20
2, 311193, Note_on_c, 0, 74, 0
2, 311231, Note_on_c, 0, 57, 0
2, 311235, Control_c, 0, 64, 19
2, 311253, Note_on_c, 0, 55, 60
2, 311258, Note_on_c, 0, 71, 64
2, 311258, Note_on_c, 0, 72, 0
2, 311274, Control_c, 0, 64, 18
2, 311369, Control_c, 0, 64, 17
2, 311389, Control_c, 0, 64, 16
2, 311407, Control_c, 0, 64, 15
2, 311427, Control_c, 0, 64, 13
2, 311447, Control_c, 0, 64, 12
2, 311465, Control_c, 0, 64, 11
2, 311485, Control_c, 0, 64, 10
2, 311507, Control_c, 0, 64, 8
2, 311524, Control_c, 0, 64, 0
2, 311657, Note_on_c, 0, 55, 0
2, 311666, Note_on_c, 0, 57, 60
2, 311676, Note_on_c, 0, 72, 66
2, 311684, Note_on_c, 0, 71, 0
2, 311866, Note_on_c, 0, 57, 0
2, 311874, Note_on_c, 0, 74, 67
2, 311878, Note_on_c, 0, 59, 59
2, 311907, Note_on_c, 0, 72, 0
2, 311933, Note_on_c, 0, 77, 0
2, 312054, Note_on_c, 0, 74, 0
2, 312083, Note_on_c, 0, 59, 0
2, 312100, Note_on_c, 0, 67, 68
2, 312118, Note_on_c, 0, 60, 55
2, 312295, Note_on_c, 0, 74, 82
2, 312332, Note_on_c, 0, 67, 0
2, 312464, Control_c, 0, 64, 13
2, 312484, Control_c, 0, 64, 28
2, 312484, Note_on_c, 0, 60, 0
2, 312500, Note_on_c, 0, 58, 63
2, 312500, Note_on_c, 0, 76, 84
2, 312502, Control_c, 0, 64, 42
2, 312523, Control_c, 0, 64, 52
2, 312536, Note_on_c, 0, 74, 0
2, 312542, Control_c, 0, 64, 59
2, 312562, Control_c, 0, 64, 62
2, 312579, Control_c, 0, 64, 64
2, 312599, Control_c, 0, 64, 67
2, 312617, Control_c, 0, 64, 76
2, 312635, Control_c, 0, 64, 100
2, 312657, Control_c, 0, 64, 127
2, 312695, Note_on_c, 0, 58, 0
2, 312702, Note_on_c, 0, 56, 68
2, 312702, Note_on_c, 0, 79, 87
2, 312723, Note_on_c, 0, 76, 0
2, 312764, Note_on_c, 0, 79, 0
2, 312923, Control_c, 0, 64, 88
2, 312941, Note_on_c, 0, 56, 0
2, 312945, Control_c, 0, 64, 61
2, 312964, Control_c, 0, 64, 33
2, 312968, Note_on_c, 0, 55, 68
2, 312968, Note_on_c, 0, 70, 84
2, 312984, Control_c, 0, 64, 0
2, 313004, Control_c, 0, 64, 27
2, 313019, Control_c, 0, 64, 47
2, 313041, Control_c, 0, 64, 60
2, 313058, Control_c, 0, 64, 67
2, 313080, Control_c, 0, 64, 75
2, 313098, Control_c, 0, 64, 91
2, 313115, Control_c, 0, 64, 127
2, 313148, Note_on_c, 0, 55, 0
2, 313347, Control_c, 0, 64, 93
2, 313365, Control_c, 0, 64, 66
2, 313384, Control_c, 0, 64, 51
2, 313391, Note_on_c, 0, 55, 67
2, 313402, Note_on_c, 0, 61, 78
2, 313404, Control_c, 0, 64, 28
2, 313424, Control_c, 0, 64, 0
2, 313517, Note_on_c, 0, 61, 0
2, 313567, Note_on_c, 0, 55, 0
2, 313590, Note_on_c, 0, 53, 77
2, 313828, Note_on_c, 0, 52, 67
2, 313836, Note_on_c, 0, 53, 0
2, 313841, Note_on_c, 0, 60, 75
2, 313850, Control_c, 0, 64, 20
2, 313868, Control_c, 0, 64, 51
2, 313886, Control_c, 0, 64, 62
2, 313910, Control_c, 0, 64, 67
2, 313929, Control_c, 0, 64, 76
2, 313949, Control_c, 0, 64, 96
2, 313965, Control_c, 0, 64, 127
2, 313969, Note_on_c, 0, 60, 0
2, 313976, Note_on_c, 0, 52, 0
2, 314254, Control_c, 0, 64, 94
2, 314273, Note_on_c, 0, 52, 71
2, 314277, Control_c, 0, 64, 66
2, 314281, Note_on_c, 0, 67, 70
2, 314293, Control_c, 0, 64, 55
2, 314310, Control_c, 0, 64, 45
2, 314330, Control_c, 0, 64, 36
2, 314352, Control_c, 0, 64, 27
2, 314372, Control_c, 0, 64, 12
2, 314388, Control_c, 0, 64, 0
2, 314482, Note_on_c, 0, 52, 0
2, 314493, Note_on_c, 0, 50, 74
2, 314493, Note_on_c, 0, 65, 72
2, 314626, Note_on_c, 0, 67, 0
2, 314717, Note_on_c, 0, 50, 0
2, 314727, Note_on_c, 0, 48, 67
2, 314732, Note_on_c, 0, 64, 78
2, 314736, Note_on_c, 0, 65, 0
2, 315142, Note_on_c, 0, 50, 70
2, 315155, Note_on_c, 0, 65, 67
2, 315169, Note_on_c, 0, 48, 0
2, 315169, Note_on_c, 0, 64, 0
2, 315358, Note_on_c, 0, 52, 77
2, 315358, Note_on_c, 0, 67, 68
2, 315363, Note_on_c, 0, 50, 0
2, 315404, Note_on_c, 0, 65, 0
2, 315541, Note_on_c, 0, 67, 0
2, 315552, Note_on_c, 0, 52, 0
2, 315581, Note_on_c, 0, 53, 71
2, 315596, Note_on_c, 0, 60, 65
2, 315768, Note_on_c, 0, 53, 0
2, 315797, Note_on_c, 0, 55, 78
2, 316028, Note_on_c, 0, 56, 77
2, 316039, Note_on_c, 0, 65, 66
2, 316039, Note_on_c, 0, 68, 73
2, 316052, Note_on_c, 0, 60, 0
2, 316061, Control_c, 0, 64, 25
2, 316061, Note_on_c, 0, 55, 0
2, 316077, Control_c, 0, 64, 57
2, 316100, Control_c, 0, 64, 71
2, 316119, Control_c, 0, 64, 97
2, 316137, Control_c, 0, 64, 127
2, 316137, Note_on_c, 0, 70, 0
2, 316227, Note_on_c, 0, 58, 76
2, 316242, Note_on_c, 0, 56, 0
2, 316276, Note_on_c, 0, 58, 0
2, 316289, Note_on_c, 0, 68, 0
2, 316541, Control_c, 0, 64, 85
2, 316541, Note_on_c, 0, 65, 0
2, 316559, Control_c, 0, 64, 62
2, 316572, Note_on_c, 0, 60, 88
2, 316577, Control_c, 0, 64, 43
2, 316582, Note_on_c, 0, 48, 81
2, 316590, Note_on_c, 0, 67, 62
2, 316597, Control_c, 0, 64, 0
2, 316809, Control_c, 0, 64, 25
2, 316826, Control_c, 0, 64, 50
2, 316847, Control_c, 0, 64, 63
2, 316865, Control_c, 0, 64, 70
2, 316884, Control_c, 0, 64, 89
2, 316906, Control_c, 0, 64, 127
2, 316938, Note_on_c, 0, 48, 0
2, 317020, Note_on_c, 0, 67, 0
2, 317051, Note_on_c, 0, 64, 64
2, 317480, Control_c, 0, 64, 66
2, 317500, Control_c, 0, 64, 37
2, 317500, Note_on_c, 0, 49, 86
2, 317517, Control_c, 0, 64, 0
2, 317523, Note_on_c, 0, 65, 65
2, 317528, Note_on_c, 0, 64, 0
2, 317617, Control_c, 0, 64, 22
2, 317637, Control_c, 0, 64, 47
2, 317655, Control_c, 0, 64, 60
2, 317675, Control_c, 0, 64, 65
2, 317683, Note_on_c, 0, 60, 0
2, 317695, Control_c, 0, 64, 68
2, 317718, Control_c, 0, 64, 75
2, 317718, Note_on_c, 0, 65, 0
2, 317734, Control_c, 0, 64, 85
2, 317738, Note_on_c, 0, 64, 62
2, 317752, Control_c, 0, 64, 106
2, 317770, Control_c, 0, 64, 127
2, 317951, Note_on_c, 0, 58, 66
2, 317968, Note_on_c, 0, 65, 61
2, 318005, Note_on_c, 0, 49, 0
2, 318107, Note_on_c, 0, 64, 0
2, 318137, Note_on_c, 0, 65, 0
2, 318157, Note_on_c, 0, 67, 63
2, 318367, Control_c, 0, 64, 113
2, 318383, Note_on_c, 0, 48, 81
2, 318387, Control_c, 0, 64, 71
2, 318391, Note_on_c, 0, 68, 71
2, 318405, Note_on_c, 0, 67, 0
2, 318409, Control_c, 0, 64, 53
2, 318409, Note_on_c, 0, 58, 0
2, 318426, Control_c, 0, 64, 36
2, 318444, Control_c, 0, 64, 0
2, 318584, Note_on_c, 0, 67, 57
2, 318827, Control_c, 0, 64, 54
2, 318827, Note_on_c, 0, 56, 60
2, 318831, Note_on_c, 0, 65, 55
2, 318840, Note_on_c, 0, 68, 0
2, 318842, Control_c, 0, 64, 65
2, 318842, Note_on_c, 0, 68, 9
2, 318862, Control_c, 0, 64, 72
2, 318882, Control_c, 0, 64, 87
2, 318900, Control_c, 0, 64, 127
2, 318971, Note_on_c, 0, 48, 0
2, 318982, Note_on_c, 0, 65, 0
2, 319020, Note_on_c, 0, 63, 56
2, 319105, Note_on_c, 0, 56, 0
2, 319162, Note_on_c, 0, 68, 0
2, 319221, Note_on_c, 0, 63, 0
2, 319254, Note_on_c, 0, 47, 77
2, 319259, Note_on_c, 0, 62, 63
2, 319278, Note_on_c, 0, 67, 0
2, 319288, Control_c, 0, 64, 75
2, 319304, Control_c, 0, 64, 60
2, 319321, Control_c, 0, 64, 43
2, 319342, Control_c, 0, 64, 0
2, 319471, Note_on_c, 0, 65, 56
2, 319687, Control_c, 0, 64, 15
2, 319704, Note_on_c, 0, 67, 60
2, 319708, Control_c, 0, 64, 53
2, 319713, Note_on_c, 0, 55, 65
2, 319727, Control_c, 0, 64, 62
2, 319745, Control_c, 0, 64, 66
2, 319765, Control_c, 0, 64, 72
2, 319785, Control_c, 0, 64, 84
2, 319803, Control_c, 0, 64, 116
2, 319823, Control_c, 0, 64, 127
2, 319884, Note_on_c, 0, 47, 0
2, 319886, Note_on_c, 0, 53, 72
2, 319935, Note_on_c, 0, 68, 66
2, 319965, Note_on_c, 0, 65, 0
2, 319969, Note_on_c, 0, 53, 0
2, 320018, Note_on_c, 0, 67, 0
2, 320085, Note_on_c, 0, 62, 0
2, 320144, Note_on_c, 0, 55, 0
2, 320147, Note_on_c, 0, 55, 24
2, 320151, Control_c, 0, 64, 97
2, 320151, Note_on_c, 0, 52, 86
2, 320168, Control_c, 0, 64, 67
2, 320172, Note_on_c, 0, 70, 76
2, 320189, Control_c, 0, 64, 54
2, 320208, Control_c, 0, 64, 46
2, 320226, Control_c, 0, 64, 42
2, 320243, Control_c, 0, 64, 41
2, 320257, Note_on_c, 0, 68, 0
2, 320283, Control_c, 0, 64, 40
2, 320335, Note_on_c, 0, 55, 0
2, 320344, Note_on_c, 0, 58, 78
2, 320380, Control_c, 0, 64, 39
2, 320399, Control_c, 0, 64, 38
2, 320418, Control_c, 0, 64, 36
2, 320455, Control_c, 0, 64, 35
2, 320532, Control_c, 0, 64, 34
2, 320553, Control_c, 0, 64, 33
2, 320571, Control_c, 0, 64, 32
2, 320580, Note_on_c, 0, 56, 74
2, 320580, Note_on_c, 0, 61, 66
2, 320593, Control_c, 0, 64, 30
2, 320610, Control_c, 0, 64, 29
2, 320621, Note_on_c, 0, 58, 0
2, 320746, Control_c, 0, 64, 28
2, 320746, Note_on_c, 0, 56, 0
2, 320787, Note_on_c, 0, 55, 75
2, 320974, Control_c, 0, 64, 27
2, 321003, Note_on_c, 0, 55, 0
2, 321039, Note_on_c, 0, 53, 93
2, 321135, Note_on_c, 0, 52, 0
2, 321149, Note_on_c, 0, 61, 0
2, 321244, Note_on_c, 0, 68, 81
2, 321248, Note_on_c, 0, 70, 0
2, 321318, Control_c, 0, 64, 26
2, 321339, Control_c, 0, 64, 25
2, 321395, Control_c, 0, 64, 29
2, 321415, Control_c, 0, 64, 38
2, 321435, Control_c, 0, 64, 52
2, 321455, Note_on_c, 0, 60, 73
2, 321459, Control_c, 0, 64, 61
2, 321459, Note_on_c, 0, 70, 76
2, 321463, Note_on_c, 0, 55, 66
2, 321473, Control_c, 0, 64, 66
2, 321492, Control_c, 0, 64, 73
2, 321515, Control_c, 0, 64, 94
2, 321532, Control_c, 0, 64, 127
2, 321532, Note_on_c, 0, 60, 0
2, 321615, Note_on_c, 0, 55, 0
2, 321626, Note_on_c, 0, 53, 0
2, 321633, Note_on_c, 0, 56, 78
2, 321647, Note_on_c, 0, 72, 79
2, 321652, Note_on_c, 0, 68, 0
2, 321690, Note_on_c, 0, 56, 0
2, 321690, Note_on_c, 0, 70, 0
2, 321897, Control_c, 0, 64, 80
2, 321911, Note_on_c, 0, 46, 79
2, 321911, Note_on_c, 0, 58, 83
2, 321917, Control_c, 0, 64, 59
2, 321917, Note_on_c, 0, 73, 81
2, 321935, Control_c, 0, 64, 32
2, 321950, Note_on_c, 0, 72, 0
2, 321955, Control_c, 0, 64, 0
2, 322099, Note_on_c, 0, 53, 75
2, 322123, Note_on_c, 0, 58, 0
2, 322318, Control_c, 0, 64, 31
2, 322322, Note_on_c, 0, 51, 83
2, 322335, Note_on_c, 0, 66, 77
2, 322339, Control_c, 0, 64, 56
2, 322360, Control_c, 0, 64, 67
2, 322366, Note_on_c, 0, 53, 0
2, 322379, Control_c, 0, 64, 83
2, 322395, Control_c, 0, 64, 127
2, 322453, Note_on_c, 0, 73, 0
2, 322510, Note_on_c, 0, 49, 66
2, 322529, Note_on_c, 0, 51, 0
2, 322578, Note_on_c, 0, 49, 0
2, 322589, Note_on_c, 0, 46, 0
2, 322768, Note_on_c, 0, 48, 80
2, 322781, Note_on_c, 0, 45, 76
2, 322799, Control_c, 0, 64, 83
2, 322811, Note_on_c, 0, 66, 0
2, 322819, Control_c, 0, 64, 61
2, 322839, Control_c, 0, 64, 43
2, 322855, Control_c, 0, 64, 13
2, 322876, Control_c, 0, 64, 0
2, 322975, Note_on_c, 0, 72, 82
2, 323209, Note_on_c, 0, 65, 74
2, 323213, Note_on_c, 0, 74, 82
2, 323222, Control_c, 0, 64, 40
2, 323240, Control_c, 0, 64, 64
2, 323256, Note_on_c, 0, 72, 0
2, 323260, Control_c, 0, 64, 79
2, 323280, Control_c, 0, 64, 127
2, 323327, Note_on_c, 0, 45, 0
2, 323425, Note_on_c, 0, 76, 84
2, 323465, Note_on_c, 0, 74, 0
2, 323478, Note_on_c, 0, 65, 0
2, 323656, Note_on_c, 0, 44, 87
2, 323662, Control_c, 0, 64, 70
2, 323669, Note_on_c, 0, 48, 0
2, 323672, Note_on_c, 0, 77, 88
2, 323682, Control_c, 0, 64, 46
2, 323699, Control_c, 0, 64, 0
2, 323710, Note_on_c, 0, 76, 0
2, 323891, Note_on_c, 0, 50, 68
2, 323896, Control_c, 0, 64, 62
2, 323907, Note_on_c, 0, 65, 63
2, 323911, Control_c, 0, 64, 77
2, 323931, Control_c, 0, 64, 99
2, 323951, Control_c, 0, 64, 127
2, 323991, Note_on_c, 0, 65, 0
2, 324096, Note_on_c, 0, 50, 0
2, 324120, Note_on_c, 0, 67, 71
2, 324124, Note_on_c, 0, 52, 72
2, 324318, Note_on_c, 0, 53, 73
2, 324330, Note_on_c, 0, 52, 0
2, 324338, Note_on_c, 0, 68, 77
2, 324341, Note_on_c, 0, 67, 0
2, 324365, Note_on_c, 0, 53, 0
2, 324372, Note_on_c, 0, 44, 0
2, 324610, Note_on_c, 0, 68, 0
2, 324635, Note_on_c, 0, 70, 68
2, 324642, Control_c, 0, 64, 86
2, 324642, Note_on_c, 0, 55, 82
2, 324646, Note_on_c, 0, 43, 80
2, 324658, Control_c, 0, 64, 64
2, 324678, Control_c, 0, 64, 50
2, 324698, Control_c, 0, 64, 37
2, 324715, Control_c, 0, 64, 24
2, 324734, Control_c, 0, 64, 0
2, 325111, Note_on_c, 0, 76, 79
2, 325115, Note_on_c, 0, 77, 0
2, 325369, Note_on_c, 0, 74, 82
2, 325433, Note_on_c, 0, 76, 0
2, 325663, Note_on_c, 0, 76, 88
2, 325911, Note_on_c, 0, 45, 76
2, 325964, Note_on_c, 0, 55, 0
2, 326118, Control_c, 0, 64, 17
2, 326136, Control_c, 0, 64, 30
2, 326158, Control_c, 0, 64, 44
2, 326176, Control_c, 0, 64, 57
2, 326195, Control_c, 0, 64, 64
2, 326202, Note_on_c, 0, 46, 83
2, 326214, Control_c, 0, 64, 66
2, 326235, Control_c, 0, 64, 68
2, 326252, Control_c, 0, 64, 70
2, 326272, Control_c, 0, 64, 72
2, 326272, Note_on_c, 0, 74, 0
2, 326277, Note_on_c, 0, 45, 0
2, 326291, Control_c, 0, 64, 73
2, 326309, Control_c, 0, 64, 74
2, 326349, Control_c, 0, 64, 75
2, 326367, Control_c, 0, 64, 78
2, 326388, Control_c, 0, 64, 84
2, 326406, Control_c, 0, 64, 93
2, 326425, Control_c, 0, 64, 103
2, 326444, Control_c, 0, 64, 111
2, 326461, Control_c, 0, 64, 116
2, 326479, Note_on_c, 0, 48, 83
2, 326483, Control_c, 0, 64, 127
2, 326496, Note_on_c, 0, 43, 0
2, 326696, Note_on_c, 0, 48, 0
2, 326891, Note_on_c, 0, 49, 87
2, 326898, Note_on_c, 0, 41, 82
2, 326898, Note_on_c, 0, 77, 86
2, 326905, Control_c, 0, 64, 79
2, 326923, Control_c, 0, 64, 59
2, 326934, Note_on_c, 0, 76, 0
2, 326944, Control_c, 0, 64, 42
2, 326944, Note_on_c, 0, 46, 0
2, 326963, Control_c, 0, 64, 25
2, 326982, Control_c, 0, 64, 0
2, 327276, Note_on_c, 0, 48, 78
2, 327289, Note_on_c, 0, 73, 72
2, 327298, Note_on_c, 0, 49, 0
2, 327324, Note_on_c, 0, 70, 0
2, 327560, Note_on_c, 0, 72, 71
2, 327560, Note_on_c, 0, 73, 0
2, 327561, Note_on_c, 0, 49, 71
2, 327579, Note_on_c, 0, 48, 0
2, 327767, Note_on_c, 0, 49, 0
2, 327771, Note_on_c, 0, 51, 72
2, 327780, Note_on_c, 0, 72, 0
2, 327786, Note_on_c, 0, 70, 71
2, 327964, Note_on_c, 0, 41, 0
2, 327974, Control_c, 0, 64, 37
2, 327994, Control_c, 0, 64, 54
2, 328003, Note_on_c, 0, 70, 0
2, 328014, Control_c, 0, 64, 65
2, 328014, Note_on_c, 0, 53, 79
2, 328019, Note_on_c, 0, 51, 0
2, 328019, Note_on_c, 0, 69, 68
2, 328036, Control_c, 0, 64, 69
2, 328051, Control_c, 0, 64, 76
2, 328070, Control_c, 0, 64, 82
2, 328090, Control_c, 0, 64, 88
2, 328109, Control_c, 0, 64, 94
2, 328127, Control_c, 0, 64, 101
2, 328145, Control_c, 0, 64, 103
2, 328202, Control_c, 0, 64, 104
2, 328223, Control_c, 0, 64, 106
2, 328242, Control_c, 0, 64, 109
2, 328260, Note_on_c, 0, 41, 87
2, 328264, Control_c, 0, 64, 116
2, 328273, Note_on_c, 0, 75, 81
2, 328281, Control_c, 0, 64, 127
2, 328396, Note_on_c, 0, 77, 0
2, 328508, Note_on_c, 0, 73, 82
2, 328513, Note_on_c, 0, 43, 81
2, 328572, Note_on_c, 0, 41, 0
2, 328615, Note_on_c, 0, 75, 0
2, 328727, Note_on_c, 0, 45, 76
2, 328727, Note_on_c, 0, 72, 87
2, 328736, Note_on_c, 0, 43, 0
2, 328736, Note_on_c, 0, 73, 0
2, 328789, Note_on_c, 0, 45, 0
2, 328796, Note_on_c, 0, 72, 0
2, 329008, Note_on_c, 0, 46, 84
2, 329019, Note_on_c, 0, 73, 85
2, 329030, Control_c, 0, 64, 96
2, 329039, Note_on_c, 0, 53, 0
2, 329050, Control_c, 0, 64, 64
2, 329073, Control_c, 0, 64, 42
2, 329086, Control_c, 0, 64, 0
2, 329126, Note_on_c, 0, 69, 0
2, 329294, Note_on_c, 0, 53, 67
2, 329303, Note_on_c, 0, 72, 72
2, 329518, Note_on_c, 0, 53, 0
2, 329534, Note_on_c, 0, 55, 71
2, 329543, Note_on_c, 0, 70, 73
2, 329743, Note_on_c, 0, 56, 74
2, 329756, Note_on_c, 0, 55, 0
2, 329765, Note_on_c, 0, 68, 73
2, 329797, Control_c, 0, 64, 35
2, 329819, Control_c, 0, 64, 56
2, 329837, Control_c, 0, 64, 64
2, 329837, Note_on_c, 0, 70, 0
2, 329856, Control_c, 0, 64, 67
2, 329874, Control_c, 0, 64, 72
2, 329894, Control_c, 0, 64, 80
2, 329912, Control_c, 0, 64, 106
2, 329921, Note_on_c, 0, 72, 0
2, 329936, Control_c, 0, 64, 127
2, 329947, Note_on_c, 0, 56, 0
2, 329967, Note_on_c, 0, 68, 0
2, 329985, Note_on_c, 0, 58, 75
2, 329985, Note_on_c, 0, 67, 71
2, 329989, Note_on_c, 0, 73, 0
2, 330020, Note_on_c, 0, 67, 0
2, 330218, Note_on_c, 0, 49, 82
2, 330228, Control_c, 0, 64, 69
2, 330228, Note_on_c, 0, 58, 0
2, 330228, Note_on_c, 0, 65, 75
2, 330228, Note_on_c, 0, 70, 86
2, 330238, Control_c, 0, 64, 54
2, 330251, Note_on_c, 0, 46, 0
2, 330258, Control_c, 0, 64, 30
2, 330278, Control_c, 0, 64, 0
2, 330477, Note_on_c, 0, 63, 81
2, 330480, Note_on_c, 0, 72, 79
2, 330484, Note_on_c, 0, 48, 73
2, 330497, Note_on_c, 0, 65, 0
2, 330497, Note_on_c, 0, 70, 0
2, 330532, Note_on_c, 0, 49, 0
2, 330607, Note_on_c, 0, 63, 0
2, 330699, Control_c, 0, 64, 51
2, 330726, Control_c, 0, 64, 66
2, 330734, Note_on_c, 0, 46, 76
2, 330739, Note_on_c, 0, 73, 88
2, 330743, Note_on_c, 0, 61, 84
2, 330748, Control_c, 0, 64, 82
2, 330752, Note_on_c, 0, 48, 0
2, 330763, Control_c, 0, 64, 127
2, 330794, Note_on_c, 0, 72, 0
2, 330862, Note_on_c, 0, 73, 0
2, 330884, Note_on_c, 0, 46, 0
2, 330897, Note_on_c, 0, 61, 0
2, 331040, Note_on_c, 0, 48, 78
2, 331040, Note_on_c, 0, 60, 76
2, 331040, Note_on_c, 0, 64, 80
2, 331111, Control_c, 0, 64, 87
2, 331129, Control_c, 0, 64, 70
2, 331147, Control_c, 0, 64, 62
2, 331167, Control_c, 0, 64, 56
2, 331187, Control_c, 0, 64, 51
2, 331205, Control_c, 0, 64, 42
2, 331224, Control_c, 0, 64, 31
2, 331244, Control_c, 0, 64, 18
2, 331266, Control_c, 0, 64, 0
2, 331314, Note_on_c, 0, 58, 82
2, 331642, Note_on_c, 0, 72, 84
2, 331651, Note_on_c, 0, 56, 76
2, 331662, Note_on_c, 0, 58, 0
2, 331683, Note_on_c, 0, 64, 0
2, 331907, Note_on_c, 0, 55, 73
2, 331917, Note_on_c, 0, 56, 0
2, 332172, Note_on_c, 0, 56, 76
2, 332184, Note_on_c, 0, 55, 0
2, 332423, Note_on_c, 0, 67, 75
2, 332437, Note_on_c, 0, 72, 0
2, 332735, Note_on_c, 0, 68, 75
2, 332742, Control_c, 0, 64, 21
2, 332760, Control_c, 0, 64, 39
2, 332779, Control_c, 0, 64, 50
2, 332800, Control_c, 0, 64, 58
2, 332821, Control_c, 0, 64, 62
2, 332821, Note_on_c, 0, 67, 0
2, 332837, Control_c, 0, 64, 66
2, 332856, Control_c, 0, 64, 76
2, 332876, Control_c, 0, 64, 109
2, 332896, Control_c, 0, 64, 127
2, 332953, Note_on_c, 0, 56, 0
2, 332996, Note_on_c, 0, 65, 69
2, 333024, Note_on_c, 0, 68, 0
2, 333178, Note_on_c, 0, 65, 0
2, 333265, Note_on_c, 0, 56, 59
2, 333317, Note_on_c, 0, 56, 0
2, 333367, Note_on_c, 0, 55, 53
2, 333414, Note_on_c, 0, 55, 0
2, 333436, Note_on_c, 0, 56, 55
2, 333491, Note_on_c, 0, 56, 0
2, 333527, Note_on_c, 0, 55, 64
2, 333586, Control_c, 0, 64, 109
2, 333604, Control_c, 0, 64, 87
2, 333626, Control_c, 0, 64, 75
2, 333648, Control_c, 0, 64, 67
2, 333648, Note_on_c, 0, 65, 60
2, 333664, Control_c, 0, 64, 60
2, 333682, Control_c, 0, 64, 53
2, 333701, Control_c, 0, 64, 46
2, 333721, Control_c, 0, 64, 38
2, 333741, Control_c, 0, 64, 30
2, 333758, Control_c, 0, 64, 21
2, 333778, Control_c, 0, 64, 12
2, 333798, Control_c, 0, 64, 0
2, 333980, Note_on_c, 0, 64, 61
2, 334007, Note_on_c, 0, 65, 0
2, 334330, Note_on_c, 0, 64, 0
2, 334343, Note_on_c, 0, 62, 52
2, 334565, Control_c, 0, 64, 11
2, 334584, Control_c, 0, 64, 25
2, 334603, Control_c, 0, 64, 34
2, 334622, Control_c, 0, 64, 42
2, 334642, Control_c, 0, 64, 49
2, 334660, Control_c, 0, 64, 53
2, 334680, Control_c, 0, 64, 56
2, 334700, Control_c, 0, 64, 57
2, 334718, Control_c, 0, 64, 58
2, 334758, Control_c, 0, 64, 59
2, 334769, Note_on_c, 0, 62, 0
2, 334775, Control_c, 0, 64, 60
2, 334789, Note_on_c, 0, 65, 42
2, 334814, Control_c, 0, 64, 61
2, 334914, Note_on_c, 0, 65, 0
2, 334957, Note_on_c, 0, 64, 49
2, 335064, Control_c, 0, 64, 60
2, 335107, Note_on_c, 0, 64, 0
2, 335123, Note_on_c, 0, 65, 51
2, 335266, Note_on_c, 0, 65, 0
2, 335280, Note_on_c, 0, 64, 59
2, 335463, Note_on_c, 0, 64, 0
2, 335472, Note_on_c, 0, 65, 54
2, 335488, Control_c, 0, 64, 59
2, 335652, Note_on_c, 0, 64, 66
2, 335696, Note_on_c, 0, 65, 0
2, 335795, Control_c, 0, 64, 58
2, 335911, Control_c, 0, 64, 57
2, 335931, Control_c, 0, 64, 55
2, 335935, Note_on_c, 0, 62, 62
2, 335949, Control_c, 0, 64, 53
2, 335969, Control_c, 0, 64, 50
2, 335987, Control_c, 0, 64, 46
2, 335999, Note_on_c, 0, 64, 0
2, 336004, Control_c, 0, 64, 40
2, 336024, Control_c, 0, 64, 32
2, 336044, Control_c, 0, 64, 13
2, 336066, Control_c, 0, 64, 0
2, 336352, Control_c, 0, 64, 13
2, 336369, Control_c, 0, 64, 19
2, 336389, Control_c, 0, 64, 27
2, 336408, Control_c, 0, 64, 37
2, 336430, Control_c, 0, 64, 50
2, 336445, Control_c, 0, 64, 60
2, 336465, Control_c, 0, 64, 64
2, 336488, Control_c, 0, 64, 68
2, 336488, Note_on_c, 0, 64, 58
2, 336506, Control_c, 0, 64, 75
2, 336522, Control_c, 0, 64, 93
2, 336541, Control_c, 0, 64, 127
2, 336560, Note_on_c, 0, 62, 0
2, 336597, Note_on_c, 0, 55, 0
2, 336615, Note_on_c, 0, 48, 0
2, 336646, Note_on_c, 0, 60, 0
2, 337155, Note_on_c, 0, 64, 0
2, 337554, Note_on_c, 0, 41, 43
2, 337635, Note_on_c, 0, 57, 48
2, 337712, Control_c, 0, 64, 85
2, 337725, Control_c, 0, 64, 68
2, 337725, Note_on_c, 0, 60, 54
2, 337740, Control_c, 0, 64, 57
2, 337760, Control_c, 0, 64, 46
2, 337778, Control_c, 0, 64, 39
2, 337798, Control_c, 0, 64, 33
2, 337807, Note_on_c, 0, 65, 55
2, 337817, Control_c, 0, 64, 25
2, 337835, Control_c, 0, 64, 0
2, 338100, Control_c, 0, 64, 23
2, 338119, Control_c, 0, 64, 31
2, 338141, Control_c, 0, 64, 36
2, 338161, Control_c, 0, 64, 39
2, 338175, Control_c, 0, 64, 41
2, 338195, Control_c, 0, 64, 45
2, 338218, Control_c, 0, 64, 48
2, 338234, Control_c, 0, 64, 51
2, 338253, Control_c, 0, 64, 54
2, 338272, Control_c, 0, 64, 55
2, 338292, Control_c, 0, 64, 56
2, 338312, Control_c, 0, 64, 57
2, 338330, Control_c, 0, 64, 59
2, 338349, Control_c, 0, 64, 60
2, 338368, Control_c, 0, 64, 62
2, 338389, Control_c, 0, 64, 64
2, 338427, Control_c, 0, 64, 65
2, 338445, Control_c, 0, 64, 68
2, 338464, Control_c, 0, 64, 75
2, 338486, Control_c, 0, 64, 83
2, 338506, Control_c, 0, 64, 90
2, 338522, Control_c, 0, 64, 94
2, 338542, Control_c, 0, 64, 99
2, 338562, Control_c, 0, 64, 108
2, 338580, Control_c, 0, 64, 127
2, 340621, Note_on_c, 0, 60, 0
2, 340630, Note_on_c, 0, 65, 0
2, 340694, Note_on_c, 0, 57, 0
2, 340856, Note_on_c, 0, 41, 0
2, 342309, Control_c, 0, 64, 120
2, 342328, Control_c, 0, 64, 116
2, 342348, Control_c, 0, 64, 115
2, 342386, Control_c, 0, 64, 113
2, 342425, Control_c, 0, 64, 112
2, 342444, Control_c, 0, 64, 110
2, 342463, Control_c, 0, 64, 109
2, 342484, Control_c, 0, 64, 106
2, 342502, Control_c, 0, 64, 104
2, 342578, Control_c, 0, 64, 103
2, 342616, Control_c, 0, 64, 102
2, 342638, Control_c, 0, 64, 100
2, 342658, Control_c, 0, 64, 97
2, 342673, Control_c, 0, 64, 94
2, 342693, Control_c, 0, 64, 92
2, 342707, Control_c, 0, 64, 90
2, 342723, Control_c, 0, 64, 88
2, 342743, Control_c, 0, 64, 86
2, 342763, Control_c, 0, 64, 83
2, 342785, Control_c, 0, 64, 81
2, 342803, Control_c, 0, 64, 79
2, 342878, Control_c, 0, 64, 78
2, 342898, Control_c, 0, 64, 77
2, 342919, Control_c, 0, 64, 76
2, 342936, Control_c, 0, 64, 74
2, 342968, Control_c, 0, 64, 73
2, 343064, Control_c, 0, 64, 72
2, 343083, Control_c, 0, 64, 71
2, 343122, Control_c, 0, 64, 70
2, 343142, Control_c, 0, 64, 69
2, 343167, Control_c, 0, 64, 68
2, 343204, Control_c, 0, 64, 67
2, 343241, Control_c, 0, 64, 66
2, 343261, Control_c, 0, 64, 65
2, 343298, Control_c, 0, 64, 64
2, 343397, Control_c, 0, 64, 63
2, 343491, Control_c, 0, 64, 62
2, 343549, Control_c, 0, 64, 61
2, 343609, Control_c, 0, 64, 60
2, 343627, Control_c, 0, 64, 59
2, 343684, Control_c, 0, 64, 58
2, 343702, Control_c, 0, 64, 57
2, 343722, Control_c, 0, 64, 56
2, 343740, Control_c, 0, 64, 55
2, 343760, Control_c, 0, 64, 54
2, 343817, Control_c, 0, 64, 53
2, 343837, Control_c, 0, 64, 52
2, 343838, End_track
0, 0, End_of_file
