0, 0, Header, 1, 2, 480
1, 0, Start_track
1, 0, Tempo, 500000
1, 0, Time_signature, 4, 2, 24, 8
1, 1, End_track
2, 0, Start_track
2, 0, Program_c, 0, 0
2, 0, Control_c, 0, 64, 106
2, 0, Control_c, 0, 67, 0
2, 412, Control_c, 0, 64, 105
2, 989, Control_c, 0, 64, 104
2, 1025, Control_c, 0, 64, 103
2, 1030, Note_on_c, 0, 56, 33
2, 1032, Note_on_c, 0, 65, 50
2, 1054, Note_on_c, 0, 53, 35
2, 1086, Control_c, 0, 64, 102
2, 1142, Control_c, 0, 64, 101
2, 1180, Control_c, 0, 64, 100
2, 1200, Control_c, 0, 64, 99
2, 1218, Control_c, 0, 64, 98
2, 1240, Control_c, 0, 64, 97
2, 1257, Control_c, 0, 64, 96
2, 1278, Control_c, 0, 64, 95
2, 1295, Control_c, 0, 64, 94
2, 1315, Control_c, 0, 64, 93
2, 1333, Control_c, 0, 64, 92
2, 1371, Control_c, 0, 64, 91
2, 1393, Control_c, 0, 64, 90
2, 1413, Control_c, 0, 64, 89
2, 1441, Note_on_c, 0, 68, 46
2, 1467, Control_c, 0, 64, 88
2, 1776, Control_c, 0, 64, 89
2, 1785, Note_on_c, 0, 72, 54
2, 1794, Control_c, 0, 64, 90
2, 1815, Control_c, 0, 64, 92
2, 1824, Note_on_c, 0, 68, 0
2, 1833, Control_c, 0, 64, 94
2, 1853, Control_c, 0, 64, 96
2, 1871, Control_c, 0, 64, 100
2, 1888, Control_c, 0, 64, 104
2, 1911, Control_c, 0, 64, 112
2, 1929, Control_c, 0, 64, 127
2, 2112, Note_on_c, 0, 65, 0
2, 2135, Note_on_c, 0, 77, 52
2, 2274, Control_c, 0, 67, 13
2, 2294, Control_c, 0, 67, 20
2, 2312, Control_c, 0, 67, 23
2, 2350, Note_on_c, 0, 77, 0
2, 2428, Control_c, 0, 67, 22
2, 2486, Control_c, 0, 67, 21
2, 2499, Note_on_c, 0, 67, 56
2, 2502, Note_on_c, 0, 72, 0
2, 2520, Note_on_c, 0, 58, 43
2, 2542, Note_on_c, 0, 56, 0
2, 2562, Control_c, 0, 67, 20
2, 2660, Control_c, 0, 64, 118
2, 2660, Control_c, 0, 67, 19
2, 2678, Control_c, 0, 64, 104
2, 2697, Control_c, 0, 64, 97
2, 2715, Control_c, 0, 64, 91
2, 2736, Control_c, 0, 64, 85
2, 2758, Control_c, 0, 64, 79
2, 2774, Control_c, 0, 64, 70
2, 2792, Control_c, 0, 64, 63
2, 2815, Control_c, 0, 64, 57
2, 2832, Control_c, 0, 64, 53
2, 2853, Control_c, 0, 64, 48
2, 2866, Note_on_c, 0, 77, 56
2, 2871, Control_c, 0, 64, 43
2, 2888, Control_c, 0, 64, 37
2, 2908, Control_c, 0, 64, 29
2, 2928, Control_c, 0, 64, 24
2, 2948, Control_c, 0, 64, 22
2, 3045, Control_c, 0, 64, 24
2, 3061, Control_c, 0, 64, 31
2, 3082, Control_c, 0, 64, 38
2, 3100, Control_c, 0, 64, 46
2, 3119, Control_c, 0, 64, 54
2, 3139, Control_c, 0, 64, 60
2, 3159, Control_c, 0, 64, 63
2, 3177, Control_c, 0, 64, 65
2, 3195, Control_c, 0, 64, 66
2, 3212, Note_on_c, 0, 76, 56
2, 3216, Control_c, 0, 64, 69
2, 3238, Control_c, 0, 64, 74
2, 3254, Control_c, 0, 64, 79
2, 3259, Note_on_c, 0, 77, 0
2, 3274, Control_c, 0, 64, 81
2, 3311, Control_c, 0, 64, 82
2, 3483, Control_c, 0, 64, 83
2, 3554, Note_on_c, 0, 67, 0
2, 3554, Note_on_c, 0, 79, 61
2, 3641, Note_on_c, 0, 76, 0
2, 3850, Control_c, 0, 64, 82
2, 3868, Control_c, 0, 64, 81
2, 3888, Control_c, 0, 64, 78
2, 3908, Control_c, 0, 64, 74
2, 3912, Note_on_c, 0, 68, 63
2, 3917, Note_on_c, 0, 79, 0
2, 3921, Note_on_c, 0, 58, 0
2, 3926, Control_c, 0, 64, 70
2, 3931, Note_on_c, 0, 60, 43
2, 3946, Control_c, 0, 64, 66
2, 3964, Control_c, 0, 64, 63
2, 3986, Control_c, 0, 64, 61
2, 4003, Control_c, 0, 64, 59
2, 4024, Control_c, 0, 64, 56
2, 4042, Control_c, 0, 64, 53
2, 4062, Control_c, 0, 64, 49
2, 4078, Control_c, 0, 64, 45
2, 4101, Control_c, 0, 64, 42
2, 4119, Control_c, 0, 64, 39
2, 4137, Control_c, 0, 64, 37
2, 4157, Control_c, 0, 64, 34
2, 4176, Control_c, 0, 64, 31
2, 4198, Control_c, 0, 64, 26
2, 4213, Control_c, 0, 64, 20
2, 4233, Control_c, 0, 64, 16
2, 4253, Control_c, 0, 64, 15
2, 4264, Note_on_c, 0, 72, 56
2, 4310, Control_c, 0, 64, 14
2, 4329, Control_c, 0, 64, 13
2, 4483, Control_c, 0, 64, 14
2, 4521, Control_c, 0, 64, 16
2, 4539, Control_c, 0, 64, 17
2, 4558, Control_c, 0, 64, 20
2, 4579, Control_c, 0, 64, 24
2, 4601, Control_c, 0, 64, 27
2, 4617, Control_c, 0, 64, 29
2, 4617, Note_on_c, 0, 77, 56
2, 4635, Control_c, 0, 64, 31
2, 4656, Control_c, 0, 64, 33
2, 4676, Control_c, 0, 64, 36
2, 4676, Note_on_c, 0, 72, 0
2, 4694, Control_c, 0, 64, 38
2, 4752, Control_c, 0, 64, 39
2, 4771, Control_c, 0, 64, 40
2, 4973, Note_on_c, 0, 76, 63
2, 4982, Control_c, 0, 64, 39
2, 5030, Note_on_c, 0, 77, 0
2, 5269, Control_c, 0, 64, 40
2, 5290, Control_c, 0, 64, 41
2, 5307, Control_c, 0, 64, 44
2, 5327, Control_c, 0, 64, 47
2, 5347, Control_c, 0, 64, 51
2, 5358, Note_on_c, 0, 56, 43
2, 5366, Note_on_c, 0, 60, 0
2, 5370, Control_c, 0, 64, 55
2, 5370, Note_on_c, 0, 77, 69
2, 5385, Control_c, 0, 64, 56
2, 5403, Control_c, 0, 64, 57
2, 5437, Note_on_c, 0, 76, 0
2, 5520, Control_c, 0, 64, 56
2, 5580, Control_c, 0, 64, 55
2, 5596, Control_c, 0, 64, 54
2, 5616, Control_c, 0, 64, 53
2, 5634, Control_c, 0, 64, 52
2, 5653, Control_c, 0, 64, 50
2, 5671, Control_c, 0, 64, 47
2, 5691, Control_c, 0, 64, 44
2, 5714, Control_c, 0, 64, 41
2, 5733, Control_c, 0, 64, 36
2, 5742, Note_on_c, 0, 72, 54
2, 5749, Control_c, 0, 64, 33
2, 5769, Control_c, 0, 64, 29
2, 5787, Control_c, 0, 64, 25
2, 5807, Control_c, 0, 64, 21
2, 5825, Control_c, 0, 64, 18
2, 5846, Control_c, 0, 64, 16
2, 5865, Control_c, 0, 64, 14
2, 5883, Control_c, 0, 64, 13
2, 5942, Control_c, 0, 64, 16
2, 5960, Control_c, 0, 64, 22
2, 5982, Control_c, 0, 64, 29
2, 6000, Control_c, 0, 64, 36
2, 6020, Control_c, 0, 64, 42
2, 6027, Note_on_c, 0, 68, 0
2, 6038, Control_c, 0, 64, 46
2, 6060, Control_c, 0, 64, 51
2, 6077, Control_c, 0, 64, 55
2, 6095, Control_c, 0, 64, 56
2, 6104, Note_on_c, 0, 70, 42
2, 6115, Control_c, 0, 64, 57
2, 6134, Control_c, 0, 64, 58
2, 6152, Control_c, 0, 64, 59
2, 6248, Control_c, 0, 64, 60
2, 6289, Control_c, 0, 67, 18
2, 6327, Note_on_c, 0, 72, 0
2, 6345, Control_c, 0, 64, 61
2, 6456, Note_on_c, 0, 68, 54
2, 6480, Note_on_c, 0, 70, 0
2, 6822, Note_on_c, 0, 73, 69
2, 6826, Control_c, 0, 64, 60
2, 6833, Note_on_c, 0, 56, 0
2, 6845, Note_on_c, 0, 58, 40
2, 6850, Note_on_c, 0, 77, 0
2, 6863, Control_c, 0, 64, 59
2, 6889, Note_on_c, 0, 68, 0
2, 6902, Control_c, 0, 64, 58
2, 6920, Control_c, 0, 64, 57
2, 6939, Control_c, 0, 64, 56
2, 6959, Control_c, 0, 64, 55
2, 6977, Control_c, 0, 64, 53
2, 6996, Control_c, 0, 64, 52
2, 7017, Control_c, 0, 64, 49
2, 7037, Control_c, 0, 64, 45
2, 7054, Control_c, 0, 64, 41
2, 7075, Control_c, 0, 64, 37
2, 7094, Control_c, 0, 64, 34
2, 7114, Control_c, 0, 64, 32
2, 7131, Control_c, 0, 64, 31
2, 7169, Control_c, 0, 64, 30
2, 7178, Note_on_c, 0, 68, 52
2, 7542, Note_on_c, 0, 67, 49
2, 7584, Note_on_c, 0, 68, 0
2, 7593, Control_c, 0, 67, 17
2, 7880, Control_c, 0, 64, 29
2, 7910, Note_on_c, 0, 70, 55
2, 7938, Note_on_c, 0, 67, 0
2, 8014, Control_c, 0, 64, 28
2, 8092, Control_c, 0, 64, 27
2, 8150, Control_c, 0, 64, 26
2, 8190, Control_c, 0, 64, 25
2, 8246, Control_c, 0, 64, 24
2, 8292, Note_on_c, 0, 64, 63
2, 8296, Note_on_c, 0, 55, 41
2, 8300, Note_on_c, 0, 58, 0
2, 8304, Control_c, 0, 64, 23
2, 8342, Control_c, 0, 64, 22
2, 8346, Note_on_c, 0, 73, 0
2, 8356, Note_on_c, 0, 70, 0
2, 8399, Control_c, 0, 64, 21
2, 8438, Control_c, 0, 64, 20
2, 8553, Control_c, 0, 64, 19
2, 8664, Note_on_c, 0, 73, 57
2, 8689, Control_c, 0, 64, 20
2, 8706, Control_c, 0, 64, 21
2, 8725, Control_c, 0, 64, 24
2, 8745, Control_c, 0, 64, 27
2, 8765, Control_c, 0, 64, 32
2, 8783, Control_c, 0, 64, 36
2, 8801, Control_c, 0, 64, 40
2, 8820, Control_c, 0, 64, 44
2, 8842, Control_c, 0, 64, 49
2, 8862, Control_c, 0, 64, 56
2, 8878, Control_c, 0, 64, 61
2, 8897, Control_c, 0, 64, 62
2, 8939, Control_c, 0, 64, 64
2, 8939, Control_c, 0, 67, 16
2, 8957, Control_c, 0, 64, 65
2, 8976, Control_c, 0, 64, 68
2, 8995, Control_c, 0, 64, 72
2, 9013, Control_c, 0, 64, 76
2, 9035, Control_c, 0, 64, 79
2, 9035, Note_on_c, 0, 72, 58
2, 9052, Control_c, 0, 64, 81
2, 9077, Note_on_c, 0, 53, 0
2, 9093, Control_c, 0, 64, 82
2, 9097, Note_on_c, 0, 73, 0
2, 9165, Note_on_c, 0, 55, 0
2, 9226, Control_c, 0, 64, 81
2, 9281, Control_c, 0, 64, 80
2, 9370, Note_on_c, 0, 64, 0
2, 9370, Note_on_c, 0, 70, 58
2, 9378, Control_c, 0, 64, 79
2, 9704, Control_c, 0, 64, 77
2, 9723, Control_c, 0, 64, 73
2, 9744, Control_c, 0, 64, 68
2, 9755, Note_on_c, 0, 53, 56
2, 9760, Note_on_c, 0, 70, 0
2, 9764, Control_c, 0, 64, 64
2, 9764, Note_on_c, 0, 65, 49
2, 9764, Note_on_c, 0, 68, 54
2, 9785, Control_c, 0, 64, 58
2, 9800, Control_c, 0, 64, 51
2, 9813, Note_on_c, 0, 72, 0
2, 9822, Control_c, 0, 64, 43
2, 9840, Control_c, 0, 64, 36
2, 9859, Control_c, 0, 64, 30
2, 9879, Control_c, 0, 64, 27
2, 9897, Control_c, 0, 64, 23
2, 9915, Control_c, 0, 64, 19
2, 9936, Control_c, 0, 64, 16
2, 9956, Control_c, 0, 64, 14
2, 9974, Control_c, 0, 64, 13
2, 10012, Control_c, 0, 64, 12
2, 10052, Control_c, 0, 64, 11
2, 10099, Note_on_c, 0, 56, 50
2, 10282, Control_c, 0, 64, 12
2, 10451, Note_on_c, 0, 56, 0
2, 10460, Note_on_c, 0, 60, 53
2, 10480, Note_on_c, 0, 65, 0
2, 10685, Control_c, 0, 64, 13
2, 10703, Control_c, 0, 64, 18
2, 10722, Control_c, 0, 64, 26
2, 10742, Control_c, 0, 64, 35
2, 10761, Control_c, 0, 64, 45
2, 10779, Control_c, 0, 64, 53
2, 10795, Note_on_c, 0, 60, 0
2, 10799, Control_c, 0, 64, 59
2, 10820, Control_c, 0, 64, 62
2, 10820, Note_on_c, 0, 65, 50
2, 10824, Note_on_c, 0, 70, 56
2, 10833, Note_on_c, 0, 68, 0
2, 10838, Control_c, 0, 64, 63
2, 10856, Control_c, 0, 64, 64
2, 10877, Control_c, 0, 64, 65
2, 10897, Control_c, 0, 64, 68
2, 10914, Control_c, 0, 64, 71
2, 10934, Control_c, 0, 64, 73
2, 10952, Control_c, 0, 64, 74
2, 11067, Control_c, 0, 64, 73
2, 11117, Note_on_c, 0, 65, 0
2, 11122, Note_on_c, 0, 53, 0
2, 11141, Note_on_c, 0, 55, 52
2, 11167, Control_c, 0, 64, 72
2, 11204, Control_c, 0, 64, 71
2, 11204, Note_on_c, 0, 70, 0
2, 11223, Control_c, 0, 64, 70
2, 11237, Note_on_c, 0, 72, 59
2, 11241, Control_c, 0, 64, 69
2, 11260, Control_c, 0, 64, 67
2, 11282, Control_c, 0, 64, 65
2, 11302, Control_c, 0, 64, 63
2, 11302, Note_on_c, 0, 72, 0
2, 11318, Control_c, 0, 64, 60
2, 11329, Note_on_c, 0, 70, 62
2, 11340, Control_c, 0, 64, 57
2, 11356, Control_c, 0, 64, 52
2, 11376, Control_c, 0, 64, 46
2, 11380, Note_on_c, 0, 70, 0
2, 11398, Control_c, 0, 64, 39
2, 11415, Control_c, 0, 64, 32
2, 11415, Note_on_c, 0, 72, 50
2, 11435, Control_c, 0, 64, 27
2, 11451, Control_c, 0, 64, 23
2, 11472, Control_c, 0, 64, 20
2, 11472, Note_on_c, 0, 72, 0
2, 11479, Note_on_c, 0, 70, 62
2, 11492, Control_c, 0, 64, 16
2, 11510, Control_c, 0, 64, 12
2, 11528, Control_c, 0, 64, 0
2, 11564, Note_on_c, 0, 65, 59
2, 11890, Note_on_c, 0, 64, 62
2, 11912, Note_on_c, 0, 65, 0
2, 12214, Note_on_c, 0, 64, 0
2, 12232, Note_on_c, 0, 68, 67
2, 12232, Note_on_c, 0, 70, 0
2, 12236, Note_on_c, 0, 67, 58
2, 12413, Note_on_c, 0, 68, 0
2, 12417, Note_on_c, 0, 70, 67
2, 12634, Note_on_c, 0, 56, 65
2, 12654, Note_on_c, 0, 72, 66
2, 12659, Note_on_c, 0, 70, 0
2, 12677, Note_on_c, 0, 67, 0
2, 12695, Note_on_c, 0, 55, 0
2, 12892, Control_c, 0, 67, 17
2, 12996, Note_on_c, 0, 68, 58
2, 13219, Control_c, 0, 67, 16
2, 13256, Control_c, 0, 67, 15
2, 13276, Control_c, 0, 67, 14
2, 13294, Control_c, 0, 67, 13
2, 13313, Control_c, 0, 67, 11
2, 13344, Note_on_c, 0, 64, 58
2, 13355, Control_c, 0, 67, 10
2, 13380, Note_on_c, 0, 68, 0
2, 13411, Control_c, 0, 67, 11
2, 13488, Control_c, 0, 67, 12
2, 13679, Note_on_c, 0, 64, 0
2, 13682, Control_c, 0, 67, 13
2, 13686, Note_on_c, 0, 65, 59
2, 14026, Note_on_c, 0, 72, 0
2, 14058, Note_on_c, 0, 58, 67
2, 14058, Note_on_c, 0, 61, 51
2, 14072, Note_on_c, 0, 65, 0
2, 14140, Control_c, 0, 67, 14
2, 14144, Note_on_c, 0, 56, 0
2, 14431, Note_on_c, 0, 73, 66
2, 14715, Control_c, 0, 64, 15
2, 14735, Control_c, 0, 64, 33
2, 14755, Control_c, 0, 64, 46
2, 14773, Control_c, 0, 64, 54
2, 14786, Note_on_c, 0, 67, 59
2, 14793, Control_c, 0, 64, 60
2, 14815, Control_c, 0, 64, 62
2, 14831, Control_c, 0, 64, 63
2, 14835, Note_on_c, 0, 73, 0
2, 14850, Control_c, 0, 64, 65
2, 14871, Control_c, 0, 64, 68
2, 14889, Control_c, 0, 64, 75
2, 14908, Control_c, 0, 64, 83
2, 14927, Control_c, 0, 64, 91
2, 14946, Control_c, 0, 64, 98
2, 14961, Note_on_c, 0, 58, 0
2, 14968, Control_c, 0, 64, 122
2, 14988, Control_c, 0, 64, 127
2, 15175, Note_on_c, 0, 67, 0
2, 15180, Note_on_c, 0, 70, 62
2, 15215, Note_on_c, 0, 61, 0
2, 15273, Note_on_c, 0, 70, 0
2, 15561, Control_c, 0, 64, 87
2, 15570, Note_on_c, 0, 48, 67
2, 15581, Note_on_c, 0, 60, 55
2, 15581, Note_on_c, 0, 64, 59
2, 15584, Control_c, 0, 64, 67
2, 15598, Control_c, 0, 64, 58
2, 15619, Control_c, 0, 64, 46
2, 15637, Control_c, 0, 64, 37
2, 15657, Control_c, 0, 64, 30
2, 15675, Control_c, 0, 64, 25
2, 15694, Control_c, 0, 64, 17
2, 15714, Control_c, 0, 64, 0
2, 15735, Control_c, 0, 67, 15
2, 15937, Note_on_c, 0, 52, 58
2, 16208, Note_on_c, 0, 60, 0
2, 16284, Note_on_c, 0, 52, 0
2, 16291, Control_c, 0, 67, 14
2, 16295, Note_on_c, 0, 55, 57
2, 16520, Control_c, 0, 64, 21
2, 16540, Control_c, 0, 64, 37
2, 16558, Control_c, 0, 64, 47
2, 16579, Control_c, 0, 64, 56
2, 16599, Control_c, 0, 64, 60
2, 16617, Control_c, 0, 64, 62
2, 16637, Control_c, 0, 64, 63
2, 16637, Note_on_c, 0, 55, 0
2, 16648, Note_on_c, 0, 60, 56
2, 16654, Control_c, 0, 64, 65
2, 16666, Note_on_c, 0, 64, 0
2, 16666, Note_on_c, 0, 65, 53
2, 16673, Control_c, 0, 64, 71
2, 16693, Control_c, 0, 64, 77
2, 16712, Control_c, 0, 64, 81
2, 16734, Control_c, 0, 64, 83
2, 16752, Control_c, 0, 64, 84
2, 16752, Note_on_c, 0, 60, 0
2, 16790, Control_c, 0, 64, 85
2, 16866, Control_c, 0, 64, 84
2, 16924, Control_c, 0, 64, 83
2, 16970, Note_on_c, 0, 49, 62
2, 16983, Control_c, 0, 64, 82
2, 16987, Note_on_c, 0, 48, 0
2, 17001, Control_c, 0, 64, 81
2, 17018, Control_c, 0, 64, 79
2, 17030, Note_on_c, 0, 65, 0
2, 17039, Control_c, 0, 64, 74
2, 17054, Note_on_c, 0, 67, 60
2, 17059, Control_c, 0, 64, 68
2, 17077, Control_c, 0, 64, 63
2, 17095, Control_c, 0, 64, 57
2, 17115, Control_c, 0, 64, 52
2, 17122, Note_on_c, 0, 67, 0
2, 17139, Control_c, 0, 64, 46
2, 17139, Note_on_c, 0, 65, 61
2, 17154, Control_c, 0, 64, 41
2, 17172, Control_c, 0, 64, 37
2, 17193, Control_c, 0, 64, 33
2, 17215, Control_c, 0, 64, 31
2, 17215, Note_on_c, 0, 65, 0
2, 17215, Note_on_c, 0, 67, 56
2, 17230, Control_c, 0, 64, 30
2, 17284, Note_on_c, 0, 65, 55
2, 17289, Control_c, 0, 64, 29
2, 17319, Note_on_c, 0, 67, 0
2, 17326, Control_c, 0, 64, 28
2, 17388, Note_on_c, 0, 60, 63
2, 17422, Control_c, 0, 64, 27
2, 17499, Control_c, 0, 64, 26
2, 17518, Control_c, 0, 64, 25
2, 17537, Control_c, 0, 64, 24
2, 17556, Control_c, 0, 64, 22
2, 17597, Control_c, 0, 64, 21
2, 17615, Control_c, 0, 64, 20
2, 17635, Control_c, 0, 64, 19
2, 17653, Control_c, 0, 64, 17
2, 17675, Control_c, 0, 64, 16
2, 17694, Control_c, 0, 64, 15
2, 17729, Note_on_c, 0, 58, 65
2, 17731, Control_c, 0, 64, 14
2, 17738, Note_on_c, 0, 60, 0
2, 17750, Control_c, 0, 64, 13
2, 17768, Control_c, 0, 64, 11
2, 17846, Control_c, 0, 64, 10
2, 17864, Control_c, 0, 64, 9
2, 17883, Control_c, 0, 64, 8
2, 17902, Control_c, 0, 64, 0
2, 18072, Note_on_c, 0, 65, 0
2, 18079, Note_on_c, 0, 64, 64
2, 18083, Note_on_c, 0, 58, 0
2, 18083, Note_on_c, 0, 61, 63
2, 18272, Note_on_c, 0, 64, 0
2, 18275, Note_on_c, 0, 65, 63
2, 18466, Note_on_c, 0, 65, 0
2, 18493, Note_on_c, 0, 52, 70
2, 18497, Note_on_c, 0, 67, 67
2, 18552, Note_on_c, 0, 61, 0
2, 18685, Note_on_c, 0, 49, 0
2, 18853, Note_on_c, 0, 72, 74
2, 19203, Note_on_c, 0, 70, 71
2, 19207, Note_on_c, 0, 55, 56
2, 19216, Note_on_c, 0, 72, 0
2, 19573, Note_on_c, 0, 73, 75
2, 19591, Note_on_c, 0, 67, 0
2, 19766, Control_c, 0, 67, 15
2, 19900, Control_c, 0, 64, 27
2, 19919, Control_c, 0, 64, 41
2, 19937, Control_c, 0, 64, 50
2, 19947, Note_on_c, 0, 64, 57
2, 19958, Control_c, 0, 64, 56
2, 19966, Note_on_c, 0, 60, 50
2, 19970, Note_on_c, 0, 52, 0
2, 19970, Note_on_c, 0, 70, 0
2, 19979, Control_c, 0, 64, 60
2, 19979, Note_on_c, 0, 73, 0
2, 19996, Control_c, 0, 64, 62
2, 20029, Note_on_c, 0, 55, 0
2, 20056, Control_c, 0, 64, 63
2, 20056, Control_c, 0, 67, 14
2, 20341, Control_c, 0, 64, 62
2, 20350, Note_on_c, 0, 73, 63
2, 20418, Control_c, 0, 64, 61
2, 20455, Control_c, 0, 64, 60
2, 20495, Control_c, 0, 64, 59
2, 20515, Control_c, 0, 64, 57
2, 20533, Control_c, 0, 64, 55
2, 20553, Control_c, 0, 64, 52
2, 20571, Control_c, 0, 64, 47
2, 20589, Control_c, 0, 64, 41
2, 20608, Control_c, 0, 64, 35
2, 20628, Control_c, 0, 64, 34
2, 20672, Control_c, 0, 64, 35
2, 20688, Control_c, 0, 64, 38
2, 20709, Control_c, 0, 64, 44
2, 20713, Control_c, 0, 67, 13
2, 20713, Note_on_c, 0, 48, 40
2, 20713, Note_on_c, 0, 72, 62
2, 20726, Control_c, 0, 64, 51
2, 20730, Control_c, 0, 67, 12
2, 20746, Control_c, 0, 64, 57
2, 20746, Note_on_c, 0, 73, 0
2, 20752, Control_c, 0, 67, 11
2, 20766, Control_c, 0, 64, 60
2, 20788, Control_c, 0, 64, 62
2, 20788, Control_c, 0, 67, 10
2, 20804, Control_c, 0, 64, 64
2, 20804, Control_c, 0, 67, 9
2, 20823, Control_c, 0, 64, 70
2, 20845, Control_c, 0, 64, 79
2, 20845, Control_c, 0, 67, 8
2, 20862, Control_c, 0, 64, 97
2, 20862, Control_c, 0, 67, 0
2, 20877, Control_c, 0, 64, 127
2, 20893, Note_on_c, 0, 60, 0
2, 21020, Note_on_c, 0, 48, 0
2, 21049, Note_on_c, 0, 64, 0
2, 21068, Note_on_c, 0, 70, 64
2, 21112, Note_on_c, 0, 72, 0
2, 21433, Note_on_c, 0, 41, 68
2, 21437, Control_c, 0, 64, 122
2, 21454, Control_c, 0, 64, 75
2, 21472, Control_c, 0, 64, 59
2, 21491, Control_c, 0, 64, 37
2, 21510, Note_on_c, 0, 70, 0
2, 21515, Note_on_c, 0, 69, 60
2, 21517, Control_c, 0, 64, 0
2, 21517, Note_on_c, 0, 63, 58
2, 21838, Control_c, 0, 64, 33
2, 21854, Note_on_c, 0, 45, 55
2, 21858, Control_c, 0, 64, 46
2, 21878, Control_c, 0, 64, 54
2, 21897, Control_c, 0, 64, 56
2, 21933, Control_c, 0, 64, 57
2, 21973, Control_c, 0, 64, 56
2, 22013, Control_c, 0, 64, 55
2, 22049, Control_c, 0, 64, 54
2, 22069, Control_c, 0, 64, 53
2, 22091, Control_c, 0, 64, 51
2, 22107, Control_c, 0, 64, 49
2, 22126, Control_c, 0, 64, 48
2, 22146, Control_c, 0, 64, 45
2, 22167, Control_c, 0, 64, 43
2, 22182, Control_c, 0, 64, 41
2, 22196, Note_on_c, 0, 45, 0
2, 22203, Control_c, 0, 64, 40
2, 22207, Note_on_c, 0, 48, 59
2, 22223, Control_c, 0, 64, 39
2, 22243, Control_c, 0, 64, 38
2, 22319, Control_c, 0, 64, 37
2, 22357, Control_c, 0, 64, 36
2, 22394, Control_c, 0, 64, 35
2, 22414, Control_c, 0, 64, 36
2, 22435, Control_c, 0, 64, 37
2, 22455, Control_c, 0, 64, 41
2, 22472, Control_c, 0, 64, 48
2, 22493, Control_c, 0, 64, 55
2, 22513, Control_c, 0, 64, 60
2, 22531, Control_c, 0, 64, 63
2, 22548, Control_c, 0, 64, 65
2, 22563, Note_on_c, 0, 53, 59
2, 22563, Note_on_c, 0, 70, 65
2, 22567, Control_c, 0, 64, 68
2, 22567, Note_on_c, 0, 48, 0
2, 22589, Note_on_c, 0, 69, 0
2, 22594, Control_c, 0, 64, 74
2, 22606, Control_c, 0, 64, 82
2, 22625, Note_on_c, 0, 63, 0
2, 22628, Control_c, 0, 64, 89
2, 22644, Control_c, 0, 64, 92
2, 22659, Note_on_c, 0, 70, 0
2, 22664, Control_c, 0, 64, 94
2, 22798, Control_c, 0, 64, 93
2, 22818, Note_on_c, 0, 53, 0
2, 22835, Note_on_c, 0, 41, 0
2, 22839, Note_on_c, 0, 42, 66
2, 22857, Control_c, 0, 64, 92
2, 22933, Control_c, 0, 64, 91
2, 22954, Note_on_c, 0, 61, 47
2, 22954, Note_on_c, 0, 72, 65
2, 22958, Control_c, 0, 64, 90
2, 22975, Control_c, 0, 64, 88
2, 22991, Control_c, 0, 64, 84
2, 23011, Control_c, 0, 64, 75
2, 23015, Note_on_c, 0, 72, 0
2, 23030, Control_c, 0, 64, 67
2, 23030, Note_on_c, 0, 70, 67
2, 23050, Control_c, 0, 64, 63
2, 23066, Control_c, 0, 64, 59
2, 23085, Control_c, 0, 64, 55
2, 23103, Note_on_c, 0, 72, 62
2, 23107, Control_c, 0, 64, 49
2, 23112, Note_on_c, 0, 70, 0
2, 23126, Control_c, 0, 64, 42
2, 23145, Control_c, 0, 64, 35
2, 23163, Control_c, 0, 64, 29
2, 23180, Note_on_c, 0, 70, 68
2, 23184, Control_c, 0, 64, 23
2, 23201, Control_c, 0, 64, 16
2, 23211, Note_on_c, 0, 72, 0
2, 23221, Control_c, 0, 64, 0
2, 23299, Note_on_c, 0, 53, 68
2, 23616, Note_on_c, 0, 51, 71
2, 23637, Note_on_c, 0, 53, 0
2, 23976, Note_on_c, 0, 51, 0
2, 23976, Note_on_c, 0, 69, 63
2, 23981, Note_on_c, 0, 54, 63
2, 24008, Note_on_c, 0, 70, 0
2, 24149, Note_on_c, 0, 70, 75
2, 24179, Note_on_c, 0, 69, 0
2, 24411, Note_on_c, 0, 72, 63
2, 24413, Note_on_c, 0, 45, 65
2, 24456, Note_on_c, 0, 70, 0
2, 24472, Note_on_c, 0, 54, 0
2, 24477, Note_on_c, 0, 42, 0
2, 24565, Note_on_c, 0, 61, 0
2, 24762, Note_on_c, 0, 65, 56
2, 25123, Note_on_c, 0, 65, 0
2, 25127, Note_on_c, 0, 63, 56
2, 25136, Note_on_c, 0, 48, 49
2, 25468, Control_c, 0, 64, 33
2, 25486, Control_c, 0, 64, 49
2, 25508, Control_c, 0, 64, 58
2, 25508, Note_on_c, 0, 66, 58
2, 25524, Control_c, 0, 64, 62
2, 25542, Note_on_c, 0, 45, 0
2, 25544, Control_c, 0, 64, 63
2, 25563, Control_c, 0, 64, 65
2, 25582, Control_c, 0, 64, 67
2, 25586, Note_on_c, 0, 63, 0
2, 25601, Control_c, 0, 64, 72
2, 25624, Control_c, 0, 64, 78
2, 25640, Control_c, 0, 64, 83
2, 25659, Control_c, 0, 64, 86
2, 25677, Control_c, 0, 64, 88
2, 25697, Control_c, 0, 64, 91
2, 25717, Control_c, 0, 64, 93
2, 25737, Control_c, 0, 64, 94
2, 25756, Control_c, 0, 64, 95
2, 25816, Control_c, 0, 64, 94
2, 25852, Control_c, 0, 64, 93
2, 25858, Note_on_c, 0, 66, 0
2, 25869, Note_on_c, 0, 48, 0
2, 25874, Control_c, 0, 64, 91
2, 25879, Note_on_c, 0, 45, 48
2, 25890, Control_c, 0, 64, 90
2, 25910, Control_c, 0, 64, 89
2, 25928, Control_c, 0, 64, 87
2, 25951, Control_c, 0, 64, 85
2, 25966, Control_c, 0, 64, 83
2, 25985, Control_c, 0, 64, 81
2, 26008, Control_c, 0, 64, 79
2, 26025, Control_c, 0, 64, 78
2, 26043, Control_c, 0, 64, 77
2, 26083, Control_c, 0, 64, 76
2, 26101, Control_c, 0, 64, 75
2, 26118, Control_c, 0, 64, 74
2, 26139, Control_c, 0, 64, 73
2, 26161, Control_c, 0, 64, 72
2, 26177, Control_c, 0, 64, 70
2, 26197, Control_c, 0, 64, 67
2, 26214, Control_c, 0, 64, 64
2, 26234, Control_c, 0, 64, 63
2, 26240, Note_on_c, 0, 66, 51
2, 26254, Control_c, 0, 64, 61
2, 26272, Control_c, 0, 64, 57
2, 26295, Control_c, 0, 64, 50
2, 26313, Control_c, 0, 64, 41
2, 26333, Control_c, 0, 64, 34
2, 26352, Control_c, 0, 64, 30
2, 26370, Control_c, 0, 64, 25
2, 26390, Control_c, 0, 64, 16
2, 26407, Control_c, 0, 64, 0
2, 26592, Note_on_c, 0, 41, 40
2, 26601, Note_on_c, 0, 66, 0
2, 26607, Note_on_c, 0, 65, 51
2, 26971, Note_on_c, 0, 63, 58
2, 26975, Note_on_c, 0, 65, 0
2, 27307, Note_on_c, 0, 72, 0
2, 27320, Note_on_c, 0, 63, 0
2, 27331, Note_on_c, 0, 61, 57
2, 27355, Note_on_c, 0, 46, 49
2, 27363, Note_on_c, 0, 45, 0
2, 27445, Note_on_c, 0, 41, 0
2, 27680, Note_on_c, 0, 72, 73
2, 28043, Note_on_c, 0, 70, 73
2, 28085, Note_on_c, 0, 72, 0
2, 28414, Note_on_c, 0, 73, 75
2, 28466, Note_on_c, 0, 70, 0
2, 28772, Note_on_c, 0, 67, 67
2, 28790, Control_c, 0, 64, 26
2, 28810, Note_on_c, 0, 73, 0
2, 28814, Control_c, 0, 64, 44
2, 28827, Control_c, 0, 64, 54
2, 28845, Control_c, 0, 64, 60
2, 28866, Control_c, 0, 64, 62
2, 28885, Control_c, 0, 64, 63
2, 28888, Note_on_c, 0, 46, 0
2, 28905, Control_c, 0, 64, 65
2, 28923, Control_c, 0, 64, 68
2, 28941, Control_c, 0, 64, 76
2, 28962, Control_c, 0, 64, 85
2, 28981, Control_c, 0, 64, 91
2, 29004, Control_c, 0, 64, 92
2, 29019, Control_c, 0, 64, 94
2, 29037, Control_c, 0, 64, 95
2, 29058, Control_c, 0, 64, 96
2, 29078, Control_c, 0, 64, 97
2, 29102, Note_on_c, 0, 46, 62
2, 29126, Note_on_c, 0, 67, 0
2, 29288, Control_c, 0, 64, 95
2, 29307, Control_c, 0, 64, 94
2, 29325, Control_c, 0, 64, 93
2, 29366, Control_c, 0, 64, 92
2, 29404, Control_c, 0, 64, 91
2, 29444, Control_c, 0, 64, 89
2, 29460, Note_on_c, 0, 48, 57
2, 29464, Control_c, 0, 64, 83
2, 29464, Note_on_c, 0, 70, 62
2, 29481, Control_c, 0, 64, 74
2, 29499, Control_c, 0, 64, 67
2, 29508, Note_on_c, 0, 46, 0
2, 29519, Control_c, 0, 64, 62
2, 29523, Note_on_c, 0, 70, 0
2, 29537, Control_c, 0, 64, 57
2, 29552, Note_on_c, 0, 68, 71
2, 29556, Control_c, 0, 64, 54
2, 29576, Control_c, 0, 64, 50
2, 29597, Control_c, 0, 64, 47
2, 29608, Note_on_c, 0, 68, 0
2, 29614, Control_c, 0, 64, 43
2, 29633, Control_c, 0, 64, 40
2, 29633, Note_on_c, 0, 70, 55
2, 29652, Control_c, 0, 64, 37
2, 29675, Control_c, 0, 64, 35
2, 29691, Control_c, 0, 64, 32
2, 29696, Note_on_c, 0, 68, 64
2, 29708, Note_on_c, 0, 70, 0
2, 29712, Control_c, 0, 64, 30
2, 29730, Control_c, 0, 64, 28
2, 29748, Control_c, 0, 64, 26
2, 29770, Control_c, 0, 64, 25
2, 29807, Control_c, 0, 64, 24
2, 29826, Control_c, 0, 64, 23
2, 29846, Control_c, 0, 64, 22
2, 29864, Control_c, 0, 64, 21
2, 29884, Control_c, 0, 64, 20
2, 29900, Note_on_c, 0, 49, 55
2, 29906, Note_on_c, 0, 48, 0
2, 30248, Control_c, 0, 64, 19
2, 30328, Note_on_c, 0, 70, 53
2, 30337, Note_on_c, 0, 43, 41
2, 30337, Note_on_c, 0, 68, 0
2, 30403, Control_c, 0, 64, 18
2, 30403, Note_on_c, 0, 49, 0
2, 30423, Control_c, 0, 64, 17
2, 30479, Control_c, 0, 64, 16
2, 30594, Control_c, 0, 64, 15
2, 30638, Note_on_c, 0, 61, 0
2, 30714, Note_on_c, 0, 60, 49
2, 30748, Control_c, 0, 64, 14
2, 30824, Control_c, 0, 64, 13
2, 30957, Control_c, 0, 64, 12
2, 30995, Control_c, 0, 64, 11
2, 31055, Note_on_c, 0, 61, 48
2, 31068, Note_on_c, 0, 46, 44
2, 31088, Note_on_c, 0, 60, 0
2, 31131, Control_c, 0, 64, 10
2, 31160, Note_on_c, 0, 43, 0
2, 31173, Control_c, 0, 64, 9
2, 31227, Control_c, 0, 64, 8
2, 31283, Control_c, 0, 64, 0
2, 31343, Control_c, 0, 64, 8
2, 31362, Control_c, 0, 64, 13
2, 31381, Control_c, 0, 64, 19
2, 31399, Control_c, 0, 64, 24
2, 31413, Note_on_c, 0, 65, 51
2, 31422, Control_c, 0, 64, 30
2, 31432, Note_on_c, 0, 61, 0
2, 31440, Control_c, 0, 64, 36
2, 31456, Control_c, 0, 64, 41
2, 31476, Control_c, 0, 64, 44
2, 31535, Control_c, 0, 64, 45
2, 31574, Control_c, 0, 64, 46
2, 31670, Control_c, 0, 64, 47
2, 31687, Control_c, 0, 64, 48
2, 31709, Control_c, 0, 64, 50
2, 31725, Control_c, 0, 64, 53
2, 31734, Note_on_c, 0, 65, 0
2, 31747, Control_c, 0, 64, 55
2, 31747, Note_on_c, 0, 51, 49
2, 31756, Note_on_c, 0, 46, 0
2, 31760, Note_on_c, 0, 55, 38
2, 31765, Control_c, 0, 64, 58
2, 31785, Control_c, 0, 64, 60
2, 31805, Control_c, 0, 64, 61
2, 31821, Control_c, 0, 64, 63
2, 31841, Control_c, 0, 64, 64
2, 31862, Control_c, 0, 64, 65
2, 31879, Control_c, 0, 64, 66
2, 31899, Control_c, 0, 64, 68
2, 31918, Control_c, 0, 64, 72
2, 31936, Control_c, 0, 64, 76
2, 31957, Control_c, 0, 64, 80
2, 31976, Control_c, 0, 64, 83
2, 31983, Note_on_c, 0, 55, 0
2, 31997, Control_c, 0, 64, 85
2, 32014, Control_c, 0, 64, 86
2, 32035, Control_c, 0, 64, 87
2, 32048, Note_on_c, 0, 51, 0
2, 32111, Note_on_c, 0, 65, 48
2, 32378, Control_c, 0, 64, 82
2, 32400, Control_c, 0, 64, 70
2, 32418, Control_c, 0, 64, 60
2, 32435, Control_c, 0, 64, 45
2, 32456, Note_on_c, 0, 39, 42
2, 32460, Control_c, 0, 64, 33
2, 32479, Note_on_c, 0, 63, 47
2, 32486, Note_on_c, 0, 65, 0
2, 32495, Control_c, 0, 64, 37
2, 32515, Control_c, 0, 64, 46
2, 32532, Control_c, 0, 64, 54
2, 32552, Control_c, 0, 64, 60
2, 32571, Control_c, 0, 64, 63
2, 32589, Control_c, 0, 64, 65
2, 32609, Control_c, 0, 64, 68
2, 32627, Control_c, 0, 64, 77
2, 32632, Note_on_c, 0, 39, 0
2, 32649, Control_c, 0, 64, 95
2, 32666, Control_c, 0, 64, 120
2, 32686, Control_c, 0, 64, 127
2, 32811, Note_on_c, 0, 63, 0
2, 32851, Note_on_c, 0, 61, 47
2, 33148, Note_on_c, 0, 61, 0
2, 33185, Control_c, 0, 64, 111
2, 33205, Control_c, 0, 64, 86
2, 33214, Note_on_c, 0, 44, 42
2, 33223, Note_on_c, 0, 60, 47
2, 33227, Control_c, 0, 64, 72
2, 33246, Control_c, 0, 64, 64
2, 33262, Control_c, 0, 64, 58
2, 33282, Control_c, 0, 64, 54
2, 33301, Control_c, 0, 64, 50
2, 33319, Control_c, 0, 64, 46
2, 33341, Control_c, 0, 64, 43
2, 33360, Control_c, 0, 64, 41
2, 33395, Control_c, 0, 64, 40
2, 33435, Control_c, 0, 64, 39
2, 33455, Control_c, 0, 64, 38
2, 33473, Control_c, 0, 64, 37
2, 33490, Note_on_c, 0, 70, 0
2, 33552, Note_on_c, 0, 48, 42
2, 33580, Note_on_c, 0, 68, 47
2, 33588, Control_c, 0, 64, 36
2, 33820, Control_c, 0, 64, 35
2, 33914, Note_on_c, 0, 48, 0
2, 33949, Note_on_c, 0, 51, 48
2, 33955, Note_on_c, 0, 72, 53
2, 34026, Note_on_c, 0, 68, 0
2, 34106, Control_c, 0, 64, 36
2, 34128, Control_c, 0, 64, 37
2, 34148, Control_c, 0, 64, 40
2, 34167, Control_c, 0, 64, 46
2, 34186, Control_c, 0, 64, 52
2, 34204, Control_c, 0, 64, 57
2, 34222, Control_c, 0, 64, 59
2, 34242, Control_c, 0, 64, 61
2, 34262, Note_on_c, 0, 51, 0
2, 34267, Control_c, 0, 64, 64
2, 34267, Note_on_c, 0, 60, 0
2, 34280, Control_c, 0, 64, 68
2, 34299, Control_c, 0, 64, 76
2, 34309, Note_on_c, 0, 56, 47
2, 34318, Control_c, 0, 64, 83
2, 34338, Control_c, 0, 64, 89
2, 34357, Control_c, 0, 64, 92
2, 34375, Control_c, 0, 64, 95
2, 34395, Control_c, 0, 64, 99
2, 34413, Control_c, 0, 64, 104
2, 34432, Control_c, 0, 64, 109
2, 34455, Control_c, 0, 64, 110
2, 34489, Control_c, 0, 64, 111
2, 34510, Control_c, 0, 64, 113
2, 34532, Control_c, 0, 64, 116
2, 34549, Control_c, 0, 64, 122
2, 34567, Control_c, 0, 64, 127
2, 34626, Control_c, 0, 64, 110
2, 34646, Control_c, 0, 64, 93
2, 34656, Note_on_c, 0, 56, 0
2, 34667, Control_c, 0, 64, 76
2, 34667, Note_on_c, 0, 46, 60
2, 34674, Note_on_c, 0, 44, 0
2, 34686, Control_c, 0, 64, 66
2, 34686, Note_on_c, 0, 61, 50
2, 34703, Control_c, 0, 64, 60
2, 34721, Control_c, 0, 64, 55
2, 34741, Control_c, 0, 64, 52
2, 34763, Control_c, 0, 64, 49
2, 34778, Control_c, 0, 64, 46
2, 34797, Control_c, 0, 64, 44
2, 34817, Control_c, 0, 64, 43
2, 34837, Control_c, 0, 64, 42
2, 34855, Control_c, 0, 64, 41
2, 34875, Control_c, 0, 64, 39
2, 34897, Control_c, 0, 64, 38
2, 34913, Control_c, 0, 64, 37
2, 34980, Note_on_c, 0, 72, 0
2, 34990, Control_c, 0, 64, 36
2, 35012, Note_on_c, 0, 70, 57
2, 35021, Note_on_c, 0, 56, 52
2, 35087, Control_c, 0, 64, 35
2, 35316, Control_c, 0, 64, 34
2, 35349, Note_on_c, 0, 56, 0
2, 35371, Note_on_c, 0, 55, 52
2, 35380, Note_on_c, 0, 73, 61
2, 35417, Note_on_c, 0, 70, 0
2, 35508, Control_c, 0, 64, 33
2, 35605, Control_c, 0, 64, 37
2, 35625, Control_c, 0, 64, 44
2, 35625, Note_on_c, 0, 61, 0
2, 35644, Control_c, 0, 64, 53
2, 35662, Control_c, 0, 64, 59
2, 35681, Control_c, 0, 64, 63
2, 35703, Control_c, 0, 64, 65
2, 35703, Note_on_c, 0, 46, 0
2, 35717, Note_on_c, 0, 55, 0
2, 35721, Control_c, 0, 64, 67
2, 35726, Note_on_c, 0, 58, 54
2, 35739, Control_c, 0, 64, 75
2, 35758, Control_c, 0, 64, 89
2, 35777, Control_c, 0, 64, 127
2, 36035, Note_on_c, 0, 58, 0
2, 36085, Note_on_c, 0, 63, 61
2, 36089, Control_c, 0, 64, 104
2, 36089, Note_on_c, 0, 48, 60
2, 36103, Control_c, 0, 64, 77
2, 36123, Control_c, 0, 64, 64
2, 36143, Control_c, 0, 64, 56
2, 36161, Control_c, 0, 64, 50
2, 36183, Control_c, 0, 64, 46
2, 36202, Control_c, 0, 64, 43
2, 36220, Control_c, 0, 64, 40
2, 36238, Control_c, 0, 64, 37
2, 36257, Control_c, 0, 64, 35
2, 36297, Control_c, 0, 64, 34
2, 36315, Control_c, 0, 64, 33
2, 36335, Control_c, 0, 64, 31
2, 36354, Control_c, 0, 64, 30
2, 36418, Note_on_c, 0, 73, 0
2, 36439, Note_on_c, 0, 72, 65
2, 36445, Note_on_c, 0, 51, 56
2, 36507, Control_c, 0, 64, 29
2, 36525, Control_c, 0, 64, 28
2, 36547, Control_c, 0, 64, 27
2, 36641, Control_c, 0, 64, 25
2, 36660, Control_c, 0, 64, 23
2, 36678, Control_c, 0, 64, 22
2, 36701, Control_c, 0, 64, 20
2, 36717, Control_c, 0, 64, 18
2, 36739, Control_c, 0, 64, 16
2, 36756, Control_c, 0, 64, 11
2, 36776, Control_c, 0, 64, 8
2, 36806, Note_on_c, 0, 56, 56
2, 36815, Note_on_c, 0, 51, 0
2, 36833, Control_c, 0, 64, 0
2, 36833, Note_on_c, 0, 75, 69
2, 36899, Note_on_c, 0, 72, 0
2, 36988, Control_c, 0, 64, 13
2, 37006, Control_c, 0, 64, 28
2, 37026, Control_c, 0, 64, 42
2, 37044, Control_c, 0, 64, 53
2, 37064, Control_c, 0, 64, 61
2, 37083, Control_c, 0, 64, 64
2, 37102, Control_c, 0, 64, 66
2, 37121, Control_c, 0, 64, 71
2, 37141, Control_c, 0, 64, 79
2, 37141, Note_on_c, 0, 56, 0
2, 37162, Control_c, 0, 64, 91
2, 37166, Note_on_c, 0, 60, 60
2, 37166, Note_on_c, 0, 63, 0
2, 37179, Control_c, 0, 64, 109
2, 37202, Control_c, 0, 64, 127
2, 37241, Note_on_c, 0, 60, 0
2, 37505, Control_c, 0, 64, 97
2, 37527, Control_c, 0, 64, 76
2, 37530, Note_on_c, 0, 49, 65
2, 37530, Note_on_c, 0, 65, 65
2, 37538, Note_on_c, 0, 48, 0
2, 37545, Control_c, 0, 64, 65
2, 37563, Control_c, 0, 64, 59
2, 37583, Control_c, 0, 64, 56
2, 37602, Control_c, 0, 64, 53
2, 37620, Control_c, 0, 64, 50
2, 37642, Control_c, 0, 64, 48
2, 37659, Control_c, 0, 64, 47
2, 37679, Control_c, 0, 64, 46
2, 37754, Control_c, 0, 64, 45
2, 37775, Control_c, 0, 64, 44
2, 37890, Note_on_c, 0, 75, 0
2, 37895, Note_on_c, 0, 73, 74
2, 37904, Note_on_c, 0, 60, 61
2, 38119, Control_c, 0, 64, 43
2, 38273, Note_on_c, 0, 58, 64
2, 38277, Note_on_c, 0, 77, 79
2, 38281, Note_on_c, 0, 60, 0
2, 38312, Control_c, 0, 64, 42
2, 38426, Control_c, 0, 64, 43
2, 38445, Control_c, 0, 64, 45
2, 38468, Control_c, 0, 64, 47
2, 38485, Control_c, 0, 64, 52
2, 38503, Control_c, 0, 64, 57
2, 38524, Control_c, 0, 64, 61
2, 38544, Control_c, 0, 64, 63
2, 38560, Control_c, 0, 64, 67
2, 38580, Control_c, 0, 64, 72
2, 38602, Control_c, 0, 64, 84
2, 38602, Note_on_c, 0, 49, 0
2, 38606, Note_on_c, 0, 65, 0
2, 38621, Control_c, 0, 64, 106
2, 38627, Note_on_c, 0, 61, 59
2, 38641, Control_c, 0, 64, 127
2, 38658, Note_on_c, 0, 58, 0
2, 38811, Note_on_c, 0, 73, 0
2, 39003, Control_c, 0, 64, 94
2, 39014, Note_on_c, 0, 51, 75
2, 39019, Note_on_c, 0, 67, 62
2, 39022, Control_c, 0, 64, 74
2, 39043, Control_c, 0, 64, 65
2, 39054, Note_on_c, 0, 61, 0
2, 39062, Control_c, 0, 64, 60
2, 39082, Control_c, 0, 64, 57
2, 39098, Control_c, 0, 64, 54
2, 39119, Control_c, 0, 64, 50
2, 39137, Control_c, 0, 64, 47
2, 39155, Control_c, 0, 64, 45
2, 39233, Control_c, 0, 64, 44
2, 39252, Control_c, 0, 64, 43
2, 39290, Control_c, 0, 64, 42
2, 39394, Note_on_c, 0, 75, 69
2, 39403, Note_on_c, 0, 55, 63
2, 39709, Note_on_c, 0, 77, 0
2, 39733, Control_c, 0, 64, 43
2, 39742, Note_on_c, 0, 73, 74
2, 39746, Note_on_c, 0, 58, 73
2, 39750, Control_c, 0, 64, 45
2, 39771, Control_c, 0, 64, 46
2, 39789, Control_c, 0, 64, 47
2, 39812, Control_c, 0, 64, 48
2, 39812, Note_on_c, 0, 75, 0
2, 39831, Control_c, 0, 64, 51
2, 39847, Control_c, 0, 64, 54
2, 39926, Control_c, 0, 64, 55
2, 39942, Control_c, 0, 64, 58
2, 39963, Control_c, 0, 64, 59
2, 39983, Control_c, 0, 64, 60
2, 40001, Control_c, 0, 64, 61
2, 40019, Control_c, 0, 64, 63
2, 40040, Control_c, 0, 64, 65
2, 40060, Control_c, 0, 64, 68
2, 40079, Control_c, 0, 64, 73
2, 40083, Note_on_c, 0, 51, 0
2, 40083, Note_on_c, 0, 55, 0
2, 40090, Note_on_c, 0, 72, 77
2, 40099, Control_c, 0, 64, 79
2, 40104, Note_on_c, 0, 63, 71
2, 40119, Control_c, 0, 64, 86
2, 40119, Note_on_c, 0, 73, 0
2, 40135, Control_c, 0, 64, 92
2, 40149, Note_on_c, 0, 58, 0
2, 40156, Control_c, 0, 64, 97
2, 40173, Control_c, 0, 64, 101
2, 40192, Control_c, 0, 64, 105
2, 40214, Control_c, 0, 64, 111
2, 40232, Control_c, 0, 64, 118
2, 40252, Control_c, 0, 64, 127
2, 40445, Control_c, 0, 64, 110
2, 40463, Control_c, 0, 64, 84
2, 40463, Note_on_c, 0, 53, 79
2, 40482, Control_c, 0, 64, 70
2, 40482, Note_on_c, 0, 70, 74
2, 40493, Note_on_c, 0, 63, 0
2, 40502, Control_c, 0, 64, 62
2, 40506, Note_on_c, 0, 72, 0
2, 40511, Note_on_c, 0, 67, 0
2, 40519, Control_c, 0, 64, 58
2, 40539, Control_c, 0, 64, 56
2, 40558, Control_c, 0, 64, 53
2, 40579, Control_c, 0, 64, 49
2, 40597, Control_c, 0, 64, 46
2, 40614, Control_c, 0, 64, 44
2, 40634, Control_c, 0, 64, 43
2, 40693, Control_c, 0, 64, 42
2, 40816, Note_on_c, 0, 67, 72
2, 40820, Note_on_c, 0, 63, 71
2, 40837, Note_on_c, 0, 70, 0
2, 41054, Control_c, 0, 64, 41
2, 41091, Control_c, 0, 64, 40
2, 41151, Control_c, 0, 64, 39
2, 41171, Control_c, 0, 64, 38
2, 41171, Note_on_c, 0, 61, 66
2, 41175, Note_on_c, 0, 68, 76
2, 41180, Note_on_c, 0, 63, 0
2, 41189, Control_c, 0, 64, 37
2, 41210, Control_c, 0, 64, 36
2, 41228, Control_c, 0, 64, 35
2, 41246, Control_c, 0, 64, 34
2, 41266, Control_c, 0, 64, 32
2, 41288, Control_c, 0, 64, 25
2, 41303, Control_c, 0, 64, 0
2, 41514, Control_c, 0, 64, 42
2, 41535, Control_c, 0, 64, 59
2, 41535, Note_on_c, 0, 53, 0
2, 41547, Note_on_c, 0, 73, 76
2, 41554, Control_c, 0, 64, 68
2, 41554, Note_on_c, 0, 65, 67
2, 41573, Control_c, 0, 64, 79
2, 41578, Note_on_c, 0, 68, 0
2, 41583, Note_on_c, 0, 61, 0
2, 41594, Control_c, 0, 64, 127
2, 41675, Note_on_c, 0, 73, 0
2, 41914, Note_on_c, 0, 55, 79
2, 41946, Note_on_c, 0, 67, 0
2, 41949, Note_on_c, 0, 65, 0
2, 41962, Control_c, 0, 64, 99
2, 41962, Note_on_c, 0, 72, 73
2, 41979, Control_c, 0, 64, 75
2, 41995, Control_c, 0, 64, 63
2, 42014, Control_c, 0, 64, 56
2, 42034, Control_c, 0, 64, 53
2, 42054, Control_c, 0, 64, 50
2, 42058, Note_on_c, 0, 70, 77
2, 42058, Note_on_c, 0, 72, 0
2, 42071, Control_c, 0, 64, 46
2, 42091, Control_c, 0, 64, 41
2, 42113, Control_c, 0, 64, 36
2, 42129, Control_c, 0, 64, 34
2, 42141, Note_on_c, 0, 70, 0
2, 42145, Note_on_c, 0, 72, 76
2, 42169, Control_c, 0, 64, 33
2, 42187, Control_c, 0, 64, 31
2, 42205, Control_c, 0, 64, 28
2, 42224, Note_on_c, 0, 70, 79
2, 42241, Note_on_c, 0, 72, 0
2, 42283, Note_on_c, 0, 65, 74
2, 42613, Note_on_c, 0, 63, 78
2, 42626, Note_on_c, 0, 65, 0
2, 42650, Control_c, 0, 64, 29
2, 42666, Control_c, 0, 64, 30
2, 42725, Control_c, 0, 64, 27
2, 42743, Control_c, 0, 64, 12
2, 42763, Control_c, 0, 64, 0
2, 42919, Control_c, 0, 64, 41
2, 42937, Control_c, 0, 64, 60
2, 42954, Control_c, 0, 64, 71
2, 42961, Note_on_c, 0, 61, 75
2, 42977, Control_c, 0, 64, 98
2, 42994, Control_c, 0, 64, 127
2, 43011, Note_on_c, 0, 63, 0
2, 43039, Note_on_c, 0, 61, 0
2, 43060, Note_on_c, 0, 55, 0
2, 43368, Note_on_c, 0, 56, 82
2, 43372, Note_on_c, 0, 60, 76
2, 43381, Control_c, 0, 64, 94
2, 43398, Control_c, 0, 64, 72
2, 43416, Control_c, 0, 64, 62
2, 43436, Control_c, 0, 64, 55
2, 43454, Control_c, 0, 64, 52
2, 43474, Control_c, 0, 64, 48
2, 43494, Control_c, 0, 64, 43
2, 43511, Control_c, 0, 64, 36
2, 43530, Control_c, 0, 64, 28
2, 43552, Control_c, 0, 64, 24
2, 43570, Control_c, 0, 64, 23
2, 43590, Control_c, 0, 64, 21
2, 43608, Control_c, 0, 64, 18
2, 43628, Control_c, 0, 64, 17
2, 43646, Control_c, 0, 64, 15
2, 43663, Control_c, 0, 64, 14
2, 43748, Note_on_c, 0, 63, 74
2, 43831, Note_on_c, 0, 70, 0
2, 43994, Control_c, 0, 64, 13
2, 44013, Control_c, 0, 64, 11
2, 44101, Note_on_c, 0, 55, 72
2, 44115, Note_on_c, 0, 65, 72
2, 44124, Note_on_c, 0, 63, 0
2, 44161, Note_on_c, 0, 56, 0
2, 44470, Note_on_c, 0, 67, 79
2, 44510, Control_c, 0, 64, 10
2, 44533, Control_c, 0, 64, 9
2, 44533, Note_on_c, 0, 65, 0
2, 44547, Control_c, 0, 64, 8
2, 44702, Control_c, 0, 64, 0
2, 44848, Note_on_c, 0, 53, 65
2, 44848, Note_on_c, 0, 68, 79
2, 44882, Note_on_c, 0, 55, 0
2, 44882, Note_on_c, 0, 67, 0
2, 45192, Note_on_c, 0, 67, 70
2, 45212, Note_on_c, 0, 68, 0
2, 45560, Note_on_c, 0, 49, 53
2, 45587, Note_on_c, 0, 53, 0
2, 45587, Note_on_c, 0, 68, 69
2, 45620, Note_on_c, 0, 67, 0
2, 45663, Control_c, 0, 64, 9
2, 45681, Control_c, 0, 64, 15
2, 45700, Control_c, 0, 64, 20
2, 45719, Control_c, 0, 64, 29
2, 45741, Control_c, 0, 64, 39
2, 45757, Control_c, 0, 64, 51
2, 45777, Control_c, 0, 64, 59
2, 45797, Control_c, 0, 64, 63
2, 45814, Control_c, 0, 64, 66
2, 45836, Control_c, 0, 64, 71
2, 45852, Control_c, 0, 64, 85
2, 45877, Control_c, 0, 64, 127
2, 45905, Note_on_c, 0, 49, 0
2, 45964, Note_on_c, 0, 77, 72
2, 46018, Note_on_c, 0, 68, 0
2, 46040, Note_on_c, 0, 60, 0
2, 46313, Note_on_c, 0, 51, 49
2, 46332, Note_on_c, 0, 60, 52
2, 46354, Control_c, 0, 64, 92
2, 46373, Control_c, 0, 64, 75
2, 46393, Control_c, 0, 64, 65
2, 46413, Control_c, 0, 64, 58
2, 46413, Note_on_c, 0, 75, 61
2, 46429, Control_c, 0, 64, 53
2, 46449, Control_c, 0, 64, 50
2, 46464, Note_on_c, 0, 60, 0
2, 46469, Control_c, 0, 64, 46
2, 46487, Control_c, 0, 64, 42
2, 46508, Control_c, 0, 64, 38
2, 46513, Note_on_c, 0, 58, 54
2, 46522, Note_on_c, 0, 77, 0
2, 46526, Control_c, 0, 64, 34
2, 46545, Control_c, 0, 64, 29
2, 46563, Control_c, 0, 64, 26
2, 46584, Control_c, 0, 64, 25
2, 46604, Control_c, 0, 64, 22
2, 46604, Note_on_c, 0, 58, 0
2, 46623, Control_c, 0, 64, 19
2, 46627, Note_on_c, 0, 60, 56
2, 46644, Control_c, 0, 64, 16
2, 46661, Control_c, 0, 64, 15
2, 46679, Control_c, 0, 64, 13
2, 46693, Note_on_c, 0, 60, 0
2, 46729, Note_on_c, 0, 58, 48
2, 46758, Control_c, 0, 64, 12
2, 46778, Control_c, 0, 64, 11
2, 46796, Control_c, 0, 64, 8
2, 46814, Control_c, 0, 64, 0
2, 46825, Note_on_c, 0, 68, 60
2, 46929, Control_c, 0, 64, 9
2, 46949, Control_c, 0, 64, 18
2, 46968, Control_c, 0, 64, 26
2, 46986, Control_c, 0, 64, 35
2, 47004, Control_c, 0, 64, 44
2, 47024, Control_c, 0, 64, 53
2, 47047, Control_c, 0, 64, 60
2, 47066, Control_c, 0, 64, 63
2, 47081, Control_c, 0, 64, 66
2, 47102, Control_c, 0, 64, 72
2, 47122, Control_c, 0, 64, 84
2, 47140, Control_c, 0, 64, 104
2, 47147, Note_on_c, 0, 68, 0
2, 47150, Note_on_c, 0, 58, 0
2, 47159, Control_c, 0, 64, 127
2, 47170, Note_on_c, 0, 67, 53
2, 47223, Note_on_c, 0, 51, 0
2, 47516, Note_on_c, 0, 73, 62
2, 47867, Note_on_c, 0, 75, 0
2, 47874, Control_c, 0, 64, 120
2, 47889, Note_on_c, 0, 67, 0
2, 47894, Control_c, 0, 64, 82
2, 47903, Note_on_c, 0, 72, 55
2, 47912, Control_c, 0, 64, 66
2, 47912, Note_on_c, 0, 44, 45
2, 47928, Control_c, 0, 64, 54
2, 47943, Note_on_c, 0, 56, 35
2, 47948, Control_c, 0, 64, 44
2, 47965, Control_c, 0, 64, 36
2, 47984, Note_on_c, 0, 73, 0
2, 47987, Control_c, 0, 64, 25
2, 48005, Control_c, 0, 64, 0
2, 48256, Note_on_c, 0, 72, 0
2, 48276, Note_on_c, 0, 68, 57
2, 48369, Control_c, 0, 64, 15
2, 48386, Control_c, 0, 64, 24
2, 48407, Control_c, 0, 64, 30
2, 48427, Control_c, 0, 64, 35
2, 48445, Control_c, 0, 64, 41
2, 48465, Control_c, 0, 64, 47
2, 48488, Control_c, 0, 64, 54
2, 48503, Control_c, 0, 64, 57
2, 48522, Control_c, 0, 64, 59
2, 48561, Control_c, 0, 64, 60
2, 48582, Control_c, 0, 64, 61
2, 48600, Control_c, 0, 64, 62
2, 48617, Note_on_c, 0, 68, 0
2, 48617, Note_on_c, 0, 72, 63
2, 48621, Control_c, 0, 64, 63
2, 48639, Control_c, 0, 64, 64
2, 48695, Control_c, 0, 64, 65
2, 48752, Control_c, 0, 64, 64
2, 48909, Note_on_c, 0, 44, 0
2, 48967, Note_on_c, 0, 76, 69
2, 49044, Note_on_c, 0, 72, 0
2, 49099, Note_on_c, 0, 56, 0
2, 49118, Control_c, 0, 64, 65
2, 49194, Control_c, 0, 64, 66
2, 49232, Control_c, 0, 64, 67
2, 49255, Control_c, 0, 64, 68
2, 49270, Control_c, 0, 64, 71
2, 49290, Control_c, 0, 64, 74
2, 49309, Control_c, 0, 64, 79
2, 49314, Note_on_c, 0, 77, 66
2, 49329, Control_c, 0, 64, 85
2, 49351, Control_c, 0, 64, 90
2, 49368, Control_c, 0, 64, 93
2, 49385, Note_on_c, 0, 76, 0
2, 49389, Control_c, 0, 64, 95
2, 49405, Control_c, 0, 64, 97
2, 49503, Control_c, 0, 64, 98
2, 49578, Control_c, 0, 64, 97
2, 49618, Control_c, 0, 64, 95
2, 49635, Control_c, 0, 64, 94
2, 49655, Control_c, 0, 64, 92
2, 49660, Note_on_c, 0, 79, 66
2, 49677, Control_c, 0, 64, 91
2, 49677, Note_on_c, 0, 56, 49
2, 49694, Control_c, 0, 64, 90
2, 49700, Note_on_c, 0, 77, 0
2, 49711, Control_c, 0, 64, 88
2, 49733, Control_c, 0, 64, 86
2, 49753, Control_c, 0, 64, 85
2, 49772, Control_c, 0, 64, 84
2, 49790, Control_c, 0, 64, 82
2, 49810, Control_c, 0, 64, 81
2, 49851, Control_c, 0, 64, 80
2, 49867, Control_c, 0, 64, 79
2, 49903, Control_c, 0, 64, 78
2, 49923, Control_c, 0, 64, 77
2, 49943, Control_c, 0, 64, 76
2, 49962, Control_c, 0, 64, 75
2, 49981, Control_c, 0, 64, 74
2, 50001, Control_c, 0, 64, 73
2, 50011, Note_on_c, 0, 56, 0
2, 50022, Control_c, 0, 64, 72
2, 50026, Note_on_c, 0, 76, 62
2, 50034, Note_on_c, 0, 55, 46
2, 50039, Note_on_c, 0, 79, 0
2, 50041, Control_c, 0, 64, 71
2, 50059, Control_c, 0, 64, 70
2, 50077, Control_c, 0, 64, 69
2, 50097, Control_c, 0, 64, 68
2, 50116, Control_c, 0, 64, 67
2, 50153, Control_c, 0, 64, 66
2, 50173, Control_c, 0, 64, 65
2, 50251, Control_c, 0, 64, 64
2, 50308, Control_c, 0, 64, 63
2, 50345, Control_c, 0, 64, 62
2, 50387, Note_on_c, 0, 55, 0
2, 50391, Control_c, 0, 64, 61
2, 50391, Note_on_c, 0, 77, 62
2, 50402, Note_on_c, 0, 53, 45
2, 50406, Control_c, 0, 64, 60
2, 50422, Control_c, 0, 64, 59
2, 50428, Note_on_c, 0, 76, 0
2, 50443, Control_c, 0, 64, 58
2, 50481, Control_c, 0, 64, 57
2, 50498, Control_c, 0, 64, 55
2, 50518, Control_c, 0, 64, 54
2, 50539, Control_c, 0, 64, 53
2, 50575, Control_c, 0, 64, 52
2, 50595, Control_c, 0, 64, 50
2, 50614, Control_c, 0, 64, 49
2, 50667, Note_on_c, 0, 53, 0
2, 50674, Control_c, 0, 64, 48
2, 50704, Note_on_c, 0, 52, 39
2, 50711, Control_c, 0, 64, 47
2, 50804, Note_on_c, 0, 79, 56
2, 50809, Control_c, 0, 64, 46
2, 50857, Note_on_c, 0, 77, 0
2, 51116, Control_c, 0, 64, 47
2, 51123, Note_on_c, 0, 55, 45
2, 51154, Control_c, 0, 64, 48
2, 51174, Control_c, 0, 64, 49
2, 51212, Control_c, 0, 64, 50
2, 51248, Control_c, 0, 64, 51
2, 51287, Control_c, 0, 64, 52
2, 51305, Control_c, 0, 64, 53
2, 51325, Control_c, 0, 64, 54
2, 51345, Control_c, 0, 64, 56
2, 51367, Control_c, 0, 64, 58
2, 51382, Control_c, 0, 64, 59
2, 51402, Control_c, 0, 64, 60
2, 51423, Control_c, 0, 64, 61
2, 51441, Control_c, 0, 64, 62
2, 51457, Note_on_c, 0, 55, 0
2, 51461, Control_c, 0, 64, 63
2, 51481, Note_on_c, 0, 58, 50
2, 51500, Control_c, 0, 64, 64
2, 51537, Control_c, 0, 64, 65
2, 51557, Control_c, 0, 64, 66
2, 51575, Control_c, 0, 64, 68
2, 51595, Control_c, 0, 64, 70
2, 51614, Control_c, 0, 64, 73
2, 51633, Control_c, 0, 64, 79
2, 51653, Control_c, 0, 64, 91
2, 51673, Control_c, 0, 64, 127
2, 51797, Note_on_c, 0, 58, 0
2, 51833, Note_on_c, 0, 61, 50
2, 51846, Note_on_c, 0, 52, 0
2, 51966, Note_on_c, 0, 61, 0
2, 52195, Note_on_c, 0, 48, 46
2, 52246, Control_c, 0, 64, 88
2, 52265, Control_c, 0, 64, 71
2, 52285, Control_c, 0, 64, 62
2, 52304, Control_c, 0, 64, 57
2, 52323, Control_c, 0, 64, 53
2, 52343, Control_c, 0, 64, 50
2, 52364, Control_c, 0, 64, 48
2, 52382, Control_c, 0, 64, 45
2, 52401, Control_c, 0, 64, 43
2, 52423, Control_c, 0, 64, 42
2, 52442, Control_c, 0, 64, 39
2, 52460, Control_c, 0, 64, 36
2, 52478, Control_c, 0, 64, 33
2, 52498, Control_c, 0, 64, 31
2, 52520, Control_c, 0, 64, 30
2, 52537, Note_on_c, 0, 53, 53
2, 52575, Control_c, 0, 64, 29
2, 52688, Control_c, 0, 64, 28
2, 52925, Note_on_c, 0, 52, 57
2, 52945, Note_on_c, 0, 53, 0
2, 52978, Control_c, 0, 64, 29
2, 53259, Note_on_c, 0, 52, 0
2, 53276, Note_on_c, 0, 55, 62
2, 53628, Note_on_c, 0, 55, 0
2, 53642, Note_on_c, 0, 56, 51
2, 53656, Note_on_c, 0, 53, 50
2, 53749, Note_on_c, 0, 48, 0
2, 53996, Note_on_c, 0, 72, 54
2, 54016, Control_c, 0, 64, 30
2, 54075, Note_on_c, 0, 79, 0
2, 54303, Control_c, 0, 64, 31
2, 54348, Note_on_c, 0, 77, 59
2, 54454, Control_c, 0, 64, 32
2, 54629, Control_c, 0, 64, 33
2, 54648, Control_c, 0, 64, 35
2, 54666, Control_c, 0, 64, 40
2, 54685, Control_c, 0, 64, 44
2, 54707, Control_c, 0, 64, 50
2, 54709, Note_on_c, 0, 80, 62
2, 54725, Control_c, 0, 64, 55
2, 54744, Control_c, 0, 64, 59
2, 54762, Control_c, 0, 64, 61
2, 54782, Control_c, 0, 64, 64
2, 54800, Control_c, 0, 64, 67
2, 54820, Control_c, 0, 64, 75
2, 54825, Note_on_c, 0, 77, 0
2, 54840, Control_c, 0, 64, 86
2, 54860, Control_c, 0, 64, 103
2, 54880, Control_c, 0, 64, 127
2, 55048, Note_on_c, 0, 53, 0
2, 55059, Note_on_c, 0, 74, 63
2, 55073, Note_on_c, 0, 80, 0
2, 55202, Note_on_c, 0, 72, 0
2, 55388, Note_on_c, 0, 77, 67
2, 55401, Note_on_c, 0, 53, 47
2, 55438, Note_on_c, 0, 74, 0
2, 55532, Control_c, 0, 64, 120
2, 55549, Control_c, 0, 64, 111
2, 55571, Control_c, 0, 64, 105
2, 55587, Control_c, 0, 64, 100
2, 55607, Control_c, 0, 64, 96
2, 55627, Control_c, 0, 64, 89
2, 55647, Control_c, 0, 64, 81
2, 55664, Control_c, 0, 64, 73
2, 55687, Control_c, 0, 64, 68
2, 55704, Control_c, 0, 64, 64
2, 55723, Control_c, 0, 64, 61
2, 55742, Control_c, 0, 64, 56
2, 55763, Note_on_c, 0, 71, 62
2, 55764, Control_c, 0, 64, 50
2, 55768, Note_on_c, 0, 51, 48
2, 55768, Note_on_c, 0, 53, 0
2, 55779, Control_c, 0, 64, 41
2, 55801, Control_c, 0, 64, 32
2, 55805, Note_on_c, 0, 77, 0
2, 55822, Control_c, 0, 64, 24
2, 55837, Control_c, 0, 64, 9
2, 55855, Control_c, 0, 64, 0
2, 56070, Control_c, 0, 64, 38
2, 56088, Control_c, 0, 64, 55
2, 56104, Note_on_c, 0, 50, 41
2, 56108, Control_c, 0, 64, 63
2, 56117, Note_on_c, 0, 72, 61
2, 56128, Control_c, 0, 64, 68
2, 56132, Note_on_c, 0, 71, 0
2, 56146, Control_c, 0, 64, 75
2, 56158, Note_on_c, 0, 56, 0
2, 56165, Control_c, 0, 64, 86
2, 56169, Note_on_c, 0, 50, 0
2, 56180, Note_on_c, 0, 51, 0
2, 56185, Control_c, 0, 64, 127
2, 56348, Note_on_c, 0, 72, 0
2, 56512, Control_c, 0, 64, 91
2, 56512, Note_on_c, 0, 55, 49
2, 56531, Control_c, 0, 64, 71
2, 56531, Note_on_c, 0, 71, 59
2, 56550, Control_c, 0, 64, 61
2, 56567, Control_c, 0, 64, 54
2, 56581, Note_on_c, 0, 71, 0
2, 56590, Control_c, 0, 64, 49
2, 56606, Control_c, 0, 64, 44
2, 56611, Note_on_c, 0, 72, 62
2, 56624, Control_c, 0, 64, 38
2, 56643, Control_c, 0, 64, 31
2, 56663, Control_c, 0, 64, 25
2, 56682, Control_c, 0, 64, 22
2, 56691, Note_on_c, 0, 72, 0
2, 56704, Note_on_c, 0, 71, 64
2, 56722, Control_c, 0, 64, 20
2, 56739, Control_c, 0, 64, 16
2, 56761, Control_c, 0, 64, 13
2, 56779, Control_c, 0, 64, 11
2, 56841, Note_on_c, 0, 59, 59
2, 56934, Control_c, 0, 64, 8
2, 56952, Control_c, 0, 64, 0
2, 57209, Note_on_c, 0, 62, 59
2, 57220, Note_on_c, 0, 59, 0
2, 57471, Control_c, 0, 64, 34
2, 57489, Control_c, 0, 64, 49
2, 57509, Control_c, 0, 64, 59
2, 57525, Note_on_c, 0, 62, 0
2, 57529, Control_c, 0, 64, 63
2, 57538, Note_on_c, 0, 67, 51
2, 57548, Control_c, 0, 64, 66
2, 57548, Note_on_c, 0, 72, 61
2, 57553, Note_on_c, 0, 71, 0
2, 57564, Control_c, 0, 64, 71
2, 57586, Control_c, 0, 64, 79
2, 57605, Control_c, 0, 64, 92
2, 57623, Control_c, 0, 64, 113
2, 57644, Control_c, 0, 64, 127
2, 57696, Note_on_c, 0, 67, 0
2, 57810, Note_on_c, 0, 55, 0
2, 57833, Note_on_c, 0, 56, 56
2, 57899, Note_on_c, 0, 72, 0
2, 57930, Note_on_c, 0, 74, 59
2, 57984, Note_on_c, 0, 74, 0
2, 57988, Control_c, 0, 64, 113
2, 58008, Control_c, 0, 64, 86
2, 58008, Note_on_c, 0, 72, 67
2, 58026, Control_c, 0, 64, 71
2, 58049, Control_c, 0, 64, 63
2, 58064, Control_c, 0, 64, 56
2, 58073, Note_on_c, 0, 72, 0
2, 58085, Control_c, 0, 64, 51
2, 58090, Note_on_c, 0, 74, 62
2, 58104, Control_c, 0, 64, 46
2, 58124, Control_c, 0, 64, 42
2, 58142, Control_c, 0, 64, 39
2, 58149, Note_on_c, 0, 72, 67
2, 58162, Control_c, 0, 64, 36
2, 58175, Note_on_c, 0, 74, 0
2, 58180, Control_c, 0, 64, 34
2, 58202, Control_c, 0, 64, 33
2, 58218, Control_c, 0, 64, 31
2, 58239, Control_c, 0, 64, 30
2, 58254, Note_on_c, 0, 67, 60
2, 58259, Control_c, 0, 64, 29
2, 58296, Control_c, 0, 64, 28
2, 58333, Control_c, 0, 64, 27
2, 58355, Control_c, 0, 64, 25
2, 58371, Control_c, 0, 64, 24
2, 58411, Control_c, 0, 64, 23
2, 58431, Control_c, 0, 64, 21
2, 58448, Control_c, 0, 64, 20
2, 58470, Control_c, 0, 64, 18
2, 58507, Control_c, 0, 64, 17
2, 58529, Control_c, 0, 64, 15
2, 58548, Control_c, 0, 64, 12
2, 58564, Control_c, 0, 64, 11
2, 58583, Control_c, 0, 64, 10
2, 58595, Note_on_c, 0, 65, 64
2, 58597, Note_on_c, 0, 67, 0
2, 58623, Control_c, 0, 64, 9
2, 58661, Control_c, 0, 64, 8
2, 58812, Control_c, 0, 64, 0
2, 58944, Note_on_c, 0, 65, 0
2, 58949, Note_on_c, 0, 68, 69
2, 58949, Note_on_c, 0, 72, 0
2, 58953, Note_on_c, 0, 71, 67
2, 59140, Note_on_c, 0, 71, 0
2, 59140, Note_on_c, 0, 72, 73
2, 59314, Note_on_c, 0, 72, 0
2, 59339, Note_on_c, 0, 59, 67
2, 59341, Note_on_c, 0, 74, 75
2, 59401, Note_on_c, 0, 68, 0
2, 59497, Note_on_c, 0, 56, 0
2, 59695, Note_on_c, 0, 79, 77
2, 60051, Note_on_c, 0, 77, 72
2, 60062, Note_on_c, 0, 62, 57
2, 60424, Note_on_c, 0, 80, 75
2, 60429, Note_on_c, 0, 74, 0
2, 60559, Control_c, 0, 64, 31
2, 60579, Control_c, 0, 64, 48
2, 60598, Control_c, 0, 64, 59
2, 60617, Control_c, 0, 64, 63
2, 60639, Control_c, 0, 64, 64
2, 60658, Control_c, 0, 64, 65
2, 60667, Note_on_c, 0, 77, 0
2, 60676, Control_c, 0, 64, 67
2, 60696, Control_c, 0, 64, 71
2, 60715, Control_c, 0, 64, 79
2, 60733, Control_c, 0, 64, 88
2, 60755, Control_c, 0, 64, 95
2, 60755, Note_on_c, 0, 79, 0
2, 60767, Note_on_c, 0, 59, 0
2, 60771, Control_c, 0, 64, 100
2, 60793, Control_c, 0, 64, 105
2, 60793, Note_on_c, 0, 71, 57
2, 60809, Note_on_c, 0, 80, 0
2, 60813, Control_c, 0, 64, 109
2, 60829, Note_on_c, 0, 62, 0
2, 60833, Control_c, 0, 64, 113
2, 60833, Note_on_c, 0, 67, 48
2, 60849, Control_c, 0, 64, 115
2, 61022, Control_c, 0, 64, 113
2, 61040, Control_c, 0, 64, 112
2, 61060, Control_c, 0, 64, 111
2, 61080, Control_c, 0, 64, 109
2, 61118, Control_c, 0, 64, 108
2, 61137, Control_c, 0, 64, 106
2, 61159, Control_c, 0, 64, 104
2, 61179, Control_c, 0, 64, 100
2, 61186, Note_on_c, 0, 80, 63
2, 61195, Control_c, 0, 64, 92
2, 61213, Control_c, 0, 64, 81
2, 61235, Control_c, 0, 64, 71
2, 61252, Control_c, 0, 64, 65
2, 61272, Control_c, 0, 64, 60
2, 61290, Control_c, 0, 64, 56
2, 61312, Control_c, 0, 64, 51
2, 61328, Control_c, 0, 64, 46
2, 61349, Control_c, 0, 64, 39
2, 61367, Control_c, 0, 64, 33
2, 61387, Control_c, 0, 64, 27
2, 61409, Control_c, 0, 64, 20
2, 61424, Control_c, 0, 64, 0
2, 61564, Note_on_c, 0, 79, 63
2, 61584, Note_on_c, 0, 55, 43
2, 61599, Control_c, 0, 64, 34
2, 61620, Control_c, 0, 64, 50
2, 61636, Control_c, 0, 64, 60
2, 61656, Control_c, 0, 64, 64
2, 61660, Note_on_c, 0, 80, 0
2, 61678, Control_c, 0, 64, 67
2, 61695, Control_c, 0, 64, 74
2, 61713, Control_c, 0, 64, 86
2, 61733, Control_c, 0, 64, 127
2, 61842, Note_on_c, 0, 67, 0
2, 61884, Note_on_c, 0, 71, 0
2, 61923, Note_on_c, 0, 77, 65
2, 61928, Note_on_c, 0, 55, 0
2, 61951, Note_on_c, 0, 79, 0
2, 62296, Note_on_c, 0, 75, 61
2, 62307, Control_c, 0, 64, 96
2, 62307, Note_on_c, 0, 60, 46
2, 62323, Note_on_c, 0, 77, 0
2, 62328, Control_c, 0, 64, 70
2, 62346, Control_c, 0, 64, 58
2, 62363, Control_c, 0, 64, 47
2, 62388, Control_c, 0, 64, 38
2, 62404, Control_c, 0, 64, 27
2, 62424, Control_c, 0, 64, 0
2, 62684, Note_on_c, 0, 84, 65
2, 62749, Control_c, 0, 64, 8
2, 62769, Control_c, 0, 64, 32
2, 62788, Control_c, 0, 64, 39
2, 62805, Control_c, 0, 64, 40
2, 62865, Control_c, 0, 64, 41
2, 62883, Control_c, 0, 64, 40
2, 62887, Note_on_c, 0, 75, 0
2, 62926, Control_c, 0, 64, 39
2, 62941, Control_c, 0, 64, 38
2, 63037, Control_c, 0, 64, 37
2, 63052, Note_on_c, 0, 56, 50
2, 63057, Control_c, 0, 64, 36
2, 63057, Note_on_c, 0, 77, 51
2, 63113, Control_c, 0, 64, 35
2, 63210, Control_c, 0, 64, 34
2, 63230, Control_c, 0, 64, 33
2, 63269, Control_c, 0, 64, 32
2, 63402, Control_c, 0, 64, 31
2, 63447, Note_on_c, 0, 83, 64
2, 63477, Note_on_c, 0, 84, 0
2, 63615, Control_c, 0, 64, 30
2, 63671, Control_c, 0, 64, 29
2, 63805, Control_c, 0, 64, 28
2, 63855, Note_on_c, 0, 51, 38
2, 63870, Note_on_c, 0, 77, 0
2, 63874, Note_on_c, 0, 84, 59
2, 63892, Note_on_c, 0, 56, 0
2, 63908, Note_on_c, 0, 83, 0
2, 63978, Control_c, 0, 64, 27
2, 64190, Control_c, 0, 64, 26
2, 64216, Note_on_c, 0, 79, 54
2, 64581, Note_on_c, 0, 53, 52
2, 64588, Note_on_c, 0, 80, 58
2, 64619, Note_on_c, 0, 79, 0
2, 64636, Note_on_c, 0, 51, 0
2, 64729, Control_c, 0, 64, 27
2, 64747, Control_c, 0, 64, 29
2, 64765, Control_c, 0, 64, 34
2, 64787, Control_c, 0, 64, 41
2, 64804, Control_c, 0, 64, 53
2, 64824, Control_c, 0, 64, 63
2, 64841, Control_c, 0, 64, 70
2, 64861, Control_c, 0, 64, 95
2, 64881, Control_c, 0, 64, 127
2, 64902, Note_on_c, 0, 84, 0
2, 64935, Note_on_c, 0, 80, 0
2, 64940, Note_on_c, 0, 77, 65
2, 64993, Note_on_c, 0, 77, 0
2, 65322, Note_on_c, 0, 53, 0
2, 65331, Note_on_c, 0, 75, 69
2, 65348, Note_on_c, 0, 55, 46
2, 65380, Control_c, 0, 64, 93
2, 65400, Control_c, 0, 64, 70
2, 65418, Control_c, 0, 64, 61
2, 65437, Control_c, 0, 64, 55
2, 65459, Control_c, 0, 64, 51
2, 65476, Control_c, 0, 64, 47
2, 65494, Control_c, 0, 64, 41
2, 65517, Control_c, 0, 64, 34
2, 65535, Control_c, 0, 64, 29
2, 65552, Control_c, 0, 64, 26
2, 65572, Control_c, 0, 64, 25
2, 65592, Control_c, 0, 64, 24
2, 65612, Control_c, 0, 64, 20
2, 65629, Control_c, 0, 64, 16
2, 65650, Control_c, 0, 64, 13
2, 65687, Note_on_c, 0, 71, 57
2, 65803, Control_c, 0, 64, 12
2, 65843, Control_c, 0, 64, 11
2, 65993, Control_c, 0, 64, 10
2, 66046, Note_on_c, 0, 72, 62
2, 66055, Note_on_c, 0, 71, 0
2, 66188, Control_c, 0, 64, 9
2, 66322, Control_c, 0, 64, 8
2, 66388, Note_on_c, 0, 72, 0
2, 66399, Note_on_c, 0, 66, 53
2, 66552, Control_c, 0, 64, 0
2, 66792, Note_on_c, 0, 67, 50
2, 66807, Note_on_c, 0, 66, 0
2, 67178, Note_on_c, 0, 72, 48
2, 67218, Note_on_c, 0, 75, 0
2, 67318, Control_c, 0, 64, 9
2, 67338, Control_c, 0, 64, 13
2, 67358, Control_c, 0, 64, 15
2, 67376, Control_c, 0, 64, 16
2, 67414, Control_c, 0, 64, 18
2, 67434, Control_c, 0, 64, 20
2, 67452, Control_c, 0, 64, 23
2, 67471, Control_c, 0, 64, 25
2, 67491, Control_c, 0, 64, 27
2, 67511, Control_c, 0, 64, 28
2, 67530, Control_c, 0, 64, 29
2, 67545, Note_on_c, 0, 60, 0
2, 67549, Control_c, 0, 64, 31
2, 67569, Control_c, 0, 64, 33
2, 67586, Note_on_c, 0, 74, 47
2, 67588, Control_c, 0, 64, 36
2, 67591, Note_on_c, 0, 59, 35
2, 67608, Control_c, 0, 64, 40
2, 67626, Control_c, 0, 64, 44
2, 67647, Control_c, 0, 64, 49
2, 67666, Control_c, 0, 64, 56
2, 67677, Note_on_c, 0, 72, 0
2, 67684, Control_c, 0, 64, 61
2, 67706, Control_c, 0, 64, 64
2, 67722, Control_c, 0, 64, 69
2, 67742, Control_c, 0, 64, 82
2, 67763, Control_c, 0, 64, 122
2, 67780, Control_c, 0, 64, 127
2, 67816, Note_on_c, 0, 59, 0
2, 67848, Note_on_c, 0, 74, 0
2, 67899, Note_on_c, 0, 55, 0
2, 67953, Note_on_c, 0, 65, 49
2, 67962, Note_on_c, 0, 67, 0
2, 68369, Note_on_c, 0, 72, 56
2, 68376, Note_on_c, 0, 48, 41
2, 68378, Control_c, 0, 64, 101
2, 68382, Note_on_c, 0, 65, 0
2, 68389, Note_on_c, 0, 60, 42
2, 68396, Control_c, 0, 64, 77
2, 68413, Control_c, 0, 64, 65
2, 68434, Control_c, 0, 64, 57
2, 68452, Control_c, 0, 64, 53
2, 68474, Control_c, 0, 64, 50
2, 68490, Control_c, 0, 64, 44
2, 68512, Control_c, 0, 64, 37
2, 68529, Control_c, 0, 64, 31
2, 68547, Control_c, 0, 64, 27
2, 68568, Control_c, 0, 64, 25
2, 68586, Control_c, 0, 64, 23
2, 68605, Control_c, 0, 64, 20
2, 68623, Control_c, 0, 64, 17
2, 68684, Control_c, 0, 64, 16
2, 68721, Control_c, 0, 64, 15
2, 68753, Note_on_c, 0, 65, 47
2, 68990, Control_c, 0, 64, 14
2, 69082, Note_on_c, 0, 60, 0
2, 69105, Note_on_c, 0, 64, 54
2, 69109, Note_on_c, 0, 55, 44
2, 69109, Note_on_c, 0, 65, 0
2, 69412, Control_c, 0, 64, 13
2, 69468, Note_on_c, 0, 67, 56
2, 69503, Note_on_c, 0, 64, 0
2, 69840, Note_on_c, 0, 60, 58
2, 69854, Control_c, 0, 64, 12
2, 69892, Control_c, 0, 64, 11
2, 69910, Note_on_c, 0, 67, 0
2, 69930, Control_c, 0, 64, 10
2, 70202, Note_on_c, 0, 53, 57
2, 70233, Note_on_c, 0, 55, 0
2, 70295, Control_c, 0, 64, 9
2, 70409, Control_c, 0, 64, 8
2, 70428, Control_c, 0, 64, 0
2, 70560, Note_on_c, 0, 52, 60
2, 70565, Note_on_c, 0, 53, 0
2, 70716, Control_c, 0, 64, 26
2, 70736, Control_c, 0, 64, 47
2, 70754, Control_c, 0, 64, 59
2, 70774, Control_c, 0, 64, 65
2, 70794, Control_c, 0, 64, 69
2, 70812, Control_c, 0, 64, 77
2, 70827, Note_on_c, 0, 60, 0
2, 70832, Control_c, 0, 64, 97
2, 70852, Control_c, 0, 64, 127
2, 70892, Note_on_c, 0, 52, 0
2, 70897, Note_on_c, 0, 48, 0
2, 70897, Note_on_c, 0, 72, 0
2, 70940, Note_on_c, 0, 55, 60
2, 71314, Control_c, 0, 64, 91
2, 71323, Note_on_c, 0, 45, 53
2, 71323, Note_on_c, 0, 65, 67
2, 71329, Note_on_c, 0, 55, 0
2, 71334, Control_c, 0, 64, 67
2, 71352, Control_c, 0, 64, 56
2, 71371, Control_c, 0, 64, 46
2, 71389, Control_c, 0, 64, 40
2, 71410, Control_c, 0, 64, 34
2, 71429, Control_c, 0, 64, 25
2, 71447, Control_c, 0, 64, 11
2, 71466, Control_c, 0, 64, 0
2, 71676, Note_on_c, 0, 69, 62
2, 72043, Note_on_c, 0, 72, 71
2, 72050, Note_on_c, 0, 53, 49
2, 72291, Control_c, 0, 64, 11
2, 72311, Control_c, 0, 64, 41
2, 72331, Control_c, 0, 64, 56
2, 72349, Control_c, 0, 64, 63
2, 72351, Note_on_c, 0, 45, 0
2, 72367, Control_c, 0, 64, 66
2, 72386, Control_c, 0, 64, 71
2, 72391, Note_on_c, 0, 75, 72
2, 72410, Control_c, 0, 64, 81
2, 72427, Control_c, 0, 64, 106
2, 72440, Note_on_c, 0, 65, 0
2, 72444, Note_on_c, 0, 72, 0
2, 72448, Control_c, 0, 64, 127
2, 72473, Note_on_c, 0, 69, 0
2, 72715, Control_c, 0, 64, 93
2, 72733, Control_c, 0, 64, 64
2, 72748, Note_on_c, 0, 41, 60
2, 72753, Control_c, 0, 64, 44
2, 72771, Control_c, 0, 64, 32
2, 72771, Note_on_c, 0, 69, 55
2, 72787, Note_on_c, 0, 53, 0
2, 72787, Note_on_c, 0, 75, 0
2, 72792, Control_c, 0, 64, 39
2, 72809, Control_c, 0, 64, 48
2, 72829, Control_c, 0, 64, 60
2, 72849, Control_c, 0, 64, 66
2, 72868, Control_c, 0, 64, 71
2, 72887, Control_c, 0, 64, 79
2, 72907, Control_c, 0, 64, 87
2, 72924, Control_c, 0, 64, 91
2, 72945, Control_c, 0, 64, 92
2, 72982, Control_c, 0, 64, 91
2, 73003, Control_c, 0, 64, 90
2, 73111, Note_on_c, 0, 78, 75
2, 73120, Control_c, 0, 64, 88
2, 73137, Control_c, 0, 64, 87
2, 73155, Control_c, 0, 64, 85
2, 73173, Control_c, 0, 64, 83
2, 73194, Control_c, 0, 64, 82
2, 73211, Control_c, 0, 64, 81
2, 73233, Control_c, 0, 64, 80
2, 73253, Control_c, 0, 64, 79
2, 73272, Control_c, 0, 64, 77
2, 73290, Control_c, 0, 64, 75
2, 73310, Control_c, 0, 64, 72
2, 73330, Control_c, 0, 64, 68
2, 73348, Control_c, 0, 64, 64
2, 73370, Control_c, 0, 64, 59
2, 73385, Control_c, 0, 64, 49
2, 73409, Control_c, 0, 64, 31
2, 73423, Control_c, 0, 64, 0
2, 73487, Note_on_c, 0, 53, 53
2, 73492, Note_on_c, 0, 72, 68
2, 73521, Control_c, 0, 64, 21
2, 73538, Control_c, 0, 64, 43
2, 73552, Note_on_c, 0, 78, 0
2, 73560, Control_c, 0, 64, 56
2, 73565, Note_on_c, 0, 41, 0
2, 73578, Control_c, 0, 64, 63
2, 73599, Control_c, 0, 64, 66
2, 73619, Control_c, 0, 64, 71
2, 73637, Control_c, 0, 64, 81
2, 73654, Control_c, 0, 64, 97
2, 73674, Control_c, 0, 64, 127
2, 73841, Note_on_c, 0, 75, 72
2, 73868, Note_on_c, 0, 72, 0
2, 73928, Note_on_c, 0, 75, 0
2, 74193, Control_c, 0, 64, 101
2, 74212, Control_c, 0, 64, 70
2, 74216, Note_on_c, 0, 53, 0
2, 74220, Note_on_c, 0, 46, 66
2, 74220, Note_on_c, 0, 73, 67
2, 74232, Control_c, 0, 64, 60
2, 74246, Note_on_c, 0, 69, 0
2, 74250, Control_c, 0, 64, 52
2, 74270, Control_c, 0, 64, 48
2, 74291, Control_c, 0, 64, 42
2, 74306, Control_c, 0, 64, 34
2, 74326, Control_c, 0, 64, 25
2, 74346, Control_c, 0, 64, 19
2, 74402, Control_c, 0, 64, 17
2, 74423, Control_c, 0, 64, 13
2, 74441, Control_c, 0, 64, 8
2, 74461, Control_c, 0, 64, 0
2, 74580, Note_on_c, 0, 49, 62
2, 74939, Note_on_c, 0, 53, 64
2, 74946, Note_on_c, 0, 70, 59
2, 74957, Note_on_c, 0, 49, 0
2, 75310, Note_on_c, 0, 58, 61
2, 75314, Note_on_c, 0, 53, 0
2, 75654, Note_on_c, 0, 48, 59
2, 75658, Note_on_c, 0, 70, 0
2, 75663, Note_on_c, 0, 64, 60
2, 75667, Note_on_c, 0, 46, 0
2, 75683, Note_on_c, 0, 58, 0
2, 76011, Note_on_c, 0, 58, 62
2, 76394, Note_on_c, 0, 56, 65
2, 76396, Note_on_c, 0, 58, 0
2, 76401, Note_on_c, 0, 72, 66
2, 76458, Control_c, 0, 64, 37
2, 76476, Control_c, 0, 64, 51
2, 76496, Control_c, 0, 64, 60
2, 76503, Note_on_c, 0, 73, 0
2, 76518, Control_c, 0, 64, 63
2, 76534, Control_c, 0, 64, 64
2, 76552, Control_c, 0, 64, 67
2, 76570, Note_on_c, 0, 64, 0
2, 76575, Control_c, 0, 64, 72
2, 76595, Control_c, 0, 64, 84
2, 76612, Control_c, 0, 64, 104
2, 76630, Control_c, 0, 64, 127
2, 76701, Note_on_c, 0, 48, 0
2, 76762, Note_on_c, 0, 56, 0
2, 76762, Note_on_c, 0, 60, 57
2, 76995, Control_c, 0, 64, 120
2, 77015, Control_c, 0, 64, 113
2, 77033, Control_c, 0, 64, 106
2, 77055, Control_c, 0, 64, 95
2, 77071, Control_c, 0, 64, 82
2, 77091, Control_c, 0, 64, 70
2, 77106, Note_on_c, 0, 60, 0
2, 77110, Control_c, 0, 64, 60
2, 77122, Note_on_c, 0, 50, 43
2, 77126, Note_on_c, 0, 53, 49
2, 77130, Control_c, 0, 64, 50
2, 77149, Control_c, 0, 64, 41
2, 77154, Note_on_c, 0, 65, 24
2, 77168, Control_c, 0, 64, 34
2, 77188, Control_c, 0, 64, 29
2, 77206, Control_c, 0, 64, 24
2, 77227, Control_c, 0, 64, 20
2, 77246, Control_c, 0, 64, 16
2, 77265, Control_c, 0, 64, 12
2, 77283, Control_c, 0, 64, 0
2, 77399, Control_c, 0, 64, 20
2, 77417, Control_c, 0, 64, 37
2, 77436, Control_c, 0, 64, 49
2, 77456, Control_c, 0, 64, 57
2, 77459, Note_on_c, 0, 70, 60
2, 77478, Control_c, 0, 64, 61
2, 77495, Control_c, 0, 64, 63
2, 77514, Control_c, 0, 64, 65
2, 77531, Control_c, 0, 64, 70
2, 77546, Note_on_c, 0, 53, 0
2, 77553, Control_c, 0, 64, 83
2, 77573, Control_c, 0, 64, 118
2, 77584, Note_on_c, 0, 72, 0
2, 77590, Control_c, 0, 64, 127
2, 77597, Note_on_c, 0, 50, 0
2, 77803, Control_c, 0, 64, 101
2, 77822, Control_c, 0, 64, 73
2, 77826, Note_on_c, 0, 67, 64
2, 77833, Note_on_c, 0, 52, 52
2, 77840, Note_on_c, 0, 65, 0
2, 77844, Control_c, 0, 64, 62
2, 77844, Note_on_c, 0, 55, 57
2, 77859, Control_c, 0, 64, 53
2, 77879, Control_c, 0, 64, 46
2, 77884, Note_on_c, 0, 70, 0
2, 77901, Control_c, 0, 64, 38
2, 77916, Control_c, 0, 64, 22
2, 77934, Control_c, 0, 64, 0
2, 78110, Control_c, 0, 64, 25
2, 78130, Control_c, 0, 64, 47
2, 78146, Control_c, 0, 64, 60
2, 78165, Control_c, 0, 64, 66
2, 78186, Control_c, 0, 64, 70
2, 78192, Note_on_c, 0, 64, 70
2, 78197, Note_on_c, 0, 52, 0
2, 78206, Control_c, 0, 64, 81
2, 78228, Control_c, 0, 64, 95
2, 78228, Note_on_c, 0, 55, 0
2, 78228, Note_on_c, 0, 67, 0
2, 78244, Control_c, 0, 64, 127
2, 78512, Control_c, 0, 64, 110
2, 78534, Control_c, 0, 64, 74
2, 78541, Note_on_c, 0, 53, 64
2, 78552, Control_c, 0, 64, 61
2, 78556, Note_on_c, 0, 56, 62
2, 78556, Note_on_c, 0, 64, 0
2, 78565, Note_on_c, 0, 60, 57
2, 78573, Control_c, 0, 64, 50
2, 78589, Control_c, 0, 64, 41
2, 78607, Control_c, 0, 64, 31
2, 78627, Control_c, 0, 64, 0
2, 78917, Note_on_c, 0, 64, 70
2, 78941, Note_on_c, 0, 60, 0
2, 79238, Note_on_c, 0, 64, 0
2, 79243, Control_c, 0, 64, 40
2, 79258, Note_on_c, 0, 65, 65
2, 79259, Control_c, 0, 64, 57
2, 79280, Control_c, 0, 64, 65
2, 79299, Control_c, 0, 64, 73
2, 79319, Control_c, 0, 64, 85
2, 79340, Control_c, 0, 64, 107
2, 79360, Control_c, 0, 64, 127
2, 79384, Note_on_c, 0, 53, 0
2, 79414, Note_on_c, 0, 56, 0
2, 79629, Note_on_c, 0, 71, 60
2, 79740, Control_c, 0, 64, 116
2, 79758, Control_c, 0, 64, 113
2, 79780, Control_c, 0, 64, 110
2, 79800, Control_c, 0, 64, 108
2, 79818, Control_c, 0, 64, 106
2, 79837, Control_c, 0, 64, 105
2, 79855, Control_c, 0, 64, 104
2, 79875, Control_c, 0, 64, 103
2, 79913, Control_c, 0, 64, 101
2, 79932, Control_c, 0, 64, 98
2, 79952, Control_c, 0, 64, 90
2, 79971, Control_c, 0, 64, 78
2, 79993, Control_c, 0, 64, 67
2, 79993, Note_on_c, 0, 71, 0
2, 80013, Control_c, 0, 64, 60
2, 80013, Note_on_c, 0, 72, 52
2, 80014, Note_on_c, 0, 48, 40
2, 80018, Note_on_c, 0, 55, 41
2, 80027, Note_on_c, 0, 65, 0
2, 80029, Control_c, 0, 64, 55
2, 80047, Control_c, 0, 64, 51
2, 80069, Control_c, 0, 64, 45
2, 80086, Control_c, 0, 64, 38
2, 80106, Control_c, 0, 64, 30
2, 80123, Control_c, 0, 64, 22
2, 80143, Control_c, 0, 64, 16
2, 80162, Control_c, 0, 64, 15
2, 80181, Control_c, 0, 64, 14
2, 80201, Control_c, 0, 64, 10
2, 80221, Control_c, 0, 64, 0
2, 80363, Note_on_c, 0, 65, 53
2, 80734, Note_on_c, 0, 64, 62
2, 80749, Note_on_c, 0, 65, 0
2, 81081, Note_on_c, 0, 72, 0
2, 81085, Note_on_c, 0, 67, 61
2, 81429, Note_on_c, 0, 70, 68
2, 81500, Note_on_c, 0, 67, 0
2, 81790, Note_on_c, 0, 73, 73
2, 81879, Note_on_c, 0, 70, 0
2, 82128, Note_on_c, 0, 72, 70
2, 82256, Control_c, 0, 64, 25
2, 82274, Control_c, 0, 64, 46
2, 82295, Control_c, 0, 64, 61
2, 82315, Control_c, 0, 64, 69
2, 82335, Control_c, 0, 64, 83
2, 82355, Control_c, 0, 64, 127
2, 82497, Note_on_c, 0, 49, 59
2, 82497, Note_on_c, 0, 70, 67
2, 82545, Note_on_c, 0, 48, 0
2, 82549, Note_on_c, 0, 49, 0
2, 82560, Note_on_c, 0, 73, 0
2, 82634, Note_on_c, 0, 64, 0
2, 82652, Note_on_c, 0, 72, 0
2, 82689, Note_on_c, 0, 55, 0
2, 82832, Control_c, 0, 64, 110
2, 82851, Control_c, 0, 64, 76
2, 82875, Control_c, 0, 64, 64
2, 82875, Note_on_c, 0, 51, 71
2, 82879, Note_on_c, 0, 53, 69
2, 82879, Note_on_c, 0, 69, 60
2, 82890, Control_c, 0, 64, 57
2, 82906, Note_on_c, 0, 70, 0
2, 82910, Control_c, 0, 64, 54
2, 82929, Control_c, 0, 64, 50
2, 82945, Control_c, 0, 64, 44
2, 82966, Control_c, 0, 64, 37
2, 82988, Control_c, 0, 64, 31
2, 83005, Control_c, 0, 64, 29
2, 83043, Control_c, 0, 64, 28
2, 83063, Control_c, 0, 64, 27
2, 83081, Control_c, 0, 64, 26
2, 83099, Control_c, 0, 64, 25
2, 83226, Note_on_c, 0, 69, 0
2, 83235, Note_on_c, 0, 65, 65
2, 83293, Control_c, 0, 64, 24
2, 83330, Control_c, 0, 64, 23
2, 83446, Control_c, 0, 64, 22
2, 83464, Control_c, 0, 64, 21
2, 83484, Control_c, 0, 64, 20
2, 83504, Control_c, 0, 64, 19
2, 83596, Note_on_c, 0, 69, 65
2, 83611, Note_on_c, 0, 63, 79
2, 83620, Control_c, 0, 64, 18
2, 83642, Note_on_c, 0, 51, 0
2, 83668, Note_on_c, 0, 53, 0
2, 83673, Note_on_c, 0, 65, 0
2, 83677, Control_c, 0, 64, 17
2, 83736, Control_c, 0, 64, 16
2, 83849, Control_c, 0, 64, 15
2, 83871, Control_c, 0, 64, 14
2, 83927, Control_c, 0, 64, 13
2, 83969, Note_on_c, 0, 72, 82
2, 83986, Control_c, 0, 64, 11
2, 84006, Control_c, 0, 64, 10
2, 84008, Note_on_c, 0, 69, 0
2, 84022, Control_c, 0, 64, 9
2, 84041, Control_c, 0, 64, 8
2, 84059, Control_c, 0, 64, 0
2, 84359, Note_on_c, 0, 77, 84
2, 84363, Note_on_c, 0, 61, 68
2, 84380, Note_on_c, 0, 63, 0
2, 84394, Note_on_c, 0, 72, 0
2, 84728, Note_on_c, 0, 70, 71
2, 85101, Note_on_c, 0, 69, 55
2, 85105, Note_on_c, 0, 60, 63
2, 85110, Note_on_c, 0, 70, 0
2, 85117, Note_on_c, 0, 61, 0
2, 85270, Control_c, 0, 64, 30
2, 85288, Control_c, 0, 64, 47
2, 85309, Control_c, 0, 64, 59
2, 85329, Control_c, 0, 64, 65
2, 85347, Control_c, 0, 64, 70
2, 85365, Control_c, 0, 64, 88
2, 85386, Control_c, 0, 64, 127
2, 85401, Note_on_c, 0, 60, 0
2, 85455, Note_on_c, 0, 75, 73
2, 85495, Note_on_c, 0, 77, 0
2, 85533, Note_on_c, 0, 75, 0
2, 85856, Note_on_c, 0, 58, 73
2, 85865, Control_c, 0, 64, 92
2, 85865, Note_on_c, 0, 73, 73
2, 85885, Control_c, 0, 64, 69
2, 85907, Control_c, 0, 64, 57
2, 85907, Note_on_c, 0, 69, 0
2, 85924, Control_c, 0, 64, 48
2, 85942, Control_c, 0, 64, 43
2, 85963, Control_c, 0, 64, 36
2, 85982, Control_c, 0, 64, 25
2, 86002, Control_c, 0, 64, 12
2, 86018, Control_c, 0, 64, 0
2, 86229, Note_on_c, 0, 53, 67
2, 86247, Note_on_c, 0, 68, 61
2, 86576, Note_on_c, 0, 49, 61
2, 86576, Note_on_c, 0, 67, 63
2, 86591, Note_on_c, 0, 68, 0
2, 86609, Note_on_c, 0, 53, 0
2, 86964, Note_on_c, 0, 46, 56
2, 86964, Note_on_c, 0, 70, 59
2, 86980, Control_c, 0, 64, 33
2, 86982, Note_on_c, 0, 67, 0
2, 87001, Control_c, 0, 64, 50
2, 87020, Control_c, 0, 64, 61
2, 87038, Control_c, 0, 64, 64
2, 87047, Note_on_c, 0, 58, 0
2, 87056, Control_c, 0, 64, 66
2, 87076, Control_c, 0, 64, 70
2, 87095, Control_c, 0, 64, 81
2, 87113, Control_c, 0, 64, 115
2, 87117, Note_on_c, 0, 49, 0
2, 87136, Control_c, 0, 64, 127
2, 87307, Control_c, 0, 64, 96
2, 87323, Control_c, 0, 64, 72
2, 87336, Note_on_c, 0, 64, 64
2, 87336, Note_on_c, 0, 70, 0
2, 87341, Note_on_c, 0, 55, 61
2, 87345, Control_c, 0, 64, 61
2, 87363, Control_c, 0, 64, 53
2, 87382, Control_c, 0, 64, 47
2, 87400, Control_c, 0, 64, 42
2, 87420, Control_c, 0, 64, 34
2, 87440, Control_c, 0, 64, 20
2, 87462, Control_c, 0, 64, 0
2, 87698, Note_on_c, 0, 48, 62
2, 87702, Note_on_c, 0, 72, 68
2, 87728, Control_c, 0, 64, 26
2, 87732, Note_on_c, 0, 46, 0
2, 87748, Control_c, 0, 64, 45
2, 87764, Note_on_c, 0, 64, 0
2, 87769, Control_c, 0, 64, 56
2, 87785, Control_c, 0, 64, 61
2, 87804, Control_c, 0, 64, 63
2, 87824, Control_c, 0, 64, 64
2, 87842, Control_c, 0, 64, 68
2, 87862, Control_c, 0, 64, 77
2, 87881, Control_c, 0, 64, 91
2, 87902, Control_c, 0, 64, 109
2, 87919, Control_c, 0, 64, 118
2, 87958, Control_c, 0, 64, 115
2, 87978, Control_c, 0, 64, 100
2, 87997, Control_c, 0, 64, 83
2, 88014, Control_c, 0, 64, 68
2, 88036, Control_c, 0, 64, 61
2, 88051, Note_on_c, 0, 48, 0
2, 88053, Control_c, 0, 64, 56
2, 88062, Note_on_c, 0, 49, 66
2, 88076, Control_c, 0, 64, 53
2, 88076, Note_on_c, 0, 65, 59
2, 88094, Control_c, 0, 64, 48
2, 88112, Control_c, 0, 64, 38
2, 88130, Control_c, 0, 64, 27
2, 88150, Control_c, 0, 64, 14
2, 88170, Control_c, 0, 64, 0
2, 88437, Control_c, 0, 64, 30
2, 88444, Note_on_c, 0, 70, 74
2, 88449, Note_on_c, 0, 46, 62
2, 88459, Control_c, 0, 64, 53
2, 88474, Note_on_c, 0, 73, 0
2, 88478, Control_c, 0, 64, 63
2, 88491, Note_on_c, 0, 49, 0
2, 88496, Control_c, 0, 64, 68
2, 88502, Note_on_c, 0, 65, 0
2, 88515, Control_c, 0, 64, 74
2, 88536, Control_c, 0, 64, 85
2, 88554, Control_c, 0, 64, 101
2, 88574, Control_c, 0, 64, 127
2, 88580, Note_on_c, 0, 72, 0
2, 88590, Note_on_c, 0, 55, 0
2, 88657, Note_on_c, 0, 46, 0
2, 88786, Control_c, 0, 64, 96
2, 88803, Control_c, 0, 64, 68
2, 88808, Note_on_c, 0, 48, 69
2, 88810, Note_on_c, 0, 64, 72
2, 88824, Control_c, 0, 64, 58
2, 88842, Control_c, 0, 64, 50
2, 88859, Control_c, 0, 64, 45
2, 88878, Control_c, 0, 64, 42
2, 88901, Control_c, 0, 64, 36
2, 88920, Control_c, 0, 64, 29
2, 88938, Control_c, 0, 64, 25
2, 88957, Control_c, 0, 64, 23
2, 88976, Control_c, 0, 64, 22
2, 88994, Control_c, 0, 64, 20
2, 89014, Control_c, 0, 64, 17
2, 89033, Control_c, 0, 64, 14
2, 89056, Control_c, 0, 64, 13
2, 89149, Control_c, 0, 64, 12
2, 89166, Control_c, 0, 64, 11
2, 89192, Note_on_c, 0, 73, 84
2, 89199, Note_on_c, 0, 55, 68
2, 89226, Note_on_c, 0, 70, 0
2, 89343, Control_c, 0, 64, 10
2, 89359, Control_c, 0, 64, 0
2, 89567, Note_on_c, 0, 56, 73
2, 89572, Note_on_c, 0, 72, 78
2, 89610, Note_on_c, 0, 55, 0
2, 89615, Note_on_c, 0, 73, 0
2, 89632, Note_on_c, 0, 64, 0
2, 89921, Note_on_c, 0, 59, 77
2, 89923, Note_on_c, 0, 65, 62
2, 89978, Note_on_c, 0, 56, 0
2, 90320, Control_c, 0, 64, 15
2, 90329, Note_on_c, 0, 60, 65
2, 90334, Note_on_c, 0, 59, 0
2, 90342, Control_c, 0, 64, 36
2, 90342, Note_on_c, 0, 68, 65
2, 90358, Control_c, 0, 64, 48
2, 90368, Note_on_c, 0, 72, 0
2, 90377, Note_on_c, 0, 65, 0
2, 90381, Control_c, 0, 64, 57
2, 90397, Control_c, 0, 64, 61
2, 90415, Control_c, 0, 64, 62
2, 90435, Control_c, 0, 64, 63
2, 90453, Control_c, 0, 64, 64
2, 90569, Control_c, 0, 64, 65
2, 90588, Control_c, 0, 64, 66
2, 90606, Control_c, 0, 64, 67
2, 90626, Control_c, 0, 64, 69
2, 90645, Control_c, 0, 64, 71
2, 90665, Control_c, 0, 64, 74
2, 90687, Control_c, 0, 64, 78
2, 90687, Note_on_c, 0, 48, 0
2, 90707, Control_c, 0, 64, 83
2, 90721, Note_on_c, 0, 65, 54
2, 90725, Control_c, 0, 64, 90
2, 90741, Control_c, 0, 64, 100
2, 90762, Control_c, 0, 64, 120
2, 90781, Control_c, 0, 64, 127
2, 91068, Control_c, 0, 64, 105
2, 91088, Control_c, 0, 64, 78
2, 91106, Control_c, 0, 64, 64
2, 91126, Control_c, 0, 64, 53
2, 91126, Note_on_c, 0, 65, 0
2, 91148, Control_c, 0, 64, 35
2, 91153, Note_on_c, 0, 48, 36
2, 91153, Note_on_c, 0, 64, 50
2, 91166, Control_c, 0, 64, 13
2, 91184, Control_c, 0, 64, 0
2, 91203, Control_c, 0, 67, 13
2, 91225, Control_c, 0, 67, 27
2, 91241, Control_c, 0, 67, 42
2, 91261, Control_c, 0, 67, 59
2, 91279, Control_c, 0, 67, 71
2, 91298, Control_c, 0, 67, 80
2, 91318, Control_c, 0, 67, 85
2, 91335, Control_c, 0, 67, 87
2, 91454, Control_c, 0, 64, 15
2, 91473, Control_c, 0, 64, 21
2, 91473, Control_c, 0, 67, 86
2, 91491, Control_c, 0, 64, 28
2, 91515, Control_c, 0, 64, 37
2, 91515, Control_c, 0, 67, 85
2, 91533, Control_c, 0, 64, 46
2, 91533, Control_c, 0, 67, 84
2, 91549, Control_c, 0, 64, 55
2, 91569, Control_c, 0, 64, 59
2, 91591, Control_c, 0, 64, 61
2, 91591, Control_c, 0, 67, 83
2, 91608, Control_c, 0, 64, 62
2, 91612, Note_on_c, 0, 67, 47
2, 91623, Note_on_c, 0, 68, 0
2, 91628, Control_c, 0, 64, 64
2, 91645, Control_c, 0, 64, 68
2, 91665, Control_c, 0, 64, 74
2, 91669, Control_c, 0, 67, 82
2, 91680, Note_on_c, 0, 64, 0
2, 91682, Control_c, 0, 64, 81
2, 91703, Control_c, 0, 64, 85
2, 91720, Control_c, 0, 64, 86
2, 91740, Control_c, 0, 64, 88
2, 91758, Control_c, 0, 64, 93
2, 91778, Control_c, 0, 64, 100
2, 91797, Control_c, 0, 64, 107
2, 91817, Control_c, 0, 64, 112
2, 91835, Control_c, 0, 64, 116
2, 91855, Control_c, 0, 64, 120
2, 91875, Control_c, 0, 64, 127
2, 92202, Control_c, 0, 64, 122
2, 92202, Control_c, 0, 67, 81
2, 92221, Control_c, 0, 64, 90
2, 92234, Note_on_c, 0, 49, 48
2, 92241, Control_c, 0, 64, 70
2, 92245, Note_on_c, 0, 48, 0
2, 92245, Note_on_c, 0, 65, 49
2, 92254, Note_on_c, 0, 67, 0
2, 92260, Control_c, 0, 64, 62
2, 92278, Control_c, 0, 64, 54
2, 92296, Control_c, 0, 64, 48
2, 92315, Control_c, 0, 64, 43
2, 92335, Control_c, 0, 64, 37
2, 92354, Control_c, 0, 64, 32
2, 92376, Control_c, 0, 64, 28
2, 92393, Control_c, 0, 64, 27
2, 92413, Control_c, 0, 64, 26
2, 92431, Control_c, 0, 64, 25
2, 92451, Control_c, 0, 64, 24
2, 92470, Control_c, 0, 64, 23
2, 92690, Note_on_c, 0, 68, 47
2, 92969, Control_c, 0, 64, 24
2, 92989, Control_c, 0, 64, 25
2, 93007, Control_c, 0, 64, 28
2, 93026, Control_c, 0, 64, 30
2, 93045, Control_c, 0, 64, 33
2, 93058, Note_on_c, 0, 72, 54
2, 93065, Control_c, 0, 64, 38
2, 93082, Note_on_c, 0, 68, 0
2, 93087, Control_c, 0, 64, 42
2, 93106, Control_c, 0, 64, 48
2, 93122, Control_c, 0, 64, 53
2, 93141, Control_c, 0, 64, 56
2, 93161, Control_c, 0, 64, 58
2, 93181, Control_c, 0, 64, 60
2, 93199, Control_c, 0, 64, 61
2, 93219, Control_c, 0, 64, 63
2, 93240, Control_c, 0, 64, 64
2, 93258, Control_c, 0, 64, 67
2, 93275, Control_c, 0, 64, 70
2, 93295, Control_c, 0, 64, 75
2, 93314, Control_c, 0, 64, 82
2, 93335, Control_c, 0, 64, 90
2, 93354, Control_c, 0, 64, 103
2, 93372, Control_c, 0, 64, 127
2, 93411, Note_on_c, 0, 65, 0
2, 93413, Note_on_c, 0, 77, 51
2, 93661, Note_on_c, 0, 77, 0
2, 93770, Note_on_c, 0, 67, 61
2, 93775, Note_on_c, 0, 58, 49
2, 93809, Note_on_c, 0, 72, 0
2, 93851, Note_on_c, 0, 60, 0
2, 93873, Control_c, 0, 64, 122
2, 93890, Control_c, 0, 64, 102
2, 93910, Control_c, 0, 64, 95
2, 93929, Control_c, 0, 64, 92
2, 93947, Control_c, 0, 64, 91
2, 93987, Control_c, 0, 64, 90
2, 94006, Control_c, 0, 64, 88
2, 94024, Control_c, 0, 64, 85
2, 94045, Control_c, 0, 64, 82
2, 94063, Control_c, 0, 64, 78
2, 94082, Control_c, 0, 64, 74
2, 94101, Control_c, 0, 64, 69
2, 94121, Control_c, 0, 64, 65
2, 94140, Control_c, 0, 64, 61
2, 94149, Note_on_c, 0, 77, 49
2, 94162, Control_c, 0, 64, 56
2, 94180, Control_c, 0, 64, 48
2, 94198, Control_c, 0, 64, 40
2, 94217, Control_c, 0, 64, 33
2, 94237, Control_c, 0, 64, 28
2, 94255, Control_c, 0, 64, 26
2, 94275, Control_c, 0, 64, 24
2, 94295, Control_c, 0, 64, 21
2, 94312, Control_c, 0, 64, 19
2, 94350, Control_c, 0, 64, 20
2, 94374, Control_c, 0, 64, 24
2, 94389, Control_c, 0, 64, 26
2, 94411, Control_c, 0, 64, 29
2, 94431, Control_c, 0, 64, 34
2, 94448, Control_c, 0, 64, 43
2, 94468, Control_c, 0, 64, 51
2, 94487, Control_c, 0, 64, 58
2, 94487, Note_on_c, 0, 76, 57
2, 94505, Control_c, 0, 64, 61
2, 94525, Control_c, 0, 64, 63
2, 94533, Note_on_c, 0, 77, 0
2, 94544, Control_c, 0, 64, 64
2, 94564, Control_c, 0, 64, 66
2, 94585, Control_c, 0, 64, 71
2, 94601, Control_c, 0, 64, 76
2, 94621, Control_c, 0, 64, 82
2, 94642, Control_c, 0, 64, 86
2, 94659, Control_c, 0, 64, 89
2, 94679, Control_c, 0, 64, 93
2, 94697, Control_c, 0, 64, 99
2, 94719, Control_c, 0, 64, 115
2, 94730, Note_on_c, 0, 58, 0
2, 94737, Control_c, 0, 64, 127
2, 94792, Note_on_c, 0, 49, 0
2, 94851, Note_on_c, 0, 79, 61
2, 94879, Note_on_c, 0, 67, 0
2, 95115, Note_on_c, 0, 76, 0
2, 95231, Note_on_c, 0, 48, 45
2, 95231, Note_on_c, 0, 68, 70
2, 95235, Control_c, 0, 64, 105
2, 95242, Note_on_c, 0, 60, 48
2, 95254, Control_c, 0, 64, 80
2, 95259, Note_on_c, 0, 79, 0
2, 95272, Control_c, 0, 64, 65
2, 95292, Control_c, 0, 64, 58
2, 95312, Control_c, 0, 64, 54
2, 95329, Control_c, 0, 64, 51
2, 95349, Control_c, 0, 64, 48
2, 95369, Control_c, 0, 64, 44
2, 95389, Control_c, 0, 64, 42
2, 95410, Control_c, 0, 64, 40
2, 95446, Control_c, 0, 64, 39
2, 95484, Control_c, 0, 64, 38
2, 95503, Control_c, 0, 64, 36
2, 95540, Control_c, 0, 64, 35
2, 95607, Note_on_c, 0, 72, 61
2, 95657, Control_c, 0, 64, 34
2, 95695, Control_c, 0, 64, 33
2, 95958, Note_on_c, 0, 77, 52
2, 96034, Note_on_c, 0, 72, 0
2, 96327, Note_on_c, 0, 76, 57
2, 96360, Note_on_c, 0, 77, 0
2, 96757, Note_on_c, 0, 56, 46
2, 96761, Note_on_c, 0, 77, 68
2, 96832, Note_on_c, 0, 60, 0
2, 96837, Note_on_c, 0, 76, 0
2, 97133, Note_on_c, 0, 72, 54
2, 97382, Note_on_c, 0, 68, 0
2, 97490, Note_on_c, 0, 70, 45
2, 97635, Control_c, 0, 64, 32
2, 97763, Note_on_c, 0, 72, 0
2, 97808, Control_c, 0, 64, 33
2, 97827, Control_c, 0, 64, 34
2, 97845, Control_c, 0, 64, 36
2, 97858, Note_on_c, 0, 68, 53
2, 97865, Control_c, 0, 64, 38
2, 97884, Control_c, 0, 64, 41
2, 97903, Control_c, 0, 64, 42
2, 97921, Note_on_c, 0, 70, 0
2, 97925, Control_c, 0, 64, 43
2, 98210, Control_c, 0, 64, 42
2, 98237, Note_on_c, 0, 58, 45
2, 98241, Note_on_c, 0, 73, 71
2, 98248, Note_on_c, 0, 56, 0
2, 98275, Note_on_c, 0, 77, 0
2, 98288, Control_c, 0, 64, 41
2, 98288, Note_on_c, 0, 68, 0
2, 98441, Control_c, 0, 64, 40
2, 98612, Note_on_c, 0, 68, 53
2, 98747, Control_c, 0, 64, 39
2, 98921, Control_c, 0, 64, 38
2, 98984, Note_on_c, 0, 67, 55
2, 99023, Note_on_c, 0, 68, 0
2, 99131, Control_c, 0, 64, 37
2, 99345, Control_c, 0, 64, 36
2, 99345, Note_on_c, 0, 70, 51
2, 99353, Note_on_c, 0, 67, 0
2, 99554, Control_c, 0, 67, 80
2, 99577, Control_c, 0, 64, 35
2, 99736, Note_on_c, 0, 64, 64
2, 99755, Note_on_c, 0, 55, 43
2, 99783, Control_c, 0, 64, 34
2, 99799, Note_on_c, 0, 58, 0
2, 99809, Note_on_c, 0, 70, 0
2, 99814, Note_on_c, 0, 73, 0
2, 100113, Note_on_c, 0, 73, 65
2, 100148, Control_c, 0, 64, 33
2, 100378, Control_c, 0, 64, 32
2, 100474, Note_on_c, 0, 72, 66
2, 100547, Note_on_c, 0, 73, 0
2, 100568, Control_c, 0, 64, 31
2, 100799, Control_c, 0, 64, 33
2, 100819, Control_c, 0, 64, 39
2, 100841, Control_c, 0, 64, 47
2, 100841, Note_on_c, 0, 70, 64
2, 100857, Control_c, 0, 64, 54
2, 100875, Control_c, 0, 64, 57
2, 100891, Note_on_c, 0, 72, 0
2, 100898, Control_c, 0, 64, 59
2, 100898, Note_on_c, 0, 64, 0
2, 100914, Control_c, 0, 64, 61
2, 100934, Control_c, 0, 64, 62
2, 100951, Control_c, 0, 64, 64
2, 100974, Control_c, 0, 64, 65
2, 100993, Control_c, 0, 64, 66
2, 101009, Control_c, 0, 64, 67
2, 101029, Control_c, 0, 64, 68
2, 101048, Control_c, 0, 64, 69
2, 101068, Control_c, 0, 64, 70
2, 101089, Control_c, 0, 64, 71
2, 101107, Control_c, 0, 64, 72
2, 101164, Control_c, 0, 64, 71
2, 101184, Control_c, 0, 64, 68
2, 101203, Control_c, 0, 64, 65
2, 101220, Control_c, 0, 64, 62
2, 101229, Note_on_c, 0, 56, 49
2, 101233, Note_on_c, 0, 68, 65
2, 101242, Note_on_c, 0, 65, 53
2, 101244, Control_c, 0, 64, 59
2, 101244, Note_on_c, 0, 55, 0
2, 101252, Note_on_c, 0, 70, 0
2, 101261, Control_c, 0, 64, 56
2, 101266, Control_c, 0, 67, 79
2, 101282, Control_c, 0, 64, 52
2, 101300, Control_c, 0, 64, 49
2, 101300, Control_c, 0, 67, 78
2, 101319, Control_c, 0, 64, 43
2, 101319, Control_c, 0, 67, 76
2, 101339, Control_c, 0, 64, 37
2, 101357, Control_c, 0, 64, 35
2, 101361, Control_c, 0, 67, 75
2, 101376, Control_c, 0, 64, 34
2, 101396, Control_c, 0, 64, 33
2, 101396, Control_c, 0, 67, 74
2, 101414, Control_c, 0, 64, 32
2, 101434, Control_c, 0, 64, 31
2, 101452, Control_c, 0, 64, 30
2, 101511, Control_c, 0, 67, 75
2, 101548, Control_c, 0, 67, 76
2, 101559, Note_on_c, 0, 65, 0
2, 101568, Control_c, 0, 67, 77
2, 101594, Note_on_c, 0, 63, 45
2, 101607, Control_c, 0, 67, 78
2, 101682, Control_c, 0, 67, 79
2, 101724, Control_c, 0, 64, 29
2, 101724, Control_c, 0, 67, 80
2, 101739, Control_c, 0, 67, 81
2, 101778, Control_c, 0, 67, 82
2, 101938, Note_on_c, 0, 62, 56
2, 101978, Note_on_c, 0, 63, 0
2, 102126, Control_c, 0, 67, 83
2, 102144, Control_c, 0, 64, 28
2, 102239, Control_c, 0, 64, 27
2, 102297, Note_on_c, 0, 62, 0
2, 102312, Note_on_c, 0, 65, 46
2, 102547, Control_c, 0, 64, 28
2, 102568, Control_c, 0, 64, 31
2, 102585, Control_c, 0, 64, 35
2, 102606, Control_c, 0, 64, 42
2, 102623, Control_c, 0, 64, 50
2, 102643, Control_c, 0, 64, 55
2, 102663, Control_c, 0, 64, 58
2, 102680, Control_c, 0, 64, 60
2, 102691, Note_on_c, 0, 53, 39
2, 102691, Note_on_c, 0, 56, 0
2, 102691, Note_on_c, 0, 59, 49
2, 102700, Control_c, 0, 64, 62
2, 102719, Control_c, 0, 64, 63
2, 102724, Note_on_c, 0, 65, 0
2, 102742, Control_c, 0, 64, 64
2, 102742, Note_on_c, 0, 68, 0
2, 102760, Control_c, 0, 64, 66
2, 102777, Control_c, 0, 64, 67
2, 102797, Control_c, 0, 64, 69
2, 102819, Control_c, 0, 64, 71
2, 102834, Control_c, 0, 64, 73
2, 103007, Control_c, 0, 67, 84
2, 103026, Control_c, 0, 64, 72
2, 103065, Control_c, 0, 64, 71
2, 103125, Control_c, 0, 64, 70
2, 103125, Note_on_c, 0, 68, 49
2, 103333, Control_c, 0, 64, 69
2, 103410, Control_c, 0, 64, 68
2, 103487, Note_on_c, 0, 67, 43
2, 103529, Control_c, 0, 64, 67
2, 103529, Note_on_c, 0, 68, 0
2, 103603, Control_c, 0, 64, 66
2, 103717, Control_c, 0, 64, 65
2, 103831, Control_c, 0, 64, 64
2, 103860, Note_on_c, 0, 65, 41
2, 103924, Note_on_c, 0, 67, 0
2, 104141, Control_c, 0, 64, 63
2, 104244, Note_on_c, 0, 53, 0
2, 104252, Note_on_c, 0, 65, 0
2, 104257, Note_on_c, 0, 55, 34
2, 104261, Note_on_c, 0, 64, 43
2, 104351, Control_c, 0, 64, 62
2, 104358, Note_on_c, 0, 59, 0
2, 104544, Control_c, 0, 64, 61
2, 104630, Note_on_c, 0, 60, 43
2, 104943, Note_on_c, 0, 60, 0
2, 104963, Note_on_c, 0, 58, 49
2, 105004, Control_c, 0, 64, 62
2, 105062, Control_c, 0, 64, 63
2, 105081, Control_c, 0, 64, 64
2, 105100, Control_c, 0, 64, 65
2, 105120, Control_c, 0, 64, 66
2, 105140, Control_c, 0, 64, 67
2, 105159, Control_c, 0, 64, 68
2, 105176, Control_c, 0, 64, 70
2, 105196, Control_c, 0, 64, 71
2, 105215, Control_c, 0, 64, 73
2, 105233, Control_c, 0, 64, 74
2, 105253, Control_c, 0, 64, 76
2, 105273, Control_c, 0, 64, 77
2, 105296, Note_on_c, 0, 55, 0
2, 105307, Note_on_c, 0, 58, 0
2, 105338, Note_on_c, 0, 61, 48
2, 105502, Control_c, 0, 64, 76
2, 105639, Note_on_c, 0, 61, 0
2, 105677, Note_on_c, 0, 52, 45
2, 105678, Control_c, 0, 64, 75
2, 105686, Note_on_c, 0, 55, 44
2, 105696, Control_c, 0, 64, 74
2, 105716, Control_c, 0, 64, 73
2, 105733, Control_c, 0, 64, 69
2, 105755, Control_c, 0, 64, 64
2, 105773, Control_c, 0, 64, 60
2, 105791, Control_c, 0, 64, 57
2, 105809, Control_c, 0, 64, 54
2, 105829, Control_c, 0, 64, 50
2, 105849, Control_c, 0, 64, 45
2, 105871, Control_c, 0, 64, 40
2, 105887, Control_c, 0, 64, 38
2, 105906, Control_c, 0, 64, 37
2, 106002, Control_c, 0, 64, 36
2, 106052, Note_on_c, 0, 61, 44
2, 106117, Control_c, 0, 64, 37
2, 106214, Control_c, 0, 64, 38
2, 106232, Control_c, 0, 64, 39
2, 106253, Control_c, 0, 64, 40
2, 106275, Control_c, 0, 64, 41
2, 106292, Control_c, 0, 64, 43
2, 106312, Control_c, 0, 64, 45
2, 106330, Control_c, 0, 64, 48
2, 106349, Control_c, 0, 64, 52
2, 106370, Control_c, 0, 64, 55
2, 106370, Note_on_c, 0, 61, 0
2, 106387, Control_c, 0, 64, 57
2, 106396, Note_on_c, 0, 60, 45
2, 106409, Control_c, 0, 64, 58
2, 106426, Control_c, 0, 64, 60
2, 106445, Control_c, 0, 64, 61
2, 106462, Control_c, 0, 64, 62
2, 106502, Control_c, 0, 64, 63
2, 106522, Control_c, 0, 64, 64
2, 106540, Control_c, 0, 64, 65
2, 106549, Note_on_c, 0, 52, 0
2, 106559, Control_c, 0, 64, 66
2, 106580, Control_c, 0, 64, 68
2, 106597, Control_c, 0, 64, 70
2, 106617, Control_c, 0, 64, 73
2, 106638, Control_c, 0, 64, 76
2, 106655, Control_c, 0, 64, 78
2, 106674, Control_c, 0, 64, 81
2, 106692, Control_c, 0, 64, 85
2, 106713, Control_c, 0, 64, 89
2, 106734, Control_c, 0, 64, 92
2, 106754, Control_c, 0, 64, 96
2, 106754, Note_on_c, 0, 60, 0
2, 106771, Control_c, 0, 64, 99
2, 106771, Note_on_c, 0, 58, 47
2, 106791, Control_c, 0, 64, 102
2, 106809, Control_c, 0, 64, 105
2, 106827, Control_c, 0, 64, 108
2, 106840, Note_on_c, 0, 55, 0
2, 106850, Control_c, 0, 64, 109
2, 106866, Control_c, 0, 64, 110
2, 106886, Control_c, 0, 64, 111
2, 106889, Note_on_c, 0, 58, 0
2, 106907, Note_on_c, 0, 64, 0
2, 107041, Control_c, 0, 64, 110
2, 107057, Control_c, 0, 64, 108
2, 107077, Control_c, 0, 64, 103
2, 107096, Control_c, 0, 64, 96
2, 107117, Control_c, 0, 64, 84
2, 107135, Control_c, 0, 64, 73
2, 107144, Note_on_c, 0, 53, 48
2, 107155, Control_c, 0, 64, 65
2, 107162, Note_on_c, 0, 56, 47
2, 107173, Control_c, 0, 64, 60
2, 107192, Control_c, 0, 64, 57
2, 107215, Control_c, 0, 64, 54
2, 107233, Control_c, 0, 64, 50
2, 107250, Control_c, 0, 64, 45
2, 107268, Control_c, 0, 64, 41
2, 107288, Control_c, 0, 64, 39
2, 107326, Control_c, 0, 64, 38
2, 107346, Control_c, 0, 64, 37
2, 107365, Control_c, 0, 64, 35
2, 107387, Control_c, 0, 64, 33
2, 107387, Control_c, 0, 67, 83
2, 107481, Note_on_c, 0, 72, 55
2, 107501, Control_c, 0, 67, 82
2, 107520, Control_c, 0, 64, 35
2, 107520, Control_c, 0, 67, 81
2, 107539, Control_c, 0, 64, 37
2, 107541, Control_c, 0, 67, 80
2, 107557, Control_c, 0, 64, 40
2, 107577, Control_c, 0, 64, 45
2, 107577, Control_c, 0, 67, 79
2, 107599, Control_c, 0, 64, 50
2, 107616, Control_c, 0, 64, 54
2, 107616, Control_c, 0, 67, 78
2, 107636, Control_c, 0, 64, 56
2, 107636, Control_c, 0, 67, 76
2, 107656, Control_c, 0, 64, 58
2, 107656, Control_c, 0, 67, 74
2, 107674, Control_c, 0, 67, 73
2, 107694, Control_c, 0, 64, 59
2, 107694, Control_c, 0, 67, 72
2, 107712, Control_c, 0, 67, 71
2, 107732, Control_c, 0, 64, 60
2, 107732, Control_c, 0, 67, 69
2, 107752, Control_c, 0, 67, 67
2, 107768, Control_c, 0, 67, 62
2, 107790, Control_c, 0, 64, 61
2, 107790, Control_c, 0, 67, 51
2, 107808, Control_c, 0, 67, 41
2, 107828, Control_c, 0, 67, 33
2, 107842, Note_on_c, 0, 72, 0
2, 107848, Control_c, 0, 64, 63
2, 107848, Control_c, 0, 67, 32
2, 107852, Note_on_c, 0, 70, 56
2, 107886, Control_c, 0, 64, 64
2, 107886, Control_c, 0, 67, 33
2, 107921, Control_c, 0, 67, 34
2, 107960, Control_c, 0, 64, 65
2, 108001, Control_c, 0, 67, 33
2, 108056, Control_c, 0, 67, 32
2, 108079, Control_c, 0, 64, 66
2, 108079, Control_c, 0, 67, 31
2, 108096, Control_c, 0, 67, 29
2, 108118, Control_c, 0, 64, 67
2, 108118, Control_c, 0, 67, 25
2, 108128, Note_on_c, 0, 53, 0
2, 108135, Control_c, 0, 67, 12
2, 108152, Control_c, 0, 67, 0
2, 108171, Note_on_c, 0, 56, 0
2, 108176, Control_c, 0, 64, 68
2, 108183, Note_on_c, 0, 70, 0
2, 108199, Note_on_c, 0, 73, 59
2, 108211, Control_c, 0, 64, 69
2, 108307, Control_c, 0, 64, 70
2, 108403, Control_c, 0, 64, 71
2, 108440, Control_c, 0, 64, 72
2, 108463, Control_c, 0, 64, 73
2, 108480, Control_c, 0, 64, 74
2, 108499, Control_c, 0, 64, 73
2, 108517, Note_on_c, 0, 73, 0
2, 108521, Control_c, 0, 64, 70
2, 108537, Control_c, 0, 64, 67
2, 108548, Note_on_c, 0, 64, 54
2, 108550, Note_on_c, 0, 55, 50
2, 108557, Control_c, 0, 64, 64
2, 108561, Note_on_c, 0, 58, 52
2, 108574, Control_c, 0, 64, 61
2, 108594, Control_c, 0, 64, 59
2, 108614, Control_c, 0, 64, 55
2, 108635, Control_c, 0, 64, 52
2, 108652, Control_c, 0, 64, 49
2, 108670, Control_c, 0, 64, 46
2, 108690, Control_c, 0, 64, 43
2, 108710, Control_c, 0, 64, 40
2, 108727, Control_c, 0, 64, 37
2, 108747, Control_c, 0, 64, 34
2, 108767, Control_c, 0, 64, 32
2, 108786, Control_c, 0, 64, 31
2, 108824, Control_c, 0, 64, 29
2, 108847, Control_c, 0, 64, 26
2, 108864, Control_c, 0, 64, 24
2, 108882, Control_c, 0, 64, 23
2, 108904, Control_c, 0, 64, 22
2, 108917, Note_on_c, 0, 73, 66
2, 108941, Control_c, 0, 64, 20
2, 108959, Control_c, 0, 64, 17
2, 108980, Control_c, 0, 64, 16
2, 108998, Control_c, 0, 64, 15
2, 109267, Control_c, 0, 64, 17
2, 109267, Note_on_c, 0, 72, 65
2, 109269, Note_on_c, 0, 64, 0
2, 109288, Control_c, 0, 64, 21
2, 109304, Control_c, 0, 64, 25
2, 109325, Control_c, 0, 64, 30
2, 109343, Control_c, 0, 64, 36
2, 109361, Control_c, 0, 64, 42
2, 109382, Control_c, 0, 64, 49
2, 109402, Control_c, 0, 64, 57
2, 109420, Control_c, 0, 64, 62
2, 109438, Control_c, 0, 64, 65
2, 109462, Control_c, 0, 64, 67
2, 109462, Note_on_c, 0, 55, 0
2, 109481, Control_c, 0, 64, 70
2, 109498, Control_c, 0, 64, 77
2, 109504, Note_on_c, 0, 58, 0
2, 109515, Control_c, 0, 64, 87
2, 109534, Control_c, 0, 64, 100
2, 109556, Control_c, 0, 64, 116
2, 109574, Control_c, 0, 64, 127
2, 109591, Note_on_c, 0, 70, 73
2, 109614, Note_on_c, 0, 73, 0
2, 109639, Note_on_c, 0, 72, 0
2, 109882, Control_c, 0, 64, 77
2, 109899, Control_c, 0, 64, 57
2, 109921, Control_c, 0, 64, 36
2, 109939, Control_c, 0, 64, 28
2, 109952, Note_on_c, 0, 56, 54
2, 109961, Note_on_c, 0, 70, 0
2, 109979, Note_on_c, 0, 60, 47
2, 109979, Note_on_c, 0, 68, 68
2, 109983, Control_c, 0, 64, 35
2, 109996, Control_c, 0, 64, 48
2, 110016, Control_c, 0, 64, 55
2, 110034, Control_c, 0, 64, 59
2, 110054, Control_c, 0, 64, 62
2, 110073, Control_c, 0, 64, 64
2, 110093, Control_c, 0, 64, 66
2, 110109, Control_c, 0, 64, 68
2, 110131, Control_c, 0, 64, 70
2, 110131, Note_on_c, 0, 68, 0
2, 110152, Control_c, 0, 64, 71
2, 110244, Control_c, 0, 64, 70
2, 110264, Control_c, 0, 64, 69
2, 110287, Control_c, 0, 64, 68
2, 110295, Note_on_c, 0, 79, 76
2, 110321, Control_c, 0, 64, 67
2, 110342, Control_c, 0, 64, 65
2, 110384, Control_c, 0, 64, 64
2, 110457, Control_c, 0, 64, 63
2, 110534, Control_c, 0, 64, 62
2, 110647, Note_on_c, 0, 77, 76
2, 110649, Control_c, 0, 64, 61
2, 110686, Control_c, 0, 64, 60
2, 110706, Control_c, 0, 64, 59
2, 110728, Control_c, 0, 64, 58
2, 110744, Control_c, 0, 64, 57
2, 110766, Control_c, 0, 64, 55
2, 110786, Control_c, 0, 64, 53
2, 110804, Control_c, 0, 64, 51
2, 110822, Control_c, 0, 64, 46
2, 110841, Control_c, 0, 64, 40
2, 110859, Control_c, 0, 64, 29
2, 110879, Control_c, 0, 64, 0
2, 111018, Note_on_c, 0, 80, 80
2, 111032, Control_c, 0, 64, 35
2, 111054, Control_c, 0, 64, 53
2, 111072, Control_c, 0, 64, 62
2, 111092, Control_c, 0, 64, 65
2, 111101, Note_on_c, 0, 56, 0
2, 111110, Control_c, 0, 64, 68
2, 111121, Note_on_c, 0, 77, 0
2, 111130, Control_c, 0, 64, 74
2, 111150, Control_c, 0, 64, 87
2, 111168, Control_c, 0, 64, 127
2, 111321, Note_on_c, 0, 79, 0
2, 111362, Note_on_c, 0, 80, 0
2, 111371, Note_on_c, 0, 53, 62
2, 111371, Note_on_c, 0, 71, 72
2, 111380, Control_c, 0, 64, 106
2, 111384, Note_on_c, 0, 56, 67
2, 111399, Control_c, 0, 64, 85
2, 111399, Note_on_c, 0, 60, 0
2, 111417, Control_c, 0, 64, 73
2, 111437, Control_c, 0, 64, 67
2, 111454, Control_c, 0, 64, 64
2, 111474, Control_c, 0, 64, 62
2, 111493, Control_c, 0, 64, 61
2, 111512, Control_c, 0, 64, 58
2, 111534, Control_c, 0, 64, 56
2, 111551, Control_c, 0, 64, 55
2, 111573, Control_c, 0, 64, 54
2, 111591, Control_c, 0, 64, 53
2, 111609, Control_c, 0, 64, 52
2, 111627, Control_c, 0, 64, 51
2, 111647, Control_c, 0, 64, 49
2, 111687, Control_c, 0, 64, 48
2, 111706, Control_c, 0, 64, 47
2, 111724, Control_c, 0, 64, 46
2, 111739, Note_on_c, 0, 80, 78
2, 111810, Note_on_c, 0, 71, 0
2, 112031, Control_c, 0, 64, 47
2, 112050, Control_c, 0, 64, 48
2, 112068, Control_c, 0, 64, 50
2, 112079, Note_on_c, 0, 79, 75
2, 112088, Control_c, 0, 64, 53
2, 112108, Control_c, 0, 64, 56
2, 112127, Control_c, 0, 64, 59
2, 112145, Control_c, 0, 64, 62
2, 112166, Control_c, 0, 64, 65
2, 112186, Control_c, 0, 64, 69
2, 112205, Control_c, 0, 64, 78
2, 112223, Control_c, 0, 64, 96
2, 112243, Control_c, 0, 64, 127
2, 112243, Note_on_c, 0, 56, 0
2, 112302, Note_on_c, 0, 53, 0
2, 112445, Note_on_c, 0, 77, 80
2, 112461, Note_on_c, 0, 80, 0
2, 112513, Note_on_c, 0, 79, 0
2, 112801, Control_c, 0, 64, 103
2, 112806, Note_on_c, 0, 55, 67
2, 112810, Note_on_c, 0, 58, 68
2, 112815, Note_on_c, 0, 77, 0
2, 112819, Control_c, 0, 64, 77
2, 112824, Note_on_c, 0, 76, 69
2, 112839, Control_c, 0, 64, 66
2, 112856, Control_c, 0, 64, 61
2, 112878, Control_c, 0, 64, 57
2, 112896, Control_c, 0, 64, 54
2, 112914, Control_c, 0, 64, 49
2, 112935, Control_c, 0, 64, 43
2, 112953, Control_c, 0, 64, 35
2, 112971, Control_c, 0, 64, 25
2, 112993, Control_c, 0, 64, 0
2, 113178, Note_on_c, 0, 77, 81
2, 113254, Note_on_c, 0, 76, 0
2, 113532, Note_on_c, 0, 79, 81
2, 113572, Note_on_c, 0, 77, 0
2, 113856, Control_c, 0, 64, 45
2, 113877, Control_c, 0, 64, 62
2, 113877, Note_on_c, 0, 76, 83
2, 113893, Control_c, 0, 64, 74
2, 113901, Note_on_c, 0, 79, 0
2, 113916, Control_c, 0, 64, 116
2, 113932, Control_c, 0, 64, 127
2, 113936, Note_on_c, 0, 55, 0
2, 113951, Note_on_c, 0, 58, 0
2, 114279, Control_c, 0, 64, 82
2, 114279, Note_on_c, 0, 82, 79
2, 114283, Note_on_c, 0, 52, 60
2, 114288, Note_on_c, 0, 55, 62
2, 114299, Control_c, 0, 64, 65
2, 114315, Control_c, 0, 64, 56
2, 114324, Note_on_c, 0, 76, 0
2, 114335, Control_c, 0, 64, 48
2, 114353, Control_c, 0, 64, 40
2, 114373, Control_c, 0, 64, 25
2, 114395, Control_c, 0, 64, 0
2, 114662, Note_on_c, 0, 73, 77
2, 114724, Note_on_c, 0, 82, 0
2, 114874, Control_c, 0, 64, 19
2, 114890, Control_c, 0, 64, 29
2, 114910, Control_c, 0, 64, 30
2, 114932, Control_c, 0, 64, 33
2, 114949, Control_c, 0, 64, 37
2, 114968, Control_c, 0, 64, 48
2, 114988, Control_c, 0, 64, 58
2, 115007, Control_c, 0, 64, 60
2, 115016, Note_on_c, 0, 72, 72
2, 115027, Note_on_c, 0, 73, 0
2, 115085, Control_c, 0, 64, 61
2, 115103, Control_c, 0, 64, 63
2, 115181, Control_c, 0, 64, 64
2, 115335, Control_c, 0, 64, 65
2, 115362, Note_on_c, 0, 70, 68
2, 115372, Control_c, 0, 64, 67
2, 115394, Control_c, 0, 64, 68
2, 115394, Note_on_c, 0, 72, 0
2, 115410, Control_c, 0, 64, 69
2, 115430, Control_c, 0, 64, 70
2, 115452, Control_c, 0, 64, 71
2, 115470, Control_c, 0, 64, 73
2, 115487, Control_c, 0, 64, 75
2, 115509, Control_c, 0, 64, 77
2, 115526, Control_c, 0, 64, 79
2, 115547, Control_c, 0, 64, 81
2, 115548, Note_on_c, 0, 55, 0
2, 115564, Control_c, 0, 64, 82
2, 115582, Control_c, 0, 64, 83
2, 115602, Control_c, 0, 64, 84
2, 115611, Note_on_c, 0, 52, 0
2, 115622, Control_c, 0, 64, 85
2, 115680, Control_c, 0, 64, 83
2, 115700, Control_c, 0, 64, 78
2, 115716, Control_c, 0, 64, 72
2, 115739, Control_c, 0, 64, 66
2, 115747, Note_on_c, 0, 70, 0
2, 115752, Note_on_c, 0, 53, 50
2, 115752, Note_on_c, 0, 68, 67
2, 115756, Control_c, 0, 64, 62
2, 115756, Note_on_c, 0, 60, 51
2, 115774, Control_c, 0, 64, 58
2, 115794, Control_c, 0, 64, 56
2, 115813, Control_c, 0, 64, 54
2, 115833, Control_c, 0, 64, 51
2, 115852, Control_c, 0, 64, 49
2, 115871, Control_c, 0, 64, 46
2, 115892, Control_c, 0, 64, 44
2, 115947, Control_c, 0, 64, 43
2, 115968, Control_c, 0, 64, 42
2, 116105, Note_on_c, 0, 70, 68
2, 116129, Note_on_c, 0, 68, 0
2, 116160, Control_c, 0, 64, 41
2, 116333, Control_c, 0, 64, 40
2, 116351, Control_c, 0, 64, 39
2, 116472, Note_on_c, 0, 72, 66
2, 116478, Note_on_c, 0, 70, 0
2, 116505, Control_c, 0, 64, 38
2, 116639, Control_c, 0, 64, 37
2, 116657, Control_c, 0, 64, 36
2, 116736, Control_c, 0, 64, 39
2, 116754, Control_c, 0, 64, 43
2, 116775, Control_c, 0, 64, 52
2, 116791, Control_c, 0, 64, 59
2, 116813, Control_c, 0, 64, 63
2, 116813, Note_on_c, 0, 72, 0
2, 116834, Control_c, 0, 64, 65
2, 116841, Note_on_c, 0, 65, 52
2, 116853, Control_c, 0, 64, 69
2, 116868, Control_c, 0, 64, 76
2, 116888, Control_c, 0, 64, 91
2, 116908, Control_c, 0, 64, 116
2, 116917, Note_on_c, 0, 60, 0
2, 116928, Control_c, 0, 64, 127
2, 117254, Control_c, 0, 64, 97
2, 117263, Note_on_c, 0, 74, 55
2, 117272, Control_c, 0, 64, 76
2, 117281, Note_on_c, 0, 59, 42
2, 117292, Control_c, 0, 64, 64
2, 117310, Control_c, 0, 64, 59
2, 117329, Control_c, 0, 64, 56
2, 117349, Control_c, 0, 64, 53
2, 117371, Control_c, 0, 64, 49
2, 117386, Control_c, 0, 64, 44
2, 117406, Control_c, 0, 64, 41
2, 117425, Control_c, 0, 64, 39
2, 117445, Control_c, 0, 64, 38
2, 117464, Control_c, 0, 64, 37
2, 117483, Control_c, 0, 64, 35
2, 117505, Control_c, 0, 64, 33
2, 117523, Control_c, 0, 64, 30
2, 117608, Note_on_c, 0, 74, 0
2, 117621, Note_on_c, 0, 68, 56
2, 117638, Control_c, 0, 64, 29
2, 117652, Note_on_c, 0, 65, 0
2, 117716, Control_c, 0, 64, 28
2, 117732, Control_c, 0, 64, 27
2, 117829, Control_c, 0, 64, 26
2, 117847, Control_c, 0, 64, 25
2, 117886, Control_c, 0, 64, 24
2, 117924, Control_c, 0, 64, 23
2, 117945, Control_c, 0, 64, 22
2, 117991, Note_on_c, 0, 67, 54
2, 118002, Control_c, 0, 64, 21
2, 118022, Control_c, 0, 64, 20
2, 118062, Note_on_c, 0, 68, 0
2, 118118, Control_c, 0, 64, 19
2, 118137, Control_c, 0, 64, 18
2, 118174, Control_c, 0, 64, 17
2, 118214, Control_c, 0, 64, 15
2, 118232, Control_c, 0, 64, 13
2, 118291, Control_c, 0, 64, 15
2, 118310, Control_c, 0, 64, 21
2, 118328, Control_c, 0, 64, 28
2, 118346, Note_on_c, 0, 67, 0
2, 118348, Control_c, 0, 64, 36
2, 118359, Note_on_c, 0, 65, 53
2, 118366, Control_c, 0, 64, 46
2, 118386, Control_c, 0, 64, 55
2, 118405, Control_c, 0, 64, 61
2, 118423, Control_c, 0, 64, 64
2, 118442, Control_c, 0, 64, 66
2, 118464, Control_c, 0, 64, 69
2, 118483, Control_c, 0, 64, 76
2, 118503, Control_c, 0, 64, 86
2, 118520, Control_c, 0, 64, 99
2, 118539, Control_c, 0, 64, 120
2, 118558, Control_c, 0, 64, 127
2, 118710, Note_on_c, 0, 59, 0
2, 118732, Control_c, 0, 64, 106
2, 118750, Note_on_c, 0, 53, 0
2, 118755, Control_c, 0, 64, 79
2, 118766, Note_on_c, 0, 64, 52
2, 118770, Control_c, 0, 64, 66
2, 118770, Note_on_c, 0, 65, 0
2, 118777, Note_on_c, 0, 55, 39
2, 118788, Control_c, 0, 64, 59
2, 118808, Control_c, 0, 64, 54
2, 118830, Control_c, 0, 64, 51
2, 118847, Control_c, 0, 64, 46
2, 118866, Control_c, 0, 64, 41
2, 118887, Control_c, 0, 64, 37
2, 118904, Control_c, 0, 64, 36
2, 118945, Control_c, 0, 64, 35
2, 118963, Control_c, 0, 64, 34
2, 118980, Control_c, 0, 64, 33
2, 119133, Note_on_c, 0, 60, 50
2, 119249, Control_c, 0, 64, 34
2, 119269, Control_c, 0, 64, 35
2, 119284, Note_on_c, 0, 55, 0
2, 119288, Control_c, 0, 64, 36
2, 119308, Control_c, 0, 64, 38
2, 119328, Control_c, 0, 64, 40
2, 119346, Control_c, 0, 64, 43
2, 119366, Control_c, 0, 64, 50
2, 119384, Control_c, 0, 64, 56
2, 119403, Control_c, 0, 64, 60
2, 119422, Control_c, 0, 64, 61
2, 119462, Control_c, 0, 64, 62
2, 119475, Note_on_c, 0, 60, 0
2, 119480, Control_c, 0, 64, 63
2, 119485, Note_on_c, 0, 55, 44
2, 119500, Control_c, 0, 64, 64
2, 119520, Control_c, 0, 64, 65
2, 119539, Control_c, 0, 64, 66
2, 119556, Control_c, 0, 64, 68
2, 119576, Control_c, 0, 64, 72
2, 119598, Control_c, 0, 64, 79
2, 119617, Control_c, 0, 64, 89
2, 119633, Control_c, 0, 64, 103
2, 119655, Control_c, 0, 64, 118
2, 119672, Control_c, 0, 64, 127
2, 119803, Note_on_c, 0, 64, 0
2, 119850, Note_on_c, 0, 55, 0
2, 119856, Note_on_c, 0, 58, 54
2, 119924, Note_on_c, 0, 48, 0
2, 120269, Control_c, 0, 64, 100
2, 120271, Note_on_c, 0, 65, 66
2, 120276, Note_on_c, 0, 56, 63
2, 120286, Control_c, 0, 64, 76
2, 120306, Control_c, 0, 64, 64
2, 120324, Control_c, 0, 64, 55
2, 120347, Control_c, 0, 64, 50
2, 120358, Note_on_c, 0, 58, 0
2, 120362, Control_c, 0, 64, 46
2, 120385, Control_c, 0, 64, 41
2, 120403, Control_c, 0, 64, 34
2, 120422, Control_c, 0, 64, 27
2, 120439, Control_c, 0, 64, 24
2, 120478, Control_c, 0, 64, 23
2, 120498, Control_c, 0, 64, 22
2, 120515, Control_c, 0, 64, 18
2, 120537, Control_c, 0, 64, 17
2, 120557, Control_c, 0, 64, 16
2, 120646, Note_on_c, 0, 53, 52
2, 120957, Control_c, 0, 64, 18
2, 120962, Note_on_c, 0, 53, 0
2, 120978, Control_c, 0, 64, 22
2, 120997, Control_c, 0, 64, 28
2, 121001, Note_on_c, 0, 47, 47
2, 121017, Control_c, 0, 64, 35
2, 121038, Control_c, 0, 64, 43
2, 121059, Control_c, 0, 64, 51
2, 121074, Control_c, 0, 64, 57
2, 121096, Control_c, 0, 64, 61
2, 121113, Control_c, 0, 64, 62
2, 121132, Control_c, 0, 64, 64
2, 121150, Control_c, 0, 64, 67
2, 121169, Control_c, 0, 64, 71
2, 121192, Control_c, 0, 64, 79
2, 121210, Control_c, 0, 64, 92
2, 121229, Control_c, 0, 64, 109
2, 121235, Note_on_c, 0, 65, 0
2, 121246, Control_c, 0, 64, 127
2, 121310, Note_on_c, 0, 47, 0
2, 121357, Note_on_c, 0, 56, 0
2, 121377, Note_on_c, 0, 50, 51
2, 121505, Note_on_c, 0, 50, 0
2, 121781, Control_c, 0, 64, 82
2, 121795, Note_on_c, 0, 36, 43
2, 121795, Note_on_c, 0, 55, 49
2, 121803, Control_c, 0, 64, 66
2, 121819, Control_c, 0, 64, 57
2, 121838, Control_c, 0, 64, 50
2, 121858, Control_c, 0, 64, 43
2, 121877, Control_c, 0, 64, 35
2, 121896, Control_c, 0, 64, 23
2, 121915, Control_c, 0, 64, 10
2, 121935, Control_c, 0, 64, 0
2, 122163, Note_on_c, 0, 62, 57
2, 122542, Note_on_c, 0, 62, 0
2, 122565, Note_on_c, 0, 59, 53
2, 122570, Note_on_c, 0, 53, 54
2, 122606, Note_on_c, 0, 55, 0
2, 122941, Note_on_c, 0, 59, 0
2, 122955, Note_on_c, 0, 60, 53
2, 123349, Note_on_c, 0, 53, 0
2, 123369, Note_on_c, 0, 55, 51
2, 123823, Note_on_c, 0, 58, 52
2, 123832, Note_on_c, 0, 60, 0
2, 124315, Note_on_c, 0, 60, 59
2, 124737, Control_c, 0, 64, 11
2, 124756, Control_c, 0, 64, 21
2, 124776, Control_c, 0, 64, 31
2, 124794, Control_c, 0, 64, 41
2, 124814, Control_c, 0, 64, 49
2, 124836, Control_c, 0, 64, 55
2, 124853, Control_c, 0, 64, 59
2, 124873, Control_c, 0, 64, 61
2, 124891, Control_c, 0, 64, 62
2, 124900, Note_on_c, 0, 64, 60
2, 124911, Control_c, 0, 64, 64
2, 124929, Control_c, 0, 64, 66
2, 124948, Control_c, 0, 64, 68
2, 124952, Note_on_c, 0, 58, 0
2, 124961, Note_on_c, 0, 36, 0
2, 124972, Control_c, 0, 64, 73
2, 124972, Note_on_c, 0, 60, 0
2, 124989, Control_c, 0, 64, 78
2, 125006, Control_c, 0, 64, 86
2, 125027, Control_c, 0, 64, 95
2, 125045, Control_c, 0, 64, 109
2, 125064, Control_c, 0, 64, 127
2, 125172, Note_on_c, 0, 55, 0
2, 125460, Note_on_c, 0, 64, 0
2, 125873, Note_on_c, 0, 41, 41
2, 125967, Control_c, 0, 64, 110
2, 125986, Control_c, 0, 64, 87
2, 125999, Note_on_c, 0, 53, 48
2, 126005, Control_c, 0, 64, 73
2, 126025, Control_c, 0, 64, 65
2, 126043, Control_c, 0, 64, 61
2, 126056, Note_on_c, 0, 57, 38
2, 126063, Control_c, 0, 64, 57
2, 126081, Control_c, 0, 64, 53
2, 126101, Control_c, 0, 64, 47
2, 126119, Control_c, 0, 64, 40
2, 126140, Control_c, 0, 64, 33
2, 126153, Note_on_c, 0, 60, 49
2, 126162, Control_c, 0, 64, 24
2, 126178, Control_c, 0, 64, 15
2, 126197, Control_c, 0, 64, 0
2, 126217, Note_on_c, 0, 65, 51
2, 126755, Control_c, 0, 64, 16
2, 126774, Control_c, 0, 64, 32
2, 126793, Control_c, 0, 64, 40
2, 126812, Control_c, 0, 64, 44
2, 126829, Control_c, 0, 64, 48
2, 126849, Control_c, 0, 64, 52
2, 126870, Control_c, 0, 64, 56
2, 126889, Control_c, 0, 64, 58
2, 126907, Control_c, 0, 64, 59
2, 126927, Control_c, 0, 64, 60
2, 126945, Control_c, 0, 64, 61
2, 126966, Control_c, 0, 64, 62
2, 126983, Control_c, 0, 64, 63
2, 127003, Control_c, 0, 64, 64
2, 127041, Control_c, 0, 64, 65
2, 127060, Control_c, 0, 64, 66
2, 127083, Control_c, 0, 64, 67
2, 127120, Control_c, 0, 64, 68
2, 127138, Control_c, 0, 64, 69
2, 127160, Control_c, 0, 64, 70
2, 127176, Control_c, 0, 64, 71
2, 127196, Control_c, 0, 64, 72
2, 127213, Control_c, 0, 64, 74
2, 127235, Control_c, 0, 64, 76
2, 127253, Control_c, 0, 64, 78
2, 127272, Control_c, 0, 64, 79
2, 127291, Control_c, 0, 64, 81
2, 127311, Control_c, 0, 64, 82
2, 127331, Control_c, 0, 64, 85
2, 127349, Control_c, 0, 64, 88
2, 127368, Control_c, 0, 64, 92
2, 127387, Control_c, 0, 64, 97
2, 127407, Control_c, 0, 64, 102
2, 127424, Control_c, 0, 64, 109
2, 127445, Control_c, 0, 64, 127
2, 129417, Note_on_c, 0, 65, 0
2, 129424, Note_on_c, 0, 60, 0
2, 129467, Note_on_c, 0, 57, 0
2, 129531, Note_on_c, 0, 41, 0
2, 129531, Note_on_c, 0, 53, 0
2, 129882, Control_c, 0, 64, 109
2, 129901, Control_c, 0, 64, 103
2, 129922, Control_c, 0, 64, 97
2, 129943, Control_c, 0, 64, 92
2, 129959, Control_c, 0, 64, 87
2, 129979, Control_c, 0, 64, 85
2, 129998, Control_c, 0, 64, 83
2, 130021, Control_c, 0, 64, 82
2, 130039, Control_c, 0, 64, 80
2, 130058, Control_c, 0, 64, 78
2, 130074, Control_c, 0, 64, 77
2, 130096, Control_c, 0, 64, 75
2, 130132, Control_c, 0, 64, 74
2, 130151, Control_c, 0, 64, 73
2, 130174, Control_c, 0, 64, 72
2, 130193, Control_c, 0, 64, 70
2, 130211, Control_c, 0, 64, 69
2, 130229, Control_c, 0, 64, 67
2, 130363, Control_c, 0, 64, 66
2, 130575, Control_c, 0, 64, 65
2, 130671, Control_c, 0, 64, 64
2, 130730, Control_c, 0, 64, 63
2, 130747, Control_c, 0, 64, 61
2, 130767, Control_c, 0, 64, 60
2, 130786, Control_c, 0, 64, 57
2, 130804, Control_c, 0, 64, 55
2, 130824, Control_c, 0, 64, 51
2, 130843, Control_c, 0, 64, 47
2, 130865, Control_c, 0, 64, 42
2, 130881, Control_c, 0, 64, 36
2, 130901, Control_c, 0, 64, 29
2, 130918, Control_c, 0, 64, 18
2, 130940, Control_c, 0, 64, 0
2, 132133,End_track
0, 0, End_of_file
