0, 0, Header, 1, 2, 480
1, 0, Start_track
1, 0, Tempo, 500000
1, 0, Time_signature, 4, 2, 24, 8
1, 1, End_track
2,0,Start_track
2,0, Note_on_c, 0, 60, 44
2,917, Note_on_c, 0, 61, 53
2,1009, Note_on_c, 0, 60, 0
2,1830, Note_on_c, 0, 60, 51
2,1935, Note_on_c, 0, 61, 0
2,2741, Note_on_c, 0, 59, 50
2,2818, Note_on_c, 0, 60, 0
2,3653, Note_on_c, 0, 64, 62
2,3716, Note_on_c, 0, 59, 0
2,4573, Note_on_c, 0, 65, 57
2,4642, Note_on_c, 0, 64, 0
2,5534, Note_on_c, 0, 58, 53
2,5659, Note_on_c, 0, 65, 0
2,6464, Note_on_c, 0, 57, 54
2,6560, Note_on_c, 0, 58, 0
2,7389, Note_on_c, 0, 56, 47
2,7533, Note_on_c, 0, 57, 0
2,8399, Note_on_c, 0, 55, 39
2,8494, Note_on_c, 0, 56, 0
2,10201, Note_on_c, 0, 53, 31
2,10230, Note_on_c, 0, 55, 0
2,10333, Note_on_c, 0, 53, 0
2,10601, Note_on_c, 0, 53, 45
2,10795, Note_on_c, 0, 53, 0
2,10810, Note_on_c, 0, 55, 50
2,11037, Note_on_c, 0, 55, 0
2,11085, Note_on_c, 0, 56, 41
2,11085, Note_on_c, 0, 65, 51
2,11204, Note_on_c, 0, 56, 0
2,11494, Note_on_c, 0, 56, 48
2,11580, Control_c, 0, 64, 12
2,11597, Control_c, 0, 64, 13
2,11616, Control_c, 0, 64, 14
2,11636, Control_c, 0, 64, 16
2,11652, Control_c, 0, 64, 17
2,11669, Note_on_c, 0, 56, 0
2,11674, Control_c, 0, 64, 18
2,11702, Note_on_c, 0, 58, 50
2,11788, Control_c, 0, 64, 17
2,11864, Control_c, 0, 64, 16
2,11882, Note_on_c, 0, 58, 0
2,11940, Note_on_c, 0, 68, 70
2,11944, Control_c, 0, 64, 15
2,11944, Note_on_c, 0, 60, 52
2,11964, Control_c, 0, 64, 12
2,11981, Control_c, 0, 64, 0
2,12040, Note_on_c, 0, 60, 0
2,12114, Note_on_c, 0, 65, 0
2,12132, Note_on_c, 0, 47, 48
2,12342, Note_on_c, 0, 47, 0
2,12362, Note_on_c, 0, 48, 47
2,12530, Note_on_c, 0, 48, 0
2,12567, Note_on_c, 0, 50, 45
2,12768, Note_on_c, 0, 50, 0
2,12803, Note_on_c, 0, 67, 56
2,12812, Note_on_c, 0, 51, 40
2,12935, Note_on_c, 0, 68, 0
2,13113, Control_c, 0, 64, 25
2,13133, Control_c, 0, 64, 34
2,13151, Control_c, 0, 64, 42
2,13170, Control_c, 0, 64, 51
2,13190, Control_c, 0, 64, 58
2,13207, Control_c, 0, 64, 61
2,13227, Control_c, 0, 64, 62
2,13247, Control_c, 0, 64, 63
2,13269, Control_c, 0, 64, 66
2,13287, Control_c, 0, 64, 70
2,13306, Control_c, 0, 64, 76
2,13323, Control_c, 0, 64, 81
2,13343, Control_c, 0, 64, 82
2,13422, Control_c, 0, 64, 81
2,13458, Control_c, 0, 64, 79
2,13476, Control_c, 0, 64, 78
2,13498, Control_c, 0, 64, 77
2,13517, Control_c, 0, 64, 76
2,13536, Control_c, 0, 64, 74
2,13553, Control_c, 0, 64, 73
2,13593, Control_c, 0, 64, 72
2,13611, Control_c, 0, 64, 71
2,13633, Control_c, 0, 64, 70
2,13641, Note_on_c, 0, 51, 0
2,13654, Control_c, 0, 64, 69
2,13670, Control_c, 0, 64, 68
2,13689, Control_c, 0, 64, 67
2,13709, Control_c, 0, 64, 66
2,13723, Note_on_c, 0, 66, 54
2,13728, Control_c, 0, 64, 65
2,13747, Control_c, 0, 64, 63
2,13766, Control_c, 0, 64, 60
2,13768, Note_on_c, 0, 67, 0
2,13786, Control_c, 0, 64, 58
2,13807, Control_c, 0, 64, 56
2,13823, Control_c, 0, 64, 54
2,13842, Control_c, 0, 64, 52
2,13864, Control_c, 0, 64, 50
2,13882, Control_c, 0, 64, 48
2,13900, Control_c, 0, 64, 47
2,13920, Control_c, 0, 64, 46
2,13938, Control_c, 0, 64, 45
2,13942, Note_on_c, 0, 48, 44
2,13977, Control_c, 0, 64, 44
2,13994, Control_c, 0, 64, 43
2,14133, Note_on_c, 0, 48, 0
2,14158, Note_on_c, 0, 50, 51
2,14330, Note_on_c, 0, 50, 0
2,14350, Note_on_c, 0, 51, 56
2,14513, Control_c, 0, 64, 42
2,14584, Note_on_c, 0, 71, 69
2,14605, Note_on_c, 0, 51, 0
2,14610, Note_on_c, 0, 53, 47
2,14614, Control_c, 0, 64, 41
2,14649, Control_c, 0, 64, 40
2,14710, Control_c, 0, 64, 39
2,14710, Note_on_c, 0, 66, 0
2,14899, Control_c, 0, 64, 38
2,15070, Control_c, 0, 64, 37
2,15464, Note_on_c, 0, 72, 71
2,15493, Note_on_c, 0, 53, 0
2,15555, Note_on_c, 0, 71, 0
2,15571, Control_c, 0, 64, 36
2,15683, Note_on_c, 0, 51, 60
2,15687, Control_c, 0, 64, 35
2,15893, Note_on_c, 0, 53, 62
2,15897, Control_c, 0, 64, 34
2,15917, Note_on_c, 0, 51, 0
2,16053, Note_on_c, 0, 53, 0
2,16095, Note_on_c, 0, 55, 53
2,16314, Note_on_c, 0, 55, 0
2,16334, Note_on_c, 0, 65, 58
2,16336, Note_on_c, 0, 56, 48
2,16470, Note_on_c, 0, 72, 0
2,16954, Control_c, 0, 64, 33
2,16990, Control_c, 0, 64, 32
2,17029, Control_c, 0, 64, 31
2,17048, Control_c, 0, 64, 30
2,17109, Control_c, 0, 64, 29
2,17144, Control_c, 0, 64, 28
2,17219, Note_on_c, 0, 56, 0
2,17239, Note_on_c, 0, 64, 54
2,17287, Note_on_c, 0, 65, 0
2,17376, Control_c, 0, 64, 27
2,17460, Note_on_c, 0, 55, 43
2,17658, Note_on_c, 0, 55, 0
2,17678, Note_on_c, 0, 57, 51
2,17843, Note_on_c, 0, 57, 0
2,17885, Note_on_c, 0, 59, 42
2,18100, Note_on_c, 0, 59, 0
2,18113, Note_on_c, 0, 63, 49
2,18144, Note_on_c, 0, 60, 40
2,18184, Note_on_c, 0, 64, 0
2,18990, Note_on_c, 0, 62, 42
2,19074, Note_on_c, 0, 63, 0
2,19384, Note_on_c, 0, 60, 0
2,19410, Note_on_c, 0, 59, 44
2,19593, Note_on_c, 0, 59, 0
2,19624, Note_on_c, 0, 57, 48
2,19831, Note_on_c, 0, 57, 0
2,19876, Note_on_c, 0, 59, 44
2,20058, Note_on_c, 0, 59, 0
2,20093, Note_on_c, 0, 60, 49
2,20144, Note_on_c, 0, 60, 0
2,20187, Note_on_c, 0, 59, 48
2,20249, Note_on_c, 0, 59, 0
2,20274, Note_on_c, 0, 60, 58
2,20332, Note_on_c, 0, 60, 0
2,20365, Note_on_c, 0, 59, 59
2,20414, Note_on_c, 0, 59, 0
2,20444, Note_on_c, 0, 57, 64
2,20527, Note_on_c, 0, 57, 0
2,20552, Note_on_c, 0, 59, 58
2,20563, Control_c, 0, 64, 21
2,20583, Control_c, 0, 64, 0
2,20638, Note_on_c, 0, 62, 0
2,20667, Note_on_c, 0, 60, 58
2,20704, Note_on_c, 0, 59, 0
2,20797, Note_on_c, 0, 60, 0
2,21054, Note_on_c, 0, 55, 46
2,21067, Note_on_c, 0, 60, 47
2,21111, Note_on_c, 0, 55, 0
2,21216, Note_on_c, 0, 60, 0
2,21262, Note_on_c, 0, 62, 53
2,21513, Note_on_c, 0, 48, 64
2,21533, Note_on_c, 0, 64, 58
2,21538, Note_on_c, 0, 62, 0
2,21549, Note_on_c, 0, 60, 51
2,21683, Note_on_c, 0, 60, 0
2,21955, Note_on_c, 0, 64, 0
2,21965, Note_on_c, 0, 62, 59
2,21969, Note_on_c, 0, 58, 54
2,22143, Note_on_c, 0, 58, 0
2,22148, Note_on_c, 0, 64, 59
2,22201, Note_on_c, 0, 62, 0
2,22397, Note_on_c, 0, 49, 70
2,22417, Note_on_c, 0, 56, 62
2,22417, Note_on_c, 0, 65, 67
2,22445, Note_on_c, 0, 48, 0
2,22467, Note_on_c, 0, 64, 0
2,22547, Note_on_c, 0, 56, 0
2,22551, Note_on_c, 0, 65, 0
2,22606, Note_on_c, 0, 52, 65
2,22821, Note_on_c, 0, 52, 0
2,22837, Note_on_c, 0, 53, 58
2,22837, Note_on_c, 0, 65, 55
2,22991, Note_on_c, 0, 53, 0
2,23054, Note_on_c, 0, 55, 58
2,23225, Note_on_c, 0, 55, 0
2,23285, Note_on_c, 0, 48, 68
2,23300, Note_on_c, 0, 56, 67
2,23313, Note_on_c, 0, 49, 0
2,23648, Note_on_c, 0, 56, 0
2,23720, Note_on_c, 0, 63, 63
2,23756, Note_on_c, 0, 65, 0
2,24151, Note_on_c, 0, 48, 0
2,24153, Note_on_c, 0, 47, 62
2,24159, Note_on_c, 0, 63, 0
2,24163, Note_on_c, 0, 62, 64
2,24358, Note_on_c, 0, 53, 65
2,24573, Note_on_c, 0, 53, 0
2,24582, Note_on_c, 0, 55, 67
2,24596, Note_on_c, 0, 63, 72
2,24682, Note_on_c, 0, 62, 0
2,24701, Note_on_c, 0, 55, 0
2,24787, Note_on_c, 0, 65, 68
2,24797, Note_on_c, 0, 56, 68
2,24813, Note_on_c, 0, 63, 0
2,24855, Note_on_c, 0, 56, 0
2,25019, Note_on_c, 0, 65, 0
2,25031, Note_on_c, 0, 67, 67
2,25038, Note_on_c, 0, 52, 81
2,25038, Note_on_c, 0, 58, 62
2,25102, Note_on_c, 0, 47, 0
2,25244, Note_on_c, 0, 65, 71
2,25467, Note_on_c, 0, 64, 70
2,25484, Note_on_c, 0, 58, 0
2,25506, Note_on_c, 0, 67, 0
2,25662, Note_on_c, 0, 62, 69
2,25664, Note_on_c, 0, 65, 0
2,25680, Note_on_c, 0, 64, 0
2,25891, Note_on_c, 0, 62, 0
2,25915, Note_on_c, 0, 60, 68
2,25923, Note_on_c, 0, 53, 74
2,25948, Note_on_c, 0, 52, 0
2,26124, Note_on_c, 0, 56, 69
2,26171, Note_on_c, 0, 60, 0
2,26343, Note_on_c, 0, 58, 66
2,26354, Note_on_c, 0, 56, 0
2,26534, Note_on_c, 0, 58, 0
2,26548, Note_on_c, 0, 60, 69
2,26773, Note_on_c, 0, 60, 0
2,26777, Note_on_c, 0, 46, 66
2,26782, Note_on_c, 0, 61, 58
2,26814, Note_on_c, 0, 53, 0
2,26989, Note_on_c, 0, 58, 58
2,27216, Note_on_c, 0, 56, 58
2,27310, Note_on_c, 0, 61, 0
2,27401, Note_on_c, 0, 58, 0
2,27424, Note_on_c, 0, 55, 53
2,27462, Note_on_c, 0, 56, 0
2,27604, Note_on_c, 0, 55, 0
2,27649, Note_on_c, 0, 53, 61
2,27653, Note_on_c, 0, 45, 61
2,27673, Note_on_c, 0, 46, 0
2,27869, Note_on_c, 0, 60, 53
2,28042, Note_on_c, 0, 60, 0
2,28077, Note_on_c, 0, 62, 57
2,28266, Note_on_c, 0, 62, 0
2,28293, Note_on_c, 0, 64, 59
2,28511, Note_on_c, 0, 44, 65
2,28541, Note_on_c, 0, 64, 0
2,28546, Note_on_c, 0, 45, 0
2,28546, Note_on_c, 0, 65, 59
2,28557, Note_on_c, 0, 53, 0
2,28734, Note_on_c, 0, 53, 43
2,28957, Note_on_c, 0, 55, 53
2,28984, Note_on_c, 0, 53, 0
2,29113, Note_on_c, 0, 55, 0
2,29161, Note_on_c, 0, 56, 48
2,29383, Note_on_c, 0, 56, 0
2,29433, Note_on_c, 0, 43, 56
2,29433, Note_on_c, 0, 58, 47
2,29462, Note_on_c, 0, 44, 0
2,29814, Note_on_c, 0, 65, 0
2,29858, Note_on_c, 0, 64, 56
2,30041, Note_on_c, 0, 64, 0
2,30069, Note_on_c, 0, 62, 59
2,30280, Note_on_c, 0, 62, 0
2,30293, Note_on_c, 0, 64, 64
2,30498, Note_on_c, 0, 64, 0
2,30509, Note_on_c, 0, 65, 58
2,30603, Note_on_c, 0, 65, 0
2,30622, Note_on_c, 0, 64, 65
2,30700, Note_on_c, 0, 56, 66
2,30710, Note_on_c, 0, 64, 0
2,30718, Note_on_c, 0, 65, 62
2,30773, Note_on_c, 0, 56, 0
2,30802, Note_on_c, 0, 64, 67
2,30817, Note_on_c, 0, 65, 0
2,30854, Note_on_c, 0, 58, 0
2,30905, Note_on_c, 0, 64, 0
2,30909, Note_on_c, 0, 55, 49
2,30914, Note_on_c, 0, 62, 71
2,30945, Note_on_c, 0, 55, 0
2,31015, Note_on_c, 0, 62, 0
2,31015, Note_on_c, 0, 64, 65
2,31145, Note_on_c, 0, 43, 0
2,31162, Note_on_c, 0, 64, 0
2,31176, Note_on_c, 0, 65, 59
2,31180, Note_on_c, 0, 41, 45
2,31187, Note_on_c, 0, 56, 57
2,31234, Control_c, 0, 64, 13
2,31252, Control_c, 0, 64, 41
2,31272, Control_c, 0, 64, 61
2,31276, Note_on_c, 0, 41, 0
2,31283, Note_on_c, 0, 56, 0
2,31294, Control_c, 0, 64, 71
2,31313, Control_c, 0, 64, 84
2,31321, Note_on_c, 0, 65, 0
2,31330, Control_c, 0, 64, 127
2,31622, Note_on_c, 0, 65, 53
2,31638, Control_c, 0, 64, 110
2,31656, Control_c, 0, 64, 78
2,31676, Control_c, 0, 64, 63
2,31694, Control_c, 0, 64, 45
2,31714, Control_c, 0, 64, 23
2,31734, Control_c, 0, 64, 0
2,31841, Note_on_c, 0, 65, 0
2,31846, Note_on_c, 0, 67, 64
2,32079, Control_c, 0, 64, 25
2,32099, Control_c, 0, 64, 46
2,32104, Note_on_c, 0, 67, 0
2,32104, Note_on_c, 0, 68, 68
2,32117, Control_c, 0, 64, 57
2,32136, Control_c, 0, 64, 63
2,32156, Control_c, 0, 64, 66
2,32175, Control_c, 0, 64, 68
2,32193, Control_c, 0, 64, 73
2,32213, Control_c, 0, 64, 79
2,32231, Control_c, 0, 64, 89
2,32254, Control_c, 0, 64, 100
2,32254, Note_on_c, 0, 68, 0
2,32270, Control_c, 0, 64, 120
2,32288, Control_c, 0, 64, 127
2,32503, Control_c, 0, 64, 88
2,32520, Control_c, 0, 64, 69
2,32525, Note_on_c, 0, 68, 72
2,32530, Note_on_c, 0, 53, 55
2,32539, Control_c, 0, 64, 60
2,32560, Control_c, 0, 64, 49
2,32578, Control_c, 0, 64, 35
2,32597, Control_c, 0, 64, 17
2,32617, Control_c, 0, 64, 0
2,32728, Note_on_c, 0, 53, 0
2,32733, Note_on_c, 0, 70, 78
2,32741, Note_on_c, 0, 55, 62
2,32755, Note_on_c, 0, 68, 0
2,32969, Note_on_c, 0, 55, 0
2,32999, Note_on_c, 0, 56, 57
2,32999, Note_on_c, 0, 72, 77
2,33012, Note_on_c, 0, 70, 0
2,33076, Control_c, 0, 64, 31
2,33096, Control_c, 0, 64, 47
2,33116, Control_c, 0, 64, 58
2,33133, Control_c, 0, 64, 63
2,33153, Control_c, 0, 64, 65
2,33160, Note_on_c, 0, 56, 0
2,33172, Control_c, 0, 64, 67
2,33195, Control_c, 0, 64, 71
2,33213, Control_c, 0, 64, 77
2,33230, Control_c, 0, 64, 87
2,33254, Control_c, 0, 64, 100
2,33272, Control_c, 0, 64, 127
2,33404, Control_c, 0, 64, 98
2,33423, Control_c, 0, 64, 74
2,33430, Note_on_c, 0, 60, 68
2,33437, Note_on_c, 0, 56, 65
2,33441, Control_c, 0, 64, 63
2,33462, Control_c, 0, 64, 55
2,33480, Control_c, 0, 64, 45
2,33498, Control_c, 0, 64, 39
2,33518, Control_c, 0, 64, 32
2,33540, Control_c, 0, 64, 24
2,33560, Control_c, 0, 64, 16
2,33576, Control_c, 0, 64, 0
2,33630, Note_on_c, 0, 60, 0
2,33640, Note_on_c, 0, 58, 70
2,33656, Note_on_c, 0, 56, 0
2,33660, Note_on_c, 0, 61, 60
2,33869, Note_on_c, 0, 61, 0
2,33889, Note_on_c, 0, 60, 63
2,33889, Note_on_c, 0, 63, 71
2,33916, Note_on_c, 0, 58, 0
2,33976, Note_on_c, 0, 60, 0
2,34077, Note_on_c, 0, 70, 73
2,34113, Note_on_c, 0, 72, 0
2,34300, Note_on_c, 0, 70, 0
2,34304, Note_on_c, 0, 48, 55
2,34304, Note_on_c, 0, 68, 70
2,34378, Note_on_c, 0, 48, 0
2,34467, Note_on_c, 0, 68, 0
2,34514, Note_on_c, 0, 67, 64
2,34753, Note_on_c, 0, 67, 0
2,34797, Note_on_c, 0, 49, 45
2,34797, Note_on_c, 0, 65, 57
2,35182, Note_on_c, 0, 63, 0
2,35218, Note_on_c, 0, 65, 0
2,35229, Note_on_c, 0, 61, 57
2,35435, Note_on_c, 0, 63, 66
2,35444, Note_on_c, 0, 61, 0
2,35693, Note_on_c, 0, 65, 63
2,35702, Note_on_c, 0, 63, 0
2,35708, Control_c, 0, 64, 26
2,35726, Control_c, 0, 64, 45
2,35745, Control_c, 0, 64, 58
2,35765, Control_c, 0, 64, 63
2,35783, Control_c, 0, 64, 66
2,35803, Control_c, 0, 64, 69
2,35810, Note_on_c, 0, 49, 0
2,35823, Control_c, 0, 64, 75
2,35842, Control_c, 0, 64, 84
2,35851, Note_on_c, 0, 65, 0
2,35864, Control_c, 0, 64, 95
2,35879, Control_c, 0, 64, 113
2,35900, Control_c, 0, 64, 127
2,36092, Control_c, 0, 64, 80
2,36114, Control_c, 0, 64, 64
2,36114, Note_on_c, 0, 49, 54
2,36114, Note_on_c, 0, 65, 64
2,36129, Control_c, 0, 64, 53
2,36149, Control_c, 0, 64, 38
2,36168, Control_c, 0, 64, 13
2,36186, Control_c, 0, 64, 0
2,36304, Note_on_c, 0, 49, 0
2,36334, Note_on_c, 0, 51, 58
2,36334, Note_on_c, 0, 67, 69
2,36336, Note_on_c, 0, 65, 0
2,36543, Note_on_c, 0, 51, 0
2,36580, Note_on_c, 0, 53, 49
2,36585, Note_on_c, 0, 67, 0
2,36589, Note_on_c, 0, 68, 67
2,36650, Control_c, 0, 64, 37
2,36667, Control_c, 0, 64, 50
2,36688, Control_c, 0, 64, 58
2,36705, Control_c, 0, 64, 62
2,36714, Note_on_c, 0, 53, 0
2,36725, Control_c, 0, 64, 64
2,36748, Control_c, 0, 64, 66
2,36763, Control_c, 0, 64, 73
2,36783, Control_c, 0, 64, 93
2,36803, Control_c, 0, 64, 127
2,36957, Control_c, 0, 64, 85
2,36975, Control_c, 0, 64, 67
2,36993, Control_c, 0, 64, 57
2,37003, Note_on_c, 0, 53, 55
2,37014, Control_c, 0, 64, 48
2,37014, Note_on_c, 0, 56, 59
2,37032, Control_c, 0, 64, 41
2,37052, Control_c, 0, 64, 36
2,37070, Control_c, 0, 64, 31
2,37089, Control_c, 0, 64, 25
2,37109, Control_c, 0, 64, 22
2,37130, Control_c, 0, 64, 21
2,37146, Control_c, 0, 64, 20
2,37168, Control_c, 0, 64, 18
2,37187, Control_c, 0, 64, 16
2,37193, Note_on_c, 0, 56, 0
2,37197, Note_on_c, 0, 53, 0
2,37206, Note_on_c, 0, 58, 61
2,37210, Control_c, 0, 64, 15
2,37226, Note_on_c, 0, 55, 59
2,37340, Control_c, 0, 64, 14
2,37358, Control_c, 0, 64, 11
2,37379, Control_c, 0, 64, 0
2,37379, Note_on_c, 0, 58, 0
2,37432, Note_on_c, 0, 55, 0
2,37443, Note_on_c, 0, 60, 58
2,37478, Note_on_c, 0, 56, 53
2,37547, Note_on_c, 0, 56, 0
2,37667, Note_on_c, 0, 66, 58
2,37671, Note_on_c, 0, 68, 0
2,37864, Note_on_c, 0, 44, 44
2,37888, Note_on_c, 0, 66, 0
2,37901, Note_on_c, 0, 65, 54
2,37933, Note_on_c, 0, 44, 0
2,38086, Note_on_c, 0, 65, 0
2,38131, Note_on_c, 0, 63, 49
2,38399, Note_on_c, 0, 63, 0
2,38404, Note_on_c, 0, 46, 36
2,38415, Note_on_c, 0, 61, 42
2,38805, Note_on_c, 0, 61, 0
2,38838, Note_on_c, 0, 60, 0
2,38849, Note_on_c, 0, 58, 47
2,39026, Note_on_c, 0, 58, 0
2,39044, Note_on_c, 0, 60, 54
2,39259, Control_c, 0, 64, 18
2,39277, Control_c, 0, 64, 42
2,39292, Note_on_c, 0, 60, 0
2,39297, Control_c, 0, 64, 55
2,39320, Control_c, 0, 64, 62
2,39320, Note_on_c, 0, 61, 49
2,39337, Control_c, 0, 64, 64
2,39357, Control_c, 0, 64, 67
2,39371, Note_on_c, 0, 61, 0
2,39376, Control_c, 0, 64, 70
2,39380, Note_on_c, 0, 46, 0
2,39395, Control_c, 0, 64, 80
2,39413, Control_c, 0, 64, 94
2,39435, Control_c, 0, 64, 127
2,39717, Note_on_c, 0, 61, 58
2,39725, Note_on_c, 0, 46, 49
2,39739, Control_c, 0, 64, 89
2,39757, Control_c, 0, 64, 71
2,39779, Control_c, 0, 64, 61
2,39798, Control_c, 0, 64, 47
2,39816, Control_c, 0, 64, 35
2,39836, Control_c, 0, 64, 22
2,39855, Control_c, 0, 64, 0
2,39876, Note_on_c, 0, 46, 0
2,39919, Note_on_c, 0, 48, 49
2,39937, Note_on_c, 0, 61, 0
2,39941, Note_on_c, 0, 63, 66
2,40156, Note_on_c, 0, 48, 0
2,40198, Note_on_c, 0, 49, 48
2,40198, Note_on_c, 0, 65, 58
2,40240, Control_c, 0, 64, 31
2,40244, Note_on_c, 0, 63, 0
2,40257, Control_c, 0, 64, 49
2,40278, Control_c, 0, 64, 60
2,40296, Control_c, 0, 64, 65
2,40312, Note_on_c, 0, 49, 0
2,40316, Control_c, 0, 64, 68
2,40334, Control_c, 0, 64, 74
2,40355, Control_c, 0, 64, 88
2,40374, Control_c, 0, 64, 127
2,40606, Control_c, 0, 64, 78
2,40624, Control_c, 0, 64, 63
2,40624, Note_on_c, 0, 49, 53
2,40628, Note_on_c, 0, 53, 52
2,40643, Control_c, 0, 64, 48
2,40663, Control_c, 0, 64, 36
2,40681, Control_c, 0, 64, 23
2,40700, Control_c, 0, 64, 0
2,40809, Note_on_c, 0, 53, 0
2,40822, Note_on_c, 0, 49, 0
2,40840, Note_on_c, 0, 51, 62
2,40842, Note_on_c, 0, 55, 52
2,41085, Note_on_c, 0, 56, 56
2,41092, Note_on_c, 0, 51, 0
2,41096, Note_on_c, 0, 53, 52
2,41136, Note_on_c, 0, 55, 0
2,41181, Control_c, 0, 64, 39
2,41197, Control_c, 0, 64, 54
2,41214, Note_on_c, 0, 53, 0
2,41218, Control_c, 0, 64, 61
2,41237, Control_c, 0, 64, 62
2,41252, Note_on_c, 0, 56, 0
2,41256, Control_c, 0, 64, 61
2,41275, Control_c, 0, 64, 60
2,41294, Control_c, 0, 64, 57
2,41314, Control_c, 0, 64, 50
2,41334, Control_c, 0, 64, 39
2,41351, Control_c, 0, 64, 0
2,41504, Note_on_c, 0, 41, 58
2,41504, Note_on_c, 0, 56, 52
2,41590, Note_on_c, 0, 41, 0
2,41684, Note_on_c, 0, 56, 0
2,41702, Note_on_c, 0, 58, 62
2,41908, Control_c, 0, 64, 29
2,41928, Control_c, 0, 64, 50
2,41941, Note_on_c, 0, 58, 0
2,41950, Control_c, 0, 64, 59
2,41959, Note_on_c, 0, 60, 58
2,41963, Note_on_c, 0, 48, 52
2,41963, Note_on_c, 0, 65, 0
2,41968, Control_c, 0, 64, 63
2,41988, Control_c, 0, 64, 65
2,42006, Control_c, 0, 64, 68
2,42024, Control_c, 0, 64, 71
2,42044, Control_c, 0, 64, 76
2,42066, Control_c, 0, 64, 82
2,42072, Note_on_c, 0, 48, 0
2,42081, Control_c, 0, 64, 85
2,42103, Control_c, 0, 64, 87
2,42139, Control_c, 0, 64, 88
2,42157, Control_c, 0, 64, 90
2,42180, Control_c, 0, 64, 91
2,42198, Control_c, 0, 64, 92
2,42331, Note_on_c, 0, 60, 0
2,42351, Control_c, 0, 64, 88
2,42369, Control_c, 0, 64, 83
2,42373, Note_on_c, 0, 48, 55
2,42387, Note_on_c, 0, 64, 59
2,42391, Control_c, 0, 64, 74
2,42400, Note_on_c, 0, 55, 44
2,42409, Control_c, 0, 64, 66
2,42427, Control_c, 0, 64, 59
2,42448, Control_c, 0, 64, 52
2,42466, Control_c, 0, 64, 45
2,42486, Control_c, 0, 64, 35
2,42504, Control_c, 0, 64, 19
2,42524, Note_on_c, 0, 48, 0
2,42527, Control_c, 0, 64, 0
2,42545, Note_on_c, 0, 64, 0
2,42590, Note_on_c, 0, 65, 54
2,42595, Note_on_c, 0, 50, 51
2,42839, Note_on_c, 0, 50, 0
2,42898, Note_on_c, 0, 55, 0
2,42898, Note_on_c, 0, 67, 71
2,42898, Note_on_c, 0, 72, 81
2,42911, Note_on_c, 0, 52, 52
2,42922, Note_on_c, 0, 60, 52
2,42967, Control_c, 0, 64, 42
2,42974, Note_on_c, 0, 65, 0
2,42984, Control_c, 0, 64, 54
2,43004, Control_c, 0, 64, 61
2,43022, Control_c, 0, 64, 64
2,43042, Control_c, 0, 64, 66
2,43061, Control_c, 0, 64, 69
2,43061, Note_on_c, 0, 60, 0
2,43079, Control_c, 0, 64, 75
2,43098, Control_c, 0, 64, 89
2,43117, Control_c, 0, 64, 127
2,43151, Note_on_c, 0, 52, 0
2,43311, Control_c, 0, 64, 78
2,43330, Control_c, 0, 64, 58
2,43348, Control_c, 0, 64, 18
2,43370, Control_c, 0, 64, 0
2,43370, Note_on_c, 0, 50, 61
2,43374, Note_on_c, 0, 58, 58
2,43386, Control_c, 0, 64, 14
2,43406, Control_c, 0, 64, 40
2,43426, Control_c, 0, 64, 57
2,43448, Control_c, 0, 64, 66
2,43464, Control_c, 0, 64, 74
2,43482, Control_c, 0, 64, 87
2,43503, Control_c, 0, 64, 104
2,43510, Note_on_c, 0, 72, 0
2,43521, Control_c, 0, 64, 127
2,43532, Note_on_c, 0, 58, 0
2,43553, Note_on_c, 0, 50, 0
2,43591, Note_on_c, 0, 52, 62
2,43751, Control_c, 0, 64, 99
2,43772, Control_c, 0, 64, 64
2,43791, Control_c, 0, 64, 29
2,43806, Note_on_c, 0, 52, 0
2,43810, Control_c, 0, 64, 0
2,43827, Note_on_c, 0, 53, 67
2,43827, Note_on_c, 0, 73, 89
2,43831, Control_c, 0, 64, 33
2,43831, Note_on_c, 0, 56, 59
2,43849, Control_c, 0, 64, 51
2,43866, Control_c, 0, 64, 63
2,43873, Note_on_c, 0, 56, 0
2,43877, Note_on_c, 0, 53, 0
2,43886, Control_c, 0, 64, 72
2,43905, Control_c, 0, 64, 87
2,43925, Control_c, 0, 64, 127
2,44056, Note_on_c, 0, 40, 55
2,44082, Control_c, 0, 64, 87
2,44101, Control_c, 0, 64, 70
2,44119, Control_c, 0, 64, 60
2,44139, Control_c, 0, 64, 42
2,44159, Control_c, 0, 64, 0
2,44267, Note_on_c, 0, 40, 0
2,44285, Note_on_c, 0, 41, 62
2,44285, Note_on_c, 0, 65, 55
2,44294, Control_c, 0, 64, 36
2,44312, Control_c, 0, 64, 54
2,44333, Control_c, 0, 64, 62
2,44349, Control_c, 0, 64, 64
2,44368, Control_c, 0, 64, 66
2,44389, Control_c, 0, 64, 70
2,44409, Note_on_c, 0, 73, 0
2,44413, Control_c, 0, 64, 78
2,44427, Control_c, 0, 64, 92
2,44442, Note_on_c, 0, 41, 0
2,44446, Control_c, 0, 64, 104
2,44464, Control_c, 0, 64, 108
2,44484, Control_c, 0, 64, 110
2,44493, Note_on_c, 0, 43, 65
2,44504, Control_c, 0, 64, 113
2,44510, Note_on_c, 0, 67, 0
2,44523, Control_c, 0, 64, 122
2,44545, Control_c, 0, 64, 127
2,44695, Control_c, 0, 64, 104
2,44702, Note_on_c, 0, 43, 0
2,44717, Control_c, 0, 64, 76
2,44717, Note_on_c, 0, 72, 84
2,44721, Note_on_c, 0, 44, 69
2,44737, Control_c, 0, 64, 62
2,44755, Control_c, 0, 64, 48
2,44772, Control_c, 0, 64, 32
2,44793, Control_c, 0, 64, 23
2,44813, Control_c, 0, 64, 17
2,44831, Control_c, 0, 64, 13
2,44849, Control_c, 0, 64, 11
2,44887, Control_c, 0, 64, 10
2,44907, Control_c, 0, 64, 0
2,44943, Note_on_c, 0, 48, 54
2,45121, Note_on_c, 0, 48, 0
2,45163, Note_on_c, 0, 63, 58
2,45168, Note_on_c, 0, 50, 55
2,45209, Note_on_c, 0, 65, 0
2,45261, Note_on_c, 0, 63, 0
2,45319, Note_on_c, 0, 50, 0
2,45364, Note_on_c, 0, 51, 55
2,45557, Note_on_c, 0, 44, 0
2,45575, Note_on_c, 0, 51, 0
2,45592, Note_on_c, 0, 53, 54
2,45604, Note_on_c, 0, 71, 68
2,45620, Note_on_c, 0, 62, 53
2,45682, Note_on_c, 0, 72, 0
2,45811, Note_on_c, 0, 41, 58
2,45978, Note_on_c, 0, 41, 0
2,46013, Note_on_c, 0, 62, 0
2,46032, Note_on_c, 0, 63, 60
2,46036, Note_on_c, 0, 43, 56
2,46170, Note_on_c, 0, 63, 0
2,46172, Control_c, 0, 64, 32
2,46192, Control_c, 0, 64, 47
2,46212, Control_c, 0, 64, 57
2,46225, Note_on_c, 0, 71, 0
2,46230, Note_on_c, 0, 43, 0
2,46230, Note_on_c, 0, 65, 52
2,46232, Control_c, 0, 64, 61
2,46249, Control_c, 0, 64, 62
2,46251, Note_on_c, 0, 44, 64
2,46266, Control_c, 0, 64, 63
2,46285, Control_c, 0, 64, 65
2,46307, Control_c, 0, 64, 69
2,46325, Control_c, 0, 64, 76
2,46348, Control_c, 0, 64, 87
2,46362, Control_c, 0, 64, 94
2,46383, Control_c, 0, 64, 96
2,46400, Control_c, 0, 64, 89
2,46422, Control_c, 0, 64, 67
2,46439, Control_c, 0, 64, 48
2,46459, Control_c, 0, 64, 0
2,46464, Note_on_c, 0, 65, 0
2,46468, Note_on_c, 0, 67, 73
2,46473, Note_on_c, 0, 76, 79
2,46498, Note_on_c, 0, 46, 65
2,46515, Control_c, 0, 64, 31
2,46535, Control_c, 0, 64, 53
2,46553, Note_on_c, 0, 53, 0
2,46557, Control_c, 0, 64, 66
2,46557, Note_on_c, 0, 44, 0
2,46570, Note_on_c, 0, 46, 0
2,46575, Control_c, 0, 64, 74
2,46593, Control_c, 0, 64, 90
2,46613, Control_c, 0, 64, 127
2,46658, Note_on_c, 0, 67, 0
2,46671, Note_on_c, 0, 65, 70
2,46825, Control_c, 0, 64, 109
2,46845, Control_c, 0, 64, 73
2,46864, Control_c, 0, 64, 58
2,46879, Note_on_c, 0, 65, 0
2,46884, Control_c, 0, 64, 41
2,46901, Control_c, 0, 64, 19
2,46910, Note_on_c, 0, 64, 66
2,46914, Note_on_c, 0, 55, 63
2,46919, Control_c, 0, 64, 0
2,47032, Note_on_c, 0, 55, 0
2,47063, Note_on_c, 0, 64, 0
2,47133, Note_on_c, 0, 62, 60
2,47329, Note_on_c, 0, 62, 0
2,47343, Control_c, 0, 64, 43
2,47358, Note_on_c, 0, 77, 91
2,47363, Control_c, 0, 64, 60
2,47363, Note_on_c, 0, 60, 50
2,47374, Note_on_c, 0, 56, 61
2,47383, Control_c, 0, 64, 68
2,47392, Note_on_c, 0, 60, 0
2,47401, Control_c, 0, 64, 77
2,47414, Note_on_c, 0, 56, 0
2,47418, Control_c, 0, 64, 95
2,47439, Control_c, 0, 64, 127
2,47482, Note_on_c, 0, 76, 0
2,47573, Note_on_c, 0, 44, 73
2,47785, Control_c, 0, 64, 113
2,47792, Note_on_c, 0, 46, 72
2,47805, Control_c, 0, 64, 81
2,47805, Note_on_c, 0, 44, 0
2,47823, Control_c, 0, 64, 64
2,47840, Control_c, 0, 64, 50
2,47859, Control_c, 0, 64, 31
2,47879, Control_c, 0, 64, 0
2,47963, Note_on_c, 0, 46, 0
2,47988, Note_on_c, 0, 48, 69
2,48206, Control_c, 0, 64, 39
2,48225, Control_c, 0, 64, 58
2,48232, Note_on_c, 0, 49, 66
2,48232, Note_on_c, 0, 70, 83
2,48236, Note_on_c, 0, 48, 0
2,48243, Note_on_c, 0, 77, 0
2,48247, Control_c, 0, 64, 65
2,48264, Control_c, 0, 64, 70
2,48283, Control_c, 0, 64, 80
2,48303, Control_c, 0, 64, 102
2,48321, Control_c, 0, 64, 127
2,48432, Note_on_c, 0, 58, 69
2,48593, Control_c, 0, 64, 75
2,48593, Note_on_c, 0, 58, 0
2,48612, Control_c, 0, 64, 58
2,48628, Control_c, 0, 64, 41
2,48647, Control_c, 0, 64, 14
2,48660, Note_on_c, 0, 58, 62
2,48667, Note_on_c, 0, 56, 55
2,48671, Control_c, 0, 64, 0
2,48768, Note_on_c, 0, 58, 0
2,48824, Note_on_c, 0, 56, 0
2,48880, Note_on_c, 0, 55, 54
2,49035, Note_on_c, 0, 49, 0
2,49104, Note_on_c, 0, 55, 0
2,49112, Note_on_c, 0, 60, 57
2,49117, Note_on_c, 0, 69, 65
2,49121, Note_on_c, 0, 53, 60
2,49236, Note_on_c, 0, 70, 0
2,49340, Note_on_c, 0, 48, 54
2,49533, Note_on_c, 0, 48, 0
2,49576, Note_on_c, 0, 50, 59
2,49755, Note_on_c, 0, 53, 0
2,49779, Note_on_c, 0, 52, 59
2,49792, Note_on_c, 0, 50, 0
2,49952, Control_c, 0, 64, 28
2,49975, Control_c, 0, 64, 46
2,49991, Control_c, 0, 64, 58
2,50001, Note_on_c, 0, 52, 0
2,50013, Note_on_c, 0, 53, 55
2,50017, Control_c, 0, 64, 62
2,50017, Note_on_c, 0, 68, 75
2,50031, Control_c, 0, 64, 64
2,50049, Control_c, 0, 64, 67
2,50069, Note_on_c, 0, 69, 0
2,50071, Control_c, 0, 64, 71
2,50071, Note_on_c, 0, 53, 0
2,50087, Control_c, 0, 64, 81
2,50106, Control_c, 0, 64, 100
2,50120, Note_on_c, 0, 60, 0
2,50129, Control_c, 0, 64, 127
2,50223, Note_on_c, 0, 53, 57
2,50298, Control_c, 0, 64, 87
2,50320, Control_c, 0, 64, 69
2,50341, Control_c, 0, 64, 59
2,50357, Control_c, 0, 64, 48
2,50374, Control_c, 0, 64, 37
2,50395, Control_c, 0, 64, 25
2,50417, Control_c, 0, 64, 0
2,50457, Note_on_c, 0, 60, 58
2,50466, Note_on_c, 0, 55, 48
2,50541, Note_on_c, 0, 60, 0
2,50550, Note_on_c, 0, 55, 0
2,50649, Note_on_c, 0, 56, 53
2,50900, Note_on_c, 0, 56, 0
2,50918, Note_on_c, 0, 61, 51
2,50920, Note_on_c, 0, 58, 48
2,50925, Note_on_c, 0, 67, 61
2,50938, Note_on_c, 0, 68, 0
2,51264, Note_on_c, 0, 58, 0
2,51329, Note_on_c, 0, 53, 0
2,51329, Note_on_c, 0, 61, 0
2,51368, Note_on_c, 0, 60, 51
2,51377, Note_on_c, 0, 52, 49
2,51538, Note_on_c, 0, 52, 0
2,51538, Note_on_c, 0, 60, 0
2,51573, Note_on_c, 0, 58, 53
2,51578, Note_on_c, 0, 50, 50
2,51768, Note_on_c, 0, 58, 0
2,51777, Note_on_c, 0, 50, 0
2,51815, Note_on_c, 0, 60, 56
2,51824, Note_on_c, 0, 52, 50
2,52231, Note_on_c, 0, 56, 50
2,52375, Note_on_c, 0, 56, 0
2,52433, Note_on_c, 0, 55, 43
2,52635, Note_on_c, 0, 52, 0
2,52643, Note_on_c, 0, 55, 0
2,52702, Note_on_c, 0, 53, 45
2,52706, Note_on_c, 0, 56, 41
2,53040, Note_on_c, 0, 67, 0
2,53121, Note_on_c, 0, 65, 39
2,53147, Note_on_c, 0, 60, 0
2,53320, Note_on_c, 0, 67, 52
2,53327, Note_on_c, 0, 65, 0
2,53595, Note_on_c, 0, 68, 56
2,53604, Note_on_c, 0, 56, 0
2,53612, Note_on_c, 0, 53, 0
2,53668, Note_on_c, 0, 67, 0
2,54041, Note_on_c, 0, 53, 41
2,54209, Note_on_c, 0, 53, 0
2,54237, Note_on_c, 0, 51, 53
2,54451, Note_on_c, 0, 51, 0
2,54479, Note_on_c, 0, 50, 50
2,54484, Control_c, 0, 64, 27
2,54504, Control_c, 0, 64, 45
2,54523, Control_c, 0, 64, 57
2,54542, Control_c, 0, 64, 62
2,54559, Control_c, 0, 64, 64
2,54584, Control_c, 0, 64, 66
2,54600, Control_c, 0, 64, 70
2,54619, Control_c, 0, 64, 80
2,54622, Note_on_c, 0, 50, 0
2,54640, Control_c, 0, 64, 97
2,54657, Control_c, 0, 64, 127
2,54868, Control_c, 0, 64, 89
2,54888, Control_c, 0, 64, 71
2,54901, Note_on_c, 0, 65, 53
2,54905, Control_c, 0, 64, 61
2,54915, Note_on_c, 0, 50, 46
2,54926, Control_c, 0, 64, 51
2,54948, Control_c, 0, 64, 41
2,54964, Control_c, 0, 64, 29
2,54982, Control_c, 0, 64, 0
2,55084, Note_on_c, 0, 50, 0
2,55101, Note_on_c, 0, 65, 0
2,55118, Note_on_c, 0, 48, 48
2,55122, Note_on_c, 0, 63, 56
2,55318, Note_on_c, 0, 48, 0
2,55354, Note_on_c, 0, 63, 0
2,55368, Control_c, 0, 64, 39
2,55373, Note_on_c, 0, 46, 48
2,55385, Note_on_c, 0, 62, 52
2,55386, Control_c, 0, 64, 54
2,55404, Control_c, 0, 64, 62
2,55425, Control_c, 0, 64, 65
2,55446, Control_c, 0, 64, 67
2,55457, Note_on_c, 0, 62, 0
2,55465, Control_c, 0, 64, 72
2,55486, Control_c, 0, 64, 81
2,55503, Control_c, 0, 64, 101
2,55521, Control_c, 0, 64, 127
2,55770, Control_c, 0, 64, 91
2,55775, Note_on_c, 0, 62, 60
2,55781, Note_on_c, 0, 48, 57
2,55791, Control_c, 0, 64, 69
2,55795, Note_on_c, 0, 46, 0
2,55808, Control_c, 0, 64, 56
2,55829, Control_c, 0, 64, 40
2,55846, Control_c, 0, 64, 16
2,55868, Control_c, 0, 64, 0
2,55922, Note_on_c, 0, 48, 0
2,55968, Note_on_c, 0, 62, 0
2,55981, Note_on_c, 0, 60, 55
2,55998, Note_on_c, 0, 50, 50
2,56179, Note_on_c, 0, 50, 0
2,56194, Control_c, 0, 64, 11
2,56206, Note_on_c, 0, 60, 0
2,56211, Control_c, 0, 64, 44
2,56230, Note_on_c, 0, 51, 53
2,56234, Control_c, 0, 64, 57
2,56234, Note_on_c, 0, 58, 54
2,56250, Control_c, 0, 64, 64
2,56270, Control_c, 0, 64, 67
2,56278, Note_on_c, 0, 68, 0
2,56288, Control_c, 0, 64, 71
2,56308, Control_c, 0, 64, 79
2,56330, Control_c, 0, 64, 96
2,56334, Note_on_c, 0, 58, 0
2,56347, Control_c, 0, 64, 127
2,56635, Control_c, 0, 64, 96
2,56655, Control_c, 0, 64, 72
2,56655, Note_on_c, 0, 67, 65
2,56660, Note_on_c, 0, 58, 52
2,56672, Control_c, 0, 64, 61
2,56693, Control_c, 0, 64, 50
2,56712, Control_c, 0, 64, 35
2,56732, Control_c, 0, 64, 0
2,56825, Note_on_c, 0, 58, 0
2,56859, Note_on_c, 0, 68, 78
2,56862, Note_on_c, 0, 56, 55
2,56893, Note_on_c, 0, 67, 0
2,57095, Note_on_c, 0, 56, 0
2,57110, Note_on_c, 0, 55, 50
2,57118, Note_on_c, 0, 70, 68
2,57142, Note_on_c, 0, 68, 0
2,57193, Control_c, 0, 64, 32
2,57210, Control_c, 0, 64, 50
2,57233, Control_c, 0, 64, 60
2,57246, Note_on_c, 0, 51, 0
2,57251, Control_c, 0, 64, 64
2,57270, Control_c, 0, 64, 67
2,57272, Note_on_c, 0, 55, 0
2,57287, Control_c, 0, 64, 74
2,57308, Control_c, 0, 64, 86
2,57327, Control_c, 0, 64, 122
2,57345, Control_c, 0, 64, 127
2,57479, Control_c, 0, 64, 78
2,57499, Control_c, 0, 64, 63
2,57516, Control_c, 0, 64, 50
2,57535, Control_c, 0, 64, 32
2,57545, Note_on_c, 0, 55, 62
2,57556, Control_c, 0, 64, 0
2,57733, Note_on_c, 0, 55, 0
2,57754, Note_on_c, 0, 53, 60
2,57981, Note_on_c, 0, 52, 58
2,57989, Note_on_c, 0, 53, 0
2,57998, Control_c, 0, 64, 8
2,58018, Control_c, 0, 64, 39
2,58038, Control_c, 0, 64, 52
2,58055, Control_c, 0, 64, 60
2,58075, Control_c, 0, 64, 63
2,58093, Control_c, 0, 64, 65
2,58113, Control_c, 0, 64, 70
2,58126, Note_on_c, 0, 52, 0
2,58132, Control_c, 0, 64, 78
2,58155, Control_c, 0, 64, 92
2,58172, Control_c, 0, 64, 110
2,58189, Control_c, 0, 64, 127
2,58286, Control_c, 0, 64, 105
2,58305, Control_c, 0, 64, 87
2,58323, Control_c, 0, 64, 70
2,58342, Control_c, 0, 64, 61
2,58365, Control_c, 0, 64, 51
2,58382, Control_c, 0, 64, 33
2,58399, Control_c, 0, 64, 0
2,58408, Note_on_c, 0, 52, 56
2,58417, Note_on_c, 0, 67, 59
2,58607, Note_on_c, 0, 52, 0
2,58629, Note_on_c, 0, 67, 0
2,58638, Note_on_c, 0, 50, 58
2,58638, Note_on_c, 0, 65, 60
2,58841, Note_on_c, 0, 50, 0
2,58856, Note_on_c, 0, 65, 0
2,58865, Note_on_c, 0, 48, 55
2,58876, Note_on_c, 0, 64, 54
2,58880, Control_c, 0, 64, 22
2,58900, Control_c, 0, 64, 44
2,58922, Control_c, 0, 64, 57
2,58940, Control_c, 0, 64, 64
2,58957, Control_c, 0, 64, 67
2,58976, Control_c, 0, 64, 72
2,58996, Control_c, 0, 64, 83
2,59015, Control_c, 0, 64, 127
2,59022, Note_on_c, 0, 64, 0
2,59103, Note_on_c, 0, 48, 0
2,59207, Control_c, 0, 64, 93
2,59226, Control_c, 0, 64, 66
2,59245, Control_c, 0, 64, 48
2,59264, Control_c, 0, 64, 0
2,59277, Note_on_c, 0, 64, 64
2,59288, Note_on_c, 0, 50, 56
2,59449, Note_on_c, 0, 50, 0
2,59478, Note_on_c, 0, 70, 0
2,59491, Note_on_c, 0, 62, 60
2,59495, Note_on_c, 0, 52, 60
2,59509, Note_on_c, 0, 64, 0
2,59628, Note_on_c, 0, 52, 0
2,59668, Control_c, 0, 64, 28
2,59681, Note_on_c, 0, 62, 0
2,59690, Control_c, 0, 64, 30
2,59706, Control_c, 0, 64, 28
2,59711, Note_on_c, 0, 53, 56
2,59721, Note_on_c, 0, 60, 66
2,59745, Control_c, 0, 64, 29
2,59765, Control_c, 0, 64, 28
2,59785, Control_c, 0, 64, 27
2,59803, Control_c, 0, 64, 25
2,59825, Control_c, 0, 64, 23
2,59856, Note_on_c, 0, 60, 0
2,59880, Control_c, 0, 64, 21
2,59900, Control_c, 0, 64, 20
2,59908, Note_on_c, 0, 67, 71
2,59976, Control_c, 0, 64, 17
2,59993, Control_c, 0, 64, 12
2,60013, Control_c, 0, 64, 0
2,60091, Control_c, 0, 64, 15
2,60110, Control_c, 0, 64, 33
2,60119, Note_on_c, 0, 60, 66
2,60128, Control_c, 0, 64, 47
2,60133, Note_on_c, 0, 68, 82
2,60148, Control_c, 0, 64, 59
2,60166, Control_c, 0, 64, 64
2,60172, Note_on_c, 0, 67, 0
2,60186, Control_c, 0, 64, 68
2,60205, Control_c, 0, 64, 74
2,60225, Control_c, 0, 64, 86
2,60244, Note_on_c, 0, 68, 0
2,60249, Control_c, 0, 64, 112
2,60264, Control_c, 0, 64, 127
2,60326, Note_on_c, 0, 60, 0
2,60330, Note_on_c, 0, 58, 70
2,60335, Note_on_c, 0, 72, 80
2,60372, Note_on_c, 0, 58, 0
2,60392, Note_on_c, 0, 53, 0
2,60648, Control_c, 0, 64, 78
2,60668, Control_c, 0, 64, 63
2,60675, Note_on_c, 0, 77, 87
2,60686, Note_on_c, 0, 56, 61
2,60690, Control_c, 0, 64, 51
2,60706, Control_c, 0, 64, 40
2,60725, Control_c, 0, 64, 26
2,60743, Control_c, 0, 64, 0
2,60756, Note_on_c, 0, 72, 0
2,61085, Note_on_c, 0, 50, 69
2,61306, Note_on_c, 0, 48, 69
2,61319, Note_on_c, 0, 50, 0
2,61560, Note_on_c, 0, 47, 66
2,61583, Note_on_c, 0, 48, 0
2,61597, Control_c, 0, 64, 20
2,61613, Control_c, 0, 64, 49
2,61632, Control_c, 0, 64, 61
2,61651, Note_on_c, 0, 56, 0
2,61655, Control_c, 0, 64, 65
2,61672, Control_c, 0, 64, 69
2,61672, Note_on_c, 0, 47, 0
2,61690, Control_c, 0, 64, 77
2,61711, Control_c, 0, 64, 95
2,61730, Control_c, 0, 64, 127
2,61940, Control_c, 0, 64, 87
2,61958, Control_c, 0, 64, 65
2,61975, Note_on_c, 0, 47, 63
2,61980, Control_c, 0, 64, 47
2,61994, Note_on_c, 0, 74, 66
2,61998, Control_c, 0, 64, 23
2,62019, Control_c, 0, 64, 0
2,62198, Note_on_c, 0, 47, 0
2,62207, Note_on_c, 0, 45, 62
2,62211, Note_on_c, 0, 72, 66
2,62220, Note_on_c, 0, 74, 0
2,62432, Note_on_c, 0, 72, 0
2,62444, Note_on_c, 0, 45, 0
2,62448, Note_on_c, 0, 71, 57
2,62468, Note_on_c, 0, 43, 58
2,62534, Control_c, 0, 64, 32
2,62554, Control_c, 0, 64, 48
2,62572, Control_c, 0, 64, 59
2,62593, Control_c, 0, 64, 64
2,62606, Note_on_c, 0, 71, 0
2,62611, Control_c, 0, 64, 67
2,62632, Control_c, 0, 64, 73
2,62652, Control_c, 0, 64, 84
2,62669, Control_c, 0, 64, 127
2,62823, Control_c, 0, 64, 104
2,62840, Note_on_c, 0, 43, 0
2,62844, Control_c, 0, 64, 73
2,62853, Note_on_c, 0, 45, 63
2,62857, Control_c, 0, 64, 54
2,62857, Note_on_c, 0, 71, 66
2,62875, Control_c, 0, 64, 0
2,63047, Note_on_c, 0, 71, 0
2,63060, Note_on_c, 0, 69, 64
2,63064, Note_on_c, 0, 45, 0
2,63082, Note_on_c, 0, 47, 61
2,63275, Note_on_c, 0, 69, 0
2,63284, Note_on_c, 0, 47, 0
2,63311, Note_on_c, 0, 67, 65
2,63315, Note_on_c, 0, 48, 56
2,63355, Control_c, 0, 64, 21
2,63374, Control_c, 0, 64, 38
2,63394, Control_c, 0, 64, 52
2,63412, Control_c, 0, 64, 62
2,63432, Control_c, 0, 64, 65
2,63450, Control_c, 0, 64, 66
2,63470, Control_c, 0, 64, 67
2,63490, Control_c, 0, 64, 69
2,63490, Note_on_c, 0, 48, 0
2,63510, Control_c, 0, 64, 73
2,63530, Control_c, 0, 64, 80
2,63530, Note_on_c, 0, 67, 0
2,63546, Control_c, 0, 64, 85
2,63566, Control_c, 0, 64, 87
2,63586, Control_c, 0, 64, 88
2,63605, Control_c, 0, 64, 89
2,63624, Control_c, 0, 64, 96
2,63641, Control_c, 0, 64, 111
2,63662, Control_c, 0, 64, 127
2,63753, Note_on_c, 0, 67, 62
2,63753, Note_on_c, 0, 75, 68
2,63822, Note_on_c, 0, 77, 0
2,63833, Note_on_c, 0, 67, 0
2,63975, Note_on_c, 0, 69, 55
2,64119, Note_on_c, 0, 75, 0
2,64181, Note_on_c, 0, 69, 0
2,64199, Control_c, 0, 64, 91
2,64219, Control_c, 0, 64, 72
2,64224, Note_on_c, 0, 55, 83
2,64242, Control_c, 0, 64, 61
2,64242, Note_on_c, 0, 74, 60
2,64246, Note_on_c, 0, 71, 49
2,64259, Control_c, 0, 64, 51
2,64274, Control_c, 0, 64, 40
2,64295, Control_c, 0, 64, 30
2,64314, Control_c, 0, 64, 18
2,64319, Note_on_c, 0, 71, 0
2,64335, Control_c, 0, 64, 12
2,64351, Control_c, 0, 64, 11
2,64393, Control_c, 0, 64, 10
2,64410, Control_c, 0, 64, 9
2,64431, Control_c, 0, 64, 0
2,64674, Note_on_c, 0, 79, 68
2,64678, Note_on_c, 0, 74, 0
2,64684, Note_on_c, 0, 69, 60
2,64877, Note_on_c, 0, 69, 0
2,64900, Note_on_c, 0, 71, 61
2,65111, Note_on_c, 0, 79, 0
2,65118, Note_on_c, 0, 71, 0
2,65133, Note_on_c, 0, 56, 82
2,65143, Note_on_c, 0, 72, 66
2,65193, Note_on_c, 0, 55, 0
2,65330, Note_on_c, 0, 72, 0
2,65341, Note_on_c, 0, 71, 67
2,65540, Note_on_c, 0, 71, 0
2,65556, Note_on_c, 0, 72, 76
2,65766, Note_on_c, 0, 74, 71
2,66033, Note_on_c, 0, 55, 71
2,66037, Note_on_c, 0, 75, 63
2,66102, Note_on_c, 0, 74, 0
2,66109, Note_on_c, 0, 56, 0
2,66440, Note_on_c, 0, 70, 59
2,66544, Note_on_c, 0, 72, 0
2,66566, Note_on_c, 0, 70, 0
2,66880, Note_on_c, 0, 75, 0
2,66894, Note_on_c, 0, 54, 64
2,66896, Note_on_c, 0, 69, 51
2,66958, Note_on_c, 0, 55, 0
2,67096, Note_on_c, 0, 69, 0
2,67124, Note_on_c, 0, 72, 73
2,67338, Note_on_c, 0, 74, 76
2,67342, Note_on_c, 0, 71, 71
2,67347, Note_on_c, 0, 72, 0
2,67536, Note_on_c, 0, 75, 72
2,67547, Note_on_c, 0, 72, 71
2,67554, Note_on_c, 0, 74, 0
2,67590, Note_on_c, 0, 71, 0
2,67745, Note_on_c, 0, 75, 0
2,67778, Note_on_c, 0, 59, 89
2,67778, Note_on_c, 0, 77, 74
2,67782, Note_on_c, 0, 72, 0
2,67782, Note_on_c, 0, 74, 69
2,67835, Note_on_c, 0, 54, 0
2,67997, Note_on_c, 0, 72, 74
2,68021, Note_on_c, 0, 74, 0
2,68217, Note_on_c, 0, 72, 0
2,68226, Note_on_c, 0, 71, 72
2,68423, Note_on_c, 0, 71, 0
2,68430, Note_on_c, 0, 69, 63
2,68503, Note_on_c, 0, 77, 0
2,68660, Note_on_c, 0, 69, 0
2,68685, Note_on_c, 0, 60, 85
2,68702, Note_on_c, 0, 67, 62
2,68731, Note_on_c, 0, 59, 0
2,68898, Note_on_c, 0, 67, 0
2,68898, Note_on_c, 0, 75, 76
2,69101, Note_on_c, 0, 77, 80
2,69171, Note_on_c, 0, 75, 0
2,69303, Note_on_c, 0, 79, 84
2,69318, Note_on_c, 0, 77, 0
2,69550, Note_on_c, 0, 53, 86
2,69565, Note_on_c, 0, 80, 78
2,69576, Note_on_c, 0, 60, 0
2,69580, Note_on_c, 0, 79, 0
2,69761, Note_on_c, 0, 65, 65
2,69901, Control_c, 0, 64, 10
2,69920, Control_c, 0, 64, 29
2,69943, Control_c, 0, 64, 45
2,69958, Control_c, 0, 64, 59
2,69969, Note_on_c, 0, 65, 0
2,69981, Control_c, 0, 64, 65
2,69989, Note_on_c, 0, 63, 70
2,70000, Control_c, 0, 64, 70
2,70017, Control_c, 0, 64, 81
2,70036, Control_c, 0, 64, 113
2,70055, Control_c, 0, 64, 127
2,70130, Note_on_c, 0, 63, 0
2,70167, Note_on_c, 0, 53, 0
2,70204, Note_on_c, 0, 62, 68
2,70382, Note_on_c, 0, 62, 0
2,70422, Control_c, 0, 64, 94
2,70439, Control_c, 0, 64, 69
2,70452, Note_on_c, 0, 60, 76
2,70461, Control_c, 0, 64, 56
2,70461, Note_on_c, 0, 52, 70
2,70476, Control_c, 0, 64, 42
2,70496, Control_c, 0, 64, 21
2,70516, Control_c, 0, 64, 0
2,70656, Note_on_c, 0, 80, 0
2,70678, Note_on_c, 0, 79, 71
2,70689, Control_c, 0, 64, 31
2,70709, Control_c, 0, 64, 46
2,70727, Control_c, 0, 64, 56
2,70748, Control_c, 0, 64, 61
2,70766, Control_c, 0, 64, 62
2,70786, Control_c, 0, 64, 63
2,70786, Note_on_c, 0, 60, 0
2,70805, Control_c, 0, 64, 64
2,70821, Control_c, 0, 64, 66
2,70841, Control_c, 0, 64, 67
2,70860, Control_c, 0, 64, 69
2,70893, Note_on_c, 0, 79, 0
2,70900, Control_c, 0, 64, 70
2,70905, Note_on_c, 0, 81, 68
2,71015, Control_c, 0, 64, 69
2,71074, Control_c, 0, 64, 68
2,71091, Control_c, 0, 64, 69
2,71107, Note_on_c, 0, 81, 0
2,71117, Note_on_c, 0, 83, 69
2,71170, Control_c, 0, 64, 68
2,71303, Control_c, 0, 64, 64
2,71322, Control_c, 0, 64, 55
2,71341, Control_c, 0, 64, 39
2,71361, Control_c, 0, 64, 0
2,71372, Note_on_c, 0, 51, 62
2,71384, Note_on_c, 0, 83, 0
2,71384, Note_on_c, 0, 84, 63
2,71390, Note_on_c, 0, 52, 0
2,71455, Control_c, 0, 64, 18
2,71475, Control_c, 0, 64, 34
2,71493, Control_c, 0, 64, 45
2,71514, Control_c, 0, 64, 53
2,71535, Control_c, 0, 64, 58
2,71553, Control_c, 0, 64, 61
2,71572, Control_c, 0, 64, 62
2,71594, Control_c, 0, 64, 63
2,71598, Note_on_c, 0, 72, 62
2,71611, Control_c, 0, 64, 64
2,71629, Control_c, 0, 64, 65
2,71658, Note_on_c, 0, 72, 0
2,71669, Control_c, 0, 64, 66
2,71829, Note_on_c, 0, 74, 59
2,71918, Control_c, 0, 64, 65
2,72006, Note_on_c, 0, 74, 0
2,72028, Note_on_c, 0, 75, 57
2,72244, Control_c, 0, 64, 64
2,72258, Note_on_c, 0, 75, 0
2,72264, Control_c, 0, 64, 63
2,72282, Control_c, 0, 64, 61
2,72300, Control_c, 0, 64, 59
2,72304, Note_on_c, 0, 77, 57
2,72309, Note_on_c, 0, 50, 53
2,72319, Control_c, 0, 64, 55
2,72339, Control_c, 0, 64, 52
2,72361, Control_c, 0, 64, 49
2,72361, Note_on_c, 0, 51, 0
2,72379, Control_c, 0, 64, 44
2,72398, Control_c, 0, 64, 40
2,72419, Control_c, 0, 64, 39
2,72436, Control_c, 0, 64, 38
2,72455, Control_c, 0, 64, 37
2,72475, Control_c, 0, 64, 36
2,72771, Note_on_c, 0, 83, 57
2,72786, Note_on_c, 0, 84, 0
2,72957, Note_on_c, 0, 83, 0
2,72973, Note_on_c, 0, 81, 58
2,73233, Note_on_c, 0, 81, 0
2,73249, Note_on_c, 0, 83, 57
2,73452, Control_c, 0, 64, 37
2,73614, Note_on_c, 0, 77, 0
2,73688, Note_on_c, 0, 75, 40
2,73828, Note_on_c, 0, 75, 0
2,73866, Note_on_c, 0, 74, 47
2,73896, Control_c, 0, 64, 36
2,73932, Control_c, 0, 64, 35
2,73953, Control_c, 0, 64, 30
2,73972, Control_c, 0, 64, 9
2,73991, Control_c, 0, 64, 0
2,74077, Note_on_c, 0, 50, 0
2,74106, Control_c, 0, 64, 24
2,74127, Control_c, 0, 64, 46
2,74148, Note_on_c, 0, 48, 42
2,74153, Control_c, 0, 64, 59
2,74153, Note_on_c, 0, 84, 56
2,74165, Control_c, 0, 64, 65
2,74165, Note_on_c, 0, 75, 53
2,74183, Note_on_c, 0, 74, 0
2,74188, Control_c, 0, 64, 71
2,74204, Control_c, 0, 64, 83
2,74204, Note_on_c, 0, 84, 0
2,74212, Note_on_c, 0, 48, 0
2,74221, Control_c, 0, 64, 127
2,74250, Note_on_c, 0, 75, 0
2,74261, Note_on_c, 0, 83, 0
2,74583, Note_on_c, 0, 72, 70
2,74588, Note_on_c, 0, 79, 68
2,74627, Control_c, 0, 64, 90
2,74638, Note_on_c, 0, 79, 0
2,74645, Control_c, 0, 64, 70
2,74666, Control_c, 0, 64, 62
2,74682, Control_c, 0, 64, 57
2,74702, Control_c, 0, 64, 54
2,74720, Control_c, 0, 64, 52
2,74741, Control_c, 0, 64, 49
2,74759, Control_c, 0, 64, 45
2,74777, Control_c, 0, 64, 40
2,74796, Control_c, 0, 64, 39
2,74801, Note_on_c, 0, 74, 80
2,74805, Note_on_c, 0, 72, 0
2,74819, Control_c, 0, 64, 38
2,74836, Control_c, 0, 64, 37
2,74854, Control_c, 0, 64, 36
2,74874, Control_c, 0, 64, 34
2,74894, Control_c, 0, 64, 33
2,74969, Control_c, 0, 64, 32
2,74989, Control_c, 0, 64, 31
2,75046, Control_c, 0, 64, 30
2,75059, Note_on_c, 0, 75, 72
2,75068, Control_c, 0, 64, 29
2,75068, Note_on_c, 0, 84, 70
2,75095, Note_on_c, 0, 74, 0
2,75105, Control_c, 0, 64, 28
2,75163, Control_c, 0, 64, 27
2,75182, Control_c, 0, 64, 26
2,75199, Control_c, 0, 64, 25
2,75239, Control_c, 0, 64, 24
2,75278, Control_c, 0, 64, 23
2,75296, Control_c, 0, 64, 20
2,75316, Control_c, 0, 64, 19
2,75336, Control_c, 0, 64, 18
2,75355, Control_c, 0, 64, 17
2,75391, Control_c, 0, 64, 16
2,75412, Control_c, 0, 64, 15
2,75503, Note_on_c, 0, 72, 64
2,75508, Control_c, 0, 64, 14
2,75527, Control_c, 0, 64, 13
2,75583, Control_c, 0, 64, 12
2,75624, Control_c, 0, 64, 11
2,75713, Note_on_c, 0, 72, 0
2,75725, Note_on_c, 0, 70, 58
2,75737, Control_c, 0, 64, 10
2,75757, Control_c, 0, 64, 9
2,75779, Control_c, 0, 64, 8
2,75812, Note_on_c, 0, 84, 0
2,75816, Control_c, 0, 64, 0
2,75969, Note_on_c, 0, 70, 0
2,75973, Note_on_c, 0, 69, 57
2,76010, Control_c, 0, 64, 45
2,76025, Control_c, 0, 64, 60
2,76045, Control_c, 0, 64, 68
2,76065, Control_c, 0, 64, 76
2,76082, Control_c, 0, 64, 97
2,76091, Note_on_c, 0, 69, 0
2,76104, Control_c, 0, 64, 127
2,76399, Note_on_c, 0, 69, 50
2,76412, Control_c, 0, 64, 80
2,76413, Note_on_c, 0, 84, 63
2,76428, Control_c, 0, 64, 64
2,76449, Control_c, 0, 64, 56
2,76467, Control_c, 0, 64, 49
2,76487, Control_c, 0, 64, 44
2,76505, Control_c, 0, 64, 36
2,76524, Control_c, 0, 64, 24
2,76544, Control_c, 0, 64, 0
2,76586, Note_on_c, 0, 69, 0
2,76606, Note_on_c, 0, 82, 69
2,76616, Note_on_c, 0, 67, 51
2,76805, Note_on_c, 0, 84, 0
2,76814, Control_c, 0, 64, 19
2,76825, Note_on_c, 0, 67, 0
2,76833, Control_c, 0, 64, 48
2,76847, Note_on_c, 0, 81, 68
2,76853, Control_c, 0, 64, 61
2,76866, Note_on_c, 0, 65, 49
2,76870, Control_c, 0, 64, 68
2,76892, Control_c, 0, 64, 77
2,76912, Control_c, 0, 64, 97
2,76912, Note_on_c, 0, 82, 0
2,76929, Control_c, 0, 64, 127
2,76946, Note_on_c, 0, 81, 0
2,77235, Note_on_c, 0, 65, 0
2,77266, Note_on_c, 0, 81, 65
2,77272, Note_on_c, 0, 67, 61
2,77294, Control_c, 0, 64, 97
2,77314, Control_c, 0, 64, 75
2,77333, Control_c, 0, 64, 64
2,77352, Control_c, 0, 64, 57
2,77371, Control_c, 0, 64, 52
2,77387, Control_c, 0, 64, 49
2,77407, Control_c, 0, 64, 45
2,77427, Control_c, 0, 64, 40
2,77449, Control_c, 0, 64, 34
2,77465, Control_c, 0, 64, 29
2,77465, Note_on_c, 0, 67, 0
2,77478, Note_on_c, 0, 69, 64
2,77478, Note_on_c, 0, 79, 71
2,77486, Control_c, 0, 64, 27
2,77505, Note_on_c, 0, 81, 0
2,77523, Control_c, 0, 64, 23
2,77542, Control_c, 0, 64, 18
2,77561, Control_c, 0, 64, 17
2,77584, Control_c, 0, 64, 16
2,77619, Control_c, 0, 64, 15
2,77639, Control_c, 0, 64, 8
2,77657, Control_c, 0, 64, 0
2,77697, Note_on_c, 0, 69, 0
2,77748, Note_on_c, 0, 70, 58
2,77750, Note_on_c, 0, 77, 67
2,77765, Note_on_c, 0, 79, 0
2,77774, Note_on_c, 0, 75, 0
2,77852, Note_on_c, 0, 70, 0
2,78119, Control_c, 0, 64, 23
2,78139, Control_c, 0, 64, 40
2,78159, Control_c, 0, 64, 52
2,78172, Note_on_c, 0, 77, 0
2,78178, Note_on_c, 0, 58, 44
2,78183, Control_c, 0, 64, 60
2,78183, Note_on_c, 0, 79, 68
2,78196, Control_c, 0, 64, 64
2,78203, Note_on_c, 0, 70, 43
2,78215, Control_c, 0, 64, 66
2,78237, Control_c, 0, 64, 70
2,78237, Note_on_c, 0, 58, 0
2,78241, Note_on_c, 0, 70, 0
2,78255, Control_c, 0, 64, 79
2,78272, Control_c, 0, 64, 94
2,78292, Control_c, 0, 64, 112
2,78310, Control_c, 0, 64, 127
2,78371, Note_on_c, 0, 79, 0
2,78396, Note_on_c, 0, 72, 75
2,78396, Note_on_c, 0, 81, 67
2,78637, Control_c, 0, 64, 89
2,78657, Control_c, 0, 64, 73
2,78668, Note_on_c, 0, 73, 73
2,78673, Note_on_c, 0, 72, 0
2,78673, Note_on_c, 0, 82, 74
2,78677, Control_c, 0, 64, 63
2,78682, Note_on_c, 0, 81, 0
2,78694, Control_c, 0, 64, 55
2,78715, Control_c, 0, 64, 47
2,78734, Control_c, 0, 64, 40
2,78753, Control_c, 0, 64, 32
2,78771, Control_c, 0, 64, 21
2,78791, Control_c, 0, 64, 11
2,78809, Control_c, 0, 64, 0
2,79098, Note_on_c, 0, 70, 59
2,79292, Note_on_c, 0, 70, 0
2,79305, Note_on_c, 0, 68, 62
2,79514, Note_on_c, 0, 82, 0
2,79539, Control_c, 0, 64, 34
2,79551, Note_on_c, 0, 68, 0
2,79555, Note_on_c, 0, 67, 59
2,79560, Control_c, 0, 64, 51
2,79578, Control_c, 0, 64, 61
2,79599, Control_c, 0, 64, 66
2,79619, Control_c, 0, 64, 69
2,79634, Control_c, 0, 64, 77
2,79656, Control_c, 0, 64, 92
2,79656, Note_on_c, 0, 67, 0
2,79675, Control_c, 0, 64, 127
2,79944, Control_c, 0, 64, 100
2,79963, Control_c, 0, 64, 77
2,79970, Note_on_c, 0, 67, 50
2,79975, Note_on_c, 0, 82, 59
2,79984, Control_c, 0, 64, 65
2,79999, Control_c, 0, 64, 57
2,80018, Control_c, 0, 64, 52
2,80037, Control_c, 0, 64, 47
2,80057, Control_c, 0, 64, 41
2,80075, Control_c, 0, 64, 34
2,80095, Control_c, 0, 64, 25
2,80114, Control_c, 0, 64, 16
2,80134, Control_c, 0, 64, 10
2,80148, Note_on_c, 0, 67, 0
2,80156, Control_c, 0, 64, 0
2,80191, Note_on_c, 0, 80, 59
2,80200, Note_on_c, 0, 65, 40
2,80325, Note_on_c, 0, 82, 0
2,80392, Note_on_c, 0, 65, 0
2,80403, Control_c, 0, 64, 38
2,80422, Control_c, 0, 64, 59
2,80436, Note_on_c, 0, 79, 63
2,80441, Control_c, 0, 64, 67
2,80445, Note_on_c, 0, 63, 47
2,80462, Control_c, 0, 64, 77
2,80482, Control_c, 0, 64, 100
2,80486, Note_on_c, 0, 80, 0
2,80500, Control_c, 0, 64, 127
2,80516, Note_on_c, 0, 79, 0
2,80808, Note_on_c, 0, 63, 0
2,80853, Note_on_c, 0, 79, 61
2,80861, Note_on_c, 0, 65, 51
2,80866, Control_c, 0, 64, 81
2,80885, Control_c, 0, 64, 66
2,80904, Control_c, 0, 64, 58
2,80922, Control_c, 0, 64, 51
2,80942, Control_c, 0, 64, 46
2,80959, Control_c, 0, 64, 42
2,80979, Control_c, 0, 64, 37
2,80997, Control_c, 0, 64, 32
2,81018, Control_c, 0, 64, 28
2,81035, Control_c, 0, 64, 27
2,81042, Note_on_c, 0, 65, 0
2,81055, Control_c, 0, 64, 25
2,81060, Note_on_c, 0, 79, 0
2,81064, Note_on_c, 0, 77, 65
2,81075, Note_on_c, 0, 67, 53
2,81079, Control_c, 0, 64, 23
2,81096, Control_c, 0, 64, 21
2,81114, Control_c, 0, 64, 19
2,81133, Control_c, 0, 64, 18
2,81152, Control_c, 0, 64, 17
2,81171, Control_c, 0, 64, 13
2,81191, Control_c, 0, 64, 0
2,81285, Note_on_c, 0, 67, 0
2,81325, Note_on_c, 0, 77, 0
2,81333, Note_on_c, 0, 75, 54
2,81337, Note_on_c, 0, 68, 54
2,81365, Note_on_c, 0, 73, 0
2,81399, Note_on_c, 0, 68, 0
2,81652, Control_c, 0, 64, 10
2,81670, Control_c, 0, 64, 27
2,81690, Control_c, 0, 64, 42
2,81710, Control_c, 0, 64, 54
2,81717, Note_on_c, 0, 75, 0
2,81732, Control_c, 0, 64, 62
2,81747, Control_c, 0, 64, 65
2,81758, Note_on_c, 0, 68, 50
2,81758, Note_on_c, 0, 77, 61
2,81767, Note_on_c, 0, 56, 41
2,81768, Control_c, 0, 64, 68
2,81786, Control_c, 0, 64, 75
2,81806, Control_c, 0, 64, 89
2,81814, Note_on_c, 0, 56, 0
2,81814, Note_on_c, 0, 68, 0
2,81823, Control_c, 0, 64, 127
2,81962, Note_on_c, 0, 77, 0
2,81989, Note_on_c, 0, 79, 65
2,81994, Note_on_c, 0, 70, 58
2,82288, Note_on_c, 0, 70, 0
2,82305, Control_c, 0, 64, 102
2,82305, Note_on_c, 0, 79, 0
2,82320, Note_on_c, 0, 72, 61
2,82324, Control_c, 0, 64, 79
2,82324, Note_on_c, 0, 80, 59
2,82343, Control_c, 0, 64, 64
2,82362, Control_c, 0, 64, 55
2,82381, Control_c, 0, 64, 47
2,82399, Control_c, 0, 64, 42
2,82420, Control_c, 0, 64, 37
2,82440, Control_c, 0, 64, 31
2,82458, Control_c, 0, 64, 25
2,82476, Control_c, 0, 64, 21
2,82498, Control_c, 0, 64, 20
2,82515, Control_c, 0, 64, 19
2,82534, Control_c, 0, 64, 17
2,82553, Control_c, 0, 64, 15
2,82572, Control_c, 0, 64, 14
2,82631, Control_c, 0, 64, 15
2,82748, Note_on_c, 0, 68, 50
2,82921, Note_on_c, 0, 68, 0
2,82969, Note_on_c, 0, 67, 53
2,83091, Control_c, 0, 64, 13
2,83129, Control_c, 0, 64, 15
2,83149, Control_c, 0, 64, 25
2,83167, Control_c, 0, 64, 41
2,83185, Note_on_c, 0, 67, 0
2,83187, Control_c, 0, 64, 53
2,83207, Control_c, 0, 64, 61
2,83224, Control_c, 0, 64, 64
2,83233, Note_on_c, 0, 65, 42
2,83245, Control_c, 0, 64, 67
2,83263, Control_c, 0, 64, 74
2,83285, Control_c, 0, 64, 92
2,83305, Control_c, 0, 64, 127
2,83305, Note_on_c, 0, 80, 0
2,83338, Note_on_c, 0, 65, 0
2,83674, Note_on_c, 0, 80, 54
2,83681, Note_on_c, 0, 65, 36
2,83767, Control_c, 0, 64, 104
2,83784, Control_c, 0, 64, 85
2,83802, Control_c, 0, 64, 74
2,83821, Control_c, 0, 64, 67
2,83841, Control_c, 0, 64, 62
2,83861, Control_c, 0, 64, 58
2,83861, Note_on_c, 0, 65, 0
2,83878, Control_c, 0, 64, 56
2,83895, Note_on_c, 0, 79, 51
2,83898, Control_c, 0, 64, 54
2,83906, Note_on_c, 0, 63, 40
2,83917, Control_c, 0, 64, 51
2,83936, Control_c, 0, 64, 47
2,83955, Control_c, 0, 64, 40
2,83975, Control_c, 0, 64, 23
2,83995, Control_c, 0, 64, 0
2,84010, Note_on_c, 0, 80, 0
2,84109, Control_c, 0, 64, 27
2,84129, Control_c, 0, 64, 51
2,84132, Note_on_c, 0, 77, 64
2,84154, Control_c, 0, 64, 62
2,84154, Note_on_c, 0, 61, 40
2,84154, Note_on_c, 0, 63, 0
2,84168, Control_c, 0, 64, 68
2,84173, Note_on_c, 0, 79, 0
2,84187, Control_c, 0, 64, 74
2,84207, Control_c, 0, 64, 85
2,84223, Control_c, 0, 64, 102
2,84244, Control_c, 0, 64, 127
2,84264, Note_on_c, 0, 61, 0
2,84264, Note_on_c, 0, 77, 0
2,84561, Note_on_c, 0, 77, 64
2,84586, Note_on_c, 0, 61, 45
2,84705, Control_c, 0, 64, 108
2,84722, Control_c, 0, 64, 93
2,84743, Control_c, 0, 64, 82
2,84754, Note_on_c, 0, 61, 0
2,84765, Control_c, 0, 64, 74
2,84776, Note_on_c, 0, 60, 64
2,84784, Control_c, 0, 64, 67
2,84784, Note_on_c, 0, 75, 64
2,84798, Control_c, 0, 64, 61
2,84818, Control_c, 0, 64, 55
2,84838, Control_c, 0, 64, 51
2,84860, Control_c, 0, 64, 49
2,84876, Control_c, 0, 64, 46
2,84890, Note_on_c, 0, 77, 0
2,84898, Control_c, 0, 64, 43
2,84915, Control_c, 0, 64, 41
2,84934, Control_c, 0, 64, 39
2,84952, Control_c, 0, 64, 38
2,84972, Control_c, 0, 64, 37
2,85005, Note_on_c, 0, 60, 0
2,85018, Note_on_c, 0, 58, 58
2,85030, Note_on_c, 0, 73, 68
2,85070, Note_on_c, 0, 72, 0
2,85100, Note_on_c, 0, 75, 0
2,85337, Control_c, 0, 64, 36
2,85392, Note_on_c, 0, 58, 0
2,85433, Note_on_c, 0, 60, 62
2,85448, Note_on_c, 0, 70, 59
2,85639, Note_on_c, 0, 60, 0
2,85652, Note_on_c, 0, 61, 63
2,85652, Note_on_c, 0, 70, 0
2,85656, Note_on_c, 0, 68, 61
2,85848, Note_on_c, 0, 68, 0
2,85882, Note_on_c, 0, 61, 0
2,85895, Note_on_c, 0, 67, 56
2,85917, Note_on_c, 0, 63, 60
2,85989, Note_on_c, 0, 63, 0
2,86294, Note_on_c, 0, 51, 59
2,86303, Note_on_c, 0, 73, 0
2,86303, Note_on_c, 0, 75, 62
2,86353, Note_on_c, 0, 51, 0
2,86521, Note_on_c, 0, 73, 64
2,86528, Control_c, 0, 64, 35
2,86625, Note_on_c, 0, 75, 0
2,86642, Control_c, 0, 64, 34
2,86661, Control_c, 0, 64, 33
2,86721, Control_c, 0, 64, 36
2,86740, Control_c, 0, 64, 42
2,86758, Control_c, 0, 64, 50
2,86773, Note_on_c, 0, 56, 61
2,86777, Control_c, 0, 64, 57
2,86784, Note_on_c, 0, 72, 61
2,86798, Control_c, 0, 64, 61
2,86817, Control_c, 0, 64, 63
2,86832, Note_on_c, 0, 73, 0
2,86836, Control_c, 0, 64, 65
2,86854, Control_c, 0, 64, 68
2,86874, Control_c, 0, 64, 73
2,86893, Control_c, 0, 64, 83
2,86908, Note_on_c, 0, 72, 0
2,86915, Control_c, 0, 64, 94
2,86932, Control_c, 0, 64, 103
2,86952, Control_c, 0, 64, 109
2,86970, Control_c, 0, 64, 116
2,86987, Control_c, 0, 64, 127
2,87199, Note_on_c, 0, 58, 66
2,87204, Note_on_c, 0, 72, 70
2,87239, Control_c, 0, 64, 118
2,87242, Note_on_c, 0, 56, 0
2,87261, Control_c, 0, 64, 104
2,87279, Control_c, 0, 64, 94
2,87295, Control_c, 0, 64, 82
2,87314, Control_c, 0, 64, 73
2,87335, Control_c, 0, 64, 66
2,87352, Control_c, 0, 64, 63
2,87372, Control_c, 0, 64, 59
2,87392, Control_c, 0, 64, 55
2,87414, Control_c, 0, 64, 52
2,87414, Note_on_c, 0, 60, 71
2,87423, Note_on_c, 0, 70, 71
2,87428, Note_on_c, 0, 58, 0
2,87432, Control_c, 0, 64, 44
2,87450, Control_c, 0, 64, 36
2,87464, Note_on_c, 0, 72, 0
2,87469, Control_c, 0, 64, 27
2,87488, Control_c, 0, 64, 17
2,87509, Control_c, 0, 64, 0
2,87663, Note_on_c, 0, 60, 0
2,87676, Note_on_c, 0, 61, 49
2,87678, Note_on_c, 0, 68, 67
2,87699, Note_on_c, 0, 67, 0
2,87723, Note_on_c, 0, 70, 0
2,88099, Note_on_c, 0, 65, 55
2,88280, Note_on_c, 0, 65, 0
2,88306, Note_on_c, 0, 64, 57
2,88519, Note_on_c, 0, 64, 0
2,88528, Control_c, 0, 64, 25
2,88544, Control_c, 0, 64, 45
2,88566, Control_c, 0, 64, 58
2,88571, Note_on_c, 0, 65, 54
2,88571, Note_on_c, 0, 68, 0
2,88577, Note_on_c, 0, 61, 0
2,88582, Control_c, 0, 64, 63
2,88600, Control_c, 0, 64, 65
2,88620, Control_c, 0, 64, 68
2,88640, Control_c, 0, 64, 73
2,88657, Control_c, 0, 64, 83
2,88678, Control_c, 0, 64, 100
2,88697, Control_c, 0, 64, 127
2,88966, Note_on_c, 0, 61, 53
2,88971, Control_c, 0, 64, 112
2,88975, Note_on_c, 0, 70, 63
2,88986, Control_c, 0, 64, 81
2,89006, Control_c, 0, 64, 66
2,89023, Control_c, 0, 64, 56
2,89044, Control_c, 0, 64, 46
2,89064, Control_c, 0, 64, 37
2,89081, Control_c, 0, 64, 21
2,89101, Control_c, 0, 64, 0
2,89157, Note_on_c, 0, 61, 0
2,89181, Note_on_c, 0, 72, 68
2,89196, Note_on_c, 0, 70, 0
2,89201, Note_on_c, 0, 60, 43
2,89390, Note_on_c, 0, 60, 0
2,89417, Note_on_c, 0, 72, 0
2,89431, Note_on_c, 0, 73, 64
2,89435, Note_on_c, 0, 58, 50
2,89448, Control_c, 0, 64, 34
2,89464, Control_c, 0, 64, 50
2,89485, Control_c, 0, 64, 60
2,89505, Control_c, 0, 64, 66
2,89517, Note_on_c, 0, 65, 0
2,89523, Control_c, 0, 64, 73
2,89543, Control_c, 0, 64, 91
2,89565, Control_c, 0, 64, 127
2,89565, Note_on_c, 0, 58, 0
2,89831, Note_on_c, 0, 67, 60
2,89838, Note_on_c, 0, 58, 58
2,89868, Control_c, 0, 64, 85
2,89888, Control_c, 0, 64, 68
2,89906, Control_c, 0, 64, 58
2,89927, Control_c, 0, 64, 51
2,89946, Control_c, 0, 64, 46
2,89963, Control_c, 0, 64, 40
2,89983, Control_c, 0, 64, 29
2,90003, Control_c, 0, 64, 8
2,90019, Note_on_c, 0, 67, 0
2,90023, Control_c, 0, 64, 0
2,90028, Note_on_c, 0, 58, 0
2,90041, Note_on_c, 0, 56, 61
2,90052, Note_on_c, 0, 68, 58
2,90223, Note_on_c, 0, 73, 0
2,90227, Note_on_c, 0, 68, 0
2,90253, Control_c, 0, 64, 36
2,90265, Note_on_c, 0, 70, 61
2,90271, Control_c, 0, 64, 53
2,90284, Note_on_c, 0, 55, 58
2,90291, Control_c, 0, 64, 63
2,90296, Note_on_c, 0, 56, 0
2,90310, Control_c, 0, 64, 68
2,90329, Control_c, 0, 64, 77
2,90350, Control_c, 0, 64, 87
2,90367, Control_c, 0, 64, 122
2,90387, Control_c, 0, 64, 127
2,90409, Note_on_c, 0, 55, 0
2,90437, Note_on_c, 0, 70, 0
2,90480, Note_on_c, 0, 72, 77
2,90599, Control_c, 0, 64, 99
2,90619, Control_c, 0, 64, 74
2,90635, Control_c, 0, 64, 61
2,90656, Control_c, 0, 64, 44
2,90676, Control_c, 0, 64, 0
2,90689, Note_on_c, 0, 73, 77
2,90698, Note_on_c, 0, 55, 55
2,90722, Note_on_c, 0, 72, 0
2,90868, Control_c, 0, 64, 43
2,90874, Note_on_c, 0, 55, 0
2,90886, Control_c, 0, 64, 59
2,90890, Note_on_c, 0, 53, 67
2,90895, Note_on_c, 0, 73, 0
2,90900, Note_on_c, 0, 70, 76
2,90908, Control_c, 0, 64, 65
2,90923, Control_c, 0, 64, 71
2,90943, Control_c, 0, 64, 85
2,90964, Control_c, 0, 64, 127
2,90971, Note_on_c, 0, 70, 0
2,91140, Control_c, 0, 64, 81
2,91140, Note_on_c, 0, 52, 65
2,91142, Note_on_c, 0, 79, 85
2,91155, Control_c, 0, 64, 64
2,91160, Note_on_c, 0, 53, 0
2,91176, Control_c, 0, 64, 53
2,91195, Control_c, 0, 64, 45
2,91213, Control_c, 0, 64, 42
2,91219, Note_on_c, 0, 52, 0
2,91234, Control_c, 0, 64, 39
2,91251, Control_c, 0, 64, 35
2,91272, Control_c, 0, 64, 30
2,91290, Control_c, 0, 64, 25
2,91307, Control_c, 0, 64, 24
2,91348, Control_c, 0, 64, 23
2,91359, Note_on_c, 0, 68, 75
2,91365, Control_c, 0, 64, 20
2,91385, Control_c, 0, 64, 17
2,91425, Control_c, 0, 64, 16
2,91441, Control_c, 0, 64, 14
2,91462, Control_c, 0, 64, 0
2,91563, Note_on_c, 0, 48, 61
2,91565, Note_on_c, 0, 68, 0
2,91583, Note_on_c, 0, 70, 64
2,91598, Control_c, 0, 64, 28
2,91616, Control_c, 0, 64, 46
2,91636, Control_c, 0, 64, 56
2,91636, Note_on_c, 0, 48, 0
2,91654, Control_c, 0, 64, 59
2,91711, Control_c, 0, 64, 60
2,91745, Note_on_c, 0, 70, 0
2,91770, Control_c, 0, 64, 59
2,91776, Note_on_c, 0, 67, 66
2,91788, Control_c, 0, 64, 58
2,91810, Control_c, 0, 64, 53
2,91826, Control_c, 0, 64, 36
2,91833, Note_on_c, 0, 67, 0
2,91846, Control_c, 0, 64, 0
2,91924, Control_c, 0, 64, 8
2,91942, Control_c, 0, 64, 42
2,91960, Control_c, 0, 64, 59
2,91975, Note_on_c, 0, 53, 70
2,91979, Control_c, 0, 64, 67
2,91993, Note_on_c, 0, 68, 72
2,91997, Control_c, 0, 64, 74
2,92018, Control_c, 0, 64, 88
2,92036, Control_c, 0, 64, 127
2,92075, Note_on_c, 0, 53, 0
2,92150, Note_on_c, 0, 79, 0
2,92196, Note_on_c, 0, 68, 0
2,92210, Note_on_c, 0, 72, 68
2,92426, Note_on_c, 0, 65, 73
2,92435, Note_on_c, 0, 72, 0
2,92435, Note_on_c, 0, 73, 82
2,92643, Note_on_c, 0, 63, 82
2,92647, Note_on_c, 0, 72, 84
2,92656, Note_on_c, 0, 65, 0
2,92678, Note_on_c, 0, 73, 0
2,92843, Control_c, 0, 64, 120
2,92866, Control_c, 0, 64, 90
2,92866, Note_on_c, 0, 72, 0
2,92866, Note_on_c, 0, 77, 87
2,92870, Note_on_c, 0, 61, 78
2,92875, Note_on_c, 0, 63, 0
2,92882, Control_c, 0, 64, 74
2,92901, Control_c, 0, 64, 66
2,92919, Control_c, 0, 64, 60
2,92941, Control_c, 0, 64, 55
2,92957, Control_c, 0, 64, 52
2,92978, Control_c, 0, 64, 49
2,92996, Control_c, 0, 64, 47
2,93016, Control_c, 0, 64, 45
2,93034, Control_c, 0, 64, 44
2,93054, Control_c, 0, 64, 42
2,93074, Control_c, 0, 64, 41
2,93074, Note_on_c, 0, 61, 0
2,93084, Note_on_c, 0, 63, 74
2,93085, Note_on_c, 0, 67, 61
2,93130, Control_c, 0, 64, 40
2,93181, Note_on_c, 0, 63, 0
2,93189, Note_on_c, 0, 61, 76
2,93231, Note_on_c, 0, 67, 0
2,93247, Note_on_c, 0, 68, 68
2,93279, Note_on_c, 0, 61, 0
2,93288, Note_on_c, 0, 63, 75
2,93379, Note_on_c, 0, 63, 0
2,93384, Control_c, 0, 64, 41
2,93384, Note_on_c, 0, 61, 78
2,93398, Control_c, 0, 64, 42
2,93421, Note_on_c, 0, 68, 0
2,93457, Note_on_c, 0, 65, 70
2,93527, Note_on_c, 0, 63, 66
2,93535, Control_c, 0, 64, 43
2,93535, Note_on_c, 0, 61, 0
2,93630, Note_on_c, 0, 61, 74
2,93644, Note_on_c, 0, 63, 0
2,93682, Note_on_c, 0, 65, 0
2,93709, Note_on_c, 0, 77, 0
2,93721, Note_on_c, 0, 72, 84
2,93735, Note_on_c, 0, 61, 0
2,93747, Note_on_c, 0, 60, 80
2,93765, Control_c, 0, 64, 42
2,93880, Control_c, 0, 64, 41
2,93936, Control_c, 0, 64, 39
2,93957, Control_c, 0, 64, 35
2,93973, Control_c, 0, 64, 9
2,93995, Control_c, 0, 64, 0
2,94069, Note_on_c, 0, 60, 0
2,94106, Note_on_c, 0, 48, 64
2,94110, Note_on_c, 0, 72, 0
2,94124, Note_on_c, 0, 67, 65
2,94124, Note_on_c, 0, 76, 71
2,94148, Control_c, 0, 64, 33
2,94168, Control_c, 0, 64, 52
2,94185, Control_c, 0, 64, 62
2,94205, Control_c, 0, 64, 65
2,94227, Control_c, 0, 64, 68
2,94244, Control_c, 0, 64, 72
2,94264, Control_c, 0, 64, 84
2,94284, Control_c, 0, 64, 116
2,94292, Note_on_c, 0, 48, 0
2,94301, Control_c, 0, 64, 127
2,94310, Note_on_c, 0, 50, 61
2,94336, Note_on_c, 0, 77, 70
2,94344, Note_on_c, 0, 76, 0
2,94368, Note_on_c, 0, 50, 0
2,94541, Note_on_c, 0, 67, 0
2,94620, Note_on_c, 0, 48, 85
2,94631, Control_c, 0, 64, 91
2,94631, Note_on_c, 0, 52, 81
2,94638, Note_on_c, 0, 72, 66
2,94638, Note_on_c, 0, 79, 78
2,94651, Control_c, 0, 64, 65
2,94667, Control_c, 0, 64, 48
2,94686, Control_c, 0, 64, 25
2,94706, Control_c, 0, 64, 0
2,94845, Note_on_c, 0, 77, 0
2,95067, Note_on_c, 0, 52, 0
2,95081, Note_on_c, 0, 70, 62
2,95085, Note_on_c, 0, 50, 62
2,95186, Note_on_c, 0, 70, 0
2,95235, Note_on_c, 0, 50, 0
2,95256, Note_on_c, 0, 52, 67
2,95523, Note_on_c, 0, 49, 75
2,95534, Note_on_c, 0, 53, 73
2,95534, Note_on_c, 0, 68, 75
2,95555, Note_on_c, 0, 52, 0
2,95568, Note_on_c, 0, 48, 0
2,95714, Note_on_c, 0, 68, 0
2,95728, Note_on_c, 0, 53, 0
2,95750, Note_on_c, 0, 52, 70
2,95974, Note_on_c, 0, 53, 73
2,95974, Note_on_c, 0, 70, 69
2,95979, Note_on_c, 0, 77, 75
2,95985, Note_on_c, 0, 72, 0
2,95990, Note_on_c, 0, 52, 0
2,96021, Note_on_c, 0, 79, 0
2,96137, Note_on_c, 0, 53, 0
2,96179, Note_on_c, 0, 55, 69
2,96391, Note_on_c, 0, 49, 0
2,96404, Note_on_c, 0, 56, 80
2,96407, Note_on_c, 0, 48, 74
2,96413, Note_on_c, 0, 72, 73
2,96424, Note_on_c, 0, 55, 0
2,96436, Note_on_c, 0, 77, 0
2,96452, Control_c, 0, 64, 17
2,96470, Control_c, 0, 64, 41
2,96475, Note_on_c, 0, 70, 0
2,96491, Control_c, 0, 64, 47
2,96520, Note_on_c, 0, 72, 0
2,96549, Control_c, 0, 64, 49
2,96588, Control_c, 0, 64, 48
2,96605, Control_c, 0, 64, 47
2,96616, Note_on_c, 0, 60, 75
2,96624, Control_c, 0, 64, 46
2,96663, Control_c, 0, 64, 45
2,96682, Control_c, 0, 64, 43
2,96694, Note_on_c, 0, 56, 0
2,96740, Control_c, 0, 64, 45
2,96760, Control_c, 0, 64, 50
2,96780, Control_c, 0, 64, 58
2,96800, Control_c, 0, 64, 66
2,96816, Control_c, 0, 64, 76
2,96834, Note_on_c, 0, 62, 81
2,96834, Note_on_c, 0, 75, 78
2,96838, Control_c, 0, 64, 127
2,96854, Note_on_c, 0, 60, 0
2,96894, Note_on_c, 0, 62, 0
2,96914, Note_on_c, 0, 73, 11
2,96929, Note_on_c, 0, 48, 0
2,96977, Note_on_c, 0, 73, 0
2,97038, Note_on_c, 0, 63, 69
2,97104, Note_on_c, 0, 63, 0
2,97125, Note_on_c, 0, 75, 0
2,97283, Note_on_c, 0, 47, 76
2,97300, Control_c, 0, 64, 90
2,97304, Note_on_c, 0, 65, 63
2,97304, Note_on_c, 0, 74, 68
2,97315, Control_c, 0, 64, 68
2,97336, Control_c, 0, 64, 55
2,97354, Control_c, 0, 64, 44
2,97373, Control_c, 0, 64, 34
2,97392, Control_c, 0, 64, 18
2,97412, Control_c, 0, 64, 0
2,97509, Note_on_c, 0, 53, 66
2,97526, Note_on_c, 0, 65, 0
2,97705, Note_on_c, 0, 53, 0
2,97732, Note_on_c, 0, 55, 69
2,97732, Note_on_c, 0, 75, 59
2,97740, Note_on_c, 0, 74, 0
2,97911, Note_on_c, 0, 75, 0
2,97927, Note_on_c, 0, 55, 0
2,97938, Note_on_c, 0, 56, 65
2,97938, Note_on_c, 0, 77, 66
2,98152, Note_on_c, 0, 56, 0
2,98176, Note_on_c, 0, 52, 85
2,98176, Note_on_c, 0, 58, 82
2,98192, Note_on_c, 0, 79, 76
2,98197, Note_on_c, 0, 47, 0
2,98198, Note_on_c, 0, 77, 0
2,98220, Control_c, 0, 64, 58
2,98237, Control_c, 0, 64, 73
2,98257, Control_c, 0, 64, 127
2,98416, Note_on_c, 0, 77, 75
2,98416, Note_on_c, 0, 79, 0
2,98467, Note_on_c, 0, 77, 0
2,98602, Control_c, 0, 64, 85
2,98620, Control_c, 0, 64, 65
2,98631, Note_on_c, 0, 76, 74
2,98635, Note_on_c, 0, 67, 61
2,98640, Control_c, 0, 64, 54
2,98659, Control_c, 0, 64, 42
2,98679, Control_c, 0, 64, 28
2,98697, Control_c, 0, 64, 0
2,98716, Note_on_c, 0, 58, 0
2,98836, Note_on_c, 0, 74, 69
2,98841, Note_on_c, 0, 67, 0
2,98841, Note_on_c, 0, 76, 0
2,99085, Note_on_c, 0, 52, 0
2,99091, Note_on_c, 0, 53, 85
2,99095, Note_on_c, 0, 72, 74
2,99104, Note_on_c, 0, 68, 68
2,99118, Note_on_c, 0, 74, 0
2,99237, Control_c, 0, 64, 22
2,99255, Control_c, 0, 64, 36
2,99277, Control_c, 0, 64, 55
2,99292, Control_c, 0, 64, 65
2,99303, Note_on_c, 0, 56, 71
2,99314, Control_c, 0, 64, 72
2,99325, Note_on_c, 0, 72, 0
2,99332, Control_c, 0, 64, 81
2,99352, Control_c, 0, 64, 87
2,99357, Note_on_c, 0, 68, 0
2,99371, Control_c, 0, 64, 91
2,99390, Control_c, 0, 64, 95
2,99410, Control_c, 0, 64, 103
2,99428, Control_c, 0, 64, 120
2,99446, Control_c, 0, 64, 127
2,99520, Note_on_c, 0, 56, 0
2,99526, Note_on_c, 0, 58, 74
2,99689, Note_on_c, 0, 58, 0
2,99727, Note_on_c, 0, 60, 70
2,99795, Note_on_c, 0, 60, 0
2,99945, Control_c, 0, 64, 84
2,99966, Note_on_c, 0, 53, 0
2,99970, Control_c, 0, 64, 64
2,99974, Note_on_c, 0, 46, 79
2,99986, Control_c, 0, 64, 55
2,99988, Note_on_c, 0, 61, 65
2,100004, Control_c, 0, 64, 45
2,100024, Control_c, 0, 64, 32
2,100042, Control_c, 0, 64, 0
2,100206, Note_on_c, 0, 70, 63
2,100274, Control_c, 0, 64, 41
2,100279, Note_on_c, 0, 61, 0
2,100291, Control_c, 0, 64, 59
2,100312, Control_c, 0, 64, 68
2,100331, Control_c, 0, 64, 76
2,100351, Control_c, 0, 64, 90
2,100368, Control_c, 0, 64, 112
2,100387, Control_c, 0, 64, 127
2,100411, Note_on_c, 0, 68, 72
2,100478, Note_on_c, 0, 70, 0
2,100572, Note_on_c, 0, 68, 0
2,100614, Note_on_c, 0, 67, 66
2,100773, Control_c, 0, 64, 88
2,100792, Control_c, 0, 64, 60
2,100810, Control_c, 0, 64, 17
2,100829, Control_c, 0, 64, 0
2,100846, Note_on_c, 0, 67, 0
2,100864, Note_on_c, 0, 45, 72
2,100868, Note_on_c, 0, 65, 61
2,100868, Note_on_c, 0, 72, 62
2,100905, Note_on_c, 0, 46, 0
2,100983, Control_c, 0, 64, 34
2,101002, Control_c, 0, 64, 50
2,101024, Control_c, 0, 64, 61
2,101024, Note_on_c, 0, 65, 0
2,101042, Control_c, 0, 64, 64
2,101061, Control_c, 0, 64, 65
2,101077, Note_on_c, 0, 60, 68
2,101082, Control_c, 0, 64, 66
2,101099, Control_c, 0, 64, 67
2,101118, Control_c, 0, 64, 70
2,101137, Control_c, 0, 64, 73
2,101159, Control_c, 0, 64, 77
2,101164, Note_on_c, 0, 60, 0
2,101175, Control_c, 0, 64, 78
2,101303, Note_on_c, 0, 62, 68
2,101404, Control_c, 0, 64, 77
2,101424, Control_c, 0, 64, 76
2,101446, Control_c, 0, 64, 73
2,101463, Control_c, 0, 64, 67
2,101481, Control_c, 0, 64, 62
2,101502, Note_on_c, 0, 62, 0
2,101506, Control_c, 0, 64, 59
2,101524, Control_c, 0, 64, 57
2,101524, Note_on_c, 0, 64, 66
2,101540, Control_c, 0, 64, 54
2,101559, Control_c, 0, 64, 50
2,101580, Control_c, 0, 64, 45
2,101598, Control_c, 0, 64, 41
2,101618, Control_c, 0, 64, 38
2,101655, Control_c, 0, 64, 36
2,101674, Control_c, 0, 64, 34
2,101692, Control_c, 0, 64, 31
2,101712, Control_c, 0, 64, 30
2,101729, Note_on_c, 0, 64, 0
2,101733, Note_on_c, 0, 44, 66
2,101758, Note_on_c, 0, 65, 56
2,101767, Note_on_c, 0, 45, 0
2,101773, Note_on_c, 0, 72, 0
2,101812, Note_on_c, 0, 65, 0
2,101886, Control_c, 0, 64, 28
2,101924, Control_c, 0, 64, 27
2,101950, Note_on_c, 0, 65, 58
2,102058, Control_c, 0, 64, 26
2,102171, Note_on_c, 0, 72, 63
2,102180, Note_on_c, 0, 67, 54
2,102250, Control_c, 0, 64, 25
2,102263, Note_on_c, 0, 72, 0
2,102355, Note_on_c, 0, 67, 0
2,102391, Note_on_c, 0, 68, 58
2,102539, Control_c, 0, 64, 23
2,102556, Control_c, 0, 64, 15
2,102578, Control_c, 0, 64, 0
2,102638, Note_on_c, 0, 43, 61
2,102656, Control_c, 0, 64, 23
2,102658, Note_on_c, 0, 73, 61
2,102669, Note_on_c, 0, 44, 0
2,102669, Note_on_c, 0, 70, 52
2,102674, Control_c, 0, 64, 42
2,102689, Note_on_c, 0, 68, 0
2,102694, Control_c, 0, 64, 56
2,102710, Control_c, 0, 64, 64
2,102731, Control_c, 0, 64, 66
2,102731, Note_on_c, 0, 65, 0
2,102752, Control_c, 0, 64, 69
2,102768, Control_c, 0, 64, 76
2,102779, Note_on_c, 0, 73, 0
2,102788, Control_c, 0, 64, 88
2,102794, Note_on_c, 0, 70, 0
2,102807, Control_c, 0, 64, 118
2,102826, Control_c, 0, 64, 127
2,103058, Control_c, 0, 64, 98
2,103071, Note_on_c, 0, 72, 68
2,103078, Control_c, 0, 64, 73
2,103082, Note_on_c, 0, 64, 63
2,103095, Control_c, 0, 64, 62
2,103115, Control_c, 0, 64, 53
2,103133, Control_c, 0, 64, 48
2,103153, Control_c, 0, 64, 43
2,103170, Control_c, 0, 64, 37
2,103190, Control_c, 0, 64, 31
2,103210, Control_c, 0, 64, 23
2,103229, Control_c, 0, 64, 16
2,103248, Control_c, 0, 64, 0
2,103259, Note_on_c, 0, 64, 0
2,103290, Note_on_c, 0, 62, 65
2,103290, Note_on_c, 0, 70, 63
2,103290, Note_on_c, 0, 72, 0
2,103532, Note_on_c, 0, 70, 0
2,103543, Note_on_c, 0, 64, 61
2,103543, Note_on_c, 0, 72, 64
2,103581, Note_on_c, 0, 62, 0
2,103594, Control_c, 0, 64, 22
2,103612, Control_c, 0, 64, 44
2,103632, Control_c, 0, 64, 59
2,103652, Control_c, 0, 64, 65
2,103672, Control_c, 0, 64, 72
2,103690, Control_c, 0, 64, 87
2,103710, Control_c, 0, 64, 127
2,103730, Note_on_c, 0, 72, 0
2,103757, Note_on_c, 0, 64, 0
2,103974, Note_on_c, 0, 68, 65
2,104173, Control_c, 0, 64, 87
2,104173, Note_on_c, 0, 68, 0
2,104189, Note_on_c, 0, 67, 61
2,104195, Control_c, 0, 64, 72
2,104209, Control_c, 0, 64, 64
2,104228, Control_c, 0, 64, 60
2,104248, Control_c, 0, 64, 56
2,104267, Control_c, 0, 64, 51
2,104286, Control_c, 0, 64, 38
2,104304, Control_c, 0, 64, 20
2,104324, Control_c, 0, 64, 0
2,104400, Note_on_c, 0, 67, 0
2,104431, Note_on_c, 0, 43, 0
2,104452, Note_on_c, 0, 41, 54
2,104452, Note_on_c, 0, 68, 51
2,104454, Note_on_c, 0, 65, 48
2,104459, Note_on_c, 0, 72, 54
2,104498, Control_c, 0, 64, 11
2,104515, Control_c, 0, 64, 45
2,104538, Control_c, 0, 64, 59
2,104547, Note_on_c, 0, 41, 0
2,104554, Control_c, 0, 64, 66
2,104574, Control_c, 0, 64, 72
2,104592, Control_c, 0, 64, 86
2,104612, Control_c, 0, 64, 127
2,104784, Note_on_c, 0, 65, 0
2,104803, Note_on_c, 0, 68, 0
2,104837, Note_on_c, 0, 72, 0
2,104911, Note_on_c, 0, 53, 50
2,105089, Note_on_c, 0, 53, 0
2,105111, Control_c, 0, 64, 98
2,105122, Note_on_c, 0, 55, 60
2,105133, Control_c, 0, 64, 75
2,105151, Control_c, 0, 64, 62
2,105170, Control_c, 0, 64, 49
2,105188, Control_c, 0, 64, 27
2,105206, Control_c, 0, 64, 0
2,105347, Note_on_c, 0, 55, 0
2,105385, Note_on_c, 0, 56, 58
2,105401, Control_c, 0, 64, 31
2,105418, Control_c, 0, 64, 50
2,105440, Control_c, 0, 64, 62
2,105455, Control_c, 0, 64, 67
2,105474, Note_on_c, 0, 56, 0
2,105478, Control_c, 0, 64, 73
2,105495, Control_c, 0, 64, 82
2,105515, Control_c, 0, 64, 96
2,105532, Control_c, 0, 64, 127
2,105785, Note_on_c, 0, 60, 65
2,105802, Control_c, 0, 64, 104
2,105821, Control_c, 0, 64, 86
2,105844, Control_c, 0, 64, 75
2,105861, Control_c, 0, 64, 67
2,105880, Control_c, 0, 64, 62
2,105898, Control_c, 0, 64, 60
2,105916, Control_c, 0, 64, 59
2,106005, Note_on_c, 0, 61, 66
2,106013, Note_on_c, 0, 60, 0
2,106029, Note_on_c, 0, 58, 56
2,106051, Control_c, 0, 64, 58
2,106089, Control_c, 0, 64, 57
2,106113, Control_c, 0, 64, 56
2,106128, Control_c, 0, 64, 55
2,106148, Control_c, 0, 64, 50
2,106166, Control_c, 0, 64, 35
2,106185, Control_c, 0, 64, 0
2,106245, Note_on_c, 0, 61, 0
2,106262, Control_c, 0, 64, 24
2,106275, Note_on_c, 0, 60, 64
2,106275, Note_on_c, 0, 63, 62
2,106282, Control_c, 0, 64, 47
2,106293, Note_on_c, 0, 58, 0
2,106302, Control_c, 0, 64, 60
2,106322, Control_c, 0, 64, 65
2,106340, Control_c, 0, 64, 67
2,106360, Control_c, 0, 64, 70
2,106378, Control_c, 0, 64, 73
2,106398, Control_c, 0, 64, 79
2,106417, Control_c, 0, 64, 84
2,106425, Note_on_c, 0, 63, 0
2,106437, Control_c, 0, 64, 88
2,106455, Control_c, 0, 64, 90
2,106474, Control_c, 0, 64, 91
2,106492, Control_c, 0, 64, 94
2,106511, Control_c, 0, 64, 101
2,106531, Control_c, 0, 64, 110
2,106550, Control_c, 0, 64, 127
2,106609, Control_c, 0, 64, 120
2,106627, Control_c, 0, 64, 106
2,106648, Control_c, 0, 64, 95
2,106657, Note_on_c, 0, 63, 63
2,106661, Note_on_c, 0, 78, 66
2,106666, Control_c, 0, 64, 83
2,106686, Control_c, 0, 64, 72
2,106704, Control_c, 0, 64, 64
2,106724, Control_c, 0, 64, 58
2,106746, Control_c, 0, 64, 53
2,106762, Control_c, 0, 64, 50
2,106781, Control_c, 0, 64, 46
2,106800, Control_c, 0, 64, 43
2,106819, Control_c, 0, 64, 39
2,106840, Control_c, 0, 64, 36
2,106858, Control_c, 0, 64, 34
2,106866, Note_on_c, 0, 78, 0
2,106880, Control_c, 0, 64, 33
2,106880, Note_on_c, 0, 77, 70
2,106891, Note_on_c, 0, 65, 52
2,106895, Note_on_c, 0, 63, 0
2,106898, Control_c, 0, 64, 32
2,106935, Control_c, 0, 64, 31
2,106955, Control_c, 0, 64, 30
2,107101, Note_on_c, 0, 77, 0
2,107118, Note_on_c, 0, 66, 64
2,107118, Note_on_c, 0, 75, 67
2,107215, Note_on_c, 0, 65, 0
2,107308, Note_on_c, 0, 75, 0
2,107314, Note_on_c, 0, 73, 67
2,107319, Note_on_c, 0, 60, 0
2,107337, Note_on_c, 0, 58, 61
2,107482, Note_on_c, 0, 58, 0
2,107537, Note_on_c, 0, 56, 60
2,107551, Note_on_c, 0, 72, 65
2,107584, Note_on_c, 0, 73, 0
2,107717, Note_on_c, 0, 56, 0
2,107729, Note_on_c, 0, 72, 0
2,107735, Note_on_c, 0, 54, 59
2,107741, Note_on_c, 0, 70, 65
2,107914, Control_c, 0, 64, 29
2,107968, Note_on_c, 0, 54, 0
2,107986, Note_on_c, 0, 53, 55
2,107996, Note_on_c, 0, 70, 0
2,108001, Note_on_c, 0, 68, 58
2,108011, Control_c, 0, 64, 32
2,108030, Control_c, 0, 64, 35
2,108048, Control_c, 0, 64, 41
2,108069, Control_c, 0, 64, 47
2,108087, Control_c, 0, 64, 50
2,108107, Control_c, 0, 64, 52
2,108157, Note_on_c, 0, 66, 0
2,108222, Control_c, 0, 64, 51
2,108317, Control_c, 0, 64, 50
2,108376, Control_c, 0, 64, 49
2,108396, Note_on_c, 0, 53, 0
2,108401, Note_on_c, 0, 68, 0
2,108409, Note_on_c, 0, 70, 62
2,108414, Control_c, 0, 64, 48
2,108414, Note_on_c, 0, 65, 55
2,108423, Note_on_c, 0, 49, 49
2,108435, Control_c, 0, 64, 47
2,108472, Note_on_c, 0, 65, 0
2,108476, Control_c, 0, 64, 46
2,108529, Control_c, 0, 64, 45
2,108580, Note_on_c, 0, 49, 0
2,108589, Control_c, 0, 64, 44
2,108618, Note_on_c, 0, 70, 0
2,108635, Note_on_c, 0, 51, 58
2,108635, Note_on_c, 0, 63, 56
2,108639, Note_on_c, 0, 72, 64
2,108683, Control_c, 0, 64, 43
2,108702, Note_on_c, 0, 63, 0
2,108721, Control_c, 0, 64, 42
2,108758, Control_c, 0, 64, 40
2,108777, Control_c, 0, 64, 37
2,108800, Control_c, 0, 64, 29
2,108815, Control_c, 0, 64, 0
2,108837, Note_on_c, 0, 51, 0
2,108856, Note_on_c, 0, 72, 0
2,108878, Note_on_c, 0, 53, 44
2,108886, Note_on_c, 0, 73, 61
2,108893, Control_c, 0, 64, 33
2,108913, Control_c, 0, 64, 48
2,108917, Note_on_c, 0, 61, 47
2,108934, Control_c, 0, 64, 60
2,108950, Control_c, 0, 64, 64
2,108969, Control_c, 0, 64, 67
2,108991, Control_c, 0, 64, 71
2,109000, Note_on_c, 0, 53, 0
2,109009, Control_c, 0, 64, 80
2,109028, Control_c, 0, 64, 95
2,109046, Control_c, 0, 64, 127
2,109193, Note_on_c, 0, 61, 0
2,109315, Control_c, 0, 64, 108
2,109319, Note_on_c, 0, 56, 63
2,109334, Control_c, 0, 64, 84
2,109348, Note_on_c, 0, 53, 57
2,109355, Control_c, 0, 64, 70
2,109374, Control_c, 0, 64, 63
2,109392, Control_c, 0, 64, 57
2,109411, Control_c, 0, 64, 52
2,109431, Control_c, 0, 64, 49
2,109438, Note_on_c, 0, 73, 0
2,109450, Control_c, 0, 64, 45
2,109470, Control_c, 0, 64, 42
2,109491, Control_c, 0, 64, 39
2,109491, Note_on_c, 0, 56, 0
2,109502, Note_on_c, 0, 53, 0
2,109508, Control_c, 0, 64, 37
2,109526, Control_c, 0, 64, 36
2,109542, Note_on_c, 0, 55, 60
2,109546, Note_on_c, 0, 58, 71
2,109566, Control_c, 0, 64, 35
2,109583, Control_c, 0, 64, 34
2,109680, Control_c, 0, 64, 33
2,109700, Control_c, 0, 64, 32
2,109772, Note_on_c, 0, 58, 0
2,109797, Control_c, 0, 64, 33
2,109799, Note_on_c, 0, 56, 65
2,109804, Note_on_c, 0, 60, 58
2,109808, Note_on_c, 0, 55, 0
2,109815, Control_c, 0, 64, 37
2,109833, Control_c, 0, 64, 46
2,109852, Control_c, 0, 64, 55
2,109873, Control_c, 0, 64, 61
2,109893, Control_c, 0, 64, 63
2,109911, Control_c, 0, 64, 64
2,109922, Note_on_c, 0, 60, 0
2,109931, Control_c, 0, 64, 66
2,109949, Control_c, 0, 64, 69
2,109968, Control_c, 0, 64, 74
2,109988, Control_c, 0, 64, 79
2,110008, Control_c, 0, 64, 85
2,110026, Control_c, 0, 64, 89
2,110045, Control_c, 0, 64, 91
2,110063, Control_c, 0, 64, 94
2,110083, Control_c, 0, 64, 97
2,110101, Control_c, 0, 64, 99
2,110122, Control_c, 0, 64, 100
2,110140, Control_c, 0, 64, 95
2,110159, Control_c, 0, 64, 79
2,110180, Control_c, 0, 64, 64
2,110201, Control_c, 0, 64, 48
2,110217, Note_on_c, 0, 60, 57
2,110222, Control_c, 0, 64, 21
2,110230, Note_on_c, 0, 75, 60
2,110237, Control_c, 0, 64, 0
2,110298, Control_c, 0, 64, 27
2,110315, Control_c, 0, 64, 41
2,110334, Control_c, 0, 64, 52
2,110351, Control_c, 0, 64, 60
2,110373, Control_c, 0, 64, 63
2,110393, Control_c, 0, 64, 64
2,110402, Note_on_c, 0, 60, 0
2,110423, Note_on_c, 0, 61, 55
2,110428, Control_c, 0, 64, 65
2,110428, Note_on_c, 0, 75, 0
2,110441, Note_on_c, 0, 73, 65
2,110448, Control_c, 0, 64, 67
2,110467, Control_c, 0, 64, 69
2,110487, Control_c, 0, 64, 71
2,110507, Control_c, 0, 64, 73
2,110524, Control_c, 0, 64, 75
2,110545, Control_c, 0, 64, 78
2,110566, Control_c, 0, 64, 81
2,110581, Control_c, 0, 64, 82
2,110603, Control_c, 0, 64, 81
2,110620, Control_c, 0, 64, 75
2,110635, Note_on_c, 0, 73, 0
2,110643, Control_c, 0, 64, 67
2,110662, Control_c, 0, 64, 61
2,110662, Note_on_c, 0, 61, 0
2,110666, Note_on_c, 0, 72, 72
2,110670, Note_on_c, 0, 63, 64
2,110679, Control_c, 0, 64, 57
2,110698, Control_c, 0, 64, 52
2,110717, Control_c, 0, 64, 48
2,110737, Control_c, 0, 64, 43
2,110757, Control_c, 0, 64, 41
2,110774, Control_c, 0, 64, 40
2,110848, Note_on_c, 0, 56, 0
2,110853, Note_on_c, 0, 72, 0
2,110864, Note_on_c, 0, 54, 64
2,110872, Note_on_c, 0, 70, 69
2,110987, Control_c, 0, 64, 39
2,111015, Note_on_c, 0, 54, 0
2,111073, Note_on_c, 0, 53, 60
2,111080, Note_on_c, 0, 68, 72
2,111107, Note_on_c, 0, 70, 0
2,111122, Control_c, 0, 64, 40
2,111138, Control_c, 0, 64, 41
2,111236, Control_c, 0, 64, 42
2,111252, Note_on_c, 0, 53, 0
2,111256, Control_c, 0, 64, 44
2,111274, Control_c, 0, 64, 48
2,111281, Note_on_c, 0, 51, 59
2,111287, Note_on_c, 0, 66, 66
2,111292, Control_c, 0, 64, 53
2,111301, Note_on_c, 0, 68, 0
2,111312, Control_c, 0, 64, 57
2,111335, Control_c, 0, 64, 60
2,111350, Control_c, 0, 64, 61
2,111370, Control_c, 0, 64, 63
2,111388, Control_c, 0, 64, 64
2,111407, Control_c, 0, 64, 66
2,111412, Note_on_c, 0, 66, 0
2,111430, Control_c, 0, 64, 67
2,111447, Control_c, 0, 64, 69
2,111485, Control_c, 0, 64, 65
2,111505, Control_c, 0, 64, 58
2,111525, Control_c, 0, 64, 47
2,111545, Control_c, 0, 64, 36
2,111545, Note_on_c, 0, 51, 0
2,111545, Note_on_c, 0, 65, 58
2,111549, Note_on_c, 0, 49, 53
2,111563, Control_c, 0, 64, 31
2,111584, Control_c, 0, 64, 34
2,111597, Note_on_c, 0, 63, 0
2,111602, Control_c, 0, 64, 41
2,111619, Control_c, 0, 64, 48
2,111640, Control_c, 0, 64, 54
2,111657, Control_c, 0, 64, 57
2,111677, Control_c, 0, 64, 58
2,111697, Control_c, 0, 64, 59
2,111829, Control_c, 0, 64, 58
2,111849, Control_c, 0, 64, 57
2,111869, Control_c, 0, 64, 56
2,111887, Control_c, 0, 64, 53
2,111907, Control_c, 0, 64, 50
2,111927, Control_c, 0, 64, 47
2,111945, Control_c, 0, 64, 43
2,111961, Note_on_c, 0, 49, 0
2,111961, Note_on_c, 0, 65, 0
2,111966, Control_c, 0, 64, 37
2,111971, Note_on_c, 0, 67, 67
2,111978, Note_on_c, 0, 61, 60
2,111985, Note_on_c, 0, 46, 56
2,111987, Control_c, 0, 64, 29
2,112005, Control_c, 0, 64, 12
2,112023, Control_c, 0, 64, 0
2,112045, Note_on_c, 0, 61, 0
2,112143, Note_on_c, 0, 46, 0
2,112181, Note_on_c, 0, 69, 70
2,112183, Note_on_c, 0, 60, 68
2,112191, Note_on_c, 0, 67, 0
2,112195, Note_on_c, 0, 48, 56
2,112234, Note_on_c, 0, 60, 0
2,112423, Note_on_c, 0, 69, 0
2,112430, Note_on_c, 0, 48, 0
2,112454, Note_on_c, 0, 49, 62
2,112454, Note_on_c, 0, 70, 69
2,112459, Note_on_c, 0, 58, 64
2,112484, Control_c, 0, 64, 35
2,112504, Control_c, 0, 64, 54
2,112524, Control_c, 0, 64, 62
2,112538, Note_on_c, 0, 49, 0
2,112540, Control_c, 0, 64, 66
2,112559, Control_c, 0, 64, 70
2,112580, Control_c, 0, 64, 79
2,112598, Control_c, 0, 64, 98
2,112617, Control_c, 0, 64, 127
2,112793, Note_on_c, 0, 58, 0
2,112864, Note_on_c, 0, 53, 68
2,112868, Control_c, 0, 64, 88
2,112868, Note_on_c, 0, 49, 65
2,112886, Control_c, 0, 64, 66
2,112906, Control_c, 0, 64, 56
2,112926, Control_c, 0, 64, 48
2,112944, Control_c, 0, 64, 43
2,112955, Note_on_c, 0, 70, 0
2,112964, Control_c, 0, 64, 38
2,112981, Control_c, 0, 64, 34
2,113002, Control_c, 0, 64, 31
2,113020, Control_c, 0, 64, 28
2,113031, Note_on_c, 0, 53, 0
2,113040, Control_c, 0, 64, 26
2,113051, Note_on_c, 0, 49, 0
2,113062, Control_c, 0, 64, 25
2,113070, Note_on_c, 0, 51, 66
2,113079, Control_c, 0, 64, 24
2,113084, Note_on_c, 0, 55, 72
2,113101, Control_c, 0, 64, 23
2,113136, Control_c, 0, 64, 22
2,113174, Control_c, 0, 64, 21
2,113193, Control_c, 0, 64, 18
2,113211, Control_c, 0, 64, 13
2,113233, Control_c, 0, 64, 0
2,113310, Note_on_c, 0, 55, 0
2,113331, Note_on_c, 0, 53, 71
2,113340, Note_on_c, 0, 56, 68
2,113344, Note_on_c, 0, 51, 0
2,113405, Control_c, 0, 64, 34
2,113425, Control_c, 0, 64, 49
2,113443, Control_c, 0, 64, 60
2,113465, Control_c, 0, 64, 64
2,113483, Control_c, 0, 64, 66
2,113500, Control_c, 0, 64, 70
2,113513, Note_on_c, 0, 56, 0
2,113521, Control_c, 0, 64, 77
2,113539, Control_c, 0, 64, 86
2,113560, Control_c, 0, 64, 97
2,113578, Control_c, 0, 64, 103
2,113599, Control_c, 0, 64, 107
2,113617, Control_c, 0, 64, 116
2,113635, Control_c, 0, 64, 127
2,113712, Control_c, 0, 64, 93
2,113733, Control_c, 0, 64, 74
2,113750, Control_c, 0, 64, 64
2,113774, Control_c, 0, 64, 56
2,113774, Note_on_c, 0, 56, 66
2,113774, Note_on_c, 0, 72, 70
2,113793, Control_c, 0, 64, 50
2,113810, Control_c, 0, 64, 43
2,113830, Control_c, 0, 64, 34
2,113846, Control_c, 0, 64, 21
2,113865, Control_c, 0, 64, 0
2,113979, Note_on_c, 0, 56, 0
2,113984, Note_on_c, 0, 58, 68
2,113995, Note_on_c, 0, 70, 76
2,114029, Note_on_c, 0, 72, 0
2,114209, Note_on_c, 0, 60, 74
2,114209, Note_on_c, 0, 68, 78
2,114215, Control_c, 0, 64, 45
2,114219, Note_on_c, 0, 70, 0
2,114232, Control_c, 0, 64, 60
2,114252, Control_c, 0, 64, 67
2,114268, Control_c, 0, 64, 74
2,114289, Control_c, 0, 64, 89
2,114307, Control_c, 0, 64, 127
2,114345, Note_on_c, 0, 58, 0
2,114413, Note_on_c, 0, 67, 75
2,114418, Note_on_c, 0, 51, 72
2,114418, Note_on_c, 0, 68, 0
2,114431, Note_on_c, 0, 53, 0
2,114442, Control_c, 0, 64, 96
2,114461, Control_c, 0, 64, 71
2,114481, Control_c, 0, 64, 60
2,114502, Control_c, 0, 64, 49
2,114519, Control_c, 0, 64, 42
2,114541, Control_c, 0, 64, 38
2,114557, Control_c, 0, 64, 34
2,114570, Note_on_c, 0, 51, 0
2,114577, Control_c, 0, 64, 28
2,114595, Control_c, 0, 64, 24
2,114616, Control_c, 0, 64, 23
2,114620, Note_on_c, 0, 49, 63
2,114634, Control_c, 0, 64, 22
2,114638, Note_on_c, 0, 65, 67
2,114672, Control_c, 0, 64, 20
2,114694, Control_c, 0, 64, 18
2,114711, Control_c, 0, 64, 16
2,114716, Note_on_c, 0, 67, 0
2,114732, Control_c, 0, 64, 15
2,114749, Control_c, 0, 64, 14
2,114786, Control_c, 0, 64, 13
2,114808, Note_on_c, 0, 49, 0
2,114852, Note_on_c, 0, 48, 49
2,114856, Note_on_c, 0, 63, 71
2,114865, Control_c, 0, 64, 11
2,114872, Note_on_c, 0, 47, 47
2,114885, Control_c, 0, 64, 0
2,114892, Note_on_c, 0, 65, 0
2,114923, Note_on_c, 0, 47, 0
2,115030, Note_on_c, 0, 48, 0
2,115030, Note_on_c, 0, 60, 0
2,115053, Note_on_c, 0, 46, 67
2,115061, Control_c, 0, 64, 10
2,115061, Note_on_c, 0, 61, 68
2,115070, Note_on_c, 0, 63, 0
2,115075, Control_c, 0, 64, 26
2,115094, Control_c, 0, 64, 41
2,115115, Control_c, 0, 64, 52
2,115133, Control_c, 0, 64, 59
2,115153, Control_c, 0, 64, 62
2,115172, Control_c, 0, 64, 63
2,115190, Control_c, 0, 64, 64
2,115212, Control_c, 0, 64, 66
2,115228, Control_c, 0, 64, 68
2,115241, Note_on_c, 0, 46, 0
2,115248, Control_c, 0, 64, 71
2,115267, Control_c, 0, 64, 74
2,115271, Note_on_c, 0, 48, 70
2,115287, Control_c, 0, 64, 77
2,115306, Control_c, 0, 64, 78
2,115363, Control_c, 0, 64, 75
2,115381, Control_c, 0, 64, 70
2,115402, Control_c, 0, 64, 64
2,115421, Control_c, 0, 64, 57
2,115441, Control_c, 0, 64, 47
2,115460, Control_c, 0, 64, 18
2,115467, Note_on_c, 0, 48, 0
2,115476, Note_on_c, 0, 49, 69
2,115480, Control_c, 0, 64, 0
2,115484, Note_on_c, 0, 58, 64
2,115633, Control_c, 0, 64, 28
2,115651, Control_c, 0, 64, 55
2,115669, Control_c, 0, 64, 66
2,115678, Note_on_c, 0, 49, 0
2,115685, Note_on_c, 0, 48, 71
2,115687, Note_on_c, 0, 60, 71
2,115691, Control_c, 0, 64, 75
2,115710, Control_c, 0, 64, 109
2,115714, Note_on_c, 0, 58, 0
2,115730, Control_c, 0, 64, 127
2,115758, Note_on_c, 0, 61, 0
2,115762, Note_on_c, 0, 60, 0
2,115775, Note_on_c, 0, 48, 0
2,115911, Note_on_c, 0, 46, 66
2,115914, Note_on_c, 0, 61, 64
2,115943, Control_c, 0, 64, 78
2,115961, Control_c, 0, 64, 62
2,115981, Control_c, 0, 64, 51
2,115999, Control_c, 0, 64, 42
2,116017, Control_c, 0, 64, 37
2,116036, Control_c, 0, 64, 31
2,116056, Control_c, 0, 64, 21
2,116076, Control_c, 0, 64, 11
2,116095, Control_c, 0, 64, 0
2,116114, Note_on_c, 0, 44, 73
2,116118, Note_on_c, 0, 46, 0
2,116118, Note_on_c, 0, 65, 66
2,116332, Note_on_c, 0, 44, 0
2,116336, Note_on_c, 0, 43, 75
2,116345, Note_on_c, 0, 70, 72
2,116349, Note_on_c, 0, 65, 0
2,116530, Note_on_c, 0, 43, 0
2,116538, Note_on_c, 0, 41, 69
2,116552, Note_on_c, 0, 68, 73
2,116710, Note_on_c, 0, 70, 0
2,116776, Note_on_c, 0, 41, 0
2,116792, Note_on_c, 0, 39, 58
2,116796, Note_on_c, 0, 67, 63
2,116831, Note_on_c, 0, 68, 0
2,116908, Note_on_c, 0, 39, 0
2,117190, Control_c, 0, 64, 43
2,117208, Control_c, 0, 64, 62
2,117213, Note_on_c, 0, 61, 0
2,117229, Control_c, 0, 64, 74
2,117238, Note_on_c, 0, 67, 0
2,117240, Note_on_c, 0, 46, 48
2,117245, Note_on_c, 0, 63, 63
2,117249, Control_c, 0, 64, 127
2,117376, Note_on_c, 0, 63, 0
2,117398, Note_on_c, 0, 46, 0
2,117430, Note_on_c, 0, 61, 45
2,117542, Note_on_c, 0, 61, 0
2,117669, Control_c, 0, 64, 91
2,117689, Control_c, 0, 64, 64
2,117702, Note_on_c, 0, 63, 82
2,117706, Note_on_c, 0, 60, 58
2,117711, Control_c, 0, 64, 42
2,117715, Note_on_c, 0, 48, 51
2,117715, Note_on_c, 0, 68, 63
2,117727, Control_c, 0, 64, 0
2,117775, Note_on_c, 0, 48, 0
2,118074, Control_c, 0, 64, 35
2,118092, Control_c, 0, 64, 54
2,118108, Note_on_c, 0, 60, 0
2,118112, Control_c, 0, 64, 65
2,118129, Control_c, 0, 64, 74
2,118138, Note_on_c, 0, 44, 54
2,118151, Control_c, 0, 64, 97
2,118157, Note_on_c, 0, 61, 55
2,118170, Control_c, 0, 64, 127
2,118190, Note_on_c, 0, 44, 0
2,118374, Note_on_c, 0, 61, 0
2,118374, Note_on_c, 0, 68, 0
2,118382, Note_on_c, 0, 60, 50
2,118402, Note_on_c, 0, 63, 0
2,118418, Note_on_c, 0, 60, 0
2,118609, Control_c, 0, 64, 95
2,118621, Note_on_c, 0, 65, 83
2,118632, Note_on_c, 0, 49, 55
2,118636, Control_c, 0, 64, 68
2,118636, Note_on_c, 0, 58, 59
2,118648, Control_c, 0, 64, 57
2,118668, Control_c, 0, 64, 45
2,118689, Control_c, 0, 64, 34
2,118706, Control_c, 0, 64, 24
2,118727, Control_c, 0, 64, 0
2,118745, Note_on_c, 0, 49, 0
2,118835, Note_on_c, 0, 67, 67
2,119051, Note_on_c, 0, 67, 0
2,119060, Note_on_c, 0, 46, 54
2,119064, Note_on_c, 0, 68, 68
2,119132, Note_on_c, 0, 46, 0
2,119258, Note_on_c, 0, 68, 0
2,119269, Note_on_c, 0, 70, 70
2,119493, Note_on_c, 0, 70, 0
2,119498, Note_on_c, 0, 51, 63
2,119498, Note_on_c, 0, 72, 79
2,119509, Note_on_c, 0, 63, 80
2,119591, Note_on_c, 0, 58, 0
2,119604, Note_on_c, 0, 65, 0
2,119613, Note_on_c, 0, 51, 0
2,119903, Note_on_c, 0, 48, 58
2,119908, Note_on_c, 0, 56, 66
2,120060, Note_on_c, 0, 48, 0
2,120096, Note_on_c, 0, 56, 0
2,120117, Note_on_c, 0, 55, 65
2,120323, Note_on_c, 0, 55, 0
2,120343, Note_on_c, 0, 63, 0
2,120352, Note_on_c, 0, 56, 57
2,120362, Note_on_c, 0, 53, 50
2,120362, Note_on_c, 0, 62, 82
2,120422, Note_on_c, 0, 72, 0
2,120527, Note_on_c, 0, 53, 0
2,120531, Note_on_c, 0, 56, 0
2,120567, Note_on_c, 0, 68, 69
2,120778, Note_on_c, 0, 46, 62
2,120789, Note_on_c, 0, 68, 0
2,120793, Note_on_c, 0, 55, 55
2,120793, Note_on_c, 0, 70, 65
2,120931, Note_on_c, 0, 46, 0
2,120959, Note_on_c, 0, 55, 0
2,120990, Note_on_c, 0, 72, 73
2,120999, Note_on_c, 0, 56, 59
2,120999, Note_on_c, 0, 70, 0
2,121235, Note_on_c, 0, 67, 86
2,121251, Note_on_c, 0, 56, 0
2,121251, Note_on_c, 0, 73, 77
2,121266, Note_on_c, 0, 58, 63
2,121334, Control_c, 0, 64, 13
2,121354, Control_c, 0, 64, 39
2,121373, Control_c, 0, 64, 52
2,121391, Control_c, 0, 64, 62
2,121411, Control_c, 0, 64, 66
2,121416, Note_on_c, 0, 58, 0
2,121430, Control_c, 0, 64, 75
2,121445, Note_on_c, 0, 56, 74
2,121449, Control_c, 0, 64, 91
2,121469, Control_c, 0, 64, 127
2,121487, Note_on_c, 0, 62, 0
2,121575, Note_on_c, 0, 67, 0
2,121575, Note_on_c, 0, 73, 0
2,121601, Note_on_c, 0, 72, 0
2,121616, Note_on_c, 0, 56, 0
2,121668, Note_on_c, 0, 51, 74
2,121677, Note_on_c, 0, 55, 63
2,121806, Note_on_c, 0, 51, 0
2,121811, Note_on_c, 0, 55, 0
2,121882, Note_on_c, 0, 49, 66
2,121882, Note_on_c, 0, 53, 73
2,122082, Control_c, 0, 64, 95
2,122102, Control_c, 0, 64, 68
2,122124, Control_c, 0, 64, 53
2,122124, Note_on_c, 0, 53, 0
2,122129, Note_on_c, 0, 48, 61
2,122129, Note_on_c, 0, 68, 90
2,122132, Note_on_c, 0, 51, 66
2,122139, Control_c, 0, 64, 40
2,122163, Control_c, 0, 64, 30
2,122165, Note_on_c, 0, 49, 0
2,122180, Control_c, 0, 64, 19
2,122199, Control_c, 0, 64, 0
2,122238, Note_on_c, 0, 48, 0
2,122258, Note_on_c, 0, 51, 0
2,122320, Note_on_c, 0, 72, 74
2,122562, Note_on_c, 0, 56, 64
2,122566, Note_on_c, 0, 53, 60
2,122566, Note_on_c, 0, 73, 72
2,122658, Note_on_c, 0, 53, 0
2,122700, Note_on_c, 0, 56, 0
2,122729, Note_on_c, 0, 72, 0
2,122756, Note_on_c, 0, 73, 0
2,122762, Note_on_c, 0, 75, 66
2,122997, Note_on_c, 0, 61, 85
2,122999, Note_on_c, 0, 77, 76
2,123025, Control_c, 0, 64, 39
2,123041, Note_on_c, 0, 75, 0
2,123043, Control_c, 0, 64, 59
2,123063, Control_c, 0, 64, 67
2,123080, Control_c, 0, 64, 73
2,123099, Control_c, 0, 64, 80
2,123120, Control_c, 0, 64, 85
2,123140, Control_c, 0, 64, 91
2,123157, Control_c, 0, 64, 95
2,123173, Note_on_c, 0, 68, 0
2,123177, Control_c, 0, 64, 97
2,123197, Control_c, 0, 64, 98
2,123202, Note_on_c, 0, 51, 70
2,123218, Control_c, 0, 64, 100
2,123218, Note_on_c, 0, 55, 63
2,123231, Note_on_c, 0, 77, 0
2,123235, Control_c, 0, 64, 101
2,123254, Control_c, 0, 64, 102
2,123277, Control_c, 0, 64, 104
2,123292, Control_c, 0, 64, 105
2,123311, Control_c, 0, 64, 106
2,123380, Note_on_c, 0, 55, 0
2,123384, Note_on_c, 0, 51, 0
2,123425, Note_on_c, 0, 56, 81
2,123429, Note_on_c, 0, 61, 0
2,123432, Note_on_c, 0, 53, 68
2,123446, Control_c, 0, 64, 107
2,123484, Control_c, 0, 64, 108
2,123521, Control_c, 0, 64, 109
2,123580, Control_c, 0, 64, 112
2,123598, Control_c, 0, 64, 116
2,123617, Control_c, 0, 64, 127
2,123622, Note_on_c, 0, 58, 80
2,123639, Note_on_c, 0, 55, 73
2,123644, Note_on_c, 0, 56, 0
2,123651, Note_on_c, 0, 53, 0
2,123718, Note_on_c, 0, 58, 0
2,123811, Control_c, 0, 64, 115
2,123830, Control_c, 0, 64, 73
2,123850, Control_c, 0, 64, 59
2,123857, Note_on_c, 0, 55, 0
2,123872, Control_c, 0, 64, 43
2,123872, Note_on_c, 0, 56, 82
2,123872, Note_on_c, 0, 60, 84
2,123888, Control_c, 0, 64, 28
2,123906, Control_c, 0, 64, 0
2,124073, Note_on_c, 0, 75, 74
2,124078, Note_on_c, 0, 55, 66
2,124296, Note_on_c, 0, 53, 65
2,124296, Note_on_c, 0, 77, 76
2,124330, Control_c, 0, 64, 28
2,124343, Note_on_c, 0, 75, 0
2,124348, Control_c, 0, 64, 45
2,124368, Control_c, 0, 64, 56
2,124390, Control_c, 0, 64, 62
2,124405, Control_c, 0, 64, 65
2,124425, Control_c, 0, 64, 68
2,124444, Control_c, 0, 64, 74
2,124451, Note_on_c, 0, 56, 0
2,124465, Control_c, 0, 64, 90
2,124483, Control_c, 0, 64, 127
2,124488, Note_on_c, 0, 51, 68
2,124500, Note_on_c, 0, 79, 76
2,124514, Note_on_c, 0, 77, 0
2,124535, Note_on_c, 0, 60, 0
2,124568, Note_on_c, 0, 53, 0
2,124597, Note_on_c, 0, 51, 0
2,124674, Note_on_c, 0, 55, 0
2,124716, Control_c, 0, 64, 67
2,124734, Control_c, 0, 64, 0
2,124748, Note_on_c, 0, 59, 84
2,124752, Note_on_c, 0, 80, 77
2,124756, Note_on_c, 0, 79, 0
2,124761, Note_on_c, 0, 50, 78
2,124942, Note_on_c, 0, 50, 0
2,124962, Note_on_c, 0, 53, 65
2,125002, Control_c, 0, 64, 37
2,125022, Control_c, 0, 64, 51
2,125039, Control_c, 0, 64, 59
2,125060, Control_c, 0, 64, 62
2,125080, Control_c, 0, 64, 63
2,125097, Control_c, 0, 64, 64
2,125134, Control_c, 0, 64, 65
2,125154, Control_c, 0, 64, 67
2,125174, Control_c, 0, 64, 68
2,125192, Note_on_c, 0, 53, 0
2,125197, Control_c, 0, 64, 71
2,125205, Note_on_c, 0, 55, 63
2,125214, Control_c, 0, 64, 74
2,125235, Control_c, 0, 64, 78
2,125254, Control_c, 0, 64, 82
2,125266, Note_on_c, 0, 80, 0
2,125270, Control_c, 0, 64, 85
2,125288, Control_c, 0, 64, 86
2,125328, Control_c, 0, 64, 87
2,125338, Note_on_c, 0, 59, 0
2,125386, Control_c, 0, 64, 88
2,125414, Note_on_c, 0, 55, 0
2,125425, Control_c, 0, 64, 89
2,125430, Note_on_c, 0, 56, 60
2,125444, Control_c, 0, 64, 90
2,125462, Control_c, 0, 64, 91
2,125539, Control_c, 0, 64, 92
2,125577, Control_c, 0, 64, 93
2,125597, Control_c, 0, 64, 92
2,125615, Control_c, 0, 64, 82
2,125635, Control_c, 0, 64, 70
2,125656, Control_c, 0, 64, 61
2,125674, Control_c, 0, 64, 50
2,125694, Control_c, 0, 64, 28
2,125694, Note_on_c, 0, 56, 0
2,125703, Note_on_c, 0, 58, 67
2,125707, Note_on_c, 0, 51, 70
2,125714, Control_c, 0, 64, 0
2,125868, Control_c, 0, 64, 15
2,125886, Control_c, 0, 64, 46
2,125906, Control_c, 0, 64, 61
2,125924, Control_c, 0, 64, 69
2,125943, Control_c, 0, 64, 78
2,125943, Note_on_c, 0, 51, 0
2,125963, Control_c, 0, 64, 92
2,125984, Control_c, 0, 64, 103
2,126020, Control_c, 0, 64, 95
2,126039, Control_c, 0, 64, 80
2,126059, Control_c, 0, 64, 66
2,126077, Control_c, 0, 64, 58
2,126097, Control_c, 0, 64, 51
2,126116, Control_c, 0, 64, 41
2,126131, Note_on_c, 0, 50, 48
2,126135, Control_c, 0, 64, 25
2,126140, Note_on_c, 0, 79, 70
2,126152, Control_c, 0, 64, 0
2,126257, Note_on_c, 0, 50, 0
2,126324, Note_on_c, 0, 79, 0
2,126344, Note_on_c, 0, 77, 68
2,126548, Note_on_c, 0, 77, 0
2,126556, Note_on_c, 0, 52, 56
2,126574, Note_on_c, 0, 79, 66
2,126750, Note_on_c, 0, 52, 0
2,126766, Note_on_c, 0, 55, 65
2,126978, Note_on_c, 0, 48, 66
2,126995, Note_on_c, 0, 53, 60
2,127098, Note_on_c, 0, 48, 0
2,127175, Note_on_c, 0, 55, 0
2,127175, Note_on_c, 0, 58, 0
2,127185, Note_on_c, 0, 52, 69
2,127223, Note_on_c, 0, 53, 0
2,127433, Note_on_c, 0, 52, 0
2,127433, Note_on_c, 0, 53, 68
2,127433, Note_on_c, 0, 56, 74
2,127597, Note_on_c, 0, 79, 0
2,127624, Note_on_c, 0, 72, 75
2,127643, Note_on_c, 0, 53, 0
2,127835, Note_on_c, 0, 74, 79
2,127847, Note_on_c, 0, 53, 62
2,127914, Note_on_c, 0, 72, 0
2,128042, Note_on_c, 0, 51, 65
2,128042, Note_on_c, 0, 75, 77
2,128049, Note_on_c, 0, 53, 0
2,128067, Note_on_c, 0, 74, 0
2,128224, Note_on_c, 0, 51, 0
2,128261, Note_on_c, 0, 50, 52
2,128266, Note_on_c, 0, 77, 84
2,128304, Note_on_c, 0, 75, 0
2,128422, Note_on_c, 0, 56, 0
2,128472, Note_on_c, 0, 71, 71
2,128486, Note_on_c, 0, 50, 0
2,128672, Note_on_c, 0, 50, 62
2,128693, Note_on_c, 0, 72, 72
2,128712, Note_on_c, 0, 71, 0
2,128871, Note_on_c, 0, 50, 0
2,128884, Note_on_c, 0, 48, 66
2,128886, Note_on_c, 0, 74, 71
2,128919, Note_on_c, 0, 72, 0
2,129082, Note_on_c, 0, 74, 0
2,129093, Note_on_c, 0, 67, 64
2,129104, Note_on_c, 0, 48, 0
2,129112, Note_on_c, 0, 47, 64
2,129279, Note_on_c, 0, 47, 0
2,129305, Note_on_c, 0, 43, 66
2,129499, Note_on_c, 0, 43, 0
2,129517, Note_on_c, 0, 45, 60
2,129523, Note_on_c, 0, 75, 71
2,129596, Note_on_c, 0, 77, 0
2,129708, Note_on_c, 0, 45, 0
2,129713, Note_on_c, 0, 47, 60
2,129719, Note_on_c, 0, 74, 77
2,129742, Note_on_c, 0, 75, 0
2,129923, Note_on_c, 0, 75, 67
2,129930, Note_on_c, 0, 74, 0
2,129936, Note_on_c, 0, 47, 0
2,129959, Note_on_c, 0, 48, 59
2,130141, Note_on_c, 0, 48, 0
2,130166, Note_on_c, 0, 67, 0
2,130175, Note_on_c, 0, 44, 66
2,130372, Note_on_c, 0, 44, 0
2,130377, Note_on_c, 0, 46, 62
2,130408, Note_on_c, 0, 66, 64
2,130467, Note_on_c, 0, 66, 0
2,130569, Note_on_c, 0, 46, 0
2,130592, Note_on_c, 0, 48, 56
2,130784, Control_c, 0, 64, 23
2,130789, Note_on_c, 0, 48, 0
2,130804, Control_c, 0, 64, 44
2,130821, Control_c, 0, 64, 56
2,130832, Note_on_c, 0, 65, 53
2,130836, Note_on_c, 0, 49, 43
2,130841, Control_c, 0, 64, 61
2,130861, Control_c, 0, 64, 62
2,130880, Control_c, 0, 64, 63
2,130898, Control_c, 0, 64, 65
2,130914, Note_on_c, 0, 49, 0
2,130918, Control_c, 0, 64, 67
2,130935, Control_c, 0, 64, 70
2,130954, Control_c, 0, 64, 74
2,130974, Control_c, 0, 64, 78
2,130989, Note_on_c, 0, 75, 0
2,130993, Control_c, 0, 64, 81
2,131012, Control_c, 0, 64, 82
2,131030, Control_c, 0, 64, 83
2,131041, Note_on_c, 0, 68, 60
2,131052, Control_c, 0, 64, 84
2,131072, Control_c, 0, 64, 86
2,131090, Control_c, 0, 64, 87
2,131185, Control_c, 0, 64, 86
2,131226, Control_c, 0, 64, 85
2,131241, Control_c, 0, 64, 83
2,131246, Note_on_c, 0, 68, 0
2,131255, Note_on_c, 0, 49, 50
2,131264, Control_c, 0, 64, 80
2,131264, Note_on_c, 0, 70, 61
2,131285, Control_c, 0, 64, 77
2,131300, Control_c, 0, 64, 73
2,131320, Control_c, 0, 64, 68
2,131340, Control_c, 0, 64, 62
2,131358, Control_c, 0, 64, 58
2,131378, Control_c, 0, 64, 53
2,131396, Control_c, 0, 64, 47
2,131416, Control_c, 0, 64, 39
2,131436, Control_c, 0, 64, 28
2,131436, Note_on_c, 0, 49, 0
2,131449, Note_on_c, 0, 70, 0
2,131455, Control_c, 0, 64, 13
2,131470, Note_on_c, 0, 48, 40
2,131475, Control_c, 0, 64, 0
2,131475, Note_on_c, 0, 72, 61
2,131626, Control_c, 0, 64, 18
2,131646, Control_c, 0, 64, 30
2,131665, Control_c, 0, 64, 41
2,131684, Control_c, 0, 64, 51
2,131705, Control_c, 0, 64, 59
2,131705, Note_on_c, 0, 48, 0
2,131713, Note_on_c, 0, 72, 0
2,131724, Control_c, 0, 64, 63
2,131733, Note_on_c, 0, 73, 58
2,131742, Control_c, 0, 64, 64
2,131746, Note_on_c, 0, 46, 41
2,131761, Control_c, 0, 64, 67
2,131781, Control_c, 0, 64, 70
2,131801, Control_c, 0, 64, 76
2,131818, Control_c, 0, 64, 83
2,131837, Control_c, 0, 64, 90
2,131852, Note_on_c, 0, 46, 0
2,131858, Control_c, 0, 64, 95
2,131869, Note_on_c, 0, 65, 0
2,131877, Control_c, 0, 64, 99
2,131896, Control_c, 0, 64, 103
2,131914, Control_c, 0, 64, 107
2,131935, Control_c, 0, 64, 112
2,131955, Control_c, 0, 64, 120
2,131955, Note_on_c, 0, 67, 54
2,131973, Control_c, 0, 64, 127
2,132163, Note_on_c, 0, 46, 57
2,132167, Control_c, 0, 64, 99
2,132172, Note_on_c, 0, 68, 67
2,132185, Control_c, 0, 64, 84
2,132202, Control_c, 0, 64, 72
2,132222, Control_c, 0, 64, 64
2,132240, Control_c, 0, 64, 58
2,132258, Control_c, 0, 64, 52
2,132278, Control_c, 0, 64, 45
2,132299, Control_c, 0, 64, 37
2,132319, Control_c, 0, 64, 32
2,132319, Note_on_c, 0, 67, 0
2,132334, Control_c, 0, 64, 28
2,132339, Note_on_c, 0, 46, 0
2,132354, Note_on_c, 0, 68, 0
2,132359, Control_c, 0, 64, 27
2,132360, Note_on_c, 0, 70, 64
2,132363, Note_on_c, 0, 44, 61
2,132374, Control_c, 0, 64, 26
2,132393, Control_c, 0, 64, 23
2,132412, Control_c, 0, 64, 20
2,132433, Control_c, 0, 64, 17
2,132533, Note_on_c, 0, 44, 0
2,132541, Note_on_c, 0, 70, 0
2,132579, Note_on_c, 0, 63, 58
2,132583, Note_on_c, 0, 43, 58
2,132765, Note_on_c, 0, 43, 0
2,132778, Note_on_c, 0, 39, 63
2,132893, Control_c, 0, 64, 16
2,132911, Control_c, 0, 64, 15
2,132969, Control_c, 0, 64, 14
2,132985, Note_on_c, 0, 39, 0
2,132989, Control_c, 0, 64, 13
2,132994, Note_on_c, 0, 41, 59
2,133001, Note_on_c, 0, 72, 68
2,133027, Control_c, 0, 64, 12
2,133165, Note_on_c, 0, 73, 0
2,133170, Note_on_c, 0, 41, 0
2,133201, Note_on_c, 0, 72, 0
2,133202, Note_on_c, 0, 43, 59
2,133208, Note_on_c, 0, 70, 65
2,133311, Note_on_c, 0, 63, 0
2,133424, Note_on_c, 0, 43, 0
2,133449, Note_on_c, 0, 44, 59
2,133449, Note_on_c, 0, 70, 0
2,133449, Note_on_c, 0, 72, 73
2,133625, Note_on_c, 0, 44, 0
2,133653, Note_on_c, 0, 41, 54
2,133667, Note_on_c, 0, 66, 56
2,133837, Note_on_c, 0, 66, 0
2,133847, Note_on_c, 0, 43, 61
2,133855, Note_on_c, 0, 41, 0
2,133869, Note_on_c, 0, 65, 60
2,134030, Note_on_c, 0, 43, 0
2,134048, Note_on_c, 0, 65, 0
2,134057, Note_on_c, 0, 63, 65
2,134071, Note_on_c, 0, 45, 58
2,134240, Note_on_c, 0, 63, 0
2,134262, Note_on_c, 0, 45, 0
2,134277, Note_on_c, 0, 61, 61
2,134288, Note_on_c, 0, 46, 57
2,134448, Note_on_c, 0, 46, 0
2,134468, Note_on_c, 0, 45, 62
2,134682, Note_on_c, 0, 72, 0
2,134691, Note_on_c, 0, 45, 0
2,134695, Note_on_c, 0, 46, 64
2,134695, Note_on_c, 0, 65, 72
2,134812, Control_c, 0, 64, 11
2,134862, Note_on_c, 0, 46, 0
2,134893, Note_on_c, 0, 48, 63
2,135102, Note_on_c, 0, 48, 0
2,135120, Note_on_c, 0, 49, 56
2,135126, Note_on_c, 0, 70, 73
2,135194, Note_on_c, 0, 65, 0
2,135293, Note_on_c, 0, 49, 0
2,135311, Control_c, 0, 64, 8
2,135332, Control_c, 0, 64, 0
2,135332, Note_on_c, 0, 46, 59
2,135519, Note_on_c, 0, 46, 0
2,135550, Note_on_c, 0, 48, 48
2,135567, Note_on_c, 0, 68, 66
2,135580, Control_c, 0, 64, 35
2,135599, Control_c, 0, 64, 53
2,135617, Control_c, 0, 64, 62
2,135632, Note_on_c, 0, 70, 0
2,135641, Control_c, 0, 64, 64
2,135658, Control_c, 0, 64, 66
2,135676, Control_c, 0, 64, 68
2,135694, Control_c, 0, 64, 73
2,135714, Control_c, 0, 64, 84
2,135734, Control_c, 0, 64, 103
2,135738, Note_on_c, 0, 68, 0
2,135746, Note_on_c, 0, 48, 0
2,135755, Control_c, 0, 64, 127
2,135762, Note_on_c, 0, 61, 0
2,135788, Note_on_c, 0, 49, 52
2,136019, Note_on_c, 0, 49, 0
2,136044, Control_c, 0, 64, 92
2,136050, Note_on_c, 0, 51, 48
2,136052, Note_on_c, 0, 67, 57
2,136061, Control_c, 0, 64, 70
2,136080, Control_c, 0, 64, 58
2,136101, Control_c, 0, 64, 45
2,136119, Control_c, 0, 64, 34
2,136137, Control_c, 0, 64, 30
2,136155, Control_c, 0, 64, 31
2,136175, Control_c, 0, 64, 34
2,136195, Control_c, 0, 64, 36
2,136213, Control_c, 0, 64, 37
2,136268, Note_on_c, 0, 51, 0
2,136286, Note_on_c, 0, 58, 52
2,136427, Note_on_c, 0, 58, 0
2,136483, Control_c, 0, 64, 36
2,136487, Note_on_c, 0, 51, 60
2,136487, Note_on_c, 0, 60, 56
2,136658, Note_on_c, 0, 60, 0
2,136663, Note_on_c, 0, 51, 0
2,136681, Note_on_c, 0, 67, 0
2,136685, Note_on_c, 0, 61, 59
2,136692, Note_on_c, 0, 49, 53
2,136843, Note_on_c, 0, 61, 0
2,136904, Note_on_c, 0, 49, 0
2,136904, Note_on_c, 0, 63, 58
2,136916, Note_on_c, 0, 48, 53
2,137069, Note_on_c, 0, 48, 0
2,137096, Note_on_c, 0, 67, 72
2,137101, Control_c, 0, 64, 35
2,137115, Control_c, 0, 64, 34
2,137135, Control_c, 0, 64, 33
2,137158, Control_c, 0, 64, 31
2,137177, Control_c, 0, 64, 29
2,137195, Control_c, 0, 64, 27
2,137212, Control_c, 0, 64, 24
2,137232, Control_c, 0, 64, 21
2,137252, Control_c, 0, 64, 17
2,137269, Control_c, 0, 64, 15
2,137309, Control_c, 0, 64, 14
2,137313, Note_on_c, 0, 48, 69
2,137313, Note_on_c, 0, 68, 81
2,137345, Control_c, 0, 64, 13
2,137508, Note_on_c, 0, 48, 0
2,137508, Note_on_c, 0, 67, 0
2,137512, Note_on_c, 0, 70, 73
2,137521, Note_on_c, 0, 46, 69
2,137521, Note_on_c, 0, 68, 0
2,137617, Control_c, 0, 64, 11
2,137635, Control_c, 0, 64, 0
2,137746, Note_on_c, 0, 44, 65
2,137746, Note_on_c, 0, 46, 0
2,137746, Note_on_c, 0, 72, 73
2,137759, Note_on_c, 0, 63, 0
2,137767, Note_on_c, 0, 70, 0
2,137935, Note_on_c, 0, 44, 0
2,137956, Note_on_c, 0, 63, 62
2,138157, Note_on_c, 0, 56, 84
2,138166, Note_on_c, 0, 65, 64
2,138222, Note_on_c, 0, 63, 0
2,138337, Note_on_c, 0, 72, 0
2,138359, Note_on_c, 0, 56, 0
2,138364, Note_on_c, 0, 55, 78
2,138375, Note_on_c, 0, 67, 68
2,138397, Note_on_c, 0, 65, 0
2,138512, Note_on_c, 0, 67, 0
2,138588, Note_on_c, 0, 53, 74
2,138599, Note_on_c, 0, 68, 65
2,138613, Note_on_c, 0, 55, 0
2,138776, Note_on_c, 0, 53, 0
2,138790, Note_on_c, 0, 72, 84
2,139002, Note_on_c, 0, 74, 84
2,139008, Note_on_c, 0, 53, 72
2,139065, Note_on_c, 0, 72, 0
2,139197, Note_on_c, 0, 75, 79
2,139208, Note_on_c, 0, 53, 0
2,139214, Note_on_c, 0, 51, 70
2,139218, Note_on_c, 0, 74, 0
2,139427, Note_on_c, 0, 77, 78
2,139428, Note_on_c, 0, 50, 58
2,139433, Note_on_c, 0, 51, 0
2,139437, Note_on_c, 0, 75, 0
2,139626, Note_on_c, 0, 72, 73
2,139657, Note_on_c, 0, 50, 0
2,139662, Note_on_c, 0, 68, 0
2,139844, Control_c, 0, 64, 16
2,139864, Control_c, 0, 64, 39
2,139864, Note_on_c, 0, 70, 66
2,139882, Control_c, 0, 64, 56
2,139899, Control_c, 0, 64, 63
2,139919, Control_c, 0, 64, 65
2,139930, Note_on_c, 0, 72, 0
2,139940, Control_c, 0, 64, 67
2,139958, Control_c, 0, 64, 74
2,139976, Control_c, 0, 64, 92
2,139996, Control_c, 0, 64, 127
2,140016, Note_on_c, 0, 77, 0
2,140067, Note_on_c, 0, 68, 66
2,140067, Note_on_c, 0, 70, 0
2,140171, Note_on_c, 0, 68, 0
2,140284, Note_on_c, 0, 51, 71
2,140288, Note_on_c, 0, 58, 89
2,140304, Control_c, 0, 64, 76
2,140321, Control_c, 0, 64, 62
2,140321, Note_on_c, 0, 67, 63
2,140343, Control_c, 0, 64, 49
2,140361, Control_c, 0, 64, 40
2,140379, Control_c, 0, 64, 33
2,140384, Note_on_c, 0, 51, 0
2,140398, Control_c, 0, 64, 24
2,140422, Control_c, 0, 64, 0
2,140524, Note_on_c, 0, 70, 54
2,140641, Note_on_c, 0, 67, 0
2,140717, Note_on_c, 0, 55, 59
2,140730, Note_on_c, 0, 70, 0
2,140742, Note_on_c, 0, 75, 61
2,140789, Note_on_c, 0, 55, 0
2,140909, Note_on_c, 0, 75, 0
2,140953, Note_on_c, 0, 67, 53
2,141152, Note_on_c, 0, 67, 0
2,141163, Note_on_c, 0, 56, 77
2,141170, Note_on_c, 0, 60, 82
2,141187, Note_on_c, 0, 58, 0
2,141191, Note_on_c, 0, 65, 63
2,141270, Note_on_c, 0, 56, 0
2,141399, Note_on_c, 0, 75, 61
2,141559, Note_on_c, 0, 75, 0
2,141607, Note_on_c, 0, 74, 65
2,141611, Note_on_c, 0, 53, 62
2,141688, Note_on_c, 0, 53, 0
2,141801, Note_on_c, 0, 74, 0
2,141815, Note_on_c, 0, 72, 64
2,142010, Note_on_c, 0, 58, 75
2,142023, Note_on_c, 0, 60, 0
2,142039, Note_on_c, 0, 65, 0
2,142039, Note_on_c, 0, 74, 72
2,142047, Note_on_c, 0, 72, 0
2,142242, Note_on_c, 0, 75, 64
2,142254, Note_on_c, 0, 74, 0
2,142432, Control_c, 0, 64, 30
2,142434, Note_on_c, 0, 75, 0
2,142439, Note_on_c, 0, 46, 58
2,142455, Control_c, 0, 64, 47
2,142455, Note_on_c, 0, 72, 58
2,142473, Control_c, 0, 64, 59
2,142489, Control_c, 0, 64, 66
2,142507, Control_c, 0, 64, 69
2,142517, Note_on_c, 0, 46, 0
2,142530, Control_c, 0, 64, 76
2,142530, Note_on_c, 0, 58, 0
2,142548, Control_c, 0, 64, 87
2,142567, Control_c, 0, 64, 112
2,142584, Control_c, 0, 64, 127
2,142629, Note_on_c, 0, 72, 0
2,142644, Note_on_c, 0, 74, 67
2,142856, Control_c, 0, 64, 79
2,142862, Note_on_c, 0, 57, 76
2,142868, Note_on_c, 0, 48, 73
2,142873, Control_c, 0, 64, 61
2,142875, Note_on_c, 0, 63, 57
2,142882, Note_on_c, 0, 74, 0
2,142891, Note_on_c, 0, 75, 54
2,142892, Control_c, 0, 64, 39
2,142910, Control_c, 0, 64, 0
2,142958, Note_on_c, 0, 63, 0
2,142962, Note_on_c, 0, 48, 0
2,143043, Note_on_c, 0, 75, 0
2,143079, Note_on_c, 0, 72, 63
2,143277, Note_on_c, 0, 72, 0
2,143304, Note_on_c, 0, 60, 60
2,143304, Note_on_c, 0, 74, 62
2,143315, Control_c, 0, 64, 30
2,143333, Control_c, 0, 64, 46
2,143353, Control_c, 0, 64, 56
2,143373, Control_c, 0, 64, 62
2,143385, Note_on_c, 0, 57, 0
2,143391, Control_c, 0, 64, 64
2,143411, Control_c, 0, 64, 65
2,143430, Control_c, 0, 64, 68
2,143448, Control_c, 0, 64, 76
2,143461, Note_on_c, 0, 74, 0
2,143465, Note_on_c, 0, 60, 0
2,143470, Control_c, 0, 64, 87
2,143488, Control_c, 0, 64, 104
2,143509, Control_c, 0, 64, 127
2,143518, Note_on_c, 0, 58, 58
2,143518, Note_on_c, 0, 75, 59
2,143720, Control_c, 0, 64, 78
2,143738, Note_on_c, 0, 75, 0
2,143742, Control_c, 0, 64, 62
2,143749, Note_on_c, 0, 77, 76
2,143751, Note_on_c, 0, 56, 76
2,143753, Note_on_c, 0, 62, 89
2,143758, Control_c, 0, 64, 49
2,143775, Control_c, 0, 64, 34
2,143795, Control_c, 0, 64, 11
2,143815, Control_c, 0, 64, 0
2,143848, Note_on_c, 0, 58, 0
2,143965, Note_on_c, 0, 75, 69
2,143969, Note_on_c, 0, 77, 0
2,144174, Note_on_c, 0, 56, 0
2,144178, Note_on_c, 0, 58, 71
2,144187, Note_on_c, 0, 75, 0
2,144192, Note_on_c, 0, 74, 64
2,144198, Control_c, 0, 64, 32
2,144217, Control_c, 0, 64, 53
2,144239, Control_c, 0, 64, 65
2,144255, Control_c, 0, 64, 77
2,144275, Control_c, 0, 64, 127
2,144303, Note_on_c, 0, 62, 0
2,144325, Note_on_c, 0, 74, 0
2,144365, Note_on_c, 0, 56, 49
2,144374, Note_on_c, 0, 72, 62
2,144378, Note_on_c, 0, 58, 0
2,144407, Note_on_c, 0, 56, 0
2,144407, Note_on_c, 0, 72, 0
2,144602, Control_c, 0, 64, 74
2,144617, Note_on_c, 0, 55, 80
2,144624, Control_c, 0, 64, 45
2,144624, Note_on_c, 0, 63, 87
2,144641, Control_c, 0, 64, 0
2,144641, Note_on_c, 0, 70, 65
2,144680, Control_c, 0, 64, 26
2,144695, Control_c, 0, 64, 56
2,144715, Control_c, 0, 64, 68
2,144736, Control_c, 0, 64, 78
2,144756, Control_c, 0, 64, 101
2,144773, Control_c, 0, 64, 127
2,144788, Note_on_c, 0, 63, 0
2,144828, Note_on_c, 0, 55, 0
2,144848, Note_on_c, 0, 60, 64
2,144909, Control_c, 0, 64, 116
2,144927, Control_c, 0, 64, 106
2,144945, Control_c, 0, 64, 100
2,144967, Control_c, 0, 64, 94
2,144985, Control_c, 0, 64, 89
2,144985, Note_on_c, 0, 60, 0
2,145003, Control_c, 0, 64, 85
2,145025, Control_c, 0, 64, 80
2,145044, Control_c, 0, 64, 76
2,145062, Control_c, 0, 64, 73
2,145068, Note_on_c, 0, 46, 56
2,145077, Note_on_c, 0, 62, 59
2,145084, Control_c, 0, 64, 70
2,145160, Control_c, 0, 64, 69
2,145164, Note_on_c, 0, 46, 0
2,145197, Control_c, 0, 64, 68
2,145262, Note_on_c, 0, 62, 0
2,145277, Note_on_c, 0, 48, 67
2,145301, Note_on_c, 0, 63, 47
2,145331, Control_c, 0, 64, 69
2,145349, Control_c, 0, 64, 70
2,145367, Control_c, 0, 64, 71
2,145387, Control_c, 0, 64, 72
2,145409, Control_c, 0, 64, 73
2,145425, Control_c, 0, 64, 72
2,145447, Control_c, 0, 64, 71
2,145465, Control_c, 0, 64, 70
2,145482, Control_c, 0, 64, 67
2,145497, Note_on_c, 0, 48, 0
2,145506, Control_c, 0, 64, 64
2,145506, Note_on_c, 0, 63, 0
2,145521, Note_on_c, 0, 56, 82
2,145525, Control_c, 0, 64, 58
2,145530, Note_on_c, 0, 50, 78
2,145534, Note_on_c, 0, 65, 58
2,145543, Control_c, 0, 64, 53
2,145559, Control_c, 0, 64, 46
2,145579, Control_c, 0, 64, 39
2,145600, Control_c, 0, 64, 32
2,145618, Control_c, 0, 64, 24
2,145636, Control_c, 0, 64, 15
2,145656, Control_c, 0, 64, 10
2,145677, Control_c, 0, 64, 9
2,145695, Control_c, 0, 64, 0
2,145706, Note_on_c, 0, 65, 0
2,145744, Note_on_c, 0, 63, 57
2,145953, Note_on_c, 0, 63, 0
2,145971, Note_on_c, 0, 62, 60
2,145976, Note_on_c, 0, 50, 0
2,145980, Note_on_c, 0, 48, 61
2,146002, Control_c, 0, 64, 22
2,146020, Control_c, 0, 64, 39
2,146044, Control_c, 0, 64, 51
2,146059, Control_c, 0, 64, 60
2,146077, Control_c, 0, 64, 63
2,146099, Control_c, 0, 64, 65
2,146119, Control_c, 0, 64, 68
2,146130, Note_on_c, 0, 62, 0
2,146139, Control_c, 0, 64, 76
2,146159, Control_c, 0, 64, 86
2,146159, Note_on_c, 0, 50, 62
2,146163, Note_on_c, 0, 60, 66
2,146168, Note_on_c, 0, 48, 0
2,146177, Control_c, 0, 64, 127
2,146222, Note_on_c, 0, 60, 0
2,146230, Note_on_c, 0, 56, 0
2,146271, Note_on_c, 0, 50, 0
2,146332, Control_c, 0, 64, 88
2,146351, Control_c, 0, 64, 60
2,146370, Control_c, 0, 64, 0
2,146400, Note_on_c, 0, 51, 74
2,146400, Note_on_c, 0, 55, 74
2,146409, Note_on_c, 0, 58, 62
2,146447, Control_c, 0, 64, 33
2,146467, Control_c, 0, 64, 51
2,146485, Control_c, 0, 64, 61
2,146504, Control_c, 0, 64, 63
2,146543, Control_c, 0, 64, 64
2,146565, Control_c, 0, 64, 65
2,146576, Note_on_c, 0, 51, 0
2,146586, Control_c, 0, 64, 66
2,146600, Control_c, 0, 64, 67
2,146604, Note_on_c, 0, 58, 0
2,146615, Note_on_c, 0, 68, 69
2,146621, Control_c, 0, 64, 69
2,146638, Control_c, 0, 64, 71
2,146645, Note_on_c, 0, 70, 0
2,146658, Control_c, 0, 64, 75
2,146675, Control_c, 0, 64, 82
2,146698, Control_c, 0, 64, 92
2,146713, Note_on_c, 0, 68, 0
2,146717, Control_c, 0, 64, 104
2,146735, Control_c, 0, 64, 118
2,146755, Control_c, 0, 64, 122
2,146775, Control_c, 0, 64, 94
2,146793, Control_c, 0, 64, 70
2,146813, Control_c, 0, 64, 56
2,146830, Note_on_c, 0, 51, 65
2,146835, Control_c, 0, 64, 33
2,146846, Note_on_c, 0, 67, 63
2,146850, Control_c, 0, 64, 0
2,146888, Control_c, 0, 64, 21
2,146908, Control_c, 0, 64, 35
2,146928, Control_c, 0, 64, 45
2,146946, Control_c, 0, 64, 52
2,146964, Control_c, 0, 64, 57
2,146984, Control_c, 0, 64, 59
2,147004, Control_c, 0, 64, 61
2,147017, Note_on_c, 0, 67, 0
2,147026, Control_c, 0, 64, 63
2,147042, Control_c, 0, 64, 65
2,147048, Note_on_c, 0, 51, 0
2,147048, Note_on_c, 0, 55, 0
2,147048, Note_on_c, 0, 65, 55
2,147058, Note_on_c, 0, 50, 60
2,147063, Control_c, 0, 64, 68
2,147079, Control_c, 0, 64, 74
2,147100, Control_c, 0, 64, 82
2,147117, Control_c, 0, 64, 93
2,147140, Control_c, 0, 64, 104
2,147160, Control_c, 0, 64, 127
2,147198, Control_c, 0, 64, 109
2,147216, Control_c, 0, 64, 78
2,147233, Control_c, 0, 64, 60
2,147252, Control_c, 0, 64, 32
2,147261, Note_on_c, 0, 50, 0
2,147270, Note_on_c, 0, 65, 0
2,147275, Control_c, 0, 64, 0
2,147300, Note_on_c, 0, 54, 70
2,147300, Note_on_c, 0, 63, 60
2,147305, Note_on_c, 0, 48, 65
2,147350, Control_c, 0, 64, 18
2,147370, Control_c, 0, 64, 41
2,147388, Control_c, 0, 64, 55
2,147406, Control_c, 0, 64, 62
2,147425, Control_c, 0, 64, 64
2,147447, Control_c, 0, 64, 65
2,147447, Note_on_c, 0, 48, 0
2,147463, Control_c, 0, 64, 66
2,147482, Control_c, 0, 64, 69
2,147501, Control_c, 0, 64, 73
2,147522, Control_c, 0, 64, 78
2,147539, Control_c, 0, 64, 82
2,147560, Control_c, 0, 64, 83
2,147581, Control_c, 0, 64, 84
2,147617, Control_c, 0, 64, 82
2,147640, Control_c, 0, 64, 74
2,147657, Control_c, 0, 64, 64
2,147676, Control_c, 0, 64, 50
2,147694, Control_c, 0, 64, 0
2,147731, Note_on_c, 0, 48, 46
2,147731, Note_on_c, 0, 57, 52
2,147869, Control_c, 0, 64, 38
2,147887, Control_c, 0, 64, 57
2,147905, Control_c, 0, 64, 64
2,147909, Note_on_c, 0, 46, 58
2,147927, Control_c, 0, 64, 69
2,147927, Note_on_c, 0, 48, 0
2,147927, Note_on_c, 0, 57, 0
2,147947, Control_c, 0, 64, 76
2,147947, Note_on_c, 0, 54, 0
2,147947, Note_on_c, 0, 63, 0
2,147951, Note_on_c, 0, 58, 57
2,147966, Control_c, 0, 64, 90
2,147982, Control_c, 0, 64, 127
2,147988, Note_on_c, 0, 46, 0
2,148110, Note_on_c, 0, 58, 0
2,148161, Note_on_c, 0, 53, 63
2,148177, Note_on_c, 0, 45, 59
2,148177, Note_on_c, 0, 60, 58
2,148195, Control_c, 0, 64, 79
2,148215, Control_c, 0, 64, 59
2,148233, Control_c, 0, 64, 11
2,148252, Control_c, 0, 64, 0
2,148370, Note_on_c, 0, 63, 58
2,148414, Note_on_c, 0, 60, 0
2,148423, Control_c, 0, 64, 33
2,148444, Control_c, 0, 64, 59
2,148467, Control_c, 0, 64, 71
2,148482, Control_c, 0, 64, 86
2,148503, Control_c, 0, 64, 127
2,148580, Note_on_c, 0, 63, 0
2,148585, Note_on_c, 0, 65, 67
2,148598, Note_on_c, 0, 45, 0
2,148770, Note_on_c, 0, 65, 0
2,148779, Note_on_c, 0, 63, 58
2,148958, Note_on_c, 0, 63, 0
2,149000, Control_c, 0, 64, 118
2,149008, Note_on_c, 0, 58, 64
2,149021, Control_c, 0, 64, 90
2,149026, Note_on_c, 0, 46, 61
2,149026, Note_on_c, 0, 62, 60
2,149040, Control_c, 0, 64, 73
2,149057, Control_c, 0, 64, 61
2,149077, Control_c, 0, 64, 47
2,149097, Control_c, 0, 64, 19
2,149115, Control_c, 0, 64, 0
2,149231, Note_on_c, 0, 72, 70
2,149436, Note_on_c, 0, 72, 0
2,149443, Note_on_c, 0, 70, 67
2,149578, Note_on_c, 0, 62, 0
2,149639, Note_on_c, 0, 70, 0
2,149644, Note_on_c, 0, 68, 64
2,149878, Note_on_c, 0, 68, 0
2,149903, Note_on_c, 0, 51, 58
2,149903, Note_on_c, 0, 67, 57
2,149913, Note_on_c, 0, 58, 0
2,149915, Note_on_c, 0, 53, 0
2,149926, Control_c, 0, 64, 25
2,149941, Control_c, 0, 64, 47
2,149957, Note_on_c, 0, 46, 0
2,149961, Control_c, 0, 64, 62
2,149979, Control_c, 0, 64, 69
2,149995, Note_on_c, 0, 67, 0
2,149999, Control_c, 0, 64, 77
2,150017, Control_c, 0, 64, 89
2,150036, Control_c, 0, 64, 113
2,150053, Note_on_c, 0, 51, 0
2,150058, Control_c, 0, 64, 127
2,150289, Control_c, 0, 64, 79
2,150305, Control_c, 0, 64, 60
2,150327, Control_c, 0, 64, 0
2,150327, Note_on_c, 0, 70, 71
2,150338, Note_on_c, 0, 63, 64
2,150391, Note_on_c, 0, 70, 0
2,150530, Note_on_c, 0, 63, 0
2,150530, Note_on_c, 0, 65, 60
2,150536, Control_c, 0, 64, 44
2,150556, Control_c, 0, 64, 60
2,150573, Note_on_c, 0, 65, 0
2,150577, Control_c, 0, 64, 68
2,150593, Control_c, 0, 64, 77
2,150615, Control_c, 0, 64, 116
2,150633, Control_c, 0, 64, 127
2,150729, Control_c, 0, 64, 80
2,150746, Control_c, 0, 64, 52
2,150766, Control_c, 0, 64, 0
2,150784, Note_on_c, 0, 75, 65
2,150793, Note_on_c, 0, 67, 56
2,150825, Control_c, 0, 64, 34
2,150846, Control_c, 0, 64, 52
2,150863, Control_c, 0, 64, 63
2,150881, Control_c, 0, 64, 65
2,150900, Control_c, 0, 64, 66
2,150922, Control_c, 0, 64, 67
2,150942, Control_c, 0, 64, 69
2,150959, Control_c, 0, 64, 73
2,150968, Note_on_c, 0, 67, 0
2,150976, Control_c, 0, 64, 78
2,150998, Control_c, 0, 64, 81
2,151054, Control_c, 0, 64, 80
2,151075, Control_c, 0, 64, 76
2,151092, Control_c, 0, 64, 71
2,151113, Control_c, 0, 64, 64
2,151131, Control_c, 0, 64, 59
2,151150, Control_c, 0, 64, 53
2,151168, Control_c, 0, 64, 47
2,151188, Control_c, 0, 64, 41
2,151195, Note_on_c, 0, 51, 57
2,151209, Control_c, 0, 64, 35
2,151209, Note_on_c, 0, 67, 51
2,151228, Control_c, 0, 64, 29
2,151246, Control_c, 0, 64, 22
2,151265, Control_c, 0, 64, 16
2,151285, Control_c, 0, 64, 0
2,151349, Note_on_c, 0, 51, 0
2,151391, Note_on_c, 0, 67, 0
2,151397, Note_on_c, 0, 53, 54
2,151416, Note_on_c, 0, 68, 62
2,151416, Note_on_c, 0, 75, 0
2,151459, Control_c, 0, 64, 18
2,151477, Control_c, 0, 64, 28
2,151496, Control_c, 0, 64, 34
2,151519, Control_c, 0, 64, 39
2,151534, Control_c, 0, 64, 43
2,151554, Control_c, 0, 64, 46
2,151574, Control_c, 0, 64, 50
2,151576, Note_on_c, 0, 68, 0
2,151596, Control_c, 0, 64, 53
2,151612, Control_c, 0, 64, 56
2,151629, Control_c, 0, 64, 58
2,151638, Note_on_c, 0, 53, 0
2,151647, Note_on_c, 0, 70, 55
2,151651, Control_c, 0, 64, 60
2,151659, Note_on_c, 0, 55, 56
2,151672, Control_c, 0, 64, 61
2,151709, Control_c, 0, 64, 62
2,151780, Note_on_c, 0, 55, 0
2,151785, Control_c, 0, 64, 63
2,151837, Note_on_c, 0, 79, 68
2,151957, Control_c, 0, 64, 62
2,151975, Control_c, 0, 64, 61
2,151995, Control_c, 0, 64, 59
2,152016, Control_c, 0, 64, 54
2,152038, Control_c, 0, 64, 44
2,152053, Control_c, 0, 64, 0
2,152053, Note_on_c, 0, 77, 73
2,152056, Note_on_c, 0, 58, 63
2,152060, Note_on_c, 0, 55, 53
2,152188, Control_c, 0, 64, 30
2,152195, Note_on_c, 0, 79, 0
2,152206, Control_c, 0, 64, 52
2,152222, Note_on_c, 0, 55, 0
2,152222, Note_on_c, 0, 58, 0
2,152226, Control_c, 0, 64, 64
2,152244, Control_c, 0, 64, 76
2,152256, Note_on_c, 0, 56, 64
2,152260, Note_on_c, 0, 75, 76
2,152264, Control_c, 0, 64, 127
2,152271, Note_on_c, 0, 60, 62
2,152294, Note_on_c, 0, 77, 0
2,152341, Note_on_c, 0, 75, 0
2,152360, Note_on_c, 0, 70, 0
2,152456, Note_on_c, 0, 60, 0
2,152460, Control_c, 0, 64, 73
2,152472, Note_on_c, 0, 56, 0
2,152477, Control_c, 0, 64, 55
2,152482, Note_on_c, 0, 74, 78
2,152496, Control_c, 0, 64, 18
2,152496, Note_on_c, 0, 58, 62
2,152501, Note_on_c, 0, 62, 67
2,152517, Control_c, 0, 64, 0
2,152686, Control_c, 0, 64, 47
2,152691, Note_on_c, 0, 62, 0
2,152695, Note_on_c, 0, 60, 69
2,152699, Note_on_c, 0, 58, 0
2,152699, Note_on_c, 0, 68, 69
2,152704, Control_c, 0, 64, 59
2,152724, Control_c, 0, 64, 64
2,152728, Note_on_c, 0, 60, 0
2,152744, Control_c, 0, 64, 68
2,152762, Control_c, 0, 64, 78
2,152784, Control_c, 0, 64, 100
2,152802, Control_c, 0, 64, 116
2,152822, Control_c, 0, 64, 85
2,152839, Control_c, 0, 64, 65
2,152859, Control_c, 0, 64, 47
2,152877, Note_on_c, 0, 68, 0
2,152881, Control_c, 0, 64, 0
2,152890, Note_on_c, 0, 74, 0
2,152894, Note_on_c, 0, 46, 70
2,152905, Note_on_c, 0, 58, 71
2,152915, Note_on_c, 0, 67, 60
2,152933, Note_on_c, 0, 46, 0
2,153068, Note_on_c, 0, 58, 0
2,153068, Note_on_c, 0, 67, 0
2,153111, Note_on_c, 0, 65, 62
2,153116, Note_on_c, 0, 56, 66
2,153279, Note_on_c, 0, 56, 0
2,153306, Note_on_c, 0, 65, 0
2,153322, Control_c, 0, 64, 26
2,153326, Note_on_c, 0, 48, 65
2,153333, Note_on_c, 0, 55, 65
2,153337, Note_on_c, 0, 63, 63
2,153342, Control_c, 0, 64, 55
2,153359, Control_c, 0, 64, 65
2,153377, Control_c, 0, 64, 68
2,153386, Note_on_c, 0, 48, 0
2,153386, Note_on_c, 0, 63, 0
2,153397, Control_c, 0, 64, 73
2,153420, Control_c, 0, 64, 81
2,153431, Note_on_c, 0, 55, 0
2,153436, Control_c, 0, 64, 93
2,153454, Control_c, 0, 64, 108
2,153475, Control_c, 0, 64, 127
2,153536, Note_on_c, 0, 62, 67
2,153582, Note_on_c, 0, 62, 0
2,153725, Control_c, 0, 64, 87
2,153743, Control_c, 0, 64, 61
2,153753, Note_on_c, 0, 67, 70
2,153764, Control_c, 0, 64, 23
2,153764, Note_on_c, 0, 60, 68
2,153782, Control_c, 0, 64, 0
2,153810, Note_on_c, 0, 67, 0
2,153955, Control_c, 0, 64, 43
2,153955, Note_on_c, 0, 62, 72
2,153960, Note_on_c, 0, 60, 0
2,153973, Control_c, 0, 64, 59
2,153989, Note_on_c, 0, 62, 0
2,153993, Control_c, 0, 64, 65
2,154011, Control_c, 0, 64, 72
2,154031, Control_c, 0, 64, 96
2,154049, Control_c, 0, 64, 127
2,154146, Control_c, 0, 64, 95
2,154166, Control_c, 0, 64, 61
2,154184, Control_c, 0, 64, 0
2,154198, Note_on_c, 0, 72, 75
2,154202, Note_on_c, 0, 63, 64
2,154260, Control_c, 0, 64, 42
2,154280, Control_c, 0, 64, 57
2,154298, Control_c, 0, 64, 64
2,154318, Control_c, 0, 64, 66
2,154338, Control_c, 0, 64, 70
2,154356, Control_c, 0, 64, 77
2,154375, Control_c, 0, 64, 87
2,154397, Control_c, 0, 64, 101
2,154416, Control_c, 0, 64, 111
2,154416, Note_on_c, 0, 63, 0
2,154434, Control_c, 0, 64, 118
2,154452, Control_c, 0, 64, 122
2,154490, Control_c, 0, 64, 106
2,154509, Control_c, 0, 64, 90
2,154533, Control_c, 0, 64, 73
2,154550, Control_c, 0, 64, 63
2,154569, Control_c, 0, 64, 53
2,154587, Control_c, 0, 64, 44
2,154607, Control_c, 0, 64, 36
2,154610, Note_on_c, 0, 63, 62
2,154619, Note_on_c, 0, 48, 56
2,154625, Control_c, 0, 64, 27
2,154646, Control_c, 0, 64, 12
2,154663, Control_c, 0, 64, 0
2,154729, Note_on_c, 0, 63, 0
2,154805, Note_on_c, 0, 48, 0
2,154821, Note_on_c, 0, 65, 54
2,154827, Note_on_c, 0, 50, 62
2,154852, Note_on_c, 0, 72, 0
2,155013, Note_on_c, 0, 65, 0
2,155054, Note_on_c, 0, 50, 0
2,155060, Note_on_c, 0, 67, 61
2,155069, Note_on_c, 0, 51, 64
2,155073, Control_c, 0, 64, 40
2,155087, Control_c, 0, 64, 54
2,155104, Control_c, 0, 64, 61
2,155125, Control_c, 0, 64, 65
2,155129, Note_on_c, 0, 51, 0
2,155145, Control_c, 0, 64, 69
2,155165, Control_c, 0, 64, 78
2,155184, Control_c, 0, 64, 101
2,155202, Control_c, 0, 64, 127
2,155264, Note_on_c, 0, 75, 77
2,155375, Control_c, 0, 64, 118
2,155395, Control_c, 0, 64, 81
2,155415, Control_c, 0, 64, 63
2,155432, Control_c, 0, 64, 38
2,155443, Note_on_c, 0, 51, 70
2,155453, Control_c, 0, 64, 0
2,155464, Note_on_c, 0, 55, 64
2,155467, Note_on_c, 0, 74, 77
2,155590, Note_on_c, 0, 51, 0
2,155592, Note_on_c, 0, 75, 0
2,155662, Control_c, 0, 64, 49
2,155667, Note_on_c, 0, 53, 70
2,155671, Note_on_c, 0, 72, 76
2,155676, Note_on_c, 0, 56, 76
2,155683, Control_c, 0, 64, 63
2,155692, Note_on_c, 0, 74, 0
2,155701, Control_c, 0, 64, 74
2,155720, Control_c, 0, 64, 108
2,155736, Note_on_c, 0, 55, 0
2,155740, Control_c, 0, 64, 127
2,155750, Note_on_c, 0, 72, 0
2,155876, Control_c, 0, 64, 71
2,155880, Note_on_c, 0, 53, 0
2,155887, Note_on_c, 0, 56, 0
2,155894, Control_c, 0, 64, 43
2,155898, Note_on_c, 0, 55, 64
2,155898, Note_on_c, 0, 70, 76
2,155901, Note_on_c, 0, 67, 0
2,155909, Note_on_c, 0, 58, 70
2,155914, Control_c, 0, 64, 0
2,156067, Control_c, 0, 64, 30
2,156085, Control_c, 0, 64, 61
2,156091, Note_on_c, 0, 55, 0
2,156100, Note_on_c, 0, 56, 69
2,156104, Note_on_c, 0, 58, 0
2,156104, Note_on_c, 0, 65, 65
2,156109, Control_c, 0, 64, 70
2,156124, Control_c, 0, 64, 78
2,156134, Note_on_c, 0, 56, 0
2,156146, Control_c, 0, 64, 81
2,156161, Control_c, 0, 64, 78
2,156183, Control_c, 0, 64, 69
2,156198, Control_c, 0, 64, 59
2,156220, Control_c, 0, 64, 42
2,156237, Control_c, 0, 64, 0
2,156296, Note_on_c, 0, 65, 0
2,156317, Note_on_c, 0, 43, 71
2,156317, Note_on_c, 0, 55, 76
2,156330, Note_on_c, 0, 63, 61
2,156366, Note_on_c, 0, 43, 0
2,156456, Note_on_c, 0, 55, 0
2,156480, Note_on_c, 0, 70, 0
2,156518, Note_on_c, 0, 53, 69
2,156523, Note_on_c, 0, 63, 0
2,156527, Note_on_c, 0, 61, 62
2,156654, Note_on_c, 0, 53, 0
2,156732, Note_on_c, 0, 44, 65
2,156736, Note_on_c, 0, 61, 0
2,156752, Note_on_c, 0, 51, 74
2,156752, Note_on_c, 0, 60, 67
2,156759, Control_c, 0, 64, 37
2,156777, Control_c, 0, 64, 58
2,156796, Control_c, 0, 64, 67
2,156810, Note_on_c, 0, 44, 0
2,156815, Control_c, 0, 64, 77
2,156823, Note_on_c, 0, 60, 0
2,156838, Control_c, 0, 64, 95
2,156852, Control_c, 0, 64, 127
2,156961, Note_on_c, 0, 58, 62
2,156965, Note_on_c, 0, 51, 0
2,157013, Note_on_c, 0, 58, 0
2,157142, Control_c, 0, 64, 86
2,157157, Control_c, 0, 64, 61
2,157168, Note_on_c, 0, 56, 75
2,157168, Note_on_c, 0, 63, 72
2,157177, Control_c, 0, 64, 31
2,157196, Control_c, 0, 64, 0
2,157246, Note_on_c, 0, 63, 0
2,157376, Note_on_c, 0, 56, 0
2,157376, Note_on_c, 0, 58, 67
2,157426, Control_c, 0, 64, 20
2,157445, Control_c, 0, 64, 43
2,157453, Note_on_c, 0, 58, 0
2,157463, Control_c, 0, 64, 57
2,157484, Control_c, 0, 64, 68
2,157503, Control_c, 0, 64, 88
2,157522, Control_c, 0, 64, 127
2,157599, Control_c, 0, 64, 70
2,157619, Control_c, 0, 64, 40
2,157629, Note_on_c, 0, 68, 84
2,157638, Control_c, 0, 64, 0
2,157638, Note_on_c, 0, 60, 76
2,157676, Control_c, 0, 64, 33
2,157696, Control_c, 0, 64, 53
2,157714, Control_c, 0, 64, 64
2,157733, Control_c, 0, 64, 68
2,157753, Control_c, 0, 64, 73
2,157773, Control_c, 0, 64, 80
2,157791, Control_c, 0, 64, 87
2,157808, Control_c, 0, 64, 96
2,157828, Control_c, 0, 64, 104
2,157849, Control_c, 0, 64, 113
2,157857, Note_on_c, 0, 60, 0
2,157866, Control_c, 0, 64, 127
2,157984, Control_c, 0, 64, 92
2,158002, Control_c, 0, 64, 67
2,158022, Control_c, 0, 64, 54
2,158041, Control_c, 0, 64, 34
2,158059, Control_c, 0, 64, 16
2,158064, Note_on_c, 0, 44, 70
2,158068, Note_on_c, 0, 60, 61
2,158078, Control_c, 0, 64, 0
2,158249, Note_on_c, 0, 44, 0
2,158260, Note_on_c, 0, 46, 68
2,158267, Note_on_c, 0, 60, 0
2,158280, Note_on_c, 0, 62, 71
2,158291, Note_on_c, 0, 68, 0
2,158308, Control_c, 0, 64, 21
2,158347, Control_c, 0, 64, 20
2,158384, Control_c, 0, 64, 18
2,158406, Control_c, 0, 64, 14
2,158426, Control_c, 0, 64, 11
2,158426, Note_on_c, 0, 62, 0
2,158444, Control_c, 0, 64, 13
2,158462, Control_c, 0, 64, 20
2,158482, Control_c, 0, 64, 30
2,158503, Control_c, 0, 64, 40
2,158508, Note_on_c, 0, 48, 69
2,158508, Note_on_c, 0, 63, 64
2,158512, Note_on_c, 0, 46, 0
2,158521, Control_c, 0, 64, 49
2,158542, Control_c, 0, 64, 55
2,158561, Control_c, 0, 64, 57
2,158579, Control_c, 0, 64, 58
2,158655, Control_c, 0, 64, 59
2,158655, Note_on_c, 0, 48, 0
2,158695, Note_on_c, 0, 72, 79
2,158731, Control_c, 0, 64, 60
2,158772, Control_c, 0, 64, 61
2,158847, Control_c, 0, 64, 59
2,158867, Control_c, 0, 64, 51
2,158885, Control_c, 0, 64, 28
2,158904, Control_c, 0, 64, 0
2,158913, Note_on_c, 0, 70, 79
2,158919, Note_on_c, 0, 51, 71
2,158936, Note_on_c, 0, 48, 59
2,158952, Note_on_c, 0, 72, 0
2,159059, Control_c, 0, 64, 32
2,159059, Note_on_c, 0, 51, 0
2,159077, Control_c, 0, 64, 54
2,159084, Note_on_c, 0, 48, 0
2,159100, Control_c, 0, 64, 64
2,159114, Control_c, 0, 64, 73
2,159121, Note_on_c, 0, 50, 64
2,159121, Note_on_c, 0, 53, 73
2,159125, Note_on_c, 0, 68, 78
2,159136, Control_c, 0, 64, 108
2,159153, Control_c, 0, 64, 127
2,159158, Note_on_c, 0, 70, 0
2,159215, Note_on_c, 0, 68, 0
2,159230, Note_on_c, 0, 63, 0
2,159309, Control_c, 0, 64, 74
2,159317, Note_on_c, 0, 50, 0
2,159323, Note_on_c, 0, 53, 0
2,159328, Control_c, 0, 64, 49
2,159344, Note_on_c, 0, 67, 84
2,159347, Control_c, 0, 64, 0
2,159351, Note_on_c, 0, 51, 74
2,159358, Note_on_c, 0, 55, 73
2,159538, Control_c, 0, 64, 26
2,159549, Note_on_c, 0, 53, 67
2,159549, Note_on_c, 0, 55, 0
2,159558, Control_c, 0, 64, 64
2,159558, Note_on_c, 0, 51, 0
2,159576, Control_c, 0, 64, 75
2,159581, Note_on_c, 0, 62, 72
2,159590, Note_on_c, 0, 53, 0
2,159599, Control_c, 0, 64, 96
2,159616, Control_c, 0, 64, 127
2,159616, Note_on_c, 0, 67, 0
2,159690, Control_c, 0, 64, 103
2,159710, Control_c, 0, 64, 65
2,159728, Control_c, 0, 64, 34
2,159748, Control_c, 0, 64, 0
2,159760, Note_on_c, 0, 62, 0
2,159766, Note_on_c, 0, 51, 77
2,159772, Note_on_c, 0, 39, 70
2,159787, Note_on_c, 0, 60, 73
2,159835, Note_on_c, 0, 39, 0
2,159844, Control_c, 0, 64, 31
2,159862, Note_on_c, 0, 51, 0
2,159864, Control_c, 0, 64, 44
2,159883, Control_c, 0, 64, 51
2,159924, Control_c, 0, 64, 50
2,159932, Note_on_c, 0, 60, 0
2,159945, Control_c, 0, 64, 49
2,159976, Note_on_c, 0, 58, 69
2,159991, Note_on_c, 0, 50, 61
2,159998, Control_c, 0, 64, 48
2,160055, Control_c, 0, 64, 49
2,160113, Control_c, 0, 64, 46
2,160133, Control_c, 0, 64, 30
2,160133, Note_on_c, 0, 50, 0
2,160153, Note_on_c, 0, 58, 0
2,160155, Control_c, 0, 64, 0
2,160200, Note_on_c, 0, 56, 75
2,160202, Note_on_c, 0, 48, 75
2,160218, Note_on_c, 0, 41, 73
2,160250, Control_c, 0, 64, 38
2,160266, Control_c, 0, 64, 54
2,160286, Control_c, 0, 64, 62
2,160307, Control_c, 0, 64, 65
2,160327, Control_c, 0, 64, 66
2,160331, Note_on_c, 0, 56, 0
2,160344, Control_c, 0, 64, 68
2,160349, Note_on_c, 0, 41, 0
2,160364, Control_c, 0, 64, 72
2,160369, Note_on_c, 0, 48, 0
2,160383, Control_c, 0, 64, 86
2,160399, Note_on_c, 0, 65, 76
2,160402, Control_c, 0, 64, 120
2,160420, Control_c, 0, 64, 127
2,160594, Control_c, 0, 64, 72
2,160616, Control_c, 0, 64, 41
2,160634, Control_c, 0, 64, 0
2,160650, Note_on_c, 0, 68, 82
2,160654, Note_on_c, 0, 50, 73
2,160656, Note_on_c, 0, 43, 70
2,160661, Note_on_c, 0, 47, 74
2,160671, Control_c, 0, 64, 28
2,160683, Note_on_c, 0, 65, 0
2,160690, Control_c, 0, 64, 54
2,160708, Control_c, 0, 64, 69
2,160729, Control_c, 0, 64, 91
2,160747, Control_c, 0, 64, 127
2,160758, Note_on_c, 0, 43, 0
2,160783, Note_on_c, 0, 68, 0
2,160798, Note_on_c, 0, 47, 0
2,160814, Note_on_c, 0, 50, 0
2,160848, Note_on_c, 0, 67, 81
2,160855, Note_on_c, 0, 51, 72
2,161056, Note_on_c, 0, 51, 0
2,161060, Control_c, 0, 64, 66
2,161073, Control_c, 0, 64, 0
2,161093, Note_on_c, 0, 44, 78
2,161093, Note_on_c, 0, 53, 77
2,161097, Note_on_c, 0, 48, 71
2,161101, Note_on_c, 0, 65, 79
2,161171, Control_c, 0, 64, 37
2,161189, Control_c, 0, 64, 50
2,161208, Control_c, 0, 64, 60
2,161227, Control_c, 0, 64, 64
2,161246, Control_c, 0, 64, 66
2,161266, Note_on_c, 0, 53, 0
2,161270, Control_c, 0, 64, 68
2,161279, Note_on_c, 0, 44, 0
2,161284, Control_c, 0, 64, 72
2,161299, Note_on_c, 0, 67, 0
2,161303, Note_on_c, 0, 63, 79
2,161308, Control_c, 0, 64, 80
2,161324, Control_c, 0, 64, 98
2,161344, Control_c, 0, 64, 127
2,161349, Note_on_c, 0, 65, 0
2,161478, Control_c, 0, 64, 85
2,161497, Control_c, 0, 64, 50
2,161514, Control_c, 0, 64, 0
2,161534, Note_on_c, 0, 54, 82
2,161541, Note_on_c, 0, 45, 75
2,161557, Note_on_c, 0, 62, 82
2,161576, Note_on_c, 0, 63, 0
2,161592, Control_c, 0, 64, 34
2,161613, Control_c, 0, 64, 56
2,161630, Control_c, 0, 64, 64
2,161648, Control_c, 0, 64, 67
2,161668, Control_c, 0, 64, 70
2,161688, Control_c, 0, 64, 76
2,161696, Note_on_c, 0, 54, 0
2,161705, Note_on_c, 0, 45, 0
2,161709, Control_c, 0, 64, 84
2,161720, Note_on_c, 0, 48, 0
2,161730, Control_c, 0, 64, 94
2,161745, Control_c, 0, 64, 104
2,161762, Note_on_c, 0, 60, 85
2,161766, Control_c, 0, 64, 111
2,161771, Note_on_c, 0, 62, 0
2,161784, Control_c, 0, 64, 116
2,161803, Control_c, 0, 64, 127
2,161978, Control_c, 0, 64, 90
2,161997, Control_c, 0, 64, 64
2,162015, Control_c, 0, 64, 0
2,162072, Note_on_c, 0, 43, 69
2,162072, Note_on_c, 0, 50, 66
2,162077, Note_on_c, 0, 55, 71
2,162094, Note_on_c, 0, 59, 80
2,162117, Note_on_c, 0, 60, 0
2,162168, Control_c, 0, 64, 59
2,162180, Note_on_c, 0, 43, 0
2,162188, Control_c, 0, 64, 65
2,162206, Control_c, 0, 64, 68
2,162211, Note_on_c, 0, 50, 0
2,162226, Control_c, 0, 64, 71
2,162245, Control_c, 0, 64, 76
2,162263, Control_c, 0, 64, 85
2,162282, Control_c, 0, 64, 94
2,162291, Note_on_c, 0, 55, 0
2,162304, Control_c, 0, 64, 100
2,162316, Note_on_c, 0, 59, 0
2,162380, Control_c, 0, 64, 99
2,162399, Control_c, 0, 64, 97
2,162417, Control_c, 0, 64, 95
2,162437, Control_c, 0, 64, 94
2,162514, Control_c, 0, 64, 95
2,162552, Control_c, 0, 64, 96
2,162612, Note_on_c, 0, 55, 42
2,162648, Control_c, 0, 64, 95
2,162668, Control_c, 0, 64, 94
2,162685, Control_c, 0, 64, 93
2,162725, Control_c, 0, 64, 92
2,162743, Control_c, 0, 64, 91
2,162755, Note_on_c, 0, 55, 0
2,162764, Control_c, 0, 64, 90
2,162782, Control_c, 0, 64, 88
2,162803, Control_c, 0, 64, 87
2,162820, Control_c, 0, 64, 86
2,162840, Control_c, 0, 64, 85
2,162845, Note_on_c, 0, 57, 32
2,163242, Control_c, 0, 64, 84
2,163265, Control_c, 0, 64, 80
2,163265, Note_on_c, 0, 57, 0
2,163283, Control_c, 0, 64, 72
2,163291, Note_on_c, 0, 79, 61
2,163301, Control_c, 0, 64, 64
2,163305, Note_on_c, 0, 59, 37
2,163320, Control_c, 0, 64, 59
2,163338, Control_c, 0, 64, 54
2,163358, Control_c, 0, 64, 48
2,163379, Control_c, 0, 64, 40
2,163399, Control_c, 0, 64, 34
2,163417, Control_c, 0, 64, 29
2,163434, Control_c, 0, 64, 28
2,163492, Control_c, 0, 64, 27
2,163648, Control_c, 0, 64, 28
2,163698, Note_on_c, 0, 59, 0
2,163763, Note_on_c, 0, 57, 35
2,163800, Control_c, 0, 64, 27
2,163819, Control_c, 0, 64, 26
2,163837, Control_c, 0, 64, 25
2,163858, Control_c, 0, 64, 24
2,163878, Control_c, 0, 64, 23
2,163921, Note_on_c, 0, 57, 0
2,163970, Note_on_c, 0, 59, 39
2,164134, Note_on_c, 0, 59, 0
2,164197, Note_on_c, 0, 80, 65
2,164213, Note_on_c, 0, 60, 38
2,164295, Note_on_c, 0, 79, 0
2,164368, Note_on_c, 0, 60, 0
2,164434, Note_on_c, 0, 59, 35
2,164591, Control_c, 0, 64, 26
2,164609, Control_c, 0, 64, 33
2,164620, Note_on_c, 0, 59, 0
2,164625, Control_c, 0, 64, 44
2,164629, Note_on_c, 0, 72, 50
2,164648, Control_c, 0, 64, 55
2,164665, Control_c, 0, 64, 61
2,164669, Note_on_c, 0, 60, 40
2,164684, Control_c, 0, 64, 63
2,164702, Control_c, 0, 64, 65
2,164722, Control_c, 0, 64, 71
2,164741, Control_c, 0, 64, 85
2,164749, Note_on_c, 0, 80, 0
2,164761, Control_c, 0, 64, 127
2,164765, Note_on_c, 0, 60, 0
2,164853, Note_on_c, 0, 62, 42
2,165028, Note_on_c, 0, 62, 0
2,165086, Control_c, 0, 64, 103
2,165095, Note_on_c, 0, 63, 42
2,165095, Note_on_c, 0, 79, 58
2,165106, Control_c, 0, 64, 78
2,165126, Control_c, 0, 64, 65
2,165144, Control_c, 0, 64, 57
2,165164, Control_c, 0, 64, 51
2,165182, Control_c, 0, 64, 47
2,165202, Control_c, 0, 64, 45
2,165220, Control_c, 0, 64, 43
2,165241, Control_c, 0, 64, 42
2,165259, Control_c, 0, 64, 41
2,165297, Control_c, 0, 64, 40
2,165336, Control_c, 0, 64, 39
2,165526, Note_on_c, 0, 70, 51
2,165576, Note_on_c, 0, 72, 0
2,165629, Note_on_c, 0, 70, 0
2,165987, Note_on_c, 0, 78, 62
2,165999, Note_on_c, 0, 69, 36
2,166074, Note_on_c, 0, 79, 0
2,166145, Note_on_c, 0, 63, 0
2,166203, Note_on_c, 0, 60, 45
2,166358, Control_c, 0, 64, 42
2,166377, Control_c, 0, 64, 47
2,166377, Note_on_c, 0, 60, 0
2,166386, Note_on_c, 0, 69, 0
2,166393, Control_c, 0, 64, 55
2,166411, Control_c, 0, 64, 60
2,166418, Note_on_c, 0, 62, 43
2,166424, Note_on_c, 0, 70, 53
2,166431, Control_c, 0, 64, 62
2,166450, Control_c, 0, 64, 63
2,166468, Control_c, 0, 64, 65
2,166488, Control_c, 0, 64, 68
2,166510, Control_c, 0, 64, 72
2,166526, Control_c, 0, 64, 78
2,166530, Note_on_c, 0, 70, 0
2,166546, Control_c, 0, 64, 86
2,166551, Note_on_c, 0, 78, 0
2,166565, Control_c, 0, 64, 90
2,166585, Control_c, 0, 64, 92
2,166587, Note_on_c, 0, 62, 0
2,166631, Note_on_c, 0, 72, 55
2,166635, Note_on_c, 0, 63, 53
2,166641, Control_c, 0, 64, 93
2,166660, Control_c, 0, 64, 94
2,166699, Control_c, 0, 64, 95
2,166720, Control_c, 0, 64, 96
2,166738, Control_c, 0, 64, 97
2,166756, Control_c, 0, 64, 98
2,166796, Control_c, 0, 64, 86
2,166803, Note_on_c, 0, 63, 0
2,166814, Control_c, 0, 64, 69
2,166821, Note_on_c, 0, 72, 0
2,166836, Control_c, 0, 64, 56
2,166853, Control_c, 0, 64, 36
2,166873, Control_c, 0, 64, 28
2,166877, Note_on_c, 0, 83, 69
2,166884, Note_on_c, 0, 74, 56
2,166891, Note_on_c, 0, 65, 42
2,166895, Control_c, 0, 64, 34
2,166911, Control_c, 0, 64, 43
2,166930, Control_c, 0, 64, 53
2,166952, Control_c, 0, 64, 60
2,166968, Control_c, 0, 64, 63
2,166987, Control_c, 0, 64, 65
2,166999, Note_on_c, 0, 65, 0
2,167006, Control_c, 0, 64, 68
2,167026, Control_c, 0, 64, 70
2,167046, Control_c, 0, 64, 74
2,167046, Note_on_c, 0, 74, 0
2,167063, Control_c, 0, 64, 77
2,167083, Control_c, 0, 64, 78
2,167096, Note_on_c, 0, 72, 56
2,167160, Control_c, 0, 64, 76
2,167178, Control_c, 0, 64, 73
2,167199, Control_c, 0, 64, 68
2,167220, Control_c, 0, 64, 63
2,167236, Control_c, 0, 64, 59
2,167257, Control_c, 0, 64, 57
2,167275, Control_c, 0, 64, 55
2,167294, Control_c, 0, 64, 53
2,167315, Control_c, 0, 64, 51
2,167321, Note_on_c, 0, 71, 48
2,167335, Control_c, 0, 64, 49
2,167335, Note_on_c, 0, 72, 0
2,167352, Control_c, 0, 64, 47
2,167393, Control_c, 0, 64, 46
2,167409, Control_c, 0, 64, 45
2,167428, Control_c, 0, 64, 43
2,167449, Control_c, 0, 64, 42
2,167475, Note_on_c, 0, 71, 0
2,167518, Note_on_c, 0, 69, 43
2,167620, Control_c, 0, 64, 41
2,167703, Note_on_c, 0, 69, 0
2,167756, Note_on_c, 0, 84, 72
2,167801, Note_on_c, 0, 67, 47
2,167857, Note_on_c, 0, 83, 0
2,167933, Note_on_c, 0, 67, 0
2,167973, Note_on_c, 0, 63, 51
2,168142, Note_on_c, 0, 63, 0
2,168194, Note_on_c, 0, 65, 51
2,168349, Control_c, 0, 64, 40
2,168368, Control_c, 0, 64, 39
2,168390, Control_c, 0, 64, 38
2,168390, Note_on_c, 0, 65, 0
2,168408, Control_c, 0, 64, 37
2,168420, Note_on_c, 0, 67, 55
2,168429, Control_c, 0, 64, 36
2,168466, Control_c, 0, 64, 35
2,168486, Control_c, 0, 64, 34
2,168503, Control_c, 0, 64, 33
2,168524, Control_c, 0, 64, 32
2,168562, Control_c, 0, 64, 31
2,168578, Note_on_c, 0, 67, 0
2,168602, Control_c, 0, 64, 30
2,168619, Control_c, 0, 64, 29
2,168648, Note_on_c, 0, 77, 62
2,168653, Note_on_c, 0, 68, 55
2,168657, Control_c, 0, 64, 28
2,168697, Control_c, 0, 64, 27
2,168701, Note_on_c, 0, 84, 0
2,168773, Note_on_c, 0, 68, 0
2,168777, Control_c, 0, 64, 31
2,168792, Control_c, 0, 64, 38
2,168810, Control_c, 0, 64, 48
2,168830, Control_c, 0, 64, 57
2,168851, Control_c, 0, 64, 61
2,168860, Note_on_c, 0, 55, 47
2,168869, Control_c, 0, 64, 62
2,168889, Control_c, 0, 64, 63
2,168907, Control_c, 0, 64, 65
2,168926, Control_c, 0, 64, 69
2,168946, Control_c, 0, 64, 79
2,168966, Control_c, 0, 64, 97
2,168985, Control_c, 0, 64, 120
2,168998, Note_on_c, 0, 77, 0
2,169002, Control_c, 0, 64, 127
2,169039, Note_on_c, 0, 55, 0
2,169083, Note_on_c, 0, 56, 53
2,169246, Note_on_c, 0, 56, 0
2,169291, Note_on_c, 0, 58, 55
2,169494, Note_on_c, 0, 58, 0
2,169503, Control_c, 0, 64, 88
2,169519, Note_on_c, 0, 76, 70
2,169521, Control_c, 0, 64, 70
2,169537, Note_on_c, 0, 60, 48
2,169541, Control_c, 0, 64, 61
2,169563, Control_c, 0, 64, 54
2,169580, Control_c, 0, 64, 48
2,169600, Control_c, 0, 64, 44
2,169617, Control_c, 0, 64, 40
2,169637, Control_c, 0, 64, 38
2,169657, Control_c, 0, 64, 35
2,169675, Control_c, 0, 64, 34
2,169713, Control_c, 0, 64, 33
2,169740, Note_on_c, 0, 67, 49
2,169912, Note_on_c, 0, 67, 0
2,169925, Control_c, 0, 64, 35
2,169942, Control_c, 0, 64, 37
2,169951, Note_on_c, 0, 69, 44
2,169964, Control_c, 0, 64, 42
2,169984, Control_c, 0, 64, 48
2,170002, Control_c, 0, 64, 54
2,170019, Control_c, 0, 64, 58
2,170039, Control_c, 0, 64, 60
2,170059, Control_c, 0, 64, 62
2,170077, Control_c, 0, 64, 63
2,170093, Note_on_c, 0, 69, 0
2,170097, Control_c, 0, 64, 65
2,170115, Control_c, 0, 64, 68
2,170135, Control_c, 0, 64, 73
2,170148, Note_on_c, 0, 71, 60
2,170155, Control_c, 0, 64, 82
2,170166, Note_on_c, 0, 60, 0
2,170175, Control_c, 0, 64, 87
2,170194, Control_c, 0, 64, 90
2,170217, Control_c, 0, 64, 92
2,170231, Control_c, 0, 64, 96
2,170250, Control_c, 0, 64, 101
2,170270, Control_c, 0, 64, 106
2,170293, Control_c, 0, 64, 115
2,170308, Control_c, 0, 64, 127
2,170386, Control_c, 0, 64, 103
2,170405, Note_on_c, 0, 71, 0
2,170405, Note_on_c, 0, 75, 63
2,170406, Control_c, 0, 64, 87
2,170411, Note_on_c, 0, 72, 60
2,170425, Control_c, 0, 64, 71
2,170444, Control_c, 0, 64, 63
2,170444, Note_on_c, 0, 76, 0
2,170460, Control_c, 0, 64, 57
2,170480, Control_c, 0, 64, 52
2,170500, Control_c, 0, 64, 47
2,170520, Control_c, 0, 64, 41
2,170537, Control_c, 0, 64, 34
2,170558, Control_c, 0, 64, 28
2,170577, Control_c, 0, 64, 27
2,170621, Note_on_c, 0, 60, 39
2,170636, Control_c, 0, 64, 28
2,170656, Control_c, 0, 64, 29
2,170673, Control_c, 0, 64, 33
2,170693, Control_c, 0, 64, 40
2,170711, Control_c, 0, 64, 49
2,170731, Control_c, 0, 64, 56
2,170749, Control_c, 0, 64, 60
2,170768, Control_c, 0, 64, 62
2,170782, Note_on_c, 0, 60, 0
2,170790, Control_c, 0, 64, 64
2,170808, Control_c, 0, 64, 65
2,170827, Control_c, 0, 64, 68
2,170839, Note_on_c, 0, 62, 37
2,170848, Control_c, 0, 64, 74
2,170865, Control_c, 0, 64, 84
2,170872, Note_on_c, 0, 75, 0
2,170885, Control_c, 0, 64, 93
2,170904, Control_c, 0, 64, 98
2,170925, Control_c, 0, 64, 103
2,170942, Control_c, 0, 64, 111
2,170964, Control_c, 0, 64, 127
2,171004, Note_on_c, 0, 62, 0
2,171049, Note_on_c, 0, 63, 49
2,171225, Note_on_c, 0, 63, 0
2,171305, Note_on_c, 0, 74, 62
2,171310, Note_on_c, 0, 65, 38
2,171310, Note_on_c, 0, 72, 0
2,171329, Control_c, 0, 64, 115
2,171344, Control_c, 0, 64, 92
2,171365, Control_c, 0, 64, 76
2,171383, Control_c, 0, 64, 66
2,171403, Control_c, 0, 64, 59
2,171421, Control_c, 0, 64, 54
2,171440, Control_c, 0, 64, 51
2,171461, Control_c, 0, 64, 49
2,171479, Control_c, 0, 64, 47
2,171495, Note_on_c, 0, 65, 0
2,171499, Control_c, 0, 64, 46
2,171510, Note_on_c, 0, 62, 50
2,171519, Control_c, 0, 64, 44
2,171557, Control_c, 0, 64, 43
2,171575, Control_c, 0, 64, 42
2,171597, Control_c, 0, 64, 40
2,171613, Control_c, 0, 64, 39
2,171670, Note_on_c, 0, 62, 0
2,171720, Note_on_c, 0, 63, 45
2,171731, Control_c, 0, 64, 38
2,171747, Note_on_c, 0, 71, 49
2,171768, Control_c, 0, 64, 37
2,171807, Control_c, 0, 64, 36
2,171894, Note_on_c, 0, 71, 0
2,171916, Note_on_c, 0, 63, 0
2,171921, Control_c, 0, 64, 35
2,171935, Note_on_c, 0, 65, 51
2,171935, Note_on_c, 0, 69, 50
2,171978, Control_c, 0, 64, 34
2,172089, Note_on_c, 0, 65, 0
2,172121, Note_on_c, 0, 69, 0
2,172132, Control_c, 0, 64, 33
2,172145, Note_on_c, 0, 67, 49
2,172145, Note_on_c, 0, 71, 51
2,172304, Note_on_c, 0, 67, 0
2,172304, Note_on_c, 0, 71, 0
2,172326, Control_c, 0, 64, 32
2,172342, Note_on_c, 0, 68, 55
2,172348, Note_on_c, 0, 72, 55
2,172505, Note_on_c, 0, 68, 0
2,172543, Note_on_c, 0, 74, 0
2,172552, Note_on_c, 0, 72, 0
2,172569, Note_on_c, 0, 71, 56
2,172572, Note_on_c, 0, 67, 46
2,172717, Note_on_c, 0, 67, 0
2,172739, Note_on_c, 0, 71, 0
2,172760, Note_on_c, 0, 74, 53
2,172769, Note_on_c, 0, 65, 44
2,172933, Note_on_c, 0, 65, 0
2,172951, Note_on_c, 0, 74, 0
2,172991, Note_on_c, 0, 67, 44
2,172996, Note_on_c, 0, 63, 44
2,173136, Note_on_c, 0, 63, 0
2,173258, Note_on_c, 0, 65, 25
2,173401, Note_on_c, 0, 65, 0
2,173407, Note_on_c, 0, 72, 55
2,173430, Note_on_c, 0, 63, 33
2,173497, Note_on_c, 0, 67, 0
2,173599, Note_on_c, 0, 63, 0
2,173614, Note_on_c, 0, 74, 59
2,173623, Note_on_c, 0, 72, 0
2,173632, Control_c, 0, 64, 33
2,173637, Note_on_c, 0, 62, 42
2,173822, Control_c, 0, 64, 35
2,173831, Note_on_c, 0, 62, 0
2,173844, Control_c, 0, 64, 39
2,173861, Control_c, 0, 64, 48
2,173880, Control_c, 0, 64, 57
2,173887, Note_on_c, 0, 74, 0
2,173891, Note_on_c, 0, 60, 40
2,173900, Control_c, 0, 64, 61
2,173906, Note_on_c, 0, 75, 53
2,173918, Control_c, 0, 64, 63
2,173938, Control_c, 0, 64, 65
2,173956, Control_c, 0, 64, 67
2,173972, Note_on_c, 0, 60, 0
2,173975, Control_c, 0, 64, 73
2,173996, Control_c, 0, 64, 88
2,174013, Control_c, 0, 64, 127
2,174264, Control_c, 0, 64, 110
2,174282, Control_c, 0, 64, 77
2,174300, Note_on_c, 0, 67, 52
2,174304, Control_c, 0, 64, 64
2,174313, Note_on_c, 0, 60, 49
2,174321, Control_c, 0, 64, 53
2,174340, Control_c, 0, 64, 40
2,174360, Control_c, 0, 64, 20
2,174379, Control_c, 0, 64, 0
2,174379, Note_on_c, 0, 67, 0
2,174478, Note_on_c, 0, 60, 0
2,174522, Note_on_c, 0, 58, 55
2,174718, Note_on_c, 0, 58, 0
2,174765, Control_c, 0, 64, 35
2,174765, Note_on_c, 0, 57, 55
2,174769, Note_on_c, 0, 60, 50
2,174782, Control_c, 0, 64, 51
2,174802, Control_c, 0, 64, 62
2,174822, Control_c, 0, 64, 66
2,174840, Control_c, 0, 64, 72
2,174858, Control_c, 0, 64, 81
2,174878, Control_c, 0, 64, 96
2,174898, Control_c, 0, 64, 127
2,174918, Note_on_c, 0, 57, 0
2,174918, Note_on_c, 0, 60, 0
2,175147, Control_c, 0, 64, 97
2,175167, Control_c, 0, 64, 72
2,175171, Note_on_c, 0, 72, 58
2,175184, Control_c, 0, 64, 60
2,175188, Note_on_c, 0, 57, 48
2,175204, Control_c, 0, 64, 48
2,175226, Control_c, 0, 64, 34
2,175243, Control_c, 0, 64, 17
2,175261, Control_c, 0, 64, 0
2,175362, Note_on_c, 0, 57, 0
2,175387, Note_on_c, 0, 70, 59
2,175399, Note_on_c, 0, 55, 52
2,175460, Note_on_c, 0, 72, 0
2,175606, Note_on_c, 0, 55, 0
2,175619, Note_on_c, 0, 70, 0
2,175647, Note_on_c, 0, 69, 52
2,175653, Note_on_c, 0, 53, 49
2,176038, Note_on_c, 0, 53, 0
2,176048, Note_on_c, 0, 69, 0
2,176059, Note_on_c, 0, 70, 54
2,176070, Note_on_c, 0, 55, 49
2,176219, Note_on_c, 0, 55, 0
2,176224, Note_on_c, 0, 70, 0
2,176260, Note_on_c, 0, 57, 53
2,176269, Note_on_c, 0, 72, 55
2,176370, Note_on_c, 0, 75, 0
2,176432, Control_c, 0, 64, 11
2,176447, Note_on_c, 0, 72, 0
2,176452, Control_c, 0, 64, 38
2,176474, Control_c, 0, 64, 53
2,176474, Note_on_c, 0, 57, 0
2,176492, Control_c, 0, 64, 62
2,176510, Note_on_c, 0, 58, 47
2,176515, Control_c, 0, 64, 65
2,176520, Note_on_c, 0, 65, 48
2,176528, Control_c, 0, 64, 68
2,176548, Control_c, 0, 64, 78
2,176568, Control_c, 0, 64, 106
2,176579, Note_on_c, 0, 65, 0
2,176589, Control_c, 0, 64, 127
2,176589, Note_on_c, 0, 58, 0
2,176895, Control_c, 0, 64, 104
2,176906, Note_on_c, 0, 70, 64
2,176910, Note_on_c, 0, 65, 47
2,176910, Note_on_c, 0, 74, 67
2,176915, Control_c, 0, 64, 77
2,176932, Control_c, 0, 64, 64
2,176952, Control_c, 0, 64, 54
2,176971, Control_c, 0, 64, 46
2,176989, Control_c, 0, 64, 43
2,177009, Control_c, 0, 64, 39
2,177028, Control_c, 0, 64, 32
2,177046, Control_c, 0, 64, 23
2,177068, Control_c, 0, 64, 14
2,177085, Control_c, 0, 64, 9
2,177096, Note_on_c, 0, 65, 0
2,177105, Control_c, 0, 64, 0
2,177116, Note_on_c, 0, 75, 75
2,177121, Note_on_c, 0, 63, 53
2,177185, Note_on_c, 0, 74, 0
2,177333, Note_on_c, 0, 63, 0
2,177364, Note_on_c, 0, 62, 53
2,177369, Note_on_c, 0, 77, 79
2,177392, Control_c, 0, 64, 31
2,177403, Note_on_c, 0, 70, 0
2,177412, Control_c, 0, 64, 52
2,177431, Control_c, 0, 64, 63
2,177446, Note_on_c, 0, 75, 0
2,177453, Control_c, 0, 64, 69
2,177468, Control_c, 0, 64, 78
2,177490, Control_c, 0, 64, 94
2,177505, Note_on_c, 0, 62, 0
2,177509, Control_c, 0, 64, 127
2,177721, Control_c, 0, 64, 88
2,177738, Control_c, 0, 64, 65
2,177761, Control_c, 0, 64, 45
2,177778, Control_c, 0, 64, 0
2,177799, Note_on_c, 0, 68, 66
2,177806, Note_on_c, 0, 62, 50
2,177877, Note_on_c, 0, 68, 0
2,177955, Note_on_c, 0, 62, 0
2,178002, Note_on_c, 0, 60, 65
2,178204, Note_on_c, 0, 60, 0
2,178217, Note_on_c, 0, 67, 62
2,178219, Note_on_c, 0, 59, 56
2,178238, Control_c, 0, 64, 19
2,178258, Control_c, 0, 64, 43
2,178275, Control_c, 0, 64, 57
2,178296, Control_c, 0, 64, 63
2,178316, Control_c, 0, 64, 66
2,178334, Control_c, 0, 64, 70
2,178353, Control_c, 0, 64, 79
2,178358, Note_on_c, 0, 67, 0
2,178362, Note_on_c, 0, 59, 0
2,178373, Control_c, 0, 64, 94
2,178391, Control_c, 0, 64, 127
2,178653, Note_on_c, 0, 59, 59
2,178662, Note_on_c, 0, 74, 71
2,178666, Control_c, 0, 64, 89
2,178681, Control_c, 0, 64, 69
2,178699, Control_c, 0, 64, 60
2,178717, Control_c, 0, 64, 52
2,178737, Control_c, 0, 64, 46
2,178755, Control_c, 0, 64, 43
2,178775, Control_c, 0, 64, 38
2,178795, Control_c, 0, 64, 33
2,178815, Control_c, 0, 64, 29
2,178833, Control_c, 0, 64, 26
2,178850, Note_on_c, 0, 59, 0
2,178855, Control_c, 0, 64, 25
2,178869, Note_on_c, 0, 57, 68
2,178874, Control_c, 0, 64, 23
2,178874, Note_on_c, 0, 72, 71
2,178894, Control_c, 0, 64, 22
2,178911, Control_c, 0, 64, 20
2,179060, Note_on_c, 0, 74, 0
2,179098, Note_on_c, 0, 57, 0
2,179102, Control_c, 0, 64, 19
2,179120, Note_on_c, 0, 55, 60
2,179125, Note_on_c, 0, 71, 64
2,179125, Note_on_c, 0, 72, 0
2,179141, Control_c, 0, 64, 18
2,179236, Control_c, 0, 64, 17
2,179256, Control_c, 0, 64, 16
2,179274, Control_c, 0, 64, 15
2,179294, Control_c, 0, 64, 13
2,179314, Control_c, 0, 64, 12
2,179332, Control_c, 0, 64, 11
2,179352, Control_c, 0, 64, 10
2,179374, Control_c, 0, 64, 8
2,179391, Control_c, 0, 64, 0
2,179524, Note_on_c, 0, 55, 0
2,179533, Note_on_c, 0, 57, 60
2,179543, Note_on_c, 0, 72, 66
2,179551, Note_on_c, 0, 71, 0
2,179733, Note_on_c, 0, 57, 0
2,179741, Note_on_c, 0, 74, 67
2,179745, Note_on_c, 0, 59, 59
2,179774, Note_on_c, 0, 72, 0
2,179800, Note_on_c, 0, 77, 0
2,179921, Note_on_c, 0, 74, 0
2,179950, Note_on_c, 0, 59, 0
2,179967, Note_on_c, 0, 67, 68
2,179985, Note_on_c, 0, 60, 55
2,180162, Note_on_c, 0, 74, 82
2,180199, Note_on_c, 0, 67, 0
2,180331, Control_c, 0, 64, 13
2,180351, Control_c, 0, 64, 28
2,180351, Note_on_c, 0, 60, 0
2,180367, Note_on_c, 0, 58, 63
2,180367, Note_on_c, 0, 76, 84
2,180369, Control_c, 0, 64, 42
2,180390, Control_c, 0, 64, 52
2,180403, Note_on_c, 0, 74, 0
2,180409, Control_c, 0, 64, 59
2,180429, Control_c, 0, 64, 62
2,180446, Control_c, 0, 64, 64
2,180466, Control_c, 0, 64, 67
2,180484, Control_c, 0, 64, 76
2,180502, Control_c, 0, 64, 100
2,180524, Control_c, 0, 64, 127
2,180562, Note_on_c, 0, 58, 0
2,180569, Note_on_c, 0, 56, 68
2,180569, Note_on_c, 0, 79, 87
2,180590, Note_on_c, 0, 76, 0
2,180631, Note_on_c, 0, 79, 0
2,180790, Control_c, 0, 64, 88
2,180808, Note_on_c, 0, 56, 0
2,180812, Control_c, 0, 64, 61
2,180831, Control_c, 0, 64, 33
2,180835, Note_on_c, 0, 55, 68
2,180835, Note_on_c, 0, 70, 84
2,180851, Control_c, 0, 64, 0
2,180871, Control_c, 0, 64, 27
2,180886, Control_c, 0, 64, 47
2,180908, Control_c, 0, 64, 60
2,180925, Control_c, 0, 64, 67
2,180947, Control_c, 0, 64, 75
2,180965, Control_c, 0, 64, 91
2,180982, Control_c, 0, 64, 127
2,181015, Note_on_c, 0, 55, 0
2,181214, Control_c, 0, 64, 93
2,181232, Control_c, 0, 64, 66
2,181251, Control_c, 0, 64, 51
2,181258, Note_on_c, 0, 55, 67
2,181269, Note_on_c, 0, 61, 78
2,181271, Control_c, 0, 64, 28
2,181291, Control_c, 0, 64, 0
2,181384, Note_on_c, 0, 61, 0
2,181434, Note_on_c, 0, 55, 0
2,181457, Note_on_c, 0, 53, 77
2,181695, Note_on_c, 0, 52, 67
2,181703, Note_on_c, 0, 53, 0
2,181708, Note_on_c, 0, 60, 75
2,181717, Control_c, 0, 64, 20
2,181735, Control_c, 0, 64, 51
2,181753, Control_c, 0, 64, 62
2,181777, Control_c, 0, 64, 67
2,181796, Control_c, 0, 64, 76
2,181816, Control_c, 0, 64, 96
2,181832, Control_c, 0, 64, 127
2,181836, Note_on_c, 0, 60, 0
2,181843, Note_on_c, 0, 52, 0
2,182121, Control_c, 0, 64, 94
2,182140, Note_on_c, 0, 52, 71
2,182144, Control_c, 0, 64, 66
2,182148, Note_on_c, 0, 67, 70
2,182160, Control_c, 0, 64, 55
2,182177, Control_c, 0, 64, 45
2,182197, Control_c, 0, 64, 36
2,182219, Control_c, 0, 64, 27
2,182239, Control_c, 0, 64, 12
2,182255, Control_c, 0, 64, 0
2,182349, Note_on_c, 0, 52, 0
2,182360, Note_on_c, 0, 50, 74
2,182360, Note_on_c, 0, 65, 72
2,182493, Note_on_c, 0, 67, 0
2,182584, Note_on_c, 0, 50, 0
2,182594, Note_on_c, 0, 48, 67
2,182599, Note_on_c, 0, 64, 78
2,182603, Note_on_c, 0, 65, 0
2,183009, Note_on_c, 0, 50, 70
2,183022, Note_on_c, 0, 65, 67
2,183036, Note_on_c, 0, 48, 0
2,183036, Note_on_c, 0, 64, 0
2,183225, Note_on_c, 0, 52, 77
2,183225, Note_on_c, 0, 67, 68
2,183230, Note_on_c, 0, 50, 0
2,183271, Note_on_c, 0, 65, 0
2,183408, Note_on_c, 0, 67, 0
2,183419, Note_on_c, 0, 52, 0
2,183448, Note_on_c, 0, 53, 71
2,183463, Note_on_c, 0, 60, 65
2,183635, Note_on_c, 0, 53, 0
2,183664, Note_on_c, 0, 55, 78
2,183895, Note_on_c, 0, 56, 77
2,183906, Note_on_c, 0, 65, 66
2,183906, Note_on_c, 0, 68, 73
2,183919, Note_on_c, 0, 60, 0
2,183928, Control_c, 0, 64, 25
2,183928, Note_on_c, 0, 55, 0
2,183944, Control_c, 0, 64, 57
2,183967, Control_c, 0, 64, 71
2,183986, Control_c, 0, 64, 97
2,184004, Control_c, 0, 64, 127
2,184004, Note_on_c, 0, 70, 0
2,184094, Note_on_c, 0, 58, 76
2,184109, Note_on_c, 0, 56, 0
2,184143, Note_on_c, 0, 58, 0
2,184156, Note_on_c, 0, 68, 0
2,184408, Control_c, 0, 64, 85
2,184408, Note_on_c, 0, 65, 0
2,184426, Control_c, 0, 64, 62
2,184439, Note_on_c, 0, 60, 88
2,184444, Control_c, 0, 64, 43
2,184449, Note_on_c, 0, 48, 81
2,184457, Note_on_c, 0, 67, 62
2,184464, Control_c, 0, 64, 0
2,184676, Control_c, 0, 64, 25
2,184693, Control_c, 0, 64, 50
2,184714, Control_c, 0, 64, 63
2,184732, Control_c, 0, 64, 70
2,184751, Control_c, 0, 64, 89
2,184773, Control_c, 0, 64, 127
2,184805, Note_on_c, 0, 48, 0
2,184887, Note_on_c, 0, 67, 0
2,184918, Note_on_c, 0, 64, 64
2,185347, Control_c, 0, 64, 66
2,185367, Control_c, 0, 64, 37
2,185367, Note_on_c, 0, 49, 86
2,185384, Control_c, 0, 64, 0
2,185390, Note_on_c, 0, 65, 65
2,185395, Note_on_c, 0, 64, 0
2,185484, Control_c, 0, 64, 22
2,185504, Control_c, 0, 64, 47
2,185522, Control_c, 0, 64, 60
2,185542, Control_c, 0, 64, 65
2,185550, Note_on_c, 0, 60, 0
2,185562, Control_c, 0, 64, 68
2,185585, Control_c, 0, 64, 75
2,185585, Note_on_c, 0, 65, 0
2,185601, Control_c, 0, 64, 85
2,185605, Note_on_c, 0, 64, 62
2,185619, Control_c, 0, 64, 106
2,185637, Control_c, 0, 64, 127
2,185818, Note_on_c, 0, 58, 66
2,185835, Note_on_c, 0, 65, 61
2,185872, Note_on_c, 0, 49, 0
2,185974, Note_on_c, 0, 64, 0
2,186004, Note_on_c, 0, 65, 0
2,186024, Note_on_c, 0, 67, 63
2,186234, Control_c, 0, 64, 113
2,186250, Note_on_c, 0, 48, 81
2,186254, Control_c, 0, 64, 71
2,186258, Note_on_c, 0, 68, 71
2,186272, Note_on_c, 0, 67, 0
2,186276, Control_c, 0, 64, 53
2,186276, Note_on_c, 0, 58, 0
2,186293, Control_c, 0, 64, 36
2,186311, Control_c, 0, 64, 0
2,186451, Note_on_c, 0, 67, 57
2,186694, Control_c, 0, 64, 54
2,186694, Note_on_c, 0, 56, 60
2,186698, Note_on_c, 0, 65, 55
2,186707, Note_on_c, 0, 68, 0
2,186709, Control_c, 0, 64, 65
2,186709, Note_on_c, 0, 68, 9
2,186729, Control_c, 0, 64, 72
2,186749, Control_c, 0, 64, 87
2,186767, Control_c, 0, 64, 127
2,186838, Note_on_c, 0, 48, 0
2,186849, Note_on_c, 0, 65, 0
2,186887, Note_on_c, 0, 63, 56
2,186972, Note_on_c, 0, 56, 0
2,187029, Note_on_c, 0, 68, 0
2,187088, Note_on_c, 0, 63, 0
2,187121, Note_on_c, 0, 47, 77
2,187126, Note_on_c, 0, 62, 63
2,187145, Note_on_c, 0, 67, 0
2,187155, Control_c, 0, 64, 75
2,187171, Control_c, 0, 64, 60
2,187188, Control_c, 0, 64, 43
2,187209, Control_c, 0, 64, 0
2,187338, Note_on_c, 0, 65, 56
2,187554, Control_c, 0, 64, 15
2,187571, Note_on_c, 0, 67, 60
2,187575, Control_c, 0, 64, 53
2,187580, Note_on_c, 0, 55, 65
2,187594, Control_c, 0, 64, 62
2,187612, Control_c, 0, 64, 66
2,187632, Control_c, 0, 64, 72
2,187652, Control_c, 0, 64, 84
2,187670, Control_c, 0, 64, 116
2,187690, Control_c, 0, 64, 127
2,187751, Note_on_c, 0, 47, 0
2,187753, Note_on_c, 0, 53, 72
2,187802, Note_on_c, 0, 68, 66
2,187832, Note_on_c, 0, 65, 0
2,187836, Note_on_c, 0, 53, 0
2,187885, Note_on_c, 0, 67, 0
2,187952, Note_on_c, 0, 62, 0
2,188011, Note_on_c, 0, 55, 0
2,188014, Note_on_c, 0, 55, 24
2,188018, Control_c, 0, 64, 97
2,188018, Note_on_c, 0, 52, 86
2,188035, Control_c, 0, 64, 67
2,188039, Note_on_c, 0, 70, 76
2,188056, Control_c, 0, 64, 54
2,188075, Control_c, 0, 64, 46
2,188093, Control_c, 0, 64, 42
2,188110, Control_c, 0, 64, 41
2,188124, Note_on_c, 0, 68, 0
2,188150, Control_c, 0, 64, 40
2,188202, Note_on_c, 0, 55, 0
2,188211, Note_on_c, 0, 58, 78
2,188247, Control_c, 0, 64, 39
2,188266, Control_c, 0, 64, 38
2,188285, Control_c, 0, 64, 36
2,188322, Control_c, 0, 64, 35
2,188399, Control_c, 0, 64, 34
2,188420, Control_c, 0, 64, 33
2,188438, Control_c, 0, 64, 32
2,188447, Note_on_c, 0, 56, 74
2,188447, Note_on_c, 0, 61, 66
2,188460, Control_c, 0, 64, 30
2,188477, Control_c, 0, 64, 29
2,188488, Note_on_c, 0, 58, 0
2,188613, Control_c, 0, 64, 28
2,188613, Note_on_c, 0, 56, 0
2,188654, Note_on_c, 0, 55, 75
2,188841, Control_c, 0, 64, 27
2,188870, Note_on_c, 0, 55, 0
2,188906, Note_on_c, 0, 53, 93
2,189002, Note_on_c, 0, 52, 0
2,189016, Note_on_c, 0, 61, 0
2,189111, Note_on_c, 0, 68, 81
2,189115, Note_on_c, 0, 70, 0
2,189185, Control_c, 0, 64, 26
2,189206, Control_c, 0, 64, 25
2,189262, Control_c, 0, 64, 29
2,189282, Control_c, 0, 64, 38
2,189302, Control_c, 0, 64, 52
2,189322, Note_on_c, 0, 60, 73
2,189326, Control_c, 0, 64, 61
2,189326, Note_on_c, 0, 70, 76
2,189330, Note_on_c, 0, 55, 66
2,189340, Control_c, 0, 64, 66
2,189359, Control_c, 0, 64, 73
2,189382, Control_c, 0, 64, 94
2,189399, Control_c, 0, 64, 127
2,189399, Note_on_c, 0, 60, 0
2,189482, Note_on_c, 0, 55, 0
2,189493, Note_on_c, 0, 53, 0
2,189500, Note_on_c, 0, 56, 78
2,189514, Note_on_c, 0, 72, 79
2,189519, Note_on_c, 0, 68, 0
2,189557, Note_on_c, 0, 56, 0
2,189557, Note_on_c, 0, 70, 0
2,189764, Control_c, 0, 64, 80
2,189778, Note_on_c, 0, 46, 79
2,189778, Note_on_c, 0, 58, 83
2,189784, Control_c, 0, 64, 59
2,189784, Note_on_c, 0, 73, 81
2,189802, Control_c, 0, 64, 32
2,189817, Note_on_c, 0, 72, 0
2,189822, Control_c, 0, 64, 0
2,189966, Note_on_c, 0, 53, 75
2,189990, Note_on_c, 0, 58, 0
2,190185, Control_c, 0, 64, 31
2,190189, Note_on_c, 0, 51, 83
2,190202, Note_on_c, 0, 66, 77
2,190206, Control_c, 0, 64, 56
2,190227, Control_c, 0, 64, 67
2,190233, Note_on_c, 0, 53, 0
2,190246, Control_c, 0, 64, 83
2,190262, Control_c, 0, 64, 127
2,190320, Note_on_c, 0, 73, 0
2,190377, Note_on_c, 0, 49, 66
2,190396, Note_on_c, 0, 51, 0
2,190445, Note_on_c, 0, 49, 0
2,190456, Note_on_c, 0, 46, 0
2,190635, Note_on_c, 0, 48, 80
2,190648, Note_on_c, 0, 45, 76
2,190666, Control_c, 0, 64, 83
2,190678, Note_on_c, 0, 66, 0
2,190686, Control_c, 0, 64, 61
2,190706, Control_c, 0, 64, 43
2,190722, Control_c, 0, 64, 13
2,190743, Control_c, 0, 64, 0
2,190842, Note_on_c, 0, 72, 82
2,191076, Note_on_c, 0, 65, 74
2,191080, Note_on_c, 0, 74, 82
2,191089, Control_c, 0, 64, 40
2,191107, Control_c, 0, 64, 64
2,191123, Note_on_c, 0, 72, 0
2,191127, Control_c, 0, 64, 79
2,191147, Control_c, 0, 64, 127
2,191194, Note_on_c, 0, 45, 0
2,191292, Note_on_c, 0, 76, 84
2,191332, Note_on_c, 0, 74, 0
2,191345, Note_on_c, 0, 65, 0
2,191523, Note_on_c, 0, 44, 87
2,191529, Control_c, 0, 64, 70
2,191536, Note_on_c, 0, 48, 0
2,191539, Note_on_c, 0, 77, 88
2,191549, Control_c, 0, 64, 46
2,191566, Control_c, 0, 64, 0
2,191577, Note_on_c, 0, 76, 0
2,191758, Note_on_c, 0, 50, 68
2,191763, Control_c, 0, 64, 62
2,191774, Note_on_c, 0, 65, 63
2,191778, Control_c, 0, 64, 77
2,191798, Control_c, 0, 64, 99
2,191818, Control_c, 0, 64, 127
2,191858, Note_on_c, 0, 65, 0
2,191963, Note_on_c, 0, 50, 0
2,191987, Note_on_c, 0, 67, 71
2,191991, Note_on_c, 0, 52, 72
2,192185, Note_on_c, 0, 53, 73
2,192197, Note_on_c, 0, 52, 0
2,192205, Note_on_c, 0, 68, 77
2,192208, Note_on_c, 0, 67, 0
2,192232, Note_on_c, 0, 53, 0
2,192239, Note_on_c, 0, 44, 0
2,192477, Note_on_c, 0, 68, 0
2,192502, Note_on_c, 0, 70, 68
2,192509, Control_c, 0, 64, 86
2,192509, Note_on_c, 0, 55, 82
2,192513, Note_on_c, 0, 43, 80
2,192525, Control_c, 0, 64, 64
2,192545, Control_c, 0, 64, 50
2,192565, Control_c, 0, 64, 37
2,192582, Control_c, 0, 64, 24
2,192601, Control_c, 0, 64, 0
2,192978, Note_on_c, 0, 76, 79
2,192982, Note_on_c, 0, 77, 0
2,193236, Note_on_c, 0, 74, 82
2,193300, Note_on_c, 0, 76, 0
2,193530, Note_on_c, 0, 76, 88
2,193778, Note_on_c, 0, 45, 76
2,193831, Note_on_c, 0, 55, 0
2,193985, Control_c, 0, 64, 17
2,194003, Control_c, 0, 64, 30
2,194025, Control_c, 0, 64, 44
2,194043, Control_c, 0, 64, 57
2,194062, Control_c, 0, 64, 64
2,194069, Note_on_c, 0, 46, 83
2,194081, Control_c, 0, 64, 66
2,194102, Control_c, 0, 64, 68
2,194119, Control_c, 0, 64, 70
2,194139, Control_c, 0, 64, 72
2,194139, Note_on_c, 0, 74, 0
2,194144, Note_on_c, 0, 45, 0
2,194158, Control_c, 0, 64, 73
2,194176, Control_c, 0, 64, 74
2,194216, Control_c, 0, 64, 75
2,194234, Control_c, 0, 64, 78
2,194255, Control_c, 0, 64, 84
2,194273, Control_c, 0, 64, 93
2,194292, Control_c, 0, 64, 103
2,194311, Control_c, 0, 64, 111
2,194328, Control_c, 0, 64, 116
2,194346, Note_on_c, 0, 48, 83
2,194350, Control_c, 0, 64, 127
2,194363, Note_on_c, 0, 43, 0
2,194563, Note_on_c, 0, 48, 0
2,194758, Note_on_c, 0, 49, 87
2,194765, Note_on_c, 0, 41, 82
2,194765, Note_on_c, 0, 77, 86
2,194772, Control_c, 0, 64, 79
2,194790, Control_c, 0, 64, 59
2,194801, Note_on_c, 0, 76, 0
2,194811, Control_c, 0, 64, 42
2,194811, Note_on_c, 0, 46, 0
2,194830, Control_c, 0, 64, 25
2,194849, Control_c, 0, 64, 0
2,195143, Note_on_c, 0, 48, 78
2,195156, Note_on_c, 0, 73, 72
2,195165, Note_on_c, 0, 49, 0
2,195191, Note_on_c, 0, 70, 0
2,195427, Note_on_c, 0, 72, 71
2,195427, Note_on_c, 0, 73, 0
2,195428, Note_on_c, 0, 49, 71
2,195446, Note_on_c, 0, 48, 0
2,195634, Note_on_c, 0, 49, 0
2,195638, Note_on_c, 0, 51, 72
2,195647, Note_on_c, 0, 72, 0
2,195653, Note_on_c, 0, 70, 71
2,195831, Note_on_c, 0, 41, 0
2,195841, Control_c, 0, 64, 37
2,195861, Control_c, 0, 64, 54
2,195870, Note_on_c, 0, 70, 0
2,195881, Control_c, 0, 64, 65
2,195881, Note_on_c, 0, 53, 79
2,195886, Note_on_c, 0, 51, 0
2,195886, Note_on_c, 0, 69, 68
2,195903, Control_c, 0, 64, 69
2,195918, Control_c, 0, 64, 76
2,195937, Control_c, 0, 64, 82
2,195957, Control_c, 0, 64, 88
2,195976, Control_c, 0, 64, 94
2,195994, Control_c, 0, 64, 101
2,196012, Control_c, 0, 64, 103
2,196069, Control_c, 0, 64, 104
2,196090, Control_c, 0, 64, 106
2,196109, Control_c, 0, 64, 109
2,196127, Note_on_c, 0, 41, 87
2,196131, Control_c, 0, 64, 116
2,196140, Note_on_c, 0, 75, 81
2,196148, Control_c, 0, 64, 127
2,196263, Note_on_c, 0, 77, 0
2,196375, Note_on_c, 0, 73, 82
2,196380, Note_on_c, 0, 43, 81
2,196439, Note_on_c, 0, 41, 0
2,196482, Note_on_c, 0, 75, 0
2,196594, Note_on_c, 0, 45, 76
2,196594, Note_on_c, 0, 72, 87
2,196603, Note_on_c, 0, 43, 0
2,196603, Note_on_c, 0, 73, 0
2,196656, Note_on_c, 0, 45, 0
2,196663, Note_on_c, 0, 72, 0
2,196875, Note_on_c, 0, 46, 84
2,196886, Note_on_c, 0, 73, 85
2,196897, Control_c, 0, 64, 96
2,196906, Note_on_c, 0, 53, 0
2,196917, Control_c, 0, 64, 64
2,196940, Control_c, 0, 64, 42
2,196953, Control_c, 0, 64, 0
2,196993, Note_on_c, 0, 69, 0
2,197161, Note_on_c, 0, 53, 67
2,197170, Note_on_c, 0, 72, 72
2,197385, Note_on_c, 0, 53, 0
2,197401, Note_on_c, 0, 55, 71
2,197410, Note_on_c, 0, 70, 73
2,197610, Note_on_c, 0, 56, 74
2,197623, Note_on_c, 0, 55, 0
2,197632, Note_on_c, 0, 68, 73
2,197664, Control_c, 0, 64, 35
2,197686, Control_c, 0, 64, 56
2,197704, Control_c, 0, 64, 64
2,197704, Note_on_c, 0, 70, 0
2,197723, Control_c, 0, 64, 67
2,197741, Control_c, 0, 64, 72
2,197761, Control_c, 0, 64, 80
2,197779, Control_c, 0, 64, 106
2,197788, Note_on_c, 0, 72, 0
2,197803, Control_c, 0, 64, 127
2,197814, Note_on_c, 0, 56, 0
2,197834, Note_on_c, 0, 68, 0
2,197852, Note_on_c, 0, 58, 75
2,197852, Note_on_c, 0, 67, 71
2,197856, Note_on_c, 0, 73, 0
2,197887, Note_on_c, 0, 67, 0
2,198085, Note_on_c, 0, 49, 82
2,198095, Control_c, 0, 64, 69
2,198095, Note_on_c, 0, 58, 0
2,198095, Note_on_c, 0, 65, 75
2,198095, Note_on_c, 0, 70, 86
2,198105, Control_c, 0, 64, 54
2,198118, Note_on_c, 0, 46, 0
2,198125, Control_c, 0, 64, 30
2,198145, Control_c, 0, 64, 0
2,198344, Note_on_c, 0, 63, 81
2,198347, Note_on_c, 0, 72, 79
2,198351, Note_on_c, 0, 48, 73
2,198364, Note_on_c, 0, 65, 0
2,198364, Note_on_c, 0, 70, 0
2,198399, Note_on_c, 0, 49, 0
2,198474, Note_on_c, 0, 63, 0
2,198566, Control_c, 0, 64, 51
2,198593, Control_c, 0, 64, 66
2,198601, Note_on_c, 0, 46, 76
2,198606, Note_on_c, 0, 73, 88
2,198610, Note_on_c, 0, 61, 84
2,198615, Control_c, 0, 64, 82
2,198619, Note_on_c, 0, 48, 0
2,198630, Control_c, 0, 64, 127
2,198661, Note_on_c, 0, 72, 0
2,198729, Note_on_c, 0, 73, 0
2,198751, Note_on_c, 0, 46, 0
2,198764, Note_on_c, 0, 61, 0
2,198907, Note_on_c, 0, 48, 78
2,198907, Note_on_c, 0, 60, 76
2,198907, Note_on_c, 0, 64, 80
2,198978, Control_c, 0, 64, 87
2,198996, Control_c, 0, 64, 70
2,199014, Control_c, 0, 64, 62
2,199034, Control_c, 0, 64, 56
2,199054, Control_c, 0, 64, 51
2,199072, Control_c, 0, 64, 42
2,199091, Control_c, 0, 64, 31
2,199111, Control_c, 0, 64, 18
2,199133, Control_c, 0, 64, 0
2,199181, Note_on_c, 0, 58, 82
2,199509, Note_on_c, 0, 72, 84
2,199518, Note_on_c, 0, 56, 76
2,199529, Note_on_c, 0, 58, 0
2,199550, Note_on_c, 0, 64, 0
2,199774, Note_on_c, 0, 55, 73
2,199784, Note_on_c, 0, 56, 0
2,200039, Note_on_c, 0, 56, 76
2,200051, Note_on_c, 0, 55, 0
2,200290, Note_on_c, 0, 67, 75
2,200304, Note_on_c, 0, 72, 0
2,200602, Note_on_c, 0, 68, 75
2,200609, Control_c, 0, 64, 21
2,200627, Control_c, 0, 64, 39
2,200646, Control_c, 0, 64, 50
2,200667, Control_c, 0, 64, 58
2,200688, Control_c, 0, 64, 62
2,200688, Note_on_c, 0, 67, 0
2,200704, Control_c, 0, 64, 66
2,200723, Control_c, 0, 64, 76
2,200743, Control_c, 0, 64, 109
2,200763, Control_c, 0, 64, 127
2,200820, Note_on_c, 0, 56, 0
2,200863, Note_on_c, 0, 65, 69
2,200891, Note_on_c, 0, 68, 0
2,201045, Note_on_c, 0, 65, 0
2,201132, Note_on_c, 0, 56, 59
2,201184, Note_on_c, 0, 56, 0
2,201234, Note_on_c, 0, 55, 53
2,201281, Note_on_c, 0, 55, 0
2,201303, Note_on_c, 0, 56, 55
2,201358, Note_on_c, 0, 56, 0
2,201394, Note_on_c, 0, 55, 64
2,201453, Control_c, 0, 64, 109
2,201471, Control_c, 0, 64, 87
2,201493, Control_c, 0, 64, 75
2,201515, Control_c, 0, 64, 67
2,201515, Note_on_c, 0, 65, 60
2,201531, Control_c, 0, 64, 60
2,201549, Control_c, 0, 64, 53
2,201568, Control_c, 0, 64, 46
2,201588, Control_c, 0, 64, 38
2,201608, Control_c, 0, 64, 30
2,201625, Control_c, 0, 64, 21
2,201645, Control_c, 0, 64, 12
2,201665, Control_c, 0, 64, 0
2,201847, Note_on_c, 0, 64, 61
2,201874, Note_on_c, 0, 65, 0
2,202197, Note_on_c, 0, 64, 0
2,202210, Note_on_c, 0, 62, 52
2,202432, Control_c, 0, 64, 11
2,202451, Control_c, 0, 64, 25
2,202470, Control_c, 0, 64, 34
2,202489, Control_c, 0, 64, 42
2,202509, Control_c, 0, 64, 49
2,202527, Control_c, 0, 64, 53
2,202547, Control_c, 0, 64, 56
2,202567, Control_c, 0, 64, 57
2,202585, Control_c, 0, 64, 58
2,202625, Control_c, 0, 64, 59
2,202636, Note_on_c, 0, 62, 0
2,202642, Control_c, 0, 64, 60
2,202656, Note_on_c, 0, 65, 42
2,202681, Control_c, 0, 64, 61
2,202781, Note_on_c, 0, 65, 0
2,202824, Note_on_c, 0, 64, 49
2,202931, Control_c, 0, 64, 60
2,202974, Note_on_c, 0, 64, 0
2,202990, Note_on_c, 0, 65, 51
2,203133, Note_on_c, 0, 65, 0
2,203147, Note_on_c, 0, 64, 59
2,203330, Note_on_c, 0, 64, 0
2,203339, Note_on_c, 0, 65, 54
2,203355, Control_c, 0, 64, 59
2,203519, Note_on_c, 0, 64, 66
2,203563, Note_on_c, 0, 65, 0
2,203662, Control_c, 0, 64, 58
2,203778, Control_c, 0, 64, 57
2,203798, Control_c, 0, 64, 55
2,203802, Note_on_c, 0, 62, 62
2,203816, Control_c, 0, 64, 53
2,203836, Control_c, 0, 64, 50
2,203854, Control_c, 0, 64, 46
2,203866, Note_on_c, 0, 64, 0
2,203871, Control_c, 0, 64, 40
2,203891, Control_c, 0, 64, 32
2,203911, Control_c, 0, 64, 13
2,203933, Control_c, 0, 64, 0
2,204219, Control_c, 0, 64, 13
2,204236, Control_c, 0, 64, 19
2,204256, Control_c, 0, 64, 27
2,204275, Control_c, 0, 64, 37
2,204297, Control_c, 0, 64, 50
2,204312, Control_c, 0, 64, 60
2,204332, Control_c, 0, 64, 64
2,204355, Control_c, 0, 64, 68
2,204355, Note_on_c, 0, 64, 58
2,204373, Control_c, 0, 64, 75
2,204389, Control_c, 0, 64, 93
2,204408, Control_c, 0, 64, 127
2,204427, Note_on_c, 0, 62, 0
2,204464, Note_on_c, 0, 55, 0
2,204482, Note_on_c, 0, 48, 0
2,204513, Note_on_c, 0, 60, 0
2,205022, Note_on_c, 0, 64, 0
2,205421, Note_on_c, 0, 41, 43
2,205502, Note_on_c, 0, 57, 48
2,205579, Control_c, 0, 64, 85
2,205592, Control_c, 0, 64, 68
2,205592, Note_on_c, 0, 60, 54
2,205607, Control_c, 0, 64, 57
2,205627, Control_c, 0, 64, 46
2,205645, Control_c, 0, 64, 39
2,205665, Control_c, 0, 64, 33
2,205674, Note_on_c, 0, 65, 55
2,205684, Control_c, 0, 64, 25
2,205702, Control_c, 0, 64, 0
2,205967, Control_c, 0, 64, 23
2,205986, Control_c, 0, 64, 31
2,206008, Control_c, 0, 64, 36
2,206028, Control_c, 0, 64, 39
2,206042, Control_c, 0, 64, 41
2,206062, Control_c, 0, 64, 45
2,206085, Control_c, 0, 64, 48
2,206101, Control_c, 0, 64, 51
2,206120, Control_c, 0, 64, 54
2,206139, Control_c, 0, 64, 55
2,206159, Control_c, 0, 64, 56
2,206179, Control_c, 0, 64, 57
2,206197, Control_c, 0, 64, 59
2,206216, Control_c, 0, 64, 60
2,206235, Control_c, 0, 64, 62
2,206256, Control_c, 0, 64, 64
2,206294, Control_c, 0, 64, 65
2,206312, Control_c, 0, 64, 68
2,206331, Control_c, 0, 64, 75
2,206353, Control_c, 0, 64, 83
2,206373, Control_c, 0, 64, 90
2,206389, Control_c, 0, 64, 94
2,206409, Control_c, 0, 64, 99
2,206429, Control_c, 0, 64, 108
2,206447, Control_c, 0, 64, 127
2,208488, Note_on_c, 0, 60, 0
2,208497, Note_on_c, 0, 65, 0
2,208561, Note_on_c, 0, 57, 0
2,208723, Note_on_c, 0, 41, 0
2,210176, Control_c, 0, 64, 120
2,210195, Control_c, 0, 64, 116
2,210215, Control_c, 0, 64, 115
2,210253, Control_c, 0, 64, 113
2,210292, Control_c, 0, 64, 112
2,210311, Control_c, 0, 64, 110
2,210330, Control_c, 0, 64, 109
2,210351, Control_c, 0, 64, 106
2,210369, Control_c, 0, 64, 104
2,210445, Control_c, 0, 64, 103
2,210483, Control_c, 0, 64, 102
2,210505, Control_c, 0, 64, 100
2,210525, Control_c, 0, 64, 97
2,210540, Control_c, 0, 64, 94
2,210560, Control_c, 0, 64, 92
2,210574, Control_c, 0, 64, 90
2,210590, Control_c, 0, 64, 88
2,210610, Control_c, 0, 64, 86
2,210630, Control_c, 0, 64, 83
2,210652, Control_c, 0, 64, 81
2,210670, Control_c, 0, 64, 79
2,210745, Control_c, 0, 64, 78
2,210765, Control_c, 0, 64, 77
2,210786, Control_c, 0, 64, 76
2,210803, Control_c, 0, 64, 74
2,210835, Control_c, 0, 64, 73
2,210931, Control_c, 0, 64, 72
2,210950, Control_c, 0, 64, 71
2,210989, Control_c, 0, 64, 70
2,211009, Control_c, 0, 64, 69
2,211034, Control_c, 0, 64, 68
2,211071, Control_c, 0, 64, 67
2,211108, Control_c, 0, 64, 66
2,211128, Control_c, 0, 64, 65
2,211165, Control_c, 0, 64, 64
2,211264, Control_c, 0, 64, 63
2,211358, Control_c, 0, 64, 62
2,211416, Control_c, 0, 64, 61
2,211476, Control_c, 0, 64, 60
2,211494, Control_c, 0, 64, 59
2,211551, Control_c, 0, 64, 58
2,211569, Control_c, 0, 64, 57
2,211589, Control_c, 0, 64, 56
2,211607, Control_c, 0, 64, 55
2,211627, Control_c, 0, 64, 54
2,211684, Control_c, 0, 64, 53
2,211704, Control_c, 0, 64, 52
2,211705, End_track
0, 0, End_of_file
