0, 0, Header, 1, 2, 384
1, 0, Start_track
1, 0, Tempo, 500000
1, 0, Time_signature, 4, 2, 24, 8
1, 1, End_track
2, 0, Start_track
2, 0, Program_c, 0, 0
2, 799, Note_on_c, 0, 65, 41
2, 806, Note_on_c, 0, 56, 32
2, 812, Note_on_c, 0, 53, 24
2, 1086, Note_on_c, 0, 68, 49
2, 1327, Note_on_c, 0, 72, 53
2, 1566, Note_on_c, 0, 77, 50
2, 1625, Note_on_c, 0, 65, 0
2, 1816, Note_on_c, 0, 67, 52
2, 1824, Note_on_c, 0, 58, 37
2, 1825, Note_on_c, 0, 77, 0
2, 2031, Note_on_c, 0, 72, 0
2, 2049, Note_on_c, 0, 56, 0
2, 2065, Note_on_c, 0, 77, 63
2, 2094, Note_on_c, 0, 68, 0
2, 2325, Note_on_c, 0, 76, 60
2, 2366, Note_on_c, 0, 77, 0
2, 2577, Note_on_c, 0, 79, 63
2, 2638, Note_on_c, 0, 67, 0
2, 2820, Note_on_c, 0, 60, 41
2, 2825, Note_on_c, 0, 68, 58
2, 3073, Note_on_c, 0, 58, 0
2, 3074, Note_on_c, 0, 72, 56
2, 3074, Note_on_c, 0, 76, 0
2, 3077, Note_on_c, 0, 79, 0
2, 3332, Note_on_c, 0, 77, 55
2, 3560, Note_on_c, 0, 76, 54
2, 3567, Note_on_c, 0, 77, 0
2, 3817, Note_on_c, 0, 77, 64
2, 3827, Note_on_c, 0, 56, 30
2, 3832, Note_on_c, 0, 76, 0
2, 3852, Note_on_c, 0, 72, 0
2, 4090, Note_on_c, 0, 72, 49
2, 4296, Note_on_c, 0, 68, 0
2, 4326, Note_on_c, 0, 70, 49
2, 4387, Note_on_c, 0, 60, 0
2, 4545, Note_on_c, 0, 72, 0
2, 4570, Note_on_c, 0, 68, 55
2, 4636, Note_on_c, 0, 70, 0
2, 4820, Note_on_c, 0, 73, 63
2, 4831, Note_on_c, 0, 58, 33
2, 4903, Note_on_c, 0, 77, 0
2, 4922, Note_on_c, 0, 68, 0
2, 5065, Note_on_c, 0, 68, 50
2, 5246, Note_on_c, 0, 56, 0
2, 5294, Note_on_c, 0, 67, 53
2, 5536, Note_on_c, 0, 70, 52
2, 5549, Note_on_c, 0, 67, 0
2, 5752, Note_on_c, 0, 73, 0
2, 5790, Note_on_c, 0, 64, 48
2, 5809, Note_on_c, 0, 55, 35
2, 5945, Note_on_c, 0, 58, 0
2, 6014, Note_on_c, 0, 53, 0
2, 6038, Note_on_c, 0, 73, 62
2, 6050, Note_on_c, 0, 68, 0
2, 6056, Note_on_c, 0, 70, 0
2, 6274, Note_on_c, 0, 72, 65
2, 6490, Note_on_c, 0, 64, 0
2, 6520, Note_on_c, 0, 70, 61
2, 6771, Note_on_c, 0, 65, 38
2, 6771, Note_on_c, 0, 68, 66
2, 6780, Note_on_c, 0, 53, 36
2, 6780, Note_on_c, 0, 72, 0
2, 6800, Note_on_c, 0, 73, 0
2, 6845, Note_on_c, 0, 55, 0
2, 7035, Note_on_c, 0, 56, 55
2, 7129, Note_on_c, 0, 70, 0
2, 7226, Note_on_c, 0, 65, 0
2, 7278, Note_on_c, 0, 60, 56
2, 7513, Note_on_c, 0, 70, 57
2, 7517, Note_on_c, 0, 65, 55
2, 7576, Note_on_c, 0, 53, 0
2, 7726, Note_on_c, 0, 70, 0
2, 7755, Note_on_c, 0, 72, 52
2, 7757, Note_on_c, 0, 55, 64
2, 7800, Note_on_c, 0, 68, 0
2, 7823, Note_on_c, 0, 60, 0
2, 7824, Note_on_c, 0, 65, 0
2, 7838, Note_on_c, 0, 72, 0
2, 7845, Note_on_c, 0, 56, 0
2, 7852, Note_on_c, 0, 70, 52
2, 7899, Note_on_c, 0, 70, 0
2, 7931, Note_on_c, 0, 72, 44
2, 8002, Note_on_c, 0, 72, 0
2, 8009, Note_on_c, 0, 65, 37
2, 8011, Note_on_c, 0, 70, 56
2, 8056, Note_on_c, 0, 70, 0
2, 8076, Note_on_c, 0, 72, 51
2, 8141, Note_on_c, 0, 72, 0
2, 8142, Note_on_c, 0, 70, 57
2, 8213, Note_on_c, 0, 70, 0
2, 8225, Note_on_c, 0, 64, 51
2, 8226, Note_on_c, 0, 72, 59
2, 8269, Note_on_c, 0, 65, 0
2, 8279, Note_on_c, 0, 70, 44
2, 8291, Note_on_c, 0, 72, 0
2, 8338, Note_on_c, 0, 70, 0
2, 8354, Note_on_c, 0, 72, 41
2, 8448, Note_on_c, 0, 70, 42
2, 8454, Note_on_c, 0, 67, 53
2, 8468, Note_on_c, 0, 72, 0
2, 8492, Note_on_c, 0, 64, 0
2, 8556, Note_on_c, 0, 68, 54
2, 8568, Note_on_c, 0, 70, 0
2, 8637, Note_on_c, 0, 68, 0
2, 8648, Note_on_c, 0, 70, 60
2, 8733, Note_on_c, 0, 70, 0
2, 8738, Note_on_c, 0, 56, 39
2, 8746, Note_on_c, 0, 72, 66
2, 8765, Note_on_c, 0, 67, 0
2, 8972, Note_on_c, 0, 68, 64
2, 8999, Note_on_c, 0, 55, 0
2, 9221, Note_on_c, 0, 64, 53
2, 9429, Note_on_c, 0, 72, 0
2, 9467, Note_on_c, 0, 65, 57
2, 9513, Note_on_c, 0, 64, 0
2, 9681, Note_on_c, 0, 68, 0
2, 9703, Note_on_c, 0, 65, 0
2, 9710, Note_on_c, 0, 61, 52
2, 9711, Note_on_c, 0, 58, 40
2, 9848, Note_on_c, 0, 56, 0
2, 9951, Note_on_c, 0, 73, 54
2, 10189, Note_on_c, 0, 67, 53
2, 10424, Note_on_c, 0, 67, 0
2, 10431, Note_on_c, 0, 70, 53
2, 10604, Note_on_c, 0, 73, 0
2, 10671, Note_on_c, 0, 48, 44
2, 10678, Note_on_c, 0, 60, 41
2, 10678, Note_on_c, 0, 64, 51
2, 10697, Note_on_c, 0, 61, 0
2, 10707, Note_on_c, 0, 70, 0
2, 10776, Note_on_c, 0, 58, 0
2, 10918, Note_on_c, 0, 52, 56
2, 11127, Note_on_c, 0, 60, 0
2, 11174, Note_on_c, 0, 55, 61
2, 11394, Note_on_c, 0, 60, 53
2, 11409, Note_on_c, 0, 65, 51
2, 11460, Note_on_c, 0, 64, 0
2, 11495, Note_on_c, 0, 48, 0
2, 11621, Note_on_c, 0, 65, 0
2, 11646, Note_on_c, 0, 67, 55
2, 11656, Note_on_c, 0, 49, 60
2, 11698, Note_on_c, 0, 52, 0
2, 11707, Note_on_c, 0, 67, 0
2, 11709, Note_on_c, 0, 60, 0
2, 11742, Note_on_c, 0, 65, 53
2, 11794, Note_on_c, 0, 65, 0
2, 11821, Note_on_c, 0, 67, 59
2, 11854, Note_on_c, 0, 55, 0
2, 11859, Note_on_c, 0, 67, 0
2, 11883, Note_on_c, 0, 60, 47
2, 11887, Note_on_c, 0, 65, 60
2, 11928, Note_on_c, 0, 65, 0
2, 11951, Note_on_c, 0, 67, 61
2, 11991, Note_on_c, 0, 67, 0
2, 12019, Note_on_c, 0, 65, 57
2, 12059, Note_on_c, 0, 65, 0
2, 12078, Note_on_c, 0, 67, 59
2, 12112, Note_on_c, 0, 60, 0
2, 12119, Note_on_c, 0, 67, 0
2, 12130, Note_on_c, 0, 58, 47
2, 12153, Note_on_c, 0, 65, 55
2, 12181, Note_on_c, 0, 65, 0
2, 12201, Note_on_c, 0, 67, 63
2, 12244, Note_on_c, 0, 67, 0
2, 12264, Note_on_c, 0, 65, 59
2, 12324, Note_on_c, 0, 65, 0
2, 12358, Note_on_c, 0, 64, 53
2, 12368, Note_on_c, 0, 61, 38
2, 12392, Note_on_c, 0, 64, 0
2, 12420, Note_on_c, 0, 65, 48
2, 12432, Note_on_c, 0, 58, 0
2, 12540, Note_on_c, 0, 65, 0
2, 12548, Note_on_c, 0, 67, 48
2, 12582, Note_on_c, 0, 52, 46
2, 12656, Note_on_c, 0, 49, 0
2, 12715, Note_on_c, 0, 61, 0
2, 12810, Note_on_c, 0, 72, 56
2, 13029, Note_on_c, 0, 55, 47
2, 13038, Note_on_c, 0, 70, 54
2, 13059, Note_on_c, 0, 72, 0
2, 13255, Note_on_c, 0, 67, 0
2, 13285, Note_on_c, 0, 73, 52
2, 13540, Note_on_c, 0, 60, 41
2, 13546, Note_on_c, 0, 64, 39
2, 13551, Note_on_c, 0, 73, 0
2, 13795, Note_on_c, 0, 73, 57
2, 13885, Note_on_c, 0, 70, 0
2, 14039, Note_on_c, 0, 72, 57
2, 14040, Note_on_c, 0, 48, 38
2, 14053, Note_on_c, 0, 60, 0
2, 14057, Note_on_c, 0, 55, 0
2, 14079, Note_on_c, 0, 52, 0
2, 14274, Note_on_c, 0, 64, 0
2, 14303, Note_on_c, 0, 70, 55
2, 14376, Note_on_c, 0, 73, 0
2, 14544, Note_on_c, 0, 41, 50
2, 14556, Note_on_c, 0, 72, 0
2, 14562, Note_on_c, 0, 69, 54
2, 14563, Note_on_c, 0, 63, 50
2, 14624, Note_on_c, 0, 48, 0
2, 14709, Note_on_c, 0, 70, 0
2, 14791, Note_on_c, 0, 45, 59
2, 15041, Note_on_c, 0, 48, 60
2, 15268, Note_on_c, 0, 53, 57
2, 15281, Note_on_c, 0, 70, 59
2, 15290, Note_on_c, 0, 69, 0
2, 15325, Note_on_c, 0, 41, 0
2, 15353, Note_on_c, 0, 63, 0
2, 15387, Note_on_c, 0, 45, 0
2, 15504, Note_on_c, 0, 48, 0
2, 15508, Note_on_c, 0, 70, 0
2, 15514, Note_on_c, 0, 42, 69
2, 15529, Note_on_c, 0, 72, 56
2, 15549, Note_on_c, 0, 61, 30
2, 15554, Note_on_c, 0, 53, 0
2, 15601, Note_on_c, 0, 72, 0
2, 15617, Note_on_c, 0, 70, 56
2, 15665, Note_on_c, 0, 70, 0
2, 15684, Note_on_c, 0, 72, 53
2, 15748, Note_on_c, 0, 53, 54
2, 15753, Note_on_c, 0, 72, 0
2, 15757, Note_on_c, 0, 70, 56
2, 15801, Note_on_c, 0, 70, 0
2, 15824, Note_on_c, 0, 72, 51
2, 15886, Note_on_c, 0, 72, 0
2, 15889, Note_on_c, 0, 70, 49
2, 15954, Note_on_c, 0, 70, 0
2, 15966, Note_on_c, 0, 51, 56
2, 15966, Note_on_c, 0, 72, 59
2, 15973, Note_on_c, 0, 53, 0
2, 16035, Note_on_c, 0, 70, 55
2, 16035, Note_on_c, 0, 72, 0
2, 16085, Note_on_c, 0, 70, 0
2, 16113, Note_on_c, 0, 72, 43
2, 16182, Note_on_c, 0, 51, 0
2, 16187, Note_on_c, 0, 70, 26
2, 16196, Note_on_c, 0, 54, 52
2, 16253, Note_on_c, 0, 70, 0
2, 16266, Note_on_c, 0, 69, 47
2, 16320, Note_on_c, 0, 72, 0
2, 16353, Note_on_c, 0, 70, 43
2, 16425, Note_on_c, 0, 69, 0
2, 16440, Note_on_c, 0, 45, 45
2, 16447, Note_on_c, 0, 72, 59
2, 16448, Note_on_c, 0, 70, 0
2, 16495, Note_on_c, 0, 42, 0
2, 16502, Note_on_c, 0, 61, 0
2, 16571, Note_on_c, 0, 54, 0
2, 16689, Note_on_c, 0, 65, 55
2, 16933, Note_on_c, 0, 48, 39
2, 16941, Note_on_c, 0, 63, 49
2, 16976, Note_on_c, 0, 65, 0
2, 17000, Note_on_c, 0, 45, 0
2, 17192, Note_on_c, 0, 66, 55
2, 17455, Note_on_c, 0, 45, 55
2, 17490, Note_on_c, 0, 66, 0
2, 17649, Note_on_c, 0, 48, 0
2, 17702, Note_on_c, 0, 66, 52
2, 17736, Note_on_c, 0, 63, 0
2, 17955, Note_on_c, 0, 41, 47
2, 17956, Note_on_c, 0, 65, 50
2, 18011, Note_on_c, 0, 45, 0
2, 18192, Note_on_c, 0, 72, 0
2, 18200, Note_on_c, 0, 65, 0
2, 18204, Note_on_c, 0, 63, 56
2, 18453, Note_on_c, 0, 46, 43
2, 18453, Note_on_c, 0, 61, 49
2, 18457, Note_on_c, 0, 63, 0
2, 18469, Note_on_c, 0, 66, 0
2, 18638, Note_on_c, 0, 41, 0
2, 18712, Note_on_c, 0, 72, 62
2, 18938, Note_on_c, 0, 70, 65
2, 18996, Note_on_c, 0, 72, 0
2, 19197, Note_on_c, 0, 73, 72
2, 19337, Note_on_c, 0, 46, 0
2, 19439, Note_on_c, 0, 67, 68
2, 19514, Note_on_c, 0, 70, 0
2, 19677, Note_on_c, 0, 73, 0
2, 19688, Note_on_c, 0, 46, 54
2, 19899, Note_on_c, 0, 67, 0
2, 19921, Note_on_c, 0, 48, 41
2, 19922, Note_on_c, 0, 70, 53
2, 19982, Note_on_c, 0, 70, 0
2, 19994, Note_on_c, 0, 68, 57
2, 20014, Note_on_c, 0, 46, 0
2, 20045, Note_on_c, 0, 68, 0
2, 20067, Note_on_c, 0, 70, 58
2, 20099, Note_on_c, 0, 49, 49
2, 20103, Note_on_c, 0, 48, 0
2, 20141, Note_on_c, 0, 68, 32
2, 20189, Note_on_c, 0, 68, 0
2, 20200, Note_on_c, 0, 70, 0
2, 20212, Note_on_c, 0, 67, 49
2, 20240, Note_on_c, 0, 61, 0
2, 20308, Note_on_c, 0, 67, 0
2, 20311, Note_on_c, 0, 68, 50
2, 20366, Note_on_c, 0, 43, 38
2, 20383, Note_on_c, 0, 68, 0
2, 20386, Note_on_c, 0, 70, 54
2, 20428, Note_on_c, 0, 49, 0
2, 20629, Note_on_c, 0, 60, 60
2, 20864, Note_on_c, 0, 46, 40
2, 20873, Note_on_c, 0, 61, 55
2, 20876, Note_on_c, 0, 60, 0
2, 20963, Note_on_c, 0, 43, 0
2, 21131, Note_on_c, 0, 65, 49
2, 21362, Note_on_c, 0, 55, 40
2, 21378, Note_on_c, 0, 51, 44
2, 21398, Note_on_c, 0, 65, 0
2, 21424, Note_on_c, 0, 61, 0
2, 21514, Note_on_c, 0, 46, 0
2, 21613, Note_on_c, 0, 65, 55
2, 21638, Note_on_c, 0, 55, 0
2, 21863, Note_on_c, 0, 39, 44
2, 21880, Note_on_c, 0, 63, 50
2, 21958, Note_on_c, 0, 51, 0
2, 22022, Note_on_c, 0, 39, 0
2, 22130, Note_on_c, 0, 61, 56
2, 22264, Note_on_c, 0, 65, 0
2, 22374, Note_on_c, 0, 70, 0
2, 22387, Note_on_c, 0, 60, 52
2, 22389, Note_on_c, 0, 44, 48
2, 22389, Note_on_c, 0, 63, 0
2, 22408, Note_on_c, 0, 61, 0
2, 22649, Note_on_c, 0, 48, 42
2, 22658, Note_on_c, 0, 68, 66
2, 22896, Note_on_c, 0, 51, 51
2, 22900, Note_on_c, 0, 72, 70
2, 23113, Note_on_c, 0, 44, 0
2, 23137, Note_on_c, 0, 56, 53
2, 23141, Note_on_c, 0, 60, 0
2, 23395, Note_on_c, 0, 46, 53
2, 23404, Note_on_c, 0, 61, 50
2, 23410, Note_on_c, 0, 48, 0
2, 23412, Note_on_c, 0, 68, 0
2, 23435, Note_on_c, 0, 51, 0
2, 23442, Note_on_c, 0, 56, 0
2, 23648, Note_on_c, 0, 72, 0
2, 23650, Note_on_c, 0, 70, 76
2, 23663, Note_on_c, 0, 56, 50
2, 23893, Note_on_c, 0, 73, 73
2, 23909, Note_on_c, 0, 55, 52
2, 23928, Note_on_c, 0, 56, 0
2, 24148, Note_on_c, 0, 61, 0
2, 24151, Note_on_c, 0, 58, 59
2, 24245, Note_on_c, 0, 46, 0
2, 24377, Note_on_c, 0, 73, 0
2, 24393, Note_on_c, 0, 63, 64
2, 24403, Note_on_c, 0, 48, 51
2, 24405, Note_on_c, 0, 70, 0
2, 24410, Note_on_c, 0, 58, 0
2, 24464, Note_on_c, 0, 55, 0
2, 24641, Note_on_c, 0, 72, 78
2, 24643, Note_on_c, 0, 51, 57
2, 24888, Note_on_c, 0, 75, 82
2, 24900, Note_on_c, 0, 56, 56
2, 25121, Note_on_c, 0, 63, 0
2, 25149, Note_on_c, 0, 60, 59
2, 25230, Note_on_c, 0, 48, 0
2, 25394, Note_on_c, 0, 49, 54
2, 25399, Note_on_c, 0, 65, 71
2, 25406, Note_on_c, 0, 72, 0
2, 25425, Note_on_c, 0, 75, 0
2, 25486, Note_on_c, 0, 51, 0
2, 25486, Note_on_c, 0, 60, 0
2, 25643, Note_on_c, 0, 73, 74
2, 25654, Note_on_c, 0, 60, 46
2, 25663, Note_on_c, 0, 56, 0
2, 25889, Note_on_c, 0, 77, 80
2, 25903, Note_on_c, 0, 58, 51
2, 25929, Note_on_c, 0, 60, 0
2, 26138, Note_on_c, 0, 65, 0
2, 26152, Note_on_c, 0, 61, 50
2, 26224, Note_on_c, 0, 49, 0
2, 26368, Note_on_c, 0, 77, 0
2, 26398, Note_on_c, 0, 51, 52
2, 26404, Note_on_c, 0, 67, 52
2, 26423, Note_on_c, 0, 73, 0
2, 26520, Note_on_c, 0, 58, 0
2, 26606, Note_on_c, 0, 61, 0
2, 26636, Note_on_c, 0, 75, 65
2, 26656, Note_on_c, 0, 55, 45
2, 26869, Note_on_c, 0, 73, 66
2, 26870, Note_on_c, 0, 58, 47
2, 27055, Note_on_c, 0, 51, 0
2, 27076, Note_on_c, 0, 67, 0
2, 27111, Note_on_c, 0, 63, 43
2, 27119, Note_on_c, 0, 72, 56
2, 27310, Note_on_c, 0, 55, 0
2, 27353, Note_on_c, 0, 53, 55
2, 27354, Note_on_c, 0, 63, 0
2, 27360, Note_on_c, 0, 70, 55
2, 27367, Note_on_c, 0, 75, 0
2, 27425, Note_on_c, 0, 58, 0
2, 27441, Note_on_c, 0, 73, 0
2, 27444, Note_on_c, 0, 72, 0
2, 27602, Note_on_c, 0, 67, 61
2, 27605, Note_on_c, 0, 63, 46
2, 27644, Note_on_c, 0, 70, 0
2, 27835, Note_on_c, 0, 61, 46
2, 27846, Note_on_c, 0, 68, 57
2, 27870, Note_on_c, 0, 67, 0
2, 27936, Note_on_c, 0, 63, 0
2, 28082, Note_on_c, 0, 73, 54
2, 28086, Note_on_c, 0, 65, 46
2, 28120, Note_on_c, 0, 53, 0
2, 28256, Note_on_c, 0, 73, 0
2, 28315, Note_on_c, 0, 72, 50
2, 28331, Note_on_c, 0, 55, 47
2, 28376, Note_on_c, 0, 65, 0
2, 28379, Note_on_c, 0, 61, 0
2, 28414, Note_on_c, 0, 72, 0
2, 28422, Note_on_c, 0, 68, 0
2, 28428, Note_on_c, 0, 70, 45
2, 28470, Note_on_c, 0, 70, 0
2, 28488, Note_on_c, 0, 72, 48
2, 28548, Note_on_c, 0, 72, 0
2, 28550, Note_on_c, 0, 65, 28
2, 28567, Note_on_c, 0, 70, 50
2, 28608, Note_on_c, 0, 70, 0
2, 28635, Note_on_c, 0, 72, 49
2, 28695, Note_on_c, 0, 72, 0
2, 28712, Note_on_c, 0, 70, 55
2, 28749, Note_on_c, 0, 70, 0
2, 28786, Note_on_c, 0, 72, 61
2, 28822, Note_on_c, 0, 65, 0
2, 28823, Note_on_c, 0, 63, 45
2, 28829, Note_on_c, 0, 72, 0
2, 28837, Note_on_c, 0, 70, 53
2, 29088, Note_on_c, 0, 61, 36
2, 29148, Note_on_c, 0, 63, 0
2, 29321, Note_on_c, 0, 60, 43
2, 29322, Note_on_c, 0, 56, 40
2, 29394, Note_on_c, 0, 61, 0
2, 29401, Note_on_c, 0, 55, 0
2, 29548, Note_on_c, 0, 70, 0
2, 29577, Note_on_c, 0, 63, 41
2, 29806, Note_on_c, 0, 65, 52
2, 29815, Note_on_c, 0, 55, 39
2, 29860, Note_on_c, 0, 56, 0
2, 30049, Note_on_c, 0, 63, 0
2, 30053, Note_on_c, 0, 67, 52
2, 30114, Note_on_c, 0, 65, 0
2, 30297, Note_on_c, 0, 53, 39
2, 30310, Note_on_c, 0, 68, 58
2, 30340, Note_on_c, 0, 67, 0
2, 30349, Note_on_c, 0, 55, 0
2, 30544, Note_on_c, 0, 68, 0
2, 30548, Note_on_c, 0, 67, 63
2, 30767, Note_on_c, 0, 49, 38
2, 30787, Note_on_c, 0, 68, 62
2, 30848, Note_on_c, 0, 53, 0
2, 30894, Note_on_c, 0, 67, 0
2, 31035, Note_on_c, 0, 77, 74
2, 31086, Note_on_c, 0, 60, 0
2, 31131, Note_on_c, 0, 49, 0
2, 31267, Note_on_c, 0, 75, 59
2, 31272, Note_on_c, 0, 60, 46
2, 31278, Note_on_c, 0, 51, 43
2, 31340, Note_on_c, 0, 68, 0
2, 31353, Note_on_c, 0, 60, 0
2, 31379, Note_on_c, 0, 58, 50
2, 31430, Note_on_c, 0, 58, 0
2, 31437, Note_on_c, 0, 60, 52
2, 31500, Note_on_c, 0, 60, 0
2, 31500, Note_on_c, 0, 68, 57
2, 31514, Note_on_c, 0, 58, 54
2, 31563, Note_on_c, 0, 58, 0
2, 31575, Note_on_c, 0, 60, 52
2, 31624, Note_on_c, 0, 60, 0
2, 31642, Note_on_c, 0, 58, 53
2, 31685, Note_on_c, 0, 58, 0
2, 31704, Note_on_c, 0, 60, 52
2, 31739, Note_on_c, 0, 67, 53
2, 31755, Note_on_c, 0, 60, 0
2, 31780, Note_on_c, 0, 58, 58
2, 31806, Note_on_c, 0, 68, 0
2, 31981, Note_on_c, 0, 73, 63
2, 32050, Note_on_c, 0, 51, 0
2, 32055, Note_on_c, 0, 67, 0
2, 32083, Note_on_c, 0, 58, 0
2, 32214, Note_on_c, 0, 77, 0
2, 32233, Note_on_c, 0, 72, 57
2, 32247, Note_on_c, 0, 56, 47
2, 32269, Note_on_c, 0, 44, 29
2, 32281, Note_on_c, 0, 75, 0
2, 32451, Note_on_c, 0, 72, 0
2, 32460, Note_on_c, 0, 68, 54
2, 32489, Note_on_c, 0, 73, 0
2, 32717, Note_on_c, 0, 72, 60
2, 32762, Note_on_c, 0, 68, 0
2, 32958, Note_on_c, 0, 76, 67
2, 33175, Note_on_c, 0, 44, 0
2, 33201, Note_on_c, 0, 77, 72
2, 33222, Note_on_c, 0, 72, 0
2, 33266, Note_on_c, 0, 56, 0
2, 33429, Note_on_c, 0, 56, 59
2, 33438, Note_on_c, 0, 79, 66
2, 33461, Note_on_c, 0, 76, 0
2, 33544, Note_on_c, 0, 77, 0
2, 33672, Note_on_c, 0, 55, 56
2, 33679, Note_on_c, 0, 76, 67
2, 33769, Note_on_c, 0, 56, 0
2, 33778, Note_on_c, 0, 79, 0
2, 33919, Note_on_c, 0, 77, 75
2, 33922, Note_on_c, 0, 53, 54
2, 33973, Note_on_c, 0, 76, 0
2, 33982, Note_on_c, 0, 55, 0
2, 34173, Note_on_c, 0, 79, 70
2, 34174, Note_on_c, 0, 52, 52
2, 34175, Note_on_c, 0, 53, 0
2, 34434, Note_on_c, 0, 55, 47
2, 34669, Note_on_c, 0, 58, 56
2, 34853, Note_on_c, 0, 52, 0
2, 34913, Note_on_c, 0, 61, 45
2, 34941, Note_on_c, 0, 55, 0
2, 34989, Note_on_c, 0, 58, 0
2, 35155, Note_on_c, 0, 48, 54
2, 35288, Note_on_c, 0, 61, 0
2, 35389, Note_on_c, 0, 53, 55
2, 35633, Note_on_c, 0, 52, 48
2, 35675, Note_on_c, 0, 53, 0
2, 35874, Note_on_c, 0, 55, 43
2, 35887, Note_on_c, 0, 52, 0
2, 36004, Note_on_c, 0, 77, 0
2, 36121, Note_on_c, 0, 56, 38
2, 36138, Note_on_c, 0, 53, 43
2, 36140, Note_on_c, 0, 55, 0
2, 36298, Note_on_c, 0, 79, 0
2, 36383, Note_on_c, 0, 72, 62
2, 36434, Note_on_c, 0, 48, 0
2, 36629, Note_on_c, 0, 77, 71
2, 36856, Note_on_c, 0, 80, 72
2, 37044, Note_on_c, 0, 72, 0
2, 37084, Note_on_c, 0, 56, 0
2, 37108, Note_on_c, 0, 74, 68
2, 37177, Note_on_c, 0, 77, 0
2, 37210, Note_on_c, 0, 53, 0
2, 37347, Note_on_c, 0, 77, 70
2, 37350, Note_on_c, 0, 53, 52
2, 37543, Note_on_c, 0, 80, 0
2, 37579, Note_on_c, 0, 51, 50
2, 37586, Note_on_c, 0, 71, 55
2, 37592, Note_on_c, 0, 74, 0
2, 37604, Note_on_c, 0, 53, 0
2, 37604, Note_on_c, 0, 77, 0
2, 37817, Note_on_c, 0, 50, 47
2, 37821, Note_on_c, 0, 72, 56
2, 37831, Note_on_c, 0, 71, 0
2, 37891, Note_on_c, 0, 51, 0
2, 37892, Note_on_c, 0, 50, 0
2, 38058, Note_on_c, 0, 72, 0
2, 38065, Note_on_c, 0, 71, 51
2, 38071, Note_on_c, 0, 55, 53
2, 38127, Note_on_c, 0, 71, 0
2, 38160, Note_on_c, 0, 72, 55
2, 38201, Note_on_c, 0, 72, 0
2, 38222, Note_on_c, 0, 71, 56
2, 38267, Note_on_c, 0, 71, 0
2, 38290, Note_on_c, 0, 72, 64
2, 38312, Note_on_c, 0, 59, 45
2, 38333, Note_on_c, 0, 72, 0
2, 38361, Note_on_c, 0, 71, 60
2, 38392, Note_on_c, 0, 71, 0
2, 38408, Note_on_c, 0, 72, 63
2, 38470, Note_on_c, 0, 71, 71
2, 38471, Note_on_c, 0, 72, 0
2, 38553, Note_on_c, 0, 62, 48
2, 38765, Note_on_c, 0, 67, 50
2, 38804, Note_on_c, 0, 55, 0
2, 38890, Note_on_c, 0, 71, 0
2, 38901, Note_on_c, 0, 72, 58
2, 39015, Note_on_c, 0, 56, 55
2, 39024, Note_on_c, 0, 72, 0
2, 39051, Note_on_c, 0, 59, 0
2, 39055, Note_on_c, 0, 74, 53
2, 39079, Note_on_c, 0, 67, 0
2, 39101, Note_on_c, 0, 74, 0
2, 39124, Note_on_c, 0, 72, 58
2, 39165, Note_on_c, 0, 72, 0
2, 39190, Note_on_c, 0, 74, 59
2, 39217, Note_on_c, 0, 67, 46
2, 39219, Note_on_c, 0, 62, 0
2, 39229, Note_on_c, 0, 74, 0
2, 39254, Note_on_c, 0, 72, 64
2, 39290, Note_on_c, 0, 72, 0
2, 39321, Note_on_c, 0, 74, 64
2, 39353, Note_on_c, 0, 74, 0
2, 39377, Note_on_c, 0, 72, 63
2, 39422, Note_on_c, 0, 72, 0
2, 39442, Note_on_c, 0, 74, 64
2, 39447, Note_on_c, 0, 65, 56
2, 39467, Note_on_c, 0, 67, 0
2, 39474, Note_on_c, 0, 74, 0
2, 39493, Note_on_c, 0, 72, 69
2, 39538, Note_on_c, 0, 72, 0
2, 39559, Note_on_c, 0, 74, 66
2, 39599, Note_on_c, 0, 74, 0
2, 39624, Note_on_c, 0, 72, 62
2, 39645, Note_on_c, 0, 68, 53
2, 39659, Note_on_c, 0, 72, 0
2, 39675, Note_on_c, 0, 74, 57
2, 39697, Note_on_c, 0, 65, 0
2, 39723, Note_on_c, 0, 74, 0
2, 39739, Note_on_c, 0, 72, 61
2, 39774, Note_on_c, 0, 72, 0
2, 39801, Note_on_c, 0, 71, 54
2, 39826, Note_on_c, 0, 71, 0
2, 39847, Note_on_c, 0, 72, 66
2, 39915, Note_on_c, 0, 72, 0
2, 39922, Note_on_c, 0, 59, 41
2, 39947, Note_on_c, 0, 74, 59
2, 39963, Note_on_c, 0, 56, 0
2, 39982, Note_on_c, 0, 68, 0
2, 40170, Note_on_c, 0, 79, 63
2, 40410, Note_on_c, 0, 62, 47
2, 40416, Note_on_c, 0, 77, 68
2, 40457, Note_on_c, 0, 79, 0
2, 40653, Note_on_c, 0, 74, 0
2, 40675, Note_on_c, 0, 80, 60
2, 40913, Note_on_c, 0, 67, 50
2, 40917, Note_on_c, 0, 71, 51
2, 40924, Note_on_c, 0, 80, 0
2, 40934, Note_on_c, 0, 77, 0
2, 41176, Note_on_c, 0, 80, 62
2, 41291, Note_on_c, 0, 59, 0
2, 41426, Note_on_c, 0, 55, 42
2, 41426, Note_on_c, 0, 79, 67
2, 41433, Note_on_c, 0, 67, 0
2, 41567, Note_on_c, 0, 62, 0
2, 41682, Note_on_c, 0, 77, 71
2, 41685, Note_on_c, 0, 80, 0
2, 41731, Note_on_c, 0, 71, 0
2, 41876, Note_on_c, 0, 79, 0
2, 41909, Note_on_c, 0, 77, 0
2, 41912, Note_on_c, 0, 75, 66
2, 41929, Note_on_c, 0, 60, 43
2, 42061, Note_on_c, 0, 55, 0
2, 42159, Note_on_c, 0, 84, 68
2, 42394, Note_on_c, 0, 56, 48
2, 42404, Note_on_c, 0, 77, 65
2, 42493, Note_on_c, 0, 75, 0
2, 42600, Note_on_c, 0, 84, 0
2, 42643, Note_on_c, 0, 83, 61
2, 42901, Note_on_c, 0, 84, 72
2, 42904, Note_on_c, 0, 51, 54
2, 43131, Note_on_c, 0, 56, 0
2, 43135, Note_on_c, 0, 83, 0
2, 43141, Note_on_c, 0, 79, 70
2, 43207, Note_on_c, 0, 77, 0
2, 43383, Note_on_c, 0, 80, 68
2, 43387, Note_on_c, 0, 53, 50
2, 43477, Note_on_c, 0, 84, 0
2, 43486, Note_on_c, 0, 51, 0
2, 43568, Note_on_c, 0, 79, 0
2, 43635, Note_on_c, 0, 77, 72
2, 43642, Note_on_c, 0, 80, 0
2, 43848, Note_on_c, 0, 77, 0
2, 43860, Note_on_c, 0, 75, 72
2, 43874, Note_on_c, 0, 55, 44
2, 43910, Note_on_c, 0, 53, 0
2, 44119, Note_on_c, 0, 71, 59
2, 44366, Note_on_c, 0, 72, 57
2, 44369, Note_on_c, 0, 71, 0
2, 44607, Note_on_c, 0, 66, 50
2, 44827, Note_on_c, 0, 66, 0
2, 44851, Note_on_c, 0, 67, 55
2, 44888, Note_on_c, 0, 72, 0
2, 44921, Note_on_c, 0, 75, 0
2, 45091, Note_on_c, 0, 72, 50
2, 45330, Note_on_c, 0, 72, 0
2, 45332, Note_on_c, 0, 74, 52
2, 45336, Note_on_c, 0, 59, 33
2, 45338, Note_on_c, 0, 55, 0
2, 45339, Note_on_c, 0, 67, 0
2, 45390, Note_on_c, 0, 60, 0
2, 45556, Note_on_c, 0, 74, 0
2, 45577, Note_on_c, 0, 65, 44
2, 45815, Note_on_c, 0, 65, 0
2, 45819, Note_on_c, 0, 48, 38
2, 45821, Note_on_c, 0, 72, 50
2, 45835, Note_on_c, 0, 60, 41
2, 45941, Note_on_c, 0, 59, 0
2, 46060, Note_on_c, 0, 65, 49
2, 46299, Note_on_c, 0, 55, 46
2, 46308, Note_on_c, 0, 64, 47
2, 46325, Note_on_c, 0, 65, 0
2, 46426, Note_on_c, 0, 60, 0
2, 46568, Note_on_c, 0, 67, 52
2, 46575, Note_on_c, 0, 64, 0
2, 46623, Note_on_c, 0, 72, 0
2, 46814, Note_on_c, 0, 60, 48
2, 47062, Note_on_c, 0, 53, 60
2, 47273, Note_on_c, 0, 60, 0
2, 47303, Note_on_c, 0, 52, 60
2, 47325, Note_on_c, 0, 55, 0
2, 47354, Note_on_c, 0, 53, 0
2, 47413, Note_on_c, 0, 67, 0
2, 47550, Note_on_c, 0, 55, 63
2, 47572, Note_on_c, 0, 48, 0
2, 47820, Note_on_c, 0, 45, 54
2, 47833, Note_on_c, 0, 65, 67
2, 47889, Note_on_c, 0, 55, 0
2, 47937, Note_on_c, 0, 52, 0
2, 48093, Note_on_c, 0, 69, 69
2, 48324, Note_on_c, 0, 65, 0
2, 48332, Note_on_c, 0, 53, 50
2, 48343, Note_on_c, 0, 72, 67
2, 48419, Note_on_c, 0, 69, 0
2, 48575, Note_on_c, 0, 75, 72
2, 48597, Note_on_c, 0, 72, 0
2, 48828, Note_on_c, 0, 69, 66
2, 48832, Note_on_c, 0, 41, 55
2, 48926, Note_on_c, 0, 53, 0
2, 49073, Note_on_c, 0, 78, 80
2, 49079, Note_on_c, 0, 45, 0
2, 49118, Note_on_c, 0, 75, 0
2, 49312, Note_on_c, 0, 72, 75
2, 49317, Note_on_c, 0, 53, 56
2, 49349, Note_on_c, 0, 41, 0
2, 49548, Note_on_c, 0, 75, 74
2, 49782, Note_on_c, 0, 46, 47
2, 49795, Note_on_c, 0, 73, 73
2, 49799, Note_on_c, 0, 72, 0
2, 49881, Note_on_c, 0, 69, 0
2, 49952, Note_on_c, 0, 78, 0
2, 49977, Note_on_c, 0, 53, 0
2, 50012, Note_on_c, 0, 49, 46
2, 50023, Note_on_c, 0, 75, 0
2, 50264, Note_on_c, 0, 53, 41
2, 50272, Note_on_c, 0, 70, 64
2, 50498, Note_on_c, 0, 46, 0
2, 50501, Note_on_c, 0, 58, 53
2, 50620, Note_on_c, 0, 49, 0
2, 50745, Note_on_c, 0, 48, 42
2, 50748, Note_on_c, 0, 64, 49
2, 50755, Note_on_c, 0, 53, 0
2, 50765, Note_on_c, 0, 58, 0
2, 51015, Note_on_c, 0, 58, 41
2, 51238, Note_on_c, 0, 56, 46
2, 51252, Note_on_c, 0, 72, 49
2, 51253, Note_on_c, 0, 64, 0
2, 51330, Note_on_c, 0, 58, 0
2, 51346, Note_on_c, 0, 73, 0
2, 51406, Note_on_c, 0, 48, 0
2, 51476, Note_on_c, 0, 60, 49
2, 51548, Note_on_c, 0, 56, 0
2, 51739, Note_on_c, 0, 50, 43
2, 51747, Note_on_c, 0, 65, 47
2, 51764, Note_on_c, 0, 53, 37
2, 51764, Note_on_c, 0, 70, 0
2, 51867, Note_on_c, 0, 60, 0
2, 51988, Note_on_c, 0, 70, 67
2, 52094, Note_on_c, 0, 65, 0
2, 52226, Note_on_c, 0, 55, 45
2, 52232, Note_on_c, 0, 67, 57
2, 52236, Note_on_c, 0, 52, 47
2, 52295, Note_on_c, 0, 53, 0
2, 52297, Note_on_c, 0, 72, 0
2, 52317, Note_on_c, 0, 50, 0
2, 52474, Note_on_c, 0, 64, 53
2, 52717, Note_on_c, 0, 52, 0
2, 52728, Note_on_c, 0, 60, 54
2, 52730, Note_on_c, 0, 56, 40
2, 52742, Note_on_c, 0, 53, 43
2, 52785, Note_on_c, 0, 64, 0
2, 52797, Note_on_c, 0, 55, 0
2, 52945, Note_on_c, 0, 60, 0
2, 52971, Note_on_c, 0, 64, 54
2, 53016, Note_on_c, 0, 70, 0
2, 53103, Note_on_c, 0, 67, 0
2, 53224, Note_on_c, 0, 65, 54
2, 53232, Note_on_c, 0, 64, 0
2, 53472, Note_on_c, 0, 71, 46
2, 53726, Note_on_c, 0, 72, 50
2, 53728, Note_on_c, 0, 48, 34
2, 53729, Note_on_c, 0, 55, 33
2, 53747, Note_on_c, 0, 65, 0
2, 53835, Note_on_c, 0, 53, 0
2, 53849, Note_on_c, 0, 56, 0
2, 53967, Note_on_c, 0, 65, 49
2, 53999, Note_on_c, 0, 71, 0
2, 54219, Note_on_c, 0, 64, 48
2, 54219, Note_on_c, 0, 65, 0
2, 54417, Note_on_c, 0, 72, 0
2, 54457, Note_on_c, 0, 67, 51
2, 54699, Note_on_c, 0, 70, 54
2, 54797, Note_on_c, 0, 67, 0
2, 54940, Note_on_c, 0, 73, 64
2, 55040, Note_on_c, 0, 70, 0
2, 55182, Note_on_c, 0, 72, 67
2, 55411, Note_on_c, 0, 70, 63
2, 55418, Note_on_c, 0, 64, 0
2, 55426, Note_on_c, 0, 49, 46
2, 55636, Note_on_c, 0, 48, 0
2, 55659, Note_on_c, 0, 51, 52
2, 55661, Note_on_c, 0, 69, 62
2, 55665, Note_on_c, 0, 53, 57
2, 55689, Note_on_c, 0, 55, 0
2, 55717, Note_on_c, 0, 72, 0
2, 55727, Note_on_c, 0, 49, 0
2, 55817, Note_on_c, 0, 53, 0
2, 55846, Note_on_c, 0, 51, 0
2, 55913, Note_on_c, 0, 65, 65
2, 55954, Note_on_c, 0, 69, 0
2, 55955, Note_on_c, 0, 73, 0
2, 55986, Note_on_c, 0, 70, 0
2, 56171, Note_on_c, 0, 69, 65
2, 56177, Note_on_c, 0, 63, 61
2, 56413, Note_on_c, 0, 72, 72
2, 56451, Note_on_c, 0, 65, 0
2, 56675, Note_on_c, 0, 77, 77
2, 56676, Note_on_c, 0, 69, 0
2, 56677, Note_on_c, 0, 61, 56
2, 56789, Note_on_c, 0, 63, 0
2, 56910, Note_on_c, 0, 70, 69
2, 57160, Note_on_c, 0, 60, 47
2, 57169, Note_on_c, 0, 72, 0
2, 57170, Note_on_c, 0, 69, 66
2, 57225, Note_on_c, 0, 70, 0
2, 57227, Note_on_c, 0, 61, 0
2, 57408, Note_on_c, 0, 75, 74
2, 57644, Note_on_c, 0, 58, 46
2, 57649, Note_on_c, 0, 60, 0
2, 57654, Note_on_c, 0, 73, 73
2, 57680, Note_on_c, 0, 69, 0
2, 57777, Note_on_c, 0, 77, 0
2, 57875, Note_on_c, 0, 54, 60
2, 57905, Note_on_c, 0, 68, 48
2, 57987, Note_on_c, 0, 54, 0
2, 58118, Note_on_c, 0, 49, 57
2, 58133, Note_on_c, 0, 67, 57
2, 58165, Note_on_c, 0, 73, 0
2, 58221, Note_on_c, 0, 75, 0
2, 58349, Note_on_c, 0, 58, 0
2, 58349, Note_on_c, 0, 67, 0
2, 58359, Note_on_c, 0, 70, 63
2, 58362, Note_on_c, 0, 46, 52
2, 58389, Note_on_c, 0, 49, 0
2, 58601, Note_on_c, 0, 64, 54
2, 58609, Note_on_c, 0, 55, 52
2, 58854, Note_on_c, 0, 46, 0
2, 58857, Note_on_c, 0, 72, 72
2, 58870, Note_on_c, 0, 48, 49
2, 58874, Note_on_c, 0, 64, 0
2, 59092, Note_on_c, 0, 70, 0
2, 59102, Note_on_c, 0, 49, 54
2, 59113, Note_on_c, 0, 65, 60
2, 59147, Note_on_c, 0, 48, 0
2, 59214, Note_on_c, 0, 68, 0
2, 59347, Note_on_c, 0, 46, 63
2, 59354, Note_on_c, 0, 70, 71
2, 59365, Note_on_c, 0, 65, 0
2, 59387, Note_on_c, 0, 49, 0
2, 59435, Note_on_c, 0, 72, 0
2, 59598, Note_on_c, 0, 48, 55
2, 59605, Note_on_c, 0, 64, 60
2, 59627, Note_on_c, 0, 55, 0
2, 59649, Note_on_c, 0, 46, 0
2, 59852, Note_on_c, 0, 55, 51
2, 59853, Note_on_c, 0, 73, 65
2, 60045, Note_on_c, 0, 73, 0
2, 60085, Note_on_c, 0, 72, 68
2, 60100, Note_on_c, 0, 56, 52
2, 60118, Note_on_c, 0, 70, 0
2, 60161, Note_on_c, 0, 55, 0
2, 60338, Note_on_c, 0, 59, 50
2, 60338, Note_on_c, 0, 64, 0
2, 60344, Note_on_c, 0, 65, 62
2, 60582, Note_on_c, 0, 68, 67
2, 60594, Note_on_c, 0, 60, 61
2, 60624, Note_on_c, 0, 65, 0
2, 60659, Note_on_c, 0, 59, 0
2, 60759, Note_on_c, 0, 48, 0
2, 60838, Note_on_c, 0, 65, 57
2, 61094, Note_on_c, 0, 64, 51
2, 61102, Note_on_c, 0, 48, 41
2, 61104, Note_on_c, 0, 65, 0
2, 61113, Note_on_c, 0, 56, 0
2, 61343, Note_on_c, 0, 64, 0
2, 61350, Note_on_c, 0, 67, 56
2, 61674, Note_on_c, 0, 67, 0
2, 61677, Note_on_c, 0, 49, 35
2, 61694, Note_on_c, 0, 65, 43
2, 61720, Note_on_c, 0, 68, 0
2, 61781, Note_on_c, 0, 72, 0
2, 61804, Note_on_c, 0, 48, 0
2, 61961, Note_on_c, 0, 68, 45
2, 62207, Note_on_c, 0, 72, 51
2, 62444, Note_on_c, 0, 77, 55
2, 62476, Note_on_c, 0, 65, 0
2, 62678, Note_on_c, 0, 77, 0
2, 62679, Note_on_c, 0, 58, 47
2, 62700, Note_on_c, 0, 67, 52
2, 62802, Note_on_c, 0, 60, 0
2, 62905, Note_on_c, 0, 72, 0
2, 62943, Note_on_c, 0, 77, 60
2, 62974, Note_on_c, 0, 68, 0
2, 63179, Note_on_c, 0, 76, 50
2, 63225, Note_on_c, 0, 77, 0
2, 63422, Note_on_c, 0, 79, 55
2, 63481, Note_on_c, 0, 67, 0
2, 63615, Note_on_c, 0, 49, 0
2, 63678, Note_on_c, 0, 68, 51
2, 63687, Note_on_c, 0, 60, 22
2, 63697, Note_on_c, 0, 48, 38
2, 63811, Note_on_c, 0, 58, 0
2, 63910, Note_on_c, 0, 79, 0
2, 63929, Note_on_c, 0, 76, 0
2, 63931, Note_on_c, 0, 72, 53
2, 64181, Note_on_c, 0, 77, 58
2, 64420, Note_on_c, 0, 77, 0
2, 64422, Note_on_c, 0, 76, 54
2, 64667, Note_on_c, 0, 76, 0
2, 64668, Note_on_c, 0, 77, 64
2, 64681, Note_on_c, 0, 56, 40
2, 64682, Note_on_c, 0, 72, 0
2, 64927, Note_on_c, 0, 72, 48
2, 65072, Note_on_c, 0, 60, 0
2, 65181, Note_on_c, 0, 68, 0
2, 65182, Note_on_c, 0, 70, 51
2, 65422, Note_on_c, 0, 68, 47
2, 65423, Note_on_c, 0, 72, 0
2, 65544, Note_on_c, 0, 70, 0
2, 65679, Note_on_c, 0, 73, 55
2, 65680, Note_on_c, 0, 58, 54
2, 65826, Note_on_c, 0, 68, 0
2, 65906, Note_on_c, 0, 77, 0
2, 65943, Note_on_c, 0, 68, 39
2, 66067, Note_on_c, 0, 56, 0
2, 66166, Note_on_c, 0, 67, 44
2, 66406, Note_on_c, 0, 70, 52
2, 66425, Note_on_c, 0, 67, 0
2, 66661, Note_on_c, 0, 64, 45
2, 66663, Note_on_c, 0, 73, 0
2, 66674, Note_on_c, 0, 55, 50
2, 66838, Note_on_c, 0, 58, 0
2, 66913, Note_on_c, 0, 73, 57
2, 67159, Note_on_c, 0, 73, 0
2, 67175, Note_on_c, 0, 72, 64
2, 67270, Note_on_c, 0, 70, 0
2, 67330, Note_on_c, 0, 68, 0
2, 67389, Note_on_c, 0, 70, 64
2, 67407, Note_on_c, 0, 64, 0
2, 67645, Note_on_c, 0, 68, 59
2, 67652, Note_on_c, 0, 56, 58
2, 67654, Note_on_c, 0, 65, 42
2, 67753, Note_on_c, 0, 72, 0
2, 67772, Note_on_c, 0, 55, 0
2, 67884, Note_on_c, 0, 65, 0
2, 67899, Note_on_c, 0, 63, 47
2, 68138, Note_on_c, 0, 62, 48
2, 68168, Note_on_c, 0, 63, 0
2, 68387, Note_on_c, 0, 62, 0
2, 68388, Note_on_c, 0, 65, 45
2, 68429, Note_on_c, 0, 70, 0
2, 68627, Note_on_c, 0, 53, 42
2, 68638, Note_on_c, 0, 59, 50
2, 68670, Note_on_c, 0, 68, 0
2, 68849, Note_on_c, 0, 56, 0
2, 68877, Note_on_c, 0, 68, 49
2, 68920, Note_on_c, 0, 65, 0
2, 69109, Note_on_c, 0, 67, 54
2, 69317, Note_on_c, 0, 68, 0
2, 69326, Note_on_c, 0, 59, 0
2, 69347, Note_on_c, 0, 65, 52
2, 69566, Note_on_c, 0, 67, 0
2, 69577, Note_on_c, 0, 64, 50
2, 69583, Note_on_c, 0, 55, 44
2, 69669, Note_on_c, 0, 65, 0
2, 69764, Note_on_c, 0, 53, 0
2, 69844, Note_on_c, 0, 60, 48
2, 70091, Note_on_c, 0, 58, 43
2, 70100, Note_on_c, 0, 60, 0
2, 70343, Note_on_c, 0, 61, 36
2, 70398, Note_on_c, 0, 55, 0
2, 70581, Note_on_c, 0, 52, 34
2, 70591, Note_on_c, 0, 55, 30
2, 70627, Note_on_c, 0, 61, 0
2, 70823, Note_on_c, 0, 61, 47
2, 70833, Note_on_c, 0, 58, 0
2, 71077, Note_on_c, 0, 60, 52
2, 71088, Note_on_c, 0, 55, 0
2, 71182, Note_on_c, 0, 64, 0
2, 71315, Note_on_c, 0, 58, 51
2, 71375, Note_on_c, 0, 60, 0
2, 71395, Note_on_c, 0, 61, 0
2, 71548, Note_on_c, 0, 58, 0
2, 71563, Note_on_c, 0, 56, 45
2, 71566, Note_on_c, 0, 53, 43
2, 71620, Note_on_c, 0, 52, 0
2, 71812, Note_on_c, 0, 72, 63
2, 72052, Note_on_c, 0, 70, 69
2, 72282, Note_on_c, 0, 72, 0
2, 72296, Note_on_c, 0, 73, 69
2, 72541, Note_on_c, 0, 55, 51
2, 72545, Note_on_c, 0, 64, 58
2, 72554, Note_on_c, 0, 58, 41
2, 72568, Note_on_c, 0, 56, 0
2, 72588, Note_on_c, 0, 73, 0
2, 72664, Note_on_c, 0, 53, 0
2, 72798, Note_on_c, 0, 73, 72
2, 72810, Note_on_c, 0, 70, 0
2, 73038, Note_on_c, 0, 72, 73
2, 73117, Note_on_c, 0, 64, 0
2, 73271, Note_on_c, 0, 70, 71
2, 73294, Note_on_c, 0, 55, 0
2, 73448, Note_on_c, 0, 73, 0
2, 73498, Note_on_c, 0, 56, 58
2, 73499, Note_on_c, 0, 60, 50
2, 73503, Note_on_c, 0, 72, 0
2, 73521, Note_on_c, 0, 68, 63
2, 73573, Note_on_c, 0, 70, 0
2, 73608, Note_on_c, 0, 68, 0
2, 73609, Note_on_c, 0, 58, 0
2, 73756, Note_on_c, 0, 79, 72
2, 74000, Note_on_c, 0, 77, 76
2, 74063, Note_on_c, 0, 79, 0
2, 74250, Note_on_c, 0, 80, 74
2, 74316, Note_on_c, 0, 77, 0
2, 74405, Note_on_c, 0, 56, 0
2, 74480, Note_on_c, 0, 56, 43
2, 74489, Note_on_c, 0, 53, 48
2, 74499, Note_on_c, 0, 71, 64
2, 74524, Note_on_c, 0, 80, 0
2, 74746, Note_on_c, 0, 80, 73
2, 74747, Note_on_c, 0, 60, 0
2, 74986, Note_on_c, 0, 79, 75
2, 75098, Note_on_c, 0, 80, 0
2, 75145, Note_on_c, 0, 71, 0
2, 75208, Note_on_c, 0, 77, 72
2, 75449, Note_on_c, 0, 76, 72
2, 75451, Note_on_c, 0, 58, 34
2, 75453, Note_on_c, 0, 55, 38
2, 75457, Note_on_c, 0, 79, 0
2, 75553, Note_on_c, 0, 56, 0
2, 75553, Note_on_c, 0, 77, 0
2, 75563, Note_on_c, 0, 53, 0
2, 75690, Note_on_c, 0, 77, 73
2, 75769, Note_on_c, 0, 76, 0
2, 75835, Note_on_c, 0, 55, 0
2, 75951, Note_on_c, 0, 79, 68
2, 76139, Note_on_c, 0, 48, 0
2, 76148, Note_on_c, 0, 77, 0
2, 76179, Note_on_c, 0, 76, 72
2, 76298, Note_on_c, 0, 79, 0
2, 76437, Note_on_c, 0, 82, 74
2, 76438, Note_on_c, 0, 55, 39
2, 76441, Note_on_c, 0, 76, 0
2, 76450, Note_on_c, 0, 52, 33
2, 76621, Note_on_c, 0, 58, 0
2, 76676, Note_on_c, 0, 73, 65
2, 76860, Note_on_c, 0, 82, 0
2, 76910, Note_on_c, 0, 72, 61
2, 76940, Note_on_c, 0, 73, 0
2, 77146, Note_on_c, 0, 70, 58
2, 77207, Note_on_c, 0, 72, 0
2, 77386, Note_on_c, 0, 53, 39
2, 77386, Note_on_c, 0, 60, 32
2, 77387, Note_on_c, 0, 68, 57
2, 77427, Note_on_c, 0, 52, 0
2, 77445, Note_on_c, 0, 70, 0
2, 77526, Note_on_c, 0, 55, 0
2, 77630, Note_on_c, 0, 70, 48
2, 77850, Note_on_c, 0, 72, 52
2, 78094, Note_on_c, 0, 65, 54
2, 78138, Note_on_c, 0, 68, 0
2, 78201, Note_on_c, 0, 70, 0
2, 78337, Note_on_c, 0, 74, 55
2, 78339, Note_on_c, 0, 72, 0
2, 78355, Note_on_c, 0, 59, 39
2, 78370, Note_on_c, 0, 60, 0
2, 78507, Note_on_c, 0, 65, 0
2, 78590, Note_on_c, 0, 68, 53
2, 78836, Note_on_c, 0, 67, 53
2, 78843, Note_on_c, 0, 74, 0
2, 79043, Note_on_c, 0, 68, 0
2, 79060, Note_on_c, 0, 65, 60
2, 79063, Note_on_c, 0, 67, 0
2, 79312, Note_on_c, 0, 55, 40
2, 79313, Note_on_c, 0, 64, 55
2, 79327, Note_on_c, 0, 65, 0
2, 79342, Note_on_c, 0, 53, 0
2, 79395, Note_on_c, 0, 59, 0
2, 79554, Note_on_c, 0, 60, 61
2, 79677, Note_on_c, 0, 55, 0
2, 79790, Note_on_c, 0, 60, 0
2, 79801, Note_on_c, 0, 55, 67
2, 80030, Note_on_c, 0, 58, 70
2, 80268, Note_on_c, 0, 55, 0
2, 80287, Note_on_c, 0, 56, 62
2, 80290, Note_on_c, 0, 65, 71
2, 80299, Note_on_c, 0, 58, 0
2, 80402, Note_on_c, 0, 64, 0
2, 80512, Note_on_c, 0, 53, 73
2, 80758, Note_on_c, 0, 47, 74
2, 80787, Note_on_c, 0, 53, 0
2, 81014, Note_on_c, 0, 50, 68
2, 81055, Note_on_c, 0, 47, 0
2, 81272, Note_on_c, 0, 36, 52
2, 81276, Note_on_c, 0, 55, 73
2, 81281, Note_on_c, 0, 65, 0
2, 81440, Note_on_c, 0, 50, 0
2, 81523, Note_on_c, 0, 62, 69
2, 81527, Note_on_c, 0, 56, 0
2, 81807, Note_on_c, 0, 53, 72
2, 81808, Note_on_c, 0, 62, 0
2, 81819, Note_on_c, 0, 59, 59
2, 81826, Note_on_c, 0, 55, 0
2, 82091, Note_on_c, 0, 60, 71
2, 82109, Note_on_c, 0, 59, 0
2, 82429, Note_on_c, 0, 53, 0
2, 82430, Note_on_c, 0, 55, 60
2, 82768, Note_on_c, 0, 58, 60
2, 82769, Note_on_c, 0, 60, 0
2, 83152, Note_on_c, 0, 60, 53
2, 83223, Note_on_c, 0, 58, 0
2, 83642, Note_on_c, 0, 64, 46
2, 83858, Note_on_c, 0, 60, 0
2, 83899, Note_on_c, 0, 55, 0
2, 84549,End_track
0, 0, End_of_file
