0, 0, Header, 1, 2, 384
1, 0, Start_track
1, 0, Tempo, 500000
1, 0, Time_signature, 4, 2, 24, 8
1, 1, End_track
2, 0, Start_track
2, 0, Program_c, 0, 0
2, 482, Note_on_c, 0, 60, 66
2, 1203, Note_on_c, 0, 61, 72
2, 1266, Note_on_c, 0, 60, 0
2, 1875, Note_on_c, 0, 60, 73
2, 1917, Note_on_c, 0, 61, 0
2, 2535, Note_on_c, 0, 59, 69
2, 2602, Note_on_c, 0, 60, 0
2, 3222, Note_on_c, 0, 64, 73
2, 3303, Note_on_c, 0, 59, 0
2, 3880, Note_on_c, 0, 65, 75
2, 3939, Note_on_c, 0, 64, 0
2, 4536, Note_on_c, 0, 58, 76
2, 4557, Control_c, 0, 64, 8
2, 4662, Note_on_c, 0, 65, 0
2, 4739, Control_c, 0, 64, 10
2, 5134, Control_c, 0, 64, 12
2, 5215, Note_on_c, 0, 57, 73
2, 5261, Note_on_c, 0, 58, 0
2, 5887, Note_on_c, 0, 56, 62
2, 5936, Note_on_c, 0, 57, 0
2, 6571, Note_on_c, 0, 55, 43
2, 6628, Note_on_c, 0, 56, 0
2, 7806, Note_on_c, 0, 53, 39
2, 7882, Note_on_c, 0, 55, 0
2, 7958, Note_on_c, 0, 53, 0
2, 8099, Note_on_c, 0, 53, 46
2, 8244, Note_on_c, 0, 55, 55
2, 8282, Note_on_c, 0, 53, 0
2, 8392, Note_on_c, 0, 65, 76
2, 8414, Note_on_c, 0, 56, 46
2, 8429, Note_on_c, 0, 55, 0
2, 8555, Note_on_c, 0, 56, 0
2, 8697, Note_on_c, 0, 56, 58
2, 8836, Note_on_c, 0, 58, 60
2, 8864, Note_on_c, 0, 56, 0
2, 8962, Note_on_c, 0, 58, 0
2, 8962, Note_on_c, 0, 68, 78
2, 8974, Note_on_c, 0, 60, 62
2, 8990, Note_on_c, 0, 65, 0
2, 9078, Note_on_c, 0, 60, 0
2, 9102, Note_on_c, 0, 47, 59
2, 9256, Note_on_c, 0, 48, 59
2, 9293, Note_on_c, 0, 47, 0
2, 9396, Note_on_c, 0, 50, 52
2, 9413, Note_on_c, 0, 48, 0
2, 9560, Note_on_c, 0, 67, 76
2, 9565, Note_on_c, 0, 51, 47
2, 9567, Note_on_c, 0, 50, 0
2, 9596, Note_on_c, 0, 68, 0
2, 10123, Note_on_c, 0, 66, 73
2, 10128, Note_on_c, 0, 51, 0
2, 10136, Note_on_c, 0, 67, 0
2, 10273, Note_on_c, 0, 48, 54
2, 10404, Note_on_c, 0, 50, 59
2, 10410, Note_on_c, 0, 48, 0
2, 10552, Note_on_c, 0, 51, 63
2, 10564, Note_on_c, 0, 50, 0
2, 10710, Note_on_c, 0, 71, 79
2, 10716, Note_on_c, 0, 53, 52
2, 10734, Note_on_c, 0, 66, 0
2, 10753, Note_on_c, 0, 51, 0
2, 11312, Note_on_c, 0, 72, 77
2, 11345, Note_on_c, 0, 71, 0
2, 11422, Note_on_c, 0, 53, 0
2, 11447, Note_on_c, 0, 51, 54
2, 11496, Control_c, 0, 64, 14
2, 11599, Note_on_c, 0, 53, 55
2, 11635, Note_on_c, 0, 51, 0
2, 11718, Note_on_c, 0, 53, 0
2, 11745, Note_on_c, 0, 55, 52
2, 11887, Note_on_c, 0, 65, 72
2, 11898, Note_on_c, 0, 56, 43
2, 11948, Note_on_c, 0, 55, 0
2, 11954, Note_on_c, 0, 72, 0
2, 12478, Note_on_c, 0, 64, 67
2, 12573, Note_on_c, 0, 65, 0
2, 12586, Note_on_c, 0, 56, 0
2, 12620, Note_on_c, 0, 55, 48
2, 12773, Note_on_c, 0, 57, 55
2, 12776, Note_on_c, 0, 55, 0
2, 12902, Note_on_c, 0, 59, 53
2, 12906, Note_on_c, 0, 57, 0
2, 13064, Note_on_c, 0, 59, 0
2, 13064, Note_on_c, 0, 60, 42
2, 13065, Note_on_c, 0, 63, 63
2, 13089, Note_on_c, 0, 64, 0
2, 13684, Note_on_c, 0, 62, 61
2, 13745, Note_on_c, 0, 63, 0
2, 13996, Note_on_c, 0, 59, 41
2, 14046, Note_on_c, 0, 60, 0
2, 14128, Note_on_c, 0, 57, 41
2, 14150, Note_on_c, 0, 59, 0
2, 14253, Note_on_c, 0, 57, 0
2, 14256, Control_c, 0, 64, 15
2, 14264, Note_on_c, 0, 60, 53
2, 14333, Note_on_c, 0, 60, 0
2, 14345, Note_on_c, 0, 59, 56
2, 14411, Note_on_c, 0, 59, 0
2, 14419, Note_on_c, 0, 60, 56
2, 14440, Control_c, 0, 64, 16
2, 14476, Note_on_c, 0, 60, 0
2, 14488, Note_on_c, 0, 59, 57
2, 14537, Control_c, 0, 64, 17
2, 14559, Note_on_c, 0, 59, 0
2, 14573, Note_on_c, 0, 60, 55
2, 14600, Control_c, 0, 64, 18
2, 14625, Note_on_c, 0, 60, 0
2, 14633, Note_on_c, 0, 59, 55
2, 14704, Note_on_c, 0, 59, 0
2, 14716, Note_on_c, 0, 60, 63
2, 14752, Control_c, 0, 64, 19
2, 14773, Note_on_c, 0, 60, 0
2, 14801, Note_on_c, 0, 59, 58
2, 14846, Note_on_c, 0, 59, 0
2, 14861, Note_on_c, 0, 60, 55
2, 14873, Control_c, 0, 64, 20
2, 14905, Note_on_c, 0, 62, 0
2, 15024, Control_c, 0, 64, 21
2, 15121, Note_on_c, 0, 60, 0
2, 15172, Note_on_c, 0, 55, 51
2, 15179, Note_on_c, 0, 60, 33
2, 15289, Note_on_c, 0, 60, 0
2, 15326, Note_on_c, 0, 62, 57
2, 15473, Note_on_c, 0, 48, 86
2, 15485, Note_on_c, 0, 64, 63
2, 15489, Note_on_c, 0, 62, 0
2, 15490, Note_on_c, 0, 60, 67
2, 15500, Note_on_c, 0, 55, 0
2, 15760, Note_on_c, 0, 60, 0
2, 15780, Note_on_c, 0, 58, 63
2, 15783, Note_on_c, 0, 64, 0
2, 15801, Note_on_c, 0, 62, 52
2, 15896, Control_c, 0, 64, 22
2, 15926, Note_on_c, 0, 64, 55
2, 15930, Note_on_c, 0, 62, 0
2, 16076, Note_on_c, 0, 58, 0
2, 16080, Note_on_c, 0, 49, 80
2, 16087, Note_on_c, 0, 56, 62
2, 16105, Note_on_c, 0, 65, 63
2, 16126, Note_on_c, 0, 64, 0
2, 16137, Note_on_c, 0, 48, 0
2, 16148, Note_on_c, 0, 56, 0
2, 16209, Note_on_c, 0, 65, 0
2, 16225, Note_on_c, 0, 52, 61
2, 16378, Note_on_c, 0, 53, 61
2, 16397, Note_on_c, 0, 65, 66
2, 16419, Note_on_c, 0, 52, 0
2, 16509, Note_on_c, 0, 53, 0
2, 16520, Note_on_c, 0, 55, 67
2, 16692, Note_on_c, 0, 56, 76
2, 16695, Note_on_c, 0, 48, 78
2, 16701, Note_on_c, 0, 49, 0
2, 16704, Note_on_c, 0, 55, 0
2, 17024, Note_on_c, 0, 63, 57
2, 17314, Note_on_c, 0, 47, 85
2, 17335, Note_on_c, 0, 48, 0
2, 17335, Note_on_c, 0, 56, 0
2, 17336, Note_on_c, 0, 62, 61
2, 17360, Note_on_c, 0, 63, 0
2, 17471, Note_on_c, 0, 53, 69
2, 17632, Note_on_c, 0, 53, 0
2, 17636, Note_on_c, 0, 65, 0
2, 17642, Note_on_c, 0, 55, 58
2, 17652, Note_on_c, 0, 63, 54
2, 17739, Note_on_c, 0, 62, 0
2, 17754, Note_on_c, 0, 55, 0
2, 17775, Note_on_c, 0, 56, 69
2, 17804, Note_on_c, 0, 65, 60
2, 17812, Note_on_c, 0, 63, 0
2, 17909, Note_on_c, 0, 47, 0
2, 17941, Note_on_c, 0, 52, 84
2, 17950, Note_on_c, 0, 58, 76
2, 17963, Note_on_c, 0, 56, 0
2, 17967, Note_on_c, 0, 65, 0
2, 17969, Note_on_c, 0, 67, 72
2, 18128, Note_on_c, 0, 65, 54
2, 18294, Note_on_c, 0, 64, 60
2, 18377, Note_on_c, 0, 67, 0
2, 18426, Note_on_c, 0, 65, 0
2, 18430, Note_on_c, 0, 62, 54
2, 18529, Note_on_c, 0, 58, 0
2, 18551, Note_on_c, 0, 64, 0
2, 18598, Note_on_c, 0, 53, 84
2, 18604, Note_on_c, 0, 62, 0
2, 18610, Note_on_c, 0, 60, 74
2, 18613, Note_on_c, 0, 52, 0
2, 18762, Note_on_c, 0, 60, 0
2, 18769, Note_on_c, 0, 56, 65
2, 18930, Note_on_c, 0, 58, 61
2, 19041, Note_on_c, 0, 56, 0
2, 19076, Note_on_c, 0, 60, 59
2, 19103, Note_on_c, 0, 58, 0
2, 19236, Note_on_c, 0, 46, 85
2, 19249, Note_on_c, 0, 61, 65
2, 19263, Note_on_c, 0, 60, 0
2, 19270, Note_on_c, 0, 53, 0
2, 19414, Note_on_c, 0, 58, 57
2, 19575, Note_on_c, 0, 56, 59
2, 19612, Note_on_c, 0, 61, 0
2, 19634, Control_c, 0, 64, 23
2, 19726, Note_on_c, 0, 55, 59
2, 19798, Note_on_c, 0, 56, 0
2, 19855, Note_on_c, 0, 55, 0
2, 19880, Note_on_c, 0, 45, 78
2, 19889, Note_on_c, 0, 53, 68
2, 19909, Note_on_c, 0, 58, 0
2, 19924, Note_on_c, 0, 46, 0
2, 20019, Control_c, 0, 64, 24
2, 20050, Note_on_c, 0, 60, 71
2, 20204, Note_on_c, 0, 60, 0
2, 20205, Note_on_c, 0, 62, 76
2, 20310, Control_c, 0, 64, 24
2, 20345, Note_on_c, 0, 64, 72
2, 20371, Note_on_c, 0, 62, 0
2, 20499, Note_on_c, 0, 44, 83
2, 20504, Note_on_c, 0, 64, 0
2, 20505, Note_on_c, 0, 65, 71
2, 20517, Note_on_c, 0, 53, 0
2, 20522, Control_c, 0, 64, 25
2, 20543, Note_on_c, 0, 45, 0
2, 20684, Note_on_c, 0, 53, 46
2, 20836, Note_on_c, 0, 55, 49
2, 20940, Note_on_c, 0, 55, 0
2, 20981, Note_on_c, 0, 56, 54
2, 21145, Note_on_c, 0, 43, 72
2, 21150, Note_on_c, 0, 56, 0
2, 21171, Note_on_c, 0, 58, 53
2, 21177, Note_on_c, 0, 44, 0
2, 21465, Note_on_c, 0, 64, 67
2, 21613, Note_on_c, 0, 62, 71
2, 21640, Note_on_c, 0, 65, 0
2, 21657, Note_on_c, 0, 64, 0
2, 21771, Note_on_c, 0, 64, 72
2, 21796, Note_on_c, 0, 58, 0
2, 21820, Note_on_c, 0, 62, 0
2, 21961, Note_on_c, 0, 53, 0
2, 22071, Note_on_c, 0, 56, 52
2, 22227, Note_on_c, 0, 55, 55
2, 22227, Note_on_c, 0, 56, 0
2, 22345, Note_on_c, 0, 64, 0
2, 22382, Note_on_c, 0, 55, 0
2, 22399, Note_on_c, 0, 41, 45
2, 22401, Note_on_c, 0, 56, 49
2, 22404, Note_on_c, 0, 65, 46
2, 22472, Note_on_c, 0, 43, 0
2, 22484, Note_on_c, 0, 65, 0
2, 22533, Note_on_c, 0, 56, 0
2, 22719, Note_on_c, 0, 65, 53
2, 22841, Note_on_c, 0, 65, 0
2, 22844, Note_on_c, 0, 67, 50
2, 22941, Note_on_c, 0, 41, 0
2, 23011, Note_on_c, 0, 68, 55
2, 23049, Note_on_c, 0, 67, 0
2, 23161, Note_on_c, 0, 68, 0
2, 23274, Control_c, 0, 64, 26
2, 23311, Note_on_c, 0, 68, 50
2, 23319, Note_on_c, 0, 53, 41
2, 23446, Note_on_c, 0, 70, 57
2, 23450, Note_on_c, 0, 53, 0
2, 23453, Note_on_c, 0, 55, 39
2, 23463, Note_on_c, 0, 68, 0
2, 23590, Note_on_c, 0, 55, 0
2, 23600, Note_on_c, 0, 56, 48
2, 23608, Note_on_c, 0, 72, 67
2, 23613, Note_on_c, 0, 70, 0
2, 23675, Note_on_c, 0, 56, 0
2, 23917, Note_on_c, 0, 56, 50
2, 23924, Note_on_c, 0, 60, 40
2, 24031, Note_on_c, 0, 60, 0
2, 24054, Note_on_c, 0, 58, 58
2, 24059, Note_on_c, 0, 61, 55
2, 24135, Note_on_c, 0, 56, 0
2, 24195, Note_on_c, 0, 61, 0
2, 24201, Note_on_c, 0, 63, 57
2, 24205, Note_on_c, 0, 58, 0
2, 24217, Note_on_c, 0, 60, 52
2, 24358, Note_on_c, 0, 72, 0
2, 24365, Note_on_c, 0, 70, 61
2, 24498, Note_on_c, 0, 70, 0
2, 24504, Note_on_c, 0, 48, 51
2, 24519, Note_on_c, 0, 68, 53
2, 24544, Note_on_c, 0, 60, 0
2, 24605, Note_on_c, 0, 68, 0
2, 24646, Note_on_c, 0, 63, 0
2, 24647, Note_on_c, 0, 67, 47
2, 24808, Note_on_c, 0, 49, 37
2, 24809, Note_on_c, 0, 65, 47
2, 24830, Note_on_c, 0, 67, 0
2, 24839, Note_on_c, 0, 48, 0
2, 24903, Note_on_c, 0, 65, 0
2, 25122, Note_on_c, 0, 61, 53
2, 25267, Note_on_c, 0, 63, 48
2, 25329, Note_on_c, 0, 61, 0
2, 25387, Note_on_c, 0, 49, 0
2, 25432, Note_on_c, 0, 65, 58
2, 25464, Note_on_c, 0, 63, 0
2, 25574, Note_on_c, 0, 65, 0
2, 25721, Note_on_c, 0, 65, 54
2, 25742, Note_on_c, 0, 49, 40
2, 25860, Note_on_c, 0, 49, 0
2, 25862, Note_on_c, 0, 67, 60
2, 25864, Note_on_c, 0, 51, 49
2, 25872, Note_on_c, 0, 65, 0
2, 26012, Note_on_c, 0, 67, 0
2, 26016, Note_on_c, 0, 68, 70
2, 26023, Note_on_c, 0, 53, 47
2, 26088, Note_on_c, 0, 51, 0
2, 26105, Note_on_c, 0, 53, 0
2, 26329, Note_on_c, 0, 56, 52
2, 26337, Note_on_c, 0, 53, 50
2, 26435, Note_on_c, 0, 56, 0
2, 26473, Note_on_c, 0, 58, 60
2, 26487, Note_on_c, 0, 55, 55
2, 26510, Note_on_c, 0, 53, 0
2, 26600, Note_on_c, 0, 55, 0
2, 26621, Note_on_c, 0, 56, 55
2, 26625, Note_on_c, 0, 58, 0
2, 26629, Note_on_c, 0, 60, 63
2, 26773, Note_on_c, 0, 66, 63
2, 26783, Note_on_c, 0, 68, 0
2, 26916, Note_on_c, 0, 66, 0
2, 26929, Note_on_c, 0, 44, 52
2, 26931, Note_on_c, 0, 65, 64
2, 26956, Note_on_c, 0, 56, 0
2, 26962, Control_c, 0, 64, 26
2, 26977, Control_c, 0, 64, 26
2, 26999, Note_on_c, 0, 60, 0
2, 27008, Control_c, 0, 64, 26
2, 27076, Note_on_c, 0, 63, 60
2, 27128, Note_on_c, 0, 65, 0
2, 27232, Note_on_c, 0, 46, 43
2, 27238, Note_on_c, 0, 61, 60
2, 27241, Note_on_c, 0, 44, 0
2, 27360, Note_on_c, 0, 61, 0
2, 27360, Note_on_c, 0, 63, 0
2, 27551, Note_on_c, 0, 58, 56
2, 27688, Note_on_c, 0, 58, 0
2, 27709, Note_on_c, 0, 60, 51
2, 27809, Note_on_c, 0, 46, 0
2, 27853, Note_on_c, 0, 61, 56
2, 27880, Note_on_c, 0, 60, 0
2, 28009, Note_on_c, 0, 61, 0
2, 28151, Note_on_c, 0, 61, 53
2, 28161, Note_on_c, 0, 46, 43
2, 28280, Note_on_c, 0, 46, 0
2, 28297, Note_on_c, 0, 48, 45
2, 28297, Note_on_c, 0, 61, 0
2, 28297, Note_on_c, 0, 63, 56
2, 28451, Note_on_c, 0, 49, 50
2, 28453, Note_on_c, 0, 48, 0
2, 28461, Note_on_c, 0, 65, 58
2, 28465, Note_on_c, 0, 63, 0
2, 28499, Note_on_c, 0, 49, 0
2, 28763, Note_on_c, 0, 49, 38
2, 28763, Note_on_c, 0, 53, 46
2, 28866, Note_on_c, 0, 53, 0
2, 28898, Note_on_c, 0, 51, 59
2, 28900, Note_on_c, 0, 55, 59
2, 28916, Note_on_c, 0, 49, 0
2, 29046, Note_on_c, 0, 51, 0
2, 29049, Note_on_c, 0, 53, 52
2, 29057, Note_on_c, 0, 56, 62
2, 29128, Note_on_c, 0, 55, 0
2, 29137, Note_on_c, 0, 56, 0
2, 29377, Note_on_c, 0, 41, 50
2, 29391, Note_on_c, 0, 56, 54
2, 29429, Note_on_c, 0, 53, 0
2, 29434, Note_on_c, 0, 41, 0
2, 29523, Note_on_c, 0, 65, 0
2, 29530, Note_on_c, 0, 58, 55
2, 29598, Note_on_c, 0, 56, 0
2, 29690, Note_on_c, 0, 58, 0
2, 29694, Note_on_c, 0, 60, 60
2, 29704, Note_on_c, 0, 48, 44
2, 29784, Note_on_c, 0, 48, 0
2, 30010, Note_on_c, 0, 48, 49
2, 30010, Note_on_c, 0, 64, 62
2, 30019, Note_on_c, 0, 55, 48
2, 30027, Note_on_c, 0, 60, 0
2, 30136, Note_on_c, 0, 48, 0
2, 30139, Note_on_c, 0, 64, 0
2, 30150, Note_on_c, 0, 65, 65
2, 30153, Note_on_c, 0, 50, 50
2, 30289, Note_on_c, 0, 50, 0
2, 30305, Note_on_c, 0, 55, 0
2, 30307, Note_on_c, 0, 72, 89
2, 30318, Note_on_c, 0, 52, 64
2, 30328, Note_on_c, 0, 67, 75
2, 30331, Note_on_c, 0, 60, 56
2, 30339, Note_on_c, 0, 65, 0
2, 30387, Control_c, 0, 64, 27
2, 30477, Control_c, 0, 64, 28
2, 30538, Control_c, 0, 64, 28
2, 30619, Note_on_c, 0, 58, 68
2, 30635, Note_on_c, 0, 50, 65
2, 30664, Note_on_c, 0, 60, 0
2, 30683, Note_on_c, 0, 52, 0
2, 30721, Note_on_c, 0, 58, 0
2, 30769, Note_on_c, 0, 52, 67
2, 30809, Note_on_c, 0, 50, 0
2, 30906, Note_on_c, 0, 52, 0
2, 30918, Note_on_c, 0, 53, 72
2, 30925, Note_on_c, 0, 73, 80
2, 30936, Note_on_c, 0, 56, 46
2, 30950, Note_on_c, 0, 53, 0
2, 30957, Control_c, 0, 64, 29
2, 30958, Note_on_c, 0, 72, 0
2, 30963, Note_on_c, 0, 56, 0
2, 31078, Note_on_c, 0, 40, 79
2, 31228, Note_on_c, 0, 41, 77
2, 31229, Note_on_c, 0, 65, 74
2, 31242, Note_on_c, 0, 73, 0
2, 31248, Note_on_c, 0, 40, 0
2, 31336, Control_c, 0, 64, 29
2, 31362, Note_on_c, 0, 41, 0
2, 31378, Note_on_c, 0, 43, 80
2, 31441, Note_on_c, 0, 43, 0
2, 31539, Note_on_c, 0, 72, 92
2, 31548, Note_on_c, 0, 44, 71
2, 31562, Note_on_c, 0, 67, 0
2, 31588, Control_c, 0, 64, 30
2, 31679, Control_c, 0, 64, 30
2, 31704, Note_on_c, 0, 48, 60
2, 31710, Control_c, 0, 64, 31
2, 31740, Control_c, 0, 64, 31
2, 31755, Control_c, 0, 64, 32
2, 31770, Control_c, 0, 64, 33
2, 31786, Control_c, 0, 64, 33
2, 31801, Control_c, 0, 64, 34
2, 31831, Control_c, 0, 64, 35
2, 31841, Note_on_c, 0, 50, 52
2, 31844, Note_on_c, 0, 63, 59
2, 31846, Control_c, 0, 64, 35
2, 31869, Note_on_c, 0, 65, 0
2, 31877, Control_c, 0, 64, 36
2, 31963, Note_on_c, 0, 44, 0
2, 31988, Note_on_c, 0, 51, 66
2, 32000, Note_on_c, 0, 48, 0
2, 32031, Note_on_c, 0, 50, 0
2, 32138, Note_on_c, 0, 51, 0
2, 32147, Note_on_c, 0, 71, 84
2, 32148, Note_on_c, 0, 53, 68
2, 32159, Note_on_c, 0, 62, 60
2, 32166, Note_on_c, 0, 63, 0
2, 32182, Note_on_c, 0, 72, 0
2, 32184, Note_on_c, 0, 70, 23
2, 32238, Note_on_c, 0, 70, 0
2, 32294, Note_on_c, 0, 41, 70
2, 32338, Note_on_c, 0, 53, 0
2, 32389, Note_on_c, 0, 62, 0
2, 32447, Note_on_c, 0, 63, 54
2, 32451, Note_on_c, 0, 43, 55
2, 32460, Note_on_c, 0, 41, 0
2, 32562, Note_on_c, 0, 43, 0
2, 32569, Note_on_c, 0, 44, 58
2, 32598, Note_on_c, 0, 65, 56
2, 32616, Note_on_c, 0, 63, 0
2, 32620, Note_on_c, 0, 44, 0
2, 32630, Control_c, 0, 64, 36
2, 32713, Note_on_c, 0, 65, 0
2, 32740, Note_on_c, 0, 76, 73
2, 32752, Note_on_c, 0, 67, 64
2, 32761, Note_on_c, 0, 46, 61
2, 32776, Note_on_c, 0, 74, 39
2, 32796, Control_c, 0, 64, 37
2, 32805, Note_on_c, 0, 74, 0
2, 32811, Control_c, 0, 64, 38
2, 32827, Control_c, 0, 64, 38
2, 32842, Control_c, 0, 64, 39
2, 32856, Control_c, 0, 64, 40
2, 32872, Control_c, 0, 64, 40
2, 32887, Control_c, 0, 64, 41
2, 32889, Note_on_c, 0, 65, 68
2, 32903, Control_c, 0, 64, 41
2, 32918, Control_c, 0, 64, 42
2, 33001, Control_c, 0, 64, 42
2, 33012, Note_on_c, 0, 67, 0
2, 33025, Note_on_c, 0, 76, 0
2, 33038, Note_on_c, 0, 65, 0
2, 33042, Note_on_c, 0, 71, 0
2, 33053, Note_on_c, 0, 64, 66
2, 33057, Note_on_c, 0, 55, 59
2, 33104, Note_on_c, 0, 46, 0
2, 33171, Note_on_c, 0, 55, 0
2, 33199, Note_on_c, 0, 62, 66
2, 33263, Note_on_c, 0, 62, 0
2, 33278, Note_on_c, 0, 64, 0
2, 33348, Note_on_c, 0, 77, 91
2, 33351, Note_on_c, 0, 60, 74
2, 33358, Note_on_c, 0, 56, 64
2, 33384, Note_on_c, 0, 60, 0
2, 33406, Note_on_c, 0, 56, 0
2, 33506, Note_on_c, 0, 44, 68
2, 33662, Note_on_c, 0, 46, 61
2, 33762, Note_on_c, 0, 44, 0
2, 33811, Note_on_c, 0, 48, 68
2, 33816, Note_on_c, 0, 46, 0
2, 33883, Note_on_c, 0, 48, 0
2, 33965, Note_on_c, 0, 70, 78
2, 33967, Note_on_c, 0, 49, 65
2, 33972, Note_on_c, 0, 77, 0
2, 34122, Note_on_c, 0, 58, 62
2, 34247, Note_on_c, 0, 58, 0
2, 34275, Note_on_c, 0, 56, 58
2, 34286, Note_on_c, 0, 58, 54
2, 34386, Note_on_c, 0, 56, 0
2, 34412, Note_on_c, 0, 55, 55
2, 34443, Note_on_c, 0, 58, 0
2, 34548, Note_on_c, 0, 49, 0
2, 34577, Note_on_c, 0, 53, 68
2, 34582, Note_on_c, 0, 69, 75
2, 34590, Note_on_c, 0, 60, 60
2, 34591, Note_on_c, 0, 55, 0
2, 34605, Note_on_c, 0, 70, 0
2, 34727, Note_on_c, 0, 48, 70
2, 34756, Note_on_c, 0, 53, 0
2, 34880, Note_on_c, 0, 50, 69
2, 34956, Note_on_c, 0, 48, 0
2, 35033, Note_on_c, 0, 52, 74
2, 35065, Note_on_c, 0, 50, 0
2, 35185, Note_on_c, 0, 53, 77
2, 35185, Note_on_c, 0, 68, 86
2, 35202, Note_on_c, 0, 52, 0
2, 35213, Note_on_c, 0, 60, 0
2, 35241, Note_on_c, 0, 53, 0
2, 35252, Note_on_c, 0, 69, 0
2, 35354, Note_on_c, 0, 53, 72
2, 35505, Note_on_c, 0, 60, 61
2, 35509, Note_on_c, 0, 55, 55
2, 35540, Note_on_c, 0, 53, 0
2, 35645, Note_on_c, 0, 55, 0
2, 35650, Note_on_c, 0, 56, 63
2, 35822, Note_on_c, 0, 67, 77
2, 35831, Note_on_c, 0, 56, 0
2, 35831, Note_on_c, 0, 61, 58
2, 35835, Note_on_c, 0, 58, 62
2, 35840, Note_on_c, 0, 60, 0
2, 35870, Note_on_c, 0, 68, 0
2, 36146, Note_on_c, 0, 52, 51
2, 36150, Note_on_c, 0, 61, 0
2, 36155, Note_on_c, 0, 60, 60
2, 36219, Note_on_c, 0, 58, 0
2, 36286, Note_on_c, 0, 50, 54
2, 36291, Note_on_c, 0, 52, 0
2, 36302, Note_on_c, 0, 60, 0
2, 36306, Note_on_c, 0, 58, 65
2, 36442, Note_on_c, 0, 52, 59
2, 36460, Note_on_c, 0, 60, 62
2, 36484, Note_on_c, 0, 58, 0
2, 36497, Note_on_c, 0, 50, 0
2, 36762, Note_on_c, 0, 56, 50
2, 36892, Note_on_c, 0, 56, 0
2, 36913, Note_on_c, 0, 55, 48
2, 37066, Note_on_c, 0, 55, 0
2, 37080, Note_on_c, 0, 56, 36
2, 37096, Note_on_c, 0, 53, 46
2, 37119, Note_on_c, 0, 60, 0
2, 37133, Note_on_c, 0, 52, 0
2, 37385, Note_on_c, 0, 67, 0
2, 37404, Note_on_c, 0, 65, 51
2, 37553, Note_on_c, 0, 67, 59
2, 37563, Note_on_c, 0, 65, 0
2, 37675, Note_on_c, 0, 56, 0
2, 37686, Note_on_c, 0, 53, 0
2, 37711, Note_on_c, 0, 68, 74
2, 37720, Note_on_c, 0, 67, 0
2, 38023, Note_on_c, 0, 53, 48
2, 38163, Note_on_c, 0, 51, 59
2, 38166, Note_on_c, 0, 53, 0
2, 38328, Note_on_c, 0, 50, 44
2, 38373, Note_on_c, 0, 51, 0
2, 38413, Note_on_c, 0, 50, 0
2, 38629, Note_on_c, 0, 65, 57
2, 38636, Note_on_c, 0, 50, 42
2, 38758, Note_on_c, 0, 50, 0
2, 38765, Note_on_c, 0, 48, 48
2, 38781, Note_on_c, 0, 63, 47
2, 38916, Note_on_c, 0, 46, 43
2, 38918, Note_on_c, 0, 48, 0
2, 38919, Note_on_c, 0, 62, 52
2, 39000, Note_on_c, 0, 65, 0
2, 39009, Note_on_c, 0, 62, 0
2, 39014, Note_on_c, 0, 63, 0
2, 39244, Note_on_c, 0, 62, 50
2, 39245, Note_on_c, 0, 46, 0
2, 39257, Note_on_c, 0, 48, 35
2, 39368, Note_on_c, 0, 50, 58
2, 39390, Note_on_c, 0, 48, 0
2, 39393, Note_on_c, 0, 60, 49
2, 39405, Note_on_c, 0, 50, 0
2, 39547, Note_on_c, 0, 51, 67
2, 39558, Note_on_c, 0, 58, 65
2, 39578, Note_on_c, 0, 60, 0
2, 39594, Note_on_c, 0, 62, 0
2, 39625, Note_on_c, 0, 68, 0
2, 39726, Note_on_c, 0, 58, 0
2, 39864, Note_on_c, 0, 58, 57
2, 39881, Note_on_c, 0, 67, 68
2, 40020, Note_on_c, 0, 68, 83
2, 40033, Note_on_c, 0, 56, 62
2, 40040, Note_on_c, 0, 67, 0
2, 40063, Note_on_c, 0, 58, 0
2, 40181, Note_on_c, 0, 70, 80
2, 40194, Note_on_c, 0, 55, 57
2, 40198, Note_on_c, 0, 56, 0
2, 40217, Note_on_c, 0, 68, 0
2, 40355, Note_on_c, 0, 51, 0
2, 40375, Note_on_c, 0, 55, 0
2, 40506, Note_on_c, 0, 55, 57
2, 40649, Note_on_c, 0, 55, 0
2, 40655, Note_on_c, 0, 53, 55
2, 40821, Note_on_c, 0, 52, 56
2, 40839, Note_on_c, 0, 53, 0
2, 40939, Note_on_c, 0, 52, 0
2, 41123, Note_on_c, 0, 52, 42
2, 41123, Note_on_c, 0, 67, 57
2, 41273, Note_on_c, 0, 50, 45
2, 41273, Note_on_c, 0, 52, 0
2, 41286, Note_on_c, 0, 65, 56
2, 41429, Note_on_c, 0, 64, 52
2, 41436, Note_on_c, 0, 48, 52
2, 41464, Note_on_c, 0, 50, 0
2, 41494, Note_on_c, 0, 65, 0
2, 41508, Note_on_c, 0, 67, 0
2, 41546, Note_on_c, 0, 64, 0
2, 41735, Note_on_c, 0, 50, 47
2, 41743, Note_on_c, 0, 48, 0
2, 41744, Note_on_c, 0, 64, 54
2, 41753, Control_c, 0, 64, 43
2, 41884, Note_on_c, 0, 70, 0
2, 41887, Note_on_c, 0, 52, 57
2, 41898, Note_on_c, 0, 62, 56
2, 41904, Note_on_c, 0, 50, 0
2, 41999, Note_on_c, 0, 62, 0
2, 42008, Note_on_c, 0, 64, 0
2, 42049, Note_on_c, 0, 53, 66
2, 42054, Note_on_c, 0, 60, 67
2, 42085, Note_on_c, 0, 52, 0
2, 42201, Note_on_c, 0, 67, 77
2, 42223, Note_on_c, 0, 60, 0
2, 42351, Note_on_c, 0, 60, 62
2, 42352, Note_on_c, 0, 68, 90
2, 42395, Note_on_c, 0, 67, 0
2, 42495, Note_on_c, 0, 72, 86
2, 42505, Note_on_c, 0, 60, 0
2, 42515, Note_on_c, 0, 58, 55
2, 42601, Note_on_c, 0, 53, 0
2, 42612, Control_c, 0, 64, 42
2, 42649, Note_on_c, 0, 77, 94
2, 42672, Note_on_c, 0, 56, 69
2, 42682, Note_on_c, 0, 68, 0
2, 42687, Note_on_c, 0, 72, 0
2, 42707, Note_on_c, 0, 58, 0
2, 42969, Note_on_c, 0, 50, 65
2, 43117, Note_on_c, 0, 48, 68
2, 43131, Note_on_c, 0, 50, 0
2, 43280, Note_on_c, 0, 47, 72
2, 43292, Note_on_c, 0, 48, 0
2, 43394, Note_on_c, 0, 47, 0
2, 43577, Note_on_c, 0, 47, 62
2, 43577, Note_on_c, 0, 74, 73
2, 43593, Control_c, 0, 64, 43
2, 43727, Note_on_c, 0, 72, 76
2, 43728, Note_on_c, 0, 45, 63
2, 43751, Note_on_c, 0, 47, 0
2, 43889, Note_on_c, 0, 43, 65
2, 43896, Note_on_c, 0, 71, 74
2, 43899, Note_on_c, 0, 45, 0
2, 43975, Note_on_c, 0, 74, 0
2, 43986, Note_on_c, 0, 72, 0
2, 44021, Note_on_c, 0, 71, 0
2, 44198, Note_on_c, 0, 45, 57
2, 44207, Note_on_c, 0, 71, 74
2, 44264, Note_on_c, 0, 43, 0
2, 44281, Note_on_c, 0, 77, 0
2, 44328, Note_on_c, 0, 56, 0
2, 44352, Note_on_c, 0, 47, 68
2, 44357, Note_on_c, 0, 69, 72
2, 44388, Note_on_c, 0, 45, 0
2, 44536, Note_on_c, 0, 48, 74
2, 44543, Note_on_c, 0, 67, 68
2, 44565, Note_on_c, 0, 47, 0
2, 44586, Note_on_c, 0, 71, 0
2, 44615, Note_on_c, 0, 69, 0
2, 44664, Note_on_c, 0, 67, 0
2, 44863, Note_on_c, 0, 75, 72
2, 44874, Note_on_c, 0, 67, 63
2, 45010, Note_on_c, 0, 69, 67
2, 45018, Note_on_c, 0, 67, 0
2, 45047, Note_on_c, 0, 75, 0
2, 45175, Note_on_c, 0, 55, 89
2, 45184, Note_on_c, 0, 71, 69
2, 45186, Note_on_c, 0, 74, 71
2, 45204, Note_on_c, 0, 69, 0
2, 45209, Note_on_c, 0, 48, 0
2, 45497, Note_on_c, 0, 71, 0
2, 45504, Note_on_c, 0, 79, 60
2, 45515, Note_on_c, 0, 69, 61
2, 45633, Note_on_c, 0, 74, 0
2, 45654, Note_on_c, 0, 69, 0
2, 45668, Note_on_c, 0, 71, 55
2, 45827, Note_on_c, 0, 56, 87
2, 45828, Note_on_c, 0, 72, 69
2, 45836, Note_on_c, 0, 71, 0
2, 45846, Note_on_c, 0, 55, 0
2, 45979, Note_on_c, 0, 72, 0
2, 45996, Note_on_c, 0, 71, 65
2, 46145, Note_on_c, 0, 71, 0
2, 46163, Note_on_c, 0, 72, 65
2, 46206, Note_on_c, 0, 79, 0
2, 46309, Note_on_c, 0, 74, 74
2, 46326, Note_on_c, 0, 72, 0
2, 46471, Note_on_c, 0, 55, 84
2, 46489, Note_on_c, 0, 75, 72
2, 46494, Note_on_c, 0, 56, 0
2, 46494, Note_on_c, 0, 74, 0
2, 46496, Note_on_c, 0, 72, 61
2, 46799, Note_on_c, 0, 72, 0
2, 46821, Note_on_c, 0, 70, 55
2, 47114, Note_on_c, 0, 54, 83
2, 47127, Note_on_c, 0, 70, 0
2, 47133, Note_on_c, 0, 55, 0
2, 47143, Note_on_c, 0, 69, 59
2, 47257, Note_on_c, 0, 69, 0
2, 47276, Note_on_c, 0, 72, 69
2, 47289, Note_on_c, 0, 75, 0
2, 47412, Note_on_c, 0, 72, 0
2, 47420, Note_on_c, 0, 74, 70
2, 47431, Note_on_c, 0, 71, 60
2, 47560, Note_on_c, 0, 71, 0
2, 47577, Note_on_c, 0, 74, 0
2, 47578, Note_on_c, 0, 72, 60
2, 47578, Note_on_c, 0, 75, 68
2, 47709, Note_on_c, 0, 72, 0
2, 47730, Note_on_c, 0, 59, 88
2, 47737, Note_on_c, 0, 74, 66
2, 47737, Note_on_c, 0, 77, 74
2, 47746, Note_on_c, 0, 54, 0
2, 47816, Note_on_c, 0, 75, 0
2, 47901, Note_on_c, 0, 72, 63
2, 47996, Note_on_c, 0, 74, 0
2, 48029, Note_on_c, 0, 72, 0
2, 48047, Note_on_c, 0, 71, 60
2, 48181, Note_on_c, 0, 71, 0
2, 48196, Note_on_c, 0, 69, 62
2, 48244, Note_on_c, 0, 77, 0
2, 48333, Note_on_c, 0, 69, 0
2, 48351, Note_on_c, 0, 60, 75
2, 48365, Note_on_c, 0, 67, 60
2, 48373, Note_on_c, 0, 59, 0
2, 48512, Note_on_c, 0, 75, 80
2, 48658, Note_on_c, 0, 77, 87
2, 48796, Note_on_c, 0, 79, 80
2, 48797, Note_on_c, 0, 67, 0
2, 48821, Note_on_c, 0, 75, 0
2, 48848, Note_on_c, 0, 77, 0
2, 48962, Note_on_c, 0, 80, 89
2, 48964, Note_on_c, 0, 53, 75
2, 48991, Note_on_c, 0, 79, 0
2, 49034, Note_on_c, 0, 60, 0
2, 49130, Note_on_c, 0, 65, 63
2, 49144, Control_c, 0, 64, 43
2, 49160, Note_on_c, 0, 67, 48
2, 49189, Note_on_c, 0, 67, 0
2, 49235, Control_c, 0, 64, 44
2, 49249, Control_c, 0, 64, 44
2, 49265, Control_c, 0, 64, 45
2, 49295, Control_c, 0, 64, 45
2, 49298, Note_on_c, 0, 63, 69
2, 49305, Note_on_c, 0, 65, 0
2, 49356, Control_c, 0, 64, 46
2, 49398, Note_on_c, 0, 63, 0
2, 49431, Note_on_c, 0, 62, 72
2, 49564, Note_on_c, 0, 80, 0
2, 49589, Note_on_c, 0, 60, 80
2, 49595, Note_on_c, 0, 52, 71
2, 49615, Note_on_c, 0, 53, 0
2, 49615, Note_on_c, 0, 62, 0
2, 49746, Note_on_c, 0, 79, 79
2, 49908, Note_on_c, 0, 81, 82
2, 49919, Note_on_c, 0, 79, 0
2, 50047, Note_on_c, 0, 83, 84
2, 50066, Note_on_c, 0, 81, 0
2, 50201, Note_on_c, 0, 51, 90
2, 50201, Note_on_c, 0, 84, 83
2, 50216, Note_on_c, 0, 83, 0
2, 50230, Note_on_c, 0, 52, 0
2, 50344, Note_on_c, 0, 84, 0
2, 50360, Note_on_c, 0, 72, 62
2, 50518, Note_on_c, 0, 72, 0
2, 50523, Note_on_c, 0, 74, 67
2, 50666, Note_on_c, 0, 75, 63
2, 50684, Note_on_c, 0, 74, 0
2, 50830, Control_c, 0, 64, 45
2, 50832, Note_on_c, 0, 75, 0
2, 50837, Note_on_c, 0, 77, 75
2, 50840, Note_on_c, 0, 50, 79
2, 50867, Note_on_c, 0, 51, 0
2, 51158, Note_on_c, 0, 83, 81
2, 51301, Note_on_c, 0, 81, 80
2, 51341, Note_on_c, 0, 83, 0
2, 51433, Note_on_c, 0, 77, 0
2, 51473, Note_on_c, 0, 83, 83
2, 51510, Note_on_c, 0, 81, 0
2, 51791, Note_on_c, 0, 75, 63
2, 51841, Note_on_c, 0, 83, 0
2, 51907, Note_on_c, 0, 75, 0
2, 51918, Note_on_c, 0, 74, 58
2, 51931, Control_c, 0, 64, 45
2, 52085, Note_on_c, 0, 84, 60
2, 52097, Note_on_c, 0, 74, 0
2, 52105, Note_on_c, 0, 60, 0
2, 52120, Note_on_c, 0, 75, 35
2, 52124, Note_on_c, 0, 48, 37
2, 52141, Note_on_c, 0, 50, 0
2, 52167, Note_on_c, 0, 84, 0
2, 52193, Note_on_c, 0, 75, 0
2, 52412, Note_on_c, 0, 79, 58
2, 52414, Note_on_c, 0, 72, 45
2, 52515, Note_on_c, 0, 79, 0
2, 52516, Note_on_c, 0, 72, 0
2, 52551, Note_on_c, 0, 74, 59
2, 52657, Note_on_c, 0, 48, 0
2, 52711, Note_on_c, 0, 74, 0
2, 52715, Note_on_c, 0, 84, 68
2, 52737, Note_on_c, 0, 75, 46
2, 52967, Control_c, 0, 64, 45
2, 53027, Note_on_c, 0, 72, 50
2, 53168, Note_on_c, 0, 72, 0
2, 53179, Note_on_c, 0, 70, 52
2, 53316, Note_on_c, 0, 84, 0
2, 53333, Note_on_c, 0, 69, 47
2, 53353, Note_on_c, 0, 70, 0
2, 53402, Note_on_c, 0, 69, 0
2, 53628, Note_on_c, 0, 84, 58
2, 53645, Note_on_c, 0, 69, 48
2, 53794, Note_on_c, 0, 82, 56
2, 53797, Note_on_c, 0, 67, 41
2, 53797, Note_on_c, 0, 69, 0
2, 53928, Note_on_c, 0, 67, 0
2, 53931, Note_on_c, 0, 81, 60
2, 53946, Note_on_c, 0, 65, 59
2, 53977, Note_on_c, 0, 82, 0
2, 53985, Note_on_c, 0, 81, 0
2, 54239, Note_on_c, 0, 67, 53
2, 54240, Note_on_c, 0, 81, 56
2, 54274, Note_on_c, 0, 65, 0
2, 54377, Note_on_c, 0, 67, 0
2, 54382, Note_on_c, 0, 79, 61
2, 54394, Note_on_c, 0, 69, 43
2, 54396, Note_on_c, 0, 75, 0
2, 54396, Note_on_c, 0, 84, 0
2, 54522, Note_on_c, 0, 69, 0
2, 54538, Note_on_c, 0, 81, 0
2, 54543, Note_on_c, 0, 70, 54
2, 54547, Note_on_c, 0, 77, 61
2, 54576, Note_on_c, 0, 79, 0
2, 54777, Note_on_c, 0, 70, 0
2, 54842, Note_on_c, 0, 79, 71
2, 54843, Note_on_c, 0, 70, 58
2, 54848, Note_on_c, 0, 58, 52
2, 54848, Note_on_c, 0, 77, 0
2, 54891, Note_on_c, 0, 70, 0
2, 54975, Note_on_c, 0, 81, 69
2, 54983, Note_on_c, 0, 72, 67
2, 55031, Note_on_c, 0, 79, 0
2, 55034, Note_on_c, 0, 72, 0
2, 55132, Note_on_c, 0, 58, 0
2, 55133, Note_on_c, 0, 82, 74
2, 55135, Note_on_c, 0, 73, 64
2, 55156, Note_on_c, 0, 81, 0
2, 55449, Note_on_c, 0, 70, 54
2, 55604, Note_on_c, 0, 68, 48
2, 55618, Control_c, 0, 64, 46
2, 55624, Note_on_c, 0, 70, 0
2, 55717, Note_on_c, 0, 82, 0
2, 55747, Note_on_c, 0, 68, 0
2, 55748, Note_on_c, 0, 67, 52
2, 55867, Note_on_c, 0, 67, 0
2, 56048, Note_on_c, 0, 82, 61
2, 56058, Note_on_c, 0, 67, 42
2, 56192, Note_on_c, 0, 67, 0
2, 56199, Note_on_c, 0, 80, 63
2, 56208, Note_on_c, 0, 65, 55
2, 56345, Note_on_c, 0, 79, 59
2, 56367, Note_on_c, 0, 65, 0
2, 56377, Note_on_c, 0, 63, 55
2, 56391, Note_on_c, 0, 79, 0
2, 56394, Note_on_c, 0, 80, 0
2, 56667, Note_on_c, 0, 65, 56
2, 56667, Note_on_c, 0, 79, 65
2, 56750, Note_on_c, 0, 63, 0
2, 56816, Note_on_c, 0, 77, 61
2, 56820, Note_on_c, 0, 65, 0
2, 56820, Note_on_c, 0, 67, 53
2, 56838, Note_on_c, 0, 82, 0
2, 56896, Note_on_c, 0, 73, 0
2, 56964, Note_on_c, 0, 67, 0
2, 56978, Note_on_c, 0, 75, 66
2, 56980, Note_on_c, 0, 68, 52
2, 57008, Note_on_c, 0, 79, 0
2, 57009, Note_on_c, 0, 77, 0
2, 57201, Note_on_c, 0, 68, 0
2, 57285, Note_on_c, 0, 77, 76
2, 57292, Note_on_c, 0, 56, 55
2, 57295, Note_on_c, 0, 68, 63
2, 57323, Note_on_c, 0, 75, 0
2, 57325, Note_on_c, 0, 68, 0
2, 57426, Note_on_c, 0, 79, 71
2, 57438, Note_on_c, 0, 77, 0
2, 57463, Note_on_c, 0, 71, 33
2, 57495, Note_on_c, 0, 71, 0
2, 57578, Note_on_c, 0, 56, 0
2, 57579, Note_on_c, 0, 80, 76
2, 57590, Note_on_c, 0, 79, 0
2, 57603, Control_c, 0, 64, 46
2, 57612, Note_on_c, 0, 72, 62
2, 57664, Control_c, 0, 64, 47
2, 57679, Control_c, 0, 64, 47
2, 57694, Control_c, 0, 64, 48
2, 57786, Control_c, 0, 64, 48
2, 57802, Control_c, 0, 64, 49
2, 57878, Note_on_c, 0, 68, 55
2, 57908, Control_c, 0, 64, 49
2, 57969, Control_c, 0, 64, 50
2, 58002, Note_on_c, 0, 68, 0
2, 58020, Note_on_c, 0, 67, 57
2, 58129, Note_on_c, 0, 80, 0
2, 58162, Note_on_c, 0, 67, 0
2, 58174, Note_on_c, 0, 65, 53
2, 58259, Note_on_c, 0, 65, 0
2, 58483, Note_on_c, 0, 65, 47
2, 58483, Note_on_c, 0, 80, 63
2, 58599, Note_on_c, 0, 65, 0
2, 58615, Note_on_c, 0, 63, 52
2, 58616, Note_on_c, 0, 79, 58
2, 58786, Note_on_c, 0, 61, 48
2, 58792, Note_on_c, 0, 77, 64
2, 58801, Note_on_c, 0, 80, 0
2, 58819, Note_on_c, 0, 63, 0
2, 58845, Note_on_c, 0, 79, 0
2, 58878, Note_on_c, 0, 61, 0
2, 58958, Note_on_c, 0, 77, 0
2, 59082, Note_on_c, 0, 61, 53
2, 59088, Note_on_c, 0, 77, 67
2, 59156, Note_on_c, 0, 72, 0
2, 59234, Note_on_c, 0, 75, 68
2, 59236, Note_on_c, 0, 60, 56
2, 59249, Note_on_c, 0, 61, 0
2, 59274, Note_on_c, 0, 77, 0
2, 59382, Note_on_c, 0, 73, 69
2, 59386, Note_on_c, 0, 58, 53
2, 59396, Note_on_c, 0, 60, 0
2, 59396, Note_on_c, 0, 75, 0
2, 59679, Note_on_c, 0, 70, 56
2, 59697, Note_on_c, 0, 60, 55
2, 59731, Note_on_c, 0, 58, 0
2, 59822, Note_on_c, 0, 68, 59
2, 59830, Note_on_c, 0, 61, 57
2, 59832, Note_on_c, 0, 60, 0
2, 59858, Note_on_c, 0, 73, 0
2, 59993, Note_on_c, 0, 61, 0
2, 59997, Note_on_c, 0, 67, 67
2, 59998, Note_on_c, 0, 63, 57
2, 60000, Note_on_c, 0, 68, 0
2, 60015, Note_on_c, 0, 70, 0
2, 60310, Note_on_c, 0, 75, 65
2, 60313, Note_on_c, 0, 51, 51
2, 60326, Note_on_c, 0, 63, 0
2, 60396, Note_on_c, 0, 67, 0
2, 60452, Note_on_c, 0, 73, 62
2, 60617, Note_on_c, 0, 56, 45
2, 60632, Note_on_c, 0, 72, 46
2, 60635, Note_on_c, 0, 75, 0
2, 60643, Note_on_c, 0, 51, 0
2, 60715, Note_on_c, 0, 73, 0
2, 60730, Note_on_c, 0, 72, 0
2, 60938, Note_on_c, 0, 58, 48
2, 60941, Note_on_c, 0, 72, 50
2, 61004, Note_on_c, 0, 56, 0
2, 61071, Note_on_c, 0, 58, 0
2, 61075, Note_on_c, 0, 70, 59
2, 61081, Note_on_c, 0, 72, 0
2, 61082, Note_on_c, 0, 60, 48
2, 61232, Note_on_c, 0, 60, 0
2, 61240, Note_on_c, 0, 68, 71
2, 61247, Note_on_c, 0, 61, 50
2, 61250, Note_on_c, 0, 70, 0
2, 61563, Note_on_c, 0, 65, 51
2, 61696, Note_on_c, 0, 65, 0
2, 61710, Note_on_c, 0, 64, 52
2, 61855, Note_on_c, 0, 64, 0
2, 61861, Note_on_c, 0, 68, 0
2, 61867, Note_on_c, 0, 65, 64
2, 61926, Note_on_c, 0, 61, 0
2, 62195, Note_on_c, 0, 70, 61
2, 62199, Note_on_c, 0, 61, 43
2, 62235, Note_on_c, 0, 65, 0
2, 62308, Note_on_c, 0, 61, 0
2, 62333, Note_on_c, 0, 72, 64
2, 62336, Note_on_c, 0, 60, 46
2, 62347, Note_on_c, 0, 70, 0
2, 62487, Note_on_c, 0, 60, 0
2, 62489, Note_on_c, 0, 73, 78
2, 62492, Note_on_c, 0, 58, 54
2, 62514, Note_on_c, 0, 72, 0
2, 62662, Note_on_c, 0, 58, 0
2, 62809, Note_on_c, 0, 67, 58
2, 62817, Note_on_c, 0, 58, 46
2, 62941, Note_on_c, 0, 67, 0
2, 62959, Note_on_c, 0, 56, 52
2, 62964, Note_on_c, 0, 68, 55
2, 62966, Note_on_c, 0, 58, 0
2, 63115, Note_on_c, 0, 55, 60
2, 63116, Note_on_c, 0, 70, 75
2, 63130, Note_on_c, 0, 73, 0
2, 63167, Note_on_c, 0, 56, 0
2, 63201, Note_on_c, 0, 68, 0
2, 63232, Note_on_c, 0, 55, 0
2, 63266, Note_on_c, 0, 72, 64
2, 63405, Note_on_c, 0, 72, 0
2, 63412, Note_on_c, 0, 70, 0
2, 63418, Note_on_c, 0, 73, 62
2, 63432, Note_on_c, 0, 55, 58
2, 63544, Note_on_c, 0, 73, 0
2, 63570, Note_on_c, 0, 53, 63
2, 63575, Note_on_c, 0, 70, 67
2, 63576, Note_on_c, 0, 55, 0
2, 63718, Note_on_c, 0, 52, 69
2, 63726, Note_on_c, 0, 79, 75
2, 63730, Note_on_c, 0, 53, 0
2, 63753, Note_on_c, 0, 70, 0
2, 63883, Note_on_c, 0, 68, 60
2, 64034, Note_on_c, 0, 48, 60
2, 64038, Note_on_c, 0, 70, 63
2, 64041, Note_on_c, 0, 68, 0
2, 64053, Note_on_c, 0, 52, 0
2, 64174, Note_on_c, 0, 67, 68
2, 64210, Note_on_c, 0, 70, 0
2, 64225, Note_on_c, 0, 67, 0
2, 64299, Note_on_c, 0, 48, 0
2, 64329, Note_on_c, 0, 53, 54
2, 64338, Note_on_c, 0, 68, 83
2, 64405, Note_on_c, 0, 79, 0
2, 64517, Note_on_c, 0, 72, 67
2, 64646, Note_on_c, 0, 65, 68
2, 64653, Note_on_c, 0, 73, 71
2, 64659, Note_on_c, 0, 72, 0
2, 64721, Note_on_c, 0, 68, 0
2, 64767, Note_on_c, 0, 65, 0
2, 64784, Note_on_c, 0, 63, 61
2, 64786, Note_on_c, 0, 73, 0
2, 64794, Note_on_c, 0, 72, 68
2, 64822, Note_on_c, 0, 63, 0
2, 64906, Note_on_c, 0, 53, 0
2, 64934, Note_on_c, 0, 63, 63
2, 64940, Note_on_c, 0, 77, 84
2, 64952, Note_on_c, 0, 72, 0
2, 65011, Note_on_c, 0, 63, 0
2, 65019, Note_on_c, 0, 61, 72
2, 65088, Note_on_c, 0, 67, 60
2, 65093, Note_on_c, 0, 61, 0
2, 65098, Note_on_c, 0, 63, 62
2, 65173, Note_on_c, 0, 63, 0
2, 65179, Note_on_c, 0, 61, 66
2, 65244, Note_on_c, 0, 67, 0
2, 65253, Note_on_c, 0, 61, 0
2, 65258, Note_on_c, 0, 63, 71
2, 65264, Note_on_c, 0, 68, 62
2, 65359, Note_on_c, 0, 61, 65
2, 65362, Note_on_c, 0, 63, 0
2, 65366, Note_on_c, 0, 77, 0
2, 65397, Note_on_c, 0, 68, 0
2, 65402, Note_on_c, 0, 65, 64
2, 65422, Note_on_c, 0, 63, 72
2, 65439, Note_on_c, 0, 61, 0
2, 65503, Note_on_c, 0, 63, 0
2, 65521, Note_on_c, 0, 60, 75
2, 65522, Note_on_c, 0, 65, 0
2, 65596, Note_on_c, 0, 72, 68
2, 65860, Note_on_c, 0, 48, 52
2, 65874, Note_on_c, 0, 72, 0
2, 65879, Note_on_c, 0, 60, 0
2, 65885, Note_on_c, 0, 67, 52
2, 65888, Note_on_c, 0, 76, 54
2, 66001, Note_on_c, 0, 48, 0
2, 66006, Note_on_c, 0, 50, 62
2, 66028, Note_on_c, 0, 77, 70
2, 66035, Note_on_c, 0, 76, 0
2, 66135, Note_on_c, 0, 67, 0
2, 66172, Note_on_c, 0, 48, 89
2, 66176, Note_on_c, 0, 79, 87
2, 66177, Note_on_c, 0, 52, 66
2, 66184, Note_on_c, 0, 72, 63
2, 66202, Note_on_c, 0, 50, 0
2, 66203, Note_on_c, 0, 77, 0
2, 66448, Note_on_c, 0, 52, 0
2, 66476, Note_on_c, 0, 50, 65
2, 66476, Note_on_c, 0, 70, 62
2, 66597, Note_on_c, 0, 48, 0
2, 66609, Note_on_c, 0, 70, 0
2, 66610, Note_on_c, 0, 52, 64
2, 66629, Note_on_c, 0, 50, 0
2, 66673, Note_on_c, 0, 79, 0
2, 66777, Note_on_c, 0, 49, 80
2, 66787, Note_on_c, 0, 52, 0
2, 66794, Note_on_c, 0, 53, 61
2, 66796, Note_on_c, 0, 68, 89
2, 66829, Note_on_c, 0, 72, 0
2, 66854, Note_on_c, 0, 53, 0
2, 66934, Note_on_c, 0, 52, 60
2, 67083, Note_on_c, 0, 53, 62
2, 67097, Note_on_c, 0, 77, 76
2, 67102, Note_on_c, 0, 70, 64
2, 67138, Note_on_c, 0, 68, 0
2, 67229, Note_on_c, 0, 53, 0
2, 67234, Note_on_c, 0, 55, 63
2, 67248, Note_on_c, 0, 49, 0
2, 67360, Note_on_c, 0, 52, 0
2, 67389, Note_on_c, 0, 56, 74
2, 67391, Note_on_c, 0, 48, 76
2, 67406, Note_on_c, 0, 72, 84
2, 67409, Note_on_c, 0, 55, 0
2, 67419, Note_on_c, 0, 77, 0
2, 67558, Note_on_c, 0, 60, 76
2, 67611, Note_on_c, 0, 60, 0
2, 67717, Note_on_c, 0, 62, 80
2, 67721, Note_on_c, 0, 75, 76
2, 67746, Note_on_c, 0, 72, 0
2, 67865, Note_on_c, 0, 63, 73
2, 67885, Note_on_c, 0, 75, 0
2, 67898, Note_on_c, 0, 48, 0
2, 67902, Note_on_c, 0, 72, 7
2, 67932, Note_on_c, 0, 62, 0
2, 67951, Note_on_c, 0, 63, 0
2, 67992, Note_on_c, 0, 72, 0
2, 68000, Note_on_c, 0, 70, 0
2, 68008, Note_on_c, 0, 47, 87
2, 68026, Note_on_c, 0, 65, 74
2, 68028, Note_on_c, 0, 74, 73
2, 68033, Note_on_c, 0, 56, 0
2, 68090, Control_c, 0, 64, 49
2, 68182, Note_on_c, 0, 53, 72
2, 68326, Note_on_c, 0, 74, 0
2, 68334, Note_on_c, 0, 55, 69
2, 68339, Note_on_c, 0, 53, 0
2, 68346, Note_on_c, 0, 75, 70
2, 68398, Note_on_c, 0, 65, 0
2, 68486, Note_on_c, 0, 56, 72
2, 68487, Note_on_c, 0, 55, 0
2, 68493, Note_on_c, 0, 77, 76
2, 68504, Note_on_c, 0, 75, 0
2, 68616, Note_on_c, 0, 47, 0
2, 68643, Note_on_c, 0, 52, 80
2, 68653, Note_on_c, 0, 58, 81
2, 68654, Note_on_c, 0, 79, 79
2, 68660, Note_on_c, 0, 77, 0
2, 68664, Note_on_c, 0, 56, 0
2, 68803, Note_on_c, 0, 77, 71
2, 68826, Note_on_c, 0, 79, 0
2, 68932, Note_on_c, 0, 77, 0
2, 68966, Note_on_c, 0, 67, 69
2, 68966, Note_on_c, 0, 76, 74
2, 69118, Note_on_c, 0, 74, 66
2, 69177, Note_on_c, 0, 76, 0
2, 69218, Note_on_c, 0, 67, 0
2, 69221, Note_on_c, 0, 52, 0
2, 69250, Note_on_c, 0, 53, 81
2, 69254, Note_on_c, 0, 58, 0
2, 69263, Note_on_c, 0, 72, 77
2, 69264, Note_on_c, 0, 68, 77
2, 69294, Note_on_c, 0, 74, 0
2, 69431, Note_on_c, 0, 56, 65
2, 69582, Note_on_c, 0, 53, 0
2, 69587, Note_on_c, 0, 58, 74
2, 69641, Note_on_c, 0, 56, 0
2, 69726, Note_on_c, 0, 60, 75
2, 69731, Note_on_c, 0, 58, 0
2, 69811, Note_on_c, 0, 60, 0
2, 69847, Note_on_c, 0, 72, 0
2, 69874, Note_on_c, 0, 68, 0
2, 69878, Note_on_c, 0, 46, 84
2, 69885, Note_on_c, 0, 61, 77
2, 70032, Note_on_c, 0, 70, 61
2, 70177, Note_on_c, 0, 68, 67
2, 70315, Note_on_c, 0, 61, 0
2, 70325, Note_on_c, 0, 67, 58
2, 70344, Note_on_c, 0, 70, 0
2, 70371, Note_on_c, 0, 68, 0
2, 70461, Note_on_c, 0, 67, 0
2, 70490, Note_on_c, 0, 45, 81
2, 70497, Note_on_c, 0, 72, 71
2, 70500, Note_on_c, 0, 65, 39
2, 70519, Note_on_c, 0, 46, 0
2, 70593, Note_on_c, 0, 72, 0
2, 70613, Note_on_c, 0, 65, 0
2, 70656, Note_on_c, 0, 60, 61
2, 70811, Note_on_c, 0, 60, 0
2, 70824, Note_on_c, 0, 62, 61
2, 70954, Note_on_c, 0, 64, 66
2, 70959, Note_on_c, 0, 62, 0
2, 71082, Note_on_c, 0, 64, 0
2, 71102, Note_on_c, 0, 44, 81
2, 71107, Note_on_c, 0, 65, 70
2, 71122, Note_on_c, 0, 45, 0
2, 71141, Note_on_c, 0, 65, 0
2, 71272, Note_on_c, 0, 65, 58
2, 71428, Note_on_c, 0, 72, 67
2, 71434, Note_on_c, 0, 67, 61
2, 71448, Note_on_c, 0, 65, 0
2, 71560, Note_on_c, 0, 72, 0
2, 71578, Control_c, 0, 64, 50
2, 71589, Note_on_c, 0, 68, 61
2, 71593, Note_on_c, 0, 67, 0
2, 71746, Note_on_c, 0, 73, 70
2, 71748, Note_on_c, 0, 43, 71
2, 71748, Note_on_c, 0, 70, 56
2, 71769, Note_on_c, 0, 44, 0
2, 71788, Note_on_c, 0, 68, 0
2, 71984, Note_on_c, 0, 73, 0
2, 72021, Note_on_c, 0, 70, 0
2, 72057, Note_on_c, 0, 64, 68
2, 72058, Note_on_c, 0, 72, 67
2, 72193, Note_on_c, 0, 64, 0
2, 72207, Note_on_c, 0, 62, 52
2, 72222, Note_on_c, 0, 72, 0
2, 72224, Note_on_c, 0, 70, 68
2, 72276, Note_on_c, 0, 62, 0
2, 72348, Note_on_c, 0, 70, 0
2, 72358, Note_on_c, 0, 64, 26
2, 72363, Note_on_c, 0, 72, 63
2, 72651, Note_on_c, 0, 64, 0
2, 72661, Note_on_c, 0, 68, 63
2, 72794, Note_on_c, 0, 68, 0
2, 72804, Note_on_c, 0, 67, 56
2, 72979, Note_on_c, 0, 41, 54
2, 72980, Note_on_c, 0, 68, 56
2, 72985, Note_on_c, 0, 65, 44
2, 72997, Note_on_c, 0, 43, 0
2, 73000, Note_on_c, 0, 72, 0
2, 73017, Note_on_c, 0, 67, 0
2, 73039, Note_on_c, 0, 41, 0
2, 73274, Note_on_c, 0, 53, 66
2, 73424, Note_on_c, 0, 55, 63
2, 73458, Note_on_c, 0, 53, 0
2, 73577, Note_on_c, 0, 56, 65
2, 73588, Note_on_c, 0, 55, 0
2, 73690, Note_on_c, 0, 56, 0
2, 73898, Note_on_c, 0, 60, 66
2, 73904, Note_on_c, 0, 56, 54
2, 74012, Note_on_c, 0, 65, 0
2, 74042, Note_on_c, 0, 61, 63
2, 74055, Note_on_c, 0, 58, 60
2, 74056, Note_on_c, 0, 68, 0
2, 74074, Note_on_c, 0, 56, 0
2, 74076, Note_on_c, 0, 60, 0
2, 74196, Note_on_c, 0, 60, 71
2, 74201, Note_on_c, 0, 63, 60
2, 74216, Note_on_c, 0, 58, 0
2, 74217, Note_on_c, 0, 61, 0
2, 74331, Note_on_c, 0, 63, 0
2, 74515, Note_on_c, 0, 78, 76
2, 74518, Note_on_c, 0, 63, 60
2, 74637, Note_on_c, 0, 78, 0
2, 74662, Note_on_c, 0, 60, 0
2, 74664, Note_on_c, 0, 77, 79
2, 74673, Note_on_c, 0, 65, 67
2, 74723, Note_on_c, 0, 63, 0
2, 74812, Note_on_c, 0, 66, 66
2, 74813, Note_on_c, 0, 75, 77
2, 74911, Note_on_c, 0, 77, 0
2, 74944, Note_on_c, 0, 65, 0
2, 74960, Note_on_c, 0, 58, 68
2, 74967, Note_on_c, 0, 73, 80
2, 74999, Note_on_c, 0, 75, 0
2, 75115, Note_on_c, 0, 73, 0
2, 75118, Note_on_c, 0, 72, 80
2, 75119, Note_on_c, 0, 56, 61
2, 75125, Note_on_c, 0, 58, 0
2, 75261, Note_on_c, 0, 70, 71
2, 75264, Note_on_c, 0, 54, 62
2, 75272, Note_on_c, 0, 56, 0
2, 75308, Note_on_c, 0, 66, 0
2, 75409, Note_on_c, 0, 54, 0
2, 75427, Note_on_c, 0, 68, 74
2, 75431, Note_on_c, 0, 53, 58
2, 75460, Note_on_c, 0, 70, 0
2, 75528, Note_on_c, 0, 72, 0
2, 75612, Note_on_c, 0, 53, 0
2, 75647, Note_on_c, 0, 53, 7
2, 75739, Note_on_c, 0, 70, 62
2, 75741, Note_on_c, 0, 68, 0
2, 75749, Note_on_c, 0, 65, 57
2, 75751, Note_on_c, 0, 49, 55
2, 75787, Note_on_c, 0, 53, 0
2, 75868, Note_on_c, 0, 65, 0
2, 75875, Note_on_c, 0, 70, 0
2, 75891, Note_on_c, 0, 51, 58
2, 75893, Note_on_c, 0, 49, 0
2, 75900, Note_on_c, 0, 72, 52
2, 75901, Note_on_c, 0, 63, 50
2, 75936, Note_on_c, 0, 63, 0
2, 76038, Note_on_c, 0, 51, 0
2, 76056, Note_on_c, 0, 61, 47
2, 76056, Note_on_c, 0, 73, 62
2, 76059, Note_on_c, 0, 72, 0
2, 76061, Note_on_c, 0, 53, 53
2, 76131, Note_on_c, 0, 53, 0
2, 76188, Note_on_c, 0, 61, 0
2, 76347, Note_on_c, 0, 56, 49
2, 76354, Note_on_c, 0, 53, 45
2, 76481, Note_on_c, 0, 53, 0
2, 76487, Note_on_c, 0, 58, 60
2, 76514, Note_on_c, 0, 56, 0
2, 76519, Note_on_c, 0, 55, 42
2, 76645, Note_on_c, 0, 58, 0
2, 76648, Note_on_c, 0, 56, 58
2, 76658, Note_on_c, 0, 60, 48
2, 76669, Note_on_c, 0, 73, 0
2, 76684, Note_on_c, 0, 55, 0
2, 76762, Note_on_c, 0, 60, 0
2, 76962, Note_on_c, 0, 75, 58
2, 76970, Note_on_c, 0, 60, 47
2, 77096, Note_on_c, 0, 60, 0
2, 77101, Note_on_c, 0, 73, 51
2, 77101, Note_on_c, 0, 75, 0
2, 77112, Note_on_c, 0, 61, 42
2, 77212, Note_on_c, 0, 56, 0
2, 77267, Note_on_c, 0, 63, 50
2, 77267, Note_on_c, 0, 73, 0
2, 77278, Note_on_c, 0, 72, 58
2, 77350, Note_on_c, 0, 61, 0
2, 77416, Note_on_c, 0, 54, 49
2, 77418, Note_on_c, 0, 70, 54
2, 77540, Note_on_c, 0, 54, 0
2, 77560, Note_on_c, 0, 53, 55
2, 77579, Note_on_c, 0, 68, 54
2, 77716, Note_on_c, 0, 70, 0
2, 77719, Note_on_c, 0, 51, 53
2, 77728, Note_on_c, 0, 66, 55
2, 77737, Note_on_c, 0, 72, 0
2, 77776, Note_on_c, 0, 53, 0
2, 77813, Note_on_c, 0, 66, 0
2, 77878, Note_on_c, 0, 49, 48
2, 77884, Note_on_c, 0, 51, 0
2, 77887, Note_on_c, 0, 65, 62
2, 77915, Note_on_c, 0, 63, 0
2, 77949, Note_on_c, 0, 68, 0
2, 78190, Note_on_c, 0, 65, 0
2, 78196, Note_on_c, 0, 67, 44
2, 78207, Note_on_c, 0, 61, 44
2, 78214, Note_on_c, 0, 46, 52
2, 78247, Note_on_c, 0, 61, 0
2, 78257, Note_on_c, 0, 49, 0
2, 78352, Note_on_c, 0, 46, 0
2, 78355, Note_on_c, 0, 69, 50
2, 78361, Note_on_c, 0, 48, 51
2, 78381, Note_on_c, 0, 67, 0
2, 78388, Note_on_c, 0, 60, 29
2, 78489, Note_on_c, 0, 60, 0
2, 78494, Note_on_c, 0, 48, 0
2, 78512, Note_on_c, 0, 49, 52
2, 78522, Note_on_c, 0, 58, 45
2, 78525, Note_on_c, 0, 70, 49
2, 78574, Note_on_c, 0, 49, 0
2, 78612, Note_on_c, 0, 69, 0
2, 78651, Note_on_c, 0, 58, 0
2, 78832, Note_on_c, 0, 53, 59
2, 78979, Note_on_c, 0, 51, 42
2, 79021, Note_on_c, 0, 53, 0
2, 79030, Note_on_c, 0, 54, 45
2, 79086, Note_on_c, 0, 70, 0
2, 79154, Note_on_c, 0, 56, 52
2, 79168, Note_on_c, 0, 53, 45
2, 79196, Note_on_c, 0, 51, 0
2, 79208, Note_on_c, 0, 56, 0
2, 79213, Note_on_c, 0, 54, 0
2, 79442, Note_on_c, 0, 56, 44
2, 79447, Note_on_c, 0, 72, 69
2, 79600, Note_on_c, 0, 58, 55
2, 79600, Note_on_c, 0, 70, 65
2, 79609, Control_c, 0, 64, 50
2, 79615, Note_on_c, 0, 56, 0
2, 79655, Note_on_c, 0, 72, 0
2, 79682, Note_on_c, 0, 53, 0
2, 79751, Note_on_c, 0, 68, 64
2, 79755, Note_on_c, 0, 60, 55
2, 79758, Note_on_c, 0, 70, 0
2, 79879, Note_on_c, 0, 68, 0
2, 79908, Note_on_c, 0, 58, 0
2, 79910, Note_on_c, 0, 67, 58
2, 79912, Note_on_c, 0, 51, 51
2, 80040, Note_on_c, 0, 51, 0
2, 80046, Note_on_c, 0, 49, 52
2, 80065, Note_on_c, 0, 65, 59
2, 80072, Note_on_c, 0, 60, 0
2, 80179, Note_on_c, 0, 67, 0
2, 80204, Note_on_c, 0, 48, 51
2, 80213, Note_on_c, 0, 63, 62
2, 80262, Note_on_c, 0, 65, 0
2, 80280, Note_on_c, 0, 49, 0
2, 80346, Note_on_c, 0, 48, 0
2, 80363, Note_on_c, 0, 46, 57
2, 80365, Note_on_c, 0, 61, 62
2, 80365, Note_on_c, 0, 63, 0
2, 80520, Note_on_c, 0, 48, 62
2, 80536, Note_on_c, 0, 46, 0
2, 80682, Note_on_c, 0, 48, 0
2, 80683, Note_on_c, 0, 49, 65
2, 80692, Note_on_c, 0, 58, 67
2, 80820, Note_on_c, 0, 49, 0
2, 80821, Note_on_c, 0, 61, 0
2, 80828, Note_on_c, 0, 48, 56
2, 80832, Note_on_c, 0, 58, 0
2, 80844, Note_on_c, 0, 60, 72
2, 81003, Note_on_c, 0, 48, 0
2, 81003, Note_on_c, 0, 61, 79
2, 81006, Note_on_c, 0, 46, 65
2, 81037, Note_on_c, 0, 60, 0
2, 81152, Note_on_c, 0, 44, 70
2, 81153, Note_on_c, 0, 65, 75
2, 81177, Note_on_c, 0, 46, 0
2, 81299, Note_on_c, 0, 70, 77
2, 81305, Note_on_c, 0, 43, 62
2, 81316, Note_on_c, 0, 65, 0
2, 81344, Note_on_c, 0, 44, 0
2, 81454, Note_on_c, 0, 68, 71
2, 81457, Note_on_c, 0, 41, 61
2, 81457, Note_on_c, 0, 43, 0
2, 81483, Note_on_c, 0, 70, 0
2, 81619, Note_on_c, 0, 68, 0
2, 81622, Note_on_c, 0, 67, 72
2, 81630, Note_on_c, 0, 39, 66
2, 81631, Note_on_c, 0, 41, 0
2, 81643, Note_on_c, 0, 61, 0
2, 81742, Control_c, 0, 64, 50
2, 81956, Note_on_c, 0, 46, 60
2, 81963, Note_on_c, 0, 63, 65
2, 81971, Note_on_c, 0, 67, 0
2, 82098, Note_on_c, 0, 61, 72
2, 82118, Note_on_c, 0, 63, 0
2, 82258, Note_on_c, 0, 39, 0
2, 82264, Note_on_c, 0, 63, 85
2, 82265, Note_on_c, 0, 68, 79
2, 82279, Note_on_c, 0, 48, 71
2, 82291, Note_on_c, 0, 61, 0
2, 82293, Note_on_c, 0, 46, 0
2, 82584, Note_on_c, 0, 44, 57
2, 82592, Note_on_c, 0, 48, 0
2, 82610, Note_on_c, 0, 61, 59
2, 82766, Note_on_c, 0, 60, 53
2, 82784, Note_on_c, 0, 63, 0
2, 82796, Note_on_c, 0, 60, 0
2, 82860, Note_on_c, 0, 61, 0
2, 82897, Note_on_c, 0, 68, 0
2, 82907, Note_on_c, 0, 49, 51
2, 82912, Note_on_c, 0, 58, 69
2, 82914, Note_on_c, 0, 65, 87
2, 82924, Note_on_c, 0, 44, 0
2, 83078, Note_on_c, 0, 67, 67
2, 83224, Note_on_c, 0, 67, 0
2, 83229, Note_on_c, 0, 46, 59
2, 83229, Note_on_c, 0, 49, 0
2, 83233, Note_on_c, 0, 68, 67
2, 83388, Note_on_c, 0, 68, 0
2, 83389, Note_on_c, 0, 70, 64
2, 83547, Note_on_c, 0, 63, 85
2, 83550, Note_on_c, 0, 51, 66
2, 83555, Note_on_c, 0, 72, 72
2, 83574, Note_on_c, 0, 65, 0
2, 83578, Note_on_c, 0, 58, 0
2, 83611, Note_on_c, 0, 46, 0
2, 83855, Note_on_c, 0, 56, 57
2, 83859, Note_on_c, 0, 48, 55
2, 83860, Note_on_c, 0, 51, 0
2, 84003, Note_on_c, 0, 56, 0
2, 84018, Note_on_c, 0, 55, 62
2, 84185, Note_on_c, 0, 53, 63
2, 84187, Note_on_c, 0, 55, 0
2, 84187, Note_on_c, 0, 62, 83
2, 84188, Note_on_c, 0, 63, 0
2, 84190, Note_on_c, 0, 48, 0
2, 84198, Note_on_c, 0, 56, 54
2, 84241, Note_on_c, 0, 70, 0
2, 84271, Note_on_c, 0, 72, 0
2, 84357, Note_on_c, 0, 68, 69
2, 84509, Note_on_c, 0, 55, 58
2, 84509, Note_on_c, 0, 56, 0
2, 84518, Note_on_c, 0, 46, 47
2, 84527, Note_on_c, 0, 70, 69
2, 84529, Note_on_c, 0, 53, 0
2, 84546, Note_on_c, 0, 68, 0
2, 84575, Control_c, 0, 64, 50
2, 84646, Note_on_c, 0, 46, 0
2, 84670, Note_on_c, 0, 55, 0
2, 84674, Note_on_c, 0, 72, 67
2, 84675, Note_on_c, 0, 56, 56
2, 84693, Note_on_c, 0, 62, 0
2, 84818, Note_on_c, 0, 70, 0
2, 84830, Note_on_c, 0, 67, 80
2, 84832, Note_on_c, 0, 73, 78
2, 84837, Note_on_c, 0, 58, 72
2, 84846, Note_on_c, 0, 56, 0
2, 84856, Note_on_c, 0, 70, 6
2, 84866, Note_on_c, 0, 72, 0
2, 84910, Control_c, 0, 64, 51
2, 84940, Control_c, 0, 64, 51
2, 84979, Note_on_c, 0, 70, 0
2, 84987, Note_on_c, 0, 56, 67
2, 85014, Note_on_c, 0, 58, 0
2, 85062, Control_c, 0, 64, 52
2, 85135, Note_on_c, 0, 56, 0
2, 85149, Note_on_c, 0, 51, 68
2, 85158, Note_on_c, 0, 55, 66
2, 85191, Note_on_c, 0, 67, 0
2, 85289, Note_on_c, 0, 51, 0
2, 85317, Note_on_c, 0, 49, 55
2, 85318, Note_on_c, 0, 55, 0
2, 85322, Note_on_c, 0, 53, 66
2, 85402, Note_on_c, 0, 49, 0
2, 85421, Note_on_c, 0, 73, 0
2, 85464, Note_on_c, 0, 68, 88
2, 85465, Note_on_c, 0, 51, 69
2, 85468, Note_on_c, 0, 48, 61
2, 85556, Note_on_c, 0, 53, 0
2, 85577, Note_on_c, 0, 51, 0
2, 85622, Note_on_c, 0, 72, 67
2, 85785, Note_on_c, 0, 73, 67
2, 85788, Note_on_c, 0, 56, 71
2, 85789, Note_on_c, 0, 53, 60
2, 85828, Note_on_c, 0, 48, 0
2, 85934, Note_on_c, 0, 75, 59
2, 86029, Note_on_c, 0, 72, 0
2, 86041, Note_on_c, 0, 53, 0
2, 86089, Note_on_c, 0, 61, 81
2, 86100, Note_on_c, 0, 77, 81
2, 86161, Note_on_c, 0, 73, 0
2, 86161, Note_on_c, 0, 75, 0
2, 86256, Note_on_c, 0, 55, 68
2, 86258, Note_on_c, 0, 51, 65
2, 86276, Note_on_c, 0, 56, 0
2, 86369, Note_on_c, 0, 51, 0
2, 86419, Note_on_c, 0, 56, 70
2, 86423, Note_on_c, 0, 61, 0
2, 86426, Note_on_c, 0, 53, 65
2, 86428, Note_on_c, 0, 55, 0
2, 86548, Note_on_c, 0, 53, 0
2, 86566, Note_on_c, 0, 58, 73
2, 86572, Note_on_c, 0, 55, 66
2, 86575, Note_on_c, 0, 56, 0
2, 86666, Note_on_c, 0, 58, 0
2, 86727, Note_on_c, 0, 55, 0
2, 86738, Note_on_c, 0, 60, 86
2, 86744, Note_on_c, 0, 56, 72
2, 86826, Note_on_c, 0, 68, 0
2, 86890, Note_on_c, 0, 77, 0
2, 86905, Note_on_c, 0, 55, 54
2, 86915, Note_on_c, 0, 75, 59
2, 87055, Note_on_c, 0, 53, 65
2, 87077, Note_on_c, 0, 77, 64
2, 87081, Note_on_c, 0, 75, 0
2, 87214, Note_on_c, 0, 51, 66
2, 87223, Note_on_c, 0, 79, 63
2, 87237, Note_on_c, 0, 60, 0
2, 87337, Note_on_c, 0, 51, 0
2, 87346, Note_on_c, 0, 53, 0
2, 87346, Note_on_c, 0, 55, 0
2, 87374, Note_on_c, 0, 59, 88
2, 87378, Note_on_c, 0, 50, 69
2, 87389, Note_on_c, 0, 80, 75
2, 87395, Note_on_c, 0, 56, 0
2, 87411, Note_on_c, 0, 77, 0
2, 87411, Note_on_c, 0, 79, 0
2, 87561, Note_on_c, 0, 53, 58
2, 87702, Note_on_c, 0, 55, 63
2, 87707, Note_on_c, 0, 53, 0
2, 87841, Note_on_c, 0, 55, 0
2, 87844, Note_on_c, 0, 56, 74
2, 87857, Note_on_c, 0, 59, 0
2, 87968, Control_c, 0, 64, 52
2, 88022, Note_on_c, 0, 58, 79
2, 88031, Note_on_c, 0, 51, 71
2, 88049, Note_on_c, 0, 56, 0
2, 88093, Note_on_c, 0, 50, 0
2, 88355, Note_on_c, 0, 79, 69
2, 88363, Note_on_c, 0, 50, 54
2, 88370, Note_on_c, 0, 51, 0
2, 88477, Control_c, 0, 64, 53
2, 88513, Note_on_c, 0, 77, 76
2, 88519, Note_on_c, 0, 80, 0
2, 88543, Note_on_c, 0, 79, 0
2, 88614, Control_c, 0, 64, 53
2, 88661, Note_on_c, 0, 52, 55
2, 88669, Note_on_c, 0, 79, 71
2, 88670, Note_on_c, 0, 58, 0
2, 88690, Control_c, 0, 64, 54
2, 88694, Note_on_c, 0, 77, 0
2, 88816, Note_on_c, 0, 55, 56
2, 88860, Note_on_c, 0, 52, 0
2, 88973, Note_on_c, 0, 53, 49
2, 88985, Note_on_c, 0, 55, 0
2, 88988, Note_on_c, 0, 50, 0
2, 88989, Note_on_c, 0, 48, 34
2, 89138, Note_on_c, 0, 53, 0
2, 89142, Note_on_c, 0, 52, 48
2, 89144, Note_on_c, 0, 48, 0
2, 89293, Note_on_c, 0, 52, 0
2, 89294, Note_on_c, 0, 53, 37
2, 89307, Note_on_c, 0, 56, 34
2, 89422, Note_on_c, 0, 53, 0
2, 89459, Note_on_c, 0, 56, 0
2, 89477, Note_on_c, 0, 72, 49
2, 89489, Control_c, 0, 64, 53
2, 89550, Control_c, 0, 64, 53
2, 89609, Note_on_c, 0, 72, 0
2, 89626, Control_c, 0, 64, 52
2, 89628, Note_on_c, 0, 79, 0
2, 89629, Note_on_c, 0, 74, 52
2, 89631, Note_on_c, 0, 53, 41
2, 89763, Note_on_c, 0, 51, 50
2, 89763, Note_on_c, 0, 74, 0
2, 89771, Note_on_c, 0, 75, 50
2, 89789, Note_on_c, 0, 53, 0
2, 89816, Control_c, 0, 64, 52
2, 89917, Note_on_c, 0, 75, 0
2, 89925, Note_on_c, 0, 77, 62
2, 89928, Note_on_c, 0, 50, 39
2, 89960, Note_on_c, 0, 51, 0
2, 89979, Note_on_c, 0, 50, 0
2, 90082, Note_on_c, 0, 71, 52
2, 90229, Note_on_c, 0, 71, 0
2, 90245, Note_on_c, 0, 72, 58
2, 90262, Note_on_c, 0, 50, 31
2, 90382, Note_on_c, 0, 48, 48
2, 90391, Note_on_c, 0, 72, 0
2, 90396, Note_on_c, 0, 74, 53
2, 90406, Note_on_c, 0, 77, 0
2, 90425, Note_on_c, 0, 50, 0
2, 90517, Note_on_c, 0, 48, 0
2, 90539, Note_on_c, 0, 74, 0
2, 90544, Note_on_c, 0, 47, 43
2, 90547, Note_on_c, 0, 67, 61
2, 90692, Note_on_c, 0, 47, 0
2, 90715, Note_on_c, 0, 43, 53
2, 90865, Note_on_c, 0, 45, 55
2, 90867, Note_on_c, 0, 75, 69
2, 90963, Note_on_c, 0, 43, 0
2, 91002, Note_on_c, 0, 47, 57
2, 91005, Note_on_c, 0, 45, 0
2, 91006, Note_on_c, 0, 74, 69
2, 91037, Note_on_c, 0, 75, 0
2, 91128, Note_on_c, 0, 67, 0
2, 91154, Note_on_c, 0, 47, 0
2, 91164, Note_on_c, 0, 48, 58
2, 91167, Note_on_c, 0, 75, 78
2, 91172, Note_on_c, 0, 74, 0
2, 91319, Note_on_c, 0, 44, 55
2, 91326, Note_on_c, 0, 48, 0
2, 91473, Note_on_c, 0, 46, 60
2, 91476, Note_on_c, 0, 66, 67
2, 91545, Note_on_c, 0, 44, 0
2, 91585, Note_on_c, 0, 66, 0
2, 91630, Note_on_c, 0, 48, 60
2, 91638, Note_on_c, 0, 46, 0
2, 91775, Note_on_c, 0, 48, 0
2, 91785, Note_on_c, 0, 49, 54
2, 91794, Note_on_c, 0, 65, 66
2, 91950, Note_on_c, 0, 68, 71
2, 91953, Note_on_c, 0, 65, 0
2, 91959, Note_on_c, 0, 49, 0
2, 92101, Note_on_c, 0, 70, 73
2, 92106, Note_on_c, 0, 49, 55
2, 92136, Note_on_c, 0, 75, 0
2, 92253, Note_on_c, 0, 48, 61
2, 92253, Note_on_c, 0, 72, 74
2, 92263, Note_on_c, 0, 68, 0
2, 92282, Note_on_c, 0, 49, 0
2, 92401, Note_on_c, 0, 73, 82
2, 92411, Note_on_c, 0, 46, 62
2, 92416, Note_on_c, 0, 48, 0
2, 92417, Note_on_c, 0, 70, 0
2, 92530, Note_on_c, 0, 46, 0
2, 92553, Note_on_c, 0, 67, 73
2, 92695, Note_on_c, 0, 72, 0
2, 92717, Note_on_c, 0, 68, 75
2, 92722, Note_on_c, 0, 67, 0
2, 92724, Note_on_c, 0, 46, 64
2, 92857, Note_on_c, 0, 70, 72
2, 92874, Note_on_c, 0, 46, 0
2, 92878, Note_on_c, 0, 44, 65
2, 92933, Note_on_c, 0, 73, 0
2, 92981, Note_on_c, 0, 68, 0
2, 93022, Note_on_c, 0, 63, 75
2, 93028, Note_on_c, 0, 43, 62
2, 93122, Note_on_c, 0, 44, 0
2, 93165, Note_on_c, 0, 43, 0
2, 93200, Note_on_c, 0, 39, 66
2, 93349, Note_on_c, 0, 41, 63
2, 93353, Note_on_c, 0, 72, 76
2, 93361, Note_on_c, 0, 39, 0
2, 93372, Note_on_c, 0, 70, 0
2, 93495, Note_on_c, 0, 70, 74
2, 93509, Note_on_c, 0, 43, 62
2, 93523, Note_on_c, 0, 41, 0
2, 93536, Note_on_c, 0, 72, 0
2, 93588, Note_on_c, 0, 63, 0
2, 93661, Note_on_c, 0, 72, 82
2, 93664, Note_on_c, 0, 44, 72
2, 93696, Note_on_c, 0, 43, 0
2, 93810, Note_on_c, 0, 66, 64
2, 93821, Note_on_c, 0, 41, 58
2, 93837, Note_on_c, 0, 44, 0
2, 93960, Note_on_c, 0, 70, 0
2, 93973, Note_on_c, 0, 65, 66
2, 93983, Note_on_c, 0, 43, 57
2, 94001, Note_on_c, 0, 66, 0
2, 94112, Note_on_c, 0, 65, 0
2, 94129, Note_on_c, 0, 45, 64
2, 94132, Note_on_c, 0, 63, 64
2, 94136, Note_on_c, 0, 41, 0
2, 94141, Note_on_c, 0, 43, 0
2, 94172, Note_on_c, 0, 72, 0
2, 94285, Note_on_c, 0, 61, 81
2, 94292, Note_on_c, 0, 63, 0
2, 94295, Note_on_c, 0, 46, 64
2, 94303, Note_on_c, 0, 45, 0
2, 94458, Note_on_c, 0, 45, 63
2, 94486, Note_on_c, 0, 46, 0
2, 94615, Note_on_c, 0, 46, 62
2, 94618, Note_on_c, 0, 65, 69
2, 94625, Note_on_c, 0, 45, 0
2, 94753, Note_on_c, 0, 46, 0
2, 94765, Note_on_c, 0, 48, 59
2, 94914, Note_on_c, 0, 70, 85
2, 94927, Note_on_c, 0, 49, 59
2, 94939, Note_on_c, 0, 48, 0
2, 94948, Note_on_c, 0, 65, 0
2, 95085, Note_on_c, 0, 46, 59
2, 95089, Note_on_c, 0, 49, 0
2, 95233, Note_on_c, 0, 68, 67
2, 95236, Note_on_c, 0, 48, 53
2, 95284, Note_on_c, 0, 70, 0
2, 95313, Note_on_c, 0, 46, 0
2, 95376, Note_on_c, 0, 48, 0
2, 95383, Note_on_c, 0, 49, 61
2, 95514, Note_on_c, 0, 61, 0
2, 95515, Note_on_c, 0, 68, 0
2, 95528, Note_on_c, 0, 67, 81
2, 95552, Note_on_c, 0, 51, 72
2, 95565, Note_on_c, 0, 49, 0
2, 95682, Note_on_c, 0, 58, 61
2, 95685, Note_on_c, 0, 51, 0
2, 95840, Note_on_c, 0, 67, 0
2, 95848, Note_on_c, 0, 51, 62
2, 95850, Note_on_c, 0, 60, 72
2, 95891, Note_on_c, 0, 58, 0
2, 95993, Note_on_c, 0, 61, 69
2, 95996, Note_on_c, 0, 60, 0
2, 96000, Note_on_c, 0, 49, 64
2, 96009, Note_on_c, 0, 51, 0
2, 96121, Note_on_c, 0, 61, 0
2, 96146, Note_on_c, 0, 63, 79
2, 96153, Note_on_c, 0, 48, 71
2, 96264, Note_on_c, 0, 49, 0
2, 96270, Note_on_c, 0, 48, 0
2, 96308, Note_on_c, 0, 67, 65
2, 96463, Note_on_c, 0, 68, 70
2, 96487, Note_on_c, 0, 48, 26
2, 96504, Note_on_c, 0, 50, 24
2, 96572, Note_on_c, 0, 50, 0
2, 96611, Note_on_c, 0, 70, 69
2, 96614, Note_on_c, 0, 46, 57
2, 96617, Note_on_c, 0, 67, 0
2, 96651, Note_on_c, 0, 48, 0
2, 96757, Note_on_c, 0, 63, 0
2, 96773, Note_on_c, 0, 44, 63
2, 96779, Note_on_c, 0, 72, 83
2, 96817, Note_on_c, 0, 68, 0
2, 96838, Note_on_c, 0, 46, 0
2, 96881, Note_on_c, 0, 44, 0
2, 96939, Note_on_c, 0, 63, 61
2, 96966, Control_c, 0, 64, 52
2, 97094, Note_on_c, 0, 56, 55
2, 97097, Note_on_c, 0, 70, 0
2, 97102, Note_on_c, 0, 65, 70
2, 97120, Note_on_c, 0, 72, 0
2, 97169, Note_on_c, 0, 63, 0
2, 97241, Note_on_c, 0, 55, 60
2, 97253, Note_on_c, 0, 67, 73
2, 97259, Note_on_c, 0, 56, 0
2, 97262, Note_on_c, 0, 65, 0
2, 97347, Control_c, 0, 64, 53
2, 97379, Note_on_c, 0, 67, 0
2, 97406, Note_on_c, 0, 68, 89
2, 97407, Note_on_c, 0, 53, 67
2, 97418, Note_on_c, 0, 55, 0
2, 97539, Note_on_c, 0, 53, 0
2, 97580, Note_on_c, 0, 72, 65
2, 97738, Note_on_c, 0, 53, 64
2, 97744, Note_on_c, 0, 74, 69
2, 97766, Note_on_c, 0, 72, 0
2, 97884, Note_on_c, 0, 51, 69
2, 97886, Note_on_c, 0, 75, 70
2, 97891, Note_on_c, 0, 53, 0
2, 97941, Note_on_c, 0, 74, 0
2, 98049, Note_on_c, 0, 77, 87
2, 98050, Note_on_c, 0, 50, 72
2, 98063, Note_on_c, 0, 51, 0
2, 98079, Note_on_c, 0, 75, 0
2, 98216, Note_on_c, 0, 72, 63
2, 98297, Note_on_c, 0, 50, 0
2, 98302, Note_on_c, 0, 68, 0
2, 98380, Note_on_c, 0, 70, 61
2, 98519, Note_on_c, 0, 68, 63
2, 98556, Note_on_c, 0, 77, 0
2, 98669, Note_on_c, 0, 68, 0
2, 98684, Note_on_c, 0, 70, 0
2, 98691, Note_on_c, 0, 51, 76
2, 98693, Note_on_c, 0, 58, 89
2, 98708, Note_on_c, 0, 67, 62
2, 98873, Note_on_c, 0, 70, 54
2, 99020, Note_on_c, 0, 70, 0
2, 99024, Note_on_c, 0, 72, 0
2, 99024, Note_on_c, 0, 75, 69
2, 99027, Note_on_c, 0, 55, 63
2, 99033, Note_on_c, 0, 67, 0
2, 99172, Note_on_c, 0, 67, 62
2, 99210, Note_on_c, 0, 75, 0
2, 99313, Note_on_c, 0, 55, 0
2, 99325, Note_on_c, 0, 60, 90
2, 99332, Note_on_c, 0, 65, 71
2, 99335, Note_on_c, 0, 51, 0
2, 99335, Note_on_c, 0, 56, 70
2, 99355, Note_on_c, 0, 58, 0
2, 99373, Note_on_c, 0, 67, 0
2, 99491, Note_on_c, 0, 75, 69
2, 99657, Note_on_c, 0, 74, 64
2, 99660, Note_on_c, 0, 53, 71
2, 99706, Note_on_c, 0, 60, 0
2, 99811, Note_on_c, 0, 74, 0
2, 99817, Note_on_c, 0, 72, 69
2, 99827, Note_on_c, 0, 75, 0
2, 99955, Note_on_c, 0, 65, 0
2, 99967, Note_on_c, 0, 58, 90
2, 99989, Note_on_c, 0, 74, 60
2, 100016, Note_on_c, 0, 56, 0
2, 100054, Note_on_c, 0, 53, 0
2, 100071, Note_on_c, 0, 72, 0
2, 100131, Note_on_c, 0, 75, 65
2, 100250, Note_on_c, 0, 74, 0
2, 100285, Note_on_c, 0, 46, 70
2, 100299, Note_on_c, 0, 75, 0
2, 100307, Note_on_c, 0, 72, 68
2, 100418, Note_on_c, 0, 46, 0
2, 100421, Note_on_c, 0, 58, 0
2, 100459, Note_on_c, 0, 74, 67
2, 100569, Note_on_c, 0, 72, 0
2, 100599, Note_on_c, 0, 48, 79
2, 100600, Note_on_c, 0, 57, 87
2, 100616, Note_on_c, 0, 75, 77
2, 100649, Note_on_c, 0, 74, 0
2, 100777, Note_on_c, 0, 72, 67
2, 100822, Note_on_c, 0, 75, 0
2, 100924, Note_on_c, 0, 60, 67
2, 100925, Note_on_c, 0, 57, 0
2, 100936, Note_on_c, 0, 74, 66
2, 100938, Note_on_c, 0, 72, 0
2, 101077, Note_on_c, 0, 58, 74
2, 101083, Note_on_c, 0, 75, 67
2, 101085, Note_on_c, 0, 74, 0
2, 101098, Note_on_c, 0, 60, 0
2, 101107, Note_on_c, 0, 48, 0
2, 101240, Note_on_c, 0, 56, 77
2, 101242, Note_on_c, 0, 62, 88
2, 101243, Note_on_c, 0, 77, 83
2, 101257, Note_on_c, 0, 75, 0
2, 101269, Note_on_c, 0, 58, 0
2, 101410, Note_on_c, 0, 75, 59
2, 101566, Note_on_c, 0, 58, 72
2, 101578, Note_on_c, 0, 56, 0
2, 101578, Note_on_c, 0, 74, 71
2, 101586, Note_on_c, 0, 77, 0
2, 101653, Note_on_c, 0, 62, 0
2, 101713, Control_c, 0, 64, 53
2, 101723, Note_on_c, 0, 56, 70
2, 101727, Note_on_c, 0, 74, 0
2, 101731, Note_on_c, 0, 72, 71
2, 101740, Note_on_c, 0, 75, 0
2, 101758, Note_on_c, 0, 58, 0
2, 101759, Note_on_c, 0, 72, 0
2, 101882, Note_on_c, 0, 55, 71
2, 101892, Note_on_c, 0, 63, 83
2, 101896, Note_on_c, 0, 70, 76
2, 101976, Note_on_c, 0, 56, 0
2, 101996, Note_on_c, 0, 55, 0
2, 102039, Note_on_c, 0, 55, 46
2, 102045, Note_on_c, 0, 53, 26
2, 102052, Note_on_c, 0, 60, 67
2, 102120, Note_on_c, 0, 63, 0
2, 102194, Note_on_c, 0, 46, 63
2, 102219, Note_on_c, 0, 62, 70
2, 102229, Note_on_c, 0, 53, 0
2, 102237, Note_on_c, 0, 60, 0
2, 102281, Note_on_c, 0, 55, 0
2, 102358, Note_on_c, 0, 48, 63
2, 102376, Note_on_c, 0, 63, 63
2, 102410, Note_on_c, 0, 46, 0
2, 102490, Note_on_c, 0, 62, 0
2, 102514, Note_on_c, 0, 48, 0
2, 102523, Note_on_c, 0, 56, 93
2, 102528, Note_on_c, 0, 50, 72
2, 102531, Note_on_c, 0, 65, 68
2, 102534, Note_on_c, 0, 63, 0
2, 102696, Note_on_c, 0, 63, 52
2, 102849, Note_on_c, 0, 48, 69
2, 102852, Note_on_c, 0, 50, 0
2, 102878, Note_on_c, 0, 62, 55
2, 102978, Note_on_c, 0, 70, 0
2, 103000, Note_on_c, 0, 50, 64
2, 103006, Note_on_c, 0, 65, 0
2, 103023, Note_on_c, 0, 60, 52
2, 103031, Note_on_c, 0, 56, 0
2, 103037, Note_on_c, 0, 48, 0
2, 103061, Note_on_c, 0, 60, 0
2, 103162, Note_on_c, 0, 55, 84
2, 103171, Note_on_c, 0, 51, 73
2, 103187, Note_on_c, 0, 50, 0
2, 103193, Note_on_c, 0, 58, 71
2, 103216, Note_on_c, 0, 62, 0
2, 103279, Control_c, 0, 64, 53
2, 103307, Note_on_c, 0, 63, 0
2, 103337, Note_on_c, 0, 68, 62
2, 103352, Note_on_c, 0, 51, 0
2, 103483, Note_on_c, 0, 51, 70
2, 103486, Note_on_c, 0, 67, 66
2, 103633, Note_on_c, 0, 55, 0
2, 103642, Note_on_c, 0, 50, 67
2, 103655, Note_on_c, 0, 65, 61
2, 103666, Note_on_c, 0, 51, 0
2, 103696, Control_c, 0, 64, 52
2, 103809, Note_on_c, 0, 54, 84
2, 103815, Note_on_c, 0, 48, 69
2, 103815, Note_on_c, 0, 50, 0
2, 103826, Note_on_c, 0, 63, 64
2, 103845, Note_on_c, 0, 58, 0
2, 103846, Note_on_c, 0, 67, 0
2, 103935, Note_on_c, 0, 48, 0
2, 104059, Note_on_c, 0, 65, 0
2, 104076, Control_c, 0, 64, 52
2, 104080, Note_on_c, 0, 68, 0
2, 104132, Note_on_c, 0, 48, 65
2, 104132, Note_on_c, 0, 63, 0
2, 104138, Note_on_c, 0, 57, 53
2, 104273, Note_on_c, 0, 46, 65
2, 104289, Note_on_c, 0, 57, 0
2, 104299, Note_on_c, 0, 58, 58
2, 104324, Note_on_c, 0, 54, 0
2, 104462, Note_on_c, 0, 46, 0
2, 104463, Note_on_c, 0, 45, 69
2, 104469, Note_on_c, 0, 53, 80
2, 104472, Note_on_c, 0, 48, 0
2, 104487, Note_on_c, 0, 60, 62
2, 104515, Note_on_c, 0, 58, 0
2, 104636, Note_on_c, 0, 63, 58
2, 104758, Note_on_c, 0, 60, 0
2, 104792, Note_on_c, 0, 65, 63
2, 104794, Note_on_c, 0, 63, 0
2, 104948, Note_on_c, 0, 63, 55
2, 105019, Note_on_c, 0, 65, 0
2, 105056, Control_c, 0, 64, 51
2, 105070, Note_on_c, 0, 45, 0
2, 105083, Note_on_c, 0, 46, 56
2, 105087, Note_on_c, 0, 62, 62
2, 105094, Note_on_c, 0, 63, 0
2, 105095, Note_on_c, 0, 58, 60
2, 105101, Control_c, 0, 64, 52
2, 105115, Note_on_c, 0, 62, 0
2, 105117, Control_c, 0, 64, 51
2, 105138, Note_on_c, 0, 58, 0
2, 105257, Note_on_c, 0, 72, 76
2, 105324, Control_c, 0, 64, 52
2, 105412, Note_on_c, 0, 70, 73
2, 105563, Note_on_c, 0, 68, 59
2, 105637, Note_on_c, 0, 68, 0
2, 105715, Note_on_c, 0, 51, 47
2, 105718, Note_on_c, 0, 72, 0
2, 105728, Note_on_c, 0, 67, 52
2, 105731, Note_on_c, 0, 53, 0
2, 105767, Note_on_c, 0, 46, 0
2, 105803, Note_on_c, 0, 70, 0
2, 106021, Note_on_c, 0, 67, 0
2, 106041, Note_on_c, 0, 70, 70
2, 106062, Note_on_c, 0, 63, 46
2, 106136, Note_on_c, 0, 63, 0
2, 106201, Note_on_c, 0, 65, 48
2, 106282, Note_on_c, 0, 65, 0
2, 106297, Note_on_c, 0, 70, 0
2, 106347, Note_on_c, 0, 75, 76
2, 106354, Note_on_c, 0, 67, 43
2, 106421, Note_on_c, 0, 51, 0
2, 106507, Note_on_c, 0, 67, 0
2, 106562, Control_c, 0, 64, 52
2, 106622, Control_c, 0, 64, 53
2, 106676, Note_on_c, 0, 51, 41
2, 106683, Note_on_c, 0, 67, 42
2, 106706, Control_c, 0, 64, 53
2, 106771, Note_on_c, 0, 67, 0
2, 106805, Note_on_c, 0, 51, 0
2, 106820, Note_on_c, 0, 68, 59
2, 106824, Note_on_c, 0, 53, 51
2, 106829, Note_on_c, 0, 75, 0
2, 106959, Note_on_c, 0, 53, 0
2, 106965, Note_on_c, 0, 68, 0
2, 106976, Note_on_c, 0, 55, 53
2, 106977, Note_on_c, 0, 70, 66
2, 107059, Note_on_c, 0, 55, 0
2, 107129, Note_on_c, 0, 79, 75
2, 107277, Note_on_c, 0, 55, 47
2, 107282, Note_on_c, 0, 58, 56
2, 107289, Note_on_c, 0, 77, 73
2, 107342, Note_on_c, 0, 79, 0
2, 107409, Note_on_c, 0, 58, 0
2, 107425, Note_on_c, 0, 75, 81
2, 107427, Note_on_c, 0, 60, 55
2, 107429, Note_on_c, 0, 56, 55
2, 107433, Note_on_c, 0, 77, 0
2, 107468, Note_on_c, 0, 55, 0
2, 107571, Note_on_c, 0, 75, 0
2, 107584, Note_on_c, 0, 70, 0
2, 107584, Note_on_c, 0, 74, 76
2, 107587, Note_on_c, 0, 56, 0
2, 107588, Note_on_c, 0, 62, 51
2, 107594, Note_on_c, 0, 60, 0
2, 107596, Note_on_c, 0, 58, 61
2, 107733, Note_on_c, 0, 62, 0
2, 107733, Note_on_c, 0, 68, 65
2, 107754, Note_on_c, 0, 60, 63
2, 107790, Note_on_c, 0, 60, 0
2, 107812, Note_on_c, 0, 58, 0
2, 107890, Note_on_c, 0, 67, 63
2, 107902, Note_on_c, 0, 46, 66
2, 107902, Note_on_c, 0, 58, 76
2, 107962, Note_on_c, 0, 74, 0
2, 108006, Note_on_c, 0, 68, 0
2, 108018, Note_on_c, 0, 67, 0
2, 108034, Note_on_c, 0, 46, 0
2, 108038, Note_on_c, 0, 65, 67
2, 108043, Note_on_c, 0, 56, 67
2, 108080, Note_on_c, 0, 58, 0
2, 108202, Note_on_c, 0, 63, 62
2, 108202, Note_on_c, 0, 65, 0
2, 108208, Note_on_c, 0, 48, 58
2, 108217, Note_on_c, 0, 55, 52
2, 108217, Note_on_c, 0, 56, 0
2, 108367, Note_on_c, 0, 62, 58
2, 108425, Note_on_c, 0, 63, 0
2, 108507, Note_on_c, 0, 62, 0
2, 108526, Note_on_c, 0, 67, 74
2, 108538, Note_on_c, 0, 60, 58
2, 108614, Note_on_c, 0, 60, 0
2, 108660, Note_on_c, 0, 67, 0
2, 108677, Note_on_c, 0, 62, 64
2, 108685, Control_c, 0, 64, 53
2, 108700, Control_c, 0, 64, 52
2, 108745, Control_c, 0, 64, 51
2, 108761, Control_c, 0, 64, 50
2, 108776, Control_c, 0, 64, 49
2, 108790, Control_c, 0, 64, 49
2, 108806, Control_c, 0, 64, 48
2, 108821, Control_c, 0, 64, 48
2, 108835, Note_on_c, 0, 72, 56
2, 108836, Control_c, 0, 64, 47
2, 108839, Note_on_c, 0, 48, 0
2, 108859, Note_on_c, 0, 63, 44
2, 108868, Note_on_c, 0, 62, 0
2, 108943, Note_on_c, 0, 63, 0
2, 109102, Control_c, 0, 64, 47
2, 109147, Control_c, 0, 64, 48
2, 109147, Note_on_c, 0, 55, 0
2, 109163, Control_c, 0, 64, 48
2, 109168, Note_on_c, 0, 63, 59
2, 109170, Note_on_c, 0, 48, 52
2, 109239, Control_c, 0, 64, 49
2, 109284, Control_c, 0, 64, 49
2, 109288, Note_on_c, 0, 63, 0
2, 109290, Note_on_c, 0, 72, 0
2, 109308, Note_on_c, 0, 48, 0
2, 109313, Note_on_c, 0, 50, 49
2, 109313, Note_on_c, 0, 65, 52
2, 109345, Control_c, 0, 64, 50
2, 109462, Note_on_c, 0, 51, 55
2, 109478, Note_on_c, 0, 65, 0
2, 109480, Note_on_c, 0, 67, 60
2, 109483, Control_c, 0, 64, 50
2, 109498, Note_on_c, 0, 50, 0
2, 109547, Note_on_c, 0, 51, 0
2, 109559, Control_c, 0, 64, 51
2, 109605, Control_c, 0, 64, 51
2, 109620, Control_c, 0, 64, 52
2, 109620, Note_on_c, 0, 75, 70
2, 109680, Control_c, 0, 64, 52
2, 109767, Note_on_c, 0, 51, 52
2, 109767, Note_on_c, 0, 74, 65
2, 109784, Note_on_c, 0, 55, 49
2, 109800, Note_on_c, 0, 67, 0
2, 109839, Control_c, 0, 64, 53
2, 109892, Note_on_c, 0, 51, 0
2, 109918, Note_on_c, 0, 55, 0
2, 109925, Note_on_c, 0, 72, 70
2, 109932, Note_on_c, 0, 75, 0
2, 109937, Note_on_c, 0, 56, 51
2, 109966, Note_on_c, 0, 74, 0
2, 110069, Note_on_c, 0, 56, 0
2, 110073, Note_on_c, 0, 70, 68
2, 110079, Note_on_c, 0, 55, 55
2, 110086, Note_on_c, 0, 72, 0
2, 110093, Note_on_c, 0, 58, 51
2, 110204, Note_on_c, 0, 55, 0
2, 110213, Note_on_c, 0, 58, 0
2, 110223, Note_on_c, 0, 56, 61
2, 110238, Note_on_c, 0, 65, 60
2, 110266, Note_on_c, 0, 56, 0
2, 110363, Note_on_c, 0, 65, 0
2, 110380, Note_on_c, 0, 43, 62
2, 110381, Note_on_c, 0, 55, 62
2, 110385, Note_on_c, 0, 63, 67
2, 110516, Note_on_c, 0, 55, 0
2, 110531, Note_on_c, 0, 61, 65
2, 110534, Note_on_c, 0, 43, 0
2, 110534, Note_on_c, 0, 53, 62
2, 110580, Note_on_c, 0, 70, 0
2, 110682, Note_on_c, 0, 61, 0
2, 110687, Note_on_c, 0, 60, 65
2, 110689, Note_on_c, 0, 51, 66
2, 110692, Note_on_c, 0, 44, 53
2, 110737, Note_on_c, 0, 53, 0
2, 110806, Note_on_c, 0, 60, 0
2, 110822, Note_on_c, 0, 63, 0
2, 110834, Note_on_c, 0, 58, 64
2, 110985, Note_on_c, 0, 63, 78
2, 110993, Note_on_c, 0, 58, 0
2, 111011, Note_on_c, 0, 56, 55
2, 111141, Note_on_c, 0, 58, 68
2, 111147, Note_on_c, 0, 56, 0
2, 111258, Note_on_c, 0, 44, 0
2, 111351, Note_on_c, 0, 68, 67
2, 111371, Note_on_c, 0, 58, 0
2, 111398, Note_on_c, 0, 60, 32
2, 111482, Note_on_c, 0, 60, 0
2, 111548, Note_on_c, 0, 63, 0
2, 111577, Note_on_c, 0, 51, 0
2, 111653, Note_on_c, 0, 60, 51
2, 111669, Note_on_c, 0, 44, 49
2, 111764, Note_on_c, 0, 60, 0
2, 111786, Note_on_c, 0, 46, 44
2, 111805, Note_on_c, 0, 62, 55
2, 111811, Note_on_c, 0, 68, 0
2, 111837, Note_on_c, 0, 44, 0
2, 111940, Control_c, 0, 64, 53
2, 111942, Note_on_c, 0, 62, 0
2, 111952, Note_on_c, 0, 63, 53
2, 111961, Note_on_c, 0, 48, 53
2, 111970, Control_c, 0, 64, 54
2, 112002, Note_on_c, 0, 46, 0
2, 112032, Control_c, 0, 64, 54
2, 112056, Note_on_c, 0, 48, 0
2, 112119, Note_on_c, 0, 72, 68
2, 112265, Note_on_c, 0, 51, 55
2, 112276, Note_on_c, 0, 70, 67
2, 112320, Note_on_c, 0, 72, 0
2, 112380, Note_on_c, 0, 51, 0
2, 112415, Note_on_c, 0, 50, 45
2, 112418, Note_on_c, 0, 53, 47
2, 112419, Note_on_c, 0, 68, 67
2, 112433, Note_on_c, 0, 70, 0
2, 112518, Note_on_c, 0, 63, 0
2, 112536, Note_on_c, 0, 50, 0
2, 112537, Note_on_c, 0, 68, 0
2, 112552, Note_on_c, 0, 53, 0
2, 112564, Note_on_c, 0, 67, 68
2, 112572, Note_on_c, 0, 55, 52
2, 112573, Note_on_c, 0, 51, 55
2, 112688, Note_on_c, 0, 55, 0
2, 112717, Note_on_c, 0, 53, 67
2, 112717, Note_on_c, 0, 62, 61
2, 112750, Note_on_c, 0, 53, 0
2, 112759, Note_on_c, 0, 51, 0
2, 112820, Note_on_c, 0, 67, 0
2, 112854, Note_on_c, 0, 62, 0
2, 112875, Note_on_c, 0, 51, 73
2, 112876, Note_on_c, 0, 60, 70
2, 112886, Note_on_c, 0, 39, 66
2, 112980, Note_on_c, 0, 51, 0
2, 112997, Note_on_c, 0, 39, 0
2, 113004, Note_on_c, 0, 60, 0
2, 113006, Note_on_c, 0, 50, 70
2, 113019, Note_on_c, 0, 58, 72
2, 113148, Note_on_c, 0, 58, 0
2, 113169, Note_on_c, 0, 56, 77
2, 113170, Note_on_c, 0, 48, 73
2, 113176, Note_on_c, 0, 41, 69
2, 113181, Note_on_c, 0, 50, 0
2, 113287, Note_on_c, 0, 41, 0
2, 113319, Note_on_c, 0, 65, 78
2, 113462, Note_on_c, 0, 43, 67
2, 113468, Note_on_c, 0, 50, 72
2, 113469, Note_on_c, 0, 68, 84
2, 113472, Note_on_c, 0, 47, 62
2, 113472, Note_on_c, 0, 48, 0
2, 113492, Note_on_c, 0, 56, 0
2, 113506, Note_on_c, 0, 65, 0
2, 113615, Note_on_c, 0, 51, 79
2, 113615, Note_on_c, 0, 67, 79
2, 113622, Note_on_c, 0, 50, 0
2, 113626, Note_on_c, 0, 43, 0
2, 113661, Note_on_c, 0, 47, 0
2, 113783, Note_on_c, 0, 65, 82
2, 113785, Note_on_c, 0, 48, 71
2, 113785, Note_on_c, 0, 51, 0
2, 113785, Note_on_c, 0, 53, 77
2, 113790, Note_on_c, 0, 44, 75
2, 113906, Note_on_c, 0, 48, 0
2, 113927, Note_on_c, 0, 63, 75
2, 113939, Note_on_c, 0, 44, 0
2, 113992, Note_on_c, 0, 67, 0
2, 114015, Control_c, 0, 64, 55
2, 114027, Note_on_c, 0, 68, 0
2, 114058, Note_on_c, 0, 65, 0
2, 114080, Note_on_c, 0, 54, 77
2, 114082, Note_on_c, 0, 45, 67
2, 114082, Note_on_c, 0, 62, 78
2, 114086, Note_on_c, 0, 63, 0
2, 114093, Note_on_c, 0, 53, 0
2, 114193, Note_on_c, 0, 45, 0
2, 114225, Note_on_c, 0, 62, 0
2, 114234, Note_on_c, 0, 60, 77
2, 114394, Note_on_c, 0, 54, 0
2, 114399, Note_on_c, 0, 43, 56
2, 114406, Note_on_c, 0, 60, 0
2, 114409, Note_on_c, 0, 59, 79
2, 114410, Note_on_c, 0, 55, 63
2, 114459, Note_on_c, 0, 43, 0
2, 114542, Note_on_c, 0, 55, 0
2, 114709, Note_on_c, 0, 59, 0
2, 114727, Note_on_c, 0, 55, 57
2, 114872, Note_on_c, 0, 57, 65
2, 114880, Note_on_c, 0, 55, 0
2, 115025, Note_on_c, 0, 79, 93
2, 115040, Note_on_c, 0, 59, 69
2, 115043, Note_on_c, 0, 57, 0
2, 115359, Note_on_c, 0, 57, 67
2, 115369, Note_on_c, 0, 59, 0
2, 115501, Note_on_c, 0, 59, 65
2, 115537, Note_on_c, 0, 57, 0
2, 115647, Note_on_c, 0, 59, 0
2, 115647, Note_on_c, 0, 80, 88
2, 115652, Note_on_c, 0, 60, 67
2, 115655, Note_on_c, 0, 79, 0
2, 115806, Note_on_c, 0, 60, 0
2, 115812, Note_on_c, 0, 59, 63
2, 115962, Note_on_c, 0, 60, 62
2, 115976, Note_on_c, 0, 72, 73
2, 115994, Note_on_c, 0, 59, 0
2, 115998, Note_on_c, 0, 80, 0
2, 116087, Note_on_c, 0, 60, 0
2, 116105, Note_on_c, 0, 62, 60
2, 116273, Note_on_c, 0, 79, 87
2, 116275, Note_on_c, 0, 63, 66
2, 116294, Note_on_c, 0, 62, 0
2, 116308, Note_on_c, 0, 72, 0
2, 116584, Note_on_c, 0, 70, 58
2, 116897, Note_on_c, 0, 69, 58
2, 116901, Note_on_c, 0, 78, 85
2, 116931, Note_on_c, 0, 70, 0
2, 117010, Note_on_c, 0, 63, 0
2, 117050, Note_on_c, 0, 79, 0
2, 117059, Note_on_c, 0, 60, 66
2, 117175, Note_on_c, 0, 69, 0
2, 117194, Note_on_c, 0, 62, 66
2, 117196, Note_on_c, 0, 60, 0
2, 117212, Note_on_c, 0, 70, 60
2, 117341, Note_on_c, 0, 63, 70
2, 117347, Note_on_c, 0, 62, 0
2, 117362, Note_on_c, 0, 72, 62
2, 117368, Note_on_c, 0, 70, 0
2, 117455, Note_on_c, 0, 72, 0
2, 117499, Note_on_c, 0, 63, 0
2, 117502, Note_on_c, 0, 65, 74
2, 117505, Note_on_c, 0, 74, 60
2, 117505, Note_on_c, 0, 83, 87
2, 117660, Note_on_c, 0, 83, 0
2, 117668, Note_on_c, 0, 72, 65
2, 117746, Note_on_c, 0, 78, 0
2, 117751, Note_on_c, 0, 74, 0
2, 117813, Note_on_c, 0, 72, 0
2, 117821, Note_on_c, 0, 71, 62
2, 117902, Note_on_c, 0, 71, 0
2, 117955, Note_on_c, 0, 69, 69
2, 117984, Note_on_c, 0, 69, 0
2, 118097, Note_on_c, 0, 84, 87
2, 118104, Note_on_c, 0, 67, 54
2, 118115, Note_on_c, 0, 65, 0
2, 118259, Note_on_c, 0, 63, 63
2, 118269, Note_on_c, 0, 67, 0
2, 118397, Note_on_c, 0, 84, 0
2, 118414, Note_on_c, 0, 65, 68
2, 118478, Note_on_c, 0, 63, 0
2, 118551, Note_on_c, 0, 65, 0
2, 118556, Note_on_c, 0, 67, 66
2, 118717, Note_on_c, 0, 77, 86
2, 118722, Note_on_c, 0, 68, 73
2, 118773, Note_on_c, 0, 67, 0
2, 118886, Note_on_c, 0, 55, 63
2, 119049, Note_on_c, 0, 56, 68
2, 119110, Note_on_c, 0, 77, 0
2, 119125, Note_on_c, 0, 55, 0
2, 119196, Note_on_c, 0, 58, 73
2, 119214, Note_on_c, 0, 56, 0
2, 119355, Note_on_c, 0, 76, 84
2, 119358, Note_on_c, 0, 60, 68
2, 119371, Note_on_c, 0, 58, 0
2, 119384, Note_on_c, 0, 68, 0
2, 119436, Control_c, 0, 64, 54
2, 119516, Note_on_c, 0, 67, 56
2, 119662, Note_on_c, 0, 69, 70
2, 119667, Note_on_c, 0, 76, 0
2, 119697, Note_on_c, 0, 67, 0
2, 119811, Note_on_c, 0, 69, 0
2, 119813, Note_on_c, 0, 71, 60
2, 119946, Note_on_c, 0, 60, 0
2, 119965, Note_on_c, 0, 75, 81
2, 119978, Note_on_c, 0, 72, 67
2, 120009, Note_on_c, 0, 71, 0
2, 120126, Note_on_c, 0, 60, 59
2, 120281, Note_on_c, 0, 62, 57
2, 120290, Note_on_c, 0, 60, 0
2, 120407, Note_on_c, 0, 75, 0
2, 120416, Note_on_c, 0, 63, 68
2, 120426, Note_on_c, 0, 62, 0
2, 120572, Note_on_c, 0, 74, 77
2, 120580, Note_on_c, 0, 65, 61
2, 120585, Note_on_c, 0, 63, 0
2, 120605, Note_on_c, 0, 72, 0
2, 120728, Note_on_c, 0, 62, 57
2, 120736, Note_on_c, 0, 65, 0
2, 120880, Note_on_c, 0, 71, 60
2, 120887, Note_on_c, 0, 63, 63
2, 120890, Note_on_c, 0, 62, 0
2, 120895, Control_c, 0, 64, 55
2, 121024, Note_on_c, 0, 71, 0
2, 121027, Note_on_c, 0, 65, 59
2, 121028, Note_on_c, 0, 69, 64
2, 121067, Note_on_c, 0, 63, 0
2, 121156, Note_on_c, 0, 65, 0
2, 121171, Note_on_c, 0, 67, 61
2, 121188, Note_on_c, 0, 71, 69
2, 121197, Note_on_c, 0, 69, 0
2, 121282, Control_c, 0, 64, 55
2, 121329, Note_on_c, 0, 71, 0
2, 121337, Note_on_c, 0, 68, 67
2, 121341, Note_on_c, 0, 72, 70
2, 121345, Note_on_c, 0, 67, 0
2, 121468, Note_on_c, 0, 74, 0
2, 121470, Note_on_c, 0, 68, 0
2, 121485, Note_on_c, 0, 67, 61
2, 121495, Note_on_c, 0, 71, 70
2, 121539, Note_on_c, 0, 72, 0
2, 121626, Note_on_c, 0, 71, 0
2, 121640, Note_on_c, 0, 67, 0
2, 121645, Note_on_c, 0, 74, 65
2, 121649, Note_on_c, 0, 65, 62
2, 121785, Note_on_c, 0, 65, 0
2, 121787, Note_on_c, 0, 74, 0
2, 121799, Note_on_c, 0, 63, 56
2, 121805, Note_on_c, 0, 67, 60
2, 121935, Note_on_c, 0, 63, 0
2, 121951, Note_on_c, 0, 65, 48
2, 121997, Control_c, 0, 64, 56
2, 122042, Control_c, 0, 64, 55
2, 122080, Control_c, 0, 64, 56
2, 122110, Note_on_c, 0, 63, 54
2, 122113, Note_on_c, 0, 65, 0
2, 122114, Note_on_c, 0, 72, 63
2, 122140, Control_c, 0, 64, 55
2, 122140, Note_on_c, 0, 67, 0
2, 122265, Note_on_c, 0, 74, 65
2, 122268, Note_on_c, 0, 62, 54
2, 122269, Note_on_c, 0, 63, 0
2, 122271, Note_on_c, 0, 72, 0
2, 122404, Note_on_c, 0, 62, 0
2, 122415, Note_on_c, 0, 75, 65
2, 122421, Note_on_c, 0, 60, 56
2, 122445, Note_on_c, 0, 74, 0
2, 122507, Note_on_c, 0, 60, 0
2, 122727, Note_on_c, 0, 67, 63
2, 122728, Note_on_c, 0, 60, 49
2, 122895, Note_on_c, 0, 58, 55
2, 122910, Note_on_c, 0, 60, 0
2, 123026, Note_on_c, 0, 58, 0
2, 123028, Note_on_c, 0, 60, 58
2, 123035, Note_on_c, 0, 57, 60
2, 123048, Note_on_c, 0, 67, 0
2, 123143, Note_on_c, 0, 57, 0
2, 123344, Note_on_c, 0, 72, 59
2, 123354, Note_on_c, 0, 57, 51
2, 123480, Note_on_c, 0, 57, 0
2, 123497, Note_on_c, 0, 70, 58
2, 123509, Note_on_c, 0, 55, 47
2, 123609, Note_on_c, 0, 72, 0
2, 123653, Note_on_c, 0, 55, 0
2, 123667, Note_on_c, 0, 69, 54
2, 123673, Note_on_c, 0, 53, 51
2, 123689, Note_on_c, 0, 70, 0
2, 123957, Note_on_c, 0, 69, 0
2, 123966, Note_on_c, 0, 70, 44
2, 123977, Note_on_c, 0, 55, 43
2, 124043, Note_on_c, 0, 53, 0
2, 124127, Note_on_c, 0, 72, 51
2, 124130, Note_on_c, 0, 55, 0
2, 124144, Note_on_c, 0, 57, 40
2, 124181, Note_on_c, 0, 70, 0
2, 124195, Note_on_c, 0, 60, 0
2, 124280, Note_on_c, 0, 57, 0
2, 124283, Note_on_c, 0, 72, 0
2, 124286, Note_on_c, 0, 65, 60
2, 124290, Note_on_c, 0, 58, 58
2, 124488, Note_on_c, 0, 65, 0
2, 124532, Note_on_c, 0, 75, 0
2, 124599, Note_on_c, 0, 74, 74
2, 124608, Note_on_c, 0, 65, 55
2, 124610, Note_on_c, 0, 70, 55
2, 124735, Note_on_c, 0, 65, 0
2, 124739, Note_on_c, 0, 75, 82
2, 124749, Note_on_c, 0, 63, 61
2, 124899, Note_on_c, 0, 77, 84
2, 124906, Note_on_c, 0, 62, 55
2, 124909, Note_on_c, 0, 63, 0
2, 124914, Note_on_c, 0, 74, 0
2, 124937, Note_on_c, 0, 75, 0
2, 124938, Note_on_c, 0, 70, 0
2, 124999, Note_on_c, 0, 58, 0
2, 125074, Note_on_c, 0, 62, 0
2, 125227, Note_on_c, 0, 68, 59
2, 125238, Note_on_c, 0, 62, 50
2, 125370, Note_on_c, 0, 62, 0
2, 125385, Note_on_c, 0, 60, 52
2, 125523, Note_on_c, 0, 60, 0
2, 125534, Note_on_c, 0, 59, 46
2, 125544, Note_on_c, 0, 67, 53
2, 125551, Note_on_c, 0, 68, 0
2, 125630, Note_on_c, 0, 59, 0
2, 125859, Note_on_c, 0, 74, 59
2, 125863, Note_on_c, 0, 59, 42
2, 126015, Note_on_c, 0, 57, 53
2, 126018, Note_on_c, 0, 72, 57
2, 126029, Note_on_c, 0, 59, 0
2, 126035, Note_on_c, 0, 67, 0
2, 126159, Note_on_c, 0, 57, 0
2, 126167, Note_on_c, 0, 71, 59
2, 126168, Note_on_c, 0, 74, 0
2, 126170, Note_on_c, 0, 55, 47
2, 126185, Note_on_c, 0, 72, 0
2, 126478, Note_on_c, 0, 57, 45
2, 126480, Note_on_c, 0, 72, 58
2, 126497, Note_on_c, 0, 77, 0
2, 126524, Note_on_c, 0, 71, 0
2, 126618, Note_on_c, 0, 57, 0
2, 126622, Note_on_c, 0, 55, 0
2, 126622, Note_on_c, 0, 59, 56
2, 126636, Note_on_c, 0, 72, 0
2, 126637, Note_on_c, 0, 74, 54
2, 126769, Note_on_c, 0, 74, 0
2, 126784, Note_on_c, 0, 59, 0
2, 126793, Note_on_c, 0, 60, 55
2, 126800, Note_on_c, 0, 67, 66
2, 126939, Note_on_c, 0, 74, 80
2, 127083, Note_on_c, 0, 76, 86
2, 127090, Note_on_c, 0, 58, 60
2, 127121, Note_on_c, 0, 74, 0
2, 127172, Note_on_c, 0, 60, 0
2, 127211, Note_on_c, 0, 76, 0
2, 127220, Note_on_c, 0, 79, 83
2, 127233, Note_on_c, 0, 56, 66
2, 127256, Note_on_c, 0, 67, 0
2, 127256, Note_on_c, 0, 67, 3
2, 127261, Note_on_c, 0, 58, 0
2, 127376, Note_on_c, 0, 67, 0
2, 127401, Note_on_c, 0, 55, 58
2, 127405, Note_on_c, 0, 70, 71
2, 127414, Note_on_c, 0, 79, 0
2, 127453, Note_on_c, 0, 56, 0
2, 127454, Note_on_c, 0, 73, 25
2, 127492, Note_on_c, 0, 73, 0
2, 127546, Note_on_c, 0, 55, 0
2, 127715, Control_c, 0, 64, 55
2, 127723, Note_on_c, 0, 61, 63
2, 127738, Note_on_c, 0, 55, 49
2, 127891, Note_on_c, 0, 53, 58
2, 127893, Note_on_c, 0, 55, 0
2, 127949, Note_on_c, 0, 61, 0
2, 127975, Control_c, 0, 64, 54
2, 128055, Note_on_c, 0, 52, 49
2, 128058, Note_on_c, 0, 60, 63
2, 128063, Note_on_c, 0, 53, 0
2, 128175, Note_on_c, 0, 52, 0
2, 128395, Note_on_c, 0, 52, 43
2, 128403, Note_on_c, 0, 67, 63
2, 128485, Control_c, 0, 64, 54
2, 128540, Note_on_c, 0, 65, 59
2, 128542, Note_on_c, 0, 50, 51
2, 128548, Note_on_c, 0, 52, 0
2, 128591, Note_on_c, 0, 60, 0
2, 128621, Control_c, 0, 64, 53
2, 128710, Note_on_c, 0, 48, 50
2, 128710, Note_on_c, 0, 64, 54
2, 128731, Note_on_c, 0, 67, 0
2, 128741, Note_on_c, 0, 50, 0
2, 128759, Note_on_c, 0, 65, 0
2, 129024, Note_on_c, 0, 50, 50
2, 129038, Note_on_c, 0, 65, 44
2, 129173, Note_on_c, 0, 48, 0
2, 129174, Note_on_c, 0, 52, 54
2, 129183, Note_on_c, 0, 70, 0
2, 129186, Note_on_c, 0, 64, 0
2, 129188, Note_on_c, 0, 50, 0
2, 129189, Note_on_c, 0, 67, 47
2, 129243, Note_on_c, 0, 65, 0
2, 129328, Note_on_c, 0, 52, 0
2, 129348, Note_on_c, 0, 53, 55
2, 129373, Note_on_c, 0, 60, 33
2, 129506, Note_on_c, 0, 55, 56
2, 129515, Note_on_c, 0, 53, 0
2, 129646, Note_on_c, 0, 55, 0
2, 129651, Note_on_c, 0, 56, 60
2, 129666, Note_on_c, 0, 60, 0
2, 129676, Note_on_c, 0, 65, 42
2, 129686, Note_on_c, 0, 68, 46
2, 129716, Note_on_c, 0, 67, 0
2, 129810, Note_on_c, 0, 58, 58
2, 129826, Note_on_c, 0, 56, 0
2, 129991, Note_on_c, 0, 58, 0
2, 129998, Note_on_c, 0, 48, 68
2, 130000, Note_on_c, 0, 67, 62
2, 130004, Note_on_c, 0, 60, 60
2, 130009, Note_on_c, 0, 65, 0
2, 130034, Note_on_c, 0, 68, 0
2, 130337, Note_on_c, 0, 64, 55
2, 130592, Control_c, 0, 64, 54
2, 130635, Note_on_c, 0, 64, 0
2, 130676, Note_on_c, 0, 49, 80
2, 130682, Note_on_c, 0, 65, 49
2, 130716, Note_on_c, 0, 48, 0
2, 130805, Control_c, 0, 64, 54
2, 130805, Note_on_c, 0, 67, 0
2, 130841, Note_on_c, 0, 64, 49
2, 130847, Note_on_c, 0, 65, 0
2, 130972, Control_c, 0, 64, 55
2, 130990, Note_on_c, 0, 58, 61
2, 130996, Note_on_c, 0, 64, 0
2, 131008, Note_on_c, 0, 65, 49
2, 131159, Note_on_c, 0, 65, 0
2, 131169, Note_on_c, 0, 67, 54
2, 131335, Note_on_c, 0, 48, 72
2, 131347, Note_on_c, 0, 58, 0
2, 131349, Note_on_c, 0, 67, 0
2, 131350, Note_on_c, 0, 68, 62
2, 131361, Control_c, 0, 64, 55
2, 131374, Note_on_c, 0, 49, 0
2, 131507, Note_on_c, 0, 67, 52
2, 131641, Note_on_c, 0, 67, 0
2, 131662, Note_on_c, 0, 56, 66
2, 131681, Control_c, 0, 64, 56
2, 131682, Note_on_c, 0, 65, 50
2, 131785, Note_on_c, 0, 48, 0
2, 131785, Note_on_c, 0, 65, 0
2, 131825, Note_on_c, 0, 63, 53
2, 131913, Note_on_c, 0, 60, 0
2, 131961, Note_on_c, 0, 47, 79
2, 131979, Note_on_c, 0, 63, 0
2, 131988, Note_on_c, 0, 62, 63
2, 132000, Control_c, 0, 64, 56
2, 132002, Note_on_c, 0, 56, 0
2, 132161, Note_on_c, 0, 65, 57
2, 132164, Note_on_c, 0, 68, 0
2, 132313, Note_on_c, 0, 55, 61
2, 132319, Note_on_c, 0, 65, 0
2, 132320, Note_on_c, 0, 67, 58
2, 132402, Control_c, 0, 64, 57
2, 132421, Note_on_c, 0, 47, 0
2, 132460, Note_on_c, 0, 53, 62
2, 132467, Note_on_c, 0, 68, 65
2, 132552, Note_on_c, 0, 55, 0
2, 132607, Note_on_c, 0, 52, 79
2, 132608, Note_on_c, 0, 53, 0
2, 132615, Note_on_c, 0, 70, 79
2, 132619, Note_on_c, 0, 62, 0
2, 132627, Note_on_c, 0, 55, 33
2, 132631, Note_on_c, 0, 67, 0
2, 132661, Note_on_c, 0, 68, 0
2, 132766, Note_on_c, 0, 55, 0
2, 132777, Note_on_c, 0, 58, 68
2, 132881, Control_c, 0, 64, 57
2, 132951, Note_on_c, 0, 61, 57
2, 132955, Note_on_c, 0, 56, 61
2, 132985, Note_on_c, 0, 58, 0
2, 133088, Note_on_c, 0, 56, 0
2, 133095, Note_on_c, 0, 55, 66
2, 133154, Note_on_c, 0, 61, 0
2, 133260, Note_on_c, 0, 53, 85
2, 133285, Note_on_c, 0, 55, 0
2, 133290, Note_on_c, 0, 52, 0
2, 133384, Control_c, 0, 64, 57
2, 133399, Control_c, 0, 64, 57
2, 133413, Control_c, 0, 64, 57
2, 133423, Note_on_c, 0, 68, 69
2, 133429, Control_c, 0, 64, 57
2, 133439, Note_on_c, 0, 70, 0
2, 133460, Control_c, 0, 64, 57
2, 133597, Note_on_c, 0, 60, 64
2, 133598, Note_on_c, 0, 70, 70
2, 133599, Note_on_c, 0, 55, 55
2, 133615, Note_on_c, 0, 53, 0
2, 133723, Note_on_c, 0, 68, 0
2, 133734, Note_on_c, 0, 72, 70
2, 133751, Note_on_c, 0, 55, 0
2, 133756, Note_on_c, 0, 56, 77
2, 133770, Control_c, 0, 64, 56
2, 133792, Note_on_c, 0, 60, 0
2, 133808, Note_on_c, 0, 70, 0
2, 133880, Note_on_c, 0, 56, 0
2, 133906, Note_on_c, 0, 58, 74
2, 133908, Note_on_c, 0, 73, 86
2, 133910, Note_on_c, 0, 46, 79
2, 133936, Control_c, 0, 64, 56
2, 133955, Note_on_c, 0, 72, 0
2, 134059, Note_on_c, 0, 53, 69
2, 134222, Note_on_c, 0, 51, 75
2, 134227, Note_on_c, 0, 53, 0
2, 134230, Note_on_c, 0, 66, 73
2, 134299, Note_on_c, 0, 58, 0
2, 134385, Note_on_c, 0, 49, 67
2, 134435, Note_on_c, 0, 51, 0
2, 134493, Note_on_c, 0, 49, 0
2, 134500, Note_on_c, 0, 66, 0
2, 134506, Note_on_c, 0, 46, 0
2, 134541, Note_on_c, 0, 45, 71
2, 134542, Note_on_c, 0, 49, 33
2, 134543, Note_on_c, 0, 49, 0
2, 134549, Note_on_c, 0, 48, 84
2, 134582, Note_on_c, 0, 73, 0
2, 134704, Note_on_c, 0, 72, 77
2, 134861, Note_on_c, 0, 74, 81
2, 134865, Note_on_c, 0, 65, 71
2, 134906, Note_on_c, 0, 72, 0
2, 135005, Note_on_c, 0, 76, 81
2, 135045, Note_on_c, 0, 74, 0
2, 135149, Note_on_c, 0, 65, 0
2, 135161, Note_on_c, 0, 45, 0
2, 135169, Note_on_c, 0, 44, 82
2, 135173, Note_on_c, 0, 77, 89
2, 135186, Note_on_c, 0, 48, 0
2, 135214, Note_on_c, 0, 76, 0
2, 135333, Note_on_c, 0, 65, 69
2, 135335, Note_on_c, 0, 50, 70
2, 135347, Note_on_c, 0, 77, 0
2, 135365, Control_c, 0, 64, 56
2, 135482, Note_on_c, 0, 52, 76
2, 135496, Note_on_c, 0, 67, 70
2, 135497, Note_on_c, 0, 65, 0
2, 135511, Note_on_c, 0, 50, 0
2, 135626, Note_on_c, 0, 67, 0
2, 135640, Note_on_c, 0, 53, 79
2, 135640, Note_on_c, 0, 68, 71
2, 135643, Note_on_c, 0, 52, 0
2, 135671, Control_c, 0, 64, 57
2, 135697, Note_on_c, 0, 44, 0
2, 135806, Note_on_c, 0, 68, 0
2, 135811, Note_on_c, 0, 70, 75
2, 135820, Note_on_c, 0, 43, 77
2, 135823, Note_on_c, 0, 55, 81
2, 135830, Note_on_c, 0, 53, 0
2, 135860, Note_on_c, 0, 45, 38
2, 135907, Note_on_c, 0, 45, 0
2, 135981, Control_c, 0, 64, 57
2, 136157, Note_on_c, 0, 76, 81
2, 136307, Note_on_c, 0, 74, 85
2, 136350, Note_on_c, 0, 76, 0
2, 136462, Note_on_c, 0, 76, 88
2, 136502, Note_on_c, 0, 74, 0
2, 136612, Note_on_c, 0, 45, 76
2, 136687, Note_on_c, 0, 55, 0
2, 136781, Note_on_c, 0, 46, 73
2, 136822, Note_on_c, 0, 43, 0
2, 136828, Note_on_c, 0, 45, 0
2, 136841, Note_on_c, 0, 70, 0
2, 136941, Note_on_c, 0, 48, 72
2, 137023, Control_c, 0, 64, 58
2, 137121, Note_on_c, 0, 41, 66
2, 137121, Note_on_c, 0, 49, 66
2, 137126, Note_on_c, 0, 46, 0
2, 137126, Note_on_c, 0, 77, 88
2, 137146, Note_on_c, 0, 48, 0
2, 137171, Note_on_c, 0, 76, 0
2, 137284, Note_on_c, 0, 48, 65
2, 137294, Note_on_c, 0, 73, 67
2, 137298, Note_on_c, 0, 49, 0
2, 137443, Note_on_c, 0, 49, 64
2, 137461, Note_on_c, 0, 72, 67
2, 137588, Note_on_c, 0, 72, 0
2, 137598, Note_on_c, 0, 51, 68
2, 137616, Note_on_c, 0, 70, 61
2, 137686, Note_on_c, 0, 51, 0
2, 137740, Note_on_c, 0, 41, 0
2, 137760, Note_on_c, 0, 69, 70
2, 137761, Note_on_c, 0, 53, 73
2, 137794, Note_on_c, 0, 48, 0
2, 137797, Note_on_c, 0, 73, 0
2, 137799, Note_on_c, 0, 70, 0
2, 137806, Note_on_c, 0, 49, 0
2, 137919, Note_on_c, 0, 75, 86
2, 137922, Note_on_c, 0, 41, 82
2, 138070, Note_on_c, 0, 43, 66
2, 138070, Note_on_c, 0, 69, 0
2, 138075, Note_on_c, 0, 73, 80
2, 138092, Note_on_c, 0, 77, 0
2, 138102, Note_on_c, 0, 41, 0
2, 138197, Note_on_c, 0, 53, 0
2, 138218, Note_on_c, 0, 43, 0
2, 138218, Note_on_c, 0, 45, 70
2, 138231, Note_on_c, 0, 72, 78
2, 138233, Note_on_c, 0, 75, 0
2, 138274, Note_on_c, 0, 73, 0
2, 138279, Note_on_c, 0, 45, 0
2, 138341, Note_on_c, 0, 72, 0
2, 138374, Note_on_c, 0, 73, 84
2, 138377, Note_on_c, 0, 46, 73
2, 138533, Note_on_c, 0, 72, 71
2, 138537, Note_on_c, 0, 53, 58
2, 138698, Note_on_c, 0, 70, 71
2, 138706, Note_on_c, 0, 55, 54
2, 138840, Note_on_c, 0, 68, 72
2, 138847, Note_on_c, 0, 55, 0
2, 138854, Note_on_c, 0, 56, 69
2, 138855, Note_on_c, 0, 53, 0
2, 138896, Note_on_c, 0, 70, 0
2, 138999, Note_on_c, 0, 72, 0
2, 139001, Note_on_c, 0, 68, 0
2, 139003, Note_on_c, 0, 56, 0
2, 139014, Note_on_c, 0, 67, 72
2, 139016, Note_on_c, 0, 58, 73
2, 139158, Note_on_c, 0, 70, 78
2, 139164, Note_on_c, 0, 49, 69
2, 139164, Note_on_c, 0, 65, 74
2, 139164, Note_on_c, 0, 67, 0
2, 139165, Note_on_c, 0, 73, 0
2, 139198, Note_on_c, 0, 46, 0
2, 139249, Control_c, 0, 64, 57
2, 139309, Note_on_c, 0, 72, 79
2, 139314, Note_on_c, 0, 63, 80
2, 139319, Note_on_c, 0, 48, 68
2, 139345, Note_on_c, 0, 65, 0
2, 139346, Note_on_c, 0, 49, 0
2, 139377, Note_on_c, 0, 63, 0
2, 139456, Note_on_c, 0, 46, 74
2, 139459, Note_on_c, 0, 73, 80
2, 139464, Note_on_c, 0, 48, 0
2, 139466, Note_on_c, 0, 61, 75
2, 139519, Note_on_c, 0, 70, 0
2, 139546, Note_on_c, 0, 72, 0
2, 139574, Note_on_c, 0, 61, 0
2, 139598, Note_on_c, 0, 58, 0
2, 139615, Note_on_c, 0, 73, 0
2, 139618, Note_on_c, 0, 48, 63
2, 139627, Note_on_c, 0, 60, 82
2, 139627, Note_on_c, 0, 64, 79
2, 139642, Note_on_c, 0, 46, 0
2, 139680, Note_on_c, 0, 68, 21
2, 139740, Note_on_c, 0, 68, 0
2, 139812, Note_on_c, 0, 58, 74
2, 139951, Note_on_c, 0, 58, 0
2, 139979, Note_on_c, 0, 72, 87
2, 139985, Note_on_c, 0, 56, 67
2, 140157, Note_on_c, 0, 55, 65
2, 140161, Note_on_c, 0, 56, 0
2, 140340, Note_on_c, 0, 56, 78
2, 140378, Note_on_c, 0, 55, 0
2, 140534, Note_on_c, 0, 67, 81
2, 140567, Note_on_c, 0, 60, 0
2, 140720, Note_on_c, 0, 68, 80
2, 140721, Note_on_c, 0, 64, 0
2, 140780, Note_on_c, 0, 67, 0
2, 140925, Note_on_c, 0, 65, 77
2, 140973, Note_on_c, 0, 56, 0
2, 141114, Note_on_c, 0, 56, 64
2, 141165, Note_on_c, 0, 65, 0
2, 141224, Note_on_c, 0, 56, 0
2, 141228, Note_on_c, 0, 55, 56
2, 141356, Note_on_c, 0, 56, 62
2, 141356, Note_on_c, 0, 65, 69
2, 141358, Note_on_c, 0, 55, 0
2, 141431, Control_c, 0, 64, 58
2, 141469, Note_on_c, 0, 56, 0
2, 141481, Note_on_c, 0, 55, 56
2, 141607, Note_on_c, 0, 56, 55
2, 141609, Note_on_c, 0, 55, 0
2, 141613, Note_on_c, 0, 64, 64
2, 141660, Note_on_c, 0, 72, 0
2, 141681, Note_on_c, 0, 65, 0
2, 141727, Note_on_c, 0, 56, 0
2, 141737, Note_on_c, 0, 55, 54
2, 141873, Note_on_c, 0, 56, 50
2, 141876, Note_on_c, 0, 55, 0
2, 141877, Note_on_c, 0, 62, 58
2, 141882, Note_on_c, 0, 64, 0
2, 141984, Note_on_c, 0, 68, 0
2, 141999, Note_on_c, 0, 56, 0
2, 142025, Note_on_c, 0, 55, 47
2, 142163, Note_on_c, 0, 55, 0
2, 142174, Note_on_c, 0, 56, 47
2, 142177, Note_on_c, 0, 65, 49
2, 142214, Note_on_c, 0, 62, 0
2, 142294, Note_on_c, 0, 65, 0
2, 142296, Note_on_c, 0, 56, 0
2, 142301, Note_on_c, 0, 64, 58
2, 142306, Note_on_c, 0, 55, 49
2, 142425, Note_on_c, 0, 55, 0
2, 142428, Note_on_c, 0, 64, 0
2, 142429, Note_on_c, 0, 56, 56
2, 142435, Note_on_c, 0, 65, 54
2, 142536, Note_on_c, 0, 56, 0
2, 142559, Note_on_c, 0, 55, 44
2, 142562, Note_on_c, 0, 65, 0
2, 142565, Note_on_c, 0, 64, 57
2, 142684, Note_on_c, 0, 64, 0
2, 142689, Note_on_c, 0, 55, 0
2, 142691, Note_on_c, 0, 56, 50
2, 142697, Note_on_c, 0, 65, 55
2, 142847, Note_on_c, 0, 56, 0
2, 142849, Note_on_c, 0, 64, 53
2, 142850, Note_on_c, 0, 55, 38
2, 142878, Note_on_c, 0, 65, 0
2, 143000, Note_on_c, 0, 64, 0
2, 143004, Note_on_c, 0, 56, 40
2, 143021, Note_on_c, 0, 65, 35
2, 143037, Note_on_c, 0, 55, 0
2, 143163, Note_on_c, 0, 48, 0
2, 143223, Note_on_c, 0, 55, 40
2, 143224, Note_on_c, 0, 64, 45
2, 143246, Note_on_c, 0, 56, 0
2, 143328, Note_on_c, 0, 65, 0
2, 144639, Control_c, 0, 64, 57
2, 144731, Control_c, 0, 64, 57
2, 144761, Control_c, 0, 64, 56
2, 145031, Note_on_c, 0, 65, 45
2, 145038, Note_on_c, 0, 60, 30
2, 145040, Note_on_c, 0, 57, 28
2, 145051, Note_on_c, 0, 41, 24
2, 145149, Note_on_c, 0, 55, 0
2, 145258, Note_on_c, 0, 64, 0
2, 148137, Note_on_c, 0, 41, 0
2, 148137, Note_on_c, 0, 57, 0
2, 148137, Note_on_c, 0, 60, 0
2, 148137, Note_on_c, 0, 65, 0
2, 148138, End_track
0, 0, End_of_file
