0, 0, Header, 1, 2, 480
1, 0, Start_track
1, 0, Tempo, 500000
1, 0, Time_signature, 4, 2, 24, 8
1, 1, End_track
2, 0, Start_track
2, 0, Program_c, 0, 0
2, 0, Control_c, 0, 64, 0
2, 940, Note_on_c, 0, 65, 47
2, 949, Note_on_c, 0, 56, 35
2, 955, Note_on_c, 0, 53, 30
2, 1307, Note_on_c, 0, 68, 55
2, 1597, Note_on_c, 0, 72, 54
2, 1658, Note_on_c, 0, 68, 0
2, 1877, Note_on_c, 0, 77, 55
2, 1951, Note_on_c, 0, 65, 0
2, 2186, Note_on_c, 0, 58, 41
2, 2188, Note_on_c, 0, 67, 56
2, 2189, Note_on_c, 0, 77, 0
2, 2240, Note_on_c, 0, 72, 0
2, 2359, Note_on_c, 0, 56, 0
2, 2500, Note_on_c, 0, 77, 61
2, 2790, Note_on_c, 0, 77, 0
2, 2805, Note_on_c, 0, 76, 62
2, 3099, Note_on_c, 0, 79, 66
2, 3143, Note_on_c, 0, 67, 0
2, 3308, Note_on_c, 0, 76, 0
2, 3400, Note_on_c, 0, 68, 67
2, 3410, Note_on_c, 0, 60, 42
2, 3532, Note_on_c, 0, 58, 0
2, 3642, Note_on_c, 0, 79, 0
2, 3686, Note_on_c, 0, 72, 64
2, 3979, Note_on_c, 0, 77, 60
2, 4263, Note_on_c, 0, 76, 65
2, 4298, Note_on_c, 0, 77, 0
2, 4545, Note_on_c, 0, 56, 41
2, 4574, Note_on_c, 0, 72, 0
2, 4595, Note_on_c, 0, 77, 63
2, 4596, Note_on_c, 0, 76, 0
2, 4678, Note_on_c, 0, 68, 0
2, 4815, Note_on_c, 0, 60, 0
2, 4906, Note_on_c, 0, 72, 51
2, 5184, Note_on_c, 0, 70, 58
2, 5401, Note_on_c, 0, 77, 0
2, 5459, Note_on_c, 0, 72, 0
2, 5475, Note_on_c, 0, 68, 63
2, 5762, Note_on_c, 0, 58, 35
2, 5799, Note_on_c, 0, 73, 66
2, 5819, Note_on_c, 0, 70, 0
2, 5850, Note_on_c, 0, 68, 0
2, 5903, Note_on_c, 0, 56, 0
2, 6113, Note_on_c, 0, 68, 57
2, 6401, Note_on_c, 0, 67, 44
2, 6453, Note_on_c, 0, 68, 0
2, 6700, Note_on_c, 0, 70, 54
2, 6708, Note_on_c, 0, 67, 0
2, 7005, Note_on_c, 0, 73, 0
2, 7006, Note_on_c, 0, 64, 50
2, 7020, Note_on_c, 0, 55, 34
2, 7179, Note_on_c, 0, 58, 0
2, 7330, Note_on_c, 0, 73, 64
2, 7349, Note_on_c, 0, 70, 0
2, 7619, Note_on_c, 0, 72, 61
2, 7684, Note_on_c, 0, 73, 0
2, 7921, Note_on_c, 0, 53, 0
2, 7925, Note_on_c, 0, 70, 66
2, 7990, Note_on_c, 0, 64, 0
2, 8029, Note_on_c, 0, 55, 0
2, 8147, Note_on_c, 0, 72, 0
2, 8263, Note_on_c, 0, 68, 54
2, 8280, Note_on_c, 0, 53, 51
2, 8290, Note_on_c, 0, 65, 38
2, 8373, Note_on_c, 0, 70, 0
2, 8572, Note_on_c, 0, 56, 62
2, 8641, Note_on_c, 0, 65, 0
2, 8874, Note_on_c, 0, 60, 60
2, 9155, Note_on_c, 0, 65, 52
2, 9157, Note_on_c, 0, 70, 72
2, 9165, Note_on_c, 0, 53, 0
2, 9260, Note_on_c, 0, 68, 0
2, 9443, Note_on_c, 0, 55, 56
2, 9480, Note_on_c, 0, 72, 59
2, 9496, Note_on_c, 0, 70, 0
2, 9522, Note_on_c, 0, 65, 0
2, 9598, Note_on_c, 0, 56, 0
2, 9654, Note_on_c, 0, 70, 63
2, 9654, Note_on_c, 0, 72, 0
2, 9747, Note_on_c, 0, 60, 0
2, 9765, Note_on_c, 0, 70, 0
2, 9781, Note_on_c, 0, 65, 60
2, 9781, Note_on_c, 0, 72, 65
2, 9887, Note_on_c, 0, 72, 0
2, 9892, Note_on_c, 0, 70, 65
2, 9962, Note_on_c, 0, 72, 55
2, 9968, Note_on_c, 0, 70, 0
2, 10050, Note_on_c, 0, 64, 65
2, 10066, Note_on_c, 0, 70, 69
2, 10072, Note_on_c, 0, 72, 0
2, 10094, Note_on_c, 0, 65, 0
2, 10147, Note_on_c, 0, 70, 0
2, 10147, Note_on_c, 0, 72, 58
2, 10220, Note_on_c, 0, 70, 67
2, 10247, Note_on_c, 0, 72, 0
2, 10309, Note_on_c, 0, 64, 0
2, 10322, Note_on_c, 0, 67, 59
2, 10339, Note_on_c, 0, 68, 73
2, 10355, Note_on_c, 0, 70, 0
2, 10469, Note_on_c, 0, 70, 74
2, 10530, Note_on_c, 0, 68, 0
2, 10632, Note_on_c, 0, 67, 0
2, 10639, Note_on_c, 0, 56, 53
2, 10665, Note_on_c, 0, 72, 76
2, 10708, Note_on_c, 0, 70, 0
2, 10740, Note_on_c, 0, 55, 0
2, 10982, Note_on_c, 0, 68, 55
2, 11270, Note_on_c, 0, 64, 50
2, 11339, Note_on_c, 0, 68, 0
2, 11563, Note_on_c, 0, 65, 49
2, 11579, Note_on_c, 0, 64, 0
2, 11854, Note_on_c, 0, 72, 0
2, 11856, Note_on_c, 0, 58, 43
2, 11871, Note_on_c, 0, 61, 52
2, 11898, Note_on_c, 0, 65, 0
2, 12036, Note_on_c, 0, 56, 0
2, 12175, Note_on_c, 0, 73, 63
2, 12465, Note_on_c, 0, 67, 61
2, 12514, Note_on_c, 0, 73, 0
2, 12581, Control_c, 0, 64, 53
2, 12600, Control_c, 0, 64, 66
2, 12619, Control_c, 0, 64, 74
2, 12639, Control_c, 0, 64, 90
2, 12658, Control_c, 0, 64, 127
2, 12751, Note_on_c, 0, 70, 73
2, 12784, Note_on_c, 0, 67, 0
2, 12840, Note_on_c, 0, 61, 0
2, 12909, Note_on_c, 0, 70, 0
2, 12985, Note_on_c, 0, 58, 0
2, 13133, Note_on_c, 0, 48, 62
2, 13135, Note_on_c, 0, 64, 61
2, 13151, Note_on_c, 0, 60, 46
2, 13196, Control_c, 0, 64, 119
2, 13215, Control_c, 0, 64, 101
2, 13234, Control_c, 0, 64, 87
2, 13253, Control_c, 0, 64, 75
2, 13273, Control_c, 0, 64, 66
2, 13291, Control_c, 0, 64, 57
2, 13311, Control_c, 0, 64, 44
2, 13330, Control_c, 0, 64, 38
2, 13350, Control_c, 0, 64, 37
2, 13368, Control_c, 0, 64, 31
2, 13388, Control_c, 0, 64, 0
2, 13455, Note_on_c, 0, 52, 64
2, 13666, Note_on_c, 0, 60, 0
2, 13748, Note_on_c, 0, 55, 67
2, 14015, Note_on_c, 0, 65, 65
2, 14022, Note_on_c, 0, 48, 0
2, 14024, Note_on_c, 0, 60, 59
2, 14092, Note_on_c, 0, 64, 0
2, 14327, Note_on_c, 0, 49, 67
2, 14340, Note_on_c, 0, 67, 53
2, 14341, Note_on_c, 0, 65, 0
2, 14393, Note_on_c, 0, 52, 0
2, 14448, Note_on_c, 0, 60, 0
2, 14488, Note_on_c, 0, 67, 0
2, 14500, Note_on_c, 0, 65, 59
2, 14603, Note_on_c, 0, 65, 0
2, 14614, Note_on_c, 0, 55, 0
2, 14629, Note_on_c, 0, 67, 60
2, 14635, Note_on_c, 0, 60, 67
2, 14709, Note_on_c, 0, 67, 0
2, 14731, Note_on_c, 0, 65, 57
2, 14792, Note_on_c, 0, 65, 0
2, 14814, Note_on_c, 0, 67, 53
2, 14893, Note_on_c, 0, 67, 0
2, 14898, Note_on_c, 0, 58, 64
2, 14906, Note_on_c, 0, 65, 62
2, 14937, Note_on_c, 0, 60, 0
2, 14982, Note_on_c, 0, 65, 0
2, 15003, Note_on_c, 0, 67, 59
2, 15074, Note_on_c, 0, 65, 59
2, 15115, Note_on_c, 0, 67, 0
2, 15178, Note_on_c, 0, 61, 56
2, 15185, Note_on_c, 0, 64, 65
2, 15193, Note_on_c, 0, 65, 0
2, 15198, Note_on_c, 0, 58, 0
2, 15324, Note_on_c, 0, 65, 63
2, 15334, Note_on_c, 0, 64, 0
2, 15468, Note_on_c, 0, 65, 0
2, 15491, Note_on_c, 0, 52, 49
2, 15523, Note_on_c, 0, 67, 61
2, 15612, Note_on_c, 0, 61, 0
2, 15644, Note_on_c, 0, 49, 0
2, 15834, Note_on_c, 0, 72, 64
2, 16125, Note_on_c, 0, 70, 65
2, 16135, Note_on_c, 0, 55, 54
2, 16141, Note_on_c, 0, 72, 0
2, 16446, Note_on_c, 0, 73, 72
2, 16478, Note_on_c, 0, 67, 0
2, 16660, Note_on_c, 0, 70, 0
2, 16748, Note_on_c, 0, 60, 65
2, 16753, Note_on_c, 0, 64, 63
2, 16769, Note_on_c, 0, 73, 0
2, 16877, Note_on_c, 0, 52, 0
2, 16902, Note_on_c, 0, 55, 0
2, 17061, Note_on_c, 0, 73, 76
2, 17352, Note_on_c, 0, 48, 67
2, 17367, Note_on_c, 0, 72, 78
2, 17408, Note_on_c, 0, 60, 0
2, 17409, Note_on_c, 0, 73, 0
2, 17457, Control_c, 0, 64, 46
2, 17476, Control_c, 0, 64, 64
2, 17495, Control_c, 0, 64, 71
2, 17515, Control_c, 0, 64, 82
2, 17534, Control_c, 0, 64, 98
2, 17542, Note_on_c, 0, 48, 0
2, 17554, Control_c, 0, 64, 127
2, 17670, Note_on_c, 0, 70, 83
2, 17694, Note_on_c, 0, 64, 0
2, 17773, Note_on_c, 0, 72, 0
2, 18057, Note_on_c, 0, 41, 74
2, 18072, Note_on_c, 0, 69, 76
2, 18076, Note_on_c, 0, 63, 57
2, 18109, Control_c, 0, 64, 107
2, 18128, Control_c, 0, 64, 95
2, 18148, Control_c, 0, 64, 85
2, 18164, Note_on_c, 0, 70, 0
2, 18166, Control_c, 0, 64, 75
2, 18186, Control_c, 0, 64, 68
2, 18205, Control_c, 0, 64, 63
2, 18225, Control_c, 0, 64, 59
2, 18243, Control_c, 0, 64, 56
2, 18262, Control_c, 0, 64, 55
2, 18282, Control_c, 0, 64, 52
2, 18300, Control_c, 0, 64, 48
2, 18320, Control_c, 0, 64, 39
2, 18339, Control_c, 0, 64, 21
2, 18359, Control_c, 0, 64, 0
2, 18418, Note_on_c, 0, 45, 67
2, 18702, Note_on_c, 0, 48, 70
2, 18963, Note_on_c, 0, 41, 0
2, 18970, Note_on_c, 0, 70, 78
2, 18976, Note_on_c, 0, 53, 67
2, 18991, Note_on_c, 0, 69, 0
2, 19008, Note_on_c, 0, 63, 0
2, 19278, Note_on_c, 0, 42, 69
2, 19287, Note_on_c, 0, 72, 65
2, 19290, Note_on_c, 0, 53, 0
2, 19301, Note_on_c, 0, 70, 0
2, 19303, Note_on_c, 0, 61, 47
2, 19351, Note_on_c, 0, 45, 0
2, 19472, Note_on_c, 0, 70, 63
2, 19478, Note_on_c, 0, 72, 0
2, 19564, Note_on_c, 0, 48, 0
2, 19580, Note_on_c, 0, 53, 68
2, 19590, Note_on_c, 0, 70, 0
2, 19593, Note_on_c, 0, 72, 70
2, 19700, Note_on_c, 0, 72, 0
2, 19703, Note_on_c, 0, 70, 69
2, 19788, Note_on_c, 0, 72, 62
2, 19791, Note_on_c, 0, 70, 0
2, 19845, Note_on_c, 0, 51, 68
2, 19884, Note_on_c, 0, 53, 0
2, 19884, Note_on_c, 0, 70, 64
2, 19893, Note_on_c, 0, 72, 0
2, 19961, Note_on_c, 0, 72, 58
2, 19967, Note_on_c, 0, 70, 0
2, 20051, Note_on_c, 0, 70, 62
2, 20088, Note_on_c, 0, 72, 0
2, 20125, Note_on_c, 0, 54, 62
2, 20129, Note_on_c, 0, 51, 0
2, 20148, Note_on_c, 0, 69, 74
2, 20178, Note_on_c, 0, 70, 0
2, 20293, Note_on_c, 0, 70, 75
2, 20337, Note_on_c, 0, 69, 0
2, 20446, Note_on_c, 0, 45, 45
2, 20474, Note_on_c, 0, 72, 71
2, 20496, Note_on_c, 0, 70, 0
2, 20554, Note_on_c, 0, 54, 0
2, 20559, Note_on_c, 0, 61, 0
2, 20569, Note_on_c, 0, 42, 0
2, 20766, Note_on_c, 0, 65, 56
2, 21067, Note_on_c, 0, 65, 0
2, 21081, Note_on_c, 0, 48, 46
2, 21087, Note_on_c, 0, 63, 53
2, 21386, Note_on_c, 0, 45, 0
2, 21400, Note_on_c, 0, 66, 64
2, 21557, Note_on_c, 0, 63, 0
2, 21695, Note_on_c, 0, 45, 48
2, 21794, Note_on_c, 0, 48, 0
2, 21801, Note_on_c, 0, 66, 0
2, 21995, Note_on_c, 0, 66, 51
2, 22280, Note_on_c, 0, 66, 0
2, 22305, Note_on_c, 0, 65, 45
2, 22320, Note_on_c, 0, 41, 38
2, 22462, Note_on_c, 0, 45, 0
2, 22580, Note_on_c, 0, 65, 0
2, 22606, Note_on_c, 0, 63, 47
2, 22936, Note_on_c, 0, 63, 0
2, 22942, Note_on_c, 0, 61, 50
2, 22948, Note_on_c, 0, 46, 36
2, 23043, Note_on_c, 0, 72, 0
2, 23158, Note_on_c, 0, 41, 0
2, 23265, Note_on_c, 0, 72, 56
2, 23554, Note_on_c, 0, 72, 0
2, 23563, Note_on_c, 0, 70, 60
2, 23872, Note_on_c, 0, 73, 59
2, 23923, Note_on_c, 0, 70, 0
2, 24188, Note_on_c, 0, 67, 49
2, 24204, Note_on_c, 0, 46, 0
2, 24228, Note_on_c, 0, 73, 0
2, 24492, Note_on_c, 0, 46, 46
2, 24765, Note_on_c, 0, 67, 0
2, 24789, Note_on_c, 0, 48, 44
2, 24811, Note_on_c, 0, 70, 57
2, 24824, Note_on_c, 0, 46, 0
2, 24941, Note_on_c, 0, 70, 0
2, 24962, Note_on_c, 0, 68, 57
2, 25049, Note_on_c, 0, 68, 0
2, 25065, Note_on_c, 0, 70, 59
2, 25087, Note_on_c, 0, 49, 49
2, 25088, Note_on_c, 0, 48, 0
2, 25134, Note_on_c, 0, 70, 0
2, 25152, Note_on_c, 0, 68, 55
2, 25224, Note_on_c, 0, 68, 0
2, 25233, Note_on_c, 0, 70, 60
2, 25297, Note_on_c, 0, 70, 0
2, 25307, Note_on_c, 0, 68, 38
2, 25419, Note_on_c, 0, 68, 0
2, 25425, Note_on_c, 0, 43, 43
2, 25429, Note_on_c, 0, 70, 72
2, 25542, Note_on_c, 0, 61, 0
2, 25572, Note_on_c, 0, 49, 0
2, 25754, Note_on_c, 0, 60, 54
2, 25842, Note_on_c, 0, 43, 0
2, 26052, Note_on_c, 0, 46, 49
2, 26064, Note_on_c, 0, 61, 60
2, 26126, Note_on_c, 0, 60, 0
2, 26371, Note_on_c, 0, 65, 65
2, 26427, Note_on_c, 0, 61, 0
2, 26454, Note_on_c, 0, 46, 0
2, 26680, Note_on_c, 0, 51, 55
2, 26684, Note_on_c, 0, 55, 55
2, 26735, Note_on_c, 0, 65, 0
2, 26972, Note_on_c, 0, 55, 0
2, 27002, Note_on_c, 0, 65, 60
2, 27078, Note_on_c, 0, 51, 0
2, 27334, Note_on_c, 0, 63, 49
2, 27348, Note_on_c, 0, 39, 47
2, 27366, Note_on_c, 0, 65, 0
2, 27555, Control_c, 0, 64, 28
2, 27575, Control_c, 0, 64, 55
2, 27594, Control_c, 0, 64, 63
2, 27604, Note_on_c, 0, 39, 0
2, 27614, Control_c, 0, 64, 66
2, 27632, Control_c, 0, 64, 71
2, 27652, Control_c, 0, 64, 81
2, 27670, Note_on_c, 0, 61, 52
2, 27671, Control_c, 0, 64, 104
2, 27690, Control_c, 0, 64, 127
2, 27698, Note_on_c, 0, 63, 0
2, 27876, Note_on_c, 0, 61, 0
2, 28065, Note_on_c, 0, 44, 37
2, 28112, Control_c, 0, 64, 117
2, 28124, Note_on_c, 0, 70, 0
2, 28131, Note_on_c, 0, 60, 45
2, 28132, Control_c, 0, 64, 101
2, 28151, Control_c, 0, 64, 91
2, 28170, Control_c, 0, 64, 82
2, 28189, Control_c, 0, 64, 72
2, 28209, Control_c, 0, 64, 65
2, 28228, Control_c, 0, 64, 57
2, 28247, Control_c, 0, 64, 49
2, 28266, Control_c, 0, 64, 44
2, 28286, Control_c, 0, 64, 42
2, 28305, Control_c, 0, 64, 31
2, 28324, Control_c, 0, 64, 0
2, 28456, Note_on_c, 0, 68, 65
2, 28467, Note_on_c, 0, 48, 39
2, 28742, Note_on_c, 0, 60, 0
2, 28760, Note_on_c, 0, 51, 44
2, 28765, Note_on_c, 0, 72, 66
2, 28823, Control_c, 0, 64, 46
2, 28843, Control_c, 0, 64, 60
2, 28846, Note_on_c, 0, 68, 0
2, 28861, Control_c, 0, 64, 65
2, 28881, Control_c, 0, 64, 70
2, 28900, Control_c, 0, 64, 79
2, 28920, Control_c, 0, 64, 97
2, 28938, Control_c, 0, 64, 127
2, 29045, Note_on_c, 0, 44, 0
2, 29061, Note_on_c, 0, 48, 0
2, 29061, Note_on_c, 0, 56, 57
2, 29248, Note_on_c, 0, 51, 0
2, 29343, Control_c, 0, 64, 118
2, 29352, Note_on_c, 0, 46, 51
2, 29361, Note_on_c, 0, 61, 60
2, 29363, Control_c, 0, 64, 107
2, 29370, Note_on_c, 0, 56, 0
2, 29382, Control_c, 0, 64, 100
2, 29400, Note_on_c, 0, 72, 0
2, 29401, Control_c, 0, 64, 92
2, 29420, Control_c, 0, 64, 83
2, 29440, Control_c, 0, 64, 74
2, 29459, Control_c, 0, 64, 67
2, 29477, Control_c, 0, 64, 61
2, 29497, Control_c, 0, 64, 56
2, 29516, Control_c, 0, 64, 54
2, 29535, Control_c, 0, 64, 54
2, 29554, Control_c, 0, 64, 52
2, 29574, Control_c, 0, 64, 48
2, 29593, Control_c, 0, 64, 39
2, 29612, Control_c, 0, 64, 11
2, 29631, Control_c, 0, 64, 0
2, 29663, Note_on_c, 0, 56, 50
2, 29677, Note_on_c, 0, 70, 77
2, 29948, Note_on_c, 0, 55, 55
2, 29969, Note_on_c, 0, 73, 77
2, 30001, Note_on_c, 0, 56, 0
2, 30021, Note_on_c, 0, 70, 0
2, 30024, Note_on_c, 0, 61, 0
2, 30033, Control_c, 0, 64, 27
2, 30053, Control_c, 0, 64, 53
2, 30072, Control_c, 0, 64, 63
2, 30091, Control_c, 0, 64, 67
2, 30110, Control_c, 0, 64, 72
2, 30130, Control_c, 0, 64, 81
2, 30149, Control_c, 0, 64, 94
2, 30168, Control_c, 0, 64, 109
2, 30187, Control_c, 0, 64, 127
2, 30236, Note_on_c, 0, 46, 0
2, 30266, Note_on_c, 0, 58, 71
2, 30374, Note_on_c, 0, 55, 0
2, 30455, Note_on_c, 0, 58, 0
2, 30531, Control_c, 0, 64, 121
2, 30543, Note_on_c, 0, 48, 59
2, 30549, Note_on_c, 0, 63, 76
2, 30550, Control_c, 0, 64, 116
2, 30570, Control_c, 0, 64, 111
2, 30588, Control_c, 0, 64, 105
2, 30593, Note_on_c, 0, 73, 0
2, 30608, Control_c, 0, 64, 100
2, 30627, Control_c, 0, 64, 94
2, 30646, Control_c, 0, 64, 85
2, 30665, Control_c, 0, 64, 77
2, 30685, Control_c, 0, 64, 69
2, 30704, Control_c, 0, 64, 62
2, 30723, Control_c, 0, 64, 51
2, 30742, Control_c, 0, 64, 39
2, 30762, Control_c, 0, 64, 30
2, 30780, Control_c, 0, 64, 15
2, 30800, Control_c, 0, 64, 0
2, 30858, Note_on_c, 0, 72, 83
2, 30861, Note_on_c, 0, 51, 57
2, 31119, Note_on_c, 0, 56, 59
2, 31154, Note_on_c, 0, 75, 88
2, 31176, Note_on_c, 0, 72, 0
2, 31203, Control_c, 0, 64, 28
2, 31223, Control_c, 0, 64, 55
2, 31230, Note_on_c, 0, 63, 0
2, 31243, Control_c, 0, 64, 64
2, 31261, Control_c, 0, 64, 68
2, 31281, Control_c, 0, 64, 76
2, 31300, Control_c, 0, 64, 90
2, 31320, Control_c, 0, 64, 110
2, 31338, Control_c, 0, 64, 127
2, 31427, Note_on_c, 0, 48, 0
2, 31455, Note_on_c, 0, 60, 65
2, 31485, Note_on_c, 0, 51, 0
2, 31665, Control_c, 0, 64, 121
2, 31684, Control_c, 0, 64, 113
2, 31698, Note_on_c, 0, 75, 0
2, 31703, Control_c, 0, 64, 108
2, 31723, Control_c, 0, 64, 104
2, 31735, Note_on_c, 0, 49, 63
2, 31741, Control_c, 0, 64, 100
2, 31743, Note_on_c, 0, 65, 77
2, 31755, Note_on_c, 0, 60, 0
2, 31761, Control_c, 0, 64, 93
2, 31780, Control_c, 0, 64, 86
2, 31800, Control_c, 0, 64, 78
2, 31818, Control_c, 0, 64, 71
2, 31837, Control_c, 0, 64, 64
2, 31857, Control_c, 0, 64, 58
2, 31875, Control_c, 0, 64, 51
2, 31895, Control_c, 0, 64, 48
2, 31914, Control_c, 0, 64, 45
2, 31934, Control_c, 0, 64, 29
2, 31951, Control_c, 0, 64, 0
2, 32016, Note_on_c, 0, 56, 0
2, 32026, Note_on_c, 0, 60, 63
2, 32030, Note_on_c, 0, 73, 83
2, 32283, Note_on_c, 0, 58, 64
2, 32340, Note_on_c, 0, 77, 87
2, 32342, Note_on_c, 0, 60, 0
2, 32350, Note_on_c, 0, 73, 0
2, 32413, Control_c, 0, 64, 29
2, 32431, Control_c, 0, 64, 51
2, 32451, Control_c, 0, 64, 64
2, 32470, Control_c, 0, 64, 71
2, 32490, Control_c, 0, 64, 86
2, 32508, Control_c, 0, 64, 127
2, 32509, Note_on_c, 0, 65, 0
2, 32600, Note_on_c, 0, 49, 0
2, 32612, Note_on_c, 0, 61, 75
2, 32925, Note_on_c, 0, 51, 54
2, 32936, Note_on_c, 0, 61, 0
2, 32945, Note_on_c, 0, 77, 0
2, 32957, Note_on_c, 0, 67, 73
2, 32988, Control_c, 0, 64, 121
2, 32989, Note_on_c, 0, 58, 0
2, 33008, Control_c, 0, 64, 99
2, 33027, Control_c, 0, 64, 86
2, 33046, Control_c, 0, 64, 75
2, 33065, Control_c, 0, 64, 66
2, 33085, Control_c, 0, 64, 59
2, 33104, Control_c, 0, 64, 46
2, 33123, Control_c, 0, 64, 31
2, 33142, Control_c, 0, 64, 0
2, 33271, Note_on_c, 0, 75, 74
2, 33273, Note_on_c, 0, 55, 53
2, 33549, Note_on_c, 0, 58, 54
2, 33561, Note_on_c, 0, 73, 74
2, 33615, Note_on_c, 0, 75, 0
2, 33841, Note_on_c, 0, 72, 76
2, 33846, Note_on_c, 0, 63, 62
2, 33855, Note_on_c, 0, 51, 0
2, 33898, Note_on_c, 0, 73, 0
2, 34074, Note_on_c, 0, 55, 0
2, 34134, Note_on_c, 0, 53, 64
2, 34137, Note_on_c, 0, 70, 75
2, 34188, Note_on_c, 0, 63, 0
2, 34200, Note_on_c, 0, 67, 0
2, 34209, Note_on_c, 0, 72, 0
2, 34425, Note_on_c, 0, 58, 0
2, 34432, Note_on_c, 0, 63, 67
2, 34437, Note_on_c, 0, 67, 73
2, 34440, Note_on_c, 0, 70, 0
2, 34721, Note_on_c, 0, 61, 68
2, 34731, Note_on_c, 0, 68, 78
2, 34766, Note_on_c, 0, 67, 0
2, 34773, Note_on_c, 0, 63, 0
2, 34947, Control_c, 0, 64, 17
2, 34949, Note_on_c, 0, 53, 0
2, 34966, Control_c, 0, 64, 51
2, 34985, Control_c, 0, 64, 63
2, 35005, Control_c, 0, 64, 66
2, 35016, Note_on_c, 0, 73, 75
2, 35024, Control_c, 0, 64, 70
2, 35026, Note_on_c, 0, 65, 63
2, 35043, Control_c, 0, 64, 76
2, 35050, Note_on_c, 0, 68, 0
2, 35062, Control_c, 0, 64, 89
2, 35082, Control_c, 0, 64, 106
2, 35100, Control_c, 0, 64, 127
2, 35230, Note_on_c, 0, 73, 0
2, 35316, Note_on_c, 0, 55, 69
2, 35331, Control_c, 0, 64, 106
2, 35350, Control_c, 0, 64, 98
2, 35351, Note_on_c, 0, 72, 70
2, 35370, Control_c, 0, 64, 90
2, 35388, Control_c, 0, 64, 80
2, 35402, Note_on_c, 0, 65, 0
2, 35408, Control_c, 0, 64, 70
2, 35427, Control_c, 0, 64, 60
2, 35445, Note_on_c, 0, 61, 0
2, 35446, Control_c, 0, 64, 39
2, 35460, Note_on_c, 0, 72, 0
2, 35465, Control_c, 0, 64, 0
2, 35475, Note_on_c, 0, 70, 67
2, 35554, Note_on_c, 0, 70, 0
2, 35568, Note_on_c, 0, 72, 62
2, 35665, Note_on_c, 0, 72, 0
2, 35667, Note_on_c, 0, 65, 67
2, 35672, Note_on_c, 0, 70, 59
2, 35749, Note_on_c, 0, 70, 0
2, 35760, Note_on_c, 0, 72, 55
2, 35856, Note_on_c, 0, 72, 0
2, 35870, Note_on_c, 0, 70, 59
2, 35945, Note_on_c, 0, 70, 0
2, 35957, Note_on_c, 0, 63, 74
2, 35967, Note_on_c, 0, 72, 57
2, 36034, Note_on_c, 0, 72, 0
2, 36053, Note_on_c, 0, 70, 59
2, 36118, Control_c, 0, 64, 43
2, 36127, Note_on_c, 0, 70, 0
2, 36137, Control_c, 0, 64, 62
2, 36148, Note_on_c, 0, 72, 55
2, 36156, Control_c, 0, 64, 68
2, 36176, Control_c, 0, 64, 76
2, 36195, Control_c, 0, 64, 87
2, 36214, Control_c, 0, 64, 101
2, 36216, Note_on_c, 0, 61, 65
2, 36216, Note_on_c, 0, 72, 0
2, 36218, Note_on_c, 0, 65, 0
2, 36233, Control_c, 0, 64, 127
2, 36241, Note_on_c, 0, 70, 61
2, 36282, Note_on_c, 0, 63, 0
2, 36300, Note_on_c, 0, 61, 0
2, 36313, Note_on_c, 0, 70, 0
2, 36336, Note_on_c, 0, 72, 62
2, 36414, Note_on_c, 0, 72, 0
2, 36431, Note_on_c, 0, 70, 64
2, 36558, Note_on_c, 0, 56, 69
2, 36568, Note_on_c, 0, 60, 56
2, 36579, Control_c, 0, 64, 107
2, 36598, Control_c, 0, 64, 97
2, 36614, Note_on_c, 0, 55, 0
2, 36617, Control_c, 0, 64, 86
2, 36636, Control_c, 0, 64, 76
2, 36656, Control_c, 0, 64, 67
2, 36675, Control_c, 0, 64, 60
2, 36694, Control_c, 0, 64, 50
2, 36713, Control_c, 0, 64, 44
2, 36733, Control_c, 0, 64, 39
2, 36753, Control_c, 0, 64, 27
2, 36773, Control_c, 0, 64, 0
2, 36880, Note_on_c, 0, 70, 0
2, 36891, Note_on_c, 0, 63, 69
2, 36992, Note_on_c, 0, 56, 0
2, 37182, Note_on_c, 0, 55, 64
2, 37198, Note_on_c, 0, 65, 67
2, 37245, Note_on_c, 0, 63, 0
2, 37480, Note_on_c, 0, 67, 67
2, 37518, Note_on_c, 0, 65, 0
2, 37645, Note_on_c, 0, 55, 0
2, 37774, Note_on_c, 0, 53, 56
2, 37775, Note_on_c, 0, 68, 73
2, 37810, Note_on_c, 0, 67, 0
2, 38079, Note_on_c, 0, 67, 67
2, 38086, Note_on_c, 0, 68, 0
2, 38266, Note_on_c, 0, 53, 0
2, 38373, Note_on_c, 0, 49, 60
2, 38382, Note_on_c, 0, 68, 77
2, 38400, Note_on_c, 0, 67, 0
2, 38580, Control_c, 0, 64, 47
2, 38598, Control_c, 0, 64, 64
2, 38618, Control_c, 0, 64, 71
2, 38629, Note_on_c, 0, 60, 0
2, 38637, Control_c, 0, 64, 91
2, 38657, Control_c, 0, 64, 127
2, 38667, Note_on_c, 0, 49, 0
2, 38695, Note_on_c, 0, 77, 78
2, 38742, Note_on_c, 0, 68, 0
2, 39004, Note_on_c, 0, 51, 49
2, 39022, Note_on_c, 0, 60, 47
2, 39059, Note_on_c, 0, 77, 0
2, 39064, Note_on_c, 0, 75, 72
2, 39118, Control_c, 0, 64, 106
2, 39138, Control_c, 0, 64, 97
2, 39156, Control_c, 0, 64, 90
2, 39170, Note_on_c, 0, 58, 59
2, 39170, Note_on_c, 0, 60, 0
2, 39176, Control_c, 0, 64, 83
2, 39195, Control_c, 0, 64, 77
2, 39214, Control_c, 0, 64, 73
2, 39225, Note_on_c, 0, 58, 0
2, 39233, Control_c, 0, 64, 69
2, 39253, Control_c, 0, 64, 66
2, 39272, Control_c, 0, 64, 64
2, 39287, Note_on_c, 0, 60, 42
2, 39290, Control_c, 0, 64, 63
2, 39310, Control_c, 0, 64, 62
2, 39329, Control_c, 0, 64, 60
2, 39335, Note_on_c, 0, 58, 55
2, 39348, Control_c, 0, 64, 58
2, 39350, Note_on_c, 0, 60, 0
2, 39365, Note_on_c, 0, 68, 65
2, 39367, Control_c, 0, 64, 55
2, 39387, Control_c, 0, 64, 50
2, 39393, Note_on_c, 0, 58, 0
2, 39406, Control_c, 0, 64, 42
2, 39425, Control_c, 0, 64, 23
2, 39444, Control_c, 0, 64, 0
2, 39447, Note_on_c, 0, 60, 22
2, 39479, Note_on_c, 0, 58, 46
2, 39514, Note_on_c, 0, 58, 0
2, 39528, Note_on_c, 0, 60, 0
2, 39551, Note_on_c, 0, 60, 36
2, 39624, Note_on_c, 0, 58, 66
2, 39633, Note_on_c, 0, 67, 69
2, 39652, Note_on_c, 0, 60, 0
2, 39654, Note_on_c, 0, 68, 0
2, 39694, Control_c, 0, 64, 48
2, 39713, Control_c, 0, 64, 64
2, 39733, Control_c, 0, 64, 72
2, 39752, Control_c, 0, 64, 89
2, 39770, Control_c, 0, 64, 127
2, 39839, Note_on_c, 0, 58, 0
2, 39901, Note_on_c, 0, 51, 0
2, 39941, Note_on_c, 0, 73, 80
2, 40009, Note_on_c, 0, 75, 0
2, 40341, Note_on_c, 0, 56, 49
2, 40348, Note_on_c, 0, 44, 47
2, 40369, Note_on_c, 0, 72, 71
2, 40400, Control_c, 0, 64, 117
2, 40401, Note_on_c, 0, 67, 0
2, 40420, Control_c, 0, 64, 97
2, 40425, Note_on_c, 0, 73, 0
2, 40439, Control_c, 0, 64, 85
2, 40458, Control_c, 0, 64, 74
2, 40477, Control_c, 0, 64, 65
2, 40497, Control_c, 0, 64, 56
2, 40516, Control_c, 0, 64, 42
2, 40535, Control_c, 0, 64, 34
2, 40554, Control_c, 0, 64, 26
2, 40574, Control_c, 0, 64, 0
2, 40664, Note_on_c, 0, 72, 0
2, 40758, Note_on_c, 0, 68, 73
2, 41065, Note_on_c, 0, 72, 75
2, 41112, Note_on_c, 0, 68, 0
2, 41359, Note_on_c, 0, 76, 69
2, 41433, Note_on_c, 0, 72, 0
2, 41497, Note_on_c, 0, 56, 0
2, 41664, Note_on_c, 0, 77, 75
2, 41677, Note_on_c, 0, 44, 0
2, 41758, Note_on_c, 0, 76, 0
2, 41964, Note_on_c, 0, 79, 80
2, 41965, Note_on_c, 0, 56, 56
2, 42005, Note_on_c, 0, 77, 0
2, 42242, Note_on_c, 0, 55, 51
2, 42259, Note_on_c, 0, 76, 75
2, 42300, Note_on_c, 0, 56, 0
2, 42304, Note_on_c, 0, 79, 0
2, 42544, Note_on_c, 0, 53, 55
2, 42545, Note_on_c, 0, 77, 80
2, 42605, Note_on_c, 0, 76, 0
2, 42688, Note_on_c, 0, 55, 0
2, 42823, Note_on_c, 0, 52, 49
2, 42876, Note_on_c, 0, 79, 82
2, 42884, Note_on_c, 0, 53, 0
2, 42930, Note_on_c, 0, 77, 0
2, 43174, Note_on_c, 0, 55, 52
2, 43186, Control_c, 0, 64, 11
2, 43204, Control_c, 0, 64, 47
2, 43224, Control_c, 0, 64, 59
2, 43243, Control_c, 0, 64, 63
2, 43263, Control_c, 0, 64, 64
2, 43281, Control_c, 0, 64, 65
2, 43301, Control_c, 0, 64, 67
2, 43320, Control_c, 0, 64, 72
2, 43339, Control_c, 0, 64, 81
2, 43358, Control_c, 0, 64, 91
2, 43378, Control_c, 0, 64, 100
2, 43397, Control_c, 0, 64, 104
2, 43416, Control_c, 0, 64, 108
2, 43435, Control_c, 0, 64, 113
2, 43455, Control_c, 0, 64, 123
2, 43457, Note_on_c, 0, 58, 61
2, 43473, Control_c, 0, 64, 127
2, 43473, Note_on_c, 0, 55, 0
2, 43548, Note_on_c, 0, 58, 0
2, 43704, Control_c, 0, 64, 123
2, 43723, Control_c, 0, 64, 121
2, 43743, Control_c, 0, 64, 118
2, 43752, Note_on_c, 0, 61, 68
2, 43761, Control_c, 0, 64, 116
2, 43781, Control_c, 0, 64, 114
2, 43800, Control_c, 0, 64, 112
2, 43819, Control_c, 0, 64, 112
2, 43835, Note_on_c, 0, 61, 0
2, 43838, Control_c, 0, 64, 111
2, 43849, Note_on_c, 0, 52, 0
2, 43858, Control_c, 0, 64, 110
2, 43877, Control_c, 0, 64, 110
2, 43896, Control_c, 0, 64, 109
2, 43915, Control_c, 0, 64, 108
2, 43935, Control_c, 0, 64, 106
2, 43953, Control_c, 0, 64, 104
2, 43973, Control_c, 0, 64, 102
2, 43992, Control_c, 0, 64, 100
2, 44011, Control_c, 0, 64, 97
2, 44030, Control_c, 0, 64, 94
2, 44049, Control_c, 0, 64, 91
2, 44061, Note_on_c, 0, 48, 64
2, 44069, Control_c, 0, 64, 87
2, 44087, Control_c, 0, 64, 82
2, 44107, Control_c, 0, 64, 75
2, 44126, Control_c, 0, 64, 67
2, 44146, Control_c, 0, 64, 55
2, 44164, Control_c, 0, 64, 20
2, 44184, Control_c, 0, 64, 0
2, 44364, Note_on_c, 0, 53, 58
2, 44661, Note_on_c, 0, 52, 56
2, 44706, Note_on_c, 0, 53, 0
2, 44971, Note_on_c, 0, 55, 60
2, 44973, Control_c, 0, 64, 50
2, 44991, Control_c, 0, 64, 63
2, 45010, Control_c, 0, 64, 67
2, 45030, Control_c, 0, 64, 75
2, 45048, Control_c, 0, 64, 96
2, 45068, Control_c, 0, 64, 127
2, 45076, Note_on_c, 0, 48, 0
2, 45105, Note_on_c, 0, 55, 0
2, 45117, Note_on_c, 0, 52, 0
2, 45314, Note_on_c, 0, 56, 64
2, 45318, Note_on_c, 0, 53, 58
2, 45394, Control_c, 0, 64, 102
2, 45414, Control_c, 0, 64, 82
2, 45433, Control_c, 0, 64, 66
2, 45453, Control_c, 0, 64, 37
2, 45471, Control_c, 0, 64, 0
2, 45627, Note_on_c, 0, 72, 78
2, 45661, Note_on_c, 0, 79, 0
2, 45933, Note_on_c, 0, 77, 79
2, 45990, Note_on_c, 0, 72, 0
2, 46254, Note_on_c, 0, 80, 79
2, 46438, Note_on_c, 0, 77, 0
2, 46482, Note_on_c, 0, 53, 0
2, 46540, Note_on_c, 0, 74, 68
2, 46575, Note_on_c, 0, 80, 0
2, 46825, Note_on_c, 0, 77, 66
2, 46836, Note_on_c, 0, 53, 47
2, 46875, Note_on_c, 0, 74, 0
2, 47117, Note_on_c, 0, 51, 46
2, 47131, Note_on_c, 0, 71, 63
2, 47149, Note_on_c, 0, 77, 0
2, 47303, Note_on_c, 0, 56, 0
2, 47331, Note_on_c, 0, 53, 0
2, 47401, Note_on_c, 0, 50, 50
2, 47403, Note_on_c, 0, 72, 69
2, 47440, Note_on_c, 0, 71, 0
2, 47463, Note_on_c, 0, 51, 0
2, 47627, Note_on_c, 0, 72, 0
2, 47687, Note_on_c, 0, 50, 0
2, 47718, Note_on_c, 0, 55, 57
2, 47760, Note_on_c, 0, 72, 67
2, 47874, Note_on_c, 0, 72, 0
2, 47898, Note_on_c, 0, 71, 56
2, 47970, Note_on_c, 0, 71, 0
2, 47976, Note_on_c, 0, 72, 61
2, 48033, Note_on_c, 0, 72, 0
2, 48045, Note_on_c, 0, 71, 55
2, 48078, Note_on_c, 0, 59, 66
2, 48121, Note_on_c, 0, 72, 66
2, 48124, Note_on_c, 0, 71, 0
2, 48201, Note_on_c, 0, 71, 62
2, 48209, Note_on_c, 0, 72, 0
2, 48363, Note_on_c, 0, 62, 66
2, 48627, Note_on_c, 0, 55, 0
2, 48636, Note_on_c, 0, 67, 54
2, 48637, Note_on_c, 0, 72, 81
2, 48712, Note_on_c, 0, 71, 0
2, 48923, Note_on_c, 0, 56, 69
2, 48988, Note_on_c, 0, 74, 67
2, 48999, Note_on_c, 0, 59, 0
2, 49008, Note_on_c, 0, 72, 0
2, 49020, Note_on_c, 0, 62, 0
2, 49088, Note_on_c, 0, 67, 0
2, 49148, Note_on_c, 0, 72, 72
2, 49153, Note_on_c, 0, 74, 0
2, 49270, Note_on_c, 0, 72, 0
2, 49273, Note_on_c, 0, 67, 61
2, 49273, Note_on_c, 0, 74, 70
2, 49379, Note_on_c, 0, 74, 0
2, 49383, Note_on_c, 0, 72, 72
2, 49466, Note_on_c, 0, 72, 0
2, 49471, Note_on_c, 0, 74, 65
2, 49519, Note_on_c, 0, 65, 65
2, 49545, Note_on_c, 0, 67, 0
2, 49557, Note_on_c, 0, 72, 69
2, 49565, Note_on_c, 0, 74, 0
2, 49649, Note_on_c, 0, 72, 0
2, 49652, Note_on_c, 0, 74, 64
2, 49719, Note_on_c, 0, 72, 67
2, 49781, Note_on_c, 0, 74, 0
2, 49803, Note_on_c, 0, 68, 66
2, 49806, Note_on_c, 0, 65, 0
2, 49814, Note_on_c, 0, 71, 78
2, 49835, Note_on_c, 0, 72, 0
2, 49947, Note_on_c, 0, 72, 78
2, 49981, Note_on_c, 0, 71, 0
2, 50079, Note_on_c, 0, 72, 0
2, 50098, Note_on_c, 0, 59, 62
2, 50107, Note_on_c, 0, 74, 75
2, 50169, Note_on_c, 0, 68, 0
2, 50221, Note_on_c, 0, 56, 0
2, 50417, Note_on_c, 0, 79, 84
2, 50716, Note_on_c, 0, 62, 60
2, 50722, Note_on_c, 0, 77, 78
2, 50752, Note_on_c, 0, 79, 0
2, 51047, Note_on_c, 0, 80, 81
2, 51075, Note_on_c, 0, 74, 0
2, 51110, Note_on_c, 0, 77, 0
2, 51337, Note_on_c, 0, 67, 67
2, 51342, Note_on_c, 0, 80, 0
2, 51350, Note_on_c, 0, 71, 70
2, 51457, Note_on_c, 0, 59, 0
2, 51492, Note_on_c, 0, 62, 0
2, 51650, Note_on_c, 0, 80, 82
2, 51938, Note_on_c, 0, 55, 62
2, 51947, Note_on_c, 0, 79, 76
2, 51980, Note_on_c, 0, 80, 0
2, 52120, Note_on_c, 0, 67, 0
2, 52250, Note_on_c, 0, 77, 76
2, 52301, Note_on_c, 0, 79, 0
2, 52497, Note_on_c, 0, 71, 0
2, 52552, Note_on_c, 0, 60, 58
2, 52555, Note_on_c, 0, 75, 75
2, 52586, Note_on_c, 0, 77, 0
2, 52620, Note_on_c, 0, 55, 0
2, 52934, Note_on_c, 0, 84, 79
2, 53226, Note_on_c, 0, 56, 65
2, 53240, Note_on_c, 0, 77, 75
2, 53249, Note_on_c, 0, 75, 0
2, 53530, Note_on_c, 0, 83, 85
2, 53569, Note_on_c, 0, 84, 0
2, 53813, Note_on_c, 0, 51, 58
2, 53830, Note_on_c, 0, 84, 89
2, 53883, Note_on_c, 0, 83, 0
2, 53884, Note_on_c, 0, 77, 0
2, 53921, Note_on_c, 0, 56, 0
2, 54134, Note_on_c, 0, 79, 85
2, 54385, Note_on_c, 0, 51, 0
2, 54408, Note_on_c, 0, 53, 55
2, 54415, Note_on_c, 0, 80, 78
2, 54510, Note_on_c, 0, 79, 0
2, 54519, Note_on_c, 0, 84, 0
2, 54739, Note_on_c, 0, 77, 78
2, 54763, Note_on_c, 0, 80, 0
2, 55062, Note_on_c, 0, 55, 53
2, 55091, Note_on_c, 0, 53, 0
2, 55149, Note_on_c, 0, 75, 75
2, 55169, Note_on_c, 0, 77, 0
2, 55512, Note_on_c, 0, 71, 54
2, 55799, Note_on_c, 0, 72, 62
2, 55809, Note_on_c, 0, 71, 0
2, 56081, Note_on_c, 0, 66, 48
2, 56125, Control_c, 0, 64, 46
2, 56144, Control_c, 0, 64, 60
2, 56162, Control_c, 0, 64, 64
2, 56182, Control_c, 0, 64, 67
2, 56201, Control_c, 0, 64, 70
2, 56220, Control_c, 0, 64, 79
2, 56239, Control_c, 0, 64, 112
2, 56259, Control_c, 0, 64, 127
2, 56291, Note_on_c, 0, 60, 0
2, 56319, Note_on_c, 0, 66, 0
2, 56398, Note_on_c, 0, 67, 54
2, 56417, Note_on_c, 0, 72, 0
2, 56423, Note_on_c, 0, 75, 0
2, 56470, Control_c, 0, 64, 121
2, 56490, Control_c, 0, 64, 105
2, 56508, Control_c, 0, 64, 98
2, 56528, Control_c, 0, 64, 91
2, 56547, Control_c, 0, 64, 85
2, 56566, Control_c, 0, 64, 78
2, 56585, Control_c, 0, 64, 72
2, 56605, Control_c, 0, 64, 68
2, 56624, Control_c, 0, 64, 64
2, 56642, Control_c, 0, 64, 63
2, 56662, Control_c, 0, 64, 62
2, 56694, Note_on_c, 0, 72, 65
2, 56700, Control_c, 0, 64, 61
2, 56719, Control_c, 0, 64, 60
2, 56739, Control_c, 0, 64, 59
2, 56758, Control_c, 0, 64, 56
2, 56777, Control_c, 0, 64, 54
2, 56796, Control_c, 0, 64, 52
2, 56816, Control_c, 0, 64, 49
2, 56835, Control_c, 0, 64, 45
2, 56854, Control_c, 0, 64, 39
2, 56873, Control_c, 0, 64, 27
2, 56893, Control_c, 0, 64, 0
2, 56984, Note_on_c, 0, 67, 0
2, 57005, Note_on_c, 0, 59, 46
2, 57011, Note_on_c, 0, 74, 60
2, 57038, Note_on_c, 0, 72, 0
2, 57180, Control_c, 0, 64, 48
2, 57199, Control_c, 0, 64, 62
2, 57219, Control_c, 0, 64, 67
2, 57238, Control_c, 0, 64, 70
2, 57257, Control_c, 0, 64, 75
2, 57276, Control_c, 0, 64, 86
2, 57296, Control_c, 0, 64, 105
2, 57315, Control_c, 0, 64, 127
2, 57321, Note_on_c, 0, 65, 52
2, 57346, Note_on_c, 0, 59, 0
2, 57368, Note_on_c, 0, 74, 0
2, 57660, Control_c, 0, 64, 118
2, 57665, Note_on_c, 0, 48, 43
2, 57670, Note_on_c, 0, 72, 62
2, 57679, Control_c, 0, 64, 107
2, 57682, Note_on_c, 0, 60, 38
2, 57699, Control_c, 0, 64, 98
2, 57718, Control_c, 0, 64, 87
2, 57737, Control_c, 0, 64, 75
2, 57741, Note_on_c, 0, 65, 0
2, 57756, Control_c, 0, 64, 63
2, 57776, Control_c, 0, 64, 50
2, 57795, Control_c, 0, 64, 37
2, 57814, Control_c, 0, 64, 36
2, 57822, Note_on_c, 0, 55, 0
2, 57833, Control_c, 0, 64, 34
2, 57853, Control_c, 0, 64, 9
2, 57873, Control_c, 0, 64, 0
2, 58018, Note_on_c, 0, 65, 54
2, 58087, Note_on_c, 0, 60, 0
2, 58360, Note_on_c, 0, 55, 51
2, 58372, Note_on_c, 0, 64, 49
2, 58403, Note_on_c, 0, 65, 0
2, 58681, Note_on_c, 0, 67, 42
2, 58684, Note_on_c, 0, 64, 0
2, 58992, Note_on_c, 0, 60, 43
2, 59026, Note_on_c, 0, 67, 0
2, 59290, Note_on_c, 0, 53, 42
2, 59364, Note_on_c, 0, 60, 0
2, 59531, Note_on_c, 0, 55, 0
2, 59610, Note_on_c, 0, 52, 41
2, 59641, Note_on_c, 0, 72, 0
2, 59664, Note_on_c, 0, 53, 0
2, 59908, Note_on_c, 0, 48, 0
2, 59937, Note_on_c, 0, 55, 40
2, 59946, Note_on_c, 0, 52, 0
2, 60382, Note_on_c, 0, 45, 33
2, 60397, Note_on_c, 0, 65, 46
2, 60654, Note_on_c, 0, 55, 0
2, 60771, Note_on_c, 0, 69, 54
2, 61075, Note_on_c, 0, 53, 42
2, 61084, Note_on_c, 0, 72, 53
2, 61207, Note_on_c, 0, 69, 0
2, 61232, Control_c, 0, 64, 36
2, 61250, Control_c, 0, 64, 60
2, 61270, Control_c, 0, 64, 66
2, 61277, Note_on_c, 0, 45, 0
2, 61289, Control_c, 0, 64, 73
2, 61308, Control_c, 0, 64, 84
2, 61327, Control_c, 0, 64, 101
2, 61347, Control_c, 0, 64, 127
2, 61385, Note_on_c, 0, 75, 62
2, 61396, Note_on_c, 0, 65, 0
2, 61682, Note_on_c, 0, 41, 46
2, 61694, Note_on_c, 0, 72, 0
2, 61698, Note_on_c, 0, 69, 56
2, 61704, Note_on_c, 0, 75, 0
2, 61715, Control_c, 0, 64, 114
2, 61734, Control_c, 0, 64, 102
2, 61754, Control_c, 0, 64, 90
2, 61773, Control_c, 0, 64, 80
2, 61792, Control_c, 0, 64, 71
2, 61811, Control_c, 0, 64, 65
2, 61831, Control_c, 0, 64, 61
2, 61849, Control_c, 0, 64, 58
2, 61888, Control_c, 0, 64, 58
2, 61908, Control_c, 0, 64, 57
2, 61922, Note_on_c, 0, 53, 0
2, 61926, Control_c, 0, 64, 54
2, 61945, Control_c, 0, 64, 51
2, 61964, Control_c, 0, 64, 47
2, 61983, Control_c, 0, 64, 44
2, 61995, Note_on_c, 0, 78, 65
2, 62002, Control_c, 0, 64, 39
2, 62022, Control_c, 0, 64, 27
2, 62041, Control_c, 0, 64, 0
2, 62305, Note_on_c, 0, 53, 37
2, 62306, Note_on_c, 0, 72, 56
2, 62387, Control_c, 0, 64, 34
2, 62403, Note_on_c, 0, 78, 0
2, 62405, Control_c, 0, 64, 61
2, 62425, Control_c, 0, 64, 67
2, 62444, Control_c, 0, 64, 73
2, 62463, Control_c, 0, 64, 82
2, 62482, Control_c, 0, 64, 95
2, 62502, Control_c, 0, 64, 127
2, 62509, Note_on_c, 0, 53, 0
2, 62510, Note_on_c, 0, 41, 0
2, 62607, Note_on_c, 0, 75, 67
2, 62661, Note_on_c, 0, 69, 0
2, 62662, Note_on_c, 0, 72, 0
2, 62847, Control_c, 0, 64, 118
2, 62867, Control_c, 0, 64, 111
2, 62883, Control_c, 0, 64, 106
2, 62903, Control_c, 0, 64, 100
2, 62911, Note_on_c, 0, 46, 46
2, 62915, Note_on_c, 0, 73, 69
2, 62922, Control_c, 0, 64, 93
2, 62942, Control_c, 0, 64, 85
2, 62947, Note_on_c, 0, 75, 0
2, 62960, Control_c, 0, 64, 77
2, 62980, Control_c, 0, 64, 70
2, 62999, Control_c, 0, 64, 64
2, 63019, Control_c, 0, 64, 61
2, 63037, Control_c, 0, 64, 60
2, 63057, Control_c, 0, 64, 59
2, 63076, Control_c, 0, 64, 59
2, 63094, Control_c, 0, 64, 57
2, 63114, Control_c, 0, 64, 54
2, 63133, Control_c, 0, 64, 48
2, 63153, Control_c, 0, 64, 43
2, 63171, Control_c, 0, 64, 36
2, 63191, Control_c, 0, 64, 31
2, 63210, Control_c, 0, 64, 23
2, 63229, Control_c, 0, 64, 0
2, 63242, Note_on_c, 0, 49, 51
2, 63543, Note_on_c, 0, 70, 66
2, 63551, Note_on_c, 0, 53, 52
2, 63671, Control_c, 0, 64, 32
2, 63690, Control_c, 0, 64, 56
2, 63709, Control_c, 0, 64, 65
2, 63728, Control_c, 0, 64, 68
2, 63748, Control_c, 0, 64, 73
2, 63767, Control_c, 0, 64, 79
2, 63786, Control_c, 0, 64, 87
2, 63805, Control_c, 0, 64, 93
2, 63825, Control_c, 0, 64, 97
2, 63842, Note_on_c, 0, 58, 59
2, 63843, Control_c, 0, 64, 97
2, 63844, Note_on_c, 0, 70, 0
2, 63850, Note_on_c, 0, 49, 0
2, 63853, Note_on_c, 0, 46, 0
2, 63979, Control_c, 0, 64, 96
2, 63997, Control_c, 0, 64, 95
2, 64013, Note_on_c, 0, 53, 0
2, 64017, Control_c, 0, 64, 94
2, 64036, Control_c, 0, 64, 93
2, 64054, Control_c, 0, 64, 91
2, 64074, Control_c, 0, 64, 90
2, 64093, Control_c, 0, 64, 89
2, 64113, Control_c, 0, 64, 87
2, 64121, Note_on_c, 0, 48, 52
2, 64131, Control_c, 0, 64, 86
2, 64145, Note_on_c, 0, 64, 63
2, 64151, Control_c, 0, 64, 83
2, 64170, Control_c, 0, 64, 79
2, 64178, Note_on_c, 0, 58, 0
2, 64189, Control_c, 0, 64, 74
2, 64208, Control_c, 0, 64, 68
2, 64228, Control_c, 0, 64, 63
2, 64247, Control_c, 0, 64, 59
2, 64258, Note_on_c, 0, 73, 0
2, 64266, Control_c, 0, 64, 56
2, 64285, Control_c, 0, 64, 53
2, 64305, Control_c, 0, 64, 48
2, 64323, Control_c, 0, 64, 39
2, 64343, Control_c, 0, 64, 15
2, 64362, Control_c, 0, 64, 0
2, 64443, Note_on_c, 0, 58, 61
2, 64720, Note_on_c, 0, 72, 74
2, 64728, Note_on_c, 0, 56, 55
2, 64763, Note_on_c, 0, 58, 0
2, 64880, Control_c, 0, 64, 53
2, 64898, Note_on_c, 0, 48, 0
2, 64900, Control_c, 0, 64, 66
2, 64919, Control_c, 0, 64, 75
2, 64939, Control_c, 0, 64, 87
2, 64957, Control_c, 0, 64, 98
2, 64958, Note_on_c, 0, 64, 0
2, 64977, Control_c, 0, 64, 111
2, 64996, Control_c, 0, 64, 127
2, 65040, Note_on_c, 0, 60, 60
2, 65132, Note_on_c, 0, 56, 0
2, 65188, Control_c, 0, 64, 123
2, 65207, Control_c, 0, 64, 113
2, 65226, Control_c, 0, 64, 108
2, 65245, Control_c, 0, 64, 104
2, 65265, Control_c, 0, 64, 102
2, 65283, Control_c, 0, 64, 101
2, 65303, Control_c, 0, 64, 100
2, 65322, Control_c, 0, 64, 99
2, 65342, Control_c, 0, 64, 98
2, 65360, Control_c, 0, 64, 96
2, 65373, Note_on_c, 0, 50, 49
2, 65378, Note_on_c, 0, 72, 0
2, 65379, Note_on_c, 0, 53, 46
2, 65380, Control_c, 0, 64, 93
2, 65393, Note_on_c, 0, 65, 54
2, 65399, Control_c, 0, 64, 89
2, 65419, Control_c, 0, 64, 83
2, 65437, Control_c, 0, 64, 76
2, 65457, Control_c, 0, 64, 68
2, 65476, Control_c, 0, 64, 63
2, 65494, Control_c, 0, 64, 57
2, 65494, Note_on_c, 0, 60, 0
2, 65514, Control_c, 0, 64, 51
2, 65533, Control_c, 0, 64, 46
2, 65553, Control_c, 0, 64, 37
2, 65571, Control_c, 0, 64, 0
2, 65684, Note_on_c, 0, 53, 0
2, 65703, Note_on_c, 0, 70, 69
2, 65723, Note_on_c, 0, 65, 0
2, 65855, Note_on_c, 0, 50, 0
2, 65996, Note_on_c, 0, 52, 52
2, 65998, Note_on_c, 0, 55, 52
2, 66001, Note_on_c, 0, 67, 60
2, 66236, Note_on_c, 0, 70, 0
2, 66294, Note_on_c, 0, 67, 0
2, 66303, Note_on_c, 0, 64, 70
2, 66365, Note_on_c, 0, 52, 0
2, 66432, Note_on_c, 0, 55, 0
2, 66594, Note_on_c, 0, 56, 57
2, 66599, Note_on_c, 0, 53, 59
2, 66609, Note_on_c, 0, 60, 58
2, 66663, Note_on_c, 0, 64, 0
2, 66912, Note_on_c, 0, 64, 63
2, 66948, Note_on_c, 0, 60, 0
2, 67190, Note_on_c, 0, 64, 0
2, 67203, Control_c, 0, 64, 13
2, 67209, Note_on_c, 0, 65, 53
2, 67222, Control_c, 0, 64, 38
2, 67241, Control_c, 0, 64, 50
2, 67261, Control_c, 0, 64, 58
2, 67279, Control_c, 0, 64, 61
2, 67299, Control_c, 0, 64, 64
2, 67318, Control_c, 0, 64, 68
2, 67338, Control_c, 0, 64, 74
2, 67356, Control_c, 0, 64, 83
2, 67375, Control_c, 0, 64, 92
2, 67393, Control_c, 0, 64, 100
2, 67411, Control_c, 0, 64, 103
2, 67431, Control_c, 0, 64, 105
2, 67450, Control_c, 0, 64, 105
2, 67507, Note_on_c, 0, 71, 68
2, 67528, Control_c, 0, 64, 105
2, 67547, Control_c, 0, 64, 104
2, 67550, Note_on_c, 0, 56, 0
2, 67552, Note_on_c, 0, 53, 0
2, 67566, Control_c, 0, 64, 102
2, 67586, Control_c, 0, 64, 102
2, 67605, Control_c, 0, 64, 101
2, 67613, Note_on_c, 0, 65, 0
2, 67624, Control_c, 0, 64, 100
2, 67643, Control_c, 0, 64, 100
2, 67663, Control_c, 0, 64, 99
2, 67681, Control_c, 0, 64, 98
2, 67701, Control_c, 0, 64, 97
2, 67720, Control_c, 0, 64, 96
2, 67740, Control_c, 0, 64, 95
2, 67758, Control_c, 0, 64, 94
2, 67778, Control_c, 0, 64, 93
2, 67797, Control_c, 0, 64, 92
2, 67817, Control_c, 0, 64, 91
2, 67835, Control_c, 0, 64, 91
2, 67854, Control_c, 0, 64, 90
2, 67861, Note_on_c, 0, 55, 47
2, 67874, Control_c, 0, 64, 89
2, 67880, Note_on_c, 0, 48, 46
2, 67892, Control_c, 0, 64, 88
2, 67912, Control_c, 0, 64, 86
2, 67914, Note_on_c, 0, 72, 67
2, 67931, Control_c, 0, 64, 84
2, 67951, Control_c, 0, 64, 80
2, 67968, Note_on_c, 0, 71, 0
2, 67969, Control_c, 0, 64, 74
2, 67989, Control_c, 0, 64, 68
2, 68008, Control_c, 0, 64, 63
2, 68027, Control_c, 0, 64, 55
2, 68046, Control_c, 0, 64, 48
2, 68066, Control_c, 0, 64, 45
2, 68085, Control_c, 0, 64, 39
2, 68104, Control_c, 0, 64, 22
2, 68123, Control_c, 0, 64, 0
2, 68267, Note_on_c, 0, 65, 45
2, 68535, Note_on_c, 0, 65, 0
2, 68558, Note_on_c, 0, 64, 47
2, 68839, Note_on_c, 0, 67, 50
2, 69064, Note_on_c, 0, 72, 0
2, 69141, Note_on_c, 0, 70, 56
2, 69341, Note_on_c, 0, 67, 0
2, 69433, Note_on_c, 0, 73, 62
2, 69590, Note_on_c, 0, 70, 0
2, 69738, Note_on_c, 0, 72, 58
2, 69808, Note_on_c, 0, 73, 0
2, 70024, Note_on_c, 0, 49, 49
2, 70032, Note_on_c, 0, 70, 65
2, 70131, Note_on_c, 0, 72, 0
2, 70302, Note_on_c, 0, 48, 0
2, 70331, Note_on_c, 0, 55, 0
2, 70340, Note_on_c, 0, 51, 45
2, 70346, Note_on_c, 0, 53, 47
2, 70351, Note_on_c, 0, 69, 68
2, 70382, Note_on_c, 0, 70, 0
2, 70396, Note_on_c, 0, 64, 0
2, 70446, Note_on_c, 0, 49, 0
2, 70447, Control_c, 0, 64, 48
2, 70467, Control_c, 0, 64, 64
2, 70486, Control_c, 0, 64, 69
2, 70505, Control_c, 0, 64, 76
2, 70519, Note_on_c, 0, 53, 0
2, 70524, Control_c, 0, 64, 86
2, 70544, Control_c, 0, 64, 98
2, 70548, Note_on_c, 0, 51, 0
2, 70562, Control_c, 0, 64, 112
2, 70582, Control_c, 0, 64, 127
2, 70659, Control_c, 0, 64, 123
2, 70669, Note_on_c, 0, 65, 73
2, 70678, Control_c, 0, 64, 116
2, 70696, Control_c, 0, 64, 111
2, 70716, Control_c, 0, 64, 108
2, 70726, Note_on_c, 0, 69, 0
2, 70735, Control_c, 0, 64, 106
2, 70755, Control_c, 0, 64, 105
2, 70773, Control_c, 0, 64, 104
2, 70793, Control_c, 0, 64, 102
2, 70812, Control_c, 0, 64, 100
2, 70831, Control_c, 0, 64, 98
2, 70850, Control_c, 0, 64, 97
2, 70870, Control_c, 0, 64, 96
2, 70889, Control_c, 0, 64, 95
2, 70908, Control_c, 0, 64, 94
2, 70927, Control_c, 0, 64, 93
2, 70947, Control_c, 0, 64, 90
2, 70966, Control_c, 0, 64, 86
2, 70985, Control_c, 0, 64, 82
2, 71004, Control_c, 0, 64, 77
2, 71019, Note_on_c, 0, 63, 74
2, 71024, Control_c, 0, 64, 73
2, 71030, Note_on_c, 0, 69, 68
2, 71042, Control_c, 0, 64, 69
2, 71062, Control_c, 0, 64, 66
2, 71081, Control_c, 0, 64, 64
2, 71101, Control_c, 0, 64, 62
2, 71106, Note_on_c, 0, 65, 0
2, 71119, Control_c, 0, 64, 61
2, 71139, Control_c, 0, 64, 58
2, 71158, Control_c, 0, 64, 55
2, 71176, Control_c, 0, 64, 50
2, 71196, Control_c, 0, 64, 44
2, 71215, Control_c, 0, 64, 29
2, 71235, Control_c, 0, 64, 0
2, 71330, Note_on_c, 0, 72, 77
2, 71385, Note_on_c, 0, 69, 0
2, 71543, Note_on_c, 0, 63, 0
2, 71612, Note_on_c, 0, 77, 75
2, 71614, Note_on_c, 0, 72, 0
2, 71620, Note_on_c, 0, 61, 67
2, 71921, Note_on_c, 0, 70, 79
2, 72012, Note_on_c, 0, 61, 0
2, 72201, Note_on_c, 0, 60, 59
2, 72218, Note_on_c, 0, 69, 72
2, 72253, Note_on_c, 0, 70, 0
2, 72502, Control_c, 0, 64, 41
2, 72521, Control_c, 0, 64, 61
2, 72522, Note_on_c, 0, 75, 79
2, 72541, Control_c, 0, 64, 66
2, 72552, Note_on_c, 0, 77, 0
2, 72559, Control_c, 0, 64, 71
2, 72561, Note_on_c, 0, 60, 0
2, 72567, Note_on_c, 0, 69, 0
2, 72579, Control_c, 0, 64, 80
2, 72598, Control_c, 0, 64, 95
2, 72616, Control_c, 0, 64, 127
2, 72845, Note_on_c, 0, 58, 52
2, 72874, Note_on_c, 0, 75, 0
2, 72896, Note_on_c, 0, 73, 73
2, 72905, Control_c, 0, 64, 119
2, 72924, Control_c, 0, 64, 116
2, 72944, Control_c, 0, 64, 113
2, 72962, Control_c, 0, 64, 112
2, 72982, Control_c, 0, 64, 110
2, 73001, Control_c, 0, 64, 107
2, 73021, Control_c, 0, 64, 105
2, 73039, Control_c, 0, 64, 103
2, 73059, Control_c, 0, 64, 100
2, 73078, Control_c, 0, 64, 97
2, 73096, Control_c, 0, 64, 94
2, 73116, Control_c, 0, 64, 90
2, 73135, Control_c, 0, 64, 85
2, 73155, Control_c, 0, 64, 78
2, 73173, Control_c, 0, 64, 69
2, 73193, Control_c, 0, 64, 63
2, 73212, Control_c, 0, 64, 55
2, 73224, Note_on_c, 0, 53, 42
2, 73231, Note_on_c, 0, 68, 54
2, 73232, Control_c, 0, 64, 49
2, 73251, Control_c, 0, 64, 43
2, 73271, Control_c, 0, 64, 25
2, 73290, Control_c, 0, 64, 0
2, 73504, Note_on_c, 0, 49, 48
2, 73520, Note_on_c, 0, 67, 48
2, 73529, Note_on_c, 0, 68, 0
2, 73614, Note_on_c, 0, 53, 0
2, 73780, Note_on_c, 0, 58, 0
2, 73791, Note_on_c, 0, 46, 44
2, 73801, Note_on_c, 0, 70, 53
2, 73811, Note_on_c, 0, 67, 0
2, 73911, Note_on_c, 0, 49, 0
2, 74100, Note_on_c, 0, 55, 42
2, 74102, Note_on_c, 0, 64, 53
2, 74149, Note_on_c, 0, 73, 0
2, 74163, Note_on_c, 0, 70, 0
2, 74380, Note_on_c, 0, 48, 40
2, 74427, Note_on_c, 0, 46, 0
2, 74462, Note_on_c, 0, 72, 71
2, 74536, Note_on_c, 0, 64, 0
2, 74719, Note_on_c, 0, 49, 41
2, 74732, Note_on_c, 0, 65, 51
2, 74781, Note_on_c, 0, 48, 0
2, 75032, Note_on_c, 0, 70, 64
2, 75035, Note_on_c, 0, 46, 43
2, 75036, Note_on_c, 0, 49, 0
2, 75062, Note_on_c, 0, 65, 0
2, 75152, Note_on_c, 0, 72, 0
2, 75313, Note_on_c, 0, 48, 49
2, 75327, Note_on_c, 0, 64, 55
2, 75343, Note_on_c, 0, 55, 0
2, 75368, Note_on_c, 0, 46, 0
2, 75381, Note_on_c, 0, 70, 0
2, 75615, Note_on_c, 0, 73, 70
2, 75625, Note_on_c, 0, 55, 51
2, 75668, Control_c, 0, 64, 9
2, 75687, Control_c, 0, 64, 44
2, 75706, Control_c, 0, 64, 56
2, 75725, Control_c, 0, 64, 62
2, 75745, Control_c, 0, 64, 64
2, 75764, Control_c, 0, 64, 66
2, 75783, Control_c, 0, 64, 68
2, 75797, Note_on_c, 0, 73, 0
2, 75802, Control_c, 0, 64, 73
2, 75822, Control_c, 0, 64, 80
2, 75841, Control_c, 0, 64, 90
2, 75860, Control_c, 0, 64, 99
2, 75879, Control_c, 0, 64, 103
2, 75899, Control_c, 0, 64, 102
2, 75909, Note_on_c, 0, 72, 73
2, 75917, Control_c, 0, 64, 91
2, 75921, Note_on_c, 0, 56, 73
2, 75936, Control_c, 0, 64, 77
2, 75956, Control_c, 0, 64, 63
2, 75966, Note_on_c, 0, 64, 0
2, 75975, Control_c, 0, 64, 0
2, 75991, Note_on_c, 0, 55, 0
2, 76013, Control_c, 0, 64, 15
2, 76033, Control_c, 0, 64, 54
2, 76051, Control_c, 0, 64, 67
2, 76071, Control_c, 0, 64, 76
2, 76090, Control_c, 0, 64, 101
2, 76111, Control_c, 0, 64, 127
2, 76207, Control_c, 0, 64, 114
2, 76214, Note_on_c, 0, 59, 81
2, 76221, Note_on_c, 0, 65, 68
2, 76227, Control_c, 0, 64, 77
2, 76246, Control_c, 0, 64, 56
2, 76265, Control_c, 0, 64, 0
2, 76268, Note_on_c, 0, 56, 0
2, 76304, Control_c, 0, 64, 52
2, 76321, Control_c, 0, 64, 65
2, 76341, Control_c, 0, 64, 72
2, 76360, Control_c, 0, 64, 83
2, 76380, Control_c, 0, 64, 98
2, 76398, Control_c, 0, 64, 117
2, 76405, Note_on_c, 0, 59, 0
2, 76417, Control_c, 0, 64, 127
2, 76437, Control_c, 0, 64, 121
2, 76456, Control_c, 0, 64, 117
2, 76475, Control_c, 0, 64, 115
2, 76494, Control_c, 0, 64, 110
2, 76514, Control_c, 0, 64, 98
2, 76518, Note_on_c, 0, 68, 81
2, 76521, Note_on_c, 0, 60, 84
2, 76532, Control_c, 0, 64, 81
2, 76552, Control_c, 0, 64, 64
2, 76554, Note_on_c, 0, 72, 0
2, 76570, Note_on_c, 0, 65, 0
2, 76571, Control_c, 0, 64, 0
2, 76744, Control_c, 0, 64, 49
2, 76763, Control_c, 0, 64, 62
2, 76783, Control_c, 0, 64, 66
2, 76801, Control_c, 0, 64, 69
2, 76821, Control_c, 0, 64, 74
2, 76827, Note_on_c, 0, 65, 76
2, 76840, Control_c, 0, 64, 82
2, 76852, Note_on_c, 0, 48, 0
2, 76860, Control_c, 0, 64, 96
2, 76878, Control_c, 0, 64, 127
2, 77109, Control_c, 0, 64, 123
2, 77128, Control_c, 0, 64, 95
2, 77128, Note_on_c, 0, 48, 74
2, 77133, Note_on_c, 0, 64, 79
2, 77147, Control_c, 0, 64, 73
2, 77166, Control_c, 0, 64, 51
2, 77169, Note_on_c, 0, 65, 0
2, 77186, Control_c, 0, 64, 0
2, 77205, Note_on_c, 0, 68, 0
2, 77285, Note_on_c, 0, 60, 0
2, 77320, Control_c, 0, 64, 36
2, 77340, Control_c, 0, 64, 63
2, 77354, Note_on_c, 0, 48, 0
2, 77358, Control_c, 0, 64, 70
2, 77377, Control_c, 0, 64, 83
2, 77397, Control_c, 0, 64, 127
2, 77444, Note_on_c, 0, 67, 82
2, 77483, Note_on_c, 0, 64, 0
2, 77857, Control_c, 0, 64, 119
2, 77857, Note_on_c, 0, 49, 67
2, 77877, Control_c, 0, 64, 107
2, 77896, Control_c, 0, 64, 101
2, 77915, Control_c, 0, 64, 95
2, 77934, Control_c, 0, 64, 90
2, 77939, Note_on_c, 0, 65, 77
2, 77952, Note_on_c, 0, 67, 0
2, 77954, Control_c, 0, 64, 83
2, 77972, Control_c, 0, 64, 75
2, 77992, Control_c, 0, 64, 68
2, 78011, Control_c, 0, 64, 63
2, 78030, Control_c, 0, 64, 56
2, 78048, Control_c, 0, 64, 52
2, 78068, Control_c, 0, 64, 47
2, 78087, Control_c, 0, 64, 31
2, 78106, Control_c, 0, 64, 0
2, 78361, Note_on_c, 0, 68, 64
2, 78673, Note_on_c, 0, 72, 69
2, 78744, Note_on_c, 0, 68, 0
2, 78969, Note_on_c, 0, 77, 73
2, 79101, Note_on_c, 0, 65, 0
2, 79276, Note_on_c, 0, 58, 68
2, 79276, Note_on_c, 0, 67, 62
2, 79306, Note_on_c, 0, 77, 0
2, 79340, Note_on_c, 0, 72, 0
2, 79578, Note_on_c, 0, 77, 74
2, 79872, Note_on_c, 0, 77, 0
2, 79879, Note_on_c, 0, 76, 72
2, 79968, Control_c, 0, 64, 25
2, 79988, Control_c, 0, 64, 56
2, 80007, Control_c, 0, 64, 67
2, 80027, Control_c, 0, 64, 78
2, 80045, Control_c, 0, 64, 123
2, 80065, Control_c, 0, 64, 127
2, 80174, Note_on_c, 0, 67, 0
2, 80185, Note_on_c, 0, 79, 78
2, 80232, Note_on_c, 0, 58, 0
2, 80401, Note_on_c, 0, 49, 0
2, 80407, Note_on_c, 0, 76, 0
2, 80523, Note_on_c, 0, 68, 78
2, 80529, Note_on_c, 0, 48, 60
2, 80530, Note_on_c, 0, 60, 67
2, 80582, Control_c, 0, 64, 115
2, 80601, Control_c, 0, 64, 101
2, 80621, Control_c, 0, 64, 90
2, 80640, Control_c, 0, 64, 78
2, 80658, Control_c, 0, 64, 68
2, 80678, Control_c, 0, 64, 59
2, 80697, Control_c, 0, 64, 44
2, 80716, Control_c, 0, 64, 17
2, 80735, Control_c, 0, 64, 0
2, 80818, Note_on_c, 0, 79, 0
2, 80847, Note_on_c, 0, 72, 75
2, 81148, Note_on_c, 0, 77, 72
2, 81426, Note_on_c, 0, 76, 72
2, 81467, Note_on_c, 0, 77, 0
2, 81703, Note_on_c, 0, 56, 61
2, 81764, Note_on_c, 0, 77, 75
2, 81765, Note_on_c, 0, 72, 0
2, 81787, Note_on_c, 0, 76, 0
2, 81820, Note_on_c, 0, 60, 0
2, 81823, Note_on_c, 0, 68, 0
2, 82066, Note_on_c, 0, 72, 64
2, 82350, Note_on_c, 0, 70, 64
2, 82589, Note_on_c, 0, 77, 0
2, 82644, Note_on_c, 0, 68, 71
2, 82682, Note_on_c, 0, 72, 0
2, 82906, Note_on_c, 0, 58, 51
2, 82966, Note_on_c, 0, 73, 69
2, 83014, Note_on_c, 0, 70, 0
2, 83042, Note_on_c, 0, 68, 0
2, 83052, Note_on_c, 0, 56, 0
2, 83293, Note_on_c, 0, 68, 65
2, 83591, Note_on_c, 0, 67, 60
2, 83649, Note_on_c, 0, 68, 0
2, 83880, Note_on_c, 0, 70, 65
2, 83905, Note_on_c, 0, 67, 0
2, 84162, Note_on_c, 0, 55, 50
2, 84178, Note_on_c, 0, 64, 63
2, 84187, Note_on_c, 0, 73, 0
2, 84263, Note_on_c, 0, 58, 0
2, 84476, Note_on_c, 0, 73, 70
2, 84511, Note_on_c, 0, 70, 0
2, 84766, Note_on_c, 0, 72, 69
2, 84813, Note_on_c, 0, 73, 0
2, 85068, Note_on_c, 0, 70, 74
2, 85077, Control_c, 0, 64, 41
2, 85096, Control_c, 0, 64, 55
2, 85115, Control_c, 0, 64, 62
2, 85134, Control_c, 0, 64, 65
2, 85154, Control_c, 0, 64, 70
2, 85166, Note_on_c, 0, 72, 0
2, 85172, Control_c, 0, 64, 77
2, 85172, Note_on_c, 0, 64, 0
2, 85192, Control_c, 0, 64, 89
2, 85211, Control_c, 0, 64, 100
2, 85231, Control_c, 0, 64, 104
2, 85326, Control_c, 0, 64, 102
2, 85346, Control_c, 0, 64, 101
2, 85365, Control_c, 0, 64, 98
2, 85373, Note_on_c, 0, 56, 51
2, 85384, Control_c, 0, 64, 95
2, 85403, Control_c, 0, 64, 91
2, 85422, Note_on_c, 0, 68, 65
2, 85423, Control_c, 0, 64, 88
2, 85423, Note_on_c, 0, 65, 52
2, 85440, Note_on_c, 0, 70, 0
2, 85441, Control_c, 0, 64, 85
2, 85459, Note_on_c, 0, 55, 0
2, 85461, Control_c, 0, 64, 82
2, 85480, Control_c, 0, 64, 80
2, 85499, Control_c, 0, 64, 78
2, 85518, Control_c, 0, 64, 76
2, 85537, Control_c, 0, 64, 74
2, 85557, Control_c, 0, 64, 72
2, 85576, Control_c, 0, 64, 71
2, 85595, Control_c, 0, 64, 69
2, 85614, Control_c, 0, 64, 68
2, 85634, Control_c, 0, 64, 66
2, 85652, Control_c, 0, 64, 65
2, 85672, Control_c, 0, 64, 64
2, 85691, Control_c, 0, 64, 63
2, 85711, Control_c, 0, 64, 62
2, 85729, Control_c, 0, 64, 60
2, 85749, Control_c, 0, 64, 57
2, 85760, Note_on_c, 0, 63, 60
2, 85768, Control_c, 0, 64, 53
2, 85771, Note_on_c, 0, 65, 0
2, 85787, Control_c, 0, 64, 47
2, 85806, Control_c, 0, 64, 40
2, 85826, Control_c, 0, 64, 22
2, 85845, Control_c, 0, 64, 0
2, 86050, Note_on_c, 0, 62, 65
2, 86087, Note_on_c, 0, 63, 0
2, 86331, Note_on_c, 0, 65, 64
2, 86345, Note_on_c, 0, 62, 0
2, 86616, Note_on_c, 0, 53, 47
2, 86637, Note_on_c, 0, 59, 60
2, 86645, Note_on_c, 0, 68, 0
2, 86684, Note_on_c, 0, 56, 0
2, 86902, Note_on_c, 0, 65, 0
2, 86937, Note_on_c, 0, 68, 66
2, 87244, Note_on_c, 0, 67, 59
2, 87266, Note_on_c, 0, 68, 0
2, 87304, Control_c, 0, 64, 38
2, 87323, Control_c, 0, 64, 56
2, 87343, Control_c, 0, 64, 63
2, 87361, Control_c, 0, 64, 65
2, 87381, Control_c, 0, 64, 66
2, 87400, Control_c, 0, 64, 69
2, 87419, Control_c, 0, 64, 76
2, 87438, Control_c, 0, 64, 87
2, 87457, Control_c, 0, 64, 100
2, 87477, Control_c, 0, 64, 110
2, 87496, Control_c, 0, 64, 112
2, 87515, Control_c, 0, 64, 115
2, 87525, Note_on_c, 0, 65, 65
2, 87534, Control_c, 0, 64, 119
2, 87546, Note_on_c, 0, 67, 0
2, 87554, Control_c, 0, 64, 127
2, 87587, Note_on_c, 0, 65, 0
2, 87726, Control_c, 0, 64, 123
2, 87746, Control_c, 0, 64, 118
2, 87765, Control_c, 0, 64, 114
2, 87784, Control_c, 0, 64, 110
2, 87792, Note_on_c, 0, 55, 49
2, 87803, Control_c, 0, 64, 106
2, 87823, Control_c, 0, 64, 101
2, 87841, Control_c, 0, 64, 96
2, 87857, Note_on_c, 0, 64, 64
2, 87861, Control_c, 0, 64, 91
2, 87880, Control_c, 0, 64, 85
2, 87894, Note_on_c, 0, 59, 0
2, 87899, Control_c, 0, 64, 76
2, 87918, Control_c, 0, 64, 70
2, 87937, Control_c, 0, 64, 64
2, 87950, Note_on_c, 0, 53, 0
2, 87957, Control_c, 0, 64, 59
2, 87976, Control_c, 0, 64, 54
2, 87995, Control_c, 0, 64, 52
2, 88014, Control_c, 0, 64, 51
2, 88034, Control_c, 0, 64, 48
2, 88052, Control_c, 0, 64, 40
2, 88072, Control_c, 0, 64, 20
2, 88091, Control_c, 0, 64, 0
2, 88159, Note_on_c, 0, 60, 62
2, 88445, Note_on_c, 0, 58, 65
2, 88450, Note_on_c, 0, 60, 0
2, 88612, Control_c, 0, 64, 46
2, 88632, Control_c, 0, 64, 60
2, 88651, Control_c, 0, 64, 64
2, 88670, Control_c, 0, 64, 66
2, 88689, Control_c, 0, 64, 67
2, 88709, Control_c, 0, 64, 69
2, 88710, Note_on_c, 0, 55, 0
2, 88727, Control_c, 0, 64, 73
2, 88732, Note_on_c, 0, 61, 64
2, 88747, Control_c, 0, 64, 78
2, 88748, Note_on_c, 0, 58, 0
2, 88766, Control_c, 0, 64, 82
2, 88786, Control_c, 0, 64, 83
2, 88801, Control_c, 0, 64, 84
2, 88917, Control_c, 0, 64, 83
2, 88955, Control_c, 0, 64, 83
2, 88974, Control_c, 0, 64, 82
2, 88994, Control_c, 0, 64, 82
2, 89012, Control_c, 0, 64, 81
2, 89032, Control_c, 0, 64, 81
2, 89042, Note_on_c, 0, 52, 47
2, 89051, Control_c, 0, 64, 79
2, 89059, Note_on_c, 0, 55, 53
2, 89071, Control_c, 0, 64, 77
2, 89071, Note_on_c, 0, 61, 0
2, 89089, Control_c, 0, 64, 74
2, 89109, Control_c, 0, 64, 71
2, 89128, Control_c, 0, 64, 67
2, 89147, Control_c, 0, 64, 63
2, 89166, Control_c, 0, 64, 56
2, 89186, Control_c, 0, 64, 46
2, 89205, Control_c, 0, 64, 25
2, 89224, Control_c, 0, 64, 0
2, 89354, Note_on_c, 0, 61, 57
2, 89402, Note_on_c, 0, 55, 0
2, 89666, Note_on_c, 0, 60, 52
2, 89695, Note_on_c, 0, 61, 0
2, 89896, Control_c, 0, 64, 30
2, 89915, Control_c, 0, 64, 52
2, 89934, Control_c, 0, 64, 62
2, 89954, Control_c, 0, 64, 66
2, 89971, Note_on_c, 0, 60, 0
2, 89972, Control_c, 0, 64, 71
2, 89980, Note_on_c, 0, 58, 47
2, 89984, Note_on_c, 0, 52, 0
2, 89992, Control_c, 0, 64, 78
2, 90011, Control_c, 0, 64, 90
2, 90031, Control_c, 0, 64, 115
2, 90049, Control_c, 0, 64, 127
2, 90129, Note_on_c, 0, 58, 0
2, 90175, Note_on_c, 0, 64, 0
2, 90418, Note_on_c, 0, 56, 46
2, 90422, Note_on_c, 0, 53, 45
2, 90472, Control_c, 0, 64, 117
2, 90491, Control_c, 0, 64, 106
2, 90511, Control_c, 0, 64, 96
2, 90529, Control_c, 0, 64, 86
2, 90549, Control_c, 0, 64, 76
2, 90568, Control_c, 0, 64, 67
2, 90587, Control_c, 0, 64, 60
2, 90606, Control_c, 0, 64, 52
2, 90626, Control_c, 0, 64, 49
2, 90645, Control_c, 0, 64, 42
2, 90664, Control_c, 0, 64, 9
2, 90683, Control_c, 0, 64, 0
2, 90892, Note_on_c, 0, 72, 56
2, 91204, Note_on_c, 0, 70, 56
2, 91219, Control_c, 0, 64, 36
2, 91223, Note_on_c, 0, 72, 0
2, 91239, Control_c, 0, 64, 53
2, 91258, Control_c, 0, 64, 60
2, 91273, Note_on_c, 0, 53, 0
2, 91277, Control_c, 0, 64, 63
2, 91296, Control_c, 0, 64, 64
2, 91316, Control_c, 0, 64, 66
2, 91335, Control_c, 0, 64, 69
2, 91354, Control_c, 0, 64, 73
2, 91373, Control_c, 0, 64, 77
2, 91393, Control_c, 0, 64, 81
2, 91411, Control_c, 0, 64, 82
2, 91469, Note_on_c, 0, 56, 0
2, 91489, Note_on_c, 0, 73, 59
2, 91513, Note_on_c, 0, 70, 0
2, 91527, Control_c, 0, 64, 82
2, 91585, Control_c, 0, 64, 81
2, 91623, Control_c, 0, 64, 81
2, 91681, Control_c, 0, 64, 80
2, 91699, Control_c, 0, 64, 80
2, 91719, Control_c, 0, 64, 79
2, 91738, Control_c, 0, 64, 79
2, 91757, Control_c, 0, 64, 78
2, 91776, Control_c, 0, 64, 77
2, 91786, Note_on_c, 0, 55, 38
2, 91796, Control_c, 0, 64, 75
2, 91796, Note_on_c, 0, 58, 39
2, 91796, Note_on_c, 0, 73, 0
2, 91799, Note_on_c, 0, 64, 47
2, 91815, Control_c, 0, 64, 72
2, 91834, Control_c, 0, 64, 68
2, 91853, Control_c, 0, 64, 62
2, 91873, Control_c, 0, 64, 41
2, 91891, Control_c, 0, 64, 0
2, 92078, Note_on_c, 0, 73, 55
2, 92097, Note_on_c, 0, 64, 0
2, 92379, Note_on_c, 0, 72, 55
2, 92410, Control_c, 0, 64, 22
2, 92430, Control_c, 0, 64, 47
2, 92436, Note_on_c, 0, 73, 0
2, 92448, Control_c, 0, 64, 56
2, 92468, Control_c, 0, 64, 59
2, 92487, Control_c, 0, 64, 61
2, 92507, Control_c, 0, 64, 63
2, 92525, Control_c, 0, 64, 64
2, 92542, Note_on_c, 0, 58, 0
2, 92545, Control_c, 0, 64, 65
2, 92564, Control_c, 0, 64, 66
2, 92583, Control_c, 0, 64, 67
2, 92601, Note_on_c, 0, 55, 0
2, 92602, Control_c, 0, 64, 69
2, 92622, Control_c, 0, 64, 71
2, 92641, Control_c, 0, 64, 73
2, 92659, Control_c, 0, 64, 74
2, 92669, Note_on_c, 0, 70, 58
2, 92679, Control_c, 0, 64, 75
2, 92697, Note_on_c, 0, 72, 0
2, 92698, Control_c, 0, 64, 74
2, 92736, Control_c, 0, 64, 74
2, 92756, Control_c, 0, 64, 73
2, 92794, Control_c, 0, 64, 73
2, 92813, Control_c, 0, 64, 72
2, 92851, Control_c, 0, 64, 72
2, 92910, Control_c, 0, 64, 71
2, 92943, Note_on_c, 0, 70, 0
2, 92967, Control_c, 0, 64, 71
2, 92971, Note_on_c, 0, 56, 43
2, 92980, Note_on_c, 0, 68, 56
2, 92985, Note_on_c, 0, 60, 35
2, 92987, Control_c, 0, 64, 70
2, 93005, Control_c, 0, 64, 70
2, 93025, Control_c, 0, 64, 69
2, 93044, Control_c, 0, 64, 68
2, 93063, Control_c, 0, 64, 66
2, 93082, Control_c, 0, 64, 64
2, 93102, Control_c, 0, 64, 58
2, 93121, Control_c, 0, 64, 50
2, 93139, Control_c, 0, 64, 46
2, 93159, Control_c, 0, 64, 38
2, 93178, Control_c, 0, 64, 0
2, 93294, Note_on_c, 0, 79, 61
2, 93579, Note_on_c, 0, 79, 0
2, 93586, Note_on_c, 0, 77, 57
2, 93739, Note_on_c, 0, 68, 0
2, 93771, Control_c, 0, 64, 24
2, 93791, Control_c, 0, 64, 46
2, 93810, Control_c, 0, 64, 58
2, 93822, Note_on_c, 0, 56, 0
2, 93829, Control_c, 0, 64, 62
2, 93848, Control_c, 0, 64, 64
2, 93868, Control_c, 0, 64, 64
2, 93872, Note_on_c, 0, 80, 64
2, 93886, Control_c, 0, 64, 66
2, 93906, Control_c, 0, 64, 68
2, 93925, Control_c, 0, 64, 73
2, 93938, Note_on_c, 0, 77, 0
2, 93945, Control_c, 0, 64, 80
2, 93963, Control_c, 0, 64, 84
2, 93983, Control_c, 0, 64, 84
2, 94059, Control_c, 0, 64, 84
2, 94097, Control_c, 0, 64, 83
2, 94117, Control_c, 0, 64, 83
2, 94136, Control_c, 0, 64, 82
2, 94156, Control_c, 0, 64, 81
2, 94162, Note_on_c, 0, 80, 0
2, 94174, Control_c, 0, 64, 80
2, 94183, Note_on_c, 0, 56, 45
2, 94184, Note_on_c, 0, 53, 36
2, 94194, Control_c, 0, 64, 80
2, 94196, Note_on_c, 0, 71, 53
2, 94213, Control_c, 0, 64, 79
2, 94232, Control_c, 0, 64, 78
2, 94251, Control_c, 0, 64, 76
2, 94271, Control_c, 0, 64, 73
2, 94290, Control_c, 0, 64, 68
2, 94308, Note_on_c, 0, 60, 0
2, 94309, Control_c, 0, 64, 64
2, 94328, Control_c, 0, 64, 60
2, 94348, Control_c, 0, 64, 58
2, 94386, Control_c, 0, 64, 57
2, 94405, Control_c, 0, 64, 55
2, 94425, Control_c, 0, 64, 49
2, 94443, Control_c, 0, 64, 27
2, 94463, Control_c, 0, 64, 0
2, 94486, Note_on_c, 0, 80, 63
2, 94516, Note_on_c, 0, 71, 0
2, 94770, Control_c, 0, 64, 34
2, 94775, Note_on_c, 0, 79, 62
2, 94789, Control_c, 0, 64, 50
2, 94808, Control_c, 0, 64, 57
2, 94828, Control_c, 0, 64, 60
2, 94846, Control_c, 0, 64, 62
2, 94866, Control_c, 0, 64, 63
2, 94885, Control_c, 0, 64, 64
2, 94895, Note_on_c, 0, 80, 0
2, 94905, Control_c, 0, 64, 66
2, 94923, Control_c, 0, 64, 68
2, 94943, Control_c, 0, 64, 69
2, 94962, Control_c, 0, 64, 71
2, 94981, Control_c, 0, 64, 72
2, 95004, Note_on_c, 0, 56, 0
2, 95039, Control_c, 0, 64, 72
2, 95060, Note_on_c, 0, 77, 63
2, 95076, Note_on_c, 0, 79, 0
2, 95111, Note_on_c, 0, 53, 0
2, 95134, Control_c, 0, 64, 72
2, 95173, Control_c, 0, 64, 71
2, 95269, Control_c, 0, 64, 71
2, 95326, Control_c, 0, 64, 70
2, 95346, Control_c, 0, 64, 70
2, 95361, Note_on_c, 0, 55, 40
2, 95366, Note_on_c, 0, 58, 36
2, 95371, Note_on_c, 0, 76, 61
2, 95385, Control_c, 0, 64, 69
2, 95403, Control_c, 0, 64, 69
2, 95421, Note_on_c, 0, 77, 0
2, 95423, Control_c, 0, 64, 68
2, 95442, Control_c, 0, 64, 66
2, 95461, Control_c, 0, 64, 63
2, 95480, Control_c, 0, 64, 53
2, 95499, Control_c, 0, 64, 23
2, 95519, Control_c, 0, 64, 0
2, 95663, Note_on_c, 0, 77, 71
2, 95738, Note_on_c, 0, 76, 0
2, 95957, Note_on_c, 0, 79, 67
2, 95978, Note_on_c, 0, 77, 0
2, 96134, Control_c, 0, 64, 43
2, 96153, Control_c, 0, 64, 59
2, 96172, Control_c, 0, 64, 63
2, 96192, Control_c, 0, 64, 64
2, 96211, Control_c, 0, 64, 65
2, 96223, Note_on_c, 0, 55, 0
2, 96230, Control_c, 0, 64, 67
2, 96249, Control_c, 0, 64, 71
2, 96270, Control_c, 0, 64, 81
2, 96274, Note_on_c, 0, 76, 57
2, 96288, Control_c, 0, 64, 92
2, 96301, Note_on_c, 0, 79, 0
2, 96308, Control_c, 0, 64, 99
2, 96327, Control_c, 0, 64, 101
2, 96341, Note_on_c, 0, 58, 0
2, 96365, Control_c, 0, 64, 101
2, 96499, Control_c, 0, 64, 101
2, 96519, Control_c, 0, 64, 100
2, 96538, Control_c, 0, 64, 99
2, 96557, Control_c, 0, 64, 99
2, 96576, Control_c, 0, 64, 98
2, 96596, Control_c, 0, 64, 98
2, 96615, Control_c, 0, 64, 97
2, 96653, Control_c, 0, 64, 96
2, 96673, Control_c, 0, 64, 96
2, 96689, Note_on_c, 0, 55, 40
2, 96691, Control_c, 0, 64, 94
2, 96698, Note_on_c, 0, 52, 40
2, 96711, Control_c, 0, 64, 93
2, 96730, Control_c, 0, 64, 92
2, 96750, Control_c, 0, 64, 90
2, 96768, Control_c, 0, 64, 88
2, 96787, Note_on_c, 0, 82, 69
2, 96788, Control_c, 0, 64, 86
2, 96807, Control_c, 0, 64, 84
2, 96814, Note_on_c, 0, 76, 0
2, 96827, Control_c, 0, 64, 81
2, 96845, Control_c, 0, 64, 76
2, 96865, Control_c, 0, 64, 71
2, 96884, Control_c, 0, 64, 65
2, 96903, Control_c, 0, 64, 60
2, 96922, Control_c, 0, 64, 55
2, 96941, Control_c, 0, 64, 52
2, 96961, Control_c, 0, 64, 49
2, 96979, Control_c, 0, 64, 42
2, 96999, Control_c, 0, 64, 17
2, 97018, Control_c, 0, 64, 0
2, 97214, Note_on_c, 0, 73, 57
2, 97293, Note_on_c, 0, 82, 0
2, 97458, Control_c, 0, 64, 27
2, 97478, Control_c, 0, 64, 48
2, 97497, Control_c, 0, 64, 57
2, 97514, Note_on_c, 0, 73, 0
2, 97516, Note_on_c, 0, 72, 62
2, 97517, Control_c, 0, 64, 61
2, 97535, Control_c, 0, 64, 62
2, 97555, Control_c, 0, 64, 63
2, 97574, Control_c, 0, 64, 65
2, 97593, Control_c, 0, 64, 67
2, 97612, Control_c, 0, 64, 68
2, 97632, Control_c, 0, 64, 71
2, 97651, Control_c, 0, 64, 73
2, 97670, Control_c, 0, 64, 74
2, 97673, Note_on_c, 0, 52, 0
2, 97689, Control_c, 0, 64, 74
2, 97819, Note_on_c, 0, 70, 60
2, 97861, Control_c, 0, 64, 74
2, 97861, Note_on_c, 0, 72, 0
2, 97938, Control_c, 0, 64, 73
2, 97977, Control_c, 0, 64, 73
2, 98015, Control_c, 0, 64, 72
2, 98054, Control_c, 0, 64, 72
2, 98073, Control_c, 0, 64, 71
2, 98092, Control_c, 0, 64, 71
2, 98111, Note_on_c, 0, 60, 42
2, 98112, Control_c, 0, 64, 70
2, 98112, Note_on_c, 0, 53, 34
2, 98119, Note_on_c, 0, 68, 58
2, 98131, Control_c, 0, 64, 69
2, 98148, Note_on_c, 0, 70, 0
2, 98150, Control_c, 0, 64, 68
2, 98169, Control_c, 0, 64, 66
2, 98189, Control_c, 0, 64, 64
2, 98192, Note_on_c, 0, 55, 0
2, 98207, Control_c, 0, 64, 58
2, 98227, Control_c, 0, 64, 47
2, 98246, Control_c, 0, 64, 13
2, 98266, Control_c, 0, 64, 0
2, 98423, Note_on_c, 0, 70, 64
2, 98524, Note_on_c, 0, 68, 0
2, 98717, Note_on_c, 0, 72, 66
2, 98726, Control_c, 0, 64, 27
2, 98746, Control_c, 0, 64, 46
2, 98764, Control_c, 0, 64, 58
2, 98780, Note_on_c, 0, 70, 0
2, 98781, Note_on_c, 0, 60, 0
2, 98784, Control_c, 0, 64, 62
2, 98803, Control_c, 0, 64, 63
2, 98821, Control_c, 0, 64, 64
2, 98841, Control_c, 0, 64, 65
2, 98860, Control_c, 0, 64, 67
2, 98880, Control_c, 0, 64, 70
2, 98898, Control_c, 0, 64, 77
2, 98918, Control_c, 0, 64, 84
2, 98937, Control_c, 0, 64, 88
2, 98957, Control_c, 0, 64, 89
2, 99001, Note_on_c, 0, 65, 63
2, 99018, Note_on_c, 0, 72, 0
2, 99129, Control_c, 0, 64, 88
2, 99187, Control_c, 0, 64, 88
2, 99226, Control_c, 0, 64, 87
2, 99244, Control_c, 0, 64, 87
2, 99264, Control_c, 0, 64, 86
2, 99283, Control_c, 0, 64, 86
2, 99292, Note_on_c, 0, 59, 47
2, 99301, Control_c, 0, 64, 85
2, 99321, Control_c, 0, 64, 84
2, 99340, Control_c, 0, 64, 83
2, 99344, Note_on_c, 0, 74, 64
2, 99359, Control_c, 0, 64, 81
2, 99377, Control_c, 0, 64, 78
2, 99397, Control_c, 0, 64, 73
2, 99416, Control_c, 0, 64, 65
2, 99436, Control_c, 0, 64, 47
2, 99454, Control_c, 0, 64, 0
2, 99628, Control_c, 0, 64, 46
2, 99646, Control_c, 0, 64, 61
2, 99646, Note_on_c, 0, 68, 64
2, 99658, Note_on_c, 0, 65, 0
2, 99666, Control_c, 0, 64, 66
2, 99685, Control_c, 0, 64, 71
2, 99705, Control_c, 0, 64, 78
2, 99723, Control_c, 0, 64, 87
2, 99743, Control_c, 0, 64, 95
2, 99762, Control_c, 0, 64, 100
2, 99762, Note_on_c, 0, 74, 0
2, 99781, Control_c, 0, 64, 102
2, 99906, Note_on_c, 0, 53, 0
2, 99916, Control_c, 0, 64, 101
2, 99934, Note_on_c, 0, 67, 61
2, 99954, Control_c, 0, 64, 101
2, 99959, Note_on_c, 0, 68, 0
2, 99992, Control_c, 0, 64, 100
2, 100011, Control_c, 0, 64, 100
2, 100031, Control_c, 0, 64, 99
2, 100069, Control_c, 0, 64, 98
2, 100088, Control_c, 0, 64, 98
2, 100148, Control_c, 0, 64, 97
2, 100165, Note_on_c, 0, 67, 0
2, 100205, Control_c, 0, 64, 97
2, 100225, Control_c, 0, 64, 96
2, 100225, Note_on_c, 0, 65, 67
2, 100262, Control_c, 0, 64, 96
2, 100359, Control_c, 0, 64, 95
2, 100416, Control_c, 0, 64, 95
2, 100474, Control_c, 0, 64, 94
2, 100526, Note_on_c, 0, 55, 49
2, 100551, Control_c, 0, 64, 93
2, 100570, Control_c, 0, 64, 91
2, 100575, Note_on_c, 0, 64, 72
2, 100586, Note_on_c, 0, 65, 0
2, 100590, Control_c, 0, 64, 88
2, 100608, Control_c, 0, 64, 82
2, 100628, Control_c, 0, 64, 73
2, 100647, Control_c, 0, 64, 63
2, 100662, Note_on_c, 0, 59, 0
2, 100667, Control_c, 0, 64, 27
2, 100685, Control_c, 0, 64, 0
2, 100781, Control_c, 0, 64, 47
2, 100801, Control_c, 0, 64, 62
2, 100819, Control_c, 0, 64, 67
2, 100839, Control_c, 0, 64, 72
2, 100858, Control_c, 0, 64, 80
2, 100877, Control_c, 0, 64, 92
2, 100896, Control_c, 0, 64, 108
2, 100916, Control_c, 0, 64, 123
2, 100935, Control_c, 0, 64, 127
2, 100937, Note_on_c, 0, 60, 68
2, 101070, Note_on_c, 0, 55, 0
2, 101101, Note_on_c, 0, 48, 0
2, 101106, Note_on_c, 0, 60, 0
2, 101108, Control_c, 0, 64, 123
2, 101127, Control_c, 0, 64, 119
2, 101147, Control_c, 0, 64, 118
2, 101165, Control_c, 0, 64, 116
2, 101185, Control_c, 0, 64, 115
2, 101204, Control_c, 0, 64, 114
2, 101222, Control_c, 0, 64, 112
2, 101228, Note_on_c, 0, 55, 67
2, 101242, Control_c, 0, 64, 111
2, 101261, Control_c, 0, 64, 110
2, 101281, Control_c, 0, 64, 108
2, 101299, Control_c, 0, 64, 107
2, 101319, Control_c, 0, 64, 106
2, 101338, Control_c, 0, 64, 105
2, 101357, Control_c, 0, 64, 104
2, 101376, Control_c, 0, 64, 103
2, 101396, Control_c, 0, 64, 103
2, 101442, Note_on_c, 0, 64, 0
2, 101453, Control_c, 0, 64, 102
2, 101511, Control_c, 0, 64, 101
2, 101518, Note_on_c, 0, 58, 76
2, 101530, Control_c, 0, 64, 101
2, 101550, Control_c, 0, 64, 100
2, 101562, Note_on_c, 0, 55, 0
2, 101568, Control_c, 0, 64, 99
2, 101588, Control_c, 0, 64, 98
2, 101607, Control_c, 0, 64, 97
2, 101627, Control_c, 0, 64, 96
2, 101645, Control_c, 0, 64, 96
2, 101665, Control_c, 0, 64, 95
2, 101684, Control_c, 0, 64, 94
2, 101702, Control_c, 0, 64, 94
2, 101722, Control_c, 0, 64, 93
2, 101741, Control_c, 0, 64, 92
2, 101761, Control_c, 0, 64, 91
2, 101779, Control_c, 0, 64, 89
2, 101799, Control_c, 0, 64, 88
2, 101808, Note_on_c, 0, 65, 72
2, 101818, Control_c, 0, 64, 86
2, 101819, Note_on_c, 0, 56, 68
2, 101837, Control_c, 0, 64, 83
2, 101841, Note_on_c, 0, 58, 0
2, 101856, Control_c, 0, 64, 79
2, 101876, Control_c, 0, 64, 74
2, 101895, Control_c, 0, 64, 69
2, 101914, Control_c, 0, 64, 64
2, 101933, Control_c, 0, 64, 61
2, 101953, Control_c, 0, 64, 58
2, 101974, Control_c, 0, 64, 56
2, 101993, Control_c, 0, 64, 54
2, 102013, Control_c, 0, 64, 50
2, 102032, Control_c, 0, 64, 45
2, 102051, Control_c, 0, 64, 35
2, 102073, Control_c, 0, 64, 0
2, 102119, Note_on_c, 0, 53, 71
2, 102428, Note_on_c, 0, 47, 63
2, 102479, Note_on_c, 0, 53, 0
2, 102663, Note_on_c, 0, 56, 0
2, 102756, Note_on_c, 0, 50, 76
2, 102760, Note_on_c, 0, 47, 0
2, 103225, Note_on_c, 0, 55, 63
2, 103254, Note_on_c, 0, 36, 69
2, 103270, Note_on_c, 0, 50, 0
2, 103704, Note_on_c, 0, 62, 71
2, 103721, Note_on_c, 0, 65, 0
2, 103786, Note_on_c, 0, 55, 0
2, 104053, Note_on_c, 0, 53, 58
2, 104056, Note_on_c, 0, 59, 70
2, 104065, Note_on_c, 0, 62, 0
2, 104380, Note_on_c, 0, 60, 68
2, 104442, Note_on_c, 0, 59, 0
2, 104475, Note_on_c, 0, 53, 0
2, 104740, Note_on_c, 0, 55, 67
2, 104830, Note_on_c, 0, 60, 0
2, 105098, Note_on_c, 0, 58, 66
2, 105463, Note_on_c, 0, 60, 69
2, 105625, Control_c, 0, 64, 18
2, 105644, Control_c, 0, 64, 56
2, 105664, Control_c, 0, 64, 65
2, 105682, Control_c, 0, 64, 71
2, 105702, Control_c, 0, 64, 82
2, 105706, Note_on_c, 0, 36, 0
2, 105721, Control_c, 0, 64, 95
2, 105741, Control_c, 0, 64, 127
2, 105878, Note_on_c, 0, 64, 79
2, 106037, Note_on_c, 0, 60, 0
2, 106060, Note_on_c, 0, 55, 0
2, 106084, Note_on_c, 0, 58, 0
2, 106131, Note_on_c, 0, 64, 0
2, 106643, Note_on_c, 0, 65, 67
2, 106650, Note_on_c, 0, 53, 49
2, 106653, Note_on_c, 0, 57, 53
2, 106654, Note_on_c, 0, 41, 45
2, 106656, Note_on_c, 0, 60, 52
2, 106774, Control_c, 0, 64, 102
2, 106793, Control_c, 0, 64, 89
2, 106813, Control_c, 0, 64, 76
2, 106833, Control_c, 0, 64, 64
2, 106852, Control_c, 0, 64, 42
2, 106871, Control_c, 0, 64, 0
2, 107599, Control_c, 0, 64, 11
2, 107617, Control_c, 0, 64, 15
2, 107637, Control_c, 0, 64, 20
2, 107656, Control_c, 0, 64, 23
2, 107674, Control_c, 0, 64, 27
2, 107694, Control_c, 0, 64, 31
2, 107713, Control_c, 0, 64, 36
2, 107733, Control_c, 0, 64, 40
2, 107751, Control_c, 0, 64, 44
2, 107771, Control_c, 0, 64, 47
2, 107790, Control_c, 0, 64, 49
2, 107809, Control_c, 0, 64, 50
2, 107828, Control_c, 0, 64, 52
2, 107848, Control_c, 0, 64, 54
2, 107867, Control_c, 0, 64, 56
2, 107886, Control_c, 0, 64, 59
2, 107905, Control_c, 0, 64, 61
2, 107925, Control_c, 0, 64, 62
2, 107944, Control_c, 0, 64, 63
2, 107963, Control_c, 0, 64, 63
2, 107982, Control_c, 0, 64, 65
2, 108002, Control_c, 0, 64, 67
2, 108020, Control_c, 0, 64, 70
2, 108040, Control_c, 0, 64, 74
2, 108059, Control_c, 0, 64, 78
2, 108079, Control_c, 0, 64, 83
2, 108097, Control_c, 0, 64, 87
2, 108117, Control_c, 0, 64, 91
2, 108136, Control_c, 0, 64, 94
2, 108154, Control_c, 0, 64, 96
2, 108174, Control_c, 0, 64, 97
2, 108241, Note_on_c, 0, 57, 0
2, 108409, Note_on_c, 0, 53, 0
2, 108547, Note_on_c, 0, 41, 0
2, 108559, Control_c, 0, 64, 97
2, 108597, Control_c, 0, 64, 96
2, 108673, Control_c, 0, 64, 96
2, 108749, Control_c, 0, 64, 95
2, 108844, Control_c, 0, 64, 95
2, 108863, Control_c, 0, 64, 94
2, 108883, Control_c, 0, 64, 94
2, 108902, Control_c, 0, 64, 93
2, 108921, Control_c, 0, 64, 93
2, 108940, Control_c, 0, 64, 92
2, 108952, Note_on_c, 0, 65, 0
2, 108957, Note_on_c, 0, 60, 0
2, 108960, Control_c, 0, 64, 91
2, 108979, Control_c, 0, 64, 90
2, 108999, Control_c, 0, 64, 90
2, 109018, Control_c, 0, 64, 89
2, 109038, Control_c, 0, 64, 88
2, 109056, Control_c, 0, 64, 88
2, 109075, Control_c, 0, 64, 87
2, 109113, Control_c, 0, 64, 86
2, 109133, Control_c, 0, 64, 86
2, 109229, Control_c, 0, 64, 85
2, 109344, Control_c, 0, 64, 85
2, 109402, Control_c, 0, 64, 84
2, 109421, Control_c, 0, 64, 84
2, 109459, Control_c, 0, 64, 83
2, 109479, Control_c, 0, 64, 83
2, 109518, Control_c, 0, 64, 82
2, 109555, Control_c, 0, 64, 81
2, 109575, Control_c, 0, 64, 80
2, 109593, Control_c, 0, 64, 79
2, 109613, Control_c, 0, 64, 78
2, 109632, Control_c, 0, 64, 78
2, 109652, Control_c, 0, 64, 77
2, 109670, Control_c, 0, 64, 77
2, 109709, Control_c, 0, 64, 76
2, 109728, Control_c, 0, 64, 76
2, 109747, Control_c, 0, 64, 75
2, 109767, Control_c, 0, 64, 74
2, 109786, Control_c, 0, 64, 73
2, 109805, Control_c, 0, 64, 72
2, 109824, Control_c, 0, 64, 71
2, 109844, Control_c, 0, 64, 70
2, 109863, Control_c, 0, 64, 68
2, 109882, Control_c, 0, 64, 67
2, 109901, Control_c, 0, 64, 66
2, 109921, Control_c, 0, 64, 66
2, 109939, Control_c, 0, 64, 65
2, 109959, Control_c, 0, 64, 65
2, 109978, Control_c, 0, 64, 64
2, 109998, Control_c, 0, 64, 63
2, 110016, Control_c, 0, 64, 63
2, 110035, Control_c, 0, 64, 62
2, 110055, Control_c, 0, 64, 62
2, 110073, Control_c, 0, 64, 61
2, 110093, Control_c, 0, 64, 61
2, 110112, Control_c, 0, 64, 60
2, 110132, Control_c, 0, 64, 59
2, 110150, Control_c, 0, 64, 58
2, 110170, Control_c, 0, 64, 57
2, 110189, Control_c, 0, 64, 55
2, 110208, Control_c, 0, 64, 53
2, 110227, Control_c, 0, 64, 50
2, 110247, Control_c, 0, 64, 46
2, 110266, Control_c, 0, 64, 39
2, 110285, Control_c, 0, 64, 23
2, 110304, Control_c, 0, 64, 0
2, 112216,End_track
0, 0, End_of_file
