0, 0, Header, 1, 2, 480
1, 0, Start_track
1, 0, Tempo, 500000
1, 0, Time_signature, 4, 2, 24, 8
1, 1, End_track
2,0,Start_track
2,0, Note_on_c, 0, 60, 43
2,1000, Note_on_c, 0, 61, 52
2,1247, Note_on_c, 0, 60, 0
2,1997, Note_on_c, 0, 60, 44
2,2187, Note_on_c, 0, 61, 0
2,2933, Note_on_c, 0, 59, 42
2,3142, Note_on_c, 0, 60, 0
2,3887, Note_on_c, 0, 64, 59
2,4180, Note_on_c, 0, 59, 0
2,4888, Note_on_c, 0, 65, 46
2,5013, Note_on_c, 0, 64, 0
2,5852, Note_on_c, 0, 58, 40
2,6060, Note_on_c, 0, 65, 0
2,6767, Note_on_c, 0, 57, 41
2,6929, Note_on_c, 0, 58, 0
2,7701, Note_on_c, 0, 56, 41
2,7859, Note_on_c, 0, 57, 0
2,8751, Note_on_c, 0, 55, 36
2,8941, Note_on_c, 0, 56, 0
2,10565, Note_on_c, 0, 53, 29
2,10713, Note_on_c, 0, 55, 0
2,10850, Note_on_c, 0, 53, 0
2,11005, Note_on_c, 0, 53, 45
2,11186, Note_on_c, 0, 53, 0
2,11216, Note_on_c, 0, 55, 42
2,11433, Note_on_c, 0, 65, 65
2,11452, Note_on_c, 0, 56, 39
2,11552, Note_on_c, 0, 55, 0
2,11686, Note_on_c, 0, 56, 0
2,11851, Note_on_c, 0, 56, 47
2,12074, Note_on_c, 0, 56, 0
2,12077, Note_on_c, 0, 58, 50
2,12200, Note_on_c, 0, 58, 0
2,12271, Note_on_c, 0, 68, 72
2,12282, Note_on_c, 0, 60, 44
2,12353, Note_on_c, 0, 65, 0
2,12437, Note_on_c, 0, 60, 0
2,12466, Note_on_c, 0, 47, 54
2,12685, Note_on_c, 0, 48, 49
2,12824, Note_on_c, 0, 47, 0
2,12865, Note_on_c, 0, 50, 54
2,12923, Note_on_c, 0, 48, 0
2,13104, Note_on_c, 0, 67, 62
2,13115, Note_on_c, 0, 51, 42
2,13181, Note_on_c, 0, 50, 0
2,13195, Note_on_c, 0, 68, 0
2,13947, Note_on_c, 0, 66, 59
2,13999, Note_on_c, 0, 67, 0
2,14017, Note_on_c, 0, 51, 0
2,14160, Note_on_c, 0, 48, 49
2,14355, Note_on_c, 0, 50, 64
2,14503, Note_on_c, 0, 48, 0
2,14524, Note_on_c, 0, 51, 61
2,14586, Note_on_c, 0, 50, 0
2,14763, Note_on_c, 0, 71, 72
2,14777, Note_on_c, 0, 53, 52
2,14840, Note_on_c, 0, 66, 0
2,14846, Note_on_c, 0, 51, 0
2,15647, Note_on_c, 0, 72, 80
2,15685, Note_on_c, 0, 53, 0
2,15701, Note_on_c, 0, 71, 0
2,15831, Note_on_c, 0, 51, 53
2,16039, Note_on_c, 0, 53, 59
2,16191, Note_on_c, 0, 51, 0
2,16237, Note_on_c, 0, 55, 49
2,16243, Note_on_c, 0, 53, 0
2,16472, Note_on_c, 0, 65, 56
2,16506, Note_on_c, 0, 56, 43
2,16537, Note_on_c, 0, 55, 0
2,16540, Note_on_c, 0, 72, 0
2,17344, Note_on_c, 0, 56, 0
2,17363, Note_on_c, 0, 64, 49
2,17415, Note_on_c, 0, 65, 0
2,17547, Note_on_c, 0, 55, 44
2,17751, Note_on_c, 0, 57, 41
2,17772, Note_on_c, 0, 55, 0
2,17923, Note_on_c, 0, 57, 0
2,17939, Note_on_c, 0, 59, 46
2,18198, Note_on_c, 0, 60, 33
2,18201, Note_on_c, 0, 63, 40
2,18243, Note_on_c, 0, 59, 0
2,18267, Note_on_c, 0, 64, 0
2,19095, Note_on_c, 0, 62, 45
2,19101, Note_on_c, 0, 63, 0
2,19517, Note_on_c, 0, 59, 40
2,19604, Note_on_c, 0, 60, 0
2,19694, Note_on_c, 0, 59, 0
2,19715, Note_on_c, 0, 57, 43
2,19883, Note_on_c, 0, 57, 0
2,19930, Note_on_c, 0, 60, 42
2,20019, Note_on_c, 0, 60, 0
2,20038, Note_on_c, 0, 59, 52
2,20100, Note_on_c, 0, 59, 0
2,20150, Note_on_c, 0, 60, 44
2,20203, Note_on_c, 0, 60, 0
2,20223, Note_on_c, 0, 59, 56
2,20277, Note_on_c, 0, 59, 0
2,20322, Note_on_c, 0, 60, 53
2,20373, Note_on_c, 0, 60, 0
2,20390, Note_on_c, 0, 59, 57
2,20439, Note_on_c, 0, 59, 0
2,20466, Note_on_c, 0, 57, 54
2,20560, Note_on_c, 0, 59, 57
2,20618, Note_on_c, 0, 57, 0
2,20656, Note_on_c, 0, 59, 0
2,20694, Note_on_c, 0, 62, 0
2,20702, Note_on_c, 0, 60, 51
2,20989, Note_on_c, 0, 60, 0
2,21125, Note_on_c, 0, 55, 54
2,21140, Note_on_c, 0, 60, 53
2,21318, Note_on_c, 0, 62, 57
2,21356, Note_on_c, 0, 60, 0
2,21570, Note_on_c, 0, 48, 69
2,21581, Note_on_c, 0, 64, 56
2,21612, Note_on_c, 0, 60, 33
2,21633, Note_on_c, 0, 62, 0
2,21755, Note_on_c, 0, 55, 0
2,22005, Note_on_c, 0, 64, 0
2,22006, Note_on_c, 0, 58, 60
2,22012, Note_on_c, 0, 62, 59
2,22029, Note_on_c, 0, 60, 0
2,22204, Note_on_c, 0, 64, 64
2,22252, Note_on_c, 0, 58, 0
2,22279, Note_on_c, 0, 62, 0
2,22407, Note_on_c, 0, 49, 72
2,22421, Note_on_c, 0, 65, 61
2,22436, Note_on_c, 0, 56, 47
2,22448, Note_on_c, 0, 64, 0
2,22577, Note_on_c, 0, 56, 0
2,22582, Note_on_c, 0, 48, 0
2,22597, Note_on_c, 0, 65, 0
2,22614, Note_on_c, 0, 52, 68
2,22752, Note_on_c, 0, 52, 0
2,22819, Note_on_c, 0, 53, 53
2,22854, Note_on_c, 0, 65, 76
2,23007, Note_on_c, 0, 53, 0
2,23029, Note_on_c, 0, 55, 60
2,23243, Note_on_c, 0, 55, 0
2,23246, Note_on_c, 0, 56, 73
2,23261, Note_on_c, 0, 48, 65
2,23318, Note_on_c, 0, 49, 0
2,23681, Note_on_c, 0, 63, 63
2,24083, Note_on_c, 0, 47, 69
2,24091, Note_on_c, 0, 48, 0
2,24100, Note_on_c, 0, 62, 50
2,24151, Note_on_c, 0, 56, 0
2,24220, Note_on_c, 0, 65, 0
2,24278, Note_on_c, 0, 53, 63
2,24296, Note_on_c, 0, 63, 0
2,24313, Note_on_c, 0, 62, 0
2,24468, Note_on_c, 0, 53, 0
2,24499, Note_on_c, 0, 55, 58
2,24511, Note_on_c, 0, 63, 68
2,24678, Note_on_c, 0, 55, 0
2,24682, Note_on_c, 0, 56, 59
2,24689, Note_on_c, 0, 65, 67
2,24758, Note_on_c, 0, 63, 0
2,24928, Note_on_c, 0, 67, 64
2,24929, Note_on_c, 0, 58, 73
2,24943, Note_on_c, 0, 52, 68
2,24959, Note_on_c, 0, 65, 0
2,24983, Note_on_c, 0, 56, 0
2,25037, Note_on_c, 0, 47, 0
2,25143, Note_on_c, 0, 65, 64
2,25317, Note_on_c, 0, 67, 0
2,25346, Note_on_c, 0, 64, 67
2,25509, Note_on_c, 0, 65, 0
2,25552, Note_on_c, 0, 64, 0
2,25560, Note_on_c, 0, 62, 63
2,25755, Note_on_c, 0, 53, 73
2,25760, Note_on_c, 0, 58, 0
2,25766, Note_on_c, 0, 62, 0
2,25777, Note_on_c, 0, 60, 65
2,25804, Note_on_c, 0, 52, 0
2,25972, Note_on_c, 0, 56, 66
2,26170, Note_on_c, 0, 60, 0
2,26180, Note_on_c, 0, 58, 53
2,26375, Note_on_c, 0, 60, 51
2,26575, Note_on_c, 0, 60, 0
2,26583, Note_on_c, 0, 58, 0
2,26584, Note_on_c, 0, 46, 67
2,26605, Note_on_c, 0, 61, 57
2,26615, Note_on_c, 0, 56, 0
2,26824, Note_on_c, 0, 58, 58
2,27008, Note_on_c, 0, 56, 61
2,27067, Note_on_c, 0, 58, 0
2,27153, Note_on_c, 0, 53, 0
2,27210, Note_on_c, 0, 55, 62
2,27231, Note_on_c, 0, 56, 0
2,27396, Note_on_c, 0, 55, 0
2,27421, Note_on_c, 0, 45, 64
2,27421, Note_on_c, 0, 53, 68
2,27487, Note_on_c, 0, 61, 0
2,27563, Note_on_c, 0, 46, 0
2,27621, Note_on_c, 0, 60, 70
2,27816, Note_on_c, 0, 62, 67
2,28002, Note_on_c, 0, 64, 69
2,28022, Note_on_c, 0, 62, 0
2,28196, Note_on_c, 0, 60, 0
2,28207, Note_on_c, 0, 64, 0
2,28217, Note_on_c, 0, 44, 75
2,28218, Note_on_c, 0, 65, 68
2,28230, Note_on_c, 0, 53, 0
2,28277, Note_on_c, 0, 45, 0
2,28420, Note_on_c, 0, 53, 58
2,28480, Control_c, 0, 64, 9
2,28491, Note_on_c, 0, 53, 0
2,28499, Control_c, 0, 64, 21
2,28518, Control_c, 0, 64, 24
2,28537, Control_c, 0, 64, 25
2,28576, Control_c, 0, 64, 26
2,28623, Note_on_c, 0, 55, 65
2,28711, Control_c, 0, 64, 27
2,28807, Note_on_c, 0, 56, 70
2,28815, Note_on_c, 0, 55, 0
2,29059, Note_on_c, 0, 43, 72
2,29075, Control_c, 0, 64, 26
2,29076, Note_on_c, 0, 56, 0
2,29078, Note_on_c, 0, 58, 59
2,29111, Note_on_c, 0, 44, 0
2,29114, Control_c, 0, 64, 25
2,29152, Control_c, 0, 64, 24
2,29171, Control_c, 0, 64, 23
2,29190, Control_c, 0, 64, 22
2,29208, Control_c, 0, 64, 20
2,29228, Control_c, 0, 64, 18
2,29247, Control_c, 0, 64, 17
2,29267, Control_c, 0, 64, 15
2,29285, Control_c, 0, 64, 13
2,29324, Control_c, 0, 64, 11
2,29401, Control_c, 0, 64, 9
2,29439, Control_c, 0, 64, 0
2,29501, Note_on_c, 0, 64, 75
2,29529, Note_on_c, 0, 65, 0
2,29691, Note_on_c, 0, 62, 71
2,29731, Note_on_c, 0, 64, 0
2,29958, Note_on_c, 0, 64, 80
2,29974, Note_on_c, 0, 62, 0
2,30001, Note_on_c, 0, 58, 0
2,30188, Control_c, 0, 64, 17
2,30207, Control_c, 0, 64, 50
2,30227, Control_c, 0, 64, 61
2,30245, Control_c, 0, 64, 65
2,30264, Control_c, 0, 64, 69
2,30284, Control_c, 0, 64, 79
2,30302, Control_c, 0, 64, 92
2,30322, Control_c, 0, 64, 112
2,30341, Control_c, 0, 64, 127
2,30372, Note_on_c, 0, 56, 81
2,30416, Note_on_c, 0, 64, 0
2,30543, Note_on_c, 0, 56, 0
2,30547, Note_on_c, 0, 55, 74
2,30632, Note_on_c, 0, 55, 0
2,30764, Control_c, 0, 64, 116
2,30782, Control_c, 0, 64, 109
2,30802, Control_c, 0, 64, 106
2,30821, Control_c, 0, 64, 104
2,30841, Control_c, 0, 64, 99
2,30843, Note_on_c, 0, 41, 55
2,30846, Note_on_c, 0, 65, 60
2,30849, Note_on_c, 0, 56, 63
2,30859, Control_c, 0, 64, 94
2,30878, Note_on_c, 0, 43, 0
2,30879, Control_c, 0, 64, 84
2,30898, Control_c, 0, 64, 73
2,30918, Control_c, 0, 64, 64
2,30936, Control_c, 0, 64, 48
2,30956, Control_c, 0, 64, 0
2,31086, Note_on_c, 0, 56, 0
2,31099, Note_on_c, 0, 65, 0
2,31342, Note_on_c, 0, 65, 31
2,31533, Note_on_c, 0, 41, 0
2,31545, Note_on_c, 0, 67, 48
2,31594, Note_on_c, 0, 65, 0
2,31765, Note_on_c, 0, 68, 48
2,31790, Note_on_c, 0, 67, 0
2,31952, Note_on_c, 0, 68, 0
2,32176, Note_on_c, 0, 53, 42
2,32188, Note_on_c, 0, 68, 50
2,32380, Note_on_c, 0, 70, 59
2,32385, Note_on_c, 0, 68, 0
2,32394, Note_on_c, 0, 55, 36
2,32398, Note_on_c, 0, 53, 0
2,32598, Note_on_c, 0, 72, 61
2,32610, Note_on_c, 0, 56, 41
2,32634, Note_on_c, 0, 55, 0
2,32637, Note_on_c, 0, 70, 0
2,32734, Note_on_c, 0, 56, 0
2,33024, Note_on_c, 0, 60, 40
2,33031, Note_on_c, 0, 56, 46
2,33215, Note_on_c, 0, 60, 0
2,33230, Note_on_c, 0, 58, 37
2,33268, Note_on_c, 0, 61, 45
2,33327, Note_on_c, 0, 56, 0
2,33408, Note_on_c, 0, 72, 0
2,33422, Note_on_c, 0, 58, 0
2,33437, Note_on_c, 0, 61, 0
2,33461, Note_on_c, 0, 63, 54
2,33470, Note_on_c, 0, 60, 37
2,33603, Note_on_c, 0, 60, 0
2,33659, Note_on_c, 0, 70, 55
2,33861, Note_on_c, 0, 48, 38
2,33883, Note_on_c, 0, 68, 59
2,33993, Note_on_c, 0, 70, 0
2,34010, Note_on_c, 0, 48, 0
2,34063, Note_on_c, 0, 67, 52
2,34089, Note_on_c, 0, 68, 0
2,34311, Note_on_c, 0, 49, 45
2,34319, Note_on_c, 0, 65, 51
2,34330, Note_on_c, 0, 67, 0
2,34429, Note_on_c, 0, 63, 0
2,34530, Note_on_c, 0, 65, 0
2,34761, Note_on_c, 0, 61, 60
2,34963, Note_on_c, 0, 63, 70
2,35022, Note_on_c, 0, 61, 0
2,35077, Note_on_c, 0, 49, 0
2,35186, Note_on_c, 0, 65, 66
2,35261, Note_on_c, 0, 63, 0
2,35440, Note_on_c, 0, 65, 0
2,35608, Note_on_c, 0, 49, 56
2,35610, Note_on_c, 0, 65, 66
2,35807, Note_on_c, 0, 51, 51
2,35814, Note_on_c, 0, 67, 72
2,35858, Note_on_c, 0, 65, 0
2,35986, Note_on_c, 0, 49, 0
2,36013, Note_on_c, 0, 53, 49
2,36047, Note_on_c, 0, 51, 0
2,36057, Note_on_c, 0, 68, 79
2,36094, Note_on_c, 0, 67, 0
2,36171, Note_on_c, 0, 53, 0
2,36470, Note_on_c, 0, 53, 55
2,36473, Note_on_c, 0, 56, 56
2,36665, Note_on_c, 0, 55, 64
2,36673, Note_on_c, 0, 53, 0
2,36673, Note_on_c, 0, 58, 65
2,36715, Note_on_c, 0, 56, 0
2,36779, Note_on_c, 0, 58, 0
2,36861, Note_on_c, 0, 55, 0
2,36882, Note_on_c, 0, 60, 65
2,36885, Note_on_c, 0, 56, 62
2,37038, Note_on_c, 0, 56, 0
2,37088, Note_on_c, 0, 66, 77
2,37119, Note_on_c, 0, 68, 0
2,37265, Note_on_c, 0, 66, 0
2,37281, Note_on_c, 0, 44, 55
2,37291, Note_on_c, 0, 65, 74
2,37436, Note_on_c, 0, 44, 0
2,37483, Note_on_c, 0, 63, 73
2,37526, Note_on_c, 0, 65, 0
2,37745, Note_on_c, 0, 46, 41
2,37762, Note_on_c, 0, 61, 60
2,37806, Note_on_c, 0, 60, 0
2,37817, Note_on_c, 0, 63, 0
2,37997, Note_on_c, 0, 61, 0
2,38202, Note_on_c, 0, 58, 46
2,38388, Note_on_c, 0, 58, 0
2,38407, Note_on_c, 0, 60, 45
2,38543, Note_on_c, 0, 46, 0
2,38601, Note_on_c, 0, 60, 0
2,38637, Note_on_c, 0, 61, 43
2,38887, Note_on_c, 0, 61, 0
2,39060, Note_on_c, 0, 46, 35
2,39078, Note_on_c, 0, 61, 43
2,39261, Note_on_c, 0, 46, 0
2,39273, Note_on_c, 0, 63, 53
2,39282, Note_on_c, 0, 48, 33
2,39333, Note_on_c, 0, 61, 0
2,39511, Note_on_c, 0, 65, 52
2,39515, Note_on_c, 0, 49, 44
2,39553, Note_on_c, 0, 48, 0
2,39579, Note_on_c, 0, 63, 0
2,39648, Note_on_c, 0, 49, 0
2,39918, Note_on_c, 0, 49, 38
2,39925, Note_on_c, 0, 53, 43
2,40091, Note_on_c, 0, 53, 0
2,40120, Note_on_c, 0, 55, 47
2,40134, Note_on_c, 0, 51, 40
2,40312, Note_on_c, 0, 49, 0
2,40320, Note_on_c, 0, 51, 0
2,40366, Note_on_c, 0, 53, 32
2,40366, Note_on_c, 0, 56, 57
2,40402, Note_on_c, 0, 55, 0
2,40618, Note_on_c, 0, 56, 0
2,40694, Note_on_c, 0, 53, 0
2,40786, Note_on_c, 0, 56, 56
2,40789, Note_on_c, 0, 41, 33
2,40995, Note_on_c, 0, 58, 51
2,40998, Note_on_c, 0, 56, 0
2,41047, Note_on_c, 0, 41, 0
2,41225, Note_on_c, 0, 48, 37
2,41251, Note_on_c, 0, 58, 0
2,41258, Note_on_c, 0, 60, 51
2,41387, Note_on_c, 0, 48, 0
2,41487, Note_on_c, 0, 65, 0
2,41664, Note_on_c, 0, 60, 0
2,41676, Note_on_c, 0, 48, 48
2,41682, Note_on_c, 0, 64, 64
2,41702, Note_on_c, 0, 55, 40
2,41823, Note_on_c, 0, 64, 0
2,41875, Note_on_c, 0, 65, 68
2,41878, Note_on_c, 0, 55, 0
2,41885, Note_on_c, 0, 48, 0
2,41891, Note_on_c, 0, 50, 55
2,42115, Note_on_c, 0, 50, 0
2,42127, Note_on_c, 0, 52, 57
2,42133, Note_on_c, 0, 60, 45
2,42184, Note_on_c, 0, 65, 0
2,42190, Note_on_c, 0, 72, 88
2,42214, Note_on_c, 0, 67, 69
2,42285, Control_c, 0, 64, 54
2,42303, Control_c, 0, 64, 64
2,42323, Control_c, 0, 64, 70
2,42342, Control_c, 0, 64, 84
2,42350, Note_on_c, 0, 52, 0
2,42362, Control_c, 0, 64, 127
2,42563, Note_on_c, 0, 72, 0
2,42581, Note_on_c, 0, 50, 60
2,42608, Note_on_c, 0, 58, 59
2,42639, Note_on_c, 0, 60, 0
2,42731, Note_on_c, 0, 58, 0
2,42768, Note_on_c, 0, 50, 0
2,42781, Note_on_c, 0, 52, 60
2,42833, Note_on_c, 0, 52, 0
2,42993, Control_c, 0, 64, 78
2,43002, Note_on_c, 0, 53, 61
2,43012, Control_c, 0, 64, 53
2,43022, Note_on_c, 0, 56, 55
2,43032, Control_c, 0, 64, 0
2,43035, Note_on_c, 0, 73, 89
2,43047, Note_on_c, 0, 53, 0
2,43070, Control_c, 0, 64, 49
2,43089, Control_c, 0, 64, 66
2,43109, Control_c, 0, 64, 78
2,43118, Note_on_c, 0, 56, 0
2,43128, Control_c, 0, 64, 127
2,43249, Note_on_c, 0, 40, 61
2,43415, Control_c, 0, 64, 96
2,43435, Control_c, 0, 64, 80
2,43454, Control_c, 0, 64, 70
2,43458, Note_on_c, 0, 40, 0
2,43458, Note_on_c, 0, 65, 65
2,43464, Note_on_c, 0, 41, 56
2,43473, Control_c, 0, 64, 64
2,43492, Control_c, 0, 64, 59
2,43512, Control_c, 0, 64, 57
2,43531, Control_c, 0, 64, 56
2,43533, Note_on_c, 0, 73, 0
2,43550, Control_c, 0, 64, 54
2,43569, Control_c, 0, 64, 52
2,43589, Control_c, 0, 64, 50
2,43608, Control_c, 0, 64, 49
2,43626, Control_c, 0, 64, 47
2,43638, Note_on_c, 0, 41, 0
2,43646, Control_c, 0, 64, 46
2,43663, Note_on_c, 0, 43, 64
2,43703, Control_c, 0, 64, 45
2,43742, Control_c, 0, 64, 46
2,43761, Control_c, 0, 64, 48
2,43800, Control_c, 0, 64, 47
2,43818, Control_c, 0, 64, 41
2,43838, Control_c, 0, 64, 0
2,43871, Note_on_c, 0, 44, 57
2,43877, Note_on_c, 0, 43, 0
2,43882, Note_on_c, 0, 72, 87
2,43915, Note_on_c, 0, 67, 0
2,43935, Note_on_c, 0, 65, 0
2,43972, Control_c, 0, 64, 21
2,43992, Control_c, 0, 64, 55
2,44011, Control_c, 0, 64, 64
2,44030, Control_c, 0, 64, 68
2,44049, Control_c, 0, 64, 74
2,44068, Control_c, 0, 64, 82
2,44088, Control_c, 0, 64, 89
2,44099, Note_on_c, 0, 48, 63
2,44106, Control_c, 0, 64, 90
2,44126, Control_c, 0, 64, 89
2,44145, Control_c, 0, 64, 88
2,44164, Control_c, 0, 64, 87
2,44183, Control_c, 0, 64, 84
2,44203, Control_c, 0, 64, 82
2,44222, Control_c, 0, 64, 80
2,44241, Control_c, 0, 64, 77
2,44251, Note_on_c, 0, 48, 0
2,44260, Control_c, 0, 64, 72
2,44280, Control_c, 0, 64, 68
2,44298, Control_c, 0, 64, 64
2,44308, Note_on_c, 0, 50, 52
2,44315, Note_on_c, 0, 63, 67
2,44318, Control_c, 0, 64, 60
2,44337, Control_c, 0, 64, 59
2,44357, Control_c, 0, 64, 58
2,44375, Control_c, 0, 64, 58
2,44395, Control_c, 0, 64, 57
2,44414, Control_c, 0, 64, 56
2,44433, Control_c, 0, 64, 55
2,44452, Control_c, 0, 64, 55
2,44472, Control_c, 0, 64, 54
2,44491, Control_c, 0, 64, 54
2,44511, Note_on_c, 0, 72, 0
2,44513, Note_on_c, 0, 51, 57
2,44514, Note_on_c, 0, 50, 0
2,44529, Control_c, 0, 64, 53
2,44587, Control_c, 0, 64, 54
2,44626, Control_c, 0, 64, 54
2,44645, Control_c, 0, 64, 54
2,44684, Control_c, 0, 64, 53
2,44701, Note_on_c, 0, 44, 0
2,44702, Control_c, 0, 64, 52
2,44722, Control_c, 0, 64, 51
2,44731, Note_on_c, 0, 51, 0
2,44732, Note_on_c, 0, 53, 55
2,44737, Note_on_c, 0, 71, 86
2,44741, Control_c, 0, 64, 50
2,44744, Note_on_c, 0, 62, 57
2,44760, Control_c, 0, 64, 50
2,44772, Note_on_c, 0, 63, 0
2,44778, Control_c, 0, 64, 49
2,44798, Control_c, 0, 64, 47
2,44817, Control_c, 0, 64, 43
2,44837, Control_c, 0, 64, 37
2,44855, Control_c, 0, 64, 21
2,44875, Control_c, 0, 64, 0
2,44952, Note_on_c, 0, 41, 62
2,45168, Note_on_c, 0, 43, 52
2,45169, Note_on_c, 0, 63, 66
2,45182, Note_on_c, 0, 62, 0
2,45201, Control_c, 0, 64, 42
2,45220, Control_c, 0, 64, 49
2,45240, Control_c, 0, 64, 56
2,45253, Note_on_c, 0, 53, 0
2,45258, Control_c, 0, 64, 62
2,45278, Control_c, 0, 64, 66
2,45297, Control_c, 0, 64, 71
2,45317, Control_c, 0, 64, 79
2,45318, Note_on_c, 0, 71, 0
2,45335, Control_c, 0, 64, 89
2,45345, Note_on_c, 0, 63, 0
2,45355, Control_c, 0, 64, 95
2,45372, Note_on_c, 0, 44, 60
2,45373, Note_on_c, 0, 65, 68
2,45374, Control_c, 0, 64, 96
2,45392, Note_on_c, 0, 41, 0
2,45463, Note_on_c, 0, 65, 0
2,45484, Note_on_c, 0, 43, 0
2,45528, Control_c, 0, 64, 93
2,45546, Control_c, 0, 64, 85
2,45566, Control_c, 0, 64, 71
2,45585, Control_c, 0, 64, 50
2,45601, Note_on_c, 0, 76, 89
2,45604, Control_c, 0, 64, 0
2,45606, Note_on_c, 0, 46, 53
2,45611, Note_on_c, 0, 67, 69
2,45627, Note_on_c, 0, 44, 0
2,45700, Control_c, 0, 64, 43
2,45719, Control_c, 0, 64, 62
2,45738, Control_c, 0, 64, 69
2,45757, Control_c, 0, 64, 80
2,45768, Note_on_c, 0, 76, 0
2,45776, Control_c, 0, 64, 99
2,45796, Control_c, 0, 64, 127
2,45818, Note_on_c, 0, 65, 67
2,45833, Note_on_c, 0, 67, 0
2,45987, Control_c, 0, 64, 114
2,46007, Control_c, 0, 64, 73
2,46025, Control_c, 0, 64, 0
2,46031, Note_on_c, 0, 64, 73
2,46036, Note_on_c, 0, 65, 0
2,46045, Note_on_c, 0, 55, 45
2,46083, Control_c, 0, 64, 27
2,46102, Control_c, 0, 64, 59
2,46122, Control_c, 0, 64, 71
2,46141, Control_c, 0, 64, 87
2,46142, Note_on_c, 0, 46, 0
2,46160, Control_c, 0, 64, 127
2,46177, Note_on_c, 0, 55, 0
2,46199, Note_on_c, 0, 64, 0
2,46227, Note_on_c, 0, 62, 71
2,46271, Note_on_c, 0, 62, 0
2,46428, Control_c, 0, 64, 85
2,46448, Control_c, 0, 64, 62
2,46449, Note_on_c, 0, 56, 59
2,46470, Control_c, 0, 64, 32
2,46476, Note_on_c, 0, 60, 45
2,46480, Note_on_c, 0, 77, 91
2,46488, Control_c, 0, 64, 53
2,46507, Control_c, 0, 64, 64
2,46508, Note_on_c, 0, 60, 0
2,46512, Note_on_c, 0, 56, 0
2,46527, Control_c, 0, 64, 74
2,46546, Control_c, 0, 64, 107
2,46565, Control_c, 0, 64, 127
2,46699, Note_on_c, 0, 44, 55
2,46718, Control_c, 0, 64, 107
2,46737, Control_c, 0, 64, 95
2,46757, Control_c, 0, 64, 87
2,46775, Control_c, 0, 64, 78
2,46795, Control_c, 0, 64, 69
2,46814, Control_c, 0, 64, 62
2,46822, Note_on_c, 0, 77, 0
2,46833, Control_c, 0, 64, 50
2,46852, Control_c, 0, 64, 34
2,46872, Control_c, 0, 64, 18
2,46891, Control_c, 0, 64, 0
2,46930, Note_on_c, 0, 46, 60
2,47080, Note_on_c, 0, 44, 0
2,47117, Note_on_c, 0, 46, 0
2,47122, Note_on_c, 0, 48, 64
2,47296, Note_on_c, 0, 48, 0
2,47318, Note_on_c, 0, 49, 58
2,47331, Note_on_c, 0, 70, 86
2,47352, Control_c, 0, 64, 21
2,47371, Control_c, 0, 64, 56
2,47390, Control_c, 0, 64, 65
2,47409, Control_c, 0, 64, 69
2,47426, Control_c, 0, 64, 75
2,47446, Control_c, 0, 64, 84
2,47464, Control_c, 0, 64, 94
2,47484, Control_c, 0, 64, 104
2,47503, Control_c, 0, 64, 107
2,47523, Control_c, 0, 64, 108
2,47559, Note_on_c, 0, 58, 56
2,47580, Control_c, 0, 64, 107
2,47599, Control_c, 0, 64, 106
2,47618, Control_c, 0, 64, 104
2,47637, Control_c, 0, 64, 101
2,47656, Control_c, 0, 64, 96
2,47673, Note_on_c, 0, 58, 0
2,47675, Control_c, 0, 64, 90
2,47694, Control_c, 0, 64, 85
2,47714, Control_c, 0, 64, 80
2,47733, Control_c, 0, 64, 75
2,47751, Note_on_c, 0, 56, 55
2,47752, Control_c, 0, 64, 70
2,47771, Control_c, 0, 64, 65
2,47778, Note_on_c, 0, 58, 58
2,47791, Control_c, 0, 64, 63
2,47809, Control_c, 0, 64, 61
2,47828, Control_c, 0, 64, 59
2,47848, Control_c, 0, 64, 58
2,47867, Control_c, 0, 64, 55
2,47872, Note_on_c, 0, 56, 0
2,47886, Control_c, 0, 64, 52
2,47905, Control_c, 0, 64, 49
2,47925, Control_c, 0, 64, 46
2,47943, Control_c, 0, 64, 41
2,47960, Note_on_c, 0, 55, 51
2,47963, Control_c, 0, 64, 36
2,47982, Control_c, 0, 64, 32
2,48002, Control_c, 0, 64, 31
2,48020, Control_c, 0, 64, 29
2,48040, Control_c, 0, 64, 25
2,48059, Control_c, 0, 64, 20
2,48070, Note_on_c, 0, 58, 0
2,48078, Control_c, 0, 64, 15
2,48097, Control_c, 0, 64, 0
2,48107, Note_on_c, 0, 49, 0
2,48120, Note_on_c, 0, 70, 0
2,48184, Note_on_c, 0, 53, 47
2,48199, Note_on_c, 0, 69, 77
2,48219, Note_on_c, 0, 60, 54
2,48297, Note_on_c, 0, 55, 0
2,48421, Note_on_c, 0, 48, 45
2,48633, Note_on_c, 0, 50, 51
2,48635, Note_on_c, 0, 53, 0
2,48655, Note_on_c, 0, 48, 0
2,48808, Note_on_c, 0, 50, 0
2,48855, Note_on_c, 0, 52, 45
2,49068, Note_on_c, 0, 68, 68
2,49076, Note_on_c, 0, 53, 45
2,49094, Note_on_c, 0, 69, 0
2,49128, Note_on_c, 0, 52, 0
2,49129, Note_on_c, 0, 53, 0
2,49257, Note_on_c, 0, 60, 0
2,49265, Note_on_c, 0, 53, 44
2,49497, Note_on_c, 0, 53, 0
2,49500, Note_on_c, 0, 60, 49
2,49503, Note_on_c, 0, 55, 43
2,49661, Note_on_c, 0, 55, 0
2,49709, Note_on_c, 0, 56, 50
2,49737, Note_on_c, 0, 68, 0
2,49989, Note_on_c, 0, 58, 35
2,50014, Note_on_c, 0, 67, 60
2,50022, Note_on_c, 0, 56, 0
2,50039, Note_on_c, 0, 61, 38
2,50109, Note_on_c, 0, 60, 0
2,50453, Note_on_c, 0, 61, 0
2,50478, Note_on_c, 0, 52, 41
2,50484, Note_on_c, 0, 60, 46
2,50556, Note_on_c, 0, 58, 0
2,50647, Note_on_c, 0, 52, 0
2,50690, Note_on_c, 0, 50, 48
2,50695, Note_on_c, 0, 60, 0
2,50698, Note_on_c, 0, 58, 53
2,50877, Note_on_c, 0, 50, 0
2,50909, Note_on_c, 0, 52, 33
2,50919, Note_on_c, 0, 60, 48
2,51333, Note_on_c, 0, 58, 0
2,51354, Note_on_c, 0, 56, 55
2,51565, Note_on_c, 0, 56, 0
2,51570, Note_on_c, 0, 67, 0
2,51571, Note_on_c, 0, 55, 50
2,51791, Note_on_c, 0, 56, 46
2,51798, Note_on_c, 0, 55, 0
2,51805, Note_on_c, 0, 53, 42
2,51843, Note_on_c, 0, 52, 0
2,52259, Note_on_c, 0, 65, 42
2,52446, Note_on_c, 0, 56, 0
2,52455, Note_on_c, 0, 53, 0
2,52468, Note_on_c, 0, 67, 48
2,52522, Note_on_c, 0, 65, 0
2,52698, Note_on_c, 0, 68, 50
2,52734, Note_on_c, 0, 67, 0
2,52892, Note_on_c, 0, 60, 0
2,53142, Note_on_c, 0, 53, 39
2,53311, Note_on_c, 0, 53, 0
2,53335, Note_on_c, 0, 51, 40
2,53567, Note_on_c, 0, 51, 0
2,53578, Note_on_c, 0, 50, 43
2,53775, Note_on_c, 0, 50, 0
2,54008, Note_on_c, 0, 50, 33
2,54032, Note_on_c, 0, 65, 40
2,54208, Note_on_c, 0, 65, 0
2,54224, Note_on_c, 0, 63, 47
2,54229, Note_on_c, 0, 48, 30
2,54238, Note_on_c, 0, 50, 0
2,54436, Note_on_c, 0, 63, 0
2,54445, Note_on_c, 0, 62, 45
2,54462, Note_on_c, 0, 46, 37
2,54473, Note_on_c, 0, 48, 0
2,54607, Note_on_c, 0, 62, 0
2,54735, Note_on_c, 0, 46, 0
2,54873, Note_on_c, 0, 62, 45
2,54890, Note_on_c, 0, 48, 41
2,55018, Note_on_c, 0, 48, 0
2,55084, Note_on_c, 0, 60, 51
2,55091, Note_on_c, 0, 50, 47
2,55091, Note_on_c, 0, 62, 0
2,55298, Note_on_c, 0, 60, 0
2,55304, Note_on_c, 0, 50, 0
2,55316, Note_on_c, 0, 51, 46
2,55325, Note_on_c, 0, 58, 57
2,55545, Note_on_c, 0, 58, 0
2,55547, Note_on_c, 0, 68, 0
2,55753, Note_on_c, 0, 58, 46
2,55767, Note_on_c, 0, 67, 73
2,55813, Note_on_c, 0, 51, 0
2,55969, Note_on_c, 0, 68, 78
2,55991, Note_on_c, 0, 56, 51
2,56050, Note_on_c, 0, 67, 0
2,56085, Note_on_c, 0, 58, 0
2,56208, Note_on_c, 0, 55, 45
2,56233, Note_on_c, 0, 70, 78
2,56272, Note_on_c, 0, 56, 0
2,56274, Note_on_c, 0, 68, 0
2,56418, Note_on_c, 0, 55, 0
2,56666, Note_on_c, 0, 55, 64
2,56884, Note_on_c, 0, 53, 65
2,56943, Note_on_c, 0, 55, 0
2,57109, Note_on_c, 0, 52, 57
2,57150, Note_on_c, 0, 53, 0
2,57346, Note_on_c, 0, 52, 0
2,57538, Note_on_c, 0, 52, 44
2,57549, Note_on_c, 0, 67, 59
2,57754, Note_on_c, 0, 50, 55
2,57760, Note_on_c, 0, 65, 59
2,57809, Note_on_c, 0, 67, 0
2,57835, Note_on_c, 0, 52, 0
2,57976, Note_on_c, 0, 50, 0
2,57990, Note_on_c, 0, 64, 62
2,58000, Note_on_c, 0, 48, 40
2,58021, Note_on_c, 0, 65, 0
2,58233, Note_on_c, 0, 48, 0
2,58252, Note_on_c, 0, 64, 0
2,58425, Note_on_c, 0, 50, 54
2,58426, Note_on_c, 0, 64, 70
2,58557, Note_on_c, 0, 70, 0
2,58615, Note_on_c, 0, 50, 0
2,58637, Note_on_c, 0, 62, 70
2,58639, Note_on_c, 0, 52, 60
2,58761, Note_on_c, 0, 64, 0
2,58812, Note_on_c, 0, 62, 0
2,58847, Note_on_c, 0, 53, 70
2,58863, Note_on_c, 0, 60, 67
2,58878, Note_on_c, 0, 52, 0
2,59065, Note_on_c, 0, 67, 83
2,59089, Note_on_c, 0, 60, 0
2,59258, Note_on_c, 0, 60, 60
2,59273, Control_c, 0, 64, 36
2,59292, Control_c, 0, 64, 55
2,59292, Note_on_c, 0, 68, 88
2,59312, Control_c, 0, 64, 64
2,59330, Control_c, 0, 64, 71
2,59338, Note_on_c, 0, 67, 0
2,59349, Control_c, 0, 64, 83
2,59369, Control_c, 0, 64, 102
2,59388, Control_c, 0, 64, 127
2,59476, Note_on_c, 0, 68, 0
2,59484, Note_on_c, 0, 58, 73
2,59488, Note_on_c, 0, 72, 95
2,59492, Note_on_c, 0, 60, 0
2,59501, Note_on_c, 0, 53, 0
2,59591, Note_on_c, 0, 58, 0
2,59723, Note_on_c, 0, 56, 78
2,59772, Control_c, 0, 64, 110
2,59791, Control_c, 0, 64, 99
2,59799, Note_on_c, 0, 77, 93
2,59810, Control_c, 0, 64, 90
2,59829, Control_c, 0, 64, 79
2,59848, Note_on_c, 0, 72, 0
2,59849, Control_c, 0, 64, 70
2,59868, Control_c, 0, 64, 61
2,59887, Control_c, 0, 64, 48
2,59907, Control_c, 0, 64, 24
2,59927, Control_c, 0, 64, 0
2,60220, Note_on_c, 0, 50, 68
2,60428, Note_on_c, 0, 48, 70
2,60449, Note_on_c, 0, 50, 0
2,60644, Note_on_c, 0, 47, 70
2,60678, Note_on_c, 0, 48, 0
2,60892, Note_on_c, 0, 47, 0
2,61079, Control_c, 0, 64, 9
2,61079, Note_on_c, 0, 56, 0
2,61088, Note_on_c, 0, 47, 58
2,61095, Note_on_c, 0, 74, 72
2,61299, Note_on_c, 0, 45, 58
2,61301, Note_on_c, 0, 72, 79
2,61342, Note_on_c, 0, 47, 0
2,61363, Note_on_c, 0, 74, 0
2,61367, Control_c, 0, 64, 0
2,61521, Note_on_c, 0, 43, 64
2,61539, Note_on_c, 0, 71, 70
2,61565, Note_on_c, 0, 72, 0
2,61578, Note_on_c, 0, 45, 0
2,61819, Note_on_c, 0, 71, 0
2,61893, Note_on_c, 0, 43, 0
2,61957, Note_on_c, 0, 45, 68
2,61965, Note_on_c, 0, 71, 75
2,62156, Note_on_c, 0, 47, 73
2,62167, Note_on_c, 0, 69, 73
2,62191, Note_on_c, 0, 71, 0
2,62214, Note_on_c, 0, 45, 0
2,62393, Note_on_c, 0, 69, 0
2,62406, Note_on_c, 0, 67, 67
2,62415, Note_on_c, 0, 48, 74
2,62479, Note_on_c, 0, 47, 0
2,62535, Note_on_c, 0, 77, 0
2,62600, Note_on_c, 0, 67, 0
2,62861, Note_on_c, 0, 67, 69
2,62861, Note_on_c, 0, 75, 81
2,62879, Note_on_c, 0, 48, 0
2,63065, Note_on_c, 0, 69, 76
2,63078, Note_on_c, 0, 75, 0
2,63115, Note_on_c, 0, 67, 0
2,63394, Note_on_c, 0, 55, 82
2,63394, Note_on_c, 0, 71, 59
2,63401, Note_on_c, 0, 74, 58
2,63405, Note_on_c, 0, 69, 0
2,63537, Note_on_c, 0, 74, 0
2,63556, Control_c, 0, 64, 19
2,63574, Control_c, 0, 64, 55
2,63594, Control_c, 0, 64, 63
2,63613, Control_c, 0, 64, 65
2,63633, Control_c, 0, 64, 67
2,63651, Control_c, 0, 64, 70
2,63670, Control_c, 0, 64, 74
2,63690, Control_c, 0, 64, 78
2,63695, Note_on_c, 0, 71, 0
2,63708, Control_c, 0, 64, 81
2,63728, Control_c, 0, 64, 81
2,63787, Control_c, 0, 64, 81
2,63807, Control_c, 0, 64, 80
2,63826, Control_c, 0, 64, 80
2,63845, Control_c, 0, 64, 79
2,63855, Note_on_c, 0, 79, 82
2,63859, Note_on_c, 0, 69, 76
2,63864, Control_c, 0, 64, 78
2,63884, Control_c, 0, 64, 77
2,63903, Control_c, 0, 64, 76
2,63922, Control_c, 0, 64, 74
2,63941, Control_c, 0, 64, 73
2,63961, Control_c, 0, 64, 72
2,63979, Control_c, 0, 64, 71
2,63999, Control_c, 0, 64, 70
2,64018, Control_c, 0, 64, 68
2,64038, Control_c, 0, 64, 66
2,64049, Note_on_c, 0, 71, 62
2,64056, Control_c, 0, 64, 65
2,64068, Note_on_c, 0, 69, 0
2,64076, Control_c, 0, 64, 64
2,64095, Control_c, 0, 64, 63
2,64114, Control_c, 0, 64, 62
2,64133, Control_c, 0, 64, 62
2,64153, Control_c, 0, 64, 61
2,64172, Control_c, 0, 64, 61
2,64190, Control_c, 0, 64, 60
2,64210, Control_c, 0, 64, 59
2,64229, Control_c, 0, 64, 58
2,64248, Control_c, 0, 64, 57
2,64266, Note_on_c, 0, 71, 0
2,64267, Control_c, 0, 64, 56
2,64287, Control_c, 0, 64, 55
2,64290, Note_on_c, 0, 56, 85
2,64293, Note_on_c, 0, 72, 58
2,64306, Control_c, 0, 64, 53
2,64325, Control_c, 0, 64, 51
2,64344, Control_c, 0, 64, 49
2,64364, Control_c, 0, 64, 46
2,64368, Note_on_c, 0, 55, 0
2,64383, Control_c, 0, 64, 44
2,64402, Control_c, 0, 64, 40
2,64421, Control_c, 0, 64, 36
2,64441, Control_c, 0, 64, 31
2,64459, Control_c, 0, 64, 27
2,64479, Control_c, 0, 64, 20
2,64498, Control_c, 0, 64, 11
2,64499, Note_on_c, 0, 72, 0
2,64506, Note_on_c, 0, 71, 65
2,64518, Control_c, 0, 64, 0
2,64693, Note_on_c, 0, 71, 0
2,64719, Note_on_c, 0, 72, 63
2,64901, Note_on_c, 0, 74, 60
2,65135, Note_on_c, 0, 55, 75
2,65135, Note_on_c, 0, 75, 67
2,65175, Note_on_c, 0, 79, 0
2,65176, Note_on_c, 0, 74, 0
2,65204, Note_on_c, 0, 72, 0
2,65319, Note_on_c, 0, 56, 0
2,65577, Note_on_c, 0, 70, 66
2,65999, Note_on_c, 0, 69, 57
2,66008, Note_on_c, 0, 54, 72
2,66031, Note_on_c, 0, 70, 0
2,66096, Note_on_c, 0, 55, 0
2,66201, Note_on_c, 0, 75, 0
2,66213, Note_on_c, 0, 69, 0
2,66221, Note_on_c, 0, 72, 76
2,66441, Note_on_c, 0, 71, 60
2,66444, Note_on_c, 0, 74, 72
2,66462, Note_on_c, 0, 72, 0
2,66637, Note_on_c, 0, 75, 69
2,66642, Note_on_c, 0, 72, 54
2,66672, Note_on_c, 0, 74, 0
2,66862, Note_on_c, 0, 59, 82
2,66884, Note_on_c, 0, 54, 0
2,66891, Note_on_c, 0, 72, 0
2,66906, Note_on_c, 0, 77, 50
2,66939, Note_on_c, 0, 71, 0
2,66955, Note_on_c, 0, 74, 50
2,66977, Note_on_c, 0, 75, 0
2,67099, Note_on_c, 0, 72, 71
2,67121, Note_on_c, 0, 74, 0
2,67203, Control_c, 0, 64, 11
2,67222, Control_c, 0, 64, 33
2,67242, Control_c, 0, 64, 44
2,67261, Control_c, 0, 64, 52
2,67262, Note_on_c, 0, 72, 0
2,67277, Note_on_c, 0, 71, 62
2,67280, Control_c, 0, 64, 57
2,67299, Control_c, 0, 64, 60
2,67319, Control_c, 0, 64, 60
2,67338, Control_c, 0, 64, 61
2,67357, Control_c, 0, 64, 61
2,67472, Note_on_c, 0, 71, 0
2,67477, Note_on_c, 0, 69, 66
2,67491, Control_c, 0, 64, 61
2,67510, Control_c, 0, 64, 60
2,67548, Control_c, 0, 64, 60
2,67568, Control_c, 0, 64, 59
2,67589, Control_c, 0, 64, 59
2,67627, Control_c, 0, 64, 58
2,67650, Note_on_c, 0, 69, 0
2,67690, Note_on_c, 0, 59, 0
2,67697, Note_on_c, 0, 60, 76
2,67712, Note_on_c, 0, 67, 52
2,67724, Control_c, 0, 64, 58
2,67762, Control_c, 0, 64, 57
2,67819, Control_c, 0, 64, 57
2,67892, Note_on_c, 0, 77, 0
2,67902, Note_on_c, 0, 75, 80
2,67921, Note_on_c, 0, 67, 0
2,67992, Control_c, 0, 64, 56
2,68069, Control_c, 0, 64, 56
2,68123, Note_on_c, 0, 77, 81
2,68164, Note_on_c, 0, 75, 0
2,68204, Control_c, 0, 64, 55
2,68320, Note_on_c, 0, 79, 82
2,68376, Note_on_c, 0, 77, 0
2,68396, Control_c, 0, 64, 55
2,68492, Control_c, 0, 64, 54
2,68510, Control_c, 0, 64, 53
2,68530, Control_c, 0, 64, 50
2,68537, Note_on_c, 0, 53, 71
2,68550, Control_c, 0, 64, 32
2,68561, Note_on_c, 0, 80, 78
2,68569, Control_c, 0, 64, 0
2,68596, Note_on_c, 0, 79, 0
2,68727, Note_on_c, 0, 60, 0
2,68756, Note_on_c, 0, 65, 69
2,68877, Control_c, 0, 64, 27
2,68896, Control_c, 0, 64, 52
2,68915, Control_c, 0, 64, 61
2,68934, Control_c, 0, 64, 64
2,68954, Control_c, 0, 64, 65
2,68973, Control_c, 0, 64, 69
2,68991, Control_c, 0, 64, 75
2,69001, Note_on_c, 0, 63, 74
2,69011, Control_c, 0, 64, 86
2,69018, Note_on_c, 0, 65, 0
2,69030, Control_c, 0, 64, 98
2,69049, Control_c, 0, 64, 103
2,69128, Note_on_c, 0, 63, 0
2,69142, Note_on_c, 0, 53, 0
2,69165, Control_c, 0, 64, 103
2,69183, Control_c, 0, 64, 102
2,69189, Note_on_c, 0, 62, 68
2,69203, Control_c, 0, 64, 100
2,69222, Control_c, 0, 64, 98
2,69242, Control_c, 0, 64, 96
2,69260, Control_c, 0, 64, 94
2,69275, Note_on_c, 0, 62, 0
2,69280, Control_c, 0, 64, 92
2,69299, Control_c, 0, 64, 91
2,69318, Control_c, 0, 64, 90
2,69337, Control_c, 0, 64, 89
2,69357, Control_c, 0, 64, 88
2,69376, Control_c, 0, 64, 85
2,69395, Control_c, 0, 64, 82
2,69408, Note_on_c, 0, 60, 78
2,69414, Control_c, 0, 64, 77
2,69415, Note_on_c, 0, 52, 70
2,69434, Control_c, 0, 64, 71
2,69453, Control_c, 0, 64, 65
2,69471, Control_c, 0, 64, 61
2,69491, Control_c, 0, 64, 57
2,69509, Control_c, 0, 64, 55
2,69528, Control_c, 0, 64, 54
2,69547, Control_c, 0, 64, 50
2,69567, Control_c, 0, 64, 44
2,69586, Control_c, 0, 64, 31
2,69605, Control_c, 0, 64, 0
2,69607, Note_on_c, 0, 79, 81
2,69609, Note_on_c, 0, 80, 0
2,69817, Note_on_c, 0, 81, 81
2,69872, Note_on_c, 0, 79, 0
2,70011, Note_on_c, 0, 83, 79
2,70069, Note_on_c, 0, 81, 0
2,70220, Note_on_c, 0, 51, 72
2,70230, Note_on_c, 0, 84, 77
2,70248, Note_on_c, 0, 83, 0
2,70268, Note_on_c, 0, 52, 0
2,70411, Control_c, 0, 64, 28
2,70426, Note_on_c, 0, 72, 71
2,70429, Control_c, 0, 64, 45
2,70449, Control_c, 0, 64, 53
2,70469, Control_c, 0, 64, 55
2,70488, Control_c, 0, 64, 56
2,70508, Note_on_c, 0, 72, 0
2,70604, Control_c, 0, 64, 55
2,70637, Note_on_c, 0, 74, 73
2,70642, Control_c, 0, 64, 55
2,70661, Control_c, 0, 64, 54
2,70681, Control_c, 0, 64, 53
2,70699, Control_c, 0, 64, 52
2,70719, Control_c, 0, 64, 51
2,70738, Control_c, 0, 64, 51
2,70758, Control_c, 0, 64, 50
2,70821, Note_on_c, 0, 75, 77
2,70853, Control_c, 0, 64, 50
2,70856, Note_on_c, 0, 74, 0
2,70872, Control_c, 0, 64, 49
2,70892, Control_c, 0, 64, 49
2,70910, Control_c, 0, 64, 48
2,70930, Control_c, 0, 64, 48
2,70968, Control_c, 0, 64, 47
2,71045, Control_c, 0, 64, 47
2,71064, Control_c, 0, 64, 46
2,71065, Note_on_c, 0, 50, 72
2,71066, Note_on_c, 0, 77, 73
2,71078, Note_on_c, 0, 75, 0
2,71084, Control_c, 0, 64, 45
2,71103, Control_c, 0, 64, 43
2,71122, Control_c, 0, 64, 41
2,71125, Note_on_c, 0, 51, 0
2,71141, Control_c, 0, 64, 35
2,71161, Control_c, 0, 64, 0
2,71511, Note_on_c, 0, 83, 83
2,71561, Note_on_c, 0, 84, 0
2,71695, Note_on_c, 0, 81, 80
2,71743, Note_on_c, 0, 83, 0
2,71947, Note_on_c, 0, 83, 86
2,71981, Note_on_c, 0, 81, 0
2,71983, Note_on_c, 0, 77, 0
2,72120, Control_c, 0, 64, 37
2,72138, Control_c, 0, 64, 57
2,72158, Control_c, 0, 64, 65
2,72177, Control_c, 0, 64, 70
2,72197, Control_c, 0, 64, 80
2,72212, Note_on_c, 0, 50, 0
2,72215, Control_c, 0, 64, 97
2,72235, Control_c, 0, 64, 127
2,72375, Note_on_c, 0, 75, 87
2,72404, Note_on_c, 0, 83, 0
2,72564, Note_on_c, 0, 74, 74
2,72573, Note_on_c, 0, 75, 0
2,72721, Note_on_c, 0, 74, 0
2,72818, Note_on_c, 0, 48, 72
2,72821, Note_on_c, 0, 84, 85
2,72829, Control_c, 0, 64, 102
2,72843, Note_on_c, 0, 75, 71
2,72849, Control_c, 0, 64, 77
2,72868, Control_c, 0, 64, 59
2,72888, Control_c, 0, 64, 0
2,72964, Control_c, 0, 64, 30
2,72983, Control_c, 0, 64, 60
2,73003, Control_c, 0, 64, 68
2,73010, Note_on_c, 0, 84, 0
2,73022, Control_c, 0, 64, 77
2,73024, Note_on_c, 0, 60, 0
2,73030, Note_on_c, 0, 48, 0
2,73041, Control_c, 0, 64, 95
2,73060, Control_c, 0, 64, 127
2,73167, Note_on_c, 0, 75, 0
2,73258, Note_on_c, 0, 79, 86
2,73260, Note_on_c, 0, 72, 76
2,73324, Note_on_c, 0, 72, 0
2,73349, Control_c, 0, 64, 121
2,73368, Control_c, 0, 64, 110
2,73387, Control_c, 0, 64, 107
2,73407, Control_c, 0, 64, 105
2,73426, Control_c, 0, 64, 104
2,73445, Control_c, 0, 64, 104
2,73455, Note_on_c, 0, 74, 76
2,73464, Control_c, 0, 64, 103
2,73484, Control_c, 0, 64, 102
2,73503, Control_c, 0, 64, 99
2,73522, Control_c, 0, 64, 97
2,73541, Control_c, 0, 64, 94
2,73559, Control_c, 0, 64, 91
2,73578, Control_c, 0, 64, 88
2,73597, Control_c, 0, 64, 84
2,73616, Control_c, 0, 64, 79
2,73636, Control_c, 0, 64, 72
2,73654, Control_c, 0, 64, 65
2,73673, Control_c, 0, 64, 56
2,73693, Control_c, 0, 64, 34
2,73698, Note_on_c, 0, 84, 86
2,73706, Note_on_c, 0, 75, 72
2,73712, Control_c, 0, 64, 0
2,73741, Note_on_c, 0, 74, 0
2,73759, Note_on_c, 0, 79, 0
2,74142, Note_on_c, 0, 72, 71
2,74357, Note_on_c, 0, 70, 67
2,74425, Note_on_c, 0, 72, 0
2,74576, Note_on_c, 0, 69, 60
2,74630, Note_on_c, 0, 70, 0
2,74775, Note_on_c, 0, 69, 0
2,74853, Note_on_c, 0, 84, 0
2,75001, Note_on_c, 0, 69, 38
2,75001, Note_on_c, 0, 84, 78
2,75210, Note_on_c, 0, 82, 77
2,75236, Note_on_c, 0, 67, 54
2,75243, Note_on_c, 0, 69, 0
2,75260, Note_on_c, 0, 84, 0
2,75439, Note_on_c, 0, 81, 70
2,75451, Note_on_c, 0, 65, 45
2,75500, Note_on_c, 0, 82, 0
2,75507, Note_on_c, 0, 67, 0
2,75669, Note_on_c, 0, 81, 0
2,75767, Note_on_c, 0, 65, 0
2,75865, Note_on_c, 0, 81, 73
2,75878, Note_on_c, 0, 67, 48
2,76077, Note_on_c, 0, 79, 78
2,76079, Note_on_c, 0, 67, 0
2,76080, Note_on_c, 0, 69, 60
2,76126, Note_on_c, 0, 81, 0
2,76279, Note_on_c, 0, 69, 0
2,76311, Note_on_c, 0, 70, 66
2,76311, Note_on_c, 0, 77, 77
2,76313, Note_on_c, 0, 75, 0
2,76345, Note_on_c, 0, 79, 0
2,76399, Control_c, 0, 64, 50
2,76418, Control_c, 0, 64, 62
2,76438, Control_c, 0, 64, 66
2,76457, Control_c, 0, 64, 68
2,76469, Note_on_c, 0, 70, 0
2,76476, Control_c, 0, 64, 70
2,76495, Control_c, 0, 64, 75
2,76514, Control_c, 0, 64, 85
2,76533, Control_c, 0, 64, 95
2,76552, Control_c, 0, 64, 99
2,76572, Control_c, 0, 64, 101
2,76591, Control_c, 0, 64, 103
2,76610, Control_c, 0, 64, 107
2,76629, Control_c, 0, 64, 117
2,76649, Control_c, 0, 64, 127
2,76687, Control_c, 0, 64, 110
2,76706, Control_c, 0, 64, 83
2,76726, Control_c, 0, 64, 65
2,76744, Control_c, 0, 64, 23
2,76751, Note_on_c, 0, 70, 61
2,76752, Note_on_c, 0, 58, 57
2,76752, Note_on_c, 0, 79, 73
2,76764, Control_c, 0, 64, 0
2,76783, Control_c, 0, 64, 43
2,76803, Control_c, 0, 64, 61
2,76821, Control_c, 0, 64, 67
2,76837, Note_on_c, 0, 77, 0
2,76841, Control_c, 0, 64, 76
2,76851, Note_on_c, 0, 70, 0
2,76860, Control_c, 0, 64, 98
2,76879, Control_c, 0, 64, 127
2,76947, Note_on_c, 0, 81, 80
2,76958, Note_on_c, 0, 72, 71
2,76975, Note_on_c, 0, 58, 0
2,77002, Note_on_c, 0, 79, 0
2,77010, Note_on_c, 0, 81, 0
2,77167, Control_c, 0, 64, 116
2,77189, Control_c, 0, 64, 108
2,77208, Control_c, 0, 64, 103
2,77227, Control_c, 0, 64, 101
2,77232, Note_on_c, 0, 82, 77
2,77247, Control_c, 0, 64, 99
2,77253, Note_on_c, 0, 73, 59
2,77266, Control_c, 0, 64, 97
2,77282, Note_on_c, 0, 72, 0
2,77285, Control_c, 0, 64, 92
2,77304, Control_c, 0, 64, 85
2,77324, Control_c, 0, 64, 77
2,77343, Control_c, 0, 64, 67
2,77362, Control_c, 0, 64, 60
2,77381, Control_c, 0, 64, 43
2,77398, Control_c, 0, 64, 22
2,77417, Control_c, 0, 64, 0
2,77688, Note_on_c, 0, 70, 55
2,77894, Note_on_c, 0, 68, 53
2,77911, Note_on_c, 0, 70, 0
2,78125, Note_on_c, 0, 67, 43
2,78171, Note_on_c, 0, 68, 0
2,78319, Note_on_c, 0, 67, 0
2,78408, Note_on_c, 0, 82, 0
2,78566, Note_on_c, 0, 82, 63
2,78576, Note_on_c, 0, 67, 38
2,78769, Note_on_c, 0, 80, 63
2,78781, Note_on_c, 0, 65, 39
2,78791, Note_on_c, 0, 82, 0
2,78806, Note_on_c, 0, 67, 0
2,78950, Note_on_c, 0, 65, 0
2,79006, Note_on_c, 0, 80, 0
2,79008, Note_on_c, 0, 63, 40
2,79019, Note_on_c, 0, 79, 55
2,79209, Note_on_c, 0, 79, 0
2,79277, Note_on_c, 0, 63, 0
2,79444, Note_on_c, 0, 65, 37
2,79446, Note_on_c, 0, 79, 60
2,79656, Note_on_c, 0, 77, 59
2,79662, Note_on_c, 0, 65, 0
2,79679, Note_on_c, 0, 67, 37
2,79701, Note_on_c, 0, 79, 0
2,79834, Note_on_c, 0, 67, 0
2,79879, Note_on_c, 0, 73, 0
2,79885, Note_on_c, 0, 75, 57
2,79902, Note_on_c, 0, 68, 46
2,79923, Note_on_c, 0, 77, 0
2,79951, Control_c, 0, 64, 36
2,79970, Control_c, 0, 64, 55
2,79989, Control_c, 0, 64, 61
2,80009, Control_c, 0, 64, 63
2,80028, Control_c, 0, 64, 63
2,80047, Control_c, 0, 64, 64
2,80055, Note_on_c, 0, 68, 0
2,80066, Control_c, 0, 64, 64
2,80086, Control_c, 0, 64, 65
2,80104, Control_c, 0, 64, 66
2,80124, Control_c, 0, 64, 67
2,80143, Control_c, 0, 64, 68
2,80163, Control_c, 0, 64, 71
2,80181, Control_c, 0, 64, 76
2,80201, Control_c, 0, 64, 79
2,80220, Control_c, 0, 64, 80
2,80239, Control_c, 0, 64, 76
2,80258, Control_c, 0, 64, 69
2,80278, Control_c, 0, 64, 59
2,80294, Note_on_c, 0, 68, 55
2,80297, Control_c, 0, 64, 41
2,80301, Note_on_c, 0, 56, 51
2,80316, Control_c, 0, 64, 48
2,80316, Note_on_c, 0, 77, 55
2,80335, Control_c, 0, 64, 56
2,80352, Note_on_c, 0, 68, 0
2,80354, Control_c, 0, 64, 62
2,80365, Note_on_c, 0, 75, 0
2,80373, Control_c, 0, 64, 66
2,80392, Control_c, 0, 64, 71
2,80412, Control_c, 0, 64, 77
2,80431, Control_c, 0, 64, 82
2,80450, Control_c, 0, 64, 83
2,80469, Control_c, 0, 64, 83
2,80481, Note_on_c, 0, 56, 0
2,80489, Control_c, 0, 64, 82
2,80500, Note_on_c, 0, 79, 70
2,80508, Control_c, 0, 64, 81
2,80519, Note_on_c, 0, 70, 55
2,80521, Note_on_c, 0, 77, 0
2,80527, Control_c, 0, 64, 80
2,80546, Control_c, 0, 64, 79
2,80555, Note_on_c, 0, 79, 0
2,80576, Note_on_c, 0, 70, 0
2,80584, Control_c, 0, 64, 79
2,80681, Control_c, 0, 64, 78
2,80700, Control_c, 0, 64, 78
2,80719, Control_c, 0, 64, 77
2,80738, Control_c, 0, 64, 77
2,80758, Control_c, 0, 64, 76
2,80771, Note_on_c, 0, 72, 55
2,80777, Control_c, 0, 64, 75
2,80783, Note_on_c, 0, 80, 63
2,80795, Control_c, 0, 64, 73
2,80815, Control_c, 0, 64, 71
2,80834, Control_c, 0, 64, 68
2,80853, Control_c, 0, 64, 63
2,80872, Control_c, 0, 64, 57
2,80892, Control_c, 0, 64, 48
2,80911, Control_c, 0, 64, 34
2,80930, Control_c, 0, 64, 0
2,81185, Note_on_c, 0, 68, 48
2,81389, Note_on_c, 0, 67, 38
2,81471, Note_on_c, 0, 68, 0
2,81602, Note_on_c, 0, 80, 0
2,81631, Note_on_c, 0, 65, 38
2,81648, Note_on_c, 0, 67, 0
2,81794, Control_c, 0, 64, 21
2,81813, Control_c, 0, 64, 34
2,81832, Control_c, 0, 64, 42
2,81852, Control_c, 0, 64, 46
2,81854, Note_on_c, 0, 65, 0
2,81871, Control_c, 0, 64, 46
2,81929, Control_c, 0, 64, 46
2,81948, Control_c, 0, 64, 45
2,81967, Control_c, 0, 64, 45
2,81986, Control_c, 0, 64, 44
2,82053, Note_on_c, 0, 65, 34
2,82057, Note_on_c, 0, 80, 55
2,82140, Control_c, 0, 64, 44
2,82159, Control_c, 0, 64, 43
2,82178, Control_c, 0, 64, 43
2,82186, Note_on_c, 0, 80, 0
2,82256, Note_on_c, 0, 79, 56
2,82291, Note_on_c, 0, 63, 37
2,82293, Control_c, 0, 64, 42
2,82311, Control_c, 0, 64, 41
2,82331, Control_c, 0, 64, 40
2,82350, Control_c, 0, 64, 39
2,82369, Control_c, 0, 64, 37
2,82383, Note_on_c, 0, 65, 0
2,82388, Control_c, 0, 64, 35
2,82408, Control_c, 0, 64, 34
2,82427, Control_c, 0, 64, 31
2,82446, Control_c, 0, 64, 29
2,82465, Control_c, 0, 64, 27
2,82485, Control_c, 0, 64, 25
2,82503, Control_c, 0, 64, 22
2,82514, Note_on_c, 0, 77, 52
2,82520, Note_on_c, 0, 61, 40
2,82521, Note_on_c, 0, 79, 0
2,82523, Control_c, 0, 64, 18
2,82542, Control_c, 0, 64, 11
2,82559, Note_on_c, 0, 63, 0
2,82562, Control_c, 0, 64, 0
2,82736, Note_on_c, 0, 61, 0
2,82793, Note_on_c, 0, 77, 0
2,82938, Note_on_c, 0, 61, 41
2,82945, Note_on_c, 0, 77, 61
2,83144, Note_on_c, 0, 75, 64
2,83148, Note_on_c, 0, 60, 41
2,83175, Note_on_c, 0, 77, 0
2,83232, Note_on_c, 0, 61, 0
2,83434, Note_on_c, 0, 58, 38
2,83451, Note_on_c, 0, 60, 0
2,83478, Note_on_c, 0, 72, 0
2,83483, Note_on_c, 0, 73, 61
2,83520, Note_on_c, 0, 75, 0
2,83728, Note_on_c, 0, 58, 0
2,83901, Note_on_c, 0, 60, 43
2,83931, Note_on_c, 0, 70, 53
2,84119, Note_on_c, 0, 68, 58
2,84124, Note_on_c, 0, 70, 0
2,84125, Note_on_c, 0, 61, 54
2,84147, Note_on_c, 0, 60, 0
2,84310, Note_on_c, 0, 61, 0
2,84362, Note_on_c, 0, 63, 47
2,84367, Note_on_c, 0, 68, 0
2,84368, Note_on_c, 0, 67, 50
2,84633, Note_on_c, 0, 63, 0
2,84781, Note_on_c, 0, 51, 41
2,84797, Note_on_c, 0, 73, 0
2,84799, Note_on_c, 0, 75, 62
2,84992, Note_on_c, 0, 73, 54
2,85057, Note_on_c, 0, 75, 0
2,85082, Note_on_c, 0, 51, 0
2,85233, Note_on_c, 0, 72, 58
2,85243, Note_on_c, 0, 56, 41
2,85273, Note_on_c, 0, 73, 0
2,85421, Note_on_c, 0, 56, 0
2,85528, Note_on_c, 0, 72, 0
2,85660, Note_on_c, 0, 58, 41
2,85670, Note_on_c, 0, 72, 69
2,85864, Note_on_c, 0, 58, 0
2,85876, Note_on_c, 0, 70, 74
2,85892, Note_on_c, 0, 60, 45
2,85924, Note_on_c, 0, 72, 0
2,86236, Note_on_c, 0, 61, 45
2,86236, Note_on_c, 0, 68, 68
2,86284, Note_on_c, 0, 67, 0
2,86315, Note_on_c, 0, 70, 0
2,86388, Note_on_c, 0, 60, 0
2,86720, Note_on_c, 0, 65, 55
2,86748, Control_c, 0, 64, 31
2,86768, Control_c, 0, 64, 55
2,86787, Control_c, 0, 64, 62
2,86807, Control_c, 0, 64, 65
2,86825, Control_c, 0, 64, 67
2,86845, Control_c, 0, 64, 71
2,86864, Control_c, 0, 64, 78
2,86884, Control_c, 0, 64, 86
2,86902, Control_c, 0, 64, 92
2,86922, Control_c, 0, 64, 95
2,86925, Note_on_c, 0, 64, 61
2,86929, Note_on_c, 0, 65, 0
2,86941, Control_c, 0, 64, 95
2,87000, Note_on_c, 0, 64, 0
2,87018, Control_c, 0, 64, 95
2,87036, Control_c, 0, 64, 94
2,87056, Control_c, 0, 64, 93
2,87075, Control_c, 0, 64, 91
2,87094, Control_c, 0, 64, 89
2,87113, Control_c, 0, 64, 86
2,87133, Control_c, 0, 64, 83
2,87152, Control_c, 0, 64, 80
2,87159, Note_on_c, 0, 61, 0
2,87163, Note_on_c, 0, 68, 0
2,87170, Note_on_c, 0, 65, 62
2,87171, Control_c, 0, 64, 78
2,87190, Control_c, 0, 64, 75
2,87210, Control_c, 0, 64, 72
2,87228, Control_c, 0, 64, 68
2,87248, Control_c, 0, 64, 64
2,87267, Control_c, 0, 64, 62
2,87287, Control_c, 0, 64, 60
2,87305, Control_c, 0, 64, 58
2,87325, Control_c, 0, 64, 56
2,87344, Control_c, 0, 64, 52
2,87364, Control_c, 0, 64, 45
2,87382, Control_c, 0, 64, 33
2,87402, Control_c, 0, 64, 15
2,87421, Control_c, 0, 64, 0
2,87623, Note_on_c, 0, 70, 57
2,87630, Note_on_c, 0, 61, 43
2,87828, Note_on_c, 0, 60, 41
2,87847, Note_on_c, 0, 72, 57
2,87876, Note_on_c, 0, 61, 0
2,87881, Note_on_c, 0, 70, 0
2,88069, Note_on_c, 0, 58, 36
2,88091, Note_on_c, 0, 73, 63
2,88094, Note_on_c, 0, 60, 0
2,88110, Note_on_c, 0, 72, 0
2,88241, Note_on_c, 0, 58, 0
2,88248, Note_on_c, 0, 65, 0
2,88521, Note_on_c, 0, 58, 39
2,88527, Note_on_c, 0, 67, 39
2,88705, Note_on_c, 0, 67, 0
2,88738, Note_on_c, 0, 56, 49
2,88738, Note_on_c, 0, 68, 48
2,88802, Note_on_c, 0, 58, 0
2,88854, Note_on_c, 0, 73, 0
2,88915, Note_on_c, 0, 68, 0
2,88950, Note_on_c, 0, 55, 40
2,88971, Note_on_c, 0, 70, 57
2,88979, Note_on_c, 0, 56, 0
2,89148, Note_on_c, 0, 55, 0
2,89163, Note_on_c, 0, 72, 72
2,89374, Note_on_c, 0, 55, 51
2,89384, Note_on_c, 0, 73, 74
2,89414, Note_on_c, 0, 72, 0
2,89418, Note_on_c, 0, 70, 0
2,89583, Note_on_c, 0, 53, 73
2,89584, Note_on_c, 0, 70, 74
2,89588, Note_on_c, 0, 73, 0
2,89625, Note_on_c, 0, 55, 0
2,89798, Note_on_c, 0, 70, 0
2,89806, Note_on_c, 0, 52, 67
2,89810, Note_on_c, 0, 79, 80
2,89939, Note_on_c, 0, 53, 0
2,89985, Note_on_c, 0, 52, 0
2,90018, Note_on_c, 0, 68, 68
2,90230, Note_on_c, 0, 48, 70
2,90239, Note_on_c, 0, 70, 71
2,90248, Note_on_c, 0, 68, 0
2,90407, Note_on_c, 0, 48, 0
2,90435, Note_on_c, 0, 67, 68
2,90457, Note_on_c, 0, 70, 0
2,90519, Note_on_c, 0, 67, 0
2,90650, Note_on_c, 0, 68, 72
2,90656, Note_on_c, 0, 53, 59
2,90796, Note_on_c, 0, 53, 0
2,90851, Note_on_c, 0, 79, 0
2,90864, Note_on_c, 0, 72, 68
2,91069, Note_on_c, 0, 72, 0
2,91077, Note_on_c, 0, 65, 50
2,91084, Note_on_c, 0, 73, 55
2,91273, Note_on_c, 0, 72, 53
2,91288, Note_on_c, 0, 68, 0
2,91302, Note_on_c, 0, 65, 0
2,91308, Note_on_c, 0, 63, 44
2,91308, Note_on_c, 0, 73, 0
2,91347, Note_on_c, 0, 63, 0
2,91471, Control_c, 0, 64, 17
2,91477, Note_on_c, 0, 63, 41
2,91490, Control_c, 0, 64, 44
2,91498, Note_on_c, 0, 77, 55
2,91509, Control_c, 0, 64, 61
2,91529, Control_c, 0, 64, 66
2,91548, Control_c, 0, 64, 69
2,91567, Control_c, 0, 64, 75
2,91578, Note_on_c, 0, 63, 0
2,91586, Control_c, 0, 64, 81
2,91606, Control_c, 0, 64, 87
2,91614, Note_on_c, 0, 61, 52
2,91616, Note_on_c, 0, 72, 0
2,91624, Control_c, 0, 64, 90
2,91644, Control_c, 0, 64, 91
2,91663, Control_c, 0, 64, 92
2,91684, Note_on_c, 0, 61, 0
2,91691, Note_on_c, 0, 67, 52
2,91701, Control_c, 0, 64, 91
2,91721, Control_c, 0, 64, 91
2,91729, Note_on_c, 0, 63, 58
2,91740, Control_c, 0, 64, 90
2,91759, Control_c, 0, 64, 89
2,91777, Note_on_c, 0, 63, 0
2,91778, Control_c, 0, 64, 88
2,91795, Control_c, 0, 64, 87
2,91815, Control_c, 0, 64, 87
2,91818, Note_on_c, 0, 61, 43
2,91833, Control_c, 0, 64, 86
2,91853, Control_c, 0, 64, 84
2,91854, Note_on_c, 0, 61, 0
2,91872, Control_c, 0, 64, 83
2,91888, Note_on_c, 0, 63, 56
2,91890, Note_on_c, 0, 67, 0
2,91891, Note_on_c, 0, 68, 59
2,91892, Control_c, 0, 64, 81
2,91910, Control_c, 0, 64, 80
2,91930, Control_c, 0, 64, 79
2,91949, Control_c, 0, 64, 78
2,91968, Note_on_c, 0, 61, 48
2,91969, Control_c, 0, 64, 77
2,91987, Control_c, 0, 64, 75
2,92007, Control_c, 0, 64, 74
2,92021, Note_on_c, 0, 63, 0
2,92026, Control_c, 0, 64, 71
2,92035, Note_on_c, 0, 61, 0
2,92045, Control_c, 0, 64, 69
2,92064, Control_c, 0, 64, 66
2,92076, Note_on_c, 0, 68, 0
2,92084, Control_c, 0, 64, 64
2,92094, Note_on_c, 0, 60, 42
2,92103, Control_c, 0, 64, 64
2,92103, Note_on_c, 0, 65, 51
2,92122, Control_c, 0, 64, 63
2,92161, Control_c, 0, 64, 63
2,92179, Control_c, 0, 64, 62
2,92185, Note_on_c, 0, 60, 0
2,92192, Note_on_c, 0, 61, 50
2,92199, Control_c, 0, 64, 61
2,92218, Control_c, 0, 64, 60
2,92237, Control_c, 0, 64, 60
2,92256, Control_c, 0, 64, 59
2,92275, Control_c, 0, 64, 58
2,92295, Control_c, 0, 64, 57
2,92313, Control_c, 0, 64, 55
2,92333, Control_c, 0, 64, 52
2,92345, Note_on_c, 0, 61, 0
2,92352, Control_c, 0, 64, 50
2,92372, Control_c, 0, 64, 49
2,92383, Note_on_c, 0, 60, 30
2,92390, Control_c, 0, 64, 48
2,92406, Note_on_c, 0, 72, 51
2,92410, Control_c, 0, 64, 47
2,92415, Note_on_c, 0, 65, 0
2,92429, Control_c, 0, 64, 45
2,92449, Control_c, 0, 64, 44
2,92464, Note_on_c, 0, 77, 0
2,92467, Control_c, 0, 64, 42
2,92487, Control_c, 0, 64, 39
2,92506, Control_c, 0, 64, 38
2,92525, Control_c, 0, 64, 37
2,92545, Control_c, 0, 64, 37
2,92565, Control_c, 0, 64, 36
2,92583, Control_c, 0, 64, 35
2,92603, Control_c, 0, 64, 35
2,92622, Control_c, 0, 64, 34
2,92642, Control_c, 0, 64, 34
2,92671, Note_on_c, 0, 60, 0
2,92720, Note_on_c, 0, 72, 0
2,92839, Note_on_c, 0, 48, 49
2,92845, Note_on_c, 0, 76, 62
2,92853, Control_c, 0, 64, 33
2,92853, Note_on_c, 0, 67, 45
2,92871, Control_c, 0, 64, 32
2,92891, Control_c, 0, 64, 31
2,92910, Control_c, 0, 64, 31
2,92948, Control_c, 0, 64, 30
2,92968, Control_c, 0, 64, 29
2,92987, Control_c, 0, 64, 28
2,93006, Control_c, 0, 64, 27
2,93025, Control_c, 0, 64, 26
2,93039, Note_on_c, 0, 48, 0
2,93040, Note_on_c, 0, 50, 67
2,93040, Note_on_c, 0, 77, 72
2,93045, Control_c, 0, 64, 24
2,93052, Note_on_c, 0, 76, 0
2,93063, Control_c, 0, 64, 23
2,93083, Control_c, 0, 64, 22
2,93102, Control_c, 0, 64, 21
2,93122, Control_c, 0, 64, 20
2,93160, Control_c, 0, 64, 19
2,93199, Control_c, 0, 64, 18
2,93252, Note_on_c, 0, 67, 0
2,93274, Control_c, 0, 64, 15
2,93294, Control_c, 0, 64, 11
2,93313, Control_c, 0, 64, 0
2,93377, Note_on_c, 0, 79, 71
2,93393, Note_on_c, 0, 48, 70
2,93395, Note_on_c, 0, 52, 73
2,93400, Note_on_c, 0, 72, 57
2,93400, Note_on_c, 0, 77, 0
2,93476, Note_on_c, 0, 50, 0
2,93826, Note_on_c, 0, 72, 0
2,93832, Note_on_c, 0, 52, 0
2,93857, Note_on_c, 0, 50, 56
2,93862, Note_on_c, 0, 70, 59
2,94037, Note_on_c, 0, 50, 0
2,94066, Note_on_c, 0, 52, 59
2,94176, Note_on_c, 0, 79, 0
2,94264, Note_on_c, 0, 49, 69
2,94269, Note_on_c, 0, 52, 0
2,94271, Note_on_c, 0, 68, 68
2,94277, Note_on_c, 0, 53, 66
2,94402, Note_on_c, 0, 48, 0
2,94444, Note_on_c, 0, 70, 0
2,94499, Note_on_c, 0, 52, 74
2,94520, Note_on_c, 0, 53, 0
2,94576, Note_on_c, 0, 68, 0
2,94672, Note_on_c, 0, 52, 0
2,94708, Note_on_c, 0, 53, 56
2,94710, Note_on_c, 0, 77, 75
2,94714, Control_c, 0, 64, 30
2,94720, Note_on_c, 0, 70, 68
2,94734, Control_c, 0, 64, 52
2,94753, Control_c, 0, 64, 61
2,94773, Control_c, 0, 64, 64
2,94791, Control_c, 0, 64, 66
2,94800, Note_on_c, 0, 77, 0
2,94811, Control_c, 0, 64, 69
2,94830, Control_c, 0, 64, 73
2,94849, Control_c, 0, 64, 79
2,94868, Control_c, 0, 64, 90
2,94888, Control_c, 0, 64, 103
2,94907, Control_c, 0, 64, 123
2,94908, Note_on_c, 0, 53, 0
2,94912, Note_on_c, 0, 55, 70
2,94919, Note_on_c, 0, 49, 0
2,94926, Control_c, 0, 64, 127
2,95001, Note_on_c, 0, 55, 0
2,95099, Control_c, 0, 64, 102
2,95119, Control_c, 0, 64, 82
2,95119, Note_on_c, 0, 56, 86
2,95122, Note_on_c, 0, 48, 75
2,95129, Note_on_c, 0, 72, 66
2,95137, Control_c, 0, 64, 67
2,95137, Note_on_c, 0, 70, 0
2,95156, Control_c, 0, 64, 58
2,95176, Control_c, 0, 64, 57
2,95194, Control_c, 0, 64, 61
2,95214, Control_c, 0, 64, 64
2,95233, Control_c, 0, 64, 66
2,95253, Control_c, 0, 64, 70
2,95271, Control_c, 0, 64, 76
2,95291, Control_c, 0, 64, 85
2,95300, Note_on_c, 0, 72, 0
2,95310, Control_c, 0, 64, 93
2,95329, Control_c, 0, 64, 96
2,95340, Note_on_c, 0, 60, 58
2,95348, Control_c, 0, 64, 99
2,95368, Control_c, 0, 64, 102
2,95387, Control_c, 0, 64, 104
2,95395, Note_on_c, 0, 60, 0
2,95406, Control_c, 0, 64, 105
2,95426, Control_c, 0, 64, 106
2,95446, Control_c, 0, 64, 105
2,95464, Control_c, 0, 64, 98
2,95484, Control_c, 0, 64, 85
2,95503, Control_c, 0, 64, 71
2,95523, Control_c, 0, 64, 66
2,95541, Control_c, 0, 64, 66
2,95557, Note_on_c, 0, 75, 66
2,95561, Control_c, 0, 64, 70
2,95561, Note_on_c, 0, 62, 67
2,95580, Control_c, 0, 64, 74
2,95599, Control_c, 0, 64, 81
2,95615, Note_on_c, 0, 62, 0
2,95618, Control_c, 0, 64, 89
2,95635, Control_c, 0, 64, 96
2,95655, Control_c, 0, 64, 99
2,95712, Note_on_c, 0, 75, 0
2,95746, Note_on_c, 0, 56, 0
2,95759, Note_on_c, 0, 48, 0
2,95762, Note_on_c, 0, 63, 66
2,95837, Note_on_c, 0, 63, 0
2,95904, Control_c, 0, 64, 97
2,95924, Control_c, 0, 64, 93
2,95943, Control_c, 0, 64, 86
2,95962, Control_c, 0, 64, 76
2,95981, Control_c, 0, 64, 67
2,95988, Note_on_c, 0, 47, 77
2,95990, Note_on_c, 0, 74, 71
2,95999, Note_on_c, 0, 65, 55
2,96001, Control_c, 0, 64, 57
2,96019, Control_c, 0, 64, 0
2,96198, Note_on_c, 0, 53, 69
2,96236, Note_on_c, 0, 74, 0
2,96369, Note_on_c, 0, 53, 0
2,96411, Note_on_c, 0, 75, 73
2,96419, Note_on_c, 0, 55, 61
2,96511, Note_on_c, 0, 65, 0
2,96600, Note_on_c, 0, 56, 62
2,96607, Note_on_c, 0, 55, 0
2,96631, Note_on_c, 0, 77, 74
2,96635, Note_on_c, 0, 75, 0
2,96856, Note_on_c, 0, 58, 80
2,96861, Note_on_c, 0, 79, 81
2,96865, Note_on_c, 0, 52, 72
2,96877, Note_on_c, 0, 77, 0
2,96892, Note_on_c, 0, 56, 0
2,96920, Note_on_c, 0, 47, 0
2,97018, Control_c, 0, 64, 20
2,97037, Control_c, 0, 64, 51
2,97056, Control_c, 0, 64, 61
2,97075, Control_c, 0, 64, 63
2,97084, Note_on_c, 0, 77, 69
2,97112, Note_on_c, 0, 79, 0
2,97141, Note_on_c, 0, 77, 0
2,97291, Note_on_c, 0, 52, 0
2,97294, Note_on_c, 0, 76, 66
2,97306, Control_c, 0, 64, 64
2,97316, Note_on_c, 0, 67, 38
2,97367, Control_c, 0, 64, 64
2,97405, Control_c, 0, 64, 65
2,97444, Control_c, 0, 64, 65
2,97500, Note_on_c, 0, 74, 64
2,97535, Note_on_c, 0, 76, 0
2,97576, Control_c, 0, 64, 65
2,97626, Note_on_c, 0, 58, 0
2,97633, Control_c, 0, 64, 64
2,97710, Control_c, 0, 64, 64
2,97714, Note_on_c, 0, 53, 73
2,97714, Note_on_c, 0, 74, 0
2,97719, Note_on_c, 0, 72, 56
2,97726, Control_c, 0, 64, 63
2,97729, Note_on_c, 0, 68, 57
2,97745, Control_c, 0, 64, 60
2,97756, Note_on_c, 0, 67, 0
2,97765, Control_c, 0, 64, 56
2,97784, Control_c, 0, 64, 36
2,97803, Control_c, 0, 64, 0
2,97932, Note_on_c, 0, 56, 65
2,98072, Control_c, 0, 64, 46
2,98091, Control_c, 0, 64, 57
2,98111, Control_c, 0, 64, 62
2,98130, Control_c, 0, 64, 65
2,98147, Note_on_c, 0, 58, 63
2,98149, Control_c, 0, 64, 69
2,98168, Control_c, 0, 64, 77
2,98187, Control_c, 0, 64, 91
2,98199, Note_on_c, 0, 56, 0
2,98206, Control_c, 0, 64, 127
2,98224, Note_on_c, 0, 72, 0
2,98270, Note_on_c, 0, 68, 0
2,98302, Note_on_c, 0, 53, 0
2,98351, Note_on_c, 0, 58, 0
2,98355, Note_on_c, 0, 60, 72
2,98396, Note_on_c, 0, 60, 0
2,98565, Note_on_c, 0, 46, 76
2,98574, Note_on_c, 0, 61, 69
2,98610, Control_c, 0, 64, 110
2,98629, Control_c, 0, 64, 81
2,98648, Control_c, 0, 64, 63
2,98667, Control_c, 0, 64, 0
2,98780, Note_on_c, 0, 70, 77
2,98894, Control_c, 0, 64, 59
2,98914, Control_c, 0, 64, 63
2,98933, Control_c, 0, 64, 65
2,98953, Control_c, 0, 64, 70
2,98971, Control_c, 0, 64, 80
2,98991, Control_c, 0, 64, 108
2,98993, Note_on_c, 0, 68, 77
2,99010, Control_c, 0, 64, 127
2,99149, Note_on_c, 0, 61, 0
2,99155, Note_on_c, 0, 70, 0
2,99160, Note_on_c, 0, 46, 0
2,99189, Note_on_c, 0, 67, 70
2,99228, Note_on_c, 0, 68, 0
2,99412, Note_on_c, 0, 72, 68
2,99413, Note_on_c, 0, 45, 74
2,99414, Control_c, 0, 64, 93
2,99433, Control_c, 0, 64, 69
2,99433, Note_on_c, 0, 65, 57
2,99452, Control_c, 0, 64, 0
2,99606, Control_c, 0, 64, 53
2,99607, Note_on_c, 0, 60, 64
2,99626, Control_c, 0, 64, 63
2,99644, Control_c, 0, 64, 67
2,99664, Control_c, 0, 64, 71
2,99674, Note_on_c, 0, 65, 0
2,99680, Note_on_c, 0, 60, 0
2,99683, Control_c, 0, 64, 77
2,99703, Control_c, 0, 64, 83
2,99721, Control_c, 0, 64, 86
2,99750, Note_on_c, 0, 67, 0
2,99760, Control_c, 0, 64, 85
2,99779, Control_c, 0, 64, 83
2,99798, Control_c, 0, 64, 82
2,99815, Note_on_c, 0, 62, 67
2,99818, Control_c, 0, 64, 81
2,99837, Control_c, 0, 64, 80
2,99855, Control_c, 0, 64, 78
2,99875, Control_c, 0, 64, 77
2,99894, Control_c, 0, 64, 76
2,99913, Control_c, 0, 64, 74
2,99932, Control_c, 0, 64, 74
2,99971, Control_c, 0, 64, 73
2,100003, Note_on_c, 0, 64, 69
2,100029, Control_c, 0, 64, 72
2,100033, Note_on_c, 0, 62, 0
2,100048, Control_c, 0, 64, 70
2,100067, Control_c, 0, 64, 67
2,100086, Control_c, 0, 64, 65
2,100106, Control_c, 0, 64, 64
2,100201, Control_c, 0, 64, 63
2,100234, Note_on_c, 0, 44, 83
2,100243, Note_on_c, 0, 65, 61
2,100258, Note_on_c, 0, 45, 0
2,100258, Note_on_c, 0, 64, 0
2,100281, Control_c, 0, 64, 63
2,100317, Note_on_c, 0, 65, 0
2,100319, Control_c, 0, 64, 62
2,100339, Control_c, 0, 64, 62
2,100415, Control_c, 0, 64, 61
2,100422, Note_on_c, 0, 72, 0
2,100446, Note_on_c, 0, 65, 76
2,100473, Control_c, 0, 64, 61
2,100588, Control_c, 0, 64, 61
2,100607, Control_c, 0, 64, 62
2,100627, Control_c, 0, 64, 63
2,100646, Control_c, 0, 64, 63
2,100665, Note_on_c, 0, 72, 79
2,100669, Note_on_c, 0, 67, 72
2,100684, Control_c, 0, 64, 64
2,100704, Control_c, 0, 64, 65
2,100712, Note_on_c, 0, 65, 0
2,100723, Control_c, 0, 64, 66
2,100742, Control_c, 0, 64, 67
2,100761, Control_c, 0, 64, 69
2,100781, Control_c, 0, 64, 72
2,100799, Control_c, 0, 64, 79
2,100806, Note_on_c, 0, 72, 0
2,100819, Control_c, 0, 64, 87
2,100838, Control_c, 0, 64, 96
2,100858, Control_c, 0, 64, 103
2,100869, Note_on_c, 0, 68, 79
2,100876, Control_c, 0, 64, 107
2,100895, Control_c, 0, 64, 109
2,100903, Note_on_c, 0, 67, 0
2,100915, Control_c, 0, 64, 111
2,100933, Control_c, 0, 64, 112
2,100992, Control_c, 0, 64, 113
2,101107, Control_c, 0, 64, 110
2,101114, Note_on_c, 0, 43, 74
2,101126, Control_c, 0, 64, 104
2,101145, Control_c, 0, 64, 93
2,101163, Note_on_c, 0, 44, 0
2,101164, Control_c, 0, 64, 82
2,101184, Control_c, 0, 64, 69
2,101187, Note_on_c, 0, 68, 0
2,101203, Control_c, 0, 64, 44
2,101205, Note_on_c, 0, 73, 77
2,101209, Note_on_c, 0, 70, 68
2,101222, Control_c, 0, 64, 0
2,101375, Control_c, 0, 64, 39
2,101395, Control_c, 0, 64, 59
2,101413, Control_c, 0, 64, 67
2,101433, Control_c, 0, 64, 78
2,101451, Note_on_c, 0, 73, 0
2,101452, Control_c, 0, 64, 113
2,101472, Control_c, 0, 64, 127
2,101570, Note_on_c, 0, 70, 0
2,101647, Note_on_c, 0, 72, 74
2,101656, Note_on_c, 0, 64, 65
2,101793, Note_on_c, 0, 64, 0
2,101843, Note_on_c, 0, 70, 74
2,101844, Note_on_c, 0, 62, 65
2,101892, Note_on_c, 0, 72, 0
2,101920, Note_on_c, 0, 62, 0
2,101932, Control_c, 0, 64, 95
2,101952, Control_c, 0, 64, 82
2,101970, Control_c, 0, 64, 71
2,101990, Control_c, 0, 64, 64
2,102009, Control_c, 0, 64, 57
2,102028, Control_c, 0, 64, 45
2,102047, Control_c, 0, 64, 30
2,102067, Control_c, 0, 64, 0
2,102076, Note_on_c, 0, 72, 81
2,102079, Note_on_c, 0, 64, 71
2,102101, Note_on_c, 0, 70, 0
2,102507, Note_on_c, 0, 68, 78
2,102554, Note_on_c, 0, 72, 0
2,102709, Note_on_c, 0, 67, 70
2,102736, Note_on_c, 0, 64, 0
2,102768, Note_on_c, 0, 68, 0
2,102991, Note_on_c, 0, 41, 56
2,103000, Note_on_c, 0, 43, 0
2,103005, Note_on_c, 0, 68, 71
2,103015, Note_on_c, 0, 65, 46
2,103018, Note_on_c, 0, 67, 0
2,103101, Control_c, 0, 64, 23
2,103120, Control_c, 0, 64, 61
2,103139, Control_c, 0, 64, 71
2,103158, Control_c, 0, 64, 84
2,103159, Note_on_c, 0, 41, 0
2,103178, Control_c, 0, 64, 123
2,103197, Control_c, 0, 64, 127
2,103407, Control_c, 0, 64, 112
2,103426, Control_c, 0, 64, 102
2,103445, Control_c, 0, 64, 96
2,103465, Control_c, 0, 64, 89
2,103483, Control_c, 0, 64, 81
2,103503, Control_c, 0, 64, 75
2,103522, Control_c, 0, 64, 69
2,103542, Control_c, 0, 64, 65
2,103560, Control_c, 0, 64, 63
2,103560, Note_on_c, 0, 53, 55
2,103580, Control_c, 0, 64, 62
2,103599, Control_c, 0, 64, 61
2,103618, Control_c, 0, 64, 59
2,103626, Note_on_c, 0, 65, 0
2,103637, Control_c, 0, 64, 57
2,103653, Note_on_c, 0, 68, 0
2,103656, Control_c, 0, 64, 55
2,103676, Control_c, 0, 64, 53
2,103694, Control_c, 0, 64, 50
2,103714, Control_c, 0, 64, 48
2,103733, Control_c, 0, 64, 47
2,103766, Note_on_c, 0, 55, 49
2,103771, Control_c, 0, 64, 46
2,103772, Note_on_c, 0, 53, 0
2,103791, Control_c, 0, 64, 46
2,103810, Control_c, 0, 64, 44
2,103832, Control_c, 0, 64, 43
2,103851, Control_c, 0, 64, 41
2,103871, Control_c, 0, 64, 41
2,103893, Control_c, 0, 64, 40
2,103911, Control_c, 0, 64, 39
2,103931, Control_c, 0, 64, 39
2,103945, Note_on_c, 0, 55, 0
2,103972, Note_on_c, 0, 56, 50
2,104008, Control_c, 0, 64, 38
2,104065, Control_c, 0, 64, 39
2,104085, Control_c, 0, 64, 40
2,104103, Control_c, 0, 64, 41
2,104123, Control_c, 0, 64, 42
2,104142, Control_c, 0, 64, 44
2,104145, Note_on_c, 0, 56, 0
2,104162, Control_c, 0, 64, 44
2,104180, Control_c, 0, 64, 45
2,104424, Note_on_c, 0, 56, 44
2,104430, Control_c, 0, 64, 44
2,104441, Note_on_c, 0, 60, 34
2,104468, Control_c, 0, 64, 44
2,104583, Control_c, 0, 64, 43
2,104603, Control_c, 0, 64, 43
2,104622, Control_c, 0, 64, 42
2,104629, Note_on_c, 0, 58, 43
2,104642, Control_c, 0, 64, 39
2,104643, Note_on_c, 0, 60, 0
2,104656, Note_on_c, 0, 61, 47
2,104660, Control_c, 0, 64, 29
2,104671, Note_on_c, 0, 56, 0
2,104679, Control_c, 0, 64, 0
2,104826, Note_on_c, 0, 61, 0
2,104837, Note_on_c, 0, 58, 0
2,104856, Note_on_c, 0, 60, 34
2,104870, Note_on_c, 0, 63, 51
2,104929, Control_c, 0, 64, 46
2,104948, Control_c, 0, 64, 62
2,104968, Control_c, 0, 64, 64
2,104987, Control_c, 0, 64, 65
2,105006, Control_c, 0, 64, 66
2,105025, Control_c, 0, 64, 68
2,105033, Note_on_c, 0, 63, 0
2,105045, Control_c, 0, 64, 73
2,105063, Control_c, 0, 64, 78
2,105083, Control_c, 0, 64, 83
2,105102, Control_c, 0, 64, 85
2,105140, Control_c, 0, 64, 85
2,105179, Control_c, 0, 64, 86
2,105198, Control_c, 0, 64, 88
2,105217, Control_c, 0, 64, 90
2,105236, Control_c, 0, 64, 92
2,105256, Control_c, 0, 64, 93
2,105274, Control_c, 0, 64, 86
2,105294, Control_c, 0, 64, 75
2,105313, Control_c, 0, 64, 64
2,105316, Note_on_c, 0, 78, 55
2,105318, Note_on_c, 0, 63, 46
2,105333, Control_c, 0, 64, 44
2,105351, Control_c, 0, 64, 39
2,105371, Control_c, 0, 64, 51
2,105390, Control_c, 0, 64, 60
2,105409, Control_c, 0, 64, 65
2,105428, Control_c, 0, 64, 68
2,105448, Control_c, 0, 64, 72
2,105467, Control_c, 0, 64, 76
2,105486, Control_c, 0, 64, 77
2,105505, Control_c, 0, 64, 77
2,105508, Note_on_c, 0, 78, 0
2,105524, Note_on_c, 0, 77, 62
2,105525, Control_c, 0, 64, 76
2,105529, Note_on_c, 0, 65, 41
2,105531, Note_on_c, 0, 63, 0
2,105543, Control_c, 0, 64, 73
2,105563, Control_c, 0, 64, 72
2,105581, Note_on_c, 0, 65, 0
2,105582, Control_c, 0, 64, 70
2,105602, Control_c, 0, 64, 69
2,105620, Control_c, 0, 64, 67
2,105639, Control_c, 0, 64, 64
2,105659, Control_c, 0, 64, 61
2,105678, Control_c, 0, 64, 57
2,105697, Control_c, 0, 64, 55
2,105713, Note_on_c, 0, 77, 0
2,105716, Control_c, 0, 64, 53
2,105736, Control_c, 0, 64, 50
2,105742, Note_on_c, 0, 75, 59
2,105747, Note_on_c, 0, 66, 50
2,105754, Control_c, 0, 64, 47
2,105774, Control_c, 0, 64, 40
2,105793, Control_c, 0, 64, 31
2,105813, Control_c, 0, 64, 22
2,105831, Control_c, 0, 64, 17
2,105851, Control_c, 0, 64, 15
2,105870, Control_c, 0, 64, 11
2,105889, Control_c, 0, 64, 9
2,105908, Control_c, 0, 64, 0
2,105926, Note_on_c, 0, 75, 0
2,105938, Note_on_c, 0, 58, 41
2,105939, Note_on_c, 0, 60, 0
2,105944, Note_on_c, 0, 73, 55
2,106099, Note_on_c, 0, 58, 0
2,106159, Note_on_c, 0, 73, 0
2,106171, Note_on_c, 0, 56, 44
2,106180, Note_on_c, 0, 72, 60
2,106354, Note_on_c, 0, 72, 0
2,106382, Note_on_c, 0, 70, 60
2,106391, Note_on_c, 0, 54, 39
2,106418, Note_on_c, 0, 56, 0
2,106585, Note_on_c, 0, 54, 0
2,106598, Note_on_c, 0, 53, 46
2,106611, Note_on_c, 0, 66, 0
2,106620, Note_on_c, 0, 68, 57
2,106637, Note_on_c, 0, 70, 0
2,106773, Control_c, 0, 64, 9
2,106777, Note_on_c, 0, 53, 0
2,106811, Control_c, 0, 64, 11
2,106849, Control_c, 0, 64, 13
2,106858, Note_on_c, 0, 68, 0
2,106868, Control_c, 0, 64, 15
2,107035, Note_on_c, 0, 70, 59
2,107050, Note_on_c, 0, 49, 46
2,107055, Note_on_c, 0, 65, 43
2,107060, Control_c, 0, 64, 17
2,107079, Control_c, 0, 64, 18
2,107099, Control_c, 0, 64, 19
2,107118, Control_c, 0, 64, 20
2,107176, Control_c, 0, 64, 21
2,107208, Note_on_c, 0, 49, 0
2,107214, Control_c, 0, 64, 22
2,107232, Note_on_c, 0, 51, 44
2,107233, Control_c, 0, 64, 23
2,107239, Note_on_c, 0, 72, 65
2,107242, Note_on_c, 0, 65, 0
2,107254, Note_on_c, 0, 63, 43
2,107271, Control_c, 0, 64, 24
2,107293, Note_on_c, 0, 70, 0
2,107302, Note_on_c, 0, 63, 0
2,107310, Control_c, 0, 64, 25
2,107320, Note_on_c, 0, 72, 0
2,107449, Note_on_c, 0, 53, 42
2,107480, Note_on_c, 0, 73, 63
2,107504, Note_on_c, 0, 51, 0
2,107509, Note_on_c, 0, 61, 42
2,107606, Note_on_c, 0, 53, 0
2,107636, Control_c, 0, 64, 26
2,107867, Control_c, 0, 64, 27
2,107936, Note_on_c, 0, 53, 37
2,107942, Note_on_c, 0, 56, 46
2,107945, Control_c, 0, 64, 27
2,108096, Note_on_c, 0, 61, 0
2,108107, Note_on_c, 0, 56, 0
2,108134, Note_on_c, 0, 58, 46
2,108142, Note_on_c, 0, 55, 37
2,108156, Note_on_c, 0, 53, 0
2,108224, Note_on_c, 0, 73, 0
2,108331, Note_on_c, 0, 58, 0
2,108371, Note_on_c, 0, 56, 48
2,108373, Note_on_c, 0, 60, 48
2,108405, Note_on_c, 0, 55, 0
2,108480, Control_c, 0, 64, 27
2,108629, Note_on_c, 0, 60, 0
2,108653, Control_c, 0, 64, 27
2,108710, Control_c, 0, 64, 27
2,108730, Control_c, 0, 64, 19
2,108749, Control_c, 0, 64, 0
2,108802, Note_on_c, 0, 75, 68
2,108815, Note_on_c, 0, 60, 44
2,108864, Control_c, 0, 64, 18
2,108884, Control_c, 0, 64, 43
2,108903, Control_c, 0, 64, 59
2,108922, Control_c, 0, 64, 64
2,108941, Control_c, 0, 64, 66
2,108960, Control_c, 0, 64, 68
2,108979, Control_c, 0, 64, 72
2,108998, Control_c, 0, 64, 78
2,109018, Control_c, 0, 64, 85
2,109018, Note_on_c, 0, 73, 70
2,109023, Note_on_c, 0, 61, 53
2,109037, Control_c, 0, 64, 89
2,109051, Note_on_c, 0, 75, 0
2,109056, Control_c, 0, 64, 89
2,109083, Note_on_c, 0, 61, 0
2,109093, Note_on_c, 0, 60, 0
2,109110, Control_c, 0, 64, 89
2,109124, Note_on_c, 0, 73, 0
2,109129, Control_c, 0, 64, 88
2,109148, Control_c, 0, 64, 86
2,109168, Control_c, 0, 64, 84
2,109187, Control_c, 0, 64, 82
2,109206, Control_c, 0, 64, 79
2,109225, Control_c, 0, 64, 78
2,109226, Note_on_c, 0, 72, 79
2,109245, Control_c, 0, 64, 76
2,109262, Note_on_c, 0, 63, 51
2,109263, Control_c, 0, 64, 73
2,109283, Control_c, 0, 64, 70
2,109302, Control_c, 0, 64, 67
2,109322, Control_c, 0, 64, 64
2,109340, Control_c, 0, 64, 63
2,109359, Control_c, 0, 64, 62
2,109379, Control_c, 0, 64, 62
2,109417, Control_c, 0, 64, 61
2,109436, Control_c, 0, 64, 60
2,109436, Note_on_c, 0, 54, 56
2,109439, Note_on_c, 0, 70, 80
2,109442, Note_on_c, 0, 56, 0
2,109456, Control_c, 0, 64, 59
2,109472, Note_on_c, 0, 72, 0
2,109474, Control_c, 0, 64, 58
2,109494, Control_c, 0, 64, 55
2,109513, Control_c, 0, 64, 53
2,109533, Control_c, 0, 64, 51
2,109551, Control_c, 0, 64, 50
2,109571, Control_c, 0, 64, 49
2,109590, Control_c, 0, 64, 46
2,109606, Note_on_c, 0, 54, 0
2,109609, Control_c, 0, 64, 43
2,109628, Control_c, 0, 64, 39
2,109644, Note_on_c, 0, 68, 77
2,109646, Note_on_c, 0, 53, 59
2,109648, Control_c, 0, 64, 37
2,109667, Control_c, 0, 64, 36
2,109686, Control_c, 0, 64, 33
2,109705, Control_c, 0, 64, 29
2,109725, Control_c, 0, 64, 22
2,109743, Control_c, 0, 64, 18
2,109759, Note_on_c, 0, 70, 0
2,109763, Control_c, 0, 64, 17
2,109802, Control_c, 0, 64, 13
2,109826, Control_c, 0, 64, 0
2,109852, Note_on_c, 0, 66, 73
2,109855, Note_on_c, 0, 51, 64
2,109884, Note_on_c, 0, 53, 0
2,109954, Note_on_c, 0, 68, 0
2,109972, Note_on_c, 0, 63, 0
2,110002, Note_on_c, 0, 66, 0
2,110083, Note_on_c, 0, 49, 61
2,110090, Note_on_c, 0, 65, 68
2,110157, Note_on_c, 0, 51, 0
2,110280, Note_on_c, 0, 49, 0
2,110359, Note_on_c, 0, 65, 0
2,110504, Note_on_c, 0, 46, 53
2,110507, Note_on_c, 0, 67, 72
2,110539, Note_on_c, 0, 61, 59
2,110553, Control_c, 0, 64, 11
2,110572, Control_c, 0, 64, 13
2,110611, Control_c, 0, 64, 15
2,110629, Control_c, 0, 64, 17
2,110674, Note_on_c, 0, 61, 0
2,110688, Control_c, 0, 64, 18
2,110694, Note_on_c, 0, 46, 0
2,110701, Note_on_c, 0, 48, 60
2,110707, Note_on_c, 0, 60, 70
2,110709, Note_on_c, 0, 69, 81
2,110745, Control_c, 0, 64, 19
2,110764, Control_c, 0, 64, 20
2,110765, Note_on_c, 0, 67, 0
2,110792, Note_on_c, 0, 60, 0
2,110803, Control_c, 0, 64, 21
2,110806, Note_on_c, 0, 69, 0
2,110822, Control_c, 0, 64, 22
2,110840, Control_c, 0, 64, 23
2,110860, Control_c, 0, 64, 24
2,110879, Control_c, 0, 64, 26
2,110899, Control_c, 0, 64, 27
2,110917, Control_c, 0, 64, 28
2,110920, Note_on_c, 0, 49, 61
2,110937, Control_c, 0, 64, 29
2,110957, Note_on_c, 0, 70, 81
2,110965, Note_on_c, 0, 48, 0
2,110972, Note_on_c, 0, 58, 65
2,110975, Control_c, 0, 64, 29
2,111095, Note_on_c, 0, 49, 0
2,111263, Control_c, 0, 64, 29
2,111283, Control_c, 0, 64, 28
2,111340, Control_c, 0, 64, 27
2,111359, Control_c, 0, 64, 27
2,111383, Note_on_c, 0, 49, 56
2,111384, Note_on_c, 0, 53, 58
2,111417, Control_c, 0, 64, 26
2,111436, Control_c, 0, 64, 25
2,111474, Control_c, 0, 64, 24
2,111529, Note_on_c, 0, 58, 0
2,111569, Note_on_c, 0, 51, 54
2,111584, Note_on_c, 0, 55, 61
2,111605, Note_on_c, 0, 49, 0
2,111608, Note_on_c, 0, 53, 0
2,111608, Note_on_c, 0, 70, 0
2,111628, Control_c, 0, 64, 23
2,111648, Control_c, 0, 64, 22
2,111666, Control_c, 0, 64, 21
2,111724, Control_c, 0, 64, 20
2,111763, Control_c, 0, 64, 19
2,111782, Control_c, 0, 64, 17
2,111800, Control_c, 0, 64, 11
2,111809, Note_on_c, 0, 55, 0
2,111811, Note_on_c, 0, 56, 66
2,111813, Note_on_c, 0, 53, 56
2,111820, Control_c, 0, 64, 0
2,111827, Note_on_c, 0, 51, 0
2,112023, Note_on_c, 0, 56, 0
2,112257, Note_on_c, 0, 56, 54
2,112257, Note_on_c, 0, 72, 79
2,112378, Control_c, 0, 64, 34
2,112397, Control_c, 0, 64, 55
2,112416, Control_c, 0, 64, 63
2,112435, Control_c, 0, 64, 66
2,112455, Control_c, 0, 64, 72
2,112467, Note_on_c, 0, 70, 80
2,112473, Control_c, 0, 64, 83
2,112473, Note_on_c, 0, 58, 61
2,112493, Control_c, 0, 64, 101
2,112511, Note_on_c, 0, 72, 0
2,112512, Control_c, 0, 64, 127
2,112527, Note_on_c, 0, 56, 0
2,112575, Note_on_c, 0, 58, 0
2,112680, Note_on_c, 0, 60, 69
2,112686, Note_on_c, 0, 68, 82
2,112737, Note_on_c, 0, 70, 0
2,112770, Note_on_c, 0, 68, 0
2,112858, Control_c, 0, 64, 123
2,112869, Note_on_c, 0, 53, 0
2,112877, Control_c, 0, 64, 116
2,112880, Note_on_c, 0, 51, 58
2,112886, Note_on_c, 0, 67, 78
2,112896, Control_c, 0, 64, 110
2,112915, Control_c, 0, 64, 105
2,112935, Control_c, 0, 64, 100
2,112953, Control_c, 0, 64, 94
2,112973, Control_c, 0, 64, 88
2,112992, Control_c, 0, 64, 82
2,113012, Control_c, 0, 64, 76
2,113030, Control_c, 0, 64, 71
2,113050, Control_c, 0, 64, 67
2,113059, Note_on_c, 0, 51, 0
2,113069, Control_c, 0, 64, 64
2,113089, Control_c, 0, 64, 63
2,113097, Note_on_c, 0, 49, 61
2,113102, Note_on_c, 0, 65, 74
2,113146, Control_c, 0, 64, 62
2,113159, Note_on_c, 0, 67, 0
2,113165, Control_c, 0, 64, 61
2,113184, Control_c, 0, 64, 60
2,113204, Control_c, 0, 64, 59
2,113223, Control_c, 0, 64, 58
2,113241, Control_c, 0, 64, 57
2,113261, Control_c, 0, 64, 56
2,113280, Control_c, 0, 64, 53
2,113287, Note_on_c, 0, 48, 65
2,113299, Control_c, 0, 64, 51
2,113306, Note_on_c, 0, 63, 80
2,113318, Control_c, 0, 64, 49
2,113336, Note_on_c, 0, 49, 0
2,113338, Control_c, 0, 64, 46
2,113357, Control_c, 0, 64, 44
2,113376, Control_c, 0, 64, 42
2,113384, Note_on_c, 0, 65, 0
2,113395, Control_c, 0, 64, 39
2,113415, Control_c, 0, 64, 37
2,113433, Control_c, 0, 64, 34
2,113453, Control_c, 0, 64, 31
2,113472, Control_c, 0, 64, 28
2,113492, Control_c, 0, 64, 26
2,113510, Control_c, 0, 64, 25
2,113518, Note_on_c, 0, 46, 52
2,113525, Note_on_c, 0, 48, 0
2,113530, Control_c, 0, 64, 24
2,113549, Control_c, 0, 64, 22
2,113569, Control_c, 0, 64, 20
2,113581, Note_on_c, 0, 61, 80
2,113587, Control_c, 0, 64, 18
2,113607, Control_c, 0, 64, 15
2,113611, Note_on_c, 0, 60, 0
2,113623, Note_on_c, 0, 63, 0
2,113775, Note_on_c, 0, 48, 58
2,113888, Note_on_c, 0, 46, 0
2,113972, Control_c, 0, 64, 11
2,113984, Note_on_c, 0, 48, 0
2,113990, Control_c, 0, 64, 0
2,113995, Note_on_c, 0, 49, 54
2,113998, Note_on_c, 0, 58, 64
2,114170, Note_on_c, 0, 61, 0
2,114189, Note_on_c, 0, 48, 55
2,114205, Note_on_c, 0, 60, 72
2,114206, Note_on_c, 0, 58, 0
2,114219, Note_on_c, 0, 49, 0
2,114409, Note_on_c, 0, 46, 66
2,114425, Note_on_c, 0, 61, 78
2,114449, Note_on_c, 0, 48, 0
2,114450, Note_on_c, 0, 60, 0
2,114490, Control_c, 0, 64, 25
2,114509, Control_c, 0, 64, 44
2,114529, Control_c, 0, 64, 56
2,114547, Control_c, 0, 64, 60
2,114567, Control_c, 0, 64, 58
2,114586, Control_c, 0, 64, 47
2,114605, Control_c, 0, 64, 0
2,114615, Note_on_c, 0, 44, 61
2,114627, Note_on_c, 0, 65, 78
2,114632, Note_on_c, 0, 46, 0
2,114683, Control_c, 0, 64, 23
2,114702, Control_c, 0, 64, 54
2,114721, Control_c, 0, 64, 65
2,114740, Control_c, 0, 64, 72
2,114759, Control_c, 0, 64, 86
2,114779, Control_c, 0, 64, 103
2,114790, Note_on_c, 0, 44, 0
2,114798, Control_c, 0, 64, 97
2,114817, Control_c, 0, 64, 84
2,114824, Note_on_c, 0, 43, 69
2,114835, Control_c, 0, 64, 76
2,114843, Note_on_c, 0, 70, 83
2,114854, Note_on_c, 0, 65, 0
2,114855, Control_c, 0, 64, 72
2,114873, Control_c, 0, 64, 72
2,114893, Control_c, 0, 64, 74
2,114912, Control_c, 0, 64, 78
2,114932, Control_c, 0, 64, 81
2,114950, Control_c, 0, 64, 84
2,114957, Note_on_c, 0, 70, 0
2,114970, Control_c, 0, 64, 85
2,115009, Control_c, 0, 64, 84
2,115027, Control_c, 0, 64, 83
2,115035, Note_on_c, 0, 41, 79
2,115041, Note_on_c, 0, 68, 82
2,115043, Note_on_c, 0, 43, 0
2,115047, Control_c, 0, 64, 82
2,115066, Control_c, 0, 64, 80
2,115085, Control_c, 0, 64, 79
2,115143, Control_c, 0, 64, 80
2,115150, Note_on_c, 0, 68, 0
2,115161, Control_c, 0, 64, 80
2,115181, Control_c, 0, 64, 81
2,115238, Control_c, 0, 64, 80
2,115258, Control_c, 0, 64, 77
2,115264, Note_on_c, 0, 39, 75
2,115277, Control_c, 0, 64, 71
2,115283, Note_on_c, 0, 41, 0
2,115296, Control_c, 0, 64, 62
2,115315, Control_c, 0, 64, 0
2,115342, Note_on_c, 0, 67, 78
2,115430, Control_c, 0, 64, 48
2,115450, Control_c, 0, 64, 63
2,115467, Note_on_c, 0, 39, 0
2,115469, Control_c, 0, 64, 67
2,115489, Control_c, 0, 64, 72
2,115507, Control_c, 0, 64, 83
2,115527, Control_c, 0, 64, 98
2,115546, Control_c, 0, 64, 127
2,115719, Control_c, 0, 64, 98
2,115739, Control_c, 0, 64, 73
2,115758, Control_c, 0, 64, 60
2,115774, Note_on_c, 0, 46, 69
2,115777, Control_c, 0, 64, 45
2,115777, Note_on_c, 0, 63, 75
2,115796, Control_c, 0, 64, 54
2,115804, Note_on_c, 0, 61, 0
2,115816, Control_c, 0, 64, 61
2,115819, Note_on_c, 0, 67, 0
2,115834, Control_c, 0, 64, 64
2,115854, Control_c, 0, 64, 68
2,115873, Control_c, 0, 64, 78
2,115893, Control_c, 0, 64, 96
2,115906, Note_on_c, 0, 46, 0
2,115911, Control_c, 0, 64, 127
2,115959, Note_on_c, 0, 61, 80
2,116011, Note_on_c, 0, 63, 0
2,116100, Note_on_c, 0, 61, 0
2,116182, Note_on_c, 0, 48, 58
2,116238, Control_c, 0, 64, 116
2,116257, Control_c, 0, 64, 96
2,116276, Control_c, 0, 64, 77
2,116279, Note_on_c, 0, 63, 84
2,116296, Control_c, 0, 64, 64
2,116299, Note_on_c, 0, 60, 70
2,116314, Control_c, 0, 64, 33
2,116314, Note_on_c, 0, 68, 44
2,116334, Control_c, 0, 64, 0
2,116391, Control_c, 0, 64, 25
2,116411, Control_c, 0, 64, 51
2,116424, Note_on_c, 0, 48, 0
2,116430, Control_c, 0, 64, 64
2,116449, Control_c, 0, 64, 67
2,116468, Control_c, 0, 64, 72
2,116488, Control_c, 0, 64, 83
2,116492, Note_on_c, 0, 68, 0
2,116507, Control_c, 0, 64, 103
2,116526, Control_c, 0, 64, 127
2,116679, Control_c, 0, 64, 99
2,116693, Note_on_c, 0, 44, 58
2,116699, Control_c, 0, 64, 76
2,116716, Note_on_c, 0, 61, 61
2,116718, Control_c, 0, 64, 68
2,116724, Note_on_c, 0, 60, 0
2,116737, Control_c, 0, 64, 67
2,116756, Control_c, 0, 64, 69
2,116776, Control_c, 0, 64, 73
2,116794, Control_c, 0, 64, 80
2,116814, Control_c, 0, 64, 94
2,116824, Note_on_c, 0, 44, 0
2,116833, Control_c, 0, 64, 127
2,116858, Note_on_c, 0, 63, 0
2,116901, Note_on_c, 0, 61, 0
2,116913, Note_on_c, 0, 60, 58
2,116995, Note_on_c, 0, 60, 0
2,117105, Note_on_c, 0, 58, 59
2,117108, Note_on_c, 0, 49, 64
2,117119, Control_c, 0, 64, 110
2,117137, Control_c, 0, 64, 84
2,117156, Note_on_c, 0, 65, 82
2,117157, Control_c, 0, 64, 68
2,117176, Control_c, 0, 64, 55
2,117196, Control_c, 0, 64, 48
2,117214, Control_c, 0, 64, 55
2,117234, Control_c, 0, 64, 60
2,117253, Control_c, 0, 64, 64
2,117272, Control_c, 0, 64, 68
2,117291, Control_c, 0, 64, 77
2,117301, Note_on_c, 0, 49, 0
2,117310, Control_c, 0, 64, 96
2,117330, Control_c, 0, 64, 127
2,117352, Note_on_c, 0, 67, 69
2,117428, Note_on_c, 0, 67, 0
2,117541, Control_c, 0, 64, 96
2,117555, Note_on_c, 0, 46, 61
2,117560, Control_c, 0, 64, 72
2,117579, Control_c, 0, 64, 55
2,117590, Note_on_c, 0, 68, 70
2,117599, Control_c, 0, 64, 35
2,117617, Control_c, 0, 64, 51
2,117637, Control_c, 0, 64, 62
2,117656, Control_c, 0, 64, 69
2,117676, Control_c, 0, 64, 80
2,117676, Note_on_c, 0, 46, 0
2,117694, Control_c, 0, 64, 127
2,117728, Note_on_c, 0, 65, 0
2,117766, Note_on_c, 0, 68, 0
2,117772, Note_on_c, 0, 70, 73
2,117962, Control_c, 0, 64, 91
2,117971, Note_on_c, 0, 51, 56
2,117981, Control_c, 0, 64, 67
2,118001, Control_c, 0, 64, 0
2,118005, Note_on_c, 0, 63, 82
2,118024, Note_on_c, 0, 70, 0
2,118029, Note_on_c, 0, 72, 66
2,118098, Note_on_c, 0, 58, 0
2,118116, Control_c, 0, 64, 47
2,118135, Control_c, 0, 64, 63
2,118155, Control_c, 0, 64, 68
2,118173, Control_c, 0, 64, 73
2,118193, Control_c, 0, 64, 81
2,118212, Control_c, 0, 64, 96
2,118230, Control_c, 0, 64, 117
2,118250, Control_c, 0, 64, 127
2,118289, Control_c, 0, 64, 105
2,118307, Control_c, 0, 64, 84
2,118327, Control_c, 0, 64, 69
2,118346, Control_c, 0, 64, 62
2,118366, Control_c, 0, 64, 65
2,118371, Note_on_c, 0, 51, 0
2,118384, Control_c, 0, 64, 67
2,118404, Control_c, 0, 64, 73
2,118419, Note_on_c, 0, 56, 63
2,118423, Control_c, 0, 64, 85
2,118429, Note_on_c, 0, 48, 53
2,118442, Control_c, 0, 64, 109
2,118449, Note_on_c, 0, 63, 0
2,118462, Control_c, 0, 64, 127
2,118542, Note_on_c, 0, 56, 0
2,118597, Control_c, 0, 64, 121
2,118616, Control_c, 0, 64, 116
2,118621, Note_on_c, 0, 55, 61
2,118636, Control_c, 0, 64, 112
2,118654, Control_c, 0, 64, 109
2,118672, Note_on_c, 0, 55, 0
2,118674, Control_c, 0, 64, 106
2,118693, Control_c, 0, 64, 106
2,118731, Control_c, 0, 64, 105
2,118741, Note_on_c, 0, 48, 0
2,118750, Control_c, 0, 64, 103
2,118770, Control_c, 0, 64, 94
2,118788, Control_c, 0, 64, 80
2,118802, Note_on_c, 0, 53, 51
2,118808, Control_c, 0, 64, 65
2,118820, Note_on_c, 0, 56, 57
2,118827, Control_c, 0, 64, 0
2,118863, Note_on_c, 0, 62, 81
2,118962, Control_c, 0, 64, 46
2,118981, Control_c, 0, 64, 62
2,119000, Control_c, 0, 64, 69
2,119017, Note_on_c, 0, 56, 0
2,119019, Control_c, 0, 64, 78
2,119039, Control_c, 0, 64, 102
2,119057, Control_c, 0, 64, 127
2,119061, Note_on_c, 0, 72, 0
2,119086, Note_on_c, 0, 68, 62
2,119228, Note_on_c, 0, 53, 0
2,119250, Control_c, 0, 64, 88
2,119268, Control_c, 0, 64, 66
2,119268, Note_on_c, 0, 46, 54
2,119288, Control_c, 0, 64, 47
2,119294, Note_on_c, 0, 70, 71
2,119299, Note_on_c, 0, 55, 45
2,119307, Control_c, 0, 64, 53
2,119323, Note_on_c, 0, 68, 0
2,119326, Control_c, 0, 64, 59
2,119345, Control_c, 0, 64, 64
2,119365, Control_c, 0, 64, 68
2,119384, Control_c, 0, 64, 78
2,119403, Control_c, 0, 64, 106
2,119420, Control_c, 0, 64, 127
2,119463, Note_on_c, 0, 46, 0
2,119478, Note_on_c, 0, 72, 73
2,119480, Note_on_c, 0, 56, 63
2,119484, Note_on_c, 0, 55, 0
2,119494, Note_on_c, 0, 70, 0
2,119689, Note_on_c, 0, 56, 0
2,119699, Note_on_c, 0, 67, 81
2,119702, Note_on_c, 0, 58, 58
2,119707, Control_c, 0, 64, 78
2,119727, Control_c, 0, 64, 45
2,119745, Control_c, 0, 64, 0
2,119759, Note_on_c, 0, 62, 0
2,119781, Note_on_c, 0, 72, 0
2,119781, Note_on_c, 0, 73, 21
2,119842, Control_c, 0, 64, 51
2,119861, Control_c, 0, 64, 64
2,119881, Control_c, 0, 64, 68
2,119897, Note_on_c, 0, 58, 0
2,119899, Control_c, 0, 64, 73
2,119917, Note_on_c, 0, 56, 66
2,119919, Control_c, 0, 64, 79
2,119938, Control_c, 0, 64, 87
2,119957, Control_c, 0, 64, 96
2,119976, Control_c, 0, 64, 102
2,119996, Control_c, 0, 64, 94
2,120015, Control_c, 0, 64, 74
2,120034, Control_c, 0, 64, 53
2,120053, Control_c, 0, 64, 0
2,120087, Note_on_c, 0, 56, 0
2,120091, Control_c, 0, 64, 27
2,120110, Control_c, 0, 64, 61
2,120130, Control_c, 0, 64, 75
2,120134, Note_on_c, 0, 51, 45
2,120138, Note_on_c, 0, 55, 49
2,120149, Control_c, 0, 64, 127
2,120159, Note_on_c, 0, 67, 0
2,120328, Note_on_c, 0, 49, 54
2,120331, Note_on_c, 0, 51, 0
2,120331, Note_on_c, 0, 55, 0
2,120345, Note_on_c, 0, 53, 57
2,120532, Note_on_c, 0, 51, 44
2,120535, Control_c, 0, 64, 95
2,120555, Control_c, 0, 64, 71
2,120561, Note_on_c, 0, 48, 46
2,120567, Note_on_c, 0, 68, 88
2,120570, Note_on_c, 0, 73, 0
2,120573, Control_c, 0, 64, 52
2,120593, Control_c, 0, 64, 0
2,120630, Control_c, 0, 64, 40
2,120638, Note_on_c, 0, 49, 0
2,120646, Note_on_c, 0, 53, 0
2,120650, Control_c, 0, 64, 58
2,120660, Note_on_c, 0, 48, 0
2,120669, Control_c, 0, 64, 66
2,120687, Note_on_c, 0, 51, 0
2,120689, Control_c, 0, 64, 75
2,120707, Control_c, 0, 64, 95
2,120727, Control_c, 0, 64, 127
2,120769, Note_on_c, 0, 72, 77
2,120938, Control_c, 0, 64, 100
2,120958, Control_c, 0, 64, 69
2,120973, Note_on_c, 0, 56, 59
2,120976, Control_c, 0, 64, 53
2,120990, Note_on_c, 0, 73, 65
2,120996, Control_c, 0, 64, 53
2,120998, Note_on_c, 0, 53, 55
2,121015, Control_c, 0, 64, 60
2,121035, Control_c, 0, 64, 65
2,121053, Control_c, 0, 64, 71
2,121073, Control_c, 0, 64, 90
2,121086, Note_on_c, 0, 53, 0
2,121092, Control_c, 0, 64, 127
2,121106, Note_on_c, 0, 56, 0
2,121180, Note_on_c, 0, 75, 72
2,121186, Note_on_c, 0, 73, 0
2,121212, Note_on_c, 0, 68, 0
2,121243, Note_on_c, 0, 72, 0
2,121400, Control_c, 0, 64, 114
2,121419, Control_c, 0, 64, 102
2,121425, Note_on_c, 0, 61, 80
2,121436, Note_on_c, 0, 77, 69
2,121439, Control_c, 0, 64, 94
2,121457, Control_c, 0, 64, 87
2,121477, Control_c, 0, 64, 79
2,121479, Note_on_c, 0, 75, 0
2,121496, Control_c, 0, 64, 67
2,121516, Control_c, 0, 64, 30
2,121534, Control_c, 0, 64, 0
2,121636, Note_on_c, 0, 51, 54
2,121645, Note_on_c, 0, 55, 54
2,121802, Control_c, 0, 64, 64
2,121802, Note_on_c, 0, 51, 0
2,121821, Control_c, 0, 64, 72
2,121836, Note_on_c, 0, 53, 53
2,121841, Control_c, 0, 64, 83
2,121860, Control_c, 0, 64, 99
2,121879, Control_c, 0, 64, 127
2,121903, Note_on_c, 0, 61, 0
2,121939, Note_on_c, 0, 55, 0
2,122045, Note_on_c, 0, 58, 76
2,122104, Note_on_c, 0, 55, 59
2,122131, Note_on_c, 0, 58, 0
2,122195, Note_on_c, 0, 53, 0
2,122271, Note_on_c, 0, 60, 75
2,122278, Note_on_c, 0, 56, 73
2,122318, Note_on_c, 0, 55, 0
2,122323, Control_c, 0, 64, 123
2,122343, Control_c, 0, 64, 103
2,122361, Control_c, 0, 64, 90
2,122381, Control_c, 0, 64, 78
2,122400, Control_c, 0, 64, 66
2,122419, Control_c, 0, 64, 52
2,122438, Control_c, 0, 64, 0
2,122448, Note_on_c, 0, 77, 0
2,122453, Note_on_c, 0, 56, 0
2,122476, Note_on_c, 0, 75, 79
2,122478, Note_on_c, 0, 55, 62
2,122659, Note_on_c, 0, 55, 0
2,122691, Note_on_c, 0, 77, 84
2,122698, Note_on_c, 0, 53, 57
2,122734, Note_on_c, 0, 75, 0
2,122784, Control_c, 0, 64, 22
2,122803, Control_c, 0, 64, 58
2,122823, Control_c, 0, 64, 54
2,122841, Control_c, 0, 64, 52
2,122861, Control_c, 0, 64, 53
2,122879, Note_on_c, 0, 53, 0
2,122880, Control_c, 0, 64, 53
2,122883, Note_on_c, 0, 51, 63
2,122883, Note_on_c, 0, 79, 82
2,122899, Control_c, 0, 64, 54
2,122921, Note_on_c, 0, 60, 0
2,122950, Note_on_c, 0, 77, 0
2,123053, Control_c, 0, 64, 53
2,123072, Control_c, 0, 64, 51
2,123092, Control_c, 0, 64, 45
2,123107, Note_on_c, 0, 50, 61
2,123108, Note_on_c, 0, 51, 0
2,123110, Control_c, 0, 64, 0
2,123110, Note_on_c, 0, 59, 56
2,123139, Note_on_c, 0, 80, 87
2,123178, Note_on_c, 0, 79, 0
2,123332, Note_on_c, 0, 50, 0
2,123342, Note_on_c, 0, 53, 59
2,123557, Note_on_c, 0, 55, 56
2,123572, Control_c, 0, 64, 43
2,123586, Note_on_c, 0, 53, 0
2,123590, Control_c, 0, 64, 55
2,123610, Control_c, 0, 64, 60
2,123629, Control_c, 0, 64, 61
2,123649, Control_c, 0, 64, 62
2,123667, Control_c, 0, 64, 63
2,123687, Control_c, 0, 64, 63
2,123694, Note_on_c, 0, 59, 0
2,123725, Control_c, 0, 64, 64
2,123730, Note_on_c, 0, 55, 0
2,123757, Note_on_c, 0, 56, 61
2,123840, Control_c, 0, 64, 63
2,123859, Control_c, 0, 64, 60
2,123878, Control_c, 0, 64, 56
2,123898, Control_c, 0, 64, 47
2,123917, Control_c, 0, 64, 9
2,123936, Control_c, 0, 64, 0
2,124002, Note_on_c, 0, 56, 0
2,124005, Note_on_c, 0, 51, 57
2,124007, Note_on_c, 0, 58, 62
2,124294, Note_on_c, 0, 80, 0
2,124335, Note_on_c, 0, 51, 0
2,124423, Note_on_c, 0, 50, 48
2,124440, Note_on_c, 0, 79, 75
2,124651, Note_on_c, 0, 77, 78
2,124717, Note_on_c, 0, 79, 0
2,124869, Note_on_c, 0, 52, 51
2,124881, Note_on_c, 0, 50, 0
2,124894, Note_on_c, 0, 79, 84
2,124945, Note_on_c, 0, 77, 0
2,125049, Note_on_c, 0, 58, 0
2,125062, Note_on_c, 0, 52, 0
2,125092, Note_on_c, 0, 55, 56
2,125318, Note_on_c, 0, 53, 47
2,125341, Note_on_c, 0, 48, 49
2,125456, Note_on_c, 0, 55, 0
2,125471, Note_on_c, 0, 48, 0
2,125492, Note_on_c, 0, 53, 0
2,125532, Note_on_c, 0, 52, 42
2,125721, Note_on_c, 0, 52, 0
2,125753, Note_on_c, 0, 53, 45
2,125754, Note_on_c, 0, 56, 51
2,125839, Control_c, 0, 64, 9
2,125858, Control_c, 0, 64, 11
2,125877, Control_c, 0, 64, 13
2,125878, Note_on_c, 0, 53, 0
2,125897, Control_c, 0, 64, 15
2,125966, Note_on_c, 0, 72, 64
2,126050, Control_c, 0, 64, 17
2,126178, Note_on_c, 0, 53, 47
2,126188, Note_on_c, 0, 74, 64
2,126232, Note_on_c, 0, 79, 0
2,126353, Note_on_c, 0, 56, 0
2,126382, Note_on_c, 0, 72, 0
2,126384, Note_on_c, 0, 51, 50
2,126387, Note_on_c, 0, 75, 73
2,126403, Note_on_c, 0, 53, 0
2,126414, Control_c, 0, 64, 15
2,126474, Note_on_c, 0, 74, 0
2,126605, Note_on_c, 0, 50, 46
2,126614, Note_on_c, 0, 77, 69
2,126641, Note_on_c, 0, 75, 0
2,126647, Note_on_c, 0, 51, 0
2,126800, Note_on_c, 0, 50, 0
2,126828, Note_on_c, 0, 71, 52
2,126933, Control_c, 0, 64, 13
2,126991, Control_c, 0, 64, 11
2,127031, Note_on_c, 0, 72, 56
2,127041, Note_on_c, 0, 50, 38
2,127041, Note_on_c, 0, 71, 0
2,127248, Note_on_c, 0, 48, 42
2,127249, Note_on_c, 0, 72, 0
2,127251, Note_on_c, 0, 74, 52
2,127312, Note_on_c, 0, 50, 0
2,127380, Note_on_c, 0, 77, 0
2,127434, Note_on_c, 0, 48, 0
2,127464, Note_on_c, 0, 47, 38
2,127474, Note_on_c, 0, 67, 46
2,127476, Note_on_c, 0, 74, 0
2,127643, Note_on_c, 0, 47, 0
2,127674, Note_on_c, 0, 43, 43
2,127874, Control_c, 0, 64, 9
2,127898, Note_on_c, 0, 75, 68
2,127899, Note_on_c, 0, 45, 46
2,127928, Note_on_c, 0, 43, 0
2,128091, Note_on_c, 0, 47, 48
2,128098, Note_on_c, 0, 74, 70
2,128130, Note_on_c, 0, 75, 0
2,128229, Note_on_c, 0, 45, 0
2,128239, Control_c, 0, 64, 11
2,128258, Control_c, 0, 64, 13
2,128275, Note_on_c, 0, 47, 0
2,128277, Control_c, 0, 64, 15
2,128297, Control_c, 0, 64, 17
2,128319, Note_on_c, 0, 48, 43
2,128326, Note_on_c, 0, 75, 77
2,128334, Control_c, 0, 64, 18
2,128342, Note_on_c, 0, 74, 0
2,128361, Note_on_c, 0, 67, 0
2,128373, Control_c, 0, 64, 19
2,128411, Control_c, 0, 64, 20
2,128431, Control_c, 0, 64, 21
2,128450, Control_c, 0, 64, 22
2,128469, Control_c, 0, 64, 23
2,128488, Control_c, 0, 64, 25
2,128505, Note_on_c, 0, 48, 0
2,128508, Control_c, 0, 64, 26
2,128526, Control_c, 0, 64, 27
2,128533, Note_on_c, 0, 44, 47
2,128565, Control_c, 0, 64, 27
2,128642, Control_c, 0, 64, 28
2,128700, Control_c, 0, 64, 29
2,128735, Note_on_c, 0, 46, 44
2,128764, Note_on_c, 0, 66, 52
2,128853, Control_c, 0, 64, 29
2,128891, Note_on_c, 0, 44, 0
2,128943, Note_on_c, 0, 48, 49
2,128964, Note_on_c, 0, 66, 0
2,128982, Note_on_c, 0, 46, 0
2,129142, Control_c, 0, 64, 30
2,129158, Note_on_c, 0, 48, 0
2,129161, Note_on_c, 0, 49, 46
2,129175, Note_on_c, 0, 65, 45
2,129357, Note_on_c, 0, 49, 0
2,129396, Note_on_c, 0, 68, 60
2,129433, Note_on_c, 0, 75, 0
2,129486, Control_c, 0, 64, 31
2,129598, Note_on_c, 0, 49, 40
2,129614, Note_on_c, 0, 70, 61
2,129755, Control_c, 0, 64, 30
2,129807, Note_on_c, 0, 68, 0
2,129812, Control_c, 0, 64, 29
2,129815, Note_on_c, 0, 72, 69
2,129817, Note_on_c, 0, 70, 0
2,129824, Note_on_c, 0, 48, 42
2,129855, Note_on_c, 0, 49, 0
2,129870, Control_c, 0, 64, 29
2,129966, Control_c, 0, 64, 28
2,130018, Note_on_c, 0, 46, 39
2,130029, Note_on_c, 0, 73, 68
2,130053, Note_on_c, 0, 48, 0
2,130057, Note_on_c, 0, 72, 0
2,130218, Note_on_c, 0, 46, 0
2,130237, Note_on_c, 0, 65, 0
2,130249, Note_on_c, 0, 67, 42
2,130293, Control_c, 0, 64, 27
2,130351, Control_c, 0, 64, 27
2,130446, Control_c, 0, 64, 26
2,130458, Note_on_c, 0, 46, 29
2,130469, Note_on_c, 0, 68, 56
2,130543, Control_c, 0, 64, 25
2,130639, Control_c, 0, 64, 24
2,130665, Note_on_c, 0, 44, 43
2,130673, Note_on_c, 0, 70, 55
2,130683, Note_on_c, 0, 68, 0
2,130697, Note_on_c, 0, 67, 0
2,130716, Control_c, 0, 64, 23
2,130808, Note_on_c, 0, 46, 0
2,130867, Note_on_c, 0, 73, 0
2,130872, Note_on_c, 0, 43, 41
2,130889, Note_on_c, 0, 63, 51
2,130911, Note_on_c, 0, 44, 0
2,131010, Note_on_c, 0, 70, 0
2,131070, Note_on_c, 0, 39, 49
2,131213, Note_on_c, 0, 43, 0
2,131282, Note_on_c, 0, 41, 46
2,131317, Note_on_c, 0, 39, 0
2,131322, Note_on_c, 0, 72, 67
2,131486, Note_on_c, 0, 41, 0
2,131514, Note_on_c, 0, 70, 66
2,131517, Note_on_c, 0, 43, 41
2,131552, Note_on_c, 0, 72, 0
2,131561, Control_c, 0, 64, 24
2,131600, Control_c, 0, 64, 25
2,131638, Control_c, 0, 64, 26
2,131715, Control_c, 0, 64, 27
2,131752, Note_on_c, 0, 43, 0
2,131753, Control_c, 0, 64, 27
2,131761, Note_on_c, 0, 44, 32
2,131766, Note_on_c, 0, 72, 66
2,131792, Control_c, 0, 64, 28
2,131801, Note_on_c, 0, 63, 0
2,131825, Note_on_c, 0, 70, 0
2,131984, Control_c, 0, 64, 29
2,131984, Note_on_c, 0, 41, 42
2,131985, Note_on_c, 0, 66, 49
2,131987, Note_on_c, 0, 44, 0
2,132164, Note_on_c, 0, 66, 0
2,132198, Note_on_c, 0, 65, 48
2,132207, Note_on_c, 0, 43, 33
2,132239, Note_on_c, 0, 41, 0
2,132372, Note_on_c, 0, 65, 0
2,132386, Note_on_c, 0, 43, 0
2,132403, Note_on_c, 0, 45, 36
2,132413, Note_on_c, 0, 63, 49
2,132602, Note_on_c, 0, 45, 0
2,132606, Note_on_c, 0, 46, 44
2,132627, Note_on_c, 0, 63, 0
2,132631, Note_on_c, 0, 61, 49
2,132771, Control_c, 0, 64, 29
2,132809, Control_c, 0, 64, 30
2,132816, Note_on_c, 0, 46, 0
2,132834, Note_on_c, 0, 45, 39
2,132944, Control_c, 0, 64, 31
2,133027, Note_on_c, 0, 46, 35
2,133045, Note_on_c, 0, 72, 0
2,133059, Control_c, 0, 64, 31
2,133063, Note_on_c, 0, 65, 55
2,133072, Note_on_c, 0, 45, 0
2,133135, Control_c, 0, 64, 32
2,133155, Control_c, 0, 64, 32
2,133174, Control_c, 0, 64, 33
2,133193, Control_c, 0, 64, 34
2,133212, Control_c, 0, 64, 34
2,133213, Note_on_c, 0, 46, 0
2,133232, Control_c, 0, 64, 35
2,133251, Control_c, 0, 64, 35
2,133253, Note_on_c, 0, 48, 51
2,133289, Control_c, 0, 64, 36
2,133406, Note_on_c, 0, 65, 0
2,133463, Note_on_c, 0, 49, 51
2,133472, Note_on_c, 0, 70, 66
2,133474, Note_on_c, 0, 48, 0
2,133659, Note_on_c, 0, 49, 0
2,133663, Note_on_c, 0, 70, 0
2,133666, Note_on_c, 0, 46, 54
2,133673, Control_c, 0, 64, 35
2,133769, Control_c, 0, 64, 35
2,133807, Control_c, 0, 64, 34
2,133827, Control_c, 0, 64, 34
2,133846, Control_c, 0, 64, 33
2,133874, Note_on_c, 0, 48, 48
2,133882, Note_on_c, 0, 68, 60
2,133884, Control_c, 0, 64, 32
2,133923, Control_c, 0, 64, 32
2,133942, Control_c, 0, 64, 31
2,133949, Note_on_c, 0, 46, 0
2,134034, Control_c, 0, 64, 31
2,134069, Note_on_c, 0, 48, 0
2,134073, Note_on_c, 0, 49, 58
2,134091, Note_on_c, 0, 68, 0
2,134127, Note_on_c, 0, 61, 0
2,134207, Control_c, 0, 64, 30
2,134245, Control_c, 0, 64, 29
2,134265, Control_c, 0, 64, 29
2,134308, Note_on_c, 0, 51, 43
2,134322, Control_c, 0, 64, 28
2,134325, Note_on_c, 0, 67, 54
2,134339, Note_on_c, 0, 49, 0
2,134342, Control_c, 0, 64, 27
2,134361, Control_c, 0, 64, 27
2,134419, Control_c, 0, 64, 26
2,134437, Control_c, 0, 64, 25
2,134476, Control_c, 0, 64, 24
2,134482, Note_on_c, 0, 51, 0
2,134495, Control_c, 0, 64, 23
2,134533, Control_c, 0, 64, 22
2,134545, Note_on_c, 0, 58, 46
2,134706, Note_on_c, 0, 58, 0
2,134725, Control_c, 0, 64, 23
2,134755, Note_on_c, 0, 60, 48
2,134760, Note_on_c, 0, 51, 45
2,134764, Control_c, 0, 64, 24
2,134933, Note_on_c, 0, 67, 0
2,134947, Note_on_c, 0, 51, 0
2,134951, Note_on_c, 0, 60, 0
2,134957, Note_on_c, 0, 61, 60
2,134958, Control_c, 0, 64, 25
2,134963, Note_on_c, 0, 49, 49
2,135074, Note_on_c, 0, 61, 0
2,135159, Note_on_c, 0, 48, 50
2,135175, Note_on_c, 0, 49, 0
2,135187, Note_on_c, 0, 63, 59
2,135188, Control_c, 0, 64, 26
2,135373, Note_on_c, 0, 48, 0
2,135373, Note_on_c, 0, 67, 66
2,135381, Control_c, 0, 64, 27
2,135533, Control_c, 0, 64, 27
2,135597, Note_on_c, 0, 48, 49
2,135603, Note_on_c, 0, 68, 72
2,135757, Note_on_c, 0, 67, 0
2,135799, Note_on_c, 0, 46, 60
2,135800, Note_on_c, 0, 70, 71
2,135816, Note_on_c, 0, 68, 0
2,135853, Note_on_c, 0, 48, 0
2,135879, Note_on_c, 0, 63, 0
2,136028, Note_on_c, 0, 44, 59
2,136035, Note_on_c, 0, 72, 76
2,136053, Control_c, 0, 64, 27
2,136069, Note_on_c, 0, 70, 0
2,136070, Note_on_c, 0, 46, 0
2,136072, Control_c, 0, 64, 26
2,136111, Control_c, 0, 64, 25
2,136168, Control_c, 0, 64, 24
2,136184, Note_on_c, 0, 44, 0
2,136206, Control_c, 0, 64, 23
2,136241, Note_on_c, 0, 63, 70
2,136245, Control_c, 0, 64, 22
2,136265, Control_c, 0, 64, 21
2,136283, Control_c, 0, 64, 20
2,136303, Control_c, 0, 64, 19
2,136455, Note_on_c, 0, 65, 72
2,136456, Note_on_c, 0, 56, 74
2,136460, Note_on_c, 0, 63, 0
2,136657, Note_on_c, 0, 55, 68
2,136660, Note_on_c, 0, 67, 73
2,136674, Note_on_c, 0, 56, 0
2,136686, Control_c, 0, 64, 20
2,136702, Note_on_c, 0, 65, 0
2,136707, Note_on_c, 0, 72, 0
2,136745, Control_c, 0, 64, 21
2,136759, Note_on_c, 0, 67, 0
2,136860, Control_c, 0, 64, 22
2,136867, Note_on_c, 0, 53, 75
2,136874, Note_on_c, 0, 68, 80
2,136903, Note_on_c, 0, 55, 0
2,136936, Control_c, 0, 64, 23
2,137049, Note_on_c, 0, 53, 0
2,137051, Control_c, 0, 64, 24
2,137084, Note_on_c, 0, 72, 83
2,137166, Control_c, 0, 64, 25
2,137186, Control_c, 0, 64, 26
2,137205, Control_c, 0, 64, 27
2,137282, Control_c, 0, 64, 27
2,137290, Note_on_c, 0, 53, 77
2,137293, Note_on_c, 0, 74, 76
2,137340, Control_c, 0, 64, 28
2,137345, Note_on_c, 0, 72, 0
2,137377, Control_c, 0, 64, 29
2,137397, Control_c, 0, 64, 30
2,137416, Control_c, 0, 64, 31
2,137436, Control_c, 0, 64, 32
2,137454, Control_c, 0, 64, 34
2,137474, Control_c, 0, 64, 34
2,137493, Control_c, 0, 64, 35
2,137501, Note_on_c, 0, 51, 76
2,137505, Note_on_c, 0, 75, 79
2,137542, Note_on_c, 0, 53, 0
2,137563, Note_on_c, 0, 74, 0
2,137705, Control_c, 0, 64, 35
2,137723, Control_c, 0, 64, 34
2,137743, Control_c, 0, 64, 32
2,137756, Note_on_c, 0, 50, 75
2,137762, Control_c, 0, 64, 29
2,137763, Note_on_c, 0, 77, 77
2,137768, Note_on_c, 0, 68, 0
2,137771, Note_on_c, 0, 75, 0
2,137782, Control_c, 0, 64, 25
2,137800, Control_c, 0, 64, 15
2,137800, Note_on_c, 0, 51, 0
2,137820, Control_c, 0, 64, 0
2,137976, Note_on_c, 0, 72, 80
2,138069, Control_c, 0, 64, 37
2,138088, Control_c, 0, 64, 56
2,138102, Note_on_c, 0, 50, 0
2,138108, Control_c, 0, 64, 64
2,138126, Control_c, 0, 64, 69
2,138146, Control_c, 0, 64, 77
2,138165, Control_c, 0, 64, 92
2,138185, Control_c, 0, 64, 118
2,138192, Note_on_c, 0, 70, 83
2,138203, Control_c, 0, 64, 127
2,138409, Note_on_c, 0, 68, 78
2,138461, Note_on_c, 0, 70, 0
2,138565, Note_on_c, 0, 68, 0
2,138656, Note_on_c, 0, 77, 0
2,138676, Note_on_c, 0, 72, 0
2,138687, Note_on_c, 0, 58, 83
2,138703, Control_c, 0, 64, 84
2,138709, Note_on_c, 0, 67, 71
2,138710, Note_on_c, 0, 51, 63
2,138722, Control_c, 0, 64, 66
2,138742, Control_c, 0, 64, 41
2,138760, Control_c, 0, 64, 0
2,138780, Control_c, 0, 64, 46
2,138799, Control_c, 0, 64, 60
2,138817, Control_c, 0, 64, 66
2,138838, Control_c, 0, 64, 76
2,138857, Control_c, 0, 64, 127
2,138880, Note_on_c, 0, 51, 0
2,138926, Note_on_c, 0, 70, 73
2,139126, Control_c, 0, 64, 91
2,139131, Note_on_c, 0, 70, 0
2,139142, Note_on_c, 0, 55, 69
2,139146, Control_c, 0, 64, 68
2,139164, Control_c, 0, 64, 43
2,139165, Note_on_c, 0, 75, 68
2,139177, Note_on_c, 0, 67, 0
2,139184, Control_c, 0, 64, 19
2,139203, Control_c, 0, 64, 50
2,139222, Control_c, 0, 64, 62
2,139223, Note_on_c, 0, 58, 0
2,139241, Control_c, 0, 64, 67
2,139261, Control_c, 0, 64, 79
2,139280, Control_c, 0, 64, 111
2,139299, Control_c, 0, 64, 127
2,139319, Note_on_c, 0, 75, 0
2,139352, Note_on_c, 0, 67, 68
2,139529, Note_on_c, 0, 67, 0
2,139546, Note_on_c, 0, 55, 0
2,139563, Note_on_c, 0, 60, 82
2,139570, Note_on_c, 0, 65, 63
2,139575, Note_on_c, 0, 56, 73
2,139587, Control_c, 0, 64, 114
2,139606, Control_c, 0, 64, 82
2,139626, Control_c, 0, 64, 64
2,139644, Control_c, 0, 64, 0
2,139702, Control_c, 0, 64, 46
2,139721, Control_c, 0, 64, 62
2,139741, Control_c, 0, 64, 70
2,139760, Control_c, 0, 64, 83
2,139771, Note_on_c, 0, 75, 70
2,139779, Control_c, 0, 64, 127
2,139808, Note_on_c, 0, 56, 0
2,139951, Control_c, 0, 64, 109
2,139970, Control_c, 0, 64, 72
2,139985, Note_on_c, 0, 53, 66
2,139989, Control_c, 0, 64, 0
2,139999, Note_on_c, 0, 74, 63
2,140123, Control_c, 0, 64, 55
2,140143, Control_c, 0, 64, 64
2,140146, Note_on_c, 0, 60, 0
2,140150, Note_on_c, 0, 75, 0
2,140162, Control_c, 0, 64, 69
2,140182, Control_c, 0, 64, 78
2,140197, Note_on_c, 0, 72, 70
2,140200, Control_c, 0, 64, 102
2,140213, Note_on_c, 0, 74, 0
2,140220, Control_c, 0, 64, 127
2,140419, Note_on_c, 0, 58, 87
2,140425, Note_on_c, 0, 74, 62
2,140431, Control_c, 0, 64, 105
2,140432, Note_on_c, 0, 53, 0
2,140450, Control_c, 0, 64, 74
2,140468, Note_on_c, 0, 65, 0
2,140469, Control_c, 0, 64, 44
2,140481, Note_on_c, 0, 72, 0
2,140488, Control_c, 0, 64, 0
2,140546, Control_c, 0, 64, 30
2,140565, Control_c, 0, 64, 60
2,140585, Control_c, 0, 64, 70
2,140603, Control_c, 0, 64, 84
2,140623, Control_c, 0, 64, 127
2,140635, Note_on_c, 0, 75, 69
2,140670, Note_on_c, 0, 74, 0
2,140833, Control_c, 0, 64, 90
2,140844, Note_on_c, 0, 46, 65
2,140852, Control_c, 0, 64, 65
2,140856, Note_on_c, 0, 72, 61
2,140872, Control_c, 0, 64, 24
2,140889, Note_on_c, 0, 75, 0
2,140890, Control_c, 0, 64, 32
2,140910, Control_c, 0, 64, 61
2,140929, Control_c, 0, 64, 69
2,140948, Control_c, 0, 64, 81
2,140967, Control_c, 0, 64, 102
2,140987, Control_c, 0, 64, 127
2,140990, Note_on_c, 0, 46, 0
2,141003, Note_on_c, 0, 58, 0
2,141056, Note_on_c, 0, 74, 65
2,141117, Note_on_c, 0, 72, 0
2,141179, Control_c, 0, 64, 123
2,141198, Control_c, 0, 64, 105
2,141216, Control_c, 0, 64, 89
2,141236, Control_c, 0, 64, 71
2,141255, Control_c, 0, 64, 53
2,141275, Control_c, 0, 64, 0
2,141277, Note_on_c, 0, 60, 79
2,141280, Note_on_c, 0, 57, 67
2,141280, Note_on_c, 0, 75, 66
2,141284, Note_on_c, 0, 48, 63
2,141370, Control_c, 0, 64, 13
2,141390, Control_c, 0, 64, 50
2,141409, Control_c, 0, 64, 61
2,141423, Note_on_c, 0, 74, 0
2,141428, Control_c, 0, 64, 64
2,141447, Control_c, 0, 64, 66
2,141467, Control_c, 0, 64, 67
2,141473, Note_on_c, 0, 48, 0
2,141486, Control_c, 0, 64, 68
2,141486, Note_on_c, 0, 72, 72
2,141503, Note_on_c, 0, 60, 0
2,141507, Control_c, 0, 64, 69
2,141524, Note_on_c, 0, 57, 0
2,141529, Note_on_c, 0, 75, 0
2,141661, Control_c, 0, 64, 68
2,141680, Control_c, 0, 64, 67
2,141698, Control_c, 0, 64, 66
2,141716, Control_c, 0, 64, 65
2,141716, Note_on_c, 0, 60, 71
2,141717, Note_on_c, 0, 74, 60
2,141735, Control_c, 0, 64, 64
2,141755, Control_c, 0, 64, 63
2,141773, Control_c, 0, 64, 62
2,141793, Control_c, 0, 64, 61
2,141812, Control_c, 0, 64, 59
2,141832, Control_c, 0, 64, 56
2,141834, Note_on_c, 0, 72, 0
2,141850, Control_c, 0, 64, 51
2,141870, Control_c, 0, 64, 39
2,141889, Control_c, 0, 64, 0
2,141902, Note_on_c, 0, 58, 65
2,141907, Note_on_c, 0, 75, 71
2,141916, Note_on_c, 0, 60, 0
2,141972, Note_on_c, 0, 74, 0
2,142126, Note_on_c, 0, 62, 76
2,142133, Note_on_c, 0, 77, 69
2,142137, Note_on_c, 0, 56, 67
2,142138, Note_on_c, 0, 75, 0
2,142187, Note_on_c, 0, 58, 0
2,142215, Control_c, 0, 64, 24
2,142235, Control_c, 0, 64, 49
2,142253, Control_c, 0, 64, 60
2,142273, Control_c, 0, 64, 64
2,142288, Note_on_c, 0, 56, 0
2,142292, Control_c, 0, 64, 67
2,142312, Control_c, 0, 64, 70
2,142330, Control_c, 0, 64, 75
2,142335, Note_on_c, 0, 75, 70
2,142350, Control_c, 0, 64, 81
2,142351, Note_on_c, 0, 77, 0
2,142369, Control_c, 0, 64, 86
2,142388, Control_c, 0, 64, 91
2,142407, Control_c, 0, 64, 96
2,142423, Note_on_c, 0, 75, 0
2,142427, Control_c, 0, 64, 108
2,142446, Control_c, 0, 64, 127
2,142522, Control_c, 0, 64, 97
2,142542, Control_c, 0, 64, 76
2,142556, Note_on_c, 0, 74, 68
2,142559, Note_on_c, 0, 58, 64
2,142561, Control_c, 0, 64, 62
2,142581, Control_c, 0, 64, 56
2,142599, Control_c, 0, 64, 59
2,142600, Note_on_c, 0, 62, 0
2,142618, Control_c, 0, 64, 62
2,142638, Control_c, 0, 64, 64
2,142656, Control_c, 0, 64, 66
2,142675, Control_c, 0, 64, 70
2,142694, Control_c, 0, 64, 77
2,142714, Control_c, 0, 64, 86
2,142732, Control_c, 0, 64, 98
2,142752, Control_c, 0, 64, 111
2,142757, Note_on_c, 0, 56, 66
2,142759, Note_on_c, 0, 72, 73
2,142769, Note_on_c, 0, 74, 0
2,142771, Control_c, 0, 64, 119
2,142791, Control_c, 0, 64, 123
2,142795, Note_on_c, 0, 58, 0
2,142806, Note_on_c, 0, 72, 0
2,142809, Control_c, 0, 64, 127
2,142944, Control_c, 0, 64, 96
2,142963, Control_c, 0, 64, 75
2,142983, Control_c, 0, 64, 62
2,142988, Note_on_c, 0, 56, 0
2,142999, Note_on_c, 0, 55, 59
2,143002, Control_c, 0, 64, 60
2,143018, Note_on_c, 0, 63, 68
2,143021, Control_c, 0, 64, 63
2,143021, Note_on_c, 0, 70, 71
2,143040, Control_c, 0, 64, 66
2,143060, Control_c, 0, 64, 71
2,143078, Control_c, 0, 64, 84
2,143097, Control_c, 0, 64, 127
2,143107, Note_on_c, 0, 63, 0
2,143246, Note_on_c, 0, 60, 61
2,143366, Control_c, 0, 64, 123
2,143386, Control_c, 0, 64, 95
2,143405, Control_c, 0, 64, 79
2,143421, Note_on_c, 0, 60, 0
2,143425, Control_c, 0, 64, 69
2,143433, Note_on_c, 0, 46, 52
2,143444, Control_c, 0, 64, 62
2,143446, Note_on_c, 0, 62, 56
2,143464, Control_c, 0, 64, 57
2,143482, Control_c, 0, 64, 55
2,143502, Control_c, 0, 64, 52
2,143521, Control_c, 0, 64, 44
2,143541, Control_c, 0, 64, 30
2,143559, Control_c, 0, 64, 9
2,143578, Control_c, 0, 64, 0
2,143605, Note_on_c, 0, 48, 57
2,143616, Note_on_c, 0, 55, 0
2,143632, Note_on_c, 0, 62, 0
2,143653, Note_on_c, 0, 63, 57
2,143696, Note_on_c, 0, 46, 0
2,143879, Note_on_c, 0, 56, 76
2,143880, Note_on_c, 0, 50, 62
2,143902, Note_on_c, 0, 65, 62
2,143917, Note_on_c, 0, 48, 0
2,143922, Note_on_c, 0, 63, 0
2,143951, Note_on_c, 0, 70, 0
2,144088, Note_on_c, 0, 63, 60
2,144263, Note_on_c, 0, 65, 0
2,144294, Note_on_c, 0, 48, 57
2,144295, Note_on_c, 0, 50, 0
2,144323, Note_on_c, 0, 62, 65
2,144330, Note_on_c, 0, 63, 0
2,144518, Note_on_c, 0, 50, 54
2,144520, Note_on_c, 0, 48, 0
2,144525, Note_on_c, 0, 62, 0
2,144532, Note_on_c, 0, 60, 63
2,144535, Note_on_c, 0, 56, 0
2,144677, Note_on_c, 0, 60, 0
2,144734, Note_on_c, 0, 51, 63
2,144738, Note_on_c, 0, 55, 65
2,144754, Note_on_c, 0, 58, 64
2,144849, Note_on_c, 0, 50, 0
2,144896, Note_on_c, 0, 51, 0
2,144952, Note_on_c, 0, 68, 75
2,145088, Note_on_c, 0, 68, 0
2,145172, Note_on_c, 0, 51, 58
2,145187, Note_on_c, 0, 67, 71
2,145195, Note_on_c, 0, 58, 0
2,145398, Note_on_c, 0, 50, 59
2,145406, Note_on_c, 0, 65, 73
2,145431, Note_on_c, 0, 67, 0
2,145446, Note_on_c, 0, 55, 0
2,145477, Note_on_c, 0, 51, 0
2,145734, Note_on_c, 0, 54, 55
2,145744, Note_on_c, 0, 48, 49
2,145749, Note_on_c, 0, 50, 0
2,145795, Note_on_c, 0, 63, 67
2,145800, Note_on_c, 0, 65, 0
2,146034, Note_on_c, 0, 48, 0
2,146238, Note_on_c, 0, 48, 38
2,146270, Note_on_c, 0, 57, 50
2,146418, Note_on_c, 0, 48, 0
2,146465, Note_on_c, 0, 46, 38
2,146492, Note_on_c, 0, 58, 55
2,146503, Note_on_c, 0, 57, 0
2,146595, Note_on_c, 0, 54, 0
2,146752, Note_on_c, 0, 46, 0
2,146756, Note_on_c, 0, 58, 0
2,146767, Note_on_c, 0, 63, 0
2,146773, Note_on_c, 0, 53, 58
2,146774, Note_on_c, 0, 45, 51
2,146786, Note_on_c, 0, 60, 59
2,147004, Note_on_c, 0, 63, 60
2,147144, Note_on_c, 0, 45, 0
2,147170, Control_c, 0, 64, 17
2,147189, Control_c, 0, 64, 28
2,147203, Note_on_c, 0, 63, 0
2,147207, Note_on_c, 0, 65, 57
2,147208, Control_c, 0, 64, 35
2,147228, Control_c, 0, 64, 41
2,147247, Control_c, 0, 64, 45
2,147266, Control_c, 0, 64, 46
2,147285, Control_c, 0, 64, 47
2,147305, Control_c, 0, 64, 47
2,147382, Control_c, 0, 64, 48
2,147382, Note_on_c, 0, 60, 0
2,147411, Note_on_c, 0, 63, 59
2,147418, Note_on_c, 0, 65, 0
2,147439, Control_c, 0, 64, 47
2,147457, Control_c, 0, 64, 46
2,147476, Control_c, 0, 64, 46
2,147495, Control_c, 0, 64, 45
2,147515, Control_c, 0, 64, 45
2,147533, Control_c, 0, 64, 44
2,147606, Note_on_c, 0, 46, 46
2,147607, Note_on_c, 0, 63, 0
2,147618, Note_on_c, 0, 58, 44
2,147630, Control_c, 0, 64, 44
2,147637, Note_on_c, 0, 62, 54
2,147649, Control_c, 0, 64, 43
2,147668, Control_c, 0, 64, 42
2,147687, Control_c, 0, 64, 41
2,147707, Control_c, 0, 64, 41
2,147726, Control_c, 0, 64, 40
2,147745, Control_c, 0, 64, 38
2,147764, Control_c, 0, 64, 37
2,147784, Control_c, 0, 64, 36
2,147822, Control_c, 0, 64, 35
2,147832, Note_on_c, 0, 72, 67
2,147841, Control_c, 0, 64, 34
2,147861, Control_c, 0, 64, 32
2,147879, Control_c, 0, 64, 29
2,147898, Control_c, 0, 64, 27
2,147918, Control_c, 0, 64, 21
2,147936, Control_c, 0, 64, 13
2,147956, Control_c, 0, 64, 0
2,148037, Note_on_c, 0, 70, 69
2,148087, Note_on_c, 0, 72, 0
2,148254, Note_on_c, 0, 68, 68
2,148307, Note_on_c, 0, 70, 0
2,148505, Note_on_c, 0, 51, 40
2,148522, Note_on_c, 0, 67, 50
2,148526, Note_on_c, 0, 62, 0
2,148534, Note_on_c, 0, 68, 0
2,148549, Note_on_c, 0, 46, 0
2,148582, Note_on_c, 0, 53, 0
2,148717, Note_on_c, 0, 67, 0
2,148978, Note_on_c, 0, 70, 70
2,148999, Note_on_c, 0, 63, 53
2,149123, Note_on_c, 0, 63, 0
2,149165, Note_on_c, 0, 70, 0
2,149187, Note_on_c, 0, 65, 66
2,149290, Note_on_c, 0, 65, 0
2,149418, Note_on_c, 0, 58, 0
2,149427, Note_on_c, 0, 75, 81
2,149449, Note_on_c, 0, 67, 61
2,149491, Note_on_c, 0, 51, 0
2,149632, Note_on_c, 0, 67, 0
2,149882, Note_on_c, 0, 51, 46
2,149890, Note_on_c, 0, 67, 49
2,150081, Note_on_c, 0, 51, 0
2,150085, Note_on_c, 0, 53, 48
2,150087, Note_on_c, 0, 67, 0
2,150090, Note_on_c, 0, 68, 67
2,150102, Note_on_c, 0, 75, 0
2,150206, Note_on_c, 0, 68, 0
2,150316, Note_on_c, 0, 53, 0
2,150320, Note_on_c, 0, 70, 65
2,150321, Note_on_c, 0, 55, 46
2,150490, Note_on_c, 0, 55, 0
2,150532, Note_on_c, 0, 79, 85
2,150741, Note_on_c, 0, 77, 79
2,150745, Note_on_c, 0, 55, 50
2,150751, Note_on_c, 0, 58, 54
2,150772, Note_on_c, 0, 79, 0
2,150816, Control_c, 0, 64, 32
2,150835, Control_c, 0, 64, 57
2,150854, Control_c, 0, 64, 65
2,150874, Control_c, 0, 64, 68
2,150892, Control_c, 0, 64, 72
2,150912, Control_c, 0, 64, 76
2,150931, Control_c, 0, 64, 82
2,150944, Note_on_c, 0, 56, 51
2,150945, Note_on_c, 0, 75, 80
2,150951, Control_c, 0, 64, 87
2,150968, Note_on_c, 0, 60, 60
2,150969, Control_c, 0, 64, 90
2,150989, Control_c, 0, 64, 91
2,150989, Note_on_c, 0, 77, 0
2,151002, Note_on_c, 0, 58, 0
2,151008, Control_c, 0, 64, 92
2,151025, Note_on_c, 0, 70, 0
2,151027, Control_c, 0, 64, 93
2,151044, Note_on_c, 0, 55, 0
2,151046, Control_c, 0, 64, 95
2,151046, Note_on_c, 0, 75, 0
2,151066, Control_c, 0, 64, 97
2,151085, Control_c, 0, 64, 102
2,151106, Control_c, 0, 64, 107
2,151125, Control_c, 0, 64, 109
2,151145, Control_c, 0, 64, 100
2,151147, Note_on_c, 0, 60, 0
2,151147, Note_on_c, 0, 62, 50
2,151162, Note_on_c, 0, 58, 54
2,151163, Control_c, 0, 64, 83
2,151182, Note_on_c, 0, 74, 79
2,151183, Control_c, 0, 64, 68
2,151202, Control_c, 0, 64, 49
2,151222, Control_c, 0, 64, 38
2,151240, Control_c, 0, 64, 52
2,151259, Control_c, 0, 64, 61
2,151279, Control_c, 0, 64, 67
2,151297, Control_c, 0, 64, 76
2,151316, Control_c, 0, 64, 96
2,151335, Control_c, 0, 64, 127
2,151381, Note_on_c, 0, 56, 0
2,151387, Note_on_c, 0, 60, 58
2,151393, Note_on_c, 0, 62, 0
2,151408, Note_on_c, 0, 58, 0
2,151409, Note_on_c, 0, 68, 77
2,151425, Note_on_c, 0, 60, 0
2,151508, Control_c, 0, 64, 94
2,151527, Control_c, 0, 64, 71
2,151547, Control_c, 0, 64, 58
2,151566, Control_c, 0, 64, 57
2,151585, Control_c, 0, 64, 63
2,151604, Control_c, 0, 64, 68
2,151604, Note_on_c, 0, 58, 61
2,151604, Note_on_c, 0, 67, 76
2,151604, Note_on_c, 0, 68, 0
2,151624, Control_c, 0, 64, 79
2,151624, Note_on_c, 0, 46, 49
2,151642, Control_c, 0, 64, 102
2,151662, Control_c, 0, 64, 118
2,151690, Note_on_c, 0, 58, 0
2,151701, Control_c, 0, 64, 113
2,151719, Control_c, 0, 64, 107
2,151738, Control_c, 0, 64, 101
2,151758, Control_c, 0, 64, 97
2,151776, Control_c, 0, 64, 94
2,151796, Control_c, 0, 64, 91
2,151807, Note_on_c, 0, 65, 75
2,151808, Note_on_c, 0, 56, 68
2,151815, Control_c, 0, 64, 89
2,151825, Note_on_c, 0, 67, 0
2,151835, Control_c, 0, 64, 87
2,151853, Note_on_c, 0, 65, 0
2,151873, Control_c, 0, 64, 88
2,151892, Control_c, 0, 64, 89
2,151912, Control_c, 0, 64, 91
2,151930, Control_c, 0, 64, 91
2,151950, Control_c, 0, 64, 91
2,151952, Note_on_c, 0, 56, 0
2,151969, Control_c, 0, 64, 86
2,151983, Note_on_c, 0, 46, 0
2,151988, Control_c, 0, 64, 75
2,152007, Control_c, 0, 64, 64
2,152007, Note_on_c, 0, 55, 58
2,152016, Note_on_c, 0, 48, 54
2,152017, Note_on_c, 0, 63, 66
2,152027, Control_c, 0, 64, 27
2,152046, Control_c, 0, 64, 0
2,152137, Note_on_c, 0, 74, 0
2,152139, Note_on_c, 0, 63, 0
2,152230, Note_on_c, 0, 62, 62
2,152457, Note_on_c, 0, 62, 0
2,152470, Note_on_c, 0, 67, 49
2,152471, Note_on_c, 0, 60, 52
2,152553, Note_on_c, 0, 60, 0
2,152571, Note_on_c, 0, 67, 0
2,152658, Note_on_c, 0, 62, 47
2,152902, Note_on_c, 0, 72, 58
2,152924, Note_on_c, 0, 63, 43
2,152930, Note_on_c, 0, 62, 0
2,152947, Note_on_c, 0, 55, 0
2,152952, Note_on_c, 0, 48, 0
2,153113, Note_on_c, 0, 63, 0
2,153345, Note_on_c, 0, 48, 34
2,153362, Note_on_c, 0, 63, 41
2,153497, Note_on_c, 0, 72, 0
2,153537, Note_on_c, 0, 63, 0
2,153558, Note_on_c, 0, 50, 46
2,153559, Note_on_c, 0, 65, 46
2,153584, Note_on_c, 0, 48, 0
2,153708, Note_on_c, 0, 65, 0
2,153727, Note_on_c, 0, 50, 0
2,153765, Note_on_c, 0, 51, 44
2,153776, Note_on_c, 0, 67, 50
2,153900, Note_on_c, 0, 51, 0
2,153974, Note_on_c, 0, 75, 59
2,154192, Note_on_c, 0, 75, 0
2,154201, Note_on_c, 0, 51, 38
2,154207, Note_on_c, 0, 55, 44
2,154211, Note_on_c, 0, 74, 56
2,154235, Control_c, 0, 64, 44
2,154253, Control_c, 0, 64, 60
2,154273, Control_c, 0, 64, 64
2,154292, Control_c, 0, 64, 66
2,154312, Control_c, 0, 64, 68
2,154330, Control_c, 0, 64, 72
2,154350, Control_c, 0, 64, 81
2,154369, Control_c, 0, 64, 95
2,154388, Control_c, 0, 64, 127
2,154391, Note_on_c, 0, 74, 0
2,154393, Note_on_c, 0, 51, 0
2,154393, Note_on_c, 0, 72, 65
2,154402, Note_on_c, 0, 53, 50
2,154430, Note_on_c, 0, 56, 56
2,154432, Note_on_c, 0, 55, 0
2,154436, Note_on_c, 0, 72, 0
2,154597, Note_on_c, 0, 56, 0
2,154599, Control_c, 0, 64, 97
2,154618, Control_c, 0, 64, 78
2,154618, Note_on_c, 0, 58, 50
2,154632, Note_on_c, 0, 70, 60
2,154638, Control_c, 0, 64, 66
2,154643, Note_on_c, 0, 67, 0
2,154656, Control_c, 0, 64, 58
2,154657, Note_on_c, 0, 55, 37
2,154676, Control_c, 0, 64, 59
2,154695, Control_c, 0, 64, 62
2,154715, Control_c, 0, 64, 64
2,154733, Control_c, 0, 64, 68
2,154747, Note_on_c, 0, 53, 0
2,154753, Control_c, 0, 64, 74
2,154772, Control_c, 0, 64, 87
2,154790, Note_on_c, 0, 58, 0
2,154792, Control_c, 0, 64, 109
2,154809, Note_on_c, 0, 55, 0
2,154810, Control_c, 0, 64, 127
2,154822, Note_on_c, 0, 65, 59
2,154845, Note_on_c, 0, 56, 51
2,154881, Note_on_c, 0, 56, 0
2,155002, Control_c, 0, 64, 92
2,155022, Control_c, 0, 64, 71
2,155041, Control_c, 0, 64, 61
2,155048, Note_on_c, 0, 55, 52
2,155049, Note_on_c, 0, 63, 63
2,155050, Note_on_c, 0, 43, 55
2,155060, Control_c, 0, 64, 61
2,155079, Control_c, 0, 64, 64
2,155098, Control_c, 0, 64, 67
2,155113, Note_on_c, 0, 55, 0
2,155118, Control_c, 0, 64, 73
2,155136, Control_c, 0, 64, 85
2,155156, Control_c, 0, 64, 102
2,155175, Control_c, 0, 64, 116
2,155213, Control_c, 0, 64, 115
2,155233, Control_c, 0, 64, 112
2,155252, Control_c, 0, 64, 109
2,155254, Note_on_c, 0, 61, 64
2,155263, Note_on_c, 0, 55, 40
2,155272, Control_c, 0, 64, 107
2,155287, Note_on_c, 0, 53, 28
2,155290, Control_c, 0, 64, 107
2,155306, Note_on_c, 0, 43, 0
2,155310, Control_c, 0, 64, 105
2,155314, Note_on_c, 0, 55, 0
2,155329, Control_c, 0, 64, 105
2,155333, Note_on_c, 0, 53, 0
2,155377, Note_on_c, 0, 61, 0
2,155391, Note_on_c, 0, 70, 0
2,155405, Note_on_c, 0, 65, 0
2,155406, Control_c, 0, 64, 104
2,155425, Control_c, 0, 64, 102
2,155436, Note_on_c, 0, 63, 0
2,155444, Control_c, 0, 64, 97
2,155464, Control_c, 0, 64, 90
2,155469, Note_on_c, 0, 51, 63
2,155469, Note_on_c, 0, 60, 67
2,155481, Note_on_c, 0, 44, 59
2,155482, Control_c, 0, 64, 83
2,155502, Control_c, 0, 64, 76
2,155521, Control_c, 0, 64, 69
2,155540, Control_c, 0, 64, 62
2,155559, Control_c, 0, 64, 54
2,155578, Control_c, 0, 64, 47
2,155598, Control_c, 0, 64, 43
2,155616, Control_c, 0, 64, 36
2,155636, Control_c, 0, 64, 0
2,155662, Note_on_c, 0, 60, 0
2,155668, Note_on_c, 0, 58, 69
2,155885, Note_on_c, 0, 58, 0
2,155885, Note_on_c, 0, 63, 76
2,155898, Note_on_c, 0, 56, 71
2,156079, Note_on_c, 0, 58, 75
2,156104, Note_on_c, 0, 56, 0
2,156115, Note_on_c, 0, 63, 0
2,156162, Note_on_c, 0, 58, 0
2,156344, Note_on_c, 0, 68, 79
2,156363, Note_on_c, 0, 60, 65
2,156459, Note_on_c, 0, 51, 0
2,156523, Note_on_c, 0, 44, 0
2,156597, Note_on_c, 0, 60, 0
2,156784, Note_on_c, 0, 44, 54
2,156788, Note_on_c, 0, 60, 61
2,156986, Note_on_c, 0, 46, 59
2,156991, Note_on_c, 0, 62, 69
2,157038, Note_on_c, 0, 60, 0
2,157046, Note_on_c, 0, 68, 0
2,157088, Note_on_c, 0, 62, 0
2,157201, Note_on_c, 0, 63, 70
2,157207, Note_on_c, 0, 48, 57
2,157300, Note_on_c, 0, 44, 0
2,157318, Note_on_c, 0, 46, 0
2,157381, Note_on_c, 0, 48, 0
2,157411, Note_on_c, 0, 72, 81
2,157631, Note_on_c, 0, 70, 82
2,157633, Note_on_c, 0, 51, 58
2,157639, Note_on_c, 0, 48, 56
2,157669, Note_on_c, 0, 72, 0
2,157706, Control_c, 0, 64, 22
2,157725, Control_c, 0, 64, 53
2,157744, Control_c, 0, 64, 62
2,157763, Control_c, 0, 64, 65
2,157783, Control_c, 0, 64, 69
2,157802, Control_c, 0, 64, 79
2,157821, Control_c, 0, 64, 105
2,157831, Note_on_c, 0, 68, 84
2,157832, Note_on_c, 0, 53, 70
2,157834, Note_on_c, 0, 50, 61
2,157840, Control_c, 0, 64, 127
2,157847, Note_on_c, 0, 51, 0
2,157864, Note_on_c, 0, 48, 0
2,157866, Note_on_c, 0, 63, 0
2,157873, Note_on_c, 0, 70, 0
2,157904, Note_on_c, 0, 68, 0
2,158050, Note_on_c, 0, 55, 61
2,158060, Note_on_c, 0, 51, 62
2,158066, Note_on_c, 0, 53, 0
2,158078, Note_on_c, 0, 67, 86
2,158095, Control_c, 0, 64, 90
2,158115, Control_c, 0, 64, 69
2,158115, Note_on_c, 0, 50, 0
2,158134, Control_c, 0, 64, 51
2,158154, Control_c, 0, 64, 9
2,158172, Control_c, 0, 64, 41
2,158191, Control_c, 0, 64, 57
2,158211, Control_c, 0, 64, 64
2,158229, Control_c, 0, 64, 73
2,158249, Control_c, 0, 64, 105
2,158268, Control_c, 0, 64, 127
2,158283, Note_on_c, 0, 53, 73
2,158292, Note_on_c, 0, 55, 0
2,158303, Note_on_c, 0, 62, 74
2,158320, Note_on_c, 0, 51, 0
2,158329, Note_on_c, 0, 53, 0
2,158440, Note_on_c, 0, 67, 0
2,158460, Control_c, 0, 64, 94
2,158480, Control_c, 0, 64, 72
2,158494, Note_on_c, 0, 51, 73
2,158496, Note_on_c, 0, 62, 0
2,158499, Control_c, 0, 64, 63
2,158514, Note_on_c, 0, 39, 67
2,158517, Note_on_c, 0, 60, 72
2,158518, Control_c, 0, 64, 65
2,158537, Control_c, 0, 64, 69
2,158557, Control_c, 0, 64, 80
2,158575, Control_c, 0, 64, 118
2,158595, Control_c, 0, 64, 127
2,158642, Note_on_c, 0, 51, 0
2,158692, Note_on_c, 0, 50, 77
2,158703, Note_on_c, 0, 39, 0
2,158707, Note_on_c, 0, 58, 78
2,158709, Note_on_c, 0, 60, 0
2,158843, Note_on_c, 0, 58, 0
2,158917, Note_on_c, 0, 41, 72
2,158920, Note_on_c, 0, 56, 71
2,158922, Note_on_c, 0, 48, 76
2,158928, Control_c, 0, 64, 101
2,158947, Control_c, 0, 64, 68
2,158964, Note_on_c, 0, 50, 0
2,158966, Control_c, 0, 64, 0
2,159055, Control_c, 0, 64, 35
2,159075, Control_c, 0, 64, 60
2,159076, Note_on_c, 0, 41, 0
2,159094, Control_c, 0, 64, 67
2,159114, Control_c, 0, 64, 74
2,159130, Note_on_c, 0, 65, 75
2,159132, Control_c, 0, 64, 86
2,159151, Control_c, 0, 64, 102
2,159171, Control_c, 0, 64, 127
2,159305, Control_c, 0, 64, 118
2,159325, Control_c, 0, 64, 79
2,159326, Note_on_c, 0, 48, 0
2,159335, Note_on_c, 0, 43, 74
2,159342, Note_on_c, 0, 50, 77
2,159343, Control_c, 0, 64, 60
2,159352, Note_on_c, 0, 68, 86
2,159357, Note_on_c, 0, 47, 59
2,159363, Control_c, 0, 64, 0
2,159382, Control_c, 0, 64, 46
2,159401, Control_c, 0, 64, 64
2,159420, Control_c, 0, 64, 73
2,159440, Control_c, 0, 64, 100
2,159459, Control_c, 0, 64, 127
2,159510, Note_on_c, 0, 68, 0
2,159520, Note_on_c, 0, 43, 0
2,159537, Note_on_c, 0, 51, 74
2,159540, Note_on_c, 0, 47, 0
2,159551, Note_on_c, 0, 56, 0
2,159556, Note_on_c, 0, 50, 0
2,159565, Note_on_c, 0, 67, 81
2,159635, Note_on_c, 0, 65, 0
2,159754, Note_on_c, 0, 51, 0
2,159763, Note_on_c, 0, 44, 75
2,159773, Note_on_c, 0, 53, 86
2,159777, Note_on_c, 0, 48, 65
2,159781, Note_on_c, 0, 65, 74
2,159785, Control_c, 0, 64, 85
2,159805, Control_c, 0, 64, 63
2,159823, Control_c, 0, 64, 0
2,159823, Note_on_c, 0, 67, 0
2,159900, Control_c, 0, 64, 35
2,159920, Control_c, 0, 64, 60
2,159939, Control_c, 0, 64, 69
2,159958, Control_c, 0, 64, 86
2,159964, Note_on_c, 0, 44, 0
2,159977, Control_c, 0, 64, 127
2,159979, Note_on_c, 0, 53, 0
2,160000, Note_on_c, 0, 63, 81
2,160135, Note_on_c, 0, 65, 0
2,160229, Note_on_c, 0, 63, 0
2,160236, Note_on_c, 0, 54, 89
2,160240, Note_on_c, 0, 45, 68
2,160240, Note_on_c, 0, 62, 74
2,160246, Control_c, 0, 64, 106
2,160265, Control_c, 0, 64, 75
2,160285, Control_c, 0, 64, 51
2,160302, Control_c, 0, 64, 0
2,160397, Control_c, 0, 64, 13
2,160416, Control_c, 0, 64, 57
2,160435, Control_c, 0, 64, 71
2,160446, Note_on_c, 0, 45, 0
2,160454, Control_c, 0, 64, 92
2,160465, Note_on_c, 0, 60, 87
2,160467, Note_on_c, 0, 48, 0
2,160474, Control_c, 0, 64, 127
2,160510, Note_on_c, 0, 54, 0
2,160513, Note_on_c, 0, 62, 0
2,160800, Control_c, 0, 64, 100
2,160819, Control_c, 0, 64, 70
2,160819, Note_on_c, 0, 55, 69
2,160820, Note_on_c, 0, 50, 63
2,160824, Note_on_c, 0, 43, 66
2,160825, Note_on_c, 0, 59, 82
2,160838, Control_c, 0, 64, 0
2,160840, Note_on_c, 0, 60, 0
2,160972, Control_c, 0, 64, 49
2,160984, Note_on_c, 0, 43, 0
2,160991, Control_c, 0, 64, 67
2,160998, Note_on_c, 0, 50, 0
2,161010, Control_c, 0, 64, 78
2,161030, Control_c, 0, 64, 127
2,161043, Note_on_c, 0, 55, 0
2,161065, Note_on_c, 0, 59, 0
2,161317, Control_c, 0, 64, 108
2,161336, Control_c, 0, 64, 97
2,161344, Note_on_c, 0, 55, 71
2,161356, Control_c, 0, 64, 89
2,161375, Control_c, 0, 64, 81
2,161394, Control_c, 0, 64, 74
2,161413, Control_c, 0, 64, 65
2,161433, Control_c, 0, 64, 56
2,161452, Control_c, 0, 64, 44
2,161471, Control_c, 0, 64, 35
2,161490, Control_c, 0, 64, 21
2,161510, Control_c, 0, 64, 0
2,161538, Note_on_c, 0, 57, 69
2,161595, Note_on_c, 0, 55, 0
2,161796, Note_on_c, 0, 59, 53
2,161827, Note_on_c, 0, 57, 0
2,161835, Note_on_c, 0, 79, 87
2,162214, Note_on_c, 0, 59, 0
2,162276, Note_on_c, 0, 57, 53
2,162472, Note_on_c, 0, 59, 60
2,162478, Note_on_c, 0, 57, 0
2,162670, Note_on_c, 0, 59, 0
2,162691, Note_on_c, 0, 80, 84
2,162701, Note_on_c, 0, 60, 48
2,162736, Note_on_c, 0, 79, 0
2,162910, Note_on_c, 0, 60, 0
2,162921, Note_on_c, 0, 59, 50
2,163117, Note_on_c, 0, 60, 40
2,163129, Note_on_c, 0, 72, 61
2,163136, Note_on_c, 0, 59, 0
2,163282, Note_on_c, 0, 60, 0
2,163321, Note_on_c, 0, 62, 57
2,163378, Note_on_c, 0, 80, 0
2,163552, Note_on_c, 0, 79, 81
2,163565, Note_on_c, 0, 63, 51
2,163609, Note_on_c, 0, 72, 0
2,163649, Note_on_c, 0, 62, 0
2,164014, Note_on_c, 0, 70, 58
2,164082, Note_on_c, 0, 79, 0
2,164433, Note_on_c, 0, 78, 73
2,164435, Note_on_c, 0, 69, 49
2,164449, Note_on_c, 0, 63, 0
2,164488, Note_on_c, 0, 70, 0
2,164645, Note_on_c, 0, 60, 50
2,164813, Note_on_c, 0, 69, 0
2,164859, Note_on_c, 0, 70, 64
2,164886, Note_on_c, 0, 62, 44
2,164987, Control_c, 0, 64, 13
2,165002, Note_on_c, 0, 78, 0
2,165006, Control_c, 0, 64, 23
2,165020, Note_on_c, 0, 60, 0
2,165025, Control_c, 0, 64, 29
2,165044, Control_c, 0, 64, 32
2,165053, Note_on_c, 0, 70, 0
2,165056, Note_on_c, 0, 63, 55
2,165064, Control_c, 0, 64, 35
2,165065, Note_on_c, 0, 72, 69
2,165082, Control_c, 0, 64, 36
2,165088, Note_on_c, 0, 62, 0
2,165101, Control_c, 0, 64, 37
2,165188, Note_on_c, 0, 72, 0
2,165237, Note_on_c, 0, 63, 0
2,165247, Note_on_c, 0, 65, 49
2,165275, Control_c, 0, 64, 37
2,165286, Note_on_c, 0, 83, 80
2,165294, Note_on_c, 0, 74, 51
2,165332, Control_c, 0, 64, 36
2,165498, Note_on_c, 0, 74, 0
2,165499, Note_on_c, 0, 72, 63
2,165711, Note_on_c, 0, 71, 52
2,165714, Control_c, 0, 64, 36
2,165791, Control_c, 0, 64, 35
2,165872, Note_on_c, 0, 71, 0
2,165902, Note_on_c, 0, 69, 57
2,166018, Note_on_c, 0, 65, 0
2,166085, Note_on_c, 0, 69, 0
2,166130, Note_on_c, 0, 67, 49
2,166138, Note_on_c, 0, 84, 87
2,166184, Note_on_c, 0, 72, 0
2,166213, Note_on_c, 0, 83, 0
2,166360, Note_on_c, 0, 63, 53
2,166424, Note_on_c, 0, 67, 0
2,166425, Control_c, 0, 64, 36
2,166444, Control_c, 0, 64, 38
2,166462, Control_c, 0, 64, 42
2,166482, Control_c, 0, 64, 51
2,166501, Control_c, 0, 64, 62
2,166521, Control_c, 0, 64, 66
2,166539, Control_c, 0, 64, 69
2,166547, Note_on_c, 0, 84, 0
2,166559, Control_c, 0, 64, 72
2,166575, Note_on_c, 0, 65, 52
2,166578, Control_c, 0, 64, 76
2,166597, Control_c, 0, 64, 82
2,166616, Control_c, 0, 64, 87
2,166636, Control_c, 0, 64, 89
2,166693, Control_c, 0, 64, 88
2,166713, Control_c, 0, 64, 86
2,166732, Control_c, 0, 64, 84
2,166751, Control_c, 0, 64, 80
2,166769, Note_on_c, 0, 65, 0
2,166770, Control_c, 0, 64, 77
2,166777, Note_on_c, 0, 67, 59
2,166778, Note_on_c, 0, 63, 0
2,166790, Control_c, 0, 64, 73
2,166808, Control_c, 0, 64, 69
2,166828, Control_c, 0, 64, 65
2,166847, Control_c, 0, 64, 62
2,166867, Control_c, 0, 64, 60
2,166885, Control_c, 0, 64, 59
2,166905, Control_c, 0, 64, 58
2,166924, Control_c, 0, 64, 55
2,166942, Control_c, 0, 64, 50
2,166962, Control_c, 0, 64, 41
2,166981, Control_c, 0, 64, 17
2,167001, Control_c, 0, 64, 0
2,167009, Note_on_c, 0, 77, 71
2,167026, Note_on_c, 0, 68, 57
2,167080, Note_on_c, 0, 67, 0
2,167225, Note_on_c, 0, 55, 47
2,167450, Note_on_c, 0, 56, 51
2,167509, Note_on_c, 0, 68, 0
2,167512, Note_on_c, 0, 55, 0
2,167644, Note_on_c, 0, 58, 50
2,167688, Note_on_c, 0, 56, 0
2,167863, Note_on_c, 0, 58, 0
2,167873, Note_on_c, 0, 60, 45
2,167879, Note_on_c, 0, 76, 67
2,167915, Note_on_c, 0, 77, 0
2,168098, Note_on_c, 0, 67, 48
2,168281, Note_on_c, 0, 67, 0
2,168304, Note_on_c, 0, 69, 56
2,168457, Note_on_c, 0, 69, 0
2,168503, Note_on_c, 0, 71, 57
2,168616, Note_on_c, 0, 60, 0
2,168724, Note_on_c, 0, 75, 58
2,168738, Note_on_c, 0, 72, 51
2,168765, Note_on_c, 0, 71, 0
2,168774, Note_on_c, 0, 76, 0
2,168918, Note_on_c, 0, 60, 42
2,169099, Note_on_c, 0, 60, 0
2,169134, Note_on_c, 0, 62, 48
2,169329, Note_on_c, 0, 62, 0
2,169338, Note_on_c, 0, 63, 50
2,169374, Note_on_c, 0, 75, 0
2,169521, Note_on_c, 0, 63, 0
2,169545, Note_on_c, 0, 65, 42
2,169567, Note_on_c, 0, 74, 66
2,169610, Note_on_c, 0, 72, 0
2,169774, Note_on_c, 0, 65, 0
2,169804, Note_on_c, 0, 62, 37
2,169992, Note_on_c, 0, 71, 50
2,170011, Note_on_c, 0, 63, 45
2,170042, Note_on_c, 0, 62, 0
2,170171, Note_on_c, 0, 71, 0
2,170193, Note_on_c, 0, 63, 0
2,170195, Note_on_c, 0, 69, 51
2,170207, Note_on_c, 0, 65, 42
2,170377, Note_on_c, 0, 65, 0
2,170417, Note_on_c, 0, 71, 58
2,170434, Note_on_c, 0, 67, 36
2,170456, Note_on_c, 0, 69, 0
2,170607, Note_on_c, 0, 67, 0
2,170617, Note_on_c, 0, 71, 0
2,170630, Note_on_c, 0, 72, 53
2,170634, Note_on_c, 0, 68, 48
2,170763, Note_on_c, 0, 68, 0
2,170763, Note_on_c, 0, 74, 0
2,170833, Note_on_c, 0, 67, 36
2,170851, Note_on_c, 0, 71, 56
2,170860, Note_on_c, 0, 72, 0
2,171020, Note_on_c, 0, 67, 0
2,171055, Note_on_c, 0, 65, 39
2,171057, Note_on_c, 0, 74, 52
2,171129, Note_on_c, 0, 71, 0
2,171240, Note_on_c, 0, 65, 0
2,171262, Note_on_c, 0, 63, 47
2,171269, Note_on_c, 0, 74, 0
2,171272, Note_on_c, 0, 67, 52
2,171428, Note_on_c, 0, 63, 0
2,171462, Note_on_c, 0, 65, 48
2,171698, Note_on_c, 0, 63, 47
2,171698, Note_on_c, 0, 72, 74
2,171719, Note_on_c, 0, 65, 0
2,171878, Note_on_c, 0, 63, 0
2,171889, Note_on_c, 0, 62, 50
2,171892, Note_on_c, 0, 74, 71
2,171951, Note_on_c, 0, 72, 0
2,172135, Note_on_c, 0, 60, 37
2,172146, Note_on_c, 0, 62, 0
2,172153, Note_on_c, 0, 75, 77
2,172195, Note_on_c, 0, 74, 0
2,172217, Note_on_c, 0, 67, 0
2,172323, Note_on_c, 0, 60, 0
2,172585, Note_on_c, 0, 67, 50
2,172590, Note_on_c, 0, 60, 44
2,172768, Note_on_c, 0, 60, 0
2,172792, Note_on_c, 0, 58, 47
2,172992, Note_on_c, 0, 58, 0
2,172993, Note_on_c, 0, 67, 0
2,173028, Note_on_c, 0, 57, 38
2,173038, Note_on_c, 0, 60, 37
2,173198, Note_on_c, 0, 57, 0
2,173470, Note_on_c, 0, 72, 53
2,173479, Note_on_c, 0, 57, 42
2,173538, Note_on_c, 0, 60, 0
2,173634, Note_on_c, 0, 57, 0
2,173673, Note_on_c, 0, 70, 55
2,173691, Note_on_c, 0, 55, 37
2,173700, Note_on_c, 0, 72, 0
2,173845, Note_on_c, 0, 55, 0
2,173908, Note_on_c, 0, 70, 0
2,173924, Note_on_c, 0, 69, 46
2,173926, Note_on_c, 0, 53, 34
2,174163, Note_on_c, 0, 69, 0
2,174318, Note_on_c, 0, 53, 0
2,174355, Note_on_c, 0, 55, 40
2,174355, Note_on_c, 0, 70, 58
2,174546, Note_on_c, 0, 70, 0
2,174550, Note_on_c, 0, 55, 0
2,174564, Note_on_c, 0, 72, 60
2,174565, Note_on_c, 0, 57, 48
2,174773, Note_on_c, 0, 57, 0
2,174780, Note_on_c, 0, 72, 0
2,174791, Note_on_c, 0, 58, 49
2,174802, Note_on_c, 0, 65, 58
2,174869, Control_c, 0, 64, 36
2,174888, Control_c, 0, 64, 61
2,174907, Control_c, 0, 64, 68
2,174926, Control_c, 0, 64, 75
2,174935, Note_on_c, 0, 58, 0
2,174946, Control_c, 0, 64, 86
2,174964, Control_c, 0, 64, 99
2,174984, Control_c, 0, 64, 121
2,175003, Control_c, 0, 64, 127
2,175009, Note_on_c, 0, 75, 0
2,175031, Note_on_c, 0, 65, 0
2,175215, Control_c, 0, 64, 118
2,175234, Control_c, 0, 64, 106
2,175240, Note_on_c, 0, 65, 43
2,175242, Note_on_c, 0, 74, 75
2,175247, Note_on_c, 0, 70, 71
2,175252, Control_c, 0, 64, 99
2,175272, Control_c, 0, 64, 93
2,175291, Control_c, 0, 64, 84
2,175311, Control_c, 0, 64, 73
2,175330, Control_c, 0, 64, 65
2,175350, Control_c, 0, 64, 60
2,175369, Control_c, 0, 64, 57
2,175407, Control_c, 0, 64, 56
2,175427, Control_c, 0, 64, 54
2,175444, Note_on_c, 0, 63, 56
2,175445, Control_c, 0, 64, 49
2,175448, Note_on_c, 0, 75, 82
2,175465, Control_c, 0, 64, 43
2,175465, Note_on_c, 0, 65, 0
2,175484, Control_c, 0, 64, 29
2,175504, Control_c, 0, 64, 0
2,175521, Note_on_c, 0, 74, 0
2,175662, Note_on_c, 0, 62, 45
2,175696, Note_on_c, 0, 77, 78
2,175711, Note_on_c, 0, 70, 0
2,175737, Note_on_c, 0, 75, 0
2,175744, Note_on_c, 0, 63, 0
2,175886, Note_on_c, 0, 62, 0
2,176142, Note_on_c, 0, 68, 60
2,176149, Note_on_c, 0, 62, 33
2,176366, Note_on_c, 0, 60, 41
2,176404, Note_on_c, 0, 62, 0
2,176568, Note_on_c, 0, 68, 0
2,176569, Note_on_c, 0, 67, 45
2,176594, Note_on_c, 0, 59, 40
2,176606, Note_on_c, 0, 60, 0
2,176824, Note_on_c, 0, 59, 0
2,176946, Note_on_c, 0, 67, 0
2,177026, Note_on_c, 0, 59, 37
2,177030, Note_on_c, 0, 74, 57
2,177233, Note_on_c, 0, 72, 56
2,177247, Note_on_c, 0, 57, 44
2,177274, Note_on_c, 0, 74, 0
2,177284, Note_on_c, 0, 59, 0
2,177439, Note_on_c, 0, 57, 0
2,177472, Note_on_c, 0, 55, 41
2,177479, Note_on_c, 0, 71, 51
2,177497, Note_on_c, 0, 72, 0
2,177772, Note_on_c, 0, 71, 0
2,177870, Note_on_c, 0, 55, 0
2,177886, Note_on_c, 0, 57, 46
2,177891, Note_on_c, 0, 72, 64
2,178086, Note_on_c, 0, 57, 0
2,178098, Note_on_c, 0, 59, 63
2,178102, Note_on_c, 0, 74, 65
2,178113, Note_on_c, 0, 72, 0
2,178199, Note_on_c, 0, 77, 0
2,178293, Note_on_c, 0, 59, 0
2,178304, Note_on_c, 0, 60, 59
2,178328, Note_on_c, 0, 67, 68
2,178328, Note_on_c, 0, 74, 0
2,178537, Note_on_c, 0, 74, 82
2,178742, Note_on_c, 0, 58, 61
2,178744, Note_on_c, 0, 76, 83
2,178799, Note_on_c, 0, 60, 0
2,178803, Note_on_c, 0, 74, 0
2,178928, Note_on_c, 0, 56, 56
2,178945, Note_on_c, 0, 79, 89
2,178967, Note_on_c, 0, 76, 0
2,178973, Note_on_c, 0, 67, 0
2,179075, Note_on_c, 0, 58, 0
2,179190, Note_on_c, 0, 56, 0
2,179207, Note_on_c, 0, 55, 53
2,179224, Note_on_c, 0, 79, 0
2,179244, Note_on_c, 0, 70, 76
2,179463, Note_on_c, 0, 55, 0
2,179733, Note_on_c, 0, 55, 38
2,179740, Note_on_c, 0, 61, 59
2,179951, Note_on_c, 0, 53, 39
2,179993, Note_on_c, 0, 55, 0
2,180068, Note_on_c, 0, 61, 0
2,180140, Note_on_c, 0, 60, 48
2,180157, Note_on_c, 0, 52, 40
2,180185, Note_on_c, 0, 53, 0
2,180452, Note_on_c, 0, 52, 0
2,180625, Note_on_c, 0, 60, 0
2,180632, Note_on_c, 0, 67, 43
2,180640, Note_on_c, 0, 52, 42
2,180778, Note_on_c, 0, 52, 0
2,180828, Note_on_c, 0, 65, 49
2,180832, Note_on_c, 0, 50, 40
2,180886, Note_on_c, 0, 67, 0
2,181009, Note_on_c, 0, 50, 0
2,181062, Note_on_c, 0, 48, 36
2,181069, Note_on_c, 0, 64, 51
2,181075, Note_on_c, 0, 65, 0
2,181333, Note_on_c, 0, 64, 0
2,181432, Note_on_c, 0, 48, 0
2,181486, Note_on_c, 0, 50, 43
2,181494, Note_on_c, 0, 65, 57
2,181686, Note_on_c, 0, 52, 51
2,181687, Note_on_c, 0, 67, 59
2,181690, Note_on_c, 0, 50, 0
2,181702, Note_on_c, 0, 65, 0
2,181909, Note_on_c, 0, 53, 61
2,181920, Note_on_c, 0, 67, 0
2,181923, Note_on_c, 0, 60, 67
2,181954, Control_c, 0, 64, 22
2,181972, Control_c, 0, 64, 51
2,181992, Control_c, 0, 64, 61
2,181996, Note_on_c, 0, 52, 0
2,182011, Control_c, 0, 64, 65
2,182030, Control_c, 0, 64, 68
2,182049, Control_c, 0, 64, 76
2,182069, Control_c, 0, 64, 89
2,182079, Note_on_c, 0, 53, 0
2,182080, Note_on_c, 0, 70, 0
2,182088, Control_c, 0, 64, 104
2,182100, Note_on_c, 0, 55, 76
2,182107, Control_c, 0, 64, 127
2,182230, Note_on_c, 0, 60, 0
2,182280, Control_c, 0, 64, 105
2,182300, Control_c, 0, 64, 77
2,182311, Note_on_c, 0, 56, 73
2,182318, Control_c, 0, 64, 50
2,182324, Note_on_c, 0, 68, 84
2,182329, Note_on_c, 0, 65, 73
2,182338, Control_c, 0, 64, 0
2,182343, Note_on_c, 0, 55, 0
2,182376, Control_c, 0, 64, 45
2,182395, Control_c, 0, 64, 64
2,182414, Control_c, 0, 64, 72
2,182434, Control_c, 0, 64, 87
2,182452, Control_c, 0, 64, 127
2,182524, Note_on_c, 0, 58, 78
2,182528, Note_on_c, 0, 56, 0
2,182563, Note_on_c, 0, 58, 0
2,182590, Note_on_c, 0, 68, 0
2,182907, Note_on_c, 0, 60, 75
2,182912, Note_on_c, 0, 67, 65
2,182913, Note_on_c, 0, 48, 70
2,182918, Control_c, 0, 64, 118
2,182938, Control_c, 0, 64, 107
2,182943, Note_on_c, 0, 65, 0
2,182957, Control_c, 0, 64, 98
2,182976, Control_c, 0, 64, 87
2,182991, Control_c, 0, 64, 76
2,183010, Control_c, 0, 64, 63
2,183030, Control_c, 0, 64, 0
2,183222, Control_c, 0, 64, 27
2,183241, Control_c, 0, 64, 49
2,183260, Control_c, 0, 64, 61
2,183279, Control_c, 0, 64, 67
2,183299, Control_c, 0, 64, 72
2,183301, Note_on_c, 0, 60, 0
2,183318, Control_c, 0, 64, 80
2,183337, Control_c, 0, 64, 93
2,183356, Control_c, 0, 64, 117
2,183376, Control_c, 0, 64, 127
2,183380, Note_on_c, 0, 64, 68
2,183804, Note_on_c, 0, 49, 84
2,183817, Control_c, 0, 64, 113
2,183818, Note_on_c, 0, 65, 60
2,183836, Control_c, 0, 64, 104
2,183849, Note_on_c, 0, 48, 0
2,183856, Control_c, 0, 64, 96
2,183857, Note_on_c, 0, 64, 0
2,183874, Control_c, 0, 64, 89
2,183893, Control_c, 0, 64, 79
2,183913, Control_c, 0, 64, 69
2,183932, Control_c, 0, 64, 58
2,183950, Note_on_c, 0, 67, 0
2,183951, Control_c, 0, 64, 0
2,184044, Note_on_c, 0, 64, 57
2,184050, Note_on_c, 0, 65, 0
2,184257, Note_on_c, 0, 58, 60
2,184262, Note_on_c, 0, 65, 53
2,184461, Note_on_c, 0, 67, 62
2,184663, Note_on_c, 0, 48, 73
2,184677, Note_on_c, 0, 65, 0
2,184686, Note_on_c, 0, 68, 67
2,184693, Note_on_c, 0, 58, 0
2,184712, Note_on_c, 0, 49, 0
2,184713, Note_on_c, 0, 67, 0
2,184719, Control_c, 0, 64, 9
2,184739, Control_c, 0, 64, 11
2,184828, Note_on_c, 0, 64, 0
2,184888, Note_on_c, 0, 67, 57
2,184892, Control_c, 0, 64, 13
2,184950, Control_c, 0, 64, 15
2,185097, Note_on_c, 0, 56, 62
2,185102, Note_on_c, 0, 67, 0
2,185110, Note_on_c, 0, 65, 54
2,185311, Note_on_c, 0, 63, 61
2,185312, Note_on_c, 0, 65, 0
2,185523, Note_on_c, 0, 47, 76
2,185531, Note_on_c, 0, 62, 63
2,185540, Note_on_c, 0, 56, 0
2,185546, Note_on_c, 0, 48, 0
2,185549, Note_on_c, 0, 63, 0
2,185602, Control_c, 0, 64, 11
2,185622, Control_c, 0, 64, 0
2,185748, Note_on_c, 0, 65, 63
2,185757, Note_on_c, 0, 68, 0
2,185946, Note_on_c, 0, 55, 65
2,185948, Note_on_c, 0, 47, 0
2,185960, Note_on_c, 0, 67, 72
2,186012, Note_on_c, 0, 65, 0
2,186149, Note_on_c, 0, 53, 69
2,186155, Note_on_c, 0, 68, 77
2,186162, Note_on_c, 0, 55, 0
2,186207, Note_on_c, 0, 67, 0
2,186361, Note_on_c, 0, 52, 54
2,186364, Note_on_c, 0, 53, 0
2,186368, Note_on_c, 0, 55, 53
2,186375, Note_on_c, 0, 70, 80
2,186419, Note_on_c, 0, 62, 0
2,186419, Note_on_c, 0, 68, 0
2,186570, Note_on_c, 0, 55, 0
2,186604, Note_on_c, 0, 58, 61
2,186800, Note_on_c, 0, 58, 0
2,186805, Note_on_c, 0, 56, 60
2,186809, Note_on_c, 0, 61, 72
2,186812, Control_c, 0, 64, 15
2,186831, Control_c, 0, 64, 24
2,186850, Control_c, 0, 64, 28
2,186870, Control_c, 0, 64, 30
2,186889, Control_c, 0, 64, 31
2,186908, Control_c, 0, 64, 32
2,186947, Control_c, 0, 64, 32
2,187013, Note_on_c, 0, 55, 62
2,187084, Note_on_c, 0, 56, 0
2,187108, Note_on_c, 0, 70, 0
2,187229, Note_on_c, 0, 53, 76
2,187253, Control_c, 0, 64, 32
2,187260, Note_on_c, 0, 52, 0
2,187279, Note_on_c, 0, 55, 0
2,187286, Note_on_c, 0, 61, 0
2,187292, Control_c, 0, 64, 31
2,187425, Note_on_c, 0, 68, 86
2,187465, Control_c, 0, 64, 29
2,187484, Control_c, 0, 64, 13
2,187504, Control_c, 0, 64, 0
2,187625, Note_on_c, 0, 55, 68
2,187642, Note_on_c, 0, 60, 66
2,187658, Note_on_c, 0, 70, 79
2,187676, Control_c, 0, 64, 29
2,187698, Control_c, 0, 64, 57
2,187703, Note_on_c, 0, 68, 0
2,187717, Control_c, 0, 64, 64
2,187736, Control_c, 0, 64, 67
2,187738, Note_on_c, 0, 60, 0
2,187756, Control_c, 0, 64, 70
2,187775, Control_c, 0, 64, 73
2,187794, Control_c, 0, 64, 77
2,187813, Control_c, 0, 64, 82
2,187831, Note_on_c, 0, 56, 74
2,187833, Control_c, 0, 64, 85
2,187837, Note_on_c, 0, 55, 0
2,187841, Note_on_c, 0, 70, 0
2,187847, Note_on_c, 0, 72, 82
2,187852, Control_c, 0, 64, 86
2,187861, Note_on_c, 0, 53, 0
2,187871, Control_c, 0, 64, 87
2,187889, Note_on_c, 0, 56, 0
2,187890, Control_c, 0, 64, 88
2,187910, Control_c, 0, 64, 88
2,188011, Control_c, 0, 64, 88
2,188030, Control_c, 0, 64, 87
2,188049, Control_c, 0, 64, 86
2,188055, Note_on_c, 0, 46, 67
2,188058, Note_on_c, 0, 58, 71
2,188068, Control_c, 0, 64, 84
2,188087, Control_c, 0, 64, 82
2,188091, Note_on_c, 0, 73, 88
2,188107, Control_c, 0, 64, 80
2,188126, Control_c, 0, 64, 78
2,188127, Note_on_c, 0, 72, 0
2,188145, Control_c, 0, 64, 75
2,188164, Control_c, 0, 64, 71
2,188184, Control_c, 0, 64, 67
2,188202, Control_c, 0, 64, 63
2,188222, Control_c, 0, 64, 54
2,188241, Control_c, 0, 64, 33
2,188261, Control_c, 0, 64, 0
2,188308, Note_on_c, 0, 53, 68
2,188334, Note_on_c, 0, 58, 0
2,188491, Control_c, 0, 64, 26
2,188501, Note_on_c, 0, 66, 84
2,188507, Note_on_c, 0, 51, 63
2,188510, Control_c, 0, 64, 50
2,188529, Control_c, 0, 64, 61
2,188536, Note_on_c, 0, 53, 0
2,188549, Control_c, 0, 64, 65
2,188566, Note_on_c, 0, 46, 0
2,188568, Control_c, 0, 64, 68
2,188571, Note_on_c, 0, 73, 0
2,188588, Control_c, 0, 64, 73
2,188607, Control_c, 0, 64, 81
2,188626, Control_c, 0, 64, 92
2,188645, Control_c, 0, 64, 106
2,188665, Control_c, 0, 64, 127
2,188693, Note_on_c, 0, 49, 72
2,188712, Note_on_c, 0, 51, 0
2,188771, Note_on_c, 0, 49, 0
2,188900, Note_on_c, 0, 66, 0
2,188919, Note_on_c, 0, 45, 78
2,188925, Note_on_c, 0, 48, 77
2,188933, Control_c, 0, 64, 118
2,188952, Control_c, 0, 64, 99
2,188971, Control_c, 0, 64, 86
2,188990, Control_c, 0, 64, 74
2,189009, Control_c, 0, 64, 63
2,189028, Control_c, 0, 64, 22
2,189047, Control_c, 0, 64, 0
2,189131, Note_on_c, 0, 72, 90
2,189275, Control_c, 0, 64, 29
2,189295, Control_c, 0, 64, 53
2,189313, Control_c, 0, 64, 59
2,189333, Control_c, 0, 64, 63
2,189336, Note_on_c, 0, 74, 82
2,189338, Note_on_c, 0, 65, 67
2,189348, Note_on_c, 0, 45, 0
2,189352, Control_c, 0, 64, 66
2,189371, Control_c, 0, 64, 70
2,189377, Note_on_c, 0, 72, 0
2,189390, Control_c, 0, 64, 76
2,189410, Control_c, 0, 64, 86
2,189429, Control_c, 0, 64, 99
2,189448, Control_c, 0, 64, 113
2,189467, Control_c, 0, 64, 127
2,189535, Note_on_c, 0, 76, 87
2,189598, Note_on_c, 0, 74, 0
2,189735, Control_c, 0, 64, 119
2,189754, Control_c, 0, 64, 93
2,189774, Control_c, 0, 64, 75
2,189775, Note_on_c, 0, 44, 68
2,189777, Note_on_c, 0, 77, 87
2,189792, Control_c, 0, 64, 60
2,189808, Note_on_c, 0, 76, 0
2,189812, Control_c, 0, 64, 0
2,189820, Note_on_c, 0, 48, 0
2,189821, Note_on_c, 0, 65, 0
2,189966, Control_c, 0, 64, 40
2,189985, Control_c, 0, 64, 59
2,189985, Note_on_c, 0, 65, 72
2,189991, Note_on_c, 0, 50, 68
2,190004, Control_c, 0, 64, 64
2,190023, Control_c, 0, 64, 68
2,190043, Control_c, 0, 64, 72
2,190061, Control_c, 0, 64, 75
2,190077, Note_on_c, 0, 65, 0
2,190081, Control_c, 0, 64, 72
2,190100, Control_c, 0, 64, 66
2,190120, Control_c, 0, 64, 59
2,190138, Control_c, 0, 64, 46
2,190157, Control_c, 0, 64, 56
2,190177, Control_c, 0, 64, 64
2,190191, Note_on_c, 0, 44, 0
2,190191, Note_on_c, 0, 50, 0
2,190195, Control_c, 0, 64, 71
2,190198, Note_on_c, 0, 52, 79
2,190204, Note_on_c, 0, 67, 74
2,190215, Control_c, 0, 64, 98
2,190234, Control_c, 0, 64, 127
2,190385, Note_on_c, 0, 53, 78
2,190393, Note_on_c, 0, 68, 84
2,190405, Note_on_c, 0, 67, 0
2,190406, Note_on_c, 0, 52, 0
2,190443, Note_on_c, 0, 53, 0
2,190454, Note_on_c, 0, 68, 0
2,190667, Note_on_c, 0, 70, 82
2,190670, Note_on_c, 0, 55, 74
2,190677, Note_on_c, 0, 43, 72
2,190714, Control_c, 0, 64, 98
2,190734, Control_c, 0, 64, 76
2,190752, Control_c, 0, 64, 61
2,190772, Control_c, 0, 64, 0
2,191057, Control_c, 0, 64, 57
2,191077, Control_c, 0, 64, 52
2,191095, Control_c, 0, 64, 50
2,191115, Control_c, 0, 64, 51
2,191134, Control_c, 0, 64, 53
2,191140, Note_on_c, 0, 77, 0
2,191143, Note_on_c, 0, 76, 79
2,191153, Control_c, 0, 64, 53
2,191211, Control_c, 0, 64, 54
2,191230, Control_c, 0, 64, 54
2,191249, Control_c, 0, 64, 55
2,191269, Control_c, 0, 64, 56
2,191287, Control_c, 0, 64, 56
2,191345, Control_c, 0, 64, 56
2,191369, Note_on_c, 0, 74, 77
2,191403, Control_c, 0, 64, 55
2,191414, Note_on_c, 0, 76, 0
2,191441, Control_c, 0, 64, 56
2,191480, Control_c, 0, 64, 56
2,191603, Note_on_c, 0, 76, 82
2,191614, Control_c, 0, 64, 56
2,191642, Note_on_c, 0, 74, 0
2,191671, Control_c, 0, 64, 56
2,191728, Control_c, 0, 64, 56
2,191747, Control_c, 0, 64, 55
2,191767, Control_c, 0, 64, 54
2,191785, Control_c, 0, 64, 53
2,191805, Control_c, 0, 64, 51
2,191820, Note_on_c, 0, 45, 71
2,191824, Control_c, 0, 64, 49
2,191832, Note_on_c, 0, 55, 0
2,191843, Control_c, 0, 64, 47
2,191862, Control_c, 0, 64, 43
2,191882, Control_c, 0, 64, 24
2,191901, Control_c, 0, 64, 0
2,192049, Note_on_c, 0, 46, 74
2,192082, Note_on_c, 0, 45, 0
2,192131, Control_c, 0, 64, 25
2,192151, Control_c, 0, 64, 33
2,192170, Control_c, 0, 64, 42
2,192189, Control_c, 0, 64, 49
2,192208, Control_c, 0, 64, 52
2,192227, Control_c, 0, 64, 52
2,192233, Note_on_c, 0, 43, 0
2,192247, Control_c, 0, 64, 53
2,192265, Control_c, 0, 64, 54
2,192279, Note_on_c, 0, 48, 81
2,192285, Control_c, 0, 64, 55
2,192290, Note_on_c, 0, 46, 0
2,192321, Note_on_c, 0, 70, 0
2,192323, Control_c, 0, 64, 55
2,192497, Control_c, 0, 64, 56
2,192535, Control_c, 0, 64, 57
2,192566, Note_on_c, 0, 49, 74
2,192578, Note_on_c, 0, 41, 67
2,192612, Control_c, 0, 64, 56
2,192647, Note_on_c, 0, 48, 0
2,192651, Control_c, 0, 64, 55
2,192670, Control_c, 0, 64, 55
2,192674, Note_on_c, 0, 77, 87
2,192689, Control_c, 0, 64, 53
2,192709, Control_c, 0, 64, 49
2,192727, Control_c, 0, 64, 44
2,192727, Note_on_c, 0, 76, 0
2,192746, Control_c, 0, 64, 36
2,192766, Control_c, 0, 64, 0
2,192975, Note_on_c, 0, 49, 0
2,192978, Note_on_c, 0, 48, 66
2,192982, Note_on_c, 0, 73, 80
2,193209, Note_on_c, 0, 48, 0
2,193211, Note_on_c, 0, 72, 79
2,193211, Note_on_c, 0, 73, 0
2,193216, Note_on_c, 0, 49, 74
2,193226, Control_c, 0, 64, 27
2,193246, Control_c, 0, 64, 56
2,193265, Control_c, 0, 64, 64
2,193284, Control_c, 0, 64, 67
2,193303, Control_c, 0, 64, 72
2,193323, Control_c, 0, 64, 79
2,193342, Control_c, 0, 64, 88
2,193361, Control_c, 0, 64, 99
2,193380, Control_c, 0, 64, 109
2,193400, Control_c, 0, 64, 117
2,193412, Note_on_c, 0, 51, 76
2,193417, Note_on_c, 0, 70, 81
2,193418, Control_c, 0, 64, 119
2,193432, Note_on_c, 0, 77, 0
2,193438, Control_c, 0, 64, 121
2,193446, Note_on_c, 0, 72, 0
2,193457, Control_c, 0, 64, 123
2,193509, Note_on_c, 0, 51, 0
2,193553, Control_c, 0, 64, 118
2,193559, Note_on_c, 0, 41, 0
2,193571, Control_c, 0, 64, 111
2,193591, Control_c, 0, 64, 105
2,193610, Control_c, 0, 64, 99
2,193612, Note_on_c, 0, 49, 0
2,193616, Note_on_c, 0, 70, 0
2,193627, Note_on_c, 0, 69, 81
2,193629, Control_c, 0, 64, 95
2,193634, Note_on_c, 0, 53, 78
2,193648, Control_c, 0, 64, 91
2,193667, Control_c, 0, 64, 88
2,193687, Control_c, 0, 64, 84
2,193705, Control_c, 0, 64, 81
2,193725, Control_c, 0, 64, 77
2,193744, Control_c, 0, 64, 69
2,193763, Control_c, 0, 64, 60
2,193782, Control_c, 0, 64, 0
2,193842, Note_on_c, 0, 75, 86
2,193843, Note_on_c, 0, 41, 73
2,194064, Note_on_c, 0, 43, 64
2,194070, Note_on_c, 0, 73, 78
2,194098, Note_on_c, 0, 41, 0
2,194108, Note_on_c, 0, 75, 0
2,194147, Control_c, 0, 64, 68
2,194167, Control_c, 0, 64, 72
2,194185, Control_c, 0, 64, 76
2,194205, Control_c, 0, 64, 80
2,194224, Control_c, 0, 64, 90
2,194243, Control_c, 0, 64, 127
2,194256, Note_on_c, 0, 45, 65
2,194266, Note_on_c, 0, 43, 0
2,194270, Note_on_c, 0, 72, 81
2,194278, Note_on_c, 0, 53, 0
2,194298, Note_on_c, 0, 45, 0
2,194306, Note_on_c, 0, 73, 0
2,194339, Note_on_c, 0, 72, 0
2,194488, Note_on_c, 0, 46, 70
2,194565, Note_on_c, 0, 73, 83
2,194592, Note_on_c, 0, 69, 0
2,194648, Control_c, 0, 64, 97
2,194667, Control_c, 0, 64, 80
2,194687, Control_c, 0, 64, 67
2,194706, Control_c, 0, 64, 38
2,194725, Control_c, 0, 64, 0
2,194803, Note_on_c, 0, 72, 76
2,194807, Note_on_c, 0, 53, 63
2,194981, Note_on_c, 0, 53, 0
2,195019, Note_on_c, 0, 55, 62
2,195027, Note_on_c, 0, 70, 80
2,195033, Control_c, 0, 64, 65
2,195052, Control_c, 0, 64, 67
2,195071, Control_c, 0, 64, 68
2,195090, Control_c, 0, 64, 70
2,195110, Control_c, 0, 64, 74
2,195128, Control_c, 0, 64, 82
2,195147, Control_c, 0, 64, 90
2,195162, Note_on_c, 0, 73, 0
2,195167, Control_c, 0, 64, 97
2,195186, Control_c, 0, 64, 102
2,195205, Control_c, 0, 64, 104
2,195224, Control_c, 0, 64, 105
2,195232, Note_on_c, 0, 56, 72
2,195234, Note_on_c, 0, 68, 72
2,195244, Control_c, 0, 64, 109
2,195245, Note_on_c, 0, 55, 0
2,195262, Control_c, 0, 64, 117
2,195279, Note_on_c, 0, 72, 0
2,195282, Control_c, 0, 64, 127
2,195291, Note_on_c, 0, 56, 0
2,195378, Control_c, 0, 64, 119
2,195397, Control_c, 0, 64, 110
2,195414, Note_on_c, 0, 70, 0
2,195416, Control_c, 0, 64, 104
2,195436, Control_c, 0, 64, 100
2,195455, Control_c, 0, 64, 98
2,195457, Note_on_c, 0, 68, 0
2,195474, Control_c, 0, 64, 96
2,195479, Note_on_c, 0, 58, 67
2,195481, Note_on_c, 0, 67, 77
2,195493, Control_c, 0, 64, 94
2,195513, Control_c, 0, 64, 93
2,195532, Control_c, 0, 64, 90
2,195551, Control_c, 0, 64, 89
2,195570, Control_c, 0, 64, 87
2,195590, Control_c, 0, 64, 84
2,195608, Control_c, 0, 64, 80
2,195627, Control_c, 0, 64, 72
2,195647, Control_c, 0, 64, 64
2,195666, Control_c, 0, 64, 31
2,195685, Control_c, 0, 64, 0
2,195733, Note_on_c, 0, 49, 69
2,195735, Note_on_c, 0, 70, 81
2,195737, Note_on_c, 0, 67, 0
2,195741, Note_on_c, 0, 65, 70
2,195786, Note_on_c, 0, 46, 0
2,195995, Note_on_c, 0, 48, 58
2,196005, Note_on_c, 0, 65, 0
2,196007, Note_on_c, 0, 72, 81
2,196019, Note_on_c, 0, 49, 0
2,196019, Note_on_c, 0, 63, 78
2,196070, Control_c, 0, 64, 53
2,196088, Control_c, 0, 64, 58
2,196107, Control_c, 0, 64, 62
2,196127, Control_c, 0, 64, 65
2,196146, Control_c, 0, 64, 69
2,196165, Control_c, 0, 64, 78
2,196178, Note_on_c, 0, 63, 0
2,196184, Control_c, 0, 64, 96
2,196191, Note_on_c, 0, 72, 0
2,196204, Control_c, 0, 64, 127
2,196226, Note_on_c, 0, 70, 0
2,196284, Note_on_c, 0, 46, 65
2,196295, Note_on_c, 0, 48, 0
2,196351, Note_on_c, 0, 73, 84
2,196360, Control_c, 0, 64, 81
2,196365, Note_on_c, 0, 61, 72
2,196379, Control_c, 0, 64, 62
2,196399, Control_c, 0, 64, 0
2,196433, Control_c, 0, 64, 51
2,196451, Control_c, 0, 64, 64
2,196471, Control_c, 0, 64, 74
2,196490, Control_c, 0, 64, 116
2,196508, Control_c, 0, 64, 127
2,196522, Note_on_c, 0, 46, 0
2,196582, Note_on_c, 0, 73, 0
2,196595, Note_on_c, 0, 61, 0
2,196685, Note_on_c, 0, 48, 74
2,196720, Control_c, 0, 64, 85
2,196739, Control_c, 0, 64, 63
2,196759, Control_c, 0, 64, 0
2,196763, Note_on_c, 0, 58, 0
2,196769, Note_on_c, 0, 64, 79
2,196772, Note_on_c, 0, 60, 68
2,196931, Control_c, 0, 64, 50
2,196951, Control_c, 0, 64, 63
2,196970, Control_c, 0, 64, 66
2,196988, Control_c, 0, 64, 68
2,197008, Control_c, 0, 64, 73
2,197027, Control_c, 0, 64, 79
2,197035, Note_on_c, 0, 64, 0
2,197047, Control_c, 0, 64, 86
2,197065, Control_c, 0, 64, 89
2,197078, Note_on_c, 0, 58, 73
2,197104, Control_c, 0, 64, 88
2,197123, Control_c, 0, 64, 88
2,197162, Control_c, 0, 64, 87
2,197181, Control_c, 0, 64, 86
2,197200, Control_c, 0, 64, 85
2,197219, Control_c, 0, 64, 84
2,197239, Control_c, 0, 64, 82
2,197257, Control_c, 0, 64, 80
2,197277, Control_c, 0, 64, 78
2,197296, Control_c, 0, 64, 76
2,197316, Control_c, 0, 64, 75
2,197327, Note_on_c, 0, 56, 61
2,197334, Control_c, 0, 64, 74
2,197341, Note_on_c, 0, 72, 88
2,197354, Control_c, 0, 64, 71
2,197363, Note_on_c, 0, 58, 0
2,197373, Control_c, 0, 64, 67
2,197393, Control_c, 0, 64, 63
2,197411, Control_c, 0, 64, 57
2,197431, Control_c, 0, 64, 50
2,197450, Control_c, 0, 64, 46
2,197468, Control_c, 0, 64, 34
2,197488, Control_c, 0, 64, 0
2,197587, Note_on_c, 0, 55, 71
2,197604, Note_on_c, 0, 56, 0
2,197822, Note_on_c, 0, 56, 77
2,197885, Note_on_c, 0, 55, 0
2,198079, Note_on_c, 0, 72, 0
2,198087, Note_on_c, 0, 67, 75
2,198351, Note_on_c, 0, 68, 81
2,198406, Note_on_c, 0, 67, 0
2,198668, Note_on_c, 0, 65, 75
2,198691, Note_on_c, 0, 68, 0
2,198830, Note_on_c, 0, 56, 0
2,198980, Note_on_c, 0, 56, 74
2,199213, Note_on_c, 0, 55, 66
2,199224, Note_on_c, 0, 65, 0
2,199228, Note_on_c, 0, 56, 0
2,199424, Note_on_c, 0, 65, 76
2,199436, Note_on_c, 0, 56, 63
2,199454, Note_on_c, 0, 55, 0
2,199579, Note_on_c, 0, 56, 0
2,199608, Note_on_c, 0, 55, 58
2,199715, Note_on_c, 0, 55, 0
2,199718, Note_on_c, 0, 64, 79
2,199727, Note_on_c, 0, 56, 63
2,199773, Note_on_c, 0, 65, 0
2,199834, Note_on_c, 0, 56, 0
2,199857, Note_on_c, 0, 55, 65
2,199973, Note_on_c, 0, 55, 0
2,199977, Note_on_c, 0, 56, 67
2,199980, Note_on_c, 0, 62, 76
2,200014, Note_on_c, 0, 64, 0
2,200129, Note_on_c, 0, 56, 0
2,200134, Note_on_c, 0, 55, 67
2,200357, Note_on_c, 0, 56, 65
2,200416, Note_on_c, 0, 55, 0
2,200452, Note_on_c, 0, 65, 73
2,200456, Note_on_c, 0, 62, 0
2,200704, Note_on_c, 0, 56, 0
2,200711, Note_on_c, 0, 55, 54
2,200734, Note_on_c, 0, 64, 75
2,200745, Note_on_c, 0, 65, 0
2,200872, Note_on_c, 0, 56, 59
2,200878, Note_on_c, 0, 55, 0
2,200887, Note_on_c, 0, 65, 72
2,200888, Note_on_c, 0, 64, 0
2,200980, Note_on_c, 0, 56, 0
2,201001, Note_on_c, 0, 55, 58
2,201013, Note_on_c, 0, 65, 0
2,201014, Note_on_c, 0, 64, 76
2,201091, Note_on_c, 0, 55, 0
2,201100, Note_on_c, 0, 56, 61
2,201107, Note_on_c, 0, 64, 0
2,201119, Note_on_c, 0, 65, 71
2,201171, Note_on_c, 0, 56, 0
2,201208, Note_on_c, 0, 55, 57
2,201217, Note_on_c, 0, 65, 0
2,201220, Note_on_c, 0, 64, 73
2,201278, Note_on_c, 0, 55, 0
2,201297, Note_on_c, 0, 64, 0
2,201298, Note_on_c, 0, 65, 64
2,201299, Note_on_c, 0, 56, 62
2,201353, Note_on_c, 0, 56, 0
2,201391, Note_on_c, 0, 55, 62
2,201392, Note_on_c, 0, 64, 71
2,201392, Note_on_c, 0, 65, 0
2,201449, Note_on_c, 0, 55, 0
2,201455, Note_on_c, 0, 56, 67
2,201468, Note_on_c, 0, 64, 0
2,201469, Note_on_c, 0, 65, 65
2,201504, Note_on_c, 0, 56, 0
2,201543, Note_on_c, 0, 55, 68
2,201553, Note_on_c, 0, 64, 69
2,201560, Note_on_c, 0, 65, 0
2,201614, Note_on_c, 0, 55, 0
2,201624, Note_on_c, 0, 56, 73
2,201641, Note_on_c, 0, 64, 0
2,201643, Note_on_c, 0, 65, 65
2,201682, Note_on_c, 0, 56, 0
2,201719, Note_on_c, 0, 55, 67
2,201726, Note_on_c, 0, 64, 72
2,201760, Note_on_c, 0, 65, 0
2,201795, Note_on_c, 0, 48, 0
2,201959, Note_on_c, 0, 53, 61
2,201962, Note_on_c, 0, 62, 79
2,201970, Note_on_c, 0, 55, 0
2,202002, Note_on_c, 0, 64, 0
2,202437, Note_on_c, 0, 53, 0
2,202449, Note_on_c, 0, 55, 56
2,202451, Note_on_c, 0, 64, 79
2,202472, Note_on_c, 0, 62, 0
2,202560, Control_c, 0, 64, 48
2,202580, Control_c, 0, 64, 61
2,202599, Control_c, 0, 64, 63
2,202615, Note_on_c, 0, 60, 0
2,202618, Control_c, 0, 64, 68
2,202637, Control_c, 0, 64, 79
2,202645, Note_on_c, 0, 55, 0
2,202657, Control_c, 0, 64, 108
2,202675, Control_c, 0, 64, 127
2,203380, Note_on_c, 0, 53, 46
2,203380, Note_on_c, 0, 65, 70
2,203388, Note_on_c, 0, 41, 40
2,203410, Note_on_c, 0, 57, 40
2,203410, Note_on_c, 0, 60, 51
2,203455, Note_on_c, 0, 64, 0
2,203464, Control_c, 0, 64, 100
2,203484, Control_c, 0, 64, 80
2,203502, Control_c, 0, 64, 64
2,203521, Control_c, 0, 64, 29
2,203541, Control_c, 0, 64, 0
2,204174, Control_c, 0, 64, 21
2,204192, Control_c, 0, 64, 40
2,204212, Control_c, 0, 64, 53
2,204231, Control_c, 0, 64, 57
2,204250, Control_c, 0, 64, 59
2,204269, Control_c, 0, 64, 61
2,204289, Control_c, 0, 64, 62
2,204308, Control_c, 0, 64, 64
2,204327, Control_c, 0, 64, 66
2,204346, Control_c, 0, 64, 70
2,204366, Control_c, 0, 64, 75
2,204385, Control_c, 0, 64, 83
2,204404, Control_c, 0, 64, 92
2,204423, Control_c, 0, 64, 99
2,204443, Control_c, 0, 64, 105
2,204461, Control_c, 0, 64, 110
2,204480, Control_c, 0, 64, 121
2,204500, Control_c, 0, 64, 127
2,205049, Note_on_c, 0, 53, 0
2,205050, Note_on_c, 0, 57, 0
2,205545, Note_on_c, 0, 41, 0
2,205833, Note_on_c, 0, 65, 0
2,205978, Control_c, 0, 64, 121
2,205997, Control_c, 0, 64, 118
2,206017, Control_c, 0, 64, 115
2,206035, Control_c, 0, 64, 112
2,206054, Control_c, 0, 64, 111
2,206073, Control_c, 0, 64, 110
2,206093, Control_c, 0, 64, 109
2,206111, Control_c, 0, 64, 107
2,206117, Note_on_c, 0, 60, 0
2,206131, Control_c, 0, 64, 106
2,206150, Control_c, 0, 64, 105
2,206170, Control_c, 0, 64, 104
2,206188, Control_c, 0, 64, 103
2,206208, Control_c, 0, 64, 102
2,206246, Control_c, 0, 64, 102
2,206265, Control_c, 0, 64, 101
2,206285, Control_c, 0, 64, 101
2,206304, Control_c, 0, 64, 100
2,206323, Control_c, 0, 64, 99
2,206342, Control_c, 0, 64, 98
2,206361, Control_c, 0, 64, 96
2,206380, Control_c, 0, 64, 95
2,206399, Control_c, 0, 64, 94
2,206419, Control_c, 0, 64, 94
2,206438, Control_c, 0, 64, 93
2,206457, Control_c, 0, 64, 90
2,206476, Control_c, 0, 64, 87
2,206496, Control_c, 0, 64, 83
2,206515, Control_c, 0, 64, 80
2,206534, Control_c, 0, 64, 78
2,206611, Control_c, 0, 64, 78
2,206668, Control_c, 0, 64, 77
2,206688, Control_c, 0, 64, 77
2,206745, Control_c, 0, 64, 76
2,206765, Control_c, 0, 64, 76
2,206785, Control_c, 0, 64, 74
2,206804, Control_c, 0, 64, 71
2,206823, Control_c, 0, 64, 68
2,206843, Control_c, 0, 64, 66
2,206919, Control_c, 0, 64, 66
2,206957, Control_c, 0, 64, 65
2,206977, Control_c, 0, 64, 64
2,206994, Control_c, 0, 64, 63
2,207013, Control_c, 0, 64, 62
2,207032, Control_c, 0, 64, 61
2,207070, Control_c, 0, 64, 61
2,207090, Control_c, 0, 64, 60
2,207109, Control_c, 0, 64, 59
2,207129, Control_c, 0, 64, 57
2,207147, Control_c, 0, 64, 53
2,207167, Control_c, 0, 64, 47
2,207186, Control_c, 0, 64, 40
2,207206, Control_c, 0, 64, 33
2,207224, Control_c, 0, 64, 27
2,207244, Control_c, 0, 64, 26
2,207320, Control_c, 0, 64, 23
2,207340, Control_c, 0, 64, 18
2,207358, Control_c, 0, 64, 0
2,207899, Control_c, 0, 64, 9
2,207918, Control_c, 0, 64, 11
2,207938, Control_c, 0, 64, 13
2,207939, End_track
0, 0, End_of_file
