0, 0, Header, 1, 2, 480
1, 0, Start_track
1, 0, Tempo, 500000
1, 0, Time_signature, 4, 2, 24, 8
1, 1, End_track
2, 0, Start_track
2, 0, Program_c, 0, 0
2, 0, Control_c, 0, 64, 0
2, 940, Note_on_c, 0, 65, 47
2, 949, Note_on_c, 0, 56, 35
2, 955, Note_on_c, 0, 53, 30
2, 1307, Note_on_c, 0, 68, 55
2, 1597, Note_on_c, 0, 72, 54
2, 1658, Note_on_c, 0, 68, 0
2, 1877, Note_on_c, 0, 77, 55
2, 1951, Note_on_c, 0, 65, 0
2, 2186, Note_on_c, 0, 58, 41
2, 2188, Note_on_c, 0, 67, 56
2, 2189, Note_on_c, 0, 77, 0
2, 2240, Note_on_c, 0, 72, 0
2, 2359, Note_on_c, 0, 56, 0
2, 2500, Note_on_c, 0, 77, 61
2, 2790, Note_on_c, 0, 77, 0
2, 2805, Note_on_c, 0, 76, 62
2, 3099, Note_on_c, 0, 79, 66
2, 3143, Note_on_c, 0, 67, 0
2, 3308, Note_on_c, 0, 76, 0
2, 3400, Note_on_c, 0, 68, 67
2, 3410, Note_on_c, 0, 60, 42
2, 3532, Note_on_c, 0, 58, 0
2, 3642, Note_on_c, 0, 79, 0
2, 3686, Note_on_c, 0, 72, 64
2, 3979, Note_on_c, 0, 77, 60
2, 4263, Note_on_c, 0, 76, 65
2, 4298, Note_on_c, 0, 77, 0
2, 4545, Note_on_c, 0, 56, 41
2, 4574, Note_on_c, 0, 72, 0
2, 4595, Note_on_c, 0, 77, 63
2, 4596, Note_on_c, 0, 76, 0
2, 4678, Note_on_c, 0, 68, 0
2, 4815, Note_on_c, 0, 60, 0
2, 4906, Note_on_c, 0, 72, 51
2, 5184, Note_on_c, 0, 70, 58
2, 5401, Note_on_c, 0, 77, 0
2, 5459, Note_on_c, 0, 72, 0
2, 5475, Note_on_c, 0, 68, 63
2, 5762, Note_on_c, 0, 58, 35
2, 5799, Note_on_c, 0, 73, 66
2, 5819, Note_on_c, 0, 70, 0
2, 5850, Note_on_c, 0, 68, 0
2, 5903, Note_on_c, 0, 56, 0
2, 6113, Note_on_c, 0, 68, 57
2, 6401, Note_on_c, 0, 67, 44
2, 6453, Note_on_c, 0, 68, 0
2, 6700, Note_on_c, 0, 70, 54
2, 6708, Note_on_c, 0, 67, 0
2, 7005, Note_on_c, 0, 73, 0
2, 7006, Note_on_c, 0, 64, 50
2, 7020, Note_on_c, 0, 55, 34
2, 7179, Note_on_c, 0, 58, 0
2, 7330, Note_on_c, 0, 73, 64
2, 7349, Note_on_c, 0, 70, 0
2, 7619, Note_on_c, 0, 72, 61
2, 7684, Note_on_c, 0, 73, 0
2, 7921, Note_on_c, 0, 53, 0
2, 7925, Note_on_c, 0, 70, 66
2, 7990, Note_on_c, 0, 64, 0
2, 8029, Note_on_c, 0, 55, 0
2, 8147, Note_on_c, 0, 72, 0
2, 8263, Note_on_c, 0, 68, 54
2, 8280, Note_on_c, 0, 53, 51
2, 8290, Note_on_c, 0, 65, 38
2, 8373, Note_on_c, 0, 70, 0
2, 8572, Note_on_c, 0, 56, 62
2, 8641, Note_on_c, 0, 65, 0
2, 8874, Note_on_c, 0, 60, 60
2, 9155, Note_on_c, 0, 65, 52
2, 9157, Note_on_c, 0, 70, 72
2, 9165, Note_on_c, 0, 53, 0
2, 9260, Note_on_c, 0, 68, 0
2, 9443, Note_on_c, 0, 55, 56
2, 9480, Note_on_c, 0, 72, 59
2, 9496, Note_on_c, 0, 70, 0
2, 9522, Note_on_c, 0, 65, 0
2, 9598, Note_on_c, 0, 56, 0
2, 9654, Note_on_c, 0, 70, 63
2, 9654, Note_on_c, 0, 72, 0
2, 9747, Note_on_c, 0, 60, 0
2, 9765, Note_on_c, 0, 70, 0
2, 9781, Note_on_c, 0, 65, 60
2, 9781, Note_on_c, 0, 72, 65
2, 9887, Note_on_c, 0, 72, 0
2, 9892, Note_on_c, 0, 70, 65
2, 9962, Note_on_c, 0, 72, 55
2, 9968, Note_on_c, 0, 70, 0
2, 10050, Note_on_c, 0, 64, 65
2, 10066, Note_on_c, 0, 70, 69
2, 10072, Note_on_c, 0, 72, 0
2, 10094, Note_on_c, 0, 65, 0
2, 10147, Note_on_c, 0, 70, 0
2, 10147, Note_on_c, 0, 72, 58
2, 10220, Note_on_c, 0, 70, 67
2, 10247, Note_on_c, 0, 72, 0
2, 10309, Note_on_c, 0, 64, 0
2, 10322, Note_on_c, 0, 67, 59
2, 10339, Note_on_c, 0, 68, 73
2, 10355, Note_on_c, 0, 70, 0
2, 10469, Note_on_c, 0, 70, 74
2, 10530, Note_on_c, 0, 68, 0
2, 10632, Note_on_c, 0, 67, 0
2, 10639, Note_on_c, 0, 56, 53
2, 10665, Note_on_c, 0, 72, 76
2, 10708, Note_on_c, 0, 70, 0
2, 10740, Note_on_c, 0, 55, 0
2, 10982, Note_on_c, 0, 68, 55
2, 11270, Note_on_c, 0, 64, 50
2, 11339, Note_on_c, 0, 68, 0
2, 11563, Note_on_c, 0, 65, 49
2, 11579, Note_on_c, 0, 64, 0
2, 11854, Note_on_c, 0, 72, 0
2, 11856, Note_on_c, 0, 58, 43
2, 11871, Note_on_c, 0, 61, 52
2, 11898, Note_on_c, 0, 65, 0
2, 12036, Note_on_c, 0, 56, 0
2, 12175, Note_on_c, 0, 73, 63
2, 12465, Note_on_c, 0, 67, 61
2, 12514, Note_on_c, 0, 73, 0
2, 12581, Control_c, 0, 64, 53
2, 12600, Control_c, 0, 64, 66
2, 12619, Control_c, 0, 64, 74
2, 12639, Control_c, 0, 64, 90
2, 12658, Control_c, 0, 64, 127
2, 12751, Note_on_c, 0, 70, 73
2, 12784, Note_on_c, 0, 67, 0
2, 12840, Note_on_c, 0, 61, 0
2, 12909, Note_on_c, 0, 70, 0
2, 12985, Note_on_c, 0, 58, 0
2, 13133, Note_on_c, 0, 48, 62
2, 13135, Note_on_c, 0, 64, 61
2, 13151, Note_on_c, 0, 60, 46
2, 13196, Control_c, 0, 64, 119
2, 13215, Control_c, 0, 64, 101
2, 13234, Control_c, 0, 64, 87
2, 13253, Control_c, 0, 64, 75
2, 13273, Control_c, 0, 64, 66
2, 13291, Control_c, 0, 64, 57
2, 13311, Control_c, 0, 64, 44
2, 13330, Control_c, 0, 64, 38
2, 13350, Control_c, 0, 64, 37
2, 13368, Control_c, 0, 64, 31
2, 13388, Control_c, 0, 64, 0
2, 13455, Note_on_c, 0, 52, 64
2, 13666, Note_on_c, 0, 60, 0
2, 13748, Note_on_c, 0, 55, 67
2, 14015, Note_on_c, 0, 65, 65
2, 14022, Note_on_c, 0, 48, 0
2, 14024, Note_on_c, 0, 60, 59
2, 14092, Note_on_c, 0, 64, 0
2, 14327, Note_on_c, 0, 49, 67
2, 14340, Note_on_c, 0, 67, 53
2, 14341, Note_on_c, 0, 65, 0
2, 14393, Note_on_c, 0, 52, 0
2, 14448, Note_on_c, 0, 60, 0
2, 14488, Note_on_c, 0, 67, 0
2, 14500, Note_on_c, 0, 65, 59
2, 14603, Note_on_c, 0, 65, 0
2, 14614, Note_on_c, 0, 55, 0
2, 14629, Note_on_c, 0, 67, 60
2, 14635, Note_on_c, 0, 60, 67
2, 14709, Note_on_c, 0, 67, 0
2, 14731, Note_on_c, 0, 65, 57
2, 14792, Note_on_c, 0, 65, 0
2, 14814, Note_on_c, 0, 67, 53
2, 14893, Note_on_c, 0, 67, 0
2, 14898, Note_on_c, 0, 58, 64
2, 14906, Note_on_c, 0, 65, 62
2, 14937, Note_on_c, 0, 60, 0
2, 14982, Note_on_c, 0, 65, 0
2, 15003, Note_on_c, 0, 67, 59
2, 15074, Note_on_c, 0, 65, 59
2, 15115, Note_on_c, 0, 67, 0
2, 15178, Note_on_c, 0, 61, 56
2, 15185, Note_on_c, 0, 64, 65
2, 15193, Note_on_c, 0, 65, 0
2, 15198, Note_on_c, 0, 58, 0
2, 15324, Note_on_c, 0, 65, 63
2, 15334, Note_on_c, 0, 64, 0
2, 15468, Note_on_c, 0, 65, 0
2, 15491, Note_on_c, 0, 52, 49
2, 15523, Note_on_c, 0, 67, 61
2, 15612, Note_on_c, 0, 61, 0
2, 15644, Note_on_c, 0, 49, 0
2, 15834, Note_on_c, 0, 72, 64
2, 16125, Note_on_c, 0, 70, 65
2, 16135, Note_on_c, 0, 55, 54
2, 16141, Note_on_c, 0, 72, 0
2, 16446, Note_on_c, 0, 73, 72
2, 16478, Note_on_c, 0, 67, 0
2, 16660, Note_on_c, 0, 70, 0
2, 16748, Note_on_c, 0, 60, 65
2, 16753, Note_on_c, 0, 64, 63
2, 16769, Note_on_c, 0, 73, 0
2, 16877, Note_on_c, 0, 52, 0
2, 16902, Note_on_c, 0, 55, 0
2, 17061, Note_on_c, 0, 73, 76
2, 17352, Note_on_c, 0, 48, 67
2, 17367, Note_on_c, 0, 72, 78
2, 17408, Note_on_c, 0, 60, 0
2, 17409, Note_on_c, 0, 73, 0
2, 17457, Control_c, 0, 64, 46
2, 17476, Control_c, 0, 64, 64
2, 17495, Control_c, 0, 64, 71
2, 17515, Control_c, 0, 64, 82
2, 17534, Control_c, 0, 64, 98
2, 17542, Note_on_c, 0, 48, 0
2, 17554, Control_c, 0, 64, 127
2, 17670, Note_on_c, 0, 70, 83
2, 17694, Note_on_c, 0, 64, 0
2, 17773, Note_on_c, 0, 72, 0
2, 18057, Note_on_c, 0, 41, 74
2, 18072, Note_on_c, 0, 69, 76
2, 18076, Note_on_c, 0, 63, 57
2, 18109, Control_c, 0, 64, 107
2, 18128, Control_c, 0, 64, 95
2, 18148, Control_c, 0, 64, 85
2, 18164, Note_on_c, 0, 70, 0
2, 18166, Control_c, 0, 64, 75
2, 18186, Control_c, 0, 64, 68
2, 18205, Control_c, 0, 64, 63
2, 18225, Control_c, 0, 64, 59
2, 18243, Control_c, 0, 64, 56
2, 18262, Control_c, 0, 64, 55
2, 18282, Control_c, 0, 64, 52
2, 18300, Control_c, 0, 64, 48
2, 18320, Control_c, 0, 64, 39
2, 18339, Control_c, 0, 64, 21
2, 18359, Control_c, 0, 64, 0
2, 18418, Note_on_c, 0, 45, 67
2, 18702, Note_on_c, 0, 48, 70
2, 18963, Note_on_c, 0, 41, 0
2, 18970, Note_on_c, 0, 70, 78
2, 18976, Note_on_c, 0, 53, 67
2, 18991, Note_on_c, 0, 69, 0
2, 19008, Note_on_c, 0, 63, 0
2, 19278, Note_on_c, 0, 42, 69
2, 19287, Note_on_c, 0, 72, 65
2, 19290, Note_on_c, 0, 53, 0
2, 19301, Note_on_c, 0, 70, 0
2, 19303, Note_on_c, 0, 61, 47
2, 19351, Note_on_c, 0, 45, 0
2, 19472, Note_on_c, 0, 70, 63
2, 19478, Note_on_c, 0, 72, 0
2, 19564, Note_on_c, 0, 48, 0
2, 19580, Note_on_c, 0, 53, 68
2, 19590, Note_on_c, 0, 70, 0
2, 19593, Note_on_c, 0, 72, 70
2, 19700, Note_on_c, 0, 72, 0
2, 19703, Note_on_c, 0, 70, 69
2, 19788, Note_on_c, 0, 72, 62
2, 19791, Note_on_c, 0, 70, 0
2, 19845, Note_on_c, 0, 51, 68
2, 19884, Note_on_c, 0, 53, 0
2, 19884, Note_on_c, 0, 70, 64
2, 19893, Note_on_c, 0, 72, 0
2, 19961, Note_on_c, 0, 72, 58
2, 19967, Note_on_c, 0, 70, 0
2, 20051, Note_on_c, 0, 70, 62
2, 20088, Note_on_c, 0, 72, 0
2, 20125, Note_on_c, 0, 54, 62
2, 20129, Note_on_c, 0, 51, 0
2, 20148, Note_on_c, 0, 69, 74
2, 20178, Note_on_c, 0, 70, 0
2, 20293, Note_on_c, 0, 70, 75
2, 20337, Note_on_c, 0, 69, 0
2, 20446, Note_on_c, 0, 45, 45
2, 20474, Note_on_c, 0, 72, 71
2, 20496, Note_on_c, 0, 70, 0
2, 20554, Note_on_c, 0, 54, 0
2, 20559, Note_on_c, 0, 61, 0
2, 20569, Note_on_c, 0, 42, 0
2, 20766, Note_on_c, 0, 65, 56
2, 21067, Note_on_c, 0, 65, 0
2, 21081, Note_on_c, 0, 48, 46
2, 21087, Note_on_c, 0, 63, 53
2, 21386, Note_on_c, 0, 45, 0
2, 21400, Note_on_c, 0, 66, 64
2, 21557, Note_on_c, 0, 63, 0
2, 21695, Note_on_c, 0, 45, 48
2, 21794, Note_on_c, 0, 48, 0
2, 21801, Note_on_c, 0, 66, 0
2, 21995, Note_on_c, 0, 66, 51
2, 22280, Note_on_c, 0, 66, 0
2, 22305, Note_on_c, 0, 65, 45
2, 22320, Note_on_c, 0, 41, 38
2, 22462, Note_on_c, 0, 45, 0
2, 22580, Note_on_c, 0, 65, 0
2, 22606, Note_on_c, 0, 63, 47
2, 22936, Note_on_c, 0, 63, 0
2, 22942, Note_on_c, 0, 61, 50
2, 22948, Note_on_c, 0, 46, 36
2, 23043, Note_on_c, 0, 72, 0
2, 23158, Note_on_c, 0, 41, 0
2, 23265, Note_on_c, 0, 72, 56
2, 23554, Note_on_c, 0, 72, 0
2, 23563, Note_on_c, 0, 70, 60
2, 23872, Note_on_c, 0, 73, 59
2, 23923, Note_on_c, 0, 70, 0
2, 24188, Note_on_c, 0, 67, 49
2, 24204, Note_on_c, 0, 46, 0
2, 24228, Note_on_c, 0, 73, 0
2, 24492, Note_on_c, 0, 46, 46
2, 24765, Note_on_c, 0, 67, 0
2, 24789, Note_on_c, 0, 48, 44
2, 24811, Note_on_c, 0, 70, 57
2, 24824, Note_on_c, 0, 46, 0
2, 24941, Note_on_c, 0, 70, 0
2, 24962, Note_on_c, 0, 68, 57
2, 25049, Note_on_c, 0, 68, 0
2, 25065, Note_on_c, 0, 70, 59
2, 25087, Note_on_c, 0, 49, 49
2, 25088, Note_on_c, 0, 48, 0
2, 25134, Note_on_c, 0, 70, 0
2, 25152, Note_on_c, 0, 68, 55
2, 25224, Note_on_c, 0, 68, 0
2, 25233, Note_on_c, 0, 70, 60
2, 25297, Note_on_c, 0, 70, 0
2, 25307, Note_on_c, 0, 68, 38
2, 25419, Note_on_c, 0, 68, 0
2, 25425, Note_on_c, 0, 43, 43
2, 25429, Note_on_c, 0, 70, 72
2, 25542, Note_on_c, 0, 61, 0
2, 25572, Note_on_c, 0, 49, 0
2, 25754, Note_on_c, 0, 60, 54
2, 25842, Note_on_c, 0, 43, 0
2, 26052, Note_on_c, 0, 46, 49
2, 26064, Note_on_c, 0, 61, 60
2, 26126, Note_on_c, 0, 60, 0
2, 26371, Note_on_c, 0, 65, 65
2, 26427, Note_on_c, 0, 61, 0
2, 26454, Note_on_c, 0, 46, 0
2, 26680, Note_on_c, 0, 51, 55
2, 26684, Note_on_c, 0, 55, 55
2, 26735, Note_on_c, 0, 65, 0
2, 26972, Note_on_c, 0, 55, 0
2, 27002, Note_on_c, 0, 65, 60
2, 27078, Note_on_c, 0, 51, 0
2, 27334, Note_on_c, 0, 63, 49
2, 27348, Note_on_c, 0, 39, 47
2, 27366, Note_on_c, 0, 65, 0
2, 27555, Control_c, 0, 64, 28
2, 27575, Control_c, 0, 64, 55
2, 27594, Control_c, 0, 64, 63
2, 27604, Note_on_c, 0, 39, 0
2, 27614, Control_c, 0, 64, 66
2, 27632, Control_c, 0, 64, 71
2, 27652, Control_c, 0, 64, 81
2, 27670, Note_on_c, 0, 61, 52
2, 27671, Control_c, 0, 64, 104
2, 27690, Control_c, 0, 64, 127
2, 27698, Note_on_c, 0, 63, 0
2, 27876, Note_on_c, 0, 61, 0
2, 28065, Note_on_c, 0, 44, 37
2, 28112, Control_c, 0, 64, 117
2, 28124, Note_on_c, 0, 70, 0
2, 28131, Note_on_c, 0, 60, 45
2, 28132, Control_c, 0, 64, 101
2, 28151, Control_c, 0, 64, 91
2, 28170, Control_c, 0, 64, 82
2, 28189, Control_c, 0, 64, 72
2, 28209, Control_c, 0, 64, 65
2, 28228, Control_c, 0, 64, 57
2, 28247, Control_c, 0, 64, 49
2, 28266, Control_c, 0, 64, 44
2, 28286, Control_c, 0, 64, 42
2, 28305, Control_c, 0, 64, 31
2, 28324, Control_c, 0, 64, 0
2, 28456, Note_on_c, 0, 68, 65
2, 28467, Note_on_c, 0, 48, 39
2, 28742, Note_on_c, 0, 60, 0
2, 28760, Note_on_c, 0, 51, 44
2, 28765, Note_on_c, 0, 72, 66
2, 28823, Control_c, 0, 64, 46
2, 28843, Control_c, 0, 64, 60
2, 28846, Note_on_c, 0, 68, 0
2, 28861, Control_c, 0, 64, 65
2, 28881, Control_c, 0, 64, 70
2, 28900, Control_c, 0, 64, 79
2, 28920, Control_c, 0, 64, 97
2, 28938, Control_c, 0, 64, 127
2, 29045, Note_on_c, 0, 44, 0
2, 29061, Note_on_c, 0, 48, 0
2, 29061, Note_on_c, 0, 56, 57
2, 29248, Note_on_c, 0, 51, 0
2, 29343, Control_c, 0, 64, 118
2, 29352, Note_on_c, 0, 46, 51
2, 29361, Note_on_c, 0, 61, 60
2, 29363, Control_c, 0, 64, 107
2, 29370, Note_on_c, 0, 56, 0
2, 29382, Control_c, 0, 64, 100
2, 29400, Note_on_c, 0, 72, 0
2, 29401, Control_c, 0, 64, 92
2, 29420, Control_c, 0, 64, 83
2, 29440, Control_c, 0, 64, 74
2, 29459, Control_c, 0, 64, 67
2, 29477, Control_c, 0, 64, 61
2, 29497, Control_c, 0, 64, 56
2, 29516, Control_c, 0, 64, 54
2, 29535, Control_c, 0, 64, 54
2, 29554, Control_c, 0, 64, 52
2, 29574, Control_c, 0, 64, 48
2, 29593, Control_c, 0, 64, 39
2, 29612, Control_c, 0, 64, 11
2, 29631, Control_c, 0, 64, 0
2, 29663, Note_on_c, 0, 56, 50
2, 29677, Note_on_c, 0, 70, 77
2, 29948, Note_on_c, 0, 55, 55
2, 29969, Note_on_c, 0, 73, 77
2, 30001, Note_on_c, 0, 56, 0
2, 30021, Note_on_c, 0, 70, 0
2, 30024, Note_on_c, 0, 61, 0
2, 30033, Control_c, 0, 64, 27
2, 30053, Control_c, 0, 64, 53
2, 30072, Control_c, 0, 64, 63
2, 30091, Control_c, 0, 64, 67
2, 30110, Control_c, 0, 64, 72
2, 30130, Control_c, 0, 64, 81
2, 30149, Control_c, 0, 64, 94
2, 30168, Control_c, 0, 64, 109
2, 30187, Control_c, 0, 64, 127
2, 30236, Note_on_c, 0, 46, 0
2, 30266, Note_on_c, 0, 58, 71
2, 30374, Note_on_c, 0, 55, 0
2, 30455, Note_on_c, 0, 58, 0
2, 30531, Control_c, 0, 64, 121
2, 30543, Note_on_c, 0, 48, 59
2, 30549, Note_on_c, 0, 63, 76
2, 30550, Control_c, 0, 64, 116
2, 30570, Control_c, 0, 64, 111
2, 30588, Control_c, 0, 64, 105
2, 30593, Note_on_c, 0, 73, 0
2, 30608, Control_c, 0, 64, 100
2, 30627, Control_c, 0, 64, 94
2, 30646, Control_c, 0, 64, 85
2, 30665, Control_c, 0, 64, 77
2, 30685, Control_c, 0, 64, 69
2, 30704, Control_c, 0, 64, 62
2, 30723, Control_c, 0, 64, 51
2, 30742, Control_c, 0, 64, 39
2, 30762, Control_c, 0, 64, 30
2, 30780, Control_c, 0, 64, 15
2, 30800, Control_c, 0, 64, 0
2, 30858, Note_on_c, 0, 72, 83
2, 30861, Note_on_c, 0, 51, 57
2, 31119, Note_on_c, 0, 56, 59
2, 31154, Note_on_c, 0, 75, 88
2, 31176, Note_on_c, 0, 72, 0
2, 31203, Control_c, 0, 64, 28
2, 31223, Control_c, 0, 64, 55
2, 31230, Note_on_c, 0, 63, 0
2, 31243, Control_c, 0, 64, 64
2, 31261, Control_c, 0, 64, 68
2, 31281, Control_c, 0, 64, 76
2, 31300, Control_c, 0, 64, 90
2, 31320, Control_c, 0, 64, 110
2, 31338, Control_c, 0, 64, 127
2, 31427, Note_on_c, 0, 48, 0
2, 31455, Note_on_c, 0, 60, 65
2, 31485, Note_on_c, 0, 51, 0
2, 31665, Control_c, 0, 64, 121
2, 31684, Control_c, 0, 64, 113
2, 31698, Note_on_c, 0, 75, 0
2, 31703, Control_c, 0, 64, 108
2, 31723, Control_c, 0, 64, 104
2, 31735, Note_on_c, 0, 49, 63
2, 31741, Control_c, 0, 64, 100
2, 31743, Note_on_c, 0, 65, 77
2, 31755, Note_on_c, 0, 60, 0
2, 31761, Control_c, 0, 64, 93
2, 31780, Control_c, 0, 64, 86
2, 31800, Control_c, 0, 64, 78
2, 31818, Control_c, 0, 64, 71
2, 31837, Control_c, 0, 64, 64
2, 31857, Control_c, 0, 64, 58
2, 31875, Control_c, 0, 64, 51
2, 31895, Control_c, 0, 64, 48
2, 31914, Control_c, 0, 64, 45
2, 31934, Control_c, 0, 64, 29
2, 31951, Control_c, 0, 64, 0
2, 32016, Note_on_c, 0, 56, 0
2, 32026, Note_on_c, 0, 60, 63
2, 32030, Note_on_c, 0, 73, 83
2, 32283, Note_on_c, 0, 58, 64
2, 32340, Note_on_c, 0, 77, 87
2, 32342, Note_on_c, 0, 60, 0
2, 32350, Note_on_c, 0, 73, 0
2, 32413, Control_c, 0, 64, 29
2, 32431, Control_c, 0, 64, 51
2, 32451, Control_c, 0, 64, 64
2, 32470, Control_c, 0, 64, 71
2, 32490, Control_c, 0, 64, 86
2, 32508, Control_c, 0, 64, 127
2, 32509, Note_on_c, 0, 65, 0
2, 32600, Note_on_c, 0, 49, 0
2, 32612, Note_on_c, 0, 61, 75
2, 32925, Note_on_c, 0, 51, 54
2, 32936, Note_on_c, 0, 61, 0
2, 32945, Note_on_c, 0, 77, 0
2, 32957, Note_on_c, 0, 67, 73
2, 32988, Control_c, 0, 64, 121
2, 32989, Note_on_c, 0, 58, 0
2, 33008, Control_c, 0, 64, 99
2, 33027, Control_c, 0, 64, 86
2, 33046, Control_c, 0, 64, 75
2, 33065, Control_c, 0, 64, 66
2, 33085, Control_c, 0, 64, 59
2, 33104, Control_c, 0, 64, 46
2, 33123, Control_c, 0, 64, 31
2, 33142, Control_c, 0, 64, 0
2, 33271, Note_on_c, 0, 75, 74
2, 33273, Note_on_c, 0, 55, 53
2, 33549, Note_on_c, 0, 58, 54
2, 33561, Note_on_c, 0, 73, 74
2, 33615, Note_on_c, 0, 75, 0
2, 33841, Note_on_c, 0, 72, 76
2, 33846, Note_on_c, 0, 63, 62
2, 33855, Note_on_c, 0, 51, 0
2, 33898, Note_on_c, 0, 73, 0
2, 34074, Note_on_c, 0, 55, 0
2, 34134, Note_on_c, 0, 53, 64
2, 34137, Note_on_c, 0, 70, 75
2, 34188, Note_on_c, 0, 63, 0
2, 34200, Note_on_c, 0, 67, 0
2, 34209, Note_on_c, 0, 72, 0
2, 34425, Note_on_c, 0, 58, 0
2, 34432, Note_on_c, 0, 63, 67
2, 34437, Note_on_c, 0, 67, 73
2, 34440, Note_on_c, 0, 70, 0
2, 34721, Note_on_c, 0, 61, 68
2, 34731, Note_on_c, 0, 68, 78
2, 34766, Note_on_c, 0, 67, 0
2, 34773, Note_on_c, 0, 63, 0
2, 34947, Control_c, 0, 64, 17
2, 34949, Note_on_c, 0, 53, 0
2, 34966, Control_c, 0, 64, 51
2, 34985, Control_c, 0, 64, 63
2, 35005, Control_c, 0, 64, 66
2, 35016, Note_on_c, 0, 73, 75
2, 35024, Control_c, 0, 64, 70
2, 35026, Note_on_c, 0, 65, 63
2, 35043, Control_c, 0, 64, 76
2, 35050, Note_on_c, 0, 68, 0
2, 35062, Control_c, 0, 64, 89
2, 35082, Control_c, 0, 64, 106
2, 35100, Control_c, 0, 64, 127
2, 35230, Note_on_c, 0, 73, 0
2, 35316, Note_on_c, 0, 55, 69
2, 35331, Control_c, 0, 64, 106
2, 35350, Control_c, 0, 64, 98
2, 35351, Note_on_c, 0, 72, 70
2, 35370, Control_c, 0, 64, 90
2, 35388, Control_c, 0, 64, 80
2, 35402, Note_on_c, 0, 65, 0
2, 35408, Control_c, 0, 64, 70
2, 35427, Control_c, 0, 64, 60
2, 35445, Note_on_c, 0, 61, 0
2, 35446, Control_c, 0, 64, 39
2, 35460, Note_on_c, 0, 72, 0
2, 35465, Control_c, 0, 64, 0
2, 35475, Note_on_c, 0, 70, 67
2, 35554, Note_on_c, 0, 70, 0
2, 35568, Note_on_c, 0, 72, 62
2, 35665, Note_on_c, 0, 72, 0
2, 35667, Note_on_c, 0, 65, 67
2, 35672, Note_on_c, 0, 70, 59
2, 35749, Note_on_c, 0, 70, 0
2, 35760, Note_on_c, 0, 72, 55
2, 35856, Note_on_c, 0, 72, 0
2, 35870, Note_on_c, 0, 70, 59
2, 35945, Note_on_c, 0, 70, 0
2, 35957, Note_on_c, 0, 63, 74
2, 35967, Note_on_c, 0, 72, 57
2, 36034, Note_on_c, 0, 72, 0
2, 36053, Note_on_c, 0, 70, 59
2, 36118, Control_c, 0, 64, 43
2, 36127, Note_on_c, 0, 70, 0
2, 36137, Control_c, 0, 64, 62
2, 36148, Note_on_c, 0, 72, 55
2, 36156, Control_c, 0, 64, 68
2, 36176, Control_c, 0, 64, 76
2, 36195, Control_c, 0, 64, 87
2, 36214, Control_c, 0, 64, 101
2, 36216, Note_on_c, 0, 61, 65
2, 36216, Note_on_c, 0, 72, 0
2, 36218, Note_on_c, 0, 65, 0
2, 36233, Control_c, 0, 64, 127
2, 36241, Note_on_c, 0, 70, 61
2, 36282, Note_on_c, 0, 63, 0
2, 36300, Note_on_c, 0, 61, 0
2, 36313, Note_on_c, 0, 70, 0
2, 36336, Note_on_c, 0, 72, 62
2, 36414, Note_on_c, 0, 72, 0
2, 36431, Note_on_c, 0, 70, 64
2, 36558, Note_on_c, 0, 56, 69
2, 36568, Note_on_c, 0, 60, 56
2, 36579, Control_c, 0, 64, 107
2, 36598, Control_c, 0, 64, 97
2, 36614, Note_on_c, 0, 55, 0
2, 36617, Control_c, 0, 64, 86
2, 36636, Control_c, 0, 64, 76
2, 36656, Control_c, 0, 64, 67
2, 36675, Control_c, 0, 64, 60
2, 36694, Control_c, 0, 64, 50
2, 36713, Control_c, 0, 64, 44
2, 36733, Control_c, 0, 64, 39
2, 36753, Control_c, 0, 64, 27
2, 36773, Control_c, 0, 64, 0
2, 36880, Note_on_c, 0, 70, 0
2, 36891, Note_on_c, 0, 63, 69
2, 36992, Note_on_c, 0, 56, 0
2, 37182, Note_on_c, 0, 55, 64
2, 37198, Note_on_c, 0, 65, 67
2, 37245, Note_on_c, 0, 63, 0
2, 37480, Note_on_c, 0, 67, 67
2, 37518, Note_on_c, 0, 65, 0
2, 37645, Note_on_c, 0, 55, 0
2, 37774, Note_on_c, 0, 53, 56
2, 37775, Note_on_c, 0, 68, 73
2, 37810, Note_on_c, 0, 67, 0
2, 38079, Note_on_c, 0, 67, 67
2, 38086, Note_on_c, 0, 68, 0
2, 38266, Note_on_c, 0, 53, 0
2, 38373, Note_on_c, 0, 49, 60
2, 38382, Note_on_c, 0, 68, 77
2, 38400, Note_on_c, 0, 67, 0
2, 38580, Control_c, 0, 64, 47
2, 38598, Control_c, 0, 64, 64
2, 38618, Control_c, 0, 64, 71
2, 38629, Note_on_c, 0, 60, 0
2, 38637, Control_c, 0, 64, 91
2, 38657, Control_c, 0, 64, 127
2, 38667, Note_on_c, 0, 49, 0
2, 38695, Note_on_c, 0, 77, 78
2, 38742, Note_on_c, 0, 68, 0
2, 39004, Note_on_c, 0, 51, 49
2, 39022, Note_on_c, 0, 60, 47
2, 39059, Note_on_c, 0, 77, 0
2, 39064, Note_on_c, 0, 75, 72
2, 39118, Control_c, 0, 64, 106
2, 39138, Control_c, 0, 64, 97
2, 39156, Control_c, 0, 64, 90
2, 39170, Note_on_c, 0, 58, 59
2, 39170, Note_on_c, 0, 60, 0
2, 39176, Control_c, 0, 64, 83
2, 39195, Control_c, 0, 64, 77
2, 39214, Control_c, 0, 64, 73
2, 39225, Note_on_c, 0, 58, 0
2, 39233, Control_c, 0, 64, 69
2, 39253, Control_c, 0, 64, 66
2, 39272, Control_c, 0, 64, 64
2, 39287, Note_on_c, 0, 60, 42
2, 39290, Control_c, 0, 64, 63
2, 39310, Control_c, 0, 64, 62
2, 39329, Control_c, 0, 64, 60
2, 39335, Note_on_c, 0, 58, 55
2, 39348, Control_c, 0, 64, 58
2, 39350, Note_on_c, 0, 60, 0
2, 39365, Note_on_c, 0, 68, 65
2, 39367, Control_c, 0, 64, 55
2, 39387, Control_c, 0, 64, 50
2, 39393, Note_on_c, 0, 58, 0
2, 39406, Control_c, 0, 64, 42
2, 39425, Control_c, 0, 64, 23
2, 39444, Control_c, 0, 64, 0
2, 39447, Note_on_c, 0, 60, 22
2, 39479, Note_on_c, 0, 58, 46
2, 39514, Note_on_c, 0, 58, 0
2, 39528, Note_on_c, 0, 60, 0
2, 39551, Note_on_c, 0, 60, 36
2, 39624, Note_on_c, 0, 58, 66
2, 39633, Note_on_c, 0, 67, 69
2, 39652, Note_on_c, 0, 60, 0
2, 39654, Note_on_c, 0, 68, 0
2, 39694, Control_c, 0, 64, 48
2, 39713, Control_c, 0, 64, 64
2, 39733, Control_c, 0, 64, 72
2, 39752, Control_c, 0, 64, 89
2, 39770, Control_c, 0, 64, 127
2, 39839, Note_on_c, 0, 58, 0
2, 39901, Note_on_c, 0, 51, 0
2, 39941, Note_on_c, 0, 73, 80
2, 40009, Note_on_c, 0, 75, 0
2, 40341, Note_on_c, 0, 56, 49
2, 40348, Note_on_c, 0, 44, 47
2, 40369, Note_on_c, 0, 72, 71
2, 40400, Control_c, 0, 64, 117
2, 40401, Note_on_c, 0, 67, 0
2, 40420, Control_c, 0, 64, 97
2, 40425, Note_on_c, 0, 73, 0
2, 40439, Control_c, 0, 64, 85
2, 40458, Control_c, 0, 64, 74
2, 40477, Control_c, 0, 64, 65
2, 40497, Control_c, 0, 64, 56
2, 40516, Control_c, 0, 64, 42
2, 40535, Control_c, 0, 64, 34
2, 40554, Control_c, 0, 64, 26
2, 40574, Control_c, 0, 64, 0
2, 40664, Note_on_c, 0, 72, 0
2, 40758, Note_on_c, 0, 68, 73
2, 41065, Note_on_c, 0, 72, 75
2, 41112, Note_on_c, 0, 68, 0
2, 41359, Note_on_c, 0, 76, 69
2, 41433, Note_on_c, 0, 72, 0
2, 41497, Note_on_c, 0, 56, 0
2, 41664, Note_on_c, 0, 77, 75
2, 41677, Note_on_c, 0, 44, 0
2, 41758, Note_on_c, 0, 76, 0
2, 41964, Note_on_c, 0, 79, 80
2, 41965, Note_on_c, 0, 56, 56
2, 42005, Note_on_c, 0, 77, 0
2, 42242, Note_on_c, 0, 55, 51
2, 42259, Note_on_c, 0, 76, 75
2, 42300, Note_on_c, 0, 56, 0
2, 42304, Note_on_c, 0, 79, 0
2, 42544, Note_on_c, 0, 53, 55
2, 42545, Note_on_c, 0, 77, 80
2, 42605, Note_on_c, 0, 76, 0
2, 42688, Note_on_c, 0, 55, 0
2, 42823, Note_on_c, 0, 52, 49
2, 42876, Note_on_c, 0, 79, 82
2, 42884, Note_on_c, 0, 53, 0
2, 42930, Note_on_c, 0, 77, 0
2, 43174, Note_on_c, 0, 55, 52
2, 43186, Control_c, 0, 64, 11
2, 43204, Control_c, 0, 64, 47
2, 43224, Control_c, 0, 64, 59
2, 43243, Control_c, 0, 64, 63
2, 43263, Control_c, 0, 64, 64
2, 43281, Control_c, 0, 64, 65
2, 43301, Control_c, 0, 64, 67
2, 43320, Control_c, 0, 64, 72
2, 43339, Control_c, 0, 64, 81
2, 43358, Control_c, 0, 64, 91
2, 43378, Control_c, 0, 64, 100
2, 43397, Control_c, 0, 64, 104
2, 43416, Control_c, 0, 64, 108
2, 43435, Control_c, 0, 64, 113
2, 43455, Control_c, 0, 64, 123
2, 43457, Note_on_c, 0, 58, 61
2, 43473, Control_c, 0, 64, 127
2, 43473, Note_on_c, 0, 55, 0
2, 43548, Note_on_c, 0, 58, 0
2, 43704, Control_c, 0, 64, 123
2, 43723, Control_c, 0, 64, 121
2, 43743, Control_c, 0, 64, 118
2, 43752, Note_on_c, 0, 61, 68
2, 43761, Control_c, 0, 64, 116
2, 43781, Control_c, 0, 64, 114
2, 43800, Control_c, 0, 64, 112
2, 43819, Control_c, 0, 64, 112
2, 43835, Note_on_c, 0, 61, 0
2, 43838, Control_c, 0, 64, 111
2, 43849, Note_on_c, 0, 52, 0
2, 43858, Control_c, 0, 64, 110
2, 43877, Control_c, 0, 64, 110
2, 43896, Control_c, 0, 64, 109
2, 43915, Control_c, 0, 64, 108
2, 43935, Control_c, 0, 64, 106
2, 43953, Control_c, 0, 64, 104
2, 43973, Control_c, 0, 64, 102
2, 43992, Control_c, 0, 64, 100
2, 44011, Control_c, 0, 64, 97
2, 44030, Control_c, 0, 64, 94
2, 44049, Control_c, 0, 64, 91
2, 44061, Note_on_c, 0, 48, 64
2, 44069, Control_c, 0, 64, 87
2, 44087, Control_c, 0, 64, 82
2, 44107, Control_c, 0, 64, 75
2, 44126, Control_c, 0, 64, 67
2, 44146, Control_c, 0, 64, 55
2, 44164, Control_c, 0, 64, 20
2, 44184, Control_c, 0, 64, 0
2, 44364, Note_on_c, 0, 53, 58
2, 44661, Note_on_c, 0, 52, 56
2, 44706, Note_on_c, 0, 53, 0
2, 44971, Note_on_c, 0, 55, 60
2, 44973, Control_c, 0, 64, 50
2, 44991, Control_c, 0, 64, 63
2, 45010, Control_c, 0, 64, 67
2, 45030, Control_c, 0, 64, 75
2, 45048, Control_c, 0, 64, 96
2, 45068, Control_c, 0, 64, 127
2, 45076, Note_on_c, 0, 48, 0
2, 45105, Note_on_c, 0, 55, 0
2, 45117, Note_on_c, 0, 52, 0
2, 45314, Note_on_c, 0, 56, 64
2, 45318, Note_on_c, 0, 53, 58
2, 45394, Control_c, 0, 64, 102
2, 45414, Control_c, 0, 64, 82
2, 45433, Control_c, 0, 64, 66
2, 45453, Control_c, 0, 64, 37
2, 45471, Control_c, 0, 64, 0
2, 45627, Note_on_c, 0, 72, 78
2, 45661, Note_on_c, 0, 79, 0
2, 45933, Note_on_c, 0, 77, 79
2, 45990, Note_on_c, 0, 72, 0
2, 46254, Note_on_c, 0, 80, 79
2, 46438, Note_on_c, 0, 77, 0
2, 46482, Note_on_c, 0, 53, 0
2, 46540, Note_on_c, 0, 74, 68
2, 46575, Note_on_c, 0, 80, 0
2, 46825, Note_on_c, 0, 77, 66
2, 46836, Note_on_c, 0, 53, 47
2, 46875, Note_on_c, 0, 74, 0
2, 47117, Note_on_c, 0, 51, 46
2, 47131, Note_on_c, 0, 71, 63
2, 47149, Note_on_c, 0, 77, 0
2, 47303, Note_on_c, 0, 56, 0
2, 47331, Note_on_c, 0, 53, 0
2, 47401, Note_on_c, 0, 50, 50
2, 47403, Note_on_c, 0, 72, 69
2, 47440, Note_on_c, 0, 71, 0
2, 47463, Note_on_c, 0, 51, 0
2, 47627, Note_on_c, 0, 72, 0
2, 47687, Note_on_c, 0, 50, 0
2, 47718, Note_on_c, 0, 55, 57
2, 47760, Note_on_c, 0, 72, 67
2, 47874, Note_on_c, 0, 72, 0
2, 47898, Note_on_c, 0, 71, 56
2, 47970, Note_on_c, 0, 71, 0
2, 47976, Note_on_c, 0, 72, 61
2, 48033, Note_on_c, 0, 72, 0
2, 48045, Note_on_c, 0, 71, 55
2, 48078, Note_on_c, 0, 59, 66
2, 48121, Note_on_c, 0, 72, 66
2, 48124, Note_on_c, 0, 71, 0
2, 48201, Note_on_c, 0, 71, 62
2, 48209, Note_on_c, 0, 72, 0
2, 48363, Note_on_c, 0, 62, 66
2, 48627, Note_on_c, 0, 55, 0
2, 48636, Note_on_c, 0, 67, 54
2, 48637, Note_on_c, 0, 72, 81
2, 48712, Note_on_c, 0, 71, 0
2, 48923, Note_on_c, 0, 56, 69
2, 48988, Note_on_c, 0, 74, 67
2, 48999, Note_on_c, 0, 59, 0
2, 49008, Note_on_c, 0, 72, 0
2, 49020, Note_on_c, 0, 62, 0
2, 49088, Note_on_c, 0, 67, 0
2, 49148, Note_on_c, 0, 72, 72
2, 49153, Note_on_c, 0, 74, 0
2, 49270, Note_on_c, 0, 72, 0
2, 49273, Note_on_c, 0, 67, 61
2, 49273, Note_on_c, 0, 74, 70
2, 49379, Note_on_c, 0, 74, 0
2, 49383, Note_on_c, 0, 72, 72
2, 49466, Note_on_c, 0, 72, 0
2, 49471, Note_on_c, 0, 74, 65
2, 49519, Note_on_c, 0, 65, 65
2, 49545, Note_on_c, 0, 67, 0
2, 49557, Note_on_c, 0, 72, 69
2, 49565, Note_on_c, 0, 74, 0
2, 49649, Note_on_c, 0, 72, 0
2, 49652, Note_on_c, 0, 74, 64
2, 49719, Note_on_c, 0, 72, 67
2, 49781, Note_on_c, 0, 74, 0
2, 49803, Note_on_c, 0, 68, 66
2, 49806, Note_on_c, 0, 65, 0
2, 49814, Note_on_c, 0, 71, 78
2, 49835, Note_on_c, 0, 72, 0
2, 49947, Note_on_c, 0, 72, 78
2, 49981, Note_on_c, 0, 71, 0
2, 50079, Note_on_c, 0, 72, 0
2, 50098, Note_on_c, 0, 59, 62
2, 50107, Note_on_c, 0, 74, 75
2, 50169, Note_on_c, 0, 68, 0
2, 50221, Note_on_c, 0, 56, 0
2, 50417, Note_on_c, 0, 79, 84
2, 50716, Note_on_c, 0, 62, 60
2, 50722, Note_on_c, 0, 77, 78
2, 50752, Note_on_c, 0, 79, 0
2, 51047, Note_on_c, 0, 80, 81
2, 51075, Note_on_c, 0, 74, 0
2, 51110, Note_on_c, 0, 77, 0
2, 51337, Note_on_c, 0, 67, 67
2, 51342, Note_on_c, 0, 80, 0
2, 51350, Note_on_c, 0, 71, 70
2, 51457, Note_on_c, 0, 59, 0
2, 51492, Note_on_c, 0, 62, 0
2, 51650, Note_on_c, 0, 80, 82
2, 51938, Note_on_c, 0, 55, 62
2, 51947, Note_on_c, 0, 79, 76
2, 51980, Note_on_c, 0, 80, 0
2, 52120, Note_on_c, 0, 67, 0
2, 52250, Note_on_c, 0, 77, 76
2, 52301, Note_on_c, 0, 79, 0
2, 52497, Note_on_c, 0, 71, 0
2, 52552, Note_on_c, 0, 60, 58
2, 52555, Note_on_c, 0, 75, 75
2, 52586, Note_on_c, 0, 77, 0
2, 52620, Note_on_c, 0, 55, 0
2, 52934, Note_on_c, 0, 84, 79
2, 53226, Note_on_c, 0, 56, 65
2, 53240, Note_on_c, 0, 77, 75
2, 53249, Note_on_c, 0, 75, 0
2, 53530, Note_on_c, 0, 83, 85
2, 53569, Note_on_c, 0, 84, 0
2, 53813, Note_on_c, 0, 51, 58
2, 53830, Note_on_c, 0, 84, 89
2, 53883, Note_on_c, 0, 83, 0
2, 53884, Note_on_c, 0, 77, 0
2, 53921, Note_on_c, 0, 56, 0
2, 54134, Note_on_c, 0, 79, 85
2, 54385, Note_on_c, 0, 51, 0
2, 54408, Note_on_c, 0, 53, 55
2, 54415, Note_on_c, 0, 80, 78
2, 54510, Note_on_c, 0, 79, 0
2, 54519, Note_on_c, 0, 84, 0
2, 54739, Note_on_c, 0, 77, 78
2, 54763, Note_on_c, 0, 80, 0
2, 55062, Note_on_c, 0, 55, 53
2, 55091, Note_on_c, 0, 53, 0
2, 55149, Note_on_c, 0, 75, 75
2, 55169, Note_on_c, 0, 77, 0
2, 55512, Note_on_c, 0, 71, 54
2, 55799, Note_on_c, 0, 72, 62
2, 55809, Note_on_c, 0, 71, 0
2, 56081, Note_on_c, 0, 66, 48
2, 56125, Control_c, 0, 64, 46
2, 56144, Control_c, 0, 64, 60
2, 56162, Control_c, 0, 64, 64
2, 56182, Control_c, 0, 64, 67
2, 56201, Control_c, 0, 64, 70
2, 56220, Control_c, 0, 64, 79
2, 56239, Control_c, 0, 64, 112
2, 56259, Control_c, 0, 64, 127
2, 56291, Note_on_c, 0, 60, 0
2, 56319, Note_on_c, 0, 66, 0
2, 56398, Note_on_c, 0, 67, 54
2, 56417, Note_on_c, 0, 72, 0
2, 56423, Note_on_c, 0, 75, 0
2, 56470, Control_c, 0, 64, 121
2, 56490, Control_c, 0, 64, 105
2, 56508, Control_c, 0, 64, 98
2, 56528, Control_c, 0, 64, 91
2, 56547, Control_c, 0, 64, 85
2, 56566, Control_c, 0, 64, 78
2, 56585, Control_c, 0, 64, 72
2, 56605, Control_c, 0, 64, 68
2, 56624, Control_c, 0, 64, 64
2, 56642, Control_c, 0, 64, 63
2, 56662, Control_c, 0, 64, 62
2, 56694, Note_on_c, 0, 72, 65
2, 56700, Control_c, 0, 64, 61
2, 56719, Control_c, 0, 64, 60
2, 56739, Control_c, 0, 64, 59
2, 56758, Control_c, 0, 64, 56
2, 56777, Control_c, 0, 64, 54
2, 56796, Control_c, 0, 64, 52
2, 56816, Control_c, 0, 64, 49
2, 56835, Control_c, 0, 64, 45
2, 56854, Control_c, 0, 64, 39
2, 56873, Control_c, 0, 64, 27
2, 56893, Control_c, 0, 64, 0
2, 56984, Note_on_c, 0, 67, 0
2, 57005, Note_on_c, 0, 59, 46
2, 57011, Note_on_c, 0, 74, 60
2, 57038, Note_on_c, 0, 72, 0
2, 57180, Control_c, 0, 64, 48
2, 57199, Control_c, 0, 64, 62
2, 57219, Control_c, 0, 64, 67
2, 57238, Control_c, 0, 64, 70
2, 57257, Control_c, 0, 64, 75
2, 57276, Control_c, 0, 64, 86
2, 57296, Control_c, 0, 64, 105
2, 57315, Control_c, 0, 64, 127
2, 57321, Note_on_c, 0, 65, 52
2, 57346, Note_on_c, 0, 59, 0
2, 57368, Note_on_c, 0, 74, 0
2, 57660, Control_c, 0, 64, 118
2, 57665, Note_on_c, 0, 48, 43
2, 57670, Note_on_c, 0, 72, 62
2, 57679, Control_c, 0, 64, 107
2, 57682, Note_on_c, 0, 60, 38
2, 57699, Control_c, 0, 64, 98
2, 57718, Control_c, 0, 64, 87
2, 57737, Control_c, 0, 64, 75
2, 57741, Note_on_c, 0, 65, 0
2, 57756, Control_c, 0, 64, 63
2, 57776, Control_c, 0, 64, 50
2, 57795, Control_c, 0, 64, 37
2, 57814, Control_c, 0, 64, 36
2, 57822, Note_on_c, 0, 55, 0
2, 57833, Control_c, 0, 64, 34
2, 57853, Control_c, 0, 64, 9
2, 57873, Control_c, 0, 64, 0
2, 58018, Note_on_c, 0, 65, 54
2, 58087, Note_on_c, 0, 60, 0
2, 58360, Note_on_c, 0, 55, 51
2, 58372, Note_on_c, 0, 64, 49
2, 58403, Note_on_c, 0, 65, 0
2, 58681, Note_on_c, 0, 67, 42
2, 58684, Note_on_c, 0, 64, 0
2, 58992, Note_on_c, 0, 60, 43
2, 59026, Note_on_c, 0, 67, 0
2, 59290, Note_on_c, 0, 53, 42
2, 59364, Note_on_c, 0, 60, 0
2, 59531, Note_on_c, 0, 55, 0
2, 59610, Note_on_c, 0, 52, 41
2, 59641, Note_on_c, 0, 72, 0
2, 59664, Note_on_c, 0, 53, 0
2, 59908, Note_on_c, 0, 48, 0
2, 59937, Note_on_c, 0, 55, 40
2, 59946, Note_on_c, 0, 52, 0
2, 60382, Note_on_c, 0, 45, 33
2, 60397, Note_on_c, 0, 65, 46
2, 60654, Note_on_c, 0, 55, 0
2, 60771, Note_on_c, 0, 69, 54
2, 61075, Note_on_c, 0, 53, 42
2, 61084, Note_on_c, 0, 72, 53
2, 61207, Note_on_c, 0, 69, 0
2, 61232, Control_c, 0, 64, 36
2, 61250, Control_c, 0, 64, 60
2, 61270, Control_c, 0, 64, 66
2, 61277, Note_on_c, 0, 45, 0
2, 61289, Control_c, 0, 64, 73
2, 61308, Control_c, 0, 64, 84
2, 61327, Control_c, 0, 64, 101
2, 61347, Control_c, 0, 64, 127
2, 61385, Note_on_c, 0, 75, 62
2, 61396, Note_on_c, 0, 65, 0
2, 61682, Note_on_c, 0, 41, 46
2, 61694, Note_on_c, 0, 72, 0
2, 61698, Note_on_c, 0, 69, 56
2, 61704, Note_on_c, 0, 75, 0
2, 61715, Control_c, 0, 64, 114
2, 61734, Control_c, 0, 64, 102
2, 61754, Control_c, 0, 64, 90
2, 61773, Control_c, 0, 64, 80
2, 61792, Control_c, 0, 64, 71
2, 61811, Control_c, 0, 64, 65
2, 61831, Control_c, 0, 64, 61
2, 61849, Control_c, 0, 64, 58
2, 61888, Control_c, 0, 64, 58
2, 61908, Control_c, 0, 64, 57
2, 61922, Note_on_c, 0, 53, 0
2, 61926, Control_c, 0, 64, 54
2, 61945, Control_c, 0, 64, 51
2, 61964, Control_c, 0, 64, 47
2, 61983, Control_c, 0, 64, 44
2, 61995, Note_on_c, 0, 78, 65
2, 62002, Control_c, 0, 64, 39
2, 62022, Control_c, 0, 64, 27
2, 62041, Control_c, 0, 64, 0
2, 62305, Note_on_c, 0, 53, 37
2, 62306, Note_on_c, 0, 72, 56
2, 62387, Control_c, 0, 64, 34
2, 62403, Note_on_c, 0, 78, 0
2, 62405, Control_c, 0, 64, 61
2, 62425, Control_c, 0, 64, 67
2, 62444, Control_c, 0, 64, 73
2, 62463, Control_c, 0, 64, 82
2, 62482, Control_c, 0, 64, 95
2, 62502, Control_c, 0, 64, 127
2, 62509, Note_on_c, 0, 53, 0
2, 62510, Note_on_c, 0, 41, 0
2, 62607, Note_on_c, 0, 75, 67
2, 62661, Note_on_c, 0, 69, 0
2, 62662, Note_on_c, 0, 72, 0
2, 62847, Control_c, 0, 64, 118
2, 62867, Control_c, 0, 64, 111
2, 62883, Control_c, 0, 64, 106
2, 62903, Control_c, 0, 64, 100
2, 62911, Note_on_c, 0, 46, 46
2, 62915, Note_on_c, 0, 73, 69
2, 62922, Control_c, 0, 64, 93
2, 62942, Control_c, 0, 64, 85
2, 62947, Note_on_c, 0, 75, 0
2, 62960, Control_c, 0, 64, 77
2, 62980, Control_c, 0, 64, 70
2, 62999, Control_c, 0, 64, 64
2, 63019, Control_c, 0, 64, 61
2, 63037, Control_c, 0, 64, 60
2, 63057, Control_c, 0, 64, 59
2, 63076, Control_c, 0, 64, 59
2, 63094, Control_c, 0, 64, 57
2, 63114, Control_c, 0, 64, 54
2, 63133, Control_c, 0, 64, 48
2, 63153, Control_c, 0, 64, 43
2, 63171, Control_c, 0, 64, 36
2, 63191, Control_c, 0, 64, 31
2, 63210, Control_c, 0, 64, 23
2, 63229, Control_c, 0, 64, 0
2, 63242, Note_on_c, 0, 49, 51
2, 63543, Note_on_c, 0, 70, 66
2, 63551, Note_on_c, 0, 53, 52
2, 63671, Control_c, 0, 64, 32
2, 63690, Control_c, 0, 64, 56
2, 63709, Control_c, 0, 64, 65
2, 63728, Control_c, 0, 64, 68
2, 63748, Control_c, 0, 64, 73
2, 63767, Control_c, 0, 64, 79
2, 63786, Control_c, 0, 64, 87
2, 63805, Control_c, 0, 64, 93
2, 63825, Control_c, 0, 64, 97
2, 63842, Note_on_c, 0, 58, 59
2, 63843, Control_c, 0, 64, 97
2, 63844, Note_on_c, 0, 70, 0
2, 63850, Note_on_c, 0, 49, 0
2, 63853, Note_on_c, 0, 46, 0
2, 63979, Control_c, 0, 64, 96
2, 63997, Control_c, 0, 64, 95
2, 64013, Note_on_c, 0, 53, 0
2, 64017, Control_c, 0, 64, 94
2, 64036, Control_c, 0, 64, 93
2, 64054, Control_c, 0, 64, 91
2, 64074, Control_c, 0, 64, 90
2, 64093, Control_c, 0, 64, 89
2, 64113, Control_c, 0, 64, 87
2, 64121, Note_on_c, 0, 48, 52
2, 64131, Control_c, 0, 64, 86
2, 64145, Note_on_c, 0, 64, 63
2, 64151, Control_c, 0, 64, 83
2, 64170, Control_c, 0, 64, 79
2, 64178, Note_on_c, 0, 58, 0
2, 64189, Control_c, 0, 64, 74
2, 64208, Control_c, 0, 64, 68
2, 64228, Control_c, 0, 64, 63
2, 64247, Control_c, 0, 64, 59
2, 64258, Note_on_c, 0, 73, 0
2, 64266, Control_c, 0, 64, 56
2, 64285, Control_c, 0, 64, 53
2, 64305, Control_c, 0, 64, 48
2, 64323, Control_c, 0, 64, 39
2, 64343, Control_c, 0, 64, 15
2, 64362, Control_c, 0, 64, 0
2, 64443, Note_on_c, 0, 58, 61
2, 64720, Note_on_c, 0, 72, 74
2, 64728, Note_on_c, 0, 56, 55
2, 64763, Note_on_c, 0, 58, 0
2, 64880, Control_c, 0, 64, 53
2, 64898, Note_on_c, 0, 48, 0
2, 64900, Control_c, 0, 64, 66
2, 64919, Control_c, 0, 64, 75
2, 64939, Control_c, 0, 64, 87
2, 64957, Control_c, 0, 64, 98
2, 64958, Note_on_c, 0, 64, 0
2, 64977, Control_c, 0, 64, 111
2, 64996, Control_c, 0, 64, 127
2, 65040, Note_on_c, 0, 60, 60
2, 65132, Note_on_c, 0, 56, 0
2, 65188, Control_c, 0, 64, 123
2, 65207, Control_c, 0, 64, 113
2, 65226, Control_c, 0, 64, 108
2, 65245, Control_c, 0, 64, 104
2, 65265, Control_c, 0, 64, 102
2, 65283, Control_c, 0, 64, 101
2, 65303, Control_c, 0, 64, 100
2, 65322, Control_c, 0, 64, 99
2, 65342, Control_c, 0, 64, 98
2, 65360, Control_c, 0, 64, 96
2, 65373, Note_on_c, 0, 50, 49
2, 65378, Note_on_c, 0, 72, 0
2, 65379, Note_on_c, 0, 53, 46
2, 65380, Control_c, 0, 64, 93
2, 65393, Note_on_c, 0, 65, 54
2, 65399, Control_c, 0, 64, 89
2, 65419, Control_c, 0, 64, 83
2, 65437, Control_c, 0, 64, 76
2, 65457, Control_c, 0, 64, 68
2, 65476, Control_c, 0, 64, 63
2, 65494, Control_c, 0, 64, 57
2, 65494, Note_on_c, 0, 60, 0
2, 65514, Control_c, 0, 64, 51
2, 65533, Control_c, 0, 64, 46
2, 65553, Control_c, 0, 64, 37
2, 65571, Control_c, 0, 64, 0
2, 65684, Note_on_c, 0, 53, 0
2, 65703, Note_on_c, 0, 70, 69
2, 65723, Note_on_c, 0, 65, 0
2, 65855, Note_on_c, 0, 50, 0
2, 65996, Note_on_c, 0, 52, 52
2, 65998, Note_on_c, 0, 55, 52
2, 66001, Note_on_c, 0, 67, 60
2, 66236, Note_on_c, 0, 70, 0
2, 66294, Note_on_c, 0, 67, 0
2, 66303, Note_on_c, 0, 64, 70
2, 66365, Note_on_c, 0, 52, 0
2, 66432, Note_on_c, 0, 55, 0
2, 66594, Note_on_c, 0, 56, 57
2, 66599, Note_on_c, 0, 53, 59
2, 66609, Note_on_c, 0, 60, 58
2, 66663, Note_on_c, 0, 64, 0
2, 66912, Note_on_c, 0, 64, 63
2, 66948, Note_on_c, 0, 60, 0
2, 67190, Note_on_c, 0, 64, 0
2, 67203, Control_c, 0, 64, 13
2, 67209, Note_on_c, 0, 65, 53
2, 67222, Control_c, 0, 64, 38
2, 67241, Control_c, 0, 64, 50
2, 67261, Control_c, 0, 64, 58
2, 67279, Control_c, 0, 64, 61
2, 67299, Control_c, 0, 64, 64
2, 67318, Control_c, 0, 64, 68
2, 67338, Control_c, 0, 64, 74
2, 67356, Control_c, 0, 64, 83
2, 67375, Control_c, 0, 64, 92
2, 67393, Control_c, 0, 64, 100
2, 67411, Control_c, 0, 64, 103
2, 67431, Control_c, 0, 64, 105
2, 67450, Control_c, 0, 64, 105
2, 67507, Note_on_c, 0, 71, 68
2, 67528, Control_c, 0, 64, 105
2, 67547, Control_c, 0, 64, 104
2, 67550, Note_on_c, 0, 56, 0
2, 67552, Note_on_c, 0, 53, 0
2, 67566, Control_c, 0, 64, 102
2, 67586, Control_c, 0, 64, 102
2, 67605, Control_c, 0, 64, 101
2, 67613, Note_on_c, 0, 65, 0
2, 67624, Control_c, 0, 64, 100
2, 67643, Control_c, 0, 64, 100
2, 67663, Control_c, 0, 64, 99
2, 67681, Control_c, 0, 64, 98
2, 67701, Control_c, 0, 64, 97
2, 67720, Control_c, 0, 64, 96
2, 67740, Control_c, 0, 64, 95
2, 67758, Control_c, 0, 64, 94
2, 67778, Control_c, 0, 64, 93
2, 67797, Control_c, 0, 64, 92
2, 67817, Control_c, 0, 64, 91
2, 67835, Control_c, 0, 64, 91
2, 67854, Control_c, 0, 64, 90
2, 67861, Note_on_c, 0, 55, 47
2, 67874, Control_c, 0, 64, 89
2, 67880, Note_on_c, 0, 48, 46
2, 67892, Control_c, 0, 64, 88
2, 67912, Control_c, 0, 64, 86
2, 67914, Note_on_c, 0, 72, 67
2, 67931, Control_c, 0, 64, 84
2, 67951, Control_c, 0, 64, 80
2, 67968, Note_on_c, 0, 71, 0
2, 67969, Control_c, 0, 64, 74
2, 67989, Control_c, 0, 64, 68
2, 68008, Control_c, 0, 64, 63
2, 68027, Control_c, 0, 64, 55
2, 68046, Control_c, 0, 64, 48
2, 68066, Control_c, 0, 64, 45
2, 68085, Control_c, 0, 64, 39
2, 68104, Control_c, 0, 64, 22
2, 68123, Control_c, 0, 64, 0
2, 68267, Note_on_c, 0, 65, 45
2, 68535, Note_on_c, 0, 65, 0
2, 68558, Note_on_c, 0, 64, 47
2, 68839, Note_on_c, 0, 67, 50
2, 69064, Note_on_c, 0, 72, 0
2, 69141, Note_on_c, 0, 70, 56
2, 69341, Note_on_c, 0, 67, 0
2, 69433, Note_on_c, 0, 73, 62
2, 69590, Note_on_c, 0, 70, 0
2, 69738, Note_on_c, 0, 72, 58
2, 69808, Note_on_c, 0, 73, 0
2, 70024, Note_on_c, 0, 49, 49
2, 70032, Note_on_c, 0, 70, 65
2, 70131, Note_on_c, 0, 72, 0
2, 70302, Note_on_c, 0, 48, 0
2, 70331, Note_on_c, 0, 55, 0
2, 70340, Note_on_c, 0, 51, 45
2, 70346, Note_on_c, 0, 53, 47
2, 70351, Note_on_c, 0, 69, 68
2, 70382, Note_on_c, 0, 70, 0
2, 70396, Note_on_c, 0, 64, 0
2, 70446, Note_on_c, 0, 49, 0
2, 70447, Control_c, 0, 64, 48
2, 70467, Control_c, 0, 64, 64
2, 70486, Control_c, 0, 64, 69
2, 70505, Control_c, 0, 64, 76
2, 70519, Note_on_c, 0, 53, 0
2, 70524, Control_c, 0, 64, 86
2, 70544, Control_c, 0, 64, 98
2, 70548, Note_on_c, 0, 51, 0
2, 70562, Control_c, 0, 64, 112
2, 70582, Control_c, 0, 64, 127
2, 70659, Control_c, 0, 64, 123
2, 70669, Note_on_c, 0, 65, 73
2, 70678, Control_c, 0, 64, 116
2, 70696, Control_c, 0, 64, 111
2, 70716, Control_c, 0, 64, 108
2, 70726, Note_on_c, 0, 69, 0
2, 70735, Control_c, 0, 64, 106
2, 70755, Control_c, 0, 64, 105
2, 70773, Control_c, 0, 64, 104
2, 70793, Control_c, 0, 64, 102
2, 70812, Control_c, 0, 64, 100
2, 70831, Control_c, 0, 64, 98
2, 70850, Control_c, 0, 64, 97
2, 70870, Control_c, 0, 64, 96
2, 70889, Control_c, 0, 64, 95
2, 70908, Control_c, 0, 64, 94
2, 70927, Control_c, 0, 64, 93
2, 70947, Control_c, 0, 64, 90
2, 70966, Control_c, 0, 64, 86
2, 70985, Control_c, 0, 64, 82
2, 71004, Control_c, 0, 64, 77
2, 71019, Note_on_c, 0, 63, 74
2, 71024, Control_c, 0, 64, 73
2, 71030, Note_on_c, 0, 69, 68
2, 71042, Control_c, 0, 64, 69
2, 71062, Control_c, 0, 64, 66
2, 71081, Control_c, 0, 64, 64
2, 71101, Control_c, 0, 64, 62
2, 71106, Note_on_c, 0, 65, 0
2, 71119, Control_c, 0, 64, 61
2, 71139, Control_c, 0, 64, 58
2, 71158, Control_c, 0, 64, 55
2, 71176, Control_c, 0, 64, 50
2, 71196, Control_c, 0, 64, 44
2, 71215, Control_c, 0, 64, 29
2, 71235, Control_c, 0, 64, 0
2, 71330, Note_on_c, 0, 72, 77
2, 71385, Note_on_c, 0, 69, 0
2, 71543, Note_on_c, 0, 63, 0
2, 71612, Note_on_c, 0, 77, 75
2, 71614, Note_on_c, 0, 72, 0
2, 71620, Note_on_c, 0, 61, 67
2, 71921, Note_on_c, 0, 70, 79
2, 72012, Note_on_c, 0, 61, 0
2, 72201, Note_on_c, 0, 60, 59
2, 72218, Note_on_c, 0, 69, 72
2, 72253, Note_on_c, 0, 70, 0
2, 72502, Control_c, 0, 64, 41
2, 72521, Control_c, 0, 64, 61
2, 72522, Note_on_c, 0, 75, 79
2, 72541, Control_c, 0, 64, 66
2, 72552, Note_on_c, 0, 77, 0
2, 72559, Control_c, 0, 64, 71
2, 72561, Note_on_c, 0, 60, 0
2, 72567, Note_on_c, 0, 69, 0
2, 72579, Control_c, 0, 64, 80
2, 72598, Control_c, 0, 64, 95
2, 72616, Control_c, 0, 64, 127
2, 72845, Note_on_c, 0, 58, 52
2, 72874, Note_on_c, 0, 75, 0
2, 72896, Note_on_c, 0, 73, 73
2, 72905, Control_c, 0, 64, 119
2, 72924, Control_c, 0, 64, 116
2, 72944, Control_c, 0, 64, 113
2, 72962, Control_c, 0, 64, 112
2, 72982, Control_c, 0, 64, 110
2, 73001, Control_c, 0, 64, 107
2, 73021, Control_c, 0, 64, 105
2, 73039, Control_c, 0, 64, 103
2, 73059, Control_c, 0, 64, 100
2, 73078, Control_c, 0, 64, 97
2, 73096, Control_c, 0, 64, 94
2, 73116, Control_c, 0, 64, 90
2, 73135, Control_c, 0, 64, 85
2, 73155, Control_c, 0, 64, 78
2, 73173, Control_c, 0, 64, 69
2, 73193, Control_c, 0, 64, 63
2, 73212, Control_c, 0, 64, 55
2, 73224, Note_on_c, 0, 53, 42
2, 73231, Note_on_c, 0, 68, 54
2, 73232, Control_c, 0, 64, 49
2, 73251, Control_c, 0, 64, 43
2, 73271, Control_c, 0, 64, 25
2, 73290, Control_c, 0, 64, 0
2, 73504, Note_on_c, 0, 49, 48
2, 73520, Note_on_c, 0, 67, 48
2, 73529, Note_on_c, 0, 68, 0
2, 73614, Note_on_c, 0, 53, 0
2, 73780, Note_on_c, 0, 58, 0
2, 73791, Note_on_c, 0, 46, 44
2, 73801, Note_on_c, 0, 70, 53
2, 73811, Note_on_c, 0, 67, 0
2, 73911, Note_on_c, 0, 49, 0
2, 74100, Note_on_c, 0, 55, 42
2, 74102, Note_on_c, 0, 64, 53
2, 74149, Note_on_c, 0, 73, 0
2, 74163, Note_on_c, 0, 70, 0
2, 74380, Note_on_c, 0, 48, 40
2, 74427, Note_on_c, 0, 46, 0
2, 74462, Note_on_c, 0, 72, 71
2, 74536, Note_on_c, 0, 64, 0
2, 74719, Note_on_c, 0, 49, 41
2, 74732, Note_on_c, 0, 65, 51
2, 74781, Note_on_c, 0, 48, 0
2, 75032, Note_on_c, 0, 70, 64
2, 75035, Note_on_c, 0, 46, 43
2, 75036, Note_on_c, 0, 49, 0
2, 75062, Note_on_c, 0, 65, 0
2, 75152, Note_on_c, 0, 72, 0
2, 75313, Note_on_c, 0, 48, 49
2, 75327, Note_on_c, 0, 64, 55
2, 75343, Note_on_c, 0, 55, 0
2, 75368, Note_on_c, 0, 46, 0
2, 75381, Note_on_c, 0, 70, 0
2, 75615, Note_on_c, 0, 73, 70
2, 75625, Note_on_c, 0, 55, 51
2, 75668, Control_c, 0, 64, 9
2, 75687, Control_c, 0, 64, 44
2, 75706, Control_c, 0, 64, 56
2, 75725, Control_c, 0, 64, 62
2, 75745, Control_c, 0, 64, 64
2, 75764, Control_c, 0, 64, 66
2, 75783, Control_c, 0, 64, 68
2, 75797, Note_on_c, 0, 73, 0
2, 75802, Control_c, 0, 64, 73
2, 75822, Control_c, 0, 64, 80
2, 75841, Control_c, 0, 64, 90
2, 75860, Control_c, 0, 64, 99
2, 75879, Control_c, 0, 64, 103
2, 75899, Control_c, 0, 64, 102
2, 75909, Note_on_c, 0, 72, 73
2, 75917, Control_c, 0, 64, 91
2, 75921, Note_on_c, 0, 56, 73
2, 75936, Control_c, 0, 64, 77
2, 75956, Control_c, 0, 64, 63
2, 75966, Note_on_c, 0, 64, 0
2, 75975, Control_c, 0, 64, 0
2, 75991, Note_on_c, 0, 55, 0
2, 76013, Control_c, 0, 64, 15
2, 76033, Control_c, 0, 64, 54
2, 76051, Control_c, 0, 64, 67
2, 76071, Control_c, 0, 64, 76
2, 76090, Control_c, 0, 64, 101
2, 76111, Control_c, 0, 64, 127
2, 76207, Control_c, 0, 64, 114
2, 76214, Note_on_c, 0, 59, 81
2, 76221, Note_on_c, 0, 65, 68
2, 76227, Control_c, 0, 64, 77
2, 76246, Control_c, 0, 64, 56
2, 76265, Control_c, 0, 64, 0
2, 76268, Note_on_c, 0, 56, 0
2, 76304, Control_c, 0, 64, 52
2, 76321, Control_c, 0, 64, 65
2, 76341, Control_c, 0, 64, 72
2, 76360, Control_c, 0, 64, 83
2, 76380, Control_c, 0, 64, 98
2, 76398, Control_c, 0, 64, 117
2, 76405, Note_on_c, 0, 59, 0
2, 76417, Control_c, 0, 64, 127
2, 76437, Control_c, 0, 64, 121
2, 76456, Control_c, 0, 64, 117
2, 76475, Control_c, 0, 64, 115
2, 76494, Control_c, 0, 64, 110
2, 76514, Control_c, 0, 64, 98
2, 76518, Note_on_c, 0, 68, 81
2, 76521, Note_on_c, 0, 60, 84
2, 76532, Control_c, 0, 64, 81
2, 76552, Control_c, 0, 64, 64
2, 76554, Note_on_c, 0, 72, 0
2, 76570, Note_on_c, 0, 65, 0
2, 76571, Control_c, 0, 64, 0
2, 76744, Control_c, 0, 64, 49
2, 76763, Control_c, 0, 64, 62
2, 76783, Control_c, 0, 64, 66
2, 76801, Control_c, 0, 64, 69
2, 76821, Control_c, 0, 64, 74
2, 76827, Note_on_c, 0, 65, 76
2, 76840, Control_c, 0, 64, 82
2, 76852, Note_on_c, 0, 48, 0
2, 76860, Control_c, 0, 64, 96
2, 76878, Control_c, 0, 64, 127
2, 77109, Control_c, 0, 64, 123
2, 77128, Control_c, 0, 64, 95
2, 77128, Note_on_c, 0, 48, 74
2, 77133, Note_on_c, 0, 64, 79
2, 77147, Control_c, 0, 64, 73
2, 77166, Control_c, 0, 64, 51
2, 77169, Note_on_c, 0, 65, 0
2, 77186, Control_c, 0, 64, 0
2, 77205, Note_on_c, 0, 68, 0
2, 77285, Note_on_c, 0, 60, 0
2, 77320, Control_c, 0, 64, 36
2, 77340, Control_c, 0, 64, 63
2, 77354, Note_on_c, 0, 48, 0
2, 77358, Control_c, 0, 64, 70
2, 77377, Control_c, 0, 64, 83
2, 77397, Control_c, 0, 64, 127
2, 77444, Note_on_c, 0, 67, 82
2, 77483, Note_on_c, 0, 64, 0
2, 77857, Control_c, 0, 64, 119
2, 77857, Note_on_c, 0, 49, 67
2, 77877, Control_c, 0, 64, 107
2, 77896, Control_c, 0, 64, 101
2, 77915, Control_c, 0, 64, 95
2, 77934, Control_c, 0, 64, 90
2, 77939, Note_on_c, 0, 65, 77
2, 77952, Note_on_c, 0, 67, 0
2, 77954, Control_c, 0, 64, 83
2, 77972, Control_c, 0, 64, 75
2, 77992, Control_c, 0, 64, 68
2, 78011, Control_c, 0, 64, 63
2, 78030, Control_c, 0, 64, 56
2, 78048, Control_c, 0, 64, 52
2, 78068, Control_c, 0, 64, 47
2, 78087, Control_c, 0, 64, 31
2, 78106, Control_c, 0, 64, 0
2, 78361, Note_on_c, 0, 68, 64
2, 78673, Note_on_c, 0, 72, 69
2, 78744, Note_on_c, 0, 68, 0
2, 78969, Note_on_c, 0, 77, 73
2, 79101, Note_on_c, 0, 65, 0
2, 79276, Note_on_c, 0, 58, 68
2, 79276, Note_on_c, 0, 67, 62
2, 79306, Note_on_c, 0, 77, 0
2, 79340, Note_on_c, 0, 72, 0
2, 79578, Note_on_c, 0, 77, 74
2, 79872, Note_on_c, 0, 77, 0
2, 79879, Note_on_c, 0, 76, 72
2, 79968, Control_c, 0, 64, 25
2, 79988, Control_c, 0, 64, 56
2, 80007, Control_c, 0, 64, 67
2, 80027, Control_c, 0, 64, 78
2, 80045, Control_c, 0, 64, 123
2, 80065, Control_c, 0, 64, 127
2, 80174, Note_on_c, 0, 67, 0
2, 80185, Note_on_c, 0, 79, 78
2, 80232, Note_on_c, 0, 58, 0
2, 80401, Note_on_c, 0, 49, 0
2, 80407, Note_on_c, 0, 76, 0
2, 80523, Note_on_c, 0, 68, 78
2, 80529, Note_on_c, 0, 48, 60
2, 80530, Note_on_c, 0, 60, 67
2, 80582, Control_c, 0, 64, 115
2, 80601, Control_c, 0, 64, 101
2, 80621, Control_c, 0, 64, 90
2, 80640, Control_c, 0, 64, 78
2, 80658, Control_c, 0, 64, 68
2, 80678, Control_c, 0, 64, 59
2, 80697, Control_c, 0, 64, 44
2, 80716, Control_c, 0, 64, 17
2, 80735, Control_c, 0, 64, 0
2, 80818, Note_on_c, 0, 79, 0
2, 80847, Note_on_c, 0, 72, 75
2, 81148, Note_on_c, 0, 77, 72
2, 81426, Note_on_c, 0, 76, 72
2, 81467, Note_on_c, 0, 77, 0
2, 81703, Note_on_c, 0, 56, 61
2, 81764, Note_on_c, 0, 77, 75
2, 81765, Note_on_c, 0, 72, 0
2, 81787, Note_on_c, 0, 76, 0
2, 81820, Note_on_c, 0, 60, 0
2, 81823, Note_on_c, 0, 68, 0
2, 82066, Note_on_c, 0, 72, 64
2, 82350, Note_on_c, 0, 70, 64
2, 82589, Note_on_c, 0, 77, 0
2, 82644, Note_on_c, 0, 68, 71
2, 82682, Note_on_c, 0, 72, 0
2, 82906, Note_on_c, 0, 58, 51
2, 82966, Note_on_c, 0, 73, 69
2, 83014, Note_on_c, 0, 70, 0
2, 83042, Note_on_c, 0, 68, 0
2, 83052, Note_on_c, 0, 56, 0
2, 83293, Note_on_c, 0, 68, 65
2, 83591, Note_on_c, 0, 67, 60
2, 83649, Note_on_c, 0, 68, 0
2, 83880, Note_on_c, 0, 70, 65
2, 83905, Note_on_c, 0, 67, 0
2, 84162, Note_on_c, 0, 55, 50
2, 84178, Note_on_c, 0, 64, 63
2, 84187, Note_on_c, 0, 73, 0
2, 84263, Note_on_c, 0, 58, 0
2, 84476, Note_on_c, 0, 73, 70
2, 84511, Note_on_c, 0, 70, 0
2, 84766, Note_on_c, 0, 72, 69
2, 84813, Note_on_c, 0, 73, 0
2, 85068, Note_on_c, 0, 70, 74
2, 85077, Control_c, 0, 64, 41
2, 85096, Control_c, 0, 64, 55
2, 85115, Control_c, 0, 64, 62
2, 85134, Control_c, 0, 64, 65
2, 85154, Control_c, 0, 64, 70
2, 85166, Note_on_c, 0, 72, 0
2, 85172, Control_c, 0, 64, 77
2, 85172, Note_on_c, 0, 64, 0
2, 85192, Control_c, 0, 64, 89
2, 85211, Control_c, 0, 64, 100
2, 85231, Control_c, 0, 64, 104
2, 85326, Control_c, 0, 64, 102
2, 85346, Control_c, 0, 64, 101
2, 85365, Control_c, 0, 64, 98
2, 85373, Note_on_c, 0, 56, 51
2, 85384, Control_c, 0, 64, 95
2, 85403, Control_c, 0, 64, 91
2, 85422, Note_on_c, 0, 68, 65
2, 85423, Control_c, 0, 64, 88
2, 85423, Note_on_c, 0, 65, 52
2, 85440, Note_on_c, 0, 70, 0
2, 85441, Control_c, 0, 64, 85
2, 85459, Note_on_c, 0, 55, 0
2, 85461, Control_c, 0, 64, 82
2, 85480, Control_c, 0, 64, 80
2, 85499, Control_c, 0, 64, 78
2, 85518, Control_c, 0, 64, 76
2, 85537, Control_c, 0, 64, 74
2, 85557, Control_c, 0, 64, 72
2, 85576, Control_c, 0, 64, 71
2, 85595, Control_c, 0, 64, 69
2, 85614, Control_c, 0, 64, 68
2, 85634, Control_c, 0, 64, 66
2, 85652, Control_c, 0, 64, 65
2, 85672, Control_c, 0, 64, 64
2, 85691, Control_c, 0, 64, 63
2, 85711, Control_c, 0, 64, 62
2, 85729, Control_c, 0, 64, 60
2, 85749, Control_c, 0, 64, 57
2, 85760, Note_on_c, 0, 63, 60
2, 85768, Control_c, 0, 64, 53
2, 85771, Note_on_c, 0, 65, 0
2, 85787, Control_c, 0, 64, 47
2, 85806, Control_c, 0, 64, 40
2, 85826, Control_c, 0, 64, 22
2, 85845, Control_c, 0, 64, 0
2, 86050, Note_on_c, 0, 62, 65
2, 86087, Note_on_c, 0, 63, 0
2, 86331, Note_on_c, 0, 65, 64
2, 86345, Note_on_c, 0, 62, 0
2, 86616, Note_on_c, 0, 53, 47
2, 86637, Note_on_c, 0, 59, 60
2, 86645, Note_on_c, 0, 68, 0
2, 86684, Note_on_c, 0, 56, 0
2, 86902, Note_on_c, 0, 65, 0
2, 86937, Note_on_c, 0, 68, 66
2, 87244, Note_on_c, 0, 67, 59
2, 87266, Note_on_c, 0, 68, 0
2, 87304, Control_c, 0, 64, 38
2, 87323, Control_c, 0, 64, 56
2, 87343, Control_c, 0, 64, 63
2, 87361, Control_c, 0, 64, 65
2, 87381, Control_c, 0, 64, 66
2, 87400, Control_c, 0, 64, 69
2, 87419, Control_c, 0, 64, 76
2, 87438, Control_c, 0, 64, 87
2, 87457, Control_c, 0, 64, 100
2, 87477, Control_c, 0, 64, 110
2, 87496, Control_c, 0, 64, 112
2, 87515, Control_c, 0, 64, 115
2, 87525, Note_on_c, 0, 65, 65
2, 87534, Control_c, 0, 64, 119
2, 87546, Note_on_c, 0, 67, 0
2, 87554, Control_c, 0, 64, 127
2, 87587, Note_on_c, 0, 65, 0
2, 87726, Control_c, 0, 64, 123
2, 87746, Control_c, 0, 64, 118
2, 87765, Control_c, 0, 64, 114
2, 87784, Control_c, 0, 64, 110
2, 87792, Note_on_c, 0, 55, 49
2, 87803, Control_c, 0, 64, 106
2, 87823, Control_c, 0, 64, 101
2, 87841, Control_c, 0, 64, 96
2, 87857, Note_on_c, 0, 64, 64
2, 87861, Control_c, 0, 64, 91
2, 87880, Control_c, 0, 64, 85
2, 87894, Note_on_c, 0, 59, 0
2, 87899, Control_c, 0, 64, 76
2, 87918, Control_c, 0, 64, 70
2, 87937, Control_c, 0, 64, 64
2, 87950, Note_on_c, 0, 53, 0
2, 87957, Control_c, 0, 64, 59
2, 87976, Control_c, 0, 64, 54
2, 87995, Control_c, 0, 64, 52
2, 88014, Control_c, 0, 64, 51
2, 88034, Control_c, 0, 64, 48
2, 88052, Control_c, 0, 64, 40
2, 88072, Control_c, 0, 64, 20
2, 88091, Control_c, 0, 64, 0
2, 88159, Note_on_c, 0, 60, 62
2, 88445, Note_on_c, 0, 58, 65
2, 88450, Note_on_c, 0, 60, 0
2, 88612, Control_c, 0, 64, 46
2, 88632, Control_c, 0, 64, 60
2, 88651, Control_c, 0, 64, 64
2, 88670, Control_c, 0, 64, 66
2, 88689, Control_c, 0, 64, 67
2, 88709, Control_c, 0, 64, 69
2, 88710, Note_on_c, 0, 55, 0
2, 88727, Control_c, 0, 64, 73
2, 88732, Note_on_c, 0, 61, 64
2, 88747, Control_c, 0, 64, 78
2, 88748, Note_on_c, 0, 58, 0
2, 88766, Control_c, 0, 64, 82
2, 88786, Control_c, 0, 64, 83
2, 88801, Control_c, 0, 64, 84
2, 88917, Control_c, 0, 64, 83
2, 88955, Control_c, 0, 64, 83
2, 88974, Control_c, 0, 64, 82
2, 88994, Control_c, 0, 64, 82
2, 89012, Control_c, 0, 64, 81
2, 89032, Control_c, 0, 64, 81
2, 89042, Note_on_c, 0, 52, 47
2, 89051, Control_c, 0, 64, 79
2, 89059, Note_on_c, 0, 55, 53
2, 89071, Control_c, 0, 64, 77
2, 89071, Note_on_c, 0, 61, 0
2, 89089, Control_c, 0, 64, 74
2, 89109, Control_c, 0, 64, 71
2, 89128, Control_c, 0, 64, 67
2, 89147, Control_c, 0, 64, 63
2, 89166, Control_c, 0, 64, 56
2, 89186, Control_c, 0, 64, 46
2, 89205, Control_c, 0, 64, 25
2, 89224, Control_c, 0, 64, 0
2, 89354, Note_on_c, 0, 61, 57
2, 89402, Note_on_c, 0, 55, 0
2, 89666, Note_on_c, 0, 60, 52
2, 89695, Note_on_c, 0, 61, 0
2, 89896, Control_c, 0, 64, 30
2, 89915, Control_c, 0, 64, 52
2, 89934, Control_c, 0, 64, 62
2, 89954, Control_c, 0, 64, 66
2, 89971, Note_on_c, 0, 60, 0
2, 89972, Control_c, 0, 64, 71
2, 89980, Note_on_c, 0, 58, 47
2, 89984, Note_on_c, 0, 52, 0
2, 89992, Control_c, 0, 64, 78
2, 90011, Control_c, 0, 64, 90
2, 90031, Control_c, 0, 64, 115
2, 90049, Control_c, 0, 64, 127
2, 90129, Note_on_c, 0, 58, 0
2, 90175, Note_on_c, 0, 64, 0
2, 90418, Note_on_c, 0, 56, 46
2, 90422, Note_on_c, 0, 53, 45
2, 90472, Control_c, 0, 64, 117
2, 90491, Control_c, 0, 64, 106
2, 90511, Control_c, 0, 64, 96
2, 90529, Control_c, 0, 64, 86
2, 90549, Control_c, 0, 64, 76
2, 90568, Control_c, 0, 64, 67
2, 90587, Control_c, 0, 64, 60
2, 90606, Control_c, 0, 64, 52
2, 90626, Control_c, 0, 64, 49
2, 90645, Control_c, 0, 64, 42
2, 90664, Control_c, 0, 64, 9
2, 90683, Control_c, 0, 64, 0
2, 90892, Note_on_c, 0, 72, 56
2, 91204, Note_on_c, 0, 70, 56
2, 91219, Control_c, 0, 64, 36
2, 91223, Note_on_c, 0, 72, 0
2, 91239, Control_c, 0, 64, 53
2, 91258, Control_c, 0, 64, 60
2, 91273, Note_on_c, 0, 53, 0
2, 91277, Control_c, 0, 64, 63
2, 91296, Control_c, 0, 64, 64
2, 91316, Control_c, 0, 64, 66
2, 91335, Control_c, 0, 64, 69
2, 91354, Control_c, 0, 64, 73
2, 91373, Control_c, 0, 64, 77
2, 91393, Control_c, 0, 64, 81
2, 91411, Control_c, 0, 64, 82
2, 91469, Note_on_c, 0, 56, 0
2, 91489, Note_on_c, 0, 73, 59
2, 91513, Note_on_c, 0, 70, 0
2, 91527, Control_c, 0, 64, 82
2, 91585, Control_c, 0, 64, 81
2, 91623, Control_c, 0, 64, 81
2, 91681, Control_c, 0, 64, 80
2, 91699, Control_c, 0, 64, 80
2, 91719, Control_c, 0, 64, 79
2, 91738, Control_c, 0, 64, 79
2, 91757, Control_c, 0, 64, 78
2, 91776, Control_c, 0, 64, 77
2, 91786, Note_on_c, 0, 55, 38
2, 91796, Control_c, 0, 64, 75
2, 91796, Note_on_c, 0, 58, 39
2, 91796, Note_on_c, 0, 73, 0
2, 91799, Note_on_c, 0, 64, 47
2, 91815, Control_c, 0, 64, 72
2, 91834, Control_c, 0, 64, 68
2, 91853, Control_c, 0, 64, 62
2, 91873, Control_c, 0, 64, 41
2, 91891, Control_c, 0, 64, 0
2, 92078, Note_on_c, 0, 73, 55
2, 92097, Note_on_c, 0, 64, 0
2, 92379, Note_on_c, 0, 72, 55
2, 92410, Control_c, 0, 64, 22
2, 92430, Control_c, 0, 64, 47
2, 92436, Note_on_c, 0, 73, 0
2, 92448, Control_c, 0, 64, 56
2, 92468, Control_c, 0, 64, 59
2, 92487, Control_c, 0, 64, 61
2, 92507, Control_c, 0, 64, 63
2, 92525, Control_c, 0, 64, 64
2, 92542, Note_on_c, 0, 58, 0
2, 92545, Control_c, 0, 64, 65
2, 92564, Control_c, 0, 64, 66
2, 92583, Control_c, 0, 64, 67
2, 92601, Note_on_c, 0, 55, 0
2, 92602, Control_c, 0, 64, 69
2, 92622, Control_c, 0, 64, 71
2, 92641, Control_c, 0, 64, 73
2, 92659, Control_c, 0, 64, 74
2, 92669, Note_on_c, 0, 70, 58
2, 92679, Control_c, 0, 64, 75
2, 92697, Note_on_c, 0, 72, 0
2, 92698, Control_c, 0, 64, 74
2, 92736, Control_c, 0, 64, 74
2, 92756, Control_c, 0, 64, 73
2, 92794, Control_c, 0, 64, 73
2, 92813, Control_c, 0, 64, 72
2, 92851, Control_c, 0, 64, 72
2, 92910, Control_c, 0, 64, 71
2, 92943, Note_on_c, 0, 70, 0
2, 92967, Control_c, 0, 64, 71
2, 92971, Note_on_c, 0, 56, 43
2, 92980, Note_on_c, 0, 68, 56
2, 92985, Note_on_c, 0, 60, 35
2, 92987, Control_c, 0, 64, 70
2, 93005, Control_c, 0, 64, 70
2, 93025, Control_c, 0, 64, 69
2, 93044, Control_c, 0, 64, 68
2, 93063, Control_c, 0, 64, 66
2, 93082, Control_c, 0, 64, 64
2, 93102, Control_c, 0, 64, 58
2, 93121, Control_c, 0, 64, 50
2, 93139, Control_c, 0, 64, 46
2, 93159, Control_c, 0, 64, 38
2, 93178, Control_c, 0, 64, 0
2, 93294, Note_on_c, 0, 79, 61
2, 93579, Note_on_c, 0, 79, 0
2, 93586, Note_on_c, 0, 77, 57
2, 93739, Note_on_c, 0, 68, 0
2, 93771, Control_c, 0, 64, 24
2, 93791, Control_c, 0, 64, 46
2, 93810, Control_c, 0, 64, 58
2, 93822, Note_on_c, 0, 56, 0
2, 93829, Control_c, 0, 64, 62
2, 93848, Control_c, 0, 64, 64
2, 93868, Control_c, 0, 64, 64
2, 93872, Note_on_c, 0, 80, 64
2, 93886, Control_c, 0, 64, 66
2, 93906, Control_c, 0, 64, 68
2, 93925, Control_c, 0, 64, 73
2, 93938, Note_on_c, 0, 77, 0
2, 93945, Control_c, 0, 64, 80
2, 93963, Control_c, 0, 64, 84
2, 93983, Control_c, 0, 64, 84
2, 94059, Control_c, 0, 64, 84
2, 94097, Control_c, 0, 64, 83
2, 94117, Control_c, 0, 64, 83
2, 94136, Control_c, 0, 64, 82
2, 94156, Control_c, 0, 64, 81
2, 94162, Note_on_c, 0, 80, 0
2, 94174, Control_c, 0, 64, 80
2, 94183, Note_on_c, 0, 56, 45
2, 94184, Note_on_c, 0, 53, 36
2, 94194, Control_c, 0, 64, 80
2, 94196, Note_on_c, 0, 71, 53
2, 94213, Control_c, 0, 64, 79
2, 94232, Control_c, 0, 64, 78
2, 94251, Control_c, 0, 64, 76
2, 94271, Control_c, 0, 64, 73
2, 94290, Control_c, 0, 64, 68
2, 94308, Note_on_c, 0, 60, 0
2, 94309, Control_c, 0, 64, 64
2, 94328, Control_c, 0, 64, 60
2, 94348, Control_c, 0, 64, 58
2, 94386, Control_c, 0, 64, 57
2, 94405, Control_c, 0, 64, 55
2, 94425, Control_c, 0, 64, 49
2, 94443, Control_c, 0, 64, 27
2, 94463, Control_c, 0, 64, 0
2, 94486, Note_on_c, 0, 80, 63
2, 94516, Note_on_c, 0, 71, 0
2, 94770, Control_c, 0, 64, 34
2, 94775, Note_on_c, 0, 79, 62
2, 94789, Control_c, 0, 64, 50
2, 94808, Control_c, 0, 64, 57
2, 94828, Control_c, 0, 64, 60
2, 94846, Control_c, 0, 64, 62
2, 94866, Control_c, 0, 64, 63
2, 94885, Control_c, 0, 64, 64
2, 94895, Note_on_c, 0, 80, 0
2, 94905, Control_c, 0, 64, 66
2, 94923, Control_c, 0, 64, 68
2, 94943, Control_c, 0, 64, 69
2, 94962, Control_c, 0, 64, 71
2, 94981, Control_c, 0, 64, 72
2, 95004, Note_on_c, 0, 56, 0
2, 95039, Control_c, 0, 64, 72
2, 95060, Note_on_c, 0, 77, 63
2, 95076, Note_on_c, 0, 79, 0
2, 95111, Note_on_c, 0, 53, 0
2, 95134, Control_c, 0, 64, 72
2, 95173, Control_c, 0, 64, 71
2, 95269, Control_c, 0, 64, 71
2, 95326, Control_c, 0, 64, 70
2, 95346, Control_c, 0, 64, 70
2, 95361, Note_on_c, 0, 55, 40
2, 95366, Note_on_c, 0, 58, 36
2, 95371, Note_on_c, 0, 76, 61
2, 95385, Control_c, 0, 64, 69
2, 95403, Control_c, 0, 64, 69
2, 95421, Note_on_c, 0, 77, 0
2, 95423, Control_c, 0, 64, 68
2, 95442, Control_c, 0, 64, 66
2, 95461, Control_c, 0, 64, 63
2, 95480, Control_c, 0, 64, 53
2, 95499, Control_c, 0, 64, 23
2, 95519, Control_c, 0, 64, 0
2, 95663, Note_on_c, 0, 77, 71
2, 95738, Note_on_c, 0, 76, 0
2, 95957, Note_on_c, 0, 79, 67
2, 95978, Note_on_c, 0, 77, 0
2, 96134, Control_c, 0, 64, 43
2, 96153, Control_c, 0, 64, 59
2, 96172, Control_c, 0, 64, 63
2, 96192, Control_c, 0, 64, 64
2, 96211, Control_c, 0, 64, 65
2, 96223, Note_on_c, 0, 55, 0
2, 96230, Control_c, 0, 64, 67
2, 96249, Control_c, 0, 64, 71
2, 96270, Control_c, 0, 64, 81
2, 96274, Note_on_c, 0, 76, 57
2, 96288, Control_c, 0, 64, 92
2, 96301, Note_on_c, 0, 79, 0
2, 96308, Control_c, 0, 64, 99
2, 96327, Control_c, 0, 64, 101
2, 96341, Note_on_c, 0, 58, 0
2, 96365, Control_c, 0, 64, 101
2, 96499, Control_c, 0, 64, 101
2, 96519, Control_c, 0, 64, 100
2, 96538, Control_c, 0, 64, 99
2, 96557, Control_c, 0, 64, 99
2, 96576, Control_c, 0, 64, 98
2, 96596, Control_c, 0, 64, 98
2, 96615, Control_c, 0, 64, 97
2, 96653, Control_c, 0, 64, 96
2, 96673, Control_c, 0, 64, 96
2, 96689, Note_on_c, 0, 55, 40
2, 96691, Control_c, 0, 64, 94
2, 96698, Note_on_c, 0, 52, 40
2, 96711, Control_c, 0, 64, 93
2, 96730, Control_c, 0, 64, 92
2, 96750, Control_c, 0, 64, 90
2, 96768, Control_c, 0, 64, 88
2, 96787, Note_on_c, 0, 82, 69
2, 96788, Control_c, 0, 64, 86
2, 96807, Control_c, 0, 64, 84
2, 96814, Note_on_c, 0, 76, 0
2, 96827, Control_c, 0, 64, 81
2, 96845, Control_c, 0, 64, 76
2, 96865, Control_c, 0, 64, 71
2, 96884, Control_c, 0, 64, 65
2, 96903, Control_c, 0, 64, 60
2, 96922, Control_c, 0, 64, 55
2, 96941, Control_c, 0, 64, 52
2, 96961, Control_c, 0, 64, 49
2, 96979, Control_c, 0, 64, 42
2, 96999, Control_c, 0, 64, 17
2, 97018, Control_c, 0, 64, 0
2, 97214, Note_on_c, 0, 73, 57
2, 97293, Note_on_c, 0, 82, 0
2, 97458, Control_c, 0, 64, 27
2, 97478, Control_c, 0, 64, 48
2, 97497, Control_c, 0, 64, 57
2, 97514, Note_on_c, 0, 73, 0
2, 97516, Note_on_c, 0, 72, 62
2, 97517, Control_c, 0, 64, 61
2, 97535, Control_c, 0, 64, 62
2, 97555, Control_c, 0, 64, 63
2, 97574, Control_c, 0, 64, 65
2, 97593, Control_c, 0, 64, 67
2, 97612, Control_c, 0, 64, 68
2, 97632, Control_c, 0, 64, 71
2, 97651, Control_c, 0, 64, 73
2, 97670, Control_c, 0, 64, 74
2, 97673, Note_on_c, 0, 52, 0
2, 97689, Control_c, 0, 64, 74
2, 97819, Note_on_c, 0, 70, 60
2, 97861, Control_c, 0, 64, 74
2, 97861, Note_on_c, 0, 72, 0
2, 97938, Control_c, 0, 64, 73
2, 97977, Control_c, 0, 64, 73
2, 98015, Control_c, 0, 64, 72
2, 98054, Control_c, 0, 64, 72
2, 98073, Control_c, 0, 64, 71
2, 98092, Control_c, 0, 64, 71
2, 98111, Note_on_c, 0, 60, 42
2, 98112, Control_c, 0, 64, 70
2, 98112, Note_on_c, 0, 53, 34
2, 98119, Note_on_c, 0, 68, 58
2, 98131, Control_c, 0, 64, 69
2, 98148, Note_on_c, 0, 70, 0
2, 98150, Control_c, 0, 64, 68
2, 98169, Control_c, 0, 64, 66
2, 98189, Control_c, 0, 64, 64
2, 98192, Note_on_c, 0, 55, 0
2, 98207, Control_c, 0, 64, 58
2, 98227, Control_c, 0, 64, 47
2, 98246, Control_c, 0, 64, 13
2, 98266, Control_c, 0, 64, 0
2, 98423, Note_on_c, 0, 70, 64
2, 98524, Note_on_c, 0, 68, 0
2, 98717, Note_on_c, 0, 72, 66
2, 98726, Control_c, 0, 64, 27
2, 98746, Control_c, 0, 64, 46
2, 98764, Control_c, 0, 64, 58
2, 98780, Note_on_c, 0, 70, 0
2, 98781, Note_on_c, 0, 60, 0
2, 98784, Control_c, 0, 64, 62
2, 98803, Control_c, 0, 64, 63
2, 98821, Control_c, 0, 64, 64
2, 98841, Control_c, 0, 64, 65
2, 98860, Control_c, 0, 64, 67
2, 98880, Control_c, 0, 64, 70
2, 98898, Control_c, 0, 64, 77
2, 98918, Control_c, 0, 64, 84
2, 98937, Control_c, 0, 64, 88
2, 98957, Control_c, 0, 64, 89
2, 99001, Note_on_c, 0, 65, 63
2, 99018, Note_on_c, 0, 72, 0
2, 99129, Control_c, 0, 64, 88
2, 99187, Control_c, 0, 64, 88
2, 99226, Control_c, 0, 64, 87
2, 99244, Control_c, 0, 64, 87
2, 99264, Control_c, 0, 64, 86
2, 99283, Control_c, 0, 64, 86
2, 99292, Note_on_c, 0, 59, 47
2, 99301, Control_c, 0, 64, 85
2, 99321, Control_c, 0, 64, 84
2, 99340, Control_c, 0, 64, 83
2, 99344, Note_on_c, 0, 74, 64
2, 99359, Control_c, 0, 64, 81
2, 99377, Control_c, 0, 64, 78
2, 99397, Control_c, 0, 64, 73
2, 99416, Control_c, 0, 64, 65
2, 99436, Control_c, 0, 64, 47
2, 99454, Control_c, 0, 64, 0
2, 99628, Control_c, 0, 64, 46
2, 99646, Control_c, 0, 64, 61
2, 99646, Note_on_c, 0, 68, 64
2, 99658, Note_on_c, 0, 65, 0
2, 99666, Control_c, 0, 64, 66
2, 99685, Control_c, 0, 64, 71
2, 99705, Control_c, 0, 64, 78
2, 99723, Control_c, 0, 64, 87
2, 99743, Control_c, 0, 64, 95
2, 99762, Control_c, 0, 64, 100
2, 99762, Note_on_c, 0, 74, 0
2, 99781, Control_c, 0, 64, 102
2, 99906, Note_on_c, 0, 53, 0
2, 99916, Control_c, 0, 64, 101
2, 99934, Note_on_c, 0, 67, 61
2, 99954, Control_c, 0, 64, 101
2, 99959, Note_on_c, 0, 68, 0
2, 99992, Control_c, 0, 64, 100
2, 100011, Control_c, 0, 64, 100
2, 100031, Control_c, 0, 64, 99
2, 100069, Control_c, 0, 64, 98
2, 100088, Control_c, 0, 64, 98
2, 100148, Control_c, 0, 64, 97
2, 100165, Note_on_c, 0, 67, 0
2, 100205, Control_c, 0, 64, 97
2, 100225, Control_c, 0, 64, 96
2, 100225, Note_on_c, 0, 65, 67
2, 100262, Control_c, 0, 64, 96
2, 100359, Control_c, 0, 64, 95
2, 100416, Control_c, 0, 64, 95
2, 100474, Control_c, 0, 64, 94
2, 100526, Note_on_c, 0, 55, 49
2, 100551, Control_c, 0, 64, 93
2, 100570, Control_c, 0, 64, 91
2, 100575, Note_on_c, 0, 64, 72
2, 100586, Note_on_c, 0, 65, 0
2, 100590, Control_c, 0, 64, 88
2, 100608, Control_c, 0, 64, 82
2, 100628, Control_c, 0, 64, 73
2, 100647, Control_c, 0, 64, 63
2, 100662, Note_on_c, 0, 59, 0
2, 100667, Control_c, 0, 64, 27
2, 100685, Control_c, 0, 64, 0
2, 100781, Control_c, 0, 64, 47
2, 100801, Control_c, 0, 64, 62
2, 100819, Control_c, 0, 64, 67
2, 100839, Control_c, 0, 64, 72
2, 100858, Control_c, 0, 64, 80
2, 100877, Control_c, 0, 64, 92
2, 100896, Control_c, 0, 64, 108
2, 100916, Control_c, 0, 64, 123
2, 100935, Control_c, 0, 64, 127
2, 100937, Note_on_c, 0, 60, 68
2, 101070, Note_on_c, 0, 55, 0
2, 101101, Note_on_c, 0, 48, 0
2, 101106, Note_on_c, 0, 60, 0
2, 101108, Control_c, 0, 64, 123
2, 101127, Control_c, 0, 64, 119
2, 101147, Control_c, 0, 64, 118
2, 101165, Control_c, 0, 64, 116
2, 101185, Control_c, 0, 64, 115
2, 101204, Control_c, 0, 64, 114
2, 101222, Control_c, 0, 64, 112
2, 101228, Note_on_c, 0, 55, 67
2, 101242, Control_c, 0, 64, 111
2, 101261, Control_c, 0, 64, 110
2, 101281, Control_c, 0, 64, 108
2, 101299, Control_c, 0, 64, 107
2, 101319, Control_c, 0, 64, 106
2, 101338, Control_c, 0, 64, 105
2, 101357, Control_c, 0, 64, 104
2, 101376, Control_c, 0, 64, 103
2, 101396, Control_c, 0, 64, 103
2, 101442, Note_on_c, 0, 64, 0
2, 101453, Control_c, 0, 64, 102
2, 101511, Control_c, 0, 64, 101
2, 101518, Note_on_c, 0, 58, 76
2, 101530, Control_c, 0, 64, 101
2, 101550, Control_c, 0, 64, 100
2, 101562, Note_on_c, 0, 55, 0
2, 101568, Control_c, 0, 64, 99
2, 101588, Control_c, 0, 64, 98
2, 101607, Control_c, 0, 64, 97
2, 101627, Control_c, 0, 64, 96
2, 101645, Control_c, 0, 64, 96
2, 101665, Control_c, 0, 64, 95
2, 101684, Control_c, 0, 64, 94
2, 101702, Control_c, 0, 64, 94
2, 101722, Control_c, 0, 64, 93
2, 101741, Control_c, 0, 64, 92
2, 101761, Control_c, 0, 64, 91
2, 101779, Control_c, 0, 64, 89
2, 101799, Control_c, 0, 64, 88
2, 101808, Note_on_c, 0, 65, 72
2, 101818, Control_c, 0, 64, 86
2, 101819, Note_on_c, 0, 56, 68
2, 101837, Control_c, 0, 64, 83
2, 101841, Note_on_c, 0, 58, 0
2, 101856, Control_c, 0, 64, 79
2, 101876, Control_c, 0, 64, 74
2, 101895, Control_c, 0, 64, 69
2, 101914, Control_c, 0, 64, 64
2, 101933, Control_c, 0, 64, 61
2, 101953, Control_c, 0, 64, 58
2, 101974, Control_c, 0, 64, 56
2, 101993, Control_c, 0, 64, 54
2, 102013, Control_c, 0, 64, 50
2, 102032, Control_c, 0, 64, 45
2, 102051, Control_c, 0, 64, 35
2, 102073, Control_c, 0, 64, 0
2, 102119, Note_on_c, 0, 53, 71
2, 102428, Note_on_c, 0, 47, 63
2, 102479, Note_on_c, 0, 53, 0
2, 102663, Note_on_c, 0, 56, 0
2, 102756, Note_on_c, 0, 50, 76
2, 102760, Note_on_c, 0, 47, 0
2, 103225, Note_on_c, 0, 55, 63
2, 103254, Note_on_c, 0, 36, 69
2, 103270, Note_on_c, 0, 50, 0
2, 103704, Note_on_c, 0, 62, 71
2, 103721, Note_on_c, 0, 65, 0
2, 103786, Note_on_c, 0, 55, 0
2, 104053, Note_on_c, 0, 53, 58
2, 104056, Note_on_c, 0, 59, 70
2, 104065, Note_on_c, 0, 62, 0
2, 104380, Note_on_c, 0, 60, 68
2, 104442, Note_on_c, 0, 59, 0
2, 104475, Note_on_c, 0, 53, 0
2, 104740, Note_on_c, 0, 55, 67
2, 104830, Note_on_c, 0, 60, 0
2, 105098, Note_on_c, 0, 58, 66
2, 105463, Note_on_c, 0, 60, 69
2, 105625, Control_c, 0, 64, 18
2, 105644, Control_c, 0, 64, 56
2, 105664, Control_c, 0, 64, 65
2, 105682, Control_c, 0, 64, 71
2, 105702, Control_c, 0, 64, 82
2, 105706, Note_on_c, 0, 36, 0
2, 105721, Control_c, 0, 64, 95
2, 105741, Control_c, 0, 64, 127
2, 105878, Note_on_c, 0, 64, 79
2, 106037, Note_on_c, 0, 60, 0
2, 106060, Note_on_c, 0, 55, 0
2, 106084, Note_on_c, 0, 58, 0
2, 106131, Note_on_c, 0, 64, 0
2, 106643, Note_on_c, 0, 65, 67
2, 106650, Note_on_c, 0, 53, 49
2, 106653, Note_on_c, 0, 57, 53
2, 106654, Note_on_c, 0, 41, 45
2, 106656, Note_on_c, 0, 60, 52
2, 106774, Control_c, 0, 64, 102
2, 106793, Control_c, 0, 64, 89
2, 106813, Control_c, 0, 64, 76
2, 106833, Control_c, 0, 64, 64
2, 106852, Control_c, 0, 64, 42
2, 106871, Control_c, 0, 64, 0
2, 107599, Control_c, 0, 64, 11
2, 107617, Control_c, 0, 64, 15
2, 107637, Control_c, 0, 64, 20
2, 107656, Control_c, 0, 64, 23
2, 107674, Control_c, 0, 64, 27
2, 107694, Control_c, 0, 64, 31
2, 107713, Control_c, 0, 64, 36
2, 107733, Control_c, 0, 64, 40
2, 107751, Control_c, 0, 64, 44
2, 107771, Control_c, 0, 64, 47
2, 107790, Control_c, 0, 64, 49
2, 107809, Control_c, 0, 64, 50
2, 107828, Control_c, 0, 64, 52
2, 107848, Control_c, 0, 64, 54
2, 107867, Control_c, 0, 64, 56
2, 107886, Control_c, 0, 64, 59
2, 107905, Control_c, 0, 64, 61
2, 107925, Control_c, 0, 64, 62
2, 107944, Control_c, 0, 64, 63
2, 107963, Control_c, 0, 64, 63
2, 107982, Control_c, 0, 64, 65
2, 108002, Control_c, 0, 64, 67
2, 108020, Control_c, 0, 64, 70
2, 108040, Control_c, 0, 64, 74
2, 108059, Control_c, 0, 64, 78
2, 108079, Control_c, 0, 64, 83
2, 108097, Control_c, 0, 64, 87
2, 108117, Control_c, 0, 64, 91
2, 108136, Control_c, 0, 64, 94
2, 108154, Control_c, 0, 64, 96
2, 108174, Control_c, 0, 64, 97
2, 108241, Note_on_c, 0, 57, 0
2, 108409, Note_on_c, 0, 53, 0
2, 108547, Note_on_c, 0, 41, 0
2, 108559, Control_c, 0, 64, 97
2, 108597, Control_c, 0, 64, 96
2, 108673, Control_c, 0, 64, 96
2, 108749, Control_c, 0, 64, 95
2, 108844, Control_c, 0, 64, 95
2, 108863, Control_c, 0, 64, 94
2, 108883, Control_c, 0, 64, 94
2, 108902, Control_c, 0, 64, 93
2, 108921, Control_c, 0, 64, 93
2, 108940, Control_c, 0, 64, 92
2, 108952, Note_on_c, 0, 65, 0
2, 108957, Note_on_c, 0, 60, 0
2, 108960, Control_c, 0, 64, 91
2, 108979, Control_c, 0, 64, 90
2, 108999, Control_c, 0, 64, 90
2, 109018, Control_c, 0, 64, 89
2, 109038, Control_c, 0, 64, 88
2, 109056, Control_c, 0, 64, 88
2, 109075, Control_c, 0, 64, 87
2, 109113, Control_c, 0, 64, 86
2, 109133, Control_c, 0, 64, 86
2, 109229, Control_c, 0, 64, 85
2, 109344, Control_c, 0, 64, 85
2, 109402, Control_c, 0, 64, 84
2, 109421, Control_c, 0, 64, 84
2, 109459, Control_c, 0, 64, 83
2, 109479, Control_c, 0, 64, 83
2, 109518, Control_c, 0, 64, 82
2, 109555, Control_c, 0, 64, 81
2, 109575, Control_c, 0, 64, 80
2, 109593, Control_c, 0, 64, 79
2, 109613, Control_c, 0, 64, 78
2, 109632, Control_c, 0, 64, 78
2, 109652, Control_c, 0, 64, 77
2, 109670, Control_c, 0, 64, 77
2, 109709, Control_c, 0, 64, 76
2, 109728, Control_c, 0, 64, 76
2, 109747, Control_c, 0, 64, 75
2, 109767, Control_c, 0, 64, 74
2, 109786, Control_c, 0, 64, 73
2, 109805, Control_c, 0, 64, 72
2, 109824, Control_c, 0, 64, 71
2, 109844, Control_c, 0, 64, 70
2, 109863, Control_c, 0, 64, 68
2, 109882, Control_c, 0, 64, 67
2, 109901, Control_c, 0, 64, 66
2, 109921, Control_c, 0, 64, 66
2, 109939, Control_c, 0, 64, 65
2, 109959, Control_c, 0, 64, 65
2, 109978, Control_c, 0, 64, 64
2, 109998, Control_c, 0, 64, 63
2, 110016, Control_c, 0, 64, 63
2, 110035, Control_c, 0, 64, 62
2, 110055, Control_c, 0, 64, 62
2, 110073, Control_c, 0, 64, 61
2, 110093, Control_c, 0, 64, 61
2, 110112, Control_c, 0, 64, 60
2, 110132, Control_c, 0, 64, 59
2, 110150, Control_c, 0, 64, 58
2, 110170, Control_c, 0, 64, 57
2, 110189, Control_c, 0, 64, 55
2, 110208, Control_c, 0, 64, 53
2, 110227, Control_c, 0, 64, 50
2, 110247, Control_c, 0, 64, 46
2, 110266, Control_c, 0, 64, 39
2, 110285, Control_c, 0, 64, 23
2, 110304, Control_c, 0, 64, 0
2, 112216, Note_on_c, 0, 60, 43
2, 113216, Note_on_c, 0, 61, 52
2, 113463, Note_on_c, 0, 60, 0
2, 114213, Note_on_c, 0, 60, 44
2, 114403, Note_on_c, 0, 61, 0
2, 115149, Note_on_c, 0, 59, 42
2, 115358, Note_on_c, 0, 60, 0
2, 116103, Note_on_c, 0, 64, 59
2, 116396, Note_on_c, 0, 59, 0
2, 117104, Note_on_c, 0, 65, 46
2, 117229, Note_on_c, 0, 64, 0
2, 118068, Note_on_c, 0, 58, 40
2, 118276, Note_on_c, 0, 65, 0
2, 118983, Note_on_c, 0, 57, 41
2, 119145, Note_on_c, 0, 58, 0
2, 119917, Note_on_c, 0, 56, 41
2, 120075, Note_on_c, 0, 57, 0
2, 120967, Note_on_c, 0, 55, 36
2, 121157, Note_on_c, 0, 56, 0
2, 122781, Note_on_c, 0, 53, 29
2, 122929, Note_on_c, 0, 55, 0
2, 123066, Note_on_c, 0, 53, 0
2, 123221, Note_on_c, 0, 53, 45
2, 123402, Note_on_c, 0, 53, 0
2, 123432, Note_on_c, 0, 55, 42
2, 123649, Note_on_c, 0, 65, 65
2, 123668, Note_on_c, 0, 56, 39
2, 123768, Note_on_c, 0, 55, 0
2, 123902, Note_on_c, 0, 56, 0
2, 124067, Note_on_c, 0, 56, 47
2, 124290, Note_on_c, 0, 56, 0
2, 124293, Note_on_c, 0, 58, 50
2, 124416, Note_on_c, 0, 58, 0
2, 124487, Note_on_c, 0, 68, 72
2, 124498, Note_on_c, 0, 60, 44
2, 124569, Note_on_c, 0, 65, 0
2, 124653, Note_on_c, 0, 60, 0
2, 124682, Note_on_c, 0, 47, 54
2, 124901, Note_on_c, 0, 48, 49
2, 125040, Note_on_c, 0, 47, 0
2, 125081, Note_on_c, 0, 50, 54
2, 125139, Note_on_c, 0, 48, 0
2, 125320, Note_on_c, 0, 67, 62
2, 125331, Note_on_c, 0, 51, 42
2, 125397, Note_on_c, 0, 50, 0
2, 125411, Note_on_c, 0, 68, 0
2, 126163, Note_on_c, 0, 66, 59
2, 126215, Note_on_c, 0, 67, 0
2, 126233, Note_on_c, 0, 51, 0
2, 126376, Note_on_c, 0, 48, 49
2, 126571, Note_on_c, 0, 50, 64
2, 126719, Note_on_c, 0, 48, 0
2, 126740, Note_on_c, 0, 51, 61
2, 126802, Note_on_c, 0, 50, 0
2, 126979, Note_on_c, 0, 71, 72
2, 126993, Note_on_c, 0, 53, 52
2, 127056, Note_on_c, 0, 66, 0
2, 127062, Note_on_c, 0, 51, 0
2, 127863, Note_on_c, 0, 72, 80
2, 127901, Note_on_c, 0, 53, 0
2, 127917, Note_on_c, 0, 71, 0
2, 128047, Note_on_c, 0, 51, 53
2, 128255, Note_on_c, 0, 53, 59
2, 128407, Note_on_c, 0, 51, 0
2, 128453, Note_on_c, 0, 55, 49
2, 128459, Note_on_c, 0, 53, 0
2, 128688, Note_on_c, 0, 65, 56
2, 128722, Note_on_c, 0, 56, 43
2, 128753, Note_on_c, 0, 55, 0
2, 128756, Note_on_c, 0, 72, 0
2, 129560, Note_on_c, 0, 56, 0
2, 129579, Note_on_c, 0, 64, 49
2, 129631, Note_on_c, 0, 65, 0
2, 129763, Note_on_c, 0, 55, 44
2, 129967, Note_on_c, 0, 57, 41
2, 129988, Note_on_c, 0, 55, 0
2, 130139, Note_on_c, 0, 57, 0
2, 130155, Note_on_c, 0, 59, 46
2, 130414, Note_on_c, 0, 60, 33
2, 130417, Note_on_c, 0, 63, 40
2, 130459, Note_on_c, 0, 59, 0
2, 130483, Note_on_c, 0, 64, 0
2, 131311, Note_on_c, 0, 62, 45
2, 131317, Note_on_c, 0, 63, 0
2, 131733, Note_on_c, 0, 59, 40
2, 131820, Note_on_c, 0, 60, 0
2, 131910, Note_on_c, 0, 59, 0
2, 131931, Note_on_c, 0, 57, 43
2, 132099, Note_on_c, 0, 57, 0
2, 132146, Note_on_c, 0, 60, 42
2, 132235, Note_on_c, 0, 60, 0
2, 132254, Note_on_c, 0, 59, 52
2, 132316, Note_on_c, 0, 59, 0
2, 132366, Note_on_c, 0, 60, 44
2, 132419, Note_on_c, 0, 60, 0
2, 132439, Note_on_c, 0, 59, 56
2, 132493, Note_on_c, 0, 59, 0
2, 132538, Note_on_c, 0, 60, 53
2, 132589, Note_on_c, 0, 60, 0
2, 132606, Note_on_c, 0, 59, 57
2, 132655, Note_on_c, 0, 59, 0
2, 132682, Note_on_c, 0, 57, 54
2, 132776, Note_on_c, 0, 59, 57
2, 132834, Note_on_c, 0, 57, 0
2, 132872, Note_on_c, 0, 59, 0
2, 132910, Note_on_c, 0, 62, 0
2, 132918, Note_on_c, 0, 60, 51
2, 133205, Note_on_c, 0, 60, 0
2, 133341, Note_on_c, 0, 55, 54
2, 133356, Note_on_c, 0, 60, 53
2, 133534, Note_on_c, 0, 62, 57
2, 133572, Note_on_c, 0, 60, 0
2, 133786, Note_on_c, 0, 48, 69
2, 133797, Note_on_c, 0, 64, 56
2, 133828, Note_on_c, 0, 60, 33
2, 133849, Note_on_c, 0, 62, 0
2, 133971, Note_on_c, 0, 55, 0
2, 134221, Note_on_c, 0, 64, 0
2, 134222, Note_on_c, 0, 58, 60
2, 134228, Note_on_c, 0, 62, 59
2, 134245, Note_on_c, 0, 60, 0
2, 134420, Note_on_c, 0, 64, 64
2, 134468, Note_on_c, 0, 58, 0
2, 134495, Note_on_c, 0, 62, 0
2, 134623, Note_on_c, 0, 49, 72
2, 134637, Note_on_c, 0, 65, 61
2, 134652, Note_on_c, 0, 56, 47
2, 134664, Note_on_c, 0, 64, 0
2, 134793, Note_on_c, 0, 56, 0
2, 134798, Note_on_c, 0, 48, 0
2, 134813, Note_on_c, 0, 65, 0
2, 134830, Note_on_c, 0, 52, 68
2, 134968, Note_on_c, 0, 52, 0
2, 135035, Note_on_c, 0, 53, 53
2, 135070, Note_on_c, 0, 65, 76
2, 135223, Note_on_c, 0, 53, 0
2, 135245, Note_on_c, 0, 55, 60
2, 135459, Note_on_c, 0, 55, 0
2, 135462, Note_on_c, 0, 56, 73
2, 135477, Note_on_c, 0, 48, 65
2, 135534, Note_on_c, 0, 49, 0
2, 135897, Note_on_c, 0, 63, 63
2, 136299, Note_on_c, 0, 47, 69
2, 136307, Note_on_c, 0, 48, 0
2, 136316, Note_on_c, 0, 62, 50
2, 136367, Note_on_c, 0, 56, 0
2, 136436, Note_on_c, 0, 65, 0
2, 136494, Note_on_c, 0, 53, 63
2, 136512, Note_on_c, 0, 63, 0
2, 136529, Note_on_c, 0, 62, 0
2, 136684, Note_on_c, 0, 53, 0
2, 136715, Note_on_c, 0, 55, 58
2, 136727, Note_on_c, 0, 63, 68
2, 136894, Note_on_c, 0, 55, 0
2, 136898, Note_on_c, 0, 56, 59
2, 136905, Note_on_c, 0, 65, 67
2, 136974, Note_on_c, 0, 63, 0
2, 137144, Note_on_c, 0, 67, 64
2, 137145, Note_on_c, 0, 58, 73
2, 137159, Note_on_c, 0, 52, 68
2, 137175, Note_on_c, 0, 65, 0
2, 137199, Note_on_c, 0, 56, 0
2, 137253, Note_on_c, 0, 47, 0
2, 137359, Note_on_c, 0, 65, 64
2, 137533, Note_on_c, 0, 67, 0
2, 137562, Note_on_c, 0, 64, 67
2, 137725, Note_on_c, 0, 65, 0
2, 137768, Note_on_c, 0, 64, 0
2, 137776, Note_on_c, 0, 62, 63
2, 137971, Note_on_c, 0, 53, 73
2, 137976, Note_on_c, 0, 58, 0
2, 137982, Note_on_c, 0, 62, 0
2, 137993, Note_on_c, 0, 60, 65
2, 138020, Note_on_c, 0, 52, 0
2, 138188, Note_on_c, 0, 56, 66
2, 138386, Note_on_c, 0, 60, 0
2, 138396, Note_on_c, 0, 58, 53
2, 138591, Note_on_c, 0, 60, 51
2, 138791, Note_on_c, 0, 60, 0
2, 138799, Note_on_c, 0, 58, 0
2, 138800, Note_on_c, 0, 46, 67
2, 138821, Note_on_c, 0, 61, 57
2, 138831, Note_on_c, 0, 56, 0
2, 139040, Note_on_c, 0, 58, 58
2, 139224, Note_on_c, 0, 56, 61
2, 139283, Note_on_c, 0, 58, 0
2, 139369, Note_on_c, 0, 53, 0
2, 139426, Note_on_c, 0, 55, 62
2, 139447, Note_on_c, 0, 56, 0
2, 139612, Note_on_c, 0, 55, 0
2, 139637, Note_on_c, 0, 45, 64
2, 139637, Note_on_c, 0, 53, 68
2, 139703, Note_on_c, 0, 61, 0
2, 139779, Note_on_c, 0, 46, 0
2, 139837, Note_on_c, 0, 60, 70
2, 140032, Note_on_c, 0, 62, 67
2, 140218, Note_on_c, 0, 64, 69
2, 140238, Note_on_c, 0, 62, 0
2, 140412, Note_on_c, 0, 60, 0
2, 140423, Note_on_c, 0, 64, 0
2, 140433, Note_on_c, 0, 44, 75
2, 140434, Note_on_c, 0, 65, 68
2, 140446, Note_on_c, 0, 53, 0
2, 140493, Note_on_c, 0, 45, 0
2, 140636, Note_on_c, 0, 53, 58
2, 140696, Control_c, 0, 64, 9
2, 140707, Note_on_c, 0, 53, 0
2, 140715, Control_c, 0, 64, 21
2, 140734, Control_c, 0, 64, 24
2, 140753, Control_c, 0, 64, 25
2, 140792, Control_c, 0, 64, 26
2, 140839, Note_on_c, 0, 55, 65
2, 140927, Control_c, 0, 64, 27
2, 141023, Note_on_c, 0, 56, 70
2, 141031, Note_on_c, 0, 55, 0
2, 141275, Note_on_c, 0, 43, 72
2, 141291, Control_c, 0, 64, 26
2, 141292, Note_on_c, 0, 56, 0
2, 141294, Note_on_c, 0, 58, 59
2, 141327, Note_on_c, 0, 44, 0
2, 141330, Control_c, 0, 64, 25
2, 141368, Control_c, 0, 64, 24
2, 141387, Control_c, 0, 64, 23
2, 141406, Control_c, 0, 64, 22
2, 141424, Control_c, 0, 64, 20
2, 141444, Control_c, 0, 64, 18
2, 141463, Control_c, 0, 64, 17
2, 141483, Control_c, 0, 64, 15
2, 141501, Control_c, 0, 64, 13
2, 141540, Control_c, 0, 64, 11
2, 141617, Control_c, 0, 64, 9
2, 141655, Control_c, 0, 64, 0
2, 141717, Note_on_c, 0, 64, 75
2, 141745, Note_on_c, 0, 65, 0
2, 141907, Note_on_c, 0, 62, 71
2, 141947, Note_on_c, 0, 64, 0
2, 142174, Note_on_c, 0, 64, 80
2, 142190, Note_on_c, 0, 62, 0
2, 142217, Note_on_c, 0, 58, 0
2, 142404, Control_c, 0, 64, 17
2, 142423, Control_c, 0, 64, 50
2, 142443, Control_c, 0, 64, 61
2, 142461, Control_c, 0, 64, 65
2, 142480, Control_c, 0, 64, 69
2, 142500, Control_c, 0, 64, 79
2, 142518, Control_c, 0, 64, 92
2, 142538, Control_c, 0, 64, 112
2, 142557, Control_c, 0, 64, 127
2, 142588, Note_on_c, 0, 56, 81
2, 142632, Note_on_c, 0, 64, 0
2, 142759, Note_on_c, 0, 56, 0
2, 142763, Note_on_c, 0, 55, 74
2, 142848, Note_on_c, 0, 55, 0
2, 142980, Control_c, 0, 64, 116
2, 142998, Control_c, 0, 64, 109
2, 143018, Control_c, 0, 64, 106
2, 143037, Control_c, 0, 64, 104
2, 143057, Control_c, 0, 64, 99
2, 143059, Note_on_c, 0, 41, 55
2, 143062, Note_on_c, 0, 65, 60
2, 143065, Note_on_c, 0, 56, 63
2, 143075, Control_c, 0, 64, 94
2, 143094, Note_on_c, 0, 43, 0
2, 143095, Control_c, 0, 64, 84
2, 143114, Control_c, 0, 64, 73
2, 143134, Control_c, 0, 64, 64
2, 143152, Control_c, 0, 64, 48
2, 143172, Control_c, 0, 64, 0
2, 143302, Note_on_c, 0, 56, 0
2, 143315, Note_on_c, 0, 65, 0
2, 143558, Note_on_c, 0, 65, 31
2, 143749, Note_on_c, 0, 41, 0
2, 143761, Note_on_c, 0, 67, 48
2, 143810, Note_on_c, 0, 65, 0
2, 143981, Note_on_c, 0, 68, 48
2, 144006, Note_on_c, 0, 67, 0
2, 144168, Note_on_c, 0, 68, 0
2, 144392, Note_on_c, 0, 53, 42
2, 144404, Note_on_c, 0, 68, 50
2, 144596, Note_on_c, 0, 70, 59
2, 144601, Note_on_c, 0, 68, 0
2, 144610, Note_on_c, 0, 55, 36
2, 144614, Note_on_c, 0, 53, 0
2, 144814, Note_on_c, 0, 72, 61
2, 144826, Note_on_c, 0, 56, 41
2, 144850, Note_on_c, 0, 55, 0
2, 144853, Note_on_c, 0, 70, 0
2, 144950, Note_on_c, 0, 56, 0
2, 145240, Note_on_c, 0, 60, 40
2, 145247, Note_on_c, 0, 56, 46
2, 145431, Note_on_c, 0, 60, 0
2, 145446, Note_on_c, 0, 58, 37
2, 145484, Note_on_c, 0, 61, 45
2, 145543, Note_on_c, 0, 56, 0
2, 145624, Note_on_c, 0, 72, 0
2, 145638, Note_on_c, 0, 58, 0
2, 145653, Note_on_c, 0, 61, 0
2, 145677, Note_on_c, 0, 63, 54
2, 145686, Note_on_c, 0, 60, 37
2, 145819, Note_on_c, 0, 60, 0
2, 145875, Note_on_c, 0, 70, 55
2, 146077, Note_on_c, 0, 48, 38
2, 146099, Note_on_c, 0, 68, 59
2, 146209, Note_on_c, 0, 70, 0
2, 146226, Note_on_c, 0, 48, 0
2, 146279, Note_on_c, 0, 67, 52
2, 146305, Note_on_c, 0, 68, 0
2, 146527, Note_on_c, 0, 49, 45
2, 146535, Note_on_c, 0, 65, 51
2, 146546, Note_on_c, 0, 67, 0
2, 146645, Note_on_c, 0, 63, 0
2, 146746, Note_on_c, 0, 65, 0
2, 146977, Note_on_c, 0, 61, 60
2, 147179, Note_on_c, 0, 63, 70
2, 147238, Note_on_c, 0, 61, 0
2, 147293, Note_on_c, 0, 49, 0
2, 147402, Note_on_c, 0, 65, 66
2, 147477, Note_on_c, 0, 63, 0
2, 147656, Note_on_c, 0, 65, 0
2, 147824, Note_on_c, 0, 49, 56
2, 147826, Note_on_c, 0, 65, 66
2, 148023, Note_on_c, 0, 51, 51
2, 148030, Note_on_c, 0, 67, 72
2, 148074, Note_on_c, 0, 65, 0
2, 148202, Note_on_c, 0, 49, 0
2, 148229, Note_on_c, 0, 53, 49
2, 148263, Note_on_c, 0, 51, 0
2, 148273, Note_on_c, 0, 68, 79
2, 148310, Note_on_c, 0, 67, 0
2, 148387, Note_on_c, 0, 53, 0
2, 148686, Note_on_c, 0, 53, 55
2, 148689, Note_on_c, 0, 56, 56
2, 148881, Note_on_c, 0, 55, 64
2, 148889, Note_on_c, 0, 53, 0
2, 148889, Note_on_c, 0, 58, 65
2, 148931, Note_on_c, 0, 56, 0
2, 148995, Note_on_c, 0, 58, 0
2, 149077, Note_on_c, 0, 55, 0
2, 149098, Note_on_c, 0, 60, 65
2, 149101, Note_on_c, 0, 56, 62
2, 149254, Note_on_c, 0, 56, 0
2, 149304, Note_on_c, 0, 66, 77
2, 149335, Note_on_c, 0, 68, 0
2, 149481, Note_on_c, 0, 66, 0
2, 149497, Note_on_c, 0, 44, 55
2, 149507, Note_on_c, 0, 65, 74
2, 149652, Note_on_c, 0, 44, 0
2, 149699, Note_on_c, 0, 63, 73
2, 149742, Note_on_c, 0, 65, 0
2, 149961, Note_on_c, 0, 46, 41
2, 149978, Note_on_c, 0, 61, 60
2, 150022, Note_on_c, 0, 60, 0
2, 150033, Note_on_c, 0, 63, 0
2, 150213, Note_on_c, 0, 61, 0
2, 150418, Note_on_c, 0, 58, 46
2, 150604, Note_on_c, 0, 58, 0
2, 150623, Note_on_c, 0, 60, 45
2, 150759, Note_on_c, 0, 46, 0
2, 150817, Note_on_c, 0, 60, 0
2, 150853, Note_on_c, 0, 61, 43
2, 151103, Note_on_c, 0, 61, 0
2, 151276, Note_on_c, 0, 46, 35
2, 151294, Note_on_c, 0, 61, 43
2, 151477, Note_on_c, 0, 46, 0
2, 151489, Note_on_c, 0, 63, 53
2, 151498, Note_on_c, 0, 48, 33
2, 151549, Note_on_c, 0, 61, 0
2, 151727, Note_on_c, 0, 65, 52
2, 151731, Note_on_c, 0, 49, 44
2, 151769, Note_on_c, 0, 48, 0
2, 151795, Note_on_c, 0, 63, 0
2, 151864, Note_on_c, 0, 49, 0
2, 152134, Note_on_c, 0, 49, 38
2, 152141, Note_on_c, 0, 53, 43
2, 152307, Note_on_c, 0, 53, 0
2, 152336, Note_on_c, 0, 55, 47
2, 152350, Note_on_c, 0, 51, 40
2, 152528, Note_on_c, 0, 49, 0
2, 152536, Note_on_c, 0, 51, 0
2, 152582, Note_on_c, 0, 53, 32
2, 152582, Note_on_c, 0, 56, 57
2, 152618, Note_on_c, 0, 55, 0
2, 152834, Note_on_c, 0, 56, 0
2, 152910, Note_on_c, 0, 53, 0
2, 153002, Note_on_c, 0, 56, 56
2, 153005, Note_on_c, 0, 41, 33
2, 153211, Note_on_c, 0, 58, 51
2, 153214, Note_on_c, 0, 56, 0
2, 153263, Note_on_c, 0, 41, 0
2, 153441, Note_on_c, 0, 48, 37
2, 153467, Note_on_c, 0, 58, 0
2, 153474, Note_on_c, 0, 60, 51
2, 153603, Note_on_c, 0, 48, 0
2, 153703, Note_on_c, 0, 65, 0
2, 153880, Note_on_c, 0, 60, 0
2, 153892, Note_on_c, 0, 48, 48
2, 153898, Note_on_c, 0, 64, 64
2, 153918, Note_on_c, 0, 55, 40
2, 154039, Note_on_c, 0, 64, 0
2, 154091, Note_on_c, 0, 65, 68
2, 154094, Note_on_c, 0, 55, 0
2, 154101, Note_on_c, 0, 48, 0
2, 154107, Note_on_c, 0, 50, 55
2, 154331, Note_on_c, 0, 50, 0
2, 154343, Note_on_c, 0, 52, 57
2, 154349, Note_on_c, 0, 60, 45
2, 154400, Note_on_c, 0, 65, 0
2, 154406, Note_on_c, 0, 72, 88
2, 154430, Note_on_c, 0, 67, 69
2, 154501, Control_c, 0, 64, 54
2, 154519, Control_c, 0, 64, 64
2, 154539, Control_c, 0, 64, 70
2, 154558, Control_c, 0, 64, 84
2, 154566, Note_on_c, 0, 52, 0
2, 154578, Control_c, 0, 64, 127
2, 154779, Note_on_c, 0, 72, 0
2, 154797, Note_on_c, 0, 50, 60
2, 154824, Note_on_c, 0, 58, 59
2, 154855, Note_on_c, 0, 60, 0
2, 154947, Note_on_c, 0, 58, 0
2, 154984, Note_on_c, 0, 50, 0
2, 154997, Note_on_c, 0, 52, 60
2, 155049, Note_on_c, 0, 52, 0
2, 155209, Control_c, 0, 64, 78
2, 155218, Note_on_c, 0, 53, 61
2, 155228, Control_c, 0, 64, 53
2, 155238, Note_on_c, 0, 56, 55
2, 155248, Control_c, 0, 64, 0
2, 155251, Note_on_c, 0, 73, 89
2, 155263, Note_on_c, 0, 53, 0
2, 155286, Control_c, 0, 64, 49
2, 155305, Control_c, 0, 64, 66
2, 155325, Control_c, 0, 64, 78
2, 155334, Note_on_c, 0, 56, 0
2, 155344, Control_c, 0, 64, 127
2, 155465, Note_on_c, 0, 40, 61
2, 155631, Control_c, 0, 64, 96
2, 155651, Control_c, 0, 64, 80
2, 155670, Control_c, 0, 64, 70
2, 155674, Note_on_c, 0, 40, 0
2, 155674, Note_on_c, 0, 65, 65
2, 155680, Note_on_c, 0, 41, 56
2, 155689, Control_c, 0, 64, 64
2, 155708, Control_c, 0, 64, 59
2, 155728, Control_c, 0, 64, 57
2, 155747, Control_c, 0, 64, 56
2, 155749, Note_on_c, 0, 73, 0
2, 155766, Control_c, 0, 64, 54
2, 155785, Control_c, 0, 64, 52
2, 155805, Control_c, 0, 64, 50
2, 155824, Control_c, 0, 64, 49
2, 155842, Control_c, 0, 64, 47
2, 155854, Note_on_c, 0, 41, 0
2, 155862, Control_c, 0, 64, 46
2, 155879, Note_on_c, 0, 43, 64
2, 155919, Control_c, 0, 64, 45
2, 155958, Control_c, 0, 64, 46
2, 155977, Control_c, 0, 64, 48
2, 156016, Control_c, 0, 64, 47
2, 156034, Control_c, 0, 64, 41
2, 156054, Control_c, 0, 64, 0
2, 156087, Note_on_c, 0, 44, 57
2, 156093, Note_on_c, 0, 43, 0
2, 156098, Note_on_c, 0, 72, 87
2, 156131, Note_on_c, 0, 67, 0
2, 156151, Note_on_c, 0, 65, 0
2, 156188, Control_c, 0, 64, 21
2, 156208, Control_c, 0, 64, 55
2, 156227, Control_c, 0, 64, 64
2, 156246, Control_c, 0, 64, 68
2, 156265, Control_c, 0, 64, 74
2, 156284, Control_c, 0, 64, 82
2, 156304, Control_c, 0, 64, 89
2, 156315, Note_on_c, 0, 48, 63
2, 156322, Control_c, 0, 64, 90
2, 156342, Control_c, 0, 64, 89
2, 156361, Control_c, 0, 64, 88
2, 156380, Control_c, 0, 64, 87
2, 156399, Control_c, 0, 64, 84
2, 156419, Control_c, 0, 64, 82
2, 156438, Control_c, 0, 64, 80
2, 156457, Control_c, 0, 64, 77
2, 156467, Note_on_c, 0, 48, 0
2, 156476, Control_c, 0, 64, 72
2, 156496, Control_c, 0, 64, 68
2, 156514, Control_c, 0, 64, 64
2, 156524, Note_on_c, 0, 50, 52
2, 156531, Note_on_c, 0, 63, 67
2, 156534, Control_c, 0, 64, 60
2, 156553, Control_c, 0, 64, 59
2, 156573, Control_c, 0, 64, 58
2, 156591, Control_c, 0, 64, 58
2, 156611, Control_c, 0, 64, 57
2, 156630, Control_c, 0, 64, 56
2, 156649, Control_c, 0, 64, 55
2, 156668, Control_c, 0, 64, 55
2, 156688, Control_c, 0, 64, 54
2, 156707, Control_c, 0, 64, 54
2, 156727, Note_on_c, 0, 72, 0
2, 156729, Note_on_c, 0, 51, 57
2, 156730, Note_on_c, 0, 50, 0
2, 156745, Control_c, 0, 64, 53
2, 156803, Control_c, 0, 64, 54
2, 156842, Control_c, 0, 64, 54
2, 156861, Control_c, 0, 64, 54
2, 156900, Control_c, 0, 64, 53
2, 156917, Note_on_c, 0, 44, 0
2, 156918, Control_c, 0, 64, 52
2, 156938, Control_c, 0, 64, 51
2, 156947, Note_on_c, 0, 51, 0
2, 156948, Note_on_c, 0, 53, 55
2, 156953, Note_on_c, 0, 71, 86
2, 156957, Control_c, 0, 64, 50
2, 156960, Note_on_c, 0, 62, 57
2, 156976, Control_c, 0, 64, 50
2, 156988, Note_on_c, 0, 63, 0
2, 156994, Control_c, 0, 64, 49
2, 157014, Control_c, 0, 64, 47
2, 157033, Control_c, 0, 64, 43
2, 157053, Control_c, 0, 64, 37
2, 157071, Control_c, 0, 64, 21
2, 157091, Control_c, 0, 64, 0
2, 157168, Note_on_c, 0, 41, 62
2, 157384, Note_on_c, 0, 43, 52
2, 157385, Note_on_c, 0, 63, 66
2, 157398, Note_on_c, 0, 62, 0
2, 157417, Control_c, 0, 64, 42
2, 157436, Control_c, 0, 64, 49
2, 157456, Control_c, 0, 64, 56
2, 157469, Note_on_c, 0, 53, 0
2, 157474, Control_c, 0, 64, 62
2, 157494, Control_c, 0, 64, 66
2, 157513, Control_c, 0, 64, 71
2, 157533, Control_c, 0, 64, 79
2, 157534, Note_on_c, 0, 71, 0
2, 157551, Control_c, 0, 64, 89
2, 157561, Note_on_c, 0, 63, 0
2, 157571, Control_c, 0, 64, 95
2, 157588, Note_on_c, 0, 44, 60
2, 157589, Note_on_c, 0, 65, 68
2, 157590, Control_c, 0, 64, 96
2, 157608, Note_on_c, 0, 41, 0
2, 157679, Note_on_c, 0, 65, 0
2, 157700, Note_on_c, 0, 43, 0
2, 157744, Control_c, 0, 64, 93
2, 157762, Control_c, 0, 64, 85
2, 157782, Control_c, 0, 64, 71
2, 157801, Control_c, 0, 64, 50
2, 157817, Note_on_c, 0, 76, 89
2, 157820, Control_c, 0, 64, 0
2, 157822, Note_on_c, 0, 46, 53
2, 157827, Note_on_c, 0, 67, 69
2, 157843, Note_on_c, 0, 44, 0
2, 157916, Control_c, 0, 64, 43
2, 157935, Control_c, 0, 64, 62
2, 157954, Control_c, 0, 64, 69
2, 157973, Control_c, 0, 64, 80
2, 157984, Note_on_c, 0, 76, 0
2, 157992, Control_c, 0, 64, 99
2, 158012, Control_c, 0, 64, 127
2, 158034, Note_on_c, 0, 65, 67
2, 158049, Note_on_c, 0, 67, 0
2, 158203, Control_c, 0, 64, 114
2, 158223, Control_c, 0, 64, 73
2, 158241, Control_c, 0, 64, 0
2, 158247, Note_on_c, 0, 64, 73
2, 158252, Note_on_c, 0, 65, 0
2, 158261, Note_on_c, 0, 55, 45
2, 158299, Control_c, 0, 64, 27
2, 158318, Control_c, 0, 64, 59
2, 158338, Control_c, 0, 64, 71
2, 158357, Control_c, 0, 64, 87
2, 158358, Note_on_c, 0, 46, 0
2, 158376, Control_c, 0, 64, 127
2, 158393, Note_on_c, 0, 55, 0
2, 158415, Note_on_c, 0, 64, 0
2, 158443, Note_on_c, 0, 62, 71
2, 158487, Note_on_c, 0, 62, 0
2, 158644, Control_c, 0, 64, 85
2, 158664, Control_c, 0, 64, 62
2, 158665, Note_on_c, 0, 56, 59
2, 158686, Control_c, 0, 64, 32
2, 158692, Note_on_c, 0, 60, 45
2, 158696, Note_on_c, 0, 77, 91
2, 158704, Control_c, 0, 64, 53
2, 158723, Control_c, 0, 64, 64
2, 158724, Note_on_c, 0, 60, 0
2, 158728, Note_on_c, 0, 56, 0
2, 158743, Control_c, 0, 64, 74
2, 158762, Control_c, 0, 64, 107
2, 158781, Control_c, 0, 64, 127
2, 158915, Note_on_c, 0, 44, 55
2, 158934, Control_c, 0, 64, 107
2, 158953, Control_c, 0, 64, 95
2, 158973, Control_c, 0, 64, 87
2, 158991, Control_c, 0, 64, 78
2, 159011, Control_c, 0, 64, 69
2, 159030, Control_c, 0, 64, 62
2, 159038, Note_on_c, 0, 77, 0
2, 159049, Control_c, 0, 64, 50
2, 159068, Control_c, 0, 64, 34
2, 159088, Control_c, 0, 64, 18
2, 159107, Control_c, 0, 64, 0
2, 159146, Note_on_c, 0, 46, 60
2, 159296, Note_on_c, 0, 44, 0
2, 159333, Note_on_c, 0, 46, 0
2, 159338, Note_on_c, 0, 48, 64
2, 159512, Note_on_c, 0, 48, 0
2, 159534, Note_on_c, 0, 49, 58
2, 159547, Note_on_c, 0, 70, 86
2, 159568, Control_c, 0, 64, 21
2, 159587, Control_c, 0, 64, 56
2, 159606, Control_c, 0, 64, 65
2, 159625, Control_c, 0, 64, 69
2, 159642, Control_c, 0, 64, 75
2, 159662, Control_c, 0, 64, 84
2, 159680, Control_c, 0, 64, 94
2, 159700, Control_c, 0, 64, 104
2, 159719, Control_c, 0, 64, 107
2, 159739, Control_c, 0, 64, 108
2, 159775, Note_on_c, 0, 58, 56
2, 159796, Control_c, 0, 64, 107
2, 159815, Control_c, 0, 64, 106
2, 159834, Control_c, 0, 64, 104
2, 159853, Control_c, 0, 64, 101
2, 159872, Control_c, 0, 64, 96
2, 159889, Note_on_c, 0, 58, 0
2, 159891, Control_c, 0, 64, 90
2, 159910, Control_c, 0, 64, 85
2, 159930, Control_c, 0, 64, 80
2, 159949, Control_c, 0, 64, 75
2, 159967, Note_on_c, 0, 56, 55
2, 159968, Control_c, 0, 64, 70
2, 159987, Control_c, 0, 64, 65
2, 159994, Note_on_c, 0, 58, 58
2, 160007, Control_c, 0, 64, 63
2, 160025, Control_c, 0, 64, 61
2, 160044, Control_c, 0, 64, 59
2, 160064, Control_c, 0, 64, 58
2, 160083, Control_c, 0, 64, 55
2, 160088, Note_on_c, 0, 56, 0
2, 160102, Control_c, 0, 64, 52
2, 160121, Control_c, 0, 64, 49
2, 160141, Control_c, 0, 64, 46
2, 160159, Control_c, 0, 64, 41
2, 160176, Note_on_c, 0, 55, 51
2, 160179, Control_c, 0, 64, 36
2, 160198, Control_c, 0, 64, 32
2, 160218, Control_c, 0, 64, 31
2, 160236, Control_c, 0, 64, 29
2, 160256, Control_c, 0, 64, 25
2, 160275, Control_c, 0, 64, 20
2, 160286, Note_on_c, 0, 58, 0
2, 160294, Control_c, 0, 64, 15
2, 160313, Control_c, 0, 64, 0
2, 160323, Note_on_c, 0, 49, 0
2, 160336, Note_on_c, 0, 70, 0
2, 160400, Note_on_c, 0, 53, 47
2, 160415, Note_on_c, 0, 69, 77
2, 160435, Note_on_c, 0, 60, 54
2, 160513, Note_on_c, 0, 55, 0
2, 160637, Note_on_c, 0, 48, 45
2, 160849, Note_on_c, 0, 50, 51
2, 160851, Note_on_c, 0, 53, 0
2, 160871, Note_on_c, 0, 48, 0
2, 161024, Note_on_c, 0, 50, 0
2, 161071, Note_on_c, 0, 52, 45
2, 161284, Note_on_c, 0, 68, 68
2, 161292, Note_on_c, 0, 53, 45
2, 161310, Note_on_c, 0, 69, 0
2, 161344, Note_on_c, 0, 52, 0
2, 161345, Note_on_c, 0, 53, 0
2, 161473, Note_on_c, 0, 60, 0
2, 161481, Note_on_c, 0, 53, 44
2, 161713, Note_on_c, 0, 53, 0
2, 161716, Note_on_c, 0, 60, 49
2, 161719, Note_on_c, 0, 55, 43
2, 161877, Note_on_c, 0, 55, 0
2, 161925, Note_on_c, 0, 56, 50
2, 161953, Note_on_c, 0, 68, 0
2, 162205, Note_on_c, 0, 58, 35
2, 162230, Note_on_c, 0, 67, 60
2, 162238, Note_on_c, 0, 56, 0
2, 162255, Note_on_c, 0, 61, 38
2, 162325, Note_on_c, 0, 60, 0
2, 162669, Note_on_c, 0, 61, 0
2, 162694, Note_on_c, 0, 52, 41
2, 162700, Note_on_c, 0, 60, 46
2, 162772, Note_on_c, 0, 58, 0
2, 162863, Note_on_c, 0, 52, 0
2, 162906, Note_on_c, 0, 50, 48
2, 162911, Note_on_c, 0, 60, 0
2, 162914, Note_on_c, 0, 58, 53
2, 163093, Note_on_c, 0, 50, 0
2, 163125, Note_on_c, 0, 52, 33
2, 163135, Note_on_c, 0, 60, 48
2, 163549, Note_on_c, 0, 58, 0
2, 163570, Note_on_c, 0, 56, 55
2, 163781, Note_on_c, 0, 56, 0
2, 163786, Note_on_c, 0, 67, 0
2, 163787, Note_on_c, 0, 55, 50
2, 164007, Note_on_c, 0, 56, 46
2, 164014, Note_on_c, 0, 55, 0
2, 164021, Note_on_c, 0, 53, 42
2, 164059, Note_on_c, 0, 52, 0
2, 164475, Note_on_c, 0, 65, 42
2, 164662, Note_on_c, 0, 56, 0
2, 164671, Note_on_c, 0, 53, 0
2, 164684, Note_on_c, 0, 67, 48
2, 164738, Note_on_c, 0, 65, 0
2, 164914, Note_on_c, 0, 68, 50
2, 164950, Note_on_c, 0, 67, 0
2, 165108, Note_on_c, 0, 60, 0
2, 165358, Note_on_c, 0, 53, 39
2, 165527, Note_on_c, 0, 53, 0
2, 165551, Note_on_c, 0, 51, 40
2, 165783, Note_on_c, 0, 51, 0
2, 165794, Note_on_c, 0, 50, 43
2, 165991, Note_on_c, 0, 50, 0
2, 166224, Note_on_c, 0, 50, 33
2, 166248, Note_on_c, 0, 65, 40
2, 166424, Note_on_c, 0, 65, 0
2, 166440, Note_on_c, 0, 63, 47
2, 166445, Note_on_c, 0, 48, 30
2, 166454, Note_on_c, 0, 50, 0
2, 166652, Note_on_c, 0, 63, 0
2, 166661, Note_on_c, 0, 62, 45
2, 166678, Note_on_c, 0, 46, 37
2, 166689, Note_on_c, 0, 48, 0
2, 166823, Note_on_c, 0, 62, 0
2, 166951, Note_on_c, 0, 46, 0
2, 167089, Note_on_c, 0, 62, 45
2, 167106, Note_on_c, 0, 48, 41
2, 167234, Note_on_c, 0, 48, 0
2, 167300, Note_on_c, 0, 60, 51
2, 167307, Note_on_c, 0, 50, 47
2, 167307, Note_on_c, 0, 62, 0
2, 167514, Note_on_c, 0, 60, 0
2, 167520, Note_on_c, 0, 50, 0
2, 167532, Note_on_c, 0, 51, 46
2, 167541, Note_on_c, 0, 58, 57
2, 167761, Note_on_c, 0, 58, 0
2, 167763, Note_on_c, 0, 68, 0
2, 167969, Note_on_c, 0, 58, 46
2, 167983, Note_on_c, 0, 67, 73
2, 168029, Note_on_c, 0, 51, 0
2, 168185, Note_on_c, 0, 68, 78
2, 168207, Note_on_c, 0, 56, 51
2, 168266, Note_on_c, 0, 67, 0
2, 168301, Note_on_c, 0, 58, 0
2, 168424, Note_on_c, 0, 55, 45
2, 168449, Note_on_c, 0, 70, 78
2, 168488, Note_on_c, 0, 56, 0
2, 168490, Note_on_c, 0, 68, 0
2, 168634, Note_on_c, 0, 55, 0
2, 168882, Note_on_c, 0, 55, 64
2, 169100, Note_on_c, 0, 53, 65
2, 169159, Note_on_c, 0, 55, 0
2, 169325, Note_on_c, 0, 52, 57
2, 169366, Note_on_c, 0, 53, 0
2, 169562, Note_on_c, 0, 52, 0
2, 169754, Note_on_c, 0, 52, 44
2, 169765, Note_on_c, 0, 67, 59
2, 169970, Note_on_c, 0, 50, 55
2, 169976, Note_on_c, 0, 65, 59
2, 170025, Note_on_c, 0, 67, 0
2, 170051, Note_on_c, 0, 52, 0
2, 170192, Note_on_c, 0, 50, 0
2, 170206, Note_on_c, 0, 64, 62
2, 170216, Note_on_c, 0, 48, 40
2, 170237, Note_on_c, 0, 65, 0
2, 170449, Note_on_c, 0, 48, 0
2, 170468, Note_on_c, 0, 64, 0
2, 170641, Note_on_c, 0, 50, 54
2, 170642, Note_on_c, 0, 64, 70
2, 170773, Note_on_c, 0, 70, 0
2, 170831, Note_on_c, 0, 50, 0
2, 170853, Note_on_c, 0, 62, 70
2, 170855, Note_on_c, 0, 52, 60
2, 170977, Note_on_c, 0, 64, 0
2, 171028, Note_on_c, 0, 62, 0
2, 171063, Note_on_c, 0, 53, 70
2, 171079, Note_on_c, 0, 60, 67
2, 171094, Note_on_c, 0, 52, 0
2, 171281, Note_on_c, 0, 67, 83
2, 171305, Note_on_c, 0, 60, 0
2, 171474, Note_on_c, 0, 60, 60
2, 171489, Control_c, 0, 64, 36
2, 171508, Control_c, 0, 64, 55
2, 171508, Note_on_c, 0, 68, 88
2, 171528, Control_c, 0, 64, 64
2, 171546, Control_c, 0, 64, 71
2, 171554, Note_on_c, 0, 67, 0
2, 171565, Control_c, 0, 64, 83
2, 171585, Control_c, 0, 64, 102
2, 171604, Control_c, 0, 64, 127
2, 171692, Note_on_c, 0, 68, 0
2, 171700, Note_on_c, 0, 58, 73
2, 171704, Note_on_c, 0, 72, 95
2, 171708, Note_on_c, 0, 60, 0
2, 171717, Note_on_c, 0, 53, 0
2, 171807, Note_on_c, 0, 58, 0
2, 171939, Note_on_c, 0, 56, 78
2, 171988, Control_c, 0, 64, 110
2, 172007, Control_c, 0, 64, 99
2, 172015, Note_on_c, 0, 77, 93
2, 172026, Control_c, 0, 64, 90
2, 172045, Control_c, 0, 64, 79
2, 172064, Note_on_c, 0, 72, 0
2, 172065, Control_c, 0, 64, 70
2, 172084, Control_c, 0, 64, 61
2, 172103, Control_c, 0, 64, 48
2, 172123, Control_c, 0, 64, 24
2, 172143, Control_c, 0, 64, 0
2, 172436, Note_on_c, 0, 50, 68
2, 172644, Note_on_c, 0, 48, 70
2, 172665, Note_on_c, 0, 50, 0
2, 172860, Note_on_c, 0, 47, 70
2, 172894, Note_on_c, 0, 48, 0
2, 173108, Note_on_c, 0, 47, 0
2, 173295, Control_c, 0, 64, 9
2, 173295, Note_on_c, 0, 56, 0
2, 173304, Note_on_c, 0, 47, 58
2, 173311, Note_on_c, 0, 74, 72
2, 173515, Note_on_c, 0, 45, 58
2, 173517, Note_on_c, 0, 72, 79
2, 173558, Note_on_c, 0, 47, 0
2, 173579, Note_on_c, 0, 74, 0
2, 173583, Control_c, 0, 64, 0
2, 173737, Note_on_c, 0, 43, 64
2, 173755, Note_on_c, 0, 71, 70
2, 173781, Note_on_c, 0, 72, 0
2, 173794, Note_on_c, 0, 45, 0
2, 174035, Note_on_c, 0, 71, 0
2, 174109, Note_on_c, 0, 43, 0
2, 174173, Note_on_c, 0, 45, 68
2, 174181, Note_on_c, 0, 71, 75
2, 174372, Note_on_c, 0, 47, 73
2, 174383, Note_on_c, 0, 69, 73
2, 174407, Note_on_c, 0, 71, 0
2, 174430, Note_on_c, 0, 45, 0
2, 174609, Note_on_c, 0, 69, 0
2, 174622, Note_on_c, 0, 67, 67
2, 174631, Note_on_c, 0, 48, 74
2, 174695, Note_on_c, 0, 47, 0
2, 174751, Note_on_c, 0, 77, 0
2, 174816, Note_on_c, 0, 67, 0
2, 175077, Note_on_c, 0, 67, 69
2, 175077, Note_on_c, 0, 75, 81
2, 175095, Note_on_c, 0, 48, 0
2, 175281, Note_on_c, 0, 69, 76
2, 175294, Note_on_c, 0, 75, 0
2, 175331, Note_on_c, 0, 67, 0
2, 175610, Note_on_c, 0, 55, 82
2, 175610, Note_on_c, 0, 71, 59
2, 175617, Note_on_c, 0, 74, 58
2, 175621, Note_on_c, 0, 69, 0
2, 175753, Note_on_c, 0, 74, 0
2, 175772, Control_c, 0, 64, 19
2, 175790, Control_c, 0, 64, 55
2, 175810, Control_c, 0, 64, 63
2, 175829, Control_c, 0, 64, 65
2, 175849, Control_c, 0, 64, 67
2, 175867, Control_c, 0, 64, 70
2, 175886, Control_c, 0, 64, 74
2, 175906, Control_c, 0, 64, 78
2, 175911, Note_on_c, 0, 71, 0
2, 175924, Control_c, 0, 64, 81
2, 175944, Control_c, 0, 64, 81
2, 176003, Control_c, 0, 64, 81
2, 176023, Control_c, 0, 64, 80
2, 176042, Control_c, 0, 64, 80
2, 176061, Control_c, 0, 64, 79
2, 176071, Note_on_c, 0, 79, 82
2, 176075, Note_on_c, 0, 69, 76
2, 176080, Control_c, 0, 64, 78
2, 176100, Control_c, 0, 64, 77
2, 176119, Control_c, 0, 64, 76
2, 176138, Control_c, 0, 64, 74
2, 176157, Control_c, 0, 64, 73
2, 176177, Control_c, 0, 64, 72
2, 176195, Control_c, 0, 64, 71
2, 176215, Control_c, 0, 64, 70
2, 176234, Control_c, 0, 64, 68
2, 176254, Control_c, 0, 64, 66
2, 176265, Note_on_c, 0, 71, 62
2, 176272, Control_c, 0, 64, 65
2, 176284, Note_on_c, 0, 69, 0
2, 176292, Control_c, 0, 64, 64
2, 176311, Control_c, 0, 64, 63
2, 176330, Control_c, 0, 64, 62
2, 176349, Control_c, 0, 64, 62
2, 176369, Control_c, 0, 64, 61
2, 176388, Control_c, 0, 64, 61
2, 176406, Control_c, 0, 64, 60
2, 176426, Control_c, 0, 64, 59
2, 176445, Control_c, 0, 64, 58
2, 176464, Control_c, 0, 64, 57
2, 176482, Note_on_c, 0, 71, 0
2, 176483, Control_c, 0, 64, 56
2, 176503, Control_c, 0, 64, 55
2, 176506, Note_on_c, 0, 56, 85
2, 176509, Note_on_c, 0, 72, 58
2, 176522, Control_c, 0, 64, 53
2, 176541, Control_c, 0, 64, 51
2, 176560, Control_c, 0, 64, 49
2, 176580, Control_c, 0, 64, 46
2, 176584, Note_on_c, 0, 55, 0
2, 176599, Control_c, 0, 64, 44
2, 176618, Control_c, 0, 64, 40
2, 176637, Control_c, 0, 64, 36
2, 176657, Control_c, 0, 64, 31
2, 176675, Control_c, 0, 64, 27
2, 176695, Control_c, 0, 64, 20
2, 176714, Control_c, 0, 64, 11
2, 176715, Note_on_c, 0, 72, 0
2, 176722, Note_on_c, 0, 71, 65
2, 176734, Control_c, 0, 64, 0
2, 176909, Note_on_c, 0, 71, 0
2, 176935, Note_on_c, 0, 72, 63
2, 177117, Note_on_c, 0, 74, 60
2, 177351, Note_on_c, 0, 55, 75
2, 177351, Note_on_c, 0, 75, 67
2, 177391, Note_on_c, 0, 79, 0
2, 177392, Note_on_c, 0, 74, 0
2, 177420, Note_on_c, 0, 72, 0
2, 177535, Note_on_c, 0, 56, 0
2, 177793, Note_on_c, 0, 70, 66
2, 178215, Note_on_c, 0, 69, 57
2, 178224, Note_on_c, 0, 54, 72
2, 178247, Note_on_c, 0, 70, 0
2, 178312, Note_on_c, 0, 55, 0
2, 178417, Note_on_c, 0, 75, 0
2, 178429, Note_on_c, 0, 69, 0
2, 178437, Note_on_c, 0, 72, 76
2, 178657, Note_on_c, 0, 71, 60
2, 178660, Note_on_c, 0, 74, 72
2, 178678, Note_on_c, 0, 72, 0
2, 178853, Note_on_c, 0, 75, 69
2, 178858, Note_on_c, 0, 72, 54
2, 178888, Note_on_c, 0, 74, 0
2, 179078, Note_on_c, 0, 59, 82
2, 179100, Note_on_c, 0, 54, 0
2, 179107, Note_on_c, 0, 72, 0
2, 179122, Note_on_c, 0, 77, 50
2, 179155, Note_on_c, 0, 71, 0
2, 179171, Note_on_c, 0, 74, 50
2, 179193, Note_on_c, 0, 75, 0
2, 179315, Note_on_c, 0, 72, 71
2, 179337, Note_on_c, 0, 74, 0
2, 179419, Control_c, 0, 64, 11
2, 179438, Control_c, 0, 64, 33
2, 179458, Control_c, 0, 64, 44
2, 179477, Control_c, 0, 64, 52
2, 179478, Note_on_c, 0, 72, 0
2, 179493, Note_on_c, 0, 71, 62
2, 179496, Control_c, 0, 64, 57
2, 179515, Control_c, 0, 64, 60
2, 179535, Control_c, 0, 64, 60
2, 179554, Control_c, 0, 64, 61
2, 179573, Control_c, 0, 64, 61
2, 179688, Note_on_c, 0, 71, 0
2, 179693, Note_on_c, 0, 69, 66
2, 179707, Control_c, 0, 64, 61
2, 179726, Control_c, 0, 64, 60
2, 179764, Control_c, 0, 64, 60
2, 179784, Control_c, 0, 64, 59
2, 179805, Control_c, 0, 64, 59
2, 179843, Control_c, 0, 64, 58
2, 179866, Note_on_c, 0, 69, 0
2, 179906, Note_on_c, 0, 59, 0
2, 179913, Note_on_c, 0, 60, 76
2, 179928, Note_on_c, 0, 67, 52
2, 179940, Control_c, 0, 64, 58
2, 179978, Control_c, 0, 64, 57
2, 180035, Control_c, 0, 64, 57
2, 180108, Note_on_c, 0, 77, 0
2, 180118, Note_on_c, 0, 75, 80
2, 180137, Note_on_c, 0, 67, 0
2, 180208, Control_c, 0, 64, 56
2, 180285, Control_c, 0, 64, 56
2, 180339, Note_on_c, 0, 77, 81
2, 180380, Note_on_c, 0, 75, 0
2, 180420, Control_c, 0, 64, 55
2, 180536, Note_on_c, 0, 79, 82
2, 180592, Note_on_c, 0, 77, 0
2, 180612, Control_c, 0, 64, 55
2, 180708, Control_c, 0, 64, 54
2, 180726, Control_c, 0, 64, 53
2, 180746, Control_c, 0, 64, 50
2, 180753, Note_on_c, 0, 53, 71
2, 180766, Control_c, 0, 64, 32
2, 180777, Note_on_c, 0, 80, 78
2, 180785, Control_c, 0, 64, 0
2, 180812, Note_on_c, 0, 79, 0
2, 180943, Note_on_c, 0, 60, 0
2, 180972, Note_on_c, 0, 65, 69
2, 181093, Control_c, 0, 64, 27
2, 181112, Control_c, 0, 64, 52
2, 181131, Control_c, 0, 64, 61
2, 181150, Control_c, 0, 64, 64
2, 181170, Control_c, 0, 64, 65
2, 181189, Control_c, 0, 64, 69
2, 181207, Control_c, 0, 64, 75
2, 181217, Note_on_c, 0, 63, 74
2, 181227, Control_c, 0, 64, 86
2, 181234, Note_on_c, 0, 65, 0
2, 181246, Control_c, 0, 64, 98
2, 181265, Control_c, 0, 64, 103
2, 181344, Note_on_c, 0, 63, 0
2, 181358, Note_on_c, 0, 53, 0
2, 181381, Control_c, 0, 64, 103
2, 181399, Control_c, 0, 64, 102
2, 181405, Note_on_c, 0, 62, 68
2, 181419, Control_c, 0, 64, 100
2, 181438, Control_c, 0, 64, 98
2, 181458, Control_c, 0, 64, 96
2, 181476, Control_c, 0, 64, 94
2, 181491, Note_on_c, 0, 62, 0
2, 181496, Control_c, 0, 64, 92
2, 181515, Control_c, 0, 64, 91
2, 181534, Control_c, 0, 64, 90
2, 181553, Control_c, 0, 64, 89
2, 181573, Control_c, 0, 64, 88
2, 181592, Control_c, 0, 64, 85
2, 181611, Control_c, 0, 64, 82
2, 181624, Note_on_c, 0, 60, 78
2, 181630, Control_c, 0, 64, 77
2, 181631, Note_on_c, 0, 52, 70
2, 181650, Control_c, 0, 64, 71
2, 181669, Control_c, 0, 64, 65
2, 181687, Control_c, 0, 64, 61
2, 181707, Control_c, 0, 64, 57
2, 181725, Control_c, 0, 64, 55
2, 181744, Control_c, 0, 64, 54
2, 181763, Control_c, 0, 64, 50
2, 181783, Control_c, 0, 64, 44
2, 181802, Control_c, 0, 64, 31
2, 181821, Control_c, 0, 64, 0
2, 181823, Note_on_c, 0, 79, 81
2, 181825, Note_on_c, 0, 80, 0
2, 182033, Note_on_c, 0, 81, 81
2, 182088, Note_on_c, 0, 79, 0
2, 182227, Note_on_c, 0, 83, 79
2, 182285, Note_on_c, 0, 81, 0
2, 182436, Note_on_c, 0, 51, 72
2, 182446, Note_on_c, 0, 84, 77
2, 182464, Note_on_c, 0, 83, 0
2, 182484, Note_on_c, 0, 52, 0
2, 182627, Control_c, 0, 64, 28
2, 182642, Note_on_c, 0, 72, 71
2, 182645, Control_c, 0, 64, 45
2, 182665, Control_c, 0, 64, 53
2, 182685, Control_c, 0, 64, 55
2, 182704, Control_c, 0, 64, 56
2, 182724, Note_on_c, 0, 72, 0
2, 182820, Control_c, 0, 64, 55
2, 182853, Note_on_c, 0, 74, 73
2, 182858, Control_c, 0, 64, 55
2, 182877, Control_c, 0, 64, 54
2, 182897, Control_c, 0, 64, 53
2, 182915, Control_c, 0, 64, 52
2, 182935, Control_c, 0, 64, 51
2, 182954, Control_c, 0, 64, 51
2, 182974, Control_c, 0, 64, 50
2, 183037, Note_on_c, 0, 75, 77
2, 183069, Control_c, 0, 64, 50
2, 183072, Note_on_c, 0, 74, 0
2, 183088, Control_c, 0, 64, 49
2, 183108, Control_c, 0, 64, 49
2, 183126, Control_c, 0, 64, 48
2, 183146, Control_c, 0, 64, 48
2, 183184, Control_c, 0, 64, 47
2, 183261, Control_c, 0, 64, 47
2, 183280, Control_c, 0, 64, 46
2, 183281, Note_on_c, 0, 50, 72
2, 183282, Note_on_c, 0, 77, 73
2, 183294, Note_on_c, 0, 75, 0
2, 183300, Control_c, 0, 64, 45
2, 183319, Control_c, 0, 64, 43
2, 183338, Control_c, 0, 64, 41
2, 183341, Note_on_c, 0, 51, 0
2, 183357, Control_c, 0, 64, 35
2, 183377, Control_c, 0, 64, 0
2, 183727, Note_on_c, 0, 83, 83
2, 183777, Note_on_c, 0, 84, 0
2, 183911, Note_on_c, 0, 81, 80
2, 183959, Note_on_c, 0, 83, 0
2, 184163, Note_on_c, 0, 83, 86
2, 184197, Note_on_c, 0, 81, 0
2, 184199, Note_on_c, 0, 77, 0
2, 184336, Control_c, 0, 64, 37
2, 184354, Control_c, 0, 64, 57
2, 184374, Control_c, 0, 64, 65
2, 184393, Control_c, 0, 64, 70
2, 184413, Control_c, 0, 64, 80
2, 184428, Note_on_c, 0, 50, 0
2, 184431, Control_c, 0, 64, 97
2, 184451, Control_c, 0, 64, 127
2, 184591, Note_on_c, 0, 75, 87
2, 184620, Note_on_c, 0, 83, 0
2, 184780, Note_on_c, 0, 74, 74
2, 184789, Note_on_c, 0, 75, 0
2, 184937, Note_on_c, 0, 74, 0
2, 185034, Note_on_c, 0, 48, 72
2, 185037, Note_on_c, 0, 84, 85
2, 185045, Control_c, 0, 64, 102
2, 185059, Note_on_c, 0, 75, 71
2, 185065, Control_c, 0, 64, 77
2, 185084, Control_c, 0, 64, 59
2, 185104, Control_c, 0, 64, 0
2, 185180, Control_c, 0, 64, 30
2, 185199, Control_c, 0, 64, 60
2, 185219, Control_c, 0, 64, 68
2, 185226, Note_on_c, 0, 84, 0
2, 185238, Control_c, 0, 64, 77
2, 185240, Note_on_c, 0, 60, 0
2, 185246, Note_on_c, 0, 48, 0
2, 185257, Control_c, 0, 64, 95
2, 185276, Control_c, 0, 64, 127
2, 185383, Note_on_c, 0, 75, 0
2, 185474, Note_on_c, 0, 79, 86
2, 185476, Note_on_c, 0, 72, 76
2, 185540, Note_on_c, 0, 72, 0
2, 185565, Control_c, 0, 64, 121
2, 185584, Control_c, 0, 64, 110
2, 185603, Control_c, 0, 64, 107
2, 185623, Control_c, 0, 64, 105
2, 185642, Control_c, 0, 64, 104
2, 185661, Control_c, 0, 64, 104
2, 185671, Note_on_c, 0, 74, 76
2, 185680, Control_c, 0, 64, 103
2, 185700, Control_c, 0, 64, 102
2, 185719, Control_c, 0, 64, 99
2, 185738, Control_c, 0, 64, 97
2, 185757, Control_c, 0, 64, 94
2, 185775, Control_c, 0, 64, 91
2, 185794, Control_c, 0, 64, 88
2, 185813, Control_c, 0, 64, 84
2, 185832, Control_c, 0, 64, 79
2, 185852, Control_c, 0, 64, 72
2, 185870, Control_c, 0, 64, 65
2, 185889, Control_c, 0, 64, 56
2, 185909, Control_c, 0, 64, 34
2, 185914, Note_on_c, 0, 84, 86
2, 185922, Note_on_c, 0, 75, 72
2, 185928, Control_c, 0, 64, 0
2, 185957, Note_on_c, 0, 74, 0
2, 185975, Note_on_c, 0, 79, 0
2, 186358, Note_on_c, 0, 72, 71
2, 186573, Note_on_c, 0, 70, 67
2, 186641, Note_on_c, 0, 72, 0
2, 186792, Note_on_c, 0, 69, 60
2, 186846, Note_on_c, 0, 70, 0
2, 186991, Note_on_c, 0, 69, 0
2, 187069, Note_on_c, 0, 84, 0
2, 187217, Note_on_c, 0, 69, 38
2, 187217, Note_on_c, 0, 84, 78
2, 187426, Note_on_c, 0, 82, 77
2, 187452, Note_on_c, 0, 67, 54
2, 187459, Note_on_c, 0, 69, 0
2, 187476, Note_on_c, 0, 84, 0
2, 187655, Note_on_c, 0, 81, 70
2, 187667, Note_on_c, 0, 65, 45
2, 187716, Note_on_c, 0, 82, 0
2, 187723, Note_on_c, 0, 67, 0
2, 187885, Note_on_c, 0, 81, 0
2, 187983, Note_on_c, 0, 65, 0
2, 188081, Note_on_c, 0, 81, 73
2, 188094, Note_on_c, 0, 67, 48
2, 188293, Note_on_c, 0, 79, 78
2, 188295, Note_on_c, 0, 67, 0
2, 188296, Note_on_c, 0, 69, 60
2, 188342, Note_on_c, 0, 81, 0
2, 188495, Note_on_c, 0, 69, 0
2, 188527, Note_on_c, 0, 70, 66
2, 188527, Note_on_c, 0, 77, 77
2, 188529, Note_on_c, 0, 75, 0
2, 188561, Note_on_c, 0, 79, 0
2, 188615, Control_c, 0, 64, 50
2, 188634, Control_c, 0, 64, 62
2, 188654, Control_c, 0, 64, 66
2, 188673, Control_c, 0, 64, 68
2, 188685, Note_on_c, 0, 70, 0
2, 188692, Control_c, 0, 64, 70
2, 188711, Control_c, 0, 64, 75
2, 188730, Control_c, 0, 64, 85
2, 188749, Control_c, 0, 64, 95
2, 188768, Control_c, 0, 64, 99
2, 188788, Control_c, 0, 64, 101
2, 188807, Control_c, 0, 64, 103
2, 188826, Control_c, 0, 64, 107
2, 188845, Control_c, 0, 64, 117
2, 188865, Control_c, 0, 64, 127
2, 188903, Control_c, 0, 64, 110
2, 188922, Control_c, 0, 64, 83
2, 188942, Control_c, 0, 64, 65
2, 188960, Control_c, 0, 64, 23
2, 188967, Note_on_c, 0, 70, 61
2, 188968, Note_on_c, 0, 58, 57
2, 188968, Note_on_c, 0, 79, 73
2, 188980, Control_c, 0, 64, 0
2, 188999, Control_c, 0, 64, 43
2, 189019, Control_c, 0, 64, 61
2, 189037, Control_c, 0, 64, 67
2, 189053, Note_on_c, 0, 77, 0
2, 189057, Control_c, 0, 64, 76
2, 189067, Note_on_c, 0, 70, 0
2, 189076, Control_c, 0, 64, 98
2, 189095, Control_c, 0, 64, 127
2, 189163, Note_on_c, 0, 81, 80
2, 189174, Note_on_c, 0, 72, 71
2, 189191, Note_on_c, 0, 58, 0
2, 189218, Note_on_c, 0, 79, 0
2, 189226, Note_on_c, 0, 81, 0
2, 189383, Control_c, 0, 64, 116
2, 189405, Control_c, 0, 64, 108
2, 189424, Control_c, 0, 64, 103
2, 189443, Control_c, 0, 64, 101
2, 189448, Note_on_c, 0, 82, 77
2, 189463, Control_c, 0, 64, 99
2, 189469, Note_on_c, 0, 73, 59
2, 189482, Control_c, 0, 64, 97
2, 189498, Note_on_c, 0, 72, 0
2, 189501, Control_c, 0, 64, 92
2, 189520, Control_c, 0, 64, 85
2, 189540, Control_c, 0, 64, 77
2, 189559, Control_c, 0, 64, 67
2, 189578, Control_c, 0, 64, 60
2, 189597, Control_c, 0, 64, 43
2, 189614, Control_c, 0, 64, 22
2, 189633, Control_c, 0, 64, 0
2, 189904, Note_on_c, 0, 70, 55
2, 190110, Note_on_c, 0, 68, 53
2, 190127, Note_on_c, 0, 70, 0
2, 190341, Note_on_c, 0, 67, 43
2, 190387, Note_on_c, 0, 68, 0
2, 190535, Note_on_c, 0, 67, 0
2, 190624, Note_on_c, 0, 82, 0
2, 190782, Note_on_c, 0, 82, 63
2, 190792, Note_on_c, 0, 67, 38
2, 190985, Note_on_c, 0, 80, 63
2, 190997, Note_on_c, 0, 65, 39
2, 191007, Note_on_c, 0, 82, 0
2, 191022, Note_on_c, 0, 67, 0
2, 191166, Note_on_c, 0, 65, 0
2, 191222, Note_on_c, 0, 80, 0
2, 191224, Note_on_c, 0, 63, 40
2, 191235, Note_on_c, 0, 79, 55
2, 191425, Note_on_c, 0, 79, 0
2, 191493, Note_on_c, 0, 63, 0
2, 191660, Note_on_c, 0, 65, 37
2, 191662, Note_on_c, 0, 79, 60
2, 191872, Note_on_c, 0, 77, 59
2, 191878, Note_on_c, 0, 65, 0
2, 191895, Note_on_c, 0, 67, 37
2, 191917, Note_on_c, 0, 79, 0
2, 192050, Note_on_c, 0, 67, 0
2, 192095, Note_on_c, 0, 73, 0
2, 192101, Note_on_c, 0, 75, 57
2, 192118, Note_on_c, 0, 68, 46
2, 192139, Note_on_c, 0, 77, 0
2, 192167, Control_c, 0, 64, 36
2, 192186, Control_c, 0, 64, 55
2, 192205, Control_c, 0, 64, 61
2, 192225, Control_c, 0, 64, 63
2, 192244, Control_c, 0, 64, 63
2, 192263, Control_c, 0, 64, 64
2, 192271, Note_on_c, 0, 68, 0
2, 192282, Control_c, 0, 64, 64
2, 192302, Control_c, 0, 64, 65
2, 192320, Control_c, 0, 64, 66
2, 192340, Control_c, 0, 64, 67
2, 192359, Control_c, 0, 64, 68
2, 192379, Control_c, 0, 64, 71
2, 192397, Control_c, 0, 64, 76
2, 192417, Control_c, 0, 64, 79
2, 192436, Control_c, 0, 64, 80
2, 192455, Control_c, 0, 64, 76
2, 192474, Control_c, 0, 64, 69
2, 192494, Control_c, 0, 64, 59
2, 192510, Note_on_c, 0, 68, 55
2, 192513, Control_c, 0, 64, 41
2, 192517, Note_on_c, 0, 56, 51
2, 192532, Control_c, 0, 64, 48
2, 192532, Note_on_c, 0, 77, 55
2, 192551, Control_c, 0, 64, 56
2, 192568, Note_on_c, 0, 68, 0
2, 192570, Control_c, 0, 64, 62
2, 192581, Note_on_c, 0, 75, 0
2, 192589, Control_c, 0, 64, 66
2, 192608, Control_c, 0, 64, 71
2, 192628, Control_c, 0, 64, 77
2, 192647, Control_c, 0, 64, 82
2, 192666, Control_c, 0, 64, 83
2, 192685, Control_c, 0, 64, 83
2, 192697, Note_on_c, 0, 56, 0
2, 192705, Control_c, 0, 64, 82
2, 192716, Note_on_c, 0, 79, 70
2, 192724, Control_c, 0, 64, 81
2, 192735, Note_on_c, 0, 70, 55
2, 192737, Note_on_c, 0, 77, 0
2, 192743, Control_c, 0, 64, 80
2, 192762, Control_c, 0, 64, 79
2, 192771, Note_on_c, 0, 79, 0
2, 192792, Note_on_c, 0, 70, 0
2, 192800, Control_c, 0, 64, 79
2, 192897, Control_c, 0, 64, 78
2, 192916, Control_c, 0, 64, 78
2, 192935, Control_c, 0, 64, 77
2, 192954, Control_c, 0, 64, 77
2, 192974, Control_c, 0, 64, 76
2, 192987, Note_on_c, 0, 72, 55
2, 192993, Control_c, 0, 64, 75
2, 192999, Note_on_c, 0, 80, 63
2, 193011, Control_c, 0, 64, 73
2, 193031, Control_c, 0, 64, 71
2, 193050, Control_c, 0, 64, 68
2, 193069, Control_c, 0, 64, 63
2, 193088, Control_c, 0, 64, 57
2, 193108, Control_c, 0, 64, 48
2, 193127, Control_c, 0, 64, 34
2, 193146, Control_c, 0, 64, 0
2, 193401, Note_on_c, 0, 68, 48
2, 193605, Note_on_c, 0, 67, 38
2, 193687, Note_on_c, 0, 68, 0
2, 193818, Note_on_c, 0, 80, 0
2, 193847, Note_on_c, 0, 65, 38
2, 193864, Note_on_c, 0, 67, 0
2, 194010, Control_c, 0, 64, 21
2, 194029, Control_c, 0, 64, 34
2, 194048, Control_c, 0, 64, 42
2, 194068, Control_c, 0, 64, 46
2, 194070, Note_on_c, 0, 65, 0
2, 194087, Control_c, 0, 64, 46
2, 194145, Control_c, 0, 64, 46
2, 194164, Control_c, 0, 64, 45
2, 194183, Control_c, 0, 64, 45
2, 194202, Control_c, 0, 64, 44
2, 194269, Note_on_c, 0, 65, 34
2, 194273, Note_on_c, 0, 80, 55
2, 194356, Control_c, 0, 64, 44
2, 194375, Control_c, 0, 64, 43
2, 194394, Control_c, 0, 64, 43
2, 194402, Note_on_c, 0, 80, 0
2, 194472, Note_on_c, 0, 79, 56
2, 194507, Note_on_c, 0, 63, 37
2, 194509, Control_c, 0, 64, 42
2, 194527, Control_c, 0, 64, 41
2, 194547, Control_c, 0, 64, 40
2, 194566, Control_c, 0, 64, 39
2, 194585, Control_c, 0, 64, 37
2, 194599, Note_on_c, 0, 65, 0
2, 194604, Control_c, 0, 64, 35
2, 194624, Control_c, 0, 64, 34
2, 194643, Control_c, 0, 64, 31
2, 194662, Control_c, 0, 64, 29
2, 194681, Control_c, 0, 64, 27
2, 194701, Control_c, 0, 64, 25
2, 194719, Control_c, 0, 64, 22
2, 194730, Note_on_c, 0, 77, 52
2, 194736, Note_on_c, 0, 61, 40
2, 194737, Note_on_c, 0, 79, 0
2, 194739, Control_c, 0, 64, 18
2, 194758, Control_c, 0, 64, 11
2, 194775, Note_on_c, 0, 63, 0
2, 194778, Control_c, 0, 64, 0
2, 194952, Note_on_c, 0, 61, 0
2, 195009, Note_on_c, 0, 77, 0
2, 195154, Note_on_c, 0, 61, 41
2, 195161, Note_on_c, 0, 77, 61
2, 195360, Note_on_c, 0, 75, 64
2, 195364, Note_on_c, 0, 60, 41
2, 195391, Note_on_c, 0, 77, 0
2, 195448, Note_on_c, 0, 61, 0
2, 195650, Note_on_c, 0, 58, 38
2, 195667, Note_on_c, 0, 60, 0
2, 195694, Note_on_c, 0, 72, 0
2, 195699, Note_on_c, 0, 73, 61
2, 195736, Note_on_c, 0, 75, 0
2, 195944, Note_on_c, 0, 58, 0
2, 196117, Note_on_c, 0, 60, 43
2, 196147, Note_on_c, 0, 70, 53
2, 196335, Note_on_c, 0, 68, 58
2, 196340, Note_on_c, 0, 70, 0
2, 196341, Note_on_c, 0, 61, 54
2, 196363, Note_on_c, 0, 60, 0
2, 196526, Note_on_c, 0, 61, 0
2, 196578, Note_on_c, 0, 63, 47
2, 196583, Note_on_c, 0, 68, 0
2, 196584, Note_on_c, 0, 67, 50
2, 196849, Note_on_c, 0, 63, 0
2, 196997, Note_on_c, 0, 51, 41
2, 197013, Note_on_c, 0, 73, 0
2, 197015, Note_on_c, 0, 75, 62
2, 197208, Note_on_c, 0, 73, 54
2, 197273, Note_on_c, 0, 75, 0
2, 197298, Note_on_c, 0, 51, 0
2, 197449, Note_on_c, 0, 72, 58
2, 197459, Note_on_c, 0, 56, 41
2, 197489, Note_on_c, 0, 73, 0
2, 197637, Note_on_c, 0, 56, 0
2, 197744, Note_on_c, 0, 72, 0
2, 197876, Note_on_c, 0, 58, 41
2, 197886, Note_on_c, 0, 72, 69
2, 198080, Note_on_c, 0, 58, 0
2, 198092, Note_on_c, 0, 70, 74
2, 198108, Note_on_c, 0, 60, 45
2, 198140, Note_on_c, 0, 72, 0
2, 198452, Note_on_c, 0, 61, 45
2, 198452, Note_on_c, 0, 68, 68
2, 198500, Note_on_c, 0, 67, 0
2, 198531, Note_on_c, 0, 70, 0
2, 198604, Note_on_c, 0, 60, 0
2, 198936, Note_on_c, 0, 65, 55
2, 198964, Control_c, 0, 64, 31
2, 198984, Control_c, 0, 64, 55
2, 199003, Control_c, 0, 64, 62
2, 199023, Control_c, 0, 64, 65
2, 199041, Control_c, 0, 64, 67
2, 199061, Control_c, 0, 64, 71
2, 199080, Control_c, 0, 64, 78
2, 199100, Control_c, 0, 64, 86
2, 199118, Control_c, 0, 64, 92
2, 199138, Control_c, 0, 64, 95
2, 199141, Note_on_c, 0, 64, 61
2, 199145, Note_on_c, 0, 65, 0
2, 199157, Control_c, 0, 64, 95
2, 199216, Note_on_c, 0, 64, 0
2, 199234, Control_c, 0, 64, 95
2, 199252, Control_c, 0, 64, 94
2, 199272, Control_c, 0, 64, 93
2, 199291, Control_c, 0, 64, 91
2, 199310, Control_c, 0, 64, 89
2, 199329, Control_c, 0, 64, 86
2, 199349, Control_c, 0, 64, 83
2, 199368, Control_c, 0, 64, 80
2, 199375, Note_on_c, 0, 61, 0
2, 199379, Note_on_c, 0, 68, 0
2, 199386, Note_on_c, 0, 65, 62
2, 199387, Control_c, 0, 64, 78
2, 199406, Control_c, 0, 64, 75
2, 199426, Control_c, 0, 64, 72
2, 199444, Control_c, 0, 64, 68
2, 199464, Control_c, 0, 64, 64
2, 199483, Control_c, 0, 64, 62
2, 199503, Control_c, 0, 64, 60
2, 199521, Control_c, 0, 64, 58
2, 199541, Control_c, 0, 64, 56
2, 199560, Control_c, 0, 64, 52
2, 199580, Control_c, 0, 64, 45
2, 199598, Control_c, 0, 64, 33
2, 199618, Control_c, 0, 64, 15
2, 199637, Control_c, 0, 64, 0
2, 199839, Note_on_c, 0, 70, 57
2, 199846, Note_on_c, 0, 61, 43
2, 200044, Note_on_c, 0, 60, 41
2, 200063, Note_on_c, 0, 72, 57
2, 200092, Note_on_c, 0, 61, 0
2, 200097, Note_on_c, 0, 70, 0
2, 200285, Note_on_c, 0, 58, 36
2, 200307, Note_on_c, 0, 73, 63
2, 200310, Note_on_c, 0, 60, 0
2, 200326, Note_on_c, 0, 72, 0
2, 200457, Note_on_c, 0, 58, 0
2, 200464, Note_on_c, 0, 65, 0
2, 200737, Note_on_c, 0, 58, 39
2, 200743, Note_on_c, 0, 67, 39
2, 200921, Note_on_c, 0, 67, 0
2, 200954, Note_on_c, 0, 56, 49
2, 200954, Note_on_c, 0, 68, 48
2, 201018, Note_on_c, 0, 58, 0
2, 201070, Note_on_c, 0, 73, 0
2, 201131, Note_on_c, 0, 68, 0
2, 201166, Note_on_c, 0, 55, 40
2, 201187, Note_on_c, 0, 70, 57
2, 201195, Note_on_c, 0, 56, 0
2, 201364, Note_on_c, 0, 55, 0
2, 201379, Note_on_c, 0, 72, 72
2, 201590, Note_on_c, 0, 55, 51
2, 201600, Note_on_c, 0, 73, 74
2, 201630, Note_on_c, 0, 72, 0
2, 201634, Note_on_c, 0, 70, 0
2, 201799, Note_on_c, 0, 53, 73
2, 201800, Note_on_c, 0, 70, 74
2, 201804, Note_on_c, 0, 73, 0
2, 201841, Note_on_c, 0, 55, 0
2, 202014, Note_on_c, 0, 70, 0
2, 202022, Note_on_c, 0, 52, 67
2, 202026, Note_on_c, 0, 79, 80
2, 202155, Note_on_c, 0, 53, 0
2, 202201, Note_on_c, 0, 52, 0
2, 202234, Note_on_c, 0, 68, 68
2, 202446, Note_on_c, 0, 48, 70
2, 202455, Note_on_c, 0, 70, 71
2, 202464, Note_on_c, 0, 68, 0
2, 202623, Note_on_c, 0, 48, 0
2, 202651, Note_on_c, 0, 67, 68
2, 202673, Note_on_c, 0, 70, 0
2, 202735, Note_on_c, 0, 67, 0
2, 202866, Note_on_c, 0, 68, 72
2, 202872, Note_on_c, 0, 53, 59
2, 203012, Note_on_c, 0, 53, 0
2, 203067, Note_on_c, 0, 79, 0
2, 203080, Note_on_c, 0, 72, 68
2, 203285, Note_on_c, 0, 72, 0
2, 203293, Note_on_c, 0, 65, 50
2, 203300, Note_on_c, 0, 73, 55
2, 203489, Note_on_c, 0, 72, 53
2, 203504, Note_on_c, 0, 68, 0
2, 203518, Note_on_c, 0, 65, 0
2, 203524, Note_on_c, 0, 63, 44
2, 203524, Note_on_c, 0, 73, 0
2, 203563, Note_on_c, 0, 63, 0
2, 203687, Control_c, 0, 64, 17
2, 203693, Note_on_c, 0, 63, 41
2, 203706, Control_c, 0, 64, 44
2, 203714, Note_on_c, 0, 77, 55
2, 203725, Control_c, 0, 64, 61
2, 203745, Control_c, 0, 64, 66
2, 203764, Control_c, 0, 64, 69
2, 203783, Control_c, 0, 64, 75
2, 203794, Note_on_c, 0, 63, 0
2, 203802, Control_c, 0, 64, 81
2, 203822, Control_c, 0, 64, 87
2, 203830, Note_on_c, 0, 61, 52
2, 203832, Note_on_c, 0, 72, 0
2, 203840, Control_c, 0, 64, 90
2, 203860, Control_c, 0, 64, 91
2, 203879, Control_c, 0, 64, 92
2, 203900, Note_on_c, 0, 61, 0
2, 203907, Note_on_c, 0, 67, 52
2, 203917, Control_c, 0, 64, 91
2, 203937, Control_c, 0, 64, 91
2, 203945, Note_on_c, 0, 63, 58
2, 203956, Control_c, 0, 64, 90
2, 203975, Control_c, 0, 64, 89
2, 203993, Note_on_c, 0, 63, 0
2, 203994, Control_c, 0, 64, 88
2, 204011, Control_c, 0, 64, 87
2, 204031, Control_c, 0, 64, 87
2, 204034, Note_on_c, 0, 61, 43
2, 204049, Control_c, 0, 64, 86
2, 204069, Control_c, 0, 64, 84
2, 204070, Note_on_c, 0, 61, 0
2, 204088, Control_c, 0, 64, 83
2, 204104, Note_on_c, 0, 63, 56
2, 204106, Note_on_c, 0, 67, 0
2, 204107, Note_on_c, 0, 68, 59
2, 204108, Control_c, 0, 64, 81
2, 204126, Control_c, 0, 64, 80
2, 204146, Control_c, 0, 64, 79
2, 204165, Control_c, 0, 64, 78
2, 204184, Note_on_c, 0, 61, 48
2, 204185, Control_c, 0, 64, 77
2, 204203, Control_c, 0, 64, 75
2, 204223, Control_c, 0, 64, 74
2, 204237, Note_on_c, 0, 63, 0
2, 204242, Control_c, 0, 64, 71
2, 204251, Note_on_c, 0, 61, 0
2, 204261, Control_c, 0, 64, 69
2, 204280, Control_c, 0, 64, 66
2, 204292, Note_on_c, 0, 68, 0
2, 204300, Control_c, 0, 64, 64
2, 204310, Note_on_c, 0, 60, 42
2, 204319, Control_c, 0, 64, 64
2, 204319, Note_on_c, 0, 65, 51
2, 204338, Control_c, 0, 64, 63
2, 204377, Control_c, 0, 64, 63
2, 204395, Control_c, 0, 64, 62
2, 204401, Note_on_c, 0, 60, 0
2, 204408, Note_on_c, 0, 61, 50
2, 204415, Control_c, 0, 64, 61
2, 204434, Control_c, 0, 64, 60
2, 204453, Control_c, 0, 64, 60
2, 204472, Control_c, 0, 64, 59
2, 204491, Control_c, 0, 64, 58
2, 204511, Control_c, 0, 64, 57
2, 204529, Control_c, 0, 64, 55
2, 204549, Control_c, 0, 64, 52
2, 204561, Note_on_c, 0, 61, 0
2, 204568, Control_c, 0, 64, 50
2, 204588, Control_c, 0, 64, 49
2, 204599, Note_on_c, 0, 60, 30
2, 204606, Control_c, 0, 64, 48
2, 204622, Note_on_c, 0, 72, 51
2, 204626, Control_c, 0, 64, 47
2, 204631, Note_on_c, 0, 65, 0
2, 204645, Control_c, 0, 64, 45
2, 204665, Control_c, 0, 64, 44
2, 204680, Note_on_c, 0, 77, 0
2, 204683, Control_c, 0, 64, 42
2, 204703, Control_c, 0, 64, 39
2, 204722, Control_c, 0, 64, 38
2, 204741, Control_c, 0, 64, 37
2, 204761, Control_c, 0, 64, 37
2, 204781, Control_c, 0, 64, 36
2, 204799, Control_c, 0, 64, 35
2, 204819, Control_c, 0, 64, 35
2, 204838, Control_c, 0, 64, 34
2, 204858, Control_c, 0, 64, 34
2, 204887, Note_on_c, 0, 60, 0
2, 204936, Note_on_c, 0, 72, 0
2, 205055, Note_on_c, 0, 48, 49
2, 205061, Note_on_c, 0, 76, 62
2, 205069, Control_c, 0, 64, 33
2, 205069, Note_on_c, 0, 67, 45
2, 205087, Control_c, 0, 64, 32
2, 205107, Control_c, 0, 64, 31
2, 205126, Control_c, 0, 64, 31
2, 205164, Control_c, 0, 64, 30
2, 205184, Control_c, 0, 64, 29
2, 205203, Control_c, 0, 64, 28
2, 205222, Control_c, 0, 64, 27
2, 205241, Control_c, 0, 64, 26
2, 205255, Note_on_c, 0, 48, 0
2, 205256, Note_on_c, 0, 50, 67
2, 205256, Note_on_c, 0, 77, 72
2, 205261, Control_c, 0, 64, 24
2, 205268, Note_on_c, 0, 76, 0
2, 205279, Control_c, 0, 64, 23
2, 205299, Control_c, 0, 64, 22
2, 205318, Control_c, 0, 64, 21
2, 205338, Control_c, 0, 64, 20
2, 205376, Control_c, 0, 64, 19
2, 205415, Control_c, 0, 64, 18
2, 205468, Note_on_c, 0, 67, 0
2, 205490, Control_c, 0, 64, 15
2, 205510, Control_c, 0, 64, 11
2, 205529, Control_c, 0, 64, 0
2, 205593, Note_on_c, 0, 79, 71
2, 205609, Note_on_c, 0, 48, 70
2, 205611, Note_on_c, 0, 52, 73
2, 205616, Note_on_c, 0, 72, 57
2, 205616, Note_on_c, 0, 77, 0
2, 205692, Note_on_c, 0, 50, 0
2, 206042, Note_on_c, 0, 72, 0
2, 206048, Note_on_c, 0, 52, 0
2, 206073, Note_on_c, 0, 50, 56
2, 206078, Note_on_c, 0, 70, 59
2, 206253, Note_on_c, 0, 50, 0
2, 206282, Note_on_c, 0, 52, 59
2, 206392, Note_on_c, 0, 79, 0
2, 206480, Note_on_c, 0, 49, 69
2, 206485, Note_on_c, 0, 52, 0
2, 206487, Note_on_c, 0, 68, 68
2, 206493, Note_on_c, 0, 53, 66
2, 206618, Note_on_c, 0, 48, 0
2, 206660, Note_on_c, 0, 70, 0
2, 206715, Note_on_c, 0, 52, 74
2, 206736, Note_on_c, 0, 53, 0
2, 206792, Note_on_c, 0, 68, 0
2, 206888, Note_on_c, 0, 52, 0
2, 206924, Note_on_c, 0, 53, 56
2, 206926, Note_on_c, 0, 77, 75
2, 206930, Control_c, 0, 64, 30
2, 206936, Note_on_c, 0, 70, 68
2, 206950, Control_c, 0, 64, 52
2, 206969, Control_c, 0, 64, 61
2, 206989, Control_c, 0, 64, 64
2, 207007, Control_c, 0, 64, 66
2, 207016, Note_on_c, 0, 77, 0
2, 207027, Control_c, 0, 64, 69
2, 207046, Control_c, 0, 64, 73
2, 207065, Control_c, 0, 64, 79
2, 207084, Control_c, 0, 64, 90
2, 207104, Control_c, 0, 64, 103
2, 207123, Control_c, 0, 64, 123
2, 207124, Note_on_c, 0, 53, 0
2, 207128, Note_on_c, 0, 55, 70
2, 207135, Note_on_c, 0, 49, 0
2, 207142, Control_c, 0, 64, 127
2, 207217, Note_on_c, 0, 55, 0
2, 207315, Control_c, 0, 64, 102
2, 207335, Control_c, 0, 64, 82
2, 207335, Note_on_c, 0, 56, 86
2, 207338, Note_on_c, 0, 48, 75
2, 207345, Note_on_c, 0, 72, 66
2, 207353, Control_c, 0, 64, 67
2, 207353, Note_on_c, 0, 70, 0
2, 207372, Control_c, 0, 64, 58
2, 207392, Control_c, 0, 64, 57
2, 207410, Control_c, 0, 64, 61
2, 207430, Control_c, 0, 64, 64
2, 207449, Control_c, 0, 64, 66
2, 207469, Control_c, 0, 64, 70
2, 207487, Control_c, 0, 64, 76
2, 207507, Control_c, 0, 64, 85
2, 207516, Note_on_c, 0, 72, 0
2, 207526, Control_c, 0, 64, 93
2, 207545, Control_c, 0, 64, 96
2, 207556, Note_on_c, 0, 60, 58
2, 207564, Control_c, 0, 64, 99
2, 207584, Control_c, 0, 64, 102
2, 207603, Control_c, 0, 64, 104
2, 207611, Note_on_c, 0, 60, 0
2, 207622, Control_c, 0, 64, 105
2, 207642, Control_c, 0, 64, 106
2, 207662, Control_c, 0, 64, 105
2, 207680, Control_c, 0, 64, 98
2, 207700, Control_c, 0, 64, 85
2, 207719, Control_c, 0, 64, 71
2, 207739, Control_c, 0, 64, 66
2, 207757, Control_c, 0, 64, 66
2, 207773, Note_on_c, 0, 75, 66
2, 207777, Control_c, 0, 64, 70
2, 207777, Note_on_c, 0, 62, 67
2, 207796, Control_c, 0, 64, 74
2, 207815, Control_c, 0, 64, 81
2, 207831, Note_on_c, 0, 62, 0
2, 207834, Control_c, 0, 64, 89
2, 207851, Control_c, 0, 64, 96
2, 207871, Control_c, 0, 64, 99
2, 207928, Note_on_c, 0, 75, 0
2, 207962, Note_on_c, 0, 56, 0
2, 207975, Note_on_c, 0, 48, 0
2, 207978, Note_on_c, 0, 63, 66
2, 208053, Note_on_c, 0, 63, 0
2, 208120, Control_c, 0, 64, 97
2, 208140, Control_c, 0, 64, 93
2, 208159, Control_c, 0, 64, 86
2, 208178, Control_c, 0, 64, 76
2, 208197, Control_c, 0, 64, 67
2, 208204, Note_on_c, 0, 47, 77
2, 208206, Note_on_c, 0, 74, 71
2, 208215, Note_on_c, 0, 65, 55
2, 208217, Control_c, 0, 64, 57
2, 208235, Control_c, 0, 64, 0
2, 208414, Note_on_c, 0, 53, 69
2, 208452, Note_on_c, 0, 74, 0
2, 208585, Note_on_c, 0, 53, 0
2, 208627, Note_on_c, 0, 75, 73
2, 208635, Note_on_c, 0, 55, 61
2, 208727, Note_on_c, 0, 65, 0
2, 208816, Note_on_c, 0, 56, 62
2, 208823, Note_on_c, 0, 55, 0
2, 208847, Note_on_c, 0, 77, 74
2, 208851, Note_on_c, 0, 75, 0
2, 209072, Note_on_c, 0, 58, 80
2, 209077, Note_on_c, 0, 79, 81
2, 209081, Note_on_c, 0, 52, 72
2, 209093, Note_on_c, 0, 77, 0
2, 209108, Note_on_c, 0, 56, 0
2, 209136, Note_on_c, 0, 47, 0
2, 209234, Control_c, 0, 64, 20
2, 209253, Control_c, 0, 64, 51
2, 209272, Control_c, 0, 64, 61
2, 209291, Control_c, 0, 64, 63
2, 209300, Note_on_c, 0, 77, 69
2, 209328, Note_on_c, 0, 79, 0
2, 209357, Note_on_c, 0, 77, 0
2, 209507, Note_on_c, 0, 52, 0
2, 209510, Note_on_c, 0, 76, 66
2, 209522, Control_c, 0, 64, 64
2, 209532, Note_on_c, 0, 67, 38
2, 209583, Control_c, 0, 64, 64
2, 209621, Control_c, 0, 64, 65
2, 209660, Control_c, 0, 64, 65
2, 209716, Note_on_c, 0, 74, 64
2, 209751, Note_on_c, 0, 76, 0
2, 209792, Control_c, 0, 64, 65
2, 209842, Note_on_c, 0, 58, 0
2, 209849, Control_c, 0, 64, 64
2, 209926, Control_c, 0, 64, 64
2, 209930, Note_on_c, 0, 53, 73
2, 209930, Note_on_c, 0, 74, 0
2, 209935, Note_on_c, 0, 72, 56
2, 209942, Control_c, 0, 64, 63
2, 209945, Note_on_c, 0, 68, 57
2, 209961, Control_c, 0, 64, 60
2, 209972, Note_on_c, 0, 67, 0
2, 209981, Control_c, 0, 64, 56
2, 210000, Control_c, 0, 64, 36
2, 210019, Control_c, 0, 64, 0
2, 210148, Note_on_c, 0, 56, 65
2, 210288, Control_c, 0, 64, 46
2, 210307, Control_c, 0, 64, 57
2, 210327, Control_c, 0, 64, 62
2, 210346, Control_c, 0, 64, 65
2, 210363, Note_on_c, 0, 58, 63
2, 210365, Control_c, 0, 64, 69
2, 210384, Control_c, 0, 64, 77
2, 210403, Control_c, 0, 64, 91
2, 210415, Note_on_c, 0, 56, 0
2, 210422, Control_c, 0, 64, 127
2, 210440, Note_on_c, 0, 72, 0
2, 210486, Note_on_c, 0, 68, 0
2, 210518, Note_on_c, 0, 53, 0
2, 210567, Note_on_c, 0, 58, 0
2, 210571, Note_on_c, 0, 60, 72
2, 210612, Note_on_c, 0, 60, 0
2, 210781, Note_on_c, 0, 46, 76
2, 210790, Note_on_c, 0, 61, 69
2, 210826, Control_c, 0, 64, 110
2, 210845, Control_c, 0, 64, 81
2, 210864, Control_c, 0, 64, 63
2, 210883, Control_c, 0, 64, 0
2, 210996, Note_on_c, 0, 70, 77
2, 211110, Control_c, 0, 64, 59
2, 211130, Control_c, 0, 64, 63
2, 211149, Control_c, 0, 64, 65
2, 211169, Control_c, 0, 64, 70
2, 211187, Control_c, 0, 64, 80
2, 211207, Control_c, 0, 64, 108
2, 211209, Note_on_c, 0, 68, 77
2, 211226, Control_c, 0, 64, 127
2, 211365, Note_on_c, 0, 61, 0
2, 211371, Note_on_c, 0, 70, 0
2, 211376, Note_on_c, 0, 46, 0
2, 211405, Note_on_c, 0, 67, 70
2, 211444, Note_on_c, 0, 68, 0
2, 211628, Note_on_c, 0, 72, 68
2, 211629, Note_on_c, 0, 45, 74
2, 211630, Control_c, 0, 64, 93
2, 211649, Control_c, 0, 64, 69
2, 211649, Note_on_c, 0, 65, 57
2, 211668, Control_c, 0, 64, 0
2, 211822, Control_c, 0, 64, 53
2, 211823, Note_on_c, 0, 60, 64
2, 211842, Control_c, 0, 64, 63
2, 211860, Control_c, 0, 64, 67
2, 211880, Control_c, 0, 64, 71
2, 211890, Note_on_c, 0, 65, 0
2, 211896, Note_on_c, 0, 60, 0
2, 211899, Control_c, 0, 64, 77
2, 211919, Control_c, 0, 64, 83
2, 211937, Control_c, 0, 64, 86
2, 211966, Note_on_c, 0, 67, 0
2, 211976, Control_c, 0, 64, 85
2, 211995, Control_c, 0, 64, 83
2, 212014, Control_c, 0, 64, 82
2, 212031, Note_on_c, 0, 62, 67
2, 212034, Control_c, 0, 64, 81
2, 212053, Control_c, 0, 64, 80
2, 212071, Control_c, 0, 64, 78
2, 212091, Control_c, 0, 64, 77
2, 212110, Control_c, 0, 64, 76
2, 212129, Control_c, 0, 64, 74
2, 212148, Control_c, 0, 64, 74
2, 212187, Control_c, 0, 64, 73
2, 212219, Note_on_c, 0, 64, 69
2, 212245, Control_c, 0, 64, 72
2, 212249, Note_on_c, 0, 62, 0
2, 212264, Control_c, 0, 64, 70
2, 212283, Control_c, 0, 64, 67
2, 212302, Control_c, 0, 64, 65
2, 212322, Control_c, 0, 64, 64
2, 212417, Control_c, 0, 64, 63
2, 212450, Note_on_c, 0, 44, 83
2, 212459, Note_on_c, 0, 65, 61
2, 212474, Note_on_c, 0, 45, 0
2, 212474, Note_on_c, 0, 64, 0
2, 212497, Control_c, 0, 64, 63
2, 212533, Note_on_c, 0, 65, 0
2, 212535, Control_c, 0, 64, 62
2, 212555, Control_c, 0, 64, 62
2, 212631, Control_c, 0, 64, 61
2, 212638, Note_on_c, 0, 72, 0
2, 212662, Note_on_c, 0, 65, 76
2, 212689, Control_c, 0, 64, 61
2, 212804, Control_c, 0, 64, 61
2, 212823, Control_c, 0, 64, 62
2, 212843, Control_c, 0, 64, 63
2, 212862, Control_c, 0, 64, 63
2, 212881, Note_on_c, 0, 72, 79
2, 212885, Note_on_c, 0, 67, 72
2, 212900, Control_c, 0, 64, 64
2, 212920, Control_c, 0, 64, 65
2, 212928, Note_on_c, 0, 65, 0
2, 212939, Control_c, 0, 64, 66
2, 212958, Control_c, 0, 64, 67
2, 212977, Control_c, 0, 64, 69
2, 212997, Control_c, 0, 64, 72
2, 213015, Control_c, 0, 64, 79
2, 213022, Note_on_c, 0, 72, 0
2, 213035, Control_c, 0, 64, 87
2, 213054, Control_c, 0, 64, 96
2, 213074, Control_c, 0, 64, 103
2, 213085, Note_on_c, 0, 68, 79
2, 213092, Control_c, 0, 64, 107
2, 213111, Control_c, 0, 64, 109
2, 213119, Note_on_c, 0, 67, 0
2, 213131, Control_c, 0, 64, 111
2, 213149, Control_c, 0, 64, 112
2, 213208, Control_c, 0, 64, 113
2, 213323, Control_c, 0, 64, 110
2, 213330, Note_on_c, 0, 43, 74
2, 213342, Control_c, 0, 64, 104
2, 213361, Control_c, 0, 64, 93
2, 213379, Note_on_c, 0, 44, 0
2, 213380, Control_c, 0, 64, 82
2, 213400, Control_c, 0, 64, 69
2, 213403, Note_on_c, 0, 68, 0
2, 213419, Control_c, 0, 64, 44
2, 213421, Note_on_c, 0, 73, 77
2, 213425, Note_on_c, 0, 70, 68
2, 213438, Control_c, 0, 64, 0
2, 213591, Control_c, 0, 64, 39
2, 213611, Control_c, 0, 64, 59
2, 213629, Control_c, 0, 64, 67
2, 213649, Control_c, 0, 64, 78
2, 213667, Note_on_c, 0, 73, 0
2, 213668, Control_c, 0, 64, 113
2, 213688, Control_c, 0, 64, 127
2, 213786, Note_on_c, 0, 70, 0
2, 213863, Note_on_c, 0, 72, 74
2, 213872, Note_on_c, 0, 64, 65
2, 214009, Note_on_c, 0, 64, 0
2, 214059, Note_on_c, 0, 70, 74
2, 214060, Note_on_c, 0, 62, 65
2, 214108, Note_on_c, 0, 72, 0
2, 214136, Note_on_c, 0, 62, 0
2, 214148, Control_c, 0, 64, 95
2, 214168, Control_c, 0, 64, 82
2, 214186, Control_c, 0, 64, 71
2, 214206, Control_c, 0, 64, 64
2, 214225, Control_c, 0, 64, 57
2, 214244, Control_c, 0, 64, 45
2, 214263, Control_c, 0, 64, 30
2, 214283, Control_c, 0, 64, 0
2, 214292, Note_on_c, 0, 72, 81
2, 214295, Note_on_c, 0, 64, 71
2, 214317, Note_on_c, 0, 70, 0
2, 214723, Note_on_c, 0, 68, 78
2, 214770, Note_on_c, 0, 72, 0
2, 214925, Note_on_c, 0, 67, 70
2, 214952, Note_on_c, 0, 64, 0
2, 214984, Note_on_c, 0, 68, 0
2, 215207, Note_on_c, 0, 41, 56
2, 215216, Note_on_c, 0, 43, 0
2, 215221, Note_on_c, 0, 68, 71
2, 215231, Note_on_c, 0, 65, 46
2, 215234, Note_on_c, 0, 67, 0
2, 215317, Control_c, 0, 64, 23
2, 215336, Control_c, 0, 64, 61
2, 215355, Control_c, 0, 64, 71
2, 215374, Control_c, 0, 64, 84
2, 215375, Note_on_c, 0, 41, 0
2, 215394, Control_c, 0, 64, 123
2, 215413, Control_c, 0, 64, 127
2, 215623, Control_c, 0, 64, 112
2, 215642, Control_c, 0, 64, 102
2, 215661, Control_c, 0, 64, 96
2, 215681, Control_c, 0, 64, 89
2, 215699, Control_c, 0, 64, 81
2, 215719, Control_c, 0, 64, 75
2, 215738, Control_c, 0, 64, 69
2, 215758, Control_c, 0, 64, 65
2, 215776, Control_c, 0, 64, 63
2, 215776, Note_on_c, 0, 53, 55
2, 215796, Control_c, 0, 64, 62
2, 215815, Control_c, 0, 64, 61
2, 215834, Control_c, 0, 64, 59
2, 215842, Note_on_c, 0, 65, 0
2, 215853, Control_c, 0, 64, 57
2, 215869, Note_on_c, 0, 68, 0
2, 215872, Control_c, 0, 64, 55
2, 215892, Control_c, 0, 64, 53
2, 215910, Control_c, 0, 64, 50
2, 215930, Control_c, 0, 64, 48
2, 215949, Control_c, 0, 64, 47
2, 215982, Note_on_c, 0, 55, 49
2, 215987, Control_c, 0, 64, 46
2, 215988, Note_on_c, 0, 53, 0
2, 216007, Control_c, 0, 64, 46
2, 216026, Control_c, 0, 64, 44
2, 216048, Control_c, 0, 64, 43
2, 216067, Control_c, 0, 64, 41
2, 216087, Control_c, 0, 64, 41
2, 216109, Control_c, 0, 64, 40
2, 216127, Control_c, 0, 64, 39
2, 216147, Control_c, 0, 64, 39
2, 216161, Note_on_c, 0, 55, 0
2, 216188, Note_on_c, 0, 56, 50
2, 216224, Control_c, 0, 64, 38
2, 216281, Control_c, 0, 64, 39
2, 216301, Control_c, 0, 64, 40
2, 216319, Control_c, 0, 64, 41
2, 216339, Control_c, 0, 64, 42
2, 216358, Control_c, 0, 64, 44
2, 216361, Note_on_c, 0, 56, 0
2, 216378, Control_c, 0, 64, 44
2, 216396, Control_c, 0, 64, 45
2, 216640, Note_on_c, 0, 56, 44
2, 216646, Control_c, 0, 64, 44
2, 216657, Note_on_c, 0, 60, 34
2, 216684, Control_c, 0, 64, 44
2, 216799, Control_c, 0, 64, 43
2, 216819, Control_c, 0, 64, 43
2, 216838, Control_c, 0, 64, 42
2, 216845, Note_on_c, 0, 58, 43
2, 216858, Control_c, 0, 64, 39
2, 216859, Note_on_c, 0, 60, 0
2, 216872, Note_on_c, 0, 61, 47
2, 216876, Control_c, 0, 64, 29
2, 216887, Note_on_c, 0, 56, 0
2, 216895, Control_c, 0, 64, 0
2, 217042, Note_on_c, 0, 61, 0
2, 217053, Note_on_c, 0, 58, 0
2, 217072, Note_on_c, 0, 60, 34
2, 217086, Note_on_c, 0, 63, 51
2, 217145, Control_c, 0, 64, 46
2, 217164, Control_c, 0, 64, 62
2, 217184, Control_c, 0, 64, 64
2, 217203, Control_c, 0, 64, 65
2, 217222, Control_c, 0, 64, 66
2, 217241, Control_c, 0, 64, 68
2, 217249, Note_on_c, 0, 63, 0
2, 217261, Control_c, 0, 64, 73
2, 217279, Control_c, 0, 64, 78
2, 217299, Control_c, 0, 64, 83
2, 217318, Control_c, 0, 64, 85
2, 217356, Control_c, 0, 64, 85
2, 217395, Control_c, 0, 64, 86
2, 217414, Control_c, 0, 64, 88
2, 217433, Control_c, 0, 64, 90
2, 217452, Control_c, 0, 64, 92
2, 217472, Control_c, 0, 64, 93
2, 217490, Control_c, 0, 64, 86
2, 217510, Control_c, 0, 64, 75
2, 217529, Control_c, 0, 64, 64
2, 217532, Note_on_c, 0, 78, 55
2, 217534, Note_on_c, 0, 63, 46
2, 217549, Control_c, 0, 64, 44
2, 217567, Control_c, 0, 64, 39
2, 217587, Control_c, 0, 64, 51
2, 217606, Control_c, 0, 64, 60
2, 217625, Control_c, 0, 64, 65
2, 217644, Control_c, 0, 64, 68
2, 217664, Control_c, 0, 64, 72
2, 217683, Control_c, 0, 64, 76
2, 217702, Control_c, 0, 64, 77
2, 217721, Control_c, 0, 64, 77
2, 217724, Note_on_c, 0, 78, 0
2, 217740, Note_on_c, 0, 77, 62
2, 217741, Control_c, 0, 64, 76
2, 217745, Note_on_c, 0, 65, 41
2, 217747, Note_on_c, 0, 63, 0
2, 217759, Control_c, 0, 64, 73
2, 217779, Control_c, 0, 64, 72
2, 217797, Note_on_c, 0, 65, 0
2, 217798, Control_c, 0, 64, 70
2, 217818, Control_c, 0, 64, 69
2, 217836, Control_c, 0, 64, 67
2, 217855, Control_c, 0, 64, 64
2, 217875, Control_c, 0, 64, 61
2, 217894, Control_c, 0, 64, 57
2, 217913, Control_c, 0, 64, 55
2, 217929, Note_on_c, 0, 77, 0
2, 217932, Control_c, 0, 64, 53
2, 217952, Control_c, 0, 64, 50
2, 217958, Note_on_c, 0, 75, 59
2, 217963, Note_on_c, 0, 66, 50
2, 217970, Control_c, 0, 64, 47
2, 217990, Control_c, 0, 64, 40
2, 218009, Control_c, 0, 64, 31
2, 218029, Control_c, 0, 64, 22
2, 218047, Control_c, 0, 64, 17
2, 218067, Control_c, 0, 64, 15
2, 218086, Control_c, 0, 64, 11
2, 218105, Control_c, 0, 64, 9
2, 218124, Control_c, 0, 64, 0
2, 218142, Note_on_c, 0, 75, 0
2, 218154, Note_on_c, 0, 58, 41
2, 218155, Note_on_c, 0, 60, 0
2, 218160, Note_on_c, 0, 73, 55
2, 218315, Note_on_c, 0, 58, 0
2, 218375, Note_on_c, 0, 73, 0
2, 218387, Note_on_c, 0, 56, 44
2, 218396, Note_on_c, 0, 72, 60
2, 218570, Note_on_c, 0, 72, 0
2, 218598, Note_on_c, 0, 70, 60
2, 218607, Note_on_c, 0, 54, 39
2, 218634, Note_on_c, 0, 56, 0
2, 218801, Note_on_c, 0, 54, 0
2, 218814, Note_on_c, 0, 53, 46
2, 218827, Note_on_c, 0, 66, 0
2, 218836, Note_on_c, 0, 68, 57
2, 218853, Note_on_c, 0, 70, 0
2, 218989, Control_c, 0, 64, 9
2, 218993, Note_on_c, 0, 53, 0
2, 219027, Control_c, 0, 64, 11
2, 219065, Control_c, 0, 64, 13
2, 219074, Note_on_c, 0, 68, 0
2, 219084, Control_c, 0, 64, 15
2, 219251, Note_on_c, 0, 70, 59
2, 219266, Note_on_c, 0, 49, 46
2, 219271, Note_on_c, 0, 65, 43
2, 219276, Control_c, 0, 64, 17
2, 219295, Control_c, 0, 64, 18
2, 219315, Control_c, 0, 64, 19
2, 219334, Control_c, 0, 64, 20
2, 219392, Control_c, 0, 64, 21
2, 219424, Note_on_c, 0, 49, 0
2, 219430, Control_c, 0, 64, 22
2, 219448, Note_on_c, 0, 51, 44
2, 219449, Control_c, 0, 64, 23
2, 219455, Note_on_c, 0, 72, 65
2, 219458, Note_on_c, 0, 65, 0
2, 219470, Note_on_c, 0, 63, 43
2, 219487, Control_c, 0, 64, 24
2, 219509, Note_on_c, 0, 70, 0
2, 219518, Note_on_c, 0, 63, 0
2, 219526, Control_c, 0, 64, 25
2, 219536, Note_on_c, 0, 72, 0
2, 219665, Note_on_c, 0, 53, 42
2, 219696, Note_on_c, 0, 73, 63
2, 219720, Note_on_c, 0, 51, 0
2, 219725, Note_on_c, 0, 61, 42
2, 219822, Note_on_c, 0, 53, 0
2, 219852, Control_c, 0, 64, 26
2, 220083, Control_c, 0, 64, 27
2, 220152, Note_on_c, 0, 53, 37
2, 220158, Note_on_c, 0, 56, 46
2, 220161, Control_c, 0, 64, 27
2, 220312, Note_on_c, 0, 61, 0
2, 220323, Note_on_c, 0, 56, 0
2, 220350, Note_on_c, 0, 58, 46
2, 220358, Note_on_c, 0, 55, 37
2, 220372, Note_on_c, 0, 53, 0
2, 220440, Note_on_c, 0, 73, 0
2, 220547, Note_on_c, 0, 58, 0
2, 220587, Note_on_c, 0, 56, 48
2, 220589, Note_on_c, 0, 60, 48
2, 220621, Note_on_c, 0, 55, 0
2, 220696, Control_c, 0, 64, 27
2, 220845, Note_on_c, 0, 60, 0
2, 220869, Control_c, 0, 64, 27
2, 220926, Control_c, 0, 64, 27
2, 220946, Control_c, 0, 64, 19
2, 220965, Control_c, 0, 64, 0
2, 221018, Note_on_c, 0, 75, 68
2, 221031, Note_on_c, 0, 60, 44
2, 221080, Control_c, 0, 64, 18
2, 221100, Control_c, 0, 64, 43
2, 221119, Control_c, 0, 64, 59
2, 221138, Control_c, 0, 64, 64
2, 221157, Control_c, 0, 64, 66
2, 221176, Control_c, 0, 64, 68
2, 221195, Control_c, 0, 64, 72
2, 221214, Control_c, 0, 64, 78
2, 221234, Control_c, 0, 64, 85
2, 221234, Note_on_c, 0, 73, 70
2, 221239, Note_on_c, 0, 61, 53
2, 221253, Control_c, 0, 64, 89
2, 221267, Note_on_c, 0, 75, 0
2, 221272, Control_c, 0, 64, 89
2, 221299, Note_on_c, 0, 61, 0
2, 221309, Note_on_c, 0, 60, 0
2, 221326, Control_c, 0, 64, 89
2, 221340, Note_on_c, 0, 73, 0
2, 221345, Control_c, 0, 64, 88
2, 221364, Control_c, 0, 64, 86
2, 221384, Control_c, 0, 64, 84
2, 221403, Control_c, 0, 64, 82
2, 221422, Control_c, 0, 64, 79
2, 221441, Control_c, 0, 64, 78
2, 221442, Note_on_c, 0, 72, 79
2, 221461, Control_c, 0, 64, 76
2, 221478, Note_on_c, 0, 63, 51
2, 221479, Control_c, 0, 64, 73
2, 221499, Control_c, 0, 64, 70
2, 221518, Control_c, 0, 64, 67
2, 221538, Control_c, 0, 64, 64
2, 221556, Control_c, 0, 64, 63
2, 221575, Control_c, 0, 64, 62
2, 221595, Control_c, 0, 64, 62
2, 221633, Control_c, 0, 64, 61
2, 221652, Control_c, 0, 64, 60
2, 221652, Note_on_c, 0, 54, 56
2, 221655, Note_on_c, 0, 70, 80
2, 221658, Note_on_c, 0, 56, 0
2, 221672, Control_c, 0, 64, 59
2, 221688, Note_on_c, 0, 72, 0
2, 221690, Control_c, 0, 64, 58
2, 221710, Control_c, 0, 64, 55
2, 221729, Control_c, 0, 64, 53
2, 221749, Control_c, 0, 64, 51
2, 221767, Control_c, 0, 64, 50
2, 221787, Control_c, 0, 64, 49
2, 221806, Control_c, 0, 64, 46
2, 221822, Note_on_c, 0, 54, 0
2, 221825, Control_c, 0, 64, 43
2, 221844, Control_c, 0, 64, 39
2, 221860, Note_on_c, 0, 68, 77
2, 221862, Note_on_c, 0, 53, 59
2, 221864, Control_c, 0, 64, 37
2, 221883, Control_c, 0, 64, 36
2, 221902, Control_c, 0, 64, 33
2, 221921, Control_c, 0, 64, 29
2, 221941, Control_c, 0, 64, 22
2, 221959, Control_c, 0, 64, 18
2, 221975, Note_on_c, 0, 70, 0
2, 221979, Control_c, 0, 64, 17
2, 222018, Control_c, 0, 64, 13
2, 222042, Control_c, 0, 64, 0
2, 222068, Note_on_c, 0, 66, 73
2, 222071, Note_on_c, 0, 51, 64
2, 222100, Note_on_c, 0, 53, 0
2, 222170, Note_on_c, 0, 68, 0
2, 222188, Note_on_c, 0, 63, 0
2, 222218, Note_on_c, 0, 66, 0
2, 222299, Note_on_c, 0, 49, 61
2, 222306, Note_on_c, 0, 65, 68
2, 222373, Note_on_c, 0, 51, 0
2, 222496, Note_on_c, 0, 49, 0
2, 222575, Note_on_c, 0, 65, 0
2, 222720, Note_on_c, 0, 46, 53
2, 222723, Note_on_c, 0, 67, 72
2, 222755, Note_on_c, 0, 61, 59
2, 222769, Control_c, 0, 64, 11
2, 222788, Control_c, 0, 64, 13
2, 222827, Control_c, 0, 64, 15
2, 222845, Control_c, 0, 64, 17
2, 222890, Note_on_c, 0, 61, 0
2, 222904, Control_c, 0, 64, 18
2, 222910, Note_on_c, 0, 46, 0
2, 222917, Note_on_c, 0, 48, 60
2, 222923, Note_on_c, 0, 60, 70
2, 222925, Note_on_c, 0, 69, 81
2, 222961, Control_c, 0, 64, 19
2, 222980, Control_c, 0, 64, 20
2, 222981, Note_on_c, 0, 67, 0
2, 223008, Note_on_c, 0, 60, 0
2, 223019, Control_c, 0, 64, 21
2, 223022, Note_on_c, 0, 69, 0
2, 223038, Control_c, 0, 64, 22
2, 223056, Control_c, 0, 64, 23
2, 223076, Control_c, 0, 64, 24
2, 223095, Control_c, 0, 64, 26
2, 223115, Control_c, 0, 64, 27
2, 223133, Control_c, 0, 64, 28
2, 223136, Note_on_c, 0, 49, 61
2, 223153, Control_c, 0, 64, 29
2, 223173, Note_on_c, 0, 70, 81
2, 223181, Note_on_c, 0, 48, 0
2, 223188, Note_on_c, 0, 58, 65
2, 223191, Control_c, 0, 64, 29
2, 223311, Note_on_c, 0, 49, 0
2, 223479, Control_c, 0, 64, 29
2, 223499, Control_c, 0, 64, 28
2, 223556, Control_c, 0, 64, 27
2, 223575, Control_c, 0, 64, 27
2, 223599, Note_on_c, 0, 49, 56
2, 223600, Note_on_c, 0, 53, 58
2, 223633, Control_c, 0, 64, 26
2, 223652, Control_c, 0, 64, 25
2, 223690, Control_c, 0, 64, 24
2, 223745, Note_on_c, 0, 58, 0
2, 223785, Note_on_c, 0, 51, 54
2, 223800, Note_on_c, 0, 55, 61
2, 223821, Note_on_c, 0, 49, 0
2, 223824, Note_on_c, 0, 53, 0
2, 223824, Note_on_c, 0, 70, 0
2, 223844, Control_c, 0, 64, 23
2, 223864, Control_c, 0, 64, 22
2, 223882, Control_c, 0, 64, 21
2, 223940, Control_c, 0, 64, 20
2, 223979, Control_c, 0, 64, 19
2, 223998, Control_c, 0, 64, 17
2, 224016, Control_c, 0, 64, 11
2, 224025, Note_on_c, 0, 55, 0
2, 224027, Note_on_c, 0, 56, 66
2, 224029, Note_on_c, 0, 53, 56
2, 224036, Control_c, 0, 64, 0
2, 224043, Note_on_c, 0, 51, 0
2, 224239, Note_on_c, 0, 56, 0
2, 224473, Note_on_c, 0, 56, 54
2, 224473, Note_on_c, 0, 72, 79
2, 224594, Control_c, 0, 64, 34
2, 224613, Control_c, 0, 64, 55
2, 224632, Control_c, 0, 64, 63
2, 224651, Control_c, 0, 64, 66
2, 224671, Control_c, 0, 64, 72
2, 224683, Note_on_c, 0, 70, 80
2, 224689, Control_c, 0, 64, 83
2, 224689, Note_on_c, 0, 58, 61
2, 224709, Control_c, 0, 64, 101
2, 224727, Note_on_c, 0, 72, 0
2, 224728, Control_c, 0, 64, 127
2, 224743, Note_on_c, 0, 56, 0
2, 224791, Note_on_c, 0, 58, 0
2, 224896, Note_on_c, 0, 60, 69
2, 224902, Note_on_c, 0, 68, 82
2, 224953, Note_on_c, 0, 70, 0
2, 224986, Note_on_c, 0, 68, 0
2, 225074, Control_c, 0, 64, 123
2, 225085, Note_on_c, 0, 53, 0
2, 225093, Control_c, 0, 64, 116
2, 225096, Note_on_c, 0, 51, 58
2, 225102, Note_on_c, 0, 67, 78
2, 225112, Control_c, 0, 64, 110
2, 225131, Control_c, 0, 64, 105
2, 225151, Control_c, 0, 64, 100
2, 225169, Control_c, 0, 64, 94
2, 225189, Control_c, 0, 64, 88
2, 225208, Control_c, 0, 64, 82
2, 225228, Control_c, 0, 64, 76
2, 225246, Control_c, 0, 64, 71
2, 225266, Control_c, 0, 64, 67
2, 225275, Note_on_c, 0, 51, 0
2, 225285, Control_c, 0, 64, 64
2, 225305, Control_c, 0, 64, 63
2, 225313, Note_on_c, 0, 49, 61
2, 225318, Note_on_c, 0, 65, 74
2, 225362, Control_c, 0, 64, 62
2, 225375, Note_on_c, 0, 67, 0
2, 225381, Control_c, 0, 64, 61
2, 225400, Control_c, 0, 64, 60
2, 225420, Control_c, 0, 64, 59
2, 225439, Control_c, 0, 64, 58
2, 225457, Control_c, 0, 64, 57
2, 225477, Control_c, 0, 64, 56
2, 225496, Control_c, 0, 64, 53
2, 225503, Note_on_c, 0, 48, 65
2, 225515, Control_c, 0, 64, 51
2, 225522, Note_on_c, 0, 63, 80
2, 225534, Control_c, 0, 64, 49
2, 225552, Note_on_c, 0, 49, 0
2, 225554, Control_c, 0, 64, 46
2, 225573, Control_c, 0, 64, 44
2, 225592, Control_c, 0, 64, 42
2, 225600, Note_on_c, 0, 65, 0
2, 225611, Control_c, 0, 64, 39
2, 225631, Control_c, 0, 64, 37
2, 225649, Control_c, 0, 64, 34
2, 225669, Control_c, 0, 64, 31
2, 225688, Control_c, 0, 64, 28
2, 225708, Control_c, 0, 64, 26
2, 225726, Control_c, 0, 64, 25
2, 225734, Note_on_c, 0, 46, 52
2, 225741, Note_on_c, 0, 48, 0
2, 225746, Control_c, 0, 64, 24
2, 225765, Control_c, 0, 64, 22
2, 225785, Control_c, 0, 64, 20
2, 225797, Note_on_c, 0, 61, 80
2, 225803, Control_c, 0, 64, 18
2, 225823, Control_c, 0, 64, 15
2, 225827, Note_on_c, 0, 60, 0
2, 225839, Note_on_c, 0, 63, 0
2, 225991, Note_on_c, 0, 48, 58
2, 226104, Note_on_c, 0, 46, 0
2, 226188, Control_c, 0, 64, 11
2, 226200, Note_on_c, 0, 48, 0
2, 226206, Control_c, 0, 64, 0
2, 226211, Note_on_c, 0, 49, 54
2, 226214, Note_on_c, 0, 58, 64
2, 226386, Note_on_c, 0, 61, 0
2, 226405, Note_on_c, 0, 48, 55
2, 226421, Note_on_c, 0, 60, 72
2, 226422, Note_on_c, 0, 58, 0
2, 226435, Note_on_c, 0, 49, 0
2, 226625, Note_on_c, 0, 46, 66
2, 226641, Note_on_c, 0, 61, 78
2, 226665, Note_on_c, 0, 48, 0
2, 226666, Note_on_c, 0, 60, 0
2, 226706, Control_c, 0, 64, 25
2, 226725, Control_c, 0, 64, 44
2, 226745, Control_c, 0, 64, 56
2, 226763, Control_c, 0, 64, 60
2, 226783, Control_c, 0, 64, 58
2, 226802, Control_c, 0, 64, 47
2, 226821, Control_c, 0, 64, 0
2, 226831, Note_on_c, 0, 44, 61
2, 226843, Note_on_c, 0, 65, 78
2, 226848, Note_on_c, 0, 46, 0
2, 226899, Control_c, 0, 64, 23
2, 226918, Control_c, 0, 64, 54
2, 226937, Control_c, 0, 64, 65
2, 226956, Control_c, 0, 64, 72
2, 226975, Control_c, 0, 64, 86
2, 226995, Control_c, 0, 64, 103
2, 227006, Note_on_c, 0, 44, 0
2, 227014, Control_c, 0, 64, 97
2, 227033, Control_c, 0, 64, 84
2, 227040, Note_on_c, 0, 43, 69
2, 227051, Control_c, 0, 64, 76
2, 227059, Note_on_c, 0, 70, 83
2, 227070, Note_on_c, 0, 65, 0
2, 227071, Control_c, 0, 64, 72
2, 227089, Control_c, 0, 64, 72
2, 227109, Control_c, 0, 64, 74
2, 227128, Control_c, 0, 64, 78
2, 227148, Control_c, 0, 64, 81
2, 227166, Control_c, 0, 64, 84
2, 227173, Note_on_c, 0, 70, 0
2, 227186, Control_c, 0, 64, 85
2, 227225, Control_c, 0, 64, 84
2, 227243, Control_c, 0, 64, 83
2, 227251, Note_on_c, 0, 41, 79
2, 227257, Note_on_c, 0, 68, 82
2, 227259, Note_on_c, 0, 43, 0
2, 227263, Control_c, 0, 64, 82
2, 227282, Control_c, 0, 64, 80
2, 227301, Control_c, 0, 64, 79
2, 227359, Control_c, 0, 64, 80
2, 227366, Note_on_c, 0, 68, 0
2, 227377, Control_c, 0, 64, 80
2, 227397, Control_c, 0, 64, 81
2, 227454, Control_c, 0, 64, 80
2, 227474, Control_c, 0, 64, 77
2, 227480, Note_on_c, 0, 39, 75
2, 227493, Control_c, 0, 64, 71
2, 227499, Note_on_c, 0, 41, 0
2, 227512, Control_c, 0, 64, 62
2, 227531, Control_c, 0, 64, 0
2, 227558, Note_on_c, 0, 67, 78
2, 227646, Control_c, 0, 64, 48
2, 227666, Control_c, 0, 64, 63
2, 227683, Note_on_c, 0, 39, 0
2, 227685, Control_c, 0, 64, 67
2, 227705, Control_c, 0, 64, 72
2, 227723, Control_c, 0, 64, 83
2, 227743, Control_c, 0, 64, 98
2, 227762, Control_c, 0, 64, 127
2, 227935, Control_c, 0, 64, 98
2, 227955, Control_c, 0, 64, 73
2, 227974, Control_c, 0, 64, 60
2, 227990, Note_on_c, 0, 46, 69
2, 227993, Control_c, 0, 64, 45
2, 227993, Note_on_c, 0, 63, 75
2, 228012, Control_c, 0, 64, 54
2, 228020, Note_on_c, 0, 61, 0
2, 228032, Control_c, 0, 64, 61
2, 228035, Note_on_c, 0, 67, 0
2, 228050, Control_c, 0, 64, 64
2, 228070, Control_c, 0, 64, 68
2, 228089, Control_c, 0, 64, 78
2, 228109, Control_c, 0, 64, 96
2, 228122, Note_on_c, 0, 46, 0
2, 228127, Control_c, 0, 64, 127
2, 228175, Note_on_c, 0, 61, 80
2, 228227, Note_on_c, 0, 63, 0
2, 228316, Note_on_c, 0, 61, 0
2, 228398, Note_on_c, 0, 48, 58
2, 228454, Control_c, 0, 64, 116
2, 228473, Control_c, 0, 64, 96
2, 228492, Control_c, 0, 64, 77
2, 228495, Note_on_c, 0, 63, 84
2, 228512, Control_c, 0, 64, 64
2, 228515, Note_on_c, 0, 60, 70
2, 228530, Control_c, 0, 64, 33
2, 228530, Note_on_c, 0, 68, 44
2, 228550, Control_c, 0, 64, 0
2, 228607, Control_c, 0, 64, 25
2, 228627, Control_c, 0, 64, 51
2, 228640, Note_on_c, 0, 48, 0
2, 228646, Control_c, 0, 64, 64
2, 228665, Control_c, 0, 64, 67
2, 228684, Control_c, 0, 64, 72
2, 228704, Control_c, 0, 64, 83
2, 228708, Note_on_c, 0, 68, 0
2, 228723, Control_c, 0, 64, 103
2, 228742, Control_c, 0, 64, 127
2, 228895, Control_c, 0, 64, 99
2, 228909, Note_on_c, 0, 44, 58
2, 228915, Control_c, 0, 64, 76
2, 228932, Note_on_c, 0, 61, 61
2, 228934, Control_c, 0, 64, 68
2, 228940, Note_on_c, 0, 60, 0
2, 228953, Control_c, 0, 64, 67
2, 228972, Control_c, 0, 64, 69
2, 228992, Control_c, 0, 64, 73
2, 229010, Control_c, 0, 64, 80
2, 229030, Control_c, 0, 64, 94
2, 229040, Note_on_c, 0, 44, 0
2, 229049, Control_c, 0, 64, 127
2, 229074, Note_on_c, 0, 63, 0
2, 229117, Note_on_c, 0, 61, 0
2, 229129, Note_on_c, 0, 60, 58
2, 229211, Note_on_c, 0, 60, 0
2, 229321, Note_on_c, 0, 58, 59
2, 229324, Note_on_c, 0, 49, 64
2, 229335, Control_c, 0, 64, 110
2, 229353, Control_c, 0, 64, 84
2, 229372, Note_on_c, 0, 65, 82
2, 229373, Control_c, 0, 64, 68
2, 229392, Control_c, 0, 64, 55
2, 229412, Control_c, 0, 64, 48
2, 229430, Control_c, 0, 64, 55
2, 229450, Control_c, 0, 64, 60
2, 229469, Control_c, 0, 64, 64
2, 229488, Control_c, 0, 64, 68
2, 229507, Control_c, 0, 64, 77
2, 229517, Note_on_c, 0, 49, 0
2, 229526, Control_c, 0, 64, 96
2, 229546, Control_c, 0, 64, 127
2, 229568, Note_on_c, 0, 67, 69
2, 229644, Note_on_c, 0, 67, 0
2, 229757, Control_c, 0, 64, 96
2, 229771, Note_on_c, 0, 46, 61
2, 229776, Control_c, 0, 64, 72
2, 229795, Control_c, 0, 64, 55
2, 229806, Note_on_c, 0, 68, 70
2, 229815, Control_c, 0, 64, 35
2, 229833, Control_c, 0, 64, 51
2, 229853, Control_c, 0, 64, 62
2, 229872, Control_c, 0, 64, 69
2, 229892, Control_c, 0, 64, 80
2, 229892, Note_on_c, 0, 46, 0
2, 229910, Control_c, 0, 64, 127
2, 229944, Note_on_c, 0, 65, 0
2, 229982, Note_on_c, 0, 68, 0
2, 229988, Note_on_c, 0, 70, 73
2, 230178, Control_c, 0, 64, 91
2, 230187, Note_on_c, 0, 51, 56
2, 230197, Control_c, 0, 64, 67
2, 230217, Control_c, 0, 64, 0
2, 230221, Note_on_c, 0, 63, 82
2, 230240, Note_on_c, 0, 70, 0
2, 230245, Note_on_c, 0, 72, 66
2, 230314, Note_on_c, 0, 58, 0
2, 230332, Control_c, 0, 64, 47
2, 230351, Control_c, 0, 64, 63
2, 230371, Control_c, 0, 64, 68
2, 230389, Control_c, 0, 64, 73
2, 230409, Control_c, 0, 64, 81
2, 230428, Control_c, 0, 64, 96
2, 230446, Control_c, 0, 64, 117
2, 230466, Control_c, 0, 64, 127
2, 230505, Control_c, 0, 64, 105
2, 230523, Control_c, 0, 64, 84
2, 230543, Control_c, 0, 64, 69
2, 230562, Control_c, 0, 64, 62
2, 230582, Control_c, 0, 64, 65
2, 230587, Note_on_c, 0, 51, 0
2, 230600, Control_c, 0, 64, 67
2, 230620, Control_c, 0, 64, 73
2, 230635, Note_on_c, 0, 56, 63
2, 230639, Control_c, 0, 64, 85
2, 230645, Note_on_c, 0, 48, 53
2, 230658, Control_c, 0, 64, 109
2, 230665, Note_on_c, 0, 63, 0
2, 230678, Control_c, 0, 64, 127
2, 230758, Note_on_c, 0, 56, 0
2, 230813, Control_c, 0, 64, 121
2, 230832, Control_c, 0, 64, 116
2, 230837, Note_on_c, 0, 55, 61
2, 230852, Control_c, 0, 64, 112
2, 230870, Control_c, 0, 64, 109
2, 230888, Note_on_c, 0, 55, 0
2, 230890, Control_c, 0, 64, 106
2, 230909, Control_c, 0, 64, 106
2, 230947, Control_c, 0, 64, 105
2, 230957, Note_on_c, 0, 48, 0
2, 230966, Control_c, 0, 64, 103
2, 230986, Control_c, 0, 64, 94
2, 231004, Control_c, 0, 64, 80
2, 231018, Note_on_c, 0, 53, 51
2, 231024, Control_c, 0, 64, 65
2, 231036, Note_on_c, 0, 56, 57
2, 231043, Control_c, 0, 64, 0
2, 231079, Note_on_c, 0, 62, 81
2, 231178, Control_c, 0, 64, 46
2, 231197, Control_c, 0, 64, 62
2, 231216, Control_c, 0, 64, 69
2, 231233, Note_on_c, 0, 56, 0
2, 231235, Control_c, 0, 64, 78
2, 231255, Control_c, 0, 64, 102
2, 231273, Control_c, 0, 64, 127
2, 231277, Note_on_c, 0, 72, 0
2, 231302, Note_on_c, 0, 68, 62
2, 231444, Note_on_c, 0, 53, 0
2, 231466, Control_c, 0, 64, 88
2, 231484, Control_c, 0, 64, 66
2, 231484, Note_on_c, 0, 46, 54
2, 231504, Control_c, 0, 64, 47
2, 231510, Note_on_c, 0, 70, 71
2, 231515, Note_on_c, 0, 55, 45
2, 231523, Control_c, 0, 64, 53
2, 231539, Note_on_c, 0, 68, 0
2, 231542, Control_c, 0, 64, 59
2, 231561, Control_c, 0, 64, 64
2, 231581, Control_c, 0, 64, 68
2, 231600, Control_c, 0, 64, 78
2, 231619, Control_c, 0, 64, 106
2, 231636, Control_c, 0, 64, 127
2, 231679, Note_on_c, 0, 46, 0
2, 231694, Note_on_c, 0, 72, 73
2, 231696, Note_on_c, 0, 56, 63
2, 231700, Note_on_c, 0, 55, 0
2, 231710, Note_on_c, 0, 70, 0
2, 231905, Note_on_c, 0, 56, 0
2, 231915, Note_on_c, 0, 67, 81
2, 231918, Note_on_c, 0, 58, 58
2, 231923, Control_c, 0, 64, 78
2, 231943, Control_c, 0, 64, 45
2, 231961, Control_c, 0, 64, 0
2, 231975, Note_on_c, 0, 62, 0
2, 231997, Note_on_c, 0, 72, 0
2, 231997, Note_on_c, 0, 73, 21
2, 232058, Control_c, 0, 64, 51
2, 232077, Control_c, 0, 64, 64
2, 232097, Control_c, 0, 64, 68
2, 232113, Note_on_c, 0, 58, 0
2, 232115, Control_c, 0, 64, 73
2, 232133, Note_on_c, 0, 56, 66
2, 232135, Control_c, 0, 64, 79
2, 232154, Control_c, 0, 64, 87
2, 232173, Control_c, 0, 64, 96
2, 232192, Control_c, 0, 64, 102
2, 232212, Control_c, 0, 64, 94
2, 232231, Control_c, 0, 64, 74
2, 232250, Control_c, 0, 64, 53
2, 232269, Control_c, 0, 64, 0
2, 232303, Note_on_c, 0, 56, 0
2, 232307, Control_c, 0, 64, 27
2, 232326, Control_c, 0, 64, 61
2, 232346, Control_c, 0, 64, 75
2, 232350, Note_on_c, 0, 51, 45
2, 232354, Note_on_c, 0, 55, 49
2, 232365, Control_c, 0, 64, 127
2, 232375, Note_on_c, 0, 67, 0
2, 232544, Note_on_c, 0, 49, 54
2, 232547, Note_on_c, 0, 51, 0
2, 232547, Note_on_c, 0, 55, 0
2, 232561, Note_on_c, 0, 53, 57
2, 232748, Note_on_c, 0, 51, 44
2, 232751, Control_c, 0, 64, 95
2, 232771, Control_c, 0, 64, 71
2, 232777, Note_on_c, 0, 48, 46
2, 232783, Note_on_c, 0, 68, 88
2, 232786, Note_on_c, 0, 73, 0
2, 232789, Control_c, 0, 64, 52
2, 232809, Control_c, 0, 64, 0
2, 232846, Control_c, 0, 64, 40
2, 232854, Note_on_c, 0, 49, 0
2, 232862, Note_on_c, 0, 53, 0
2, 232866, Control_c, 0, 64, 58
2, 232876, Note_on_c, 0, 48, 0
2, 232885, Control_c, 0, 64, 66
2, 232903, Note_on_c, 0, 51, 0
2, 232905, Control_c, 0, 64, 75
2, 232923, Control_c, 0, 64, 95
2, 232943, Control_c, 0, 64, 127
2, 232985, Note_on_c, 0, 72, 77
2, 233154, Control_c, 0, 64, 100
2, 233174, Control_c, 0, 64, 69
2, 233189, Note_on_c, 0, 56, 59
2, 233192, Control_c, 0, 64, 53
2, 233206, Note_on_c, 0, 73, 65
2, 233212, Control_c, 0, 64, 53
2, 233214, Note_on_c, 0, 53, 55
2, 233231, Control_c, 0, 64, 60
2, 233251, Control_c, 0, 64, 65
2, 233269, Control_c, 0, 64, 71
2, 233289, Control_c, 0, 64, 90
2, 233302, Note_on_c, 0, 53, 0
2, 233308, Control_c, 0, 64, 127
2, 233322, Note_on_c, 0, 56, 0
2, 233396, Note_on_c, 0, 75, 72
2, 233402, Note_on_c, 0, 73, 0
2, 233428, Note_on_c, 0, 68, 0
2, 233459, Note_on_c, 0, 72, 0
2, 233616, Control_c, 0, 64, 114
2, 233635, Control_c, 0, 64, 102
2, 233641, Note_on_c, 0, 61, 80
2, 233652, Note_on_c, 0, 77, 69
2, 233655, Control_c, 0, 64, 94
2, 233673, Control_c, 0, 64, 87
2, 233693, Control_c, 0, 64, 79
2, 233695, Note_on_c, 0, 75, 0
2, 233712, Control_c, 0, 64, 67
2, 233732, Control_c, 0, 64, 30
2, 233750, Control_c, 0, 64, 0
2, 233852, Note_on_c, 0, 51, 54
2, 233861, Note_on_c, 0, 55, 54
2, 234018, Control_c, 0, 64, 64
2, 234018, Note_on_c, 0, 51, 0
2, 234037, Control_c, 0, 64, 72
2, 234052, Note_on_c, 0, 53, 53
2, 234057, Control_c, 0, 64, 83
2, 234076, Control_c, 0, 64, 99
2, 234095, Control_c, 0, 64, 127
2, 234119, Note_on_c, 0, 61, 0
2, 234155, Note_on_c, 0, 55, 0
2, 234261, Note_on_c, 0, 58, 76
2, 234320, Note_on_c, 0, 55, 59
2, 234347, Note_on_c, 0, 58, 0
2, 234411, Note_on_c, 0, 53, 0
2, 234487, Note_on_c, 0, 60, 75
2, 234494, Note_on_c, 0, 56, 73
2, 234534, Note_on_c, 0, 55, 0
2, 234539, Control_c, 0, 64, 123
2, 234559, Control_c, 0, 64, 103
2, 234577, Control_c, 0, 64, 90
2, 234597, Control_c, 0, 64, 78
2, 234616, Control_c, 0, 64, 66
2, 234635, Control_c, 0, 64, 52
2, 234654, Control_c, 0, 64, 0
2, 234664, Note_on_c, 0, 77, 0
2, 234669, Note_on_c, 0, 56, 0
2, 234692, Note_on_c, 0, 75, 79
2, 234694, Note_on_c, 0, 55, 62
2, 234875, Note_on_c, 0, 55, 0
2, 234907, Note_on_c, 0, 77, 84
2, 234914, Note_on_c, 0, 53, 57
2, 234950, Note_on_c, 0, 75, 0
2, 235000, Control_c, 0, 64, 22
2, 235019, Control_c, 0, 64, 58
2, 235039, Control_c, 0, 64, 54
2, 235057, Control_c, 0, 64, 52
2, 235077, Control_c, 0, 64, 53
2, 235095, Note_on_c, 0, 53, 0
2, 235096, Control_c, 0, 64, 53
2, 235099, Note_on_c, 0, 51, 63
2, 235099, Note_on_c, 0, 79, 82
2, 235115, Control_c, 0, 64, 54
2, 235137, Note_on_c, 0, 60, 0
2, 235166, Note_on_c, 0, 77, 0
2, 235269, Control_c, 0, 64, 53
2, 235288, Control_c, 0, 64, 51
2, 235308, Control_c, 0, 64, 45
2, 235323, Note_on_c, 0, 50, 61
2, 235324, Note_on_c, 0, 51, 0
2, 235326, Control_c, 0, 64, 0
2, 235326, Note_on_c, 0, 59, 56
2, 235355, Note_on_c, 0, 80, 87
2, 235394, Note_on_c, 0, 79, 0
2, 235548, Note_on_c, 0, 50, 0
2, 235558, Note_on_c, 0, 53, 59
2, 235773, Note_on_c, 0, 55, 56
2, 235788, Control_c, 0, 64, 43
2, 235802, Note_on_c, 0, 53, 0
2, 235806, Control_c, 0, 64, 55
2, 235826, Control_c, 0, 64, 60
2, 235845, Control_c, 0, 64, 61
2, 235865, Control_c, 0, 64, 62
2, 235883, Control_c, 0, 64, 63
2, 235903, Control_c, 0, 64, 63
2, 235910, Note_on_c, 0, 59, 0
2, 235941, Control_c, 0, 64, 64
2, 235946, Note_on_c, 0, 55, 0
2, 235973, Note_on_c, 0, 56, 61
2, 236056, Control_c, 0, 64, 63
2, 236075, Control_c, 0, 64, 60
2, 236094, Control_c, 0, 64, 56
2, 236114, Control_c, 0, 64, 47
2, 236133, Control_c, 0, 64, 9
2, 236152, Control_c, 0, 64, 0
2, 236218, Note_on_c, 0, 56, 0
2, 236221, Note_on_c, 0, 51, 57
2, 236223, Note_on_c, 0, 58, 62
2, 236510, Note_on_c, 0, 80, 0
2, 236551, Note_on_c, 0, 51, 0
2, 236639, Note_on_c, 0, 50, 48
2, 236656, Note_on_c, 0, 79, 75
2, 236867, Note_on_c, 0, 77, 78
2, 236933, Note_on_c, 0, 79, 0
2, 237085, Note_on_c, 0, 52, 51
2, 237097, Note_on_c, 0, 50, 0
2, 237110, Note_on_c, 0, 79, 84
2, 237161, Note_on_c, 0, 77, 0
2, 237265, Note_on_c, 0, 58, 0
2, 237278, Note_on_c, 0, 52, 0
2, 237308, Note_on_c, 0, 55, 56
2, 237534, Note_on_c, 0, 53, 47
2, 237557, Note_on_c, 0, 48, 49
2, 237672, Note_on_c, 0, 55, 0
2, 237687, Note_on_c, 0, 48, 0
2, 237708, Note_on_c, 0, 53, 0
2, 237748, Note_on_c, 0, 52, 42
2, 237937, Note_on_c, 0, 52, 0
2, 237969, Note_on_c, 0, 53, 45
2, 237970, Note_on_c, 0, 56, 51
2, 238055, Control_c, 0, 64, 9
2, 238074, Control_c, 0, 64, 11
2, 238093, Control_c, 0, 64, 13
2, 238094, Note_on_c, 0, 53, 0
2, 238113, Control_c, 0, 64, 15
2, 238182, Note_on_c, 0, 72, 64
2, 238266, Control_c, 0, 64, 17
2, 238394, Note_on_c, 0, 53, 47
2, 238404, Note_on_c, 0, 74, 64
2, 238448, Note_on_c, 0, 79, 0
2, 238569, Note_on_c, 0, 56, 0
2, 238598, Note_on_c, 0, 72, 0
2, 238600, Note_on_c, 0, 51, 50
2, 238603, Note_on_c, 0, 75, 73
2, 238619, Note_on_c, 0, 53, 0
2, 238630, Control_c, 0, 64, 15
2, 238690, Note_on_c, 0, 74, 0
2, 238821, Note_on_c, 0, 50, 46
2, 238830, Note_on_c, 0, 77, 69
2, 238857, Note_on_c, 0, 75, 0
2, 238863, Note_on_c, 0, 51, 0
2, 239016, Note_on_c, 0, 50, 0
2, 239044, Note_on_c, 0, 71, 52
2, 239149, Control_c, 0, 64, 13
2, 239207, Control_c, 0, 64, 11
2, 239247, Note_on_c, 0, 72, 56
2, 239257, Note_on_c, 0, 50, 38
2, 239257, Note_on_c, 0, 71, 0
2, 239464, Note_on_c, 0, 48, 42
2, 239465, Note_on_c, 0, 72, 0
2, 239467, Note_on_c, 0, 74, 52
2, 239528, Note_on_c, 0, 50, 0
2, 239596, Note_on_c, 0, 77, 0
2, 239650, Note_on_c, 0, 48, 0
2, 239680, Note_on_c, 0, 47, 38
2, 239690, Note_on_c, 0, 67, 46
2, 239692, Note_on_c, 0, 74, 0
2, 239859, Note_on_c, 0, 47, 0
2, 239890, Note_on_c, 0, 43, 43
2, 240090, Control_c, 0, 64, 9
2, 240114, Note_on_c, 0, 75, 68
2, 240115, Note_on_c, 0, 45, 46
2, 240144, Note_on_c, 0, 43, 0
2, 240307, Note_on_c, 0, 47, 48
2, 240314, Note_on_c, 0, 74, 70
2, 240346, Note_on_c, 0, 75, 0
2, 240445, Note_on_c, 0, 45, 0
2, 240455, Control_c, 0, 64, 11
2, 240474, Control_c, 0, 64, 13
2, 240491, Note_on_c, 0, 47, 0
2, 240493, Control_c, 0, 64, 15
2, 240513, Control_c, 0, 64, 17
2, 240535, Note_on_c, 0, 48, 43
2, 240542, Note_on_c, 0, 75, 77
2, 240550, Control_c, 0, 64, 18
2, 240558, Note_on_c, 0, 74, 0
2, 240577, Note_on_c, 0, 67, 0
2, 240589, Control_c, 0, 64, 19
2, 240627, Control_c, 0, 64, 20
2, 240647, Control_c, 0, 64, 21
2, 240666, Control_c, 0, 64, 22
2, 240685, Control_c, 0, 64, 23
2, 240704, Control_c, 0, 64, 25
2, 240721, Note_on_c, 0, 48, 0
2, 240724, Control_c, 0, 64, 26
2, 240742, Control_c, 0, 64, 27
2, 240749, Note_on_c, 0, 44, 47
2, 240781, Control_c, 0, 64, 27
2, 240858, Control_c, 0, 64, 28
2, 240916, Control_c, 0, 64, 29
2, 240951, Note_on_c, 0, 46, 44
2, 240980, Note_on_c, 0, 66, 52
2, 241069, Control_c, 0, 64, 29
2, 241107, Note_on_c, 0, 44, 0
2, 241159, Note_on_c, 0, 48, 49
2, 241180, Note_on_c, 0, 66, 0
2, 241198, Note_on_c, 0, 46, 0
2, 241358, Control_c, 0, 64, 30
2, 241374, Note_on_c, 0, 48, 0
2, 241377, Note_on_c, 0, 49, 46
2, 241391, Note_on_c, 0, 65, 45
2, 241573, Note_on_c, 0, 49, 0
2, 241612, Note_on_c, 0, 68, 60
2, 241649, Note_on_c, 0, 75, 0
2, 241702, Control_c, 0, 64, 31
2, 241814, Note_on_c, 0, 49, 40
2, 241830, Note_on_c, 0, 70, 61
2, 241971, Control_c, 0, 64, 30
2, 242023, Note_on_c, 0, 68, 0
2, 242028, Control_c, 0, 64, 29
2, 242031, Note_on_c, 0, 72, 69
2, 242033, Note_on_c, 0, 70, 0
2, 242040, Note_on_c, 0, 48, 42
2, 242071, Note_on_c, 0, 49, 0
2, 242086, Control_c, 0, 64, 29
2, 242182, Control_c, 0, 64, 28
2, 242234, Note_on_c, 0, 46, 39
2, 242245, Note_on_c, 0, 73, 68
2, 242269, Note_on_c, 0, 48, 0
2, 242273, Note_on_c, 0, 72, 0
2, 242434, Note_on_c, 0, 46, 0
2, 242453, Note_on_c, 0, 65, 0
2, 242465, Note_on_c, 0, 67, 42
2, 242509, Control_c, 0, 64, 27
2, 242567, Control_c, 0, 64, 27
2, 242662, Control_c, 0, 64, 26
2, 242674, Note_on_c, 0, 46, 29
2, 242685, Note_on_c, 0, 68, 56
2, 242759, Control_c, 0, 64, 25
2, 242855, Control_c, 0, 64, 24
2, 242881, Note_on_c, 0, 44, 43
2, 242889, Note_on_c, 0, 70, 55
2, 242899, Note_on_c, 0, 68, 0
2, 242913, Note_on_c, 0, 67, 0
2, 242932, Control_c, 0, 64, 23
2, 243024, Note_on_c, 0, 46, 0
2, 243083, Note_on_c, 0, 73, 0
2, 243088, Note_on_c, 0, 43, 41
2, 243105, Note_on_c, 0, 63, 51
2, 243127, Note_on_c, 0, 44, 0
2, 243226, Note_on_c, 0, 70, 0
2, 243286, Note_on_c, 0, 39, 49
2, 243429, Note_on_c, 0, 43, 0
2, 243498, Note_on_c, 0, 41, 46
2, 243533, Note_on_c, 0, 39, 0
2, 243538, Note_on_c, 0, 72, 67
2, 243702, Note_on_c, 0, 41, 0
2, 243730, Note_on_c, 0, 70, 66
2, 243733, Note_on_c, 0, 43, 41
2, 243768, Note_on_c, 0, 72, 0
2, 243777, Control_c, 0, 64, 24
2, 243816, Control_c, 0, 64, 25
2, 243854, Control_c, 0, 64, 26
2, 243931, Control_c, 0, 64, 27
2, 243968, Note_on_c, 0, 43, 0
2, 243969, Control_c, 0, 64, 27
2, 243977, Note_on_c, 0, 44, 32
2, 243982, Note_on_c, 0, 72, 66
2, 244008, Control_c, 0, 64, 28
2, 244017, Note_on_c, 0, 63, 0
2, 244041, Note_on_c, 0, 70, 0
2, 244200, Control_c, 0, 64, 29
2, 244200, Note_on_c, 0, 41, 42
2, 244201, Note_on_c, 0, 66, 49
2, 244203, Note_on_c, 0, 44, 0
2, 244380, Note_on_c, 0, 66, 0
2, 244414, Note_on_c, 0, 65, 48
2, 244423, Note_on_c, 0, 43, 33
2, 244455, Note_on_c, 0, 41, 0
2, 244588, Note_on_c, 0, 65, 0
2, 244602, Note_on_c, 0, 43, 0
2, 244619, Note_on_c, 0, 45, 36
2, 244629, Note_on_c, 0, 63, 49
2, 244818, Note_on_c, 0, 45, 0
2, 244822, Note_on_c, 0, 46, 44
2, 244843, Note_on_c, 0, 63, 0
2, 244847, Note_on_c, 0, 61, 49
2, 244987, Control_c, 0, 64, 29
2, 245025, Control_c, 0, 64, 30
2, 245032, Note_on_c, 0, 46, 0
2, 245050, Note_on_c, 0, 45, 39
2, 245160, Control_c, 0, 64, 31
2, 245243, Note_on_c, 0, 46, 35
2, 245261, Note_on_c, 0, 72, 0
2, 245275, Control_c, 0, 64, 31
2, 245279, Note_on_c, 0, 65, 55
2, 245288, Note_on_c, 0, 45, 0
2, 245351, Control_c, 0, 64, 32
2, 245371, Control_c, 0, 64, 32
2, 245390, Control_c, 0, 64, 33
2, 245409, Control_c, 0, 64, 34
2, 245428, Control_c, 0, 64, 34
2, 245429, Note_on_c, 0, 46, 0
2, 245448, Control_c, 0, 64, 35
2, 245467, Control_c, 0, 64, 35
2, 245469, Note_on_c, 0, 48, 51
2, 245505, Control_c, 0, 64, 36
2, 245622, Note_on_c, 0, 65, 0
2, 245679, Note_on_c, 0, 49, 51
2, 245688, Note_on_c, 0, 70, 66
2, 245690, Note_on_c, 0, 48, 0
2, 245875, Note_on_c, 0, 49, 0
2, 245879, Note_on_c, 0, 70, 0
2, 245882, Note_on_c, 0, 46, 54
2, 245889, Control_c, 0, 64, 35
2, 245985, Control_c, 0, 64, 35
2, 246023, Control_c, 0, 64, 34
2, 246043, Control_c, 0, 64, 34
2, 246062, Control_c, 0, 64, 33
2, 246090, Note_on_c, 0, 48, 48
2, 246098, Note_on_c, 0, 68, 60
2, 246100, Control_c, 0, 64, 32
2, 246139, Control_c, 0, 64, 32
2, 246158, Control_c, 0, 64, 31
2, 246165, Note_on_c, 0, 46, 0
2, 246250, Control_c, 0, 64, 31
2, 246285, Note_on_c, 0, 48, 0
2, 246289, Note_on_c, 0, 49, 58
2, 246307, Note_on_c, 0, 68, 0
2, 246343, Note_on_c, 0, 61, 0
2, 246423, Control_c, 0, 64, 30
2, 246461, Control_c, 0, 64, 29
2, 246481, Control_c, 0, 64, 29
2, 246524, Note_on_c, 0, 51, 43
2, 246538, Control_c, 0, 64, 28
2, 246541, Note_on_c, 0, 67, 54
2, 246555, Note_on_c, 0, 49, 0
2, 246558, Control_c, 0, 64, 27
2, 246577, Control_c, 0, 64, 27
2, 246635, Control_c, 0, 64, 26
2, 246653, Control_c, 0, 64, 25
2, 246692, Control_c, 0, 64, 24
2, 246698, Note_on_c, 0, 51, 0
2, 246711, Control_c, 0, 64, 23
2, 246749, Control_c, 0, 64, 22
2, 246761, Note_on_c, 0, 58, 46
2, 246922, Note_on_c, 0, 58, 0
2, 246941, Control_c, 0, 64, 23
2, 246971, Note_on_c, 0, 60, 48
2, 246976, Note_on_c, 0, 51, 45
2, 246980, Control_c, 0, 64, 24
2, 247149, Note_on_c, 0, 67, 0
2, 247163, Note_on_c, 0, 51, 0
2, 247167, Note_on_c, 0, 60, 0
2, 247173, Note_on_c, 0, 61, 60
2, 247174, Control_c, 0, 64, 25
2, 247179, Note_on_c, 0, 49, 49
2, 247290, Note_on_c, 0, 61, 0
2, 247375, Note_on_c, 0, 48, 50
2, 247391, Note_on_c, 0, 49, 0
2, 247403, Note_on_c, 0, 63, 59
2, 247404, Control_c, 0, 64, 26
2, 247589, Note_on_c, 0, 48, 0
2, 247589, Note_on_c, 0, 67, 66
2, 247597, Control_c, 0, 64, 27
2, 247749, Control_c, 0, 64, 27
2, 247813, Note_on_c, 0, 48, 49
2, 247819, Note_on_c, 0, 68, 72
2, 247973, Note_on_c, 0, 67, 0
2, 248015, Note_on_c, 0, 46, 60
2, 248016, Note_on_c, 0, 70, 71
2, 248032, Note_on_c, 0, 68, 0
2, 248069, Note_on_c, 0, 48, 0
2, 248095, Note_on_c, 0, 63, 0
2, 248244, Note_on_c, 0, 44, 59
2, 248251, Note_on_c, 0, 72, 76
2, 248269, Control_c, 0, 64, 27
2, 248285, Note_on_c, 0, 70, 0
2, 248286, Note_on_c, 0, 46, 0
2, 248288, Control_c, 0, 64, 26
2, 248327, Control_c, 0, 64, 25
2, 248384, Control_c, 0, 64, 24
2, 248400, Note_on_c, 0, 44, 0
2, 248422, Control_c, 0, 64, 23
2, 248457, Note_on_c, 0, 63, 70
2, 248461, Control_c, 0, 64, 22
2, 248481, Control_c, 0, 64, 21
2, 248499, Control_c, 0, 64, 20
2, 248519, Control_c, 0, 64, 19
2, 248671, Note_on_c, 0, 65, 72
2, 248672, Note_on_c, 0, 56, 74
2, 248676, Note_on_c, 0, 63, 0
2, 248873, Note_on_c, 0, 55, 68
2, 248876, Note_on_c, 0, 67, 73
2, 248890, Note_on_c, 0, 56, 0
2, 248902, Control_c, 0, 64, 20
2, 248918, Note_on_c, 0, 65, 0
2, 248923, Note_on_c, 0, 72, 0
2, 248961, Control_c, 0, 64, 21
2, 248975, Note_on_c, 0, 67, 0
2, 249076, Control_c, 0, 64, 22
2, 249083, Note_on_c, 0, 53, 75
2, 249090, Note_on_c, 0, 68, 80
2, 249119, Note_on_c, 0, 55, 0
2, 249152, Control_c, 0, 64, 23
2, 249265, Note_on_c, 0, 53, 0
2, 249267, Control_c, 0, 64, 24
2, 249300, Note_on_c, 0, 72, 83
2, 249382, Control_c, 0, 64, 25
2, 249402, Control_c, 0, 64, 26
2, 249421, Control_c, 0, 64, 27
2, 249498, Control_c, 0, 64, 27
2, 249506, Note_on_c, 0, 53, 77
2, 249509, Note_on_c, 0, 74, 76
2, 249556, Control_c, 0, 64, 28
2, 249561, Note_on_c, 0, 72, 0
2, 249593, Control_c, 0, 64, 29
2, 249613, Control_c, 0, 64, 30
2, 249632, Control_c, 0, 64, 31
2, 249652, Control_c, 0, 64, 32
2, 249670, Control_c, 0, 64, 34
2, 249690, Control_c, 0, 64, 34
2, 249709, Control_c, 0, 64, 35
2, 249717, Note_on_c, 0, 51, 76
2, 249721, Note_on_c, 0, 75, 79
2, 249758, Note_on_c, 0, 53, 0
2, 249779, Note_on_c, 0, 74, 0
2, 249921, Control_c, 0, 64, 35
2, 249939, Control_c, 0, 64, 34
2, 249959, Control_c, 0, 64, 32
2, 249972, Note_on_c, 0, 50, 75
2, 249978, Control_c, 0, 64, 29
2, 249979, Note_on_c, 0, 77, 77
2, 249984, Note_on_c, 0, 68, 0
2, 249987, Note_on_c, 0, 75, 0
2, 249998, Control_c, 0, 64, 25
2, 250016, Control_c, 0, 64, 15
2, 250016, Note_on_c, 0, 51, 0
2, 250036, Control_c, 0, 64, 0
2, 250192, Note_on_c, 0, 72, 80
2, 250285, Control_c, 0, 64, 37
2, 250304, Control_c, 0, 64, 56
2, 250318, Note_on_c, 0, 50, 0
2, 250324, Control_c, 0, 64, 64
2, 250342, Control_c, 0, 64, 69
2, 250362, Control_c, 0, 64, 77
2, 250381, Control_c, 0, 64, 92
2, 250401, Control_c, 0, 64, 118
2, 250408, Note_on_c, 0, 70, 83
2, 250419, Control_c, 0, 64, 127
2, 250625, Note_on_c, 0, 68, 78
2, 250677, Note_on_c, 0, 70, 0
2, 250781, Note_on_c, 0, 68, 0
2, 250872, Note_on_c, 0, 77, 0
2, 250892, Note_on_c, 0, 72, 0
2, 250903, Note_on_c, 0, 58, 83
2, 250919, Control_c, 0, 64, 84
2, 250925, Note_on_c, 0, 67, 71
2, 250926, Note_on_c, 0, 51, 63
2, 250938, Control_c, 0, 64, 66
2, 250958, Control_c, 0, 64, 41
2, 250976, Control_c, 0, 64, 0
2, 250996, Control_c, 0, 64, 46
2, 251015, Control_c, 0, 64, 60
2, 251033, Control_c, 0, 64, 66
2, 251054, Control_c, 0, 64, 76
2, 251073, Control_c, 0, 64, 127
2, 251096, Note_on_c, 0, 51, 0
2, 251142, Note_on_c, 0, 70, 73
2, 251342, Control_c, 0, 64, 91
2, 251347, Note_on_c, 0, 70, 0
2, 251358, Note_on_c, 0, 55, 69
2, 251362, Control_c, 0, 64, 68
2, 251380, Control_c, 0, 64, 43
2, 251381, Note_on_c, 0, 75, 68
2, 251393, Note_on_c, 0, 67, 0
2, 251400, Control_c, 0, 64, 19
2, 251419, Control_c, 0, 64, 50
2, 251438, Control_c, 0, 64, 62
2, 251439, Note_on_c, 0, 58, 0
2, 251457, Control_c, 0, 64, 67
2, 251477, Control_c, 0, 64, 79
2, 251496, Control_c, 0, 64, 111
2, 251515, Control_c, 0, 64, 127
2, 251535, Note_on_c, 0, 75, 0
2, 251568, Note_on_c, 0, 67, 68
2, 251745, Note_on_c, 0, 67, 0
2, 251762, Note_on_c, 0, 55, 0
2, 251779, Note_on_c, 0, 60, 82
2, 251786, Note_on_c, 0, 65, 63
2, 251791, Note_on_c, 0, 56, 73
2, 251803, Control_c, 0, 64, 114
2, 251822, Control_c, 0, 64, 82
2, 251842, Control_c, 0, 64, 64
2, 251860, Control_c, 0, 64, 0
2, 251918, Control_c, 0, 64, 46
2, 251937, Control_c, 0, 64, 62
2, 251957, Control_c, 0, 64, 70
2, 251976, Control_c, 0, 64, 83
2, 251987, Note_on_c, 0, 75, 70
2, 251995, Control_c, 0, 64, 127
2, 252024, Note_on_c, 0, 56, 0
2, 252167, Control_c, 0, 64, 109
2, 252186, Control_c, 0, 64, 72
2, 252201, Note_on_c, 0, 53, 66
2, 252205, Control_c, 0, 64, 0
2, 252215, Note_on_c, 0, 74, 63
2, 252339, Control_c, 0, 64, 55
2, 252359, Control_c, 0, 64, 64
2, 252362, Note_on_c, 0, 60, 0
2, 252366, Note_on_c, 0, 75, 0
2, 252378, Control_c, 0, 64, 69
2, 252398, Control_c, 0, 64, 78
2, 252413, Note_on_c, 0, 72, 70
2, 252416, Control_c, 0, 64, 102
2, 252429, Note_on_c, 0, 74, 0
2, 252436, Control_c, 0, 64, 127
2, 252635, Note_on_c, 0, 58, 87
2, 252641, Note_on_c, 0, 74, 62
2, 252647, Control_c, 0, 64, 105
2, 252648, Note_on_c, 0, 53, 0
2, 252666, Control_c, 0, 64, 74
2, 252684, Note_on_c, 0, 65, 0
2, 252685, Control_c, 0, 64, 44
2, 252697, Note_on_c, 0, 72, 0
2, 252704, Control_c, 0, 64, 0
2, 252762, Control_c, 0, 64, 30
2, 252781, Control_c, 0, 64, 60
2, 252801, Control_c, 0, 64, 70
2, 252819, Control_c, 0, 64, 84
2, 252839, Control_c, 0, 64, 127
2, 252851, Note_on_c, 0, 75, 69
2, 252886, Note_on_c, 0, 74, 0
2, 253049, Control_c, 0, 64, 90
2, 253060, Note_on_c, 0, 46, 65
2, 253068, Control_c, 0, 64, 65
2, 253072, Note_on_c, 0, 72, 61
2, 253088, Control_c, 0, 64, 24
2, 253105, Note_on_c, 0, 75, 0
2, 253106, Control_c, 0, 64, 32
2, 253126, Control_c, 0, 64, 61
2, 253145, Control_c, 0, 64, 69
2, 253164, Control_c, 0, 64, 81
2, 253183, Control_c, 0, 64, 102
2, 253203, Control_c, 0, 64, 127
2, 253206, Note_on_c, 0, 46, 0
2, 253219, Note_on_c, 0, 58, 0
2, 253272, Note_on_c, 0, 74, 65
2, 253333, Note_on_c, 0, 72, 0
2, 253395, Control_c, 0, 64, 123
2, 253414, Control_c, 0, 64, 105
2, 253432, Control_c, 0, 64, 89
2, 253452, Control_c, 0, 64, 71
2, 253471, Control_c, 0, 64, 53
2, 253491, Control_c, 0, 64, 0
2, 253493, Note_on_c, 0, 60, 79
2, 253496, Note_on_c, 0, 57, 67
2, 253496, Note_on_c, 0, 75, 66
2, 253500, Note_on_c, 0, 48, 63
2, 253586, Control_c, 0, 64, 13
2, 253606, Control_c, 0, 64, 50
2, 253625, Control_c, 0, 64, 61
2, 253639, Note_on_c, 0, 74, 0
2, 253644, Control_c, 0, 64, 64
2, 253663, Control_c, 0, 64, 66
2, 253683, Control_c, 0, 64, 67
2, 253689, Note_on_c, 0, 48, 0
2, 253702, Control_c, 0, 64, 68
2, 253702, Note_on_c, 0, 72, 72
2, 253719, Note_on_c, 0, 60, 0
2, 253723, Control_c, 0, 64, 69
2, 253740, Note_on_c, 0, 57, 0
2, 253745, Note_on_c, 0, 75, 0
2, 253877, Control_c, 0, 64, 68
2, 253896, Control_c, 0, 64, 67
2, 253914, Control_c, 0, 64, 66
2, 253932, Control_c, 0, 64, 65
2, 253932, Note_on_c, 0, 60, 71
2, 253933, Note_on_c, 0, 74, 60
2, 253951, Control_c, 0, 64, 64
2, 253971, Control_c, 0, 64, 63
2, 253989, Control_c, 0, 64, 62
2, 254009, Control_c, 0, 64, 61
2, 254028, Control_c, 0, 64, 59
2, 254048, Control_c, 0, 64, 56
2, 254050, Note_on_c, 0, 72, 0
2, 254066, Control_c, 0, 64, 51
2, 254086, Control_c, 0, 64, 39
2, 254105, Control_c, 0, 64, 0
2, 254118, Note_on_c, 0, 58, 65
2, 254123, Note_on_c, 0, 75, 71
2, 254132, Note_on_c, 0, 60, 0
2, 254188, Note_on_c, 0, 74, 0
2, 254342, Note_on_c, 0, 62, 76
2, 254349, Note_on_c, 0, 77, 69
2, 254353, Note_on_c, 0, 56, 67
2, 254354, Note_on_c, 0, 75, 0
2, 254403, Note_on_c, 0, 58, 0
2, 254431, Control_c, 0, 64, 24
2, 254451, Control_c, 0, 64, 49
2, 254469, Control_c, 0, 64, 60
2, 254489, Control_c, 0, 64, 64
2, 254504, Note_on_c, 0, 56, 0
2, 254508, Control_c, 0, 64, 67
2, 254528, Control_c, 0, 64, 70
2, 254546, Control_c, 0, 64, 75
2, 254551, Note_on_c, 0, 75, 70
2, 254566, Control_c, 0, 64, 81
2, 254567, Note_on_c, 0, 77, 0
2, 254585, Control_c, 0, 64, 86
2, 254604, Control_c, 0, 64, 91
2, 254623, Control_c, 0, 64, 96
2, 254639, Note_on_c, 0, 75, 0
2, 254643, Control_c, 0, 64, 108
2, 254662, Control_c, 0, 64, 127
2, 254738, Control_c, 0, 64, 97
2, 254758, Control_c, 0, 64, 76
2, 254772, Note_on_c, 0, 74, 68
2, 254775, Note_on_c, 0, 58, 64
2, 254777, Control_c, 0, 64, 62
2, 254797, Control_c, 0, 64, 56
2, 254815, Control_c, 0, 64, 59
2, 254816, Note_on_c, 0, 62, 0
2, 254834, Control_c, 0, 64, 62
2, 254854, Control_c, 0, 64, 64
2, 254872, Control_c, 0, 64, 66
2, 254891, Control_c, 0, 64, 70
2, 254910, Control_c, 0, 64, 77
2, 254930, Control_c, 0, 64, 86
2, 254948, Control_c, 0, 64, 98
2, 254968, Control_c, 0, 64, 111
2, 254973, Note_on_c, 0, 56, 66
2, 254975, Note_on_c, 0, 72, 73
2, 254985, Note_on_c, 0, 74, 0
2, 254987, Control_c, 0, 64, 119
2, 255007, Control_c, 0, 64, 123
2, 255011, Note_on_c, 0, 58, 0
2, 255022, Note_on_c, 0, 72, 0
2, 255025, Control_c, 0, 64, 127
2, 255160, Control_c, 0, 64, 96
2, 255179, Control_c, 0, 64, 75
2, 255199, Control_c, 0, 64, 62
2, 255204, Note_on_c, 0, 56, 0
2, 255215, Note_on_c, 0, 55, 59
2, 255218, Control_c, 0, 64, 60
2, 255234, Note_on_c, 0, 63, 68
2, 255237, Control_c, 0, 64, 63
2, 255237, Note_on_c, 0, 70, 71
2, 255256, Control_c, 0, 64, 66
2, 255276, Control_c, 0, 64, 71
2, 255294, Control_c, 0, 64, 84
2, 255313, Control_c, 0, 64, 127
2, 255323, Note_on_c, 0, 63, 0
2, 255462, Note_on_c, 0, 60, 61
2, 255582, Control_c, 0, 64, 123
2, 255602, Control_c, 0, 64, 95
2, 255621, Control_c, 0, 64, 79
2, 255637, Note_on_c, 0, 60, 0
2, 255641, Control_c, 0, 64, 69
2, 255649, Note_on_c, 0, 46, 52
2, 255660, Control_c, 0, 64, 62
2, 255662, Note_on_c, 0, 62, 56
2, 255680, Control_c, 0, 64, 57
2, 255698, Control_c, 0, 64, 55
2, 255718, Control_c, 0, 64, 52
2, 255737, Control_c, 0, 64, 44
2, 255757, Control_c, 0, 64, 30
2, 255775, Control_c, 0, 64, 9
2, 255794, Control_c, 0, 64, 0
2, 255821, Note_on_c, 0, 48, 57
2, 255832, Note_on_c, 0, 55, 0
2, 255848, Note_on_c, 0, 62, 0
2, 255869, Note_on_c, 0, 63, 57
2, 255912, Note_on_c, 0, 46, 0
2, 256095, Note_on_c, 0, 56, 76
2, 256096, Note_on_c, 0, 50, 62
2, 256118, Note_on_c, 0, 65, 62
2, 256133, Note_on_c, 0, 48, 0
2, 256138, Note_on_c, 0, 63, 0
2, 256167, Note_on_c, 0, 70, 0
2, 256304, Note_on_c, 0, 63, 60
2, 256479, Note_on_c, 0, 65, 0
2, 256510, Note_on_c, 0, 48, 57
2, 256511, Note_on_c, 0, 50, 0
2, 256539, Note_on_c, 0, 62, 65
2, 256546, Note_on_c, 0, 63, 0
2, 256734, Note_on_c, 0, 50, 54
2, 256736, Note_on_c, 0, 48, 0
2, 256741, Note_on_c, 0, 62, 0
2, 256748, Note_on_c, 0, 60, 63
2, 256751, Note_on_c, 0, 56, 0
2, 256893, Note_on_c, 0, 60, 0
2, 256950, Note_on_c, 0, 51, 63
2, 256954, Note_on_c, 0, 55, 65
2, 256970, Note_on_c, 0, 58, 64
2, 257065, Note_on_c, 0, 50, 0
2, 257112, Note_on_c, 0, 51, 0
2, 257168, Note_on_c, 0, 68, 75
2, 257304, Note_on_c, 0, 68, 0
2, 257388, Note_on_c, 0, 51, 58
2, 257403, Note_on_c, 0, 67, 71
2, 257411, Note_on_c, 0, 58, 0
2, 257614, Note_on_c, 0, 50, 59
2, 257622, Note_on_c, 0, 65, 73
2, 257647, Note_on_c, 0, 67, 0
2, 257662, Note_on_c, 0, 55, 0
2, 257693, Note_on_c, 0, 51, 0
2, 257950, Note_on_c, 0, 54, 55
2, 257960, Note_on_c, 0, 48, 49
2, 257965, Note_on_c, 0, 50, 0
2, 258011, Note_on_c, 0, 63, 67
2, 258016, Note_on_c, 0, 65, 0
2, 258250, Note_on_c, 0, 48, 0
2, 258454, Note_on_c, 0, 48, 38
2, 258486, Note_on_c, 0, 57, 50
2, 258634, Note_on_c, 0, 48, 0
2, 258681, Note_on_c, 0, 46, 38
2, 258708, Note_on_c, 0, 58, 55
2, 258719, Note_on_c, 0, 57, 0
2, 258811, Note_on_c, 0, 54, 0
2, 258968, Note_on_c, 0, 46, 0
2, 258972, Note_on_c, 0, 58, 0
2, 258983, Note_on_c, 0, 63, 0
2, 258989, Note_on_c, 0, 53, 58
2, 258990, Note_on_c, 0, 45, 51
2, 259002, Note_on_c, 0, 60, 59
2, 259220, Note_on_c, 0, 63, 60
2, 259360, Note_on_c, 0, 45, 0
2, 259386, Control_c, 0, 64, 17
2, 259405, Control_c, 0, 64, 28
2, 259419, Note_on_c, 0, 63, 0
2, 259423, Note_on_c, 0, 65, 57
2, 259424, Control_c, 0, 64, 35
2, 259444, Control_c, 0, 64, 41
2, 259463, Control_c, 0, 64, 45
2, 259482, Control_c, 0, 64, 46
2, 259501, Control_c, 0, 64, 47
2, 259521, Control_c, 0, 64, 47
2, 259598, Control_c, 0, 64, 48
2, 259598, Note_on_c, 0, 60, 0
2, 259627, Note_on_c, 0, 63, 59
2, 259634, Note_on_c, 0, 65, 0
2, 259655, Control_c, 0, 64, 47
2, 259673, Control_c, 0, 64, 46
2, 259692, Control_c, 0, 64, 46
2, 259711, Control_c, 0, 64, 45
2, 259731, Control_c, 0, 64, 45
2, 259749, Control_c, 0, 64, 44
2, 259822, Note_on_c, 0, 46, 46
2, 259823, Note_on_c, 0, 63, 0
2, 259834, Note_on_c, 0, 58, 44
2, 259846, Control_c, 0, 64, 44
2, 259853, Note_on_c, 0, 62, 54
2, 259865, Control_c, 0, 64, 43
2, 259884, Control_c, 0, 64, 42
2, 259903, Control_c, 0, 64, 41
2, 259923, Control_c, 0, 64, 41
2, 259942, Control_c, 0, 64, 40
2, 259961, Control_c, 0, 64, 38
2, 259980, Control_c, 0, 64, 37
2, 260000, Control_c, 0, 64, 36
2, 260038, Control_c, 0, 64, 35
2, 260048, Note_on_c, 0, 72, 67
2, 260057, Control_c, 0, 64, 34
2, 260077, Control_c, 0, 64, 32
2, 260095, Control_c, 0, 64, 29
2, 260114, Control_c, 0, 64, 27
2, 260134, Control_c, 0, 64, 21
2, 260152, Control_c, 0, 64, 13
2, 260172, Control_c, 0, 64, 0
2, 260253, Note_on_c, 0, 70, 69
2, 260303, Note_on_c, 0, 72, 0
2, 260470, Note_on_c, 0, 68, 68
2, 260523, Note_on_c, 0, 70, 0
2, 260721, Note_on_c, 0, 51, 40
2, 260738, Note_on_c, 0, 67, 50
2, 260742, Note_on_c, 0, 62, 0
2, 260750, Note_on_c, 0, 68, 0
2, 260765, Note_on_c, 0, 46, 0
2, 260798, Note_on_c, 0, 53, 0
2, 260933, Note_on_c, 0, 67, 0
2, 261194, Note_on_c, 0, 70, 70
2, 261215, Note_on_c, 0, 63, 53
2, 261339, Note_on_c, 0, 63, 0
2, 261381, Note_on_c, 0, 70, 0
2, 261403, Note_on_c, 0, 65, 66
2, 261506, Note_on_c, 0, 65, 0
2, 261634, Note_on_c, 0, 58, 0
2, 261643, Note_on_c, 0, 75, 81
2, 261665, Note_on_c, 0, 67, 61
2, 261707, Note_on_c, 0, 51, 0
2, 261848, Note_on_c, 0, 67, 0
2, 262098, Note_on_c, 0, 51, 46
2, 262106, Note_on_c, 0, 67, 49
2, 262297, Note_on_c, 0, 51, 0
2, 262301, Note_on_c, 0, 53, 48
2, 262303, Note_on_c, 0, 67, 0
2, 262306, Note_on_c, 0, 68, 67
2, 262318, Note_on_c, 0, 75, 0
2, 262422, Note_on_c, 0, 68, 0
2, 262532, Note_on_c, 0, 53, 0
2, 262536, Note_on_c, 0, 70, 65
2, 262537, Note_on_c, 0, 55, 46
2, 262706, Note_on_c, 0, 55, 0
2, 262748, Note_on_c, 0, 79, 85
2, 262957, Note_on_c, 0, 77, 79
2, 262961, Note_on_c, 0, 55, 50
2, 262967, Note_on_c, 0, 58, 54
2, 262988, Note_on_c, 0, 79, 0
2, 263032, Control_c, 0, 64, 32
2, 263051, Control_c, 0, 64, 57
2, 263070, Control_c, 0, 64, 65
2, 263090, Control_c, 0, 64, 68
2, 263108, Control_c, 0, 64, 72
2, 263128, Control_c, 0, 64, 76
2, 263147, Control_c, 0, 64, 82
2, 263160, Note_on_c, 0, 56, 51
2, 263161, Note_on_c, 0, 75, 80
2, 263167, Control_c, 0, 64, 87
2, 263184, Note_on_c, 0, 60, 60
2, 263185, Control_c, 0, 64, 90
2, 263205, Control_c, 0, 64, 91
2, 263205, Note_on_c, 0, 77, 0
2, 263218, Note_on_c, 0, 58, 0
2, 263224, Control_c, 0, 64, 92
2, 263241, Note_on_c, 0, 70, 0
2, 263243, Control_c, 0, 64, 93
2, 263260, Note_on_c, 0, 55, 0
2, 263262, Control_c, 0, 64, 95
2, 263262, Note_on_c, 0, 75, 0
2, 263282, Control_c, 0, 64, 97
2, 263301, Control_c, 0, 64, 102
2, 263322, Control_c, 0, 64, 107
2, 263341, Control_c, 0, 64, 109
2, 263361, Control_c, 0, 64, 100
2, 263363, Note_on_c, 0, 60, 0
2, 263363, Note_on_c, 0, 62, 50
2, 263378, Note_on_c, 0, 58, 54
2, 263379, Control_c, 0, 64, 83
2, 263398, Note_on_c, 0, 74, 79
2, 263399, Control_c, 0, 64, 68
2, 263418, Control_c, 0, 64, 49
2, 263438, Control_c, 0, 64, 38
2, 263456, Control_c, 0, 64, 52
2, 263475, Control_c, 0, 64, 61
2, 263495, Control_c, 0, 64, 67
2, 263513, Control_c, 0, 64, 76
2, 263532, Control_c, 0, 64, 96
2, 263551, Control_c, 0, 64, 127
2, 263597, Note_on_c, 0, 56, 0
2, 263603, Note_on_c, 0, 60, 58
2, 263609, Note_on_c, 0, 62, 0
2, 263624, Note_on_c, 0, 58, 0
2, 263625, Note_on_c, 0, 68, 77
2, 263641, Note_on_c, 0, 60, 0
2, 263724, Control_c, 0, 64, 94
2, 263743, Control_c, 0, 64, 71
2, 263763, Control_c, 0, 64, 58
2, 263782, Control_c, 0, 64, 57
2, 263801, Control_c, 0, 64, 63
2, 263820, Control_c, 0, 64, 68
2, 263820, Note_on_c, 0, 58, 61
2, 263820, Note_on_c, 0, 67, 76
2, 263820, Note_on_c, 0, 68, 0
2, 263840, Control_c, 0, 64, 79
2, 263840, Note_on_c, 0, 46, 49
2, 263858, Control_c, 0, 64, 102
2, 263878, Control_c, 0, 64, 118
2, 263906, Note_on_c, 0, 58, 0
2, 263917, Control_c, 0, 64, 113
2, 263935, Control_c, 0, 64, 107
2, 263954, Control_c, 0, 64, 101
2, 263974, Control_c, 0, 64, 97
2, 263992, Control_c, 0, 64, 94
2, 264012, Control_c, 0, 64, 91
2, 264023, Note_on_c, 0, 65, 75
2, 264024, Note_on_c, 0, 56, 68
2, 264031, Control_c, 0, 64, 89
2, 264041, Note_on_c, 0, 67, 0
2, 264051, Control_c, 0, 64, 87
2, 264069, Note_on_c, 0, 65, 0
2, 264089, Control_c, 0, 64, 88
2, 264108, Control_c, 0, 64, 89
2, 264128, Control_c, 0, 64, 91
2, 264146, Control_c, 0, 64, 91
2, 264166, Control_c, 0, 64, 91
2, 264168, Note_on_c, 0, 56, 0
2, 264185, Control_c, 0, 64, 86
2, 264199, Note_on_c, 0, 46, 0
2, 264204, Control_c, 0, 64, 75
2, 264223, Control_c, 0, 64, 64
2, 264223, Note_on_c, 0, 55, 58
2, 264232, Note_on_c, 0, 48, 54
2, 264233, Note_on_c, 0, 63, 66
2, 264243, Control_c, 0, 64, 27
2, 264262, Control_c, 0, 64, 0
2, 264353, Note_on_c, 0, 74, 0
2, 264355, Note_on_c, 0, 63, 0
2, 264446, Note_on_c, 0, 62, 62
2, 264673, Note_on_c, 0, 62, 0
2, 264686, Note_on_c, 0, 67, 49
2, 264687, Note_on_c, 0, 60, 52
2, 264769, Note_on_c, 0, 60, 0
2, 264787, Note_on_c, 0, 67, 0
2, 264874, Note_on_c, 0, 62, 47
2, 265118, Note_on_c, 0, 72, 58
2, 265140, Note_on_c, 0, 63, 43
2, 265146, Note_on_c, 0, 62, 0
2, 265163, Note_on_c, 0, 55, 0
2, 265168, Note_on_c, 0, 48, 0
2, 265329, Note_on_c, 0, 63, 0
2, 265561, Note_on_c, 0, 48, 34
2, 265578, Note_on_c, 0, 63, 41
2, 265713, Note_on_c, 0, 72, 0
2, 265753, Note_on_c, 0, 63, 0
2, 265774, Note_on_c, 0, 50, 46
2, 265775, Note_on_c, 0, 65, 46
2, 265800, Note_on_c, 0, 48, 0
2, 265924, Note_on_c, 0, 65, 0
2, 265943, Note_on_c, 0, 50, 0
2, 265981, Note_on_c, 0, 51, 44
2, 265992, Note_on_c, 0, 67, 50
2, 266116, Note_on_c, 0, 51, 0
2, 266190, Note_on_c, 0, 75, 59
2, 266408, Note_on_c, 0, 75, 0
2, 266417, Note_on_c, 0, 51, 38
2, 266423, Note_on_c, 0, 55, 44
2, 266427, Note_on_c, 0, 74, 56
2, 266451, Control_c, 0, 64, 44
2, 266469, Control_c, 0, 64, 60
2, 266489, Control_c, 0, 64, 64
2, 266508, Control_c, 0, 64, 66
2, 266528, Control_c, 0, 64, 68
2, 266546, Control_c, 0, 64, 72
2, 266566, Control_c, 0, 64, 81
2, 266585, Control_c, 0, 64, 95
2, 266604, Control_c, 0, 64, 127
2, 266607, Note_on_c, 0, 74, 0
2, 266609, Note_on_c, 0, 51, 0
2, 266609, Note_on_c, 0, 72, 65
2, 266618, Note_on_c, 0, 53, 50
2, 266646, Note_on_c, 0, 56, 56
2, 266648, Note_on_c, 0, 55, 0
2, 266652, Note_on_c, 0, 72, 0
2, 266813, Note_on_c, 0, 56, 0
2, 266815, Control_c, 0, 64, 97
2, 266834, Control_c, 0, 64, 78
2, 266834, Note_on_c, 0, 58, 50
2, 266848, Note_on_c, 0, 70, 60
2, 266854, Control_c, 0, 64, 66
2, 266859, Note_on_c, 0, 67, 0
2, 266872, Control_c, 0, 64, 58
2, 266873, Note_on_c, 0, 55, 37
2, 266892, Control_c, 0, 64, 59
2, 266911, Control_c, 0, 64, 62
2, 266931, Control_c, 0, 64, 64
2, 266949, Control_c, 0, 64, 68
2, 266963, Note_on_c, 0, 53, 0
2, 266969, Control_c, 0, 64, 74
2, 266988, Control_c, 0, 64, 87
2, 267006, Note_on_c, 0, 58, 0
2, 267008, Control_c, 0, 64, 109
2, 267025, Note_on_c, 0, 55, 0
2, 267026, Control_c, 0, 64, 127
2, 267038, Note_on_c, 0, 65, 59
2, 267061, Note_on_c, 0, 56, 51
2, 267097, Note_on_c, 0, 56, 0
2, 267218, Control_c, 0, 64, 92
2, 267238, Control_c, 0, 64, 71
2, 267257, Control_c, 0, 64, 61
2, 267264, Note_on_c, 0, 55, 52
2, 267265, Note_on_c, 0, 63, 63
2, 267266, Note_on_c, 0, 43, 55
2, 267276, Control_c, 0, 64, 61
2, 267295, Control_c, 0, 64, 64
2, 267314, Control_c, 0, 64, 67
2, 267329, Note_on_c, 0, 55, 0
2, 267334, Control_c, 0, 64, 73
2, 267352, Control_c, 0, 64, 85
2, 267372, Control_c, 0, 64, 102
2, 267391, Control_c, 0, 64, 116
2, 267429, Control_c, 0, 64, 115
2, 267449, Control_c, 0, 64, 112
2, 267468, Control_c, 0, 64, 109
2, 267470, Note_on_c, 0, 61, 64
2, 267479, Note_on_c, 0, 55, 40
2, 267488, Control_c, 0, 64, 107
2, 267503, Note_on_c, 0, 53, 28
2, 267506, Control_c, 0, 64, 107
2, 267522, Note_on_c, 0, 43, 0
2, 267526, Control_c, 0, 64, 105
2, 267530, Note_on_c, 0, 55, 0
2, 267545, Control_c, 0, 64, 105
2, 267549, Note_on_c, 0, 53, 0
2, 267593, Note_on_c, 0, 61, 0
2, 267607, Note_on_c, 0, 70, 0
2, 267621, Note_on_c, 0, 65, 0
2, 267622, Control_c, 0, 64, 104
2, 267641, Control_c, 0, 64, 102
2, 267652, Note_on_c, 0, 63, 0
2, 267660, Control_c, 0, 64, 97
2, 267680, Control_c, 0, 64, 90
2, 267685, Note_on_c, 0, 51, 63
2, 267685, Note_on_c, 0, 60, 67
2, 267697, Note_on_c, 0, 44, 59
2, 267698, Control_c, 0, 64, 83
2, 267718, Control_c, 0, 64, 76
2, 267737, Control_c, 0, 64, 69
2, 267756, Control_c, 0, 64, 62
2, 267775, Control_c, 0, 64, 54
2, 267794, Control_c, 0, 64, 47
2, 267814, Control_c, 0, 64, 43
2, 267832, Control_c, 0, 64, 36
2, 267852, Control_c, 0, 64, 0
2, 267878, Note_on_c, 0, 60, 0
2, 267884, Note_on_c, 0, 58, 69
2, 268101, Note_on_c, 0, 58, 0
2, 268101, Note_on_c, 0, 63, 76
2, 268114, Note_on_c, 0, 56, 71
2, 268295, Note_on_c, 0, 58, 75
2, 268320, Note_on_c, 0, 56, 0
2, 268331, Note_on_c, 0, 63, 0
2, 268378, Note_on_c, 0, 58, 0
2, 268560, Note_on_c, 0, 68, 79
2, 268579, Note_on_c, 0, 60, 65
2, 268675, Note_on_c, 0, 51, 0
2, 268739, Note_on_c, 0, 44, 0
2, 268813, Note_on_c, 0, 60, 0
2, 269000, Note_on_c, 0, 44, 54
2, 269004, Note_on_c, 0, 60, 61
2, 269202, Note_on_c, 0, 46, 59
2, 269207, Note_on_c, 0, 62, 69
2, 269254, Note_on_c, 0, 60, 0
2, 269262, Note_on_c, 0, 68, 0
2, 269304, Note_on_c, 0, 62, 0
2, 269417, Note_on_c, 0, 63, 70
2, 269423, Note_on_c, 0, 48, 57
2, 269516, Note_on_c, 0, 44, 0
2, 269534, Note_on_c, 0, 46, 0
2, 269597, Note_on_c, 0, 48, 0
2, 269627, Note_on_c, 0, 72, 81
2, 269847, Note_on_c, 0, 70, 82
2, 269849, Note_on_c, 0, 51, 58
2, 269855, Note_on_c, 0, 48, 56
2, 269885, Note_on_c, 0, 72, 0
2, 269922, Control_c, 0, 64, 22
2, 269941, Control_c, 0, 64, 53
2, 269960, Control_c, 0, 64, 62
2, 269979, Control_c, 0, 64, 65
2, 269999, Control_c, 0, 64, 69
2, 270018, Control_c, 0, 64, 79
2, 270037, Control_c, 0, 64, 105
2, 270047, Note_on_c, 0, 68, 84
2, 270048, Note_on_c, 0, 53, 70
2, 270050, Note_on_c, 0, 50, 61
2, 270056, Control_c, 0, 64, 127
2, 270063, Note_on_c, 0, 51, 0
2, 270080, Note_on_c, 0, 48, 0
2, 270082, Note_on_c, 0, 63, 0
2, 270089, Note_on_c, 0, 70, 0
2, 270120, Note_on_c, 0, 68, 0
2, 270266, Note_on_c, 0, 55, 61
2, 270276, Note_on_c, 0, 51, 62
2, 270282, Note_on_c, 0, 53, 0
2, 270294, Note_on_c, 0, 67, 86
2, 270311, Control_c, 0, 64, 90
2, 270331, Control_c, 0, 64, 69
2, 270331, Note_on_c, 0, 50, 0
2, 270350, Control_c, 0, 64, 51
2, 270370, Control_c, 0, 64, 9
2, 270388, Control_c, 0, 64, 41
2, 270407, Control_c, 0, 64, 57
2, 270427, Control_c, 0, 64, 64
2, 270445, Control_c, 0, 64, 73
2, 270465, Control_c, 0, 64, 105
2, 270484, Control_c, 0, 64, 127
2, 270499, Note_on_c, 0, 53, 73
2, 270508, Note_on_c, 0, 55, 0
2, 270519, Note_on_c, 0, 62, 74
2, 270536, Note_on_c, 0, 51, 0
2, 270545, Note_on_c, 0, 53, 0
2, 270656, Note_on_c, 0, 67, 0
2, 270676, Control_c, 0, 64, 94
2, 270696, Control_c, 0, 64, 72
2, 270710, Note_on_c, 0, 51, 73
2, 270712, Note_on_c, 0, 62, 0
2, 270715, Control_c, 0, 64, 63
2, 270730, Note_on_c, 0, 39, 67
2, 270733, Note_on_c, 0, 60, 72
2, 270734, Control_c, 0, 64, 65
2, 270753, Control_c, 0, 64, 69
2, 270773, Control_c, 0, 64, 80
2, 270791, Control_c, 0, 64, 118
2, 270811, Control_c, 0, 64, 127
2, 270858, Note_on_c, 0, 51, 0
2, 270908, Note_on_c, 0, 50, 77
2, 270919, Note_on_c, 0, 39, 0
2, 270923, Note_on_c, 0, 58, 78
2, 270925, Note_on_c, 0, 60, 0
2, 271059, Note_on_c, 0, 58, 0
2, 271133, Note_on_c, 0, 41, 72
2, 271136, Note_on_c, 0, 56, 71
2, 271138, Note_on_c, 0, 48, 76
2, 271144, Control_c, 0, 64, 101
2, 271163, Control_c, 0, 64, 68
2, 271180, Note_on_c, 0, 50, 0
2, 271182, Control_c, 0, 64, 0
2, 271271, Control_c, 0, 64, 35
2, 271291, Control_c, 0, 64, 60
2, 271292, Note_on_c, 0, 41, 0
2, 271310, Control_c, 0, 64, 67
2, 271330, Control_c, 0, 64, 74
2, 271346, Note_on_c, 0, 65, 75
2, 271348, Control_c, 0, 64, 86
2, 271367, Control_c, 0, 64, 102
2, 271387, Control_c, 0, 64, 127
2, 271521, Control_c, 0, 64, 118
2, 271541, Control_c, 0, 64, 79
2, 271542, Note_on_c, 0, 48, 0
2, 271551, Note_on_c, 0, 43, 74
2, 271558, Note_on_c, 0, 50, 77
2, 271559, Control_c, 0, 64, 60
2, 271568, Note_on_c, 0, 68, 86
2, 271573, Note_on_c, 0, 47, 59
2, 271579, Control_c, 0, 64, 0
2, 271598, Control_c, 0, 64, 46
2, 271617, Control_c, 0, 64, 64
2, 271636, Control_c, 0, 64, 73
2, 271656, Control_c, 0, 64, 100
2, 271675, Control_c, 0, 64, 127
2, 271726, Note_on_c, 0, 68, 0
2, 271736, Note_on_c, 0, 43, 0
2, 271753, Note_on_c, 0, 51, 74
2, 271756, Note_on_c, 0, 47, 0
2, 271767, Note_on_c, 0, 56, 0
2, 271772, Note_on_c, 0, 50, 0
2, 271781, Note_on_c, 0, 67, 81
2, 271851, Note_on_c, 0, 65, 0
2, 271970, Note_on_c, 0, 51, 0
2, 271979, Note_on_c, 0, 44, 75
2, 271989, Note_on_c, 0, 53, 86
2, 271993, Note_on_c, 0, 48, 65
2, 271997, Note_on_c, 0, 65, 74
2, 272001, Control_c, 0, 64, 85
2, 272021, Control_c, 0, 64, 63
2, 272039, Control_c, 0, 64, 0
2, 272039, Note_on_c, 0, 67, 0
2, 272116, Control_c, 0, 64, 35
2, 272136, Control_c, 0, 64, 60
2, 272155, Control_c, 0, 64, 69
2, 272174, Control_c, 0, 64, 86
2, 272180, Note_on_c, 0, 44, 0
2, 272193, Control_c, 0, 64, 127
2, 272195, Note_on_c, 0, 53, 0
2, 272216, Note_on_c, 0, 63, 81
2, 272351, Note_on_c, 0, 65, 0
2, 272445, Note_on_c, 0, 63, 0
2, 272452, Note_on_c, 0, 54, 89
2, 272456, Note_on_c, 0, 45, 68
2, 272456, Note_on_c, 0, 62, 74
2, 272462, Control_c, 0, 64, 106
2, 272481, Control_c, 0, 64, 75
2, 272501, Control_c, 0, 64, 51
2, 272518, Control_c, 0, 64, 0
2, 272613, Control_c, 0, 64, 13
2, 272632, Control_c, 0, 64, 57
2, 272651, Control_c, 0, 64, 71
2, 272662, Note_on_c, 0, 45, 0
2, 272670, Control_c, 0, 64, 92
2, 272681, Note_on_c, 0, 60, 87
2, 272683, Note_on_c, 0, 48, 0
2, 272690, Control_c, 0, 64, 127
2, 272726, Note_on_c, 0, 54, 0
2, 272729, Note_on_c, 0, 62, 0
2, 273016, Control_c, 0, 64, 100
2, 273035, Control_c, 0, 64, 70
2, 273035, Note_on_c, 0, 55, 69
2, 273036, Note_on_c, 0, 50, 63
2, 273040, Note_on_c, 0, 43, 66
2, 273041, Note_on_c, 0, 59, 82
2, 273054, Control_c, 0, 64, 0
2, 273056, Note_on_c, 0, 60, 0
2, 273188, Control_c, 0, 64, 49
2, 273200, Note_on_c, 0, 43, 0
2, 273207, Control_c, 0, 64, 67
2, 273214, Note_on_c, 0, 50, 0
2, 273226, Control_c, 0, 64, 78
2, 273246, Control_c, 0, 64, 127
2, 273259, Note_on_c, 0, 55, 0
2, 273281, Note_on_c, 0, 59, 0
2, 273533, Control_c, 0, 64, 108
2, 273552, Control_c, 0, 64, 97
2, 273560, Note_on_c, 0, 55, 71
2, 273572, Control_c, 0, 64, 89
2, 273591, Control_c, 0, 64, 81
2, 273610, Control_c, 0, 64, 74
2, 273629, Control_c, 0, 64, 65
2, 273649, Control_c, 0, 64, 56
2, 273668, Control_c, 0, 64, 44
2, 273687, Control_c, 0, 64, 35
2, 273706, Control_c, 0, 64, 21
2, 273726, Control_c, 0, 64, 0
2, 273754, Note_on_c, 0, 57, 69
2, 273811, Note_on_c, 0, 55, 0
2, 274012, Note_on_c, 0, 59, 53
2, 274043, Note_on_c, 0, 57, 0
2, 274051, Note_on_c, 0, 79, 87
2, 274430, Note_on_c, 0, 59, 0
2, 274492, Note_on_c, 0, 57, 53
2, 274688, Note_on_c, 0, 59, 60
2, 274694, Note_on_c, 0, 57, 0
2, 274886, Note_on_c, 0, 59, 0
2, 274907, Note_on_c, 0, 80, 84
2, 274917, Note_on_c, 0, 60, 48
2, 274952, Note_on_c, 0, 79, 0
2, 275126, Note_on_c, 0, 60, 0
2, 275137, Note_on_c, 0, 59, 50
2, 275333, Note_on_c, 0, 60, 40
2, 275345, Note_on_c, 0, 72, 61
2, 275352, Note_on_c, 0, 59, 0
2, 275498, Note_on_c, 0, 60, 0
2, 275537, Note_on_c, 0, 62, 57
2, 275594, Note_on_c, 0, 80, 0
2, 275768, Note_on_c, 0, 79, 81
2, 275781, Note_on_c, 0, 63, 51
2, 275825, Note_on_c, 0, 72, 0
2, 275865, Note_on_c, 0, 62, 0
2, 276230, Note_on_c, 0, 70, 58
2, 276298, Note_on_c, 0, 79, 0
2, 276649, Note_on_c, 0, 78, 73
2, 276651, Note_on_c, 0, 69, 49
2, 276665, Note_on_c, 0, 63, 0
2, 276704, Note_on_c, 0, 70, 0
2, 276861, Note_on_c, 0, 60, 50
2, 277029, Note_on_c, 0, 69, 0
2, 277075, Note_on_c, 0, 70, 64
2, 277102, Note_on_c, 0, 62, 44
2, 277203, Control_c, 0, 64, 13
2, 277218, Note_on_c, 0, 78, 0
2, 277222, Control_c, 0, 64, 23
2, 277236, Note_on_c, 0, 60, 0
2, 277241, Control_c, 0, 64, 29
2, 277260, Control_c, 0, 64, 32
2, 277269, Note_on_c, 0, 70, 0
2, 277272, Note_on_c, 0, 63, 55
2, 277280, Control_c, 0, 64, 35
2, 277281, Note_on_c, 0, 72, 69
2, 277298, Control_c, 0, 64, 36
2, 277304, Note_on_c, 0, 62, 0
2, 277317, Control_c, 0, 64, 37
2, 277404, Note_on_c, 0, 72, 0
2, 277453, Note_on_c, 0, 63, 0
2, 277463, Note_on_c, 0, 65, 49
2, 277491, Control_c, 0, 64, 37
2, 277502, Note_on_c, 0, 83, 80
2, 277510, Note_on_c, 0, 74, 51
2, 277548, Control_c, 0, 64, 36
2, 277714, Note_on_c, 0, 74, 0
2, 277715, Note_on_c, 0, 72, 63
2, 277927, Note_on_c, 0, 71, 52
2, 277930, Control_c, 0, 64, 36
2, 278007, Control_c, 0, 64, 35
2, 278088, Note_on_c, 0, 71, 0
2, 278118, Note_on_c, 0, 69, 57
2, 278234, Note_on_c, 0, 65, 0
2, 278301, Note_on_c, 0, 69, 0
2, 278346, Note_on_c, 0, 67, 49
2, 278354, Note_on_c, 0, 84, 87
2, 278400, Note_on_c, 0, 72, 0
2, 278429, Note_on_c, 0, 83, 0
2, 278576, Note_on_c, 0, 63, 53
2, 278640, Note_on_c, 0, 67, 0
2, 278641, Control_c, 0, 64, 36
2, 278660, Control_c, 0, 64, 38
2, 278678, Control_c, 0, 64, 42
2, 278698, Control_c, 0, 64, 51
2, 278717, Control_c, 0, 64, 62
2, 278737, Control_c, 0, 64, 66
2, 278755, Control_c, 0, 64, 69
2, 278763, Note_on_c, 0, 84, 0
2, 278775, Control_c, 0, 64, 72
2, 278791, Note_on_c, 0, 65, 52
2, 278794, Control_c, 0, 64, 76
2, 278813, Control_c, 0, 64, 82
2, 278832, Control_c, 0, 64, 87
2, 278852, Control_c, 0, 64, 89
2, 278909, Control_c, 0, 64, 88
2, 278929, Control_c, 0, 64, 86
2, 278948, Control_c, 0, 64, 84
2, 278967, Control_c, 0, 64, 80
2, 278985, Note_on_c, 0, 65, 0
2, 278986, Control_c, 0, 64, 77
2, 278993, Note_on_c, 0, 67, 59
2, 278994, Note_on_c, 0, 63, 0
2, 279006, Control_c, 0, 64, 73
2, 279024, Control_c, 0, 64, 69
2, 279044, Control_c, 0, 64, 65
2, 279063, Control_c, 0, 64, 62
2, 279083, Control_c, 0, 64, 60
2, 279101, Control_c, 0, 64, 59
2, 279121, Control_c, 0, 64, 58
2, 279140, Control_c, 0, 64, 55
2, 279158, Control_c, 0, 64, 50
2, 279178, Control_c, 0, 64, 41
2, 279197, Control_c, 0, 64, 17
2, 279217, Control_c, 0, 64, 0
2, 279225, Note_on_c, 0, 77, 71
2, 279242, Note_on_c, 0, 68, 57
2, 279296, Note_on_c, 0, 67, 0
2, 279441, Note_on_c, 0, 55, 47
2, 279666, Note_on_c, 0, 56, 51
2, 279725, Note_on_c, 0, 68, 0
2, 279728, Note_on_c, 0, 55, 0
2, 279860, Note_on_c, 0, 58, 50
2, 279904, Note_on_c, 0, 56, 0
2, 280079, Note_on_c, 0, 58, 0
2, 280089, Note_on_c, 0, 60, 45
2, 280095, Note_on_c, 0, 76, 67
2, 280131, Note_on_c, 0, 77, 0
2, 280314, Note_on_c, 0, 67, 48
2, 280497, Note_on_c, 0, 67, 0
2, 280520, Note_on_c, 0, 69, 56
2, 280673, Note_on_c, 0, 69, 0
2, 280719, Note_on_c, 0, 71, 57
2, 280832, Note_on_c, 0, 60, 0
2, 280940, Note_on_c, 0, 75, 58
2, 280954, Note_on_c, 0, 72, 51
2, 280981, Note_on_c, 0, 71, 0
2, 280990, Note_on_c, 0, 76, 0
2, 281134, Note_on_c, 0, 60, 42
2, 281315, Note_on_c, 0, 60, 0
2, 281350, Note_on_c, 0, 62, 48
2, 281545, Note_on_c, 0, 62, 0
2, 281554, Note_on_c, 0, 63, 50
2, 281590, Note_on_c, 0, 75, 0
2, 281737, Note_on_c, 0, 63, 0
2, 281761, Note_on_c, 0, 65, 42
2, 281783, Note_on_c, 0, 74, 66
2, 281826, Note_on_c, 0, 72, 0
2, 281990, Note_on_c, 0, 65, 0
2, 282020, Note_on_c, 0, 62, 37
2, 282208, Note_on_c, 0, 71, 50
2, 282227, Note_on_c, 0, 63, 45
2, 282258, Note_on_c, 0, 62, 0
2, 282387, Note_on_c, 0, 71, 0
2, 282409, Note_on_c, 0, 63, 0
2, 282411, Note_on_c, 0, 69, 51
2, 282423, Note_on_c, 0, 65, 42
2, 282593, Note_on_c, 0, 65, 0
2, 282633, Note_on_c, 0, 71, 58
2, 282650, Note_on_c, 0, 67, 36
2, 282672, Note_on_c, 0, 69, 0
2, 282823, Note_on_c, 0, 67, 0
2, 282833, Note_on_c, 0, 71, 0
2, 282846, Note_on_c, 0, 72, 53
2, 282850, Note_on_c, 0, 68, 48
2, 282979, Note_on_c, 0, 68, 0
2, 282979, Note_on_c, 0, 74, 0
2, 283049, Note_on_c, 0, 67, 36
2, 283067, Note_on_c, 0, 71, 56
2, 283076, Note_on_c, 0, 72, 0
2, 283236, Note_on_c, 0, 67, 0
2, 283271, Note_on_c, 0, 65, 39
2, 283273, Note_on_c, 0, 74, 52
2, 283345, Note_on_c, 0, 71, 0
2, 283456, Note_on_c, 0, 65, 0
2, 283478, Note_on_c, 0, 63, 47
2, 283485, Note_on_c, 0, 74, 0
2, 283488, Note_on_c, 0, 67, 52
2, 283644, Note_on_c, 0, 63, 0
2, 283678, Note_on_c, 0, 65, 48
2, 283914, Note_on_c, 0, 63, 47
2, 283914, Note_on_c, 0, 72, 74
2, 283935, Note_on_c, 0, 65, 0
2, 284094, Note_on_c, 0, 63, 0
2, 284105, Note_on_c, 0, 62, 50
2, 284108, Note_on_c, 0, 74, 71
2, 284167, Note_on_c, 0, 72, 0
2, 284351, Note_on_c, 0, 60, 37
2, 284362, Note_on_c, 0, 62, 0
2, 284369, Note_on_c, 0, 75, 77
2, 284411, Note_on_c, 0, 74, 0
2, 284433, Note_on_c, 0, 67, 0
2, 284539, Note_on_c, 0, 60, 0
2, 284801, Note_on_c, 0, 67, 50
2, 284806, Note_on_c, 0, 60, 44
2, 284984, Note_on_c, 0, 60, 0
2, 285008, Note_on_c, 0, 58, 47
2, 285208, Note_on_c, 0, 58, 0
2, 285209, Note_on_c, 0, 67, 0
2, 285244, Note_on_c, 0, 57, 38
2, 285254, Note_on_c, 0, 60, 37
2, 285414, Note_on_c, 0, 57, 0
2, 285686, Note_on_c, 0, 72, 53
2, 285695, Note_on_c, 0, 57, 42
2, 285754, Note_on_c, 0, 60, 0
2, 285850, Note_on_c, 0, 57, 0
2, 285889, Note_on_c, 0, 70, 55
2, 285907, Note_on_c, 0, 55, 37
2, 285916, Note_on_c, 0, 72, 0
2, 286061, Note_on_c, 0, 55, 0
2, 286124, Note_on_c, 0, 70, 0
2, 286140, Note_on_c, 0, 69, 46
2, 286142, Note_on_c, 0, 53, 34
2, 286379, Note_on_c, 0, 69, 0
2, 286534, Note_on_c, 0, 53, 0
2, 286571, Note_on_c, 0, 55, 40
2, 286571, Note_on_c, 0, 70, 58
2, 286762, Note_on_c, 0, 70, 0
2, 286766, Note_on_c, 0, 55, 0
2, 286780, Note_on_c, 0, 72, 60
2, 286781, Note_on_c, 0, 57, 48
2, 286989, Note_on_c, 0, 57, 0
2, 286996, Note_on_c, 0, 72, 0
2, 287007, Note_on_c, 0, 58, 49
2, 287018, Note_on_c, 0, 65, 58
2, 287085, Control_c, 0, 64, 36
2, 287104, Control_c, 0, 64, 61
2, 287123, Control_c, 0, 64, 68
2, 287142, Control_c, 0, 64, 75
2, 287151, Note_on_c, 0, 58, 0
2, 287162, Control_c, 0, 64, 86
2, 287180, Control_c, 0, 64, 99
2, 287200, Control_c, 0, 64, 121
2, 287219, Control_c, 0, 64, 127
2, 287225, Note_on_c, 0, 75, 0
2, 287247, Note_on_c, 0, 65, 0
2, 287431, Control_c, 0, 64, 118
2, 287450, Control_c, 0, 64, 106
2, 287456, Note_on_c, 0, 65, 43
2, 287458, Note_on_c, 0, 74, 75
2, 287463, Note_on_c, 0, 70, 71
2, 287468, Control_c, 0, 64, 99
2, 287488, Control_c, 0, 64, 93
2, 287507, Control_c, 0, 64, 84
2, 287527, Control_c, 0, 64, 73
2, 287546, Control_c, 0, 64, 65
2, 287566, Control_c, 0, 64, 60
2, 287585, Control_c, 0, 64, 57
2, 287623, Control_c, 0, 64, 56
2, 287643, Control_c, 0, 64, 54
2, 287660, Note_on_c, 0, 63, 56
2, 287661, Control_c, 0, 64, 49
2, 287664, Note_on_c, 0, 75, 82
2, 287681, Control_c, 0, 64, 43
2, 287681, Note_on_c, 0, 65, 0
2, 287700, Control_c, 0, 64, 29
2, 287720, Control_c, 0, 64, 0
2, 287737, Note_on_c, 0, 74, 0
2, 287878, Note_on_c, 0, 62, 45
2, 287912, Note_on_c, 0, 77, 78
2, 287927, Note_on_c, 0, 70, 0
2, 287953, Note_on_c, 0, 75, 0
2, 287960, Note_on_c, 0, 63, 0
2, 288102, Note_on_c, 0, 62, 0
2, 288358, Note_on_c, 0, 68, 60
2, 288365, Note_on_c, 0, 62, 33
2, 288582, Note_on_c, 0, 60, 41
2, 288620, Note_on_c, 0, 62, 0
2, 288784, Note_on_c, 0, 68, 0
2, 288785, Note_on_c, 0, 67, 45
2, 288810, Note_on_c, 0, 59, 40
2, 288822, Note_on_c, 0, 60, 0
2, 289040, Note_on_c, 0, 59, 0
2, 289162, Note_on_c, 0, 67, 0
2, 289242, Note_on_c, 0, 59, 37
2, 289246, Note_on_c, 0, 74, 57
2, 289449, Note_on_c, 0, 72, 56
2, 289463, Note_on_c, 0, 57, 44
2, 289490, Note_on_c, 0, 74, 0
2, 289500, Note_on_c, 0, 59, 0
2, 289655, Note_on_c, 0, 57, 0
2, 289688, Note_on_c, 0, 55, 41
2, 289695, Note_on_c, 0, 71, 51
2, 289713, Note_on_c, 0, 72, 0
2, 289988, Note_on_c, 0, 71, 0
2, 290086, Note_on_c, 0, 55, 0
2, 290102, Note_on_c, 0, 57, 46
2, 290107, Note_on_c, 0, 72, 64
2, 290302, Note_on_c, 0, 57, 0
2, 290314, Note_on_c, 0, 59, 63
2, 290318, Note_on_c, 0, 74, 65
2, 290329, Note_on_c, 0, 72, 0
2, 290415, Note_on_c, 0, 77, 0
2, 290509, Note_on_c, 0, 59, 0
2, 290520, Note_on_c, 0, 60, 59
2, 290544, Note_on_c, 0, 67, 68
2, 290544, Note_on_c, 0, 74, 0
2, 290753, Note_on_c, 0, 74, 82
2, 290958, Note_on_c, 0, 58, 61
2, 290960, Note_on_c, 0, 76, 83
2, 291015, Note_on_c, 0, 60, 0
2, 291019, Note_on_c, 0, 74, 0
2, 291144, Note_on_c, 0, 56, 56
2, 291161, Note_on_c, 0, 79, 89
2, 291183, Note_on_c, 0, 76, 0
2, 291189, Note_on_c, 0, 67, 0
2, 291291, Note_on_c, 0, 58, 0
2, 291406, Note_on_c, 0, 56, 0
2, 291423, Note_on_c, 0, 55, 53
2, 291440, Note_on_c, 0, 79, 0
2, 291460, Note_on_c, 0, 70, 76
2, 291679, Note_on_c, 0, 55, 0
2, 291949, Note_on_c, 0, 55, 38
2, 291956, Note_on_c, 0, 61, 59
2, 292167, Note_on_c, 0, 53, 39
2, 292209, Note_on_c, 0, 55, 0
2, 292284, Note_on_c, 0, 61, 0
2, 292356, Note_on_c, 0, 60, 48
2, 292373, Note_on_c, 0, 52, 40
2, 292401, Note_on_c, 0, 53, 0
2, 292668, Note_on_c, 0, 52, 0
2, 292841, Note_on_c, 0, 60, 0
2, 292848, Note_on_c, 0, 67, 43
2, 292856, Note_on_c, 0, 52, 42
2, 292994, Note_on_c, 0, 52, 0
2, 293044, Note_on_c, 0, 65, 49
2, 293048, Note_on_c, 0, 50, 40
2, 293102, Note_on_c, 0, 67, 0
2, 293225, Note_on_c, 0, 50, 0
2, 293278, Note_on_c, 0, 48, 36
2, 293285, Note_on_c, 0, 64, 51
2, 293291, Note_on_c, 0, 65, 0
2, 293549, Note_on_c, 0, 64, 0
2, 293648, Note_on_c, 0, 48, 0
2, 293702, Note_on_c, 0, 50, 43
2, 293710, Note_on_c, 0, 65, 57
2, 293902, Note_on_c, 0, 52, 51
2, 293903, Note_on_c, 0, 67, 59
2, 293906, Note_on_c, 0, 50, 0
2, 293918, Note_on_c, 0, 65, 0
2, 294125, Note_on_c, 0, 53, 61
2, 294136, Note_on_c, 0, 67, 0
2, 294139, Note_on_c, 0, 60, 67
2, 294170, Control_c, 0, 64, 22
2, 294188, Control_c, 0, 64, 51
2, 294208, Control_c, 0, 64, 61
2, 294212, Note_on_c, 0, 52, 0
2, 294227, Control_c, 0, 64, 65
2, 294246, Control_c, 0, 64, 68
2, 294265, Control_c, 0, 64, 76
2, 294285, Control_c, 0, 64, 89
2, 294295, Note_on_c, 0, 53, 0
2, 294296, Note_on_c, 0, 70, 0
2, 294304, Control_c, 0, 64, 104
2, 294316, Note_on_c, 0, 55, 76
2, 294323, Control_c, 0, 64, 127
2, 294446, Note_on_c, 0, 60, 0
2, 294496, Control_c, 0, 64, 105
2, 294516, Control_c, 0, 64, 77
2, 294527, Note_on_c, 0, 56, 73
2, 294534, Control_c, 0, 64, 50
2, 294540, Note_on_c, 0, 68, 84
2, 294545, Note_on_c, 0, 65, 73
2, 294554, Control_c, 0, 64, 0
2, 294559, Note_on_c, 0, 55, 0
2, 294592, Control_c, 0, 64, 45
2, 294611, Control_c, 0, 64, 64
2, 294630, Control_c, 0, 64, 72
2, 294650, Control_c, 0, 64, 87
2, 294668, Control_c, 0, 64, 127
2, 294740, Note_on_c, 0, 58, 78
2, 294744, Note_on_c, 0, 56, 0
2, 294779, Note_on_c, 0, 58, 0
2, 294806, Note_on_c, 0, 68, 0
2, 295123, Note_on_c, 0, 60, 75
2, 295128, Note_on_c, 0, 67, 65
2, 295129, Note_on_c, 0, 48, 70
2, 295134, Control_c, 0, 64, 118
2, 295154, Control_c, 0, 64, 107
2, 295159, Note_on_c, 0, 65, 0
2, 295173, Control_c, 0, 64, 98
2, 295192, Control_c, 0, 64, 87
2, 295207, Control_c, 0, 64, 76
2, 295226, Control_c, 0, 64, 63
2, 295246, Control_c, 0, 64, 0
2, 295438, Control_c, 0, 64, 27
2, 295457, Control_c, 0, 64, 49
2, 295476, Control_c, 0, 64, 61
2, 295495, Control_c, 0, 64, 67
2, 295515, Control_c, 0, 64, 72
2, 295517, Note_on_c, 0, 60, 0
2, 295534, Control_c, 0, 64, 80
2, 295553, Control_c, 0, 64, 93
2, 295572, Control_c, 0, 64, 117
2, 295592, Control_c, 0, 64, 127
2, 295596, Note_on_c, 0, 64, 68
2, 296020, Note_on_c, 0, 49, 84
2, 296033, Control_c, 0, 64, 113
2, 296034, Note_on_c, 0, 65, 60
2, 296052, Control_c, 0, 64, 104
2, 296065, Note_on_c, 0, 48, 0
2, 296072, Control_c, 0, 64, 96
2, 296073, Note_on_c, 0, 64, 0
2, 296090, Control_c, 0, 64, 89
2, 296109, Control_c, 0, 64, 79
2, 296129, Control_c, 0, 64, 69
2, 296148, Control_c, 0, 64, 58
2, 296166, Note_on_c, 0, 67, 0
2, 296167, Control_c, 0, 64, 0
2, 296260, Note_on_c, 0, 64, 57
2, 296266, Note_on_c, 0, 65, 0
2, 296473, Note_on_c, 0, 58, 60
2, 296478, Note_on_c, 0, 65, 53
2, 296677, Note_on_c, 0, 67, 62
2, 296879, Note_on_c, 0, 48, 73
2, 296893, Note_on_c, 0, 65, 0
2, 296902, Note_on_c, 0, 68, 67
2, 296909, Note_on_c, 0, 58, 0
2, 296928, Note_on_c, 0, 49, 0
2, 296929, Note_on_c, 0, 67, 0
2, 296935, Control_c, 0, 64, 9
2, 296955, Control_c, 0, 64, 11
2, 297044, Note_on_c, 0, 64, 0
2, 297104, Note_on_c, 0, 67, 57
2, 297108, Control_c, 0, 64, 13
2, 297166, Control_c, 0, 64, 15
2, 297313, Note_on_c, 0, 56, 62
2, 297318, Note_on_c, 0, 67, 0
2, 297326, Note_on_c, 0, 65, 54
2, 297527, Note_on_c, 0, 63, 61
2, 297528, Note_on_c, 0, 65, 0
2, 297739, Note_on_c, 0, 47, 76
2, 297747, Note_on_c, 0, 62, 63
2, 297756, Note_on_c, 0, 56, 0
2, 297762, Note_on_c, 0, 48, 0
2, 297765, Note_on_c, 0, 63, 0
2, 297818, Control_c, 0, 64, 11
2, 297838, Control_c, 0, 64, 0
2, 297964, Note_on_c, 0, 65, 63
2, 297973, Note_on_c, 0, 68, 0
2, 298162, Note_on_c, 0, 55, 65
2, 298164, Note_on_c, 0, 47, 0
2, 298176, Note_on_c, 0, 67, 72
2, 298228, Note_on_c, 0, 65, 0
2, 298365, Note_on_c, 0, 53, 69
2, 298371, Note_on_c, 0, 68, 77
2, 298378, Note_on_c, 0, 55, 0
2, 298423, Note_on_c, 0, 67, 0
2, 298577, Note_on_c, 0, 52, 54
2, 298580, Note_on_c, 0, 53, 0
2, 298584, Note_on_c, 0, 55, 53
2, 298591, Note_on_c, 0, 70, 80
2, 298635, Note_on_c, 0, 62, 0
2, 298635, Note_on_c, 0, 68, 0
2, 298786, Note_on_c, 0, 55, 0
2, 298820, Note_on_c, 0, 58, 61
2, 299016, Note_on_c, 0, 58, 0
2, 299021, Note_on_c, 0, 56, 60
2, 299025, Note_on_c, 0, 61, 72
2, 299028, Control_c, 0, 64, 15
2, 299047, Control_c, 0, 64, 24
2, 299066, Control_c, 0, 64, 28
2, 299086, Control_c, 0, 64, 30
2, 299105, Control_c, 0, 64, 31
2, 299124, Control_c, 0, 64, 32
2, 299163, Control_c, 0, 64, 32
2, 299229, Note_on_c, 0, 55, 62
2, 299300, Note_on_c, 0, 56, 0
2, 299324, Note_on_c, 0, 70, 0
2, 299445, Note_on_c, 0, 53, 76
2, 299469, Control_c, 0, 64, 32
2, 299476, Note_on_c, 0, 52, 0
2, 299495, Note_on_c, 0, 55, 0
2, 299502, Note_on_c, 0, 61, 0
2, 299508, Control_c, 0, 64, 31
2, 299641, Note_on_c, 0, 68, 86
2, 299681, Control_c, 0, 64, 29
2, 299700, Control_c, 0, 64, 13
2, 299720, Control_c, 0, 64, 0
2, 299841, Note_on_c, 0, 55, 68
2, 299858, Note_on_c, 0, 60, 66
2, 299874, Note_on_c, 0, 70, 79
2, 299892, Control_c, 0, 64, 29
2, 299914, Control_c, 0, 64, 57
2, 299919, Note_on_c, 0, 68, 0
2, 299933, Control_c, 0, 64, 64
2, 299952, Control_c, 0, 64, 67
2, 299954, Note_on_c, 0, 60, 0
2, 299972, Control_c, 0, 64, 70
2, 299991, Control_c, 0, 64, 73
2, 300010, Control_c, 0, 64, 77
2, 300029, Control_c, 0, 64, 82
2, 300047, Note_on_c, 0, 56, 74
2, 300049, Control_c, 0, 64, 85
2, 300053, Note_on_c, 0, 55, 0
2, 300057, Note_on_c, 0, 70, 0
2, 300063, Note_on_c, 0, 72, 82
2, 300068, Control_c, 0, 64, 86
2, 300077, Note_on_c, 0, 53, 0
2, 300087, Control_c, 0, 64, 87
2, 300105, Note_on_c, 0, 56, 0
2, 300106, Control_c, 0, 64, 88
2, 300126, Control_c, 0, 64, 88
2, 300227, Control_c, 0, 64, 88
2, 300246, Control_c, 0, 64, 87
2, 300265, Control_c, 0, 64, 86
2, 300271, Note_on_c, 0, 46, 67
2, 300274, Note_on_c, 0, 58, 71
2, 300284, Control_c, 0, 64, 84
2, 300303, Control_c, 0, 64, 82
2, 300307, Note_on_c, 0, 73, 88
2, 300323, Control_c, 0, 64, 80
2, 300342, Control_c, 0, 64, 78
2, 300343, Note_on_c, 0, 72, 0
2, 300361, Control_c, 0, 64, 75
2, 300380, Control_c, 0, 64, 71
2, 300400, Control_c, 0, 64, 67
2, 300418, Control_c, 0, 64, 63
2, 300438, Control_c, 0, 64, 54
2, 300457, Control_c, 0, 64, 33
2, 300477, Control_c, 0, 64, 0
2, 300524, Note_on_c, 0, 53, 68
2, 300550, Note_on_c, 0, 58, 0
2, 300707, Control_c, 0, 64, 26
2, 300717, Note_on_c, 0, 66, 84
2, 300723, Note_on_c, 0, 51, 63
2, 300726, Control_c, 0, 64, 50
2, 300745, Control_c, 0, 64, 61
2, 300752, Note_on_c, 0, 53, 0
2, 300765, Control_c, 0, 64, 65
2, 300782, Note_on_c, 0, 46, 0
2, 300784, Control_c, 0, 64, 68
2, 300787, Note_on_c, 0, 73, 0
2, 300804, Control_c, 0, 64, 73
2, 300823, Control_c, 0, 64, 81
2, 300842, Control_c, 0, 64, 92
2, 300861, Control_c, 0, 64, 106
2, 300881, Control_c, 0, 64, 127
2, 300909, Note_on_c, 0, 49, 72
2, 300928, Note_on_c, 0, 51, 0
2, 300987, Note_on_c, 0, 49, 0
2, 301116, Note_on_c, 0, 66, 0
2, 301135, Note_on_c, 0, 45, 78
2, 301141, Note_on_c, 0, 48, 77
2, 301149, Control_c, 0, 64, 118
2, 301168, Control_c, 0, 64, 99
2, 301187, Control_c, 0, 64, 86
2, 301206, Control_c, 0, 64, 74
2, 301225, Control_c, 0, 64, 63
2, 301244, Control_c, 0, 64, 22
2, 301263, Control_c, 0, 64, 0
2, 301347, Note_on_c, 0, 72, 90
2, 301491, Control_c, 0, 64, 29
2, 301511, Control_c, 0, 64, 53
2, 301529, Control_c, 0, 64, 59
2, 301549, Control_c, 0, 64, 63
2, 301552, Note_on_c, 0, 74, 82
2, 301554, Note_on_c, 0, 65, 67
2, 301564, Note_on_c, 0, 45, 0
2, 301568, Control_c, 0, 64, 66
2, 301587, Control_c, 0, 64, 70
2, 301593, Note_on_c, 0, 72, 0
2, 301606, Control_c, 0, 64, 76
2, 301626, Control_c, 0, 64, 86
2, 301645, Control_c, 0, 64, 99
2, 301664, Control_c, 0, 64, 113
2, 301683, Control_c, 0, 64, 127
2, 301751, Note_on_c, 0, 76, 87
2, 301814, Note_on_c, 0, 74, 0
2, 301951, Control_c, 0, 64, 119
2, 301970, Control_c, 0, 64, 93
2, 301990, Control_c, 0, 64, 75
2, 301991, Note_on_c, 0, 44, 68
2, 301993, Note_on_c, 0, 77, 87
2, 302008, Control_c, 0, 64, 60
2, 302024, Note_on_c, 0, 76, 0
2, 302028, Control_c, 0, 64, 0
2, 302036, Note_on_c, 0, 48, 0
2, 302037, Note_on_c, 0, 65, 0
2, 302182, Control_c, 0, 64, 40
2, 302201, Control_c, 0, 64, 59
2, 302201, Note_on_c, 0, 65, 72
2, 302207, Note_on_c, 0, 50, 68
2, 302220, Control_c, 0, 64, 64
2, 302239, Control_c, 0, 64, 68
2, 302259, Control_c, 0, 64, 72
2, 302277, Control_c, 0, 64, 75
2, 302293, Note_on_c, 0, 65, 0
2, 302297, Control_c, 0, 64, 72
2, 302316, Control_c, 0, 64, 66
2, 302336, Control_c, 0, 64, 59
2, 302354, Control_c, 0, 64, 46
2, 302373, Control_c, 0, 64, 56
2, 302393, Control_c, 0, 64, 64
2, 302407, Note_on_c, 0, 44, 0
2, 302407, Note_on_c, 0, 50, 0
2, 302411, Control_c, 0, 64, 71
2, 302414, Note_on_c, 0, 52, 79
2, 302420, Note_on_c, 0, 67, 74
2, 302431, Control_c, 0, 64, 98
2, 302450, Control_c, 0, 64, 127
2, 302601, Note_on_c, 0, 53, 78
2, 302609, Note_on_c, 0, 68, 84
2, 302621, Note_on_c, 0, 67, 0
2, 302622, Note_on_c, 0, 52, 0
2, 302659, Note_on_c, 0, 53, 0
2, 302670, Note_on_c, 0, 68, 0
2, 302883, Note_on_c, 0, 70, 82
2, 302886, Note_on_c, 0, 55, 74
2, 302893, Note_on_c, 0, 43, 72
2, 302930, Control_c, 0, 64, 98
2, 302950, Control_c, 0, 64, 76
2, 302968, Control_c, 0, 64, 61
2, 302988, Control_c, 0, 64, 0
2, 303273, Control_c, 0, 64, 57
2, 303293, Control_c, 0, 64, 52
2, 303311, Control_c, 0, 64, 50
2, 303331, Control_c, 0, 64, 51
2, 303350, Control_c, 0, 64, 53
2, 303356, Note_on_c, 0, 77, 0
2, 303359, Note_on_c, 0, 76, 79
2, 303369, Control_c, 0, 64, 53
2, 303427, Control_c, 0, 64, 54
2, 303446, Control_c, 0, 64, 54
2, 303465, Control_c, 0, 64, 55
2, 303485, Control_c, 0, 64, 56
2, 303503, Control_c, 0, 64, 56
2, 303561, Control_c, 0, 64, 56
2, 303585, Note_on_c, 0, 74, 77
2, 303619, Control_c, 0, 64, 55
2, 303630, Note_on_c, 0, 76, 0
2, 303657, Control_c, 0, 64, 56
2, 303696, Control_c, 0, 64, 56
2, 303819, Note_on_c, 0, 76, 82
2, 303830, Control_c, 0, 64, 56
2, 303858, Note_on_c, 0, 74, 0
2, 303887, Control_c, 0, 64, 56
2, 303944, Control_c, 0, 64, 56
2, 303963, Control_c, 0, 64, 55
2, 303983, Control_c, 0, 64, 54
2, 304001, Control_c, 0, 64, 53
2, 304021, Control_c, 0, 64, 51
2, 304036, Note_on_c, 0, 45, 71
2, 304040, Control_c, 0, 64, 49
2, 304048, Note_on_c, 0, 55, 0
2, 304059, Control_c, 0, 64, 47
2, 304078, Control_c, 0, 64, 43
2, 304098, Control_c, 0, 64, 24
2, 304117, Control_c, 0, 64, 0
2, 304265, Note_on_c, 0, 46, 74
2, 304298, Note_on_c, 0, 45, 0
2, 304347, Control_c, 0, 64, 25
2, 304367, Control_c, 0, 64, 33
2, 304386, Control_c, 0, 64, 42
2, 304405, Control_c, 0, 64, 49
2, 304424, Control_c, 0, 64, 52
2, 304443, Control_c, 0, 64, 52
2, 304449, Note_on_c, 0, 43, 0
2, 304463, Control_c, 0, 64, 53
2, 304481, Control_c, 0, 64, 54
2, 304495, Note_on_c, 0, 48, 81
2, 304501, Control_c, 0, 64, 55
2, 304506, Note_on_c, 0, 46, 0
2, 304537, Note_on_c, 0, 70, 0
2, 304539, Control_c, 0, 64, 55
2, 304713, Control_c, 0, 64, 56
2, 304751, Control_c, 0, 64, 57
2, 304782, Note_on_c, 0, 49, 74
2, 304794, Note_on_c, 0, 41, 67
2, 304828, Control_c, 0, 64, 56
2, 304863, Note_on_c, 0, 48, 0
2, 304867, Control_c, 0, 64, 55
2, 304886, Control_c, 0, 64, 55
2, 304890, Note_on_c, 0, 77, 87
2, 304905, Control_c, 0, 64, 53
2, 304925, Control_c, 0, 64, 49
2, 304943, Control_c, 0, 64, 44
2, 304943, Note_on_c, 0, 76, 0
2, 304962, Control_c, 0, 64, 36
2, 304982, Control_c, 0, 64, 0
2, 305191, Note_on_c, 0, 49, 0
2, 305194, Note_on_c, 0, 48, 66
2, 305198, Note_on_c, 0, 73, 80
2, 305425, Note_on_c, 0, 48, 0
2, 305427, Note_on_c, 0, 72, 79
2, 305427, Note_on_c, 0, 73, 0
2, 305432, Note_on_c, 0, 49, 74
2, 305442, Control_c, 0, 64, 27
2, 305462, Control_c, 0, 64, 56
2, 305481, Control_c, 0, 64, 64
2, 305500, Control_c, 0, 64, 67
2, 305519, Control_c, 0, 64, 72
2, 305539, Control_c, 0, 64, 79
2, 305558, Control_c, 0, 64, 88
2, 305577, Control_c, 0, 64, 99
2, 305596, Control_c, 0, 64, 109
2, 305616, Control_c, 0, 64, 117
2, 305628, Note_on_c, 0, 51, 76
2, 305633, Note_on_c, 0, 70, 81
2, 305634, Control_c, 0, 64, 119
2, 305648, Note_on_c, 0, 77, 0
2, 305654, Control_c, 0, 64, 121
2, 305662, Note_on_c, 0, 72, 0
2, 305673, Control_c, 0, 64, 123
2, 305725, Note_on_c, 0, 51, 0
2, 305769, Control_c, 0, 64, 118
2, 305775, Note_on_c, 0, 41, 0
2, 305787, Control_c, 0, 64, 111
2, 305807, Control_c, 0, 64, 105
2, 305826, Control_c, 0, 64, 99
2, 305828, Note_on_c, 0, 49, 0
2, 305832, Note_on_c, 0, 70, 0
2, 305843, Note_on_c, 0, 69, 81
2, 305845, Control_c, 0, 64, 95
2, 305850, Note_on_c, 0, 53, 78
2, 305864, Control_c, 0, 64, 91
2, 305883, Control_c, 0, 64, 88
2, 305903, Control_c, 0, 64, 84
2, 305921, Control_c, 0, 64, 81
2, 305941, Control_c, 0, 64, 77
2, 305960, Control_c, 0, 64, 69
2, 305979, Control_c, 0, 64, 60
2, 305998, Control_c, 0, 64, 0
2, 306058, Note_on_c, 0, 75, 86
2, 306059, Note_on_c, 0, 41, 73
2, 306280, Note_on_c, 0, 43, 64
2, 306286, Note_on_c, 0, 73, 78
2, 306314, Note_on_c, 0, 41, 0
2, 306324, Note_on_c, 0, 75, 0
2, 306363, Control_c, 0, 64, 68
2, 306383, Control_c, 0, 64, 72
2, 306401, Control_c, 0, 64, 76
2, 306421, Control_c, 0, 64, 80
2, 306440, Control_c, 0, 64, 90
2, 306459, Control_c, 0, 64, 127
2, 306472, Note_on_c, 0, 45, 65
2, 306482, Note_on_c, 0, 43, 0
2, 306486, Note_on_c, 0, 72, 81
2, 306494, Note_on_c, 0, 53, 0
2, 306514, Note_on_c, 0, 45, 0
2, 306522, Note_on_c, 0, 73, 0
2, 306555, Note_on_c, 0, 72, 0
2, 306704, Note_on_c, 0, 46, 70
2, 306781, Note_on_c, 0, 73, 83
2, 306808, Note_on_c, 0, 69, 0
2, 306864, Control_c, 0, 64, 97
2, 306883, Control_c, 0, 64, 80
2, 306903, Control_c, 0, 64, 67
2, 306922, Control_c, 0, 64, 38
2, 306941, Control_c, 0, 64, 0
2, 307019, Note_on_c, 0, 72, 76
2, 307023, Note_on_c, 0, 53, 63
2, 307197, Note_on_c, 0, 53, 0
2, 307235, Note_on_c, 0, 55, 62
2, 307243, Note_on_c, 0, 70, 80
2, 307249, Control_c, 0, 64, 65
2, 307268, Control_c, 0, 64, 67
2, 307287, Control_c, 0, 64, 68
2, 307306, Control_c, 0, 64, 70
2, 307326, Control_c, 0, 64, 74
2, 307344, Control_c, 0, 64, 82
2, 307363, Control_c, 0, 64, 90
2, 307378, Note_on_c, 0, 73, 0
2, 307383, Control_c, 0, 64, 97
2, 307402, Control_c, 0, 64, 102
2, 307421, Control_c, 0, 64, 104
2, 307440, Control_c, 0, 64, 105
2, 307448, Note_on_c, 0, 56, 72
2, 307450, Note_on_c, 0, 68, 72
2, 307460, Control_c, 0, 64, 109
2, 307461, Note_on_c, 0, 55, 0
2, 307478, Control_c, 0, 64, 117
2, 307495, Note_on_c, 0, 72, 0
2, 307498, Control_c, 0, 64, 127
2, 307507, Note_on_c, 0, 56, 0
2, 307594, Control_c, 0, 64, 119
2, 307613, Control_c, 0, 64, 110
2, 307630, Note_on_c, 0, 70, 0
2, 307632, Control_c, 0, 64, 104
2, 307652, Control_c, 0, 64, 100
2, 307671, Control_c, 0, 64, 98
2, 307673, Note_on_c, 0, 68, 0
2, 307690, Control_c, 0, 64, 96
2, 307695, Note_on_c, 0, 58, 67
2, 307697, Note_on_c, 0, 67, 77
2, 307709, Control_c, 0, 64, 94
2, 307729, Control_c, 0, 64, 93
2, 307748, Control_c, 0, 64, 90
2, 307767, Control_c, 0, 64, 89
2, 307786, Control_c, 0, 64, 87
2, 307806, Control_c, 0, 64, 84
2, 307824, Control_c, 0, 64, 80
2, 307843, Control_c, 0, 64, 72
2, 307863, Control_c, 0, 64, 64
2, 307882, Control_c, 0, 64, 31
2, 307901, Control_c, 0, 64, 0
2, 307949, Note_on_c, 0, 49, 69
2, 307951, Note_on_c, 0, 70, 81
2, 307953, Note_on_c, 0, 67, 0
2, 307957, Note_on_c, 0, 65, 70
2, 308002, Note_on_c, 0, 46, 0
2, 308211, Note_on_c, 0, 48, 58
2, 308221, Note_on_c, 0, 65, 0
2, 308223, Note_on_c, 0, 72, 81
2, 308235, Note_on_c, 0, 49, 0
2, 308235, Note_on_c, 0, 63, 78
2, 308286, Control_c, 0, 64, 53
2, 308304, Control_c, 0, 64, 58
2, 308323, Control_c, 0, 64, 62
2, 308343, Control_c, 0, 64, 65
2, 308362, Control_c, 0, 64, 69
2, 308381, Control_c, 0, 64, 78
2, 308394, Note_on_c, 0, 63, 0
2, 308400, Control_c, 0, 64, 96
2, 308407, Note_on_c, 0, 72, 0
2, 308420, Control_c, 0, 64, 127
2, 308442, Note_on_c, 0, 70, 0
2, 308500, Note_on_c, 0, 46, 65
2, 308511, Note_on_c, 0, 48, 0
2, 308567, Note_on_c, 0, 73, 84
2, 308576, Control_c, 0, 64, 81
2, 308581, Note_on_c, 0, 61, 72
2, 308595, Control_c, 0, 64, 62
2, 308615, Control_c, 0, 64, 0
2, 308649, Control_c, 0, 64, 51
2, 308667, Control_c, 0, 64, 64
2, 308687, Control_c, 0, 64, 74
2, 308706, Control_c, 0, 64, 116
2, 308724, Control_c, 0, 64, 127
2, 308738, Note_on_c, 0, 46, 0
2, 308798, Note_on_c, 0, 73, 0
2, 308811, Note_on_c, 0, 61, 0
2, 308901, Note_on_c, 0, 48, 74
2, 308936, Control_c, 0, 64, 85
2, 308955, Control_c, 0, 64, 63
2, 308975, Control_c, 0, 64, 0
2, 308979, Note_on_c, 0, 58, 0
2, 308985, Note_on_c, 0, 64, 79
2, 308988, Note_on_c, 0, 60, 68
2, 309147, Control_c, 0, 64, 50
2, 309167, Control_c, 0, 64, 63
2, 309186, Control_c, 0, 64, 66
2, 309204, Control_c, 0, 64, 68
2, 309224, Control_c, 0, 64, 73
2, 309243, Control_c, 0, 64, 79
2, 309251, Note_on_c, 0, 64, 0
2, 309263, Control_c, 0, 64, 86
2, 309281, Control_c, 0, 64, 89
2, 309294, Note_on_c, 0, 58, 73
2, 309320, Control_c, 0, 64, 88
2, 309339, Control_c, 0, 64, 88
2, 309378, Control_c, 0, 64, 87
2, 309397, Control_c, 0, 64, 86
2, 309416, Control_c, 0, 64, 85
2, 309435, Control_c, 0, 64, 84
2, 309455, Control_c, 0, 64, 82
2, 309473, Control_c, 0, 64, 80
2, 309493, Control_c, 0, 64, 78
2, 309512, Control_c, 0, 64, 76
2, 309532, Control_c, 0, 64, 75
2, 309543, Note_on_c, 0, 56, 61
2, 309550, Control_c, 0, 64, 74
2, 309557, Note_on_c, 0, 72, 88
2, 309570, Control_c, 0, 64, 71
2, 309579, Note_on_c, 0, 58, 0
2, 309589, Control_c, 0, 64, 67
2, 309609, Control_c, 0, 64, 63
2, 309627, Control_c, 0, 64, 57
2, 309647, Control_c, 0, 64, 50
2, 309666, Control_c, 0, 64, 46
2, 309684, Control_c, 0, 64, 34
2, 309704, Control_c, 0, 64, 0
2, 309803, Note_on_c, 0, 55, 71
2, 309820, Note_on_c, 0, 56, 0
2, 310038, Note_on_c, 0, 56, 77
2, 310101, Note_on_c, 0, 55, 0
2, 310295, Note_on_c, 0, 72, 0
2, 310303, Note_on_c, 0, 67, 75
2, 310567, Note_on_c, 0, 68, 81
2, 310622, Note_on_c, 0, 67, 0
2, 310884, Note_on_c, 0, 65, 75
2, 310907, Note_on_c, 0, 68, 0
2, 311046, Note_on_c, 0, 56, 0
2, 311196, Note_on_c, 0, 56, 74
2, 311429, Note_on_c, 0, 55, 66
2, 311440, Note_on_c, 0, 65, 0
2, 311444, Note_on_c, 0, 56, 0
2, 311640, Note_on_c, 0, 65, 76
2, 311652, Note_on_c, 0, 56, 63
2, 311670, Note_on_c, 0, 55, 0
2, 311795, Note_on_c, 0, 56, 0
2, 311824, Note_on_c, 0, 55, 58
2, 311931, Note_on_c, 0, 55, 0
2, 311934, Note_on_c, 0, 64, 79
2, 311943, Note_on_c, 0, 56, 63
2, 311989, Note_on_c, 0, 65, 0
2, 312050, Note_on_c, 0, 56, 0
2, 312073, Note_on_c, 0, 55, 65
2, 312189, Note_on_c, 0, 55, 0
2, 312193, Note_on_c, 0, 56, 67
2, 312196, Note_on_c, 0, 62, 76
2, 312230, Note_on_c, 0, 64, 0
2, 312345, Note_on_c, 0, 56, 0
2, 312350, Note_on_c, 0, 55, 67
2, 312573, Note_on_c, 0, 56, 65
2, 312632, Note_on_c, 0, 55, 0
2, 312668, Note_on_c, 0, 65, 73
2, 312672, Note_on_c, 0, 62, 0
2, 312920, Note_on_c, 0, 56, 0
2, 312927, Note_on_c, 0, 55, 54
2, 312950, Note_on_c, 0, 64, 75
2, 312961, Note_on_c, 0, 65, 0
2, 313088, Note_on_c, 0, 56, 59
2, 313094, Note_on_c, 0, 55, 0
2, 313103, Note_on_c, 0, 65, 72
2, 313104, Note_on_c, 0, 64, 0
2, 313196, Note_on_c, 0, 56, 0
2, 313217, Note_on_c, 0, 55, 58
2, 313229, Note_on_c, 0, 65, 0
2, 313230, Note_on_c, 0, 64, 76
2, 313307, Note_on_c, 0, 55, 0
2, 313316, Note_on_c, 0, 56, 61
2, 313323, Note_on_c, 0, 64, 0
2, 313335, Note_on_c, 0, 65, 71
2, 313387, Note_on_c, 0, 56, 0
2, 313424, Note_on_c, 0, 55, 57
2, 313433, Note_on_c, 0, 65, 0
2, 313436, Note_on_c, 0, 64, 73
2, 313494, Note_on_c, 0, 55, 0
2, 313513, Note_on_c, 0, 64, 0
2, 313514, Note_on_c, 0, 65, 64
2, 313515, Note_on_c, 0, 56, 62
2, 313569, Note_on_c, 0, 56, 0
2, 313607, Note_on_c, 0, 55, 62
2, 313608, Note_on_c, 0, 64, 71
2, 313608, Note_on_c, 0, 65, 0
2, 313665, Note_on_c, 0, 55, 0
2, 313671, Note_on_c, 0, 56, 67
2, 313684, Note_on_c, 0, 64, 0
2, 313685, Note_on_c, 0, 65, 65
2, 313720, Note_on_c, 0, 56, 0
2, 313759, Note_on_c, 0, 55, 68
2, 313769, Note_on_c, 0, 64, 69
2, 313776, Note_on_c, 0, 65, 0
2, 313830, Note_on_c, 0, 55, 0
2, 313840, Note_on_c, 0, 56, 73
2, 313857, Note_on_c, 0, 64, 0
2, 313859, Note_on_c, 0, 65, 65
2, 313898, Note_on_c, 0, 56, 0
2, 313935, Note_on_c, 0, 55, 67
2, 313942, Note_on_c, 0, 64, 72
2, 313976, Note_on_c, 0, 65, 0
2, 314011, Note_on_c, 0, 48, 0
2, 314175, Note_on_c, 0, 53, 61
2, 314178, Note_on_c, 0, 62, 79
2, 314186, Note_on_c, 0, 55, 0
2, 314218, Note_on_c, 0, 64, 0
2, 314653, Note_on_c, 0, 53, 0
2, 314665, Note_on_c, 0, 55, 56
2, 314667, Note_on_c, 0, 64, 79
2, 314688, Note_on_c, 0, 62, 0
2, 314776, Control_c, 0, 64, 48
2, 314796, Control_c, 0, 64, 61
2, 314815, Control_c, 0, 64, 63
2, 314831, Note_on_c, 0, 60, 0
2, 314834, Control_c, 0, 64, 68
2, 314853, Control_c, 0, 64, 79
2, 314861, Note_on_c, 0, 55, 0
2, 314873, Control_c, 0, 64, 108
2, 314891, Control_c, 0, 64, 127
2, 315596, Note_on_c, 0, 53, 46
2, 315596, Note_on_c, 0, 65, 70
2, 315604, Note_on_c, 0, 41, 40
2, 315626, Note_on_c, 0, 57, 40
2, 315626, Note_on_c, 0, 60, 51
2, 315671, Note_on_c, 0, 64, 0
2, 315680, Control_c, 0, 64, 100
2, 315700, Control_c, 0, 64, 80
2, 315718, Control_c, 0, 64, 64
2, 315737, Control_c, 0, 64, 29
2, 315757, Control_c, 0, 64, 0
2, 316390, Control_c, 0, 64, 21
2, 316408, Control_c, 0, 64, 40
2, 316428, Control_c, 0, 64, 53
2, 316447, Control_c, 0, 64, 57
2, 316466, Control_c, 0, 64, 59
2, 316485, Control_c, 0, 64, 61
2, 316505, Control_c, 0, 64, 62
2, 316524, Control_c, 0, 64, 64
2, 316543, Control_c, 0, 64, 66
2, 316562, Control_c, 0, 64, 70
2, 316582, Control_c, 0, 64, 75
2, 316601, Control_c, 0, 64, 83
2, 316620, Control_c, 0, 64, 92
2, 316639, Control_c, 0, 64, 99
2, 316659, Control_c, 0, 64, 105
2, 316677, Control_c, 0, 64, 110
2, 316696, Control_c, 0, 64, 121
2, 316716, Control_c, 0, 64, 127
2, 317265, Note_on_c, 0, 53, 0
2, 317266, Note_on_c, 0, 57, 0
2, 317761, Note_on_c, 0, 41, 0
2, 318049, Note_on_c, 0, 65, 0
2, 318194, Control_c, 0, 64, 121
2, 318213, Control_c, 0, 64, 118
2, 318233, Control_c, 0, 64, 115
2, 318251, Control_c, 0, 64, 112
2, 318270, Control_c, 0, 64, 111
2, 318289, Control_c, 0, 64, 110
2, 318309, Control_c, 0, 64, 109
2, 318327, Control_c, 0, 64, 107
2, 318333, Note_on_c, 0, 60, 0
2, 318347, Control_c, 0, 64, 106
2, 318366, Control_c, 0, 64, 105
2, 318386, Control_c, 0, 64, 104
2, 318404, Control_c, 0, 64, 103
2, 318424, Control_c, 0, 64, 102
2, 318462, Control_c, 0, 64, 102
2, 318481, Control_c, 0, 64, 101
2, 318501, Control_c, 0, 64, 101
2, 318520, Control_c, 0, 64, 100
2, 318539, Control_c, 0, 64, 99
2, 318558, Control_c, 0, 64, 98
2, 318577, Control_c, 0, 64, 96
2, 318596, Control_c, 0, 64, 95
2, 318615, Control_c, 0, 64, 94
2, 318635, Control_c, 0, 64, 94
2, 318654, Control_c, 0, 64, 93
2, 318673, Control_c, 0, 64, 90
2, 318692, Control_c, 0, 64, 87
2, 318712, Control_c, 0, 64, 83
2, 318731, Control_c, 0, 64, 80
2, 318750, Control_c, 0, 64, 78
2, 318827, Control_c, 0, 64, 78
2, 318884, Control_c, 0, 64, 77
2, 318904, Control_c, 0, 64, 77
2, 318961, Control_c, 0, 64, 76
2, 318981, Control_c, 0, 64, 76
2, 319001, Control_c, 0, 64, 74
2, 319020, Control_c, 0, 64, 71
2, 319039, Control_c, 0, 64, 68
2, 319059, Control_c, 0, 64, 66
2, 319135, Control_c, 0, 64, 66
2, 319173, Control_c, 0, 64, 65
2, 319193, Control_c, 0, 64, 64
2, 319210, Control_c, 0, 64, 63
2, 319229, Control_c, 0, 64, 62
2, 319248, Control_c, 0, 64, 61
2, 319286, Control_c, 0, 64, 61
2, 319306, Control_c, 0, 64, 60
2, 319325, Control_c, 0, 64, 59
2, 319345, Control_c, 0, 64, 57
2, 319363, Control_c, 0, 64, 53
2, 319383, Control_c, 0, 64, 47
2, 319402, Control_c, 0, 64, 40
2, 319422, Control_c, 0, 64, 33
2, 319440, Control_c, 0, 64, 27
2, 319460, Control_c, 0, 64, 26
2, 319536, Control_c, 0, 64, 23
2, 319556, Control_c, 0, 64, 18
2, 319574, Control_c, 0, 64, 0
2, 320115, Control_c, 0, 64, 9
2, 320134, Control_c, 0, 64, 11
2, 320154, Control_c, 0, 64, 13
2, 320155, End_track
0, 0, End_of_file
