0, 0, Header, 1, 2, 480
1, 0, Start_track
1, 0, Tempo, 500000
1, 0, Time_signature, 4, 2, 24, 8
1, 1, End_track
2, 0, Start_track
2, 0, Program_c, 0, 0
2, 0, Control_c, 0, 64, 69
2, 0, Control_c, 0, 67, 32
2, 23, Control_c, 0, 67, 32
2, 42, Control_c, 0, 67, 31
2, 62, Control_c, 0, 67, 31
2, 80, Control_c, 0, 64, 70
2, 80, Control_c, 0, 67, 30
2, 136, Control_c, 0, 67, 30
2, 174, Control_c, 0, 67, 29
2, 212, Control_c, 0, 67, 29
2, 251, Control_c, 0, 64, 70
2, 270, Control_c, 0, 67, 28
2, 308, Control_c, 0, 67, 28
2, 327, Control_c, 0, 64, 71
2, 365, Control_c, 0, 64, 71
2, 385, Control_c, 0, 64, 72
2, 404, Control_c, 0, 64, 74
2, 404, Control_c, 0, 67, 27
2, 423, Control_c, 0, 64, 76
2, 442, Control_c, 0, 64, 78
2, 462, Control_c, 0, 64, 80
2, 480, Control_c, 0, 64, 82
2, 500, Control_c, 0, 64, 83
2, 519, Control_c, 0, 64, 84
2, 539, Control_c, 0, 64, 84
2, 557, Control_c, 0, 64, 85
2, 634, Control_c, 0, 67, 27
2, 903, Control_c, 0, 67, 26
2, 922, Control_c, 0, 64, 84
2, 957, Note_on_c, 0, 56, 41
2, 960, Control_c, 0, 64, 84
2, 966, Note_on_c, 0, 65, 43
2, 980, Control_c, 0, 64, 83
2, 980, Control_c, 0, 67, 26
2, 987, Note_on_c, 0, 53, 33
2, 999, Control_c, 0, 64, 81
2, 1019, Control_c, 0, 64, 78
2, 1037, Control_c, 0, 64, 75
2, 1057, Control_c, 0, 64, 71
2, 1076, Control_c, 0, 64, 67
2, 1096, Control_c, 0, 64, 64
2, 1114, Control_c, 0, 64, 59
2, 1134, Control_c, 0, 64, 53
2, 1153, Control_c, 0, 64, 48
2, 1172, Control_c, 0, 64, 43
2, 1191, Control_c, 0, 64, 36
2, 1211, Control_c, 0, 64, 29
2, 1230, Control_c, 0, 64, 24
2, 1248, Control_c, 0, 64, 21
2, 1306, Control_c, 0, 64, 26
2, 1325, Control_c, 0, 64, 37
2, 1345, Control_c, 0, 64, 46
2, 1364, Control_c, 0, 64, 52
2, 1383, Control_c, 0, 64, 55
2, 1402, Control_c, 0, 64, 59
2, 1422, Control_c, 0, 64, 62
2, 1440, Control_c, 0, 64, 63
2, 1460, Control_c, 0, 64, 64
2, 1479, Control_c, 0, 64, 66
2, 1499, Control_c, 0, 64, 67
2, 1517, Control_c, 0, 64, 70
2, 1537, Control_c, 0, 64, 73
2, 1556, Control_c, 0, 64, 76
2, 1574, Note_on_c, 0, 68, 46
2, 1576, Control_c, 0, 64, 79
2, 1594, Control_c, 0, 64, 81
2, 1614, Control_c, 0, 64, 83
2, 1633, Control_c, 0, 64, 84
2, 1652, Control_c, 0, 64, 84
2, 1710, Control_c, 0, 64, 85
2, 1900, Control_c, 0, 64, 84
2, 1928, Note_on_c, 0, 72, 55
2, 1958, Control_c, 0, 67, 25
2, 1978, Note_on_c, 0, 65, 0
2, 2073, Control_c, 0, 64, 84
2, 2237, Note_on_c, 0, 77, 63
2, 2438, Control_c, 0, 64, 83
2, 2476, Control_c, 0, 64, 83
2, 2496, Control_c, 0, 64, 82
2, 2515, Control_c, 0, 64, 80
2, 2535, Control_c, 0, 64, 79
2, 2553, Control_c, 0, 64, 76
2, 2570, Note_on_c, 0, 67, 55
2, 2573, Control_c, 0, 64, 73
2, 2592, Control_c, 0, 64, 70
2, 2593, Note_on_c, 0, 58, 42
2, 2611, Control_c, 0, 64, 66
2, 2630, Control_c, 0, 64, 63
2, 2650, Control_c, 0, 64, 58
2, 2669, Control_c, 0, 64, 54
2, 2679, Note_on_c, 0, 77, 0
2, 2684, Note_on_c, 0, 72, 0
2, 2687, Control_c, 0, 64, 46
2, 2692, Note_on_c, 0, 68, 0
2, 2707, Control_c, 0, 64, 32
2, 2726, Control_c, 0, 64, 11
2, 2746, Control_c, 0, 64, 0
2, 2773, Note_on_c, 0, 56, 0
2, 2893, Note_on_c, 0, 77, 65
2, 2976, Control_c, 0, 67, 25
2, 3053, Control_c, 0, 67, 24
2, 3167, Control_c, 0, 67, 24
2, 3186, Note_on_c, 0, 76, 70
2, 3263, Note_on_c, 0, 77, 0
2, 3436, Control_c, 0, 64, 24
2, 3456, Control_c, 0, 64, 42
2, 3475, Control_c, 0, 64, 54
2, 3495, Control_c, 0, 64, 59
2, 3500, Note_on_c, 0, 79, 76
2, 3513, Control_c, 0, 64, 63
2, 3533, Control_c, 0, 64, 65
2, 3552, Control_c, 0, 64, 68
2, 3571, Control_c, 0, 64, 71
2, 3587, Note_on_c, 0, 67, 0
2, 3590, Control_c, 0, 64, 76
2, 3610, Control_c, 0, 64, 81
2, 3629, Control_c, 0, 64, 84
2, 3647, Control_c, 0, 64, 85
2, 3801, Control_c, 0, 64, 83
2, 3817, Control_c, 0, 64, 81
2, 3827, Note_on_c, 0, 60, 45
2, 3830, Note_on_c, 0, 68, 69
2, 3835, Control_c, 0, 64, 78
2, 3854, Control_c, 0, 64, 76
2, 3873, Control_c, 0, 64, 74
2, 3893, Control_c, 0, 64, 72
2, 3911, Control_c, 0, 64, 69
2, 3931, Control_c, 0, 64, 65
2, 3945, Note_on_c, 0, 58, 0
2, 3950, Control_c, 0, 64, 61
2, 3970, Control_c, 0, 64, 55
2, 3981, Note_on_c, 0, 76, 0
2, 3988, Control_c, 0, 64, 45
2, 4007, Control_c, 0, 64, 30
2, 4027, Control_c, 0, 64, 0
2, 4059, Note_on_c, 0, 79, 0
2, 4149, Note_on_c, 0, 72, 71
2, 4460, Note_on_c, 0, 77, 74
2, 4641, Control_c, 0, 64, 32
2, 4661, Control_c, 0, 64, 50
2, 4679, Control_c, 0, 64, 58
2, 4699, Control_c, 0, 64, 61
2, 4718, Control_c, 0, 64, 63
2, 4737, Control_c, 0, 64, 64
2, 4756, Control_c, 0, 64, 68
2, 4767, Note_on_c, 0, 76, 71
2, 4777, Control_c, 0, 64, 72
2, 4796, Control_c, 0, 64, 78
2, 4815, Control_c, 0, 64, 83
2, 4834, Control_c, 0, 64, 85
2, 4847, Note_on_c, 0, 77, 0
2, 4854, Control_c, 0, 64, 86
2, 4872, Control_c, 0, 64, 86
2, 4892, Control_c, 0, 64, 87
2, 4936, Note_on_c, 0, 68, 0
2, 5006, Control_c, 0, 64, 86
2, 5026, Control_c, 0, 64, 86
2, 5045, Control_c, 0, 64, 84
2, 5065, Control_c, 0, 64, 82
2, 5083, Control_c, 0, 64, 80
2, 5103, Control_c, 0, 64, 78
2, 5122, Control_c, 0, 64, 76
2, 5136, Note_on_c, 0, 77, 68
2, 5142, Control_c, 0, 64, 74
2, 5144, Note_on_c, 0, 56, 45
2, 5160, Control_c, 0, 64, 71
2, 5180, Control_c, 0, 64, 69
2, 5199, Control_c, 0, 64, 66
2, 5216, Note_on_c, 0, 72, 0
2, 5218, Control_c, 0, 64, 64
2, 5227, Note_on_c, 0, 76, 0
2, 5237, Control_c, 0, 64, 60
2, 5257, Control_c, 0, 64, 55
2, 5276, Control_c, 0, 64, 46
2, 5295, Control_c, 0, 64, 31
2, 5314, Control_c, 0, 64, 0
2, 5412, Note_on_c, 0, 60, 0
2, 5532, Note_on_c, 0, 72, 60
2, 5842, Note_on_c, 0, 70, 63
2, 5927, Control_c, 0, 64, 18
2, 5947, Control_c, 0, 64, 36
2, 5966, Control_c, 0, 64, 48
2, 5973, Note_on_c, 0, 72, 0
2, 5985, Control_c, 0, 64, 55
2, 6004, Control_c, 0, 64, 59
2, 6024, Control_c, 0, 64, 62
2, 6042, Control_c, 0, 64, 63
2, 6062, Control_c, 0, 64, 65
2, 6081, Control_c, 0, 64, 66
2, 6101, Control_c, 0, 64, 68
2, 6119, Control_c, 0, 64, 70
2, 6139, Control_c, 0, 64, 74
2, 6144, Note_on_c, 0, 68, 60
2, 6158, Control_c, 0, 64, 77
2, 6177, Control_c, 0, 64, 80
2, 6196, Control_c, 0, 64, 81
2, 6198, Note_on_c, 0, 70, 0
2, 6216, Control_c, 0, 64, 82
2, 6235, Control_c, 0, 64, 82
2, 6273, Control_c, 0, 64, 83
2, 6369, Control_c, 0, 64, 82
2, 6388, Control_c, 0, 64, 82
2, 6407, Control_c, 0, 64, 81
2, 6427, Control_c, 0, 64, 80
2, 6446, Control_c, 0, 64, 79
2, 6465, Control_c, 0, 64, 78
2, 6465, Control_c, 0, 67, 24
2, 6484, Control_c, 0, 64, 76
2, 6487, Note_on_c, 0, 73, 63
2, 6504, Control_c, 0, 64, 73
2, 6504, Control_c, 0, 67, 25
2, 6508, Note_on_c, 0, 58, 43
2, 6522, Control_c, 0, 64, 72
2, 6522, Control_c, 0, 67, 25
2, 6542, Control_c, 0, 64, 70
2, 6561, Control_c, 0, 64, 69
2, 6581, Control_c, 0, 64, 67
2, 6581, Control_c, 0, 67, 26
2, 6599, Control_c, 0, 64, 64
2, 6599, Control_c, 0, 67, 26
2, 6607, Note_on_c, 0, 68, 0
2, 6619, Control_c, 0, 64, 61
2, 6638, Control_c, 0, 64, 55
2, 6655, Note_on_c, 0, 56, 0
2, 6657, Control_c, 0, 64, 44
2, 6676, Control_c, 0, 64, 17
2, 6676, Control_c, 0, 67, 27
2, 6696, Control_c, 0, 64, 0
2, 6824, Note_on_c, 0, 68, 55
2, 6902, Note_on_c, 0, 77, 0
2, 7157, Control_c, 0, 67, 26
2, 7161, Note_on_c, 0, 67, 48
2, 7171, Note_on_c, 0, 68, 0
2, 7272, Control_c, 0, 67, 26
2, 7331, Control_c, 0, 64, 19
2, 7349, Control_c, 0, 64, 39
2, 7368, Control_c, 0, 64, 56
2, 7368, Control_c, 0, 67, 25
2, 7388, Control_c, 0, 64, 61
2, 7406, Control_c, 0, 64, 63
2, 7426, Control_c, 0, 64, 64
2, 7445, Control_c, 0, 64, 65
2, 7453, Note_on_c, 0, 67, 0
2, 7454, Note_on_c, 0, 70, 58
2, 7465, Control_c, 0, 64, 67
2, 7483, Control_c, 0, 64, 70
2, 7503, Control_c, 0, 64, 74
2, 7522, Control_c, 0, 64, 79
2, 7542, Control_c, 0, 64, 81
2, 7637, Control_c, 0, 64, 81
2, 7675, Control_c, 0, 64, 80
2, 7694, Control_c, 0, 64, 80
2, 7713, Control_c, 0, 64, 79
2, 7733, Control_c, 0, 64, 78
2, 7751, Control_c, 0, 64, 77
2, 7771, Control_c, 0, 64, 76
2, 7790, Control_c, 0, 64, 74
2, 7803, Note_on_c, 0, 64, 52
2, 7809, Control_c, 0, 64, 73
2, 7812, Note_on_c, 0, 55, 35
2, 7828, Control_c, 0, 64, 71
2, 7847, Control_c, 0, 64, 68
2, 7867, Control_c, 0, 64, 66
2, 7886, Control_c, 0, 64, 64
2, 7905, Control_c, 0, 64, 62
2, 7922, Note_on_c, 0, 70, 0
2, 7924, Control_c, 0, 64, 59
2, 7934, Note_on_c, 0, 73, 0
2, 7942, Note_on_c, 0, 58, 0
2, 7944, Control_c, 0, 64, 55
2, 7962, Control_c, 0, 64, 47
2, 7982, Control_c, 0, 64, 32
2, 8001, Control_c, 0, 64, 0
2, 8135, Note_on_c, 0, 73, 54
2, 8461, Note_on_c, 0, 72, 60
2, 8516, Note_on_c, 0, 73, 0
2, 8522, Control_c, 0, 67, 25
2, 8561, Control_c, 0, 64, 28
2, 8579, Control_c, 0, 64, 42
2, 8599, Control_c, 0, 64, 55
2, 8618, Control_c, 0, 64, 60
2, 8638, Control_c, 0, 64, 61
2, 8656, Control_c, 0, 64, 63
2, 8676, Control_c, 0, 64, 64
2, 8695, Control_c, 0, 64, 66
2, 8712, Note_on_c, 0, 53, 0
2, 8714, Control_c, 0, 64, 68
2, 8733, Control_c, 0, 64, 71
2, 8753, Control_c, 0, 64, 75
2, 8772, Control_c, 0, 64, 79
2, 8779, Note_on_c, 0, 70, 59
2, 8791, Control_c, 0, 64, 82
2, 8810, Control_c, 0, 64, 84
2, 8830, Control_c, 0, 64, 85
2, 8844, Note_on_c, 0, 72, 0
2, 8849, Control_c, 0, 64, 86
2, 8868, Control_c, 0, 64, 87
2, 8885, Note_on_c, 0, 64, 0
2, 8887, Control_c, 0, 64, 88
2, 8907, Control_c, 0, 64, 89
2, 9059, Control_c, 0, 64, 88
2, 9079, Control_c, 0, 64, 88
2, 9098, Control_c, 0, 64, 87
2, 9118, Control_c, 0, 64, 86
2, 9136, Control_c, 0, 64, 85
2, 9156, Control_c, 0, 64, 84
2, 9166, Note_on_c, 0, 53, 43
2, 9175, Control_c, 0, 64, 82
2, 9188, Note_on_c, 0, 68, 53
2, 9195, Control_c, 0, 64, 80
2, 9208, Note_on_c, 0, 65, 38
2, 9213, Control_c, 0, 64, 78
2, 9233, Control_c, 0, 64, 75
2, 9252, Control_c, 0, 64, 72
2, 9261, Note_on_c, 0, 55, 0
2, 9271, Control_c, 0, 64, 67
2, 9290, Control_c, 0, 64, 63
2, 9294, Note_on_c, 0, 70, 0
2, 9310, Control_c, 0, 64, 57
2, 9329, Control_c, 0, 64, 52
2, 9348, Control_c, 0, 64, 46
2, 9367, Control_c, 0, 64, 35
2, 9387, Control_c, 0, 64, 11
2, 9405, Control_c, 0, 64, 0
2, 9632, Note_on_c, 0, 56, 44
2, 9694, Control_c, 0, 64, 15
2, 9714, Control_c, 0, 64, 38
2, 9733, Control_c, 0, 64, 53
2, 9752, Control_c, 0, 64, 59
2, 9771, Control_c, 0, 64, 61
2, 9791, Control_c, 0, 64, 62
2, 9809, Control_c, 0, 64, 64
2, 9829, Control_c, 0, 64, 65
2, 9848, Control_c, 0, 64, 67
2, 9868, Control_c, 0, 64, 70
2, 9886, Control_c, 0, 64, 74
2, 9899, Note_on_c, 0, 65, 0
2, 9906, Control_c, 0, 64, 79
2, 9925, Control_c, 0, 64, 83
2, 9940, Note_on_c, 0, 60, 45
2, 9945, Control_c, 0, 64, 85
2, 9963, Control_c, 0, 64, 86
2, 9983, Control_c, 0, 64, 88
2, 10002, Control_c, 0, 64, 89
2, 10040, Control_c, 0, 64, 90
2, 10201, Note_on_c, 0, 53, 0
2, 10202, Note_on_c, 0, 70, 61
2, 10220, Note_on_c, 0, 65, 35
2, 10229, Note_on_c, 0, 68, 0
2, 10251, Control_c, 0, 64, 89
2, 10289, Control_c, 0, 64, 89
2, 10328, Control_c, 0, 64, 88
2, 10348, Control_c, 0, 64, 87
2, 10366, Control_c, 0, 64, 86
2, 10386, Control_c, 0, 64, 85
2, 10405, Control_c, 0, 64, 84
2, 10405, Control_c, 0, 67, 25
2, 10425, Control_c, 0, 64, 82
2, 10443, Control_c, 0, 64, 80
2, 10463, Control_c, 0, 64, 77
2, 10482, Control_c, 0, 64, 74
2, 10498, Note_on_c, 0, 55, 45
2, 10499, Note_on_c, 0, 65, 0
2, 10500, Control_c, 0, 64, 71
2, 10519, Control_c, 0, 64, 68
2, 10538, Control_c, 0, 64, 66
2, 10554, Note_on_c, 0, 60, 0
2, 10557, Note_on_c, 0, 70, 0
2, 10559, Control_c, 0, 64, 64
2, 10574, Note_on_c, 0, 56, 0
2, 10577, Control_c, 0, 64, 62
2, 10597, Control_c, 0, 64, 58
2, 10602, Note_on_c, 0, 72, 62
2, 10616, Control_c, 0, 64, 54
2, 10635, Control_c, 0, 64, 48
2, 10654, Control_c, 0, 64, 40
2, 10674, Control_c, 0, 64, 27
2, 10693, Control_c, 0, 64, 0
2, 10693, Note_on_c, 0, 72, 0
2, 10708, Note_on_c, 0, 70, 63
2, 10759, Note_on_c, 0, 70, 0
2, 10783, Note_on_c, 0, 72, 58
2, 10840, Note_on_c, 0, 65, 43
2, 10854, Note_on_c, 0, 72, 0
2, 10879, Note_on_c, 0, 70, 65
2, 10913, Note_on_c, 0, 70, 0
2, 10941, Note_on_c, 0, 72, 57
2, 10986, Note_on_c, 0, 72, 0
2, 10990, Note_on_c, 0, 70, 73
2, 11044, Note_on_c, 0, 70, 0
2, 11069, Note_on_c, 0, 72, 73
2, 11137, Note_on_c, 0, 72, 0
2, 11149, Note_on_c, 0, 70, 76
2, 11151, Note_on_c, 0, 64, 46
2, 11173, Control_c, 0, 67, 26
2, 11193, Note_on_c, 0, 65, 0
2, 11385, Control_c, 0, 64, 27
2, 11403, Control_c, 0, 64, 40
2, 11423, Control_c, 0, 64, 51
2, 11425, Note_on_c, 0, 70, 0
2, 11427, Note_on_c, 0, 68, 68
2, 11442, Control_c, 0, 64, 57
2, 11460, Control_c, 0, 64, 62
2, 11461, Note_on_c, 0, 64, 0
2, 11468, Note_on_c, 0, 67, 46
2, 11478, Control_c, 0, 64, 64
2, 11495, Control_c, 0, 64, 67
2, 11517, Control_c, 0, 64, 70
2, 11535, Control_c, 0, 64, 75
2, 11555, Control_c, 0, 64, 81
2, 11574, Control_c, 0, 64, 86
2, 11589, Note_on_c, 0, 70, 72
2, 11594, Control_c, 0, 64, 88
2, 11612, Control_c, 0, 64, 89
2, 11644, Note_on_c, 0, 68, 0
2, 11728, Control_c, 0, 64, 88
2, 11747, Control_c, 0, 64, 86
2, 11766, Control_c, 0, 64, 84
2, 11786, Control_c, 0, 64, 82
2, 11804, Control_c, 0, 64, 79
2, 11824, Control_c, 0, 64, 77
2, 11843, Control_c, 0, 64, 75
2, 11863, Control_c, 0, 64, 73
2, 11867, Note_on_c, 0, 72, 68
2, 11881, Control_c, 0, 64, 70
2, 11900, Control_c, 0, 64, 67
2, 11908, Note_on_c, 0, 70, 0
2, 11920, Control_c, 0, 64, 64
2, 11939, Control_c, 0, 64, 59
2, 11939, Note_on_c, 0, 56, 38
2, 11954, Note_on_c, 0, 67, 0
2, 11958, Control_c, 0, 64, 53
2, 11977, Control_c, 0, 64, 46
2, 11997, Control_c, 0, 64, 37
2, 12015, Control_c, 0, 64, 29
2, 12035, Control_c, 0, 64, 19
2, 12054, Control_c, 0, 64, 0
2, 12156, Note_on_c, 0, 55, 0
2, 12252, Note_on_c, 0, 68, 62
2, 12419, Control_c, 0, 67, 26
2, 12554, Note_on_c, 0, 64, 54
2, 12580, Note_on_c, 0, 68, 0
2, 12707, Control_c, 0, 64, 15
2, 12726, Control_c, 0, 64, 35
2, 12746, Control_c, 0, 64, 51
2, 12764, Control_c, 0, 64, 58
2, 12784, Control_c, 0, 64, 61
2, 12803, Control_c, 0, 64, 63
2, 12823, Control_c, 0, 64, 64
2, 12841, Control_c, 0, 64, 65
2, 12860, Control_c, 0, 64, 67
2, 12868, Note_on_c, 0, 65, 53
2, 12873, Note_on_c, 0, 64, 0
2, 12880, Control_c, 0, 64, 71
2, 12899, Control_c, 0, 64, 77
2, 12918, Control_c, 0, 64, 83
2, 12937, Control_c, 0, 64, 85
2, 13014, Control_c, 0, 67, 27
2, 13072, Control_c, 0, 64, 84
2, 13091, Control_c, 0, 64, 83
2, 13110, Control_c, 0, 64, 82
2, 13129, Control_c, 0, 64, 80
2, 13149, Control_c, 0, 64, 78
2, 13168, Control_c, 0, 64, 76
2, 13187, Control_c, 0, 64, 74
2, 13206, Control_c, 0, 64, 71
2, 13206, Note_on_c, 0, 56, 0
2, 13215, Note_on_c, 0, 58, 39
2, 13217, Note_on_c, 0, 61, 57
2, 13226, Control_c, 0, 64, 68
2, 13244, Control_c, 0, 64, 66
2, 13264, Control_c, 0, 64, 64
2, 13283, Control_c, 0, 64, 61
2, 13286, Note_on_c, 0, 65, 0
2, 13302, Control_c, 0, 64, 58
2, 13321, Control_c, 0, 64, 55
2, 13334, Note_on_c, 0, 72, 0
2, 13340, Control_c, 0, 64, 51
2, 13360, Control_c, 0, 64, 45
2, 13379, Control_c, 0, 64, 37
2, 13398, Control_c, 0, 64, 29
2, 13417, Control_c, 0, 64, 18
2, 13437, Control_c, 0, 64, 0
2, 13475, Control_c, 0, 67, 27
2, 13569, Note_on_c, 0, 73, 58
2, 13840, Control_c, 0, 64, 26
2, 13859, Control_c, 0, 64, 41
2, 13872, Note_on_c, 0, 67, 54
2, 13878, Control_c, 0, 64, 53
2, 13897, Control_c, 0, 64, 58
2, 13897, Control_c, 0, 67, 27
2, 13917, Control_c, 0, 64, 60
2, 13935, Control_c, 0, 64, 61
2, 13955, Control_c, 0, 64, 63
2, 13974, Control_c, 0, 64, 64
2, 13975, Note_on_c, 0, 73, 0
2, 13994, Control_c, 0, 64, 65
2, 14012, Control_c, 0, 64, 66
2, 14032, Control_c, 0, 64, 68
2, 14051, Control_c, 0, 64, 71
2, 14070, Control_c, 0, 64, 76
2, 14089, Control_c, 0, 64, 82
2, 14109, Control_c, 0, 64, 87
2, 14128, Control_c, 0, 64, 88
2, 14147, Control_c, 0, 64, 89
2, 14197, Note_on_c, 0, 70, 63
2, 14204, Control_c, 0, 64, 89
2, 14247, Note_on_c, 0, 67, 0
2, 14357, Control_c, 0, 64, 89
2, 14362, Note_on_c, 0, 70, 0
2, 14416, Control_c, 0, 64, 88
2, 14455, Control_c, 0, 64, 88
2, 14513, Control_c, 0, 64, 87
2, 14532, Control_c, 0, 64, 86
2, 14539, Note_on_c, 0, 61, 0
2, 14551, Control_c, 0, 64, 86
2, 14568, Note_on_c, 0, 48, 45
2, 14570, Control_c, 0, 64, 85
2, 14577, Note_on_c, 0, 58, 0
2, 14590, Control_c, 0, 64, 84
2, 14609, Control_c, 0, 64, 83
2, 14628, Control_c, 0, 64, 81
2, 14647, Control_c, 0, 64, 79
2, 14649, Note_on_c, 0, 64, 60
2, 14667, Control_c, 0, 64, 75
2, 14683, Note_on_c, 0, 60, 35
2, 14685, Control_c, 0, 64, 71
2, 14705, Control_c, 0, 64, 68
2, 14724, Control_c, 0, 64, 64
2, 14744, Control_c, 0, 64, 61
2, 14762, Control_c, 0, 64, 54
2, 14781, Control_c, 0, 64, 46
2, 14801, Control_c, 0, 64, 34
2, 14819, Control_c, 0, 64, 21
2, 14839, Control_c, 0, 64, 0
2, 15041, Note_on_c, 0, 52, 46
2, 15173, Note_on_c, 0, 60, 0
2, 15226, Control_c, 0, 64, 17
2, 15226, Control_c, 0, 67, 26
2, 15245, Control_c, 0, 64, 36
2, 15264, Control_c, 0, 64, 50
2, 15284, Control_c, 0, 64, 57
2, 15302, Control_c, 0, 64, 60
2, 15322, Control_c, 0, 64, 62
2, 15336, Note_on_c, 0, 55, 50
2, 15341, Control_c, 0, 64, 63
2, 15341, Control_c, 0, 67, 26
2, 15361, Control_c, 0, 64, 64
2, 15379, Control_c, 0, 64, 66
2, 15399, Control_c, 0, 64, 67
2, 15418, Control_c, 0, 64, 70
2, 15418, Control_c, 0, 67, 25
2, 15438, Control_c, 0, 64, 73
2, 15456, Control_c, 0, 64, 78
2, 15476, Control_c, 0, 64, 81
2, 15495, Control_c, 0, 64, 81
2, 15533, Control_c, 0, 64, 81
2, 15595, Note_on_c, 0, 60, 45
2, 15599, Note_on_c, 0, 65, 55
2, 15610, Control_c, 0, 64, 80
2, 15629, Control_c, 0, 64, 80
2, 15632, Note_on_c, 0, 64, 0
2, 15644, Note_on_c, 0, 48, 0
2, 15648, Control_c, 0, 64, 79
2, 15667, Control_c, 0, 64, 78
2, 15687, Control_c, 0, 64, 77
2, 15706, Control_c, 0, 64, 76
2, 15725, Control_c, 0, 64, 74
2, 15744, Control_c, 0, 64, 72
2, 15764, Control_c, 0, 64, 70
2, 15782, Control_c, 0, 64, 69
2, 15802, Control_c, 0, 64, 68
2, 15821, Control_c, 0, 64, 67
2, 15841, Control_c, 0, 64, 66
2, 15844, Note_on_c, 0, 49, 55
2, 15859, Control_c, 0, 64, 65
2, 15879, Control_c, 0, 64, 63
2, 15898, Control_c, 0, 64, 62
2, 15918, Control_c, 0, 64, 61
2, 15918, Note_on_c, 0, 65, 0
2, 15927, Note_on_c, 0, 55, 0
2, 15927, Note_on_c, 0, 60, 0
2, 15935, Note_on_c, 0, 67, 58
2, 15936, Control_c, 0, 64, 60
2, 15949, Note_on_c, 0, 52, 0
2, 15956, Control_c, 0, 64, 59
2, 15975, Control_c, 0, 64, 57
2, 15993, Control_c, 0, 64, 55
2, 16013, Control_c, 0, 64, 53
2, 16032, Control_c, 0, 64, 51
2, 16035, Note_on_c, 0, 67, 0
2, 16052, Control_c, 0, 64, 48
2, 16059, Note_on_c, 0, 65, 60
2, 16070, Control_c, 0, 64, 44
2, 16090, Control_c, 0, 64, 39
2, 16103, Note_on_c, 0, 65, 0
2, 16109, Control_c, 0, 64, 32
2, 16109, Control_c, 0, 67, 26
2, 16124, Note_on_c, 0, 67, 54
2, 16128, Control_c, 0, 64, 24
2, 16147, Control_c, 0, 64, 11
2, 16151, Note_on_c, 0, 60, 47
2, 16167, Control_c, 0, 64, 0
2, 16167, Control_c, 0, 67, 26
2, 16190, Note_on_c, 0, 67, 0
2, 16206, Note_on_c, 0, 65, 67
2, 16224, Control_c, 0, 67, 27
2, 16249, Note_on_c, 0, 65, 0
2, 16270, Note_on_c, 0, 67, 56
2, 16282, Control_c, 0, 67, 27
2, 16328, Note_on_c, 0, 67, 0
2, 16346, Note_on_c, 0, 65, 62
2, 16391, Note_on_c, 0, 65, 0
2, 16398, Control_c, 0, 67, 28
2, 16401, Note_on_c, 0, 67, 52
2, 16428, Note_on_c, 0, 58, 50
2, 16472, Note_on_c, 0, 60, 0
2, 16473, Note_on_c, 0, 67, 0
2, 16479, Note_on_c, 0, 65, 59
2, 16571, Control_c, 0, 67, 27
2, 16648, Control_c, 0, 67, 27
2, 16743, Control_c, 0, 67, 26
2, 16759, Note_on_c, 0, 61, 46
2, 16761, Note_on_c, 0, 65, 0
2, 16768, Note_on_c, 0, 64, 58
2, 16775, Note_on_c, 0, 58, 0
2, 16820, Control_c, 0, 67, 26
2, 16878, Control_c, 0, 64, 22
2, 16878, Control_c, 0, 67, 25
2, 16897, Control_c, 0, 64, 47
2, 16917, Control_c, 0, 64, 58
2, 16928, Note_on_c, 0, 65, 60
2, 16931, Note_on_c, 0, 64, 0
2, 16936, Control_c, 0, 64, 62
2, 16954, Control_c, 0, 64, 64
2, 16974, Control_c, 0, 64, 65
2, 16974, Control_c, 0, 67, 25
2, 16993, Control_c, 0, 64, 67
2, 17012, Control_c, 0, 64, 71
2, 17031, Control_c, 0, 64, 75
2, 17051, Control_c, 0, 64, 77
2, 17070, Control_c, 0, 64, 78
2, 17089, Control_c, 0, 64, 77
2, 17108, Control_c, 0, 64, 76
2, 17147, Control_c, 0, 64, 75
2, 17166, Control_c, 0, 64, 74
2, 17185, Control_c, 0, 64, 72
2, 17194, Note_on_c, 0, 52, 48
2, 17205, Control_c, 0, 64, 70
2, 17213, Note_on_c, 0, 67, 57
2, 17215, Note_on_c, 0, 65, 0
2, 17223, Control_c, 0, 64, 68
2, 17243, Control_c, 0, 64, 65
2, 17262, Control_c, 0, 64, 62
2, 17283, Control_c, 0, 64, 55
2, 17301, Control_c, 0, 64, 49
2, 17321, Control_c, 0, 64, 39
2, 17340, Control_c, 0, 64, 15
2, 17344, Note_on_c, 0, 49, 0
2, 17359, Control_c, 0, 64, 0
2, 17436, Control_c, 0, 67, 24
2, 17442, Note_on_c, 0, 61, 0
2, 17493, Control_c, 0, 67, 24
2, 17551, Control_c, 0, 67, 23
2, 17589, Control_c, 0, 67, 22
2, 17593, Note_on_c, 0, 72, 60
2, 17607, Control_c, 0, 67, 22
2, 17895, Note_on_c, 0, 55, 49
2, 17899, Note_on_c, 0, 70, 65
2, 17938, Note_on_c, 0, 72, 0
2, 17971, Control_c, 0, 64, 27
2, 17990, Control_c, 0, 64, 40
2, 18010, Control_c, 0, 64, 52
2, 18029, Control_c, 0, 64, 58
2, 18048, Control_c, 0, 64, 60
2, 18067, Control_c, 0, 64, 62
2, 18087, Control_c, 0, 64, 64
2, 18105, Control_c, 0, 64, 66
2, 18125, Control_c, 0, 64, 68
2, 18144, Control_c, 0, 64, 72
2, 18164, Control_c, 0, 64, 76
2, 18182, Control_c, 0, 64, 80
2, 18199, Control_c, 0, 64, 84
2, 18216, Note_on_c, 0, 73, 69
2, 18219, Control_c, 0, 64, 86
2, 18225, Note_on_c, 0, 67, 0
2, 18240, Control_c, 0, 64, 88
2, 18255, Note_on_c, 0, 70, 0
2, 18258, Control_c, 0, 64, 89
2, 18316, Control_c, 0, 67, 21
2, 18335, Control_c, 0, 67, 21
2, 18374, Control_c, 0, 67, 20
2, 18382, Note_on_c, 0, 55, 0
2, 18392, Control_c, 0, 64, 88
2, 18412, Control_c, 0, 64, 87
2, 18431, Control_c, 0, 64, 85
2, 18450, Control_c, 0, 64, 84
2, 18469, Control_c, 0, 64, 82
2, 18469, Control_c, 0, 67, 20
2, 18489, Control_c, 0, 64, 80
2, 18508, Control_c, 0, 64, 78
2, 18508, Control_c, 0, 67, 19
2, 18527, Control_c, 0, 64, 76
2, 18527, Control_c, 0, 67, 19
2, 18539, Note_on_c, 0, 64, 66
2, 18543, Note_on_c, 0, 60, 48
2, 18546, Control_c, 0, 64, 73
2, 18566, Control_c, 0, 64, 71
2, 18566, Control_c, 0, 67, 18
2, 18585, Control_c, 0, 64, 68
2, 18604, Control_c, 0, 64, 65
2, 18604, Control_c, 0, 67, 16
2, 18623, Control_c, 0, 64, 62
2, 18623, Control_c, 0, 67, 14
2, 18643, Control_c, 0, 64, 57
2, 18643, Control_c, 0, 67, 12
2, 18648, Note_on_c, 0, 73, 0
2, 18661, Control_c, 0, 64, 50
2, 18661, Control_c, 0, 67, 11
2, 18681, Control_c, 0, 64, 43
2, 18681, Control_c, 0, 67, 10
2, 18700, Control_c, 0, 64, 36
2, 18700, Control_c, 0, 67, 10
2, 18720, Control_c, 0, 64, 28
2, 18720, Control_c, 0, 67, 9
2, 18738, Control_c, 0, 64, 9
2, 18758, Control_c, 0, 64, 0
2, 18758, Control_c, 0, 67, 9
2, 18777, Control_c, 0, 67, 8
2, 18841, Note_on_c, 0, 73, 70
2, 18854, Control_c, 0, 67, 8
2, 18872, Control_c, 0, 67, 0
2, 19157, Note_on_c, 0, 48, 52
2, 19161, Note_on_c, 0, 60, 0
2, 19168, Note_on_c, 0, 72, 72
2, 19213, Note_on_c, 0, 73, 0
2, 19255, Control_c, 0, 64, 34
2, 19274, Control_c, 0, 64, 50
2, 19293, Control_c, 0, 64, 57
2, 19312, Control_c, 0, 64, 61
2, 19332, Control_c, 0, 64, 63
2, 19350, Control_c, 0, 64, 65
2, 19370, Control_c, 0, 64, 68
2, 19379, Note_on_c, 0, 48, 0
2, 19389, Control_c, 0, 64, 73
2, 19390, Note_on_c, 0, 52, 0
2, 19409, Control_c, 0, 64, 81
2, 19427, Control_c, 0, 64, 88
2, 19447, Control_c, 0, 64, 92
2, 19466, Control_c, 0, 64, 98
2, 19484, Note_on_c, 0, 70, 72
2, 19485, Control_c, 0, 64, 113
2, 19504, Control_c, 0, 64, 127
2, 19557, Note_on_c, 0, 72, 0
2, 19638, Note_on_c, 0, 64, 0
2, 19925, Note_on_c, 0, 41, 58
2, 19984, Control_c, 0, 64, 115
2, 19987, Note_on_c, 0, 69, 64
2, 20002, Note_on_c, 0, 63, 44
2, 20004, Control_c, 0, 64, 100
2, 20023, Control_c, 0, 64, 90
2, 20042, Control_c, 0, 64, 79
2, 20061, Control_c, 0, 64, 72
2, 20081, Control_c, 0, 64, 66
2, 20094, Note_on_c, 0, 70, 0
2, 20100, Control_c, 0, 64, 61
2, 20119, Control_c, 0, 64, 52
2, 20138, Control_c, 0, 64, 39
2, 20159, Control_c, 0, 64, 19
2, 20177, Control_c, 0, 64, 0
2, 20349, Note_on_c, 0, 45, 52
2, 20639, Control_c, 0, 64, 11
2, 20645, Note_on_c, 0, 48, 60
2, 20657, Control_c, 0, 64, 27
2, 20677, Control_c, 0, 64, 38
2, 20696, Control_c, 0, 64, 46
2, 20716, Control_c, 0, 64, 52
2, 20734, Control_c, 0, 64, 56
2, 20753, Control_c, 0, 64, 58
2, 20773, Control_c, 0, 64, 60
2, 20791, Control_c, 0, 64, 62
2, 20811, Control_c, 0, 64, 64
2, 20830, Control_c, 0, 64, 66
2, 20850, Control_c, 0, 64, 68
2, 20868, Control_c, 0, 64, 72
2, 20888, Control_c, 0, 64, 78
2, 20907, Control_c, 0, 64, 83
2, 20910, Note_on_c, 0, 41, 0
2, 20920, Note_on_c, 0, 53, 49
2, 20926, Control_c, 0, 64, 87
2, 20926, Note_on_c, 0, 70, 74
2, 20945, Control_c, 0, 64, 90
2, 20965, Control_c, 0, 64, 94
2, 20978, Note_on_c, 0, 63, 0
2, 20984, Control_c, 0, 64, 99
2, 21003, Control_c, 0, 64, 104
2, 21022, Control_c, 0, 64, 104
2, 21050, Note_on_c, 0, 69, 0
2, 21136, Control_c, 0, 64, 102
2, 21156, Control_c, 0, 64, 98
2, 21171, Note_on_c, 0, 42, 57
2, 21175, Control_c, 0, 64, 93
2, 21194, Control_c, 0, 64, 88
2, 21213, Control_c, 0, 64, 83
2, 21232, Control_c, 0, 64, 79
2, 21245, Note_on_c, 0, 48, 0
2, 21252, Control_c, 0, 64, 75
2, 21255, Note_on_c, 0, 53, 0
2, 21270, Control_c, 0, 64, 71
2, 21285, Note_on_c, 0, 72, 67
2, 21286, Note_on_c, 0, 45, 0
2, 21290, Control_c, 0, 64, 68
2, 21298, Note_on_c, 0, 61, 56
2, 21300, Note_on_c, 0, 70, 0
2, 21309, Control_c, 0, 64, 65
2, 21329, Control_c, 0, 64, 62
2, 21347, Control_c, 0, 64, 58
2, 21367, Control_c, 0, 64, 54
2, 21386, Control_c, 0, 64, 49
2, 21404, Note_on_c, 0, 72, 0
2, 21405, Control_c, 0, 64, 43
2, 21418, Note_on_c, 0, 70, 67
2, 21424, Control_c, 0, 64, 36
2, 21444, Control_c, 0, 64, 30
2, 21463, Control_c, 0, 64, 22
2, 21478, Note_on_c, 0, 70, 0
2, 21482, Control_c, 0, 64, 11
2, 21495, Note_on_c, 0, 53, 48
2, 21500, Note_on_c, 0, 72, 65
2, 21501, Control_c, 0, 64, 0
2, 21569, Note_on_c, 0, 72, 0
2, 21579, Note_on_c, 0, 70, 72
2, 21645, Note_on_c, 0, 70, 0
2, 21660, Note_on_c, 0, 72, 66
2, 21714, Note_on_c, 0, 72, 0
2, 21721, Note_on_c, 0, 70, 70
2, 21777, Note_on_c, 0, 51, 52
2, 21796, Note_on_c, 0, 70, 0
2, 21803, Note_on_c, 0, 72, 72
2, 21830, Note_on_c, 0, 53, 0
2, 21871, Note_on_c, 0, 70, 66
2, 21905, Note_on_c, 0, 72, 0
2, 22109, Note_on_c, 0, 54, 41
2, 22118, Note_on_c, 0, 69, 67
2, 22139, Note_on_c, 0, 70, 0
2, 22146, Note_on_c, 0, 51, 0
2, 22173, Control_c, 0, 64, 21
2, 22192, Control_c, 0, 64, 38
2, 22212, Control_c, 0, 64, 50
2, 22230, Control_c, 0, 64, 57
2, 22250, Control_c, 0, 64, 62
2, 22269, Control_c, 0, 64, 65
2, 22273, Note_on_c, 0, 70, 75
2, 22289, Control_c, 0, 64, 67
2, 22307, Control_c, 0, 64, 71
2, 22327, Control_c, 0, 64, 76
2, 22346, Control_c, 0, 64, 82
2, 22365, Control_c, 0, 64, 86
2, 22384, Control_c, 0, 64, 87
2, 22500, Control_c, 0, 64, 87
2, 22519, Control_c, 0, 64, 86
2, 22521, Note_on_c, 0, 45, 50
2, 22538, Control_c, 0, 64, 84
2, 22542, Note_on_c, 0, 72, 68
2, 22558, Control_c, 0, 64, 80
2, 22576, Control_c, 0, 64, 76
2, 22595, Control_c, 0, 64, 73
2, 22608, Note_on_c, 0, 70, 0
2, 22615, Control_c, 0, 64, 70
2, 22616, Note_on_c, 0, 69, 0
2, 22626, Note_on_c, 0, 61, 0
2, 22634, Control_c, 0, 64, 67
2, 22653, Control_c, 0, 64, 65
2, 22672, Control_c, 0, 64, 63
2, 22692, Control_c, 0, 64, 61
2, 22705, Note_on_c, 0, 42, 0
2, 22710, Control_c, 0, 64, 58
2, 22730, Control_c, 0, 64, 54
2, 22749, Control_c, 0, 64, 49
2, 22769, Control_c, 0, 64, 44
2, 22776, Note_on_c, 0, 54, 0
2, 22787, Control_c, 0, 64, 37
2, 22807, Control_c, 0, 64, 28
2, 22826, Control_c, 0, 64, 15
2, 22845, Control_c, 0, 64, 0
2, 22932, Note_on_c, 0, 65, 50
2, 23239, Note_on_c, 0, 63, 53
2, 23247, Note_on_c, 0, 48, 43
2, 23271, Note_on_c, 0, 65, 0
2, 23537, Control_c, 0, 64, 26
2, 23557, Control_c, 0, 64, 46
2, 23559, Note_on_c, 0, 66, 60
2, 23576, Control_c, 0, 64, 58
2, 23595, Control_c, 0, 64, 64
2, 23602, Note_on_c, 0, 45, 0
2, 23614, Control_c, 0, 64, 67
2, 23633, Control_c, 0, 64, 71
2, 23653, Control_c, 0, 64, 77
2, 23666, Note_on_c, 0, 48, 0
2, 23668, Note_on_c, 0, 63, 0
2, 23671, Control_c, 0, 64, 86
2, 23691, Control_c, 0, 64, 94
2, 23710, Control_c, 0, 64, 100
2, 23730, Control_c, 0, 64, 103
2, 23748, Control_c, 0, 64, 105
2, 23806, Control_c, 0, 64, 104
2, 23825, Control_c, 0, 64, 104
2, 23845, Control_c, 0, 64, 102
2, 23864, Control_c, 0, 64, 99
2, 23868, Note_on_c, 0, 45, 55
2, 23883, Control_c, 0, 64, 93
2, 23902, Control_c, 0, 64, 88
2, 23922, Control_c, 0, 64, 81
2, 23928, Note_on_c, 0, 66, 0
2, 23940, Control_c, 0, 64, 74
2, 23959, Control_c, 0, 64, 69
2, 23978, Control_c, 0, 64, 64
2, 24000, Control_c, 0, 64, 61
2, 24018, Control_c, 0, 64, 58
2, 24038, Control_c, 0, 64, 56
2, 24057, Control_c, 0, 64, 54
2, 24075, Control_c, 0, 64, 51
2, 24095, Control_c, 0, 64, 48
2, 24114, Control_c, 0, 64, 44
2, 24134, Control_c, 0, 64, 39
2, 24152, Control_c, 0, 64, 34
2, 24172, Control_c, 0, 64, 30
2, 24176, Note_on_c, 0, 66, 54
2, 24191, Control_c, 0, 64, 27
2, 24210, Control_c, 0, 64, 25
2, 24229, Control_c, 0, 64, 22
2, 24249, Control_c, 0, 64, 19
2, 24268, Control_c, 0, 64, 15
2, 24287, Control_c, 0, 64, 11
2, 24306, Control_c, 0, 64, 0
2, 24495, Note_on_c, 0, 41, 41
2, 24496, Note_on_c, 0, 65, 49
2, 24507, Note_on_c, 0, 66, 0
2, 24553, Note_on_c, 0, 45, 0
2, 24819, Note_on_c, 0, 63, 52
2, 24842, Note_on_c, 0, 65, 0
2, 25226, Note_on_c, 0, 61, 46
2, 25227, Note_on_c, 0, 46, 40
2, 25315, Note_on_c, 0, 63, 0
2, 25339, Note_on_c, 0, 72, 0
2, 25358, Note_on_c, 0, 41, 0
2, 25626, Note_on_c, 0, 72, 57
2, 25934, Note_on_c, 0, 70, 64
2, 25970, Note_on_c, 0, 72, 0
2, 26250, Note_on_c, 0, 73, 56
2, 26272, Note_on_c, 0, 70, 0
2, 26378, Control_c, 0, 64, 9
2, 26398, Control_c, 0, 64, 11
2, 26416, Control_c, 0, 64, 18
2, 26435, Control_c, 0, 64, 23
2, 26455, Control_c, 0, 64, 28
2, 26474, Control_c, 0, 64, 32
2, 26493, Control_c, 0, 64, 36
2, 26512, Control_c, 0, 64, 41
2, 26532, Control_c, 0, 64, 45
2, 26550, Control_c, 0, 64, 50
2, 26570, Control_c, 0, 64, 52
2, 26582, Note_on_c, 0, 67, 52
2, 26589, Control_c, 0, 64, 55
2, 26609, Control_c, 0, 64, 58
2, 26622, Note_on_c, 0, 73, 0
2, 26627, Control_c, 0, 64, 62
2, 26647, Control_c, 0, 64, 65
2, 26666, Control_c, 0, 64, 66
2, 26686, Control_c, 0, 64, 69
2, 26697, Note_on_c, 0, 46, 0
2, 26704, Control_c, 0, 64, 72
2, 26724, Control_c, 0, 64, 76
2, 26743, Control_c, 0, 64, 81
2, 26762, Control_c, 0, 64, 83
2, 26781, Control_c, 0, 64, 84
2, 26838, Control_c, 0, 64, 83
2, 26857, Control_c, 0, 64, 83
2, 26881, Control_c, 0, 64, 82
2, 26899, Control_c, 0, 64, 81
2, 26906, Note_on_c, 0, 46, 43
2, 26919, Control_c, 0, 64, 80
2, 26938, Control_c, 0, 64, 78
2, 26957, Control_c, 0, 64, 76
2, 26976, Control_c, 0, 64, 75
2, 26979, Note_on_c, 0, 67, 0
2, 26995, Control_c, 0, 64, 73
2, 27015, Control_c, 0, 64, 71
2, 27033, Control_c, 0, 64, 70
2, 27053, Control_c, 0, 64, 68
2, 27072, Control_c, 0, 64, 67
2, 27091, Control_c, 0, 64, 66
2, 27110, Control_c, 0, 64, 65
2, 27130, Control_c, 0, 64, 64
2, 27149, Control_c, 0, 64, 63
2, 27168, Control_c, 0, 64, 62
2, 27187, Control_c, 0, 64, 60
2, 27207, Control_c, 0, 64, 59
2, 27225, Control_c, 0, 64, 57
2, 27240, Note_on_c, 0, 70, 60
2, 27241, Note_on_c, 0, 48, 42
2, 27245, Control_c, 0, 64, 55
2, 27264, Control_c, 0, 64, 54
2, 27284, Control_c, 0, 64, 51
2, 27302, Control_c, 0, 64, 49
2, 27322, Control_c, 0, 64, 45
2, 27323, Note_on_c, 0, 70, 0
2, 27335, Note_on_c, 0, 68, 60
2, 27341, Control_c, 0, 64, 41
2, 27361, Control_c, 0, 64, 37
2, 27379, Control_c, 0, 64, 34
2, 27390, Note_on_c, 0, 68, 0
2, 27399, Control_c, 0, 64, 30
2, 27406, Note_on_c, 0, 70, 59
2, 27418, Control_c, 0, 64, 26
2, 27435, Note_on_c, 0, 46, 0
2, 27436, Control_c, 0, 64, 22
2, 27456, Control_c, 0, 64, 18
2, 27464, Note_on_c, 0, 70, 0
2, 27471, Note_on_c, 0, 68, 56
2, 27475, Control_c, 0, 64, 15
2, 27495, Control_c, 0, 64, 11
2, 27505, Note_on_c, 0, 48, 0
2, 27505, Note_on_c, 0, 49, 48
2, 27513, Control_c, 0, 64, 9
2, 27531, Note_on_c, 0, 68, 0
2, 27550, Note_on_c, 0, 70, 61
2, 27552, Control_c, 0, 64, 0
2, 27629, Note_on_c, 0, 68, 55
2, 27635, Note_on_c, 0, 70, 0
2, 27933, Note_on_c, 0, 43, 32
2, 27939, Note_on_c, 0, 70, 56
2, 27971, Control_c, 0, 64, 9
2, 27973, Note_on_c, 0, 68, 0
2, 27990, Control_c, 0, 64, 11
2, 28005, Note_on_c, 0, 49, 0
2, 28009, Control_c, 0, 64, 18
2, 28028, Control_c, 0, 64, 22
2, 28048, Control_c, 0, 64, 27
2, 28066, Control_c, 0, 64, 33
2, 28072, Note_on_c, 0, 61, 0
2, 28086, Control_c, 0, 64, 39
2, 28105, Control_c, 0, 64, 45
2, 28125, Control_c, 0, 64, 51
2, 28143, Control_c, 0, 64, 56
2, 28163, Control_c, 0, 64, 58
2, 28182, Control_c, 0, 64, 60
2, 28201, Control_c, 0, 64, 62
2, 28220, Control_c, 0, 64, 64
2, 28240, Control_c, 0, 64, 66
2, 28259, Control_c, 0, 64, 68
2, 28278, Control_c, 0, 64, 71
2, 28297, Control_c, 0, 64, 74
2, 28300, Note_on_c, 0, 60, 52
2, 28316, Control_c, 0, 64, 75
2, 28354, Control_c, 0, 64, 75
2, 28393, Control_c, 0, 64, 74
2, 28401, Note_on_c, 0, 43, 0
2, 28412, Control_c, 0, 64, 74
2, 28431, Control_c, 0, 64, 73
2, 28451, Control_c, 0, 64, 72
2, 28470, Control_c, 0, 64, 71
2, 28489, Control_c, 0, 64, 70
2, 28508, Control_c, 0, 64, 69
2, 28528, Control_c, 0, 64, 69
2, 28546, Control_c, 0, 64, 68
2, 28566, Control_c, 0, 64, 67
2, 28585, Control_c, 0, 64, 66
2, 28602, Note_on_c, 0, 61, 60
2, 28603, Note_on_c, 0, 46, 46
2, 28605, Control_c, 0, 64, 64
2, 28623, Control_c, 0, 64, 61
2, 28632, Note_on_c, 0, 60, 0
2, 28643, Control_c, 0, 64, 54
2, 28662, Control_c, 0, 64, 39
2, 28681, Control_c, 0, 64, 0
2, 28815, Control_c, 0, 64, 30
2, 28834, Control_c, 0, 64, 49
2, 28854, Control_c, 0, 64, 57
2, 28873, Control_c, 0, 64, 60
2, 28884, Note_on_c, 0, 46, 0
2, 28892, Control_c, 0, 64, 63
2, 28909, Note_on_c, 0, 65, 60
2, 28911, Control_c, 0, 64, 66
2, 28931, Control_c, 0, 64, 70
2, 28950, Control_c, 0, 64, 76
2, 28969, Control_c, 0, 64, 86
2, 28988, Control_c, 0, 64, 92
2, 29008, Control_c, 0, 64, 95
2, 29026, Control_c, 0, 64, 97
2, 29046, Control_c, 0, 64, 97
2, 29145, Control_c, 0, 64, 96
2, 29163, Control_c, 0, 64, 94
2, 29183, Control_c, 0, 64, 91
2, 29184, Note_on_c, 0, 61, 0
2, 29202, Control_c, 0, 64, 86
2, 29222, Control_c, 0, 64, 81
2, 29228, Note_on_c, 0, 65, 0
2, 29238, Note_on_c, 0, 51, 48
2, 29240, Control_c, 0, 64, 75
2, 29243, Note_on_c, 0, 55, 48
2, 29260, Control_c, 0, 64, 67
2, 29279, Control_c, 0, 64, 61
2, 29298, Control_c, 0, 64, 47
2, 29317, Control_c, 0, 64, 13
2, 29337, Control_c, 0, 64, 0
2, 29375, Control_c, 0, 64, 9
2, 29394, Control_c, 0, 64, 25
2, 29414, Control_c, 0, 64, 37
2, 29433, Control_c, 0, 64, 50
2, 29452, Control_c, 0, 64, 57
2, 29471, Control_c, 0, 64, 60
2, 29491, Control_c, 0, 64, 62
2, 29509, Control_c, 0, 64, 64
2, 29529, Control_c, 0, 64, 67
2, 29548, Control_c, 0, 64, 71
2, 29564, Note_on_c, 0, 55, 0
2, 29567, Control_c, 0, 64, 77
2, 29583, Note_on_c, 0, 65, 46
2, 29586, Control_c, 0, 64, 83
2, 29605, Control_c, 0, 64, 88
2, 29615, Note_on_c, 0, 51, 0
2, 29625, Control_c, 0, 64, 90
2, 29798, Control_c, 0, 64, 89
2, 29818, Control_c, 0, 64, 88
2, 29837, Control_c, 0, 64, 87
2, 29856, Control_c, 0, 64, 86
2, 29875, Control_c, 0, 64, 84
2, 29895, Control_c, 0, 64, 82
2, 29913, Control_c, 0, 64, 78
2, 29921, Note_on_c, 0, 63, 48
2, 29931, Note_on_c, 0, 39, 47
2, 29933, Control_c, 0, 64, 74
2, 29952, Control_c, 0, 64, 70
2, 29971, Note_on_c, 0, 65, 0
2, 29972, Control_c, 0, 64, 65
2, 29990, Control_c, 0, 64, 59
2, 30010, Control_c, 0, 64, 42
2, 30029, Control_c, 0, 64, 0
2, 30183, Control_c, 0, 64, 34
2, 30201, Control_c, 0, 64, 50
2, 30221, Control_c, 0, 64, 59
2, 30240, Control_c, 0, 64, 62
2, 30259, Control_c, 0, 64, 64
2, 30278, Control_c, 0, 64, 67
2, 30295, Note_on_c, 0, 61, 46
2, 30298, Control_c, 0, 64, 71
2, 30298, Note_on_c, 0, 39, 0
2, 30317, Control_c, 0, 64, 78
2, 30319, Note_on_c, 0, 63, 0
2, 30336, Control_c, 0, 64, 85
2, 30355, Control_c, 0, 64, 91
2, 30375, Control_c, 0, 64, 91
2, 30393, Control_c, 0, 64, 92
2, 30452, Control_c, 0, 64, 92
2, 30547, Control_c, 0, 64, 92
2, 30586, Control_c, 0, 64, 91
2, 30604, Control_c, 0, 64, 90
2, 30624, Control_c, 0, 64, 89
2, 30643, Control_c, 0, 64, 88
2, 30663, Control_c, 0, 64, 86
2, 30681, Control_c, 0, 64, 85
2, 30701, Control_c, 0, 64, 83
2, 30721, Control_c, 0, 64, 81
2, 30740, Control_c, 0, 64, 81
2, 30779, Control_c, 0, 64, 80
2, 30786, Note_on_c, 0, 60, 43
2, 30788, Note_on_c, 0, 44, 37
2, 30798, Control_c, 0, 64, 79
2, 30817, Control_c, 0, 64, 76
2, 30836, Control_c, 0, 64, 72
2, 30846, Note_on_c, 0, 61, 0
2, 30856, Control_c, 0, 64, 68
2, 30874, Control_c, 0, 64, 65
2, 30894, Control_c, 0, 64, 61
2, 30913, Control_c, 0, 64, 56
2, 30933, Control_c, 0, 64, 53
2, 30951, Control_c, 0, 64, 49
2, 30971, Control_c, 0, 64, 46
2, 30990, Control_c, 0, 64, 42
2, 31008, Control_c, 0, 64, 38
2, 31028, Control_c, 0, 64, 33
2, 31047, Control_c, 0, 64, 29
2, 31067, Control_c, 0, 64, 27
2, 31085, Control_c, 0, 64, 25
2, 31105, Control_c, 0, 64, 23
2, 31124, Control_c, 0, 64, 21
2, 31162, Control_c, 0, 64, 20
2, 31198, Note_on_c, 0, 48, 27
2, 31228, Note_on_c, 0, 68, 49
2, 31340, Note_on_c, 0, 70, 0
2, 31354, Control_c, 0, 64, 21
2, 31374, Control_c, 0, 64, 22
2, 31393, Control_c, 0, 64, 23
2, 31413, Control_c, 0, 64, 25
2, 31431, Control_c, 0, 64, 26
2, 31451, Control_c, 0, 64, 27
2, 31470, Control_c, 0, 64, 27
2, 31488, Control_c, 0, 64, 28
2, 31508, Control_c, 0, 64, 29
2, 31527, Control_c, 0, 64, 31
2, 31541, Note_on_c, 0, 51, 35
2, 31547, Control_c, 0, 64, 33
2, 31554, Note_on_c, 0, 72, 59
2, 31565, Control_c, 0, 64, 36
2, 31585, Control_c, 0, 64, 40
2, 31604, Control_c, 0, 64, 44
2, 31623, Control_c, 0, 64, 47
2, 31642, Control_c, 0, 64, 51
2, 31662, Control_c, 0, 64, 55
2, 31681, Control_c, 0, 64, 57
2, 31700, Control_c, 0, 64, 59
2, 31719, Control_c, 0, 64, 60
2, 31739, Control_c, 0, 64, 62
2, 31758, Control_c, 0, 64, 63
2, 31777, Control_c, 0, 64, 65
2, 31796, Control_c, 0, 64, 66
2, 31816, Control_c, 0, 64, 69
2, 31818, Note_on_c, 0, 44, 0
2, 31834, Control_c, 0, 64, 73
2, 31845, Note_on_c, 0, 56, 45
2, 31854, Control_c, 0, 64, 80
2, 31857, Note_on_c, 0, 60, 0
2, 31873, Control_c, 0, 64, 86
2, 31885, Note_on_c, 0, 68, 0
2, 31893, Control_c, 0, 64, 88
2, 31911, Control_c, 0, 64, 88
2, 31961, Note_on_c, 0, 48, 0
2, 32043, Control_c, 0, 64, 87
2, 32062, Control_c, 0, 64, 86
2, 32082, Control_c, 0, 64, 85
2, 32100, Control_c, 0, 64, 83
2, 32120, Control_c, 0, 64, 81
2, 32139, Control_c, 0, 64, 78
2, 32148, Note_on_c, 0, 46, 44
2, 32159, Control_c, 0, 64, 75
2, 32165, Note_on_c, 0, 61, 58
2, 32177, Control_c, 0, 64, 73
2, 32182, Note_on_c, 0, 56, 0
2, 32196, Control_c, 0, 64, 70
2, 32216, Control_c, 0, 64, 68
2, 32222, Note_on_c, 0, 51, 0
2, 32235, Control_c, 0, 64, 66
2, 32254, Control_c, 0, 64, 64
2, 32273, Control_c, 0, 64, 63
2, 32293, Control_c, 0, 64, 62
2, 32331, Control_c, 0, 64, 62
2, 32350, Control_c, 0, 64, 61
2, 32370, Control_c, 0, 64, 60
2, 32388, Control_c, 0, 64, 59
2, 32408, Control_c, 0, 64, 59
2, 32446, Control_c, 0, 64, 58
2, 32465, Control_c, 0, 64, 57
2, 32466, Note_on_c, 0, 70, 69
2, 32482, Note_on_c, 0, 56, 45
2, 32485, Control_c, 0, 64, 56
2, 32504, Control_c, 0, 64, 55
2, 32523, Control_c, 0, 64, 53
2, 32525, Note_on_c, 0, 72, 0
2, 32542, Control_c, 0, 64, 51
2, 32562, Control_c, 0, 64, 47
2, 32580, Control_c, 0, 64, 44
2, 32600, Control_c, 0, 64, 41
2, 32619, Control_c, 0, 64, 36
2, 32635, Control_c, 0, 64, 30
2, 32655, Control_c, 0, 64, 21
2, 32673, Control_c, 0, 64, 0
2, 32778, Note_on_c, 0, 73, 72
2, 32783, Note_on_c, 0, 55, 43
2, 32826, Note_on_c, 0, 56, 0
2, 33017, Note_on_c, 0, 61, 0
2, 33019, Control_c, 0, 64, 40
2, 33039, Control_c, 0, 64, 58
2, 33058, Control_c, 0, 64, 64
2, 33076, Control_c, 0, 64, 66
2, 33096, Control_c, 0, 64, 69
2, 33111, Note_on_c, 0, 46, 0
2, 33115, Control_c, 0, 64, 74
2, 33119, Note_on_c, 0, 58, 56
2, 33135, Control_c, 0, 64, 81
2, 33150, Note_on_c, 0, 70, 0
2, 33153, Control_c, 0, 64, 88
2, 33173, Control_c, 0, 64, 92
2, 33188, Note_on_c, 0, 55, 0
2, 33192, Control_c, 0, 64, 94
2, 33211, Control_c, 0, 64, 94
2, 33288, Control_c, 0, 64, 94
2, 33307, Control_c, 0, 64, 93
2, 33327, Control_c, 0, 64, 92
2, 33345, Control_c, 0, 64, 90
2, 33365, Control_c, 0, 64, 87
2, 33373, Note_on_c, 0, 58, 0
2, 33384, Control_c, 0, 64, 85
2, 33404, Control_c, 0, 64, 82
2, 33413, Note_on_c, 0, 63, 67
2, 33419, Note_on_c, 0, 48, 47
2, 33422, Control_c, 0, 64, 79
2, 33442, Control_c, 0, 64, 76
2, 33461, Control_c, 0, 64, 73
2, 33481, Control_c, 0, 64, 71
2, 33499, Control_c, 0, 64, 69
2, 33519, Control_c, 0, 64, 67
2, 33538, Control_c, 0, 64, 65
2, 33556, Control_c, 0, 64, 64
2, 33576, Control_c, 0, 64, 63
2, 33597, Control_c, 0, 64, 63
2, 33616, Control_c, 0, 64, 62
2, 33635, Control_c, 0, 64, 62
2, 33655, Control_c, 0, 64, 61
2, 33674, Control_c, 0, 64, 60
2, 33693, Control_c, 0, 64, 59
2, 33702, Note_on_c, 0, 72, 73
2, 33708, Note_on_c, 0, 51, 45
2, 33710, Control_c, 0, 64, 58
2, 33712, Note_on_c, 0, 73, 0
2, 33729, Control_c, 0, 64, 57
2, 33748, Control_c, 0, 64, 56
2, 33767, Control_c, 0, 64, 55
2, 33787, Control_c, 0, 64, 54
2, 33824, Control_c, 0, 64, 54
2, 33844, Control_c, 0, 64, 53
2, 33863, Control_c, 0, 64, 53
2, 34017, Control_c, 0, 64, 52
2, 34052, Note_on_c, 0, 75, 80
2, 34055, Control_c, 0, 64, 51
2, 34058, Note_on_c, 0, 56, 54
2, 34075, Control_c, 0, 64, 47
2, 34093, Control_c, 0, 64, 37
2, 34113, Control_c, 0, 64, 0
2, 34247, Control_c, 0, 64, 11
2, 34266, Control_c, 0, 64, 44
2, 34275, Note_on_c, 0, 63, 0
2, 34286, Control_c, 0, 64, 59
2, 34304, Control_c, 0, 64, 64
2, 34324, Control_c, 0, 64, 66
2, 34343, Control_c, 0, 64, 70
2, 34355, Note_on_c, 0, 48, 0
2, 34361, Note_on_c, 0, 60, 61
2, 34363, Control_c, 0, 64, 77
2, 34381, Control_c, 0, 64, 88
2, 34401, Control_c, 0, 64, 100
2, 34405, Note_on_c, 0, 72, 0
2, 34420, Control_c, 0, 64, 108
2, 34439, Control_c, 0, 64, 113
2, 34439, Note_on_c, 0, 51, 0
2, 34458, Control_c, 0, 64, 116
2, 34516, Control_c, 0, 64, 115
2, 34541, Control_c, 0, 64, 113
2, 34560, Control_c, 0, 64, 110
2, 34579, Control_c, 0, 64, 104
2, 34599, Control_c, 0, 64, 96
2, 34617, Control_c, 0, 64, 86
2, 34637, Control_c, 0, 64, 78
2, 34656, Control_c, 0, 64, 70
2, 34671, Note_on_c, 0, 65, 70
2, 34676, Control_c, 0, 64, 64
2, 34676, Note_on_c, 0, 49, 57
2, 34680, Note_on_c, 0, 60, 0
2, 34694, Control_c, 0, 64, 59
2, 34714, Control_c, 0, 64, 51
2, 34733, Control_c, 0, 64, 44
2, 34753, Control_c, 0, 64, 39
2, 34763, Note_on_c, 0, 56, 0
2, 34771, Control_c, 0, 64, 39
2, 34944, Control_c, 0, 64, 39
2, 34963, Control_c, 0, 64, 43
2, 34973, Note_on_c, 0, 73, 75
2, 34977, Note_on_c, 0, 60, 56
2, 34982, Control_c, 0, 64, 48
2, 35002, Control_c, 0, 64, 54
2, 35021, Control_c, 0, 64, 59
2, 35038, Note_on_c, 0, 75, 0
2, 35040, Control_c, 0, 64, 62
2, 35059, Control_c, 0, 64, 64
2, 35079, Control_c, 0, 64, 67
2, 35097, Control_c, 0, 64, 72
2, 35117, Control_c, 0, 64, 79
2, 35136, Control_c, 0, 64, 89
2, 35156, Control_c, 0, 64, 96
2, 35174, Control_c, 0, 64, 100
2, 35194, Control_c, 0, 64, 103
2, 35213, Control_c, 0, 64, 103
2, 35290, Control_c, 0, 64, 102
2, 35309, Control_c, 0, 64, 100
2, 35320, Note_on_c, 0, 60, 0
2, 35327, Control_c, 0, 64, 95
2, 35344, Note_on_c, 0, 58, 45
2, 35346, Control_c, 0, 64, 90
2, 35363, Note_on_c, 0, 77, 81
2, 35366, Control_c, 0, 64, 84
2, 35384, Control_c, 0, 64, 78
2, 35404, Control_c, 0, 64, 72
2, 35423, Control_c, 0, 64, 66
2, 35442, Control_c, 0, 64, 59
2, 35461, Control_c, 0, 64, 45
2, 35473, Control_c, 0, 64, 18
2, 35492, Control_c, 0, 64, 0
2, 35552, Control_c, 0, 64, 9
2, 35571, Control_c, 0, 64, 32
2, 35591, Control_c, 0, 64, 46
2, 35609, Control_c, 0, 64, 55
2, 35629, Control_c, 0, 64, 58
2, 35648, Control_c, 0, 64, 62
2, 35666, Control_c, 0, 64, 64
2, 35668, Note_on_c, 0, 65, 0
2, 35679, Note_on_c, 0, 61, 43
2, 35686, Control_c, 0, 64, 67
2, 35705, Control_c, 0, 64, 71
2, 35725, Control_c, 0, 64, 78
2, 35743, Control_c, 0, 64, 85
2, 35763, Control_c, 0, 64, 91
2, 35770, Note_on_c, 0, 49, 0
2, 35782, Control_c, 0, 64, 93
2, 35802, Control_c, 0, 64, 93
2, 35810, Note_on_c, 0, 73, 0
2, 35820, Control_c, 0, 64, 94
2, 35840, Control_c, 0, 64, 94
2, 35859, Control_c, 0, 64, 95
2, 35936, Control_c, 0, 64, 94
2, 35955, Control_c, 0, 64, 94
2, 35974, Control_c, 0, 64, 92
2, 35994, Control_c, 0, 64, 91
2, 36012, Control_c, 0, 64, 89
2, 36032, Control_c, 0, 64, 86
2, 36051, Control_c, 0, 64, 84
2, 36071, Control_c, 0, 64, 81
2, 36072, Note_on_c, 0, 51, 38
2, 36089, Control_c, 0, 64, 78
2, 36100, Note_on_c, 0, 67, 51
2, 36109, Control_c, 0, 64, 76
2, 36128, Control_c, 0, 64, 73
2, 36146, Control_c, 0, 64, 70
2, 36162, Note_on_c, 0, 58, 0
2, 36166, Control_c, 0, 64, 67
2, 36183, Note_on_c, 0, 61, 0
2, 36185, Control_c, 0, 64, 65
2, 36205, Control_c, 0, 64, 63
2, 36223, Control_c, 0, 64, 61
2, 36243, Control_c, 0, 64, 59
2, 36262, Control_c, 0, 64, 57
2, 36282, Control_c, 0, 64, 55
2, 36300, Control_c, 0, 64, 54
2, 36320, Control_c, 0, 64, 51
2, 36339, Control_c, 0, 64, 48
2, 36358, Control_c, 0, 64, 45
2, 36377, Control_c, 0, 64, 42
2, 36397, Control_c, 0, 64, 38
2, 36416, Control_c, 0, 64, 36
2, 36435, Control_c, 0, 64, 33
2, 36455, Control_c, 0, 64, 31
2, 36474, Control_c, 0, 64, 30
2, 36491, Note_on_c, 0, 55, 35
2, 36492, Control_c, 0, 64, 29
2, 36504, Note_on_c, 0, 75, 62
2, 36531, Control_c, 0, 64, 29
2, 36608, Control_c, 0, 64, 30
2, 36626, Control_c, 0, 64, 32
2, 36646, Control_c, 0, 64, 35
2, 36665, Control_c, 0, 64, 39
2, 36685, Control_c, 0, 64, 42
2, 36703, Control_c, 0, 64, 44
2, 36723, Control_c, 0, 64, 47
2, 36742, Control_c, 0, 64, 49
2, 36762, Control_c, 0, 64, 52
2, 36780, Control_c, 0, 64, 54
2, 36800, Control_c, 0, 64, 56
2, 36819, Control_c, 0, 64, 57
2, 36821, Note_on_c, 0, 58, 42
2, 36828, Note_on_c, 0, 73, 66
2, 36838, Control_c, 0, 64, 61
2, 36857, Control_c, 0, 64, 63
2, 36866, Note_on_c, 0, 67, 0
2, 36877, Control_c, 0, 64, 65
2, 36896, Control_c, 0, 64, 67
2, 36915, Control_c, 0, 64, 70
2, 36934, Control_c, 0, 64, 76
2, 36954, Control_c, 0, 64, 85
2, 36968, Note_on_c, 0, 77, 0
2, 36972, Control_c, 0, 64, 91
2, 36992, Control_c, 0, 64, 95
2, 37011, Control_c, 0, 64, 97
2, 37031, Control_c, 0, 64, 98
2, 37049, Control_c, 0, 64, 99
2, 37106, Note_on_c, 0, 51, 0
2, 37117, Note_on_c, 0, 75, 0
2, 37119, Note_on_c, 0, 72, 71
2, 37128, Note_on_c, 0, 73, 0
2, 37132, Note_on_c, 0, 63, 51
2, 37145, Control_c, 0, 64, 98
2, 37165, Control_c, 0, 64, 97
2, 37183, Control_c, 0, 64, 96
2, 37203, Control_c, 0, 64, 95
2, 37207, Note_on_c, 0, 55, 0
2, 37222, Control_c, 0, 64, 93
2, 37242, Control_c, 0, 64, 92
2, 37260, Control_c, 0, 64, 91
2, 37299, Control_c, 0, 64, 90
2, 37318, Control_c, 0, 64, 90
2, 37337, Control_c, 0, 64, 89
2, 37357, Control_c, 0, 64, 87
2, 37376, Control_c, 0, 64, 85
2, 37392, Control_c, 0, 64, 83
2, 37410, Control_c, 0, 64, 80
2, 37430, Note_on_c, 0, 70, 68
2, 37434, Control_c, 0, 64, 78
2, 37442, Note_on_c, 0, 53, 52
2, 37452, Control_c, 0, 64, 75
2, 37472, Control_c, 0, 64, 72
2, 37490, Note_on_c, 0, 63, 0
2, 37491, Control_c, 0, 64, 70
2, 37492, Note_on_c, 0, 58, 0
2, 37492, Note_on_c, 0, 72, 0
2, 37511, Control_c, 0, 64, 66
2, 37529, Control_c, 0, 64, 64
2, 37549, Control_c, 0, 64, 62
2, 37568, Control_c, 0, 64, 60
2, 37586, Control_c, 0, 64, 59
2, 37606, Control_c, 0, 64, 57
2, 37625, Control_c, 0, 64, 56
2, 37645, Control_c, 0, 64, 55
2, 37663, Control_c, 0, 64, 53
2, 37683, Control_c, 0, 64, 50
2, 37702, Control_c, 0, 64, 47
2, 37722, Control_c, 0, 64, 44
2, 37732, Note_on_c, 0, 63, 48
2, 37738, Note_on_c, 0, 67, 60
2, 37740, Control_c, 0, 64, 40
2, 37744, Note_on_c, 0, 70, 0
2, 37760, Control_c, 0, 64, 37
2, 37779, Control_c, 0, 64, 34
2, 37798, Control_c, 0, 64, 31
2, 37817, Control_c, 0, 64, 27
2, 37837, Control_c, 0, 64, 25
2, 37856, Control_c, 0, 64, 23
2, 37894, Control_c, 0, 64, 22
2, 38009, Control_c, 0, 64, 23
2, 38040, Note_on_c, 0, 68, 62
2, 38045, Control_c, 0, 64, 24
2, 38061, Note_on_c, 0, 61, 46
2, 38064, Control_c, 0, 64, 26
2, 38064, Note_on_c, 0, 67, 0
2, 38083, Control_c, 0, 64, 27
2, 38103, Control_c, 0, 64, 30
2, 38122, Control_c, 0, 64, 32
2, 38127, Note_on_c, 0, 63, 0
2, 38141, Control_c, 0, 64, 34
2, 38160, Control_c, 0, 64, 35
2, 38180, Control_c, 0, 64, 37
2, 38199, Control_c, 0, 64, 40
2, 38218, Control_c, 0, 64, 44
2, 38237, Control_c, 0, 64, 49
2, 38257, Control_c, 0, 64, 53
2, 38275, Control_c, 0, 64, 57
2, 38294, Control_c, 0, 64, 60
2, 38314, Control_c, 0, 64, 63
2, 38324, Note_on_c, 0, 53, 0
2, 38333, Control_c, 0, 64, 65
2, 38352, Control_c, 0, 64, 67
2, 38370, Control_c, 0, 64, 70
2, 38378, Note_on_c, 0, 68, 0
2, 38380, Note_on_c, 0, 73, 59
2, 38394, Control_c, 0, 64, 75
2, 38398, Note_on_c, 0, 65, 36
2, 38412, Control_c, 0, 64, 80
2, 38432, Control_c, 0, 64, 85
2, 38451, Control_c, 0, 64, 86
2, 38566, Control_c, 0, 64, 86
2, 38586, Control_c, 0, 64, 85
2, 38604, Control_c, 0, 64, 83
2, 38624, Control_c, 0, 64, 82
2, 38643, Control_c, 0, 64, 80
2, 38663, Control_c, 0, 64, 79
2, 38677, Note_on_c, 0, 73, 0
2, 38680, Note_on_c, 0, 65, 0
2, 38681, Control_c, 0, 64, 77
2, 38701, Control_c, 0, 64, 75
2, 38720, Control_c, 0, 64, 73
2, 38739, Control_c, 0, 64, 71
2, 38739, Note_on_c, 0, 55, 39
2, 38758, Control_c, 0, 64, 69
2, 38778, Control_c, 0, 64, 68
2, 38794, Note_on_c, 0, 72, 57
2, 38797, Control_c, 0, 64, 66
2, 38813, Note_on_c, 0, 61, 0
2, 38815, Control_c, 0, 64, 64
2, 38835, Control_c, 0, 64, 63
2, 38854, Control_c, 0, 64, 61
2, 38865, Note_on_c, 0, 72, 0
2, 38874, Control_c, 0, 64, 59
2, 38892, Control_c, 0, 64, 58
2, 38898, Note_on_c, 0, 70, 60
2, 38912, Control_c, 0, 64, 57
2, 38931, Control_c, 0, 64, 56
2, 38949, Note_on_c, 0, 70, 0
2, 38950, Control_c, 0, 64, 55
2, 38969, Control_c, 0, 64, 53
2, 38983, Note_on_c, 0, 72, 59
2, 38989, Control_c, 0, 64, 52
2, 39008, Control_c, 0, 64, 51
2, 39027, Control_c, 0, 64, 50
2, 39034, Note_on_c, 0, 72, 0
2, 39046, Control_c, 0, 64, 49
2, 39047, Note_on_c, 0, 65, 41
2, 39066, Control_c, 0, 64, 48
2, 39067, Note_on_c, 0, 70, 65
2, 39084, Control_c, 0, 64, 47
2, 39104, Control_c, 0, 64, 46
2, 39105, Note_on_c, 0, 70, 0
2, 39123, Control_c, 0, 64, 44
2, 39135, Note_on_c, 0, 72, 62
2, 39143, Control_c, 0, 64, 43
2, 39161, Control_c, 0, 64, 41
2, 39181, Control_c, 0, 64, 39
2, 39182, Note_on_c, 0, 72, 0
2, 39200, Control_c, 0, 64, 37
2, 39203, Note_on_c, 0, 70, 62
2, 39219, Control_c, 0, 64, 36
2, 39238, Control_c, 0, 64, 34
2, 39246, Note_on_c, 0, 70, 0
2, 39258, Control_c, 0, 64, 32
2, 39267, Note_on_c, 0, 72, 66
2, 39277, Control_c, 0, 64, 30
2, 39295, Control_c, 0, 64, 29
2, 39311, Note_on_c, 0, 72, 0
2, 39315, Control_c, 0, 64, 27
2, 39338, Control_c, 0, 64, 27
2, 39340, Note_on_c, 0, 70, 65
2, 39353, Note_on_c, 0, 65, 0
2, 39367, Note_on_c, 0, 63, 45
2, 39472, Control_c, 0, 64, 29
2, 39490, Control_c, 0, 64, 35
2, 39510, Control_c, 0, 64, 40
2, 39529, Control_c, 0, 64, 46
2, 39549, Control_c, 0, 64, 51
2, 39567, Control_c, 0, 64, 57
2, 39587, Control_c, 0, 64, 60
2, 39606, Control_c, 0, 64, 63
2, 39625, Control_c, 0, 64, 65
2, 39644, Control_c, 0, 64, 68
2, 39664, Control_c, 0, 64, 72
2, 39673, Note_on_c, 0, 61, 46
2, 39683, Control_c, 0, 64, 78
2, 39691, Note_on_c, 0, 55, 0
2, 39702, Control_c, 0, 64, 87
2, 39718, Note_on_c, 0, 63, 0
2, 39721, Control_c, 0, 64, 94
2, 39741, Control_c, 0, 64, 97
2, 39759, Control_c, 0, 64, 99
2, 39779, Control_c, 0, 64, 100
2, 39798, Control_c, 0, 64, 100
2, 39835, Note_on_c, 0, 70, 0
2, 39952, Control_c, 0, 64, 100
2, 39970, Control_c, 0, 64, 99
2, 39990, Control_c, 0, 64, 98
2, 40009, Control_c, 0, 64, 97
2, 40029, Control_c, 0, 64, 95
2, 40047, Control_c, 0, 64, 93
2, 40067, Control_c, 0, 64, 91
2, 40086, Control_c, 0, 64, 88
2, 40099, Note_on_c, 0, 60, 43
2, 40105, Control_c, 0, 64, 84
2, 40114, Note_on_c, 0, 56, 50
2, 40124, Control_c, 0, 64, 80
2, 40144, Control_c, 0, 64, 76
2, 40149, Note_on_c, 0, 61, 0
2, 40163, Control_c, 0, 64, 72
2, 40182, Control_c, 0, 64, 68
2, 40201, Control_c, 0, 64, 64
2, 40221, Control_c, 0, 64, 59
2, 40239, Control_c, 0, 64, 54
2, 40259, Control_c, 0, 64, 49
2, 40272, Control_c, 0, 64, 46
2, 40291, Control_c, 0, 64, 44
2, 40310, Control_c, 0, 64, 42
2, 40328, Control_c, 0, 64, 40
2, 40348, Control_c, 0, 64, 38
2, 40367, Control_c, 0, 64, 37
2, 40387, Control_c, 0, 64, 36
2, 40502, Note_on_c, 0, 63, 48
2, 40806, Note_on_c, 0, 55, 41
2, 40810, Note_on_c, 0, 56, 0
2, 40817, Note_on_c, 0, 65, 54
2, 40869, Note_on_c, 0, 63, 0
2, 41096, Control_c, 0, 64, 35
2, 41109, Note_on_c, 0, 67, 64
2, 41116, Control_c, 0, 64, 34
2, 41135, Control_c, 0, 64, 31
2, 41146, Note_on_c, 0, 65, 0
2, 41154, Control_c, 0, 64, 27
2, 41173, Control_c, 0, 64, 20
2, 41193, Control_c, 0, 64, 9
2, 41212, Control_c, 0, 64, 0
2, 41427, Note_on_c, 0, 68, 72
2, 41436, Note_on_c, 0, 53, 46
2, 41489, Note_on_c, 0, 67, 0
2, 41502, Note_on_c, 0, 55, 0
2, 41749, Note_on_c, 0, 68, 0
2, 41751, Note_on_c, 0, 67, 68
2, 42064, Note_on_c, 0, 68, 70
2, 42075, Note_on_c, 0, 49, 55
2, 42082, Note_on_c, 0, 67, 0
2, 42105, Note_on_c, 0, 53, 0
2, 42326, Control_c, 0, 64, 21
2, 42346, Control_c, 0, 64, 42
2, 42365, Control_c, 0, 64, 55
2, 42384, Control_c, 0, 64, 62
2, 42388, Note_on_c, 0, 77, 72
2, 42403, Control_c, 0, 64, 64
2, 42423, Control_c, 0, 64, 66
2, 42442, Control_c, 0, 64, 71
2, 42461, Control_c, 0, 64, 78
2, 42480, Control_c, 0, 64, 88
2, 42500, Control_c, 0, 64, 95
2, 42509, Note_on_c, 0, 49, 0
2, 42512, Note_on_c, 0, 68, 0
2, 42519, Control_c, 0, 64, 100
2, 42529, Note_on_c, 0, 60, 0
2, 42538, Control_c, 0, 64, 106
2, 42557, Control_c, 0, 64, 118
2, 42576, Control_c, 0, 64, 127
2, 42749, Control_c, 0, 64, 110
2, 42750, Note_on_c, 0, 51, 48
2, 42765, Note_on_c, 0, 60, 46
2, 42767, Note_on_c, 0, 75, 69
2, 42768, Control_c, 0, 64, 100
2, 42788, Control_c, 0, 64, 92
2, 42806, Control_c, 0, 64, 85
2, 42810, Note_on_c, 0, 77, 0
2, 42826, Control_c, 0, 64, 78
2, 42845, Control_c, 0, 64, 72
2, 42864, Control_c, 0, 64, 65
2, 42882, Note_on_c, 0, 60, 0
2, 42883, Control_c, 0, 64, 59
2, 42893, Note_on_c, 0, 58, 59
2, 42903, Control_c, 0, 64, 52
2, 42922, Control_c, 0, 64, 46
2, 42941, Control_c, 0, 64, 43
2, 42957, Note_on_c, 0, 58, 0
2, 42960, Control_c, 0, 64, 42
2, 42980, Control_c, 0, 64, 40
2, 42994, Note_on_c, 0, 60, 53
2, 42999, Control_c, 0, 64, 35
2, 43018, Control_c, 0, 64, 29
2, 43037, Control_c, 0, 64, 19
2, 43056, Control_c, 0, 64, 0
2, 43056, Note_on_c, 0, 60, 0
2, 43071, Note_on_c, 0, 58, 54
2, 43076, Note_on_c, 0, 68, 63
2, 43126, Note_on_c, 0, 58, 0
2, 43161, Note_on_c, 0, 60, 57
2, 43206, Note_on_c, 0, 60, 0
2, 43224, Note_on_c, 0, 58, 61
2, 43273, Note_on_c, 0, 58, 0
2, 43306, Note_on_c, 0, 60, 61
2, 43350, Note_on_c, 0, 68, 0
2, 43358, Note_on_c, 0, 67, 57
2, 43371, Note_on_c, 0, 60, 0
2, 43397, Note_on_c, 0, 58, 54
2, 43593, Control_c, 0, 64, 31
2, 43612, Control_c, 0, 64, 46
2, 43631, Control_c, 0, 64, 54
2, 43650, Control_c, 0, 64, 58
2, 43670, Control_c, 0, 64, 62
2, 43672, Note_on_c, 0, 73, 61
2, 43689, Control_c, 0, 64, 66
2, 43700, Note_on_c, 0, 58, 0
2, 43708, Control_c, 0, 64, 68
2, 43727, Control_c, 0, 64, 72
2, 43733, Note_on_c, 0, 51, 0
2, 43747, Control_c, 0, 64, 78
2, 43765, Control_c, 0, 64, 83
2, 43785, Control_c, 0, 64, 86
2, 43804, Control_c, 0, 64, 88
2, 43824, Control_c, 0, 64, 89
2, 43900, Note_on_c, 0, 75, 0
2, 43976, Control_c, 0, 64, 89
2, 43996, Control_c, 0, 64, 88
2, 44015, Control_c, 0, 64, 87
2, 44034, Control_c, 0, 64, 86
2, 44053, Control_c, 0, 64, 84
2, 44073, Control_c, 0, 64, 81
2, 44092, Control_c, 0, 64, 77
2, 44094, Note_on_c, 0, 72, 60
2, 44098, Note_on_c, 0, 56, 41
2, 44111, Control_c, 0, 64, 73
2, 44111, Note_on_c, 0, 44, 39
2, 44130, Control_c, 0, 64, 70
2, 44152, Control_c, 0, 64, 67
2, 44170, Control_c, 0, 64, 64
2, 44180, Note_on_c, 0, 67, 0
2, 44190, Control_c, 0, 64, 61
2, 44199, Note_on_c, 0, 73, 0
2, 44209, Control_c, 0, 64, 56
2, 44229, Control_c, 0, 64, 47
2, 44247, Control_c, 0, 64, 38
2, 44267, Control_c, 0, 64, 32
2, 44286, Control_c, 0, 64, 29
2, 44305, Control_c, 0, 64, 26
2, 44324, Control_c, 0, 64, 23
2, 44344, Control_c, 0, 64, 20
2, 44363, Control_c, 0, 64, 18
2, 44382, Control_c, 0, 64, 13
2, 44401, Control_c, 0, 64, 11
2, 44421, Control_c, 0, 64, 9
2, 44459, Control_c, 0, 64, 0
2, 44508, Note_on_c, 0, 68, 52
2, 44612, Control_c, 0, 64, 9
2, 44619, Note_on_c, 0, 72, 0
2, 44632, Control_c, 0, 64, 11
2, 44670, Control_c, 0, 64, 13
2, 44689, Control_c, 0, 64, 17
2, 44709, Control_c, 0, 64, 18
2, 44727, Control_c, 0, 64, 19
2, 44747, Control_c, 0, 64, 20
2, 44785, Control_c, 0, 64, 21
2, 44804, Control_c, 0, 64, 22
2, 44818, Note_on_c, 0, 72, 56
2, 44824, Control_c, 0, 64, 24
2, 44843, Control_c, 0, 64, 26
2, 44862, Control_c, 0, 64, 28
2, 44881, Control_c, 0, 64, 31
2, 44896, Note_on_c, 0, 68, 0
2, 44901, Control_c, 0, 64, 34
2, 44919, Control_c, 0, 64, 37
2, 44939, Control_c, 0, 64, 40
2, 44958, Control_c, 0, 64, 43
2, 44978, Control_c, 0, 64, 45
2, 44996, Control_c, 0, 64, 48
2, 45015, Control_c, 0, 64, 51
2, 45035, Control_c, 0, 64, 53
2, 45053, Control_c, 0, 64, 55
2, 45071, Note_on_c, 0, 44, 0
2, 45073, Control_c, 0, 64, 58
2, 45091, Control_c, 0, 64, 60
2, 45113, Control_c, 0, 64, 63
2, 45131, Control_c, 0, 64, 65
2, 45138, Note_on_c, 0, 76, 64
2, 45151, Control_c, 0, 64, 66
2, 45170, Control_c, 0, 64, 68
2, 45189, Control_c, 0, 64, 72
2, 45204, Note_on_c, 0, 72, 0
2, 45205, Note_on_c, 0, 56, 0
2, 45208, Control_c, 0, 64, 77
2, 45228, Control_c, 0, 64, 81
2, 45247, Control_c, 0, 64, 84
2, 45266, Control_c, 0, 64, 85
2, 45400, Control_c, 0, 64, 84
2, 45420, Control_c, 0, 64, 83
2, 45439, Control_c, 0, 64, 83
2, 45459, Control_c, 0, 64, 82
2, 45465, Note_on_c, 0, 77, 64
2, 45477, Control_c, 0, 64, 81
2, 45496, Control_c, 0, 64, 80
2, 45516, Control_c, 0, 64, 79
2, 45534, Control_c, 0, 64, 78
2, 45539, Note_on_c, 0, 76, 0
2, 45554, Control_c, 0, 64, 76
2, 45573, Control_c, 0, 64, 75
2, 45593, Control_c, 0, 64, 73
2, 45611, Control_c, 0, 64, 72
2, 45631, Control_c, 0, 64, 70
2, 45650, Control_c, 0, 64, 69
2, 45669, Control_c, 0, 64, 68
2, 45688, Control_c, 0, 64, 67
2, 45708, Control_c, 0, 64, 66
2, 45727, Control_c, 0, 64, 65
2, 45746, Control_c, 0, 64, 64
2, 45765, Control_c, 0, 64, 63
2, 45785, Control_c, 0, 64, 63
2, 45785, Note_on_c, 0, 79, 70
2, 45804, Control_c, 0, 64, 62
2, 45811, Note_on_c, 0, 56, 48
2, 45823, Control_c, 0, 64, 61
2, 45842, Control_c, 0, 64, 59
2, 45862, Control_c, 0, 64, 57
2, 45876, Note_on_c, 0, 77, 0
2, 45880, Control_c, 0, 64, 55
2, 45900, Control_c, 0, 64, 53
2, 45919, Control_c, 0, 64, 51
2, 45939, Control_c, 0, 64, 49
2, 45957, Control_c, 0, 64, 46
2, 45976, Control_c, 0, 64, 42
2, 45996, Control_c, 0, 64, 39
2, 46014, Control_c, 0, 64, 37
2, 46034, Control_c, 0, 64, 36
2, 46053, Control_c, 0, 64, 35
2, 46074, Control_c, 0, 64, 34
2, 46090, Note_on_c, 0, 76, 70
2, 46093, Control_c, 0, 64, 34
2, 46102, Note_on_c, 0, 55, 52
2, 46132, Control_c, 0, 64, 33
2, 46135, Note_on_c, 0, 56, 0
2, 46192, Note_on_c, 0, 79, 0
2, 46382, Control_c, 0, 64, 34
2, 46389, Note_on_c, 0, 77, 76
2, 46391, Note_on_c, 0, 53, 55
2, 46401, Control_c, 0, 64, 34
2, 46416, Note_on_c, 0, 55, 0
2, 46439, Control_c, 0, 64, 35
2, 46459, Control_c, 0, 64, 35
2, 46478, Control_c, 0, 64, 36
2, 46516, Control_c, 0, 64, 36
2, 46535, Control_c, 0, 64, 37
2, 46554, Control_c, 0, 64, 37
2, 46573, Control_c, 0, 64, 38
2, 46593, Control_c, 0, 64, 39
2, 46677, Note_on_c, 0, 76, 0
2, 46689, Control_c, 0, 64, 39
2, 46789, Note_on_c, 0, 79, 77
2, 46810, Note_on_c, 0, 52, 50
2, 46826, Note_on_c, 0, 53, 0
2, 46919, Note_on_c, 0, 77, 0
2, 47093, Control_c, 0, 64, 40
2, 47112, Control_c, 0, 64, 40
2, 47131, Control_c, 0, 64, 41
2, 47150, Control_c, 0, 64, 42
2, 47170, Control_c, 0, 64, 44
2, 47179, Note_on_c, 0, 55, 48
2, 47189, Control_c, 0, 64, 45
2, 47208, Control_c, 0, 64, 46
2, 47227, Control_c, 0, 64, 48
2, 47247, Control_c, 0, 64, 50
2, 47265, Control_c, 0, 64, 52
2, 47285, Control_c, 0, 64, 53
2, 47304, Control_c, 0, 64, 55
2, 47324, Control_c, 0, 64, 56
2, 47342, Control_c, 0, 64, 57
2, 47362, Control_c, 0, 64, 59
2, 47381, Control_c, 0, 64, 61
2, 47399, Control_c, 0, 64, 62
2, 47419, Control_c, 0, 64, 64
2, 47438, Control_c, 0, 64, 67
2, 47458, Control_c, 0, 64, 71
2, 47467, Note_on_c, 0, 58, 56
2, 47476, Control_c, 0, 64, 76
2, 47496, Control_c, 0, 64, 83
2, 47515, Control_c, 0, 64, 90
2, 47535, Control_c, 0, 64, 96
2, 47553, Control_c, 0, 64, 106
2, 47573, Control_c, 0, 64, 127
2, 47726, Note_on_c, 0, 52, 0
2, 47759, Note_on_c, 0, 55, 0
2, 47789, Note_on_c, 0, 58, 0
2, 47789, Note_on_c, 0, 61, 61
2, 48053, Control_c, 0, 64, 107
2, 48072, Control_c, 0, 64, 97
2, 48091, Control_c, 0, 64, 88
2, 48097, Note_on_c, 0, 48, 60
2, 48110, Control_c, 0, 64, 82
2, 48130, Control_c, 0, 64, 78
2, 48149, Control_c, 0, 64, 74
2, 48168, Control_c, 0, 64, 72
2, 48187, Control_c, 0, 64, 70
2, 48207, Control_c, 0, 64, 68
2, 48225, Control_c, 0, 64, 66
2, 48245, Control_c, 0, 64, 64
2, 48264, Control_c, 0, 64, 63
2, 48284, Control_c, 0, 64, 61
2, 48302, Control_c, 0, 64, 60
2, 48322, Control_c, 0, 64, 59
2, 48335, Note_on_c, 0, 61, 0
2, 48341, Control_c, 0, 64, 59
2, 48359, Control_c, 0, 64, 58
2, 48379, Control_c, 0, 64, 57
2, 48398, Control_c, 0, 64, 56
2, 48414, Note_on_c, 0, 53, 60
2, 48418, Control_c, 0, 64, 55
2, 48436, Control_c, 0, 64, 54
2, 48456, Control_c, 0, 64, 53
2, 48475, Control_c, 0, 64, 52
2, 48495, Control_c, 0, 64, 51
2, 48513, Control_c, 0, 64, 50
2, 48533, Control_c, 0, 64, 49
2, 48552, Control_c, 0, 64, 47
2, 48571, Control_c, 0, 64, 46
2, 48590, Control_c, 0, 64, 45
2, 48610, Control_c, 0, 64, 44
2, 48629, Control_c, 0, 64, 44
2, 48648, Control_c, 0, 64, 43
2, 48667, Control_c, 0, 64, 42
2, 48705, Control_c, 0, 64, 42
2, 48737, Note_on_c, 0, 52, 55
2, 48752, Note_on_c, 0, 53, 0
2, 49047, Note_on_c, 0, 52, 0
2, 49051, Note_on_c, 0, 55, 49
2, 49070, Control_c, 0, 64, 41
2, 49090, Control_c, 0, 64, 41
2, 49358, Control_c, 0, 64, 41
2, 49435, Control_c, 0, 64, 42
2, 49497, Note_on_c, 0, 53, 35
2, 49507, Note_on_c, 0, 56, 46
2, 49529, Note_on_c, 0, 79, 0
2, 49550, Control_c, 0, 64, 42
2, 49655, Note_on_c, 0, 48, 0
2, 49669, Note_on_c, 0, 55, 0
2, 49799, Control_c, 0, 64, 43
2, 49929, Note_on_c, 0, 72, 48
2, 50144, Control_c, 0, 64, 43
2, 50163, Control_c, 0, 64, 44
2, 50182, Control_c, 0, 64, 46
2, 50202, Control_c, 0, 64, 48
2, 50220, Control_c, 0, 64, 49
2, 50239, Control_c, 0, 64, 51
2, 50252, Note_on_c, 0, 77, 50
2, 50259, Control_c, 0, 64, 53
2, 50278, Control_c, 0, 64, 55
2, 50297, Control_c, 0, 64, 57
2, 50316, Control_c, 0, 64, 58
2, 50336, Control_c, 0, 64, 61
2, 50354, Control_c, 0, 64, 63
2, 50374, Control_c, 0, 64, 65
2, 50393, Control_c, 0, 64, 66
2, 50413, Control_c, 0, 64, 68
2, 50431, Control_c, 0, 64, 72
2, 50451, Control_c, 0, 64, 76
2, 50470, Control_c, 0, 64, 82
2, 50490, Control_c, 0, 64, 86
2, 50508, Control_c, 0, 64, 88
2, 50528, Control_c, 0, 64, 89
2, 50547, Control_c, 0, 64, 90
2, 50566, Control_c, 0, 64, 91
2, 50566, Note_on_c, 0, 80, 61
2, 50616, Note_on_c, 0, 77, 0
2, 50796, Control_c, 0, 64, 90
2, 50855, Control_c, 0, 64, 90
2, 50905, Note_on_c, 0, 74, 53
2, 50913, Control_c, 0, 64, 89
2, 50952, Control_c, 0, 64, 89
2, 50953, Note_on_c, 0, 53, 0
2, 50963, Note_on_c, 0, 80, 0
2, 50971, Control_c, 0, 64, 88
2, 50990, Control_c, 0, 64, 87
2, 51010, Control_c, 0, 64, 87
2, 51016, Note_on_c, 0, 72, 0
2, 51048, Control_c, 0, 64, 86
2, 51067, Control_c, 0, 64, 86
2, 51087, Control_c, 0, 64, 85
2, 51105, Control_c, 0, 64, 85
2, 51125, Control_c, 0, 64, 84
2, 51144, Control_c, 0, 64, 84
2, 51164, Control_c, 0, 64, 83
2, 51182, Control_c, 0, 64, 81
2, 51202, Control_c, 0, 64, 80
2, 51203, Note_on_c, 0, 77, 60
2, 51210, Note_on_c, 0, 53, 40
2, 51218, Note_on_c, 0, 74, 0
2, 51221, Control_c, 0, 64, 78
2, 51239, Control_c, 0, 64, 77
2, 51259, Control_c, 0, 64, 75
2, 51278, Control_c, 0, 64, 73
2, 51298, Control_c, 0, 64, 71
2, 51316, Control_c, 0, 64, 70
2, 51336, Control_c, 0, 64, 68
2, 51355, Control_c, 0, 64, 67
2, 51375, Control_c, 0, 64, 66
2, 51393, Control_c, 0, 64, 64
2, 51413, Control_c, 0, 64, 63
2, 51432, Control_c, 0, 64, 63
2, 51451, Control_c, 0, 64, 62
2, 51470, Control_c, 0, 64, 61
2, 51490, Control_c, 0, 64, 61
2, 51509, Control_c, 0, 64, 60
2, 51528, Control_c, 0, 64, 59
2, 51529, Note_on_c, 0, 51, 45
2, 51533, Note_on_c, 0, 71, 56
2, 51547, Control_c, 0, 64, 59
2, 51562, Note_on_c, 0, 53, 0
2, 51567, Control_c, 0, 64, 58
2, 51585, Control_c, 0, 64, 57
2, 51605, Control_c, 0, 64, 56
2, 51624, Control_c, 0, 64, 55
2, 51644, Control_c, 0, 64, 54
2, 51662, Control_c, 0, 64, 53
2, 51682, Control_c, 0, 64, 51
2, 51701, Control_c, 0, 64, 49
2, 51711, Note_on_c, 0, 77, 0
2, 51719, Control_c, 0, 64, 46
2, 51739, Control_c, 0, 64, 43
2, 51758, Control_c, 0, 64, 41
2, 51778, Control_c, 0, 64, 40
2, 51796, Control_c, 0, 64, 38
2, 51815, Control_c, 0, 64, 37
2, 51836, Control_c, 0, 64, 36
2, 51839, Note_on_c, 0, 51, 0
2, 51855, Control_c, 0, 64, 34
2, 51855, Note_on_c, 0, 50, 48
2, 51855, Note_on_c, 0, 56, 0
2, 51868, Note_on_c, 0, 71, 0
2, 51874, Control_c, 0, 64, 34
2, 51880, Note_on_c, 0, 72, 54
2, 51894, Control_c, 0, 64, 33
2, 51971, Control_c, 0, 64, 35
2, 51989, Control_c, 0, 64, 39
2, 52009, Control_c, 0, 64, 46
2, 52028, Control_c, 0, 64, 51
2, 52048, Control_c, 0, 64, 56
2, 52066, Control_c, 0, 64, 59
2, 52086, Control_c, 0, 64, 62
2, 52105, Control_c, 0, 64, 65
2, 52125, Control_c, 0, 64, 67
2, 52143, Control_c, 0, 64, 70
2, 52155, Note_on_c, 0, 72, 0
2, 52163, Control_c, 0, 64, 74
2, 52182, Control_c, 0, 64, 78
2, 52200, Control_c, 0, 64, 82
2, 52220, Control_c, 0, 64, 84
2, 52267, Note_on_c, 0, 55, 37
2, 52272, Note_on_c, 0, 50, 0
2, 52277, Control_c, 0, 64, 84
2, 52316, Control_c, 0, 64, 83
2, 52318, Note_on_c, 0, 72, 56
2, 52335, Control_c, 0, 64, 82
2, 52354, Control_c, 0, 64, 80
2, 52374, Control_c, 0, 64, 77
2, 52389, Note_on_c, 0, 72, 0
2, 52393, Control_c, 0, 64, 74
2, 52412, Control_c, 0, 64, 71
2, 52431, Control_c, 0, 64, 70
2, 52433, Note_on_c, 0, 71, 52
2, 52451, Control_c, 0, 64, 68
2, 52469, Control_c, 0, 64, 67
2, 52486, Note_on_c, 0, 71, 0
2, 52489, Control_c, 0, 64, 65
2, 52508, Control_c, 0, 64, 63
2, 52528, Control_c, 0, 64, 61
2, 52536, Note_on_c, 0, 72, 50
2, 52546, Control_c, 0, 64, 59
2, 52566, Control_c, 0, 64, 58
2, 52582, Note_on_c, 0, 72, 0
2, 52585, Control_c, 0, 64, 58
2, 52603, Note_on_c, 0, 71, 54
2, 52605, Control_c, 0, 64, 57
2, 52623, Control_c, 0, 64, 56
2, 52643, Control_c, 0, 64, 55
2, 52643, Note_on_c, 0, 59, 47
2, 52655, Note_on_c, 0, 71, 0
2, 52662, Control_c, 0, 64, 55
2, 52686, Note_on_c, 0, 72, 59
2, 52700, Control_c, 0, 64, 54
2, 52719, Control_c, 0, 64, 53
2, 52725, Note_on_c, 0, 72, 0
2, 52739, Control_c, 0, 64, 52
2, 52757, Control_c, 0, 64, 50
2, 52766, Note_on_c, 0, 71, 47
2, 52777, Control_c, 0, 64, 45
2, 52799, Control_c, 0, 64, 38
2, 52800, Note_on_c, 0, 71, 0
2, 52805, Note_on_c, 0, 72, 64
2, 52818, Control_c, 0, 64, 19
2, 52837, Control_c, 0, 64, 0
2, 52855, Note_on_c, 0, 72, 0
2, 52888, Note_on_c, 0, 71, 63
2, 52958, Note_on_c, 0, 62, 32
2, 53183, Control_c, 0, 64, 15
2, 53203, Control_c, 0, 64, 47
2, 53221, Control_c, 0, 64, 59
2, 53222, Note_on_c, 0, 71, 0
2, 53231, Note_on_c, 0, 72, 61
2, 53240, Control_c, 0, 64, 63
2, 53243, Note_on_c, 0, 67, 37
2, 53260, Control_c, 0, 64, 64
2, 53279, Control_c, 0, 64, 66
2, 53298, Control_c, 0, 64, 69
2, 53299, Note_on_c, 0, 55, 0
2, 53317, Control_c, 0, 64, 76
2, 53336, Note_on_c, 0, 59, 0
2, 53337, Control_c, 0, 64, 83
2, 53355, Control_c, 0, 64, 89
2, 53375, Control_c, 0, 64, 92
2, 53394, Control_c, 0, 64, 93
2, 53469, Note_on_c, 0, 72, 0
2, 53490, Control_c, 0, 64, 92
2, 53505, Note_on_c, 0, 56, 55
2, 53506, Control_c, 0, 64, 91
2, 53522, Note_on_c, 0, 67, 0
2, 53526, Control_c, 0, 64, 88
2, 53545, Control_c, 0, 64, 85
2, 53564, Control_c, 0, 64, 81
2, 53575, Note_on_c, 0, 62, 0
2, 53583, Control_c, 0, 64, 78
2, 53599, Note_on_c, 0, 74, 56
2, 53603, Control_c, 0, 64, 74
2, 53621, Control_c, 0, 64, 71
2, 53641, Control_c, 0, 64, 68
2, 53660, Control_c, 0, 64, 65
2, 53668, Note_on_c, 0, 74, 0
2, 53680, Control_c, 0, 64, 63
2, 53698, Control_c, 0, 64, 61
2, 53705, Note_on_c, 0, 72, 58
2, 53718, Control_c, 0, 64, 60
2, 53737, Control_c, 0, 64, 59
2, 53747, Note_on_c, 0, 72, 0
2, 53757, Control_c, 0, 64, 58
2, 53775, Control_c, 0, 64, 57
2, 53788, Note_on_c, 0, 74, 59
2, 53795, Control_c, 0, 64, 56
2, 53802, Note_on_c, 0, 67, 52
2, 53814, Control_c, 0, 64, 55
2, 53833, Control_c, 0, 64, 54
2, 53837, Note_on_c, 0, 74, 0
2, 53851, Note_on_c, 0, 72, 62
2, 53852, Control_c, 0, 64, 53
2, 53872, Control_c, 0, 64, 53
2, 53893, Note_on_c, 0, 72, 0
2, 53931, Note_on_c, 0, 74, 56
2, 53976, Note_on_c, 0, 74, 0
2, 53981, Note_on_c, 0, 72, 66
2, 54021, Note_on_c, 0, 72, 0
2, 54052, Note_on_c, 0, 74, 64
2, 54080, Note_on_c, 0, 67, 0
2, 54082, Note_on_c, 0, 65, 44
2, 54111, Note_on_c, 0, 72, 69
2, 54113, Note_on_c, 0, 74, 0
2, 54160, Control_c, 0, 64, 52
2, 54255, Control_c, 0, 64, 53
2, 54275, Control_c, 0, 64, 53
2, 54294, Control_c, 0, 64, 54
2, 54313, Control_c, 0, 64, 56
2, 54332, Control_c, 0, 64, 57
2, 54352, Control_c, 0, 64, 59
2, 54359, Note_on_c, 0, 72, 0
2, 54371, Control_c, 0, 64, 61
2, 54380, Note_on_c, 0, 71, 63
2, 54387, Note_on_c, 0, 68, 45
2, 54389, Control_c, 0, 64, 62
2, 54409, Control_c, 0, 64, 63
2, 54420, Note_on_c, 0, 65, 0
2, 54428, Control_c, 0, 64, 65
2, 54447, Control_c, 0, 64, 68
2, 54466, Control_c, 0, 64, 72
2, 54486, Control_c, 0, 64, 78
2, 54505, Control_c, 0, 64, 86
2, 54524, Control_c, 0, 64, 91
2, 54536, Note_on_c, 0, 71, 0
2, 54539, Note_on_c, 0, 72, 66
2, 54543, Control_c, 0, 64, 94
2, 54563, Control_c, 0, 64, 97
2, 54581, Control_c, 0, 64, 98
2, 54601, Control_c, 0, 64, 98
2, 54678, Control_c, 0, 64, 98
2, 54697, Control_c, 0, 64, 97
2, 54717, Control_c, 0, 64, 95
2, 54735, Control_c, 0, 64, 93
2, 54755, Control_c, 0, 64, 90
2, 54774, Control_c, 0, 64, 86
2, 54793, Control_c, 0, 64, 82
2, 54809, Note_on_c, 0, 59, 48
2, 54812, Control_c, 0, 64, 78
2, 54821, Note_on_c, 0, 74, 57
2, 54828, Note_on_c, 0, 72, 0
2, 54832, Control_c, 0, 64, 75
2, 54851, Control_c, 0, 64, 72
2, 54869, Control_c, 0, 64, 70
2, 54889, Control_c, 0, 64, 68
2, 54908, Control_c, 0, 64, 65
2, 54927, Control_c, 0, 64, 63
2, 54946, Control_c, 0, 64, 59
2, 54966, Control_c, 0, 64, 55
2, 54971, Note_on_c, 0, 68, 0
2, 54985, Control_c, 0, 64, 50
2, 54986, Note_on_c, 0, 56, 0
2, 55004, Control_c, 0, 64, 45
2, 55023, Control_c, 0, 64, 42
2, 55043, Control_c, 0, 64, 39
2, 55061, Control_c, 0, 64, 37
2, 55081, Control_c, 0, 64, 36
2, 55100, Control_c, 0, 64, 35
2, 55120, Control_c, 0, 64, 35
2, 55194, Note_on_c, 0, 79, 61
2, 55312, Control_c, 0, 64, 35
2, 55331, Control_c, 0, 64, 36
2, 55349, Control_c, 0, 64, 37
2, 55369, Control_c, 0, 64, 39
2, 55388, Control_c, 0, 64, 43
2, 55407, Control_c, 0, 64, 46
2, 55426, Control_c, 0, 64, 49
2, 55446, Control_c, 0, 64, 52
2, 55465, Control_c, 0, 64, 54
2, 55484, Control_c, 0, 64, 57
2, 55503, Control_c, 0, 64, 59
2, 55507, Note_on_c, 0, 77, 65
2, 55510, Note_on_c, 0, 62, 44
2, 55523, Control_c, 0, 64, 61
2, 55541, Control_c, 0, 64, 63
2, 55561, Control_c, 0, 64, 65
2, 55580, Control_c, 0, 64, 68
2, 55586, Note_on_c, 0, 79, 0
2, 55600, Control_c, 0, 64, 73
2, 55618, Control_c, 0, 64, 79
2, 55638, Control_c, 0, 64, 86
2, 55658, Control_c, 0, 64, 92
2, 55678, Control_c, 0, 64, 97
2, 55697, Control_c, 0, 64, 105
2, 55717, Control_c, 0, 64, 127
2, 55789, Note_on_c, 0, 74, 0
2, 55830, Note_on_c, 0, 80, 76
2, 55880, Note_on_c, 0, 77, 0
2, 56140, Note_on_c, 0, 71, 76
2, 56164, Note_on_c, 0, 67, 49
2, 56235, Control_c, 0, 64, 106
2, 56254, Control_c, 0, 64, 94
2, 56274, Control_c, 0, 64, 83
2, 56292, Control_c, 0, 64, 73
2, 56312, Control_c, 0, 64, 65
2, 56312, Note_on_c, 0, 80, 0
2, 56331, Control_c, 0, 64, 55
2, 56350, Control_c, 0, 64, 38
2, 56369, Control_c, 0, 64, 29
2, 56408, Control_c, 0, 64, 27
2, 56426, Control_c, 0, 64, 21
2, 56446, Control_c, 0, 64, 0
2, 56457, Note_on_c, 0, 80, 72
2, 56711, Control_c, 0, 64, 17
2, 56730, Control_c, 0, 64, 29
2, 56749, Control_c, 0, 64, 41
2, 56769, Control_c, 0, 64, 49
2, 56786, Note_on_c, 0, 79, 76
2, 56788, Control_c, 0, 64, 55
2, 56801, Note_on_c, 0, 55, 45
2, 56801, Note_on_c, 0, 67, 0
2, 56807, Control_c, 0, 64, 57
2, 56826, Control_c, 0, 64, 58
2, 56846, Control_c, 0, 64, 58
2, 56864, Control_c, 0, 64, 60
2, 56879, Note_on_c, 0, 80, 0
2, 56884, Control_c, 0, 64, 61
2, 56898, Note_on_c, 0, 62, 0
2, 56903, Control_c, 0, 64, 62
2, 56923, Control_c, 0, 64, 63
2, 56941, Control_c, 0, 64, 63
2, 56960, Control_c, 0, 64, 64
2, 56980, Control_c, 0, 64, 66
2, 56997, Note_on_c, 0, 55, 0
2, 56999, Control_c, 0, 64, 70
2, 57003, Note_on_c, 0, 59, 0
2, 57018, Control_c, 0, 64, 76
2, 57037, Control_c, 0, 64, 90
2, 57057, Control_c, 0, 64, 112
2, 57075, Control_c, 0, 64, 127
2, 57109, Note_on_c, 0, 77, 75
2, 57176, Note_on_c, 0, 71, 0
2, 57177, Note_on_c, 0, 79, 0
2, 57479, Control_c, 0, 64, 104
2, 57495, Note_on_c, 0, 75, 72
2, 57498, Control_c, 0, 64, 87
2, 57502, Note_on_c, 0, 60, 52
2, 57507, Note_on_c, 0, 77, 0
2, 57517, Control_c, 0, 64, 75
2, 57537, Control_c, 0, 64, 67
2, 57555, Control_c, 0, 64, 61
2, 57575, Control_c, 0, 64, 52
2, 57597, Control_c, 0, 64, 42
2, 57616, Control_c, 0, 64, 39
2, 57674, Control_c, 0, 64, 38
2, 57712, Control_c, 0, 64, 38
2, 57732, Control_c, 0, 64, 37
2, 57809, Control_c, 0, 64, 38
2, 57827, Control_c, 0, 64, 41
2, 57847, Control_c, 0, 64, 46
2, 57866, Control_c, 0, 64, 53
2, 57880, Note_on_c, 0, 84, 82
2, 57885, Control_c, 0, 64, 58
2, 57904, Control_c, 0, 64, 62
2, 57924, Control_c, 0, 64, 64
2, 57943, Control_c, 0, 64, 67
2, 57961, Control_c, 0, 64, 72
2, 57981, Control_c, 0, 64, 85
2, 57995, Note_on_c, 0, 75, 0
2, 58000, Control_c, 0, 64, 115
2, 58020, Control_c, 0, 64, 127
2, 58195, Note_on_c, 0, 77, 54
2, 58199, Note_on_c, 0, 56, 57
2, 58212, Control_c, 0, 64, 107
2, 58230, Control_c, 0, 64, 83
2, 58250, Control_c, 0, 64, 69
2, 58269, Control_c, 0, 64, 61
2, 58289, Control_c, 0, 64, 51
2, 58307, Control_c, 0, 64, 53
2, 58327, Control_c, 0, 64, 58
2, 58346, Control_c, 0, 64, 61
2, 58365, Control_c, 0, 64, 63
2, 58384, Control_c, 0, 64, 65
2, 58404, Control_c, 0, 64, 68
2, 58423, Control_c, 0, 64, 76
2, 58441, Control_c, 0, 64, 88
2, 58461, Control_c, 0, 64, 104
2, 58480, Control_c, 0, 64, 127
2, 58507, Note_on_c, 0, 83, 84
2, 58530, Note_on_c, 0, 56, 0
2, 58584, Note_on_c, 0, 84, 0
2, 58880, Control_c, 0, 64, 119
2, 58885, Note_on_c, 0, 84, 81
2, 58890, Note_on_c, 0, 51, 50
2, 58900, Control_c, 0, 64, 104
2, 58919, Control_c, 0, 64, 94
2, 58938, Control_c, 0, 64, 86
2, 58938, Note_on_c, 0, 83, 0
2, 58957, Control_c, 0, 64, 76
2, 58977, Control_c, 0, 64, 70
2, 58995, Control_c, 0, 64, 64
2, 59015, Control_c, 0, 64, 56
2, 59034, Control_c, 0, 64, 43
2, 59054, Control_c, 0, 64, 32
2, 59072, Control_c, 0, 64, 31
2, 59130, Control_c, 0, 64, 33
2, 59149, Control_c, 0, 64, 40
2, 59169, Control_c, 0, 64, 48
2, 59188, Control_c, 0, 64, 55
2, 59207, Control_c, 0, 64, 59
2, 59226, Control_c, 0, 64, 62
2, 59240, Note_on_c, 0, 79, 74
2, 59246, Control_c, 0, 64, 64
2, 59265, Control_c, 0, 64, 66
2, 59284, Control_c, 0, 64, 71
2, 59303, Control_c, 0, 64, 80
2, 59322, Control_c, 0, 64, 93
2, 59341, Control_c, 0, 64, 104
2, 59355, Note_on_c, 0, 77, 0
2, 59360, Control_c, 0, 64, 112
2, 59380, Control_c, 0, 64, 127
2, 59495, Control_c, 0, 64, 112
2, 59515, Control_c, 0, 64, 99
2, 59535, Control_c, 0, 64, 86
2, 59546, Note_on_c, 0, 80, 76
2, 59549, Note_on_c, 0, 51, 0
2, 59553, Control_c, 0, 64, 73
2, 59562, Note_on_c, 0, 53, 52
2, 59573, Control_c, 0, 64, 65
2, 59592, Control_c, 0, 64, 57
2, 59611, Control_c, 0, 64, 42
2, 59613, Note_on_c, 0, 79, 0
2, 59630, Control_c, 0, 64, 35
2, 59650, Control_c, 0, 64, 40
2, 59669, Control_c, 0, 64, 47
2, 59688, Control_c, 0, 64, 54
2, 59707, Control_c, 0, 64, 59
2, 59727, Control_c, 0, 64, 61
2, 59745, Control_c, 0, 64, 63
2, 59765, Control_c, 0, 64, 65
2, 59784, Control_c, 0, 64, 69
2, 59804, Control_c, 0, 64, 75
2, 59822, Control_c, 0, 64, 86
2, 59841, Control_c, 0, 64, 101
2, 59861, Control_c, 0, 64, 127
2, 59871, Note_on_c, 0, 77, 74
2, 59933, Note_on_c, 0, 84, 0
2, 59982, Note_on_c, 0, 80, 0
2, 60009, Note_on_c, 0, 77, 0
2, 60286, Note_on_c, 0, 75, 72
2, 60315, Note_on_c, 0, 55, 43
2, 60371, Note_on_c, 0, 53, 0
2, 60379, Control_c, 0, 64, 112
2, 60398, Control_c, 0, 64, 93
2, 60418, Control_c, 0, 64, 82
2, 60436, Control_c, 0, 64, 74
2, 60454, Control_c, 0, 64, 69
2, 60473, Control_c, 0, 64, 64
2, 60493, Control_c, 0, 64, 61
2, 60511, Control_c, 0, 64, 57
2, 60531, Control_c, 0, 64, 51
2, 60550, Control_c, 0, 64, 40
2, 60570, Control_c, 0, 64, 0
2, 60715, Note_on_c, 0, 71, 57
2, 61044, Note_on_c, 0, 72, 64
2, 61141, Note_on_c, 0, 71, 0
2, 61370, Note_on_c, 0, 66, 59
2, 61459, Note_on_c, 0, 72, 0
2, 61682, Note_on_c, 0, 67, 49
2, 61732, Note_on_c, 0, 66, 0
2, 61996, Note_on_c, 0, 72, 59
2, 62095, Note_on_c, 0, 75, 0
2, 62370, Note_on_c, 0, 74, 59
2, 62396, Note_on_c, 0, 59, 32
2, 62399, Note_on_c, 0, 72, 0
2, 62416, Note_on_c, 0, 60, 0
2, 62432, Control_c, 0, 64, 21
2, 62452, Control_c, 0, 64, 38
2, 62471, Control_c, 0, 64, 51
2, 62490, Control_c, 0, 64, 60
2, 62509, Control_c, 0, 64, 64
2, 62529, Control_c, 0, 64, 67
2, 62548, Control_c, 0, 64, 73
2, 62567, Control_c, 0, 64, 81
2, 62586, Control_c, 0, 64, 91
2, 62606, Control_c, 0, 64, 101
2, 62625, Control_c, 0, 64, 109
2, 62644, Control_c, 0, 64, 127
2, 62679, Note_on_c, 0, 59, 0
2, 62717, Note_on_c, 0, 55, 0
2, 62781, Note_on_c, 0, 65, 44
2, 62915, Note_on_c, 0, 67, 0
2, 62937, Note_on_c, 0, 74, 0
2, 63162, Control_c, 0, 64, 112
2, 63176, Note_on_c, 0, 48, 42
2, 63181, Control_c, 0, 64, 103
2, 63186, Note_on_c, 0, 72, 63
2, 63191, Note_on_c, 0, 60, 36
2, 63200, Control_c, 0, 64, 95
2, 63220, Control_c, 0, 64, 87
2, 63223, Note_on_c, 0, 65, 0
2, 63239, Control_c, 0, 64, 75
2, 63258, Control_c, 0, 64, 66
2, 63277, Control_c, 0, 64, 58
2, 63297, Control_c, 0, 64, 40
2, 63315, Control_c, 0, 64, 0
2, 63450, Control_c, 0, 64, 21
2, 63469, Control_c, 0, 64, 36
2, 63489, Control_c, 0, 64, 47
2, 63508, Control_c, 0, 64, 55
2, 63527, Control_c, 0, 64, 58
2, 63546, Control_c, 0, 64, 60
2, 63566, Control_c, 0, 64, 62
2, 63585, Control_c, 0, 64, 64
2, 63604, Control_c, 0, 64, 66
2, 63615, Note_on_c, 0, 65, 41
2, 63623, Control_c, 0, 64, 69
2, 63642, Control_c, 0, 64, 73
2, 63661, Control_c, 0, 64, 78
2, 63680, Control_c, 0, 64, 81
2, 63700, Control_c, 0, 64, 83
2, 63719, Control_c, 0, 64, 84
2, 63834, Control_c, 0, 64, 83
2, 63854, Control_c, 0, 64, 82
2, 63872, Control_c, 0, 64, 80
2, 63892, Control_c, 0, 64, 78
2, 63911, Control_c, 0, 64, 75
2, 63930, Control_c, 0, 64, 72
2, 63938, Note_on_c, 0, 64, 48
2, 63940, Note_on_c, 0, 65, 0
2, 63949, Control_c, 0, 64, 69
2, 63950, Note_on_c, 0, 55, 37
2, 63969, Control_c, 0, 64, 65
2, 63983, Note_on_c, 0, 60, 0
2, 63988, Control_c, 0, 64, 60
2, 64007, Control_c, 0, 64, 42
2, 64026, Control_c, 0, 64, 0
2, 64237, Control_c, 0, 64, 11
2, 64257, Control_c, 0, 64, 38
2, 64272, Note_on_c, 0, 67, 46
2, 64275, Control_c, 0, 64, 53
2, 64295, Control_c, 0, 64, 59
2, 64315, Control_c, 0, 64, 62
2, 64331, Note_on_c, 0, 64, 0
2, 64335, Control_c, 0, 64, 63
2, 64353, Control_c, 0, 64, 65
2, 64373, Control_c, 0, 64, 68
2, 64392, Control_c, 0, 64, 72
2, 64411, Control_c, 0, 64, 78
2, 64430, Control_c, 0, 64, 81
2, 64450, Control_c, 0, 64, 82
2, 64469, Control_c, 0, 64, 82
2, 64565, Control_c, 0, 64, 81
2, 64584, Control_c, 0, 64, 80
2, 64603, Control_c, 0, 64, 77
2, 64622, Control_c, 0, 64, 75
2, 64640, Note_on_c, 0, 60, 48
2, 64641, Control_c, 0, 64, 73
2, 64661, Control_c, 0, 64, 72
2, 64679, Control_c, 0, 64, 71
2, 64690, Note_on_c, 0, 67, 0
2, 64718, Control_c, 0, 64, 71
2, 64738, Control_c, 0, 64, 70
2, 64756, Control_c, 0, 64, 69
2, 64776, Control_c, 0, 64, 69
2, 64833, Control_c, 0, 64, 68
2, 64853, Control_c, 0, 64, 68
2, 64872, Control_c, 0, 64, 67
2, 64891, Control_c, 0, 64, 67
2, 64910, Control_c, 0, 64, 66
2, 64930, Control_c, 0, 64, 66
2, 64949, Control_c, 0, 64, 65
2, 64959, Note_on_c, 0, 53, 42
2, 64968, Control_c, 0, 64, 65
2, 64987, Control_c, 0, 64, 64
2, 64988, Note_on_c, 0, 55, 0
2, 65007, Control_c, 0, 64, 63
2, 65025, Control_c, 0, 64, 61
2, 65045, Control_c, 0, 64, 60
2, 65064, Control_c, 0, 64, 58
2, 65083, Control_c, 0, 64, 58
2, 65102, Control_c, 0, 64, 57
2, 65121, Control_c, 0, 64, 57
2, 65141, Control_c, 0, 64, 56
2, 65159, Control_c, 0, 64, 55
2, 65179, Control_c, 0, 64, 53
2, 65198, Control_c, 0, 64, 51
2, 65218, Control_c, 0, 64, 48
2, 65236, Control_c, 0, 64, 46
2, 65255, Control_c, 0, 64, 43
2, 65272, Control_c, 0, 64, 40
2, 65292, Control_c, 0, 64, 35
2, 65310, Control_c, 0, 64, 30
2, 65317, Note_on_c, 0, 53, 0
2, 65330, Control_c, 0, 64, 25
2, 65335, Note_on_c, 0, 52, 43
2, 65349, Control_c, 0, 64, 20
2, 65369, Control_c, 0, 64, 13
2, 65387, Control_c, 0, 64, 0
2, 65560, Control_c, 0, 64, 24
2, 65580, Control_c, 0, 64, 35
2, 65598, Control_c, 0, 64, 44
2, 65617, Note_on_c, 0, 60, 0
2, 65618, Control_c, 0, 64, 50
2, 65637, Control_c, 0, 64, 54
2, 65656, Control_c, 0, 64, 57
2, 65675, Control_c, 0, 64, 59
2, 65695, Control_c, 0, 64, 61
2, 65714, Control_c, 0, 64, 63
2, 65733, Control_c, 0, 64, 64
2, 65752, Control_c, 0, 64, 67
2, 65760, Note_on_c, 0, 55, 40
2, 65772, Control_c, 0, 64, 72
2, 65790, Control_c, 0, 64, 78
2, 65810, Control_c, 0, 64, 85
2, 65829, Control_c, 0, 64, 89
2, 65849, Control_c, 0, 64, 92
2, 65853, Note_on_c, 0, 48, 0
2, 65867, Control_c, 0, 64, 97
2, 65887, Control_c, 0, 64, 106
2, 65898, Note_on_c, 0, 72, 0
2, 65899, Note_on_c, 0, 52, 0
2, 65906, Control_c, 0, 64, 127
2, 66233, Control_c, 0, 64, 121
2, 66253, Control_c, 0, 64, 111
2, 66271, Control_c, 0, 64, 105
2, 66285, Note_on_c, 0, 45, 41
2, 66291, Control_c, 0, 64, 100
2, 66310, Control_c, 0, 64, 95
2, 66330, Control_c, 0, 64, 90
2, 66348, Control_c, 0, 64, 86
2, 66368, Control_c, 0, 64, 82
2, 66387, Control_c, 0, 64, 79
2, 66398, Note_on_c, 0, 65, 46
2, 66406, Control_c, 0, 64, 76
2, 66425, Control_c, 0, 64, 72
2, 66445, Control_c, 0, 64, 66
2, 66464, Control_c, 0, 64, 61
2, 66482, Control_c, 0, 64, 49
2, 66502, Control_c, 0, 64, 21
2, 66521, Control_c, 0, 64, 0
2, 66570, Note_on_c, 0, 55, 0
2, 66713, Control_c, 0, 64, 18
2, 66733, Control_c, 0, 64, 31
2, 66751, Control_c, 0, 64, 41
2, 66771, Control_c, 0, 64, 47
2, 66790, Control_c, 0, 64, 52
2, 66810, Control_c, 0, 64, 54
2, 66825, Note_on_c, 0, 69, 51
2, 66828, Control_c, 0, 64, 56
2, 66848, Control_c, 0, 64, 58
2, 66867, Control_c, 0, 64, 59
2, 66886, Control_c, 0, 64, 61
2, 66905, Control_c, 0, 64, 62
2, 66925, Control_c, 0, 64, 63
2, 66944, Control_c, 0, 64, 65
2, 66962, Control_c, 0, 64, 67
2, 66982, Control_c, 0, 64, 69
2, 67001, Control_c, 0, 64, 72
2, 67020, Control_c, 0, 64, 75
2, 67039, Control_c, 0, 64, 79
2, 67059, Control_c, 0, 64, 82
2, 67078, Control_c, 0, 64, 85
2, 67097, Control_c, 0, 64, 86
2, 67116, Control_c, 0, 64, 88
2, 67136, Control_c, 0, 64, 90
2, 67137, Note_on_c, 0, 72, 64
2, 67154, Control_c, 0, 64, 92
2, 67155, Note_on_c, 0, 53, 41
2, 67174, Control_c, 0, 64, 94
2, 67194, Control_c, 0, 64, 95
2, 67214, Control_c, 0, 64, 95
2, 67315, Note_on_c, 0, 45, 0
2, 67406, Note_on_c, 0, 65, 0
2, 67446, Note_on_c, 0, 75, 70
2, 67462, Note_on_c, 0, 72, 0
2, 67485, Note_on_c, 0, 69, 0
2, 67597, Control_c, 0, 64, 95
2, 67617, Control_c, 0, 64, 93
2, 67635, Control_c, 0, 64, 92
2, 67655, Control_c, 0, 64, 91
2, 67674, Control_c, 0, 64, 89
2, 67694, Control_c, 0, 64, 87
2, 67712, Control_c, 0, 64, 84
2, 67732, Control_c, 0, 64, 81
2, 67751, Control_c, 0, 64, 77
2, 67766, Note_on_c, 0, 69, 64
2, 67770, Control_c, 0, 64, 73
2, 67770, Note_on_c, 0, 41, 41
2, 67789, Control_c, 0, 64, 69
2, 67809, Control_c, 0, 64, 66
2, 67828, Control_c, 0, 64, 63
2, 67847, Control_c, 0, 64, 59
2, 67866, Control_c, 0, 64, 55
2, 67885, Note_on_c, 0, 53, 0
2, 67886, Control_c, 0, 64, 51
2, 67905, Control_c, 0, 64, 45
2, 67923, Control_c, 0, 64, 40
2, 67943, Control_c, 0, 64, 34
2, 67962, Control_c, 0, 64, 27
2, 67981, Control_c, 0, 64, 21
2, 68000, Control_c, 0, 64, 19
2, 68020, Control_c, 0, 64, 18
2, 68094, Note_on_c, 0, 78, 67
2, 68151, Note_on_c, 0, 75, 0
2, 68307, Control_c, 0, 64, 19
2, 68326, Control_c, 0, 64, 20
2, 68345, Control_c, 0, 64, 21
2, 68365, Control_c, 0, 64, 24
2, 68384, Control_c, 0, 64, 29
2, 68398, Note_on_c, 0, 72, 63
2, 68402, Control_c, 0, 64, 34
2, 68415, Note_on_c, 0, 53, 38
2, 68422, Control_c, 0, 64, 41
2, 68441, Control_c, 0, 64, 48
2, 68460, Control_c, 0, 64, 55
2, 68479, Control_c, 0, 64, 58
2, 68499, Control_c, 0, 64, 61
2, 68518, Control_c, 0, 64, 64
2, 68537, Control_c, 0, 64, 67
2, 68556, Control_c, 0, 64, 71
2, 68561, Note_on_c, 0, 53, 0
2, 68565, Note_on_c, 0, 41, 0
2, 68576, Control_c, 0, 64, 76
2, 68594, Control_c, 0, 64, 83
2, 68614, Control_c, 0, 64, 88
2, 68633, Control_c, 0, 64, 92
2, 68653, Control_c, 0, 64, 95
2, 68671, Control_c, 0, 64, 97
2, 68691, Control_c, 0, 64, 99
2, 68710, Control_c, 0, 64, 100
2, 68728, Note_on_c, 0, 75, 66
2, 68730, Control_c, 0, 64, 101
2, 68748, Control_c, 0, 64, 102
2, 68768, Control_c, 0, 64, 102
2, 68784, Note_on_c, 0, 78, 0
2, 68813, Note_on_c, 0, 69, 0
2, 68865, Note_on_c, 0, 72, 0
2, 69056, Control_c, 0, 64, 101
2, 69074, Control_c, 0, 64, 99
2, 69094, Control_c, 0, 64, 96
2, 69114, Control_c, 0, 64, 92
2, 69124, Note_on_c, 0, 73, 65
2, 69134, Control_c, 0, 64, 89
2, 69138, Note_on_c, 0, 46, 45
2, 69152, Control_c, 0, 64, 84
2, 69159, Note_on_c, 0, 75, 0
2, 69172, Control_c, 0, 64, 80
2, 69191, Control_c, 0, 64, 76
2, 69210, Control_c, 0, 64, 73
2, 69229, Control_c, 0, 64, 69
2, 69249, Control_c, 0, 64, 66
2, 69268, Control_c, 0, 64, 63
2, 69287, Control_c, 0, 64, 59
2, 69306, Control_c, 0, 64, 56
2, 69326, Control_c, 0, 64, 54
2, 69345, Control_c, 0, 64, 52
2, 69363, Control_c, 0, 64, 50
2, 69383, Control_c, 0, 64, 46
2, 69402, Control_c, 0, 64, 42
2, 69421, Control_c, 0, 64, 36
2, 69440, Control_c, 0, 64, 31
2, 69460, Control_c, 0, 64, 28
2, 69479, Control_c, 0, 64, 25
2, 69498, Control_c, 0, 64, 22
2, 69508, Note_on_c, 0, 49, 48
2, 69517, Control_c, 0, 64, 21
2, 69594, Control_c, 0, 64, 25
2, 69614, Control_c, 0, 64, 31
2, 69632, Control_c, 0, 64, 37
2, 69652, Control_c, 0, 64, 43
2, 69671, Control_c, 0, 64, 48
2, 69690, Control_c, 0, 64, 53
2, 69709, Control_c, 0, 64, 56
2, 69729, Control_c, 0, 64, 58
2, 69748, Control_c, 0, 64, 60
2, 69767, Control_c, 0, 64, 61
2, 69786, Control_c, 0, 64, 64
2, 69806, Control_c, 0, 64, 66
2, 69815, Note_on_c, 0, 70, 64
2, 69825, Control_c, 0, 64, 70
2, 69843, Control_c, 0, 64, 74
2, 69847, Note_on_c, 0, 53, 43
2, 69863, Control_c, 0, 64, 81
2, 69882, Control_c, 0, 64, 86
2, 69901, Control_c, 0, 64, 90
2, 69920, Control_c, 0, 64, 92
2, 69940, Control_c, 0, 64, 95
2, 69959, Control_c, 0, 64, 99
2, 69978, Control_c, 0, 64, 102
2, 69997, Control_c, 0, 64, 104
2, 70054, Control_c, 0, 64, 105
2, 70115, Note_on_c, 0, 70, 0
2, 70139, Note_on_c, 0, 46, 0
2, 70147, Note_on_c, 0, 58, 53
2, 70195, Note_on_c, 0, 49, 0
2, 70265, Control_c, 0, 64, 104
2, 70284, Control_c, 0, 64, 104
2, 70304, Control_c, 0, 64, 102
2, 70322, Control_c, 0, 64, 101
2, 70342, Control_c, 0, 64, 100
2, 70361, Control_c, 0, 64, 99
2, 70380, Control_c, 0, 64, 98
2, 70399, Control_c, 0, 64, 95
2, 70419, Control_c, 0, 64, 92
2, 70438, Control_c, 0, 64, 88
2, 70447, Note_on_c, 0, 48, 49
2, 70453, Note_on_c, 0, 64, 62
2, 70457, Control_c, 0, 64, 83
2, 70459, Note_on_c, 0, 58, 0
2, 70476, Control_c, 0, 64, 76
2, 70496, Control_c, 0, 64, 70
2, 70497, Note_on_c, 0, 53, 0
2, 70514, Control_c, 0, 64, 64
2, 70534, Control_c, 0, 64, 57
2, 70553, Control_c, 0, 64, 45
2, 70573, Control_c, 0, 64, 26
2, 70591, Control_c, 0, 64, 11
2, 70611, Control_c, 0, 64, 0
2, 70735, Note_on_c, 0, 73, 0
2, 70764, Control_c, 0, 64, 26
2, 70767, Note_on_c, 0, 58, 48
2, 70784, Control_c, 0, 64, 43
2, 70802, Control_c, 0, 64, 54
2, 70822, Control_c, 0, 64, 59
2, 70841, Control_c, 0, 64, 61
2, 70860, Control_c, 0, 64, 64
2, 70879, Control_c, 0, 64, 66
2, 70899, Control_c, 0, 64, 70
2, 70918, Control_c, 0, 64, 76
2, 70937, Control_c, 0, 64, 85
2, 70956, Control_c, 0, 64, 90
2, 70976, Control_c, 0, 64, 91
2, 71057, Note_on_c, 0, 58, 0
2, 71071, Control_c, 0, 64, 91
2, 71091, Control_c, 0, 64, 89
2, 71100, Note_on_c, 0, 72, 69
2, 71110, Control_c, 0, 64, 87
2, 71120, Note_on_c, 0, 56, 44
2, 71130, Control_c, 0, 64, 82
2, 71148, Control_c, 0, 64, 75
2, 71168, Control_c, 0, 64, 67
2, 71187, Control_c, 0, 64, 61
2, 71206, Control_c, 0, 64, 49
2, 71225, Control_c, 0, 64, 32
2, 71244, Control_c, 0, 64, 15
2, 71321, Control_c, 0, 64, 25
2, 71340, Control_c, 0, 64, 39
2, 71359, Control_c, 0, 64, 50
2, 71379, Control_c, 0, 64, 57
2, 71398, Control_c, 0, 64, 61
2, 71417, Control_c, 0, 64, 62
2, 71422, Note_on_c, 0, 56, 0
2, 71433, Note_on_c, 0, 64, 0
2, 71436, Control_c, 0, 64, 64
2, 71447, Note_on_c, 0, 60, 45
2, 71456, Control_c, 0, 64, 67
2, 71474, Control_c, 0, 64, 72
2, 71493, Note_on_c, 0, 48, 0
2, 71494, Control_c, 0, 64, 78
2, 71513, Control_c, 0, 64, 86
2, 71533, Control_c, 0, 64, 93
2, 71533, Note_on_c, 0, 60, 0
2, 71551, Control_c, 0, 64, 96
2, 71571, Control_c, 0, 64, 100
2, 71590, Control_c, 0, 64, 103
2, 71610, Control_c, 0, 64, 107
2, 71628, Control_c, 0, 64, 107
2, 71705, Control_c, 0, 64, 107
2, 71724, Control_c, 0, 64, 105
2, 71744, Control_c, 0, 64, 102
2, 71762, Control_c, 0, 64, 98
2, 71782, Control_c, 0, 64, 95
2, 71801, Control_c, 0, 64, 91
2, 71820, Control_c, 0, 64, 87
2, 71839, Control_c, 0, 64, 83
2, 71840, Note_on_c, 0, 65, 49
2, 71846, Note_on_c, 0, 50, 39
2, 71859, Control_c, 0, 64, 78
2, 71864, Note_on_c, 0, 53, 40
2, 71878, Control_c, 0, 64, 73
2, 71897, Control_c, 0, 64, 67
2, 71916, Control_c, 0, 64, 62
2, 71936, Control_c, 0, 64, 55
2, 71954, Control_c, 0, 64, 41
2, 71974, Control_c, 0, 64, 20
2, 71994, Control_c, 0, 64, 0
2, 72090, Control_c, 0, 64, 23
2, 72109, Control_c, 0, 64, 37
2, 72129, Control_c, 0, 64, 48
2, 72148, Control_c, 0, 64, 56
2, 72156, Note_on_c, 0, 70, 63
2, 72167, Control_c, 0, 64, 60
2, 72186, Control_c, 0, 64, 62
2, 72206, Control_c, 0, 64, 64
2, 72225, Control_c, 0, 64, 67
2, 72243, Control_c, 0, 64, 71
2, 72263, Control_c, 0, 64, 78
2, 72282, Control_c, 0, 64, 85
2, 72301, Control_c, 0, 64, 91
2, 72320, Control_c, 0, 64, 91
2, 72397, Control_c, 0, 64, 91
2, 72417, Control_c, 0, 64, 90
2, 72435, Control_c, 0, 64, 88
2, 72455, Control_c, 0, 64, 85
2, 72474, Control_c, 0, 64, 78
2, 72480, Note_on_c, 0, 67, 60
2, 72494, Control_c, 0, 64, 70
2, 72494, Note_on_c, 0, 53, 0
2, 72505, Note_on_c, 0, 52, 48
2, 72510, Note_on_c, 0, 55, 37
2, 72510, Note_on_c, 0, 72, 0
2, 72512, Control_c, 0, 64, 63
2, 72532, Control_c, 0, 64, 51
2, 72550, Note_on_c, 0, 50, 0
2, 72551, Control_c, 0, 64, 17
2, 72570, Control_c, 0, 64, 0
2, 72579, Note_on_c, 0, 70, 0
2, 72635, Note_on_c, 0, 65, 0
2, 72666, Control_c, 0, 64, 21
2, 72686, Control_c, 0, 64, 40
2, 72705, Control_c, 0, 64, 52
2, 72723, Control_c, 0, 64, 59
2, 72743, Control_c, 0, 64, 62
2, 72762, Control_c, 0, 64, 63
2, 72781, Control_c, 0, 64, 65
2, 72800, Control_c, 0, 64, 68
2, 72812, Note_on_c, 0, 64, 63
2, 72820, Control_c, 0, 64, 73
2, 72839, Control_c, 0, 64, 80
2, 72858, Control_c, 0, 64, 90
2, 72877, Control_c, 0, 64, 95
2, 72897, Control_c, 0, 64, 96
2, 72915, Control_c, 0, 64, 97
2, 72933, Control_c, 0, 64, 98
2, 73050, Control_c, 0, 64, 97
2, 73068, Control_c, 0, 64, 95
2, 73088, Control_c, 0, 64, 92
2, 73107, Control_c, 0, 64, 88
2, 73126, Control_c, 0, 64, 83
2, 73128, Note_on_c, 0, 67, 0
2, 73145, Control_c, 0, 64, 78
2, 73164, Control_c, 0, 64, 74
2, 73184, Control_c, 0, 64, 70
2, 73190, Note_on_c, 0, 53, 40
2, 73202, Control_c, 0, 64, 67
2, 73208, Note_on_c, 0, 60, 54
2, 73222, Control_c, 0, 64, 64
2, 73226, Note_on_c, 0, 56, 42
2, 73231, Note_on_c, 0, 64, 0
2, 73241, Control_c, 0, 64, 62
2, 73260, Control_c, 0, 64, 58
2, 73279, Control_c, 0, 64, 54
2, 73299, Control_c, 0, 64, 49
2, 73318, Control_c, 0, 64, 42
2, 73337, Control_c, 0, 64, 35
2, 73344, Note_on_c, 0, 52, 0
2, 73356, Control_c, 0, 64, 27
2, 73376, Control_c, 0, 64, 19
2, 73394, Control_c, 0, 64, 0
2, 73407, Note_on_c, 0, 55, 0
2, 73548, Note_on_c, 0, 64, 60
2, 73598, Note_on_c, 0, 60, 0
2, 73874, Note_on_c, 0, 65, 63
2, 73916, Note_on_c, 0, 64, 0
2, 74068, Control_c, 0, 64, 15
2, 74087, Control_c, 0, 64, 25
2, 74106, Control_c, 0, 64, 32
2, 74126, Control_c, 0, 64, 39
2, 74145, Control_c, 0, 64, 46
2, 74163, Control_c, 0, 64, 52
2, 74183, Control_c, 0, 64, 56
2, 74189, Note_on_c, 0, 71, 71
2, 74202, Control_c, 0, 64, 59
2, 74221, Control_c, 0, 64, 62
2, 74240, Control_c, 0, 64, 64
2, 74260, Control_c, 0, 64, 67
2, 74279, Control_c, 0, 64, 70
2, 74298, Control_c, 0, 64, 77
2, 74317, Control_c, 0, 64, 86
2, 74337, Control_c, 0, 64, 98
2, 74355, Control_c, 0, 64, 118
2, 74375, Control_c, 0, 64, 127
2, 74558, Note_on_c, 0, 65, 0
2, 74603, Note_on_c, 0, 55, 44
2, 74607, Note_on_c, 0, 72, 67
2, 74611, Note_on_c, 0, 48, 42
2, 74625, Control_c, 0, 64, 117
2, 74643, Control_c, 0, 64, 99
2, 74663, Control_c, 0, 64, 89
2, 74682, Control_c, 0, 64, 80
2, 74701, Control_c, 0, 64, 73
2, 74720, Control_c, 0, 64, 68
2, 74738, Note_on_c, 0, 71, 0
2, 74740, Control_c, 0, 64, 64
2, 74747, Note_on_c, 0, 56, 0
2, 74759, Control_c, 0, 64, 59
2, 74761, Note_on_c, 0, 53, 0
2, 74778, Control_c, 0, 64, 54
2, 74797, Control_c, 0, 64, 51
2, 74817, Control_c, 0, 64, 49
2, 74835, Control_c, 0, 64, 47
2, 74853, Control_c, 0, 64, 46
2, 74874, Control_c, 0, 64, 44
2, 74894, Control_c, 0, 64, 41
2, 74912, Control_c, 0, 64, 39
2, 74932, Control_c, 0, 64, 37
2, 74951, Control_c, 0, 64, 36
2, 74970, Control_c, 0, 64, 34
2, 74989, Control_c, 0, 64, 32
2, 75009, Control_c, 0, 64, 31
2, 75028, Control_c, 0, 64, 31
2, 75047, Control_c, 0, 64, 29
2, 75077, Note_on_c, 0, 65, 47
2, 75435, Note_on_c, 0, 64, 51
2, 75489, Control_c, 0, 64, 30
2, 75496, Note_on_c, 0, 65, 0
2, 75765, Note_on_c, 0, 67, 52
2, 75794, Note_on_c, 0, 72, 0
2, 75967, Control_c, 0, 64, 31
2, 76065, Note_on_c, 0, 70, 61
2, 76139, Note_on_c, 0, 67, 0
2, 76389, Control_c, 0, 64, 32
2, 76405, Note_on_c, 0, 73, 61
2, 76409, Control_c, 0, 64, 33
2, 76427, Control_c, 0, 64, 35
2, 76447, Control_c, 0, 64, 36
2, 76466, Control_c, 0, 64, 37
2, 76479, Note_on_c, 0, 70, 0
2, 76484, Control_c, 0, 64, 40
2, 76504, Control_c, 0, 64, 42
2, 76523, Control_c, 0, 64, 44
2, 76543, Control_c, 0, 64, 46
2, 76561, Control_c, 0, 64, 47
2, 76581, Control_c, 0, 64, 49
2, 76600, Control_c, 0, 64, 51
2, 76620, Control_c, 0, 64, 54
2, 76638, Control_c, 0, 64, 57
2, 76658, Control_c, 0, 64, 59
2, 76677, Control_c, 0, 64, 60
2, 76696, Control_c, 0, 64, 61
2, 76715, Control_c, 0, 64, 63
2, 76732, Note_on_c, 0, 72, 67
2, 76735, Control_c, 0, 64, 64
2, 76754, Control_c, 0, 64, 65
2, 76773, Control_c, 0, 64, 66
2, 76792, Control_c, 0, 64, 67
2, 76812, Control_c, 0, 64, 68
2, 76830, Control_c, 0, 64, 70
2, 76850, Control_c, 0, 64, 74
2, 76869, Control_c, 0, 64, 78
2, 76889, Control_c, 0, 64, 80
2, 76893, Note_on_c, 0, 73, 0
2, 76907, Control_c, 0, 64, 82
2, 76984, Control_c, 0, 64, 81
2, 77003, Control_c, 0, 64, 81
2, 77023, Control_c, 0, 64, 80
2, 77041, Control_c, 0, 64, 80
2, 77043, Note_on_c, 0, 70, 71
2, 77054, Note_on_c, 0, 49, 56
2, 77061, Control_c, 0, 64, 79
2, 77091, Note_on_c, 0, 48, 0
2, 77118, Control_c, 0, 64, 80
2, 77138, Control_c, 0, 64, 80
2, 77150, Note_on_c, 0, 64, 0
2, 77176, Control_c, 0, 64, 81
2, 77292, Control_c, 0, 64, 80
2, 77322, Note_on_c, 0, 55, 0
2, 77349, Control_c, 0, 64, 80
2, 77369, Control_c, 0, 64, 79
2, 77387, Control_c, 0, 64, 79
2, 77391, Note_on_c, 0, 72, 0
2, 77407, Control_c, 0, 64, 78
2, 77426, Control_c, 0, 64, 77
2, 77444, Control_c, 0, 64, 76
2, 77464, Control_c, 0, 64, 76
2, 77470, Note_on_c, 0, 49, 0
2, 77483, Control_c, 0, 64, 75
2, 77496, Note_on_c, 0, 69, 66
2, 77501, Note_on_c, 0, 51, 47
2, 77503, Control_c, 0, 64, 74
2, 77505, Note_on_c, 0, 53, 47
2, 77521, Control_c, 0, 64, 72
2, 77541, Control_c, 0, 64, 68
2, 77557, Note_on_c, 0, 70, 0
2, 77560, Control_c, 0, 64, 65
2, 77580, Control_c, 0, 64, 61
2, 77598, Control_c, 0, 64, 54
2, 77618, Control_c, 0, 64, 44
2, 77637, Control_c, 0, 64, 38
2, 77656, Control_c, 0, 64, 37
2, 77675, Control_c, 0, 64, 40
2, 77695, Control_c, 0, 64, 47
2, 77714, Control_c, 0, 64, 55
2, 77734, Control_c, 0, 64, 59
2, 77754, Control_c, 0, 64, 62
2, 77774, Control_c, 0, 64, 64
2, 77792, Control_c, 0, 64, 66
2, 77812, Control_c, 0, 64, 68
2, 77831, Control_c, 0, 64, 73
2, 77835, Note_on_c, 0, 53, 0
2, 77850, Control_c, 0, 64, 79
2, 77850, Note_on_c, 0, 65, 64
2, 77869, Control_c, 0, 64, 88
2, 77880, Note_on_c, 0, 69, 0
2, 77889, Control_c, 0, 64, 97
2, 77908, Control_c, 0, 64, 104
2, 77927, Control_c, 0, 64, 107
2, 77946, Control_c, 0, 64, 109
2, 77965, Control_c, 0, 64, 110
2, 78061, Control_c, 0, 64, 109
2, 78080, Control_c, 0, 64, 106
2, 78100, Control_c, 0, 64, 101
2, 78119, Control_c, 0, 64, 95
2, 78138, Control_c, 0, 64, 86
2, 78157, Control_c, 0, 64, 75
2, 78158, Note_on_c, 0, 69, 76
2, 78164, Note_on_c, 0, 63, 55
2, 78177, Control_c, 0, 64, 65
2, 78195, Control_c, 0, 64, 50
2, 78215, Control_c, 0, 64, 0
2, 78221, Note_on_c, 0, 65, 0
2, 78311, Control_c, 0, 64, 32
2, 78330, Control_c, 0, 64, 51
2, 78349, Control_c, 0, 64, 61
2, 78369, Control_c, 0, 64, 64
2, 78388, Control_c, 0, 64, 66
2, 78391, Note_on_c, 0, 51, 0
2, 78407, Control_c, 0, 64, 69
2, 78426, Control_c, 0, 64, 74
2, 78445, Control_c, 0, 64, 85
2, 78464, Note_on_c, 0, 72, 80
2, 78465, Control_c, 0, 64, 100
2, 78483, Control_c, 0, 64, 127
2, 78638, Note_on_c, 0, 69, 0
2, 78848, Control_c, 0, 64, 110
2, 78855, Note_on_c, 0, 77, 79
2, 78867, Control_c, 0, 64, 99
2, 78883, Note_on_c, 0, 61, 51
2, 78885, Control_c, 0, 64, 89
2, 78905, Control_c, 0, 64, 78
2, 78906, Note_on_c, 0, 72, 0
2, 78924, Control_c, 0, 64, 68
2, 78944, Control_c, 0, 64, 57
2, 78962, Control_c, 0, 64, 0
2, 79058, Note_on_c, 0, 63, 0
2, 79116, Control_c, 0, 64, 34
2, 79136, Control_c, 0, 64, 54
2, 79155, Control_c, 0, 64, 61
2, 79174, Control_c, 0, 64, 64
2, 79193, Control_c, 0, 64, 66
2, 79213, Control_c, 0, 64, 68
2, 79231, Control_c, 0, 64, 73
2, 79251, Control_c, 0, 64, 83
2, 79266, Note_on_c, 0, 70, 57
2, 79270, Control_c, 0, 64, 95
2, 79290, Control_c, 0, 64, 106
2, 79308, Control_c, 0, 64, 116
2, 79328, Control_c, 0, 64, 127
2, 79577, Control_c, 0, 64, 110
2, 79596, Control_c, 0, 64, 99
2, 79604, Note_on_c, 0, 69, 60
2, 79610, Note_on_c, 0, 70, 0
2, 79616, Control_c, 0, 64, 89
2, 79622, Note_on_c, 0, 60, 44
2, 79635, Control_c, 0, 64, 80
2, 79654, Control_c, 0, 64, 70
2, 79659, Note_on_c, 0, 61, 0
2, 79673, Control_c, 0, 64, 63
2, 79693, Control_c, 0, 64, 48
2, 79711, Control_c, 0, 64, 27
2, 79731, Control_c, 0, 64, 11
2, 79808, Control_c, 0, 64, 19
2, 79827, Control_c, 0, 64, 30
2, 79845, Control_c, 0, 64, 41
2, 79865, Control_c, 0, 64, 51
2, 79884, Control_c, 0, 64, 57
2, 79904, Control_c, 0, 64, 60
2, 79918, Note_on_c, 0, 75, 66
2, 79922, Control_c, 0, 64, 63
2, 79942, Control_c, 0, 64, 65
2, 79961, Control_c, 0, 64, 67
2, 79980, Control_c, 0, 64, 72
2, 79999, Control_c, 0, 64, 81
2, 80019, Control_c, 0, 64, 96
2, 80038, Control_c, 0, 64, 115
2, 80057, Control_c, 0, 64, 127
2, 80058, Note_on_c, 0, 60, 0
2, 80338, Note_on_c, 0, 73, 67
2, 80345, Control_c, 0, 64, 107
2, 80350, Note_on_c, 0, 58, 44
2, 80364, Control_c, 0, 64, 97
2, 80364, Note_on_c, 0, 77, 0
2, 80384, Control_c, 0, 64, 89
2, 80402, Control_c, 0, 64, 82
2, 80415, Note_on_c, 0, 69, 0
2, 80422, Control_c, 0, 64, 75
2, 80441, Control_c, 0, 64, 70
2, 80460, Control_c, 0, 64, 66
2, 80479, Control_c, 0, 64, 63
2, 80486, Note_on_c, 0, 75, 0
2, 80499, Control_c, 0, 64, 62
2, 80537, Control_c, 0, 64, 61
2, 80556, Control_c, 0, 64, 60
2, 80576, Control_c, 0, 64, 60
2, 80595, Control_c, 0, 64, 59
2, 80670, Control_c, 0, 64, 58
2, 80721, Note_on_c, 0, 68, 54
2, 80728, Control_c, 0, 64, 58
2, 80739, Note_on_c, 0, 53, 39
2, 80765, Control_c, 0, 64, 57
2, 80785, Control_c, 0, 64, 57
2, 80823, Control_c, 0, 64, 56
2, 80842, Control_c, 0, 64, 56
2, 80862, Control_c, 0, 64, 55
2, 80900, Control_c, 0, 64, 54
2, 80922, Control_c, 0, 64, 54
2, 80942, Control_c, 0, 64, 53
2, 80999, Control_c, 0, 64, 53
2, 81033, Note_on_c, 0, 49, 50
2, 81047, Note_on_c, 0, 67, 46
2, 81052, Note_on_c, 0, 68, 0
2, 81094, Control_c, 0, 64, 53
2, 81114, Control_c, 0, 64, 54
2, 81127, Note_on_c, 0, 53, 0
2, 81153, Control_c, 0, 64, 54
2, 81191, Control_c, 0, 64, 55
2, 81210, Control_c, 0, 64, 55
2, 81229, Control_c, 0, 64, 56
2, 81248, Control_c, 0, 64, 56
2, 81268, Control_c, 0, 64, 57
2, 81287, Control_c, 0, 64, 58
2, 81306, Control_c, 0, 64, 59
2, 81325, Control_c, 0, 64, 59
2, 81332, Note_on_c, 0, 67, 0
2, 81345, Control_c, 0, 64, 60
2, 81346, Note_on_c, 0, 70, 59
2, 81351, Note_on_c, 0, 46, 45
2, 81362, Note_on_c, 0, 58, 0
2, 81363, Control_c, 0, 64, 61
2, 81364, Note_on_c, 0, 49, 0
2, 81383, Control_c, 0, 64, 61
2, 81497, Control_c, 0, 64, 61
2, 81536, Control_c, 0, 64, 60
2, 81556, Control_c, 0, 64, 60
2, 81572, Control_c, 0, 64, 59
2, 81594, Control_c, 0, 64, 59
2, 81613, Control_c, 0, 64, 58
2, 81633, Control_c, 0, 64, 57
2, 81651, Control_c, 0, 64, 55
2, 81665, Note_on_c, 0, 64, 56
2, 81671, Control_c, 0, 64, 51
2, 81690, Control_c, 0, 64, 44
2, 81690, Note_on_c, 0, 55, 40
2, 81709, Control_c, 0, 64, 23
2, 81710, Note_on_c, 0, 73, 0
2, 81728, Control_c, 0, 64, 0
2, 81728, Note_on_c, 0, 70, 0
2, 81773, Note_on_c, 0, 46, 0
2, 81990, Note_on_c, 0, 72, 65
2, 81994, Note_on_c, 0, 48, 46
2, 82092, Note_on_c, 0, 64, 0
2, 82305, Control_c, 0, 64, 17
2, 82308, Note_on_c, 0, 48, 0
2, 82319, Note_on_c, 0, 65, 55
2, 82323, Control_c, 0, 64, 25
2, 82324, Note_on_c, 0, 49, 50
2, 82343, Control_c, 0, 64, 32
2, 82362, Control_c, 0, 64, 35
2, 82382, Control_c, 0, 64, 37
2, 82400, Control_c, 0, 64, 38
2, 82420, Control_c, 0, 64, 40
2, 82439, Control_c, 0, 64, 42
2, 82457, Control_c, 0, 64, 43
2, 82535, Control_c, 0, 64, 44
2, 82556, Control_c, 0, 64, 44
2, 82575, Control_c, 0, 64, 46
2, 82594, Control_c, 0, 64, 49
2, 82613, Control_c, 0, 64, 52
2, 82627, Note_on_c, 0, 70, 71
2, 82633, Control_c, 0, 64, 56
2, 82646, Note_on_c, 0, 46, 46
2, 82652, Control_c, 0, 64, 59
2, 82671, Control_c, 0, 64, 62
2, 82685, Note_on_c, 0, 72, 0
2, 82690, Control_c, 0, 64, 65
2, 82697, Note_on_c, 0, 49, 0
2, 82710, Control_c, 0, 64, 69
2, 82728, Control_c, 0, 64, 74
2, 82748, Control_c, 0, 64, 81
2, 82749, Note_on_c, 0, 65, 0
2, 82767, Control_c, 0, 64, 91
2, 82773, Note_on_c, 0, 46, 0
2, 82787, Control_c, 0, 64, 98
2, 82805, Control_c, 0, 64, 106
2, 82825, Control_c, 0, 64, 114
2, 82844, Control_c, 0, 64, 117
2, 82902, Control_c, 0, 64, 114
2, 82921, Control_c, 0, 64, 110
2, 82940, Control_c, 0, 64, 105
2, 82959, Control_c, 0, 64, 98
2, 82978, Control_c, 0, 64, 90
2, 82992, Note_on_c, 0, 64, 59
2, 82998, Control_c, 0, 64, 82
2, 83006, Note_on_c, 0, 48, 49
2, 83016, Control_c, 0, 64, 76
2, 83022, Note_on_c, 0, 55, 0
2, 83036, Control_c, 0, 64, 70
2, 83055, Control_c, 0, 64, 67
2, 83074, Control_c, 0, 64, 65
2, 83093, Control_c, 0, 64, 63
2, 83113, Control_c, 0, 64, 61
2, 83132, Control_c, 0, 64, 59
2, 83151, Control_c, 0, 64, 57
2, 83170, Control_c, 0, 64, 55
2, 83190, Control_c, 0, 64, 54
2, 83208, Control_c, 0, 64, 52
2, 83228, Control_c, 0, 64, 51
2, 83247, Control_c, 0, 64, 48
2, 83267, Control_c, 0, 64, 46
2, 83285, Control_c, 0, 64, 43
2, 83305, Control_c, 0, 64, 39
2, 83324, Control_c, 0, 64, 35
2, 83336, Note_on_c, 0, 73, 69
2, 83343, Control_c, 0, 64, 30
2, 83351, Note_on_c, 0, 55, 47
2, 83362, Control_c, 0, 64, 25
2, 83382, Control_c, 0, 64, 21
2, 83401, Control_c, 0, 64, 18
2, 83420, Control_c, 0, 64, 15
2, 83458, Control_c, 0, 64, 13
2, 83611, Control_c, 0, 64, 15
2, 83657, Note_on_c, 0, 72, 74
2, 83684, Note_on_c, 0, 70, 0
2, 83687, Control_c, 0, 64, 17
2, 83687, Note_on_c, 0, 56, 56
2, 83704, Note_on_c, 0, 73, 0
2, 83708, Note_on_c, 0, 55, 0
2, 83726, Control_c, 0, 64, 18
2, 83746, Control_c, 0, 64, 20
2, 83764, Control_c, 0, 64, 27
2, 83784, Control_c, 0, 64, 34
2, 83803, Control_c, 0, 64, 41
2, 83823, Control_c, 0, 64, 46
2, 83841, Control_c, 0, 64, 50
2, 83861, Control_c, 0, 64, 53
2, 83880, Control_c, 0, 64, 56
2, 83898, Control_c, 0, 64, 58
2, 83918, Control_c, 0, 64, 60
2, 83937, Control_c, 0, 64, 62
2, 83957, Control_c, 0, 64, 63
2, 83973, Note_on_c, 0, 65, 68
2, 83975, Control_c, 0, 64, 65
2, 83995, Control_c, 0, 64, 70
2, 83998, Note_on_c, 0, 59, 55
2, 84014, Control_c, 0, 64, 76
2, 84033, Control_c, 0, 64, 85
2, 84045, Note_on_c, 0, 56, 0
2, 84052, Control_c, 0, 64, 92
2, 84054, Note_on_c, 0, 64, 0
2, 84072, Control_c, 0, 64, 97
2, 84073, Note_on_c, 0, 59, 0
2, 84091, Control_c, 0, 64, 103
2, 84110, Control_c, 0, 64, 116
2, 84129, Control_c, 0, 64, 127
2, 84360, Control_c, 0, 64, 119
2, 84378, Control_c, 0, 64, 106
2, 84398, Control_c, 0, 64, 99
2, 84417, Control_c, 0, 64, 91
2, 84420, Note_on_c, 0, 68, 74
2, 84435, Note_on_c, 0, 60, 46
2, 84437, Control_c, 0, 64, 83
2, 84451, Control_c, 0, 64, 76
2, 84475, Control_c, 0, 64, 69
2, 84494, Control_c, 0, 64, 63
2, 84513, Control_c, 0, 64, 48
2, 84532, Control_c, 0, 64, 0
2, 84605, Note_on_c, 0, 65, 0
2, 84627, Note_on_c, 0, 72, 0
2, 84706, Control_c, 0, 64, 17
2, 84724, Control_c, 0, 64, 36
2, 84744, Control_c, 0, 64, 48
2, 84763, Control_c, 0, 64, 55
2, 84783, Control_c, 0, 64, 59
2, 84801, Control_c, 0, 64, 63
2, 84812, Note_on_c, 0, 48, 0
2, 84821, Control_c, 0, 64, 65
2, 84840, Control_c, 0, 64, 68
2, 84841, Note_on_c, 0, 65, 50
2, 84858, Control_c, 0, 64, 72
2, 84878, Control_c, 0, 64, 78
2, 84897, Control_c, 0, 64, 85
2, 84917, Control_c, 0, 64, 90
2, 84935, Control_c, 0, 64, 92
2, 85089, Control_c, 0, 64, 91
2, 85109, Control_c, 0, 64, 88
2, 85127, Control_c, 0, 64, 86
2, 85147, Control_c, 0, 64, 83
2, 85166, Control_c, 0, 64, 80
2, 85186, Control_c, 0, 64, 78
2, 85198, Note_on_c, 0, 65, 0
2, 85204, Control_c, 0, 64, 74
2, 85209, Note_on_c, 0, 64, 47
2, 85213, Note_on_c, 0, 48, 42
2, 85224, Control_c, 0, 64, 71
2, 85243, Control_c, 0, 64, 66
2, 85263, Control_c, 0, 64, 63
2, 85281, Control_c, 0, 64, 59
2, 85301, Control_c, 0, 64, 51
2, 85320, Control_c, 0, 64, 33
2, 85338, Control_c, 0, 64, 0
2, 85666, Note_on_c, 0, 67, 55
2, 85684, Control_c, 0, 64, 18
2, 85704, Control_c, 0, 64, 25
2, 85723, Control_c, 0, 64, 32
2, 85743, Control_c, 0, 64, 41
2, 85754, Note_on_c, 0, 68, 0
2, 85761, Control_c, 0, 64, 50
2, 85781, Control_c, 0, 64, 55
2, 85800, Control_c, 0, 64, 58
2, 85817, Note_on_c, 0, 64, 0
2, 85818, Control_c, 0, 64, 61
2, 85838, Control_c, 0, 64, 63
2, 85857, Control_c, 0, 64, 65
2, 85877, Control_c, 0, 64, 67
2, 85895, Control_c, 0, 64, 70
2, 85915, Control_c, 0, 64, 76
2, 85934, Control_c, 0, 64, 81
2, 85953, Control_c, 0, 64, 85
2, 85972, Control_c, 0, 64, 86
2, 85992, Control_c, 0, 64, 87
2, 86126, Control_c, 0, 64, 86
2, 86146, Control_c, 0, 64, 86
2, 86164, Control_c, 0, 64, 85
2, 86184, Control_c, 0, 64, 84
2, 86203, Control_c, 0, 64, 83
2, 86223, Control_c, 0, 64, 82
2, 86241, Control_c, 0, 64, 81
2, 86261, Control_c, 0, 64, 79
2, 86280, Control_c, 0, 64, 77
2, 86283, Note_on_c, 0, 65, 46
2, 86298, Control_c, 0, 64, 75
2, 86318, Control_c, 0, 64, 73
2, 86322, Note_on_c, 0, 49, 49
2, 86337, Control_c, 0, 64, 70
2, 86357, Control_c, 0, 64, 67
2, 86374, Control_c, 0, 64, 64
2, 86395, Control_c, 0, 64, 62
2, 86414, Control_c, 0, 64, 59
2, 86433, Control_c, 0, 64, 53
2, 86452, Control_c, 0, 64, 43
2, 86460, Note_on_c, 0, 60, 0
2, 86472, Control_c, 0, 64, 9
2, 86491, Control_c, 0, 64, 0
2, 86504, Note_on_c, 0, 48, 0
2, 86523, Note_on_c, 0, 67, 0
2, 86875, Control_c, 0, 64, 9
2, 86894, Control_c, 0, 64, 28
2, 86911, Note_on_c, 0, 68, 52
2, 86913, Control_c, 0, 64, 39
2, 86932, Control_c, 0, 64, 48
2, 86952, Control_c, 0, 64, 55
2, 86971, Control_c, 0, 64, 58
2, 86990, Control_c, 0, 64, 60
2, 87009, Control_c, 0, 64, 61
2, 87029, Control_c, 0, 64, 63
2, 87044, Control_c, 0, 64, 64
2, 87064, Control_c, 0, 64, 65
2, 87083, Control_c, 0, 64, 66
2, 87103, Control_c, 0, 64, 67
2, 87121, Control_c, 0, 64, 69
2, 87141, Control_c, 0, 64, 71
2, 87160, Control_c, 0, 64, 74
2, 87180, Control_c, 0, 64, 78
2, 87198, Control_c, 0, 64, 82
2, 87218, Control_c, 0, 64, 85
2, 87237, Control_c, 0, 64, 87
2, 87256, Control_c, 0, 64, 90
2, 87275, Control_c, 0, 64, 93
2, 87295, Control_c, 0, 64, 96
2, 87301, Note_on_c, 0, 72, 59
2, 87314, Control_c, 0, 64, 100
2, 87332, Control_c, 0, 64, 105
2, 87353, Control_c, 0, 64, 112
2, 87373, Control_c, 0, 64, 121
2, 87391, Control_c, 0, 64, 127
2, 87557, Note_on_c, 0, 65, 0
2, 87619, Note_on_c, 0, 77, 64
2, 87930, Control_c, 0, 64, 123
2, 87948, Control_c, 0, 64, 112
2, 87952, Note_on_c, 0, 67, 60
2, 87967, Control_c, 0, 64, 102
2, 87977, Note_on_c, 0, 58, 44
2, 87987, Control_c, 0, 64, 92
2, 88005, Control_c, 0, 64, 85
2, 88025, Control_c, 0, 64, 78
2, 88044, Control_c, 0, 64, 73
2, 88064, Control_c, 0, 64, 67
2, 88082, Control_c, 0, 64, 63
2, 88087, Note_on_c, 0, 72, 0
2, 88097, Note_on_c, 0, 77, 0
2, 88102, Control_c, 0, 64, 59
2, 88107, Note_on_c, 0, 68, 0
2, 88121, Control_c, 0, 64, 54
2, 88140, Control_c, 0, 64, 49
2, 88159, Control_c, 0, 64, 43
2, 88179, Control_c, 0, 64, 36
2, 88198, Control_c, 0, 64, 24
2, 88217, Control_c, 0, 64, 0
2, 88302, Note_on_c, 0, 77, 56
2, 88467, Control_c, 0, 64, 11
2, 88485, Control_c, 0, 64, 28
2, 88505, Control_c, 0, 64, 40
2, 88524, Control_c, 0, 64, 50
2, 88544, Control_c, 0, 64, 56
2, 88562, Control_c, 0, 64, 59
2, 88582, Control_c, 0, 64, 61
2, 88601, Control_c, 0, 64, 63
2, 88620, Control_c, 0, 64, 65
2, 88630, Note_on_c, 0, 76, 66
2, 88639, Control_c, 0, 64, 68
2, 88659, Control_c, 0, 64, 72
2, 88678, Control_c, 0, 64, 79
2, 88697, Control_c, 0, 64, 87
2, 88716, Control_c, 0, 64, 94
2, 88736, Control_c, 0, 64, 99
2, 88741, Note_on_c, 0, 49, 0
2, 88746, Note_on_c, 0, 77, 0
2, 88755, Control_c, 0, 64, 106
2, 88774, Control_c, 0, 64, 123
2, 88793, Control_c, 0, 64, 127
2, 88818, Note_on_c, 0, 58, 0
2, 88956, Note_on_c, 0, 79, 74
2, 89058, Note_on_c, 0, 67, 0
2, 89313, Note_on_c, 0, 68, 71
2, 89329, Note_on_c, 0, 48, 50
2, 89330, Control_c, 0, 64, 123
2, 89334, Note_on_c, 0, 60, 51
2, 89349, Control_c, 0, 64, 100
2, 89369, Control_c, 0, 64, 88
2, 89387, Control_c, 0, 64, 77
2, 89406, Control_c, 0, 64, 69
2, 89426, Control_c, 0, 64, 62
2, 89444, Control_c, 0, 64, 55
2, 89464, Control_c, 0, 64, 49
2, 89483, Control_c, 0, 64, 46
2, 89492, Note_on_c, 0, 76, 0
2, 89503, Control_c, 0, 64, 46
2, 89521, Control_c, 0, 64, 45
2, 89541, Control_c, 0, 64, 45
2, 89560, Control_c, 0, 64, 44
2, 89579, Note_on_c, 0, 79, 0
2, 89580, Control_c, 0, 64, 43
2, 89618, Control_c, 0, 64, 43
2, 89659, Note_on_c, 0, 72, 65
2, 89886, Control_c, 0, 64, 43
2, 89906, Control_c, 0, 64, 44
2, 89924, Control_c, 0, 64, 44
2, 89944, Control_c, 0, 64, 45
2, 89963, Control_c, 0, 64, 46
2, 89983, Control_c, 0, 64, 48
2, 89996, Note_on_c, 0, 77, 67
2, 90001, Control_c, 0, 64, 49
2, 90021, Control_c, 0, 64, 51
2, 90040, Control_c, 0, 64, 53
2, 90060, Control_c, 0, 64, 56
2, 90078, Control_c, 0, 64, 57
2, 90098, Control_c, 0, 64, 59
2, 90117, Control_c, 0, 64, 61
2, 90136, Control_c, 0, 64, 63
2, 90155, Control_c, 0, 64, 65
2, 90175, Control_c, 0, 64, 67
2, 90194, Control_c, 0, 64, 71
2, 90212, Control_c, 0, 64, 78
2, 90232, Control_c, 0, 64, 88
2, 90252, Control_c, 0, 64, 98
2, 90270, Control_c, 0, 64, 107
2, 90290, Control_c, 0, 64, 121
2, 90300, Note_on_c, 0, 76, 71
2, 90309, Control_c, 0, 64, 127
2, 90342, Note_on_c, 0, 77, 0
2, 90491, Note_on_c, 0, 68, 0
2, 90674, Control_c, 0, 64, 112
2, 90688, Note_on_c, 0, 77, 68
2, 90693, Control_c, 0, 64, 99
2, 90712, Control_c, 0, 64, 89
2, 90722, Note_on_c, 0, 56, 51
2, 90732, Control_c, 0, 64, 80
2, 90747, Note_on_c, 0, 76, 0
2, 90750, Control_c, 0, 64, 75
2, 90750, Note_on_c, 0, 72, 0
2, 90770, Control_c, 0, 64, 70
2, 90789, Control_c, 0, 64, 66
2, 90808, Control_c, 0, 64, 62
2, 90827, Control_c, 0, 64, 59
2, 90846, Control_c, 0, 64, 56
2, 90866, Control_c, 0, 64, 53
2, 90884, Control_c, 0, 64, 51
2, 90904, Control_c, 0, 64, 47
2, 90923, Control_c, 0, 64, 43
2, 90943, Control_c, 0, 64, 37
2, 90961, Control_c, 0, 64, 31
2, 90981, Control_c, 0, 64, 25
2, 91000, Control_c, 0, 64, 18
2, 91010, Note_on_c, 0, 60, 0
2, 91020, Control_c, 0, 64, 0
2, 91071, Note_on_c, 0, 72, 61
2, 91307, Control_c, 0, 64, 11
2, 91326, Control_c, 0, 64, 27
2, 91346, Control_c, 0, 64, 37
2, 91365, Control_c, 0, 64, 45
2, 91384, Control_c, 0, 64, 52
2, 91393, Note_on_c, 0, 70, 62
2, 91403, Control_c, 0, 64, 56
2, 91423, Control_c, 0, 64, 58
2, 91441, Control_c, 0, 64, 59
2, 91461, Control_c, 0, 64, 61
2, 91480, Control_c, 0, 64, 62
2, 91500, Control_c, 0, 64, 63
2, 91518, Control_c, 0, 64, 64
2, 91538, Control_c, 0, 64, 64
2, 91540, Note_on_c, 0, 72, 0
2, 91557, Control_c, 0, 64, 66
2, 91576, Control_c, 0, 64, 68
2, 91595, Control_c, 0, 64, 71
2, 91615, Control_c, 0, 64, 77
2, 91634, Control_c, 0, 64, 82
2, 91653, Control_c, 0, 64, 87
2, 91672, Control_c, 0, 64, 91
2, 91692, Control_c, 0, 64, 94
2, 91709, Note_on_c, 0, 68, 61
2, 91710, Control_c, 0, 64, 98
2, 91730, Control_c, 0, 64, 102
2, 91749, Control_c, 0, 64, 106
2, 91768, Control_c, 0, 64, 108
2, 91786, Note_on_c, 0, 70, 0
2, 91787, Control_c, 0, 64, 109
2, 91806, Control_c, 0, 64, 110
2, 91826, Control_c, 0, 64, 110
2, 91980, Control_c, 0, 64, 110
2, 91998, Control_c, 0, 64, 107
2, 92018, Control_c, 0, 64, 104
2, 92037, Control_c, 0, 64, 101
2, 92056, Control_c, 0, 64, 96
2, 92069, Note_on_c, 0, 73, 68
2, 92075, Control_c, 0, 64, 91
2, 92095, Control_c, 0, 64, 85
2, 92110, Note_on_c, 0, 58, 46
2, 92114, Control_c, 0, 64, 78
2, 92132, Control_c, 0, 64, 72
2, 92151, Control_c, 0, 64, 68
2, 92151, Note_on_c, 0, 68, 0
2, 92171, Control_c, 0, 64, 64
2, 92190, Control_c, 0, 64, 61
2, 92193, Note_on_c, 0, 56, 0
2, 92208, Control_c, 0, 64, 57
2, 92228, Control_c, 0, 64, 54
2, 92247, Control_c, 0, 64, 50
2, 92266, Control_c, 0, 64, 47
2, 92285, Control_c, 0, 64, 43
2, 92305, Control_c, 0, 64, 37
2, 92324, Control_c, 0, 64, 30
2, 92343, Control_c, 0, 64, 21
2, 92362, Control_c, 0, 64, 13
2, 92382, Control_c, 0, 64, 0
2, 92427, Note_on_c, 0, 68, 55
2, 92485, Note_on_c, 0, 77, 0
2, 92765, Control_c, 0, 64, 9
2, 92772, Note_on_c, 0, 67, 48
2, 92785, Control_c, 0, 64, 19
2, 92804, Control_c, 0, 64, 25
2, 92805, Note_on_c, 0, 68, 0
2, 92823, Control_c, 0, 64, 29
2, 92842, Control_c, 0, 64, 32
2, 92862, Control_c, 0, 64, 35
2, 92880, Control_c, 0, 64, 37
2, 92900, Control_c, 0, 64, 40
2, 92919, Control_c, 0, 64, 42
2, 92939, Control_c, 0, 64, 45
2, 92957, Control_c, 0, 64, 46
2, 92977, Control_c, 0, 64, 47
2, 92996, Control_c, 0, 64, 49
2, 93015, Control_c, 0, 64, 51
2, 93034, Control_c, 0, 64, 53
2, 93054, Control_c, 0, 64, 55
2, 93073, Control_c, 0, 64, 58
2, 93086, Note_on_c, 0, 70, 58
2, 93092, Control_c, 0, 64, 60
2, 93099, Note_on_c, 0, 67, 0
2, 93114, Control_c, 0, 64, 62
2, 93134, Control_c, 0, 64, 65
2, 93152, Control_c, 0, 64, 67
2, 93172, Control_c, 0, 64, 70
2, 93191, Control_c, 0, 64, 77
2, 93210, Control_c, 0, 64, 89
2, 93229, Control_c, 0, 64, 100
2, 93248, Control_c, 0, 64, 108
2, 93268, Control_c, 0, 64, 113
2, 93383, Control_c, 0, 64, 112
2, 93402, Control_c, 0, 64, 110
2, 93421, Control_c, 0, 64, 105
2, 93433, Note_on_c, 0, 55, 46
2, 93435, Note_on_c, 0, 64, 57
2, 93440, Control_c, 0, 64, 100
2, 93460, Control_c, 0, 64, 94
2, 93479, Control_c, 0, 64, 88
2, 93498, Control_c, 0, 64, 82
2, 93517, Control_c, 0, 64, 77
2, 93537, Control_c, 0, 64, 73
2, 93555, Control_c, 0, 64, 70
2, 93575, Control_c, 0, 64, 66
2, 93577, Note_on_c, 0, 70, 0
2, 93580, Note_on_c, 0, 73, 0
2, 93594, Control_c, 0, 64, 64
2, 93614, Control_c, 0, 64, 60
2, 93632, Control_c, 0, 64, 56
2, 93652, Control_c, 0, 64, 53
2, 93671, Control_c, 0, 64, 51
2, 93684, Note_on_c, 0, 58, 0
2, 93690, Control_c, 0, 64, 48
2, 93709, Control_c, 0, 64, 46
2, 93728, Control_c, 0, 64, 43
2, 93748, Control_c, 0, 64, 40
2, 93762, Note_on_c, 0, 73, 60
2, 93766, Control_c, 0, 64, 37
2, 93786, Control_c, 0, 64, 36
2, 93805, Control_c, 0, 64, 35
2, 93825, Control_c, 0, 64, 34
2, 93843, Control_c, 0, 64, 33
2, 93863, Control_c, 0, 64, 32
2, 94100, Note_on_c, 0, 72, 63
2, 94164, Note_on_c, 0, 73, 0
2, 94187, Control_c, 0, 64, 34
2, 94206, Control_c, 0, 64, 35
2, 94226, Control_c, 0, 64, 36
2, 94245, Control_c, 0, 64, 38
2, 94264, Control_c, 0, 64, 40
2, 94283, Control_c, 0, 64, 42
2, 94303, Control_c, 0, 64, 44
2, 94321, Control_c, 0, 64, 48
2, 94341, Control_c, 0, 64, 51
2, 94360, Control_c, 0, 64, 52
2, 94380, Control_c, 0, 64, 54
2, 94398, Control_c, 0, 64, 56
2, 94418, Control_c, 0, 64, 58
2, 94421, Note_on_c, 0, 70, 65
2, 94437, Control_c, 0, 64, 61
2, 94456, Control_c, 0, 64, 63
2, 94475, Control_c, 0, 64, 64
2, 94495, Control_c, 0, 64, 66
2, 94514, Control_c, 0, 64, 68
2, 94533, Control_c, 0, 64, 73
2, 94552, Control_c, 0, 64, 83
2, 94572, Control_c, 0, 64, 96
2, 94590, Control_c, 0, 64, 117
2, 94610, Control_c, 0, 64, 127
2, 94775, Note_on_c, 0, 68, 66
2, 94783, Control_c, 0, 64, 112
2, 94785, Note_on_c, 0, 65, 57
2, 94793, Note_on_c, 0, 64, 0
2, 94799, Note_on_c, 0, 56, 48
2, 94801, Control_c, 0, 64, 99
2, 94821, Control_c, 0, 64, 89
2, 94840, Control_c, 0, 64, 80
2, 94845, Note_on_c, 0, 72, 0
2, 94860, Control_c, 0, 64, 71
2, 94878, Control_c, 0, 64, 67
2, 94898, Control_c, 0, 64, 63
2, 94917, Control_c, 0, 64, 61
2, 94918, Note_on_c, 0, 70, 0
2, 94936, Control_c, 0, 64, 59
2, 94955, Control_c, 0, 64, 58
2, 94975, Control_c, 0, 64, 57
2, 94994, Control_c, 0, 64, 56
2, 95013, Control_c, 0, 64, 55
2, 95032, Control_c, 0, 64, 54
2, 95051, Note_on_c, 0, 55, 0
2, 95052, Control_c, 0, 64, 53
2, 95070, Control_c, 0, 64, 52
2, 95089, Control_c, 0, 64, 51
2, 95109, Control_c, 0, 64, 50
2, 95116, Note_on_c, 0, 63, 58
2, 95128, Control_c, 0, 64, 49
2, 95147, Control_c, 0, 64, 47
2, 95166, Control_c, 0, 64, 46
2, 95172, Note_on_c, 0, 65, 0
2, 95186, Control_c, 0, 64, 45
2, 95205, Control_c, 0, 64, 45
2, 95224, Control_c, 0, 64, 44
2, 95243, Control_c, 0, 64, 43
2, 95263, Control_c, 0, 64, 43
2, 95281, Control_c, 0, 64, 42
2, 95301, Control_c, 0, 64, 42
2, 95425, Note_on_c, 0, 62, 59
2, 95484, Note_on_c, 0, 63, 0
2, 95512, Control_c, 0, 64, 42
2, 95532, Control_c, 0, 64, 43
2, 95646, Control_c, 0, 64, 42
2, 95666, Control_c, 0, 64, 41
2, 95685, Control_c, 0, 64, 38
2, 95704, Control_c, 0, 64, 36
2, 95723, Control_c, 0, 64, 33
2, 95743, Control_c, 0, 64, 25
2, 95747, Note_on_c, 0, 65, 61
2, 95761, Control_c, 0, 64, 0
2, 96122, Note_on_c, 0, 59, 59
2, 96137, Note_on_c, 0, 53, 42
2, 96230, Note_on_c, 0, 68, 0
2, 96266, Note_on_c, 0, 62, 0
2, 96276, Note_on_c, 0, 65, 0
2, 96420, Note_on_c, 0, 56, 0
2, 96465, Note_on_c, 0, 68, 60
2, 96822, Note_on_c, 0, 67, 59
2, 96851, Note_on_c, 0, 68, 0
2, 96969, Control_c, 0, 64, 9
2, 96989, Control_c, 0, 64, 36
2, 97007, Control_c, 0, 64, 49
2, 97027, Control_c, 0, 64, 56
2, 97046, Control_c, 0, 64, 61
2, 97065, Control_c, 0, 64, 65
2, 97084, Control_c, 0, 64, 70
2, 97104, Control_c, 0, 64, 81
2, 97123, Control_c, 0, 64, 101
2, 97125, Note_on_c, 0, 65, 59
2, 97142, Control_c, 0, 64, 127
2, 97190, Note_on_c, 0, 67, 0
2, 97236, Note_on_c, 0, 65, 0
2, 97335, Note_on_c, 0, 53, 0
2, 97511, Note_on_c, 0, 64, 56
2, 97534, Note_on_c, 0, 55, 45
2, 97603, Control_c, 0, 64, 98
2, 97622, Control_c, 0, 64, 84
2, 97631, Note_on_c, 0, 59, 0
2, 97641, Control_c, 0, 64, 71
2, 97661, Control_c, 0, 64, 62
2, 97680, Control_c, 0, 64, 43
2, 97699, Control_c, 0, 64, 15
2, 97718, Control_c, 0, 64, 0
2, 97864, Note_on_c, 0, 60, 52
2, 98207, Note_on_c, 0, 58, 49
2, 98280, Note_on_c, 0, 60, 0
2, 98353, Control_c, 0, 64, 13
2, 98372, Control_c, 0, 64, 21
2, 98391, Control_c, 0, 64, 27
2, 98411, Control_c, 0, 64, 36
2, 98430, Control_c, 0, 64, 45
2, 98448, Control_c, 0, 64, 52
2, 98468, Control_c, 0, 64, 56
2, 98487, Control_c, 0, 64, 59
2, 98506, Control_c, 0, 64, 61
2, 98525, Control_c, 0, 64, 63
2, 98539, Note_on_c, 0, 61, 51
2, 98545, Control_c, 0, 64, 65
2, 98564, Control_c, 0, 64, 68
2, 98576, Note_on_c, 0, 55, 0
2, 98583, Control_c, 0, 64, 73
2, 98602, Control_c, 0, 64, 80
2, 98622, Control_c, 0, 64, 87
2, 98640, Control_c, 0, 64, 91
2, 98660, Control_c, 0, 64, 94
2, 98679, Control_c, 0, 64, 95
2, 98758, Note_on_c, 0, 58, 0
2, 98794, Control_c, 0, 64, 94
2, 98814, Control_c, 0, 64, 92
2, 98833, Control_c, 0, 64, 89
2, 98852, Control_c, 0, 64, 86
2, 98871, Control_c, 0, 64, 83
2, 98891, Control_c, 0, 64, 81
2, 98910, Control_c, 0, 64, 78
2, 98920, Note_on_c, 0, 55, 45
2, 98926, Note_on_c, 0, 52, 43
2, 98928, Control_c, 0, 64, 76
2, 98948, Control_c, 0, 64, 74
2, 98967, Control_c, 0, 64, 70
2, 98986, Control_c, 0, 64, 65
2, 98996, Note_on_c, 0, 61, 0
2, 99005, Control_c, 0, 64, 59
2, 99025, Control_c, 0, 64, 49
2, 99044, Control_c, 0, 64, 43
2, 99063, Control_c, 0, 64, 40
2, 99082, Control_c, 0, 64, 38
2, 99102, Control_c, 0, 64, 35
2, 99120, Control_c, 0, 64, 27
2, 99140, Control_c, 0, 64, 19
2, 99159, Control_c, 0, 64, 9
2, 99179, Control_c, 0, 64, 0
2, 99267, Note_on_c, 0, 61, 48
2, 99620, Note_on_c, 0, 60, 49
2, 99669, Note_on_c, 0, 61, 0
2, 99812, Control_c, 0, 64, 9
2, 99831, Control_c, 0, 64, 15
2, 99851, Control_c, 0, 64, 25
2, 99870, Control_c, 0, 64, 34
2, 99888, Control_c, 0, 64, 43
2, 99908, Control_c, 0, 64, 50
2, 99927, Control_c, 0, 64, 55
2, 99946, Control_c, 0, 64, 58
2, 99965, Control_c, 0, 64, 60
2, 99985, Control_c, 0, 64, 62
2, 99990, Note_on_c, 0, 58, 45
2, 99997, Note_on_c, 0, 60, 0
2, 100004, Control_c, 0, 64, 63
2, 100023, Control_c, 0, 64, 65
2, 100035, Note_on_c, 0, 55, 0
2, 100042, Control_c, 0, 64, 67
2, 100062, Control_c, 0, 64, 70
2, 100080, Control_c, 0, 64, 73
2, 100100, Control_c, 0, 64, 76
2, 100119, Control_c, 0, 64, 76
2, 100139, Control_c, 0, 64, 76
2, 100273, Control_c, 0, 64, 75
2, 100414, Note_on_c, 0, 58, 0
2, 100462, Note_on_c, 0, 64, 0
2, 100465, Control_c, 0, 64, 75
2, 100478, Note_on_c, 0, 56, 40
2, 100484, Control_c, 0, 64, 74
2, 100494, Note_on_c, 0, 53, 39
2, 100503, Control_c, 0, 64, 72
2, 100522, Control_c, 0, 64, 71
2, 100542, Control_c, 0, 64, 69
2, 100560, Control_c, 0, 64, 67
2, 100580, Control_c, 0, 64, 65
2, 100593, Note_on_c, 0, 52, 0
2, 100599, Control_c, 0, 64, 63
2, 100619, Control_c, 0, 64, 61
2, 100637, Control_c, 0, 64, 57
2, 100657, Control_c, 0, 64, 53
2, 100676, Control_c, 0, 64, 48
2, 100695, Control_c, 0, 64, 40
2, 100714, Control_c, 0, 64, 31
2, 100734, Control_c, 0, 64, 20
2, 100753, Control_c, 0, 64, 0
2, 100963, Note_on_c, 0, 72, 49
2, 101061, Control_c, 0, 64, 11
2, 101080, Control_c, 0, 64, 22
2, 101100, Control_c, 0, 64, 31
2, 101118, Control_c, 0, 64, 39
2, 101138, Control_c, 0, 64, 46
2, 101157, Control_c, 0, 64, 52
2, 101176, Control_c, 0, 64, 55
2, 101195, Control_c, 0, 64, 58
2, 101215, Control_c, 0, 64, 60
2, 101234, Control_c, 0, 64, 61
2, 101253, Control_c, 0, 64, 63
2, 101272, Control_c, 0, 64, 65
2, 101292, Control_c, 0, 64, 67
2, 101310, Control_c, 0, 64, 70
2, 101313, Note_on_c, 0, 70, 58
2, 101329, Control_c, 0, 64, 76
2, 101349, Control_c, 0, 64, 81
2, 101368, Control_c, 0, 64, 86
2, 101387, Control_c, 0, 64, 90
2, 101406, Control_c, 0, 64, 95
2, 101426, Control_c, 0, 64, 104
2, 101445, Control_c, 0, 64, 127
2, 101529, Note_on_c, 0, 53, 0
2, 101541, Note_on_c, 0, 72, 0
2, 101545, Note_on_c, 0, 56, 0
2, 101641, Note_on_c, 0, 73, 63
2, 101679, Note_on_c, 0, 70, 0
2, 101977, Note_on_c, 0, 64, 61
2, 101997, Note_on_c, 0, 55, 42
2, 101997, Note_on_c, 0, 58, 42
2, 102020, Control_c, 0, 64, 105
2, 102039, Control_c, 0, 64, 90
2, 102059, Control_c, 0, 64, 77
2, 102077, Control_c, 0, 64, 67
2, 102079, Note_on_c, 0, 73, 0
2, 102097, Control_c, 0, 64, 58
2, 102116, Control_c, 0, 64, 43
2, 102135, Control_c, 0, 64, 17
2, 102154, Control_c, 0, 64, 0
2, 102308, Control_c, 0, 64, 17
2, 102324, Note_on_c, 0, 73, 65
2, 102327, Control_c, 0, 64, 27
2, 102346, Control_c, 0, 64, 36
2, 102365, Control_c, 0, 64, 45
2, 102385, Control_c, 0, 64, 52
2, 102404, Control_c, 0, 64, 56
2, 102423, Control_c, 0, 64, 60
2, 102442, Control_c, 0, 64, 62
2, 102462, Control_c, 0, 64, 63
2, 102480, Control_c, 0, 64, 65
2, 102500, Control_c, 0, 64, 67
2, 102519, Control_c, 0, 64, 70
2, 102539, Control_c, 0, 64, 76
2, 102557, Control_c, 0, 64, 84
2, 102577, Control_c, 0, 64, 90
2, 102596, Control_c, 0, 64, 92
2, 102615, Control_c, 0, 64, 95
2, 102626, Note_on_c, 0, 64, 0
2, 102634, Control_c, 0, 64, 98
2, 102654, Control_c, 0, 64, 104
2, 102663, Note_on_c, 0, 72, 66
2, 102673, Control_c, 0, 64, 111
2, 102690, Control_c, 0, 64, 118
2, 102711, Control_c, 0, 64, 119
2, 102768, Control_c, 0, 64, 121
2, 102794, Note_on_c, 0, 58, 0
2, 102795, Note_on_c, 0, 73, 0
2, 102978, Note_on_c, 0, 70, 72
2, 103033, Note_on_c, 0, 72, 0
2, 103068, Note_on_c, 0, 55, 0
2, 103210, Control_c, 0, 64, 119
2, 103230, Control_c, 0, 64, 115
2, 103248, Control_c, 0, 64, 107
2, 103268, Control_c, 0, 64, 100
2, 103287, Control_c, 0, 64, 95
2, 103306, Control_c, 0, 64, 90
2, 103325, Control_c, 0, 64, 85
2, 103339, Note_on_c, 0, 68, 70
2, 103345, Control_c, 0, 64, 81
2, 103359, Note_on_c, 0, 56, 53
2, 103364, Control_c, 0, 64, 75
2, 103367, Note_on_c, 0, 60, 46
2, 103381, Note_on_c, 0, 70, 0
2, 103383, Control_c, 0, 64, 70
2, 103402, Control_c, 0, 64, 64
2, 103422, Control_c, 0, 64, 56
2, 103440, Control_c, 0, 64, 39
2, 103460, Control_c, 0, 64, 0
2, 103671, Control_c, 0, 64, 26
2, 103687, Note_on_c, 0, 79, 80
2, 103690, Control_c, 0, 64, 47
2, 103710, Control_c, 0, 64, 59
2, 103728, Control_c, 0, 64, 63
2, 103748, Control_c, 0, 64, 65
2, 103767, Control_c, 0, 64, 67
2, 103769, Note_on_c, 0, 68, 0
2, 103786, Control_c, 0, 64, 70
2, 103805, Control_c, 0, 64, 79
2, 103825, Control_c, 0, 64, 93
2, 103844, Control_c, 0, 64, 108
2, 103863, Control_c, 0, 64, 127
2, 103918, Note_on_c, 0, 60, 0
2, 104008, Note_on_c, 0, 77, 80
2, 104057, Note_on_c, 0, 56, 0
2, 104329, Note_on_c, 0, 80, 85
2, 104377, Note_on_c, 0, 77, 0
2, 104409, Note_on_c, 0, 79, 0
2, 104703, Note_on_c, 0, 71, 78
2, 104708, Note_on_c, 0, 53, 51
2, 104717, Note_on_c, 0, 56, 57
2, 104765, Control_c, 0, 64, 103
2, 104782, Note_on_c, 0, 80, 0
2, 104785, Control_c, 0, 64, 90
2, 104804, Control_c, 0, 64, 78
2, 104823, Control_c, 0, 64, 69
2, 104842, Control_c, 0, 64, 59
2, 104862, Control_c, 0, 64, 28
2, 104880, Control_c, 0, 64, 0
2, 105054, Control_c, 0, 64, 35
2, 105073, Control_c, 0, 64, 51
2, 105090, Note_on_c, 0, 80, 78
2, 105092, Control_c, 0, 64, 60
2, 105111, Control_c, 0, 64, 63
2, 105130, Control_c, 0, 64, 64
2, 105150, Control_c, 0, 64, 67
2, 105168, Control_c, 0, 64, 72
2, 105188, Control_c, 0, 64, 84
2, 105207, Control_c, 0, 64, 100
2, 105226, Control_c, 0, 64, 127
2, 105240, Note_on_c, 0, 71, 0
2, 105400, Note_on_c, 0, 79, 82
2, 105470, Note_on_c, 0, 80, 0
2, 105492, Note_on_c, 0, 56, 0
2, 105724, Note_on_c, 0, 77, 82
2, 105807, Note_on_c, 0, 79, 0
2, 106084, Note_on_c, 0, 76, 77
2, 106091, Note_on_c, 0, 55, 55
2, 106093, Note_on_c, 0, 58, 57
2, 106110, Control_c, 0, 64, 121
2, 106129, Control_c, 0, 64, 100
2, 106140, Note_on_c, 0, 77, 0
2, 106149, Control_c, 0, 64, 85
2, 106168, Control_c, 0, 64, 76
2, 106187, Control_c, 0, 64, 69
2, 106206, Control_c, 0, 64, 63
2, 106226, Control_c, 0, 64, 57
2, 106234, Note_on_c, 0, 53, 0
2, 106245, Control_c, 0, 64, 50
2, 106264, Control_c, 0, 64, 43
2, 106283, Control_c, 0, 64, 35
2, 106303, Control_c, 0, 64, 25
2, 106321, Control_c, 0, 64, 0
2, 106436, Note_on_c, 0, 77, 79
2, 106527, Note_on_c, 0, 76, 0
2, 106766, Note_on_c, 0, 79, 82
2, 106783, Control_c, 0, 64, 15
2, 106801, Control_c, 0, 64, 36
2, 106821, Control_c, 0, 64, 51
2, 106840, Control_c, 0, 64, 60
2, 106860, Control_c, 0, 64, 63
2, 106875, Note_on_c, 0, 77, 0
2, 106878, Control_c, 0, 64, 65
2, 106898, Control_c, 0, 64, 67
2, 106917, Control_c, 0, 64, 73
2, 106936, Control_c, 0, 64, 86
2, 106955, Control_c, 0, 64, 109
2, 106975, Control_c, 0, 64, 127
2, 107108, Note_on_c, 0, 76, 78
2, 107163, Note_on_c, 0, 79, 0
2, 107250, Note_on_c, 0, 55, 0
2, 107554, Note_on_c, 0, 82, 83
2, 107568, Control_c, 0, 64, 112
2, 107580, Note_on_c, 0, 52, 47
2, 107580, Note_on_c, 0, 55, 46
2, 107588, Control_c, 0, 64, 93
2, 107607, Control_c, 0, 64, 81
2, 107626, Control_c, 0, 64, 71
2, 107645, Control_c, 0, 64, 65
2, 107656, Note_on_c, 0, 76, 0
2, 107665, Control_c, 0, 64, 56
2, 107684, Control_c, 0, 64, 47
2, 107703, Control_c, 0, 64, 39
2, 107722, Control_c, 0, 64, 34
2, 107742, Control_c, 0, 64, 29
2, 107760, Control_c, 0, 64, 17
2, 107780, Control_c, 0, 64, 0
2, 107998, Note_on_c, 0, 58, 0
2, 108006, Note_on_c, 0, 73, 62
2, 108164, Control_c, 0, 64, 17
2, 108183, Control_c, 0, 64, 29
2, 108202, Control_c, 0, 64, 40
2, 108222, Control_c, 0, 64, 48
2, 108240, Control_c, 0, 64, 55
2, 108260, Control_c, 0, 64, 59
2, 108279, Control_c, 0, 64, 61
2, 108299, Control_c, 0, 64, 63
2, 108317, Control_c, 0, 64, 64
2, 108337, Control_c, 0, 64, 66
2, 108344, Note_on_c, 0, 82, 0
2, 108348, Note_on_c, 0, 72, 62
2, 108356, Control_c, 0, 64, 69
2, 108376, Control_c, 0, 64, 75
2, 108389, Note_on_c, 0, 73, 0
2, 108394, Control_c, 0, 64, 84
2, 108414, Control_c, 0, 64, 96
2, 108433, Control_c, 0, 64, 109
2, 108450, Control_c, 0, 64, 127
2, 108595, Note_on_c, 0, 52, 0
2, 108667, Note_on_c, 0, 70, 67
2, 108711, Note_on_c, 0, 72, 0
2, 109006, Note_on_c, 0, 68, 64
2, 109008, Control_c, 0, 64, 116
2, 109023, Note_on_c, 0, 53, 44
2, 109028, Control_c, 0, 64, 100
2, 109040, Note_on_c, 0, 60, 44
2, 109047, Control_c, 0, 64, 90
2, 109050, Note_on_c, 0, 70, 0
2, 109066, Control_c, 0, 64, 82
2, 109083, Note_on_c, 0, 55, 0
2, 109085, Control_c, 0, 64, 75
2, 109105, Control_c, 0, 64, 69
2, 109124, Control_c, 0, 64, 64
2, 109143, Control_c, 0, 64, 57
2, 109162, Control_c, 0, 64, 47
2, 109182, Control_c, 0, 64, 27
2, 109200, Control_c, 0, 64, 0
2, 109352, Note_on_c, 0, 70, 64
2, 109456, Note_on_c, 0, 68, 0
2, 109604, Control_c, 0, 64, 13
2, 109623, Control_c, 0, 64, 29
2, 109642, Control_c, 0, 64, 40
2, 109662, Control_c, 0, 64, 48
2, 109679, Note_on_c, 0, 72, 70
2, 109680, Control_c, 0, 64, 54
2, 109700, Control_c, 0, 64, 57
2, 109709, Note_on_c, 0, 70, 0
2, 109719, Control_c, 0, 64, 60
2, 109739, Control_c, 0, 64, 61
2, 109757, Control_c, 0, 64, 63
2, 109777, Control_c, 0, 64, 64
2, 109796, Control_c, 0, 64, 66
2, 109816, Control_c, 0, 64, 68
2, 109834, Control_c, 0, 64, 73
2, 109854, Control_c, 0, 64, 82
2, 109873, Control_c, 0, 64, 90
2, 109891, Control_c, 0, 64, 94
2, 109911, Control_c, 0, 64, 95
2, 109928, Note_on_c, 0, 60, 0
2, 109930, Control_c, 0, 64, 96
2, 109950, Control_c, 0, 64, 97
2, 109968, Control_c, 0, 64, 99
2, 109988, Control_c, 0, 64, 101
2, 110007, Control_c, 0, 64, 102
2, 110026, Control_c, 0, 64, 102
2, 110043, Note_on_c, 0, 65, 57
2, 110053, Note_on_c, 0, 72, 0
2, 110084, Control_c, 0, 64, 103
2, 110296, Control_c, 0, 64, 102
2, 110334, Control_c, 0, 64, 102
2, 110353, Control_c, 0, 64, 100
2, 110371, Control_c, 0, 64, 99
2, 110391, Control_c, 0, 64, 96
2, 110410, Control_c, 0, 64, 93
2, 110430, Control_c, 0, 64, 90
2, 110448, Control_c, 0, 64, 87
2, 110451, Note_on_c, 0, 74, 60
2, 110468, Control_c, 0, 64, 85
2, 110473, Note_on_c, 0, 59, 45
2, 110487, Control_c, 0, 64, 83
2, 110488, Note_on_c, 0, 65, 0
2, 110506, Control_c, 0, 64, 81
2, 110525, Control_c, 0, 64, 79
2, 110545, Control_c, 0, 64, 74
2, 110564, Control_c, 0, 64, 69
2, 110583, Control_c, 0, 64, 63
2, 110602, Control_c, 0, 64, 54
2, 110622, Control_c, 0, 64, 40
2, 110640, Control_c, 0, 64, 21
2, 110660, Control_c, 0, 64, 0
2, 110847, Note_on_c, 0, 53, 0
2, 110859, Note_on_c, 0, 68, 55
2, 111102, Control_c, 0, 64, 20
2, 111120, Control_c, 0, 64, 34
2, 111140, Control_c, 0, 64, 44
2, 111159, Control_c, 0, 64, 52
2, 111179, Control_c, 0, 64, 57
2, 111192, Note_on_c, 0, 67, 52
2, 111197, Control_c, 0, 64, 60
2, 111217, Control_c, 0, 64, 62
2, 111219, Note_on_c, 0, 68, 0
2, 111236, Control_c, 0, 64, 63
2, 111256, Control_c, 0, 64, 65
2, 111274, Control_c, 0, 64, 66
2, 111294, Control_c, 0, 64, 69
2, 111313, Control_c, 0, 64, 73
2, 111331, Control_c, 0, 64, 79
2, 111349, Control_c, 0, 64, 86
2, 111368, Control_c, 0, 64, 92
2, 111388, Control_c, 0, 64, 94
2, 111406, Control_c, 0, 64, 95
2, 111426, Control_c, 0, 64, 96
2, 111445, Control_c, 0, 64, 98
2, 111465, Control_c, 0, 64, 102
2, 111483, Control_c, 0, 64, 105
2, 111503, Control_c, 0, 64, 108
2, 111522, Control_c, 0, 64, 108
2, 111525, Note_on_c, 0, 65, 57
2, 111526, Note_on_c, 0, 74, 0
2, 111541, Control_c, 0, 64, 109
2, 111560, Control_c, 0, 64, 110
2, 111580, Control_c, 0, 64, 111
2, 111585, Note_on_c, 0, 67, 0
2, 111599, Control_c, 0, 64, 112
2, 111617, Note_on_c, 0, 65, 0
2, 111637, Control_c, 0, 64, 113
2, 111791, Control_c, 0, 64, 112
2, 111810, Control_c, 0, 64, 112
2, 111829, Control_c, 0, 64, 110
2, 111848, Control_c, 0, 64, 108
2, 111868, Control_c, 0, 64, 105
2, 111886, Control_c, 0, 64, 102
2, 111906, Control_c, 0, 64, 100
2, 111925, Control_c, 0, 64, 96
2, 111932, Note_on_c, 0, 59, 0
2, 111945, Control_c, 0, 64, 93
2, 111963, Control_c, 0, 64, 89
2, 111963, Note_on_c, 0, 64, 60
2, 111982, Note_on_c, 0, 55, 40
2, 111983, Control_c, 0, 64, 85
2, 112002, Control_c, 0, 64, 80
2, 112021, Control_c, 0, 64, 75
2, 112040, Control_c, 0, 64, 68
2, 112060, Control_c, 0, 64, 61
2, 112079, Control_c, 0, 64, 47
2, 112098, Control_c, 0, 64, 19
2, 112117, Control_c, 0, 64, 0
2, 112194, Control_c, 0, 64, 9
2, 112214, Control_c, 0, 64, 26
2, 112232, Control_c, 0, 64, 38
2, 112251, Control_c, 0, 64, 47
2, 112271, Control_c, 0, 64, 53
2, 112290, Control_c, 0, 64, 56
2, 112309, Control_c, 0, 64, 58
2, 112328, Control_c, 0, 64, 61
2, 112348, Control_c, 0, 64, 62
2, 112366, Control_c, 0, 64, 63
2, 112386, Control_c, 0, 64, 64
2, 112393, Note_on_c, 0, 60, 57
2, 112405, Control_c, 0, 64, 66
2, 112425, Control_c, 0, 64, 67
2, 112443, Control_c, 0, 64, 70
2, 112463, Control_c, 0, 64, 75
2, 112482, Control_c, 0, 64, 82
2, 112501, Control_c, 0, 64, 89
2, 112520, Control_c, 0, 64, 92
2, 112540, Control_c, 0, 64, 92
2, 112545, Note_on_c, 0, 48, 0
2, 112559, Control_c, 0, 64, 93
2, 112572, Note_on_c, 0, 55, 0
2, 112597, Control_c, 0, 64, 94
2, 112617, Control_c, 0, 64, 95
2, 112635, Control_c, 0, 64, 95
2, 112723, Note_on_c, 0, 55, 59
2, 112927, Note_on_c, 0, 64, 0
2, 113043, Note_on_c, 0, 58, 71
2, 113083, Note_on_c, 0, 55, 0
2, 113106, Note_on_c, 0, 60, 0
2, 113347, Control_c, 0, 64, 95
2, 113366, Control_c, 0, 64, 93
2, 113385, Control_c, 0, 64, 91
2, 113395, Note_on_c, 0, 65, 73
2, 113404, Control_c, 0, 64, 88
2, 113407, Note_on_c, 0, 56, 61
2, 113424, Control_c, 0, 64, 84
2, 113443, Control_c, 0, 64, 78
2, 113462, Control_c, 0, 64, 71
2, 113481, Control_c, 0, 64, 65
2, 113501, Control_c, 0, 64, 59
2, 113508, Note_on_c, 0, 58, 0
2, 113520, Control_c, 0, 64, 47
2, 113539, Control_c, 0, 64, 35
2, 113558, Control_c, 0, 64, 28
2, 113578, Control_c, 0, 64, 26
2, 113596, Control_c, 0, 64, 23
2, 113616, Control_c, 0, 64, 21
2, 113635, Control_c, 0, 64, 19
2, 113655, Control_c, 0, 64, 15
2, 113673, Control_c, 0, 64, 13
2, 113692, Control_c, 0, 64, 11
2, 113757, Note_on_c, 0, 53, 71
2, 113789, Control_c, 0, 64, 20
2, 113807, Control_c, 0, 64, 30
2, 113827, Control_c, 0, 64, 40
2, 113846, Control_c, 0, 64, 50
2, 113865, Control_c, 0, 64, 56
2, 113884, Control_c, 0, 64, 60
2, 113904, Control_c, 0, 64, 62
2, 113923, Control_c, 0, 64, 64
2, 113942, Control_c, 0, 64, 66
2, 113961, Control_c, 0, 64, 68
2, 113981, Control_c, 0, 64, 74
2, 114000, Control_c, 0, 64, 82
2, 114019, Control_c, 0, 64, 91
2, 114038, Control_c, 0, 64, 100
2, 114058, Control_c, 0, 64, 106
2, 114076, Control_c, 0, 64, 118
2, 114096, Control_c, 0, 64, 127
2, 114148, Note_on_c, 0, 47, 73
2, 114251, Note_on_c, 0, 53, 0
2, 114264, Note_on_c, 0, 56, 0
2, 114554, Note_on_c, 0, 50, 73
2, 114659, Note_on_c, 0, 47, 0
2, 115131, Note_on_c, 0, 55, 71
2, 115147, Note_on_c, 0, 36, 57
2, 115208, Control_c, 0, 64, 102
2, 115227, Control_c, 0, 64, 78
2, 115246, Control_c, 0, 64, 66
2, 115265, Control_c, 0, 64, 55
2, 115285, Control_c, 0, 64, 29
2, 115303, Control_c, 0, 64, 9
2, 115323, Control_c, 0, 64, 0
2, 115337, Note_on_c, 0, 50, 0
2, 115363, Note_on_c, 0, 65, 0
2, 115688, Control_c, 0, 64, 9
2, 115707, Control_c, 0, 64, 20
2, 115726, Control_c, 0, 64, 31
2, 115731, Note_on_c, 0, 62, 61
2, 115745, Control_c, 0, 64, 43
2, 115765, Control_c, 0, 64, 54
2, 115783, Control_c, 0, 64, 60
2, 115803, Control_c, 0, 64, 63
2, 115822, Control_c, 0, 64, 65
2, 115841, Control_c, 0, 64, 67
2, 115860, Control_c, 0, 64, 72
2, 115873, Note_on_c, 0, 55, 0
2, 115879, Control_c, 0, 64, 80
2, 115899, Control_c, 0, 64, 98
2, 115917, Control_c, 0, 64, 127
2, 116112, Note_on_c, 0, 59, 70
2, 116118, Note_on_c, 0, 53, 52
2, 116147, Control_c, 0, 64, 108
2, 116167, Control_c, 0, 64, 86
2, 116186, Control_c, 0, 64, 70
2, 116187, Note_on_c, 0, 62, 0
2, 116205, Control_c, 0, 64, 62
2, 116224, Control_c, 0, 64, 47
2, 116244, Control_c, 0, 64, 24
2, 116262, Control_c, 0, 64, 18
2, 116320, Control_c, 0, 64, 20
2, 116339, Control_c, 0, 64, 26
2, 116358, Control_c, 0, 64, 34
2, 116378, Control_c, 0, 64, 40
2, 116397, Control_c, 0, 64, 46
2, 116416, Control_c, 0, 64, 51
2, 116435, Control_c, 0, 64, 55
2, 116455, Control_c, 0, 64, 58
2, 116473, Control_c, 0, 64, 61
2, 116487, Note_on_c, 0, 60, 66
2, 116493, Control_c, 0, 64, 63
2, 116512, Control_c, 0, 64, 64
2, 116532, Control_c, 0, 64, 67
2, 116550, Control_c, 0, 64, 71
2, 116570, Control_c, 0, 64, 78
2, 116589, Control_c, 0, 64, 90
2, 116607, Note_on_c, 0, 53, 0
2, 116608, Control_c, 0, 64, 98
2, 116619, Note_on_c, 0, 59, 0
2, 116627, Control_c, 0, 64, 99
2, 116666, Control_c, 0, 64, 98
2, 116685, Control_c, 0, 64, 97
2, 116704, Control_c, 0, 64, 95
2, 116724, Control_c, 0, 64, 91
2, 116742, Control_c, 0, 64, 86
2, 116761, Control_c, 0, 64, 81
2, 116781, Control_c, 0, 64, 76
2, 116800, Control_c, 0, 64, 71
2, 116819, Control_c, 0, 64, 67
2, 116838, Control_c, 0, 64, 66
2, 116858, Control_c, 0, 64, 65
2, 116885, Note_on_c, 0, 55, 57
2, 116896, Control_c, 0, 64, 65
2, 116935, Control_c, 0, 64, 64
2, 116953, Control_c, 0, 64, 63
2, 116973, Control_c, 0, 64, 61
2, 116992, Control_c, 0, 64, 59
2, 117012, Control_c, 0, 64, 54
2, 117030, Control_c, 0, 64, 50
2, 117050, Control_c, 0, 64, 45
2, 117069, Control_c, 0, 64, 40
2, 117088, Control_c, 0, 64, 35
2, 117107, Control_c, 0, 64, 30
2, 117127, Control_c, 0, 64, 24
2, 117146, Control_c, 0, 64, 15
2, 117165, Control_c, 0, 64, 0
2, 117307, Note_on_c, 0, 58, 58
2, 117426, Note_on_c, 0, 60, 0
2, 117776, Note_on_c, 0, 60, 56
2, 118278, Control_c, 0, 64, 23
2, 118298, Control_c, 0, 64, 40
2, 118317, Control_c, 0, 64, 50
2, 118336, Control_c, 0, 64, 54
2, 118355, Control_c, 0, 64, 56
2, 118369, Note_on_c, 0, 64, 48
2, 118375, Control_c, 0, 64, 58
2, 118393, Control_c, 0, 64, 60
2, 118410, Control_c, 0, 64, 62
2, 118429, Control_c, 0, 64, 64
2, 118449, Control_c, 0, 64, 65
2, 118467, Control_c, 0, 64, 67
2, 118487, Control_c, 0, 64, 69
2, 118506, Control_c, 0, 64, 73
2, 118525, Control_c, 0, 64, 79
2, 118544, Control_c, 0, 64, 84
2, 118564, Control_c, 0, 64, 88
2, 118583, Control_c, 0, 64, 91
2, 118602, Control_c, 0, 64, 95
2, 118621, Control_c, 0, 64, 101
2, 118641, Control_c, 0, 64, 107
2, 118642, Note_on_c, 0, 60, 0
2, 118643, Note_on_c, 0, 36, 0
2, 118659, Control_c, 0, 64, 112
2, 118679, Control_c, 0, 64, 112
2, 118698, Control_c, 0, 64, 114
2, 118712, Note_on_c, 0, 58, 0
2, 118718, Control_c, 0, 64, 118
2, 118736, Control_c, 0, 64, 123
2, 118749, Note_on_c, 0, 55, 0
2, 118756, Control_c, 0, 64, 127
2, 118838, Note_on_c, 0, 64, 0
2, 119505, Control_c, 0, 64, 117
2, 119520, Note_on_c, 0, 65, 44
2, 119525, Control_c, 0, 64, 103
2, 119536, Note_on_c, 0, 57, 35
2, 119540, Note_on_c, 0, 60, 40
2, 119541, Note_on_c, 0, 41, 29
2, 119544, Control_c, 0, 64, 93
2, 119544, Note_on_c, 0, 53, 34
2, 119563, Control_c, 0, 64, 83
2, 119582, Control_c, 0, 64, 73
2, 119602, Control_c, 0, 64, 64
2, 119620, Control_c, 0, 64, 46
2, 119640, Control_c, 0, 64, 20
2, 119659, Control_c, 0, 64, 13
2, 119717, Control_c, 0, 64, 11
2, 119736, Control_c, 0, 64, 9
2, 119755, Control_c, 0, 64, 0
2, 120005, Control_c, 0, 64, 13
2, 120024, Control_c, 0, 64, 21
2, 120043, Control_c, 0, 64, 28
2, 120062, Control_c, 0, 64, 34
2, 120082, Control_c, 0, 64, 39
2, 120100, Control_c, 0, 64, 45
2, 120120, Control_c, 0, 64, 49
2, 120139, Control_c, 0, 64, 51
2, 120159, Control_c, 0, 64, 53
2, 120177, Control_c, 0, 64, 55
2, 120197, Control_c, 0, 64, 57
2, 120216, Control_c, 0, 64, 60
2, 120235, Control_c, 0, 64, 62
2, 120254, Control_c, 0, 64, 63
2, 120274, Control_c, 0, 64, 64
2, 120293, Control_c, 0, 64, 65
2, 120311, Control_c, 0, 64, 66
2, 120331, Control_c, 0, 64, 69
2, 120350, Control_c, 0, 64, 72
2, 120370, Control_c, 0, 64, 76
2, 120388, Control_c, 0, 64, 79
2, 120408, Control_c, 0, 64, 82
2, 120427, Control_c, 0, 64, 84
2, 120446, Control_c, 0, 64, 86
2, 120465, Control_c, 0, 64, 88
2, 120485, Control_c, 0, 64, 89
2, 120504, Control_c, 0, 64, 90
2, 120542, Control_c, 0, 64, 91
2, 121867, Note_on_c, 0, 53, 0
2, 122104, Note_on_c, 0, 41, 0
2, 122499, Control_c, 0, 64, 90
2, 122538, Control_c, 0, 64, 90
2, 122558, Control_c, 0, 64, 89
2, 122576, Control_c, 0, 64, 88
2, 122596, Control_c, 0, 64, 88
2, 122615, Control_c, 0, 64, 87
2, 122635, Control_c, 0, 64, 86
2, 122646, Note_on_c, 0, 57, 0
2, 122653, Control_c, 0, 64, 86
2, 122673, Control_c, 0, 64, 85
2, 122692, Control_c, 0, 64, 84
2, 122710, Control_c, 0, 64, 83
2, 122730, Control_c, 0, 64, 82
2, 122749, Control_c, 0, 64, 81
2, 122769, Control_c, 0, 64, 80
2, 122787, Control_c, 0, 64, 79
2, 122807, Control_c, 0, 64, 78
2, 122826, Control_c, 0, 64, 76
2, 122845, Control_c, 0, 64, 75
2, 122864, Control_c, 0, 64, 74
2, 122866, Note_on_c, 0, 60, 0
2, 122884, Control_c, 0, 64, 72
2, 122903, Control_c, 0, 64, 71
2, 122922, Control_c, 0, 64, 69
2, 122941, Control_c, 0, 64, 69
2, 122961, Control_c, 0, 64, 68
2, 123115, Control_c, 0, 64, 68
2, 123127, Note_on_c, 0, 65, 0
2, 123190, Control_c, 0, 64, 67
2, 123249, Control_c, 0, 64, 67
2, 123287, Control_c, 0, 64, 66
2, 123306, Control_c, 0, 64, 65
2, 123325, Control_c, 0, 64, 65
2, 123344, Control_c, 0, 64, 64
2, 123421, Control_c, 0, 64, 64
2, 123459, Control_c, 0, 64, 63
2, 123479, Control_c, 0, 64, 63
2, 123498, Control_c, 0, 64, 62
2, 123518, Control_c, 0, 64, 61
2, 123536, Control_c, 0, 64, 60
2, 123556, Control_c, 0, 64, 60
2, 123613, Control_c, 0, 64, 59
2, 123633, Control_c, 0, 64, 59
2, 123652, Control_c, 0, 64, 58
2, 123690, Control_c, 0, 64, 58
2, 123709, Control_c, 0, 64, 57
2, 123747, Control_c, 0, 64, 56
2, 123767, Control_c, 0, 64, 56
2, 123786, Control_c, 0, 64, 55
2, 124267, Control_c, 0, 64, 56
2, 124363, Control_c, 0, 64, 56
2, 125056, Control_c, 0, 64, 57
2, 125325, Control_c, 0, 64, 57
2, 126247, Control_c, 0, 64, 58
2, 126304, Control_c, 0, 64, 58
2, 126343, Control_c, 0, 64, 59
2, 126381, Control_c, 0, 64, 59
2, 126419, Control_c, 0, 64, 60
2, 126438, Control_c, 0, 64, 60
2, 126458, Control_c, 0, 64, 61
2, 126477, Control_c, 0, 64, 61
2, 126496, Control_c, 0, 64, 62
2, 126515, Control_c, 0, 64, 62
2, 126535, Control_c, 0, 64, 63
2, 126553, Control_c, 0, 64, 64
2, 126573, Control_c, 0, 64, 64
2, 126612, Control_c, 0, 64, 65
2, 126630, Control_c, 0, 64, 66
2, 126650, Control_c, 0, 64, 67
2, 126669, Control_c, 0, 64, 68
2, 126688, Control_c, 0, 64, 70
2, 126707, Control_c, 0, 64, 73
2, 126727, Control_c, 0, 64, 76
2, 126746, Control_c, 0, 64, 80
2, 126765, Control_c, 0, 64, 82
2, 126784, Control_c, 0, 64, 83
2, 126823, Control_c, 0, 64, 84
2, 126841, Control_c, 0, 64, 86
2, 126861, Control_c, 0, 64, 90
2, 126880, Control_c, 0, 64, 95
2, 126899, Control_c, 0, 64, 101
2, 126918, Control_c, 0, 64, 112
2, 126938, Control_c, 0, 64, 127
2, 127592, Note_on_c, 0, 60, 47
2, 127632, Control_c, 0, 64, 112
2, 127649, Control_c, 0, 64, 101
2, 127668, Control_c, 0, 64, 92
2, 127687, Control_c, 0, 64, 82
2, 127707, Control_c, 0, 64, 73
2, 127725, Control_c, 0, 64, 66
2, 127745, Control_c, 0, 64, 60
2, 127764, Control_c, 0, 64, 55
2, 127784, Control_c, 0, 64, 57
2, 127802, Control_c, 0, 64, 59
2, 127822, Control_c, 0, 64, 61
2, 127841, Control_c, 0, 64, 62
2, 127861, Control_c, 0, 64, 63
2, 127879, Control_c, 0, 64, 65
2, 127899, Control_c, 0, 64, 67
2, 127918, Control_c, 0, 64, 70
2, 127937, Control_c, 0, 64, 75
2, 127956, Control_c, 0, 64, 83
2, 127975, Control_c, 0, 64, 91
2, 127995, Control_c, 0, 64, 98
2, 128013, Control_c, 0, 64, 105
2, 128033, Control_c, 0, 64, 119
2, 128052, Control_c, 0, 64, 127
2, 128260, Note_on_c, 0, 60, 0
2, 128551, Control_c, 0, 64, 119
2, 128569, Note_on_c, 0, 61, 58
2, 128570, Control_c, 0, 64, 106
2, 128590, Control_c, 0, 64, 99
2, 128610, Control_c, 0, 64, 93
2, 128629, Control_c, 0, 64, 86
2, 128648, Control_c, 0, 64, 80
2, 128668, Control_c, 0, 64, 73
2, 128686, Control_c, 0, 64, 67
2, 128706, Control_c, 0, 64, 61
2, 128725, Control_c, 0, 64, 52
2, 128745, Control_c, 0, 64, 44
2, 128763, Control_c, 0, 64, 42
2, 128783, Control_c, 0, 64, 43
2, 128802, Control_c, 0, 64, 46
2, 128821, Control_c, 0, 64, 49
2, 128840, Control_c, 0, 64, 54
2, 128860, Control_c, 0, 64, 57
2, 128879, Control_c, 0, 64, 60
2, 128898, Control_c, 0, 64, 61
2, 128917, Control_c, 0, 64, 63
2, 128937, Control_c, 0, 64, 64
2, 128955, Control_c, 0, 64, 65
2, 128974, Control_c, 0, 64, 69
2, 128994, Control_c, 0, 64, 74
2, 129013, Control_c, 0, 64, 82
2, 129032, Control_c, 0, 64, 90
2, 129051, Control_c, 0, 64, 96
2, 129071, Control_c, 0, 64, 102
2, 129090, Control_c, 0, 64, 113
2, 129109, Control_c, 0, 64, 127
2, 129206, Note_on_c, 0, 61, 0
2, 129569, Control_c, 0, 64, 116
2, 129578, Note_on_c, 0, 60, 55
2, 129589, Control_c, 0, 64, 103
2, 129608, Control_c, 0, 64, 95
2, 129628, Control_c, 0, 64, 87
2, 129646, Control_c, 0, 64, 79
2, 129666, Control_c, 0, 64, 72
2, 129685, Control_c, 0, 64, 66
2, 129705, Control_c, 0, 64, 62
2, 129723, Control_c, 0, 64, 56
2, 129743, Control_c, 0, 64, 51
2, 129762, Control_c, 0, 64, 48
2, 129781, Control_c, 0, 64, 47
2, 129820, Control_c, 0, 64, 48
2, 129839, Control_c, 0, 64, 51
2, 129858, Control_c, 0, 64, 55
2, 129877, Control_c, 0, 64, 57
2, 129897, Control_c, 0, 64, 59
2, 129915, Control_c, 0, 64, 61
2, 129934, Control_c, 0, 64, 63
2, 129954, Control_c, 0, 64, 64
2, 129973, Control_c, 0, 64, 66
2, 129992, Control_c, 0, 64, 69
2, 130011, Control_c, 0, 64, 74
2, 130031, Control_c, 0, 64, 83
2, 130050, Control_c, 0, 64, 91
2, 130069, Control_c, 0, 64, 96
2, 130088, Control_c, 0, 64, 100
2, 130108, Control_c, 0, 64, 103
2, 130126, Control_c, 0, 64, 108
2, 130146, Control_c, 0, 64, 116
2, 130165, Control_c, 0, 64, 123
2, 130185, Control_c, 0, 64, 127
2, 130230, Note_on_c, 0, 60, 0
2, 130434, Control_c, 0, 64, 123
2, 130453, Control_c, 0, 64, 119
2, 130472, Control_c, 0, 64, 116
2, 130491, Control_c, 0, 64, 112
2, 130511, Control_c, 0, 64, 108
2, 130529, Control_c, 0, 64, 103
2, 130549, Control_c, 0, 64, 97
2, 130568, Control_c, 0, 64, 92
2, 130582, Note_on_c, 0, 59, 57
2, 130588, Control_c, 0, 64, 86
2, 130606, Control_c, 0, 64, 79
2, 130626, Control_c, 0, 64, 71
2, 130645, Control_c, 0, 64, 66
2, 130665, Control_c, 0, 64, 61
2, 130683, Control_c, 0, 64, 54
2, 130703, Control_c, 0, 64, 48
2, 130722, Control_c, 0, 64, 47
2, 130741, Control_c, 0, 64, 47
2, 130760, Control_c, 0, 64, 49
2, 130780, Control_c, 0, 64, 51
2, 130799, Control_c, 0, 64, 54
2, 130818, Control_c, 0, 64, 57
2, 130837, Control_c, 0, 64, 59
2, 130857, Control_c, 0, 64, 61
2, 130875, Control_c, 0, 64, 62
2, 130894, Control_c, 0, 64, 64
2, 130914, Control_c, 0, 64, 65
2, 130933, Control_c, 0, 64, 68
2, 130952, Control_c, 0, 64, 73
2, 130971, Control_c, 0, 64, 81
2, 130991, Control_c, 0, 64, 90
2, 131010, Control_c, 0, 64, 98
2, 131029, Control_c, 0, 64, 105
2, 131048, Control_c, 0, 64, 121
2, 131068, Control_c, 0, 64, 127
2, 131151, Note_on_c, 0, 59, 0
2, 131528, Control_c, 0, 64, 109
2, 131548, Control_c, 0, 64, 100
2, 131556, Note_on_c, 0, 64, 62
2, 131566, Control_c, 0, 64, 91
2, 131586, Control_c, 0, 64, 80
2, 131605, Control_c, 0, 64, 71
2, 131625, Control_c, 0, 64, 64
2, 131643, Control_c, 0, 64, 54
2, 131663, Control_c, 0, 64, 35
2, 131682, Control_c, 0, 64, 13
2, 131701, Control_c, 0, 64, 11
2, 131778, Control_c, 0, 64, 17
2, 131797, Control_c, 0, 64, 27
2, 131816, Control_c, 0, 64, 37
2, 131835, Control_c, 0, 64, 46
2, 131854, Control_c, 0, 64, 52
2, 131874, Control_c, 0, 64, 58
2, 131893, Control_c, 0, 64, 60
2, 131912, Control_c, 0, 64, 62
2, 131931, Control_c, 0, 64, 64
2, 131951, Control_c, 0, 64, 65
2, 131970, Control_c, 0, 64, 68
2, 131989, Control_c, 0, 64, 73
2, 132008, Control_c, 0, 64, 81
2, 132028, Control_c, 0, 64, 90
2, 132046, Control_c, 0, 64, 94
2, 132066, Control_c, 0, 64, 96
2, 132085, Control_c, 0, 64, 96
2, 132105, Control_c, 0, 64, 97
2, 132123, Control_c, 0, 64, 100
2, 132143, Control_c, 0, 64, 106
2, 132162, Control_c, 0, 64, 110
2, 132181, Control_c, 0, 64, 110
2, 132200, Control_c, 0, 64, 111
2, 132247, Note_on_c, 0, 64, 0
2, 132431, Control_c, 0, 64, 110
2, 132450, Control_c, 0, 64, 110
2, 132469, Control_c, 0, 64, 108
2, 132488, Control_c, 0, 64, 105
2, 132508, Control_c, 0, 64, 101
2, 132526, Control_c, 0, 64, 97
2, 132546, Control_c, 0, 64, 93
2, 132549, Note_on_c, 0, 65, 63
2, 132565, Control_c, 0, 64, 89
2, 132585, Control_c, 0, 64, 85
2, 132603, Control_c, 0, 64, 78
2, 132623, Control_c, 0, 64, 71
2, 132642, Control_c, 0, 64, 64
2, 132661, Control_c, 0, 64, 56
2, 132680, Control_c, 0, 64, 42
2, 132700, Control_c, 0, 64, 29
2, 132719, Control_c, 0, 64, 27
2, 132776, Control_c, 0, 64, 30
2, 132795, Control_c, 0, 64, 36
2, 132814, Control_c, 0, 64, 44
2, 132834, Control_c, 0, 64, 52
2, 132853, Control_c, 0, 64, 56
2, 132872, Control_c, 0, 64, 58
2, 132891, Control_c, 0, 64, 60
2, 132911, Control_c, 0, 64, 62
2, 132930, Control_c, 0, 64, 63
2, 132949, Control_c, 0, 64, 64
2, 132968, Control_c, 0, 64, 65
2, 132988, Control_c, 0, 64, 67
2, 133006, Control_c, 0, 64, 70
2, 133026, Control_c, 0, 64, 75
2, 133045, Control_c, 0, 64, 83
2, 133065, Control_c, 0, 64, 90
2, 133083, Control_c, 0, 64, 94
2, 133122, Control_c, 0, 64, 95
2, 133141, Control_c, 0, 64, 95
2, 133160, Control_c, 0, 64, 97
2, 133180, Control_c, 0, 64, 100
2, 133199, Control_c, 0, 64, 100
2, 133307, Note_on_c, 0, 65, 0
2, 133333, Control_c, 0, 64, 100
2, 133391, Control_c, 0, 64, 99
2, 133410, Control_c, 0, 64, 98
2, 133430, Control_c, 0, 64, 96
2, 133449, Control_c, 0, 64, 93
2, 133469, Control_c, 0, 64, 90
2, 133487, Control_c, 0, 64, 87
2, 133507, Control_c, 0, 64, 84
2, 133515, Note_on_c, 0, 58, 52
2, 133526, Control_c, 0, 64, 82
2, 133546, Control_c, 0, 64, 80
2, 133564, Control_c, 0, 64, 78
2, 133584, Control_c, 0, 64, 75
2, 133603, Control_c, 0, 64, 71
2, 133622, Control_c, 0, 64, 68
2, 133641, Control_c, 0, 64, 65
2, 133661, Control_c, 0, 64, 61
2, 133680, Control_c, 0, 64, 57
2, 133699, Control_c, 0, 64, 55
2, 133718, Control_c, 0, 64, 53
2, 133738, Control_c, 0, 64, 53
2, 133756, Control_c, 0, 64, 52
2, 133775, Control_c, 0, 64, 52
2, 133814, Control_c, 0, 64, 52
2, 133833, Control_c, 0, 64, 54
2, 133852, Control_c, 0, 64, 55
2, 133872, Control_c, 0, 64, 57
2, 133890, Control_c, 0, 64, 58
2, 133910, Control_c, 0, 64, 60
2, 133929, Control_c, 0, 64, 62
2, 133949, Control_c, 0, 64, 63
2, 133967, Control_c, 0, 64, 64
2, 133987, Control_c, 0, 64, 65
2, 134006, Control_c, 0, 64, 67
2, 134026, Control_c, 0, 64, 69
2, 134044, Control_c, 0, 64, 73
2, 134064, Control_c, 0, 64, 80
2, 134083, Control_c, 0, 64, 90
2, 134102, Control_c, 0, 64, 95
2, 134121, Control_c, 0, 64, 96
2, 134160, Control_c, 0, 64, 97
2, 134179, Control_c, 0, 64, 97
2, 134198, Control_c, 0, 64, 98
2, 134205, Note_on_c, 0, 58, 0
2, 134218, Control_c, 0, 64, 99
2, 134389, Control_c, 0, 64, 98
2, 134408, Control_c, 0, 64, 98
2, 134428, Control_c, 0, 64, 96
2, 134446, Control_c, 0, 64, 95
2, 134466, Control_c, 0, 64, 91
2, 134473, Note_on_c, 0, 57, 57
2, 134485, Control_c, 0, 64, 87
2, 134505, Control_c, 0, 64, 81
2, 134523, Control_c, 0, 64, 74
2, 134543, Control_c, 0, 64, 67
2, 134562, Control_c, 0, 64, 61
2, 134581, Control_c, 0, 64, 50
2, 134600, Control_c, 0, 64, 36
2, 134620, Control_c, 0, 64, 31
2, 134658, Control_c, 0, 64, 32
2, 134677, Control_c, 0, 64, 35
2, 134696, Control_c, 0, 64, 40
2, 134715, Control_c, 0, 64, 47
2, 134734, Control_c, 0, 64, 53
2, 134754, Control_c, 0, 64, 57
2, 134773, Control_c, 0, 64, 59
2, 134792, Control_c, 0, 64, 61
2, 134811, Control_c, 0, 64, 62
2, 134831, Control_c, 0, 64, 64
2, 134850, Control_c, 0, 64, 65
2, 134869, Control_c, 0, 64, 66
2, 134888, Control_c, 0, 64, 68
2, 134908, Control_c, 0, 64, 71
2, 134926, Control_c, 0, 64, 76
2, 134946, Control_c, 0, 64, 83
2, 134965, Control_c, 0, 64, 89
2, 134985, Control_c, 0, 64, 92
2, 135042, Control_c, 0, 64, 92
2, 135108, Note_on_c, 0, 57, 0
2, 135157, Control_c, 0, 64, 92
2, 135176, Control_c, 0, 64, 91
2, 135195, Control_c, 0, 64, 91
2, 135234, Control_c, 0, 64, 90
2, 135253, Control_c, 0, 64, 90
2, 135291, Control_c, 0, 64, 89
2, 135311, Control_c, 0, 64, 89
2, 135330, Control_c, 0, 64, 88
2, 135349, Control_c, 0, 64, 88
2, 135368, Control_c, 0, 64, 86
2, 135388, Control_c, 0, 64, 83
2, 135406, Control_c, 0, 64, 77
2, 135421, Note_on_c, 0, 56, 62
2, 135426, Control_c, 0, 64, 70
2, 135445, Control_c, 0, 64, 65
2, 135465, Control_c, 0, 64, 64
2, 135483, Control_c, 0, 64, 64
2, 135503, Control_c, 0, 64, 65
2, 135522, Control_c, 0, 64, 65
2, 135541, Control_c, 0, 64, 66
2, 135560, Control_c, 0, 64, 67
2, 135580, Control_c, 0, 64, 69
2, 135599, Control_c, 0, 64, 71
2, 135618, Control_c, 0, 64, 73
2, 135637, Control_c, 0, 64, 74
2, 135656, Control_c, 0, 64, 75
2, 135694, Control_c, 0, 64, 76
2, 135714, Control_c, 0, 64, 78
2, 135733, Control_c, 0, 64, 81
2, 135752, Control_c, 0, 64, 84
2, 135771, Control_c, 0, 64, 87
2, 135791, Control_c, 0, 64, 90
2, 135810, Control_c, 0, 64, 91
2, 135829, Control_c, 0, 64, 93
2, 135848, Control_c, 0, 64, 94
2, 135868, Control_c, 0, 64, 94
2, 135886, Control_c, 0, 64, 95
2, 135906, Control_c, 0, 64, 95
2, 135945, Control_c, 0, 64, 96
2, 136060, Control_c, 0, 64, 96
2, 136194, Control_c, 0, 64, 97
2, 136351, Note_on_c, 0, 56, 0
2, 136366, Control_c, 0, 64, 96
2, 136386, Control_c, 0, 64, 96
2, 136405, Control_c, 0, 64, 95
2, 136425, Control_c, 0, 64, 93
2, 136443, Control_c, 0, 64, 90
2, 136463, Control_c, 0, 64, 87
2, 136469, Note_on_c, 0, 55, 53
2, 136482, Control_c, 0, 64, 83
2, 136501, Control_c, 0, 64, 78
2, 136520, Control_c, 0, 64, 73
2, 136540, Control_c, 0, 64, 68
2, 136559, Control_c, 0, 64, 65
2, 136578, Control_c, 0, 64, 62
2, 136597, Control_c, 0, 64, 60
2, 136616, Control_c, 0, 64, 58
2, 136635, Control_c, 0, 64, 56
2, 136654, Control_c, 0, 64, 54
2, 136674, Control_c, 0, 64, 51
2, 136693, Control_c, 0, 64, 47
2, 136712, Control_c, 0, 64, 43
2, 136731, Control_c, 0, 64, 38
2, 136751, Control_c, 0, 64, 34
2, 136770, Control_c, 0, 64, 32
2, 136789, Control_c, 0, 64, 31
2, 136808, Control_c, 0, 64, 29
2, 136828, Control_c, 0, 64, 27
2, 136846, Control_c, 0, 64, 27
2, 136866, Control_c, 0, 64, 26
2, 136885, Control_c, 0, 64, 25
2, 137231, Control_c, 0, 64, 27
2, 137250, Control_c, 0, 64, 29
2, 137270, Control_c, 0, 64, 32
2, 137289, Control_c, 0, 64, 36
2, 137309, Control_c, 0, 64, 41
2, 137327, Control_c, 0, 64, 45
2, 137347, Control_c, 0, 64, 48
2, 137366, Control_c, 0, 64, 51
2, 137386, Control_c, 0, 64, 53
2, 137404, Control_c, 0, 64, 56
2, 137424, Control_c, 0, 64, 58
2, 137443, Control_c, 0, 64, 60
2, 137462, Control_c, 0, 64, 61
2, 137481, Control_c, 0, 64, 62
2, 137501, Control_c, 0, 64, 62
2, 137520, Control_c, 0, 64, 63
2, 137539, Control_c, 0, 64, 64
2, 137558, Control_c, 0, 64, 65
2, 137577, Control_c, 0, 64, 67
2, 137596, Control_c, 0, 64, 69
2, 137615, Control_c, 0, 64, 72
2, 137635, Control_c, 0, 64, 76
2, 137654, Control_c, 0, 64, 83
2, 137673, Control_c, 0, 64, 88
2, 137692, Control_c, 0, 64, 92
2, 137712, Control_c, 0, 64, 93
2, 137833, Note_on_c, 0, 55, 0
2, 138000, Control_c, 0, 64, 92
2, 138019, Control_c, 0, 64, 92
2, 138038, Control_c, 0, 64, 91
2, 138057, Control_c, 0, 64, 91
2, 138076, Control_c, 0, 64, 89
2, 138095, Control_c, 0, 64, 88
2, 138115, Control_c, 0, 64, 85
2, 138134, Control_c, 0, 64, 82
2, 138153, Control_c, 0, 64, 79
2, 138172, Control_c, 0, 64, 75
2, 138192, Control_c, 0, 64, 71
2, 138209, Control_c, 0, 64, 68
2, 138230, Control_c, 0, 64, 65
2, 138249, Control_c, 0, 64, 63
2, 138269, Control_c, 0, 64, 61
2, 138281, Note_on_c, 0, 53, 37
2, 138287, Control_c, 0, 64, 60
2, 138307, Control_c, 0, 64, 60
2, 138364, Control_c, 0, 64, 60
2, 138562, Note_on_c, 0, 53, 0
2, 138652, Control_c, 0, 64, 60
2, 138757, Note_on_c, 0, 53, 43
2, 138964, Note_on_c, 0, 55, 49
2, 139004, Note_on_c, 0, 53, 0
2, 139152, Control_c, 0, 64, 60
2, 139198, Note_on_c, 0, 55, 0
2, 139212, Note_on_c, 0, 56, 45
2, 139221, Note_on_c, 0, 65, 49
2, 139490, Note_on_c, 0, 56, 0
2, 139653, Note_on_c, 0, 56, 61
2, 139760, Note_on_c, 0, 65, 0
2, 139852, Note_on_c, 0, 58, 59
2, 139881, Control_c, 0, 64, 60
2, 139882, Note_on_c, 0, 56, 0
2, 139977, Control_c, 0, 64, 59
2, 140044, Note_on_c, 0, 58, 0
2, 140073, Control_c, 0, 64, 59
2, 140081, Note_on_c, 0, 68, 68
2, 140096, Note_on_c, 0, 60, 44
2, 140166, Note_on_c, 0, 60, 0
2, 140278, Note_on_c, 0, 47, 58
2, 140456, Control_c, 0, 64, 58
2, 140483, Note_on_c, 0, 48, 66
2, 140514, Control_c, 0, 64, 58
2, 140531, Note_on_c, 0, 47, 0
2, 140564, Note_on_c, 0, 68, 0
2, 140571, Control_c, 0, 64, 57
2, 140629, Control_c, 0, 64, 57
2, 140699, Note_on_c, 0, 50, 67
2, 140706, Control_c, 0, 64, 56
2, 140733, Note_on_c, 0, 48, 0
2, 140952, Note_on_c, 0, 67, 58
2, 140975, Note_on_c, 0, 51, 48
2, 140989, Note_on_c, 0, 50, 0
2, 141071, Control_c, 0, 64, 56
2, 141265, Control_c, 0, 64, 56
2, 141285, Control_c, 0, 64, 57
2, 141303, Control_c, 0, 64, 57
2, 141323, Control_c, 0, 64, 58
2, 141365, Control_c, 0, 64, 59
2, 141383, Control_c, 0, 64, 60
2, 141403, Control_c, 0, 64, 61
2, 141422, Control_c, 0, 64, 62
2, 141442, Control_c, 0, 64, 63
2, 141460, Control_c, 0, 64, 64
2, 141479, Control_c, 0, 64, 65
2, 141499, Control_c, 0, 64, 68
2, 141517, Control_c, 0, 64, 73
2, 141536, Note_on_c, 0, 67, 0
2, 141537, Control_c, 0, 64, 80
2, 141556, Control_c, 0, 64, 89
2, 141576, Control_c, 0, 64, 98
2, 141594, Control_c, 0, 64, 105
2, 141614, Control_c, 0, 64, 110
2, 141633, Control_c, 0, 64, 110
2, 141671, Control_c, 0, 64, 110
2, 141691, Control_c, 0, 64, 108
2, 141710, Control_c, 0, 64, 105
2, 141729, Control_c, 0, 64, 102
2, 141748, Control_c, 0, 64, 96
2, 141768, Control_c, 0, 64, 91
2, 141786, Control_c, 0, 64, 85
2, 141806, Control_c, 0, 64, 81
2, 141825, Control_c, 0, 64, 78
2, 141845, Control_c, 0, 64, 75
2, 141846, Note_on_c, 0, 66, 61
2, 141850, Note_on_c, 0, 51, 0
2, 141863, Control_c, 0, 64, 73
2, 141883, Control_c, 0, 64, 72
2, 141902, Control_c, 0, 64, 70
2, 141922, Control_c, 0, 64, 67
2, 141940, Control_c, 0, 64, 65
2, 141959, Control_c, 0, 64, 63
2, 141979, Control_c, 0, 64, 61
2, 141997, Control_c, 0, 64, 60
2, 142017, Control_c, 0, 64, 58
2, 142036, Control_c, 0, 64, 57
2, 142053, Control_c, 0, 64, 56
2, 142056, Note_on_c, 0, 48, 52
2, 142073, Control_c, 0, 64, 55
2, 142093, Control_c, 0, 64, 54
2, 142112, Control_c, 0, 64, 53
2, 142131, Control_c, 0, 64, 52
2, 142150, Control_c, 0, 64, 52
2, 142170, Control_c, 0, 64, 51
2, 142189, Control_c, 0, 64, 51
2, 142227, Control_c, 0, 64, 50
2, 142269, Note_on_c, 0, 50, 67
2, 142295, Note_on_c, 0, 48, 0
2, 142376, Note_on_c, 0, 66, 0
2, 142462, Note_on_c, 0, 51, 67
2, 142511, Note_on_c, 0, 50, 0
2, 142729, Note_on_c, 0, 71, 73
2, 142736, Note_on_c, 0, 51, 0
2, 142738, Note_on_c, 0, 53, 50
2, 142746, Control_c, 0, 64, 50
2, 142765, Control_c, 0, 64, 49
2, 142784, Control_c, 0, 64, 48
2, 142804, Control_c, 0, 64, 45
2, 142822, Control_c, 0, 64, 41
2, 142842, Control_c, 0, 64, 35
2, 142861, Control_c, 0, 64, 27
2, 142880, Control_c, 0, 64, 20
2, 142899, Control_c, 0, 64, 17
2, 142918, Control_c, 0, 64, 15
2, 143014, Control_c, 0, 64, 18
2, 143032, Control_c, 0, 64, 23
2, 143052, Control_c, 0, 64, 29
2, 143071, Control_c, 0, 64, 35
2, 143091, Control_c, 0, 64, 42
2, 143109, Control_c, 0, 64, 49
2, 143129, Control_c, 0, 64, 56
2, 143148, Control_c, 0, 64, 61
2, 143167, Control_c, 0, 64, 63
2, 143186, Control_c, 0, 64, 65
2, 143206, Control_c, 0, 64, 68
2, 143225, Control_c, 0, 64, 73
2, 143244, Control_c, 0, 64, 80
2, 143263, Control_c, 0, 64, 91
2, 143275, Note_on_c, 0, 71, 0
2, 143283, Control_c, 0, 64, 105
2, 143301, Control_c, 0, 64, 115
2, 143320, Control_c, 0, 64, 127
2, 143532, Control_c, 0, 64, 119
2, 143551, Control_c, 0, 64, 110
2, 143571, Control_c, 0, 64, 102
2, 143589, Control_c, 0, 64, 96
2, 143609, Control_c, 0, 64, 90
2, 143619, Note_on_c, 0, 53, 0
2, 143624, Note_on_c, 0, 72, 75
2, 143628, Control_c, 0, 64, 84
2, 143647, Control_c, 0, 64, 79
2, 143666, Control_c, 0, 64, 75
2, 143686, Control_c, 0, 64, 72
2, 143705, Control_c, 0, 64, 69
2, 143724, Control_c, 0, 64, 66
2, 143743, Control_c, 0, 64, 64
2, 143763, Control_c, 0, 64, 63
2, 143781, Control_c, 0, 64, 61
2, 143800, Control_c, 0, 64, 60
2, 143820, Control_c, 0, 64, 59
2, 143825, Note_on_c, 0, 51, 56
2, 143839, Control_c, 0, 64, 58
2, 143858, Control_c, 0, 64, 57
2, 143877, Control_c, 0, 64, 55
2, 143897, Control_c, 0, 64, 52
2, 143916, Control_c, 0, 64, 50
2, 143935, Control_c, 0, 64, 48
2, 143954, Control_c, 0, 64, 45
2, 143972, Control_c, 0, 64, 42
2, 143992, Control_c, 0, 64, 40
2, 144012, Control_c, 0, 64, 39
2, 144031, Control_c, 0, 64, 37
2, 144047, Note_on_c, 0, 53, 64
2, 144051, Control_c, 0, 64, 36
2, 144069, Control_c, 0, 64, 36
2, 144089, Control_c, 0, 64, 35
2, 144096, Note_on_c, 0, 72, 0
2, 144101, Note_on_c, 0, 51, 0
2, 144237, Note_on_c, 0, 53, 0
2, 144249, Note_on_c, 0, 55, 64
2, 144511, Control_c, 0, 64, 35
2, 144524, Note_on_c, 0, 65, 61
2, 144531, Control_c, 0, 64, 31
2, 144533, Note_on_c, 0, 56, 48
2, 144549, Control_c, 0, 64, 9
2, 144569, Control_c, 0, 64, 0
2, 144573, Note_on_c, 0, 55, 0
2, 144914, Control_c, 0, 64, 28
2, 144934, Control_c, 0, 64, 54
2, 144953, Control_c, 0, 64, 61
2, 144973, Control_c, 0, 64, 63
2, 144992, Control_c, 0, 64, 65
2, 145011, Control_c, 0, 64, 67
2, 145030, Control_c, 0, 64, 72
2, 145046, Note_on_c, 0, 65, 0
2, 145050, Control_c, 0, 64, 81
2, 145069, Control_c, 0, 64, 90
2, 145088, Control_c, 0, 64, 97
2, 145107, Control_c, 0, 64, 101
2, 145127, Control_c, 0, 64, 110
2, 145146, Control_c, 0, 64, 127
2, 145356, Control_c, 0, 64, 108
2, 145375, Control_c, 0, 64, 101
2, 145393, Control_c, 0, 64, 94
2, 145399, Note_on_c, 0, 56, 0
2, 145402, Note_on_c, 0, 64, 67
2, 145412, Control_c, 0, 64, 88
2, 145431, Control_c, 0, 64, 82
2, 145450, Control_c, 0, 64, 76
2, 145469, Control_c, 0, 64, 70
2, 145488, Control_c, 0, 64, 65
2, 145507, Control_c, 0, 64, 61
2, 145527, Control_c, 0, 64, 58
2, 145546, Control_c, 0, 64, 56
2, 145565, Control_c, 0, 64, 56
2, 145584, Control_c, 0, 64, 55
2, 145604, Control_c, 0, 64, 55
2, 145614, Note_on_c, 0, 55, 58
2, 145623, Control_c, 0, 64, 54
2, 145642, Control_c, 0, 64, 53
2, 145661, Control_c, 0, 64, 53
2, 145681, Control_c, 0, 64, 52
2, 145699, Control_c, 0, 64, 52
2, 145719, Control_c, 0, 64, 51
2, 145738, Control_c, 0, 64, 51
2, 145758, Control_c, 0, 64, 50
2, 145776, Control_c, 0, 64, 49
2, 145796, Control_c, 0, 64, 48
2, 145815, Control_c, 0, 64, 47
2, 145820, Note_on_c, 0, 57, 70
2, 145834, Control_c, 0, 64, 47
2, 145853, Control_c, 0, 64, 46
2, 145873, Control_c, 0, 64, 45
2, 145890, Note_on_c, 0, 55, 0
2, 145892, Control_c, 0, 64, 44
2, 145898, Note_on_c, 0, 64, 0
2, 145910, Control_c, 0, 64, 44
2, 146028, Note_on_c, 0, 59, 72
2, 146064, Control_c, 0, 64, 44
2, 146078, Note_on_c, 0, 57, 0
2, 146161, Control_c, 0, 64, 45
2, 146238, Control_c, 0, 64, 45
2, 146309, Note_on_c, 0, 63, 62
2, 146331, Note_on_c, 0, 60, 52
2, 146333, Control_c, 0, 64, 45
2, 146353, Control_c, 0, 64, 44
2, 146372, Control_c, 0, 64, 40
2, 146385, Note_on_c, 0, 59, 0
2, 146390, Control_c, 0, 64, 27
2, 146410, Control_c, 0, 64, 0
2, 146659, Control_c, 0, 64, 20
2, 146679, Control_c, 0, 64, 44
2, 146698, Control_c, 0, 64, 58
2, 146718, Control_c, 0, 64, 63
2, 146736, Control_c, 0, 64, 66
2, 146756, Control_c, 0, 64, 68
2, 146775, Control_c, 0, 64, 74
2, 146794, Control_c, 0, 64, 85
2, 146813, Control_c, 0, 64, 102
2, 146833, Control_c, 0, 64, 127
2, 146879, Note_on_c, 0, 63, 0
2, 147256, Control_c, 0, 64, 109
2, 147275, Control_c, 0, 64, 99
2, 147288, Note_on_c, 0, 62, 63
2, 147294, Control_c, 0, 64, 91
2, 147314, Control_c, 0, 64, 84
2, 147333, Control_c, 0, 64, 79
2, 147352, Control_c, 0, 64, 74
2, 147371, Control_c, 0, 64, 70
2, 147390, Control_c, 0, 64, 67
2, 147409, Control_c, 0, 64, 64
2, 147428, Control_c, 0, 64, 61
2, 147448, Control_c, 0, 64, 58
2, 147466, Note_on_c, 0, 60, 0
2, 147467, Control_c, 0, 64, 56
2, 147486, Control_c, 0, 64, 55
2, 147505, Control_c, 0, 64, 53
2, 147525, Control_c, 0, 64, 51
2, 147543, Control_c, 0, 64, 49
2, 147563, Control_c, 0, 64, 46
2, 147582, Control_c, 0, 64, 44
2, 147602, Control_c, 0, 64, 42
2, 147620, Control_c, 0, 64, 38
2, 147640, Control_c, 0, 64, 35
2, 147659, Control_c, 0, 64, 31
2, 147679, Control_c, 0, 64, 28
2, 147697, Control_c, 0, 64, 25
2, 147699, Note_on_c, 0, 59, 49
2, 147717, Control_c, 0, 64, 23
2, 147736, Control_c, 0, 64, 21
2, 147755, Control_c, 0, 64, 20
2, 147774, Control_c, 0, 64, 19
2, 147915, Note_on_c, 0, 59, 0
2, 147926, Note_on_c, 0, 57, 52
2, 148023, Control_c, 0, 64, 20
2, 148042, Control_c, 0, 64, 21
2, 148081, Control_c, 0, 64, 22
2, 148119, Control_c, 0, 64, 23
2, 148132, Note_on_c, 0, 57, 0
2, 148147, Note_on_c, 0, 60, 51
2, 148158, Control_c, 0, 64, 24
2, 148254, Note_on_c, 0, 60, 0
2, 148263, Note_on_c, 0, 59, 62
2, 148338, Note_on_c, 0, 59, 0
2, 148349, Control_c, 0, 64, 25
2, 148363, Note_on_c, 0, 60, 56
2, 148444, Note_on_c, 0, 60, 0
2, 148446, Note_on_c, 0, 59, 68
2, 148515, Note_on_c, 0, 59, 0
2, 148535, Note_on_c, 0, 60, 56
2, 148587, Note_on_c, 0, 62, 0
2, 148592, Note_on_c, 0, 59, 54
2, 148596, Note_on_c, 0, 60, 0
2, 148650, Note_on_c, 0, 59, 0
2, 148686, Note_on_c, 0, 60, 63
2, 148792, Note_on_c, 0, 60, 0
2, 148806, Note_on_c, 0, 59, 54
2, 149041, Control_c, 0, 64, 26
2, 149059, Control_c, 0, 64, 35
2, 149060, Note_on_c, 0, 60, 55
2, 149073, Note_on_c, 0, 59, 0
2, 149079, Control_c, 0, 64, 47
2, 149098, Control_c, 0, 64, 55
2, 149118, Control_c, 0, 64, 60
2, 149136, Control_c, 0, 64, 62
2, 149156, Control_c, 0, 64, 64
2, 149175, Control_c, 0, 64, 68
2, 149194, Control_c, 0, 64, 74
2, 149213, Control_c, 0, 64, 85
2, 149233, Control_c, 0, 64, 95
2, 149252, Control_c, 0, 64, 102
2, 149270, Control_c, 0, 64, 105
2, 149289, Note_on_c, 0, 60, 0
2, 149290, Control_c, 0, 64, 105
2, 149367, Control_c, 0, 64, 105
2, 149386, Control_c, 0, 64, 104
2, 149405, Control_c, 0, 64, 102
2, 149424, Control_c, 0, 64, 99
2, 149444, Control_c, 0, 64, 94
2, 149463, Control_c, 0, 64, 89
2, 149482, Control_c, 0, 64, 81
2, 149501, Control_c, 0, 64, 73
2, 149510, Note_on_c, 0, 60, 52
2, 149519, Note_on_c, 0, 55, 44
2, 149521, Control_c, 0, 64, 67
2, 149539, Control_c, 0, 64, 61
2, 149559, Control_c, 0, 64, 53
2, 149578, Control_c, 0, 64, 45
2, 149598, Control_c, 0, 64, 42
2, 149616, Control_c, 0, 64, 43
2, 149636, Control_c, 0, 64, 46
2, 149655, Control_c, 0, 64, 51
2, 149674, Control_c, 0, 64, 56
2, 149693, Control_c, 0, 64, 60
2, 149713, Control_c, 0, 64, 62
2, 149714, Note_on_c, 0, 62, 64
2, 149732, Control_c, 0, 64, 64
2, 149739, Note_on_c, 0, 60, 0
2, 149752, Control_c, 0, 64, 66
2, 149771, Control_c, 0, 64, 69
2, 149790, Control_c, 0, 64, 75
2, 149809, Control_c, 0, 64, 85
2, 149828, Control_c, 0, 64, 93
2, 149848, Control_c, 0, 64, 95
2, 149886, Control_c, 0, 64, 95
2, 149905, Control_c, 0, 64, 91
2, 149925, Control_c, 0, 64, 83
2, 149943, Control_c, 0, 64, 73
2, 149950, Note_on_c, 0, 64, 62
2, 149963, Control_c, 0, 64, 64
2, 149965, Note_on_c, 0, 48, 69
2, 149965, Note_on_c, 0, 60, 64
2, 149982, Control_c, 0, 64, 53
2, 149983, Note_on_c, 0, 62, 0
2, 149984, Note_on_c, 0, 55, 0
2, 150002, Control_c, 0, 64, 19
2, 150020, Control_c, 0, 64, 0
2, 150079, Control_c, 0, 64, 19
2, 150097, Control_c, 0, 64, 43
2, 150117, Control_c, 0, 64, 57
2, 150136, Control_c, 0, 64, 62
2, 150155, Control_c, 0, 64, 64
2, 150174, Control_c, 0, 64, 65
2, 150194, Control_c, 0, 64, 67
2, 150213, Control_c, 0, 64, 71
2, 150223, Note_on_c, 0, 64, 0
2, 150232, Control_c, 0, 64, 77
2, 150251, Control_c, 0, 64, 83
2, 150270, Control_c, 0, 64, 86
2, 150308, Control_c, 0, 64, 85
2, 150328, Control_c, 0, 64, 83
2, 150347, Control_c, 0, 64, 81
2, 150366, Control_c, 0, 64, 74
2, 150385, Control_c, 0, 64, 66
2, 150394, Note_on_c, 0, 62, 54
2, 150405, Control_c, 0, 64, 59
2, 150408, Note_on_c, 0, 58, 52
2, 150423, Control_c, 0, 64, 42
2, 150443, Control_c, 0, 64, 22
2, 150462, Control_c, 0, 64, 34
2, 150482, Control_c, 0, 64, 49
2, 150500, Control_c, 0, 64, 58
2, 150520, Control_c, 0, 64, 63
2, 150521, Note_on_c, 0, 60, 0
2, 150539, Control_c, 0, 64, 65
2, 150559, Control_c, 0, 64, 68
2, 150562, Note_on_c, 0, 48, 0
2, 150577, Control_c, 0, 64, 74
2, 150595, Note_on_c, 0, 58, 0
2, 150597, Control_c, 0, 64, 84
2, 150606, Note_on_c, 0, 64, 66
2, 150616, Control_c, 0, 64, 98
2, 150633, Note_on_c, 0, 62, 0
2, 150635, Control_c, 0, 64, 114
2, 150654, Control_c, 0, 64, 127
2, 150787, Control_c, 0, 64, 99
2, 150807, Control_c, 0, 64, 80
2, 150823, Note_on_c, 0, 49, 80
2, 150826, Control_c, 0, 64, 66
2, 150839, Note_on_c, 0, 65, 66
2, 150840, Note_on_c, 0, 56, 56
2, 150845, Control_c, 0, 64, 48
2, 150860, Note_on_c, 0, 64, 0
2, 150864, Control_c, 0, 64, 0
2, 150961, Control_c, 0, 64, 39
2, 150979, Control_c, 0, 64, 55
2, 150999, Control_c, 0, 64, 62
2, 151018, Control_c, 0, 64, 63
2, 151029, Note_on_c, 0, 56, 0
2, 151038, Control_c, 0, 64, 64
2, 151042, Note_on_c, 0, 52, 65
2, 151056, Control_c, 0, 64, 65
2, 151076, Control_c, 0, 64, 66
2, 151095, Control_c, 0, 64, 68
2, 151114, Control_c, 0, 64, 71
2, 151123, Note_on_c, 0, 65, 0
2, 151133, Control_c, 0, 64, 74
2, 151153, Control_c, 0, 64, 75
2, 151172, Control_c, 0, 64, 74
2, 151190, Control_c, 0, 64, 73
2, 151210, Control_c, 0, 64, 71
2, 151228, Note_on_c, 0, 52, 0
2, 151229, Control_c, 0, 64, 68
2, 151248, Control_c, 0, 64, 62
2, 151257, Note_on_c, 0, 53, 64
2, 151258, Note_on_c, 0, 65, 75
2, 151267, Control_c, 0, 64, 46
2, 151287, Control_c, 0, 64, 0
2, 151402, Control_c, 0, 64, 46
2, 151421, Control_c, 0, 64, 60
2, 151427, Note_on_c, 0, 53, 0
2, 151441, Control_c, 0, 64, 64
2, 151458, Note_on_c, 0, 55, 69
2, 151459, Control_c, 0, 64, 66
2, 151479, Control_c, 0, 64, 67
2, 151498, Control_c, 0, 64, 71
2, 151518, Control_c, 0, 64, 78
2, 151536, Control_c, 0, 64, 89
2, 151556, Control_c, 0, 64, 96
2, 151575, Control_c, 0, 64, 96
2, 151578, Note_on_c, 0, 49, 0
2, 151613, Control_c, 0, 64, 96
2, 151633, Control_c, 0, 64, 93
2, 151652, Control_c, 0, 64, 86
2, 151671, Control_c, 0, 64, 77
2, 151691, Control_c, 0, 64, 66
2, 151703, Note_on_c, 0, 56, 78
2, 151704, Note_on_c, 0, 48, 70
2, 151710, Control_c, 0, 64, 59
2, 151723, Note_on_c, 0, 55, 0
2, 151729, Control_c, 0, 64, 47
2, 151748, Control_c, 0, 64, 31
2, 151768, Control_c, 0, 64, 26
2, 151806, Control_c, 0, 64, 25
2, 151818, Note_on_c, 0, 65, 0
2, 151845, Control_c, 0, 64, 24
2, 151863, Control_c, 0, 64, 23
2, 151883, Control_c, 0, 64, 21
2, 151902, Control_c, 0, 64, 18
2, 151922, Control_c, 0, 64, 15
2, 151940, Control_c, 0, 64, 9
2, 151960, Control_c, 0, 64, 0
2, 152133, Control_c, 0, 64, 13
2, 152150, Note_on_c, 0, 63, 67
2, 152151, Control_c, 0, 64, 27
2, 152171, Control_c, 0, 64, 40
2, 152190, Control_c, 0, 64, 51
2, 152209, Control_c, 0, 64, 59
2, 152228, Control_c, 0, 64, 63
2, 152248, Control_c, 0, 64, 65
2, 152267, Control_c, 0, 64, 68
2, 152286, Control_c, 0, 64, 76
2, 152305, Control_c, 0, 64, 91
2, 152325, Control_c, 0, 64, 127
2, 152504, Note_on_c, 0, 56, 0
2, 152524, Note_on_c, 0, 48, 0
2, 152555, Control_c, 0, 64, 110
2, 152574, Control_c, 0, 64, 87
2, 152575, Note_on_c, 0, 47, 70
2, 152586, Note_on_c, 0, 62, 66
2, 152594, Control_c, 0, 64, 73
2, 152613, Control_c, 0, 64, 65
2, 152623, Note_on_c, 0, 63, 0
2, 152631, Control_c, 0, 64, 57
2, 152651, Control_c, 0, 64, 44
2, 152670, Control_c, 0, 64, 39
2, 152728, Control_c, 0, 64, 38
2, 152747, Control_c, 0, 64, 37
2, 152766, Control_c, 0, 64, 36
2, 152785, Control_c, 0, 64, 36
2, 152793, Note_on_c, 0, 53, 67
2, 152939, Control_c, 0, 64, 35
2, 152959, Control_c, 0, 64, 33
2, 152977, Control_c, 0, 64, 29
2, 152977, Note_on_c, 0, 53, 0
2, 152995, Note_on_c, 0, 55, 65
2, 152995, Note_on_c, 0, 63, 69
2, 152997, Control_c, 0, 64, 24
2, 153016, Control_c, 0, 64, 21
2, 153035, Control_c, 0, 64, 17
2, 153054, Control_c, 0, 64, 0
2, 153150, Control_c, 0, 64, 19
2, 153169, Control_c, 0, 64, 41
2, 153169, Note_on_c, 0, 62, 0
2, 153188, Control_c, 0, 64, 57
2, 153199, Note_on_c, 0, 47, 0
2, 153201, Note_on_c, 0, 56, 67
2, 153206, Note_on_c, 0, 55, 0
2, 153208, Control_c, 0, 64, 63
2, 153227, Control_c, 0, 64, 66
2, 153238, Note_on_c, 0, 65, 47
2, 153246, Control_c, 0, 64, 70
2, 153265, Control_c, 0, 64, 75
2, 153285, Control_c, 0, 64, 81
2, 153303, Control_c, 0, 64, 87
2, 153323, Control_c, 0, 64, 90
2, 153363, Note_on_c, 0, 63, 0
2, 153380, Note_on_c, 0, 56, 0
2, 153429, Note_on_c, 0, 52, 72
2, 153429, Note_on_c, 0, 65, 0
2, 153430, Note_on_c, 0, 58, 76
2, 153430, Note_on_c, 0, 67, 71
2, 153439, Control_c, 0, 64, 89
2, 153457, Control_c, 0, 64, 87
2, 153477, Control_c, 0, 64, 81
2, 153496, Control_c, 0, 64, 72
2, 153515, Control_c, 0, 64, 64
2, 153534, Control_c, 0, 64, 49
2, 153554, Control_c, 0, 64, 9
2, 153572, Control_c, 0, 64, 0
2, 153621, Note_on_c, 0, 65, 60
2, 153681, Note_on_c, 0, 67, 0
2, 153859, Control_c, 0, 64, 28
2, 153868, Note_on_c, 0, 64, 69
2, 153879, Control_c, 0, 64, 49
2, 153898, Control_c, 0, 64, 59
2, 153918, Control_c, 0, 64, 62
2, 153931, Note_on_c, 0, 65, 0
2, 153936, Control_c, 0, 64, 64
2, 153940, Note_on_c, 0, 58, 0
2, 153956, Control_c, 0, 64, 67
2, 153975, Control_c, 0, 64, 72
2, 153994, Control_c, 0, 64, 84
2, 154013, Control_c, 0, 64, 108
2, 154033, Control_c, 0, 64, 127
2, 154079, Note_on_c, 0, 62, 68
2, 154119, Note_on_c, 0, 64, 0
2, 154263, Control_c, 0, 64, 106
2, 154263, Note_on_c, 0, 62, 0
2, 154282, Control_c, 0, 64, 88
2, 154282, Note_on_c, 0, 53, 69
2, 154299, Note_on_c, 0, 60, 64
2, 154301, Control_c, 0, 64, 74
2, 154320, Note_on_c, 0, 52, 0
2, 154321, Control_c, 0, 64, 65
2, 154339, Control_c, 0, 64, 58
2, 154359, Control_c, 0, 64, 46
2, 154378, Control_c, 0, 64, 39
2, 154398, Control_c, 0, 64, 38
2, 154416, Control_c, 0, 64, 37
2, 154436, Control_c, 0, 64, 36
2, 154455, Control_c, 0, 64, 36
2, 154511, Note_on_c, 0, 56, 67
2, 154570, Control_c, 0, 64, 36
2, 154589, Control_c, 0, 64, 40
2, 154608, Control_c, 0, 64, 46
2, 154613, Note_on_c, 0, 60, 0
2, 154627, Control_c, 0, 64, 52
2, 154647, Control_c, 0, 64, 57
2, 154666, Control_c, 0, 64, 61
2, 154685, Control_c, 0, 64, 63
2, 154704, Control_c, 0, 64, 66
2, 154724, Control_c, 0, 64, 70
2, 154725, Note_on_c, 0, 58, 70
2, 154743, Control_c, 0, 64, 76
2, 154762, Control_c, 0, 64, 90
2, 154781, Control_c, 0, 64, 127
2, 154917, Note_on_c, 0, 60, 76
2, 154980, Note_on_c, 0, 56, 0
2, 155001, Note_on_c, 0, 58, 0
2, 155127, Control_c, 0, 64, 104
2, 155144, Note_on_c, 0, 53, 0
2, 155145, Note_on_c, 0, 46, 66
2, 155145, Note_on_c, 0, 61, 77
2, 155146, Control_c, 0, 64, 86
2, 155165, Control_c, 0, 64, 74
2, 155167, Note_on_c, 0, 60, 0
2, 155184, Control_c, 0, 64, 66
2, 155204, Control_c, 0, 64, 58
2, 155223, Control_c, 0, 64, 44
2, 155242, Control_c, 0, 64, 21
2, 155261, Control_c, 0, 64, 0
2, 155355, Note_on_c, 0, 58, 62
2, 155493, Control_c, 0, 64, 9
2, 155511, Control_c, 0, 64, 36
2, 155531, Control_c, 0, 64, 53
2, 155550, Control_c, 0, 64, 60
2, 155564, Note_on_c, 0, 56, 68
2, 155569, Control_c, 0, 64, 63
2, 155588, Control_c, 0, 64, 65
2, 155608, Control_c, 0, 64, 68
2, 155627, Control_c, 0, 64, 73
2, 155646, Control_c, 0, 64, 83
2, 155665, Control_c, 0, 64, 101
2, 155674, Note_on_c, 0, 46, 0
2, 155685, Control_c, 0, 64, 117
2, 155703, Control_c, 0, 64, 127
2, 155724, Note_on_c, 0, 61, 0
2, 155764, Note_on_c, 0, 55, 65
2, 155806, Note_on_c, 0, 58, 0
2, 155896, Control_c, 0, 64, 114
2, 155915, Control_c, 0, 64, 103
2, 155934, Control_c, 0, 64, 95
2, 155954, Control_c, 0, 64, 85
2, 155956, Note_on_c, 0, 55, 0
2, 155957, Note_on_c, 0, 56, 0
2, 155973, Control_c, 0, 64, 77
2, 155989, Note_on_c, 0, 45, 58
2, 155989, Note_on_c, 0, 53, 66
2, 155991, Control_c, 0, 64, 69
2, 156011, Control_c, 0, 64, 63
2, 156030, Control_c, 0, 64, 55
2, 156049, Control_c, 0, 64, 41
2, 156068, Control_c, 0, 64, 24
2, 156088, Control_c, 0, 64, 0
2, 156188, Note_on_c, 0, 60, 72
2, 156288, Note_on_c, 0, 53, 0
2, 156319, Control_c, 0, 64, 20
2, 156337, Control_c, 0, 64, 35
2, 156357, Control_c, 0, 64, 51
2, 156376, Control_c, 0, 64, 59
2, 156394, Note_on_c, 0, 62, 77
2, 156395, Control_c, 0, 64, 63
2, 156414, Control_c, 0, 64, 64
2, 156434, Control_c, 0, 64, 67
2, 156450, Control_c, 0, 64, 70
2, 156473, Control_c, 0, 64, 78
2, 156493, Control_c, 0, 64, 96
2, 156512, Control_c, 0, 64, 127
2, 156593, Note_on_c, 0, 64, 80
2, 156641, Note_on_c, 0, 60, 0
2, 156761, Control_c, 0, 64, 112
2, 156781, Control_c, 0, 64, 95
2, 156800, Control_c, 0, 64, 82
2, 156805, Note_on_c, 0, 44, 71
2, 156808, Note_on_c, 0, 45, 0
2, 156815, Note_on_c, 0, 65, 81
2, 156818, Note_on_c, 0, 62, 0
2, 156819, Control_c, 0, 64, 71
2, 156838, Control_c, 0, 64, 62
2, 156843, Note_on_c, 0, 64, 0
2, 156858, Control_c, 0, 64, 37
2, 156876, Control_c, 0, 64, 0
2, 157034, Note_on_c, 0, 53, 63
2, 157224, Note_on_c, 0, 55, 68
2, 157241, Control_c, 0, 64, 47
2, 157261, Control_c, 0, 64, 61
2, 157280, Control_c, 0, 64, 65
2, 157299, Control_c, 0, 64, 67
2, 157318, Control_c, 0, 64, 71
2, 157338, Control_c, 0, 64, 76
2, 157356, Control_c, 0, 64, 84
2, 157376, Control_c, 0, 64, 92
2, 157395, Control_c, 0, 64, 101
2, 157414, Control_c, 0, 64, 110
2, 157418, Note_on_c, 0, 56, 75
2, 157431, Control_c, 0, 64, 127
2, 157457, Note_on_c, 0, 55, 0
2, 157642, Control_c, 0, 64, 117
2, 157662, Control_c, 0, 64, 109
2, 157681, Control_c, 0, 64, 101
2, 157701, Control_c, 0, 64, 92
2, 157705, Note_on_c, 0, 58, 71
2, 157708, Note_on_c, 0, 43, 55
2, 157708, Note_on_c, 0, 56, 0
2, 157716, Note_on_c, 0, 44, 0
2, 157719, Control_c, 0, 64, 81
2, 157739, Control_c, 0, 64, 70
2, 157758, Control_c, 0, 64, 61
2, 157760, Note_on_c, 0, 53, 0
2, 157777, Control_c, 0, 64, 47
2, 157796, Control_c, 0, 64, 37
2, 157816, Control_c, 0, 64, 36
2, 157835, Control_c, 0, 64, 34
2, 157854, Control_c, 0, 64, 31
2, 157873, Control_c, 0, 64, 25
2, 157893, Control_c, 0, 64, 20
2, 157911, Control_c, 0, 64, 18
2, 157931, Control_c, 0, 64, 15
2, 157950, Control_c, 0, 64, 11
2, 157970, Control_c, 0, 64, 0
2, 158148, Note_on_c, 0, 64, 64
2, 158150, Note_on_c, 0, 65, 0
2, 158345, Note_on_c, 0, 62, 64
2, 158368, Note_on_c, 0, 64, 0
2, 158604, Note_on_c, 0, 62, 0
2, 158612, Note_on_c, 0, 64, 62
2, 158907, Control_c, 0, 64, 29
2, 158927, Control_c, 0, 64, 43
2, 158945, Control_c, 0, 64, 52
2, 158965, Control_c, 0, 64, 57
2, 158984, Control_c, 0, 64, 60
2, 159004, Control_c, 0, 64, 63
2, 159022, Control_c, 0, 64, 65
2, 159031, Note_on_c, 0, 58, 0
2, 159042, Control_c, 0, 64, 67
2, 159045, Note_on_c, 0, 56, 50
2, 159061, Control_c, 0, 64, 71
2, 159061, Control_c, 0, 67, 9
2, 159080, Control_c, 0, 64, 76
2, 159080, Control_c, 0, 67, 14
2, 159099, Control_c, 0, 64, 83
2, 159099, Control_c, 0, 67, 20
2, 159119, Control_c, 0, 64, 90
2, 159119, Control_c, 0, 67, 24
2, 159138, Control_c, 0, 64, 93
2, 159138, Control_c, 0, 67, 25
2, 159157, Control_c, 0, 64, 96
2, 159157, Control_c, 0, 67, 25
2, 159176, Control_c, 0, 64, 97
2, 159176, Control_c, 0, 67, 24
2, 159192, Note_on_c, 0, 64, 0
2, 159196, Control_c, 0, 64, 97
2, 159196, Control_c, 0, 67, 24
2, 159202, Note_on_c, 0, 56, 0
2, 159214, Control_c, 0, 64, 98
2, 159234, Control_c, 0, 67, 23
2, 159253, Control_c, 0, 67, 22
2, 159258, Note_on_c, 0, 55, 48
2, 159272, Control_c, 0, 67, 22
2, 159291, Control_c, 0, 67, 21
2, 159310, Control_c, 0, 67, 20
2, 159348, Control_c, 0, 64, 97
2, 159368, Control_c, 0, 64, 96
2, 159368, Control_c, 0, 67, 20
2, 159387, Control_c, 0, 64, 95
2, 159387, Control_c, 0, 67, 19
2, 159407, Control_c, 0, 64, 94
2, 159407, Control_c, 0, 67, 19
2, 159425, Control_c, 0, 64, 92
2, 159425, Control_c, 0, 67, 18
2, 159445, Control_c, 0, 64, 90
2, 159464, Control_c, 0, 64, 87
2, 159484, Control_c, 0, 64, 83
2, 159502, Control_c, 0, 64, 76
2, 159509, Note_on_c, 0, 65, 55
2, 159518, Note_on_c, 0, 41, 40
2, 159518, Note_on_c, 0, 55, 0
2, 159522, Control_c, 0, 64, 66
2, 159522, Control_c, 0, 67, 18
2, 159541, Control_c, 0, 64, 55
2, 159541, Control_c, 0, 67, 17
2, 159544, Note_on_c, 0, 43, 0
2, 159556, Note_on_c, 0, 56, 38
2, 159560, Control_c, 0, 64, 0
2, 159599, Control_c, 0, 67, 17
2, 159676, Control_c, 0, 64, 33
2, 159694, Control_c, 0, 64, 55
2, 159712, Note_on_c, 0, 65, 0
2, 159714, Control_c, 0, 64, 62
2, 159733, Control_c, 0, 64, 65
2, 159752, Control_c, 0, 64, 67
2, 159771, Control_c, 0, 64, 69
2, 159790, Control_c, 0, 64, 76
2, 159810, Control_c, 0, 64, 83
2, 159811, Note_on_c, 0, 41, 0
2, 159828, Control_c, 0, 64, 88
2, 159848, Control_c, 0, 64, 88
2, 159887, Control_c, 0, 64, 88
2, 159905, Control_c, 0, 64, 87
2, 159925, Control_c, 0, 64, 86
2, 159925, Control_c, 0, 67, 17
2, 159944, Control_c, 0, 64, 85
2, 159964, Control_c, 0, 64, 82
2, 159982, Control_c, 0, 64, 79
2, 160002, Control_c, 0, 64, 76
2, 160002, Note_on_c, 0, 65, 50
2, 160021, Control_c, 0, 64, 74
2, 160040, Control_c, 0, 64, 72
2, 160059, Control_c, 0, 64, 70
2, 160079, Control_c, 0, 64, 69
2, 160098, Control_c, 0, 64, 68
2, 160117, Control_c, 0, 64, 67
2, 160136, Control_c, 0, 64, 66
2, 160147, Note_on_c, 0, 56, 0
2, 160156, Control_c, 0, 64, 65
2, 160174, Control_c, 0, 64, 64
2, 160194, Control_c, 0, 64, 63
2, 160200, Note_on_c, 0, 67, 50
2, 160213, Control_c, 0, 64, 63
2, 160232, Control_c, 0, 64, 62
2, 160251, Control_c, 0, 64, 62
2, 160251, Note_on_c, 0, 65, 0
2, 160270, Control_c, 0, 64, 61
2, 160289, Control_c, 0, 64, 60
2, 160309, Control_c, 0, 64, 59
2, 160329, Control_c, 0, 64, 57
2, 160348, Control_c, 0, 64, 54
2, 160368, Control_c, 0, 64, 47
2, 160368, Control_c, 0, 67, 18
2, 160386, Control_c, 0, 64, 29
2, 160386, Control_c, 0, 67, 18
2, 160406, Control_c, 0, 64, 0
2, 160425, Control_c, 0, 67, 19
2, 160440, Note_on_c, 0, 67, 0
2, 160444, Control_c, 0, 67, 19
2, 160446, Note_on_c, 0, 68, 52
2, 160483, Control_c, 0, 67, 20
2, 160540, Control_c, 0, 64, 29
2, 160560, Control_c, 0, 64, 51
2, 160560, Control_c, 0, 67, 19
2, 160578, Control_c, 0, 64, 60
2, 160598, Control_c, 0, 64, 63
2, 160598, Control_c, 0, 67, 19
2, 160617, Control_c, 0, 64, 65
2, 160637, Control_c, 0, 64, 66
2, 160637, Control_c, 0, 67, 18
2, 160655, Control_c, 0, 64, 69
2, 160671, Note_on_c, 0, 68, 0
2, 160675, Control_c, 0, 64, 75
2, 160694, Control_c, 0, 64, 81
2, 160714, Control_c, 0, 64, 85
2, 160751, Control_c, 0, 64, 84
2, 160771, Control_c, 0, 64, 83
2, 160809, Control_c, 0, 64, 82
2, 160828, Control_c, 0, 64, 80
2, 160848, Control_c, 0, 64, 79
2, 160866, Control_c, 0, 64, 77
2, 160880, Note_on_c, 0, 68, 52
2, 160886, Control_c, 0, 64, 74
2, 160886, Note_on_c, 0, 53, 43
2, 160905, Control_c, 0, 64, 71
2, 160924, Control_c, 0, 64, 69
2, 160943, Control_c, 0, 64, 68
2, 160963, Control_c, 0, 64, 68
2, 160982, Control_c, 0, 64, 67
2, 161001, Control_c, 0, 64, 66
2, 161020, Control_c, 0, 64, 65
2, 161040, Control_c, 0, 64, 64
2, 161040, Control_c, 0, 67, 18
2, 161058, Control_c, 0, 64, 62
2, 161077, Note_on_c, 0, 70, 70
2, 161078, Control_c, 0, 64, 60
2, 161084, Note_on_c, 0, 53, 0
2, 161097, Control_c, 0, 64, 57
2, 161098, Note_on_c, 0, 55, 47
2, 161117, Control_c, 0, 64, 54
2, 161133, Note_on_c, 0, 68, 0
2, 161135, Control_c, 0, 64, 49
2, 161135, Control_c, 0, 67, 17
2, 161155, Control_c, 0, 64, 41
2, 161174, Control_c, 0, 64, 24
2, 161194, Control_c, 0, 64, 0
2, 161333, Note_on_c, 0, 55, 0
2, 161337, Note_on_c, 0, 72, 68
2, 161354, Note_on_c, 0, 56, 49
2, 161370, Note_on_c, 0, 70, 0
2, 161385, Control_c, 0, 67, 17
2, 161443, Control_c, 0, 64, 40
2, 161462, Control_c, 0, 64, 56
2, 161481, Control_c, 0, 64, 61
2, 161500, Control_c, 0, 64, 64
2, 161500, Control_c, 0, 67, 16
2, 161520, Control_c, 0, 64, 65
2, 161538, Control_c, 0, 64, 69
2, 161558, Control_c, 0, 64, 75
2, 161577, Control_c, 0, 64, 86
2, 161582, Note_on_c, 0, 56, 0
2, 161597, Control_c, 0, 64, 95
2, 161597, Control_c, 0, 67, 16
2, 161615, Control_c, 0, 64, 96
2, 161635, Control_c, 0, 64, 96
2, 161673, Control_c, 0, 64, 95
2, 161692, Control_c, 0, 64, 94
2, 161711, Control_c, 0, 64, 91
2, 161731, Control_c, 0, 64, 86
2, 161749, Control_c, 0, 64, 78
2, 161757, Note_on_c, 0, 56, 55
2, 161765, Note_on_c, 0, 60, 51
2, 161769, Control_c, 0, 64, 69
2, 161788, Control_c, 0, 64, 62
2, 161808, Control_c, 0, 64, 49
2, 161826, Control_c, 0, 64, 0
2, 161884, Control_c, 0, 64, 13
2, 161903, Control_c, 0, 64, 36
2, 161923, Control_c, 0, 64, 51
2, 161942, Control_c, 0, 64, 59
2, 161961, Control_c, 0, 64, 62
2, 161970, Note_on_c, 0, 56, 0
2, 161974, Note_on_c, 0, 60, 0
2, 161978, Note_on_c, 0, 58, 52
2, 161980, Control_c, 0, 64, 64
2, 161981, Note_on_c, 0, 61, 55
2, 162000, Control_c, 0, 64, 65
2, 162018, Control_c, 0, 64, 67
2, 162038, Control_c, 0, 64, 70
2, 162049, Note_on_c, 0, 61, 0
2, 162057, Control_c, 0, 64, 75
2, 162077, Control_c, 0, 64, 79
2, 162095, Control_c, 0, 64, 80
2, 162134, Control_c, 0, 64, 79
2, 162134, Control_c, 0, 67, 16
2, 162149, Note_on_c, 0, 58, 0
2, 162153, Control_c, 0, 64, 77
2, 162172, Control_c, 0, 64, 74
2, 162191, Control_c, 0, 64, 69
2, 162191, Control_c, 0, 67, 17
2, 162203, Note_on_c, 0, 63, 59
2, 162207, Note_on_c, 0, 60, 46
2, 162211, Control_c, 0, 64, 64
2, 162229, Control_c, 0, 64, 55
2, 162249, Control_c, 0, 64, 28
2, 162268, Control_c, 0, 64, 0
2, 162345, Control_c, 0, 64, 33
2, 162364, Control_c, 0, 64, 53
2, 162383, Control_c, 0, 64, 61
2, 162403, Control_c, 0, 64, 64
2, 162404, Note_on_c, 0, 70, 73
2, 162422, Control_c, 0, 64, 65
2, 162441, Control_c, 0, 64, 67
2, 162460, Control_c, 0, 64, 70
2, 162467, Note_on_c, 0, 60, 0
2, 162480, Control_c, 0, 64, 77
2, 162492, Note_on_c, 0, 72, 0
2, 162498, Control_c, 0, 64, 85
2, 162518, Control_c, 0, 64, 90
2, 162557, Control_c, 0, 64, 89
2, 162575, Control_c, 0, 64, 87
2, 162595, Control_c, 0, 64, 82
2, 162608, Note_on_c, 0, 48, 49
2, 162614, Control_c, 0, 64, 74
2, 162618, Note_on_c, 0, 68, 73
2, 162633, Control_c, 0, 64, 65
2, 162643, Note_on_c, 0, 70, 0
2, 162652, Control_c, 0, 64, 54
2, 162671, Control_c, 0, 64, 0
2, 162729, Control_c, 0, 64, 13
2, 162748, Control_c, 0, 64, 42
2, 162768, Control_c, 0, 64, 56
2, 162786, Control_c, 0, 64, 62
2, 162806, Control_c, 0, 64, 64
2, 162806, Control_c, 0, 67, 17
2, 162814, Note_on_c, 0, 68, 0
2, 162825, Control_c, 0, 64, 66
2, 162833, Note_on_c, 0, 67, 61
2, 162844, Control_c, 0, 64, 68
2, 162863, Control_c, 0, 64, 73
2, 162883, Control_c, 0, 64, 82
2, 162902, Control_c, 0, 64, 90
2, 162921, Control_c, 0, 64, 93
2, 163055, Control_c, 0, 64, 92
2, 163075, Control_c, 0, 64, 90
2, 163094, Control_c, 0, 64, 86
2, 163113, Control_c, 0, 64, 82
2, 163132, Control_c, 0, 64, 78
2, 163139, Note_on_c, 0, 65, 61
2, 163151, Control_c, 0, 64, 75
2, 163152, Note_on_c, 0, 49, 53
2, 163168, Control_c, 0, 64, 72
2, 163168, Control_c, 0, 67, 18
2, 163189, Control_c, 0, 64, 69
2, 163206, Note_on_c, 0, 67, 0
2, 163209, Control_c, 0, 64, 67
2, 163209, Control_c, 0, 67, 18
2, 163228, Control_c, 0, 64, 63
2, 163233, Note_on_c, 0, 63, 0
2, 163248, Control_c, 0, 64, 59
2, 163263, Note_on_c, 0, 48, 0
2, 163266, Control_c, 0, 64, 55
2, 163286, Control_c, 0, 64, 49
2, 163305, Control_c, 0, 64, 45
2, 163324, Control_c, 0, 64, 41
2, 163343, Control_c, 0, 64, 36
2, 163363, Control_c, 0, 64, 30
2, 163382, Control_c, 0, 64, 23
2, 163401, Control_c, 0, 64, 17
2, 163420, Control_c, 0, 64, 9
2, 163420, Control_c, 0, 67, 19
2, 163440, Control_c, 0, 64, 0
2, 163599, Note_on_c, 0, 61, 47
2, 163728, Control_c, 0, 67, 18
2, 163797, Note_on_c, 0, 63, 56
2, 163812, Note_on_c, 0, 65, 0
2, 163905, Note_on_c, 0, 61, 0
2, 164047, Note_on_c, 0, 65, 47
2, 164048, Note_on_c, 0, 63, 0
2, 164069, Note_on_c, 0, 49, 0
2, 164073, Control_c, 0, 64, 18
2, 164092, Control_c, 0, 64, 37
2, 164111, Control_c, 0, 64, 50
2, 164131, Control_c, 0, 64, 58
2, 164149, Control_c, 0, 64, 62
2, 164149, Control_c, 0, 67, 18
2, 164169, Control_c, 0, 64, 64
2, 164188, Control_c, 0, 64, 65
2, 164208, Control_c, 0, 64, 68
2, 164226, Control_c, 0, 64, 72
2, 164246, Control_c, 0, 64, 76
2, 164265, Control_c, 0, 64, 79
2, 164284, Control_c, 0, 64, 79
2, 164294, Note_on_c, 0, 65, 0
2, 164303, Control_c, 0, 64, 79
2, 164323, Control_c, 0, 64, 78
2, 164342, Control_c, 0, 64, 78
2, 164361, Control_c, 0, 64, 77
2, 164380, Control_c, 0, 64, 76
2, 164400, Control_c, 0, 64, 75
2, 164418, Control_c, 0, 64, 74
2, 164438, Control_c, 0, 64, 73
2, 164457, Control_c, 0, 64, 71
2, 164472, Note_on_c, 0, 65, 55
2, 164475, Note_on_c, 0, 49, 47
2, 164477, Control_c, 0, 64, 68
2, 164495, Control_c, 0, 64, 66
2, 164515, Control_c, 0, 64, 64
2, 164534, Control_c, 0, 64, 63
2, 164553, Control_c, 0, 64, 63
2, 164572, Control_c, 0, 64, 61
2, 164591, Control_c, 0, 64, 60
2, 164611, Control_c, 0, 64, 57
2, 164629, Control_c, 0, 64, 55
2, 164649, Control_c, 0, 64, 52
2, 164665, Note_on_c, 0, 49, 0
2, 164668, Control_c, 0, 64, 48
2, 164679, Note_on_c, 0, 67, 65
2, 164687, Note_on_c, 0, 51, 49
2, 164688, Control_c, 0, 64, 42
2, 164697, Note_on_c, 0, 65, 0
2, 164706, Control_c, 0, 64, 33
2, 164726, Control_c, 0, 64, 18
2, 164745, Control_c, 0, 64, 0
2, 164896, Note_on_c, 0, 51, 0
2, 164898, Control_c, 0, 67, 17
2, 164907, Note_on_c, 0, 53, 45
2, 164925, Note_on_c, 0, 68, 69
2, 164937, Control_c, 0, 67, 17
2, 164949, Note_on_c, 0, 67, 0
2, 164975, Control_c, 0, 64, 26
2, 164975, Control_c, 0, 67, 16
2, 164995, Control_c, 0, 64, 46
2, 164995, Control_c, 0, 67, 15
2, 165014, Control_c, 0, 64, 58
2, 165033, Control_c, 0, 64, 61
2, 165052, Control_c, 0, 64, 63
2, 165052, Control_c, 0, 67, 15
2, 165071, Control_c, 0, 64, 64
2, 165092, Control_c, 0, 64, 66
2, 165092, Control_c, 0, 67, 14
2, 165110, Control_c, 0, 64, 68
2, 165115, Note_on_c, 0, 53, 0
2, 165130, Control_c, 0, 64, 69
2, 165130, Control_c, 0, 67, 14
2, 165149, Control_c, 0, 64, 70
2, 165207, Control_c, 0, 64, 70
2, 165264, Control_c, 0, 64, 69
2, 165284, Control_c, 0, 64, 68
2, 165303, Control_c, 0, 64, 66
2, 165322, Control_c, 0, 64, 63
2, 165327, Note_on_c, 0, 56, 57
2, 165341, Control_c, 0, 64, 57
2, 165341, Control_c, 0, 67, 13
2, 165341, Note_on_c, 0, 53, 39
2, 165361, Control_c, 0, 64, 49
2, 165379, Control_c, 0, 64, 31
2, 165399, Control_c, 0, 64, 0
2, 165476, Control_c, 0, 64, 30
2, 165495, Control_c, 0, 64, 47
2, 165513, Control_c, 0, 64, 57
2, 165516, Note_on_c, 0, 56, 0
2, 165533, Control_c, 0, 64, 60
2, 165537, Note_on_c, 0, 53, 0
2, 165545, Note_on_c, 0, 55, 51
2, 165547, Note_on_c, 0, 58, 56
2, 165552, Control_c, 0, 64, 61
2, 165572, Control_c, 0, 64, 63
2, 165590, Control_c, 0, 64, 64
2, 165610, Control_c, 0, 64, 65
2, 165629, Control_c, 0, 64, 66
2, 165649, Control_c, 0, 64, 66
2, 165704, Note_on_c, 0, 58, 0
2, 165706, Control_c, 0, 64, 66
2, 165725, Control_c, 0, 64, 65
2, 165733, Note_on_c, 0, 55, 0
2, 165744, Control_c, 0, 64, 63
2, 165764, Control_c, 0, 64, 57
2, 165773, Note_on_c, 0, 60, 53
2, 165775, Note_on_c, 0, 56, 51
2, 165783, Control_c, 0, 64, 50
2, 165802, Control_c, 0, 64, 41
2, 165821, Control_c, 0, 64, 27
2, 165841, Control_c, 0, 64, 26
2, 165859, Control_c, 0, 64, 34
2, 165879, Control_c, 0, 64, 46
2, 165879, Control_c, 0, 67, 13
2, 165898, Control_c, 0, 64, 56
2, 165898, Control_c, 0, 67, 12
2, 165918, Control_c, 0, 64, 61
2, 165918, Control_c, 0, 67, 12
2, 165936, Control_c, 0, 64, 63
2, 165936, Control_c, 0, 67, 11
2, 165953, Note_on_c, 0, 66, 65
2, 165956, Control_c, 0, 64, 64
2, 165956, Control_c, 0, 67, 10
2, 165975, Control_c, 0, 64, 66
2, 165975, Control_c, 0, 67, 8
2, 165977, Note_on_c, 0, 68, 0
2, 165993, Control_c, 0, 64, 68
2, 165993, Control_c, 0, 67, 0
2, 166013, Control_c, 0, 64, 74
2, 166032, Control_c, 0, 64, 83
2, 166052, Control_c, 0, 64, 91
2, 166070, Control_c, 0, 64, 93
2, 166109, Control_c, 0, 64, 92
2, 166129, Control_c, 0, 64, 91
2, 166147, Control_c, 0, 64, 88
2, 166167, Control_c, 0, 64, 81
2, 166168, Note_on_c, 0, 65, 71
2, 166181, Note_on_c, 0, 44, 49
2, 166181, Note_on_c, 0, 66, 0
2, 166186, Control_c, 0, 64, 70
2, 166205, Control_c, 0, 64, 62
2, 166224, Control_c, 0, 64, 48
2, 166230, Note_on_c, 0, 56, 0
2, 166244, Control_c, 0, 64, 24
2, 166263, Control_c, 0, 64, 27
2, 166282, Control_c, 0, 64, 38
2, 166301, Control_c, 0, 64, 49
2, 166321, Control_c, 0, 64, 57
2, 166339, Control_c, 0, 64, 61
2, 166359, Control_c, 0, 64, 63
2, 166378, Control_c, 0, 64, 64
2, 166383, Note_on_c, 0, 63, 72
2, 166398, Control_c, 0, 64, 66
2, 166416, Control_c, 0, 64, 69
2, 166436, Control_c, 0, 64, 74
2, 166455, Control_c, 0, 64, 81
2, 166473, Control_c, 0, 64, 86
2, 166489, Note_on_c, 0, 65, 0
2, 166512, Control_c, 0, 64, 86
2, 166532, Control_c, 0, 64, 84
2, 166550, Control_c, 0, 64, 83
2, 166570, Control_c, 0, 64, 82
2, 166589, Control_c, 0, 64, 80
2, 166609, Control_c, 0, 64, 77
2, 166627, Control_c, 0, 64, 74
2, 166647, Control_c, 0, 64, 69
2, 166666, Control_c, 0, 64, 65
2, 166669, Note_on_c, 0, 46, 50
2, 166671, Note_on_c, 0, 61, 60
2, 166685, Control_c, 0, 64, 63
2, 166704, Control_c, 0, 64, 61
2, 166724, Control_c, 0, 64, 58
2, 166740, Note_on_c, 0, 44, 0
2, 166743, Control_c, 0, 64, 55
2, 166747, Note_on_c, 0, 60, 0
2, 166762, Control_c, 0, 64, 50
2, 166781, Control_c, 0, 64, 45
2, 166801, Control_c, 0, 64, 39
2, 166805, Note_on_c, 0, 63, 0
2, 166819, Control_c, 0, 64, 31
2, 166839, Control_c, 0, 64, 22
2, 166858, Control_c, 0, 64, 0
2, 167116, Note_on_c, 0, 58, 49
2, 167301, Note_on_c, 0, 58, 0
2, 167326, Note_on_c, 0, 60, 52
2, 167326, Note_on_c, 0, 61, 0
2, 167563, Note_on_c, 0, 60, 0
2, 167571, Note_on_c, 0, 61, 56
2, 167625, Control_c, 0, 64, 34
2, 167644, Control_c, 0, 64, 52
2, 167663, Control_c, 0, 64, 59
2, 167676, Note_on_c, 0, 46, 0
2, 167683, Control_c, 0, 64, 62
2, 167702, Control_c, 0, 64, 63
2, 167721, Control_c, 0, 64, 64
2, 167740, Control_c, 0, 64, 66
2, 167760, Control_c, 0, 64, 69
2, 167778, Control_c, 0, 64, 73
2, 167798, Control_c, 0, 64, 76
2, 167837, Control_c, 0, 64, 76
2, 167841, Note_on_c, 0, 61, 0
2, 167855, Control_c, 0, 64, 75
2, 167874, Control_c, 0, 64, 73
2, 167894, Control_c, 0, 64, 72
2, 167913, Control_c, 0, 64, 71
2, 167932, Control_c, 0, 64, 69
2, 167951, Control_c, 0, 64, 68
2, 167971, Control_c, 0, 64, 66
2, 167989, Control_c, 0, 64, 65
2, 168008, Note_on_c, 0, 61, 51
2, 168009, Control_c, 0, 64, 64
2, 168010, Note_on_c, 0, 46, 42
2, 168028, Control_c, 0, 64, 63
2, 168048, Control_c, 0, 64, 61
2, 168066, Control_c, 0, 64, 59
2, 168086, Control_c, 0, 64, 56
2, 168105, Control_c, 0, 64, 52
2, 168124, Control_c, 0, 64, 47
2, 168143, Control_c, 0, 64, 42
2, 168163, Control_c, 0, 64, 37
2, 168182, Control_c, 0, 64, 31
2, 168201, Control_c, 0, 64, 24
2, 168207, Note_on_c, 0, 48, 46
2, 168209, Note_on_c, 0, 63, 62
2, 168220, Control_c, 0, 64, 13
2, 168240, Control_c, 0, 64, 0
2, 168243, Note_on_c, 0, 46, 0
2, 168306, Note_on_c, 0, 61, 0
2, 168421, Note_on_c, 0, 48, 0
2, 168449, Note_on_c, 0, 49, 47
2, 168468, Note_on_c, 0, 65, 62
2, 168469, Control_c, 0, 64, 17
2, 168481, Note_on_c, 0, 63, 0
2, 168488, Control_c, 0, 64, 43
2, 168506, Control_c, 0, 64, 56
2, 168525, Control_c, 0, 64, 61
2, 168543, Control_c, 0, 64, 63
2, 168563, Control_c, 0, 64, 64
2, 168582, Control_c, 0, 64, 67
2, 168601, Control_c, 0, 64, 71
2, 168620, Control_c, 0, 64, 79
2, 168640, Control_c, 0, 64, 87
2, 168659, Control_c, 0, 64, 91
2, 168668, Note_on_c, 0, 49, 0
2, 168697, Control_c, 0, 64, 90
2, 168735, Control_c, 0, 64, 90
2, 168755, Control_c, 0, 64, 89
2, 168774, Control_c, 0, 64, 88
2, 168794, Control_c, 0, 64, 84
2, 168812, Control_c, 0, 64, 77
2, 168832, Control_c, 0, 64, 68
2, 168851, Control_c, 0, 64, 61
2, 168871, Control_c, 0, 64, 47
2, 168876, Note_on_c, 0, 49, 42
2, 168883, Note_on_c, 0, 53, 55
2, 168889, Control_c, 0, 64, 39
2, 168909, Control_c, 0, 64, 47
2, 168926, Control_c, 0, 64, 55
2, 168947, Control_c, 0, 64, 59
2, 168961, Note_on_c, 0, 53, 0
2, 168966, Control_c, 0, 64, 61
2, 168986, Control_c, 0, 64, 63
2, 169005, Control_c, 0, 64, 64
2, 169023, Control_c, 0, 64, 66
2, 169043, Control_c, 0, 64, 67
2, 169062, Control_c, 0, 64, 67
2, 169080, Note_on_c, 0, 49, 0
2, 169091, Note_on_c, 0, 51, 47
2, 169098, Note_on_c, 0, 55, 57
2, 169139, Control_c, 0, 64, 67
2, 169177, Control_c, 0, 64, 66
2, 169235, Control_c, 0, 64, 66
2, 169254, Control_c, 0, 64, 65
2, 169274, Control_c, 0, 64, 63
2, 169277, Note_on_c, 0, 51, 0
2, 169292, Control_c, 0, 64, 56
2, 169307, Note_on_c, 0, 55, 0
2, 169312, Control_c, 0, 64, 41
2, 169330, Note_on_c, 0, 53, 41
2, 169331, Control_c, 0, 64, 0
2, 169332, Note_on_c, 0, 56, 58
2, 169446, Control_c, 0, 64, 34
2, 169466, Control_c, 0, 64, 56
2, 169485, Control_c, 0, 64, 64
2, 169503, Control_c, 0, 64, 66
2, 169523, Control_c, 0, 64, 68
2, 169542, Control_c, 0, 64, 71
2, 169546, Note_on_c, 0, 56, 0
2, 169561, Control_c, 0, 64, 77
2, 169580, Control_c, 0, 64, 86
2, 169600, Control_c, 0, 64, 93
2, 169619, Control_c, 0, 64, 94
2, 169677, Control_c, 0, 64, 93
2, 169695, Control_c, 0, 64, 90
2, 169715, Control_c, 0, 64, 82
2, 169734, Control_c, 0, 64, 72
2, 169735, Note_on_c, 0, 56, 57
2, 169754, Control_c, 0, 64, 63
2, 169761, Note_on_c, 0, 53, 0
2, 169769, Note_on_c, 0, 41, 39
2, 169772, Control_c, 0, 64, 51
2, 169792, Control_c, 0, 64, 32
2, 169811, Control_c, 0, 64, 34
2, 169831, Control_c, 0, 64, 47
2, 169849, Control_c, 0, 64, 56
2, 169869, Control_c, 0, 64, 60
2, 169888, Control_c, 0, 64, 63
2, 169908, Control_c, 0, 64, 65
2, 169927, Control_c, 0, 64, 67
2, 169940, Note_on_c, 0, 56, 0
2, 169947, Control_c, 0, 64, 71
2, 169947, Note_on_c, 0, 58, 57
2, 169966, Control_c, 0, 64, 76
2, 169985, Control_c, 0, 64, 85
2, 170004, Control_c, 0, 64, 91
2, 170023, Control_c, 0, 64, 93
2, 170026, Note_on_c, 0, 41, 0
2, 170042, Control_c, 0, 64, 94
2, 170119, Control_c, 0, 64, 93
2, 170131, Note_on_c, 0, 65, 0
2, 170138, Control_c, 0, 64, 90
2, 170158, Control_c, 0, 64, 80
2, 170172, Note_on_c, 0, 58, 0
2, 170176, Control_c, 0, 64, 69
2, 170194, Note_on_c, 0, 60, 57
2, 170196, Control_c, 0, 64, 60
2, 170206, Note_on_c, 0, 48, 40
2, 170215, Control_c, 0, 64, 47
2, 170235, Control_c, 0, 64, 44
2, 170253, Control_c, 0, 64, 55
2, 170273, Control_c, 0, 64, 60
2, 170292, Control_c, 0, 64, 62
2, 170311, Control_c, 0, 64, 64
2, 170315, Note_on_c, 0, 48, 0
2, 170330, Control_c, 0, 64, 67
2, 170350, Control_c, 0, 64, 72
2, 170369, Control_c, 0, 64, 82
2, 170388, Control_c, 0, 64, 101
2, 170407, Control_c, 0, 64, 127
2, 170509, Note_on_c, 0, 60, 0
2, 170599, Control_c, 0, 64, 102
2, 170615, Note_on_c, 0, 48, 50
2, 170616, Note_on_c, 0, 64, 59
2, 170618, Control_c, 0, 64, 81
2, 170638, Control_c, 0, 64, 68
2, 170648, Note_on_c, 0, 55, 38
2, 170656, Control_c, 0, 64, 57
2, 170676, Control_c, 0, 64, 50
2, 170695, Control_c, 0, 64, 53
2, 170715, Control_c, 0, 64, 57
2, 170733, Control_c, 0, 64, 60
2, 170753, Control_c, 0, 64, 62
2, 170761, Note_on_c, 0, 48, 0
2, 170767, Note_on_c, 0, 55, 0
2, 170772, Control_c, 0, 64, 64
2, 170791, Control_c, 0, 64, 68
2, 170798, Note_on_c, 0, 64, 0
2, 170810, Control_c, 0, 64, 73
2, 170812, Note_on_c, 0, 65, 69
2, 170830, Control_c, 0, 64, 83
2, 170830, Note_on_c, 0, 50, 55
2, 170849, Control_c, 0, 64, 97
2, 170868, Control_c, 0, 64, 123
2, 170887, Control_c, 0, 64, 127
2, 170947, Note_on_c, 0, 50, 0
2, 171114, Note_on_c, 0, 72, 87
2, 171118, Control_c, 0, 64, 105
2, 171121, Note_on_c, 0, 52, 45
2, 171130, Note_on_c, 0, 60, 45
2, 171135, Note_on_c, 0, 67, 55
2, 171136, Control_c, 0, 64, 83
2, 171139, Note_on_c, 0, 65, 0
2, 171156, Control_c, 0, 64, 66
2, 171175, Control_c, 0, 64, 29
2, 171195, Control_c, 0, 64, 0
2, 171315, Note_on_c, 0, 52, 0
2, 171348, Control_c, 0, 64, 57
2, 171367, Control_c, 0, 64, 66
2, 171387, Control_c, 0, 64, 70
2, 171406, Control_c, 0, 64, 77
2, 171425, Control_c, 0, 64, 87
2, 171444, Control_c, 0, 64, 99
2, 171463, Control_c, 0, 64, 127
2, 171571, Note_on_c, 0, 50, 57
2, 171581, Note_on_c, 0, 58, 53
2, 171626, Note_on_c, 0, 72, 0
2, 171672, Note_on_c, 0, 60, 0
2, 171685, Note_on_c, 0, 50, 0
2, 171752, Note_on_c, 0, 58, 0
2, 171771, Note_on_c, 0, 52, 69
2, 171901, Note_on_c, 0, 52, 0
2, 171905, Control_c, 0, 64, 87
2, 171924, Control_c, 0, 64, 68
2, 171943, Control_c, 0, 64, 49
2, 171962, Control_c, 0, 64, 0
2, 171977, Note_on_c, 0, 73, 83
2, 171981, Control_c, 0, 64, 20
2, 171988, Note_on_c, 0, 56, 58
2, 171991, Note_on_c, 0, 53, 63
2, 172001, Control_c, 0, 64, 54
2, 172020, Control_c, 0, 64, 63
2, 172036, Note_on_c, 0, 56, 0
2, 172039, Control_c, 0, 64, 69
2, 172039, Note_on_c, 0, 53, 0
2, 172058, Control_c, 0, 64, 77
2, 172078, Control_c, 0, 64, 95
2, 172096, Control_c, 0, 64, 127
2, 172215, Note_on_c, 0, 40, 61
2, 172403, Note_on_c, 0, 40, 0
2, 172404, Control_c, 0, 64, 105
2, 172406, Note_on_c, 0, 41, 61
2, 172409, Note_on_c, 0, 65, 65
2, 172423, Control_c, 0, 64, 93
2, 172442, Control_c, 0, 64, 82
2, 172461, Control_c, 0, 64, 76
2, 172481, Control_c, 0, 64, 73
2, 172500, Control_c, 0, 64, 71
2, 172508, Note_on_c, 0, 67, 0
2, 172519, Control_c, 0, 64, 69
2, 172538, Control_c, 0, 64, 66
2, 172558, Control_c, 0, 64, 64
2, 172576, Control_c, 0, 64, 62
2, 172589, Note_on_c, 0, 41, 0
2, 172596, Control_c, 0, 64, 59
2, 172601, Note_on_c, 0, 43, 56
2, 172615, Control_c, 0, 64, 58
2, 172673, Control_c, 0, 64, 58
2, 172786, Control_c, 0, 64, 57
2, 172804, Control_c, 0, 64, 53
2, 172811, Note_on_c, 0, 43, 0
2, 172812, Note_on_c, 0, 44, 54
2, 172814, Note_on_c, 0, 72, 82
2, 172823, Control_c, 0, 64, 37
2, 172843, Control_c, 0, 64, 0
2, 172859, Note_on_c, 0, 73, 0
2, 173036, Note_on_c, 0, 48, 52
2, 173179, Note_on_c, 0, 48, 0
2, 173240, Note_on_c, 0, 50, 52
2, 173251, Note_on_c, 0, 63, 65
2, 173326, Control_c, 0, 64, 45
2, 173335, Note_on_c, 0, 65, 0
2, 173344, Control_c, 0, 64, 60
2, 173352, Note_on_c, 0, 50, 0
2, 173364, Control_c, 0, 64, 65
2, 173383, Control_c, 0, 64, 68
2, 173384, Note_on_c, 0, 72, 0
2, 173403, Control_c, 0, 64, 72
2, 173421, Control_c, 0, 64, 84
2, 173441, Control_c, 0, 64, 106
2, 173460, Control_c, 0, 64, 127
2, 173461, Note_on_c, 0, 51, 56
2, 173647, Note_on_c, 0, 44, 0
2, 173659, Note_on_c, 0, 51, 0
2, 173689, Note_on_c, 0, 71, 76
2, 173700, Note_on_c, 0, 53, 56
2, 173705, Note_on_c, 0, 63, 0
2, 173709, Control_c, 0, 64, 102
2, 173711, Note_on_c, 0, 62, 49
2, 173729, Control_c, 0, 64, 84
2, 173748, Control_c, 0, 64, 73
2, 173767, Control_c, 0, 64, 65
2, 173786, Control_c, 0, 64, 57
2, 173806, Control_c, 0, 64, 43
2, 173824, Control_c, 0, 64, 20
2, 173844, Control_c, 0, 64, 11
2, 173863, Control_c, 0, 64, 9
2, 173883, Control_c, 0, 64, 0
2, 173892, Note_on_c, 0, 41, 59
2, 174079, Note_on_c, 0, 53, 0
2, 174123, Note_on_c, 0, 43, 55
2, 174124, Note_on_c, 0, 63, 66
2, 174161, Note_on_c, 0, 62, 0
2, 174180, Note_on_c, 0, 41, 0
2, 174198, Note_on_c, 0, 71, 0
2, 174228, Control_c, 0, 64, 18
2, 174247, Control_c, 0, 64, 45
2, 174266, Control_c, 0, 64, 58
2, 174286, Control_c, 0, 64, 63
2, 174299, Note_on_c, 0, 43, 0
2, 174304, Control_c, 0, 64, 65
2, 174311, Note_on_c, 0, 63, 0
2, 174314, Note_on_c, 0, 44, 59
2, 174324, Control_c, 0, 64, 69
2, 174327, Note_on_c, 0, 65, 71
2, 174343, Control_c, 0, 64, 75
2, 174363, Control_c, 0, 64, 88
2, 174381, Control_c, 0, 64, 108
2, 174401, Control_c, 0, 64, 127
2, 174503, Note_on_c, 0, 65, 0
2, 174505, Note_on_c, 0, 44, 0
2, 174515, Control_c, 0, 64, 117
2, 174525, Note_on_c, 0, 46, 57
2, 174535, Control_c, 0, 64, 93
2, 174535, Note_on_c, 0, 76, 84
2, 174554, Control_c, 0, 64, 76
2, 174554, Note_on_c, 0, 67, 62
2, 174574, Control_c, 0, 64, 64
2, 174592, Control_c, 0, 64, 46
2, 174612, Control_c, 0, 64, 0
2, 174650, Control_c, 0, 64, 31
2, 174669, Control_c, 0, 64, 52
2, 174689, Control_c, 0, 64, 61
2, 174708, Control_c, 0, 64, 64
2, 174725, Note_on_c, 0, 76, 0
2, 174727, Control_c, 0, 64, 68
2, 174727, Note_on_c, 0, 67, 0
2, 174743, Note_on_c, 0, 65, 69
2, 174746, Control_c, 0, 64, 75
2, 174766, Control_c, 0, 64, 86
2, 174784, Control_c, 0, 64, 104
2, 174804, Control_c, 0, 64, 127
2, 174900, Control_c, 0, 64, 117
2, 174919, Control_c, 0, 64, 95
2, 174938, Control_c, 0, 64, 79
2, 174958, Control_c, 0, 64, 67
2, 174963, Note_on_c, 0, 64, 70
2, 174976, Note_on_c, 0, 55, 59
2, 174977, Control_c, 0, 64, 55
2, 174988, Note_on_c, 0, 65, 0
2, 174995, Control_c, 0, 64, 27
2, 175015, Control_c, 0, 64, 30
2, 175034, Control_c, 0, 64, 49
2, 175039, Note_on_c, 0, 46, 0
2, 175054, Control_c, 0, 64, 59
2, 175068, Note_on_c, 0, 55, 0
2, 175072, Control_c, 0, 64, 63
2, 175092, Control_c, 0, 64, 66
2, 175111, Control_c, 0, 64, 70
2, 175125, Note_on_c, 0, 64, 0
2, 175130, Control_c, 0, 64, 80
2, 175146, Note_on_c, 0, 62, 77
2, 175149, Control_c, 0, 64, 100
2, 175169, Control_c, 0, 64, 127
2, 175200, Note_on_c, 0, 62, 0
2, 175323, Control_c, 0, 64, 100
2, 175341, Control_c, 0, 64, 74
2, 175361, Control_c, 0, 64, 61
2, 175366, Note_on_c, 0, 77, 85
2, 175371, Note_on_c, 0, 56, 62
2, 175380, Control_c, 0, 64, 0
2, 175383, Note_on_c, 0, 60, 48
2, 175423, Note_on_c, 0, 60, 0
2, 175427, Note_on_c, 0, 56, 0
2, 175438, Control_c, 0, 64, 32
2, 175457, Control_c, 0, 64, 55
2, 175475, Control_c, 0, 64, 64
2, 175495, Control_c, 0, 64, 66
2, 175514, Control_c, 0, 64, 68
2, 175534, Control_c, 0, 64, 73
2, 175552, Control_c, 0, 64, 82
2, 175572, Control_c, 0, 64, 94
2, 175579, Note_on_c, 0, 44, 63
2, 175591, Control_c, 0, 64, 104
2, 175610, Control_c, 0, 64, 107
2, 175629, Control_c, 0, 64, 106
2, 175649, Control_c, 0, 64, 103
2, 175668, Control_c, 0, 64, 96
2, 175687, Control_c, 0, 64, 83
2, 175706, Control_c, 0, 64, 70
2, 175726, Control_c, 0, 64, 60
2, 175744, Control_c, 0, 64, 23
2, 175764, Control_c, 0, 64, 0
2, 175779, Note_on_c, 0, 46, 68
2, 175803, Control_c, 0, 64, 41
2, 175821, Control_c, 0, 64, 58
2, 175831, Note_on_c, 0, 77, 0
2, 175841, Control_c, 0, 64, 64
2, 175860, Control_c, 0, 64, 68
2, 175879, Control_c, 0, 64, 74
2, 175898, Control_c, 0, 64, 96
2, 175918, Control_c, 0, 64, 127
2, 175974, Note_on_c, 0, 48, 73
2, 175987, Note_on_c, 0, 44, 0
2, 176028, Note_on_c, 0, 46, 0
2, 176059, Note_on_c, 0, 48, 0
2, 176220, Note_on_c, 0, 49, 71
2, 176224, Control_c, 0, 64, 86
2, 176224, Note_on_c, 0, 70, 83
2, 176244, Control_c, 0, 64, 67
2, 176263, Control_c, 0, 64, 47
2, 176283, Control_c, 0, 64, 0
2, 176375, Control_c, 0, 64, 37
2, 176395, Control_c, 0, 64, 59
2, 176414, Control_c, 0, 64, 65
2, 176431, Note_on_c, 0, 58, 55
2, 176433, Control_c, 0, 64, 69
2, 176452, Control_c, 0, 64, 75
2, 176472, Control_c, 0, 64, 84
2, 176491, Control_c, 0, 64, 94
2, 176510, Control_c, 0, 64, 102
2, 176529, Control_c, 0, 64, 104
2, 176540, Note_on_c, 0, 58, 0
2, 176606, Control_c, 0, 64, 101
2, 176626, Control_c, 0, 64, 91
2, 176645, Control_c, 0, 64, 76
2, 176649, Note_on_c, 0, 58, 62
2, 176659, Note_on_c, 0, 56, 59
2, 176664, Control_c, 0, 64, 65
2, 176684, Control_c, 0, 64, 49
2, 176702, Control_c, 0, 64, 18
2, 176722, Control_c, 0, 64, 36
2, 176741, Control_c, 0, 64, 52
2, 176752, Note_on_c, 0, 49, 0
2, 176761, Control_c, 0, 64, 60
2, 176779, Control_c, 0, 64, 63
2, 176792, Note_on_c, 0, 70, 0
2, 176793, Note_on_c, 0, 58, 0
2, 176799, Control_c, 0, 64, 66
2, 176810, Note_on_c, 0, 56, 0
2, 176818, Control_c, 0, 64, 69
2, 176837, Control_c, 0, 64, 77
2, 176854, Note_on_c, 0, 55, 57
2, 176856, Control_c, 0, 64, 96
2, 176876, Control_c, 0, 64, 127
2, 177030, Control_c, 0, 64, 109
2, 177046, Note_on_c, 0, 55, 0
2, 177048, Control_c, 0, 64, 93
2, 177068, Control_c, 0, 64, 80
2, 177076, Note_on_c, 0, 69, 79
2, 177087, Control_c, 0, 64, 71
2, 177093, Note_on_c, 0, 60, 57
2, 177104, Note_on_c, 0, 53, 48
2, 177106, Control_c, 0, 64, 64
2, 177125, Control_c, 0, 64, 59
2, 177144, Control_c, 0, 64, 56
2, 177164, Control_c, 0, 64, 54
2, 177182, Control_c, 0, 64, 48
2, 177202, Control_c, 0, 64, 29
2, 177221, Control_c, 0, 64, 0
2, 177286, Note_on_c, 0, 53, 0
2, 177300, Note_on_c, 0, 48, 51
2, 177497, Note_on_c, 0, 50, 59
2, 177593, Note_on_c, 0, 48, 0
2, 177644, Control_c, 0, 64, 11
2, 177662, Control_c, 0, 64, 13
2, 177700, Note_on_c, 0, 52, 53
2, 177701, Control_c, 0, 64, 15
2, 177704, Note_on_c, 0, 50, 0
2, 177910, Note_on_c, 0, 68, 75
2, 177914, Note_on_c, 0, 53, 58
2, 177951, Note_on_c, 0, 52, 0
2, 177960, Note_on_c, 0, 69, 0
2, 177976, Note_on_c, 0, 60, 0
2, 178004, Note_on_c, 0, 53, 0
2, 178028, Control_c, 0, 64, 17
2, 178066, Control_c, 0, 64, 18
2, 178085, Control_c, 0, 64, 19
2, 178104, Control_c, 0, 64, 20
2, 178108, Note_on_c, 0, 53, 55
2, 178336, Note_on_c, 0, 60, 61
2, 178343, Note_on_c, 0, 55, 59
2, 178361, Note_on_c, 0, 53, 0
2, 178450, Control_c, 0, 64, 21
2, 178470, Control_c, 0, 64, 22
2, 178488, Control_c, 0, 64, 24
2, 178508, Control_c, 0, 64, 26
2, 178528, Control_c, 0, 64, 27
2, 178547, Control_c, 0, 64, 29
2, 178553, Note_on_c, 0, 56, 65
2, 178555, Note_on_c, 0, 55, 0
2, 178566, Control_c, 0, 64, 29
2, 178586, Control_c, 0, 64, 31
2, 178605, Control_c, 0, 64, 31
2, 178623, Control_c, 0, 64, 32
2, 178643, Control_c, 0, 64, 34
2, 178662, Control_c, 0, 64, 34
2, 178758, Control_c, 0, 64, 34
2, 178776, Note_on_c, 0, 56, 0
2, 178777, Control_c, 0, 64, 25
2, 178797, Control_c, 0, 64, 0
2, 178798, Note_on_c, 0, 58, 50
2, 178800, Note_on_c, 0, 61, 56
2, 178804, Note_on_c, 0, 60, 0
2, 178804, Note_on_c, 0, 67, 67
2, 178837, Note_on_c, 0, 68, 0
2, 178969, Control_c, 0, 64, 22
2, 178989, Control_c, 0, 64, 50
2, 179008, Control_c, 0, 64, 61
2, 179027, Control_c, 0, 64, 64
2, 179046, Control_c, 0, 64, 69
2, 179051, Note_on_c, 0, 61, 0
2, 179065, Control_c, 0, 64, 75
2, 179085, Control_c, 0, 64, 85
2, 179103, Control_c, 0, 64, 94
2, 179123, Control_c, 0, 64, 100
2, 179142, Control_c, 0, 64, 102
2, 179181, Note_on_c, 0, 58, 0
2, 179220, Note_on_c, 0, 60, 59
2, 179222, Control_c, 0, 64, 100
2, 179222, Note_on_c, 0, 52, 53
2, 179241, Control_c, 0, 64, 97
2, 179260, Control_c, 0, 64, 92
2, 179280, Control_c, 0, 64, 86
2, 179299, Control_c, 0, 64, 80
2, 179318, Control_c, 0, 64, 74
2, 179337, Control_c, 0, 64, 70
2, 179356, Control_c, 0, 64, 67
2, 179375, Control_c, 0, 64, 65
2, 179394, Control_c, 0, 64, 64
2, 179404, Note_on_c, 0, 52, 0
2, 179414, Control_c, 0, 64, 62
2, 179420, Note_on_c, 0, 58, 58
2, 179430, Note_on_c, 0, 50, 53
2, 179433, Control_c, 0, 64, 60
2, 179452, Control_c, 0, 64, 58
2, 179471, Control_c, 0, 64, 56
2, 179475, Note_on_c, 0, 60, 0
2, 179490, Control_c, 0, 64, 55
2, 179509, Control_c, 0, 64, 53
2, 179529, Control_c, 0, 64, 51
2, 179548, Control_c, 0, 64, 48
2, 179568, Control_c, 0, 64, 45
2, 179586, Control_c, 0, 64, 42
2, 179606, Control_c, 0, 64, 38
2, 179625, Control_c, 0, 64, 34
2, 179644, Control_c, 0, 64, 30
2, 179650, Note_on_c, 0, 50, 0
2, 179663, Control_c, 0, 64, 26
2, 179673, Note_on_c, 0, 60, 52
2, 179683, Control_c, 0, 64, 22
2, 179691, Note_on_c, 0, 52, 48
2, 179701, Note_on_c, 0, 58, 0
2, 179702, Control_c, 0, 64, 20
2, 179721, Control_c, 0, 64, 17
2, 179740, Control_c, 0, 64, 13
2, 179760, Control_c, 0, 64, 11
2, 180076, Note_on_c, 0, 56, 54
2, 180241, Note_on_c, 0, 52, 0
2, 180252, Note_on_c, 0, 56, 0
2, 180294, Note_on_c, 0, 55, 41
2, 180571, Note_on_c, 0, 53, 38
2, 180578, Note_on_c, 0, 56, 47
2, 180631, Note_on_c, 0, 55, 0
2, 180638, Note_on_c, 0, 67, 0
2, 181007, Control_c, 0, 64, 13
2, 181025, Note_on_c, 0, 65, 54
2, 181216, Note_on_c, 0, 67, 62
2, 181258, Note_on_c, 0, 65, 0
2, 181487, Control_c, 0, 64, 15
2, 181505, Control_c, 0, 64, 20
2, 181512, Note_on_c, 0, 68, 62
2, 181525, Control_c, 0, 64, 32
2, 181540, Note_on_c, 0, 67, 0
2, 181544, Control_c, 0, 64, 42
2, 181564, Control_c, 0, 64, 51
2, 181582, Control_c, 0, 64, 57
2, 181582, Note_on_c, 0, 56, 0
2, 181591, Note_on_c, 0, 53, 0
2, 181602, Control_c, 0, 64, 62
2, 181621, Control_c, 0, 64, 65
2, 181624, Note_on_c, 0, 60, 0
2, 181640, Control_c, 0, 64, 68
2, 181659, Control_c, 0, 64, 75
2, 181679, Control_c, 0, 64, 83
2, 181698, Control_c, 0, 64, 91
2, 181716, Control_c, 0, 64, 96
2, 181736, Control_c, 0, 64, 99
2, 181755, Control_c, 0, 64, 101
2, 181851, Control_c, 0, 64, 100
2, 181870, Control_c, 0, 64, 98
2, 181890, Control_c, 0, 64, 96
2, 181908, Control_c, 0, 64, 93
2, 181928, Control_c, 0, 64, 90
2, 181947, Control_c, 0, 64, 87
2, 181967, Control_c, 0, 64, 84
2, 181985, Control_c, 0, 64, 82
2, 181990, Note_on_c, 0, 53, 49
2, 182005, Control_c, 0, 64, 80
2, 182024, Control_c, 0, 64, 78
2, 182044, Control_c, 0, 64, 76
2, 182062, Control_c, 0, 64, 75
2, 182082, Control_c, 0, 64, 75
2, 182139, Control_c, 0, 64, 74
2, 182159, Control_c, 0, 64, 73
2, 182178, Control_c, 0, 64, 71
2, 182193, Note_on_c, 0, 51, 53
2, 182196, Control_c, 0, 64, 70
2, 182216, Control_c, 0, 64, 70
2, 182228, Note_on_c, 0, 53, 0
2, 182235, Control_c, 0, 64, 68
2, 182254, Control_c, 0, 64, 67
2, 182273, Control_c, 0, 64, 65
2, 182293, Control_c, 0, 64, 63
2, 182312, Control_c, 0, 64, 59
2, 182331, Control_c, 0, 64, 54
2, 182350, Control_c, 0, 64, 43
2, 182370, Control_c, 0, 64, 28
2, 182388, Control_c, 0, 64, 0
2, 182445, Note_on_c, 0, 50, 47
2, 182446, Note_on_c, 0, 51, 0
2, 182562, Control_c, 0, 64, 23
2, 182581, Control_c, 0, 64, 40
2, 182600, Control_c, 0, 64, 52
2, 182619, Control_c, 0, 64, 59
2, 182639, Control_c, 0, 64, 61
2, 182658, Control_c, 0, 64, 64
2, 182659, Note_on_c, 0, 50, 0
2, 182676, Control_c, 0, 64, 66
2, 182696, Control_c, 0, 64, 68
2, 182715, Control_c, 0, 64, 71
2, 182734, Control_c, 0, 64, 76
2, 182753, Control_c, 0, 64, 80
2, 182773, Control_c, 0, 64, 81
2, 182792, Control_c, 0, 64, 80
2, 182811, Control_c, 0, 64, 80
2, 182830, Control_c, 0, 64, 79
2, 182850, Control_c, 0, 64, 78
2, 182868, Control_c, 0, 64, 78
2, 182888, Control_c, 0, 64, 76
2, 182899, Note_on_c, 0, 50, 42
2, 182907, Control_c, 0, 64, 74
2, 182911, Note_on_c, 0, 65, 51
2, 182927, Control_c, 0, 64, 72
2, 182945, Control_c, 0, 64, 70
2, 182965, Control_c, 0, 64, 69
2, 182984, Control_c, 0, 64, 68
2, 183004, Control_c, 0, 64, 67
2, 183022, Control_c, 0, 64, 67
2, 183042, Control_c, 0, 64, 66
2, 183061, Control_c, 0, 64, 65
2, 183080, Control_c, 0, 64, 65
2, 183099, Control_c, 0, 64, 64
2, 183102, Note_on_c, 0, 48, 46
2, 183109, Note_on_c, 0, 50, 0
2, 183116, Note_on_c, 0, 63, 55
2, 183119, Control_c, 0, 64, 64
2, 183138, Control_c, 0, 64, 63
2, 183156, Control_c, 0, 64, 63
2, 183162, Note_on_c, 0, 65, 0
2, 183176, Control_c, 0, 64, 62
2, 183195, Control_c, 0, 64, 61
2, 183214, Control_c, 0, 64, 59
2, 183233, Control_c, 0, 64, 58
2, 183253, Control_c, 0, 64, 57
2, 183272, Control_c, 0, 64, 56
2, 183291, Control_c, 0, 64, 54
2, 183310, Control_c, 0, 64, 52
2, 183328, Note_on_c, 0, 48, 0
2, 183331, Control_c, 0, 64, 45
2, 183332, Note_on_c, 0, 63, 0
2, 183349, Control_c, 0, 64, 38
2, 183357, Note_on_c, 0, 62, 51
2, 183361, Note_on_c, 0, 46, 44
2, 183369, Control_c, 0, 64, 29
2, 183388, Control_c, 0, 64, 23
2, 183408, Control_c, 0, 64, 21
2, 183465, Control_c, 0, 64, 29
2, 183484, Control_c, 0, 64, 39
2, 183503, Control_c, 0, 64, 49
2, 183523, Control_c, 0, 64, 55
2, 183542, Control_c, 0, 64, 58
2, 183561, Control_c, 0, 64, 60
2, 183580, Control_c, 0, 64, 62
2, 183600, Control_c, 0, 64, 63
2, 183619, Control_c, 0, 64, 65
2, 183637, Control_c, 0, 64, 66
2, 183649, Note_on_c, 0, 62, 0
2, 183657, Control_c, 0, 64, 68
2, 183676, Control_c, 0, 64, 69
2, 183695, Control_c, 0, 64, 70
2, 183706, Note_on_c, 0, 46, 0
2, 183734, Control_c, 0, 64, 69
2, 183753, Control_c, 0, 64, 69
2, 183772, Control_c, 0, 64, 68
2, 183791, Control_c, 0, 64, 67
2, 183797, Note_on_c, 0, 48, 49
2, 183811, Control_c, 0, 64, 67
2, 183817, Note_on_c, 0, 62, 58
2, 183829, Control_c, 0, 64, 66
2, 183849, Control_c, 0, 64, 65
2, 183868, Control_c, 0, 64, 64
2, 183888, Control_c, 0, 64, 64
2, 183906, Control_c, 0, 64, 63
2, 183926, Control_c, 0, 64, 63
2, 183945, Control_c, 0, 64, 62
2, 183964, Control_c, 0, 64, 62
2, 183983, Control_c, 0, 64, 61
2, 183988, Note_on_c, 0, 48, 0
2, 184003, Control_c, 0, 64, 60
2, 184007, Note_on_c, 0, 60, 61
2, 184011, Note_on_c, 0, 62, 0
2, 184020, Note_on_c, 0, 50, 55
2, 184022, Control_c, 0, 64, 60
2, 184041, Control_c, 0, 64, 59
2, 184060, Control_c, 0, 64, 59
2, 184080, Control_c, 0, 64, 58
2, 184099, Control_c, 0, 64, 57
2, 184117, Control_c, 0, 64, 57
2, 184137, Control_c, 0, 64, 56
2, 184156, Control_c, 0, 64, 54
2, 184175, Control_c, 0, 64, 50
2, 184194, Control_c, 0, 64, 36
2, 184214, Control_c, 0, 64, 0
2, 184229, Note_on_c, 0, 60, 0
2, 184249, Note_on_c, 0, 50, 0
2, 184252, Note_on_c, 0, 58, 61
2, 184265, Note_on_c, 0, 51, 53
2, 184386, Control_c, 0, 64, 46
2, 184406, Control_c, 0, 64, 59
2, 184425, Control_c, 0, 64, 63
2, 184437, Note_on_c, 0, 58, 0
2, 184444, Control_c, 0, 64, 65
2, 184463, Control_c, 0, 64, 69
2, 184483, Control_c, 0, 64, 76
2, 184501, Note_on_c, 0, 68, 0
2, 184502, Control_c, 0, 64, 91
2, 184521, Control_c, 0, 64, 113
2, 184540, Control_c, 0, 64, 127
2, 184713, Control_c, 0, 64, 117
2, 184713, Note_on_c, 0, 67, 67
2, 184719, Note_on_c, 0, 58, 51
2, 184732, Control_c, 0, 64, 101
2, 184751, Control_c, 0, 64, 92
2, 184771, Control_c, 0, 64, 85
2, 184789, Control_c, 0, 64, 81
2, 184809, Control_c, 0, 64, 79
2, 184828, Control_c, 0, 64, 78
2, 184848, Control_c, 0, 64, 77
2, 184866, Control_c, 0, 64, 76
2, 184886, Control_c, 0, 64, 74
2, 184896, Note_on_c, 0, 58, 0
2, 184903, Note_on_c, 0, 68, 79
2, 184905, Control_c, 0, 64, 73
2, 184924, Control_c, 0, 64, 71
2, 184930, Note_on_c, 0, 56, 54
2, 184943, Control_c, 0, 64, 69
2, 184963, Control_c, 0, 64, 67
2, 184982, Control_c, 0, 64, 66
2, 185001, Control_c, 0, 64, 65
2, 185020, Control_c, 0, 64, 64
2, 185040, Control_c, 0, 64, 63
2, 185059, Control_c, 0, 64, 63
2, 185077, Control_c, 0, 64, 62
2, 185097, Control_c, 0, 64, 61
2, 185116, Control_c, 0, 64, 60
2, 185124, Note_on_c, 0, 51, 0
2, 185129, Note_on_c, 0, 67, 0
2, 185135, Control_c, 0, 64, 59
2, 185154, Control_c, 0, 64, 58
2, 185174, Control_c, 0, 64, 56
2, 185191, Note_on_c, 0, 56, 0
2, 185193, Control_c, 0, 64, 54
2, 185194, Note_on_c, 0, 70, 72
2, 185212, Control_c, 0, 64, 47
2, 185221, Note_on_c, 0, 55, 49
2, 185231, Control_c, 0, 64, 30
2, 185247, Control_c, 0, 64, 0
2, 185267, Note_on_c, 0, 68, 0
2, 185422, Control_c, 0, 64, 31
2, 185442, Control_c, 0, 64, 49
2, 185461, Control_c, 0, 64, 58
2, 185480, Control_c, 0, 64, 62
2, 185499, Control_c, 0, 64, 64
2, 185500, Note_on_c, 0, 55, 0
2, 185519, Control_c, 0, 64, 66
2, 185538, Control_c, 0, 64, 67
2, 185556, Control_c, 0, 64, 68
2, 185576, Control_c, 0, 64, 69
2, 185614, Control_c, 0, 64, 68
2, 185633, Control_c, 0, 64, 67
2, 185653, Control_c, 0, 64, 67
2, 185672, Control_c, 0, 64, 66
2, 185686, Note_on_c, 0, 55, 54
2, 185691, Control_c, 0, 64, 65
2, 185710, Control_c, 0, 64, 65
2, 185730, Control_c, 0, 64, 64
2, 185748, Control_c, 0, 64, 64
2, 185768, Control_c, 0, 64, 63
2, 185787, Control_c, 0, 64, 62
2, 185807, Control_c, 0, 64, 61
2, 185825, Control_c, 0, 64, 61
2, 185864, Control_c, 0, 64, 60
2, 185894, Note_on_c, 0, 53, 57
2, 185902, Control_c, 0, 64, 60
2, 185922, Control_c, 0, 64, 59
2, 185941, Control_c, 0, 64, 59
2, 185952, Note_on_c, 0, 55, 0
2, 185960, Control_c, 0, 64, 58
2, 185979, Control_c, 0, 64, 57
2, 185999, Control_c, 0, 64, 57
2, 186018, Control_c, 0, 64, 56
2, 186036, Control_c, 0, 64, 55
2, 186056, Control_c, 0, 64, 53
2, 186075, Control_c, 0, 64, 45
2, 186094, Control_c, 0, 64, 27
2, 186113, Control_c, 0, 64, 0
2, 186127, Note_on_c, 0, 52, 60
2, 186139, Note_on_c, 0, 53, 0
2, 186267, Control_c, 0, 64, 38
2, 186287, Control_c, 0, 64, 54
2, 186305, Control_c, 0, 64, 60
2, 186325, Control_c, 0, 64, 63
2, 186344, Control_c, 0, 64, 64
2, 186364, Control_c, 0, 64, 67
2, 186380, Note_on_c, 0, 52, 0
2, 186382, Control_c, 0, 64, 71
2, 186402, Control_c, 0, 64, 78
2, 186421, Control_c, 0, 64, 84
2, 186440, Control_c, 0, 64, 85
2, 186479, Control_c, 0, 64, 84
2, 186498, Control_c, 0, 64, 83
2, 186516, Control_c, 0, 64, 82
2, 186536, Control_c, 0, 64, 80
2, 186555, Control_c, 0, 64, 77
2, 186559, Note_on_c, 0, 52, 49
2, 186571, Note_on_c, 0, 67, 60
2, 186574, Control_c, 0, 64, 74
2, 186593, Control_c, 0, 64, 71
2, 186613, Control_c, 0, 64, 68
2, 186632, Control_c, 0, 64, 66
2, 186651, Control_c, 0, 64, 65
2, 186670, Control_c, 0, 64, 65
2, 186690, Control_c, 0, 64, 64
2, 186708, Control_c, 0, 64, 64
2, 186728, Control_c, 0, 64, 62
2, 186747, Control_c, 0, 64, 61
2, 186767, Control_c, 0, 64, 58
2, 186771, Note_on_c, 0, 50, 51
2, 186778, Note_on_c, 0, 65, 60
2, 186785, Control_c, 0, 64, 56
2, 186795, Note_on_c, 0, 52, 0
2, 186805, Control_c, 0, 64, 54
2, 186812, Note_on_c, 0, 67, 0
2, 186824, Control_c, 0, 64, 50
2, 186844, Control_c, 0, 64, 46
2, 186862, Control_c, 0, 64, 40
2, 186882, Control_c, 0, 64, 34
2, 186901, Control_c, 0, 64, 26
2, 186920, Control_c, 0, 64, 17
2, 186939, Control_c, 0, 64, 0
2, 186982, Note_on_c, 0, 65, 0
2, 186989, Note_on_c, 0, 50, 0
2, 187017, Note_on_c, 0, 64, 60
2, 187023, Note_on_c, 0, 48, 45
2, 187073, Control_c, 0, 64, 20
2, 187093, Control_c, 0, 64, 40
2, 187112, Control_c, 0, 64, 53
2, 187131, Control_c, 0, 64, 60
2, 187150, Control_c, 0, 64, 63
2, 187169, Control_c, 0, 64, 66
2, 187189, Control_c, 0, 64, 69
2, 187209, Control_c, 0, 64, 75
2, 187228, Control_c, 0, 64, 83
2, 187248, Control_c, 0, 64, 90
2, 187266, Control_c, 0, 64, 92
2, 187319, Note_on_c, 0, 64, 0
2, 187343, Control_c, 0, 64, 92
2, 187363, Control_c, 0, 64, 91
2, 187382, Control_c, 0, 64, 90
2, 187401, Control_c, 0, 64, 87
2, 187417, Note_on_c, 0, 48, 0
2, 187420, Control_c, 0, 64, 80
2, 187440, Control_c, 0, 64, 70
2, 187444, Note_on_c, 0, 50, 56
2, 187456, Note_on_c, 0, 64, 56
2, 187459, Control_c, 0, 64, 63
2, 187465, Note_on_c, 0, 70, 0
2, 187477, Control_c, 0, 64, 51
2, 187497, Control_c, 0, 64, 27
2, 187516, Control_c, 0, 64, 19
2, 187535, Control_c, 0, 64, 31
2, 187554, Control_c, 0, 64, 44
2, 187574, Control_c, 0, 64, 55
2, 187593, Control_c, 0, 64, 59
2, 187612, Control_c, 0, 64, 61
2, 187622, Note_on_c, 0, 50, 0
2, 187631, Control_c, 0, 64, 63
2, 187651, Control_c, 0, 64, 64
2, 187662, Note_on_c, 0, 62, 59
2, 187665, Note_on_c, 0, 52, 60
2, 187669, Control_c, 0, 64, 65
2, 187689, Control_c, 0, 64, 67
2, 187708, Control_c, 0, 64, 69
2, 187728, Control_c, 0, 64, 71
2, 187746, Control_c, 0, 64, 70
2, 187766, Control_c, 0, 64, 69
2, 187785, Control_c, 0, 64, 67
2, 187797, Note_on_c, 0, 64, 0
2, 187804, Control_c, 0, 64, 63
2, 187817, Note_on_c, 0, 62, 0
2, 187823, Control_c, 0, 64, 57
2, 187843, Control_c, 0, 64, 46
2, 187862, Control_c, 0, 64, 36
2, 187876, Note_on_c, 0, 53, 67
2, 187876, Note_on_c, 0, 60, 65
2, 187881, Control_c, 0, 64, 43
2, 187882, Note_on_c, 0, 52, 0
2, 187900, Control_c, 0, 64, 54
2, 187920, Control_c, 0, 64, 60
2, 187939, Control_c, 0, 64, 63
2, 187957, Control_c, 0, 64, 67
2, 187977, Control_c, 0, 64, 72
2, 187996, Control_c, 0, 64, 86
2, 188010, Note_on_c, 0, 60, 0
2, 188015, Control_c, 0, 64, 104
2, 188034, Control_c, 0, 64, 127
2, 188060, Note_on_c, 0, 67, 71
2, 188268, Note_on_c, 0, 68, 81
2, 188281, Note_on_c, 0, 60, 67
2, 188284, Control_c, 0, 64, 94
2, 188302, Control_c, 0, 64, 76
2, 188322, Control_c, 0, 64, 63
2, 188326, Note_on_c, 0, 67, 0
2, 188341, Control_c, 0, 64, 29
2, 188360, Control_c, 0, 64, 0
2, 188436, Control_c, 0, 64, 41
2, 188456, Control_c, 0, 64, 59
2, 188464, Note_on_c, 0, 68, 0
2, 188464, Note_on_c, 0, 72, 84
2, 188475, Control_c, 0, 64, 66
2, 188486, Note_on_c, 0, 58, 71
2, 188494, Control_c, 0, 64, 73
2, 188513, Control_c, 0, 64, 87
2, 188525, Note_on_c, 0, 60, 0
2, 188533, Control_c, 0, 64, 115
2, 188552, Control_c, 0, 64, 127
2, 188567, Note_on_c, 0, 53, 0
2, 188583, Note_on_c, 0, 58, 0
2, 188779, Note_on_c, 0, 77, 83
2, 188800, Note_on_c, 0, 56, 63
2, 188802, Control_c, 0, 64, 110
2, 188821, Control_c, 0, 64, 85
2, 188840, Control_c, 0, 64, 73
2, 188857, Note_on_c, 0, 72, 0
2, 188859, Control_c, 0, 64, 64
2, 188878, Control_c, 0, 64, 53
2, 188898, Control_c, 0, 64, 33
2, 188916, Control_c, 0, 64, 21
2, 188936, Control_c, 0, 64, 20
2, 188955, Control_c, 0, 64, 18
2, 188974, Control_c, 0, 64, 15
2, 188993, Control_c, 0, 64, 9
2, 189013, Control_c, 0, 64, 0
2, 189243, Note_on_c, 0, 50, 56
2, 189445, Note_on_c, 0, 48, 60
2, 189462, Note_on_c, 0, 50, 0
2, 189658, Note_on_c, 0, 48, 0
2, 189698, Note_on_c, 0, 47, 59
2, 189817, Control_c, 0, 64, 27
2, 189836, Control_c, 0, 64, 56
2, 189856, Control_c, 0, 64, 64
2, 189874, Control_c, 0, 64, 67
2, 189894, Control_c, 0, 64, 70
2, 189900, Note_on_c, 0, 47, 0
2, 189913, Control_c, 0, 64, 76
2, 189933, Control_c, 0, 64, 85
2, 189951, Control_c, 0, 64, 93
2, 189971, Control_c, 0, 64, 99
2, 189972, Note_on_c, 0, 56, 0
2, 189990, Control_c, 0, 64, 102
2, 190009, Control_c, 0, 64, 103
2, 190048, Control_c, 0, 64, 102
2, 190067, Control_c, 0, 64, 101
2, 190086, Control_c, 0, 64, 99
2, 190105, Control_c, 0, 64, 95
2, 190125, Control_c, 0, 64, 89
2, 190144, Control_c, 0, 64, 79
2, 190163, Control_c, 0, 64, 70
2, 190167, Note_on_c, 0, 47, 49
2, 190171, Note_on_c, 0, 74, 55
2, 190182, Control_c, 0, 64, 63
2, 190202, Control_c, 0, 64, 51
2, 190220, Control_c, 0, 64, 40
2, 190240, Control_c, 0, 64, 39
2, 190259, Control_c, 0, 64, 46
2, 190278, Control_c, 0, 64, 52
2, 190297, Control_c, 0, 64, 55
2, 190316, Control_c, 0, 64, 57
2, 190336, Control_c, 0, 64, 59
2, 190354, Control_c, 0, 64, 59
2, 190362, Note_on_c, 0, 72, 62
2, 190365, Note_on_c, 0, 47, 0
2, 190368, Note_on_c, 0, 45, 51
2, 190374, Control_c, 0, 64, 60
2, 190397, Note_on_c, 0, 74, 0
2, 190413, Control_c, 0, 64, 59
2, 190431, Control_c, 0, 64, 59
2, 190451, Control_c, 0, 64, 58
2, 190470, Control_c, 0, 64, 57
2, 190489, Control_c, 0, 64, 55
2, 190508, Control_c, 0, 64, 52
2, 190528, Control_c, 0, 64, 47
2, 190547, Control_c, 0, 64, 40
2, 190566, Control_c, 0, 64, 31
2, 190568, Note_on_c, 0, 72, 0
2, 190584, Note_on_c, 0, 45, 0
2, 190585, Control_c, 0, 64, 0
2, 190607, Note_on_c, 0, 71, 55
2, 190626, Note_on_c, 0, 43, 45
2, 190700, Control_c, 0, 64, 28
2, 190720, Control_c, 0, 64, 50
2, 190739, Control_c, 0, 64, 60
2, 190758, Control_c, 0, 64, 62
2, 190777, Control_c, 0, 64, 65
2, 190796, Control_c, 0, 64, 68
2, 190816, Control_c, 0, 64, 74
2, 190834, Control_c, 0, 64, 84
2, 190854, Control_c, 0, 64, 94
2, 190860, Note_on_c, 0, 71, 0
2, 190873, Control_c, 0, 64, 100
2, 190893, Control_c, 0, 64, 101
2, 190988, Control_c, 0, 64, 99
2, 191008, Control_c, 0, 64, 93
2, 191027, Control_c, 0, 64, 82
2, 191043, Note_on_c, 0, 43, 0
2, 191046, Control_c, 0, 64, 70
2, 191046, Note_on_c, 0, 71, 56
2, 191050, Note_on_c, 0, 45, 53
2, 191065, Control_c, 0, 64, 62
2, 191085, Control_c, 0, 64, 49
2, 191104, Control_c, 0, 64, 36
2, 191123, Control_c, 0, 64, 28
2, 191142, Control_c, 0, 64, 29
2, 191162, Control_c, 0, 64, 32
2, 191168, Note_on_c, 0, 77, 0
2, 191180, Control_c, 0, 64, 36
2, 191200, Control_c, 0, 64, 38
2, 191219, Control_c, 0, 64, 39
2, 191232, Note_on_c, 0, 45, 0
2, 191250, Note_on_c, 0, 69, 57
2, 191254, Control_c, 0, 64, 39
2, 191260, Note_on_c, 0, 47, 49
2, 191283, Note_on_c, 0, 71, 0
2, 191472, Note_on_c, 0, 47, 0
2, 191475, Note_on_c, 0, 69, 0
2, 191485, Control_c, 0, 64, 39
2, 191498, Note_on_c, 0, 48, 54
2, 191501, Note_on_c, 0, 67, 57
2, 191542, Control_c, 0, 64, 38
2, 191639, Control_c, 0, 64, 41
2, 191657, Control_c, 0, 64, 46
2, 191677, Control_c, 0, 64, 52
2, 191696, Control_c, 0, 64, 57
2, 191716, Control_c, 0, 64, 61
2, 191734, Control_c, 0, 64, 63
2, 191754, Control_c, 0, 64, 66
2, 191773, Control_c, 0, 64, 71
2, 191773, Note_on_c, 0, 67, 0
2, 191792, Control_c, 0, 64, 81
2, 191811, Control_c, 0, 64, 101
2, 191831, Control_c, 0, 64, 127
2, 191916, Note_on_c, 0, 48, 0
2, 191924, Note_on_c, 0, 75, 79
2, 191930, Note_on_c, 0, 67, 62
2, 192118, Note_on_c, 0, 75, 0
2, 192128, Note_on_c, 0, 69, 82
2, 192160, Note_on_c, 0, 67, 0
2, 192410, Note_on_c, 0, 69, 0
2, 192413, Note_on_c, 0, 74, 71
2, 192415, Note_on_c, 0, 71, 70
2, 192421, Note_on_c, 0, 55, 77
2, 192425, Control_c, 0, 64, 98
2, 192445, Control_c, 0, 64, 75
2, 192464, Control_c, 0, 64, 62
2, 192483, Control_c, 0, 64, 0
2, 192601, Note_on_c, 0, 74, 0
2, 192614, Note_on_c, 0, 71, 0
2, 192637, Control_c, 0, 64, 20
2, 192656, Control_c, 0, 64, 43
2, 192676, Control_c, 0, 64, 56
2, 192694, Control_c, 0, 64, 60
2, 192714, Control_c, 0, 64, 62
2, 192733, Control_c, 0, 64, 64
2, 192752, Control_c, 0, 64, 68
2, 192771, Control_c, 0, 64, 74
2, 192791, Control_c, 0, 64, 85
2, 192810, Control_c, 0, 64, 107
2, 192829, Control_c, 0, 64, 127
2, 192864, Note_on_c, 0, 79, 75
2, 192881, Note_on_c, 0, 69, 65
2, 192995, Note_on_c, 0, 69, 0
2, 193087, Note_on_c, 0, 71, 76
2, 193145, Note_on_c, 0, 71, 0
2, 193322, Note_on_c, 0, 56, 79
2, 193331, Note_on_c, 0, 72, 72
2, 193350, Control_c, 0, 64, 100
2, 193368, Control_c, 0, 64, 78
2, 193387, Control_c, 0, 64, 66
2, 193406, Note_on_c, 0, 55, 0
2, 193407, Control_c, 0, 64, 51
2, 193426, Control_c, 0, 64, 0
2, 193520, Note_on_c, 0, 72, 0
2, 193541, Note_on_c, 0, 71, 69
2, 193695, Control_c, 0, 64, 24
2, 193714, Control_c, 0, 64, 47
2, 193733, Control_c, 0, 64, 60
2, 193741, Note_on_c, 0, 72, 74
2, 193753, Control_c, 0, 64, 65
2, 193771, Control_c, 0, 64, 70
2, 193791, Control_c, 0, 64, 80
2, 193800, Note_on_c, 0, 71, 0
2, 193810, Control_c, 0, 64, 97
2, 193830, Control_c, 0, 64, 127
2, 193882, Note_on_c, 0, 79, 0
2, 193906, Note_on_c, 0, 56, 0
2, 193933, Note_on_c, 0, 74, 77
2, 194174, Control_c, 0, 64, 117
2, 194180, Note_on_c, 0, 75, 77
2, 194181, Note_on_c, 0, 55, 76
2, 194193, Control_c, 0, 64, 89
2, 194212, Control_c, 0, 64, 73
2, 194232, Control_c, 0, 64, 63
2, 194238, Note_on_c, 0, 74, 0
2, 194251, Control_c, 0, 64, 34
2, 194270, Control_c, 0, 64, 0
2, 194596, Control_c, 0, 64, 43
2, 194615, Control_c, 0, 64, 58
2, 194627, Note_on_c, 0, 72, 0
2, 194631, Note_on_c, 0, 70, 72
2, 194635, Control_c, 0, 64, 63
2, 194654, Control_c, 0, 64, 66
2, 194673, Control_c, 0, 64, 68
2, 194692, Control_c, 0, 64, 73
2, 194712, Control_c, 0, 64, 84
2, 194731, Control_c, 0, 64, 104
2, 194750, Control_c, 0, 64, 127
2, 194926, Note_on_c, 0, 70, 0
2, 195000, Note_on_c, 0, 55, 0
2, 195057, Control_c, 0, 64, 113
2, 195076, Control_c, 0, 64, 101
2, 195090, Note_on_c, 0, 54, 66
2, 195095, Control_c, 0, 64, 90
2, 195103, Note_on_c, 0, 69, 62
2, 195115, Control_c, 0, 64, 79
2, 195134, Control_c, 0, 64, 70
2, 195153, Control_c, 0, 64, 60
2, 195172, Control_c, 0, 64, 35
2, 195192, Control_c, 0, 64, 0
2, 195307, Note_on_c, 0, 72, 73
2, 195326, Control_c, 0, 64, 43
2, 195337, Note_on_c, 0, 69, 0
2, 195343, Note_on_c, 0, 75, 0
2, 195345, Control_c, 0, 64, 59
2, 195364, Control_c, 0, 64, 63
2, 195383, Control_c, 0, 64, 65
2, 195403, Control_c, 0, 64, 67
2, 195421, Control_c, 0, 64, 73
2, 195441, Control_c, 0, 64, 83
2, 195460, Control_c, 0, 64, 96
2, 195466, Note_on_c, 0, 54, 0
2, 195480, Control_c, 0, 64, 103
2, 195498, Control_c, 0, 64, 104
2, 195518, Control_c, 0, 64, 105
2, 195518, Note_on_c, 0, 74, 76
2, 195523, Note_on_c, 0, 71, 71
2, 195537, Control_c, 0, 64, 107
2, 195541, Note_on_c, 0, 72, 0
2, 195556, Control_c, 0, 64, 112
2, 195575, Control_c, 0, 64, 117
2, 195595, Control_c, 0, 64, 119
2, 195614, Control_c, 0, 64, 121
2, 195707, Note_on_c, 0, 72, 77
2, 195711, Note_on_c, 0, 75, 80
2, 195719, Note_on_c, 0, 71, 0
2, 195748, Control_c, 0, 64, 123
2, 195764, Note_on_c, 0, 74, 0
2, 195825, Control_c, 0, 64, 121
2, 195844, Control_c, 0, 64, 118
2, 195863, Control_c, 0, 64, 110
2, 195883, Control_c, 0, 64, 101
2, 195901, Control_c, 0, 64, 91
2, 195921, Control_c, 0, 64, 79
2, 195931, Note_on_c, 0, 59, 79
2, 195931, Note_on_c, 0, 74, 68
2, 195934, Note_on_c, 0, 77, 77
2, 195940, Control_c, 0, 64, 68
2, 195960, Control_c, 0, 64, 51
2, 195961, Note_on_c, 0, 72, 0
2, 195978, Control_c, 0, 64, 0
2, 196058, Note_on_c, 0, 75, 0
2, 196161, Note_on_c, 0, 72, 75
2, 196208, Note_on_c, 0, 74, 0
2, 196228, Control_c, 0, 64, 23
2, 196247, Control_c, 0, 64, 50
2, 196266, Control_c, 0, 64, 58
2, 196286, Control_c, 0, 64, 61
2, 196305, Control_c, 0, 64, 62
2, 196324, Control_c, 0, 64, 64
2, 196340, Note_on_c, 0, 72, 0
2, 196343, Control_c, 0, 64, 66
2, 196359, Note_on_c, 0, 71, 70
2, 196363, Control_c, 0, 64, 69
2, 196381, Control_c, 0, 64, 76
2, 196382, Note_on_c, 0, 59, 0
2, 196401, Control_c, 0, 64, 85
2, 196420, Control_c, 0, 64, 94
2, 196440, Control_c, 0, 64, 106
2, 196458, Control_c, 0, 64, 127
2, 196565, Note_on_c, 0, 69, 75
2, 196607, Note_on_c, 0, 71, 0
2, 196648, Note_on_c, 0, 69, 0
2, 196656, Note_on_c, 0, 77, 0
2, 196799, Note_on_c, 0, 60, 75
2, 196801, Note_on_c, 0, 67, 71
2, 196824, Control_c, 0, 64, 100
2, 196844, Control_c, 0, 64, 82
2, 196862, Control_c, 0, 64, 70
2, 196882, Control_c, 0, 64, 59
2, 196901, Control_c, 0, 64, 0
2, 197003, Note_on_c, 0, 75, 80
2, 197055, Control_c, 0, 64, 37
2, 197074, Control_c, 0, 64, 57
2, 197093, Control_c, 0, 64, 63
2, 197113, Control_c, 0, 64, 66
2, 197131, Control_c, 0, 64, 70
2, 197151, Control_c, 0, 64, 77
2, 197168, Note_on_c, 0, 67, 0
2, 197170, Control_c, 0, 64, 91
2, 197190, Control_c, 0, 64, 127
2, 197206, Note_on_c, 0, 77, 84
2, 197392, Note_on_c, 0, 79, 89
2, 197467, Note_on_c, 0, 75, 0
2, 197611, Control_c, 0, 64, 103
2, 197631, Control_c, 0, 64, 82
2, 197639, Note_on_c, 0, 80, 87
2, 197646, Note_on_c, 0, 53, 69
2, 197649, Note_on_c, 0, 60, 0
2, 197650, Control_c, 0, 64, 69
2, 197651, Note_on_c, 0, 77, 0
2, 197670, Control_c, 0, 64, 58
2, 197683, Note_on_c, 0, 79, 0
2, 197688, Control_c, 0, 64, 0
2, 197854, Note_on_c, 0, 65, 60
2, 197861, Control_c, 0, 64, 41
2, 197881, Control_c, 0, 64, 57
2, 197899, Control_c, 0, 64, 63
2, 197919, Control_c, 0, 64, 64
2, 197938, Control_c, 0, 64, 66
2, 197940, Note_on_c, 0, 80, 0
2, 197957, Control_c, 0, 64, 69
2, 197976, Control_c, 0, 64, 78
2, 197996, Control_c, 0, 64, 93
2, 197997, Note_on_c, 0, 65, 0
2, 198015, Control_c, 0, 64, 116
2, 198034, Control_c, 0, 64, 127
2, 198061, Note_on_c, 0, 63, 72
2, 198223, Note_on_c, 0, 53, 0
2, 198255, Note_on_c, 0, 63, 0
2, 198260, Note_on_c, 0, 62, 70
2, 198438, Note_on_c, 0, 62, 0
2, 198487, Note_on_c, 0, 60, 77
2, 198491, Note_on_c, 0, 52, 65
2, 198495, Control_c, 0, 64, 97
2, 198514, Control_c, 0, 64, 78
2, 198533, Control_c, 0, 64, 66
2, 198553, Control_c, 0, 64, 45
2, 198571, Control_c, 0, 64, 0
2, 198696, Note_on_c, 0, 79, 84
2, 198706, Control_c, 0, 64, 20
2, 198726, Control_c, 0, 64, 52
2, 198745, Control_c, 0, 64, 61
2, 198765, Control_c, 0, 64, 64
2, 198783, Control_c, 0, 64, 66
2, 198803, Control_c, 0, 64, 70
2, 198822, Control_c, 0, 64, 79
2, 198841, Control_c, 0, 64, 97
2, 198860, Control_c, 0, 64, 127
2, 198866, Note_on_c, 0, 52, 0
2, 198902, Note_on_c, 0, 81, 90
2, 199095, Note_on_c, 0, 83, 94
2, 199116, Note_on_c, 0, 79, 0
2, 199154, Note_on_c, 0, 81, 0
2, 199321, Control_c, 0, 64, 104
2, 199340, Control_c, 0, 64, 80
2, 199340, Note_on_c, 0, 84, 92
2, 199346, Note_on_c, 0, 51, 71
2, 199360, Control_c, 0, 64, 65
2, 199365, Note_on_c, 0, 83, 0
2, 199379, Control_c, 0, 64, 35
2, 199398, Control_c, 0, 64, 0
2, 199462, Note_on_c, 0, 60, 0
2, 199547, Note_on_c, 0, 72, 76
2, 199552, Control_c, 0, 64, 29
2, 199571, Control_c, 0, 64, 50
2, 199591, Control_c, 0, 64, 59
2, 199609, Control_c, 0, 64, 63
2, 199628, Control_c, 0, 64, 66
2, 199631, Note_on_c, 0, 72, 0
2, 199648, Control_c, 0, 64, 69
2, 199665, Control_c, 0, 64, 77
2, 199684, Control_c, 0, 64, 96
2, 199703, Control_c, 0, 64, 127
2, 199754, Note_on_c, 0, 74, 80
2, 199957, Note_on_c, 0, 75, 86
2, 200003, Note_on_c, 0, 74, 0
2, 200221, Control_c, 0, 64, 101
2, 200241, Control_c, 0, 64, 86
2, 200244, Note_on_c, 0, 50, 63
2, 200244, Note_on_c, 0, 77, 81
2, 200260, Control_c, 0, 64, 77
2, 200275, Note_on_c, 0, 75, 0
2, 200280, Control_c, 0, 64, 69
2, 200298, Control_c, 0, 64, 64
2, 200299, Note_on_c, 0, 51, 0
2, 200318, Control_c, 0, 64, 56
2, 200337, Control_c, 0, 64, 44
2, 200356, Control_c, 0, 64, 24
2, 200375, Control_c, 0, 64, 0
2, 200662, Note_on_c, 0, 83, 78
2, 200716, Note_on_c, 0, 84, 0
2, 200864, Note_on_c, 0, 81, 83
2, 200925, Note_on_c, 0, 83, 0
2, 201163, Note_on_c, 0, 83, 76
2, 201192, Note_on_c, 0, 81, 0
2, 201489, Control_c, 0, 64, 18
2, 201508, Control_c, 0, 64, 34
2, 201527, Control_c, 0, 64, 46
2, 201546, Control_c, 0, 64, 54
2, 201567, Control_c, 0, 64, 58
2, 201581, Note_on_c, 0, 77, 0
2, 201586, Control_c, 0, 64, 61
2, 201605, Control_c, 0, 64, 62
2, 201611, Note_on_c, 0, 75, 56
2, 201624, Control_c, 0, 64, 64
2, 201644, Control_c, 0, 64, 65
2, 201662, Control_c, 0, 64, 67
2, 201682, Control_c, 0, 64, 70
2, 201701, Control_c, 0, 64, 74
2, 201721, Control_c, 0, 64, 79
2, 201739, Control_c, 0, 64, 83
2, 201759, Control_c, 0, 64, 86
2, 201770, Note_on_c, 0, 75, 0
2, 201772, Note_on_c, 0, 83, 0
2, 201778, Control_c, 0, 64, 88
2, 201797, Control_c, 0, 64, 90
2, 201798, Note_on_c, 0, 74, 55
2, 201816, Control_c, 0, 64, 91
2, 201836, Control_c, 0, 64, 91
2, 201866, Note_on_c, 0, 74, 0
2, 201896, Note_on_c, 0, 50, 0
2, 201931, Control_c, 0, 64, 91
2, 201951, Control_c, 0, 64, 90
2, 201970, Control_c, 0, 64, 88
2, 201989, Control_c, 0, 64, 87
2, 202008, Control_c, 0, 64, 85
2, 202027, Control_c, 0, 64, 82
2, 202047, Control_c, 0, 64, 78
2, 202066, Control_c, 0, 64, 73
2, 202085, Control_c, 0, 64, 67
2, 202104, Control_c, 0, 64, 60
2, 202108, Note_on_c, 0, 84, 64
2, 202118, Note_on_c, 0, 48, 41
2, 202120, Note_on_c, 0, 75, 48
2, 202124, Control_c, 0, 64, 39
2, 202142, Control_c, 0, 64, 0
2, 202219, Control_c, 0, 64, 31
2, 202239, Control_c, 0, 64, 55
2, 202258, Control_c, 0, 64, 64
2, 202265, Note_on_c, 0, 84, 0
2, 202277, Control_c, 0, 64, 68
2, 202289, Note_on_c, 0, 48, 0
2, 202291, Note_on_c, 0, 75, 0
2, 202296, Control_c, 0, 64, 74
2, 202316, Control_c, 0, 64, 82
2, 202335, Control_c, 0, 64, 91
2, 202354, Control_c, 0, 64, 97
2, 202373, Control_c, 0, 64, 101
2, 202450, Control_c, 0, 64, 100
2, 202469, Control_c, 0, 64, 99
2, 202488, Control_c, 0, 64, 97
2, 202507, Control_c, 0, 64, 94
2, 202527, Control_c, 0, 64, 90
2, 202546, Control_c, 0, 64, 85
2, 202565, Control_c, 0, 64, 80
2, 202572, Note_on_c, 0, 79, 55
2, 202584, Control_c, 0, 64, 76
2, 202586, Note_on_c, 0, 72, 51
2, 202604, Control_c, 0, 64, 73
2, 202622, Control_c, 0, 64, 70
2, 202642, Control_c, 0, 64, 68
2, 202661, Control_c, 0, 64, 65
2, 202681, Control_c, 0, 64, 63
2, 202699, Control_c, 0, 64, 61
2, 202719, Control_c, 0, 64, 59
2, 202738, Control_c, 0, 64, 58
2, 202751, Note_on_c, 0, 79, 0
2, 202757, Control_c, 0, 64, 57
2, 202775, Note_on_c, 0, 72, 0
2, 202776, Control_c, 0, 64, 56
2, 202787, Note_on_c, 0, 74, 63
2, 202796, Control_c, 0, 64, 55
2, 202815, Control_c, 0, 64, 54
2, 202834, Control_c, 0, 64, 52
2, 202853, Control_c, 0, 64, 49
2, 202873, Control_c, 0, 64, 46
2, 202891, Control_c, 0, 64, 44
2, 202911, Control_c, 0, 64, 43
2, 202930, Control_c, 0, 64, 43
2, 202949, Control_c, 0, 64, 42
2, 202968, Control_c, 0, 64, 41
2, 202987, Control_c, 0, 64, 40
2, 203007, Control_c, 0, 64, 38
2, 203026, Control_c, 0, 64, 36
2, 203045, Control_c, 0, 64, 35
2, 203059, Note_on_c, 0, 84, 67
2, 203064, Control_c, 0, 64, 35
2, 203072, Note_on_c, 0, 75, 45
2, 203080, Note_on_c, 0, 74, 0
2, 203084, Control_c, 0, 64, 34
2, 203523, Note_on_c, 0, 72, 48
2, 203524, Control_c, 0, 64, 35
2, 203563, Control_c, 0, 64, 35
2, 203736, Note_on_c, 0, 72, 0
2, 203738, Note_on_c, 0, 70, 51
2, 203832, Control_c, 0, 64, 36
2, 203851, Control_c, 0, 64, 37
2, 203869, Control_c, 0, 64, 40
2, 203889, Control_c, 0, 64, 43
2, 203908, Control_c, 0, 64, 46
2, 203927, Control_c, 0, 64, 50
2, 203941, Note_on_c, 0, 70, 0
2, 203946, Control_c, 0, 64, 54
2, 203965, Note_on_c, 0, 69, 55
2, 203966, Control_c, 0, 64, 57
2, 203985, Control_c, 0, 64, 61
2, 204004, Control_c, 0, 64, 64
2, 204023, Control_c, 0, 64, 67
2, 204043, Control_c, 0, 64, 71
2, 204061, Control_c, 0, 64, 78
2, 204081, Control_c, 0, 64, 89
2, 204100, Control_c, 0, 64, 99
2, 204120, Control_c, 0, 64, 112
2, 204120, Note_on_c, 0, 69, 0
2, 204138, Control_c, 0, 64, 127
2, 204141, Note_on_c, 0, 84, 0
2, 204388, Control_c, 0, 64, 115
2, 204407, Control_c, 0, 64, 103
2, 204419, Note_on_c, 0, 84, 66
2, 204426, Control_c, 0, 64, 94
2, 204441, Note_on_c, 0, 69, 38
2, 204445, Control_c, 0, 64, 87
2, 204464, Control_c, 0, 64, 82
2, 204483, Control_c, 0, 64, 77
2, 204502, Control_c, 0, 64, 72
2, 204522, Control_c, 0, 64, 68
2, 204541, Control_c, 0, 64, 65
2, 204560, Control_c, 0, 64, 63
2, 204579, Control_c, 0, 64, 62
2, 204599, Control_c, 0, 64, 61
2, 204617, Control_c, 0, 64, 61
2, 204618, Note_on_c, 0, 82, 71
2, 204634, Note_on_c, 0, 67, 42
2, 204637, Control_c, 0, 64, 60
2, 204649, Note_on_c, 0, 69, 0
2, 204650, Note_on_c, 0, 84, 0
2, 204656, Control_c, 0, 64, 59
2, 204676, Control_c, 0, 64, 57
2, 204694, Control_c, 0, 64, 55
2, 204714, Control_c, 0, 64, 53
2, 204733, Control_c, 0, 64, 51
2, 204752, Control_c, 0, 64, 48
2, 204771, Control_c, 0, 64, 43
2, 204791, Control_c, 0, 64, 38
2, 204810, Control_c, 0, 64, 30
2, 204828, Control_c, 0, 64, 11
2, 204848, Control_c, 0, 64, 0
2, 204850, Note_on_c, 0, 67, 0
2, 204879, Note_on_c, 0, 81, 64
2, 204891, Note_on_c, 0, 65, 29
2, 204894, Note_on_c, 0, 82, 0
2, 205059, Control_c, 0, 64, 33
2, 205079, Control_c, 0, 64, 51
2, 205097, Control_c, 0, 64, 61
2, 205117, Control_c, 0, 64, 64
2, 205136, Control_c, 0, 64, 66
2, 205142, Note_on_c, 0, 81, 0
2, 205156, Control_c, 0, 64, 68
2, 205174, Control_c, 0, 64, 73
2, 205194, Control_c, 0, 64, 80
2, 205205, Note_on_c, 0, 65, 0
2, 205213, Control_c, 0, 64, 86
2, 205232, Control_c, 0, 64, 88
2, 205270, Control_c, 0, 64, 88
2, 205290, Control_c, 0, 64, 87
2, 205308, Control_c, 0, 64, 86
2, 205328, Control_c, 0, 64, 84
2, 205330, Note_on_c, 0, 81, 59
2, 205339, Note_on_c, 0, 67, 44
2, 205347, Control_c, 0, 64, 82
2, 205366, Control_c, 0, 64, 79
2, 205385, Control_c, 0, 64, 77
2, 205403, Control_c, 0, 64, 74
2, 205423, Control_c, 0, 64, 72
2, 205442, Control_c, 0, 64, 70
2, 205461, Control_c, 0, 64, 69
2, 205481, Control_c, 0, 64, 68
2, 205500, Control_c, 0, 64, 67
2, 205519, Control_c, 0, 64, 66
2, 205538, Control_c, 0, 64, 64
2, 205540, Note_on_c, 0, 69, 52
2, 205540, Note_on_c, 0, 79, 66
2, 205558, Control_c, 0, 64, 63
2, 205576, Control_c, 0, 64, 60
2, 205579, Note_on_c, 0, 81, 0
2, 205585, Note_on_c, 0, 67, 0
2, 205596, Control_c, 0, 64, 57
2, 205615, Control_c, 0, 64, 53
2, 205635, Control_c, 0, 64, 48
2, 205653, Control_c, 0, 64, 40
2, 205673, Control_c, 0, 64, 26
2, 205692, Control_c, 0, 64, 0
2, 205747, Note_on_c, 0, 69, 0
2, 205783, Note_on_c, 0, 75, 0
2, 205788, Note_on_c, 0, 77, 62
2, 205798, Note_on_c, 0, 70, 45
2, 205799, Note_on_c, 0, 79, 0
2, 205922, Control_c, 0, 64, 29
2, 205941, Control_c, 0, 64, 48
2, 205961, Control_c, 0, 64, 57
2, 205980, Control_c, 0, 64, 62
2, 205999, Control_c, 0, 64, 64
2, 206021, Control_c, 0, 64, 67
2, 206039, Note_on_c, 0, 77, 0
2, 206040, Control_c, 0, 64, 70
2, 206041, Note_on_c, 0, 70, 0
2, 206059, Control_c, 0, 64, 76
2, 206078, Control_c, 0, 64, 82
2, 206098, Control_c, 0, 64, 86
2, 206117, Control_c, 0, 64, 87
2, 206175, Control_c, 0, 64, 86
2, 206194, Control_c, 0, 64, 84
2, 206213, Control_c, 0, 64, 80
2, 206232, Control_c, 0, 64, 74
2, 206249, Note_on_c, 0, 70, 55
2, 206251, Note_on_c, 0, 79, 69
2, 206252, Control_c, 0, 64, 67
2, 206262, Note_on_c, 0, 58, 42
2, 206270, Control_c, 0, 64, 61
2, 206290, Control_c, 0, 64, 48
2, 206309, Control_c, 0, 64, 32
2, 206329, Control_c, 0, 64, 35
2, 206344, Note_on_c, 0, 70, 0
2, 206347, Control_c, 0, 64, 46
2, 206368, Control_c, 0, 64, 56
2, 206387, Control_c, 0, 64, 61
2, 206406, Control_c, 0, 64, 64
2, 206425, Control_c, 0, 64, 67
2, 206445, Control_c, 0, 64, 73
2, 206459, Note_on_c, 0, 81, 80
2, 206464, Control_c, 0, 64, 85
2, 206468, Note_on_c, 0, 72, 61
2, 206479, Note_on_c, 0, 79, 0
2, 206483, Control_c, 0, 64, 100
2, 206502, Control_c, 0, 64, 121
2, 206513, Note_on_c, 0, 58, 0
2, 206514, Note_on_c, 0, 72, 0
2, 206521, Control_c, 0, 64, 127
2, 206656, Control_c, 0, 64, 118
2, 206674, Control_c, 0, 64, 107
2, 206694, Control_c, 0, 64, 96
2, 206713, Control_c, 0, 64, 89
2, 206733, Control_c, 0, 64, 83
2, 206751, Control_c, 0, 64, 78
2, 206767, Note_on_c, 0, 82, 74
2, 206771, Control_c, 0, 64, 75
2, 206779, Note_on_c, 0, 73, 50
2, 206785, Note_on_c, 0, 81, 0
2, 206790, Control_c, 0, 64, 73
2, 206809, Control_c, 0, 64, 72
2, 206828, Control_c, 0, 64, 70
2, 206848, Control_c, 0, 64, 66
2, 206867, Control_c, 0, 64, 63
2, 206886, Control_c, 0, 64, 59
2, 206905, Control_c, 0, 64, 55
2, 206925, Control_c, 0, 64, 51
2, 206944, Control_c, 0, 64, 48
2, 206963, Control_c, 0, 64, 46
2, 206982, Control_c, 0, 64, 42
2, 207001, Control_c, 0, 64, 37
2, 207020, Control_c, 0, 64, 32
2, 207039, Control_c, 0, 64, 27
2, 207059, Control_c, 0, 64, 21
2, 207078, Control_c, 0, 64, 15
2, 207097, Control_c, 0, 64, 0
2, 207250, Note_on_c, 0, 70, 54
2, 207459, Note_on_c, 0, 68, 58
2, 207527, Note_on_c, 0, 70, 0
2, 207689, Note_on_c, 0, 68, 0
2, 207704, Note_on_c, 0, 67, 49
2, 207749, Control_c, 0, 64, 28
2, 207769, Control_c, 0, 64, 49
2, 207787, Control_c, 0, 64, 59
2, 207807, Control_c, 0, 64, 64
2, 207826, Control_c, 0, 64, 68
2, 207845, Control_c, 0, 64, 73
2, 207864, Control_c, 0, 64, 83
2, 207872, Note_on_c, 0, 67, 0
2, 207880, Note_on_c, 0, 82, 0
2, 207884, Control_c, 0, 64, 96
2, 207903, Control_c, 0, 64, 108
2, 207921, Control_c, 0, 64, 123
2, 207941, Control_c, 0, 64, 127
2, 208114, Control_c, 0, 64, 119
2, 208133, Control_c, 0, 64, 107
2, 208152, Control_c, 0, 64, 99
2, 208155, Note_on_c, 0, 82, 64
2, 208172, Control_c, 0, 64, 92
2, 208185, Note_on_c, 0, 67, 33
2, 208190, Control_c, 0, 64, 86
2, 208210, Control_c, 0, 64, 80
2, 208229, Control_c, 0, 64, 76
2, 208249, Control_c, 0, 64, 73
2, 208267, Control_c, 0, 64, 70
2, 208286, Control_c, 0, 64, 68
2, 208307, Control_c, 0, 64, 65
2, 208326, Control_c, 0, 64, 64
2, 208345, Control_c, 0, 64, 62
2, 208363, Note_on_c, 0, 80, 69
2, 208365, Control_c, 0, 64, 61
2, 208365, Note_on_c, 0, 67, 0
2, 208367, Note_on_c, 0, 65, 41
2, 208384, Control_c, 0, 64, 60
2, 208403, Control_c, 0, 64, 58
2, 208422, Control_c, 0, 64, 56
2, 208441, Control_c, 0, 64, 52
2, 208460, Control_c, 0, 64, 46
2, 208479, Control_c, 0, 64, 35
2, 208480, Note_on_c, 0, 82, 0
2, 208499, Control_c, 0, 64, 0
2, 208578, Note_on_c, 0, 65, 0
2, 208594, Note_on_c, 0, 79, 66
2, 208613, Note_on_c, 0, 63, 42
2, 208617, Note_on_c, 0, 80, 0
2, 208710, Control_c, 0, 64, 27
2, 208729, Control_c, 0, 64, 52
2, 208748, Control_c, 0, 64, 63
2, 208760, Note_on_c, 0, 79, 0
2, 208768, Control_c, 0, 64, 67
2, 208787, Control_c, 0, 64, 71
2, 208806, Control_c, 0, 64, 78
2, 208825, Control_c, 0, 64, 89
2, 208845, Control_c, 0, 64, 101
2, 208864, Control_c, 0, 64, 115
2, 208882, Control_c, 0, 64, 127
2, 208899, Note_on_c, 0, 63, 0
2, 208979, Control_c, 0, 64, 123
2, 208998, Control_c, 0, 64, 113
2, 209017, Control_c, 0, 64, 104
2, 209036, Control_c, 0, 64, 95
2, 209056, Control_c, 0, 64, 86
2, 209057, Note_on_c, 0, 79, 69
2, 209064, Note_on_c, 0, 65, 47
2, 209074, Control_c, 0, 64, 78
2, 209094, Control_c, 0, 64, 72
2, 209113, Control_c, 0, 64, 68
2, 209133, Control_c, 0, 64, 64
2, 209151, Control_c, 0, 64, 61
2, 209171, Control_c, 0, 64, 57
2, 209190, Control_c, 0, 64, 52
2, 209209, Control_c, 0, 64, 47
2, 209228, Control_c, 0, 64, 43
2, 209246, Control_c, 0, 64, 38
2, 209252, Note_on_c, 0, 77, 65
2, 209257, Note_on_c, 0, 65, 0
2, 209268, Control_c, 0, 64, 30
2, 209274, Note_on_c, 0, 67, 48
2, 209287, Control_c, 0, 64, 17
2, 209294, Note_on_c, 0, 79, 0
2, 209306, Control_c, 0, 64, 0
2, 209489, Note_on_c, 0, 67, 0
2, 209509, Note_on_c, 0, 75, 61
2, 209533, Note_on_c, 0, 77, 0
2, 209534, Note_on_c, 0, 68, 45
2, 209594, Control_c, 0, 64, 17
2, 209614, Control_c, 0, 64, 43
2, 209632, Control_c, 0, 64, 56
2, 209652, Control_c, 0, 64, 61
2, 209671, Control_c, 0, 64, 63
2, 209690, Control_c, 0, 64, 65
2, 209709, Control_c, 0, 64, 67
2, 209729, Control_c, 0, 64, 74
2, 209746, Note_on_c, 0, 73, 0
2, 209748, Control_c, 0, 64, 84
2, 209767, Control_c, 0, 64, 93
2, 209768, Note_on_c, 0, 68, 0
2, 209786, Control_c, 0, 64, 97
2, 209787, Note_on_c, 0, 75, 0
2, 209863, Control_c, 0, 64, 96
2, 209901, Control_c, 0, 64, 95
2, 209920, Control_c, 0, 64, 94
2, 209940, Control_c, 0, 64, 91
2, 209959, Control_c, 0, 64, 85
2, 209975, Note_on_c, 0, 68, 59
2, 209975, Note_on_c, 0, 77, 63
2, 209978, Control_c, 0, 64, 78
2, 209995, Note_on_c, 0, 56, 47
2, 209997, Control_c, 0, 64, 70
2, 210017, Control_c, 0, 64, 62
2, 210035, Control_c, 0, 64, 49
2, 210055, Control_c, 0, 64, 22
2, 210067, Note_on_c, 0, 68, 0
2, 210074, Control_c, 0, 64, 0
2, 210094, Control_c, 0, 64, 21
2, 210112, Control_c, 0, 64, 37
2, 210132, Control_c, 0, 64, 52
2, 210151, Control_c, 0, 64, 59
2, 210170, Control_c, 0, 64, 62
2, 210177, Note_on_c, 0, 79, 76
2, 210186, Note_on_c, 0, 70, 65
2, 210189, Control_c, 0, 64, 64
2, 210207, Control_c, 0, 64, 67
2, 210227, Control_c, 0, 64, 72
2, 210242, Note_on_c, 0, 70, 0
2, 210246, Control_c, 0, 64, 83
2, 210252, Note_on_c, 0, 77, 0
2, 210265, Control_c, 0, 64, 100
2, 210275, Note_on_c, 0, 79, 0
2, 210285, Control_c, 0, 64, 127
2, 210400, Note_on_c, 0, 56, 0
2, 210419, Control_c, 0, 64, 118
2, 210438, Control_c, 0, 64, 104
2, 210456, Note_on_c, 0, 72, 63
2, 210456, Note_on_c, 0, 80, 77
2, 210457, Control_c, 0, 64, 92
2, 210476, Control_c, 0, 64, 82
2, 210496, Control_c, 0, 64, 74
2, 210514, Control_c, 0, 64, 68
2, 210534, Control_c, 0, 64, 63
2, 210553, Control_c, 0, 64, 59
2, 210573, Control_c, 0, 64, 55
2, 210591, Control_c, 0, 64, 54
2, 210611, Control_c, 0, 64, 54
2, 210630, Control_c, 0, 64, 52
2, 210649, Control_c, 0, 64, 50
2, 210668, Control_c, 0, 64, 47
2, 210688, Control_c, 0, 64, 42
2, 210707, Control_c, 0, 64, 38
2, 210726, Control_c, 0, 64, 36
2, 210745, Control_c, 0, 64, 34
2, 210765, Control_c, 0, 64, 32
2, 210784, Control_c, 0, 64, 30
2, 210802, Control_c, 0, 64, 28
2, 210822, Control_c, 0, 64, 25
2, 210841, Control_c, 0, 64, 23
2, 210860, Control_c, 0, 64, 22
2, 210879, Control_c, 0, 64, 21
2, 210899, Control_c, 0, 64, 19
2, 210918, Control_c, 0, 64, 18
2, 210934, Note_on_c, 0, 68, 54
2, 210937, Control_c, 0, 64, 17
2, 210976, Control_c, 0, 64, 15
2, 211122, Note_on_c, 0, 67, 56
2, 211174, Note_on_c, 0, 68, 0
2, 211360, Control_c, 0, 64, 18
2, 211370, Note_on_c, 0, 65, 49
2, 211375, Note_on_c, 0, 67, 0
2, 211380, Control_c, 0, 64, 30
2, 211399, Control_c, 0, 64, 42
2, 211418, Control_c, 0, 64, 53
2, 211437, Control_c, 0, 64, 60
2, 211457, Control_c, 0, 64, 63
2, 211475, Control_c, 0, 64, 65
2, 211495, Control_c, 0, 64, 67
2, 211514, Control_c, 0, 64, 75
2, 211534, Control_c, 0, 64, 88
2, 211549, Note_on_c, 0, 65, 0
2, 211552, Control_c, 0, 64, 104
2, 211561, Note_on_c, 0, 80, 0
2, 211572, Control_c, 0, 64, 127
2, 211726, Control_c, 0, 64, 123
2, 211744, Control_c, 0, 64, 111
2, 211764, Control_c, 0, 64, 102
2, 211783, Control_c, 0, 64, 94
2, 211802, Control_c, 0, 64, 86
2, 211821, Control_c, 0, 64, 80
2, 211825, Note_on_c, 0, 80, 67
2, 211840, Control_c, 0, 64, 76
2, 211848, Note_on_c, 0, 65, 41
2, 211860, Control_c, 0, 64, 73
2, 211879, Control_c, 0, 64, 71
2, 211898, Control_c, 0, 64, 68
2, 211917, Control_c, 0, 64, 65
2, 211937, Control_c, 0, 64, 62
2, 211955, Control_c, 0, 64, 60
2, 211975, Control_c, 0, 64, 58
2, 211994, Control_c, 0, 64, 56
2, 212010, Note_on_c, 0, 65, 0
2, 212014, Control_c, 0, 64, 52
2, 212029, Note_on_c, 0, 63, 53
2, 212032, Control_c, 0, 64, 46
2, 212046, Note_on_c, 0, 79, 66
2, 212052, Control_c, 0, 64, 33
2, 212071, Control_c, 0, 64, 0
2, 212247, Note_on_c, 0, 63, 0
2, 212256, Note_on_c, 0, 80, 0
2, 212269, Note_on_c, 0, 61, 48
2, 212277, Note_on_c, 0, 77, 65
2, 212292, Note_on_c, 0, 79, 0
2, 212319, Control_c, 0, 64, 9
2, 212339, Control_c, 0, 64, 44
2, 212358, Control_c, 0, 64, 58
2, 212377, Control_c, 0, 64, 63
2, 212396, Control_c, 0, 64, 65
2, 212416, Control_c, 0, 64, 67
2, 212422, Note_on_c, 0, 61, 0
2, 212423, Note_on_c, 0, 77, 0
2, 212434, Control_c, 0, 64, 71
2, 212454, Control_c, 0, 64, 78
2, 212473, Control_c, 0, 64, 91
2, 212493, Control_c, 0, 64, 98
2, 212511, Control_c, 0, 64, 99
2, 212550, Control_c, 0, 64, 98
2, 212569, Control_c, 0, 64, 98
2, 212608, Control_c, 0, 64, 96
2, 212627, Control_c, 0, 64, 93
2, 212646, Control_c, 0, 64, 89
2, 212665, Control_c, 0, 64, 83
2, 212685, Control_c, 0, 64, 77
2, 212704, Control_c, 0, 64, 72
2, 212720, Note_on_c, 0, 77, 63
2, 212722, Control_c, 0, 64, 68
2, 212734, Note_on_c, 0, 61, 48
2, 212742, Control_c, 0, 64, 65
2, 212761, Control_c, 0, 64, 61
2, 212780, Control_c, 0, 64, 58
2, 212799, Control_c, 0, 64, 54
2, 212819, Control_c, 0, 64, 50
2, 212838, Control_c, 0, 64, 46
2, 212857, Control_c, 0, 64, 42
2, 212876, Control_c, 0, 64, 36
2, 212896, Control_c, 0, 64, 27
2, 212914, Control_c, 0, 64, 15
2, 212915, Note_on_c, 0, 75, 72
2, 212933, Note_on_c, 0, 60, 50
2, 212934, Control_c, 0, 64, 0
2, 212974, Note_on_c, 0, 61, 0
2, 212983, Note_on_c, 0, 77, 0
2, 213128, Note_on_c, 0, 60, 0
2, 213157, Note_on_c, 0, 73, 67
2, 213161, Note_on_c, 0, 58, 45
2, 213174, Note_on_c, 0, 72, 0
2, 213204, Note_on_c, 0, 75, 0
2, 213260, Control_c, 0, 64, 36
2, 213279, Control_c, 0, 64, 54
2, 213299, Control_c, 0, 64, 60
2, 213318, Control_c, 0, 64, 62
2, 213337, Control_c, 0, 64, 63
2, 213356, Control_c, 0, 64, 64
2, 213376, Control_c, 0, 64, 64
2, 213394, Control_c, 0, 64, 65
2, 213414, Control_c, 0, 64, 65
2, 213471, Control_c, 0, 64, 65
2, 213471, Note_on_c, 0, 58, 0
2, 213491, Control_c, 0, 64, 64
2, 213510, Control_c, 0, 64, 64
2, 213529, Control_c, 0, 64, 63
2, 213548, Control_c, 0, 64, 61
2, 213568, Control_c, 0, 64, 59
2, 213587, Control_c, 0, 64, 55
2, 213595, Note_on_c, 0, 70, 62
2, 213604, Note_on_c, 0, 60, 44
2, 213606, Control_c, 0, 64, 51
2, 213625, Control_c, 0, 64, 45
2, 213645, Control_c, 0, 64, 35
2, 213664, Control_c, 0, 64, 0
2, 213787, Note_on_c, 0, 60, 0
2, 213805, Note_on_c, 0, 68, 63
2, 213814, Note_on_c, 0, 61, 53
2, 213829, Note_on_c, 0, 70, 0
2, 214017, Note_on_c, 0, 73, 0
2, 214022, Note_on_c, 0, 61, 0
2, 214051, Note_on_c, 0, 68, 0
2, 214054, Note_on_c, 0, 67, 50
2, 214070, Note_on_c, 0, 63, 39
2, 214162, Control_c, 0, 64, 43
2, 214182, Control_c, 0, 64, 59
2, 214201, Control_c, 0, 64, 63
2, 214220, Control_c, 0, 64, 64
2, 214239, Control_c, 0, 64, 65
2, 214259, Control_c, 0, 64, 67
2, 214278, Control_c, 0, 64, 73
2, 214297, Control_c, 0, 64, 79
2, 214316, Control_c, 0, 64, 84
2, 214336, Control_c, 0, 64, 85
2, 214374, Control_c, 0, 64, 85
2, 214393, Control_c, 0, 64, 84
2, 214413, Control_c, 0, 64, 83
2, 214431, Control_c, 0, 64, 80
2, 214451, Control_c, 0, 64, 75
2, 214457, Note_on_c, 0, 63, 0
2, 214470, Control_c, 0, 64, 69
2, 214480, Note_on_c, 0, 75, 61
2, 214489, Control_c, 0, 64, 63
2, 214501, Note_on_c, 0, 51, 38
2, 214508, Control_c, 0, 64, 54
2, 214528, Control_c, 0, 64, 34
2, 214547, Control_c, 0, 64, 0
2, 214624, Control_c, 0, 64, 35
2, 214642, Control_c, 0, 64, 50
2, 214662, Control_c, 0, 64, 57
2, 214681, Control_c, 0, 64, 61
2, 214687, Note_on_c, 0, 73, 61
2, 214700, Control_c, 0, 64, 63
2, 214715, Note_on_c, 0, 75, 0
2, 214719, Control_c, 0, 64, 65
2, 214739, Control_c, 0, 64, 66
2, 214758, Control_c, 0, 64, 68
2, 214777, Control_c, 0, 64, 70
2, 214796, Control_c, 0, 64, 72
2, 214834, Control_c, 0, 64, 71
2, 214854, Control_c, 0, 64, 71
2, 214873, Control_c, 0, 64, 70
2, 214893, Control_c, 0, 64, 69
2, 214896, Note_on_c, 0, 51, 0
2, 214911, Control_c, 0, 64, 68
2, 214931, Control_c, 0, 64, 66
2, 214940, Note_on_c, 0, 72, 62
2, 214942, Note_on_c, 0, 56, 47
2, 214950, Control_c, 0, 64, 62
2, 214955, Note_on_c, 0, 73, 0
2, 214969, Control_c, 0, 64, 56
2, 214988, Control_c, 0, 64, 41
2, 215009, Control_c, 0, 64, 0
2, 215104, Control_c, 0, 64, 23
2, 215123, Control_c, 0, 64, 48
2, 215143, Control_c, 0, 64, 60
2, 215162, Control_c, 0, 64, 64
2, 215181, Control_c, 0, 64, 66
2, 215190, Note_on_c, 0, 72, 0
2, 215200, Control_c, 0, 64, 69
2, 215220, Control_c, 0, 64, 74
2, 215239, Control_c, 0, 64, 83
2, 215258, Control_c, 0, 64, 91
2, 215277, Control_c, 0, 64, 95
2, 215297, Control_c, 0, 64, 96
2, 215363, Note_on_c, 0, 72, 65
2, 215374, Control_c, 0, 64, 95
2, 215388, Note_on_c, 0, 58, 54
2, 215392, Control_c, 0, 64, 93
2, 215409, Note_on_c, 0, 56, 0
2, 215412, Control_c, 0, 64, 91
2, 215431, Control_c, 0, 64, 87
2, 215450, Control_c, 0, 64, 83
2, 215469, Control_c, 0, 64, 79
2, 215489, Control_c, 0, 64, 77
2, 215508, Control_c, 0, 64, 76
2, 215527, Control_c, 0, 64, 76
2, 215546, Control_c, 0, 64, 75
2, 215566, Control_c, 0, 64, 74
2, 215569, Note_on_c, 0, 70, 75
2, 215584, Control_c, 0, 64, 72
2, 215584, Note_on_c, 0, 58, 0
2, 215594, Note_on_c, 0, 60, 51
2, 215603, Control_c, 0, 64, 70
2, 215623, Control_c, 0, 64, 69
2, 215642, Control_c, 0, 64, 68
2, 215661, Control_c, 0, 64, 66
2, 215667, Note_on_c, 0, 72, 0
2, 215680, Control_c, 0, 64, 65
2, 215700, Control_c, 0, 64, 63
2, 215719, Control_c, 0, 64, 60
2, 215738, Control_c, 0, 64, 57
2, 215757, Control_c, 0, 64, 54
2, 215777, Control_c, 0, 64, 50
2, 215795, Control_c, 0, 64, 47
2, 215815, Control_c, 0, 64, 42
2, 215834, Control_c, 0, 64, 38
2, 215839, Note_on_c, 0, 68, 64
2, 215854, Control_c, 0, 64, 32
2, 215872, Control_c, 0, 64, 27
2, 215872, Note_on_c, 0, 61, 51
2, 215892, Control_c, 0, 64, 22
2, 215911, Control_c, 0, 64, 18
2, 215916, Note_on_c, 0, 67, 0
2, 215930, Control_c, 0, 64, 11
2, 215949, Control_c, 0, 64, 0
2, 215959, Note_on_c, 0, 70, 0
2, 215969, Note_on_c, 0, 60, 0
2, 216317, Note_on_c, 0, 65, 51
2, 216469, Note_on_c, 0, 65, 0
2, 216506, Control_c, 0, 64, 11
2, 216513, Note_on_c, 0, 64, 53
2, 216526, Control_c, 0, 64, 17
2, 216544, Control_c, 0, 64, 19
2, 216621, Control_c, 0, 64, 18
2, 216640, Control_c, 0, 64, 11
2, 216660, Control_c, 0, 64, 0
2, 216699, Note_on_c, 0, 64, 0
2, 216755, Control_c, 0, 64, 9
2, 216755, Note_on_c, 0, 65, 52
2, 216775, Control_c, 0, 64, 27
2, 216794, Control_c, 0, 64, 43
2, 216814, Control_c, 0, 64, 53
2, 216832, Control_c, 0, 64, 57
2, 216852, Control_c, 0, 64, 60
2, 216871, Control_c, 0, 64, 64
2, 216890, Control_c, 0, 64, 68
2, 216890, Note_on_c, 0, 61, 0
2, 216899, Note_on_c, 0, 68, 0
2, 216909, Control_c, 0, 64, 73
2, 216928, Control_c, 0, 64, 79
2, 216948, Control_c, 0, 64, 86
2, 216967, Control_c, 0, 64, 90
2, 216986, Control_c, 0, 64, 93
2, 217006, Control_c, 0, 64, 96
2, 217024, Control_c, 0, 64, 100
2, 217043, Control_c, 0, 64, 101
2, 217120, Control_c, 0, 64, 101
2, 217140, Control_c, 0, 64, 100
2, 217159, Control_c, 0, 64, 97
2, 217178, Control_c, 0, 64, 93
2, 217197, Control_c, 0, 64, 89
2, 217217, Control_c, 0, 64, 85
2, 217227, Note_on_c, 0, 70, 64
2, 217231, Note_on_c, 0, 61, 45
2, 217235, Control_c, 0, 64, 80
2, 217255, Control_c, 0, 64, 77
2, 217274, Control_c, 0, 64, 73
2, 217294, Control_c, 0, 64, 70
2, 217312, Control_c, 0, 64, 69
2, 217332, Control_c, 0, 64, 68
2, 217351, Control_c, 0, 64, 66
2, 217370, Control_c, 0, 64, 65
2, 217389, Control_c, 0, 64, 63
2, 217391, Note_on_c, 0, 61, 0
2, 217409, Control_c, 0, 64, 61
2, 217428, Control_c, 0, 64, 59
2, 217429, Note_on_c, 0, 72, 61
2, 217432, Note_on_c, 0, 60, 44
2, 217447, Control_c, 0, 64, 57
2, 217456, Note_on_c, 0, 70, 0
2, 217466, Control_c, 0, 64, 55
2, 217480, Note_on_c, 0, 65, 0
2, 217486, Control_c, 0, 64, 51
2, 217504, Control_c, 0, 64, 45
2, 217523, Control_c, 0, 64, 34
2, 217543, Control_c, 0, 64, 0
2, 217658, Note_on_c, 0, 60, 0
2, 217681, Note_on_c, 0, 73, 60
2, 217685, Note_on_c, 0, 72, 0
2, 217688, Note_on_c, 0, 58, 43
2, 217735, Control_c, 0, 64, 19
2, 217754, Control_c, 0, 64, 42
2, 217774, Control_c, 0, 64, 55
2, 217792, Control_c, 0, 64, 62
2, 217812, Control_c, 0, 64, 64
2, 217831, Control_c, 0, 64, 66
2, 217850, Control_c, 0, 64, 69
2, 217862, Note_on_c, 0, 58, 0
2, 217869, Control_c, 0, 64, 74
2, 217887, Control_c, 0, 64, 81
2, 217907, Control_c, 0, 64, 87
2, 217926, Control_c, 0, 64, 89
2, 217965, Control_c, 0, 64, 89
2, 217984, Control_c, 0, 64, 88
2, 218002, Control_c, 0, 64, 87
2, 218022, Control_c, 0, 64, 86
2, 218041, Control_c, 0, 64, 84
2, 218060, Control_c, 0, 64, 82
2, 218079, Control_c, 0, 64, 78
2, 218099, Control_c, 0, 64, 74
2, 218118, Control_c, 0, 64, 68
2, 218127, Note_on_c, 0, 67, 53
2, 218128, Note_on_c, 0, 58, 48
2, 218137, Control_c, 0, 64, 65
2, 218156, Control_c, 0, 64, 61
2, 218176, Control_c, 0, 64, 56
2, 218194, Control_c, 0, 64, 49
2, 218214, Control_c, 0, 64, 43
2, 218233, Control_c, 0, 64, 37
2, 218253, Control_c, 0, 64, 32
2, 218271, Control_c, 0, 64, 29
2, 218291, Control_c, 0, 64, 23
2, 218308, Note_on_c, 0, 67, 0
2, 218310, Control_c, 0, 64, 17
2, 218323, Note_on_c, 0, 56, 57
2, 218325, Note_on_c, 0, 68, 67
2, 218329, Control_c, 0, 64, 0
2, 218330, Note_on_c, 0, 58, 0
2, 218502, Note_on_c, 0, 56, 0
2, 218546, Note_on_c, 0, 70, 71
2, 218549, Note_on_c, 0, 55, 51
2, 218569, Note_on_c, 0, 73, 0
2, 218674, Control_c, 0, 64, 31
2, 218694, Control_c, 0, 64, 44
2, 218713, Control_c, 0, 64, 52
2, 218733, Control_c, 0, 64, 58
2, 218746, Note_on_c, 0, 72, 78
2, 218751, Control_c, 0, 64, 61
2, 218771, Control_c, 0, 64, 63
2, 218782, Note_on_c, 0, 70, 0
2, 218790, Control_c, 0, 64, 64
2, 218794, Note_on_c, 0, 55, 0
2, 218866, Control_c, 0, 64, 63
2, 218885, Control_c, 0, 64, 62
2, 218904, Control_c, 0, 64, 60
2, 218923, Control_c, 0, 64, 56
2, 218943, Control_c, 0, 64, 51
2, 218954, Note_on_c, 0, 73, 75
2, 218961, Control_c, 0, 64, 45
2, 218966, Note_on_c, 0, 55, 54
2, 218981, Control_c, 0, 64, 39
2, 219000, Control_c, 0, 64, 36
2, 219007, Note_on_c, 0, 72, 0
2, 219038, Control_c, 0, 64, 40
2, 219058, Control_c, 0, 64, 46
2, 219077, Control_c, 0, 64, 50
2, 219090, Note_on_c, 0, 68, 0
2, 219096, Control_c, 0, 64, 53
2, 219115, Control_c, 0, 64, 54
2, 219135, Control_c, 0, 64, 55
2, 219147, Note_on_c, 0, 55, 0
2, 219148, Note_on_c, 0, 70, 76
2, 219150, Note_on_c, 0, 53, 59
2, 219154, Control_c, 0, 64, 55
2, 219199, Note_on_c, 0, 73, 0
2, 219230, Control_c, 0, 64, 55
2, 219250, Control_c, 0, 64, 54
2, 219269, Control_c, 0, 64, 51
2, 219289, Control_c, 0, 64, 47
2, 219307, Control_c, 0, 64, 40
2, 219327, Control_c, 0, 64, 33
2, 219346, Control_c, 0, 64, 25
2, 219362, Note_on_c, 0, 53, 0
2, 219364, Control_c, 0, 64, 15
2, 219368, Note_on_c, 0, 79, 77
2, 219374, Note_on_c, 0, 52, 54
2, 219380, Note_on_c, 0, 70, 0
2, 219403, Control_c, 0, 64, 21
2, 219423, Control_c, 0, 64, 36
2, 219441, Control_c, 0, 64, 49
2, 219461, Control_c, 0, 64, 56
2, 219480, Control_c, 0, 64, 59
2, 219499, Control_c, 0, 64, 61
2, 219518, Control_c, 0, 64, 64
2, 219538, Control_c, 0, 64, 66
2, 219557, Control_c, 0, 64, 68
2, 219568, Note_on_c, 0, 68, 71
2, 219576, Control_c, 0, 64, 72
2, 219595, Control_c, 0, 64, 75
2, 219615, Control_c, 0, 64, 77
2, 219634, Control_c, 0, 64, 78
2, 219653, Control_c, 0, 64, 77
2, 219669, Note_on_c, 0, 52, 0
2, 219672, Control_c, 0, 64, 76
2, 219689, Note_on_c, 0, 68, 0
2, 219692, Control_c, 0, 64, 74
2, 219710, Control_c, 0, 64, 70
2, 219730, Control_c, 0, 64, 64
2, 219749, Control_c, 0, 64, 57
2, 219769, Control_c, 0, 64, 36
2, 219776, Note_on_c, 0, 70, 73
2, 219782, Note_on_c, 0, 48, 57
2, 219787, Control_c, 0, 64, 0
2, 219827, Control_c, 0, 64, 29
2, 219846, Control_c, 0, 64, 44
2, 219865, Control_c, 0, 64, 55
2, 219871, Note_on_c, 0, 79, 0
2, 219884, Control_c, 0, 64, 59
2, 219904, Control_c, 0, 64, 63
2, 219922, Control_c, 0, 64, 65
2, 219942, Control_c, 0, 64, 68
2, 219949, Note_on_c, 0, 70, 0
2, 219961, Control_c, 0, 64, 72
2, 219964, Note_on_c, 0, 67, 63
2, 219980, Control_c, 0, 64, 78
2, 219999, Control_c, 0, 64, 84
2, 220019, Control_c, 0, 64, 87
2, 220038, Control_c, 0, 64, 86
2, 220057, Control_c, 0, 64, 86
2, 220076, Control_c, 0, 64, 85
2, 220096, Control_c, 0, 64, 84
2, 220114, Control_c, 0, 64, 82
2, 220117, Note_on_c, 0, 48, 0
2, 220134, Control_c, 0, 64, 80
2, 220153, Control_c, 0, 64, 76
2, 220173, Control_c, 0, 64, 69
2, 220181, Note_on_c, 0, 53, 61
2, 220191, Control_c, 0, 64, 62
2, 220197, Note_on_c, 0, 68, 71
2, 220211, Control_c, 0, 64, 47
2, 220230, Control_c, 0, 64, 0
2, 220266, Note_on_c, 0, 67, 0
2, 220307, Control_c, 0, 64, 26
2, 220326, Control_c, 0, 64, 49
2, 220345, Control_c, 0, 64, 59
2, 220364, Control_c, 0, 64, 63
2, 220384, Control_c, 0, 64, 65
2, 220393, Note_on_c, 0, 72, 79
2, 220402, Control_c, 0, 64, 68
2, 220422, Control_c, 0, 64, 72
2, 220441, Control_c, 0, 64, 78
2, 220460, Control_c, 0, 64, 87
2, 220479, Control_c, 0, 64, 92
2, 220518, Control_c, 0, 64, 91
2, 220537, Control_c, 0, 64, 89
2, 220556, Control_c, 0, 64, 84
2, 220576, Control_c, 0, 64, 75
2, 220594, Control_c, 0, 64, 64
2, 220594, Note_on_c, 0, 73, 76
2, 220596, Note_on_c, 0, 65, 56
2, 220614, Control_c, 0, 64, 50
2, 220633, Control_c, 0, 64, 21
2, 220636, Note_on_c, 0, 72, 0
2, 220649, Note_on_c, 0, 68, 0
2, 220653, Control_c, 0, 64, 30
2, 220671, Control_c, 0, 64, 46
2, 220691, Control_c, 0, 64, 57
2, 220710, Control_c, 0, 64, 61
2, 220729, Control_c, 0, 64, 64
2, 220748, Control_c, 0, 64, 68
2, 220763, Control_c, 0, 64, 75
2, 220769, Note_on_c, 0, 65, 0
2, 220786, Note_on_c, 0, 63, 57
2, 220787, Control_c, 0, 64, 90
2, 220788, Note_on_c, 0, 53, 0
2, 220788, Note_on_c, 0, 72, 70
2, 220806, Control_c, 0, 64, 113
2, 220825, Control_c, 0, 64, 127
2, 220836, Note_on_c, 0, 63, 0
2, 220895, Note_on_c, 0, 73, 0
2, 220959, Control_c, 0, 64, 123
2, 220979, Control_c, 0, 64, 100
2, 220998, Control_c, 0, 64, 86
2, 221001, Note_on_c, 0, 63, 55
2, 221017, Control_c, 0, 64, 73
2, 221026, Note_on_c, 0, 77, 71
2, 221036, Control_c, 0, 64, 65
2, 221054, Note_on_c, 0, 72, 0
2, 221056, Control_c, 0, 64, 57
2, 221074, Control_c, 0, 64, 48
2, 221094, Control_c, 0, 64, 46
2, 221107, Note_on_c, 0, 63, 0
2, 221122, Note_on_c, 0, 61, 55
2, 221151, Control_c, 0, 64, 45
2, 221171, Control_c, 0, 64, 44
2, 221187, Note_on_c, 0, 61, 0
2, 221190, Control_c, 0, 64, 41
2, 221209, Control_c, 0, 64, 38
2, 221223, Note_on_c, 0, 63, 64
2, 221228, Control_c, 0, 64, 34
2, 221230, Note_on_c, 0, 67, 61
2, 221248, Control_c, 0, 64, 30
2, 221267, Control_c, 0, 64, 25
2, 221286, Control_c, 0, 64, 18
2, 221302, Note_on_c, 0, 63, 0
2, 221305, Control_c, 0, 64, 11
2, 221324, Control_c, 0, 64, 0
2, 221326, Note_on_c, 0, 61, 63
2, 221383, Note_on_c, 0, 61, 0
2, 221408, Note_on_c, 0, 68, 70
2, 221422, Note_on_c, 0, 63, 66
2, 221422, Note_on_c, 0, 67, 0
2, 221497, Note_on_c, 0, 63, 0
2, 221524, Note_on_c, 0, 61, 59
2, 221573, Note_on_c, 0, 61, 0
2, 221595, Note_on_c, 0, 68, 0
2, 221604, Note_on_c, 0, 65, 62
2, 221622, Note_on_c, 0, 63, 54
2, 221678, Note_on_c, 0, 63, 0
2, 221704, Note_on_c, 0, 61, 55
2, 221791, Note_on_c, 0, 65, 0
2, 221823, Note_on_c, 0, 61, 0
2, 221823, Note_on_c, 0, 72, 65
2, 221830, Note_on_c, 0, 77, 0
2, 221856, Note_on_c, 0, 60, 52
2, 221956, Control_c, 0, 64, 37
2, 221975, Control_c, 0, 64, 55
2, 221994, Control_c, 0, 64, 61
2, 222014, Control_c, 0, 64, 64
2, 222033, Control_c, 0, 64, 65
2, 222052, Control_c, 0, 64, 67
2, 222071, Control_c, 0, 64, 72
2, 222091, Control_c, 0, 64, 80
2, 222109, Control_c, 0, 64, 91
2, 222129, Control_c, 0, 64, 95
2, 222168, Control_c, 0, 64, 95
2, 222186, Control_c, 0, 64, 93
2, 222186, Note_on_c, 0, 72, 0
2, 222206, Control_c, 0, 64, 87
2, 222225, Control_c, 0, 64, 78
2, 222235, Note_on_c, 0, 76, 69
2, 222240, Note_on_c, 0, 48, 59
2, 222244, Control_c, 0, 64, 67
2, 222253, Note_on_c, 0, 67, 51
2, 222263, Control_c, 0, 64, 60
2, 222282, Control_c, 0, 64, 55
2, 222302, Control_c, 0, 64, 59
2, 222320, Control_c, 0, 64, 61
2, 222340, Control_c, 0, 64, 63
2, 222359, Control_c, 0, 64, 64
2, 222379, Control_c, 0, 64, 66
2, 222397, Control_c, 0, 64, 70
2, 222417, Control_c, 0, 64, 79
2, 222426, Note_on_c, 0, 48, 0
2, 222429, Note_on_c, 0, 77, 78
2, 222435, Note_on_c, 0, 50, 67
2, 222436, Control_c, 0, 64, 93
2, 222441, Note_on_c, 0, 67, 0
2, 222455, Control_c, 0, 64, 112
2, 222474, Control_c, 0, 64, 127
2, 222488, Note_on_c, 0, 60, 0
2, 222575, Note_on_c, 0, 50, 0
2, 222666, Control_c, 0, 64, 115
2, 222684, Control_c, 0, 64, 97
2, 222705, Control_c, 0, 64, 82
2, 222710, Note_on_c, 0, 72, 69
2, 222719, Note_on_c, 0, 79, 79
2, 222720, Note_on_c, 0, 52, 70
2, 222722, Note_on_c, 0, 48, 68
2, 222724, Control_c, 0, 64, 69
2, 222743, Control_c, 0, 64, 52
2, 222762, Control_c, 0, 64, 0
2, 222829, Note_on_c, 0, 76, 0
2, 222829, Note_on_c, 0, 77, 0
2, 222954, Control_c, 0, 64, 45
2, 222974, Control_c, 0, 64, 62
2, 222993, Control_c, 0, 64, 66
2, 223012, Control_c, 0, 64, 67
2, 223031, Control_c, 0, 64, 67
2, 223037, Note_on_c, 0, 52, 0
2, 223051, Control_c, 0, 64, 69
2, 223069, Control_c, 0, 64, 70
2, 223089, Control_c, 0, 64, 71
2, 223108, Control_c, 0, 64, 71
2, 223128, Control_c, 0, 64, 71
2, 223146, Control_c, 0, 64, 72
2, 223151, Note_on_c, 0, 70, 64
2, 223166, Control_c, 0, 64, 76
2, 223175, Note_on_c, 0, 50, 59
2, 223185, Control_c, 0, 64, 84
2, 223204, Control_c, 0, 64, 95
2, 223223, Control_c, 0, 64, 106
2, 223225, Note_on_c, 0, 72, 0
2, 223242, Control_c, 0, 64, 127
2, 223281, Note_on_c, 0, 70, 0
2, 223303, Note_on_c, 0, 48, 0
2, 223345, Note_on_c, 0, 50, 0
2, 223374, Note_on_c, 0, 52, 67
2, 223506, Note_on_c, 0, 52, 0
2, 223531, Control_c, 0, 64, 119
2, 223549, Control_c, 0, 64, 92
2, 223569, Control_c, 0, 64, 75
2, 223574, Note_on_c, 0, 68, 73
2, 223582, Note_on_c, 0, 49, 78
2, 223582, Note_on_c, 0, 53, 72
2, 223588, Control_c, 0, 64, 62
2, 223608, Control_c, 0, 64, 0
2, 223660, Note_on_c, 0, 79, 0
2, 223723, Control_c, 0, 64, 17
2, 223743, Control_c, 0, 64, 52
2, 223758, Note_on_c, 0, 53, 0
2, 223761, Control_c, 0, 64, 64
2, 223781, Control_c, 0, 64, 67
2, 223787, Note_on_c, 0, 52, 70
2, 223800, Control_c, 0, 64, 71
2, 223819, Control_c, 0, 64, 76
2, 223838, Control_c, 0, 64, 84
2, 223858, Control_c, 0, 64, 91
2, 223877, Control_c, 0, 64, 93
2, 223896, Control_c, 0, 64, 93
2, 223915, Control_c, 0, 64, 88
2, 223935, Control_c, 0, 64, 78
2, 223954, Control_c, 0, 64, 67
2, 223960, Note_on_c, 0, 52, 0
2, 223973, Control_c, 0, 64, 56
2, 223992, Control_c, 0, 64, 0
2, 223996, Note_on_c, 0, 77, 77
2, 224003, Note_on_c, 0, 53, 67
2, 224011, Note_on_c, 0, 70, 67
2, 224028, Note_on_c, 0, 68, 0
2, 224050, Control_c, 0, 64, 25
2, 224069, Control_c, 0, 64, 49
2, 224089, Control_c, 0, 64, 60
2, 224107, Control_c, 0, 64, 65
2, 224127, Control_c, 0, 64, 69
2, 224146, Control_c, 0, 64, 76
2, 224154, Note_on_c, 0, 53, 0
2, 224155, Note_on_c, 0, 49, 0
2, 224164, Control_c, 0, 64, 87
2, 224184, Control_c, 0, 64, 103
2, 224189, Note_on_c, 0, 55, 65
2, 224203, Control_c, 0, 64, 119
2, 224223, Control_c, 0, 64, 127
2, 224319, Note_on_c, 0, 55, 0
2, 224338, Control_c, 0, 64, 101
2, 224357, Control_c, 0, 64, 81
2, 224376, Control_c, 0, 64, 65
2, 224395, Control_c, 0, 64, 31
2, 224398, Note_on_c, 0, 72, 79
2, 224401, Note_on_c, 0, 48, 65
2, 224402, Note_on_c, 0, 70, 0
2, 224410, Note_on_c, 0, 56, 76
2, 224415, Control_c, 0, 64, 0
2, 224530, Control_c, 0, 64, 47
2, 224549, Control_c, 0, 64, 63
2, 224569, Control_c, 0, 64, 67
2, 224587, Control_c, 0, 64, 75
2, 224608, Control_c, 0, 64, 88
2, 224612, Note_on_c, 0, 60, 74
2, 224624, Note_on_c, 0, 56, 0
2, 224627, Control_c, 0, 64, 127
2, 224634, Note_on_c, 0, 48, 0
2, 224799, Control_c, 0, 64, 79
2, 224819, Control_c, 0, 64, 63
2, 224829, Note_on_c, 0, 60, 0
2, 224830, Note_on_c, 0, 75, 79
2, 224838, Control_c, 0, 64, 47
2, 224839, Note_on_c, 0, 62, 68
2, 224857, Control_c, 0, 64, 57
2, 224862, Note_on_c, 0, 72, 0
2, 224876, Control_c, 0, 64, 62
2, 224885, Note_on_c, 0, 77, 0
2, 224896, Control_c, 0, 64, 64
2, 224914, Control_c, 0, 64, 66
2, 224934, Control_c, 0, 64, 72
2, 224953, Control_c, 0, 64, 84
2, 224964, Note_on_c, 0, 62, 0
2, 224973, Control_c, 0, 64, 108
2, 224991, Control_c, 0, 64, 127
2, 225016, Note_on_c, 0, 63, 75
2, 225084, Note_on_c, 0, 63, 0
2, 225241, Control_c, 0, 64, 91
2, 225249, Note_on_c, 0, 47, 79
2, 225251, Note_on_c, 0, 74, 74
2, 225257, Note_on_c, 0, 65, 60
2, 225260, Control_c, 0, 64, 74
2, 225272, Note_on_c, 0, 75, 0
2, 225279, Control_c, 0, 64, 61
2, 225299, Control_c, 0, 64, 36
2, 225318, Control_c, 0, 64, 0
2, 225448, Note_on_c, 0, 53, 74
2, 225519, Note_on_c, 0, 74, 0
2, 225565, Control_c, 0, 64, 22
2, 225586, Control_c, 0, 64, 39
2, 225604, Control_c, 0, 64, 53
2, 225624, Control_c, 0, 64, 60
2, 225643, Control_c, 0, 64, 64
2, 225651, Note_on_c, 0, 53, 0
2, 225652, Note_on_c, 0, 75, 77
2, 225654, Note_on_c, 0, 55, 71
2, 225663, Control_c, 0, 64, 67
2, 225681, Control_c, 0, 64, 73
2, 225701, Control_c, 0, 64, 82
2, 225703, Note_on_c, 0, 65, 0
2, 225713, Note_on_c, 0, 47, 0
2, 225720, Control_c, 0, 64, 92
2, 225739, Control_c, 0, 64, 100
2, 225758, Control_c, 0, 64, 106
2, 225778, Control_c, 0, 64, 110
2, 225797, Control_c, 0, 64, 114
2, 225816, Control_c, 0, 64, 117
2, 225835, Control_c, 0, 64, 118
2, 225839, Note_on_c, 0, 55, 0
2, 225851, Note_on_c, 0, 56, 69
2, 225852, Note_on_c, 0, 77, 77
2, 225855, Control_c, 0, 64, 119
2, 225887, Note_on_c, 0, 75, 0
2, 225912, Control_c, 0, 64, 118
2, 225932, Control_c, 0, 64, 117
2, 225950, Control_c, 0, 64, 113
2, 225970, Control_c, 0, 64, 107
2, 225989, Control_c, 0, 64, 101
2, 226009, Control_c, 0, 64, 93
2, 226024, Note_on_c, 0, 56, 0
2, 226027, Control_c, 0, 64, 82
2, 226047, Control_c, 0, 64, 69
2, 226066, Control_c, 0, 64, 57
2, 226077, Note_on_c, 0, 58, 77
2, 226080, Note_on_c, 0, 52, 74
2, 226081, Note_on_c, 0, 79, 79
2, 226084, Control_c, 0, 64, 0
2, 226099, Note_on_c, 0, 77, 0
2, 226238, Control_c, 0, 64, 25
2, 226258, Control_c, 0, 64, 51
2, 226277, Control_c, 0, 64, 62
2, 226287, Note_on_c, 0, 77, 74
2, 226296, Control_c, 0, 64, 65
2, 226315, Control_c, 0, 64, 68
2, 226317, Note_on_c, 0, 79, 0
2, 226335, Control_c, 0, 64, 71
2, 226354, Control_c, 0, 64, 77
2, 226356, Note_on_c, 0, 77, 0
2, 226373, Control_c, 0, 64, 86
2, 226392, Control_c, 0, 64, 91
2, 226487, Note_on_c, 0, 76, 78
2, 226497, Note_on_c, 0, 67, 64
2, 226507, Control_c, 0, 64, 88
2, 226525, Control_c, 0, 64, 80
2, 226547, Control_c, 0, 64, 69
2, 226565, Control_c, 0, 64, 59
2, 226585, Control_c, 0, 64, 40
2, 226604, Control_c, 0, 64, 36
2, 226624, Control_c, 0, 64, 46
2, 226642, Control_c, 0, 64, 55
2, 226662, Control_c, 0, 64, 59
2, 226671, Note_on_c, 0, 58, 0
2, 226681, Control_c, 0, 64, 61
2, 226688, Note_on_c, 0, 74, 75
2, 226700, Control_c, 0, 64, 64
2, 226719, Control_c, 0, 64, 65
2, 226739, Control_c, 0, 64, 67
2, 226758, Control_c, 0, 64, 70
2, 226777, Control_c, 0, 64, 73
2, 226796, Control_c, 0, 64, 76
2, 226808, Note_on_c, 0, 76, 0
2, 226816, Control_c, 0, 64, 75
2, 226834, Control_c, 0, 64, 73
2, 226854, Control_c, 0, 64, 68
2, 226873, Control_c, 0, 64, 63
2, 226893, Control_c, 0, 64, 55
2, 226894, Note_on_c, 0, 72, 76
2, 226901, Note_on_c, 0, 68, 69
2, 226908, Note_on_c, 0, 67, 0
2, 226911, Control_c, 0, 64, 43
2, 226912, Note_on_c, 0, 53, 74
2, 226922, Note_on_c, 0, 74, 0
2, 226931, Control_c, 0, 64, 22
2, 226950, Control_c, 0, 64, 19
2, 226962, Note_on_c, 0, 52, 0
2, 227113, Note_on_c, 0, 56, 74
2, 227252, Note_on_c, 0, 68, 0
2, 227257, Control_c, 0, 64, 24
2, 227276, Control_c, 0, 64, 35
2, 227296, Control_c, 0, 64, 46
2, 227310, Note_on_c, 0, 58, 72
2, 227314, Control_c, 0, 64, 54
2, 227334, Control_c, 0, 64, 60
2, 227353, Control_c, 0, 64, 62
2, 227373, Control_c, 0, 64, 65
2, 227391, Control_c, 0, 64, 67
2, 227405, Note_on_c, 0, 53, 0
2, 227411, Control_c, 0, 64, 71
2, 227430, Control_c, 0, 64, 78
2, 227433, Note_on_c, 0, 56, 0
2, 227450, Control_c, 0, 64, 89
2, 227468, Control_c, 0, 64, 104
2, 227483, Control_c, 0, 64, 127
2, 227498, Note_on_c, 0, 60, 76
2, 227552, Note_on_c, 0, 60, 0
2, 227755, Control_c, 0, 64, 95
2, 227756, Note_on_c, 0, 61, 85
2, 227759, Note_on_c, 0, 46, 66
2, 227775, Control_c, 0, 64, 79
2, 227779, Note_on_c, 0, 72, 0
2, 227794, Control_c, 0, 64, 67
2, 227813, Control_c, 0, 64, 54
2, 227832, Control_c, 0, 64, 0
2, 227875, Note_on_c, 0, 58, 0
2, 227989, Note_on_c, 0, 70, 68
2, 228101, Control_c, 0, 64, 51
2, 228120, Control_c, 0, 64, 62
2, 228139, Control_c, 0, 64, 64
2, 228158, Control_c, 0, 64, 65
2, 228178, Control_c, 0, 64, 68
2, 228186, Note_on_c, 0, 68, 68
2, 228197, Control_c, 0, 64, 75
2, 228216, Control_c, 0, 64, 86
2, 228235, Control_c, 0, 64, 100
2, 228244, Note_on_c, 0, 61, 0
2, 228255, Control_c, 0, 64, 112
2, 228274, Control_c, 0, 64, 127
2, 228295, Note_on_c, 0, 70, 0
2, 228398, Note_on_c, 0, 67, 68
2, 228458, Note_on_c, 0, 68, 0
2, 228524, Control_c, 0, 64, 115
2, 228544, Control_c, 0, 64, 100
2, 228562, Control_c, 0, 64, 86
2, 228582, Control_c, 0, 64, 73
2, 228590, Note_on_c, 0, 67, 0
2, 228601, Control_c, 0, 64, 64
2, 228613, Note_on_c, 0, 72, 75
2, 228614, Note_on_c, 0, 45, 71
2, 228620, Control_c, 0, 64, 54
2, 228630, Note_on_c, 0, 65, 57
2, 228639, Control_c, 0, 64, 43
2, 228659, Control_c, 0, 64, 38
2, 228674, Note_on_c, 0, 46, 0
2, 228678, Control_c, 0, 64, 37
2, 228697, Control_c, 0, 64, 35
2, 228716, Control_c, 0, 64, 31
2, 228736, Control_c, 0, 64, 26
2, 228754, Control_c, 0, 64, 22
2, 228774, Control_c, 0, 64, 21
2, 228817, Note_on_c, 0, 60, 70
2, 228908, Control_c, 0, 64, 22
2, 228928, Control_c, 0, 64, 23
2, 228947, Control_c, 0, 64, 25
2, 228965, Control_c, 0, 64, 27
2, 228985, Control_c, 0, 64, 29
2, 229004, Control_c, 0, 64, 31
2, 229024, Control_c, 0, 64, 32
2, 229025, Note_on_c, 0, 62, 74
2, 229042, Control_c, 0, 64, 34
2, 229043, Note_on_c, 0, 60, 0
2, 229062, Control_c, 0, 64, 34
2, 229081, Control_c, 0, 64, 36
2, 229100, Control_c, 0, 64, 36
2, 229109, Note_on_c, 0, 65, 0
2, 229119, Control_c, 0, 64, 38
2, 229139, Control_c, 0, 64, 39
2, 229158, Control_c, 0, 64, 40
2, 229177, Control_c, 0, 64, 41
2, 229196, Control_c, 0, 64, 42
2, 229219, Note_on_c, 0, 64, 78
2, 229234, Control_c, 0, 64, 42
2, 229243, Note_on_c, 0, 62, 0
2, 229254, Control_c, 0, 64, 43
2, 229429, Note_on_c, 0, 44, 67
2, 229444, Note_on_c, 0, 65, 71
2, 229462, Control_c, 0, 64, 42
2, 229469, Note_on_c, 0, 72, 0
2, 229482, Control_c, 0, 64, 40
2, 229483, Note_on_c, 0, 64, 0
2, 229501, Control_c, 0, 64, 38
2, 229520, Control_c, 0, 64, 35
2, 229536, Note_on_c, 0, 45, 0
2, 229539, Control_c, 0, 64, 24
2, 229559, Control_c, 0, 64, 0
2, 229567, Note_on_c, 0, 65, 0
2, 229638, Note_on_c, 0, 65, 68
2, 229808, Control_c, 0, 64, 46
2, 229827, Control_c, 0, 64, 57
2, 229845, Note_on_c, 0, 67, 73
2, 229845, Note_on_c, 0, 72, 78
2, 229847, Control_c, 0, 64, 62
2, 229865, Control_c, 0, 64, 65
2, 229885, Control_c, 0, 64, 69
2, 229891, Note_on_c, 0, 65, 0
2, 229904, Control_c, 0, 64, 75
2, 229923, Control_c, 0, 64, 86
2, 229942, Control_c, 0, 64, 97
2, 229962, Control_c, 0, 64, 111
2, 229981, Control_c, 0, 64, 127
2, 230036, Note_on_c, 0, 44, 0
2, 230042, Note_on_c, 0, 68, 77
2, 230045, Note_on_c, 0, 72, 0
2, 230211, Control_c, 0, 64, 108
2, 230230, Control_c, 0, 64, 90
2, 230250, Control_c, 0, 64, 75
2, 230255, Note_on_c, 0, 44, 53
2, 230255, Note_on_c, 0, 67, 0
2, 230265, Note_on_c, 0, 73, 69
2, 230268, Control_c, 0, 64, 65
2, 230270, Note_on_c, 0, 70, 66
2, 230288, Control_c, 0, 64, 47
2, 230307, Control_c, 0, 64, 0
2, 230314, Note_on_c, 0, 68, 0
2, 230339, Note_on_c, 0, 44, 0
2, 230365, Control_c, 0, 64, 42
2, 230374, Note_on_c, 0, 43, 60
2, 230384, Control_c, 0, 64, 55
2, 230403, Control_c, 0, 64, 62
2, 230422, Control_c, 0, 64, 65
2, 230442, Control_c, 0, 64, 68
2, 230461, Control_c, 0, 64, 73
2, 230472, Note_on_c, 0, 44, 72
2, 230474, Note_on_c, 0, 43, 0
2, 230480, Control_c, 0, 64, 80
2, 230499, Control_c, 0, 64, 91
2, 230519, Control_c, 0, 64, 97
2, 230536, Note_on_c, 0, 73, 0
2, 230537, Control_c, 0, 64, 99
2, 230557, Control_c, 0, 64, 100
2, 230559, Note_on_c, 0, 43, 60
2, 230559, Note_on_c, 0, 44, 0
2, 230576, Control_c, 0, 64, 99
2, 230596, Control_c, 0, 64, 96
2, 230607, Note_on_c, 0, 70, 0
2, 230614, Control_c, 0, 64, 88
2, 230633, Control_c, 0, 64, 74
2, 230653, Control_c, 0, 64, 64
2, 230657, Note_on_c, 0, 72, 80
2, 230661, Note_on_c, 0, 64, 69
2, 230663, Note_on_c, 0, 43, 0
2, 230666, Note_on_c, 0, 44, 64
2, 230671, Control_c, 0, 64, 48
2, 230691, Control_c, 0, 64, 0
2, 230762, Note_on_c, 0, 44, 0
2, 230768, Control_c, 0, 64, 34
2, 230773, Note_on_c, 0, 43, 61
2, 230787, Control_c, 0, 64, 54
2, 230807, Control_c, 0, 64, 63
2, 230825, Control_c, 0, 64, 67
2, 230833, Note_on_c, 0, 64, 0
2, 230845, Control_c, 0, 64, 71
2, 230861, Note_on_c, 0, 70, 72
2, 230864, Control_c, 0, 64, 80
2, 230865, Note_on_c, 0, 62, 70
2, 230866, Note_on_c, 0, 43, 0
2, 230871, Note_on_c, 0, 44, 65
2, 230883, Control_c, 0, 64, 93
2, 230902, Control_c, 0, 64, 119
2, 230922, Control_c, 0, 64, 127
2, 230931, Note_on_c, 0, 72, 0
2, 230956, Note_on_c, 0, 62, 0
2, 230961, Note_on_c, 0, 44, 0
2, 230986, Note_on_c, 0, 43, 59
2, 231006, Note_on_c, 0, 70, 0
2, 231056, Control_c, 0, 64, 102
2, 231076, Control_c, 0, 64, 84
2, 231078, Note_on_c, 0, 43, 0
2, 231093, Note_on_c, 0, 64, 70
2, 231094, Control_c, 0, 64, 72
2, 231098, Note_on_c, 0, 72, 71
2, 231099, Note_on_c, 0, 44, 66
2, 231113, Control_c, 0, 64, 64
2, 231133, Control_c, 0, 64, 54
2, 231151, Control_c, 0, 64, 38
2, 231161, Note_on_c, 0, 44, 0
2, 231171, Control_c, 0, 64, 30
2, 231192, Note_on_c, 0, 43, 61
2, 231262, Note_on_c, 0, 43, 0
2, 231286, Note_on_c, 0, 44, 65
2, 231343, Control_c, 0, 64, 29
2, 231352, Note_on_c, 0, 44, 0
2, 231362, Control_c, 0, 64, 29
2, 231376, Note_on_c, 0, 43, 64
2, 231381, Control_c, 0, 64, 28
2, 231452, Note_on_c, 0, 43, 0
2, 231490, Note_on_c, 0, 44, 58
2, 231503, Note_on_c, 0, 68, 66
2, 231542, Note_on_c, 0, 44, 0
2, 231576, Note_on_c, 0, 43, 53
2, 231631, Control_c, 0, 64, 29
2, 231631, Note_on_c, 0, 43, 0
2, 231650, Control_c, 0, 64, 30
2, 231655, Note_on_c, 0, 44, 61
2, 231669, Control_c, 0, 64, 31
2, 231689, Control_c, 0, 64, 33
2, 231692, Note_on_c, 0, 64, 0
2, 231707, Control_c, 0, 64, 34
2, 231709, Note_on_c, 0, 67, 55
2, 231719, Note_on_c, 0, 68, 0
2, 231734, Note_on_c, 0, 44, 0
2, 231759, Note_on_c, 0, 43, 49
2, 231784, Control_c, 0, 64, 33
2, 231804, Control_c, 0, 64, 32
2, 231823, Control_c, 0, 64, 32
2, 231861, Control_c, 0, 64, 31
2, 231900, Control_c, 0, 64, 28
2, 231919, Control_c, 0, 64, 17
2, 231928, Note_on_c, 0, 43, 0
2, 231938, Control_c, 0, 64, 0
2, 231958, Note_on_c, 0, 41, 45
2, 231967, Note_on_c, 0, 67, 0
2, 231989, Note_on_c, 0, 68, 54
2, 231998, Note_on_c, 0, 65, 46
2, 232149, Control_c, 0, 64, 46
2, 232167, Note_on_c, 0, 41, 0
2, 232169, Control_c, 0, 64, 62
2, 232187, Control_c, 0, 64, 67
2, 232207, Control_c, 0, 64, 73
2, 232226, Control_c, 0, 64, 81
2, 232246, Control_c, 0, 64, 92
2, 232264, Control_c, 0, 64, 101
2, 232281, Control_c, 0, 64, 108
2, 232303, Control_c, 0, 64, 114
2, 232361, Control_c, 0, 64, 112
2, 232380, Control_c, 0, 64, 107
2, 232399, Control_c, 0, 64, 102
2, 232418, Control_c, 0, 64, 97
2, 232429, Note_on_c, 0, 53, 54
2, 232438, Control_c, 0, 64, 92
2, 232456, Control_c, 0, 64, 87
2, 232475, Control_c, 0, 64, 82
2, 232495, Control_c, 0, 64, 78
2, 232514, Control_c, 0, 64, 75
2, 232533, Control_c, 0, 64, 72
2, 232552, Control_c, 0, 64, 69
2, 232572, Control_c, 0, 64, 66
2, 232591, Control_c, 0, 64, 63
2, 232610, Control_c, 0, 64, 60
2, 232629, Control_c, 0, 64, 58
2, 232643, Note_on_c, 0, 55, 54
2, 232649, Control_c, 0, 64, 55
2, 232667, Control_c, 0, 64, 53
2, 232683, Note_on_c, 0, 53, 0
2, 232687, Control_c, 0, 64, 51
2, 232706, Control_c, 0, 64, 46
2, 232707, Note_on_c, 0, 65, 0
2, 232726, Control_c, 0, 64, 41
2, 232744, Control_c, 0, 64, 34
2, 232764, Control_c, 0, 64, 24
2, 232783, Control_c, 0, 64, 0
2, 232840, Note_on_c, 0, 55, 0
2, 232861, Note_on_c, 0, 56, 52
2, 232994, Control_c, 0, 64, 36
2, 233013, Control_c, 0, 64, 55
2, 233032, Control_c, 0, 64, 63
2, 233035, Note_on_c, 0, 56, 0
2, 233039, Note_on_c, 0, 72, 0
2, 233052, Control_c, 0, 64, 66
2, 233071, Control_c, 0, 64, 69
2, 233090, Control_c, 0, 64, 73
2, 233109, Control_c, 0, 64, 82
2, 233128, Note_on_c, 0, 68, 0
2, 233129, Control_c, 0, 64, 89
2, 233147, Control_c, 0, 64, 92
2, 233167, Control_c, 0, 64, 92
2, 233186, Control_c, 0, 64, 92
2, 233206, Control_c, 0, 64, 91
2, 233224, Control_c, 0, 64, 90
2, 233244, Control_c, 0, 64, 89
2, 233263, Control_c, 0, 64, 86
2, 233282, Control_c, 0, 64, 84
2, 233301, Control_c, 0, 64, 80
2, 233318, Note_on_c, 0, 56, 50
2, 233321, Control_c, 0, 64, 76
2, 233329, Note_on_c, 0, 60, 50
2, 233340, Control_c, 0, 64, 72
2, 233359, Control_c, 0, 64, 68
2, 233378, Control_c, 0, 64, 65
2, 233398, Control_c, 0, 64, 62
2, 233416, Control_c, 0, 64, 57
2, 233435, Control_c, 0, 64, 52
2, 233455, Control_c, 0, 64, 47
2, 233474, Control_c, 0, 64, 40
2, 233493, Control_c, 0, 64, 31
2, 233512, Control_c, 0, 64, 18
2, 233513, Note_on_c, 0, 60, 0
2, 233514, Note_on_c, 0, 61, 62
2, 233532, Control_c, 0, 64, 0
2, 233536, Note_on_c, 0, 58, 50
2, 233600, Note_on_c, 0, 56, 0
2, 233730, Note_on_c, 0, 61, 0
2, 233741, Note_on_c, 0, 63, 53
2, 233749, Note_on_c, 0, 60, 58
2, 233755, Note_on_c, 0, 58, 0
2, 233878, Control_c, 0, 64, 27
2, 233896, Control_c, 0, 64, 45
2, 233915, Control_c, 0, 64, 55
2, 233935, Control_c, 0, 64, 61
2, 233954, Control_c, 0, 64, 62
2, 233973, Control_c, 0, 64, 63
2, 233992, Control_c, 0, 64, 63
2, 234026, Note_on_c, 0, 63, 0
2, 234069, Control_c, 0, 64, 63
2, 234107, Control_c, 0, 64, 62
2, 234127, Control_c, 0, 64, 62
2, 234146, Control_c, 0, 64, 61
2, 234166, Control_c, 0, 64, 60
2, 234184, Control_c, 0, 64, 59
2, 234188, Note_on_c, 0, 63, 52
2, 234189, Note_on_c, 0, 78, 69
2, 234204, Control_c, 0, 64, 59
2, 234223, Control_c, 0, 64, 58
2, 234242, Control_c, 0, 64, 57
2, 234261, Control_c, 0, 64, 57
2, 234338, Control_c, 0, 64, 56
2, 234358, Control_c, 0, 64, 50
2, 234376, Control_c, 0, 64, 37
2, 234395, Control_c, 0, 64, 0
2, 234399, Note_on_c, 0, 77, 74
2, 234407, Note_on_c, 0, 65, 62
2, 234495, Note_on_c, 0, 78, 0
2, 234511, Control_c, 0, 64, 39
2, 234530, Control_c, 0, 64, 55
2, 234549, Control_c, 0, 64, 60
2, 234563, Note_on_c, 0, 65, 0
2, 234569, Control_c, 0, 64, 61
2, 234597, Note_on_c, 0, 63, 0
2, 234599, Note_on_c, 0, 75, 74
2, 234620, Note_on_c, 0, 60, 0
2, 234621, Note_on_c, 0, 66, 57
2, 234626, Control_c, 0, 64, 60
2, 234646, Control_c, 0, 64, 60
2, 234649, Note_on_c, 0, 77, 0
2, 234664, Control_c, 0, 64, 59
2, 234684, Control_c, 0, 64, 58
2, 234703, Control_c, 0, 64, 56
2, 234722, Control_c, 0, 64, 54
2, 234741, Control_c, 0, 64, 52
2, 234761, Control_c, 0, 64, 50
2, 234780, Control_c, 0, 64, 48
2, 234790, Note_on_c, 0, 73, 69
2, 234799, Control_c, 0, 64, 47
2, 234812, Note_on_c, 0, 58, 55
2, 234818, Control_c, 0, 64, 46
2, 234838, Control_c, 0, 64, 44
2, 234838, Note_on_c, 0, 75, 0
2, 234856, Control_c, 0, 64, 41
2, 234875, Control_c, 0, 64, 39
2, 234895, Control_c, 0, 64, 37
2, 234914, Control_c, 0, 64, 36
2, 234952, Control_c, 0, 64, 36
2, 234963, Note_on_c, 0, 58, 0
2, 234991, Note_on_c, 0, 73, 0
2, 235006, Note_on_c, 0, 72, 68
2, 235011, Note_on_c, 0, 56, 54
2, 235067, Control_c, 0, 64, 35
2, 235087, Control_c, 0, 64, 35
2, 235106, Control_c, 0, 64, 34
2, 235163, Control_c, 0, 64, 34
2, 235183, Control_c, 0, 64, 33
2, 235199, Note_on_c, 0, 72, 0
2, 235202, Control_c, 0, 64, 31
2, 235202, Note_on_c, 0, 56, 0
2, 235205, Note_on_c, 0, 70, 65
2, 235220, Note_on_c, 0, 54, 52
2, 235221, Control_c, 0, 64, 25
2, 235241, Control_c, 0, 64, 13
2, 235260, Control_c, 0, 64, 0
2, 235394, Note_on_c, 0, 54, 0
2, 235419, Note_on_c, 0, 66, 0
2, 235419, Note_on_c, 0, 68, 63
2, 235426, Note_on_c, 0, 70, 0
2, 235427, Note_on_c, 0, 53, 44
2, 235471, Control_c, 0, 64, 34
2, 235490, Control_c, 0, 64, 52
2, 235509, Control_c, 0, 64, 60
2, 235529, Control_c, 0, 64, 65
2, 235547, Control_c, 0, 64, 68
2, 235552, Note_on_c, 0, 68, 0
2, 235567, Control_c, 0, 64, 73
2, 235586, Control_c, 0, 64, 82
2, 235606, Control_c, 0, 64, 91
2, 235624, Control_c, 0, 64, 98
2, 235644, Control_c, 0, 64, 100
2, 235721, Control_c, 0, 64, 100
2, 235730, Note_on_c, 0, 53, 0
2, 235740, Control_c, 0, 64, 99
2, 235759, Control_c, 0, 64, 96
2, 235778, Control_c, 0, 64, 92
2, 235798, Control_c, 0, 64, 87
2, 235816, Control_c, 0, 64, 82
2, 235835, Control_c, 0, 64, 76
2, 235851, Note_on_c, 0, 70, 69
2, 235855, Control_c, 0, 64, 71
2, 235863, Note_on_c, 0, 65, 52
2, 235874, Control_c, 0, 64, 67
2, 235881, Note_on_c, 0, 49, 47
2, 235893, Control_c, 0, 64, 65
2, 235911, Note_on_c, 0, 65, 0
2, 235912, Control_c, 0, 64, 63
2, 235932, Control_c, 0, 64, 62
2, 235951, Control_c, 0, 64, 61
2, 235970, Control_c, 0, 64, 60
2, 235989, Control_c, 0, 64, 59
2, 236009, Control_c, 0, 64, 59
2, 236027, Control_c, 0, 64, 58
2, 236046, Note_on_c, 0, 72, 67
2, 236047, Control_c, 0, 64, 57
2, 236058, Note_on_c, 0, 49, 0
2, 236061, Note_on_c, 0, 63, 59
2, 236066, Control_c, 0, 64, 56
2, 236073, Note_on_c, 0, 51, 47
2, 236075, Note_on_c, 0, 70, 0
2, 236086, Control_c, 0, 64, 55
2, 236104, Control_c, 0, 64, 55
2, 236114, Note_on_c, 0, 63, 0
2, 236121, Control_c, 0, 64, 54
2, 236142, Control_c, 0, 64, 52
2, 236162, Control_c, 0, 64, 50
2, 236180, Control_c, 0, 64, 45
2, 236200, Control_c, 0, 64, 36
2, 236219, Control_c, 0, 64, 0
2, 236322, Note_on_c, 0, 72, 0
2, 236324, Note_on_c, 0, 73, 62
2, 236326, Note_on_c, 0, 51, 0
2, 236337, Note_on_c, 0, 61, 48
2, 236347, Note_on_c, 0, 53, 47
2, 236411, Control_c, 0, 64, 30
2, 236430, Control_c, 0, 64, 50
2, 236449, Control_c, 0, 64, 58
2, 236468, Control_c, 0, 64, 61
2, 236488, Control_c, 0, 64, 62
2, 236500, Note_on_c, 0, 53, 0
2, 236506, Control_c, 0, 64, 64
2, 236526, Control_c, 0, 64, 66
2, 236545, Control_c, 0, 64, 70
2, 236565, Control_c, 0, 64, 73
2, 236583, Control_c, 0, 64, 76
2, 236603, Control_c, 0, 64, 77
2, 236622, Control_c, 0, 64, 76
2, 236642, Control_c, 0, 64, 75
2, 236660, Control_c, 0, 64, 74
2, 236680, Control_c, 0, 64, 72
2, 236699, Control_c, 0, 64, 71
2, 236718, Control_c, 0, 64, 69
2, 236737, Control_c, 0, 64, 67
2, 236756, Control_c, 0, 64, 65
2, 236761, Note_on_c, 0, 53, 43
2, 236773, Note_on_c, 0, 56, 52
2, 236776, Control_c, 0, 64, 64
2, 236794, Control_c, 0, 64, 63
2, 236814, Control_c, 0, 64, 61
2, 236833, Control_c, 0, 64, 57
2, 236852, Control_c, 0, 64, 52
2, 236871, Control_c, 0, 64, 43
2, 236874, Note_on_c, 0, 61, 0
2, 236891, Control_c, 0, 64, 28
2, 236910, Control_c, 0, 64, 0
2, 236950, Note_on_c, 0, 56, 0
2, 236976, Note_on_c, 0, 58, 61
2, 236988, Note_on_c, 0, 55, 51
2, 237028, Note_on_c, 0, 53, 0
2, 237084, Note_on_c, 0, 73, 0
2, 237196, Note_on_c, 0, 58, 0
2, 237206, Note_on_c, 0, 55, 0
2, 237210, Note_on_c, 0, 56, 66
2, 237210, Note_on_c, 0, 60, 59
2, 237235, Control_c, 0, 64, 11
2, 237255, Control_c, 0, 64, 28
2, 237273, Control_c, 0, 64, 38
2, 237293, Control_c, 0, 64, 46
2, 237312, Control_c, 0, 64, 51
2, 237332, Control_c, 0, 64, 53
2, 237350, Control_c, 0, 64, 55
2, 237370, Control_c, 0, 64, 56
2, 237389, Control_c, 0, 64, 56
2, 237399, Note_on_c, 0, 60, 0
2, 237408, Control_c, 0, 64, 57
2, 237447, Control_c, 0, 64, 57
2, 237504, Control_c, 0, 64, 57
2, 237542, Control_c, 0, 64, 56
2, 237562, Control_c, 0, 64, 56
2, 237581, Control_c, 0, 64, 55
2, 237601, Control_c, 0, 64, 54
2, 237619, Control_c, 0, 64, 51
2, 237639, Control_c, 0, 64, 45
2, 237646, Note_on_c, 0, 60, 52
2, 237658, Control_c, 0, 64, 35
2, 237663, Note_on_c, 0, 75, 70
2, 237679, Control_c, 0, 64, 23
2, 237699, Control_c, 0, 64, 0
2, 237756, Control_c, 0, 64, 15
2, 237776, Control_c, 0, 64, 39
2, 237795, Control_c, 0, 64, 56
2, 237815, Control_c, 0, 64, 61
2, 237833, Control_c, 0, 64, 64
2, 237853, Control_c, 0, 64, 65
2, 237855, Note_on_c, 0, 61, 63
2, 237858, Note_on_c, 0, 73, 70
2, 237872, Control_c, 0, 64, 67
2, 237887, Note_on_c, 0, 60, 0
2, 237891, Control_c, 0, 64, 71
2, 237908, Note_on_c, 0, 75, 0
2, 237910, Control_c, 0, 64, 77
2, 237930, Control_c, 0, 64, 87
2, 237949, Control_c, 0, 64, 90
2, 237958, Note_on_c, 0, 61, 0
2, 237987, Control_c, 0, 64, 88
2, 237990, Note_on_c, 0, 56, 0
2, 238006, Control_c, 0, 64, 86
2, 238025, Control_c, 0, 64, 83
2, 238043, Control_c, 0, 64, 80
2, 238065, Control_c, 0, 64, 76
2, 238072, Note_on_c, 0, 72, 74
2, 238074, Note_on_c, 0, 63, 58
2, 238077, Note_on_c, 0, 73, 0
2, 238084, Control_c, 0, 64, 73
2, 238103, Control_c, 0, 64, 70
2, 238122, Control_c, 0, 64, 68
2, 238142, Control_c, 0, 64, 66
2, 238160, Control_c, 0, 64, 65
2, 238180, Control_c, 0, 64, 64
2, 238199, Control_c, 0, 64, 63
2, 238219, Control_c, 0, 64, 62
2, 238237, Control_c, 0, 64, 61
2, 238257, Control_c, 0, 64, 59
2, 238268, Note_on_c, 0, 70, 67
2, 238276, Control_c, 0, 64, 58
2, 238279, Note_on_c, 0, 54, 54
2, 238295, Control_c, 0, 64, 57
2, 238314, Control_c, 0, 64, 56
2, 238314, Note_on_c, 0, 72, 0
2, 238334, Control_c, 0, 64, 55
2, 238353, Control_c, 0, 64, 54
2, 238372, Control_c, 0, 64, 52
2, 238390, Note_on_c, 0, 54, 0
2, 238391, Control_c, 0, 64, 50
2, 238411, Control_c, 0, 64, 48
2, 238429, Control_c, 0, 64, 46
2, 238449, Control_c, 0, 64, 43
2, 238452, Note_on_c, 0, 53, 50
2, 238463, Note_on_c, 0, 68, 67
2, 238468, Control_c, 0, 64, 40
2, 238487, Control_c, 0, 64, 36
2, 238506, Control_c, 0, 64, 30
2, 238525, Control_c, 0, 64, 21
2, 238543, Note_on_c, 0, 70, 0
2, 238545, Control_c, 0, 64, 0
2, 238634, Note_on_c, 0, 53, 0
2, 238662, Note_on_c, 0, 51, 49
2, 238673, Note_on_c, 0, 66, 61
2, 238700, Note_on_c, 0, 68, 0
2, 238882, Note_on_c, 0, 66, 0
2, 238883, Note_on_c, 0, 51, 0
2, 238918, Note_on_c, 0, 49, 55
2, 238931, Note_on_c, 0, 65, 59
2, 238965, Note_on_c, 0, 63, 0
2, 238986, Control_c, 0, 64, 33
2, 239002, Control_c, 0, 64, 56
2, 239022, Control_c, 0, 64, 63
2, 239043, Control_c, 0, 64, 65
2, 239051, Note_on_c, 0, 49, 0
2, 239062, Control_c, 0, 64, 65
2, 239081, Control_c, 0, 64, 67
2, 239101, Control_c, 0, 64, 70
2, 239119, Control_c, 0, 64, 77
2, 239139, Control_c, 0, 64, 84
2, 239158, Control_c, 0, 64, 87
2, 239196, Control_c, 0, 64, 87
2, 239216, Control_c, 0, 64, 86
2, 239235, Control_c, 0, 64, 85
2, 239255, Control_c, 0, 64, 83
2, 239273, Control_c, 0, 64, 80
2, 239293, Control_c, 0, 64, 74
2, 239304, Note_on_c, 0, 65, 0
2, 239312, Control_c, 0, 64, 67
2, 239331, Control_c, 0, 64, 61
2, 239350, Control_c, 0, 64, 52
2, 239351, Note_on_c, 0, 46, 48
2, 239355, Note_on_c, 0, 67, 57
2, 239370, Control_c, 0, 64, 51
2, 239378, Note_on_c, 0, 61, 51
2, 239389, Control_c, 0, 64, 54
2, 239407, Control_c, 0, 64, 57
2, 239427, Control_c, 0, 64, 58
2, 239437, Note_on_c, 0, 61, 0
2, 239446, Control_c, 0, 64, 59
2, 239465, Control_c, 0, 64, 60
2, 239484, Control_c, 0, 64, 61
2, 239541, Note_on_c, 0, 46, 0
2, 239553, Note_on_c, 0, 48, 52
2, 239553, Note_on_c, 0, 69, 70
2, 239557, Note_on_c, 0, 60, 54
2, 239581, Control_c, 0, 64, 60
2, 239597, Note_on_c, 0, 60, 0
2, 239619, Control_c, 0, 64, 60
2, 239676, Control_c, 0, 64, 59
2, 239696, Control_c, 0, 64, 59
2, 239715, Control_c, 0, 64, 56
2, 239735, Control_c, 0, 64, 52
2, 239753, Control_c, 0, 64, 47
2, 239773, Control_c, 0, 64, 39
2, 239781, Note_on_c, 0, 69, 0
2, 239782, Note_on_c, 0, 48, 0
2, 239790, Note_on_c, 0, 70, 72
2, 239791, Note_on_c, 0, 67, 0
2, 239792, Control_c, 0, 64, 27
2, 239800, Note_on_c, 0, 49, 59
2, 239805, Note_on_c, 0, 58, 55
2, 239811, Control_c, 0, 64, 19
2, 239830, Control_c, 0, 64, 22
2, 239850, Control_c, 0, 64, 39
2, 239869, Control_c, 0, 64, 51
2, 239887, Control_c, 0, 64, 57
2, 239907, Control_c, 0, 64, 59
2, 239915, Note_on_c, 0, 49, 0
2, 239926, Control_c, 0, 64, 61
2, 239945, Control_c, 0, 64, 62
2, 239963, Control_c, 0, 64, 64
2, 239985, Control_c, 0, 64, 66
2, 240004, Control_c, 0, 64, 68
2, 240023, Control_c, 0, 64, 69
2, 240042, Control_c, 0, 64, 70
2, 240100, Control_c, 0, 64, 70
2, 240139, Control_c, 0, 64, 69
2, 240157, Control_c, 0, 64, 69
2, 240177, Control_c, 0, 64, 68
2, 240196, Control_c, 0, 64, 67
2, 240215, Control_c, 0, 64, 66
2, 240230, Note_on_c, 0, 53, 59
2, 240232, Note_on_c, 0, 49, 55
2, 240234, Control_c, 0, 64, 65
2, 240254, Control_c, 0, 64, 63
2, 240273, Control_c, 0, 64, 62
2, 240273, Note_on_c, 0, 58, 0
2, 240292, Control_c, 0, 64, 61
2, 240311, Control_c, 0, 64, 60
2, 240331, Control_c, 0, 64, 59
2, 240349, Control_c, 0, 64, 58
2, 240368, Control_c, 0, 64, 56
2, 240388, Control_c, 0, 64, 55
2, 240407, Control_c, 0, 64, 54
2, 240424, Note_on_c, 0, 53, 0
2, 240424, Note_on_c, 0, 55, 63
2, 240426, Control_c, 0, 64, 54
2, 240430, Note_on_c, 0, 51, 51
2, 240445, Control_c, 0, 64, 52
2, 240465, Control_c, 0, 64, 51
2, 240465, Note_on_c, 0, 70, 0
2, 240484, Control_c, 0, 64, 49
2, 240487, Note_on_c, 0, 49, 0
2, 240503, Control_c, 0, 64, 46
2, 240522, Control_c, 0, 64, 36
2, 240542, Control_c, 0, 64, 0
2, 240638, Note_on_c, 0, 51, 0
2, 240642, Note_on_c, 0, 56, 66
2, 240656, Note_on_c, 0, 55, 0
2, 240658, Note_on_c, 0, 53, 62
2, 240753, Control_c, 0, 64, 17
2, 240772, Control_c, 0, 64, 40
2, 240791, Control_c, 0, 64, 53
2, 240811, Control_c, 0, 64, 61
2, 240829, Control_c, 0, 64, 63
2, 240848, Control_c, 0, 64, 64
2, 240867, Note_on_c, 0, 56, 0
2, 240868, Control_c, 0, 64, 66
2, 240887, Control_c, 0, 64, 68
2, 240906, Control_c, 0, 64, 71
2, 240925, Control_c, 0, 64, 74
2, 240945, Control_c, 0, 64, 75
2, 240983, Control_c, 0, 64, 74
2, 241022, Control_c, 0, 64, 74
2, 241040, Control_c, 0, 64, 73
2, 241060, Control_c, 0, 64, 72
2, 241079, Control_c, 0, 64, 69
2, 241099, Control_c, 0, 64, 64
2, 241111, Note_on_c, 0, 72, 66
2, 241117, Control_c, 0, 64, 58
2, 241134, Note_on_c, 0, 56, 61
2, 241137, Control_c, 0, 64, 43
2, 241156, Control_c, 0, 64, 0
2, 241233, Control_c, 0, 64, 24
2, 241252, Control_c, 0, 64, 44
2, 241271, Control_c, 0, 64, 54
2, 241291, Control_c, 0, 64, 59
2, 241309, Control_c, 0, 64, 63
2, 241309, Note_on_c, 0, 58, 56
2, 241310, Note_on_c, 0, 70, 70
2, 241328, Control_c, 0, 64, 65
2, 241348, Control_c, 0, 64, 66
2, 241367, Control_c, 0, 64, 69
2, 241376, Note_on_c, 0, 72, 0
2, 241380, Note_on_c, 0, 58, 0
2, 241386, Control_c, 0, 64, 71
2, 241396, Note_on_c, 0, 56, 0
2, 241405, Control_c, 0, 64, 73
2, 241429, Note_on_c, 0, 53, 0
2, 241444, Control_c, 0, 64, 72
2, 241463, Control_c, 0, 64, 72
2, 241482, Control_c, 0, 64, 71
2, 241502, Control_c, 0, 64, 70
2, 241507, Note_on_c, 0, 68, 70
2, 241520, Control_c, 0, 64, 69
2, 241520, Note_on_c, 0, 70, 0
2, 241534, Note_on_c, 0, 60, 55
2, 241540, Control_c, 0, 64, 68
2, 241559, Control_c, 0, 64, 66
2, 241579, Control_c, 0, 64, 65
2, 241597, Control_c, 0, 64, 64
2, 241617, Control_c, 0, 64, 64
2, 241636, Control_c, 0, 64, 63
2, 241655, Control_c, 0, 64, 62
2, 241674, Control_c, 0, 64, 61
2, 241691, Note_on_c, 0, 68, 0
2, 241694, Control_c, 0, 64, 60
2, 241713, Control_c, 0, 64, 59
2, 241713, Note_on_c, 0, 67, 59
2, 241719, Note_on_c, 0, 51, 54
2, 241732, Control_c, 0, 64, 57
2, 241751, Control_c, 0, 64, 55
2, 241771, Control_c, 0, 64, 53
2, 241789, Control_c, 0, 64, 50
2, 241808, Control_c, 0, 64, 48
2, 241828, Control_c, 0, 64, 47
2, 241847, Control_c, 0, 64, 46
2, 241866, Control_c, 0, 64, 45
2, 241905, Control_c, 0, 64, 44
2, 241924, Control_c, 0, 64, 44
2, 241930, Note_on_c, 0, 49, 55
2, 241930, Note_on_c, 0, 65, 59
2, 241956, Note_on_c, 0, 51, 0
2, 241962, Control_c, 0, 64, 43
2, 241982, Control_c, 0, 64, 43
2, 241989, Note_on_c, 0, 67, 0
2, 242084, Note_on_c, 0, 49, 0
2, 242118, Note_on_c, 0, 48, 50
2, 242128, Note_on_c, 0, 63, 64
2, 242184, Note_on_c, 0, 60, 0
2, 242193, Control_c, 0, 64, 42
2, 242195, Note_on_c, 0, 65, 0
2, 242300, Note_on_c, 0, 48, 0
2, 242330, Note_on_c, 0, 46, 48
2, 242346, Control_c, 0, 64, 42
2, 242357, Note_on_c, 0, 61, 64
2, 242373, Note_on_c, 0, 63, 0
2, 242550, Note_on_c, 0, 46, 0
2, 242559, Note_on_c, 0, 48, 49
2, 242753, Note_on_c, 0, 48, 0
2, 242772, Note_on_c, 0, 49, 61
2, 242776, Note_on_c, 0, 58, 59
2, 242913, Note_on_c, 0, 61, 0
2, 242931, Note_on_c, 0, 58, 0
2, 242932, Note_on_c, 0, 49, 0
2, 242948, Note_on_c, 0, 48, 52
2, 242953, Note_on_c, 0, 60, 67
2, 243000, Control_c, 0, 64, 42
2, 243154, Control_c, 0, 64, 43
2, 243170, Note_on_c, 0, 61, 64
2, 243171, Note_on_c, 0, 46, 54
2, 243172, Note_on_c, 0, 48, 0
2, 243235, Note_on_c, 0, 60, 0
2, 243375, Note_on_c, 0, 44, 56
2, 243375, Note_on_c, 0, 65, 62
2, 243387, Note_on_c, 0, 46, 0
2, 243538, Control_c, 0, 64, 42
2, 243563, Note_on_c, 0, 44, 0
2, 243577, Note_on_c, 0, 70, 71
2, 243587, Note_on_c, 0, 43, 51
2, 243613, Note_on_c, 0, 65, 0
2, 243770, Note_on_c, 0, 43, 0
2, 243770, Note_on_c, 0, 68, 66
2, 243787, Note_on_c, 0, 41, 47
2, 243814, Note_on_c, 0, 70, 0
2, 243941, Control_c, 0, 64, 41
2, 243960, Control_c, 0, 64, 35
2, 243980, Control_c, 0, 64, 0
2, 244013, Note_on_c, 0, 41, 0
2, 244039, Note_on_c, 0, 67, 62
2, 244039, Note_on_c, 0, 68, 0
2, 244052, Note_on_c, 0, 39, 44
2, 244078, Note_on_c, 0, 61, 0
2, 244152, Control_c, 0, 64, 35
2, 244172, Control_c, 0, 64, 51
2, 244190, Control_c, 0, 64, 57
2, 244210, Control_c, 0, 64, 62
2, 244229, Control_c, 0, 64, 64
2, 244248, Control_c, 0, 64, 66
2, 244267, Control_c, 0, 64, 71
2, 244286, Control_c, 0, 64, 76
2, 244306, Control_c, 0, 64, 82
2, 244324, Control_c, 0, 64, 86
2, 244344, Control_c, 0, 64, 86
2, 244401, Control_c, 0, 64, 86
2, 244421, Control_c, 0, 64, 84
2, 244440, Control_c, 0, 64, 82
2, 244460, Control_c, 0, 64, 79
2, 244478, Control_c, 0, 64, 74
2, 244498, Control_c, 0, 64, 68
2, 244498, Note_on_c, 0, 63, 66
2, 244517, Control_c, 0, 64, 62
2, 244519, Note_on_c, 0, 46, 43
2, 244535, Note_on_c, 0, 39, 0
2, 244536, Control_c, 0, 64, 52
2, 244555, Control_c, 0, 64, 34
2, 244575, Control_c, 0, 64, 26
2, 244594, Control_c, 0, 64, 36
2, 244613, Control_c, 0, 64, 49
2, 244632, Control_c, 0, 64, 57
2, 244652, Control_c, 0, 64, 60
2, 244670, Control_c, 0, 64, 62
2, 244673, Note_on_c, 0, 67, 0
2, 244683, Note_on_c, 0, 61, 74
2, 244690, Control_c, 0, 64, 65
2, 244709, Control_c, 0, 64, 70
2, 244728, Control_c, 0, 64, 77
2, 244746, Note_on_c, 0, 63, 0
2, 244747, Control_c, 0, 64, 88
2, 244761, Control_c, 0, 64, 96
2, 244785, Control_c, 0, 64, 99
2, 244804, Control_c, 0, 64, 99
2, 244862, Control_c, 0, 64, 99
2, 244880, Control_c, 0, 64, 96
2, 244900, Control_c, 0, 64, 91
2, 244912, Note_on_c, 0, 61, 0
2, 244919, Control_c, 0, 64, 82
2, 244931, Note_on_c, 0, 68, 73
2, 244938, Note_on_c, 0, 60, 52
2, 244939, Control_c, 0, 64, 70
2, 244940, Note_on_c, 0, 63, 48
2, 244945, Note_on_c, 0, 46, 0
2, 244948, Note_on_c, 0, 48, 38
2, 244957, Control_c, 0, 64, 62
2, 244977, Control_c, 0, 64, 41
2, 244996, Control_c, 0, 64, 0
2, 245073, Control_c, 0, 64, 31
2, 245092, Control_c, 0, 64, 53
2, 245111, Control_c, 0, 64, 62
2, 245131, Control_c, 0, 64, 65
2, 245149, Control_c, 0, 64, 68
2, 245168, Control_c, 0, 64, 72
2, 245188, Control_c, 0, 64, 79
2, 245195, Note_on_c, 0, 60, 0
2, 245207, Control_c, 0, 64, 88
2, 245226, Control_c, 0, 64, 95
2, 245245, Control_c, 0, 64, 96
2, 245284, Control_c, 0, 64, 92
2, 245303, Control_c, 0, 64, 83
2, 245322, Control_c, 0, 64, 72
2, 245331, Note_on_c, 0, 48, 0
2, 245342, Control_c, 0, 64, 63
2, 245360, Control_c, 0, 64, 38
2, 245375, Note_on_c, 0, 61, 56
2, 245378, Note_on_c, 0, 44, 47
2, 245380, Control_c, 0, 64, 15
2, 245399, Control_c, 0, 64, 37
2, 245419, Control_c, 0, 64, 53
2, 245437, Control_c, 0, 64, 59
2, 245457, Control_c, 0, 64, 62
2, 245471, Note_on_c, 0, 44, 0
2, 245476, Control_c, 0, 64, 64
2, 245482, Note_on_c, 0, 68, 0
2, 245495, Control_c, 0, 64, 69
2, 245514, Control_c, 0, 64, 76
2, 245517, Note_on_c, 0, 63, 0
2, 245521, Note_on_c, 0, 61, 0
2, 245534, Control_c, 0, 64, 87
2, 245553, Control_c, 0, 64, 97
2, 245572, Control_c, 0, 64, 100
2, 245572, Note_on_c, 0, 60, 55
2, 245591, Control_c, 0, 64, 101
2, 245687, Control_c, 0, 64, 100
2, 245706, Control_c, 0, 64, 99
2, 245725, Control_c, 0, 64, 94
2, 245745, Control_c, 0, 64, 83
2, 245764, Control_c, 0, 64, 69
2, 245783, Control_c, 0, 64, 59
2, 245791, Note_on_c, 0, 65, 61
2, 245793, Note_on_c, 0, 60, 0
2, 245797, Note_on_c, 0, 58, 47
2, 245802, Control_c, 0, 64, 26
2, 245812, Note_on_c, 0, 49, 45
2, 245822, Control_c, 0, 64, 0
2, 245899, Control_c, 0, 64, 35
2, 245917, Control_c, 0, 64, 56
2, 245937, Control_c, 0, 64, 63
2, 245954, Note_on_c, 0, 49, 0
2, 245956, Control_c, 0, 64, 67
2, 245975, Control_c, 0, 64, 71
2, 245992, Note_on_c, 0, 67, 67
2, 245994, Control_c, 0, 64, 81
2, 246014, Control_c, 0, 64, 96
2, 246033, Control_c, 0, 64, 127
2, 246167, Control_c, 0, 64, 117
2, 246174, Note_on_c, 0, 67, 0
2, 246183, Note_on_c, 0, 68, 76
2, 246186, Control_c, 0, 64, 80
2, 246205, Control_c, 0, 64, 65
2, 246207, Note_on_c, 0, 46, 47
2, 246225, Control_c, 0, 64, 48
2, 246244, Control_c, 0, 64, 49
2, 246263, Control_c, 0, 64, 60
2, 246282, Control_c, 0, 64, 63
2, 246302, Control_c, 0, 64, 65
2, 246320, Control_c, 0, 64, 69
2, 246340, Control_c, 0, 64, 76
2, 246359, Control_c, 0, 64, 91
2, 246360, Note_on_c, 0, 65, 0
2, 246363, Note_on_c, 0, 46, 0
2, 246379, Control_c, 0, 64, 127
2, 246384, Note_on_c, 0, 70, 76
2, 246436, Note_on_c, 0, 68, 0
2, 246589, Control_c, 0, 64, 110
2, 246608, Control_c, 0, 64, 86
2, 246625, Note_on_c, 0, 72, 73
2, 246628, Control_c, 0, 64, 69
2, 246634, Note_on_c, 0, 51, 46
2, 246647, Control_c, 0, 64, 52
2, 246648, Note_on_c, 0, 63, 47
2, 246666, Control_c, 0, 64, 0
2, 246672, Note_on_c, 0, 58, 0
2, 246673, Note_on_c, 0, 70, 0
2, 246762, Control_c, 0, 64, 19
2, 246782, Control_c, 0, 64, 51
2, 246800, Control_c, 0, 64, 62
2, 246820, Control_c, 0, 64, 66
2, 246839, Control_c, 0, 64, 69
2, 246859, Control_c, 0, 64, 76
2, 246873, Note_on_c, 0, 51, 0
2, 246877, Control_c, 0, 64, 90
2, 246897, Control_c, 0, 64, 106
2, 246916, Control_c, 0, 64, 127
2, 246926, Note_on_c, 0, 63, 0
2, 246993, Control_c, 0, 64, 104
2, 247012, Control_c, 0, 64, 83
2, 247031, Control_c, 0, 64, 69
2, 247051, Control_c, 0, 64, 57
2, 247065, Note_on_c, 0, 56, 56
2, 247069, Control_c, 0, 64, 41
2, 247073, Note_on_c, 0, 48, 46
2, 247088, Control_c, 0, 64, 48
2, 247108, Control_c, 0, 64, 57
2, 247127, Control_c, 0, 64, 61
2, 247146, Control_c, 0, 64, 64
2, 247165, Control_c, 0, 64, 66
2, 247182, Note_on_c, 0, 56, 0
2, 247185, Control_c, 0, 64, 69
2, 247204, Control_c, 0, 64, 73
2, 247223, Control_c, 0, 64, 80
2, 247242, Control_c, 0, 64, 87
2, 247254, Note_on_c, 0, 55, 59
2, 247258, Note_on_c, 0, 72, 0
2, 247262, Control_c, 0, 64, 89
2, 247319, Control_c, 0, 64, 89
2, 247339, Control_c, 0, 64, 88
2, 247357, Control_c, 0, 64, 86
2, 247362, Note_on_c, 0, 48, 0
2, 247377, Control_c, 0, 64, 81
2, 247389, Note_on_c, 0, 55, 0
2, 247396, Control_c, 0, 64, 73
2, 247415, Control_c, 0, 64, 63
2, 247434, Control_c, 0, 64, 45
2, 247452, Note_on_c, 0, 53, 49
2, 247454, Control_c, 0, 64, 0
2, 247468, Note_on_c, 0, 56, 53
2, 247468, Note_on_c, 0, 62, 64
2, 247531, Control_c, 0, 64, 17
2, 247549, Control_c, 0, 64, 50
2, 247568, Control_c, 0, 64, 62
2, 247572, Note_on_c, 0, 53, 0
2, 247588, Control_c, 0, 64, 66
2, 247607, Control_c, 0, 64, 69
2, 247626, Control_c, 0, 64, 74
2, 247643, Control_c, 0, 64, 83
2, 247665, Note_on_c, 0, 68, 73
2, 247666, Control_c, 0, 64, 97
2, 247684, Control_c, 0, 64, 117
2, 247703, Note_on_c, 0, 56, 0
2, 247704, Control_c, 0, 64, 127
2, 247820, Control_c, 0, 64, 113
2, 247838, Control_c, 0, 64, 86
2, 247849, Note_on_c, 0, 62, 0
2, 247858, Control_c, 0, 64, 69
2, 247869, Note_on_c, 0, 70, 78
2, 247877, Control_c, 0, 64, 55
2, 247878, Note_on_c, 0, 46, 46
2, 247878, Note_on_c, 0, 55, 50
2, 247896, Control_c, 0, 64, 0
2, 247954, Control_c, 0, 64, 11
2, 247973, Control_c, 0, 64, 46
2, 247984, Note_on_c, 0, 68, 0
2, 247992, Control_c, 0, 64, 60
2, 248012, Control_c, 0, 64, 65
2, 248030, Control_c, 0, 64, 68
2, 248049, Control_c, 0, 64, 72
2, 248052, Note_on_c, 0, 72, 81
2, 248060, Note_on_c, 0, 55, 0
2, 248067, Note_on_c, 0, 56, 57
2, 248069, Control_c, 0, 64, 80
2, 248088, Control_c, 0, 64, 94
2, 248107, Control_c, 0, 64, 127
2, 248121, Note_on_c, 0, 46, 0
2, 248124, Note_on_c, 0, 70, 0
2, 248224, Note_on_c, 0, 56, 0
2, 248261, Control_c, 0, 64, 88
2, 248275, Note_on_c, 0, 73, 80
2, 248280, Control_c, 0, 64, 70
2, 248285, Note_on_c, 0, 67, 62
2, 248292, Note_on_c, 0, 58, 49
2, 248300, Control_c, 0, 64, 56
2, 248318, Control_c, 0, 64, 0
2, 248342, Note_on_c, 0, 72, 0
2, 248434, Control_c, 0, 64, 21
2, 248453, Control_c, 0, 64, 31
2, 248453, Note_on_c, 0, 58, 0
2, 248472, Control_c, 0, 64, 35
2, 248479, Note_on_c, 0, 56, 65
2, 248492, Control_c, 0, 64, 35
2, 248510, Control_c, 0, 64, 36
2, 248568, Control_c, 0, 64, 35
2, 248659, Note_on_c, 0, 56, 0
2, 248664, Control_c, 0, 64, 37
2, 248683, Control_c, 0, 64, 38
2, 248700, Note_on_c, 0, 51, 55
2, 248703, Control_c, 0, 64, 39
2, 248704, Note_on_c, 0, 55, 49
2, 248868, Note_on_c, 0, 55, 0
2, 248875, Control_c, 0, 64, 39
2, 248882, Note_on_c, 0, 51, 0
2, 248895, Control_c, 0, 64, 40
2, 248899, Note_on_c, 0, 49, 61
2, 248917, Note_on_c, 0, 53, 56
2, 248952, Control_c, 0, 64, 39
2, 248972, Control_c, 0, 64, 37
2, 248990, Control_c, 0, 64, 31
2, 249009, Control_c, 0, 64, 19
2, 249023, Note_on_c, 0, 49, 0
2, 249029, Control_c, 0, 64, 0
2, 249083, Note_on_c, 0, 73, 0
2, 249086, Note_on_c, 0, 53, 0
2, 249091, Note_on_c, 0, 67, 0
2, 249108, Note_on_c, 0, 68, 77
2, 249116, Note_on_c, 0, 51, 56
2, 249121, Note_on_c, 0, 48, 55
2, 249240, Control_c, 0, 64, 47
2, 249260, Control_c, 0, 64, 64
2, 249278, Control_c, 0, 64, 70
2, 249285, Note_on_c, 0, 48, 0
2, 249298, Control_c, 0, 64, 80
2, 249299, Note_on_c, 0, 51, 0
2, 249308, Note_on_c, 0, 72, 87
2, 249317, Control_c, 0, 64, 94
2, 249336, Control_c, 0, 64, 127
2, 249509, Control_c, 0, 64, 116
2, 249513, Note_on_c, 0, 73, 85
2, 249524, Note_on_c, 0, 56, 68
2, 249527, Note_on_c, 0, 53, 65
2, 249528, Control_c, 0, 64, 83
2, 249547, Control_c, 0, 64, 66
2, 249562, Control_c, 0, 64, 47
2, 249582, Control_c, 0, 64, 0
2, 249622, Control_c, 0, 64, 46
2, 249641, Control_c, 0, 64, 57
2, 249661, Control_c, 0, 64, 61
2, 249679, Control_c, 0, 64, 62
2, 249688, Note_on_c, 0, 75, 85
2, 249699, Control_c, 0, 64, 64
2, 249718, Control_c, 0, 64, 65
2, 249738, Control_c, 0, 64, 67
2, 249745, Note_on_c, 0, 72, 0
2, 249756, Control_c, 0, 64, 70
2, 249776, Control_c, 0, 64, 74
2, 249795, Control_c, 0, 64, 76
2, 249815, Control_c, 0, 64, 77
2, 249833, Control_c, 0, 64, 76
2, 249853, Control_c, 0, 64, 75
2, 249872, Control_c, 0, 64, 73
2, 249891, Control_c, 0, 64, 70
2, 249910, Control_c, 0, 64, 67
2, 249912, Note_on_c, 0, 53, 0
2, 249913, Note_on_c, 0, 56, 0
2, 249915, Note_on_c, 0, 77, 87
2, 249922, Note_on_c, 0, 73, 0
2, 249929, Control_c, 0, 64, 62
2, 249938, Note_on_c, 0, 61, 68
2, 249952, Control_c, 0, 64, 46
2, 249970, Control_c, 0, 64, 0
2, 249996, Note_on_c, 0, 75, 0
2, 250122, Note_on_c, 0, 51, 58
2, 250132, Note_on_c, 0, 55, 62
2, 250230, Note_on_c, 0, 51, 0
2, 250244, Note_on_c, 0, 68, 0
2, 250259, Note_on_c, 0, 55, 0
2, 250308, Note_on_c, 0, 56, 71
2, 250316, Control_c, 0, 64, 19
2, 250322, Note_on_c, 0, 53, 68
2, 250335, Control_c, 0, 64, 41
2, 250355, Control_c, 0, 64, 54
2, 250373, Control_c, 0, 64, 60
2, 250388, Note_on_c, 0, 77, 0
2, 250393, Control_c, 0, 64, 63
2, 250405, Note_on_c, 0, 56, 0
2, 250412, Control_c, 0, 64, 66
2, 250432, Control_c, 0, 64, 71
2, 250432, Note_on_c, 0, 53, 0
2, 250450, Control_c, 0, 64, 83
2, 250470, Control_c, 0, 64, 102
2, 250489, Control_c, 0, 64, 127
2, 250509, Note_on_c, 0, 58, 74
2, 250526, Note_on_c, 0, 55, 61
2, 250578, Note_on_c, 0, 55, 0
2, 250598, Note_on_c, 0, 58, 0
2, 250602, Note_on_c, 0, 61, 0
2, 250726, Note_on_c, 0, 60, 68
2, 250733, Note_on_c, 0, 56, 75
2, 250758, Control_c, 0, 64, 98
2, 250777, Control_c, 0, 64, 85
2, 250796, Control_c, 0, 64, 75
2, 250815, Control_c, 0, 64, 67
2, 250835, Control_c, 0, 64, 60
2, 250851, Note_on_c, 0, 56, 0
2, 250853, Control_c, 0, 64, 50
2, 250873, Control_c, 0, 64, 43
2, 250919, Note_on_c, 0, 75, 86
2, 250930, Control_c, 0, 64, 43
2, 250943, Note_on_c, 0, 55, 64
2, 251007, Control_c, 0, 64, 43
2, 251027, Control_c, 0, 64, 42
2, 251046, Control_c, 0, 64, 40
2, 251065, Control_c, 0, 64, 36
2, 251084, Control_c, 0, 64, 26
2, 251104, Control_c, 0, 64, 0
2, 251130, Note_on_c, 0, 53, 65
2, 251133, Note_on_c, 0, 77, 90
2, 251197, Note_on_c, 0, 55, 0
2, 251257, Control_c, 0, 64, 46
2, 251276, Control_c, 0, 64, 62
2, 251295, Control_c, 0, 64, 67
2, 251315, Control_c, 0, 64, 75
2, 251332, Note_on_c, 0, 51, 63
2, 251333, Control_c, 0, 64, 91
2, 251333, Note_on_c, 0, 53, 0
2, 251334, Note_on_c, 0, 79, 95
2, 251353, Control_c, 0, 64, 127
2, 251385, Note_on_c, 0, 75, 0
2, 251388, Note_on_c, 0, 60, 0
2, 251472, Note_on_c, 0, 51, 0
2, 251577, Note_on_c, 0, 80, 95
2, 251585, Note_on_c, 0, 50, 70
2, 251587, Note_on_c, 0, 59, 70
2, 251602, Control_c, 0, 64, 90
2, 251621, Control_c, 0, 64, 73
2, 251624, Note_on_c, 0, 77, 0
2, 251639, Note_on_c, 0, 79, 0
2, 251641, Control_c, 0, 64, 61
2, 251660, Control_c, 0, 64, 27
2, 251679, Control_c, 0, 64, 0
2, 251792, Note_on_c, 0, 53, 72
2, 251812, Note_on_c, 0, 50, 0
2, 251987, Control_c, 0, 64, 39
2, 252006, Control_c, 0, 64, 55
2, 252013, Note_on_c, 0, 55, 72
2, 252025, Control_c, 0, 64, 63
2, 252044, Control_c, 0, 64, 66
2, 252049, Note_on_c, 0, 53, 0
2, 252064, Control_c, 0, 64, 70
2, 252082, Control_c, 0, 64, 78
2, 252101, Control_c, 0, 64, 101
2, 252108, Note_on_c, 0, 59, 0
2, 252121, Control_c, 0, 64, 127
2, 252209, Note_on_c, 0, 55, 0
2, 252216, Note_on_c, 0, 56, 81
2, 252317, Note_on_c, 0, 56, 0
2, 252428, Control_c, 0, 64, 107
2, 252440, Note_on_c, 0, 58, 76
2, 252441, Note_on_c, 0, 51, 73
2, 252444, Control_c, 0, 64, 79
2, 252468, Control_c, 0, 64, 65
2, 252487, Control_c, 0, 64, 40
2, 252506, Control_c, 0, 64, 0
2, 252540, Note_on_c, 0, 80, 0
2, 252583, Control_c, 0, 64, 45
2, 252602, Control_c, 0, 64, 61
2, 252621, Control_c, 0, 64, 67
2, 252640, Control_c, 0, 64, 75
2, 252648, Note_on_c, 0, 51, 0
2, 252659, Control_c, 0, 64, 95
2, 252679, Control_c, 0, 64, 127
2, 252851, Control_c, 0, 64, 114
2, 252871, Control_c, 0, 64, 82
2, 252877, Note_on_c, 0, 79, 89
2, 252880, Note_on_c, 0, 50, 63
2, 252890, Control_c, 0, 64, 66
2, 252909, Control_c, 0, 64, 48
2, 252928, Control_c, 0, 64, 0
2, 252948, Control_c, 0, 64, 31
2, 252967, Control_c, 0, 64, 53
2, 252986, Control_c, 0, 64, 62
2, 253005, Control_c, 0, 64, 65
2, 253025, Control_c, 0, 64, 68
2, 253043, Control_c, 0, 64, 76
2, 253063, Control_c, 0, 64, 103
2, 253082, Control_c, 0, 64, 127
2, 253089, Note_on_c, 0, 77, 87
2, 253177, Note_on_c, 0, 79, 0
2, 253284, Note_on_c, 0, 58, 0
2, 253293, Note_on_c, 0, 50, 0
2, 253351, Control_c, 0, 64, 115
2, 253351, Note_on_c, 0, 79, 89
2, 253369, Note_on_c, 0, 52, 59
2, 253370, Control_c, 0, 64, 83
2, 253389, Control_c, 0, 64, 67
2, 253390, Note_on_c, 0, 77, 0
2, 253405, Control_c, 0, 64, 51
2, 253425, Control_c, 0, 64, 0
2, 253503, Control_c, 0, 64, 19
2, 253522, Control_c, 0, 64, 48
2, 253540, Control_c, 0, 64, 61
2, 253560, Control_c, 0, 64, 65
2, 253579, Control_c, 0, 64, 69
2, 253589, Note_on_c, 0, 55, 58
2, 253598, Control_c, 0, 64, 76
2, 253617, Control_c, 0, 64, 86
2, 253637, Control_c, 0, 64, 97
2, 253648, Note_on_c, 0, 52, 0
2, 253656, Control_c, 0, 64, 103
2, 253714, Control_c, 0, 64, 102
2, 253732, Control_c, 0, 64, 99
2, 253745, Note_on_c, 0, 55, 0
2, 253752, Control_c, 0, 64, 94
2, 253771, Control_c, 0, 64, 88
2, 253791, Control_c, 0, 64, 78
2, 253801, Note_on_c, 0, 53, 61
2, 253809, Control_c, 0, 64, 68
2, 253814, Note_on_c, 0, 48, 51
2, 253829, Control_c, 0, 64, 52
2, 253848, Control_c, 0, 64, 0
2, 253969, Note_on_c, 0, 48, 0
2, 254002, Control_c, 0, 64, 41
2, 254004, Note_on_c, 0, 52, 65
2, 254020, Control_c, 0, 64, 63
2, 254033, Note_on_c, 0, 53, 0
2, 254040, Control_c, 0, 64, 68
2, 254059, Control_c, 0, 64, 74
2, 254078, Control_c, 0, 64, 81
2, 254097, Control_c, 0, 64, 90
2, 254117, Control_c, 0, 64, 96
2, 254136, Control_c, 0, 64, 101
2, 254155, Control_c, 0, 64, 103
2, 254173, Note_on_c, 0, 79, 0
2, 254194, Control_c, 0, 64, 102
2, 254212, Control_c, 0, 64, 101
2, 254232, Control_c, 0, 64, 99
2, 254251, Control_c, 0, 64, 94
2, 254266, Note_on_c, 0, 53, 45
2, 254270, Note_on_c, 0, 56, 62
2, 254271, Control_c, 0, 64, 87
2, 254286, Control_c, 0, 64, 78
2, 254306, Control_c, 0, 64, 69
2, 254325, Control_c, 0, 64, 63
2, 254335, Note_on_c, 0, 52, 0
2, 254345, Control_c, 0, 64, 56
2, 254363, Control_c, 0, 64, 50
2, 254383, Control_c, 0, 64, 50
2, 254449, Note_on_c, 0, 53, 0
2, 254494, Note_on_c, 0, 72, 61
2, 254517, Control_c, 0, 64, 49
2, 254555, Control_c, 0, 64, 49
2, 254575, Control_c, 0, 64, 48
2, 254594, Control_c, 0, 64, 47
2, 254614, Control_c, 0, 64, 47
2, 254699, Note_on_c, 0, 53, 48
2, 254703, Note_on_c, 0, 74, 59
2, 254783, Note_on_c, 0, 56, 0
2, 254786, Control_c, 0, 64, 46
2, 254805, Control_c, 0, 64, 44
2, 254825, Control_c, 0, 64, 40
2, 254843, Control_c, 0, 64, 20
2, 254863, Control_c, 0, 64, 0
2, 254893, Note_on_c, 0, 51, 51
2, 254909, Note_on_c, 0, 75, 67
2, 254927, Note_on_c, 0, 53, 0
2, 254951, Note_on_c, 0, 72, 0
2, 255095, Note_on_c, 0, 74, 0
2, 255118, Note_on_c, 0, 77, 61
2, 255121, Note_on_c, 0, 75, 0
2, 255132, Note_on_c, 0, 51, 0
2, 255135, Note_on_c, 0, 50, 49
2, 255189, Control_c, 0, 64, 34
2, 255208, Control_c, 0, 64, 53
2, 255228, Control_c, 0, 64, 61
2, 255246, Control_c, 0, 64, 63
2, 255266, Control_c, 0, 64, 64
2, 255285, Control_c, 0, 64, 65
2, 255305, Control_c, 0, 64, 68
2, 255313, Note_on_c, 0, 50, 0
2, 255323, Control_c, 0, 64, 70
2, 255332, Note_on_c, 0, 71, 58
2, 255343, Control_c, 0, 64, 73
2, 255362, Control_c, 0, 64, 74
2, 255381, Control_c, 0, 64, 73
2, 255400, Control_c, 0, 64, 72
2, 255420, Control_c, 0, 64, 71
2, 255439, Control_c, 0, 64, 70
2, 255458, Control_c, 0, 64, 69
2, 255477, Control_c, 0, 64, 67
2, 255497, Control_c, 0, 64, 66
2, 255508, Note_on_c, 0, 50, 47
2, 255515, Control_c, 0, 64, 65
2, 255528, Note_on_c, 0, 72, 63
2, 255535, Control_c, 0, 64, 63
2, 255554, Control_c, 0, 64, 62
2, 255573, Note_on_c, 0, 71, 0
2, 255574, Control_c, 0, 64, 61
2, 255592, Control_c, 0, 64, 60
2, 255611, Control_c, 0, 64, 59
2, 255631, Control_c, 0, 64, 57
2, 255649, Control_c, 0, 64, 56
2, 255669, Control_c, 0, 64, 54
2, 255688, Control_c, 0, 64, 52
2, 255708, Control_c, 0, 64, 51
2, 255722, Note_on_c, 0, 48, 50
2, 255722, Note_on_c, 0, 72, 0
2, 255726, Control_c, 0, 64, 51
2, 255726, Note_on_c, 0, 74, 59
2, 255745, Note_on_c, 0, 50, 0
2, 255746, Control_c, 0, 64, 50
2, 255765, Control_c, 0, 64, 49
2, 255785, Control_c, 0, 64, 47
2, 255803, Control_c, 0, 64, 46
2, 255823, Control_c, 0, 64, 46
2, 255842, Control_c, 0, 64, 45
2, 255861, Control_c, 0, 64, 45
2, 255880, Control_c, 0, 64, 44
2, 255917, Note_on_c, 0, 48, 0
2, 255933, Note_on_c, 0, 47, 42
2, 255939, Note_on_c, 0, 74, 0
2, 255956, Note_on_c, 0, 67, 51
2, 256143, Note_on_c, 0, 43, 51
2, 256149, Note_on_c, 0, 47, 0
2, 256361, Note_on_c, 0, 45, 50
2, 256366, Note_on_c, 0, 75, 64
2, 256418, Note_on_c, 0, 43, 0
2, 256536, Note_on_c, 0, 77, 0
2, 256555, Note_on_c, 0, 74, 69
2, 256568, Note_on_c, 0, 45, 0
2, 256568, Note_on_c, 0, 47, 55
2, 256597, Note_on_c, 0, 75, 0
2, 256617, Note_on_c, 0, 67, 0
2, 256670, Control_c, 0, 64, 44
2, 256738, Note_on_c, 0, 47, 0
2, 256779, Note_on_c, 0, 75, 69
2, 256789, Note_on_c, 0, 48, 53
2, 256789, Note_on_c, 0, 74, 0
2, 256880, Control_c, 0, 64, 43
2, 256939, Control_c, 0, 64, 43
2, 256970, Note_on_c, 0, 48, 0
2, 256990, Note_on_c, 0, 44, 51
2, 257168, Control_c, 0, 64, 43
2, 257200, Note_on_c, 0, 46, 56
2, 257202, Note_on_c, 0, 66, 55
2, 257206, Note_on_c, 0, 44, 0
2, 257380, Control_c, 0, 64, 44
2, 257386, Note_on_c, 0, 66, 0
2, 257392, Note_on_c, 0, 46, 0
2, 257398, Note_on_c, 0, 48, 53
2, 257630, Note_on_c, 0, 49, 52
2, 257632, Note_on_c, 0, 65, 51
2, 257668, Control_c, 0, 64, 44
2, 257678, Note_on_c, 0, 48, 0
2, 257687, Control_c, 0, 64, 45
2, 257706, Control_c, 0, 64, 46
2, 257725, Control_c, 0, 64, 46
2, 257745, Control_c, 0, 64, 47
2, 257764, Control_c, 0, 64, 47
2, 257824, Note_on_c, 0, 68, 64
2, 257875, Note_on_c, 0, 49, 0
2, 257937, Note_on_c, 0, 75, 0
2, 257956, Control_c, 0, 64, 47
2, 258029, Note_on_c, 0, 70, 67
2, 258036, Note_on_c, 0, 49, 53
2, 258051, Control_c, 0, 64, 46
2, 258076, Note_on_c, 0, 65, 0
2, 258110, Control_c, 0, 64, 46
2, 258167, Control_c, 0, 64, 45
2, 258185, Note_on_c, 0, 49, 0
2, 258229, Note_on_c, 0, 48, 40
2, 258236, Note_on_c, 0, 72, 67
2, 258264, Note_on_c, 0, 68, 0
2, 258283, Note_on_c, 0, 70, 0
2, 258415, Note_on_c, 0, 48, 0
2, 258441, Note_on_c, 0, 46, 43
2, 258460, Note_on_c, 0, 73, 66
2, 258467, Note_on_c, 0, 72, 0
2, 258569, Control_c, 0, 64, 46
2, 258665, Note_on_c, 0, 67, 58
2, 258670, Note_on_c, 0, 46, 0
2, 258862, Note_on_c, 0, 46, 48
2, 258862, Note_on_c, 0, 68, 62
2, 258935, Control_c, 0, 64, 45
2, 259025, Note_on_c, 0, 73, 0
2, 259057, Note_on_c, 0, 70, 63
2, 259068, Note_on_c, 0, 46, 0
2, 259069, Note_on_c, 0, 44, 50
2, 259106, Note_on_c, 0, 67, 0
2, 259126, Control_c, 0, 64, 45
2, 259242, Note_on_c, 0, 44, 0
2, 259265, Note_on_c, 0, 68, 0
2, 259277, Note_on_c, 0, 63, 59
2, 259282, Note_on_c, 0, 70, 0
2, 259295, Note_on_c, 0, 43, 46
2, 259465, Note_on_c, 0, 43, 0
2, 259480, Note_on_c, 0, 39, 53
2, 259567, Control_c, 0, 64, 44
2, 259690, Note_on_c, 0, 72, 66
2, 259700, Note_on_c, 0, 41, 55
2, 259702, Note_on_c, 0, 39, 0
2, 259870, Note_on_c, 0, 41, 0
2, 259883, Note_on_c, 0, 70, 73
2, 259900, Note_on_c, 0, 43, 52
2, 259958, Note_on_c, 0, 72, 0
2, 260038, Note_on_c, 0, 63, 0
2, 260105, Note_on_c, 0, 43, 0
2, 260105, Note_on_c, 0, 72, 71
2, 260111, Note_on_c, 0, 44, 51
2, 260163, Note_on_c, 0, 70, 0
2, 260289, Note_on_c, 0, 44, 0
2, 260302, Note_on_c, 0, 66, 67
2, 260305, Note_on_c, 0, 41, 53
2, 260498, Note_on_c, 0, 43, 52
2, 260504, Note_on_c, 0, 65, 68
2, 260510, Note_on_c, 0, 66, 0
2, 260517, Note_on_c, 0, 41, 0
2, 260689, Note_on_c, 0, 45, 55
2, 260700, Note_on_c, 0, 63, 69
2, 260704, Note_on_c, 0, 43, 0
2, 260729, Note_on_c, 0, 65, 0
2, 260828, Note_on_c, 0, 72, 0
2, 260924, Note_on_c, 0, 46, 55
2, 260932, Note_on_c, 0, 61, 68
2, 260937, Note_on_c, 0, 63, 0
2, 260940, Note_on_c, 0, 45, 0
2, 261107, Note_on_c, 0, 46, 0
2, 261114, Note_on_c, 0, 45, 60
2, 261351, Note_on_c, 0, 65, 65
2, 261375, Note_on_c, 0, 46, 55
2, 261385, Note_on_c, 0, 45, 0
2, 261486, Control_c, 0, 64, 44
2, 261530, Note_on_c, 0, 46, 0
2, 261557, Note_on_c, 0, 48, 54
2, 261582, Control_c, 0, 64, 43
2, 261620, Control_c, 0, 64, 43
2, 261769, Note_on_c, 0, 70, 72
2, 261774, Note_on_c, 0, 48, 0
2, 261774, Note_on_c, 0, 49, 49
2, 261775, Note_on_c, 0, 65, 0
2, 261870, Control_c, 0, 64, 42
2, 261962, Note_on_c, 0, 46, 48
2, 261991, Note_on_c, 0, 49, 0
2, 262171, Note_on_c, 0, 48, 42
2, 262172, Note_on_c, 0, 46, 0
2, 262187, Note_on_c, 0, 68, 61
2, 262205, Note_on_c, 0, 70, 0
2, 262292, Control_c, 0, 64, 42
2, 262374, Note_on_c, 0, 48, 0
2, 262380, Note_on_c, 0, 49, 51
2, 262622, Note_on_c, 0, 68, 0
2, 262637, Control_c, 0, 64, 43
2, 262650, Note_on_c, 0, 51, 40
2, 262656, Note_on_c, 0, 49, 0
2, 262657, Control_c, 0, 64, 45
2, 262658, Note_on_c, 0, 67, 52
2, 262676, Control_c, 0, 64, 49
2, 262694, Note_on_c, 0, 61, 0
2, 262696, Control_c, 0, 64, 54
2, 262714, Control_c, 0, 64, 57
2, 262734, Control_c, 0, 64, 60
2, 262753, Control_c, 0, 64, 62
2, 262772, Control_c, 0, 64, 64
2, 262791, Control_c, 0, 64, 68
2, 262811, Control_c, 0, 64, 73
2, 262830, Control_c, 0, 64, 83
2, 262847, Note_on_c, 0, 51, 0
2, 262849, Control_c, 0, 64, 90
2, 262868, Control_c, 0, 64, 94
2, 262892, Note_on_c, 0, 58, 50
2, 262907, Control_c, 0, 64, 94
2, 262945, Control_c, 0, 64, 94
2, 262965, Control_c, 0, 64, 93
2, 262983, Control_c, 0, 64, 92
2, 263000, Control_c, 0, 64, 90
2, 263020, Control_c, 0, 64, 87
2, 263039, Note_on_c, 0, 58, 0
2, 263040, Control_c, 0, 64, 83
2, 263059, Control_c, 0, 64, 78
2, 263071, Note_on_c, 0, 51, 40
2, 263078, Control_c, 0, 64, 73
2, 263083, Note_on_c, 0, 60, 51
2, 263098, Control_c, 0, 64, 68
2, 263116, Control_c, 0, 64, 66
2, 263136, Control_c, 0, 64, 64
2, 263155, Control_c, 0, 64, 62
2, 263175, Control_c, 0, 64, 60
2, 263193, Control_c, 0, 64, 58
2, 263213, Control_c, 0, 64, 57
2, 263232, Control_c, 0, 64, 57
2, 263244, Note_on_c, 0, 60, 0
2, 263252, Control_c, 0, 64, 56
2, 263270, Control_c, 0, 64, 55
2, 263270, Note_on_c, 0, 61, 58
2, 263271, Note_on_c, 0, 49, 50
2, 263272, Note_on_c, 0, 51, 0
2, 263290, Control_c, 0, 64, 54
2, 263297, Note_on_c, 0, 67, 0
2, 263309, Control_c, 0, 64, 53
2, 263328, Control_c, 0, 64, 52
2, 263347, Control_c, 0, 64, 50
2, 263367, Control_c, 0, 64, 49
2, 263386, Control_c, 0, 64, 45
2, 263405, Control_c, 0, 64, 41
2, 263424, Control_c, 0, 64, 36
2, 263444, Control_c, 0, 64, 32
2, 263462, Control_c, 0, 64, 29
2, 263474, Note_on_c, 0, 61, 0
2, 263481, Control_c, 0, 64, 29
2, 263500, Note_on_c, 0, 48, 41
2, 263504, Note_on_c, 0, 49, 0
2, 263505, Note_on_c, 0, 63, 57
2, 263539, Control_c, 0, 64, 33
2, 263558, Control_c, 0, 64, 40
2, 263578, Control_c, 0, 64, 48
2, 263596, Control_c, 0, 64, 54
2, 263616, Control_c, 0, 64, 58
2, 263635, Control_c, 0, 64, 60
2, 263655, Control_c, 0, 64, 63
2, 263673, Control_c, 0, 64, 65
2, 263693, Control_c, 0, 64, 68
2, 263697, Note_on_c, 0, 67, 54
2, 263712, Control_c, 0, 64, 71
2, 263721, Note_on_c, 0, 48, 0
2, 263732, Control_c, 0, 64, 74
2, 263750, Control_c, 0, 64, 77
2, 263789, Control_c, 0, 64, 76
2, 263808, Control_c, 0, 64, 74
2, 263827, Control_c, 0, 64, 73
2, 263847, Control_c, 0, 64, 71
2, 263866, Control_c, 0, 64, 70
2, 263885, Control_c, 0, 64, 69
2, 263904, Control_c, 0, 64, 67
2, 263904, Note_on_c, 0, 68, 62
2, 263908, Note_on_c, 0, 48, 48
2, 263924, Control_c, 0, 64, 65
2, 263942, Control_c, 0, 64, 64
2, 263960, Control_c, 0, 64, 62
2, 263980, Control_c, 0, 64, 61
2, 264000, Control_c, 0, 64, 58
2, 264019, Control_c, 0, 64, 55
2, 264038, Control_c, 0, 64, 47
2, 264054, Note_on_c, 0, 48, 0
2, 264058, Control_c, 0, 64, 31
2, 264076, Control_c, 0, 64, 0
2, 264091, Note_on_c, 0, 70, 67
2, 264100, Note_on_c, 0, 46, 48
2, 264119, Note_on_c, 0, 67, 0
2, 264158, Note_on_c, 0, 68, 0
2, 264191, Note_on_c, 0, 63, 0
2, 264273, Note_on_c, 0, 46, 0
2, 264299, Note_on_c, 0, 44, 54
2, 264312, Note_on_c, 0, 72, 70
2, 264348, Note_on_c, 0, 70, 0
2, 264461, Control_c, 0, 64, 42
2, 264480, Control_c, 0, 64, 62
2, 264496, Note_on_c, 0, 44, 0
2, 264499, Control_c, 0, 64, 66
2, 264517, Note_on_c, 0, 63, 69
2, 264518, Control_c, 0, 64, 69
2, 264538, Control_c, 0, 64, 72
2, 264556, Control_c, 0, 64, 76
2, 264576, Control_c, 0, 64, 80
2, 264595, Control_c, 0, 64, 81
2, 264615, Control_c, 0, 64, 81
2, 264633, Control_c, 0, 64, 79
2, 264653, Control_c, 0, 64, 77
2, 264672, Control_c, 0, 64, 74
2, 264692, Control_c, 0, 64, 72
2, 264710, Control_c, 0, 64, 69
2, 264718, Note_on_c, 0, 63, 0
2, 264724, Note_on_c, 0, 65, 67
2, 264730, Control_c, 0, 64, 68
2, 264736, Note_on_c, 0, 56, 63
2, 264749, Control_c, 0, 64, 67
2, 264768, Control_c, 0, 64, 66
2, 264787, Control_c, 0, 64, 64
2, 264807, Control_c, 0, 64, 63
2, 264826, Control_c, 0, 64, 62
2, 264845, Control_c, 0, 64, 60
2, 264864, Control_c, 0, 64, 59
2, 264884, Control_c, 0, 64, 59
2, 264902, Control_c, 0, 64, 58
2, 264912, Note_on_c, 0, 67, 73
2, 264916, Note_on_c, 0, 55, 66
2, 264920, Control_c, 0, 64, 57
2, 264940, Control_c, 0, 64, 56
2, 264945, Note_on_c, 0, 65, 0
2, 264947, Note_on_c, 0, 72, 0
2, 264948, Note_on_c, 0, 56, 0
2, 264959, Control_c, 0, 64, 54
2, 264978, Control_c, 0, 64, 52
2, 264997, Control_c, 0, 64, 46
2, 265017, Control_c, 0, 64, 21
2, 265036, Control_c, 0, 64, 0
2, 265124, Note_on_c, 0, 67, 0
2, 265140, Note_on_c, 0, 68, 80
2, 265142, Note_on_c, 0, 53, 65
2, 265218, Note_on_c, 0, 55, 0
2, 265266, Control_c, 0, 64, 18
2, 265286, Control_c, 0, 64, 46
2, 265305, Control_c, 0, 64, 62
2, 265324, Control_c, 0, 64, 66
2, 265334, Note_on_c, 0, 72, 81
2, 265343, Control_c, 0, 64, 71
2, 265363, Control_c, 0, 64, 81
2, 265382, Control_c, 0, 64, 100
2, 265387, Note_on_c, 0, 53, 0
2, 265400, Control_c, 0, 64, 127
2, 265516, Control_c, 0, 64, 118
2, 265533, Note_on_c, 0, 74, 84
2, 265535, Control_c, 0, 64, 86
2, 265541, Note_on_c, 0, 53, 74
2, 265554, Control_c, 0, 64, 69
2, 265574, Control_c, 0, 64, 48
2, 265577, Note_on_c, 0, 72, 0
2, 265592, Control_c, 0, 64, 0
2, 265651, Control_c, 0, 64, 39
2, 265669, Control_c, 0, 64, 57
2, 265689, Control_c, 0, 64, 64
2, 265708, Control_c, 0, 64, 69
2, 265727, Control_c, 0, 64, 78
2, 265731, Note_on_c, 0, 75, 86
2, 265742, Note_on_c, 0, 51, 71
2, 265746, Control_c, 0, 64, 99
2, 265753, Note_on_c, 0, 53, 0
2, 265766, Control_c, 0, 64, 127
2, 265805, Note_on_c, 0, 74, 0
2, 265951, Note_on_c, 0, 68, 0
2, 265978, Control_c, 0, 64, 103
2, 265984, Note_on_c, 0, 77, 88
2, 265992, Note_on_c, 0, 51, 0
2, 265995, Note_on_c, 0, 50, 74
2, 265996, Control_c, 0, 64, 82
2, 266016, Control_c, 0, 64, 69
2, 266035, Control_c, 0, 64, 54
2, 266043, Note_on_c, 0, 75, 0
2, 266055, Control_c, 0, 64, 0
2, 266226, Note_on_c, 0, 72, 77
2, 266285, Control_c, 0, 64, 48
2, 266304, Control_c, 0, 64, 61
2, 266324, Control_c, 0, 64, 63
2, 266342, Control_c, 0, 64, 65
2, 266361, Control_c, 0, 64, 68
2, 266381, Control_c, 0, 64, 75
2, 266396, Note_on_c, 0, 50, 0
2, 266400, Control_c, 0, 64, 92
2, 266417, Note_on_c, 0, 70, 77
2, 266419, Control_c, 0, 64, 127
2, 266432, Note_on_c, 0, 72, 0
2, 266505, Note_on_c, 0, 70, 0
2, 266611, Note_on_c, 0, 68, 77
2, 266724, Note_on_c, 0, 77, 0
2, 266829, Note_on_c, 0, 67, 75
2, 266838, Note_on_c, 0, 51, 67
2, 266838, Note_on_c, 0, 68, 0
2, 266841, Control_c, 0, 64, 96
2, 266846, Note_on_c, 0, 58, 68
2, 266861, Control_c, 0, 64, 76
2, 266880, Control_c, 0, 64, 63
2, 266899, Control_c, 0, 64, 11
2, 266918, Control_c, 0, 64, 0
2, 267031, Note_on_c, 0, 70, 75
2, 267048, Note_on_c, 0, 51, 0
2, 267092, Control_c, 0, 64, 31
2, 267110, Control_c, 0, 64, 40
2, 267130, Control_c, 0, 64, 45
2, 267149, Control_c, 0, 64, 46
2, 267201, Note_on_c, 0, 70, 0
2, 267207, Control_c, 0, 64, 46
2, 267226, Control_c, 0, 64, 49
2, 267229, Note_on_c, 0, 75, 81
2, 267245, Control_c, 0, 64, 53
2, 267248, Note_on_c, 0, 55, 56
2, 267253, Note_on_c, 0, 67, 0
2, 267264, Control_c, 0, 64, 56
2, 267284, Control_c, 0, 64, 60
2, 267302, Control_c, 0, 64, 64
2, 267321, Control_c, 0, 64, 68
2, 267341, Control_c, 0, 64, 75
2, 267360, Control_c, 0, 64, 89
2, 267379, Control_c, 0, 64, 105
2, 267398, Control_c, 0, 64, 127
2, 267408, Note_on_c, 0, 55, 0
2, 267415, Note_on_c, 0, 67, 69
2, 267431, Note_on_c, 0, 58, 0
2, 267489, Note_on_c, 0, 75, 0
2, 267609, Note_on_c, 0, 67, 0
2, 267610, Control_c, 0, 64, 116
2, 267629, Control_c, 0, 64, 92
2, 267632, Note_on_c, 0, 65, 74
2, 267636, Note_on_c, 0, 56, 65
2, 267644, Note_on_c, 0, 60, 66
2, 267648, Control_c, 0, 64, 74
2, 267667, Control_c, 0, 64, 64
2, 267687, Control_c, 0, 64, 52
2, 267706, Control_c, 0, 64, 29
2, 267725, Control_c, 0, 64, 0
2, 267829, Note_on_c, 0, 56, 0
2, 267837, Note_on_c, 0, 75, 78
2, 267840, Control_c, 0, 64, 11
2, 267859, Control_c, 0, 64, 13
2, 267898, Control_c, 0, 64, 11
2, 267916, Control_c, 0, 64, 0
2, 268032, Note_on_c, 0, 74, 67
2, 268049, Note_on_c, 0, 53, 58
2, 268095, Note_on_c, 0, 75, 0
2, 268109, Control_c, 0, 64, 32
2, 268128, Control_c, 0, 64, 47
2, 268142, Note_on_c, 0, 60, 0
2, 268147, Control_c, 0, 64, 56
2, 268167, Control_c, 0, 64, 62
2, 268186, Control_c, 0, 64, 66
2, 268205, Control_c, 0, 64, 71
2, 268222, Note_on_c, 0, 74, 0
2, 268224, Control_c, 0, 64, 81
2, 268227, Note_on_c, 0, 72, 77
2, 268244, Control_c, 0, 64, 95
2, 268262, Control_c, 0, 64, 112
2, 268281, Control_c, 0, 64, 127
2, 268358, Control_c, 0, 64, 117
2, 268378, Control_c, 0, 64, 103
2, 268396, Control_c, 0, 64, 89
2, 268416, Control_c, 0, 64, 75
2, 268435, Control_c, 0, 64, 64
2, 268447, Note_on_c, 0, 65, 0
2, 268455, Control_c, 0, 64, 41
2, 268457, Note_on_c, 0, 53, 0
2, 268460, Note_on_c, 0, 58, 64
2, 268464, Note_on_c, 0, 74, 75
2, 268473, Control_c, 0, 64, 0
2, 268493, Note_on_c, 0, 72, 0
2, 268589, Control_c, 0, 64, 36
2, 268608, Control_c, 0, 64, 55
2, 268627, Control_c, 0, 64, 61
2, 268647, Control_c, 0, 64, 62
2, 268664, Note_on_c, 0, 75, 73
2, 268666, Control_c, 0, 64, 63
2, 268684, Note_on_c, 0, 74, 0
2, 268685, Control_c, 0, 64, 63
2, 268704, Control_c, 0, 64, 65
2, 268724, Control_c, 0, 64, 67
2, 268742, Control_c, 0, 64, 68
2, 268760, Control_c, 0, 64, 68
2, 268780, Control_c, 0, 64, 67
2, 268799, Control_c, 0, 64, 65
2, 268818, Control_c, 0, 64, 62
2, 268837, Control_c, 0, 64, 56
2, 268857, Control_c, 0, 64, 44
2, 268860, Note_on_c, 0, 75, 0
2, 268869, Note_on_c, 0, 46, 57
2, 268870, Note_on_c, 0, 72, 68
2, 268876, Control_c, 0, 64, 17
2, 268895, Control_c, 0, 64, 18
2, 268914, Control_c, 0, 64, 36
2, 268934, Control_c, 0, 64, 51
2, 268952, Control_c, 0, 64, 59
2, 268972, Control_c, 0, 64, 62
2, 268991, Control_c, 0, 64, 65
2, 269011, Control_c, 0, 64, 70
2, 269019, Note_on_c, 0, 46, 0
2, 269028, Note_on_c, 0, 58, 0
2, 269029, Control_c, 0, 64, 77
2, 269049, Control_c, 0, 64, 86
2, 269068, Control_c, 0, 64, 94
2, 269080, Note_on_c, 0, 72, 0
2, 269080, Note_on_c, 0, 74, 69
2, 269087, Control_c, 0, 64, 98
2, 269106, Control_c, 0, 64, 98
2, 269145, Control_c, 0, 64, 99
2, 269183, Control_c, 0, 64, 98
2, 269202, Control_c, 0, 64, 98
2, 269222, Control_c, 0, 64, 93
2, 269240, Control_c, 0, 64, 84
2, 269260, Control_c, 0, 64, 73
2, 269279, Control_c, 0, 64, 63
2, 269297, Note_on_c, 0, 60, 59
2, 269297, Note_on_c, 0, 75, 70
2, 269298, Control_c, 0, 64, 36
2, 269303, Note_on_c, 0, 48, 43
2, 269304, Note_on_c, 0, 74, 0
2, 269310, Note_on_c, 0, 57, 58
2, 269317, Control_c, 0, 64, 0
2, 269375, Control_c, 0, 64, 15
2, 269394, Control_c, 0, 64, 44
2, 269409, Note_on_c, 0, 48, 0
2, 269414, Control_c, 0, 64, 59
2, 269432, Control_c, 0, 64, 66
2, 269452, Control_c, 0, 64, 71
2, 269471, Control_c, 0, 64, 80
2, 269491, Control_c, 0, 64, 95
2, 269495, Note_on_c, 0, 60, 0
2, 269499, Note_on_c, 0, 72, 74
2, 269509, Control_c, 0, 64, 127
2, 269571, Note_on_c, 0, 75, 0
2, 269682, Control_c, 0, 64, 95
2, 269701, Note_on_c, 0, 60, 58
2, 269702, Control_c, 0, 64, 73
2, 269704, Note_on_c, 0, 74, 76
2, 269718, Control_c, 0, 64, 62
2, 269738, Control_c, 0, 64, 45
2, 269758, Control_c, 0, 64, 51
2, 269760, Note_on_c, 0, 72, 0
2, 269777, Control_c, 0, 64, 61
2, 269796, Control_c, 0, 64, 64
2, 269816, Control_c, 0, 64, 68
2, 269835, Control_c, 0, 64, 76
2, 269854, Control_c, 0, 64, 95
2, 269870, Note_on_c, 0, 60, 0
2, 269873, Control_c, 0, 64, 127
2, 269887, Note_on_c, 0, 75, 88
2, 269894, Note_on_c, 0, 58, 69
2, 269935, Note_on_c, 0, 57, 0
2, 270080, Note_on_c, 0, 74, 0
2, 270085, Control_c, 0, 64, 95
2, 270104, Control_c, 0, 64, 68
2, 270112, Note_on_c, 0, 56, 64
2, 270113, Note_on_c, 0, 77, 86
2, 270122, Control_c, 0, 64, 37
2, 270127, Note_on_c, 0, 62, 70
2, 270142, Control_c, 0, 64, 0
2, 270147, Note_on_c, 0, 75, 0
2, 270155, Note_on_c, 0, 58, 0
2, 270257, Control_c, 0, 64, 44
2, 270276, Control_c, 0, 64, 60
2, 270296, Control_c, 0, 64, 65
2, 270310, Note_on_c, 0, 75, 82
2, 270315, Control_c, 0, 64, 69
2, 270334, Control_c, 0, 64, 76
2, 270353, Control_c, 0, 64, 88
2, 270362, Note_on_c, 0, 56, 0
2, 270373, Control_c, 0, 64, 110
2, 270392, Control_c, 0, 64, 127
2, 270433, Note_on_c, 0, 77, 0
2, 270468, Control_c, 0, 64, 110
2, 270488, Control_c, 0, 64, 80
2, 270507, Control_c, 0, 64, 65
2, 270514, Note_on_c, 0, 74, 77
2, 270527, Control_c, 0, 64, 44
2, 270527, Note_on_c, 0, 58, 60
2, 270545, Control_c, 0, 64, 49
2, 270565, Control_c, 0, 64, 60
2, 270584, Control_c, 0, 64, 63
2, 270595, Note_on_c, 0, 62, 0
2, 270602, Control_c, 0, 64, 65
2, 270622, Control_c, 0, 64, 69
2, 270641, Control_c, 0, 64, 78
2, 270661, Control_c, 0, 64, 102
2, 270680, Control_c, 0, 64, 127
2, 270699, Note_on_c, 0, 74, 0
2, 270711, Note_on_c, 0, 72, 76
2, 270726, Note_on_c, 0, 56, 64
2, 270734, Note_on_c, 0, 58, 0
2, 270747, Note_on_c, 0, 72, 0
2, 270765, Note_on_c, 0, 56, 0
2, 270768, Note_on_c, 0, 75, 0
2, 270911, Control_c, 0, 64, 121
2, 270927, Note_on_c, 0, 70, 75
2, 270931, Control_c, 0, 64, 89
2, 270932, Note_on_c, 0, 63, 70
2, 270934, Note_on_c, 0, 55, 60
2, 270949, Control_c, 0, 64, 75
2, 270969, Control_c, 0, 64, 66
2, 270988, Control_c, 0, 64, 59
2, 271007, Control_c, 0, 64, 55
2, 271065, Control_c, 0, 64, 54
2, 271084, Control_c, 0, 64, 48
2, 271103, Control_c, 0, 64, 30
2, 271122, Control_c, 0, 64, 0
2, 271127, Note_on_c, 0, 60, 70
2, 271205, Note_on_c, 0, 63, 0
2, 271326, Note_on_c, 0, 46, 55
2, 271340, Note_on_c, 0, 62, 66
2, 271367, Note_on_c, 0, 60, 0
2, 271462, Note_on_c, 0, 55, 0
2, 271514, Note_on_c, 0, 46, 0
2, 271523, Note_on_c, 0, 48, 57
2, 271544, Note_on_c, 0, 63, 59
2, 271606, Note_on_c, 0, 62, 0
2, 271729, Note_on_c, 0, 63, 0
2, 271745, Note_on_c, 0, 48, 0
2, 271749, Note_on_c, 0, 65, 58
2, 271756, Note_on_c, 0, 50, 55
2, 271760, Note_on_c, 0, 56, 55
2, 271817, Control_c, 0, 64, 17
2, 271835, Control_c, 0, 64, 46
2, 271854, Control_c, 0, 64, 61
2, 271874, Control_c, 0, 64, 65
2, 271885, Note_on_c, 0, 50, 0
2, 271893, Control_c, 0, 64, 67
2, 271912, Control_c, 0, 64, 70
2, 271931, Control_c, 0, 64, 73
2, 271951, Control_c, 0, 64, 78
2, 271953, Note_on_c, 0, 63, 69
2, 271969, Control_c, 0, 64, 82
2, 271985, Note_on_c, 0, 65, 0
2, 271989, Control_c, 0, 64, 84
2, 272026, Note_on_c, 0, 70, 0
2, 272028, Control_c, 0, 64, 83
2, 272046, Control_c, 0, 64, 81
2, 272066, Control_c, 0, 64, 80
2, 272085, Control_c, 0, 64, 77
2, 272105, Control_c, 0, 64, 74
2, 272123, Control_c, 0, 64, 70
2, 272138, Note_on_c, 0, 56, 0
2, 272143, Control_c, 0, 64, 66
2, 272153, Note_on_c, 0, 62, 64
2, 272162, Control_c, 0, 64, 63
2, 272164, Note_on_c, 0, 48, 48
2, 272181, Control_c, 0, 64, 61
2, 272200, Control_c, 0, 64, 59
2, 272327, Note_on_c, 0, 62, 0
2, 272339, Note_on_c, 0, 50, 55
2, 272345, Note_on_c, 0, 48, 0
2, 272345, Note_on_c, 0, 60, 65
2, 272365, Note_on_c, 0, 63, 0
2, 272449, Control_c, 0, 64, 58
2, 272469, Control_c, 0, 64, 57
2, 272488, Control_c, 0, 64, 53
2, 272505, Note_on_c, 0, 50, 0
2, 272508, Control_c, 0, 64, 42
2, 272526, Control_c, 0, 64, 0
2, 272545, Note_on_c, 0, 58, 66
2, 272545, Note_on_c, 0, 60, 0
2, 272550, Note_on_c, 0, 51, 55
2, 272559, Note_on_c, 0, 55, 51
2, 272680, Control_c, 0, 64, 43
2, 272691, Note_on_c, 0, 51, 0
2, 272700, Control_c, 0, 64, 59
2, 272719, Control_c, 0, 64, 65
2, 272738, Control_c, 0, 64, 69
2, 272751, Note_on_c, 0, 68, 73
2, 272757, Control_c, 0, 64, 74
2, 272777, Control_c, 0, 64, 82
2, 272795, Control_c, 0, 64, 90
2, 272814, Control_c, 0, 64, 96
2, 272834, Control_c, 0, 64, 99
2, 272870, Note_on_c, 0, 68, 0
2, 272911, Control_c, 0, 64, 96
2, 272929, Control_c, 0, 64, 87
2, 272949, Control_c, 0, 64, 75
2, 272960, Note_on_c, 0, 51, 65
2, 272968, Control_c, 0, 64, 65
2, 272968, Note_on_c, 0, 67, 72
2, 272988, Control_c, 0, 64, 54
2, 273006, Control_c, 0, 64, 18
2, 273026, Control_c, 0, 64, 28
2, 273045, Control_c, 0, 64, 48
2, 273065, Control_c, 0, 64, 57
2, 273083, Control_c, 0, 64, 61
2, 273103, Control_c, 0, 64, 64
2, 273122, Control_c, 0, 64, 67
2, 273132, Note_on_c, 0, 55, 0
2, 273141, Control_c, 0, 64, 71
2, 273155, Note_on_c, 0, 50, 68
2, 273157, Note_on_c, 0, 65, 77
2, 273160, Control_c, 0, 64, 77
2, 273180, Control_c, 0, 64, 84
2, 273199, Control_c, 0, 64, 88
2, 273203, Note_on_c, 0, 51, 0
2, 273212, Note_on_c, 0, 67, 0
2, 273218, Control_c, 0, 64, 89
2, 273237, Control_c, 0, 64, 88
2, 273257, Control_c, 0, 64, 87
2, 273275, Control_c, 0, 64, 85
2, 273294, Control_c, 0, 64, 82
2, 273314, Control_c, 0, 64, 80
2, 273333, Control_c, 0, 64, 76
2, 273352, Control_c, 0, 64, 72
2, 273371, Control_c, 0, 64, 67
2, 273371, Note_on_c, 0, 58, 0
2, 273385, Note_on_c, 0, 50, 0
2, 273391, Control_c, 0, 64, 63
2, 273395, Note_on_c, 0, 63, 77
2, 273409, Control_c, 0, 64, 57
2, 273413, Note_on_c, 0, 54, 59
2, 273416, Note_on_c, 0, 48, 53
2, 273429, Control_c, 0, 64, 37
2, 273448, Control_c, 0, 64, 0
2, 273456, Note_on_c, 0, 58, 3
2, 273470, Note_on_c, 0, 58, 0
2, 273470, Note_on_c, 0, 65, 0
2, 273583, Control_c, 0, 64, 45
2, 273602, Control_c, 0, 64, 59
2, 273621, Control_c, 0, 64, 64
2, 273640, Control_c, 0, 64, 66
2, 273647, Note_on_c, 0, 48, 0
2, 273660, Control_c, 0, 64, 69
2, 273679, Control_c, 0, 64, 75
2, 273698, Control_c, 0, 64, 84
2, 273717, Control_c, 0, 64, 89
2, 273737, Control_c, 0, 64, 90
2, 273755, Control_c, 0, 64, 89
2, 273774, Control_c, 0, 64, 84
2, 273794, Control_c, 0, 64, 76
2, 273803, Note_on_c, 0, 57, 63
2, 273813, Control_c, 0, 64, 66
2, 273816, Note_on_c, 0, 48, 53
2, 273832, Control_c, 0, 64, 56
2, 273851, Control_c, 0, 64, 43
2, 273871, Control_c, 0, 64, 42
2, 273889, Control_c, 0, 64, 50
2, 273909, Control_c, 0, 64, 57
2, 273928, Control_c, 0, 64, 60
2, 273948, Control_c, 0, 64, 62
2, 273959, Note_on_c, 0, 48, 0
2, 273966, Control_c, 0, 64, 65
2, 273986, Control_c, 0, 64, 68
2, 273998, Note_on_c, 0, 46, 52
2, 274003, Note_on_c, 0, 58, 63
2, 274005, Control_c, 0, 64, 73
2, 274016, Note_on_c, 0, 57, 0
2, 274025, Control_c, 0, 64, 80
2, 274043, Control_c, 0, 64, 86
2, 274063, Control_c, 0, 64, 88
2, 274120, Control_c, 0, 64, 87
2, 274140, Control_c, 0, 64, 86
2, 274142, Note_on_c, 0, 46, 0
2, 274157, Note_on_c, 0, 54, 0
2, 274159, Control_c, 0, 64, 86
2, 274178, Control_c, 0, 64, 84
2, 274197, Control_c, 0, 64, 82
2, 274217, Control_c, 0, 64, 80
2, 274224, Note_on_c, 0, 58, 0
2, 274235, Control_c, 0, 64, 77
2, 274254, Control_c, 0, 64, 72
2, 274258, Note_on_c, 0, 45, 49
2, 274258, Note_on_c, 0, 53, 53
2, 274259, Note_on_c, 0, 60, 62
2, 274274, Control_c, 0, 64, 67
2, 274277, Note_on_c, 0, 63, 0
2, 274293, Control_c, 0, 64, 64
2, 274312, Control_c, 0, 64, 58
2, 274331, Control_c, 0, 64, 47
2, 274351, Control_c, 0, 64, 0
2, 274444, Note_on_c, 0, 63, 70
2, 274659, Control_c, 0, 64, 37
2, 274661, Note_on_c, 0, 65, 72
2, 274678, Control_c, 0, 64, 53
2, 274691, Note_on_c, 0, 63, 0
2, 274698, Control_c, 0, 64, 61
2, 274716, Control_c, 0, 64, 64
2, 274736, Control_c, 0, 64, 67
2, 274755, Control_c, 0, 64, 71
2, 274774, Control_c, 0, 64, 77
2, 274785, Note_on_c, 0, 45, 0
2, 274789, Note_on_c, 0, 60, 0
2, 274793, Control_c, 0, 64, 87
2, 274812, Control_c, 0, 64, 93
2, 274832, Control_c, 0, 64, 96
2, 274837, Note_on_c, 0, 63, 73
2, 274850, Control_c, 0, 64, 97
2, 274870, Control_c, 0, 64, 98
2, 274883, Note_on_c, 0, 65, 0
2, 274927, Control_c, 0, 64, 97
2, 274947, Control_c, 0, 64, 96
2, 274966, Control_c, 0, 64, 93
2, 274985, Control_c, 0, 64, 89
2, 275004, Control_c, 0, 64, 83
2, 275024, Control_c, 0, 64, 77
2, 275043, Control_c, 0, 64, 71
2, 275043, Note_on_c, 0, 46, 47
2, 275045, Note_on_c, 0, 63, 0
2, 275059, Note_on_c, 0, 58, 45
2, 275062, Control_c, 0, 64, 65
2, 275067, Note_on_c, 0, 62, 68
2, 275081, Control_c, 0, 64, 59
2, 275101, Control_c, 0, 64, 47
2, 275120, Control_c, 0, 64, 21
2, 275139, Control_c, 0, 64, 0
2, 275261, Note_on_c, 0, 72, 67
2, 275475, Note_on_c, 0, 70, 62
2, 275552, Note_on_c, 0, 72, 0
2, 275646, Note_on_c, 0, 62, 0
2, 275682, Note_on_c, 0, 68, 59
2, 275742, Note_on_c, 0, 70, 0
2, 275858, Note_on_c, 0, 46, 0
2, 275897, Note_on_c, 0, 68, 0
2, 275915, Note_on_c, 0, 53, 0
2, 275919, Note_on_c, 0, 67, 53
2, 275936, Note_on_c, 0, 51, 33
2, 276041, Control_c, 0, 64, 9
2, 276061, Control_c, 0, 64, 43
2, 276080, Control_c, 0, 64, 57
2, 276099, Control_c, 0, 64, 62
2, 276100, Note_on_c, 0, 67, 0
2, 276118, Control_c, 0, 64, 64
2, 276138, Control_c, 0, 64, 66
2, 276156, Control_c, 0, 64, 70
2, 276176, Control_c, 0, 64, 78
2, 276195, Control_c, 0, 64, 87
2, 276214, Control_c, 0, 64, 94
2, 276233, Control_c, 0, 64, 95
2, 276290, Control_c, 0, 64, 93
2, 276310, Control_c, 0, 64, 86
2, 276329, Control_c, 0, 64, 77
2, 276349, Control_c, 0, 64, 67
2, 276360, Note_on_c, 0, 70, 68
2, 276367, Control_c, 0, 64, 60
2, 276387, Control_c, 0, 64, 49
2, 276395, Note_on_c, 0, 63, 37
2, 276406, Control_c, 0, 64, 39
2, 276425, Control_c, 0, 64, 41
2, 276440, Control_c, 0, 64, 50
2, 276459, Control_c, 0, 64, 55
2, 276482, Control_c, 0, 64, 59
2, 276501, Control_c, 0, 64, 62
2, 276520, Control_c, 0, 64, 64
2, 276525, Note_on_c, 0, 70, 0
2, 276540, Control_c, 0, 64, 66
2, 276543, Note_on_c, 0, 63, 0
2, 276558, Note_on_c, 0, 51, 0
2, 276559, Control_c, 0, 64, 68
2, 276569, Note_on_c, 0, 65, 59
2, 276578, Control_c, 0, 64, 72
2, 276597, Control_c, 0, 64, 79
2, 276617, Control_c, 0, 64, 86
2, 276635, Control_c, 0, 64, 88
2, 276731, Control_c, 0, 64, 87
2, 276751, Control_c, 0, 64, 87
2, 276769, Control_c, 0, 64, 86
2, 276789, Control_c, 0, 64, 85
2, 276808, Control_c, 0, 64, 82
2, 276828, Control_c, 0, 64, 78
2, 276841, Note_on_c, 0, 65, 0
2, 276846, Control_c, 0, 64, 73
2, 276847, Note_on_c, 0, 75, 68
2, 276866, Control_c, 0, 64, 65
2, 276877, Note_on_c, 0, 67, 31
2, 276885, Control_c, 0, 64, 58
2, 276905, Control_c, 0, 64, 45
2, 276923, Control_c, 0, 64, 15
2, 276943, Control_c, 0, 64, 0
2, 276981, Control_c, 0, 64, 23
2, 277000, Control_c, 0, 64, 44
2, 277020, Control_c, 0, 64, 55
2, 277039, Control_c, 0, 64, 60
2, 277058, Control_c, 0, 64, 62
2, 277077, Control_c, 0, 64, 64
2, 277088, Note_on_c, 0, 67, 0
2, 277097, Control_c, 0, 64, 66
2, 277115, Control_c, 0, 64, 68
2, 277134, Control_c, 0, 64, 71
2, 277154, Control_c, 0, 64, 72
2, 277192, Control_c, 0, 64, 71
2, 277211, Control_c, 0, 64, 71
2, 277231, Control_c, 0, 64, 69
2, 277249, Control_c, 0, 64, 68
2, 277266, Note_on_c, 0, 67, 44
2, 277269, Control_c, 0, 64, 66
2, 277281, Note_on_c, 0, 51, 41
2, 277288, Control_c, 0, 64, 65
2, 277308, Control_c, 0, 64, 63
2, 277326, Control_c, 0, 64, 62
2, 277346, Control_c, 0, 64, 61
2, 277365, Control_c, 0, 64, 60
2, 277385, Control_c, 0, 64, 57
2, 277403, Control_c, 0, 64, 54
2, 277423, Control_c, 0, 64, 49
2, 277423, Note_on_c, 0, 58, 0
2, 277435, Note_on_c, 0, 67, 0
2, 277442, Control_c, 0, 64, 42
2, 277442, Note_on_c, 0, 51, 0
2, 277461, Control_c, 0, 64, 30
2, 277478, Note_on_c, 0, 68, 55
2, 277480, Control_c, 0, 64, 0
2, 277480, Note_on_c, 0, 53, 41
2, 277681, Note_on_c, 0, 70, 58
2, 277684, Note_on_c, 0, 68, 0
2, 277688, Note_on_c, 0, 53, 0
2, 277691, Control_c, 0, 64, 36
2, 277700, Note_on_c, 0, 55, 40
2, 277711, Control_c, 0, 64, 53
2, 277729, Control_c, 0, 64, 61
2, 277749, Control_c, 0, 64, 63
2, 277752, Note_on_c, 0, 55, 0
2, 277768, Control_c, 0, 64, 64
2, 277788, Control_c, 0, 64, 66
2, 277806, Control_c, 0, 64, 70
2, 277826, Control_c, 0, 64, 78
2, 277845, Control_c, 0, 64, 87
2, 277865, Control_c, 0, 64, 91
2, 277878, Note_on_c, 0, 79, 74
2, 277918, Note_on_c, 0, 75, 0
2, 277980, Control_c, 0, 64, 91
2, 277999, Control_c, 0, 64, 90
2, 278018, Control_c, 0, 64, 88
2, 278037, Control_c, 0, 64, 84
2, 278057, Control_c, 0, 64, 77
2, 278075, Control_c, 0, 64, 69
2, 278075, Note_on_c, 0, 55, 41
2, 278076, Note_on_c, 0, 77, 77
2, 278091, Note_on_c, 0, 58, 48
2, 278094, Control_c, 0, 64, 60
2, 278114, Control_c, 0, 64, 47
2, 278133, Control_c, 0, 64, 29
2, 278152, Control_c, 0, 64, 28
2, 278161, Note_on_c, 0, 79, 0
2, 278171, Control_c, 0, 64, 35
2, 278191, Control_c, 0, 64, 46
2, 278209, Control_c, 0, 64, 55
2, 278227, Note_on_c, 0, 55, 0
2, 278229, Control_c, 0, 64, 61
2, 278248, Control_c, 0, 64, 64
2, 278248, Note_on_c, 0, 58, 0
2, 278260, Note_on_c, 0, 75, 81
2, 278268, Control_c, 0, 64, 67
2, 278269, Note_on_c, 0, 56, 50
2, 278286, Control_c, 0, 64, 71
2, 278292, Note_on_c, 0, 60, 55
2, 278292, Note_on_c, 0, 77, 0
2, 278306, Control_c, 0, 64, 81
2, 278325, Control_c, 0, 64, 96
2, 278345, Control_c, 0, 64, 109
2, 278362, Control_c, 0, 64, 115
2, 278409, Note_on_c, 0, 56, 0
2, 278440, Control_c, 0, 64, 114
2, 278447, Note_on_c, 0, 60, 0
2, 278460, Control_c, 0, 64, 107
2, 278478, Note_on_c, 0, 74, 84
2, 278479, Control_c, 0, 64, 94
2, 278480, Note_on_c, 0, 75, 0
2, 278498, Control_c, 0, 64, 78
2, 278498, Note_on_c, 0, 58, 55
2, 278504, Note_on_c, 0, 70, 0
2, 278512, Note_on_c, 0, 62, 52
2, 278517, Control_c, 0, 64, 64
2, 278537, Control_c, 0, 64, 42
2, 278555, Control_c, 0, 64, 0
2, 278613, Control_c, 0, 64, 18
2, 278632, Control_c, 0, 64, 47
2, 278651, Control_c, 0, 64, 62
2, 278671, Control_c, 0, 64, 66
2, 278689, Control_c, 0, 64, 70
2, 278689, Note_on_c, 0, 60, 58
2, 278700, Note_on_c, 0, 68, 71
2, 278705, Note_on_c, 0, 62, 0
2, 278709, Control_c, 0, 64, 78
2, 278718, Note_on_c, 0, 58, 0
2, 278726, Note_on_c, 0, 60, 0
2, 278728, Control_c, 0, 64, 94
2, 278748, Control_c, 0, 64, 127
2, 278863, Control_c, 0, 64, 102
2, 278882, Control_c, 0, 64, 78
2, 278894, Note_on_c, 0, 58, 56
2, 278900, Note_on_c, 0, 67, 67
2, 278901, Control_c, 0, 64, 64
2, 278910, Note_on_c, 0, 46, 51
2, 278920, Control_c, 0, 64, 19
2, 278940, Control_c, 0, 64, 0
2, 278952, Note_on_c, 0, 68, 0
2, 278997, Control_c, 0, 64, 39
2, 279017, Control_c, 0, 64, 55
2, 279029, Note_on_c, 0, 58, 0
2, 279035, Control_c, 0, 64, 62
2, 279054, Control_c, 0, 64, 64
2, 279074, Control_c, 0, 64, 65
2, 279075, Note_on_c, 0, 67, 0
2, 279080, Note_on_c, 0, 46, 0
2, 279091, Note_on_c, 0, 65, 63
2, 279093, Control_c, 0, 64, 66
2, 279109, Note_on_c, 0, 56, 60
2, 279112, Control_c, 0, 64, 68
2, 279131, Control_c, 0, 64, 71
2, 279151, Control_c, 0, 64, 76
2, 279169, Control_c, 0, 64, 80
2, 279208, Control_c, 0, 64, 77
2, 279228, Control_c, 0, 64, 73
2, 279246, Control_c, 0, 64, 69
2, 279266, Control_c, 0, 64, 67
2, 279285, Control_c, 0, 64, 65
2, 279304, Note_on_c, 0, 65, 0
2, 279305, Control_c, 0, 64, 65
2, 279319, Note_on_c, 0, 74, 0
2, 279322, Control_c, 0, 64, 64
2, 279322, Note_on_c, 0, 63, 63
2, 279329, Note_on_c, 0, 56, 0
2, 279335, Note_on_c, 0, 55, 53
2, 279340, Note_on_c, 0, 48, 46
2, 279342, Control_c, 0, 64, 63
2, 279363, Control_c, 0, 64, 61
2, 279382, Control_c, 0, 64, 59
2, 279401, Control_c, 0, 64, 52
2, 279421, Control_c, 0, 64, 22
2, 279440, Control_c, 0, 64, 0
2, 279515, Note_on_c, 0, 63, 0
2, 279516, Note_on_c, 0, 62, 62
2, 279721, Note_on_c, 0, 62, 0
2, 279723, Note_on_c, 0, 67, 65
2, 279738, Note_on_c, 0, 60, 56
2, 279862, Control_c, 0, 64, 23
2, 279881, Control_c, 0, 64, 55
2, 279895, Note_on_c, 0, 67, 0
2, 279901, Control_c, 0, 64, 64
2, 279917, Note_on_c, 0, 60, 0
2, 279920, Control_c, 0, 64, 66
2, 279924, Note_on_c, 0, 62, 57
2, 279939, Control_c, 0, 64, 69
2, 279958, Control_c, 0, 64, 74
2, 279978, Control_c, 0, 64, 81
2, 279996, Control_c, 0, 64, 86
2, 280015, Control_c, 0, 64, 88
2, 280054, Control_c, 0, 64, 87
2, 280054, Note_on_c, 0, 48, 0
2, 280073, Control_c, 0, 64, 87
2, 280092, Control_c, 0, 64, 86
2, 280112, Control_c, 0, 64, 85
2, 280130, Control_c, 0, 64, 81
2, 280150, Control_c, 0, 64, 74
2, 280168, Note_on_c, 0, 62, 0
2, 280169, Control_c, 0, 64, 65
2, 280183, Note_on_c, 0, 72, 64
2, 280189, Control_c, 0, 64, 56
2, 280207, Control_c, 0, 64, 41
2, 280215, Note_on_c, 0, 63, 43
2, 280227, Control_c, 0, 64, 17
2, 280246, Control_c, 0, 64, 9
2, 280265, Control_c, 0, 64, 19
2, 280284, Control_c, 0, 64, 34
2, 280304, Control_c, 0, 64, 49
2, 280322, Control_c, 0, 64, 57
2, 280341, Control_c, 0, 64, 60
2, 280360, Control_c, 0, 64, 62
2, 280380, Control_c, 0, 64, 64
2, 280399, Control_c, 0, 64, 67
2, 280409, Note_on_c, 0, 63, 0
2, 280418, Control_c, 0, 64, 70
2, 280437, Control_c, 0, 64, 74
2, 280457, Control_c, 0, 64, 76
2, 280475, Control_c, 0, 64, 77
2, 280514, Control_c, 0, 64, 76
2, 280533, Control_c, 0, 64, 76
2, 280552, Control_c, 0, 64, 74
2, 280571, Control_c, 0, 64, 71
2, 280591, Control_c, 0, 64, 67
2, 280609, Control_c, 0, 64, 62
2, 280613, Note_on_c, 0, 63, 57
2, 280622, Note_on_c, 0, 48, 44
2, 280629, Control_c, 0, 64, 56
2, 280648, Control_c, 0, 64, 45
2, 280668, Control_c, 0, 64, 27
2, 280686, Control_c, 0, 64, 0
2, 280738, Note_on_c, 0, 48, 0
2, 280790, Note_on_c, 0, 63, 0
2, 280805, Note_on_c, 0, 50, 46
2, 280812, Note_on_c, 0, 65, 57
2, 280973, Note_on_c, 0, 50, 0
2, 281012, Note_on_c, 0, 67, 59
2, 281017, Note_on_c, 0, 51, 47
2, 281021, Note_on_c, 0, 65, 0
2, 281039, Note_on_c, 0, 55, 0
2, 281071, Control_c, 0, 64, 20
2, 281089, Control_c, 0, 64, 47
2, 281109, Control_c, 0, 64, 60
2, 281120, Note_on_c, 0, 51, 0
2, 281128, Control_c, 0, 64, 65
2, 281148, Control_c, 0, 64, 67
2, 281166, Control_c, 0, 64, 70
2, 281186, Control_c, 0, 64, 76
2, 281204, Note_on_c, 0, 72, 0
2, 281205, Control_c, 0, 64, 84
2, 281211, Note_on_c, 0, 75, 71
2, 281225, Control_c, 0, 64, 91
2, 281243, Control_c, 0, 64, 94
2, 281263, Control_c, 0, 64, 95
2, 281320, Control_c, 0, 64, 94
2, 281340, Control_c, 0, 64, 93
2, 281356, Note_on_c, 0, 75, 0
2, 281359, Control_c, 0, 64, 90
2, 281378, Control_c, 0, 64, 83
2, 281397, Control_c, 0, 64, 72
2, 281417, Control_c, 0, 64, 64
2, 281418, Note_on_c, 0, 51, 50
2, 281433, Note_on_c, 0, 55, 46
2, 281435, Control_c, 0, 64, 55
2, 281437, Note_on_c, 0, 74, 63
2, 281454, Control_c, 0, 64, 36
2, 281474, Control_c, 0, 64, 23
2, 281493, Control_c, 0, 64, 34
2, 281512, Control_c, 0, 64, 47
2, 281531, Control_c, 0, 64, 56
2, 281551, Control_c, 0, 64, 58
2, 281569, Control_c, 0, 64, 61
2, 281589, Control_c, 0, 64, 62
2, 281608, Control_c, 0, 64, 64
2, 281617, Note_on_c, 0, 51, 0
2, 281621, Note_on_c, 0, 72, 81
2, 281628, Control_c, 0, 64, 66
2, 281628, Note_on_c, 0, 56, 65
2, 281636, Note_on_c, 0, 55, 0
2, 281642, Note_on_c, 0, 53, 50
2, 281646, Control_c, 0, 64, 68
2, 281666, Control_c, 0, 64, 70
2, 281674, Note_on_c, 0, 74, 0
2, 281685, Control_c, 0, 64, 71
2, 281705, Control_c, 0, 64, 70
2, 281723, Control_c, 0, 64, 68
2, 281743, Control_c, 0, 64, 65
2, 281762, Control_c, 0, 64, 60
2, 281781, Control_c, 0, 64, 49
2, 281782, Note_on_c, 0, 53, 0
2, 281789, Note_on_c, 0, 56, 0
2, 281800, Control_c, 0, 64, 0
2, 281824, Note_on_c, 0, 70, 80
2, 281825, Note_on_c, 0, 55, 53
2, 281825, Note_on_c, 0, 58, 66
2, 281848, Note_on_c, 0, 72, 0
2, 281896, Control_c, 0, 64, 36
2, 281915, Control_c, 0, 64, 54
2, 281934, Control_c, 0, 64, 62
2, 281954, Control_c, 0, 64, 65
2, 281973, Control_c, 0, 64, 68
2, 281973, Note_on_c, 0, 58, 0
2, 281992, Control_c, 0, 64, 72
2, 282001, Note_on_c, 0, 67, 0
2, 282004, Note_on_c, 0, 55, 0
2, 282011, Control_c, 0, 64, 80
2, 282024, Note_on_c, 0, 56, 70
2, 282024, Note_on_c, 0, 65, 66
2, 282031, Control_c, 0, 64, 89
2, 282049, Control_c, 0, 64, 95
2, 282068, Note_on_c, 0, 56, 0
2, 282069, Control_c, 0, 64, 96
2, 282146, Control_c, 0, 64, 96
2, 282165, Control_c, 0, 64, 93
2, 282185, Control_c, 0, 64, 86
2, 282196, Control_c, 0, 64, 75
2, 282214, Control_c, 0, 64, 64
2, 282238, Note_on_c, 0, 63, 72
2, 282241, Control_c, 0, 64, 50
2, 282244, Note_on_c, 0, 43, 62
2, 282251, Note_on_c, 0, 55, 53
2, 282260, Control_c, 0, 64, 0
2, 282290, Note_on_c, 0, 65, 0
2, 282318, Control_c, 0, 64, 29
2, 282336, Control_c, 0, 64, 48
2, 282353, Note_on_c, 0, 55, 0
2, 282356, Control_c, 0, 64, 60
2, 282375, Control_c, 0, 64, 64
2, 282388, Note_on_c, 0, 70, 0
2, 282395, Control_c, 0, 64, 66
2, 282413, Control_c, 0, 64, 71
2, 282433, Control_c, 0, 64, 78
2, 282433, Note_on_c, 0, 43, 0
2, 282435, Note_on_c, 0, 61, 74
2, 282452, Control_c, 0, 64, 88
2, 282471, Control_c, 0, 64, 96
2, 282473, Note_on_c, 0, 53, 44
2, 282490, Control_c, 0, 64, 98
2, 282512, Note_on_c, 0, 53, 0
2, 282514, Note_on_c, 0, 63, 0
2, 282529, Control_c, 0, 64, 98
2, 282548, Control_c, 0, 64, 97
2, 282567, Control_c, 0, 64, 96
2, 282587, Control_c, 0, 64, 94
2, 282605, Control_c, 0, 64, 91
2, 282625, Control_c, 0, 64, 86
2, 282644, Control_c, 0, 64, 80
2, 282664, Control_c, 0, 64, 73
2, 282671, Note_on_c, 0, 60, 67
2, 282680, Note_on_c, 0, 44, 52
2, 282680, Note_on_c, 0, 61, 0
2, 282682, Control_c, 0, 64, 68
2, 282695, Note_on_c, 0, 51, 46
2, 282702, Control_c, 0, 64, 64
2, 282721, Control_c, 0, 64, 60
2, 282740, Control_c, 0, 64, 54
2, 282759, Control_c, 0, 64, 50
2, 282779, Control_c, 0, 64, 48
2, 282798, Control_c, 0, 64, 47
2, 282816, Control_c, 0, 64, 46
2, 282836, Control_c, 0, 64, 44
2, 282855, Control_c, 0, 64, 42
2, 282875, Control_c, 0, 64, 41
2, 282881, Note_on_c, 0, 60, 0
2, 282888, Note_on_c, 0, 58, 66
2, 282893, Control_c, 0, 64, 39
2, 282913, Control_c, 0, 64, 38
2, 282932, Control_c, 0, 64, 38
2, 283081, Note_on_c, 0, 58, 0
2, 283083, Note_on_c, 0, 63, 73
2, 283085, Control_c, 0, 64, 36
2, 283105, Control_c, 0, 64, 28
2, 283106, Note_on_c, 0, 56, 55
2, 283124, Control_c, 0, 64, 0
2, 283231, Note_on_c, 0, 56, 0
2, 283298, Note_on_c, 0, 58, 58
2, 283355, Control_c, 0, 64, 20
2, 283373, Control_c, 0, 64, 38
2, 283393, Control_c, 0, 64, 49
2, 283412, Control_c, 0, 64, 54
2, 283431, Control_c, 0, 64, 55
2, 283450, Control_c, 0, 64, 55
2, 283470, Control_c, 0, 64, 50
2, 283478, Note_on_c, 0, 58, 0
2, 283489, Control_c, 0, 64, 40
2, 283507, Note_on_c, 0, 63, 0
2, 283508, Control_c, 0, 64, 22
2, 283511, Note_on_c, 0, 68, 68
2, 283527, Control_c, 0, 64, 0
2, 283546, Note_on_c, 0, 60, 40
2, 283585, Control_c, 0, 64, 27
2, 283604, Control_c, 0, 64, 50
2, 283624, Control_c, 0, 64, 59
2, 283642, Control_c, 0, 64, 62
2, 283660, Note_on_c, 0, 44, 0
2, 283662, Control_c, 0, 64, 64
2, 283681, Control_c, 0, 64, 67
2, 283700, Control_c, 0, 64, 72
2, 283719, Control_c, 0, 64, 80
2, 283739, Control_c, 0, 64, 91
2, 283758, Control_c, 0, 64, 96
2, 283794, Note_on_c, 0, 60, 0
2, 283835, Control_c, 0, 64, 95
2, 283853, Control_c, 0, 64, 94
2, 283873, Control_c, 0, 64, 92
2, 283892, Control_c, 0, 64, 88
2, 283911, Control_c, 0, 64, 84
2, 283930, Control_c, 0, 64, 79
2, 283946, Note_on_c, 0, 44, 57
2, 283950, Control_c, 0, 64, 74
2, 283957, Note_on_c, 0, 60, 58
2, 283969, Control_c, 0, 64, 69
2, 283988, Control_c, 0, 64, 66
2, 284007, Control_c, 0, 64, 63
2, 284027, Control_c, 0, 64, 62
2, 284045, Control_c, 0, 64, 61
2, 284065, Control_c, 0, 64, 59
2, 284084, Control_c, 0, 64, 57
2, 284101, Note_on_c, 0, 60, 0
2, 284104, Control_c, 0, 64, 55
2, 284110, Note_on_c, 0, 51, 0
2, 284122, Control_c, 0, 64, 52
2, 284136, Note_on_c, 0, 62, 59
2, 284141, Note_on_c, 0, 46, 51
2, 284142, Control_c, 0, 64, 48
2, 284162, Control_c, 0, 64, 44
2, 284181, Control_c, 0, 64, 39
2, 284200, Control_c, 0, 64, 34
2, 284220, Control_c, 0, 64, 26
2, 284239, Control_c, 0, 64, 0
2, 284285, Note_on_c, 0, 44, 0
2, 284314, Note_on_c, 0, 62, 0
2, 284354, Note_on_c, 0, 63, 64
2, 284360, Note_on_c, 0, 48, 52
2, 284370, Note_on_c, 0, 46, 0
2, 284411, Control_c, 0, 64, 18
2, 284431, Control_c, 0, 64, 45
2, 284449, Control_c, 0, 64, 56
2, 284459, Note_on_c, 0, 48, 0
2, 284469, Control_c, 0, 64, 60
2, 284488, Control_c, 0, 64, 62
2, 284508, Control_c, 0, 64, 64
2, 284526, Control_c, 0, 64, 65
2, 284546, Control_c, 0, 64, 66
2, 284551, Note_on_c, 0, 72, 66
2, 284563, Note_on_c, 0, 68, 0
2, 284565, Control_c, 0, 64, 66
2, 284603, Control_c, 0, 64, 66
2, 284623, Control_c, 0, 64, 65
2, 284642, Control_c, 0, 64, 65
2, 284661, Control_c, 0, 64, 63
2, 284680, Control_c, 0, 64, 60
2, 284700, Control_c, 0, 64, 55
2, 284719, Control_c, 0, 64, 46
2, 284738, Control_c, 0, 64, 31
2, 284757, Control_c, 0, 64, 21
2, 284759, Note_on_c, 0, 70, 64
2, 284762, Note_on_c, 0, 48, 46
2, 284762, Note_on_c, 0, 51, 50
2, 284776, Control_c, 0, 64, 25
2, 284789, Note_on_c, 0, 72, 0
2, 284795, Control_c, 0, 64, 36
2, 284814, Control_c, 0, 64, 49
2, 284834, Control_c, 0, 64, 58
2, 284853, Control_c, 0, 64, 60
2, 284872, Control_c, 0, 64, 63
2, 284891, Control_c, 0, 64, 64
2, 284906, Note_on_c, 0, 48, 0
2, 284911, Control_c, 0, 64, 67
2, 284929, Control_c, 0, 64, 72
2, 284944, Note_on_c, 0, 51, 0
2, 284949, Control_c, 0, 64, 79
2, 284952, Note_on_c, 0, 50, 57
2, 284952, Note_on_c, 0, 68, 73
2, 284965, Note_on_c, 0, 53, 60
2, 284968, Control_c, 0, 64, 87
2, 284988, Control_c, 0, 64, 91
2, 284992, Note_on_c, 0, 70, 0
2, 285006, Control_c, 0, 64, 91
2, 285021, Note_on_c, 0, 63, 0
2, 285045, Control_c, 0, 64, 91
2, 285049, Note_on_c, 0, 68, 0
2, 285082, Control_c, 0, 64, 90
2, 285102, Control_c, 0, 64, 87
2, 285102, Note_on_c, 0, 53, 0
2, 285106, Note_on_c, 0, 50, 0
2, 285122, Control_c, 0, 64, 79
2, 285141, Control_c, 0, 64, 69
2, 285160, Control_c, 0, 64, 60
2, 285163, Note_on_c, 0, 51, 48
2, 285176, Note_on_c, 0, 67, 68
2, 285179, Note_on_c, 0, 55, 54
2, 285180, Control_c, 0, 64, 36
2, 285199, Control_c, 0, 64, 0
2, 285275, Control_c, 0, 64, 33
2, 285294, Control_c, 0, 64, 54
2, 285314, Control_c, 0, 64, 62
2, 285333, Control_c, 0, 64, 64
2, 285352, Control_c, 0, 64, 66
2, 285355, Note_on_c, 0, 53, 60
2, 285371, Control_c, 0, 64, 69
2, 285373, Note_on_c, 0, 51, 0
2, 285375, Note_on_c, 0, 55, 0
2, 285379, Note_on_c, 0, 62, 62
2, 285391, Control_c, 0, 64, 78
2, 285395, Note_on_c, 0, 53, 0
2, 285409, Control_c, 0, 64, 91
2, 285429, Control_c, 0, 64, 101
2, 285448, Control_c, 0, 64, 103
2, 285486, Control_c, 0, 64, 103
2, 285506, Control_c, 0, 64, 101
2, 285525, Control_c, 0, 64, 93
2, 285545, Control_c, 0, 64, 81
2, 285561, Note_on_c, 0, 62, 0
2, 285563, Control_c, 0, 64, 69
2, 285578, Note_on_c, 0, 51, 55
2, 285578, Note_on_c, 0, 60, 69
2, 285583, Control_c, 0, 64, 60
2, 285595, Note_on_c, 0, 39, 52
2, 285602, Control_c, 0, 64, 40
2, 285621, Control_c, 0, 64, 34
2, 285640, Control_c, 0, 64, 46
2, 285660, Control_c, 0, 64, 57
2, 285679, Control_c, 0, 64, 61
2, 285690, Note_on_c, 0, 51, 0
2, 285698, Control_c, 0, 64, 63
2, 285716, Note_on_c, 0, 67, 0
2, 285717, Control_c, 0, 64, 66
2, 285730, Note_on_c, 0, 39, 0
2, 285736, Control_c, 0, 64, 69
2, 285755, Control_c, 0, 64, 76
2, 285773, Note_on_c, 0, 50, 57
2, 285774, Control_c, 0, 64, 88
2, 285780, Note_on_c, 0, 58, 66
2, 285785, Note_on_c, 0, 60, 0
2, 285794, Control_c, 0, 64, 108
2, 285813, Control_c, 0, 64, 127
2, 285876, Note_on_c, 0, 58, 0
2, 285894, Note_on_c, 0, 50, 0
2, 285909, Control_c, 0, 64, 123
2, 285928, Control_c, 0, 64, 116
2, 285948, Control_c, 0, 64, 99
2, 285966, Control_c, 0, 64, 81
2, 285980, Note_on_c, 0, 41, 59
2, 285986, Control_c, 0, 64, 67
2, 285997, Note_on_c, 0, 48, 61
2, 285997, Note_on_c, 0, 56, 66
2, 286005, Control_c, 0, 64, 51
2, 286025, Control_c, 0, 64, 0
2, 286080, Control_c, 0, 64, 17
2, 286100, Control_c, 0, 64, 46
2, 286118, Control_c, 0, 64, 60
2, 286138, Control_c, 0, 64, 64
2, 286146, Note_on_c, 0, 41, 0
2, 286157, Control_c, 0, 64, 67
2, 286175, Control_c, 0, 64, 70
2, 286195, Control_c, 0, 64, 77
2, 286200, Note_on_c, 0, 65, 71
2, 286214, Control_c, 0, 64, 92
2, 286234, Control_c, 0, 64, 113
2, 286252, Control_c, 0, 64, 127
2, 286259, Note_on_c, 0, 56, 0
2, 286329, Note_on_c, 0, 48, 0
2, 286368, Control_c, 0, 64, 112
2, 286387, Control_c, 0, 64, 91
2, 286400, Note_on_c, 0, 50, 78
2, 286405, Note_on_c, 0, 68, 80
2, 286406, Control_c, 0, 64, 72
2, 286413, Note_on_c, 0, 47, 67
2, 286415, Note_on_c, 0, 43, 64
2, 286426, Control_c, 0, 64, 53
2, 286438, Note_on_c, 0, 65, 0
2, 286445, Control_c, 0, 64, 0
2, 286598, Control_c, 0, 64, 50
2, 286602, Note_on_c, 0, 51, 71
2, 286603, Note_on_c, 0, 47, 0
2, 286603, Note_on_c, 0, 67, 83
2, 286618, Control_c, 0, 64, 66
2, 286633, Note_on_c, 0, 50, 0
2, 286635, Note_on_c, 0, 43, 0
2, 286637, Control_c, 0, 64, 73
2, 286655, Control_c, 0, 64, 84
2, 286670, Note_on_c, 0, 68, 0
2, 286675, Control_c, 0, 64, 102
2, 286694, Control_c, 0, 64, 127
2, 286719, Note_on_c, 0, 51, 0
2, 286809, Control_c, 0, 64, 113
2, 286809, Note_on_c, 0, 53, 84
2, 286812, Note_on_c, 0, 65, 82
2, 286818, Note_on_c, 0, 48, 63
2, 286819, Note_on_c, 0, 44, 74
2, 286829, Control_c, 0, 64, 80
2, 286848, Control_c, 0, 64, 64
2, 286867, Control_c, 0, 64, 0
2, 286883, Note_on_c, 0, 67, 0
2, 286925, Control_c, 0, 64, 9
2, 286944, Control_c, 0, 64, 52
2, 286963, Control_c, 0, 64, 64
2, 286979, Note_on_c, 0, 44, 0
2, 286980, Control_c, 0, 64, 72
2, 286985, Note_on_c, 0, 48, 0
2, 286987, Note_on_c, 0, 53, 0
2, 286997, Control_c, 0, 64, 86
2, 287003, Note_on_c, 0, 63, 89
2, 287016, Control_c, 0, 64, 127
2, 287082, Note_on_c, 0, 65, 0
2, 287210, Note_on_c, 0, 45, 73
2, 287211, Note_on_c, 0, 54, 87
2, 287213, Note_on_c, 0, 62, 82
2, 287221, Note_on_c, 0, 63, 0
2, 287225, Control_c, 0, 64, 82
2, 287244, Control_c, 0, 64, 61
2, 287264, Control_c, 0, 64, 0
2, 287359, Control_c, 0, 64, 48
2, 287379, Control_c, 0, 64, 63
2, 287398, Control_c, 0, 64, 70
2, 287407, Note_on_c, 0, 45, 0
2, 287417, Control_c, 0, 64, 82
2, 287423, Note_on_c, 0, 60, 91
2, 287436, Control_c, 0, 64, 119
2, 287440, Note_on_c, 0, 54, 0
2, 287456, Control_c, 0, 64, 127
2, 287532, Note_on_c, 0, 62, 0
2, 287724, Control_c, 0, 64, 106
2, 287744, Control_c, 0, 64, 75
2, 287744, Note_on_c, 0, 59, 90
2, 287752, Note_on_c, 0, 43, 73
2, 287752, Note_on_c, 0, 50, 71
2, 287755, Note_on_c, 0, 55, 75
2, 287762, Control_c, 0, 64, 51
2, 287782, Control_c, 0, 64, 0
2, 287793, Note_on_c, 0, 60, 0
2, 287936, Control_c, 0, 64, 17
2, 287952, Note_on_c, 0, 50, 0
2, 287955, Control_c, 0, 64, 46
2, 287955, Note_on_c, 0, 43, 0
2, 287982, Control_c, 0, 64, 60
2, 288001, Control_c, 0, 64, 66
2, 288020, Control_c, 0, 64, 69
2, 288034, Note_on_c, 0, 59, 0
2, 288039, Control_c, 0, 64, 74
2, 288059, Control_c, 0, 64, 82
2, 288071, Note_on_c, 0, 55, 0
2, 288077, Control_c, 0, 64, 93
2, 288097, Control_c, 0, 64, 109
2, 288116, Control_c, 0, 64, 127
2, 288288, Note_on_c, 0, 55, 60
2, 288498, Note_on_c, 0, 57, 64
2, 288521, Note_on_c, 0, 55, 0
2, 288692, Control_c, 0, 64, 97
2, 288711, Control_c, 0, 64, 74
2, 288722, Note_on_c, 0, 79, 92
2, 288729, Note_on_c, 0, 57, 0
2, 288731, Control_c, 0, 64, 58
2, 288750, Control_c, 0, 64, 0
2, 288752, Note_on_c, 0, 59, 61
2, 288884, Control_c, 0, 64, 46
2, 288903, Control_c, 0, 64, 61
2, 288919, Control_c, 0, 64, 65
2, 288940, Control_c, 0, 64, 68
2, 288959, Control_c, 0, 64, 74
2, 288978, Control_c, 0, 64, 83
2, 288997, Control_c, 0, 64, 93
2, 289013, Note_on_c, 0, 59, 0
2, 289017, Control_c, 0, 64, 104
2, 289036, Control_c, 0, 64, 113
2, 289055, Control_c, 0, 64, 115
2, 289074, Control_c, 0, 64, 116
2, 289094, Control_c, 0, 64, 117
2, 289132, Control_c, 0, 64, 116
2, 289151, Control_c, 0, 64, 103
2, 289171, Control_c, 0, 64, 86
2, 289178, Note_on_c, 0, 57, 59
2, 289189, Control_c, 0, 64, 71
2, 289209, Control_c, 0, 64, 62
2, 289228, Control_c, 0, 64, 61
2, 289248, Control_c, 0, 64, 64
2, 289266, Control_c, 0, 64, 66
2, 289285, Control_c, 0, 64, 69
2, 289305, Control_c, 0, 64, 73
2, 289323, Control_c, 0, 64, 80
2, 289343, Control_c, 0, 64, 89
2, 289362, Control_c, 0, 64, 99
2, 289381, Note_on_c, 0, 59, 69
2, 289382, Control_c, 0, 64, 117
2, 289397, Note_on_c, 0, 57, 0
2, 289400, Control_c, 0, 64, 127
2, 289562, Note_on_c, 0, 59, 0
2, 289574, Control_c, 0, 64, 116
2, 289589, Note_on_c, 0, 80, 88
2, 289592, Control_c, 0, 64, 96
2, 289601, Note_on_c, 0, 60, 58
2, 289612, Control_c, 0, 64, 80
2, 289622, Note_on_c, 0, 79, 0
2, 289631, Control_c, 0, 64, 65
2, 289651, Control_c, 0, 64, 0
2, 289771, Note_on_c, 0, 60, 0
2, 289794, Note_on_c, 0, 59, 61
2, 290011, Note_on_c, 0, 72, 60
2, 290012, Note_on_c, 0, 59, 0
2, 290012, Note_on_c, 0, 60, 52
2, 290184, Note_on_c, 0, 60, 0
2, 290210, Note_on_c, 0, 62, 55
2, 290449, Note_on_c, 0, 79, 83
2, 290457, Note_on_c, 0, 63, 53
2, 290469, Note_on_c, 0, 62, 0
2, 290484, Note_on_c, 0, 80, 0
2, 290686, Control_c, 0, 64, 18
2, 290705, Control_c, 0, 64, 29
2, 290724, Control_c, 0, 64, 37
2, 290744, Control_c, 0, 64, 45
2, 290762, Control_c, 0, 64, 50
2, 290782, Control_c, 0, 64, 53
2, 290801, Control_c, 0, 64, 56
2, 290821, Control_c, 0, 64, 60
2, 290838, Control_c, 0, 64, 64
2, 290858, Control_c, 0, 64, 67
2, 290877, Control_c, 0, 64, 72
2, 290895, Note_on_c, 0, 70, 64
2, 290897, Control_c, 0, 64, 82
2, 290915, Control_c, 0, 64, 94
2, 290935, Control_c, 0, 64, 110
2, 290935, Note_on_c, 0, 72, 0
2, 290951, Note_on_c, 0, 79, 0
2, 290954, Control_c, 0, 64, 127
2, 291114, Note_on_c, 0, 63, 0
2, 291314, Note_on_c, 0, 70, 0
2, 291318, Control_c, 0, 64, 116
2, 291332, Note_on_c, 0, 78, 74
2, 291338, Control_c, 0, 64, 102
2, 291355, Note_on_c, 0, 69, 49
2, 291357, Control_c, 0, 64, 92
2, 291377, Control_c, 0, 64, 83
2, 291395, Control_c, 0, 64, 76
2, 291415, Control_c, 0, 64, 71
2, 291434, Control_c, 0, 64, 66
2, 291453, Control_c, 0, 64, 62
2, 291472, Control_c, 0, 64, 59
2, 291492, Control_c, 0, 64, 57
2, 291511, Control_c, 0, 64, 56
2, 291530, Control_c, 0, 64, 55
2, 291541, Note_on_c, 0, 60, 51
2, 291549, Control_c, 0, 64, 55
2, 291569, Control_c, 0, 64, 54
2, 291587, Control_c, 0, 64, 51
2, 291606, Control_c, 0, 64, 48
2, 291626, Control_c, 0, 64, 44
2, 291645, Control_c, 0, 64, 41
2, 291664, Control_c, 0, 64, 37
2, 291683, Control_c, 0, 64, 35
2, 291703, Control_c, 0, 64, 33
2, 291722, Control_c, 0, 64, 32
2, 291731, Note_on_c, 0, 70, 74
2, 291735, Note_on_c, 0, 60, 0
2, 291741, Control_c, 0, 64, 32
2, 291741, Note_on_c, 0, 62, 55
2, 291752, Note_on_c, 0, 69, 0
2, 291780, Control_c, 0, 64, 31
2, 291854, Note_on_c, 0, 78, 0
2, 291857, Control_c, 0, 64, 32
2, 291875, Control_c, 0, 64, 33
2, 291895, Control_c, 0, 64, 35
2, 291914, Control_c, 0, 64, 36
2, 291921, Note_on_c, 0, 70, 0
2, 291925, Note_on_c, 0, 72, 73
2, 291933, Control_c, 0, 64, 36
2, 291935, Note_on_c, 0, 63, 60
2, 291952, Control_c, 0, 64, 37
2, 291955, Note_on_c, 0, 62, 0
2, 291972, Control_c, 0, 64, 38
2, 291991, Control_c, 0, 64, 39
2, 292010, Control_c, 0, 64, 39
2, 292121, Note_on_c, 0, 63, 0
2, 292125, Control_c, 0, 64, 36
2, 292129, Note_on_c, 0, 72, 0
2, 292144, Control_c, 0, 64, 20
2, 292150, Note_on_c, 0, 83, 87
2, 292155, Note_on_c, 0, 65, 46
2, 292163, Control_c, 0, 64, 0
2, 292166, Note_on_c, 0, 74, 62
2, 292353, Note_on_c, 0, 72, 67
2, 292375, Control_c, 0, 64, 22
2, 292394, Control_c, 0, 64, 39
2, 292413, Control_c, 0, 64, 49
2, 292432, Control_c, 0, 64, 58
2, 292452, Control_c, 0, 64, 63
2, 292471, Control_c, 0, 64, 65
2, 292490, Control_c, 0, 64, 68
2, 292509, Control_c, 0, 64, 73
2, 292529, Control_c, 0, 64, 83
2, 292547, Control_c, 0, 64, 99
2, 292562, Note_on_c, 0, 71, 63
2, 292566, Control_c, 0, 64, 127
2, 292682, Note_on_c, 0, 71, 0
2, 292710, Note_on_c, 0, 74, 0
2, 292745, Note_on_c, 0, 83, 0
2, 292749, Note_on_c, 0, 69, 72
2, 292778, Note_on_c, 0, 65, 0
2, 292797, Note_on_c, 0, 69, 0
2, 292973, Note_on_c, 0, 84, 94
2, 293005, Note_on_c, 0, 67, 52
2, 293010, Control_c, 0, 64, 87
2, 293028, Control_c, 0, 64, 69
2, 293048, Control_c, 0, 64, 51
2, 293067, Control_c, 0, 64, 0
2, 293175, Note_on_c, 0, 63, 59
2, 293201, Control_c, 0, 64, 13
2, 293221, Control_c, 0, 64, 48
2, 293228, Note_on_c, 0, 67, 0
2, 293239, Control_c, 0, 64, 61
2, 293259, Control_c, 0, 64, 64
2, 293270, Note_on_c, 0, 84, 0
2, 293278, Control_c, 0, 64, 67
2, 293283, Note_on_c, 0, 72, 0
2, 293297, Control_c, 0, 64, 70
2, 293316, Control_c, 0, 64, 77
2, 293336, Control_c, 0, 64, 90
2, 293355, Control_c, 0, 64, 110
2, 293374, Control_c, 0, 64, 127
2, 293401, Note_on_c, 0, 65, 61
2, 293512, Note_on_c, 0, 63, 0
2, 293589, Note_on_c, 0, 67, 69
2, 293594, Note_on_c, 0, 65, 0
2, 293630, Note_on_c, 0, 67, 0
2, 293797, Note_on_c, 0, 77, 86
2, 293804, Note_on_c, 0, 68, 60
2, 293838, Control_c, 0, 64, 108
2, 293856, Control_c, 0, 64, 92
2, 293876, Control_c, 0, 64, 80
2, 293895, Control_c, 0, 64, 71
2, 293915, Control_c, 0, 64, 64
2, 293933, Control_c, 0, 64, 57
2, 293953, Control_c, 0, 64, 50
2, 293972, Control_c, 0, 64, 46
2, 293992, Note_on_c, 0, 55, 51
2, 294010, Control_c, 0, 64, 45
2, 294030, Control_c, 0, 64, 44
2, 294049, Control_c, 0, 64, 43
2, 294068, Control_c, 0, 64, 41
2, 294087, Control_c, 0, 64, 39
2, 294107, Control_c, 0, 64, 38
2, 294125, Control_c, 0, 64, 37
2, 294145, Control_c, 0, 64, 36
2, 294215, Note_on_c, 0, 56, 62
2, 294235, Note_on_c, 0, 55, 0
2, 294414, Note_on_c, 0, 58, 62
2, 294422, Note_on_c, 0, 77, 0
2, 294447, Note_on_c, 0, 56, 0
2, 294452, Control_c, 0, 64, 36
2, 294471, Control_c, 0, 64, 37
2, 294529, Control_c, 0, 64, 37
2, 294610, Note_on_c, 0, 58, 0
2, 294625, Control_c, 0, 64, 38
2, 294625, Note_on_c, 0, 76, 76
2, 294640, Note_on_c, 0, 68, 0
2, 294644, Control_c, 0, 64, 38
2, 294645, Note_on_c, 0, 60, 52
2, 294839, Note_on_c, 0, 67, 49
2, 294990, Control_c, 0, 64, 39
2, 295001, Note_on_c, 0, 67, 0
2, 295047, Control_c, 0, 64, 39
2, 295050, Note_on_c, 0, 69, 58
2, 295067, Control_c, 0, 64, 40
2, 295085, Control_c, 0, 64, 41
2, 295162, Control_c, 0, 64, 41
2, 295201, Control_c, 0, 64, 42
2, 295221, Note_on_c, 0, 69, 0
2, 295239, Control_c, 0, 64, 43
2, 295241, Note_on_c, 0, 71, 66
2, 295258, Control_c, 0, 64, 43
2, 295278, Control_c, 0, 64, 44
2, 295296, Control_c, 0, 64, 44
2, 295316, Control_c, 0, 64, 45
2, 295355, Control_c, 0, 64, 45
2, 295393, Control_c, 0, 64, 46
2, 295416, Note_on_c, 0, 60, 0
2, 295431, Control_c, 0, 64, 46
2, 295450, Control_c, 0, 64, 47
2, 295458, Note_on_c, 0, 71, 0
2, 295458, Note_on_c, 0, 75, 75
2, 295464, Note_on_c, 0, 72, 66
2, 295470, Control_c, 0, 64, 47
2, 295489, Control_c, 0, 64, 48
2, 295503, Note_on_c, 0, 76, 0
2, 295585, Control_c, 0, 64, 48
2, 295653, Note_on_c, 0, 60, 43
2, 295833, Control_c, 0, 64, 49
2, 295867, Note_on_c, 0, 62, 54
2, 295874, Note_on_c, 0, 60, 0
2, 295928, Control_c, 0, 64, 49
2, 296069, Note_on_c, 0, 63, 58
2, 296084, Note_on_c, 0, 62, 0
2, 296120, Control_c, 0, 64, 50
2, 296242, Note_on_c, 0, 63, 0
2, 296271, Note_on_c, 0, 72, 0
2, 296273, Note_on_c, 0, 74, 68
2, 296280, Note_on_c, 0, 65, 45
2, 296307, Note_on_c, 0, 75, 0
2, 296452, Note_on_c, 0, 65, 0
2, 296479, Note_on_c, 0, 62, 50
2, 296679, Note_on_c, 0, 63, 47
2, 296679, Note_on_c, 0, 71, 60
2, 296704, Note_on_c, 0, 62, 0
2, 296716, Control_c, 0, 64, 50
2, 296866, Note_on_c, 0, 65, 52
2, 296872, Note_on_c, 0, 69, 65
2, 296872, Note_on_c, 0, 71, 0
2, 296922, Note_on_c, 0, 63, 0
2, 297067, Note_on_c, 0, 65, 0
2, 297071, Note_on_c, 0, 71, 70
2, 297080, Control_c, 0, 64, 51
2, 297082, Note_on_c, 0, 67, 54
2, 297119, Control_c, 0, 64, 51
2, 297133, Note_on_c, 0, 69, 0
2, 297156, Note_on_c, 0, 74, 0
2, 297275, Note_on_c, 0, 67, 0
2, 297275, Note_on_c, 0, 72, 77
2, 297289, Note_on_c, 0, 68, 66
2, 297323, Note_on_c, 0, 71, 0
2, 297462, Note_on_c, 0, 68, 0
2, 297465, Control_c, 0, 64, 52
2, 297478, Note_on_c, 0, 71, 65
2, 297484, Note_on_c, 0, 67, 48
2, 297542, Control_c, 0, 64, 52
2, 297544, Note_on_c, 0, 72, 0
2, 297658, Note_on_c, 0, 71, 0
2, 297665, Note_on_c, 0, 67, 0
2, 297672, Note_on_c, 0, 74, 63
2, 297681, Note_on_c, 0, 65, 49
2, 297792, Control_c, 0, 64, 52
2, 297871, Note_on_c, 0, 65, 0
2, 297890, Note_on_c, 0, 63, 57
2, 297902, Note_on_c, 0, 67, 61
2, 297923, Note_on_c, 0, 74, 0
2, 298093, Note_on_c, 0, 65, 49
2, 298095, Note_on_c, 0, 63, 0
2, 298099, Control_c, 0, 64, 52
2, 298295, Note_on_c, 0, 72, 65
2, 298316, Note_on_c, 0, 63, 49
2, 298316, Note_on_c, 0, 65, 0
2, 298445, Control_c, 0, 64, 52
2, 298483, Control_c, 0, 64, 51
2, 298488, Note_on_c, 0, 63, 0
2, 298505, Note_on_c, 0, 74, 64
2, 298517, Note_on_c, 0, 62, 45
2, 298526, Note_on_c, 0, 67, 0
2, 298563, Note_on_c, 0, 72, 0
2, 298579, Control_c, 0, 64, 51
2, 298598, Control_c, 0, 64, 50
2, 298637, Control_c, 0, 64, 50
2, 298655, Control_c, 0, 64, 49
2, 298694, Control_c, 0, 64, 49
2, 298716, Note_on_c, 0, 62, 0
2, 298752, Control_c, 0, 64, 49
2, 298761, Note_on_c, 0, 75, 60
2, 298771, Control_c, 0, 64, 50
2, 298773, Note_on_c, 0, 60, 44
2, 298790, Control_c, 0, 64, 53
2, 298808, Note_on_c, 0, 74, 0
2, 298809, Control_c, 0, 64, 57
2, 298829, Control_c, 0, 64, 60
2, 298848, Control_c, 0, 64, 63
2, 298867, Control_c, 0, 64, 65
2, 298886, Control_c, 0, 64, 68
2, 298906, Control_c, 0, 64, 74
2, 298925, Control_c, 0, 64, 83
2, 298925, Note_on_c, 0, 60, 0
2, 298944, Control_c, 0, 64, 93
2, 298963, Control_c, 0, 64, 102
2, 298983, Control_c, 0, 64, 115
2, 299001, Control_c, 0, 64, 127
2, 299212, Control_c, 0, 64, 107
2, 299232, Control_c, 0, 64, 94
2, 299234, Note_on_c, 0, 60, 54
2, 299240, Note_on_c, 0, 67, 45
2, 299251, Control_c, 0, 64, 83
2, 299270, Control_c, 0, 64, 76
2, 299289, Control_c, 0, 64, 70
2, 299309, Control_c, 0, 64, 67
2, 299328, Control_c, 0, 64, 65
2, 299347, Control_c, 0, 64, 63
2, 299366, Control_c, 0, 64, 61
2, 299386, Control_c, 0, 64, 60
2, 299405, Control_c, 0, 64, 59
2, 299424, Control_c, 0, 64, 58
2, 299433, Note_on_c, 0, 58, 63
2, 299443, Control_c, 0, 64, 57
2, 299457, Note_on_c, 0, 60, 0
2, 299463, Control_c, 0, 64, 55
2, 299481, Control_c, 0, 64, 52
2, 299501, Control_c, 0, 64, 49
2, 299520, Control_c, 0, 64, 45
2, 299539, Control_c, 0, 64, 38
2, 299558, Control_c, 0, 64, 19
2, 299577, Control_c, 0, 64, 0
2, 299603, Note_on_c, 0, 58, 0
2, 299671, Note_on_c, 0, 57, 44
2, 299677, Note_on_c, 0, 60, 50
2, 299722, Note_on_c, 0, 67, 0
2, 299789, Control_c, 0, 64, 39
2, 299808, Control_c, 0, 64, 55
2, 299827, Control_c, 0, 64, 63
2, 299846, Control_c, 0, 64, 66
2, 299848, Note_on_c, 0, 60, 0
2, 299866, Control_c, 0, 64, 71
2, 299875, Note_on_c, 0, 57, 0
2, 299885, Control_c, 0, 64, 78
2, 299904, Control_c, 0, 64, 91
2, 299923, Control_c, 0, 64, 105
2, 299943, Control_c, 0, 64, 123
2, 299961, Control_c, 0, 64, 127
2, 300057, Control_c, 0, 64, 123
2, 300077, Control_c, 0, 64, 111
2, 300095, Control_c, 0, 64, 100
2, 300115, Control_c, 0, 64, 92
2, 300121, Note_on_c, 0, 72, 60
2, 300134, Control_c, 0, 64, 85
2, 300136, Note_on_c, 0, 57, 47
2, 300154, Control_c, 0, 64, 80
2, 300172, Control_c, 0, 64, 75
2, 300192, Control_c, 0, 64, 72
2, 300211, Control_c, 0, 64, 70
2, 300230, Control_c, 0, 64, 68
2, 300249, Control_c, 0, 64, 66
2, 300269, Control_c, 0, 64, 65
2, 300288, Control_c, 0, 64, 64
2, 300307, Control_c, 0, 64, 63
2, 300308, Note_on_c, 0, 57, 0
2, 300319, Note_on_c, 0, 55, 47
2, 300321, Note_on_c, 0, 70, 59
2, 300346, Control_c, 0, 64, 63
2, 300359, Note_on_c, 0, 72, 0
2, 300365, Control_c, 0, 64, 62
2, 300384, Control_c, 0, 64, 61
2, 300403, Control_c, 0, 64, 59
2, 300423, Control_c, 0, 64, 56
2, 300436, Control_c, 0, 64, 51
2, 300454, Control_c, 0, 64, 41
2, 300479, Control_c, 0, 64, 13
2, 300485, Note_on_c, 0, 55, 0
2, 300498, Control_c, 0, 64, 0
2, 300520, Note_on_c, 0, 70, 0
2, 300560, Note_on_c, 0, 53, 45
2, 300560, Note_on_c, 0, 69, 53
2, 300651, Control_c, 0, 64, 24
2, 300671, Control_c, 0, 64, 45
2, 300690, Control_c, 0, 64, 56
2, 300710, Control_c, 0, 64, 61
2, 300728, Control_c, 0, 64, 63
2, 300748, Control_c, 0, 64, 64
2, 300767, Control_c, 0, 64, 66
2, 300786, Control_c, 0, 64, 68
2, 300805, Control_c, 0, 64, 71
2, 300825, Control_c, 0, 64, 74
2, 300844, Control_c, 0, 64, 76
2, 300863, Control_c, 0, 64, 76
2, 300882, Control_c, 0, 64, 75
2, 300902, Control_c, 0, 64, 74
2, 300920, Control_c, 0, 64, 73
2, 300939, Control_c, 0, 64, 72
2, 300959, Control_c, 0, 64, 71
2, 300978, Control_c, 0, 64, 70
2, 300979, Note_on_c, 0, 70, 53
2, 300986, Note_on_c, 0, 69, 0
2, 300987, Note_on_c, 0, 55, 43
2, 300997, Control_c, 0, 64, 68
2, 301004, Note_on_c, 0, 53, 0
2, 301016, Control_c, 0, 64, 66
2, 301036, Control_c, 0, 64, 65
2, 301055, Control_c, 0, 64, 64
2, 301074, Control_c, 0, 64, 64
2, 301093, Control_c, 0, 64, 63
2, 301113, Control_c, 0, 64, 61
2, 301131, Control_c, 0, 64, 57
2, 301133, Note_on_c, 0, 70, 0
2, 301151, Control_c, 0, 64, 50
2, 301161, Note_on_c, 0, 72, 59
2, 301170, Control_c, 0, 64, 41
2, 301170, Note_on_c, 0, 55, 0
2, 301173, Note_on_c, 0, 57, 50
2, 301190, Control_c, 0, 64, 29
2, 301203, Note_on_c, 0, 75, 0
2, 301208, Control_c, 0, 64, 0
2, 301394, Note_on_c, 0, 72, 0
2, 301403, Note_on_c, 0, 57, 0
2, 301416, Note_on_c, 0, 65, 58
2, 301419, Note_on_c, 0, 58, 55
2, 301476, Control_c, 0, 64, 42
2, 301495, Control_c, 0, 64, 59
2, 301515, Control_c, 0, 64, 65
2, 301534, Control_c, 0, 64, 70
2, 301550, Note_on_c, 0, 58, 0
2, 301553, Control_c, 0, 64, 80
2, 301572, Control_c, 0, 64, 95
2, 301592, Control_c, 0, 64, 127
2, 301601, Note_on_c, 0, 65, 0
2, 301841, Control_c, 0, 64, 116
2, 301845, Note_on_c, 0, 70, 65
2, 301850, Note_on_c, 0, 74, 73
2, 301851, Note_on_c, 0, 65, 51
2, 301861, Control_c, 0, 64, 93
2, 301880, Control_c, 0, 64, 78
2, 301898, Control_c, 0, 64, 67
2, 301918, Control_c, 0, 64, 61
2, 301937, Control_c, 0, 64, 55
2, 301956, Control_c, 0, 64, 56
2, 301975, Control_c, 0, 64, 56
2, 302037, Note_on_c, 0, 75, 84
2, 302052, Control_c, 0, 64, 56
2, 302055, Note_on_c, 0, 63, 54
2, 302090, Control_c, 0, 64, 55
2, 302110, Control_c, 0, 64, 55
2, 302148, Note_on_c, 0, 65, 0
2, 302167, Control_c, 0, 64, 54
2, 302187, Control_c, 0, 64, 54
2, 302206, Control_c, 0, 64, 53
2, 302225, Control_c, 0, 64, 52
2, 302244, Control_c, 0, 64, 51
2, 302264, Control_c, 0, 64, 48
2, 302283, Control_c, 0, 64, 41
2, 302302, Control_c, 0, 64, 0
2, 302324, Note_on_c, 0, 77, 80
2, 302341, Note_on_c, 0, 62, 47
2, 302362, Note_on_c, 0, 70, 0
2, 302364, Note_on_c, 0, 63, 0
2, 302375, Note_on_c, 0, 74, 0
2, 302398, Note_on_c, 0, 75, 0
2, 302495, Control_c, 0, 64, 39
2, 302514, Control_c, 0, 64, 57
2, 302533, Control_c, 0, 64, 64
2, 302553, Control_c, 0, 64, 68
2, 302571, Control_c, 0, 64, 74
2, 302578, Note_on_c, 0, 62, 0
2, 302591, Control_c, 0, 64, 84
2, 302610, Control_c, 0, 64, 94
2, 302630, Control_c, 0, 64, 102
2, 302648, Control_c, 0, 64, 104
2, 302687, Control_c, 0, 64, 102
2, 302706, Control_c, 0, 64, 99
2, 302725, Control_c, 0, 64, 91
2, 302745, Control_c, 0, 64, 81
2, 302764, Control_c, 0, 64, 71
2, 302783, Control_c, 0, 64, 64
2, 302785, Note_on_c, 0, 62, 40
2, 302794, Note_on_c, 0, 68, 64
2, 302802, Control_c, 0, 64, 54
2, 302822, Control_c, 0, 64, 42
2, 302840, Control_c, 0, 64, 43
2, 302859, Control_c, 0, 64, 51
2, 302879, Control_c, 0, 64, 56
2, 302898, Control_c, 0, 64, 59
2, 302917, Control_c, 0, 64, 62
2, 302936, Control_c, 0, 64, 64
2, 302956, Control_c, 0, 64, 66
2, 302960, Note_on_c, 0, 68, 0
2, 302975, Control_c, 0, 64, 68
2, 302994, Control_c, 0, 64, 71
2, 302995, Note_on_c, 0, 60, 56
2, 303006, Note_on_c, 0, 62, 0
2, 303013, Control_c, 0, 64, 73
2, 303033, Control_c, 0, 64, 75
2, 303051, Control_c, 0, 64, 74
2, 303071, Control_c, 0, 64, 73
2, 303090, Control_c, 0, 64, 72
2, 303110, Control_c, 0, 64, 71
2, 303128, Control_c, 0, 64, 71
2, 303148, Control_c, 0, 64, 70
2, 303167, Control_c, 0, 64, 68
2, 303186, Control_c, 0, 64, 66
2, 303204, Note_on_c, 0, 60, 0
2, 303205, Control_c, 0, 64, 63
2, 303225, Control_c, 0, 64, 59
2, 303244, Control_c, 0, 64, 52
2, 303244, Note_on_c, 0, 67, 48
2, 303249, Note_on_c, 0, 59, 49
2, 303263, Control_c, 0, 64, 29
2, 303282, Control_c, 0, 64, 0
2, 303378, Control_c, 0, 64, 22
2, 303397, Control_c, 0, 64, 51
2, 303416, Control_c, 0, 64, 61
2, 303436, Control_c, 0, 64, 63
2, 303441, Note_on_c, 0, 59, 0
2, 303455, Control_c, 0, 64, 65
2, 303474, Control_c, 0, 64, 67
2, 303493, Control_c, 0, 64, 71
2, 303513, Control_c, 0, 64, 78
2, 303522, Note_on_c, 0, 67, 0
2, 303531, Control_c, 0, 64, 84
2, 303551, Control_c, 0, 64, 86
2, 303590, Control_c, 0, 64, 85
2, 303608, Control_c, 0, 64, 84
2, 303628, Control_c, 0, 64, 82
2, 303647, Control_c, 0, 64, 80
2, 303657, Note_on_c, 0, 59, 49
2, 303665, Note_on_c, 0, 74, 58
2, 303666, Control_c, 0, 64, 78
2, 303685, Control_c, 0, 64, 73
2, 303705, Control_c, 0, 64, 68
2, 303724, Control_c, 0, 64, 64
2, 303743, Control_c, 0, 64, 61
2, 303762, Control_c, 0, 64, 58
2, 303782, Control_c, 0, 64, 55
2, 303800, Control_c, 0, 64, 52
2, 303819, Control_c, 0, 64, 44
2, 303839, Control_c, 0, 64, 35
2, 303857, Note_on_c, 0, 72, 64
2, 303858, Control_c, 0, 64, 26
2, 303862, Note_on_c, 0, 57, 52
2, 303865, Note_on_c, 0, 59, 0
2, 303877, Control_c, 0, 64, 22
2, 303896, Control_c, 0, 64, 21
2, 303916, Control_c, 0, 64, 20
2, 303935, Control_c, 0, 64, 19
2, 303942, Note_on_c, 0, 74, 0
2, 303954, Control_c, 0, 64, 18
2, 303973, Control_c, 0, 64, 17
2, 303993, Control_c, 0, 64, 15
2, 304011, Control_c, 0, 64, 13
2, 304031, Control_c, 0, 64, 11
2, 304050, Control_c, 0, 64, 0
2, 304083, Note_on_c, 0, 57, 0
2, 304102, Note_on_c, 0, 72, 0
2, 304113, Note_on_c, 0, 71, 62
2, 304142, Note_on_c, 0, 55, 49
2, 304223, Control_c, 0, 64, 20
2, 304242, Control_c, 0, 64, 45
2, 304262, Control_c, 0, 64, 57
2, 304280, Control_c, 0, 64, 62
2, 304298, Control_c, 0, 64, 64
2, 304319, Control_c, 0, 64, 66
2, 304338, Control_c, 0, 64, 69
2, 304357, Control_c, 0, 64, 74
2, 304376, Control_c, 0, 64, 85
2, 304396, Control_c, 0, 64, 97
2, 304415, Control_c, 0, 64, 108
2, 304434, Control_c, 0, 64, 112
2, 304491, Control_c, 0, 64, 112
2, 304511, Control_c, 0, 64, 106
2, 304520, Note_on_c, 0, 57, 56
2, 304530, Control_c, 0, 64, 98
2, 304531, Note_on_c, 0, 71, 0
2, 304531, Note_on_c, 0, 72, 65
2, 304550, Control_c, 0, 64, 86
2, 304551, Note_on_c, 0, 55, 0
2, 304568, Control_c, 0, 64, 73
2, 304588, Control_c, 0, 64, 63
2, 304607, Control_c, 0, 64, 50
2, 304626, Control_c, 0, 64, 22
2, 304645, Control_c, 0, 64, 0
2, 304684, Control_c, 0, 64, 20
2, 304703, Control_c, 0, 64, 32
2, 304718, Note_on_c, 0, 74, 63
2, 304722, Control_c, 0, 64, 40
2, 304733, Note_on_c, 0, 59, 64
2, 304742, Control_c, 0, 64, 45
2, 304747, Note_on_c, 0, 57, 0
2, 304760, Control_c, 0, 64, 47
2, 304770, Note_on_c, 0, 77, 0
2, 304788, Note_on_c, 0, 72, 0
2, 304818, Control_c, 0, 64, 46
2, 304837, Control_c, 0, 64, 42
2, 304856, Control_c, 0, 64, 34
2, 304876, Control_c, 0, 64, 11
2, 304895, Control_c, 0, 64, 0
2, 304929, Note_on_c, 0, 59, 0
2, 304930, Note_on_c, 0, 74, 0
2, 304942, Note_on_c, 0, 67, 70
2, 304959, Note_on_c, 0, 60, 61
2, 305106, Control_c, 0, 64, 46
2, 305125, Control_c, 0, 64, 61
2, 305145, Control_c, 0, 64, 65
2, 305153, Note_on_c, 0, 74, 80
2, 305164, Control_c, 0, 64, 67
2, 305183, Control_c, 0, 64, 69
2, 305202, Control_c, 0, 64, 74
2, 305222, Control_c, 0, 64, 82
2, 305240, Control_c, 0, 64, 92
2, 305259, Control_c, 0, 64, 102
2, 305279, Control_c, 0, 64, 109
2, 305336, Control_c, 0, 64, 107
2, 305346, Note_on_c, 0, 76, 85
2, 305356, Control_c, 0, 64, 102
2, 305370, Note_on_c, 0, 58, 58
2, 305375, Control_c, 0, 64, 96
2, 305394, Control_c, 0, 64, 90
2, 305405, Note_on_c, 0, 60, 0
2, 305413, Control_c, 0, 64, 83
2, 305433, Control_c, 0, 64, 78
2, 305451, Control_c, 0, 64, 74
2, 305471, Control_c, 0, 64, 70
2, 305490, Control_c, 0, 64, 68
2, 305510, Control_c, 0, 64, 66
2, 305528, Control_c, 0, 64, 64
2, 305544, Note_on_c, 0, 79, 90
2, 305548, Control_c, 0, 64, 62
2, 305557, Note_on_c, 0, 74, 0
2, 305567, Control_c, 0, 64, 61
2, 305567, Note_on_c, 0, 56, 64
2, 305586, Control_c, 0, 64, 60
2, 305591, Note_on_c, 0, 58, 0
2, 305605, Control_c, 0, 64, 58
2, 305625, Control_c, 0, 64, 56
2, 305644, Control_c, 0, 64, 54
2, 305663, Control_c, 0, 64, 49
2, 305672, Note_on_c, 0, 76, 0
2, 305682, Control_c, 0, 64, 39
2, 305702, Control_c, 0, 64, 9
2, 305720, Control_c, 0, 64, 0
2, 305787, Note_on_c, 0, 79, 0
2, 305797, Note_on_c, 0, 70, 79
2, 305813, Note_on_c, 0, 56, 0
2, 305830, Note_on_c, 0, 55, 59
2, 305844, Note_on_c, 0, 67, 0
2, 305913, Control_c, 0, 64, 31
2, 305931, Control_c, 0, 64, 50
2, 305951, Control_c, 0, 64, 60
2, 305970, Control_c, 0, 64, 63
2, 305990, Control_c, 0, 64, 65
2, 306008, Control_c, 0, 64, 67
2, 306028, Control_c, 0, 64, 69
2, 306033, Note_on_c, 0, 55, 0
2, 306047, Control_c, 0, 64, 74
2, 306066, Control_c, 0, 64, 80
2, 306085, Control_c, 0, 64, 86
2, 306105, Control_c, 0, 64, 87
2, 306124, Control_c, 0, 64, 86
2, 306143, Control_c, 0, 64, 85
2, 306162, Control_c, 0, 64, 82
2, 306182, Control_c, 0, 64, 77
2, 306200, Control_c, 0, 64, 71
2, 306218, Control_c, 0, 64, 65
2, 306239, Control_c, 0, 64, 60
2, 306246, Note_on_c, 0, 61, 65
2, 306258, Control_c, 0, 64, 53
2, 306263, Note_on_c, 0, 55, 47
2, 306277, Control_c, 0, 64, 46
2, 306296, Control_c, 0, 64, 43
2, 306316, Control_c, 0, 64, 45
2, 306335, Control_c, 0, 64, 50
2, 306354, Control_c, 0, 64, 55
2, 306373, Control_c, 0, 64, 59
2, 306393, Control_c, 0, 64, 62
2, 306409, Note_on_c, 0, 61, 0
2, 306411, Control_c, 0, 64, 64
2, 306431, Control_c, 0, 64, 66
2, 306450, Control_c, 0, 64, 68
2, 306455, Note_on_c, 0, 55, 0
2, 306458, Note_on_c, 0, 53, 53
2, 306470, Control_c, 0, 64, 71
2, 306488, Control_c, 0, 64, 75
2, 306508, Control_c, 0, 64, 79
2, 306527, Control_c, 0, 64, 81
2, 306546, Control_c, 0, 64, 80
2, 306565, Control_c, 0, 64, 80
2, 306585, Control_c, 0, 64, 79
2, 306604, Control_c, 0, 64, 79
2, 306623, Control_c, 0, 64, 77
2, 306642, Control_c, 0, 64, 74
2, 306653, Note_on_c, 0, 53, 0
2, 306662, Control_c, 0, 64, 69
2, 306680, Control_c, 0, 64, 63
2, 306699, Control_c, 0, 64, 40
2, 306707, Note_on_c, 0, 52, 51
2, 306707, Note_on_c, 0, 60, 57
2, 306719, Control_c, 0, 64, 0
2, 306873, Control_c, 0, 64, 27
2, 306891, Control_c, 0, 64, 60
2, 306911, Control_c, 0, 64, 69
2, 306930, Control_c, 0, 64, 83
2, 306950, Control_c, 0, 64, 127
2, 306968, Note_on_c, 0, 52, 0
2, 307115, Note_on_c, 0, 60, 0
2, 307117, Note_on_c, 0, 67, 63
2, 307136, Note_on_c, 0, 52, 56
2, 307160, Control_c, 0, 64, 117
2, 307180, Control_c, 0, 64, 101
2, 307200, Control_c, 0, 64, 91
2, 307219, Control_c, 0, 64, 84
2, 307238, Control_c, 0, 64, 78
2, 307257, Control_c, 0, 64, 73
2, 307277, Control_c, 0, 64, 69
2, 307293, Note_on_c, 0, 52, 0
2, 307295, Control_c, 0, 64, 67
2, 307310, Note_on_c, 0, 50, 51
2, 307315, Control_c, 0, 64, 66
2, 307318, Note_on_c, 0, 65, 63
2, 307372, Control_c, 0, 64, 65
2, 307384, Note_on_c, 0, 67, 0
2, 307392, Control_c, 0, 64, 64
2, 307411, Control_c, 0, 64, 63
2, 307430, Control_c, 0, 64, 62
2, 307449, Control_c, 0, 64, 60
2, 307469, Control_c, 0, 64, 57
2, 307488, Control_c, 0, 64, 49
2, 307506, Note_on_c, 0, 50, 0
2, 307507, Control_c, 0, 64, 11
2, 307526, Control_c, 0, 64, 0
2, 307548, Note_on_c, 0, 48, 45
2, 307554, Note_on_c, 0, 65, 0
2, 307560, Note_on_c, 0, 64, 61
2, 307680, Control_c, 0, 64, 13
2, 307699, Control_c, 0, 64, 48
2, 307718, Control_c, 0, 64, 62
2, 307737, Control_c, 0, 64, 66
2, 307757, Control_c, 0, 64, 68
2, 307775, Control_c, 0, 64, 71
2, 307795, Control_c, 0, 64, 75
2, 307814, Control_c, 0, 64, 82
2, 307834, Control_c, 0, 64, 86
2, 307852, Control_c, 0, 64, 88
2, 307910, Control_c, 0, 64, 87
2, 307929, Control_c, 0, 64, 86
2, 307949, Control_c, 0, 64, 84
2, 307964, Note_on_c, 0, 48, 0
2, 307968, Control_c, 0, 64, 79
2, 307987, Control_c, 0, 64, 72
2, 308000, Note_on_c, 0, 65, 62
2, 308005, Note_on_c, 0, 50, 51
2, 308006, Control_c, 0, 64, 65
2, 308026, Control_c, 0, 64, 58
2, 308045, Control_c, 0, 64, 40
2, 308064, Control_c, 0, 64, 0
2, 308120, Control_c, 0, 64, 33
2, 308123, Note_on_c, 0, 64, 0
2, 308138, Control_c, 0, 64, 49
2, 308160, Control_c, 0, 64, 58
2, 308175, Note_on_c, 0, 50, 0
2, 308179, Control_c, 0, 64, 61
2, 308195, Note_on_c, 0, 52, 60
2, 308195, Note_on_c, 0, 67, 67
2, 308198, Control_c, 0, 64, 64
2, 308205, Note_on_c, 0, 65, 0
2, 308206, Note_on_c, 0, 70, 0
2, 308217, Control_c, 0, 64, 67
2, 308237, Control_c, 0, 64, 70
2, 308255, Control_c, 0, 64, 76
2, 308275, Control_c, 0, 64, 82
2, 308294, Control_c, 0, 64, 86
2, 308314, Control_c, 0, 64, 86
2, 308352, Control_c, 0, 64, 85
2, 308371, Control_c, 0, 64, 83
2, 308390, Control_c, 0, 64, 76
2, 308404, Note_on_c, 0, 67, 0
2, 308408, Note_on_c, 0, 53, 71
2, 308409, Control_c, 0, 64, 66
2, 308412, Note_on_c, 0, 60, 72
2, 308429, Control_c, 0, 64, 53
2, 308430, Note_on_c, 0, 52, 0
2, 308448, Control_c, 0, 64, 0
2, 308544, Control_c, 0, 64, 27
2, 308563, Control_c, 0, 64, 56
2, 308583, Control_c, 0, 64, 65
2, 308595, Note_on_c, 0, 55, 73
2, 308599, Note_on_c, 0, 53, 0
2, 308601, Control_c, 0, 64, 69
2, 308620, Control_c, 0, 64, 76
2, 308640, Control_c, 0, 64, 91
2, 308659, Control_c, 0, 64, 113
2, 308678, Control_c, 0, 64, 127
2, 308810, Note_on_c, 0, 56, 76
2, 308812, Control_c, 0, 64, 106
2, 308816, Note_on_c, 0, 68, 83
2, 308823, Note_on_c, 0, 65, 73
2, 308832, Control_c, 0, 64, 78
2, 308838, Note_on_c, 0, 55, 0
2, 308849, Note_on_c, 0, 60, 0
2, 308851, Control_c, 0, 64, 64
2, 308870, Control_c, 0, 64, 38
2, 308889, Control_c, 0, 64, 32
2, 308909, Control_c, 0, 64, 57
2, 308928, Control_c, 0, 64, 63
2, 308947, Control_c, 0, 64, 66
2, 308966, Control_c, 0, 64, 73
2, 308986, Control_c, 0, 64, 90
2, 309005, Control_c, 0, 64, 127
2, 309014, Note_on_c, 0, 58, 74
2, 309037, Note_on_c, 0, 56, 0
2, 309236, Note_on_c, 0, 58, 0
2, 309305, Note_on_c, 0, 48, 77
2, 309305, Note_on_c, 0, 60, 79
2, 309305, Note_on_c, 0, 67, 76
2, 309311, Control_c, 0, 64, 93
2, 309330, Control_c, 0, 64, 71
2, 309350, Control_c, 0, 64, 57
2, 309368, Control_c, 0, 64, 0
2, 309371, Note_on_c, 0, 65, 0
2, 309374, Note_on_c, 0, 68, 0
2, 309582, Control_c, 0, 64, 11
2, 309602, Control_c, 0, 64, 42
2, 309621, Control_c, 0, 64, 54
2, 309640, Control_c, 0, 64, 59
2, 309659, Control_c, 0, 64, 61
2, 309679, Control_c, 0, 64, 63
2, 309698, Control_c, 0, 64, 65
2, 309717, Control_c, 0, 64, 70
2, 309736, Control_c, 0, 64, 82
2, 309756, Control_c, 0, 64, 102
2, 309774, Control_c, 0, 64, 127
2, 309788, Note_on_c, 0, 64, 65
2, 309845, Note_on_c, 0, 48, 0
2, 309885, Note_on_c, 0, 60, 0
2, 310265, Note_on_c, 0, 64, 0
2, 310271, Note_on_c, 0, 49, 84
2, 310282, Note_on_c, 0, 65, 64
2, 310293, Control_c, 0, 64, 83
2, 310312, Control_c, 0, 64, 67
2, 310331, Control_c, 0, 64, 42
2, 310350, Control_c, 0, 64, 0
2, 310485, Control_c, 0, 64, 33
2, 310491, Note_on_c, 0, 65, 0
2, 310504, Control_c, 0, 64, 49
2, 310518, Note_on_c, 0, 64, 62
2, 310523, Control_c, 0, 64, 57
2, 310525, Note_on_c, 0, 67, 0
2, 310542, Control_c, 0, 64, 60
2, 310562, Control_c, 0, 64, 61
2, 310581, Control_c, 0, 64, 63
2, 310600, Control_c, 0, 64, 66
2, 310619, Control_c, 0, 64, 70
2, 310639, Control_c, 0, 64, 78
2, 310658, Control_c, 0, 64, 89
2, 310677, Control_c, 0, 64, 100
2, 310696, Control_c, 0, 64, 127
2, 310722, Note_on_c, 0, 58, 66
2, 310730, Note_on_c, 0, 65, 61
2, 310792, Note_on_c, 0, 49, 0
2, 310813, Note_on_c, 0, 64, 0
2, 310932, Note_on_c, 0, 67, 63
2, 310962, Note_on_c, 0, 65, 0
2, 311119, Note_on_c, 0, 58, 0
2, 311137, Control_c, 0, 64, 95
2, 311138, Note_on_c, 0, 48, 79
2, 311147, Note_on_c, 0, 68, 79
2, 311156, Control_c, 0, 64, 73
2, 311175, Control_c, 0, 64, 59
2, 311194, Note_on_c, 0, 67, 0
2, 311195, Control_c, 0, 64, 0
2, 311341, Note_on_c, 0, 67, 70
2, 311365, Note_on_c, 0, 68, 0
2, 311406, Control_c, 0, 64, 29
2, 311424, Control_c, 0, 64, 44
2, 311444, Control_c, 0, 64, 54
2, 311463, Control_c, 0, 64, 59
2, 311483, Control_c, 0, 64, 62
2, 311501, Control_c, 0, 64, 63
2, 311521, Control_c, 0, 64, 66
2, 311540, Control_c, 0, 64, 70
2, 311549, Note_on_c, 0, 65, 63
2, 311559, Control_c, 0, 64, 80
2, 311561, Note_on_c, 0, 56, 57
2, 311578, Control_c, 0, 64, 98
2, 311598, Control_c, 0, 64, 127
2, 311614, Note_on_c, 0, 48, 0
2, 311694, Note_on_c, 0, 65, 0
2, 311732, Note_on_c, 0, 63, 68
2, 311734, Note_on_c, 0, 56, 0
2, 311943, Control_c, 0, 64, 113
2, 311955, Note_on_c, 0, 63, 0
2, 311963, Control_c, 0, 64, 87
2, 311975, Note_on_c, 0, 47, 80
2, 311982, Control_c, 0, 64, 70
2, 311984, Note_on_c, 0, 62, 67
2, 312002, Control_c, 0, 64, 51
2, 312021, Control_c, 0, 64, 0
2, 312079, Note_on_c, 0, 67, 0
2, 312193, Note_on_c, 0, 65, 64
2, 312347, Control_c, 0, 64, 37
2, 312367, Control_c, 0, 64, 52
2, 312385, Control_c, 0, 64, 58
2, 312405, Control_c, 0, 64, 60
2, 312407, Note_on_c, 0, 67, 67
2, 312419, Note_on_c, 0, 55, 57
2, 312424, Control_c, 0, 64, 63
2, 312443, Control_c, 0, 64, 66
2, 312462, Control_c, 0, 64, 72
2, 312481, Note_on_c, 0, 62, 0
2, 312482, Control_c, 0, 64, 85
2, 312501, Control_c, 0, 64, 99
2, 312520, Control_c, 0, 64, 118
2, 312539, Control_c, 0, 64, 127
2, 312540, Note_on_c, 0, 65, 0
2, 312563, Note_on_c, 0, 55, 0
2, 312590, Note_on_c, 0, 68, 76
2, 312606, Note_on_c, 0, 53, 67
2, 312608, Note_on_c, 0, 47, 0
2, 312630, Note_on_c, 0, 67, 0
2, 312669, Note_on_c, 0, 53, 0
2, 312770, Control_c, 0, 64, 82
2, 312788, Control_c, 0, 64, 65
2, 312808, Control_c, 0, 64, 20
2, 312810, Note_on_c, 0, 70, 85
2, 312817, Note_on_c, 0, 52, 74
2, 312827, Control_c, 0, 64, 0
2, 312830, Note_on_c, 0, 68, 0
2, 312835, Note_on_c, 0, 55, 69
2, 312923, Control_c, 0, 64, 28
2, 312942, Control_c, 0, 64, 51
2, 312963, Control_c, 0, 64, 61
2, 312982, Control_c, 0, 64, 63
2, 312990, Note_on_c, 0, 55, 0
2, 313001, Control_c, 0, 64, 64
2, 313020, Control_c, 0, 64, 64
2, 313022, Note_on_c, 0, 58, 68
2, 313040, Control_c, 0, 64, 65
2, 313058, Control_c, 0, 64, 66
2, 313078, Control_c, 0, 64, 66
2, 313117, Control_c, 0, 64, 66
2, 313135, Control_c, 0, 64, 64
2, 313155, Control_c, 0, 64, 59
2, 313174, Control_c, 0, 64, 48
2, 313192, Control_c, 0, 64, 29
2, 313207, Note_on_c, 0, 58, 0
2, 313212, Control_c, 0, 64, 13
2, 313231, Control_c, 0, 64, 21
2, 313231, Note_on_c, 0, 61, 69
2, 313233, Note_on_c, 0, 56, 65
2, 313251, Control_c, 0, 64, 33
2, 313269, Control_c, 0, 64, 45
2, 313289, Control_c, 0, 64, 53
2, 313308, Control_c, 0, 64, 57
2, 313328, Control_c, 0, 64, 59
2, 313346, Control_c, 0, 64, 61
2, 313366, Control_c, 0, 64, 62
2, 313430, Note_on_c, 0, 55, 64
2, 313478, Note_on_c, 0, 56, 0
2, 313500, Control_c, 0, 64, 61
2, 313520, Control_c, 0, 64, 60
2, 313538, Control_c, 0, 64, 57
2, 313558, Control_c, 0, 64, 51
2, 313577, Control_c, 0, 64, 39
2, 313597, Control_c, 0, 64, 0
2, 313621, Note_on_c, 0, 55, 0
2, 313630, Note_on_c, 0, 52, 0
2, 313659, Note_on_c, 0, 53, 73
2, 313763, Note_on_c, 0, 61, 0
2, 313823, Note_on_c, 0, 70, 0
2, 313845, Note_on_c, 0, 68, 71
2, 314033, Note_on_c, 0, 70, 78
2, 314039, Note_on_c, 0, 55, 61
2, 314042, Note_on_c, 0, 60, 69
2, 314112, Control_c, 0, 64, 24
2, 314132, Control_c, 0, 64, 54
2, 314151, Control_c, 0, 64, 64
2, 314153, Note_on_c, 0, 60, 0
2, 314170, Control_c, 0, 64, 70
2, 314189, Control_c, 0, 64, 81
2, 314209, Control_c, 0, 64, 107
2, 314228, Control_c, 0, 64, 127
2, 314231, Note_on_c, 0, 55, 0
2, 314237, Note_on_c, 0, 72, 84
2, 314245, Note_on_c, 0, 56, 67
2, 314248, Note_on_c, 0, 68, 0
2, 314268, Note_on_c, 0, 53, 0
2, 314286, Note_on_c, 0, 70, 0
2, 314305, Note_on_c, 0, 56, 0
2, 314458, Control_c, 0, 64, 88
2, 314471, Note_on_c, 0, 73, 77
2, 314478, Control_c, 0, 64, 70
2, 314478, Note_on_c, 0, 58, 75
2, 314485, Note_on_c, 0, 46, 66
2, 314497, Control_c, 0, 64, 58
2, 314499, Note_on_c, 0, 72, 0
2, 314516, Control_c, 0, 64, 11
2, 314535, Control_c, 0, 64, 0
2, 314555, Control_c, 0, 64, 48
2, 314573, Control_c, 0, 64, 59
2, 314592, Control_c, 0, 64, 62
2, 314612, Control_c, 0, 64, 64
2, 314631, Control_c, 0, 64, 68
2, 314640, Note_on_c, 0, 58, 0
2, 314650, Control_c, 0, 64, 75
2, 314669, Control_c, 0, 64, 88
2, 314679, Note_on_c, 0, 53, 68
2, 314689, Control_c, 0, 64, 111
2, 314708, Control_c, 0, 64, 127
2, 314823, Control_c, 0, 64, 116
2, 314843, Control_c, 0, 64, 85
2, 314861, Control_c, 0, 64, 68
2, 314881, Control_c, 0, 64, 53
2, 314884, Note_on_c, 0, 66, 76
2, 314898, Note_on_c, 0, 51, 66
2, 314900, Control_c, 0, 64, 33
2, 314919, Control_c, 0, 64, 51
2, 314931, Note_on_c, 0, 53, 0
2, 314938, Control_c, 0, 64, 61
2, 314958, Control_c, 0, 64, 65
2, 314977, Control_c, 0, 64, 70
2, 314996, Control_c, 0, 64, 81
2, 315012, Note_on_c, 0, 46, 0
2, 315015, Control_c, 0, 64, 115
2, 315035, Control_c, 0, 64, 127
2, 315064, Note_on_c, 0, 49, 79
2, 315098, Note_on_c, 0, 73, 0
2, 315106, Note_on_c, 0, 51, 0
2, 315135, Note_on_c, 0, 66, 0
2, 315170, Note_on_c, 0, 49, 0
2, 315307, Note_on_c, 0, 48, 80
2, 315308, Note_on_c, 0, 45, 71
2, 315341, Control_c, 0, 64, 94
2, 315361, Control_c, 0, 64, 76
2, 315380, Control_c, 0, 64, 64
2, 315399, Control_c, 0, 64, 44
2, 315418, Control_c, 0, 64, 0
2, 315503, Note_on_c, 0, 72, 84
2, 315687, Control_c, 0, 64, 34
2, 315706, Control_c, 0, 64, 52
2, 315706, Note_on_c, 0, 74, 84
2, 315712, Note_on_c, 0, 65, 73
2, 315726, Control_c, 0, 64, 61
2, 315733, Note_on_c, 0, 45, 0
2, 315744, Control_c, 0, 64, 64
2, 315764, Control_c, 0, 64, 67
2, 315783, Control_c, 0, 64, 72
2, 315802, Control_c, 0, 64, 86
2, 315821, Control_c, 0, 64, 107
2, 315842, Control_c, 0, 64, 127
2, 315909, Note_on_c, 0, 76, 89
2, 315950, Note_on_c, 0, 72, 0
2, 315976, Note_on_c, 0, 74, 0
2, 316031, Note_on_c, 0, 65, 0
2, 316110, Control_c, 0, 64, 95
2, 316128, Note_on_c, 0, 48, 0
2, 316129, Note_on_c, 0, 44, 79
2, 316129, Note_on_c, 0, 77, 86
2, 316130, Control_c, 0, 64, 71
2, 316148, Control_c, 0, 64, 51
2, 316168, Control_c, 0, 64, 0
2, 316177, Note_on_c, 0, 76, 0
2, 316264, Control_c, 0, 64, 30
2, 316283, Control_c, 0, 64, 51
2, 316302, Control_c, 0, 64, 60
2, 316322, Control_c, 0, 64, 63
2, 316330, Note_on_c, 0, 50, 72
2, 316336, Control_c, 0, 64, 64
2, 316336, Note_on_c, 0, 65, 76
2, 316354, Control_c, 0, 64, 65
2, 316374, Control_c, 0, 64, 68
2, 316393, Control_c, 0, 64, 74
2, 316413, Control_c, 0, 64, 85
2, 316431, Control_c, 0, 64, 99
2, 316446, Note_on_c, 0, 65, 0
2, 316450, Control_c, 0, 64, 127
2, 316527, Control_c, 0, 64, 111
2, 316545, Note_on_c, 0, 67, 82
2, 316547, Control_c, 0, 64, 82
2, 316557, Note_on_c, 0, 52, 74
2, 316565, Control_c, 0, 64, 66
2, 316566, Note_on_c, 0, 50, 0
2, 316585, Control_c, 0, 64, 55
2, 316604, Control_c, 0, 64, 57
2, 316623, Control_c, 0, 64, 63
2, 316642, Control_c, 0, 64, 66
2, 316662, Control_c, 0, 64, 69
2, 316681, Control_c, 0, 64, 76
2, 316686, Note_on_c, 0, 44, 0
2, 316700, Control_c, 0, 64, 92
2, 316719, Control_c, 0, 64, 127
2, 316753, Note_on_c, 0, 68, 90
2, 316755, Note_on_c, 0, 53, 77
2, 316770, Note_on_c, 0, 52, 0
2, 316788, Note_on_c, 0, 67, 0
2, 316802, Note_on_c, 0, 53, 0
2, 317063, Note_on_c, 0, 70, 89
2, 317066, Note_on_c, 0, 43, 80
2, 317067, Note_on_c, 0, 55, 83
2, 317081, Control_c, 0, 64, 97
2, 317098, Note_on_c, 0, 68, 0
2, 317101, Control_c, 0, 64, 74
2, 317119, Control_c, 0, 64, 57
2, 317139, Control_c, 0, 64, 0
2, 317544, Note_on_c, 0, 76, 83
2, 317552, Note_on_c, 0, 77, 0
2, 317581, Control_c, 0, 64, 13
2, 317599, Control_c, 0, 64, 17
2, 317715, Control_c, 0, 64, 19
2, 317733, Control_c, 0, 64, 21
2, 317753, Note_on_c, 0, 74, 83
2, 317756, Control_c, 0, 64, 23
2, 317776, Control_c, 0, 64, 24
2, 317823, Note_on_c, 0, 76, 0
2, 317833, Control_c, 0, 64, 23
2, 317853, Control_c, 0, 64, 19
2, 317871, Control_c, 0, 64, 13
2, 317890, Control_c, 0, 64, 0
2, 318020, Note_on_c, 0, 76, 87
2, 318044, Control_c, 0, 64, 11
2, 318063, Control_c, 0, 64, 18
2, 318072, Note_on_c, 0, 74, 0
2, 318082, Control_c, 0, 64, 22
2, 318102, Control_c, 0, 64, 28
2, 318121, Control_c, 0, 64, 36
2, 318140, Control_c, 0, 64, 42
2, 318159, Control_c, 0, 64, 45
2, 318179, Control_c, 0, 64, 48
2, 318197, Control_c, 0, 64, 49
2, 318217, Control_c, 0, 64, 51
2, 318236, Control_c, 0, 64, 52
2, 318256, Control_c, 0, 64, 54
2, 318256, Note_on_c, 0, 45, 69
2, 318274, Control_c, 0, 64, 56
2, 318294, Control_c, 0, 64, 58
2, 318294, Note_on_c, 0, 43, 0
2, 318313, Control_c, 0, 64, 60
2, 318333, Control_c, 0, 64, 62
2, 318351, Control_c, 0, 64, 64
2, 318370, Control_c, 0, 64, 66
2, 318381, Note_on_c, 0, 55, 0
2, 318390, Control_c, 0, 64, 73
2, 318408, Control_c, 0, 64, 87
2, 318428, Control_c, 0, 64, 127
2, 318454, Note_on_c, 0, 46, 80
2, 318476, Note_on_c, 0, 70, 0
2, 318494, Note_on_c, 0, 45, 0
2, 318663, Note_on_c, 0, 48, 84
2, 318708, Note_on_c, 0, 46, 0
2, 318946, Control_c, 0, 64, 110
2, 318947, Note_on_c, 0, 77, 87
2, 318952, Note_on_c, 0, 41, 71
2, 318954, Note_on_c, 0, 49, 82
2, 318964, Control_c, 0, 64, 83
2, 318984, Control_c, 0, 64, 68
2, 318987, Note_on_c, 0, 76, 0
2, 318993, Note_on_c, 0, 48, 0
2, 319003, Control_c, 0, 64, 54
2, 319023, Control_c, 0, 64, 0
2, 319206, Note_on_c, 0, 48, 62
2, 319209, Note_on_c, 0, 73, 78
2, 319267, Note_on_c, 0, 49, 0
2, 319418, Note_on_c, 0, 49, 72
2, 319421, Note_on_c, 0, 72, 84
2, 319465, Note_on_c, 0, 48, 0
2, 319529, Note_on_c, 0, 77, 0
2, 319623, Note_on_c, 0, 70, 86
2, 319635, Note_on_c, 0, 51, 64
2, 319657, Note_on_c, 0, 49, 0
2, 319676, Note_on_c, 0, 73, 0
2, 319694, Note_on_c, 0, 72, 0
2, 319820, Note_on_c, 0, 41, 0
2, 319837, Note_on_c, 0, 51, 0
2, 319840, Note_on_c, 0, 69, 79
2, 319848, Note_on_c, 0, 53, 64
2, 319914, Note_on_c, 0, 70, 0
2, 320045, Note_on_c, 0, 75, 87
2, 320046, Note_on_c, 0, 41, 65
2, 320229, Control_c, 0, 64, 41
2, 320249, Control_c, 0, 64, 59
2, 320258, Note_on_c, 0, 73, 80
2, 320267, Control_c, 0, 64, 64
2, 320267, Note_on_c, 0, 43, 71
2, 320287, Control_c, 0, 64, 68
2, 320303, Note_on_c, 0, 41, 0
2, 320306, Control_c, 0, 64, 75
2, 320325, Control_c, 0, 64, 92
2, 320344, Control_c, 0, 64, 127
2, 320345, Note_on_c, 0, 75, 0
2, 320399, Note_on_c, 0, 69, 0
2, 320465, Note_on_c, 0, 72, 84
2, 320469, Note_on_c, 0, 45, 66
2, 320471, Note_on_c, 0, 53, 0
2, 320501, Note_on_c, 0, 43, 0
2, 320526, Note_on_c, 0, 45, 0
2, 320568, Note_on_c, 0, 73, 0
2, 320578, Note_on_c, 0, 72, 0
2, 320705, Note_on_c, 0, 46, 66
2, 320707, Note_on_c, 0, 73, 79
2, 320710, Control_c, 0, 64, 103
2, 320730, Control_c, 0, 64, 82
2, 320748, Control_c, 0, 64, 70
2, 320768, Control_c, 0, 64, 62
2, 320787, Control_c, 0, 64, 48
2, 320806, Control_c, 0, 64, 25
2, 320825, Control_c, 0, 64, 17
2, 320922, Control_c, 0, 64, 18
2, 320925, Note_on_c, 0, 72, 81
2, 320928, Note_on_c, 0, 53, 67
2, 320940, Control_c, 0, 64, 19
2, 320959, Control_c, 0, 64, 20
2, 320979, Control_c, 0, 64, 21
2, 321017, Control_c, 0, 64, 22
2, 321036, Control_c, 0, 64, 23
2, 321056, Control_c, 0, 64, 24
2, 321074, Control_c, 0, 64, 25
2, 321094, Control_c, 0, 64, 26
2, 321113, Control_c, 0, 64, 27
2, 321133, Control_c, 0, 64, 28
2, 321138, Note_on_c, 0, 70, 86
2, 321151, Control_c, 0, 64, 29
2, 321152, Note_on_c, 0, 55, 65
2, 321164, Note_on_c, 0, 53, 0
2, 321171, Control_c, 0, 64, 29
2, 321302, Note_on_c, 0, 72, 0
2, 321305, Control_c, 0, 64, 30
2, 321325, Control_c, 0, 64, 31
2, 321332, Note_on_c, 0, 55, 0
2, 321344, Control_c, 0, 64, 31
2, 321353, Note_on_c, 0, 68, 80
2, 321355, Note_on_c, 0, 56, 69
2, 321464, Note_on_c, 0, 70, 0
2, 321478, Control_c, 0, 64, 32
2, 321516, Control_c, 0, 64, 32
2, 321554, Control_c, 0, 64, 33
2, 321571, Note_on_c, 0, 56, 0
2, 321583, Note_on_c, 0, 67, 74
2, 321585, Note_on_c, 0, 68, 0
2, 321591, Note_on_c, 0, 58, 63
2, 321808, Note_on_c, 0, 49, 63
2, 321810, Note_on_c, 0, 70, 81
2, 321811, Note_on_c, 0, 65, 60
2, 321814, Note_on_c, 0, 46, 0
2, 321820, Note_on_c, 0, 67, 0
2, 321864, Control_c, 0, 64, 32
2, 321864, Note_on_c, 0, 73, 0
2, 321878, Note_on_c, 0, 65, 0
2, 321884, Control_c, 0, 64, 31
2, 321902, Control_c, 0, 64, 31
2, 321959, Control_c, 0, 64, 30
2, 321998, Control_c, 0, 64, 29
2, 322032, Note_on_c, 0, 72, 86
2, 322035, Note_on_c, 0, 48, 62
2, 322053, Note_on_c, 0, 63, 71
2, 322056, Control_c, 0, 64, 29
2, 322069, Note_on_c, 0, 49, 0
2, 322093, Note_on_c, 0, 70, 0
2, 322133, Control_c, 0, 64, 30
2, 322135, Note_on_c, 0, 63, 0
2, 322152, Control_c, 0, 64, 34
2, 322171, Control_c, 0, 64, 42
2, 322190, Control_c, 0, 64, 51
2, 322210, Control_c, 0, 64, 59
2, 322229, Control_c, 0, 64, 63
2, 322248, Control_c, 0, 64, 69
2, 322267, Control_c, 0, 64, 80
2, 322274, Note_on_c, 0, 48, 0
2, 322274, Note_on_c, 0, 73, 83
2, 322285, Note_on_c, 0, 46, 71
2, 322287, Control_c, 0, 64, 107
2, 322287, Note_on_c, 0, 61, 74
2, 322305, Control_c, 0, 64, 127
2, 322323, Note_on_c, 0, 72, 0
2, 322386, Note_on_c, 0, 73, 0
2, 322392, Note_on_c, 0, 46, 0
2, 322423, Note_on_c, 0, 61, 0
2, 322542, Note_on_c, 0, 64, 77
2, 322552, Control_c, 0, 64, 104
2, 322556, Note_on_c, 0, 60, 64
2, 322569, Note_on_c, 0, 48, 67
2, 322572, Control_c, 0, 64, 83
2, 322589, Note_on_c, 0, 58, 0
2, 322590, Control_c, 0, 64, 71
2, 322610, Control_c, 0, 64, 63
2, 322629, Control_c, 0, 64, 54
2, 322649, Control_c, 0, 64, 41
2, 322667, Control_c, 0, 64, 35
2, 322725, Control_c, 0, 64, 35
2, 322764, Control_c, 0, 64, 34
2, 322788, Note_on_c, 0, 58, 69
2, 323040, Note_on_c, 0, 72, 85
2, 323077, Note_on_c, 0, 56, 59
2, 323095, Note_on_c, 0, 58, 0
2, 323205, Control_c, 0, 64, 35
2, 323224, Control_c, 0, 64, 35
2, 323233, Note_on_c, 0, 64, 0
2, 323306, Note_on_c, 0, 55, 70
2, 323327, Note_on_c, 0, 56, 0
2, 323594, Note_on_c, 0, 56, 69
2, 323609, Control_c, 0, 64, 35
2, 323627, Control_c, 0, 64, 33
2, 323647, Control_c, 0, 64, 32
2, 323665, Note_on_c, 0, 55, 0
2, 323666, Control_c, 0, 64, 31
2, 323685, Control_c, 0, 64, 29
2, 323704, Control_c, 0, 64, 27
2, 323724, Control_c, 0, 64, 25
2, 323743, Control_c, 0, 64, 18
2, 323761, Control_c, 0, 64, 0
2, 323865, Note_on_c, 0, 67, 66
2, 323986, Note_on_c, 0, 72, 0
2, 324188, Note_on_c, 0, 68, 76
2, 324300, Note_on_c, 0, 67, 0
2, 324415, Control_c, 0, 64, 26
2, 324434, Control_c, 0, 64, 38
2, 324453, Control_c, 0, 64, 49
2, 324472, Control_c, 0, 64, 55
2, 324492, Control_c, 0, 64, 59
2, 324510, Control_c, 0, 64, 61
2, 324518, Note_on_c, 0, 65, 62
2, 324530, Control_c, 0, 64, 63
2, 324549, Control_c, 0, 64, 65
2, 324569, Control_c, 0, 64, 68
2, 324587, Control_c, 0, 64, 74
2, 324606, Note_on_c, 0, 56, 0
2, 324607, Control_c, 0, 64, 83
2, 324616, Note_on_c, 0, 68, 0
2, 324626, Control_c, 0, 64, 95
2, 324645, Control_c, 0, 64, 118
2, 324664, Control_c, 0, 64, 127
2, 324805, Note_on_c, 0, 65, 0
2, 324855, Note_on_c, 0, 56, 50
2, 324933, Control_c, 0, 67, 10
2, 324952, Control_c, 0, 67, 16
2, 324972, Control_c, 0, 67, 20
2, 324973, Note_on_c, 0, 55, 55
2, 324990, Control_c, 0, 64, 114
2, 324990, Control_c, 0, 67, 24
2, 325010, Control_c, 0, 64, 104
2, 325010, Control_c, 0, 67, 27
2, 325029, Control_c, 0, 64, 97
2, 325029, Control_c, 0, 67, 30
2, 325049, Control_c, 0, 64, 91
2, 325049, Control_c, 0, 67, 34
2, 325053, Note_on_c, 0, 56, 0
2, 325067, Control_c, 0, 64, 85
2, 325067, Control_c, 0, 67, 37
2, 325087, Control_c, 0, 64, 79
2, 325087, Control_c, 0, 67, 40
2, 325106, Control_c, 0, 64, 75
2, 325106, Control_c, 0, 67, 43
2, 325106, Note_on_c, 0, 53, 54
2, 325115, Note_on_c, 0, 55, 0
2, 325125, Control_c, 0, 64, 73
2, 325125, Control_c, 0, 67, 45
2, 325125, Note_on_c, 0, 65, 70
2, 325144, Control_c, 0, 64, 71
2, 325144, Control_c, 0, 67, 46
2, 325164, Control_c, 0, 64, 70
2, 325164, Control_c, 0, 67, 47
2, 325183, Control_c, 0, 64, 68
2, 325201, Control_c, 0, 64, 67
2, 325221, Control_c, 0, 64, 65
2, 325240, Control_c, 0, 64, 64
2, 325260, Control_c, 0, 64, 63
2, 325273, Note_on_c, 0, 55, 64
2, 325274, Note_on_c, 0, 53, 0
2, 325278, Control_c, 0, 64, 63
2, 325317, Control_c, 0, 64, 62
2, 325317, Control_c, 0, 67, 46
2, 325336, Control_c, 0, 64, 62
2, 325375, Control_c, 0, 64, 61
2, 325383, Note_on_c, 0, 55, 0
2, 325391, Note_on_c, 0, 64, 72
2, 325403, Note_on_c, 0, 56, 59
2, 325414, Control_c, 0, 64, 60
2, 325433, Control_c, 0, 64, 60
2, 325453, Control_c, 0, 64, 59
2, 325471, Control_c, 0, 64, 59
2, 325491, Control_c, 0, 64, 58
2, 325510, Control_c, 0, 64, 58
2, 325514, Note_on_c, 0, 56, 0
2, 325530, Control_c, 0, 64, 57
2, 325532, Note_on_c, 0, 55, 61
2, 325548, Control_c, 0, 64, 57
2, 325548, Control_c, 0, 67, 47
2, 325568, Control_c, 0, 64, 56
2, 325587, Control_c, 0, 64, 56
2, 325606, Control_c, 0, 64, 55
2, 325609, Note_on_c, 0, 65, 0
2, 325625, Control_c, 0, 64, 55
2, 325639, Note_on_c, 0, 55, 0
2, 325645, Control_c, 0, 64, 54
2, 325657, Note_on_c, 0, 62, 75
2, 325664, Control_c, 0, 64, 54
2, 325667, Note_on_c, 0, 56, 64
2, 325702, Control_c, 0, 64, 53
2, 325721, Control_c, 0, 64, 53
2, 325742, Note_on_c, 0, 64, 0
2, 325759, Control_c, 0, 64, 52
2, 325781, Note_on_c, 0, 56, 0
2, 325800, Note_on_c, 0, 55, 62
2, 325894, Control_c, 0, 64, 52
2, 325963, Note_on_c, 0, 55, 0
2, 325971, Note_on_c, 0, 56, 50
2, 325985, Note_on_c, 0, 65, 66
2, 326022, Note_on_c, 0, 62, 0
2, 326088, Control_c, 0, 67, 46
2, 326108, Control_c, 0, 64, 52
2, 326161, Note_on_c, 0, 55, 55
2, 326161, Note_on_c, 0, 56, 0
2, 326165, Note_on_c, 0, 64, 73
2, 326204, Control_c, 0, 64, 52
2, 326223, Control_c, 0, 67, 46
2, 326223, Note_on_c, 0, 65, 0
2, 326347, Note_on_c, 0, 56, 54
2, 326348, Note_on_c, 0, 65, 76
2, 326357, Control_c, 0, 64, 51
2, 326359, Note_on_c, 0, 55, 0
2, 326388, Note_on_c, 0, 64, 0
2, 326530, Note_on_c, 0, 64, 78
2, 326538, Note_on_c, 0, 55, 56
2, 326545, Note_on_c, 0, 56, 0
2, 326586, Note_on_c, 0, 65, 0
2, 326791, Note_on_c, 0, 65, 71
2, 326802, Note_on_c, 0, 56, 55
2, 326815, Note_on_c, 0, 55, 0
2, 326877, Note_on_c, 0, 64, 0
2, 327049, Note_on_c, 0, 64, 70
2, 327061, Note_on_c, 0, 55, 46
2, 327164, Note_on_c, 0, 56, 0
2, 327277, Note_on_c, 0, 65, 0
2, 327410, Note_on_c, 0, 62, 66
2, 327418, Note_on_c, 0, 53, 42
2, 327471, Note_on_c, 0, 55, 0
2, 327508, Control_c, 0, 64, 51
2, 327538, Note_on_c, 0, 64, 0
2, 327546, Control_c, 0, 64, 50
2, 327719, Control_c, 0, 64, 50
2, 327941, Note_on_c, 0, 64, 68
2, 327973, Note_on_c, 0, 55, 43
2, 328012, Note_on_c, 0, 62, 0
2, 328027, Note_on_c, 0, 53, 0
2, 328103, Control_c, 0, 67, 45
2, 328122, Control_c, 0, 64, 50
2, 328160, Control_c, 0, 64, 52
2, 328160, Control_c, 0, 67, 45
2, 328180, Control_c, 0, 64, 54
2, 328199, Control_c, 0, 64, 56
2, 328218, Control_c, 0, 64, 59
2, 328237, Control_c, 0, 64, 61
2, 328257, Control_c, 0, 64, 63
2, 328257, Control_c, 0, 67, 44
2, 328275, Control_c, 0, 64, 64
2, 328293, Control_c, 0, 64, 66
2, 328315, Control_c, 0, 64, 68
2, 328335, Control_c, 0, 64, 73
2, 328353, Control_c, 0, 64, 81
2, 328372, Control_c, 0, 64, 92
2, 328392, Control_c, 0, 64, 104
2, 328411, Control_c, 0, 64, 127
2, 328411, Note_on_c, 0, 60, 0
2, 329083, Control_c, 0, 67, 44
2, 329225, Note_on_c, 0, 65, 58
2, 329236, Note_on_c, 0, 60, 47
2, 329237, Note_on_c, 0, 41, 36
2, 329237, Note_on_c, 0, 57, 40
2, 329293, Control_c, 0, 67, 43
2, 329313, Control_c, 0, 64, 97
2, 329331, Control_c, 0, 64, 79
2, 329351, Control_c, 0, 64, 67
2, 329370, Control_c, 0, 64, 53
2, 329389, Control_c, 0, 64, 18
2, 329408, Control_c, 0, 64, 9
2, 329587, Note_on_c, 0, 64, 0
2, 329620, Note_on_c, 0, 55, 0
2, 329712, Note_on_c, 0, 48, 0
2, 329850, Control_c, 0, 64, 0
2, 330100, Control_c, 0, 64, 9
2, 330119, Control_c, 0, 64, 11
2, 330138, Control_c, 0, 64, 15
2, 330157, Control_c, 0, 64, 18
2, 330177, Control_c, 0, 64, 22
2, 330194, Control_c, 0, 64, 25
2, 330213, Control_c, 0, 64, 29
2, 330237, Control_c, 0, 64, 32
2, 330257, Control_c, 0, 64, 36
2, 330275, Control_c, 0, 64, 40
2, 330295, Control_c, 0, 64, 43
2, 330314, Control_c, 0, 64, 45
2, 330332, Control_c, 0, 64, 47
2, 330352, Control_c, 0, 64, 49
2, 330371, Control_c, 0, 64, 50
2, 330391, Control_c, 0, 64, 51
2, 330409, Control_c, 0, 64, 51
2, 330468, Control_c, 0, 64, 52
2, 330678, Control_c, 0, 64, 52
2, 330755, Control_c, 0, 64, 53
2, 330774, Control_c, 0, 64, 53
2, 330794, Control_c, 0, 64, 54
2, 330832, Control_c, 0, 64, 54
2, 330851, Control_c, 0, 64, 55
2, 330871, Control_c, 0, 64, 55
2, 330889, Control_c, 0, 64, 56
2, 330909, Control_c, 0, 64, 57
2, 330928, Control_c, 0, 64, 58
2, 330948, Control_c, 0, 64, 58
2, 330966, Control_c, 0, 64, 59
2, 330986, Control_c, 0, 64, 59
2, 331005, Control_c, 0, 64, 60
2, 331024, Control_c, 0, 64, 60
2, 331043, Control_c, 0, 64, 61
2, 331063, Control_c, 0, 64, 62
2, 331082, Control_c, 0, 64, 62
2, 331082, Control_c, 0, 67, 43
2, 331101, Control_c, 0, 64, 63
2, 331120, Control_c, 0, 64, 63
2, 331140, Control_c, 0, 64, 64
2, 331157, Control_c, 0, 64, 64
2, 331177, Control_c, 0, 64, 65
2, 331197, Control_c, 0, 64, 66
2, 331217, Control_c, 0, 64, 68
2, 331235, Control_c, 0, 64, 69
2, 331254, Control_c, 0, 64, 72
2, 331274, Control_c, 0, 64, 74
2, 331292, Control_c, 0, 64, 76
2, 331312, Control_c, 0, 64, 78
2, 331331, Control_c, 0, 64, 80
2, 331351, Control_c, 0, 64, 81
2, 331408, Control_c, 0, 64, 82
2, 331428, Control_c, 0, 64, 82
2, 331446, Control_c, 0, 64, 83
2, 331466, Control_c, 0, 64, 83
2, 331504, Control_c, 0, 64, 84
2, 331523, Control_c, 0, 67, 43
2, 332251, Control_c, 0, 64, 83
2, 333877, Note_on_c, 0, 57, 0
2, 334170, Control_c, 0, 64, 83
2, 334244, Note_on_c, 0, 60, 0
2, 334278, Note_on_c, 0, 41, 0
2, 334331, Note_on_c, 0, 65, 0
2, 334362, Control_c, 0, 64, 82
2, 334497, Control_c, 0, 64, 82
2, 334573, Control_c, 0, 64, 81
2, 334593, Control_c, 0, 64, 81
2, 334611, Control_c, 0, 64, 80
2, 334631, Control_c, 0, 64, 79
2, 334650, Control_c, 0, 64, 78
2, 334669, Control_c, 0, 64, 77
2, 334688, Control_c, 0, 64, 77
2, 334727, Control_c, 0, 64, 76
2, 334746, Control_c, 0, 64, 75
2, 334765, Control_c, 0, 64, 74
2, 334803, Control_c, 0, 64, 74
2, 334880, Control_c, 0, 64, 73
2, 334977, Control_c, 0, 64, 73
2, 335014, Control_c, 0, 67, 44
2, 335056, Control_c, 0, 64, 72
2, 335228, Control_c, 0, 64, 72
2, 335324, Control_c, 0, 64, 71
2, 335401, Control_c, 0, 64, 71
2, 335516, Control_c, 0, 64, 70
2, 335551, Control_c, 0, 64, 70
2, 335628, Control_c, 0, 64, 69
2, 335648, Control_c, 0, 64, 69
2, 335705, Control_c, 0, 64, 68
2, 335820, Control_c, 0, 64, 68
2, 335936, Control_c, 0, 64, 67
2, 336030, Control_c, 0, 64, 67
2, 336049, Control_c, 0, 64, 66
2, 336068, Control_c, 0, 64, 65
2, 336088, Control_c, 0, 64, 65
2, 336682, Control_c, 0, 64, 65
2, 336990, Control_c, 0, 67, 43
2, 337489, Control_c, 0, 67, 43
2, 338122, Control_c, 0, 67, 42
2, 338949, Control_c, 0, 67, 43
2, 339121, Control_c, 0, 67, 42
2, 339180, Control_c, 0, 67, 42
2, 339218, Control_c, 0, 67, 41
2, 339256, Control_c, 0, 67, 40
2, 339275, Control_c, 0, 67, 39
2, 339295, Control_c, 0, 67, 39
2, 339314, Control_c, 0, 67, 38
2, 339333, Control_c, 0, 67, 37
2, 339352, Control_c, 0, 67, 37
2, 339372, Control_c, 0, 67, 36
2, 339390, Control_c, 0, 67, 36
2, 339449, Control_c, 0, 67, 35
2, 339467, Control_c, 0, 67, 35
2, 339487, Control_c, 0, 67, 34
2, 339524, Control_c, 0, 67, 34
2, 339583, Control_c, 0, 67, 33
2, 339601, Control_c, 0, 67, 33
2, 339660, Control_c, 0, 67, 32
2, 339909, Control_c, 0, 67, 32
2, 340063, Control_c, 0, 67, 31
2, 340140, Control_c, 0, 67, 31
2, 340216, Control_c, 0, 67, 30
2, 340255, Control_c, 0, 64, 65
2, 340274, Control_c, 0, 67, 30
2, 340293, Control_c, 0, 67, 29
2, 340312, Control_c, 0, 64, 64
2, 340312, Control_c, 0, 67, 28
2, 340332, Control_c, 0, 64, 64
2, 340332, Control_c, 0, 67, 21
2, 340350, Control_c, 0, 64, 63
2, 340350, Control_c, 0, 67, 16
2, 340370, Control_c, 0, 64, 63
2, 340370, Control_c, 0, 67, 12
2, 340389, Control_c, 0, 64, 62
2, 340389, Control_c, 0, 67, 9
2, 340409, Control_c, 0, 64, 61
2, 340409, Control_c, 0, 67, 0
2, 340427, Control_c, 0, 64, 60
2, 340447, Control_c, 0, 64, 59
2, 340466, Control_c, 0, 64, 58
2, 340484, Control_c, 0, 64, 57
2, 340504, Control_c, 0, 64, 56
2, 340523, Control_c, 0, 64, 54
2, 340543, Control_c, 0, 64, 52
2, 340561, Control_c, 0, 64, 47
2, 340581, Control_c, 0, 64, 42
2, 340600, Control_c, 0, 64, 36
2, 340620, Control_c, 0, 64, 32
2, 340638, Control_c, 0, 64, 29
2, 340658, Control_c, 0, 64, 29
2, 340696, Control_c, 0, 64, 28
2, 340715, Control_c, 0, 64, 27
2, 340735, Control_c, 0, 64, 22
2, 340753, Control_c, 0, 64, 0
2, 340754, End_track
0, 0, End_of_file
