0, 0, Header, 1, 2, 480
1, 0, Start_track
1, 0, Tempo, 500000
1, 0, Time_signature, 4, 2, 24, 8
1, 1, End_track
2, 0, Start_track
2, 0, Program_c, 0, 0
2, 0, Control_c, 0, 64, 69
2, 0, Control_c, 0, 67, 32
2, 23, Control_c, 0, 67, 32
2, 42, Control_c, 0, 67, 31
2, 62, Control_c, 0, 67, 31
2, 80, Control_c, 0, 64, 70
2, 80, Control_c, 0, 67, 30
2, 136, Control_c, 0, 67, 30
2, 174, Control_c, 0, 67, 29
2, 212, Control_c, 0, 67, 29
2, 251, Control_c, 0, 64, 70
2, 270, Control_c, 0, 67, 28
2, 308, Control_c, 0, 67, 28
2, 327, Control_c, 0, 64, 71
2, 365, Control_c, 0, 64, 71
2, 385, Control_c, 0, 64, 72
2, 404, Control_c, 0, 64, 74
2, 404, Control_c, 0, 67, 27
2, 423, Control_c, 0, 64, 76
2, 442, Control_c, 0, 64, 78
2, 462, Control_c, 0, 64, 80
2, 480, Control_c, 0, 64, 82
2, 500, Control_c, 0, 64, 83
2, 519, Control_c, 0, 64, 84
2, 539, Control_c, 0, 64, 84
2, 557, Control_c, 0, 64, 85
2, 634, Control_c, 0, 67, 27
2, 903, Control_c, 0, 67, 26
2, 922, Control_c, 0, 64, 84
2, 957, Note_on_c, 0, 56, 41
2, 960, Control_c, 0, 64, 84
2, 966, Note_on_c, 0, 65, 43
2, 980, Control_c, 0, 64, 83
2, 980, Control_c, 0, 67, 26
2, 987, Note_on_c, 0, 53, 33
2, 999, Control_c, 0, 64, 81
2, 1019, Control_c, 0, 64, 78
2, 1037, Control_c, 0, 64, 75
2, 1057, Control_c, 0, 64, 71
2, 1076, Control_c, 0, 64, 67
2, 1096, Control_c, 0, 64, 64
2, 1114, Control_c, 0, 64, 59
2, 1134, Control_c, 0, 64, 53
2, 1153, Control_c, 0, 64, 48
2, 1172, Control_c, 0, 64, 43
2, 1191, Control_c, 0, 64, 36
2, 1211, Control_c, 0, 64, 29
2, 1230, Control_c, 0, 64, 24
2, 1248, Control_c, 0, 64, 21
2, 1306, Control_c, 0, 64, 26
2, 1325, Control_c, 0, 64, 37
2, 1345, Control_c, 0, 64, 46
2, 1364, Control_c, 0, 64, 52
2, 1383, Control_c, 0, 64, 55
2, 1402, Control_c, 0, 64, 59
2, 1422, Control_c, 0, 64, 62
2, 1440, Control_c, 0, 64, 63
2, 1460, Control_c, 0, 64, 64
2, 1479, Control_c, 0, 64, 66
2, 1499, Control_c, 0, 64, 67
2, 1517, Control_c, 0, 64, 70
2, 1537, Control_c, 0, 64, 73
2, 1556, Control_c, 0, 64, 76
2, 1574, Note_on_c, 0, 68, 46
2, 1576, Control_c, 0, 64, 79
2, 1594, Control_c, 0, 64, 81
2, 1614, Control_c, 0, 64, 83
2, 1633, Control_c, 0, 64, 84
2, 1652, Control_c, 0, 64, 84
2, 1710, Control_c, 0, 64, 85
2, 1900, Control_c, 0, 64, 84
2, 1928, Note_on_c, 0, 72, 55
2, 1958, Control_c, 0, 67, 25
2, 1978, Note_on_c, 0, 65, 0
2, 2073, Control_c, 0, 64, 84
2, 2237, Note_on_c, 0, 77, 63
2, 2438, Control_c, 0, 64, 83
2, 2476, Control_c, 0, 64, 83
2, 2496, Control_c, 0, 64, 82
2, 2515, Control_c, 0, 64, 80
2, 2535, Control_c, 0, 64, 79
2, 2553, Control_c, 0, 64, 76
2, 2570, Note_on_c, 0, 67, 55
2, 2573, Control_c, 0, 64, 73
2, 2592, Control_c, 0, 64, 70
2, 2593, Note_on_c, 0, 58, 42
2, 2611, Control_c, 0, 64, 66
2, 2630, Control_c, 0, 64, 63
2, 2650, Control_c, 0, 64, 58
2, 2669, Control_c, 0, 64, 54
2, 2679, Note_on_c, 0, 77, 0
2, 2684, Note_on_c, 0, 72, 0
2, 2687, Control_c, 0, 64, 46
2, 2692, Note_on_c, 0, 68, 0
2, 2707, Control_c, 0, 64, 32
2, 2726, Control_c, 0, 64, 11
2, 2746, Control_c, 0, 64, 0
2, 2773, Note_on_c, 0, 56, 0
2, 2893, Note_on_c, 0, 77, 65
2, 2976, Control_c, 0, 67, 25
2, 3053, Control_c, 0, 67, 24
2, 3167, Control_c, 0, 67, 24
2, 3186, Note_on_c, 0, 76, 70
2, 3263, Note_on_c, 0, 77, 0
2, 3436, Control_c, 0, 64, 24
2, 3456, Control_c, 0, 64, 42
2, 3475, Control_c, 0, 64, 54
2, 3495, Control_c, 0, 64, 59
2, 3500, Note_on_c, 0, 79, 76
2, 3513, Control_c, 0, 64, 63
2, 3533, Control_c, 0, 64, 65
2, 3552, Control_c, 0, 64, 68
2, 3571, Control_c, 0, 64, 71
2, 3587, Note_on_c, 0, 67, 0
2, 3590, Control_c, 0, 64, 76
2, 3610, Control_c, 0, 64, 81
2, 3629, Control_c, 0, 64, 84
2, 3647, Control_c, 0, 64, 85
2, 3801, Control_c, 0, 64, 83
2, 3817, Control_c, 0, 64, 81
2, 3827, Note_on_c, 0, 60, 45
2, 3830, Note_on_c, 0, 68, 69
2, 3835, Control_c, 0, 64, 78
2, 3854, Control_c, 0, 64, 76
2, 3873, Control_c, 0, 64, 74
2, 3893, Control_c, 0, 64, 72
2, 3911, Control_c, 0, 64, 69
2, 3931, Control_c, 0, 64, 65
2, 3945, Note_on_c, 0, 58, 0
2, 3950, Control_c, 0, 64, 61
2, 3970, Control_c, 0, 64, 55
2, 3981, Note_on_c, 0, 76, 0
2, 3988, Control_c, 0, 64, 45
2, 4007, Control_c, 0, 64, 30
2, 4027, Control_c, 0, 64, 0
2, 4059, Note_on_c, 0, 79, 0
2, 4149, Note_on_c, 0, 72, 71
2, 4460, Note_on_c, 0, 77, 74
2, 4641, Control_c, 0, 64, 32
2, 4661, Control_c, 0, 64, 50
2, 4679, Control_c, 0, 64, 58
2, 4699, Control_c, 0, 64, 61
2, 4718, Control_c, 0, 64, 63
2, 4737, Control_c, 0, 64, 64
2, 4756, Control_c, 0, 64, 68
2, 4767, Note_on_c, 0, 76, 71
2, 4777, Control_c, 0, 64, 72
2, 4796, Control_c, 0, 64, 78
2, 4815, Control_c, 0, 64, 83
2, 4834, Control_c, 0, 64, 85
2, 4847, Note_on_c, 0, 77, 0
2, 4854, Control_c, 0, 64, 86
2, 4872, Control_c, 0, 64, 86
2, 4892, Control_c, 0, 64, 87
2, 4936, Note_on_c, 0, 68, 0
2, 5006, Control_c, 0, 64, 86
2, 5026, Control_c, 0, 64, 86
2, 5045, Control_c, 0, 64, 84
2, 5065, Control_c, 0, 64, 82
2, 5083, Control_c, 0, 64, 80
2, 5103, Control_c, 0, 64, 78
2, 5122, Control_c, 0, 64, 76
2, 5136, Note_on_c, 0, 77, 68
2, 5142, Control_c, 0, 64, 74
2, 5144, Note_on_c, 0, 56, 45
2, 5160, Control_c, 0, 64, 71
2, 5180, Control_c, 0, 64, 69
2, 5199, Control_c, 0, 64, 66
2, 5216, Note_on_c, 0, 72, 0
2, 5218, Control_c, 0, 64, 64
2, 5227, Note_on_c, 0, 76, 0
2, 5237, Control_c, 0, 64, 60
2, 5257, Control_c, 0, 64, 55
2, 5276, Control_c, 0, 64, 46
2, 5295, Control_c, 0, 64, 31
2, 5314, Control_c, 0, 64, 0
2, 5412, Note_on_c, 0, 60, 0
2, 5532, Note_on_c, 0, 72, 60
2, 5842, Note_on_c, 0, 70, 63
2, 5927, Control_c, 0, 64, 18
2, 5947, Control_c, 0, 64, 36
2, 5966, Control_c, 0, 64, 48
2, 5973, Note_on_c, 0, 72, 0
2, 5985, Control_c, 0, 64, 55
2, 6004, Control_c, 0, 64, 59
2, 6024, Control_c, 0, 64, 62
2, 6042, Control_c, 0, 64, 63
2, 6062, Control_c, 0, 64, 65
2, 6081, Control_c, 0, 64, 66
2, 6101, Control_c, 0, 64, 68
2, 6119, Control_c, 0, 64, 70
2, 6139, Control_c, 0, 64, 74
2, 6144, Note_on_c, 0, 68, 60
2, 6158, Control_c, 0, 64, 77
2, 6177, Control_c, 0, 64, 80
2, 6196, Control_c, 0, 64, 81
2, 6198, Note_on_c, 0, 70, 0
2, 6216, Control_c, 0, 64, 82
2, 6235, Control_c, 0, 64, 82
2, 6273, Control_c, 0, 64, 83
2, 6369, Control_c, 0, 64, 82
2, 6388, Control_c, 0, 64, 82
2, 6407, Control_c, 0, 64, 81
2, 6427, Control_c, 0, 64, 80
2, 6446, Control_c, 0, 64, 79
2, 6465, Control_c, 0, 64, 78
2, 6465, Control_c, 0, 67, 24
2, 6484, Control_c, 0, 64, 76
2, 6487, Note_on_c, 0, 73, 63
2, 6504, Control_c, 0, 64, 73
2, 6504, Control_c, 0, 67, 25
2, 6508, Note_on_c, 0, 58, 43
2, 6522, Control_c, 0, 64, 72
2, 6522, Control_c, 0, 67, 25
2, 6542, Control_c, 0, 64, 70
2, 6561, Control_c, 0, 64, 69
2, 6581, Control_c, 0, 64, 67
2, 6581, Control_c, 0, 67, 26
2, 6599, Control_c, 0, 64, 64
2, 6599, Control_c, 0, 67, 26
2, 6607, Note_on_c, 0, 68, 0
2, 6619, Control_c, 0, 64, 61
2, 6638, Control_c, 0, 64, 55
2, 6655, Note_on_c, 0, 56, 0
2, 6657, Control_c, 0, 64, 44
2, 6676, Control_c, 0, 64, 17
2, 6676, Control_c, 0, 67, 27
2, 6696, Control_c, 0, 64, 0
2, 6824, Note_on_c, 0, 68, 55
2, 6902, Note_on_c, 0, 77, 0
2, 7157, Control_c, 0, 67, 26
2, 7161, Note_on_c, 0, 67, 48
2, 7171, Note_on_c, 0, 68, 0
2, 7272, Control_c, 0, 67, 26
2, 7331, Control_c, 0, 64, 19
2, 7349, Control_c, 0, 64, 39
2, 7368, Control_c, 0, 64, 56
2, 7368, Control_c, 0, 67, 25
2, 7388, Control_c, 0, 64, 61
2, 7406, Control_c, 0, 64, 63
2, 7426, Control_c, 0, 64, 64
2, 7445, Control_c, 0, 64, 65
2, 7453, Note_on_c, 0, 67, 0
2, 7454, Note_on_c, 0, 70, 58
2, 7465, Control_c, 0, 64, 67
2, 7483, Control_c, 0, 64, 70
2, 7503, Control_c, 0, 64, 74
2, 7522, Control_c, 0, 64, 79
2, 7542, Control_c, 0, 64, 81
2, 7637, Control_c, 0, 64, 81
2, 7675, Control_c, 0, 64, 80
2, 7694, Control_c, 0, 64, 80
2, 7713, Control_c, 0, 64, 79
2, 7733, Control_c, 0, 64, 78
2, 7751, Control_c, 0, 64, 77
2, 7771, Control_c, 0, 64, 76
2, 7790, Control_c, 0, 64, 74
2, 7803, Note_on_c, 0, 64, 52
2, 7809, Control_c, 0, 64, 73
2, 7812, Note_on_c, 0, 55, 35
2, 7828, Control_c, 0, 64, 71
2, 7847, Control_c, 0, 64, 68
2, 7867, Control_c, 0, 64, 66
2, 7886, Control_c, 0, 64, 64
2, 7905, Control_c, 0, 64, 62
2, 7922, Note_on_c, 0, 70, 0
2, 7924, Control_c, 0, 64, 59
2, 7934, Note_on_c, 0, 73, 0
2, 7942, Note_on_c, 0, 58, 0
2, 7944, Control_c, 0, 64, 55
2, 7962, Control_c, 0, 64, 47
2, 7982, Control_c, 0, 64, 32
2, 8001, Control_c, 0, 64, 0
2, 8135, Note_on_c, 0, 73, 54
2, 8461, Note_on_c, 0, 72, 60
2, 8516, Note_on_c, 0, 73, 0
2, 8522, Control_c, 0, 67, 25
2, 8561, Control_c, 0, 64, 28
2, 8579, Control_c, 0, 64, 42
2, 8599, Control_c, 0, 64, 55
2, 8618, Control_c, 0, 64, 60
2, 8638, Control_c, 0, 64, 61
2, 8656, Control_c, 0, 64, 63
2, 8676, Control_c, 0, 64, 64
2, 8695, Control_c, 0, 64, 66
2, 8712, Note_on_c, 0, 53, 0
2, 8714, Control_c, 0, 64, 68
2, 8733, Control_c, 0, 64, 71
2, 8753, Control_c, 0, 64, 75
2, 8772, Control_c, 0, 64, 79
2, 8779, Note_on_c, 0, 70, 59
2, 8791, Control_c, 0, 64, 82
2, 8810, Control_c, 0, 64, 84
2, 8830, Control_c, 0, 64, 85
2, 8844, Note_on_c, 0, 72, 0
2, 8849, Control_c, 0, 64, 86
2, 8868, Control_c, 0, 64, 87
2, 8885, Note_on_c, 0, 64, 0
2, 8887, Control_c, 0, 64, 88
2, 8907, Control_c, 0, 64, 89
2, 9059, Control_c, 0, 64, 88
2, 9079, Control_c, 0, 64, 88
2, 9098, Control_c, 0, 64, 87
2, 9118, Control_c, 0, 64, 86
2, 9136, Control_c, 0, 64, 85
2, 9156, Control_c, 0, 64, 84
2, 9166, Note_on_c, 0, 53, 43
2, 9175, Control_c, 0, 64, 82
2, 9188, Note_on_c, 0, 68, 53
2, 9195, Control_c, 0, 64, 80
2, 9208, Note_on_c, 0, 65, 38
2, 9213, Control_c, 0, 64, 78
2, 9233, Control_c, 0, 64, 75
2, 9252, Control_c, 0, 64, 72
2, 9261, Note_on_c, 0, 55, 0
2, 9271, Control_c, 0, 64, 67
2, 9290, Control_c, 0, 64, 63
2, 9294, Note_on_c, 0, 70, 0
2, 9310, Control_c, 0, 64, 57
2, 9329, Control_c, 0, 64, 52
2, 9348, Control_c, 0, 64, 46
2, 9367, Control_c, 0, 64, 35
2, 9387, Control_c, 0, 64, 11
2, 9405, Control_c, 0, 64, 0
2, 9632, Note_on_c, 0, 56, 44
2, 9694, Control_c, 0, 64, 15
2, 9714, Control_c, 0, 64, 38
2, 9733, Control_c, 0, 64, 53
2, 9752, Control_c, 0, 64, 59
2, 9771, Control_c, 0, 64, 61
2, 9791, Control_c, 0, 64, 62
2, 9809, Control_c, 0, 64, 64
2, 9829, Control_c, 0, 64, 65
2, 9848, Control_c, 0, 64, 67
2, 9868, Control_c, 0, 64, 70
2, 9886, Control_c, 0, 64, 74
2, 9899, Note_on_c, 0, 65, 0
2, 9906, Control_c, 0, 64, 79
2, 9925, Control_c, 0, 64, 83
2, 9940, Note_on_c, 0, 60, 45
2, 9945, Control_c, 0, 64, 85
2, 9963, Control_c, 0, 64, 86
2, 9983, Control_c, 0, 64, 88
2, 10002, Control_c, 0, 64, 89
2, 10040, Control_c, 0, 64, 90
2, 10201, Note_on_c, 0, 53, 0
2, 10202, Note_on_c, 0, 70, 61
2, 10220, Note_on_c, 0, 65, 35
2, 10229, Note_on_c, 0, 68, 0
2, 10251, Control_c, 0, 64, 89
2, 10289, Control_c, 0, 64, 89
2, 10328, Control_c, 0, 64, 88
2, 10348, Control_c, 0, 64, 87
2, 10366, Control_c, 0, 64, 86
2, 10386, Control_c, 0, 64, 85
2, 10405, Control_c, 0, 64, 84
2, 10405, Control_c, 0, 67, 25
2, 10425, Control_c, 0, 64, 82
2, 10443, Control_c, 0, 64, 80
2, 10463, Control_c, 0, 64, 77
2, 10482, Control_c, 0, 64, 74
2, 10498, Note_on_c, 0, 55, 45
2, 10499, Note_on_c, 0, 65, 0
2, 10500, Control_c, 0, 64, 71
2, 10519, Control_c, 0, 64, 68
2, 10538, Control_c, 0, 64, 66
2, 10554, Note_on_c, 0, 60, 0
2, 10557, Note_on_c, 0, 70, 0
2, 10559, Control_c, 0, 64, 64
2, 10574, Note_on_c, 0, 56, 0
2, 10577, Control_c, 0, 64, 62
2, 10597, Control_c, 0, 64, 58
2, 10602, Note_on_c, 0, 72, 62
2, 10616, Control_c, 0, 64, 54
2, 10635, Control_c, 0, 64, 48
2, 10654, Control_c, 0, 64, 40
2, 10674, Control_c, 0, 64, 27
2, 10693, Control_c, 0, 64, 0
2, 10693, Note_on_c, 0, 72, 0
2, 10708, Note_on_c, 0, 70, 63
2, 10759, Note_on_c, 0, 70, 0
2, 10783, Note_on_c, 0, 72, 58
2, 10840, Note_on_c, 0, 65, 43
2, 10854, Note_on_c, 0, 72, 0
2, 10879, Note_on_c, 0, 70, 65
2, 10913, Note_on_c, 0, 70, 0
2, 10941, Note_on_c, 0, 72, 57
2, 10986, Note_on_c, 0, 72, 0
2, 10990, Note_on_c, 0, 70, 73
2, 11044, Note_on_c, 0, 70, 0
2, 11069, Note_on_c, 0, 72, 73
2, 11137, Note_on_c, 0, 72, 0
2, 11149, Note_on_c, 0, 70, 76
2, 11151, Note_on_c, 0, 64, 46
2, 11173, Control_c, 0, 67, 26
2, 11193, Note_on_c, 0, 65, 0
2, 11385, Control_c, 0, 64, 27
2, 11403, Control_c, 0, 64, 40
2, 11423, Control_c, 0, 64, 51
2, 11425, Note_on_c, 0, 70, 0
2, 11427, Note_on_c, 0, 68, 68
2, 11442, Control_c, 0, 64, 57
2, 11460, Control_c, 0, 64, 62
2, 11461, Note_on_c, 0, 64, 0
2, 11468, Note_on_c, 0, 67, 46
2, 11478, Control_c, 0, 64, 64
2, 11495, Control_c, 0, 64, 67
2, 11517, Control_c, 0, 64, 70
2, 11535, Control_c, 0, 64, 75
2, 11555, Control_c, 0, 64, 81
2, 11574, Control_c, 0, 64, 86
2, 11589, Note_on_c, 0, 70, 72
2, 11594, Control_c, 0, 64, 88
2, 11612, Control_c, 0, 64, 89
2, 11644, Note_on_c, 0, 68, 0
2, 11728, Control_c, 0, 64, 88
2, 11747, Control_c, 0, 64, 86
2, 11766, Control_c, 0, 64, 84
2, 11786, Control_c, 0, 64, 82
2, 11804, Control_c, 0, 64, 79
2, 11824, Control_c, 0, 64, 77
2, 11843, Control_c, 0, 64, 75
2, 11863, Control_c, 0, 64, 73
2, 11867, Note_on_c, 0, 72, 68
2, 11881, Control_c, 0, 64, 70
2, 11900, Control_c, 0, 64, 67
2, 11908, Note_on_c, 0, 70, 0
2, 11920, Control_c, 0, 64, 64
2, 11939, Control_c, 0, 64, 59
2, 11939, Note_on_c, 0, 56, 38
2, 11954, Note_on_c, 0, 67, 0
2, 11958, Control_c, 0, 64, 53
2, 11977, Control_c, 0, 64, 46
2, 11997, Control_c, 0, 64, 37
2, 12015, Control_c, 0, 64, 29
2, 12035, Control_c, 0, 64, 19
2, 12054, Control_c, 0, 64, 0
2, 12156, Note_on_c, 0, 55, 0
2, 12252, Note_on_c, 0, 68, 62
2, 12419, Control_c, 0, 67, 26
2, 12554, Note_on_c, 0, 64, 54
2, 12580, Note_on_c, 0, 68, 0
2, 12707, Control_c, 0, 64, 15
2, 12726, Control_c, 0, 64, 35
2, 12746, Control_c, 0, 64, 51
2, 12764, Control_c, 0, 64, 58
2, 12784, Control_c, 0, 64, 61
2, 12803, Control_c, 0, 64, 63
2, 12823, Control_c, 0, 64, 64
2, 12841, Control_c, 0, 64, 65
2, 12860, Control_c, 0, 64, 67
2, 12868, Note_on_c, 0, 65, 53
2, 12873, Note_on_c, 0, 64, 0
2, 12880, Control_c, 0, 64, 71
2, 12899, Control_c, 0, 64, 77
2, 12918, Control_c, 0, 64, 83
2, 12937, Control_c, 0, 64, 85
2, 13014, Control_c, 0, 67, 27
2, 13072, Control_c, 0, 64, 84
2, 13091, Control_c, 0, 64, 83
2, 13110, Control_c, 0, 64, 82
2, 13129, Control_c, 0, 64, 80
2, 13149, Control_c, 0, 64, 78
2, 13168, Control_c, 0, 64, 76
2, 13187, Control_c, 0, 64, 74
2, 13206, Control_c, 0, 64, 71
2, 13206, Note_on_c, 0, 56, 0
2, 13215, Note_on_c, 0, 58, 39
2, 13217, Note_on_c, 0, 61, 57
2, 13226, Control_c, 0, 64, 68
2, 13244, Control_c, 0, 64, 66
2, 13264, Control_c, 0, 64, 64
2, 13283, Control_c, 0, 64, 61
2, 13286, Note_on_c, 0, 65, 0
2, 13302, Control_c, 0, 64, 58
2, 13321, Control_c, 0, 64, 55
2, 13334, Note_on_c, 0, 72, 0
2, 13340, Control_c, 0, 64, 51
2, 13360, Control_c, 0, 64, 45
2, 13379, Control_c, 0, 64, 37
2, 13398, Control_c, 0, 64, 29
2, 13417, Control_c, 0, 64, 18
2, 13437, Control_c, 0, 64, 0
2, 13475, Control_c, 0, 67, 27
2, 13569, Note_on_c, 0, 73, 58
2, 13840, Control_c, 0, 64, 26
2, 13859, Control_c, 0, 64, 41
2, 13872, Note_on_c, 0, 67, 54
2, 13878, Control_c, 0, 64, 53
2, 13897, Control_c, 0, 64, 58
2, 13897, Control_c, 0, 67, 27
2, 13917, Control_c, 0, 64, 60
2, 13935, Control_c, 0, 64, 61
2, 13955, Control_c, 0, 64, 63
2, 13974, Control_c, 0, 64, 64
2, 13975, Note_on_c, 0, 73, 0
2, 13994, Control_c, 0, 64, 65
2, 14012, Control_c, 0, 64, 66
2, 14032, Control_c, 0, 64, 68
2, 14051, Control_c, 0, 64, 71
2, 14070, Control_c, 0, 64, 76
2, 14089, Control_c, 0, 64, 82
2, 14109, Control_c, 0, 64, 87
2, 14128, Control_c, 0, 64, 88
2, 14147, Control_c, 0, 64, 89
2, 14197, Note_on_c, 0, 70, 63
2, 14204, Control_c, 0, 64, 89
2, 14247, Note_on_c, 0, 67, 0
2, 14357, Control_c, 0, 64, 89
2, 14362, Note_on_c, 0, 70, 0
2, 14416, Control_c, 0, 64, 88
2, 14455, Control_c, 0, 64, 88
2, 14513, Control_c, 0, 64, 87
2, 14532, Control_c, 0, 64, 86
2, 14539, Note_on_c, 0, 61, 0
2, 14551, Control_c, 0, 64, 86
2, 14568, Note_on_c, 0, 48, 45
2, 14570, Control_c, 0, 64, 85
2, 14577, Note_on_c, 0, 58, 0
2, 14590, Control_c, 0, 64, 84
2, 14609, Control_c, 0, 64, 83
2, 14628, Control_c, 0, 64, 81
2, 14647, Control_c, 0, 64, 79
2, 14649, Note_on_c, 0, 64, 60
2, 14667, Control_c, 0, 64, 75
2, 14683, Note_on_c, 0, 60, 35
2, 14685, Control_c, 0, 64, 71
2, 14705, Control_c, 0, 64, 68
2, 14724, Control_c, 0, 64, 64
2, 14744, Control_c, 0, 64, 61
2, 14762, Control_c, 0, 64, 54
2, 14781, Control_c, 0, 64, 46
2, 14801, Control_c, 0, 64, 34
2, 14819, Control_c, 0, 64, 21
2, 14839, Control_c, 0, 64, 0
2, 15041, Note_on_c, 0, 52, 46
2, 15173, Note_on_c, 0, 60, 0
2, 15226, Control_c, 0, 64, 17
2, 15226, Control_c, 0, 67, 26
2, 15245, Control_c, 0, 64, 36
2, 15264, Control_c, 0, 64, 50
2, 15284, Control_c, 0, 64, 57
2, 15302, Control_c, 0, 64, 60
2, 15322, Control_c, 0, 64, 62
2, 15336, Note_on_c, 0, 55, 50
2, 15341, Control_c, 0, 64, 63
2, 15341, Control_c, 0, 67, 26
2, 15361, Control_c, 0, 64, 64
2, 15379, Control_c, 0, 64, 66
2, 15399, Control_c, 0, 64, 67
2, 15418, Control_c, 0, 64, 70
2, 15418, Control_c, 0, 67, 25
2, 15438, Control_c, 0, 64, 73
2, 15456, Control_c, 0, 64, 78
2, 15476, Control_c, 0, 64, 81
2, 15495, Control_c, 0, 64, 81
2, 15533, Control_c, 0, 64, 81
2, 15595, Note_on_c, 0, 60, 45
2, 15599, Note_on_c, 0, 65, 55
2, 15610, Control_c, 0, 64, 80
2, 15629, Control_c, 0, 64, 80
2, 15632, Note_on_c, 0, 64, 0
2, 15644, Note_on_c, 0, 48, 0
2, 15648, Control_c, 0, 64, 79
2, 15667, Control_c, 0, 64, 78
2, 15687, Control_c, 0, 64, 77
2, 15706, Control_c, 0, 64, 76
2, 15725, Control_c, 0, 64, 74
2, 15744, Control_c, 0, 64, 72
2, 15764, Control_c, 0, 64, 70
2, 15782, Control_c, 0, 64, 69
2, 15802, Control_c, 0, 64, 68
2, 15821, Control_c, 0, 64, 67
2, 15841, Control_c, 0, 64, 66
2, 15844, Note_on_c, 0, 49, 55
2, 15859, Control_c, 0, 64, 65
2, 15879, Control_c, 0, 64, 63
2, 15898, Control_c, 0, 64, 62
2, 15918, Control_c, 0, 64, 61
2, 15918, Note_on_c, 0, 65, 0
2, 15927, Note_on_c, 0, 55, 0
2, 15927, Note_on_c, 0, 60, 0
2, 15935, Note_on_c, 0, 67, 58
2, 15936, Control_c, 0, 64, 60
2, 15949, Note_on_c, 0, 52, 0
2, 15956, Control_c, 0, 64, 59
2, 15975, Control_c, 0, 64, 57
2, 15993, Control_c, 0, 64, 55
2, 16013, Control_c, 0, 64, 53
2, 16032, Control_c, 0, 64, 51
2, 16035, Note_on_c, 0, 67, 0
2, 16052, Control_c, 0, 64, 48
2, 16059, Note_on_c, 0, 65, 60
2, 16070, Control_c, 0, 64, 44
2, 16090, Control_c, 0, 64, 39
2, 16103, Note_on_c, 0, 65, 0
2, 16109, Control_c, 0, 64, 32
2, 16109, Control_c, 0, 67, 26
2, 16124, Note_on_c, 0, 67, 54
2, 16128, Control_c, 0, 64, 24
2, 16147, Control_c, 0, 64, 11
2, 16151, Note_on_c, 0, 60, 47
2, 16167, Control_c, 0, 64, 0
2, 16167, Control_c, 0, 67, 26
2, 16190, Note_on_c, 0, 67, 0
2, 16206, Note_on_c, 0, 65, 67
2, 16224, Control_c, 0, 67, 27
2, 16249, Note_on_c, 0, 65, 0
2, 16270, Note_on_c, 0, 67, 56
2, 16282, Control_c, 0, 67, 27
2, 16328, Note_on_c, 0, 67, 0
2, 16346, Note_on_c, 0, 65, 62
2, 16391, Note_on_c, 0, 65, 0
2, 16398, Control_c, 0, 67, 28
2, 16401, Note_on_c, 0, 67, 52
2, 16428, Note_on_c, 0, 58, 50
2, 16472, Note_on_c, 0, 60, 0
2, 16473, Note_on_c, 0, 67, 0
2, 16479, Note_on_c, 0, 65, 59
2, 16571, Control_c, 0, 67, 27
2, 16648, Control_c, 0, 67, 27
2, 16743, Control_c, 0, 67, 26
2, 16759, Note_on_c, 0, 61, 46
2, 16761, Note_on_c, 0, 65, 0
2, 16768, Note_on_c, 0, 64, 58
2, 16775, Note_on_c, 0, 58, 0
2, 16820, Control_c, 0, 67, 26
2, 16878, Control_c, 0, 64, 22
2, 16878, Control_c, 0, 67, 25
2, 16897, Control_c, 0, 64, 47
2, 16917, Control_c, 0, 64, 58
2, 16928, Note_on_c, 0, 65, 60
2, 16931, Note_on_c, 0, 64, 0
2, 16936, Control_c, 0, 64, 62
2, 16954, Control_c, 0, 64, 64
2, 16974, Control_c, 0, 64, 65
2, 16974, Control_c, 0, 67, 25
2, 16993, Control_c, 0, 64, 67
2, 17012, Control_c, 0, 64, 71
2, 17031, Control_c, 0, 64, 75
2, 17051, Control_c, 0, 64, 77
2, 17070, Control_c, 0, 64, 78
2, 17089, Control_c, 0, 64, 77
2, 17108, Control_c, 0, 64, 76
2, 17147, Control_c, 0, 64, 75
2, 17166, Control_c, 0, 64, 74
2, 17185, Control_c, 0, 64, 72
2, 17194, Note_on_c, 0, 52, 48
2, 17205, Control_c, 0, 64, 70
2, 17213, Note_on_c, 0, 67, 57
2, 17215, Note_on_c, 0, 65, 0
2, 17223, Control_c, 0, 64, 68
2, 17243, Control_c, 0, 64, 65
2, 17262, Control_c, 0, 64, 62
2, 17283, Control_c, 0, 64, 55
2, 17301, Control_c, 0, 64, 49
2, 17321, Control_c, 0, 64, 39
2, 17340, Control_c, 0, 64, 15
2, 17344, Note_on_c, 0, 49, 0
2, 17359, Control_c, 0, 64, 0
2, 17436, Control_c, 0, 67, 24
2, 17442, Note_on_c, 0, 61, 0
2, 17493, Control_c, 0, 67, 24
2, 17551, Control_c, 0, 67, 23
2, 17589, Control_c, 0, 67, 22
2, 17593, Note_on_c, 0, 72, 60
2, 17607, Control_c, 0, 67, 22
2, 17895, Note_on_c, 0, 55, 49
2, 17899, Note_on_c, 0, 70, 65
2, 17938, Note_on_c, 0, 72, 0
2, 17971, Control_c, 0, 64, 27
2, 17990, Control_c, 0, 64, 40
2, 18010, Control_c, 0, 64, 52
2, 18029, Control_c, 0, 64, 58
2, 18048, Control_c, 0, 64, 60
2, 18067, Control_c, 0, 64, 62
2, 18087, Control_c, 0, 64, 64
2, 18105, Control_c, 0, 64, 66
2, 18125, Control_c, 0, 64, 68
2, 18144, Control_c, 0, 64, 72
2, 18164, Control_c, 0, 64, 76
2, 18182, Control_c, 0, 64, 80
2, 18199, Control_c, 0, 64, 84
2, 18216, Note_on_c, 0, 73, 69
2, 18219, Control_c, 0, 64, 86
2, 18225, Note_on_c, 0, 67, 0
2, 18240, Control_c, 0, 64, 88
2, 18255, Note_on_c, 0, 70, 0
2, 18258, Control_c, 0, 64, 89
2, 18316, Control_c, 0, 67, 21
2, 18335, Control_c, 0, 67, 21
2, 18374, Control_c, 0, 67, 20
2, 18382, Note_on_c, 0, 55, 0
2, 18392, Control_c, 0, 64, 88
2, 18412, Control_c, 0, 64, 87
2, 18431, Control_c, 0, 64, 85
2, 18450, Control_c, 0, 64, 84
2, 18469, Control_c, 0, 64, 82
2, 18469, Control_c, 0, 67, 20
2, 18489, Control_c, 0, 64, 80
2, 18508, Control_c, 0, 64, 78
2, 18508, Control_c, 0, 67, 19
2, 18527, Control_c, 0, 64, 76
2, 18527, Control_c, 0, 67, 19
2, 18539, Note_on_c, 0, 64, 66
2, 18543, Note_on_c, 0, 60, 48
2, 18546, Control_c, 0, 64, 73
2, 18566, Control_c, 0, 64, 71
2, 18566, Control_c, 0, 67, 18
2, 18585, Control_c, 0, 64, 68
2, 18604, Control_c, 0, 64, 65
2, 18604, Control_c, 0, 67, 16
2, 18623, Control_c, 0, 64, 62
2, 18623, Control_c, 0, 67, 14
2, 18643, Control_c, 0, 64, 57
2, 18643, Control_c, 0, 67, 12
2, 18648, Note_on_c, 0, 73, 0
2, 18661, Control_c, 0, 64, 50
2, 18661, Control_c, 0, 67, 11
2, 18681, Control_c, 0, 64, 43
2, 18681, Control_c, 0, 67, 10
2, 18700, Control_c, 0, 64, 36
2, 18700, Control_c, 0, 67, 10
2, 18720, Control_c, 0, 64, 28
2, 18720, Control_c, 0, 67, 9
2, 18738, Control_c, 0, 64, 9
2, 18758, Control_c, 0, 64, 0
2, 18758, Control_c, 0, 67, 9
2, 18777, Control_c, 0, 67, 8
2, 18841, Note_on_c, 0, 73, 70
2, 18854, Control_c, 0, 67, 8
2, 18872, Control_c, 0, 67, 0
2, 19157, Note_on_c, 0, 48, 52
2, 19161, Note_on_c, 0, 60, 0
2, 19168, Note_on_c, 0, 72, 72
2, 19213, Note_on_c, 0, 73, 0
2, 19255, Control_c, 0, 64, 34
2, 19274, Control_c, 0, 64, 50
2, 19293, Control_c, 0, 64, 57
2, 19312, Control_c, 0, 64, 61
2, 19332, Control_c, 0, 64, 63
2, 19350, Control_c, 0, 64, 65
2, 19370, Control_c, 0, 64, 68
2, 19379, Note_on_c, 0, 48, 0
2, 19389, Control_c, 0, 64, 73
2, 19390, Note_on_c, 0, 52, 0
2, 19409, Control_c, 0, 64, 81
2, 19427, Control_c, 0, 64, 88
2, 19447, Control_c, 0, 64, 92
2, 19466, Control_c, 0, 64, 98
2, 19484, Note_on_c, 0, 70, 72
2, 19485, Control_c, 0, 64, 113
2, 19504, Control_c, 0, 64, 127
2, 19557, Note_on_c, 0, 72, 0
2, 19638, Note_on_c, 0, 64, 0
2, 19925, Note_on_c, 0, 41, 58
2, 19984, Control_c, 0, 64, 115
2, 19987, Note_on_c, 0, 69, 64
2, 20002, Note_on_c, 0, 63, 44
2, 20004, Control_c, 0, 64, 100
2, 20023, Control_c, 0, 64, 90
2, 20042, Control_c, 0, 64, 79
2, 20061, Control_c, 0, 64, 72
2, 20081, Control_c, 0, 64, 66
2, 20094, Note_on_c, 0, 70, 0
2, 20100, Control_c, 0, 64, 61
2, 20119, Control_c, 0, 64, 52
2, 20138, Control_c, 0, 64, 39
2, 20159, Control_c, 0, 64, 19
2, 20177, Control_c, 0, 64, 0
2, 20349, Note_on_c, 0, 45, 52
2, 20639, Control_c, 0, 64, 11
2, 20645, Note_on_c, 0, 48, 60
2, 20657, Control_c, 0, 64, 27
2, 20677, Control_c, 0, 64, 38
2, 20696, Control_c, 0, 64, 46
2, 20716, Control_c, 0, 64, 52
2, 20734, Control_c, 0, 64, 56
2, 20753, Control_c, 0, 64, 58
2, 20773, Control_c, 0, 64, 60
2, 20791, Control_c, 0, 64, 62
2, 20811, Control_c, 0, 64, 64
2, 20830, Control_c, 0, 64, 66
2, 20850, Control_c, 0, 64, 68
2, 20868, Control_c, 0, 64, 72
2, 20888, Control_c, 0, 64, 78
2, 20907, Control_c, 0, 64, 83
2, 20910, Note_on_c, 0, 41, 0
2, 20920, Note_on_c, 0, 53, 49
2, 20926, Control_c, 0, 64, 87
2, 20926, Note_on_c, 0, 70, 74
2, 20945, Control_c, 0, 64, 90
2, 20965, Control_c, 0, 64, 94
2, 20978, Note_on_c, 0, 63, 0
2, 20984, Control_c, 0, 64, 99
2, 21003, Control_c, 0, 64, 104
2, 21022, Control_c, 0, 64, 104
2, 21050, Note_on_c, 0, 69, 0
2, 21136, Control_c, 0, 64, 102
2, 21156, Control_c, 0, 64, 98
2, 21171, Note_on_c, 0, 42, 57
2, 21175, Control_c, 0, 64, 93
2, 21194, Control_c, 0, 64, 88
2, 21213, Control_c, 0, 64, 83
2, 21232, Control_c, 0, 64, 79
2, 21245, Note_on_c, 0, 48, 0
2, 21252, Control_c, 0, 64, 75
2, 21255, Note_on_c, 0, 53, 0
2, 21270, Control_c, 0, 64, 71
2, 21285, Note_on_c, 0, 72, 67
2, 21286, Note_on_c, 0, 45, 0
2, 21290, Control_c, 0, 64, 68
2, 21298, Note_on_c, 0, 61, 56
2, 21300, Note_on_c, 0, 70, 0
2, 21309, Control_c, 0, 64, 65
2, 21329, Control_c, 0, 64, 62
2, 21347, Control_c, 0, 64, 58
2, 21367, Control_c, 0, 64, 54
2, 21386, Control_c, 0, 64, 49
2, 21404, Note_on_c, 0, 72, 0
2, 21405, Control_c, 0, 64, 43
2, 21418, Note_on_c, 0, 70, 67
2, 21424, Control_c, 0, 64, 36
2, 21444, Control_c, 0, 64, 30
2, 21463, Control_c, 0, 64, 22
2, 21478, Note_on_c, 0, 70, 0
2, 21482, Control_c, 0, 64, 11
2, 21495, Note_on_c, 0, 53, 48
2, 21500, Note_on_c, 0, 72, 65
2, 21501, Control_c, 0, 64, 0
2, 21569, Note_on_c, 0, 72, 0
2, 21579, Note_on_c, 0, 70, 72
2, 21645, Note_on_c, 0, 70, 0
2, 21660, Note_on_c, 0, 72, 66
2, 21714, Note_on_c, 0, 72, 0
2, 21721, Note_on_c, 0, 70, 70
2, 21777, Note_on_c, 0, 51, 52
2, 21796, Note_on_c, 0, 70, 0
2, 21803, Note_on_c, 0, 72, 72
2, 21830, Note_on_c, 0, 53, 0
2, 21871, Note_on_c, 0, 70, 66
2, 21905, Note_on_c, 0, 72, 0
2, 22109, Note_on_c, 0, 54, 41
2, 22118, Note_on_c, 0, 69, 67
2, 22139, Note_on_c, 0, 70, 0
2, 22146, Note_on_c, 0, 51, 0
2, 22173, Control_c, 0, 64, 21
2, 22192, Control_c, 0, 64, 38
2, 22212, Control_c, 0, 64, 50
2, 22230, Control_c, 0, 64, 57
2, 22250, Control_c, 0, 64, 62
2, 22269, Control_c, 0, 64, 65
2, 22273, Note_on_c, 0, 70, 75
2, 22289, Control_c, 0, 64, 67
2, 22307, Control_c, 0, 64, 71
2, 22327, Control_c, 0, 64, 76
2, 22346, Control_c, 0, 64, 82
2, 22365, Control_c, 0, 64, 86
2, 22384, Control_c, 0, 64, 87
2, 22500, Control_c, 0, 64, 87
2, 22519, Control_c, 0, 64, 86
2, 22521, Note_on_c, 0, 45, 50
2, 22538, Control_c, 0, 64, 84
2, 22542, Note_on_c, 0, 72, 68
2, 22558, Control_c, 0, 64, 80
2, 22576, Control_c, 0, 64, 76
2, 22595, Control_c, 0, 64, 73
2, 22608, Note_on_c, 0, 70, 0
2, 22615, Control_c, 0, 64, 70
2, 22616, Note_on_c, 0, 69, 0
2, 22626, Note_on_c, 0, 61, 0
2, 22634, Control_c, 0, 64, 67
2, 22653, Control_c, 0, 64, 65
2, 22672, Control_c, 0, 64, 63
2, 22692, Control_c, 0, 64, 61
2, 22705, Note_on_c, 0, 42, 0
2, 22710, Control_c, 0, 64, 58
2, 22730, Control_c, 0, 64, 54
2, 22749, Control_c, 0, 64, 49
2, 22769, Control_c, 0, 64, 44
2, 22776, Note_on_c, 0, 54, 0
2, 22787, Control_c, 0, 64, 37
2, 22807, Control_c, 0, 64, 28
2, 22826, Control_c, 0, 64, 15
2, 22845, Control_c, 0, 64, 0
2, 22932, Note_on_c, 0, 65, 50
2, 23239, Note_on_c, 0, 63, 53
2, 23247, Note_on_c, 0, 48, 43
2, 23271, Note_on_c, 0, 65, 0
2, 23537, Control_c, 0, 64, 26
2, 23557, Control_c, 0, 64, 46
2, 23559, Note_on_c, 0, 66, 60
2, 23576, Control_c, 0, 64, 58
2, 23595, Control_c, 0, 64, 64
2, 23602, Note_on_c, 0, 45, 0
2, 23614, Control_c, 0, 64, 67
2, 23633, Control_c, 0, 64, 71
2, 23653, Control_c, 0, 64, 77
2, 23666, Note_on_c, 0, 48, 0
2, 23668, Note_on_c, 0, 63, 0
2, 23671, Control_c, 0, 64, 86
2, 23691, Control_c, 0, 64, 94
2, 23710, Control_c, 0, 64, 100
2, 23730, Control_c, 0, 64, 103
2, 23748, Control_c, 0, 64, 105
2, 23806, Control_c, 0, 64, 104
2, 23825, Control_c, 0, 64, 104
2, 23845, Control_c, 0, 64, 102
2, 23864, Control_c, 0, 64, 99
2, 23868, Note_on_c, 0, 45, 55
2, 23883, Control_c, 0, 64, 93
2, 23902, Control_c, 0, 64, 88
2, 23922, Control_c, 0, 64, 81
2, 23928, Note_on_c, 0, 66, 0
2, 23940, Control_c, 0, 64, 74
2, 23959, Control_c, 0, 64, 69
2, 23978, Control_c, 0, 64, 64
2, 24000, Control_c, 0, 64, 61
2, 24018, Control_c, 0, 64, 58
2, 24038, Control_c, 0, 64, 56
2, 24057, Control_c, 0, 64, 54
2, 24075, Control_c, 0, 64, 51
2, 24095, Control_c, 0, 64, 48
2, 24114, Control_c, 0, 64, 44
2, 24134, Control_c, 0, 64, 39
2, 24152, Control_c, 0, 64, 34
2, 24172, Control_c, 0, 64, 30
2, 24176, Note_on_c, 0, 66, 54
2, 24191, Control_c, 0, 64, 27
2, 24210, Control_c, 0, 64, 25
2, 24229, Control_c, 0, 64, 22
2, 24249, Control_c, 0, 64, 19
2, 24268, Control_c, 0, 64, 15
2, 24287, Control_c, 0, 64, 11
2, 24306, Control_c, 0, 64, 0
2, 24495, Note_on_c, 0, 41, 41
2, 24496, Note_on_c, 0, 65, 49
2, 24507, Note_on_c, 0, 66, 0
2, 24553, Note_on_c, 0, 45, 0
2, 24819, Note_on_c, 0, 63, 52
2, 24842, Note_on_c, 0, 65, 0
2, 25226, Note_on_c, 0, 61, 46
2, 25227, Note_on_c, 0, 46, 40
2, 25315, Note_on_c, 0, 63, 0
2, 25339, Note_on_c, 0, 72, 0
2, 25358, Note_on_c, 0, 41, 0
2, 25626, Note_on_c, 0, 72, 57
2, 25934, Note_on_c, 0, 70, 64
2, 25970, Note_on_c, 0, 72, 0
2, 26250, Note_on_c, 0, 73, 56
2, 26272, Note_on_c, 0, 70, 0
2, 26378, Control_c, 0, 64, 9
2, 26398, Control_c, 0, 64, 11
2, 26416, Control_c, 0, 64, 18
2, 26435, Control_c, 0, 64, 23
2, 26455, Control_c, 0, 64, 28
2, 26474, Control_c, 0, 64, 32
2, 26493, Control_c, 0, 64, 36
2, 26512, Control_c, 0, 64, 41
2, 26532, Control_c, 0, 64, 45
2, 26550, Control_c, 0, 64, 50
2, 26570, Control_c, 0, 64, 52
2, 26582, Note_on_c, 0, 67, 52
2, 26589, Control_c, 0, 64, 55
2, 26609, Control_c, 0, 64, 58
2, 26622, Note_on_c, 0, 73, 0
2, 26627, Control_c, 0, 64, 62
2, 26647, Control_c, 0, 64, 65
2, 26666, Control_c, 0, 64, 66
2, 26686, Control_c, 0, 64, 69
2, 26697, Note_on_c, 0, 46, 0
2, 26704, Control_c, 0, 64, 72
2, 26724, Control_c, 0, 64, 76
2, 26743, Control_c, 0, 64, 81
2, 26762, Control_c, 0, 64, 83
2, 26781, Control_c, 0, 64, 84
2, 26838, Control_c, 0, 64, 83
2, 26857, Control_c, 0, 64, 83
2, 26881, Control_c, 0, 64, 82
2, 26899, Control_c, 0, 64, 81
2, 26906, Note_on_c, 0, 46, 43
2, 26919, Control_c, 0, 64, 80
2, 26938, Control_c, 0, 64, 78
2, 26957, Control_c, 0, 64, 76
2, 26976, Control_c, 0, 64, 75
2, 26979, Note_on_c, 0, 67, 0
2, 26995, Control_c, 0, 64, 73
2, 27015, Control_c, 0, 64, 71
2, 27033, Control_c, 0, 64, 70
2, 27053, Control_c, 0, 64, 68
2, 27072, Control_c, 0, 64, 67
2, 27091, Control_c, 0, 64, 66
2, 27110, Control_c, 0, 64, 65
2, 27130, Control_c, 0, 64, 64
2, 27149, Control_c, 0, 64, 63
2, 27168, Control_c, 0, 64, 62
2, 27187, Control_c, 0, 64, 60
2, 27207, Control_c, 0, 64, 59
2, 27225, Control_c, 0, 64, 57
2, 27240, Note_on_c, 0, 70, 60
2, 27241, Note_on_c, 0, 48, 42
2, 27245, Control_c, 0, 64, 55
2, 27264, Control_c, 0, 64, 54
2, 27284, Control_c, 0, 64, 51
2, 27302, Control_c, 0, 64, 49
2, 27322, Control_c, 0, 64, 45
2, 27323, Note_on_c, 0, 70, 0
2, 27335, Note_on_c, 0, 68, 60
2, 27341, Control_c, 0, 64, 41
2, 27361, Control_c, 0, 64, 37
2, 27379, Control_c, 0, 64, 34
2, 27390, Note_on_c, 0, 68, 0
2, 27399, Control_c, 0, 64, 30
2, 27406, Note_on_c, 0, 70, 59
2, 27418, Control_c, 0, 64, 26
2, 27435, Note_on_c, 0, 46, 0
2, 27436, Control_c, 0, 64, 22
2, 27456, Control_c, 0, 64, 18
2, 27464, Note_on_c, 0, 70, 0
2, 27471, Note_on_c, 0, 68, 56
2, 27475, Control_c, 0, 64, 15
2, 27495, Control_c, 0, 64, 11
2, 27505, Note_on_c, 0, 48, 0
2, 27505, Note_on_c, 0, 49, 48
2, 27513, Control_c, 0, 64, 9
2, 27531, Note_on_c, 0, 68, 0
2, 27550, Note_on_c, 0, 70, 61
2, 27552, Control_c, 0, 64, 0
2, 27629, Note_on_c, 0, 68, 55
2, 27635, Note_on_c, 0, 70, 0
2, 27933, Note_on_c, 0, 43, 32
2, 27939, Note_on_c, 0, 70, 56
2, 27971, Control_c, 0, 64, 9
2, 27973, Note_on_c, 0, 68, 0
2, 27990, Control_c, 0, 64, 11
2, 28005, Note_on_c, 0, 49, 0
2, 28009, Control_c, 0, 64, 18
2, 28028, Control_c, 0, 64, 22
2, 28048, Control_c, 0, 64, 27
2, 28066, Control_c, 0, 64, 33
2, 28072, Note_on_c, 0, 61, 0
2, 28086, Control_c, 0, 64, 39
2, 28105, Control_c, 0, 64, 45
2, 28125, Control_c, 0, 64, 51
2, 28143, Control_c, 0, 64, 56
2, 28163, Control_c, 0, 64, 58
2, 28182, Control_c, 0, 64, 60
2, 28201, Control_c, 0, 64, 62
2, 28220, Control_c, 0, 64, 64
2, 28240, Control_c, 0, 64, 66
2, 28259, Control_c, 0, 64, 68
2, 28278, Control_c, 0, 64, 71
2, 28297, Control_c, 0, 64, 74
2, 28300, Note_on_c, 0, 60, 52
2, 28316, Control_c, 0, 64, 75
2, 28354, Control_c, 0, 64, 75
2, 28393, Control_c, 0, 64, 74
2, 28401, Note_on_c, 0, 43, 0
2, 28412, Control_c, 0, 64, 74
2, 28431, Control_c, 0, 64, 73
2, 28451, Control_c, 0, 64, 72
2, 28470, Control_c, 0, 64, 71
2, 28489, Control_c, 0, 64, 70
2, 28508, Control_c, 0, 64, 69
2, 28528, Control_c, 0, 64, 69
2, 28546, Control_c, 0, 64, 68
2, 28566, Control_c, 0, 64, 67
2, 28585, Control_c, 0, 64, 66
2, 28602, Note_on_c, 0, 61, 60
2, 28603, Note_on_c, 0, 46, 46
2, 28605, Control_c, 0, 64, 64
2, 28623, Control_c, 0, 64, 61
2, 28632, Note_on_c, 0, 60, 0
2, 28643, Control_c, 0, 64, 54
2, 28662, Control_c, 0, 64, 39
2, 28681, Control_c, 0, 64, 0
2, 28815, Control_c, 0, 64, 30
2, 28834, Control_c, 0, 64, 49
2, 28854, Control_c, 0, 64, 57
2, 28873, Control_c, 0, 64, 60
2, 28884, Note_on_c, 0, 46, 0
2, 28892, Control_c, 0, 64, 63
2, 28909, Note_on_c, 0, 65, 60
2, 28911, Control_c, 0, 64, 66
2, 28931, Control_c, 0, 64, 70
2, 28950, Control_c, 0, 64, 76
2, 28969, Control_c, 0, 64, 86
2, 28988, Control_c, 0, 64, 92
2, 29008, Control_c, 0, 64, 95
2, 29026, Control_c, 0, 64, 97
2, 29046, Control_c, 0, 64, 97
2, 29145, Control_c, 0, 64, 96
2, 29163, Control_c, 0, 64, 94
2, 29183, Control_c, 0, 64, 91
2, 29184, Note_on_c, 0, 61, 0
2, 29202, Control_c, 0, 64, 86
2, 29222, Control_c, 0, 64, 81
2, 29228, Note_on_c, 0, 65, 0
2, 29238, Note_on_c, 0, 51, 48
2, 29240, Control_c, 0, 64, 75
2, 29243, Note_on_c, 0, 55, 48
2, 29260, Control_c, 0, 64, 67
2, 29279, Control_c, 0, 64, 61
2, 29298, Control_c, 0, 64, 47
2, 29317, Control_c, 0, 64, 13
2, 29337, Control_c, 0, 64, 0
2, 29375, Control_c, 0, 64, 9
2, 29394, Control_c, 0, 64, 25
2, 29414, Control_c, 0, 64, 37
2, 29433, Control_c, 0, 64, 50
2, 29452, Control_c, 0, 64, 57
2, 29471, Control_c, 0, 64, 60
2, 29491, Control_c, 0, 64, 62
2, 29509, Control_c, 0, 64, 64
2, 29529, Control_c, 0, 64, 67
2, 29548, Control_c, 0, 64, 71
2, 29564, Note_on_c, 0, 55, 0
2, 29567, Control_c, 0, 64, 77
2, 29583, Note_on_c, 0, 65, 46
2, 29586, Control_c, 0, 64, 83
2, 29605, Control_c, 0, 64, 88
2, 29615, Note_on_c, 0, 51, 0
2, 29625, Control_c, 0, 64, 90
2, 29798, Control_c, 0, 64, 89
2, 29818, Control_c, 0, 64, 88
2, 29837, Control_c, 0, 64, 87
2, 29856, Control_c, 0, 64, 86
2, 29875, Control_c, 0, 64, 84
2, 29895, Control_c, 0, 64, 82
2, 29913, Control_c, 0, 64, 78
2, 29921, Note_on_c, 0, 63, 48
2, 29931, Note_on_c, 0, 39, 47
2, 29933, Control_c, 0, 64, 74
2, 29952, Control_c, 0, 64, 70
2, 29971, Note_on_c, 0, 65, 0
2, 29972, Control_c, 0, 64, 65
2, 29990, Control_c, 0, 64, 59
2, 30010, Control_c, 0, 64, 42
2, 30029, Control_c, 0, 64, 0
2, 30183, Control_c, 0, 64, 34
2, 30201, Control_c, 0, 64, 50
2, 30221, Control_c, 0, 64, 59
2, 30240, Control_c, 0, 64, 62
2, 30259, Control_c, 0, 64, 64
2, 30278, Control_c, 0, 64, 67
2, 30295, Note_on_c, 0, 61, 46
2, 30298, Control_c, 0, 64, 71
2, 30298, Note_on_c, 0, 39, 0
2, 30317, Control_c, 0, 64, 78
2, 30319, Note_on_c, 0, 63, 0
2, 30336, Control_c, 0, 64, 85
2, 30355, Control_c, 0, 64, 91
2, 30375, Control_c, 0, 64, 91
2, 30393, Control_c, 0, 64, 92
2, 30452, Control_c, 0, 64, 92
2, 30547, Control_c, 0, 64, 92
2, 30586, Control_c, 0, 64, 91
2, 30604, Control_c, 0, 64, 90
2, 30624, Control_c, 0, 64, 89
2, 30643, Control_c, 0, 64, 88
2, 30663, Control_c, 0, 64, 86
2, 30681, Control_c, 0, 64, 85
2, 30701, Control_c, 0, 64, 83
2, 30721, Control_c, 0, 64, 81
2, 30740, Control_c, 0, 64, 81
2, 30779, Control_c, 0, 64, 80
2, 30786, Note_on_c, 0, 60, 43
2, 30788, Note_on_c, 0, 44, 37
2, 30798, Control_c, 0, 64, 79
2, 30817, Control_c, 0, 64, 76
2, 30836, Control_c, 0, 64, 72
2, 30846, Note_on_c, 0, 61, 0
2, 30856, Control_c, 0, 64, 68
2, 30874, Control_c, 0, 64, 65
2, 30894, Control_c, 0, 64, 61
2, 30913, Control_c, 0, 64, 56
2, 30933, Control_c, 0, 64, 53
2, 30951, Control_c, 0, 64, 49
2, 30971, Control_c, 0, 64, 46
2, 30990, Control_c, 0, 64, 42
2, 31008, Control_c, 0, 64, 38
2, 31028, Control_c, 0, 64, 33
2, 31047, Control_c, 0, 64, 29
2, 31067, Control_c, 0, 64, 27
2, 31085, Control_c, 0, 64, 25
2, 31105, Control_c, 0, 64, 23
2, 31124, Control_c, 0, 64, 21
2, 31162, Control_c, 0, 64, 20
2, 31198, Note_on_c, 0, 48, 27
2, 31228, Note_on_c, 0, 68, 49
2, 31340, Note_on_c, 0, 70, 0
2, 31354, Control_c, 0, 64, 21
2, 31374, Control_c, 0, 64, 22
2, 31393, Control_c, 0, 64, 23
2, 31413, Control_c, 0, 64, 25
2, 31431, Control_c, 0, 64, 26
2, 31451, Control_c, 0, 64, 27
2, 31470, Control_c, 0, 64, 27
2, 31488, Control_c, 0, 64, 28
2, 31508, Control_c, 0, 64, 29
2, 31527, Control_c, 0, 64, 31
2, 31541, Note_on_c, 0, 51, 35
2, 31547, Control_c, 0, 64, 33
2, 31554, Note_on_c, 0, 72, 59
2, 31565, Control_c, 0, 64, 36
2, 31585, Control_c, 0, 64, 40
2, 31604, Control_c, 0, 64, 44
2, 31623, Control_c, 0, 64, 47
2, 31642, Control_c, 0, 64, 51
2, 31662, Control_c, 0, 64, 55
2, 31681, Control_c, 0, 64, 57
2, 31700, Control_c, 0, 64, 59
2, 31719, Control_c, 0, 64, 60
2, 31739, Control_c, 0, 64, 62
2, 31758, Control_c, 0, 64, 63
2, 31777, Control_c, 0, 64, 65
2, 31796, Control_c, 0, 64, 66
2, 31816, Control_c, 0, 64, 69
2, 31818, Note_on_c, 0, 44, 0
2, 31834, Control_c, 0, 64, 73
2, 31845, Note_on_c, 0, 56, 45
2, 31854, Control_c, 0, 64, 80
2, 31857, Note_on_c, 0, 60, 0
2, 31873, Control_c, 0, 64, 86
2, 31885, Note_on_c, 0, 68, 0
2, 31893, Control_c, 0, 64, 88
2, 31911, Control_c, 0, 64, 88
2, 31961, Note_on_c, 0, 48, 0
2, 32043, Control_c, 0, 64, 87
2, 32062, Control_c, 0, 64, 86
2, 32082, Control_c, 0, 64, 85
2, 32100, Control_c, 0, 64, 83
2, 32120, Control_c, 0, 64, 81
2, 32139, Control_c, 0, 64, 78
2, 32148, Note_on_c, 0, 46, 44
2, 32159, Control_c, 0, 64, 75
2, 32165, Note_on_c, 0, 61, 58
2, 32177, Control_c, 0, 64, 73
2, 32182, Note_on_c, 0, 56, 0
2, 32196, Control_c, 0, 64, 70
2, 32216, Control_c, 0, 64, 68
2, 32222, Note_on_c, 0, 51, 0
2, 32235, Control_c, 0, 64, 66
2, 32254, Control_c, 0, 64, 64
2, 32273, Control_c, 0, 64, 63
2, 32293, Control_c, 0, 64, 62
2, 32331, Control_c, 0, 64, 62
2, 32350, Control_c, 0, 64, 61
2, 32370, Control_c, 0, 64, 60
2, 32388, Control_c, 0, 64, 59
2, 32408, Control_c, 0, 64, 59
2, 32446, Control_c, 0, 64, 58
2, 32465, Control_c, 0, 64, 57
2, 32466, Note_on_c, 0, 70, 69
2, 32482, Note_on_c, 0, 56, 45
2, 32485, Control_c, 0, 64, 56
2, 32504, Control_c, 0, 64, 55
2, 32523, Control_c, 0, 64, 53
2, 32525, Note_on_c, 0, 72, 0
2, 32542, Control_c, 0, 64, 51
2, 32562, Control_c, 0, 64, 47
2, 32580, Control_c, 0, 64, 44
2, 32600, Control_c, 0, 64, 41
2, 32619, Control_c, 0, 64, 36
2, 32635, Control_c, 0, 64, 30
2, 32655, Control_c, 0, 64, 21
2, 32673, Control_c, 0, 64, 0
2, 32778, Note_on_c, 0, 73, 72
2, 32783, Note_on_c, 0, 55, 43
2, 32826, Note_on_c, 0, 56, 0
2, 33017, Note_on_c, 0, 61, 0
2, 33019, Control_c, 0, 64, 40
2, 33039, Control_c, 0, 64, 58
2, 33058, Control_c, 0, 64, 64
2, 33076, Control_c, 0, 64, 66
2, 33096, Control_c, 0, 64, 69
2, 33111, Note_on_c, 0, 46, 0
2, 33115, Control_c, 0, 64, 74
2, 33119, Note_on_c, 0, 58, 56
2, 33135, Control_c, 0, 64, 81
2, 33150, Note_on_c, 0, 70, 0
2, 33153, Control_c, 0, 64, 88
2, 33173, Control_c, 0, 64, 92
2, 33188, Note_on_c, 0, 55, 0
2, 33192, Control_c, 0, 64, 94
2, 33211, Control_c, 0, 64, 94
2, 33288, Control_c, 0, 64, 94
2, 33307, Control_c, 0, 64, 93
2, 33327, Control_c, 0, 64, 92
2, 33345, Control_c, 0, 64, 90
2, 33365, Control_c, 0, 64, 87
2, 33373, Note_on_c, 0, 58, 0
2, 33384, Control_c, 0, 64, 85
2, 33404, Control_c, 0, 64, 82
2, 33413, Note_on_c, 0, 63, 67
2, 33419, Note_on_c, 0, 48, 47
2, 33422, Control_c, 0, 64, 79
2, 33442, Control_c, 0, 64, 76
2, 33461, Control_c, 0, 64, 73
2, 33481, Control_c, 0, 64, 71
2, 33499, Control_c, 0, 64, 69
2, 33519, Control_c, 0, 64, 67
2, 33538, Control_c, 0, 64, 65
2, 33556, Control_c, 0, 64, 64
2, 33576, Control_c, 0, 64, 63
2, 33597, Control_c, 0, 64, 63
2, 33616, Control_c, 0, 64, 62
2, 33635, Control_c, 0, 64, 62
2, 33655, Control_c, 0, 64, 61
2, 33674, Control_c, 0, 64, 60
2, 33693, Control_c, 0, 64, 59
2, 33702, Note_on_c, 0, 72, 73
2, 33708, Note_on_c, 0, 51, 45
2, 33710, Control_c, 0, 64, 58
2, 33712, Note_on_c, 0, 73, 0
2, 33729, Control_c, 0, 64, 57
2, 33748, Control_c, 0, 64, 56
2, 33767, Control_c, 0, 64, 55
2, 33787, Control_c, 0, 64, 54
2, 33824, Control_c, 0, 64, 54
2, 33844, Control_c, 0, 64, 53
2, 33863, Control_c, 0, 64, 53
2, 34017, Control_c, 0, 64, 52
2, 34052, Note_on_c, 0, 75, 80
2, 34055, Control_c, 0, 64, 51
2, 34058, Note_on_c, 0, 56, 54
2, 34075, Control_c, 0, 64, 47
2, 34093, Control_c, 0, 64, 37
2, 34113, Control_c, 0, 64, 0
2, 34247, Control_c, 0, 64, 11
2, 34266, Control_c, 0, 64, 44
2, 34275, Note_on_c, 0, 63, 0
2, 34286, Control_c, 0, 64, 59
2, 34304, Control_c, 0, 64, 64
2, 34324, Control_c, 0, 64, 66
2, 34343, Control_c, 0, 64, 70
2, 34355, Note_on_c, 0, 48, 0
2, 34361, Note_on_c, 0, 60, 61
2, 34363, Control_c, 0, 64, 77
2, 34381, Control_c, 0, 64, 88
2, 34401, Control_c, 0, 64, 100
2, 34405, Note_on_c, 0, 72, 0
2, 34420, Control_c, 0, 64, 108
2, 34439, Control_c, 0, 64, 113
2, 34439, Note_on_c, 0, 51, 0
2, 34458, Control_c, 0, 64, 116
2, 34516, Control_c, 0, 64, 115
2, 34541, Control_c, 0, 64, 113
2, 34560, Control_c, 0, 64, 110
2, 34579, Control_c, 0, 64, 104
2, 34599, Control_c, 0, 64, 96
2, 34617, Control_c, 0, 64, 86
2, 34637, Control_c, 0, 64, 78
2, 34656, Control_c, 0, 64, 70
2, 34671, Note_on_c, 0, 65, 70
2, 34676, Control_c, 0, 64, 64
2, 34676, Note_on_c, 0, 49, 57
2, 34680, Note_on_c, 0, 60, 0
2, 34694, Control_c, 0, 64, 59
2, 34714, Control_c, 0, 64, 51
2, 34733, Control_c, 0, 64, 44
2, 34753, Control_c, 0, 64, 39
2, 34763, Note_on_c, 0, 56, 0
2, 34771, Control_c, 0, 64, 39
2, 34944, Control_c, 0, 64, 39
2, 34963, Control_c, 0, 64, 43
2, 34973, Note_on_c, 0, 73, 75
2, 34977, Note_on_c, 0, 60, 56
2, 34982, Control_c, 0, 64, 48
2, 35002, Control_c, 0, 64, 54
2, 35021, Control_c, 0, 64, 59
2, 35038, Note_on_c, 0, 75, 0
2, 35040, Control_c, 0, 64, 62
2, 35059, Control_c, 0, 64, 64
2, 35079, Control_c, 0, 64, 67
2, 35097, Control_c, 0, 64, 72
2, 35117, Control_c, 0, 64, 79
2, 35136, Control_c, 0, 64, 89
2, 35156, Control_c, 0, 64, 96
2, 35174, Control_c, 0, 64, 100
2, 35194, Control_c, 0, 64, 103
2, 35213, Control_c, 0, 64, 103
2, 35290, Control_c, 0, 64, 102
2, 35309, Control_c, 0, 64, 100
2, 35320, Note_on_c, 0, 60, 0
2, 35327, Control_c, 0, 64, 95
2, 35344, Note_on_c, 0, 58, 45
2, 35346, Control_c, 0, 64, 90
2, 35363, Note_on_c, 0, 77, 81
2, 35366, Control_c, 0, 64, 84
2, 35384, Control_c, 0, 64, 78
2, 35404, Control_c, 0, 64, 72
2, 35423, Control_c, 0, 64, 66
2, 35442, Control_c, 0, 64, 59
2, 35461, Control_c, 0, 64, 45
2, 35473, Control_c, 0, 64, 18
2, 35492, Control_c, 0, 64, 0
2, 35552, Control_c, 0, 64, 9
2, 35571, Control_c, 0, 64, 32
2, 35591, Control_c, 0, 64, 46
2, 35609, Control_c, 0, 64, 55
2, 35629, Control_c, 0, 64, 58
2, 35648, Control_c, 0, 64, 62
2, 35666, Control_c, 0, 64, 64
2, 35668, Note_on_c, 0, 65, 0
2, 35679, Note_on_c, 0, 61, 43
2, 35686, Control_c, 0, 64, 67
2, 35705, Control_c, 0, 64, 71
2, 35725, Control_c, 0, 64, 78
2, 35743, Control_c, 0, 64, 85
2, 35763, Control_c, 0, 64, 91
2, 35770, Note_on_c, 0, 49, 0
2, 35782, Control_c, 0, 64, 93
2, 35802, Control_c, 0, 64, 93
2, 35810, Note_on_c, 0, 73, 0
2, 35820, Control_c, 0, 64, 94
2, 35840, Control_c, 0, 64, 94
2, 35859, Control_c, 0, 64, 95
2, 35936, Control_c, 0, 64, 94
2, 35955, Control_c, 0, 64, 94
2, 35974, Control_c, 0, 64, 92
2, 35994, Control_c, 0, 64, 91
2, 36012, Control_c, 0, 64, 89
2, 36032, Control_c, 0, 64, 86
2, 36051, Control_c, 0, 64, 84
2, 36071, Control_c, 0, 64, 81
2, 36072, Note_on_c, 0, 51, 38
2, 36089, Control_c, 0, 64, 78
2, 36100, Note_on_c, 0, 67, 51
2, 36109, Control_c, 0, 64, 76
2, 36128, Control_c, 0, 64, 73
2, 36146, Control_c, 0, 64, 70
2, 36162, Note_on_c, 0, 58, 0
2, 36166, Control_c, 0, 64, 67
2, 36183, Note_on_c, 0, 61, 0
2, 36185, Control_c, 0, 64, 65
2, 36205, Control_c, 0, 64, 63
2, 36223, Control_c, 0, 64, 61
2, 36243, Control_c, 0, 64, 59
2, 36262, Control_c, 0, 64, 57
2, 36282, Control_c, 0, 64, 55
2, 36300, Control_c, 0, 64, 54
2, 36320, Control_c, 0, 64, 51
2, 36339, Control_c, 0, 64, 48
2, 36358, Control_c, 0, 64, 45
2, 36377, Control_c, 0, 64, 42
2, 36397, Control_c, 0, 64, 38
2, 36416, Control_c, 0, 64, 36
2, 36435, Control_c, 0, 64, 33
2, 36455, Control_c, 0, 64, 31
2, 36474, Control_c, 0, 64, 30
2, 36491, Note_on_c, 0, 55, 35
2, 36492, Control_c, 0, 64, 29
2, 36504, Note_on_c, 0, 75, 62
2, 36531, Control_c, 0, 64, 29
2, 36608, Control_c, 0, 64, 30
2, 36626, Control_c, 0, 64, 32
2, 36646, Control_c, 0, 64, 35
2, 36665, Control_c, 0, 64, 39
2, 36685, Control_c, 0, 64, 42
2, 36703, Control_c, 0, 64, 44
2, 36723, Control_c, 0, 64, 47
2, 36742, Control_c, 0, 64, 49
2, 36762, Control_c, 0, 64, 52
2, 36780, Control_c, 0, 64, 54
2, 36800, Control_c, 0, 64, 56
2, 36819, Control_c, 0, 64, 57
2, 36821, Note_on_c, 0, 58, 42
2, 36828, Note_on_c, 0, 73, 66
2, 36838, Control_c, 0, 64, 61
2, 36857, Control_c, 0, 64, 63
2, 36866, Note_on_c, 0, 67, 0
2, 36877, Control_c, 0, 64, 65
2, 36896, Control_c, 0, 64, 67
2, 36915, Control_c, 0, 64, 70
2, 36934, Control_c, 0, 64, 76
2, 36954, Control_c, 0, 64, 85
2, 36968, Note_on_c, 0, 77, 0
2, 36972, Control_c, 0, 64, 91
2, 36992, Control_c, 0, 64, 95
2, 37011, Control_c, 0, 64, 97
2, 37031, Control_c, 0, 64, 98
2, 37049, Control_c, 0, 64, 99
2, 37106, Note_on_c, 0, 51, 0
2, 37117, Note_on_c, 0, 75, 0
2, 37119, Note_on_c, 0, 72, 71
2, 37128, Note_on_c, 0, 73, 0
2, 37132, Note_on_c, 0, 63, 51
2, 37145, Control_c, 0, 64, 98
2, 37165, Control_c, 0, 64, 97
2, 37183, Control_c, 0, 64, 96
2, 37203, Control_c, 0, 64, 95
2, 37207, Note_on_c, 0, 55, 0
2, 37222, Control_c, 0, 64, 93
2, 37242, Control_c, 0, 64, 92
2, 37260, Control_c, 0, 64, 91
2, 37299, Control_c, 0, 64, 90
2, 37318, Control_c, 0, 64, 90
2, 37337, Control_c, 0, 64, 89
2, 37357, Control_c, 0, 64, 87
2, 37376, Control_c, 0, 64, 85
2, 37392, Control_c, 0, 64, 83
2, 37410, Control_c, 0, 64, 80
2, 37430, Note_on_c, 0, 70, 68
2, 37434, Control_c, 0, 64, 78
2, 37442, Note_on_c, 0, 53, 52
2, 37452, Control_c, 0, 64, 75
2, 37472, Control_c, 0, 64, 72
2, 37490, Note_on_c, 0, 63, 0
2, 37491, Control_c, 0, 64, 70
2, 37492, Note_on_c, 0, 58, 0
2, 37492, Note_on_c, 0, 72, 0
2, 37511, Control_c, 0, 64, 66
2, 37529, Control_c, 0, 64, 64
2, 37549, Control_c, 0, 64, 62
2, 37568, Control_c, 0, 64, 60
2, 37586, Control_c, 0, 64, 59
2, 37606, Control_c, 0, 64, 57
2, 37625, Control_c, 0, 64, 56
2, 37645, Control_c, 0, 64, 55
2, 37663, Control_c, 0, 64, 53
2, 37683, Control_c, 0, 64, 50
2, 37702, Control_c, 0, 64, 47
2, 37722, Control_c, 0, 64, 44
2, 37732, Note_on_c, 0, 63, 48
2, 37738, Note_on_c, 0, 67, 60
2, 37740, Control_c, 0, 64, 40
2, 37744, Note_on_c, 0, 70, 0
2, 37760, Control_c, 0, 64, 37
2, 37779, Control_c, 0, 64, 34
2, 37798, Control_c, 0, 64, 31
2, 37817, Control_c, 0, 64, 27
2, 37837, Control_c, 0, 64, 25
2, 37856, Control_c, 0, 64, 23
2, 37894, Control_c, 0, 64, 22
2, 38009, Control_c, 0, 64, 23
2, 38040, Note_on_c, 0, 68, 62
2, 38045, Control_c, 0, 64, 24
2, 38061, Note_on_c, 0, 61, 46
2, 38064, Control_c, 0, 64, 26
2, 38064, Note_on_c, 0, 67, 0
2, 38083, Control_c, 0, 64, 27
2, 38103, Control_c, 0, 64, 30
2, 38122, Control_c, 0, 64, 32
2, 38127, Note_on_c, 0, 63, 0
2, 38141, Control_c, 0, 64, 34
2, 38160, Control_c, 0, 64, 35
2, 38180, Control_c, 0, 64, 37
2, 38199, Control_c, 0, 64, 40
2, 38218, Control_c, 0, 64, 44
2, 38237, Control_c, 0, 64, 49
2, 38257, Control_c, 0, 64, 53
2, 38275, Control_c, 0, 64, 57
2, 38294, Control_c, 0, 64, 60
2, 38314, Control_c, 0, 64, 63
2, 38324, Note_on_c, 0, 53, 0
2, 38333, Control_c, 0, 64, 65
2, 38352, Control_c, 0, 64, 67
2, 38370, Control_c, 0, 64, 70
2, 38378, Note_on_c, 0, 68, 0
2, 38380, Note_on_c, 0, 73, 59
2, 38394, Control_c, 0, 64, 75
2, 38398, Note_on_c, 0, 65, 36
2, 38412, Control_c, 0, 64, 80
2, 38432, Control_c, 0, 64, 85
2, 38451, Control_c, 0, 64, 86
2, 38566, Control_c, 0, 64, 86
2, 38586, Control_c, 0, 64, 85
2, 38604, Control_c, 0, 64, 83
2, 38624, Control_c, 0, 64, 82
2, 38643, Control_c, 0, 64, 80
2, 38663, Control_c, 0, 64, 79
2, 38677, Note_on_c, 0, 73, 0
2, 38680, Note_on_c, 0, 65, 0
2, 38681, Control_c, 0, 64, 77
2, 38701, Control_c, 0, 64, 75
2, 38720, Control_c, 0, 64, 73
2, 38739, Control_c, 0, 64, 71
2, 38739, Note_on_c, 0, 55, 39
2, 38758, Control_c, 0, 64, 69
2, 38778, Control_c, 0, 64, 68
2, 38794, Note_on_c, 0, 72, 57
2, 38797, Control_c, 0, 64, 66
2, 38813, Note_on_c, 0, 61, 0
2, 38815, Control_c, 0, 64, 64
2, 38835, Control_c, 0, 64, 63
2, 38854, Control_c, 0, 64, 61
2, 38865, Note_on_c, 0, 72, 0
2, 38874, Control_c, 0, 64, 59
2, 38892, Control_c, 0, 64, 58
2, 38898, Note_on_c, 0, 70, 60
2, 38912, Control_c, 0, 64, 57
2, 38931, Control_c, 0, 64, 56
2, 38949, Note_on_c, 0, 70, 0
2, 38950, Control_c, 0, 64, 55
2, 38969, Control_c, 0, 64, 53
2, 38983, Note_on_c, 0, 72, 59
2, 38989, Control_c, 0, 64, 52
2, 39008, Control_c, 0, 64, 51
2, 39027, Control_c, 0, 64, 50
2, 39034, Note_on_c, 0, 72, 0
2, 39046, Control_c, 0, 64, 49
2, 39047, Note_on_c, 0, 65, 41
2, 39066, Control_c, 0, 64, 48
2, 39067, Note_on_c, 0, 70, 65
2, 39084, Control_c, 0, 64, 47
2, 39104, Control_c, 0, 64, 46
2, 39105, Note_on_c, 0, 70, 0
2, 39123, Control_c, 0, 64, 44
2, 39135, Note_on_c, 0, 72, 62
2, 39143, Control_c, 0, 64, 43
2, 39161, Control_c, 0, 64, 41
2, 39181, Control_c, 0, 64, 39
2, 39182, Note_on_c, 0, 72, 0
2, 39200, Control_c, 0, 64, 37
2, 39203, Note_on_c, 0, 70, 62
2, 39219, Control_c, 0, 64, 36
2, 39238, Control_c, 0, 64, 34
2, 39246, Note_on_c, 0, 70, 0
2, 39258, Control_c, 0, 64, 32
2, 39267, Note_on_c, 0, 72, 66
2, 39277, Control_c, 0, 64, 30
2, 39295, Control_c, 0, 64, 29
2, 39311, Note_on_c, 0, 72, 0
2, 39315, Control_c, 0, 64, 27
2, 39338, Control_c, 0, 64, 27
2, 39340, Note_on_c, 0, 70, 65
2, 39353, Note_on_c, 0, 65, 0
2, 39367, Note_on_c, 0, 63, 45
2, 39472, Control_c, 0, 64, 29
2, 39490, Control_c, 0, 64, 35
2, 39510, Control_c, 0, 64, 40
2, 39529, Control_c, 0, 64, 46
2, 39549, Control_c, 0, 64, 51
2, 39567, Control_c, 0, 64, 57
2, 39587, Control_c, 0, 64, 60
2, 39606, Control_c, 0, 64, 63
2, 39625, Control_c, 0, 64, 65
2, 39644, Control_c, 0, 64, 68
2, 39664, Control_c, 0, 64, 72
2, 39673, Note_on_c, 0, 61, 46
2, 39683, Control_c, 0, 64, 78
2, 39691, Note_on_c, 0, 55, 0
2, 39702, Control_c, 0, 64, 87
2, 39718, Note_on_c, 0, 63, 0
2, 39721, Control_c, 0, 64, 94
2, 39741, Control_c, 0, 64, 97
2, 39759, Control_c, 0, 64, 99
2, 39779, Control_c, 0, 64, 100
2, 39798, Control_c, 0, 64, 100
2, 39835, Note_on_c, 0, 70, 0
2, 39952, Control_c, 0, 64, 100
2, 39970, Control_c, 0, 64, 99
2, 39990, Control_c, 0, 64, 98
2, 40009, Control_c, 0, 64, 97
2, 40029, Control_c, 0, 64, 95
2, 40047, Control_c, 0, 64, 93
2, 40067, Control_c, 0, 64, 91
2, 40086, Control_c, 0, 64, 88
2, 40099, Note_on_c, 0, 60, 43
2, 40105, Control_c, 0, 64, 84
2, 40114, Note_on_c, 0, 56, 50
2, 40124, Control_c, 0, 64, 80
2, 40144, Control_c, 0, 64, 76
2, 40149, Note_on_c, 0, 61, 0
2, 40163, Control_c, 0, 64, 72
2, 40182, Control_c, 0, 64, 68
2, 40201, Control_c, 0, 64, 64
2, 40221, Control_c, 0, 64, 59
2, 40239, Control_c, 0, 64, 54
2, 40259, Control_c, 0, 64, 49
2, 40272, Control_c, 0, 64, 46
2, 40291, Control_c, 0, 64, 44
2, 40310, Control_c, 0, 64, 42
2, 40328, Control_c, 0, 64, 40
2, 40348, Control_c, 0, 64, 38
2, 40367, Control_c, 0, 64, 37
2, 40387, Control_c, 0, 64, 36
2, 40502, Note_on_c, 0, 63, 48
2, 40806, Note_on_c, 0, 55, 41
2, 40810, Note_on_c, 0, 56, 0
2, 40817, Note_on_c, 0, 65, 54
2, 40869, Note_on_c, 0, 63, 0
2, 41096, Control_c, 0, 64, 35
2, 41109, Note_on_c, 0, 67, 64
2, 41116, Control_c, 0, 64, 34
2, 41135, Control_c, 0, 64, 31
2, 41146, Note_on_c, 0, 65, 0
2, 41154, Control_c, 0, 64, 27
2, 41173, Control_c, 0, 64, 20
2, 41193, Control_c, 0, 64, 9
2, 41212, Control_c, 0, 64, 0
2, 41427, Note_on_c, 0, 68, 72
2, 41436, Note_on_c, 0, 53, 46
2, 41489, Note_on_c, 0, 67, 0
2, 41502, Note_on_c, 0, 55, 0
2, 41749, Note_on_c, 0, 68, 0
2, 41751, Note_on_c, 0, 67, 68
2, 42064, Note_on_c, 0, 68, 70
2, 42075, Note_on_c, 0, 49, 55
2, 42082, Note_on_c, 0, 67, 0
2, 42105, Note_on_c, 0, 53, 0
2, 42326, Control_c, 0, 64, 21
2, 42346, Control_c, 0, 64, 42
2, 42365, Control_c, 0, 64, 55
2, 42384, Control_c, 0, 64, 62
2, 42388, Note_on_c, 0, 77, 72
2, 42403, Control_c, 0, 64, 64
2, 42423, Control_c, 0, 64, 66
2, 42442, Control_c, 0, 64, 71
2, 42461, Control_c, 0, 64, 78
2, 42480, Control_c, 0, 64, 88
2, 42500, Control_c, 0, 64, 95
2, 42509, Note_on_c, 0, 49, 0
2, 42512, Note_on_c, 0, 68, 0
2, 42519, Control_c, 0, 64, 100
2, 42529, Note_on_c, 0, 60, 0
2, 42538, Control_c, 0, 64, 106
2, 42557, Control_c, 0, 64, 118
2, 42576, Control_c, 0, 64, 127
2, 42749, Control_c, 0, 64, 110
2, 42750, Note_on_c, 0, 51, 48
2, 42765, Note_on_c, 0, 60, 46
2, 42767, Note_on_c, 0, 75, 69
2, 42768, Control_c, 0, 64, 100
2, 42788, Control_c, 0, 64, 92
2, 42806, Control_c, 0, 64, 85
2, 42810, Note_on_c, 0, 77, 0
2, 42826, Control_c, 0, 64, 78
2, 42845, Control_c, 0, 64, 72
2, 42864, Control_c, 0, 64, 65
2, 42882, Note_on_c, 0, 60, 0
2, 42883, Control_c, 0, 64, 59
2, 42893, Note_on_c, 0, 58, 59
2, 42903, Control_c, 0, 64, 52
2, 42922, Control_c, 0, 64, 46
2, 42941, Control_c, 0, 64, 43
2, 42957, Note_on_c, 0, 58, 0
2, 42960, Control_c, 0, 64, 42
2, 42980, Control_c, 0, 64, 40
2, 42994, Note_on_c, 0, 60, 53
2, 42999, Control_c, 0, 64, 35
2, 43018, Control_c, 0, 64, 29
2, 43037, Control_c, 0, 64, 19
2, 43056, Control_c, 0, 64, 0
2, 43056, Note_on_c, 0, 60, 0
2, 43071, Note_on_c, 0, 58, 54
2, 43076, Note_on_c, 0, 68, 63
2, 43126, Note_on_c, 0, 58, 0
2, 43161, Note_on_c, 0, 60, 57
2, 43206, Note_on_c, 0, 60, 0
2, 43224, Note_on_c, 0, 58, 61
2, 43273, Note_on_c, 0, 58, 0
2, 43306, Note_on_c, 0, 60, 61
2, 43350, Note_on_c, 0, 68, 0
2, 43358, Note_on_c, 0, 67, 57
2, 43371, Note_on_c, 0, 60, 0
2, 43397, Note_on_c, 0, 58, 54
2, 43593, Control_c, 0, 64, 31
2, 43612, Control_c, 0, 64, 46
2, 43631, Control_c, 0, 64, 54
2, 43650, Control_c, 0, 64, 58
2, 43670, Control_c, 0, 64, 62
2, 43672, Note_on_c, 0, 73, 61
2, 43689, Control_c, 0, 64, 66
2, 43700, Note_on_c, 0, 58, 0
2, 43708, Control_c, 0, 64, 68
2, 43727, Control_c, 0, 64, 72
2, 43733, Note_on_c, 0, 51, 0
2, 43747, Control_c, 0, 64, 78
2, 43765, Control_c, 0, 64, 83
2, 43785, Control_c, 0, 64, 86
2, 43804, Control_c, 0, 64, 88
2, 43824, Control_c, 0, 64, 89
2, 43900, Note_on_c, 0, 75, 0
2, 43976, Control_c, 0, 64, 89
2, 43996, Control_c, 0, 64, 88
2, 44015, Control_c, 0, 64, 87
2, 44034, Control_c, 0, 64, 86
2, 44053, Control_c, 0, 64, 84
2, 44073, Control_c, 0, 64, 81
2, 44092, Control_c, 0, 64, 77
2, 44094, Note_on_c, 0, 72, 60
2, 44098, Note_on_c, 0, 56, 41
2, 44111, Control_c, 0, 64, 73
2, 44111, Note_on_c, 0, 44, 39
2, 44130, Control_c, 0, 64, 70
2, 44152, Control_c, 0, 64, 67
2, 44170, Control_c, 0, 64, 64
2, 44180, Note_on_c, 0, 67, 0
2, 44190, Control_c, 0, 64, 61
2, 44199, Note_on_c, 0, 73, 0
2, 44209, Control_c, 0, 64, 56
2, 44229, Control_c, 0, 64, 47
2, 44247, Control_c, 0, 64, 38
2, 44267, Control_c, 0, 64, 32
2, 44286, Control_c, 0, 64, 29
2, 44305, Control_c, 0, 64, 26
2, 44324, Control_c, 0, 64, 23
2, 44344, Control_c, 0, 64, 20
2, 44363, Control_c, 0, 64, 18
2, 44382, Control_c, 0, 64, 13
2, 44401, Control_c, 0, 64, 11
2, 44421, Control_c, 0, 64, 9
2, 44459, Control_c, 0, 64, 0
2, 44508, Note_on_c, 0, 68, 52
2, 44612, Control_c, 0, 64, 9
2, 44619, Note_on_c, 0, 72, 0
2, 44632, Control_c, 0, 64, 11
2, 44670, Control_c, 0, 64, 13
2, 44689, Control_c, 0, 64, 17
2, 44709, Control_c, 0, 64, 18
2, 44727, Control_c, 0, 64, 19
2, 44747, Control_c, 0, 64, 20
2, 44785, Control_c, 0, 64, 21
2, 44804, Control_c, 0, 64, 22
2, 44818, Note_on_c, 0, 72, 56
2, 44824, Control_c, 0, 64, 24
2, 44843, Control_c, 0, 64, 26
2, 44862, Control_c, 0, 64, 28
2, 44881, Control_c, 0, 64, 31
2, 44896, Note_on_c, 0, 68, 0
2, 44901, Control_c, 0, 64, 34
2, 44919, Control_c, 0, 64, 37
2, 44939, Control_c, 0, 64, 40
2, 44958, Control_c, 0, 64, 43
2, 44978, Control_c, 0, 64, 45
2, 44996, Control_c, 0, 64, 48
2, 45015, Control_c, 0, 64, 51
2, 45035, Control_c, 0, 64, 53
2, 45053, Control_c, 0, 64, 55
2, 45071, Note_on_c, 0, 44, 0
2, 45073, Control_c, 0, 64, 58
2, 45091, Control_c, 0, 64, 60
2, 45113, Control_c, 0, 64, 63
2, 45131, Control_c, 0, 64, 65
2, 45138, Note_on_c, 0, 76, 64
2, 45151, Control_c, 0, 64, 66
2, 45170, Control_c, 0, 64, 68
2, 45189, Control_c, 0, 64, 72
2, 45204, Note_on_c, 0, 72, 0
2, 45205, Note_on_c, 0, 56, 0
2, 45208, Control_c, 0, 64, 77
2, 45228, Control_c, 0, 64, 81
2, 45247, Control_c, 0, 64, 84
2, 45266, Control_c, 0, 64, 85
2, 45400, Control_c, 0, 64, 84
2, 45420, Control_c, 0, 64, 83
2, 45439, Control_c, 0, 64, 83
2, 45459, Control_c, 0, 64, 82
2, 45465, Note_on_c, 0, 77, 64
2, 45477, Control_c, 0, 64, 81
2, 45496, Control_c, 0, 64, 80
2, 45516, Control_c, 0, 64, 79
2, 45534, Control_c, 0, 64, 78
2, 45539, Note_on_c, 0, 76, 0
2, 45554, Control_c, 0, 64, 76
2, 45573, Control_c, 0, 64, 75
2, 45593, Control_c, 0, 64, 73
2, 45611, Control_c, 0, 64, 72
2, 45631, Control_c, 0, 64, 70
2, 45650, Control_c, 0, 64, 69
2, 45669, Control_c, 0, 64, 68
2, 45688, Control_c, 0, 64, 67
2, 45708, Control_c, 0, 64, 66
2, 45727, Control_c, 0, 64, 65
2, 45746, Control_c, 0, 64, 64
2, 45765, Control_c, 0, 64, 63
2, 45785, Control_c, 0, 64, 63
2, 45785, Note_on_c, 0, 79, 70
2, 45804, Control_c, 0, 64, 62
2, 45811, Note_on_c, 0, 56, 48
2, 45823, Control_c, 0, 64, 61
2, 45842, Control_c, 0, 64, 59
2, 45862, Control_c, 0, 64, 57
2, 45876, Note_on_c, 0, 77, 0
2, 45880, Control_c, 0, 64, 55
2, 45900, Control_c, 0, 64, 53
2, 45919, Control_c, 0, 64, 51
2, 45939, Control_c, 0, 64, 49
2, 45957, Control_c, 0, 64, 46
2, 45976, Control_c, 0, 64, 42
2, 45996, Control_c, 0, 64, 39
2, 46014, Control_c, 0, 64, 37
2, 46034, Control_c, 0, 64, 36
2, 46053, Control_c, 0, 64, 35
2, 46074, Control_c, 0, 64, 34
2, 46090, Note_on_c, 0, 76, 70
2, 46093, Control_c, 0, 64, 34
2, 46102, Note_on_c, 0, 55, 52
2, 46132, Control_c, 0, 64, 33
2, 46135, Note_on_c, 0, 56, 0
2, 46192, Note_on_c, 0, 79, 0
2, 46382, Control_c, 0, 64, 34
2, 46389, Note_on_c, 0, 77, 76
2, 46391, Note_on_c, 0, 53, 55
2, 46401, Control_c, 0, 64, 34
2, 46416, Note_on_c, 0, 55, 0
2, 46439, Control_c, 0, 64, 35
2, 46459, Control_c, 0, 64, 35
2, 46478, Control_c, 0, 64, 36
2, 46516, Control_c, 0, 64, 36
2, 46535, Control_c, 0, 64, 37
2, 46554, Control_c, 0, 64, 37
2, 46573, Control_c, 0, 64, 38
2, 46593, Control_c, 0, 64, 39
2, 46677, Note_on_c, 0, 76, 0
2, 46689, Control_c, 0, 64, 39
2, 46789, Note_on_c, 0, 79, 77
2, 46810, Note_on_c, 0, 52, 50
2, 46826, Note_on_c, 0, 53, 0
2, 46919, Note_on_c, 0, 77, 0
2, 47093, Control_c, 0, 64, 40
2, 47112, Control_c, 0, 64, 40
2, 47131, Control_c, 0, 64, 41
2, 47150, Control_c, 0, 64, 42
2, 47170, Control_c, 0, 64, 44
2, 47179, Note_on_c, 0, 55, 48
2, 47189, Control_c, 0, 64, 45
2, 47208, Control_c, 0, 64, 46
2, 47227, Control_c, 0, 64, 48
2, 47247, Control_c, 0, 64, 50
2, 47265, Control_c, 0, 64, 52
2, 47285, Control_c, 0, 64, 53
2, 47304, Control_c, 0, 64, 55
2, 47324, Control_c, 0, 64, 56
2, 47342, Control_c, 0, 64, 57
2, 47362, Control_c, 0, 64, 59
2, 47381, Control_c, 0, 64, 61
2, 47399, Control_c, 0, 64, 62
2, 47419, Control_c, 0, 64, 64
2, 47438, Control_c, 0, 64, 67
2, 47458, Control_c, 0, 64, 71
2, 47467, Note_on_c, 0, 58, 56
2, 47476, Control_c, 0, 64, 76
2, 47496, Control_c, 0, 64, 83
2, 47515, Control_c, 0, 64, 90
2, 47535, Control_c, 0, 64, 96
2, 47553, Control_c, 0, 64, 106
2, 47573, Control_c, 0, 64, 127
2, 47726, Note_on_c, 0, 52, 0
2, 47759, Note_on_c, 0, 55, 0
2, 47789, Note_on_c, 0, 58, 0
2, 47789, Note_on_c, 0, 61, 61
2, 48053, Control_c, 0, 64, 107
2, 48072, Control_c, 0, 64, 97
2, 48091, Control_c, 0, 64, 88
2, 48097, Note_on_c, 0, 48, 60
2, 48110, Control_c, 0, 64, 82
2, 48130, Control_c, 0, 64, 78
2, 48149, Control_c, 0, 64, 74
2, 48168, Control_c, 0, 64, 72
2, 48187, Control_c, 0, 64, 70
2, 48207, Control_c, 0, 64, 68
2, 48225, Control_c, 0, 64, 66
2, 48245, Control_c, 0, 64, 64
2, 48264, Control_c, 0, 64, 63
2, 48284, Control_c, 0, 64, 61
2, 48302, Control_c, 0, 64, 60
2, 48322, Control_c, 0, 64, 59
2, 48335, Note_on_c, 0, 61, 0
2, 48341, Control_c, 0, 64, 59
2, 48359, Control_c, 0, 64, 58
2, 48379, Control_c, 0, 64, 57
2, 48398, Control_c, 0, 64, 56
2, 48414, Note_on_c, 0, 53, 60
2, 48418, Control_c, 0, 64, 55
2, 48436, Control_c, 0, 64, 54
2, 48456, Control_c, 0, 64, 53
2, 48475, Control_c, 0, 64, 52
2, 48495, Control_c, 0, 64, 51
2, 48513, Control_c, 0, 64, 50
2, 48533, Control_c, 0, 64, 49
2, 48552, Control_c, 0, 64, 47
2, 48571, Control_c, 0, 64, 46
2, 48590, Control_c, 0, 64, 45
2, 48610, Control_c, 0, 64, 44
2, 48629, Control_c, 0, 64, 44
2, 48648, Control_c, 0, 64, 43
2, 48667, Control_c, 0, 64, 42
2, 48705, Control_c, 0, 64, 42
2, 48737, Note_on_c, 0, 52, 55
2, 48752, Note_on_c, 0, 53, 0
2, 49047, Note_on_c, 0, 52, 0
2, 49051, Note_on_c, 0, 55, 49
2, 49070, Control_c, 0, 64, 41
2, 49090, Control_c, 0, 64, 41
2, 49358, Control_c, 0, 64, 41
2, 49435, Control_c, 0, 64, 42
2, 49497, Note_on_c, 0, 53, 35
2, 49507, Note_on_c, 0, 56, 46
2, 49529, Note_on_c, 0, 79, 0
2, 49550, Control_c, 0, 64, 42
2, 49655, Note_on_c, 0, 48, 0
2, 49669, Note_on_c, 0, 55, 0
2, 49799, Control_c, 0, 64, 43
2, 49929, Note_on_c, 0, 72, 48
2, 50144, Control_c, 0, 64, 43
2, 50163, Control_c, 0, 64, 44
2, 50182, Control_c, 0, 64, 46
2, 50202, Control_c, 0, 64, 48
2, 50220, Control_c, 0, 64, 49
2, 50239, Control_c, 0, 64, 51
2, 50252, Note_on_c, 0, 77, 50
2, 50259, Control_c, 0, 64, 53
2, 50278, Control_c, 0, 64, 55
2, 50297, Control_c, 0, 64, 57
2, 50316, Control_c, 0, 64, 58
2, 50336, Control_c, 0, 64, 61
2, 50354, Control_c, 0, 64, 63
2, 50374, Control_c, 0, 64, 65
2, 50393, Control_c, 0, 64, 66
2, 50413, Control_c, 0, 64, 68
2, 50431, Control_c, 0, 64, 72
2, 50451, Control_c, 0, 64, 76
2, 50470, Control_c, 0, 64, 82
2, 50490, Control_c, 0, 64, 86
2, 50508, Control_c, 0, 64, 88
2, 50528, Control_c, 0, 64, 89
2, 50547, Control_c, 0, 64, 90
2, 50566, Control_c, 0, 64, 91
2, 50566, Note_on_c, 0, 80, 61
2, 50616, Note_on_c, 0, 77, 0
2, 50796, Control_c, 0, 64, 90
2, 50855, Control_c, 0, 64, 90
2, 50905, Note_on_c, 0, 74, 53
2, 50913, Control_c, 0, 64, 89
2, 50952, Control_c, 0, 64, 89
2, 50953, Note_on_c, 0, 53, 0
2, 50963, Note_on_c, 0, 80, 0
2, 50971, Control_c, 0, 64, 88
2, 50990, Control_c, 0, 64, 87
2, 51010, Control_c, 0, 64, 87
2, 51016, Note_on_c, 0, 72, 0
2, 51048, Control_c, 0, 64, 86
2, 51067, Control_c, 0, 64, 86
2, 51087, Control_c, 0, 64, 85
2, 51105, Control_c, 0, 64, 85
2, 51125, Control_c, 0, 64, 84
2, 51144, Control_c, 0, 64, 84
2, 51164, Control_c, 0, 64, 83
2, 51182, Control_c, 0, 64, 81
2, 51202, Control_c, 0, 64, 80
2, 51203, Note_on_c, 0, 77, 60
2, 51210, Note_on_c, 0, 53, 40
2, 51218, Note_on_c, 0, 74, 0
2, 51221, Control_c, 0, 64, 78
2, 51239, Control_c, 0, 64, 77
2, 51259, Control_c, 0, 64, 75
2, 51278, Control_c, 0, 64, 73
2, 51298, Control_c, 0, 64, 71
2, 51316, Control_c, 0, 64, 70
2, 51336, Control_c, 0, 64, 68
2, 51355, Control_c, 0, 64, 67
2, 51375, Control_c, 0, 64, 66
2, 51393, Control_c, 0, 64, 64
2, 51413, Control_c, 0, 64, 63
2, 51432, Control_c, 0, 64, 63
2, 51451, Control_c, 0, 64, 62
2, 51470, Control_c, 0, 64, 61
2, 51490, Control_c, 0, 64, 61
2, 51509, Control_c, 0, 64, 60
2, 51528, Control_c, 0, 64, 59
2, 51529, Note_on_c, 0, 51, 45
2, 51533, Note_on_c, 0, 71, 56
2, 51547, Control_c, 0, 64, 59
2, 51562, Note_on_c, 0, 53, 0
2, 51567, Control_c, 0, 64, 58
2, 51585, Control_c, 0, 64, 57
2, 51605, Control_c, 0, 64, 56
2, 51624, Control_c, 0, 64, 55
2, 51644, Control_c, 0, 64, 54
2, 51662, Control_c, 0, 64, 53
2, 51682, Control_c, 0, 64, 51
2, 51701, Control_c, 0, 64, 49
2, 51711, Note_on_c, 0, 77, 0
2, 51719, Control_c, 0, 64, 46
2, 51739, Control_c, 0, 64, 43
2, 51758, Control_c, 0, 64, 41
2, 51778, Control_c, 0, 64, 40
2, 51796, Control_c, 0, 64, 38
2, 51815, Control_c, 0, 64, 37
2, 51836, Control_c, 0, 64, 36
2, 51839, Note_on_c, 0, 51, 0
2, 51855, Control_c, 0, 64, 34
2, 51855, Note_on_c, 0, 50, 48
2, 51855, Note_on_c, 0, 56, 0
2, 51868, Note_on_c, 0, 71, 0
2, 51874, Control_c, 0, 64, 34
2, 51880, Note_on_c, 0, 72, 54
2, 51894, Control_c, 0, 64, 33
2, 51971, Control_c, 0, 64, 35
2, 51989, Control_c, 0, 64, 39
2, 52009, Control_c, 0, 64, 46
2, 52028, Control_c, 0, 64, 51
2, 52048, Control_c, 0, 64, 56
2, 52066, Control_c, 0, 64, 59
2, 52086, Control_c, 0, 64, 62
2, 52105, Control_c, 0, 64, 65
2, 52125, Control_c, 0, 64, 67
2, 52143, Control_c, 0, 64, 70
2, 52155, Note_on_c, 0, 72, 0
2, 52163, Control_c, 0, 64, 74
2, 52182, Control_c, 0, 64, 78
2, 52200, Control_c, 0, 64, 82
2, 52220, Control_c, 0, 64, 84
2, 52267, Note_on_c, 0, 55, 37
2, 52272, Note_on_c, 0, 50, 0
2, 52277, Control_c, 0, 64, 84
2, 52316, Control_c, 0, 64, 83
2, 52318, Note_on_c, 0, 72, 56
2, 52335, Control_c, 0, 64, 82
2, 52354, Control_c, 0, 64, 80
2, 52374, Control_c, 0, 64, 77
2, 52389, Note_on_c, 0, 72, 0
2, 52393, Control_c, 0, 64, 74
2, 52412, Control_c, 0, 64, 71
2, 52431, Control_c, 0, 64, 70
2, 52433, Note_on_c, 0, 71, 52
2, 52451, Control_c, 0, 64, 68
2, 52469, Control_c, 0, 64, 67
2, 52486, Note_on_c, 0, 71, 0
2, 52489, Control_c, 0, 64, 65
2, 52508, Control_c, 0, 64, 63
2, 52528, Control_c, 0, 64, 61
2, 52536, Note_on_c, 0, 72, 50
2, 52546, Control_c, 0, 64, 59
2, 52566, Control_c, 0, 64, 58
2, 52582, Note_on_c, 0, 72, 0
2, 52585, Control_c, 0, 64, 58
2, 52603, Note_on_c, 0, 71, 54
2, 52605, Control_c, 0, 64, 57
2, 52623, Control_c, 0, 64, 56
2, 52643, Control_c, 0, 64, 55
2, 52643, Note_on_c, 0, 59, 47
2, 52655, Note_on_c, 0, 71, 0
2, 52662, Control_c, 0, 64, 55
2, 52686, Note_on_c, 0, 72, 59
2, 52700, Control_c, 0, 64, 54
2, 52719, Control_c, 0, 64, 53
2, 52725, Note_on_c, 0, 72, 0
2, 52739, Control_c, 0, 64, 52
2, 52757, Control_c, 0, 64, 50
2, 52766, Note_on_c, 0, 71, 47
2, 52777, Control_c, 0, 64, 45
2, 52799, Control_c, 0, 64, 38
2, 52800, Note_on_c, 0, 71, 0
2, 52805, Note_on_c, 0, 72, 64
2, 52818, Control_c, 0, 64, 19
2, 52837, Control_c, 0, 64, 0
2, 52855, Note_on_c, 0, 72, 0
2, 52888, Note_on_c, 0, 71, 63
2, 52958, Note_on_c, 0, 62, 32
2, 53183, Control_c, 0, 64, 15
2, 53203, Control_c, 0, 64, 47
2, 53221, Control_c, 0, 64, 59
2, 53222, Note_on_c, 0, 71, 0
2, 53231, Note_on_c, 0, 72, 61
2, 53240, Control_c, 0, 64, 63
2, 53243, Note_on_c, 0, 67, 37
2, 53260, Control_c, 0, 64, 64
2, 53279, Control_c, 0, 64, 66
2, 53298, Control_c, 0, 64, 69
2, 53299, Note_on_c, 0, 55, 0
2, 53317, Control_c, 0, 64, 76
2, 53336, Note_on_c, 0, 59, 0
2, 53337, Control_c, 0, 64, 83
2, 53355, Control_c, 0, 64, 89
2, 53375, Control_c, 0, 64, 92
2, 53394, Control_c, 0, 64, 93
2, 53469, Note_on_c, 0, 72, 0
2, 53490, Control_c, 0, 64, 92
2, 53505, Note_on_c, 0, 56, 55
2, 53506, Control_c, 0, 64, 91
2, 53522, Note_on_c, 0, 67, 0
2, 53526, Control_c, 0, 64, 88
2, 53545, Control_c, 0, 64, 85
2, 53564, Control_c, 0, 64, 81
2, 53575, Note_on_c, 0, 62, 0
2, 53583, Control_c, 0, 64, 78
2, 53599, Note_on_c, 0, 74, 56
2, 53603, Control_c, 0, 64, 74
2, 53621, Control_c, 0, 64, 71
2, 53641, Control_c, 0, 64, 68
2, 53660, Control_c, 0, 64, 65
2, 53668, Note_on_c, 0, 74, 0
2, 53680, Control_c, 0, 64, 63
2, 53698, Control_c, 0, 64, 61
2, 53705, Note_on_c, 0, 72, 58
2, 53718, Control_c, 0, 64, 60
2, 53737, Control_c, 0, 64, 59
2, 53747, Note_on_c, 0, 72, 0
2, 53757, Control_c, 0, 64, 58
2, 53775, Control_c, 0, 64, 57
2, 53788, Note_on_c, 0, 74, 59
2, 53795, Control_c, 0, 64, 56
2, 53802, Note_on_c, 0, 67, 52
2, 53814, Control_c, 0, 64, 55
2, 53833, Control_c, 0, 64, 54
2, 53837, Note_on_c, 0, 74, 0
2, 53851, Note_on_c, 0, 72, 62
2, 53852, Control_c, 0, 64, 53
2, 53872, Control_c, 0, 64, 53
2, 53893, Note_on_c, 0, 72, 0
2, 53931, Note_on_c, 0, 74, 56
2, 53976, Note_on_c, 0, 74, 0
2, 53981, Note_on_c, 0, 72, 66
2, 54021, Note_on_c, 0, 72, 0
2, 54052, Note_on_c, 0, 74, 64
2, 54080, Note_on_c, 0, 67, 0
2, 54082, Note_on_c, 0, 65, 44
2, 54111, Note_on_c, 0, 72, 69
2, 54113, Note_on_c, 0, 74, 0
2, 54160, Control_c, 0, 64, 52
2, 54255, Control_c, 0, 64, 53
2, 54275, Control_c, 0, 64, 53
2, 54294, Control_c, 0, 64, 54
2, 54313, Control_c, 0, 64, 56
2, 54332, Control_c, 0, 64, 57
2, 54352, Control_c, 0, 64, 59
2, 54359, Note_on_c, 0, 72, 0
2, 54371, Control_c, 0, 64, 61
2, 54380, Note_on_c, 0, 71, 63
2, 54387, Note_on_c, 0, 68, 45
2, 54389, Control_c, 0, 64, 62
2, 54409, Control_c, 0, 64, 63
2, 54420, Note_on_c, 0, 65, 0
2, 54428, Control_c, 0, 64, 65
2, 54447, Control_c, 0, 64, 68
2, 54466, Control_c, 0, 64, 72
2, 54486, Control_c, 0, 64, 78
2, 54505, Control_c, 0, 64, 86
2, 54524, Control_c, 0, 64, 91
2, 54536, Note_on_c, 0, 71, 0
2, 54539, Note_on_c, 0, 72, 66
2, 54543, Control_c, 0, 64, 94
2, 54563, Control_c, 0, 64, 97
2, 54581, Control_c, 0, 64, 98
2, 54601, Control_c, 0, 64, 98
2, 54678, Control_c, 0, 64, 98
2, 54697, Control_c, 0, 64, 97
2, 54717, Control_c, 0, 64, 95
2, 54735, Control_c, 0, 64, 93
2, 54755, Control_c, 0, 64, 90
2, 54774, Control_c, 0, 64, 86
2, 54793, Control_c, 0, 64, 82
2, 54809, Note_on_c, 0, 59, 48
2, 54812, Control_c, 0, 64, 78
2, 54821, Note_on_c, 0, 74, 57
2, 54828, Note_on_c, 0, 72, 0
2, 54832, Control_c, 0, 64, 75
2, 54851, Control_c, 0, 64, 72
2, 54869, Control_c, 0, 64, 70
2, 54889, Control_c, 0, 64, 68
2, 54908, Control_c, 0, 64, 65
2, 54927, Control_c, 0, 64, 63
2, 54946, Control_c, 0, 64, 59
2, 54966, Control_c, 0, 64, 55
2, 54971, Note_on_c, 0, 68, 0
2, 54985, Control_c, 0, 64, 50
2, 54986, Note_on_c, 0, 56, 0
2, 55004, Control_c, 0, 64, 45
2, 55023, Control_c, 0, 64, 42
2, 55043, Control_c, 0, 64, 39
2, 55061, Control_c, 0, 64, 37
2, 55081, Control_c, 0, 64, 36
2, 55100, Control_c, 0, 64, 35
2, 55120, Control_c, 0, 64, 35
2, 55194, Note_on_c, 0, 79, 61
2, 55312, Control_c, 0, 64, 35
2, 55331, Control_c, 0, 64, 36
2, 55349, Control_c, 0, 64, 37
2, 55369, Control_c, 0, 64, 39
2, 55388, Control_c, 0, 64, 43
2, 55407, Control_c, 0, 64, 46
2, 55426, Control_c, 0, 64, 49
2, 55446, Control_c, 0, 64, 52
2, 55465, Control_c, 0, 64, 54
2, 55484, Control_c, 0, 64, 57
2, 55503, Control_c, 0, 64, 59
2, 55507, Note_on_c, 0, 77, 65
2, 55510, Note_on_c, 0, 62, 44
2, 55523, Control_c, 0, 64, 61
2, 55541, Control_c, 0, 64, 63
2, 55561, Control_c, 0, 64, 65
2, 55580, Control_c, 0, 64, 68
2, 55586, Note_on_c, 0, 79, 0
2, 55600, Control_c, 0, 64, 73
2, 55618, Control_c, 0, 64, 79
2, 55638, Control_c, 0, 64, 86
2, 55658, Control_c, 0, 64, 92
2, 55678, Control_c, 0, 64, 97
2, 55697, Control_c, 0, 64, 105
2, 55717, Control_c, 0, 64, 127
2, 55789, Note_on_c, 0, 74, 0
2, 55830, Note_on_c, 0, 80, 76
2, 55880, Note_on_c, 0, 77, 0
2, 56140, Note_on_c, 0, 71, 76
2, 56164, Note_on_c, 0, 67, 49
2, 56235, Control_c, 0, 64, 106
2, 56254, Control_c, 0, 64, 94
2, 56274, Control_c, 0, 64, 83
2, 56292, Control_c, 0, 64, 73
2, 56312, Control_c, 0, 64, 65
2, 56312, Note_on_c, 0, 80, 0
2, 56331, Control_c, 0, 64, 55
2, 56350, Control_c, 0, 64, 38
2, 56369, Control_c, 0, 64, 29
2, 56408, Control_c, 0, 64, 27
2, 56426, Control_c, 0, 64, 21
2, 56446, Control_c, 0, 64, 0
2, 56457, Note_on_c, 0, 80, 72
2, 56711, Control_c, 0, 64, 17
2, 56730, Control_c, 0, 64, 29
2, 56749, Control_c, 0, 64, 41
2, 56769, Control_c, 0, 64, 49
2, 56786, Note_on_c, 0, 79, 76
2, 56788, Control_c, 0, 64, 55
2, 56801, Note_on_c, 0, 55, 45
2, 56801, Note_on_c, 0, 67, 0
2, 56807, Control_c, 0, 64, 57
2, 56826, Control_c, 0, 64, 58
2, 56846, Control_c, 0, 64, 58
2, 56864, Control_c, 0, 64, 60
2, 56879, Note_on_c, 0, 80, 0
2, 56884, Control_c, 0, 64, 61
2, 56898, Note_on_c, 0, 62, 0
2, 56903, Control_c, 0, 64, 62
2, 56923, Control_c, 0, 64, 63
2, 56941, Control_c, 0, 64, 63
2, 56960, Control_c, 0, 64, 64
2, 56980, Control_c, 0, 64, 66
2, 56997, Note_on_c, 0, 55, 0
2, 56999, Control_c, 0, 64, 70
2, 57003, Note_on_c, 0, 59, 0
2, 57018, Control_c, 0, 64, 76
2, 57037, Control_c, 0, 64, 90
2, 57057, Control_c, 0, 64, 112
2, 57075, Control_c, 0, 64, 127
2, 57109, Note_on_c, 0, 77, 75
2, 57176, Note_on_c, 0, 71, 0
2, 57177, Note_on_c, 0, 79, 0
2, 57479, Control_c, 0, 64, 104
2, 57495, Note_on_c, 0, 75, 72
2, 57498, Control_c, 0, 64, 87
2, 57502, Note_on_c, 0, 60, 52
2, 57507, Note_on_c, 0, 77, 0
2, 57517, Control_c, 0, 64, 75
2, 57537, Control_c, 0, 64, 67
2, 57555, Control_c, 0, 64, 61
2, 57575, Control_c, 0, 64, 52
2, 57597, Control_c, 0, 64, 42
2, 57616, Control_c, 0, 64, 39
2, 57674, Control_c, 0, 64, 38
2, 57712, Control_c, 0, 64, 38
2, 57732, Control_c, 0, 64, 37
2, 57809, Control_c, 0, 64, 38
2, 57827, Control_c, 0, 64, 41
2, 57847, Control_c, 0, 64, 46
2, 57866, Control_c, 0, 64, 53
2, 57880, Note_on_c, 0, 84, 82
2, 57885, Control_c, 0, 64, 58
2, 57904, Control_c, 0, 64, 62
2, 57924, Control_c, 0, 64, 64
2, 57943, Control_c, 0, 64, 67
2, 57961, Control_c, 0, 64, 72
2, 57981, Control_c, 0, 64, 85
2, 57995, Note_on_c, 0, 75, 0
2, 58000, Control_c, 0, 64, 115
2, 58020, Control_c, 0, 64, 127
2, 58195, Note_on_c, 0, 77, 54
2, 58199, Note_on_c, 0, 56, 57
2, 58212, Control_c, 0, 64, 107
2, 58230, Control_c, 0, 64, 83
2, 58250, Control_c, 0, 64, 69
2, 58269, Control_c, 0, 64, 61
2, 58289, Control_c, 0, 64, 51
2, 58307, Control_c, 0, 64, 53
2, 58327, Control_c, 0, 64, 58
2, 58346, Control_c, 0, 64, 61
2, 58365, Control_c, 0, 64, 63
2, 58384, Control_c, 0, 64, 65
2, 58404, Control_c, 0, 64, 68
2, 58423, Control_c, 0, 64, 76
2, 58441, Control_c, 0, 64, 88
2, 58461, Control_c, 0, 64, 104
2, 58480, Control_c, 0, 64, 127
2, 58507, Note_on_c, 0, 83, 84
2, 58530, Note_on_c, 0, 56, 0
2, 58584, Note_on_c, 0, 84, 0
2, 58880, Control_c, 0, 64, 119
2, 58885, Note_on_c, 0, 84, 81
2, 58890, Note_on_c, 0, 51, 50
2, 58900, Control_c, 0, 64, 104
2, 58919, Control_c, 0, 64, 94
2, 58938, Control_c, 0, 64, 86
2, 58938, Note_on_c, 0, 83, 0
2, 58957, Control_c, 0, 64, 76
2, 58977, Control_c, 0, 64, 70
2, 58995, Control_c, 0, 64, 64
2, 59015, Control_c, 0, 64, 56
2, 59034, Control_c, 0, 64, 43
2, 59054, Control_c, 0, 64, 32
2, 59072, Control_c, 0, 64, 31
2, 59130, Control_c, 0, 64, 33
2, 59149, Control_c, 0, 64, 40
2, 59169, Control_c, 0, 64, 48
2, 59188, Control_c, 0, 64, 55
2, 59207, Control_c, 0, 64, 59
2, 59226, Control_c, 0, 64, 62
2, 59240, Note_on_c, 0, 79, 74
2, 59246, Control_c, 0, 64, 64
2, 59265, Control_c, 0, 64, 66
2, 59284, Control_c, 0, 64, 71
2, 59303, Control_c, 0, 64, 80
2, 59322, Control_c, 0, 64, 93
2, 59341, Control_c, 0, 64, 104
2, 59355, Note_on_c, 0, 77, 0
2, 59360, Control_c, 0, 64, 112
2, 59380, Control_c, 0, 64, 127
2, 59495, Control_c, 0, 64, 112
2, 59515, Control_c, 0, 64, 99
2, 59535, Control_c, 0, 64, 86
2, 59546, Note_on_c, 0, 80, 76
2, 59549, Note_on_c, 0, 51, 0
2, 59553, Control_c, 0, 64, 73
2, 59562, Note_on_c, 0, 53, 52
2, 59573, Control_c, 0, 64, 65
2, 59592, Control_c, 0, 64, 57
2, 59611, Control_c, 0, 64, 42
2, 59613, Note_on_c, 0, 79, 0
2, 59630, Control_c, 0, 64, 35
2, 59650, Control_c, 0, 64, 40
2, 59669, Control_c, 0, 64, 47
2, 59688, Control_c, 0, 64, 54
2, 59707, Control_c, 0, 64, 59
2, 59727, Control_c, 0, 64, 61
2, 59745, Control_c, 0, 64, 63
2, 59765, Control_c, 0, 64, 65
2, 59784, Control_c, 0, 64, 69
2, 59804, Control_c, 0, 64, 75
2, 59822, Control_c, 0, 64, 86
2, 59841, Control_c, 0, 64, 101
2, 59861, Control_c, 0, 64, 127
2, 59871, Note_on_c, 0, 77, 74
2, 59933, Note_on_c, 0, 84, 0
2, 59982, Note_on_c, 0, 80, 0
2, 60009, Note_on_c, 0, 77, 0
2, 60286, Note_on_c, 0, 75, 72
2, 60315, Note_on_c, 0, 55, 43
2, 60371, Note_on_c, 0, 53, 0
2, 60379, Control_c, 0, 64, 112
2, 60398, Control_c, 0, 64, 93
2, 60418, Control_c, 0, 64, 82
2, 60436, Control_c, 0, 64, 74
2, 60454, Control_c, 0, 64, 69
2, 60473, Control_c, 0, 64, 64
2, 60493, Control_c, 0, 64, 61
2, 60511, Control_c, 0, 64, 57
2, 60531, Control_c, 0, 64, 51
2, 60550, Control_c, 0, 64, 40
2, 60570, Control_c, 0, 64, 0
2, 60715, Note_on_c, 0, 71, 57
2, 61044, Note_on_c, 0, 72, 64
2, 61141, Note_on_c, 0, 71, 0
2, 61370, Note_on_c, 0, 66, 59
2, 61459, Note_on_c, 0, 72, 0
2, 61682, Note_on_c, 0, 67, 49
2, 61732, Note_on_c, 0, 66, 0
2, 61996, Note_on_c, 0, 72, 59
2, 62095, Note_on_c, 0, 75, 0
2, 62370, Note_on_c, 0, 74, 59
2, 62396, Note_on_c, 0, 59, 32
2, 62399, Note_on_c, 0, 72, 0
2, 62416, Note_on_c, 0, 60, 0
2, 62432, Control_c, 0, 64, 21
2, 62452, Control_c, 0, 64, 38
2, 62471, Control_c, 0, 64, 51
2, 62490, Control_c, 0, 64, 60
2, 62509, Control_c, 0, 64, 64
2, 62529, Control_c, 0, 64, 67
2, 62548, Control_c, 0, 64, 73
2, 62567, Control_c, 0, 64, 81
2, 62586, Control_c, 0, 64, 91
2, 62606, Control_c, 0, 64, 101
2, 62625, Control_c, 0, 64, 109
2, 62644, Control_c, 0, 64, 127
2, 62679, Note_on_c, 0, 59, 0
2, 62717, Note_on_c, 0, 55, 0
2, 62781, Note_on_c, 0, 65, 44
2, 62915, Note_on_c, 0, 67, 0
2, 62937, Note_on_c, 0, 74, 0
2, 63162, Control_c, 0, 64, 112
2, 63176, Note_on_c, 0, 48, 42
2, 63181, Control_c, 0, 64, 103
2, 63186, Note_on_c, 0, 72, 63
2, 63191, Note_on_c, 0, 60, 36
2, 63200, Control_c, 0, 64, 95
2, 63220, Control_c, 0, 64, 87
2, 63223, Note_on_c, 0, 65, 0
2, 63239, Control_c, 0, 64, 75
2, 63258, Control_c, 0, 64, 66
2, 63277, Control_c, 0, 64, 58
2, 63297, Control_c, 0, 64, 40
2, 63315, Control_c, 0, 64, 0
2, 63450, Control_c, 0, 64, 21
2, 63469, Control_c, 0, 64, 36
2, 63489, Control_c, 0, 64, 47
2, 63508, Control_c, 0, 64, 55
2, 63527, Control_c, 0, 64, 58
2, 63546, Control_c, 0, 64, 60
2, 63566, Control_c, 0, 64, 62
2, 63585, Control_c, 0, 64, 64
2, 63604, Control_c, 0, 64, 66
2, 63615, Note_on_c, 0, 65, 41
2, 63623, Control_c, 0, 64, 69
2, 63642, Control_c, 0, 64, 73
2, 63661, Control_c, 0, 64, 78
2, 63680, Control_c, 0, 64, 81
2, 63700, Control_c, 0, 64, 83
2, 63719, Control_c, 0, 64, 84
2, 63834, Control_c, 0, 64, 83
2, 63854, Control_c, 0, 64, 82
2, 63872, Control_c, 0, 64, 80
2, 63892, Control_c, 0, 64, 78
2, 63911, Control_c, 0, 64, 75
2, 63930, Control_c, 0, 64, 72
2, 63938, Note_on_c, 0, 64, 48
2, 63940, Note_on_c, 0, 65, 0
2, 63949, Control_c, 0, 64, 69
2, 63950, Note_on_c, 0, 55, 37
2, 63969, Control_c, 0, 64, 65
2, 63983, Note_on_c, 0, 60, 0
2, 63988, Control_c, 0, 64, 60
2, 64007, Control_c, 0, 64, 42
2, 64026, Control_c, 0, 64, 0
2, 64237, Control_c, 0, 64, 11
2, 64257, Control_c, 0, 64, 38
2, 64272, Note_on_c, 0, 67, 46
2, 64275, Control_c, 0, 64, 53
2, 64295, Control_c, 0, 64, 59
2, 64315, Control_c, 0, 64, 62
2, 64331, Note_on_c, 0, 64, 0
2, 64335, Control_c, 0, 64, 63
2, 64353, Control_c, 0, 64, 65
2, 64373, Control_c, 0, 64, 68
2, 64392, Control_c, 0, 64, 72
2, 64411, Control_c, 0, 64, 78
2, 64430, Control_c, 0, 64, 81
2, 64450, Control_c, 0, 64, 82
2, 64469, Control_c, 0, 64, 82
2, 64565, Control_c, 0, 64, 81
2, 64584, Control_c, 0, 64, 80
2, 64603, Control_c, 0, 64, 77
2, 64622, Control_c, 0, 64, 75
2, 64640, Note_on_c, 0, 60, 48
2, 64641, Control_c, 0, 64, 73
2, 64661, Control_c, 0, 64, 72
2, 64679, Control_c, 0, 64, 71
2, 64690, Note_on_c, 0, 67, 0
2, 64718, Control_c, 0, 64, 71
2, 64738, Control_c, 0, 64, 70
2, 64756, Control_c, 0, 64, 69
2, 64776, Control_c, 0, 64, 69
2, 64833, Control_c, 0, 64, 68
2, 64853, Control_c, 0, 64, 68
2, 64872, Control_c, 0, 64, 67
2, 64891, Control_c, 0, 64, 67
2, 64910, Control_c, 0, 64, 66
2, 64930, Control_c, 0, 64, 66
2, 64949, Control_c, 0, 64, 65
2, 64959, Note_on_c, 0, 53, 42
2, 64968, Control_c, 0, 64, 65
2, 64987, Control_c, 0, 64, 64
2, 64988, Note_on_c, 0, 55, 0
2, 65007, Control_c, 0, 64, 63
2, 65025, Control_c, 0, 64, 61
2, 65045, Control_c, 0, 64, 60
2, 65064, Control_c, 0, 64, 58
2, 65083, Control_c, 0, 64, 58
2, 65102, Control_c, 0, 64, 57
2, 65121, Control_c, 0, 64, 57
2, 65141, Control_c, 0, 64, 56
2, 65159, Control_c, 0, 64, 55
2, 65179, Control_c, 0, 64, 53
2, 65198, Control_c, 0, 64, 51
2, 65218, Control_c, 0, 64, 48
2, 65236, Control_c, 0, 64, 46
2, 65255, Control_c, 0, 64, 43
2, 65272, Control_c, 0, 64, 40
2, 65292, Control_c, 0, 64, 35
2, 65310, Control_c, 0, 64, 30
2, 65317, Note_on_c, 0, 53, 0
2, 65330, Control_c, 0, 64, 25
2, 65335, Note_on_c, 0, 52, 43
2, 65349, Control_c, 0, 64, 20
2, 65369, Control_c, 0, 64, 13
2, 65387, Control_c, 0, 64, 0
2, 65560, Control_c, 0, 64, 24
2, 65580, Control_c, 0, 64, 35
2, 65598, Control_c, 0, 64, 44
2, 65617, Note_on_c, 0, 60, 0
2, 65618, Control_c, 0, 64, 50
2, 65637, Control_c, 0, 64, 54
2, 65656, Control_c, 0, 64, 57
2, 65675, Control_c, 0, 64, 59
2, 65695, Control_c, 0, 64, 61
2, 65714, Control_c, 0, 64, 63
2, 65733, Control_c, 0, 64, 64
2, 65752, Control_c, 0, 64, 67
2, 65760, Note_on_c, 0, 55, 40
2, 65772, Control_c, 0, 64, 72
2, 65790, Control_c, 0, 64, 78
2, 65810, Control_c, 0, 64, 85
2, 65829, Control_c, 0, 64, 89
2, 65849, Control_c, 0, 64, 92
2, 65853, Note_on_c, 0, 48, 0
2, 65867, Control_c, 0, 64, 97
2, 65887, Control_c, 0, 64, 106
2, 65898, Note_on_c, 0, 72, 0
2, 65899, Note_on_c, 0, 52, 0
2, 65906, Control_c, 0, 64, 127
2, 66233, Control_c, 0, 64, 121
2, 66253, Control_c, 0, 64, 111
2, 66271, Control_c, 0, 64, 105
2, 66285, Note_on_c, 0, 45, 41
2, 66291, Control_c, 0, 64, 100
2, 66310, Control_c, 0, 64, 95
2, 66330, Control_c, 0, 64, 90
2, 66348, Control_c, 0, 64, 86
2, 66368, Control_c, 0, 64, 82
2, 66387, Control_c, 0, 64, 79
2, 66398, Note_on_c, 0, 65, 46
2, 66406, Control_c, 0, 64, 76
2, 66425, Control_c, 0, 64, 72
2, 66445, Control_c, 0, 64, 66
2, 66464, Control_c, 0, 64, 61
2, 66482, Control_c, 0, 64, 49
2, 66502, Control_c, 0, 64, 21
2, 66521, Control_c, 0, 64, 0
2, 66570, Note_on_c, 0, 55, 0
2, 66713, Control_c, 0, 64, 18
2, 66733, Control_c, 0, 64, 31
2, 66751, Control_c, 0, 64, 41
2, 66771, Control_c, 0, 64, 47
2, 66790, Control_c, 0, 64, 52
2, 66810, Control_c, 0, 64, 54
2, 66825, Note_on_c, 0, 69, 51
2, 66828, Control_c, 0, 64, 56
2, 66848, Control_c, 0, 64, 58
2, 66867, Control_c, 0, 64, 59
2, 66886, Control_c, 0, 64, 61
2, 66905, Control_c, 0, 64, 62
2, 66925, Control_c, 0, 64, 63
2, 66944, Control_c, 0, 64, 65
2, 66962, Control_c, 0, 64, 67
2, 66982, Control_c, 0, 64, 69
2, 67001, Control_c, 0, 64, 72
2, 67020, Control_c, 0, 64, 75
2, 67039, Control_c, 0, 64, 79
2, 67059, Control_c, 0, 64, 82
2, 67078, Control_c, 0, 64, 85
2, 67097, Control_c, 0, 64, 86
2, 67116, Control_c, 0, 64, 88
2, 67136, Control_c, 0, 64, 90
2, 67137, Note_on_c, 0, 72, 64
2, 67154, Control_c, 0, 64, 92
2, 67155, Note_on_c, 0, 53, 41
2, 67174, Control_c, 0, 64, 94
2, 67194, Control_c, 0, 64, 95
2, 67214, Control_c, 0, 64, 95
2, 67315, Note_on_c, 0, 45, 0
2, 67406, Note_on_c, 0, 65, 0
2, 67446, Note_on_c, 0, 75, 70
2, 67462, Note_on_c, 0, 72, 0
2, 67485, Note_on_c, 0, 69, 0
2, 67597, Control_c, 0, 64, 95
2, 67617, Control_c, 0, 64, 93
2, 67635, Control_c, 0, 64, 92
2, 67655, Control_c, 0, 64, 91
2, 67674, Control_c, 0, 64, 89
2, 67694, Control_c, 0, 64, 87
2, 67712, Control_c, 0, 64, 84
2, 67732, Control_c, 0, 64, 81
2, 67751, Control_c, 0, 64, 77
2, 67766, Note_on_c, 0, 69, 64
2, 67770, Control_c, 0, 64, 73
2, 67770, Note_on_c, 0, 41, 41
2, 67789, Control_c, 0, 64, 69
2, 67809, Control_c, 0, 64, 66
2, 67828, Control_c, 0, 64, 63
2, 67847, Control_c, 0, 64, 59
2, 67866, Control_c, 0, 64, 55
2, 67885, Note_on_c, 0, 53, 0
2, 67886, Control_c, 0, 64, 51
2, 67905, Control_c, 0, 64, 45
2, 67923, Control_c, 0, 64, 40
2, 67943, Control_c, 0, 64, 34
2, 67962, Control_c, 0, 64, 27
2, 67981, Control_c, 0, 64, 21
2, 68000, Control_c, 0, 64, 19
2, 68020, Control_c, 0, 64, 18
2, 68094, Note_on_c, 0, 78, 67
2, 68151, Note_on_c, 0, 75, 0
2, 68307, Control_c, 0, 64, 19
2, 68326, Control_c, 0, 64, 20
2, 68345, Control_c, 0, 64, 21
2, 68365, Control_c, 0, 64, 24
2, 68384, Control_c, 0, 64, 29
2, 68398, Note_on_c, 0, 72, 63
2, 68402, Control_c, 0, 64, 34
2, 68415, Note_on_c, 0, 53, 38
2, 68422, Control_c, 0, 64, 41
2, 68441, Control_c, 0, 64, 48
2, 68460, Control_c, 0, 64, 55
2, 68479, Control_c, 0, 64, 58
2, 68499, Control_c, 0, 64, 61
2, 68518, Control_c, 0, 64, 64
2, 68537, Control_c, 0, 64, 67
2, 68556, Control_c, 0, 64, 71
2, 68561, Note_on_c, 0, 53, 0
2, 68565, Note_on_c, 0, 41, 0
2, 68576, Control_c, 0, 64, 76
2, 68594, Control_c, 0, 64, 83
2, 68614, Control_c, 0, 64, 88
2, 68633, Control_c, 0, 64, 92
2, 68653, Control_c, 0, 64, 95
2, 68671, Control_c, 0, 64, 97
2, 68691, Control_c, 0, 64, 99
2, 68710, Control_c, 0, 64, 100
2, 68728, Note_on_c, 0, 75, 66
2, 68730, Control_c, 0, 64, 101
2, 68748, Control_c, 0, 64, 102
2, 68768, Control_c, 0, 64, 102
2, 68784, Note_on_c, 0, 78, 0
2, 68813, Note_on_c, 0, 69, 0
2, 68865, Note_on_c, 0, 72, 0
2, 69056, Control_c, 0, 64, 101
2, 69074, Control_c, 0, 64, 99
2, 69094, Control_c, 0, 64, 96
2, 69114, Control_c, 0, 64, 92
2, 69124, Note_on_c, 0, 73, 65
2, 69134, Control_c, 0, 64, 89
2, 69138, Note_on_c, 0, 46, 45
2, 69152, Control_c, 0, 64, 84
2, 69159, Note_on_c, 0, 75, 0
2, 69172, Control_c, 0, 64, 80
2, 69191, Control_c, 0, 64, 76
2, 69210, Control_c, 0, 64, 73
2, 69229, Control_c, 0, 64, 69
2, 69249, Control_c, 0, 64, 66
2, 69268, Control_c, 0, 64, 63
2, 69287, Control_c, 0, 64, 59
2, 69306, Control_c, 0, 64, 56
2, 69326, Control_c, 0, 64, 54
2, 69345, Control_c, 0, 64, 52
2, 69363, Control_c, 0, 64, 50
2, 69383, Control_c, 0, 64, 46
2, 69402, Control_c, 0, 64, 42
2, 69421, Control_c, 0, 64, 36
2, 69440, Control_c, 0, 64, 31
2, 69460, Control_c, 0, 64, 28
2, 69479, Control_c, 0, 64, 25
2, 69498, Control_c, 0, 64, 22
2, 69508, Note_on_c, 0, 49, 48
2, 69517, Control_c, 0, 64, 21
2, 69594, Control_c, 0, 64, 25
2, 69614, Control_c, 0, 64, 31
2, 69632, Control_c, 0, 64, 37
2, 69652, Control_c, 0, 64, 43
2, 69671, Control_c, 0, 64, 48
2, 69690, Control_c, 0, 64, 53
2, 69709, Control_c, 0, 64, 56
2, 69729, Control_c, 0, 64, 58
2, 69748, Control_c, 0, 64, 60
2, 69767, Control_c, 0, 64, 61
2, 69786, Control_c, 0, 64, 64
2, 69806, Control_c, 0, 64, 66
2, 69815, Note_on_c, 0, 70, 64
2, 69825, Control_c, 0, 64, 70
2, 69843, Control_c, 0, 64, 74
2, 69847, Note_on_c, 0, 53, 43
2, 69863, Control_c, 0, 64, 81
2, 69882, Control_c, 0, 64, 86
2, 69901, Control_c, 0, 64, 90
2, 69920, Control_c, 0, 64, 92
2, 69940, Control_c, 0, 64, 95
2, 69959, Control_c, 0, 64, 99
2, 69978, Control_c, 0, 64, 102
2, 69997, Control_c, 0, 64, 104
2, 70054, Control_c, 0, 64, 105
2, 70115, Note_on_c, 0, 70, 0
2, 70139, Note_on_c, 0, 46, 0
2, 70147, Note_on_c, 0, 58, 53
2, 70195, Note_on_c, 0, 49, 0
2, 70265, Control_c, 0, 64, 104
2, 70284, Control_c, 0, 64, 104
2, 70304, Control_c, 0, 64, 102
2, 70322, Control_c, 0, 64, 101
2, 70342, Control_c, 0, 64, 100
2, 70361, Control_c, 0, 64, 99
2, 70380, Control_c, 0, 64, 98
2, 70399, Control_c, 0, 64, 95
2, 70419, Control_c, 0, 64, 92
2, 70438, Control_c, 0, 64, 88
2, 70447, Note_on_c, 0, 48, 49
2, 70453, Note_on_c, 0, 64, 62
2, 70457, Control_c, 0, 64, 83
2, 70459, Note_on_c, 0, 58, 0
2, 70476, Control_c, 0, 64, 76
2, 70496, Control_c, 0, 64, 70
2, 70497, Note_on_c, 0, 53, 0
2, 70514, Control_c, 0, 64, 64
2, 70534, Control_c, 0, 64, 57
2, 70553, Control_c, 0, 64, 45
2, 70573, Control_c, 0, 64, 26
2, 70591, Control_c, 0, 64, 11
2, 70611, Control_c, 0, 64, 0
2, 70735, Note_on_c, 0, 73, 0
2, 70764, Control_c, 0, 64, 26
2, 70767, Note_on_c, 0, 58, 48
2, 70784, Control_c, 0, 64, 43
2, 70802, Control_c, 0, 64, 54
2, 70822, Control_c, 0, 64, 59
2, 70841, Control_c, 0, 64, 61
2, 70860, Control_c, 0, 64, 64
2, 70879, Control_c, 0, 64, 66
2, 70899, Control_c, 0, 64, 70
2, 70918, Control_c, 0, 64, 76
2, 70937, Control_c, 0, 64, 85
2, 70956, Control_c, 0, 64, 90
2, 70976, Control_c, 0, 64, 91
2, 71057, Note_on_c, 0, 58, 0
2, 71071, Control_c, 0, 64, 91
2, 71091, Control_c, 0, 64, 89
2, 71100, Note_on_c, 0, 72, 69
2, 71110, Control_c, 0, 64, 87
2, 71120, Note_on_c, 0, 56, 44
2, 71130, Control_c, 0, 64, 82
2, 71148, Control_c, 0, 64, 75
2, 71168, Control_c, 0, 64, 67
2, 71187, Control_c, 0, 64, 61
2, 71206, Control_c, 0, 64, 49
2, 71225, Control_c, 0, 64, 32
2, 71244, Control_c, 0, 64, 15
2, 71321, Control_c, 0, 64, 25
2, 71340, Control_c, 0, 64, 39
2, 71359, Control_c, 0, 64, 50
2, 71379, Control_c, 0, 64, 57
2, 71398, Control_c, 0, 64, 61
2, 71417, Control_c, 0, 64, 62
2, 71422, Note_on_c, 0, 56, 0
2, 71433, Note_on_c, 0, 64, 0
2, 71436, Control_c, 0, 64, 64
2, 71447, Note_on_c, 0, 60, 45
2, 71456, Control_c, 0, 64, 67
2, 71474, Control_c, 0, 64, 72
2, 71493, Note_on_c, 0, 48, 0
2, 71494, Control_c, 0, 64, 78
2, 71513, Control_c, 0, 64, 86
2, 71533, Control_c, 0, 64, 93
2, 71533, Note_on_c, 0, 60, 0
2, 71551, Control_c, 0, 64, 96
2, 71571, Control_c, 0, 64, 100
2, 71590, Control_c, 0, 64, 103
2, 71610, Control_c, 0, 64, 107
2, 71628, Control_c, 0, 64, 107
2, 71705, Control_c, 0, 64, 107
2, 71724, Control_c, 0, 64, 105
2, 71744, Control_c, 0, 64, 102
2, 71762, Control_c, 0, 64, 98
2, 71782, Control_c, 0, 64, 95
2, 71801, Control_c, 0, 64, 91
2, 71820, Control_c, 0, 64, 87
2, 71839, Control_c, 0, 64, 83
2, 71840, Note_on_c, 0, 65, 49
2, 71846, Note_on_c, 0, 50, 39
2, 71859, Control_c, 0, 64, 78
2, 71864, Note_on_c, 0, 53, 40
2, 71878, Control_c, 0, 64, 73
2, 71897, Control_c, 0, 64, 67
2, 71916, Control_c, 0, 64, 62
2, 71936, Control_c, 0, 64, 55
2, 71954, Control_c, 0, 64, 41
2, 71974, Control_c, 0, 64, 20
2, 71994, Control_c, 0, 64, 0
2, 72090, Control_c, 0, 64, 23
2, 72109, Control_c, 0, 64, 37
2, 72129, Control_c, 0, 64, 48
2, 72148, Control_c, 0, 64, 56
2, 72156, Note_on_c, 0, 70, 63
2, 72167, Control_c, 0, 64, 60
2, 72186, Control_c, 0, 64, 62
2, 72206, Control_c, 0, 64, 64
2, 72225, Control_c, 0, 64, 67
2, 72243, Control_c, 0, 64, 71
2, 72263, Control_c, 0, 64, 78
2, 72282, Control_c, 0, 64, 85
2, 72301, Control_c, 0, 64, 91
2, 72320, Control_c, 0, 64, 91
2, 72397, Control_c, 0, 64, 91
2, 72417, Control_c, 0, 64, 90
2, 72435, Control_c, 0, 64, 88
2, 72455, Control_c, 0, 64, 85
2, 72474, Control_c, 0, 64, 78
2, 72480, Note_on_c, 0, 67, 60
2, 72494, Control_c, 0, 64, 70
2, 72494, Note_on_c, 0, 53, 0
2, 72505, Note_on_c, 0, 52, 48
2, 72510, Note_on_c, 0, 55, 37
2, 72510, Note_on_c, 0, 72, 0
2, 72512, Control_c, 0, 64, 63
2, 72532, Control_c, 0, 64, 51
2, 72550, Note_on_c, 0, 50, 0
2, 72551, Control_c, 0, 64, 17
2, 72570, Control_c, 0, 64, 0
2, 72579, Note_on_c, 0, 70, 0
2, 72635, Note_on_c, 0, 65, 0
2, 72666, Control_c, 0, 64, 21
2, 72686, Control_c, 0, 64, 40
2, 72705, Control_c, 0, 64, 52
2, 72723, Control_c, 0, 64, 59
2, 72743, Control_c, 0, 64, 62
2, 72762, Control_c, 0, 64, 63
2, 72781, Control_c, 0, 64, 65
2, 72800, Control_c, 0, 64, 68
2, 72812, Note_on_c, 0, 64, 63
2, 72820, Control_c, 0, 64, 73
2, 72839, Control_c, 0, 64, 80
2, 72858, Control_c, 0, 64, 90
2, 72877, Control_c, 0, 64, 95
2, 72897, Control_c, 0, 64, 96
2, 72915, Control_c, 0, 64, 97
2, 72933, Control_c, 0, 64, 98
2, 73050, Control_c, 0, 64, 97
2, 73068, Control_c, 0, 64, 95
2, 73088, Control_c, 0, 64, 92
2, 73107, Control_c, 0, 64, 88
2, 73126, Control_c, 0, 64, 83
2, 73128, Note_on_c, 0, 67, 0
2, 73145, Control_c, 0, 64, 78
2, 73164, Control_c, 0, 64, 74
2, 73184, Control_c, 0, 64, 70
2, 73190, Note_on_c, 0, 53, 40
2, 73202, Control_c, 0, 64, 67
2, 73208, Note_on_c, 0, 60, 54
2, 73222, Control_c, 0, 64, 64
2, 73226, Note_on_c, 0, 56, 42
2, 73231, Note_on_c, 0, 64, 0
2, 73241, Control_c, 0, 64, 62
2, 73260, Control_c, 0, 64, 58
2, 73279, Control_c, 0, 64, 54
2, 73299, Control_c, 0, 64, 49
2, 73318, Control_c, 0, 64, 42
2, 73337, Control_c, 0, 64, 35
2, 73344, Note_on_c, 0, 52, 0
2, 73356, Control_c, 0, 64, 27
2, 73376, Control_c, 0, 64, 19
2, 73394, Control_c, 0, 64, 0
2, 73407, Note_on_c, 0, 55, 0
2, 73548, Note_on_c, 0, 64, 60
2, 73598, Note_on_c, 0, 60, 0
2, 73874, Note_on_c, 0, 65, 63
2, 73916, Note_on_c, 0, 64, 0
2, 74068, Control_c, 0, 64, 15
2, 74087, Control_c, 0, 64, 25
2, 74106, Control_c, 0, 64, 32
2, 74126, Control_c, 0, 64, 39
2, 74145, Control_c, 0, 64, 46
2, 74163, Control_c, 0, 64, 52
2, 74183, Control_c, 0, 64, 56
2, 74189, Note_on_c, 0, 71, 71
2, 74202, Control_c, 0, 64, 59
2, 74221, Control_c, 0, 64, 62
2, 74240, Control_c, 0, 64, 64
2, 74260, Control_c, 0, 64, 67
2, 74279, Control_c, 0, 64, 70
2, 74298, Control_c, 0, 64, 77
2, 74317, Control_c, 0, 64, 86
2, 74337, Control_c, 0, 64, 98
2, 74355, Control_c, 0, 64, 118
2, 74375, Control_c, 0, 64, 127
2, 74558, Note_on_c, 0, 65, 0
2, 74603, Note_on_c, 0, 55, 44
2, 74607, Note_on_c, 0, 72, 67
2, 74611, Note_on_c, 0, 48, 42
2, 74625, Control_c, 0, 64, 117
2, 74643, Control_c, 0, 64, 99
2, 74663, Control_c, 0, 64, 89
2, 74682, Control_c, 0, 64, 80
2, 74701, Control_c, 0, 64, 73
2, 74720, Control_c, 0, 64, 68
2, 74738, Note_on_c, 0, 71, 0
2, 74740, Control_c, 0, 64, 64
2, 74747, Note_on_c, 0, 56, 0
2, 74759, Control_c, 0, 64, 59
2, 74761, Note_on_c, 0, 53, 0
2, 74778, Control_c, 0, 64, 54
2, 74797, Control_c, 0, 64, 51
2, 74817, Control_c, 0, 64, 49
2, 74835, Control_c, 0, 64, 47
2, 74853, Control_c, 0, 64, 46
2, 74874, Control_c, 0, 64, 44
2, 74894, Control_c, 0, 64, 41
2, 74912, Control_c, 0, 64, 39
2, 74932, Control_c, 0, 64, 37
2, 74951, Control_c, 0, 64, 36
2, 74970, Control_c, 0, 64, 34
2, 74989, Control_c, 0, 64, 32
2, 75009, Control_c, 0, 64, 31
2, 75028, Control_c, 0, 64, 31
2, 75047, Control_c, 0, 64, 29
2, 75077, Note_on_c, 0, 65, 47
2, 75435, Note_on_c, 0, 64, 51
2, 75489, Control_c, 0, 64, 30
2, 75496, Note_on_c, 0, 65, 0
2, 75765, Note_on_c, 0, 67, 52
2, 75794, Note_on_c, 0, 72, 0
2, 75967, Control_c, 0, 64, 31
2, 76065, Note_on_c, 0, 70, 61
2, 76139, Note_on_c, 0, 67, 0
2, 76389, Control_c, 0, 64, 32
2, 76405, Note_on_c, 0, 73, 61
2, 76409, Control_c, 0, 64, 33
2, 76427, Control_c, 0, 64, 35
2, 76447, Control_c, 0, 64, 36
2, 76466, Control_c, 0, 64, 37
2, 76479, Note_on_c, 0, 70, 0
2, 76484, Control_c, 0, 64, 40
2, 76504, Control_c, 0, 64, 42
2, 76523, Control_c, 0, 64, 44
2, 76543, Control_c, 0, 64, 46
2, 76561, Control_c, 0, 64, 47
2, 76581, Control_c, 0, 64, 49
2, 76600, Control_c, 0, 64, 51
2, 76620, Control_c, 0, 64, 54
2, 76638, Control_c, 0, 64, 57
2, 76658, Control_c, 0, 64, 59
2, 76677, Control_c, 0, 64, 60
2, 76696, Control_c, 0, 64, 61
2, 76715, Control_c, 0, 64, 63
2, 76732, Note_on_c, 0, 72, 67
2, 76735, Control_c, 0, 64, 64
2, 76754, Control_c, 0, 64, 65
2, 76773, Control_c, 0, 64, 66
2, 76792, Control_c, 0, 64, 67
2, 76812, Control_c, 0, 64, 68
2, 76830, Control_c, 0, 64, 70
2, 76850, Control_c, 0, 64, 74
2, 76869, Control_c, 0, 64, 78
2, 76889, Control_c, 0, 64, 80
2, 76893, Note_on_c, 0, 73, 0
2, 76907, Control_c, 0, 64, 82
2, 76984, Control_c, 0, 64, 81
2, 77003, Control_c, 0, 64, 81
2, 77023, Control_c, 0, 64, 80
2, 77041, Control_c, 0, 64, 80
2, 77043, Note_on_c, 0, 70, 71
2, 77054, Note_on_c, 0, 49, 56
2, 77061, Control_c, 0, 64, 79
2, 77091, Note_on_c, 0, 48, 0
2, 77118, Control_c, 0, 64, 80
2, 77138, Control_c, 0, 64, 80
2, 77150, Note_on_c, 0, 64, 0
2, 77176, Control_c, 0, 64, 81
2, 77292, Control_c, 0, 64, 80
2, 77322, Note_on_c, 0, 55, 0
2, 77349, Control_c, 0, 64, 80
2, 77369, Control_c, 0, 64, 79
2, 77387, Control_c, 0, 64, 79
2, 77391, Note_on_c, 0, 72, 0
2, 77407, Control_c, 0, 64, 78
2, 77426, Control_c, 0, 64, 77
2, 77444, Control_c, 0, 64, 76
2, 77464, Control_c, 0, 64, 76
2, 77470, Note_on_c, 0, 49, 0
2, 77483, Control_c, 0, 64, 75
2, 77496, Note_on_c, 0, 69, 66
2, 77501, Note_on_c, 0, 51, 47
2, 77503, Control_c, 0, 64, 74
2, 77505, Note_on_c, 0, 53, 47
2, 77521, Control_c, 0, 64, 72
2, 77541, Control_c, 0, 64, 68
2, 77557, Note_on_c, 0, 70, 0
2, 77560, Control_c, 0, 64, 65
2, 77580, Control_c, 0, 64, 61
2, 77598, Control_c, 0, 64, 54
2, 77618, Control_c, 0, 64, 44
2, 77637, Control_c, 0, 64, 38
2, 77656, Control_c, 0, 64, 37
2, 77675, Control_c, 0, 64, 40
2, 77695, Control_c, 0, 64, 47
2, 77714, Control_c, 0, 64, 55
2, 77734, Control_c, 0, 64, 59
2, 77754, Control_c, 0, 64, 62
2, 77774, Control_c, 0, 64, 64
2, 77792, Control_c, 0, 64, 66
2, 77812, Control_c, 0, 64, 68
2, 77831, Control_c, 0, 64, 73
2, 77835, Note_on_c, 0, 53, 0
2, 77850, Control_c, 0, 64, 79
2, 77850, Note_on_c, 0, 65, 64
2, 77869, Control_c, 0, 64, 88
2, 77880, Note_on_c, 0, 69, 0
2, 77889, Control_c, 0, 64, 97
2, 77908, Control_c, 0, 64, 104
2, 77927, Control_c, 0, 64, 107
2, 77946, Control_c, 0, 64, 109
2, 77965, Control_c, 0, 64, 110
2, 78061, Control_c, 0, 64, 109
2, 78080, Control_c, 0, 64, 106
2, 78100, Control_c, 0, 64, 101
2, 78119, Control_c, 0, 64, 95
2, 78138, Control_c, 0, 64, 86
2, 78157, Control_c, 0, 64, 75
2, 78158, Note_on_c, 0, 69, 76
2, 78164, Note_on_c, 0, 63, 55
2, 78177, Control_c, 0, 64, 65
2, 78195, Control_c, 0, 64, 50
2, 78215, Control_c, 0, 64, 0
2, 78221, Note_on_c, 0, 65, 0
2, 78311, Control_c, 0, 64, 32
2, 78330, Control_c, 0, 64, 51
2, 78349, Control_c, 0, 64, 61
2, 78369, Control_c, 0, 64, 64
2, 78388, Control_c, 0, 64, 66
2, 78391, Note_on_c, 0, 51, 0
2, 78407, Control_c, 0, 64, 69
2, 78426, Control_c, 0, 64, 74
2, 78445, Control_c, 0, 64, 85
2, 78464, Note_on_c, 0, 72, 80
2, 78465, Control_c, 0, 64, 100
2, 78483, Control_c, 0, 64, 127
2, 78638, Note_on_c, 0, 69, 0
2, 78848, Control_c, 0, 64, 110
2, 78855, Note_on_c, 0, 77, 79
2, 78867, Control_c, 0, 64, 99
2, 78883, Note_on_c, 0, 61, 51
2, 78885, Control_c, 0, 64, 89
2, 78905, Control_c, 0, 64, 78
2, 78906, Note_on_c, 0, 72, 0
2, 78924, Control_c, 0, 64, 68
2, 78944, Control_c, 0, 64, 57
2, 78962, Control_c, 0, 64, 0
2, 79058, Note_on_c, 0, 63, 0
2, 79116, Control_c, 0, 64, 34
2, 79136, Control_c, 0, 64, 54
2, 79155, Control_c, 0, 64, 61
2, 79174, Control_c, 0, 64, 64
2, 79193, Control_c, 0, 64, 66
2, 79213, Control_c, 0, 64, 68
2, 79231, Control_c, 0, 64, 73
2, 79251, Control_c, 0, 64, 83
2, 79266, Note_on_c, 0, 70, 57
2, 79270, Control_c, 0, 64, 95
2, 79290, Control_c, 0, 64, 106
2, 79308, Control_c, 0, 64, 116
2, 79328, Control_c, 0, 64, 127
2, 79577, Control_c, 0, 64, 110
2, 79596, Control_c, 0, 64, 99
2, 79604, Note_on_c, 0, 69, 60
2, 79610, Note_on_c, 0, 70, 0
2, 79616, Control_c, 0, 64, 89
2, 79622, Note_on_c, 0, 60, 44
2, 79635, Control_c, 0, 64, 80
2, 79654, Control_c, 0, 64, 70
2, 79659, Note_on_c, 0, 61, 0
2, 79673, Control_c, 0, 64, 63
2, 79693, Control_c, 0, 64, 48
2, 79711, Control_c, 0, 64, 27
2, 79731, Control_c, 0, 64, 11
2, 79808, Control_c, 0, 64, 19
2, 79827, Control_c, 0, 64, 30
2, 79845, Control_c, 0, 64, 41
2, 79865, Control_c, 0, 64, 51
2, 79884, Control_c, 0, 64, 57
2, 79904, Control_c, 0, 64, 60
2, 79918, Note_on_c, 0, 75, 66
2, 79922, Control_c, 0, 64, 63
2, 79942, Control_c, 0, 64, 65
2, 79961, Control_c, 0, 64, 67
2, 79980, Control_c, 0, 64, 72
2, 79999, Control_c, 0, 64, 81
2, 80019, Control_c, 0, 64, 96
2, 80038, Control_c, 0, 64, 115
2, 80057, Control_c, 0, 64, 127
2, 80058, Note_on_c, 0, 60, 0
2, 80338, Note_on_c, 0, 73, 67
2, 80345, Control_c, 0, 64, 107
2, 80350, Note_on_c, 0, 58, 44
2, 80364, Control_c, 0, 64, 97
2, 80364, Note_on_c, 0, 77, 0
2, 80384, Control_c, 0, 64, 89
2, 80402, Control_c, 0, 64, 82
2, 80415, Note_on_c, 0, 69, 0
2, 80422, Control_c, 0, 64, 75
2, 80441, Control_c, 0, 64, 70
2, 80460, Control_c, 0, 64, 66
2, 80479, Control_c, 0, 64, 63
2, 80486, Note_on_c, 0, 75, 0
2, 80499, Control_c, 0, 64, 62
2, 80537, Control_c, 0, 64, 61
2, 80556, Control_c, 0, 64, 60
2, 80576, Control_c, 0, 64, 60
2, 80595, Control_c, 0, 64, 59
2, 80670, Control_c, 0, 64, 58
2, 80721, Note_on_c, 0, 68, 54
2, 80728, Control_c, 0, 64, 58
2, 80739, Note_on_c, 0, 53, 39
2, 80765, Control_c, 0, 64, 57
2, 80785, Control_c, 0, 64, 57
2, 80823, Control_c, 0, 64, 56
2, 80842, Control_c, 0, 64, 56
2, 80862, Control_c, 0, 64, 55
2, 80900, Control_c, 0, 64, 54
2, 80922, Control_c, 0, 64, 54
2, 80942, Control_c, 0, 64, 53
2, 80999, Control_c, 0, 64, 53
2, 81033, Note_on_c, 0, 49, 50
2, 81047, Note_on_c, 0, 67, 46
2, 81052, Note_on_c, 0, 68, 0
2, 81094, Control_c, 0, 64, 53
2, 81114, Control_c, 0, 64, 54
2, 81127, Note_on_c, 0, 53, 0
2, 81153, Control_c, 0, 64, 54
2, 81191, Control_c, 0, 64, 55
2, 81210, Control_c, 0, 64, 55
2, 81229, Control_c, 0, 64, 56
2, 81248, Control_c, 0, 64, 56
2, 81268, Control_c, 0, 64, 57
2, 81287, Control_c, 0, 64, 58
2, 81306, Control_c, 0, 64, 59
2, 81325, Control_c, 0, 64, 59
2, 81332, Note_on_c, 0, 67, 0
2, 81345, Control_c, 0, 64, 60
2, 81346, Note_on_c, 0, 70, 59
2, 81351, Note_on_c, 0, 46, 45
2, 81362, Note_on_c, 0, 58, 0
2, 81363, Control_c, 0, 64, 61
2, 81364, Note_on_c, 0, 49, 0
2, 81383, Control_c, 0, 64, 61
2, 81497, Control_c, 0, 64, 61
2, 81536, Control_c, 0, 64, 60
2, 81556, Control_c, 0, 64, 60
2, 81572, Control_c, 0, 64, 59
2, 81594, Control_c, 0, 64, 59
2, 81613, Control_c, 0, 64, 58
2, 81633, Control_c, 0, 64, 57
2, 81651, Control_c, 0, 64, 55
2, 81665, Note_on_c, 0, 64, 56
2, 81671, Control_c, 0, 64, 51
2, 81690, Control_c, 0, 64, 44
2, 81690, Note_on_c, 0, 55, 40
2, 81709, Control_c, 0, 64, 23
2, 81710, Note_on_c, 0, 73, 0
2, 81728, Control_c, 0, 64, 0
2, 81728, Note_on_c, 0, 70, 0
2, 81773, Note_on_c, 0, 46, 0
2, 81990, Note_on_c, 0, 72, 65
2, 81994, Note_on_c, 0, 48, 46
2, 82092, Note_on_c, 0, 64, 0
2, 82305, Control_c, 0, 64, 17
2, 82308, Note_on_c, 0, 48, 0
2, 82319, Note_on_c, 0, 65, 55
2, 82323, Control_c, 0, 64, 25
2, 82324, Note_on_c, 0, 49, 50
2, 82343, Control_c, 0, 64, 32
2, 82362, Control_c, 0, 64, 35
2, 82382, Control_c, 0, 64, 37
2, 82400, Control_c, 0, 64, 38
2, 82420, Control_c, 0, 64, 40
2, 82439, Control_c, 0, 64, 42
2, 82457, Control_c, 0, 64, 43
2, 82535, Control_c, 0, 64, 44
2, 82556, Control_c, 0, 64, 44
2, 82575, Control_c, 0, 64, 46
2, 82594, Control_c, 0, 64, 49
2, 82613, Control_c, 0, 64, 52
2, 82627, Note_on_c, 0, 70, 71
2, 82633, Control_c, 0, 64, 56
2, 82646, Note_on_c, 0, 46, 46
2, 82652, Control_c, 0, 64, 59
2, 82671, Control_c, 0, 64, 62
2, 82685, Note_on_c, 0, 72, 0
2, 82690, Control_c, 0, 64, 65
2, 82697, Note_on_c, 0, 49, 0
2, 82710, Control_c, 0, 64, 69
2, 82728, Control_c, 0, 64, 74
2, 82748, Control_c, 0, 64, 81
2, 82749, Note_on_c, 0, 65, 0
2, 82767, Control_c, 0, 64, 91
2, 82773, Note_on_c, 0, 46, 0
2, 82787, Control_c, 0, 64, 98
2, 82805, Control_c, 0, 64, 106
2, 82825, Control_c, 0, 64, 114
2, 82844, Control_c, 0, 64, 117
2, 82902, Control_c, 0, 64, 114
2, 82921, Control_c, 0, 64, 110
2, 82940, Control_c, 0, 64, 105
2, 82959, Control_c, 0, 64, 98
2, 82978, Control_c, 0, 64, 90
2, 82992, Note_on_c, 0, 64, 59
2, 82998, Control_c, 0, 64, 82
2, 83006, Note_on_c, 0, 48, 49
2, 83016, Control_c, 0, 64, 76
2, 83022, Note_on_c, 0, 55, 0
2, 83036, Control_c, 0, 64, 70
2, 83055, Control_c, 0, 64, 67
2, 83074, Control_c, 0, 64, 65
2, 83093, Control_c, 0, 64, 63
2, 83113, Control_c, 0, 64, 61
2, 83132, Control_c, 0, 64, 59
2, 83151, Control_c, 0, 64, 57
2, 83170, Control_c, 0, 64, 55
2, 83190, Control_c, 0, 64, 54
2, 83208, Control_c, 0, 64, 52
2, 83228, Control_c, 0, 64, 51
2, 83247, Control_c, 0, 64, 48
2, 83267, Control_c, 0, 64, 46
2, 83285, Control_c, 0, 64, 43
2, 83305, Control_c, 0, 64, 39
2, 83324, Control_c, 0, 64, 35
2, 83336, Note_on_c, 0, 73, 69
2, 83343, Control_c, 0, 64, 30
2, 83351, Note_on_c, 0, 55, 47
2, 83362, Control_c, 0, 64, 25
2, 83382, Control_c, 0, 64, 21
2, 83401, Control_c, 0, 64, 18
2, 83420, Control_c, 0, 64, 15
2, 83458, Control_c, 0, 64, 13
2, 83611, Control_c, 0, 64, 15
2, 83657, Note_on_c, 0, 72, 74
2, 83684, Note_on_c, 0, 70, 0
2, 83687, Control_c, 0, 64, 17
2, 83687, Note_on_c, 0, 56, 56
2, 83704, Note_on_c, 0, 73, 0
2, 83708, Note_on_c, 0, 55, 0
2, 83726, Control_c, 0, 64, 18
2, 83746, Control_c, 0, 64, 20
2, 83764, Control_c, 0, 64, 27
2, 83784, Control_c, 0, 64, 34
2, 83803, Control_c, 0, 64, 41
2, 83823, Control_c, 0, 64, 46
2, 83841, Control_c, 0, 64, 50
2, 83861, Control_c, 0, 64, 53
2, 83880, Control_c, 0, 64, 56
2, 83898, Control_c, 0, 64, 58
2, 83918, Control_c, 0, 64, 60
2, 83937, Control_c, 0, 64, 62
2, 83957, Control_c, 0, 64, 63
2, 83973, Note_on_c, 0, 65, 68
2, 83975, Control_c, 0, 64, 65
2, 83995, Control_c, 0, 64, 70
2, 83998, Note_on_c, 0, 59, 55
2, 84014, Control_c, 0, 64, 76
2, 84033, Control_c, 0, 64, 85
2, 84045, Note_on_c, 0, 56, 0
2, 84052, Control_c, 0, 64, 92
2, 84054, Note_on_c, 0, 64, 0
2, 84072, Control_c, 0, 64, 97
2, 84073, Note_on_c, 0, 59, 0
2, 84091, Control_c, 0, 64, 103
2, 84110, Control_c, 0, 64, 116
2, 84129, Control_c, 0, 64, 127
2, 84360, Control_c, 0, 64, 119
2, 84378, Control_c, 0, 64, 106
2, 84398, Control_c, 0, 64, 99
2, 84417, Control_c, 0, 64, 91
2, 84420, Note_on_c, 0, 68, 74
2, 84435, Note_on_c, 0, 60, 46
2, 84437, Control_c, 0, 64, 83
2, 84451, Control_c, 0, 64, 76
2, 84475, Control_c, 0, 64, 69
2, 84494, Control_c, 0, 64, 63
2, 84513, Control_c, 0, 64, 48
2, 84532, Control_c, 0, 64, 0
2, 84605, Note_on_c, 0, 65, 0
2, 84627, Note_on_c, 0, 72, 0
2, 84706, Control_c, 0, 64, 17
2, 84724, Control_c, 0, 64, 36
2, 84744, Control_c, 0, 64, 48
2, 84763, Control_c, 0, 64, 55
2, 84783, Control_c, 0, 64, 59
2, 84801, Control_c, 0, 64, 63
2, 84812, Note_on_c, 0, 48, 0
2, 84821, Control_c, 0, 64, 65
2, 84840, Control_c, 0, 64, 68
2, 84841, Note_on_c, 0, 65, 50
2, 84858, Control_c, 0, 64, 72
2, 84878, Control_c, 0, 64, 78
2, 84897, Control_c, 0, 64, 85
2, 84917, Control_c, 0, 64, 90
2, 84935, Control_c, 0, 64, 92
2, 85089, Control_c, 0, 64, 91
2, 85109, Control_c, 0, 64, 88
2, 85127, Control_c, 0, 64, 86
2, 85147, Control_c, 0, 64, 83
2, 85166, Control_c, 0, 64, 80
2, 85186, Control_c, 0, 64, 78
2, 85198, Note_on_c, 0, 65, 0
2, 85204, Control_c, 0, 64, 74
2, 85209, Note_on_c, 0, 64, 47
2, 85213, Note_on_c, 0, 48, 42
2, 85224, Control_c, 0, 64, 71
2, 85243, Control_c, 0, 64, 66
2, 85263, Control_c, 0, 64, 63
2, 85281, Control_c, 0, 64, 59
2, 85301, Control_c, 0, 64, 51
2, 85320, Control_c, 0, 64, 33
2, 85338, Control_c, 0, 64, 0
2, 85666, Note_on_c, 0, 67, 55
2, 85684, Control_c, 0, 64, 18
2, 85704, Control_c, 0, 64, 25
2, 85723, Control_c, 0, 64, 32
2, 85743, Control_c, 0, 64, 41
2, 85754, Note_on_c, 0, 68, 0
2, 85761, Control_c, 0, 64, 50
2, 85781, Control_c, 0, 64, 55
2, 85800, Control_c, 0, 64, 58
2, 85817, Note_on_c, 0, 64, 0
2, 85818, Control_c, 0, 64, 61
2, 85838, Control_c, 0, 64, 63
2, 85857, Control_c, 0, 64, 65
2, 85877, Control_c, 0, 64, 67
2, 85895, Control_c, 0, 64, 70
2, 85915, Control_c, 0, 64, 76
2, 85934, Control_c, 0, 64, 81
2, 85953, Control_c, 0, 64, 85
2, 85972, Control_c, 0, 64, 86
2, 85992, Control_c, 0, 64, 87
2, 86126, Control_c, 0, 64, 86
2, 86146, Control_c, 0, 64, 86
2, 86164, Control_c, 0, 64, 85
2, 86184, Control_c, 0, 64, 84
2, 86203, Control_c, 0, 64, 83
2, 86223, Control_c, 0, 64, 82
2, 86241, Control_c, 0, 64, 81
2, 86261, Control_c, 0, 64, 79
2, 86280, Control_c, 0, 64, 77
2, 86283, Note_on_c, 0, 65, 46
2, 86298, Control_c, 0, 64, 75
2, 86318, Control_c, 0, 64, 73
2, 86322, Note_on_c, 0, 49, 49
2, 86337, Control_c, 0, 64, 70
2, 86357, Control_c, 0, 64, 67
2, 86374, Control_c, 0, 64, 64
2, 86395, Control_c, 0, 64, 62
2, 86414, Control_c, 0, 64, 59
2, 86433, Control_c, 0, 64, 53
2, 86452, Control_c, 0, 64, 43
2, 86460, Note_on_c, 0, 60, 0
2, 86472, Control_c, 0, 64, 9
2, 86491, Control_c, 0, 64, 0
2, 86504, Note_on_c, 0, 48, 0
2, 86523, Note_on_c, 0, 67, 0
2, 86875, Control_c, 0, 64, 9
2, 86894, Control_c, 0, 64, 28
2, 86911, Note_on_c, 0, 68, 52
2, 86913, Control_c, 0, 64, 39
2, 86932, Control_c, 0, 64, 48
2, 86952, Control_c, 0, 64, 55
2, 86971, Control_c, 0, 64, 58
2, 86990, Control_c, 0, 64, 60
2, 87009, Control_c, 0, 64, 61
2, 87029, Control_c, 0, 64, 63
2, 87044, Control_c, 0, 64, 64
2, 87064, Control_c, 0, 64, 65
2, 87083, Control_c, 0, 64, 66
2, 87103, Control_c, 0, 64, 67
2, 87121, Control_c, 0, 64, 69
2, 87141, Control_c, 0, 64, 71
2, 87160, Control_c, 0, 64, 74
2, 87180, Control_c, 0, 64, 78
2, 87198, Control_c, 0, 64, 82
2, 87218, Control_c, 0, 64, 85
2, 87237, Control_c, 0, 64, 87
2, 87256, Control_c, 0, 64, 90
2, 87275, Control_c, 0, 64, 93
2, 87295, Control_c, 0, 64, 96
2, 87301, Note_on_c, 0, 72, 59
2, 87314, Control_c, 0, 64, 100
2, 87332, Control_c, 0, 64, 105
2, 87353, Control_c, 0, 64, 112
2, 87373, Control_c, 0, 64, 121
2, 87391, Control_c, 0, 64, 127
2, 87557, Note_on_c, 0, 65, 0
2, 87619, Note_on_c, 0, 77, 64
2, 87930, Control_c, 0, 64, 123
2, 87948, Control_c, 0, 64, 112
2, 87952, Note_on_c, 0, 67, 60
2, 87967, Control_c, 0, 64, 102
2, 87977, Note_on_c, 0, 58, 44
2, 87987, Control_c, 0, 64, 92
2, 88005, Control_c, 0, 64, 85
2, 88025, Control_c, 0, 64, 78
2, 88044, Control_c, 0, 64, 73
2, 88064, Control_c, 0, 64, 67
2, 88082, Control_c, 0, 64, 63
2, 88087, Note_on_c, 0, 72, 0
2, 88097, Note_on_c, 0, 77, 0
2, 88102, Control_c, 0, 64, 59
2, 88107, Note_on_c, 0, 68, 0
2, 88121, Control_c, 0, 64, 54
2, 88140, Control_c, 0, 64, 49
2, 88159, Control_c, 0, 64, 43
2, 88179, Control_c, 0, 64, 36
2, 88198, Control_c, 0, 64, 24
2, 88217, Control_c, 0, 64, 0
2, 88302, Note_on_c, 0, 77, 56
2, 88467, Control_c, 0, 64, 11
2, 88485, Control_c, 0, 64, 28
2, 88505, Control_c, 0, 64, 40
2, 88524, Control_c, 0, 64, 50
2, 88544, Control_c, 0, 64, 56
2, 88562, Control_c, 0, 64, 59
2, 88582, Control_c, 0, 64, 61
2, 88601, Control_c, 0, 64, 63
2, 88620, Control_c, 0, 64, 65
2, 88630, Note_on_c, 0, 76, 66
2, 88639, Control_c, 0, 64, 68
2, 88659, Control_c, 0, 64, 72
2, 88678, Control_c, 0, 64, 79
2, 88697, Control_c, 0, 64, 87
2, 88716, Control_c, 0, 64, 94
2, 88736, Control_c, 0, 64, 99
2, 88741, Note_on_c, 0, 49, 0
2, 88746, Note_on_c, 0, 77, 0
2, 88755, Control_c, 0, 64, 106
2, 88774, Control_c, 0, 64, 123
2, 88793, Control_c, 0, 64, 127
2, 88818, Note_on_c, 0, 58, 0
2, 88956, Note_on_c, 0, 79, 74
2, 89058, Note_on_c, 0, 67, 0
2, 89313, Note_on_c, 0, 68, 71
2, 89329, Note_on_c, 0, 48, 50
2, 89330, Control_c, 0, 64, 123
2, 89334, Note_on_c, 0, 60, 51
2, 89349, Control_c, 0, 64, 100
2, 89369, Control_c, 0, 64, 88
2, 89387, Control_c, 0, 64, 77
2, 89406, Control_c, 0, 64, 69
2, 89426, Control_c, 0, 64, 62
2, 89444, Control_c, 0, 64, 55
2, 89464, Control_c, 0, 64, 49
2, 89483, Control_c, 0, 64, 46
2, 89492, Note_on_c, 0, 76, 0
2, 89503, Control_c, 0, 64, 46
2, 89521, Control_c, 0, 64, 45
2, 89541, Control_c, 0, 64, 45
2, 89560, Control_c, 0, 64, 44
2, 89579, Note_on_c, 0, 79, 0
2, 89580, Control_c, 0, 64, 43
2, 89618, Control_c, 0, 64, 43
2, 89659, Note_on_c, 0, 72, 65
2, 89886, Control_c, 0, 64, 43
2, 89906, Control_c, 0, 64, 44
2, 89924, Control_c, 0, 64, 44
2, 89944, Control_c, 0, 64, 45
2, 89963, Control_c, 0, 64, 46
2, 89983, Control_c, 0, 64, 48
2, 89996, Note_on_c, 0, 77, 67
2, 90001, Control_c, 0, 64, 49
2, 90021, Control_c, 0, 64, 51
2, 90040, Control_c, 0, 64, 53
2, 90060, Control_c, 0, 64, 56
2, 90078, Control_c, 0, 64, 57
2, 90098, Control_c, 0, 64, 59
2, 90117, Control_c, 0, 64, 61
2, 90136, Control_c, 0, 64, 63
2, 90155, Control_c, 0, 64, 65
2, 90175, Control_c, 0, 64, 67
2, 90194, Control_c, 0, 64, 71
2, 90212, Control_c, 0, 64, 78
2, 90232, Control_c, 0, 64, 88
2, 90252, Control_c, 0, 64, 98
2, 90270, Control_c, 0, 64, 107
2, 90290, Control_c, 0, 64, 121
2, 90300, Note_on_c, 0, 76, 71
2, 90309, Control_c, 0, 64, 127
2, 90342, Note_on_c, 0, 77, 0
2, 90491, Note_on_c, 0, 68, 0
2, 90674, Control_c, 0, 64, 112
2, 90688, Note_on_c, 0, 77, 68
2, 90693, Control_c, 0, 64, 99
2, 90712, Control_c, 0, 64, 89
2, 90722, Note_on_c, 0, 56, 51
2, 90732, Control_c, 0, 64, 80
2, 90747, Note_on_c, 0, 76, 0
2, 90750, Control_c, 0, 64, 75
2, 90750, Note_on_c, 0, 72, 0
2, 90770, Control_c, 0, 64, 70
2, 90789, Control_c, 0, 64, 66
2, 90808, Control_c, 0, 64, 62
2, 90827, Control_c, 0, 64, 59
2, 90846, Control_c, 0, 64, 56
2, 90866, Control_c, 0, 64, 53
2, 90884, Control_c, 0, 64, 51
2, 90904, Control_c, 0, 64, 47
2, 90923, Control_c, 0, 64, 43
2, 90943, Control_c, 0, 64, 37
2, 90961, Control_c, 0, 64, 31
2, 90981, Control_c, 0, 64, 25
2, 91000, Control_c, 0, 64, 18
2, 91010, Note_on_c, 0, 60, 0
2, 91020, Control_c, 0, 64, 0
2, 91071, Note_on_c, 0, 72, 61
2, 91307, Control_c, 0, 64, 11
2, 91326, Control_c, 0, 64, 27
2, 91346, Control_c, 0, 64, 37
2, 91365, Control_c, 0, 64, 45
2, 91384, Control_c, 0, 64, 52
2, 91393, Note_on_c, 0, 70, 62
2, 91403, Control_c, 0, 64, 56
2, 91423, Control_c, 0, 64, 58
2, 91441, Control_c, 0, 64, 59
2, 91461, Control_c, 0, 64, 61
2, 91480, Control_c, 0, 64, 62
2, 91500, Control_c, 0, 64, 63
2, 91518, Control_c, 0, 64, 64
2, 91538, Control_c, 0, 64, 64
2, 91540, Note_on_c, 0, 72, 0
2, 91557, Control_c, 0, 64, 66
2, 91576, Control_c, 0, 64, 68
2, 91595, Control_c, 0, 64, 71
2, 91615, Control_c, 0, 64, 77
2, 91634, Control_c, 0, 64, 82
2, 91653, Control_c, 0, 64, 87
2, 91672, Control_c, 0, 64, 91
2, 91692, Control_c, 0, 64, 94
2, 91709, Note_on_c, 0, 68, 61
2, 91710, Control_c, 0, 64, 98
2, 91730, Control_c, 0, 64, 102
2, 91749, Control_c, 0, 64, 106
2, 91768, Control_c, 0, 64, 108
2, 91786, Note_on_c, 0, 70, 0
2, 91787, Control_c, 0, 64, 109
2, 91806, Control_c, 0, 64, 110
2, 91826, Control_c, 0, 64, 110
2, 91980, Control_c, 0, 64, 110
2, 91998, Control_c, 0, 64, 107
2, 92018, Control_c, 0, 64, 104
2, 92037, Control_c, 0, 64, 101
2, 92056, Control_c, 0, 64, 96
2, 92069, Note_on_c, 0, 73, 68
2, 92075, Control_c, 0, 64, 91
2, 92095, Control_c, 0, 64, 85
2, 92110, Note_on_c, 0, 58, 46
2, 92114, Control_c, 0, 64, 78
2, 92132, Control_c, 0, 64, 72
2, 92151, Control_c, 0, 64, 68
2, 92151, Note_on_c, 0, 68, 0
2, 92171, Control_c, 0, 64, 64
2, 92190, Control_c, 0, 64, 61
2, 92193, Note_on_c, 0, 56, 0
2, 92208, Control_c, 0, 64, 57
2, 92228, Control_c, 0, 64, 54
2, 92247, Control_c, 0, 64, 50
2, 92266, Control_c, 0, 64, 47
2, 92285, Control_c, 0, 64, 43
2, 92305, Control_c, 0, 64, 37
2, 92324, Control_c, 0, 64, 30
2, 92343, Control_c, 0, 64, 21
2, 92362, Control_c, 0, 64, 13
2, 92382, Control_c, 0, 64, 0
2, 92427, Note_on_c, 0, 68, 55
2, 92485, Note_on_c, 0, 77, 0
2, 92765, Control_c, 0, 64, 9
2, 92772, Note_on_c, 0, 67, 48
2, 92785, Control_c, 0, 64, 19
2, 92804, Control_c, 0, 64, 25
2, 92805, Note_on_c, 0, 68, 0
2, 92823, Control_c, 0, 64, 29
2, 92842, Control_c, 0, 64, 32
2, 92862, Control_c, 0, 64, 35
2, 92880, Control_c, 0, 64, 37
2, 92900, Control_c, 0, 64, 40
2, 92919, Control_c, 0, 64, 42
2, 92939, Control_c, 0, 64, 45
2, 92957, Control_c, 0, 64, 46
2, 92977, Control_c, 0, 64, 47
2, 92996, Control_c, 0, 64, 49
2, 93015, Control_c, 0, 64, 51
2, 93034, Control_c, 0, 64, 53
2, 93054, Control_c, 0, 64, 55
2, 93073, Control_c, 0, 64, 58
2, 93086, Note_on_c, 0, 70, 58
2, 93092, Control_c, 0, 64, 60
2, 93099, Note_on_c, 0, 67, 0
2, 93114, Control_c, 0, 64, 62
2, 93134, Control_c, 0, 64, 65
2, 93152, Control_c, 0, 64, 67
2, 93172, Control_c, 0, 64, 70
2, 93191, Control_c, 0, 64, 77
2, 93210, Control_c, 0, 64, 89
2, 93229, Control_c, 0, 64, 100
2, 93248, Control_c, 0, 64, 108
2, 93268, Control_c, 0, 64, 113
2, 93383, Control_c, 0, 64, 112
2, 93402, Control_c, 0, 64, 110
2, 93421, Control_c, 0, 64, 105
2, 93433, Note_on_c, 0, 55, 46
2, 93435, Note_on_c, 0, 64, 57
2, 93440, Control_c, 0, 64, 100
2, 93460, Control_c, 0, 64, 94
2, 93479, Control_c, 0, 64, 88
2, 93498, Control_c, 0, 64, 82
2, 93517, Control_c, 0, 64, 77
2, 93537, Control_c, 0, 64, 73
2, 93555, Control_c, 0, 64, 70
2, 93575, Control_c, 0, 64, 66
2, 93577, Note_on_c, 0, 70, 0
2, 93580, Note_on_c, 0, 73, 0
2, 93594, Control_c, 0, 64, 64
2, 93614, Control_c, 0, 64, 60
2, 93632, Control_c, 0, 64, 56
2, 93652, Control_c, 0, 64, 53
2, 93671, Control_c, 0, 64, 51
2, 93684, Note_on_c, 0, 58, 0
2, 93690, Control_c, 0, 64, 48
2, 93709, Control_c, 0, 64, 46
2, 93728, Control_c, 0, 64, 43
2, 93748, Control_c, 0, 64, 40
2, 93762, Note_on_c, 0, 73, 60
2, 93766, Control_c, 0, 64, 37
2, 93786, Control_c, 0, 64, 36
2, 93805, Control_c, 0, 64, 35
2, 93825, Control_c, 0, 64, 34
2, 93843, Control_c, 0, 64, 33
2, 93863, Control_c, 0, 64, 32
2, 94100, Note_on_c, 0, 72, 63
2, 94164, Note_on_c, 0, 73, 0
2, 94187, Control_c, 0, 64, 34
2, 94206, Control_c, 0, 64, 35
2, 94226, Control_c, 0, 64, 36
2, 94245, Control_c, 0, 64, 38
2, 94264, Control_c, 0, 64, 40
2, 94283, Control_c, 0, 64, 42
2, 94303, Control_c, 0, 64, 44
2, 94321, Control_c, 0, 64, 48
2, 94341, Control_c, 0, 64, 51
2, 94360, Control_c, 0, 64, 52
2, 94380, Control_c, 0, 64, 54
2, 94398, Control_c, 0, 64, 56
2, 94418, Control_c, 0, 64, 58
2, 94421, Note_on_c, 0, 70, 65
2, 94437, Control_c, 0, 64, 61
2, 94456, Control_c, 0, 64, 63
2, 94475, Control_c, 0, 64, 64
2, 94495, Control_c, 0, 64, 66
2, 94514, Control_c, 0, 64, 68
2, 94533, Control_c, 0, 64, 73
2, 94552, Control_c, 0, 64, 83
2, 94572, Control_c, 0, 64, 96
2, 94590, Control_c, 0, 64, 117
2, 94610, Control_c, 0, 64, 127
2, 94775, Note_on_c, 0, 68, 66
2, 94783, Control_c, 0, 64, 112
2, 94785, Note_on_c, 0, 65, 57
2, 94793, Note_on_c, 0, 64, 0
2, 94799, Note_on_c, 0, 56, 48
2, 94801, Control_c, 0, 64, 99
2, 94821, Control_c, 0, 64, 89
2, 94840, Control_c, 0, 64, 80
2, 94845, Note_on_c, 0, 72, 0
2, 94860, Control_c, 0, 64, 71
2, 94878, Control_c, 0, 64, 67
2, 94898, Control_c, 0, 64, 63
2, 94917, Control_c, 0, 64, 61
2, 94918, Note_on_c, 0, 70, 0
2, 94936, Control_c, 0, 64, 59
2, 94955, Control_c, 0, 64, 58
2, 94975, Control_c, 0, 64, 57
2, 94994, Control_c, 0, 64, 56
2, 95013, Control_c, 0, 64, 55
2, 95032, Control_c, 0, 64, 54
2, 95051, Note_on_c, 0, 55, 0
2, 95052, Control_c, 0, 64, 53
2, 95070, Control_c, 0, 64, 52
2, 95089, Control_c, 0, 64, 51
2, 95109, Control_c, 0, 64, 50
2, 95116, Note_on_c, 0, 63, 58
2, 95128, Control_c, 0, 64, 49
2, 95147, Control_c, 0, 64, 47
2, 95166, Control_c, 0, 64, 46
2, 95172, Note_on_c, 0, 65, 0
2, 95186, Control_c, 0, 64, 45
2, 95205, Control_c, 0, 64, 45
2, 95224, Control_c, 0, 64, 44
2, 95243, Control_c, 0, 64, 43
2, 95263, Control_c, 0, 64, 43
2, 95281, Control_c, 0, 64, 42
2, 95301, Control_c, 0, 64, 42
2, 95425, Note_on_c, 0, 62, 59
2, 95484, Note_on_c, 0, 63, 0
2, 95512, Control_c, 0, 64, 42
2, 95532, Control_c, 0, 64, 43
2, 95646, Control_c, 0, 64, 42
2, 95666, Control_c, 0, 64, 41
2, 95685, Control_c, 0, 64, 38
2, 95704, Control_c, 0, 64, 36
2, 95723, Control_c, 0, 64, 33
2, 95743, Control_c, 0, 64, 25
2, 95747, Note_on_c, 0, 65, 61
2, 95761, Control_c, 0, 64, 0
2, 96122, Note_on_c, 0, 59, 59
2, 96137, Note_on_c, 0, 53, 42
2, 96230, Note_on_c, 0, 68, 0
2, 96266, Note_on_c, 0, 62, 0
2, 96276, Note_on_c, 0, 65, 0
2, 96420, Note_on_c, 0, 56, 0
2, 96465, Note_on_c, 0, 68, 60
2, 96822, Note_on_c, 0, 67, 59
2, 96851, Note_on_c, 0, 68, 0
2, 96969, Control_c, 0, 64, 9
2, 96989, Control_c, 0, 64, 36
2, 97007, Control_c, 0, 64, 49
2, 97027, Control_c, 0, 64, 56
2, 97046, Control_c, 0, 64, 61
2, 97065, Control_c, 0, 64, 65
2, 97084, Control_c, 0, 64, 70
2, 97104, Control_c, 0, 64, 81
2, 97123, Control_c, 0, 64, 101
2, 97125, Note_on_c, 0, 65, 59
2, 97142, Control_c, 0, 64, 127
2, 97190, Note_on_c, 0, 67, 0
2, 97236, Note_on_c, 0, 65, 0
2, 97335, Note_on_c, 0, 53, 0
2, 97511, Note_on_c, 0, 64, 56
2, 97534, Note_on_c, 0, 55, 45
2, 97603, Control_c, 0, 64, 98
2, 97622, Control_c, 0, 64, 84
2, 97631, Note_on_c, 0, 59, 0
2, 97641, Control_c, 0, 64, 71
2, 97661, Control_c, 0, 64, 62
2, 97680, Control_c, 0, 64, 43
2, 97699, Control_c, 0, 64, 15
2, 97718, Control_c, 0, 64, 0
2, 97864, Note_on_c, 0, 60, 52
2, 98207, Note_on_c, 0, 58, 49
2, 98280, Note_on_c, 0, 60, 0
2, 98353, Control_c, 0, 64, 13
2, 98372, Control_c, 0, 64, 21
2, 98391, Control_c, 0, 64, 27
2, 98411, Control_c, 0, 64, 36
2, 98430, Control_c, 0, 64, 45
2, 98448, Control_c, 0, 64, 52
2, 98468, Control_c, 0, 64, 56
2, 98487, Control_c, 0, 64, 59
2, 98506, Control_c, 0, 64, 61
2, 98525, Control_c, 0, 64, 63
2, 98539, Note_on_c, 0, 61, 51
2, 98545, Control_c, 0, 64, 65
2, 98564, Control_c, 0, 64, 68
2, 98576, Note_on_c, 0, 55, 0
2, 98583, Control_c, 0, 64, 73
2, 98602, Control_c, 0, 64, 80
2, 98622, Control_c, 0, 64, 87
2, 98640, Control_c, 0, 64, 91
2, 98660, Control_c, 0, 64, 94
2, 98679, Control_c, 0, 64, 95
2, 98758, Note_on_c, 0, 58, 0
2, 98794, Control_c, 0, 64, 94
2, 98814, Control_c, 0, 64, 92
2, 98833, Control_c, 0, 64, 89
2, 98852, Control_c, 0, 64, 86
2, 98871, Control_c, 0, 64, 83
2, 98891, Control_c, 0, 64, 81
2, 98910, Control_c, 0, 64, 78
2, 98920, Note_on_c, 0, 55, 45
2, 98926, Note_on_c, 0, 52, 43
2, 98928, Control_c, 0, 64, 76
2, 98948, Control_c, 0, 64, 74
2, 98967, Control_c, 0, 64, 70
2, 98986, Control_c, 0, 64, 65
2, 98996, Note_on_c, 0, 61, 0
2, 99005, Control_c, 0, 64, 59
2, 99025, Control_c, 0, 64, 49
2, 99044, Control_c, 0, 64, 43
2, 99063, Control_c, 0, 64, 40
2, 99082, Control_c, 0, 64, 38
2, 99102, Control_c, 0, 64, 35
2, 99120, Control_c, 0, 64, 27
2, 99140, Control_c, 0, 64, 19
2, 99159, Control_c, 0, 64, 9
2, 99179, Control_c, 0, 64, 0
2, 99267, Note_on_c, 0, 61, 48
2, 99620, Note_on_c, 0, 60, 49
2, 99669, Note_on_c, 0, 61, 0
2, 99812, Control_c, 0, 64, 9
2, 99831, Control_c, 0, 64, 15
2, 99851, Control_c, 0, 64, 25
2, 99870, Control_c, 0, 64, 34
2, 99888, Control_c, 0, 64, 43
2, 99908, Control_c, 0, 64, 50
2, 99927, Control_c, 0, 64, 55
2, 99946, Control_c, 0, 64, 58
2, 99965, Control_c, 0, 64, 60
2, 99985, Control_c, 0, 64, 62
2, 99990, Note_on_c, 0, 58, 45
2, 99997, Note_on_c, 0, 60, 0
2, 100004, Control_c, 0, 64, 63
2, 100023, Control_c, 0, 64, 65
2, 100035, Note_on_c, 0, 55, 0
2, 100042, Control_c, 0, 64, 67
2, 100062, Control_c, 0, 64, 70
2, 100080, Control_c, 0, 64, 73
2, 100100, Control_c, 0, 64, 76
2, 100119, Control_c, 0, 64, 76
2, 100139, Control_c, 0, 64, 76
2, 100273, Control_c, 0, 64, 75
2, 100414, Note_on_c, 0, 58, 0
2, 100462, Note_on_c, 0, 64, 0
2, 100465, Control_c, 0, 64, 75
2, 100478, Note_on_c, 0, 56, 40
2, 100484, Control_c, 0, 64, 74
2, 100494, Note_on_c, 0, 53, 39
2, 100503, Control_c, 0, 64, 72
2, 100522, Control_c, 0, 64, 71
2, 100542, Control_c, 0, 64, 69
2, 100560, Control_c, 0, 64, 67
2, 100580, Control_c, 0, 64, 65
2, 100593, Note_on_c, 0, 52, 0
2, 100599, Control_c, 0, 64, 63
2, 100619, Control_c, 0, 64, 61
2, 100637, Control_c, 0, 64, 57
2, 100657, Control_c, 0, 64, 53
2, 100676, Control_c, 0, 64, 48
2, 100695, Control_c, 0, 64, 40
2, 100714, Control_c, 0, 64, 31
2, 100734, Control_c, 0, 64, 20
2, 100753, Control_c, 0, 64, 0
2, 100963, Note_on_c, 0, 72, 49
2, 101061, Control_c, 0, 64, 11
2, 101080, Control_c, 0, 64, 22
2, 101100, Control_c, 0, 64, 31
2, 101118, Control_c, 0, 64, 39
2, 101138, Control_c, 0, 64, 46
2, 101157, Control_c, 0, 64, 52
2, 101176, Control_c, 0, 64, 55
2, 101195, Control_c, 0, 64, 58
2, 101215, Control_c, 0, 64, 60
2, 101234, Control_c, 0, 64, 61
2, 101253, Control_c, 0, 64, 63
2, 101272, Control_c, 0, 64, 65
2, 101292, Control_c, 0, 64, 67
2, 101310, Control_c, 0, 64, 70
2, 101313, Note_on_c, 0, 70, 58
2, 101329, Control_c, 0, 64, 76
2, 101349, Control_c, 0, 64, 81
2, 101368, Control_c, 0, 64, 86
2, 101387, Control_c, 0, 64, 90
2, 101406, Control_c, 0, 64, 95
2, 101426, Control_c, 0, 64, 104
2, 101445, Control_c, 0, 64, 127
2, 101529, Note_on_c, 0, 53, 0
2, 101541, Note_on_c, 0, 72, 0
2, 101545, Note_on_c, 0, 56, 0
2, 101641, Note_on_c, 0, 73, 63
2, 101679, Note_on_c, 0, 70, 0
2, 101977, Note_on_c, 0, 64, 61
2, 101997, Note_on_c, 0, 55, 42
2, 101997, Note_on_c, 0, 58, 42
2, 102020, Control_c, 0, 64, 105
2, 102039, Control_c, 0, 64, 90
2, 102059, Control_c, 0, 64, 77
2, 102077, Control_c, 0, 64, 67
2, 102079, Note_on_c, 0, 73, 0
2, 102097, Control_c, 0, 64, 58
2, 102116, Control_c, 0, 64, 43
2, 102135, Control_c, 0, 64, 17
2, 102154, Control_c, 0, 64, 0
2, 102308, Control_c, 0, 64, 17
2, 102324, Note_on_c, 0, 73, 65
2, 102327, Control_c, 0, 64, 27
2, 102346, Control_c, 0, 64, 36
2, 102365, Control_c, 0, 64, 45
2, 102385, Control_c, 0, 64, 52
2, 102404, Control_c, 0, 64, 56
2, 102423, Control_c, 0, 64, 60
2, 102442, Control_c, 0, 64, 62
2, 102462, Control_c, 0, 64, 63
2, 102480, Control_c, 0, 64, 65
2, 102500, Control_c, 0, 64, 67
2, 102519, Control_c, 0, 64, 70
2, 102539, Control_c, 0, 64, 76
2, 102557, Control_c, 0, 64, 84
2, 102577, Control_c, 0, 64, 90
2, 102596, Control_c, 0, 64, 92
2, 102615, Control_c, 0, 64, 95
2, 102626, Note_on_c, 0, 64, 0
2, 102634, Control_c, 0, 64, 98
2, 102654, Control_c, 0, 64, 104
2, 102663, Note_on_c, 0, 72, 66
2, 102673, Control_c, 0, 64, 111
2, 102690, Control_c, 0, 64, 118
2, 102711, Control_c, 0, 64, 119
2, 102768, Control_c, 0, 64, 121
2, 102794, Note_on_c, 0, 58, 0
2, 102795, Note_on_c, 0, 73, 0
2, 102978, Note_on_c, 0, 70, 72
2, 103033, Note_on_c, 0, 72, 0
2, 103068, Note_on_c, 0, 55, 0
2, 103210, Control_c, 0, 64, 119
2, 103230, Control_c, 0, 64, 115
2, 103248, Control_c, 0, 64, 107
2, 103268, Control_c, 0, 64, 100
2, 103287, Control_c, 0, 64, 95
2, 103306, Control_c, 0, 64, 90
2, 103325, Control_c, 0, 64, 85
2, 103339, Note_on_c, 0, 68, 70
2, 103345, Control_c, 0, 64, 81
2, 103359, Note_on_c, 0, 56, 53
2, 103364, Control_c, 0, 64, 75
2, 103367, Note_on_c, 0, 60, 46
2, 103381, Note_on_c, 0, 70, 0
2, 103383, Control_c, 0, 64, 70
2, 103402, Control_c, 0, 64, 64
2, 103422, Control_c, 0, 64, 56
2, 103440, Control_c, 0, 64, 39
2, 103460, Control_c, 0, 64, 0
2, 103671, Control_c, 0, 64, 26
2, 103687, Note_on_c, 0, 79, 80
2, 103690, Control_c, 0, 64, 47
2, 103710, Control_c, 0, 64, 59
2, 103728, Control_c, 0, 64, 63
2, 103748, Control_c, 0, 64, 65
2, 103767, Control_c, 0, 64, 67
2, 103769, Note_on_c, 0, 68, 0
2, 103786, Control_c, 0, 64, 70
2, 103805, Control_c, 0, 64, 79
2, 103825, Control_c, 0, 64, 93
2, 103844, Control_c, 0, 64, 108
2, 103863, Control_c, 0, 64, 127
2, 103918, Note_on_c, 0, 60, 0
2, 104008, Note_on_c, 0, 77, 80
2, 104057, Note_on_c, 0, 56, 0
2, 104329, Note_on_c, 0, 80, 85
2, 104377, Note_on_c, 0, 77, 0
2, 104409, Note_on_c, 0, 79, 0
2, 104703, Note_on_c, 0, 71, 78
2, 104708, Note_on_c, 0, 53, 51
2, 104717, Note_on_c, 0, 56, 57
2, 104765, Control_c, 0, 64, 103
2, 104782, Note_on_c, 0, 80, 0
2, 104785, Control_c, 0, 64, 90
2, 104804, Control_c, 0, 64, 78
2, 104823, Control_c, 0, 64, 69
2, 104842, Control_c, 0, 64, 59
2, 104862, Control_c, 0, 64, 28
2, 104880, Control_c, 0, 64, 0
2, 105054, Control_c, 0, 64, 35
2, 105073, Control_c, 0, 64, 51
2, 105090, Note_on_c, 0, 80, 78
2, 105092, Control_c, 0, 64, 60
2, 105111, Control_c, 0, 64, 63
2, 105130, Control_c, 0, 64, 64
2, 105150, Control_c, 0, 64, 67
2, 105168, Control_c, 0, 64, 72
2, 105188, Control_c, 0, 64, 84
2, 105207, Control_c, 0, 64, 100
2, 105226, Control_c, 0, 64, 127
2, 105240, Note_on_c, 0, 71, 0
2, 105400, Note_on_c, 0, 79, 82
2, 105470, Note_on_c, 0, 80, 0
2, 105492, Note_on_c, 0, 56, 0
2, 105724, Note_on_c, 0, 77, 82
2, 105807, Note_on_c, 0, 79, 0
2, 106084, Note_on_c, 0, 76, 77
2, 106091, Note_on_c, 0, 55, 55
2, 106093, Note_on_c, 0, 58, 57
2, 106110, Control_c, 0, 64, 121
2, 106129, Control_c, 0, 64, 100
2, 106140, Note_on_c, 0, 77, 0
2, 106149, Control_c, 0, 64, 85
2, 106168, Control_c, 0, 64, 76
2, 106187, Control_c, 0, 64, 69
2, 106206, Control_c, 0, 64, 63
2, 106226, Control_c, 0, 64, 57
2, 106234, Note_on_c, 0, 53, 0
2, 106245, Control_c, 0, 64, 50
2, 106264, Control_c, 0, 64, 43
2, 106283, Control_c, 0, 64, 35
2, 106303, Control_c, 0, 64, 25
2, 106321, Control_c, 0, 64, 0
2, 106436, Note_on_c, 0, 77, 79
2, 106527, Note_on_c, 0, 76, 0
2, 106766, Note_on_c, 0, 79, 82
2, 106783, Control_c, 0, 64, 15
2, 106801, Control_c, 0, 64, 36
2, 106821, Control_c, 0, 64, 51
2, 106840, Control_c, 0, 64, 60
2, 106860, Control_c, 0, 64, 63
2, 106875, Note_on_c, 0, 77, 0
2, 106878, Control_c, 0, 64, 65
2, 106898, Control_c, 0, 64, 67
2, 106917, Control_c, 0, 64, 73
2, 106936, Control_c, 0, 64, 86
2, 106955, Control_c, 0, 64, 109
2, 106975, Control_c, 0, 64, 127
2, 107108, Note_on_c, 0, 76, 78
2, 107163, Note_on_c, 0, 79, 0
2, 107250, Note_on_c, 0, 55, 0
2, 107554, Note_on_c, 0, 82, 83
2, 107568, Control_c, 0, 64, 112
2, 107580, Note_on_c, 0, 52, 47
2, 107580, Note_on_c, 0, 55, 46
2, 107588, Control_c, 0, 64, 93
2, 107607, Control_c, 0, 64, 81
2, 107626, Control_c, 0, 64, 71
2, 107645, Control_c, 0, 64, 65
2, 107656, Note_on_c, 0, 76, 0
2, 107665, Control_c, 0, 64, 56
2, 107684, Control_c, 0, 64, 47
2, 107703, Control_c, 0, 64, 39
2, 107722, Control_c, 0, 64, 34
2, 107742, Control_c, 0, 64, 29
2, 107760, Control_c, 0, 64, 17
2, 107780, Control_c, 0, 64, 0
2, 107998, Note_on_c, 0, 58, 0
2, 108006, Note_on_c, 0, 73, 62
2, 108164, Control_c, 0, 64, 17
2, 108183, Control_c, 0, 64, 29
2, 108202, Control_c, 0, 64, 40
2, 108222, Control_c, 0, 64, 48
2, 108240, Control_c, 0, 64, 55
2, 108260, Control_c, 0, 64, 59
2, 108279, Control_c, 0, 64, 61
2, 108299, Control_c, 0, 64, 63
2, 108317, Control_c, 0, 64, 64
2, 108337, Control_c, 0, 64, 66
2, 108344, Note_on_c, 0, 82, 0
2, 108348, Note_on_c, 0, 72, 62
2, 108356, Control_c, 0, 64, 69
2, 108376, Control_c, 0, 64, 75
2, 108389, Note_on_c, 0, 73, 0
2, 108394, Control_c, 0, 64, 84
2, 108414, Control_c, 0, 64, 96
2, 108433, Control_c, 0, 64, 109
2, 108450, Control_c, 0, 64, 127
2, 108595, Note_on_c, 0, 52, 0
2, 108667, Note_on_c, 0, 70, 67
2, 108711, Note_on_c, 0, 72, 0
2, 109006, Note_on_c, 0, 68, 64
2, 109008, Control_c, 0, 64, 116
2, 109023, Note_on_c, 0, 53, 44
2, 109028, Control_c, 0, 64, 100
2, 109040, Note_on_c, 0, 60, 44
2, 109047, Control_c, 0, 64, 90
2, 109050, Note_on_c, 0, 70, 0
2, 109066, Control_c, 0, 64, 82
2, 109083, Note_on_c, 0, 55, 0
2, 109085, Control_c, 0, 64, 75
2, 109105, Control_c, 0, 64, 69
2, 109124, Control_c, 0, 64, 64
2, 109143, Control_c, 0, 64, 57
2, 109162, Control_c, 0, 64, 47
2, 109182, Control_c, 0, 64, 27
2, 109200, Control_c, 0, 64, 0
2, 109352, Note_on_c, 0, 70, 64
2, 109456, Note_on_c, 0, 68, 0
2, 109604, Control_c, 0, 64, 13
2, 109623, Control_c, 0, 64, 29
2, 109642, Control_c, 0, 64, 40
2, 109662, Control_c, 0, 64, 48
2, 109679, Note_on_c, 0, 72, 70
2, 109680, Control_c, 0, 64, 54
2, 109700, Control_c, 0, 64, 57
2, 109709, Note_on_c, 0, 70, 0
2, 109719, Control_c, 0, 64, 60
2, 109739, Control_c, 0, 64, 61
2, 109757, Control_c, 0, 64, 63
2, 109777, Control_c, 0, 64, 64
2, 109796, Control_c, 0, 64, 66
2, 109816, Control_c, 0, 64, 68
2, 109834, Control_c, 0, 64, 73
2, 109854, Control_c, 0, 64, 82
2, 109873, Control_c, 0, 64, 90
2, 109891, Control_c, 0, 64, 94
2, 109911, Control_c, 0, 64, 95
2, 109928, Note_on_c, 0, 60, 0
2, 109930, Control_c, 0, 64, 96
2, 109950, Control_c, 0, 64, 97
2, 109968, Control_c, 0, 64, 99
2, 109988, Control_c, 0, 64, 101
2, 110007, Control_c, 0, 64, 102
2, 110026, Control_c, 0, 64, 102
2, 110043, Note_on_c, 0, 65, 57
2, 110053, Note_on_c, 0, 72, 0
2, 110084, Control_c, 0, 64, 103
2, 110296, Control_c, 0, 64, 102
2, 110334, Control_c, 0, 64, 102
2, 110353, Control_c, 0, 64, 100
2, 110371, Control_c, 0, 64, 99
2, 110391, Control_c, 0, 64, 96
2, 110410, Control_c, 0, 64, 93
2, 110430, Control_c, 0, 64, 90
2, 110448, Control_c, 0, 64, 87
2, 110451, Note_on_c, 0, 74, 60
2, 110468, Control_c, 0, 64, 85
2, 110473, Note_on_c, 0, 59, 45
2, 110487, Control_c, 0, 64, 83
2, 110488, Note_on_c, 0, 65, 0
2, 110506, Control_c, 0, 64, 81
2, 110525, Control_c, 0, 64, 79
2, 110545, Control_c, 0, 64, 74
2, 110564, Control_c, 0, 64, 69
2, 110583, Control_c, 0, 64, 63
2, 110602, Control_c, 0, 64, 54
2, 110622, Control_c, 0, 64, 40
2, 110640, Control_c, 0, 64, 21
2, 110660, Control_c, 0, 64, 0
2, 110847, Note_on_c, 0, 53, 0
2, 110859, Note_on_c, 0, 68, 55
2, 111102, Control_c, 0, 64, 20
2, 111120, Control_c, 0, 64, 34
2, 111140, Control_c, 0, 64, 44
2, 111159, Control_c, 0, 64, 52
2, 111179, Control_c, 0, 64, 57
2, 111192, Note_on_c, 0, 67, 52
2, 111197, Control_c, 0, 64, 60
2, 111217, Control_c, 0, 64, 62
2, 111219, Note_on_c, 0, 68, 0
2, 111236, Control_c, 0, 64, 63
2, 111256, Control_c, 0, 64, 65
2, 111274, Control_c, 0, 64, 66
2, 111294, Control_c, 0, 64, 69
2, 111313, Control_c, 0, 64, 73
2, 111331, Control_c, 0, 64, 79
2, 111349, Control_c, 0, 64, 86
2, 111368, Control_c, 0, 64, 92
2, 111388, Control_c, 0, 64, 94
2, 111406, Control_c, 0, 64, 95
2, 111426, Control_c, 0, 64, 96
2, 111445, Control_c, 0, 64, 98
2, 111465, Control_c, 0, 64, 102
2, 111483, Control_c, 0, 64, 105
2, 111503, Control_c, 0, 64, 108
2, 111522, Control_c, 0, 64, 108
2, 111525, Note_on_c, 0, 65, 57
2, 111526, Note_on_c, 0, 74, 0
2, 111541, Control_c, 0, 64, 109
2, 111560, Control_c, 0, 64, 110
2, 111580, Control_c, 0, 64, 111
2, 111585, Note_on_c, 0, 67, 0
2, 111599, Control_c, 0, 64, 112
2, 111617, Note_on_c, 0, 65, 0
2, 111637, Control_c, 0, 64, 113
2, 111791, Control_c, 0, 64, 112
2, 111810, Control_c, 0, 64, 112
2, 111829, Control_c, 0, 64, 110
2, 111848, Control_c, 0, 64, 108
2, 111868, Control_c, 0, 64, 105
2, 111886, Control_c, 0, 64, 102
2, 111906, Control_c, 0, 64, 100
2, 111925, Control_c, 0, 64, 96
2, 111932, Note_on_c, 0, 59, 0
2, 111945, Control_c, 0, 64, 93
2, 111963, Control_c, 0, 64, 89
2, 111963, Note_on_c, 0, 64, 60
2, 111982, Note_on_c, 0, 55, 40
2, 111983, Control_c, 0, 64, 85
2, 112002, Control_c, 0, 64, 80
2, 112021, Control_c, 0, 64, 75
2, 112040, Control_c, 0, 64, 68
2, 112060, Control_c, 0, 64, 61
2, 112079, Control_c, 0, 64, 47
2, 112098, Control_c, 0, 64, 19
2, 112117, Control_c, 0, 64, 0
2, 112194, Control_c, 0, 64, 9
2, 112214, Control_c, 0, 64, 26
2, 112232, Control_c, 0, 64, 38
2, 112251, Control_c, 0, 64, 47
2, 112271, Control_c, 0, 64, 53
2, 112290, Control_c, 0, 64, 56
2, 112309, Control_c, 0, 64, 58
2, 112328, Control_c, 0, 64, 61
2, 112348, Control_c, 0, 64, 62
2, 112366, Control_c, 0, 64, 63
2, 112386, Control_c, 0, 64, 64
2, 112393, Note_on_c, 0, 60, 57
2, 112405, Control_c, 0, 64, 66
2, 112425, Control_c, 0, 64, 67
2, 112443, Control_c, 0, 64, 70
2, 112463, Control_c, 0, 64, 75
2, 112482, Control_c, 0, 64, 82
2, 112501, Control_c, 0, 64, 89
2, 112520, Control_c, 0, 64, 92
2, 112540, Control_c, 0, 64, 92
2, 112545, Note_on_c, 0, 48, 0
2, 112559, Control_c, 0, 64, 93
2, 112572, Note_on_c, 0, 55, 0
2, 112597, Control_c, 0, 64, 94
2, 112617, Control_c, 0, 64, 95
2, 112635, Control_c, 0, 64, 95
2, 112723, Note_on_c, 0, 55, 59
2, 112927, Note_on_c, 0, 64, 0
2, 113043, Note_on_c, 0, 58, 71
2, 113083, Note_on_c, 0, 55, 0
2, 113106, Note_on_c, 0, 60, 0
2, 113347, Control_c, 0, 64, 95
2, 113366, Control_c, 0, 64, 93
2, 113385, Control_c, 0, 64, 91
2, 113395, Note_on_c, 0, 65, 73
2, 113404, Control_c, 0, 64, 88
2, 113407, Note_on_c, 0, 56, 61
2, 113424, Control_c, 0, 64, 84
2, 113443, Control_c, 0, 64, 78
2, 113462, Control_c, 0, 64, 71
2, 113481, Control_c, 0, 64, 65
2, 113501, Control_c, 0, 64, 59
2, 113508, Note_on_c, 0, 58, 0
2, 113520, Control_c, 0, 64, 47
2, 113539, Control_c, 0, 64, 35
2, 113558, Control_c, 0, 64, 28
2, 113578, Control_c, 0, 64, 26
2, 113596, Control_c, 0, 64, 23
2, 113616, Control_c, 0, 64, 21
2, 113635, Control_c, 0, 64, 19
2, 113655, Control_c, 0, 64, 15
2, 113673, Control_c, 0, 64, 13
2, 113692, Control_c, 0, 64, 11
2, 113757, Note_on_c, 0, 53, 71
2, 113789, Control_c, 0, 64, 20
2, 113807, Control_c, 0, 64, 30
2, 113827, Control_c, 0, 64, 40
2, 113846, Control_c, 0, 64, 50
2, 113865, Control_c, 0, 64, 56
2, 113884, Control_c, 0, 64, 60
2, 113904, Control_c, 0, 64, 62
2, 113923, Control_c, 0, 64, 64
2, 113942, Control_c, 0, 64, 66
2, 113961, Control_c, 0, 64, 68
2, 113981, Control_c, 0, 64, 74
2, 114000, Control_c, 0, 64, 82
2, 114019, Control_c, 0, 64, 91
2, 114038, Control_c, 0, 64, 100
2, 114058, Control_c, 0, 64, 106
2, 114076, Control_c, 0, 64, 118
2, 114096, Control_c, 0, 64, 127
2, 114148, Note_on_c, 0, 47, 73
2, 114251, Note_on_c, 0, 53, 0
2, 114264, Note_on_c, 0, 56, 0
2, 114554, Note_on_c, 0, 50, 73
2, 114659, Note_on_c, 0, 47, 0
2, 115131, Note_on_c, 0, 55, 71
2, 115147, Note_on_c, 0, 36, 57
2, 115208, Control_c, 0, 64, 102
2, 115227, Control_c, 0, 64, 78
2, 115246, Control_c, 0, 64, 66
2, 115265, Control_c, 0, 64, 55
2, 115285, Control_c, 0, 64, 29
2, 115303, Control_c, 0, 64, 9
2, 115323, Control_c, 0, 64, 0
2, 115337, Note_on_c, 0, 50, 0
2, 115363, Note_on_c, 0, 65, 0
2, 115688, Control_c, 0, 64, 9
2, 115707, Control_c, 0, 64, 20
2, 115726, Control_c, 0, 64, 31
2, 115731, Note_on_c, 0, 62, 61
2, 115745, Control_c, 0, 64, 43
2, 115765, Control_c, 0, 64, 54
2, 115783, Control_c, 0, 64, 60
2, 115803, Control_c, 0, 64, 63
2, 115822, Control_c, 0, 64, 65
2, 115841, Control_c, 0, 64, 67
2, 115860, Control_c, 0, 64, 72
2, 115873, Note_on_c, 0, 55, 0
2, 115879, Control_c, 0, 64, 80
2, 115899, Control_c, 0, 64, 98
2, 115917, Control_c, 0, 64, 127
2, 116112, Note_on_c, 0, 59, 70
2, 116118, Note_on_c, 0, 53, 52
2, 116147, Control_c, 0, 64, 108
2, 116167, Control_c, 0, 64, 86
2, 116186, Control_c, 0, 64, 70
2, 116187, Note_on_c, 0, 62, 0
2, 116205, Control_c, 0, 64, 62
2, 116224, Control_c, 0, 64, 47
2, 116244, Control_c, 0, 64, 24
2, 116262, Control_c, 0, 64, 18
2, 116320, Control_c, 0, 64, 20
2, 116339, Control_c, 0, 64, 26
2, 116358, Control_c, 0, 64, 34
2, 116378, Control_c, 0, 64, 40
2, 116397, Control_c, 0, 64, 46
2, 116416, Control_c, 0, 64, 51
2, 116435, Control_c, 0, 64, 55
2, 116455, Control_c, 0, 64, 58
2, 116473, Control_c, 0, 64, 61
2, 116487, Note_on_c, 0, 60, 66
2, 116493, Control_c, 0, 64, 63
2, 116512, Control_c, 0, 64, 64
2, 116532, Control_c, 0, 64, 67
2, 116550, Control_c, 0, 64, 71
2, 116570, Control_c, 0, 64, 78
2, 116589, Control_c, 0, 64, 90
2, 116607, Note_on_c, 0, 53, 0
2, 116608, Control_c, 0, 64, 98
2, 116619, Note_on_c, 0, 59, 0
2, 116627, Control_c, 0, 64, 99
2, 116666, Control_c, 0, 64, 98
2, 116685, Control_c, 0, 64, 97
2, 116704, Control_c, 0, 64, 95
2, 116724, Control_c, 0, 64, 91
2, 116742, Control_c, 0, 64, 86
2, 116761, Control_c, 0, 64, 81
2, 116781, Control_c, 0, 64, 76
2, 116800, Control_c, 0, 64, 71
2, 116819, Control_c, 0, 64, 67
2, 116838, Control_c, 0, 64, 66
2, 116858, Control_c, 0, 64, 65
2, 116885, Note_on_c, 0, 55, 57
2, 116896, Control_c, 0, 64, 65
2, 116935, Control_c, 0, 64, 64
2, 116953, Control_c, 0, 64, 63
2, 116973, Control_c, 0, 64, 61
2, 116992, Control_c, 0, 64, 59
2, 117012, Control_c, 0, 64, 54
2, 117030, Control_c, 0, 64, 50
2, 117050, Control_c, 0, 64, 45
2, 117069, Control_c, 0, 64, 40
2, 117088, Control_c, 0, 64, 35
2, 117107, Control_c, 0, 64, 30
2, 117127, Control_c, 0, 64, 24
2, 117146, Control_c, 0, 64, 15
2, 117165, Control_c, 0, 64, 0
2, 117307, Note_on_c, 0, 58, 58
2, 117426, Note_on_c, 0, 60, 0
2, 117776, Note_on_c, 0, 60, 56
2, 118278, Control_c, 0, 64, 23
2, 118298, Control_c, 0, 64, 40
2, 118317, Control_c, 0, 64, 50
2, 118336, Control_c, 0, 64, 54
2, 118355, Control_c, 0, 64, 56
2, 118369, Note_on_c, 0, 64, 48
2, 118375, Control_c, 0, 64, 58
2, 118393, Control_c, 0, 64, 60
2, 118410, Control_c, 0, 64, 62
2, 118429, Control_c, 0, 64, 64
2, 118449, Control_c, 0, 64, 65
2, 118467, Control_c, 0, 64, 67
2, 118487, Control_c, 0, 64, 69
2, 118506, Control_c, 0, 64, 73
2, 118525, Control_c, 0, 64, 79
2, 118544, Control_c, 0, 64, 84
2, 118564, Control_c, 0, 64, 88
2, 118583, Control_c, 0, 64, 91
2, 118602, Control_c, 0, 64, 95
2, 118621, Control_c, 0, 64, 101
2, 118641, Control_c, 0, 64, 107
2, 118642, Note_on_c, 0, 60, 0
2, 118643, Note_on_c, 0, 36, 0
2, 118659, Control_c, 0, 64, 112
2, 118679, Control_c, 0, 64, 112
2, 118698, Control_c, 0, 64, 114
2, 118712, Note_on_c, 0, 58, 0
2, 118718, Control_c, 0, 64, 118
2, 118736, Control_c, 0, 64, 123
2, 118749, Note_on_c, 0, 55, 0
2, 118756, Control_c, 0, 64, 127
2, 118838, Note_on_c, 0, 64, 0
2, 119505, Control_c, 0, 64, 117
2, 119520, Note_on_c, 0, 65, 44
2, 119525, Control_c, 0, 64, 103
2, 119536, Note_on_c, 0, 57, 35
2, 119540, Note_on_c, 0, 60, 40
2, 119541, Note_on_c, 0, 41, 29
2, 119544, Control_c, 0, 64, 93
2, 119544, Note_on_c, 0, 53, 34
2, 119563, Control_c, 0, 64, 83
2, 119582, Control_c, 0, 64, 73
2, 119602, Control_c, 0, 64, 64
2, 119620, Control_c, 0, 64, 46
2, 119640, Control_c, 0, 64, 20
2, 119659, Control_c, 0, 64, 13
2, 119717, Control_c, 0, 64, 11
2, 119736, Control_c, 0, 64, 9
2, 119755, Control_c, 0, 64, 0
2, 120005, Control_c, 0, 64, 13
2, 120024, Control_c, 0, 64, 21
2, 120043, Control_c, 0, 64, 28
2, 120062, Control_c, 0, 64, 34
2, 120082, Control_c, 0, 64, 39
2, 120100, Control_c, 0, 64, 45
2, 120120, Control_c, 0, 64, 49
2, 120139, Control_c, 0, 64, 51
2, 120159, Control_c, 0, 64, 53
2, 120177, Control_c, 0, 64, 55
2, 120197, Control_c, 0, 64, 57
2, 120216, Control_c, 0, 64, 60
2, 120235, Control_c, 0, 64, 62
2, 120254, Control_c, 0, 64, 63
2, 120274, Control_c, 0, 64, 64
2, 120293, Control_c, 0, 64, 65
2, 120311, Control_c, 0, 64, 66
2, 120331, Control_c, 0, 64, 69
2, 120350, Control_c, 0, 64, 72
2, 120370, Control_c, 0, 64, 76
2, 120388, Control_c, 0, 64, 79
2, 120408, Control_c, 0, 64, 82
2, 120427, Control_c, 0, 64, 84
2, 120446, Control_c, 0, 64, 86
2, 120465, Control_c, 0, 64, 88
2, 120485, Control_c, 0, 64, 89
2, 120504, Control_c, 0, 64, 90
2, 120542, Control_c, 0, 64, 91
2, 121867, Note_on_c, 0, 53, 0
2, 122104, Note_on_c, 0, 41, 0
2, 122499, Control_c, 0, 64, 90
2, 122538, Control_c, 0, 64, 90
2, 122558, Control_c, 0, 64, 89
2, 122576, Control_c, 0, 64, 88
2, 122596, Control_c, 0, 64, 88
2, 122615, Control_c, 0, 64, 87
2, 122635, Control_c, 0, 64, 86
2, 122646, Note_on_c, 0, 57, 0
2, 122653, Control_c, 0, 64, 86
2, 122673, Control_c, 0, 64, 85
2, 122692, Control_c, 0, 64, 84
2, 122710, Control_c, 0, 64, 83
2, 122730, Control_c, 0, 64, 82
2, 122749, Control_c, 0, 64, 81
2, 122769, Control_c, 0, 64, 80
2, 122787, Control_c, 0, 64, 79
2, 122807, Control_c, 0, 64, 78
2, 122826, Control_c, 0, 64, 76
2, 122845, Control_c, 0, 64, 75
2, 122864, Control_c, 0, 64, 74
2, 122866, Note_on_c, 0, 60, 0
2, 122884, Control_c, 0, 64, 72
2, 122903, Control_c, 0, 64, 71
2, 122922, Control_c, 0, 64, 69
2, 122941, Control_c, 0, 64, 69
2, 122961, Control_c, 0, 64, 68
2, 123115, Control_c, 0, 64, 68
2, 123127, Note_on_c, 0, 65, 0
2, 123190, Control_c, 0, 64, 67
2, 123249, Control_c, 0, 64, 67
2, 123287, Control_c, 0, 64, 66
2, 123306, Control_c, 0, 64, 65
2, 123325, Control_c, 0, 64, 65
2, 123344, Control_c, 0, 64, 64
2, 123421, Control_c, 0, 64, 64
2, 123459, Control_c, 0, 64, 63
2, 123479, Control_c, 0, 64, 63
2, 123498, Control_c, 0, 64, 62
2, 123518, Control_c, 0, 64, 61
2, 123536, Control_c, 0, 64, 60
2, 123556, Control_c, 0, 64, 60
2, 123613, Control_c, 0, 64, 59
2, 123633, Control_c, 0, 64, 59
2, 123652, Control_c, 0, 64, 58
2, 123690, Control_c, 0, 64, 58
2, 123709, Control_c, 0, 64, 57
2, 123747, Control_c, 0, 64, 56
2, 123767, Control_c, 0, 64, 56
2, 123786, Control_c, 0, 64, 55
2, 124267, Control_c, 0, 64, 56
2, 124363, Control_c, 0, 64, 56
2, 125056, Control_c, 0, 64, 57
2, 125325, Control_c, 0, 64, 57
2, 126247, Control_c, 0, 64, 58
2, 126304, Control_c, 0, 64, 58
2, 126343, Control_c, 0, 64, 59
2, 126381, Control_c, 0, 64, 59
2, 126419, Control_c, 0, 64, 60
2, 126438, Control_c, 0, 64, 60
2, 126458, Control_c, 0, 64, 61
2, 126477, Control_c, 0, 64, 61
2, 126496, Control_c, 0, 64, 62
2, 126515, Control_c, 0, 64, 62
2, 126535, Control_c, 0, 64, 63
2, 126553, Control_c, 0, 64, 64
2, 126573, Control_c, 0, 64, 64
2, 126612, Control_c, 0, 64, 65
2, 126630, Control_c, 0, 64, 66
2, 126650, Control_c, 0, 64, 67
2, 126669, Control_c, 0, 64, 68
2, 126688, Control_c, 0, 64, 70
2, 126707, Control_c, 0, 64, 73
2, 126727, Control_c, 0, 64, 76
2, 126746, Control_c, 0, 64, 80
2, 126765, Control_c, 0, 64, 82
2, 126784, Control_c, 0, 64, 83
2, 126823, Control_c, 0, 64, 84
2, 126841, Control_c, 0, 64, 86
2, 126861, Control_c, 0, 64, 90
2, 126880, Control_c, 0, 64, 95
2, 126899, Control_c, 0, 64, 101
2, 126918, Control_c, 0, 64, 112
2, 126938, Control_c, 0, 64, 127
2, 127592,End_track
0, 0, End_of_file
