0, 0, Header, 1, 2, 480
1, 0, Start_track
1, 0, Tempo, 500000
1, 0, Time_signature, 4, 2, 24, 8
1, 1, End_track
2,0,Start_track
2,0, Note_on_c, 0, 60, 47
2,40, Control_c, 0, 64, 112
2,57, Control_c, 0, 64, 101
2,76, Control_c, 0, 64, 92
2,95, Control_c, 0, 64, 82
2,115, Control_c, 0, 64, 73
2,133, Control_c, 0, 64, 66
2,153, Control_c, 0, 64, 60
2,172, Control_c, 0, 64, 55
2,192, Control_c, 0, 64, 57
2,210, Control_c, 0, 64, 59
2,230, Control_c, 0, 64, 61
2,249, Control_c, 0, 64, 62
2,269, Control_c, 0, 64, 63
2,287, Control_c, 0, 64, 65
2,307, Control_c, 0, 64, 67
2,326, Control_c, 0, 64, 70
2,345, Control_c, 0, 64, 75
2,364, Control_c, 0, 64, 83
2,383, Control_c, 0, 64, 91
2,403, Control_c, 0, 64, 98
2,421, Control_c, 0, 64, 105
2,441, Control_c, 0, 64, 119
2,460, Control_c, 0, 64, 127
2,668, Note_on_c, 0, 60, 0
2,959, Control_c, 0, 64, 119
2,977, Note_on_c, 0, 61, 58
2,978, Control_c, 0, 64, 106
2,998, Control_c, 0, 64, 99
2,1018, Control_c, 0, 64, 93
2,1037, Control_c, 0, 64, 86
2,1056, Control_c, 0, 64, 80
2,1076, Control_c, 0, 64, 73
2,1094, Control_c, 0, 64, 67
2,1114, Control_c, 0, 64, 61
2,1133, Control_c, 0, 64, 52
2,1153, Control_c, 0, 64, 44
2,1171, Control_c, 0, 64, 42
2,1191, Control_c, 0, 64, 43
2,1210, Control_c, 0, 64, 46
2,1229, Control_c, 0, 64, 49
2,1248, Control_c, 0, 64, 54
2,1268, Control_c, 0, 64, 57
2,1287, Control_c, 0, 64, 60
2,1306, Control_c, 0, 64, 61
2,1325, Control_c, 0, 64, 63
2,1345, Control_c, 0, 64, 64
2,1363, Control_c, 0, 64, 65
2,1382, Control_c, 0, 64, 69
2,1402, Control_c, 0, 64, 74
2,1421, Control_c, 0, 64, 82
2,1440, Control_c, 0, 64, 90
2,1459, Control_c, 0, 64, 96
2,1479, Control_c, 0, 64, 102
2,1498, Control_c, 0, 64, 113
2,1517, Control_c, 0, 64, 127
2,1614, Note_on_c, 0, 61, 0
2,1977, Control_c, 0, 64, 116
2,1986, Note_on_c, 0, 60, 55
2,1997, Control_c, 0, 64, 103
2,2016, Control_c, 0, 64, 95
2,2036, Control_c, 0, 64, 87
2,2054, Control_c, 0, 64, 79
2,2074, Control_c, 0, 64, 72
2,2093, Control_c, 0, 64, 66
2,2113, Control_c, 0, 64, 62
2,2131, Control_c, 0, 64, 56
2,2151, Control_c, 0, 64, 51
2,2170, Control_c, 0, 64, 48
2,2189, Control_c, 0, 64, 47
2,2228, Control_c, 0, 64, 48
2,2247, Control_c, 0, 64, 51
2,2266, Control_c, 0, 64, 55
2,2285, Control_c, 0, 64, 57
2,2305, Control_c, 0, 64, 59
2,2323, Control_c, 0, 64, 61
2,2342, Control_c, 0, 64, 63
2,2362, Control_c, 0, 64, 64
2,2381, Control_c, 0, 64, 66
2,2400, Control_c, 0, 64, 69
2,2419, Control_c, 0, 64, 74
2,2439, Control_c, 0, 64, 83
2,2458, Control_c, 0, 64, 91
2,2477, Control_c, 0, 64, 96
2,2496, Control_c, 0, 64, 100
2,2516, Control_c, 0, 64, 103
2,2534, Control_c, 0, 64, 108
2,2554, Control_c, 0, 64, 116
2,2573, Control_c, 0, 64, 123
2,2593, Control_c, 0, 64, 127
2,2638, Note_on_c, 0, 60, 0
2,2842, Control_c, 0, 64, 123
2,2861, Control_c, 0, 64, 119
2,2880, Control_c, 0, 64, 116
2,2899, Control_c, 0, 64, 112
2,2919, Control_c, 0, 64, 108
2,2937, Control_c, 0, 64, 103
2,2957, Control_c, 0, 64, 97
2,2976, Control_c, 0, 64, 92
2,2990, Note_on_c, 0, 59, 57
2,2996, Control_c, 0, 64, 86
2,3014, Control_c, 0, 64, 79
2,3034, Control_c, 0, 64, 71
2,3053, Control_c, 0, 64, 66
2,3073, Control_c, 0, 64, 61
2,3091, Control_c, 0, 64, 54
2,3111, Control_c, 0, 64, 48
2,3130, Control_c, 0, 64, 47
2,3149, Control_c, 0, 64, 47
2,3168, Control_c, 0, 64, 49
2,3188, Control_c, 0, 64, 51
2,3207, Control_c, 0, 64, 54
2,3226, Control_c, 0, 64, 57
2,3245, Control_c, 0, 64, 59
2,3265, Control_c, 0, 64, 61
2,3283, Control_c, 0, 64, 62
2,3302, Control_c, 0, 64, 64
2,3322, Control_c, 0, 64, 65
2,3341, Control_c, 0, 64, 68
2,3360, Control_c, 0, 64, 73
2,3379, Control_c, 0, 64, 81
2,3399, Control_c, 0, 64, 90
2,3418, Control_c, 0, 64, 98
2,3437, Control_c, 0, 64, 105
2,3456, Control_c, 0, 64, 121
2,3476, Control_c, 0, 64, 127
2,3559, Note_on_c, 0, 59, 0
2,3936, Control_c, 0, 64, 109
2,3956, Control_c, 0, 64, 100
2,3964, Note_on_c, 0, 64, 62
2,3974, Control_c, 0, 64, 91
2,3994, Control_c, 0, 64, 80
2,4013, Control_c, 0, 64, 71
2,4033, Control_c, 0, 64, 64
2,4051, Control_c, 0, 64, 54
2,4071, Control_c, 0, 64, 35
2,4090, Control_c, 0, 64, 13
2,4109, Control_c, 0, 64, 11
2,4186, Control_c, 0, 64, 17
2,4205, Control_c, 0, 64, 27
2,4224, Control_c, 0, 64, 37
2,4243, Control_c, 0, 64, 46
2,4262, Control_c, 0, 64, 52
2,4282, Control_c, 0, 64, 58
2,4301, Control_c, 0, 64, 60
2,4320, Control_c, 0, 64, 62
2,4339, Control_c, 0, 64, 64
2,4359, Control_c, 0, 64, 65
2,4378, Control_c, 0, 64, 68
2,4397, Control_c, 0, 64, 73
2,4416, Control_c, 0, 64, 81
2,4436, Control_c, 0, 64, 90
2,4454, Control_c, 0, 64, 94
2,4474, Control_c, 0, 64, 96
2,4493, Control_c, 0, 64, 96
2,4513, Control_c, 0, 64, 97
2,4531, Control_c, 0, 64, 100
2,4551, Control_c, 0, 64, 106
2,4570, Control_c, 0, 64, 110
2,4589, Control_c, 0, 64, 110
2,4608, Control_c, 0, 64, 111
2,4655, Note_on_c, 0, 64, 0
2,4839, Control_c, 0, 64, 110
2,4858, Control_c, 0, 64, 110
2,4877, Control_c, 0, 64, 108
2,4896, Control_c, 0, 64, 105
2,4916, Control_c, 0, 64, 101
2,4934, Control_c, 0, 64, 97
2,4954, Control_c, 0, 64, 93
2,4957, Note_on_c, 0, 65, 63
2,4973, Control_c, 0, 64, 89
2,4993, Control_c, 0, 64, 85
2,5011, Control_c, 0, 64, 78
2,5031, Control_c, 0, 64, 71
2,5050, Control_c, 0, 64, 64
2,5069, Control_c, 0, 64, 56
2,5088, Control_c, 0, 64, 42
2,5108, Control_c, 0, 64, 29
2,5127, Control_c, 0, 64, 27
2,5184, Control_c, 0, 64, 30
2,5203, Control_c, 0, 64, 36
2,5222, Control_c, 0, 64, 44
2,5242, Control_c, 0, 64, 52
2,5261, Control_c, 0, 64, 56
2,5280, Control_c, 0, 64, 58
2,5299, Control_c, 0, 64, 60
2,5319, Control_c, 0, 64, 62
2,5338, Control_c, 0, 64, 63
2,5357, Control_c, 0, 64, 64
2,5376, Control_c, 0, 64, 65
2,5396, Control_c, 0, 64, 67
2,5414, Control_c, 0, 64, 70
2,5434, Control_c, 0, 64, 75
2,5453, Control_c, 0, 64, 83
2,5473, Control_c, 0, 64, 90
2,5491, Control_c, 0, 64, 94
2,5530, Control_c, 0, 64, 95
2,5549, Control_c, 0, 64, 95
2,5568, Control_c, 0, 64, 97
2,5588, Control_c, 0, 64, 100
2,5607, Control_c, 0, 64, 100
2,5715, Note_on_c, 0, 65, 0
2,5741, Control_c, 0, 64, 100
2,5799, Control_c, 0, 64, 99
2,5818, Control_c, 0, 64, 98
2,5838, Control_c, 0, 64, 96
2,5857, Control_c, 0, 64, 93
2,5877, Control_c, 0, 64, 90
2,5895, Control_c, 0, 64, 87
2,5915, Control_c, 0, 64, 84
2,5923, Note_on_c, 0, 58, 52
2,5934, Control_c, 0, 64, 82
2,5954, Control_c, 0, 64, 80
2,5972, Control_c, 0, 64, 78
2,5992, Control_c, 0, 64, 75
2,6011, Control_c, 0, 64, 71
2,6030, Control_c, 0, 64, 68
2,6049, Control_c, 0, 64, 65
2,6069, Control_c, 0, 64, 61
2,6088, Control_c, 0, 64, 57
2,6107, Control_c, 0, 64, 55
2,6126, Control_c, 0, 64, 53
2,6146, Control_c, 0, 64, 53
2,6164, Control_c, 0, 64, 52
2,6183, Control_c, 0, 64, 52
2,6222, Control_c, 0, 64, 52
2,6241, Control_c, 0, 64, 54
2,6260, Control_c, 0, 64, 55
2,6280, Control_c, 0, 64, 57
2,6298, Control_c, 0, 64, 58
2,6318, Control_c, 0, 64, 60
2,6337, Control_c, 0, 64, 62
2,6357, Control_c, 0, 64, 63
2,6375, Control_c, 0, 64, 64
2,6395, Control_c, 0, 64, 65
2,6414, Control_c, 0, 64, 67
2,6434, Control_c, 0, 64, 69
2,6452, Control_c, 0, 64, 73
2,6472, Control_c, 0, 64, 80
2,6491, Control_c, 0, 64, 90
2,6510, Control_c, 0, 64, 95
2,6529, Control_c, 0, 64, 96
2,6568, Control_c, 0, 64, 97
2,6587, Control_c, 0, 64, 97
2,6606, Control_c, 0, 64, 98
2,6613, Note_on_c, 0, 58, 0
2,6626, Control_c, 0, 64, 99
2,6797, Control_c, 0, 64, 98
2,6816, Control_c, 0, 64, 98
2,6836, Control_c, 0, 64, 96
2,6854, Control_c, 0, 64, 95
2,6874, Control_c, 0, 64, 91
2,6881, Note_on_c, 0, 57, 57
2,6893, Control_c, 0, 64, 87
2,6913, Control_c, 0, 64, 81
2,6931, Control_c, 0, 64, 74
2,6951, Control_c, 0, 64, 67
2,6970, Control_c, 0, 64, 61
2,6989, Control_c, 0, 64, 50
2,7008, Control_c, 0, 64, 36
2,7028, Control_c, 0, 64, 31
2,7066, Control_c, 0, 64, 32
2,7085, Control_c, 0, 64, 35
2,7104, Control_c, 0, 64, 40
2,7123, Control_c, 0, 64, 47
2,7142, Control_c, 0, 64, 53
2,7162, Control_c, 0, 64, 57
2,7181, Control_c, 0, 64, 59
2,7200, Control_c, 0, 64, 61
2,7219, Control_c, 0, 64, 62
2,7239, Control_c, 0, 64, 64
2,7258, Control_c, 0, 64, 65
2,7277, Control_c, 0, 64, 66
2,7296, Control_c, 0, 64, 68
2,7316, Control_c, 0, 64, 71
2,7334, Control_c, 0, 64, 76
2,7354, Control_c, 0, 64, 83
2,7373, Control_c, 0, 64, 89
2,7393, Control_c, 0, 64, 92
2,7450, Control_c, 0, 64, 92
2,7516, Note_on_c, 0, 57, 0
2,7565, Control_c, 0, 64, 92
2,7584, Control_c, 0, 64, 91
2,7603, Control_c, 0, 64, 91
2,7642, Control_c, 0, 64, 90
2,7661, Control_c, 0, 64, 90
2,7699, Control_c, 0, 64, 89
2,7719, Control_c, 0, 64, 89
2,7738, Control_c, 0, 64, 88
2,7757, Control_c, 0, 64, 88
2,7776, Control_c, 0, 64, 86
2,7796, Control_c, 0, 64, 83
2,7814, Control_c, 0, 64, 77
2,7829, Note_on_c, 0, 56, 62
2,7834, Control_c, 0, 64, 70
2,7853, Control_c, 0, 64, 65
2,7873, Control_c, 0, 64, 64
2,7891, Control_c, 0, 64, 64
2,7911, Control_c, 0, 64, 65
2,7930, Control_c, 0, 64, 65
2,7949, Control_c, 0, 64, 66
2,7968, Control_c, 0, 64, 67
2,7988, Control_c, 0, 64, 69
2,8007, Control_c, 0, 64, 71
2,8026, Control_c, 0, 64, 73
2,8045, Control_c, 0, 64, 74
2,8064, Control_c, 0, 64, 75
2,8102, Control_c, 0, 64, 76
2,8122, Control_c, 0, 64, 78
2,8141, Control_c, 0, 64, 81
2,8160, Control_c, 0, 64, 84
2,8179, Control_c, 0, 64, 87
2,8199, Control_c, 0, 64, 90
2,8218, Control_c, 0, 64, 91
2,8237, Control_c, 0, 64, 93
2,8256, Control_c, 0, 64, 94
2,8276, Control_c, 0, 64, 94
2,8294, Control_c, 0, 64, 95
2,8314, Control_c, 0, 64, 95
2,8353, Control_c, 0, 64, 96
2,8468, Control_c, 0, 64, 96
2,8602, Control_c, 0, 64, 97
2,8759, Note_on_c, 0, 56, 0
2,8774, Control_c, 0, 64, 96
2,8794, Control_c, 0, 64, 96
2,8813, Control_c, 0, 64, 95
2,8833, Control_c, 0, 64, 93
2,8851, Control_c, 0, 64, 90
2,8871, Control_c, 0, 64, 87
2,8877, Note_on_c, 0, 55, 53
2,8890, Control_c, 0, 64, 83
2,8909, Control_c, 0, 64, 78
2,8928, Control_c, 0, 64, 73
2,8948, Control_c, 0, 64, 68
2,8967, Control_c, 0, 64, 65
2,8986, Control_c, 0, 64, 62
2,9005, Control_c, 0, 64, 60
2,9024, Control_c, 0, 64, 58
2,9043, Control_c, 0, 64, 56
2,9062, Control_c, 0, 64, 54
2,9082, Control_c, 0, 64, 51
2,9101, Control_c, 0, 64, 47
2,9120, Control_c, 0, 64, 43
2,9139, Control_c, 0, 64, 38
2,9159, Control_c, 0, 64, 34
2,9178, Control_c, 0, 64, 32
2,9197, Control_c, 0, 64, 31
2,9216, Control_c, 0, 64, 29
2,9236, Control_c, 0, 64, 27
2,9254, Control_c, 0, 64, 27
2,9274, Control_c, 0, 64, 26
2,9293, Control_c, 0, 64, 25
2,9639, Control_c, 0, 64, 27
2,9658, Control_c, 0, 64, 29
2,9678, Control_c, 0, 64, 32
2,9697, Control_c, 0, 64, 36
2,9717, Control_c, 0, 64, 41
2,9735, Control_c, 0, 64, 45
2,9755, Control_c, 0, 64, 48
2,9774, Control_c, 0, 64, 51
2,9794, Control_c, 0, 64, 53
2,9812, Control_c, 0, 64, 56
2,9832, Control_c, 0, 64, 58
2,9851, Control_c, 0, 64, 60
2,9870, Control_c, 0, 64, 61
2,9889, Control_c, 0, 64, 62
2,9909, Control_c, 0, 64, 62
2,9928, Control_c, 0, 64, 63
2,9947, Control_c, 0, 64, 64
2,9966, Control_c, 0, 64, 65
2,9985, Control_c, 0, 64, 67
2,10004, Control_c, 0, 64, 69
2,10023, Control_c, 0, 64, 72
2,10043, Control_c, 0, 64, 76
2,10062, Control_c, 0, 64, 83
2,10081, Control_c, 0, 64, 88
2,10100, Control_c, 0, 64, 92
2,10120, Control_c, 0, 64, 93
2,10241, Note_on_c, 0, 55, 0
2,10408, Control_c, 0, 64, 92
2,10427, Control_c, 0, 64, 92
2,10446, Control_c, 0, 64, 91
2,10465, Control_c, 0, 64, 91
2,10484, Control_c, 0, 64, 89
2,10503, Control_c, 0, 64, 88
2,10523, Control_c, 0, 64, 85
2,10542, Control_c, 0, 64, 82
2,10561, Control_c, 0, 64, 79
2,10580, Control_c, 0, 64, 75
2,10600, Control_c, 0, 64, 71
2,10617, Control_c, 0, 64, 68
2,10638, Control_c, 0, 64, 65
2,10657, Control_c, 0, 64, 63
2,10677, Control_c, 0, 64, 61
2,10689, Note_on_c, 0, 53, 37
2,10695, Control_c, 0, 64, 60
2,10715, Control_c, 0, 64, 60
2,10772, Control_c, 0, 64, 60
2,10970, Note_on_c, 0, 53, 0
2,11060, Control_c, 0, 64, 60
2,11165, Note_on_c, 0, 53, 43
2,11372, Note_on_c, 0, 55, 49
2,11412, Note_on_c, 0, 53, 0
2,11560, Control_c, 0, 64, 60
2,11606, Note_on_c, 0, 55, 0
2,11620, Note_on_c, 0, 56, 45
2,11629, Note_on_c, 0, 65, 49
2,11898, Note_on_c, 0, 56, 0
2,12061, Note_on_c, 0, 56, 61
2,12168, Note_on_c, 0, 65, 0
2,12260, Note_on_c, 0, 58, 59
2,12289, Control_c, 0, 64, 60
2,12290, Note_on_c, 0, 56, 0
2,12385, Control_c, 0, 64, 59
2,12452, Note_on_c, 0, 58, 0
2,12481, Control_c, 0, 64, 59
2,12489, Note_on_c, 0, 68, 68
2,12504, Note_on_c, 0, 60, 44
2,12574, Note_on_c, 0, 60, 0
2,12686, Note_on_c, 0, 47, 58
2,12864, Control_c, 0, 64, 58
2,12891, Note_on_c, 0, 48, 66
2,12922, Control_c, 0, 64, 58
2,12939, Note_on_c, 0, 47, 0
2,12972, Note_on_c, 0, 68, 0
2,12979, Control_c, 0, 64, 57
2,13037, Control_c, 0, 64, 57
2,13107, Note_on_c, 0, 50, 67
2,13114, Control_c, 0, 64, 56
2,13141, Note_on_c, 0, 48, 0
2,13360, Note_on_c, 0, 67, 58
2,13383, Note_on_c, 0, 51, 48
2,13397, Note_on_c, 0, 50, 0
2,13479, Control_c, 0, 64, 56
2,13673, Control_c, 0, 64, 56
2,13693, Control_c, 0, 64, 57
2,13711, Control_c, 0, 64, 57
2,13731, Control_c, 0, 64, 58
2,13773, Control_c, 0, 64, 59
2,13791, Control_c, 0, 64, 60
2,13811, Control_c, 0, 64, 61
2,13830, Control_c, 0, 64, 62
2,13850, Control_c, 0, 64, 63
2,13868, Control_c, 0, 64, 64
2,13887, Control_c, 0, 64, 65
2,13907, Control_c, 0, 64, 68
2,13925, Control_c, 0, 64, 73
2,13944, Note_on_c, 0, 67, 0
2,13945, Control_c, 0, 64, 80
2,13964, Control_c, 0, 64, 89
2,13984, Control_c, 0, 64, 98
2,14002, Control_c, 0, 64, 105
2,14022, Control_c, 0, 64, 110
2,14041, Control_c, 0, 64, 110
2,14079, Control_c, 0, 64, 110
2,14099, Control_c, 0, 64, 108
2,14118, Control_c, 0, 64, 105
2,14137, Control_c, 0, 64, 102
2,14156, Control_c, 0, 64, 96
2,14176, Control_c, 0, 64, 91
2,14194, Control_c, 0, 64, 85
2,14214, Control_c, 0, 64, 81
2,14233, Control_c, 0, 64, 78
2,14253, Control_c, 0, 64, 75
2,14254, Note_on_c, 0, 66, 61
2,14258, Note_on_c, 0, 51, 0
2,14271, Control_c, 0, 64, 73
2,14291, Control_c, 0, 64, 72
2,14310, Control_c, 0, 64, 70
2,14330, Control_c, 0, 64, 67
2,14348, Control_c, 0, 64, 65
2,14367, Control_c, 0, 64, 63
2,14387, Control_c, 0, 64, 61
2,14405, Control_c, 0, 64, 60
2,14425, Control_c, 0, 64, 58
2,14444, Control_c, 0, 64, 57
2,14461, Control_c, 0, 64, 56
2,14464, Note_on_c, 0, 48, 52
2,14481, Control_c, 0, 64, 55
2,14501, Control_c, 0, 64, 54
2,14520, Control_c, 0, 64, 53
2,14539, Control_c, 0, 64, 52
2,14558, Control_c, 0, 64, 52
2,14578, Control_c, 0, 64, 51
2,14597, Control_c, 0, 64, 51
2,14635, Control_c, 0, 64, 50
2,14677, Note_on_c, 0, 50, 67
2,14703, Note_on_c, 0, 48, 0
2,14784, Note_on_c, 0, 66, 0
2,14870, Note_on_c, 0, 51, 67
2,14919, Note_on_c, 0, 50, 0
2,15137, Note_on_c, 0, 71, 73
2,15144, Note_on_c, 0, 51, 0
2,15146, Note_on_c, 0, 53, 50
2,15154, Control_c, 0, 64, 50
2,15173, Control_c, 0, 64, 49
2,15192, Control_c, 0, 64, 48
2,15212, Control_c, 0, 64, 45
2,15230, Control_c, 0, 64, 41
2,15250, Control_c, 0, 64, 35
2,15269, Control_c, 0, 64, 27
2,15288, Control_c, 0, 64, 20
2,15307, Control_c, 0, 64, 17
2,15326, Control_c, 0, 64, 15
2,15422, Control_c, 0, 64, 18
2,15440, Control_c, 0, 64, 23
2,15460, Control_c, 0, 64, 29
2,15479, Control_c, 0, 64, 35
2,15499, Control_c, 0, 64, 42
2,15517, Control_c, 0, 64, 49
2,15537, Control_c, 0, 64, 56
2,15556, Control_c, 0, 64, 61
2,15575, Control_c, 0, 64, 63
2,15594, Control_c, 0, 64, 65
2,15614, Control_c, 0, 64, 68
2,15633, Control_c, 0, 64, 73
2,15652, Control_c, 0, 64, 80
2,15671, Control_c, 0, 64, 91
2,15683, Note_on_c, 0, 71, 0
2,15691, Control_c, 0, 64, 105
2,15709, Control_c, 0, 64, 115
2,15728, Control_c, 0, 64, 127
2,15940, Control_c, 0, 64, 119
2,15959, Control_c, 0, 64, 110
2,15979, Control_c, 0, 64, 102
2,15997, Control_c, 0, 64, 96
2,16017, Control_c, 0, 64, 90
2,16027, Note_on_c, 0, 53, 0
2,16032, Note_on_c, 0, 72, 75
2,16036, Control_c, 0, 64, 84
2,16055, Control_c, 0, 64, 79
2,16074, Control_c, 0, 64, 75
2,16094, Control_c, 0, 64, 72
2,16113, Control_c, 0, 64, 69
2,16132, Control_c, 0, 64, 66
2,16151, Control_c, 0, 64, 64
2,16171, Control_c, 0, 64, 63
2,16189, Control_c, 0, 64, 61
2,16208, Control_c, 0, 64, 60
2,16228, Control_c, 0, 64, 59
2,16233, Note_on_c, 0, 51, 56
2,16247, Control_c, 0, 64, 58
2,16266, Control_c, 0, 64, 57
2,16285, Control_c, 0, 64, 55
2,16305, Control_c, 0, 64, 52
2,16324, Control_c, 0, 64, 50
2,16343, Control_c, 0, 64, 48
2,16362, Control_c, 0, 64, 45
2,16380, Control_c, 0, 64, 42
2,16400, Control_c, 0, 64, 40
2,16420, Control_c, 0, 64, 39
2,16439, Control_c, 0, 64, 37
2,16455, Note_on_c, 0, 53, 64
2,16459, Control_c, 0, 64, 36
2,16477, Control_c, 0, 64, 36
2,16497, Control_c, 0, 64, 35
2,16504, Note_on_c, 0, 72, 0
2,16509, Note_on_c, 0, 51, 0
2,16645, Note_on_c, 0, 53, 0
2,16657, Note_on_c, 0, 55, 64
2,16919, Control_c, 0, 64, 35
2,16932, Note_on_c, 0, 65, 61
2,16939, Control_c, 0, 64, 31
2,16941, Note_on_c, 0, 56, 48
2,16957, Control_c, 0, 64, 9
2,16977, Control_c, 0, 64, 0
2,16981, Note_on_c, 0, 55, 0
2,17322, Control_c, 0, 64, 28
2,17342, Control_c, 0, 64, 54
2,17361, Control_c, 0, 64, 61
2,17381, Control_c, 0, 64, 63
2,17400, Control_c, 0, 64, 65
2,17419, Control_c, 0, 64, 67
2,17438, Control_c, 0, 64, 72
2,17454, Note_on_c, 0, 65, 0
2,17458, Control_c, 0, 64, 81
2,17477, Control_c, 0, 64, 90
2,17496, Control_c, 0, 64, 97
2,17515, Control_c, 0, 64, 101
2,17535, Control_c, 0, 64, 110
2,17554, Control_c, 0, 64, 127
2,17764, Control_c, 0, 64, 108
2,17783, Control_c, 0, 64, 101
2,17801, Control_c, 0, 64, 94
2,17807, Note_on_c, 0, 56, 0
2,17810, Note_on_c, 0, 64, 67
2,17820, Control_c, 0, 64, 88
2,17839, Control_c, 0, 64, 82
2,17858, Control_c, 0, 64, 76
2,17877, Control_c, 0, 64, 70
2,17896, Control_c, 0, 64, 65
2,17915, Control_c, 0, 64, 61
2,17935, Control_c, 0, 64, 58
2,17954, Control_c, 0, 64, 56
2,17973, Control_c, 0, 64, 56
2,17992, Control_c, 0, 64, 55
2,18012, Control_c, 0, 64, 55
2,18022, Note_on_c, 0, 55, 58
2,18031, Control_c, 0, 64, 54
2,18050, Control_c, 0, 64, 53
2,18069, Control_c, 0, 64, 53
2,18089, Control_c, 0, 64, 52
2,18107, Control_c, 0, 64, 52
2,18127, Control_c, 0, 64, 51
2,18146, Control_c, 0, 64, 51
2,18166, Control_c, 0, 64, 50
2,18184, Control_c, 0, 64, 49
2,18204, Control_c, 0, 64, 48
2,18223, Control_c, 0, 64, 47
2,18228, Note_on_c, 0, 57, 70
2,18242, Control_c, 0, 64, 47
2,18261, Control_c, 0, 64, 46
2,18281, Control_c, 0, 64, 45
2,18298, Note_on_c, 0, 55, 0
2,18300, Control_c, 0, 64, 44
2,18306, Note_on_c, 0, 64, 0
2,18318, Control_c, 0, 64, 44
2,18436, Note_on_c, 0, 59, 72
2,18472, Control_c, 0, 64, 44
2,18486, Note_on_c, 0, 57, 0
2,18569, Control_c, 0, 64, 45
2,18646, Control_c, 0, 64, 45
2,18717, Note_on_c, 0, 63, 62
2,18739, Note_on_c, 0, 60, 52
2,18741, Control_c, 0, 64, 45
2,18761, Control_c, 0, 64, 44
2,18780, Control_c, 0, 64, 40
2,18793, Note_on_c, 0, 59, 0
2,18798, Control_c, 0, 64, 27
2,18818, Control_c, 0, 64, 0
2,19067, Control_c, 0, 64, 20
2,19087, Control_c, 0, 64, 44
2,19106, Control_c, 0, 64, 58
2,19126, Control_c, 0, 64, 63
2,19144, Control_c, 0, 64, 66
2,19164, Control_c, 0, 64, 68
2,19183, Control_c, 0, 64, 74
2,19202, Control_c, 0, 64, 85
2,19221, Control_c, 0, 64, 102
2,19241, Control_c, 0, 64, 127
2,19287, Note_on_c, 0, 63, 0
2,19664, Control_c, 0, 64, 109
2,19683, Control_c, 0, 64, 99
2,19696, Note_on_c, 0, 62, 63
2,19702, Control_c, 0, 64, 91
2,19722, Control_c, 0, 64, 84
2,19741, Control_c, 0, 64, 79
2,19760, Control_c, 0, 64, 74
2,19779, Control_c, 0, 64, 70
2,19798, Control_c, 0, 64, 67
2,19817, Control_c, 0, 64, 64
2,19836, Control_c, 0, 64, 61
2,19856, Control_c, 0, 64, 58
2,19874, Note_on_c, 0, 60, 0
2,19875, Control_c, 0, 64, 56
2,19894, Control_c, 0, 64, 55
2,19913, Control_c, 0, 64, 53
2,19933, Control_c, 0, 64, 51
2,19951, Control_c, 0, 64, 49
2,19971, Control_c, 0, 64, 46
2,19990, Control_c, 0, 64, 44
2,20010, Control_c, 0, 64, 42
2,20028, Control_c, 0, 64, 38
2,20048, Control_c, 0, 64, 35
2,20067, Control_c, 0, 64, 31
2,20087, Control_c, 0, 64, 28
2,20105, Control_c, 0, 64, 25
2,20107, Note_on_c, 0, 59, 49
2,20125, Control_c, 0, 64, 23
2,20144, Control_c, 0, 64, 21
2,20163, Control_c, 0, 64, 20
2,20182, Control_c, 0, 64, 19
2,20323, Note_on_c, 0, 59, 0
2,20334, Note_on_c, 0, 57, 52
2,20431, Control_c, 0, 64, 20
2,20450, Control_c, 0, 64, 21
2,20489, Control_c, 0, 64, 22
2,20527, Control_c, 0, 64, 23
2,20540, Note_on_c, 0, 57, 0
2,20555, Note_on_c, 0, 60, 51
2,20566, Control_c, 0, 64, 24
2,20662, Note_on_c, 0, 60, 0
2,20671, Note_on_c, 0, 59, 62
2,20746, Note_on_c, 0, 59, 0
2,20757, Control_c, 0, 64, 25
2,20771, Note_on_c, 0, 60, 56
2,20852, Note_on_c, 0, 60, 0
2,20854, Note_on_c, 0, 59, 68
2,20923, Note_on_c, 0, 59, 0
2,20943, Note_on_c, 0, 60, 56
2,20995, Note_on_c, 0, 62, 0
2,21000, Note_on_c, 0, 59, 54
2,21004, Note_on_c, 0, 60, 0
2,21058, Note_on_c, 0, 59, 0
2,21094, Note_on_c, 0, 60, 63
2,21200, Note_on_c, 0, 60, 0
2,21214, Note_on_c, 0, 59, 54
2,21449, Control_c, 0, 64, 26
2,21467, Control_c, 0, 64, 35
2,21468, Note_on_c, 0, 60, 55
2,21481, Note_on_c, 0, 59, 0
2,21487, Control_c, 0, 64, 47
2,21506, Control_c, 0, 64, 55
2,21526, Control_c, 0, 64, 60
2,21544, Control_c, 0, 64, 62
2,21564, Control_c, 0, 64, 64
2,21583, Control_c, 0, 64, 68
2,21602, Control_c, 0, 64, 74
2,21621, Control_c, 0, 64, 85
2,21641, Control_c, 0, 64, 95
2,21660, Control_c, 0, 64, 102
2,21678, Control_c, 0, 64, 105
2,21697, Note_on_c, 0, 60, 0
2,21698, Control_c, 0, 64, 105
2,21775, Control_c, 0, 64, 105
2,21794, Control_c, 0, 64, 104
2,21813, Control_c, 0, 64, 102
2,21832, Control_c, 0, 64, 99
2,21852, Control_c, 0, 64, 94
2,21871, Control_c, 0, 64, 89
2,21890, Control_c, 0, 64, 81
2,21909, Control_c, 0, 64, 73
2,21918, Note_on_c, 0, 60, 52
2,21927, Note_on_c, 0, 55, 44
2,21929, Control_c, 0, 64, 67
2,21947, Control_c, 0, 64, 61
2,21967, Control_c, 0, 64, 53
2,21986, Control_c, 0, 64, 45
2,22006, Control_c, 0, 64, 42
2,22024, Control_c, 0, 64, 43
2,22044, Control_c, 0, 64, 46
2,22063, Control_c, 0, 64, 51
2,22082, Control_c, 0, 64, 56
2,22101, Control_c, 0, 64, 60
2,22121, Control_c, 0, 64, 62
2,22122, Note_on_c, 0, 62, 64
2,22140, Control_c, 0, 64, 64
2,22147, Note_on_c, 0, 60, 0
2,22160, Control_c, 0, 64, 66
2,22179, Control_c, 0, 64, 69
2,22198, Control_c, 0, 64, 75
2,22217, Control_c, 0, 64, 85
2,22236, Control_c, 0, 64, 93
2,22256, Control_c, 0, 64, 95
2,22294, Control_c, 0, 64, 95
2,22313, Control_c, 0, 64, 91
2,22333, Control_c, 0, 64, 83
2,22351, Control_c, 0, 64, 73
2,22358, Note_on_c, 0, 64, 62
2,22371, Control_c, 0, 64, 64
2,22373, Note_on_c, 0, 48, 69
2,22373, Note_on_c, 0, 60, 64
2,22390, Control_c, 0, 64, 53
2,22391, Note_on_c, 0, 62, 0
2,22392, Note_on_c, 0, 55, 0
2,22410, Control_c, 0, 64, 19
2,22428, Control_c, 0, 64, 0
2,22487, Control_c, 0, 64, 19
2,22505, Control_c, 0, 64, 43
2,22525, Control_c, 0, 64, 57
2,22544, Control_c, 0, 64, 62
2,22563, Control_c, 0, 64, 64
2,22582, Control_c, 0, 64, 65
2,22602, Control_c, 0, 64, 67
2,22621, Control_c, 0, 64, 71
2,22631, Note_on_c, 0, 64, 0
2,22640, Control_c, 0, 64, 77
2,22659, Control_c, 0, 64, 83
2,22678, Control_c, 0, 64, 86
2,22716, Control_c, 0, 64, 85
2,22736, Control_c, 0, 64, 83
2,22755, Control_c, 0, 64, 81
2,22774, Control_c, 0, 64, 74
2,22793, Control_c, 0, 64, 66
2,22802, Note_on_c, 0, 62, 54
2,22813, Control_c, 0, 64, 59
2,22816, Note_on_c, 0, 58, 52
2,22831, Control_c, 0, 64, 42
2,22851, Control_c, 0, 64, 22
2,22870, Control_c, 0, 64, 34
2,22890, Control_c, 0, 64, 49
2,22908, Control_c, 0, 64, 58
2,22928, Control_c, 0, 64, 63
2,22929, Note_on_c, 0, 60, 0
2,22947, Control_c, 0, 64, 65
2,22967, Control_c, 0, 64, 68
2,22970, Note_on_c, 0, 48, 0
2,22985, Control_c, 0, 64, 74
2,23003, Note_on_c, 0, 58, 0
2,23005, Control_c, 0, 64, 84
2,23014, Note_on_c, 0, 64, 66
2,23024, Control_c, 0, 64, 98
2,23041, Note_on_c, 0, 62, 0
2,23043, Control_c, 0, 64, 114
2,23062, Control_c, 0, 64, 127
2,23195, Control_c, 0, 64, 99
2,23215, Control_c, 0, 64, 80
2,23231, Note_on_c, 0, 49, 80
2,23234, Control_c, 0, 64, 66
2,23247, Note_on_c, 0, 65, 66
2,23248, Note_on_c, 0, 56, 56
2,23253, Control_c, 0, 64, 48
2,23268, Note_on_c, 0, 64, 0
2,23272, Control_c, 0, 64, 0
2,23369, Control_c, 0, 64, 39
2,23387, Control_c, 0, 64, 55
2,23407, Control_c, 0, 64, 62
2,23426, Control_c, 0, 64, 63
2,23437, Note_on_c, 0, 56, 0
2,23446, Control_c, 0, 64, 64
2,23450, Note_on_c, 0, 52, 65
2,23464, Control_c, 0, 64, 65
2,23484, Control_c, 0, 64, 66
2,23503, Control_c, 0, 64, 68
2,23522, Control_c, 0, 64, 71
2,23531, Note_on_c, 0, 65, 0
2,23541, Control_c, 0, 64, 74
2,23561, Control_c, 0, 64, 75
2,23580, Control_c, 0, 64, 74
2,23598, Control_c, 0, 64, 73
2,23618, Control_c, 0, 64, 71
2,23636, Note_on_c, 0, 52, 0
2,23637, Control_c, 0, 64, 68
2,23656, Control_c, 0, 64, 62
2,23665, Note_on_c, 0, 53, 64
2,23666, Note_on_c, 0, 65, 75
2,23675, Control_c, 0, 64, 46
2,23695, Control_c, 0, 64, 0
2,23810, Control_c, 0, 64, 46
2,23829, Control_c, 0, 64, 60
2,23835, Note_on_c, 0, 53, 0
2,23849, Control_c, 0, 64, 64
2,23866, Note_on_c, 0, 55, 69
2,23867, Control_c, 0, 64, 66
2,23887, Control_c, 0, 64, 67
2,23906, Control_c, 0, 64, 71
2,23926, Control_c, 0, 64, 78
2,23944, Control_c, 0, 64, 89
2,23964, Control_c, 0, 64, 96
2,23983, Control_c, 0, 64, 96
2,23986, Note_on_c, 0, 49, 0
2,24021, Control_c, 0, 64, 96
2,24041, Control_c, 0, 64, 93
2,24060, Control_c, 0, 64, 86
2,24079, Control_c, 0, 64, 77
2,24099, Control_c, 0, 64, 66
2,24111, Note_on_c, 0, 56, 78
2,24112, Note_on_c, 0, 48, 70
2,24118, Control_c, 0, 64, 59
2,24131, Note_on_c, 0, 55, 0
2,24137, Control_c, 0, 64, 47
2,24156, Control_c, 0, 64, 31
2,24176, Control_c, 0, 64, 26
2,24214, Control_c, 0, 64, 25
2,24226, Note_on_c, 0, 65, 0
2,24253, Control_c, 0, 64, 24
2,24271, Control_c, 0, 64, 23
2,24291, Control_c, 0, 64, 21
2,24310, Control_c, 0, 64, 18
2,24330, Control_c, 0, 64, 15
2,24348, Control_c, 0, 64, 9
2,24368, Control_c, 0, 64, 0
2,24541, Control_c, 0, 64, 13
2,24558, Note_on_c, 0, 63, 67
2,24559, Control_c, 0, 64, 27
2,24579, Control_c, 0, 64, 40
2,24598, Control_c, 0, 64, 51
2,24617, Control_c, 0, 64, 59
2,24636, Control_c, 0, 64, 63
2,24656, Control_c, 0, 64, 65
2,24675, Control_c, 0, 64, 68
2,24694, Control_c, 0, 64, 76
2,24713, Control_c, 0, 64, 91
2,24733, Control_c, 0, 64, 127
2,24912, Note_on_c, 0, 56, 0
2,24932, Note_on_c, 0, 48, 0
2,24963, Control_c, 0, 64, 110
2,24982, Control_c, 0, 64, 87
2,24983, Note_on_c, 0, 47, 70
2,24994, Note_on_c, 0, 62, 66
2,25002, Control_c, 0, 64, 73
2,25021, Control_c, 0, 64, 65
2,25031, Note_on_c, 0, 63, 0
2,25039, Control_c, 0, 64, 57
2,25059, Control_c, 0, 64, 44
2,25078, Control_c, 0, 64, 39
2,25136, Control_c, 0, 64, 38
2,25155, Control_c, 0, 64, 37
2,25174, Control_c, 0, 64, 36
2,25193, Control_c, 0, 64, 36
2,25201, Note_on_c, 0, 53, 67
2,25347, Control_c, 0, 64, 35
2,25367, Control_c, 0, 64, 33
2,25385, Control_c, 0, 64, 29
2,25385, Note_on_c, 0, 53, 0
2,25403, Note_on_c, 0, 55, 65
2,25403, Note_on_c, 0, 63, 69
2,25405, Control_c, 0, 64, 24
2,25424, Control_c, 0, 64, 21
2,25443, Control_c, 0, 64, 17
2,25462, Control_c, 0, 64, 0
2,25558, Control_c, 0, 64, 19
2,25577, Control_c, 0, 64, 41
2,25577, Note_on_c, 0, 62, 0
2,25596, Control_c, 0, 64, 57
2,25607, Note_on_c, 0, 47, 0
2,25609, Note_on_c, 0, 56, 67
2,25614, Note_on_c, 0, 55, 0
2,25616, Control_c, 0, 64, 63
2,25635, Control_c, 0, 64, 66
2,25646, Note_on_c, 0, 65, 47
2,25654, Control_c, 0, 64, 70
2,25673, Control_c, 0, 64, 75
2,25693, Control_c, 0, 64, 81
2,25711, Control_c, 0, 64, 87
2,25731, Control_c, 0, 64, 90
2,25771, Note_on_c, 0, 63, 0
2,25788, Note_on_c, 0, 56, 0
2,25837, Note_on_c, 0, 52, 72
2,25837, Note_on_c, 0, 65, 0
2,25838, Note_on_c, 0, 58, 76
2,25838, Note_on_c, 0, 67, 71
2,25847, Control_c, 0, 64, 89
2,25865, Control_c, 0, 64, 87
2,25885, Control_c, 0, 64, 81
2,25904, Control_c, 0, 64, 72
2,25923, Control_c, 0, 64, 64
2,25942, Control_c, 0, 64, 49
2,25962, Control_c, 0, 64, 9
2,25980, Control_c, 0, 64, 0
2,26029, Note_on_c, 0, 65, 60
2,26089, Note_on_c, 0, 67, 0
2,26267, Control_c, 0, 64, 28
2,26276, Note_on_c, 0, 64, 69
2,26287, Control_c, 0, 64, 49
2,26306, Control_c, 0, 64, 59
2,26326, Control_c, 0, 64, 62
2,26339, Note_on_c, 0, 65, 0
2,26344, Control_c, 0, 64, 64
2,26348, Note_on_c, 0, 58, 0
2,26364, Control_c, 0, 64, 67
2,26383, Control_c, 0, 64, 72
2,26402, Control_c, 0, 64, 84
2,26421, Control_c, 0, 64, 108
2,26441, Control_c, 0, 64, 127
2,26487, Note_on_c, 0, 62, 68
2,26527, Note_on_c, 0, 64, 0
2,26671, Control_c, 0, 64, 106
2,26671, Note_on_c, 0, 62, 0
2,26690, Control_c, 0, 64, 88
2,26690, Note_on_c, 0, 53, 69
2,26707, Note_on_c, 0, 60, 64
2,26709, Control_c, 0, 64, 74
2,26728, Note_on_c, 0, 52, 0
2,26729, Control_c, 0, 64, 65
2,26747, Control_c, 0, 64, 58
2,26767, Control_c, 0, 64, 46
2,26786, Control_c, 0, 64, 39
2,26806, Control_c, 0, 64, 38
2,26824, Control_c, 0, 64, 37
2,26844, Control_c, 0, 64, 36
2,26863, Control_c, 0, 64, 36
2,26919, Note_on_c, 0, 56, 67
2,26978, Control_c, 0, 64, 36
2,26997, Control_c, 0, 64, 40
2,27016, Control_c, 0, 64, 46
2,27021, Note_on_c, 0, 60, 0
2,27035, Control_c, 0, 64, 52
2,27055, Control_c, 0, 64, 57
2,27074, Control_c, 0, 64, 61
2,27093, Control_c, 0, 64, 63
2,27112, Control_c, 0, 64, 66
2,27132, Control_c, 0, 64, 70
2,27133, Note_on_c, 0, 58, 70
2,27151, Control_c, 0, 64, 76
2,27170, Control_c, 0, 64, 90
2,27189, Control_c, 0, 64, 127
2,27325, Note_on_c, 0, 60, 76
2,27388, Note_on_c, 0, 56, 0
2,27409, Note_on_c, 0, 58, 0
2,27535, Control_c, 0, 64, 104
2,27552, Note_on_c, 0, 53, 0
2,27553, Note_on_c, 0, 46, 66
2,27553, Note_on_c, 0, 61, 77
2,27554, Control_c, 0, 64, 86
2,27573, Control_c, 0, 64, 74
2,27575, Note_on_c, 0, 60, 0
2,27592, Control_c, 0, 64, 66
2,27612, Control_c, 0, 64, 58
2,27631, Control_c, 0, 64, 44
2,27650, Control_c, 0, 64, 21
2,27669, Control_c, 0, 64, 0
2,27763, Note_on_c, 0, 58, 62
2,27901, Control_c, 0, 64, 9
2,27919, Control_c, 0, 64, 36
2,27939, Control_c, 0, 64, 53
2,27958, Control_c, 0, 64, 60
2,27972, Note_on_c, 0, 56, 68
2,27977, Control_c, 0, 64, 63
2,27996, Control_c, 0, 64, 65
2,28016, Control_c, 0, 64, 68
2,28035, Control_c, 0, 64, 73
2,28054, Control_c, 0, 64, 83
2,28073, Control_c, 0, 64, 101
2,28082, Note_on_c, 0, 46, 0
2,28093, Control_c, 0, 64, 117
2,28111, Control_c, 0, 64, 127
2,28132, Note_on_c, 0, 61, 0
2,28172, Note_on_c, 0, 55, 65
2,28214, Note_on_c, 0, 58, 0
2,28304, Control_c, 0, 64, 114
2,28323, Control_c, 0, 64, 103
2,28342, Control_c, 0, 64, 95
2,28362, Control_c, 0, 64, 85
2,28364, Note_on_c, 0, 55, 0
2,28365, Note_on_c, 0, 56, 0
2,28381, Control_c, 0, 64, 77
2,28397, Note_on_c, 0, 45, 58
2,28397, Note_on_c, 0, 53, 66
2,28399, Control_c, 0, 64, 69
2,28419, Control_c, 0, 64, 63
2,28438, Control_c, 0, 64, 55
2,28457, Control_c, 0, 64, 41
2,28476, Control_c, 0, 64, 24
2,28496, Control_c, 0, 64, 0
2,28596, Note_on_c, 0, 60, 72
2,28696, Note_on_c, 0, 53, 0
2,28727, Control_c, 0, 64, 20
2,28745, Control_c, 0, 64, 35
2,28765, Control_c, 0, 64, 51
2,28784, Control_c, 0, 64, 59
2,28802, Note_on_c, 0, 62, 77
2,28803, Control_c, 0, 64, 63
2,28822, Control_c, 0, 64, 64
2,28842, Control_c, 0, 64, 67
2,28858, Control_c, 0, 64, 70
2,28881, Control_c, 0, 64, 78
2,28901, Control_c, 0, 64, 96
2,28920, Control_c, 0, 64, 127
2,29001, Note_on_c, 0, 64, 80
2,29049, Note_on_c, 0, 60, 0
2,29169, Control_c, 0, 64, 112
2,29189, Control_c, 0, 64, 95
2,29208, Control_c, 0, 64, 82
2,29213, Note_on_c, 0, 44, 71
2,29216, Note_on_c, 0, 45, 0
2,29223, Note_on_c, 0, 65, 81
2,29226, Note_on_c, 0, 62, 0
2,29227, Control_c, 0, 64, 71
2,29246, Control_c, 0, 64, 62
2,29251, Note_on_c, 0, 64, 0
2,29266, Control_c, 0, 64, 37
2,29284, Control_c, 0, 64, 0
2,29442, Note_on_c, 0, 53, 63
2,29632, Note_on_c, 0, 55, 68
2,29649, Control_c, 0, 64, 47
2,29669, Control_c, 0, 64, 61
2,29688, Control_c, 0, 64, 65
2,29707, Control_c, 0, 64, 67
2,29726, Control_c, 0, 64, 71
2,29746, Control_c, 0, 64, 76
2,29764, Control_c, 0, 64, 84
2,29784, Control_c, 0, 64, 92
2,29803, Control_c, 0, 64, 101
2,29822, Control_c, 0, 64, 110
2,29826, Note_on_c, 0, 56, 75
2,29839, Control_c, 0, 64, 127
2,29865, Note_on_c, 0, 55, 0
2,30050, Control_c, 0, 64, 117
2,30070, Control_c, 0, 64, 109
2,30089, Control_c, 0, 64, 101
2,30109, Control_c, 0, 64, 92
2,30113, Note_on_c, 0, 58, 71
2,30116, Note_on_c, 0, 43, 55
2,30116, Note_on_c, 0, 56, 0
2,30124, Note_on_c, 0, 44, 0
2,30127, Control_c, 0, 64, 81
2,30147, Control_c, 0, 64, 70
2,30166, Control_c, 0, 64, 61
2,30168, Note_on_c, 0, 53, 0
2,30185, Control_c, 0, 64, 47
2,30204, Control_c, 0, 64, 37
2,30224, Control_c, 0, 64, 36
2,30243, Control_c, 0, 64, 34
2,30262, Control_c, 0, 64, 31
2,30281, Control_c, 0, 64, 25
2,30301, Control_c, 0, 64, 20
2,30319, Control_c, 0, 64, 18
2,30339, Control_c, 0, 64, 15
2,30358, Control_c, 0, 64, 11
2,30378, Control_c, 0, 64, 0
2,30556, Note_on_c, 0, 64, 64
2,30558, Note_on_c, 0, 65, 0
2,30753, Note_on_c, 0, 62, 64
2,30776, Note_on_c, 0, 64, 0
2,31012, Note_on_c, 0, 62, 0
2,31020, Note_on_c, 0, 64, 62
2,31315, Control_c, 0, 64, 29
2,31335, Control_c, 0, 64, 43
2,31353, Control_c, 0, 64, 52
2,31373, Control_c, 0, 64, 57
2,31392, Control_c, 0, 64, 60
2,31412, Control_c, 0, 64, 63
2,31430, Control_c, 0, 64, 65
2,31439, Note_on_c, 0, 58, 0
2,31450, Control_c, 0, 64, 67
2,31453, Note_on_c, 0, 56, 50
2,31469, Control_c, 0, 64, 71
2,31469, Control_c, 0, 67, 9
2,31488, Control_c, 0, 64, 76
2,31488, Control_c, 0, 67, 14
2,31507, Control_c, 0, 64, 83
2,31507, Control_c, 0, 67, 20
2,31527, Control_c, 0, 64, 90
2,31527, Control_c, 0, 67, 24
2,31546, Control_c, 0, 64, 93
2,31546, Control_c, 0, 67, 25
2,31565, Control_c, 0, 64, 96
2,31565, Control_c, 0, 67, 25
2,31584, Control_c, 0, 64, 97
2,31584, Control_c, 0, 67, 24
2,31600, Note_on_c, 0, 64, 0
2,31604, Control_c, 0, 64, 97
2,31604, Control_c, 0, 67, 24
2,31610, Note_on_c, 0, 56, 0
2,31622, Control_c, 0, 64, 98
2,31642, Control_c, 0, 67, 23
2,31661, Control_c, 0, 67, 22
2,31666, Note_on_c, 0, 55, 48
2,31680, Control_c, 0, 67, 22
2,31699, Control_c, 0, 67, 21
2,31718, Control_c, 0, 67, 20
2,31756, Control_c, 0, 64, 97
2,31776, Control_c, 0, 64, 96
2,31776, Control_c, 0, 67, 20
2,31795, Control_c, 0, 64, 95
2,31795, Control_c, 0, 67, 19
2,31815, Control_c, 0, 64, 94
2,31815, Control_c, 0, 67, 19
2,31833, Control_c, 0, 64, 92
2,31833, Control_c, 0, 67, 18
2,31853, Control_c, 0, 64, 90
2,31872, Control_c, 0, 64, 87
2,31892, Control_c, 0, 64, 83
2,31910, Control_c, 0, 64, 76
2,31917, Note_on_c, 0, 65, 55
2,31926, Note_on_c, 0, 41, 40
2,31926, Note_on_c, 0, 55, 0
2,31930, Control_c, 0, 64, 66
2,31930, Control_c, 0, 67, 18
2,31949, Control_c, 0, 64, 55
2,31949, Control_c, 0, 67, 17
2,31952, Note_on_c, 0, 43, 0
2,31964, Note_on_c, 0, 56, 38
2,31968, Control_c, 0, 64, 0
2,32007, Control_c, 0, 67, 17
2,32084, Control_c, 0, 64, 33
2,32102, Control_c, 0, 64, 55
2,32120, Note_on_c, 0, 65, 0
2,32122, Control_c, 0, 64, 62
2,32141, Control_c, 0, 64, 65
2,32160, Control_c, 0, 64, 67
2,32179, Control_c, 0, 64, 69
2,32198, Control_c, 0, 64, 76
2,32218, Control_c, 0, 64, 83
2,32219, Note_on_c, 0, 41, 0
2,32236, Control_c, 0, 64, 88
2,32256, Control_c, 0, 64, 88
2,32295, Control_c, 0, 64, 88
2,32313, Control_c, 0, 64, 87
2,32333, Control_c, 0, 64, 86
2,32333, Control_c, 0, 67, 17
2,32352, Control_c, 0, 64, 85
2,32372, Control_c, 0, 64, 82
2,32390, Control_c, 0, 64, 79
2,32410, Control_c, 0, 64, 76
2,32410, Note_on_c, 0, 65, 50
2,32429, Control_c, 0, 64, 74
2,32448, Control_c, 0, 64, 72
2,32467, Control_c, 0, 64, 70
2,32487, Control_c, 0, 64, 69
2,32506, Control_c, 0, 64, 68
2,32525, Control_c, 0, 64, 67
2,32544, Control_c, 0, 64, 66
2,32555, Note_on_c, 0, 56, 0
2,32564, Control_c, 0, 64, 65
2,32582, Control_c, 0, 64, 64
2,32602, Control_c, 0, 64, 63
2,32608, Note_on_c, 0, 67, 50
2,32621, Control_c, 0, 64, 63
2,32640, Control_c, 0, 64, 62
2,32659, Control_c, 0, 64, 62
2,32659, Note_on_c, 0, 65, 0
2,32678, Control_c, 0, 64, 61
2,32697, Control_c, 0, 64, 60
2,32717, Control_c, 0, 64, 59
2,32737, Control_c, 0, 64, 57
2,32756, Control_c, 0, 64, 54
2,32776, Control_c, 0, 64, 47
2,32776, Control_c, 0, 67, 18
2,32794, Control_c, 0, 64, 29
2,32794, Control_c, 0, 67, 18
2,32814, Control_c, 0, 64, 0
2,32833, Control_c, 0, 67, 19
2,32848, Note_on_c, 0, 67, 0
2,32852, Control_c, 0, 67, 19
2,32854, Note_on_c, 0, 68, 52
2,32891, Control_c, 0, 67, 20
2,32948, Control_c, 0, 64, 29
2,32968, Control_c, 0, 64, 51
2,32968, Control_c, 0, 67, 19
2,32986, Control_c, 0, 64, 60
2,33006, Control_c, 0, 64, 63
2,33006, Control_c, 0, 67, 19
2,33025, Control_c, 0, 64, 65
2,33045, Control_c, 0, 64, 66
2,33045, Control_c, 0, 67, 18
2,33063, Control_c, 0, 64, 69
2,33079, Note_on_c, 0, 68, 0
2,33083, Control_c, 0, 64, 75
2,33102, Control_c, 0, 64, 81
2,33122, Control_c, 0, 64, 85
2,33159, Control_c, 0, 64, 84
2,33179, Control_c, 0, 64, 83
2,33217, Control_c, 0, 64, 82
2,33236, Control_c, 0, 64, 80
2,33256, Control_c, 0, 64, 79
2,33274, Control_c, 0, 64, 77
2,33288, Note_on_c, 0, 68, 52
2,33294, Control_c, 0, 64, 74
2,33294, Note_on_c, 0, 53, 43
2,33313, Control_c, 0, 64, 71
2,33332, Control_c, 0, 64, 69
2,33351, Control_c, 0, 64, 68
2,33371, Control_c, 0, 64, 68
2,33390, Control_c, 0, 64, 67
2,33409, Control_c, 0, 64, 66
2,33428, Control_c, 0, 64, 65
2,33448, Control_c, 0, 64, 64
2,33448, Control_c, 0, 67, 18
2,33466, Control_c, 0, 64, 62
2,33485, Note_on_c, 0, 70, 70
2,33486, Control_c, 0, 64, 60
2,33492, Note_on_c, 0, 53, 0
2,33505, Control_c, 0, 64, 57
2,33506, Note_on_c, 0, 55, 47
2,33525, Control_c, 0, 64, 54
2,33541, Note_on_c, 0, 68, 0
2,33543, Control_c, 0, 64, 49
2,33543, Control_c, 0, 67, 17
2,33563, Control_c, 0, 64, 41
2,33582, Control_c, 0, 64, 24
2,33602, Control_c, 0, 64, 0
2,33741, Note_on_c, 0, 55, 0
2,33745, Note_on_c, 0, 72, 68
2,33762, Note_on_c, 0, 56, 49
2,33778, Note_on_c, 0, 70, 0
2,33793, Control_c, 0, 67, 17
2,33851, Control_c, 0, 64, 40
2,33870, Control_c, 0, 64, 56
2,33889, Control_c, 0, 64, 61
2,33908, Control_c, 0, 64, 64
2,33908, Control_c, 0, 67, 16
2,33928, Control_c, 0, 64, 65
2,33946, Control_c, 0, 64, 69
2,33966, Control_c, 0, 64, 75
2,33985, Control_c, 0, 64, 86
2,33990, Note_on_c, 0, 56, 0
2,34005, Control_c, 0, 64, 95
2,34005, Control_c, 0, 67, 16
2,34023, Control_c, 0, 64, 96
2,34043, Control_c, 0, 64, 96
2,34081, Control_c, 0, 64, 95
2,34100, Control_c, 0, 64, 94
2,34119, Control_c, 0, 64, 91
2,34139, Control_c, 0, 64, 86
2,34157, Control_c, 0, 64, 78
2,34165, Note_on_c, 0, 56, 55
2,34173, Note_on_c, 0, 60, 51
2,34177, Control_c, 0, 64, 69
2,34196, Control_c, 0, 64, 62
2,34216, Control_c, 0, 64, 49
2,34234, Control_c, 0, 64, 0
2,34292, Control_c, 0, 64, 13
2,34311, Control_c, 0, 64, 36
2,34331, Control_c, 0, 64, 51
2,34350, Control_c, 0, 64, 59
2,34369, Control_c, 0, 64, 62
2,34378, Note_on_c, 0, 56, 0
2,34382, Note_on_c, 0, 60, 0
2,34386, Note_on_c, 0, 58, 52
2,34388, Control_c, 0, 64, 64
2,34389, Note_on_c, 0, 61, 55
2,34408, Control_c, 0, 64, 65
2,34426, Control_c, 0, 64, 67
2,34446, Control_c, 0, 64, 70
2,34457, Note_on_c, 0, 61, 0
2,34465, Control_c, 0, 64, 75
2,34485, Control_c, 0, 64, 79
2,34503, Control_c, 0, 64, 80
2,34542, Control_c, 0, 64, 79
2,34542, Control_c, 0, 67, 16
2,34557, Note_on_c, 0, 58, 0
2,34561, Control_c, 0, 64, 77
2,34580, Control_c, 0, 64, 74
2,34599, Control_c, 0, 64, 69
2,34599, Control_c, 0, 67, 17
2,34611, Note_on_c, 0, 63, 59
2,34615, Note_on_c, 0, 60, 46
2,34619, Control_c, 0, 64, 64
2,34637, Control_c, 0, 64, 55
2,34657, Control_c, 0, 64, 28
2,34676, Control_c, 0, 64, 0
2,34753, Control_c, 0, 64, 33
2,34772, Control_c, 0, 64, 53
2,34791, Control_c, 0, 64, 61
2,34811, Control_c, 0, 64, 64
2,34812, Note_on_c, 0, 70, 73
2,34830, Control_c, 0, 64, 65
2,34849, Control_c, 0, 64, 67
2,34868, Control_c, 0, 64, 70
2,34875, Note_on_c, 0, 60, 0
2,34888, Control_c, 0, 64, 77
2,34900, Note_on_c, 0, 72, 0
2,34906, Control_c, 0, 64, 85
2,34926, Control_c, 0, 64, 90
2,34965, Control_c, 0, 64, 89
2,34983, Control_c, 0, 64, 87
2,35003, Control_c, 0, 64, 82
2,35016, Note_on_c, 0, 48, 49
2,35022, Control_c, 0, 64, 74
2,35026, Note_on_c, 0, 68, 73
2,35041, Control_c, 0, 64, 65
2,35051, Note_on_c, 0, 70, 0
2,35060, Control_c, 0, 64, 54
2,35079, Control_c, 0, 64, 0
2,35137, Control_c, 0, 64, 13
2,35156, Control_c, 0, 64, 42
2,35176, Control_c, 0, 64, 56
2,35194, Control_c, 0, 64, 62
2,35214, Control_c, 0, 64, 64
2,35214, Control_c, 0, 67, 17
2,35222, Note_on_c, 0, 68, 0
2,35233, Control_c, 0, 64, 66
2,35241, Note_on_c, 0, 67, 61
2,35252, Control_c, 0, 64, 68
2,35271, Control_c, 0, 64, 73
2,35291, Control_c, 0, 64, 82
2,35310, Control_c, 0, 64, 90
2,35329, Control_c, 0, 64, 93
2,35463, Control_c, 0, 64, 92
2,35483, Control_c, 0, 64, 90
2,35502, Control_c, 0, 64, 86
2,35521, Control_c, 0, 64, 82
2,35540, Control_c, 0, 64, 78
2,35547, Note_on_c, 0, 65, 61
2,35559, Control_c, 0, 64, 75
2,35560, Note_on_c, 0, 49, 53
2,35576, Control_c, 0, 64, 72
2,35576, Control_c, 0, 67, 18
2,35597, Control_c, 0, 64, 69
2,35614, Note_on_c, 0, 67, 0
2,35617, Control_c, 0, 64, 67
2,35617, Control_c, 0, 67, 18
2,35636, Control_c, 0, 64, 63
2,35641, Note_on_c, 0, 63, 0
2,35656, Control_c, 0, 64, 59
2,35671, Note_on_c, 0, 48, 0
2,35674, Control_c, 0, 64, 55
2,35694, Control_c, 0, 64, 49
2,35713, Control_c, 0, 64, 45
2,35732, Control_c, 0, 64, 41
2,35751, Control_c, 0, 64, 36
2,35771, Control_c, 0, 64, 30
2,35790, Control_c, 0, 64, 23
2,35809, Control_c, 0, 64, 17
2,35828, Control_c, 0, 64, 9
2,35828, Control_c, 0, 67, 19
2,35848, Control_c, 0, 64, 0
2,36007, Note_on_c, 0, 61, 47
2,36136, Control_c, 0, 67, 18
2,36205, Note_on_c, 0, 63, 56
2,36220, Note_on_c, 0, 65, 0
2,36313, Note_on_c, 0, 61, 0
2,36455, Note_on_c, 0, 65, 47
2,36456, Note_on_c, 0, 63, 0
2,36477, Note_on_c, 0, 49, 0
2,36481, Control_c, 0, 64, 18
2,36500, Control_c, 0, 64, 37
2,36519, Control_c, 0, 64, 50
2,36539, Control_c, 0, 64, 58
2,36557, Control_c, 0, 64, 62
2,36557, Control_c, 0, 67, 18
2,36577, Control_c, 0, 64, 64
2,36596, Control_c, 0, 64, 65
2,36616, Control_c, 0, 64, 68
2,36634, Control_c, 0, 64, 72
2,36654, Control_c, 0, 64, 76
2,36673, Control_c, 0, 64, 79
2,36692, Control_c, 0, 64, 79
2,36702, Note_on_c, 0, 65, 0
2,36711, Control_c, 0, 64, 79
2,36731, Control_c, 0, 64, 78
2,36750, Control_c, 0, 64, 78
2,36769, Control_c, 0, 64, 77
2,36788, Control_c, 0, 64, 76
2,36808, Control_c, 0, 64, 75
2,36826, Control_c, 0, 64, 74
2,36846, Control_c, 0, 64, 73
2,36865, Control_c, 0, 64, 71
2,36880, Note_on_c, 0, 65, 55
2,36883, Note_on_c, 0, 49, 47
2,36885, Control_c, 0, 64, 68
2,36903, Control_c, 0, 64, 66
2,36923, Control_c, 0, 64, 64
2,36942, Control_c, 0, 64, 63
2,36961, Control_c, 0, 64, 63
2,36980, Control_c, 0, 64, 61
2,36999, Control_c, 0, 64, 60
2,37019, Control_c, 0, 64, 57
2,37037, Control_c, 0, 64, 55
2,37057, Control_c, 0, 64, 52
2,37073, Note_on_c, 0, 49, 0
2,37076, Control_c, 0, 64, 48
2,37087, Note_on_c, 0, 67, 65
2,37095, Note_on_c, 0, 51, 49
2,37096, Control_c, 0, 64, 42
2,37105, Note_on_c, 0, 65, 0
2,37114, Control_c, 0, 64, 33
2,37134, Control_c, 0, 64, 18
2,37153, Control_c, 0, 64, 0
2,37304, Note_on_c, 0, 51, 0
2,37306, Control_c, 0, 67, 17
2,37315, Note_on_c, 0, 53, 45
2,37333, Note_on_c, 0, 68, 69
2,37345, Control_c, 0, 67, 17
2,37357, Note_on_c, 0, 67, 0
2,37383, Control_c, 0, 64, 26
2,37383, Control_c, 0, 67, 16
2,37403, Control_c, 0, 64, 46
2,37403, Control_c, 0, 67, 15
2,37422, Control_c, 0, 64, 58
2,37441, Control_c, 0, 64, 61
2,37460, Control_c, 0, 64, 63
2,37460, Control_c, 0, 67, 15
2,37479, Control_c, 0, 64, 64
2,37500, Control_c, 0, 64, 66
2,37500, Control_c, 0, 67, 14
2,37518, Control_c, 0, 64, 68
2,37523, Note_on_c, 0, 53, 0
2,37538, Control_c, 0, 64, 69
2,37538, Control_c, 0, 67, 14
2,37557, Control_c, 0, 64, 70
2,37615, Control_c, 0, 64, 70
2,37672, Control_c, 0, 64, 69
2,37692, Control_c, 0, 64, 68
2,37711, Control_c, 0, 64, 66
2,37730, Control_c, 0, 64, 63
2,37735, Note_on_c, 0, 56, 57
2,37749, Control_c, 0, 64, 57
2,37749, Control_c, 0, 67, 13
2,37749, Note_on_c, 0, 53, 39
2,37769, Control_c, 0, 64, 49
2,37787, Control_c, 0, 64, 31
2,37807, Control_c, 0, 64, 0
2,37884, Control_c, 0, 64, 30
2,37903, Control_c, 0, 64, 47
2,37921, Control_c, 0, 64, 57
2,37924, Note_on_c, 0, 56, 0
2,37941, Control_c, 0, 64, 60
2,37945, Note_on_c, 0, 53, 0
2,37953, Note_on_c, 0, 55, 51
2,37955, Note_on_c, 0, 58, 56
2,37960, Control_c, 0, 64, 61
2,37980, Control_c, 0, 64, 63
2,37998, Control_c, 0, 64, 64
2,38018, Control_c, 0, 64, 65
2,38037, Control_c, 0, 64, 66
2,38057, Control_c, 0, 64, 66
2,38112, Note_on_c, 0, 58, 0
2,38114, Control_c, 0, 64, 66
2,38133, Control_c, 0, 64, 65
2,38141, Note_on_c, 0, 55, 0
2,38152, Control_c, 0, 64, 63
2,38172, Control_c, 0, 64, 57
2,38181, Note_on_c, 0, 60, 53
2,38183, Note_on_c, 0, 56, 51
2,38191, Control_c, 0, 64, 50
2,38210, Control_c, 0, 64, 41
2,38229, Control_c, 0, 64, 27
2,38249, Control_c, 0, 64, 26
2,38267, Control_c, 0, 64, 34
2,38287, Control_c, 0, 64, 46
2,38287, Control_c, 0, 67, 13
2,38306, Control_c, 0, 64, 56
2,38306, Control_c, 0, 67, 12
2,38326, Control_c, 0, 64, 61
2,38326, Control_c, 0, 67, 12
2,38344, Control_c, 0, 64, 63
2,38344, Control_c, 0, 67, 11
2,38361, Note_on_c, 0, 66, 65
2,38364, Control_c, 0, 64, 64
2,38364, Control_c, 0, 67, 10
2,38383, Control_c, 0, 64, 66
2,38383, Control_c, 0, 67, 8
2,38385, Note_on_c, 0, 68, 0
2,38401, Control_c, 0, 64, 68
2,38401, Control_c, 0, 67, 0
2,38421, Control_c, 0, 64, 74
2,38440, Control_c, 0, 64, 83
2,38460, Control_c, 0, 64, 91
2,38478, Control_c, 0, 64, 93
2,38517, Control_c, 0, 64, 92
2,38537, Control_c, 0, 64, 91
2,38555, Control_c, 0, 64, 88
2,38575, Control_c, 0, 64, 81
2,38576, Note_on_c, 0, 65, 71
2,38589, Note_on_c, 0, 44, 49
2,38589, Note_on_c, 0, 66, 0
2,38594, Control_c, 0, 64, 70
2,38613, Control_c, 0, 64, 62
2,38632, Control_c, 0, 64, 48
2,38638, Note_on_c, 0, 56, 0
2,38652, Control_c, 0, 64, 24
2,38671, Control_c, 0, 64, 27
2,38690, Control_c, 0, 64, 38
2,38709, Control_c, 0, 64, 49
2,38729, Control_c, 0, 64, 57
2,38747, Control_c, 0, 64, 61
2,38767, Control_c, 0, 64, 63
2,38786, Control_c, 0, 64, 64
2,38791, Note_on_c, 0, 63, 72
2,38806, Control_c, 0, 64, 66
2,38824, Control_c, 0, 64, 69
2,38844, Control_c, 0, 64, 74
2,38863, Control_c, 0, 64, 81
2,38881, Control_c, 0, 64, 86
2,38897, Note_on_c, 0, 65, 0
2,38920, Control_c, 0, 64, 86
2,38940, Control_c, 0, 64, 84
2,38958, Control_c, 0, 64, 83
2,38978, Control_c, 0, 64, 82
2,38997, Control_c, 0, 64, 80
2,39017, Control_c, 0, 64, 77
2,39035, Control_c, 0, 64, 74
2,39055, Control_c, 0, 64, 69
2,39074, Control_c, 0, 64, 65
2,39077, Note_on_c, 0, 46, 50
2,39079, Note_on_c, 0, 61, 60
2,39093, Control_c, 0, 64, 63
2,39112, Control_c, 0, 64, 61
2,39132, Control_c, 0, 64, 58
2,39148, Note_on_c, 0, 44, 0
2,39151, Control_c, 0, 64, 55
2,39155, Note_on_c, 0, 60, 0
2,39170, Control_c, 0, 64, 50
2,39189, Control_c, 0, 64, 45
2,39209, Control_c, 0, 64, 39
2,39213, Note_on_c, 0, 63, 0
2,39227, Control_c, 0, 64, 31
2,39247, Control_c, 0, 64, 22
2,39266, Control_c, 0, 64, 0
2,39524, Note_on_c, 0, 58, 49
2,39709, Note_on_c, 0, 58, 0
2,39734, Note_on_c, 0, 60, 52
2,39734, Note_on_c, 0, 61, 0
2,39971, Note_on_c, 0, 60, 0
2,39979, Note_on_c, 0, 61, 56
2,40033, Control_c, 0, 64, 34
2,40052, Control_c, 0, 64, 52
2,40071, Control_c, 0, 64, 59
2,40084, Note_on_c, 0, 46, 0
2,40091, Control_c, 0, 64, 62
2,40110, Control_c, 0, 64, 63
2,40129, Control_c, 0, 64, 64
2,40148, Control_c, 0, 64, 66
2,40168, Control_c, 0, 64, 69
2,40186, Control_c, 0, 64, 73
2,40206, Control_c, 0, 64, 76
2,40245, Control_c, 0, 64, 76
2,40249, Note_on_c, 0, 61, 0
2,40263, Control_c, 0, 64, 75
2,40282, Control_c, 0, 64, 73
2,40302, Control_c, 0, 64, 72
2,40321, Control_c, 0, 64, 71
2,40340, Control_c, 0, 64, 69
2,40359, Control_c, 0, 64, 68
2,40379, Control_c, 0, 64, 66
2,40397, Control_c, 0, 64, 65
2,40416, Note_on_c, 0, 61, 51
2,40417, Control_c, 0, 64, 64
2,40418, Note_on_c, 0, 46, 42
2,40436, Control_c, 0, 64, 63
2,40456, Control_c, 0, 64, 61
2,40474, Control_c, 0, 64, 59
2,40494, Control_c, 0, 64, 56
2,40513, Control_c, 0, 64, 52
2,40532, Control_c, 0, 64, 47
2,40551, Control_c, 0, 64, 42
2,40571, Control_c, 0, 64, 37
2,40590, Control_c, 0, 64, 31
2,40609, Control_c, 0, 64, 24
2,40615, Note_on_c, 0, 48, 46
2,40617, Note_on_c, 0, 63, 62
2,40628, Control_c, 0, 64, 13
2,40648, Control_c, 0, 64, 0
2,40651, Note_on_c, 0, 46, 0
2,40714, Note_on_c, 0, 61, 0
2,40829, Note_on_c, 0, 48, 0
2,40857, Note_on_c, 0, 49, 47
2,40876, Note_on_c, 0, 65, 62
2,40877, Control_c, 0, 64, 17
2,40889, Note_on_c, 0, 63, 0
2,40896, Control_c, 0, 64, 43
2,40914, Control_c, 0, 64, 56
2,40933, Control_c, 0, 64, 61
2,40951, Control_c, 0, 64, 63
2,40971, Control_c, 0, 64, 64
2,40990, Control_c, 0, 64, 67
2,41009, Control_c, 0, 64, 71
2,41028, Control_c, 0, 64, 79
2,41048, Control_c, 0, 64, 87
2,41067, Control_c, 0, 64, 91
2,41076, Note_on_c, 0, 49, 0
2,41105, Control_c, 0, 64, 90
2,41143, Control_c, 0, 64, 90
2,41163, Control_c, 0, 64, 89
2,41182, Control_c, 0, 64, 88
2,41202, Control_c, 0, 64, 84
2,41220, Control_c, 0, 64, 77
2,41240, Control_c, 0, 64, 68
2,41259, Control_c, 0, 64, 61
2,41279, Control_c, 0, 64, 47
2,41284, Note_on_c, 0, 49, 42
2,41291, Note_on_c, 0, 53, 55
2,41297, Control_c, 0, 64, 39
2,41317, Control_c, 0, 64, 47
2,41334, Control_c, 0, 64, 55
2,41355, Control_c, 0, 64, 59
2,41369, Note_on_c, 0, 53, 0
2,41374, Control_c, 0, 64, 61
2,41394, Control_c, 0, 64, 63
2,41413, Control_c, 0, 64, 64
2,41431, Control_c, 0, 64, 66
2,41451, Control_c, 0, 64, 67
2,41470, Control_c, 0, 64, 67
2,41488, Note_on_c, 0, 49, 0
2,41499, Note_on_c, 0, 51, 47
2,41506, Note_on_c, 0, 55, 57
2,41547, Control_c, 0, 64, 67
2,41585, Control_c, 0, 64, 66
2,41643, Control_c, 0, 64, 66
2,41662, Control_c, 0, 64, 65
2,41682, Control_c, 0, 64, 63
2,41685, Note_on_c, 0, 51, 0
2,41700, Control_c, 0, 64, 56
2,41715, Note_on_c, 0, 55, 0
2,41720, Control_c, 0, 64, 41
2,41738, Note_on_c, 0, 53, 41
2,41739, Control_c, 0, 64, 0
2,41740, Note_on_c, 0, 56, 58
2,41854, Control_c, 0, 64, 34
2,41874, Control_c, 0, 64, 56
2,41893, Control_c, 0, 64, 64
2,41911, Control_c, 0, 64, 66
2,41931, Control_c, 0, 64, 68
2,41950, Control_c, 0, 64, 71
2,41954, Note_on_c, 0, 56, 0
2,41969, Control_c, 0, 64, 77
2,41988, Control_c, 0, 64, 86
2,42008, Control_c, 0, 64, 93
2,42027, Control_c, 0, 64, 94
2,42085, Control_c, 0, 64, 93
2,42103, Control_c, 0, 64, 90
2,42123, Control_c, 0, 64, 82
2,42142, Control_c, 0, 64, 72
2,42143, Note_on_c, 0, 56, 57
2,42162, Control_c, 0, 64, 63
2,42169, Note_on_c, 0, 53, 0
2,42177, Note_on_c, 0, 41, 39
2,42180, Control_c, 0, 64, 51
2,42200, Control_c, 0, 64, 32
2,42219, Control_c, 0, 64, 34
2,42239, Control_c, 0, 64, 47
2,42257, Control_c, 0, 64, 56
2,42277, Control_c, 0, 64, 60
2,42296, Control_c, 0, 64, 63
2,42316, Control_c, 0, 64, 65
2,42335, Control_c, 0, 64, 67
2,42348, Note_on_c, 0, 56, 0
2,42355, Control_c, 0, 64, 71
2,42355, Note_on_c, 0, 58, 57
2,42374, Control_c, 0, 64, 76
2,42393, Control_c, 0, 64, 85
2,42412, Control_c, 0, 64, 91
2,42431, Control_c, 0, 64, 93
2,42434, Note_on_c, 0, 41, 0
2,42450, Control_c, 0, 64, 94
2,42527, Control_c, 0, 64, 93
2,42539, Note_on_c, 0, 65, 0
2,42546, Control_c, 0, 64, 90
2,42566, Control_c, 0, 64, 80
2,42580, Note_on_c, 0, 58, 0
2,42584, Control_c, 0, 64, 69
2,42602, Note_on_c, 0, 60, 57
2,42604, Control_c, 0, 64, 60
2,42614, Note_on_c, 0, 48, 40
2,42623, Control_c, 0, 64, 47
2,42643, Control_c, 0, 64, 44
2,42661, Control_c, 0, 64, 55
2,42681, Control_c, 0, 64, 60
2,42700, Control_c, 0, 64, 62
2,42719, Control_c, 0, 64, 64
2,42723, Note_on_c, 0, 48, 0
2,42738, Control_c, 0, 64, 67
2,42758, Control_c, 0, 64, 72
2,42777, Control_c, 0, 64, 82
2,42796, Control_c, 0, 64, 101
2,42815, Control_c, 0, 64, 127
2,42917, Note_on_c, 0, 60, 0
2,43007, Control_c, 0, 64, 102
2,43023, Note_on_c, 0, 48, 50
2,43024, Note_on_c, 0, 64, 59
2,43026, Control_c, 0, 64, 81
2,43046, Control_c, 0, 64, 68
2,43056, Note_on_c, 0, 55, 38
2,43064, Control_c, 0, 64, 57
2,43084, Control_c, 0, 64, 50
2,43103, Control_c, 0, 64, 53
2,43123, Control_c, 0, 64, 57
2,43141, Control_c, 0, 64, 60
2,43161, Control_c, 0, 64, 62
2,43169, Note_on_c, 0, 48, 0
2,43175, Note_on_c, 0, 55, 0
2,43180, Control_c, 0, 64, 64
2,43199, Control_c, 0, 64, 68
2,43206, Note_on_c, 0, 64, 0
2,43218, Control_c, 0, 64, 73
2,43220, Note_on_c, 0, 65, 69
2,43238, Control_c, 0, 64, 83
2,43238, Note_on_c, 0, 50, 55
2,43257, Control_c, 0, 64, 97
2,43276, Control_c, 0, 64, 123
2,43295, Control_c, 0, 64, 127
2,43355, Note_on_c, 0, 50, 0
2,43522, Note_on_c, 0, 72, 87
2,43526, Control_c, 0, 64, 105
2,43529, Note_on_c, 0, 52, 45
2,43538, Note_on_c, 0, 60, 45
2,43543, Note_on_c, 0, 67, 55
2,43544, Control_c, 0, 64, 83
2,43547, Note_on_c, 0, 65, 0
2,43564, Control_c, 0, 64, 66
2,43583, Control_c, 0, 64, 29
2,43603, Control_c, 0, 64, 0
2,43723, Note_on_c, 0, 52, 0
2,43756, Control_c, 0, 64, 57
2,43775, Control_c, 0, 64, 66
2,43795, Control_c, 0, 64, 70
2,43814, Control_c, 0, 64, 77
2,43833, Control_c, 0, 64, 87
2,43852, Control_c, 0, 64, 99
2,43871, Control_c, 0, 64, 127
2,43979, Note_on_c, 0, 50, 57
2,43989, Note_on_c, 0, 58, 53
2,44034, Note_on_c, 0, 72, 0
2,44080, Note_on_c, 0, 60, 0
2,44093, Note_on_c, 0, 50, 0
2,44160, Note_on_c, 0, 58, 0
2,44179, Note_on_c, 0, 52, 69
2,44309, Note_on_c, 0, 52, 0
2,44313, Control_c, 0, 64, 87
2,44332, Control_c, 0, 64, 68
2,44351, Control_c, 0, 64, 49
2,44370, Control_c, 0, 64, 0
2,44385, Note_on_c, 0, 73, 83
2,44389, Control_c, 0, 64, 20
2,44396, Note_on_c, 0, 56, 58
2,44399, Note_on_c, 0, 53, 63
2,44409, Control_c, 0, 64, 54
2,44428, Control_c, 0, 64, 63
2,44444, Note_on_c, 0, 56, 0
2,44447, Control_c, 0, 64, 69
2,44447, Note_on_c, 0, 53, 0
2,44466, Control_c, 0, 64, 77
2,44486, Control_c, 0, 64, 95
2,44504, Control_c, 0, 64, 127
2,44623, Note_on_c, 0, 40, 61
2,44811, Note_on_c, 0, 40, 0
2,44812, Control_c, 0, 64, 105
2,44814, Note_on_c, 0, 41, 61
2,44817, Note_on_c, 0, 65, 65
2,44831, Control_c, 0, 64, 93
2,44850, Control_c, 0, 64, 82
2,44869, Control_c, 0, 64, 76
2,44889, Control_c, 0, 64, 73
2,44908, Control_c, 0, 64, 71
2,44916, Note_on_c, 0, 67, 0
2,44927, Control_c, 0, 64, 69
2,44946, Control_c, 0, 64, 66
2,44966, Control_c, 0, 64, 64
2,44984, Control_c, 0, 64, 62
2,44997, Note_on_c, 0, 41, 0
2,45004, Control_c, 0, 64, 59
2,45009, Note_on_c, 0, 43, 56
2,45023, Control_c, 0, 64, 58
2,45081, Control_c, 0, 64, 58
2,45194, Control_c, 0, 64, 57
2,45212, Control_c, 0, 64, 53
2,45219, Note_on_c, 0, 43, 0
2,45220, Note_on_c, 0, 44, 54
2,45222, Note_on_c, 0, 72, 82
2,45231, Control_c, 0, 64, 37
2,45251, Control_c, 0, 64, 0
2,45267, Note_on_c, 0, 73, 0
2,45444, Note_on_c, 0, 48, 52
2,45587, Note_on_c, 0, 48, 0
2,45648, Note_on_c, 0, 50, 52
2,45659, Note_on_c, 0, 63, 65
2,45734, Control_c, 0, 64, 45
2,45743, Note_on_c, 0, 65, 0
2,45752, Control_c, 0, 64, 60
2,45760, Note_on_c, 0, 50, 0
2,45772, Control_c, 0, 64, 65
2,45791, Control_c, 0, 64, 68
2,45792, Note_on_c, 0, 72, 0
2,45811, Control_c, 0, 64, 72
2,45829, Control_c, 0, 64, 84
2,45849, Control_c, 0, 64, 106
2,45868, Control_c, 0, 64, 127
2,45869, Note_on_c, 0, 51, 56
2,46055, Note_on_c, 0, 44, 0
2,46067, Note_on_c, 0, 51, 0
2,46097, Note_on_c, 0, 71, 76
2,46108, Note_on_c, 0, 53, 56
2,46113, Note_on_c, 0, 63, 0
2,46117, Control_c, 0, 64, 102
2,46119, Note_on_c, 0, 62, 49
2,46137, Control_c, 0, 64, 84
2,46156, Control_c, 0, 64, 73
2,46175, Control_c, 0, 64, 65
2,46194, Control_c, 0, 64, 57
2,46214, Control_c, 0, 64, 43
2,46232, Control_c, 0, 64, 20
2,46252, Control_c, 0, 64, 11
2,46271, Control_c, 0, 64, 9
2,46291, Control_c, 0, 64, 0
2,46300, Note_on_c, 0, 41, 59
2,46487, Note_on_c, 0, 53, 0
2,46531, Note_on_c, 0, 43, 55
2,46532, Note_on_c, 0, 63, 66
2,46569, Note_on_c, 0, 62, 0
2,46588, Note_on_c, 0, 41, 0
2,46606, Note_on_c, 0, 71, 0
2,46636, Control_c, 0, 64, 18
2,46655, Control_c, 0, 64, 45
2,46674, Control_c, 0, 64, 58
2,46694, Control_c, 0, 64, 63
2,46707, Note_on_c, 0, 43, 0
2,46712, Control_c, 0, 64, 65
2,46719, Note_on_c, 0, 63, 0
2,46722, Note_on_c, 0, 44, 59
2,46732, Control_c, 0, 64, 69
2,46735, Note_on_c, 0, 65, 71
2,46751, Control_c, 0, 64, 75
2,46771, Control_c, 0, 64, 88
2,46789, Control_c, 0, 64, 108
2,46809, Control_c, 0, 64, 127
2,46911, Note_on_c, 0, 65, 0
2,46913, Note_on_c, 0, 44, 0
2,46923, Control_c, 0, 64, 117
2,46933, Note_on_c, 0, 46, 57
2,46943, Control_c, 0, 64, 93
2,46943, Note_on_c, 0, 76, 84
2,46962, Control_c, 0, 64, 76
2,46962, Note_on_c, 0, 67, 62
2,46982, Control_c, 0, 64, 64
2,47000, Control_c, 0, 64, 46
2,47020, Control_c, 0, 64, 0
2,47058, Control_c, 0, 64, 31
2,47077, Control_c, 0, 64, 52
2,47097, Control_c, 0, 64, 61
2,47116, Control_c, 0, 64, 64
2,47133, Note_on_c, 0, 76, 0
2,47135, Control_c, 0, 64, 68
2,47135, Note_on_c, 0, 67, 0
2,47151, Note_on_c, 0, 65, 69
2,47154, Control_c, 0, 64, 75
2,47174, Control_c, 0, 64, 86
2,47192, Control_c, 0, 64, 104
2,47212, Control_c, 0, 64, 127
2,47308, Control_c, 0, 64, 117
2,47327, Control_c, 0, 64, 95
2,47346, Control_c, 0, 64, 79
2,47366, Control_c, 0, 64, 67
2,47371, Note_on_c, 0, 64, 70
2,47384, Note_on_c, 0, 55, 59
2,47385, Control_c, 0, 64, 55
2,47396, Note_on_c, 0, 65, 0
2,47403, Control_c, 0, 64, 27
2,47423, Control_c, 0, 64, 30
2,47442, Control_c, 0, 64, 49
2,47447, Note_on_c, 0, 46, 0
2,47462, Control_c, 0, 64, 59
2,47476, Note_on_c, 0, 55, 0
2,47480, Control_c, 0, 64, 63
2,47500, Control_c, 0, 64, 66
2,47519, Control_c, 0, 64, 70
2,47533, Note_on_c, 0, 64, 0
2,47538, Control_c, 0, 64, 80
2,47554, Note_on_c, 0, 62, 77
2,47557, Control_c, 0, 64, 100
2,47577, Control_c, 0, 64, 127
2,47608, Note_on_c, 0, 62, 0
2,47731, Control_c, 0, 64, 100
2,47749, Control_c, 0, 64, 74
2,47769, Control_c, 0, 64, 61
2,47774, Note_on_c, 0, 77, 85
2,47779, Note_on_c, 0, 56, 62
2,47788, Control_c, 0, 64, 0
2,47791, Note_on_c, 0, 60, 48
2,47831, Note_on_c, 0, 60, 0
2,47835, Note_on_c, 0, 56, 0
2,47846, Control_c, 0, 64, 32
2,47865, Control_c, 0, 64, 55
2,47883, Control_c, 0, 64, 64
2,47903, Control_c, 0, 64, 66
2,47922, Control_c, 0, 64, 68
2,47942, Control_c, 0, 64, 73
2,47960, Control_c, 0, 64, 82
2,47980, Control_c, 0, 64, 94
2,47987, Note_on_c, 0, 44, 63
2,47999, Control_c, 0, 64, 104
2,48018, Control_c, 0, 64, 107
2,48037, Control_c, 0, 64, 106
2,48057, Control_c, 0, 64, 103
2,48076, Control_c, 0, 64, 96
2,48095, Control_c, 0, 64, 83
2,48114, Control_c, 0, 64, 70
2,48134, Control_c, 0, 64, 60
2,48152, Control_c, 0, 64, 23
2,48172, Control_c, 0, 64, 0
2,48187, Note_on_c, 0, 46, 68
2,48211, Control_c, 0, 64, 41
2,48229, Control_c, 0, 64, 58
2,48239, Note_on_c, 0, 77, 0
2,48249, Control_c, 0, 64, 64
2,48268, Control_c, 0, 64, 68
2,48287, Control_c, 0, 64, 74
2,48306, Control_c, 0, 64, 96
2,48326, Control_c, 0, 64, 127
2,48382, Note_on_c, 0, 48, 73
2,48395, Note_on_c, 0, 44, 0
2,48436, Note_on_c, 0, 46, 0
2,48467, Note_on_c, 0, 48, 0
2,48628, Note_on_c, 0, 49, 71
2,48632, Control_c, 0, 64, 86
2,48632, Note_on_c, 0, 70, 83
2,48652, Control_c, 0, 64, 67
2,48671, Control_c, 0, 64, 47
2,48691, Control_c, 0, 64, 0
2,48783, Control_c, 0, 64, 37
2,48803, Control_c, 0, 64, 59
2,48822, Control_c, 0, 64, 65
2,48839, Note_on_c, 0, 58, 55
2,48841, Control_c, 0, 64, 69
2,48860, Control_c, 0, 64, 75
2,48880, Control_c, 0, 64, 84
2,48899, Control_c, 0, 64, 94
2,48918, Control_c, 0, 64, 102
2,48937, Control_c, 0, 64, 104
2,48948, Note_on_c, 0, 58, 0
2,49014, Control_c, 0, 64, 101
2,49034, Control_c, 0, 64, 91
2,49053, Control_c, 0, 64, 76
2,49057, Note_on_c, 0, 58, 62
2,49067, Note_on_c, 0, 56, 59
2,49072, Control_c, 0, 64, 65
2,49092, Control_c, 0, 64, 49
2,49110, Control_c, 0, 64, 18
2,49130, Control_c, 0, 64, 36
2,49149, Control_c, 0, 64, 52
2,49160, Note_on_c, 0, 49, 0
2,49169, Control_c, 0, 64, 60
2,49187, Control_c, 0, 64, 63
2,49200, Note_on_c, 0, 70, 0
2,49201, Note_on_c, 0, 58, 0
2,49207, Control_c, 0, 64, 66
2,49218, Note_on_c, 0, 56, 0
2,49226, Control_c, 0, 64, 69
2,49245, Control_c, 0, 64, 77
2,49262, Note_on_c, 0, 55, 57
2,49264, Control_c, 0, 64, 96
2,49284, Control_c, 0, 64, 127
2,49438, Control_c, 0, 64, 109
2,49454, Note_on_c, 0, 55, 0
2,49456, Control_c, 0, 64, 93
2,49476, Control_c, 0, 64, 80
2,49484, Note_on_c, 0, 69, 79
2,49495, Control_c, 0, 64, 71
2,49501, Note_on_c, 0, 60, 57
2,49512, Note_on_c, 0, 53, 48
2,49514, Control_c, 0, 64, 64
2,49533, Control_c, 0, 64, 59
2,49552, Control_c, 0, 64, 56
2,49572, Control_c, 0, 64, 54
2,49590, Control_c, 0, 64, 48
2,49610, Control_c, 0, 64, 29
2,49629, Control_c, 0, 64, 0
2,49694, Note_on_c, 0, 53, 0
2,49708, Note_on_c, 0, 48, 51
2,49905, Note_on_c, 0, 50, 59
2,50001, Note_on_c, 0, 48, 0
2,50052, Control_c, 0, 64, 11
2,50070, Control_c, 0, 64, 13
2,50108, Note_on_c, 0, 52, 53
2,50109, Control_c, 0, 64, 15
2,50112, Note_on_c, 0, 50, 0
2,50318, Note_on_c, 0, 68, 75
2,50322, Note_on_c, 0, 53, 58
2,50359, Note_on_c, 0, 52, 0
2,50368, Note_on_c, 0, 69, 0
2,50384, Note_on_c, 0, 60, 0
2,50412, Note_on_c, 0, 53, 0
2,50436, Control_c, 0, 64, 17
2,50474, Control_c, 0, 64, 18
2,50493, Control_c, 0, 64, 19
2,50512, Control_c, 0, 64, 20
2,50516, Note_on_c, 0, 53, 55
2,50744, Note_on_c, 0, 60, 61
2,50751, Note_on_c, 0, 55, 59
2,50769, Note_on_c, 0, 53, 0
2,50858, Control_c, 0, 64, 21
2,50878, Control_c, 0, 64, 22
2,50896, Control_c, 0, 64, 24
2,50916, Control_c, 0, 64, 26
2,50936, Control_c, 0, 64, 27
2,50955, Control_c, 0, 64, 29
2,50961, Note_on_c, 0, 56, 65
2,50963, Note_on_c, 0, 55, 0
2,50974, Control_c, 0, 64, 29
2,50994, Control_c, 0, 64, 31
2,51013, Control_c, 0, 64, 31
2,51031, Control_c, 0, 64, 32
2,51051, Control_c, 0, 64, 34
2,51070, Control_c, 0, 64, 34
2,51166, Control_c, 0, 64, 34
2,51184, Note_on_c, 0, 56, 0
2,51185, Control_c, 0, 64, 25
2,51205, Control_c, 0, 64, 0
2,51206, Note_on_c, 0, 58, 50
2,51208, Note_on_c, 0, 61, 56
2,51212, Note_on_c, 0, 60, 0
2,51212, Note_on_c, 0, 67, 67
2,51245, Note_on_c, 0, 68, 0
2,51377, Control_c, 0, 64, 22
2,51397, Control_c, 0, 64, 50
2,51416, Control_c, 0, 64, 61
2,51435, Control_c, 0, 64, 64
2,51454, Control_c, 0, 64, 69
2,51459, Note_on_c, 0, 61, 0
2,51473, Control_c, 0, 64, 75
2,51493, Control_c, 0, 64, 85
2,51511, Control_c, 0, 64, 94
2,51531, Control_c, 0, 64, 100
2,51550, Control_c, 0, 64, 102
2,51589, Note_on_c, 0, 58, 0
2,51628, Note_on_c, 0, 60, 59
2,51630, Control_c, 0, 64, 100
2,51630, Note_on_c, 0, 52, 53
2,51649, Control_c, 0, 64, 97
2,51668, Control_c, 0, 64, 92
2,51688, Control_c, 0, 64, 86
2,51707, Control_c, 0, 64, 80
2,51726, Control_c, 0, 64, 74
2,51745, Control_c, 0, 64, 70
2,51764, Control_c, 0, 64, 67
2,51783, Control_c, 0, 64, 65
2,51802, Control_c, 0, 64, 64
2,51812, Note_on_c, 0, 52, 0
2,51822, Control_c, 0, 64, 62
2,51828, Note_on_c, 0, 58, 58
2,51838, Note_on_c, 0, 50, 53
2,51841, Control_c, 0, 64, 60
2,51860, Control_c, 0, 64, 58
2,51879, Control_c, 0, 64, 56
2,51883, Note_on_c, 0, 60, 0
2,51898, Control_c, 0, 64, 55
2,51917, Control_c, 0, 64, 53
2,51937, Control_c, 0, 64, 51
2,51956, Control_c, 0, 64, 48
2,51976, Control_c, 0, 64, 45
2,51994, Control_c, 0, 64, 42
2,52014, Control_c, 0, 64, 38
2,52033, Control_c, 0, 64, 34
2,52052, Control_c, 0, 64, 30
2,52058, Note_on_c, 0, 50, 0
2,52071, Control_c, 0, 64, 26
2,52081, Note_on_c, 0, 60, 52
2,52091, Control_c, 0, 64, 22
2,52099, Note_on_c, 0, 52, 48
2,52109, Note_on_c, 0, 58, 0
2,52110, Control_c, 0, 64, 20
2,52129, Control_c, 0, 64, 17
2,52148, Control_c, 0, 64, 13
2,52168, Control_c, 0, 64, 11
2,52484, Note_on_c, 0, 56, 54
2,52649, Note_on_c, 0, 52, 0
2,52660, Note_on_c, 0, 56, 0
2,52702, Note_on_c, 0, 55, 41
2,52979, Note_on_c, 0, 53, 38
2,52986, Note_on_c, 0, 56, 47
2,53039, Note_on_c, 0, 55, 0
2,53046, Note_on_c, 0, 67, 0
2,53415, Control_c, 0, 64, 13
2,53433, Note_on_c, 0, 65, 54
2,53624, Note_on_c, 0, 67, 62
2,53666, Note_on_c, 0, 65, 0
2,53895, Control_c, 0, 64, 15
2,53913, Control_c, 0, 64, 20
2,53920, Note_on_c, 0, 68, 62
2,53933, Control_c, 0, 64, 32
2,53948, Note_on_c, 0, 67, 0
2,53952, Control_c, 0, 64, 42
2,53972, Control_c, 0, 64, 51
2,53990, Control_c, 0, 64, 57
2,53990, Note_on_c, 0, 56, 0
2,53999, Note_on_c, 0, 53, 0
2,54010, Control_c, 0, 64, 62
2,54029, Control_c, 0, 64, 65
2,54032, Note_on_c, 0, 60, 0
2,54048, Control_c, 0, 64, 68
2,54067, Control_c, 0, 64, 75
2,54087, Control_c, 0, 64, 83
2,54106, Control_c, 0, 64, 91
2,54124, Control_c, 0, 64, 96
2,54144, Control_c, 0, 64, 99
2,54163, Control_c, 0, 64, 101
2,54259, Control_c, 0, 64, 100
2,54278, Control_c, 0, 64, 98
2,54298, Control_c, 0, 64, 96
2,54316, Control_c, 0, 64, 93
2,54336, Control_c, 0, 64, 90
2,54355, Control_c, 0, 64, 87
2,54375, Control_c, 0, 64, 84
2,54393, Control_c, 0, 64, 82
2,54398, Note_on_c, 0, 53, 49
2,54413, Control_c, 0, 64, 80
2,54432, Control_c, 0, 64, 78
2,54452, Control_c, 0, 64, 76
2,54470, Control_c, 0, 64, 75
2,54490, Control_c, 0, 64, 75
2,54547, Control_c, 0, 64, 74
2,54567, Control_c, 0, 64, 73
2,54586, Control_c, 0, 64, 71
2,54601, Note_on_c, 0, 51, 53
2,54604, Control_c, 0, 64, 70
2,54624, Control_c, 0, 64, 70
2,54636, Note_on_c, 0, 53, 0
2,54643, Control_c, 0, 64, 68
2,54662, Control_c, 0, 64, 67
2,54681, Control_c, 0, 64, 65
2,54701, Control_c, 0, 64, 63
2,54720, Control_c, 0, 64, 59
2,54739, Control_c, 0, 64, 54
2,54758, Control_c, 0, 64, 43
2,54778, Control_c, 0, 64, 28
2,54796, Control_c, 0, 64, 0
2,54853, Note_on_c, 0, 50, 47
2,54854, Note_on_c, 0, 51, 0
2,54970, Control_c, 0, 64, 23
2,54989, Control_c, 0, 64, 40
2,55008, Control_c, 0, 64, 52
2,55027, Control_c, 0, 64, 59
2,55047, Control_c, 0, 64, 61
2,55066, Control_c, 0, 64, 64
2,55067, Note_on_c, 0, 50, 0
2,55084, Control_c, 0, 64, 66
2,55104, Control_c, 0, 64, 68
2,55123, Control_c, 0, 64, 71
2,55142, Control_c, 0, 64, 76
2,55161, Control_c, 0, 64, 80
2,55181, Control_c, 0, 64, 81
2,55200, Control_c, 0, 64, 80
2,55219, Control_c, 0, 64, 80
2,55238, Control_c, 0, 64, 79
2,55258, Control_c, 0, 64, 78
2,55276, Control_c, 0, 64, 78
2,55296, Control_c, 0, 64, 76
2,55307, Note_on_c, 0, 50, 42
2,55315, Control_c, 0, 64, 74
2,55319, Note_on_c, 0, 65, 51
2,55335, Control_c, 0, 64, 72
2,55353, Control_c, 0, 64, 70
2,55373, Control_c, 0, 64, 69
2,55392, Control_c, 0, 64, 68
2,55412, Control_c, 0, 64, 67
2,55430, Control_c, 0, 64, 67
2,55450, Control_c, 0, 64, 66
2,55469, Control_c, 0, 64, 65
2,55488, Control_c, 0, 64, 65
2,55507, Control_c, 0, 64, 64
2,55510, Note_on_c, 0, 48, 46
2,55517, Note_on_c, 0, 50, 0
2,55524, Note_on_c, 0, 63, 55
2,55527, Control_c, 0, 64, 64
2,55546, Control_c, 0, 64, 63
2,55564, Control_c, 0, 64, 63
2,55570, Note_on_c, 0, 65, 0
2,55584, Control_c, 0, 64, 62
2,55603, Control_c, 0, 64, 61
2,55622, Control_c, 0, 64, 59
2,55641, Control_c, 0, 64, 58
2,55661, Control_c, 0, 64, 57
2,55680, Control_c, 0, 64, 56
2,55699, Control_c, 0, 64, 54
2,55718, Control_c, 0, 64, 52
2,55736, Note_on_c, 0, 48, 0
2,55739, Control_c, 0, 64, 45
2,55740, Note_on_c, 0, 63, 0
2,55757, Control_c, 0, 64, 38
2,55765, Note_on_c, 0, 62, 51
2,55769, Note_on_c, 0, 46, 44
2,55777, Control_c, 0, 64, 29
2,55796, Control_c, 0, 64, 23
2,55816, Control_c, 0, 64, 21
2,55873, Control_c, 0, 64, 29
2,55892, Control_c, 0, 64, 39
2,55911, Control_c, 0, 64, 49
2,55931, Control_c, 0, 64, 55
2,55950, Control_c, 0, 64, 58
2,55969, Control_c, 0, 64, 60
2,55988, Control_c, 0, 64, 62
2,56008, Control_c, 0, 64, 63
2,56027, Control_c, 0, 64, 65
2,56045, Control_c, 0, 64, 66
2,56057, Note_on_c, 0, 62, 0
2,56065, Control_c, 0, 64, 68
2,56084, Control_c, 0, 64, 69
2,56103, Control_c, 0, 64, 70
2,56114, Note_on_c, 0, 46, 0
2,56142, Control_c, 0, 64, 69
2,56161, Control_c, 0, 64, 69
2,56180, Control_c, 0, 64, 68
2,56199, Control_c, 0, 64, 67
2,56205, Note_on_c, 0, 48, 49
2,56219, Control_c, 0, 64, 67
2,56225, Note_on_c, 0, 62, 58
2,56237, Control_c, 0, 64, 66
2,56257, Control_c, 0, 64, 65
2,56276, Control_c, 0, 64, 64
2,56296, Control_c, 0, 64, 64
2,56314, Control_c, 0, 64, 63
2,56334, Control_c, 0, 64, 63
2,56353, Control_c, 0, 64, 62
2,56372, Control_c, 0, 64, 62
2,56391, Control_c, 0, 64, 61
2,56396, Note_on_c, 0, 48, 0
2,56411, Control_c, 0, 64, 60
2,56415, Note_on_c, 0, 60, 61
2,56419, Note_on_c, 0, 62, 0
2,56428, Note_on_c, 0, 50, 55
2,56430, Control_c, 0, 64, 60
2,56449, Control_c, 0, 64, 59
2,56468, Control_c, 0, 64, 59
2,56488, Control_c, 0, 64, 58
2,56507, Control_c, 0, 64, 57
2,56525, Control_c, 0, 64, 57
2,56545, Control_c, 0, 64, 56
2,56564, Control_c, 0, 64, 54
2,56583, Control_c, 0, 64, 50
2,56602, Control_c, 0, 64, 36
2,56622, Control_c, 0, 64, 0
2,56637, Note_on_c, 0, 60, 0
2,56657, Note_on_c, 0, 50, 0
2,56660, Note_on_c, 0, 58, 61
2,56673, Note_on_c, 0, 51, 53
2,56794, Control_c, 0, 64, 46
2,56814, Control_c, 0, 64, 59
2,56833, Control_c, 0, 64, 63
2,56845, Note_on_c, 0, 58, 0
2,56852, Control_c, 0, 64, 65
2,56871, Control_c, 0, 64, 69
2,56891, Control_c, 0, 64, 76
2,56909, Note_on_c, 0, 68, 0
2,56910, Control_c, 0, 64, 91
2,56929, Control_c, 0, 64, 113
2,56948, Control_c, 0, 64, 127
2,57121, Control_c, 0, 64, 117
2,57121, Note_on_c, 0, 67, 67
2,57127, Note_on_c, 0, 58, 51
2,57140, Control_c, 0, 64, 101
2,57159, Control_c, 0, 64, 92
2,57179, Control_c, 0, 64, 85
2,57197, Control_c, 0, 64, 81
2,57217, Control_c, 0, 64, 79
2,57236, Control_c, 0, 64, 78
2,57256, Control_c, 0, 64, 77
2,57274, Control_c, 0, 64, 76
2,57294, Control_c, 0, 64, 74
2,57304, Note_on_c, 0, 58, 0
2,57311, Note_on_c, 0, 68, 79
2,57313, Control_c, 0, 64, 73
2,57332, Control_c, 0, 64, 71
2,57338, Note_on_c, 0, 56, 54
2,57351, Control_c, 0, 64, 69
2,57371, Control_c, 0, 64, 67
2,57390, Control_c, 0, 64, 66
2,57409, Control_c, 0, 64, 65
2,57428, Control_c, 0, 64, 64
2,57448, Control_c, 0, 64, 63
2,57467, Control_c, 0, 64, 63
2,57485, Control_c, 0, 64, 62
2,57505, Control_c, 0, 64, 61
2,57524, Control_c, 0, 64, 60
2,57532, Note_on_c, 0, 51, 0
2,57537, Note_on_c, 0, 67, 0
2,57543, Control_c, 0, 64, 59
2,57562, Control_c, 0, 64, 58
2,57582, Control_c, 0, 64, 56
2,57599, Note_on_c, 0, 56, 0
2,57601, Control_c, 0, 64, 54
2,57602, Note_on_c, 0, 70, 72
2,57620, Control_c, 0, 64, 47
2,57629, Note_on_c, 0, 55, 49
2,57639, Control_c, 0, 64, 30
2,57655, Control_c, 0, 64, 0
2,57675, Note_on_c, 0, 68, 0
2,57830, Control_c, 0, 64, 31
2,57850, Control_c, 0, 64, 49
2,57869, Control_c, 0, 64, 58
2,57888, Control_c, 0, 64, 62
2,57907, Control_c, 0, 64, 64
2,57908, Note_on_c, 0, 55, 0
2,57927, Control_c, 0, 64, 66
2,57946, Control_c, 0, 64, 67
2,57964, Control_c, 0, 64, 68
2,57984, Control_c, 0, 64, 69
2,58022, Control_c, 0, 64, 68
2,58041, Control_c, 0, 64, 67
2,58061, Control_c, 0, 64, 67
2,58080, Control_c, 0, 64, 66
2,58094, Note_on_c, 0, 55, 54
2,58099, Control_c, 0, 64, 65
2,58118, Control_c, 0, 64, 65
2,58138, Control_c, 0, 64, 64
2,58156, Control_c, 0, 64, 64
2,58176, Control_c, 0, 64, 63
2,58195, Control_c, 0, 64, 62
2,58215, Control_c, 0, 64, 61
2,58233, Control_c, 0, 64, 61
2,58272, Control_c, 0, 64, 60
2,58302, Note_on_c, 0, 53, 57
2,58310, Control_c, 0, 64, 60
2,58330, Control_c, 0, 64, 59
2,58349, Control_c, 0, 64, 59
2,58360, Note_on_c, 0, 55, 0
2,58368, Control_c, 0, 64, 58
2,58387, Control_c, 0, 64, 57
2,58407, Control_c, 0, 64, 57
2,58426, Control_c, 0, 64, 56
2,58444, Control_c, 0, 64, 55
2,58464, Control_c, 0, 64, 53
2,58483, Control_c, 0, 64, 45
2,58502, Control_c, 0, 64, 27
2,58521, Control_c, 0, 64, 0
2,58535, Note_on_c, 0, 52, 60
2,58547, Note_on_c, 0, 53, 0
2,58675, Control_c, 0, 64, 38
2,58695, Control_c, 0, 64, 54
2,58713, Control_c, 0, 64, 60
2,58733, Control_c, 0, 64, 63
2,58752, Control_c, 0, 64, 64
2,58772, Control_c, 0, 64, 67
2,58788, Note_on_c, 0, 52, 0
2,58790, Control_c, 0, 64, 71
2,58810, Control_c, 0, 64, 78
2,58829, Control_c, 0, 64, 84
2,58848, Control_c, 0, 64, 85
2,58887, Control_c, 0, 64, 84
2,58906, Control_c, 0, 64, 83
2,58924, Control_c, 0, 64, 82
2,58944, Control_c, 0, 64, 80
2,58963, Control_c, 0, 64, 77
2,58967, Note_on_c, 0, 52, 49
2,58979, Note_on_c, 0, 67, 60
2,58982, Control_c, 0, 64, 74
2,59001, Control_c, 0, 64, 71
2,59021, Control_c, 0, 64, 68
2,59040, Control_c, 0, 64, 66
2,59059, Control_c, 0, 64, 65
2,59078, Control_c, 0, 64, 65
2,59098, Control_c, 0, 64, 64
2,59116, Control_c, 0, 64, 64
2,59136, Control_c, 0, 64, 62
2,59155, Control_c, 0, 64, 61
2,59175, Control_c, 0, 64, 58
2,59179, Note_on_c, 0, 50, 51
2,59186, Note_on_c, 0, 65, 60
2,59193, Control_c, 0, 64, 56
2,59203, Note_on_c, 0, 52, 0
2,59213, Control_c, 0, 64, 54
2,59220, Note_on_c, 0, 67, 0
2,59232, Control_c, 0, 64, 50
2,59252, Control_c, 0, 64, 46
2,59270, Control_c, 0, 64, 40
2,59290, Control_c, 0, 64, 34
2,59309, Control_c, 0, 64, 26
2,59328, Control_c, 0, 64, 17
2,59347, Control_c, 0, 64, 0
2,59390, Note_on_c, 0, 65, 0
2,59397, Note_on_c, 0, 50, 0
2,59425, Note_on_c, 0, 64, 60
2,59431, Note_on_c, 0, 48, 45
2,59481, Control_c, 0, 64, 20
2,59501, Control_c, 0, 64, 40
2,59520, Control_c, 0, 64, 53
2,59539, Control_c, 0, 64, 60
2,59558, Control_c, 0, 64, 63
2,59577, Control_c, 0, 64, 66
2,59597, Control_c, 0, 64, 69
2,59617, Control_c, 0, 64, 75
2,59636, Control_c, 0, 64, 83
2,59656, Control_c, 0, 64, 90
2,59674, Control_c, 0, 64, 92
2,59727, Note_on_c, 0, 64, 0
2,59751, Control_c, 0, 64, 92
2,59771, Control_c, 0, 64, 91
2,59790, Control_c, 0, 64, 90
2,59809, Control_c, 0, 64, 87
2,59825, Note_on_c, 0, 48, 0
2,59828, Control_c, 0, 64, 80
2,59848, Control_c, 0, 64, 70
2,59852, Note_on_c, 0, 50, 56
2,59864, Note_on_c, 0, 64, 56
2,59867, Control_c, 0, 64, 63
2,59873, Note_on_c, 0, 70, 0
2,59885, Control_c, 0, 64, 51
2,59905, Control_c, 0, 64, 27
2,59924, Control_c, 0, 64, 19
2,59943, Control_c, 0, 64, 31
2,59962, Control_c, 0, 64, 44
2,59982, Control_c, 0, 64, 55
2,60001, Control_c, 0, 64, 59
2,60020, Control_c, 0, 64, 61
2,60030, Note_on_c, 0, 50, 0
2,60039, Control_c, 0, 64, 63
2,60059, Control_c, 0, 64, 64
2,60070, Note_on_c, 0, 62, 59
2,60073, Note_on_c, 0, 52, 60
2,60077, Control_c, 0, 64, 65
2,60097, Control_c, 0, 64, 67
2,60116, Control_c, 0, 64, 69
2,60136, Control_c, 0, 64, 71
2,60154, Control_c, 0, 64, 70
2,60174, Control_c, 0, 64, 69
2,60193, Control_c, 0, 64, 67
2,60205, Note_on_c, 0, 64, 0
2,60212, Control_c, 0, 64, 63
2,60225, Note_on_c, 0, 62, 0
2,60231, Control_c, 0, 64, 57
2,60251, Control_c, 0, 64, 46
2,60270, Control_c, 0, 64, 36
2,60284, Note_on_c, 0, 53, 67
2,60284, Note_on_c, 0, 60, 65
2,60289, Control_c, 0, 64, 43
2,60290, Note_on_c, 0, 52, 0
2,60308, Control_c, 0, 64, 54
2,60328, Control_c, 0, 64, 60
2,60347, Control_c, 0, 64, 63
2,60365, Control_c, 0, 64, 67
2,60385, Control_c, 0, 64, 72
2,60404, Control_c, 0, 64, 86
2,60418, Note_on_c, 0, 60, 0
2,60423, Control_c, 0, 64, 104
2,60442, Control_c, 0, 64, 127
2,60468, Note_on_c, 0, 67, 71
2,60676, Note_on_c, 0, 68, 81
2,60689, Note_on_c, 0, 60, 67
2,60692, Control_c, 0, 64, 94
2,60710, Control_c, 0, 64, 76
2,60730, Control_c, 0, 64, 63
2,60734, Note_on_c, 0, 67, 0
2,60749, Control_c, 0, 64, 29
2,60768, Control_c, 0, 64, 0
2,60844, Control_c, 0, 64, 41
2,60864, Control_c, 0, 64, 59
2,60872, Note_on_c, 0, 68, 0
2,60872, Note_on_c, 0, 72, 84
2,60883, Control_c, 0, 64, 66
2,60894, Note_on_c, 0, 58, 71
2,60902, Control_c, 0, 64, 73
2,60921, Control_c, 0, 64, 87
2,60933, Note_on_c, 0, 60, 0
2,60941, Control_c, 0, 64, 115
2,60960, Control_c, 0, 64, 127
2,60975, Note_on_c, 0, 53, 0
2,60991, Note_on_c, 0, 58, 0
2,61187, Note_on_c, 0, 77, 83
2,61208, Note_on_c, 0, 56, 63
2,61210, Control_c, 0, 64, 110
2,61229, Control_c, 0, 64, 85
2,61248, Control_c, 0, 64, 73
2,61265, Note_on_c, 0, 72, 0
2,61267, Control_c, 0, 64, 64
2,61286, Control_c, 0, 64, 53
2,61306, Control_c, 0, 64, 33
2,61324, Control_c, 0, 64, 21
2,61344, Control_c, 0, 64, 20
2,61363, Control_c, 0, 64, 18
2,61382, Control_c, 0, 64, 15
2,61401, Control_c, 0, 64, 9
2,61421, Control_c, 0, 64, 0
2,61651, Note_on_c, 0, 50, 56
2,61853, Note_on_c, 0, 48, 60
2,61870, Note_on_c, 0, 50, 0
2,62066, Note_on_c, 0, 48, 0
2,62106, Note_on_c, 0, 47, 59
2,62225, Control_c, 0, 64, 27
2,62244, Control_c, 0, 64, 56
2,62264, Control_c, 0, 64, 64
2,62282, Control_c, 0, 64, 67
2,62302, Control_c, 0, 64, 70
2,62308, Note_on_c, 0, 47, 0
2,62321, Control_c, 0, 64, 76
2,62341, Control_c, 0, 64, 85
2,62359, Control_c, 0, 64, 93
2,62379, Control_c, 0, 64, 99
2,62380, Note_on_c, 0, 56, 0
2,62398, Control_c, 0, 64, 102
2,62417, Control_c, 0, 64, 103
2,62456, Control_c, 0, 64, 102
2,62475, Control_c, 0, 64, 101
2,62494, Control_c, 0, 64, 99
2,62513, Control_c, 0, 64, 95
2,62533, Control_c, 0, 64, 89
2,62552, Control_c, 0, 64, 79
2,62571, Control_c, 0, 64, 70
2,62575, Note_on_c, 0, 47, 49
2,62579, Note_on_c, 0, 74, 55
2,62590, Control_c, 0, 64, 63
2,62610, Control_c, 0, 64, 51
2,62628, Control_c, 0, 64, 40
2,62648, Control_c, 0, 64, 39
2,62667, Control_c, 0, 64, 46
2,62686, Control_c, 0, 64, 52
2,62705, Control_c, 0, 64, 55
2,62724, Control_c, 0, 64, 57
2,62744, Control_c, 0, 64, 59
2,62762, Control_c, 0, 64, 59
2,62770, Note_on_c, 0, 72, 62
2,62773, Note_on_c, 0, 47, 0
2,62776, Note_on_c, 0, 45, 51
2,62782, Control_c, 0, 64, 60
2,62805, Note_on_c, 0, 74, 0
2,62821, Control_c, 0, 64, 59
2,62839, Control_c, 0, 64, 59
2,62859, Control_c, 0, 64, 58
2,62878, Control_c, 0, 64, 57
2,62897, Control_c, 0, 64, 55
2,62916, Control_c, 0, 64, 52
2,62936, Control_c, 0, 64, 47
2,62955, Control_c, 0, 64, 40
2,62974, Control_c, 0, 64, 31
2,62976, Note_on_c, 0, 72, 0
2,62992, Note_on_c, 0, 45, 0
2,62993, Control_c, 0, 64, 0
2,63015, Note_on_c, 0, 71, 55
2,63034, Note_on_c, 0, 43, 45
2,63108, Control_c, 0, 64, 28
2,63128, Control_c, 0, 64, 50
2,63147, Control_c, 0, 64, 60
2,63166, Control_c, 0, 64, 62
2,63185, Control_c, 0, 64, 65
2,63204, Control_c, 0, 64, 68
2,63224, Control_c, 0, 64, 74
2,63242, Control_c, 0, 64, 84
2,63262, Control_c, 0, 64, 94
2,63268, Note_on_c, 0, 71, 0
2,63281, Control_c, 0, 64, 100
2,63301, Control_c, 0, 64, 101
2,63396, Control_c, 0, 64, 99
2,63416, Control_c, 0, 64, 93
2,63435, Control_c, 0, 64, 82
2,63451, Note_on_c, 0, 43, 0
2,63454, Control_c, 0, 64, 70
2,63454, Note_on_c, 0, 71, 56
2,63458, Note_on_c, 0, 45, 53
2,63473, Control_c, 0, 64, 62
2,63493, Control_c, 0, 64, 49
2,63512, Control_c, 0, 64, 36
2,63531, Control_c, 0, 64, 28
2,63550, Control_c, 0, 64, 29
2,63570, Control_c, 0, 64, 32
2,63576, Note_on_c, 0, 77, 0
2,63588, Control_c, 0, 64, 36
2,63608, Control_c, 0, 64, 38
2,63627, Control_c, 0, 64, 39
2,63640, Note_on_c, 0, 45, 0
2,63658, Note_on_c, 0, 69, 57
2,63662, Control_c, 0, 64, 39
2,63668, Note_on_c, 0, 47, 49
2,63691, Note_on_c, 0, 71, 0
2,63880, Note_on_c, 0, 47, 0
2,63883, Note_on_c, 0, 69, 0
2,63893, Control_c, 0, 64, 39
2,63906, Note_on_c, 0, 48, 54
2,63909, Note_on_c, 0, 67, 57
2,63950, Control_c, 0, 64, 38
2,64047, Control_c, 0, 64, 41
2,64065, Control_c, 0, 64, 46
2,64085, Control_c, 0, 64, 52
2,64104, Control_c, 0, 64, 57
2,64124, Control_c, 0, 64, 61
2,64142, Control_c, 0, 64, 63
2,64162, Control_c, 0, 64, 66
2,64181, Control_c, 0, 64, 71
2,64181, Note_on_c, 0, 67, 0
2,64200, Control_c, 0, 64, 81
2,64219, Control_c, 0, 64, 101
2,64239, Control_c, 0, 64, 127
2,64324, Note_on_c, 0, 48, 0
2,64332, Note_on_c, 0, 75, 79
2,64338, Note_on_c, 0, 67, 62
2,64526, Note_on_c, 0, 75, 0
2,64536, Note_on_c, 0, 69, 82
2,64568, Note_on_c, 0, 67, 0
2,64818, Note_on_c, 0, 69, 0
2,64821, Note_on_c, 0, 74, 71
2,64823, Note_on_c, 0, 71, 70
2,64829, Note_on_c, 0, 55, 77
2,64833, Control_c, 0, 64, 98
2,64853, Control_c, 0, 64, 75
2,64872, Control_c, 0, 64, 62
2,64891, Control_c, 0, 64, 0
2,65009, Note_on_c, 0, 74, 0
2,65022, Note_on_c, 0, 71, 0
2,65045, Control_c, 0, 64, 20
2,65064, Control_c, 0, 64, 43
2,65084, Control_c, 0, 64, 56
2,65102, Control_c, 0, 64, 60
2,65122, Control_c, 0, 64, 62
2,65141, Control_c, 0, 64, 64
2,65160, Control_c, 0, 64, 68
2,65179, Control_c, 0, 64, 74
2,65199, Control_c, 0, 64, 85
2,65218, Control_c, 0, 64, 107
2,65237, Control_c, 0, 64, 127
2,65272, Note_on_c, 0, 79, 75
2,65289, Note_on_c, 0, 69, 65
2,65403, Note_on_c, 0, 69, 0
2,65495, Note_on_c, 0, 71, 76
2,65553, Note_on_c, 0, 71, 0
2,65730, Note_on_c, 0, 56, 79
2,65739, Note_on_c, 0, 72, 72
2,65758, Control_c, 0, 64, 100
2,65776, Control_c, 0, 64, 78
2,65795, Control_c, 0, 64, 66
2,65814, Note_on_c, 0, 55, 0
2,65815, Control_c, 0, 64, 51
2,65834, Control_c, 0, 64, 0
2,65928, Note_on_c, 0, 72, 0
2,65949, Note_on_c, 0, 71, 69
2,66103, Control_c, 0, 64, 24
2,66122, Control_c, 0, 64, 47
2,66141, Control_c, 0, 64, 60
2,66149, Note_on_c, 0, 72, 74
2,66161, Control_c, 0, 64, 65
2,66179, Control_c, 0, 64, 70
2,66199, Control_c, 0, 64, 80
2,66208, Note_on_c, 0, 71, 0
2,66218, Control_c, 0, 64, 97
2,66238, Control_c, 0, 64, 127
2,66290, Note_on_c, 0, 79, 0
2,66314, Note_on_c, 0, 56, 0
2,66341, Note_on_c, 0, 74, 77
2,66582, Control_c, 0, 64, 117
2,66588, Note_on_c, 0, 75, 77
2,66589, Note_on_c, 0, 55, 76
2,66601, Control_c, 0, 64, 89
2,66620, Control_c, 0, 64, 73
2,66640, Control_c, 0, 64, 63
2,66646, Note_on_c, 0, 74, 0
2,66659, Control_c, 0, 64, 34
2,66678, Control_c, 0, 64, 0
2,67004, Control_c, 0, 64, 43
2,67023, Control_c, 0, 64, 58
2,67035, Note_on_c, 0, 72, 0
2,67039, Note_on_c, 0, 70, 72
2,67043, Control_c, 0, 64, 63
2,67062, Control_c, 0, 64, 66
2,67081, Control_c, 0, 64, 68
2,67100, Control_c, 0, 64, 73
2,67120, Control_c, 0, 64, 84
2,67139, Control_c, 0, 64, 104
2,67158, Control_c, 0, 64, 127
2,67334, Note_on_c, 0, 70, 0
2,67408, Note_on_c, 0, 55, 0
2,67465, Control_c, 0, 64, 113
2,67484, Control_c, 0, 64, 101
2,67498, Note_on_c, 0, 54, 66
2,67503, Control_c, 0, 64, 90
2,67511, Note_on_c, 0, 69, 62
2,67523, Control_c, 0, 64, 79
2,67542, Control_c, 0, 64, 70
2,67561, Control_c, 0, 64, 60
2,67580, Control_c, 0, 64, 35
2,67600, Control_c, 0, 64, 0
2,67715, Note_on_c, 0, 72, 73
2,67734, Control_c, 0, 64, 43
2,67745, Note_on_c, 0, 69, 0
2,67751, Note_on_c, 0, 75, 0
2,67753, Control_c, 0, 64, 59
2,67772, Control_c, 0, 64, 63
2,67791, Control_c, 0, 64, 65
2,67811, Control_c, 0, 64, 67
2,67829, Control_c, 0, 64, 73
2,67849, Control_c, 0, 64, 83
2,67868, Control_c, 0, 64, 96
2,67874, Note_on_c, 0, 54, 0
2,67888, Control_c, 0, 64, 103
2,67906, Control_c, 0, 64, 104
2,67926, Control_c, 0, 64, 105
2,67926, Note_on_c, 0, 74, 76
2,67931, Note_on_c, 0, 71, 71
2,67945, Control_c, 0, 64, 107
2,67949, Note_on_c, 0, 72, 0
2,67964, Control_c, 0, 64, 112
2,67983, Control_c, 0, 64, 117
2,68003, Control_c, 0, 64, 119
2,68022, Control_c, 0, 64, 121
2,68115, Note_on_c, 0, 72, 77
2,68119, Note_on_c, 0, 75, 80
2,68127, Note_on_c, 0, 71, 0
2,68156, Control_c, 0, 64, 123
2,68172, Note_on_c, 0, 74, 0
2,68233, Control_c, 0, 64, 121
2,68252, Control_c, 0, 64, 118
2,68271, Control_c, 0, 64, 110
2,68291, Control_c, 0, 64, 101
2,68309, Control_c, 0, 64, 91
2,68329, Control_c, 0, 64, 79
2,68339, Note_on_c, 0, 59, 79
2,68339, Note_on_c, 0, 74, 68
2,68342, Note_on_c, 0, 77, 77
2,68348, Control_c, 0, 64, 68
2,68368, Control_c, 0, 64, 51
2,68369, Note_on_c, 0, 72, 0
2,68386, Control_c, 0, 64, 0
2,68466, Note_on_c, 0, 75, 0
2,68569, Note_on_c, 0, 72, 75
2,68616, Note_on_c, 0, 74, 0
2,68636, Control_c, 0, 64, 23
2,68655, Control_c, 0, 64, 50
2,68674, Control_c, 0, 64, 58
2,68694, Control_c, 0, 64, 61
2,68713, Control_c, 0, 64, 62
2,68732, Control_c, 0, 64, 64
2,68748, Note_on_c, 0, 72, 0
2,68751, Control_c, 0, 64, 66
2,68767, Note_on_c, 0, 71, 70
2,68771, Control_c, 0, 64, 69
2,68789, Control_c, 0, 64, 76
2,68790, Note_on_c, 0, 59, 0
2,68809, Control_c, 0, 64, 85
2,68828, Control_c, 0, 64, 94
2,68848, Control_c, 0, 64, 106
2,68866, Control_c, 0, 64, 127
2,68973, Note_on_c, 0, 69, 75
2,69015, Note_on_c, 0, 71, 0
2,69056, Note_on_c, 0, 69, 0
2,69064, Note_on_c, 0, 77, 0
2,69207, Note_on_c, 0, 60, 75
2,69209, Note_on_c, 0, 67, 71
2,69232, Control_c, 0, 64, 100
2,69252, Control_c, 0, 64, 82
2,69270, Control_c, 0, 64, 70
2,69290, Control_c, 0, 64, 59
2,69309, Control_c, 0, 64, 0
2,69411, Note_on_c, 0, 75, 80
2,69463, Control_c, 0, 64, 37
2,69482, Control_c, 0, 64, 57
2,69501, Control_c, 0, 64, 63
2,69521, Control_c, 0, 64, 66
2,69539, Control_c, 0, 64, 70
2,69559, Control_c, 0, 64, 77
2,69576, Note_on_c, 0, 67, 0
2,69578, Control_c, 0, 64, 91
2,69598, Control_c, 0, 64, 127
2,69614, Note_on_c, 0, 77, 84
2,69800, Note_on_c, 0, 79, 89
2,69875, Note_on_c, 0, 75, 0
2,70019, Control_c, 0, 64, 103
2,70039, Control_c, 0, 64, 82
2,70047, Note_on_c, 0, 80, 87
2,70054, Note_on_c, 0, 53, 69
2,70057, Note_on_c, 0, 60, 0
2,70058, Control_c, 0, 64, 69
2,70059, Note_on_c, 0, 77, 0
2,70078, Control_c, 0, 64, 58
2,70091, Note_on_c, 0, 79, 0
2,70096, Control_c, 0, 64, 0
2,70262, Note_on_c, 0, 65, 60
2,70269, Control_c, 0, 64, 41
2,70289, Control_c, 0, 64, 57
2,70307, Control_c, 0, 64, 63
2,70327, Control_c, 0, 64, 64
2,70346, Control_c, 0, 64, 66
2,70348, Note_on_c, 0, 80, 0
2,70365, Control_c, 0, 64, 69
2,70384, Control_c, 0, 64, 78
2,70404, Control_c, 0, 64, 93
2,70405, Note_on_c, 0, 65, 0
2,70423, Control_c, 0, 64, 116
2,70442, Control_c, 0, 64, 127
2,70469, Note_on_c, 0, 63, 72
2,70631, Note_on_c, 0, 53, 0
2,70663, Note_on_c, 0, 63, 0
2,70668, Note_on_c, 0, 62, 70
2,70846, Note_on_c, 0, 62, 0
2,70895, Note_on_c, 0, 60, 77
2,70899, Note_on_c, 0, 52, 65
2,70903, Control_c, 0, 64, 97
2,70922, Control_c, 0, 64, 78
2,70941, Control_c, 0, 64, 66
2,70961, Control_c, 0, 64, 45
2,70979, Control_c, 0, 64, 0
2,71104, Note_on_c, 0, 79, 84
2,71114, Control_c, 0, 64, 20
2,71134, Control_c, 0, 64, 52
2,71153, Control_c, 0, 64, 61
2,71173, Control_c, 0, 64, 64
2,71191, Control_c, 0, 64, 66
2,71211, Control_c, 0, 64, 70
2,71230, Control_c, 0, 64, 79
2,71249, Control_c, 0, 64, 97
2,71268, Control_c, 0, 64, 127
2,71274, Note_on_c, 0, 52, 0
2,71310, Note_on_c, 0, 81, 90
2,71503, Note_on_c, 0, 83, 94
2,71524, Note_on_c, 0, 79, 0
2,71562, Note_on_c, 0, 81, 0
2,71729, Control_c, 0, 64, 104
2,71748, Control_c, 0, 64, 80
2,71748, Note_on_c, 0, 84, 92
2,71754, Note_on_c, 0, 51, 71
2,71768, Control_c, 0, 64, 65
2,71773, Note_on_c, 0, 83, 0
2,71787, Control_c, 0, 64, 35
2,71806, Control_c, 0, 64, 0
2,71870, Note_on_c, 0, 60, 0
2,71955, Note_on_c, 0, 72, 76
2,71960, Control_c, 0, 64, 29
2,71979, Control_c, 0, 64, 50
2,71999, Control_c, 0, 64, 59
2,72017, Control_c, 0, 64, 63
2,72036, Control_c, 0, 64, 66
2,72039, Note_on_c, 0, 72, 0
2,72056, Control_c, 0, 64, 69
2,72073, Control_c, 0, 64, 77
2,72092, Control_c, 0, 64, 96
2,72111, Control_c, 0, 64, 127
2,72162, Note_on_c, 0, 74, 80
2,72365, Note_on_c, 0, 75, 86
2,72411, Note_on_c, 0, 74, 0
2,72629, Control_c, 0, 64, 101
2,72649, Control_c, 0, 64, 86
2,72652, Note_on_c, 0, 50, 63
2,72652, Note_on_c, 0, 77, 81
2,72668, Control_c, 0, 64, 77
2,72683, Note_on_c, 0, 75, 0
2,72688, Control_c, 0, 64, 69
2,72706, Control_c, 0, 64, 64
2,72707, Note_on_c, 0, 51, 0
2,72726, Control_c, 0, 64, 56
2,72745, Control_c, 0, 64, 44
2,72764, Control_c, 0, 64, 24
2,72783, Control_c, 0, 64, 0
2,73070, Note_on_c, 0, 83, 78
2,73124, Note_on_c, 0, 84, 0
2,73272, Note_on_c, 0, 81, 83
2,73333, Note_on_c, 0, 83, 0
2,73571, Note_on_c, 0, 83, 76
2,73600, Note_on_c, 0, 81, 0
2,73897, Control_c, 0, 64, 18
2,73916, Control_c, 0, 64, 34
2,73935, Control_c, 0, 64, 46
2,73954, Control_c, 0, 64, 54
2,73975, Control_c, 0, 64, 58
2,73989, Note_on_c, 0, 77, 0
2,73994, Control_c, 0, 64, 61
2,74013, Control_c, 0, 64, 62
2,74019, Note_on_c, 0, 75, 56
2,74032, Control_c, 0, 64, 64
2,74052, Control_c, 0, 64, 65
2,74070, Control_c, 0, 64, 67
2,74090, Control_c, 0, 64, 70
2,74109, Control_c, 0, 64, 74
2,74129, Control_c, 0, 64, 79
2,74147, Control_c, 0, 64, 83
2,74167, Control_c, 0, 64, 86
2,74178, Note_on_c, 0, 75, 0
2,74180, Note_on_c, 0, 83, 0
2,74186, Control_c, 0, 64, 88
2,74205, Control_c, 0, 64, 90
2,74206, Note_on_c, 0, 74, 55
2,74224, Control_c, 0, 64, 91
2,74244, Control_c, 0, 64, 91
2,74274, Note_on_c, 0, 74, 0
2,74304, Note_on_c, 0, 50, 0
2,74339, Control_c, 0, 64, 91
2,74359, Control_c, 0, 64, 90
2,74378, Control_c, 0, 64, 88
2,74397, Control_c, 0, 64, 87
2,74416, Control_c, 0, 64, 85
2,74435, Control_c, 0, 64, 82
2,74455, Control_c, 0, 64, 78
2,74474, Control_c, 0, 64, 73
2,74493, Control_c, 0, 64, 67
2,74512, Control_c, 0, 64, 60
2,74516, Note_on_c, 0, 84, 64
2,74526, Note_on_c, 0, 48, 41
2,74528, Note_on_c, 0, 75, 48
2,74532, Control_c, 0, 64, 39
2,74550, Control_c, 0, 64, 0
2,74627, Control_c, 0, 64, 31
2,74647, Control_c, 0, 64, 55
2,74666, Control_c, 0, 64, 64
2,74673, Note_on_c, 0, 84, 0
2,74685, Control_c, 0, 64, 68
2,74697, Note_on_c, 0, 48, 0
2,74699, Note_on_c, 0, 75, 0
2,74704, Control_c, 0, 64, 74
2,74724, Control_c, 0, 64, 82
2,74743, Control_c, 0, 64, 91
2,74762, Control_c, 0, 64, 97
2,74781, Control_c, 0, 64, 101
2,74858, Control_c, 0, 64, 100
2,74877, Control_c, 0, 64, 99
2,74896, Control_c, 0, 64, 97
2,74915, Control_c, 0, 64, 94
2,74935, Control_c, 0, 64, 90
2,74954, Control_c, 0, 64, 85
2,74973, Control_c, 0, 64, 80
2,74980, Note_on_c, 0, 79, 55
2,74992, Control_c, 0, 64, 76
2,74994, Note_on_c, 0, 72, 51
2,75012, Control_c, 0, 64, 73
2,75030, Control_c, 0, 64, 70
2,75050, Control_c, 0, 64, 68
2,75069, Control_c, 0, 64, 65
2,75089, Control_c, 0, 64, 63
2,75107, Control_c, 0, 64, 61
2,75127, Control_c, 0, 64, 59
2,75146, Control_c, 0, 64, 58
2,75159, Note_on_c, 0, 79, 0
2,75165, Control_c, 0, 64, 57
2,75183, Note_on_c, 0, 72, 0
2,75184, Control_c, 0, 64, 56
2,75195, Note_on_c, 0, 74, 63
2,75204, Control_c, 0, 64, 55
2,75223, Control_c, 0, 64, 54
2,75242, Control_c, 0, 64, 52
2,75261, Control_c, 0, 64, 49
2,75281, Control_c, 0, 64, 46
2,75299, Control_c, 0, 64, 44
2,75319, Control_c, 0, 64, 43
2,75338, Control_c, 0, 64, 43
2,75357, Control_c, 0, 64, 42
2,75376, Control_c, 0, 64, 41
2,75395, Control_c, 0, 64, 40
2,75415, Control_c, 0, 64, 38
2,75434, Control_c, 0, 64, 36
2,75453, Control_c, 0, 64, 35
2,75467, Note_on_c, 0, 84, 67
2,75472, Control_c, 0, 64, 35
2,75480, Note_on_c, 0, 75, 45
2,75488, Note_on_c, 0, 74, 0
2,75492, Control_c, 0, 64, 34
2,75931, Note_on_c, 0, 72, 48
2,75932, Control_c, 0, 64, 35
2,75971, Control_c, 0, 64, 35
2,76144, Note_on_c, 0, 72, 0
2,76146, Note_on_c, 0, 70, 51
2,76240, Control_c, 0, 64, 36
2,76259, Control_c, 0, 64, 37
2,76277, Control_c, 0, 64, 40
2,76297, Control_c, 0, 64, 43
2,76316, Control_c, 0, 64, 46
2,76335, Control_c, 0, 64, 50
2,76349, Note_on_c, 0, 70, 0
2,76354, Control_c, 0, 64, 54
2,76373, Note_on_c, 0, 69, 55
2,76374, Control_c, 0, 64, 57
2,76393, Control_c, 0, 64, 61
2,76412, Control_c, 0, 64, 64
2,76431, Control_c, 0, 64, 67
2,76451, Control_c, 0, 64, 71
2,76469, Control_c, 0, 64, 78
2,76489, Control_c, 0, 64, 89
2,76508, Control_c, 0, 64, 99
2,76528, Control_c, 0, 64, 112
2,76528, Note_on_c, 0, 69, 0
2,76546, Control_c, 0, 64, 127
2,76549, Note_on_c, 0, 84, 0
2,76796, Control_c, 0, 64, 115
2,76815, Control_c, 0, 64, 103
2,76827, Note_on_c, 0, 84, 66
2,76834, Control_c, 0, 64, 94
2,76849, Note_on_c, 0, 69, 38
2,76853, Control_c, 0, 64, 87
2,76872, Control_c, 0, 64, 82
2,76891, Control_c, 0, 64, 77
2,76910, Control_c, 0, 64, 72
2,76930, Control_c, 0, 64, 68
2,76949, Control_c, 0, 64, 65
2,76968, Control_c, 0, 64, 63
2,76987, Control_c, 0, 64, 62
2,77007, Control_c, 0, 64, 61
2,77025, Control_c, 0, 64, 61
2,77026, Note_on_c, 0, 82, 71
2,77042, Note_on_c, 0, 67, 42
2,77045, Control_c, 0, 64, 60
2,77057, Note_on_c, 0, 69, 0
2,77058, Note_on_c, 0, 84, 0
2,77064, Control_c, 0, 64, 59
2,77084, Control_c, 0, 64, 57
2,77102, Control_c, 0, 64, 55
2,77122, Control_c, 0, 64, 53
2,77141, Control_c, 0, 64, 51
2,77160, Control_c, 0, 64, 48
2,77179, Control_c, 0, 64, 43
2,77199, Control_c, 0, 64, 38
2,77218, Control_c, 0, 64, 30
2,77236, Control_c, 0, 64, 11
2,77256, Control_c, 0, 64, 0
2,77258, Note_on_c, 0, 67, 0
2,77287, Note_on_c, 0, 81, 64
2,77299, Note_on_c, 0, 65, 29
2,77302, Note_on_c, 0, 82, 0
2,77467, Control_c, 0, 64, 33
2,77487, Control_c, 0, 64, 51
2,77505, Control_c, 0, 64, 61
2,77525, Control_c, 0, 64, 64
2,77544, Control_c, 0, 64, 66
2,77550, Note_on_c, 0, 81, 0
2,77564, Control_c, 0, 64, 68
2,77582, Control_c, 0, 64, 73
2,77602, Control_c, 0, 64, 80
2,77613, Note_on_c, 0, 65, 0
2,77621, Control_c, 0, 64, 86
2,77640, Control_c, 0, 64, 88
2,77678, Control_c, 0, 64, 88
2,77698, Control_c, 0, 64, 87
2,77716, Control_c, 0, 64, 86
2,77736, Control_c, 0, 64, 84
2,77738, Note_on_c, 0, 81, 59
2,77747, Note_on_c, 0, 67, 44
2,77755, Control_c, 0, 64, 82
2,77774, Control_c, 0, 64, 79
2,77793, Control_c, 0, 64, 77
2,77811, Control_c, 0, 64, 74
2,77831, Control_c, 0, 64, 72
2,77850, Control_c, 0, 64, 70
2,77869, Control_c, 0, 64, 69
2,77889, Control_c, 0, 64, 68
2,77908, Control_c, 0, 64, 67
2,77927, Control_c, 0, 64, 66
2,77946, Control_c, 0, 64, 64
2,77948, Note_on_c, 0, 69, 52
2,77948, Note_on_c, 0, 79, 66
2,77966, Control_c, 0, 64, 63
2,77984, Control_c, 0, 64, 60
2,77987, Note_on_c, 0, 81, 0
2,77993, Note_on_c, 0, 67, 0
2,78004, Control_c, 0, 64, 57
2,78023, Control_c, 0, 64, 53
2,78043, Control_c, 0, 64, 48
2,78061, Control_c, 0, 64, 40
2,78081, Control_c, 0, 64, 26
2,78100, Control_c, 0, 64, 0
2,78155, Note_on_c, 0, 69, 0
2,78191, Note_on_c, 0, 75, 0
2,78196, Note_on_c, 0, 77, 62
2,78206, Note_on_c, 0, 70, 45
2,78207, Note_on_c, 0, 79, 0
2,78330, Control_c, 0, 64, 29
2,78349, Control_c, 0, 64, 48
2,78369, Control_c, 0, 64, 57
2,78388, Control_c, 0, 64, 62
2,78407, Control_c, 0, 64, 64
2,78429, Control_c, 0, 64, 67
2,78447, Note_on_c, 0, 77, 0
2,78448, Control_c, 0, 64, 70
2,78449, Note_on_c, 0, 70, 0
2,78467, Control_c, 0, 64, 76
2,78486, Control_c, 0, 64, 82
2,78506, Control_c, 0, 64, 86
2,78525, Control_c, 0, 64, 87
2,78583, Control_c, 0, 64, 86
2,78602, Control_c, 0, 64, 84
2,78621, Control_c, 0, 64, 80
2,78640, Control_c, 0, 64, 74
2,78657, Note_on_c, 0, 70, 55
2,78659, Note_on_c, 0, 79, 69
2,78660, Control_c, 0, 64, 67
2,78670, Note_on_c, 0, 58, 42
2,78678, Control_c, 0, 64, 61
2,78698, Control_c, 0, 64, 48
2,78717, Control_c, 0, 64, 32
2,78737, Control_c, 0, 64, 35
2,78752, Note_on_c, 0, 70, 0
2,78755, Control_c, 0, 64, 46
2,78776, Control_c, 0, 64, 56
2,78795, Control_c, 0, 64, 61
2,78814, Control_c, 0, 64, 64
2,78833, Control_c, 0, 64, 67
2,78853, Control_c, 0, 64, 73
2,78867, Note_on_c, 0, 81, 80
2,78872, Control_c, 0, 64, 85
2,78876, Note_on_c, 0, 72, 61
2,78887, Note_on_c, 0, 79, 0
2,78891, Control_c, 0, 64, 100
2,78910, Control_c, 0, 64, 121
2,78921, Note_on_c, 0, 58, 0
2,78922, Note_on_c, 0, 72, 0
2,78929, Control_c, 0, 64, 127
2,79064, Control_c, 0, 64, 118
2,79082, Control_c, 0, 64, 107
2,79102, Control_c, 0, 64, 96
2,79121, Control_c, 0, 64, 89
2,79141, Control_c, 0, 64, 83
2,79159, Control_c, 0, 64, 78
2,79175, Note_on_c, 0, 82, 74
2,79179, Control_c, 0, 64, 75
2,79187, Note_on_c, 0, 73, 50
2,79193, Note_on_c, 0, 81, 0
2,79198, Control_c, 0, 64, 73
2,79217, Control_c, 0, 64, 72
2,79236, Control_c, 0, 64, 70
2,79256, Control_c, 0, 64, 66
2,79275, Control_c, 0, 64, 63
2,79294, Control_c, 0, 64, 59
2,79313, Control_c, 0, 64, 55
2,79333, Control_c, 0, 64, 51
2,79352, Control_c, 0, 64, 48
2,79371, Control_c, 0, 64, 46
2,79390, Control_c, 0, 64, 42
2,79409, Control_c, 0, 64, 37
2,79428, Control_c, 0, 64, 32
2,79447, Control_c, 0, 64, 27
2,79467, Control_c, 0, 64, 21
2,79486, Control_c, 0, 64, 15
2,79505, Control_c, 0, 64, 0
2,79658, Note_on_c, 0, 70, 54
2,79867, Note_on_c, 0, 68, 58
2,79935, Note_on_c, 0, 70, 0
2,80097, Note_on_c, 0, 68, 0
2,80112, Note_on_c, 0, 67, 49
2,80157, Control_c, 0, 64, 28
2,80177, Control_c, 0, 64, 49
2,80195, Control_c, 0, 64, 59
2,80215, Control_c, 0, 64, 64
2,80234, Control_c, 0, 64, 68
2,80253, Control_c, 0, 64, 73
2,80272, Control_c, 0, 64, 83
2,80280, Note_on_c, 0, 67, 0
2,80288, Note_on_c, 0, 82, 0
2,80292, Control_c, 0, 64, 96
2,80311, Control_c, 0, 64, 108
2,80329, Control_c, 0, 64, 123
2,80349, Control_c, 0, 64, 127
2,80522, Control_c, 0, 64, 119
2,80541, Control_c, 0, 64, 107
2,80560, Control_c, 0, 64, 99
2,80563, Note_on_c, 0, 82, 64
2,80580, Control_c, 0, 64, 92
2,80593, Note_on_c, 0, 67, 33
2,80598, Control_c, 0, 64, 86
2,80618, Control_c, 0, 64, 80
2,80637, Control_c, 0, 64, 76
2,80657, Control_c, 0, 64, 73
2,80675, Control_c, 0, 64, 70
2,80694, Control_c, 0, 64, 68
2,80715, Control_c, 0, 64, 65
2,80734, Control_c, 0, 64, 64
2,80753, Control_c, 0, 64, 62
2,80771, Note_on_c, 0, 80, 69
2,80773, Control_c, 0, 64, 61
2,80773, Note_on_c, 0, 67, 0
2,80775, Note_on_c, 0, 65, 41
2,80792, Control_c, 0, 64, 60
2,80811, Control_c, 0, 64, 58
2,80830, Control_c, 0, 64, 56
2,80849, Control_c, 0, 64, 52
2,80868, Control_c, 0, 64, 46
2,80887, Control_c, 0, 64, 35
2,80888, Note_on_c, 0, 82, 0
2,80907, Control_c, 0, 64, 0
2,80986, Note_on_c, 0, 65, 0
2,81002, Note_on_c, 0, 79, 66
2,81021, Note_on_c, 0, 63, 42
2,81025, Note_on_c, 0, 80, 0
2,81118, Control_c, 0, 64, 27
2,81137, Control_c, 0, 64, 52
2,81156, Control_c, 0, 64, 63
2,81168, Note_on_c, 0, 79, 0
2,81176, Control_c, 0, 64, 67
2,81195, Control_c, 0, 64, 71
2,81214, Control_c, 0, 64, 78
2,81233, Control_c, 0, 64, 89
2,81253, Control_c, 0, 64, 101
2,81272, Control_c, 0, 64, 115
2,81290, Control_c, 0, 64, 127
2,81307, Note_on_c, 0, 63, 0
2,81387, Control_c, 0, 64, 123
2,81406, Control_c, 0, 64, 113
2,81425, Control_c, 0, 64, 104
2,81444, Control_c, 0, 64, 95
2,81464, Control_c, 0, 64, 86
2,81465, Note_on_c, 0, 79, 69
2,81472, Note_on_c, 0, 65, 47
2,81482, Control_c, 0, 64, 78
2,81502, Control_c, 0, 64, 72
2,81521, Control_c, 0, 64, 68
2,81541, Control_c, 0, 64, 64
2,81559, Control_c, 0, 64, 61
2,81579, Control_c, 0, 64, 57
2,81598, Control_c, 0, 64, 52
2,81617, Control_c, 0, 64, 47
2,81636, Control_c, 0, 64, 43
2,81654, Control_c, 0, 64, 38
2,81660, Note_on_c, 0, 77, 65
2,81665, Note_on_c, 0, 65, 0
2,81676, Control_c, 0, 64, 30
2,81682, Note_on_c, 0, 67, 48
2,81695, Control_c, 0, 64, 17
2,81702, Note_on_c, 0, 79, 0
2,81714, Control_c, 0, 64, 0
2,81897, Note_on_c, 0, 67, 0
2,81917, Note_on_c, 0, 75, 61
2,81941, Note_on_c, 0, 77, 0
2,81942, Note_on_c, 0, 68, 45
2,82002, Control_c, 0, 64, 17
2,82022, Control_c, 0, 64, 43
2,82040, Control_c, 0, 64, 56
2,82060, Control_c, 0, 64, 61
2,82079, Control_c, 0, 64, 63
2,82098, Control_c, 0, 64, 65
2,82117, Control_c, 0, 64, 67
2,82137, Control_c, 0, 64, 74
2,82154, Note_on_c, 0, 73, 0
2,82156, Control_c, 0, 64, 84
2,82175, Control_c, 0, 64, 93
2,82176, Note_on_c, 0, 68, 0
2,82194, Control_c, 0, 64, 97
2,82195, Note_on_c, 0, 75, 0
2,82271, Control_c, 0, 64, 96
2,82309, Control_c, 0, 64, 95
2,82328, Control_c, 0, 64, 94
2,82348, Control_c, 0, 64, 91
2,82367, Control_c, 0, 64, 85
2,82383, Note_on_c, 0, 68, 59
2,82383, Note_on_c, 0, 77, 63
2,82386, Control_c, 0, 64, 78
2,82403, Note_on_c, 0, 56, 47
2,82405, Control_c, 0, 64, 70
2,82425, Control_c, 0, 64, 62
2,82443, Control_c, 0, 64, 49
2,82463, Control_c, 0, 64, 22
2,82475, Note_on_c, 0, 68, 0
2,82482, Control_c, 0, 64, 0
2,82502, Control_c, 0, 64, 21
2,82520, Control_c, 0, 64, 37
2,82540, Control_c, 0, 64, 52
2,82559, Control_c, 0, 64, 59
2,82578, Control_c, 0, 64, 62
2,82585, Note_on_c, 0, 79, 76
2,82594, Note_on_c, 0, 70, 65
2,82597, Control_c, 0, 64, 64
2,82615, Control_c, 0, 64, 67
2,82635, Control_c, 0, 64, 72
2,82650, Note_on_c, 0, 70, 0
2,82654, Control_c, 0, 64, 83
2,82660, Note_on_c, 0, 77, 0
2,82673, Control_c, 0, 64, 100
2,82683, Note_on_c, 0, 79, 0
2,82693, Control_c, 0, 64, 127
2,82808, Note_on_c, 0, 56, 0
2,82827, Control_c, 0, 64, 118
2,82846, Control_c, 0, 64, 104
2,82864, Note_on_c, 0, 72, 63
2,82864, Note_on_c, 0, 80, 77
2,82865, Control_c, 0, 64, 92
2,82884, Control_c, 0, 64, 82
2,82904, Control_c, 0, 64, 74
2,82922, Control_c, 0, 64, 68
2,82942, Control_c, 0, 64, 63
2,82961, Control_c, 0, 64, 59
2,82981, Control_c, 0, 64, 55
2,82999, Control_c, 0, 64, 54
2,83019, Control_c, 0, 64, 54
2,83038, Control_c, 0, 64, 52
2,83057, Control_c, 0, 64, 50
2,83076, Control_c, 0, 64, 47
2,83096, Control_c, 0, 64, 42
2,83115, Control_c, 0, 64, 38
2,83134, Control_c, 0, 64, 36
2,83153, Control_c, 0, 64, 34
2,83173, Control_c, 0, 64, 32
2,83192, Control_c, 0, 64, 30
2,83210, Control_c, 0, 64, 28
2,83230, Control_c, 0, 64, 25
2,83249, Control_c, 0, 64, 23
2,83268, Control_c, 0, 64, 22
2,83287, Control_c, 0, 64, 21
2,83307, Control_c, 0, 64, 19
2,83326, Control_c, 0, 64, 18
2,83342, Note_on_c, 0, 68, 54
2,83345, Control_c, 0, 64, 17
2,83384, Control_c, 0, 64, 15
2,83530, Note_on_c, 0, 67, 56
2,83582, Note_on_c, 0, 68, 0
2,83768, Control_c, 0, 64, 18
2,83778, Note_on_c, 0, 65, 49
2,83783, Note_on_c, 0, 67, 0
2,83788, Control_c, 0, 64, 30
2,83807, Control_c, 0, 64, 42
2,83826, Control_c, 0, 64, 53
2,83845, Control_c, 0, 64, 60
2,83865, Control_c, 0, 64, 63
2,83883, Control_c, 0, 64, 65
2,83903, Control_c, 0, 64, 67
2,83922, Control_c, 0, 64, 75
2,83942, Control_c, 0, 64, 88
2,83957, Note_on_c, 0, 65, 0
2,83960, Control_c, 0, 64, 104
2,83969, Note_on_c, 0, 80, 0
2,83980, Control_c, 0, 64, 127
2,84134, Control_c, 0, 64, 123
2,84152, Control_c, 0, 64, 111
2,84172, Control_c, 0, 64, 102
2,84191, Control_c, 0, 64, 94
2,84210, Control_c, 0, 64, 86
2,84229, Control_c, 0, 64, 80
2,84233, Note_on_c, 0, 80, 67
2,84248, Control_c, 0, 64, 76
2,84256, Note_on_c, 0, 65, 41
2,84268, Control_c, 0, 64, 73
2,84287, Control_c, 0, 64, 71
2,84306, Control_c, 0, 64, 68
2,84325, Control_c, 0, 64, 65
2,84345, Control_c, 0, 64, 62
2,84363, Control_c, 0, 64, 60
2,84383, Control_c, 0, 64, 58
2,84402, Control_c, 0, 64, 56
2,84418, Note_on_c, 0, 65, 0
2,84422, Control_c, 0, 64, 52
2,84437, Note_on_c, 0, 63, 53
2,84440, Control_c, 0, 64, 46
2,84454, Note_on_c, 0, 79, 66
2,84460, Control_c, 0, 64, 33
2,84479, Control_c, 0, 64, 0
2,84655, Note_on_c, 0, 63, 0
2,84664, Note_on_c, 0, 80, 0
2,84677, Note_on_c, 0, 61, 48
2,84685, Note_on_c, 0, 77, 65
2,84700, Note_on_c, 0, 79, 0
2,84727, Control_c, 0, 64, 9
2,84747, Control_c, 0, 64, 44
2,84766, Control_c, 0, 64, 58
2,84785, Control_c, 0, 64, 63
2,84804, Control_c, 0, 64, 65
2,84824, Control_c, 0, 64, 67
2,84830, Note_on_c, 0, 61, 0
2,84831, Note_on_c, 0, 77, 0
2,84842, Control_c, 0, 64, 71
2,84862, Control_c, 0, 64, 78
2,84881, Control_c, 0, 64, 91
2,84901, Control_c, 0, 64, 98
2,84919, Control_c, 0, 64, 99
2,84958, Control_c, 0, 64, 98
2,84977, Control_c, 0, 64, 98
2,85016, Control_c, 0, 64, 96
2,85035, Control_c, 0, 64, 93
2,85054, Control_c, 0, 64, 89
2,85073, Control_c, 0, 64, 83
2,85093, Control_c, 0, 64, 77
2,85112, Control_c, 0, 64, 72
2,85128, Note_on_c, 0, 77, 63
2,85130, Control_c, 0, 64, 68
2,85142, Note_on_c, 0, 61, 48
2,85150, Control_c, 0, 64, 65
2,85169, Control_c, 0, 64, 61
2,85188, Control_c, 0, 64, 58
2,85207, Control_c, 0, 64, 54
2,85227, Control_c, 0, 64, 50
2,85246, Control_c, 0, 64, 46
2,85265, Control_c, 0, 64, 42
2,85284, Control_c, 0, 64, 36
2,85304, Control_c, 0, 64, 27
2,85322, Control_c, 0, 64, 15
2,85323, Note_on_c, 0, 75, 72
2,85341, Note_on_c, 0, 60, 50
2,85342, Control_c, 0, 64, 0
2,85382, Note_on_c, 0, 61, 0
2,85391, Note_on_c, 0, 77, 0
2,85536, Note_on_c, 0, 60, 0
2,85565, Note_on_c, 0, 73, 67
2,85569, Note_on_c, 0, 58, 45
2,85582, Note_on_c, 0, 72, 0
2,85612, Note_on_c, 0, 75, 0
2,85668, Control_c, 0, 64, 36
2,85687, Control_c, 0, 64, 54
2,85707, Control_c, 0, 64, 60
2,85726, Control_c, 0, 64, 62
2,85745, Control_c, 0, 64, 63
2,85764, Control_c, 0, 64, 64
2,85784, Control_c, 0, 64, 64
2,85802, Control_c, 0, 64, 65
2,85822, Control_c, 0, 64, 65
2,85879, Control_c, 0, 64, 65
2,85879, Note_on_c, 0, 58, 0
2,85899, Control_c, 0, 64, 64
2,85918, Control_c, 0, 64, 64
2,85937, Control_c, 0, 64, 63
2,85956, Control_c, 0, 64, 61
2,85976, Control_c, 0, 64, 59
2,85995, Control_c, 0, 64, 55
2,86003, Note_on_c, 0, 70, 62
2,86012, Note_on_c, 0, 60, 44
2,86014, Control_c, 0, 64, 51
2,86033, Control_c, 0, 64, 45
2,86053, Control_c, 0, 64, 35
2,86072, Control_c, 0, 64, 0
2,86195, Note_on_c, 0, 60, 0
2,86213, Note_on_c, 0, 68, 63
2,86222, Note_on_c, 0, 61, 53
2,86237, Note_on_c, 0, 70, 0
2,86425, Note_on_c, 0, 73, 0
2,86430, Note_on_c, 0, 61, 0
2,86459, Note_on_c, 0, 68, 0
2,86462, Note_on_c, 0, 67, 50
2,86478, Note_on_c, 0, 63, 39
2,86570, Control_c, 0, 64, 43
2,86590, Control_c, 0, 64, 59
2,86609, Control_c, 0, 64, 63
2,86628, Control_c, 0, 64, 64
2,86647, Control_c, 0, 64, 65
2,86667, Control_c, 0, 64, 67
2,86686, Control_c, 0, 64, 73
2,86705, Control_c, 0, 64, 79
2,86724, Control_c, 0, 64, 84
2,86744, Control_c, 0, 64, 85
2,86782, Control_c, 0, 64, 85
2,86801, Control_c, 0, 64, 84
2,86821, Control_c, 0, 64, 83
2,86839, Control_c, 0, 64, 80
2,86859, Control_c, 0, 64, 75
2,86865, Note_on_c, 0, 63, 0
2,86878, Control_c, 0, 64, 69
2,86888, Note_on_c, 0, 75, 61
2,86897, Control_c, 0, 64, 63
2,86909, Note_on_c, 0, 51, 38
2,86916, Control_c, 0, 64, 54
2,86936, Control_c, 0, 64, 34
2,86955, Control_c, 0, 64, 0
2,87032, Control_c, 0, 64, 35
2,87050, Control_c, 0, 64, 50
2,87070, Control_c, 0, 64, 57
2,87089, Control_c, 0, 64, 61
2,87095, Note_on_c, 0, 73, 61
2,87108, Control_c, 0, 64, 63
2,87123, Note_on_c, 0, 75, 0
2,87127, Control_c, 0, 64, 65
2,87147, Control_c, 0, 64, 66
2,87166, Control_c, 0, 64, 68
2,87185, Control_c, 0, 64, 70
2,87204, Control_c, 0, 64, 72
2,87242, Control_c, 0, 64, 71
2,87262, Control_c, 0, 64, 71
2,87281, Control_c, 0, 64, 70
2,87301, Control_c, 0, 64, 69
2,87304, Note_on_c, 0, 51, 0
2,87319, Control_c, 0, 64, 68
2,87339, Control_c, 0, 64, 66
2,87348, Note_on_c, 0, 72, 62
2,87350, Note_on_c, 0, 56, 47
2,87358, Control_c, 0, 64, 62
2,87363, Note_on_c, 0, 73, 0
2,87377, Control_c, 0, 64, 56
2,87396, Control_c, 0, 64, 41
2,87417, Control_c, 0, 64, 0
2,87512, Control_c, 0, 64, 23
2,87531, Control_c, 0, 64, 48
2,87551, Control_c, 0, 64, 60
2,87570, Control_c, 0, 64, 64
2,87589, Control_c, 0, 64, 66
2,87598, Note_on_c, 0, 72, 0
2,87608, Control_c, 0, 64, 69
2,87628, Control_c, 0, 64, 74
2,87647, Control_c, 0, 64, 83
2,87666, Control_c, 0, 64, 91
2,87685, Control_c, 0, 64, 95
2,87705, Control_c, 0, 64, 96
2,87771, Note_on_c, 0, 72, 65
2,87782, Control_c, 0, 64, 95
2,87796, Note_on_c, 0, 58, 54
2,87800, Control_c, 0, 64, 93
2,87817, Note_on_c, 0, 56, 0
2,87820, Control_c, 0, 64, 91
2,87839, Control_c, 0, 64, 87
2,87858, Control_c, 0, 64, 83
2,87877, Control_c, 0, 64, 79
2,87897, Control_c, 0, 64, 77
2,87916, Control_c, 0, 64, 76
2,87935, Control_c, 0, 64, 76
2,87954, Control_c, 0, 64, 75
2,87974, Control_c, 0, 64, 74
2,87977, Note_on_c, 0, 70, 75
2,87992, Control_c, 0, 64, 72
2,87992, Note_on_c, 0, 58, 0
2,88002, Note_on_c, 0, 60, 51
2,88011, Control_c, 0, 64, 70
2,88031, Control_c, 0, 64, 69
2,88050, Control_c, 0, 64, 68
2,88069, Control_c, 0, 64, 66
2,88075, Note_on_c, 0, 72, 0
2,88088, Control_c, 0, 64, 65
2,88108, Control_c, 0, 64, 63
2,88127, Control_c, 0, 64, 60
2,88146, Control_c, 0, 64, 57
2,88165, Control_c, 0, 64, 54
2,88185, Control_c, 0, 64, 50
2,88203, Control_c, 0, 64, 47
2,88223, Control_c, 0, 64, 42
2,88242, Control_c, 0, 64, 38
2,88247, Note_on_c, 0, 68, 64
2,88262, Control_c, 0, 64, 32
2,88280, Control_c, 0, 64, 27
2,88280, Note_on_c, 0, 61, 51
2,88300, Control_c, 0, 64, 22
2,88319, Control_c, 0, 64, 18
2,88324, Note_on_c, 0, 67, 0
2,88338, Control_c, 0, 64, 11
2,88357, Control_c, 0, 64, 0
2,88367, Note_on_c, 0, 70, 0
2,88377, Note_on_c, 0, 60, 0
2,88725, Note_on_c, 0, 65, 51
2,88877, Note_on_c, 0, 65, 0
2,88914, Control_c, 0, 64, 11
2,88921, Note_on_c, 0, 64, 53
2,88934, Control_c, 0, 64, 17
2,88952, Control_c, 0, 64, 19
2,89029, Control_c, 0, 64, 18
2,89048, Control_c, 0, 64, 11
2,89068, Control_c, 0, 64, 0
2,89107, Note_on_c, 0, 64, 0
2,89163, Control_c, 0, 64, 9
2,89163, Note_on_c, 0, 65, 52
2,89183, Control_c, 0, 64, 27
2,89202, Control_c, 0, 64, 43
2,89222, Control_c, 0, 64, 53
2,89240, Control_c, 0, 64, 57
2,89260, Control_c, 0, 64, 60
2,89279, Control_c, 0, 64, 64
2,89298, Control_c, 0, 64, 68
2,89298, Note_on_c, 0, 61, 0
2,89307, Note_on_c, 0, 68, 0
2,89317, Control_c, 0, 64, 73
2,89336, Control_c, 0, 64, 79
2,89356, Control_c, 0, 64, 86
2,89375, Control_c, 0, 64, 90
2,89394, Control_c, 0, 64, 93
2,89414, Control_c, 0, 64, 96
2,89432, Control_c, 0, 64, 100
2,89451, Control_c, 0, 64, 101
2,89528, Control_c, 0, 64, 101
2,89548, Control_c, 0, 64, 100
2,89567, Control_c, 0, 64, 97
2,89586, Control_c, 0, 64, 93
2,89605, Control_c, 0, 64, 89
2,89625, Control_c, 0, 64, 85
2,89635, Note_on_c, 0, 70, 64
2,89639, Note_on_c, 0, 61, 45
2,89643, Control_c, 0, 64, 80
2,89663, Control_c, 0, 64, 77
2,89682, Control_c, 0, 64, 73
2,89702, Control_c, 0, 64, 70
2,89720, Control_c, 0, 64, 69
2,89740, Control_c, 0, 64, 68
2,89759, Control_c, 0, 64, 66
2,89778, Control_c, 0, 64, 65
2,89797, Control_c, 0, 64, 63
2,89799, Note_on_c, 0, 61, 0
2,89817, Control_c, 0, 64, 61
2,89836, Control_c, 0, 64, 59
2,89837, Note_on_c, 0, 72, 61
2,89840, Note_on_c, 0, 60, 44
2,89855, Control_c, 0, 64, 57
2,89864, Note_on_c, 0, 70, 0
2,89874, Control_c, 0, 64, 55
2,89888, Note_on_c, 0, 65, 0
2,89894, Control_c, 0, 64, 51
2,89912, Control_c, 0, 64, 45
2,89931, Control_c, 0, 64, 34
2,89951, Control_c, 0, 64, 0
2,90066, Note_on_c, 0, 60, 0
2,90089, Note_on_c, 0, 73, 60
2,90093, Note_on_c, 0, 72, 0
2,90096, Note_on_c, 0, 58, 43
2,90143, Control_c, 0, 64, 19
2,90162, Control_c, 0, 64, 42
2,90182, Control_c, 0, 64, 55
2,90200, Control_c, 0, 64, 62
2,90220, Control_c, 0, 64, 64
2,90239, Control_c, 0, 64, 66
2,90258, Control_c, 0, 64, 69
2,90270, Note_on_c, 0, 58, 0
2,90277, Control_c, 0, 64, 74
2,90295, Control_c, 0, 64, 81
2,90315, Control_c, 0, 64, 87
2,90334, Control_c, 0, 64, 89
2,90373, Control_c, 0, 64, 89
2,90392, Control_c, 0, 64, 88
2,90410, Control_c, 0, 64, 87
2,90430, Control_c, 0, 64, 86
2,90449, Control_c, 0, 64, 84
2,90468, Control_c, 0, 64, 82
2,90487, Control_c, 0, 64, 78
2,90507, Control_c, 0, 64, 74
2,90526, Control_c, 0, 64, 68
2,90535, Note_on_c, 0, 67, 53
2,90536, Note_on_c, 0, 58, 48
2,90545, Control_c, 0, 64, 65
2,90564, Control_c, 0, 64, 61
2,90584, Control_c, 0, 64, 56
2,90602, Control_c, 0, 64, 49
2,90622, Control_c, 0, 64, 43
2,90641, Control_c, 0, 64, 37
2,90661, Control_c, 0, 64, 32
2,90679, Control_c, 0, 64, 29
2,90699, Control_c, 0, 64, 23
2,90716, Note_on_c, 0, 67, 0
2,90718, Control_c, 0, 64, 17
2,90731, Note_on_c, 0, 56, 57
2,90733, Note_on_c, 0, 68, 67
2,90737, Control_c, 0, 64, 0
2,90738, Note_on_c, 0, 58, 0
2,90910, Note_on_c, 0, 56, 0
2,90954, Note_on_c, 0, 70, 71
2,90957, Note_on_c, 0, 55, 51
2,90977, Note_on_c, 0, 73, 0
2,91082, Control_c, 0, 64, 31
2,91102, Control_c, 0, 64, 44
2,91121, Control_c, 0, 64, 52
2,91141, Control_c, 0, 64, 58
2,91154, Note_on_c, 0, 72, 78
2,91159, Control_c, 0, 64, 61
2,91179, Control_c, 0, 64, 63
2,91190, Note_on_c, 0, 70, 0
2,91198, Control_c, 0, 64, 64
2,91202, Note_on_c, 0, 55, 0
2,91274, Control_c, 0, 64, 63
2,91293, Control_c, 0, 64, 62
2,91312, Control_c, 0, 64, 60
2,91331, Control_c, 0, 64, 56
2,91351, Control_c, 0, 64, 51
2,91362, Note_on_c, 0, 73, 75
2,91369, Control_c, 0, 64, 45
2,91374, Note_on_c, 0, 55, 54
2,91389, Control_c, 0, 64, 39
2,91408, Control_c, 0, 64, 36
2,91415, Note_on_c, 0, 72, 0
2,91446, Control_c, 0, 64, 40
2,91466, Control_c, 0, 64, 46
2,91485, Control_c, 0, 64, 50
2,91498, Note_on_c, 0, 68, 0
2,91504, Control_c, 0, 64, 53
2,91523, Control_c, 0, 64, 54
2,91543, Control_c, 0, 64, 55
2,91555, Note_on_c, 0, 55, 0
2,91556, Note_on_c, 0, 70, 76
2,91558, Note_on_c, 0, 53, 59
2,91562, Control_c, 0, 64, 55
2,91607, Note_on_c, 0, 73, 0
2,91638, Control_c, 0, 64, 55
2,91658, Control_c, 0, 64, 54
2,91677, Control_c, 0, 64, 51
2,91697, Control_c, 0, 64, 47
2,91715, Control_c, 0, 64, 40
2,91735, Control_c, 0, 64, 33
2,91754, Control_c, 0, 64, 25
2,91770, Note_on_c, 0, 53, 0
2,91772, Control_c, 0, 64, 15
2,91776, Note_on_c, 0, 79, 77
2,91782, Note_on_c, 0, 52, 54
2,91788, Note_on_c, 0, 70, 0
2,91811, Control_c, 0, 64, 21
2,91831, Control_c, 0, 64, 36
2,91849, Control_c, 0, 64, 49
2,91869, Control_c, 0, 64, 56
2,91888, Control_c, 0, 64, 59
2,91907, Control_c, 0, 64, 61
2,91926, Control_c, 0, 64, 64
2,91946, Control_c, 0, 64, 66
2,91965, Control_c, 0, 64, 68
2,91976, Note_on_c, 0, 68, 71
2,91984, Control_c, 0, 64, 72
2,92003, Control_c, 0, 64, 75
2,92023, Control_c, 0, 64, 77
2,92042, Control_c, 0, 64, 78
2,92061, Control_c, 0, 64, 77
2,92077, Note_on_c, 0, 52, 0
2,92080, Control_c, 0, 64, 76
2,92097, Note_on_c, 0, 68, 0
2,92100, Control_c, 0, 64, 74
2,92118, Control_c, 0, 64, 70
2,92138, Control_c, 0, 64, 64
2,92157, Control_c, 0, 64, 57
2,92177, Control_c, 0, 64, 36
2,92184, Note_on_c, 0, 70, 73
2,92190, Note_on_c, 0, 48, 57
2,92195, Control_c, 0, 64, 0
2,92235, Control_c, 0, 64, 29
2,92254, Control_c, 0, 64, 44
2,92273, Control_c, 0, 64, 55
2,92279, Note_on_c, 0, 79, 0
2,92292, Control_c, 0, 64, 59
2,92312, Control_c, 0, 64, 63
2,92330, Control_c, 0, 64, 65
2,92350, Control_c, 0, 64, 68
2,92357, Note_on_c, 0, 70, 0
2,92369, Control_c, 0, 64, 72
2,92372, Note_on_c, 0, 67, 63
2,92388, Control_c, 0, 64, 78
2,92407, Control_c, 0, 64, 84
2,92427, Control_c, 0, 64, 87
2,92446, Control_c, 0, 64, 86
2,92465, Control_c, 0, 64, 86
2,92484, Control_c, 0, 64, 85
2,92504, Control_c, 0, 64, 84
2,92522, Control_c, 0, 64, 82
2,92525, Note_on_c, 0, 48, 0
2,92542, Control_c, 0, 64, 80
2,92561, Control_c, 0, 64, 76
2,92581, Control_c, 0, 64, 69
2,92589, Note_on_c, 0, 53, 61
2,92599, Control_c, 0, 64, 62
2,92605, Note_on_c, 0, 68, 71
2,92619, Control_c, 0, 64, 47
2,92638, Control_c, 0, 64, 0
2,92674, Note_on_c, 0, 67, 0
2,92715, Control_c, 0, 64, 26
2,92734, Control_c, 0, 64, 49
2,92753, Control_c, 0, 64, 59
2,92772, Control_c, 0, 64, 63
2,92792, Control_c, 0, 64, 65
2,92801, Note_on_c, 0, 72, 79
2,92810, Control_c, 0, 64, 68
2,92830, Control_c, 0, 64, 72
2,92849, Control_c, 0, 64, 78
2,92868, Control_c, 0, 64, 87
2,92887, Control_c, 0, 64, 92
2,92926, Control_c, 0, 64, 91
2,92945, Control_c, 0, 64, 89
2,92964, Control_c, 0, 64, 84
2,92984, Control_c, 0, 64, 75
2,93002, Control_c, 0, 64, 64
2,93002, Note_on_c, 0, 73, 76
2,93004, Note_on_c, 0, 65, 56
2,93022, Control_c, 0, 64, 50
2,93041, Control_c, 0, 64, 21
2,93044, Note_on_c, 0, 72, 0
2,93057, Note_on_c, 0, 68, 0
2,93061, Control_c, 0, 64, 30
2,93079, Control_c, 0, 64, 46
2,93099, Control_c, 0, 64, 57
2,93118, Control_c, 0, 64, 61
2,93137, Control_c, 0, 64, 64
2,93156, Control_c, 0, 64, 68
2,93171, Control_c, 0, 64, 75
2,93177, Note_on_c, 0, 65, 0
2,93194, Note_on_c, 0, 63, 57
2,93195, Control_c, 0, 64, 90
2,93196, Note_on_c, 0, 53, 0
2,93196, Note_on_c, 0, 72, 70
2,93214, Control_c, 0, 64, 113
2,93233, Control_c, 0, 64, 127
2,93244, Note_on_c, 0, 63, 0
2,93303, Note_on_c, 0, 73, 0
2,93367, Control_c, 0, 64, 123
2,93387, Control_c, 0, 64, 100
2,93406, Control_c, 0, 64, 86
2,93409, Note_on_c, 0, 63, 55
2,93425, Control_c, 0, 64, 73
2,93434, Note_on_c, 0, 77, 71
2,93444, Control_c, 0, 64, 65
2,93462, Note_on_c, 0, 72, 0
2,93464, Control_c, 0, 64, 57
2,93482, Control_c, 0, 64, 48
2,93502, Control_c, 0, 64, 46
2,93515, Note_on_c, 0, 63, 0
2,93530, Note_on_c, 0, 61, 55
2,93559, Control_c, 0, 64, 45
2,93579, Control_c, 0, 64, 44
2,93595, Note_on_c, 0, 61, 0
2,93598, Control_c, 0, 64, 41
2,93617, Control_c, 0, 64, 38
2,93631, Note_on_c, 0, 63, 64
2,93636, Control_c, 0, 64, 34
2,93638, Note_on_c, 0, 67, 61
2,93656, Control_c, 0, 64, 30
2,93675, Control_c, 0, 64, 25
2,93694, Control_c, 0, 64, 18
2,93710, Note_on_c, 0, 63, 0
2,93713, Control_c, 0, 64, 11
2,93732, Control_c, 0, 64, 0
2,93734, Note_on_c, 0, 61, 63
2,93791, Note_on_c, 0, 61, 0
2,93816, Note_on_c, 0, 68, 70
2,93830, Note_on_c, 0, 63, 66
2,93830, Note_on_c, 0, 67, 0
2,93905, Note_on_c, 0, 63, 0
2,93932, Note_on_c, 0, 61, 59
2,93981, Note_on_c, 0, 61, 0
2,94003, Note_on_c, 0, 68, 0
2,94012, Note_on_c, 0, 65, 62
2,94030, Note_on_c, 0, 63, 54
2,94086, Note_on_c, 0, 63, 0
2,94112, Note_on_c, 0, 61, 55
2,94199, Note_on_c, 0, 65, 0
2,94231, Note_on_c, 0, 61, 0
2,94231, Note_on_c, 0, 72, 65
2,94238, Note_on_c, 0, 77, 0
2,94264, Note_on_c, 0, 60, 52
2,94364, Control_c, 0, 64, 37
2,94383, Control_c, 0, 64, 55
2,94402, Control_c, 0, 64, 61
2,94422, Control_c, 0, 64, 64
2,94441, Control_c, 0, 64, 65
2,94460, Control_c, 0, 64, 67
2,94479, Control_c, 0, 64, 72
2,94499, Control_c, 0, 64, 80
2,94517, Control_c, 0, 64, 91
2,94537, Control_c, 0, 64, 95
2,94576, Control_c, 0, 64, 95
2,94594, Control_c, 0, 64, 93
2,94594, Note_on_c, 0, 72, 0
2,94614, Control_c, 0, 64, 87
2,94633, Control_c, 0, 64, 78
2,94643, Note_on_c, 0, 76, 69
2,94648, Note_on_c, 0, 48, 59
2,94652, Control_c, 0, 64, 67
2,94661, Note_on_c, 0, 67, 51
2,94671, Control_c, 0, 64, 60
2,94690, Control_c, 0, 64, 55
2,94710, Control_c, 0, 64, 59
2,94728, Control_c, 0, 64, 61
2,94748, Control_c, 0, 64, 63
2,94767, Control_c, 0, 64, 64
2,94787, Control_c, 0, 64, 66
2,94805, Control_c, 0, 64, 70
2,94825, Control_c, 0, 64, 79
2,94834, Note_on_c, 0, 48, 0
2,94837, Note_on_c, 0, 77, 78
2,94843, Note_on_c, 0, 50, 67
2,94844, Control_c, 0, 64, 93
2,94849, Note_on_c, 0, 67, 0
2,94863, Control_c, 0, 64, 112
2,94882, Control_c, 0, 64, 127
2,94896, Note_on_c, 0, 60, 0
2,94983, Note_on_c, 0, 50, 0
2,95074, Control_c, 0, 64, 115
2,95092, Control_c, 0, 64, 97
2,95113, Control_c, 0, 64, 82
2,95118, Note_on_c, 0, 72, 69
2,95127, Note_on_c, 0, 79, 79
2,95128, Note_on_c, 0, 52, 70
2,95130, Note_on_c, 0, 48, 68
2,95132, Control_c, 0, 64, 69
2,95151, Control_c, 0, 64, 52
2,95170, Control_c, 0, 64, 0
2,95237, Note_on_c, 0, 76, 0
2,95237, Note_on_c, 0, 77, 0
2,95362, Control_c, 0, 64, 45
2,95382, Control_c, 0, 64, 62
2,95401, Control_c, 0, 64, 66
2,95420, Control_c, 0, 64, 67
2,95439, Control_c, 0, 64, 67
2,95445, Note_on_c, 0, 52, 0
2,95459, Control_c, 0, 64, 69
2,95477, Control_c, 0, 64, 70
2,95497, Control_c, 0, 64, 71
2,95516, Control_c, 0, 64, 71
2,95536, Control_c, 0, 64, 71
2,95554, Control_c, 0, 64, 72
2,95559, Note_on_c, 0, 70, 64
2,95574, Control_c, 0, 64, 76
2,95583, Note_on_c, 0, 50, 59
2,95593, Control_c, 0, 64, 84
2,95612, Control_c, 0, 64, 95
2,95631, Control_c, 0, 64, 106
2,95633, Note_on_c, 0, 72, 0
2,95650, Control_c, 0, 64, 127
2,95689, Note_on_c, 0, 70, 0
2,95711, Note_on_c, 0, 48, 0
2,95753, Note_on_c, 0, 50, 0
2,95782, Note_on_c, 0, 52, 67
2,95914, Note_on_c, 0, 52, 0
2,95939, Control_c, 0, 64, 119
2,95957, Control_c, 0, 64, 92
2,95977, Control_c, 0, 64, 75
2,95982, Note_on_c, 0, 68, 73
2,95990, Note_on_c, 0, 49, 78
2,95990, Note_on_c, 0, 53, 72
2,95996, Control_c, 0, 64, 62
2,96016, Control_c, 0, 64, 0
2,96068, Note_on_c, 0, 79, 0
2,96131, Control_c, 0, 64, 17
2,96151, Control_c, 0, 64, 52
2,96166, Note_on_c, 0, 53, 0
2,96169, Control_c, 0, 64, 64
2,96189, Control_c, 0, 64, 67
2,96195, Note_on_c, 0, 52, 70
2,96208, Control_c, 0, 64, 71
2,96227, Control_c, 0, 64, 76
2,96246, Control_c, 0, 64, 84
2,96266, Control_c, 0, 64, 91
2,96285, Control_c, 0, 64, 93
2,96304, Control_c, 0, 64, 93
2,96323, Control_c, 0, 64, 88
2,96343, Control_c, 0, 64, 78
2,96362, Control_c, 0, 64, 67
2,96368, Note_on_c, 0, 52, 0
2,96381, Control_c, 0, 64, 56
2,96400, Control_c, 0, 64, 0
2,96404, Note_on_c, 0, 77, 77
2,96411, Note_on_c, 0, 53, 67
2,96419, Note_on_c, 0, 70, 67
2,96436, Note_on_c, 0, 68, 0
2,96458, Control_c, 0, 64, 25
2,96477, Control_c, 0, 64, 49
2,96497, Control_c, 0, 64, 60
2,96515, Control_c, 0, 64, 65
2,96535, Control_c, 0, 64, 69
2,96554, Control_c, 0, 64, 76
2,96562, Note_on_c, 0, 53, 0
2,96563, Note_on_c, 0, 49, 0
2,96572, Control_c, 0, 64, 87
2,96592, Control_c, 0, 64, 103
2,96597, Note_on_c, 0, 55, 65
2,96611, Control_c, 0, 64, 119
2,96631, Control_c, 0, 64, 127
2,96727, Note_on_c, 0, 55, 0
2,96746, Control_c, 0, 64, 101
2,96765, Control_c, 0, 64, 81
2,96784, Control_c, 0, 64, 65
2,96803, Control_c, 0, 64, 31
2,96806, Note_on_c, 0, 72, 79
2,96809, Note_on_c, 0, 48, 65
2,96810, Note_on_c, 0, 70, 0
2,96818, Note_on_c, 0, 56, 76
2,96823, Control_c, 0, 64, 0
2,96938, Control_c, 0, 64, 47
2,96957, Control_c, 0, 64, 63
2,96977, Control_c, 0, 64, 67
2,96995, Control_c, 0, 64, 75
2,97016, Control_c, 0, 64, 88
2,97020, Note_on_c, 0, 60, 74
2,97032, Note_on_c, 0, 56, 0
2,97035, Control_c, 0, 64, 127
2,97042, Note_on_c, 0, 48, 0
2,97207, Control_c, 0, 64, 79
2,97227, Control_c, 0, 64, 63
2,97237, Note_on_c, 0, 60, 0
2,97238, Note_on_c, 0, 75, 79
2,97246, Control_c, 0, 64, 47
2,97247, Note_on_c, 0, 62, 68
2,97265, Control_c, 0, 64, 57
2,97270, Note_on_c, 0, 72, 0
2,97284, Control_c, 0, 64, 62
2,97293, Note_on_c, 0, 77, 0
2,97304, Control_c, 0, 64, 64
2,97322, Control_c, 0, 64, 66
2,97342, Control_c, 0, 64, 72
2,97361, Control_c, 0, 64, 84
2,97372, Note_on_c, 0, 62, 0
2,97381, Control_c, 0, 64, 108
2,97399, Control_c, 0, 64, 127
2,97424, Note_on_c, 0, 63, 75
2,97492, Note_on_c, 0, 63, 0
2,97649, Control_c, 0, 64, 91
2,97657, Note_on_c, 0, 47, 79
2,97659, Note_on_c, 0, 74, 74
2,97665, Note_on_c, 0, 65, 60
2,97668, Control_c, 0, 64, 74
2,97680, Note_on_c, 0, 75, 0
2,97687, Control_c, 0, 64, 61
2,97707, Control_c, 0, 64, 36
2,97726, Control_c, 0, 64, 0
2,97856, Note_on_c, 0, 53, 74
2,97927, Note_on_c, 0, 74, 0
2,97973, Control_c, 0, 64, 22
2,97994, Control_c, 0, 64, 39
2,98012, Control_c, 0, 64, 53
2,98032, Control_c, 0, 64, 60
2,98051, Control_c, 0, 64, 64
2,98059, Note_on_c, 0, 53, 0
2,98060, Note_on_c, 0, 75, 77
2,98062, Note_on_c, 0, 55, 71
2,98071, Control_c, 0, 64, 67
2,98089, Control_c, 0, 64, 73
2,98109, Control_c, 0, 64, 82
2,98111, Note_on_c, 0, 65, 0
2,98121, Note_on_c, 0, 47, 0
2,98128, Control_c, 0, 64, 92
2,98147, Control_c, 0, 64, 100
2,98166, Control_c, 0, 64, 106
2,98186, Control_c, 0, 64, 110
2,98205, Control_c, 0, 64, 114
2,98224, Control_c, 0, 64, 117
2,98243, Control_c, 0, 64, 118
2,98247, Note_on_c, 0, 55, 0
2,98259, Note_on_c, 0, 56, 69
2,98260, Note_on_c, 0, 77, 77
2,98263, Control_c, 0, 64, 119
2,98295, Note_on_c, 0, 75, 0
2,98320, Control_c, 0, 64, 118
2,98340, Control_c, 0, 64, 117
2,98358, Control_c, 0, 64, 113
2,98378, Control_c, 0, 64, 107
2,98397, Control_c, 0, 64, 101
2,98417, Control_c, 0, 64, 93
2,98432, Note_on_c, 0, 56, 0
2,98435, Control_c, 0, 64, 82
2,98455, Control_c, 0, 64, 69
2,98474, Control_c, 0, 64, 57
2,98485, Note_on_c, 0, 58, 77
2,98488, Note_on_c, 0, 52, 74
2,98489, Note_on_c, 0, 79, 79
2,98492, Control_c, 0, 64, 0
2,98507, Note_on_c, 0, 77, 0
2,98646, Control_c, 0, 64, 25
2,98666, Control_c, 0, 64, 51
2,98685, Control_c, 0, 64, 62
2,98695, Note_on_c, 0, 77, 74
2,98704, Control_c, 0, 64, 65
2,98723, Control_c, 0, 64, 68
2,98725, Note_on_c, 0, 79, 0
2,98743, Control_c, 0, 64, 71
2,98762, Control_c, 0, 64, 77
2,98764, Note_on_c, 0, 77, 0
2,98781, Control_c, 0, 64, 86
2,98800, Control_c, 0, 64, 91
2,98895, Note_on_c, 0, 76, 78
2,98905, Note_on_c, 0, 67, 64
2,98915, Control_c, 0, 64, 88
2,98933, Control_c, 0, 64, 80
2,98955, Control_c, 0, 64, 69
2,98973, Control_c, 0, 64, 59
2,98993, Control_c, 0, 64, 40
2,99012, Control_c, 0, 64, 36
2,99032, Control_c, 0, 64, 46
2,99050, Control_c, 0, 64, 55
2,99070, Control_c, 0, 64, 59
2,99079, Note_on_c, 0, 58, 0
2,99089, Control_c, 0, 64, 61
2,99096, Note_on_c, 0, 74, 75
2,99108, Control_c, 0, 64, 64
2,99127, Control_c, 0, 64, 65
2,99147, Control_c, 0, 64, 67
2,99166, Control_c, 0, 64, 70
2,99185, Control_c, 0, 64, 73
2,99204, Control_c, 0, 64, 76
2,99216, Note_on_c, 0, 76, 0
2,99224, Control_c, 0, 64, 75
2,99242, Control_c, 0, 64, 73
2,99262, Control_c, 0, 64, 68
2,99281, Control_c, 0, 64, 63
2,99301, Control_c, 0, 64, 55
2,99302, Note_on_c, 0, 72, 76
2,99309, Note_on_c, 0, 68, 69
2,99316, Note_on_c, 0, 67, 0
2,99319, Control_c, 0, 64, 43
2,99320, Note_on_c, 0, 53, 74
2,99330, Note_on_c, 0, 74, 0
2,99339, Control_c, 0, 64, 22
2,99358, Control_c, 0, 64, 19
2,99370, Note_on_c, 0, 52, 0
2,99521, Note_on_c, 0, 56, 74
2,99660, Note_on_c, 0, 68, 0
2,99665, Control_c, 0, 64, 24
2,99684, Control_c, 0, 64, 35
2,99704, Control_c, 0, 64, 46
2,99718, Note_on_c, 0, 58, 72
2,99722, Control_c, 0, 64, 54
2,99742, Control_c, 0, 64, 60
2,99761, Control_c, 0, 64, 62
2,99781, Control_c, 0, 64, 65
2,99799, Control_c, 0, 64, 67
2,99813, Note_on_c, 0, 53, 0
2,99819, Control_c, 0, 64, 71
2,99838, Control_c, 0, 64, 78
2,99841, Note_on_c, 0, 56, 0
2,99858, Control_c, 0, 64, 89
2,99876, Control_c, 0, 64, 104
2,99891, Control_c, 0, 64, 127
2,99906, Note_on_c, 0, 60, 76
2,99960, Note_on_c, 0, 60, 0
2,100163, Control_c, 0, 64, 95
2,100164, Note_on_c, 0, 61, 85
2,100167, Note_on_c, 0, 46, 66
2,100183, Control_c, 0, 64, 79
2,100187, Note_on_c, 0, 72, 0
2,100202, Control_c, 0, 64, 67
2,100221, Control_c, 0, 64, 54
2,100240, Control_c, 0, 64, 0
2,100283, Note_on_c, 0, 58, 0
2,100397, Note_on_c, 0, 70, 68
2,100509, Control_c, 0, 64, 51
2,100528, Control_c, 0, 64, 62
2,100547, Control_c, 0, 64, 64
2,100566, Control_c, 0, 64, 65
2,100586, Control_c, 0, 64, 68
2,100594, Note_on_c, 0, 68, 68
2,100605, Control_c, 0, 64, 75
2,100624, Control_c, 0, 64, 86
2,100643, Control_c, 0, 64, 100
2,100652, Note_on_c, 0, 61, 0
2,100663, Control_c, 0, 64, 112
2,100682, Control_c, 0, 64, 127
2,100703, Note_on_c, 0, 70, 0
2,100806, Note_on_c, 0, 67, 68
2,100866, Note_on_c, 0, 68, 0
2,100932, Control_c, 0, 64, 115
2,100952, Control_c, 0, 64, 100
2,100970, Control_c, 0, 64, 86
2,100990, Control_c, 0, 64, 73
2,100998, Note_on_c, 0, 67, 0
2,101009, Control_c, 0, 64, 64
2,101021, Note_on_c, 0, 72, 75
2,101022, Note_on_c, 0, 45, 71
2,101028, Control_c, 0, 64, 54
2,101038, Note_on_c, 0, 65, 57
2,101047, Control_c, 0, 64, 43
2,101067, Control_c, 0, 64, 38
2,101082, Note_on_c, 0, 46, 0
2,101086, Control_c, 0, 64, 37
2,101105, Control_c, 0, 64, 35
2,101124, Control_c, 0, 64, 31
2,101144, Control_c, 0, 64, 26
2,101162, Control_c, 0, 64, 22
2,101182, Control_c, 0, 64, 21
2,101225, Note_on_c, 0, 60, 70
2,101316, Control_c, 0, 64, 22
2,101336, Control_c, 0, 64, 23
2,101355, Control_c, 0, 64, 25
2,101373, Control_c, 0, 64, 27
2,101393, Control_c, 0, 64, 29
2,101412, Control_c, 0, 64, 31
2,101432, Control_c, 0, 64, 32
2,101433, Note_on_c, 0, 62, 74
2,101450, Control_c, 0, 64, 34
2,101451, Note_on_c, 0, 60, 0
2,101470, Control_c, 0, 64, 34
2,101489, Control_c, 0, 64, 36
2,101508, Control_c, 0, 64, 36
2,101517, Note_on_c, 0, 65, 0
2,101527, Control_c, 0, 64, 38
2,101547, Control_c, 0, 64, 39
2,101566, Control_c, 0, 64, 40
2,101585, Control_c, 0, 64, 41
2,101604, Control_c, 0, 64, 42
2,101627, Note_on_c, 0, 64, 78
2,101642, Control_c, 0, 64, 42
2,101651, Note_on_c, 0, 62, 0
2,101662, Control_c, 0, 64, 43
2,101837, Note_on_c, 0, 44, 67
2,101852, Note_on_c, 0, 65, 71
2,101870, Control_c, 0, 64, 42
2,101877, Note_on_c, 0, 72, 0
2,101890, Control_c, 0, 64, 40
2,101891, Note_on_c, 0, 64, 0
2,101909, Control_c, 0, 64, 38
2,101928, Control_c, 0, 64, 35
2,101944, Note_on_c, 0, 45, 0
2,101947, Control_c, 0, 64, 24
2,101967, Control_c, 0, 64, 0
2,101975, Note_on_c, 0, 65, 0
2,102046, Note_on_c, 0, 65, 68
2,102216, Control_c, 0, 64, 46
2,102235, Control_c, 0, 64, 57
2,102253, Note_on_c, 0, 67, 73
2,102253, Note_on_c, 0, 72, 78
2,102255, Control_c, 0, 64, 62
2,102273, Control_c, 0, 64, 65
2,102293, Control_c, 0, 64, 69
2,102299, Note_on_c, 0, 65, 0
2,102312, Control_c, 0, 64, 75
2,102331, Control_c, 0, 64, 86
2,102350, Control_c, 0, 64, 97
2,102370, Control_c, 0, 64, 111
2,102389, Control_c, 0, 64, 127
2,102444, Note_on_c, 0, 44, 0
2,102450, Note_on_c, 0, 68, 77
2,102453, Note_on_c, 0, 72, 0
2,102619, Control_c, 0, 64, 108
2,102638, Control_c, 0, 64, 90
2,102658, Control_c, 0, 64, 75
2,102663, Note_on_c, 0, 44, 53
2,102663, Note_on_c, 0, 67, 0
2,102673, Note_on_c, 0, 73, 69
2,102676, Control_c, 0, 64, 65
2,102678, Note_on_c, 0, 70, 66
2,102696, Control_c, 0, 64, 47
2,102715, Control_c, 0, 64, 0
2,102722, Note_on_c, 0, 68, 0
2,102747, Note_on_c, 0, 44, 0
2,102773, Control_c, 0, 64, 42
2,102782, Note_on_c, 0, 43, 60
2,102792, Control_c, 0, 64, 55
2,102811, Control_c, 0, 64, 62
2,102830, Control_c, 0, 64, 65
2,102850, Control_c, 0, 64, 68
2,102869, Control_c, 0, 64, 73
2,102880, Note_on_c, 0, 44, 72
2,102882, Note_on_c, 0, 43, 0
2,102888, Control_c, 0, 64, 80
2,102907, Control_c, 0, 64, 91
2,102927, Control_c, 0, 64, 97
2,102944, Note_on_c, 0, 73, 0
2,102945, Control_c, 0, 64, 99
2,102965, Control_c, 0, 64, 100
2,102967, Note_on_c, 0, 43, 60
2,102967, Note_on_c, 0, 44, 0
2,102984, Control_c, 0, 64, 99
2,103004, Control_c, 0, 64, 96
2,103015, Note_on_c, 0, 70, 0
2,103022, Control_c, 0, 64, 88
2,103041, Control_c, 0, 64, 74
2,103061, Control_c, 0, 64, 64
2,103065, Note_on_c, 0, 72, 80
2,103069, Note_on_c, 0, 64, 69
2,103071, Note_on_c, 0, 43, 0
2,103074, Note_on_c, 0, 44, 64
2,103079, Control_c, 0, 64, 48
2,103099, Control_c, 0, 64, 0
2,103170, Note_on_c, 0, 44, 0
2,103176, Control_c, 0, 64, 34
2,103181, Note_on_c, 0, 43, 61
2,103195, Control_c, 0, 64, 54
2,103215, Control_c, 0, 64, 63
2,103233, Control_c, 0, 64, 67
2,103241, Note_on_c, 0, 64, 0
2,103253, Control_c, 0, 64, 71
2,103269, Note_on_c, 0, 70, 72
2,103272, Control_c, 0, 64, 80
2,103273, Note_on_c, 0, 62, 70
2,103274, Note_on_c, 0, 43, 0
2,103279, Note_on_c, 0, 44, 65
2,103291, Control_c, 0, 64, 93
2,103310, Control_c, 0, 64, 119
2,103330, Control_c, 0, 64, 127
2,103339, Note_on_c, 0, 72, 0
2,103364, Note_on_c, 0, 62, 0
2,103369, Note_on_c, 0, 44, 0
2,103394, Note_on_c, 0, 43, 59
2,103414, Note_on_c, 0, 70, 0
2,103464, Control_c, 0, 64, 102
2,103484, Control_c, 0, 64, 84
2,103486, Note_on_c, 0, 43, 0
2,103501, Note_on_c, 0, 64, 70
2,103502, Control_c, 0, 64, 72
2,103506, Note_on_c, 0, 72, 71
2,103507, Note_on_c, 0, 44, 66
2,103521, Control_c, 0, 64, 64
2,103541, Control_c, 0, 64, 54
2,103559, Control_c, 0, 64, 38
2,103569, Note_on_c, 0, 44, 0
2,103579, Control_c, 0, 64, 30
2,103600, Note_on_c, 0, 43, 61
2,103670, Note_on_c, 0, 43, 0
2,103694, Note_on_c, 0, 44, 65
2,103751, Control_c, 0, 64, 29
2,103760, Note_on_c, 0, 44, 0
2,103770, Control_c, 0, 64, 29
2,103784, Note_on_c, 0, 43, 64
2,103789, Control_c, 0, 64, 28
2,103860, Note_on_c, 0, 43, 0
2,103898, Note_on_c, 0, 44, 58
2,103911, Note_on_c, 0, 68, 66
2,103950, Note_on_c, 0, 44, 0
2,103984, Note_on_c, 0, 43, 53
2,104039, Control_c, 0, 64, 29
2,104039, Note_on_c, 0, 43, 0
2,104058, Control_c, 0, 64, 30
2,104063, Note_on_c, 0, 44, 61
2,104077, Control_c, 0, 64, 31
2,104097, Control_c, 0, 64, 33
2,104100, Note_on_c, 0, 64, 0
2,104115, Control_c, 0, 64, 34
2,104117, Note_on_c, 0, 67, 55
2,104127, Note_on_c, 0, 68, 0
2,104142, Note_on_c, 0, 44, 0
2,104167, Note_on_c, 0, 43, 49
2,104192, Control_c, 0, 64, 33
2,104212, Control_c, 0, 64, 32
2,104231, Control_c, 0, 64, 32
2,104269, Control_c, 0, 64, 31
2,104308, Control_c, 0, 64, 28
2,104327, Control_c, 0, 64, 17
2,104336, Note_on_c, 0, 43, 0
2,104346, Control_c, 0, 64, 0
2,104366, Note_on_c, 0, 41, 45
2,104375, Note_on_c, 0, 67, 0
2,104397, Note_on_c, 0, 68, 54
2,104406, Note_on_c, 0, 65, 46
2,104557, Control_c, 0, 64, 46
2,104575, Note_on_c, 0, 41, 0
2,104577, Control_c, 0, 64, 62
2,104595, Control_c, 0, 64, 67
2,104615, Control_c, 0, 64, 73
2,104634, Control_c, 0, 64, 81
2,104654, Control_c, 0, 64, 92
2,104672, Control_c, 0, 64, 101
2,104689, Control_c, 0, 64, 108
2,104711, Control_c, 0, 64, 114
2,104769, Control_c, 0, 64, 112
2,104788, Control_c, 0, 64, 107
2,104807, Control_c, 0, 64, 102
2,104826, Control_c, 0, 64, 97
2,104837, Note_on_c, 0, 53, 54
2,104846, Control_c, 0, 64, 92
2,104864, Control_c, 0, 64, 87
2,104883, Control_c, 0, 64, 82
2,104903, Control_c, 0, 64, 78
2,104922, Control_c, 0, 64, 75
2,104941, Control_c, 0, 64, 72
2,104960, Control_c, 0, 64, 69
2,104980, Control_c, 0, 64, 66
2,104999, Control_c, 0, 64, 63
2,105018, Control_c, 0, 64, 60
2,105037, Control_c, 0, 64, 58
2,105051, Note_on_c, 0, 55, 54
2,105057, Control_c, 0, 64, 55
2,105075, Control_c, 0, 64, 53
2,105091, Note_on_c, 0, 53, 0
2,105095, Control_c, 0, 64, 51
2,105114, Control_c, 0, 64, 46
2,105115, Note_on_c, 0, 65, 0
2,105134, Control_c, 0, 64, 41
2,105152, Control_c, 0, 64, 34
2,105172, Control_c, 0, 64, 24
2,105191, Control_c, 0, 64, 0
2,105248, Note_on_c, 0, 55, 0
2,105269, Note_on_c, 0, 56, 52
2,105402, Control_c, 0, 64, 36
2,105421, Control_c, 0, 64, 55
2,105440, Control_c, 0, 64, 63
2,105443, Note_on_c, 0, 56, 0
2,105447, Note_on_c, 0, 72, 0
2,105460, Control_c, 0, 64, 66
2,105479, Control_c, 0, 64, 69
2,105498, Control_c, 0, 64, 73
2,105517, Control_c, 0, 64, 82
2,105536, Note_on_c, 0, 68, 0
2,105537, Control_c, 0, 64, 89
2,105555, Control_c, 0, 64, 92
2,105575, Control_c, 0, 64, 92
2,105594, Control_c, 0, 64, 92
2,105614, Control_c, 0, 64, 91
2,105632, Control_c, 0, 64, 90
2,105652, Control_c, 0, 64, 89
2,105671, Control_c, 0, 64, 86
2,105690, Control_c, 0, 64, 84
2,105709, Control_c, 0, 64, 80
2,105726, Note_on_c, 0, 56, 50
2,105729, Control_c, 0, 64, 76
2,105737, Note_on_c, 0, 60, 50
2,105748, Control_c, 0, 64, 72
2,105767, Control_c, 0, 64, 68
2,105786, Control_c, 0, 64, 65
2,105806, Control_c, 0, 64, 62
2,105824, Control_c, 0, 64, 57
2,105843, Control_c, 0, 64, 52
2,105863, Control_c, 0, 64, 47
2,105882, Control_c, 0, 64, 40
2,105901, Control_c, 0, 64, 31
2,105920, Control_c, 0, 64, 18
2,105921, Note_on_c, 0, 60, 0
2,105922, Note_on_c, 0, 61, 62
2,105940, Control_c, 0, 64, 0
2,105944, Note_on_c, 0, 58, 50
2,106008, Note_on_c, 0, 56, 0
2,106138, Note_on_c, 0, 61, 0
2,106149, Note_on_c, 0, 63, 53
2,106157, Note_on_c, 0, 60, 58
2,106163, Note_on_c, 0, 58, 0
2,106286, Control_c, 0, 64, 27
2,106304, Control_c, 0, 64, 45
2,106323, Control_c, 0, 64, 55
2,106343, Control_c, 0, 64, 61
2,106362, Control_c, 0, 64, 62
2,106381, Control_c, 0, 64, 63
2,106400, Control_c, 0, 64, 63
2,106434, Note_on_c, 0, 63, 0
2,106477, Control_c, 0, 64, 63
2,106515, Control_c, 0, 64, 62
2,106535, Control_c, 0, 64, 62
2,106554, Control_c, 0, 64, 61
2,106574, Control_c, 0, 64, 60
2,106592, Control_c, 0, 64, 59
2,106596, Note_on_c, 0, 63, 52
2,106597, Note_on_c, 0, 78, 69
2,106612, Control_c, 0, 64, 59
2,106631, Control_c, 0, 64, 58
2,106650, Control_c, 0, 64, 57
2,106669, Control_c, 0, 64, 57
2,106746, Control_c, 0, 64, 56
2,106766, Control_c, 0, 64, 50
2,106784, Control_c, 0, 64, 37
2,106803, Control_c, 0, 64, 0
2,106807, Note_on_c, 0, 77, 74
2,106815, Note_on_c, 0, 65, 62
2,106903, Note_on_c, 0, 78, 0
2,106919, Control_c, 0, 64, 39
2,106938, Control_c, 0, 64, 55
2,106957, Control_c, 0, 64, 60
2,106971, Note_on_c, 0, 65, 0
2,106977, Control_c, 0, 64, 61
2,107005, Note_on_c, 0, 63, 0
2,107007, Note_on_c, 0, 75, 74
2,107028, Note_on_c, 0, 60, 0
2,107029, Note_on_c, 0, 66, 57
2,107034, Control_c, 0, 64, 60
2,107054, Control_c, 0, 64, 60
2,107057, Note_on_c, 0, 77, 0
2,107072, Control_c, 0, 64, 59
2,107092, Control_c, 0, 64, 58
2,107111, Control_c, 0, 64, 56
2,107130, Control_c, 0, 64, 54
2,107149, Control_c, 0, 64, 52
2,107169, Control_c, 0, 64, 50
2,107188, Control_c, 0, 64, 48
2,107198, Note_on_c, 0, 73, 69
2,107207, Control_c, 0, 64, 47
2,107220, Note_on_c, 0, 58, 55
2,107226, Control_c, 0, 64, 46
2,107246, Control_c, 0, 64, 44
2,107246, Note_on_c, 0, 75, 0
2,107264, Control_c, 0, 64, 41
2,107283, Control_c, 0, 64, 39
2,107303, Control_c, 0, 64, 37
2,107322, Control_c, 0, 64, 36
2,107360, Control_c, 0, 64, 36
2,107371, Note_on_c, 0, 58, 0
2,107399, Note_on_c, 0, 73, 0
2,107414, Note_on_c, 0, 72, 68
2,107419, Note_on_c, 0, 56, 54
2,107475, Control_c, 0, 64, 35
2,107495, Control_c, 0, 64, 35
2,107514, Control_c, 0, 64, 34
2,107571, Control_c, 0, 64, 34
2,107591, Control_c, 0, 64, 33
2,107607, Note_on_c, 0, 72, 0
2,107610, Control_c, 0, 64, 31
2,107610, Note_on_c, 0, 56, 0
2,107613, Note_on_c, 0, 70, 65
2,107628, Note_on_c, 0, 54, 52
2,107629, Control_c, 0, 64, 25
2,107649, Control_c, 0, 64, 13
2,107668, Control_c, 0, 64, 0
2,107802, Note_on_c, 0, 54, 0
2,107827, Note_on_c, 0, 66, 0
2,107827, Note_on_c, 0, 68, 63
2,107834, Note_on_c, 0, 70, 0
2,107835, Note_on_c, 0, 53, 44
2,107879, Control_c, 0, 64, 34
2,107898, Control_c, 0, 64, 52
2,107917, Control_c, 0, 64, 60
2,107937, Control_c, 0, 64, 65
2,107955, Control_c, 0, 64, 68
2,107960, Note_on_c, 0, 68, 0
2,107975, Control_c, 0, 64, 73
2,107994, Control_c, 0, 64, 82
2,108014, Control_c, 0, 64, 91
2,108032, Control_c, 0, 64, 98
2,108052, Control_c, 0, 64, 100
2,108129, Control_c, 0, 64, 100
2,108138, Note_on_c, 0, 53, 0
2,108148, Control_c, 0, 64, 99
2,108167, Control_c, 0, 64, 96
2,108186, Control_c, 0, 64, 92
2,108206, Control_c, 0, 64, 87
2,108224, Control_c, 0, 64, 82
2,108243, Control_c, 0, 64, 76
2,108259, Note_on_c, 0, 70, 69
2,108263, Control_c, 0, 64, 71
2,108271, Note_on_c, 0, 65, 52
2,108282, Control_c, 0, 64, 67
2,108289, Note_on_c, 0, 49, 47
2,108301, Control_c, 0, 64, 65
2,108319, Note_on_c, 0, 65, 0
2,108320, Control_c, 0, 64, 63
2,108340, Control_c, 0, 64, 62
2,108359, Control_c, 0, 64, 61
2,108378, Control_c, 0, 64, 60
2,108397, Control_c, 0, 64, 59
2,108417, Control_c, 0, 64, 59
2,108435, Control_c, 0, 64, 58
2,108454, Note_on_c, 0, 72, 67
2,108455, Control_c, 0, 64, 57
2,108466, Note_on_c, 0, 49, 0
2,108469, Note_on_c, 0, 63, 59
2,108474, Control_c, 0, 64, 56
2,108481, Note_on_c, 0, 51, 47
2,108483, Note_on_c, 0, 70, 0
2,108494, Control_c, 0, 64, 55
2,108512, Control_c, 0, 64, 55
2,108522, Note_on_c, 0, 63, 0
2,108529, Control_c, 0, 64, 54
2,108550, Control_c, 0, 64, 52
2,108570, Control_c, 0, 64, 50
2,108588, Control_c, 0, 64, 45
2,108608, Control_c, 0, 64, 36
2,108627, Control_c, 0, 64, 0
2,108730, Note_on_c, 0, 72, 0
2,108732, Note_on_c, 0, 73, 62
2,108734, Note_on_c, 0, 51, 0
2,108745, Note_on_c, 0, 61, 48
2,108755, Note_on_c, 0, 53, 47
2,108819, Control_c, 0, 64, 30
2,108838, Control_c, 0, 64, 50
2,108857, Control_c, 0, 64, 58
2,108876, Control_c, 0, 64, 61
2,108896, Control_c, 0, 64, 62
2,108908, Note_on_c, 0, 53, 0
2,108914, Control_c, 0, 64, 64
2,108934, Control_c, 0, 64, 66
2,108953, Control_c, 0, 64, 70
2,108973, Control_c, 0, 64, 73
2,108991, Control_c, 0, 64, 76
2,109011, Control_c, 0, 64, 77
2,109030, Control_c, 0, 64, 76
2,109050, Control_c, 0, 64, 75
2,109068, Control_c, 0, 64, 74
2,109088, Control_c, 0, 64, 72
2,109107, Control_c, 0, 64, 71
2,109126, Control_c, 0, 64, 69
2,109145, Control_c, 0, 64, 67
2,109164, Control_c, 0, 64, 65
2,109169, Note_on_c, 0, 53, 43
2,109181, Note_on_c, 0, 56, 52
2,109184, Control_c, 0, 64, 64
2,109202, Control_c, 0, 64, 63
2,109222, Control_c, 0, 64, 61
2,109241, Control_c, 0, 64, 57
2,109260, Control_c, 0, 64, 52
2,109279, Control_c, 0, 64, 43
2,109282, Note_on_c, 0, 61, 0
2,109299, Control_c, 0, 64, 28
2,109318, Control_c, 0, 64, 0
2,109358, Note_on_c, 0, 56, 0
2,109384, Note_on_c, 0, 58, 61
2,109396, Note_on_c, 0, 55, 51
2,109436, Note_on_c, 0, 53, 0
2,109492, Note_on_c, 0, 73, 0
2,109604, Note_on_c, 0, 58, 0
2,109614, Note_on_c, 0, 55, 0
2,109618, Note_on_c, 0, 56, 66
2,109618, Note_on_c, 0, 60, 59
2,109643, Control_c, 0, 64, 11
2,109663, Control_c, 0, 64, 28
2,109681, Control_c, 0, 64, 38
2,109701, Control_c, 0, 64, 46
2,109720, Control_c, 0, 64, 51
2,109740, Control_c, 0, 64, 53
2,109758, Control_c, 0, 64, 55
2,109778, Control_c, 0, 64, 56
2,109797, Control_c, 0, 64, 56
2,109807, Note_on_c, 0, 60, 0
2,109816, Control_c, 0, 64, 57
2,109855, Control_c, 0, 64, 57
2,109912, Control_c, 0, 64, 57
2,109950, Control_c, 0, 64, 56
2,109970, Control_c, 0, 64, 56
2,109989, Control_c, 0, 64, 55
2,110009, Control_c, 0, 64, 54
2,110027, Control_c, 0, 64, 51
2,110047, Control_c, 0, 64, 45
2,110054, Note_on_c, 0, 60, 52
2,110066, Control_c, 0, 64, 35
2,110071, Note_on_c, 0, 75, 70
2,110087, Control_c, 0, 64, 23
2,110107, Control_c, 0, 64, 0
2,110164, Control_c, 0, 64, 15
2,110184, Control_c, 0, 64, 39
2,110203, Control_c, 0, 64, 56
2,110223, Control_c, 0, 64, 61
2,110241, Control_c, 0, 64, 64
2,110261, Control_c, 0, 64, 65
2,110263, Note_on_c, 0, 61, 63
2,110266, Note_on_c, 0, 73, 70
2,110280, Control_c, 0, 64, 67
2,110295, Note_on_c, 0, 60, 0
2,110299, Control_c, 0, 64, 71
2,110316, Note_on_c, 0, 75, 0
2,110318, Control_c, 0, 64, 77
2,110338, Control_c, 0, 64, 87
2,110357, Control_c, 0, 64, 90
2,110366, Note_on_c, 0, 61, 0
2,110395, Control_c, 0, 64, 88
2,110398, Note_on_c, 0, 56, 0
2,110414, Control_c, 0, 64, 86
2,110433, Control_c, 0, 64, 83
2,110451, Control_c, 0, 64, 80
2,110473, Control_c, 0, 64, 76
2,110480, Note_on_c, 0, 72, 74
2,110482, Note_on_c, 0, 63, 58
2,110485, Note_on_c, 0, 73, 0
2,110492, Control_c, 0, 64, 73
2,110511, Control_c, 0, 64, 70
2,110530, Control_c, 0, 64, 68
2,110550, Control_c, 0, 64, 66
2,110568, Control_c, 0, 64, 65
2,110588, Control_c, 0, 64, 64
2,110607, Control_c, 0, 64, 63
2,110627, Control_c, 0, 64, 62
2,110645, Control_c, 0, 64, 61
2,110665, Control_c, 0, 64, 59
2,110676, Note_on_c, 0, 70, 67
2,110684, Control_c, 0, 64, 58
2,110687, Note_on_c, 0, 54, 54
2,110703, Control_c, 0, 64, 57
2,110722, Control_c, 0, 64, 56
2,110722, Note_on_c, 0, 72, 0
2,110742, Control_c, 0, 64, 55
2,110761, Control_c, 0, 64, 54
2,110780, Control_c, 0, 64, 52
2,110798, Note_on_c, 0, 54, 0
2,110799, Control_c, 0, 64, 50
2,110819, Control_c, 0, 64, 48
2,110837, Control_c, 0, 64, 46
2,110857, Control_c, 0, 64, 43
2,110860, Note_on_c, 0, 53, 50
2,110871, Note_on_c, 0, 68, 67
2,110876, Control_c, 0, 64, 40
2,110895, Control_c, 0, 64, 36
2,110914, Control_c, 0, 64, 30
2,110933, Control_c, 0, 64, 21
2,110951, Note_on_c, 0, 70, 0
2,110953, Control_c, 0, 64, 0
2,111042, Note_on_c, 0, 53, 0
2,111070, Note_on_c, 0, 51, 49
2,111081, Note_on_c, 0, 66, 61
2,111108, Note_on_c, 0, 68, 0
2,111290, Note_on_c, 0, 66, 0
2,111291, Note_on_c, 0, 51, 0
2,111326, Note_on_c, 0, 49, 55
2,111339, Note_on_c, 0, 65, 59
2,111373, Note_on_c, 0, 63, 0
2,111394, Control_c, 0, 64, 33
2,111410, Control_c, 0, 64, 56
2,111430, Control_c, 0, 64, 63
2,111451, Control_c, 0, 64, 65
2,111459, Note_on_c, 0, 49, 0
2,111470, Control_c, 0, 64, 65
2,111489, Control_c, 0, 64, 67
2,111509, Control_c, 0, 64, 70
2,111527, Control_c, 0, 64, 77
2,111547, Control_c, 0, 64, 84
2,111566, Control_c, 0, 64, 87
2,111604, Control_c, 0, 64, 87
2,111624, Control_c, 0, 64, 86
2,111643, Control_c, 0, 64, 85
2,111663, Control_c, 0, 64, 83
2,111681, Control_c, 0, 64, 80
2,111701, Control_c, 0, 64, 74
2,111712, Note_on_c, 0, 65, 0
2,111720, Control_c, 0, 64, 67
2,111739, Control_c, 0, 64, 61
2,111758, Control_c, 0, 64, 52
2,111759, Note_on_c, 0, 46, 48
2,111763, Note_on_c, 0, 67, 57
2,111778, Control_c, 0, 64, 51
2,111786, Note_on_c, 0, 61, 51
2,111797, Control_c, 0, 64, 54
2,111815, Control_c, 0, 64, 57
2,111835, Control_c, 0, 64, 58
2,111845, Note_on_c, 0, 61, 0
2,111854, Control_c, 0, 64, 59
2,111873, Control_c, 0, 64, 60
2,111892, Control_c, 0, 64, 61
2,111949, Note_on_c, 0, 46, 0
2,111961, Note_on_c, 0, 48, 52
2,111961, Note_on_c, 0, 69, 70
2,111965, Note_on_c, 0, 60, 54
2,111989, Control_c, 0, 64, 60
2,112005, Note_on_c, 0, 60, 0
2,112027, Control_c, 0, 64, 60
2,112084, Control_c, 0, 64, 59
2,112104, Control_c, 0, 64, 59
2,112123, Control_c, 0, 64, 56
2,112143, Control_c, 0, 64, 52
2,112161, Control_c, 0, 64, 47
2,112181, Control_c, 0, 64, 39
2,112189, Note_on_c, 0, 69, 0
2,112190, Note_on_c, 0, 48, 0
2,112198, Note_on_c, 0, 70, 72
2,112199, Note_on_c, 0, 67, 0
2,112200, Control_c, 0, 64, 27
2,112208, Note_on_c, 0, 49, 59
2,112213, Note_on_c, 0, 58, 55
2,112219, Control_c, 0, 64, 19
2,112238, Control_c, 0, 64, 22
2,112258, Control_c, 0, 64, 39
2,112277, Control_c, 0, 64, 51
2,112295, Control_c, 0, 64, 57
2,112315, Control_c, 0, 64, 59
2,112323, Note_on_c, 0, 49, 0
2,112334, Control_c, 0, 64, 61
2,112353, Control_c, 0, 64, 62
2,112371, Control_c, 0, 64, 64
2,112393, Control_c, 0, 64, 66
2,112412, Control_c, 0, 64, 68
2,112431, Control_c, 0, 64, 69
2,112450, Control_c, 0, 64, 70
2,112508, Control_c, 0, 64, 70
2,112547, Control_c, 0, 64, 69
2,112565, Control_c, 0, 64, 69
2,112585, Control_c, 0, 64, 68
2,112604, Control_c, 0, 64, 67
2,112623, Control_c, 0, 64, 66
2,112638, Note_on_c, 0, 53, 59
2,112640, Note_on_c, 0, 49, 55
2,112642, Control_c, 0, 64, 65
2,112662, Control_c, 0, 64, 63
2,112681, Control_c, 0, 64, 62
2,112681, Note_on_c, 0, 58, 0
2,112700, Control_c, 0, 64, 61
2,112719, Control_c, 0, 64, 60
2,112739, Control_c, 0, 64, 59
2,112757, Control_c, 0, 64, 58
2,112776, Control_c, 0, 64, 56
2,112796, Control_c, 0, 64, 55
2,112815, Control_c, 0, 64, 54
2,112832, Note_on_c, 0, 53, 0
2,112832, Note_on_c, 0, 55, 63
2,112834, Control_c, 0, 64, 54
2,112838, Note_on_c, 0, 51, 51
2,112853, Control_c, 0, 64, 52
2,112873, Control_c, 0, 64, 51
2,112873, Note_on_c, 0, 70, 0
2,112892, Control_c, 0, 64, 49
2,112895, Note_on_c, 0, 49, 0
2,112911, Control_c, 0, 64, 46
2,112930, Control_c, 0, 64, 36
2,112950, Control_c, 0, 64, 0
2,113046, Note_on_c, 0, 51, 0
2,113050, Note_on_c, 0, 56, 66
2,113064, Note_on_c, 0, 55, 0
2,113066, Note_on_c, 0, 53, 62
2,113161, Control_c, 0, 64, 17
2,113180, Control_c, 0, 64, 40
2,113199, Control_c, 0, 64, 53
2,113219, Control_c, 0, 64, 61
2,113237, Control_c, 0, 64, 63
2,113256, Control_c, 0, 64, 64
2,113275, Note_on_c, 0, 56, 0
2,113276, Control_c, 0, 64, 66
2,113295, Control_c, 0, 64, 68
2,113314, Control_c, 0, 64, 71
2,113333, Control_c, 0, 64, 74
2,113353, Control_c, 0, 64, 75
2,113391, Control_c, 0, 64, 74
2,113430, Control_c, 0, 64, 74
2,113448, Control_c, 0, 64, 73
2,113468, Control_c, 0, 64, 72
2,113487, Control_c, 0, 64, 69
2,113507, Control_c, 0, 64, 64
2,113519, Note_on_c, 0, 72, 66
2,113525, Control_c, 0, 64, 58
2,113542, Note_on_c, 0, 56, 61
2,113545, Control_c, 0, 64, 43
2,113564, Control_c, 0, 64, 0
2,113641, Control_c, 0, 64, 24
2,113660, Control_c, 0, 64, 44
2,113679, Control_c, 0, 64, 54
2,113699, Control_c, 0, 64, 59
2,113717, Control_c, 0, 64, 63
2,113717, Note_on_c, 0, 58, 56
2,113718, Note_on_c, 0, 70, 70
2,113736, Control_c, 0, 64, 65
2,113756, Control_c, 0, 64, 66
2,113775, Control_c, 0, 64, 69
2,113784, Note_on_c, 0, 72, 0
2,113788, Note_on_c, 0, 58, 0
2,113794, Control_c, 0, 64, 71
2,113804, Note_on_c, 0, 56, 0
2,113813, Control_c, 0, 64, 73
2,113837, Note_on_c, 0, 53, 0
2,113852, Control_c, 0, 64, 72
2,113871, Control_c, 0, 64, 72
2,113890, Control_c, 0, 64, 71
2,113910, Control_c, 0, 64, 70
2,113915, Note_on_c, 0, 68, 70
2,113928, Control_c, 0, 64, 69
2,113928, Note_on_c, 0, 70, 0
2,113942, Note_on_c, 0, 60, 55
2,113948, Control_c, 0, 64, 68
2,113967, Control_c, 0, 64, 66
2,113987, Control_c, 0, 64, 65
2,114005, Control_c, 0, 64, 64
2,114025, Control_c, 0, 64, 64
2,114044, Control_c, 0, 64, 63
2,114063, Control_c, 0, 64, 62
2,114082, Control_c, 0, 64, 61
2,114099, Note_on_c, 0, 68, 0
2,114102, Control_c, 0, 64, 60
2,114121, Control_c, 0, 64, 59
2,114121, Note_on_c, 0, 67, 59
2,114127, Note_on_c, 0, 51, 54
2,114140, Control_c, 0, 64, 57
2,114159, Control_c, 0, 64, 55
2,114179, Control_c, 0, 64, 53
2,114197, Control_c, 0, 64, 50
2,114216, Control_c, 0, 64, 48
2,114236, Control_c, 0, 64, 47
2,114255, Control_c, 0, 64, 46
2,114274, Control_c, 0, 64, 45
2,114313, Control_c, 0, 64, 44
2,114332, Control_c, 0, 64, 44
2,114338, Note_on_c, 0, 49, 55
2,114338, Note_on_c, 0, 65, 59
2,114364, Note_on_c, 0, 51, 0
2,114370, Control_c, 0, 64, 43
2,114390, Control_c, 0, 64, 43
2,114397, Note_on_c, 0, 67, 0
2,114492, Note_on_c, 0, 49, 0
2,114526, Note_on_c, 0, 48, 50
2,114536, Note_on_c, 0, 63, 64
2,114592, Note_on_c, 0, 60, 0
2,114601, Control_c, 0, 64, 42
2,114603, Note_on_c, 0, 65, 0
2,114708, Note_on_c, 0, 48, 0
2,114738, Note_on_c, 0, 46, 48
2,114754, Control_c, 0, 64, 42
2,114765, Note_on_c, 0, 61, 64
2,114781, Note_on_c, 0, 63, 0
2,114958, Note_on_c, 0, 46, 0
2,114967, Note_on_c, 0, 48, 49
2,115161, Note_on_c, 0, 48, 0
2,115180, Note_on_c, 0, 49, 61
2,115184, Note_on_c, 0, 58, 59
2,115321, Note_on_c, 0, 61, 0
2,115339, Note_on_c, 0, 58, 0
2,115340, Note_on_c, 0, 49, 0
2,115356, Note_on_c, 0, 48, 52
2,115361, Note_on_c, 0, 60, 67
2,115408, Control_c, 0, 64, 42
2,115562, Control_c, 0, 64, 43
2,115578, Note_on_c, 0, 61, 64
2,115579, Note_on_c, 0, 46, 54
2,115580, Note_on_c, 0, 48, 0
2,115643, Note_on_c, 0, 60, 0
2,115783, Note_on_c, 0, 44, 56
2,115783, Note_on_c, 0, 65, 62
2,115795, Note_on_c, 0, 46, 0
2,115946, Control_c, 0, 64, 42
2,115971, Note_on_c, 0, 44, 0
2,115985, Note_on_c, 0, 70, 71
2,115995, Note_on_c, 0, 43, 51
2,116021, Note_on_c, 0, 65, 0
2,116178, Note_on_c, 0, 43, 0
2,116178, Note_on_c, 0, 68, 66
2,116195, Note_on_c, 0, 41, 47
2,116222, Note_on_c, 0, 70, 0
2,116349, Control_c, 0, 64, 41
2,116368, Control_c, 0, 64, 35
2,116388, Control_c, 0, 64, 0
2,116421, Note_on_c, 0, 41, 0
2,116447, Note_on_c, 0, 67, 62
2,116447, Note_on_c, 0, 68, 0
2,116460, Note_on_c, 0, 39, 44
2,116486, Note_on_c, 0, 61, 0
2,116560, Control_c, 0, 64, 35
2,116580, Control_c, 0, 64, 51
2,116598, Control_c, 0, 64, 57
2,116618, Control_c, 0, 64, 62
2,116637, Control_c, 0, 64, 64
2,116656, Control_c, 0, 64, 66
2,116675, Control_c, 0, 64, 71
2,116694, Control_c, 0, 64, 76
2,116714, Control_c, 0, 64, 82
2,116732, Control_c, 0, 64, 86
2,116752, Control_c, 0, 64, 86
2,116809, Control_c, 0, 64, 86
2,116829, Control_c, 0, 64, 84
2,116848, Control_c, 0, 64, 82
2,116868, Control_c, 0, 64, 79
2,116886, Control_c, 0, 64, 74
2,116906, Control_c, 0, 64, 68
2,116906, Note_on_c, 0, 63, 66
2,116925, Control_c, 0, 64, 62
2,116927, Note_on_c, 0, 46, 43
2,116943, Note_on_c, 0, 39, 0
2,116944, Control_c, 0, 64, 52
2,116963, Control_c, 0, 64, 34
2,116983, Control_c, 0, 64, 26
2,117002, Control_c, 0, 64, 36
2,117021, Control_c, 0, 64, 49
2,117040, Control_c, 0, 64, 57
2,117060, Control_c, 0, 64, 60
2,117078, Control_c, 0, 64, 62
2,117081, Note_on_c, 0, 67, 0
2,117091, Note_on_c, 0, 61, 74
2,117098, Control_c, 0, 64, 65
2,117117, Control_c, 0, 64, 70
2,117136, Control_c, 0, 64, 77
2,117154, Note_on_c, 0, 63, 0
2,117155, Control_c, 0, 64, 88
2,117169, Control_c, 0, 64, 96
2,117193, Control_c, 0, 64, 99
2,117212, Control_c, 0, 64, 99
2,117270, Control_c, 0, 64, 99
2,117288, Control_c, 0, 64, 96
2,117308, Control_c, 0, 64, 91
2,117320, Note_on_c, 0, 61, 0
2,117327, Control_c, 0, 64, 82
2,117339, Note_on_c, 0, 68, 73
2,117346, Note_on_c, 0, 60, 52
2,117347, Control_c, 0, 64, 70
2,117348, Note_on_c, 0, 63, 48
2,117353, Note_on_c, 0, 46, 0
2,117356, Note_on_c, 0, 48, 38
2,117365, Control_c, 0, 64, 62
2,117385, Control_c, 0, 64, 41
2,117404, Control_c, 0, 64, 0
2,117481, Control_c, 0, 64, 31
2,117500, Control_c, 0, 64, 53
2,117519, Control_c, 0, 64, 62
2,117539, Control_c, 0, 64, 65
2,117557, Control_c, 0, 64, 68
2,117576, Control_c, 0, 64, 72
2,117596, Control_c, 0, 64, 79
2,117603, Note_on_c, 0, 60, 0
2,117615, Control_c, 0, 64, 88
2,117634, Control_c, 0, 64, 95
2,117653, Control_c, 0, 64, 96
2,117692, Control_c, 0, 64, 92
2,117711, Control_c, 0, 64, 83
2,117730, Control_c, 0, 64, 72
2,117739, Note_on_c, 0, 48, 0
2,117750, Control_c, 0, 64, 63
2,117768, Control_c, 0, 64, 38
2,117783, Note_on_c, 0, 61, 56
2,117786, Note_on_c, 0, 44, 47
2,117788, Control_c, 0, 64, 15
2,117807, Control_c, 0, 64, 37
2,117827, Control_c, 0, 64, 53
2,117845, Control_c, 0, 64, 59
2,117865, Control_c, 0, 64, 62
2,117879, Note_on_c, 0, 44, 0
2,117884, Control_c, 0, 64, 64
2,117890, Note_on_c, 0, 68, 0
2,117903, Control_c, 0, 64, 69
2,117922, Control_c, 0, 64, 76
2,117925, Note_on_c, 0, 63, 0
2,117929, Note_on_c, 0, 61, 0
2,117942, Control_c, 0, 64, 87
2,117961, Control_c, 0, 64, 97
2,117980, Control_c, 0, 64, 100
2,117980, Note_on_c, 0, 60, 55
2,117999, Control_c, 0, 64, 101
2,118095, Control_c, 0, 64, 100
2,118114, Control_c, 0, 64, 99
2,118133, Control_c, 0, 64, 94
2,118153, Control_c, 0, 64, 83
2,118172, Control_c, 0, 64, 69
2,118191, Control_c, 0, 64, 59
2,118199, Note_on_c, 0, 65, 61
2,118201, Note_on_c, 0, 60, 0
2,118205, Note_on_c, 0, 58, 47
2,118210, Control_c, 0, 64, 26
2,118220, Note_on_c, 0, 49, 45
2,118230, Control_c, 0, 64, 0
2,118307, Control_c, 0, 64, 35
2,118325, Control_c, 0, 64, 56
2,118345, Control_c, 0, 64, 63
2,118362, Note_on_c, 0, 49, 0
2,118364, Control_c, 0, 64, 67
2,118383, Control_c, 0, 64, 71
2,118400, Note_on_c, 0, 67, 67
2,118402, Control_c, 0, 64, 81
2,118422, Control_c, 0, 64, 96
2,118441, Control_c, 0, 64, 127
2,118575, Control_c, 0, 64, 117
2,118582, Note_on_c, 0, 67, 0
2,118591, Note_on_c, 0, 68, 76
2,118594, Control_c, 0, 64, 80
2,118613, Control_c, 0, 64, 65
2,118615, Note_on_c, 0, 46, 47
2,118633, Control_c, 0, 64, 48
2,118652, Control_c, 0, 64, 49
2,118671, Control_c, 0, 64, 60
2,118690, Control_c, 0, 64, 63
2,118710, Control_c, 0, 64, 65
2,118728, Control_c, 0, 64, 69
2,118748, Control_c, 0, 64, 76
2,118767, Control_c, 0, 64, 91
2,118768, Note_on_c, 0, 65, 0
2,118771, Note_on_c, 0, 46, 0
2,118787, Control_c, 0, 64, 127
2,118792, Note_on_c, 0, 70, 76
2,118844, Note_on_c, 0, 68, 0
2,118997, Control_c, 0, 64, 110
2,119016, Control_c, 0, 64, 86
2,119033, Note_on_c, 0, 72, 73
2,119036, Control_c, 0, 64, 69
2,119042, Note_on_c, 0, 51, 46
2,119055, Control_c, 0, 64, 52
2,119056, Note_on_c, 0, 63, 47
2,119074, Control_c, 0, 64, 0
2,119080, Note_on_c, 0, 58, 0
2,119081, Note_on_c, 0, 70, 0
2,119170, Control_c, 0, 64, 19
2,119190, Control_c, 0, 64, 51
2,119208, Control_c, 0, 64, 62
2,119228, Control_c, 0, 64, 66
2,119247, Control_c, 0, 64, 69
2,119267, Control_c, 0, 64, 76
2,119281, Note_on_c, 0, 51, 0
2,119285, Control_c, 0, 64, 90
2,119305, Control_c, 0, 64, 106
2,119324, Control_c, 0, 64, 127
2,119334, Note_on_c, 0, 63, 0
2,119401, Control_c, 0, 64, 104
2,119420, Control_c, 0, 64, 83
2,119439, Control_c, 0, 64, 69
2,119459, Control_c, 0, 64, 57
2,119473, Note_on_c, 0, 56, 56
2,119477, Control_c, 0, 64, 41
2,119481, Note_on_c, 0, 48, 46
2,119496, Control_c, 0, 64, 48
2,119516, Control_c, 0, 64, 57
2,119535, Control_c, 0, 64, 61
2,119554, Control_c, 0, 64, 64
2,119573, Control_c, 0, 64, 66
2,119590, Note_on_c, 0, 56, 0
2,119593, Control_c, 0, 64, 69
2,119612, Control_c, 0, 64, 73
2,119631, Control_c, 0, 64, 80
2,119650, Control_c, 0, 64, 87
2,119662, Note_on_c, 0, 55, 59
2,119666, Note_on_c, 0, 72, 0
2,119670, Control_c, 0, 64, 89
2,119727, Control_c, 0, 64, 89
2,119747, Control_c, 0, 64, 88
2,119765, Control_c, 0, 64, 86
2,119770, Note_on_c, 0, 48, 0
2,119785, Control_c, 0, 64, 81
2,119797, Note_on_c, 0, 55, 0
2,119804, Control_c, 0, 64, 73
2,119823, Control_c, 0, 64, 63
2,119842, Control_c, 0, 64, 45
2,119860, Note_on_c, 0, 53, 49
2,119862, Control_c, 0, 64, 0
2,119876, Note_on_c, 0, 56, 53
2,119876, Note_on_c, 0, 62, 64
2,119939, Control_c, 0, 64, 17
2,119957, Control_c, 0, 64, 50
2,119976, Control_c, 0, 64, 62
2,119980, Note_on_c, 0, 53, 0
2,119996, Control_c, 0, 64, 66
2,120015, Control_c, 0, 64, 69
2,120034, Control_c, 0, 64, 74
2,120051, Control_c, 0, 64, 83
2,120073, Note_on_c, 0, 68, 73
2,120074, Control_c, 0, 64, 97
2,120092, Control_c, 0, 64, 117
2,120111, Note_on_c, 0, 56, 0
2,120112, Control_c, 0, 64, 127
2,120228, Control_c, 0, 64, 113
2,120246, Control_c, 0, 64, 86
2,120257, Note_on_c, 0, 62, 0
2,120266, Control_c, 0, 64, 69
2,120277, Note_on_c, 0, 70, 78
2,120285, Control_c, 0, 64, 55
2,120286, Note_on_c, 0, 46, 46
2,120286, Note_on_c, 0, 55, 50
2,120304, Control_c, 0, 64, 0
2,120362, Control_c, 0, 64, 11
2,120381, Control_c, 0, 64, 46
2,120392, Note_on_c, 0, 68, 0
2,120400, Control_c, 0, 64, 60
2,120420, Control_c, 0, 64, 65
2,120438, Control_c, 0, 64, 68
2,120457, Control_c, 0, 64, 72
2,120460, Note_on_c, 0, 72, 81
2,120468, Note_on_c, 0, 55, 0
2,120475, Note_on_c, 0, 56, 57
2,120477, Control_c, 0, 64, 80
2,120496, Control_c, 0, 64, 94
2,120515, Control_c, 0, 64, 127
2,120529, Note_on_c, 0, 46, 0
2,120532, Note_on_c, 0, 70, 0
2,120632, Note_on_c, 0, 56, 0
2,120669, Control_c, 0, 64, 88
2,120683, Note_on_c, 0, 73, 80
2,120688, Control_c, 0, 64, 70
2,120693, Note_on_c, 0, 67, 62
2,120700, Note_on_c, 0, 58, 49
2,120708, Control_c, 0, 64, 56
2,120726, Control_c, 0, 64, 0
2,120750, Note_on_c, 0, 72, 0
2,120842, Control_c, 0, 64, 21
2,120861, Control_c, 0, 64, 31
2,120861, Note_on_c, 0, 58, 0
2,120880, Control_c, 0, 64, 35
2,120887, Note_on_c, 0, 56, 65
2,120900, Control_c, 0, 64, 35
2,120918, Control_c, 0, 64, 36
2,120976, Control_c, 0, 64, 35
2,121067, Note_on_c, 0, 56, 0
2,121072, Control_c, 0, 64, 37
2,121091, Control_c, 0, 64, 38
2,121108, Note_on_c, 0, 51, 55
2,121111, Control_c, 0, 64, 39
2,121112, Note_on_c, 0, 55, 49
2,121276, Note_on_c, 0, 55, 0
2,121283, Control_c, 0, 64, 39
2,121290, Note_on_c, 0, 51, 0
2,121303, Control_c, 0, 64, 40
2,121307, Note_on_c, 0, 49, 61
2,121325, Note_on_c, 0, 53, 56
2,121360, Control_c, 0, 64, 39
2,121380, Control_c, 0, 64, 37
2,121398, Control_c, 0, 64, 31
2,121417, Control_c, 0, 64, 19
2,121431, Note_on_c, 0, 49, 0
2,121437, Control_c, 0, 64, 0
2,121491, Note_on_c, 0, 73, 0
2,121494, Note_on_c, 0, 53, 0
2,121499, Note_on_c, 0, 67, 0
2,121516, Note_on_c, 0, 68, 77
2,121524, Note_on_c, 0, 51, 56
2,121529, Note_on_c, 0, 48, 55
2,121648, Control_c, 0, 64, 47
2,121668, Control_c, 0, 64, 64
2,121686, Control_c, 0, 64, 70
2,121693, Note_on_c, 0, 48, 0
2,121706, Control_c, 0, 64, 80
2,121707, Note_on_c, 0, 51, 0
2,121716, Note_on_c, 0, 72, 87
2,121725, Control_c, 0, 64, 94
2,121744, Control_c, 0, 64, 127
2,121917, Control_c, 0, 64, 116
2,121921, Note_on_c, 0, 73, 85
2,121932, Note_on_c, 0, 56, 68
2,121935, Note_on_c, 0, 53, 65
2,121936, Control_c, 0, 64, 83
2,121955, Control_c, 0, 64, 66
2,121970, Control_c, 0, 64, 47
2,121990, Control_c, 0, 64, 0
2,122030, Control_c, 0, 64, 46
2,122049, Control_c, 0, 64, 57
2,122069, Control_c, 0, 64, 61
2,122087, Control_c, 0, 64, 62
2,122096, Note_on_c, 0, 75, 85
2,122107, Control_c, 0, 64, 64
2,122126, Control_c, 0, 64, 65
2,122146, Control_c, 0, 64, 67
2,122153, Note_on_c, 0, 72, 0
2,122164, Control_c, 0, 64, 70
2,122184, Control_c, 0, 64, 74
2,122203, Control_c, 0, 64, 76
2,122223, Control_c, 0, 64, 77
2,122241, Control_c, 0, 64, 76
2,122261, Control_c, 0, 64, 75
2,122280, Control_c, 0, 64, 73
2,122299, Control_c, 0, 64, 70
2,122318, Control_c, 0, 64, 67
2,122320, Note_on_c, 0, 53, 0
2,122321, Note_on_c, 0, 56, 0
2,122323, Note_on_c, 0, 77, 87
2,122330, Note_on_c, 0, 73, 0
2,122337, Control_c, 0, 64, 62
2,122346, Note_on_c, 0, 61, 68
2,122360, Control_c, 0, 64, 46
2,122378, Control_c, 0, 64, 0
2,122404, Note_on_c, 0, 75, 0
2,122530, Note_on_c, 0, 51, 58
2,122540, Note_on_c, 0, 55, 62
2,122638, Note_on_c, 0, 51, 0
2,122652, Note_on_c, 0, 68, 0
2,122667, Note_on_c, 0, 55, 0
2,122716, Note_on_c, 0, 56, 71
2,122724, Control_c, 0, 64, 19
2,122730, Note_on_c, 0, 53, 68
2,122743, Control_c, 0, 64, 41
2,122763, Control_c, 0, 64, 54
2,122781, Control_c, 0, 64, 60
2,122796, Note_on_c, 0, 77, 0
2,122801, Control_c, 0, 64, 63
2,122813, Note_on_c, 0, 56, 0
2,122820, Control_c, 0, 64, 66
2,122840, Control_c, 0, 64, 71
2,122840, Note_on_c, 0, 53, 0
2,122858, Control_c, 0, 64, 83
2,122878, Control_c, 0, 64, 102
2,122897, Control_c, 0, 64, 127
2,122917, Note_on_c, 0, 58, 74
2,122934, Note_on_c, 0, 55, 61
2,122986, Note_on_c, 0, 55, 0
2,123006, Note_on_c, 0, 58, 0
2,123010, Note_on_c, 0, 61, 0
2,123134, Note_on_c, 0, 60, 68
2,123141, Note_on_c, 0, 56, 75
2,123166, Control_c, 0, 64, 98
2,123185, Control_c, 0, 64, 85
2,123204, Control_c, 0, 64, 75
2,123223, Control_c, 0, 64, 67
2,123243, Control_c, 0, 64, 60
2,123259, Note_on_c, 0, 56, 0
2,123261, Control_c, 0, 64, 50
2,123281, Control_c, 0, 64, 43
2,123327, Note_on_c, 0, 75, 86
2,123338, Control_c, 0, 64, 43
2,123351, Note_on_c, 0, 55, 64
2,123415, Control_c, 0, 64, 43
2,123435, Control_c, 0, 64, 42
2,123454, Control_c, 0, 64, 40
2,123473, Control_c, 0, 64, 36
2,123492, Control_c, 0, 64, 26
2,123512, Control_c, 0, 64, 0
2,123538, Note_on_c, 0, 53, 65
2,123541, Note_on_c, 0, 77, 90
2,123605, Note_on_c, 0, 55, 0
2,123665, Control_c, 0, 64, 46
2,123684, Control_c, 0, 64, 62
2,123703, Control_c, 0, 64, 67
2,123723, Control_c, 0, 64, 75
2,123740, Note_on_c, 0, 51, 63
2,123741, Control_c, 0, 64, 91
2,123741, Note_on_c, 0, 53, 0
2,123742, Note_on_c, 0, 79, 95
2,123761, Control_c, 0, 64, 127
2,123793, Note_on_c, 0, 75, 0
2,123796, Note_on_c, 0, 60, 0
2,123880, Note_on_c, 0, 51, 0
2,123985, Note_on_c, 0, 80, 95
2,123993, Note_on_c, 0, 50, 70
2,123995, Note_on_c, 0, 59, 70
2,124010, Control_c, 0, 64, 90
2,124029, Control_c, 0, 64, 73
2,124032, Note_on_c, 0, 77, 0
2,124047, Note_on_c, 0, 79, 0
2,124049, Control_c, 0, 64, 61
2,124068, Control_c, 0, 64, 27
2,124087, Control_c, 0, 64, 0
2,124200, Note_on_c, 0, 53, 72
2,124220, Note_on_c, 0, 50, 0
2,124395, Control_c, 0, 64, 39
2,124414, Control_c, 0, 64, 55
2,124421, Note_on_c, 0, 55, 72
2,124433, Control_c, 0, 64, 63
2,124452, Control_c, 0, 64, 66
2,124457, Note_on_c, 0, 53, 0
2,124472, Control_c, 0, 64, 70
2,124490, Control_c, 0, 64, 78
2,124509, Control_c, 0, 64, 101
2,124516, Note_on_c, 0, 59, 0
2,124529, Control_c, 0, 64, 127
2,124617, Note_on_c, 0, 55, 0
2,124624, Note_on_c, 0, 56, 81
2,124725, Note_on_c, 0, 56, 0
2,124836, Control_c, 0, 64, 107
2,124848, Note_on_c, 0, 58, 76
2,124849, Note_on_c, 0, 51, 73
2,124852, Control_c, 0, 64, 79
2,124876, Control_c, 0, 64, 65
2,124895, Control_c, 0, 64, 40
2,124914, Control_c, 0, 64, 0
2,124948, Note_on_c, 0, 80, 0
2,124991, Control_c, 0, 64, 45
2,125010, Control_c, 0, 64, 61
2,125029, Control_c, 0, 64, 67
2,125048, Control_c, 0, 64, 75
2,125056, Note_on_c, 0, 51, 0
2,125067, Control_c, 0, 64, 95
2,125087, Control_c, 0, 64, 127
2,125259, Control_c, 0, 64, 114
2,125279, Control_c, 0, 64, 82
2,125285, Note_on_c, 0, 79, 89
2,125288, Note_on_c, 0, 50, 63
2,125298, Control_c, 0, 64, 66
2,125317, Control_c, 0, 64, 48
2,125336, Control_c, 0, 64, 0
2,125356, Control_c, 0, 64, 31
2,125375, Control_c, 0, 64, 53
2,125394, Control_c, 0, 64, 62
2,125413, Control_c, 0, 64, 65
2,125433, Control_c, 0, 64, 68
2,125451, Control_c, 0, 64, 76
2,125471, Control_c, 0, 64, 103
2,125490, Control_c, 0, 64, 127
2,125497, Note_on_c, 0, 77, 87
2,125585, Note_on_c, 0, 79, 0
2,125692, Note_on_c, 0, 58, 0
2,125701, Note_on_c, 0, 50, 0
2,125759, Control_c, 0, 64, 115
2,125759, Note_on_c, 0, 79, 89
2,125777, Note_on_c, 0, 52, 59
2,125778, Control_c, 0, 64, 83
2,125797, Control_c, 0, 64, 67
2,125798, Note_on_c, 0, 77, 0
2,125813, Control_c, 0, 64, 51
2,125833, Control_c, 0, 64, 0
2,125911, Control_c, 0, 64, 19
2,125930, Control_c, 0, 64, 48
2,125948, Control_c, 0, 64, 61
2,125968, Control_c, 0, 64, 65
2,125987, Control_c, 0, 64, 69
2,125997, Note_on_c, 0, 55, 58
2,126006, Control_c, 0, 64, 76
2,126025, Control_c, 0, 64, 86
2,126045, Control_c, 0, 64, 97
2,126056, Note_on_c, 0, 52, 0
2,126064, Control_c, 0, 64, 103
2,126122, Control_c, 0, 64, 102
2,126140, Control_c, 0, 64, 99
2,126153, Note_on_c, 0, 55, 0
2,126160, Control_c, 0, 64, 94
2,126179, Control_c, 0, 64, 88
2,126199, Control_c, 0, 64, 78
2,126209, Note_on_c, 0, 53, 61
2,126217, Control_c, 0, 64, 68
2,126222, Note_on_c, 0, 48, 51
2,126237, Control_c, 0, 64, 52
2,126256, Control_c, 0, 64, 0
2,126377, Note_on_c, 0, 48, 0
2,126410, Control_c, 0, 64, 41
2,126412, Note_on_c, 0, 52, 65
2,126428, Control_c, 0, 64, 63
2,126441, Note_on_c, 0, 53, 0
2,126448, Control_c, 0, 64, 68
2,126467, Control_c, 0, 64, 74
2,126486, Control_c, 0, 64, 81
2,126505, Control_c, 0, 64, 90
2,126525, Control_c, 0, 64, 96
2,126544, Control_c, 0, 64, 101
2,126563, Control_c, 0, 64, 103
2,126581, Note_on_c, 0, 79, 0
2,126602, Control_c, 0, 64, 102
2,126620, Control_c, 0, 64, 101
2,126640, Control_c, 0, 64, 99
2,126659, Control_c, 0, 64, 94
2,126674, Note_on_c, 0, 53, 45
2,126678, Note_on_c, 0, 56, 62
2,126679, Control_c, 0, 64, 87
2,126694, Control_c, 0, 64, 78
2,126714, Control_c, 0, 64, 69
2,126733, Control_c, 0, 64, 63
2,126743, Note_on_c, 0, 52, 0
2,126753, Control_c, 0, 64, 56
2,126771, Control_c, 0, 64, 50
2,126791, Control_c, 0, 64, 50
2,126857, Note_on_c, 0, 53, 0
2,126902, Note_on_c, 0, 72, 61
2,126925, Control_c, 0, 64, 49
2,126963, Control_c, 0, 64, 49
2,126983, Control_c, 0, 64, 48
2,127002, Control_c, 0, 64, 47
2,127022, Control_c, 0, 64, 47
2,127107, Note_on_c, 0, 53, 48
2,127111, Note_on_c, 0, 74, 59
2,127191, Note_on_c, 0, 56, 0
2,127194, Control_c, 0, 64, 46
2,127213, Control_c, 0, 64, 44
2,127233, Control_c, 0, 64, 40
2,127251, Control_c, 0, 64, 20
2,127271, Control_c, 0, 64, 0
2,127301, Note_on_c, 0, 51, 51
2,127317, Note_on_c, 0, 75, 67
2,127335, Note_on_c, 0, 53, 0
2,127359, Note_on_c, 0, 72, 0
2,127503, Note_on_c, 0, 74, 0
2,127526, Note_on_c, 0, 77, 61
2,127529, Note_on_c, 0, 75, 0
2,127540, Note_on_c, 0, 51, 0
2,127543, Note_on_c, 0, 50, 49
2,127597, Control_c, 0, 64, 34
2,127616, Control_c, 0, 64, 53
2,127636, Control_c, 0, 64, 61
2,127654, Control_c, 0, 64, 63
2,127674, Control_c, 0, 64, 64
2,127693, Control_c, 0, 64, 65
2,127713, Control_c, 0, 64, 68
2,127721, Note_on_c, 0, 50, 0
2,127731, Control_c, 0, 64, 70
2,127740, Note_on_c, 0, 71, 58
2,127751, Control_c, 0, 64, 73
2,127770, Control_c, 0, 64, 74
2,127789, Control_c, 0, 64, 73
2,127808, Control_c, 0, 64, 72
2,127828, Control_c, 0, 64, 71
2,127847, Control_c, 0, 64, 70
2,127866, Control_c, 0, 64, 69
2,127885, Control_c, 0, 64, 67
2,127905, Control_c, 0, 64, 66
2,127916, Note_on_c, 0, 50, 47
2,127923, Control_c, 0, 64, 65
2,127936, Note_on_c, 0, 72, 63
2,127943, Control_c, 0, 64, 63
2,127962, Control_c, 0, 64, 62
2,127981, Note_on_c, 0, 71, 0
2,127982, Control_c, 0, 64, 61
2,128000, Control_c, 0, 64, 60
2,128019, Control_c, 0, 64, 59
2,128039, Control_c, 0, 64, 57
2,128057, Control_c, 0, 64, 56
2,128077, Control_c, 0, 64, 54
2,128096, Control_c, 0, 64, 52
2,128116, Control_c, 0, 64, 51
2,128130, Note_on_c, 0, 48, 50
2,128130, Note_on_c, 0, 72, 0
2,128134, Control_c, 0, 64, 51
2,128134, Note_on_c, 0, 74, 59
2,128153, Note_on_c, 0, 50, 0
2,128154, Control_c, 0, 64, 50
2,128173, Control_c, 0, 64, 49
2,128193, Control_c, 0, 64, 47
2,128211, Control_c, 0, 64, 46
2,128231, Control_c, 0, 64, 46
2,128250, Control_c, 0, 64, 45
2,128269, Control_c, 0, 64, 45
2,128288, Control_c, 0, 64, 44
2,128325, Note_on_c, 0, 48, 0
2,128341, Note_on_c, 0, 47, 42
2,128347, Note_on_c, 0, 74, 0
2,128364, Note_on_c, 0, 67, 51
2,128551, Note_on_c, 0, 43, 51
2,128557, Note_on_c, 0, 47, 0
2,128769, Note_on_c, 0, 45, 50
2,128774, Note_on_c, 0, 75, 64
2,128826, Note_on_c, 0, 43, 0
2,128944, Note_on_c, 0, 77, 0
2,128963, Note_on_c, 0, 74, 69
2,128976, Note_on_c, 0, 45, 0
2,128976, Note_on_c, 0, 47, 55
2,129005, Note_on_c, 0, 75, 0
2,129025, Note_on_c, 0, 67, 0
2,129078, Control_c, 0, 64, 44
2,129146, Note_on_c, 0, 47, 0
2,129187, Note_on_c, 0, 75, 69
2,129197, Note_on_c, 0, 48, 53
2,129197, Note_on_c, 0, 74, 0
2,129288, Control_c, 0, 64, 43
2,129347, Control_c, 0, 64, 43
2,129378, Note_on_c, 0, 48, 0
2,129398, Note_on_c, 0, 44, 51
2,129576, Control_c, 0, 64, 43
2,129608, Note_on_c, 0, 46, 56
2,129610, Note_on_c, 0, 66, 55
2,129614, Note_on_c, 0, 44, 0
2,129788, Control_c, 0, 64, 44
2,129794, Note_on_c, 0, 66, 0
2,129800, Note_on_c, 0, 46, 0
2,129806, Note_on_c, 0, 48, 53
2,130038, Note_on_c, 0, 49, 52
2,130040, Note_on_c, 0, 65, 51
2,130076, Control_c, 0, 64, 44
2,130086, Note_on_c, 0, 48, 0
2,130095, Control_c, 0, 64, 45
2,130114, Control_c, 0, 64, 46
2,130133, Control_c, 0, 64, 46
2,130153, Control_c, 0, 64, 47
2,130172, Control_c, 0, 64, 47
2,130232, Note_on_c, 0, 68, 64
2,130283, Note_on_c, 0, 49, 0
2,130345, Note_on_c, 0, 75, 0
2,130364, Control_c, 0, 64, 47
2,130437, Note_on_c, 0, 70, 67
2,130444, Note_on_c, 0, 49, 53
2,130459, Control_c, 0, 64, 46
2,130484, Note_on_c, 0, 65, 0
2,130518, Control_c, 0, 64, 46
2,130575, Control_c, 0, 64, 45
2,130593, Note_on_c, 0, 49, 0
2,130637, Note_on_c, 0, 48, 40
2,130644, Note_on_c, 0, 72, 67
2,130672, Note_on_c, 0, 68, 0
2,130691, Note_on_c, 0, 70, 0
2,130823, Note_on_c, 0, 48, 0
2,130849, Note_on_c, 0, 46, 43
2,130868, Note_on_c, 0, 73, 66
2,130875, Note_on_c, 0, 72, 0
2,130977, Control_c, 0, 64, 46
2,131073, Note_on_c, 0, 67, 58
2,131078, Note_on_c, 0, 46, 0
2,131270, Note_on_c, 0, 46, 48
2,131270, Note_on_c, 0, 68, 62
2,131343, Control_c, 0, 64, 45
2,131433, Note_on_c, 0, 73, 0
2,131465, Note_on_c, 0, 70, 63
2,131476, Note_on_c, 0, 46, 0
2,131477, Note_on_c, 0, 44, 50
2,131514, Note_on_c, 0, 67, 0
2,131534, Control_c, 0, 64, 45
2,131650, Note_on_c, 0, 44, 0
2,131673, Note_on_c, 0, 68, 0
2,131685, Note_on_c, 0, 63, 59
2,131690, Note_on_c, 0, 70, 0
2,131703, Note_on_c, 0, 43, 46
2,131873, Note_on_c, 0, 43, 0
2,131888, Note_on_c, 0, 39, 53
2,131975, Control_c, 0, 64, 44
2,132098, Note_on_c, 0, 72, 66
2,132108, Note_on_c, 0, 41, 55
2,132110, Note_on_c, 0, 39, 0
2,132278, Note_on_c, 0, 41, 0
2,132291, Note_on_c, 0, 70, 73
2,132308, Note_on_c, 0, 43, 52
2,132366, Note_on_c, 0, 72, 0
2,132446, Note_on_c, 0, 63, 0
2,132513, Note_on_c, 0, 43, 0
2,132513, Note_on_c, 0, 72, 71
2,132519, Note_on_c, 0, 44, 51
2,132571, Note_on_c, 0, 70, 0
2,132697, Note_on_c, 0, 44, 0
2,132710, Note_on_c, 0, 66, 67
2,132713, Note_on_c, 0, 41, 53
2,132906, Note_on_c, 0, 43, 52
2,132912, Note_on_c, 0, 65, 68
2,132918, Note_on_c, 0, 66, 0
2,132925, Note_on_c, 0, 41, 0
2,133097, Note_on_c, 0, 45, 55
2,133108, Note_on_c, 0, 63, 69
2,133112, Note_on_c, 0, 43, 0
2,133137, Note_on_c, 0, 65, 0
2,133236, Note_on_c, 0, 72, 0
2,133332, Note_on_c, 0, 46, 55
2,133340, Note_on_c, 0, 61, 68
2,133345, Note_on_c, 0, 63, 0
2,133348, Note_on_c, 0, 45, 0
2,133515, Note_on_c, 0, 46, 0
2,133522, Note_on_c, 0, 45, 60
2,133759, Note_on_c, 0, 65, 65
2,133783, Note_on_c, 0, 46, 55
2,133793, Note_on_c, 0, 45, 0
2,133894, Control_c, 0, 64, 44
2,133938, Note_on_c, 0, 46, 0
2,133965, Note_on_c, 0, 48, 54
2,133990, Control_c, 0, 64, 43
2,134028, Control_c, 0, 64, 43
2,134177, Note_on_c, 0, 70, 72
2,134182, Note_on_c, 0, 48, 0
2,134182, Note_on_c, 0, 49, 49
2,134183, Note_on_c, 0, 65, 0
2,134278, Control_c, 0, 64, 42
2,134370, Note_on_c, 0, 46, 48
2,134399, Note_on_c, 0, 49, 0
2,134579, Note_on_c, 0, 48, 42
2,134580, Note_on_c, 0, 46, 0
2,134595, Note_on_c, 0, 68, 61
2,134613, Note_on_c, 0, 70, 0
2,134700, Control_c, 0, 64, 42
2,134782, Note_on_c, 0, 48, 0
2,134788, Note_on_c, 0, 49, 51
2,135030, Note_on_c, 0, 68, 0
2,135045, Control_c, 0, 64, 43
2,135058, Note_on_c, 0, 51, 40
2,135064, Note_on_c, 0, 49, 0
2,135065, Control_c, 0, 64, 45
2,135066, Note_on_c, 0, 67, 52
2,135084, Control_c, 0, 64, 49
2,135102, Note_on_c, 0, 61, 0
2,135104, Control_c, 0, 64, 54
2,135122, Control_c, 0, 64, 57
2,135142, Control_c, 0, 64, 60
2,135161, Control_c, 0, 64, 62
2,135180, Control_c, 0, 64, 64
2,135199, Control_c, 0, 64, 68
2,135219, Control_c, 0, 64, 73
2,135238, Control_c, 0, 64, 83
2,135255, Note_on_c, 0, 51, 0
2,135257, Control_c, 0, 64, 90
2,135276, Control_c, 0, 64, 94
2,135300, Note_on_c, 0, 58, 50
2,135315, Control_c, 0, 64, 94
2,135353, Control_c, 0, 64, 94
2,135373, Control_c, 0, 64, 93
2,135391, Control_c, 0, 64, 92
2,135408, Control_c, 0, 64, 90
2,135428, Control_c, 0, 64, 87
2,135447, Note_on_c, 0, 58, 0
2,135448, Control_c, 0, 64, 83
2,135467, Control_c, 0, 64, 78
2,135479, Note_on_c, 0, 51, 40
2,135486, Control_c, 0, 64, 73
2,135491, Note_on_c, 0, 60, 51
2,135506, Control_c, 0, 64, 68
2,135524, Control_c, 0, 64, 66
2,135544, Control_c, 0, 64, 64
2,135563, Control_c, 0, 64, 62
2,135583, Control_c, 0, 64, 60
2,135601, Control_c, 0, 64, 58
2,135621, Control_c, 0, 64, 57
2,135640, Control_c, 0, 64, 57
2,135652, Note_on_c, 0, 60, 0
2,135660, Control_c, 0, 64, 56
2,135678, Control_c, 0, 64, 55
2,135678, Note_on_c, 0, 61, 58
2,135679, Note_on_c, 0, 49, 50
2,135680, Note_on_c, 0, 51, 0
2,135698, Control_c, 0, 64, 54
2,135705, Note_on_c, 0, 67, 0
2,135717, Control_c, 0, 64, 53
2,135736, Control_c, 0, 64, 52
2,135755, Control_c, 0, 64, 50
2,135775, Control_c, 0, 64, 49
2,135794, Control_c, 0, 64, 45
2,135813, Control_c, 0, 64, 41
2,135832, Control_c, 0, 64, 36
2,135852, Control_c, 0, 64, 32
2,135870, Control_c, 0, 64, 29
2,135882, Note_on_c, 0, 61, 0
2,135889, Control_c, 0, 64, 29
2,135908, Note_on_c, 0, 48, 41
2,135912, Note_on_c, 0, 49, 0
2,135913, Note_on_c, 0, 63, 57
2,135947, Control_c, 0, 64, 33
2,135966, Control_c, 0, 64, 40
2,135986, Control_c, 0, 64, 48
2,136004, Control_c, 0, 64, 54
2,136024, Control_c, 0, 64, 58
2,136043, Control_c, 0, 64, 60
2,136063, Control_c, 0, 64, 63
2,136081, Control_c, 0, 64, 65
2,136101, Control_c, 0, 64, 68
2,136105, Note_on_c, 0, 67, 54
2,136120, Control_c, 0, 64, 71
2,136129, Note_on_c, 0, 48, 0
2,136140, Control_c, 0, 64, 74
2,136158, Control_c, 0, 64, 77
2,136197, Control_c, 0, 64, 76
2,136216, Control_c, 0, 64, 74
2,136235, Control_c, 0, 64, 73
2,136255, Control_c, 0, 64, 71
2,136274, Control_c, 0, 64, 70
2,136293, Control_c, 0, 64, 69
2,136312, Control_c, 0, 64, 67
2,136312, Note_on_c, 0, 68, 62
2,136316, Note_on_c, 0, 48, 48
2,136332, Control_c, 0, 64, 65
2,136350, Control_c, 0, 64, 64
2,136368, Control_c, 0, 64, 62
2,136388, Control_c, 0, 64, 61
2,136408, Control_c, 0, 64, 58
2,136427, Control_c, 0, 64, 55
2,136446, Control_c, 0, 64, 47
2,136462, Note_on_c, 0, 48, 0
2,136466, Control_c, 0, 64, 31
2,136484, Control_c, 0, 64, 0
2,136499, Note_on_c, 0, 70, 67
2,136508, Note_on_c, 0, 46, 48
2,136527, Note_on_c, 0, 67, 0
2,136566, Note_on_c, 0, 68, 0
2,136599, Note_on_c, 0, 63, 0
2,136681, Note_on_c, 0, 46, 0
2,136707, Note_on_c, 0, 44, 54
2,136720, Note_on_c, 0, 72, 70
2,136756, Note_on_c, 0, 70, 0
2,136869, Control_c, 0, 64, 42
2,136888, Control_c, 0, 64, 62
2,136904, Note_on_c, 0, 44, 0
2,136907, Control_c, 0, 64, 66
2,136925, Note_on_c, 0, 63, 69
2,136926, Control_c, 0, 64, 69
2,136946, Control_c, 0, 64, 72
2,136964, Control_c, 0, 64, 76
2,136984, Control_c, 0, 64, 80
2,137003, Control_c, 0, 64, 81
2,137023, Control_c, 0, 64, 81
2,137041, Control_c, 0, 64, 79
2,137061, Control_c, 0, 64, 77
2,137080, Control_c, 0, 64, 74
2,137100, Control_c, 0, 64, 72
2,137118, Control_c, 0, 64, 69
2,137126, Note_on_c, 0, 63, 0
2,137132, Note_on_c, 0, 65, 67
2,137138, Control_c, 0, 64, 68
2,137144, Note_on_c, 0, 56, 63
2,137157, Control_c, 0, 64, 67
2,137176, Control_c, 0, 64, 66
2,137195, Control_c, 0, 64, 64
2,137215, Control_c, 0, 64, 63
2,137234, Control_c, 0, 64, 62
2,137253, Control_c, 0, 64, 60
2,137272, Control_c, 0, 64, 59
2,137292, Control_c, 0, 64, 59
2,137310, Control_c, 0, 64, 58
2,137320, Note_on_c, 0, 67, 73
2,137324, Note_on_c, 0, 55, 66
2,137328, Control_c, 0, 64, 57
2,137348, Control_c, 0, 64, 56
2,137353, Note_on_c, 0, 65, 0
2,137355, Note_on_c, 0, 72, 0
2,137356, Note_on_c, 0, 56, 0
2,137367, Control_c, 0, 64, 54
2,137386, Control_c, 0, 64, 52
2,137405, Control_c, 0, 64, 46
2,137425, Control_c, 0, 64, 21
2,137444, Control_c, 0, 64, 0
2,137532, Note_on_c, 0, 67, 0
2,137548, Note_on_c, 0, 68, 80
2,137550, Note_on_c, 0, 53, 65
2,137626, Note_on_c, 0, 55, 0
2,137674, Control_c, 0, 64, 18
2,137694, Control_c, 0, 64, 46
2,137713, Control_c, 0, 64, 62
2,137732, Control_c, 0, 64, 66
2,137742, Note_on_c, 0, 72, 81
2,137751, Control_c, 0, 64, 71
2,137771, Control_c, 0, 64, 81
2,137790, Control_c, 0, 64, 100
2,137795, Note_on_c, 0, 53, 0
2,137808, Control_c, 0, 64, 127
2,137924, Control_c, 0, 64, 118
2,137941, Note_on_c, 0, 74, 84
2,137943, Control_c, 0, 64, 86
2,137949, Note_on_c, 0, 53, 74
2,137962, Control_c, 0, 64, 69
2,137982, Control_c, 0, 64, 48
2,137985, Note_on_c, 0, 72, 0
2,138000, Control_c, 0, 64, 0
2,138059, Control_c, 0, 64, 39
2,138077, Control_c, 0, 64, 57
2,138097, Control_c, 0, 64, 64
2,138116, Control_c, 0, 64, 69
2,138135, Control_c, 0, 64, 78
2,138139, Note_on_c, 0, 75, 86
2,138150, Note_on_c, 0, 51, 71
2,138154, Control_c, 0, 64, 99
2,138161, Note_on_c, 0, 53, 0
2,138174, Control_c, 0, 64, 127
2,138213, Note_on_c, 0, 74, 0
2,138359, Note_on_c, 0, 68, 0
2,138386, Control_c, 0, 64, 103
2,138392, Note_on_c, 0, 77, 88
2,138400, Note_on_c, 0, 51, 0
2,138403, Note_on_c, 0, 50, 74
2,138404, Control_c, 0, 64, 82
2,138424, Control_c, 0, 64, 69
2,138443, Control_c, 0, 64, 54
2,138451, Note_on_c, 0, 75, 0
2,138463, Control_c, 0, 64, 0
2,138634, Note_on_c, 0, 72, 77
2,138693, Control_c, 0, 64, 48
2,138712, Control_c, 0, 64, 61
2,138732, Control_c, 0, 64, 63
2,138750, Control_c, 0, 64, 65
2,138769, Control_c, 0, 64, 68
2,138789, Control_c, 0, 64, 75
2,138804, Note_on_c, 0, 50, 0
2,138808, Control_c, 0, 64, 92
2,138825, Note_on_c, 0, 70, 77
2,138827, Control_c, 0, 64, 127
2,138840, Note_on_c, 0, 72, 0
2,138913, Note_on_c, 0, 70, 0
2,139019, Note_on_c, 0, 68, 77
2,139132, Note_on_c, 0, 77, 0
2,139237, Note_on_c, 0, 67, 75
2,139246, Note_on_c, 0, 51, 67
2,139246, Note_on_c, 0, 68, 0
2,139249, Control_c, 0, 64, 96
2,139254, Note_on_c, 0, 58, 68
2,139269, Control_c, 0, 64, 76
2,139288, Control_c, 0, 64, 63
2,139307, Control_c, 0, 64, 11
2,139326, Control_c, 0, 64, 0
2,139439, Note_on_c, 0, 70, 75
2,139456, Note_on_c, 0, 51, 0
2,139500, Control_c, 0, 64, 31
2,139518, Control_c, 0, 64, 40
2,139538, Control_c, 0, 64, 45
2,139557, Control_c, 0, 64, 46
2,139609, Note_on_c, 0, 70, 0
2,139615, Control_c, 0, 64, 46
2,139634, Control_c, 0, 64, 49
2,139637, Note_on_c, 0, 75, 81
2,139653, Control_c, 0, 64, 53
2,139656, Note_on_c, 0, 55, 56
2,139661, Note_on_c, 0, 67, 0
2,139672, Control_c, 0, 64, 56
2,139692, Control_c, 0, 64, 60
2,139710, Control_c, 0, 64, 64
2,139729, Control_c, 0, 64, 68
2,139749, Control_c, 0, 64, 75
2,139768, Control_c, 0, 64, 89
2,139787, Control_c, 0, 64, 105
2,139806, Control_c, 0, 64, 127
2,139816, Note_on_c, 0, 55, 0
2,139823, Note_on_c, 0, 67, 69
2,139839, Note_on_c, 0, 58, 0
2,139897, Note_on_c, 0, 75, 0
2,140017, Note_on_c, 0, 67, 0
2,140018, Control_c, 0, 64, 116
2,140037, Control_c, 0, 64, 92
2,140040, Note_on_c, 0, 65, 74
2,140044, Note_on_c, 0, 56, 65
2,140052, Note_on_c, 0, 60, 66
2,140056, Control_c, 0, 64, 74
2,140075, Control_c, 0, 64, 64
2,140095, Control_c, 0, 64, 52
2,140114, Control_c, 0, 64, 29
2,140133, Control_c, 0, 64, 0
2,140237, Note_on_c, 0, 56, 0
2,140245, Note_on_c, 0, 75, 78
2,140248, Control_c, 0, 64, 11
2,140267, Control_c, 0, 64, 13
2,140306, Control_c, 0, 64, 11
2,140324, Control_c, 0, 64, 0
2,140440, Note_on_c, 0, 74, 67
2,140457, Note_on_c, 0, 53, 58
2,140503, Note_on_c, 0, 75, 0
2,140517, Control_c, 0, 64, 32
2,140536, Control_c, 0, 64, 47
2,140550, Note_on_c, 0, 60, 0
2,140555, Control_c, 0, 64, 56
2,140575, Control_c, 0, 64, 62
2,140594, Control_c, 0, 64, 66
2,140613, Control_c, 0, 64, 71
2,140630, Note_on_c, 0, 74, 0
2,140632, Control_c, 0, 64, 81
2,140635, Note_on_c, 0, 72, 77
2,140652, Control_c, 0, 64, 95
2,140670, Control_c, 0, 64, 112
2,140689, Control_c, 0, 64, 127
2,140766, Control_c, 0, 64, 117
2,140786, Control_c, 0, 64, 103
2,140804, Control_c, 0, 64, 89
2,140824, Control_c, 0, 64, 75
2,140843, Control_c, 0, 64, 64
2,140855, Note_on_c, 0, 65, 0
2,140863, Control_c, 0, 64, 41
2,140865, Note_on_c, 0, 53, 0
2,140868, Note_on_c, 0, 58, 64
2,140872, Note_on_c, 0, 74, 75
2,140881, Control_c, 0, 64, 0
2,140901, Note_on_c, 0, 72, 0
2,140997, Control_c, 0, 64, 36
2,141016, Control_c, 0, 64, 55
2,141035, Control_c, 0, 64, 61
2,141055, Control_c, 0, 64, 62
2,141072, Note_on_c, 0, 75, 73
2,141074, Control_c, 0, 64, 63
2,141092, Note_on_c, 0, 74, 0
2,141093, Control_c, 0, 64, 63
2,141112, Control_c, 0, 64, 65
2,141132, Control_c, 0, 64, 67
2,141150, Control_c, 0, 64, 68
2,141168, Control_c, 0, 64, 68
2,141188, Control_c, 0, 64, 67
2,141207, Control_c, 0, 64, 65
2,141226, Control_c, 0, 64, 62
2,141245, Control_c, 0, 64, 56
2,141265, Control_c, 0, 64, 44
2,141268, Note_on_c, 0, 75, 0
2,141277, Note_on_c, 0, 46, 57
2,141278, Note_on_c, 0, 72, 68
2,141284, Control_c, 0, 64, 17
2,141303, Control_c, 0, 64, 18
2,141322, Control_c, 0, 64, 36
2,141342, Control_c, 0, 64, 51
2,141360, Control_c, 0, 64, 59
2,141380, Control_c, 0, 64, 62
2,141399, Control_c, 0, 64, 65
2,141419, Control_c, 0, 64, 70
2,141427, Note_on_c, 0, 46, 0
2,141436, Note_on_c, 0, 58, 0
2,141437, Control_c, 0, 64, 77
2,141457, Control_c, 0, 64, 86
2,141476, Control_c, 0, 64, 94
2,141488, Note_on_c, 0, 72, 0
2,141488, Note_on_c, 0, 74, 69
2,141495, Control_c, 0, 64, 98
2,141514, Control_c, 0, 64, 98
2,141553, Control_c, 0, 64, 99
2,141591, Control_c, 0, 64, 98
2,141610, Control_c, 0, 64, 98
2,141630, Control_c, 0, 64, 93
2,141648, Control_c, 0, 64, 84
2,141668, Control_c, 0, 64, 73
2,141687, Control_c, 0, 64, 63
2,141705, Note_on_c, 0, 60, 59
2,141705, Note_on_c, 0, 75, 70
2,141706, Control_c, 0, 64, 36
2,141711, Note_on_c, 0, 48, 43
2,141712, Note_on_c, 0, 74, 0
2,141718, Note_on_c, 0, 57, 58
2,141725, Control_c, 0, 64, 0
2,141783, Control_c, 0, 64, 15
2,141802, Control_c, 0, 64, 44
2,141817, Note_on_c, 0, 48, 0
2,141822, Control_c, 0, 64, 59
2,141840, Control_c, 0, 64, 66
2,141860, Control_c, 0, 64, 71
2,141879, Control_c, 0, 64, 80
2,141899, Control_c, 0, 64, 95
2,141903, Note_on_c, 0, 60, 0
2,141907, Note_on_c, 0, 72, 74
2,141917, Control_c, 0, 64, 127
2,141979, Note_on_c, 0, 75, 0
2,142090, Control_c, 0, 64, 95
2,142109, Note_on_c, 0, 60, 58
2,142110, Control_c, 0, 64, 73
2,142112, Note_on_c, 0, 74, 76
2,142126, Control_c, 0, 64, 62
2,142146, Control_c, 0, 64, 45
2,142166, Control_c, 0, 64, 51
2,142168, Note_on_c, 0, 72, 0
2,142185, Control_c, 0, 64, 61
2,142204, Control_c, 0, 64, 64
2,142224, Control_c, 0, 64, 68
2,142243, Control_c, 0, 64, 76
2,142262, Control_c, 0, 64, 95
2,142278, Note_on_c, 0, 60, 0
2,142281, Control_c, 0, 64, 127
2,142295, Note_on_c, 0, 75, 88
2,142302, Note_on_c, 0, 58, 69
2,142343, Note_on_c, 0, 57, 0
2,142488, Note_on_c, 0, 74, 0
2,142493, Control_c, 0, 64, 95
2,142512, Control_c, 0, 64, 68
2,142520, Note_on_c, 0, 56, 64
2,142521, Note_on_c, 0, 77, 86
2,142530, Control_c, 0, 64, 37
2,142535, Note_on_c, 0, 62, 70
2,142550, Control_c, 0, 64, 0
2,142555, Note_on_c, 0, 75, 0
2,142563, Note_on_c, 0, 58, 0
2,142665, Control_c, 0, 64, 44
2,142684, Control_c, 0, 64, 60
2,142704, Control_c, 0, 64, 65
2,142718, Note_on_c, 0, 75, 82
2,142723, Control_c, 0, 64, 69
2,142742, Control_c, 0, 64, 76
2,142761, Control_c, 0, 64, 88
2,142770, Note_on_c, 0, 56, 0
2,142781, Control_c, 0, 64, 110
2,142800, Control_c, 0, 64, 127
2,142841, Note_on_c, 0, 77, 0
2,142876, Control_c, 0, 64, 110
2,142896, Control_c, 0, 64, 80
2,142915, Control_c, 0, 64, 65
2,142922, Note_on_c, 0, 74, 77
2,142935, Control_c, 0, 64, 44
2,142935, Note_on_c, 0, 58, 60
2,142953, Control_c, 0, 64, 49
2,142973, Control_c, 0, 64, 60
2,142992, Control_c, 0, 64, 63
2,143003, Note_on_c, 0, 62, 0
2,143010, Control_c, 0, 64, 65
2,143030, Control_c, 0, 64, 69
2,143049, Control_c, 0, 64, 78
2,143069, Control_c, 0, 64, 102
2,143088, Control_c, 0, 64, 127
2,143107, Note_on_c, 0, 74, 0
2,143119, Note_on_c, 0, 72, 76
2,143134, Note_on_c, 0, 56, 64
2,143142, Note_on_c, 0, 58, 0
2,143155, Note_on_c, 0, 72, 0
2,143173, Note_on_c, 0, 56, 0
2,143176, Note_on_c, 0, 75, 0
2,143319, Control_c, 0, 64, 121
2,143335, Note_on_c, 0, 70, 75
2,143339, Control_c, 0, 64, 89
2,143340, Note_on_c, 0, 63, 70
2,143342, Note_on_c, 0, 55, 60
2,143357, Control_c, 0, 64, 75
2,143377, Control_c, 0, 64, 66
2,143396, Control_c, 0, 64, 59
2,143415, Control_c, 0, 64, 55
2,143473, Control_c, 0, 64, 54
2,143492, Control_c, 0, 64, 48
2,143511, Control_c, 0, 64, 30
2,143530, Control_c, 0, 64, 0
2,143535, Note_on_c, 0, 60, 70
2,143613, Note_on_c, 0, 63, 0
2,143734, Note_on_c, 0, 46, 55
2,143748, Note_on_c, 0, 62, 66
2,143775, Note_on_c, 0, 60, 0
2,143870, Note_on_c, 0, 55, 0
2,143922, Note_on_c, 0, 46, 0
2,143931, Note_on_c, 0, 48, 57
2,143952, Note_on_c, 0, 63, 59
2,144014, Note_on_c, 0, 62, 0
2,144137, Note_on_c, 0, 63, 0
2,144153, Note_on_c, 0, 48, 0
2,144157, Note_on_c, 0, 65, 58
2,144164, Note_on_c, 0, 50, 55
2,144168, Note_on_c, 0, 56, 55
2,144225, Control_c, 0, 64, 17
2,144243, Control_c, 0, 64, 46
2,144262, Control_c, 0, 64, 61
2,144282, Control_c, 0, 64, 65
2,144293, Note_on_c, 0, 50, 0
2,144301, Control_c, 0, 64, 67
2,144320, Control_c, 0, 64, 70
2,144339, Control_c, 0, 64, 73
2,144359, Control_c, 0, 64, 78
2,144361, Note_on_c, 0, 63, 69
2,144377, Control_c, 0, 64, 82
2,144393, Note_on_c, 0, 65, 0
2,144397, Control_c, 0, 64, 84
2,144434, Note_on_c, 0, 70, 0
2,144436, Control_c, 0, 64, 83
2,144454, Control_c, 0, 64, 81
2,144474, Control_c, 0, 64, 80
2,144493, Control_c, 0, 64, 77
2,144513, Control_c, 0, 64, 74
2,144531, Control_c, 0, 64, 70
2,144546, Note_on_c, 0, 56, 0
2,144551, Control_c, 0, 64, 66
2,144561, Note_on_c, 0, 62, 64
2,144570, Control_c, 0, 64, 63
2,144572, Note_on_c, 0, 48, 48
2,144589, Control_c, 0, 64, 61
2,144608, Control_c, 0, 64, 59
2,144735, Note_on_c, 0, 62, 0
2,144747, Note_on_c, 0, 50, 55
2,144753, Note_on_c, 0, 48, 0
2,144753, Note_on_c, 0, 60, 65
2,144773, Note_on_c, 0, 63, 0
2,144857, Control_c, 0, 64, 58
2,144877, Control_c, 0, 64, 57
2,144896, Control_c, 0, 64, 53
2,144913, Note_on_c, 0, 50, 0
2,144916, Control_c, 0, 64, 42
2,144934, Control_c, 0, 64, 0
2,144953, Note_on_c, 0, 58, 66
2,144953, Note_on_c, 0, 60, 0
2,144958, Note_on_c, 0, 51, 55
2,144967, Note_on_c, 0, 55, 51
2,145088, Control_c, 0, 64, 43
2,145099, Note_on_c, 0, 51, 0
2,145108, Control_c, 0, 64, 59
2,145127, Control_c, 0, 64, 65
2,145146, Control_c, 0, 64, 69
2,145159, Note_on_c, 0, 68, 73
2,145165, Control_c, 0, 64, 74
2,145185, Control_c, 0, 64, 82
2,145203, Control_c, 0, 64, 90
2,145222, Control_c, 0, 64, 96
2,145242, Control_c, 0, 64, 99
2,145278, Note_on_c, 0, 68, 0
2,145319, Control_c, 0, 64, 96
2,145337, Control_c, 0, 64, 87
2,145357, Control_c, 0, 64, 75
2,145368, Note_on_c, 0, 51, 65
2,145376, Control_c, 0, 64, 65
2,145376, Note_on_c, 0, 67, 72
2,145396, Control_c, 0, 64, 54
2,145414, Control_c, 0, 64, 18
2,145434, Control_c, 0, 64, 28
2,145453, Control_c, 0, 64, 48
2,145473, Control_c, 0, 64, 57
2,145491, Control_c, 0, 64, 61
2,145511, Control_c, 0, 64, 64
2,145530, Control_c, 0, 64, 67
2,145540, Note_on_c, 0, 55, 0
2,145549, Control_c, 0, 64, 71
2,145563, Note_on_c, 0, 50, 68
2,145565, Note_on_c, 0, 65, 77
2,145568, Control_c, 0, 64, 77
2,145588, Control_c, 0, 64, 84
2,145607, Control_c, 0, 64, 88
2,145611, Note_on_c, 0, 51, 0
2,145620, Note_on_c, 0, 67, 0
2,145626, Control_c, 0, 64, 89
2,145645, Control_c, 0, 64, 88
2,145665, Control_c, 0, 64, 87
2,145683, Control_c, 0, 64, 85
2,145702, Control_c, 0, 64, 82
2,145722, Control_c, 0, 64, 80
2,145741, Control_c, 0, 64, 76
2,145760, Control_c, 0, 64, 72
2,145779, Control_c, 0, 64, 67
2,145779, Note_on_c, 0, 58, 0
2,145793, Note_on_c, 0, 50, 0
2,145799, Control_c, 0, 64, 63
2,145803, Note_on_c, 0, 63, 77
2,145817, Control_c, 0, 64, 57
2,145821, Note_on_c, 0, 54, 59
2,145824, Note_on_c, 0, 48, 53
2,145837, Control_c, 0, 64, 37
2,145856, Control_c, 0, 64, 0
2,145864, Note_on_c, 0, 58, 3
2,145878, Note_on_c, 0, 58, 0
2,145878, Note_on_c, 0, 65, 0
2,145991, Control_c, 0, 64, 45
2,146010, Control_c, 0, 64, 59
2,146029, Control_c, 0, 64, 64
2,146048, Control_c, 0, 64, 66
2,146055, Note_on_c, 0, 48, 0
2,146068, Control_c, 0, 64, 69
2,146087, Control_c, 0, 64, 75
2,146106, Control_c, 0, 64, 84
2,146125, Control_c, 0, 64, 89
2,146145, Control_c, 0, 64, 90
2,146163, Control_c, 0, 64, 89
2,146182, Control_c, 0, 64, 84
2,146202, Control_c, 0, 64, 76
2,146211, Note_on_c, 0, 57, 63
2,146221, Control_c, 0, 64, 66
2,146224, Note_on_c, 0, 48, 53
2,146240, Control_c, 0, 64, 56
2,146259, Control_c, 0, 64, 43
2,146279, Control_c, 0, 64, 42
2,146297, Control_c, 0, 64, 50
2,146317, Control_c, 0, 64, 57
2,146336, Control_c, 0, 64, 60
2,146356, Control_c, 0, 64, 62
2,146367, Note_on_c, 0, 48, 0
2,146374, Control_c, 0, 64, 65
2,146394, Control_c, 0, 64, 68
2,146406, Note_on_c, 0, 46, 52
2,146411, Note_on_c, 0, 58, 63
2,146413, Control_c, 0, 64, 73
2,146424, Note_on_c, 0, 57, 0
2,146433, Control_c, 0, 64, 80
2,146451, Control_c, 0, 64, 86
2,146471, Control_c, 0, 64, 88
2,146528, Control_c, 0, 64, 87
2,146548, Control_c, 0, 64, 86
2,146550, Note_on_c, 0, 46, 0
2,146565, Note_on_c, 0, 54, 0
2,146567, Control_c, 0, 64, 86
2,146586, Control_c, 0, 64, 84
2,146605, Control_c, 0, 64, 82
2,146625, Control_c, 0, 64, 80
2,146632, Note_on_c, 0, 58, 0
2,146643, Control_c, 0, 64, 77
2,146662, Control_c, 0, 64, 72
2,146666, Note_on_c, 0, 45, 49
2,146666, Note_on_c, 0, 53, 53
2,146667, Note_on_c, 0, 60, 62
2,146682, Control_c, 0, 64, 67
2,146685, Note_on_c, 0, 63, 0
2,146701, Control_c, 0, 64, 64
2,146720, Control_c, 0, 64, 58
2,146739, Control_c, 0, 64, 47
2,146759, Control_c, 0, 64, 0
2,146852, Note_on_c, 0, 63, 70
2,147067, Control_c, 0, 64, 37
2,147069, Note_on_c, 0, 65, 72
2,147086, Control_c, 0, 64, 53
2,147099, Note_on_c, 0, 63, 0
2,147106, Control_c, 0, 64, 61
2,147124, Control_c, 0, 64, 64
2,147144, Control_c, 0, 64, 67
2,147163, Control_c, 0, 64, 71
2,147182, Control_c, 0, 64, 77
2,147193, Note_on_c, 0, 45, 0
2,147197, Note_on_c, 0, 60, 0
2,147201, Control_c, 0, 64, 87
2,147220, Control_c, 0, 64, 93
2,147240, Control_c, 0, 64, 96
2,147245, Note_on_c, 0, 63, 73
2,147258, Control_c, 0, 64, 97
2,147278, Control_c, 0, 64, 98
2,147291, Note_on_c, 0, 65, 0
2,147335, Control_c, 0, 64, 97
2,147355, Control_c, 0, 64, 96
2,147374, Control_c, 0, 64, 93
2,147393, Control_c, 0, 64, 89
2,147412, Control_c, 0, 64, 83
2,147432, Control_c, 0, 64, 77
2,147451, Control_c, 0, 64, 71
2,147451, Note_on_c, 0, 46, 47
2,147453, Note_on_c, 0, 63, 0
2,147467, Note_on_c, 0, 58, 45
2,147470, Control_c, 0, 64, 65
2,147475, Note_on_c, 0, 62, 68
2,147489, Control_c, 0, 64, 59
2,147509, Control_c, 0, 64, 47
2,147528, Control_c, 0, 64, 21
2,147547, Control_c, 0, 64, 0
2,147669, Note_on_c, 0, 72, 67
2,147883, Note_on_c, 0, 70, 62
2,147960, Note_on_c, 0, 72, 0
2,148054, Note_on_c, 0, 62, 0
2,148090, Note_on_c, 0, 68, 59
2,148150, Note_on_c, 0, 70, 0
2,148266, Note_on_c, 0, 46, 0
2,148305, Note_on_c, 0, 68, 0
2,148323, Note_on_c, 0, 53, 0
2,148327, Note_on_c, 0, 67, 53
2,148344, Note_on_c, 0, 51, 33
2,148449, Control_c, 0, 64, 9
2,148469, Control_c, 0, 64, 43
2,148488, Control_c, 0, 64, 57
2,148507, Control_c, 0, 64, 62
2,148508, Note_on_c, 0, 67, 0
2,148526, Control_c, 0, 64, 64
2,148546, Control_c, 0, 64, 66
2,148564, Control_c, 0, 64, 70
2,148584, Control_c, 0, 64, 78
2,148603, Control_c, 0, 64, 87
2,148622, Control_c, 0, 64, 94
2,148641, Control_c, 0, 64, 95
2,148698, Control_c, 0, 64, 93
2,148718, Control_c, 0, 64, 86
2,148737, Control_c, 0, 64, 77
2,148757, Control_c, 0, 64, 67
2,148768, Note_on_c, 0, 70, 68
2,148775, Control_c, 0, 64, 60
2,148795, Control_c, 0, 64, 49
2,148803, Note_on_c, 0, 63, 37
2,148814, Control_c, 0, 64, 39
2,148833, Control_c, 0, 64, 41
2,148848, Control_c, 0, 64, 50
2,148867, Control_c, 0, 64, 55
2,148890, Control_c, 0, 64, 59
2,148909, Control_c, 0, 64, 62
2,148928, Control_c, 0, 64, 64
2,148933, Note_on_c, 0, 70, 0
2,148948, Control_c, 0, 64, 66
2,148951, Note_on_c, 0, 63, 0
2,148966, Note_on_c, 0, 51, 0
2,148967, Control_c, 0, 64, 68
2,148977, Note_on_c, 0, 65, 59
2,148986, Control_c, 0, 64, 72
2,149005, Control_c, 0, 64, 79
2,149025, Control_c, 0, 64, 86
2,149043, Control_c, 0, 64, 88
2,149139, Control_c, 0, 64, 87
2,149159, Control_c, 0, 64, 87
2,149177, Control_c, 0, 64, 86
2,149197, Control_c, 0, 64, 85
2,149216, Control_c, 0, 64, 82
2,149236, Control_c, 0, 64, 78
2,149249, Note_on_c, 0, 65, 0
2,149254, Control_c, 0, 64, 73
2,149255, Note_on_c, 0, 75, 68
2,149274, Control_c, 0, 64, 65
2,149285, Note_on_c, 0, 67, 31
2,149293, Control_c, 0, 64, 58
2,149313, Control_c, 0, 64, 45
2,149331, Control_c, 0, 64, 15
2,149351, Control_c, 0, 64, 0
2,149389, Control_c, 0, 64, 23
2,149408, Control_c, 0, 64, 44
2,149428, Control_c, 0, 64, 55
2,149447, Control_c, 0, 64, 60
2,149466, Control_c, 0, 64, 62
2,149485, Control_c, 0, 64, 64
2,149496, Note_on_c, 0, 67, 0
2,149505, Control_c, 0, 64, 66
2,149523, Control_c, 0, 64, 68
2,149542, Control_c, 0, 64, 71
2,149562, Control_c, 0, 64, 72
2,149600, Control_c, 0, 64, 71
2,149619, Control_c, 0, 64, 71
2,149639, Control_c, 0, 64, 69
2,149657, Control_c, 0, 64, 68
2,149674, Note_on_c, 0, 67, 44
2,149677, Control_c, 0, 64, 66
2,149689, Note_on_c, 0, 51, 41
2,149696, Control_c, 0, 64, 65
2,149716, Control_c, 0, 64, 63
2,149734, Control_c, 0, 64, 62
2,149754, Control_c, 0, 64, 61
2,149773, Control_c, 0, 64, 60
2,149793, Control_c, 0, 64, 57
2,149811, Control_c, 0, 64, 54
2,149831, Control_c, 0, 64, 49
2,149831, Note_on_c, 0, 58, 0
2,149843, Note_on_c, 0, 67, 0
2,149850, Control_c, 0, 64, 42
2,149850, Note_on_c, 0, 51, 0
2,149869, Control_c, 0, 64, 30
2,149886, Note_on_c, 0, 68, 55
2,149888, Control_c, 0, 64, 0
2,149888, Note_on_c, 0, 53, 41
2,150089, Note_on_c, 0, 70, 58
2,150092, Note_on_c, 0, 68, 0
2,150096, Note_on_c, 0, 53, 0
2,150099, Control_c, 0, 64, 36
2,150108, Note_on_c, 0, 55, 40
2,150119, Control_c, 0, 64, 53
2,150137, Control_c, 0, 64, 61
2,150157, Control_c, 0, 64, 63
2,150160, Note_on_c, 0, 55, 0
2,150176, Control_c, 0, 64, 64
2,150196, Control_c, 0, 64, 66
2,150214, Control_c, 0, 64, 70
2,150234, Control_c, 0, 64, 78
2,150253, Control_c, 0, 64, 87
2,150273, Control_c, 0, 64, 91
2,150286, Note_on_c, 0, 79, 74
2,150326, Note_on_c, 0, 75, 0
2,150388, Control_c, 0, 64, 91
2,150407, Control_c, 0, 64, 90
2,150426, Control_c, 0, 64, 88
2,150445, Control_c, 0, 64, 84
2,150465, Control_c, 0, 64, 77
2,150483, Control_c, 0, 64, 69
2,150483, Note_on_c, 0, 55, 41
2,150484, Note_on_c, 0, 77, 77
2,150499, Note_on_c, 0, 58, 48
2,150502, Control_c, 0, 64, 60
2,150522, Control_c, 0, 64, 47
2,150541, Control_c, 0, 64, 29
2,150560, Control_c, 0, 64, 28
2,150569, Note_on_c, 0, 79, 0
2,150579, Control_c, 0, 64, 35
2,150599, Control_c, 0, 64, 46
2,150617, Control_c, 0, 64, 55
2,150635, Note_on_c, 0, 55, 0
2,150637, Control_c, 0, 64, 61
2,150656, Control_c, 0, 64, 64
2,150656, Note_on_c, 0, 58, 0
2,150668, Note_on_c, 0, 75, 81
2,150676, Control_c, 0, 64, 67
2,150677, Note_on_c, 0, 56, 50
2,150694, Control_c, 0, 64, 71
2,150700, Note_on_c, 0, 60, 55
2,150700, Note_on_c, 0, 77, 0
2,150714, Control_c, 0, 64, 81
2,150733, Control_c, 0, 64, 96
2,150753, Control_c, 0, 64, 109
2,150770, Control_c, 0, 64, 115
2,150817, Note_on_c, 0, 56, 0
2,150848, Control_c, 0, 64, 114
2,150855, Note_on_c, 0, 60, 0
2,150868, Control_c, 0, 64, 107
2,150886, Note_on_c, 0, 74, 84
2,150887, Control_c, 0, 64, 94
2,150888, Note_on_c, 0, 75, 0
2,150906, Control_c, 0, 64, 78
2,150906, Note_on_c, 0, 58, 55
2,150912, Note_on_c, 0, 70, 0
2,150920, Note_on_c, 0, 62, 52
2,150925, Control_c, 0, 64, 64
2,150945, Control_c, 0, 64, 42
2,150963, Control_c, 0, 64, 0
2,151021, Control_c, 0, 64, 18
2,151040, Control_c, 0, 64, 47
2,151059, Control_c, 0, 64, 62
2,151079, Control_c, 0, 64, 66
2,151097, Control_c, 0, 64, 70
2,151097, Note_on_c, 0, 60, 58
2,151108, Note_on_c, 0, 68, 71
2,151113, Note_on_c, 0, 62, 0
2,151117, Control_c, 0, 64, 78
2,151126, Note_on_c, 0, 58, 0
2,151134, Note_on_c, 0, 60, 0
2,151136, Control_c, 0, 64, 94
2,151156, Control_c, 0, 64, 127
2,151271, Control_c, 0, 64, 102
2,151290, Control_c, 0, 64, 78
2,151302, Note_on_c, 0, 58, 56
2,151308, Note_on_c, 0, 67, 67
2,151309, Control_c, 0, 64, 64
2,151318, Note_on_c, 0, 46, 51
2,151328, Control_c, 0, 64, 19
2,151348, Control_c, 0, 64, 0
2,151360, Note_on_c, 0, 68, 0
2,151405, Control_c, 0, 64, 39
2,151425, Control_c, 0, 64, 55
2,151437, Note_on_c, 0, 58, 0
2,151443, Control_c, 0, 64, 62
2,151462, Control_c, 0, 64, 64
2,151482, Control_c, 0, 64, 65
2,151483, Note_on_c, 0, 67, 0
2,151488, Note_on_c, 0, 46, 0
2,151499, Note_on_c, 0, 65, 63
2,151501, Control_c, 0, 64, 66
2,151517, Note_on_c, 0, 56, 60
2,151520, Control_c, 0, 64, 68
2,151539, Control_c, 0, 64, 71
2,151559, Control_c, 0, 64, 76
2,151577, Control_c, 0, 64, 80
2,151616, Control_c, 0, 64, 77
2,151636, Control_c, 0, 64, 73
2,151654, Control_c, 0, 64, 69
2,151674, Control_c, 0, 64, 67
2,151693, Control_c, 0, 64, 65
2,151712, Note_on_c, 0, 65, 0
2,151713, Control_c, 0, 64, 65
2,151727, Note_on_c, 0, 74, 0
2,151730, Control_c, 0, 64, 64
2,151730, Note_on_c, 0, 63, 63
2,151737, Note_on_c, 0, 56, 0
2,151743, Note_on_c, 0, 55, 53
2,151748, Note_on_c, 0, 48, 46
2,151750, Control_c, 0, 64, 63
2,151771, Control_c, 0, 64, 61
2,151790, Control_c, 0, 64, 59
2,151809, Control_c, 0, 64, 52
2,151829, Control_c, 0, 64, 22
2,151848, Control_c, 0, 64, 0
2,151923, Note_on_c, 0, 63, 0
2,151924, Note_on_c, 0, 62, 62
2,152129, Note_on_c, 0, 62, 0
2,152131, Note_on_c, 0, 67, 65
2,152146, Note_on_c, 0, 60, 56
2,152270, Control_c, 0, 64, 23
2,152289, Control_c, 0, 64, 55
2,152303, Note_on_c, 0, 67, 0
2,152309, Control_c, 0, 64, 64
2,152325, Note_on_c, 0, 60, 0
2,152328, Control_c, 0, 64, 66
2,152332, Note_on_c, 0, 62, 57
2,152347, Control_c, 0, 64, 69
2,152366, Control_c, 0, 64, 74
2,152386, Control_c, 0, 64, 81
2,152404, Control_c, 0, 64, 86
2,152423, Control_c, 0, 64, 88
2,152462, Control_c, 0, 64, 87
2,152462, Note_on_c, 0, 48, 0
2,152481, Control_c, 0, 64, 87
2,152500, Control_c, 0, 64, 86
2,152520, Control_c, 0, 64, 85
2,152538, Control_c, 0, 64, 81
2,152558, Control_c, 0, 64, 74
2,152576, Note_on_c, 0, 62, 0
2,152577, Control_c, 0, 64, 65
2,152591, Note_on_c, 0, 72, 64
2,152597, Control_c, 0, 64, 56
2,152615, Control_c, 0, 64, 41
2,152623, Note_on_c, 0, 63, 43
2,152635, Control_c, 0, 64, 17
2,152654, Control_c, 0, 64, 9
2,152673, Control_c, 0, 64, 19
2,152692, Control_c, 0, 64, 34
2,152712, Control_c, 0, 64, 49
2,152730, Control_c, 0, 64, 57
2,152749, Control_c, 0, 64, 60
2,152768, Control_c, 0, 64, 62
2,152788, Control_c, 0, 64, 64
2,152807, Control_c, 0, 64, 67
2,152817, Note_on_c, 0, 63, 0
2,152826, Control_c, 0, 64, 70
2,152845, Control_c, 0, 64, 74
2,152865, Control_c, 0, 64, 76
2,152883, Control_c, 0, 64, 77
2,152922, Control_c, 0, 64, 76
2,152941, Control_c, 0, 64, 76
2,152960, Control_c, 0, 64, 74
2,152979, Control_c, 0, 64, 71
2,152999, Control_c, 0, 64, 67
2,153017, Control_c, 0, 64, 62
2,153021, Note_on_c, 0, 63, 57
2,153030, Note_on_c, 0, 48, 44
2,153037, Control_c, 0, 64, 56
2,153056, Control_c, 0, 64, 45
2,153076, Control_c, 0, 64, 27
2,153094, Control_c, 0, 64, 0
2,153146, Note_on_c, 0, 48, 0
2,153198, Note_on_c, 0, 63, 0
2,153213, Note_on_c, 0, 50, 46
2,153220, Note_on_c, 0, 65, 57
2,153381, Note_on_c, 0, 50, 0
2,153420, Note_on_c, 0, 67, 59
2,153425, Note_on_c, 0, 51, 47
2,153429, Note_on_c, 0, 65, 0
2,153447, Note_on_c, 0, 55, 0
2,153479, Control_c, 0, 64, 20
2,153497, Control_c, 0, 64, 47
2,153517, Control_c, 0, 64, 60
2,153528, Note_on_c, 0, 51, 0
2,153536, Control_c, 0, 64, 65
2,153556, Control_c, 0, 64, 67
2,153574, Control_c, 0, 64, 70
2,153594, Control_c, 0, 64, 76
2,153612, Note_on_c, 0, 72, 0
2,153613, Control_c, 0, 64, 84
2,153619, Note_on_c, 0, 75, 71
2,153633, Control_c, 0, 64, 91
2,153651, Control_c, 0, 64, 94
2,153671, Control_c, 0, 64, 95
2,153728, Control_c, 0, 64, 94
2,153748, Control_c, 0, 64, 93
2,153764, Note_on_c, 0, 75, 0
2,153767, Control_c, 0, 64, 90
2,153786, Control_c, 0, 64, 83
2,153805, Control_c, 0, 64, 72
2,153825, Control_c, 0, 64, 64
2,153826, Note_on_c, 0, 51, 50
2,153841, Note_on_c, 0, 55, 46
2,153843, Control_c, 0, 64, 55
2,153845, Note_on_c, 0, 74, 63
2,153862, Control_c, 0, 64, 36
2,153882, Control_c, 0, 64, 23
2,153901, Control_c, 0, 64, 34
2,153920, Control_c, 0, 64, 47
2,153939, Control_c, 0, 64, 56
2,153959, Control_c, 0, 64, 58
2,153977, Control_c, 0, 64, 61
2,153997, Control_c, 0, 64, 62
2,154016, Control_c, 0, 64, 64
2,154025, Note_on_c, 0, 51, 0
2,154029, Note_on_c, 0, 72, 81
2,154036, Control_c, 0, 64, 66
2,154036, Note_on_c, 0, 56, 65
2,154044, Note_on_c, 0, 55, 0
2,154050, Note_on_c, 0, 53, 50
2,154054, Control_c, 0, 64, 68
2,154074, Control_c, 0, 64, 70
2,154082, Note_on_c, 0, 74, 0
2,154093, Control_c, 0, 64, 71
2,154113, Control_c, 0, 64, 70
2,154131, Control_c, 0, 64, 68
2,154151, Control_c, 0, 64, 65
2,154170, Control_c, 0, 64, 60
2,154189, Control_c, 0, 64, 49
2,154190, Note_on_c, 0, 53, 0
2,154197, Note_on_c, 0, 56, 0
2,154208, Control_c, 0, 64, 0
2,154232, Note_on_c, 0, 70, 80
2,154233, Note_on_c, 0, 55, 53
2,154233, Note_on_c, 0, 58, 66
2,154256, Note_on_c, 0, 72, 0
2,154304, Control_c, 0, 64, 36
2,154323, Control_c, 0, 64, 54
2,154342, Control_c, 0, 64, 62
2,154362, Control_c, 0, 64, 65
2,154381, Control_c, 0, 64, 68
2,154381, Note_on_c, 0, 58, 0
2,154400, Control_c, 0, 64, 72
2,154409, Note_on_c, 0, 67, 0
2,154412, Note_on_c, 0, 55, 0
2,154419, Control_c, 0, 64, 80
2,154432, Note_on_c, 0, 56, 70
2,154432, Note_on_c, 0, 65, 66
2,154439, Control_c, 0, 64, 89
2,154457, Control_c, 0, 64, 95
2,154476, Note_on_c, 0, 56, 0
2,154477, Control_c, 0, 64, 96
2,154554, Control_c, 0, 64, 96
2,154573, Control_c, 0, 64, 93
2,154593, Control_c, 0, 64, 86
2,154604, Control_c, 0, 64, 75
2,154622, Control_c, 0, 64, 64
2,154646, Note_on_c, 0, 63, 72
2,154649, Control_c, 0, 64, 50
2,154652, Note_on_c, 0, 43, 62
2,154659, Note_on_c, 0, 55, 53
2,154668, Control_c, 0, 64, 0
2,154698, Note_on_c, 0, 65, 0
2,154726, Control_c, 0, 64, 29
2,154744, Control_c, 0, 64, 48
2,154761, Note_on_c, 0, 55, 0
2,154764, Control_c, 0, 64, 60
2,154783, Control_c, 0, 64, 64
2,154796, Note_on_c, 0, 70, 0
2,154803, Control_c, 0, 64, 66
2,154821, Control_c, 0, 64, 71
2,154841, Control_c, 0, 64, 78
2,154841, Note_on_c, 0, 43, 0
2,154843, Note_on_c, 0, 61, 74
2,154860, Control_c, 0, 64, 88
2,154879, Control_c, 0, 64, 96
2,154881, Note_on_c, 0, 53, 44
2,154898, Control_c, 0, 64, 98
2,154920, Note_on_c, 0, 53, 0
2,154922, Note_on_c, 0, 63, 0
2,154937, Control_c, 0, 64, 98
2,154956, Control_c, 0, 64, 97
2,154975, Control_c, 0, 64, 96
2,154995, Control_c, 0, 64, 94
2,155013, Control_c, 0, 64, 91
2,155033, Control_c, 0, 64, 86
2,155052, Control_c, 0, 64, 80
2,155072, Control_c, 0, 64, 73
2,155079, Note_on_c, 0, 60, 67
2,155088, Note_on_c, 0, 44, 52
2,155088, Note_on_c, 0, 61, 0
2,155090, Control_c, 0, 64, 68
2,155103, Note_on_c, 0, 51, 46
2,155110, Control_c, 0, 64, 64
2,155129, Control_c, 0, 64, 60
2,155148, Control_c, 0, 64, 54
2,155167, Control_c, 0, 64, 50
2,155187, Control_c, 0, 64, 48
2,155206, Control_c, 0, 64, 47
2,155224, Control_c, 0, 64, 46
2,155244, Control_c, 0, 64, 44
2,155263, Control_c, 0, 64, 42
2,155283, Control_c, 0, 64, 41
2,155289, Note_on_c, 0, 60, 0
2,155296, Note_on_c, 0, 58, 66
2,155301, Control_c, 0, 64, 39
2,155321, Control_c, 0, 64, 38
2,155340, Control_c, 0, 64, 38
2,155489, Note_on_c, 0, 58, 0
2,155491, Note_on_c, 0, 63, 73
2,155493, Control_c, 0, 64, 36
2,155513, Control_c, 0, 64, 28
2,155514, Note_on_c, 0, 56, 55
2,155532, Control_c, 0, 64, 0
2,155639, Note_on_c, 0, 56, 0
2,155706, Note_on_c, 0, 58, 58
2,155763, Control_c, 0, 64, 20
2,155781, Control_c, 0, 64, 38
2,155801, Control_c, 0, 64, 49
2,155820, Control_c, 0, 64, 54
2,155839, Control_c, 0, 64, 55
2,155858, Control_c, 0, 64, 55
2,155878, Control_c, 0, 64, 50
2,155886, Note_on_c, 0, 58, 0
2,155897, Control_c, 0, 64, 40
2,155915, Note_on_c, 0, 63, 0
2,155916, Control_c, 0, 64, 22
2,155919, Note_on_c, 0, 68, 68
2,155935, Control_c, 0, 64, 0
2,155954, Note_on_c, 0, 60, 40
2,155993, Control_c, 0, 64, 27
2,156012, Control_c, 0, 64, 50
2,156032, Control_c, 0, 64, 59
2,156050, Control_c, 0, 64, 62
2,156068, Note_on_c, 0, 44, 0
2,156070, Control_c, 0, 64, 64
2,156089, Control_c, 0, 64, 67
2,156108, Control_c, 0, 64, 72
2,156127, Control_c, 0, 64, 80
2,156147, Control_c, 0, 64, 91
2,156166, Control_c, 0, 64, 96
2,156202, Note_on_c, 0, 60, 0
2,156243, Control_c, 0, 64, 95
2,156261, Control_c, 0, 64, 94
2,156281, Control_c, 0, 64, 92
2,156300, Control_c, 0, 64, 88
2,156319, Control_c, 0, 64, 84
2,156338, Control_c, 0, 64, 79
2,156354, Note_on_c, 0, 44, 57
2,156358, Control_c, 0, 64, 74
2,156365, Note_on_c, 0, 60, 58
2,156377, Control_c, 0, 64, 69
2,156396, Control_c, 0, 64, 66
2,156415, Control_c, 0, 64, 63
2,156435, Control_c, 0, 64, 62
2,156453, Control_c, 0, 64, 61
2,156473, Control_c, 0, 64, 59
2,156492, Control_c, 0, 64, 57
2,156509, Note_on_c, 0, 60, 0
2,156512, Control_c, 0, 64, 55
2,156518, Note_on_c, 0, 51, 0
2,156530, Control_c, 0, 64, 52
2,156544, Note_on_c, 0, 62, 59
2,156549, Note_on_c, 0, 46, 51
2,156550, Control_c, 0, 64, 48
2,156570, Control_c, 0, 64, 44
2,156589, Control_c, 0, 64, 39
2,156608, Control_c, 0, 64, 34
2,156628, Control_c, 0, 64, 26
2,156647, Control_c, 0, 64, 0
2,156693, Note_on_c, 0, 44, 0
2,156722, Note_on_c, 0, 62, 0
2,156762, Note_on_c, 0, 63, 64
2,156768, Note_on_c, 0, 48, 52
2,156778, Note_on_c, 0, 46, 0
2,156819, Control_c, 0, 64, 18
2,156839, Control_c, 0, 64, 45
2,156857, Control_c, 0, 64, 56
2,156867, Note_on_c, 0, 48, 0
2,156877, Control_c, 0, 64, 60
2,156896, Control_c, 0, 64, 62
2,156916, Control_c, 0, 64, 64
2,156934, Control_c, 0, 64, 65
2,156954, Control_c, 0, 64, 66
2,156959, Note_on_c, 0, 72, 66
2,156971, Note_on_c, 0, 68, 0
2,156973, Control_c, 0, 64, 66
2,157011, Control_c, 0, 64, 66
2,157031, Control_c, 0, 64, 65
2,157050, Control_c, 0, 64, 65
2,157069, Control_c, 0, 64, 63
2,157088, Control_c, 0, 64, 60
2,157108, Control_c, 0, 64, 55
2,157127, Control_c, 0, 64, 46
2,157146, Control_c, 0, 64, 31
2,157165, Control_c, 0, 64, 21
2,157167, Note_on_c, 0, 70, 64
2,157170, Note_on_c, 0, 48, 46
2,157170, Note_on_c, 0, 51, 50
2,157184, Control_c, 0, 64, 25
2,157197, Note_on_c, 0, 72, 0
2,157203, Control_c, 0, 64, 36
2,157222, Control_c, 0, 64, 49
2,157242, Control_c, 0, 64, 58
2,157261, Control_c, 0, 64, 60
2,157280, Control_c, 0, 64, 63
2,157299, Control_c, 0, 64, 64
2,157314, Note_on_c, 0, 48, 0
2,157319, Control_c, 0, 64, 67
2,157337, Control_c, 0, 64, 72
2,157352, Note_on_c, 0, 51, 0
2,157357, Control_c, 0, 64, 79
2,157360, Note_on_c, 0, 50, 57
2,157360, Note_on_c, 0, 68, 73
2,157373, Note_on_c, 0, 53, 60
2,157376, Control_c, 0, 64, 87
2,157396, Control_c, 0, 64, 91
2,157400, Note_on_c, 0, 70, 0
2,157414, Control_c, 0, 64, 91
2,157429, Note_on_c, 0, 63, 0
2,157453, Control_c, 0, 64, 91
2,157457, Note_on_c, 0, 68, 0
2,157490, Control_c, 0, 64, 90
2,157510, Control_c, 0, 64, 87
2,157510, Note_on_c, 0, 53, 0
2,157514, Note_on_c, 0, 50, 0
2,157530, Control_c, 0, 64, 79
2,157549, Control_c, 0, 64, 69
2,157568, Control_c, 0, 64, 60
2,157571, Note_on_c, 0, 51, 48
2,157584, Note_on_c, 0, 67, 68
2,157587, Note_on_c, 0, 55, 54
2,157588, Control_c, 0, 64, 36
2,157607, Control_c, 0, 64, 0
2,157683, Control_c, 0, 64, 33
2,157702, Control_c, 0, 64, 54
2,157722, Control_c, 0, 64, 62
2,157741, Control_c, 0, 64, 64
2,157760, Control_c, 0, 64, 66
2,157763, Note_on_c, 0, 53, 60
2,157779, Control_c, 0, 64, 69
2,157781, Note_on_c, 0, 51, 0
2,157783, Note_on_c, 0, 55, 0
2,157787, Note_on_c, 0, 62, 62
2,157799, Control_c, 0, 64, 78
2,157803, Note_on_c, 0, 53, 0
2,157817, Control_c, 0, 64, 91
2,157837, Control_c, 0, 64, 101
2,157856, Control_c, 0, 64, 103
2,157894, Control_c, 0, 64, 103
2,157914, Control_c, 0, 64, 101
2,157933, Control_c, 0, 64, 93
2,157953, Control_c, 0, 64, 81
2,157969, Note_on_c, 0, 62, 0
2,157971, Control_c, 0, 64, 69
2,157986, Note_on_c, 0, 51, 55
2,157986, Note_on_c, 0, 60, 69
2,157991, Control_c, 0, 64, 60
2,158003, Note_on_c, 0, 39, 52
2,158010, Control_c, 0, 64, 40
2,158029, Control_c, 0, 64, 34
2,158048, Control_c, 0, 64, 46
2,158068, Control_c, 0, 64, 57
2,158087, Control_c, 0, 64, 61
2,158098, Note_on_c, 0, 51, 0
2,158106, Control_c, 0, 64, 63
2,158124, Note_on_c, 0, 67, 0
2,158125, Control_c, 0, 64, 66
2,158138, Note_on_c, 0, 39, 0
2,158144, Control_c, 0, 64, 69
2,158163, Control_c, 0, 64, 76
2,158181, Note_on_c, 0, 50, 57
2,158182, Control_c, 0, 64, 88
2,158188, Note_on_c, 0, 58, 66
2,158193, Note_on_c, 0, 60, 0
2,158202, Control_c, 0, 64, 108
2,158221, Control_c, 0, 64, 127
2,158284, Note_on_c, 0, 58, 0
2,158302, Note_on_c, 0, 50, 0
2,158317, Control_c, 0, 64, 123
2,158336, Control_c, 0, 64, 116
2,158356, Control_c, 0, 64, 99
2,158374, Control_c, 0, 64, 81
2,158388, Note_on_c, 0, 41, 59
2,158394, Control_c, 0, 64, 67
2,158405, Note_on_c, 0, 48, 61
2,158405, Note_on_c, 0, 56, 66
2,158413, Control_c, 0, 64, 51
2,158433, Control_c, 0, 64, 0
2,158488, Control_c, 0, 64, 17
2,158508, Control_c, 0, 64, 46
2,158526, Control_c, 0, 64, 60
2,158546, Control_c, 0, 64, 64
2,158554, Note_on_c, 0, 41, 0
2,158565, Control_c, 0, 64, 67
2,158583, Control_c, 0, 64, 70
2,158603, Control_c, 0, 64, 77
2,158608, Note_on_c, 0, 65, 71
2,158622, Control_c, 0, 64, 92
2,158642, Control_c, 0, 64, 113
2,158660, Control_c, 0, 64, 127
2,158667, Note_on_c, 0, 56, 0
2,158737, Note_on_c, 0, 48, 0
2,158776, Control_c, 0, 64, 112
2,158795, Control_c, 0, 64, 91
2,158808, Note_on_c, 0, 50, 78
2,158813, Note_on_c, 0, 68, 80
2,158814, Control_c, 0, 64, 72
2,158821, Note_on_c, 0, 47, 67
2,158823, Note_on_c, 0, 43, 64
2,158834, Control_c, 0, 64, 53
2,158846, Note_on_c, 0, 65, 0
2,158853, Control_c, 0, 64, 0
2,159006, Control_c, 0, 64, 50
2,159010, Note_on_c, 0, 51, 71
2,159011, Note_on_c, 0, 47, 0
2,159011, Note_on_c, 0, 67, 83
2,159026, Control_c, 0, 64, 66
2,159041, Note_on_c, 0, 50, 0
2,159043, Note_on_c, 0, 43, 0
2,159045, Control_c, 0, 64, 73
2,159063, Control_c, 0, 64, 84
2,159078, Note_on_c, 0, 68, 0
2,159083, Control_c, 0, 64, 102
2,159102, Control_c, 0, 64, 127
2,159127, Note_on_c, 0, 51, 0
2,159217, Control_c, 0, 64, 113
2,159217, Note_on_c, 0, 53, 84
2,159220, Note_on_c, 0, 65, 82
2,159226, Note_on_c, 0, 48, 63
2,159227, Note_on_c, 0, 44, 74
2,159237, Control_c, 0, 64, 80
2,159256, Control_c, 0, 64, 64
2,159275, Control_c, 0, 64, 0
2,159291, Note_on_c, 0, 67, 0
2,159333, Control_c, 0, 64, 9
2,159352, Control_c, 0, 64, 52
2,159371, Control_c, 0, 64, 64
2,159387, Note_on_c, 0, 44, 0
2,159388, Control_c, 0, 64, 72
2,159393, Note_on_c, 0, 48, 0
2,159395, Note_on_c, 0, 53, 0
2,159405, Control_c, 0, 64, 86
2,159411, Note_on_c, 0, 63, 89
2,159424, Control_c, 0, 64, 127
2,159490, Note_on_c, 0, 65, 0
2,159618, Note_on_c, 0, 45, 73
2,159619, Note_on_c, 0, 54, 87
2,159621, Note_on_c, 0, 62, 82
2,159629, Note_on_c, 0, 63, 0
2,159633, Control_c, 0, 64, 82
2,159652, Control_c, 0, 64, 61
2,159672, Control_c, 0, 64, 0
2,159767, Control_c, 0, 64, 48
2,159787, Control_c, 0, 64, 63
2,159806, Control_c, 0, 64, 70
2,159815, Note_on_c, 0, 45, 0
2,159825, Control_c, 0, 64, 82
2,159831, Note_on_c, 0, 60, 91
2,159844, Control_c, 0, 64, 119
2,159848, Note_on_c, 0, 54, 0
2,159864, Control_c, 0, 64, 127
2,159940, Note_on_c, 0, 62, 0
2,160132, Control_c, 0, 64, 106
2,160152, Control_c, 0, 64, 75
2,160152, Note_on_c, 0, 59, 90
2,160160, Note_on_c, 0, 43, 73
2,160160, Note_on_c, 0, 50, 71
2,160163, Note_on_c, 0, 55, 75
2,160170, Control_c, 0, 64, 51
2,160190, Control_c, 0, 64, 0
2,160201, Note_on_c, 0, 60, 0
2,160344, Control_c, 0, 64, 17
2,160360, Note_on_c, 0, 50, 0
2,160363, Control_c, 0, 64, 46
2,160363, Note_on_c, 0, 43, 0
2,160390, Control_c, 0, 64, 60
2,160409, Control_c, 0, 64, 66
2,160428, Control_c, 0, 64, 69
2,160442, Note_on_c, 0, 59, 0
2,160447, Control_c, 0, 64, 74
2,160467, Control_c, 0, 64, 82
2,160479, Note_on_c, 0, 55, 0
2,160485, Control_c, 0, 64, 93
2,160505, Control_c, 0, 64, 109
2,160524, Control_c, 0, 64, 127
2,160696, Note_on_c, 0, 55, 60
2,160906, Note_on_c, 0, 57, 64
2,160929, Note_on_c, 0, 55, 0
2,161100, Control_c, 0, 64, 97
2,161119, Control_c, 0, 64, 74
2,161130, Note_on_c, 0, 79, 92
2,161137, Note_on_c, 0, 57, 0
2,161139, Control_c, 0, 64, 58
2,161158, Control_c, 0, 64, 0
2,161160, Note_on_c, 0, 59, 61
2,161292, Control_c, 0, 64, 46
2,161311, Control_c, 0, 64, 61
2,161327, Control_c, 0, 64, 65
2,161348, Control_c, 0, 64, 68
2,161367, Control_c, 0, 64, 74
2,161386, Control_c, 0, 64, 83
2,161405, Control_c, 0, 64, 93
2,161421, Note_on_c, 0, 59, 0
2,161425, Control_c, 0, 64, 104
2,161444, Control_c, 0, 64, 113
2,161463, Control_c, 0, 64, 115
2,161482, Control_c, 0, 64, 116
2,161502, Control_c, 0, 64, 117
2,161540, Control_c, 0, 64, 116
2,161559, Control_c, 0, 64, 103
2,161579, Control_c, 0, 64, 86
2,161586, Note_on_c, 0, 57, 59
2,161597, Control_c, 0, 64, 71
2,161617, Control_c, 0, 64, 62
2,161636, Control_c, 0, 64, 61
2,161656, Control_c, 0, 64, 64
2,161674, Control_c, 0, 64, 66
2,161693, Control_c, 0, 64, 69
2,161713, Control_c, 0, 64, 73
2,161731, Control_c, 0, 64, 80
2,161751, Control_c, 0, 64, 89
2,161770, Control_c, 0, 64, 99
2,161789, Note_on_c, 0, 59, 69
2,161790, Control_c, 0, 64, 117
2,161805, Note_on_c, 0, 57, 0
2,161808, Control_c, 0, 64, 127
2,161970, Note_on_c, 0, 59, 0
2,161982, Control_c, 0, 64, 116
2,161997, Note_on_c, 0, 80, 88
2,162000, Control_c, 0, 64, 96
2,162009, Note_on_c, 0, 60, 58
2,162020, Control_c, 0, 64, 80
2,162030, Note_on_c, 0, 79, 0
2,162039, Control_c, 0, 64, 65
2,162059, Control_c, 0, 64, 0
2,162179, Note_on_c, 0, 60, 0
2,162202, Note_on_c, 0, 59, 61
2,162419, Note_on_c, 0, 72, 60
2,162420, Note_on_c, 0, 59, 0
2,162420, Note_on_c, 0, 60, 52
2,162592, Note_on_c, 0, 60, 0
2,162618, Note_on_c, 0, 62, 55
2,162857, Note_on_c, 0, 79, 83
2,162865, Note_on_c, 0, 63, 53
2,162877, Note_on_c, 0, 62, 0
2,162892, Note_on_c, 0, 80, 0
2,163094, Control_c, 0, 64, 18
2,163113, Control_c, 0, 64, 29
2,163132, Control_c, 0, 64, 37
2,163152, Control_c, 0, 64, 45
2,163170, Control_c, 0, 64, 50
2,163190, Control_c, 0, 64, 53
2,163209, Control_c, 0, 64, 56
2,163229, Control_c, 0, 64, 60
2,163246, Control_c, 0, 64, 64
2,163266, Control_c, 0, 64, 67
2,163285, Control_c, 0, 64, 72
2,163303, Note_on_c, 0, 70, 64
2,163305, Control_c, 0, 64, 82
2,163323, Control_c, 0, 64, 94
2,163343, Control_c, 0, 64, 110
2,163343, Note_on_c, 0, 72, 0
2,163359, Note_on_c, 0, 79, 0
2,163362, Control_c, 0, 64, 127
2,163522, Note_on_c, 0, 63, 0
2,163722, Note_on_c, 0, 70, 0
2,163726, Control_c, 0, 64, 116
2,163740, Note_on_c, 0, 78, 74
2,163746, Control_c, 0, 64, 102
2,163763, Note_on_c, 0, 69, 49
2,163765, Control_c, 0, 64, 92
2,163785, Control_c, 0, 64, 83
2,163803, Control_c, 0, 64, 76
2,163823, Control_c, 0, 64, 71
2,163842, Control_c, 0, 64, 66
2,163861, Control_c, 0, 64, 62
2,163880, Control_c, 0, 64, 59
2,163900, Control_c, 0, 64, 57
2,163919, Control_c, 0, 64, 56
2,163938, Control_c, 0, 64, 55
2,163949, Note_on_c, 0, 60, 51
2,163957, Control_c, 0, 64, 55
2,163977, Control_c, 0, 64, 54
2,163995, Control_c, 0, 64, 51
2,164014, Control_c, 0, 64, 48
2,164034, Control_c, 0, 64, 44
2,164053, Control_c, 0, 64, 41
2,164072, Control_c, 0, 64, 37
2,164091, Control_c, 0, 64, 35
2,164111, Control_c, 0, 64, 33
2,164130, Control_c, 0, 64, 32
2,164139, Note_on_c, 0, 70, 74
2,164143, Note_on_c, 0, 60, 0
2,164149, Control_c, 0, 64, 32
2,164149, Note_on_c, 0, 62, 55
2,164160, Note_on_c, 0, 69, 0
2,164188, Control_c, 0, 64, 31
2,164262, Note_on_c, 0, 78, 0
2,164265, Control_c, 0, 64, 32
2,164283, Control_c, 0, 64, 33
2,164303, Control_c, 0, 64, 35
2,164322, Control_c, 0, 64, 36
2,164329, Note_on_c, 0, 70, 0
2,164333, Note_on_c, 0, 72, 73
2,164341, Control_c, 0, 64, 36
2,164343, Note_on_c, 0, 63, 60
2,164360, Control_c, 0, 64, 37
2,164363, Note_on_c, 0, 62, 0
2,164380, Control_c, 0, 64, 38
2,164399, Control_c, 0, 64, 39
2,164418, Control_c, 0, 64, 39
2,164529, Note_on_c, 0, 63, 0
2,164533, Control_c, 0, 64, 36
2,164537, Note_on_c, 0, 72, 0
2,164552, Control_c, 0, 64, 20
2,164558, Note_on_c, 0, 83, 87
2,164563, Note_on_c, 0, 65, 46
2,164571, Control_c, 0, 64, 0
2,164574, Note_on_c, 0, 74, 62
2,164761, Note_on_c, 0, 72, 67
2,164783, Control_c, 0, 64, 22
2,164802, Control_c, 0, 64, 39
2,164821, Control_c, 0, 64, 49
2,164840, Control_c, 0, 64, 58
2,164860, Control_c, 0, 64, 63
2,164879, Control_c, 0, 64, 65
2,164898, Control_c, 0, 64, 68
2,164917, Control_c, 0, 64, 73
2,164937, Control_c, 0, 64, 83
2,164955, Control_c, 0, 64, 99
2,164970, Note_on_c, 0, 71, 63
2,164974, Control_c, 0, 64, 127
2,165090, Note_on_c, 0, 71, 0
2,165118, Note_on_c, 0, 74, 0
2,165153, Note_on_c, 0, 83, 0
2,165157, Note_on_c, 0, 69, 72
2,165186, Note_on_c, 0, 65, 0
2,165205, Note_on_c, 0, 69, 0
2,165381, Note_on_c, 0, 84, 94
2,165413, Note_on_c, 0, 67, 52
2,165418, Control_c, 0, 64, 87
2,165436, Control_c, 0, 64, 69
2,165456, Control_c, 0, 64, 51
2,165475, Control_c, 0, 64, 0
2,165583, Note_on_c, 0, 63, 59
2,165609, Control_c, 0, 64, 13
2,165629, Control_c, 0, 64, 48
2,165636, Note_on_c, 0, 67, 0
2,165647, Control_c, 0, 64, 61
2,165667, Control_c, 0, 64, 64
2,165678, Note_on_c, 0, 84, 0
2,165686, Control_c, 0, 64, 67
2,165691, Note_on_c, 0, 72, 0
2,165705, Control_c, 0, 64, 70
2,165724, Control_c, 0, 64, 77
2,165744, Control_c, 0, 64, 90
2,165763, Control_c, 0, 64, 110
2,165782, Control_c, 0, 64, 127
2,165809, Note_on_c, 0, 65, 61
2,165920, Note_on_c, 0, 63, 0
2,165997, Note_on_c, 0, 67, 69
2,166002, Note_on_c, 0, 65, 0
2,166038, Note_on_c, 0, 67, 0
2,166205, Note_on_c, 0, 77, 86
2,166212, Note_on_c, 0, 68, 60
2,166246, Control_c, 0, 64, 108
2,166264, Control_c, 0, 64, 92
2,166284, Control_c, 0, 64, 80
2,166303, Control_c, 0, 64, 71
2,166323, Control_c, 0, 64, 64
2,166341, Control_c, 0, 64, 57
2,166361, Control_c, 0, 64, 50
2,166380, Control_c, 0, 64, 46
2,166400, Note_on_c, 0, 55, 51
2,166418, Control_c, 0, 64, 45
2,166438, Control_c, 0, 64, 44
2,166457, Control_c, 0, 64, 43
2,166476, Control_c, 0, 64, 41
2,166495, Control_c, 0, 64, 39
2,166515, Control_c, 0, 64, 38
2,166533, Control_c, 0, 64, 37
2,166553, Control_c, 0, 64, 36
2,166623, Note_on_c, 0, 56, 62
2,166643, Note_on_c, 0, 55, 0
2,166822, Note_on_c, 0, 58, 62
2,166830, Note_on_c, 0, 77, 0
2,166855, Note_on_c, 0, 56, 0
2,166860, Control_c, 0, 64, 36
2,166879, Control_c, 0, 64, 37
2,166937, Control_c, 0, 64, 37
2,167018, Note_on_c, 0, 58, 0
2,167033, Control_c, 0, 64, 38
2,167033, Note_on_c, 0, 76, 76
2,167048, Note_on_c, 0, 68, 0
2,167052, Control_c, 0, 64, 38
2,167053, Note_on_c, 0, 60, 52
2,167247, Note_on_c, 0, 67, 49
2,167398, Control_c, 0, 64, 39
2,167409, Note_on_c, 0, 67, 0
2,167455, Control_c, 0, 64, 39
2,167458, Note_on_c, 0, 69, 58
2,167475, Control_c, 0, 64, 40
2,167493, Control_c, 0, 64, 41
2,167570, Control_c, 0, 64, 41
2,167609, Control_c, 0, 64, 42
2,167629, Note_on_c, 0, 69, 0
2,167647, Control_c, 0, 64, 43
2,167649, Note_on_c, 0, 71, 66
2,167666, Control_c, 0, 64, 43
2,167686, Control_c, 0, 64, 44
2,167704, Control_c, 0, 64, 44
2,167724, Control_c, 0, 64, 45
2,167763, Control_c, 0, 64, 45
2,167801, Control_c, 0, 64, 46
2,167824, Note_on_c, 0, 60, 0
2,167839, Control_c, 0, 64, 46
2,167858, Control_c, 0, 64, 47
2,167866, Note_on_c, 0, 71, 0
2,167866, Note_on_c, 0, 75, 75
2,167872, Note_on_c, 0, 72, 66
2,167878, Control_c, 0, 64, 47
2,167897, Control_c, 0, 64, 48
2,167911, Note_on_c, 0, 76, 0
2,167993, Control_c, 0, 64, 48
2,168061, Note_on_c, 0, 60, 43
2,168241, Control_c, 0, 64, 49
2,168275, Note_on_c, 0, 62, 54
2,168282, Note_on_c, 0, 60, 0
2,168336, Control_c, 0, 64, 49
2,168477, Note_on_c, 0, 63, 58
2,168492, Note_on_c, 0, 62, 0
2,168528, Control_c, 0, 64, 50
2,168650, Note_on_c, 0, 63, 0
2,168679, Note_on_c, 0, 72, 0
2,168681, Note_on_c, 0, 74, 68
2,168688, Note_on_c, 0, 65, 45
2,168715, Note_on_c, 0, 75, 0
2,168860, Note_on_c, 0, 65, 0
2,168887, Note_on_c, 0, 62, 50
2,169087, Note_on_c, 0, 63, 47
2,169087, Note_on_c, 0, 71, 60
2,169112, Note_on_c, 0, 62, 0
2,169124, Control_c, 0, 64, 50
2,169274, Note_on_c, 0, 65, 52
2,169280, Note_on_c, 0, 69, 65
2,169280, Note_on_c, 0, 71, 0
2,169330, Note_on_c, 0, 63, 0
2,169475, Note_on_c, 0, 65, 0
2,169479, Note_on_c, 0, 71, 70
2,169488, Control_c, 0, 64, 51
2,169490, Note_on_c, 0, 67, 54
2,169527, Control_c, 0, 64, 51
2,169541, Note_on_c, 0, 69, 0
2,169564, Note_on_c, 0, 74, 0
2,169683, Note_on_c, 0, 67, 0
2,169683, Note_on_c, 0, 72, 77
2,169697, Note_on_c, 0, 68, 66
2,169731, Note_on_c, 0, 71, 0
2,169870, Note_on_c, 0, 68, 0
2,169873, Control_c, 0, 64, 52
2,169886, Note_on_c, 0, 71, 65
2,169892, Note_on_c, 0, 67, 48
2,169950, Control_c, 0, 64, 52
2,169952, Note_on_c, 0, 72, 0
2,170066, Note_on_c, 0, 71, 0
2,170073, Note_on_c, 0, 67, 0
2,170080, Note_on_c, 0, 74, 63
2,170089, Note_on_c, 0, 65, 49
2,170200, Control_c, 0, 64, 52
2,170279, Note_on_c, 0, 65, 0
2,170298, Note_on_c, 0, 63, 57
2,170310, Note_on_c, 0, 67, 61
2,170331, Note_on_c, 0, 74, 0
2,170501, Note_on_c, 0, 65, 49
2,170503, Note_on_c, 0, 63, 0
2,170507, Control_c, 0, 64, 52
2,170703, Note_on_c, 0, 72, 65
2,170724, Note_on_c, 0, 63, 49
2,170724, Note_on_c, 0, 65, 0
2,170853, Control_c, 0, 64, 52
2,170891, Control_c, 0, 64, 51
2,170896, Note_on_c, 0, 63, 0
2,170913, Note_on_c, 0, 74, 64
2,170925, Note_on_c, 0, 62, 45
2,170934, Note_on_c, 0, 67, 0
2,170971, Note_on_c, 0, 72, 0
2,170987, Control_c, 0, 64, 51
2,171006, Control_c, 0, 64, 50
2,171045, Control_c, 0, 64, 50
2,171063, Control_c, 0, 64, 49
2,171102, Control_c, 0, 64, 49
2,171124, Note_on_c, 0, 62, 0
2,171160, Control_c, 0, 64, 49
2,171169, Note_on_c, 0, 75, 60
2,171179, Control_c, 0, 64, 50
2,171181, Note_on_c, 0, 60, 44
2,171198, Control_c, 0, 64, 53
2,171216, Note_on_c, 0, 74, 0
2,171217, Control_c, 0, 64, 57
2,171237, Control_c, 0, 64, 60
2,171256, Control_c, 0, 64, 63
2,171275, Control_c, 0, 64, 65
2,171294, Control_c, 0, 64, 68
2,171314, Control_c, 0, 64, 74
2,171333, Control_c, 0, 64, 83
2,171333, Note_on_c, 0, 60, 0
2,171352, Control_c, 0, 64, 93
2,171371, Control_c, 0, 64, 102
2,171391, Control_c, 0, 64, 115
2,171409, Control_c, 0, 64, 127
2,171620, Control_c, 0, 64, 107
2,171640, Control_c, 0, 64, 94
2,171642, Note_on_c, 0, 60, 54
2,171648, Note_on_c, 0, 67, 45
2,171659, Control_c, 0, 64, 83
2,171678, Control_c, 0, 64, 76
2,171697, Control_c, 0, 64, 70
2,171717, Control_c, 0, 64, 67
2,171736, Control_c, 0, 64, 65
2,171755, Control_c, 0, 64, 63
2,171774, Control_c, 0, 64, 61
2,171794, Control_c, 0, 64, 60
2,171813, Control_c, 0, 64, 59
2,171832, Control_c, 0, 64, 58
2,171841, Note_on_c, 0, 58, 63
2,171851, Control_c, 0, 64, 57
2,171865, Note_on_c, 0, 60, 0
2,171871, Control_c, 0, 64, 55
2,171889, Control_c, 0, 64, 52
2,171909, Control_c, 0, 64, 49
2,171928, Control_c, 0, 64, 45
2,171947, Control_c, 0, 64, 38
2,171966, Control_c, 0, 64, 19
2,171985, Control_c, 0, 64, 0
2,172011, Note_on_c, 0, 58, 0
2,172079, Note_on_c, 0, 57, 44
2,172085, Note_on_c, 0, 60, 50
2,172130, Note_on_c, 0, 67, 0
2,172197, Control_c, 0, 64, 39
2,172216, Control_c, 0, 64, 55
2,172235, Control_c, 0, 64, 63
2,172254, Control_c, 0, 64, 66
2,172256, Note_on_c, 0, 60, 0
2,172274, Control_c, 0, 64, 71
2,172283, Note_on_c, 0, 57, 0
2,172293, Control_c, 0, 64, 78
2,172312, Control_c, 0, 64, 91
2,172331, Control_c, 0, 64, 105
2,172351, Control_c, 0, 64, 123
2,172369, Control_c, 0, 64, 127
2,172465, Control_c, 0, 64, 123
2,172485, Control_c, 0, 64, 111
2,172503, Control_c, 0, 64, 100
2,172523, Control_c, 0, 64, 92
2,172529, Note_on_c, 0, 72, 60
2,172542, Control_c, 0, 64, 85
2,172544, Note_on_c, 0, 57, 47
2,172562, Control_c, 0, 64, 80
2,172580, Control_c, 0, 64, 75
2,172600, Control_c, 0, 64, 72
2,172619, Control_c, 0, 64, 70
2,172638, Control_c, 0, 64, 68
2,172657, Control_c, 0, 64, 66
2,172677, Control_c, 0, 64, 65
2,172696, Control_c, 0, 64, 64
2,172715, Control_c, 0, 64, 63
2,172716, Note_on_c, 0, 57, 0
2,172727, Note_on_c, 0, 55, 47
2,172729, Note_on_c, 0, 70, 59
2,172754, Control_c, 0, 64, 63
2,172767, Note_on_c, 0, 72, 0
2,172773, Control_c, 0, 64, 62
2,172792, Control_c, 0, 64, 61
2,172811, Control_c, 0, 64, 59
2,172831, Control_c, 0, 64, 56
2,172844, Control_c, 0, 64, 51
2,172862, Control_c, 0, 64, 41
2,172887, Control_c, 0, 64, 13
2,172893, Note_on_c, 0, 55, 0
2,172906, Control_c, 0, 64, 0
2,172928, Note_on_c, 0, 70, 0
2,172968, Note_on_c, 0, 53, 45
2,172968, Note_on_c, 0, 69, 53
2,173059, Control_c, 0, 64, 24
2,173079, Control_c, 0, 64, 45
2,173098, Control_c, 0, 64, 56
2,173118, Control_c, 0, 64, 61
2,173136, Control_c, 0, 64, 63
2,173156, Control_c, 0, 64, 64
2,173175, Control_c, 0, 64, 66
2,173194, Control_c, 0, 64, 68
2,173213, Control_c, 0, 64, 71
2,173233, Control_c, 0, 64, 74
2,173252, Control_c, 0, 64, 76
2,173271, Control_c, 0, 64, 76
2,173290, Control_c, 0, 64, 75
2,173310, Control_c, 0, 64, 74
2,173328, Control_c, 0, 64, 73
2,173347, Control_c, 0, 64, 72
2,173367, Control_c, 0, 64, 71
2,173386, Control_c, 0, 64, 70
2,173387, Note_on_c, 0, 70, 53
2,173394, Note_on_c, 0, 69, 0
2,173395, Note_on_c, 0, 55, 43
2,173405, Control_c, 0, 64, 68
2,173412, Note_on_c, 0, 53, 0
2,173424, Control_c, 0, 64, 66
2,173444, Control_c, 0, 64, 65
2,173463, Control_c, 0, 64, 64
2,173482, Control_c, 0, 64, 64
2,173501, Control_c, 0, 64, 63
2,173521, Control_c, 0, 64, 61
2,173539, Control_c, 0, 64, 57
2,173541, Note_on_c, 0, 70, 0
2,173559, Control_c, 0, 64, 50
2,173569, Note_on_c, 0, 72, 59
2,173578, Control_c, 0, 64, 41
2,173578, Note_on_c, 0, 55, 0
2,173581, Note_on_c, 0, 57, 50
2,173598, Control_c, 0, 64, 29
2,173611, Note_on_c, 0, 75, 0
2,173616, Control_c, 0, 64, 0
2,173802, Note_on_c, 0, 72, 0
2,173811, Note_on_c, 0, 57, 0
2,173824, Note_on_c, 0, 65, 58
2,173827, Note_on_c, 0, 58, 55
2,173884, Control_c, 0, 64, 42
2,173903, Control_c, 0, 64, 59
2,173923, Control_c, 0, 64, 65
2,173942, Control_c, 0, 64, 70
2,173958, Note_on_c, 0, 58, 0
2,173961, Control_c, 0, 64, 80
2,173980, Control_c, 0, 64, 95
2,174000, Control_c, 0, 64, 127
2,174009, Note_on_c, 0, 65, 0
2,174249, Control_c, 0, 64, 116
2,174253, Note_on_c, 0, 70, 65
2,174258, Note_on_c, 0, 74, 73
2,174259, Note_on_c, 0, 65, 51
2,174269, Control_c, 0, 64, 93
2,174288, Control_c, 0, 64, 78
2,174306, Control_c, 0, 64, 67
2,174326, Control_c, 0, 64, 61
2,174345, Control_c, 0, 64, 55
2,174364, Control_c, 0, 64, 56
2,174383, Control_c, 0, 64, 56
2,174445, Note_on_c, 0, 75, 84
2,174460, Control_c, 0, 64, 56
2,174463, Note_on_c, 0, 63, 54
2,174498, Control_c, 0, 64, 55
2,174518, Control_c, 0, 64, 55
2,174556, Note_on_c, 0, 65, 0
2,174575, Control_c, 0, 64, 54
2,174595, Control_c, 0, 64, 54
2,174614, Control_c, 0, 64, 53
2,174633, Control_c, 0, 64, 52
2,174652, Control_c, 0, 64, 51
2,174672, Control_c, 0, 64, 48
2,174691, Control_c, 0, 64, 41
2,174710, Control_c, 0, 64, 0
2,174732, Note_on_c, 0, 77, 80
2,174749, Note_on_c, 0, 62, 47
2,174770, Note_on_c, 0, 70, 0
2,174772, Note_on_c, 0, 63, 0
2,174783, Note_on_c, 0, 74, 0
2,174806, Note_on_c, 0, 75, 0
2,174903, Control_c, 0, 64, 39
2,174922, Control_c, 0, 64, 57
2,174941, Control_c, 0, 64, 64
2,174961, Control_c, 0, 64, 68
2,174979, Control_c, 0, 64, 74
2,174986, Note_on_c, 0, 62, 0
2,174999, Control_c, 0, 64, 84
2,175018, Control_c, 0, 64, 94
2,175038, Control_c, 0, 64, 102
2,175056, Control_c, 0, 64, 104
2,175095, Control_c, 0, 64, 102
2,175114, Control_c, 0, 64, 99
2,175133, Control_c, 0, 64, 91
2,175153, Control_c, 0, 64, 81
2,175172, Control_c, 0, 64, 71
2,175191, Control_c, 0, 64, 64
2,175193, Note_on_c, 0, 62, 40
2,175202, Note_on_c, 0, 68, 64
2,175210, Control_c, 0, 64, 54
2,175230, Control_c, 0, 64, 42
2,175248, Control_c, 0, 64, 43
2,175267, Control_c, 0, 64, 51
2,175287, Control_c, 0, 64, 56
2,175306, Control_c, 0, 64, 59
2,175325, Control_c, 0, 64, 62
2,175344, Control_c, 0, 64, 64
2,175364, Control_c, 0, 64, 66
2,175368, Note_on_c, 0, 68, 0
2,175383, Control_c, 0, 64, 68
2,175402, Control_c, 0, 64, 71
2,175403, Note_on_c, 0, 60, 56
2,175414, Note_on_c, 0, 62, 0
2,175421, Control_c, 0, 64, 73
2,175441, Control_c, 0, 64, 75
2,175459, Control_c, 0, 64, 74
2,175479, Control_c, 0, 64, 73
2,175498, Control_c, 0, 64, 72
2,175518, Control_c, 0, 64, 71
2,175536, Control_c, 0, 64, 71
2,175556, Control_c, 0, 64, 70
2,175575, Control_c, 0, 64, 68
2,175594, Control_c, 0, 64, 66
2,175612, Note_on_c, 0, 60, 0
2,175613, Control_c, 0, 64, 63
2,175633, Control_c, 0, 64, 59
2,175652, Control_c, 0, 64, 52
2,175652, Note_on_c, 0, 67, 48
2,175657, Note_on_c, 0, 59, 49
2,175671, Control_c, 0, 64, 29
2,175690, Control_c, 0, 64, 0
2,175786, Control_c, 0, 64, 22
2,175805, Control_c, 0, 64, 51
2,175824, Control_c, 0, 64, 61
2,175844, Control_c, 0, 64, 63
2,175849, Note_on_c, 0, 59, 0
2,175863, Control_c, 0, 64, 65
2,175882, Control_c, 0, 64, 67
2,175901, Control_c, 0, 64, 71
2,175921, Control_c, 0, 64, 78
2,175930, Note_on_c, 0, 67, 0
2,175939, Control_c, 0, 64, 84
2,175959, Control_c, 0, 64, 86
2,175998, Control_c, 0, 64, 85
2,176016, Control_c, 0, 64, 84
2,176036, Control_c, 0, 64, 82
2,176055, Control_c, 0, 64, 80
2,176065, Note_on_c, 0, 59, 49
2,176073, Note_on_c, 0, 74, 58
2,176074, Control_c, 0, 64, 78
2,176093, Control_c, 0, 64, 73
2,176113, Control_c, 0, 64, 68
2,176132, Control_c, 0, 64, 64
2,176151, Control_c, 0, 64, 61
2,176170, Control_c, 0, 64, 58
2,176190, Control_c, 0, 64, 55
2,176208, Control_c, 0, 64, 52
2,176227, Control_c, 0, 64, 44
2,176247, Control_c, 0, 64, 35
2,176265, Note_on_c, 0, 72, 64
2,176266, Control_c, 0, 64, 26
2,176270, Note_on_c, 0, 57, 52
2,176273, Note_on_c, 0, 59, 0
2,176285, Control_c, 0, 64, 22
2,176304, Control_c, 0, 64, 21
2,176324, Control_c, 0, 64, 20
2,176343, Control_c, 0, 64, 19
2,176350, Note_on_c, 0, 74, 0
2,176362, Control_c, 0, 64, 18
2,176381, Control_c, 0, 64, 17
2,176401, Control_c, 0, 64, 15
2,176419, Control_c, 0, 64, 13
2,176439, Control_c, 0, 64, 11
2,176458, Control_c, 0, 64, 0
2,176491, Note_on_c, 0, 57, 0
2,176510, Note_on_c, 0, 72, 0
2,176521, Note_on_c, 0, 71, 62
2,176550, Note_on_c, 0, 55, 49
2,176631, Control_c, 0, 64, 20
2,176650, Control_c, 0, 64, 45
2,176670, Control_c, 0, 64, 57
2,176688, Control_c, 0, 64, 62
2,176706, Control_c, 0, 64, 64
2,176727, Control_c, 0, 64, 66
2,176746, Control_c, 0, 64, 69
2,176765, Control_c, 0, 64, 74
2,176784, Control_c, 0, 64, 85
2,176804, Control_c, 0, 64, 97
2,176823, Control_c, 0, 64, 108
2,176842, Control_c, 0, 64, 112
2,176899, Control_c, 0, 64, 112
2,176919, Control_c, 0, 64, 106
2,176928, Note_on_c, 0, 57, 56
2,176938, Control_c, 0, 64, 98
2,176939, Note_on_c, 0, 71, 0
2,176939, Note_on_c, 0, 72, 65
2,176958, Control_c, 0, 64, 86
2,176959, Note_on_c, 0, 55, 0
2,176976, Control_c, 0, 64, 73
2,176996, Control_c, 0, 64, 63
2,177015, Control_c, 0, 64, 50
2,177034, Control_c, 0, 64, 22
2,177053, Control_c, 0, 64, 0
2,177092, Control_c, 0, 64, 20
2,177111, Control_c, 0, 64, 32
2,177126, Note_on_c, 0, 74, 63
2,177130, Control_c, 0, 64, 40
2,177141, Note_on_c, 0, 59, 64
2,177150, Control_c, 0, 64, 45
2,177155, Note_on_c, 0, 57, 0
2,177168, Control_c, 0, 64, 47
2,177178, Note_on_c, 0, 77, 0
2,177196, Note_on_c, 0, 72, 0
2,177226, Control_c, 0, 64, 46
2,177245, Control_c, 0, 64, 42
2,177264, Control_c, 0, 64, 34
2,177284, Control_c, 0, 64, 11
2,177303, Control_c, 0, 64, 0
2,177337, Note_on_c, 0, 59, 0
2,177338, Note_on_c, 0, 74, 0
2,177350, Note_on_c, 0, 67, 70
2,177367, Note_on_c, 0, 60, 61
2,177514, Control_c, 0, 64, 46
2,177533, Control_c, 0, 64, 61
2,177553, Control_c, 0, 64, 65
2,177561, Note_on_c, 0, 74, 80
2,177572, Control_c, 0, 64, 67
2,177591, Control_c, 0, 64, 69
2,177610, Control_c, 0, 64, 74
2,177630, Control_c, 0, 64, 82
2,177648, Control_c, 0, 64, 92
2,177667, Control_c, 0, 64, 102
2,177687, Control_c, 0, 64, 109
2,177744, Control_c, 0, 64, 107
2,177754, Note_on_c, 0, 76, 85
2,177764, Control_c, 0, 64, 102
2,177778, Note_on_c, 0, 58, 58
2,177783, Control_c, 0, 64, 96
2,177802, Control_c, 0, 64, 90
2,177813, Note_on_c, 0, 60, 0
2,177821, Control_c, 0, 64, 83
2,177841, Control_c, 0, 64, 78
2,177859, Control_c, 0, 64, 74
2,177879, Control_c, 0, 64, 70
2,177898, Control_c, 0, 64, 68
2,177918, Control_c, 0, 64, 66
2,177936, Control_c, 0, 64, 64
2,177952, Note_on_c, 0, 79, 90
2,177956, Control_c, 0, 64, 62
2,177965, Note_on_c, 0, 74, 0
2,177975, Control_c, 0, 64, 61
2,177975, Note_on_c, 0, 56, 64
2,177994, Control_c, 0, 64, 60
2,177999, Note_on_c, 0, 58, 0
2,178013, Control_c, 0, 64, 58
2,178033, Control_c, 0, 64, 56
2,178052, Control_c, 0, 64, 54
2,178071, Control_c, 0, 64, 49
2,178080, Note_on_c, 0, 76, 0
2,178090, Control_c, 0, 64, 39
2,178110, Control_c, 0, 64, 9
2,178128, Control_c, 0, 64, 0
2,178195, Note_on_c, 0, 79, 0
2,178205, Note_on_c, 0, 70, 79
2,178221, Note_on_c, 0, 56, 0
2,178238, Note_on_c, 0, 55, 59
2,178252, Note_on_c, 0, 67, 0
2,178321, Control_c, 0, 64, 31
2,178339, Control_c, 0, 64, 50
2,178359, Control_c, 0, 64, 60
2,178378, Control_c, 0, 64, 63
2,178398, Control_c, 0, 64, 65
2,178416, Control_c, 0, 64, 67
2,178436, Control_c, 0, 64, 69
2,178441, Note_on_c, 0, 55, 0
2,178455, Control_c, 0, 64, 74
2,178474, Control_c, 0, 64, 80
2,178493, Control_c, 0, 64, 86
2,178513, Control_c, 0, 64, 87
2,178532, Control_c, 0, 64, 86
2,178551, Control_c, 0, 64, 85
2,178570, Control_c, 0, 64, 82
2,178590, Control_c, 0, 64, 77
2,178608, Control_c, 0, 64, 71
2,178626, Control_c, 0, 64, 65
2,178647, Control_c, 0, 64, 60
2,178654, Note_on_c, 0, 61, 65
2,178666, Control_c, 0, 64, 53
2,178671, Note_on_c, 0, 55, 47
2,178685, Control_c, 0, 64, 46
2,178704, Control_c, 0, 64, 43
2,178724, Control_c, 0, 64, 45
2,178743, Control_c, 0, 64, 50
2,178762, Control_c, 0, 64, 55
2,178781, Control_c, 0, 64, 59
2,178801, Control_c, 0, 64, 62
2,178817, Note_on_c, 0, 61, 0
2,178819, Control_c, 0, 64, 64
2,178839, Control_c, 0, 64, 66
2,178858, Control_c, 0, 64, 68
2,178863, Note_on_c, 0, 55, 0
2,178866, Note_on_c, 0, 53, 53
2,178878, Control_c, 0, 64, 71
2,178896, Control_c, 0, 64, 75
2,178916, Control_c, 0, 64, 79
2,178935, Control_c, 0, 64, 81
2,178954, Control_c, 0, 64, 80
2,178973, Control_c, 0, 64, 80
2,178993, Control_c, 0, 64, 79
2,179012, Control_c, 0, 64, 79
2,179031, Control_c, 0, 64, 77
2,179050, Control_c, 0, 64, 74
2,179061, Note_on_c, 0, 53, 0
2,179070, Control_c, 0, 64, 69
2,179088, Control_c, 0, 64, 63
2,179107, Control_c, 0, 64, 40
2,179115, Note_on_c, 0, 52, 51
2,179115, Note_on_c, 0, 60, 57
2,179127, Control_c, 0, 64, 0
2,179281, Control_c, 0, 64, 27
2,179299, Control_c, 0, 64, 60
2,179319, Control_c, 0, 64, 69
2,179338, Control_c, 0, 64, 83
2,179358, Control_c, 0, 64, 127
2,179376, Note_on_c, 0, 52, 0
2,179523, Note_on_c, 0, 60, 0
2,179525, Note_on_c, 0, 67, 63
2,179544, Note_on_c, 0, 52, 56
2,179568, Control_c, 0, 64, 117
2,179588, Control_c, 0, 64, 101
2,179608, Control_c, 0, 64, 91
2,179627, Control_c, 0, 64, 84
2,179646, Control_c, 0, 64, 78
2,179665, Control_c, 0, 64, 73
2,179685, Control_c, 0, 64, 69
2,179701, Note_on_c, 0, 52, 0
2,179703, Control_c, 0, 64, 67
2,179718, Note_on_c, 0, 50, 51
2,179723, Control_c, 0, 64, 66
2,179726, Note_on_c, 0, 65, 63
2,179780, Control_c, 0, 64, 65
2,179792, Note_on_c, 0, 67, 0
2,179800, Control_c, 0, 64, 64
2,179819, Control_c, 0, 64, 63
2,179838, Control_c, 0, 64, 62
2,179857, Control_c, 0, 64, 60
2,179877, Control_c, 0, 64, 57
2,179896, Control_c, 0, 64, 49
2,179914, Note_on_c, 0, 50, 0
2,179915, Control_c, 0, 64, 11
2,179934, Control_c, 0, 64, 0
2,179956, Note_on_c, 0, 48, 45
2,179962, Note_on_c, 0, 65, 0
2,179968, Note_on_c, 0, 64, 61
2,180088, Control_c, 0, 64, 13
2,180107, Control_c, 0, 64, 48
2,180126, Control_c, 0, 64, 62
2,180145, Control_c, 0, 64, 66
2,180165, Control_c, 0, 64, 68
2,180183, Control_c, 0, 64, 71
2,180203, Control_c, 0, 64, 75
2,180222, Control_c, 0, 64, 82
2,180242, Control_c, 0, 64, 86
2,180260, Control_c, 0, 64, 88
2,180318, Control_c, 0, 64, 87
2,180337, Control_c, 0, 64, 86
2,180357, Control_c, 0, 64, 84
2,180372, Note_on_c, 0, 48, 0
2,180376, Control_c, 0, 64, 79
2,180395, Control_c, 0, 64, 72
2,180408, Note_on_c, 0, 65, 62
2,180413, Note_on_c, 0, 50, 51
2,180414, Control_c, 0, 64, 65
2,180434, Control_c, 0, 64, 58
2,180453, Control_c, 0, 64, 40
2,180472, Control_c, 0, 64, 0
2,180528, Control_c, 0, 64, 33
2,180531, Note_on_c, 0, 64, 0
2,180546, Control_c, 0, 64, 49
2,180568, Control_c, 0, 64, 58
2,180583, Note_on_c, 0, 50, 0
2,180587, Control_c, 0, 64, 61
2,180603, Note_on_c, 0, 52, 60
2,180603, Note_on_c, 0, 67, 67
2,180606, Control_c, 0, 64, 64
2,180613, Note_on_c, 0, 65, 0
2,180614, Note_on_c, 0, 70, 0
2,180625, Control_c, 0, 64, 67
2,180645, Control_c, 0, 64, 70
2,180663, Control_c, 0, 64, 76
2,180683, Control_c, 0, 64, 82
2,180702, Control_c, 0, 64, 86
2,180722, Control_c, 0, 64, 86
2,180760, Control_c, 0, 64, 85
2,180779, Control_c, 0, 64, 83
2,180798, Control_c, 0, 64, 76
2,180812, Note_on_c, 0, 67, 0
2,180816, Note_on_c, 0, 53, 71
2,180817, Control_c, 0, 64, 66
2,180820, Note_on_c, 0, 60, 72
2,180837, Control_c, 0, 64, 53
2,180838, Note_on_c, 0, 52, 0
2,180856, Control_c, 0, 64, 0
2,180952, Control_c, 0, 64, 27
2,180971, Control_c, 0, 64, 56
2,180991, Control_c, 0, 64, 65
2,181003, Note_on_c, 0, 55, 73
2,181007, Note_on_c, 0, 53, 0
2,181009, Control_c, 0, 64, 69
2,181028, Control_c, 0, 64, 76
2,181048, Control_c, 0, 64, 91
2,181067, Control_c, 0, 64, 113
2,181086, Control_c, 0, 64, 127
2,181218, Note_on_c, 0, 56, 76
2,181220, Control_c, 0, 64, 106
2,181224, Note_on_c, 0, 68, 83
2,181231, Note_on_c, 0, 65, 73
2,181240, Control_c, 0, 64, 78
2,181246, Note_on_c, 0, 55, 0
2,181257, Note_on_c, 0, 60, 0
2,181259, Control_c, 0, 64, 64
2,181278, Control_c, 0, 64, 38
2,181297, Control_c, 0, 64, 32
2,181317, Control_c, 0, 64, 57
2,181336, Control_c, 0, 64, 63
2,181355, Control_c, 0, 64, 66
2,181374, Control_c, 0, 64, 73
2,181394, Control_c, 0, 64, 90
2,181413, Control_c, 0, 64, 127
2,181422, Note_on_c, 0, 58, 74
2,181445, Note_on_c, 0, 56, 0
2,181644, Note_on_c, 0, 58, 0
2,181713, Note_on_c, 0, 48, 77
2,181713, Note_on_c, 0, 60, 79
2,181713, Note_on_c, 0, 67, 76
2,181719, Control_c, 0, 64, 93
2,181738, Control_c, 0, 64, 71
2,181758, Control_c, 0, 64, 57
2,181776, Control_c, 0, 64, 0
2,181779, Note_on_c, 0, 65, 0
2,181782, Note_on_c, 0, 68, 0
2,181990, Control_c, 0, 64, 11
2,182010, Control_c, 0, 64, 42
2,182029, Control_c, 0, 64, 54
2,182048, Control_c, 0, 64, 59
2,182067, Control_c, 0, 64, 61
2,182087, Control_c, 0, 64, 63
2,182106, Control_c, 0, 64, 65
2,182125, Control_c, 0, 64, 70
2,182144, Control_c, 0, 64, 82
2,182164, Control_c, 0, 64, 102
2,182182, Control_c, 0, 64, 127
2,182196, Note_on_c, 0, 64, 65
2,182253, Note_on_c, 0, 48, 0
2,182293, Note_on_c, 0, 60, 0
2,182673, Note_on_c, 0, 64, 0
2,182679, Note_on_c, 0, 49, 84
2,182690, Note_on_c, 0, 65, 64
2,182701, Control_c, 0, 64, 83
2,182720, Control_c, 0, 64, 67
2,182739, Control_c, 0, 64, 42
2,182758, Control_c, 0, 64, 0
2,182893, Control_c, 0, 64, 33
2,182899, Note_on_c, 0, 65, 0
2,182912, Control_c, 0, 64, 49
2,182926, Note_on_c, 0, 64, 62
2,182931, Control_c, 0, 64, 57
2,182933, Note_on_c, 0, 67, 0
2,182950, Control_c, 0, 64, 60
2,182970, Control_c, 0, 64, 61
2,182989, Control_c, 0, 64, 63
2,183008, Control_c, 0, 64, 66
2,183027, Control_c, 0, 64, 70
2,183047, Control_c, 0, 64, 78
2,183066, Control_c, 0, 64, 89
2,183085, Control_c, 0, 64, 100
2,183104, Control_c, 0, 64, 127
2,183130, Note_on_c, 0, 58, 66
2,183138, Note_on_c, 0, 65, 61
2,183200, Note_on_c, 0, 49, 0
2,183221, Note_on_c, 0, 64, 0
2,183340, Note_on_c, 0, 67, 63
2,183370, Note_on_c, 0, 65, 0
2,183527, Note_on_c, 0, 58, 0
2,183545, Control_c, 0, 64, 95
2,183546, Note_on_c, 0, 48, 79
2,183555, Note_on_c, 0, 68, 79
2,183564, Control_c, 0, 64, 73
2,183583, Control_c, 0, 64, 59
2,183602, Note_on_c, 0, 67, 0
2,183603, Control_c, 0, 64, 0
2,183749, Note_on_c, 0, 67, 70
2,183773, Note_on_c, 0, 68, 0
2,183814, Control_c, 0, 64, 29
2,183832, Control_c, 0, 64, 44
2,183852, Control_c, 0, 64, 54
2,183871, Control_c, 0, 64, 59
2,183891, Control_c, 0, 64, 62
2,183909, Control_c, 0, 64, 63
2,183929, Control_c, 0, 64, 66
2,183948, Control_c, 0, 64, 70
2,183957, Note_on_c, 0, 65, 63
2,183967, Control_c, 0, 64, 80
2,183969, Note_on_c, 0, 56, 57
2,183986, Control_c, 0, 64, 98
2,184006, Control_c, 0, 64, 127
2,184022, Note_on_c, 0, 48, 0
2,184102, Note_on_c, 0, 65, 0
2,184140, Note_on_c, 0, 63, 68
2,184142, Note_on_c, 0, 56, 0
2,184351, Control_c, 0, 64, 113
2,184363, Note_on_c, 0, 63, 0
2,184371, Control_c, 0, 64, 87
2,184383, Note_on_c, 0, 47, 80
2,184390, Control_c, 0, 64, 70
2,184392, Note_on_c, 0, 62, 67
2,184410, Control_c, 0, 64, 51
2,184429, Control_c, 0, 64, 0
2,184487, Note_on_c, 0, 67, 0
2,184601, Note_on_c, 0, 65, 64
2,184755, Control_c, 0, 64, 37
2,184775, Control_c, 0, 64, 52
2,184793, Control_c, 0, 64, 58
2,184813, Control_c, 0, 64, 60
2,184815, Note_on_c, 0, 67, 67
2,184827, Note_on_c, 0, 55, 57
2,184832, Control_c, 0, 64, 63
2,184851, Control_c, 0, 64, 66
2,184870, Control_c, 0, 64, 72
2,184889, Note_on_c, 0, 62, 0
2,184890, Control_c, 0, 64, 85
2,184909, Control_c, 0, 64, 99
2,184928, Control_c, 0, 64, 118
2,184947, Control_c, 0, 64, 127
2,184948, Note_on_c, 0, 65, 0
2,184971, Note_on_c, 0, 55, 0
2,184998, Note_on_c, 0, 68, 76
2,185014, Note_on_c, 0, 53, 67
2,185016, Note_on_c, 0, 47, 0
2,185038, Note_on_c, 0, 67, 0
2,185077, Note_on_c, 0, 53, 0
2,185178, Control_c, 0, 64, 82
2,185196, Control_c, 0, 64, 65
2,185216, Control_c, 0, 64, 20
2,185218, Note_on_c, 0, 70, 85
2,185225, Note_on_c, 0, 52, 74
2,185235, Control_c, 0, 64, 0
2,185238, Note_on_c, 0, 68, 0
2,185243, Note_on_c, 0, 55, 69
2,185331, Control_c, 0, 64, 28
2,185350, Control_c, 0, 64, 51
2,185371, Control_c, 0, 64, 61
2,185390, Control_c, 0, 64, 63
2,185398, Note_on_c, 0, 55, 0
2,185409, Control_c, 0, 64, 64
2,185428, Control_c, 0, 64, 64
2,185430, Note_on_c, 0, 58, 68
2,185448, Control_c, 0, 64, 65
2,185466, Control_c, 0, 64, 66
2,185486, Control_c, 0, 64, 66
2,185525, Control_c, 0, 64, 66
2,185543, Control_c, 0, 64, 64
2,185563, Control_c, 0, 64, 59
2,185582, Control_c, 0, 64, 48
2,185600, Control_c, 0, 64, 29
2,185615, Note_on_c, 0, 58, 0
2,185620, Control_c, 0, 64, 13
2,185639, Control_c, 0, 64, 21
2,185639, Note_on_c, 0, 61, 69
2,185641, Note_on_c, 0, 56, 65
2,185659, Control_c, 0, 64, 33
2,185677, Control_c, 0, 64, 45
2,185697, Control_c, 0, 64, 53
2,185716, Control_c, 0, 64, 57
2,185736, Control_c, 0, 64, 59
2,185754, Control_c, 0, 64, 61
2,185774, Control_c, 0, 64, 62
2,185838, Note_on_c, 0, 55, 64
2,185886, Note_on_c, 0, 56, 0
2,185908, Control_c, 0, 64, 61
2,185928, Control_c, 0, 64, 60
2,185946, Control_c, 0, 64, 57
2,185966, Control_c, 0, 64, 51
2,185985, Control_c, 0, 64, 39
2,186005, Control_c, 0, 64, 0
2,186029, Note_on_c, 0, 55, 0
2,186038, Note_on_c, 0, 52, 0
2,186067, Note_on_c, 0, 53, 73
2,186171, Note_on_c, 0, 61, 0
2,186231, Note_on_c, 0, 70, 0
2,186253, Note_on_c, 0, 68, 71
2,186441, Note_on_c, 0, 70, 78
2,186447, Note_on_c, 0, 55, 61
2,186450, Note_on_c, 0, 60, 69
2,186520, Control_c, 0, 64, 24
2,186540, Control_c, 0, 64, 54
2,186559, Control_c, 0, 64, 64
2,186561, Note_on_c, 0, 60, 0
2,186578, Control_c, 0, 64, 70
2,186597, Control_c, 0, 64, 81
2,186617, Control_c, 0, 64, 107
2,186636, Control_c, 0, 64, 127
2,186639, Note_on_c, 0, 55, 0
2,186645, Note_on_c, 0, 72, 84
2,186653, Note_on_c, 0, 56, 67
2,186656, Note_on_c, 0, 68, 0
2,186676, Note_on_c, 0, 53, 0
2,186694, Note_on_c, 0, 70, 0
2,186713, Note_on_c, 0, 56, 0
2,186866, Control_c, 0, 64, 88
2,186879, Note_on_c, 0, 73, 77
2,186886, Control_c, 0, 64, 70
2,186886, Note_on_c, 0, 58, 75
2,186893, Note_on_c, 0, 46, 66
2,186905, Control_c, 0, 64, 58
2,186907, Note_on_c, 0, 72, 0
2,186924, Control_c, 0, 64, 11
2,186943, Control_c, 0, 64, 0
2,186963, Control_c, 0, 64, 48
2,186981, Control_c, 0, 64, 59
2,187000, Control_c, 0, 64, 62
2,187020, Control_c, 0, 64, 64
2,187039, Control_c, 0, 64, 68
2,187048, Note_on_c, 0, 58, 0
2,187058, Control_c, 0, 64, 75
2,187077, Control_c, 0, 64, 88
2,187087, Note_on_c, 0, 53, 68
2,187097, Control_c, 0, 64, 111
2,187116, Control_c, 0, 64, 127
2,187231, Control_c, 0, 64, 116
2,187251, Control_c, 0, 64, 85
2,187269, Control_c, 0, 64, 68
2,187289, Control_c, 0, 64, 53
2,187292, Note_on_c, 0, 66, 76
2,187306, Note_on_c, 0, 51, 66
2,187308, Control_c, 0, 64, 33
2,187327, Control_c, 0, 64, 51
2,187339, Note_on_c, 0, 53, 0
2,187346, Control_c, 0, 64, 61
2,187366, Control_c, 0, 64, 65
2,187385, Control_c, 0, 64, 70
2,187404, Control_c, 0, 64, 81
2,187420, Note_on_c, 0, 46, 0
2,187423, Control_c, 0, 64, 115
2,187443, Control_c, 0, 64, 127
2,187472, Note_on_c, 0, 49, 79
2,187506, Note_on_c, 0, 73, 0
2,187514, Note_on_c, 0, 51, 0
2,187543, Note_on_c, 0, 66, 0
2,187578, Note_on_c, 0, 49, 0
2,187715, Note_on_c, 0, 48, 80
2,187716, Note_on_c, 0, 45, 71
2,187749, Control_c, 0, 64, 94
2,187769, Control_c, 0, 64, 76
2,187788, Control_c, 0, 64, 64
2,187807, Control_c, 0, 64, 44
2,187826, Control_c, 0, 64, 0
2,187911, Note_on_c, 0, 72, 84
2,188095, Control_c, 0, 64, 34
2,188114, Control_c, 0, 64, 52
2,188114, Note_on_c, 0, 74, 84
2,188120, Note_on_c, 0, 65, 73
2,188134, Control_c, 0, 64, 61
2,188141, Note_on_c, 0, 45, 0
2,188152, Control_c, 0, 64, 64
2,188172, Control_c, 0, 64, 67
2,188191, Control_c, 0, 64, 72
2,188210, Control_c, 0, 64, 86
2,188229, Control_c, 0, 64, 107
2,188250, Control_c, 0, 64, 127
2,188317, Note_on_c, 0, 76, 89
2,188358, Note_on_c, 0, 72, 0
2,188384, Note_on_c, 0, 74, 0
2,188439, Note_on_c, 0, 65, 0
2,188518, Control_c, 0, 64, 95
2,188536, Note_on_c, 0, 48, 0
2,188537, Note_on_c, 0, 44, 79
2,188537, Note_on_c, 0, 77, 86
2,188538, Control_c, 0, 64, 71
2,188556, Control_c, 0, 64, 51
2,188576, Control_c, 0, 64, 0
2,188585, Note_on_c, 0, 76, 0
2,188672, Control_c, 0, 64, 30
2,188691, Control_c, 0, 64, 51
2,188710, Control_c, 0, 64, 60
2,188730, Control_c, 0, 64, 63
2,188738, Note_on_c, 0, 50, 72
2,188744, Control_c, 0, 64, 64
2,188744, Note_on_c, 0, 65, 76
2,188762, Control_c, 0, 64, 65
2,188782, Control_c, 0, 64, 68
2,188801, Control_c, 0, 64, 74
2,188821, Control_c, 0, 64, 85
2,188839, Control_c, 0, 64, 99
2,188854, Note_on_c, 0, 65, 0
2,188858, Control_c, 0, 64, 127
2,188935, Control_c, 0, 64, 111
2,188953, Note_on_c, 0, 67, 82
2,188955, Control_c, 0, 64, 82
2,188965, Note_on_c, 0, 52, 74
2,188973, Control_c, 0, 64, 66
2,188974, Note_on_c, 0, 50, 0
2,188993, Control_c, 0, 64, 55
2,189012, Control_c, 0, 64, 57
2,189031, Control_c, 0, 64, 63
2,189050, Control_c, 0, 64, 66
2,189070, Control_c, 0, 64, 69
2,189089, Control_c, 0, 64, 76
2,189094, Note_on_c, 0, 44, 0
2,189108, Control_c, 0, 64, 92
2,189127, Control_c, 0, 64, 127
2,189161, Note_on_c, 0, 68, 90
2,189163, Note_on_c, 0, 53, 77
2,189178, Note_on_c, 0, 52, 0
2,189196, Note_on_c, 0, 67, 0
2,189210, Note_on_c, 0, 53, 0
2,189471, Note_on_c, 0, 70, 89
2,189474, Note_on_c, 0, 43, 80
2,189475, Note_on_c, 0, 55, 83
2,189489, Control_c, 0, 64, 97
2,189506, Note_on_c, 0, 68, 0
2,189509, Control_c, 0, 64, 74
2,189527, Control_c, 0, 64, 57
2,189547, Control_c, 0, 64, 0
2,189952, Note_on_c, 0, 76, 83
2,189960, Note_on_c, 0, 77, 0
2,189989, Control_c, 0, 64, 13
2,190007, Control_c, 0, 64, 17
2,190123, Control_c, 0, 64, 19
2,190141, Control_c, 0, 64, 21
2,190161, Note_on_c, 0, 74, 83
2,190164, Control_c, 0, 64, 23
2,190184, Control_c, 0, 64, 24
2,190231, Note_on_c, 0, 76, 0
2,190241, Control_c, 0, 64, 23
2,190261, Control_c, 0, 64, 19
2,190279, Control_c, 0, 64, 13
2,190298, Control_c, 0, 64, 0
2,190428, Note_on_c, 0, 76, 87
2,190452, Control_c, 0, 64, 11
2,190471, Control_c, 0, 64, 18
2,190480, Note_on_c, 0, 74, 0
2,190490, Control_c, 0, 64, 22
2,190510, Control_c, 0, 64, 28
2,190529, Control_c, 0, 64, 36
2,190548, Control_c, 0, 64, 42
2,190567, Control_c, 0, 64, 45
2,190587, Control_c, 0, 64, 48
2,190605, Control_c, 0, 64, 49
2,190625, Control_c, 0, 64, 51
2,190644, Control_c, 0, 64, 52
2,190664, Control_c, 0, 64, 54
2,190664, Note_on_c, 0, 45, 69
2,190682, Control_c, 0, 64, 56
2,190702, Control_c, 0, 64, 58
2,190702, Note_on_c, 0, 43, 0
2,190721, Control_c, 0, 64, 60
2,190741, Control_c, 0, 64, 62
2,190759, Control_c, 0, 64, 64
2,190778, Control_c, 0, 64, 66
2,190789, Note_on_c, 0, 55, 0
2,190798, Control_c, 0, 64, 73
2,190816, Control_c, 0, 64, 87
2,190836, Control_c, 0, 64, 127
2,190862, Note_on_c, 0, 46, 80
2,190884, Note_on_c, 0, 70, 0
2,190902, Note_on_c, 0, 45, 0
2,191071, Note_on_c, 0, 48, 84
2,191116, Note_on_c, 0, 46, 0
2,191354, Control_c, 0, 64, 110
2,191355, Note_on_c, 0, 77, 87
2,191360, Note_on_c, 0, 41, 71
2,191362, Note_on_c, 0, 49, 82
2,191372, Control_c, 0, 64, 83
2,191392, Control_c, 0, 64, 68
2,191395, Note_on_c, 0, 76, 0
2,191401, Note_on_c, 0, 48, 0
2,191411, Control_c, 0, 64, 54
2,191431, Control_c, 0, 64, 0
2,191614, Note_on_c, 0, 48, 62
2,191617, Note_on_c, 0, 73, 78
2,191675, Note_on_c, 0, 49, 0
2,191826, Note_on_c, 0, 49, 72
2,191829, Note_on_c, 0, 72, 84
2,191873, Note_on_c, 0, 48, 0
2,191937, Note_on_c, 0, 77, 0
2,192031, Note_on_c, 0, 70, 86
2,192043, Note_on_c, 0, 51, 64
2,192065, Note_on_c, 0, 49, 0
2,192084, Note_on_c, 0, 73, 0
2,192102, Note_on_c, 0, 72, 0
2,192228, Note_on_c, 0, 41, 0
2,192245, Note_on_c, 0, 51, 0
2,192248, Note_on_c, 0, 69, 79
2,192256, Note_on_c, 0, 53, 64
2,192322, Note_on_c, 0, 70, 0
2,192453, Note_on_c, 0, 75, 87
2,192454, Note_on_c, 0, 41, 65
2,192637, Control_c, 0, 64, 41
2,192657, Control_c, 0, 64, 59
2,192666, Note_on_c, 0, 73, 80
2,192675, Control_c, 0, 64, 64
2,192675, Note_on_c, 0, 43, 71
2,192695, Control_c, 0, 64, 68
2,192711, Note_on_c, 0, 41, 0
2,192714, Control_c, 0, 64, 75
2,192733, Control_c, 0, 64, 92
2,192752, Control_c, 0, 64, 127
2,192753, Note_on_c, 0, 75, 0
2,192807, Note_on_c, 0, 69, 0
2,192873, Note_on_c, 0, 72, 84
2,192877, Note_on_c, 0, 45, 66
2,192879, Note_on_c, 0, 53, 0
2,192909, Note_on_c, 0, 43, 0
2,192934, Note_on_c, 0, 45, 0
2,192976, Note_on_c, 0, 73, 0
2,192986, Note_on_c, 0, 72, 0
2,193113, Note_on_c, 0, 46, 66
2,193115, Note_on_c, 0, 73, 79
2,193118, Control_c, 0, 64, 103
2,193138, Control_c, 0, 64, 82
2,193156, Control_c, 0, 64, 70
2,193176, Control_c, 0, 64, 62
2,193195, Control_c, 0, 64, 48
2,193214, Control_c, 0, 64, 25
2,193233, Control_c, 0, 64, 17
2,193330, Control_c, 0, 64, 18
2,193333, Note_on_c, 0, 72, 81
2,193336, Note_on_c, 0, 53, 67
2,193348, Control_c, 0, 64, 19
2,193367, Control_c, 0, 64, 20
2,193387, Control_c, 0, 64, 21
2,193425, Control_c, 0, 64, 22
2,193444, Control_c, 0, 64, 23
2,193464, Control_c, 0, 64, 24
2,193482, Control_c, 0, 64, 25
2,193502, Control_c, 0, 64, 26
2,193521, Control_c, 0, 64, 27
2,193541, Control_c, 0, 64, 28
2,193546, Note_on_c, 0, 70, 86
2,193559, Control_c, 0, 64, 29
2,193560, Note_on_c, 0, 55, 65
2,193572, Note_on_c, 0, 53, 0
2,193579, Control_c, 0, 64, 29
2,193710, Note_on_c, 0, 72, 0
2,193713, Control_c, 0, 64, 30
2,193733, Control_c, 0, 64, 31
2,193740, Note_on_c, 0, 55, 0
2,193752, Control_c, 0, 64, 31
2,193761, Note_on_c, 0, 68, 80
2,193763, Note_on_c, 0, 56, 69
2,193872, Note_on_c, 0, 70, 0
2,193886, Control_c, 0, 64, 32
2,193924, Control_c, 0, 64, 32
2,193962, Control_c, 0, 64, 33
2,193979, Note_on_c, 0, 56, 0
2,193991, Note_on_c, 0, 67, 74
2,193993, Note_on_c, 0, 68, 0
2,193999, Note_on_c, 0, 58, 63
2,194216, Note_on_c, 0, 49, 63
2,194218, Note_on_c, 0, 70, 81
2,194219, Note_on_c, 0, 65, 60
2,194222, Note_on_c, 0, 46, 0
2,194228, Note_on_c, 0, 67, 0
2,194272, Control_c, 0, 64, 32
2,194272, Note_on_c, 0, 73, 0
2,194286, Note_on_c, 0, 65, 0
2,194292, Control_c, 0, 64, 31
2,194310, Control_c, 0, 64, 31
2,194367, Control_c, 0, 64, 30
2,194406, Control_c, 0, 64, 29
2,194440, Note_on_c, 0, 72, 86
2,194443, Note_on_c, 0, 48, 62
2,194461, Note_on_c, 0, 63, 71
2,194464, Control_c, 0, 64, 29
2,194477, Note_on_c, 0, 49, 0
2,194501, Note_on_c, 0, 70, 0
2,194541, Control_c, 0, 64, 30
2,194543, Note_on_c, 0, 63, 0
2,194560, Control_c, 0, 64, 34
2,194579, Control_c, 0, 64, 42
2,194598, Control_c, 0, 64, 51
2,194618, Control_c, 0, 64, 59
2,194637, Control_c, 0, 64, 63
2,194656, Control_c, 0, 64, 69
2,194675, Control_c, 0, 64, 80
2,194682, Note_on_c, 0, 48, 0
2,194682, Note_on_c, 0, 73, 83
2,194693, Note_on_c, 0, 46, 71
2,194695, Control_c, 0, 64, 107
2,194695, Note_on_c, 0, 61, 74
2,194713, Control_c, 0, 64, 127
2,194731, Note_on_c, 0, 72, 0
2,194794, Note_on_c, 0, 73, 0
2,194800, Note_on_c, 0, 46, 0
2,194831, Note_on_c, 0, 61, 0
2,194950, Note_on_c, 0, 64, 77
2,194960, Control_c, 0, 64, 104
2,194964, Note_on_c, 0, 60, 64
2,194977, Note_on_c, 0, 48, 67
2,194980, Control_c, 0, 64, 83
2,194997, Note_on_c, 0, 58, 0
2,194998, Control_c, 0, 64, 71
2,195018, Control_c, 0, 64, 63
2,195037, Control_c, 0, 64, 54
2,195057, Control_c, 0, 64, 41
2,195075, Control_c, 0, 64, 35
2,195133, Control_c, 0, 64, 35
2,195172, Control_c, 0, 64, 34
2,195196, Note_on_c, 0, 58, 69
2,195448, Note_on_c, 0, 72, 85
2,195485, Note_on_c, 0, 56, 59
2,195503, Note_on_c, 0, 58, 0
2,195613, Control_c, 0, 64, 35
2,195632, Control_c, 0, 64, 35
2,195641, Note_on_c, 0, 64, 0
2,195714, Note_on_c, 0, 55, 70
2,195735, Note_on_c, 0, 56, 0
2,196002, Note_on_c, 0, 56, 69
2,196017, Control_c, 0, 64, 35
2,196035, Control_c, 0, 64, 33
2,196055, Control_c, 0, 64, 32
2,196073, Note_on_c, 0, 55, 0
2,196074, Control_c, 0, 64, 31
2,196093, Control_c, 0, 64, 29
2,196112, Control_c, 0, 64, 27
2,196132, Control_c, 0, 64, 25
2,196151, Control_c, 0, 64, 18
2,196169, Control_c, 0, 64, 0
2,196273, Note_on_c, 0, 67, 66
2,196394, Note_on_c, 0, 72, 0
2,196596, Note_on_c, 0, 68, 76
2,196708, Note_on_c, 0, 67, 0
2,196823, Control_c, 0, 64, 26
2,196842, Control_c, 0, 64, 38
2,196861, Control_c, 0, 64, 49
2,196880, Control_c, 0, 64, 55
2,196900, Control_c, 0, 64, 59
2,196918, Control_c, 0, 64, 61
2,196926, Note_on_c, 0, 65, 62
2,196938, Control_c, 0, 64, 63
2,196957, Control_c, 0, 64, 65
2,196977, Control_c, 0, 64, 68
2,196995, Control_c, 0, 64, 74
2,197014, Note_on_c, 0, 56, 0
2,197015, Control_c, 0, 64, 83
2,197024, Note_on_c, 0, 68, 0
2,197034, Control_c, 0, 64, 95
2,197053, Control_c, 0, 64, 118
2,197072, Control_c, 0, 64, 127
2,197213, Note_on_c, 0, 65, 0
2,197263, Note_on_c, 0, 56, 50
2,197341, Control_c, 0, 67, 10
2,197360, Control_c, 0, 67, 16
2,197380, Control_c, 0, 67, 20
2,197381, Note_on_c, 0, 55, 55
2,197398, Control_c, 0, 64, 114
2,197398, Control_c, 0, 67, 24
2,197418, Control_c, 0, 64, 104
2,197418, Control_c, 0, 67, 27
2,197437, Control_c, 0, 64, 97
2,197437, Control_c, 0, 67, 30
2,197457, Control_c, 0, 64, 91
2,197457, Control_c, 0, 67, 34
2,197461, Note_on_c, 0, 56, 0
2,197475, Control_c, 0, 64, 85
2,197475, Control_c, 0, 67, 37
2,197495, Control_c, 0, 64, 79
2,197495, Control_c, 0, 67, 40
2,197514, Control_c, 0, 64, 75
2,197514, Control_c, 0, 67, 43
2,197514, Note_on_c, 0, 53, 54
2,197523, Note_on_c, 0, 55, 0
2,197533, Control_c, 0, 64, 73
2,197533, Control_c, 0, 67, 45
2,197533, Note_on_c, 0, 65, 70
2,197552, Control_c, 0, 64, 71
2,197552, Control_c, 0, 67, 46
2,197572, Control_c, 0, 64, 70
2,197572, Control_c, 0, 67, 47
2,197591, Control_c, 0, 64, 68
2,197609, Control_c, 0, 64, 67
2,197629, Control_c, 0, 64, 65
2,197648, Control_c, 0, 64, 64
2,197668, Control_c, 0, 64, 63
2,197681, Note_on_c, 0, 55, 64
2,197682, Note_on_c, 0, 53, 0
2,197686, Control_c, 0, 64, 63
2,197725, Control_c, 0, 64, 62
2,197725, Control_c, 0, 67, 46
2,197744, Control_c, 0, 64, 62
2,197783, Control_c, 0, 64, 61
2,197791, Note_on_c, 0, 55, 0
2,197799, Note_on_c, 0, 64, 72
2,197811, Note_on_c, 0, 56, 59
2,197822, Control_c, 0, 64, 60
2,197841, Control_c, 0, 64, 60
2,197861, Control_c, 0, 64, 59
2,197879, Control_c, 0, 64, 59
2,197899, Control_c, 0, 64, 58
2,197918, Control_c, 0, 64, 58
2,197922, Note_on_c, 0, 56, 0
2,197938, Control_c, 0, 64, 57
2,197940, Note_on_c, 0, 55, 61
2,197956, Control_c, 0, 64, 57
2,197956, Control_c, 0, 67, 47
2,197976, Control_c, 0, 64, 56
2,197995, Control_c, 0, 64, 56
2,198014, Control_c, 0, 64, 55
2,198017, Note_on_c, 0, 65, 0
2,198033, Control_c, 0, 64, 55
2,198047, Note_on_c, 0, 55, 0
2,198053, Control_c, 0, 64, 54
2,198065, Note_on_c, 0, 62, 75
2,198072, Control_c, 0, 64, 54
2,198075, Note_on_c, 0, 56, 64
2,198110, Control_c, 0, 64, 53
2,198129, Control_c, 0, 64, 53
2,198150, Note_on_c, 0, 64, 0
2,198167, Control_c, 0, 64, 52
2,198189, Note_on_c, 0, 56, 0
2,198208, Note_on_c, 0, 55, 62
2,198302, Control_c, 0, 64, 52
2,198371, Note_on_c, 0, 55, 0
2,198379, Note_on_c, 0, 56, 50
2,198393, Note_on_c, 0, 65, 66
2,198430, Note_on_c, 0, 62, 0
2,198496, Control_c, 0, 67, 46
2,198516, Control_c, 0, 64, 52
2,198569, Note_on_c, 0, 55, 55
2,198569, Note_on_c, 0, 56, 0
2,198573, Note_on_c, 0, 64, 73
2,198612, Control_c, 0, 64, 52
2,198631, Control_c, 0, 67, 46
2,198631, Note_on_c, 0, 65, 0
2,198755, Note_on_c, 0, 56, 54
2,198756, Note_on_c, 0, 65, 76
2,198765, Control_c, 0, 64, 51
2,198767, Note_on_c, 0, 55, 0
2,198796, Note_on_c, 0, 64, 0
2,198938, Note_on_c, 0, 64, 78
2,198946, Note_on_c, 0, 55, 56
2,198953, Note_on_c, 0, 56, 0
2,198994, Note_on_c, 0, 65, 0
2,199199, Note_on_c, 0, 65, 71
2,199210, Note_on_c, 0, 56, 55
2,199223, Note_on_c, 0, 55, 0
2,199285, Note_on_c, 0, 64, 0
2,199457, Note_on_c, 0, 64, 70
2,199469, Note_on_c, 0, 55, 46
2,199572, Note_on_c, 0, 56, 0
2,199685, Note_on_c, 0, 65, 0
2,199818, Note_on_c, 0, 62, 66
2,199826, Note_on_c, 0, 53, 42
2,199879, Note_on_c, 0, 55, 0
2,199916, Control_c, 0, 64, 51
2,199946, Note_on_c, 0, 64, 0
2,199954, Control_c, 0, 64, 50
2,200127, Control_c, 0, 64, 50
2,200349, Note_on_c, 0, 64, 68
2,200381, Note_on_c, 0, 55, 43
2,200420, Note_on_c, 0, 62, 0
2,200435, Note_on_c, 0, 53, 0
2,200511, Control_c, 0, 67, 45
2,200530, Control_c, 0, 64, 50
2,200568, Control_c, 0, 64, 52
2,200568, Control_c, 0, 67, 45
2,200588, Control_c, 0, 64, 54
2,200607, Control_c, 0, 64, 56
2,200626, Control_c, 0, 64, 59
2,200645, Control_c, 0, 64, 61
2,200665, Control_c, 0, 64, 63
2,200665, Control_c, 0, 67, 44
2,200683, Control_c, 0, 64, 64
2,200701, Control_c, 0, 64, 66
2,200723, Control_c, 0, 64, 68
2,200743, Control_c, 0, 64, 73
2,200761, Control_c, 0, 64, 81
2,200780, Control_c, 0, 64, 92
2,200800, Control_c, 0, 64, 104
2,200819, Control_c, 0, 64, 127
2,200819, Note_on_c, 0, 60, 0
2,201491, Control_c, 0, 67, 44
2,201633, Note_on_c, 0, 65, 58
2,201644, Note_on_c, 0, 60, 47
2,201645, Note_on_c, 0, 41, 36
2,201645, Note_on_c, 0, 57, 40
2,201701, Control_c, 0, 67, 43
2,201721, Control_c, 0, 64, 97
2,201739, Control_c, 0, 64, 79
2,201759, Control_c, 0, 64, 67
2,201778, Control_c, 0, 64, 53
2,201797, Control_c, 0, 64, 18
2,201816, Control_c, 0, 64, 9
2,201995, Note_on_c, 0, 64, 0
2,202028, Note_on_c, 0, 55, 0
2,202120, Note_on_c, 0, 48, 0
2,202258, Control_c, 0, 64, 0
2,202508, Control_c, 0, 64, 9
2,202527, Control_c, 0, 64, 11
2,202546, Control_c, 0, 64, 15
2,202565, Control_c, 0, 64, 18
2,202585, Control_c, 0, 64, 22
2,202602, Control_c, 0, 64, 25
2,202621, Control_c, 0, 64, 29
2,202645, Control_c, 0, 64, 32
2,202665, Control_c, 0, 64, 36
2,202683, Control_c, 0, 64, 40
2,202703, Control_c, 0, 64, 43
2,202722, Control_c, 0, 64, 45
2,202740, Control_c, 0, 64, 47
2,202760, Control_c, 0, 64, 49
2,202779, Control_c, 0, 64, 50
2,202799, Control_c, 0, 64, 51
2,202817, Control_c, 0, 64, 51
2,202876, Control_c, 0, 64, 52
2,203086, Control_c, 0, 64, 52
2,203163, Control_c, 0, 64, 53
2,203182, Control_c, 0, 64, 53
2,203202, Control_c, 0, 64, 54
2,203240, Control_c, 0, 64, 54
2,203259, Control_c, 0, 64, 55
2,203279, Control_c, 0, 64, 55
2,203297, Control_c, 0, 64, 56
2,203317, Control_c, 0, 64, 57
2,203336, Control_c, 0, 64, 58
2,203356, Control_c, 0, 64, 58
2,203374, Control_c, 0, 64, 59
2,203394, Control_c, 0, 64, 59
2,203413, Control_c, 0, 64, 60
2,203432, Control_c, 0, 64, 60
2,203451, Control_c, 0, 64, 61
2,203471, Control_c, 0, 64, 62
2,203490, Control_c, 0, 64, 62
2,203490, Control_c, 0, 67, 43
2,203509, Control_c, 0, 64, 63
2,203528, Control_c, 0, 64, 63
2,203548, Control_c, 0, 64, 64
2,203565, Control_c, 0, 64, 64
2,203585, Control_c, 0, 64, 65
2,203605, Control_c, 0, 64, 66
2,203625, Control_c, 0, 64, 68
2,203643, Control_c, 0, 64, 69
2,203662, Control_c, 0, 64, 72
2,203682, Control_c, 0, 64, 74
2,203700, Control_c, 0, 64, 76
2,203720, Control_c, 0, 64, 78
2,203739, Control_c, 0, 64, 80
2,203759, Control_c, 0, 64, 81
2,203816, Control_c, 0, 64, 82
2,203836, Control_c, 0, 64, 82
2,203854, Control_c, 0, 64, 83
2,203874, Control_c, 0, 64, 83
2,203912, Control_c, 0, 64, 84
2,203931, Control_c, 0, 67, 43
2,204659, Control_c, 0, 64, 83
2,206285, Note_on_c, 0, 57, 0
2,206578, Control_c, 0, 64, 83
2,206652, Note_on_c, 0, 60, 0
2,206686, Note_on_c, 0, 41, 0
2,206739, Note_on_c, 0, 65, 0
2,206770, Control_c, 0, 64, 82
2,206905, Control_c, 0, 64, 82
2,206981, Control_c, 0, 64, 81
2,207001, Control_c, 0, 64, 81
2,207019, Control_c, 0, 64, 80
2,207039, Control_c, 0, 64, 79
2,207058, Control_c, 0, 64, 78
2,207077, Control_c, 0, 64, 77
2,207096, Control_c, 0, 64, 77
2,207135, Control_c, 0, 64, 76
2,207154, Control_c, 0, 64, 75
2,207173, Control_c, 0, 64, 74
2,207211, Control_c, 0, 64, 74
2,207288, Control_c, 0, 64, 73
2,207385, Control_c, 0, 64, 73
2,207422, Control_c, 0, 67, 44
2,207464, Control_c, 0, 64, 72
2,207636, Control_c, 0, 64, 72
2,207732, Control_c, 0, 64, 71
2,207809, Control_c, 0, 64, 71
2,207924, Control_c, 0, 64, 70
2,207959, Control_c, 0, 64, 70
2,208036, Control_c, 0, 64, 69
2,208056, Control_c, 0, 64, 69
2,208113, Control_c, 0, 64, 68
2,208228, Control_c, 0, 64, 68
2,208344, Control_c, 0, 64, 67
2,208438, Control_c, 0, 64, 67
2,208457, Control_c, 0, 64, 66
2,208476, Control_c, 0, 64, 65
2,208496, Control_c, 0, 64, 65
2,209090, Control_c, 0, 64, 65
2,209398, Control_c, 0, 67, 43
2,209897, Control_c, 0, 67, 43
2,210530, Control_c, 0, 67, 42
2,211357, Control_c, 0, 67, 43
2,211529, Control_c, 0, 67, 42
2,211588, Control_c, 0, 67, 42
2,211626, Control_c, 0, 67, 41
2,211664, Control_c, 0, 67, 40
2,211683, Control_c, 0, 67, 39
2,211703, Control_c, 0, 67, 39
2,211722, Control_c, 0, 67, 38
2,211741, Control_c, 0, 67, 37
2,211760, Control_c, 0, 67, 37
2,211780, Control_c, 0, 67, 36
2,211798, Control_c, 0, 67, 36
2,211857, Control_c, 0, 67, 35
2,211875, Control_c, 0, 67, 35
2,211895, Control_c, 0, 67, 34
2,211932, Control_c, 0, 67, 34
2,211991, Control_c, 0, 67, 33
2,212009, Control_c, 0, 67, 33
2,212068, Control_c, 0, 67, 32
2,212317, Control_c, 0, 67, 32
2,212471, Control_c, 0, 67, 31
2,212548, Control_c, 0, 67, 31
2,212624, Control_c, 0, 67, 30
2,212663, Control_c, 0, 64, 65
2,212682, Control_c, 0, 67, 30
2,212701, Control_c, 0, 67, 29
2,212720, Control_c, 0, 64, 64
2,212720, Control_c, 0, 67, 28
2,212740, Control_c, 0, 64, 64
2,212740, Control_c, 0, 67, 21
2,212758, Control_c, 0, 64, 63
2,212758, Control_c, 0, 67, 16
2,212778, Control_c, 0, 64, 63
2,212778, Control_c, 0, 67, 12
2,212797, Control_c, 0, 64, 62
2,212797, Control_c, 0, 67, 9
2,212817, Control_c, 0, 64, 61
2,212817, Control_c, 0, 67, 0
2,212835, Control_c, 0, 64, 60
2,212855, Control_c, 0, 64, 59
2,212874, Control_c, 0, 64, 58
2,212892, Control_c, 0, 64, 57
2,212912, Control_c, 0, 64, 56
2,212931, Control_c, 0, 64, 54
2,212951, Control_c, 0, 64, 52
2,212969, Control_c, 0, 64, 47
2,212989, Control_c, 0, 64, 42
2,213008, Control_c, 0, 64, 36
2,213028, Control_c, 0, 64, 32
2,213046, Control_c, 0, 64, 29
2,213066, Control_c, 0, 64, 29
2,213104, Control_c, 0, 64, 28
2,213123, Control_c, 0, 64, 27
2,213143, Control_c, 0, 64, 22
2,213161, Control_c, 0, 64, 0
2,213162, End_track
0, 0, End_of_file
