0, 0, Header, 1, 2, 384
1, 0, Start_track
1, 0, Tempo, 500000
1, 0, Time_signature, 4, 2, 24, 8
1, 1, End_track
2, 0, Start_track
2, 0, Program_c, 0, 0
2, 0, Control_c, 0, 64, 0
2, 755, Note_on_c, 0, 66, 46
2, 939, Note_on_c, 0, 70, 55
2, 964, Note_on_c, 0, 66, 0
2, 984, Note_on_c, 0, 70, 0
2, 1096, Note_on_c, 0, 73, 65
2, 1156, Note_on_c, 0, 73, 0
2, 1263, Note_on_c, 0, 70, 68
2, 1442, Note_on_c, 0, 66, 65
2, 1458, Note_on_c, 0, 70, 0
2, 1482, Note_on_c, 0, 66, 0
2, 1596, Note_on_c, 0, 73, 76
2, 1669, Note_on_c, 0, 73, 0
2, 1752, Note_on_c, 0, 54, 48
2, 1770, Note_on_c, 0, 75, 66
2, 1873, Note_on_c, 0, 75, 0
2, 1879, Note_on_c, 0, 73, 64
2, 1926, Note_on_c, 0, 73, 0
2, 1929, Note_on_c, 0, 58, 56
2, 1938, Note_on_c, 0, 54, 0
2, 1938, Note_on_c, 0, 75, 60
2, 1974, Note_on_c, 0, 58, 0
2, 1993, Note_on_c, 0, 75, 0
2, 2031, Note_on_c, 0, 73, 47
2, 2065, Note_on_c, 0, 73, 0
2, 2078, Note_on_c, 0, 75, 63
2, 2092, Note_on_c, 0, 61, 63
2, 2119, Note_on_c, 0, 75, 0
2, 2128, Note_on_c, 0, 61, 0
2, 2139, Note_on_c, 0, 73, 67
2, 2171, Note_on_c, 0, 73, 0
2, 2186, Note_on_c, 0, 75, 56
2, 2220, Note_on_c, 0, 75, 0
2, 2234, Note_on_c, 0, 73, 70
2, 2255, Note_on_c, 0, 58, 60
2, 2270, Note_on_c, 0, 73, 0
2, 2287, Note_on_c, 0, 75, 63
2, 2317, Note_on_c, 0, 75, 0
2, 2325, Note_on_c, 0, 73, 58
2, 2363, Note_on_c, 0, 73, 0
2, 2370, Note_on_c, 0, 75, 74
2, 2402, Note_on_c, 0, 58, 0
2, 2415, Note_on_c, 0, 73, 75
2, 2424, Note_on_c, 0, 54, 57
2, 2431, Note_on_c, 0, 75, 0
2, 2471, Note_on_c, 0, 54, 0
2, 2588, Note_on_c, 0, 63, 65
2, 2659, Note_on_c, 0, 63, 0
2, 2767, Note_on_c, 0, 63, 69
2, 2935, Note_on_c, 0, 70, 73
2, 2964, Note_on_c, 0, 73, 0
2, 3001, Note_on_c, 0, 70, 0
2, 3109, Note_on_c, 0, 71, 74
2, 3139, Note_on_c, 0, 63, 0
2, 3287, Note_on_c, 0, 61, 60
2, 3463, Note_on_c, 0, 73, 75
2, 3472, Note_on_c, 0, 71, 0
2, 3518, Note_on_c, 0, 73, 0
2, 3641, Note_on_c, 0, 70, 72
2, 3698, Note_on_c, 0, 61, 0
2, 3831, Note_on_c, 0, 59, 58
2, 4002, Note_on_c, 0, 75, 81
2, 4025, Note_on_c, 0, 70, 0
2, 4057, Note_on_c, 0, 75, 0
2, 4188, Note_on_c, 0, 68, 77
2, 4228, Note_on_c, 0, 59, 0
2, 4372, Note_on_c, 0, 58, 64
2, 4550, Note_on_c, 0, 70, 72
2, 4581, Note_on_c, 0, 68, 0
2, 4615, Note_on_c, 0, 70, 0
2, 4728, Note_on_c, 0, 66, 64
2, 4757, Note_on_c, 0, 58, 0
2, 4904, Note_on_c, 0, 56, 56
2, 5082, Note_on_c, 0, 71, 71
2, 5114, Note_on_c, 0, 66, 0
2, 5126, Note_on_c, 0, 71, 0
2, 5268, Note_on_c, 0, 65, 64
2, 5280, Note_on_c, 0, 56, 0
2, 5450, Note_on_c, 0, 54, 51
2, 5626, Note_on_c, 0, 71, 63
2, 5661, Note_on_c, 0, 65, 0
2, 5663, Note_on_c, 0, 71, 0
2, 5796, Note_on_c, 0, 54, 0
2, 5804, Note_on_c, 0, 63, 56
2, 5990, Note_on_c, 0, 53, 48
2, 6169, Note_on_c, 0, 71, 55
2, 6189, Note_on_c, 0, 63, 0
2, 6225, Note_on_c, 0, 71, 0
2, 6328, Note_on_c, 0, 53, 0
2, 6334, Note_on_c, 0, 61, 60
2, 6374, Note_on_c, 0, 61, 0
2, 6524, Note_on_c, 0, 65, 52
2, 6533, Note_on_c, 0, 49, 35
2, 6710, Note_on_c, 0, 68, 58
2, 6711, Note_on_c, 0, 65, 0
2, 6750, Note_on_c, 0, 68, 0
2, 6867, Note_on_c, 0, 71, 66
2, 6875, Note_on_c, 0, 49, 0
2, 6909, Note_on_c, 0, 71, 0
2, 7051, Note_on_c, 0, 70, 57
2, 7066, Note_on_c, 0, 54, 46
2, 7228, Note_on_c, 0, 66, 52
2, 7243, Note_on_c, 0, 70, 0
2, 7264, Note_on_c, 0, 66, 0
2, 7365, Note_on_c, 0, 54, 0
2, 7411, Note_on_c, 0, 72, 59
2, 7605, Note_on_c, 0, 56, 47
2, 7772, Note_on_c, 0, 66, 63
2, 7807, Note_on_c, 0, 66, 0
2, 7814, Note_on_c, 0, 72, 0
2, 7952, Note_on_c, 0, 56, 0
2, 7952, Note_on_c, 0, 73, 67
2, 8134, Note_on_c, 0, 58, 59
2, 8310, Note_on_c, 0, 66, 69
2, 8336, Note_on_c, 0, 73, 0
2, 8378, Note_on_c, 0, 66, 0
2, 8497, Note_on_c, 0, 75, 81
2, 8516, Note_on_c, 0, 58, 0
2, 8675, Note_on_c, 0, 60, 67
2, 8833, Note_on_c, 0, 75, 0
2, 8845, Note_on_c, 0, 68, 79
2, 8906, Note_on_c, 0, 68, 0
2, 9028, Note_on_c, 0, 77, 86
2, 9029, Note_on_c, 0, 60, 0
2, 9208, Note_on_c, 0, 61, 65
2, 9393, Note_on_c, 0, 80, 85
2, 9413, Note_on_c, 0, 77, 0
2, 9450, Note_on_c, 0, 80, 0
2, 9578, Note_on_c, 0, 73, 78
2, 9600, Note_on_c, 0, 61, 0
2, 9756, Note_on_c, 0, 56, 65
2, 9935, Note_on_c, 0, 75, 82
2, 9959, Note_on_c, 0, 73, 0
2, 9989, Note_on_c, 0, 75, 0
2, 10112, Note_on_c, 0, 72, 83
2, 10117, Note_on_c, 0, 56, 0
2, 10153, Note_on_c, 0, 72, 0
2, 10282, Note_on_c, 0, 73, 80
2, 10290, Note_on_c, 0, 58, 59
2, 10459, Note_on_c, 0, 77, 79
2, 10471, Note_on_c, 0, 73, 0
2, 10493, Note_on_c, 0, 77, 0
2, 10602, Note_on_c, 0, 58, 0
2, 10636, Note_on_c, 0, 73, 75
2, 10664, Note_on_c, 0, 73, 0
2, 10794, Note_on_c, 0, 53, 52
2, 10794, Note_on_c, 0, 73, 76
2, 10823, Note_on_c, 0, 73, 0
2, 10965, Note_on_c, 0, 77, 72
2, 11034, Note_on_c, 0, 75, 72
2, 11034, Note_on_c, 0, 77, 0
2, 11088, Note_on_c, 0, 53, 0
2, 11107, Note_on_c, 0, 75, 0
2, 11120, Note_on_c, 0, 73, 71
2, 11315, Note_on_c, 0, 54, 53
2, 11493, Note_on_c, 0, 82, 57
2, 11520, Note_on_c, 0, 73, 0
2, 11553, Note_on_c, 0, 82, 0
2, 11659, Note_on_c, 0, 54, 0
2, 11676, Note_on_c, 0, 73, 69
2, 11859, Note_on_c, 0, 56, 51
2, 12041, Note_on_c, 0, 75, 67
2, 12072, Note_on_c, 0, 73, 0
2, 12106, Note_on_c, 0, 75, 0
2, 12211, Note_on_c, 0, 56, 0
2, 12217, Note_on_c, 0, 72, 68
2, 12255, Note_on_c, 0, 72, 0
2, 12390, Note_on_c, 0, 73, 65
2, 12404, Note_on_c, 0, 49, 37
2, 12568, Note_on_c, 0, 77, 72
2, 12584, Note_on_c, 0, 73, 0
2, 12608, Note_on_c, 0, 77, 0
2, 12733, Note_on_c, 0, 80, 66
2, 12785, Note_on_c, 0, 80, 0
2, 12908, Note_on_c, 0, 77, 74
2, 12921, Note_on_c, 0, 49, 0
2, 13082, Note_on_c, 0, 73, 72
2, 13094, Note_on_c, 0, 77, 0
2, 13150, Note_on_c, 0, 73, 0
2, 13233, Note_on_c, 0, 80, 74
2, 13318, Note_on_c, 0, 80, 0
2, 13405, Note_on_c, 0, 49, 57
2, 13417, Note_on_c, 0, 82, 76
2, 13522, Note_on_c, 0, 82, 0
2, 13529, Note_on_c, 0, 80, 70
2, 13600, Note_on_c, 0, 53, 52
2, 13602, Note_on_c, 0, 80, 0
2, 13605, Note_on_c, 0, 82, 68
2, 13619, Note_on_c, 0, 49, 0
2, 13648, Note_on_c, 0, 53, 0
2, 13652, Note_on_c, 0, 82, 0
2, 13673, Note_on_c, 0, 80, 72
2, 13710, Note_on_c, 0, 80, 0
2, 13730, Note_on_c, 0, 82, 61
2, 13760, Note_on_c, 0, 56, 70
2, 13767, Note_on_c, 0, 82, 0
2, 13781, Note_on_c, 0, 80, 71
2, 13795, Note_on_c, 0, 56, 0
2, 13819, Note_on_c, 0, 80, 0
2, 13834, Note_on_c, 0, 82, 67
2, 13865, Note_on_c, 0, 82, 0
2, 13892, Note_on_c, 0, 80, 69
2, 13926, Note_on_c, 0, 53, 60
2, 13929, Note_on_c, 0, 80, 0
2, 13933, Note_on_c, 0, 82, 70
2, 13962, Note_on_c, 0, 82, 0
2, 14000, Note_on_c, 0, 80, 44
2, 14025, Note_on_c, 0, 82, 68
2, 14036, Note_on_c, 0, 80, 0
2, 14049, Note_on_c, 0, 80, 56
2, 14053, Note_on_c, 0, 82, 0
2, 14064, Note_on_c, 0, 53, 0
2, 14065, Note_on_c, 0, 49, 55
2, 14104, Note_on_c, 0, 82, 80
2, 14107, Note_on_c, 0, 80, 0
2, 14122, Note_on_c, 0, 49, 0
2, 14153, Note_on_c, 0, 80, 67
2, 14167, Note_on_c, 0, 82, 0
2, 14250, Note_on_c, 0, 58, 71
2, 14314, Note_on_c, 0, 58, 0
2, 14430, Note_on_c, 0, 58, 77
2, 14610, Note_on_c, 0, 77, 76
2, 14624, Note_on_c, 0, 80, 0
2, 14659, Note_on_c, 0, 77, 0
2, 14794, Note_on_c, 0, 78, 80
2, 14818, Note_on_c, 0, 58, 0
2, 14969, Note_on_c, 0, 56, 61
2, 15154, Note_on_c, 0, 80, 80
2, 15168, Note_on_c, 0, 78, 0
2, 15213, Note_on_c, 0, 80, 0
2, 15347, Note_on_c, 0, 77, 77
2, 15356, Note_on_c, 0, 56, 0
2, 15509, Note_on_c, 0, 54, 63
2, 15687, Note_on_c, 0, 82, 80
2, 15727, Note_on_c, 0, 77, 0
2, 15766, Note_on_c, 0, 82, 0
2, 15884, Note_on_c, 0, 75, 80
2, 15906, Note_on_c, 0, 54, 0
2, 16053, Note_on_c, 0, 53, 61
2, 16232, Note_on_c, 0, 77, 76
2, 16261, Note_on_c, 0, 75, 0
2, 16316, Note_on_c, 0, 77, 0
2, 16402, Note_on_c, 0, 74, 74
2, 16418, Note_on_c, 0, 53, 0
2, 16454, Note_on_c, 0, 74, 0
2, 16594, Note_on_c, 0, 51, 45
2, 16596, Note_on_c, 0, 78, 70
2, 16663, Note_on_c, 0, 78, 0
2, 16791, Note_on_c, 0, 70, 63
2, 16828, Note_on_c, 0, 70, 0
2, 16930, Note_on_c, 0, 51, 0
2, 16964, Note_on_c, 0, 71, 68
2, 17136, Note_on_c, 0, 49, 47
2, 17307, Note_on_c, 0, 73, 69
2, 17324, Note_on_c, 0, 71, 0
2, 17370, Note_on_c, 0, 73, 0
2, 17491, Note_on_c, 0, 70, 68
2, 17511, Note_on_c, 0, 49, 0
2, 17670, Note_on_c, 0, 47, 52
2, 17853, Note_on_c, 0, 75, 72
2, 17882, Note_on_c, 0, 70, 0
2, 17901, Note_on_c, 0, 75, 0
2, 18030, Note_on_c, 0, 68, 71
2, 18064, Note_on_c, 0, 47, 0
2, 18221, Note_on_c, 0, 46, 54
2, 18400, Note_on_c, 0, 70, 69
2, 18441, Note_on_c, 0, 68, 0
2, 18470, Note_on_c, 0, 70, 0
2, 18578, Note_on_c, 0, 66, 65
2, 18601, Note_on_c, 0, 46, 0
2, 18759, Note_on_c, 0, 44, 56
2, 18949, Note_on_c, 0, 71, 67
2, 18998, Note_on_c, 0, 66, 0
2, 18998, Note_on_c, 0, 71, 0
2, 19132, Note_on_c, 0, 64, 64
2, 19154, Note_on_c, 0, 44, 0
2, 19306, Note_on_c, 0, 42, 50
2, 19501, Note_on_c, 0, 66, 54
2, 19528, Note_on_c, 0, 64, 0
2, 19567, Note_on_c, 0, 66, 0
2, 19670, Note_on_c, 0, 42, 0
2, 19689, Note_on_c, 0, 63, 49
2, 19739, Note_on_c, 0, 63, 0
2, 19860, Note_on_c, 0, 41, 40
2, 19885, Note_on_c, 0, 68, 57
2, 20057, Note_on_c, 0, 62, 58
2, 20075, Note_on_c, 0, 68, 0
2, 20089, Note_on_c, 0, 62, 0
2, 20236, Note_on_c, 0, 63, 49
2, 20240, Note_on_c, 0, 41, 0
2, 20431, Note_on_c, 0, 51, 55
2, 20609, Note_on_c, 0, 62, 57
2, 20643, Note_on_c, 0, 63, 0
2, 20653, Note_on_c, 0, 62, 0
2, 20790, Note_on_c, 0, 51, 0
2, 20799, Note_on_c, 0, 68, 68
2, 20972, Note_on_c, 0, 50, 61
2, 21130, Note_on_c, 0, 68, 0
2, 21145, Note_on_c, 0, 65, 66
2, 21199, Note_on_c, 0, 65, 0
2, 21340, Note_on_c, 0, 71, 78
2, 21345, Note_on_c, 0, 50, 0
2, 21522, Note_on_c, 0, 46, 58
2, 21646, Note_on_c, 0, 71, 0
2, 21678, Note_on_c, 0, 68, 78
2, 21734, Note_on_c, 0, 68, 0
2, 21872, Note_on_c, 0, 77, 79
2, 21921, Note_on_c, 0, 46, 0
2, 22064, Note_on_c, 0, 51, 61
2, 22233, Note_on_c, 0, 77, 0
2, 22236, Note_on_c, 0, 65, 71
2, 22310, Note_on_c, 0, 65, 0
2, 22419, Note_on_c, 0, 51, 0
2, 22426, Note_on_c, 0, 66, 74
2, 22612, Note_on_c, 0, 54, 67
2, 22774, Note_on_c, 0, 70, 77
2, 22816, Note_on_c, 0, 66, 0
2, 22856, Note_on_c, 0, 70, 0
2, 22967, Note_on_c, 0, 75, 79
2, 23006, Note_on_c, 0, 54, 0
2, 23160, Note_on_c, 0, 56, 71
2, 23337, Note_on_c, 0, 65, 67
2, 23389, Note_on_c, 0, 75, 0
2, 23398, Note_on_c, 0, 65, 0
2, 23517, Note_on_c, 0, 56, 0
2, 23522, Note_on_c, 0, 68, 72
2, 23697, Note_on_c, 0, 58, 54
2, 23884, Note_on_c, 0, 70, 61
2, 23915, Note_on_c, 0, 68, 0
2, 23977, Note_on_c, 0, 70, 0
2, 24048, Note_on_c, 0, 58, 0
2, 24074, Note_on_c, 0, 74, 64
2, 24165, Note_on_c, 0, 74, 0
2, 24253, Note_on_c, 0, 51, 51
2, 24294, Note_on_c, 0, 77, 62
2, 24365, Note_on_c, 0, 77, 0
2, 24394, Note_on_c, 0, 75, 64
2, 24429, Note_on_c, 0, 51, 0
2, 24433, Note_on_c, 0, 75, 0
2, 24457, Note_on_c, 0, 77, 60
2, 24468, Note_on_c, 0, 54, 38
2, 24492, Note_on_c, 0, 77, 0
2, 24517, Note_on_c, 0, 54, 0
2, 24517, Note_on_c, 0, 75, 64
2, 24549, Note_on_c, 0, 75, 0
2, 24574, Note_on_c, 0, 77, 65
2, 24611, Note_on_c, 0, 77, 0
2, 24620, Note_on_c, 0, 58, 56
2, 24624, Note_on_c, 0, 75, 71
2, 24657, Note_on_c, 0, 58, 0
2, 24658, Note_on_c, 0, 75, 0
2, 24676, Note_on_c, 0, 77, 66
2, 24715, Note_on_c, 0, 77, 0
2, 24739, Note_on_c, 0, 75, 69
2, 24770, Note_on_c, 0, 75, 0
2, 24781, Note_on_c, 0, 77, 71
2, 24795, Note_on_c, 0, 54, 54
2, 24822, Note_on_c, 0, 77, 0
2, 24836, Note_on_c, 0, 75, 76
2, 24876, Note_on_c, 0, 75, 0
2, 24883, Note_on_c, 0, 77, 71
2, 24934, Note_on_c, 0, 77, 0
2, 24935, Note_on_c, 0, 75, 68
2, 24936, Note_on_c, 0, 51, 57
2, 24942, Note_on_c, 0, 54, 0
2, 24975, Note_on_c, 0, 75, 0
2, 24975, Note_on_c, 0, 77, 59
2, 24984, Note_on_c, 0, 51, 0
2, 25025, Note_on_c, 0, 75, 65
2, 25039, Note_on_c, 0, 77, 0
2, 25112, Note_on_c, 0, 60, 69
2, 25145, Note_on_c, 0, 60, 0
2, 25274, Note_on_c, 0, 61, 58
2, 25294, Note_on_c, 0, 75, 0
2, 25357, Note_on_c, 0, 61, 0
2, 25372, Note_on_c, 0, 60, 55
2, 25432, Note_on_c, 0, 78, 71
2, 25434, Note_on_c, 0, 60, 0
2, 25462, Note_on_c, 0, 78, 0
2, 25465, Note_on_c, 0, 61, 43
2, 25495, Note_on_c, 0, 61, 0
2, 25517, Note_on_c, 0, 60, 55
2, 25561, Note_on_c, 0, 60, 0
2, 25585, Note_on_c, 0, 61, 59
2, 25596, Note_on_c, 0, 82, 68
2, 25639, Note_on_c, 0, 61, 0
2, 25639, Note_on_c, 0, 82, 0
2, 25656, Note_on_c, 0, 60, 56
2, 25706, Note_on_c, 0, 60, 0
2, 25727, Note_on_c, 0, 61, 58
2, 25750, Note_on_c, 0, 78, 76
2, 25773, Note_on_c, 0, 61, 0
2, 25795, Note_on_c, 0, 60, 57
2, 25843, Note_on_c, 0, 60, 0
2, 25874, Note_on_c, 0, 61, 64
2, 25916, Note_on_c, 0, 61, 0
2, 25929, Note_on_c, 0, 60, 56
2, 25930, Note_on_c, 0, 78, 0
2, 25931, Note_on_c, 0, 75, 80
2, 25967, Note_on_c, 0, 75, 0
2, 25981, Note_on_c, 0, 60, 0
2, 26002, Note_on_c, 0, 61, 59
2, 26035, Note_on_c, 0, 61, 0
2, 26044, Note_on_c, 0, 60, 52
2, 26076, Note_on_c, 0, 81, 75
2, 26092, Note_on_c, 0, 60, 0
2, 26106, Note_on_c, 0, 61, 68
2, 26134, Note_on_c, 0, 81, 0
2, 26204, Note_on_c, 0, 61, 0
2, 26206, Note_on_c, 0, 60, 56
2, 26253, Note_on_c, 0, 82, 75
2, 26362, Note_on_c, 0, 82, 0
2, 26363, Note_on_c, 0, 81, 54
2, 26412, Note_on_c, 0, 63, 58
2, 26428, Note_on_c, 0, 81, 0
2, 26431, Note_on_c, 0, 60, 0
2, 26434, Note_on_c, 0, 82, 66
2, 26461, Note_on_c, 0, 63, 0
2, 26497, Note_on_c, 0, 81, 70
2, 26497, Note_on_c, 0, 82, 0
2, 26541, Note_on_c, 0, 81, 0
2, 26553, Note_on_c, 0, 82, 63
2, 26585, Note_on_c, 0, 66, 66
2, 26608, Note_on_c, 0, 82, 0
2, 26628, Note_on_c, 0, 81, 57
2, 26632, Note_on_c, 0, 66, 0
2, 26664, Note_on_c, 0, 81, 0
2, 26666, Note_on_c, 0, 82, 65
2, 26711, Note_on_c, 0, 82, 0
2, 26733, Note_on_c, 0, 81, 62
2, 26765, Note_on_c, 0, 81, 0
2, 26766, Note_on_c, 0, 63, 71
2, 26775, Note_on_c, 0, 82, 72
2, 26832, Note_on_c, 0, 82, 0
2, 26837, Note_on_c, 0, 81, 61
2, 26869, Note_on_c, 0, 81, 0
2, 26873, Note_on_c, 0, 82, 64
2, 26929, Note_on_c, 0, 82, 0
2, 26930, Note_on_c, 0, 60, 74
2, 26934, Note_on_c, 0, 81, 69
2, 26953, Note_on_c, 0, 63, 0
2, 26962, Note_on_c, 0, 82, 67
2, 26991, Note_on_c, 0, 60, 0
2, 26991, Note_on_c, 0, 81, 0
2, 27029, Note_on_c, 0, 81, 62
2, 27036, Note_on_c, 0, 82, 0
2, 27093, Note_on_c, 0, 66, 74
2, 27165, Note_on_c, 0, 66, 0
2, 27272, Note_on_c, 0, 66, 72
2, 27457, Note_on_c, 0, 82, 74
2, 27465, Note_on_c, 0, 65, 66
2, 27488, Note_on_c, 0, 81, 0
2, 27507, Note_on_c, 0, 66, 0
2, 27544, Note_on_c, 0, 82, 0
2, 27556, Note_on_c, 0, 65, 0
2, 27632, Note_on_c, 0, 84, 89
2, 27654, Note_on_c, 0, 63, 65
2, 27707, Note_on_c, 0, 84, 0
2, 27709, Note_on_c, 0, 63, 0
2, 27806, Note_on_c, 0, 77, 89
2, 27807, Note_on_c, 0, 61, 60
2, 27992, Note_on_c, 0, 78, 82
2, 27997, Note_on_c, 0, 63, 61
2, 28012, Note_on_c, 0, 77, 0
2, 28030, Note_on_c, 0, 61, 0
2, 28073, Note_on_c, 0, 78, 0
2, 28109, Note_on_c, 0, 63, 0
2, 28171, Note_on_c, 0, 75, 87
2, 28180, Note_on_c, 0, 65, 69
2, 28208, Note_on_c, 0, 65, 0
2, 28230, Note_on_c, 0, 75, 0
2, 28363, Note_on_c, 0, 73, 78
2, 28373, Note_on_c, 0, 58, 53
2, 28538, Note_on_c, 0, 77, 82
2, 28556, Note_on_c, 0, 73, 0
2, 28584, Note_on_c, 0, 77, 0
2, 28718, Note_on_c, 0, 70, 73
2, 28739, Note_on_c, 0, 58, 0
2, 28880, Note_on_c, 0, 53, 60
2, 29061, Note_on_c, 0, 72, 75
2, 29090, Note_on_c, 0, 70, 0
2, 29120, Note_on_c, 0, 72, 0
2, 29248, Note_on_c, 0, 69, 78
2, 29262, Note_on_c, 0, 53, 0
2, 29300, Note_on_c, 0, 69, 0
2, 29422, Note_on_c, 0, 54, 51
2, 29425, Note_on_c, 0, 70, 75
2, 29598, Note_on_c, 0, 73, 75
2, 29612, Note_on_c, 0, 70, 0
2, 29636, Note_on_c, 0, 73, 0
2, 29774, Note_on_c, 0, 70, 72
2, 29776, Note_on_c, 0, 54, 0
2, 29803, Note_on_c, 0, 70, 0
2, 29939, Note_on_c, 0, 70, 75
2, 29956, Note_on_c, 0, 49, 44
2, 29974, Note_on_c, 0, 70, 0
2, 30127, Note_on_c, 0, 73, 71
2, 30205, Note_on_c, 0, 72, 68
2, 30230, Note_on_c, 0, 73, 0
2, 30238, Note_on_c, 0, 49, 0
2, 30275, Note_on_c, 0, 72, 0
2, 30286, Note_on_c, 0, 70, 71
2, 30476, Note_on_c, 0, 51, 43
2, 30646, Note_on_c, 0, 78, 61
2, 30680, Note_on_c, 0, 70, 0
2, 30711, Note_on_c, 0, 78, 0
2, 30828, Note_on_c, 0, 51, 0
2, 30829, Note_on_c, 0, 70, 72
2, 31007, Note_on_c, 0, 53, 56
2, 31194, Note_on_c, 0, 72, 69
2, 31219, Note_on_c, 0, 70, 0
2, 31273, Note_on_c, 0, 72, 0
2, 31367, Note_on_c, 0, 53, 0
2, 31379, Note_on_c, 0, 69, 70
2, 31427, Note_on_c, 0, 69, 0
2, 31563, Note_on_c, 0, 70, 60
2, 31568, Note_on_c, 0, 46, 39
2, 31753, Note_on_c, 0, 73, 64
2, 31775, Note_on_c, 0, 70, 0
2, 31804, Note_on_c, 0, 73, 0
2, 31914, Note_on_c, 0, 77, 73
2, 31968, Note_on_c, 0, 77, 0
2, 32096, Note_on_c, 0, 73, 72
2, 32133, Note_on_c, 0, 46, 0
2, 32261, Note_on_c, 0, 70, 76
2, 32266, Note_on_c, 0, 73, 0
2, 32335, Note_on_c, 0, 70, 0
2, 32431, Note_on_c, 0, 79, 78
2, 32509, Note_on_c, 0, 79, 0
2, 32605, Note_on_c, 0, 51, 49
2, 32610, Note_on_c, 0, 80, 66
2, 32710, Note_on_c, 0, 80, 0
2, 32718, Note_on_c, 0, 79, 64
2, 32765, Note_on_c, 0, 79, 0
2, 32784, Note_on_c, 0, 51, 0
2, 32797, Note_on_c, 0, 80, 57
2, 32808, Note_on_c, 0, 55, 39
2, 32839, Note_on_c, 0, 80, 0
2, 32846, Note_on_c, 0, 55, 0
2, 32860, Note_on_c, 0, 79, 56
2, 32890, Note_on_c, 0, 79, 0
2, 32906, Note_on_c, 0, 80, 66
2, 32939, Note_on_c, 0, 80, 0
2, 32969, Note_on_c, 0, 58, 53
2, 32971, Note_on_c, 0, 79, 69
2, 33002, Note_on_c, 0, 58, 0
2, 33004, Note_on_c, 0, 79, 0
2, 33016, Note_on_c, 0, 80, 73
2, 33043, Note_on_c, 0, 80, 0
2, 33086, Note_on_c, 0, 79, 69
2, 33113, Note_on_c, 0, 79, 0
2, 33119, Note_on_c, 0, 80, 73
2, 33139, Note_on_c, 0, 55, 50
2, 33154, Note_on_c, 0, 80, 0
2, 33182, Note_on_c, 0, 79, 66
2, 33214, Note_on_c, 0, 79, 0
2, 33217, Note_on_c, 0, 80, 73
2, 33257, Note_on_c, 0, 55, 0
2, 33274, Note_on_c, 0, 80, 0
2, 33278, Note_on_c, 0, 79, 80
2, 33287, Note_on_c, 0, 51, 65
2, 33332, Note_on_c, 0, 51, 0
2, 33464, Note_on_c, 0, 61, 67
2, 33553, Note_on_c, 0, 61, 0
2, 33658, Note_on_c, 0, 61, 71
2, 33850, Note_on_c, 0, 82, 82
2, 33859, Note_on_c, 0, 79, 0
2, 33910, Note_on_c, 0, 82, 0
2, 34011, Note_on_c, 0, 75, 84
2, 34061, Note_on_c, 0, 75, 0
2, 34075, Note_on_c, 0, 61, 0
2, 34203, Note_on_c, 0, 73, 75
2, 34205, Note_on_c, 0, 55, 55
2, 34392, Note_on_c, 0, 71, 78
2, 34406, Note_on_c, 0, 73, 0
2, 34442, Note_on_c, 0, 71, 0
2, 34565, Note_on_c, 0, 70, 79
2, 34604, Note_on_c, 0, 55, 0
2, 34621, Note_on_c, 0, 70, 0
2, 34744, Note_on_c, 0, 71, 78
2, 34751, Note_on_c, 0, 56, 52
2, 34930, Note_on_c, 0, 75, 77
2, 34944, Note_on_c, 0, 71, 0
2, 34991, Note_on_c, 0, 75, 0
2, 35115, Note_on_c, 0, 68, 73
2, 35126, Note_on_c, 0, 56, 0
2, 35287, Note_on_c, 0, 51, 60
2, 35466, Note_on_c, 0, 70, 75
2, 35492, Note_on_c, 0, 68, 0
2, 35526, Note_on_c, 0, 70, 0
2, 35636, Note_on_c, 0, 67, 75
2, 35664, Note_on_c, 0, 67, 0
2, 35679, Note_on_c, 0, 51, 0
2, 35817, Note_on_c, 0, 68, 77
2, 35819, Note_on_c, 0, 52, 54
2, 36005, Note_on_c, 0, 71, 72
2, 36019, Note_on_c, 0, 68, 0
2, 36039, Note_on_c, 0, 71, 0
2, 36127, Note_on_c, 0, 52, 0
2, 36177, Note_on_c, 0, 68, 74
2, 36203, Note_on_c, 0, 68, 0
2, 36339, Note_on_c, 0, 47, 47
2, 36342, Note_on_c, 0, 68, 75
2, 36370, Note_on_c, 0, 68, 0
2, 36512, Note_on_c, 0, 71, 67
2, 36580, Note_on_c, 0, 71, 0
2, 36584, Note_on_c, 0, 70, 67
2, 36647, Note_on_c, 0, 47, 0
2, 36661, Note_on_c, 0, 70, 0
2, 36677, Note_on_c, 0, 68, 70
2, 36891, Note_on_c, 0, 49, 40
2, 37077, Note_on_c, 0, 76, 67
2, 37110, Note_on_c, 0, 68, 0
2, 37132, Note_on_c, 0, 76, 0
2, 37227, Note_on_c, 0, 49, 0
2, 37253, Note_on_c, 0, 68, 67
2, 37446, Note_on_c, 0, 51, 54
2, 37627, Note_on_c, 0, 70, 68
2, 37653, Note_on_c, 0, 68, 0
2, 37687, Note_on_c, 0, 70, 0
2, 37789, Note_on_c, 0, 51, 0
2, 37802, Note_on_c, 0, 67, 66
2, 37840, Note_on_c, 0, 67, 0
2, 37981, Note_on_c, 0, 68, 67
2, 37990, Note_on_c, 0, 44, 45
2, 38174, Note_on_c, 0, 71, 68
2, 38192, Note_on_c, 0, 68, 0
2, 38213, Note_on_c, 0, 71, 0
2, 38354, Note_on_c, 0, 75, 74
2, 38394, Note_on_c, 0, 75, 0
2, 38471, Note_on_c, 0, 44, 0
2, 38518, Note_on_c, 0, 71, 76
2, 38696, Note_on_c, 0, 68, 69
2, 38707, Note_on_c, 0, 71, 0
2, 38792, Note_on_c, 0, 68, 0
2, 38848, Note_on_c, 0, 77, 76
2, 38929, Note_on_c, 0, 77, 0
2, 39017, Note_on_c, 0, 49, 42
2, 39049, Note_on_c, 0, 78, 63
2, 39147, Note_on_c, 0, 78, 0
2, 39152, Note_on_c, 0, 77, 65
2, 39208, Note_on_c, 0, 49, 0
2, 39216, Note_on_c, 0, 77, 0
2, 39219, Note_on_c, 0, 53, 45
2, 39228, Note_on_c, 0, 78, 59
2, 39266, Note_on_c, 0, 53, 0
2, 39266, Note_on_c, 0, 78, 0
2, 39299, Note_on_c, 0, 77, 55
2, 39326, Note_on_c, 0, 77, 0
2, 39342, Note_on_c, 0, 78, 67
2, 39360, Note_on_c, 0, 56, 64
2, 39372, Note_on_c, 0, 78, 0
2, 39402, Note_on_c, 0, 56, 0
2, 39403, Note_on_c, 0, 77, 66
2, 39435, Note_on_c, 0, 77, 0
2, 39436, Note_on_c, 0, 78, 75
2, 39466, Note_on_c, 0, 78, 0
2, 39531, Note_on_c, 0, 78, 73
2, 39537, Note_on_c, 0, 53, 54
2, 39559, Note_on_c, 0, 78, 0
2, 39619, Note_on_c, 0, 78, 78
2, 39656, Note_on_c, 0, 78, 0
2, 39669, Note_on_c, 0, 53, 0
2, 39690, Note_on_c, 0, 49, 59
2, 39721, Note_on_c, 0, 78, 68
2, 39746, Note_on_c, 0, 49, 0
2, 39794, Note_on_c, 0, 78, 0
2, 39886, Note_on_c, 0, 59, 63
2, 39965, Note_on_c, 0, 59, 0
2, 40069, Note_on_c, 0, 59, 70
2, 40235, Note_on_c, 0, 73, 72
2, 40296, Note_on_c, 0, 73, 0
2, 40416, Note_on_c, 0, 77, 83
2, 40497, Note_on_c, 0, 77, 0
2, 40616, Note_on_c, 0, 80, 80
2, 40781, Note_on_c, 0, 56, 65
2, 40792, Note_on_c, 0, 77, 85
2, 40824, Note_on_c, 0, 80, 0
2, 40825, Note_on_c, 0, 59, 0
2, 40848, Note_on_c, 0, 77, 0
2, 40859, Note_on_c, 0, 56, 0
2, 40972, Note_on_c, 0, 59, 74
2, 40977, Note_on_c, 0, 80, 86
2, 41021, Note_on_c, 0, 59, 0
2, 41042, Note_on_c, 0, 80, 0
2, 41154, Note_on_c, 0, 65, 65
2, 41155, Note_on_c, 0, 83, 85
2, 41335, Note_on_c, 0, 68, 82
2, 41348, Note_on_c, 0, 65, 0
2, 41386, Note_on_c, 0, 68, 0
2, 41519, Note_on_c, 0, 65, 80
2, 41561, Note_on_c, 0, 65, 0
2, 41693, Note_on_c, 0, 61, 72
2, 41865, Note_on_c, 0, 65, 72
2, 41891, Note_on_c, 0, 61, 0
2, 41897, Note_on_c, 0, 65, 0
2, 42049, Note_on_c, 0, 61, 69
2, 42093, Note_on_c, 0, 61, 0
2, 42246, Note_on_c, 0, 54, 57
2, 42417, Note_on_c, 0, 80, 69
2, 42453, Note_on_c, 0, 83, 0
2, 42469, Note_on_c, 0, 80, 0
2, 42606, Note_on_c, 0, 82, 78
2, 42653, Note_on_c, 0, 54, 0
2, 42791, Note_on_c, 0, 59, 63
2, 42967, Note_on_c, 0, 83, 73
2, 43012, Note_on_c, 0, 82, 0
2, 43032, Note_on_c, 0, 83, 0
2, 43165, Note_on_c, 0, 80, 78
2, 43225, Note_on_c, 0, 59, 0
2, 43349, Note_on_c, 0, 60, 74
2, 43534, Note_on_c, 0, 77, 81
2, 43538, Note_on_c, 0, 80, 0
2, 43589, Note_on_c, 0, 77, 0
2, 43718, Note_on_c, 0, 78, 86
2, 43787, Note_on_c, 0, 60, 0
2, 43907, Note_on_c, 0, 61, 66
2, 44090, Note_on_c, 0, 80, 81
2, 44105, Note_on_c, 0, 78, 0
2, 44162, Note_on_c, 0, 80, 0
2, 44275, Note_on_c, 0, 77, 76
2, 44299, Note_on_c, 0, 61, 0
2, 44344, Note_on_c, 0, 77, 0
2, 44478, Note_on_c, 0, 51, 43
2, 44478, Note_on_c, 0, 78, 66
2, 44545, Note_on_c, 0, 78, 0
2, 44651, Note_on_c, 0, 70, 68
2, 44710, Note_on_c, 0, 70, 0
2, 44812, Note_on_c, 0, 51, 0
2, 44832, Note_on_c, 0, 71, 69
2, 45005, Note_on_c, 0, 49, 54
2, 45198, Note_on_c, 0, 73, 71
2, 45207, Note_on_c, 0, 71, 0
2, 45238, Note_on_c, 0, 73, 0
2, 45375, Note_on_c, 0, 70, 69
2, 45381, Note_on_c, 0, 49, 0
2, 45543, Note_on_c, 0, 47, 48
2, 45738, Note_on_c, 0, 75, 61
2, 45762, Note_on_c, 0, 70, 0
2, 45781, Note_on_c, 0, 75, 0
2, 45922, Note_on_c, 0, 68, 63
2, 45926, Note_on_c, 0, 47, 0
2, 46097, Note_on_c, 0, 46, 46
2, 46276, Note_on_c, 0, 70, 62
2, 46317, Note_on_c, 0, 68, 0
2, 46343, Note_on_c, 0, 70, 0
2, 46458, Note_on_c, 0, 66, 59
2, 46466, Note_on_c, 0, 46, 0
2, 46654, Note_on_c, 0, 44, 38
2, 46840, Note_on_c, 0, 65, 55
2, 46874, Note_on_c, 0, 66, 0
2, 46880, Note_on_c, 0, 65, 0
2, 47027, Note_on_c, 0, 71, 71
2, 47050, Note_on_c, 0, 44, 0
2, 47208, Note_on_c, 0, 54, 61
2, 47380, Note_on_c, 0, 71, 0
2, 47402, Note_on_c, 0, 68, 79
2, 47466, Note_on_c, 0, 68, 0
2, 47585, Note_on_c, 0, 75, 79
2, 47597, Note_on_c, 0, 54, 0
2, 47754, Note_on_c, 0, 53, 64
2, 47947, Note_on_c, 0, 71, 78
2, 47953, Note_on_c, 0, 75, 0
2, 48008, Note_on_c, 0, 71, 0
2, 48138, Note_on_c, 0, 80, 87
2, 48152, Note_on_c, 0, 53, 0
2, 48318, Note_on_c, 0, 49, 53
2, 48514, Note_on_c, 0, 77, 75
2, 48562, Note_on_c, 0, 80, 0
2, 48576, Note_on_c, 0, 77, 0
2, 48700, Note_on_c, 0, 71, 69
2, 48703, Note_on_c, 0, 72, 63
2, 48758, Note_on_c, 0, 49, 0
2, 48815, Note_on_c, 0, 72, 0
2, 48893, Note_on_c, 0, 54, 66
2, 49051, Note_on_c, 0, 68, 81
2, 49072, Note_on_c, 0, 71, 0
2, 49100, Note_on_c, 0, 68, 0
2, 49254, Note_on_c, 0, 73, 76
2, 49265, Note_on_c, 0, 54, 0
2, 49414, Note_on_c, 0, 46, 51
2, 49605, Note_on_c, 0, 70, 66
2, 49653, Note_on_c, 0, 73, 0
2, 49679, Note_on_c, 0, 70, 0
2, 49775, Note_on_c, 0, 46, 0
2, 49796, Note_on_c, 0, 66, 67
2, 49958, Note_on_c, 0, 47, 47
2, 50140, Note_on_c, 0, 63, 64
2, 50167, Note_on_c, 0, 66, 0
2, 50181, Note_on_c, 0, 63, 0
2, 50280, Note_on_c, 0, 47, 0
2, 50342, Note_on_c, 0, 71, 66
2, 50532, Note_on_c, 0, 49, 46
2, 50715, Note_on_c, 0, 68, 64
2, 50732, Note_on_c, 0, 71, 0
2, 50766, Note_on_c, 0, 68, 0
2, 50876, Note_on_c, 0, 49, 0
2, 50886, Note_on_c, 0, 65, 57
2, 50956, Note_on_c, 0, 65, 0
2, 51077, Note_on_c, 0, 42, 48
2, 51081, Note_on_c, 0, 66, 56
2, 51268, Note_on_c, 0, 46, 54
2, 51307, Note_on_c, 0, 42, 0
2, 51320, Note_on_c, 0, 46, 0
2, 51431, Note_on_c, 0, 49, 63
2, 51533, Note_on_c, 0, 49, 0
2, 51616, Note_on_c, 0, 46, 59
2, 51796, Note_on_c, 0, 42, 66
2, 51818, Note_on_c, 0, 46, 0
2, 51863, Note_on_c, 0, 42, 0
2, 51982, Note_on_c, 0, 51, 72
2, 52070, Note_on_c, 0, 51, 0
2, 52164, Note_on_c, 0, 51, 69
2, 52357, Note_on_c, 0, 58, 61
2, 52398, Note_on_c, 0, 58, 0
2, 52403, Note_on_c, 0, 66, 0
2, 52539, Note_on_c, 0, 59, 65
2, 52560, Note_on_c, 0, 51, 0
2, 52711, Note_on_c, 0, 49, 51
2, 52902, Note_on_c, 0, 61, 66
2, 52919, Note_on_c, 0, 59, 0
2, 52950, Note_on_c, 0, 61, 0
2, 53093, Note_on_c, 0, 58, 57
2, 53099, Note_on_c, 0, 49, 0
2, 53256, Note_on_c, 0, 47, 51
2, 53439, Note_on_c, 0, 63, 63
2, 53469, Note_on_c, 0, 58, 0
2, 53480, Note_on_c, 0, 63, 0
2, 53636, Note_on_c, 0, 56, 58
2, 53644, Note_on_c, 0, 47, 0
2, 53815, Note_on_c, 0, 46, 42
2, 53988, Note_on_c, 0, 58, 59
2, 54017, Note_on_c, 0, 56, 0
2, 54049, Note_on_c, 0, 58, 0
2, 54161, Note_on_c, 0, 54, 56
2, 54190, Note_on_c, 0, 46, 0
2, 54197, Note_on_c, 0, 54, 0
2, 54357, Note_on_c, 0, 59, 60
2, 54359, Note_on_c, 0, 44, 43
2, 54542, Note_on_c, 0, 44, 0
2, 54546, Note_on_c, 0, 47, 57
2, 54598, Note_on_c, 0, 47, 0
2, 54720, Note_on_c, 0, 51, 71
2, 54771, Note_on_c, 0, 51, 0
2, 54899, Note_on_c, 0, 47, 72
2, 55096, Note_on_c, 0, 44, 80
2, 55106, Note_on_c, 0, 47, 0
2, 55169, Note_on_c, 0, 44, 0
2, 55298, Note_on_c, 0, 53, 91
2, 55353, Note_on_c, 0, 53, 0
2, 55552, Note_on_c, 0, 37, 77
2, 55751, Note_on_c, 0, 65, 72
2, 55790, Note_on_c, 0, 59, 0
2, 55834, Note_on_c, 0, 65, 0
2, 55932, Note_on_c, 0, 68, 74
2, 55985, Note_on_c, 0, 68, 0
2, 56123, Note_on_c, 0, 65, 69
2, 56310, Note_on_c, 0, 59, 60
2, 56339, Note_on_c, 0, 65, 0
2, 56347, Note_on_c, 0, 59, 0
2, 56487, Note_on_c, 0, 68, 62
2, 56520, Note_on_c, 0, 68, 0
2, 56690, Note_on_c, 0, 57, 55
2, 56871, Note_on_c, 0, 61, 33
2, 56913, Note_on_c, 0, 61, 0
2, 57044, Note_on_c, 0, 66, 54
2, 57059, Note_on_c, 0, 57, 0
2, 57081, Note_on_c, 0, 66, 0
2, 57113, Note_on_c, 0, 37, 0
2, 57227, Note_on_c, 0, 59, 65
2, 57230, Note_on_c, 0, 49, 42
2, 57416, Note_on_c, 0, 65, 54
2, 57459, Note_on_c, 0, 65, 0
2, 57593, Note_on_c, 0, 68, 74
2, 57618, Note_on_c, 0, 59, 0
2, 57666, Note_on_c, 0, 68, 0
2, 57710, Note_on_c, 0, 49, 0
2, 57768, Note_on_c, 0, 61, 73
2, 57777, Note_on_c, 0, 37, 49
2, 57952, Note_on_c, 0, 66, 61
2, 57999, Note_on_c, 0, 66, 0
2, 58135, Note_on_c, 0, 69, 80
2, 58185, Note_on_c, 0, 69, 0
2, 58188, Note_on_c, 0, 61, 0
2, 58272, Note_on_c, 0, 37, 0
2, 58315, Note_on_c, 0, 62, 76
2, 58325, Note_on_c, 0, 49, 49
2, 58508, Note_on_c, 0, 68, 70
2, 58548, Note_on_c, 0, 68, 0
2, 58677, Note_on_c, 0, 71, 82
2, 58699, Note_on_c, 0, 62, 0
2, 58743, Note_on_c, 0, 71, 0
2, 58844, Note_on_c, 0, 49, 0
2, 58850, Note_on_c, 0, 65, 79
2, 58852, Note_on_c, 0, 37, 51
2, 59032, Note_on_c, 0, 71, 72
2, 59091, Note_on_c, 0, 71, 0
2, 59096, Note_on_c, 0, 37, 0
2, 59213, Note_on_c, 0, 74, 76
2, 59272, Note_on_c, 0, 65, 0
2, 59382, Note_on_c, 0, 53, 61
2, 59456, Note_on_c, 0, 74, 0
2, 59574, Note_on_c, 0, 71, 75
2, 59630, Note_on_c, 0, 71, 0
2, 59754, Note_on_c, 0, 77, 83
2, 59756, Note_on_c, 0, 53, 0
2, 59937, Note_on_c, 0, 56, 66
2, 60106, Note_on_c, 0, 74, 79
2, 60112, Note_on_c, 0, 77, 0
2, 60139, Note_on_c, 0, 74, 0
2, 60306, Note_on_c, 0, 80, 85
2, 60367, Note_on_c, 0, 56, 0
2, 60488, Note_on_c, 0, 61, 71
2, 60657, Note_on_c, 0, 77, 85
2, 60691, Note_on_c, 0, 80, 0
2, 60707, Note_on_c, 0, 77, 0
2, 60841, Note_on_c, 0, 83, 85
2, 60890, Note_on_c, 0, 83, 0
2, 60921, Note_on_c, 0, 61, 0
2, 61031, Note_on_c, 0, 82, 80
2, 61037, Note_on_c, 0, 54, 53
2, 61222, Note_on_c, 0, 73, 80
2, 61241, Note_on_c, 0, 82, 0
2, 61259, Note_on_c, 0, 73, 0
2, 61397, Note_on_c, 0, 78, 81
2, 61408, Note_on_c, 0, 54, 0
2, 61573, Note_on_c, 0, 49, 59
2, 61754, Note_on_c, 0, 80, 78
2, 61757, Note_on_c, 0, 78, 0
2, 61803, Note_on_c, 0, 80, 0
2, 61927, Note_on_c, 0, 77, 80
2, 61959, Note_on_c, 0, 49, 0
2, 61990, Note_on_c, 0, 77, 0
2, 62114, Note_on_c, 0, 51, 59
2, 62114, Note_on_c, 0, 78, 83
2, 62298, Note_on_c, 0, 70, 70
2, 62326, Note_on_c, 0, 70, 0
2, 62339, Note_on_c, 0, 78, 0
2, 62470, Note_on_c, 0, 78, 77
2, 62477, Note_on_c, 0, 51, 0
2, 62521, Note_on_c, 0, 78, 0
2, 62647, Note_on_c, 0, 78, 76
2, 62653, Note_on_c, 0, 46, 46
2, 62680, Note_on_c, 0, 78, 0
2, 62841, Note_on_c, 0, 82, 67
2, 62915, Note_on_c, 0, 80, 76
2, 62961, Note_on_c, 0, 46, 0
2, 62961, Note_on_c, 0, 82, 0
2, 63008, Note_on_c, 0, 78, 71
2, 63015, Note_on_c, 0, 80, 0
2, 63196, Note_on_c, 0, 47, 43
2, 63382, Note_on_c, 0, 68, 56
2, 63387, Note_on_c, 0, 78, 0
2, 63414, Note_on_c, 0, 68, 0
2, 63594, Note_on_c, 0, 78, 60
2, 63610, Note_on_c, 0, 47, 0
2, 63779, Note_on_c, 0, 49, 54
2, 63971, Note_on_c, 0, 80, 63
2, 64002, Note_on_c, 0, 78, 0
2, 64009, Note_on_c, 0, 80, 0
2, 64191, Note_on_c, 0, 77, 69
2, 64231, Note_on_c, 0, 49, 0
2, 64442, Note_on_c, 0, 42, 45
2, 64445, Note_on_c, 0, 78, 68
2, 64478, Note_on_c, 0, 77, 0
2, 64682, Note_on_c, 0, 73, 70
2, 64725, Note_on_c, 0, 73, 0
2, 64734, Note_on_c, 0, 78, 0
2, 64916, Note_on_c, 0, 70, 61
2, 64998, Note_on_c, 0, 70, 0
2, 65318, Note_on_c, 0, 66, 47
2, 66956, Note_on_c, 0, 66, 0
2, 66976, Note_on_c, 0, 42, 0
2, 69374,End_track
0, 0, End_of_file
