0, 0, Header, 1, 2, 384
1, 0, Start_track
1, 0, Tempo, 500000
1, 0, Time_signature, 4, 2, 24, 8
1, 1, End_track
2,0,Start_track
2,0, Note_on_c, 0, 73, 54
2,376, Note_on_c, 0, 78, 70
2,449, Note_on_c, 0, 73, 0
2,733, Note_on_c, 0, 77, 78
2,797, Note_on_c, 0, 78, 0
2,1126, Note_on_c, 0, 78, 77
2,1198, Note_on_c, 0, 77, 0
2,1502, Note_on_c, 0, 77, 79
2,1591, Note_on_c, 0, 78, 0
2,1672, Note_on_c, 0, 75, 79
2,1721, Note_on_c, 0, 77, 0
2,1845, Note_on_c, 0, 73, 72
2,1853, Note_on_c, 0, 75, 0
2,2007, Note_on_c, 0, 75, 63
2,2012, Note_on_c, 0, 73, 0
2,2098, Note_on_c, 0, 75, 0
2,2106, Note_on_c, 0, 73, 68
2,2152, Note_on_c, 0, 73, 0
2,2164, Note_on_c, 0, 75, 67
2,2245, Note_on_c, 0, 73, 70
2,2247, Note_on_c, 0, 75, 0
2,2302, Note_on_c, 0, 73, 0
2,2314, Note_on_c, 0, 71, 60
2,2404, Note_on_c, 0, 71, 0
2,2406, Note_on_c, 0, 73, 67
2,2479, Note_on_c, 0, 75, 61
2,2488, Note_on_c, 0, 73, 0
2,3292, Note_on_c, 0, 75, 0
2,3676, Note_on_c, 0, 73, 44
2,4040, Note_on_c, 0, 71, 60
2,4084, Note_on_c, 0, 73, 0
2,4422, Note_on_c, 0, 70, 65
2,4468, Note_on_c, 0, 71, 0
2,4786, Note_on_c, 0, 68, 61
2,4835, Note_on_c, 0, 70, 0
2,4970, Note_on_c, 0, 68, 0
2,5189, Note_on_c, 0, 73, 60
2,5346, Note_on_c, 0, 73, 0
2,5555, Note_on_c, 0, 70, 52
2,5946, Note_on_c, 0, 66, 52
2,5949, Note_on_c, 0, 70, 0
2,6120, Note_on_c, 0, 78, 63
2,6295, Note_on_c, 0, 73, 73
2,6297, Note_on_c, 0, 77, 70
2,6327, Note_on_c, 0, 78, 0
2,6370, Note_on_c, 0, 66, 0
2,6481, Note_on_c, 0, 78, 77
2,6512, Note_on_c, 0, 77, 0
2,6652, Note_on_c, 0, 72, 69
2,6659, Note_on_c, 0, 80, 75
2,6681, Note_on_c, 0, 73, 0
2,6699, Note_on_c, 0, 78, 0
2,6813, Note_on_c, 0, 75, 74
2,6873, Note_on_c, 0, 72, 0
2,6912, Note_on_c, 0, 80, 0
2,6999, Note_on_c, 0, 73, 75
2,7007, Note_on_c, 0, 77, 67
2,7040, Note_on_c, 0, 75, 0
2,7203, Note_on_c, 0, 78, 65
2,7216, Note_on_c, 0, 77, 0
2,7353, Note_on_c, 0, 72, 56
2,7366, Note_on_c, 0, 80, 63
2,7370, Note_on_c, 0, 73, 0
2,7407, Note_on_c, 0, 78, 0
2,7535, Note_on_c, 0, 70, 64
2,7548, Note_on_c, 0, 72, 0
2,7699, Note_on_c, 0, 70, 0
2,7701, Note_on_c, 0, 68, 59
2,7861, Note_on_c, 0, 68, 0
2,7874, Note_on_c, 0, 70, 59
2,7876, Note_on_c, 0, 78, 62
2,7930, Note_on_c, 0, 70, 0
2,7954, Note_on_c, 0, 68, 57
2,8007, Note_on_c, 0, 68, 0
2,8030, Note_on_c, 0, 77, 72
2,8034, Note_on_c, 0, 70, 64
2,8068, Note_on_c, 0, 80, 0
2,8077, Note_on_c, 0, 78, 0
2,8102, Note_on_c, 0, 70, 0
2,8110, Note_on_c, 0, 68, 62
2,8163, Note_on_c, 0, 68, 0
2,8179, Note_on_c, 0, 66, 59
2,8189, Note_on_c, 0, 75, 71
2,8219, Note_on_c, 0, 77, 0
2,8263, Note_on_c, 0, 66, 0
2,8279, Note_on_c, 0, 68, 56
2,8351, Note_on_c, 0, 68, 0
2,8356, Note_on_c, 0, 73, 61
2,8357, Note_on_c, 0, 70, 63
2,8363, Note_on_c, 0, 75, 0
2,8548, Note_on_c, 0, 75, 60
2,8589, Note_on_c, 0, 73, 0
2,8716, Note_on_c, 0, 77, 67
2,8745, Note_on_c, 0, 75, 0
2,8881, Note_on_c, 0, 72, 55
2,8885, Note_on_c, 0, 77, 0
2,8957, Note_on_c, 0, 70, 0
2,9067, Note_on_c, 0, 73, 55
2,9092, Note_on_c, 0, 72, 0
2,9246, Note_on_c, 0, 75, 60
2,9266, Note_on_c, 0, 73, 0
2,9403, Note_on_c, 0, 68, 58
2,9403, Note_on_c, 0, 77, 58
2,9431, Note_on_c, 0, 75, 0
2,9593, Note_on_c, 0, 73, 55
2,9678, Note_on_c, 0, 77, 0
2,9763, Note_on_c, 0, 73, 0
2,9767, Note_on_c, 0, 70, 61
2,9774, Note_on_c, 0, 66, 57
2,9852, Note_on_c, 0, 68, 0
2,9937, Note_on_c, 0, 72, 64
2,9971, Note_on_c, 0, 70, 0
2,10123, Note_on_c, 0, 73, 64
2,10127, Note_on_c, 0, 65, 54
2,10140, Note_on_c, 0, 72, 0
2,10149, Note_on_c, 0, 66, 0
2,10507, Note_on_c, 0, 63, 49
2,10569, Note_on_c, 0, 65, 0
2,10694, Note_on_c, 0, 63, 0
2,10898, Note_on_c, 0, 72, 57
2,10913, Note_on_c, 0, 68, 50
2,10952, Note_on_c, 0, 73, 0
2,11109, Note_on_c, 0, 68, 0
2,11281, Note_on_c, 0, 65, 51
2,11283, Note_on_c, 0, 73, 54
2,11335, Note_on_c, 0, 72, 0
2,11633, Note_on_c, 0, 49, 48
2,11641, Note_on_c, 0, 61, 46
2,11663, Note_on_c, 0, 65, 0
2,11833, Note_on_c, 0, 71, 59
2,12005, Note_on_c, 0, 54, 70
2,12011, Note_on_c, 0, 70, 63
2,12011, Note_on_c, 0, 71, 0
2,12065, Note_on_c, 0, 73, 0
2,12116, Note_on_c, 0, 49, 0
2,12181, Note_on_c, 0, 71, 70
2,12228, Note_on_c, 0, 70, 0
2,12296, Note_on_c, 0, 61, 0
2,12353, Note_on_c, 0, 53, 72
2,12355, Note_on_c, 0, 73, 72
2,12406, Note_on_c, 0, 54, 0
2,12428, Note_on_c, 0, 71, 0
2,12534, Note_on_c, 0, 68, 70
2,12596, Note_on_c, 0, 53, 0
2,12710, Note_on_c, 0, 54, 74
2,12717, Note_on_c, 0, 70, 67
2,12754, Note_on_c, 0, 68, 0
2,12890, Note_on_c, 0, 70, 0
2,12892, Note_on_c, 0, 73, 0
2,12913, Note_on_c, 0, 71, 62
2,13069, Note_on_c, 0, 53, 62
2,13077, Note_on_c, 0, 54, 0
2,13085, Note_on_c, 0, 73, 66
2,13161, Note_on_c, 0, 71, 0
2,13241, Note_on_c, 0, 51, 62
2,13248, Note_on_c, 0, 53, 0
2,13249, Note_on_c, 0, 75, 59
2,13416, Note_on_c, 0, 49, 57
2,13418, Note_on_c, 0, 51, 0
2,13418, Note_on_c, 0, 77, 70
2,13421, Note_on_c, 0, 75, 0
2,13555, Note_on_c, 0, 73, 0
2,13565, Note_on_c, 0, 49, 0
2,13575, Note_on_c, 0, 51, 64
2,13594, Note_on_c, 0, 71, 64
2,13637, Note_on_c, 0, 51, 0
2,13665, Note_on_c, 0, 49, 61
2,13714, Note_on_c, 0, 49, 0
2,13736, Note_on_c, 0, 70, 68
2,13746, Note_on_c, 0, 51, 66
2,13765, Note_on_c, 0, 71, 0
2,13815, Note_on_c, 0, 77, 0
2,13816, Note_on_c, 0, 51, 0
2,13820, Note_on_c, 0, 49, 59
2,13873, Note_on_c, 0, 49, 0
2,13891, Note_on_c, 0, 47, 59
2,13895, Note_on_c, 0, 68, 74
2,13914, Note_on_c, 0, 70, 0
2,13970, Note_on_c, 0, 47, 0
2,13983, Note_on_c, 0, 49, 60
2,14073, Note_on_c, 0, 49, 0
2,14076, Note_on_c, 0, 51, 57
2,14078, Note_on_c, 0, 78, 74
2,14081, Note_on_c, 0, 68, 0
2,14095, Note_on_c, 0, 66, 61
2,14270, Note_on_c, 0, 68, 66
2,14327, Note_on_c, 0, 66, 0
2,14438, Note_on_c, 0, 70, 60
2,14494, Note_on_c, 0, 78, 0
2,14495, Note_on_c, 0, 68, 0
2,14586, Note_on_c, 0, 70, 0
2,14603, Note_on_c, 0, 65, 55
2,14736, Note_on_c, 0, 51, 0
2,14790, Note_on_c, 0, 66, 54
2,14825, Note_on_c, 0, 65, 0
2,14986, Note_on_c, 0, 68, 56
2,15008, Note_on_c, 0, 66, 0
2,15146, Note_on_c, 0, 70, 55
2,15149, Note_on_c, 0, 49, 49
2,15171, Note_on_c, 0, 68, 0
2,15323, Note_on_c, 0, 66, 57
2,15347, Note_on_c, 0, 70, 0
2,15498, Note_on_c, 0, 66, 0
2,15502, Note_on_c, 0, 68, 62
2,15504, Note_on_c, 0, 47, 46
2,15509, Note_on_c, 0, 63, 49
2,15534, Note_on_c, 0, 49, 0
2,15690, Note_on_c, 0, 65, 61
2,15747, Note_on_c, 0, 63, 0
2,15862, Note_on_c, 0, 65, 0
2,15864, Note_on_c, 0, 47, 0
2,15872, Note_on_c, 0, 70, 60
2,15874, Note_on_c, 0, 66, 53
2,15879, Note_on_c, 0, 68, 0
2,15881, Note_on_c, 0, 46, 40
2,16227, Note_on_c, 0, 71, 57
2,16232, Note_on_c, 0, 44, 44
2,16240, Note_on_c, 0, 46, 0
2,16243, Note_on_c, 0, 70, 0
2,16423, Note_on_c, 0, 44, 0
2,16603, Note_on_c, 0, 49, 37
2,16614, Note_on_c, 0, 65, 45
2,16620, Note_on_c, 0, 70, 54
2,16625, Note_on_c, 0, 66, 0
2,16711, Note_on_c, 0, 71, 0
2,16775, Note_on_c, 0, 49, 0
2,16789, Note_on_c, 0, 68, 60
2,16796, Note_on_c, 0, 70, 0
2,16971, Note_on_c, 0, 65, 0
2,16978, Note_on_c, 0, 70, 59
2,16980, Note_on_c, 0, 68, 0
2,16983, Note_on_c, 0, 66, 46
2,16994, Note_on_c, 0, 42, 33
2,17153, Note_on_c, 0, 73, 69
2,17169, Note_on_c, 0, 70, 0
2,17187, Note_on_c, 0, 73, 0
2,17190, Note_on_c, 0, 42, 0
2,17337, Note_on_c, 0, 54, 48
2,17338, Note_on_c, 0, 73, 69
2,17510, Note_on_c, 0, 70, 69
2,17514, Note_on_c, 0, 66, 0
2,17536, Note_on_c, 0, 73, 0
2,17542, Note_on_c, 0, 70, 0
2,17553, Note_on_c, 0, 54, 0
2,17685, Note_on_c, 0, 68, 60
2,17689, Note_on_c, 0, 53, 40
2,17853, Note_on_c, 0, 73, 71
2,17894, Note_on_c, 0, 68, 0
2,17907, Note_on_c, 0, 73, 0
2,17936, Note_on_c, 0, 53, 0
2,18034, Note_on_c, 0, 73, 67
2,18046, Note_on_c, 0, 65, 53
2,18055, Note_on_c, 0, 49, 45
2,18215, Note_on_c, 0, 68, 64
2,18228, Note_on_c, 0, 65, 0
2,18255, Note_on_c, 0, 68, 0
2,18266, Note_on_c, 0, 73, 0
2,18293, Note_on_c, 0, 49, 0
2,18379, Note_on_c, 0, 70, 70
2,18390, Note_on_c, 0, 54, 55
2,18395, Note_on_c, 0, 66, 48
2,18551, Note_on_c, 0, 58, 64
2,18585, Note_on_c, 0, 58, 0
2,18596, Note_on_c, 0, 54, 0
2,18599, Note_on_c, 0, 70, 0
2,18727, Note_on_c, 0, 73, 72
2,18729, Note_on_c, 0, 58, 49
2,18897, Note_on_c, 0, 54, 61
2,18912, Note_on_c, 0, 58, 0
2,18936, Note_on_c, 0, 54, 0
2,18949, Note_on_c, 0, 73, 0
2,19059, Note_on_c, 0, 78, 78
2,19068, Note_on_c, 0, 51, 54
2,19229, Note_on_c, 0, 54, 62
2,19248, Note_on_c, 0, 51, 0
2,19269, Note_on_c, 0, 54, 0
2,19410, Note_on_c, 0, 70, 55
2,19418, Note_on_c, 0, 54, 42
2,19609, Note_on_c, 0, 51, 50
2,19612, Note_on_c, 0, 54, 0
2,19655, Note_on_c, 0, 51, 0
2,19675, Note_on_c, 0, 70, 0
2,19689, Note_on_c, 0, 66, 0
2,19760, Note_on_c, 0, 75, 64
2,19762, Note_on_c, 0, 48, 47
2,19933, Note_on_c, 0, 68, 60
2,19953, Note_on_c, 0, 78, 0
2,19972, Note_on_c, 0, 48, 0
2,19976, Note_on_c, 0, 68, 0
2,20098, Note_on_c, 0, 77, 74
2,20104, Note_on_c, 0, 68, 50
2,20115, Note_on_c, 0, 75, 0
2,20116, Note_on_c, 0, 49, 36
2,20285, Note_on_c, 0, 73, 56
2,20305, Note_on_c, 0, 68, 0
2,20315, Note_on_c, 0, 49, 0
2,20460, Note_on_c, 0, 54, 48
2,20490, Note_on_c, 0, 70, 41
2,20559, Note_on_c, 0, 77, 0
2,20661, Note_on_c, 0, 66, 50
2,20691, Note_on_c, 0, 70, 0
2,20695, Note_on_c, 0, 66, 0
2,20809, Note_on_c, 0, 66, 53
2,20809, Note_on_c, 0, 75, 68
2,20850, Note_on_c, 0, 73, 0
2,20976, Note_on_c, 0, 73, 66
2,20985, Note_on_c, 0, 70, 58
2,21008, Note_on_c, 0, 66, 0
2,21062, Note_on_c, 0, 75, 0
2,21163, Note_on_c, 0, 54, 0
2,21171, Note_on_c, 0, 72, 69
2,21189, Note_on_c, 0, 68, 43
2,21191, Note_on_c, 0, 70, 0
2,21197, Note_on_c, 0, 73, 0
2,21352, Note_on_c, 0, 56, 55
2,21392, Note_on_c, 0, 72, 0
2,21434, Note_on_c, 0, 56, 0
2,21509, Note_on_c, 0, 75, 68
2,21521, Note_on_c, 0, 60, 47
2,21691, Note_on_c, 0, 56, 55
2,21694, Note_on_c, 0, 60, 0
2,21723, Note_on_c, 0, 75, 0
2,21731, Note_on_c, 0, 56, 0
2,21859, Note_on_c, 0, 80, 71
2,21877, Note_on_c, 0, 53, 45
2,22040, Note_on_c, 0, 56, 55
2,22057, Note_on_c, 0, 53, 0
2,22075, Note_on_c, 0, 56, 0
2,22203, Note_on_c, 0, 56, 41
2,22214, Note_on_c, 0, 72, 57
2,22391, Note_on_c, 0, 53, 49
2,22403, Note_on_c, 0, 56, 0
2,22422, Note_on_c, 0, 68, 0
2,22450, Note_on_c, 0, 72, 0
2,22473, Note_on_c, 0, 53, 0
2,22569, Note_on_c, 0, 50, 47
2,22575, Note_on_c, 0, 70, 57
2,22743, Note_on_c, 0, 50, 0
2,22747, Note_on_c, 0, 58, 59
2,22771, Note_on_c, 0, 80, 0
2,22788, Note_on_c, 0, 58, 0
2,22910, Note_on_c, 0, 78, 70
2,22919, Note_on_c, 0, 58, 51
2,23094, Note_on_c, 0, 77, 73
2,23100, Note_on_c, 0, 54, 57
2,23105, Note_on_c, 0, 58, 0
2,23131, Note_on_c, 0, 78, 0
2,23147, Note_on_c, 0, 54, 0
2,23262, Note_on_c, 0, 78, 76
2,23275, Note_on_c, 0, 51, 51
2,23320, Note_on_c, 0, 77, 0
2,23413, Note_on_c, 0, 70, 0
2,23453, Note_on_c, 0, 54, 59
2,23482, Note_on_c, 0, 51, 0
2,23492, Note_on_c, 0, 54, 0
2,23617, Note_on_c, 0, 70, 63
2,23623, Note_on_c, 0, 54, 39
2,23799, Note_on_c, 0, 51, 62
2,23816, Note_on_c, 0, 54, 0
2,23850, Note_on_c, 0, 51, 0
2,23862, Note_on_c, 0, 70, 0
2,23966, Note_on_c, 0, 48, 43
2,23969, Note_on_c, 0, 68, 70
2,24159, Note_on_c, 0, 56, 61
2,24205, Note_on_c, 0, 56, 0
2,24216, Note_on_c, 0, 48, 0
2,24232, Note_on_c, 0, 78, 0
2,24330, Note_on_c, 0, 77, 77
2,24339, Note_on_c, 0, 56, 53
2,24501, Note_on_c, 0, 75, 79
2,24513, Note_on_c, 0, 53, 60
2,24518, Note_on_c, 0, 56, 0
2,24540, Note_on_c, 0, 77, 0
2,24556, Note_on_c, 0, 53, 0
2,24677, Note_on_c, 0, 77, 74
2,24698, Note_on_c, 0, 49, 46
2,24725, Note_on_c, 0, 75, 0
2,24826, Note_on_c, 0, 68, 0
2,24872, Note_on_c, 0, 53, 64
2,24902, Note_on_c, 0, 49, 0
2,24913, Note_on_c, 0, 53, 0
2,25057, Note_on_c, 0, 53, 45
2,25059, Note_on_c, 0, 68, 60
2,25228, Note_on_c, 0, 49, 57
2,25243, Note_on_c, 0, 53, 0
2,25274, Note_on_c, 0, 49, 0
2,25301, Note_on_c, 0, 68, 0
2,25396, Note_on_c, 0, 66, 64
2,25419, Note_on_c, 0, 46, 45
2,25577, Note_on_c, 0, 49, 58
2,25600, Note_on_c, 0, 77, 0
2,25620, Note_on_c, 0, 46, 0
2,25642, Note_on_c, 0, 49, 0
2,25755, Note_on_c, 0, 77, 77
2,25773, Note_on_c, 0, 49, 53
2,25936, Note_on_c, 0, 46, 65
2,25951, Note_on_c, 0, 49, 0
2,25975, Note_on_c, 0, 46, 0
2,26104, Note_on_c, 0, 42, 58
2,26114, Note_on_c, 0, 75, 78
2,26193, Note_on_c, 0, 66, 0
2,26288, Note_on_c, 0, 77, 0
2,26289, Note_on_c, 0, 68, 71
2,26329, Note_on_c, 0, 42, 0
2,26473, Note_on_c, 0, 73, 69
2,26480, Note_on_c, 0, 54, 45
2,26491, Note_on_c, 0, 70, 52
2,26526, Note_on_c, 0, 68, 0
2,26592, Note_on_c, 0, 75, 0
2,26654, Note_on_c, 0, 66, 63
2,26705, Note_on_c, 0, 66, 0
2,26835, Note_on_c, 0, 72, 70
2,26836, Note_on_c, 0, 54, 0
2,26843, Note_on_c, 0, 70, 0
2,26853, Note_on_c, 0, 63, 32
2,26897, Note_on_c, 0, 73, 0
2,27020, Note_on_c, 0, 54, 58
2,27183, Note_on_c, 0, 68, 74
2,27191, Note_on_c, 0, 53, 54
2,27222, Note_on_c, 0, 54, 0
2,27322, Note_on_c, 0, 72, 0
2,27360, Note_on_c, 0, 51, 61
2,27366, Note_on_c, 0, 53, 0
2,27538, Note_on_c, 0, 73, 69
2,27547, Note_on_c, 0, 49, 48
2,27547, Note_on_c, 0, 51, 0
2,27642, Note_on_c, 0, 63, 0
2,27653, Note_on_c, 0, 68, 0
2,27710, Note_on_c, 0, 51, 53
2,27772, Note_on_c, 0, 49, 0
2,27870, Note_on_c, 0, 51, 0
2,27889, Note_on_c, 0, 68, 66
2,27895, Note_on_c, 0, 53, 44
2,28050, Note_on_c, 0, 53, 0
2,28058, Note_on_c, 0, 49, 43
2,28221, Note_on_c, 0, 49, 0
2,28242, Note_on_c, 0, 66, 63
2,28248, Note_on_c, 0, 46, 38
2,28313, Note_on_c, 0, 68, 0
2,28399, Note_on_c, 0, 48, 45
2,28413, Note_on_c, 0, 46, 0
2,28570, Note_on_c, 0, 48, 0
2,28591, Note_on_c, 0, 65, 55
2,28592, Note_on_c, 0, 49, 38
2,28595, Note_on_c, 0, 66, 0
2,28747, Note_on_c, 0, 46, 44
2,28747, Note_on_c, 0, 49, 0
2,28901, Note_on_c, 0, 73, 0
2,28936, Note_on_c, 0, 42, 38
2,28943, Note_on_c, 0, 63, 46
2,28958, Note_on_c, 0, 46, 0
2,28960, Note_on_c, 0, 65, 0
2,29126, Note_on_c, 0, 73, 61
2,29141, Note_on_c, 0, 63, 0
2,29219, Note_on_c, 0, 42, 0
2,29283, Note_on_c, 0, 63, 44
2,29293, Note_on_c, 0, 44, 32
2,29470, Note_on_c, 0, 63, 0
2,29473, Note_on_c, 0, 72, 48
2,29473, Note_on_c, 0, 73, 0
2,29591, Note_on_c, 0, 44, 0
2,29671, Note_on_c, 0, 65, 37
2,29672, Note_on_c, 0, 73, 52
2,29679, Note_on_c, 0, 72, 0
2,29684, Note_on_c, 0, 37, 23
2,29853, Note_on_c, 0, 73, 0
2,29857, Note_on_c, 0, 68, 48
2,29972, Note_on_c, 0, 37, 0
2,29981, Note_on_c, 0, 68, 0
2,30038, Note_on_c, 0, 73, 55
2,30044, Note_on_c, 0, 65, 0
2,30205, Note_on_c, 0, 71, 46
2,30368, Note_on_c, 0, 73, 0
2,30390, Note_on_c, 0, 78, 63
2,30402, Note_on_c, 0, 70, 42
2,30402, Note_on_c, 0, 71, 0
2,30578, Note_on_c, 0, 71, 34
2,30589, Note_on_c, 0, 70, 0
2,30628, Note_on_c, 0, 78, 0
2,30743, Note_on_c, 0, 77, 54
2,30749, Note_on_c, 0, 73, 44
2,30815, Note_on_c, 0, 71, 0
2,30920, Note_on_c, 0, 68, 40
2,30931, Note_on_c, 0, 77, 0
2,30993, Note_on_c, 0, 68, 0
2,31100, Note_on_c, 0, 70, 46
2,31111, Note_on_c, 0, 78, 49
2,31146, Note_on_c, 0, 70, 0
2,31164, Note_on_c, 0, 73, 0
2,31273, Note_on_c, 0, 71, 59
2,31321, Note_on_c, 0, 78, 0
2,31431, Note_on_c, 0, 54, 42
2,31437, Note_on_c, 0, 77, 58
2,31441, Note_on_c, 0, 71, 0
2,31445, Note_on_c, 0, 73, 51
2,31607, Note_on_c, 0, 54, 0
2,31615, Note_on_c, 0, 56, 42
2,31622, Note_on_c, 0, 75, 59
2,31635, Note_on_c, 0, 73, 0
2,31711, Note_on_c, 0, 77, 0
2,31786, Note_on_c, 0, 73, 58
2,31790, Note_on_c, 0, 58, 48
2,31793, Note_on_c, 0, 56, 0
2,31833, Note_on_c, 0, 58, 0
2,31879, Note_on_c, 0, 75, 0
2,31967, Note_on_c, 0, 71, 50
2,31970, Note_on_c, 0, 54, 52
2,32097, Note_on_c, 0, 71, 0
2,32125, Note_on_c, 0, 70, 59
2,32127, Note_on_c, 0, 58, 52
2,32142, Note_on_c, 0, 54, 0
2,32160, Note_on_c, 0, 58, 0
2,32255, Note_on_c, 0, 58, 46
2,32294, Note_on_c, 0, 68, 58
2,32307, Note_on_c, 0, 70, 0
2,32319, Note_on_c, 0, 68, 0
2,32343, Note_on_c, 0, 58, 0
2,32457, Note_on_c, 0, 59, 38
2,32464, Note_on_c, 0, 75, 65
2,32475, Note_on_c, 0, 66, 37
2,32506, Note_on_c, 0, 73, 0
2,32642, Note_on_c, 0, 59, 0
2,32643, Note_on_c, 0, 54, 54
2,32648, Note_on_c, 0, 68, 58
2,32675, Note_on_c, 0, 66, 0
2,32680, Note_on_c, 0, 54, 0
2,32806, Note_on_c, 0, 54, 47
2,32817, Note_on_c, 0, 70, 61
2,32828, Note_on_c, 0, 68, 0
2,32977, Note_on_c, 0, 54, 0
2,32980, Note_on_c, 0, 59, 59
2,32982, Note_on_c, 0, 70, 0
2,32988, Note_on_c, 0, 65, 55
2,33016, Note_on_c, 0, 59, 0
2,33153, Note_on_c, 0, 61, 51
2,33156, Note_on_c, 0, 66, 56
2,33234, Note_on_c, 0, 65, 0
2,33276, Note_on_c, 0, 75, 0
2,33340, Note_on_c, 0, 61, 0
2,33347, Note_on_c, 0, 54, 54
2,33349, Note_on_c, 0, 68, 58
2,33384, Note_on_c, 0, 54, 0
2,33440, Note_on_c, 0, 66, 0
2,33514, Note_on_c, 0, 54, 46
2,33517, Note_on_c, 0, 73, 68
2,33518, Note_on_c, 0, 70, 51
2,33613, Note_on_c, 0, 68, 0
2,33670, Note_on_c, 0, 70, 0
2,33686, Note_on_c, 0, 65, 49
2,33694, Note_on_c, 0, 54, 0
2,33694, Note_on_c, 0, 61, 59
2,33716, Note_on_c, 0, 65, 0
2,33726, Note_on_c, 0, 61, 0
2,33862, Note_on_c, 0, 71, 64
2,33869, Note_on_c, 0, 66, 52
2,33872, Note_on_c, 0, 63, 44
2,33964, Note_on_c, 0, 73, 0
2,34037, Note_on_c, 0, 63, 0
2,34042, Note_on_c, 0, 54, 60
2,34085, Note_on_c, 0, 54, 0
2,34215, Note_on_c, 0, 70, 67
2,34228, Note_on_c, 0, 54, 42
2,34285, Note_on_c, 0, 71, 0
2,34297, Note_on_c, 0, 66, 0
2,34386, Note_on_c, 0, 63, 67
2,34426, Note_on_c, 0, 63, 0
2,34453, Note_on_c, 0, 54, 0
2,34552, Note_on_c, 0, 68, 70
2,34567, Note_on_c, 0, 65, 53
2,34630, Note_on_c, 0, 70, 0
2,34724, Note_on_c, 0, 54, 58
2,34726, Note_on_c, 0, 65, 0
2,34777, Note_on_c, 0, 54, 0
2,34898, Note_on_c, 0, 73, 72
2,34912, Note_on_c, 0, 54, 57
2,34994, Note_on_c, 0, 68, 0
2,35065, Note_on_c, 0, 54, 0
2,35076, Note_on_c, 0, 65, 62
2,35109, Note_on_c, 0, 65, 0
2,35246, Note_on_c, 0, 70, 68
2,35249, Note_on_c, 0, 66, 51
2,35328, Note_on_c, 0, 73, 0
2,35422, Note_on_c, 0, 65, 55
2,35423, Note_on_c, 0, 70, 0
2,35425, Note_on_c, 0, 66, 0
2,35611, Note_on_c, 0, 65, 0
2,35622, Note_on_c, 0, 63, 43
2,35631, Note_on_c, 0, 66, 38
2,35635, Note_on_c, 0, 70, 50
2,35756, Note_on_c, 0, 63, 0
2,35794, Note_on_c, 0, 61, 48
2,35948, Note_on_c, 0, 66, 0
2,35951, Note_on_c, 0, 61, 0
2,35968, Note_on_c, 0, 75, 56
2,35986, Note_on_c, 0, 59, 33
2,35994, Note_on_c, 0, 70, 0
2,36141, Note_on_c, 0, 68, 47
2,36167, Note_on_c, 0, 68, 0
2,36168, Note_on_c, 0, 59, 0
2,36296, Note_on_c, 0, 68, 43
2,36307, Note_on_c, 0, 74, 59
2,36395, Note_on_c, 0, 75, 0
2,36499, Note_on_c, 0, 68, 0
2,36505, Note_on_c, 0, 59, 51
2,36544, Note_on_c, 0, 59, 0
2,36673, Note_on_c, 0, 75, 67
2,36695, Note_on_c, 0, 58, 39
2,36756, Note_on_c, 0, 74, 0
2,36855, Note_on_c, 0, 66, 58
2,36893, Note_on_c, 0, 66, 0
2,36896, Note_on_c, 0, 58, 0
2,37018, Note_on_c, 0, 70, 70
2,37023, Note_on_c, 0, 66, 53
2,37064, Note_on_c, 0, 75, 0
2,37201, Note_on_c, 0, 58, 61
2,37226, Note_on_c, 0, 66, 0
2,37247, Note_on_c, 0, 58, 0
2,37369, Note_on_c, 0, 75, 73
2,37376, Note_on_c, 0, 56, 48
2,37405, Note_on_c, 0, 70, 0
2,37529, Note_on_c, 0, 65, 67
2,37570, Note_on_c, 0, 56, 0
2,37574, Note_on_c, 0, 65, 0
2,37701, Note_on_c, 0, 77, 82
2,37707, Note_on_c, 0, 74, 63
2,37709, Note_on_c, 0, 65, 52
2,37736, Note_on_c, 0, 75, 0
2,37883, Note_on_c, 0, 56, 70
2,37904, Note_on_c, 0, 65, 0
2,37955, Note_on_c, 0, 56, 0
2,38062, Note_on_c, 0, 78, 78
2,38067, Note_on_c, 0, 75, 72
2,38071, Note_on_c, 0, 54, 57
2,38108, Note_on_c, 0, 77, 0
2,38155, Note_on_c, 0, 74, 0
2,38244, Note_on_c, 0, 56, 66
2,38254, Note_on_c, 0, 75, 0
2,38277, Note_on_c, 0, 54, 0
2,38422, Note_on_c, 0, 80, 79
2,38426, Note_on_c, 0, 77, 75
2,38432, Note_on_c, 0, 54, 56
2,38454, Note_on_c, 0, 78, 0
2,38503, Note_on_c, 0, 56, 0
2,38587, Note_on_c, 0, 53, 62
2,38614, Note_on_c, 0, 54, 0
2,38775, Note_on_c, 0, 82, 79
2,38782, Note_on_c, 0, 78, 72
2,38785, Note_on_c, 0, 77, 0
2,38792, Note_on_c, 0, 51, 50
2,38819, Note_on_c, 0, 80, 0
2,38822, Note_on_c, 0, 53, 0
2,38958, Note_on_c, 0, 53, 64
2,38990, Note_on_c, 0, 78, 0
2,38996, Note_on_c, 0, 51, 0
2,39130, Note_on_c, 0, 78, 75
2,39134, Note_on_c, 0, 75, 69
2,39149, Note_on_c, 0, 54, 53
2,39152, Note_on_c, 0, 53, 0
2,39224, Note_on_c, 0, 82, 0
2,39317, Note_on_c, 0, 54, 0
2,39319, Note_on_c, 0, 51, 56
2,39341, Note_on_c, 0, 75, 0
2,39488, Note_on_c, 0, 75, 73
2,39493, Note_on_c, 0, 56, 55
2,39498, Note_on_c, 0, 72, 63
2,39553, Note_on_c, 0, 78, 0
2,39584, Note_on_c, 0, 51, 0
2,39664, Note_on_c, 0, 58, 63
2,39677, Note_on_c, 0, 56, 0
2,39839, Note_on_c, 0, 68, 80
2,39848, Note_on_c, 0, 56, 51
2,39885, Note_on_c, 0, 72, 0
2,39903, Note_on_c, 0, 58, 0
2,40017, Note_on_c, 0, 54, 67
2,40021, Note_on_c, 0, 56, 0
2,40183, Note_on_c, 0, 73, 78
2,40220, Note_on_c, 0, 53, 47
2,40258, Note_on_c, 0, 68, 0
2,40259, Note_on_c, 0, 54, 0
2,40286, Note_on_c, 0, 75, 0
2,40375, Note_on_c, 0, 54, 67
2,40390, Note_on_c, 0, 53, 0
2,40529, Note_on_c, 0, 72, 78
2,40533, Note_on_c, 0, 80, 75
2,40549, Note_on_c, 0, 56, 60
2,40560, Note_on_c, 0, 73, 0
2,40601, Note_on_c, 0, 54, 0
2,40678, Note_on_c, 0, 56, 0
2,40698, Note_on_c, 0, 53, 62
2,40885, Note_on_c, 0, 73, 79
2,40887, Note_on_c, 0, 77, 72
2,40902, Note_on_c, 0, 58, 45
2,40933, Note_on_c, 0, 72, 0
2,40942, Note_on_c, 0, 53, 0
2,40953, Note_on_c, 0, 80, 0
2,41066, Note_on_c, 0, 60, 63
2,41134, Note_on_c, 0, 58, 0
2,41231, Note_on_c, 0, 61, 57
2,41232, Note_on_c, 0, 72, 74
2,41238, Note_on_c, 0, 73, 0
2,41240, Note_on_c, 0, 60, 0
2,41402, Note_on_c, 0, 70, 70
2,41418, Note_on_c, 0, 72, 0
2,41553, Note_on_c, 0, 68, 72
2,41574, Note_on_c, 0, 70, 0
2,41627, Note_on_c, 0, 77, 0
2,41696, Note_on_c, 0, 68, 0
2,41722, Note_on_c, 0, 60, 53
2,41723, Note_on_c, 0, 70, 70
2,41761, Note_on_c, 0, 61, 0
2,41794, Note_on_c, 0, 70, 0
2,41814, Note_on_c, 0, 68, 57
2,41842, Note_on_c, 0, 68, 0
2,41855, Note_on_c, 0, 60, 0
2,41865, Note_on_c, 0, 70, 61
2,41877, Note_on_c, 0, 58, 58
2,41888, Note_on_c, 0, 77, 59
2,41921, Note_on_c, 0, 70, 0
2,41927, Note_on_c, 0, 68, 72
2,41994, Note_on_c, 0, 68, 0
2,42017, Note_on_c, 0, 58, 0
2,42028, Note_on_c, 0, 66, 64
2,42039, Note_on_c, 0, 56, 54
2,42094, Note_on_c, 0, 66, 0
2,42097, Note_on_c, 0, 68, 72
2,42183, Note_on_c, 0, 68, 0
2,42186, Note_on_c, 0, 70, 64
2,42186, Note_on_c, 0, 75, 68
2,42191, Note_on_c, 0, 56, 0
2,42203, Note_on_c, 0, 54, 49
2,42360, Note_on_c, 0, 70, 0
2,42361, Note_on_c, 0, 56, 38
2,42376, Note_on_c, 0, 72, 59
2,42405, Note_on_c, 0, 75, 0
2,42530, Note_on_c, 0, 54, 0
2,42541, Note_on_c, 0, 56, 0
2,42549, Note_on_c, 0, 73, 61
2,42550, Note_on_c, 0, 58, 51
2,42569, Note_on_c, 0, 77, 0
2,42588, Note_on_c, 0, 72, 0
2,42714, Note_on_c, 0, 77, 60
2,42722, Note_on_c, 0, 58, 0
2,42723, Note_on_c, 0, 53, 45
2,42751, Note_on_c, 0, 73, 0
2,42891, Note_on_c, 0, 54, 53
2,42898, Note_on_c, 0, 75, 57
2,42904, Note_on_c, 0, 53, 0
2,42962, Note_on_c, 0, 77, 0
2,43065, Note_on_c, 0, 72, 63
2,43075, Note_on_c, 0, 56, 50
2,43084, Note_on_c, 0, 75, 0
2,43128, Note_on_c, 0, 54, 0
2,43240, Note_on_c, 0, 56, 0
2,43245, Note_on_c, 0, 73, 61
2,43247, Note_on_c, 0, 58, 51
2,43248, Note_on_c, 0, 72, 0
2,43250, Note_on_c, 0, 68, 61
2,43422, Note_on_c, 0, 58, 0
2,43430, Note_on_c, 0, 54, 56
2,43597, Note_on_c, 0, 51, 47
2,43598, Note_on_c, 0, 66, 66
2,43614, Note_on_c, 0, 54, 0
2,43643, Note_on_c, 0, 68, 0
2,43771, Note_on_c, 0, 72, 58
2,43792, Note_on_c, 0, 73, 0
2,43926, Note_on_c, 0, 53, 49
2,43940, Note_on_c, 0, 73, 62
2,43942, Note_on_c, 0, 65, 63
2,43946, Note_on_c, 0, 66, 0
2,43949, Note_on_c, 0, 72, 0
2,44006, Note_on_c, 0, 51, 0
2,44101, Note_on_c, 0, 53, 0
2,44115, Note_on_c, 0, 54, 52
2,44265, Note_on_c, 0, 54, 0
2,44297, Note_on_c, 0, 56, 45
2,44302, Note_on_c, 0, 65, 0
2,44305, Note_on_c, 0, 63, 56
2,44497, Note_on_c, 0, 56, 0
2,44657, Note_on_c, 0, 44, 42
2,44666, Note_on_c, 0, 68, 53
2,44672, Note_on_c, 0, 72, 58
2,44743, Note_on_c, 0, 73, 0
2,44762, Note_on_c, 0, 63, 0
2,44952, Note_on_c, 0, 68, 0
2,44970, Note_on_c, 0, 72, 0
2,45018, Note_on_c, 0, 44, 0
2,45091, Note_on_c, 0, 49, 39
2,45098, Note_on_c, 0, 65, 52
2,45103, Note_on_c, 0, 73, 53
2,45263, Note_on_c, 0, 49, 0
2,45276, Note_on_c, 0, 68, 55
2,45293, Note_on_c, 0, 65, 0
2,45312, Note_on_c, 0, 68, 0
2,45449, Note_on_c, 0, 68, 58
2,45453, Note_on_c, 0, 61, 45
2,45634, Note_on_c, 0, 65, 57
2,45658, Note_on_c, 0, 68, 0
2,45670, Note_on_c, 0, 65, 0
2,45676, Note_on_c, 0, 61, 0
2,45804, Note_on_c, 0, 63, 59
2,45807, Note_on_c, 0, 60, 50
2,45875, Note_on_c, 0, 73, 0
2,45966, Note_on_c, 0, 68, 63
2,45991, Note_on_c, 0, 63, 0
2,46006, Note_on_c, 0, 60, 0
2,46020, Note_on_c, 0, 68, 0
2,46131, Note_on_c, 0, 72, 65
2,46136, Note_on_c, 0, 68, 61
2,46138, Note_on_c, 0, 56, 49
2,46270, Note_on_c, 0, 68, 0
2,46303, Note_on_c, 0, 63, 64
2,46343, Note_on_c, 0, 72, 0
2,46351, Note_on_c, 0, 63, 0
2,46402, Note_on_c, 0, 56, 0
2,46474, Note_on_c, 0, 73, 73
2,46480, Note_on_c, 0, 65, 57
2,46484, Note_on_c, 0, 61, 48
2,46646, Note_on_c, 0, 77, 77
2,46659, Note_on_c, 0, 73, 0
2,46672, Note_on_c, 0, 61, 0
2,46687, Note_on_c, 0, 77, 0
2,46813, Note_on_c, 0, 77, 78
2,46838, Note_on_c, 0, 58, 43
2,46988, Note_on_c, 0, 73, 71
2,47026, Note_on_c, 0, 65, 0
2,47026, Note_on_c, 0, 77, 0
2,47039, Note_on_c, 0, 58, 0
2,47054, Note_on_c, 0, 73, 0
2,47155, Note_on_c, 0, 72, 73
2,47175, Note_on_c, 0, 57, 49
2,47330, Note_on_c, 0, 77, 78
2,47367, Note_on_c, 0, 72, 0
2,47385, Note_on_c, 0, 77, 0
2,47400, Note_on_c, 0, 57, 0
2,47497, Note_on_c, 0, 77, 78
2,47499, Note_on_c, 0, 69, 66
2,47509, Note_on_c, 0, 53, 47
2,47674, Note_on_c, 0, 72, 72
2,47691, Note_on_c, 0, 77, 0
2,47694, Note_on_c, 0, 69, 0
2,47716, Note_on_c, 0, 72, 0
2,47805, Note_on_c, 0, 53, 0
2,47857, Note_on_c, 0, 73, 68
2,47866, Note_on_c, 0, 70, 55
2,47872, Note_on_c, 0, 58, 40
2,48041, Note_on_c, 0, 61, 61
2,48058, Note_on_c, 0, 58, 0
2,48060, Note_on_c, 0, 73, 0
2,48074, Note_on_c, 0, 61, 0
2,48208, Note_on_c, 0, 61, 41
2,48213, Note_on_c, 0, 77, 73
2,48365, Note_on_c, 0, 58, 57
2,48386, Note_on_c, 0, 61, 0
2,48407, Note_on_c, 0, 77, 0
2,48410, Note_on_c, 0, 58, 0
2,48556, Note_on_c, 0, 82, 71
2,48574, Note_on_c, 0, 54, 45
2,48746, Note_on_c, 0, 58, 54
2,48780, Note_on_c, 0, 58, 0
2,48798, Note_on_c, 0, 54, 0
2,48921, Note_on_c, 0, 58, 44
2,48921, Note_on_c, 0, 73, 57
2,49093, Note_on_c, 0, 54, 60
2,49106, Note_on_c, 0, 70, 0
2,49109, Note_on_c, 0, 58, 0
2,49142, Note_on_c, 0, 54, 0
2,49152, Note_on_c, 0, 73, 0
2,49254, Note_on_c, 0, 71, 66
2,49262, Note_on_c, 0, 51, 42
2,49424, Note_on_c, 0, 82, 0
2,49443, Note_on_c, 0, 59, 59
2,49482, Note_on_c, 0, 59, 0
2,49548, Note_on_c, 0, 51, 0
2,49598, Note_on_c, 0, 80, 72
2,49624, Note_on_c, 0, 59, 50
2,49779, Note_on_c, 0, 78, 72
2,49786, Note_on_c, 0, 56, 60
2,49802, Note_on_c, 0, 59, 0
2,49819, Note_on_c, 0, 80, 0
2,49838, Note_on_c, 0, 56, 0
2,49965, Note_on_c, 0, 80, 77
2,49976, Note_on_c, 0, 53, 49
2,50002, Note_on_c, 0, 78, 0
2,50085, Note_on_c, 0, 71, 0
2,50143, Note_on_c, 0, 56, 60
2,50168, Note_on_c, 0, 53, 0
2,50191, Note_on_c, 0, 56, 0
2,50317, Note_on_c, 0, 71, 70
2,50335, Note_on_c, 0, 56, 46
2,50501, Note_on_c, 0, 53, 57
2,50519, Note_on_c, 0, 56, 0
2,50550, Note_on_c, 0, 71, 0
2,50573, Note_on_c, 0, 53, 0
2,50647, Note_on_c, 0, 70, 67
2,50657, Note_on_c, 0, 50, 46
2,50824, Note_on_c, 0, 80, 0
2,50843, Note_on_c, 0, 58, 62
2,50880, Note_on_c, 0, 58, 0
2,50941, Note_on_c, 0, 50, 0
2,51011, Note_on_c, 0, 78, 77
2,51023, Note_on_c, 0, 58, 53
2,51198, Note_on_c, 0, 54, 63
2,51198, Note_on_c, 0, 77, 77
2,51214, Note_on_c, 0, 58, 0
2,51241, Note_on_c, 0, 78, 0
2,51266, Note_on_c, 0, 54, 0
2,51367, Note_on_c, 0, 78, 72
2,51385, Note_on_c, 0, 51, 56
2,51431, Note_on_c, 0, 77, 0
2,51498, Note_on_c, 0, 70, 0
2,51544, Note_on_c, 0, 54, 64
2,51587, Note_on_c, 0, 51, 0
2,51587, Note_on_c, 0, 54, 0
2,51703, Note_on_c, 0, 70, 66
2,51733, Note_on_c, 0, 54, 47
2,51888, Note_on_c, 0, 51, 71
2,51904, Note_on_c, 0, 54, 0
2,51925, Note_on_c, 0, 51, 0
2,51956, Note_on_c, 0, 70, 0
2,52049, Note_on_c, 0, 68, 64
2,52055, Note_on_c, 0, 47, 50
2,52239, Note_on_c, 0, 51, 67
2,52255, Note_on_c, 0, 47, 0
2,52276, Note_on_c, 0, 51, 0
2,52280, Note_on_c, 0, 78, 0
2,52394, Note_on_c, 0, 51, 65
2,52414, Note_on_c, 0, 78, 82
2,52590, Note_on_c, 0, 47, 60
2,52600, Note_on_c, 0, 51, 0
2,52631, Note_on_c, 0, 47, 0
2,52766, Note_on_c, 0, 77, 75
2,52785, Note_on_c, 0, 44, 45
2,52822, Note_on_c, 0, 78, 0
2,52935, Note_on_c, 0, 47, 61
2,52973, Note_on_c, 0, 44, 0
2,52980, Note_on_c, 0, 47, 0
2,53117, Note_on_c, 0, 47, 54
2,53123, Note_on_c, 0, 75, 77
2,53238, Note_on_c, 0, 77, 0
2,53309, Note_on_c, 0, 44, 54
2,53313, Note_on_c, 0, 47, 0
2,53369, Note_on_c, 0, 75, 0
2,53408, Note_on_c, 0, 68, 0
2,53474, Note_on_c, 0, 44, 0
2,53475, Note_on_c, 0, 74, 65
2,53483, Note_on_c, 0, 46, 57
2,53655, Note_on_c, 0, 46, 0
2,53664, Note_on_c, 0, 71, 66
2,53852, Note_on_c, 0, 46, 62
2,53860, Note_on_c, 0, 70, 57
2,53924, Note_on_c, 0, 71, 0
2,54038, Note_on_c, 0, 68, 55
2,54073, Note_on_c, 0, 70, 0
2,54198, Note_on_c, 0, 51, 72
2,54206, Note_on_c, 0, 66, 50
2,54235, Note_on_c, 0, 68, 0
2,54307, Note_on_c, 0, 46, 0
2,54374, Note_on_c, 0, 68, 62
2,54416, Note_on_c, 0, 66, 0
2,54541, Note_on_c, 0, 50, 66
2,54557, Note_on_c, 0, 70, 59
2,54585, Note_on_c, 0, 68, 0
2,54618, Note_on_c, 0, 51, 0
2,54714, Note_on_c, 0, 74, 0
2,54725, Note_on_c, 0, 65, 64
2,54732, Note_on_c, 0, 70, 0
2,54780, Note_on_c, 0, 50, 0
2,54900, Note_on_c, 0, 51, 73
2,54913, Note_on_c, 0, 66, 60
2,54947, Note_on_c, 0, 65, 0
2,55082, Note_on_c, 0, 68, 55
2,55104, Note_on_c, 0, 66, 0
2,55241, Note_on_c, 0, 49, 62
2,55245, Note_on_c, 0, 68, 0
2,55245, Note_on_c, 0, 70, 54
2,55255, Note_on_c, 0, 63, 43
2,55313, Note_on_c, 0, 51, 0
2,55411, Note_on_c, 0, 49, 0
2,55418, Note_on_c, 0, 47, 59
2,55418, Note_on_c, 0, 65, 46
2,55457, Note_on_c, 0, 63, 0
2,55587, Note_on_c, 0, 47, 0
2,55590, Note_on_c, 0, 65, 0
2,55593, Note_on_c, 0, 46, 62
2,55595, Note_on_c, 0, 66, 56
2,55717, Note_on_c, 0, 70, 0
2,55743, Note_on_c, 0, 46, 0
2,55762, Note_on_c, 0, 47, 62
2,55767, Note_on_c, 0, 66, 0
2,55774, Note_on_c, 0, 63, 65
2,55811, Note_on_c, 0, 47, 0
2,55811, Note_on_c, 0, 63, 0
2,55853, Note_on_c, 0, 46, 64
2,55896, Note_on_c, 0, 46, 0
2,55914, Note_on_c, 0, 63, 57
2,55929, Note_on_c, 0, 47, 54
2,55930, Note_on_c, 0, 75, 54
2,55977, Note_on_c, 0, 47, 0
2,56007, Note_on_c, 0, 46, 48
2,56047, Note_on_c, 0, 46, 0
2,56063, Note_on_c, 0, 44, 59
2,56079, Note_on_c, 0, 66, 63
2,56112, Note_on_c, 0, 75, 0
2,56121, Note_on_c, 0, 63, 0
2,56124, Note_on_c, 0, 66, 0
2,56146, Note_on_c, 0, 46, 58
2,56149, Note_on_c, 0, 44, 0
2,56244, Note_on_c, 0, 75, 62
2,56248, Note_on_c, 0, 68, 61
2,56253, Note_on_c, 0, 46, 0
2,56269, Note_on_c, 0, 47, 48
2,56434, Note_on_c, 0, 63, 62
2,56468, Note_on_c, 0, 68, 0
2,56471, Note_on_c, 0, 63, 0
2,56602, Note_on_c, 0, 63, 55
2,56774, Note_on_c, 0, 68, 58
2,56813, Note_on_c, 0, 63, 0
2,56826, Note_on_c, 0, 68, 0
2,56927, Note_on_c, 0, 47, 0
2,56957, Note_on_c, 0, 70, 56
2,57133, Note_on_c, 0, 63, 49
2,57163, Note_on_c, 0, 63, 0
2,57226, Note_on_c, 0, 70, 0
2,57292, Note_on_c, 0, 63, 46
2,57298, Note_on_c, 0, 46, 48
2,57475, Note_on_c, 0, 70, 54
2,57534, Note_on_c, 0, 70, 0
2,57535, Note_on_c, 0, 63, 0
2,57640, Note_on_c, 0, 71, 62
2,57648, Note_on_c, 0, 44, 58
2,57732, Note_on_c, 0, 46, 0
2,57814, Note_on_c, 0, 63, 60
2,57847, Note_on_c, 0, 71, 0
2,57848, Note_on_c, 0, 63, 0
2,57990, Note_on_c, 0, 42, 60
2,57991, Note_on_c, 0, 63, 61
2,58045, Note_on_c, 0, 44, 0
2,58159, Note_on_c, 0, 71, 67
2,58210, Note_on_c, 0, 75, 0
2,58228, Note_on_c, 0, 63, 0
2,58336, Note_on_c, 0, 74, 67
2,58338, Note_on_c, 0, 41, 53
2,58345, Note_on_c, 0, 68, 58
2,58382, Note_on_c, 0, 71, 0
2,58391, Note_on_c, 0, 42, 0
2,58522, Note_on_c, 0, 41, 0
2,58531, Note_on_c, 0, 63, 64
2,58575, Note_on_c, 0, 63, 0
2,58655, Note_on_c, 0, 74, 0
2,58692, Note_on_c, 0, 63, 63
2,58700, Note_on_c, 0, 46, 54
2,58871, Note_on_c, 0, 63, 0
2,58874, Note_on_c, 0, 74, 69
2,58896, Note_on_c, 0, 46, 0
2,58942, Note_on_c, 0, 68, 0
2,59035, Note_on_c, 0, 39, 50
2,59045, Note_on_c, 0, 75, 70
2,59067, Note_on_c, 0, 74, 0
2,59229, Note_on_c, 0, 66, 66
2,59288, Note_on_c, 0, 39, 0
2,59390, Note_on_c, 0, 42, 53
2,59391, Note_on_c, 0, 68, 64
2,59407, Note_on_c, 0, 66, 0
2,59570, Note_on_c, 0, 70, 61
2,59586, Note_on_c, 0, 68, 0
2,59639, Note_on_c, 0, 42, 0
2,59719, Note_on_c, 0, 70, 0
2,59739, Note_on_c, 0, 71, 75
2,59742, Note_on_c, 0, 75, 0
2,59753, Note_on_c, 0, 44, 44
2,59920, Note_on_c, 0, 77, 76
2,60083, Note_on_c, 0, 78, 78
2,60106, Note_on_c, 0, 77, 0
2,60223, Note_on_c, 0, 71, 0
2,60252, Note_on_c, 0, 80, 73
2,60285, Note_on_c, 0, 78, 0
2,60440, Note_on_c, 0, 74, 66
2,60453, Note_on_c, 0, 70, 56
2,60461, Note_on_c, 0, 80, 0
2,60561, Note_on_c, 0, 70, 0
2,60619, Note_on_c, 0, 44, 0
2,60626, Note_on_c, 0, 53, 51
2,60632, Note_on_c, 0, 83, 79
2,60636, Note_on_c, 0, 74, 0
2,60782, Note_on_c, 0, 82, 76
2,60798, Note_on_c, 0, 53, 0
2,60799, Note_on_c, 0, 54, 57
2,60819, Note_on_c, 0, 83, 0
2,60916, Note_on_c, 0, 82, 0
2,60964, Note_on_c, 0, 75, 67
2,60981, Note_on_c, 0, 54, 0
2,60981, Note_on_c, 0, 56, 52
2,61137, Note_on_c, 0, 80, 55
2,61157, Note_on_c, 0, 58, 45
2,61171, Note_on_c, 0, 56, 0
2,61177, Note_on_c, 0, 80, 0
2,61193, Note_on_c, 0, 78, 68
2,61225, Note_on_c, 0, 78, 0
2,61263, Note_on_c, 0, 80, 50
2,61285, Note_on_c, 0, 80, 0
2,61298, Note_on_c, 0, 78, 57
2,61305, Note_on_c, 0, 75, 0
2,61325, Note_on_c, 0, 75, 28
2,61327, Note_on_c, 0, 78, 0
2,61353, Note_on_c, 0, 80, 69
2,61357, Note_on_c, 0, 75, 0
2,61390, Note_on_c, 0, 58, 0
2,61392, Note_on_c, 0, 80, 0
2,61393, Note_on_c, 0, 78, 61
2,61466, Note_on_c, 0, 78, 0
2,61482, Note_on_c, 0, 77, 61
2,61505, Note_on_c, 0, 74, 49
2,61518, Note_on_c, 0, 46, 22
2,61568, Note_on_c, 0, 74, 0
2,61728, Note_on_c, 0, 75, 61
2,61762, Note_on_c, 0, 77, 0
2,61874, Note_on_c, 0, 75, 0
2,62022, Note_on_c, 0, 75, 53
2,62044, Note_on_c, 0, 46, 0
2,62044, Note_on_c, 0, 51, 43
2,62232, Note_on_c, 0, 58, 47
2,62253, Note_on_c, 0, 51, 0
2,62262, Note_on_c, 0, 58, 0
2,62388, Note_on_c, 0, 58, 39
2,62393, Note_on_c, 0, 78, 53
2,62424, Note_on_c, 0, 75, 0
2,62574, Note_on_c, 0, 54, 46
2,62589, Note_on_c, 0, 58, 0
2,62624, Note_on_c, 0, 54, 0
2,62760, Note_on_c, 0, 51, 44
2,62763, Note_on_c, 0, 83, 64
2,62863, Note_on_c, 0, 78, 0
2,62937, Note_on_c, 0, 54, 49
2,62940, Note_on_c, 0, 51, 0
2,62980, Note_on_c, 0, 54, 0
2,63115, Note_on_c, 0, 82, 66
2,63149, Note_on_c, 0, 54, 33
2,63205, Note_on_c, 0, 83, 0
2,63303, Note_on_c, 0, 51, 59
2,63310, Note_on_c, 0, 54, 0
2,63335, Note_on_c, 0, 51, 0
2,63478, Note_on_c, 0, 44, 45
2,63481, Note_on_c, 0, 83, 64
2,63532, Note_on_c, 0, 82, 0
2,63534, Note_on_c, 0, 44, 0
2,63668, Note_on_c, 0, 63, 56
2,63705, Note_on_c, 0, 63, 0
2,63827, Note_on_c, 0, 75, 63
2,63839, Note_on_c, 0, 63, 48
2,64014, Note_on_c, 0, 59, 59
2,64022, Note_on_c, 0, 63, 0
2,64054, Note_on_c, 0, 59, 0
2,64190, Note_on_c, 0, 80, 64
2,64194, Note_on_c, 0, 56, 51
2,64270, Note_on_c, 0, 75, 0
2,64362, Note_on_c, 0, 59, 58
2,64365, Note_on_c, 0, 56, 0
2,64403, Note_on_c, 0, 59, 0
2,64549, Note_on_c, 0, 78, 71
2,64556, Note_on_c, 0, 59, 41
2,64652, Note_on_c, 0, 80, 0
2,64723, Note_on_c, 0, 56, 60
2,64729, Note_on_c, 0, 59, 0
2,64769, Note_on_c, 0, 56, 0
2,64909, Note_on_c, 0, 80, 69
2,64923, Note_on_c, 0, 53, 38
2,64986, Note_on_c, 0, 78, 0
2,64997, Note_on_c, 0, 83, 0
2,65090, Note_on_c, 0, 56, 63
2,65117, Note_on_c, 0, 53, 0
2,65129, Note_on_c, 0, 56, 0
2,65262, Note_on_c, 0, 77, 75
2,65267, Note_on_c, 0, 56, 53
2,65447, Note_on_c, 0, 53, 65
2,65470, Note_on_c, 0, 56, 0
2,65485, Note_on_c, 0, 53, 0
2,65626, Note_on_c, 0, 82, 75
2,65629, Note_on_c, 0, 49, 47
2,65673, Note_on_c, 0, 80, 0
2,65732, Note_on_c, 0, 77, 0
2,65789, Note_on_c, 0, 53, 61
2,65833, Note_on_c, 0, 53, 0
2,65845, Note_on_c, 0, 49, 0
2,65972, Note_on_c, 0, 80, 77
2,65979, Note_on_c, 0, 53, 46
2,66080, Note_on_c, 0, 82, 0
2,66132, Note_on_c, 0, 49, 66
2,66147, Note_on_c, 0, 53, 0
2,66180, Note_on_c, 0, 49, 0
2,66334, Note_on_c, 0, 42, 33
2,66343, Note_on_c, 0, 82, 79
2,66415, Note_on_c, 0, 80, 0
2,66417, Note_on_c, 0, 42, 0
2,66517, Note_on_c, 0, 61, 70
2,66551, Note_on_c, 0, 61, 0
2,66678, Note_on_c, 0, 61, 49
2,66690, Note_on_c, 0, 73, 67
2,66864, Note_on_c, 0, 58, 63
2,66900, Note_on_c, 0, 61, 0
2,66921, Note_on_c, 0, 58, 0
2,67035, Note_on_c, 0, 78, 73
2,67045, Note_on_c, 0, 54, 51
2,67209, Note_on_c, 0, 58, 63
2,67212, Note_on_c, 0, 73, 0
2,67236, Note_on_c, 0, 54, 0
2,67253, Note_on_c, 0, 58, 0
2,67385, Note_on_c, 0, 58, 60
2,67386, Note_on_c, 0, 77, 78
2,67456, Note_on_c, 0, 78, 0
2,67558, Note_on_c, 0, 54, 66
2,67587, Note_on_c, 0, 58, 0
2,67612, Note_on_c, 0, 54, 0
2,67734, Note_on_c, 0, 51, 55
2,67735, Note_on_c, 0, 78, 77
2,67813, Note_on_c, 0, 82, 0
2,67817, Note_on_c, 0, 77, 0
2,67913, Note_on_c, 0, 54, 68
2,67944, Note_on_c, 0, 51, 0
2,67980, Note_on_c, 0, 54, 0
2,68103, Note_on_c, 0, 54, 62
2,68103, Note_on_c, 0, 82, 83
2,68107, Note_on_c, 0, 73, 59
2,68148, Note_on_c, 0, 78, 0
2,68269, Note_on_c, 0, 51, 65
2,68308, Note_on_c, 0, 54, 0
2,68319, Note_on_c, 0, 51, 0
2,68449, Note_on_c, 0, 80, 78
2,68452, Note_on_c, 0, 75, 70
2,68458, Note_on_c, 0, 47, 52
2,68509, Note_on_c, 0, 73, 0
2,68514, Note_on_c, 0, 82, 0
2,68605, Note_on_c, 0, 51, 70
2,68666, Note_on_c, 0, 47, 0
2,68673, Note_on_c, 0, 51, 0
2,68802, Note_on_c, 0, 51, 60
2,68812, Note_on_c, 0, 78, 81
2,68893, Note_on_c, 0, 80, 0
2,68976, Note_on_c, 0, 47, 65
2,68997, Note_on_c, 0, 51, 0
2,69024, Note_on_c, 0, 47, 0
2,69149, Note_on_c, 0, 77, 81
2,69165, Note_on_c, 0, 49, 54
2,69184, Note_on_c, 0, 78, 0
2,69211, Note_on_c, 0, 75, 0
2,69342, Note_on_c, 0, 68, 55
2,69371, Note_on_c, 0, 68, 0
2,69447, Note_on_c, 0, 49, 0
2,69503, Note_on_c, 0, 68, 61
2,69518, Note_on_c, 0, 37, 49
2,69671, Note_on_c, 0, 73, 67
2,69708, Note_on_c, 0, 77, 0
2,69731, Note_on_c, 0, 68, 0
2,69746, Note_on_c, 0, 73, 0
2,69831, Note_on_c, 0, 37, 0
2,69840, Note_on_c, 0, 76, 82
2,69854, Note_on_c, 0, 73, 65
2,70030, Note_on_c, 0, 68, 68
2,70085, Note_on_c, 0, 68, 0
2,70200, Note_on_c, 0, 68, 72
2,70201, Note_on_c, 0, 61, 51
2,70373, Note_on_c, 0, 71, 76
2,70382, Note_on_c, 0, 59, 63
2,70401, Note_on_c, 0, 68, 0
2,70413, Note_on_c, 0, 61, 0
2,70428, Note_on_c, 0, 73, 0
2,70521, Note_on_c, 0, 76, 0
2,70591, Note_on_c, 0, 61, 62
2,70591, Note_on_c, 0, 70, 73
2,70629, Note_on_c, 0, 71, 0
2,70666, Note_on_c, 0, 59, 0
2,70780, Note_on_c, 0, 73, 69
2,70842, Note_on_c, 0, 73, 0
2,70847, Note_on_c, 0, 61, 0
2,70950, Note_on_c, 0, 54, 57
2,70958, Note_on_c, 0, 73, 74
2,71120, Note_on_c, 0, 76, 71
2,71127, Note_on_c, 0, 73, 0
2,71181, Note_on_c, 0, 54, 0
2,71293, Note_on_c, 0, 75, 70
2,71296, Note_on_c, 0, 76, 0
2,71311, Note_on_c, 0, 59, 48
2,71462, Note_on_c, 0, 71, 64
2,71480, Note_on_c, 0, 75, 0
2,71500, Note_on_c, 0, 59, 0
2,71517, Note_on_c, 0, 71, 0
2,71636, Note_on_c, 0, 71, 63
2,71640, Note_on_c, 0, 58, 49
2,71811, Note_on_c, 0, 75, 63
2,71859, Note_on_c, 0, 71, 0
2,71863, Note_on_c, 0, 70, 0
2,71903, Note_on_c, 0, 75, 0
2,71955, Note_on_c, 0, 58, 0
2,72012, Note_on_c, 0, 68, 72
2,72024, Note_on_c, 0, 75, 61
2,72026, Note_on_c, 0, 59, 49
2,72195, Note_on_c, 0, 71, 61
2,72243, Note_on_c, 0, 75, 0
2,72259, Note_on_c, 0, 71, 0
2,72265, Note_on_c, 0, 59, 0
2,72378, Note_on_c, 0, 71, 59
2,72404, Note_on_c, 0, 53, 13
2,72538, Note_on_c, 0, 75, 62
2,72545, Note_on_c, 0, 71, 0
2,72623, Note_on_c, 0, 53, 0
2,72722, Note_on_c, 0, 73, 59
2,72723, Note_on_c, 0, 58, 50
2,72769, Note_on_c, 0, 75, 0
2,72885, Note_on_c, 0, 70, 56
2,72902, Note_on_c, 0, 73, 0
2,72932, Note_on_c, 0, 70, 0
2,72938, Note_on_c, 0, 58, 0
2,73054, Note_on_c, 0, 70, 61
2,73058, Note_on_c, 0, 56, 46
2,73253, Note_on_c, 0, 73, 53
2,73285, Note_on_c, 0, 68, 0
2,73290, Note_on_c, 0, 70, 0
2,73304, Note_on_c, 0, 73, 0
2,73344, Note_on_c, 0, 56, 0
2,73429, Note_on_c, 0, 66, 58
2,73437, Note_on_c, 0, 73, 51
2,73438, Note_on_c, 0, 58, 48
2,73611, Note_on_c, 0, 70, 54
2,73630, Note_on_c, 0, 73, 0
2,73658, Note_on_c, 0, 70, 0
2,73680, Note_on_c, 0, 58, 0
2,73788, Note_on_c, 0, 51, 43
2,73788, Note_on_c, 0, 70, 57
2,73961, Note_on_c, 0, 73, 54
2,73976, Note_on_c, 0, 70, 0
2,73993, Note_on_c, 0, 51, 0
2,74072, Note_on_c, 0, 73, 0
2,74123, Note_on_c, 0, 71, 60
2,74137, Note_on_c, 0, 56, 39
2,74285, Note_on_c, 0, 71, 0
2,74298, Note_on_c, 0, 68, 45
2,74322, Note_on_c, 0, 56, 0
2,74337, Note_on_c, 0, 68, 0
2,74455, Note_on_c, 0, 68, 52
2,74460, Note_on_c, 0, 54, 40
2,74647, Note_on_c, 0, 71, 52
2,74664, Note_on_c, 0, 68, 0
2,74687, Note_on_c, 0, 71, 0
2,74711, Note_on_c, 0, 66, 0
2,74721, Note_on_c, 0, 54, 0
2,74841, Note_on_c, 0, 65, 50
2,74852, Note_on_c, 0, 56, 44
2,74852, Note_on_c, 0, 71, 49
2,75027, Note_on_c, 0, 68, 44
2,75030, Note_on_c, 0, 71, 0
2,75055, Note_on_c, 0, 56, 0
2,75067, Note_on_c, 0, 68, 0
2,75188, Note_on_c, 0, 49, 34
2,75202, Note_on_c, 0, 68, 45
2,75371, Note_on_c, 0, 71, 46
2,75405, Note_on_c, 0, 68, 0
2,75415, Note_on_c, 0, 49, 0
2,75507, Note_on_c, 0, 71, 0
2,75541, Note_on_c, 0, 70, 52
2,75552, Note_on_c, 0, 54, 43
2,75720, Note_on_c, 0, 71, 46
2,75743, Note_on_c, 0, 54, 0
2,75762, Note_on_c, 0, 70, 0
2,75877, Note_on_c, 0, 53, 42
2,75883, Note_on_c, 0, 71, 0
2,75890, Note_on_c, 0, 73, 55
2,76050, Note_on_c, 0, 68, 48
2,76057, Note_on_c, 0, 53, 0
2,76091, Note_on_c, 0, 73, 0
2,76232, Note_on_c, 0, 54, 42
2,76233, Note_on_c, 0, 70, 55
2,76281, Note_on_c, 0, 68, 0
2,76298, Note_on_c, 0, 65, 0
2,76427, Note_on_c, 0, 58, 50
2,76466, Note_on_c, 0, 58, 0
2,76483, Note_on_c, 0, 54, 0
2,76579, Note_on_c, 0, 58, 44
2,76594, Note_on_c, 0, 66, 58
2,76594, Note_on_c, 0, 73, 62
2,76597, Note_on_c, 0, 70, 0
2,76754, Note_on_c, 0, 54, 60
2,76761, Note_on_c, 0, 58, 0
2,76792, Note_on_c, 0, 54, 0
2,76918, Note_on_c, 0, 71, 71
2,76919, Note_on_c, 0, 75, 69
2,76934, Note_on_c, 0, 51, 53
2,76949, Note_on_c, 0, 73, 0
2,77001, Note_on_c, 0, 66, 0
2,77099, Note_on_c, 0, 54, 63
2,77117, Note_on_c, 0, 51, 0
2,77138, Note_on_c, 0, 54, 0
2,77281, Note_on_c, 0, 54, 51
2,77284, Note_on_c, 0, 70, 74
2,77289, Note_on_c, 0, 76, 65
2,77297, Note_on_c, 0, 71, 0
2,77334, Note_on_c, 0, 75, 0
2,77445, Note_on_c, 0, 51, 60
2,77477, Note_on_c, 0, 54, 0
2,77524, Note_on_c, 0, 51, 0
2,77579, Note_on_c, 0, 70, 0
2,77617, Note_on_c, 0, 71, 75
2,77625, Note_on_c, 0, 47, 49
2,77821, Note_on_c, 0, 75, 54
2,77914, Note_on_c, 0, 76, 0
2,77950, Note_on_c, 0, 47, 0
2,77971, Note_on_c, 0, 71, 0
2,77975, Note_on_c, 0, 70, 67
2,77986, Note_on_c, 0, 73, 57
2,78038, Note_on_c, 0, 75, 0
2,78139, Note_on_c, 0, 70, 0
2,78147, Note_on_c, 0, 76, 65
2,78151, Note_on_c, 0, 68, 65
2,78151, Note_on_c, 0, 73, 0
2,78311, Note_on_c, 0, 75, 69
2,78314, Note_on_c, 0, 66, 54
2,78328, Note_on_c, 0, 68, 0
2,78334, Note_on_c, 0, 76, 0
2,78456, Note_on_c, 0, 66, 0
2,78471, Note_on_c, 0, 68, 59
2,78484, Note_on_c, 0, 71, 60
2,78517, Note_on_c, 0, 75, 0
2,78520, Note_on_c, 0, 71, 0
2,78539, Note_on_c, 0, 68, 0
2,78555, Note_on_c, 0, 66, 63
2,78605, Note_on_c, 0, 66, 0
2,78633, Note_on_c, 0, 68, 63
2,78639, Note_on_c, 0, 71, 67
2,78655, Note_on_c, 0, 59, 38
2,78684, Note_on_c, 0, 68, 0
2,78707, Note_on_c, 0, 66, 63
2,78715, Note_on_c, 0, 59, 0
2,78755, Note_on_c, 0, 66, 0
2,78758, Note_on_c, 0, 71, 0
2,78776, Note_on_c, 0, 75, 70
2,78781, Note_on_c, 0, 64, 59
2,78895, Note_on_c, 0, 66, 44
2,78918, Note_on_c, 0, 64, 0
2,78951, Note_on_c, 0, 66, 0
2,78953, Note_on_c, 0, 76, 65
2,78969, Note_on_c, 0, 68, 52
2,78975, Note_on_c, 0, 59, 44
2,78976, Note_on_c, 0, 75, 0
2,79138, Note_on_c, 0, 71, 59
2,79146, Note_on_c, 0, 76, 0
2,79169, Note_on_c, 0, 71, 0
2,79310, Note_on_c, 0, 71, 52
2,79492, Note_on_c, 0, 76, 63
2,79502, Note_on_c, 0, 71, 0
2,79528, Note_on_c, 0, 76, 0
2,79671, Note_on_c, 0, 78, 63
2,79715, Note_on_c, 0, 68, 0
2,79845, Note_on_c, 0, 71, 47
2,79871, Note_on_c, 0, 71, 0
2,79901, Note_on_c, 0, 78, 0
2,80012, Note_on_c, 0, 71, 49
2,80013, Note_on_c, 0, 66, 65
2,80195, Note_on_c, 0, 78, 71
2,80220, Note_on_c, 0, 71, 0
2,80255, Note_on_c, 0, 78, 0
2,80374, Note_on_c, 0, 64, 60
2,80375, Note_on_c, 0, 80, 72
2,80436, Note_on_c, 0, 66, 0
2,80537, Note_on_c, 0, 71, 66
2,80569, Note_on_c, 0, 71, 0
2,80598, Note_on_c, 0, 80, 0
2,80683, Note_on_c, 0, 63, 62
2,80715, Note_on_c, 0, 71, 57
2,80765, Note_on_c, 0, 64, 0
2,80868, Note_on_c, 0, 80, 70
2,80893, Note_on_c, 0, 71, 0
2,81032, Note_on_c, 0, 61, 64
2,81044, Note_on_c, 0, 82, 73
2,81088, Note_on_c, 0, 80, 0
2,81115, Note_on_c, 0, 63, 0
2,81224, Note_on_c, 0, 71, 76
2,81233, Note_on_c, 0, 61, 0
2,81260, Note_on_c, 0, 71, 0
2,81387, Note_on_c, 0, 71, 67
2,81403, Note_on_c, 0, 66, 65
2,81404, Note_on_c, 0, 82, 0
2,81537, Note_on_c, 0, 66, 0
2,81559, Note_on_c, 0, 82, 74
2,81580, Note_on_c, 0, 71, 0
2,81753, Note_on_c, 0, 83, 63
2,81756, Note_on_c, 0, 63, 51
2,81768, Note_on_c, 0, 59, 0
2,81801, Note_on_c, 0, 82, 0
2,81896, Note_on_c, 0, 63, 0
2,81905, Note_on_c, 0, 83, 0
2,81940, Note_on_c, 0, 58, 51
2,82106, Note_on_c, 0, 63, 58
2,82108, Note_on_c, 0, 58, 0
2,82121, Note_on_c, 0, 56, 50
2,82223, Note_on_c, 0, 56, 0
2,82293, Note_on_c, 0, 54, 44
2,82426, Note_on_c, 0, 54, 0
2,82479, Note_on_c, 0, 52, 41
2,82489, Note_on_c, 0, 68, 59
2,82558, Note_on_c, 0, 63, 0
2,82654, Note_on_c, 0, 52, 0
2,82657, Note_on_c, 0, 61, 56
2,82691, Note_on_c, 0, 61, 0
2,82820, Note_on_c, 0, 61, 43
2,82828, Note_on_c, 0, 67, 68
2,82907, Note_on_c, 0, 68, 0
2,82996, Note_on_c, 0, 52, 56
2,83003, Note_on_c, 0, 61, 0
2,83040, Note_on_c, 0, 52, 0
2,83174, Note_on_c, 0, 51, 52
2,83174, Note_on_c, 0, 68, 63
2,83180, Note_on_c, 0, 67, 0
2,83361, Note_on_c, 0, 59, 66
2,83399, Note_on_c, 0, 59, 0
2,83420, Note_on_c, 0, 51, 0
2,83533, Note_on_c, 0, 59, 53
2,83535, Note_on_c, 0, 75, 73
2,83714, Note_on_c, 0, 51, 66
2,83717, Note_on_c, 0, 59, 0
2,83753, Note_on_c, 0, 51, 0
2,83872, Note_on_c, 0, 80, 80
2,83880, Note_on_c, 0, 49, 60
2,83981, Note_on_c, 0, 68, 0
2,84050, Note_on_c, 0, 75, 0
2,84064, Note_on_c, 0, 58, 68
2,84081, Note_on_c, 0, 49, 0
2,84122, Note_on_c, 0, 58, 0
2,84232, Note_on_c, 0, 79, 76
2,84239, Note_on_c, 0, 70, 71
2,84246, Note_on_c, 0, 58, 57
2,84290, Note_on_c, 0, 80, 0
2,84397, Note_on_c, 0, 49, 70
2,84417, Note_on_c, 0, 58, 0
2,84481, Note_on_c, 0, 49, 0
2,84491, Note_on_c, 0, 70, 0
2,84580, Note_on_c, 0, 47, 51
2,84584, Note_on_c, 0, 80, 81
2,84587, Note_on_c, 0, 71, 67
2,84619, Note_on_c, 0, 79, 0
2,84753, Note_on_c, 0, 71, 0
2,84766, Note_on_c, 0, 49, 66
2,84791, Note_on_c, 0, 47, 0
2,84936, Note_on_c, 0, 82, 83
2,84945, Note_on_c, 0, 73, 66
2,84949, Note_on_c, 0, 47, 53
2,84984, Note_on_c, 0, 80, 0
2,85014, Note_on_c, 0, 49, 0
2,85110, Note_on_c, 0, 73, 0
2,85112, Note_on_c, 0, 46, 66
2,85125, Note_on_c, 0, 47, 0
2,85283, Note_on_c, 0, 83, 78
2,85284, Note_on_c, 0, 44, 53
2,85299, Note_on_c, 0, 75, 60
2,85332, Note_on_c, 0, 46, 0
2,85336, Note_on_c, 0, 82, 0
2,85460, Note_on_c, 0, 75, 0
2,85462, Note_on_c, 0, 46, 61
2,85553, Note_on_c, 0, 44, 0
2,85636, Note_on_c, 0, 47, 57
2,85644, Note_on_c, 0, 71, 67
2,85644, Note_on_c, 0, 80, 80
2,85666, Note_on_c, 0, 46, 0
2,85763, Note_on_c, 0, 83, 0
2,85806, Note_on_c, 0, 71, 0
2,85813, Note_on_c, 0, 44, 55
2,85813, Note_on_c, 0, 47, 0
2,85992, Note_on_c, 0, 49, 50
2,85997, Note_on_c, 0, 77, 68
2,86005, Note_on_c, 0, 68, 66
2,86045, Note_on_c, 0, 44, 0
2,86102, Note_on_c, 0, 80, 0
2,86169, Note_on_c, 0, 51, 58
2,86176, Note_on_c, 0, 49, 0
2,86354, Note_on_c, 0, 73, 81
2,86363, Note_on_c, 0, 49, 51
2,86411, Note_on_c, 0, 51, 0
2,86445, Note_on_c, 0, 77, 0
2,86517, Note_on_c, 0, 49, 0
2,86522, Note_on_c, 0, 47, 62
2,86708, Note_on_c, 0, 78, 84
2,86730, Note_on_c, 0, 46, 46
2,86750, Note_on_c, 0, 47, 0
2,86805, Note_on_c, 0, 68, 0
2,86819, Note_on_c, 0, 73, 0
2,86882, Note_on_c, 0, 47, 63
2,86904, Note_on_c, 0, 46, 0
2,87062, Note_on_c, 0, 77, 82
2,87064, Note_on_c, 0, 73, 68
2,87073, Note_on_c, 0, 49, 58
2,87096, Note_on_c, 0, 47, 0
2,87127, Note_on_c, 0, 78, 0
2,87216, Note_on_c, 0, 49, 0
2,87229, Note_on_c, 0, 46, 59
2,87410, Note_on_c, 0, 78, 86
2,87411, Note_on_c, 0, 70, 66
2,87415, Note_on_c, 0, 51, 60
2,87433, Note_on_c, 0, 73, 0
2,87459, Note_on_c, 0, 77, 0
2,87498, Note_on_c, 0, 46, 0
2,87599, Note_on_c, 0, 53, 65
2,87622, Note_on_c, 0, 51, 0
2,87755, Note_on_c, 0, 77, 83
2,87765, Note_on_c, 0, 53, 0
2,87765, Note_on_c, 0, 54, 64
2,87923, Note_on_c, 0, 78, 0
2,87929, Note_on_c, 0, 75, 80
2,87977, Note_on_c, 0, 77, 0
2,87988, Note_on_c, 0, 70, 0
2,88098, Note_on_c, 0, 73, 74
2,88116, Note_on_c, 0, 75, 0
2,88253, Note_on_c, 0, 73, 0
2,88257, Note_on_c, 0, 75, 71
2,88270, Note_on_c, 0, 53, 51
2,88321, Note_on_c, 0, 54, 0
2,88344, Note_on_c, 0, 75, 0
2,88350, Note_on_c, 0, 73, 71
2,88413, Note_on_c, 0, 73, 0
2,88416, Note_on_c, 0, 75, 71
2,88426, Note_on_c, 0, 51, 59
2,88447, Note_on_c, 0, 70, 36
2,88450, Note_on_c, 0, 53, 0
2,88492, Note_on_c, 0, 73, 68
2,88514, Note_on_c, 0, 75, 0
2,88524, Note_on_c, 0, 70, 0
2,88563, Note_on_c, 0, 51, 0
2,88567, Note_on_c, 0, 73, 0
2,88575, Note_on_c, 0, 71, 70
2,88588, Note_on_c, 0, 49, 55
2,88659, Note_on_c, 0, 71, 0
2,88662, Note_on_c, 0, 73, 73
2,88746, Note_on_c, 0, 47, 46
2,88746, Note_on_c, 0, 49, 0
2,88758, Note_on_c, 0, 73, 0
2,88761, Note_on_c, 0, 75, 75
2,88769, Note_on_c, 0, 68, 58
2,88846, Note_on_c, 0, 68, 0
2,88933, Note_on_c, 0, 49, 44
2,88955, Note_on_c, 0, 47, 0
2,88970, Note_on_c, 0, 65, 43
2,89086, Note_on_c, 0, 51, 44
2,89108, Note_on_c, 0, 66, 53
2,89161, Note_on_c, 0, 65, 0
2,89260, Note_on_c, 0, 49, 0
2,89265, Note_on_c, 0, 46, 45
2,89273, Note_on_c, 0, 70, 51
2,89286, Note_on_c, 0, 51, 0
2,89319, Note_on_c, 0, 66, 0
2,89453, Note_on_c, 0, 68, 51
2,89455, Note_on_c, 0, 47, 46
2,89465, Note_on_c, 0, 46, 0
2,89469, Note_on_c, 0, 75, 0
2,89613, Note_on_c, 0, 65, 58
2,89621, Note_on_c, 0, 49, 52
2,89670, Note_on_c, 0, 47, 0
2,89794, Note_on_c, 0, 51, 56
2,89802, Note_on_c, 0, 49, 0
2,89804, Note_on_c, 0, 73, 75
2,89817, Note_on_c, 0, 66, 57
2,89832, Note_on_c, 0, 65, 0
2,89862, Note_on_c, 0, 68, 0
2,89868, Note_on_c, 0, 70, 0
2,89952, Note_on_c, 0, 51, 0
2,89954, Note_on_c, 0, 47, 55
2,90141, Note_on_c, 0, 47, 0
2,90148, Note_on_c, 0, 44, 52
2,90150, Note_on_c, 0, 71, 73
2,90226, Note_on_c, 0, 73, 0
2,90293, Note_on_c, 0, 66, 0
2,90329, Note_on_c, 0, 65, 63
2,90498, Note_on_c, 0, 70, 78
2,90505, Note_on_c, 0, 66, 62
2,90520, Note_on_c, 0, 46, 49
2,90556, Note_on_c, 0, 71, 0
2,90573, Note_on_c, 0, 65, 0
2,90604, Note_on_c, 0, 44, 0
2,90670, Note_on_c, 0, 47, 65
2,90677, Note_on_c, 0, 46, 0
2,90855, Note_on_c, 0, 47, 0
2,90856, Note_on_c, 0, 68, 79
2,90860, Note_on_c, 0, 49, 48
2,90931, Note_on_c, 0, 70, 0
2,91089, Note_on_c, 0, 49, 0
2,91243, Note_on_c, 0, 73, 75
2,91252, Note_on_c, 0, 65, 58
2,91256, Note_on_c, 0, 37, 41
2,91292, Note_on_c, 0, 66, 0
2,91296, Note_on_c, 0, 68, 0
2,91537, Note_on_c, 0, 65, 0
2,91558, Note_on_c, 0, 73, 0
2,91649, Note_on_c, 0, 70, 71
2,91650, Note_on_c, 0, 66, 67
2,91664, Note_on_c, 0, 42, 52
2,91670, Note_on_c, 0, 37, 0
2,91820, Note_on_c, 0, 42, 0
2,91834, Note_on_c, 0, 73, 79
2,91857, Note_on_c, 0, 70, 0
2,91894, Note_on_c, 0, 73, 0
2,92000, Note_on_c, 0, 73, 81
2,92005, Note_on_c, 0, 54, 55
2,92178, Note_on_c, 0, 70, 73
2,92197, Note_on_c, 0, 66, 0
2,92215, Note_on_c, 0, 73, 0
2,92229, Note_on_c, 0, 54, 0
2,92251, Note_on_c, 0, 70, 0
2,92343, Note_on_c, 0, 68, 75
2,92348, Note_on_c, 0, 53, 54
2,92515, Note_on_c, 0, 73, 75
2,92552, Note_on_c, 0, 68, 0
2,92572, Note_on_c, 0, 73, 0
2,92599, Note_on_c, 0, 53, 0
2,92689, Note_on_c, 0, 73, 70
2,92700, Note_on_c, 0, 49, 45
2,92701, Note_on_c, 0, 65, 62
2,92867, Note_on_c, 0, 68, 69
2,92886, Note_on_c, 0, 65, 0
2,92908, Note_on_c, 0, 68, 0
2,92917, Note_on_c, 0, 73, 0
2,92986, Note_on_c, 0, 49, 0
2,93025, Note_on_c, 0, 70, 74
2,93028, Note_on_c, 0, 66, 60
2,93042, Note_on_c, 0, 54, 51
2,93210, Note_on_c, 0, 58, 68
2,93241, Note_on_c, 0, 58, 0
2,93245, Note_on_c, 0, 54, 0
2,93262, Note_on_c, 0, 70, 0
2,93370, Note_on_c, 0, 73, 77
2,93373, Note_on_c, 0, 58, 58
2,93546, Note_on_c, 0, 54, 61
2,93587, Note_on_c, 0, 58, 0
2,93594, Note_on_c, 0, 54, 0
2,93603, Note_on_c, 0, 73, 0
2,93711, Note_on_c, 0, 78, 77
2,93721, Note_on_c, 0, 51, 54
2,93885, Note_on_c, 0, 54, 60
2,93901, Note_on_c, 0, 51, 0
2,93930, Note_on_c, 0, 54, 0
2,94076, Note_on_c, 0, 54, 51
2,94078, Note_on_c, 0, 70, 62
2,94246, Note_on_c, 0, 51, 58
2,94276, Note_on_c, 0, 54, 0
2,94292, Note_on_c, 0, 66, 0
2,94298, Note_on_c, 0, 51, 0
2,94328, Note_on_c, 0, 70, 0
2,94424, Note_on_c, 0, 68, 63
2,94430, Note_on_c, 0, 47, 43
2,94593, Note_on_c, 0, 75, 67
2,94639, Note_on_c, 0, 47, 0
2,94649, Note_on_c, 0, 68, 0
2,94660, Note_on_c, 0, 75, 0
2,94777, Note_on_c, 0, 44, 42
2,94786, Note_on_c, 0, 75, 65
2,94956, Note_on_c, 0, 71, 62
2,94997, Note_on_c, 0, 75, 0
2,94997, Note_on_c, 0, 78, 0
2,95009, Note_on_c, 0, 44, 0
2,95022, Note_on_c, 0, 71, 0
2,95155, Note_on_c, 0, 77, 61
2,95162, Note_on_c, 0, 49, 40
2,95174, Note_on_c, 0, 68, 38
2,95379, Note_on_c, 0, 73, 58
2,95380, Note_on_c, 0, 49, 0
2,95413, Note_on_c, 0, 68, 0
2,95430, Note_on_c, 0, 73, 0
2,95606, Note_on_c, 0, 37, 37
2,95619, Note_on_c, 0, 73, 49
2,95917, Note_on_c, 0, 71, 53
2,95937, Note_on_c, 0, 73, 0
2,95966, Note_on_c, 0, 37, 0
2,96231, Note_on_c, 0, 71, 0
2,96530, Note_on_c, 0, 70, 42
2,96533, Note_on_c, 0, 78, 54
2,96547, Note_on_c, 0, 42, 27
2,96595, Note_on_c, 0, 70, 0
2,96595, Note_on_c, 0, 70, 8
2,96628, Note_on_c, 0, 77, 0
2,98824, Note_on_c, 0, 70, 0
2,98835, Note_on_c, 0, 78, 0
2,98837, Note_on_c, 0, 42, 0
2,98838, End_track
0, 0, End_of_file
