0, 0, Header, 1, 2, 384
1, 0, Start_track
1, 0, Tempo, 500000
1, 0, Time_signature, 4, 2, 24, 8
1, 1, End_track
2, 0, Start_track
2, 0, Program_c, 0, 0
2, 0, Control_c, 0, 64, 0
2, 755, Note_on_c, 0, 66, 46
2, 939, Note_on_c, 0, 70, 55
2, 964, Note_on_c, 0, 66, 0
2, 984, Note_on_c, 0, 70, 0
2, 1096, Note_on_c, 0, 73, 65
2, 1156, Note_on_c, 0, 73, 0
2, 1263, Note_on_c, 0, 70, 68
2, 1442, Note_on_c, 0, 66, 65
2, 1458, Note_on_c, 0, 70, 0
2, 1482, Note_on_c, 0, 66, 0
2, 1596, Note_on_c, 0, 73, 76
2, 1669, Note_on_c, 0, 73, 0
2, 1752, Note_on_c, 0, 54, 48
2, 1770, Note_on_c, 0, 75, 66
2, 1873, Note_on_c, 0, 75, 0
2, 1879, Note_on_c, 0, 73, 64
2, 1926, Note_on_c, 0, 73, 0
2, 1929, Note_on_c, 0, 58, 56
2, 1938, Note_on_c, 0, 54, 0
2, 1938, Note_on_c, 0, 75, 60
2, 1974, Note_on_c, 0, 58, 0
2, 1993, Note_on_c, 0, 75, 0
2, 2031, Note_on_c, 0, 73, 47
2, 2065, Note_on_c, 0, 73, 0
2, 2078, Note_on_c, 0, 75, 63
2, 2092, Note_on_c, 0, 61, 63
2, 2119, Note_on_c, 0, 75, 0
2, 2128, Note_on_c, 0, 61, 0
2, 2139, Note_on_c, 0, 73, 67
2, 2171, Note_on_c, 0, 73, 0
2, 2186, Note_on_c, 0, 75, 56
2, 2220, Note_on_c, 0, 75, 0
2, 2234, Note_on_c, 0, 73, 70
2, 2255, Note_on_c, 0, 58, 60
2, 2270, Note_on_c, 0, 73, 0
2, 2287, Note_on_c, 0, 75, 63
2, 2317, Note_on_c, 0, 75, 0
2, 2325, Note_on_c, 0, 73, 58
2, 2363, Note_on_c, 0, 73, 0
2, 2370, Note_on_c, 0, 75, 74
2, 2402, Note_on_c, 0, 58, 0
2, 2415, Note_on_c, 0, 73, 75
2, 2424, Note_on_c, 0, 54, 57
2, 2431, Note_on_c, 0, 75, 0
2, 2471, Note_on_c, 0, 54, 0
2, 2588, Note_on_c, 0, 63, 65
2, 2659, Note_on_c, 0, 63, 0
2, 2767, Note_on_c, 0, 63, 69
2, 2935, Note_on_c, 0, 70, 73
2, 2964, Note_on_c, 0, 73, 0
2, 3001, Note_on_c, 0, 70, 0
2, 3109, Note_on_c, 0, 71, 74
2, 3139, Note_on_c, 0, 63, 0
2, 3287, Note_on_c, 0, 61, 60
2, 3463, Note_on_c, 0, 73, 75
2, 3472, Note_on_c, 0, 71, 0
2, 3518, Note_on_c, 0, 73, 0
2, 3641, Note_on_c, 0, 70, 72
2, 3698, Note_on_c, 0, 61, 0
2, 3831, Note_on_c, 0, 59, 58
2, 4002, Note_on_c, 0, 75, 81
2, 4025, Note_on_c, 0, 70, 0
2, 4057, Note_on_c, 0, 75, 0
2, 4188, Note_on_c, 0, 68, 77
2, 4228, Note_on_c, 0, 59, 0
2, 4372, Note_on_c, 0, 58, 64
2, 4550, Note_on_c, 0, 70, 72
2, 4581, Note_on_c, 0, 68, 0
2, 4615, Note_on_c, 0, 70, 0
2, 4728, Note_on_c, 0, 66, 64
2, 4757, Note_on_c, 0, 58, 0
2, 4904, Note_on_c, 0, 56, 56
2, 5082, Note_on_c, 0, 71, 71
2, 5114, Note_on_c, 0, 66, 0
2, 5126, Note_on_c, 0, 71, 0
2, 5268, Note_on_c, 0, 65, 64
2, 5280, Note_on_c, 0, 56, 0
2, 5450, Note_on_c, 0, 54, 51
2, 5626, Note_on_c, 0, 71, 63
2, 5661, Note_on_c, 0, 65, 0
2, 5663, Note_on_c, 0, 71, 0
2, 5796, Note_on_c, 0, 54, 0
2, 5804, Note_on_c, 0, 63, 56
2, 5990, Note_on_c, 0, 53, 48
2, 6169, Note_on_c, 0, 71, 55
2, 6189, Note_on_c, 0, 63, 0
2, 6225, Note_on_c, 0, 71, 0
2, 6328, Note_on_c, 0, 53, 0
2, 6334, Note_on_c, 0, 61, 60
2, 6374, Note_on_c, 0, 61, 0
2, 6524, Note_on_c, 0, 65, 52
2, 6533, Note_on_c, 0, 49, 35
2, 6710, Note_on_c, 0, 68, 58
2, 6711, Note_on_c, 0, 65, 0
2, 6750, Note_on_c, 0, 68, 0
2, 6867, Note_on_c, 0, 71, 66
2, 6875, Note_on_c, 0, 49, 0
2, 6909, Note_on_c, 0, 71, 0
2, 7051, Note_on_c, 0, 70, 57
2, 7066, Note_on_c, 0, 54, 46
2, 7228, Note_on_c, 0, 66, 52
2, 7243, Note_on_c, 0, 70, 0
2, 7264, Note_on_c, 0, 66, 0
2, 7365, Note_on_c, 0, 54, 0
2, 7411, Note_on_c, 0, 72, 59
2, 7605, Note_on_c, 0, 56, 47
2, 7772, Note_on_c, 0, 66, 63
2, 7807, Note_on_c, 0, 66, 0
2, 7814, Note_on_c, 0, 72, 0
2, 7952, Note_on_c, 0, 56, 0
2, 7952, Note_on_c, 0, 73, 67
2, 8134, Note_on_c, 0, 58, 59
2, 8310, Note_on_c, 0, 66, 69
2, 8336, Note_on_c, 0, 73, 0
2, 8378, Note_on_c, 0, 66, 0
2, 8497, Note_on_c, 0, 75, 81
2, 8516, Note_on_c, 0, 58, 0
2, 8675, Note_on_c, 0, 60, 67
2, 8833, Note_on_c, 0, 75, 0
2, 8845, Note_on_c, 0, 68, 79
2, 8906, Note_on_c, 0, 68, 0
2, 9028, Note_on_c, 0, 77, 86
2, 9029, Note_on_c, 0, 60, 0
2, 9208, Note_on_c, 0, 61, 65
2, 9393, Note_on_c, 0, 80, 85
2, 9413, Note_on_c, 0, 77, 0
2, 9450, Note_on_c, 0, 80, 0
2, 9578, Note_on_c, 0, 73, 78
2, 9600, Note_on_c, 0, 61, 0
2, 9756, Note_on_c, 0, 56, 65
2, 9935, Note_on_c, 0, 75, 82
2, 9959, Note_on_c, 0, 73, 0
2, 9989, Note_on_c, 0, 75, 0
2, 10112, Note_on_c, 0, 72, 83
2, 10117, Note_on_c, 0, 56, 0
2, 10153, Note_on_c, 0, 72, 0
2, 10282, Note_on_c, 0, 73, 80
2, 10290, Note_on_c, 0, 58, 59
2, 10459, Note_on_c, 0, 77, 79
2, 10471, Note_on_c, 0, 73, 0
2, 10493, Note_on_c, 0, 77, 0
2, 10602, Note_on_c, 0, 58, 0
2, 10636, Note_on_c, 0, 73, 75
2, 10664, Note_on_c, 0, 73, 0
2, 10794, Note_on_c, 0, 53, 52
2, 10794, Note_on_c, 0, 73, 76
2, 10823, Note_on_c, 0, 73, 0
2, 10965, Note_on_c, 0, 77, 72
2, 11034, Note_on_c, 0, 75, 72
2, 11034, Note_on_c, 0, 77, 0
2, 11088, Note_on_c, 0, 53, 0
2, 11107, Note_on_c, 0, 75, 0
2, 11120, Note_on_c, 0, 73, 71
2, 11315, Note_on_c, 0, 54, 53
2, 11493, Note_on_c, 0, 82, 57
2, 11520, Note_on_c, 0, 73, 0
2, 11553, Note_on_c, 0, 82, 0
2, 11659, Note_on_c, 0, 54, 0
2, 11676, Note_on_c, 0, 73, 69
2, 11859, Note_on_c, 0, 56, 51
2, 12041, Note_on_c, 0, 75, 67
2, 12072, Note_on_c, 0, 73, 0
2, 12106, Note_on_c, 0, 75, 0
2, 12211, Note_on_c, 0, 56, 0
2, 12217, Note_on_c, 0, 72, 68
2, 12255, Note_on_c, 0, 72, 0
2, 12390, Note_on_c, 0, 73, 65
2, 12404, Note_on_c, 0, 49, 37
2, 12568, Note_on_c, 0, 77, 72
2, 12584, Note_on_c, 0, 73, 0
2, 12608, Note_on_c, 0, 77, 0
2, 12733, Note_on_c, 0, 80, 66
2, 12785, Note_on_c, 0, 80, 0
2, 12908, Note_on_c, 0, 77, 74
2, 12921, Note_on_c, 0, 49, 0
2, 13082, Note_on_c, 0, 73, 72
2, 13094, Note_on_c, 0, 77, 0
2, 13150, Note_on_c, 0, 73, 0
2, 13233, Note_on_c, 0, 80, 74
2, 13318, Note_on_c, 0, 80, 0
2, 13405, Note_on_c, 0, 49, 57
2, 13417, Note_on_c, 0, 82, 76
2, 13522, Note_on_c, 0, 82, 0
2, 13529, Note_on_c, 0, 80, 70
2, 13600, Note_on_c, 0, 53, 52
2, 13602, Note_on_c, 0, 80, 0
2, 13605, Note_on_c, 0, 82, 68
2, 13619, Note_on_c, 0, 49, 0
2, 13648, Note_on_c, 0, 53, 0
2, 13652, Note_on_c, 0, 82, 0
2, 13673, Note_on_c, 0, 80, 72
2, 13710, Note_on_c, 0, 80, 0
2, 13730, Note_on_c, 0, 82, 61
2, 13760, Note_on_c, 0, 56, 70
2, 13767, Note_on_c, 0, 82, 0
2, 13781, Note_on_c, 0, 80, 71
2, 13795, Note_on_c, 0, 56, 0
2, 13819, Note_on_c, 0, 80, 0
2, 13834, Note_on_c, 0, 82, 67
2, 13865, Note_on_c, 0, 82, 0
2, 13892, Note_on_c, 0, 80, 69
2, 13926, Note_on_c, 0, 53, 60
2, 13929, Note_on_c, 0, 80, 0
2, 13933, Note_on_c, 0, 82, 70
2, 13962, Note_on_c, 0, 82, 0
2, 14000, Note_on_c, 0, 80, 44
2, 14025, Note_on_c, 0, 82, 68
2, 14036, Note_on_c, 0, 80, 0
2, 14049, Note_on_c, 0, 80, 56
2, 14053, Note_on_c, 0, 82, 0
2, 14064, Note_on_c, 0, 53, 0
2, 14065, Note_on_c, 0, 49, 55
2, 14104, Note_on_c, 0, 82, 80
2, 14107, Note_on_c, 0, 80, 0
2, 14122, Note_on_c, 0, 49, 0
2, 14153, Note_on_c, 0, 80, 67
2, 14167, Note_on_c, 0, 82, 0
2, 14250, Note_on_c, 0, 58, 71
2, 14314, Note_on_c, 0, 58, 0
2, 14430, Note_on_c, 0, 58, 77
2, 14610, Note_on_c, 0, 77, 76
2, 14624, Note_on_c, 0, 80, 0
2, 14659, Note_on_c, 0, 77, 0
2, 14794, Note_on_c, 0, 78, 80
2, 14818, Note_on_c, 0, 58, 0
2, 14969, Note_on_c, 0, 56, 61
2, 15154, Note_on_c, 0, 80, 80
2, 15168, Note_on_c, 0, 78, 0
2, 15213, Note_on_c, 0, 80, 0
2, 15347, Note_on_c, 0, 77, 77
2, 15356, Note_on_c, 0, 56, 0
2, 15509, Note_on_c, 0, 54, 63
2, 15687, Note_on_c, 0, 82, 80
2, 15727, Note_on_c, 0, 77, 0
2, 15766, Note_on_c, 0, 82, 0
2, 15884, Note_on_c, 0, 75, 80
2, 15906, Note_on_c, 0, 54, 0
2, 16053, Note_on_c, 0, 53, 61
2, 16232, Note_on_c, 0, 77, 76
2, 16261, Note_on_c, 0, 75, 0
2, 16316, Note_on_c, 0, 77, 0
2, 16402, Note_on_c, 0, 74, 74
2, 16418, Note_on_c, 0, 53, 0
2, 16454, Note_on_c, 0, 74, 0
2, 16594, Note_on_c, 0, 51, 45
2, 16596, Note_on_c, 0, 78, 70
2, 16663, Note_on_c, 0, 78, 0
2, 16791, Note_on_c, 0, 70, 63
2, 16828, Note_on_c, 0, 70, 0
2, 16930, Note_on_c, 0, 51, 0
2, 16964, Note_on_c, 0, 71, 68
2, 17136, Note_on_c, 0, 49, 47
2, 17307, Note_on_c, 0, 73, 69
2, 17324, Note_on_c, 0, 71, 0
2, 17370, Note_on_c, 0, 73, 0
2, 17491, Note_on_c, 0, 70, 68
2, 17511, Note_on_c, 0, 49, 0
2, 17670, Note_on_c, 0, 47, 52
2, 17853, Note_on_c, 0, 75, 72
2, 17882, Note_on_c, 0, 70, 0
2, 17901, Note_on_c, 0, 75, 0
2, 18030, Note_on_c, 0, 68, 71
2, 18064, Note_on_c, 0, 47, 0
2, 18221, Note_on_c, 0, 46, 54
2, 18400, Note_on_c, 0, 70, 69
2, 18441, Note_on_c, 0, 68, 0
2, 18470, Note_on_c, 0, 70, 0
2, 18578, Note_on_c, 0, 66, 65
2, 18601, Note_on_c, 0, 46, 0
2, 18759, Note_on_c, 0, 44, 56
2, 18949, Note_on_c, 0, 71, 67
2, 18998, Note_on_c, 0, 66, 0
2, 18998, Note_on_c, 0, 71, 0
2, 19132, Note_on_c, 0, 64, 64
2, 19154, Note_on_c, 0, 44, 0
2, 19306, Note_on_c, 0, 42, 50
2, 19501, Note_on_c, 0, 66, 54
2, 19528, Note_on_c, 0, 64, 0
2, 19567, Note_on_c, 0, 66, 0
2, 19670, Note_on_c, 0, 42, 0
2, 19689, Note_on_c, 0, 63, 49
2, 19739, Note_on_c, 0, 63, 0
2, 19860, Note_on_c, 0, 41, 40
2, 19885, Note_on_c, 0, 68, 57
2, 20057, Note_on_c, 0, 62, 58
2, 20075, Note_on_c, 0, 68, 0
2, 20089, Note_on_c, 0, 62, 0
2, 20236, Note_on_c, 0, 63, 49
2, 20240, Note_on_c, 0, 41, 0
2, 20431, Note_on_c, 0, 51, 55
2, 20609, Note_on_c, 0, 62, 57
2, 20643, Note_on_c, 0, 63, 0
2, 20653, Note_on_c, 0, 62, 0
2, 20790, Note_on_c, 0, 51, 0
2, 20799, Note_on_c, 0, 68, 68
2, 20972, Note_on_c, 0, 50, 61
2, 21130, Note_on_c, 0, 68, 0
2, 21145, Note_on_c, 0, 65, 66
2, 21199, Note_on_c, 0, 65, 0
2, 21340, Note_on_c, 0, 71, 78
2, 21345, Note_on_c, 0, 50, 0
2, 21522, Note_on_c, 0, 46, 58
2, 21646, Note_on_c, 0, 71, 0
2, 21678, Note_on_c, 0, 68, 78
2, 21734, Note_on_c, 0, 68, 0
2, 21872, Note_on_c, 0, 77, 79
2, 21921, Note_on_c, 0, 46, 0
2, 22064, Note_on_c, 0, 51, 61
2, 22233, Note_on_c, 0, 77, 0
2, 22236, Note_on_c, 0, 65, 71
2, 22310, Note_on_c, 0, 65, 0
2, 22419, Note_on_c, 0, 51, 0
2, 22426, Note_on_c, 0, 66, 74
2, 22612, Note_on_c, 0, 54, 67
2, 22774, Note_on_c, 0, 70, 77
2, 22816, Note_on_c, 0, 66, 0
2, 22856, Note_on_c, 0, 70, 0
2, 22967, Note_on_c, 0, 75, 79
2, 23006, Note_on_c, 0, 54, 0
2, 23160, Note_on_c, 0, 56, 71
2, 23337, Note_on_c, 0, 65, 67
2, 23389, Note_on_c, 0, 75, 0
2, 23398, Note_on_c, 0, 65, 0
2, 23517, Note_on_c, 0, 56, 0
2, 23522, Note_on_c, 0, 68, 72
2, 23697, Note_on_c, 0, 58, 54
2, 23884, Note_on_c, 0, 70, 61
2, 23915, Note_on_c, 0, 68, 0
2, 23977, Note_on_c, 0, 70, 0
2, 24048, Note_on_c, 0, 58, 0
2, 24074, Note_on_c, 0, 74, 64
2, 24165, Note_on_c, 0, 74, 0
2, 24253, Note_on_c, 0, 51, 51
2, 24294, Note_on_c, 0, 77, 62
2, 24365, Note_on_c, 0, 77, 0
2, 24394, Note_on_c, 0, 75, 64
2, 24429, Note_on_c, 0, 51, 0
2, 24433, Note_on_c, 0, 75, 0
2, 24457, Note_on_c, 0, 77, 60
2, 24468, Note_on_c, 0, 54, 38
2, 24492, Note_on_c, 0, 77, 0
2, 24517, Note_on_c, 0, 54, 0
2, 24517, Note_on_c, 0, 75, 64
2, 24549, Note_on_c, 0, 75, 0
2, 24574, Note_on_c, 0, 77, 65
2, 24611, Note_on_c, 0, 77, 0
2, 24620, Note_on_c, 0, 58, 56
2, 24624, Note_on_c, 0, 75, 71
2, 24657, Note_on_c, 0, 58, 0
2, 24658, Note_on_c, 0, 75, 0
2, 24676, Note_on_c, 0, 77, 66
2, 24715, Note_on_c, 0, 77, 0
2, 24739, Note_on_c, 0, 75, 69
2, 24770, Note_on_c, 0, 75, 0
2, 24781, Note_on_c, 0, 77, 71
2, 24795, Note_on_c, 0, 54, 54
2, 24822, Note_on_c, 0, 77, 0
2, 24836, Note_on_c, 0, 75, 76
2, 24876, Note_on_c, 0, 75, 0
2, 24883, Note_on_c, 0, 77, 71
2, 24934, Note_on_c, 0, 77, 0
2, 24935, Note_on_c, 0, 75, 68
2, 24936, Note_on_c, 0, 51, 57
2, 24942, Note_on_c, 0, 54, 0
2, 24975, Note_on_c, 0, 75, 0
2, 24975, Note_on_c, 0, 77, 59
2, 24984, Note_on_c, 0, 51, 0
2, 25025, Note_on_c, 0, 75, 65
2, 25039, Note_on_c, 0, 77, 0
2, 25112, Note_on_c, 0, 60, 69
2, 25145, Note_on_c, 0, 60, 0
2, 25274, Note_on_c, 0, 61, 58
2, 25294, Note_on_c, 0, 75, 0
2, 25357, Note_on_c, 0, 61, 0
2, 25372, Note_on_c, 0, 60, 55
2, 25432, Note_on_c, 0, 78, 71
2, 25434, Note_on_c, 0, 60, 0
2, 25462, Note_on_c, 0, 78, 0
2, 25465, Note_on_c, 0, 61, 43
2, 25495, Note_on_c, 0, 61, 0
2, 25517, Note_on_c, 0, 60, 55
2, 25561, Note_on_c, 0, 60, 0
2, 25585, Note_on_c, 0, 61, 59
2, 25596, Note_on_c, 0, 82, 68
2, 25639, Note_on_c, 0, 61, 0
2, 25639, Note_on_c, 0, 82, 0
2, 25656, Note_on_c, 0, 60, 56
2, 25706, Note_on_c, 0, 60, 0
2, 25727, Note_on_c, 0, 61, 58
2, 25750, Note_on_c, 0, 78, 76
2, 25773, Note_on_c, 0, 61, 0
2, 25795, Note_on_c, 0, 60, 57
2, 25843, Note_on_c, 0, 60, 0
2, 25874, Note_on_c, 0, 61, 64
2, 25916, Note_on_c, 0, 61, 0
2, 25929, Note_on_c, 0, 60, 56
2, 25930, Note_on_c, 0, 78, 0
2, 25931, Note_on_c, 0, 75, 80
2, 25967, Note_on_c, 0, 75, 0
2, 25981, Note_on_c, 0, 60, 0
2, 26002, Note_on_c, 0, 61, 59
2, 26035, Note_on_c, 0, 61, 0
2, 26044, Note_on_c, 0, 60, 52
2, 26076, Note_on_c, 0, 81, 75
2, 26092, Note_on_c, 0, 60, 0
2, 26106, Note_on_c, 0, 61, 68
2, 26134, Note_on_c, 0, 81, 0
2, 26204, Note_on_c, 0, 61, 0
2, 26206, Note_on_c, 0, 60, 56
2, 26253, Note_on_c, 0, 82, 75
2, 26362, Note_on_c, 0, 82, 0
2, 26363, Note_on_c, 0, 81, 54
2, 26412, Note_on_c, 0, 63, 58
2, 26428, Note_on_c, 0, 81, 0
2, 26431, Note_on_c, 0, 60, 0
2, 26434, Note_on_c, 0, 82, 66
2, 26461, Note_on_c, 0, 63, 0
2, 26497, Note_on_c, 0, 81, 70
2, 26497, Note_on_c, 0, 82, 0
2, 26541, Note_on_c, 0, 81, 0
2, 26553, Note_on_c, 0, 82, 63
2, 26585, Note_on_c, 0, 66, 66
2, 26608, Note_on_c, 0, 82, 0
2, 26628, Note_on_c, 0, 81, 57
2, 26632, Note_on_c, 0, 66, 0
2, 26664, Note_on_c, 0, 81, 0
2, 26666, Note_on_c, 0, 82, 65
2, 26711, Note_on_c, 0, 82, 0
2, 26733, Note_on_c, 0, 81, 62
2, 26765, Note_on_c, 0, 81, 0
2, 26766, Note_on_c, 0, 63, 71
2, 26775, Note_on_c, 0, 82, 72
2, 26832, Note_on_c, 0, 82, 0
2, 26837, Note_on_c, 0, 81, 61
2, 26869, Note_on_c, 0, 81, 0
2, 26873, Note_on_c, 0, 82, 64
2, 26929, Note_on_c, 0, 82, 0
2, 26930, Note_on_c, 0, 60, 74
2, 26934, Note_on_c, 0, 81, 69
2, 26953, Note_on_c, 0, 63, 0
2, 26962, Note_on_c, 0, 82, 67
2, 26991, Note_on_c, 0, 60, 0
2, 26991, Note_on_c, 0, 81, 0
2, 27029, Note_on_c, 0, 81, 62
2, 27036, Note_on_c, 0, 82, 0
2, 27093, Note_on_c, 0, 66, 74
2, 27165, Note_on_c, 0, 66, 0
2, 27272, Note_on_c, 0, 66, 72
2, 27457, Note_on_c, 0, 82, 74
2, 27465, Note_on_c, 0, 65, 66
2, 27488, Note_on_c, 0, 81, 0
2, 27507, Note_on_c, 0, 66, 0
2, 27544, Note_on_c, 0, 82, 0
2, 27556, Note_on_c, 0, 65, 0
2, 27632, Note_on_c, 0, 84, 89
2, 27654, Note_on_c, 0, 63, 65
2, 27707, Note_on_c, 0, 84, 0
2, 27709, Note_on_c, 0, 63, 0
2, 27806, Note_on_c, 0, 77, 89
2, 27807, Note_on_c, 0, 61, 60
2, 27992, Note_on_c, 0, 78, 82
2, 27997, Note_on_c, 0, 63, 61
2, 28012, Note_on_c, 0, 77, 0
2, 28030, Note_on_c, 0, 61, 0
2, 28073, Note_on_c, 0, 78, 0
2, 28109, Note_on_c, 0, 63, 0
2, 28171, Note_on_c, 0, 75, 87
2, 28180, Note_on_c, 0, 65, 69
2, 28208, Note_on_c, 0, 65, 0
2, 28230, Note_on_c, 0, 75, 0
2, 28363, Note_on_c, 0, 73, 78
2, 28373, Note_on_c, 0, 58, 53
2, 28538, Note_on_c, 0, 77, 82
2, 28556, Note_on_c, 0, 73, 0
2, 28584, Note_on_c, 0, 77, 0
2, 28718, Note_on_c, 0, 70, 73
2, 28739, Note_on_c, 0, 58, 0
2, 28880, Note_on_c, 0, 53, 60
2, 29061, Note_on_c, 0, 72, 75
2, 29090, Note_on_c, 0, 70, 0
2, 29120, Note_on_c, 0, 72, 0
2, 29248, Note_on_c, 0, 69, 78
2, 29262, Note_on_c, 0, 53, 0
2, 29300, Note_on_c, 0, 69, 0
2, 29422, Note_on_c, 0, 54, 51
2, 29425, Note_on_c, 0, 70, 75
2, 29598, Note_on_c, 0, 73, 75
2, 29612, Note_on_c, 0, 70, 0
2, 29636, Note_on_c, 0, 73, 0
2, 29774, Note_on_c, 0, 70, 72
2, 29776, Note_on_c, 0, 54, 0
2, 29803, Note_on_c, 0, 70, 0
2, 29939, Note_on_c, 0, 70, 75
2, 29956, Note_on_c, 0, 49, 44
2, 29974, Note_on_c, 0, 70, 0
2, 30127, Note_on_c, 0, 73, 71
2, 30205, Note_on_c, 0, 72, 68
2, 30230, Note_on_c, 0, 73, 0
2, 30238, Note_on_c, 0, 49, 0
2, 30275, Note_on_c, 0, 72, 0
2, 30286, Note_on_c, 0, 70, 71
2, 30476, Note_on_c, 0, 51, 43
2, 30646, Note_on_c, 0, 78, 61
2, 30680, Note_on_c, 0, 70, 0
2, 30711, Note_on_c, 0, 78, 0
2, 30828, Note_on_c, 0, 51, 0
2, 30829, Note_on_c, 0, 70, 72
2, 31007, Note_on_c, 0, 53, 56
2, 31194, Note_on_c, 0, 72, 69
2, 31219, Note_on_c, 0, 70, 0
2, 31273, Note_on_c, 0, 72, 0
2, 31367, Note_on_c, 0, 53, 0
2, 31379, Note_on_c, 0, 69, 70
2, 31427, Note_on_c, 0, 69, 0
2, 31563, Note_on_c, 0, 70, 60
2, 31568, Note_on_c, 0, 46, 39
2, 31753, Note_on_c, 0, 73, 64
2, 31775, Note_on_c, 0, 70, 0
2, 31804, Note_on_c, 0, 73, 0
2, 31914, Note_on_c, 0, 77, 73
2, 31968, Note_on_c, 0, 77, 0
2, 32096, Note_on_c, 0, 73, 72
2, 32133, Note_on_c, 0, 46, 0
2, 32261, Note_on_c, 0, 70, 76
2, 32266, Note_on_c, 0, 73, 0
2, 32335, Note_on_c, 0, 70, 0
2, 32431, Note_on_c, 0, 79, 78
2, 32509, Note_on_c, 0, 79, 0
2, 32605, Note_on_c, 0, 51, 49
2, 32610, Note_on_c, 0, 80, 66
2, 32710, Note_on_c, 0, 80, 0
2, 32718, Note_on_c, 0, 79, 64
2, 32765, Note_on_c, 0, 79, 0
2, 32784, Note_on_c, 0, 51, 0
2, 32797, Note_on_c, 0, 80, 57
2, 32808, Note_on_c, 0, 55, 39
2, 32839, Note_on_c, 0, 80, 0
2, 32846, Note_on_c, 0, 55, 0
2, 32860, Note_on_c, 0, 79, 56
2, 32890, Note_on_c, 0, 79, 0
2, 32906, Note_on_c, 0, 80, 66
2, 32939, Note_on_c, 0, 80, 0
2, 32969, Note_on_c, 0, 58, 53
2, 32971, Note_on_c, 0, 79, 69
2, 33002, Note_on_c, 0, 58, 0
2, 33004, Note_on_c, 0, 79, 0
2, 33016, Note_on_c, 0, 80, 73
2, 33043, Note_on_c, 0, 80, 0
2, 33086, Note_on_c, 0, 79, 69
2, 33113, Note_on_c, 0, 79, 0
2, 33119, Note_on_c, 0, 80, 73
2, 33139, Note_on_c, 0, 55, 50
2, 33154, Note_on_c, 0, 80, 0
2, 33182, Note_on_c, 0, 79, 66
2, 33214, Note_on_c, 0, 79, 0
2, 33217, Note_on_c, 0, 80, 73
2, 33257, Note_on_c, 0, 55, 0
2, 33274, Note_on_c, 0, 80, 0
2, 33278, Note_on_c, 0, 79, 80
2, 33287, Note_on_c, 0, 51, 65
2, 33332, Note_on_c, 0, 51, 0
2, 33464, Note_on_c, 0, 61, 67
2, 33553, Note_on_c, 0, 61, 0
2, 33658, Note_on_c, 0, 61, 71
2, 33850, Note_on_c, 0, 82, 82
2, 33859, Note_on_c, 0, 79, 0
2, 33910, Note_on_c, 0, 82, 0
2, 34011, Note_on_c, 0, 75, 84
2, 34061, Note_on_c, 0, 75, 0
2, 34075, Note_on_c, 0, 61, 0
2, 34203, Note_on_c, 0, 73, 75
2, 34205, Note_on_c, 0, 55, 55
2, 34392, Note_on_c, 0, 71, 78
2, 34406, Note_on_c, 0, 73, 0
2, 34442, Note_on_c, 0, 71, 0
2, 34565, Note_on_c, 0, 70, 79
2, 34604, Note_on_c, 0, 55, 0
2, 34621, Note_on_c, 0, 70, 0
2, 34744, Note_on_c, 0, 71, 78
2, 34751, Note_on_c, 0, 56, 52
2, 34930, Note_on_c, 0, 75, 77
2, 34944, Note_on_c, 0, 71, 0
2, 34991, Note_on_c, 0, 75, 0
2, 35115, Note_on_c, 0, 68, 73
2, 35126, Note_on_c, 0, 56, 0
2, 35287, Note_on_c, 0, 51, 60
2, 35466, Note_on_c, 0, 70, 75
2, 35492, Note_on_c, 0, 68, 0
2, 35526, Note_on_c, 0, 70, 0
2, 35636, Note_on_c, 0, 67, 75
2, 35664, Note_on_c, 0, 67, 0
2, 35679, Note_on_c, 0, 51, 0
2, 35817, Note_on_c, 0, 68, 77
2, 35819, Note_on_c, 0, 52, 54
2, 36005, Note_on_c, 0, 71, 72
2, 36019, Note_on_c, 0, 68, 0
2, 36039, Note_on_c, 0, 71, 0
2, 36127, Note_on_c, 0, 52, 0
2, 36177, Note_on_c, 0, 68, 74
2, 36203, Note_on_c, 0, 68, 0
2, 36339, Note_on_c, 0, 47, 47
2, 36342, Note_on_c, 0, 68, 75
2, 36370, Note_on_c, 0, 68, 0
2, 36512, Note_on_c, 0, 71, 67
2, 36580, Note_on_c, 0, 71, 0
2, 36584, Note_on_c, 0, 70, 67
2, 36647, Note_on_c, 0, 47, 0
2, 36661, Note_on_c, 0, 70, 0
2, 36677, Note_on_c, 0, 68, 70
2, 36891, Note_on_c, 0, 49, 40
2, 37077, Note_on_c, 0, 76, 67
2, 37110, Note_on_c, 0, 68, 0
2, 37132, Note_on_c, 0, 76, 0
2, 37227, Note_on_c, 0, 49, 0
2, 37253, Note_on_c, 0, 68, 67
2, 37446, Note_on_c, 0, 51, 54
2, 37627, Note_on_c, 0, 70, 68
2, 37653, Note_on_c, 0, 68, 0
2, 37687, Note_on_c, 0, 70, 0
2, 37789, Note_on_c, 0, 51, 0
2, 37802, Note_on_c, 0, 67, 66
2, 37840, Note_on_c, 0, 67, 0
2, 37981, Note_on_c, 0, 68, 67
2, 37990, Note_on_c, 0, 44, 45
2, 38174, Note_on_c, 0, 71, 68
2, 38192, Note_on_c, 0, 68, 0
2, 38213, Note_on_c, 0, 71, 0
2, 38354, Note_on_c, 0, 75, 74
2, 38394, Note_on_c, 0, 75, 0
2, 38471, Note_on_c, 0, 44, 0
2, 38518, Note_on_c, 0, 71, 76
2, 38696, Note_on_c, 0, 68, 69
2, 38707, Note_on_c, 0, 71, 0
2, 38792, Note_on_c, 0, 68, 0
2, 38848, Note_on_c, 0, 77, 76
2, 38929, Note_on_c, 0, 77, 0
2, 39017, Note_on_c, 0, 49, 42
2, 39049, Note_on_c, 0, 78, 63
2, 39147, Note_on_c, 0, 78, 0
2, 39152, Note_on_c, 0, 77, 65
2, 39208, Note_on_c, 0, 49, 0
2, 39216, Note_on_c, 0, 77, 0
2, 39219, Note_on_c, 0, 53, 45
2, 39228, Note_on_c, 0, 78, 59
2, 39266, Note_on_c, 0, 53, 0
2, 39266, Note_on_c, 0, 78, 0
2, 39299, Note_on_c, 0, 77, 55
2, 39326, Note_on_c, 0, 77, 0
2, 39342, Note_on_c, 0, 78, 67
2, 39360, Note_on_c, 0, 56, 64
2, 39372, Note_on_c, 0, 78, 0
2, 39402, Note_on_c, 0, 56, 0
2, 39403, Note_on_c, 0, 77, 66
2, 39435, Note_on_c, 0, 77, 0
2, 39436, Note_on_c, 0, 78, 75
2, 39466, Note_on_c, 0, 78, 0
2, 39531, Note_on_c, 0, 78, 73
2, 39537, Note_on_c, 0, 53, 54
2, 39559, Note_on_c, 0, 78, 0
2, 39619, Note_on_c, 0, 78, 78
2, 39656, Note_on_c, 0, 78, 0
2, 39669, Note_on_c, 0, 53, 0
2, 39690, Note_on_c, 0, 49, 59
2, 39721, Note_on_c, 0, 78, 68
2, 39746, Note_on_c, 0, 49, 0
2, 39794, Note_on_c, 0, 78, 0
2, 39886, Note_on_c, 0, 59, 63
2, 39965, Note_on_c, 0, 59, 0
2, 40069, Note_on_c, 0, 59, 70
2, 40235, Note_on_c, 0, 73, 72
2, 40296, Note_on_c, 0, 73, 0
2, 40416, Note_on_c, 0, 77, 83
2, 40497, Note_on_c, 0, 77, 0
2, 40616, Note_on_c, 0, 80, 80
2, 40781, Note_on_c, 0, 56, 65
2, 40792, Note_on_c, 0, 77, 85
2, 40824, Note_on_c, 0, 80, 0
2, 40825, Note_on_c, 0, 59, 0
2, 40848, Note_on_c, 0, 77, 0
2, 40859, Note_on_c, 0, 56, 0
2, 40972, Note_on_c, 0, 59, 74
2, 40977, Note_on_c, 0, 80, 86
2, 41021, Note_on_c, 0, 59, 0
2, 41042, Note_on_c, 0, 80, 0
2, 41154, Note_on_c, 0, 65, 65
2, 41155, Note_on_c, 0, 83, 85
2, 41335, Note_on_c, 0, 68, 82
2, 41348, Note_on_c, 0, 65, 0
2, 41386, Note_on_c, 0, 68, 0
2, 41519, Note_on_c, 0, 65, 80
2, 41561, Note_on_c, 0, 65, 0
2, 41693, Note_on_c, 0, 61, 72
2, 41865, Note_on_c, 0, 65, 72
2, 41891, Note_on_c, 0, 61, 0
2, 41897, Note_on_c, 0, 65, 0
2, 42049, Note_on_c, 0, 61, 69
2, 42093, Note_on_c, 0, 61, 0
2, 42246, Note_on_c, 0, 54, 57
2, 42417, Note_on_c, 0, 80, 69
2, 42453, Note_on_c, 0, 83, 0
2, 42469, Note_on_c, 0, 80, 0
2, 42606, Note_on_c, 0, 82, 78
2, 42653, Note_on_c, 0, 54, 0
2, 42791, Note_on_c, 0, 59, 63
2, 42967, Note_on_c, 0, 83, 73
2, 43012, Note_on_c, 0, 82, 0
2, 43032, Note_on_c, 0, 83, 0
2, 43165, Note_on_c, 0, 80, 78
2, 43225, Note_on_c, 0, 59, 0
2, 43349, Note_on_c, 0, 60, 74
2, 43534, Note_on_c, 0, 77, 81
2, 43538, Note_on_c, 0, 80, 0
2, 43589, Note_on_c, 0, 77, 0
2, 43718, Note_on_c, 0, 78, 86
2, 43787, Note_on_c, 0, 60, 0
2, 43907, Note_on_c, 0, 61, 66
2, 44090, Note_on_c, 0, 80, 81
2, 44105, Note_on_c, 0, 78, 0
2, 44162, Note_on_c, 0, 80, 0
2, 44275, Note_on_c, 0, 77, 76
2, 44299, Note_on_c, 0, 61, 0
2, 44344, Note_on_c, 0, 77, 0
2, 44478, Note_on_c, 0, 51, 43
2, 44478, Note_on_c, 0, 78, 66
2, 44545, Note_on_c, 0, 78, 0
2, 44651, Note_on_c, 0, 70, 68
2, 44710, Note_on_c, 0, 70, 0
2, 44812, Note_on_c, 0, 51, 0
2, 44832, Note_on_c, 0, 71, 69
2, 45005, Note_on_c, 0, 49, 54
2, 45198, Note_on_c, 0, 73, 71
2, 45207, Note_on_c, 0, 71, 0
2, 45238, Note_on_c, 0, 73, 0
2, 45375, Note_on_c, 0, 70, 69
2, 45381, Note_on_c, 0, 49, 0
2, 45543, Note_on_c, 0, 47, 48
2, 45738, Note_on_c, 0, 75, 61
2, 45762, Note_on_c, 0, 70, 0
2, 45781, Note_on_c, 0, 75, 0
2, 45922, Note_on_c, 0, 68, 63
2, 45926, Note_on_c, 0, 47, 0
2, 46097, Note_on_c, 0, 46, 46
2, 46276, Note_on_c, 0, 70, 62
2, 46317, Note_on_c, 0, 68, 0
2, 46343, Note_on_c, 0, 70, 0
2, 46458, Note_on_c, 0, 66, 59
2, 46466, Note_on_c, 0, 46, 0
2, 46654, Note_on_c, 0, 44, 38
2, 46840, Note_on_c, 0, 65, 55
2, 46874, Note_on_c, 0, 66, 0
2, 46880, Note_on_c, 0, 65, 0
2, 47027, Note_on_c, 0, 71, 71
2, 47050, Note_on_c, 0, 44, 0
2, 47208, Note_on_c, 0, 54, 61
2, 47380, Note_on_c, 0, 71, 0
2, 47402, Note_on_c, 0, 68, 79
2, 47466, Note_on_c, 0, 68, 0
2, 47585, Note_on_c, 0, 75, 79
2, 47597, Note_on_c, 0, 54, 0
2, 47754, Note_on_c, 0, 53, 64
2, 47947, Note_on_c, 0, 71, 78
2, 47953, Note_on_c, 0, 75, 0
2, 48008, Note_on_c, 0, 71, 0
2, 48138, Note_on_c, 0, 80, 87
2, 48152, Note_on_c, 0, 53, 0
2, 48318, Note_on_c, 0, 49, 53
2, 48514, Note_on_c, 0, 77, 75
2, 48562, Note_on_c, 0, 80, 0
2, 48576, Note_on_c, 0, 77, 0
2, 48700, Note_on_c, 0, 71, 69
2, 48703, Note_on_c, 0, 72, 63
2, 48758, Note_on_c, 0, 49, 0
2, 48815, Note_on_c, 0, 72, 0
2, 48893, Note_on_c, 0, 54, 66
2, 49051, Note_on_c, 0, 68, 81
2, 49072, Note_on_c, 0, 71, 0
2, 49100, Note_on_c, 0, 68, 0
2, 49254, Note_on_c, 0, 73, 76
2, 49265, Note_on_c, 0, 54, 0
2, 49414, Note_on_c, 0, 46, 51
2, 49605, Note_on_c, 0, 70, 66
2, 49653, Note_on_c, 0, 73, 0
2, 49679, Note_on_c, 0, 70, 0
2, 49775, Note_on_c, 0, 46, 0
2, 49796, Note_on_c, 0, 66, 67
2, 49958, Note_on_c, 0, 47, 47
2, 50140, Note_on_c, 0, 63, 64
2, 50167, Note_on_c, 0, 66, 0
2, 50181, Note_on_c, 0, 63, 0
2, 50280, Note_on_c, 0, 47, 0
2, 50342, Note_on_c, 0, 71, 66
2, 50532, Note_on_c, 0, 49, 46
2, 50715, Note_on_c, 0, 68, 64
2, 50732, Note_on_c, 0, 71, 0
2, 50766, Note_on_c, 0, 68, 0
2, 50876, Note_on_c, 0, 49, 0
2, 50886, Note_on_c, 0, 65, 57
2, 50956, Note_on_c, 0, 65, 0
2, 51077, Note_on_c, 0, 42, 48
2, 51081, Note_on_c, 0, 66, 56
2, 51268, Note_on_c, 0, 46, 54
2, 51307, Note_on_c, 0, 42, 0
2, 51320, Note_on_c, 0, 46, 0
2, 51431, Note_on_c, 0, 49, 63
2, 51533, Note_on_c, 0, 49, 0
2, 51616, Note_on_c, 0, 46, 59
2, 51796, Note_on_c, 0, 42, 66
2, 51818, Note_on_c, 0, 46, 0
2, 51863, Note_on_c, 0, 42, 0
2, 51982, Note_on_c, 0, 51, 72
2, 52070, Note_on_c, 0, 51, 0
2, 52164, Note_on_c, 0, 51, 69
2, 52357, Note_on_c, 0, 58, 61
2, 52398, Note_on_c, 0, 58, 0
2, 52403, Note_on_c, 0, 66, 0
2, 52539, Note_on_c, 0, 59, 65
2, 52560, Note_on_c, 0, 51, 0
2, 52711, Note_on_c, 0, 49, 51
2, 52902, Note_on_c, 0, 61, 66
2, 52919, Note_on_c, 0, 59, 0
2, 52950, Note_on_c, 0, 61, 0
2, 53093, Note_on_c, 0, 58, 57
2, 53099, Note_on_c, 0, 49, 0
2, 53256, Note_on_c, 0, 47, 51
2, 53439, Note_on_c, 0, 63, 63
2, 53469, Note_on_c, 0, 58, 0
2, 53480, Note_on_c, 0, 63, 0
2, 53636, Note_on_c, 0, 56, 58
2, 53644, Note_on_c, 0, 47, 0
2, 53815, Note_on_c, 0, 46, 42
2, 53988, Note_on_c, 0, 58, 59
2, 54017, Note_on_c, 0, 56, 0
2, 54049, Note_on_c, 0, 58, 0
2, 54161, Note_on_c, 0, 54, 56
2, 54190, Note_on_c, 0, 46, 0
2, 54197, Note_on_c, 0, 54, 0
2, 54357, Note_on_c, 0, 59, 60
2, 54359, Note_on_c, 0, 44, 43
2, 54542, Note_on_c, 0, 44, 0
2, 54546, Note_on_c, 0, 47, 57
2, 54598, Note_on_c, 0, 47, 0
2, 54720, Note_on_c, 0, 51, 71
2, 54771, Note_on_c, 0, 51, 0
2, 54899, Note_on_c, 0, 47, 72
2, 55096, Note_on_c, 0, 44, 80
2, 55106, Note_on_c, 0, 47, 0
2, 55169, Note_on_c, 0, 44, 0
2, 55298, Note_on_c, 0, 53, 91
2, 55353, Note_on_c, 0, 53, 0
2, 55552, Note_on_c, 0, 37, 77
2, 55751, Note_on_c, 0, 65, 72
2, 55790, Note_on_c, 0, 59, 0
2, 55834, Note_on_c, 0, 65, 0
2, 55932, Note_on_c, 0, 68, 74
2, 55985, Note_on_c, 0, 68, 0
2, 56123, Note_on_c, 0, 65, 69
2, 56310, Note_on_c, 0, 59, 60
2, 56339, Note_on_c, 0, 65, 0
2, 56347, Note_on_c, 0, 59, 0
2, 56487, Note_on_c, 0, 68, 62
2, 56520, Note_on_c, 0, 68, 0
2, 56690, Note_on_c, 0, 57, 55
2, 56871, Note_on_c, 0, 61, 33
2, 56913, Note_on_c, 0, 61, 0
2, 57044, Note_on_c, 0, 66, 54
2, 57059, Note_on_c, 0, 57, 0
2, 57081, Note_on_c, 0, 66, 0
2, 57113, Note_on_c, 0, 37, 0
2, 57227, Note_on_c, 0, 59, 65
2, 57230, Note_on_c, 0, 49, 42
2, 57416, Note_on_c, 0, 65, 54
2, 57459, Note_on_c, 0, 65, 0
2, 57593, Note_on_c, 0, 68, 74
2, 57618, Note_on_c, 0, 59, 0
2, 57666, Note_on_c, 0, 68, 0
2, 57710, Note_on_c, 0, 49, 0
2, 57768, Note_on_c, 0, 61, 73
2, 57777, Note_on_c, 0, 37, 49
2, 57952, Note_on_c, 0, 66, 61
2, 57999, Note_on_c, 0, 66, 0
2, 58135, Note_on_c, 0, 69, 80
2, 58185, Note_on_c, 0, 69, 0
2, 58188, Note_on_c, 0, 61, 0
2, 58272, Note_on_c, 0, 37, 0
2, 58315, Note_on_c, 0, 62, 76
2, 58325, Note_on_c, 0, 49, 49
2, 58508, Note_on_c, 0, 68, 70
2, 58548, Note_on_c, 0, 68, 0
2, 58677, Note_on_c, 0, 71, 82
2, 58699, Note_on_c, 0, 62, 0
2, 58743, Note_on_c, 0, 71, 0
2, 58844, Note_on_c, 0, 49, 0
2, 58850, Note_on_c, 0, 65, 79
2, 58852, Note_on_c, 0, 37, 51
2, 59032, Note_on_c, 0, 71, 72
2, 59091, Note_on_c, 0, 71, 0
2, 59096, Note_on_c, 0, 37, 0
2, 59213, Note_on_c, 0, 74, 76
2, 59272, Note_on_c, 0, 65, 0
2, 59382, Note_on_c, 0, 53, 61
2, 59456, Note_on_c, 0, 74, 0
2, 59574, Note_on_c, 0, 71, 75
2, 59630, Note_on_c, 0, 71, 0
2, 59754, Note_on_c, 0, 77, 83
2, 59756, Note_on_c, 0, 53, 0
2, 59937, Note_on_c, 0, 56, 66
2, 60106, Note_on_c, 0, 74, 79
2, 60112, Note_on_c, 0, 77, 0
2, 60139, Note_on_c, 0, 74, 0
2, 60306, Note_on_c, 0, 80, 85
2, 60367, Note_on_c, 0, 56, 0
2, 60488, Note_on_c, 0, 61, 71
2, 60657, Note_on_c, 0, 77, 85
2, 60691, Note_on_c, 0, 80, 0
2, 60707, Note_on_c, 0, 77, 0
2, 60841, Note_on_c, 0, 83, 85
2, 60890, Note_on_c, 0, 83, 0
2, 60921, Note_on_c, 0, 61, 0
2, 61031, Note_on_c, 0, 82, 80
2, 61037, Note_on_c, 0, 54, 53
2, 61222, Note_on_c, 0, 73, 80
2, 61241, Note_on_c, 0, 82, 0
2, 61259, Note_on_c, 0, 73, 0
2, 61397, Note_on_c, 0, 78, 81
2, 61408, Note_on_c, 0, 54, 0
2, 61573, Note_on_c, 0, 49, 59
2, 61754, Note_on_c, 0, 80, 78
2, 61757, Note_on_c, 0, 78, 0
2, 61803, Note_on_c, 0, 80, 0
2, 61927, Note_on_c, 0, 77, 80
2, 61959, Note_on_c, 0, 49, 0
2, 61990, Note_on_c, 0, 77, 0
2, 62114, Note_on_c, 0, 51, 59
2, 62114, Note_on_c, 0, 78, 83
2, 62298, Note_on_c, 0, 70, 70
2, 62326, Note_on_c, 0, 70, 0
2, 62339, Note_on_c, 0, 78, 0
2, 62470, Note_on_c, 0, 78, 77
2, 62477, Note_on_c, 0, 51, 0
2, 62521, Note_on_c, 0, 78, 0
2, 62647, Note_on_c, 0, 78, 76
2, 62653, Note_on_c, 0, 46, 46
2, 62680, Note_on_c, 0, 78, 0
2, 62841, Note_on_c, 0, 82, 67
2, 62915, Note_on_c, 0, 80, 76
2, 62961, Note_on_c, 0, 46, 0
2, 62961, Note_on_c, 0, 82, 0
2, 63008, Note_on_c, 0, 78, 71
2, 63015, Note_on_c, 0, 80, 0
2, 63196, Note_on_c, 0, 47, 43
2, 63382, Note_on_c, 0, 68, 56
2, 63387, Note_on_c, 0, 78, 0
2, 63414, Note_on_c, 0, 68, 0
2, 63594, Note_on_c, 0, 78, 60
2, 63610, Note_on_c, 0, 47, 0
2, 63779, Note_on_c, 0, 49, 54
2, 63971, Note_on_c, 0, 80, 63
2, 64002, Note_on_c, 0, 78, 0
2, 64009, Note_on_c, 0, 80, 0
2, 64191, Note_on_c, 0, 77, 69
2, 64231, Note_on_c, 0, 49, 0
2, 64442, Note_on_c, 0, 42, 45
2, 64445, Note_on_c, 0, 78, 68
2, 64478, Note_on_c, 0, 77, 0
2, 64682, Note_on_c, 0, 73, 70
2, 64725, Note_on_c, 0, 73, 0
2, 64734, Note_on_c, 0, 78, 0
2, 64916, Note_on_c, 0, 70, 61
2, 64998, Note_on_c, 0, 70, 0
2, 65318, Note_on_c, 0, 66, 47
2, 66956, Note_on_c, 0, 66, 0
2, 66976, Note_on_c, 0, 42, 0
2, 69374, Note_on_c, 0, 73, 54
2, 69750, Note_on_c, 0, 78, 70
2, 69823, Note_on_c, 0, 73, 0
2, 70107, Note_on_c, 0, 77, 78
2, 70171, Note_on_c, 0, 78, 0
2, 70500, Note_on_c, 0, 78, 77
2, 70572, Note_on_c, 0, 77, 0
2, 70876, Note_on_c, 0, 77, 79
2, 70965, Note_on_c, 0, 78, 0
2, 71046, Note_on_c, 0, 75, 79
2, 71095, Note_on_c, 0, 77, 0
2, 71219, Note_on_c, 0, 73, 72
2, 71227, Note_on_c, 0, 75, 0
2, 71381, Note_on_c, 0, 75, 63
2, 71386, Note_on_c, 0, 73, 0
2, 71472, Note_on_c, 0, 75, 0
2, 71480, Note_on_c, 0, 73, 68
2, 71526, Note_on_c, 0, 73, 0
2, 71538, Note_on_c, 0, 75, 67
2, 71619, Note_on_c, 0, 73, 70
2, 71621, Note_on_c, 0, 75, 0
2, 71676, Note_on_c, 0, 73, 0
2, 71688, Note_on_c, 0, 71, 60
2, 71778, Note_on_c, 0, 71, 0
2, 71780, Note_on_c, 0, 73, 67
2, 71853, Note_on_c, 0, 75, 61
2, 71862, Note_on_c, 0, 73, 0
2, 72666, Note_on_c, 0, 75, 0
2, 73050, Note_on_c, 0, 73, 44
2, 73414, Note_on_c, 0, 71, 60
2, 73458, Note_on_c, 0, 73, 0
2, 73796, Note_on_c, 0, 70, 65
2, 73842, Note_on_c, 0, 71, 0
2, 74160, Note_on_c, 0, 68, 61
2, 74209, Note_on_c, 0, 70, 0
2, 74344, Note_on_c, 0, 68, 0
2, 74563, Note_on_c, 0, 73, 60
2, 74720, Note_on_c, 0, 73, 0
2, 74929, Note_on_c, 0, 70, 52
2, 75320, Note_on_c, 0, 66, 52
2, 75323, Note_on_c, 0, 70, 0
2, 75494, Note_on_c, 0, 78, 63
2, 75669, Note_on_c, 0, 73, 73
2, 75671, Note_on_c, 0, 77, 70
2, 75701, Note_on_c, 0, 78, 0
2, 75744, Note_on_c, 0, 66, 0
2, 75855, Note_on_c, 0, 78, 77
2, 75886, Note_on_c, 0, 77, 0
2, 76026, Note_on_c, 0, 72, 69
2, 76033, Note_on_c, 0, 80, 75
2, 76055, Note_on_c, 0, 73, 0
2, 76073, Note_on_c, 0, 78, 0
2, 76187, Note_on_c, 0, 75, 74
2, 76247, Note_on_c, 0, 72, 0
2, 76286, Note_on_c, 0, 80, 0
2, 76373, Note_on_c, 0, 73, 75
2, 76381, Note_on_c, 0, 77, 67
2, 76414, Note_on_c, 0, 75, 0
2, 76577, Note_on_c, 0, 78, 65
2, 76590, Note_on_c, 0, 77, 0
2, 76727, Note_on_c, 0, 72, 56
2, 76740, Note_on_c, 0, 80, 63
2, 76744, Note_on_c, 0, 73, 0
2, 76781, Note_on_c, 0, 78, 0
2, 76909, Note_on_c, 0, 70, 64
2, 76922, Note_on_c, 0, 72, 0
2, 77073, Note_on_c, 0, 70, 0
2, 77075, Note_on_c, 0, 68, 59
2, 77235, Note_on_c, 0, 68, 0
2, 77248, Note_on_c, 0, 70, 59
2, 77250, Note_on_c, 0, 78, 62
2, 77304, Note_on_c, 0, 70, 0
2, 77328, Note_on_c, 0, 68, 57
2, 77381, Note_on_c, 0, 68, 0
2, 77404, Note_on_c, 0, 77, 72
2, 77408, Note_on_c, 0, 70, 64
2, 77442, Note_on_c, 0, 80, 0
2, 77451, Note_on_c, 0, 78, 0
2, 77476, Note_on_c, 0, 70, 0
2, 77484, Note_on_c, 0, 68, 62
2, 77537, Note_on_c, 0, 68, 0
2, 77553, Note_on_c, 0, 66, 59
2, 77563, Note_on_c, 0, 75, 71
2, 77593, Note_on_c, 0, 77, 0
2, 77637, Note_on_c, 0, 66, 0
2, 77653, Note_on_c, 0, 68, 56
2, 77725, Note_on_c, 0, 68, 0
2, 77730, Note_on_c, 0, 73, 61
2, 77731, Note_on_c, 0, 70, 63
2, 77737, Note_on_c, 0, 75, 0
2, 77922, Note_on_c, 0, 75, 60
2, 77963, Note_on_c, 0, 73, 0
2, 78090, Note_on_c, 0, 77, 67
2, 78119, Note_on_c, 0, 75, 0
2, 78255, Note_on_c, 0, 72, 55
2, 78259, Note_on_c, 0, 77, 0
2, 78331, Note_on_c, 0, 70, 0
2, 78441, Note_on_c, 0, 73, 55
2, 78466, Note_on_c, 0, 72, 0
2, 78620, Note_on_c, 0, 75, 60
2, 78640, Note_on_c, 0, 73, 0
2, 78777, Note_on_c, 0, 68, 58
2, 78777, Note_on_c, 0, 77, 58
2, 78805, Note_on_c, 0, 75, 0
2, 78967, Note_on_c, 0, 73, 55
2, 79052, Note_on_c, 0, 77, 0
2, 79137, Note_on_c, 0, 73, 0
2, 79141, Note_on_c, 0, 70, 61
2, 79148, Note_on_c, 0, 66, 57
2, 79226, Note_on_c, 0, 68, 0
2, 79311, Note_on_c, 0, 72, 64
2, 79345, Note_on_c, 0, 70, 0
2, 79497, Note_on_c, 0, 73, 64
2, 79501, Note_on_c, 0, 65, 54
2, 79514, Note_on_c, 0, 72, 0
2, 79523, Note_on_c, 0, 66, 0
2, 79881, Note_on_c, 0, 63, 49
2, 79943, Note_on_c, 0, 65, 0
2, 80068, Note_on_c, 0, 63, 0
2, 80272, Note_on_c, 0, 72, 57
2, 80287, Note_on_c, 0, 68, 50
2, 80326, Note_on_c, 0, 73, 0
2, 80483, Note_on_c, 0, 68, 0
2, 80655, Note_on_c, 0, 65, 51
2, 80657, Note_on_c, 0, 73, 54
2, 80709, Note_on_c, 0, 72, 0
2, 81007, Note_on_c, 0, 49, 48
2, 81015, Note_on_c, 0, 61, 46
2, 81037, Note_on_c, 0, 65, 0
2, 81207, Note_on_c, 0, 71, 59
2, 81379, Note_on_c, 0, 54, 70
2, 81385, Note_on_c, 0, 70, 63
2, 81385, Note_on_c, 0, 71, 0
2, 81439, Note_on_c, 0, 73, 0
2, 81490, Note_on_c, 0, 49, 0
2, 81555, Note_on_c, 0, 71, 70
2, 81602, Note_on_c, 0, 70, 0
2, 81670, Note_on_c, 0, 61, 0
2, 81727, Note_on_c, 0, 53, 72
2, 81729, Note_on_c, 0, 73, 72
2, 81780, Note_on_c, 0, 54, 0
2, 81802, Note_on_c, 0, 71, 0
2, 81908, Note_on_c, 0, 68, 70
2, 81970, Note_on_c, 0, 53, 0
2, 82084, Note_on_c, 0, 54, 74
2, 82091, Note_on_c, 0, 70, 67
2, 82128, Note_on_c, 0, 68, 0
2, 82264, Note_on_c, 0, 70, 0
2, 82266, Note_on_c, 0, 73, 0
2, 82287, Note_on_c, 0, 71, 62
2, 82443, Note_on_c, 0, 53, 62
2, 82451, Note_on_c, 0, 54, 0
2, 82459, Note_on_c, 0, 73, 66
2, 82535, Note_on_c, 0, 71, 0
2, 82615, Note_on_c, 0, 51, 62
2, 82622, Note_on_c, 0, 53, 0
2, 82623, Note_on_c, 0, 75, 59
2, 82790, Note_on_c, 0, 49, 57
2, 82792, Note_on_c, 0, 51, 0
2, 82792, Note_on_c, 0, 77, 70
2, 82795, Note_on_c, 0, 75, 0
2, 82929, Note_on_c, 0, 73, 0
2, 82939, Note_on_c, 0, 49, 0
2, 82949, Note_on_c, 0, 51, 64
2, 82968, Note_on_c, 0, 71, 64
2, 83011, Note_on_c, 0, 51, 0
2, 83039, Note_on_c, 0, 49, 61
2, 83088, Note_on_c, 0, 49, 0
2, 83110, Note_on_c, 0, 70, 68
2, 83120, Note_on_c, 0, 51, 66
2, 83139, Note_on_c, 0, 71, 0
2, 83189, Note_on_c, 0, 77, 0
2, 83190, Note_on_c, 0, 51, 0
2, 83194, Note_on_c, 0, 49, 59
2, 83247, Note_on_c, 0, 49, 0
2, 83265, Note_on_c, 0, 47, 59
2, 83269, Note_on_c, 0, 68, 74
2, 83288, Note_on_c, 0, 70, 0
2, 83344, Note_on_c, 0, 47, 0
2, 83357, Note_on_c, 0, 49, 60
2, 83447, Note_on_c, 0, 49, 0
2, 83450, Note_on_c, 0, 51, 57
2, 83452, Note_on_c, 0, 78, 74
2, 83455, Note_on_c, 0, 68, 0
2, 83469, Note_on_c, 0, 66, 61
2, 83644, Note_on_c, 0, 68, 66
2, 83701, Note_on_c, 0, 66, 0
2, 83812, Note_on_c, 0, 70, 60
2, 83868, Note_on_c, 0, 78, 0
2, 83869, Note_on_c, 0, 68, 0
2, 83960, Note_on_c, 0, 70, 0
2, 83977, Note_on_c, 0, 65, 55
2, 84110, Note_on_c, 0, 51, 0
2, 84164, Note_on_c, 0, 66, 54
2, 84199, Note_on_c, 0, 65, 0
2, 84360, Note_on_c, 0, 68, 56
2, 84382, Note_on_c, 0, 66, 0
2, 84520, Note_on_c, 0, 70, 55
2, 84523, Note_on_c, 0, 49, 49
2, 84545, Note_on_c, 0, 68, 0
2, 84697, Note_on_c, 0, 66, 57
2, 84721, Note_on_c, 0, 70, 0
2, 84872, Note_on_c, 0, 66, 0
2, 84876, Note_on_c, 0, 68, 62
2, 84878, Note_on_c, 0, 47, 46
2, 84883, Note_on_c, 0, 63, 49
2, 84908, Note_on_c, 0, 49, 0
2, 85064, Note_on_c, 0, 65, 61
2, 85121, Note_on_c, 0, 63, 0
2, 85236, Note_on_c, 0, 65, 0
2, 85238, Note_on_c, 0, 47, 0
2, 85246, Note_on_c, 0, 70, 60
2, 85248, Note_on_c, 0, 66, 53
2, 85253, Note_on_c, 0, 68, 0
2, 85255, Note_on_c, 0, 46, 40
2, 85601, Note_on_c, 0, 71, 57
2, 85606, Note_on_c, 0, 44, 44
2, 85614, Note_on_c, 0, 46, 0
2, 85617, Note_on_c, 0, 70, 0
2, 85797, Note_on_c, 0, 44, 0
2, 85977, Note_on_c, 0, 49, 37
2, 85988, Note_on_c, 0, 65, 45
2, 85994, Note_on_c, 0, 70, 54
2, 85999, Note_on_c, 0, 66, 0
2, 86085, Note_on_c, 0, 71, 0
2, 86149, Note_on_c, 0, 49, 0
2, 86163, Note_on_c, 0, 68, 60
2, 86170, Note_on_c, 0, 70, 0
2, 86345, Note_on_c, 0, 65, 0
2, 86352, Note_on_c, 0, 70, 59
2, 86354, Note_on_c, 0, 68, 0
2, 86357, Note_on_c, 0, 66, 46
2, 86368, Note_on_c, 0, 42, 33
2, 86527, Note_on_c, 0, 73, 69
2, 86543, Note_on_c, 0, 70, 0
2, 86561, Note_on_c, 0, 73, 0
2, 86564, Note_on_c, 0, 42, 0
2, 86711, Note_on_c, 0, 54, 48
2, 86712, Note_on_c, 0, 73, 69
2, 86884, Note_on_c, 0, 70, 69
2, 86888, Note_on_c, 0, 66, 0
2, 86910, Note_on_c, 0, 73, 0
2, 86916, Note_on_c, 0, 70, 0
2, 86927, Note_on_c, 0, 54, 0
2, 87059, Note_on_c, 0, 68, 60
2, 87063, Note_on_c, 0, 53, 40
2, 87227, Note_on_c, 0, 73, 71
2, 87268, Note_on_c, 0, 68, 0
2, 87281, Note_on_c, 0, 73, 0
2, 87310, Note_on_c, 0, 53, 0
2, 87408, Note_on_c, 0, 73, 67
2, 87420, Note_on_c, 0, 65, 53
2, 87429, Note_on_c, 0, 49, 45
2, 87589, Note_on_c, 0, 68, 64
2, 87602, Note_on_c, 0, 65, 0
2, 87629, Note_on_c, 0, 68, 0
2, 87640, Note_on_c, 0, 73, 0
2, 87667, Note_on_c, 0, 49, 0
2, 87753, Note_on_c, 0, 70, 70
2, 87764, Note_on_c, 0, 54, 55
2, 87769, Note_on_c, 0, 66, 48
2, 87925, Note_on_c, 0, 58, 64
2, 87959, Note_on_c, 0, 58, 0
2, 87970, Note_on_c, 0, 54, 0
2, 87973, Note_on_c, 0, 70, 0
2, 88101, Note_on_c, 0, 73, 72
2, 88103, Note_on_c, 0, 58, 49
2, 88271, Note_on_c, 0, 54, 61
2, 88286, Note_on_c, 0, 58, 0
2, 88310, Note_on_c, 0, 54, 0
2, 88323, Note_on_c, 0, 73, 0
2, 88433, Note_on_c, 0, 78, 78
2, 88442, Note_on_c, 0, 51, 54
2, 88603, Note_on_c, 0, 54, 62
2, 88622, Note_on_c, 0, 51, 0
2, 88643, Note_on_c, 0, 54, 0
2, 88784, Note_on_c, 0, 70, 55
2, 88792, Note_on_c, 0, 54, 42
2, 88983, Note_on_c, 0, 51, 50
2, 88986, Note_on_c, 0, 54, 0
2, 89029, Note_on_c, 0, 51, 0
2, 89049, Note_on_c, 0, 70, 0
2, 89063, Note_on_c, 0, 66, 0
2, 89134, Note_on_c, 0, 75, 64
2, 89136, Note_on_c, 0, 48, 47
2, 89307, Note_on_c, 0, 68, 60
2, 89327, Note_on_c, 0, 78, 0
2, 89346, Note_on_c, 0, 48, 0
2, 89350, Note_on_c, 0, 68, 0
2, 89472, Note_on_c, 0, 77, 74
2, 89478, Note_on_c, 0, 68, 50
2, 89489, Note_on_c, 0, 75, 0
2, 89490, Note_on_c, 0, 49, 36
2, 89659, Note_on_c, 0, 73, 56
2, 89679, Note_on_c, 0, 68, 0
2, 89689, Note_on_c, 0, 49, 0
2, 89834, Note_on_c, 0, 54, 48
2, 89864, Note_on_c, 0, 70, 41
2, 89933, Note_on_c, 0, 77, 0
2, 90035, Note_on_c, 0, 66, 50
2, 90065, Note_on_c, 0, 70, 0
2, 90069, Note_on_c, 0, 66, 0
2, 90183, Note_on_c, 0, 66, 53
2, 90183, Note_on_c, 0, 75, 68
2, 90224, Note_on_c, 0, 73, 0
2, 90350, Note_on_c, 0, 73, 66
2, 90359, Note_on_c, 0, 70, 58
2, 90382, Note_on_c, 0, 66, 0
2, 90436, Note_on_c, 0, 75, 0
2, 90537, Note_on_c, 0, 54, 0
2, 90545, Note_on_c, 0, 72, 69
2, 90563, Note_on_c, 0, 68, 43
2, 90565, Note_on_c, 0, 70, 0
2, 90571, Note_on_c, 0, 73, 0
2, 90726, Note_on_c, 0, 56, 55
2, 90766, Note_on_c, 0, 72, 0
2, 90808, Note_on_c, 0, 56, 0
2, 90883, Note_on_c, 0, 75, 68
2, 90895, Note_on_c, 0, 60, 47
2, 91065, Note_on_c, 0, 56, 55
2, 91068, Note_on_c, 0, 60, 0
2, 91097, Note_on_c, 0, 75, 0
2, 91105, Note_on_c, 0, 56, 0
2, 91233, Note_on_c, 0, 80, 71
2, 91251, Note_on_c, 0, 53, 45
2, 91414, Note_on_c, 0, 56, 55
2, 91431, Note_on_c, 0, 53, 0
2, 91449, Note_on_c, 0, 56, 0
2, 91577, Note_on_c, 0, 56, 41
2, 91588, Note_on_c, 0, 72, 57
2, 91765, Note_on_c, 0, 53, 49
2, 91777, Note_on_c, 0, 56, 0
2, 91796, Note_on_c, 0, 68, 0
2, 91824, Note_on_c, 0, 72, 0
2, 91847, Note_on_c, 0, 53, 0
2, 91943, Note_on_c, 0, 50, 47
2, 91949, Note_on_c, 0, 70, 57
2, 92117, Note_on_c, 0, 50, 0
2, 92121, Note_on_c, 0, 58, 59
2, 92145, Note_on_c, 0, 80, 0
2, 92162, Note_on_c, 0, 58, 0
2, 92284, Note_on_c, 0, 78, 70
2, 92293, Note_on_c, 0, 58, 51
2, 92468, Note_on_c, 0, 77, 73
2, 92474, Note_on_c, 0, 54, 57
2, 92479, Note_on_c, 0, 58, 0
2, 92505, Note_on_c, 0, 78, 0
2, 92521, Note_on_c, 0, 54, 0
2, 92636, Note_on_c, 0, 78, 76
2, 92649, Note_on_c, 0, 51, 51
2, 92694, Note_on_c, 0, 77, 0
2, 92787, Note_on_c, 0, 70, 0
2, 92827, Note_on_c, 0, 54, 59
2, 92856, Note_on_c, 0, 51, 0
2, 92866, Note_on_c, 0, 54, 0
2, 92991, Note_on_c, 0, 70, 63
2, 92997, Note_on_c, 0, 54, 39
2, 93173, Note_on_c, 0, 51, 62
2, 93190, Note_on_c, 0, 54, 0
2, 93224, Note_on_c, 0, 51, 0
2, 93236, Note_on_c, 0, 70, 0
2, 93340, Note_on_c, 0, 48, 43
2, 93343, Note_on_c, 0, 68, 70
2, 93533, Note_on_c, 0, 56, 61
2, 93579, Note_on_c, 0, 56, 0
2, 93590, Note_on_c, 0, 48, 0
2, 93606, Note_on_c, 0, 78, 0
2, 93704, Note_on_c, 0, 77, 77
2, 93713, Note_on_c, 0, 56, 53
2, 93875, Note_on_c, 0, 75, 79
2, 93887, Note_on_c, 0, 53, 60
2, 93892, Note_on_c, 0, 56, 0
2, 93914, Note_on_c, 0, 77, 0
2, 93930, Note_on_c, 0, 53, 0
2, 94051, Note_on_c, 0, 77, 74
2, 94072, Note_on_c, 0, 49, 46
2, 94099, Note_on_c, 0, 75, 0
2, 94200, Note_on_c, 0, 68, 0
2, 94246, Note_on_c, 0, 53, 64
2, 94276, Note_on_c, 0, 49, 0
2, 94287, Note_on_c, 0, 53, 0
2, 94431, Note_on_c, 0, 53, 45
2, 94433, Note_on_c, 0, 68, 60
2, 94602, Note_on_c, 0, 49, 57
2, 94617, Note_on_c, 0, 53, 0
2, 94648, Note_on_c, 0, 49, 0
2, 94675, Note_on_c, 0, 68, 0
2, 94770, Note_on_c, 0, 66, 64
2, 94793, Note_on_c, 0, 46, 45
2, 94951, Note_on_c, 0, 49, 58
2, 94974, Note_on_c, 0, 77, 0
2, 94994, Note_on_c, 0, 46, 0
2, 95016, Note_on_c, 0, 49, 0
2, 95129, Note_on_c, 0, 77, 77
2, 95147, Note_on_c, 0, 49, 53
2, 95310, Note_on_c, 0, 46, 65
2, 95325, Note_on_c, 0, 49, 0
2, 95349, Note_on_c, 0, 46, 0
2, 95478, Note_on_c, 0, 42, 58
2, 95488, Note_on_c, 0, 75, 78
2, 95567, Note_on_c, 0, 66, 0
2, 95662, Note_on_c, 0, 77, 0
2, 95663, Note_on_c, 0, 68, 71
2, 95703, Note_on_c, 0, 42, 0
2, 95847, Note_on_c, 0, 73, 69
2, 95854, Note_on_c, 0, 54, 45
2, 95865, Note_on_c, 0, 70, 52
2, 95900, Note_on_c, 0, 68, 0
2, 95966, Note_on_c, 0, 75, 0
2, 96028, Note_on_c, 0, 66, 63
2, 96079, Note_on_c, 0, 66, 0
2, 96209, Note_on_c, 0, 72, 70
2, 96210, Note_on_c, 0, 54, 0
2, 96217, Note_on_c, 0, 70, 0
2, 96227, Note_on_c, 0, 63, 32
2, 96271, Note_on_c, 0, 73, 0
2, 96394, Note_on_c, 0, 54, 58
2, 96557, Note_on_c, 0, 68, 74
2, 96565, Note_on_c, 0, 53, 54
2, 96596, Note_on_c, 0, 54, 0
2, 96696, Note_on_c, 0, 72, 0
2, 96734, Note_on_c, 0, 51, 61
2, 96740, Note_on_c, 0, 53, 0
2, 96912, Note_on_c, 0, 73, 69
2, 96921, Note_on_c, 0, 49, 48
2, 96921, Note_on_c, 0, 51, 0
2, 97016, Note_on_c, 0, 63, 0
2, 97027, Note_on_c, 0, 68, 0
2, 97084, Note_on_c, 0, 51, 53
2, 97146, Note_on_c, 0, 49, 0
2, 97244, Note_on_c, 0, 51, 0
2, 97263, Note_on_c, 0, 68, 66
2, 97269, Note_on_c, 0, 53, 44
2, 97424, Note_on_c, 0, 53, 0
2, 97432, Note_on_c, 0, 49, 43
2, 97595, Note_on_c, 0, 49, 0
2, 97616, Note_on_c, 0, 66, 63
2, 97622, Note_on_c, 0, 46, 38
2, 97687, Note_on_c, 0, 68, 0
2, 97773, Note_on_c, 0, 48, 45
2, 97787, Note_on_c, 0, 46, 0
2, 97944, Note_on_c, 0, 48, 0
2, 97965, Note_on_c, 0, 65, 55
2, 97966, Note_on_c, 0, 49, 38
2, 97969, Note_on_c, 0, 66, 0
2, 98121, Note_on_c, 0, 46, 44
2, 98121, Note_on_c, 0, 49, 0
2, 98275, Note_on_c, 0, 73, 0
2, 98310, Note_on_c, 0, 42, 38
2, 98317, Note_on_c, 0, 63, 46
2, 98332, Note_on_c, 0, 46, 0
2, 98334, Note_on_c, 0, 65, 0
2, 98500, Note_on_c, 0, 73, 61
2, 98515, Note_on_c, 0, 63, 0
2, 98593, Note_on_c, 0, 42, 0
2, 98657, Note_on_c, 0, 63, 44
2, 98667, Note_on_c, 0, 44, 32
2, 98844, Note_on_c, 0, 63, 0
2, 98847, Note_on_c, 0, 72, 48
2, 98847, Note_on_c, 0, 73, 0
2, 98965, Note_on_c, 0, 44, 0
2, 99045, Note_on_c, 0, 65, 37
2, 99046, Note_on_c, 0, 73, 52
2, 99053, Note_on_c, 0, 72, 0
2, 99058, Note_on_c, 0, 37, 23
2, 99227, Note_on_c, 0, 73, 0
2, 99231, Note_on_c, 0, 68, 48
2, 99346, Note_on_c, 0, 37, 0
2, 99355, Note_on_c, 0, 68, 0
2, 99412, Note_on_c, 0, 73, 55
2, 99418, Note_on_c, 0, 65, 0
2, 99579, Note_on_c, 0, 71, 46
2, 99742, Note_on_c, 0, 73, 0
2, 99764, Note_on_c, 0, 78, 63
2, 99776, Note_on_c, 0, 70, 42
2, 99776, Note_on_c, 0, 71, 0
2, 99952, Note_on_c, 0, 71, 34
2, 99963, Note_on_c, 0, 70, 0
2, 100002, Note_on_c, 0, 78, 0
2, 100117, Note_on_c, 0, 77, 54
2, 100123, Note_on_c, 0, 73, 44
2, 100189, Note_on_c, 0, 71, 0
2, 100294, Note_on_c, 0, 68, 40
2, 100305, Note_on_c, 0, 77, 0
2, 100367, Note_on_c, 0, 68, 0
2, 100474, Note_on_c, 0, 70, 46
2, 100485, Note_on_c, 0, 78, 49
2, 100520, Note_on_c, 0, 70, 0
2, 100538, Note_on_c, 0, 73, 0
2, 100647, Note_on_c, 0, 71, 59
2, 100695, Note_on_c, 0, 78, 0
2, 100805, Note_on_c, 0, 54, 42
2, 100811, Note_on_c, 0, 77, 58
2, 100815, Note_on_c, 0, 71, 0
2, 100819, Note_on_c, 0, 73, 51
2, 100981, Note_on_c, 0, 54, 0
2, 100989, Note_on_c, 0, 56, 42
2, 100996, Note_on_c, 0, 75, 59
2, 101009, Note_on_c, 0, 73, 0
2, 101085, Note_on_c, 0, 77, 0
2, 101160, Note_on_c, 0, 73, 58
2, 101164, Note_on_c, 0, 58, 48
2, 101167, Note_on_c, 0, 56, 0
2, 101207, Note_on_c, 0, 58, 0
2, 101253, Note_on_c, 0, 75, 0
2, 101341, Note_on_c, 0, 71, 50
2, 101344, Note_on_c, 0, 54, 52
2, 101471, Note_on_c, 0, 71, 0
2, 101499, Note_on_c, 0, 70, 59
2, 101501, Note_on_c, 0, 58, 52
2, 101516, Note_on_c, 0, 54, 0
2, 101534, Note_on_c, 0, 58, 0
2, 101629, Note_on_c, 0, 58, 46
2, 101668, Note_on_c, 0, 68, 58
2, 101681, Note_on_c, 0, 70, 0
2, 101693, Note_on_c, 0, 68, 0
2, 101717, Note_on_c, 0, 58, 0
2, 101831, Note_on_c, 0, 59, 38
2, 101838, Note_on_c, 0, 75, 65
2, 101849, Note_on_c, 0, 66, 37
2, 101880, Note_on_c, 0, 73, 0
2, 102016, Note_on_c, 0, 59, 0
2, 102017, Note_on_c, 0, 54, 54
2, 102022, Note_on_c, 0, 68, 58
2, 102049, Note_on_c, 0, 66, 0
2, 102054, Note_on_c, 0, 54, 0
2, 102180, Note_on_c, 0, 54, 47
2, 102191, Note_on_c, 0, 70, 61
2, 102202, Note_on_c, 0, 68, 0
2, 102351, Note_on_c, 0, 54, 0
2, 102354, Note_on_c, 0, 59, 59
2, 102356, Note_on_c, 0, 70, 0
2, 102362, Note_on_c, 0, 65, 55
2, 102390, Note_on_c, 0, 59, 0
2, 102527, Note_on_c, 0, 61, 51
2, 102530, Note_on_c, 0, 66, 56
2, 102608, Note_on_c, 0, 65, 0
2, 102650, Note_on_c, 0, 75, 0
2, 102714, Note_on_c, 0, 61, 0
2, 102721, Note_on_c, 0, 54, 54
2, 102723, Note_on_c, 0, 68, 58
2, 102758, Note_on_c, 0, 54, 0
2, 102814, Note_on_c, 0, 66, 0
2, 102888, Note_on_c, 0, 54, 46
2, 102891, Note_on_c, 0, 73, 68
2, 102892, Note_on_c, 0, 70, 51
2, 102987, Note_on_c, 0, 68, 0
2, 103044, Note_on_c, 0, 70, 0
2, 103060, Note_on_c, 0, 65, 49
2, 103068, Note_on_c, 0, 54, 0
2, 103068, Note_on_c, 0, 61, 59
2, 103090, Note_on_c, 0, 65, 0
2, 103100, Note_on_c, 0, 61, 0
2, 103236, Note_on_c, 0, 71, 64
2, 103243, Note_on_c, 0, 66, 52
2, 103246, Note_on_c, 0, 63, 44
2, 103338, Note_on_c, 0, 73, 0
2, 103411, Note_on_c, 0, 63, 0
2, 103416, Note_on_c, 0, 54, 60
2, 103459, Note_on_c, 0, 54, 0
2, 103589, Note_on_c, 0, 70, 67
2, 103602, Note_on_c, 0, 54, 42
2, 103659, Note_on_c, 0, 71, 0
2, 103671, Note_on_c, 0, 66, 0
2, 103760, Note_on_c, 0, 63, 67
2, 103800, Note_on_c, 0, 63, 0
2, 103827, Note_on_c, 0, 54, 0
2, 103926, Note_on_c, 0, 68, 70
2, 103941, Note_on_c, 0, 65, 53
2, 104004, Note_on_c, 0, 70, 0
2, 104098, Note_on_c, 0, 54, 58
2, 104100, Note_on_c, 0, 65, 0
2, 104151, Note_on_c, 0, 54, 0
2, 104272, Note_on_c, 0, 73, 72
2, 104286, Note_on_c, 0, 54, 57
2, 104368, Note_on_c, 0, 68, 0
2, 104439, Note_on_c, 0, 54, 0
2, 104450, Note_on_c, 0, 65, 62
2, 104483, Note_on_c, 0, 65, 0
2, 104620, Note_on_c, 0, 70, 68
2, 104623, Note_on_c, 0, 66, 51
2, 104702, Note_on_c, 0, 73, 0
2, 104796, Note_on_c, 0, 65, 55
2, 104797, Note_on_c, 0, 70, 0
2, 104799, Note_on_c, 0, 66, 0
2, 104985, Note_on_c, 0, 65, 0
2, 104996, Note_on_c, 0, 63, 43
2, 105005, Note_on_c, 0, 66, 38
2, 105009, Note_on_c, 0, 70, 50
2, 105130, Note_on_c, 0, 63, 0
2, 105168, Note_on_c, 0, 61, 48
2, 105322, Note_on_c, 0, 66, 0
2, 105325, Note_on_c, 0, 61, 0
2, 105342, Note_on_c, 0, 75, 56
2, 105360, Note_on_c, 0, 59, 33
2, 105368, Note_on_c, 0, 70, 0
2, 105515, Note_on_c, 0, 68, 47
2, 105541, Note_on_c, 0, 68, 0
2, 105542, Note_on_c, 0, 59, 0
2, 105670, Note_on_c, 0, 68, 43
2, 105681, Note_on_c, 0, 74, 59
2, 105769, Note_on_c, 0, 75, 0
2, 105873, Note_on_c, 0, 68, 0
2, 105879, Note_on_c, 0, 59, 51
2, 105918, Note_on_c, 0, 59, 0
2, 106047, Note_on_c, 0, 75, 67
2, 106069, Note_on_c, 0, 58, 39
2, 106130, Note_on_c, 0, 74, 0
2, 106229, Note_on_c, 0, 66, 58
2, 106267, Note_on_c, 0, 66, 0
2, 106270, Note_on_c, 0, 58, 0
2, 106392, Note_on_c, 0, 70, 70
2, 106397, Note_on_c, 0, 66, 53
2, 106438, Note_on_c, 0, 75, 0
2, 106575, Note_on_c, 0, 58, 61
2, 106600, Note_on_c, 0, 66, 0
2, 106621, Note_on_c, 0, 58, 0
2, 106743, Note_on_c, 0, 75, 73
2, 106750, Note_on_c, 0, 56, 48
2, 106779, Note_on_c, 0, 70, 0
2, 106903, Note_on_c, 0, 65, 67
2, 106944, Note_on_c, 0, 56, 0
2, 106948, Note_on_c, 0, 65, 0
2, 107075, Note_on_c, 0, 77, 82
2, 107081, Note_on_c, 0, 74, 63
2, 107083, Note_on_c, 0, 65, 52
2, 107110, Note_on_c, 0, 75, 0
2, 107257, Note_on_c, 0, 56, 70
2, 107278, Note_on_c, 0, 65, 0
2, 107329, Note_on_c, 0, 56, 0
2, 107436, Note_on_c, 0, 78, 78
2, 107441, Note_on_c, 0, 75, 72
2, 107445, Note_on_c, 0, 54, 57
2, 107482, Note_on_c, 0, 77, 0
2, 107529, Note_on_c, 0, 74, 0
2, 107618, Note_on_c, 0, 56, 66
2, 107628, Note_on_c, 0, 75, 0
2, 107651, Note_on_c, 0, 54, 0
2, 107796, Note_on_c, 0, 80, 79
2, 107800, Note_on_c, 0, 77, 75
2, 107806, Note_on_c, 0, 54, 56
2, 107828, Note_on_c, 0, 78, 0
2, 107877, Note_on_c, 0, 56, 0
2, 107961, Note_on_c, 0, 53, 62
2, 107988, Note_on_c, 0, 54, 0
2, 108149, Note_on_c, 0, 82, 79
2, 108156, Note_on_c, 0, 78, 72
2, 108159, Note_on_c, 0, 77, 0
2, 108166, Note_on_c, 0, 51, 50
2, 108193, Note_on_c, 0, 80, 0
2, 108196, Note_on_c, 0, 53, 0
2, 108332, Note_on_c, 0, 53, 64
2, 108364, Note_on_c, 0, 78, 0
2, 108370, Note_on_c, 0, 51, 0
2, 108504, Note_on_c, 0, 78, 75
2, 108508, Note_on_c, 0, 75, 69
2, 108523, Note_on_c, 0, 54, 53
2, 108526, Note_on_c, 0, 53, 0
2, 108598, Note_on_c, 0, 82, 0
2, 108691, Note_on_c, 0, 54, 0
2, 108693, Note_on_c, 0, 51, 56
2, 108715, Note_on_c, 0, 75, 0
2, 108862, Note_on_c, 0, 75, 73
2, 108867, Note_on_c, 0, 56, 55
2, 108872, Note_on_c, 0, 72, 63
2, 108927, Note_on_c, 0, 78, 0
2, 108958, Note_on_c, 0, 51, 0
2, 109038, Note_on_c, 0, 58, 63
2, 109051, Note_on_c, 0, 56, 0
2, 109213, Note_on_c, 0, 68, 80
2, 109222, Note_on_c, 0, 56, 51
2, 109259, Note_on_c, 0, 72, 0
2, 109277, Note_on_c, 0, 58, 0
2, 109391, Note_on_c, 0, 54, 67
2, 109395, Note_on_c, 0, 56, 0
2, 109557, Note_on_c, 0, 73, 78
2, 109594, Note_on_c, 0, 53, 47
2, 109632, Note_on_c, 0, 68, 0
2, 109633, Note_on_c, 0, 54, 0
2, 109660, Note_on_c, 0, 75, 0
2, 109749, Note_on_c, 0, 54, 67
2, 109764, Note_on_c, 0, 53, 0
2, 109903, Note_on_c, 0, 72, 78
2, 109907, Note_on_c, 0, 80, 75
2, 109923, Note_on_c, 0, 56, 60
2, 109934, Note_on_c, 0, 73, 0
2, 109975, Note_on_c, 0, 54, 0
2, 110052, Note_on_c, 0, 56, 0
2, 110072, Note_on_c, 0, 53, 62
2, 110259, Note_on_c, 0, 73, 79
2, 110261, Note_on_c, 0, 77, 72
2, 110276, Note_on_c, 0, 58, 45
2, 110307, Note_on_c, 0, 72, 0
2, 110316, Note_on_c, 0, 53, 0
2, 110327, Note_on_c, 0, 80, 0
2, 110440, Note_on_c, 0, 60, 63
2, 110508, Note_on_c, 0, 58, 0
2, 110605, Note_on_c, 0, 61, 57
2, 110606, Note_on_c, 0, 72, 74
2, 110612, Note_on_c, 0, 73, 0
2, 110614, Note_on_c, 0, 60, 0
2, 110776, Note_on_c, 0, 70, 70
2, 110792, Note_on_c, 0, 72, 0
2, 110927, Note_on_c, 0, 68, 72
2, 110948, Note_on_c, 0, 70, 0
2, 111001, Note_on_c, 0, 77, 0
2, 111070, Note_on_c, 0, 68, 0
2, 111096, Note_on_c, 0, 60, 53
2, 111097, Note_on_c, 0, 70, 70
2, 111135, Note_on_c, 0, 61, 0
2, 111168, Note_on_c, 0, 70, 0
2, 111188, Note_on_c, 0, 68, 57
2, 111216, Note_on_c, 0, 68, 0
2, 111229, Note_on_c, 0, 60, 0
2, 111239, Note_on_c, 0, 70, 61
2, 111251, Note_on_c, 0, 58, 58
2, 111262, Note_on_c, 0, 77, 59
2, 111295, Note_on_c, 0, 70, 0
2, 111301, Note_on_c, 0, 68, 72
2, 111368, Note_on_c, 0, 68, 0
2, 111391, Note_on_c, 0, 58, 0
2, 111402, Note_on_c, 0, 66, 64
2, 111413, Note_on_c, 0, 56, 54
2, 111468, Note_on_c, 0, 66, 0
2, 111471, Note_on_c, 0, 68, 72
2, 111557, Note_on_c, 0, 68, 0
2, 111560, Note_on_c, 0, 70, 64
2, 111560, Note_on_c, 0, 75, 68
2, 111565, Note_on_c, 0, 56, 0
2, 111577, Note_on_c, 0, 54, 49
2, 111734, Note_on_c, 0, 70, 0
2, 111735, Note_on_c, 0, 56, 38
2, 111750, Note_on_c, 0, 72, 59
2, 111779, Note_on_c, 0, 75, 0
2, 111904, Note_on_c, 0, 54, 0
2, 111915, Note_on_c, 0, 56, 0
2, 111923, Note_on_c, 0, 73, 61
2, 111924, Note_on_c, 0, 58, 51
2, 111943, Note_on_c, 0, 77, 0
2, 111962, Note_on_c, 0, 72, 0
2, 112088, Note_on_c, 0, 77, 60
2, 112096, Note_on_c, 0, 58, 0
2, 112097, Note_on_c, 0, 53, 45
2, 112125, Note_on_c, 0, 73, 0
2, 112265, Note_on_c, 0, 54, 53
2, 112272, Note_on_c, 0, 75, 57
2, 112278, Note_on_c, 0, 53, 0
2, 112336, Note_on_c, 0, 77, 0
2, 112439, Note_on_c, 0, 72, 63
2, 112449, Note_on_c, 0, 56, 50
2, 112458, Note_on_c, 0, 75, 0
2, 112502, Note_on_c, 0, 54, 0
2, 112614, Note_on_c, 0, 56, 0
2, 112619, Note_on_c, 0, 73, 61
2, 112621, Note_on_c, 0, 58, 51
2, 112622, Note_on_c, 0, 72, 0
2, 112624, Note_on_c, 0, 68, 61
2, 112796, Note_on_c, 0, 58, 0
2, 112804, Note_on_c, 0, 54, 56
2, 112971, Note_on_c, 0, 51, 47
2, 112972, Note_on_c, 0, 66, 66
2, 112988, Note_on_c, 0, 54, 0
2, 113017, Note_on_c, 0, 68, 0
2, 113145, Note_on_c, 0, 72, 58
2, 113166, Note_on_c, 0, 73, 0
2, 113300, Note_on_c, 0, 53, 49
2, 113314, Note_on_c, 0, 73, 62
2, 113316, Note_on_c, 0, 65, 63
2, 113320, Note_on_c, 0, 66, 0
2, 113323, Note_on_c, 0, 72, 0
2, 113380, Note_on_c, 0, 51, 0
2, 113475, Note_on_c, 0, 53, 0
2, 113489, Note_on_c, 0, 54, 52
2, 113639, Note_on_c, 0, 54, 0
2, 113671, Note_on_c, 0, 56, 45
2, 113676, Note_on_c, 0, 65, 0
2, 113679, Note_on_c, 0, 63, 56
2, 113871, Note_on_c, 0, 56, 0
2, 114031, Note_on_c, 0, 44, 42
2, 114040, Note_on_c, 0, 68, 53
2, 114046, Note_on_c, 0, 72, 58
2, 114117, Note_on_c, 0, 73, 0
2, 114136, Note_on_c, 0, 63, 0
2, 114326, Note_on_c, 0, 68, 0
2, 114344, Note_on_c, 0, 72, 0
2, 114392, Note_on_c, 0, 44, 0
2, 114465, Note_on_c, 0, 49, 39
2, 114472, Note_on_c, 0, 65, 52
2, 114477, Note_on_c, 0, 73, 53
2, 114637, Note_on_c, 0, 49, 0
2, 114650, Note_on_c, 0, 68, 55
2, 114667, Note_on_c, 0, 65, 0
2, 114686, Note_on_c, 0, 68, 0
2, 114823, Note_on_c, 0, 68, 58
2, 114827, Note_on_c, 0, 61, 45
2, 115008, Note_on_c, 0, 65, 57
2, 115032, Note_on_c, 0, 68, 0
2, 115044, Note_on_c, 0, 65, 0
2, 115050, Note_on_c, 0, 61, 0
2, 115178, Note_on_c, 0, 63, 59
2, 115181, Note_on_c, 0, 60, 50
2, 115249, Note_on_c, 0, 73, 0
2, 115340, Note_on_c, 0, 68, 63
2, 115365, Note_on_c, 0, 63, 0
2, 115380, Note_on_c, 0, 60, 0
2, 115394, Note_on_c, 0, 68, 0
2, 115505, Note_on_c, 0, 72, 65
2, 115510, Note_on_c, 0, 68, 61
2, 115512, Note_on_c, 0, 56, 49
2, 115644, Note_on_c, 0, 68, 0
2, 115677, Note_on_c, 0, 63, 64
2, 115717, Note_on_c, 0, 72, 0
2, 115725, Note_on_c, 0, 63, 0
2, 115776, Note_on_c, 0, 56, 0
2, 115848, Note_on_c, 0, 73, 73
2, 115854, Note_on_c, 0, 65, 57
2, 115858, Note_on_c, 0, 61, 48
2, 116020, Note_on_c, 0, 77, 77
2, 116033, Note_on_c, 0, 73, 0
2, 116046, Note_on_c, 0, 61, 0
2, 116061, Note_on_c, 0, 77, 0
2, 116187, Note_on_c, 0, 77, 78
2, 116212, Note_on_c, 0, 58, 43
2, 116362, Note_on_c, 0, 73, 71
2, 116400, Note_on_c, 0, 65, 0
2, 116400, Note_on_c, 0, 77, 0
2, 116413, Note_on_c, 0, 58, 0
2, 116428, Note_on_c, 0, 73, 0
2, 116529, Note_on_c, 0, 72, 73
2, 116549, Note_on_c, 0, 57, 49
2, 116704, Note_on_c, 0, 77, 78
2, 116741, Note_on_c, 0, 72, 0
2, 116759, Note_on_c, 0, 77, 0
2, 116774, Note_on_c, 0, 57, 0
2, 116871, Note_on_c, 0, 77, 78
2, 116873, Note_on_c, 0, 69, 66
2, 116883, Note_on_c, 0, 53, 47
2, 117048, Note_on_c, 0, 72, 72
2, 117065, Note_on_c, 0, 77, 0
2, 117068, Note_on_c, 0, 69, 0
2, 117090, Note_on_c, 0, 72, 0
2, 117179, Note_on_c, 0, 53, 0
2, 117231, Note_on_c, 0, 73, 68
2, 117240, Note_on_c, 0, 70, 55
2, 117246, Note_on_c, 0, 58, 40
2, 117415, Note_on_c, 0, 61, 61
2, 117432, Note_on_c, 0, 58, 0
2, 117434, Note_on_c, 0, 73, 0
2, 117448, Note_on_c, 0, 61, 0
2, 117582, Note_on_c, 0, 61, 41
2, 117587, Note_on_c, 0, 77, 73
2, 117739, Note_on_c, 0, 58, 57
2, 117760, Note_on_c, 0, 61, 0
2, 117781, Note_on_c, 0, 77, 0
2, 117784, Note_on_c, 0, 58, 0
2, 117930, Note_on_c, 0, 82, 71
2, 117948, Note_on_c, 0, 54, 45
2, 118120, Note_on_c, 0, 58, 54
2, 118154, Note_on_c, 0, 58, 0
2, 118172, Note_on_c, 0, 54, 0
2, 118295, Note_on_c, 0, 58, 44
2, 118295, Note_on_c, 0, 73, 57
2, 118467, Note_on_c, 0, 54, 60
2, 118480, Note_on_c, 0, 70, 0
2, 118483, Note_on_c, 0, 58, 0
2, 118516, Note_on_c, 0, 54, 0
2, 118526, Note_on_c, 0, 73, 0
2, 118628, Note_on_c, 0, 71, 66
2, 118636, Note_on_c, 0, 51, 42
2, 118798, Note_on_c, 0, 82, 0
2, 118817, Note_on_c, 0, 59, 59
2, 118856, Note_on_c, 0, 59, 0
2, 118922, Note_on_c, 0, 51, 0
2, 118972, Note_on_c, 0, 80, 72
2, 118998, Note_on_c, 0, 59, 50
2, 119153, Note_on_c, 0, 78, 72
2, 119160, Note_on_c, 0, 56, 60
2, 119176, Note_on_c, 0, 59, 0
2, 119193, Note_on_c, 0, 80, 0
2, 119212, Note_on_c, 0, 56, 0
2, 119339, Note_on_c, 0, 80, 77
2, 119350, Note_on_c, 0, 53, 49
2, 119376, Note_on_c, 0, 78, 0
2, 119459, Note_on_c, 0, 71, 0
2, 119517, Note_on_c, 0, 56, 60
2, 119542, Note_on_c, 0, 53, 0
2, 119565, Note_on_c, 0, 56, 0
2, 119691, Note_on_c, 0, 71, 70
2, 119709, Note_on_c, 0, 56, 46
2, 119875, Note_on_c, 0, 53, 57
2, 119893, Note_on_c, 0, 56, 0
2, 119924, Note_on_c, 0, 71, 0
2, 119947, Note_on_c, 0, 53, 0
2, 120021, Note_on_c, 0, 70, 67
2, 120031, Note_on_c, 0, 50, 46
2, 120198, Note_on_c, 0, 80, 0
2, 120217, Note_on_c, 0, 58, 62
2, 120254, Note_on_c, 0, 58, 0
2, 120315, Note_on_c, 0, 50, 0
2, 120385, Note_on_c, 0, 78, 77
2, 120397, Note_on_c, 0, 58, 53
2, 120572, Note_on_c, 0, 54, 63
2, 120572, Note_on_c, 0, 77, 77
2, 120588, Note_on_c, 0, 58, 0
2, 120615, Note_on_c, 0, 78, 0
2, 120640, Note_on_c, 0, 54, 0
2, 120741, Note_on_c, 0, 78, 72
2, 120759, Note_on_c, 0, 51, 56
2, 120805, Note_on_c, 0, 77, 0
2, 120872, Note_on_c, 0, 70, 0
2, 120918, Note_on_c, 0, 54, 64
2, 120961, Note_on_c, 0, 51, 0
2, 120961, Note_on_c, 0, 54, 0
2, 121077, Note_on_c, 0, 70, 66
2, 121107, Note_on_c, 0, 54, 47
2, 121262, Note_on_c, 0, 51, 71
2, 121278, Note_on_c, 0, 54, 0
2, 121299, Note_on_c, 0, 51, 0
2, 121330, Note_on_c, 0, 70, 0
2, 121423, Note_on_c, 0, 68, 64
2, 121429, Note_on_c, 0, 47, 50
2, 121613, Note_on_c, 0, 51, 67
2, 121629, Note_on_c, 0, 47, 0
2, 121650, Note_on_c, 0, 51, 0
2, 121654, Note_on_c, 0, 78, 0
2, 121768, Note_on_c, 0, 51, 65
2, 121788, Note_on_c, 0, 78, 82
2, 121964, Note_on_c, 0, 47, 60
2, 121974, Note_on_c, 0, 51, 0
2, 122005, Note_on_c, 0, 47, 0
2, 122140, Note_on_c, 0, 77, 75
2, 122159, Note_on_c, 0, 44, 45
2, 122196, Note_on_c, 0, 78, 0
2, 122309, Note_on_c, 0, 47, 61
2, 122347, Note_on_c, 0, 44, 0
2, 122354, Note_on_c, 0, 47, 0
2, 122491, Note_on_c, 0, 47, 54
2, 122497, Note_on_c, 0, 75, 77
2, 122612, Note_on_c, 0, 77, 0
2, 122683, Note_on_c, 0, 44, 54
2, 122687, Note_on_c, 0, 47, 0
2, 122743, Note_on_c, 0, 75, 0
2, 122782, Note_on_c, 0, 68, 0
2, 122848, Note_on_c, 0, 44, 0
2, 122849, Note_on_c, 0, 74, 65
2, 122857, Note_on_c, 0, 46, 57
2, 123029, Note_on_c, 0, 46, 0
2, 123038, Note_on_c, 0, 71, 66
2, 123226, Note_on_c, 0, 46, 62
2, 123234, Note_on_c, 0, 70, 57
2, 123298, Note_on_c, 0, 71, 0
2, 123412, Note_on_c, 0, 68, 55
2, 123447, Note_on_c, 0, 70, 0
2, 123572, Note_on_c, 0, 51, 72
2, 123580, Note_on_c, 0, 66, 50
2, 123609, Note_on_c, 0, 68, 0
2, 123681, Note_on_c, 0, 46, 0
2, 123748, Note_on_c, 0, 68, 62
2, 123790, Note_on_c, 0, 66, 0
2, 123915, Note_on_c, 0, 50, 66
2, 123931, Note_on_c, 0, 70, 59
2, 123959, Note_on_c, 0, 68, 0
2, 123992, Note_on_c, 0, 51, 0
2, 124088, Note_on_c, 0, 74, 0
2, 124099, Note_on_c, 0, 65, 64
2, 124106, Note_on_c, 0, 70, 0
2, 124154, Note_on_c, 0, 50, 0
2, 124274, Note_on_c, 0, 51, 73
2, 124287, Note_on_c, 0, 66, 60
2, 124321, Note_on_c, 0, 65, 0
2, 124456, Note_on_c, 0, 68, 55
2, 124478, Note_on_c, 0, 66, 0
2, 124615, Note_on_c, 0, 49, 62
2, 124619, Note_on_c, 0, 68, 0
2, 124619, Note_on_c, 0, 70, 54
2, 124629, Note_on_c, 0, 63, 43
2, 124687, Note_on_c, 0, 51, 0
2, 124785, Note_on_c, 0, 49, 0
2, 124792, Note_on_c, 0, 47, 59
2, 124792, Note_on_c, 0, 65, 46
2, 124831, Note_on_c, 0, 63, 0
2, 124961, Note_on_c, 0, 47, 0
2, 124964, Note_on_c, 0, 65, 0
2, 124967, Note_on_c, 0, 46, 62
2, 124969, Note_on_c, 0, 66, 56
2, 125091, Note_on_c, 0, 70, 0
2, 125117, Note_on_c, 0, 46, 0
2, 125136, Note_on_c, 0, 47, 62
2, 125141, Note_on_c, 0, 66, 0
2, 125148, Note_on_c, 0, 63, 65
2, 125185, Note_on_c, 0, 47, 0
2, 125185, Note_on_c, 0, 63, 0
2, 125227, Note_on_c, 0, 46, 64
2, 125270, Note_on_c, 0, 46, 0
2, 125288, Note_on_c, 0, 63, 57
2, 125303, Note_on_c, 0, 47, 54
2, 125304, Note_on_c, 0, 75, 54
2, 125351, Note_on_c, 0, 47, 0
2, 125381, Note_on_c, 0, 46, 48
2, 125421, Note_on_c, 0, 46, 0
2, 125437, Note_on_c, 0, 44, 59
2, 125453, Note_on_c, 0, 66, 63
2, 125486, Note_on_c, 0, 75, 0
2, 125495, Note_on_c, 0, 63, 0
2, 125498, Note_on_c, 0, 66, 0
2, 125520, Note_on_c, 0, 46, 58
2, 125523, Note_on_c, 0, 44, 0
2, 125618, Note_on_c, 0, 75, 62
2, 125622, Note_on_c, 0, 68, 61
2, 125627, Note_on_c, 0, 46, 0
2, 125643, Note_on_c, 0, 47, 48
2, 125808, Note_on_c, 0, 63, 62
2, 125842, Note_on_c, 0, 68, 0
2, 125845, Note_on_c, 0, 63, 0
2, 125976, Note_on_c, 0, 63, 55
2, 126148, Note_on_c, 0, 68, 58
2, 126187, Note_on_c, 0, 63, 0
2, 126200, Note_on_c, 0, 68, 0
2, 126301, Note_on_c, 0, 47, 0
2, 126331, Note_on_c, 0, 70, 56
2, 126507, Note_on_c, 0, 63, 49
2, 126537, Note_on_c, 0, 63, 0
2, 126600, Note_on_c, 0, 70, 0
2, 126666, Note_on_c, 0, 63, 46
2, 126672, Note_on_c, 0, 46, 48
2, 126849, Note_on_c, 0, 70, 54
2, 126908, Note_on_c, 0, 70, 0
2, 126909, Note_on_c, 0, 63, 0
2, 127014, Note_on_c, 0, 71, 62
2, 127022, Note_on_c, 0, 44, 58
2, 127106, Note_on_c, 0, 46, 0
2, 127188, Note_on_c, 0, 63, 60
2, 127221, Note_on_c, 0, 71, 0
2, 127222, Note_on_c, 0, 63, 0
2, 127364, Note_on_c, 0, 42, 60
2, 127365, Note_on_c, 0, 63, 61
2, 127419, Note_on_c, 0, 44, 0
2, 127533, Note_on_c, 0, 71, 67
2, 127584, Note_on_c, 0, 75, 0
2, 127602, Note_on_c, 0, 63, 0
2, 127710, Note_on_c, 0, 74, 67
2, 127712, Note_on_c, 0, 41, 53
2, 127719, Note_on_c, 0, 68, 58
2, 127756, Note_on_c, 0, 71, 0
2, 127765, Note_on_c, 0, 42, 0
2, 127896, Note_on_c, 0, 41, 0
2, 127905, Note_on_c, 0, 63, 64
2, 127949, Note_on_c, 0, 63, 0
2, 128029, Note_on_c, 0, 74, 0
2, 128066, Note_on_c, 0, 63, 63
2, 128074, Note_on_c, 0, 46, 54
2, 128245, Note_on_c, 0, 63, 0
2, 128248, Note_on_c, 0, 74, 69
2, 128270, Note_on_c, 0, 46, 0
2, 128316, Note_on_c, 0, 68, 0
2, 128409, Note_on_c, 0, 39, 50
2, 128419, Note_on_c, 0, 75, 70
2, 128441, Note_on_c, 0, 74, 0
2, 128603, Note_on_c, 0, 66, 66
2, 128662, Note_on_c, 0, 39, 0
2, 128764, Note_on_c, 0, 42, 53
2, 128765, Note_on_c, 0, 68, 64
2, 128781, Note_on_c, 0, 66, 0
2, 128944, Note_on_c, 0, 70, 61
2, 128960, Note_on_c, 0, 68, 0
2, 129013, Note_on_c, 0, 42, 0
2, 129093, Note_on_c, 0, 70, 0
2, 129113, Note_on_c, 0, 71, 75
2, 129116, Note_on_c, 0, 75, 0
2, 129127, Note_on_c, 0, 44, 44
2, 129294, Note_on_c, 0, 77, 76
2, 129457, Note_on_c, 0, 78, 78
2, 129480, Note_on_c, 0, 77, 0
2, 129597, Note_on_c, 0, 71, 0
2, 129626, Note_on_c, 0, 80, 73
2, 129659, Note_on_c, 0, 78, 0
2, 129814, Note_on_c, 0, 74, 66
2, 129827, Note_on_c, 0, 70, 56
2, 129835, Note_on_c, 0, 80, 0
2, 129935, Note_on_c, 0, 70, 0
2, 129993, Note_on_c, 0, 44, 0
2, 130000, Note_on_c, 0, 53, 51
2, 130006, Note_on_c, 0, 83, 79
2, 130010, Note_on_c, 0, 74, 0
2, 130156, Note_on_c, 0, 82, 76
2, 130172, Note_on_c, 0, 53, 0
2, 130173, Note_on_c, 0, 54, 57
2, 130193, Note_on_c, 0, 83, 0
2, 130290, Note_on_c, 0, 82, 0
2, 130338, Note_on_c, 0, 75, 67
2, 130355, Note_on_c, 0, 54, 0
2, 130355, Note_on_c, 0, 56, 52
2, 130511, Note_on_c, 0, 80, 55
2, 130531, Note_on_c, 0, 58, 45
2, 130545, Note_on_c, 0, 56, 0
2, 130551, Note_on_c, 0, 80, 0
2, 130567, Note_on_c, 0, 78, 68
2, 130599, Note_on_c, 0, 78, 0
2, 130637, Note_on_c, 0, 80, 50
2, 130659, Note_on_c, 0, 80, 0
2, 130672, Note_on_c, 0, 78, 57
2, 130679, Note_on_c, 0, 75, 0
2, 130699, Note_on_c, 0, 75, 28
2, 130701, Note_on_c, 0, 78, 0
2, 130727, Note_on_c, 0, 80, 69
2, 130731, Note_on_c, 0, 75, 0
2, 130764, Note_on_c, 0, 58, 0
2, 130766, Note_on_c, 0, 80, 0
2, 130767, Note_on_c, 0, 78, 61
2, 130840, Note_on_c, 0, 78, 0
2, 130856, Note_on_c, 0, 77, 61
2, 130879, Note_on_c, 0, 74, 49
2, 130892, Note_on_c, 0, 46, 22
2, 130942, Note_on_c, 0, 74, 0
2, 131102, Note_on_c, 0, 75, 61
2, 131136, Note_on_c, 0, 77, 0
2, 131248, Note_on_c, 0, 75, 0
2, 131396, Note_on_c, 0, 75, 53
2, 131418, Note_on_c, 0, 46, 0
2, 131418, Note_on_c, 0, 51, 43
2, 131606, Note_on_c, 0, 58, 47
2, 131627, Note_on_c, 0, 51, 0
2, 131636, Note_on_c, 0, 58, 0
2, 131762, Note_on_c, 0, 58, 39
2, 131767, Note_on_c, 0, 78, 53
2, 131798, Note_on_c, 0, 75, 0
2, 131948, Note_on_c, 0, 54, 46
2, 131963, Note_on_c, 0, 58, 0
2, 131998, Note_on_c, 0, 54, 0
2, 132134, Note_on_c, 0, 51, 44
2, 132137, Note_on_c, 0, 83, 64
2, 132237, Note_on_c, 0, 78, 0
2, 132311, Note_on_c, 0, 54, 49
2, 132314, Note_on_c, 0, 51, 0
2, 132354, Note_on_c, 0, 54, 0
2, 132489, Note_on_c, 0, 82, 66
2, 132523, Note_on_c, 0, 54, 33
2, 132579, Note_on_c, 0, 83, 0
2, 132677, Note_on_c, 0, 51, 59
2, 132684, Note_on_c, 0, 54, 0
2, 132709, Note_on_c, 0, 51, 0
2, 132852, Note_on_c, 0, 44, 45
2, 132855, Note_on_c, 0, 83, 64
2, 132906, Note_on_c, 0, 82, 0
2, 132908, Note_on_c, 0, 44, 0
2, 133042, Note_on_c, 0, 63, 56
2, 133079, Note_on_c, 0, 63, 0
2, 133201, Note_on_c, 0, 75, 63
2, 133213, Note_on_c, 0, 63, 48
2, 133388, Note_on_c, 0, 59, 59
2, 133396, Note_on_c, 0, 63, 0
2, 133428, Note_on_c, 0, 59, 0
2, 133564, Note_on_c, 0, 80, 64
2, 133568, Note_on_c, 0, 56, 51
2, 133644, Note_on_c, 0, 75, 0
2, 133736, Note_on_c, 0, 59, 58
2, 133739, Note_on_c, 0, 56, 0
2, 133777, Note_on_c, 0, 59, 0
2, 133923, Note_on_c, 0, 78, 71
2, 133930, Note_on_c, 0, 59, 41
2, 134026, Note_on_c, 0, 80, 0
2, 134097, Note_on_c, 0, 56, 60
2, 134103, Note_on_c, 0, 59, 0
2, 134143, Note_on_c, 0, 56, 0
2, 134283, Note_on_c, 0, 80, 69
2, 134297, Note_on_c, 0, 53, 38
2, 134360, Note_on_c, 0, 78, 0
2, 134371, Note_on_c, 0, 83, 0
2, 134464, Note_on_c, 0, 56, 63
2, 134491, Note_on_c, 0, 53, 0
2, 134503, Note_on_c, 0, 56, 0
2, 134636, Note_on_c, 0, 77, 75
2, 134641, Note_on_c, 0, 56, 53
2, 134821, Note_on_c, 0, 53, 65
2, 134844, Note_on_c, 0, 56, 0
2, 134859, Note_on_c, 0, 53, 0
2, 135000, Note_on_c, 0, 82, 75
2, 135003, Note_on_c, 0, 49, 47
2, 135047, Note_on_c, 0, 80, 0
2, 135106, Note_on_c, 0, 77, 0
2, 135163, Note_on_c, 0, 53, 61
2, 135207, Note_on_c, 0, 53, 0
2, 135219, Note_on_c, 0, 49, 0
2, 135346, Note_on_c, 0, 80, 77
2, 135353, Note_on_c, 0, 53, 46
2, 135454, Note_on_c, 0, 82, 0
2, 135506, Note_on_c, 0, 49, 66
2, 135521, Note_on_c, 0, 53, 0
2, 135554, Note_on_c, 0, 49, 0
2, 135708, Note_on_c, 0, 42, 33
2, 135717, Note_on_c, 0, 82, 79
2, 135789, Note_on_c, 0, 80, 0
2, 135791, Note_on_c, 0, 42, 0
2, 135891, Note_on_c, 0, 61, 70
2, 135925, Note_on_c, 0, 61, 0
2, 136052, Note_on_c, 0, 61, 49
2, 136064, Note_on_c, 0, 73, 67
2, 136238, Note_on_c, 0, 58, 63
2, 136274, Note_on_c, 0, 61, 0
2, 136295, Note_on_c, 0, 58, 0
2, 136409, Note_on_c, 0, 78, 73
2, 136419, Note_on_c, 0, 54, 51
2, 136583, Note_on_c, 0, 58, 63
2, 136586, Note_on_c, 0, 73, 0
2, 136610, Note_on_c, 0, 54, 0
2, 136627, Note_on_c, 0, 58, 0
2, 136759, Note_on_c, 0, 58, 60
2, 136760, Note_on_c, 0, 77, 78
2, 136830, Note_on_c, 0, 78, 0
2, 136932, Note_on_c, 0, 54, 66
2, 136961, Note_on_c, 0, 58, 0
2, 136986, Note_on_c, 0, 54, 0
2, 137108, Note_on_c, 0, 51, 55
2, 137109, Note_on_c, 0, 78, 77
2, 137187, Note_on_c, 0, 82, 0
2, 137191, Note_on_c, 0, 77, 0
2, 137287, Note_on_c, 0, 54, 68
2, 137318, Note_on_c, 0, 51, 0
2, 137354, Note_on_c, 0, 54, 0
2, 137477, Note_on_c, 0, 54, 62
2, 137477, Note_on_c, 0, 82, 83
2, 137481, Note_on_c, 0, 73, 59
2, 137522, Note_on_c, 0, 78, 0
2, 137643, Note_on_c, 0, 51, 65
2, 137682, Note_on_c, 0, 54, 0
2, 137693, Note_on_c, 0, 51, 0
2, 137823, Note_on_c, 0, 80, 78
2, 137826, Note_on_c, 0, 75, 70
2, 137832, Note_on_c, 0, 47, 52
2, 137883, Note_on_c, 0, 73, 0
2, 137888, Note_on_c, 0, 82, 0
2, 137979, Note_on_c, 0, 51, 70
2, 138040, Note_on_c, 0, 47, 0
2, 138047, Note_on_c, 0, 51, 0
2, 138176, Note_on_c, 0, 51, 60
2, 138186, Note_on_c, 0, 78, 81
2, 138267, Note_on_c, 0, 80, 0
2, 138350, Note_on_c, 0, 47, 65
2, 138371, Note_on_c, 0, 51, 0
2, 138398, Note_on_c, 0, 47, 0
2, 138523, Note_on_c, 0, 77, 81
2, 138539, Note_on_c, 0, 49, 54
2, 138558, Note_on_c, 0, 78, 0
2, 138585, Note_on_c, 0, 75, 0
2, 138716, Note_on_c, 0, 68, 55
2, 138745, Note_on_c, 0, 68, 0
2, 138821, Note_on_c, 0, 49, 0
2, 138877, Note_on_c, 0, 68, 61
2, 138892, Note_on_c, 0, 37, 49
2, 139045, Note_on_c, 0, 73, 67
2, 139082, Note_on_c, 0, 77, 0
2, 139105, Note_on_c, 0, 68, 0
2, 139120, Note_on_c, 0, 73, 0
2, 139205, Note_on_c, 0, 37, 0
2, 139214, Note_on_c, 0, 76, 82
2, 139228, Note_on_c, 0, 73, 65
2, 139404, Note_on_c, 0, 68, 68
2, 139459, Note_on_c, 0, 68, 0
2, 139574, Note_on_c, 0, 68, 72
2, 139575, Note_on_c, 0, 61, 51
2, 139747, Note_on_c, 0, 71, 76
2, 139756, Note_on_c, 0, 59, 63
2, 139775, Note_on_c, 0, 68, 0
2, 139787, Note_on_c, 0, 61, 0
2, 139802, Note_on_c, 0, 73, 0
2, 139895, Note_on_c, 0, 76, 0
2, 139965, Note_on_c, 0, 61, 62
2, 139965, Note_on_c, 0, 70, 73
2, 140003, Note_on_c, 0, 71, 0
2, 140040, Note_on_c, 0, 59, 0
2, 140154, Note_on_c, 0, 73, 69
2, 140216, Note_on_c, 0, 73, 0
2, 140221, Note_on_c, 0, 61, 0
2, 140324, Note_on_c, 0, 54, 57
2, 140332, Note_on_c, 0, 73, 74
2, 140494, Note_on_c, 0, 76, 71
2, 140501, Note_on_c, 0, 73, 0
2, 140555, Note_on_c, 0, 54, 0
2, 140667, Note_on_c, 0, 75, 70
2, 140670, Note_on_c, 0, 76, 0
2, 140685, Note_on_c, 0, 59, 48
2, 140836, Note_on_c, 0, 71, 64
2, 140854, Note_on_c, 0, 75, 0
2, 140874, Note_on_c, 0, 59, 0
2, 140891, Note_on_c, 0, 71, 0
2, 141010, Note_on_c, 0, 71, 63
2, 141014, Note_on_c, 0, 58, 49
2, 141185, Note_on_c, 0, 75, 63
2, 141233, Note_on_c, 0, 71, 0
2, 141237, Note_on_c, 0, 70, 0
2, 141277, Note_on_c, 0, 75, 0
2, 141329, Note_on_c, 0, 58, 0
2, 141386, Note_on_c, 0, 68, 72
2, 141398, Note_on_c, 0, 75, 61
2, 141400, Note_on_c, 0, 59, 49
2, 141569, Note_on_c, 0, 71, 61
2, 141617, Note_on_c, 0, 75, 0
2, 141633, Note_on_c, 0, 71, 0
2, 141639, Note_on_c, 0, 59, 0
2, 141752, Note_on_c, 0, 71, 59
2, 141778, Note_on_c, 0, 53, 13
2, 141912, Note_on_c, 0, 75, 62
2, 141919, Note_on_c, 0, 71, 0
2, 141997, Note_on_c, 0, 53, 0
2, 142096, Note_on_c, 0, 73, 59
2, 142097, Note_on_c, 0, 58, 50
2, 142143, Note_on_c, 0, 75, 0
2, 142259, Note_on_c, 0, 70, 56
2, 142276, Note_on_c, 0, 73, 0
2, 142306, Note_on_c, 0, 70, 0
2, 142312, Note_on_c, 0, 58, 0
2, 142428, Note_on_c, 0, 70, 61
2, 142432, Note_on_c, 0, 56, 46
2, 142627, Note_on_c, 0, 73, 53
2, 142659, Note_on_c, 0, 68, 0
2, 142664, Note_on_c, 0, 70, 0
2, 142678, Note_on_c, 0, 73, 0
2, 142718, Note_on_c, 0, 56, 0
2, 142803, Note_on_c, 0, 66, 58
2, 142811, Note_on_c, 0, 73, 51
2, 142812, Note_on_c, 0, 58, 48
2, 142985, Note_on_c, 0, 70, 54
2, 143004, Note_on_c, 0, 73, 0
2, 143032, Note_on_c, 0, 70, 0
2, 143054, Note_on_c, 0, 58, 0
2, 143162, Note_on_c, 0, 51, 43
2, 143162, Note_on_c, 0, 70, 57
2, 143335, Note_on_c, 0, 73, 54
2, 143350, Note_on_c, 0, 70, 0
2, 143367, Note_on_c, 0, 51, 0
2, 143446, Note_on_c, 0, 73, 0
2, 143497, Note_on_c, 0, 71, 60
2, 143511, Note_on_c, 0, 56, 39
2, 143659, Note_on_c, 0, 71, 0
2, 143672, Note_on_c, 0, 68, 45
2, 143696, Note_on_c, 0, 56, 0
2, 143711, Note_on_c, 0, 68, 0
2, 143829, Note_on_c, 0, 68, 52
2, 143834, Note_on_c, 0, 54, 40
2, 144021, Note_on_c, 0, 71, 52
2, 144038, Note_on_c, 0, 68, 0
2, 144061, Note_on_c, 0, 71, 0
2, 144085, Note_on_c, 0, 66, 0
2, 144095, Note_on_c, 0, 54, 0
2, 144215, Note_on_c, 0, 65, 50
2, 144226, Note_on_c, 0, 56, 44
2, 144226, Note_on_c, 0, 71, 49
2, 144401, Note_on_c, 0, 68, 44
2, 144404, Note_on_c, 0, 71, 0
2, 144429, Note_on_c, 0, 56, 0
2, 144441, Note_on_c, 0, 68, 0
2, 144562, Note_on_c, 0, 49, 34
2, 144576, Note_on_c, 0, 68, 45
2, 144745, Note_on_c, 0, 71, 46
2, 144779, Note_on_c, 0, 68, 0
2, 144789, Note_on_c, 0, 49, 0
2, 144881, Note_on_c, 0, 71, 0
2, 144915, Note_on_c, 0, 70, 52
2, 144926, Note_on_c, 0, 54, 43
2, 145094, Note_on_c, 0, 71, 46
2, 145117, Note_on_c, 0, 54, 0
2, 145136, Note_on_c, 0, 70, 0
2, 145251, Note_on_c, 0, 53, 42
2, 145257, Note_on_c, 0, 71, 0
2, 145264, Note_on_c, 0, 73, 55
2, 145424, Note_on_c, 0, 68, 48
2, 145431, Note_on_c, 0, 53, 0
2, 145465, Note_on_c, 0, 73, 0
2, 145606, Note_on_c, 0, 54, 42
2, 145607, Note_on_c, 0, 70, 55
2, 145655, Note_on_c, 0, 68, 0
2, 145672, Note_on_c, 0, 65, 0
2, 145801, Note_on_c, 0, 58, 50
2, 145840, Note_on_c, 0, 58, 0
2, 145857, Note_on_c, 0, 54, 0
2, 145953, Note_on_c, 0, 58, 44
2, 145968, Note_on_c, 0, 66, 58
2, 145968, Note_on_c, 0, 73, 62
2, 145971, Note_on_c, 0, 70, 0
2, 146128, Note_on_c, 0, 54, 60
2, 146135, Note_on_c, 0, 58, 0
2, 146166, Note_on_c, 0, 54, 0
2, 146292, Note_on_c, 0, 71, 71
2, 146293, Note_on_c, 0, 75, 69
2, 146308, Note_on_c, 0, 51, 53
2, 146323, Note_on_c, 0, 73, 0
2, 146375, Note_on_c, 0, 66, 0
2, 146473, Note_on_c, 0, 54, 63
2, 146491, Note_on_c, 0, 51, 0
2, 146512, Note_on_c, 0, 54, 0
2, 146655, Note_on_c, 0, 54, 51
2, 146658, Note_on_c, 0, 70, 74
2, 146663, Note_on_c, 0, 76, 65
2, 146671, Note_on_c, 0, 71, 0
2, 146708, Note_on_c, 0, 75, 0
2, 146819, Note_on_c, 0, 51, 60
2, 146851, Note_on_c, 0, 54, 0
2, 146898, Note_on_c, 0, 51, 0
2, 146953, Note_on_c, 0, 70, 0
2, 146991, Note_on_c, 0, 71, 75
2, 146999, Note_on_c, 0, 47, 49
2, 147195, Note_on_c, 0, 75, 54
2, 147288, Note_on_c, 0, 76, 0
2, 147324, Note_on_c, 0, 47, 0
2, 147345, Note_on_c, 0, 71, 0
2, 147349, Note_on_c, 0, 70, 67
2, 147360, Note_on_c, 0, 73, 57
2, 147412, Note_on_c, 0, 75, 0
2, 147513, Note_on_c, 0, 70, 0
2, 147521, Note_on_c, 0, 76, 65
2, 147525, Note_on_c, 0, 68, 65
2, 147525, Note_on_c, 0, 73, 0
2, 147685, Note_on_c, 0, 75, 69
2, 147688, Note_on_c, 0, 66, 54
2, 147702, Note_on_c, 0, 68, 0
2, 147708, Note_on_c, 0, 76, 0
2, 147830, Note_on_c, 0, 66, 0
2, 147845, Note_on_c, 0, 68, 59
2, 147858, Note_on_c, 0, 71, 60
2, 147891, Note_on_c, 0, 75, 0
2, 147894, Note_on_c, 0, 71, 0
2, 147913, Note_on_c, 0, 68, 0
2, 147929, Note_on_c, 0, 66, 63
2, 147979, Note_on_c, 0, 66, 0
2, 148007, Note_on_c, 0, 68, 63
2, 148013, Note_on_c, 0, 71, 67
2, 148029, Note_on_c, 0, 59, 38
2, 148058, Note_on_c, 0, 68, 0
2, 148081, Note_on_c, 0, 66, 63
2, 148089, Note_on_c, 0, 59, 0
2, 148129, Note_on_c, 0, 66, 0
2, 148132, Note_on_c, 0, 71, 0
2, 148150, Note_on_c, 0, 75, 70
2, 148155, Note_on_c, 0, 64, 59
2, 148269, Note_on_c, 0, 66, 44
2, 148292, Note_on_c, 0, 64, 0
2, 148325, Note_on_c, 0, 66, 0
2, 148327, Note_on_c, 0, 76, 65
2, 148343, Note_on_c, 0, 68, 52
2, 148349, Note_on_c, 0, 59, 44
2, 148350, Note_on_c, 0, 75, 0
2, 148512, Note_on_c, 0, 71, 59
2, 148520, Note_on_c, 0, 76, 0
2, 148543, Note_on_c, 0, 71, 0
2, 148684, Note_on_c, 0, 71, 52
2, 148866, Note_on_c, 0, 76, 63
2, 148876, Note_on_c, 0, 71, 0
2, 148902, Note_on_c, 0, 76, 0
2, 149045, Note_on_c, 0, 78, 63
2, 149089, Note_on_c, 0, 68, 0
2, 149219, Note_on_c, 0, 71, 47
2, 149245, Note_on_c, 0, 71, 0
2, 149275, Note_on_c, 0, 78, 0
2, 149386, Note_on_c, 0, 71, 49
2, 149387, Note_on_c, 0, 66, 65
2, 149569, Note_on_c, 0, 78, 71
2, 149594, Note_on_c, 0, 71, 0
2, 149629, Note_on_c, 0, 78, 0
2, 149748, Note_on_c, 0, 64, 60
2, 149749, Note_on_c, 0, 80, 72
2, 149810, Note_on_c, 0, 66, 0
2, 149911, Note_on_c, 0, 71, 66
2, 149943, Note_on_c, 0, 71, 0
2, 149972, Note_on_c, 0, 80, 0
2, 150057, Note_on_c, 0, 63, 62
2, 150089, Note_on_c, 0, 71, 57
2, 150139, Note_on_c, 0, 64, 0
2, 150242, Note_on_c, 0, 80, 70
2, 150267, Note_on_c, 0, 71, 0
2, 150406, Note_on_c, 0, 61, 64
2, 150418, Note_on_c, 0, 82, 73
2, 150462, Note_on_c, 0, 80, 0
2, 150489, Note_on_c, 0, 63, 0
2, 150598, Note_on_c, 0, 71, 76
2, 150607, Note_on_c, 0, 61, 0
2, 150634, Note_on_c, 0, 71, 0
2, 150761, Note_on_c, 0, 71, 67
2, 150777, Note_on_c, 0, 66, 65
2, 150778, Note_on_c, 0, 82, 0
2, 150911, Note_on_c, 0, 66, 0
2, 150933, Note_on_c, 0, 82, 74
2, 150954, Note_on_c, 0, 71, 0
2, 151127, Note_on_c, 0, 83, 63
2, 151130, Note_on_c, 0, 63, 51
2, 151142, Note_on_c, 0, 59, 0
2, 151175, Note_on_c, 0, 82, 0
2, 151270, Note_on_c, 0, 63, 0
2, 151279, Note_on_c, 0, 83, 0
2, 151314, Note_on_c, 0, 58, 51
2, 151480, Note_on_c, 0, 63, 58
2, 151482, Note_on_c, 0, 58, 0
2, 151495, Note_on_c, 0, 56, 50
2, 151597, Note_on_c, 0, 56, 0
2, 151667, Note_on_c, 0, 54, 44
2, 151800, Note_on_c, 0, 54, 0
2, 151853, Note_on_c, 0, 52, 41
2, 151863, Note_on_c, 0, 68, 59
2, 151932, Note_on_c, 0, 63, 0
2, 152028, Note_on_c, 0, 52, 0
2, 152031, Note_on_c, 0, 61, 56
2, 152065, Note_on_c, 0, 61, 0
2, 152194, Note_on_c, 0, 61, 43
2, 152202, Note_on_c, 0, 67, 68
2, 152281, Note_on_c, 0, 68, 0
2, 152370, Note_on_c, 0, 52, 56
2, 152377, Note_on_c, 0, 61, 0
2, 152414, Note_on_c, 0, 52, 0
2, 152548, Note_on_c, 0, 51, 52
2, 152548, Note_on_c, 0, 68, 63
2, 152554, Note_on_c, 0, 67, 0
2, 152735, Note_on_c, 0, 59, 66
2, 152773, Note_on_c, 0, 59, 0
2, 152794, Note_on_c, 0, 51, 0
2, 152907, Note_on_c, 0, 59, 53
2, 152909, Note_on_c, 0, 75, 73
2, 153088, Note_on_c, 0, 51, 66
2, 153091, Note_on_c, 0, 59, 0
2, 153127, Note_on_c, 0, 51, 0
2, 153246, Note_on_c, 0, 80, 80
2, 153254, Note_on_c, 0, 49, 60
2, 153355, Note_on_c, 0, 68, 0
2, 153424, Note_on_c, 0, 75, 0
2, 153438, Note_on_c, 0, 58, 68
2, 153455, Note_on_c, 0, 49, 0
2, 153496, Note_on_c, 0, 58, 0
2, 153606, Note_on_c, 0, 79, 76
2, 153613, Note_on_c, 0, 70, 71
2, 153620, Note_on_c, 0, 58, 57
2, 153664, Note_on_c, 0, 80, 0
2, 153771, Note_on_c, 0, 49, 70
2, 153791, Note_on_c, 0, 58, 0
2, 153855, Note_on_c, 0, 49, 0
2, 153865, Note_on_c, 0, 70, 0
2, 153954, Note_on_c, 0, 47, 51
2, 153958, Note_on_c, 0, 80, 81
2, 153961, Note_on_c, 0, 71, 67
2, 153993, Note_on_c, 0, 79, 0
2, 154127, Note_on_c, 0, 71, 0
2, 154140, Note_on_c, 0, 49, 66
2, 154165, Note_on_c, 0, 47, 0
2, 154310, Note_on_c, 0, 82, 83
2, 154319, Note_on_c, 0, 73, 66
2, 154323, Note_on_c, 0, 47, 53
2, 154358, Note_on_c, 0, 80, 0
2, 154388, Note_on_c, 0, 49, 0
2, 154484, Note_on_c, 0, 73, 0
2, 154486, Note_on_c, 0, 46, 66
2, 154499, Note_on_c, 0, 47, 0
2, 154657, Note_on_c, 0, 83, 78
2, 154658, Note_on_c, 0, 44, 53
2, 154673, Note_on_c, 0, 75, 60
2, 154706, Note_on_c, 0, 46, 0
2, 154710, Note_on_c, 0, 82, 0
2, 154834, Note_on_c, 0, 75, 0
2, 154836, Note_on_c, 0, 46, 61
2, 154927, Note_on_c, 0, 44, 0
2, 155010, Note_on_c, 0, 47, 57
2, 155018, Note_on_c, 0, 71, 67
2, 155018, Note_on_c, 0, 80, 80
2, 155040, Note_on_c, 0, 46, 0
2, 155137, Note_on_c, 0, 83, 0
2, 155180, Note_on_c, 0, 71, 0
2, 155187, Note_on_c, 0, 44, 55
2, 155187, Note_on_c, 0, 47, 0
2, 155366, Note_on_c, 0, 49, 50
2, 155371, Note_on_c, 0, 77, 68
2, 155379, Note_on_c, 0, 68, 66
2, 155419, Note_on_c, 0, 44, 0
2, 155476, Note_on_c, 0, 80, 0
2, 155543, Note_on_c, 0, 51, 58
2, 155550, Note_on_c, 0, 49, 0
2, 155728, Note_on_c, 0, 73, 81
2, 155737, Note_on_c, 0, 49, 51
2, 155785, Note_on_c, 0, 51, 0
2, 155819, Note_on_c, 0, 77, 0
2, 155891, Note_on_c, 0, 49, 0
2, 155896, Note_on_c, 0, 47, 62
2, 156082, Note_on_c, 0, 78, 84
2, 156104, Note_on_c, 0, 46, 46
2, 156124, Note_on_c, 0, 47, 0
2, 156179, Note_on_c, 0, 68, 0
2, 156193, Note_on_c, 0, 73, 0
2, 156256, Note_on_c, 0, 47, 63
2, 156278, Note_on_c, 0, 46, 0
2, 156436, Note_on_c, 0, 77, 82
2, 156438, Note_on_c, 0, 73, 68
2, 156447, Note_on_c, 0, 49, 58
2, 156470, Note_on_c, 0, 47, 0
2, 156501, Note_on_c, 0, 78, 0
2, 156590, Note_on_c, 0, 49, 0
2, 156603, Note_on_c, 0, 46, 59
2, 156784, Note_on_c, 0, 78, 86
2, 156785, Note_on_c, 0, 70, 66
2, 156789, Note_on_c, 0, 51, 60
2, 156807, Note_on_c, 0, 73, 0
2, 156833, Note_on_c, 0, 77, 0
2, 156872, Note_on_c, 0, 46, 0
2, 156973, Note_on_c, 0, 53, 65
2, 156996, Note_on_c, 0, 51, 0
2, 157129, Note_on_c, 0, 77, 83
2, 157139, Note_on_c, 0, 53, 0
2, 157139, Note_on_c, 0, 54, 64
2, 157297, Note_on_c, 0, 78, 0
2, 157303, Note_on_c, 0, 75, 80
2, 157351, Note_on_c, 0, 77, 0
2, 157362, Note_on_c, 0, 70, 0
2, 157472, Note_on_c, 0, 73, 74
2, 157490, Note_on_c, 0, 75, 0
2, 157627, Note_on_c, 0, 73, 0
2, 157631, Note_on_c, 0, 75, 71
2, 157644, Note_on_c, 0, 53, 51
2, 157695, Note_on_c, 0, 54, 0
2, 157718, Note_on_c, 0, 75, 0
2, 157724, Note_on_c, 0, 73, 71
2, 157787, Note_on_c, 0, 73, 0
2, 157790, Note_on_c, 0, 75, 71
2, 157800, Note_on_c, 0, 51, 59
2, 157821, Note_on_c, 0, 70, 36
2, 157824, Note_on_c, 0, 53, 0
2, 157866, Note_on_c, 0, 73, 68
2, 157888, Note_on_c, 0, 75, 0
2, 157898, Note_on_c, 0, 70, 0
2, 157937, Note_on_c, 0, 51, 0
2, 157941, Note_on_c, 0, 73, 0
2, 157949, Note_on_c, 0, 71, 70
2, 157962, Note_on_c, 0, 49, 55
2, 158033, Note_on_c, 0, 71, 0
2, 158036, Note_on_c, 0, 73, 73
2, 158120, Note_on_c, 0, 47, 46
2, 158120, Note_on_c, 0, 49, 0
2, 158132, Note_on_c, 0, 73, 0
2, 158135, Note_on_c, 0, 75, 75
2, 158143, Note_on_c, 0, 68, 58
2, 158220, Note_on_c, 0, 68, 0
2, 158307, Note_on_c, 0, 49, 44
2, 158329, Note_on_c, 0, 47, 0
2, 158344, Note_on_c, 0, 65, 43
2, 158460, Note_on_c, 0, 51, 44
2, 158482, Note_on_c, 0, 66, 53
2, 158535, Note_on_c, 0, 65, 0
2, 158634, Note_on_c, 0, 49, 0
2, 158639, Note_on_c, 0, 46, 45
2, 158647, Note_on_c, 0, 70, 51
2, 158660, Note_on_c, 0, 51, 0
2, 158693, Note_on_c, 0, 66, 0
2, 158827, Note_on_c, 0, 68, 51
2, 158829, Note_on_c, 0, 47, 46
2, 158839, Note_on_c, 0, 46, 0
2, 158843, Note_on_c, 0, 75, 0
2, 158987, Note_on_c, 0, 65, 58
2, 158995, Note_on_c, 0, 49, 52
2, 159044, Note_on_c, 0, 47, 0
2, 159168, Note_on_c, 0, 51, 56
2, 159176, Note_on_c, 0, 49, 0
2, 159178, Note_on_c, 0, 73, 75
2, 159191, Note_on_c, 0, 66, 57
2, 159206, Note_on_c, 0, 65, 0
2, 159236, Note_on_c, 0, 68, 0
2, 159242, Note_on_c, 0, 70, 0
2, 159326, Note_on_c, 0, 51, 0
2, 159328, Note_on_c, 0, 47, 55
2, 159515, Note_on_c, 0, 47, 0
2, 159522, Note_on_c, 0, 44, 52
2, 159524, Note_on_c, 0, 71, 73
2, 159600, Note_on_c, 0, 73, 0
2, 159667, Note_on_c, 0, 66, 0
2, 159703, Note_on_c, 0, 65, 63
2, 159872, Note_on_c, 0, 70, 78
2, 159879, Note_on_c, 0, 66, 62
2, 159894, Note_on_c, 0, 46, 49
2, 159930, Note_on_c, 0, 71, 0
2, 159947, Note_on_c, 0, 65, 0
2, 159978, Note_on_c, 0, 44, 0
2, 160044, Note_on_c, 0, 47, 65
2, 160051, Note_on_c, 0, 46, 0
2, 160229, Note_on_c, 0, 47, 0
2, 160230, Note_on_c, 0, 68, 79
2, 160234, Note_on_c, 0, 49, 48
2, 160305, Note_on_c, 0, 70, 0
2, 160463, Note_on_c, 0, 49, 0
2, 160617, Note_on_c, 0, 73, 75
2, 160626, Note_on_c, 0, 65, 58
2, 160630, Note_on_c, 0, 37, 41
2, 160666, Note_on_c, 0, 66, 0
2, 160670, Note_on_c, 0, 68, 0
2, 160911, Note_on_c, 0, 65, 0
2, 160932, Note_on_c, 0, 73, 0
2, 161023, Note_on_c, 0, 70, 71
2, 161024, Note_on_c, 0, 66, 67
2, 161038, Note_on_c, 0, 42, 52
2, 161044, Note_on_c, 0, 37, 0
2, 161194, Note_on_c, 0, 42, 0
2, 161208, Note_on_c, 0, 73, 79
2, 161231, Note_on_c, 0, 70, 0
2, 161268, Note_on_c, 0, 73, 0
2, 161374, Note_on_c, 0, 73, 81
2, 161379, Note_on_c, 0, 54, 55
2, 161552, Note_on_c, 0, 70, 73
2, 161571, Note_on_c, 0, 66, 0
2, 161589, Note_on_c, 0, 73, 0
2, 161603, Note_on_c, 0, 54, 0
2, 161625, Note_on_c, 0, 70, 0
2, 161717, Note_on_c, 0, 68, 75
2, 161722, Note_on_c, 0, 53, 54
2, 161889, Note_on_c, 0, 73, 75
2, 161926, Note_on_c, 0, 68, 0
2, 161946, Note_on_c, 0, 73, 0
2, 161973, Note_on_c, 0, 53, 0
2, 162063, Note_on_c, 0, 73, 70
2, 162074, Note_on_c, 0, 49, 45
2, 162075, Note_on_c, 0, 65, 62
2, 162241, Note_on_c, 0, 68, 69
2, 162260, Note_on_c, 0, 65, 0
2, 162282, Note_on_c, 0, 68, 0
2, 162291, Note_on_c, 0, 73, 0
2, 162360, Note_on_c, 0, 49, 0
2, 162399, Note_on_c, 0, 70, 74
2, 162402, Note_on_c, 0, 66, 60
2, 162416, Note_on_c, 0, 54, 51
2, 162584, Note_on_c, 0, 58, 68
2, 162615, Note_on_c, 0, 58, 0
2, 162619, Note_on_c, 0, 54, 0
2, 162636, Note_on_c, 0, 70, 0
2, 162744, Note_on_c, 0, 73, 77
2, 162747, Note_on_c, 0, 58, 58
2, 162920, Note_on_c, 0, 54, 61
2, 162961, Note_on_c, 0, 58, 0
2, 162968, Note_on_c, 0, 54, 0
2, 162977, Note_on_c, 0, 73, 0
2, 163085, Note_on_c, 0, 78, 77
2, 163095, Note_on_c, 0, 51, 54
2, 163259, Note_on_c, 0, 54, 60
2, 163275, Note_on_c, 0, 51, 0
2, 163304, Note_on_c, 0, 54, 0
2, 163450, Note_on_c, 0, 54, 51
2, 163452, Note_on_c, 0, 70, 62
2, 163620, Note_on_c, 0, 51, 58
2, 163650, Note_on_c, 0, 54, 0
2, 163666, Note_on_c, 0, 66, 0
2, 163672, Note_on_c, 0, 51, 0
2, 163702, Note_on_c, 0, 70, 0
2, 163798, Note_on_c, 0, 68, 63
2, 163804, Note_on_c, 0, 47, 43
2, 163967, Note_on_c, 0, 75, 67
2, 164013, Note_on_c, 0, 47, 0
2, 164023, Note_on_c, 0, 68, 0
2, 164034, Note_on_c, 0, 75, 0
2, 164151, Note_on_c, 0, 44, 42
2, 164160, Note_on_c, 0, 75, 65
2, 164330, Note_on_c, 0, 71, 62
2, 164371, Note_on_c, 0, 75, 0
2, 164371, Note_on_c, 0, 78, 0
2, 164383, Note_on_c, 0, 44, 0
2, 164396, Note_on_c, 0, 71, 0
2, 164529, Note_on_c, 0, 77, 61
2, 164536, Note_on_c, 0, 49, 40
2, 164548, Note_on_c, 0, 68, 38
2, 164753, Note_on_c, 0, 73, 58
2, 164754, Note_on_c, 0, 49, 0
2, 164787, Note_on_c, 0, 68, 0
2, 164804, Note_on_c, 0, 73, 0
2, 164980, Note_on_c, 0, 37, 37
2, 164993, Note_on_c, 0, 73, 49
2, 165291, Note_on_c, 0, 71, 53
2, 165311, Note_on_c, 0, 73, 0
2, 165340, Note_on_c, 0, 37, 0
2, 165605, Note_on_c, 0, 71, 0
2, 165904, Note_on_c, 0, 70, 42
2, 165907, Note_on_c, 0, 78, 54
2, 165921, Note_on_c, 0, 42, 27
2, 165969, Note_on_c, 0, 70, 0
2, 165969, Note_on_c, 0, 70, 8
2, 166002, Note_on_c, 0, 77, 0
2, 168198, Note_on_c, 0, 70, 0
2, 168209, Note_on_c, 0, 78, 0
2, 168211, Note_on_c, 0, 42, 0
2, 168212, End_track
0, 0, End_of_file
