0, 0, Header, 1, 2, 384
1, 0, Start_track
1, 0, Tempo, 500000
1, 0, Time_signature, 4, 2, 24, 8
1, 1, End_track
2,0,Start_track
2,0, Note_on_c, 0, 61, 40
2,397, Note_on_c, 0, 57, 54
2,552, Note_on_c, 0, 61, 0
2,794, Note_on_c, 0, 54, 57
2,863, Note_on_c, 0, 57, 0
2,1222, Note_on_c, 0, 62, 56
2,1296, Note_on_c, 0, 54, 0
2,2332, Note_on_c, 0, 61, 51
2,2400, Note_on_c, 0, 62, 0
2,2512, Note_on_c, 0, 59, 55
2,2542, Note_on_c, 0, 61, 0
2,2728, Note_on_c, 0, 61, 59
2,2830, Note_on_c, 0, 59, 0
2,3769, Note_on_c, 0, 66, 52
2,3830, Note_on_c, 0, 61, 0
2,4142, Note_on_c, 0, 59, 53
2,4150, Note_on_c, 0, 66, 0
2,5203, Note_on_c, 0, 57, 42
2,5297, Note_on_c, 0, 59, 0
2,5359, Note_on_c, 0, 56, 53
2,5392, Note_on_c, 0, 57, 0
2,5554, Note_on_c, 0, 57, 51
2,5589, Note_on_c, 0, 56, 0
2,5924, Note_on_c, 0, 54, 53
2,5977, Note_on_c, 0, 57, 0
2,6269, Note_on_c, 0, 56, 50
2,6354, Note_on_c, 0, 54, 0
2,6435, Note_on_c, 0, 56, 0
2,6468, Note_on_c, 0, 57, 39
2,6538, Note_on_c, 0, 57, 0
2,6567, Note_on_c, 0, 56, 55
2,6619, Note_on_c, 0, 56, 0
2,6653, Note_on_c, 0, 57, 47
2,6697, Note_on_c, 0, 57, 0
2,6726, Note_on_c, 0, 56, 53
2,6778, Note_on_c, 0, 56, 0
2,6801, Note_on_c, 0, 57, 51
2,6866, Note_on_c, 0, 57, 0
2,6892, Note_on_c, 0, 56, 57
2,6948, Note_on_c, 0, 56, 0
2,6979, Note_on_c, 0, 57, 51
2,7056, Note_on_c, 0, 57, 0
2,7072, Note_on_c, 0, 56, 54
2,7143, Note_on_c, 0, 56, 0
2,7177, Note_on_c, 0, 57, 52
2,7226, Note_on_c, 0, 57, 0
2,7252, Note_on_c, 0, 56, 53
2,7304, Note_on_c, 0, 56, 0
2,7338, Note_on_c, 0, 57, 56
2,7382, Note_on_c, 0, 57, 0
2,7422, Note_on_c, 0, 56, 54
2,7488, Note_on_c, 0, 56, 0
2,7561, Note_on_c, 0, 54, 60
2,7636, Note_on_c, 0, 56, 55
2,7638, Note_on_c, 0, 54, 0
2,7729, Note_on_c, 0, 56, 0
2,7759, Note_on_c, 0, 54, 57
2,8134, Note_on_c, 0, 56, 50
2,8199, Note_on_c, 0, 54, 0
2,8500, Note_on_c, 0, 57, 46
2,8575, Note_on_c, 0, 56, 0
2,8879, Note_on_c, 0, 66, 62
2,8896, Note_on_c, 0, 59, 46
2,8944, Note_on_c, 0, 57, 0
2,9253, Note_on_c, 0, 64, 60
2,9260, Note_on_c, 0, 61, 44
2,9321, Note_on_c, 0, 59, 0
2,9360, Note_on_c, 0, 66, 0
2,9491, Note_on_c, 0, 61, 0
2,9633, Note_on_c, 0, 61, 66
2,9715, Note_on_c, 0, 64, 0
2,10013, Note_on_c, 0, 69, 66
2,10074, Note_on_c, 0, 61, 0
2,10374, Note_on_c, 0, 63, 47
2,10746, Note_on_c, 0, 64, 51
2,10835, Note_on_c, 0, 63, 0
2,11118, Note_on_c, 0, 68, 61
2,11189, Note_on_c, 0, 69, 0
2,11272, Note_on_c, 0, 66, 66
2,11321, Note_on_c, 0, 68, 0
2,11479, Note_on_c, 0, 68, 67
2,11503, Note_on_c, 0, 64, 0
2,11547, Note_on_c, 0, 66, 0
2,11830, Note_on_c, 0, 64, 46
2,12195, Note_on_c, 0, 58, 49
2,12367, Note_on_c, 0, 64, 0
2,12564, Note_on_c, 0, 73, 58
2,12658, Note_on_c, 0, 68, 0
2,12928, Note_on_c, 0, 66, 63
2,13047, Note_on_c, 0, 58, 0
2,13089, Note_on_c, 0, 73, 0
2,13280, Note_on_c, 0, 60, 42
2,13639, Note_on_c, 0, 61, 46
2,13744, Note_on_c, 0, 60, 0
2,14008, Note_on_c, 0, 64, 50
2,14011, Note_on_c, 0, 66, 0
2,14151, Note_on_c, 0, 63, 59
2,14159, Note_on_c, 0, 64, 0
2,14346, Note_on_c, 0, 64, 56
2,14384, Note_on_c, 0, 63, 0
2,14402, Note_on_c, 0, 61, 0
2,14704, Note_on_c, 0, 61, 55
2,14758, Note_on_c, 0, 64, 0
2,15059, Note_on_c, 0, 63, 55
2,15090, Note_on_c, 0, 61, 0
2,15224, Note_on_c, 0, 63, 0
2,15249, Note_on_c, 0, 64, 49
2,15311, Note_on_c, 0, 64, 0
2,15344, Note_on_c, 0, 63, 54
2,15386, Note_on_c, 0, 63, 0
2,15421, Note_on_c, 0, 60, 46
2,15427, Note_on_c, 0, 64, 48
2,15465, Note_on_c, 0, 64, 0
2,15489, Note_on_c, 0, 63, 61
2,15555, Note_on_c, 0, 63, 0
2,15563, Note_on_c, 0, 60, 0
2,15579, Note_on_c, 0, 64, 57
2,15581, Note_on_c, 0, 58, 51
2,15644, Note_on_c, 0, 64, 0
2,15664, Note_on_c, 0, 63, 66
2,15722, Note_on_c, 0, 63, 0
2,15746, Note_on_c, 0, 60, 52
2,15748, Note_on_c, 0, 64, 64
2,15750, Note_on_c, 0, 58, 0
2,15814, Note_on_c, 0, 64, 0
2,15834, Note_on_c, 0, 63, 64
2,15906, Note_on_c, 0, 63, 0
2,15917, Note_on_c, 0, 64, 59
2,15990, Note_on_c, 0, 63, 56
2,15990, Note_on_c, 0, 64, 0
2,16031, Note_on_c, 0, 63, 0
2,16049, Note_on_c, 0, 60, 0
2,16050, Note_on_c, 0, 56, 45
2,16058, Note_on_c, 0, 64, 52
2,16125, Note_on_c, 0, 64, 0
2,16133, Note_on_c, 0, 63, 57
2,16168, Note_on_c, 0, 63, 0
2,16207, Note_on_c, 0, 61, 63
2,16286, Note_on_c, 0, 61, 0
2,16288, Note_on_c, 0, 63, 57
2,16415, Note_on_c, 0, 63, 0
2,16427, Note_on_c, 0, 61, 57
2,16433, Note_on_c, 0, 64, 46
2,16516, Note_on_c, 0, 56, 0
2,16629, Note_on_c, 0, 61, 0
2,16790, Note_on_c, 0, 73, 58
2,17165, Note_on_c, 0, 66, 56
2,17291, Note_on_c, 0, 73, 0
2,17515, Note_on_c, 0, 57, 46
2,17608, Note_on_c, 0, 64, 0
2,17896, Note_on_c, 0, 62, 53
2,18008, Note_on_c, 0, 57, 0
2,18243, Note_on_c, 0, 71, 53
2,18307, Note_on_c, 0, 66, 0
2,18611, Note_on_c, 0, 64, 50
2,18746, Note_on_c, 0, 71, 0
2,18992, Note_on_c, 0, 56, 51
2,19119, Note_on_c, 0, 62, 0
2,19351, Note_on_c, 0, 61, 51
2,19460, Note_on_c, 0, 56, 0
2,19699, Note_on_c, 0, 69, 58
2,19761, Note_on_c, 0, 64, 0
2,20040, Note_on_c, 0, 59, 52
2,20104, Note_on_c, 0, 61, 0
2,20387, Note_on_c, 0, 68, 61
2,20563, Note_on_c, 0, 69, 0
2,20742, Note_on_c, 0, 57, 53
2,20815, Note_on_c, 0, 59, 0
2,21074, Note_on_c, 0, 66, 62
2,21144, Note_on_c, 0, 68, 0
2,21426, Note_on_c, 0, 57, 0
2,21445, Note_on_c, 0, 56, 57
2,21818, Note_on_c, 0, 65, 54
2,21829, Note_on_c, 0, 49, 68
2,21921, Note_on_c, 0, 56, 0
2,21929, Note_on_c, 0, 66, 0
2,22181, Note_on_c, 0, 66, 63
2,22189, Note_on_c, 0, 54, 55
2,22192, Note_on_c, 0, 45, 65
2,22251, Note_on_c, 0, 65, 0
2,22260, Note_on_c, 0, 49, 0
2,22537, Note_on_c, 0, 42, 68
2,22595, Note_on_c, 0, 45, 0
2,22662, Note_on_c, 0, 54, 0
2,22900, Note_on_c, 0, 66, 0
2,22912, Note_on_c, 0, 50, 66
2,23046, Note_on_c, 0, 42, 0
2,23292, Note_on_c, 0, 71, 58
2,23628, Note_on_c, 0, 68, 56
2,23899, Note_on_c, 0, 71, 0
2,24011, Note_on_c, 0, 49, 63
2,24021, Note_on_c, 0, 64, 52
2,24105, Note_on_c, 0, 50, 0
2,24173, Note_on_c, 0, 47, 63
2,24185, Note_on_c, 0, 68, 0
2,24236, Note_on_c, 0, 49, 0
2,24377, Note_on_c, 0, 52, 64
2,24383, Note_on_c, 0, 49, 63
2,24458, Note_on_c, 0, 47, 0
2,24523, Note_on_c, 0, 64, 0
2,24736, Note_on_c, 0, 69, 59
2,25100, Note_on_c, 0, 66, 60
2,25114, Note_on_c, 0, 57, 42
2,25425, Note_on_c, 0, 52, 0
2,25461, Note_on_c, 0, 54, 66
2,25462, Note_on_c, 0, 63, 53
2,25549, Note_on_c, 0, 49, 0
2,25551, Note_on_c, 0, 69, 0
2,25630, Note_on_c, 0, 66, 0
2,25838, Note_on_c, 0, 47, 67
2,25846, Note_on_c, 0, 62, 53
2,25905, Note_on_c, 0, 54, 0
2,25909, Note_on_c, 0, 57, 0
2,26053, Note_on_c, 0, 63, 0
2,26198, Note_on_c, 0, 68, 58
2,26207, Note_on_c, 0, 59, 48
2,26230, Note_on_c, 0, 62, 0
2,26339, Note_on_c, 0, 59, 0
2,26578, Note_on_c, 0, 65, 59
2,26586, Note_on_c, 0, 56, 50
2,26647, Note_on_c, 0, 68, 0
2,26915, Note_on_c, 0, 45, 53
2,26925, Note_on_c, 0, 61, 56
2,27033, Note_on_c, 0, 47, 0
2,27034, Note_on_c, 0, 65, 0
2,27086, Note_on_c, 0, 44, 59
2,27129, Note_on_c, 0, 45, 0
2,27178, Note_on_c, 0, 56, 0
2,27281, Note_on_c, 0, 45, 54
2,27288, Note_on_c, 0, 66, 64
2,27328, Note_on_c, 0, 44, 0
2,27342, Note_on_c, 0, 61, 0
2,27638, Note_on_c, 0, 42, 54
2,27643, Note_on_c, 0, 57, 53
2,27740, Note_on_c, 0, 45, 0
2,28014, Note_on_c, 0, 57, 0
2,28025, Note_on_c, 0, 59, 44
2,28033, Note_on_c, 0, 44, 51
2,28102, Note_on_c, 0, 42, 0
2,28182, Note_on_c, 0, 44, 0
2,28202, Note_on_c, 0, 45, 50
2,28270, Note_on_c, 0, 45, 0
2,28297, Note_on_c, 0, 44, 55
2,28361, Note_on_c, 0, 44, 0
2,28362, Note_on_c, 0, 62, 53
2,28369, Note_on_c, 0, 59, 0
2,28386, Note_on_c, 0, 45, 55
2,28442, Note_on_c, 0, 45, 0
2,28469, Note_on_c, 0, 44, 56
2,28529, Note_on_c, 0, 44, 0
2,28557, Note_on_c, 0, 45, 56
2,28628, Note_on_c, 0, 45, 0
2,28652, Note_on_c, 0, 44, 54
2,28701, Note_on_c, 0, 62, 0
2,28707, Note_on_c, 0, 65, 62
2,28720, Note_on_c, 0, 44, 0
2,28744, Note_on_c, 0, 45, 58
2,28811, Note_on_c, 0, 45, 0
2,28827, Note_on_c, 0, 44, 54
2,28834, Note_on_c, 0, 66, 0
2,28896, Note_on_c, 0, 44, 0
2,28928, Note_on_c, 0, 45, 58
2,28974, Note_on_c, 0, 45, 0
2,29000, Note_on_c, 0, 44, 55
2,29055, Note_on_c, 0, 56, 54
2,29058, Note_on_c, 0, 44, 0
2,29077, Note_on_c, 0, 45, 61
2,29158, Note_on_c, 0, 45, 0
2,29170, Note_on_c, 0, 44, 58
2,29221, Note_on_c, 0, 56, 0
2,29232, Note_on_c, 0, 44, 0
2,29252, Note_on_c, 0, 42, 59
2,29313, Note_on_c, 0, 42, 0
2,29344, Note_on_c, 0, 44, 48
2,29431, Note_on_c, 0, 66, 50
2,29432, Note_on_c, 0, 57, 35
2,29455, Note_on_c, 0, 44, 0
2,29457, Note_on_c, 0, 65, 0
2,29460, Note_on_c, 0, 42, 44
2,29514, Note_on_c, 0, 57, 0
2,29547, Note_on_c, 0, 66, 0
2,29779, Note_on_c, 0, 69, 59
2,29796, Note_on_c, 0, 61, 42
2,29818, Note_on_c, 0, 42, 0
2,30195, Note_on_c, 0, 71, 60
2,30202, Note_on_c, 0, 50, 52
2,30240, Note_on_c, 0, 61, 0
2,30245, Note_on_c, 0, 69, 0
2,30573, Note_on_c, 0, 74, 50
2,30587, Note_on_c, 0, 54, 39
2,30658, Note_on_c, 0, 71, 0
2,30951, Note_on_c, 0, 56, 47
2,31013, Note_on_c, 0, 74, 0
2,31049, Note_on_c, 0, 54, 0
2,31305, Note_on_c, 0, 68, 62
2,31323, Note_on_c, 0, 59, 40
2,31394, Note_on_c, 0, 50, 0
2,31470, Note_on_c, 0, 56, 0
2,31669, Note_on_c, 0, 69, 68
2,31682, Note_on_c, 0, 49, 50
2,31792, Note_on_c, 0, 68, 0
2,31848, Note_on_c, 0, 59, 0
2,32032, Note_on_c, 0, 73, 62
2,32049, Note_on_c, 0, 57, 48
2,32094, Note_on_c, 0, 69, 0
2,32135, Note_on_c, 0, 49, 0
2,32413, Note_on_c, 0, 47, 56
2,32419, Note_on_c, 0, 62, 56
2,32514, Note_on_c, 0, 73, 0
2,32571, Note_on_c, 0, 57, 0
2,32786, Note_on_c, 0, 66, 52
2,32933, Note_on_c, 0, 68, 64
2,32934, Note_on_c, 0, 66, 0
2,33109, Note_on_c, 0, 68, 0
2,33122, Note_on_c, 0, 69, 62
2,33142, Note_on_c, 0, 59, 45
2,33201, Note_on_c, 0, 69, 0
2,33232, Note_on_c, 0, 68, 59
2,33281, Note_on_c, 0, 68, 0
2,33310, Note_on_c, 0, 69, 61
2,33368, Note_on_c, 0, 69, 0
2,33388, Note_on_c, 0, 68, 66
2,33448, Note_on_c, 0, 68, 0
2,33465, Note_on_c, 0, 69, 67
2,33474, Note_on_c, 0, 52, 53
2,33483, Note_on_c, 0, 47, 0
2,33535, Note_on_c, 0, 69, 0
2,33541, Note_on_c, 0, 68, 65
2,33626, Note_on_c, 0, 68, 0
2,33630, Note_on_c, 0, 66, 62
2,33647, Note_on_c, 0, 62, 0
2,33691, Note_on_c, 0, 68, 64
2,33697, Note_on_c, 0, 66, 0
2,33817, Note_on_c, 0, 68, 0
2,33821, Note_on_c, 0, 69, 65
2,33822, Note_on_c, 0, 49, 51
2,33825, Note_on_c, 0, 59, 0
2,33828, Note_on_c, 0, 64, 54
2,34011, Note_on_c, 0, 52, 0
2,34119, Note_on_c, 0, 64, 0
2,34163, Note_on_c, 0, 61, 55
2,34166, Note_on_c, 0, 45, 54
2,34181, Note_on_c, 0, 49, 0
2,34489, Note_on_c, 0, 61, 0
2,34542, Note_on_c, 0, 63, 58
2,34544, Note_on_c, 0, 69, 0
2,34545, Note_on_c, 0, 54, 53
2,34609, Note_on_c, 0, 45, 0
2,34907, Note_on_c, 0, 75, 63
2,34917, Note_on_c, 0, 66, 56
2,34976, Note_on_c, 0, 63, 0
2,35273, Note_on_c, 0, 72, 61
2,35350, Note_on_c, 0, 66, 0
2,35490, Note_on_c, 0, 75, 0
2,35619, Note_on_c, 0, 60, 54
2,35625, Note_on_c, 0, 68, 63
2,35731, Note_on_c, 0, 54, 0
2,35743, Note_on_c, 0, 72, 0
2,35969, Note_on_c, 0, 61, 59
2,35987, Note_on_c, 0, 52, 55
2,35997, Note_on_c, 0, 60, 0
2,36045, Note_on_c, 0, 68, 0
2,36337, Note_on_c, 0, 73, 70
2,36349, Note_on_c, 0, 64, 55
2,36393, Note_on_c, 0, 52, 0
2,36452, Note_on_c, 0, 61, 0
2,36703, Note_on_c, 0, 78, 76
2,36711, Note_on_c, 0, 51, 52
2,36766, Note_on_c, 0, 73, 0
2,36776, Note_on_c, 0, 64, 0
2,37041, Note_on_c, 0, 58, 60
2,37214, Note_on_c, 0, 58, 0
2,37215, Note_on_c, 0, 60, 63
2,37380, Note_on_c, 0, 60, 0
2,37397, Note_on_c, 0, 61, 60
2,37398, Note_on_c, 0, 75, 64
2,37469, Note_on_c, 0, 61, 0
2,37486, Note_on_c, 0, 60, 56
2,37537, Note_on_c, 0, 60, 0
2,37559, Note_on_c, 0, 61, 48
2,37578, Note_on_c, 0, 78, 0
2,37583, Note_on_c, 0, 61, 0
2,37602, Note_on_c, 0, 60, 53
2,37643, Note_on_c, 0, 60, 0
2,37650, Note_on_c, 0, 61, 74
2,37736, Note_on_c, 0, 56, 66
2,37840, Note_on_c, 0, 61, 0
2,37929, Note_on_c, 0, 56, 0
2,37934, Note_on_c, 0, 58, 64
2,37963, Note_on_c, 0, 51, 0
2,38003, Note_on_c, 0, 58, 0
2,38020, Note_on_c, 0, 60, 56
2,38110, Note_on_c, 0, 80, 74
2,38119, Note_on_c, 0, 52, 58
2,38135, Note_on_c, 0, 60, 0
2,38135, Note_on_c, 0, 61, 54
2,38191, Note_on_c, 0, 75, 0
2,38223, Note_on_c, 0, 52, 0
2,38351, Note_on_c, 0, 80, 0
2,38468, Note_on_c, 0, 76, 74
2,38469, Note_on_c, 0, 49, 64
2,38535, Note_on_c, 0, 61, 0
2,38840, Note_on_c, 0, 78, 76
2,38846, Note_on_c, 0, 57, 59
2,38892, Note_on_c, 0, 49, 0
2,38941, Note_on_c, 0, 76, 0
2,39204, Note_on_c, 0, 81, 63
2,39208, Note_on_c, 0, 66, 46
2,39265, Note_on_c, 0, 78, 0
2,39558, Note_on_c, 0, 66, 0
2,39559, Note_on_c, 0, 62, 55
2,39575, Note_on_c, 0, 81, 0
2,39644, Note_on_c, 0, 57, 0
2,39717, Note_on_c, 0, 62, 0
2,39717, Note_on_c, 0, 62, 27
2,39910, Note_on_c, 0, 74, 59
2,39922, Note_on_c, 0, 59, 51
2,40274, Note_on_c, 0, 56, 53
2,40277, Note_on_c, 0, 76, 62
2,40396, Note_on_c, 0, 74, 0
2,40400, Note_on_c, 0, 59, 0
2,40403, Note_on_c, 0, 62, 0
2,40641, Note_on_c, 0, 80, 58
2,40647, Note_on_c, 0, 64, 48
2,40695, Note_on_c, 0, 76, 0
2,40996, Note_on_c, 0, 61, 59
2,41038, Note_on_c, 0, 80, 0
2,41054, Note_on_c, 0, 56, 0
2,41107, Note_on_c, 0, 64, 0
2,41341, Note_on_c, 0, 57, 56
2,41341, Note_on_c, 0, 73, 62
2,41362, Note_on_c, 0, 49, 51
2,41723, Note_on_c, 0, 54, 60
2,41726, Note_on_c, 0, 71, 63
2,41782, Note_on_c, 0, 49, 0
2,41811, Note_on_c, 0, 61, 0
2,41904, Note_on_c, 0, 57, 0
2,41962, Note_on_c, 0, 73, 0
2,42081, Note_on_c, 0, 61, 63
2,42081, Note_on_c, 0, 69, 65
2,42130, Note_on_c, 0, 71, 0
2,42454, Note_on_c, 0, 68, 79
2,42465, Note_on_c, 0, 59, 64
2,42520, Note_on_c, 0, 61, 0
2,42570, Note_on_c, 0, 69, 0
2,42802, Note_on_c, 0, 57, 61
2,43040, Note_on_c, 0, 59, 0
2,43197, Note_on_c, 0, 56, 68
2,43200, Note_on_c, 0, 53, 61
2,43251, Note_on_c, 0, 68, 0
2,43272, Note_on_c, 0, 54, 0
2,43298, Note_on_c, 0, 57, 0
2,43555, Note_on_c, 0, 73, 78
2,43949, Note_on_c, 0, 69, 77
2,43955, Note_on_c, 0, 54, 61
2,43992, Note_on_c, 0, 53, 0
2,44082, Note_on_c, 0, 73, 0
2,44100, Note_on_c, 0, 56, 0
2,44319, Note_on_c, 0, 66, 82
2,44323, Note_on_c, 0, 57, 64
2,44378, Note_on_c, 0, 69, 0
2,44696, Note_on_c, 0, 74, 77
2,44702, Note_on_c, 0, 59, 49
2,44816, Note_on_c, 0, 57, 0
2,44839, Note_on_c, 0, 66, 0
2,45064, Note_on_c, 0, 71, 55
2,45066, Note_on_c, 0, 62, 57
2,45161, Note_on_c, 0, 59, 0
2,45422, Note_on_c, 0, 64, 58
2,45426, Note_on_c, 0, 56, 53
2,45478, Note_on_c, 0, 54, 0
2,45484, Note_on_c, 0, 71, 0
2,45594, Note_on_c, 0, 62, 0
2,45811, Note_on_c, 0, 73, 73
2,45837, Note_on_c, 0, 52, 45
2,45937, Note_on_c, 0, 56, 0
2,45979, Note_on_c, 0, 71, 72
2,46033, Note_on_c, 0, 74, 0
2,46056, Note_on_c, 0, 73, 0
2,46193, Note_on_c, 0, 73, 75
2,46199, Note_on_c, 0, 57, 48
2,46291, Note_on_c, 0, 64, 0
2,46297, Note_on_c, 0, 71, 0
2,46347, Note_on_c, 0, 52, 0
2,46554, Note_on_c, 0, 61, 51
2,46559, Note_on_c, 0, 64, 54
2,46632, Note_on_c, 0, 57, 0
2,46905, Note_on_c, 0, 54, 54
2,46912, Note_on_c, 0, 64, 0
2,46912, Note_on_c, 0, 69, 66
2,47052, Note_on_c, 0, 61, 0
2,47275, Note_on_c, 0, 78, 79
2,47281, Note_on_c, 0, 51, 53
2,47357, Note_on_c, 0, 54, 0
2,47387, Note_on_c, 0, 73, 0
2,47636, Note_on_c, 0, 71, 73
2,47642, Note_on_c, 0, 56, 50
2,47737, Note_on_c, 0, 78, 0
2,47741, Note_on_c, 0, 69, 0
2,47819, Note_on_c, 0, 51, 0
2,48019, Note_on_c, 0, 59, 44
2,48022, Note_on_c, 0, 68, 49
2,48141, Note_on_c, 0, 56, 0
2,48159, Note_on_c, 0, 68, 0
2,48190, Note_on_c, 0, 66, 53
2,48370, Note_on_c, 0, 68, 64
2,48374, Note_on_c, 0, 53, 50
2,48429, Note_on_c, 0, 66, 0
2,48633, Note_on_c, 0, 59, 0
2,48723, Note_on_c, 0, 65, 61
2,48726, Note_on_c, 0, 69, 68
2,48732, Note_on_c, 0, 49, 54
2,48765, Note_on_c, 0, 68, 0
2,48790, Note_on_c, 0, 53, 0
2,48881, Note_on_c, 0, 71, 0
2,48884, Note_on_c, 0, 68, 75
2,48934, Note_on_c, 0, 69, 0
2,48936, Note_on_c, 0, 65, 0
2,49097, Note_on_c, 0, 69, 69
2,49101, Note_on_c, 0, 54, 52
2,49120, Note_on_c, 0, 66, 68
2,49166, Note_on_c, 0, 49, 0
2,49192, Note_on_c, 0, 68, 0
2,49303, Note_on_c, 0, 66, 0
2,49456, Note_on_c, 0, 66, 76
2,49466, Note_on_c, 0, 57, 42
2,49542, Note_on_c, 0, 69, 0
2,49558, Note_on_c, 0, 54, 0
2,49821, Note_on_c, 0, 68, 76
2,49835, Note_on_c, 0, 59, 43
2,49903, Note_on_c, 0, 57, 0
2,50178, Note_on_c, 0, 56, 44
2,50186, Note_on_c, 0, 64, 45
2,50231, Note_on_c, 0, 66, 0
2,50255, Note_on_c, 0, 59, 0
2,50344, Note_on_c, 0, 64, 0
2,50347, Note_on_c, 0, 63, 51
2,50539, Note_on_c, 0, 61, 42
2,50542, Note_on_c, 0, 64, 51
2,50563, Note_on_c, 0, 63, 0
2,50648, Note_on_c, 0, 56, 0
2,50912, Note_on_c, 0, 59, 44
2,50981, Note_on_c, 0, 61, 0
2,51278, Note_on_c, 0, 66, 69
2,51280, Note_on_c, 0, 58, 43
2,51468, Note_on_c, 0, 59, 0
2,51493, Note_on_c, 0, 64, 0
2,51551, Note_on_c, 0, 68, 0
2,51619, Note_on_c, 0, 54, 43
2,51635, Note_on_c, 0, 62, 47
2,51738, Note_on_c, 0, 58, 0
2,51784, Note_on_c, 0, 62, 0
2,51797, Note_on_c, 0, 61, 53
2,52015, Note_on_c, 0, 59, 40
2,52016, Note_on_c, 0, 61, 0
2,52018, Note_on_c, 0, 62, 51
2,52101, Note_on_c, 0, 54, 0
2,52352, Note_on_c, 0, 71, 62
2,52355, Note_on_c, 0, 57, 40
2,52438, Note_on_c, 0, 66, 0
2,52590, Note_on_c, 0, 59, 0
2,52724, Note_on_c, 0, 64, 59
2,52742, Note_on_c, 0, 62, 0
2,52749, Note_on_c, 0, 56, 39
2,52851, Note_on_c, 0, 57, 0
2,53068, Note_on_c, 0, 68, 62
2,53073, Note_on_c, 0, 52, 41
2,53110, Note_on_c, 0, 64, 0
2,53126, Note_on_c, 0, 56, 0
2,53146, Note_on_c, 0, 71, 0
2,53440, Note_on_c, 0, 69, 57
2,53445, Note_on_c, 0, 54, 42
2,53450, Note_on_c, 0, 61, 46
2,53466, Note_on_c, 0, 68, 0
2,53550, Note_on_c, 0, 52, 0
2,53792, Note_on_c, 0, 73, 58
2,53794, Note_on_c, 0, 57, 44
2,53827, Note_on_c, 0, 69, 0
2,53843, Note_on_c, 0, 54, 0
2,54164, Note_on_c, 0, 73, 0
2,54170, Note_on_c, 0, 66, 53
2,54186, Note_on_c, 0, 50, 41
2,54302, Note_on_c, 0, 57, 0
2,54544, Note_on_c, 0, 62, 40
2,54545, Note_on_c, 0, 47, 41
2,54580, Note_on_c, 0, 61, 0
2,54629, Note_on_c, 0, 50, 0
2,54899, Note_on_c, 0, 68, 50
2,54920, Note_on_c, 0, 52, 39
2,54923, Note_on_c, 0, 59, 34
2,54947, Note_on_c, 0, 47, 0
2,54950, Note_on_c, 0, 62, 0
2,54955, Note_on_c, 0, 66, 0
2,55275, Note_on_c, 0, 40, 49
2,55281, Note_on_c, 0, 64, 37
2,55383, Note_on_c, 0, 59, 0
2,55391, Note_on_c, 0, 52, 0
2,55454, Note_on_c, 0, 68, 0
2,55699, Note_on_c, 0, 69, 48
2,55709, Note_on_c, 0, 61, 40
2,55711, Note_on_c, 0, 45, 42
2,55729, Note_on_c, 0, 40, 0
2,55751, Note_on_c, 0, 64, 0
2,55864, Note_on_c, 0, 45, 0
2,56103, Note_on_c, 0, 57, 71
2,56207, Note_on_c, 0, 57, 0
2,56487, Note_on_c, 0, 56, 75
2,56539, Note_on_c, 0, 69, 0
2,56543, Note_on_c, 0, 61, 0
2,56952, Note_on_c, 0, 56, 0
2,57034, Note_on_c, 0, 54, 50
2,57115, Note_on_c, 0, 54, 0
2,57206, Note_on_c, 0, 53, 71
2,57368, Note_on_c, 0, 53, 0
2,57544, Note_on_c, 0, 61, 67
2,57552, Note_on_c, 0, 49, 68
2,57649, Note_on_c, 0, 49, 0
2,57729, Note_on_c, 0, 61, 0
2,57950, Note_on_c, 0, 54, 70
2,57952, Note_on_c, 0, 59, 76
2,58370, Note_on_c, 0, 59, 0
2,58527, Note_on_c, 0, 57, 65
2,58663, Note_on_c, 0, 57, 0
2,58723, Note_on_c, 0, 56, 76
2,59081, Note_on_c, 0, 74, 71
2,59228, Note_on_c, 0, 74, 0
2,59467, Note_on_c, 0, 53, 57
2,59469, Note_on_c, 0, 73, 83
2,59520, Note_on_c, 0, 54, 0
2,59546, Note_on_c, 0, 56, 0
2,59836, Note_on_c, 0, 61, 59
2,59842, Note_on_c, 0, 52, 61
2,59867, Note_on_c, 0, 73, 0
2,59875, Note_on_c, 0, 53, 0
2,60017, Note_on_c, 0, 71, 67
2,60083, Note_on_c, 0, 71, 0
2,60198, Note_on_c, 0, 52, 0
2,60199, Note_on_c, 0, 70, 79
2,60209, Note_on_c, 0, 54, 59
2,60220, Note_on_c, 0, 61, 0
2,60368, Note_on_c, 0, 70, 0
2,60549, Note_on_c, 0, 66, 80
2,60553, Note_on_c, 0, 50, 61
2,60638, Note_on_c, 0, 54, 0
2,60696, Note_on_c, 0, 66, 0
2,60933, Note_on_c, 0, 49, 63
2,60936, Note_on_c, 0, 71, 77
2,60942, Note_on_c, 0, 64, 75
2,60952, Note_on_c, 0, 50, 0
2,61283, Note_on_c, 0, 47, 60
2,61288, Note_on_c, 0, 64, 0
2,61344, Note_on_c, 0, 49, 0
2,61444, Note_on_c, 0, 62, 68
2,61557, Note_on_c, 0, 62, 0
2,61650, Note_on_c, 0, 61, 68
2,61657, Note_on_c, 0, 52, 53
2,61716, Note_on_c, 0, 47, 0
2,61802, Note_on_c, 0, 61, 0
2,62008, Note_on_c, 0, 67, 77
2,62027, Note_on_c, 0, 49, 71
2,62048, Note_on_c, 0, 52, 0
2,62138, Note_on_c, 0, 67, 0
2,62386, Note_on_c, 0, 70, 77
2,62399, Note_on_c, 0, 54, 68
2,62401, Note_on_c, 0, 66, 81
2,62402, Note_on_c, 0, 49, 0
2,62495, Note_on_c, 0, 71, 0
2,62632, Note_on_c, 0, 70, 0
2,62745, Note_on_c, 0, 69, 68
2,62761, Note_on_c, 0, 42, 56
2,62769, Note_on_c, 0, 66, 0
2,62837, Note_on_c, 0, 54, 0
2,62915, Note_on_c, 0, 64, 64
2,62972, Note_on_c, 0, 64, 0
2,63118, Note_on_c, 0, 63, 73
2,63128, Note_on_c, 0, 47, 62
2,63209, Note_on_c, 0, 69, 0
2,63210, Note_on_c, 0, 42, 0
2,63247, Note_on_c, 0, 63, 0
2,63482, Note_on_c, 0, 71, 75
2,63491, Note_on_c, 0, 59, 66
2,63560, Note_on_c, 0, 59, 0
2,63593, Note_on_c, 0, 71, 0
2,63834, Note_on_c, 0, 69, 79
2,63840, Note_on_c, 0, 64, 68
2,63913, Note_on_c, 0, 47, 0
2,64196, Note_on_c, 0, 49, 57
2,64254, Note_on_c, 0, 69, 0
2,64324, Note_on_c, 0, 49, 0
2,64352, Note_on_c, 0, 68, 67
2,64465, Note_on_c, 0, 68, 0
2,64540, Note_on_c, 0, 66, 65
2,64549, Note_on_c, 0, 45, 53
2,64669, Note_on_c, 0, 45, 0
2,64897, Note_on_c, 0, 61, 80
2,64982, Note_on_c, 0, 61, 0
2,65263, Note_on_c, 0, 59, 71
2,65271, Note_on_c, 0, 63, 67
2,65315, Note_on_c, 0, 64, 0
2,65641, Note_on_c, 0, 62, 59
2,65694, Note_on_c, 0, 63, 0
2,65696, Note_on_c, 0, 59, 0
2,65798, Note_on_c, 0, 57, 60
2,65874, Note_on_c, 0, 57, 0
2,65994, Note_on_c, 0, 64, 58
2,65999, Note_on_c, 0, 56, 56
2,66011, Note_on_c, 0, 62, 0
2,66144, Note_on_c, 0, 56, 0
2,66363, Note_on_c, 0, 61, 51
2,66377, Note_on_c, 0, 52, 48
2,66488, Note_on_c, 0, 64, 0
2,66523, Note_on_c, 0, 61, 0
2,66528, Note_on_c, 0, 59, 52
2,66565, Note_on_c, 0, 52, 0
2,66736, Note_on_c, 0, 57, 48
2,66740, Note_on_c, 0, 61, 54
2,66812, Note_on_c, 0, 66, 0
2,66853, Note_on_c, 0, 59, 0
2,67097, Note_on_c, 0, 69, 56
2,67120, Note_on_c, 0, 66, 61
2,67152, Note_on_c, 0, 61, 0
2,67207, Note_on_c, 0, 69, 0
2,67494, Note_on_c, 0, 71, 61
2,67510, Note_on_c, 0, 62, 45
2,67572, Note_on_c, 0, 66, 0
2,67866, Note_on_c, 0, 59, 50
2,67882, Note_on_c, 0, 62, 0
2,68210, Note_on_c, 0, 64, 61
2,68216, Note_on_c, 0, 56, 54
2,68286, Note_on_c, 0, 57, 0
2,68295, Note_on_c, 0, 59, 0
2,68523, Note_on_c, 0, 71, 0
2,68564, Note_on_c, 0, 52, 64
2,68565, Note_on_c, 0, 68, 72
2,68614, Note_on_c, 0, 56, 0
2,68666, Note_on_c, 0, 52, 0
2,68720, Note_on_c, 0, 68, 0
2,68947, Note_on_c, 0, 73, 77
2,68949, Note_on_c, 0, 57, 67
2,69022, Note_on_c, 0, 64, 0
2,69323, Note_on_c, 0, 61, 66
2,69666, Note_on_c, 0, 66, 70
2,69693, Note_on_c, 0, 61, 0
2,69801, Note_on_c, 0, 73, 0
2,70007, Note_on_c, 0, 54, 74
2,70010, Note_on_c, 0, 69, 78
2,70048, Note_on_c, 0, 57, 0
2,70127, Note_on_c, 0, 54, 0
2,70139, Note_on_c, 0, 69, 0
2,70384, Note_on_c, 0, 59, 73
2,70384, Note_on_c, 0, 74, 80
2,70427, Note_on_c, 0, 66, 0
2,70748, Note_on_c, 0, 69, 77
2,70850, Note_on_c, 0, 69, 0
2,71121, Note_on_c, 0, 68, 86
2,71197, Note_on_c, 0, 59, 0
2,71470, Note_on_c, 0, 56, 65
2,71570, Note_on_c, 0, 68, 0
2,71573, Note_on_c, 0, 56, 0
2,71632, Note_on_c, 0, 66, 73
2,71806, Note_on_c, 0, 66, 0
2,71842, Note_on_c, 0, 64, 71
2,71845, Note_on_c, 0, 61, 67
2,71998, Note_on_c, 0, 74, 0
2,72024, Note_on_c, 0, 64, 0
2,72189, Note_on_c, 0, 74, 76
2,72197, Note_on_c, 0, 71, 72
2,72299, Note_on_c, 0, 71, 0
2,72368, Note_on_c, 0, 74, 0
2,72576, Note_on_c, 0, 73, 77
2,72582, Note_on_c, 0, 69, 75
2,72899, Note_on_c, 0, 69, 0
2,72935, Note_on_c, 0, 73, 0
2,72937, Note_on_c, 0, 68, 72
2,73086, Note_on_c, 0, 68, 0
2,73089, Note_on_c, 0, 71, 68
2,73224, Note_on_c, 0, 71, 0
2,73289, Note_on_c, 0, 69, 76
2,73291, Note_on_c, 0, 66, 70
2,73563, Note_on_c, 0, 69, 0
2,73620, Note_on_c, 0, 64, 75
2,73686, Note_on_c, 0, 66, 0
2,73705, Note_on_c, 0, 64, 0
2,73938, Note_on_c, 0, 61, 0
2,73987, Note_on_c, 0, 62, 69
2,73988, Note_on_c, 0, 78, 82
2,73995, Note_on_c, 0, 69, 71
2,74000, Note_on_c, 0, 59, 63
2,74230, Note_on_c, 0, 59, 0
2,74337, Note_on_c, 0, 61, 67
2,74378, Note_on_c, 0, 62, 0
2,74495, Note_on_c, 0, 57, 61
2,74536, Note_on_c, 0, 61, 0
2,74710, Note_on_c, 0, 69, 0
2,74713, Note_on_c, 0, 59, 66
2,74719, Note_on_c, 0, 57, 0
2,74721, Note_on_c, 0, 56, 70
2,74793, Note_on_c, 0, 78, 0
2,75043, Note_on_c, 0, 76, 79
2,75065, Note_on_c, 0, 59, 0
2,75217, Note_on_c, 0, 76, 0
2,75428, Note_on_c, 0, 58, 69
2,75428, Note_on_c, 0, 66, 70
2,75429, Note_on_c, 0, 74, 76
2,75474, Note_on_c, 0, 56, 0
2,75853, Note_on_c, 0, 74, 0
2,75876, Note_on_c, 0, 66, 0
2,75947, Note_on_c, 0, 73, 79
2,76073, Note_on_c, 0, 73, 0
2,76131, Note_on_c, 0, 59, 75
2,76134, Note_on_c, 0, 74, 76
2,76300, Note_on_c, 0, 58, 0
2,76379, Note_on_c, 0, 74, 0
2,76477, Note_on_c, 0, 62, 80
2,76478, Note_on_c, 0, 71, 72
2,76593, Note_on_c, 0, 71, 0
2,76606, Note_on_c, 0, 62, 0
2,76860, Note_on_c, 0, 76, 76
2,76864, Note_on_c, 0, 61, 78
2,76869, Note_on_c, 0, 55, 72
2,76914, Note_on_c, 0, 59, 0
2,77290, Note_on_c, 0, 61, 0
2,77383, Note_on_c, 0, 59, 67
2,77573, Note_on_c, 0, 59, 0
2,77576, Note_on_c, 0, 58, 68
2,77584, Note_on_c, 0, 54, 62
2,77700, Note_on_c, 0, 55, 0
2,77747, Note_on_c, 0, 54, 0
2,77938, Note_on_c, 0, 78, 78
2,77943, Note_on_c, 0, 54, 62
2,77978, Note_on_c, 0, 76, 0
2,78086, Note_on_c, 0, 58, 0
2,78291, Note_on_c, 0, 74, 73
2,78306, Note_on_c, 0, 59, 58
2,78437, Note_on_c, 0, 54, 0
2,78471, Note_on_c, 0, 78, 0
2,78659, Note_on_c, 0, 71, 75
2,78670, Note_on_c, 0, 55, 61
2,78756, Note_on_c, 0, 74, 0
2,79022, Note_on_c, 0, 73, 78
2,79032, Note_on_c, 0, 52, 69
2,79121, Note_on_c, 0, 55, 0
2,79149, Note_on_c, 0, 71, 0
2,79375, Note_on_c, 0, 49, 72
2,79430, Note_on_c, 0, 52, 0
2,79767, Note_on_c, 0, 58, 71
2,79773, Note_on_c, 0, 54, 62
2,79786, Note_on_c, 0, 73, 0
2,79869, Note_on_c, 0, 49, 0
2,79896, Note_on_c, 0, 59, 0
2,80152, Note_on_c, 0, 70, 78
2,80153, Note_on_c, 0, 66, 75
2,80422, Note_on_c, 0, 58, 0
2,80530, Note_on_c, 0, 71, 77
2,80540, Note_on_c, 0, 62, 75
2,80549, Note_on_c, 0, 70, 0
2,80608, Note_on_c, 0, 66, 0
2,80900, Note_on_c, 0, 74, 75
2,80903, Note_on_c, 0, 59, 79
2,80922, Note_on_c, 0, 54, 0
2,80950, Note_on_c, 0, 71, 0
2,81035, Note_on_c, 0, 62, 0
2,81275, Note_on_c, 0, 67, 78
2,81279, Note_on_c, 0, 73, 76
2,81282, Note_on_c, 0, 52, 69
2,81412, Note_on_c, 0, 74, 0
2,81447, Note_on_c, 0, 59, 0
2,81668, Note_on_c, 0, 50, 67
2,81675, Note_on_c, 0, 73, 0
2,81719, Note_on_c, 0, 52, 0
2,81808, Note_on_c, 0, 71, 73
2,81927, Note_on_c, 0, 71, 0
2,82001, Note_on_c, 0, 49, 67
2,82006, Note_on_c, 0, 69, 75
2,82024, Note_on_c, 0, 50, 0
2,82350, Note_on_c, 0, 66, 78
2,82365, Note_on_c, 0, 45, 61
2,82367, Note_on_c, 0, 67, 0
2,82488, Note_on_c, 0, 49, 0
2,82513, Note_on_c, 0, 64, 83
2,82554, Note_on_c, 0, 66, 0
2,82751, Note_on_c, 0, 50, 64
2,82751, Note_on_c, 0, 66, 86
2,82825, Note_on_c, 0, 64, 0
2,82826, Note_on_c, 0, 69, 0
2,82832, Note_on_c, 0, 45, 0
2,83113, Note_on_c, 0, 74, 70
2,83115, Note_on_c, 0, 49, 66
2,83172, Note_on_c, 0, 50, 0
2,83233, Note_on_c, 0, 74, 0
2,83481, Note_on_c, 0, 67, 69
2,83484, Note_on_c, 0, 47, 67
2,83526, Note_on_c, 0, 49, 0
2,83624, Note_on_c, 0, 47, 0
2,83845, Note_on_c, 0, 71, 79
2,83849, Note_on_c, 0, 50, 69
2,83880, Note_on_c, 0, 67, 0
2,84014, Note_on_c, 0, 50, 0
2,84255, Note_on_c, 0, 64, 80
2,84260, Note_on_c, 0, 49, 70
2,84276, Note_on_c, 0, 71, 0
2,84325, Note_on_c, 0, 66, 0
2,84631, Note_on_c, 0, 73, 66
2,84694, Note_on_c, 0, 49, 0
2,84783, Note_on_c, 0, 47, 62
2,84875, Note_on_c, 0, 47, 0
2,84952, Note_on_c, 0, 66, 65
2,84953, Note_on_c, 0, 46, 61
2,84986, Note_on_c, 0, 73, 0
2,85299, Note_on_c, 0, 42, 55
2,85304, Note_on_c, 0, 64, 0
2,85310, Note_on_c, 0, 62, 70
2,85343, Note_on_c, 0, 46, 0
2,85472, Note_on_c, 0, 61, 67
2,85510, Note_on_c, 0, 62, 0
2,85594, Note_on_c, 0, 61, 0
2,85673, Note_on_c, 0, 62, 62
2,85674, Note_on_c, 0, 47, 55
2,85720, Note_on_c, 0, 42, 0
2,86039, Note_on_c, 0, 59, 61
2,86044, Note_on_c, 0, 62, 0
2,86417, Note_on_c, 0, 61, 56
2,86532, Note_on_c, 0, 59, 0
2,86754, Note_on_c, 0, 65, 53
2,86763, Note_on_c, 0, 45, 43
2,86801, Note_on_c, 0, 66, 0
2,86831, Note_on_c, 0, 47, 0
2,86916, Note_on_c, 0, 44, 46
2,86951, Note_on_c, 0, 45, 0
2,87121, Note_on_c, 0, 66, 62
2,87123, Note_on_c, 0, 45, 43
2,87169, Note_on_c, 0, 65, 0
2,87174, Note_on_c, 0, 44, 0
2,87388, Note_on_c, 0, 61, 0
2,87481, Note_on_c, 0, 69, 59
2,87548, Note_on_c, 0, 66, 0
2,87851, Note_on_c, 0, 63, 54
2,87861, Note_on_c, 0, 59, 41
2,87922, Note_on_c, 0, 69, 0
2,88177, Note_on_c, 0, 66, 59
2,88184, Note_on_c, 0, 44, 43
2,88268, Note_on_c, 0, 45, 0
2,88336, Note_on_c, 0, 42, 50
2,88359, Note_on_c, 0, 44, 0
2,88369, Note_on_c, 0, 63, 0
2,88539, Note_on_c, 0, 59, 0
2,88548, Note_on_c, 0, 44, 46
2,88548, Note_on_c, 0, 71, 58
2,88586, Note_on_c, 0, 42, 0
2,88622, Note_on_c, 0, 66, 0
2,88902, Note_on_c, 0, 68, 58
2,88903, Note_on_c, 0, 40, 49
2,88964, Note_on_c, 0, 44, 0
2,89283, Note_on_c, 0, 64, 49
2,89291, Note_on_c, 0, 49, 48
2,89299, Note_on_c, 0, 40, 0
2,89368, Note_on_c, 0, 68, 0
2,89612, Note_on_c, 0, 69, 54
2,89628, Note_on_c, 0, 37, 43
2,89700, Note_on_c, 0, 49, 0
2,89767, Note_on_c, 0, 71, 0
2,89771, Note_on_c, 0, 68, 62
2,89792, Note_on_c, 0, 69, 0
2,89991, Note_on_c, 0, 49, 51
2,89992, Note_on_c, 0, 69, 65
2,90025, Note_on_c, 0, 68, 0
2,90064, Note_on_c, 0, 37, 0
2,90322, Note_on_c, 0, 73, 63
2,90345, Note_on_c, 0, 64, 0
2,90376, Note_on_c, 0, 69, 0
2,90671, Note_on_c, 0, 66, 55
2,90685, Note_on_c, 0, 62, 47
2,90755, Note_on_c, 0, 73, 0
2,91018, Note_on_c, 0, 47, 49
2,91018, Note_on_c, 0, 69, 58
2,91151, Note_on_c, 0, 66, 0
2,91176, Note_on_c, 0, 45, 47
2,91193, Note_on_c, 0, 47, 0
2,91207, Note_on_c, 0, 49, 0
2,91257, Note_on_c, 0, 62, 0
2,91386, Note_on_c, 0, 74, 59
2,91399, Note_on_c, 0, 47, 47
2,91455, Note_on_c, 0, 45, 0
2,91461, Note_on_c, 0, 69, 0
2,91737, Note_on_c, 0, 44, 45
2,91743, Note_on_c, 0, 71, 45
2,91860, Note_on_c, 0, 47, 0
2,92088, Note_on_c, 0, 68, 46
2,92091, Note_on_c, 0, 41, 43
2,92151, Note_on_c, 0, 44, 0
2,92220, Note_on_c, 0, 74, 0
2,92233, Note_on_c, 0, 41, 0
2,92328, Note_on_c, 0, 71, 0
2,92452, Note_on_c, 0, 74, 53
2,92461, Note_on_c, 0, 56, 38
2,92464, Note_on_c, 0, 65, 41
2,92504, Note_on_c, 0, 68, 0
2,92802, Note_on_c, 0, 73, 60
2,92808, Note_on_c, 0, 53, 42
2,92868, Note_on_c, 0, 74, 0
2,92920, Note_on_c, 0, 56, 0
2,92942, Note_on_c, 0, 65, 0
2,93171, Note_on_c, 0, 49, 44
2,93171, Note_on_c, 0, 68, 50
2,93212, Note_on_c, 0, 53, 0
2,93217, Note_on_c, 0, 73, 0
2,93320, Note_on_c, 0, 71, 52
2,93559, Note_on_c, 0, 69, 48
2,93561, Note_on_c, 0, 71, 0
2,93568, Note_on_c, 0, 54, 42
2,93646, Note_on_c, 0, 49, 0
2,93908, Note_on_c, 0, 66, 41
2,93917, Note_on_c, 0, 56, 36
2,93966, Note_on_c, 0, 68, 0
2,94014, Note_on_c, 0, 54, 0
2,94076, Note_on_c, 0, 66, 0
2,94078, Note_on_c, 0, 65, 46
2,94257, Note_on_c, 0, 57, 40
2,94265, Note_on_c, 0, 66, 45
2,94297, Note_on_c, 0, 56, 0
2,94299, Note_on_c, 0, 65, 0
2,94611, Note_on_c, 0, 63, 45
2,94619, Note_on_c, 0, 54, 36
2,94628, Note_on_c, 0, 57, 0
2,94742, Note_on_c, 0, 66, 0
2,94978, Note_on_c, 0, 60, 43
2,94980, Note_on_c, 0, 56, 38
2,95010, Note_on_c, 0, 54, 0
2,95017, Note_on_c, 0, 63, 0
2,95317, Note_on_c, 0, 44, 42
2,95317, Note_on_c, 0, 68, 49
2,95484, Note_on_c, 0, 66, 61
2,95506, Note_on_c, 0, 69, 0
2,95513, Note_on_c, 0, 56, 0
2,95528, Note_on_c, 0, 68, 0
2,95687, Note_on_c, 0, 68, 62
2,95696, Note_on_c, 0, 60, 0
2,95703, Note_on_c, 0, 44, 0
2,95752, Note_on_c, 0, 66, 0
2,96049, Note_on_c, 0, 63, 51
2,96052, Note_on_c, 0, 56, 66
2,96170, Note_on_c, 0, 68, 0
2,96402, Note_on_c, 0, 64, 51
2,96414, Note_on_c, 0, 52, 73
2,96417, Note_on_c, 0, 61, 47
2,96439, Note_on_c, 0, 63, 0
2,96510, Note_on_c, 0, 64, 0
2,96551, Note_on_c, 0, 56, 0
2,96573, Note_on_c, 0, 61, 0
2,96753, Note_on_c, 0, 76, 59
2,96759, Note_on_c, 0, 49, 72
2,96795, Note_on_c, 0, 52, 0
2,96907, Note_on_c, 0, 76, 0
2,97147, Note_on_c, 0, 57, 66
2,97154, Note_on_c, 0, 75, 71
2,97172, Note_on_c, 0, 49, 0
2,97576, Note_on_c, 0, 75, 0
2,97673, Note_on_c, 0, 73, 62
2,97795, Note_on_c, 0, 73, 0
2,97857, Note_on_c, 0, 72, 67
2,98171, Note_on_c, 0, 72, 0
2,98187, Note_on_c, 0, 56, 61
2,98187, Note_on_c, 0, 78, 57
2,98198, Note_on_c, 0, 75, 47
2,98279, Note_on_c, 0, 57, 0
2,98343, Note_on_c, 0, 54, 64
2,98384, Note_on_c, 0, 78, 0
2,98401, Note_on_c, 0, 56, 0
2,98547, Note_on_c, 0, 56, 70
2,98557, Note_on_c, 0, 76, 55
2,98561, Note_on_c, 0, 73, 54
2,98590, Note_on_c, 0, 75, 0
2,98666, Note_on_c, 0, 54, 0
2,98894, Note_on_c, 0, 75, 50
2,98935, Note_on_c, 0, 73, 0
2,99004, Note_on_c, 0, 76, 0
2,99042, Note_on_c, 0, 72, 55
2,99060, Note_on_c, 0, 75, 0
2,99247, Note_on_c, 0, 76, 56
2,99248, Note_on_c, 0, 72, 0
2,99262, Note_on_c, 0, 73, 50
2,99574, Note_on_c, 0, 71, 49
2,99577, Note_on_c, 0, 61, 58
2,99601, Note_on_c, 0, 56, 0
2,99671, Note_on_c, 0, 73, 0
2,99943, Note_on_c, 0, 54, 62
2,99946, Note_on_c, 0, 69, 61
2,99971, Note_on_c, 0, 71, 0
2,100071, Note_on_c, 0, 76, 0
2,100141, Note_on_c, 0, 61, 0
2,100322, Note_on_c, 0, 75, 44
2,100417, Note_on_c, 0, 73, 60
2,100430, Note_on_c, 0, 75, 0
2,100666, Note_on_c, 0, 60, 51
2,100666, Note_on_c, 0, 80, 69
2,100707, Note_on_c, 0, 73, 0
2,100726, Note_on_c, 0, 54, 0
2,100982, Note_on_c, 0, 80, 0
2,101013, Note_on_c, 0, 52, 53
2,101015, Note_on_c, 0, 72, 58
2,101105, Note_on_c, 0, 60, 0
2,101145, Note_on_c, 0, 51, 59
2,101176, Note_on_c, 0, 69, 0
2,101184, Note_on_c, 0, 52, 0
2,101285, Note_on_c, 0, 72, 0
2,101351, Note_on_c, 0, 73, 66
2,101356, Note_on_c, 0, 51, 0
2,101359, Note_on_c, 0, 52, 46
2,101368, Note_on_c, 0, 56, 42
2,101710, Note_on_c, 0, 68, 54
2,101717, Note_on_c, 0, 49, 43
2,101781, Note_on_c, 0, 52, 0
2,101803, Note_on_c, 0, 56, 0
2,101842, Note_on_c, 0, 68, 0
2,102084, Note_on_c, 0, 66, 51
2,102089, Note_on_c, 0, 51, 40
2,102234, Note_on_c, 0, 49, 0
2,102257, Note_on_c, 0, 68, 56
2,102266, Note_on_c, 0, 66, 0
2,102437, Note_on_c, 0, 66, 45
2,102478, Note_on_c, 0, 73, 0
2,102584, Note_on_c, 0, 66, 0
2,102603, Note_on_c, 0, 64, 45
2,102750, Note_on_c, 0, 64, 0
2,102779, Note_on_c, 0, 66, 51
2,102786, Note_on_c, 0, 72, 51
2,102791, Note_on_c, 0, 56, 47
2,102866, Note_on_c, 0, 68, 0
2,102945, Note_on_c, 0, 66, 0
2,102951, Note_on_c, 0, 64, 53
2,102971, Note_on_c, 0, 51, 0
2,103123, Note_on_c, 0, 63, 54
2,103215, Note_on_c, 0, 64, 0
2,103236, Note_on_c, 0, 72, 0
2,103280, Note_on_c, 0, 66, 55
2,103333, Note_on_c, 0, 63, 0
2,103456, Note_on_c, 0, 66, 0
2,103466, Note_on_c, 0, 73, 58
2,103473, Note_on_c, 0, 64, 46
2,103474, Note_on_c, 0, 49, 42
2,103535, Note_on_c, 0, 56, 0
2,103623, Note_on_c, 0, 64, 0
2,103623, Note_on_c, 0, 66, 52
2,103694, Note_on_c, 0, 49, 0
2,103795, Note_on_c, 0, 64, 50
2,103844, Note_on_c, 0, 66, 0
2,103941, Note_on_c, 0, 64, 0
2,103966, Note_on_c, 0, 63, 47
2,104160, Note_on_c, 0, 64, 50
2,104177, Note_on_c, 0, 63, 0
2,104260, Note_on_c, 0, 73, 0
2,104308, Note_on_c, 0, 64, 0
2,104317, Note_on_c, 0, 63, 54
2,104489, Note_on_c, 0, 73, 60
2,104492, Note_on_c, 0, 61, 49
2,104492, Note_on_c, 0, 63, 0
2,104619, Note_on_c, 0, 61, 0
2,104657, Note_on_c, 0, 64, 42
2,104679, Note_on_c, 0, 73, 0
2,104847, Note_on_c, 0, 71, 53
2,104850, Note_on_c, 0, 64, 0
2,104859, Note_on_c, 0, 63, 39
2,105024, Note_on_c, 0, 71, 0
2,105024, Note_on_c, 0, 73, 52
2,105052, Note_on_c, 0, 63, 0
2,105190, Note_on_c, 0, 68, 44
2,105190, Note_on_c, 0, 71, 49
2,105300, Note_on_c, 0, 73, 0
2,105346, Note_on_c, 0, 69, 53
2,105352, Note_on_c, 0, 71, 0
2,105386, Note_on_c, 0, 68, 0
2,105537, Note_on_c, 0, 69, 0
2,105538, Note_on_c, 0, 71, 48
2,105540, Note_on_c, 0, 61, 45
2,105691, Note_on_c, 0, 69, 57
2,105723, Note_on_c, 0, 71, 0
2,105745, Note_on_c, 0, 61, 0
2,105867, Note_on_c, 0, 68, 59
2,105873, Note_on_c, 0, 69, 0
2,105885, Note_on_c, 0, 65, 42
2,106011, Note_on_c, 0, 65, 0
2,106038, Note_on_c, 0, 71, 56
2,106101, Note_on_c, 0, 68, 0
2,106213, Note_on_c, 0, 66, 45
2,106216, Note_on_c, 0, 69, 54
2,106247, Note_on_c, 0, 71, 0
2,106373, Note_on_c, 0, 62, 45
2,106376, Note_on_c, 0, 71, 58
2,106421, Note_on_c, 0, 69, 0
2,106425, Note_on_c, 0, 66, 0
2,106540, Note_on_c, 0, 61, 52
2,106540, Note_on_c, 0, 69, 61
2,106548, Note_on_c, 0, 71, 0
2,106628, Note_on_c, 0, 62, 0
2,106702, Note_on_c, 0, 59, 47
2,106708, Note_on_c, 0, 61, 0
2,106708, Note_on_c, 0, 68, 61
2,106737, Note_on_c, 0, 69, 0
2,106837, Note_on_c, 0, 59, 0
2,106867, Note_on_c, 0, 61, 49
2,106871, Note_on_c, 0, 69, 60
2,106901, Note_on_c, 0, 68, 0
2,107029, Note_on_c, 0, 57, 50
2,107034, Note_on_c, 0, 68, 64
2,107088, Note_on_c, 0, 69, 0
2,107168, Note_on_c, 0, 61, 0
2,107210, Note_on_c, 0, 66, 53
2,107213, Note_on_c, 0, 54, 41
2,107214, Note_on_c, 0, 62, 46
2,107244, Note_on_c, 0, 68, 0
2,107279, Note_on_c, 0, 57, 0
2,107347, Note_on_c, 0, 62, 0
2,107359, Note_on_c, 0, 54, 0
2,107360, Note_on_c, 0, 69, 56
2,107366, Note_on_c, 0, 66, 0
2,107551, Note_on_c, 0, 68, 56
2,107552, Note_on_c, 0, 52, 44
2,107598, Note_on_c, 0, 69, 0
2,107712, Note_on_c, 0, 54, 51
2,107742, Note_on_c, 0, 52, 0
2,107809, Note_on_c, 0, 68, 0
2,107883, Note_on_c, 0, 73, 54
2,107886, Note_on_c, 0, 54, 0
2,107889, Note_on_c, 0, 56, 43
2,107893, Note_on_c, 0, 52, 46
2,108036, Note_on_c, 0, 52, 0
2,108051, Note_on_c, 0, 50, 47
2,108092, Note_on_c, 0, 73, 0
2,108191, Note_on_c, 0, 56, 0
2,108212, Note_on_c, 0, 50, 0
2,108223, Note_on_c, 0, 66, 55
2,108238, Note_on_c, 0, 52, 48
2,108400, Note_on_c, 0, 50, 45
2,108427, Note_on_c, 0, 66, 0
2,108436, Note_on_c, 0, 52, 0
2,108559, Note_on_c, 0, 70, 58
2,108567, Note_on_c, 0, 49, 53
2,108572, Note_on_c, 0, 61, 45
2,108603, Note_on_c, 0, 50, 0
2,108720, Note_on_c, 0, 52, 52
2,108736, Note_on_c, 0, 49, 0
2,108757, Note_on_c, 0, 61, 0
2,108805, Note_on_c, 0, 70, 0
2,108885, Note_on_c, 0, 52, 0
2,108896, Note_on_c, 0, 71, 55
2,108902, Note_on_c, 0, 50, 50
2,108923, Note_on_c, 0, 62, 46
2,109033, Note_on_c, 0, 50, 0
2,109054, Note_on_c, 0, 52, 56
2,109061, Note_on_c, 0, 62, 0
2,109093, Note_on_c, 0, 71, 0
2,109246, Note_on_c, 0, 66, 66
2,109247, Note_on_c, 0, 50, 55
2,109297, Note_on_c, 0, 52, 0
2,109389, Note_on_c, 0, 66, 0
2,109394, Note_on_c, 0, 49, 54
2,109406, Note_on_c, 0, 50, 0
2,109587, Note_on_c, 0, 50, 52
2,109588, Note_on_c, 0, 71, 75
2,109603, Note_on_c, 0, 49, 0
2,109737, Note_on_c, 0, 49, 53
2,109815, Note_on_c, 0, 50, 0
2,109919, Note_on_c, 0, 49, 0
2,109921, Note_on_c, 0, 66, 56
2,109934, Note_on_c, 0, 47, 46
2,110078, Note_on_c, 0, 66, 0
2,110080, Note_on_c, 0, 50, 49
2,110092, Note_on_c, 0, 47, 0
2,110263, Note_on_c, 0, 64, 49
2,110264, Note_on_c, 0, 49, 47
2,110374, Note_on_c, 0, 50, 0
2,110417, Note_on_c, 0, 64, 0
2,110427, Note_on_c, 0, 66, 52
2,110462, Note_on_c, 0, 49, 0
2,110595, Note_on_c, 0, 64, 45
2,110604, Note_on_c, 0, 71, 0
2,110606, Note_on_c, 0, 42, 45
2,110752, Note_on_c, 0, 42, 0
2,110753, Note_on_c, 0, 64, 0
2,110767, Note_on_c, 0, 63, 48
2,110942, Note_on_c, 0, 54, 48
2,110946, Note_on_c, 0, 69, 58
2,110958, Note_on_c, 0, 63, 0
2,110959, Note_on_c, 0, 64, 40
2,110971, Note_on_c, 0, 66, 0
2,111104, Note_on_c, 0, 63, 47
2,111107, Note_on_c, 0, 64, 0
2,111133, Note_on_c, 0, 54, 0
2,111271, Note_on_c, 0, 61, 54
2,111280, Note_on_c, 0, 57, 41
2,111285, Note_on_c, 0, 63, 0
2,111441, Note_on_c, 0, 57, 0
2,111446, Note_on_c, 0, 64, 41
2,111454, Note_on_c, 0, 61, 0
2,111619, Note_on_c, 0, 64, 0
2,111627, Note_on_c, 0, 63, 51
2,111637, Note_on_c, 0, 47, 52
2,111774, Note_on_c, 0, 63, 0
2,111788, Note_on_c, 0, 64, 52
2,111853, Note_on_c, 0, 47, 0
2,111970, Note_on_c, 0, 63, 57
2,111979, Note_on_c, 0, 59, 39
2,112010, Note_on_c, 0, 69, 0
2,112117, Note_on_c, 0, 61, 57
2,112123, Note_on_c, 0, 63, 0
2,112151, Note_on_c, 0, 59, 0
2,112291, Note_on_c, 0, 68, 61
2,112301, Note_on_c, 0, 61, 0
2,112301, Note_on_c, 0, 64, 0
2,112302, Note_on_c, 0, 52, 50
2,112322, Note_on_c, 0, 63, 47
2,112474, Note_on_c, 0, 61, 43
2,112498, Note_on_c, 0, 52, 0
2,112509, Note_on_c, 0, 63, 0
2,112631, Note_on_c, 0, 61, 0
2,112648, Note_on_c, 0, 56, 47
2,112651, Note_on_c, 0, 60, 50
2,112756, Note_on_c, 0, 56, 0
2,112788, Note_on_c, 0, 60, 0
2,112807, Note_on_c, 0, 63, 48
2,112979, Note_on_c, 0, 63, 0
2,112980, Note_on_c, 0, 45, 49
2,112981, Note_on_c, 0, 61, 51
2,113144, Note_on_c, 0, 61, 0
2,113145, Note_on_c, 0, 63, 47
2,113167, Note_on_c, 0, 45, 0
2,113322, Note_on_c, 0, 61, 47
2,113328, Note_on_c, 0, 44, 50
2,113420, Note_on_c, 0, 68, 0
2,113481, Note_on_c, 0, 61, 0
2,113488, Note_on_c, 0, 60, 47
2,113499, Note_on_c, 0, 44, 0
2,113663, Note_on_c, 0, 60, 0
2,113663, Note_on_c, 0, 66, 57
2,113683, Note_on_c, 0, 45, 44
2,113687, Note_on_c, 0, 61, 42
2,113727, Note_on_c, 0, 63, 0
2,113826, Note_on_c, 0, 61, 0
2,113859, Note_on_c, 0, 64, 42
2,113872, Note_on_c, 0, 45, 0
2,114014, Note_on_c, 0, 63, 54
2,114018, Note_on_c, 0, 57, 42
2,114018, Note_on_c, 0, 66, 0
2,114103, Note_on_c, 0, 64, 0
2,114121, Note_on_c, 0, 57, 0
2,114168, Note_on_c, 0, 61, 54
2,114341, Note_on_c, 0, 68, 53
2,114343, Note_on_c, 0, 61, 0
2,114359, Note_on_c, 0, 56, 39
2,114365, Note_on_c, 0, 60, 43
2,114369, Note_on_c, 0, 63, 0
2,114469, Note_on_c, 0, 60, 0
2,114489, Note_on_c, 0, 68, 0
2,114508, Note_on_c, 0, 56, 0
2,114519, Note_on_c, 0, 57, 45
2,114699, Note_on_c, 0, 72, 62
2,114713, Note_on_c, 0, 56, 42
2,114721, Note_on_c, 0, 63, 47
2,114826, Note_on_c, 0, 57, 0
2,114866, Note_on_c, 0, 54, 49
2,114872, Note_on_c, 0, 63, 0
2,114908, Note_on_c, 0, 56, 0
2,115049, Note_on_c, 0, 73, 66
2,115055, Note_on_c, 0, 54, 0
2,115061, Note_on_c, 0, 56, 41
2,115071, Note_on_c, 0, 64, 54
2,115117, Note_on_c, 0, 72, 0
2,115209, Note_on_c, 0, 54, 54
2,115253, Note_on_c, 0, 56, 0
2,115327, Note_on_c, 0, 64, 0
2,115376, Note_on_c, 0, 54, 0
2,115376, Note_on_c, 0, 68, 49
2,115393, Note_on_c, 0, 52, 52
2,115401, Note_on_c, 0, 76, 52
2,115459, Note_on_c, 0, 73, 0
2,115552, Note_on_c, 0, 52, 0
2,115558, Note_on_c, 0, 56, 47
2,115697, Note_on_c, 0, 76, 0
2,115723, Note_on_c, 0, 54, 54
2,115734, Note_on_c, 0, 56, 0
2,115753, Note_on_c, 0, 68, 0
2,115869, Note_on_c, 0, 54, 0
2,115875, Note_on_c, 0, 56, 55
2,116057, Note_on_c, 0, 68, 58
2,116059, Note_on_c, 0, 76, 65
2,116064, Note_on_c, 0, 54, 54
2,116111, Note_on_c, 0, 56, 0
2,116219, Note_on_c, 0, 54, 0
2,116222, Note_on_c, 0, 52, 58
2,116267, Note_on_c, 0, 68, 0
2,116406, Note_on_c, 0, 75, 73
2,116407, Note_on_c, 0, 52, 0
2,116407, Note_on_c, 0, 66, 61
2,116409, Note_on_c, 0, 54, 50
2,116458, Note_on_c, 0, 76, 0
2,116578, Note_on_c, 0, 52, 44
2,116645, Note_on_c, 0, 54, 0
2,116741, Note_on_c, 0, 78, 65
2,116742, Note_on_c, 0, 69, 56
2,116746, Note_on_c, 0, 51, 50
2,116773, Note_on_c, 0, 52, 0
2,116809, Note_on_c, 0, 75, 0
2,116812, Note_on_c, 0, 66, 0
2,116920, Note_on_c, 0, 54, 53
2,116921, Note_on_c, 0, 51, 0
2,117089, Note_on_c, 0, 52, 54
2,117104, Note_on_c, 0, 54, 0
2,117115, Note_on_c, 0, 78, 0
2,117201, Note_on_c, 0, 69, 0
2,117241, Note_on_c, 0, 52, 0
2,117247, Note_on_c, 0, 54, 55
2,117424, Note_on_c, 0, 68, 57
2,117426, Note_on_c, 0, 52, 51
2,117427, Note_on_c, 0, 72, 59
2,117442, Note_on_c, 0, 54, 0
2,117497, Note_on_c, 0, 68, 0
2,117572, Note_on_c, 0, 52, 0
2,117577, Note_on_c, 0, 51, 55
2,117579, Note_on_c, 0, 66, 54
2,117732, Note_on_c, 0, 66, 0
2,117763, Note_on_c, 0, 51, 0
2,117773, Note_on_c, 0, 73, 68
2,117776, Note_on_c, 0, 52, 58
2,117785, Note_on_c, 0, 68, 59
2,117843, Note_on_c, 0, 72, 0
2,117929, Note_on_c, 0, 51, 57
2,117941, Note_on_c, 0, 52, 0
2,117952, Note_on_c, 0, 68, 0
2,118100, Note_on_c, 0, 49, 55
2,118108, Note_on_c, 0, 70, 62
2,118185, Note_on_c, 0, 51, 0
2,118240, Note_on_c, 0, 70, 0
2,118251, Note_on_c, 0, 52, 53
2,118258, Note_on_c, 0, 49, 0
2,118461, Note_on_c, 0, 43, 52
2,118469, Note_on_c, 0, 63, 43
2,118568, Note_on_c, 0, 52, 0
2,118622, Note_on_c, 0, 63, 0
2,118645, Note_on_c, 0, 64, 50
2,118672, Note_on_c, 0, 73, 0
2,118764, Note_on_c, 0, 64, 0
2,118817, Note_on_c, 0, 46, 54
2,118819, Note_on_c, 0, 63, 54
2,118819, Note_on_c, 0, 67, 59
2,118889, Note_on_c, 0, 43, 0
2,118911, Note_on_c, 0, 63, 0
2,118978, Note_on_c, 0, 61, 48
2,119142, Note_on_c, 0, 61, 0
2,119148, Note_on_c, 0, 47, 49
2,119154, Note_on_c, 0, 68, 63
2,119158, Note_on_c, 0, 63, 52
2,119195, Note_on_c, 0, 46, 0
2,119195, Note_on_c, 0, 67, 0
2,119320, Note_on_c, 0, 61, 53
2,119406, Note_on_c, 0, 61, 0
2,119491, Note_on_c, 0, 63, 0
2,119500, Note_on_c, 0, 52, 47
2,119512, Note_on_c, 0, 59, 54
2,119558, Note_on_c, 0, 47, 0
2,119657, Note_on_c, 0, 59, 0
2,119667, Note_on_c, 0, 63, 54
2,119831, Note_on_c, 0, 63, 0
2,119842, Note_on_c, 0, 46, 50
2,119844, Note_on_c, 0, 61, 53
2,119965, Note_on_c, 0, 52, 0
2,119982, Note_on_c, 0, 68, 0
2,119999, Note_on_c, 0, 61, 0
2,120021, Note_on_c, 0, 63, 49
2,120183, Note_on_c, 0, 63, 0
2,120189, Note_on_c, 0, 70, 62
2,120192, Note_on_c, 0, 49, 50
2,120206, Note_on_c, 0, 61, 44
2,120251, Note_on_c, 0, 46, 0
2,120353, Note_on_c, 0, 61, 0
2,120360, Note_on_c, 0, 59, 56
2,120418, Note_on_c, 0, 70, 0
2,120514, Note_on_c, 0, 59, 0
2,120540, Note_on_c, 0, 61, 51
2,120541, Note_on_c, 0, 51, 50
2,120548, Note_on_c, 0, 49, 0
2,120551, Note_on_c, 0, 63, 52
2,120639, Note_on_c, 0, 61, 0
2,120695, Note_on_c, 0, 59, 52
2,120803, Note_on_c, 0, 63, 0
2,120867, Note_on_c, 0, 58, 52
2,120873, Note_on_c, 0, 39, 46
2,120879, Note_on_c, 0, 67, 52
2,120891, Note_on_c, 0, 59, 0
2,120925, Note_on_c, 0, 51, 0
2,121021, Note_on_c, 0, 67, 0
2,121034, Note_on_c, 0, 61, 58
2,121044, Note_on_c, 0, 58, 0
2,121212, Note_on_c, 0, 61, 0
2,121222, Note_on_c, 0, 44, 45
2,121227, Note_on_c, 0, 68, 58
2,121238, Note_on_c, 0, 59, 42
2,121266, Note_on_c, 0, 39, 0
2,121370, Note_on_c, 0, 44, 0
2,121384, Note_on_c, 0, 59, 0
2,121391, Note_on_c, 0, 61, 54
2,121563, Note_on_c, 0, 56, 51
2,121569, Note_on_c, 0, 63, 55
2,121572, Note_on_c, 0, 61, 0
2,121697, Note_on_c, 0, 56, 0
2,121713, Note_on_c, 0, 54, 53
2,121722, Note_on_c, 0, 59, 54
2,121753, Note_on_c, 0, 63, 0
2,121767, Note_on_c, 0, 59, 0
2,121836, Note_on_c, 0, 68, 0
2,121913, Note_on_c, 0, 64, 66
2,121916, Note_on_c, 0, 56, 53
2,121957, Note_on_c, 0, 54, 0
2,122083, Note_on_c, 0, 69, 59
2,122116, Note_on_c, 0, 56, 0
2,122233, Note_on_c, 0, 69, 0
2,122241, Note_on_c, 0, 71, 58
2,122251, Note_on_c, 0, 49, 54
2,122361, Note_on_c, 0, 49, 0
2,122402, Note_on_c, 0, 68, 61
2,122457, Note_on_c, 0, 71, 0
2,122580, Note_on_c, 0, 69, 66
2,122594, Note_on_c, 0, 42, 54
2,122601, Note_on_c, 0, 68, 0
2,122756, Note_on_c, 0, 71, 65
2,122775, Note_on_c, 0, 42, 0
2,122777, Note_on_c, 0, 69, 0
2,122909, Note_on_c, 0, 54, 57
2,122918, Note_on_c, 0, 69, 68
2,122927, Note_on_c, 0, 71, 0
2,123007, Note_on_c, 0, 64, 0
2,123060, Note_on_c, 0, 52, 59
2,123078, Note_on_c, 0, 68, 72
2,123086, Note_on_c, 0, 69, 0
2,123148, Note_on_c, 0, 54, 0
2,123252, Note_on_c, 0, 69, 73
2,123254, Note_on_c, 0, 68, 0
2,123257, Note_on_c, 0, 54, 63
2,123264, Note_on_c, 0, 63, 56
2,123307, Note_on_c, 0, 52, 0
2,123410, Note_on_c, 0, 68, 70
2,123427, Note_on_c, 0, 69, 0
2,123429, Note_on_c, 0, 54, 0
2,123574, Note_on_c, 0, 66, 69
2,123592, Note_on_c, 0, 47, 58
2,123594, Note_on_c, 0, 68, 0
2,123669, Note_on_c, 0, 63, 0
2,123675, Note_on_c, 0, 47, 0
2,123727, Note_on_c, 0, 69, 68
2,123761, Note_on_c, 0, 66, 0
2,123914, Note_on_c, 0, 52, 50
2,123924, Note_on_c, 0, 68, 66
2,123929, Note_on_c, 0, 69, 0
2,123935, Note_on_c, 0, 64, 53
2,124082, Note_on_c, 0, 54, 58
2,124084, Note_on_c, 0, 69, 68
2,124088, Note_on_c, 0, 52, 0
2,124118, Note_on_c, 0, 68, 0
2,124230, Note_on_c, 0, 71, 67
2,124238, Note_on_c, 0, 69, 0
2,124240, Note_on_c, 0, 56, 52
2,124253, Note_on_c, 0, 54, 0
2,124385, Note_on_c, 0, 68, 73
2,124389, Note_on_c, 0, 71, 0
2,124396, Note_on_c, 0, 52, 55
2,124403, Note_on_c, 0, 56, 0
2,124469, Note_on_c, 0, 64, 0
2,124575, Note_on_c, 0, 73, 70
2,124588, Note_on_c, 0, 57, 54
2,124630, Note_on_c, 0, 52, 0
2,124631, Note_on_c, 0, 68, 0
2,124733, Note_on_c, 0, 57, 0
2,124759, Note_on_c, 0, 71, 60
2,124778, Note_on_c, 0, 59, 46
2,124922, Note_on_c, 0, 69, 55
2,124938, Note_on_c, 0, 61, 53
2,124951, Note_on_c, 0, 71, 0
2,124960, Note_on_c, 0, 59, 0
2,125040, Note_on_c, 0, 69, 0
2,125080, Note_on_c, 0, 68, 64
2,125093, Note_on_c, 0, 57, 52
2,125127, Note_on_c, 0, 61, 0
2,125246, Note_on_c, 0, 68, 0
2,125265, Note_on_c, 0, 66, 61
2,125273, Note_on_c, 0, 62, 55
2,125295, Note_on_c, 0, 57, 0
2,125420, Note_on_c, 0, 62, 0
2,125433, Note_on_c, 0, 73, 0
2,125449, Note_on_c, 0, 64, 52
2,125608, Note_on_c, 0, 73, 72
2,125615, Note_on_c, 0, 62, 52
2,125668, Note_on_c, 0, 64, 0
2,125747, Note_on_c, 0, 73, 0
2,125766, Note_on_c, 0, 61, 54
2,125796, Note_on_c, 0, 62, 0
2,125962, Note_on_c, 0, 71, 67
2,125963, Note_on_c, 0, 61, 0
2,125963, Note_on_c, 0, 62, 49
2,126096, Note_on_c, 0, 66, 0
2,126114, Note_on_c, 0, 61, 51
2,126173, Note_on_c, 0, 62, 0
2,126299, Note_on_c, 0, 59, 51
2,126302, Note_on_c, 0, 66, 57
2,126325, Note_on_c, 0, 61, 0
2,126452, Note_on_c, 0, 66, 0
2,126465, Note_on_c, 0, 62, 50
2,126466, Note_on_c, 0, 59, 0
2,126629, Note_on_c, 0, 62, 0
2,126645, Note_on_c, 0, 61, 47
2,126652, Note_on_c, 0, 64, 53
2,126681, Note_on_c, 0, 71, 0
2,126786, Note_on_c, 0, 61, 0
2,126802, Note_on_c, 0, 71, 57
2,126803, Note_on_c, 0, 62, 49
2,126965, Note_on_c, 0, 61, 48
2,126974, Note_on_c, 0, 69, 55
2,127050, Note_on_c, 0, 71, 0
2,127056, Note_on_c, 0, 62, 0
2,127130, Note_on_c, 0, 59, 53
2,127136, Note_on_c, 0, 68, 63
2,127137, Note_on_c, 0, 69, 0
2,127156, Note_on_c, 0, 61, 0
2,127309, Note_on_c, 0, 59, 0
2,127309, Note_on_c, 0, 69, 65
2,127316, Note_on_c, 0, 61, 56
2,127329, Note_on_c, 0, 64, 0
2,127459, Note_on_c, 0, 68, 0
2,127466, Note_on_c, 0, 71, 64
2,127471, Note_on_c, 0, 59, 54
2,127482, Note_on_c, 0, 69, 0
2,127542, Note_on_c, 0, 61, 0
2,127633, Note_on_c, 0, 73, 73
2,127640, Note_on_c, 0, 57, 54
2,127651, Note_on_c, 0, 71, 0
2,127655, Note_on_c, 0, 59, 0
2,127799, Note_on_c, 0, 73, 0
2,127808, Note_on_c, 0, 69, 63
2,127815, Note_on_c, 0, 61, 60
2,127854, Note_on_c, 0, 57, 0
2,128005, Note_on_c, 0, 74, 62
2,128010, Note_on_c, 0, 59, 56
2,128013, Note_on_c, 0, 69, 0
2,128096, Note_on_c, 0, 61, 0
2,128169, Note_on_c, 0, 74, 0
2,128179, Note_on_c, 0, 76, 55
2,128346, Note_on_c, 0, 76, 0
2,128348, Note_on_c, 0, 74, 57
2,128350, Note_on_c, 0, 69, 56
2,128509, Note_on_c, 0, 74, 0
2,128511, Note_on_c, 0, 73, 61
2,128681, Note_on_c, 0, 73, 0
2,128681, Note_on_c, 0, 74, 53
2,128683, Note_on_c, 0, 68, 63
2,128777, Note_on_c, 0, 69, 0
2,128820, Note_on_c, 0, 59, 0
2,128833, Note_on_c, 0, 73, 58
2,128880, Note_on_c, 0, 74, 0
2,129017, Note_on_c, 0, 71, 57
2,129022, Note_on_c, 0, 73, 0
2,129039, Note_on_c, 0, 64, 47
2,129132, Note_on_c, 0, 64, 0
2,129182, Note_on_c, 0, 74, 57
2,129199, Note_on_c, 0, 71, 0
2,129365, Note_on_c, 0, 73, 67
2,129365, Note_on_c, 0, 74, 0
2,129374, Note_on_c, 0, 57, 58
2,129502, Note_on_c, 0, 68, 0
2,129533, Note_on_c, 0, 74, 51
2,129556, Note_on_c, 0, 73, 0
2,129692, Note_on_c, 0, 73, 60
2,129712, Note_on_c, 0, 61, 57
2,129760, Note_on_c, 0, 74, 0
2,129863, Note_on_c, 0, 71, 58
2,129912, Note_on_c, 0, 73, 0
2,130056, Note_on_c, 0, 73, 69
2,130059, Note_on_c, 0, 66, 68
2,130066, Note_on_c, 0, 71, 0
2,130093, Note_on_c, 0, 61, 0
2,130162, Note_on_c, 0, 57, 0
2,130212, Note_on_c, 0, 71, 66
2,130288, Note_on_c, 0, 73, 0
2,130380, Note_on_c, 0, 69, 69
2,130383, Note_on_c, 0, 62, 56
2,130386, Note_on_c, 0, 71, 0
2,130474, Note_on_c, 0, 62, 0
2,130537, Note_on_c, 0, 73, 68
2,130551, Note_on_c, 0, 69, 0
2,130606, Note_on_c, 0, 73, 0
2,130716, Note_on_c, 0, 56, 58
2,130728, Note_on_c, 0, 71, 63
2,130755, Note_on_c, 0, 66, 0
2,130881, Note_on_c, 0, 56, 0
2,130883, Note_on_c, 0, 69, 59
2,131050, Note_on_c, 0, 69, 0
2,131052, Note_on_c, 0, 68, 57
2,131059, Note_on_c, 0, 59, 45
2,131214, Note_on_c, 0, 68, 0
2,131215, Note_on_c, 0, 66, 51
2,131388, Note_on_c, 0, 68, 52
2,131390, Note_on_c, 0, 53, 49
2,131405, Note_on_c, 0, 66, 0
2,131559, Note_on_c, 0, 66, 47
2,131594, Note_on_c, 0, 68, 0
2,131689, Note_on_c, 0, 59, 0
2,131713, Note_on_c, 0, 66, 0
2,131716, Note_on_c, 0, 49, 51
2,131727, Note_on_c, 0, 65, 47
2,131780, Note_on_c, 0, 53, 0
2,131848, Note_on_c, 0, 65, 0
2,131877, Note_on_c, 0, 68, 53
2,132077, Note_on_c, 0, 68, 0
2,132081, Note_on_c, 0, 66, 54
2,132089, Note_on_c, 0, 54, 42
2,132157, Note_on_c, 0, 49, 0
2,132250, Note_on_c, 0, 68, 53
2,132285, Note_on_c, 0, 71, 0
2,132339, Note_on_c, 0, 66, 0
2,132428, Note_on_c, 0, 70, 59
2,132434, Note_on_c, 0, 61, 48
2,132450, Note_on_c, 0, 68, 0
2,132589, Note_on_c, 0, 71, 59
2,132593, Note_on_c, 0, 70, 0
2,132751, Note_on_c, 0, 62, 53
2,132753, Note_on_c, 0, 70, 61
2,132767, Note_on_c, 0, 71, 0
2,132849, Note_on_c, 0, 61, 0
2,132863, Note_on_c, 0, 54, 0
2,132927, Note_on_c, 0, 71, 60
2,132947, Note_on_c, 0, 70, 0
2,133092, Note_on_c, 0, 54, 59
2,133095, Note_on_c, 0, 73, 67
2,133116, Note_on_c, 0, 71, 0
2,133180, Note_on_c, 0, 54, 0
2,133248, Note_on_c, 0, 70, 68
2,133303, Note_on_c, 0, 73, 0
2,133425, Note_on_c, 0, 55, 64
2,133428, Note_on_c, 0, 71, 68
2,133468, Note_on_c, 0, 70, 0
2,133566, Note_on_c, 0, 62, 0
2,133598, Note_on_c, 0, 70, 70
2,133610, Note_on_c, 0, 71, 0
2,133755, Note_on_c, 0, 63, 67
2,133757, Note_on_c, 0, 71, 70
2,133776, Note_on_c, 0, 70, 0
2,133921, Note_on_c, 0, 73, 71
2,133938, Note_on_c, 0, 71, 0
2,134092, Note_on_c, 0, 64, 62
2,134101, Note_on_c, 0, 71, 70
2,134105, Note_on_c, 0, 73, 0
2,134187, Note_on_c, 0, 63, 0
2,134219, Note_on_c, 0, 55, 0
2,134252, Note_on_c, 0, 73, 70
2,134333, Note_on_c, 0, 71, 0
2,134427, Note_on_c, 0, 74, 69
2,134428, Note_on_c, 0, 56, 66
2,134461, Note_on_c, 0, 73, 0
2,134542, Note_on_c, 0, 56, 0
2,134590, Note_on_c, 0, 71, 70
2,134633, Note_on_c, 0, 74, 0
2,134774, Note_on_c, 0, 73, 73
2,134775, Note_on_c, 0, 57, 71
2,134811, Note_on_c, 0, 71, 0
2,134862, Note_on_c, 0, 64, 0
2,134925, Note_on_c, 0, 71, 75
2,134971, Note_on_c, 0, 73, 0
2,135096, Note_on_c, 0, 65, 76
2,135097, Note_on_c, 0, 73, 74
2,135119, Note_on_c, 0, 71, 0
2,135251, Note_on_c, 0, 74, 73
2,135265, Note_on_c, 0, 73, 0
2,135442, Note_on_c, 0, 66, 72
2,135442, Note_on_c, 0, 73, 73
2,135475, Note_on_c, 0, 74, 0
2,135492, Note_on_c, 0, 65, 0
2,135585, Note_on_c, 0, 57, 0
2,135601, Note_on_c, 0, 74, 73
2,135643, Note_on_c, 0, 73, 0
2,135770, Note_on_c, 0, 58, 61
2,135774, Note_on_c, 0, 76, 73
2,135812, Note_on_c, 0, 74, 0
2,135900, Note_on_c, 0, 58, 0
2,135929, Note_on_c, 0, 73, 76
2,135994, Note_on_c, 0, 76, 0
2,136135, Note_on_c, 0, 74, 70
2,136137, Note_on_c, 0, 59, 58
2,136164, Note_on_c, 0, 73, 0
2,136296, Note_on_c, 0, 76, 67
2,136344, Note_on_c, 0, 74, 0
2,136425, Note_on_c, 0, 59, 0
2,136458, Note_on_c, 0, 54, 57
2,136461, Note_on_c, 0, 74, 74
2,136595, Note_on_c, 0, 76, 0
2,136603, Note_on_c, 0, 73, 71
2,136652, Note_on_c, 0, 74, 0
2,136696, Note_on_c, 0, 54, 0
2,136777, Note_on_c, 0, 74, 69
2,136788, Note_on_c, 0, 47, 62
2,136816, Note_on_c, 0, 73, 0
2,136944, Note_on_c, 0, 73, 81
2,136997, Note_on_c, 0, 74, 0
2,137004, Note_on_c, 0, 47, 0
2,137110, Note_on_c, 0, 71, 77
2,137131, Note_on_c, 0, 50, 65
2,137173, Note_on_c, 0, 73, 0
2,137262, Note_on_c, 0, 74, 78
2,137269, Note_on_c, 0, 71, 0
2,137312, Note_on_c, 0, 50, 0
2,137480, Note_on_c, 0, 68, 42
2,137485, Note_on_c, 0, 52, 64
2,137488, Note_on_c, 0, 67, 79
2,137513, Note_on_c, 0, 68, 0
2,137540, Note_on_c, 0, 66, 0
2,137559, Note_on_c, 0, 74, 0
2,137672, Note_on_c, 0, 66, 66
2,137694, Note_on_c, 0, 52, 0
2,137790, Note_on_c, 0, 66, 0
2,137831, Note_on_c, 0, 54, 58
2,137831, Note_on_c, 0, 64, 66
2,137979, Note_on_c, 0, 62, 66
2,137986, Note_on_c, 0, 64, 0
2,138020, Note_on_c, 0, 54, 0
2,138153, Note_on_c, 0, 64, 66
2,138164, Note_on_c, 0, 55, 61
2,138179, Note_on_c, 0, 62, 0
2,138320, Note_on_c, 0, 62, 70
2,138391, Note_on_c, 0, 64, 0
2,138403, Note_on_c, 0, 55, 0
2,138485, Note_on_c, 0, 61, 70
2,138491, Note_on_c, 0, 62, 0
2,138497, Note_on_c, 0, 52, 59
2,138637, Note_on_c, 0, 64, 71
2,138665, Note_on_c, 0, 61, 0
2,138772, Note_on_c, 0, 67, 0
2,138776, Note_on_c, 0, 52, 0
2,138819, Note_on_c, 0, 57, 69
2,138827, Note_on_c, 0, 49, 65
2,138887, Note_on_c, 0, 64, 0
2,138978, Note_on_c, 0, 67, 69
2,139059, Note_on_c, 0, 49, 0
2,139131, Note_on_c, 0, 66, 72
2,139140, Note_on_c, 0, 45, 58
2,139292, Note_on_c, 0, 64, 71
2,139325, Note_on_c, 0, 67, 0
2,139345, Note_on_c, 0, 66, 0
2,139346, Note_on_c, 0, 45, 0
2,139480, Note_on_c, 0, 50, 65
2,139484, Note_on_c, 0, 66, 69
2,139499, Note_on_c, 0, 64, 0
2,139634, Note_on_c, 0, 64, 73
2,139695, Note_on_c, 0, 66, 0
2,139739, Note_on_c, 0, 50, 0
2,139810, Note_on_c, 0, 62, 71
2,139819, Note_on_c, 0, 42, 63
2,139842, Note_on_c, 0, 64, 0
2,139973, Note_on_c, 0, 66, 80
2,139992, Note_on_c, 0, 62, 0
2,140053, Note_on_c, 0, 42, 0
2,140053, Note_on_c, 0, 66, 0
2,140160, Note_on_c, 0, 43, 64
2,140166, Note_on_c, 0, 59, 78
2,140203, Note_on_c, 0, 57, 0
2,140330, Note_on_c, 0, 57, 59
2,140401, Note_on_c, 0, 43, 0
2,140484, Note_on_c, 0, 57, 0
2,140497, Note_on_c, 0, 55, 64
2,140499, Note_on_c, 0, 47, 60
2,140658, Note_on_c, 0, 54, 61
2,140664, Note_on_c, 0, 55, 0
2,140716, Note_on_c, 0, 47, 0
2,140853, Note_on_c, 0, 61, 75
2,140866, Note_on_c, 0, 55, 65
2,140872, Note_on_c, 0, 40, 63
2,140883, Note_on_c, 0, 59, 0
2,140891, Note_on_c, 0, 54, 0
2,141014, Note_on_c, 0, 55, 0
2,141017, Note_on_c, 0, 54, 68
2,141140, Note_on_c, 0, 40, 0
2,141184, Note_on_c, 0, 52, 71
2,141203, Note_on_c, 0, 45, 63
2,141213, Note_on_c, 0, 54, 0
2,141294, Note_on_c, 0, 45, 0
2,141324, Note_on_c, 0, 61, 0
2,141343, Note_on_c, 0, 55, 71
2,141380, Note_on_c, 0, 52, 0
2,141539, Note_on_c, 0, 54, 60
2,141550, Note_on_c, 0, 62, 72
2,141553, Note_on_c, 0, 50, 66
2,141568, Note_on_c, 0, 55, 0
2,141676, Note_on_c, 0, 54, 0
2,141713, Note_on_c, 0, 62, 0
2,141722, Note_on_c, 0, 49, 76
2,141764, Note_on_c, 0, 50, 0
2,141907, Note_on_c, 0, 66, 89
2,141926, Note_on_c, 0, 50, 67
2,141977, Note_on_c, 0, 49, 0
2,142067, Note_on_c, 0, 50, 0
2,142067, Note_on_c, 0, 52, 71
2,142127, Note_on_c, 0, 66, 0
2,142281, Note_on_c, 0, 52, 0
2,142281, Note_on_c, 0, 71, 86
2,142285, Note_on_c, 0, 50, 68
2,142435, Note_on_c, 0, 55, 63
2,142447, Note_on_c, 0, 50, 0
2,142604, Note_on_c, 0, 59, 72
2,142606, Note_on_c, 0, 55, 0
2,142609, Note_on_c, 0, 54, 69
2,142757, Note_on_c, 0, 55, 59
2,142761, Note_on_c, 0, 54, 0
2,142777, Note_on_c, 0, 59, 0
2,142930, Note_on_c, 0, 64, 77
2,142939, Note_on_c, 0, 49, 68
2,143034, Note_on_c, 0, 55, 0
2,143110, Note_on_c, 0, 47, 71
2,143138, Note_on_c, 0, 49, 0
2,143270, Note_on_c, 0, 70, 78
2,143282, Note_on_c, 0, 49, 66
2,143329, Note_on_c, 0, 47, 0
2,143428, Note_on_c, 0, 68, 84
2,143433, Note_on_c, 0, 51, 70
2,143447, Note_on_c, 0, 49, 0
2,143453, Note_on_c, 0, 71, 0
2,143474, Note_on_c, 0, 70, 0
2,143614, Note_on_c, 0, 70, 85
2,143615, Note_on_c, 0, 49, 72
2,143661, Note_on_c, 0, 51, 0
2,143688, Note_on_c, 0, 68, 0
2,143721, Note_on_c, 0, 64, 0
2,143778, Note_on_c, 0, 54, 67
2,143822, Note_on_c, 0, 49, 0
2,143969, Note_on_c, 0, 66, 89
2,143982, Note_on_c, 0, 52, 67
2,144050, Note_on_c, 0, 54, 0
2,144155, Note_on_c, 0, 54, 71
2,144160, Note_on_c, 0, 52, 0
2,144374, Note_on_c, 0, 71, 83
2,144377, Note_on_c, 0, 47, 65
2,144380, Note_on_c, 0, 62, 80
2,144442, Note_on_c, 0, 54, 0
2,144476, Note_on_c, 0, 70, 0
2,144495, Note_on_c, 0, 66, 0
2,144552, Note_on_c, 0, 49, 71
2,144602, Note_on_c, 0, 47, 0
2,144739, Note_on_c, 0, 59, 89
2,144740, Note_on_c, 0, 50, 71
2,144774, Note_on_c, 0, 62, 0
2,144778, Note_on_c, 0, 49, 0
2,144902, Note_on_c, 0, 50, 0
2,144908, Note_on_c, 0, 47, 67
2,145093, Note_on_c, 0, 67, 85
2,145103, Note_on_c, 0, 52, 66
2,145168, Note_on_c, 0, 47, 0
2,145192, Note_on_c, 0, 59, 0
2,145200, Note_on_c, 0, 71, 0
2,145244, Note_on_c, 0, 50, 67
2,145317, Note_on_c, 0, 52, 0
2,145429, Note_on_c, 0, 49, 66
2,145437, Note_on_c, 0, 76, 76
2,145494, Note_on_c, 0, 50, 0
2,145583, Note_on_c, 0, 76, 0
2,145595, Note_on_c, 0, 47, 64
2,145600, Note_on_c, 0, 49, 0
2,145773, Note_on_c, 0, 69, 80
2,145782, Note_on_c, 0, 49, 67
2,145865, Note_on_c, 0, 47, 0
2,145925, Note_on_c, 0, 52, 68
2,145943, Note_on_c, 0, 49, 0
2,146139, Note_on_c, 0, 50, 66
2,146146, Note_on_c, 0, 66, 85
2,146176, Note_on_c, 0, 67, 0
2,146204, Note_on_c, 0, 52, 0
2,146293, Note_on_c, 0, 49, 69
2,146297, Note_on_c, 0, 64, 84
2,146314, Note_on_c, 0, 50, 0
2,146324, Note_on_c, 0, 66, 0
2,146474, Note_on_c, 0, 66, 90
2,146481, Note_on_c, 0, 50, 65
2,146514, Note_on_c, 0, 49, 0
2,146553, Note_on_c, 0, 64, 0
2,146606, Note_on_c, 0, 69, 0
2,146622, Note_on_c, 0, 50, 0
2,146644, Note_on_c, 0, 52, 73
2,146809, Note_on_c, 0, 74, 71
2,146811, Note_on_c, 0, 54, 66
2,146855, Note_on_c, 0, 52, 0
2,146971, Note_on_c, 0, 74, 0
2,146987, Note_on_c, 0, 50, 61
2,147005, Note_on_c, 0, 54, 0
2,147159, Note_on_c, 0, 52, 66
2,147164, Note_on_c, 0, 67, 76
2,147207, Note_on_c, 0, 50, 0
2,147311, Note_on_c, 0, 52, 0
2,147314, Note_on_c, 0, 50, 67
2,147494, Note_on_c, 0, 71, 83
2,147513, Note_on_c, 0, 52, 69
2,147526, Note_on_c, 0, 67, 0
2,147542, Note_on_c, 0, 50, 0
2,147672, Note_on_c, 0, 54, 65
2,147688, Note_on_c, 0, 52, 0
2,147843, Note_on_c, 0, 64, 90
2,147850, Note_on_c, 0, 55, 61
2,147852, Note_on_c, 0, 54, 0
2,147917, Note_on_c, 0, 71, 0
2,147984, Note_on_c, 0, 66, 0
2,147999, Note_on_c, 0, 54, 59
2,148002, Note_on_c, 0, 55, 0
2,148177, Note_on_c, 0, 52, 61
2,148189, Note_on_c, 0, 72, 71
2,148191, Note_on_c, 0, 54, 0
2,148303, Note_on_c, 0, 52, 0
2,148331, Note_on_c, 0, 72, 0
2,148347, Note_on_c, 0, 55, 60
2,148538, Note_on_c, 0, 70, 73
2,148540, Note_on_c, 0, 54, 62
2,148631, Note_on_c, 0, 55, 0
2,148702, Note_on_c, 0, 64, 0
2,148703, Note_on_c, 0, 56, 61
2,148795, Note_on_c, 0, 54, 0
2,148874, Note_on_c, 0, 62, 70
2,148879, Note_on_c, 0, 66, 77
2,148892, Note_on_c, 0, 58, 66
2,148919, Note_on_c, 0, 56, 0
2,148962, Note_on_c, 0, 70, 0
2,149036, Note_on_c, 0, 54, 72
2,149041, Note_on_c, 0, 61, 77
2,149060, Note_on_c, 0, 62, 0
2,149079, Note_on_c, 0, 66, 0
2,149102, Note_on_c, 0, 58, 0
2,149219, Note_on_c, 0, 61, 0
2,149231, Note_on_c, 0, 59, 78
2,149240, Note_on_c, 0, 62, 81
2,149249, Note_on_c, 0, 54, 0
2,149396, Note_on_c, 0, 47, 76
2,149407, Note_on_c, 0, 71, 63
2,149433, Note_on_c, 0, 59, 0
2,149456, Note_on_c, 0, 62, 0
2,149580, Note_on_c, 0, 59, 82
2,149582, Note_on_c, 0, 73, 78
2,149615, Note_on_c, 0, 71, 0
2,149680, Note_on_c, 0, 47, 0
2,149737, Note_on_c, 0, 74, 78
2,149784, Note_on_c, 0, 73, 0
2,149936, Note_on_c, 0, 61, 82
2,149948, Note_on_c, 0, 65, 77
2,150013, Note_on_c, 0, 74, 0
2,150104, Note_on_c, 0, 59, 0
2,150110, Note_on_c, 0, 57, 58
2,150128, Note_on_c, 0, 65, 0
2,150269, Note_on_c, 0, 56, 57
2,150277, Note_on_c, 0, 73, 79
2,150330, Note_on_c, 0, 57, 0
2,150423, Note_on_c, 0, 56, 0
2,150430, Note_on_c, 0, 73, 0
2,150433, Note_on_c, 0, 59, 59
2,150614, Note_on_c, 0, 66, 74
2,150620, Note_on_c, 0, 57, 57
2,150736, Note_on_c, 0, 59, 0
2,150793, Note_on_c, 0, 56, 58
2,150882, Note_on_c, 0, 57, 0
2,150970, Note_on_c, 0, 54, 57
2,151020, Note_on_c, 0, 56, 0
2,151124, Note_on_c, 0, 61, 0
2,151127, Note_on_c, 0, 57, 48
2,151167, Note_on_c, 0, 54, 0
2,151290, Note_on_c, 0, 59, 69
2,151291, Note_on_c, 0, 57, 0
2,151295, Note_on_c, 0, 56, 60
2,151453, Note_on_c, 0, 56, 0
2,151455, Note_on_c, 0, 57, 57
2,151630, Note_on_c, 0, 65, 73
2,151636, Note_on_c, 0, 56, 57
2,151659, Note_on_c, 0, 66, 0
2,151733, Note_on_c, 0, 57, 0
2,151793, Note_on_c, 0, 66, 79
2,151800, Note_on_c, 0, 54, 58
2,151843, Note_on_c, 0, 56, 0
2,151846, Note_on_c, 0, 65, 0
2,151943, Note_on_c, 0, 59, 0
2,151963, Note_on_c, 0, 68, 73
2,151974, Note_on_c, 0, 53, 58
2,152019, Note_on_c, 0, 66, 0
2,152052, Note_on_c, 0, 54, 0
2,152115, Note_on_c, 0, 69, 75
2,152117, Note_on_c, 0, 54, 49
2,152130, Note_on_c, 0, 53, 0
2,152160, Note_on_c, 0, 68, 0
2,152283, Note_on_c, 0, 69, 0
2,152300, Note_on_c, 0, 71, 78
2,152301, Note_on_c, 0, 56, 62
2,152326, Note_on_c, 0, 54, 0
2,152455, Note_on_c, 0, 68, 84
2,152458, Note_on_c, 0, 53, 62
2,152481, Note_on_c, 0, 56, 0
2,152503, Note_on_c, 0, 71, 0
2,152665, Note_on_c, 0, 54, 59
2,152667, Note_on_c, 0, 71, 79
2,152697, Note_on_c, 0, 53, 0
2,152735, Note_on_c, 0, 68, 0
2,152833, Note_on_c, 0, 69, 83
2,153002, Note_on_c, 0, 56, 64
2,153004, Note_on_c, 0, 68, 82
2,153051, Note_on_c, 0, 71, 0
2,153100, Note_on_c, 0, 69, 0
2,153161, Note_on_c, 0, 66, 82
2,153166, Note_on_c, 0, 54, 0
2,153171, Note_on_c, 0, 57, 56
2,153217, Note_on_c, 0, 68, 0
2,153218, Note_on_c, 0, 56, 0
2,153373, Note_on_c, 0, 74, 81
2,153394, Note_on_c, 0, 59, 59
2,153400, Note_on_c, 0, 57, 0
2,153465, Note_on_c, 0, 66, 0
2,153537, Note_on_c, 0, 73, 64
2,153547, Note_on_c, 0, 57, 47
2,153644, Note_on_c, 0, 59, 0
2,153707, Note_on_c, 0, 56, 56
2,153711, Note_on_c, 0, 71, 58
2,153869, Note_on_c, 0, 69, 67
2,153870, Note_on_c, 0, 57, 0
2,153873, Note_on_c, 0, 54, 53
2,153903, Note_on_c, 0, 71, 0
2,153949, Note_on_c, 0, 73, 0
2,153956, Note_on_c, 0, 56, 0
2,154032, Note_on_c, 0, 68, 72
2,154038, Note_on_c, 0, 52, 64
2,154050, Note_on_c, 0, 54, 0
2,154077, Note_on_c, 0, 69, 0
2,154197, Note_on_c, 0, 54, 65
2,154215, Note_on_c, 0, 52, 0
2,154378, Note_on_c, 0, 52, 58
2,154380, Note_on_c, 0, 73, 80
2,154497, Note_on_c, 0, 54, 0
2,154521, Note_on_c, 0, 74, 0
2,154531, Note_on_c, 0, 71, 75
2,154554, Note_on_c, 0, 50, 57
2,154569, Note_on_c, 0, 73, 0
2,154593, Note_on_c, 0, 52, 0
2,154644, Note_on_c, 0, 68, 0
2,154726, Note_on_c, 0, 73, 80
2,154736, Note_on_c, 0, 52, 66
2,154738, Note_on_c, 0, 50, 0
2,154753, Note_on_c, 0, 71, 0
2,154893, Note_on_c, 0, 71, 61
2,154894, Note_on_c, 0, 50, 61
2,154966, Note_on_c, 0, 52, 0
2,155043, Note_on_c, 0, 69, 60
2,155053, Note_on_c, 0, 49, 64
2,155075, Note_on_c, 0, 50, 0
2,155196, Note_on_c, 0, 68, 66
2,155211, Note_on_c, 0, 52, 53
2,155215, Note_on_c, 0, 49, 0
2,155235, Note_on_c, 0, 69, 0
2,155307, Note_on_c, 0, 71, 0
2,155383, Note_on_c, 0, 66, 69
2,155385, Note_on_c, 0, 50, 61
2,155432, Note_on_c, 0, 52, 0
2,155466, Note_on_c, 0, 68, 0
2,155469, Note_on_c, 0, 73, 0
2,155550, Note_on_c, 0, 50, 0
2,155551, Note_on_c, 0, 52, 65
2,155641, Note_on_c, 0, 66, 0
2,155728, Note_on_c, 0, 78, 88
2,155733, Note_on_c, 0, 50, 61
2,155736, Note_on_c, 0, 69, 73
2,155789, Note_on_c, 0, 52, 0
2,155876, Note_on_c, 0, 69, 0
2,155881, Note_on_c, 0, 49, 61
2,155901, Note_on_c, 0, 50, 0
2,156046, Note_on_c, 0, 49, 0
2,156058, Note_on_c, 0, 71, 77
2,156070, Note_on_c, 0, 68, 75
2,156072, Note_on_c, 0, 50, 66
2,156075, Note_on_c, 0, 78, 0
2,156231, Note_on_c, 0, 49, 58
2,156288, Note_on_c, 0, 50, 0
2,156392, Note_on_c, 0, 47, 62
2,156438, Note_on_c, 0, 49, 0
2,156472, Note_on_c, 0, 68, 0
2,156551, Note_on_c, 0, 47, 0
2,156560, Note_on_c, 0, 66, 69
2,156566, Note_on_c, 0, 50, 59
2,156656, Note_on_c, 0, 66, 0
2,156729, Note_on_c, 0, 49, 61
2,156729, Note_on_c, 0, 65, 72
2,156759, Note_on_c, 0, 50, 0
2,156862, Note_on_c, 0, 65, 0
2,156898, Note_on_c, 0, 49, 0
2,156900, Note_on_c, 0, 50, 63
2,157071, Note_on_c, 0, 69, 79
2,157076, Note_on_c, 0, 49, 59
2,157079, Note_on_c, 0, 61, 63
2,157144, Note_on_c, 0, 50, 0
2,157224, Note_on_c, 0, 68, 78
2,157225, Note_on_c, 0, 61, 0
2,157236, Note_on_c, 0, 47, 63
2,157275, Note_on_c, 0, 69, 0
2,157278, Note_on_c, 0, 71, 0
2,157293, Note_on_c, 0, 49, 0
2,157414, Note_on_c, 0, 69, 76
2,157416, Note_on_c, 0, 49, 60
2,157416, Note_on_c, 0, 66, 75
2,157419, Note_on_c, 0, 47, 0
2,157467, Note_on_c, 0, 68, 0
2,157560, Note_on_c, 0, 47, 65
2,157590, Note_on_c, 0, 49, 0
2,157649, Note_on_c, 0, 66, 0
2,157748, Note_on_c, 0, 45, 59
2,157753, Note_on_c, 0, 66, 83
2,157760, Note_on_c, 0, 47, 0
2,157898, Note_on_c, 0, 49, 59
2,157909, Note_on_c, 0, 45, 0
2,157968, Note_on_c, 0, 69, 0
2,158093, Note_on_c, 0, 68, 79
2,158102, Note_on_c, 0, 47, 56
2,158117, Note_on_c, 0, 49, 0
2,158246, Note_on_c, 0, 47, 0
2,158251, Note_on_c, 0, 49, 59
2,158430, Note_on_c, 0, 47, 55
2,158443, Note_on_c, 0, 49, 0
2,158585, Note_on_c, 0, 47, 0
2,158591, Note_on_c, 0, 45, 51
2,158753, Note_on_c, 0, 45, 0
2,158778, Note_on_c, 0, 65, 53
2,158779, Note_on_c, 0, 47, 48
2,158793, Note_on_c, 0, 66, 0
2,158931, Note_on_c, 0, 45, 45
2,158979, Note_on_c, 0, 47, 0
2,159098, Note_on_c, 0, 44, 50
2,159170, Note_on_c, 0, 45, 0
2,159247, Note_on_c, 0, 44, 0
2,159262, Note_on_c, 0, 47, 47
2,159423, Note_on_c, 0, 65, 0
2,159440, Note_on_c, 0, 66, 50
2,159456, Note_on_c, 0, 45, 46
2,159547, Note_on_c, 0, 47, 0
2,159569, Note_on_c, 0, 68, 0
2,159609, Note_on_c, 0, 44, 51
2,159626, Note_on_c, 0, 66, 0
2,159634, Note_on_c, 0, 45, 0
2,159788, Note_on_c, 0, 42, 44
2,159788, Note_on_c, 0, 44, 0
2,159798, Note_on_c, 0, 73, 51
2,159966, Note_on_c, 0, 44, 47
2,160013, Note_on_c, 0, 42, 0
2,160121, Note_on_c, 0, 44, 0
2,160131, Note_on_c, 0, 45, 50
2,160131, Note_on_c, 0, 78, 66
2,160233, Note_on_c, 0, 45, 0
2,160303, Note_on_c, 0, 47, 46
2,160351, Note_on_c, 0, 73, 0
2,160462, Note_on_c, 0, 47, 0
2,160462, Note_on_c, 0, 81, 66
2,160465, Note_on_c, 0, 49, 49
2,160512, Note_on_c, 0, 78, 0
2,160629, Note_on_c, 0, 51, 46
2,160644, Note_on_c, 0, 49, 0
2,160800, Note_on_c, 0, 51, 0
2,160823, Note_on_c, 0, 80, 65
2,160824, Note_on_c, 0, 52, 39
2,160865, Note_on_c, 0, 81, 0
2,160963, Note_on_c, 0, 51, 46
2,160987, Note_on_c, 0, 52, 0
2,161131, Note_on_c, 0, 51, 0
2,161148, Note_on_c, 0, 49, 42
2,161152, Note_on_c, 0, 68, 56
2,161289, Note_on_c, 0, 51, 42
2,161322, Note_on_c, 0, 49, 0
2,161446, Note_on_c, 0, 51, 0
2,161481, Note_on_c, 0, 73, 59
2,161497, Note_on_c, 0, 52, 48
2,161569, Note_on_c, 0, 68, 0
2,161621, Note_on_c, 0, 52, 0
2,161632, Note_on_c, 0, 54, 50
2,161801, Note_on_c, 0, 56, 50
2,161808, Note_on_c, 0, 76, 58
2,161829, Note_on_c, 0, 54, 0
2,161875, Note_on_c, 0, 73, 0
2,161969, Note_on_c, 0, 58, 40
2,162024, Note_on_c, 0, 56, 0
2,162145, Note_on_c, 0, 75, 59
2,162150, Note_on_c, 0, 58, 0
2,162153, Note_on_c, 0, 60, 46
2,162199, Note_on_c, 0, 76, 0
2,162295, Note_on_c, 0, 80, 0
2,162297, Note_on_c, 0, 60, 0
2,162307, Note_on_c, 0, 58, 53
2,162464, Note_on_c, 0, 58, 0
2,162489, Note_on_c, 0, 81, 61
2,162508, Note_on_c, 0, 60, 43
2,162637, Note_on_c, 0, 60, 0
2,162646, Note_on_c, 0, 61, 50
2,162799, Note_on_c, 0, 60, 52
2,162813, Note_on_c, 0, 80, 65
2,162820, Note_on_c, 0, 61, 0
2,162902, Note_on_c, 0, 81, 0
2,162955, Note_on_c, 0, 61, 53
2,162961, Note_on_c, 0, 60, 0
2,163138, Note_on_c, 0, 78, 66
2,163150, Note_on_c, 0, 63, 47
2,163177, Note_on_c, 0, 61, 0
2,163185, Note_on_c, 0, 80, 0
2,163284, Note_on_c, 0, 63, 0
2,163300, Note_on_c, 0, 60, 47
2,163472, Note_on_c, 0, 78, 0
2,163488, Note_on_c, 0, 76, 59
2,163498, Note_on_c, 0, 61, 45
2,163507, Note_on_c, 0, 60, 0
2,163652, Note_on_c, 0, 63, 43
2,163657, Note_on_c, 0, 61, 0
2,163821, Note_on_c, 0, 63, 0
2,163831, Note_on_c, 0, 68, 52
2,163852, Note_on_c, 0, 64, 42
2,163877, Note_on_c, 0, 75, 0
2,163991, Note_on_c, 0, 63, 48
2,163991, Note_on_c, 0, 64, 0
2,164159, Note_on_c, 0, 73, 59
2,164164, Note_on_c, 0, 61, 47
2,164202, Note_on_c, 0, 63, 0
2,164283, Note_on_c, 0, 68, 0
2,164289, Note_on_c, 0, 61, 0
2,164321, Note_on_c, 0, 59, 51
2,164491, Note_on_c, 0, 57, 49
2,164491, Note_on_c, 0, 71, 56
2,164547, Note_on_c, 0, 59, 0
2,164647, Note_on_c, 0, 56, 50
2,164755, Note_on_c, 0, 57, 0
2,164815, Note_on_c, 0, 73, 0
2,164831, Note_on_c, 0, 69, 57
2,164835, Note_on_c, 0, 56, 0
2,164839, Note_on_c, 0, 54, 47
2,164924, Note_on_c, 0, 71, 0
2,164930, Note_on_c, 0, 76, 0
2,164980, Note_on_c, 0, 54, 0
2,164996, Note_on_c, 0, 52, 44
2,165140, Note_on_c, 0, 76, 62
2,165152, Note_on_c, 0, 54, 46
2,165214, Note_on_c, 0, 52, 0
2,165289, Note_on_c, 0, 54, 0
2,165311, Note_on_c, 0, 56, 47
2,165490, Note_on_c, 0, 54, 45
2,165502, Note_on_c, 0, 75, 60
2,165505, Note_on_c, 0, 56, 0
2,165511, Note_on_c, 0, 76, 0
2,165643, Note_on_c, 0, 56, 42
2,165674, Note_on_c, 0, 54, 0
2,165807, Note_on_c, 0, 56, 0
2,165819, Note_on_c, 0, 78, 67
2,165823, Note_on_c, 0, 57, 43
2,165849, Note_on_c, 0, 75, 0
2,165972, Note_on_c, 0, 54, 45
2,166040, Note_on_c, 0, 57, 0
2,166161, Note_on_c, 0, 72, 62
2,166162, Note_on_c, 0, 56, 46
2,166165, Note_on_c, 0, 69, 0
2,166185, Note_on_c, 0, 54, 0
2,166208, Note_on_c, 0, 78, 0
2,166321, Note_on_c, 0, 54, 51
2,166365, Note_on_c, 0, 56, 0
2,166487, Note_on_c, 0, 56, 55
2,166488, Note_on_c, 0, 63, 60
2,166514, Note_on_c, 0, 54, 0
2,166640, Note_on_c, 0, 56, 0
2,166657, Note_on_c, 0, 57, 61
2,166825, Note_on_c, 0, 56, 71
2,166842, Note_on_c, 0, 68, 64
2,166871, Note_on_c, 0, 63, 0
2,166885, Note_on_c, 0, 57, 0
2,166992, Note_on_c, 0, 54, 72
2,167039, Note_on_c, 0, 56, 0
2,167135, Note_on_c, 0, 54, 0
2,167155, Note_on_c, 0, 52, 78
2,167161, Note_on_c, 0, 66, 67
2,167167, Note_on_c, 0, 75, 67
2,167216, Note_on_c, 0, 72, 0
2,167230, Note_on_c, 0, 68, 0
2,167323, Note_on_c, 0, 51, 76
2,167390, Note_on_c, 0, 52, 0
2,167508, Note_on_c, 0, 66, 0
2,167524, Note_on_c, 0, 52, 78
2,167530, Note_on_c, 0, 68, 73
2,167576, Note_on_c, 0, 75, 0
2,167631, Note_on_c, 0, 51, 0
2,167696, Note_on_c, 0, 66, 65
2,167879, Note_on_c, 0, 49, 79
2,167883, Note_on_c, 0, 66, 0
2,167886, Note_on_c, 0, 64, 70
2,167895, Note_on_c, 0, 52, 0
2,168059, Note_on_c, 0, 63, 55
2,168069, Note_on_c, 0, 64, 0
2,168236, Note_on_c, 0, 63, 0
2,168243, Note_on_c, 0, 61, 70
2,168251, Note_on_c, 0, 57, 81
2,168301, Note_on_c, 0, 49, 0
2,168411, Note_on_c, 0, 63, 68
2,168477, Note_on_c, 0, 61, 0
2,168497, Note_on_c, 0, 63, 0
2,168575, Note_on_c, 0, 73, 74
2,168595, Note_on_c, 0, 64, 62
2,168675, Note_on_c, 0, 68, 0
2,168726, Note_on_c, 0, 64, 0
2,168739, Note_on_c, 0, 61, 61
2,168776, Note_on_c, 0, 61, 0
2,168946, Note_on_c, 0, 63, 58
2,168946, Note_on_c, 0, 72, 51
2,168946, Note_on_c, 0, 73, 0
2,168949, Note_on_c, 0, 71, 58
2,169089, Note_on_c, 0, 72, 0
2,169090, Note_on_c, 0, 73, 69
2,169098, Note_on_c, 0, 71, 0
2,169261, Note_on_c, 0, 71, 69
2,169262, Note_on_c, 0, 63, 0
2,169266, Note_on_c, 0, 56, 70
2,169383, Note_on_c, 0, 73, 0
2,169398, Note_on_c, 0, 57, 0
2,169411, Note_on_c, 0, 69, 67
2,169418, Note_on_c, 0, 54, 78
2,169451, Note_on_c, 0, 71, 0
2,169491, Note_on_c, 0, 56, 0
2,169603, Note_on_c, 0, 71, 63
2,169606, Note_on_c, 0, 56, 83
2,169608, Note_on_c, 0, 69, 0
2,169657, Note_on_c, 0, 54, 0
2,169750, Note_on_c, 0, 69, 65
2,169787, Note_on_c, 0, 71, 0
2,169931, Note_on_c, 0, 68, 70
2,169934, Note_on_c, 0, 69, 0
2,169937, Note_on_c, 0, 64, 64
2,170057, Note_on_c, 0, 64, 0
2,170077, Note_on_c, 0, 71, 60
2,170117, Note_on_c, 0, 68, 0
2,170251, Note_on_c, 0, 71, 0
2,170262, Note_on_c, 0, 69, 63
2,170273, Note_on_c, 0, 61, 72
2,170414, Note_on_c, 0, 61, 0
2,170425, Note_on_c, 0, 71, 62
2,170432, Note_on_c, 0, 69, 0
2,170596, Note_on_c, 0, 69, 68
2,170605, Note_on_c, 0, 61, 76
2,170607, Note_on_c, 0, 64, 77
2,170635, Note_on_c, 0, 56, 0
2,170636, Note_on_c, 0, 71, 0
2,170730, Note_on_c, 0, 64, 0
2,170764, Note_on_c, 0, 68, 72
2,170802, Note_on_c, 0, 69, 0
2,170953, Note_on_c, 0, 69, 67
2,170954, Note_on_c, 0, 63, 88
2,170960, Note_on_c, 0, 54, 71
2,170965, Note_on_c, 0, 61, 0
2,170982, Note_on_c, 0, 68, 0
2,171124, Note_on_c, 0, 68, 62
2,171175, Note_on_c, 0, 69, 0
2,171288, Note_on_c, 0, 66, 64
2,171301, Note_on_c, 0, 68, 0
2,171359, Note_on_c, 0, 63, 0
2,171426, Note_on_c, 0, 66, 0
2,171429, Note_on_c, 0, 61, 62
2,171431, Note_on_c, 0, 69, 68
2,171541, Note_on_c, 0, 61, 0
2,171603, Note_on_c, 0, 60, 69
2,171605, Note_on_c, 0, 69, 0
2,171609, Note_on_c, 0, 68, 66
2,171680, Note_on_c, 0, 54, 0
2,171748, Note_on_c, 0, 69, 65
2,171761, Note_on_c, 0, 68, 0
2,171923, Note_on_c, 0, 56, 66
2,171926, Note_on_c, 0, 68, 66
2,171935, Note_on_c, 0, 60, 0
2,171951, Note_on_c, 0, 52, 60
2,171968, Note_on_c, 0, 69, 0
2,172075, Note_on_c, 0, 66, 70
2,172089, Note_on_c, 0, 51, 70
2,172093, Note_on_c, 0, 68, 0
2,172130, Note_on_c, 0, 56, 0
2,172131, Note_on_c, 0, 52, 0
2,172265, Note_on_c, 0, 68, 67
2,172280, Note_on_c, 0, 61, 77
2,172288, Note_on_c, 0, 66, 0
2,172290, Note_on_c, 0, 52, 71
2,172360, Note_on_c, 0, 51, 0
2,172429, Note_on_c, 0, 66, 67
2,172489, Note_on_c, 0, 68, 0
2,172617, Note_on_c, 0, 64, 62
2,172623, Note_on_c, 0, 49, 71
2,172637, Note_on_c, 0, 52, 0
2,172653, Note_on_c, 0, 66, 0
2,172770, Note_on_c, 0, 68, 70
2,172771, Note_on_c, 0, 64, 0
2,172986, Note_on_c, 0, 51, 71
2,172986, Note_on_c, 0, 66, 69
2,173014, Note_on_c, 0, 68, 0
2,173111, Note_on_c, 0, 49, 0
2,173143, Note_on_c, 0, 68, 68
2,173153, Note_on_c, 0, 66, 0
2,173206, Note_on_c, 0, 61, 0
2,173316, Note_on_c, 0, 66, 63
2,173408, Note_on_c, 0, 68, 0
2,173464, Note_on_c, 0, 64, 54
2,173465, Note_on_c, 0, 66, 0
2,173611, Note_on_c, 0, 64, 0
2,173641, Note_on_c, 0, 60, 57
2,173642, Note_on_c, 0, 66, 59
2,173809, Note_on_c, 0, 66, 0
2,173815, Note_on_c, 0, 64, 52
2,173977, Note_on_c, 0, 63, 49
2,173983, Note_on_c, 0, 60, 0
2,173989, Note_on_c, 0, 64, 0
2,174061, Note_on_c, 0, 51, 0
2,174120, Note_on_c, 0, 63, 0
2,174122, Note_on_c, 0, 66, 58
2,174308, Note_on_c, 0, 61, 47
2,174313, Note_on_c, 0, 64, 48
2,174322, Note_on_c, 0, 49, 47
2,174375, Note_on_c, 0, 66, 0
2,174457, Note_on_c, 0, 61, 0
2,174459, Note_on_c, 0, 49, 0
2,174476, Note_on_c, 0, 48, 43
2,174572, Note_on_c, 0, 64, 0
2,174649, Note_on_c, 0, 49, 41
2,174659, Note_on_c, 0, 56, 51
2,174684, Note_on_c, 0, 48, 0
2,174816, Note_on_c, 0, 51, 40
2,174835, Note_on_c, 0, 49, 0
2,174974, Note_on_c, 0, 51, 0
2,174983, Note_on_c, 0, 61, 60
2,174999, Note_on_c, 0, 52, 44
2,175115, Note_on_c, 0, 52, 0
2,175143, Note_on_c, 0, 56, 0
2,175152, Note_on_c, 0, 54, 51
2,175323, Note_on_c, 0, 54, 0
2,175338, Note_on_c, 0, 64, 57
2,175340, Note_on_c, 0, 55, 48
2,175398, Note_on_c, 0, 61, 0
2,175451, Note_on_c, 0, 55, 0
2,175485, Note_on_c, 0, 52, 53
2,175668, Note_on_c, 0, 58, 51
2,175674, Note_on_c, 0, 52, 0
2,175683, Note_on_c, 0, 54, 41
2,175839, Note_on_c, 0, 54, 0
2,175843, Note_on_c, 0, 55, 46
2,175973, Note_on_c, 0, 64, 0
2,175976, Note_on_c, 0, 55, 0
2,175987, Note_on_c, 0, 67, 58
2,175989, Note_on_c, 0, 54, 45
2,176104, Note_on_c, 0, 58, 0
2,176172, Note_on_c, 0, 52, 49
2,176219, Note_on_c, 0, 54, 0
2,176330, Note_on_c, 0, 52, 0
2,176335, Note_on_c, 0, 66, 62
2,176350, Note_on_c, 0, 59, 49
2,176351, Note_on_c, 0, 50, 48
2,176381, Note_on_c, 0, 67, 0
2,176500, Note_on_c, 0, 50, 0
2,176504, Note_on_c, 0, 49, 54
2,176605, Note_on_c, 0, 49, 0
2,176668, Note_on_c, 0, 47, 58
2,176669, Note_on_c, 0, 64, 56
2,176680, Note_on_c, 0, 66, 0
2,176688, Note_on_c, 0, 61, 47
2,176794, Note_on_c, 0, 47, 0
2,176805, Note_on_c, 0, 64, 0
2,176805, Note_on_c, 0, 64, 16
2,176815, Note_on_c, 0, 59, 0
2,176817, Note_on_c, 0, 46, 54
2,176988, Note_on_c, 0, 46, 0
2,177018, Note_on_c, 0, 47, 47
2,177026, Note_on_c, 0, 62, 51
2,177047, Note_on_c, 0, 64, 0
2,177145, Note_on_c, 0, 61, 0
2,177159, Note_on_c, 0, 47, 0
2,177172, Note_on_c, 0, 42, 50
2,177346, Note_on_c, 0, 54, 47
2,177360, Note_on_c, 0, 42, 0
2,177374, Note_on_c, 0, 47, 41
2,177497, Note_on_c, 0, 49, 58
2,177549, Note_on_c, 0, 47, 0
2,177637, Note_on_c, 0, 49, 0
2,177675, Note_on_c, 0, 59, 65
2,177694, Note_on_c, 0, 50, 54
2,177715, Note_on_c, 0, 54, 0
2,177774, Note_on_c, 0, 62, 0
2,177831, Note_on_c, 0, 50, 0
2,177848, Note_on_c, 0, 52, 52
2,177997, Note_on_c, 0, 62, 65
2,177998, Note_on_c, 0, 54, 55
2,178005, Note_on_c, 0, 52, 0
2,178057, Note_on_c, 0, 59, 0
2,178160, Note_on_c, 0, 50, 49
2,178160, Note_on_c, 0, 54, 0
2,178344, Note_on_c, 0, 50, 0
2,178344, Note_on_c, 0, 56, 64
2,178349, Note_on_c, 0, 52, 56
2,178492, Note_on_c, 0, 52, 0
2,178505, Note_on_c, 0, 54, 54
2,178677, Note_on_c, 0, 66, 70
2,178680, Note_on_c, 0, 52, 56
2,178698, Note_on_c, 0, 54, 0
2,178734, Note_on_c, 0, 62, 0
2,178760, Note_on_c, 0, 56, 0
2,178801, Note_on_c, 0, 52, 0
2,178833, Note_on_c, 0, 50, 54
2,179007, Note_on_c, 0, 49, 55
2,179011, Note_on_c, 0, 64, 69
2,179024, Note_on_c, 0, 57, 56
2,179075, Note_on_c, 0, 50, 0
2,179119, Note_on_c, 0, 49, 0
2,179176, Note_on_c, 0, 47, 62
2,179337, Note_on_c, 0, 47, 0
2,179346, Note_on_c, 0, 62, 64
2,179347, Note_on_c, 0, 45, 55
2,179351, Note_on_c, 0, 59, 51
2,179392, Note_on_c, 0, 57, 0
2,179411, Note_on_c, 0, 66, 0
2,179484, Note_on_c, 0, 64, 0
2,179493, Note_on_c, 0, 44, 61
2,179506, Note_on_c, 0, 45, 0
2,179528, Note_on_c, 0, 62, 0
2,179712, Note_on_c, 0, 61, 69
2,179714, Note_on_c, 0, 45, 54
2,179789, Note_on_c, 0, 44, 0
2,179860, Note_on_c, 0, 59, 0
2,179872, Note_on_c, 0, 45, 0
2,179878, Note_on_c, 0, 40, 57
2,180053, Note_on_c, 0, 57, 65
2,180066, Note_on_c, 0, 45, 52
2,180189, Note_on_c, 0, 40, 0
2,180201, Note_on_c, 0, 45, 0
2,180216, Note_on_c, 0, 56, 72
2,180223, Note_on_c, 0, 47, 63
2,180225, Note_on_c, 0, 57, 0
2,180385, Note_on_c, 0, 47, 0
2,180396, Note_on_c, 0, 49, 67
2,180404, Note_on_c, 0, 57, 74
2,180426, Note_on_c, 0, 56, 0
2,180451, Note_on_c, 0, 61, 0
2,180548, Note_on_c, 0, 50, 59
2,180567, Note_on_c, 0, 49, 0
2,180694, Note_on_c, 0, 50, 0
2,180723, Note_on_c, 0, 52, 64
2,180727, Note_on_c, 0, 61, 78
2,180862, Note_on_c, 0, 52, 0
2,180868, Note_on_c, 0, 49, 59
2,180884, Note_on_c, 0, 61, 0
2,181052, Note_on_c, 0, 50, 61
2,181052, Note_on_c, 0, 66, 82
2,181054, Note_on_c, 0, 49, 0
2,181128, Note_on_c, 0, 57, 0
2,181193, Note_on_c, 0, 50, 0
2,181205, Note_on_c, 0, 52, 62
2,181369, Note_on_c, 0, 52, 0
2,181377, Note_on_c, 0, 50, 61
2,181385, Note_on_c, 0, 59, 65
2,181527, Note_on_c, 0, 59, 0
2,181538, Note_on_c, 0, 61, 72
2,181540, Note_on_c, 0, 49, 64
2,181600, Note_on_c, 0, 50, 0
2,181690, Note_on_c, 0, 49, 0
2,181715, Note_on_c, 0, 47, 71
2,181720, Note_on_c, 0, 62, 73
2,181741, Note_on_c, 0, 61, 0
2,181827, Note_on_c, 0, 66, 0
2,181857, Note_on_c, 0, 45, 71
2,181875, Note_on_c, 0, 47, 0
2,182034, Note_on_c, 0, 65, 78
2,182041, Note_on_c, 0, 44, 72
2,182116, Note_on_c, 0, 62, 0
2,182136, Note_on_c, 0, 45, 0
2,182187, Note_on_c, 0, 66, 81
2,182188, Note_on_c, 0, 42, 74
2,182231, Note_on_c, 0, 65, 0
2,182279, Note_on_c, 0, 44, 0
2,182386, Note_on_c, 0, 41, 84
2,182390, Note_on_c, 0, 42, 0
2,182390, Note_on_c, 0, 68, 84
2,182417, Note_on_c, 0, 66, 0
2,182549, Note_on_c, 0, 61, 69
2,182678, Note_on_c, 0, 61, 0
2,182714, Note_on_c, 0, 37, 78
2,182721, Note_on_c, 0, 66, 83
2,182750, Note_on_c, 0, 41, 0
2,182763, Note_on_c, 0, 68, 0
2,182884, Note_on_c, 0, 68, 83
2,182896, Note_on_c, 0, 65, 77
2,182898, Note_on_c, 0, 66, 0
2,183099, Note_on_c, 0, 69, 80
2,183102, Note_on_c, 0, 42, 84
2,183104, Note_on_c, 0, 66, 79
2,183106, Note_on_c, 0, 37, 0
2,183126, Note_on_c, 0, 68, 0
2,183131, Note_on_c, 0, 65, 0
2,183271, Note_on_c, 0, 68, 83
2,183295, Note_on_c, 0, 69, 0
2,183298, Note_on_c, 0, 66, 0
2,183424, Note_on_c, 0, 69, 73
2,183478, Note_on_c, 0, 68, 0
2,183578, Note_on_c, 0, 69, 0
2,183582, Note_on_c, 0, 66, 80
2,183765, Note_on_c, 0, 71, 77
2,183770, Note_on_c, 0, 66, 0
2,183916, Note_on_c, 0, 73, 76
2,183930, Note_on_c, 0, 71, 0
2,184096, Note_on_c, 0, 71, 78
2,184244, Note_on_c, 0, 69, 81
2,184266, Note_on_c, 0, 73, 0
2,184273, Note_on_c, 0, 71, 0
2,184423, Note_on_c, 0, 71, 81
2,184425, Note_on_c, 0, 41, 80
2,184440, Note_on_c, 0, 69, 0
2,184451, Note_on_c, 0, 42, 0
2,184597, Note_on_c, 0, 69, 84
2,184616, Note_on_c, 0, 71, 0
2,184789, Note_on_c, 0, 73, 85
2,184802, Note_on_c, 0, 68, 83
2,184808, Note_on_c, 0, 69, 0
2,184939, Note_on_c, 0, 68, 0
2,184953, Note_on_c, 0, 69, 65
2,185020, Note_on_c, 0, 69, 0
2,185162, Note_on_c, 0, 41, 0
2,185171, Note_on_c, 0, 69, 85
2,185181, Note_on_c, 0, 42, 69
2,185181, Note_on_c, 0, 66, 81
2,185244, Note_on_c, 0, 73, 0
2,185321, Note_on_c, 0, 42, 0
2,185358, Note_on_c, 0, 54, 62
2,185361, Note_on_c, 0, 66, 0
2,185505, Note_on_c, 0, 54, 0
2,185530, Note_on_c, 0, 56, 63
2,185538, Note_on_c, 0, 66, 95
2,185593, Note_on_c, 0, 69, 0
2,185691, Note_on_c, 0, 57, 67
2,185703, Note_on_c, 0, 56, 0
2,185871, Note_on_c, 0, 57, 0
2,185909, Note_on_c, 0, 74, 84
2,185920, Note_on_c, 0, 59, 65
2,186008, Note_on_c, 0, 66, 0
2,186079, Note_on_c, 0, 61, 66
2,186082, Note_on_c, 0, 59, 0
2,186241, Note_on_c, 0, 61, 0
2,186244, Note_on_c, 0, 66, 71
2,186260, Note_on_c, 0, 59, 68
2,186414, Note_on_c, 0, 66, 0
2,186419, Note_on_c, 0, 57, 63
2,186522, Note_on_c, 0, 59, 0
2,186601, Note_on_c, 0, 64, 68
2,186611, Note_on_c, 0, 56, 72
2,186683, Note_on_c, 0, 57, 0
2,186766, Note_on_c, 0, 66, 73
2,186777, Note_on_c, 0, 64, 0
2,186952, Note_on_c, 0, 73, 83
2,186964, Note_on_c, 0, 64, 72
2,186977, Note_on_c, 0, 66, 0
2,187034, Note_on_c, 0, 64, 0
2,187114, Note_on_c, 0, 71, 71
2,187121, Note_on_c, 0, 62, 68
2,187145, Note_on_c, 0, 70, 49
2,187171, Note_on_c, 0, 70, 0
2,187200, Note_on_c, 0, 62, 0
2,187206, Note_on_c, 0, 73, 0
2,187208, Note_on_c, 0, 74, 0
2,187290, Note_on_c, 0, 73, 87
2,187299, Note_on_c, 0, 64, 75
2,187361, Note_on_c, 0, 64, 0
2,187363, Note_on_c, 0, 71, 0
2,187367, Note_on_c, 0, 56, 0
2,187457, Note_on_c, 0, 62, 69
2,187638, Note_on_c, 0, 58, 56
2,187638, Note_on_c, 0, 61, 61
2,187664, Note_on_c, 0, 62, 0
2,187805, Note_on_c, 0, 58, 0
2,187818, Note_on_c, 0, 61, 0
2,187822, Note_on_c, 0, 64, 67
2,187990, Note_on_c, 0, 62, 69
2,187992, Note_on_c, 0, 64, 0
2,188004, Note_on_c, 0, 59, 62
2,188130, Note_on_c, 0, 62, 0
2,188159, Note_on_c, 0, 64, 73
2,188244, Note_on_c, 0, 59, 0
2,188317, Note_on_c, 0, 78, 84
2,188324, Note_on_c, 0, 62, 71
2,188327, Note_on_c, 0, 57, 61
2,188399, Note_on_c, 0, 64, 0
2,188471, Note_on_c, 0, 78, 0
2,188475, Note_on_c, 0, 73, 0
2,188486, Note_on_c, 0, 61, 71
2,188506, Note_on_c, 0, 62, 0
2,188513, Note_on_c, 0, 61, 0
2,188532, Note_on_c, 0, 57, 0
2,188682, Note_on_c, 0, 56, 73
2,188682, Note_on_c, 0, 71, 85
2,188691, Note_on_c, 0, 62, 75
2,188789, Note_on_c, 0, 62, 0
2,188863, Note_on_c, 0, 61, 66
2,188962, Note_on_c, 0, 61, 0
2,189009, Note_on_c, 0, 59, 63
2,189093, Note_on_c, 0, 59, 0
2,189096, Note_on_c, 0, 56, 0
2,189168, Note_on_c, 0, 62, 71
2,189183, Note_on_c, 0, 54, 63
2,189246, Note_on_c, 0, 62, 0
2,189287, Note_on_c, 0, 54, 0
2,189339, Note_on_c, 0, 61, 77
2,189347, Note_on_c, 0, 53, 71
2,189508, Note_on_c, 0, 62, 68
2,189667, Note_on_c, 0, 69, 80
2,189674, Note_on_c, 0, 49, 67
2,189682, Note_on_c, 0, 61, 0
2,189720, Note_on_c, 0, 71, 0
2,189763, Note_on_c, 0, 53, 0
2,189823, Note_on_c, 0, 68, 79
2,189848, Note_on_c, 0, 69, 0
2,189960, Note_on_c, 0, 62, 0
2,190026, Note_on_c, 0, 54, 56
2,190027, Note_on_c, 0, 69, 84
2,190048, Note_on_c, 0, 68, 0
2,190141, Note_on_c, 0, 49, 0
2,190181, Note_on_c, 0, 59, 62
2,190250, Note_on_c, 0, 59, 0
2,190360, Note_on_c, 0, 66, 88
2,190376, Note_on_c, 0, 57, 61
2,190460, Note_on_c, 0, 69, 0
2,190514, Note_on_c, 0, 61, 71
2,190524, Note_on_c, 0, 57, 0
2,190742, Note_on_c, 0, 68, 87
2,190752, Note_on_c, 0, 61, 0
2,190755, Note_on_c, 0, 59, 64
2,190912, Note_on_c, 0, 61, 63
2,190914, Note_on_c, 0, 59, 0
2,190914, Note_on_c, 0, 66, 0
2,191064, Note_on_c, 0, 61, 0
2,191076, Note_on_c, 0, 59, 61
2,191197, Note_on_c, 0, 59, 0
2,191234, Note_on_c, 0, 57, 57
2,191348, Note_on_c, 0, 57, 0
2,191405, Note_on_c, 0, 53, 53
2,191416, Note_on_c, 0, 59, 60
2,191468, Note_on_c, 0, 54, 0
2,191571, Note_on_c, 0, 57, 63
2,191590, Note_on_c, 0, 59, 0
2,191736, Note_on_c, 0, 56, 72
2,191757, Note_on_c, 0, 57, 0
2,191862, Note_on_c, 0, 53, 0
2,191878, Note_on_c, 0, 56, 0
2,191910, Note_on_c, 0, 59, 66
2,192110, Note_on_c, 0, 54, 72
2,192113, Note_on_c, 0, 57, 71
2,192157, Note_on_c, 0, 59, 0
2,192299, Note_on_c, 0, 66, 83
2,192302, Note_on_c, 0, 57, 0
2,192493, Note_on_c, 0, 59, 73
2,192494, Note_on_c, 0, 50, 79
2,192638, Note_on_c, 0, 54, 0
2,192674, Note_on_c, 0, 65, 88
2,192686, Note_on_c, 0, 59, 0
2,192703, Note_on_c, 0, 68, 0
2,192838, Note_on_c, 0, 66, 0
2,192877, Note_on_c, 0, 61, 71
2,192883, Note_on_c, 0, 45, 78
2,192926, Note_on_c, 0, 50, 0
2,193067, Note_on_c, 0, 66, 83
2,193123, Note_on_c, 0, 65, 0
2,193242, Note_on_c, 0, 61, 0
2,193258, Note_on_c, 0, 62, 84
2,193268, Note_on_c, 0, 47, 81
2,193326, Note_on_c, 0, 45, 0
2,193447, Note_on_c, 0, 66, 0
2,193465, Note_on_c, 0, 68, 86
2,193482, Note_on_c, 0, 62, 0
2,193732, Note_on_c, 0, 61, 81
2,193739, Note_on_c, 0, 49, 82
2,193740, Note_on_c, 0, 57, 74
2,193753, Note_on_c, 0, 47, 0
2,193809, Note_on_c, 0, 68, 0
2,193919, Note_on_c, 0, 61, 0
2,194197, Note_on_c, 0, 66, 82
2,194629, Note_on_c, 0, 56, 73
2,194644, Note_on_c, 0, 37, 72
2,194713, Note_on_c, 0, 57, 0
2,195043, Control_c, 0, 64, 10
2,195058, Control_c, 0, 64, 18
2,195074, Control_c, 0, 64, 24
2,195089, Control_c, 0, 64, 26
2,195104, Control_c, 0, 64, 28
2,195119, Control_c, 0, 64, 29
2,195179, Control_c, 0, 64, 28
2,195195, Control_c, 0, 64, 27
2,195225, Control_c, 0, 64, 24
2,195240, Control_c, 0, 64, 19
2,195257, Note_on_c, 0, 65, 84
2,195264, Control_c, 0, 64, 10
2,195279, Control_c, 0, 64, 0
2,195359, Note_on_c, 0, 66, 0
2,195629, Note_on_c, 0, 56, 0
2,195950, Note_on_c, 0, 66, 84
2,195956, Note_on_c, 0, 54, 79
2,195961, Note_on_c, 0, 42, 77
2,196034, Note_on_c, 0, 37, 0
2,196098, Note_on_c, 0, 49, 0
2,196108, Note_on_c, 0, 65, 0
2,198822, Note_on_c, 0, 42, 0
2,198845, Note_on_c, 0, 54, 0
2,198912, Note_on_c, 0, 66, 0
2,198913, End_track
0, 0, End_of_file
