0, 0, Header, 1, 2, 384
1, 0, Start_track
1, 0, Tempo, 500000
1, 0, Time_signature, 4, 2, 24, 8
1, 1, End_track
2, 0, Start_track
2, 0, Title_t," ""Khmara04-07.MID"""
2, 0, Program_c, 0, 0
2, 786, Note_on_c, 0, 78, 52
2, 801, Note_on_c, 0, 54, 38
2, 1342, Note_on_c, 0, 57, 39
2, 1355, Note_on_c, 0, 73, 51
2, 1737, Note_on_c, 0, 78, 0
2, 1840, Note_on_c, 0, 61, 45
2, 2055, Note_on_c, 0, 57, 0
2, 2363, Note_on_c, 0, 69, 49
2, 2379, Note_on_c, 0, 66, 39
2, 2586, Note_on_c, 0, 61, 0
2, 2627, Note_on_c, 0, 56, 45
2, 2627, Note_on_c, 0, 71, 57
2, 2716, Note_on_c, 0, 73, 0
2, 2816, Note_on_c, 0, 69, 0
2, 2924, Note_on_c, 0, 73, 55
2, 2941, Note_on_c, 0, 57, 40
2, 2985, Note_on_c, 0, 71, 0
2, 3093, Note_on_c, 0, 54, 0
2, 3101, Note_on_c, 0, 56, 0
2, 3113, Note_on_c, 0, 71, 59
2, 3182, Note_on_c, 0, 66, 0
2, 3196, Note_on_c, 0, 73, 0
2, 3252, Note_on_c, 0, 69, 62
2, 3316, Note_on_c, 0, 71, 0
2, 3411, Note_on_c, 0, 61, 50
2, 3423, Note_on_c, 0, 71, 52
2, 3431, Note_on_c, 0, 65, 48
2, 3454, Note_on_c, 0, 69, 0
2, 3574, Note_on_c, 0, 69, 71
2, 3656, Note_on_c, 0, 71, 0
2, 3688, Note_on_c, 0, 65, 0
2, 3727, Note_on_c, 0, 68, 66
2, 3767, Note_on_c, 0, 57, 0
2, 3815, Note_on_c, 0, 69, 0
2, 3950, Note_on_c, 0, 69, 62
2, 3957, Note_on_c, 0, 66, 61
2, 3971, Note_on_c, 0, 54, 49
2, 4043, Note_on_c, 0, 68, 0
2, 4170, Note_on_c, 0, 61, 0
2, 4226, Note_on_c, 0, 71, 56
2, 4311, Note_on_c, 0, 69, 0
2, 4482, Note_on_c, 0, 69, 51
2, 4491, Note_on_c, 0, 61, 55
2, 4639, Note_on_c, 0, 71, 0
2, 4705, Note_on_c, 0, 68, 60
2, 4777, Note_on_c, 0, 69, 0
2, 4946, Note_on_c, 0, 69, 50
2, 4965, Note_on_c, 0, 68, 0
2, 5024, Note_on_c, 0, 66, 0
2, 5175, Note_on_c, 0, 73, 58
2, 5320, Note_on_c, 0, 69, 0
2, 5424, Note_on_c, 0, 78, 62
2, 5432, Note_on_c, 0, 57, 43
2, 5589, Note_on_c, 0, 73, 0
2, 5658, Note_on_c, 0, 80, 64
2, 5660, Note_on_c, 0, 59, 52
2, 5663, Note_on_c, 0, 61, 0
2, 5738, Note_on_c, 0, 78, 0
2, 5756, Note_on_c, 0, 57, 0
2, 5892, Note_on_c, 0, 81, 65
2, 5898, Note_on_c, 0, 61, 52
2, 5944, Note_on_c, 0, 59, 0
2, 5953, Note_on_c, 0, 80, 0
2, 6062, Note_on_c, 0, 80, 72
2, 6070, Note_on_c, 0, 59, 57
2, 6104, Note_on_c, 0, 61, 0
2, 6201, Note_on_c, 0, 78, 70
2, 6201, Note_on_c, 0, 81, 0
2, 6203, Note_on_c, 0, 57, 56
2, 6222, Note_on_c, 0, 59, 0
2, 6260, Note_on_c, 0, 80, 0
2, 6346, Note_on_c, 0, 57, 0
2, 6355, Note_on_c, 0, 59, 51
2, 6355, Note_on_c, 0, 80, 67
2, 6377, Note_on_c, 0, 78, 0
2, 6514, Note_on_c, 0, 78, 65
2, 6525, Note_on_c, 0, 57, 51
2, 6528, Note_on_c, 0, 59, 0
2, 6670, Note_on_c, 0, 77, 52
2, 6677, Note_on_c, 0, 56, 49
2, 6703, Note_on_c, 0, 57, 0
2, 6710, Note_on_c, 0, 80, 0
2, 6716, Note_on_c, 0, 78, 0
2, 6897, Note_on_c, 0, 57, 44
2, 6900, Note_on_c, 0, 78, 61
2, 6989, Note_on_c, 0, 77, 0
2, 7009, Note_on_c, 0, 56, 0
2, 7187, Note_on_c, 0, 73, 53
2, 7381, Note_on_c, 0, 78, 0
2, 7439, Note_on_c, 0, 59, 41
2, 7444, Note_on_c, 0, 56, 41
2, 7581, Note_on_c, 0, 57, 0
2, 7661, Note_on_c, 0, 54, 0
2, 7670, Note_on_c, 0, 77, 60
2, 7930, Note_on_c, 0, 73, 0
2, 7930, Note_on_c, 0, 78, 66
2, 7953, Note_on_c, 0, 57, 39
2, 7954, Note_on_c, 0, 61, 41
2, 8028, Note_on_c, 0, 56, 0
2, 8041, Note_on_c, 0, 59, 0
2, 8058, Note_on_c, 0, 77, 0
2, 8191, Note_on_c, 0, 73, 62
2, 8217, Note_on_c, 0, 61, 0
2, 8422, Note_on_c, 0, 59, 47
2, 8422, Note_on_c, 0, 78, 0
2, 8426, Note_on_c, 0, 68, 51
2, 8555, Note_on_c, 0, 57, 0
2, 8646, Note_on_c, 0, 77, 61
2, 8746, Note_on_c, 0, 68, 0
2, 8887, Note_on_c, 0, 78, 66
2, 8902, Note_on_c, 0, 73, 0
2, 8903, Note_on_c, 0, 66, 57
2, 8912, Note_on_c, 0, 57, 46
2, 8983, Note_on_c, 0, 77, 0
2, 9123, Note_on_c, 0, 73, 65
2, 9205, Note_on_c, 0, 78, 0
2, 9235, Note_on_c, 0, 66, 0
2, 9343, Note_on_c, 0, 78, 71
2, 9352, Note_on_c, 0, 65, 47
2, 9355, Note_on_c, 0, 56, 50
2, 9465, Note_on_c, 0, 57, 0
2, 9530, Note_on_c, 0, 73, 0
2, 9578, Note_on_c, 0, 80, 73
2, 9620, Note_on_c, 0, 65, 0
2, 9657, Note_on_c, 0, 78, 0
2, 9823, Note_on_c, 0, 66, 50
2, 9826, Note_on_c, 0, 81, 69
2, 9840, Note_on_c, 0, 54, 45
2, 9879, Note_on_c, 0, 56, 0
2, 9898, Note_on_c, 0, 59, 0
2, 9910, Note_on_c, 0, 80, 0
2, 10051, Note_on_c, 0, 77, 67
2, 10106, Note_on_c, 0, 66, 0
2, 10135, Note_on_c, 0, 81, 0
2, 10289, Note_on_c, 0, 78, 71
2, 10295, Note_on_c, 0, 61, 46
2, 10309, Note_on_c, 0, 52, 53
2, 10415, Note_on_c, 0, 77, 0
2, 10522, Note_on_c, 0, 81, 69
2, 10537, Note_on_c, 0, 61, 0
2, 10543, Note_on_c, 0, 54, 0
2, 10589, Note_on_c, 0, 78, 0
2, 10832, Note_on_c, 0, 71, 50
2, 10835, Note_on_c, 0, 54, 46
2, 10854, Note_on_c, 0, 50, 47
2, 10920, Note_on_c, 0, 81, 0
2, 10978, Note_on_c, 0, 52, 0
2, 11117, Note_on_c, 0, 81, 61
2, 11208, Note_on_c, 0, 71, 0
2, 11379, Note_on_c, 0, 80, 59
2, 11380, Note_on_c, 0, 53, 44
2, 11449, Note_on_c, 0, 81, 0
2, 11529, Note_on_c, 0, 54, 0
2, 11608, Note_on_c, 0, 81, 58
2, 11656, Note_on_c, 0, 80, 0
2, 11849, Note_on_c, 0, 83, 57
2, 11856, Note_on_c, 0, 54, 38
2, 11886, Note_on_c, 0, 81, 0
2, 12004, Note_on_c, 0, 53, 0
2, 12007, Note_on_c, 0, 81, 65
2, 12130, Note_on_c, 0, 80, 64
2, 12153, Note_on_c, 0, 81, 0
2, 12159, Note_on_c, 0, 83, 0
2, 12279, Note_on_c, 0, 81, 69
2, 12296, Note_on_c, 0, 59, 45
2, 12299, Note_on_c, 0, 80, 0
2, 12418, Note_on_c, 0, 80, 68
2, 12433, Note_on_c, 0, 54, 0
2, 12569, Note_on_c, 0, 78, 69
2, 12715, Note_on_c, 0, 78, 0
2, 12797, Note_on_c, 0, 49, 48
2, 12807, Note_on_c, 0, 77, 56
2, 12944, Note_on_c, 0, 81, 0
2, 12962, Note_on_c, 0, 50, 0
2, 13060, Note_on_c, 0, 59, 0
2, 13098, Note_on_c, 0, 72, 53
2, 13178, Note_on_c, 0, 77, 0
2, 13206, Note_on_c, 0, 80, 0
2, 13337, Note_on_c, 0, 56, 44
2, 13546, Note_on_c, 0, 73, 62
2, 13780, Note_on_c, 0, 72, 0
2, 13838, Note_on_c, 0, 78, 62
2, 13846, Note_on_c, 0, 57, 41
2, 13968, Note_on_c, 0, 73, 0
2, 13969, Note_on_c, 0, 56, 0
2, 14100, Note_on_c, 0, 72, 59
2, 14292, Note_on_c, 0, 78, 0
2, 14336, Note_on_c, 0, 54, 49
2, 14562, Note_on_c, 0, 73, 62
2, 14585, Note_on_c, 0, 57, 0
2, 14712, Note_on_c, 0, 72, 0
2, 14889, Note_on_c, 0, 53, 44
2, 14892, Note_on_c, 0, 80, 56
2, 14993, Note_on_c, 0, 54, 0
2, 15052, Note_on_c, 0, 73, 0
2, 15083, Note_on_c, 0, 71, 57
2, 15123, Note_on_c, 0, 80, 0
2, 15219, Note_on_c, 0, 73, 58
2, 15250, Note_on_c, 0, 71, 0
2, 15361, Note_on_c, 0, 74, 60
2, 15397, Note_on_c, 0, 73, 0
2, 15508, Note_on_c, 0, 73, 69
2, 15660, Note_on_c, 0, 71, 64
2, 15764, Note_on_c, 0, 74, 0
2, 15773, Note_on_c, 0, 73, 0
2, 15810, Note_on_c, 0, 53, 0
2, 15848, Note_on_c, 0, 69, 62
2, 15917, Note_on_c, 0, 71, 0
2, 15993, Note_on_c, 0, 53, 47
2, 16142, Note_on_c, 0, 54, 51
2, 16180, Note_on_c, 0, 53, 0
2, 16308, Note_on_c, 0, 54, 0
2, 16309, Note_on_c, 0, 56, 50
2, 16427, Note_on_c, 0, 49, 0
2, 16452, Note_on_c, 0, 54, 52
2, 16544, Note_on_c, 0, 56, 0
2, 16608, Note_on_c, 0, 53, 56
2, 16640, Note_on_c, 0, 54, 0
2, 16760, Note_on_c, 0, 54, 71
2, 16767, Note_on_c, 0, 53, 0
2, 16912, Note_on_c, 0, 68, 65
2, 16919, Note_on_c, 0, 56, 57
2, 17021, Note_on_c, 0, 56, 0
2, 17048, Note_on_c, 0, 69, 0
2, 17057, Note_on_c, 0, 66, 69
2, 17058, Note_on_c, 0, 54, 0
2, 17063, Note_on_c, 0, 57, 57
2, 17188, Note_on_c, 0, 68, 0
2, 17226, Note_on_c, 0, 65, 67
2, 17231, Note_on_c, 0, 57, 0
2, 17235, Note_on_c, 0, 59, 54
2, 17265, Note_on_c, 0, 66, 0
2, 17379, Note_on_c, 0, 57, 51
2, 17382, Note_on_c, 0, 66, 72
2, 17460, Note_on_c, 0, 59, 0
2, 17464, Note_on_c, 0, 65, 0
2, 17536, Note_on_c, 0, 68, 68
2, 17538, Note_on_c, 0, 56, 52
2, 17582, Note_on_c, 0, 66, 0
2, 17604, Note_on_c, 0, 57, 0
2, 17743, Note_on_c, 0, 57, 44
2, 17746, Note_on_c, 0, 66, 62
2, 17822, Note_on_c, 0, 56, 0
2, 17822, Note_on_c, 0, 68, 0
2, 17922, Note_on_c, 0, 65, 60
2, 17950, Note_on_c, 0, 66, 0
2, 18075, Note_on_c, 0, 66, 66
2, 18132, Note_on_c, 0, 65, 0
2, 18308, Note_on_c, 0, 75, 57
2, 18316, Note_on_c, 0, 48, 39
2, 18374, Note_on_c, 0, 66, 0
2, 18696, Note_on_c, 0, 66, 52
2, 18760, Note_on_c, 0, 75, 0
2, 18819, Note_on_c, 0, 66, 0
2, 18942, Note_on_c, 0, 49, 37
2, 18952, Note_on_c, 0, 66, 51
2, 18980, Note_on_c, 0, 48, 0
2, 19185, Note_on_c, 0, 57, 0
2, 19259, Note_on_c, 0, 56, 41
2, 19369, Note_on_c, 0, 54, 47
2, 19406, Note_on_c, 0, 56, 0
2, 19536, Note_on_c, 0, 56, 46
2, 19568, Note_on_c, 0, 54, 0
2, 19855, Note_on_c, 0, 66, 0
2, 19867, Note_on_c, 0, 65, 47
2, 19981, Note_on_c, 0, 63, 55
2, 19983, Note_on_c, 0, 65, 0
2, 20177, Note_on_c, 0, 65, 50
2, 20212, Note_on_c, 0, 63, 0
2, 20418, Note_on_c, 0, 61, 41
2, 20470, Note_on_c, 0, 65, 0
2, 20486, Note_on_c, 0, 49, 0
2, 20581, Note_on_c, 0, 63, 47
2, 20585, Note_on_c, 0, 61, 0
2, 20742, Note_on_c, 0, 63, 0
2, 20755, Note_on_c, 0, 49, 49
2, 20769, Note_on_c, 0, 65, 53
2, 20914, Note_on_c, 0, 66, 59
2, 20955, Note_on_c, 0, 65, 0
2, 21076, Note_on_c, 0, 68, 59
2, 21092, Note_on_c, 0, 66, 0
2, 21252, Note_on_c, 0, 51, 47
2, 21254, Note_on_c, 0, 66, 55
2, 21303, Note_on_c, 0, 68, 0
2, 21385, Note_on_c, 0, 49, 0
2, 21422, Note_on_c, 0, 65, 59
2, 21448, Note_on_c, 0, 66, 0
2, 21509, Note_on_c, 0, 56, 0
2, 21568, Note_on_c, 0, 66, 69
2, 21624, Note_on_c, 0, 65, 0
2, 21728, Note_on_c, 0, 68, 66
2, 21743, Note_on_c, 0, 53, 52
2, 21769, Note_on_c, 0, 66, 0
2, 21865, Note_on_c, 0, 51, 0
2, 21888, Note_on_c, 0, 69, 66
2, 21911, Note_on_c, 0, 68, 0
2, 22043, Note_on_c, 0, 71, 64
2, 22080, Note_on_c, 0, 69, 0
2, 22269, Note_on_c, 0, 69, 56
2, 22277, Note_on_c, 0, 54, 45
2, 22328, Note_on_c, 0, 53, 0
2, 22411, Note_on_c, 0, 68, 59
2, 22430, Note_on_c, 0, 71, 0
2, 22431, Note_on_c, 0, 69, 0
2, 22548, Note_on_c, 0, 66, 57
2, 22646, Note_on_c, 0, 68, 0
2, 22844, Note_on_c, 0, 42, 49
2, 23049, Note_on_c, 0, 66, 0
2, 23067, Note_on_c, 0, 54, 0
2, 23070, Note_on_c, 0, 69, 56
2, 23223, Note_on_c, 0, 73, 32
2, 23269, Note_on_c, 0, 72, 26
2, 23324, Note_on_c, 0, 69, 0
2, 23356, Note_on_c, 0, 73, 0
2, 23380, Note_on_c, 0, 72, 0
2, 23389, Note_on_c, 0, 78, 61
2, 23411, Note_on_c, 0, 45, 50
2, 23548, Note_on_c, 0, 73, 63
2, 23563, Note_on_c, 0, 42, 0
2, 23609, Note_on_c, 0, 78, 0
2, 23706, Note_on_c, 0, 75, 71
2, 23735, Note_on_c, 0, 73, 0
2, 23881, Note_on_c, 0, 75, 0
2, 23883, Note_on_c, 0, 49, 53
2, 23884, Note_on_c, 0, 77, 69
2, 24000, Note_on_c, 0, 45, 0
2, 24024, Note_on_c, 0, 78, 70
2, 24058, Note_on_c, 0, 77, 0
2, 24176, Note_on_c, 0, 80, 71
2, 24212, Note_on_c, 0, 78, 0
2, 24346, Note_on_c, 0, 81, 69
2, 24361, Note_on_c, 0, 54, 48
2, 24392, Note_on_c, 0, 80, 0
2, 24401, Note_on_c, 0, 49, 0
2, 24505, Note_on_c, 0, 80, 73
2, 24651, Note_on_c, 0, 78, 72
2, 24705, Note_on_c, 0, 81, 0
2, 24711, Note_on_c, 0, 80, 0
2, 24808, Note_on_c, 0, 80, 71
2, 24817, Note_on_c, 0, 59, 50
2, 24851, Note_on_c, 0, 78, 0
2, 24962, Note_on_c, 0, 78, 76
2, 25118, Note_on_c, 0, 76, 62
2, 25146, Note_on_c, 0, 80, 0
2, 25230, Note_on_c, 0, 78, 0
2, 25300, Note_on_c, 0, 57, 50
2, 25307, Note_on_c, 0, 75, 62
2, 25364, Note_on_c, 0, 76, 0
2, 25469, Note_on_c, 0, 59, 0
2, 25565, Note_on_c, 0, 76, 63
2, 25644, Note_on_c, 0, 75, 0
2, 25831, Note_on_c, 0, 78, 61
2, 25835, Note_on_c, 0, 51, 47
2, 25916, Note_on_c, 0, 76, 0
2, 25919, Note_on_c, 0, 57, 0
2, 26007, Note_on_c, 0, 54, 0
2, 26093, Note_on_c, 0, 57, 44
2, 26395, Note_on_c, 0, 56, 48
2, 26419, Note_on_c, 0, 48, 43
2, 26627, Note_on_c, 0, 51, 0
2, 26637, Note_on_c, 0, 76, 56
2, 26651, Note_on_c, 0, 57, 0
2, 26784, Note_on_c, 0, 78, 0
2, 26898, Note_on_c, 0, 75, 59
2, 26902, Note_on_c, 0, 54, 45
2, 27048, Note_on_c, 0, 76, 0
2, 27073, Note_on_c, 0, 56, 0
2, 27151, Note_on_c, 0, 81, 63
2, 27236, Note_on_c, 0, 75, 0
2, 27405, Note_on_c, 0, 80, 64
2, 27417, Note_on_c, 0, 52, 48
2, 27468, Note_on_c, 0, 54, 0
2, 27577, Note_on_c, 0, 78, 66
2, 27724, Note_on_c, 0, 76, 64
2, 27754, Note_on_c, 0, 78, 0
2, 27766, Note_on_c, 0, 80, 0
2, 27881, Note_on_c, 0, 78, 67
2, 27891, Note_on_c, 0, 51, 48
2, 27908, Note_on_c, 0, 44, 52
2, 27910, Note_on_c, 0, 76, 0
2, 27959, Note_on_c, 0, 48, 0
2, 27996, Note_on_c, 0, 81, 0
2, 28025, Note_on_c, 0, 52, 0
2, 28048, Note_on_c, 0, 76, 65
2, 28100, Note_on_c, 0, 78, 0
2, 28199, Note_on_c, 0, 75, 67
2, 28236, Note_on_c, 0, 76, 0
2, 28440, Note_on_c, 0, 49, 48
2, 28441, Note_on_c, 0, 76, 61
2, 28504, Note_on_c, 0, 75, 0
2, 28543, Note_on_c, 0, 44, 0
2, 28596, Note_on_c, 0, 51, 0
2, 28725, Note_on_c, 0, 75, 62
2, 28842, Note_on_c, 0, 76, 0
2, 28992, Note_on_c, 0, 73, 54
2, 29196, Note_on_c, 0, 75, 0
2, 29237, Note_on_c, 0, 47, 44
2, 29511, Note_on_c, 0, 45, 48
2, 29731, Note_on_c, 0, 47, 0
2, 29744, Note_on_c, 0, 75, 58
2, 29850, Note_on_c, 0, 73, 0
2, 29986, Note_on_c, 0, 44, 51
2, 30001, Note_on_c, 0, 73, 62
2, 30127, Note_on_c, 0, 45, 0
2, 30234, Note_on_c, 0, 72, 60
2, 30288, Note_on_c, 0, 73, 0
2, 30477, Note_on_c, 0, 75, 0
2, 30480, Note_on_c, 0, 42, 49
2, 30485, Note_on_c, 0, 73, 65
2, 30562, Note_on_c, 0, 72, 0
2, 30678, Note_on_c, 0, 44, 0
2, 30720, Note_on_c, 0, 76, 61
2, 30721, Note_on_c, 0, 49, 0
2, 30777, Note_on_c, 0, 73, 0
2, 30948, Note_on_c, 0, 49, 50
2, 30955, Note_on_c, 0, 69, 56
2, 31172, Note_on_c, 0, 68, 60
2, 31191, Note_on_c, 0, 76, 0
2, 31241, Note_on_c, 0, 69, 0
2, 31425, Note_on_c, 0, 69, 60
2, 31433, Note_on_c, 0, 54, 49
2, 31487, Note_on_c, 0, 68, 0
2, 31565, Note_on_c, 0, 49, 0
2, 31649, Note_on_c, 0, 72, 62
2, 31709, Note_on_c, 0, 69, 0
2, 31883, Note_on_c, 0, 44, 49
2, 31891, Note_on_c, 0, 66, 63
2, 32014, Note_on_c, 0, 42, 0
2, 32109, Note_on_c, 0, 64, 61
2, 32147, Note_on_c, 0, 66, 0
2, 32180, Note_on_c, 0, 72, 0
2, 32360, Note_on_c, 0, 45, 51
2, 32371, Note_on_c, 0, 66, 57
2, 32448, Note_on_c, 0, 44, 0
2, 32470, Note_on_c, 0, 64, 0
2, 32595, Note_on_c, 0, 72, 63
2, 32633, Note_on_c, 0, 66, 0
2, 32841, Note_on_c, 0, 73, 65
2, 32843, Note_on_c, 0, 42, 49
2, 32844, Note_on_c, 0, 72, 0
2, 32959, Note_on_c, 0, 45, 0
2, 33075, Note_on_c, 0, 75, 63
2, 33116, Note_on_c, 0, 73, 0
2, 33337, Note_on_c, 0, 44, 47
2, 33345, Note_on_c, 0, 76, 55
2, 33386, Note_on_c, 0, 75, 0
2, 33489, Note_on_c, 0, 42, 0
2, 33509, Note_on_c, 0, 75, 60
2, 33553, Note_on_c, 0, 54, 0
2, 33643, Note_on_c, 0, 76, 0
2, 33648, Note_on_c, 0, 73, 62
2, 33669, Note_on_c, 0, 75, 0
2, 33809, Note_on_c, 0, 75, 63
2, 33816, Note_on_c, 0, 54, 48
2, 33828, Note_on_c, 0, 73, 0
2, 33947, Note_on_c, 0, 73, 67
2, 34124, Note_on_c, 0, 72, 61
2, 34161, Note_on_c, 0, 75, 0
2, 34174, Note_on_c, 0, 73, 0
2, 34392, Note_on_c, 0, 73, 64
2, 34395, Note_on_c, 0, 49, 49
2, 34492, Note_on_c, 0, 72, 0
2, 34507, Note_on_c, 0, 44, 0
2, 34608, Note_on_c, 0, 54, 0
2, 34938, Note_on_c, 0, 68, 58
2, 34944, Note_on_c, 0, 52, 40
2, 35184, Note_on_c, 0, 73, 0
2, 35444, Note_on_c, 0, 56, 42
2, 35665, Note_on_c, 0, 52, 0
2, 35938, Note_on_c, 0, 61, 37
2, 35938, Note_on_c, 0, 64, 44
2, 36077, Note_on_c, 0, 56, 0
2, 36174, Note_on_c, 0, 66, 53
2, 36191, Note_on_c, 0, 51, 41
2, 36248, Note_on_c, 0, 68, 0
2, 36282, Note_on_c, 0, 64, 0
2, 36462, Note_on_c, 0, 68, 56
2, 36472, Note_on_c, 0, 52, 42
2, 36487, Note_on_c, 0, 66, 0
2, 36579, Note_on_c, 0, 51, 0
2, 36594, Note_on_c, 0, 49, 0
2, 36623, Note_on_c, 0, 66, 57
2, 36707, Note_on_c, 0, 68, 0
2, 36752, Note_on_c, 0, 61, 0
2, 36775, Note_on_c, 0, 64, 52
2, 36821, Note_on_c, 0, 66, 0
2, 36927, Note_on_c, 0, 56, 43
2, 36931, Note_on_c, 0, 66, 64
2, 36936, Note_on_c, 0, 60, 40
2, 36940, Note_on_c, 0, 64, 0
2, 37073, Note_on_c, 0, 64, 61
2, 37142, Note_on_c, 0, 66, 0
2, 37147, Note_on_c, 0, 60, 0
2, 37157, Note_on_c, 0, 52, 0
2, 37230, Note_on_c, 0, 63, 65
2, 37288, Note_on_c, 0, 64, 0
2, 37478, Note_on_c, 0, 61, 62
2, 37478, Note_on_c, 0, 64, 57
2, 37487, Note_on_c, 0, 49, 49
2, 37560, Note_on_c, 0, 63, 0
2, 37618, Note_on_c, 0, 56, 0
2, 37725, Note_on_c, 0, 66, 58
2, 37777, Note_on_c, 0, 64, 0
2, 37986, Note_on_c, 0, 64, 53
2, 37997, Note_on_c, 0, 56, 60
2, 38098, Note_on_c, 0, 66, 0
2, 38208, Note_on_c, 0, 63, 60
2, 38251, Note_on_c, 0, 64, 0
2, 38294, Note_on_c, 0, 61, 0
2, 38447, Note_on_c, 0, 63, 0
2, 38461, Note_on_c, 0, 64, 58
2, 38696, Note_on_c, 0, 68, 59
2, 38703, Note_on_c, 0, 54, 53
2, 38772, Note_on_c, 0, 56, 0
2, 38778, Note_on_c, 0, 64, 0
2, 38938, Note_on_c, 0, 73, 64
2, 38939, Note_on_c, 0, 52, 56
2, 38942, Note_on_c, 0, 54, 0
2, 38957, Note_on_c, 0, 49, 0
2, 38979, Note_on_c, 0, 68, 0
2, 39157, Note_on_c, 0, 75, 65
2, 39160, Note_on_c, 0, 73, 0
2, 39167, Note_on_c, 0, 47, 53
2, 39408, Note_on_c, 0, 46, 60
2, 39420, Note_on_c, 0, 76, 67
2, 39434, Note_on_c, 0, 75, 0
2, 39506, Note_on_c, 0, 47, 0
2, 39580, Note_on_c, 0, 79, 67
2, 39614, Note_on_c, 0, 76, 0
2, 39666, Note_on_c, 0, 52, 0
2, 39714, Note_on_c, 0, 78, 75
2, 39876, Note_on_c, 0, 49, 56
2, 39880, Note_on_c, 0, 76, 69
2, 39887, Note_on_c, 0, 52, 47
2, 39935, Note_on_c, 0, 79, 0
2, 39965, Note_on_c, 0, 78, 0
2, 40014, Note_on_c, 0, 76, 0
2, 40017, Note_on_c, 0, 74, 67
2, 40143, Note_on_c, 0, 73, 65
2, 40161, Note_on_c, 0, 74, 0
2, 40348, Note_on_c, 0, 71, 66
2, 40362, Note_on_c, 0, 42, 55
2, 40383, Note_on_c, 0, 73, 0
2, 40481, Note_on_c, 0, 46, 0
2, 40498, Note_on_c, 0, 70, 69
2, 40501, Note_on_c, 0, 71, 0
2, 40504, Note_on_c, 0, 49, 0
2, 40601, Note_on_c, 0, 52, 0
2, 40637, Note_on_c, 0, 73, 67
2, 40673, Note_on_c, 0, 70, 0
2, 40865, Note_on_c, 0, 64, 60
2, 40888, Note_on_c, 0, 49, 47
2, 40962, Note_on_c, 0, 73, 0
2, 41349, Note_on_c, 0, 54, 46
2, 41455, Note_on_c, 0, 66, 60
2, 41465, Note_on_c, 0, 64, 0
2, 41479, Note_on_c, 0, 49, 0
2, 41563, Note_on_c, 0, 66, 0
2, 41568, Note_on_c, 0, 64, 55
2, 41655, Note_on_c, 0, 64, 0
2, 41664, Note_on_c, 0, 62, 60
2, 41841, Note_on_c, 0, 49, 45
2, 41850, Note_on_c, 0, 64, 56
2, 41877, Note_on_c, 0, 62, 0
2, 42008, Note_on_c, 0, 64, 0
2, 42054, Note_on_c, 0, 42, 0
2, 42170, Note_on_c, 0, 64, 47
2, 42416, Note_on_c, 0, 46, 46
2, 42574, Note_on_c, 0, 49, 0
2, 42667, Note_on_c, 0, 70, 54
2, 42784, Note_on_c, 0, 64, 0
2, 42924, Note_on_c, 0, 71, 49
2, 42925, Note_on_c, 0, 42, 46
2, 43021, Note_on_c, 0, 70, 0
2, 43024, Note_on_c, 0, 46, 0
2, 43150, Note_on_c, 0, 73, 56
2, 43170, Note_on_c, 0, 71, 0
2, 43431, Note_on_c, 0, 47, 40
2, 43434, Note_on_c, 0, 62, 43
2, 43452, Note_on_c, 0, 73, 0
2, 43519, Note_on_c, 0, 42, 0
2, 43627, Note_on_c, 0, 54, 0
2, 43696, Note_on_c, 0, 62, 0
2, 43705, Note_on_c, 0, 64, 44
2, 43921, Note_on_c, 0, 54, 47
2, 43938, Note_on_c, 0, 62, 51
2, 43983, Note_on_c, 0, 64, 0
2, 44151, Note_on_c, 0, 61, 59
2, 44192, Note_on_c, 0, 62, 0
2, 44410, Note_on_c, 0, 62, 59
2, 44412, Note_on_c, 0, 59, 48
2, 44418, Note_on_c, 0, 61, 0
2, 44480, Note_on_c, 0, 54, 0
2, 44626, Note_on_c, 0, 54, 50
2, 44628, Note_on_c, 0, 66, 65
2, 44719, Note_on_c, 0, 62, 0
2, 44878, Note_on_c, 0, 50, 49
2, 44879, Note_on_c, 0, 71, 59
2, 44936, Note_on_c, 0, 54, 0
2, 44942, Note_on_c, 0, 66, 0
2, 45057, Note_on_c, 0, 59, 0
2, 45101, Note_on_c, 0, 73, 68
2, 45104, Note_on_c, 0, 54, 57
2, 45145, Note_on_c, 0, 71, 0
2, 45247, Note_on_c, 0, 47, 0
2, 45299, Note_on_c, 0, 50, 0
2, 45318, Note_on_c, 0, 73, 0
2, 45328, Note_on_c, 0, 74, 71
2, 45472, Note_on_c, 0, 78, 75
2, 45510, Note_on_c, 0, 74, 0
2, 45519, Note_on_c, 0, 50, 55
2, 45619, Note_on_c, 0, 76, 71
2, 45719, Note_on_c, 0, 78, 0
2, 45771, Note_on_c, 0, 74, 71
2, 45774, Note_on_c, 0, 76, 0
2, 45776, Note_on_c, 0, 44, 62
2, 45861, Note_on_c, 0, 50, 0
2, 45916, Note_on_c, 0, 73, 67
2, 45949, Note_on_c, 0, 74, 0
2, 46017, Note_on_c, 0, 47, 61
2, 46037, Note_on_c, 0, 44, 0
2, 46090, Note_on_c, 0, 54, 0
2, 46096, Note_on_c, 0, 71, 76
2, 46153, Note_on_c, 0, 73, 0
2, 46323, Note_on_c, 0, 40, 60
2, 46325, Note_on_c, 0, 69, 76
2, 46347, Note_on_c, 0, 71, 0
2, 46481, Note_on_c, 0, 47, 0
2, 46504, Note_on_c, 0, 68, 76
2, 46517, Note_on_c, 0, 69, 0
2, 46653, Note_on_c, 0, 71, 74
2, 46685, Note_on_c, 0, 68, 0
2, 46818, Note_on_c, 0, 47, 54
2, 46822, Note_on_c, 0, 62, 67
2, 46937, Note_on_c, 0, 71, 0
2, 47289, Note_on_c, 0, 52, 55
2, 47394, Note_on_c, 0, 64, 69
2, 47395, Note_on_c, 0, 47, 0
2, 47408, Note_on_c, 0, 62, 0
2, 47496, Note_on_c, 0, 62, 71
2, 47508, Note_on_c, 0, 64, 0
2, 47588, Note_on_c, 0, 61, 72
2, 47614, Note_on_c, 0, 62, 0
2, 47778, Note_on_c, 0, 47, 52
2, 47787, Note_on_c, 0, 62, 70
2, 47843, Note_on_c, 0, 61, 0
2, 47957, Note_on_c, 0, 62, 0
2, 48001, Note_on_c, 0, 40, 0
2, 48073, Note_on_c, 0, 62, 75
2, 48318, Note_on_c, 0, 44, 56
2, 48512, Note_on_c, 0, 47, 0
2, 48541, Note_on_c, 0, 68, 67
2, 48621, Note_on_c, 0, 62, 0
2, 48817, Note_on_c, 0, 40, 53
2, 48824, Note_on_c, 0, 69, 65
2, 48870, Note_on_c, 0, 68, 0
2, 48906, Note_on_c, 0, 44, 0
2, 49061, Note_on_c, 0, 71, 66
2, 49069, Note_on_c, 0, 69, 0
2, 49343, Note_on_c, 0, 61, 52
2, 49350, Note_on_c, 0, 45, 39
2, 49378, Note_on_c, 0, 71, 0
2, 49421, Note_on_c, 0, 40, 0
2, 49606, Note_on_c, 0, 52, 0
2, 49625, Note_on_c, 0, 62, 50
2, 49654, Note_on_c, 0, 61, 0
2, 49862, Note_on_c, 0, 52, 43
2, 49865, Note_on_c, 0, 61, 52
2, 49910, Note_on_c, 0, 62, 0
2, 50084, Note_on_c, 0, 59, 47
2, 50110, Note_on_c, 0, 61, 0
2, 50329, Note_on_c, 0, 61, 52
2, 50345, Note_on_c, 0, 59, 0
2, 50351, Note_on_c, 0, 57, 36
2, 50444, Note_on_c, 0, 52, 0
2, 50564, Note_on_c, 0, 61, 0
2, 50577, Note_on_c, 0, 64, 57
2, 50823, Note_on_c, 0, 56, 44
2, 50824, Note_on_c, 0, 69, 58
2, 50875, Note_on_c, 0, 64, 0
2, 51006, Note_on_c, 0, 57, 0
2, 51057, Note_on_c, 0, 71, 57
2, 51135, Note_on_c, 0, 69, 0
2, 51352, Note_on_c, 0, 73, 62
2, 51365, Note_on_c, 0, 57, 39
2, 51409, Note_on_c, 0, 56, 0
2, 51439, Note_on_c, 0, 71, 0
2, 51623, Note_on_c, 0, 52, 21
2, 51642, Note_on_c, 0, 45, 0
2, 51846, Note_on_c, 0, 49, 47
2, 52020, Note_on_c, 0, 52, 0
2, 52069, Note_on_c, 0, 45, 54
2, 52135, Note_on_c, 0, 49, 0
2, 52322, Note_on_c, 0, 50, 56
2, 52371, Note_on_c, 0, 45, 0
2, 52543, Note_on_c, 0, 57, 0
2, 52559, Note_on_c, 0, 67, 60
2, 52633, Note_on_c, 0, 73, 0
2, 52787, Note_on_c, 0, 57, 50
2, 52795, Note_on_c, 0, 66, 68
2, 52830, Note_on_c, 0, 67, 0
2, 53000, Note_on_c, 0, 64, 71
2, 53037, Note_on_c, 0, 66, 0
2, 53258, Note_on_c, 0, 66, 74
2, 53272, Note_on_c, 0, 62, 59
2, 53302, Note_on_c, 0, 64, 0
2, 53456, Note_on_c, 0, 57, 0
2, 53486, Note_on_c, 0, 69, 75
2, 53490, Note_on_c, 0, 66, 0
2, 53715, Note_on_c, 0, 74, 71
2, 53718, Note_on_c, 0, 57, 57
2, 53733, Note_on_c, 0, 54, 52
2, 53780, Note_on_c, 0, 69, 0
2, 53878, Note_on_c, 0, 62, 0
2, 53928, Note_on_c, 0, 76, 80
2, 54064, Note_on_c, 0, 74, 0
2, 54210, Note_on_c, 0, 78, 81
2, 54228, Note_on_c, 0, 51, 60
2, 54271, Note_on_c, 0, 50, 0
2, 54306, Note_on_c, 0, 76, 0
2, 54321, Note_on_c, 0, 57, 0
2, 54366, Note_on_c, 0, 54, 0
2, 54443, Note_on_c, 0, 57, 63
2, 54673, Note_on_c, 0, 47, 69
2, 54720, Note_on_c, 0, 51, 0
2, 54881, Note_on_c, 0, 51, 65
2, 55055, Note_on_c, 0, 47, 0
2, 55150, Note_on_c, 0, 52, 68
2, 55166, Note_on_c, 0, 56, 56
2, 55219, Note_on_c, 0, 57, 0
2, 55265, Note_on_c, 0, 51, 0
2, 55366, Note_on_c, 0, 69, 73
2, 55394, Note_on_c, 0, 78, 0
2, 55604, Note_on_c, 0, 68, 75
2, 55618, Note_on_c, 0, 59, 55
2, 55658, Note_on_c, 0, 69, 0
2, 55809, Note_on_c, 0, 66, 78
2, 55817, Note_on_c, 0, 56, 0
2, 55880, Note_on_c, 0, 68, 0
2, 56070, Note_on_c, 0, 64, 57
2, 56073, Note_on_c, 0, 68, 72
2, 56130, Note_on_c, 0, 66, 0
2, 56277, Note_on_c, 0, 68, 0
2, 56284, Note_on_c, 0, 59, 0
2, 56296, Note_on_c, 0, 71, 73
2, 56513, Note_on_c, 0, 76, 73
2, 56519, Note_on_c, 0, 59, 67
2, 56582, Note_on_c, 0, 71, 0
2, 56715, Note_on_c, 0, 80, 82
2, 56778, Note_on_c, 0, 76, 0
2, 56781, Note_on_c, 0, 64, 0
2, 56971, Note_on_c, 0, 83, 75
2, 56975, Note_on_c, 0, 56, 67
2, 57076, Note_on_c, 0, 80, 0
2, 57116, Note_on_c, 0, 59, 0
2, 57202, Note_on_c, 0, 74, 69
2, 57237, Note_on_c, 0, 52, 0
2, 57264, Note_on_c, 0, 83, 0
2, 57431, Note_on_c, 0, 73, 75
2, 57449, Note_on_c, 0, 52, 70
2, 57467, Note_on_c, 0, 74, 0
2, 57631, Note_on_c, 0, 56, 0
2, 57660, Note_on_c, 0, 71, 75
2, 57711, Note_on_c, 0, 73, 0
2, 57930, Note_on_c, 0, 73, 76
2, 57931, Note_on_c, 0, 57, 67
2, 57938, Note_on_c, 0, 45, 65
2, 57973, Note_on_c, 0, 52, 0
2, 58100, Note_on_c, 0, 71, 0
2, 58165, Note_on_c, 0, 78, 76
2, 58238, Note_on_c, 0, 73, 0
2, 58265, Note_on_c, 0, 45, 0
2, 58383, Note_on_c, 0, 56, 66
2, 58383, Note_on_c, 0, 76, 73
2, 58386, Note_on_c, 0, 47, 68
2, 58521, Note_on_c, 0, 57, 0
2, 58558, Note_on_c, 0, 78, 0
2, 58598, Note_on_c, 0, 75, 77
2, 58616, Note_on_c, 0, 76, 0
2, 58858, Note_on_c, 0, 76, 72
2, 58864, Note_on_c, 0, 49, 67
2, 58895, Note_on_c, 0, 75, 0
2, 58901, Note_on_c, 0, 47, 0
2, 58959, Note_on_c, 0, 56, 0
2, 59089, Note_on_c, 0, 73, 72
2, 59093, Note_on_c, 0, 57, 58
2, 59235, Note_on_c, 0, 49, 0
2, 59321, Note_on_c, 0, 71, 66
2, 59322, Note_on_c, 0, 50, 56
2, 59439, Note_on_c, 0, 57, 0
2, 59490, Note_on_c, 0, 73, 0
2, 59506, Note_on_c, 0, 76, 0
2, 59546, Note_on_c, 0, 69, 67
2, 59548, Note_on_c, 0, 59, 49
2, 59594, Note_on_c, 0, 71, 0
2, 59790, Note_on_c, 0, 69, 0
2, 59791, Note_on_c, 0, 73, 57
2, 59797, Note_on_c, 0, 52, 52
2, 59874, Note_on_c, 0, 59, 0
2, 59907, Note_on_c, 0, 50, 0
2, 60038, Note_on_c, 0, 57, 44
2, 60038, Note_on_c, 0, 64, 51
2, 60078, Note_on_c, 0, 73, 0
2, 60103, Note_on_c, 0, 52, 0
2, 60288, Note_on_c, 0, 52, 45
2, 60291, Note_on_c, 0, 71, 55
2, 60315, Note_on_c, 0, 64, 0
2, 60370, Note_on_c, 0, 57, 0
2, 60531, Note_on_c, 0, 56, 49
2, 60533, Note_on_c, 0, 62, 52
2, 60628, Note_on_c, 0, 71, 0
2, 60664, Note_on_c, 0, 52, 0
2, 60833, Note_on_c, 0, 61, 50
2, 60858, Note_on_c, 0, 57, 41
2, 60888, Note_on_c, 0, 62, 0
2, 60918, Note_on_c, 0, 56, 0
2, 61118, Note_on_c, 0, 64, 46
2, 61171, Note_on_c, 0, 61, 0
2, 61423, Note_on_c, 0, 69, 44
2, 61450, Note_on_c, 0, 64, 0
2, 61667, Note_on_c, 0, 52, 38
2, 61921, Note_on_c, 0, 49, 37
2, 61925, Note_on_c, 0, 57, 0
2, 62026, Note_on_c, 0, 52, 0
2, 62139, Note_on_c, 0, 69, 0
2, 62153, Note_on_c, 0, 64, 42
2, 62165, Note_on_c, 0, 45, 42
2, 62231, Note_on_c, 0, 49, 0
2, 62377, Note_on_c, 0, 49, 44
2, 62395, Note_on_c, 0, 69, 50
2, 62503, Note_on_c, 0, 64, 0
2, 62518, Note_on_c, 0, 45, 0
2, 62613, Note_on_c, 0, 52, 49
2, 62617, Note_on_c, 0, 71, 53
2, 62678, Note_on_c, 0, 69, 0
2, 62741, Note_on_c, 0, 49, 0
2, 62867, Note_on_c, 0, 57, 45
2, 62867, Note_on_c, 0, 73, 49
2, 62872, Note_on_c, 0, 52, 0
2, 62927, Note_on_c, 0, 71, 0
2, 63109, Note_on_c, 0, 69, 48
2, 63225, Note_on_c, 0, 73, 0
2, 63379, Note_on_c, 0, 60, 38
2, 63383, Note_on_c, 0, 66, 48
2, 63386, Note_on_c, 0, 69, 0
2, 63636, Note_on_c, 0, 75, 54
2, 63852, Note_on_c, 0, 66, 0
2, 63966, Note_on_c, 0, 59, 34
2, 63966, Note_on_c, 0, 76, 47
2, 63985, Note_on_c, 0, 55, 42
2, 64025, Note_on_c, 0, 75, 0
2, 64082, Note_on_c, 0, 60, 0
2, 64123, Note_on_c, 0, 57, 0
2, 64296, Note_on_c, 0, 71, 41
2, 64421, Note_on_c, 0, 76, 0
2, 64510, Note_on_c, 0, 57, 39
2, 64526, Note_on_c, 0, 54, 42
2, 64565, Note_on_c, 0, 59, 0
2, 64645, Note_on_c, 0, 55, 0
2, 64716, Note_on_c, 0, 75, 61
2, 64819, Note_on_c, 0, 71, 0
2, 64995, Note_on_c, 0, 55, 34
2, 64999, Note_on_c, 0, 76, 56
2, 65004, Note_on_c, 0, 52, 46
2, 65065, Note_on_c, 0, 75, 0
2, 65097, Note_on_c, 0, 57, 0
2, 65132, Note_on_c, 0, 54, 0
2, 65240, Note_on_c, 0, 71, 60
2, 65241, Note_on_c, 0, 55, 0
2, 65395, Note_on_c, 0, 76, 0
2, 65458, Note_on_c, 0, 55, 45
2, 65465, Note_on_c, 0, 59, 42
2, 65557, Note_on_c, 0, 52, 0
2, 65687, Note_on_c, 0, 59, 0
2, 65688, Note_on_c, 0, 75, 64
2, 65789, Note_on_c, 0, 71, 0
2, 65951, Note_on_c, 0, 61, 48
2, 65960, Note_on_c, 0, 49, 45
2, 65969, Note_on_c, 0, 76, 60
2, 66097, Note_on_c, 0, 55, 0
2, 66098, Note_on_c, 0, 75, 0
2, 66185, Note_on_c, 0, 71, 58
2, 66393, Note_on_c, 0, 76, 0
2, 66403, Note_on_c, 0, 70, 64
2, 66411, Note_on_c, 0, 54, 47
2, 66461, Note_on_c, 0, 71, 0
2, 66585, Note_on_c, 0, 61, 0
2, 66642, Note_on_c, 0, 76, 62
2, 66706, Note_on_c, 0, 70, 0
2, 66937, Note_on_c, 0, 74, 51
2, 66961, Note_on_c, 0, 59, 40
2, 67051, Note_on_c, 0, 54, 0
2, 67128, Note_on_c, 0, 49, 0
2, 67192, Note_on_c, 0, 73, 53
2, 67306, Note_on_c, 0, 74, 0
2, 67331, Note_on_c, 0, 76, 0
2, 67495, Note_on_c, 0, 71, 34
2, 67665, Note_on_c, 0, 73, 0
2, 67752, Note_on_c, 0, 54, 26
2, 67942, Note_on_c, 0, 59, 0
2, 68003, Note_on_c, 0, 50, 44
2, 68135, Note_on_c, 0, 54, 0
2, 68217, Note_on_c, 0, 66, 51
2, 68226, Note_on_c, 0, 47, 46
2, 68278, Note_on_c, 0, 50, 0
2, 68278, Note_on_c, 0, 71, 0
2, 68440, Note_on_c, 0, 50, 49
2, 68456, Note_on_c, 0, 71, 52
2, 68541, Note_on_c, 0, 66, 0
2, 68566, Note_on_c, 0, 47, 0
2, 68660, Note_on_c, 0, 73, 67
2, 68668, Note_on_c, 0, 54, 50
2, 68729, Note_on_c, 0, 71, 0
2, 68771, Note_on_c, 0, 50, 0
2, 68898, Note_on_c, 0, 74, 63
2, 68919, Note_on_c, 0, 59, 48
2, 68935, Note_on_c, 0, 54, 0
2, 68953, Note_on_c, 0, 73, 0
2, 69130, Note_on_c, 0, 71, 63
2, 69186, Note_on_c, 0, 74, 0
2, 69381, Note_on_c, 0, 68, 60
2, 69396, Note_on_c, 0, 62, 46
2, 69412, Note_on_c, 0, 71, 0
2, 69603, Note_on_c, 0, 77, 66
2, 69735, Note_on_c, 0, 68, 0
2, 69916, Note_on_c, 0, 78, 67
2, 69929, Note_on_c, 0, 61, 40
2, 69932, Note_on_c, 0, 57, 37
2, 69999, Note_on_c, 0, 77, 0
2, 70030, Note_on_c, 0, 62, 0
2, 70084, Note_on_c, 0, 59, 0
2, 70194, Note_on_c, 0, 73, 61
2, 70283, Note_on_c, 0, 78, 0
2, 70407, Note_on_c, 0, 59, 41
2, 70420, Note_on_c, 0, 56, 51
2, 70487, Note_on_c, 0, 57, 0
2, 70489, Note_on_c, 0, 61, 0
2, 70636, Note_on_c, 0, 77, 72
2, 70825, Note_on_c, 0, 73, 0
2, 70874, Note_on_c, 0, 57, 46
2, 70875, Note_on_c, 0, 54, 47
2, 70882, Note_on_c, 0, 78, 73
2, 70955, Note_on_c, 0, 59, 0
2, 70971, Note_on_c, 0, 77, 0
2, 71031, Note_on_c, 0, 56, 0
2, 71122, Note_on_c, 0, 73, 68
2, 71130, Note_on_c, 0, 57, 0
2, 71222, Note_on_c, 0, 78, 0
2, 71338, Note_on_c, 0, 57, 50
2, 71351, Note_on_c, 0, 61, 53
2, 71428, Note_on_c, 0, 54, 0
2, 71547, Note_on_c, 0, 77, 69
2, 71565, Note_on_c, 0, 61, 0
2, 71605, Note_on_c, 0, 73, 0
2, 71798, Note_on_c, 0, 63, 53
2, 71807, Note_on_c, 0, 78, 69
2, 71811, Note_on_c, 0, 51, 44
2, 71865, Note_on_c, 0, 77, 0
2, 71908, Note_on_c, 0, 57, 0
2, 72018, Note_on_c, 0, 73, 68
2, 72131, Note_on_c, 0, 78, 0
2, 72266, Note_on_c, 0, 72, 62
2, 72268, Note_on_c, 0, 56, 51
2, 72329, Note_on_c, 0, 73, 0
2, 72428, Note_on_c, 0, 63, 0
2, 72489, Note_on_c, 0, 78, 71
2, 72527, Note_on_c, 0, 72, 0
2, 72789, Note_on_c, 0, 76, 64
2, 72799, Note_on_c, 0, 61, 50
2, 72902, Note_on_c, 0, 56, 0
2, 72910, Note_on_c, 0, 51, 0
2, 73033, Note_on_c, 0, 75, 61
2, 73104, Note_on_c, 0, 76, 0
2, 73204, Note_on_c, 0, 78, 0
2, 73265, Note_on_c, 0, 73, 60
2, 73458, Note_on_c, 0, 75, 0
2, 73470, Note_on_c, 0, 56, 53
2, 73715, Note_on_c, 0, 52, 53
2, 73809, Note_on_c, 0, 61, 0
2, 73911, Note_on_c, 0, 49, 51
2, 73914, Note_on_c, 0, 68, 66
2, 73967, Note_on_c, 0, 73, 0
2, 73990, Note_on_c, 0, 56, 0
2, 74002, Note_on_c, 0, 52, 0
2, 74135, Note_on_c, 0, 73, 66
2, 74138, Note_on_c, 0, 52, 60
2, 74243, Note_on_c, 0, 68, 0
2, 74339, Note_on_c, 0, 75, 74
2, 74352, Note_on_c, 0, 56, 59
2, 74417, Note_on_c, 0, 73, 0
2, 74462, Note_on_c, 0, 52, 0
2, 74597, Note_on_c, 0, 76, 68
2, 74610, Note_on_c, 0, 61, 68
2, 74632, Note_on_c, 0, 49, 0
2, 74669, Note_on_c, 0, 75, 0
2, 74772, Note_on_c, 0, 56, 0
2, 74836, Note_on_c, 0, 73, 71
2, 74905, Note_on_c, 0, 76, 0
2, 75063, Note_on_c, 0, 52, 62
2, 75063, Note_on_c, 0, 70, 67
2, 75150, Note_on_c, 0, 73, 0
2, 75289, Note_on_c, 0, 79, 69
2, 75383, Note_on_c, 0, 70, 0
2, 75548, Note_on_c, 0, 78, 72
2, 75566, Note_on_c, 0, 50, 50
2, 75639, Note_on_c, 0, 52, 0
2, 75735, Note_on_c, 0, 61, 0
2, 75771, Note_on_c, 0, 74, 61
2, 75877, Note_on_c, 0, 79, 0
2, 75964, Note_on_c, 0, 78, 0
2, 75980, Note_on_c, 0, 54, 51
2, 75991, Note_on_c, 0, 71, 57
2, 76040, Note_on_c, 0, 74, 0
2, 76086, Note_on_c, 0, 50, 0
2, 76183, Note_on_c, 0, 70, 65
2, 76208, Note_on_c, 0, 71, 0
2, 76419, Note_on_c, 0, 71, 66
2, 76426, Note_on_c, 0, 50, 54
2, 76562, Note_on_c, 0, 54, 0
2, 76566, Note_on_c, 0, 70, 0
2, 76634, Note_on_c, 0, 66, 71
2, 76643, Note_on_c, 0, 71, 0
2, 76645, Note_on_c, 0, 47, 62
2, 76690, Note_on_c, 0, 50, 0
2, 76844, Note_on_c, 0, 71, 72
2, 76846, Note_on_c, 0, 50, 66
2, 76870, Note_on_c, 0, 66, 0
2, 77012, Note_on_c, 0, 47, 0
2, 77052, Note_on_c, 0, 74, 75
2, 77063, Note_on_c, 0, 54, 65
2, 77103, Note_on_c, 0, 71, 0
2, 77182, Note_on_c, 0, 50, 0
2, 77301, Note_on_c, 0, 78, 78
2, 77307, Note_on_c, 0, 59, 66
2, 77343, Note_on_c, 0, 74, 0
2, 77428, Note_on_c, 0, 54, 0
2, 77521, Note_on_c, 0, 74, 81
2, 77590, Note_on_c, 0, 78, 0
2, 77758, Note_on_c, 0, 54, 59
2, 77760, Note_on_c, 0, 72, 71
2, 77764, Note_on_c, 0, 51, 55
2, 77797, Note_on_c, 0, 74, 0
2, 77886, Note_on_c, 0, 59, 0
2, 78000, Note_on_c, 0, 81, 77
2, 78119, Note_on_c, 0, 72, 0
2, 78269, Note_on_c, 0, 80, 76
2, 78276, Note_on_c, 0, 61, 63
2, 78291, Note_on_c, 0, 52, 58
2, 78348, Note_on_c, 0, 54, 0
2, 78513, Note_on_c, 0, 76, 72
2, 78595, Note_on_c, 0, 80, 0
2, 78605, Note_on_c, 0, 51, 0
2, 78654, Note_on_c, 0, 81, 0
2, 78732, Note_on_c, 0, 73, 77
2, 78745, Note_on_c, 0, 56, 63
2, 78843, Note_on_c, 0, 52, 0
2, 78936, Note_on_c, 0, 72, 72
2, 78973, Note_on_c, 0, 73, 0
2, 79031, Note_on_c, 0, 76, 0
2, 79165, Note_on_c, 0, 73, 77
2, 79166, Note_on_c, 0, 52, 58
2, 79180, Note_on_c, 0, 72, 0
2, 79300, Note_on_c, 0, 61, 0
2, 79345, Note_on_c, 0, 56, 0
2, 79383, Note_on_c, 0, 73, 0
2, 79386, Note_on_c, 0, 68, 79
2, 79389, Note_on_c, 0, 49, 65
2, 79447, Note_on_c, 0, 52, 0
2, 79602, Note_on_c, 0, 52, 63
2, 79606, Note_on_c, 0, 73, 79
2, 79684, Note_on_c, 0, 68, 0
2, 79808, Note_on_c, 0, 76, 82
2, 79810, Note_on_c, 0, 56, 70
2, 79880, Note_on_c, 0, 52, 0
2, 79886, Note_on_c, 0, 73, 0
2, 80050, Note_on_c, 0, 80, 84
2, 80059, Note_on_c, 0, 61, 70
2, 80083, Note_on_c, 0, 76, 0
2, 80153, Note_on_c, 0, 49, 0
2, 80230, Note_on_c, 0, 56, 0
2, 80267, Note_on_c, 0, 76, 85
2, 80330, Note_on_c, 0, 80, 0
2, 80521, Note_on_c, 0, 56, 61
2, 80521, Note_on_c, 0, 74, 77
2, 80522, Note_on_c, 0, 53, 62
2, 80536, Note_on_c, 0, 76, 0
2, 80725, Note_on_c, 0, 61, 0
2, 80764, Note_on_c, 0, 83, 81
2, 80828, Note_on_c, 0, 74, 0
2, 81058, Note_on_c, 0, 81, 81
2, 81073, Note_on_c, 0, 54, 69
2, 81233, Note_on_c, 0, 56, 0
2, 81242, Note_on_c, 0, 53, 0
2, 81321, Note_on_c, 0, 83, 0
2, 81326, Note_on_c, 0, 78, 85
2, 81454, Note_on_c, 0, 81, 0
2, 81551, Note_on_c, 0, 56, 67
2, 81774, Note_on_c, 0, 77, 76
2, 81844, Note_on_c, 0, 78, 0
2, 82041, Note_on_c, 0, 78, 85
2, 82042, Note_on_c, 0, 57, 62
2, 82107, Note_on_c, 0, 56, 0
2, 82116, Note_on_c, 0, 77, 0
2, 82296, Note_on_c, 0, 74, 76
2, 82471, Note_on_c, 0, 78, 0
2, 82531, Note_on_c, 0, 56, 60
2, 82551, Note_on_c, 0, 52, 56
2, 82611, Note_on_c, 0, 54, 0
2, 82742, Note_on_c, 0, 57, 0
2, 82760, Note_on_c, 0, 73, 69
2, 82853, Note_on_c, 0, 74, 0
2, 82943, Note_on_c, 0, 73, 0
2, 83037, Note_on_c, 0, 73, 67
2, 83039, Note_on_c, 0, 51, 51
2, 83042, Note_on_c, 0, 54, 52
2, 83067, Note_on_c, 0, 52, 0
2, 83184, Note_on_c, 0, 56, 0
2, 83303, Note_on_c, 0, 72, 66
2, 83364, Note_on_c, 0, 73, 0
2, 83585, Note_on_c, 0, 56, 50
2, 83598, Note_on_c, 0, 50, 48
2, 83725, Note_on_c, 0, 51, 0
2, 83763, Note_on_c, 0, 54, 0
2, 83886, Note_on_c, 0, 78, 72
2, 83938, Note_on_c, 0, 72, 0
2, 84127, Note_on_c, 0, 78, 0
2, 84351, Note_on_c, 0, 78, 60
2, 84353, Note_on_c, 0, 57, 46
2, 84357, Note_on_c, 0, 73, 46
2, 84363, Note_on_c, 0, 49, 47
2, 84443, Note_on_c, 0, 50, 0
2, 84517, Note_on_c, 0, 56, 0
2, 85190, Note_on_c, 0, 77, 41
2, 85207, Note_on_c, 0, 56, 39
2, 85352, Note_on_c, 0, 78, 0
2, 85437, Note_on_c, 0, 57, 0
2, 86363, Note_on_c, 0, 73, 0
2, 86388, Note_on_c, 0, 77, 0
2, 86423, Note_on_c, 0, 56, 0
2, 86433, Note_on_c, 0, 49, 0
2, 87525, Note_on_c, 0, 47, 32
2, 87722, Note_on_c, 0, 49, 47
2, 87846, Note_on_c, 0, 47, 0
2, 87906, Note_on_c, 0, 50, 46
2, 87918, Note_on_c, 0, 49, 0
2, 88062, Note_on_c, 0, 49, 56
2, 88106, Note_on_c, 0, 50, 0
2, 88219, Note_on_c, 0, 47, 62
2, 88282, Note_on_c, 0, 49, 0
2, 88377, Note_on_c, 0, 45, 53
2, 88421, Note_on_c, 0, 47, 0
2, 88567, Note_on_c, 0, 47, 59
2, 88578, Note_on_c, 0, 45, 0
2, 88743, Note_on_c, 0, 45, 55
2, 88814, Note_on_c, 0, 47, 0
2, 88933, Note_on_c, 0, 44, 57
2, 89009, Note_on_c, 0, 45, 0
2, 89278, Note_on_c, 0, 42, 52
2, 89279, Note_on_c, 0, 78, 72
2, 89361, Note_on_c, 0, 44, 0
2, 89596, Note_on_c, 0, 42, 0
2, 89955, Note_on_c, 0, 73, 60
2, 89968, Note_on_c, 0, 57, 37
2, 89977, Note_on_c, 0, 54, 41
2, 90261, Note_on_c, 0, 78, 0
2, 90480, Note_on_c, 0, 61, 49
2, 90719, Note_on_c, 0, 57, 0
2, 91015, Note_on_c, 0, 69, 50
2, 91035, Note_on_c, 0, 66, 41
2, 91271, Note_on_c, 0, 71, 58
2, 91283, Note_on_c, 0, 56, 43
2, 91342, Note_on_c, 0, 73, 0
2, 91368, Note_on_c, 0, 61, 0
2, 91414, Note_on_c, 0, 69, 0
2, 91556, Note_on_c, 0, 73, 61
2, 91569, Note_on_c, 0, 57, 38
2, 91611, Note_on_c, 0, 71, 0
2, 91671, Note_on_c, 0, 54, 0
2, 91707, Note_on_c, 0, 56, 0
2, 91753, Note_on_c, 0, 71, 59
2, 91857, Note_on_c, 0, 73, 0
2, 91898, Note_on_c, 0, 69, 60
2, 91913, Note_on_c, 0, 66, 0
2, 91957, Note_on_c, 0, 71, 0
2, 92067, Note_on_c, 0, 71, 69
2, 92068, Note_on_c, 0, 65, 41
2, 92076, Note_on_c, 0, 61, 36
2, 92087, Note_on_c, 0, 69, 0
2, 92114, Note_on_c, 0, 65, 0
2, 92114, Note_on_c, 0, 65, 4
2, 92212, Note_on_c, 0, 69, 71
2, 92275, Note_on_c, 0, 71, 0
2, 92308, Note_on_c, 0, 65, 0
2, 92366, Note_on_c, 0, 68, 73
2, 92368, Note_on_c, 0, 57, 0
2, 92461, Note_on_c, 0, 69, 0
2, 92598, Note_on_c, 0, 69, 61
2, 92610, Note_on_c, 0, 66, 65
2, 92625, Note_on_c, 0, 54, 49
2, 92673, Note_on_c, 0, 68, 0
2, 92758, Note_on_c, 0, 61, 0
2, 92865, Note_on_c, 0, 71, 63
2, 92928, Note_on_c, 0, 69, 0
2, 93123, Note_on_c, 0, 61, 60
2, 93123, Note_on_c, 0, 69, 58
2, 93224, Note_on_c, 0, 71, 0
2, 93346, Note_on_c, 0, 68, 62
2, 93402, Note_on_c, 0, 69, 0
2, 93551, Note_on_c, 0, 66, 0
2, 93608, Note_on_c, 0, 69, 60
2, 93620, Note_on_c, 0, 68, 0
2, 93825, Note_on_c, 0, 73, 59
2, 93987, Note_on_c, 0, 69, 0
2, 94068, Note_on_c, 0, 78, 64
2, 94077, Note_on_c, 0, 57, 49
2, 94169, Note_on_c, 0, 73, 0
2, 94259, Note_on_c, 0, 61, 0
2, 94294, Note_on_c, 0, 80, 65
2, 94297, Note_on_c, 0, 59, 48
2, 94345, Note_on_c, 0, 78, 0
2, 94395, Note_on_c, 0, 57, 0
2, 94543, Note_on_c, 0, 61, 56
2, 94545, Note_on_c, 0, 81, 61
2, 94581, Note_on_c, 0, 59, 0
2, 94584, Note_on_c, 0, 80, 0
2, 94703, Note_on_c, 0, 80, 70
2, 94719, Note_on_c, 0, 59, 58
2, 94804, Note_on_c, 0, 61, 0
2, 94851, Note_on_c, 0, 57, 61
2, 94857, Note_on_c, 0, 78, 68
2, 94868, Note_on_c, 0, 81, 0
2, 94894, Note_on_c, 0, 59, 0
2, 94920, Note_on_c, 0, 80, 0
2, 95001, Note_on_c, 0, 57, 0
2, 95013, Note_on_c, 0, 80, 64
2, 95025, Note_on_c, 0, 59, 54
2, 95037, Note_on_c, 0, 78, 0
2, 95156, Note_on_c, 0, 78, 73
2, 95166, Note_on_c, 0, 57, 54
2, 95213, Note_on_c, 0, 59, 0
2, 95273, Note_on_c, 0, 80, 0
2, 95306, Note_on_c, 0, 56, 57
2, 95316, Note_on_c, 0, 77, 68
2, 95344, Note_on_c, 0, 57, 0
2, 95355, Note_on_c, 0, 78, 0
2, 95569, Note_on_c, 0, 78, 69
2, 95580, Note_on_c, 0, 57, 48
2, 95662, Note_on_c, 0, 77, 0
2, 95674, Note_on_c, 0, 56, 0
2, 95876, Note_on_c, 0, 73, 46
2, 96102, Note_on_c, 0, 59, 41
2, 96114, Note_on_c, 0, 56, 44
2, 96136, Note_on_c, 0, 78, 0
2, 96205, Note_on_c, 0, 57, 0
2, 96306, Note_on_c, 0, 54, 0
2, 96329, Note_on_c, 0, 77, 64
2, 96607, Note_on_c, 0, 78, 69
2, 96626, Note_on_c, 0, 73, 0
2, 96630, Note_on_c, 0, 61, 41
2, 96632, Note_on_c, 0, 57, 36
2, 96706, Note_on_c, 0, 56, 0
2, 96727, Note_on_c, 0, 77, 0
2, 96742, Note_on_c, 0, 59, 0
2, 96863, Note_on_c, 0, 73, 61
2, 97080, Note_on_c, 0, 78, 0
2, 97112, Note_on_c, 0, 59, 47
2, 97123, Note_on_c, 0, 56, 43
2, 97281, Note_on_c, 0, 57, 0
2, 97336, Note_on_c, 0, 77, 66
2, 97341, Note_on_c, 0, 61, 0
2, 97422, Note_on_c, 0, 56, 0
2, 97584, Note_on_c, 0, 73, 0
2, 97623, Note_on_c, 0, 78, 74
2, 97631, Note_on_c, 0, 57, 50
2, 97639, Note_on_c, 0, 54, 44
2, 97660, Note_on_c, 0, 77, 0
2, 97844, Note_on_c, 0, 59, 0
2, 97878, Note_on_c, 0, 74, 68
2, 97985, Note_on_c, 0, 78, 0
2, 98110, Note_on_c, 0, 73, 69
2, 98116, Note_on_c, 0, 55, 51
2, 98137, Note_on_c, 0, 52, 50
2, 98145, Note_on_c, 0, 74, 0
2, 98205, Note_on_c, 0, 54, 0
2, 98222, Note_on_c, 0, 57, 0
2, 98351, Note_on_c, 0, 82, 76
2, 98533, Note_on_c, 0, 73, 0
2, 98675, Note_on_c, 0, 54, 52
2, 98679, Note_on_c, 0, 83, 68
2, 98687, Note_on_c, 0, 50, 49
2, 98755, Note_on_c, 0, 82, 0
2, 98796, Note_on_c, 0, 52, 0
2, 98804, Note_on_c, 0, 55, 0
2, 98968, Note_on_c, 0, 78, 73
2, 99115, Note_on_c, 0, 83, 0
2, 99187, Note_on_c, 0, 52, 58
2, 99201, Note_on_c, 0, 49, 57
2, 99290, Note_on_c, 0, 54, 0
2, 99307, Note_on_c, 0, 50, 0
2, 99434, Note_on_c, 0, 82, 75
2, 99605, Note_on_c, 0, 78, 0
2, 99705, Note_on_c, 0, 83, 68
2, 99712, Note_on_c, 0, 54, 49
2, 99722, Note_on_c, 0, 50, 51
2, 99769, Note_on_c, 0, 49, 0
2, 99775, Note_on_c, 0, 52, 0
2, 99793, Note_on_c, 0, 82, 0
2, 99969, Note_on_c, 0, 78, 74
2, 100081, Note_on_c, 0, 83, 0
2, 100220, Note_on_c, 0, 61, 59
2, 100222, Note_on_c, 0, 52, 48
2, 100339, Note_on_c, 0, 50, 0
2, 100365, Note_on_c, 0, 54, 0
2, 100451, Note_on_c, 0, 82, 73
2, 100600, Note_on_c, 0, 78, 0
2, 100721, Note_on_c, 0, 54, 48
2, 100723, Note_on_c, 0, 83, 67
2, 100738, Note_on_c, 0, 50, 44
2, 100798, Note_on_c, 0, 82, 0
2, 100835, Note_on_c, 0, 52, 0
2, 100895, Note_on_c, 0, 81, 71
2, 100926, Note_on_c, 0, 61, 0
2, 101041, Note_on_c, 0, 79, 66
2, 101056, Note_on_c, 0, 83, 0
2, 101088, Note_on_c, 0, 81, 0
2, 101209, Note_on_c, 0, 81, 67
2, 101213, Note_on_c, 0, 49, 52
2, 101244, Note_on_c, 0, 79, 0
2, 101296, Note_on_c, 0, 50, 0
2, 101370, Note_on_c, 0, 79, 65
2, 101421, Note_on_c, 0, 81, 0
2, 101522, Note_on_c, 0, 78, 65
2, 101546, Note_on_c, 0, 79, 0
2, 101795, Note_on_c, 0, 79, 50
2, 101803, Note_on_c, 0, 59, 32
2, 101804, Note_on_c, 0, 47, 37
2, 101859, Note_on_c, 0, 78, 0
2, 101880, Note_on_c, 0, 54, 0
2, 101922, Note_on_c, 0, 49, 0
2, 102074, Note_on_c, 0, 47, 0
2, 102108, Note_on_c, 0, 74, 46
2, 102157, Note_on_c, 0, 59, 0
2, 102280, Note_on_c, 0, 79, 0
2, 102443, Note_on_c, 0, 59, 17
2, 102445, Note_on_c, 0, 62, 38
2, 102718, Note_on_c, 0, 78, 52
2, 102773, Note_on_c, 0, 62, 0
2, 102781, Note_on_c, 0, 59, 0
2, 102889, Note_on_c, 0, 74, 0
2, 102971, Note_on_c, 0, 79, 54
2, 102986, Note_on_c, 0, 62, 35
2, 103000, Note_on_c, 0, 59, 37
2, 103059, Note_on_c, 0, 78, 0
2, 103247, Note_on_c, 0, 74, 51
2, 103288, Note_on_c, 0, 59, 0
2, 103298, Note_on_c, 0, 62, 0
2, 103399, Note_on_c, 0, 79, 0
2, 103492, Note_on_c, 0, 62, 36
2, 103502, Note_on_c, 0, 59, 38
2, 103735, Note_on_c, 0, 78, 57
2, 103808, Note_on_c, 0, 59, 0
2, 103821, Note_on_c, 0, 62, 0
2, 103903, Note_on_c, 0, 74, 0
2, 104025, Note_on_c, 0, 79, 50
2, 104050, Note_on_c, 0, 62, 33
2, 104065, Note_on_c, 0, 59, 36
2, 104107, Note_on_c, 0, 78, 0
2, 104203, Note_on_c, 0, 81, 56
2, 104268, Note_on_c, 0, 79, 0
2, 104362, Note_on_c, 0, 59, 0
2, 104368, Note_on_c, 0, 62, 0
2, 104370, Note_on_c, 0, 83, 58
2, 104408, Note_on_c, 0, 81, 0
2, 104524, Note_on_c, 0, 81, 66
2, 104530, Note_on_c, 0, 62, 38
2, 104539, Note_on_c, 0, 59, 40
2, 104679, Note_on_c, 0, 79, 66
2, 104746, Note_on_c, 0, 83, 0
2, 104760, Note_on_c, 0, 62, 0
2, 104786, Note_on_c, 0, 81, 0
2, 104817, Note_on_c, 0, 59, 0
2, 104837, Note_on_c, 0, 78, 69
2, 104888, Note_on_c, 0, 79, 0
2, 105032, Note_on_c, 0, 61, 46
2, 105037, Note_on_c, 0, 77, 59
2, 105038, Note_on_c, 0, 59, 43
2, 105086, Note_on_c, 0, 78, 0
2, 105200, Note_on_c, 0, 78, 69
2, 105285, Note_on_c, 0, 77, 0
2, 105355, Note_on_c, 0, 80, 69
2, 105383, Note_on_c, 0, 78, 0
2, 105511, Note_on_c, 0, 78, 67
2, 105587, Note_on_c, 0, 80, 0
2, 105667, Note_on_c, 0, 77, 66
2, 105674, Note_on_c, 0, 78, 0
2, 105811, Note_on_c, 0, 75, 69
2, 105823, Note_on_c, 0, 77, 0
2, 105964, Note_on_c, 0, 73, 70
2, 105992, Note_on_c, 0, 61, 0
2, 106010, Note_on_c, 0, 59, 0
2, 106033, Note_on_c, 0, 75, 0
2, 106111, Note_on_c, 0, 71, 67
2, 106157, Note_on_c, 0, 73, 0
2, 106273, Note_on_c, 0, 73, 76
2, 106328, Note_on_c, 0, 71, 0
2, 106427, Note_on_c, 0, 56, 63
2, 106428, Note_on_c, 0, 74, 67
2, 106441, Note_on_c, 0, 53, 58
2, 106472, Note_on_c, 0, 73, 0
2, 106581, Note_on_c, 0, 73, 79
2, 106665, Note_on_c, 0, 74, 0
2, 106726, Note_on_c, 0, 71, 71
2, 106824, Note_on_c, 0, 73, 0
2, 106905, Note_on_c, 0, 69, 71
2, 106911, Note_on_c, 0, 61, 57
2, 106912, Note_on_c, 0, 54, 59
2, 106952, Note_on_c, 0, 71, 0
2, 106966, Note_on_c, 0, 53, 0
2, 107054, Note_on_c, 0, 56, 0
2, 107077, Note_on_c, 0, 71, 73
2, 107120, Note_on_c, 0, 69, 0
2, 107217, Note_on_c, 0, 73, 78
2, 107266, Note_on_c, 0, 71, 0
2, 107380, Note_on_c, 0, 71, 67
2, 107386, Note_on_c, 0, 49, 67
2, 107441, Note_on_c, 0, 73, 0
2, 107526, Note_on_c, 0, 69, 74
2, 107527, Note_on_c, 0, 71, 0
2, 107536, Note_on_c, 0, 54, 0
2, 107665, Note_on_c, 0, 68, 76
2, 107673, Note_on_c, 0, 69, 0
2, 107905, Note_on_c, 0, 68, 0
2, 107906, Note_on_c, 0, 50, 59
2, 107908, Note_on_c, 0, 66, 78
2, 107997, Note_on_c, 0, 49, 0
2, 108090, Note_on_c, 0, 61, 0
2, 108202, Note_on_c, 0, 77, 74
2, 108340, Note_on_c, 0, 66, 0
2, 108459, Note_on_c, 0, 61, 62
2, 108673, Note_on_c, 0, 78, 76
2, 108763, Note_on_c, 0, 77, 0
2, 108942, Note_on_c, 0, 59, 58
2, 108948, Note_on_c, 0, 68, 66
2, 108977, Note_on_c, 0, 61, 0
2, 109048, Note_on_c, 0, 78, 0
2, 109119, Note_on_c, 0, 50, 0
2, 109199, Note_on_c, 0, 78, 71
2, 109321, Note_on_c, 0, 68, 0
2, 109422, Note_on_c, 0, 50, 63
2, 109627, Note_on_c, 0, 77, 72
2, 109932, Note_on_c, 0, 70, 68
2, 109943, Note_on_c, 0, 49, 54
2, 109994, Note_on_c, 0, 77, 0
2, 109996, Note_on_c, 0, 50, 0
2, 110199, Note_on_c, 0, 76, 66
2, 110305, Note_on_c, 0, 70, 0
2, 110461, Note_on_c, 0, 58, 48
2, 110479, Note_on_c, 0, 55, 39
2, 110586, Note_on_c, 0, 59, 0
2, 110691, Note_on_c, 0, 75, 63
2, 110708, Note_on_c, 0, 49, 0
2, 110742, Note_on_c, 0, 76, 0
2, 110771, Note_on_c, 0, 78, 0
2, 110875, Note_on_c, 0, 75, 0
2, 111019, Note_on_c, 0, 60, 45
2, 111021, Note_on_c, 0, 54, 49
2, 111024, Note_on_c, 0, 75, 57
2, 111136, Note_on_c, 0, 55, 0
2, 111183, Note_on_c, 0, 76, 64
2, 111187, Note_on_c, 0, 58, 0
2, 111204, Note_on_c, 0, 75, 0
2, 111308, Note_on_c, 0, 78, 68
2, 111342, Note_on_c, 0, 76, 0
2, 111471, Note_on_c, 0, 76, 68
2, 111486, Note_on_c, 0, 61, 52
2, 111579, Note_on_c, 0, 60, 0
2, 111645, Note_on_c, 0, 75, 67
2, 111733, Note_on_c, 0, 76, 0
2, 111752, Note_on_c, 0, 78, 0
2, 111779, Note_on_c, 0, 73, 70
2, 111849, Note_on_c, 0, 75, 0
2, 111973, Note_on_c, 0, 72, 64
2, 111978, Note_on_c, 0, 63, 58
2, 112009, Note_on_c, 0, 73, 0
2, 112057, Note_on_c, 0, 61, 0
2, 112130, Note_on_c, 0, 73, 66
2, 112192, Note_on_c, 0, 72, 0
2, 112295, Note_on_c, 0, 75, 68
2, 112324, Note_on_c, 0, 73, 0
2, 112458, Note_on_c, 0, 52, 53
2, 112460, Note_on_c, 0, 73, 67
2, 112469, Note_on_c, 0, 56, 52
2, 112510, Note_on_c, 0, 54, 0
2, 112518, Note_on_c, 0, 75, 0
2, 112604, Note_on_c, 0, 73, 0
2, 112619, Note_on_c, 0, 72, 68
2, 112652, Note_on_c, 0, 63, 0
2, 112763, Note_on_c, 0, 70, 63
2, 112794, Note_on_c, 0, 72, 0
2, 112932, Note_on_c, 0, 68, 71
2, 112939, Note_on_c, 0, 58, 54
2, 112955, Note_on_c, 0, 70, 0
2, 113005, Note_on_c, 0, 56, 0
2, 113083, Note_on_c, 0, 66, 71
2, 113104, Note_on_c, 0, 68, 0
2, 113245, Note_on_c, 0, 68, 70
2, 113296, Note_on_c, 0, 66, 0
2, 113421, Note_on_c, 0, 69, 69
2, 113425, Note_on_c, 0, 60, 49
2, 113426, Note_on_c, 0, 51, 54
2, 113462, Note_on_c, 0, 68, 0
2, 113496, Note_on_c, 0, 52, 0
2, 113557, Note_on_c, 0, 58, 0
2, 113573, Note_on_c, 0, 68, 78
2, 113732, Note_on_c, 0, 60, 0
2, 113732, Note_on_c, 0, 66, 74
2, 113737, Note_on_c, 0, 69, 0
2, 113896, Note_on_c, 0, 68, 0
2, 113965, Note_on_c, 0, 65, 67
2, 113971, Note_on_c, 0, 59, 57
2, 113989, Note_on_c, 0, 49, 57
2, 114019, Note_on_c, 0, 66, 0
2, 114092, Note_on_c, 0, 51, 0
2, 114144, Note_on_c, 0, 66, 71
2, 114207, Note_on_c, 0, 65, 0
2, 114304, Note_on_c, 0, 68, 75
2, 114358, Note_on_c, 0, 66, 0
2, 114466, Note_on_c, 0, 57, 58
2, 114469, Note_on_c, 0, 51, 57
2, 114469, Note_on_c, 0, 66, 75
2, 114524, Note_on_c, 0, 59, 0
2, 114617, Note_on_c, 0, 65, 66
2, 114625, Note_on_c, 0, 68, 0
2, 114656, Note_on_c, 0, 66, 0
2, 114780, Note_on_c, 0, 49, 0
2, 114785, Note_on_c, 0, 63, 74
2, 114858, Note_on_c, 0, 65, 0
2, 115048, Note_on_c, 0, 61, 71
2, 115066, Note_on_c, 0, 53, 55
2, 115069, Note_on_c, 0, 56, 47
2, 115115, Note_on_c, 0, 51, 0
2, 115165, Note_on_c, 0, 57, 0
2, 115219, Note_on_c, 0, 63, 0
2, 115540, Note_on_c, 0, 57, 48
2, 115547, Note_on_c, 0, 54, 53
2, 115622, Note_on_c, 0, 56, 0
2, 115684, Note_on_c, 0, 53, 0
2, 115850, Note_on_c, 0, 57, 0
2, 116058, Note_on_c, 0, 59, 46
2, 116072, Note_on_c, 0, 56, 47
2, 116286, Note_on_c, 0, 54, 0
2, 116302, Note_on_c, 0, 56, 0
2, 116318, Note_on_c, 0, 61, 0
2, 116333, Note_on_c, 0, 65, 70
2, 116461, Note_on_c, 0, 68, 74
2, 116534, Note_on_c, 0, 65, 0
2, 116635, Note_on_c, 0, 71, 75
2, 116647, Note_on_c, 0, 53, 55
2, 116650, Note_on_c, 0, 44, 58
2, 116666, Note_on_c, 0, 59, 0
2, 116747, Note_on_c, 0, 68, 0
2, 116920, Note_on_c, 0, 74, 71
2, 116958, Note_on_c, 0, 71, 0
2, 117103, Note_on_c, 0, 44, 0
2, 117243, Note_on_c, 0, 73, 75
2, 117255, Note_on_c, 0, 54, 53
2, 117261, Note_on_c, 0, 74, 0
2, 117264, Note_on_c, 0, 45, 52
2, 117485, Note_on_c, 0, 75, 74
2, 117491, Note_on_c, 0, 53, 0
2, 117593, Note_on_c, 0, 73, 0
2, 117648, Note_on_c, 0, 77, 76
2, 117709, Note_on_c, 0, 75, 0
2, 117853, Note_on_c, 0, 78, 76
2, 117862, Note_on_c, 0, 49, 62
2, 117899, Note_on_c, 0, 77, 0
2, 118000, Note_on_c, 0, 54, 0
2, 118027, Note_on_c, 0, 76, 71
2, 118182, Note_on_c, 0, 74, 71
2, 118232, Note_on_c, 0, 78, 0
2, 118344, Note_on_c, 0, 54, 56
2, 118345, Note_on_c, 0, 73, 76
2, 118424, Note_on_c, 0, 76, 0
2, 118446, Note_on_c, 0, 74, 0
2, 118504, Note_on_c, 0, 71, 65
2, 118547, Note_on_c, 0, 49, 0
2, 118548, Note_on_c, 0, 73, 0
2, 118662, Note_on_c, 0, 69, 66
2, 118716, Note_on_c, 0, 71, 0
2, 118843, Note_on_c, 0, 74, 72
2, 118850, Note_on_c, 0, 47, 54
2, 118885, Note_on_c, 0, 69, 0
2, 118999, Note_on_c, 0, 45, 0
2, 118999, Note_on_c, 0, 73, 70
2, 119145, Note_on_c, 0, 71, 67
2, 119301, Note_on_c, 0, 74, 0
2, 119309, Note_on_c, 0, 73, 0
2, 119338, Note_on_c, 0, 49, 56
2, 119338, Note_on_c, 0, 69, 67
2, 119355, Note_on_c, 0, 71, 0
2, 119441, Note_on_c, 0, 47, 0
2, 119487, Note_on_c, 0, 68, 70
2, 119533, Note_on_c, 0, 69, 0
2, 119581, Note_on_c, 0, 54, 0
2, 119626, Note_on_c, 0, 66, 75
2, 119679, Note_on_c, 0, 68, 0
2, 119821, Note_on_c, 0, 68, 72
2, 119824, Note_on_c, 0, 53, 54
2, 119839, Note_on_c, 0, 47, 58
2, 119860, Note_on_c, 0, 66, 0
2, 119937, Note_on_c, 0, 49, 0
2, 119983, Note_on_c, 0, 66, 70
2, 120061, Note_on_c, 0, 68, 0
2, 120172, Note_on_c, 0, 65, 70
2, 120212, Note_on_c, 0, 66, 0
2, 120437, Note_on_c, 0, 66, 70
2, 120456, Note_on_c, 0, 46, 50
2, 120520, Note_on_c, 0, 65, 0
2, 120542, Note_on_c, 0, 47, 0
2, 120642, Note_on_c, 0, 53, 0
2, 120646, Note_on_c, 0, 64, 50
2, 120805, Note_on_c, 0, 62, 44
2, 120874, Note_on_c, 0, 64, 0
2, 120977, Note_on_c, 0, 61, 52
2, 120978, Note_on_c, 0, 62, 0
2, 120982, Note_on_c, 0, 54, 49
2, 121149, Note_on_c, 0, 62, 51
2, 121156, Note_on_c, 0, 61, 0
2, 121256, Note_on_c, 0, 46, 0
2, 121292, Note_on_c, 0, 62, 0
2, 121296, Note_on_c, 0, 64, 54
2, 121481, Note_on_c, 0, 62, 51
2, 121485, Note_on_c, 0, 47, 49
2, 121503, Note_on_c, 0, 64, 0
2, 121640, Note_on_c, 0, 62, 0
2, 121658, Note_on_c, 0, 61, 52
2, 121717, Note_on_c, 0, 54, 0
2, 121792, Note_on_c, 0, 61, 0
2, 121810, Note_on_c, 0, 59, 53
2, 121986, Note_on_c, 0, 59, 0
2, 121993, Note_on_c, 0, 49, 55
2, 121994, Note_on_c, 0, 58, 51
2, 122140, Note_on_c, 0, 58, 0
2, 122155, Note_on_c, 0, 59, 51
2, 122191, Note_on_c, 0, 47, 0
2, 122324, Note_on_c, 0, 61, 55
2, 122342, Note_on_c, 0, 59, 0
2, 122577, Note_on_c, 0, 59, 52
2, 122584, Note_on_c, 0, 50, 43
2, 122599, Note_on_c, 0, 61, 0
2, 122693, Note_on_c, 0, 66, 0
2, 122706, Note_on_c, 0, 49, 0
2, 122904, Note_on_c, 0, 65, 65
2, 123119, Note_on_c, 0, 59, 0
2, 123197, Note_on_c, 0, 54, 48
2, 123202, Note_on_c, 0, 57, 41
2, 123213, Note_on_c, 0, 47, 43
2, 123304, Note_on_c, 0, 50, 0
2, 123458, Note_on_c, 0, 66, 73
2, 123528, Note_on_c, 0, 47, 0
2, 123546, Note_on_c, 0, 65, 0
2, 123572, Note_on_c, 0, 54, 0
2, 123820, Note_on_c, 0, 74, 66
2, 123823, Note_on_c, 0, 49, 46
2, 123835, Note_on_c, 0, 53, 46
2, 123837, Note_on_c, 0, 56, 36
2, 123866, Note_on_c, 0, 66, 0
2, 124033, Note_on_c, 0, 57, 0
2, 124131, Note_on_c, 0, 53, 0
2, 124144, Note_on_c, 0, 72, 69
2, 124347, Note_on_c, 0, 74, 0
2, 124387, Note_on_c, 0, 54, 49
2, 124388, Note_on_c, 0, 57, 35
2, 124490, Note_on_c, 0, 56, 0
2, 124621, Note_on_c, 0, 73, 72
2, 124705, Note_on_c, 0, 57, 0
2, 124723, Note_on_c, 0, 72, 0
2, 124939, Note_on_c, 0, 65, 57
2, 124947, Note_on_c, 0, 56, 34
2, 124952, Note_on_c, 0, 59, 41
2, 125045, Note_on_c, 0, 73, 0
2, 125099, Note_on_c, 0, 54, 0
2, 125147, Note_on_c, 0, 56, 0
2, 125207, Note_on_c, 0, 71, 64
2, 125343, Note_on_c, 0, 65, 0
2, 125455, Note_on_c, 0, 54, 47
2, 125461, Note_on_c, 0, 50, 45
2, 125612, Note_on_c, 0, 49, 0
2, 125680, Note_on_c, 0, 69, 66
2, 125715, Note_on_c, 0, 59, 0
2, 125885, Note_on_c, 0, 71, 0
2, 125957, Note_on_c, 0, 68, 64
2, 125958, Note_on_c, 0, 47, 54
2, 126026, Note_on_c, 0, 69, 0
2, 126081, Note_on_c, 0, 50, 0
2, 126135, Note_on_c, 0, 71, 67
2, 126215, Note_on_c, 0, 68, 0
2, 126286, Note_on_c, 0, 69, 73
2, 126463, Note_on_c, 0, 68, 72
2, 126469, Note_on_c, 0, 49, 49
2, 126477, Note_on_c, 0, 53, 45
2, 126534, Note_on_c, 0, 71, 0
2, 126583, Note_on_c, 0, 54, 0
2, 126622, Note_on_c, 0, 66, 68
2, 126723, Note_on_c, 0, 49, 0
2, 126738, Note_on_c, 0, 69, 0
2, 126741, Note_on_c, 0, 47, 0
2, 126754, Note_on_c, 0, 68, 0
2, 126799, Note_on_c, 0, 65, 73
2, 126843, Note_on_c, 0, 66, 0
2, 127017, Note_on_c, 0, 66, 73
2, 127020, Note_on_c, 0, 49, 49
2, 127035, Note_on_c, 0, 45, 51
2, 127098, Note_on_c, 0, 65, 0
2, 127203, Note_on_c, 0, 68, 74
2, 127258, Note_on_c, 0, 66, 0
2, 127274, Note_on_c, 0, 53, 0
2, 127369, Note_on_c, 0, 69, 75
2, 127374, Note_on_c, 0, 68, 0
2, 127542, Note_on_c, 0, 71, 68
2, 127548, Note_on_c, 0, 44, 55
2, 127549, Note_on_c, 0, 53, 57
2, 127561, Note_on_c, 0, 69, 0
2, 127622, Note_on_c, 0, 45, 0
2, 127684, Note_on_c, 0, 49, 0
2, 127709, Note_on_c, 0, 73, 76
2, 127754, Note_on_c, 0, 71, 0
2, 127881, Note_on_c, 0, 74, 74
2, 127939, Note_on_c, 0, 44, 0
2, 127946, Note_on_c, 0, 73, 0
2, 128099, Note_on_c, 0, 61, 68
2, 128109, Note_on_c, 0, 45, 63
2, 128162, Note_on_c, 0, 74, 0
2, 128272, Note_on_c, 0, 53, 0
2, 128311, Note_on_c, 0, 54, 64
2, 128512, Note_on_c, 0, 52, 73
2, 128539, Note_on_c, 0, 54, 0
2, 128719, Note_on_c, 0, 50, 63
2, 128723, Note_on_c, 0, 56, 69
2, 128725, Note_on_c, 0, 66, 73
2, 128775, Note_on_c, 0, 61, 0
2, 128921, Note_on_c, 0, 52, 0
2, 128934, Note_on_c, 0, 49, 73
2, 129012, Note_on_c, 0, 50, 0
2, 129146, Note_on_c, 0, 47, 76
2, 129193, Note_on_c, 0, 49, 0
2, 129491, Note_on_c, 0, 57, 66
2, 129505, Note_on_c, 0, 49, 72
2, 129559, Note_on_c, 0, 45, 0
2, 129567, Note_on_c, 0, 47, 0
2, 129580, Note_on_c, 0, 56, 0
2, 129606, Note_on_c, 0, 66, 0
2, 129916, Note_on_c, 0, 66, 77
2, 130413, Note_on_c, 0, 59, 67
2, 130419, Note_on_c, 0, 37, 59
2, 130600, Note_on_c, 0, 57, 0
2, 130992, Note_on_c, 0, 65, 70
2, 131095, Note_on_c, 0, 66, 0
2, 131318, Note_on_c, 0, 49, 0
2, 131780, Note_on_c, 0, 66, 65
2, 131783, Note_on_c, 0, 58, 60
2, 131796, Note_on_c, 0, 49, 50
2, 131798, Note_on_c, 0, 42, 47
2, 131843, Note_on_c, 0, 59, 0
2, 131911, Note_on_c, 0, 65, 0
2, 132017, Note_on_c, 0, 37, 0
2, 134546, Note_on_c, 0, 49, 0
2, 134557, Note_on_c, 0, 58, 0
2, 134576, Note_on_c, 0, 42, 0
2, 134660, Note_on_c, 0, 66, 0
2, 136760,End_track
0, 0, End_of_file
