0, 0, Header, 1, 2, 384
1, 0, Start_track
1, 0, Tempo, 500000
1, 0, Time_signature, 4, 2, 24, 8
1, 1, End_track
2, 0, Start_track
2, 0, Title_t, "Khmara04-07.MID"
2, 0, Program_c, 0, 0
2, 786, Note_on_c, 0, 78, 52
2, 801, Note_on_c, 0, 54, 38
2, 1342, Note_on_c, 0, 57, 39
2, 1355, Note_on_c, 0, 73, 51
2, 1737, Note_on_c, 0, 78, 0
2, 1840, Note_on_c, 0, 61, 45
2, 2055, Note_on_c, 0, 57, 0
2, 2363, Note_on_c, 0, 69, 49
2, 2379, Note_on_c, 0, 66, 39
2, 2586, Note_on_c, 0, 61, 0
2, 2627, Note_on_c, 0, 56, 45
2, 2627, Note_on_c, 0, 71, 57
2, 2716, Note_on_c, 0, 73, 0
2, 2816, Note_on_c, 0, 69, 0
2, 2924, Note_on_c, 0, 73, 55
2, 2941, Note_on_c, 0, 57, 40
2, 2985, Note_on_c, 0, 71, 0
2, 3093, Note_on_c, 0, 54, 0
2, 3101, Note_on_c, 0, 56, 0
2, 3113, Note_on_c, 0, 71, 59
2, 3182, Note_on_c, 0, 66, 0
2, 3196, Note_on_c, 0, 73, 0
2, 3252, Note_on_c, 0, 69, 62
2, 3316, Note_on_c, 0, 71, 0
2, 3411, Note_on_c, 0, 61, 50
2, 3423, Note_on_c, 0, 71, 52
2, 3431, Note_on_c, 0, 65, 48
2, 3454, Note_on_c, 0, 69, 0
2, 3574, Note_on_c, 0, 69, 71
2, 3656, Note_on_c, 0, 71, 0
2, 3688, Note_on_c, 0, 65, 0
2, 3727, Note_on_c, 0, 68, 66
2, 3767, Note_on_c, 0, 57, 0
2, 3815, Note_on_c, 0, 69, 0
2, 3950, Note_on_c, 0, 69, 62
2, 3957, Note_on_c, 0, 66, 61
2, 3971, Note_on_c, 0, 54, 49
2, 4043, Note_on_c, 0, 68, 0
2, 4170, Note_on_c, 0, 61, 0
2, 4226, Note_on_c, 0, 71, 56
2, 4311, Note_on_c, 0, 69, 0
2, 4482, Note_on_c, 0, 69, 51
2, 4491, Note_on_c, 0, 61, 55
2, 4639, Note_on_c, 0, 71, 0
2, 4705, Note_on_c, 0, 68, 60
2, 4777, Note_on_c, 0, 69, 0
2, 4946, Note_on_c, 0, 69, 50
2, 4965, Note_on_c, 0, 68, 0
2, 5024, Note_on_c, 0, 66, 0
2, 5175, Note_on_c, 0, 73, 58
2, 5320, Note_on_c, 0, 69, 0
2, 5424, Note_on_c, 0, 78, 62
2, 5432, Note_on_c, 0, 57, 43
2, 5589, Note_on_c, 0, 73, 0
2, 5658, Note_on_c, 0, 80, 64
2, 5660, Note_on_c, 0, 59, 52
2, 5663, Note_on_c, 0, 61, 0
2, 5738, Note_on_c, 0, 78, 0
2, 5756, Note_on_c, 0, 57, 0
2, 5892, Note_on_c, 0, 81, 65
2, 5898, Note_on_c, 0, 61, 52
2, 5944, Note_on_c, 0, 59, 0
2, 5953, Note_on_c, 0, 80, 0
2, 6062, Note_on_c, 0, 80, 72
2, 6070, Note_on_c, 0, 59, 57
2, 6104, Note_on_c, 0, 61, 0
2, 6201, Note_on_c, 0, 78, 70
2, 6201, Note_on_c, 0, 81, 0
2, 6203, Note_on_c, 0, 57, 56
2, 6222, Note_on_c, 0, 59, 0
2, 6260, Note_on_c, 0, 80, 0
2, 6346, Note_on_c, 0, 57, 0
2, 6355, Note_on_c, 0, 59, 51
2, 6355, Note_on_c, 0, 80, 67
2, 6377, Note_on_c, 0, 78, 0
2, 6514, Note_on_c, 0, 78, 65
2, 6525, Note_on_c, 0, 57, 51
2, 6528, Note_on_c, 0, 59, 0
2, 6670, Note_on_c, 0, 77, 52
2, 6677, Note_on_c, 0, 56, 49
2, 6703, Note_on_c, 0, 57, 0
2, 6710, Note_on_c, 0, 80, 0
2, 6716, Note_on_c, 0, 78, 0
2, 6897, Note_on_c, 0, 57, 44
2, 6900, Note_on_c, 0, 78, 61
2, 6989, Note_on_c, 0, 77, 0
2, 7009, Note_on_c, 0, 56, 0
2, 7187, Note_on_c, 0, 73, 53
2, 7381, Note_on_c, 0, 78, 0
2, 7439, Note_on_c, 0, 59, 41
2, 7444, Note_on_c, 0, 56, 41
2, 7581, Note_on_c, 0, 57, 0
2, 7661, Note_on_c, 0, 54, 0
2, 7670, Note_on_c, 0, 77, 60
2, 7930, Note_on_c, 0, 73, 0
2, 7930, Note_on_c, 0, 78, 66
2, 7953, Note_on_c, 0, 57, 39
2, 7954, Note_on_c, 0, 61, 41
2, 8028, Note_on_c, 0, 56, 0
2, 8041, Note_on_c, 0, 59, 0
2, 8058, Note_on_c, 0, 77, 0
2, 8191, Note_on_c, 0, 73, 62
2, 8217, Note_on_c, 0, 61, 0
2, 8422, Note_on_c, 0, 59, 47
2, 8422, Note_on_c, 0, 78, 0
2, 8426, Note_on_c, 0, 68, 51
2, 8555, Note_on_c, 0, 57, 0
2, 8646, Note_on_c, 0, 77, 61
2, 8746, Note_on_c, 0, 68, 0
2, 8887, Note_on_c, 0, 78, 66
2, 8902, Note_on_c, 0, 73, 0
2, 8903, Note_on_c, 0, 66, 57
2, 8912, Note_on_c, 0, 57, 46
2, 8983, Note_on_c, 0, 77, 0
2, 9123, Note_on_c, 0, 73, 65
2, 9205, Note_on_c, 0, 78, 0
2, 9235, Note_on_c, 0, 66, 0
2, 9343, Note_on_c, 0, 78, 71
2, 9352, Note_on_c, 0, 65, 47
2, 9355, Note_on_c, 0, 56, 50
2, 9465, Note_on_c, 0, 57, 0
2, 9530, Note_on_c, 0, 73, 0
2, 9578, Note_on_c, 0, 80, 73
2, 9620, Note_on_c, 0, 65, 0
2, 9657, Note_on_c, 0, 78, 0
2, 9823, Note_on_c, 0, 66, 50
2, 9826, Note_on_c, 0, 81, 69
2, 9840, Note_on_c, 0, 54, 45
2, 9879, Note_on_c, 0, 56, 0
2, 9898, Note_on_c, 0, 59, 0
2, 9910, Note_on_c, 0, 80, 0
2, 10051, Note_on_c, 0, 77, 67
2, 10106, Note_on_c, 0, 66, 0
2, 10135, Note_on_c, 0, 81, 0
2, 10289, Note_on_c, 0, 78, 71
2, 10295, Note_on_c, 0, 61, 46
2, 10309, Note_on_c, 0, 52, 53
2, 10415, Note_on_c, 0, 77, 0
2, 10522, Note_on_c, 0, 81, 69
2, 10537, Note_on_c, 0, 61, 0
2, 10543, Note_on_c, 0, 54, 0
2, 10589, Note_on_c, 0, 78, 0
2, 10832, Note_on_c, 0, 71, 50
2, 10835, Note_on_c, 0, 54, 46
2, 10854, Note_on_c, 0, 50, 47
2, 10920, Note_on_c, 0, 81, 0
2, 10978, Note_on_c, 0, 52, 0
2, 11117, Note_on_c, 0, 81, 61
2, 11208, Note_on_c, 0, 71, 0
2, 11379, Note_on_c, 0, 80, 59
2, 11380, Note_on_c, 0, 53, 44
2, 11449, Note_on_c, 0, 81, 0
2, 11529, Note_on_c, 0, 54, 0
2, 11608, Note_on_c, 0, 81, 58
2, 11656, Note_on_c, 0, 80, 0
2, 11849, Note_on_c, 0, 83, 57
2, 11856, Note_on_c, 0, 54, 38
2, 11886, Note_on_c, 0, 81, 0
2, 12004, Note_on_c, 0, 53, 0
2, 12007, Note_on_c, 0, 81, 65
2, 12130, Note_on_c, 0, 80, 64
2, 12153, Note_on_c, 0, 81, 0
2, 12159, Note_on_c, 0, 83, 0
2, 12279, Note_on_c, 0, 81, 69
2, 12296, Note_on_c, 0, 59, 45
2, 12299, Note_on_c, 0, 80, 0
2, 12418, Note_on_c, 0, 80, 68
2, 12433, Note_on_c, 0, 54, 0
2, 12569, Note_on_c, 0, 78, 69
2, 12715, Note_on_c, 0, 78, 0
2, 12797, Note_on_c, 0, 49, 48
2, 12807, Note_on_c, 0, 77, 56
2, 12944, Note_on_c, 0, 81, 0
2, 12962, Note_on_c, 0, 50, 0
2, 13060, Note_on_c, 0, 59, 0
2, 13098, Note_on_c, 0, 72, 53
2, 13178, Note_on_c, 0, 77, 0
2, 13206, Note_on_c, 0, 80, 0
2, 13337, Note_on_c, 0, 56, 44
2, 13546, Note_on_c, 0, 73, 62
2, 13780, Note_on_c, 0, 72, 0
2, 13838, Note_on_c, 0, 78, 62
2, 13846, Note_on_c, 0, 57, 41
2, 13968, Note_on_c, 0, 73, 0
2, 13969, Note_on_c, 0, 56, 0
2, 14100, Note_on_c, 0, 72, 59
2, 14292, Note_on_c, 0, 78, 0
2, 14336, Note_on_c, 0, 54, 49
2, 14562, Note_on_c, 0, 73, 62
2, 14585, Note_on_c, 0, 57, 0
2, 14712, Note_on_c, 0, 72, 0
2, 14889, Note_on_c, 0, 53, 44
2, 14892, Note_on_c, 0, 80, 56
2, 14993, Note_on_c, 0, 54, 0
2, 15052, Note_on_c, 0, 73, 0
2, 15083, Note_on_c, 0, 71, 57
2, 15123, Note_on_c, 0, 80, 0
2, 15219, Note_on_c, 0, 73, 58
2, 15250, Note_on_c, 0, 71, 0
2, 15361, Note_on_c, 0, 74, 60
2, 15397, Note_on_c, 0, 73, 0
2, 15508, Note_on_c, 0, 73, 69
2, 15660, Note_on_c, 0, 71, 64
2, 15764, Note_on_c, 0, 74, 0
2, 15773, Note_on_c, 0, 73, 0
2, 15810, Note_on_c, 0, 53, 0
2, 15848, Note_on_c, 0, 69, 62
2, 15917, Note_on_c, 0, 71, 0
2, 15993, Note_on_c, 0, 53, 47
2, 16142, Note_on_c, 0, 54, 51
2, 16180, Note_on_c, 0, 53, 0
2, 16308, Note_on_c, 0, 54, 0
2, 16309, Note_on_c, 0, 56, 50
2, 16427, Note_on_c, 0, 49, 0
2, 16452, Note_on_c, 0, 54, 52
2, 16544, Note_on_c, 0, 56, 0
2, 16608, Note_on_c, 0, 53, 56
2, 16640, Note_on_c, 0, 54, 0
2, 16760, Note_on_c, 0, 54, 71
2, 16767, Note_on_c, 0, 53, 0
2, 16912, Note_on_c, 0, 68, 65
2, 16919, Note_on_c, 0, 56, 57
2, 17021, Note_on_c, 0, 56, 0
2, 17048, Note_on_c, 0, 69, 0
2, 17057, Note_on_c, 0, 66, 69
2, 17058, Note_on_c, 0, 54, 0
2, 17063, Note_on_c, 0, 57, 57
2, 17188, Note_on_c, 0, 68, 0
2, 17226, Note_on_c, 0, 65, 67
2, 17231, Note_on_c, 0, 57, 0
2, 17235, Note_on_c, 0, 59, 54
2, 17265, Note_on_c, 0, 66, 0
2, 17379, Note_on_c, 0, 57, 51
2, 17382, Note_on_c, 0, 66, 72
2, 17460, Note_on_c, 0, 59, 0
2, 17464, Note_on_c, 0, 65, 0
2, 17536, Note_on_c, 0, 68, 68
2, 17538, Note_on_c, 0, 56, 52
2, 17582, Note_on_c, 0, 66, 0
2, 17604, Note_on_c, 0, 57, 0
2, 17743, Note_on_c, 0, 57, 44
2, 17746, Note_on_c, 0, 66, 62
2, 17822, Note_on_c, 0, 56, 0
2, 17822, Note_on_c, 0, 68, 0
2, 17922, Note_on_c, 0, 65, 60
2, 17950, Note_on_c, 0, 66, 0
2, 18075, Note_on_c, 0, 66, 66
2, 18132, Note_on_c, 0, 65, 0
2, 18308, Note_on_c, 0, 75, 57
2, 18316, Note_on_c, 0, 48, 39
2, 18374, Note_on_c, 0, 66, 0
2, 18696, Note_on_c, 0, 66, 52
2, 18760, Note_on_c, 0, 75, 0
2, 18819, Note_on_c, 0, 66, 0
2, 18942, Note_on_c, 0, 49, 37
2, 18952, Note_on_c, 0, 66, 51
2, 18980, Note_on_c, 0, 48, 0
2, 19185, Note_on_c, 0, 57, 0
2, 19259, Note_on_c, 0, 56, 41
2, 19369, Note_on_c, 0, 54, 47
2, 19406, Note_on_c, 0, 56, 0
2, 19536, Note_on_c, 0, 56, 46
2, 19568, Note_on_c, 0, 54, 0
2, 19855, Note_on_c, 0, 66, 0
2, 19867, Note_on_c, 0, 65, 47
2, 19981, Note_on_c, 0, 63, 55
2, 19983, Note_on_c, 0, 65, 0
2, 20177, Note_on_c, 0, 65, 50
2, 20212, Note_on_c, 0, 63, 0
2, 20418, Note_on_c, 0, 61, 41
2, 20470, Note_on_c, 0, 65, 0
2, 20486, Note_on_c, 0, 49, 0
2, 20581, Note_on_c, 0, 63, 47
2, 20585, Note_on_c, 0, 61, 0
2, 20742, Note_on_c, 0, 63, 0
2, 20755, Note_on_c, 0, 49, 49
2, 20769, Note_on_c, 0, 65, 53
2, 20914, Note_on_c, 0, 66, 59
2, 20955, Note_on_c, 0, 65, 0
2, 21076, Note_on_c, 0, 68, 59
2, 21092, Note_on_c, 0, 66, 0
2, 21252, Note_on_c, 0, 51, 47
2, 21254, Note_on_c, 0, 66, 55
2, 21303, Note_on_c, 0, 68, 0
2, 21385, Note_on_c, 0, 49, 0
2, 21422, Note_on_c, 0, 65, 59
2, 21448, Note_on_c, 0, 66, 0
2, 21509, Note_on_c, 0, 56, 0
2, 21568, Note_on_c, 0, 66, 69
2, 21624, Note_on_c, 0, 65, 0
2, 21728, Note_on_c, 0, 68, 66
2, 21743, Note_on_c, 0, 53, 52
2, 21769, Note_on_c, 0, 66, 0
2, 21865, Note_on_c, 0, 51, 0
2, 21888, Note_on_c, 0, 69, 66
2, 21911, Note_on_c, 0, 68, 0
2, 22043, Note_on_c, 0, 71, 64
2, 22080, Note_on_c, 0, 69, 0
2, 22269, Note_on_c, 0, 69, 56
2, 22277, Note_on_c, 0, 54, 45
2, 22328, Note_on_c, 0, 53, 0
2, 22411, Note_on_c, 0, 68, 59
2, 22430, Note_on_c, 0, 71, 0
2, 22431, Note_on_c, 0, 69, 0
2, 22548, Note_on_c, 0, 66, 57
2, 22646, Note_on_c, 0, 68, 0
2, 22844, Note_on_c, 0, 42, 49
2, 23049, Note_on_c, 0, 66, 0
2, 23067, Note_on_c, 0, 54, 0
2, 23070, Note_on_c, 0, 69, 56
2, 23223, Note_on_c, 0, 73, 32
2, 23269, Note_on_c, 0, 72, 26
2, 23324, Note_on_c, 0, 69, 0
2, 23356, Note_on_c, 0, 73, 0
2, 23380, Note_on_c, 0, 72, 0
2, 23389, Note_on_c, 0, 78, 61
2, 23411, Note_on_c, 0, 45, 50
2, 23548, Note_on_c, 0, 73, 63
2, 23563, Note_on_c, 0, 42, 0
2, 23609, Note_on_c, 0, 78, 0
2, 23706, Note_on_c, 0, 75, 71
2, 23735, Note_on_c, 0, 73, 0
2, 23881, Note_on_c, 0, 75, 0
2, 23883, Note_on_c, 0, 49, 53
2, 23884, Note_on_c, 0, 77, 69
2, 24000, Note_on_c, 0, 45, 0
2, 24024, Note_on_c, 0, 78, 70
2, 24058, Note_on_c, 0, 77, 0
2, 24176, Note_on_c, 0, 80, 71
2, 24212, Note_on_c, 0, 78, 0
2, 24346, Note_on_c, 0, 81, 69
2, 24361, Note_on_c, 0, 54, 48
2, 24392, Note_on_c, 0, 80, 0
2, 24401, Note_on_c, 0, 49, 0
2, 24505, Note_on_c, 0, 80, 73
2, 24651, Note_on_c, 0, 78, 72
2, 24705, Note_on_c, 0, 81, 0
2, 24711, Note_on_c, 0, 80, 0
2, 24808, Note_on_c, 0, 80, 71
2, 24817, Note_on_c, 0, 59, 50
2, 24851, Note_on_c, 0, 78, 0
2, 24962, Note_on_c, 0, 78, 76
2, 25118, Note_on_c, 0, 76, 62
2, 25146, Note_on_c, 0, 80, 0
2, 25230, Note_on_c, 0, 78, 0
2, 25300, Note_on_c, 0, 57, 50
2, 25307, Note_on_c, 0, 75, 62
2, 25364, Note_on_c, 0, 76, 0
2, 25469, Note_on_c, 0, 59, 0
2, 25565, Note_on_c, 0, 76, 63
2, 25644, Note_on_c, 0, 75, 0
2, 25831, Note_on_c, 0, 78, 61
2, 25835, Note_on_c, 0, 51, 47
2, 25916, Note_on_c, 0, 76, 0
2, 25919, Note_on_c, 0, 57, 0
2, 26007, Note_on_c, 0, 54, 0
2, 26093, Note_on_c, 0, 57, 44
2, 26395, Note_on_c, 0, 56, 48
2, 26419, Note_on_c, 0, 48, 43
2, 26627, Note_on_c, 0, 51, 0
2, 26637, Note_on_c, 0, 76, 56
2, 26651, Note_on_c, 0, 57, 0
2, 26784, Note_on_c, 0, 78, 0
2, 26898, Note_on_c, 0, 75, 59
2, 26902, Note_on_c, 0, 54, 45
2, 27048, Note_on_c, 0, 76, 0
2, 27073, Note_on_c, 0, 56, 0
2, 27151, Note_on_c, 0, 81, 63
2, 27236, Note_on_c, 0, 75, 0
2, 27405, Note_on_c, 0, 80, 64
2, 27417, Note_on_c, 0, 52, 48
2, 27468, Note_on_c, 0, 54, 0
2, 27577, Note_on_c, 0, 78, 66
2, 27724, Note_on_c, 0, 76, 64
2, 27754, Note_on_c, 0, 78, 0
2, 27766, Note_on_c, 0, 80, 0
2, 27881, Note_on_c, 0, 78, 67
2, 27891, Note_on_c, 0, 51, 48
2, 27908, Note_on_c, 0, 44, 52
2, 27910, Note_on_c, 0, 76, 0
2, 27959, Note_on_c, 0, 48, 0
2, 27996, Note_on_c, 0, 81, 0
2, 28025, Note_on_c, 0, 52, 0
2, 28048, Note_on_c, 0, 76, 65
2, 28100, Note_on_c, 0, 78, 0
2, 28199, Note_on_c, 0, 75, 67
2, 28236, Note_on_c, 0, 76, 0
2, 28440, Note_on_c, 0, 49, 48
2, 28441, Note_on_c, 0, 76, 61
2, 28504, Note_on_c, 0, 75, 0
2, 28543, Note_on_c, 0, 44, 0
2, 28596, Note_on_c, 0, 51, 0
2, 28725, Note_on_c, 0, 75, 62
2, 28842, Note_on_c, 0, 76, 0
2, 28992, Note_on_c, 0, 73, 54
2, 29196, Note_on_c, 0, 75, 0
2, 29237, Note_on_c, 0, 47, 44
2, 29511, Note_on_c, 0, 45, 48
2, 29731, Note_on_c, 0, 47, 0
2, 29744, Note_on_c, 0, 75, 58
2, 29850, Note_on_c, 0, 73, 0
2, 29986, Note_on_c, 0, 44, 51
2, 30001, Note_on_c, 0, 73, 62
2, 30127, Note_on_c, 0, 45, 0
2, 30234, Note_on_c, 0, 72, 60
2, 30288, Note_on_c, 0, 73, 0
2, 30477, Note_on_c, 0, 75, 0
2, 30480, Note_on_c, 0, 42, 49
2, 30485, Note_on_c, 0, 73, 65
2, 30562, Note_on_c, 0, 72, 0
2, 30678, Note_on_c, 0, 44, 0
2, 30720, Note_on_c, 0, 76, 61
2, 30721, Note_on_c, 0, 49, 0
2, 30777, Note_on_c, 0, 73, 0
2, 30948, Note_on_c, 0, 49, 50
2, 30955, Note_on_c, 0, 69, 56
2, 31172, Note_on_c, 0, 68, 60
2, 31191, Note_on_c, 0, 76, 0
2, 31241, Note_on_c, 0, 69, 0
2, 31425, Note_on_c, 0, 69, 60
2, 31433, Note_on_c, 0, 54, 49
2, 31487, Note_on_c, 0, 68, 0
2, 31565, Note_on_c, 0, 49, 0
2, 31649, Note_on_c, 0, 72, 62
2, 31709, Note_on_c, 0, 69, 0
2, 31883, Note_on_c, 0, 44, 49
2, 31891, Note_on_c, 0, 66, 63
2, 32014, Note_on_c, 0, 42, 0
2, 32109, Note_on_c, 0, 64, 61
2, 32147, Note_on_c, 0, 66, 0
2, 32180, Note_on_c, 0, 72, 0
2, 32360, Note_on_c, 0, 45, 51
2, 32371, Note_on_c, 0, 66, 57
2, 32448, Note_on_c, 0, 44, 0
2, 32470, Note_on_c, 0, 64, 0
2, 32595, Note_on_c, 0, 72, 63
2, 32633, Note_on_c, 0, 66, 0
2, 32841, Note_on_c, 0, 73, 65
2, 32843, Note_on_c, 0, 42, 49
2, 32844, Note_on_c, 0, 72, 0
2, 32959, Note_on_c, 0, 45, 0
2, 33075, Note_on_c, 0, 75, 63
2, 33116, Note_on_c, 0, 73, 0
2, 33337, Note_on_c, 0, 44, 47
2, 33345, Note_on_c, 0, 76, 55
2, 33386, Note_on_c, 0, 75, 0
2, 33489, Note_on_c, 0, 42, 0
2, 33509, Note_on_c, 0, 75, 60
2, 33553, Note_on_c, 0, 54, 0
2, 33643, Note_on_c, 0, 76, 0
2, 33648, Note_on_c, 0, 73, 62
2, 33669, Note_on_c, 0, 75, 0
2, 33809, Note_on_c, 0, 75, 63
2, 33816, Note_on_c, 0, 54, 48
2, 33828, Note_on_c, 0, 73, 0
2, 33947, Note_on_c, 0, 73, 67
2, 34124, Note_on_c, 0, 72, 61
2, 34161, Note_on_c, 0, 75, 0
2, 34174, Note_on_c, 0, 73, 0
2, 34392, Note_on_c, 0, 73, 64
2, 34395, Note_on_c, 0, 49, 49
2, 34492, Note_on_c, 0, 72, 0
2, 34507, Note_on_c, 0, 44, 0
2, 34608, Note_on_c, 0, 54, 0
2, 34938, Note_on_c, 0, 68, 58
2, 34944, Note_on_c, 0, 52, 40
2, 35184, Note_on_c, 0, 73, 0
2, 35444, Note_on_c, 0, 56, 42
2, 35665, Note_on_c, 0, 52, 0
2, 35938, Note_on_c, 0, 61, 37
2, 35938, Note_on_c, 0, 64, 44
2, 36077, Note_on_c, 0, 56, 0
2, 36174, Note_on_c, 0, 66, 53
2, 36191, Note_on_c, 0, 51, 41
2, 36248, Note_on_c, 0, 68, 0
2, 36282, Note_on_c, 0, 64, 0
2, 36462, Note_on_c, 0, 68, 56
2, 36472, Note_on_c, 0, 52, 42
2, 36487, Note_on_c, 0, 66, 0
2, 36579, Note_on_c, 0, 51, 0
2, 36594, Note_on_c, 0, 49, 0
2, 36623, Note_on_c, 0, 66, 57
2, 36707, Note_on_c, 0, 68, 0
2, 36752, Note_on_c, 0, 61, 0
2, 36775, Note_on_c, 0, 64, 52
2, 36821, Note_on_c, 0, 66, 0
2, 36927, Note_on_c, 0, 56, 43
2, 36931, Note_on_c, 0, 66, 64
2, 36936, Note_on_c, 0, 60, 40
2, 36940, Note_on_c, 0, 64, 0
2, 37073, Note_on_c, 0, 64, 61
2, 37142, Note_on_c, 0, 66, 0
2, 37147, Note_on_c, 0, 60, 0
2, 37157, Note_on_c, 0, 52, 0
2, 37230, Note_on_c, 0, 63, 65
2, 37288, Note_on_c, 0, 64, 0
2, 37478, Note_on_c, 0, 61, 62
2, 37478, Note_on_c, 0, 64, 57
2, 37487, Note_on_c, 0, 49, 49
2, 37560, Note_on_c, 0, 63, 0
2, 37618, Note_on_c, 0, 56, 0
2, 37725, Note_on_c, 0, 66, 58
2, 37777, Note_on_c, 0, 64, 0
2, 37986, Note_on_c, 0, 64, 53
2, 37997, Note_on_c, 0, 56, 60
2, 38098, Note_on_c, 0, 66, 0
2, 38208, Note_on_c, 0, 63, 60
2, 38251, Note_on_c, 0, 64, 0
2, 38294, Note_on_c, 0, 61, 0
2, 38447, Note_on_c, 0, 63, 0
2, 38461, Note_on_c, 0, 64, 58
2, 38696, Note_on_c, 0, 68, 59
2, 38703, Note_on_c, 0, 54, 53
2, 38772, Note_on_c, 0, 56, 0
2, 38778, Note_on_c, 0, 64, 0
2, 38938, Note_on_c, 0, 73, 64
2, 38939, Note_on_c, 0, 52, 56
2, 38942, Note_on_c, 0, 54, 0
2, 38957, Note_on_c, 0, 49, 0
2, 38979, Note_on_c, 0, 68, 0
2, 39157, Note_on_c, 0, 75, 65
2, 39160, Note_on_c, 0, 73, 0
2, 39167, Note_on_c, 0, 47, 53
2, 39408, Note_on_c, 0, 46, 60
2, 39420, Note_on_c, 0, 76, 67
2, 39434, Note_on_c, 0, 75, 0
2, 39506, Note_on_c, 0, 47, 0
2, 39580, Note_on_c, 0, 79, 67
2, 39614, Note_on_c, 0, 76, 0
2, 39666, Note_on_c, 0, 52, 0
2, 39714, Note_on_c, 0, 78, 75
2, 39876, Note_on_c, 0, 49, 56
2, 39880, Note_on_c, 0, 76, 69
2, 39887, Note_on_c, 0, 52, 47
2, 39935, Note_on_c, 0, 79, 0
2, 39965, Note_on_c, 0, 78, 0
2, 40014, Note_on_c, 0, 76, 0
2, 40017, Note_on_c, 0, 74, 67
2, 40143, Note_on_c, 0, 73, 65
2, 40161, Note_on_c, 0, 74, 0
2, 40348, Note_on_c, 0, 71, 66
2, 40362, Note_on_c, 0, 42, 55
2, 40383, Note_on_c, 0, 73, 0
2, 40481, Note_on_c, 0, 46, 0
2, 40498, Note_on_c, 0, 70, 69
2, 40501, Note_on_c, 0, 71, 0
2, 40504, Note_on_c, 0, 49, 0
2, 40601, Note_on_c, 0, 52, 0
2, 40637, Note_on_c, 0, 73, 67
2, 40673, Note_on_c, 0, 70, 0
2, 40865, Note_on_c, 0, 64, 60
2, 40888, Note_on_c, 0, 49, 47
2, 40962, Note_on_c, 0, 73, 0
2, 41349, Note_on_c, 0, 54, 46
2, 41455, Note_on_c, 0, 66, 60
2, 41465, Note_on_c, 0, 64, 0
2, 41479, Note_on_c, 0, 49, 0
2, 41563, Note_on_c, 0, 66, 0
2, 41568, Note_on_c, 0, 64, 55
2, 41655, Note_on_c, 0, 64, 0
2, 41664, Note_on_c, 0, 62, 60
2, 41841, Note_on_c, 0, 49, 45
2, 41850, Note_on_c, 0, 64, 56
2, 41877, Note_on_c, 0, 62, 0
2, 42008, Note_on_c, 0, 64, 0
2, 42054, Note_on_c, 0, 42, 0
2, 42170, Note_on_c, 0, 64, 47
2, 42416, Note_on_c, 0, 46, 46
2, 42574, Note_on_c, 0, 49, 0
2, 42667, Note_on_c, 0, 70, 54
2, 42784, Note_on_c, 0, 64, 0
2, 42924, Note_on_c, 0, 71, 49
2, 42925, Note_on_c, 0, 42, 46
2, 43021, Note_on_c, 0, 70, 0
2, 43024, Note_on_c, 0, 46, 0
2, 43150, Note_on_c, 0, 73, 56
2, 43170, Note_on_c, 0, 71, 0
2, 43431, Note_on_c, 0, 47, 40
2, 43434, Note_on_c, 0, 62, 43
2, 43452, Note_on_c, 0, 73, 0
2, 43519, Note_on_c, 0, 42, 0
2, 43627, Note_on_c, 0, 54, 0
2, 43696, Note_on_c, 0, 62, 0
2, 43705, Note_on_c, 0, 64, 44
2, 43921, Note_on_c, 0, 54, 47
2, 43938, Note_on_c, 0, 62, 51
2, 43983, Note_on_c, 0, 64, 0
2, 44151, Note_on_c, 0, 61, 59
2, 44192, Note_on_c, 0, 62, 0
2, 44410, Note_on_c, 0, 62, 59
2, 44412, Note_on_c, 0, 59, 48
2, 44418, Note_on_c, 0, 61, 0
2, 44480, Note_on_c, 0, 54, 0
2, 44626, Note_on_c, 0, 54, 50
2, 44628, Note_on_c, 0, 66, 65
2, 44719, Note_on_c, 0, 62, 0
2, 44878, Note_on_c, 0, 50, 49
2, 44879, Note_on_c, 0, 71, 59
2, 44936, Note_on_c, 0, 54, 0
2, 44942, Note_on_c, 0, 66, 0
2, 45057, Note_on_c, 0, 59, 0
2, 45101, Note_on_c, 0, 73, 68
2, 45104, Note_on_c, 0, 54, 57
2, 45145, Note_on_c, 0, 71, 0
2, 45247, Note_on_c, 0, 47, 0
2, 45299, Note_on_c, 0, 50, 0
2, 45318, Note_on_c, 0, 73, 0
2, 45328, Note_on_c, 0, 74, 71
2, 45472, Note_on_c, 0, 78, 75
2, 45510, Note_on_c, 0, 74, 0
2, 45519, Note_on_c, 0, 50, 55
2, 45619, Note_on_c, 0, 76, 71
2, 45719, Note_on_c, 0, 78, 0
2, 45771, Note_on_c, 0, 74, 71
2, 45774, Note_on_c, 0, 76, 0
2, 45776, Note_on_c, 0, 44, 62
2, 45861, Note_on_c, 0, 50, 0
2, 45916, Note_on_c, 0, 73, 67
2, 45949, Note_on_c, 0, 74, 0
2, 46017, Note_on_c, 0, 47, 61
2, 46037, Note_on_c, 0, 44, 0
2, 46090, Note_on_c, 0, 54, 0
2, 46096, Note_on_c, 0, 71, 76
2, 46153, Note_on_c, 0, 73, 0
2, 46323, Note_on_c, 0, 40, 60
2, 46325, Note_on_c, 0, 69, 76
2, 46347, Note_on_c, 0, 71, 0
2, 46481, Note_on_c, 0, 47, 0
2, 46504, Note_on_c, 0, 68, 76
2, 46517, Note_on_c, 0, 69, 0
2, 46653, Note_on_c, 0, 71, 74
2, 46685, Note_on_c, 0, 68, 0
2, 46818, Note_on_c, 0, 47, 54
2, 46822, Note_on_c, 0, 62, 67
2, 46937, Note_on_c, 0, 71, 0
2, 47289, Note_on_c, 0, 52, 55
2, 47394, Note_on_c, 0, 64, 69
2, 47395, Note_on_c, 0, 47, 0
2, 47408, Note_on_c, 0, 62, 0
2, 47496, Note_on_c, 0, 62, 71
2, 47508, Note_on_c, 0, 64, 0
2, 47588, Note_on_c, 0, 61, 72
2, 47614, Note_on_c, 0, 62, 0
2, 47778, Note_on_c, 0, 47, 52
2, 47787, Note_on_c, 0, 62, 70
2, 47843, Note_on_c, 0, 61, 0
2, 47957, Note_on_c, 0, 62, 0
2, 48001, Note_on_c, 0, 40, 0
2, 48073, Note_on_c, 0, 62, 75
2, 48318, Note_on_c, 0, 44, 56
2, 48512, Note_on_c, 0, 47, 0
2, 48541, Note_on_c, 0, 68, 67
2, 48621, Note_on_c, 0, 62, 0
2, 48817, Note_on_c, 0, 40, 53
2, 48824, Note_on_c, 0, 69, 65
2, 48870, Note_on_c, 0, 68, 0
2, 48906, Note_on_c, 0, 44, 0
2, 49061, Note_on_c, 0, 71, 66
2, 49069, Note_on_c, 0, 69, 0
2, 49343, Note_on_c, 0, 61, 52
2, 49350, Note_on_c, 0, 45, 39
2, 49378, Note_on_c, 0, 71, 0
2, 49421, Note_on_c, 0, 40, 0
2, 49606, Note_on_c, 0, 52, 0
2, 49625, Note_on_c, 0, 62, 50
2, 49654, Note_on_c, 0, 61, 0
2, 49862, Note_on_c, 0, 52, 43
2, 49865, Note_on_c, 0, 61, 52
2, 49910, Note_on_c, 0, 62, 0
2, 50084, Note_on_c, 0, 59, 47
2, 50110, Note_on_c, 0, 61, 0
2, 50329, Note_on_c, 0, 61, 52
2, 50345, Note_on_c, 0, 59, 0
2, 50351, Note_on_c, 0, 57, 36
2, 50444, Note_on_c, 0, 52, 0
2, 50564, Note_on_c, 0, 61, 0
2, 50577, Note_on_c, 0, 64, 57
2, 50823, Note_on_c, 0, 56, 44
2, 50824, Note_on_c, 0, 69, 58
2, 50875, Note_on_c, 0, 64, 0
2, 51006, Note_on_c, 0, 57, 0
2, 51057, Note_on_c, 0, 71, 57
2, 51135, Note_on_c, 0, 69, 0
2, 51352, Note_on_c, 0, 73, 62
2, 51365, Note_on_c, 0, 57, 39
2, 51409, Note_on_c, 0, 56, 0
2, 51439, Note_on_c, 0, 71, 0
2, 51623, Note_on_c, 0, 52, 21
2, 51642, Note_on_c, 0, 45, 0
2, 51846, Note_on_c, 0, 49, 47
2, 52020, Note_on_c, 0, 52, 0
2, 52069, Note_on_c, 0, 45, 54
2, 52135, Note_on_c, 0, 49, 0
2, 52322, Note_on_c, 0, 50, 56
2, 52371, Note_on_c, 0, 45, 0
2, 52543, Note_on_c, 0, 57, 0
2, 52559, Note_on_c, 0, 67, 60
2, 52633, Note_on_c, 0, 73, 0
2, 52787, Note_on_c, 0, 57, 50
2, 52795, Note_on_c, 0, 66, 68
2, 52830, Note_on_c, 0, 67, 0
2, 53000, Note_on_c, 0, 64, 71
2, 53037, Note_on_c, 0, 66, 0
2, 53258, Note_on_c, 0, 66, 74
2, 53272, Note_on_c, 0, 62, 59
2, 53302, Note_on_c, 0, 64, 0
2, 53456, Note_on_c, 0, 57, 0
2, 53486, Note_on_c, 0, 69, 75
2, 53490, Note_on_c, 0, 66, 0
2, 53715, Note_on_c, 0, 74, 71
2, 53718, Note_on_c, 0, 57, 57
2, 53733, Note_on_c, 0, 54, 52
2, 53780, Note_on_c, 0, 69, 0
2, 53878, Note_on_c, 0, 62, 0
2, 53928, Note_on_c, 0, 76, 80
2, 54064, Note_on_c, 0, 74, 0
2, 54210, Note_on_c, 0, 78, 81
2, 54228, Note_on_c, 0, 51, 60
2, 54271, Note_on_c, 0, 50, 0
2, 54306, Note_on_c, 0, 76, 0
2, 54321, Note_on_c, 0, 57, 0
2, 54366, Note_on_c, 0, 54, 0
2, 54443, Note_on_c, 0, 57, 63
2, 54673, Note_on_c, 0, 47, 69
2, 54720, Note_on_c, 0, 51, 0
2, 54881, Note_on_c, 0, 51, 65
2, 55055, Note_on_c, 0, 47, 0
2, 55150, Note_on_c, 0, 52, 68
2, 55166, Note_on_c, 0, 56, 56
2, 55219, Note_on_c, 0, 57, 0
2, 55265, Note_on_c, 0, 51, 0
2, 55366, Note_on_c, 0, 69, 73
2, 55394, Note_on_c, 0, 78, 0
2, 55604, Note_on_c, 0, 68, 75
2, 55618, Note_on_c, 0, 59, 55
2, 55658, Note_on_c, 0, 69, 0
2, 55809, Note_on_c, 0, 66, 78
2, 55817, Note_on_c, 0, 56, 0
2, 55880, Note_on_c, 0, 68, 0
2, 56070, Note_on_c, 0, 64, 57
2, 56073, Note_on_c, 0, 68, 72
2, 56130, Note_on_c, 0, 66, 0
2, 56277, Note_on_c, 0, 68, 0
2, 56284, Note_on_c, 0, 59, 0
2, 56296, Note_on_c, 0, 71, 73
2, 56513, Note_on_c, 0, 76, 73
2, 56519, Note_on_c, 0, 59, 67
2, 56582, Note_on_c, 0, 71, 0
2, 56715, Note_on_c, 0, 80, 82
2, 56778, Note_on_c, 0, 76, 0
2, 56781, Note_on_c, 0, 64, 0
2, 56971, Note_on_c, 0, 83, 75
2, 56975, Note_on_c, 0, 56, 67
2, 57076, Note_on_c, 0, 80, 0
2, 57116, Note_on_c, 0, 59, 0
2, 57202, Note_on_c, 0, 74, 69
2, 57237, Note_on_c, 0, 52, 0
2, 57264, Note_on_c, 0, 83, 0
2, 57431, Note_on_c, 0, 73, 75
2, 57449, Note_on_c, 0, 52, 70
2, 57467, Note_on_c, 0, 74, 0
2, 57631, Note_on_c, 0, 56, 0
2, 57660, Note_on_c, 0, 71, 75
2, 57711, Note_on_c, 0, 73, 0
2, 57930, Note_on_c, 0, 73, 76
2, 57931, Note_on_c, 0, 57, 67
2, 57938, Note_on_c, 0, 45, 65
2, 57973, Note_on_c, 0, 52, 0
2, 58100, Note_on_c, 0, 71, 0
2, 58165, Note_on_c, 0, 78, 76
2, 58238, Note_on_c, 0, 73, 0
2, 58265, Note_on_c, 0, 45, 0
2, 58383, Note_on_c, 0, 56, 66
2, 58383, Note_on_c, 0, 76, 73
2, 58386, Note_on_c, 0, 47, 68
2, 58521, Note_on_c, 0, 57, 0
2, 58558, Note_on_c, 0, 78, 0
2, 58598, Note_on_c, 0, 75, 77
2, 58616, Note_on_c, 0, 76, 0
2, 58858, Note_on_c, 0, 76, 72
2, 58864, Note_on_c, 0, 49, 67
2, 58895, Note_on_c, 0, 75, 0
2, 58901, Note_on_c, 0, 47, 0
2, 58959, Note_on_c, 0, 56, 0
2, 59089, Note_on_c, 0, 73, 72
2, 59093, Note_on_c, 0, 57, 58
2, 59235, Note_on_c, 0, 49, 0
2, 59321, Note_on_c, 0, 71, 66
2, 59322, Note_on_c, 0, 50, 56
2, 59439, Note_on_c, 0, 57, 0
2, 59490, Note_on_c, 0, 73, 0
2, 59506, Note_on_c, 0, 76, 0
2, 59546, Note_on_c, 0, 69, 67
2, 59548, Note_on_c, 0, 59, 49
2, 59594, Note_on_c, 0, 71, 0
2, 59790, Note_on_c, 0, 69, 0
2, 59791, Note_on_c, 0, 73, 57
2, 59797, Note_on_c, 0, 52, 52
2, 59874, Note_on_c, 0, 59, 0
2, 59907, Note_on_c, 0, 50, 0
2, 60038, Note_on_c, 0, 57, 44
2, 60038, Note_on_c, 0, 64, 51
2, 60078, Note_on_c, 0, 73, 0
2, 60103, Note_on_c, 0, 52, 0
2, 60288, Note_on_c, 0, 52, 45
2, 60291, Note_on_c, 0, 71, 55
2, 60315, Note_on_c, 0, 64, 0
2, 60370, Note_on_c, 0, 57, 0
2, 60531, Note_on_c, 0, 56, 49
2, 60533, Note_on_c, 0, 62, 52
2, 60628, Note_on_c, 0, 71, 0
2, 60664, Note_on_c, 0, 52, 0
2, 60833, Note_on_c, 0, 61, 50
2, 60858, Note_on_c, 0, 57, 41
2, 60888, Note_on_c, 0, 62, 0
2, 60918, Note_on_c, 0, 56, 0
2, 61118, Note_on_c, 0, 64, 46
2, 61171, Note_on_c, 0, 61, 0
2, 61423, Note_on_c, 0, 69, 44
2, 61450, Note_on_c, 0, 64, 0
2, 61667, Note_on_c, 0, 52, 38
2, 61921, Note_on_c, 0, 49, 37
2, 61925, Note_on_c, 0, 57, 0
2, 62026, Note_on_c, 0, 52, 0
2, 62139, Note_on_c, 0, 69, 0
2, 62153, Note_on_c, 0, 64, 42
2, 62165, Note_on_c, 0, 45, 42
2, 62231, Note_on_c, 0, 49, 0
2, 62377, Note_on_c, 0, 49, 44
2, 62395, Note_on_c, 0, 69, 50
2, 62503, Note_on_c, 0, 64, 0
2, 62518, Note_on_c, 0, 45, 0
2, 62613, Note_on_c, 0, 52, 49
2, 62617, Note_on_c, 0, 71, 53
2, 62678, Note_on_c, 0, 69, 0
2, 62741, Note_on_c, 0, 49, 0
2, 62867, Note_on_c, 0, 57, 45
2, 62867, Note_on_c, 0, 73, 49
2, 62872, Note_on_c, 0, 52, 0
2, 62927, Note_on_c, 0, 71, 0
2, 63109, Note_on_c, 0, 69, 48
2, 63225, Note_on_c, 0, 73, 0
2, 63379, Note_on_c, 0, 60, 38
2, 63383, Note_on_c, 0, 66, 48
2, 63386, Note_on_c, 0, 69, 0
2, 63636, Note_on_c, 0, 75, 54
2, 63852, Note_on_c, 0, 66, 0
2, 63966, Note_on_c, 0, 59, 34
2, 63966, Note_on_c, 0, 76, 47
2, 63985, Note_on_c, 0, 55, 42
2, 64025, Note_on_c, 0, 75, 0
2, 64082, Note_on_c, 0, 60, 0
2, 64123, Note_on_c, 0, 57, 0
2, 64296, Note_on_c, 0, 71, 41
2, 64421, Note_on_c, 0, 76, 0
2, 64510, Note_on_c, 0, 57, 39
2, 64526, Note_on_c, 0, 54, 42
2, 64565, Note_on_c, 0, 59, 0
2, 64645, Note_on_c, 0, 55, 0
2, 64716, Note_on_c, 0, 75, 61
2, 64819, Note_on_c, 0, 71, 0
2, 64995, Note_on_c, 0, 55, 34
2, 64999, Note_on_c, 0, 76, 56
2, 65004, Note_on_c, 0, 52, 46
2, 65065, Note_on_c, 0, 75, 0
2, 65097, Note_on_c, 0, 57, 0
2, 65132, Note_on_c, 0, 54, 0
2, 65240, Note_on_c, 0, 71, 60
2, 65241, Note_on_c, 0, 55, 0
2, 65395, Note_on_c, 0, 76, 0
2, 65458, Note_on_c, 0, 55, 45
2, 65465, Note_on_c, 0, 59, 42
2, 65557, Note_on_c, 0, 52, 0
2, 65687, Note_on_c, 0, 59, 0
2, 65688, Note_on_c, 0, 75, 64
2, 65789, Note_on_c, 0, 71, 0
2, 65951, Note_on_c, 0, 61, 48
2, 65960, Note_on_c, 0, 49, 45
2, 65969, Note_on_c, 0, 76, 60
2, 66097, Note_on_c, 0, 55, 0
2, 66098, Note_on_c, 0, 75, 0
2, 66185, Note_on_c, 0, 71, 58
2, 66393, Note_on_c, 0, 76, 0
2, 66403, Note_on_c, 0, 70, 64
2, 66411, Note_on_c, 0, 54, 47
2, 66461, Note_on_c, 0, 71, 0
2, 66585, Note_on_c, 0, 61, 0
2, 66642, Note_on_c, 0, 76, 62
2, 66706, Note_on_c, 0, 70, 0
2, 66937, Note_on_c, 0, 74, 51
2, 66961, Note_on_c, 0, 59, 40
2, 67051, Note_on_c, 0, 54, 0
2, 67128, Note_on_c, 0, 49, 0
2, 67192, Note_on_c, 0, 73, 53
2, 67306, Note_on_c, 0, 74, 0
2, 67331, Note_on_c, 0, 76, 0
2, 67495, Note_on_c, 0, 71, 34
2, 67665, Note_on_c, 0, 73, 0
2, 67752, Note_on_c, 0, 54, 26
2, 67942, Note_on_c, 0, 59, 0
2, 68003, Note_on_c, 0, 50, 44
2, 68135, Note_on_c, 0, 54, 0
2, 68217, Note_on_c, 0, 66, 51
2, 68226, Note_on_c, 0, 47, 46
2, 68278, Note_on_c, 0, 50, 0
2, 68278, Note_on_c, 0, 71, 0
2, 68440, Note_on_c, 0, 50, 49
2, 68456, Note_on_c, 0, 71, 52
2, 68541, Note_on_c, 0, 66, 0
2, 68566, Note_on_c, 0, 47, 0
2, 68660, Note_on_c, 0, 73, 67
2, 68668, Note_on_c, 0, 54, 50
2, 68729, Note_on_c, 0, 71, 0
2, 68771, Note_on_c, 0, 50, 0
2, 68898, Note_on_c, 0, 74, 63
2, 68919, Note_on_c, 0, 59, 48
2, 68935, Note_on_c, 0, 54, 0
2, 68953, Note_on_c, 0, 73, 0
2, 69130, Note_on_c, 0, 71, 63
2, 69186, Note_on_c, 0, 74, 0
2, 69381, Note_on_c, 0, 68, 60
2, 69396, Note_on_c, 0, 62, 46
2, 69412, Note_on_c, 0, 71, 0
2, 69603, Note_on_c, 0, 77, 66
2, 69735, Note_on_c, 0, 68, 0
2, 69916, Note_on_c, 0, 78, 67
2, 69929, Note_on_c, 0, 61, 40
2, 69932, Note_on_c, 0, 57, 37
2, 69999, Note_on_c, 0, 77, 0
2, 70030, Note_on_c, 0, 62, 0
2, 70084, Note_on_c, 0, 59, 0
2, 70194, Note_on_c, 0, 73, 61
2, 70283, Note_on_c, 0, 78, 0
2, 70407, Note_on_c, 0, 59, 41
2, 70420, Note_on_c, 0, 56, 51
2, 70487, Note_on_c, 0, 57, 0
2, 70489, Note_on_c, 0, 61, 0
2, 70636, Note_on_c, 0, 77, 72
2, 70825, Note_on_c, 0, 73, 0
2, 70874, Note_on_c, 0, 57, 46
2, 70875, Note_on_c, 0, 54, 47
2, 70882, Note_on_c, 0, 78, 73
2, 70955, Note_on_c, 0, 59, 0
2, 70971, Note_on_c, 0, 77, 0
2, 71031, Note_on_c, 0, 56, 0
2, 71122, Note_on_c, 0, 73, 68
2, 71130, Note_on_c, 0, 57, 0
2, 71222, Note_on_c, 0, 78, 0
2, 71338, Note_on_c, 0, 57, 50
2, 71351, Note_on_c, 0, 61, 53
2, 71428, Note_on_c, 0, 54, 0
2, 71547, Note_on_c, 0, 77, 69
2, 71565, Note_on_c, 0, 61, 0
2, 71605, Note_on_c, 0, 73, 0
2, 71798, Note_on_c, 0, 63, 53
2, 71807, Note_on_c, 0, 78, 69
2, 71811, Note_on_c, 0, 51, 44
2, 71865, Note_on_c, 0, 77, 0
2, 71908, Note_on_c, 0, 57, 0
2, 72018, Note_on_c, 0, 73, 68
2, 72131, Note_on_c, 0, 78, 0
2, 72266, Note_on_c, 0, 72, 62
2, 72268, Note_on_c, 0, 56, 51
2, 72329, Note_on_c, 0, 73, 0
2, 72428, Note_on_c, 0, 63, 0
2, 72489, Note_on_c, 0, 78, 71
2, 72527, Note_on_c, 0, 72, 0
2, 72789, Note_on_c, 0, 76, 64
2, 72799, Note_on_c, 0, 61, 50
2, 72902, Note_on_c, 0, 56, 0
2, 72910, Note_on_c, 0, 51, 0
2, 73033, Note_on_c, 0, 75, 61
2, 73104, Note_on_c, 0, 76, 0
2, 73204, Note_on_c, 0, 78, 0
2, 73265, Note_on_c, 0, 73, 60
2, 73458, Note_on_c, 0, 75, 0
2, 73470, Note_on_c, 0, 56, 53
2, 73715, Note_on_c, 0, 52, 53
2, 73809, Note_on_c, 0, 61, 0
2, 73911, Note_on_c, 0, 49, 51
2, 73914, Note_on_c, 0, 68, 66
2, 73967, Note_on_c, 0, 73, 0
2, 73990, Note_on_c, 0, 56, 0
2, 74002, Note_on_c, 0, 52, 0
2, 74135, Note_on_c, 0, 73, 66
2, 74138, Note_on_c, 0, 52, 60
2, 74243, Note_on_c, 0, 68, 0
2, 74339, Note_on_c, 0, 75, 74
2, 74352, Note_on_c, 0, 56, 59
2, 74417, Note_on_c, 0, 73, 0
2, 74462, Note_on_c, 0, 52, 0
2, 74597, Note_on_c, 0, 76, 68
2, 74610, Note_on_c, 0, 61, 68
2, 74632, Note_on_c, 0, 49, 0
2, 74669, Note_on_c, 0, 75, 0
2, 74772, Note_on_c, 0, 56, 0
2, 74836, Note_on_c, 0, 73, 71
2, 74905, Note_on_c, 0, 76, 0
2, 75063, Note_on_c, 0, 52, 62
2, 75063, Note_on_c, 0, 70, 67
2, 75150, Note_on_c, 0, 73, 0
2, 75289, Note_on_c, 0, 79, 69
2, 75383, Note_on_c, 0, 70, 0
2, 75548, Note_on_c, 0, 78, 72
2, 75566, Note_on_c, 0, 50, 50
2, 75639, Note_on_c, 0, 52, 0
2, 75735, Note_on_c, 0, 61, 0
2, 75771, Note_on_c, 0, 74, 61
2, 75877, Note_on_c, 0, 79, 0
2, 75964, Note_on_c, 0, 78, 0
2, 75980, Note_on_c, 0, 54, 51
2, 75991, Note_on_c, 0, 71, 57
2, 76040, Note_on_c, 0, 74, 0
2, 76086, Note_on_c, 0, 50, 0
2, 76183, Note_on_c, 0, 70, 65
2, 76208, Note_on_c, 0, 71, 0
2, 76419, Note_on_c, 0, 71, 66
2, 76426, Note_on_c, 0, 50, 54
2, 76562, Note_on_c, 0, 54, 0
2, 76566, Note_on_c, 0, 70, 0
2, 76634, Note_on_c, 0, 66, 71
2, 76643, Note_on_c, 0, 71, 0
2, 76645, Note_on_c, 0, 47, 62
2, 76690, Note_on_c, 0, 50, 0
2, 76844, Note_on_c, 0, 71, 72
2, 76846, Note_on_c, 0, 50, 66
2, 76870, Note_on_c, 0, 66, 0
2, 77012, Note_on_c, 0, 47, 0
2, 77052, Note_on_c, 0, 74, 75
2, 77063, Note_on_c, 0, 54, 65
2, 77103, Note_on_c, 0, 71, 0
2, 77182, Note_on_c, 0, 50, 0
2, 77301, Note_on_c, 0, 78, 78
2, 77307, Note_on_c, 0, 59, 66
2, 77343, Note_on_c, 0, 74, 0
2, 77428, Note_on_c, 0, 54, 0
2, 77521, Note_on_c, 0, 74, 81
2, 77590, Note_on_c, 0, 78, 0
2, 77758, Note_on_c, 0, 54, 59
2, 77760, Note_on_c, 0, 72, 71
2, 77764, Note_on_c, 0, 51, 55
2, 77797, Note_on_c, 0, 74, 0
2, 77886, Note_on_c, 0, 59, 0
2, 78000, Note_on_c, 0, 81, 77
2, 78119, Note_on_c, 0, 72, 0
2, 78269, Note_on_c, 0, 80, 76
2, 78276, Note_on_c, 0, 61, 63
2, 78291, Note_on_c, 0, 52, 58
2, 78348, Note_on_c, 0, 54, 0
2, 78513, Note_on_c, 0, 76, 72
2, 78595, Note_on_c, 0, 80, 0
2, 78605, Note_on_c, 0, 51, 0
2, 78654, Note_on_c, 0, 81, 0
2, 78732, Note_on_c, 0, 73, 77
2, 78745, Note_on_c, 0, 56, 63
2, 78843, Note_on_c, 0, 52, 0
2, 78936, Note_on_c, 0, 72, 72
2, 78973, Note_on_c, 0, 73, 0
2, 79031, Note_on_c, 0, 76, 0
2, 79165, Note_on_c, 0, 73, 77
2, 79166, Note_on_c, 0, 52, 58
2, 79180, Note_on_c, 0, 72, 0
2, 79300, Note_on_c, 0, 61, 0
2, 79345, Note_on_c, 0, 56, 0
2, 79383, Note_on_c, 0, 73, 0
2, 79386, Note_on_c, 0, 68, 79
2, 79389, Note_on_c, 0, 49, 65
2, 79447, Note_on_c, 0, 52, 0
2, 79602, Note_on_c, 0, 52, 63
2, 79606, Note_on_c, 0, 73, 79
2, 79684, Note_on_c, 0, 68, 0
2, 79808, Note_on_c, 0, 76, 82
2, 79810, Note_on_c, 0, 56, 70
2, 79880, Note_on_c, 0, 52, 0
2, 79886, Note_on_c, 0, 73, 0
2, 80050, Note_on_c, 0, 80, 84
2, 80059, Note_on_c, 0, 61, 70
2, 80083, Note_on_c, 0, 76, 0
2, 80153, Note_on_c, 0, 49, 0
2, 80230, Note_on_c, 0, 56, 0
2, 80267, Note_on_c, 0, 76, 85
2, 80330, Note_on_c, 0, 80, 0
2, 80521, Note_on_c, 0, 56, 61
2, 80521, Note_on_c, 0, 74, 77
2, 80522, Note_on_c, 0, 53, 62
2, 80536, Note_on_c, 0, 76, 0
2, 80725, Note_on_c, 0, 61, 0
2, 80764, Note_on_c, 0, 83, 81
2, 80828, Note_on_c, 0, 74, 0
2, 81058, Note_on_c, 0, 81, 81
2, 81073, Note_on_c, 0, 54, 69
2, 81233, Note_on_c, 0, 56, 0
2, 81242, Note_on_c, 0, 53, 0
2, 81321, Note_on_c, 0, 83, 0
2, 81326, Note_on_c, 0, 78, 85
2, 81454, Note_on_c, 0, 81, 0
2, 81551, Note_on_c, 0, 56, 67
2, 81774, Note_on_c, 0, 77, 76
2, 81844, Note_on_c, 0, 78, 0
2, 82041, Note_on_c, 0, 78, 85
2, 82042, Note_on_c, 0, 57, 62
2, 82107, Note_on_c, 0, 56, 0
2, 82116, Note_on_c, 0, 77, 0
2, 82296, Note_on_c, 0, 74, 76
2, 82471, Note_on_c, 0, 78, 0
2, 82531, Note_on_c, 0, 56, 60
2, 82551, Note_on_c, 0, 52, 56
2, 82611, Note_on_c, 0, 54, 0
2, 82742, Note_on_c, 0, 57, 0
2, 82760, Note_on_c, 0, 73, 69
2, 82853, Note_on_c, 0, 74, 0
2, 82943, Note_on_c, 0, 73, 0
2, 83037, Note_on_c, 0, 73, 67
2, 83039, Note_on_c, 0, 51, 51
2, 83042, Note_on_c, 0, 54, 52
2, 83067, Note_on_c, 0, 52, 0
2, 83184, Note_on_c, 0, 56, 0
2, 83303, Note_on_c, 0, 72, 66
2, 83364, Note_on_c, 0, 73, 0
2, 83585, Note_on_c, 0, 56, 50
2, 83598, Note_on_c, 0, 50, 48
2, 83725, Note_on_c, 0, 51, 0
2, 83763, Note_on_c, 0, 54, 0
2, 83886, Note_on_c, 0, 78, 72
2, 83938, Note_on_c, 0, 72, 0
2, 84127, Note_on_c, 0, 78, 0
2, 84351, Note_on_c, 0, 78, 60
2, 84353, Note_on_c, 0, 57, 46
2, 84357, Note_on_c, 0, 73, 46
2, 84363, Note_on_c, 0, 49, 47
2, 84443, Note_on_c, 0, 50, 0
2, 84517, Note_on_c, 0, 56, 0
2, 85190, Note_on_c, 0, 77, 41
2, 85207, Note_on_c, 0, 56, 39
2, 85352, Note_on_c, 0, 78, 0
2, 85437, Note_on_c, 0, 57, 0
2, 86363, Note_on_c, 0, 73, 0
2, 86388, Note_on_c, 0, 77, 0
2, 86423, Note_on_c, 0, 56, 0
2, 86433, Note_on_c, 0, 49, 0
2, 87525, Note_on_c, 0, 47, 32
2, 87722, Note_on_c, 0, 49, 47
2, 87846, Note_on_c, 0, 47, 0
2, 87906, Note_on_c, 0, 50, 46
2, 87918, Note_on_c, 0, 49, 0
2, 88062, Note_on_c, 0, 49, 56
2, 88106, Note_on_c, 0, 50, 0
2, 88219, Note_on_c, 0, 47, 62
2, 88282, Note_on_c, 0, 49, 0
2, 88377, Note_on_c, 0, 45, 53
2, 88421, Note_on_c, 0, 47, 0
2, 88567, Note_on_c, 0, 47, 59
2, 88578, Note_on_c, 0, 45, 0
2, 88743, Note_on_c, 0, 45, 55
2, 88814, Note_on_c, 0, 47, 0
2, 88933, Note_on_c, 0, 44, 57
2, 89009, Note_on_c, 0, 45, 0
2, 89278, Note_on_c, 0, 42, 52
2, 89279, Note_on_c, 0, 78, 72
2, 89361, Note_on_c, 0, 44, 0
2, 89596, Note_on_c, 0, 42, 0
2, 89955, Note_on_c, 0, 73, 60
2, 89968, Note_on_c, 0, 57, 37
2, 89977, Note_on_c, 0, 54, 41
2, 90261, Note_on_c, 0, 78, 0
2, 90480, Note_on_c, 0, 61, 49
2, 90719, Note_on_c, 0, 57, 0
2, 91015, Note_on_c, 0, 69, 50
2, 91035, Note_on_c, 0, 66, 41
2, 91271, Note_on_c, 0, 71, 58
2, 91283, Note_on_c, 0, 56, 43
2, 91342, Note_on_c, 0, 73, 0
2, 91368, Note_on_c, 0, 61, 0
2, 91414, Note_on_c, 0, 69, 0
2, 91556, Note_on_c, 0, 73, 61
2, 91569, Note_on_c, 0, 57, 38
2, 91611, Note_on_c, 0, 71, 0
2, 91671, Note_on_c, 0, 54, 0
2, 91707, Note_on_c, 0, 56, 0
2, 91753, Note_on_c, 0, 71, 59
2, 91857, Note_on_c, 0, 73, 0
2, 91898, Note_on_c, 0, 69, 60
2, 91913, Note_on_c, 0, 66, 0
2, 91957, Note_on_c, 0, 71, 0
2, 92067, Note_on_c, 0, 71, 69
2, 92068, Note_on_c, 0, 65, 41
2, 92076, Note_on_c, 0, 61, 36
2, 92087, Note_on_c, 0, 69, 0
2, 92114, Note_on_c, 0, 65, 0
2, 92114, Note_on_c, 0, 65, 4
2, 92212, Note_on_c, 0, 69, 71
2, 92275, Note_on_c, 0, 71, 0
2, 92308, Note_on_c, 0, 65, 0
2, 92366, Note_on_c, 0, 68, 73
2, 92368, Note_on_c, 0, 57, 0
2, 92461, Note_on_c, 0, 69, 0
2, 92598, Note_on_c, 0, 69, 61
2, 92610, Note_on_c, 0, 66, 65
2, 92625, Note_on_c, 0, 54, 49
2, 92673, Note_on_c, 0, 68, 0
2, 92758, Note_on_c, 0, 61, 0
2, 92865, Note_on_c, 0, 71, 63
2, 92928, Note_on_c, 0, 69, 0
2, 93123, Note_on_c, 0, 61, 60
2, 93123, Note_on_c, 0, 69, 58
2, 93224, Note_on_c, 0, 71, 0
2, 93346, Note_on_c, 0, 68, 62
2, 93402, Note_on_c, 0, 69, 0
2, 93551, Note_on_c, 0, 66, 0
2, 93608, Note_on_c, 0, 69, 60
2, 93620, Note_on_c, 0, 68, 0
2, 93825, Note_on_c, 0, 73, 59
2, 93987, Note_on_c, 0, 69, 0
2, 94068, Note_on_c, 0, 78, 64
2, 94077, Note_on_c, 0, 57, 49
2, 94169, Note_on_c, 0, 73, 0
2, 94259, Note_on_c, 0, 61, 0
2, 94294, Note_on_c, 0, 80, 65
2, 94297, Note_on_c, 0, 59, 48
2, 94345, Note_on_c, 0, 78, 0
2, 94395, Note_on_c, 0, 57, 0
2, 94543, Note_on_c, 0, 61, 56
2, 94545, Note_on_c, 0, 81, 61
2, 94581, Note_on_c, 0, 59, 0
2, 94584, Note_on_c, 0, 80, 0
2, 94703, Note_on_c, 0, 80, 70
2, 94719, Note_on_c, 0, 59, 58
2, 94804, Note_on_c, 0, 61, 0
2, 94851, Note_on_c, 0, 57, 61
2, 94857, Note_on_c, 0, 78, 68
2, 94868, Note_on_c, 0, 81, 0
2, 94894, Note_on_c, 0, 59, 0
2, 94920, Note_on_c, 0, 80, 0
2, 95001, Note_on_c, 0, 57, 0
2, 95013, Note_on_c, 0, 80, 64
2, 95025, Note_on_c, 0, 59, 54
2, 95037, Note_on_c, 0, 78, 0
2, 95156, Note_on_c, 0, 78, 73
2, 95166, Note_on_c, 0, 57, 54
2, 95213, Note_on_c, 0, 59, 0
2, 95273, Note_on_c, 0, 80, 0
2, 95306, Note_on_c, 0, 56, 57
2, 95316, Note_on_c, 0, 77, 68
2, 95344, Note_on_c, 0, 57, 0
2, 95355, Note_on_c, 0, 78, 0
2, 95569, Note_on_c, 0, 78, 69
2, 95580, Note_on_c, 0, 57, 48
2, 95662, Note_on_c, 0, 77, 0
2, 95674, Note_on_c, 0, 56, 0
2, 95876, Note_on_c, 0, 73, 46
2, 96102, Note_on_c, 0, 59, 41
2, 96114, Note_on_c, 0, 56, 44
2, 96136, Note_on_c, 0, 78, 0
2, 96205, Note_on_c, 0, 57, 0
2, 96306, Note_on_c, 0, 54, 0
2, 96329, Note_on_c, 0, 77, 64
2, 96607, Note_on_c, 0, 78, 69
2, 96626, Note_on_c, 0, 73, 0
2, 96630, Note_on_c, 0, 61, 41
2, 96632, Note_on_c, 0, 57, 36
2, 96706, Note_on_c, 0, 56, 0
2, 96727, Note_on_c, 0, 77, 0
2, 96742, Note_on_c, 0, 59, 0
2, 96863, Note_on_c, 0, 73, 61
2, 97080, Note_on_c, 0, 78, 0
2, 97112, Note_on_c, 0, 59, 47
2, 97123, Note_on_c, 0, 56, 43
2, 97281, Note_on_c, 0, 57, 0
2, 97336, Note_on_c, 0, 77, 66
2, 97341, Note_on_c, 0, 61, 0
2, 97422, Note_on_c, 0, 56, 0
2, 97584, Note_on_c, 0, 73, 0
2, 97623, Note_on_c, 0, 78, 74
2, 97631, Note_on_c, 0, 57, 50
2, 97639, Note_on_c, 0, 54, 44
2, 97660, Note_on_c, 0, 77, 0
2, 97844, Note_on_c, 0, 59, 0
2, 97878, Note_on_c, 0, 74, 68
2, 97985, Note_on_c, 0, 78, 0
2, 98110, Note_on_c, 0, 73, 69
2, 98116, Note_on_c, 0, 55, 51
2, 98137, Note_on_c, 0, 52, 50
2, 98145, Note_on_c, 0, 74, 0
2, 98205, Note_on_c, 0, 54, 0
2, 98222, Note_on_c, 0, 57, 0
2, 98351, Note_on_c, 0, 82, 76
2, 98533, Note_on_c, 0, 73, 0
2, 98675, Note_on_c, 0, 54, 52
2, 98679, Note_on_c, 0, 83, 68
2, 98687, Note_on_c, 0, 50, 49
2, 98755, Note_on_c, 0, 82, 0
2, 98796, Note_on_c, 0, 52, 0
2, 98804, Note_on_c, 0, 55, 0
2, 98968, Note_on_c, 0, 78, 73
2, 99115, Note_on_c, 0, 83, 0
2, 99187, Note_on_c, 0, 52, 58
2, 99201, Note_on_c, 0, 49, 57
2, 99290, Note_on_c, 0, 54, 0
2, 99307, Note_on_c, 0, 50, 0
2, 99434, Note_on_c, 0, 82, 75
2, 99605, Note_on_c, 0, 78, 0
2, 99705, Note_on_c, 0, 83, 68
2, 99712, Note_on_c, 0, 54, 49
2, 99722, Note_on_c, 0, 50, 51
2, 99769, Note_on_c, 0, 49, 0
2, 99775, Note_on_c, 0, 52, 0
2, 99793, Note_on_c, 0, 82, 0
2, 99969, Note_on_c, 0, 78, 74
2, 100081, Note_on_c, 0, 83, 0
2, 100220, Note_on_c, 0, 61, 59
2, 100222, Note_on_c, 0, 52, 48
2, 100339, Note_on_c, 0, 50, 0
2, 100365, Note_on_c, 0, 54, 0
2, 100451, Note_on_c, 0, 82, 73
2, 100600, Note_on_c, 0, 78, 0
2, 100721, Note_on_c, 0, 54, 48
2, 100723, Note_on_c, 0, 83, 67
2, 100738, Note_on_c, 0, 50, 44
2, 100798, Note_on_c, 0, 82, 0
2, 100835, Note_on_c, 0, 52, 0
2, 100895, Note_on_c, 0, 81, 71
2, 100926, Note_on_c, 0, 61, 0
2, 101041, Note_on_c, 0, 79, 66
2, 101056, Note_on_c, 0, 83, 0
2, 101088, Note_on_c, 0, 81, 0
2, 101209, Note_on_c, 0, 81, 67
2, 101213, Note_on_c, 0, 49, 52
2, 101244, Note_on_c, 0, 79, 0
2, 101296, Note_on_c, 0, 50, 0
2, 101370, Note_on_c, 0, 79, 65
2, 101421, Note_on_c, 0, 81, 0
2, 101522, Note_on_c, 0, 78, 65
2, 101546, Note_on_c, 0, 79, 0
2, 101795, Note_on_c, 0, 79, 50
2, 101803, Note_on_c, 0, 59, 32
2, 101804, Note_on_c, 0, 47, 37
2, 101859, Note_on_c, 0, 78, 0
2, 101880, Note_on_c, 0, 54, 0
2, 101922, Note_on_c, 0, 49, 0
2, 102074, Note_on_c, 0, 47, 0
2, 102108, Note_on_c, 0, 74, 46
2, 102157, Note_on_c, 0, 59, 0
2, 102280, Note_on_c, 0, 79, 0
2, 102443, Note_on_c, 0, 59, 17
2, 102445, Note_on_c, 0, 62, 38
2, 102718, Note_on_c, 0, 78, 52
2, 102773, Note_on_c, 0, 62, 0
2, 102781, Note_on_c, 0, 59, 0
2, 102889, Note_on_c, 0, 74, 0
2, 102971, Note_on_c, 0, 79, 54
2, 102986, Note_on_c, 0, 62, 35
2, 103000, Note_on_c, 0, 59, 37
2, 103059, Note_on_c, 0, 78, 0
2, 103247, Note_on_c, 0, 74, 51
2, 103288, Note_on_c, 0, 59, 0
2, 103298, Note_on_c, 0, 62, 0
2, 103399, Note_on_c, 0, 79, 0
2, 103492, Note_on_c, 0, 62, 36
2, 103502, Note_on_c, 0, 59, 38
2, 103735, Note_on_c, 0, 78, 57
2, 103808, Note_on_c, 0, 59, 0
2, 103821, Note_on_c, 0, 62, 0
2, 103903, Note_on_c, 0, 74, 0
2, 104025, Note_on_c, 0, 79, 50
2, 104050, Note_on_c, 0, 62, 33
2, 104065, Note_on_c, 0, 59, 36
2, 104107, Note_on_c, 0, 78, 0
2, 104203, Note_on_c, 0, 81, 56
2, 104268, Note_on_c, 0, 79, 0
2, 104362, Note_on_c, 0, 59, 0
2, 104368, Note_on_c, 0, 62, 0
2, 104370, Note_on_c, 0, 83, 58
2, 104408, Note_on_c, 0, 81, 0
2, 104524, Note_on_c, 0, 81, 66
2, 104530, Note_on_c, 0, 62, 38
2, 104539, Note_on_c, 0, 59, 40
2, 104679, Note_on_c, 0, 79, 66
2, 104746, Note_on_c, 0, 83, 0
2, 104760, Note_on_c, 0, 62, 0
2, 104786, Note_on_c, 0, 81, 0
2, 104817, Note_on_c, 0, 59, 0
2, 104837, Note_on_c, 0, 78, 69
2, 104888, Note_on_c, 0, 79, 0
2, 105032, Note_on_c, 0, 61, 46
2, 105037, Note_on_c, 0, 77, 59
2, 105038, Note_on_c, 0, 59, 43
2, 105086, Note_on_c, 0, 78, 0
2, 105200, Note_on_c, 0, 78, 69
2, 105285, Note_on_c, 0, 77, 0
2, 105355, Note_on_c, 0, 80, 69
2, 105383, Note_on_c, 0, 78, 0
2, 105511, Note_on_c, 0, 78, 67
2, 105587, Note_on_c, 0, 80, 0
2, 105667, Note_on_c, 0, 77, 66
2, 105674, Note_on_c, 0, 78, 0
2, 105811, Note_on_c, 0, 75, 69
2, 105823, Note_on_c, 0, 77, 0
2, 105964, Note_on_c, 0, 73, 70
2, 105992, Note_on_c, 0, 61, 0
2, 106010, Note_on_c, 0, 59, 0
2, 106033, Note_on_c, 0, 75, 0
2, 106111, Note_on_c, 0, 71, 67
2, 106157, Note_on_c, 0, 73, 0
2, 106273, Note_on_c, 0, 73, 76
2, 106328, Note_on_c, 0, 71, 0
2, 106427, Note_on_c, 0, 56, 63
2, 106428, Note_on_c, 0, 74, 67
2, 106441, Note_on_c, 0, 53, 58
2, 106472, Note_on_c, 0, 73, 0
2, 106581, Note_on_c, 0, 73, 79
2, 106665, Note_on_c, 0, 74, 0
2, 106726, Note_on_c, 0, 71, 71
2, 106824, Note_on_c, 0, 73, 0
2, 106905, Note_on_c, 0, 69, 71
2, 106911, Note_on_c, 0, 61, 57
2, 106912, Note_on_c, 0, 54, 59
2, 106952, Note_on_c, 0, 71, 0
2, 106966, Note_on_c, 0, 53, 0
2, 107054, Note_on_c, 0, 56, 0
2, 107077, Note_on_c, 0, 71, 73
2, 107120, Note_on_c, 0, 69, 0
2, 107217, Note_on_c, 0, 73, 78
2, 107266, Note_on_c, 0, 71, 0
2, 107380, Note_on_c, 0, 71, 67
2, 107386, Note_on_c, 0, 49, 67
2, 107441, Note_on_c, 0, 73, 0
2, 107526, Note_on_c, 0, 69, 74
2, 107527, Note_on_c, 0, 71, 0
2, 107536, Note_on_c, 0, 54, 0
2, 107665, Note_on_c, 0, 68, 76
2, 107673, Note_on_c, 0, 69, 0
2, 107905, Note_on_c, 0, 68, 0
2, 107906, Note_on_c, 0, 50, 59
2, 107908, Note_on_c, 0, 66, 78
2, 107997, Note_on_c, 0, 49, 0
2, 108090, Note_on_c, 0, 61, 0
2, 108202, Note_on_c, 0, 77, 74
2, 108340, Note_on_c, 0, 66, 0
2, 108459, Note_on_c, 0, 61, 62
2, 108673, Note_on_c, 0, 78, 76
2, 108763, Note_on_c, 0, 77, 0
2, 108942, Note_on_c, 0, 59, 58
2, 108948, Note_on_c, 0, 68, 66
2, 108977, Note_on_c, 0, 61, 0
2, 109048, Note_on_c, 0, 78, 0
2, 109119, Note_on_c, 0, 50, 0
2, 109199, Note_on_c, 0, 78, 71
2, 109321, Note_on_c, 0, 68, 0
2, 109422, Note_on_c, 0, 50, 63
2, 109627, Note_on_c, 0, 77, 72
2, 109932, Note_on_c, 0, 70, 68
2, 109943, Note_on_c, 0, 49, 54
2, 109994, Note_on_c, 0, 77, 0
2, 109996, Note_on_c, 0, 50, 0
2, 110199, Note_on_c, 0, 76, 66
2, 110305, Note_on_c, 0, 70, 0
2, 110461, Note_on_c, 0, 58, 48
2, 110479, Note_on_c, 0, 55, 39
2, 110586, Note_on_c, 0, 59, 0
2, 110691, Note_on_c, 0, 75, 63
2, 110708, Note_on_c, 0, 49, 0
2, 110742, Note_on_c, 0, 76, 0
2, 110771, Note_on_c, 0, 78, 0
2, 110875, Note_on_c, 0, 75, 0
2, 111019, Note_on_c, 0, 60, 45
2, 111021, Note_on_c, 0, 54, 49
2, 111024, Note_on_c, 0, 75, 57
2, 111136, Note_on_c, 0, 55, 0
2, 111183, Note_on_c, 0, 76, 64
2, 111187, Note_on_c, 0, 58, 0
2, 111204, Note_on_c, 0, 75, 0
2, 111308, Note_on_c, 0, 78, 68
2, 111342, Note_on_c, 0, 76, 0
2, 111471, Note_on_c, 0, 76, 68
2, 111486, Note_on_c, 0, 61, 52
2, 111579, Note_on_c, 0, 60, 0
2, 111645, Note_on_c, 0, 75, 67
2, 111733, Note_on_c, 0, 76, 0
2, 111752, Note_on_c, 0, 78, 0
2, 111779, Note_on_c, 0, 73, 70
2, 111849, Note_on_c, 0, 75, 0
2, 111973, Note_on_c, 0, 72, 64
2, 111978, Note_on_c, 0, 63, 58
2, 112009, Note_on_c, 0, 73, 0
2, 112057, Note_on_c, 0, 61, 0
2, 112130, Note_on_c, 0, 73, 66
2, 112192, Note_on_c, 0, 72, 0
2, 112295, Note_on_c, 0, 75, 68
2, 112324, Note_on_c, 0, 73, 0
2, 112458, Note_on_c, 0, 52, 53
2, 112460, Note_on_c, 0, 73, 67
2, 112469, Note_on_c, 0, 56, 52
2, 112510, Note_on_c, 0, 54, 0
2, 112518, Note_on_c, 0, 75, 0
2, 112604, Note_on_c, 0, 73, 0
2, 112619, Note_on_c, 0, 72, 68
2, 112652, Note_on_c, 0, 63, 0
2, 112763, Note_on_c, 0, 70, 63
2, 112794, Note_on_c, 0, 72, 0
2, 112932, Note_on_c, 0, 68, 71
2, 112939, Note_on_c, 0, 58, 54
2, 112955, Note_on_c, 0, 70, 0
2, 113005, Note_on_c, 0, 56, 0
2, 113083, Note_on_c, 0, 66, 71
2, 113104, Note_on_c, 0, 68, 0
2, 113245, Note_on_c, 0, 68, 70
2, 113296, Note_on_c, 0, 66, 0
2, 113421, Note_on_c, 0, 69, 69
2, 113425, Note_on_c, 0, 60, 49
2, 113426, Note_on_c, 0, 51, 54
2, 113462, Note_on_c, 0, 68, 0
2, 113496, Note_on_c, 0, 52, 0
2, 113557, Note_on_c, 0, 58, 0
2, 113573, Note_on_c, 0, 68, 78
2, 113732, Note_on_c, 0, 60, 0
2, 113732, Note_on_c, 0, 66, 74
2, 113737, Note_on_c, 0, 69, 0
2, 113896, Note_on_c, 0, 68, 0
2, 113965, Note_on_c, 0, 65, 67
2, 113971, Note_on_c, 0, 59, 57
2, 113989, Note_on_c, 0, 49, 57
2, 114019, Note_on_c, 0, 66, 0
2, 114092, Note_on_c, 0, 51, 0
2, 114144, Note_on_c, 0, 66, 71
2, 114207, Note_on_c, 0, 65, 0
2, 114304, Note_on_c, 0, 68, 75
2, 114358, Note_on_c, 0, 66, 0
2, 114466, Note_on_c, 0, 57, 58
2, 114469, Note_on_c, 0, 51, 57
2, 114469, Note_on_c, 0, 66, 75
2, 114524, Note_on_c, 0, 59, 0
2, 114617, Note_on_c, 0, 65, 66
2, 114625, Note_on_c, 0, 68, 0
2, 114656, Note_on_c, 0, 66, 0
2, 114780, Note_on_c, 0, 49, 0
2, 114785, Note_on_c, 0, 63, 74
2, 114858, Note_on_c, 0, 65, 0
2, 115048, Note_on_c, 0, 61, 71
2, 115066, Note_on_c, 0, 53, 55
2, 115069, Note_on_c, 0, 56, 47
2, 115115, Note_on_c, 0, 51, 0
2, 115165, Note_on_c, 0, 57, 0
2, 115219, Note_on_c, 0, 63, 0
2, 115540, Note_on_c, 0, 57, 48
2, 115547, Note_on_c, 0, 54, 53
2, 115622, Note_on_c, 0, 56, 0
2, 115684, Note_on_c, 0, 53, 0
2, 115850, Note_on_c, 0, 57, 0
2, 116058, Note_on_c, 0, 59, 46
2, 116072, Note_on_c, 0, 56, 47
2, 116286, Note_on_c, 0, 54, 0
2, 116302, Note_on_c, 0, 56, 0
2, 116318, Note_on_c, 0, 61, 0
2, 116333, Note_on_c, 0, 65, 70
2, 116461, Note_on_c, 0, 68, 74
2, 116534, Note_on_c, 0, 65, 0
2, 116635, Note_on_c, 0, 71, 75
2, 116647, Note_on_c, 0, 53, 55
2, 116650, Note_on_c, 0, 44, 58
2, 116666, Note_on_c, 0, 59, 0
2, 116747, Note_on_c, 0, 68, 0
2, 116920, Note_on_c, 0, 74, 71
2, 116958, Note_on_c, 0, 71, 0
2, 117103, Note_on_c, 0, 44, 0
2, 117243, Note_on_c, 0, 73, 75
2, 117255, Note_on_c, 0, 54, 53
2, 117261, Note_on_c, 0, 74, 0
2, 117264, Note_on_c, 0, 45, 52
2, 117485, Note_on_c, 0, 75, 74
2, 117491, Note_on_c, 0, 53, 0
2, 117593, Note_on_c, 0, 73, 0
2, 117648, Note_on_c, 0, 77, 76
2, 117709, Note_on_c, 0, 75, 0
2, 117853, Note_on_c, 0, 78, 76
2, 117862, Note_on_c, 0, 49, 62
2, 117899, Note_on_c, 0, 77, 0
2, 118000, Note_on_c, 0, 54, 0
2, 118027, Note_on_c, 0, 76, 71
2, 118182, Note_on_c, 0, 74, 71
2, 118232, Note_on_c, 0, 78, 0
2, 118344, Note_on_c, 0, 54, 56
2, 118345, Note_on_c, 0, 73, 76
2, 118424, Note_on_c, 0, 76, 0
2, 118446, Note_on_c, 0, 74, 0
2, 118504, Note_on_c, 0, 71, 65
2, 118547, Note_on_c, 0, 49, 0
2, 118548, Note_on_c, 0, 73, 0
2, 118662, Note_on_c, 0, 69, 66
2, 118716, Note_on_c, 0, 71, 0
2, 118843, Note_on_c, 0, 74, 72
2, 118850, Note_on_c, 0, 47, 54
2, 118885, Note_on_c, 0, 69, 0
2, 118999, Note_on_c, 0, 45, 0
2, 118999, Note_on_c, 0, 73, 70
2, 119145, Note_on_c, 0, 71, 67
2, 119301, Note_on_c, 0, 74, 0
2, 119309, Note_on_c, 0, 73, 0
2, 119338, Note_on_c, 0, 49, 56
2, 119338, Note_on_c, 0, 69, 67
2, 119355, Note_on_c, 0, 71, 0
2, 119441, Note_on_c, 0, 47, 0
2, 119487, Note_on_c, 0, 68, 70
2, 119533, Note_on_c, 0, 69, 0
2, 119581, Note_on_c, 0, 54, 0
2, 119626, Note_on_c, 0, 66, 75
2, 119679, Note_on_c, 0, 68, 0
2, 119821, Note_on_c, 0, 68, 72
2, 119824, Note_on_c, 0, 53, 54
2, 119839, Note_on_c, 0, 47, 58
2, 119860, Note_on_c, 0, 66, 0
2, 119937, Note_on_c, 0, 49, 0
2, 119983, Note_on_c, 0, 66, 70
2, 120061, Note_on_c, 0, 68, 0
2, 120172, Note_on_c, 0, 65, 70
2, 120212, Note_on_c, 0, 66, 0
2, 120437, Note_on_c, 0, 66, 70
2, 120456, Note_on_c, 0, 46, 50
2, 120520, Note_on_c, 0, 65, 0
2, 120542, Note_on_c, 0, 47, 0
2, 120642, Note_on_c, 0, 53, 0
2, 120646, Note_on_c, 0, 64, 50
2, 120805, Note_on_c, 0, 62, 44
2, 120874, Note_on_c, 0, 64, 0
2, 120977, Note_on_c, 0, 61, 52
2, 120978, Note_on_c, 0, 62, 0
2, 120982, Note_on_c, 0, 54, 49
2, 121149, Note_on_c, 0, 62, 51
2, 121156, Note_on_c, 0, 61, 0
2, 121256, Note_on_c, 0, 46, 0
2, 121292, Note_on_c, 0, 62, 0
2, 121296, Note_on_c, 0, 64, 54
2, 121481, Note_on_c, 0, 62, 51
2, 121485, Note_on_c, 0, 47, 49
2, 121503, Note_on_c, 0, 64, 0
2, 121640, Note_on_c, 0, 62, 0
2, 121658, Note_on_c, 0, 61, 52
2, 121717, Note_on_c, 0, 54, 0
2, 121792, Note_on_c, 0, 61, 0
2, 121810, Note_on_c, 0, 59, 53
2, 121986, Note_on_c, 0, 59, 0
2, 121993, Note_on_c, 0, 49, 55
2, 121994, Note_on_c, 0, 58, 51
2, 122140, Note_on_c, 0, 58, 0
2, 122155, Note_on_c, 0, 59, 51
2, 122191, Note_on_c, 0, 47, 0
2, 122324, Note_on_c, 0, 61, 55
2, 122342, Note_on_c, 0, 59, 0
2, 122577, Note_on_c, 0, 59, 52
2, 122584, Note_on_c, 0, 50, 43
2, 122599, Note_on_c, 0, 61, 0
2, 122693, Note_on_c, 0, 66, 0
2, 122706, Note_on_c, 0, 49, 0
2, 122904, Note_on_c, 0, 65, 65
2, 123119, Note_on_c, 0, 59, 0
2, 123197, Note_on_c, 0, 54, 48
2, 123202, Note_on_c, 0, 57, 41
2, 123213, Note_on_c, 0, 47, 43
2, 123304, Note_on_c, 0, 50, 0
2, 123458, Note_on_c, 0, 66, 73
2, 123528, Note_on_c, 0, 47, 0
2, 123546, Note_on_c, 0, 65, 0
2, 123572, Note_on_c, 0, 54, 0
2, 123820, Note_on_c, 0, 74, 66
2, 123823, Note_on_c, 0, 49, 46
2, 123835, Note_on_c, 0, 53, 46
2, 123837, Note_on_c, 0, 56, 36
2, 123866, Note_on_c, 0, 66, 0
2, 124033, Note_on_c, 0, 57, 0
2, 124131, Note_on_c, 0, 53, 0
2, 124144, Note_on_c, 0, 72, 69
2, 124347, Note_on_c, 0, 74, 0
2, 124387, Note_on_c, 0, 54, 49
2, 124388, Note_on_c, 0, 57, 35
2, 124490, Note_on_c, 0, 56, 0
2, 124621, Note_on_c, 0, 73, 72
2, 124705, Note_on_c, 0, 57, 0
2, 124723, Note_on_c, 0, 72, 0
2, 124939, Note_on_c, 0, 65, 57
2, 124947, Note_on_c, 0, 56, 34
2, 124952, Note_on_c, 0, 59, 41
2, 125045, Note_on_c, 0, 73, 0
2, 125099, Note_on_c, 0, 54, 0
2, 125147, Note_on_c, 0, 56, 0
2, 125207, Note_on_c, 0, 71, 64
2, 125343, Note_on_c, 0, 65, 0
2, 125455, Note_on_c, 0, 54, 47
2, 125461, Note_on_c, 0, 50, 45
2, 125612, Note_on_c, 0, 49, 0
2, 125680, Note_on_c, 0, 69, 66
2, 125715, Note_on_c, 0, 59, 0
2, 125885, Note_on_c, 0, 71, 0
2, 125957, Note_on_c, 0, 68, 64
2, 125958, Note_on_c, 0, 47, 54
2, 126026, Note_on_c, 0, 69, 0
2, 126081, Note_on_c, 0, 50, 0
2, 126135, Note_on_c, 0, 71, 67
2, 126215, Note_on_c, 0, 68, 0
2, 126286, Note_on_c, 0, 69, 73
2, 126463, Note_on_c, 0, 68, 72
2, 126469, Note_on_c, 0, 49, 49
2, 126477, Note_on_c, 0, 53, 45
2, 126534, Note_on_c, 0, 71, 0
2, 126583, Note_on_c, 0, 54, 0
2, 126622, Note_on_c, 0, 66, 68
2, 126723, Note_on_c, 0, 49, 0
2, 126738, Note_on_c, 0, 69, 0
2, 126741, Note_on_c, 0, 47, 0
2, 126754, Note_on_c, 0, 68, 0
2, 126799, Note_on_c, 0, 65, 73
2, 126843, Note_on_c, 0, 66, 0
2, 127017, Note_on_c, 0, 66, 73
2, 127020, Note_on_c, 0, 49, 49
2, 127035, Note_on_c, 0, 45, 51
2, 127098, Note_on_c, 0, 65, 0
2, 127203, Note_on_c, 0, 68, 74
2, 127258, Note_on_c, 0, 66, 0
2, 127274, Note_on_c, 0, 53, 0
2, 127369, Note_on_c, 0, 69, 75
2, 127374, Note_on_c, 0, 68, 0
2, 127542, Note_on_c, 0, 71, 68
2, 127548, Note_on_c, 0, 44, 55
2, 127549, Note_on_c, 0, 53, 57
2, 127561, Note_on_c, 0, 69, 0
2, 127622, Note_on_c, 0, 45, 0
2, 127684, Note_on_c, 0, 49, 0
2, 127709, Note_on_c, 0, 73, 76
2, 127754, Note_on_c, 0, 71, 0
2, 127881, Note_on_c, 0, 74, 74
2, 127939, Note_on_c, 0, 44, 0
2, 127946, Note_on_c, 0, 73, 0
2, 128099, Note_on_c, 0, 61, 68
2, 128109, Note_on_c, 0, 45, 63
2, 128162, Note_on_c, 0, 74, 0
2, 128272, Note_on_c, 0, 53, 0
2, 128311, Note_on_c, 0, 54, 64
2, 128512, Note_on_c, 0, 52, 73
2, 128539, Note_on_c, 0, 54, 0
2, 128719, Note_on_c, 0, 50, 63
2, 128723, Note_on_c, 0, 56, 69
2, 128725, Note_on_c, 0, 66, 73
2, 128775, Note_on_c, 0, 61, 0
2, 128921, Note_on_c, 0, 52, 0
2, 128934, Note_on_c, 0, 49, 73
2, 129012, Note_on_c, 0, 50, 0
2, 129146, Note_on_c, 0, 47, 76
2, 129193, Note_on_c, 0, 49, 0
2, 129491, Note_on_c, 0, 57, 66
2, 129505, Note_on_c, 0, 49, 72
2, 129559, Note_on_c, 0, 45, 0
2, 129567, Note_on_c, 0, 47, 0
2, 129580, Note_on_c, 0, 56, 0
2, 129606, Note_on_c, 0, 66, 0
2, 129916, Note_on_c, 0, 66, 77
2, 130413, Note_on_c, 0, 59, 67
2, 130419, Note_on_c, 0, 37, 59
2, 130600, Note_on_c, 0, 57, 0
2, 130992, Note_on_c, 0, 65, 70
2, 131095, Note_on_c, 0, 66, 0
2, 131318, Note_on_c, 0, 49, 0
2, 131780, Note_on_c, 0, 66, 65
2, 131783, Note_on_c, 0, 58, 60
2, 131796, Note_on_c, 0, 49, 50
2, 131798, Note_on_c, 0, 42, 47
2, 131843, Note_on_c, 0, 59, 0
2, 131911, Note_on_c, 0, 65, 0
2, 132017, Note_on_c, 0, 37, 0
2, 134546, Note_on_c, 0, 49, 0
2, 134557, Note_on_c, 0, 58, 0
2, 134576, Note_on_c, 0, 42, 0
2, 134660, Note_on_c, 0, 66, 0
2, 136760, Note_on_c, 0, 61, 40
2, 137157, Note_on_c, 0, 57, 54
2, 137312, Note_on_c, 0, 61, 0
2, 137554, Note_on_c, 0, 54, 57
2, 137623, Note_on_c, 0, 57, 0
2, 137982, Note_on_c, 0, 62, 56
2, 138056, Note_on_c, 0, 54, 0
2, 139092, Note_on_c, 0, 61, 51
2, 139160, Note_on_c, 0, 62, 0
2, 139272, Note_on_c, 0, 59, 55
2, 139302, Note_on_c, 0, 61, 0
2, 139488, Note_on_c, 0, 61, 59
2, 139590, Note_on_c, 0, 59, 0
2, 140529, Note_on_c, 0, 66, 52
2, 140590, Note_on_c, 0, 61, 0
2, 140902, Note_on_c, 0, 59, 53
2, 140910, Note_on_c, 0, 66, 0
2, 141963, Note_on_c, 0, 57, 42
2, 142057, Note_on_c, 0, 59, 0
2, 142119, Note_on_c, 0, 56, 53
2, 142152, Note_on_c, 0, 57, 0
2, 142314, Note_on_c, 0, 57, 51
2, 142349, Note_on_c, 0, 56, 0
2, 142684, Note_on_c, 0, 54, 53
2, 142737, Note_on_c, 0, 57, 0
2, 143029, Note_on_c, 0, 56, 50
2, 143114, Note_on_c, 0, 54, 0
2, 143195, Note_on_c, 0, 56, 0
2, 143228, Note_on_c, 0, 57, 39
2, 143298, Note_on_c, 0, 57, 0
2, 143327, Note_on_c, 0, 56, 55
2, 143379, Note_on_c, 0, 56, 0
2, 143413, Note_on_c, 0, 57, 47
2, 143457, Note_on_c, 0, 57, 0
2, 143486, Note_on_c, 0, 56, 53
2, 143538, Note_on_c, 0, 56, 0
2, 143561, Note_on_c, 0, 57, 51
2, 143626, Note_on_c, 0, 57, 0
2, 143652, Note_on_c, 0, 56, 57
2, 143708, Note_on_c, 0, 56, 0
2, 143739, Note_on_c, 0, 57, 51
2, 143816, Note_on_c, 0, 57, 0
2, 143832, Note_on_c, 0, 56, 54
2, 143903, Note_on_c, 0, 56, 0
2, 143937, Note_on_c, 0, 57, 52
2, 143986, Note_on_c, 0, 57, 0
2, 144012, Note_on_c, 0, 56, 53
2, 144064, Note_on_c, 0, 56, 0
2, 144098, Note_on_c, 0, 57, 56
2, 144142, Note_on_c, 0, 57, 0
2, 144182, Note_on_c, 0, 56, 54
2, 144248, Note_on_c, 0, 56, 0
2, 144321, Note_on_c, 0, 54, 60
2, 144396, Note_on_c, 0, 56, 55
2, 144398, Note_on_c, 0, 54, 0
2, 144489, Note_on_c, 0, 56, 0
2, 144519, Note_on_c, 0, 54, 57
2, 144894, Note_on_c, 0, 56, 50
2, 144959, Note_on_c, 0, 54, 0
2, 145260, Note_on_c, 0, 57, 46
2, 145335, Note_on_c, 0, 56, 0
2, 145639, Note_on_c, 0, 66, 62
2, 145656, Note_on_c, 0, 59, 46
2, 145704, Note_on_c, 0, 57, 0
2, 146013, Note_on_c, 0, 64, 60
2, 146020, Note_on_c, 0, 61, 44
2, 146081, Note_on_c, 0, 59, 0
2, 146120, Note_on_c, 0, 66, 0
2, 146251, Note_on_c, 0, 61, 0
2, 146393, Note_on_c, 0, 61, 66
2, 146475, Note_on_c, 0, 64, 0
2, 146773, Note_on_c, 0, 69, 66
2, 146834, Note_on_c, 0, 61, 0
2, 147134, Note_on_c, 0, 63, 47
2, 147506, Note_on_c, 0, 64, 51
2, 147595, Note_on_c, 0, 63, 0
2, 147878, Note_on_c, 0, 68, 61
2, 147949, Note_on_c, 0, 69, 0
2, 148032, Note_on_c, 0, 66, 66
2, 148081, Note_on_c, 0, 68, 0
2, 148239, Note_on_c, 0, 68, 67
2, 148263, Note_on_c, 0, 64, 0
2, 148307, Note_on_c, 0, 66, 0
2, 148590, Note_on_c, 0, 64, 46
2, 148955, Note_on_c, 0, 58, 49
2, 149127, Note_on_c, 0, 64, 0
2, 149324, Note_on_c, 0, 73, 58
2, 149418, Note_on_c, 0, 68, 0
2, 149688, Note_on_c, 0, 66, 63
2, 149807, Note_on_c, 0, 58, 0
2, 149849, Note_on_c, 0, 73, 0
2, 150040, Note_on_c, 0, 60, 42
2, 150399, Note_on_c, 0, 61, 46
2, 150504, Note_on_c, 0, 60, 0
2, 150768, Note_on_c, 0, 64, 50
2, 150771, Note_on_c, 0, 66, 0
2, 150911, Note_on_c, 0, 63, 59
2, 150919, Note_on_c, 0, 64, 0
2, 151106, Note_on_c, 0, 64, 56
2, 151144, Note_on_c, 0, 63, 0
2, 151162, Note_on_c, 0, 61, 0
2, 151464, Note_on_c, 0, 61, 55
2, 151518, Note_on_c, 0, 64, 0
2, 151819, Note_on_c, 0, 63, 55
2, 151850, Note_on_c, 0, 61, 0
2, 151984, Note_on_c, 0, 63, 0
2, 152009, Note_on_c, 0, 64, 49
2, 152071, Note_on_c, 0, 64, 0
2, 152104, Note_on_c, 0, 63, 54
2, 152146, Note_on_c, 0, 63, 0
2, 152181, Note_on_c, 0, 60, 46
2, 152187, Note_on_c, 0, 64, 48
2, 152225, Note_on_c, 0, 64, 0
2, 152249, Note_on_c, 0, 63, 61
2, 152315, Note_on_c, 0, 63, 0
2, 152323, Note_on_c, 0, 60, 0
2, 152339, Note_on_c, 0, 64, 57
2, 152341, Note_on_c, 0, 58, 51
2, 152404, Note_on_c, 0, 64, 0
2, 152424, Note_on_c, 0, 63, 66
2, 152482, Note_on_c, 0, 63, 0
2, 152506, Note_on_c, 0, 60, 52
2, 152508, Note_on_c, 0, 64, 64
2, 152510, Note_on_c, 0, 58, 0
2, 152574, Note_on_c, 0, 64, 0
2, 152594, Note_on_c, 0, 63, 64
2, 152666, Note_on_c, 0, 63, 0
2, 152677, Note_on_c, 0, 64, 59
2, 152750, Note_on_c, 0, 63, 56
2, 152750, Note_on_c, 0, 64, 0
2, 152791, Note_on_c, 0, 63, 0
2, 152809, Note_on_c, 0, 60, 0
2, 152810, Note_on_c, 0, 56, 45
2, 152818, Note_on_c, 0, 64, 52
2, 152885, Note_on_c, 0, 64, 0
2, 152893, Note_on_c, 0, 63, 57
2, 152928, Note_on_c, 0, 63, 0
2, 152967, Note_on_c, 0, 61, 63
2, 153046, Note_on_c, 0, 61, 0
2, 153048, Note_on_c, 0, 63, 57
2, 153175, Note_on_c, 0, 63, 0
2, 153187, Note_on_c, 0, 61, 57
2, 153193, Note_on_c, 0, 64, 46
2, 153276, Note_on_c, 0, 56, 0
2, 153389, Note_on_c, 0, 61, 0
2, 153550, Note_on_c, 0, 73, 58
2, 153925, Note_on_c, 0, 66, 56
2, 154051, Note_on_c, 0, 73, 0
2, 154275, Note_on_c, 0, 57, 46
2, 154368, Note_on_c, 0, 64, 0
2, 154656, Note_on_c, 0, 62, 53
2, 154768, Note_on_c, 0, 57, 0
2, 155003, Note_on_c, 0, 71, 53
2, 155067, Note_on_c, 0, 66, 0
2, 155371, Note_on_c, 0, 64, 50
2, 155506, Note_on_c, 0, 71, 0
2, 155752, Note_on_c, 0, 56, 51
2, 155879, Note_on_c, 0, 62, 0
2, 156111, Note_on_c, 0, 61, 51
2, 156220, Note_on_c, 0, 56, 0
2, 156459, Note_on_c, 0, 69, 58
2, 156521, Note_on_c, 0, 64, 0
2, 156800, Note_on_c, 0, 59, 52
2, 156864, Note_on_c, 0, 61, 0
2, 157147, Note_on_c, 0, 68, 61
2, 157323, Note_on_c, 0, 69, 0
2, 157502, Note_on_c, 0, 57, 53
2, 157575, Note_on_c, 0, 59, 0
2, 157834, Note_on_c, 0, 66, 62
2, 157904, Note_on_c, 0, 68, 0
2, 158186, Note_on_c, 0, 57, 0
2, 158205, Note_on_c, 0, 56, 57
2, 158578, Note_on_c, 0, 65, 54
2, 158589, Note_on_c, 0, 49, 68
2, 158681, Note_on_c, 0, 56, 0
2, 158689, Note_on_c, 0, 66, 0
2, 158941, Note_on_c, 0, 66, 63
2, 158949, Note_on_c, 0, 54, 55
2, 158952, Note_on_c, 0, 45, 65
2, 159011, Note_on_c, 0, 65, 0
2, 159020, Note_on_c, 0, 49, 0
2, 159297, Note_on_c, 0, 42, 68
2, 159355, Note_on_c, 0, 45, 0
2, 159422, Note_on_c, 0, 54, 0
2, 159660, Note_on_c, 0, 66, 0
2, 159672, Note_on_c, 0, 50, 66
2, 159806, Note_on_c, 0, 42, 0
2, 160052, Note_on_c, 0, 71, 58
2, 160388, Note_on_c, 0, 68, 56
2, 160659, Note_on_c, 0, 71, 0
2, 160771, Note_on_c, 0, 49, 63
2, 160781, Note_on_c, 0, 64, 52
2, 160865, Note_on_c, 0, 50, 0
2, 160933, Note_on_c, 0, 47, 63
2, 160945, Note_on_c, 0, 68, 0
2, 160996, Note_on_c, 0, 49, 0
2, 161137, Note_on_c, 0, 52, 64
2, 161143, Note_on_c, 0, 49, 63
2, 161218, Note_on_c, 0, 47, 0
2, 161283, Note_on_c, 0, 64, 0
2, 161496, Note_on_c, 0, 69, 59
2, 161860, Note_on_c, 0, 66, 60
2, 161874, Note_on_c, 0, 57, 42
2, 162185, Note_on_c, 0, 52, 0
2, 162221, Note_on_c, 0, 54, 66
2, 162222, Note_on_c, 0, 63, 53
2, 162309, Note_on_c, 0, 49, 0
2, 162311, Note_on_c, 0, 69, 0
2, 162390, Note_on_c, 0, 66, 0
2, 162598, Note_on_c, 0, 47, 67
2, 162606, Note_on_c, 0, 62, 53
2, 162665, Note_on_c, 0, 54, 0
2, 162669, Note_on_c, 0, 57, 0
2, 162813, Note_on_c, 0, 63, 0
2, 162958, Note_on_c, 0, 68, 58
2, 162967, Note_on_c, 0, 59, 48
2, 162990, Note_on_c, 0, 62, 0
2, 163099, Note_on_c, 0, 59, 0
2, 163338, Note_on_c, 0, 65, 59
2, 163346, Note_on_c, 0, 56, 50
2, 163407, Note_on_c, 0, 68, 0
2, 163675, Note_on_c, 0, 45, 53
2, 163685, Note_on_c, 0, 61, 56
2, 163793, Note_on_c, 0, 47, 0
2, 163794, Note_on_c, 0, 65, 0
2, 163846, Note_on_c, 0, 44, 59
2, 163889, Note_on_c, 0, 45, 0
2, 163938, Note_on_c, 0, 56, 0
2, 164041, Note_on_c, 0, 45, 54
2, 164048, Note_on_c, 0, 66, 64
2, 164088, Note_on_c, 0, 44, 0
2, 164102, Note_on_c, 0, 61, 0
2, 164398, Note_on_c, 0, 42, 54
2, 164403, Note_on_c, 0, 57, 53
2, 164500, Note_on_c, 0, 45, 0
2, 164774, Note_on_c, 0, 57, 0
2, 164785, Note_on_c, 0, 59, 44
2, 164793, Note_on_c, 0, 44, 51
2, 164862, Note_on_c, 0, 42, 0
2, 164942, Note_on_c, 0, 44, 0
2, 164962, Note_on_c, 0, 45, 50
2, 165030, Note_on_c, 0, 45, 0
2, 165057, Note_on_c, 0, 44, 55
2, 165121, Note_on_c, 0, 44, 0
2, 165122, Note_on_c, 0, 62, 53
2, 165129, Note_on_c, 0, 59, 0
2, 165146, Note_on_c, 0, 45, 55
2, 165202, Note_on_c, 0, 45, 0
2, 165229, Note_on_c, 0, 44, 56
2, 165289, Note_on_c, 0, 44, 0
2, 165317, Note_on_c, 0, 45, 56
2, 165388, Note_on_c, 0, 45, 0
2, 165412, Note_on_c, 0, 44, 54
2, 165461, Note_on_c, 0, 62, 0
2, 165467, Note_on_c, 0, 65, 62
2, 165480, Note_on_c, 0, 44, 0
2, 165504, Note_on_c, 0, 45, 58
2, 165571, Note_on_c, 0, 45, 0
2, 165587, Note_on_c, 0, 44, 54
2, 165594, Note_on_c, 0, 66, 0
2, 165656, Note_on_c, 0, 44, 0
2, 165688, Note_on_c, 0, 45, 58
2, 165734, Note_on_c, 0, 45, 0
2, 165760, Note_on_c, 0, 44, 55
2, 165815, Note_on_c, 0, 56, 54
2, 165818, Note_on_c, 0, 44, 0
2, 165837, Note_on_c, 0, 45, 61
2, 165918, Note_on_c, 0, 45, 0
2, 165930, Note_on_c, 0, 44, 58
2, 165981, Note_on_c, 0, 56, 0
2, 165992, Note_on_c, 0, 44, 0
2, 166012, Note_on_c, 0, 42, 59
2, 166073, Note_on_c, 0, 42, 0
2, 166104, Note_on_c, 0, 44, 48
2, 166191, Note_on_c, 0, 66, 50
2, 166192, Note_on_c, 0, 57, 35
2, 166215, Note_on_c, 0, 44, 0
2, 166217, Note_on_c, 0, 65, 0
2, 166220, Note_on_c, 0, 42, 44
2, 166274, Note_on_c, 0, 57, 0
2, 166307, Note_on_c, 0, 66, 0
2, 166539, Note_on_c, 0, 69, 59
2, 166556, Note_on_c, 0, 61, 42
2, 166578, Note_on_c, 0, 42, 0
2, 166955, Note_on_c, 0, 71, 60
2, 166962, Note_on_c, 0, 50, 52
2, 167000, Note_on_c, 0, 61, 0
2, 167005, Note_on_c, 0, 69, 0
2, 167333, Note_on_c, 0, 74, 50
2, 167347, Note_on_c, 0, 54, 39
2, 167418, Note_on_c, 0, 71, 0
2, 167711, Note_on_c, 0, 56, 47
2, 167773, Note_on_c, 0, 74, 0
2, 167809, Note_on_c, 0, 54, 0
2, 168065, Note_on_c, 0, 68, 62
2, 168083, Note_on_c, 0, 59, 40
2, 168154, Note_on_c, 0, 50, 0
2, 168230, Note_on_c, 0, 56, 0
2, 168429, Note_on_c, 0, 69, 68
2, 168442, Note_on_c, 0, 49, 50
2, 168552, Note_on_c, 0, 68, 0
2, 168608, Note_on_c, 0, 59, 0
2, 168792, Note_on_c, 0, 73, 62
2, 168809, Note_on_c, 0, 57, 48
2, 168854, Note_on_c, 0, 69, 0
2, 168895, Note_on_c, 0, 49, 0
2, 169173, Note_on_c, 0, 47, 56
2, 169179, Note_on_c, 0, 62, 56
2, 169274, Note_on_c, 0, 73, 0
2, 169331, Note_on_c, 0, 57, 0
2, 169546, Note_on_c, 0, 66, 52
2, 169693, Note_on_c, 0, 68, 64
2, 169694, Note_on_c, 0, 66, 0
2, 169869, Note_on_c, 0, 68, 0
2, 169882, Note_on_c, 0, 69, 62
2, 169902, Note_on_c, 0, 59, 45
2, 169961, Note_on_c, 0, 69, 0
2, 169992, Note_on_c, 0, 68, 59
2, 170041, Note_on_c, 0, 68, 0
2, 170070, Note_on_c, 0, 69, 61
2, 170128, Note_on_c, 0, 69, 0
2, 170148, Note_on_c, 0, 68, 66
2, 170208, Note_on_c, 0, 68, 0
2, 170225, Note_on_c, 0, 69, 67
2, 170234, Note_on_c, 0, 52, 53
2, 170243, Note_on_c, 0, 47, 0
2, 170295, Note_on_c, 0, 69, 0
2, 170301, Note_on_c, 0, 68, 65
2, 170386, Note_on_c, 0, 68, 0
2, 170390, Note_on_c, 0, 66, 62
2, 170407, Note_on_c, 0, 62, 0
2, 170451, Note_on_c, 0, 68, 64
2, 170457, Note_on_c, 0, 66, 0
2, 170577, Note_on_c, 0, 68, 0
2, 170581, Note_on_c, 0, 69, 65
2, 170582, Note_on_c, 0, 49, 51
2, 170585, Note_on_c, 0, 59, 0
2, 170588, Note_on_c, 0, 64, 54
2, 170771, Note_on_c, 0, 52, 0
2, 170879, Note_on_c, 0, 64, 0
2, 170923, Note_on_c, 0, 61, 55
2, 170926, Note_on_c, 0, 45, 54
2, 170941, Note_on_c, 0, 49, 0
2, 171249, Note_on_c, 0, 61, 0
2, 171302, Note_on_c, 0, 63, 58
2, 171304, Note_on_c, 0, 69, 0
2, 171305, Note_on_c, 0, 54, 53
2, 171369, Note_on_c, 0, 45, 0
2, 171667, Note_on_c, 0, 75, 63
2, 171677, Note_on_c, 0, 66, 56
2, 171736, Note_on_c, 0, 63, 0
2, 172033, Note_on_c, 0, 72, 61
2, 172110, Note_on_c, 0, 66, 0
2, 172250, Note_on_c, 0, 75, 0
2, 172379, Note_on_c, 0, 60, 54
2, 172385, Note_on_c, 0, 68, 63
2, 172491, Note_on_c, 0, 54, 0
2, 172503, Note_on_c, 0, 72, 0
2, 172729, Note_on_c, 0, 61, 59
2, 172747, Note_on_c, 0, 52, 55
2, 172757, Note_on_c, 0, 60, 0
2, 172805, Note_on_c, 0, 68, 0
2, 173097, Note_on_c, 0, 73, 70
2, 173109, Note_on_c, 0, 64, 55
2, 173153, Note_on_c, 0, 52, 0
2, 173212, Note_on_c, 0, 61, 0
2, 173463, Note_on_c, 0, 78, 76
2, 173471, Note_on_c, 0, 51, 52
2, 173526, Note_on_c, 0, 73, 0
2, 173536, Note_on_c, 0, 64, 0
2, 173801, Note_on_c, 0, 58, 60
2, 173974, Note_on_c, 0, 58, 0
2, 173975, Note_on_c, 0, 60, 63
2, 174140, Note_on_c, 0, 60, 0
2, 174157, Note_on_c, 0, 61, 60
2, 174158, Note_on_c, 0, 75, 64
2, 174229, Note_on_c, 0, 61, 0
2, 174246, Note_on_c, 0, 60, 56
2, 174297, Note_on_c, 0, 60, 0
2, 174319, Note_on_c, 0, 61, 48
2, 174338, Note_on_c, 0, 78, 0
2, 174343, Note_on_c, 0, 61, 0
2, 174362, Note_on_c, 0, 60, 53
2, 174403, Note_on_c, 0, 60, 0
2, 174410, Note_on_c, 0, 61, 74
2, 174496, Note_on_c, 0, 56, 66
2, 174600, Note_on_c, 0, 61, 0
2, 174689, Note_on_c, 0, 56, 0
2, 174694, Note_on_c, 0, 58, 64
2, 174723, Note_on_c, 0, 51, 0
2, 174763, Note_on_c, 0, 58, 0
2, 174780, Note_on_c, 0, 60, 56
2, 174870, Note_on_c, 0, 80, 74
2, 174879, Note_on_c, 0, 52, 58
2, 174895, Note_on_c, 0, 60, 0
2, 174895, Note_on_c, 0, 61, 54
2, 174951, Note_on_c, 0, 75, 0
2, 174983, Note_on_c, 0, 52, 0
2, 175111, Note_on_c, 0, 80, 0
2, 175228, Note_on_c, 0, 76, 74
2, 175229, Note_on_c, 0, 49, 64
2, 175295, Note_on_c, 0, 61, 0
2, 175600, Note_on_c, 0, 78, 76
2, 175606, Note_on_c, 0, 57, 59
2, 175652, Note_on_c, 0, 49, 0
2, 175701, Note_on_c, 0, 76, 0
2, 175964, Note_on_c, 0, 81, 63
2, 175968, Note_on_c, 0, 66, 46
2, 176025, Note_on_c, 0, 78, 0
2, 176318, Note_on_c, 0, 66, 0
2, 176319, Note_on_c, 0, 62, 55
2, 176335, Note_on_c, 0, 81, 0
2, 176404, Note_on_c, 0, 57, 0
2, 176477, Note_on_c, 0, 62, 0
2, 176477, Note_on_c, 0, 62, 27
2, 176670, Note_on_c, 0, 74, 59
2, 176682, Note_on_c, 0, 59, 51
2, 177034, Note_on_c, 0, 56, 53
2, 177037, Note_on_c, 0, 76, 62
2, 177156, Note_on_c, 0, 74, 0
2, 177160, Note_on_c, 0, 59, 0
2, 177163, Note_on_c, 0, 62, 0
2, 177401, Note_on_c, 0, 80, 58
2, 177407, Note_on_c, 0, 64, 48
2, 177455, Note_on_c, 0, 76, 0
2, 177756, Note_on_c, 0, 61, 59
2, 177798, Note_on_c, 0, 80, 0
2, 177814, Note_on_c, 0, 56, 0
2, 177867, Note_on_c, 0, 64, 0
2, 178101, Note_on_c, 0, 57, 56
2, 178101, Note_on_c, 0, 73, 62
2, 178122, Note_on_c, 0, 49, 51
2, 178483, Note_on_c, 0, 54, 60
2, 178486, Note_on_c, 0, 71, 63
2, 178542, Note_on_c, 0, 49, 0
2, 178571, Note_on_c, 0, 61, 0
2, 178664, Note_on_c, 0, 57, 0
2, 178722, Note_on_c, 0, 73, 0
2, 178841, Note_on_c, 0, 61, 63
2, 178841, Note_on_c, 0, 69, 65
2, 178890, Note_on_c, 0, 71, 0
2, 179214, Note_on_c, 0, 68, 79
2, 179225, Note_on_c, 0, 59, 64
2, 179280, Note_on_c, 0, 61, 0
2, 179330, Note_on_c, 0, 69, 0
2, 179562, Note_on_c, 0, 57, 61
2, 179800, Note_on_c, 0, 59, 0
2, 179957, Note_on_c, 0, 56, 68
2, 179960, Note_on_c, 0, 53, 61
2, 180011, Note_on_c, 0, 68, 0
2, 180032, Note_on_c, 0, 54, 0
2, 180058, Note_on_c, 0, 57, 0
2, 180315, Note_on_c, 0, 73, 78
2, 180709, Note_on_c, 0, 69, 77
2, 180715, Note_on_c, 0, 54, 61
2, 180752, Note_on_c, 0, 53, 0
2, 180842, Note_on_c, 0, 73, 0
2, 180860, Note_on_c, 0, 56, 0
2, 181079, Note_on_c, 0, 66, 82
2, 181083, Note_on_c, 0, 57, 64
2, 181138, Note_on_c, 0, 69, 0
2, 181456, Note_on_c, 0, 74, 77
2, 181462, Note_on_c, 0, 59, 49
2, 181576, Note_on_c, 0, 57, 0
2, 181599, Note_on_c, 0, 66, 0
2, 181824, Note_on_c, 0, 71, 55
2, 181826, Note_on_c, 0, 62, 57
2, 181921, Note_on_c, 0, 59, 0
2, 182182, Note_on_c, 0, 64, 58
2, 182186, Note_on_c, 0, 56, 53
2, 182238, Note_on_c, 0, 54, 0
2, 182244, Note_on_c, 0, 71, 0
2, 182354, Note_on_c, 0, 62, 0
2, 182571, Note_on_c, 0, 73, 73
2, 182597, Note_on_c, 0, 52, 45
2, 182697, Note_on_c, 0, 56, 0
2, 182739, Note_on_c, 0, 71, 72
2, 182793, Note_on_c, 0, 74, 0
2, 182816, Note_on_c, 0, 73, 0
2, 182953, Note_on_c, 0, 73, 75
2, 182959, Note_on_c, 0, 57, 48
2, 183051, Note_on_c, 0, 64, 0
2, 183057, Note_on_c, 0, 71, 0
2, 183107, Note_on_c, 0, 52, 0
2, 183314, Note_on_c, 0, 61, 51
2, 183319, Note_on_c, 0, 64, 54
2, 183392, Note_on_c, 0, 57, 0
2, 183665, Note_on_c, 0, 54, 54
2, 183672, Note_on_c, 0, 64, 0
2, 183672, Note_on_c, 0, 69, 66
2, 183812, Note_on_c, 0, 61, 0
2, 184035, Note_on_c, 0, 78, 79
2, 184041, Note_on_c, 0, 51, 53
2, 184117, Note_on_c, 0, 54, 0
2, 184147, Note_on_c, 0, 73, 0
2, 184396, Note_on_c, 0, 71, 73
2, 184402, Note_on_c, 0, 56, 50
2, 184497, Note_on_c, 0, 78, 0
2, 184501, Note_on_c, 0, 69, 0
2, 184579, Note_on_c, 0, 51, 0
2, 184779, Note_on_c, 0, 59, 44
2, 184782, Note_on_c, 0, 68, 49
2, 184901, Note_on_c, 0, 56, 0
2, 184919, Note_on_c, 0, 68, 0
2, 184950, Note_on_c, 0, 66, 53
2, 185130, Note_on_c, 0, 68, 64
2, 185134, Note_on_c, 0, 53, 50
2, 185189, Note_on_c, 0, 66, 0
2, 185393, Note_on_c, 0, 59, 0
2, 185483, Note_on_c, 0, 65, 61
2, 185486, Note_on_c, 0, 69, 68
2, 185492, Note_on_c, 0, 49, 54
2, 185525, Note_on_c, 0, 68, 0
2, 185550, Note_on_c, 0, 53, 0
2, 185641, Note_on_c, 0, 71, 0
2, 185644, Note_on_c, 0, 68, 75
2, 185694, Note_on_c, 0, 69, 0
2, 185696, Note_on_c, 0, 65, 0
2, 185857, Note_on_c, 0, 69, 69
2, 185861, Note_on_c, 0, 54, 52
2, 185880, Note_on_c, 0, 66, 68
2, 185926, Note_on_c, 0, 49, 0
2, 185952, Note_on_c, 0, 68, 0
2, 186063, Note_on_c, 0, 66, 0
2, 186216, Note_on_c, 0, 66, 76
2, 186226, Note_on_c, 0, 57, 42
2, 186302, Note_on_c, 0, 69, 0
2, 186318, Note_on_c, 0, 54, 0
2, 186581, Note_on_c, 0, 68, 76
2, 186595, Note_on_c, 0, 59, 43
2, 186663, Note_on_c, 0, 57, 0
2, 186938, Note_on_c, 0, 56, 44
2, 186946, Note_on_c, 0, 64, 45
2, 186991, Note_on_c, 0, 66, 0
2, 187015, Note_on_c, 0, 59, 0
2, 187104, Note_on_c, 0, 64, 0
2, 187107, Note_on_c, 0, 63, 51
2, 187299, Note_on_c, 0, 61, 42
2, 187302, Note_on_c, 0, 64, 51
2, 187323, Note_on_c, 0, 63, 0
2, 187408, Note_on_c, 0, 56, 0
2, 187672, Note_on_c, 0, 59, 44
2, 187741, Note_on_c, 0, 61, 0
2, 188038, Note_on_c, 0, 66, 69
2, 188040, Note_on_c, 0, 58, 43
2, 188228, Note_on_c, 0, 59, 0
2, 188253, Note_on_c, 0, 64, 0
2, 188311, Note_on_c, 0, 68, 0
2, 188379, Note_on_c, 0, 54, 43
2, 188395, Note_on_c, 0, 62, 47
2, 188498, Note_on_c, 0, 58, 0
2, 188544, Note_on_c, 0, 62, 0
2, 188557, Note_on_c, 0, 61, 53
2, 188775, Note_on_c, 0, 59, 40
2, 188776, Note_on_c, 0, 61, 0
2, 188778, Note_on_c, 0, 62, 51
2, 188861, Note_on_c, 0, 54, 0
2, 189112, Note_on_c, 0, 71, 62
2, 189115, Note_on_c, 0, 57, 40
2, 189198, Note_on_c, 0, 66, 0
2, 189350, Note_on_c, 0, 59, 0
2, 189484, Note_on_c, 0, 64, 59
2, 189502, Note_on_c, 0, 62, 0
2, 189509, Note_on_c, 0, 56, 39
2, 189611, Note_on_c, 0, 57, 0
2, 189828, Note_on_c, 0, 68, 62
2, 189833, Note_on_c, 0, 52, 41
2, 189870, Note_on_c, 0, 64, 0
2, 189886, Note_on_c, 0, 56, 0
2, 189906, Note_on_c, 0, 71, 0
2, 190200, Note_on_c, 0, 69, 57
2, 190205, Note_on_c, 0, 54, 42
2, 190210, Note_on_c, 0, 61, 46
2, 190226, Note_on_c, 0, 68, 0
2, 190310, Note_on_c, 0, 52, 0
2, 190552, Note_on_c, 0, 73, 58
2, 190554, Note_on_c, 0, 57, 44
2, 190587, Note_on_c, 0, 69, 0
2, 190603, Note_on_c, 0, 54, 0
2, 190924, Note_on_c, 0, 73, 0
2, 190930, Note_on_c, 0, 66, 53
2, 190946, Note_on_c, 0, 50, 41
2, 191062, Note_on_c, 0, 57, 0
2, 191304, Note_on_c, 0, 62, 40
2, 191305, Note_on_c, 0, 47, 41
2, 191340, Note_on_c, 0, 61, 0
2, 191389, Note_on_c, 0, 50, 0
2, 191659, Note_on_c, 0, 68, 50
2, 191680, Note_on_c, 0, 52, 39
2, 191683, Note_on_c, 0, 59, 34
2, 191707, Note_on_c, 0, 47, 0
2, 191710, Note_on_c, 0, 62, 0
2, 191715, Note_on_c, 0, 66, 0
2, 192035, Note_on_c, 0, 40, 49
2, 192041, Note_on_c, 0, 64, 37
2, 192143, Note_on_c, 0, 59, 0
2, 192151, Note_on_c, 0, 52, 0
2, 192214, Note_on_c, 0, 68, 0
2, 192459, Note_on_c, 0, 69, 48
2, 192469, Note_on_c, 0, 61, 40
2, 192471, Note_on_c, 0, 45, 42
2, 192489, Note_on_c, 0, 40, 0
2, 192511, Note_on_c, 0, 64, 0
2, 192624, Note_on_c, 0, 45, 0
2, 192863, Note_on_c, 0, 57, 71
2, 192967, Note_on_c, 0, 57, 0
2, 193247, Note_on_c, 0, 56, 75
2, 193299, Note_on_c, 0, 69, 0
2, 193303, Note_on_c, 0, 61, 0
2, 193712, Note_on_c, 0, 56, 0
2, 193794, Note_on_c, 0, 54, 50
2, 193875, Note_on_c, 0, 54, 0
2, 193966, Note_on_c, 0, 53, 71
2, 194128, Note_on_c, 0, 53, 0
2, 194304, Note_on_c, 0, 61, 67
2, 194312, Note_on_c, 0, 49, 68
2, 194409, Note_on_c, 0, 49, 0
2, 194489, Note_on_c, 0, 61, 0
2, 194710, Note_on_c, 0, 54, 70
2, 194712, Note_on_c, 0, 59, 76
2, 195130, Note_on_c, 0, 59, 0
2, 195287, Note_on_c, 0, 57, 65
2, 195423, Note_on_c, 0, 57, 0
2, 195483, Note_on_c, 0, 56, 76
2, 195841, Note_on_c, 0, 74, 71
2, 195988, Note_on_c, 0, 74, 0
2, 196227, Note_on_c, 0, 53, 57
2, 196229, Note_on_c, 0, 73, 83
2, 196280, Note_on_c, 0, 54, 0
2, 196306, Note_on_c, 0, 56, 0
2, 196596, Note_on_c, 0, 61, 59
2, 196602, Note_on_c, 0, 52, 61
2, 196627, Note_on_c, 0, 73, 0
2, 196635, Note_on_c, 0, 53, 0
2, 196777, Note_on_c, 0, 71, 67
2, 196843, Note_on_c, 0, 71, 0
2, 196958, Note_on_c, 0, 52, 0
2, 196959, Note_on_c, 0, 70, 79
2, 196969, Note_on_c, 0, 54, 59
2, 196980, Note_on_c, 0, 61, 0
2, 197128, Note_on_c, 0, 70, 0
2, 197309, Note_on_c, 0, 66, 80
2, 197313, Note_on_c, 0, 50, 61
2, 197398, Note_on_c, 0, 54, 0
2, 197456, Note_on_c, 0, 66, 0
2, 197693, Note_on_c, 0, 49, 63
2, 197696, Note_on_c, 0, 71, 77
2, 197702, Note_on_c, 0, 64, 75
2, 197712, Note_on_c, 0, 50, 0
2, 198043, Note_on_c, 0, 47, 60
2, 198048, Note_on_c, 0, 64, 0
2, 198104, Note_on_c, 0, 49, 0
2, 198204, Note_on_c, 0, 62, 68
2, 198317, Note_on_c, 0, 62, 0
2, 198410, Note_on_c, 0, 61, 68
2, 198417, Note_on_c, 0, 52, 53
2, 198476, Note_on_c, 0, 47, 0
2, 198562, Note_on_c, 0, 61, 0
2, 198768, Note_on_c, 0, 67, 77
2, 198787, Note_on_c, 0, 49, 71
2, 198808, Note_on_c, 0, 52, 0
2, 198898, Note_on_c, 0, 67, 0
2, 199146, Note_on_c, 0, 70, 77
2, 199159, Note_on_c, 0, 54, 68
2, 199161, Note_on_c, 0, 66, 81
2, 199162, Note_on_c, 0, 49, 0
2, 199255, Note_on_c, 0, 71, 0
2, 199392, Note_on_c, 0, 70, 0
2, 199505, Note_on_c, 0, 69, 68
2, 199521, Note_on_c, 0, 42, 56
2, 199529, Note_on_c, 0, 66, 0
2, 199597, Note_on_c, 0, 54, 0
2, 199675, Note_on_c, 0, 64, 64
2, 199732, Note_on_c, 0, 64, 0
2, 199878, Note_on_c, 0, 63, 73
2, 199888, Note_on_c, 0, 47, 62
2, 199969, Note_on_c, 0, 69, 0
2, 199970, Note_on_c, 0, 42, 0
2, 200007, Note_on_c, 0, 63, 0
2, 200242, Note_on_c, 0, 71, 75
2, 200251, Note_on_c, 0, 59, 66
2, 200320, Note_on_c, 0, 59, 0
2, 200353, Note_on_c, 0, 71, 0
2, 200594, Note_on_c, 0, 69, 79
2, 200600, Note_on_c, 0, 64, 68
2, 200673, Note_on_c, 0, 47, 0
2, 200956, Note_on_c, 0, 49, 57
2, 201014, Note_on_c, 0, 69, 0
2, 201084, Note_on_c, 0, 49, 0
2, 201112, Note_on_c, 0, 68, 67
2, 201225, Note_on_c, 0, 68, 0
2, 201300, Note_on_c, 0, 66, 65
2, 201309, Note_on_c, 0, 45, 53
2, 201429, Note_on_c, 0, 45, 0
2, 201657, Note_on_c, 0, 61, 80
2, 201742, Note_on_c, 0, 61, 0
2, 202023, Note_on_c, 0, 59, 71
2, 202031, Note_on_c, 0, 63, 67
2, 202075, Note_on_c, 0, 64, 0
2, 202401, Note_on_c, 0, 62, 59
2, 202454, Note_on_c, 0, 63, 0
2, 202456, Note_on_c, 0, 59, 0
2, 202558, Note_on_c, 0, 57, 60
2, 202634, Note_on_c, 0, 57, 0
2, 202754, Note_on_c, 0, 64, 58
2, 202759, Note_on_c, 0, 56, 56
2, 202771, Note_on_c, 0, 62, 0
2, 202904, Note_on_c, 0, 56, 0
2, 203123, Note_on_c, 0, 61, 51
2, 203137, Note_on_c, 0, 52, 48
2, 203248, Note_on_c, 0, 64, 0
2, 203283, Note_on_c, 0, 61, 0
2, 203288, Note_on_c, 0, 59, 52
2, 203325, Note_on_c, 0, 52, 0
2, 203496, Note_on_c, 0, 57, 48
2, 203500, Note_on_c, 0, 61, 54
2, 203572, Note_on_c, 0, 66, 0
2, 203613, Note_on_c, 0, 59, 0
2, 203857, Note_on_c, 0, 69, 56
2, 203880, Note_on_c, 0, 66, 61
2, 203912, Note_on_c, 0, 61, 0
2, 203967, Note_on_c, 0, 69, 0
2, 204254, Note_on_c, 0, 71, 61
2, 204270, Note_on_c, 0, 62, 45
2, 204332, Note_on_c, 0, 66, 0
2, 204626, Note_on_c, 0, 59, 50
2, 204642, Note_on_c, 0, 62, 0
2, 204970, Note_on_c, 0, 64, 61
2, 204976, Note_on_c, 0, 56, 54
2, 205046, Note_on_c, 0, 57, 0
2, 205055, Note_on_c, 0, 59, 0
2, 205283, Note_on_c, 0, 71, 0
2, 205324, Note_on_c, 0, 52, 64
2, 205325, Note_on_c, 0, 68, 72
2, 205374, Note_on_c, 0, 56, 0
2, 205426, Note_on_c, 0, 52, 0
2, 205480, Note_on_c, 0, 68, 0
2, 205707, Note_on_c, 0, 73, 77
2, 205709, Note_on_c, 0, 57, 67
2, 205782, Note_on_c, 0, 64, 0
2, 206083, Note_on_c, 0, 61, 66
2, 206426, Note_on_c, 0, 66, 70
2, 206453, Note_on_c, 0, 61, 0
2, 206561, Note_on_c, 0, 73, 0
2, 206767, Note_on_c, 0, 54, 74
2, 206770, Note_on_c, 0, 69, 78
2, 206808, Note_on_c, 0, 57, 0
2, 206887, Note_on_c, 0, 54, 0
2, 206899, Note_on_c, 0, 69, 0
2, 207144, Note_on_c, 0, 59, 73
2, 207144, Note_on_c, 0, 74, 80
2, 207187, Note_on_c, 0, 66, 0
2, 207508, Note_on_c, 0, 69, 77
2, 207610, Note_on_c, 0, 69, 0
2, 207881, Note_on_c, 0, 68, 86
2, 207957, Note_on_c, 0, 59, 0
2, 208230, Note_on_c, 0, 56, 65
2, 208330, Note_on_c, 0, 68, 0
2, 208333, Note_on_c, 0, 56, 0
2, 208392, Note_on_c, 0, 66, 73
2, 208566, Note_on_c, 0, 66, 0
2, 208602, Note_on_c, 0, 64, 71
2, 208605, Note_on_c, 0, 61, 67
2, 208758, Note_on_c, 0, 74, 0
2, 208784, Note_on_c, 0, 64, 0
2, 208949, Note_on_c, 0, 74, 76
2, 208957, Note_on_c, 0, 71, 72
2, 209059, Note_on_c, 0, 71, 0
2, 209128, Note_on_c, 0, 74, 0
2, 209336, Note_on_c, 0, 73, 77
2, 209342, Note_on_c, 0, 69, 75
2, 209659, Note_on_c, 0, 69, 0
2, 209695, Note_on_c, 0, 73, 0
2, 209697, Note_on_c, 0, 68, 72
2, 209846, Note_on_c, 0, 68, 0
2, 209849, Note_on_c, 0, 71, 68
2, 209984, Note_on_c, 0, 71, 0
2, 210049, Note_on_c, 0, 69, 76
2, 210051, Note_on_c, 0, 66, 70
2, 210323, Note_on_c, 0, 69, 0
2, 210380, Note_on_c, 0, 64, 75
2, 210446, Note_on_c, 0, 66, 0
2, 210465, Note_on_c, 0, 64, 0
2, 210698, Note_on_c, 0, 61, 0
2, 210747, Note_on_c, 0, 62, 69
2, 210748, Note_on_c, 0, 78, 82
2, 210755, Note_on_c, 0, 69, 71
2, 210760, Note_on_c, 0, 59, 63
2, 210990, Note_on_c, 0, 59, 0
2, 211097, Note_on_c, 0, 61, 67
2, 211138, Note_on_c, 0, 62, 0
2, 211255, Note_on_c, 0, 57, 61
2, 211296, Note_on_c, 0, 61, 0
2, 211470, Note_on_c, 0, 69, 0
2, 211473, Note_on_c, 0, 59, 66
2, 211479, Note_on_c, 0, 57, 0
2, 211481, Note_on_c, 0, 56, 70
2, 211553, Note_on_c, 0, 78, 0
2, 211803, Note_on_c, 0, 76, 79
2, 211825, Note_on_c, 0, 59, 0
2, 211977, Note_on_c, 0, 76, 0
2, 212188, Note_on_c, 0, 58, 69
2, 212188, Note_on_c, 0, 66, 70
2, 212189, Note_on_c, 0, 74, 76
2, 212234, Note_on_c, 0, 56, 0
2, 212613, Note_on_c, 0, 74, 0
2, 212636, Note_on_c, 0, 66, 0
2, 212707, Note_on_c, 0, 73, 79
2, 212833, Note_on_c, 0, 73, 0
2, 212891, Note_on_c, 0, 59, 75
2, 212894, Note_on_c, 0, 74, 76
2, 213060, Note_on_c, 0, 58, 0
2, 213139, Note_on_c, 0, 74, 0
2, 213237, Note_on_c, 0, 62, 80
2, 213238, Note_on_c, 0, 71, 72
2, 213353, Note_on_c, 0, 71, 0
2, 213366, Note_on_c, 0, 62, 0
2, 213620, Note_on_c, 0, 76, 76
2, 213624, Note_on_c, 0, 61, 78
2, 213629, Note_on_c, 0, 55, 72
2, 213674, Note_on_c, 0, 59, 0
2, 214050, Note_on_c, 0, 61, 0
2, 214143, Note_on_c, 0, 59, 67
2, 214333, Note_on_c, 0, 59, 0
2, 214336, Note_on_c, 0, 58, 68
2, 214344, Note_on_c, 0, 54, 62
2, 214460, Note_on_c, 0, 55, 0
2, 214507, Note_on_c, 0, 54, 0
2, 214698, Note_on_c, 0, 78, 78
2, 214703, Note_on_c, 0, 54, 62
2, 214738, Note_on_c, 0, 76, 0
2, 214846, Note_on_c, 0, 58, 0
2, 215051, Note_on_c, 0, 74, 73
2, 215066, Note_on_c, 0, 59, 58
2, 215197, Note_on_c, 0, 54, 0
2, 215231, Note_on_c, 0, 78, 0
2, 215419, Note_on_c, 0, 71, 75
2, 215430, Note_on_c, 0, 55, 61
2, 215516, Note_on_c, 0, 74, 0
2, 215782, Note_on_c, 0, 73, 78
2, 215792, Note_on_c, 0, 52, 69
2, 215881, Note_on_c, 0, 55, 0
2, 215909, Note_on_c, 0, 71, 0
2, 216135, Note_on_c, 0, 49, 72
2, 216190, Note_on_c, 0, 52, 0
2, 216527, Note_on_c, 0, 58, 71
2, 216533, Note_on_c, 0, 54, 62
2, 216546, Note_on_c, 0, 73, 0
2, 216629, Note_on_c, 0, 49, 0
2, 216656, Note_on_c, 0, 59, 0
2, 216912, Note_on_c, 0, 70, 78
2, 216913, Note_on_c, 0, 66, 75
2, 217182, Note_on_c, 0, 58, 0
2, 217290, Note_on_c, 0, 71, 77
2, 217300, Note_on_c, 0, 62, 75
2, 217309, Note_on_c, 0, 70, 0
2, 217368, Note_on_c, 0, 66, 0
2, 217660, Note_on_c, 0, 74, 75
2, 217663, Note_on_c, 0, 59, 79
2, 217682, Note_on_c, 0, 54, 0
2, 217710, Note_on_c, 0, 71, 0
2, 217795, Note_on_c, 0, 62, 0
2, 218035, Note_on_c, 0, 67, 78
2, 218039, Note_on_c, 0, 73, 76
2, 218042, Note_on_c, 0, 52, 69
2, 218172, Note_on_c, 0, 74, 0
2, 218207, Note_on_c, 0, 59, 0
2, 218428, Note_on_c, 0, 50, 67
2, 218435, Note_on_c, 0, 73, 0
2, 218479, Note_on_c, 0, 52, 0
2, 218568, Note_on_c, 0, 71, 73
2, 218687, Note_on_c, 0, 71, 0
2, 218761, Note_on_c, 0, 49, 67
2, 218766, Note_on_c, 0, 69, 75
2, 218784, Note_on_c, 0, 50, 0
2, 219110, Note_on_c, 0, 66, 78
2, 219125, Note_on_c, 0, 45, 61
2, 219127, Note_on_c, 0, 67, 0
2, 219248, Note_on_c, 0, 49, 0
2, 219273, Note_on_c, 0, 64, 83
2, 219314, Note_on_c, 0, 66, 0
2, 219511, Note_on_c, 0, 50, 64
2, 219511, Note_on_c, 0, 66, 86
2, 219585, Note_on_c, 0, 64, 0
2, 219586, Note_on_c, 0, 69, 0
2, 219592, Note_on_c, 0, 45, 0
2, 219873, Note_on_c, 0, 74, 70
2, 219875, Note_on_c, 0, 49, 66
2, 219932, Note_on_c, 0, 50, 0
2, 219993, Note_on_c, 0, 74, 0
2, 220241, Note_on_c, 0, 67, 69
2, 220244, Note_on_c, 0, 47, 67
2, 220286, Note_on_c, 0, 49, 0
2, 220384, Note_on_c, 0, 47, 0
2, 220605, Note_on_c, 0, 71, 79
2, 220609, Note_on_c, 0, 50, 69
2, 220640, Note_on_c, 0, 67, 0
2, 220774, Note_on_c, 0, 50, 0
2, 221015, Note_on_c, 0, 64, 80
2, 221020, Note_on_c, 0, 49, 70
2, 221036, Note_on_c, 0, 71, 0
2, 221085, Note_on_c, 0, 66, 0
2, 221391, Note_on_c, 0, 73, 66
2, 221454, Note_on_c, 0, 49, 0
2, 221543, Note_on_c, 0, 47, 62
2, 221635, Note_on_c, 0, 47, 0
2, 221712, Note_on_c, 0, 66, 65
2, 221713, Note_on_c, 0, 46, 61
2, 221746, Note_on_c, 0, 73, 0
2, 222059, Note_on_c, 0, 42, 55
2, 222064, Note_on_c, 0, 64, 0
2, 222070, Note_on_c, 0, 62, 70
2, 222103, Note_on_c, 0, 46, 0
2, 222232, Note_on_c, 0, 61, 67
2, 222270, Note_on_c, 0, 62, 0
2, 222354, Note_on_c, 0, 61, 0
2, 222433, Note_on_c, 0, 62, 62
2, 222434, Note_on_c, 0, 47, 55
2, 222480, Note_on_c, 0, 42, 0
2, 222799, Note_on_c, 0, 59, 61
2, 222804, Note_on_c, 0, 62, 0
2, 223177, Note_on_c, 0, 61, 56
2, 223292, Note_on_c, 0, 59, 0
2, 223514, Note_on_c, 0, 65, 53
2, 223523, Note_on_c, 0, 45, 43
2, 223561, Note_on_c, 0, 66, 0
2, 223591, Note_on_c, 0, 47, 0
2, 223676, Note_on_c, 0, 44, 46
2, 223711, Note_on_c, 0, 45, 0
2, 223881, Note_on_c, 0, 66, 62
2, 223883, Note_on_c, 0, 45, 43
2, 223929, Note_on_c, 0, 65, 0
2, 223934, Note_on_c, 0, 44, 0
2, 224148, Note_on_c, 0, 61, 0
2, 224241, Note_on_c, 0, 69, 59
2, 224308, Note_on_c, 0, 66, 0
2, 224611, Note_on_c, 0, 63, 54
2, 224621, Note_on_c, 0, 59, 41
2, 224682, Note_on_c, 0, 69, 0
2, 224937, Note_on_c, 0, 66, 59
2, 224944, Note_on_c, 0, 44, 43
2, 225028, Note_on_c, 0, 45, 0
2, 225096, Note_on_c, 0, 42, 50
2, 225119, Note_on_c, 0, 44, 0
2, 225129, Note_on_c, 0, 63, 0
2, 225299, Note_on_c, 0, 59, 0
2, 225308, Note_on_c, 0, 44, 46
2, 225308, Note_on_c, 0, 71, 58
2, 225346, Note_on_c, 0, 42, 0
2, 225382, Note_on_c, 0, 66, 0
2, 225662, Note_on_c, 0, 68, 58
2, 225663, Note_on_c, 0, 40, 49
2, 225724, Note_on_c, 0, 44, 0
2, 226043, Note_on_c, 0, 64, 49
2, 226051, Note_on_c, 0, 49, 48
2, 226059, Note_on_c, 0, 40, 0
2, 226128, Note_on_c, 0, 68, 0
2, 226372, Note_on_c, 0, 69, 54
2, 226388, Note_on_c, 0, 37, 43
2, 226460, Note_on_c, 0, 49, 0
2, 226527, Note_on_c, 0, 71, 0
2, 226531, Note_on_c, 0, 68, 62
2, 226552, Note_on_c, 0, 69, 0
2, 226751, Note_on_c, 0, 49, 51
2, 226752, Note_on_c, 0, 69, 65
2, 226785, Note_on_c, 0, 68, 0
2, 226824, Note_on_c, 0, 37, 0
2, 227082, Note_on_c, 0, 73, 63
2, 227105, Note_on_c, 0, 64, 0
2, 227136, Note_on_c, 0, 69, 0
2, 227431, Note_on_c, 0, 66, 55
2, 227445, Note_on_c, 0, 62, 47
2, 227515, Note_on_c, 0, 73, 0
2, 227778, Note_on_c, 0, 47, 49
2, 227778, Note_on_c, 0, 69, 58
2, 227911, Note_on_c, 0, 66, 0
2, 227936, Note_on_c, 0, 45, 47
2, 227953, Note_on_c, 0, 47, 0
2, 227967, Note_on_c, 0, 49, 0
2, 228017, Note_on_c, 0, 62, 0
2, 228146, Note_on_c, 0, 74, 59
2, 228159, Note_on_c, 0, 47, 47
2, 228215, Note_on_c, 0, 45, 0
2, 228221, Note_on_c, 0, 69, 0
2, 228497, Note_on_c, 0, 44, 45
2, 228503, Note_on_c, 0, 71, 45
2, 228620, Note_on_c, 0, 47, 0
2, 228848, Note_on_c, 0, 68, 46
2, 228851, Note_on_c, 0, 41, 43
2, 228911, Note_on_c, 0, 44, 0
2, 228980, Note_on_c, 0, 74, 0
2, 228993, Note_on_c, 0, 41, 0
2, 229088, Note_on_c, 0, 71, 0
2, 229212, Note_on_c, 0, 74, 53
2, 229221, Note_on_c, 0, 56, 38
2, 229224, Note_on_c, 0, 65, 41
2, 229264, Note_on_c, 0, 68, 0
2, 229562, Note_on_c, 0, 73, 60
2, 229568, Note_on_c, 0, 53, 42
2, 229628, Note_on_c, 0, 74, 0
2, 229680, Note_on_c, 0, 56, 0
2, 229702, Note_on_c, 0, 65, 0
2, 229931, Note_on_c, 0, 49, 44
2, 229931, Note_on_c, 0, 68, 50
2, 229972, Note_on_c, 0, 53, 0
2, 229977, Note_on_c, 0, 73, 0
2, 230080, Note_on_c, 0, 71, 52
2, 230319, Note_on_c, 0, 69, 48
2, 230321, Note_on_c, 0, 71, 0
2, 230328, Note_on_c, 0, 54, 42
2, 230406, Note_on_c, 0, 49, 0
2, 230668, Note_on_c, 0, 66, 41
2, 230677, Note_on_c, 0, 56, 36
2, 230726, Note_on_c, 0, 68, 0
2, 230774, Note_on_c, 0, 54, 0
2, 230836, Note_on_c, 0, 66, 0
2, 230838, Note_on_c, 0, 65, 46
2, 231017, Note_on_c, 0, 57, 40
2, 231025, Note_on_c, 0, 66, 45
2, 231057, Note_on_c, 0, 56, 0
2, 231059, Note_on_c, 0, 65, 0
2, 231371, Note_on_c, 0, 63, 45
2, 231379, Note_on_c, 0, 54, 36
2, 231388, Note_on_c, 0, 57, 0
2, 231502, Note_on_c, 0, 66, 0
2, 231738, Note_on_c, 0, 60, 43
2, 231740, Note_on_c, 0, 56, 38
2, 231770, Note_on_c, 0, 54, 0
2, 231777, Note_on_c, 0, 63, 0
2, 232077, Note_on_c, 0, 44, 42
2, 232077, Note_on_c, 0, 68, 49
2, 232244, Note_on_c, 0, 66, 61
2, 232266, Note_on_c, 0, 69, 0
2, 232273, Note_on_c, 0, 56, 0
2, 232288, Note_on_c, 0, 68, 0
2, 232447, Note_on_c, 0, 68, 62
2, 232456, Note_on_c, 0, 60, 0
2, 232463, Note_on_c, 0, 44, 0
2, 232512, Note_on_c, 0, 66, 0
2, 232809, Note_on_c, 0, 63, 51
2, 232812, Note_on_c, 0, 56, 66
2, 232930, Note_on_c, 0, 68, 0
2, 233162, Note_on_c, 0, 64, 51
2, 233174, Note_on_c, 0, 52, 73
2, 233177, Note_on_c, 0, 61, 47
2, 233199, Note_on_c, 0, 63, 0
2, 233270, Note_on_c, 0, 64, 0
2, 233311, Note_on_c, 0, 56, 0
2, 233333, Note_on_c, 0, 61, 0
2, 233513, Note_on_c, 0, 76, 59
2, 233519, Note_on_c, 0, 49, 72
2, 233555, Note_on_c, 0, 52, 0
2, 233667, Note_on_c, 0, 76, 0
2, 233907, Note_on_c, 0, 57, 66
2, 233914, Note_on_c, 0, 75, 71
2, 233932, Note_on_c, 0, 49, 0
2, 234336, Note_on_c, 0, 75, 0
2, 234433, Note_on_c, 0, 73, 62
2, 234555, Note_on_c, 0, 73, 0
2, 234617, Note_on_c, 0, 72, 67
2, 234931, Note_on_c, 0, 72, 0
2, 234947, Note_on_c, 0, 56, 61
2, 234947, Note_on_c, 0, 78, 57
2, 234958, Note_on_c, 0, 75, 47
2, 235039, Note_on_c, 0, 57, 0
2, 235103, Note_on_c, 0, 54, 64
2, 235144, Note_on_c, 0, 78, 0
2, 235161, Note_on_c, 0, 56, 0
2, 235307, Note_on_c, 0, 56, 70
2, 235317, Note_on_c, 0, 76, 55
2, 235321, Note_on_c, 0, 73, 54
2, 235350, Note_on_c, 0, 75, 0
2, 235426, Note_on_c, 0, 54, 0
2, 235654, Note_on_c, 0, 75, 50
2, 235695, Note_on_c, 0, 73, 0
2, 235764, Note_on_c, 0, 76, 0
2, 235802, Note_on_c, 0, 72, 55
2, 235820, Note_on_c, 0, 75, 0
2, 236007, Note_on_c, 0, 76, 56
2, 236008, Note_on_c, 0, 72, 0
2, 236022, Note_on_c, 0, 73, 50
2, 236334, Note_on_c, 0, 71, 49
2, 236337, Note_on_c, 0, 61, 58
2, 236361, Note_on_c, 0, 56, 0
2, 236431, Note_on_c, 0, 73, 0
2, 236703, Note_on_c, 0, 54, 62
2, 236706, Note_on_c, 0, 69, 61
2, 236731, Note_on_c, 0, 71, 0
2, 236831, Note_on_c, 0, 76, 0
2, 236901, Note_on_c, 0, 61, 0
2, 237082, Note_on_c, 0, 75, 44
2, 237177, Note_on_c, 0, 73, 60
2, 237190, Note_on_c, 0, 75, 0
2, 237426, Note_on_c, 0, 60, 51
2, 237426, Note_on_c, 0, 80, 69
2, 237467, Note_on_c, 0, 73, 0
2, 237486, Note_on_c, 0, 54, 0
2, 237742, Note_on_c, 0, 80, 0
2, 237773, Note_on_c, 0, 52, 53
2, 237775, Note_on_c, 0, 72, 58
2, 237865, Note_on_c, 0, 60, 0
2, 237905, Note_on_c, 0, 51, 59
2, 237936, Note_on_c, 0, 69, 0
2, 237944, Note_on_c, 0, 52, 0
2, 238045, Note_on_c, 0, 72, 0
2, 238111, Note_on_c, 0, 73, 66
2, 238116, Note_on_c, 0, 51, 0
2, 238119, Note_on_c, 0, 52, 46
2, 238128, Note_on_c, 0, 56, 42
2, 238470, Note_on_c, 0, 68, 54
2, 238477, Note_on_c, 0, 49, 43
2, 238541, Note_on_c, 0, 52, 0
2, 238563, Note_on_c, 0, 56, 0
2, 238602, Note_on_c, 0, 68, 0
2, 238844, Note_on_c, 0, 66, 51
2, 238849, Note_on_c, 0, 51, 40
2, 238994, Note_on_c, 0, 49, 0
2, 239017, Note_on_c, 0, 68, 56
2, 239026, Note_on_c, 0, 66, 0
2, 239197, Note_on_c, 0, 66, 45
2, 239238, Note_on_c, 0, 73, 0
2, 239344, Note_on_c, 0, 66, 0
2, 239363, Note_on_c, 0, 64, 45
2, 239510, Note_on_c, 0, 64, 0
2, 239539, Note_on_c, 0, 66, 51
2, 239546, Note_on_c, 0, 72, 51
2, 239551, Note_on_c, 0, 56, 47
2, 239626, Note_on_c, 0, 68, 0
2, 239705, Note_on_c, 0, 66, 0
2, 239711, Note_on_c, 0, 64, 53
2, 239731, Note_on_c, 0, 51, 0
2, 239883, Note_on_c, 0, 63, 54
2, 239975, Note_on_c, 0, 64, 0
2, 239996, Note_on_c, 0, 72, 0
2, 240040, Note_on_c, 0, 66, 55
2, 240093, Note_on_c, 0, 63, 0
2, 240216, Note_on_c, 0, 66, 0
2, 240226, Note_on_c, 0, 73, 58
2, 240233, Note_on_c, 0, 64, 46
2, 240234, Note_on_c, 0, 49, 42
2, 240295, Note_on_c, 0, 56, 0
2, 240383, Note_on_c, 0, 64, 0
2, 240383, Note_on_c, 0, 66, 52
2, 240454, Note_on_c, 0, 49, 0
2, 240555, Note_on_c, 0, 64, 50
2, 240604, Note_on_c, 0, 66, 0
2, 240701, Note_on_c, 0, 64, 0
2, 240726, Note_on_c, 0, 63, 47
2, 240920, Note_on_c, 0, 64, 50
2, 240937, Note_on_c, 0, 63, 0
2, 241020, Note_on_c, 0, 73, 0
2, 241068, Note_on_c, 0, 64, 0
2, 241077, Note_on_c, 0, 63, 54
2, 241249, Note_on_c, 0, 73, 60
2, 241252, Note_on_c, 0, 61, 49
2, 241252, Note_on_c, 0, 63, 0
2, 241379, Note_on_c, 0, 61, 0
2, 241417, Note_on_c, 0, 64, 42
2, 241439, Note_on_c, 0, 73, 0
2, 241607, Note_on_c, 0, 71, 53
2, 241610, Note_on_c, 0, 64, 0
2, 241619, Note_on_c, 0, 63, 39
2, 241784, Note_on_c, 0, 71, 0
2, 241784, Note_on_c, 0, 73, 52
2, 241812, Note_on_c, 0, 63, 0
2, 241950, Note_on_c, 0, 68, 44
2, 241950, Note_on_c, 0, 71, 49
2, 242060, Note_on_c, 0, 73, 0
2, 242106, Note_on_c, 0, 69, 53
2, 242112, Note_on_c, 0, 71, 0
2, 242146, Note_on_c, 0, 68, 0
2, 242297, Note_on_c, 0, 69, 0
2, 242298, Note_on_c, 0, 71, 48
2, 242300, Note_on_c, 0, 61, 45
2, 242451, Note_on_c, 0, 69, 57
2, 242483, Note_on_c, 0, 71, 0
2, 242505, Note_on_c, 0, 61, 0
2, 242627, Note_on_c, 0, 68, 59
2, 242633, Note_on_c, 0, 69, 0
2, 242645, Note_on_c, 0, 65, 42
2, 242771, Note_on_c, 0, 65, 0
2, 242798, Note_on_c, 0, 71, 56
2, 242861, Note_on_c, 0, 68, 0
2, 242973, Note_on_c, 0, 66, 45
2, 242976, Note_on_c, 0, 69, 54
2, 243007, Note_on_c, 0, 71, 0
2, 243133, Note_on_c, 0, 62, 45
2, 243136, Note_on_c, 0, 71, 58
2, 243181, Note_on_c, 0, 69, 0
2, 243185, Note_on_c, 0, 66, 0
2, 243300, Note_on_c, 0, 61, 52
2, 243300, Note_on_c, 0, 69, 61
2, 243308, Note_on_c, 0, 71, 0
2, 243388, Note_on_c, 0, 62, 0
2, 243462, Note_on_c, 0, 59, 47
2, 243468, Note_on_c, 0, 61, 0
2, 243468, Note_on_c, 0, 68, 61
2, 243497, Note_on_c, 0, 69, 0
2, 243597, Note_on_c, 0, 59, 0
2, 243627, Note_on_c, 0, 61, 49
2, 243631, Note_on_c, 0, 69, 60
2, 243661, Note_on_c, 0, 68, 0
2, 243789, Note_on_c, 0, 57, 50
2, 243794, Note_on_c, 0, 68, 64
2, 243848, Note_on_c, 0, 69, 0
2, 243928, Note_on_c, 0, 61, 0
2, 243970, Note_on_c, 0, 66, 53
2, 243973, Note_on_c, 0, 54, 41
2, 243974, Note_on_c, 0, 62, 46
2, 244004, Note_on_c, 0, 68, 0
2, 244039, Note_on_c, 0, 57, 0
2, 244107, Note_on_c, 0, 62, 0
2, 244119, Note_on_c, 0, 54, 0
2, 244120, Note_on_c, 0, 69, 56
2, 244126, Note_on_c, 0, 66, 0
2, 244311, Note_on_c, 0, 68, 56
2, 244312, Note_on_c, 0, 52, 44
2, 244358, Note_on_c, 0, 69, 0
2, 244472, Note_on_c, 0, 54, 51
2, 244502, Note_on_c, 0, 52, 0
2, 244569, Note_on_c, 0, 68, 0
2, 244643, Note_on_c, 0, 73, 54
2, 244646, Note_on_c, 0, 54, 0
2, 244649, Note_on_c, 0, 56, 43
2, 244653, Note_on_c, 0, 52, 46
2, 244796, Note_on_c, 0, 52, 0
2, 244811, Note_on_c, 0, 50, 47
2, 244852, Note_on_c, 0, 73, 0
2, 244951, Note_on_c, 0, 56, 0
2, 244972, Note_on_c, 0, 50, 0
2, 244983, Note_on_c, 0, 66, 55
2, 244998, Note_on_c, 0, 52, 48
2, 245160, Note_on_c, 0, 50, 45
2, 245187, Note_on_c, 0, 66, 0
2, 245196, Note_on_c, 0, 52, 0
2, 245319, Note_on_c, 0, 70, 58
2, 245327, Note_on_c, 0, 49, 53
2, 245332, Note_on_c, 0, 61, 45
2, 245363, Note_on_c, 0, 50, 0
2, 245480, Note_on_c, 0, 52, 52
2, 245496, Note_on_c, 0, 49, 0
2, 245517, Note_on_c, 0, 61, 0
2, 245565, Note_on_c, 0, 70, 0
2, 245645, Note_on_c, 0, 52, 0
2, 245656, Note_on_c, 0, 71, 55
2, 245662, Note_on_c, 0, 50, 50
2, 245683, Note_on_c, 0, 62, 46
2, 245793, Note_on_c, 0, 50, 0
2, 245814, Note_on_c, 0, 52, 56
2, 245821, Note_on_c, 0, 62, 0
2, 245853, Note_on_c, 0, 71, 0
2, 246006, Note_on_c, 0, 66, 66
2, 246007, Note_on_c, 0, 50, 55
2, 246057, Note_on_c, 0, 52, 0
2, 246149, Note_on_c, 0, 66, 0
2, 246154, Note_on_c, 0, 49, 54
2, 246166, Note_on_c, 0, 50, 0
2, 246347, Note_on_c, 0, 50, 52
2, 246348, Note_on_c, 0, 71, 75
2, 246363, Note_on_c, 0, 49, 0
2, 246497, Note_on_c, 0, 49, 53
2, 246575, Note_on_c, 0, 50, 0
2, 246679, Note_on_c, 0, 49, 0
2, 246681, Note_on_c, 0, 66, 56
2, 246694, Note_on_c, 0, 47, 46
2, 246838, Note_on_c, 0, 66, 0
2, 246840, Note_on_c, 0, 50, 49
2, 246852, Note_on_c, 0, 47, 0
2, 247023, Note_on_c, 0, 64, 49
2, 247024, Note_on_c, 0, 49, 47
2, 247134, Note_on_c, 0, 50, 0
2, 247177, Note_on_c, 0, 64, 0
2, 247187, Note_on_c, 0, 66, 52
2, 247222, Note_on_c, 0, 49, 0
2, 247355, Note_on_c, 0, 64, 45
2, 247364, Note_on_c, 0, 71, 0
2, 247366, Note_on_c, 0, 42, 45
2, 247512, Note_on_c, 0, 42, 0
2, 247513, Note_on_c, 0, 64, 0
2, 247527, Note_on_c, 0, 63, 48
2, 247702, Note_on_c, 0, 54, 48
2, 247706, Note_on_c, 0, 69, 58
2, 247718, Note_on_c, 0, 63, 0
2, 247719, Note_on_c, 0, 64, 40
2, 247731, Note_on_c, 0, 66, 0
2, 247864, Note_on_c, 0, 63, 47
2, 247867, Note_on_c, 0, 64, 0
2, 247893, Note_on_c, 0, 54, 0
2, 248031, Note_on_c, 0, 61, 54
2, 248040, Note_on_c, 0, 57, 41
2, 248045, Note_on_c, 0, 63, 0
2, 248201, Note_on_c, 0, 57, 0
2, 248206, Note_on_c, 0, 64, 41
2, 248214, Note_on_c, 0, 61, 0
2, 248379, Note_on_c, 0, 64, 0
2, 248387, Note_on_c, 0, 63, 51
2, 248397, Note_on_c, 0, 47, 52
2, 248534, Note_on_c, 0, 63, 0
2, 248548, Note_on_c, 0, 64, 52
2, 248613, Note_on_c, 0, 47, 0
2, 248730, Note_on_c, 0, 63, 57
2, 248739, Note_on_c, 0, 59, 39
2, 248770, Note_on_c, 0, 69, 0
2, 248877, Note_on_c, 0, 61, 57
2, 248883, Note_on_c, 0, 63, 0
2, 248911, Note_on_c, 0, 59, 0
2, 249051, Note_on_c, 0, 68, 61
2, 249061, Note_on_c, 0, 61, 0
2, 249061, Note_on_c, 0, 64, 0
2, 249062, Note_on_c, 0, 52, 50
2, 249082, Note_on_c, 0, 63, 47
2, 249234, Note_on_c, 0, 61, 43
2, 249258, Note_on_c, 0, 52, 0
2, 249269, Note_on_c, 0, 63, 0
2, 249391, Note_on_c, 0, 61, 0
2, 249408, Note_on_c, 0, 56, 47
2, 249411, Note_on_c, 0, 60, 50
2, 249516, Note_on_c, 0, 56, 0
2, 249548, Note_on_c, 0, 60, 0
2, 249567, Note_on_c, 0, 63, 48
2, 249739, Note_on_c, 0, 63, 0
2, 249740, Note_on_c, 0, 45, 49
2, 249741, Note_on_c, 0, 61, 51
2, 249904, Note_on_c, 0, 61, 0
2, 249905, Note_on_c, 0, 63, 47
2, 249927, Note_on_c, 0, 45, 0
2, 250082, Note_on_c, 0, 61, 47
2, 250088, Note_on_c, 0, 44, 50
2, 250180, Note_on_c, 0, 68, 0
2, 250241, Note_on_c, 0, 61, 0
2, 250248, Note_on_c, 0, 60, 47
2, 250259, Note_on_c, 0, 44, 0
2, 250423, Note_on_c, 0, 60, 0
2, 250423, Note_on_c, 0, 66, 57
2, 250443, Note_on_c, 0, 45, 44
2, 250447, Note_on_c, 0, 61, 42
2, 250487, Note_on_c, 0, 63, 0
2, 250586, Note_on_c, 0, 61, 0
2, 250619, Note_on_c, 0, 64, 42
2, 250632, Note_on_c, 0, 45, 0
2, 250774, Note_on_c, 0, 63, 54
2, 250778, Note_on_c, 0, 57, 42
2, 250778, Note_on_c, 0, 66, 0
2, 250863, Note_on_c, 0, 64, 0
2, 250881, Note_on_c, 0, 57, 0
2, 250928, Note_on_c, 0, 61, 54
2, 251101, Note_on_c, 0, 68, 53
2, 251103, Note_on_c, 0, 61, 0
2, 251119, Note_on_c, 0, 56, 39
2, 251125, Note_on_c, 0, 60, 43
2, 251129, Note_on_c, 0, 63, 0
2, 251229, Note_on_c, 0, 60, 0
2, 251249, Note_on_c, 0, 68, 0
2, 251268, Note_on_c, 0, 56, 0
2, 251279, Note_on_c, 0, 57, 45
2, 251459, Note_on_c, 0, 72, 62
2, 251473, Note_on_c, 0, 56, 42
2, 251481, Note_on_c, 0, 63, 47
2, 251586, Note_on_c, 0, 57, 0
2, 251626, Note_on_c, 0, 54, 49
2, 251632, Note_on_c, 0, 63, 0
2, 251668, Note_on_c, 0, 56, 0
2, 251809, Note_on_c, 0, 73, 66
2, 251815, Note_on_c, 0, 54, 0
2, 251821, Note_on_c, 0, 56, 41
2, 251831, Note_on_c, 0, 64, 54
2, 251877, Note_on_c, 0, 72, 0
2, 251969, Note_on_c, 0, 54, 54
2, 252013, Note_on_c, 0, 56, 0
2, 252087, Note_on_c, 0, 64, 0
2, 252136, Note_on_c, 0, 54, 0
2, 252136, Note_on_c, 0, 68, 49
2, 252153, Note_on_c, 0, 52, 52
2, 252161, Note_on_c, 0, 76, 52
2, 252219, Note_on_c, 0, 73, 0
2, 252312, Note_on_c, 0, 52, 0
2, 252318, Note_on_c, 0, 56, 47
2, 252457, Note_on_c, 0, 76, 0
2, 252483, Note_on_c, 0, 54, 54
2, 252494, Note_on_c, 0, 56, 0
2, 252513, Note_on_c, 0, 68, 0
2, 252629, Note_on_c, 0, 54, 0
2, 252635, Note_on_c, 0, 56, 55
2, 252817, Note_on_c, 0, 68, 58
2, 252819, Note_on_c, 0, 76, 65
2, 252824, Note_on_c, 0, 54, 54
2, 252871, Note_on_c, 0, 56, 0
2, 252979, Note_on_c, 0, 54, 0
2, 252982, Note_on_c, 0, 52, 58
2, 253027, Note_on_c, 0, 68, 0
2, 253166, Note_on_c, 0, 75, 73
2, 253167, Note_on_c, 0, 52, 0
2, 253167, Note_on_c, 0, 66, 61
2, 253169, Note_on_c, 0, 54, 50
2, 253218, Note_on_c, 0, 76, 0
2, 253338, Note_on_c, 0, 52, 44
2, 253405, Note_on_c, 0, 54, 0
2, 253501, Note_on_c, 0, 78, 65
2, 253502, Note_on_c, 0, 69, 56
2, 253506, Note_on_c, 0, 51, 50
2, 253533, Note_on_c, 0, 52, 0
2, 253569, Note_on_c, 0, 75, 0
2, 253572, Note_on_c, 0, 66, 0
2, 253680, Note_on_c, 0, 54, 53
2, 253681, Note_on_c, 0, 51, 0
2, 253849, Note_on_c, 0, 52, 54
2, 253864, Note_on_c, 0, 54, 0
2, 253875, Note_on_c, 0, 78, 0
2, 253961, Note_on_c, 0, 69, 0
2, 254001, Note_on_c, 0, 52, 0
2, 254007, Note_on_c, 0, 54, 55
2, 254184, Note_on_c, 0, 68, 57
2, 254186, Note_on_c, 0, 52, 51
2, 254187, Note_on_c, 0, 72, 59
2, 254202, Note_on_c, 0, 54, 0
2, 254257, Note_on_c, 0, 68, 0
2, 254332, Note_on_c, 0, 52, 0
2, 254337, Note_on_c, 0, 51, 55
2, 254339, Note_on_c, 0, 66, 54
2, 254492, Note_on_c, 0, 66, 0
2, 254523, Note_on_c, 0, 51, 0
2, 254533, Note_on_c, 0, 73, 68
2, 254536, Note_on_c, 0, 52, 58
2, 254545, Note_on_c, 0, 68, 59
2, 254603, Note_on_c, 0, 72, 0
2, 254689, Note_on_c, 0, 51, 57
2, 254701, Note_on_c, 0, 52, 0
2, 254712, Note_on_c, 0, 68, 0
2, 254860, Note_on_c, 0, 49, 55
2, 254868, Note_on_c, 0, 70, 62
2, 254945, Note_on_c, 0, 51, 0
2, 255000, Note_on_c, 0, 70, 0
2, 255011, Note_on_c, 0, 52, 53
2, 255018, Note_on_c, 0, 49, 0
2, 255221, Note_on_c, 0, 43, 52
2, 255229, Note_on_c, 0, 63, 43
2, 255328, Note_on_c, 0, 52, 0
2, 255382, Note_on_c, 0, 63, 0
2, 255405, Note_on_c, 0, 64, 50
2, 255432, Note_on_c, 0, 73, 0
2, 255524, Note_on_c, 0, 64, 0
2, 255577, Note_on_c, 0, 46, 54
2, 255579, Note_on_c, 0, 63, 54
2, 255579, Note_on_c, 0, 67, 59
2, 255649, Note_on_c, 0, 43, 0
2, 255671, Note_on_c, 0, 63, 0
2, 255738, Note_on_c, 0, 61, 48
2, 255902, Note_on_c, 0, 61, 0
2, 255908, Note_on_c, 0, 47, 49
2, 255914, Note_on_c, 0, 68, 63
2, 255918, Note_on_c, 0, 63, 52
2, 255955, Note_on_c, 0, 46, 0
2, 255955, Note_on_c, 0, 67, 0
2, 256080, Note_on_c, 0, 61, 53
2, 256166, Note_on_c, 0, 61, 0
2, 256251, Note_on_c, 0, 63, 0
2, 256260, Note_on_c, 0, 52, 47
2, 256272, Note_on_c, 0, 59, 54
2, 256318, Note_on_c, 0, 47, 0
2, 256417, Note_on_c, 0, 59, 0
2, 256427, Note_on_c, 0, 63, 54
2, 256591, Note_on_c, 0, 63, 0
2, 256602, Note_on_c, 0, 46, 50
2, 256604, Note_on_c, 0, 61, 53
2, 256725, Note_on_c, 0, 52, 0
2, 256742, Note_on_c, 0, 68, 0
2, 256759, Note_on_c, 0, 61, 0
2, 256781, Note_on_c, 0, 63, 49
2, 256943, Note_on_c, 0, 63, 0
2, 256949, Note_on_c, 0, 70, 62
2, 256952, Note_on_c, 0, 49, 50
2, 256966, Note_on_c, 0, 61, 44
2, 257011, Note_on_c, 0, 46, 0
2, 257113, Note_on_c, 0, 61, 0
2, 257120, Note_on_c, 0, 59, 56
2, 257178, Note_on_c, 0, 70, 0
2, 257274, Note_on_c, 0, 59, 0
2, 257300, Note_on_c, 0, 61, 51
2, 257301, Note_on_c, 0, 51, 50
2, 257308, Note_on_c, 0, 49, 0
2, 257311, Note_on_c, 0, 63, 52
2, 257399, Note_on_c, 0, 61, 0
2, 257455, Note_on_c, 0, 59, 52
2, 257563, Note_on_c, 0, 63, 0
2, 257627, Note_on_c, 0, 58, 52
2, 257633, Note_on_c, 0, 39, 46
2, 257639, Note_on_c, 0, 67, 52
2, 257651, Note_on_c, 0, 59, 0
2, 257685, Note_on_c, 0, 51, 0
2, 257781, Note_on_c, 0, 67, 0
2, 257794, Note_on_c, 0, 61, 58
2, 257804, Note_on_c, 0, 58, 0
2, 257972, Note_on_c, 0, 61, 0
2, 257982, Note_on_c, 0, 44, 45
2, 257987, Note_on_c, 0, 68, 58
2, 257998, Note_on_c, 0, 59, 42
2, 258026, Note_on_c, 0, 39, 0
2, 258130, Note_on_c, 0, 44, 0
2, 258144, Note_on_c, 0, 59, 0
2, 258151, Note_on_c, 0, 61, 54
2, 258323, Note_on_c, 0, 56, 51
2, 258329, Note_on_c, 0, 63, 55
2, 258332, Note_on_c, 0, 61, 0
2, 258457, Note_on_c, 0, 56, 0
2, 258473, Note_on_c, 0, 54, 53
2, 258482, Note_on_c, 0, 59, 54
2, 258513, Note_on_c, 0, 63, 0
2, 258527, Note_on_c, 0, 59, 0
2, 258596, Note_on_c, 0, 68, 0
2, 258673, Note_on_c, 0, 64, 66
2, 258676, Note_on_c, 0, 56, 53
2, 258717, Note_on_c, 0, 54, 0
2, 258843, Note_on_c, 0, 69, 59
2, 258876, Note_on_c, 0, 56, 0
2, 258993, Note_on_c, 0, 69, 0
2, 259001, Note_on_c, 0, 71, 58
2, 259011, Note_on_c, 0, 49, 54
2, 259121, Note_on_c, 0, 49, 0
2, 259162, Note_on_c, 0, 68, 61
2, 259217, Note_on_c, 0, 71, 0
2, 259340, Note_on_c, 0, 69, 66
2, 259354, Note_on_c, 0, 42, 54
2, 259361, Note_on_c, 0, 68, 0
2, 259516, Note_on_c, 0, 71, 65
2, 259535, Note_on_c, 0, 42, 0
2, 259537, Note_on_c, 0, 69, 0
2, 259669, Note_on_c, 0, 54, 57
2, 259678, Note_on_c, 0, 69, 68
2, 259687, Note_on_c, 0, 71, 0
2, 259767, Note_on_c, 0, 64, 0
2, 259820, Note_on_c, 0, 52, 59
2, 259838, Note_on_c, 0, 68, 72
2, 259846, Note_on_c, 0, 69, 0
2, 259908, Note_on_c, 0, 54, 0
2, 260012, Note_on_c, 0, 69, 73
2, 260014, Note_on_c, 0, 68, 0
2, 260017, Note_on_c, 0, 54, 63
2, 260024, Note_on_c, 0, 63, 56
2, 260067, Note_on_c, 0, 52, 0
2, 260170, Note_on_c, 0, 68, 70
2, 260187, Note_on_c, 0, 69, 0
2, 260189, Note_on_c, 0, 54, 0
2, 260334, Note_on_c, 0, 66, 69
2, 260352, Note_on_c, 0, 47, 58
2, 260354, Note_on_c, 0, 68, 0
2, 260429, Note_on_c, 0, 63, 0
2, 260435, Note_on_c, 0, 47, 0
2, 260487, Note_on_c, 0, 69, 68
2, 260521, Note_on_c, 0, 66, 0
2, 260674, Note_on_c, 0, 52, 50
2, 260684, Note_on_c, 0, 68, 66
2, 260689, Note_on_c, 0, 69, 0
2, 260695, Note_on_c, 0, 64, 53
2, 260842, Note_on_c, 0, 54, 58
2, 260844, Note_on_c, 0, 69, 68
2, 260848, Note_on_c, 0, 52, 0
2, 260878, Note_on_c, 0, 68, 0
2, 260990, Note_on_c, 0, 71, 67
2, 260998, Note_on_c, 0, 69, 0
2, 261000, Note_on_c, 0, 56, 52
2, 261013, Note_on_c, 0, 54, 0
2, 261145, Note_on_c, 0, 68, 73
2, 261149, Note_on_c, 0, 71, 0
2, 261156, Note_on_c, 0, 52, 55
2, 261163, Note_on_c, 0, 56, 0
2, 261229, Note_on_c, 0, 64, 0
2, 261335, Note_on_c, 0, 73, 70
2, 261348, Note_on_c, 0, 57, 54
2, 261390, Note_on_c, 0, 52, 0
2, 261391, Note_on_c, 0, 68, 0
2, 261493, Note_on_c, 0, 57, 0
2, 261519, Note_on_c, 0, 71, 60
2, 261538, Note_on_c, 0, 59, 46
2, 261682, Note_on_c, 0, 69, 55
2, 261698, Note_on_c, 0, 61, 53
2, 261711, Note_on_c, 0, 71, 0
2, 261720, Note_on_c, 0, 59, 0
2, 261800, Note_on_c, 0, 69, 0
2, 261840, Note_on_c, 0, 68, 64
2, 261853, Note_on_c, 0, 57, 52
2, 261887, Note_on_c, 0, 61, 0
2, 262006, Note_on_c, 0, 68, 0
2, 262025, Note_on_c, 0, 66, 61
2, 262033, Note_on_c, 0, 62, 55
2, 262055, Note_on_c, 0, 57, 0
2, 262180, Note_on_c, 0, 62, 0
2, 262193, Note_on_c, 0, 73, 0
2, 262209, Note_on_c, 0, 64, 52
2, 262368, Note_on_c, 0, 73, 72
2, 262375, Note_on_c, 0, 62, 52
2, 262428, Note_on_c, 0, 64, 0
2, 262507, Note_on_c, 0, 73, 0
2, 262526, Note_on_c, 0, 61, 54
2, 262556, Note_on_c, 0, 62, 0
2, 262722, Note_on_c, 0, 71, 67
2, 262723, Note_on_c, 0, 61, 0
2, 262723, Note_on_c, 0, 62, 49
2, 262856, Note_on_c, 0, 66, 0
2, 262874, Note_on_c, 0, 61, 51
2, 262933, Note_on_c, 0, 62, 0
2, 263059, Note_on_c, 0, 59, 51
2, 263062, Note_on_c, 0, 66, 57
2, 263085, Note_on_c, 0, 61, 0
2, 263212, Note_on_c, 0, 66, 0
2, 263225, Note_on_c, 0, 62, 50
2, 263226, Note_on_c, 0, 59, 0
2, 263389, Note_on_c, 0, 62, 0
2, 263405, Note_on_c, 0, 61, 47
2, 263412, Note_on_c, 0, 64, 53
2, 263441, Note_on_c, 0, 71, 0
2, 263546, Note_on_c, 0, 61, 0
2, 263562, Note_on_c, 0, 71, 57
2, 263563, Note_on_c, 0, 62, 49
2, 263725, Note_on_c, 0, 61, 48
2, 263734, Note_on_c, 0, 69, 55
2, 263810, Note_on_c, 0, 71, 0
2, 263816, Note_on_c, 0, 62, 0
2, 263890, Note_on_c, 0, 59, 53
2, 263896, Note_on_c, 0, 68, 63
2, 263897, Note_on_c, 0, 69, 0
2, 263916, Note_on_c, 0, 61, 0
2, 264069, Note_on_c, 0, 59, 0
2, 264069, Note_on_c, 0, 69, 65
2, 264076, Note_on_c, 0, 61, 56
2, 264089, Note_on_c, 0, 64, 0
2, 264219, Note_on_c, 0, 68, 0
2, 264226, Note_on_c, 0, 71, 64
2, 264231, Note_on_c, 0, 59, 54
2, 264242, Note_on_c, 0, 69, 0
2, 264302, Note_on_c, 0, 61, 0
2, 264393, Note_on_c, 0, 73, 73
2, 264400, Note_on_c, 0, 57, 54
2, 264411, Note_on_c, 0, 71, 0
2, 264415, Note_on_c, 0, 59, 0
2, 264559, Note_on_c, 0, 73, 0
2, 264568, Note_on_c, 0, 69, 63
2, 264575, Note_on_c, 0, 61, 60
2, 264614, Note_on_c, 0, 57, 0
2, 264765, Note_on_c, 0, 74, 62
2, 264770, Note_on_c, 0, 59, 56
2, 264773, Note_on_c, 0, 69, 0
2, 264856, Note_on_c, 0, 61, 0
2, 264929, Note_on_c, 0, 74, 0
2, 264939, Note_on_c, 0, 76, 55
2, 265106, Note_on_c, 0, 76, 0
2, 265108, Note_on_c, 0, 74, 57
2, 265110, Note_on_c, 0, 69, 56
2, 265269, Note_on_c, 0, 74, 0
2, 265271, Note_on_c, 0, 73, 61
2, 265441, Note_on_c, 0, 73, 0
2, 265441, Note_on_c, 0, 74, 53
2, 265443, Note_on_c, 0, 68, 63
2, 265537, Note_on_c, 0, 69, 0
2, 265580, Note_on_c, 0, 59, 0
2, 265593, Note_on_c, 0, 73, 58
2, 265640, Note_on_c, 0, 74, 0
2, 265777, Note_on_c, 0, 71, 57
2, 265782, Note_on_c, 0, 73, 0
2, 265799, Note_on_c, 0, 64, 47
2, 265892, Note_on_c, 0, 64, 0
2, 265942, Note_on_c, 0, 74, 57
2, 265959, Note_on_c, 0, 71, 0
2, 266125, Note_on_c, 0, 73, 67
2, 266125, Note_on_c, 0, 74, 0
2, 266134, Note_on_c, 0, 57, 58
2, 266262, Note_on_c, 0, 68, 0
2, 266293, Note_on_c, 0, 74, 51
2, 266316, Note_on_c, 0, 73, 0
2, 266452, Note_on_c, 0, 73, 60
2, 266472, Note_on_c, 0, 61, 57
2, 266520, Note_on_c, 0, 74, 0
2, 266623, Note_on_c, 0, 71, 58
2, 266672, Note_on_c, 0, 73, 0
2, 266816, Note_on_c, 0, 73, 69
2, 266819, Note_on_c, 0, 66, 68
2, 266826, Note_on_c, 0, 71, 0
2, 266853, Note_on_c, 0, 61, 0
2, 266922, Note_on_c, 0, 57, 0
2, 266972, Note_on_c, 0, 71, 66
2, 267048, Note_on_c, 0, 73, 0
2, 267140, Note_on_c, 0, 69, 69
2, 267143, Note_on_c, 0, 62, 56
2, 267146, Note_on_c, 0, 71, 0
2, 267234, Note_on_c, 0, 62, 0
2, 267297, Note_on_c, 0, 73, 68
2, 267311, Note_on_c, 0, 69, 0
2, 267366, Note_on_c, 0, 73, 0
2, 267476, Note_on_c, 0, 56, 58
2, 267488, Note_on_c, 0, 71, 63
2, 267515, Note_on_c, 0, 66, 0
2, 267641, Note_on_c, 0, 56, 0
2, 267643, Note_on_c, 0, 69, 59
2, 267810, Note_on_c, 0, 69, 0
2, 267812, Note_on_c, 0, 68, 57
2, 267819, Note_on_c, 0, 59, 45
2, 267974, Note_on_c, 0, 68, 0
2, 267975, Note_on_c, 0, 66, 51
2, 268148, Note_on_c, 0, 68, 52
2, 268150, Note_on_c, 0, 53, 49
2, 268165, Note_on_c, 0, 66, 0
2, 268319, Note_on_c, 0, 66, 47
2, 268354, Note_on_c, 0, 68, 0
2, 268449, Note_on_c, 0, 59, 0
2, 268473, Note_on_c, 0, 66, 0
2, 268476, Note_on_c, 0, 49, 51
2, 268487, Note_on_c, 0, 65, 47
2, 268540, Note_on_c, 0, 53, 0
2, 268608, Note_on_c, 0, 65, 0
2, 268637, Note_on_c, 0, 68, 53
2, 268837, Note_on_c, 0, 68, 0
2, 268841, Note_on_c, 0, 66, 54
2, 268849, Note_on_c, 0, 54, 42
2, 268917, Note_on_c, 0, 49, 0
2, 269010, Note_on_c, 0, 68, 53
2, 269045, Note_on_c, 0, 71, 0
2, 269099, Note_on_c, 0, 66, 0
2, 269188, Note_on_c, 0, 70, 59
2, 269194, Note_on_c, 0, 61, 48
2, 269210, Note_on_c, 0, 68, 0
2, 269349, Note_on_c, 0, 71, 59
2, 269353, Note_on_c, 0, 70, 0
2, 269511, Note_on_c, 0, 62, 53
2, 269513, Note_on_c, 0, 70, 61
2, 269527, Note_on_c, 0, 71, 0
2, 269609, Note_on_c, 0, 61, 0
2, 269623, Note_on_c, 0, 54, 0
2, 269687, Note_on_c, 0, 71, 60
2, 269707, Note_on_c, 0, 70, 0
2, 269852, Note_on_c, 0, 54, 59
2, 269855, Note_on_c, 0, 73, 67
2, 269876, Note_on_c, 0, 71, 0
2, 269940, Note_on_c, 0, 54, 0
2, 270008, Note_on_c, 0, 70, 68
2, 270063, Note_on_c, 0, 73, 0
2, 270185, Note_on_c, 0, 55, 64
2, 270188, Note_on_c, 0, 71, 68
2, 270228, Note_on_c, 0, 70, 0
2, 270326, Note_on_c, 0, 62, 0
2, 270358, Note_on_c, 0, 70, 70
2, 270370, Note_on_c, 0, 71, 0
2, 270515, Note_on_c, 0, 63, 67
2, 270517, Note_on_c, 0, 71, 70
2, 270536, Note_on_c, 0, 70, 0
2, 270681, Note_on_c, 0, 73, 71
2, 270698, Note_on_c, 0, 71, 0
2, 270852, Note_on_c, 0, 64, 62
2, 270861, Note_on_c, 0, 71, 70
2, 270865, Note_on_c, 0, 73, 0
2, 270947, Note_on_c, 0, 63, 0
2, 270979, Note_on_c, 0, 55, 0
2, 271012, Note_on_c, 0, 73, 70
2, 271093, Note_on_c, 0, 71, 0
2, 271187, Note_on_c, 0, 74, 69
2, 271188, Note_on_c, 0, 56, 66
2, 271221, Note_on_c, 0, 73, 0
2, 271302, Note_on_c, 0, 56, 0
2, 271350, Note_on_c, 0, 71, 70
2, 271393, Note_on_c, 0, 74, 0
2, 271534, Note_on_c, 0, 73, 73
2, 271535, Note_on_c, 0, 57, 71
2, 271571, Note_on_c, 0, 71, 0
2, 271622, Note_on_c, 0, 64, 0
2, 271685, Note_on_c, 0, 71, 75
2, 271731, Note_on_c, 0, 73, 0
2, 271856, Note_on_c, 0, 65, 76
2, 271857, Note_on_c, 0, 73, 74
2, 271879, Note_on_c, 0, 71, 0
2, 272011, Note_on_c, 0, 74, 73
2, 272025, Note_on_c, 0, 73, 0
2, 272202, Note_on_c, 0, 66, 72
2, 272202, Note_on_c, 0, 73, 73
2, 272235, Note_on_c, 0, 74, 0
2, 272252, Note_on_c, 0, 65, 0
2, 272345, Note_on_c, 0, 57, 0
2, 272361, Note_on_c, 0, 74, 73
2, 272403, Note_on_c, 0, 73, 0
2, 272530, Note_on_c, 0, 58, 61
2, 272534, Note_on_c, 0, 76, 73
2, 272572, Note_on_c, 0, 74, 0
2, 272660, Note_on_c, 0, 58, 0
2, 272689, Note_on_c, 0, 73, 76
2, 272754, Note_on_c, 0, 76, 0
2, 272895, Note_on_c, 0, 74, 70
2, 272897, Note_on_c, 0, 59, 58
2, 272924, Note_on_c, 0, 73, 0
2, 273056, Note_on_c, 0, 76, 67
2, 273104, Note_on_c, 0, 74, 0
2, 273185, Note_on_c, 0, 59, 0
2, 273218, Note_on_c, 0, 54, 57
2, 273221, Note_on_c, 0, 74, 74
2, 273355, Note_on_c, 0, 76, 0
2, 273363, Note_on_c, 0, 73, 71
2, 273412, Note_on_c, 0, 74, 0
2, 273456, Note_on_c, 0, 54, 0
2, 273537, Note_on_c, 0, 74, 69
2, 273548, Note_on_c, 0, 47, 62
2, 273576, Note_on_c, 0, 73, 0
2, 273704, Note_on_c, 0, 73, 81
2, 273757, Note_on_c, 0, 74, 0
2, 273764, Note_on_c, 0, 47, 0
2, 273870, Note_on_c, 0, 71, 77
2, 273891, Note_on_c, 0, 50, 65
2, 273933, Note_on_c, 0, 73, 0
2, 274022, Note_on_c, 0, 74, 78
2, 274029, Note_on_c, 0, 71, 0
2, 274072, Note_on_c, 0, 50, 0
2, 274240, Note_on_c, 0, 68, 42
2, 274245, Note_on_c, 0, 52, 64
2, 274248, Note_on_c, 0, 67, 79
2, 274273, Note_on_c, 0, 68, 0
2, 274300, Note_on_c, 0, 66, 0
2, 274319, Note_on_c, 0, 74, 0
2, 274432, Note_on_c, 0, 66, 66
2, 274454, Note_on_c, 0, 52, 0
2, 274550, Note_on_c, 0, 66, 0
2, 274591, Note_on_c, 0, 54, 58
2, 274591, Note_on_c, 0, 64, 66
2, 274739, Note_on_c, 0, 62, 66
2, 274746, Note_on_c, 0, 64, 0
2, 274780, Note_on_c, 0, 54, 0
2, 274913, Note_on_c, 0, 64, 66
2, 274924, Note_on_c, 0, 55, 61
2, 274939, Note_on_c, 0, 62, 0
2, 275080, Note_on_c, 0, 62, 70
2, 275151, Note_on_c, 0, 64, 0
2, 275163, Note_on_c, 0, 55, 0
2, 275245, Note_on_c, 0, 61, 70
2, 275251, Note_on_c, 0, 62, 0
2, 275257, Note_on_c, 0, 52, 59
2, 275397, Note_on_c, 0, 64, 71
2, 275425, Note_on_c, 0, 61, 0
2, 275532, Note_on_c, 0, 67, 0
2, 275536, Note_on_c, 0, 52, 0
2, 275579, Note_on_c, 0, 57, 69
2, 275587, Note_on_c, 0, 49, 65
2, 275647, Note_on_c, 0, 64, 0
2, 275738, Note_on_c, 0, 67, 69
2, 275819, Note_on_c, 0, 49, 0
2, 275891, Note_on_c, 0, 66, 72
2, 275900, Note_on_c, 0, 45, 58
2, 276052, Note_on_c, 0, 64, 71
2, 276085, Note_on_c, 0, 67, 0
2, 276105, Note_on_c, 0, 66, 0
2, 276106, Note_on_c, 0, 45, 0
2, 276240, Note_on_c, 0, 50, 65
2, 276244, Note_on_c, 0, 66, 69
2, 276259, Note_on_c, 0, 64, 0
2, 276394, Note_on_c, 0, 64, 73
2, 276455, Note_on_c, 0, 66, 0
2, 276499, Note_on_c, 0, 50, 0
2, 276570, Note_on_c, 0, 62, 71
2, 276579, Note_on_c, 0, 42, 63
2, 276602, Note_on_c, 0, 64, 0
2, 276733, Note_on_c, 0, 66, 80
2, 276752, Note_on_c, 0, 62, 0
2, 276813, Note_on_c, 0, 42, 0
2, 276813, Note_on_c, 0, 66, 0
2, 276920, Note_on_c, 0, 43, 64
2, 276926, Note_on_c, 0, 59, 78
2, 276963, Note_on_c, 0, 57, 0
2, 277090, Note_on_c, 0, 57, 59
2, 277161, Note_on_c, 0, 43, 0
2, 277244, Note_on_c, 0, 57, 0
2, 277257, Note_on_c, 0, 55, 64
2, 277259, Note_on_c, 0, 47, 60
2, 277418, Note_on_c, 0, 54, 61
2, 277424, Note_on_c, 0, 55, 0
2, 277476, Note_on_c, 0, 47, 0
2, 277613, Note_on_c, 0, 61, 75
2, 277626, Note_on_c, 0, 55, 65
2, 277632, Note_on_c, 0, 40, 63
2, 277643, Note_on_c, 0, 59, 0
2, 277651, Note_on_c, 0, 54, 0
2, 277774, Note_on_c, 0, 55, 0
2, 277777, Note_on_c, 0, 54, 68
2, 277900, Note_on_c, 0, 40, 0
2, 277944, Note_on_c, 0, 52, 71
2, 277963, Note_on_c, 0, 45, 63
2, 277973, Note_on_c, 0, 54, 0
2, 278054, Note_on_c, 0, 45, 0
2, 278084, Note_on_c, 0, 61, 0
2, 278103, Note_on_c, 0, 55, 71
2, 278140, Note_on_c, 0, 52, 0
2, 278299, Note_on_c, 0, 54, 60
2, 278310, Note_on_c, 0, 62, 72
2, 278313, Note_on_c, 0, 50, 66
2, 278328, Note_on_c, 0, 55, 0
2, 278436, Note_on_c, 0, 54, 0
2, 278473, Note_on_c, 0, 62, 0
2, 278482, Note_on_c, 0, 49, 76
2, 278524, Note_on_c, 0, 50, 0
2, 278667, Note_on_c, 0, 66, 89
2, 278686, Note_on_c, 0, 50, 67
2, 278737, Note_on_c, 0, 49, 0
2, 278827, Note_on_c, 0, 50, 0
2, 278827, Note_on_c, 0, 52, 71
2, 278887, Note_on_c, 0, 66, 0
2, 279041, Note_on_c, 0, 52, 0
2, 279041, Note_on_c, 0, 71, 86
2, 279045, Note_on_c, 0, 50, 68
2, 279195, Note_on_c, 0, 55, 63
2, 279207, Note_on_c, 0, 50, 0
2, 279364, Note_on_c, 0, 59, 72
2, 279366, Note_on_c, 0, 55, 0
2, 279369, Note_on_c, 0, 54, 69
2, 279517, Note_on_c, 0, 55, 59
2, 279521, Note_on_c, 0, 54, 0
2, 279537, Note_on_c, 0, 59, 0
2, 279690, Note_on_c, 0, 64, 77
2, 279699, Note_on_c, 0, 49, 68
2, 279794, Note_on_c, 0, 55, 0
2, 279870, Note_on_c, 0, 47, 71
2, 279898, Note_on_c, 0, 49, 0
2, 280030, Note_on_c, 0, 70, 78
2, 280042, Note_on_c, 0, 49, 66
2, 280089, Note_on_c, 0, 47, 0
2, 280188, Note_on_c, 0, 68, 84
2, 280193, Note_on_c, 0, 51, 70
2, 280207, Note_on_c, 0, 49, 0
2, 280213, Note_on_c, 0, 71, 0
2, 280234, Note_on_c, 0, 70, 0
2, 280374, Note_on_c, 0, 70, 85
2, 280375, Note_on_c, 0, 49, 72
2, 280421, Note_on_c, 0, 51, 0
2, 280448, Note_on_c, 0, 68, 0
2, 280481, Note_on_c, 0, 64, 0
2, 280538, Note_on_c, 0, 54, 67
2, 280582, Note_on_c, 0, 49, 0
2, 280729, Note_on_c, 0, 66, 89
2, 280742, Note_on_c, 0, 52, 67
2, 280810, Note_on_c, 0, 54, 0
2, 280915, Note_on_c, 0, 54, 71
2, 280920, Note_on_c, 0, 52, 0
2, 281134, Note_on_c, 0, 71, 83
2, 281137, Note_on_c, 0, 47, 65
2, 281140, Note_on_c, 0, 62, 80
2, 281202, Note_on_c, 0, 54, 0
2, 281236, Note_on_c, 0, 70, 0
2, 281255, Note_on_c, 0, 66, 0
2, 281312, Note_on_c, 0, 49, 71
2, 281362, Note_on_c, 0, 47, 0
2, 281499, Note_on_c, 0, 59, 89
2, 281500, Note_on_c, 0, 50, 71
2, 281534, Note_on_c, 0, 62, 0
2, 281538, Note_on_c, 0, 49, 0
2, 281662, Note_on_c, 0, 50, 0
2, 281668, Note_on_c, 0, 47, 67
2, 281853, Note_on_c, 0, 67, 85
2, 281863, Note_on_c, 0, 52, 66
2, 281928, Note_on_c, 0, 47, 0
2, 281952, Note_on_c, 0, 59, 0
2, 281960, Note_on_c, 0, 71, 0
2, 282004, Note_on_c, 0, 50, 67
2, 282077, Note_on_c, 0, 52, 0
2, 282189, Note_on_c, 0, 49, 66
2, 282197, Note_on_c, 0, 76, 76
2, 282254, Note_on_c, 0, 50, 0
2, 282343, Note_on_c, 0, 76, 0
2, 282355, Note_on_c, 0, 47, 64
2, 282360, Note_on_c, 0, 49, 0
2, 282533, Note_on_c, 0, 69, 80
2, 282542, Note_on_c, 0, 49, 67
2, 282625, Note_on_c, 0, 47, 0
2, 282685, Note_on_c, 0, 52, 68
2, 282703, Note_on_c, 0, 49, 0
2, 282899, Note_on_c, 0, 50, 66
2, 282906, Note_on_c, 0, 66, 85
2, 282936, Note_on_c, 0, 67, 0
2, 282964, Note_on_c, 0, 52, 0
2, 283053, Note_on_c, 0, 49, 69
2, 283057, Note_on_c, 0, 64, 84
2, 283074, Note_on_c, 0, 50, 0
2, 283084, Note_on_c, 0, 66, 0
2, 283234, Note_on_c, 0, 66, 90
2, 283241, Note_on_c, 0, 50, 65
2, 283274, Note_on_c, 0, 49, 0
2, 283313, Note_on_c, 0, 64, 0
2, 283366, Note_on_c, 0, 69, 0
2, 283382, Note_on_c, 0, 50, 0
2, 283404, Note_on_c, 0, 52, 73
2, 283569, Note_on_c, 0, 74, 71
2, 283571, Note_on_c, 0, 54, 66
2, 283615, Note_on_c, 0, 52, 0
2, 283731, Note_on_c, 0, 74, 0
2, 283747, Note_on_c, 0, 50, 61
2, 283765, Note_on_c, 0, 54, 0
2, 283919, Note_on_c, 0, 52, 66
2, 283924, Note_on_c, 0, 67, 76
2, 283967, Note_on_c, 0, 50, 0
2, 284071, Note_on_c, 0, 52, 0
2, 284074, Note_on_c, 0, 50, 67
2, 284254, Note_on_c, 0, 71, 83
2, 284273, Note_on_c, 0, 52, 69
2, 284286, Note_on_c, 0, 67, 0
2, 284302, Note_on_c, 0, 50, 0
2, 284432, Note_on_c, 0, 54, 65
2, 284448, Note_on_c, 0, 52, 0
2, 284603, Note_on_c, 0, 64, 90
2, 284610, Note_on_c, 0, 55, 61
2, 284612, Note_on_c, 0, 54, 0
2, 284677, Note_on_c, 0, 71, 0
2, 284744, Note_on_c, 0, 66, 0
2, 284759, Note_on_c, 0, 54, 59
2, 284762, Note_on_c, 0, 55, 0
2, 284937, Note_on_c, 0, 52, 61
2, 284949, Note_on_c, 0, 72, 71
2, 284951, Note_on_c, 0, 54, 0
2, 285063, Note_on_c, 0, 52, 0
2, 285091, Note_on_c, 0, 72, 0
2, 285107, Note_on_c, 0, 55, 60
2, 285298, Note_on_c, 0, 70, 73
2, 285300, Note_on_c, 0, 54, 62
2, 285391, Note_on_c, 0, 55, 0
2, 285462, Note_on_c, 0, 64, 0
2, 285463, Note_on_c, 0, 56, 61
2, 285555, Note_on_c, 0, 54, 0
2, 285634, Note_on_c, 0, 62, 70
2, 285639, Note_on_c, 0, 66, 77
2, 285652, Note_on_c, 0, 58, 66
2, 285679, Note_on_c, 0, 56, 0
2, 285722, Note_on_c, 0, 70, 0
2, 285796, Note_on_c, 0, 54, 72
2, 285801, Note_on_c, 0, 61, 77
2, 285820, Note_on_c, 0, 62, 0
2, 285839, Note_on_c, 0, 66, 0
2, 285862, Note_on_c, 0, 58, 0
2, 285979, Note_on_c, 0, 61, 0
2, 285991, Note_on_c, 0, 59, 78
2, 286000, Note_on_c, 0, 62, 81
2, 286009, Note_on_c, 0, 54, 0
2, 286156, Note_on_c, 0, 47, 76
2, 286167, Note_on_c, 0, 71, 63
2, 286193, Note_on_c, 0, 59, 0
2, 286216, Note_on_c, 0, 62, 0
2, 286340, Note_on_c, 0, 59, 82
2, 286342, Note_on_c, 0, 73, 78
2, 286375, Note_on_c, 0, 71, 0
2, 286440, Note_on_c, 0, 47, 0
2, 286497, Note_on_c, 0, 74, 78
2, 286544, Note_on_c, 0, 73, 0
2, 286696, Note_on_c, 0, 61, 82
2, 286708, Note_on_c, 0, 65, 77
2, 286773, Note_on_c, 0, 74, 0
2, 286864, Note_on_c, 0, 59, 0
2, 286870, Note_on_c, 0, 57, 58
2, 286888, Note_on_c, 0, 65, 0
2, 287029, Note_on_c, 0, 56, 57
2, 287037, Note_on_c, 0, 73, 79
2, 287090, Note_on_c, 0, 57, 0
2, 287183, Note_on_c, 0, 56, 0
2, 287190, Note_on_c, 0, 73, 0
2, 287193, Note_on_c, 0, 59, 59
2, 287374, Note_on_c, 0, 66, 74
2, 287380, Note_on_c, 0, 57, 57
2, 287496, Note_on_c, 0, 59, 0
2, 287553, Note_on_c, 0, 56, 58
2, 287642, Note_on_c, 0, 57, 0
2, 287730, Note_on_c, 0, 54, 57
2, 287780, Note_on_c, 0, 56, 0
2, 287884, Note_on_c, 0, 61, 0
2, 287887, Note_on_c, 0, 57, 48
2, 287927, Note_on_c, 0, 54, 0
2, 288050, Note_on_c, 0, 59, 69
2, 288051, Note_on_c, 0, 57, 0
2, 288055, Note_on_c, 0, 56, 60
2, 288213, Note_on_c, 0, 56, 0
2, 288215, Note_on_c, 0, 57, 57
2, 288390, Note_on_c, 0, 65, 73
2, 288396, Note_on_c, 0, 56, 57
2, 288419, Note_on_c, 0, 66, 0
2, 288493, Note_on_c, 0, 57, 0
2, 288553, Note_on_c, 0, 66, 79
2, 288560, Note_on_c, 0, 54, 58
2, 288603, Note_on_c, 0, 56, 0
2, 288606, Note_on_c, 0, 65, 0
2, 288703, Note_on_c, 0, 59, 0
2, 288723, Note_on_c, 0, 68, 73
2, 288734, Note_on_c, 0, 53, 58
2, 288779, Note_on_c, 0, 66, 0
2, 288812, Note_on_c, 0, 54, 0
2, 288875, Note_on_c, 0, 69, 75
2, 288877, Note_on_c, 0, 54, 49
2, 288890, Note_on_c, 0, 53, 0
2, 288920, Note_on_c, 0, 68, 0
2, 289043, Note_on_c, 0, 69, 0
2, 289060, Note_on_c, 0, 71, 78
2, 289061, Note_on_c, 0, 56, 62
2, 289086, Note_on_c, 0, 54, 0
2, 289215, Note_on_c, 0, 68, 84
2, 289218, Note_on_c, 0, 53, 62
2, 289241, Note_on_c, 0, 56, 0
2, 289263, Note_on_c, 0, 71, 0
2, 289425, Note_on_c, 0, 54, 59
2, 289427, Note_on_c, 0, 71, 79
2, 289457, Note_on_c, 0, 53, 0
2, 289495, Note_on_c, 0, 68, 0
2, 289593, Note_on_c, 0, 69, 83
2, 289762, Note_on_c, 0, 56, 64
2, 289764, Note_on_c, 0, 68, 82
2, 289811, Note_on_c, 0, 71, 0
2, 289860, Note_on_c, 0, 69, 0
2, 289921, Note_on_c, 0, 66, 82
2, 289926, Note_on_c, 0, 54, 0
2, 289931, Note_on_c, 0, 57, 56
2, 289977, Note_on_c, 0, 68, 0
2, 289978, Note_on_c, 0, 56, 0
2, 290133, Note_on_c, 0, 74, 81
2, 290154, Note_on_c, 0, 59, 59
2, 290160, Note_on_c, 0, 57, 0
2, 290225, Note_on_c, 0, 66, 0
2, 290297, Note_on_c, 0, 73, 64
2, 290307, Note_on_c, 0, 57, 47
2, 290404, Note_on_c, 0, 59, 0
2, 290467, Note_on_c, 0, 56, 56
2, 290471, Note_on_c, 0, 71, 58
2, 290629, Note_on_c, 0, 69, 67
2, 290630, Note_on_c, 0, 57, 0
2, 290633, Note_on_c, 0, 54, 53
2, 290663, Note_on_c, 0, 71, 0
2, 290709, Note_on_c, 0, 73, 0
2, 290716, Note_on_c, 0, 56, 0
2, 290792, Note_on_c, 0, 68, 72
2, 290798, Note_on_c, 0, 52, 64
2, 290810, Note_on_c, 0, 54, 0
2, 290837, Note_on_c, 0, 69, 0
2, 290957, Note_on_c, 0, 54, 65
2, 290975, Note_on_c, 0, 52, 0
2, 291138, Note_on_c, 0, 52, 58
2, 291140, Note_on_c, 0, 73, 80
2, 291257, Note_on_c, 0, 54, 0
2, 291281, Note_on_c, 0, 74, 0
2, 291291, Note_on_c, 0, 71, 75
2, 291314, Note_on_c, 0, 50, 57
2, 291329, Note_on_c, 0, 73, 0
2, 291353, Note_on_c, 0, 52, 0
2, 291404, Note_on_c, 0, 68, 0
2, 291486, Note_on_c, 0, 73, 80
2, 291496, Note_on_c, 0, 52, 66
2, 291498, Note_on_c, 0, 50, 0
2, 291513, Note_on_c, 0, 71, 0
2, 291653, Note_on_c, 0, 71, 61
2, 291654, Note_on_c, 0, 50, 61
2, 291726, Note_on_c, 0, 52, 0
2, 291803, Note_on_c, 0, 69, 60
2, 291813, Note_on_c, 0, 49, 64
2, 291835, Note_on_c, 0, 50, 0
2, 291956, Note_on_c, 0, 68, 66
2, 291971, Note_on_c, 0, 52, 53
2, 291975, Note_on_c, 0, 49, 0
2, 291995, Note_on_c, 0, 69, 0
2, 292067, Note_on_c, 0, 71, 0
2, 292143, Note_on_c, 0, 66, 69
2, 292145, Note_on_c, 0, 50, 61
2, 292192, Note_on_c, 0, 52, 0
2, 292226, Note_on_c, 0, 68, 0
2, 292229, Note_on_c, 0, 73, 0
2, 292310, Note_on_c, 0, 50, 0
2, 292311, Note_on_c, 0, 52, 65
2, 292401, Note_on_c, 0, 66, 0
2, 292488, Note_on_c, 0, 78, 88
2, 292493, Note_on_c, 0, 50, 61
2, 292496, Note_on_c, 0, 69, 73
2, 292549, Note_on_c, 0, 52, 0
2, 292636, Note_on_c, 0, 69, 0
2, 292641, Note_on_c, 0, 49, 61
2, 292661, Note_on_c, 0, 50, 0
2, 292806, Note_on_c, 0, 49, 0
2, 292818, Note_on_c, 0, 71, 77
2, 292830, Note_on_c, 0, 68, 75
2, 292832, Note_on_c, 0, 50, 66
2, 292835, Note_on_c, 0, 78, 0
2, 292991, Note_on_c, 0, 49, 58
2, 293048, Note_on_c, 0, 50, 0
2, 293152, Note_on_c, 0, 47, 62
2, 293198, Note_on_c, 0, 49, 0
2, 293232, Note_on_c, 0, 68, 0
2, 293311, Note_on_c, 0, 47, 0
2, 293320, Note_on_c, 0, 66, 69
2, 293326, Note_on_c, 0, 50, 59
2, 293416, Note_on_c, 0, 66, 0
2, 293489, Note_on_c, 0, 49, 61
2, 293489, Note_on_c, 0, 65, 72
2, 293519, Note_on_c, 0, 50, 0
2, 293622, Note_on_c, 0, 65, 0
2, 293658, Note_on_c, 0, 49, 0
2, 293660, Note_on_c, 0, 50, 63
2, 293831, Note_on_c, 0, 69, 79
2, 293836, Note_on_c, 0, 49, 59
2, 293839, Note_on_c, 0, 61, 63
2, 293904, Note_on_c, 0, 50, 0
2, 293984, Note_on_c, 0, 68, 78
2, 293985, Note_on_c, 0, 61, 0
2, 293996, Note_on_c, 0, 47, 63
2, 294035, Note_on_c, 0, 69, 0
2, 294038, Note_on_c, 0, 71, 0
2, 294053, Note_on_c, 0, 49, 0
2, 294174, Note_on_c, 0, 69, 76
2, 294176, Note_on_c, 0, 49, 60
2, 294176, Note_on_c, 0, 66, 75
2, 294179, Note_on_c, 0, 47, 0
2, 294227, Note_on_c, 0, 68, 0
2, 294320, Note_on_c, 0, 47, 65
2, 294350, Note_on_c, 0, 49, 0
2, 294409, Note_on_c, 0, 66, 0
2, 294508, Note_on_c, 0, 45, 59
2, 294513, Note_on_c, 0, 66, 83
2, 294520, Note_on_c, 0, 47, 0
2, 294658, Note_on_c, 0, 49, 59
2, 294669, Note_on_c, 0, 45, 0
2, 294728, Note_on_c, 0, 69, 0
2, 294853, Note_on_c, 0, 68, 79
2, 294862, Note_on_c, 0, 47, 56
2, 294877, Note_on_c, 0, 49, 0
2, 295006, Note_on_c, 0, 47, 0
2, 295011, Note_on_c, 0, 49, 59
2, 295190, Note_on_c, 0, 47, 55
2, 295203, Note_on_c, 0, 49, 0
2, 295345, Note_on_c, 0, 47, 0
2, 295351, Note_on_c, 0, 45, 51
2, 295513, Note_on_c, 0, 45, 0
2, 295538, Note_on_c, 0, 65, 53
2, 295539, Note_on_c, 0, 47, 48
2, 295553, Note_on_c, 0, 66, 0
2, 295691, Note_on_c, 0, 45, 45
2, 295739, Note_on_c, 0, 47, 0
2, 295858, Note_on_c, 0, 44, 50
2, 295930, Note_on_c, 0, 45, 0
2, 296007, Note_on_c, 0, 44, 0
2, 296022, Note_on_c, 0, 47, 47
2, 296183, Note_on_c, 0, 65, 0
2, 296200, Note_on_c, 0, 66, 50
2, 296216, Note_on_c, 0, 45, 46
2, 296307, Note_on_c, 0, 47, 0
2, 296329, Note_on_c, 0, 68, 0
2, 296369, Note_on_c, 0, 44, 51
2, 296386, Note_on_c, 0, 66, 0
2, 296394, Note_on_c, 0, 45, 0
2, 296548, Note_on_c, 0, 42, 44
2, 296548, Note_on_c, 0, 44, 0
2, 296558, Note_on_c, 0, 73, 51
2, 296726, Note_on_c, 0, 44, 47
2, 296773, Note_on_c, 0, 42, 0
2, 296881, Note_on_c, 0, 44, 0
2, 296891, Note_on_c, 0, 45, 50
2, 296891, Note_on_c, 0, 78, 66
2, 296993, Note_on_c, 0, 45, 0
2, 297063, Note_on_c, 0, 47, 46
2, 297111, Note_on_c, 0, 73, 0
2, 297222, Note_on_c, 0, 47, 0
2, 297222, Note_on_c, 0, 81, 66
2, 297225, Note_on_c, 0, 49, 49
2, 297272, Note_on_c, 0, 78, 0
2, 297389, Note_on_c, 0, 51, 46
2, 297404, Note_on_c, 0, 49, 0
2, 297560, Note_on_c, 0, 51, 0
2, 297583, Note_on_c, 0, 80, 65
2, 297584, Note_on_c, 0, 52, 39
2, 297625, Note_on_c, 0, 81, 0
2, 297723, Note_on_c, 0, 51, 46
2, 297747, Note_on_c, 0, 52, 0
2, 297891, Note_on_c, 0, 51, 0
2, 297908, Note_on_c, 0, 49, 42
2, 297912, Note_on_c, 0, 68, 56
2, 298049, Note_on_c, 0, 51, 42
2, 298082, Note_on_c, 0, 49, 0
2, 298206, Note_on_c, 0, 51, 0
2, 298241, Note_on_c, 0, 73, 59
2, 298257, Note_on_c, 0, 52, 48
2, 298329, Note_on_c, 0, 68, 0
2, 298381, Note_on_c, 0, 52, 0
2, 298392, Note_on_c, 0, 54, 50
2, 298561, Note_on_c, 0, 56, 50
2, 298568, Note_on_c, 0, 76, 58
2, 298589, Note_on_c, 0, 54, 0
2, 298635, Note_on_c, 0, 73, 0
2, 298729, Note_on_c, 0, 58, 40
2, 298784, Note_on_c, 0, 56, 0
2, 298905, Note_on_c, 0, 75, 59
2, 298910, Note_on_c, 0, 58, 0
2, 298913, Note_on_c, 0, 60, 46
2, 298959, Note_on_c, 0, 76, 0
2, 299055, Note_on_c, 0, 80, 0
2, 299057, Note_on_c, 0, 60, 0
2, 299067, Note_on_c, 0, 58, 53
2, 299224, Note_on_c, 0, 58, 0
2, 299249, Note_on_c, 0, 81, 61
2, 299268, Note_on_c, 0, 60, 43
2, 299397, Note_on_c, 0, 60, 0
2, 299406, Note_on_c, 0, 61, 50
2, 299559, Note_on_c, 0, 60, 52
2, 299573, Note_on_c, 0, 80, 65
2, 299580, Note_on_c, 0, 61, 0
2, 299662, Note_on_c, 0, 81, 0
2, 299715, Note_on_c, 0, 61, 53
2, 299721, Note_on_c, 0, 60, 0
2, 299898, Note_on_c, 0, 78, 66
2, 299910, Note_on_c, 0, 63, 47
2, 299937, Note_on_c, 0, 61, 0
2, 299945, Note_on_c, 0, 80, 0
2, 300044, Note_on_c, 0, 63, 0
2, 300060, Note_on_c, 0, 60, 47
2, 300232, Note_on_c, 0, 78, 0
2, 300248, Note_on_c, 0, 76, 59
2, 300258, Note_on_c, 0, 61, 45
2, 300267, Note_on_c, 0, 60, 0
2, 300412, Note_on_c, 0, 63, 43
2, 300417, Note_on_c, 0, 61, 0
2, 300581, Note_on_c, 0, 63, 0
2, 300591, Note_on_c, 0, 68, 52
2, 300612, Note_on_c, 0, 64, 42
2, 300637, Note_on_c, 0, 75, 0
2, 300751, Note_on_c, 0, 63, 48
2, 300751, Note_on_c, 0, 64, 0
2, 300919, Note_on_c, 0, 73, 59
2, 300924, Note_on_c, 0, 61, 47
2, 300962, Note_on_c, 0, 63, 0
2, 301043, Note_on_c, 0, 68, 0
2, 301049, Note_on_c, 0, 61, 0
2, 301081, Note_on_c, 0, 59, 51
2, 301251, Note_on_c, 0, 57, 49
2, 301251, Note_on_c, 0, 71, 56
2, 301307, Note_on_c, 0, 59, 0
2, 301407, Note_on_c, 0, 56, 50
2, 301515, Note_on_c, 0, 57, 0
2, 301575, Note_on_c, 0, 73, 0
2, 301591, Note_on_c, 0, 69, 57
2, 301595, Note_on_c, 0, 56, 0
2, 301599, Note_on_c, 0, 54, 47
2, 301684, Note_on_c, 0, 71, 0
2, 301690, Note_on_c, 0, 76, 0
2, 301740, Note_on_c, 0, 54, 0
2, 301756, Note_on_c, 0, 52, 44
2, 301900, Note_on_c, 0, 76, 62
2, 301912, Note_on_c, 0, 54, 46
2, 301974, Note_on_c, 0, 52, 0
2, 302049, Note_on_c, 0, 54, 0
2, 302071, Note_on_c, 0, 56, 47
2, 302250, Note_on_c, 0, 54, 45
2, 302262, Note_on_c, 0, 75, 60
2, 302265, Note_on_c, 0, 56, 0
2, 302271, Note_on_c, 0, 76, 0
2, 302403, Note_on_c, 0, 56, 42
2, 302434, Note_on_c, 0, 54, 0
2, 302567, Note_on_c, 0, 56, 0
2, 302579, Note_on_c, 0, 78, 67
2, 302583, Note_on_c, 0, 57, 43
2, 302609, Note_on_c, 0, 75, 0
2, 302732, Note_on_c, 0, 54, 45
2, 302800, Note_on_c, 0, 57, 0
2, 302921, Note_on_c, 0, 72, 62
2, 302922, Note_on_c, 0, 56, 46
2, 302925, Note_on_c, 0, 69, 0
2, 302945, Note_on_c, 0, 54, 0
2, 302968, Note_on_c, 0, 78, 0
2, 303081, Note_on_c, 0, 54, 51
2, 303125, Note_on_c, 0, 56, 0
2, 303247, Note_on_c, 0, 56, 55
2, 303248, Note_on_c, 0, 63, 60
2, 303274, Note_on_c, 0, 54, 0
2, 303400, Note_on_c, 0, 56, 0
2, 303417, Note_on_c, 0, 57, 61
2, 303585, Note_on_c, 0, 56, 71
2, 303602, Note_on_c, 0, 68, 64
2, 303631, Note_on_c, 0, 63, 0
2, 303645, Note_on_c, 0, 57, 0
2, 303752, Note_on_c, 0, 54, 72
2, 303799, Note_on_c, 0, 56, 0
2, 303895, Note_on_c, 0, 54, 0
2, 303915, Note_on_c, 0, 52, 78
2, 303921, Note_on_c, 0, 66, 67
2, 303927, Note_on_c, 0, 75, 67
2, 303976, Note_on_c, 0, 72, 0
2, 303990, Note_on_c, 0, 68, 0
2, 304083, Note_on_c, 0, 51, 76
2, 304150, Note_on_c, 0, 52, 0
2, 304268, Note_on_c, 0, 66, 0
2, 304284, Note_on_c, 0, 52, 78
2, 304290, Note_on_c, 0, 68, 73
2, 304336, Note_on_c, 0, 75, 0
2, 304391, Note_on_c, 0, 51, 0
2, 304456, Note_on_c, 0, 66, 65
2, 304639, Note_on_c, 0, 49, 79
2, 304643, Note_on_c, 0, 66, 0
2, 304646, Note_on_c, 0, 64, 70
2, 304655, Note_on_c, 0, 52, 0
2, 304819, Note_on_c, 0, 63, 55
2, 304829, Note_on_c, 0, 64, 0
2, 304996, Note_on_c, 0, 63, 0
2, 305003, Note_on_c, 0, 61, 70
2, 305011, Note_on_c, 0, 57, 81
2, 305061, Note_on_c, 0, 49, 0
2, 305171, Note_on_c, 0, 63, 68
2, 305237, Note_on_c, 0, 61, 0
2, 305257, Note_on_c, 0, 63, 0
2, 305335, Note_on_c, 0, 73, 74
2, 305355, Note_on_c, 0, 64, 62
2, 305435, Note_on_c, 0, 68, 0
2, 305486, Note_on_c, 0, 64, 0
2, 305499, Note_on_c, 0, 61, 61
2, 305536, Note_on_c, 0, 61, 0
2, 305706, Note_on_c, 0, 63, 58
2, 305706, Note_on_c, 0, 72, 51
2, 305706, Note_on_c, 0, 73, 0
2, 305709, Note_on_c, 0, 71, 58
2, 305849, Note_on_c, 0, 72, 0
2, 305850, Note_on_c, 0, 73, 69
2, 305858, Note_on_c, 0, 71, 0
2, 306021, Note_on_c, 0, 71, 69
2, 306022, Note_on_c, 0, 63, 0
2, 306026, Note_on_c, 0, 56, 70
2, 306143, Note_on_c, 0, 73, 0
2, 306158, Note_on_c, 0, 57, 0
2, 306171, Note_on_c, 0, 69, 67
2, 306178, Note_on_c, 0, 54, 78
2, 306211, Note_on_c, 0, 71, 0
2, 306251, Note_on_c, 0, 56, 0
2, 306363, Note_on_c, 0, 71, 63
2, 306366, Note_on_c, 0, 56, 83
2, 306368, Note_on_c, 0, 69, 0
2, 306417, Note_on_c, 0, 54, 0
2, 306510, Note_on_c, 0, 69, 65
2, 306547, Note_on_c, 0, 71, 0
2, 306691, Note_on_c, 0, 68, 70
2, 306694, Note_on_c, 0, 69, 0
2, 306697, Note_on_c, 0, 64, 64
2, 306817, Note_on_c, 0, 64, 0
2, 306837, Note_on_c, 0, 71, 60
2, 306877, Note_on_c, 0, 68, 0
2, 307011, Note_on_c, 0, 71, 0
2, 307022, Note_on_c, 0, 69, 63
2, 307033, Note_on_c, 0, 61, 72
2, 307174, Note_on_c, 0, 61, 0
2, 307185, Note_on_c, 0, 71, 62
2, 307192, Note_on_c, 0, 69, 0
2, 307356, Note_on_c, 0, 69, 68
2, 307365, Note_on_c, 0, 61, 76
2, 307367, Note_on_c, 0, 64, 77
2, 307395, Note_on_c, 0, 56, 0
2, 307396, Note_on_c, 0, 71, 0
2, 307490, Note_on_c, 0, 64, 0
2, 307524, Note_on_c, 0, 68, 72
2, 307562, Note_on_c, 0, 69, 0
2, 307713, Note_on_c, 0, 69, 67
2, 307714, Note_on_c, 0, 63, 88
2, 307720, Note_on_c, 0, 54, 71
2, 307725, Note_on_c, 0, 61, 0
2, 307742, Note_on_c, 0, 68, 0
2, 307884, Note_on_c, 0, 68, 62
2, 307935, Note_on_c, 0, 69, 0
2, 308048, Note_on_c, 0, 66, 64
2, 308061, Note_on_c, 0, 68, 0
2, 308119, Note_on_c, 0, 63, 0
2, 308186, Note_on_c, 0, 66, 0
2, 308189, Note_on_c, 0, 61, 62
2, 308191, Note_on_c, 0, 69, 68
2, 308301, Note_on_c, 0, 61, 0
2, 308363, Note_on_c, 0, 60, 69
2, 308365, Note_on_c, 0, 69, 0
2, 308369, Note_on_c, 0, 68, 66
2, 308440, Note_on_c, 0, 54, 0
2, 308508, Note_on_c, 0, 69, 65
2, 308521, Note_on_c, 0, 68, 0
2, 308683, Note_on_c, 0, 56, 66
2, 308686, Note_on_c, 0, 68, 66
2, 308695, Note_on_c, 0, 60, 0
2, 308711, Note_on_c, 0, 52, 60
2, 308728, Note_on_c, 0, 69, 0
2, 308835, Note_on_c, 0, 66, 70
2, 308849, Note_on_c, 0, 51, 70
2, 308853, Note_on_c, 0, 68, 0
2, 308890, Note_on_c, 0, 56, 0
2, 308891, Note_on_c, 0, 52, 0
2, 309025, Note_on_c, 0, 68, 67
2, 309040, Note_on_c, 0, 61, 77
2, 309048, Note_on_c, 0, 66, 0
2, 309050, Note_on_c, 0, 52, 71
2, 309120, Note_on_c, 0, 51, 0
2, 309189, Note_on_c, 0, 66, 67
2, 309249, Note_on_c, 0, 68, 0
2, 309377, Note_on_c, 0, 64, 62
2, 309383, Note_on_c, 0, 49, 71
2, 309397, Note_on_c, 0, 52, 0
2, 309413, Note_on_c, 0, 66, 0
2, 309530, Note_on_c, 0, 68, 70
2, 309531, Note_on_c, 0, 64, 0
2, 309746, Note_on_c, 0, 51, 71
2, 309746, Note_on_c, 0, 66, 69
2, 309774, Note_on_c, 0, 68, 0
2, 309871, Note_on_c, 0, 49, 0
2, 309903, Note_on_c, 0, 68, 68
2, 309913, Note_on_c, 0, 66, 0
2, 309966, Note_on_c, 0, 61, 0
2, 310076, Note_on_c, 0, 66, 63
2, 310168, Note_on_c, 0, 68, 0
2, 310224, Note_on_c, 0, 64, 54
2, 310225, Note_on_c, 0, 66, 0
2, 310371, Note_on_c, 0, 64, 0
2, 310401, Note_on_c, 0, 60, 57
2, 310402, Note_on_c, 0, 66, 59
2, 310569, Note_on_c, 0, 66, 0
2, 310575, Note_on_c, 0, 64, 52
2, 310737, Note_on_c, 0, 63, 49
2, 310743, Note_on_c, 0, 60, 0
2, 310749, Note_on_c, 0, 64, 0
2, 310821, Note_on_c, 0, 51, 0
2, 310880, Note_on_c, 0, 63, 0
2, 310882, Note_on_c, 0, 66, 58
2, 311068, Note_on_c, 0, 61, 47
2, 311073, Note_on_c, 0, 64, 48
2, 311082, Note_on_c, 0, 49, 47
2, 311135, Note_on_c, 0, 66, 0
2, 311217, Note_on_c, 0, 61, 0
2, 311219, Note_on_c, 0, 49, 0
2, 311236, Note_on_c, 0, 48, 43
2, 311332, Note_on_c, 0, 64, 0
2, 311409, Note_on_c, 0, 49, 41
2, 311419, Note_on_c, 0, 56, 51
2, 311444, Note_on_c, 0, 48, 0
2, 311576, Note_on_c, 0, 51, 40
2, 311595, Note_on_c, 0, 49, 0
2, 311734, Note_on_c, 0, 51, 0
2, 311743, Note_on_c, 0, 61, 60
2, 311759, Note_on_c, 0, 52, 44
2, 311875, Note_on_c, 0, 52, 0
2, 311903, Note_on_c, 0, 56, 0
2, 311912, Note_on_c, 0, 54, 51
2, 312083, Note_on_c, 0, 54, 0
2, 312098, Note_on_c, 0, 64, 57
2, 312100, Note_on_c, 0, 55, 48
2, 312158, Note_on_c, 0, 61, 0
2, 312211, Note_on_c, 0, 55, 0
2, 312245, Note_on_c, 0, 52, 53
2, 312428, Note_on_c, 0, 58, 51
2, 312434, Note_on_c, 0, 52, 0
2, 312443, Note_on_c, 0, 54, 41
2, 312599, Note_on_c, 0, 54, 0
2, 312603, Note_on_c, 0, 55, 46
2, 312733, Note_on_c, 0, 64, 0
2, 312736, Note_on_c, 0, 55, 0
2, 312747, Note_on_c, 0, 67, 58
2, 312749, Note_on_c, 0, 54, 45
2, 312864, Note_on_c, 0, 58, 0
2, 312932, Note_on_c, 0, 52, 49
2, 312979, Note_on_c, 0, 54, 0
2, 313090, Note_on_c, 0, 52, 0
2, 313095, Note_on_c, 0, 66, 62
2, 313110, Note_on_c, 0, 59, 49
2, 313111, Note_on_c, 0, 50, 48
2, 313141, Note_on_c, 0, 67, 0
2, 313260, Note_on_c, 0, 50, 0
2, 313264, Note_on_c, 0, 49, 54
2, 313365, Note_on_c, 0, 49, 0
2, 313428, Note_on_c, 0, 47, 58
2, 313429, Note_on_c, 0, 64, 56
2, 313440, Note_on_c, 0, 66, 0
2, 313448, Note_on_c, 0, 61, 47
2, 313554, Note_on_c, 0, 47, 0
2, 313565, Note_on_c, 0, 64, 0
2, 313565, Note_on_c, 0, 64, 16
2, 313575, Note_on_c, 0, 59, 0
2, 313577, Note_on_c, 0, 46, 54
2, 313748, Note_on_c, 0, 46, 0
2, 313778, Note_on_c, 0, 47, 47
2, 313786, Note_on_c, 0, 62, 51
2, 313807, Note_on_c, 0, 64, 0
2, 313905, Note_on_c, 0, 61, 0
2, 313919, Note_on_c, 0, 47, 0
2, 313932, Note_on_c, 0, 42, 50
2, 314106, Note_on_c, 0, 54, 47
2, 314120, Note_on_c, 0, 42, 0
2, 314134, Note_on_c, 0, 47, 41
2, 314257, Note_on_c, 0, 49, 58
2, 314309, Note_on_c, 0, 47, 0
2, 314397, Note_on_c, 0, 49, 0
2, 314435, Note_on_c, 0, 59, 65
2, 314454, Note_on_c, 0, 50, 54
2, 314475, Note_on_c, 0, 54, 0
2, 314534, Note_on_c, 0, 62, 0
2, 314591, Note_on_c, 0, 50, 0
2, 314608, Note_on_c, 0, 52, 52
2, 314757, Note_on_c, 0, 62, 65
2, 314758, Note_on_c, 0, 54, 55
2, 314765, Note_on_c, 0, 52, 0
2, 314817, Note_on_c, 0, 59, 0
2, 314920, Note_on_c, 0, 50, 49
2, 314920, Note_on_c, 0, 54, 0
2, 315104, Note_on_c, 0, 50, 0
2, 315104, Note_on_c, 0, 56, 64
2, 315109, Note_on_c, 0, 52, 56
2, 315252, Note_on_c, 0, 52, 0
2, 315265, Note_on_c, 0, 54, 54
2, 315437, Note_on_c, 0, 66, 70
2, 315440, Note_on_c, 0, 52, 56
2, 315458, Note_on_c, 0, 54, 0
2, 315494, Note_on_c, 0, 62, 0
2, 315520, Note_on_c, 0, 56, 0
2, 315561, Note_on_c, 0, 52, 0
2, 315593, Note_on_c, 0, 50, 54
2, 315767, Note_on_c, 0, 49, 55
2, 315771, Note_on_c, 0, 64, 69
2, 315784, Note_on_c, 0, 57, 56
2, 315835, Note_on_c, 0, 50, 0
2, 315879, Note_on_c, 0, 49, 0
2, 315936, Note_on_c, 0, 47, 62
2, 316097, Note_on_c, 0, 47, 0
2, 316106, Note_on_c, 0, 62, 64
2, 316107, Note_on_c, 0, 45, 55
2, 316111, Note_on_c, 0, 59, 51
2, 316152, Note_on_c, 0, 57, 0
2, 316171, Note_on_c, 0, 66, 0
2, 316244, Note_on_c, 0, 64, 0
2, 316253, Note_on_c, 0, 44, 61
2, 316266, Note_on_c, 0, 45, 0
2, 316288, Note_on_c, 0, 62, 0
2, 316472, Note_on_c, 0, 61, 69
2, 316474, Note_on_c, 0, 45, 54
2, 316549, Note_on_c, 0, 44, 0
2, 316620, Note_on_c, 0, 59, 0
2, 316632, Note_on_c, 0, 45, 0
2, 316638, Note_on_c, 0, 40, 57
2, 316813, Note_on_c, 0, 57, 65
2, 316826, Note_on_c, 0, 45, 52
2, 316949, Note_on_c, 0, 40, 0
2, 316961, Note_on_c, 0, 45, 0
2, 316976, Note_on_c, 0, 56, 72
2, 316983, Note_on_c, 0, 47, 63
2, 316985, Note_on_c, 0, 57, 0
2, 317145, Note_on_c, 0, 47, 0
2, 317156, Note_on_c, 0, 49, 67
2, 317164, Note_on_c, 0, 57, 74
2, 317186, Note_on_c, 0, 56, 0
2, 317211, Note_on_c, 0, 61, 0
2, 317308, Note_on_c, 0, 50, 59
2, 317327, Note_on_c, 0, 49, 0
2, 317454, Note_on_c, 0, 50, 0
2, 317483, Note_on_c, 0, 52, 64
2, 317487, Note_on_c, 0, 61, 78
2, 317622, Note_on_c, 0, 52, 0
2, 317628, Note_on_c, 0, 49, 59
2, 317644, Note_on_c, 0, 61, 0
2, 317812, Note_on_c, 0, 50, 61
2, 317812, Note_on_c, 0, 66, 82
2, 317814, Note_on_c, 0, 49, 0
2, 317888, Note_on_c, 0, 57, 0
2, 317953, Note_on_c, 0, 50, 0
2, 317965, Note_on_c, 0, 52, 62
2, 318129, Note_on_c, 0, 52, 0
2, 318137, Note_on_c, 0, 50, 61
2, 318145, Note_on_c, 0, 59, 65
2, 318287, Note_on_c, 0, 59, 0
2, 318298, Note_on_c, 0, 61, 72
2, 318300, Note_on_c, 0, 49, 64
2, 318360, Note_on_c, 0, 50, 0
2, 318450, Note_on_c, 0, 49, 0
2, 318475, Note_on_c, 0, 47, 71
2, 318480, Note_on_c, 0, 62, 73
2, 318501, Note_on_c, 0, 61, 0
2, 318587, Note_on_c, 0, 66, 0
2, 318617, Note_on_c, 0, 45, 71
2, 318635, Note_on_c, 0, 47, 0
2, 318794, Note_on_c, 0, 65, 78
2, 318801, Note_on_c, 0, 44, 72
2, 318876, Note_on_c, 0, 62, 0
2, 318896, Note_on_c, 0, 45, 0
2, 318947, Note_on_c, 0, 66, 81
2, 318948, Note_on_c, 0, 42, 74
2, 318991, Note_on_c, 0, 65, 0
2, 319039, Note_on_c, 0, 44, 0
2, 319146, Note_on_c, 0, 41, 84
2, 319150, Note_on_c, 0, 42, 0
2, 319150, Note_on_c, 0, 68, 84
2, 319177, Note_on_c, 0, 66, 0
2, 319309, Note_on_c, 0, 61, 69
2, 319438, Note_on_c, 0, 61, 0
2, 319474, Note_on_c, 0, 37, 78
2, 319481, Note_on_c, 0, 66, 83
2, 319510, Note_on_c, 0, 41, 0
2, 319523, Note_on_c, 0, 68, 0
2, 319644, Note_on_c, 0, 68, 83
2, 319656, Note_on_c, 0, 65, 77
2, 319658, Note_on_c, 0, 66, 0
2, 319859, Note_on_c, 0, 69, 80
2, 319862, Note_on_c, 0, 42, 84
2, 319864, Note_on_c, 0, 66, 79
2, 319866, Note_on_c, 0, 37, 0
2, 319886, Note_on_c, 0, 68, 0
2, 319891, Note_on_c, 0, 65, 0
2, 320031, Note_on_c, 0, 68, 83
2, 320055, Note_on_c, 0, 69, 0
2, 320058, Note_on_c, 0, 66, 0
2, 320184, Note_on_c, 0, 69, 73
2, 320238, Note_on_c, 0, 68, 0
2, 320338, Note_on_c, 0, 69, 0
2, 320342, Note_on_c, 0, 66, 80
2, 320525, Note_on_c, 0, 71, 77
2, 320530, Note_on_c, 0, 66, 0
2, 320676, Note_on_c, 0, 73, 76
2, 320690, Note_on_c, 0, 71, 0
2, 320856, Note_on_c, 0, 71, 78
2, 321004, Note_on_c, 0, 69, 81
2, 321026, Note_on_c, 0, 73, 0
2, 321033, Note_on_c, 0, 71, 0
2, 321183, Note_on_c, 0, 71, 81
2, 321185, Note_on_c, 0, 41, 80
2, 321200, Note_on_c, 0, 69, 0
2, 321211, Note_on_c, 0, 42, 0
2, 321357, Note_on_c, 0, 69, 84
2, 321376, Note_on_c, 0, 71, 0
2, 321549, Note_on_c, 0, 73, 85
2, 321562, Note_on_c, 0, 68, 83
2, 321568, Note_on_c, 0, 69, 0
2, 321699, Note_on_c, 0, 68, 0
2, 321713, Note_on_c, 0, 69, 65
2, 321780, Note_on_c, 0, 69, 0
2, 321922, Note_on_c, 0, 41, 0
2, 321931, Note_on_c, 0, 69, 85
2, 321941, Note_on_c, 0, 42, 69
2, 321941, Note_on_c, 0, 66, 81
2, 322004, Note_on_c, 0, 73, 0
2, 322081, Note_on_c, 0, 42, 0
2, 322118, Note_on_c, 0, 54, 62
2, 322121, Note_on_c, 0, 66, 0
2, 322265, Note_on_c, 0, 54, 0
2, 322290, Note_on_c, 0, 56, 63
2, 322298, Note_on_c, 0, 66, 95
2, 322353, Note_on_c, 0, 69, 0
2, 322451, Note_on_c, 0, 57, 67
2, 322463, Note_on_c, 0, 56, 0
2, 322631, Note_on_c, 0, 57, 0
2, 322669, Note_on_c, 0, 74, 84
2, 322680, Note_on_c, 0, 59, 65
2, 322768, Note_on_c, 0, 66, 0
2, 322839, Note_on_c, 0, 61, 66
2, 322842, Note_on_c, 0, 59, 0
2, 323001, Note_on_c, 0, 61, 0
2, 323004, Note_on_c, 0, 66, 71
2, 323020, Note_on_c, 0, 59, 68
2, 323174, Note_on_c, 0, 66, 0
2, 323179, Note_on_c, 0, 57, 63
2, 323282, Note_on_c, 0, 59, 0
2, 323361, Note_on_c, 0, 64, 68
2, 323371, Note_on_c, 0, 56, 72
2, 323443, Note_on_c, 0, 57, 0
2, 323526, Note_on_c, 0, 66, 73
2, 323537, Note_on_c, 0, 64, 0
2, 323712, Note_on_c, 0, 73, 83
2, 323724, Note_on_c, 0, 64, 72
2, 323737, Note_on_c, 0, 66, 0
2, 323794, Note_on_c, 0, 64, 0
2, 323874, Note_on_c, 0, 71, 71
2, 323881, Note_on_c, 0, 62, 68
2, 323905, Note_on_c, 0, 70, 49
2, 323931, Note_on_c, 0, 70, 0
2, 323960, Note_on_c, 0, 62, 0
2, 323966, Note_on_c, 0, 73, 0
2, 323968, Note_on_c, 0, 74, 0
2, 324050, Note_on_c, 0, 73, 87
2, 324059, Note_on_c, 0, 64, 75
2, 324121, Note_on_c, 0, 64, 0
2, 324123, Note_on_c, 0, 71, 0
2, 324127, Note_on_c, 0, 56, 0
2, 324217, Note_on_c, 0, 62, 69
2, 324398, Note_on_c, 0, 58, 56
2, 324398, Note_on_c, 0, 61, 61
2, 324424, Note_on_c, 0, 62, 0
2, 324565, Note_on_c, 0, 58, 0
2, 324578, Note_on_c, 0, 61, 0
2, 324582, Note_on_c, 0, 64, 67
2, 324750, Note_on_c, 0, 62, 69
2, 324752, Note_on_c, 0, 64, 0
2, 324764, Note_on_c, 0, 59, 62
2, 324890, Note_on_c, 0, 62, 0
2, 324919, Note_on_c, 0, 64, 73
2, 325004, Note_on_c, 0, 59, 0
2, 325077, Note_on_c, 0, 78, 84
2, 325084, Note_on_c, 0, 62, 71
2, 325087, Note_on_c, 0, 57, 61
2, 325159, Note_on_c, 0, 64, 0
2, 325231, Note_on_c, 0, 78, 0
2, 325235, Note_on_c, 0, 73, 0
2, 325246, Note_on_c, 0, 61, 71
2, 325266, Note_on_c, 0, 62, 0
2, 325273, Note_on_c, 0, 61, 0
2, 325292, Note_on_c, 0, 57, 0
2, 325442, Note_on_c, 0, 56, 73
2, 325442, Note_on_c, 0, 71, 85
2, 325451, Note_on_c, 0, 62, 75
2, 325549, Note_on_c, 0, 62, 0
2, 325623, Note_on_c, 0, 61, 66
2, 325722, Note_on_c, 0, 61, 0
2, 325769, Note_on_c, 0, 59, 63
2, 325853, Note_on_c, 0, 59, 0
2, 325856, Note_on_c, 0, 56, 0
2, 325928, Note_on_c, 0, 62, 71
2, 325943, Note_on_c, 0, 54, 63
2, 326006, Note_on_c, 0, 62, 0
2, 326047, Note_on_c, 0, 54, 0
2, 326099, Note_on_c, 0, 61, 77
2, 326107, Note_on_c, 0, 53, 71
2, 326268, Note_on_c, 0, 62, 68
2, 326427, Note_on_c, 0, 69, 80
2, 326434, Note_on_c, 0, 49, 67
2, 326442, Note_on_c, 0, 61, 0
2, 326480, Note_on_c, 0, 71, 0
2, 326523, Note_on_c, 0, 53, 0
2, 326583, Note_on_c, 0, 68, 79
2, 326608, Note_on_c, 0, 69, 0
2, 326720, Note_on_c, 0, 62, 0
2, 326786, Note_on_c, 0, 54, 56
2, 326787, Note_on_c, 0, 69, 84
2, 326808, Note_on_c, 0, 68, 0
2, 326901, Note_on_c, 0, 49, 0
2, 326941, Note_on_c, 0, 59, 62
2, 327010, Note_on_c, 0, 59, 0
2, 327120, Note_on_c, 0, 66, 88
2, 327136, Note_on_c, 0, 57, 61
2, 327220, Note_on_c, 0, 69, 0
2, 327274, Note_on_c, 0, 61, 71
2, 327284, Note_on_c, 0, 57, 0
2, 327502, Note_on_c, 0, 68, 87
2, 327512, Note_on_c, 0, 61, 0
2, 327515, Note_on_c, 0, 59, 64
2, 327672, Note_on_c, 0, 61, 63
2, 327674, Note_on_c, 0, 59, 0
2, 327674, Note_on_c, 0, 66, 0
2, 327824, Note_on_c, 0, 61, 0
2, 327836, Note_on_c, 0, 59, 61
2, 327957, Note_on_c, 0, 59, 0
2, 327994, Note_on_c, 0, 57, 57
2, 328108, Note_on_c, 0, 57, 0
2, 328165, Note_on_c, 0, 53, 53
2, 328176, Note_on_c, 0, 59, 60
2, 328228, Note_on_c, 0, 54, 0
2, 328331, Note_on_c, 0, 57, 63
2, 328350, Note_on_c, 0, 59, 0
2, 328496, Note_on_c, 0, 56, 72
2, 328517, Note_on_c, 0, 57, 0
2, 328622, Note_on_c, 0, 53, 0
2, 328638, Note_on_c, 0, 56, 0
2, 328670, Note_on_c, 0, 59, 66
2, 328870, Note_on_c, 0, 54, 72
2, 328873, Note_on_c, 0, 57, 71
2, 328917, Note_on_c, 0, 59, 0
2, 329059, Note_on_c, 0, 66, 83
2, 329062, Note_on_c, 0, 57, 0
2, 329253, Note_on_c, 0, 59, 73
2, 329254, Note_on_c, 0, 50, 79
2, 329398, Note_on_c, 0, 54, 0
2, 329434, Note_on_c, 0, 65, 88
2, 329446, Note_on_c, 0, 59, 0
2, 329463, Note_on_c, 0, 68, 0
2, 329598, Note_on_c, 0, 66, 0
2, 329637, Note_on_c, 0, 61, 71
2, 329643, Note_on_c, 0, 45, 78
2, 329686, Note_on_c, 0, 50, 0
2, 329827, Note_on_c, 0, 66, 83
2, 329883, Note_on_c, 0, 65, 0
2, 330002, Note_on_c, 0, 61, 0
2, 330018, Note_on_c, 0, 62, 84
2, 330028, Note_on_c, 0, 47, 81
2, 330086, Note_on_c, 0, 45, 0
2, 330207, Note_on_c, 0, 66, 0
2, 330225, Note_on_c, 0, 68, 86
2, 330242, Note_on_c, 0, 62, 0
2, 330492, Note_on_c, 0, 61, 81
2, 330499, Note_on_c, 0, 49, 82
2, 330500, Note_on_c, 0, 57, 74
2, 330513, Note_on_c, 0, 47, 0
2, 330569, Note_on_c, 0, 68, 0
2, 330679, Note_on_c, 0, 61, 0
2, 330957, Note_on_c, 0, 66, 82
2, 331389, Note_on_c, 0, 56, 73
2, 331404, Note_on_c, 0, 37, 72
2, 331473, Note_on_c, 0, 57, 0
2, 331803, Control_c, 0, 64, 10
2, 331818, Control_c, 0, 64, 18
2, 331834, Control_c, 0, 64, 24
2, 331849, Control_c, 0, 64, 26
2, 331864, Control_c, 0, 64, 28
2, 331879, Control_c, 0, 64, 29
2, 331939, Control_c, 0, 64, 28
2, 331955, Control_c, 0, 64, 27
2, 331985, Control_c, 0, 64, 24
2, 332000, Control_c, 0, 64, 19
2, 332017, Note_on_c, 0, 65, 84
2, 332024, Control_c, 0, 64, 10
2, 332039, Control_c, 0, 64, 0
2, 332119, Note_on_c, 0, 66, 0
2, 332389, Note_on_c, 0, 56, 0
2, 332710, Note_on_c, 0, 66, 84
2, 332716, Note_on_c, 0, 54, 79
2, 332721, Note_on_c, 0, 42, 77
2, 332794, Note_on_c, 0, 37, 0
2, 332858, Note_on_c, 0, 49, 0
2, 332868, Note_on_c, 0, 65, 0
2, 335582, Note_on_c, 0, 42, 0
2, 335605, Note_on_c, 0, 54, 0
2, 335672, Note_on_c, 0, 66, 0
2, 335673, End_track
0, 0, End_of_file
