0, 0, Header, 1, 2, 480
1, 0, Start_track
1, 0, Tempo, 500000
1, 0, Time_signature, 4, 2, 24, 8
1, 1, End_track
2, 0, Start_track
2, 0, Program_c, 0, 0
2, 0, Control_c, 0, 64, 0
2, 0, Control_c, 0, 67, 0
2, 982, Note_on_c, 0, 78, 60
2, 1017, Note_on_c, 0, 54, 23
2, 1144, Control_c, 0, 64, 10
2, 1166, Control_c, 0, 64, 31
2, 1182, Control_c, 0, 64, 47
2, 1201, Control_c, 0, 64, 57
2, 1220, Control_c, 0, 64, 63
2, 1241, Control_c, 0, 64, 67
2, 1261, Control_c, 0, 64, 74
2, 1280, Control_c, 0, 64, 88
2, 1301, Control_c, 0, 64, 127
2, 1339, Note_on_c, 0, 78, 0
2, 1453, Control_c, 0, 64, 104
2, 1469, Control_c, 0, 64, 95
2, 1491, Control_c, 0, 64, 90
2, 1510, Control_c, 0, 64, 84
2, 1528, Control_c, 0, 64, 78
2, 1548, Control_c, 0, 64, 73
2, 1566, Control_c, 0, 64, 68
2, 1585, Control_c, 0, 64, 64
2, 1606, Control_c, 0, 64, 61
2, 1623, Control_c, 0, 64, 56
2, 1643, Control_c, 0, 64, 50
2, 1662, Control_c, 0, 64, 43
2, 1684, Control_c, 0, 64, 33
2, 1701, Control_c, 0, 64, 0
2, 1745, Note_on_c, 0, 73, 57
2, 1759, Note_on_c, 0, 57, 36
2, 2342, Note_on_c, 0, 61, 44
2, 2873, Note_on_c, 0, 57, 0
2, 2873, Note_on_c, 0, 73, 0
2, 2878, Note_on_c, 0, 69, 66
2, 2899, Note_on_c, 0, 61, 0
2, 2903, Note_on_c, 0, 66, 39
2, 3138, Note_on_c, 0, 71, 73
2, 3147, Note_on_c, 0, 54, 0
2, 3147, Note_on_c, 0, 69, 0
2, 3155, Note_on_c, 0, 56, 50
2, 3171, Note_on_c, 0, 66, 0
2, 3427, Note_on_c, 0, 71, 0
2, 3441, Note_on_c, 0, 56, 0
2, 3447, Note_on_c, 0, 73, 62
2, 3458, Note_on_c, 0, 57, 41
2, 3634, Note_on_c, 0, 73, 0
2, 3649, Note_on_c, 0, 71, 63
2, 3785, Note_on_c, 0, 71, 0
2, 3801, Note_on_c, 0, 69, 63
2, 3935, Note_on_c, 0, 57, 0
2, 3961, Note_on_c, 0, 69, 0
2, 3976, Note_on_c, 0, 61, 35
2, 3976, Note_on_c, 0, 71, 64
2, 3996, Note_on_c, 0, 65, 34
2, 4121, Note_on_c, 0, 71, 0
2, 4158, Note_on_c, 0, 69, 53
2, 4291, Note_on_c, 0, 65, 0
2, 4309, Note_on_c, 0, 69, 0
2, 4336, Note_on_c, 0, 68, 56
2, 4510, Note_on_c, 0, 61, 0
2, 4602, Note_on_c, 0, 68, 0
2, 4632, Note_on_c, 0, 66, 59
2, 4643, Note_on_c, 0, 54, 49
2, 4670, Note_on_c, 0, 69, 42
2, 5011, Note_on_c, 0, 71, 51
2, 5063, Note_on_c, 0, 69, 0
2, 5078, Note_on_c, 0, 66, 0
2, 5335, Note_on_c, 0, 61, 62
2, 5353, Note_on_c, 0, 71, 0
2, 5375, Note_on_c, 0, 69, 45
2, 5616, Note_on_c, 0, 69, 0
2, 5631, Note_on_c, 0, 68, 66
2, 5880, Note_on_c, 0, 68, 0
2, 5896, Note_on_c, 0, 69, 65
2, 6168, Note_on_c, 0, 73, 73
2, 6173, Note_on_c, 0, 69, 0
2, 6416, Note_on_c, 0, 78, 73
2, 6421, Note_on_c, 0, 61, 0
2, 6429, Note_on_c, 0, 57, 51
2, 6446, Note_on_c, 0, 73, 0
2, 6684, Note_on_c, 0, 80, 70
2, 6710, Note_on_c, 0, 59, 51
2, 6728, Note_on_c, 0, 78, 0
2, 6829, Note_on_c, 0, 57, 0
2, 6975, Note_on_c, 0, 59, 0
2, 6985, Note_on_c, 0, 81, 66
2, 6997, Note_on_c, 0, 61, 49
2, 7029, Note_on_c, 0, 80, 0
2, 7159, Note_on_c, 0, 61, 0
2, 7190, Note_on_c, 0, 59, 50
2, 7190, Note_on_c, 0, 80, 69
2, 7251, Note_on_c, 0, 81, 0
2, 7337, Note_on_c, 0, 78, 81
2, 7352, Note_on_c, 0, 57, 59
2, 7352, Note_on_c, 0, 59, 0
2, 7363, Note_on_c, 0, 80, 0
2, 7497, Note_on_c, 0, 80, 74
2, 7501, Note_on_c, 0, 57, 0
2, 7512, Note_on_c, 0, 59, 57
2, 7528, Note_on_c, 0, 78, 0
2, 7592, Note_on_c, 0, 54, 0
2, 7657, Note_on_c, 0, 78, 79
2, 7662, Note_on_c, 0, 80, 0
2, 7666, Note_on_c, 0, 57, 56
2, 7671, Note_on_c, 0, 59, 0
2, 7799, Note_on_c, 0, 78, 0
2, 7813, Note_on_c, 0, 77, 68
2, 7818, Note_on_c, 0, 57, 0
2, 7837, Note_on_c, 0, 56, 57
2, 8042, Note_on_c, 0, 77, 0
2, 8057, Note_on_c, 0, 78, 62
2, 8071, Note_on_c, 0, 57, 49
2, 8084, Note_on_c, 0, 56, 0
2, 8378, Note_on_c, 0, 78, 0
2, 8387, Note_on_c, 0, 73, 68
2, 8676, Note_on_c, 0, 59, 43
2, 8680, Note_on_c, 0, 61, 31
2, 8825, Control_c, 0, 64, 8
2, 8842, Control_c, 0, 64, 37
2, 8851, Note_on_c, 0, 61, 0
2, 8863, Control_c, 0, 64, 52
2, 8882, Control_c, 0, 64, 64
2, 8902, Control_c, 0, 64, 69
2, 8921, Control_c, 0, 64, 79
2, 8921, Note_on_c, 0, 73, 0
2, 8925, Note_on_c, 0, 77, 71
2, 8934, Note_on_c, 0, 57, 0
2, 8939, Control_c, 0, 64, 109
2, 8958, Control_c, 0, 64, 127
2, 9012, Note_on_c, 0, 59, 0
2, 9190, Control_c, 0, 64, 101
2, 9201, Note_on_c, 0, 78, 73
2, 9209, Control_c, 0, 64, 88
2, 9226, Note_on_c, 0, 59, 36
2, 9230, Control_c, 0, 64, 83
2, 9235, Note_on_c, 0, 77, 0
2, 9242, Note_on_c, 0, 61, 31
2, 9266, Control_c, 0, 64, 85
2, 9281, Note_on_c, 0, 59, 0
2, 9286, Control_c, 0, 64, 92
2, 9303, Control_c, 0, 64, 107
2, 9314, Note_on_c, 0, 61, 0
2, 9323, Control_c, 0, 64, 127
2, 9492, Note_on_c, 0, 73, 74
2, 9495, Note_on_c, 0, 78, 0
2, 9670, Control_c, 0, 64, 112
2, 9689, Control_c, 0, 64, 90
2, 9707, Control_c, 0, 64, 75
2, 9729, Control_c, 0, 64, 67
2, 9740, Note_on_c, 0, 59, 49
2, 9746, Control_c, 0, 64, 63
2, 9751, Note_on_c, 0, 68, 51
2, 9764, Control_c, 0, 64, 60
2, 9784, Control_c, 0, 64, 58
2, 9805, Control_c, 0, 64, 59
2, 9823, Control_c, 0, 64, 62
2, 9840, Control_c, 0, 64, 64
2, 9860, Control_c, 0, 64, 68
2, 9882, Control_c, 0, 64, 72
2, 9899, Control_c, 0, 64, 78
2, 9918, Control_c, 0, 64, 85
2, 9940, Control_c, 0, 64, 91
2, 9958, Control_c, 0, 64, 96
2, 9964, Note_on_c, 0, 77, 77
2, 9977, Control_c, 0, 64, 102
2, 9982, Note_on_c, 0, 73, 0
2, 9991, Note_on_c, 0, 59, 0
2, 9999, Control_c, 0, 64, 106
2, 10000, Note_on_c, 0, 68, 0
2, 10016, Control_c, 0, 64, 113
2, 10037, Control_c, 0, 64, 122
2, 10053, Control_c, 0, 64, 127
2, 10225, Control_c, 0, 64, 118
2, 10247, Control_c, 0, 64, 106
2, 10254, Note_on_c, 0, 66, 51
2, 10265, Control_c, 0, 64, 94
2, 10285, Control_c, 0, 64, 82
2, 10285, Note_on_c, 0, 78, 71
2, 10302, Control_c, 0, 64, 71
2, 10318, Note_on_c, 0, 56, 53
2, 10318, Note_on_c, 0, 66, 0
2, 10318, Note_on_c, 0, 77, 0
2, 10323, Control_c, 0, 64, 64
2, 10341, Control_c, 0, 64, 60
2, 10359, Control_c, 0, 64, 58
2, 10398, Control_c, 0, 64, 59
2, 10418, Control_c, 0, 64, 61
2, 10437, Control_c, 0, 64, 62
2, 10457, Control_c, 0, 64, 64
2, 10475, Control_c, 0, 64, 66
2, 10494, Control_c, 0, 64, 69
2, 10516, Control_c, 0, 64, 73
2, 10534, Control_c, 0, 64, 77
2, 10537, Note_on_c, 0, 78, 0
2, 10552, Control_c, 0, 64, 79
2, 10557, Note_on_c, 0, 73, 75
2, 10574, Control_c, 0, 64, 80
2, 10589, Control_c, 0, 64, 81
2, 10609, Control_c, 0, 64, 83
2, 10629, Control_c, 0, 64, 84
2, 10635, Note_on_c, 0, 56, 0
2, 10647, Control_c, 0, 64, 85
2, 10667, Control_c, 0, 64, 86
2, 10723, Control_c, 0, 64, 83
2, 10744, Control_c, 0, 64, 78
2, 10749, Note_on_c, 0, 73, 0
2, 10764, Control_c, 0, 64, 71
2, 10782, Control_c, 0, 64, 65
2, 10803, Control_c, 0, 64, 60
2, 10804, Note_on_c, 0, 78, 79
2, 10809, Note_on_c, 0, 65, 39
2, 10818, Note_on_c, 0, 56, 49
2, 10822, Control_c, 0, 64, 59
2, 10861, Control_c, 0, 64, 60
2, 10879, Control_c, 0, 64, 61
2, 10901, Control_c, 0, 64, 63
2, 10917, Control_c, 0, 64, 65
2, 10936, Control_c, 0, 64, 67
2, 10956, Control_c, 0, 64, 71
2, 10976, Control_c, 0, 64, 73
2, 10996, Control_c, 0, 64, 75
2, 11005, Note_on_c, 0, 65, 0
2, 11012, Control_c, 0, 64, 77
2, 11033, Control_c, 0, 64, 78
2, 11054, Control_c, 0, 64, 80
2, 11062, Note_on_c, 0, 56, 0
2, 11069, Control_c, 0, 64, 83
2, 11075, Note_on_c, 0, 80, 79
2, 11091, Control_c, 0, 64, 86
2, 11109, Control_c, 0, 64, 90
2, 11129, Control_c, 0, 64, 91
2, 11133, Note_on_c, 0, 78, 0
2, 11148, Control_c, 0, 64, 92
2, 11204, Control_c, 0, 64, 91
2, 11222, Control_c, 0, 64, 89
2, 11243, Control_c, 0, 64, 87
2, 11263, Control_c, 0, 64, 83
2, 11280, Control_c, 0, 64, 76
2, 11302, Control_c, 0, 64, 69
2, 11322, Control_c, 0, 64, 63
2, 11340, Control_c, 0, 64, 58
2, 11356, Note_on_c, 0, 80, 0
2, 11360, Control_c, 0, 64, 54
2, 11360, Note_on_c, 0, 81, 62
2, 11378, Note_on_c, 0, 66, 38
2, 11383, Control_c, 0, 64, 51
2, 11395, Note_on_c, 0, 54, 34
2, 11398, Control_c, 0, 64, 50
2, 11435, Control_c, 0, 64, 52
2, 11456, Control_c, 0, 64, 56
2, 11473, Control_c, 0, 64, 61
2, 11492, Control_c, 0, 64, 64
2, 11505, Note_on_c, 0, 66, 0
2, 11513, Control_c, 0, 64, 66
2, 11534, Control_c, 0, 64, 69
2, 11552, Control_c, 0, 64, 73
2, 11572, Control_c, 0, 64, 79
2, 11585, Note_on_c, 0, 54, 0
2, 11589, Control_c, 0, 64, 90
2, 11609, Control_c, 0, 64, 111
2, 11627, Control_c, 0, 64, 127
2, 11631, Note_on_c, 0, 81, 0
2, 11642, Note_on_c, 0, 77, 65
2, 11822, Control_c, 0, 64, 102
2, 11839, Control_c, 0, 64, 87
2, 11858, Control_c, 0, 64, 75
2, 11878, Control_c, 0, 64, 66
2, 11895, Control_c, 0, 64, 60
2, 11918, Control_c, 0, 64, 53
2, 11918, Note_on_c, 0, 78, 61
2, 11936, Control_c, 0, 64, 48
2, 11941, Note_on_c, 0, 77, 0
2, 11943, Note_on_c, 0, 52, 39
2, 11951, Note_on_c, 0, 61, 31
2, 11956, Control_c, 0, 64, 44
2, 11972, Control_c, 0, 64, 43
2, 12012, Control_c, 0, 64, 44
2, 12029, Control_c, 0, 64, 48
2, 12048, Control_c, 0, 64, 54
2, 12068, Control_c, 0, 64, 59
2, 12088, Control_c, 0, 64, 62
2, 12107, Control_c, 0, 64, 64
2, 12126, Control_c, 0, 64, 65
2, 12145, Control_c, 0, 64, 68
2, 12165, Control_c, 0, 64, 74
2, 12185, Control_c, 0, 64, 89
2, 12203, Control_c, 0, 64, 120
2, 12212, Note_on_c, 0, 81, 54
2, 12221, Control_c, 0, 64, 127
2, 12230, Note_on_c, 0, 61, 0
2, 12236, Note_on_c, 0, 78, 0
2, 12366, Note_on_c, 0, 52, 0
2, 12471, Control_c, 0, 64, 116
2, 12491, Control_c, 0, 64, 96
2, 12510, Control_c, 0, 64, 83
2, 12525, Note_on_c, 0, 81, 0
2, 12530, Control_c, 0, 64, 73
2, 12550, Control_c, 0, 64, 65
2, 12557, Note_on_c, 0, 50, 38
2, 12564, Note_on_c, 0, 54, 38
2, 12564, Note_on_c, 0, 71, 49
2, 12569, Control_c, 0, 64, 60
2, 12586, Control_c, 0, 64, 55
2, 12607, Control_c, 0, 64, 52
2, 12626, Control_c, 0, 64, 49
2, 12646, Control_c, 0, 64, 45
2, 12664, Control_c, 0, 64, 42
2, 12684, Control_c, 0, 64, 39
2, 12702, Control_c, 0, 64, 36
2, 12721, Control_c, 0, 64, 33
2, 12743, Control_c, 0, 64, 31
2, 12759, Control_c, 0, 64, 28
2, 12779, Control_c, 0, 64, 25
2, 12839, Note_on_c, 0, 71, 0
2, 12847, Note_on_c, 0, 81, 67
2, 12893, Control_c, 0, 64, 24
2, 12931, Control_c, 0, 64, 23
2, 12952, Control_c, 0, 64, 22
2, 12991, Control_c, 0, 64, 21
2, 13010, Control_c, 0, 64, 20
2, 13029, Control_c, 0, 64, 19
2, 13047, Control_c, 0, 64, 18
2, 13067, Control_c, 0, 64, 16
2, 13086, Control_c, 0, 64, 15
2, 13102, Note_on_c, 0, 80, 66
2, 13106, Control_c, 0, 64, 12
2, 13111, Note_on_c, 0, 53, 39
2, 13111, Note_on_c, 0, 81, 0
2, 13116, Note_on_c, 0, 54, 0
2, 13125, Control_c, 0, 64, 9
2, 13145, Control_c, 0, 64, 0
2, 13382, Note_on_c, 0, 81, 65
2, 13414, Note_on_c, 0, 80, 0
2, 13594, Note_on_c, 0, 53, 0
2, 13600, Note_on_c, 0, 54, 38
2, 13693, Note_on_c, 0, 83, 61
2, 13715, Note_on_c, 0, 81, 0
2, 13874, Note_on_c, 0, 81, 67
2, 14010, Note_on_c, 0, 83, 0
2, 14018, Note_on_c, 0, 80, 73
2, 14048, Note_on_c, 0, 81, 0
2, 14171, Note_on_c, 0, 59, 41
2, 14186, Note_on_c, 0, 81, 73
2, 14202, Control_c, 0, 64, 21
2, 14202, Note_on_c, 0, 80, 0
2, 14222, Control_c, 0, 64, 34
2, 14238, Control_c, 0, 64, 46
2, 14256, Control_c, 0, 64, 57
2, 14276, Control_c, 0, 64, 61
2, 14299, Control_c, 0, 64, 62
2, 14314, Note_on_c, 0, 50, 0
2, 14316, Note_on_c, 0, 81, 0
2, 14339, Note_on_c, 0, 80, 72
2, 14488, Control_c, 0, 64, 61
2, 14526, Control_c, 0, 64, 60
2, 14526, Note_on_c, 0, 78, 68
2, 14536, Note_on_c, 0, 80, 0
2, 14545, Control_c, 0, 64, 58
2, 14565, Control_c, 0, 64, 56
2, 14583, Control_c, 0, 64, 54
2, 14602, Control_c, 0, 64, 52
2, 14622, Control_c, 0, 64, 49
2, 14642, Control_c, 0, 64, 44
2, 14660, Control_c, 0, 64, 35
2, 14679, Control_c, 0, 64, 28
2, 14702, Control_c, 0, 64, 24
2, 14718, Control_c, 0, 64, 21
2, 14734, Note_on_c, 0, 78, 0
2, 14739, Control_c, 0, 64, 20
2, 14740, Note_on_c, 0, 49, 31
2, 14747, Note_on_c, 0, 77, 54
2, 14753, Note_on_c, 0, 59, 0
2, 14758, Control_c, 0, 64, 18
2, 14758, Note_on_c, 0, 54, 0
2, 14775, Control_c, 0, 64, 14
2, 14794, Control_c, 0, 64, 0
2, 14987, Control_c, 0, 64, 8
2, 15006, Control_c, 0, 64, 13
2, 15026, Control_c, 0, 64, 15
2, 15030, Note_on_c, 0, 77, 0
2, 15133, Note_on_c, 0, 72, 64
2, 15399, Note_on_c, 0, 56, 52
2, 15429, Control_c, 0, 64, 16
2, 15659, Note_on_c, 0, 73, 77
2, 15688, Note_on_c, 0, 72, 0
2, 15738, Control_c, 0, 64, 15
2, 15831, Control_c, 0, 64, 14
2, 15870, Control_c, 0, 64, 13
2, 15933, Note_on_c, 0, 56, 0
2, 15955, Note_on_c, 0, 78, 64
2, 15958, Note_on_c, 0, 57, 38
2, 15992, Note_on_c, 0, 73, 0
2, 16024, Control_c, 0, 64, 12
2, 16043, Control_c, 0, 64, 11
2, 16291, Note_on_c, 0, 78, 0
2, 16300, Note_on_c, 0, 72, 64
2, 16425, Control_c, 0, 64, 10
2, 16550, Note_on_c, 0, 54, 43
2, 16554, Note_on_c, 0, 57, 0
2, 16637, Control_c, 0, 64, 9
2, 16733, Control_c, 0, 64, 8
2, 16769, Control_c, 0, 64, 0
2, 16791, Note_on_c, 0, 72, 0
2, 16791, Note_on_c, 0, 73, 65
2, 17066, Note_on_c, 0, 54, 0
2, 17102, Note_on_c, 0, 53, 37
2, 17127, Note_on_c, 0, 73, 0
2, 17127, Note_on_c, 0, 80, 54
2, 17345, Note_on_c, 0, 71, 65
2, 17427, Note_on_c, 0, 80, 0
2, 17508, Note_on_c, 0, 73, 73
2, 17517, Note_on_c, 0, 71, 0
2, 17679, Note_on_c, 0, 74, 72
2, 17684, Note_on_c, 0, 73, 0
2, 17854, Note_on_c, 0, 74, 0
2, 17859, Note_on_c, 0, 73, 61
2, 18011, Note_on_c, 0, 73, 0
2, 18053, Note_on_c, 0, 71, 61
2, 18211, Note_on_c, 0, 53, 0
2, 18230, Note_on_c, 0, 71, 0
2, 18246, Note_on_c, 0, 69, 55
2, 18434, Note_on_c, 0, 53, 42
2, 18594, Note_on_c, 0, 54, 51
2, 18609, Note_on_c, 0, 53, 0
2, 18756, Note_on_c, 0, 54, 0
2, 18774, Note_on_c, 0, 56, 58
2, 18942, Note_on_c, 0, 56, 0
2, 18953, Note_on_c, 0, 54, 48
2, 19115, Note_on_c, 0, 54, 0
2, 19137, Note_on_c, 0, 53, 57
2, 19310, Note_on_c, 0, 53, 0
2, 19319, Note_on_c, 0, 54, 59
2, 19429, Note_on_c, 0, 49, 0
2, 19468, Note_on_c, 0, 68, 80
2, 19479, Note_on_c, 0, 69, 0
2, 19490, Note_on_c, 0, 56, 68
2, 19499, Note_on_c, 0, 54, 0
2, 19621, Note_on_c, 0, 56, 0
2, 19651, Note_on_c, 0, 66, 81
2, 19657, Note_on_c, 0, 57, 64
2, 19691, Note_on_c, 0, 68, 0
2, 19813, Note_on_c, 0, 57, 0
2, 19819, Note_on_c, 0, 65, 75
2, 19838, Note_on_c, 0, 59, 65
2, 19843, Note_on_c, 0, 66, 0
2, 19960, Note_on_c, 0, 59, 0
2, 19991, Note_on_c, 0, 66, 75
2, 20000, Note_on_c, 0, 57, 57
2, 20009, Note_on_c, 0, 65, 0
2, 20177, Note_on_c, 0, 57, 0
2, 20184, Note_on_c, 0, 68, 76
2, 20190, Note_on_c, 0, 66, 0
2, 20205, Note_on_c, 0, 56, 51
2, 20367, Note_on_c, 0, 56, 0
2, 20371, Note_on_c, 0, 66, 68
2, 20378, Note_on_c, 0, 68, 0
2, 20400, Note_on_c, 0, 57, 44
2, 20541, Note_on_c, 0, 66, 0
2, 20564, Note_on_c, 0, 65, 58
2, 20732, Note_on_c, 0, 65, 0
2, 20739, Note_on_c, 0, 66, 58
2, 20959, Note_on_c, 0, 66, 0
2, 20992, Note_on_c, 0, 48, 32
2, 21004, Note_on_c, 0, 57, 0
2, 21006, Note_on_c, 0, 75, 51
2, 21168, Control_c, 0, 64, 28
2, 21185, Control_c, 0, 64, 43
2, 21206, Control_c, 0, 64, 56
2, 21224, Control_c, 0, 64, 63
2, 21245, Control_c, 0, 64, 67
2, 21263, Control_c, 0, 64, 75
2, 21284, Control_c, 0, 64, 85
2, 21301, Control_c, 0, 64, 115
2, 21321, Control_c, 0, 64, 127
2, 21352, Note_on_c, 0, 48, 0
2, 21358, Note_on_c, 0, 75, 0
2, 21650, Note_on_c, 0, 66, 59
2, 21694, Note_on_c, 0, 66, 0
2, 21767, Control_c, 0, 64, 96
2, 21784, Control_c, 0, 64, 78
2, 21800, Note_on_c, 0, 66, 59
2, 21804, Control_c, 0, 64, 67
2, 21824, Note_on_c, 0, 49, 35
2, 21828, Control_c, 0, 64, 58
2, 21840, Control_c, 0, 64, 52
2, 21860, Control_c, 0, 64, 46
2, 21879, Control_c, 0, 64, 41
2, 21902, Control_c, 0, 64, 36
2, 21918, Control_c, 0, 64, 31
2, 21940, Control_c, 0, 64, 25
2, 21958, Control_c, 0, 64, 19
2, 21976, Control_c, 0, 64, 18
2, 21994, Control_c, 0, 64, 17
2, 22014, Control_c, 0, 64, 13
2, 22035, Control_c, 0, 64, 0
2, 22260, Note_on_c, 0, 56, 47
2, 22319, Note_on_c, 0, 56, 0
2, 22353, Note_on_c, 0, 54, 53
2, 22429, Note_on_c, 0, 54, 0
2, 22467, Note_on_c, 0, 56, 49
2, 22814, Note_on_c, 0, 66, 0
2, 22838, Note_on_c, 0, 65, 63
2, 22926, Note_on_c, 0, 65, 0
2, 22938, Note_on_c, 0, 63, 70
2, 23040, Note_on_c, 0, 63, 0
2, 23040, Note_on_c, 0, 65, 59
2, 23062, Note_on_c, 0, 49, 0
2, 23223, Note_on_c, 0, 65, 0
2, 23249, Note_on_c, 0, 61, 69
2, 23423, Note_on_c, 0, 63, 71
2, 23438, Note_on_c, 0, 61, 0
2, 23581, Note_on_c, 0, 63, 0
2, 23586, Note_on_c, 0, 56, 0
2, 23594, Note_on_c, 0, 49, 43
2, 23616, Note_on_c, 0, 65, 68
2, 23805, Note_on_c, 0, 66, 67
2, 23814, Note_on_c, 0, 65, 0
2, 23987, Note_on_c, 0, 68, 66
2, 23991, Note_on_c, 0, 66, 0
2, 24156, Note_on_c, 0, 68, 0
2, 24160, Note_on_c, 0, 51, 49
2, 24173, Note_on_c, 0, 66, 58
2, 24194, Note_on_c, 0, 49, 0
2, 24343, Note_on_c, 0, 66, 0
2, 24354, Note_on_c, 0, 65, 54
2, 24529, Note_on_c, 0, 66, 53
2, 24542, Note_on_c, 0, 65, 0
2, 24685, Note_on_c, 0, 51, 0
2, 24709, Note_on_c, 0, 66, 0
2, 24733, Note_on_c, 0, 68, 57
2, 24749, Note_on_c, 0, 53, 40
2, 24915, Note_on_c, 0, 68, 0
2, 24924, Note_on_c, 0, 69, 51
2, 25060, Note_on_c, 0, 69, 0
2, 25101, Note_on_c, 0, 71, 50
2, 25105, Control_c, 0, 64, 26
2, 25124, Control_c, 0, 64, 42
2, 25142, Control_c, 0, 64, 52
2, 25163, Control_c, 0, 64, 60
2, 25181, Control_c, 0, 64, 63
2, 25202, Control_c, 0, 64, 65
2, 25241, Control_c, 0, 64, 67
2, 25259, Control_c, 0, 64, 68
2, 25278, Control_c, 0, 64, 70
2, 25326, Note_on_c, 0, 71, 0
2, 25328, Note_on_c, 0, 53, 0
2, 25358, Control_c, 0, 64, 68
2, 25369, Note_on_c, 0, 54, 45
2, 25373, Control_c, 0, 64, 66
2, 25394, Control_c, 0, 64, 62
2, 25414, Control_c, 0, 64, 59
2, 25423, Note_on_c, 0, 69, 50
2, 25432, Control_c, 0, 64, 55
2, 25450, Control_c, 0, 64, 50
2, 25471, Control_c, 0, 64, 41
2, 25480, Note_on_c, 0, 69, 0
2, 25489, Control_c, 0, 64, 22
2, 25511, Control_c, 0, 64, 0
2, 25511, Note_on_c, 0, 68, 67
2, 25582, Note_on_c, 0, 68, 0
2, 25615, Note_on_c, 0, 66, 58
2, 25683, Control_c, 0, 64, 16
2, 25700, Control_c, 0, 64, 43
2, 25721, Control_c, 0, 64, 57
2, 25738, Control_c, 0, 64, 63
2, 25758, Control_c, 0, 64, 66
2, 25779, Control_c, 0, 64, 69
2, 25796, Control_c, 0, 64, 74
2, 25816, Control_c, 0, 64, 91
2, 25825, Note_on_c, 0, 66, 0
2, 25835, Control_c, 0, 64, 127
2, 25934, Note_on_c, 0, 54, 0
2, 25980, Note_on_c, 0, 42, 51
2, 26217, Control_c, 0, 64, 106
2, 26237, Control_c, 0, 64, 95
2, 26256, Control_c, 0, 64, 88
2, 26275, Control_c, 0, 64, 82
2, 26280, Note_on_c, 0, 69, 56
2, 26294, Control_c, 0, 64, 77
2, 26314, Control_c, 0, 64, 72
2, 26334, Control_c, 0, 64, 67
2, 26351, Control_c, 0, 64, 64
2, 26372, Control_c, 0, 64, 61
2, 26391, Control_c, 0, 64, 59
2, 26413, Control_c, 0, 64, 56
2, 26421, Note_on_c, 0, 69, 0
2, 26425, Note_on_c, 0, 78, 68
2, 26430, Control_c, 0, 64, 52
2, 26449, Control_c, 0, 64, 47
2, 26469, Control_c, 0, 64, 42
2, 26490, Control_c, 0, 64, 36
2, 26506, Control_c, 0, 64, 32
2, 26527, Control_c, 0, 64, 30
2, 26547, Control_c, 0, 64, 28
2, 26562, Note_on_c, 0, 45, 40
2, 26563, Control_c, 0, 64, 26
2, 26608, Note_on_c, 0, 42, 0
2, 26623, Control_c, 0, 64, 28
2, 26628, Note_on_c, 0, 78, 0
2, 26641, Control_c, 0, 64, 35
2, 26659, Control_c, 0, 64, 45
2, 26678, Control_c, 0, 64, 56
2, 26699, Control_c, 0, 64, 63
2, 26716, Control_c, 0, 64, 68
2, 26739, Control_c, 0, 64, 75
2, 26757, Control_c, 0, 64, 89
2, 26757, Note_on_c, 0, 73, 70
2, 26775, Control_c, 0, 64, 127
2, 26919, Note_on_c, 0, 75, 69
2, 26924, Note_on_c, 0, 73, 0
2, 27105, Note_on_c, 0, 49, 52
2, 27109, Note_on_c, 0, 75, 0
2, 27109, Note_on_c, 0, 78, 78
2, 27114, Note_on_c, 0, 45, 0
2, 27230, Note_on_c, 0, 78, 0
2, 27290, Note_on_c, 0, 49, 0
2, 27295, Note_on_c, 0, 77, 64
2, 27303, Note_on_c, 0, 79, 71
2, 27425, Note_on_c, 0, 77, 0
2, 27425, Note_on_c, 0, 79, 0
2, 27463, Note_on_c, 0, 78, 71
2, 27590, Note_on_c, 0, 78, 0
2, 27620, Control_c, 0, 64, 99
2, 27639, Control_c, 0, 64, 81
2, 27639, Note_on_c, 0, 81, 78
2, 27661, Control_c, 0, 64, 70
2, 27677, Control_c, 0, 64, 64
2, 27696, Control_c, 0, 64, 59
2, 27701, Note_on_c, 0, 54, 38
2, 27716, Control_c, 0, 64, 56
2, 27736, Control_c, 0, 64, 55
2, 27756, Control_c, 0, 64, 57
2, 27777, Control_c, 0, 64, 59
2, 27793, Control_c, 0, 64, 60
2, 27812, Control_c, 0, 64, 61
2, 27832, Control_c, 0, 64, 62
2, 27832, Note_on_c, 0, 80, 79
2, 27847, Note_on_c, 0, 81, 0
2, 27852, Control_c, 0, 64, 63
2, 27928, Control_c, 0, 64, 62
2, 27965, Control_c, 0, 64, 61
2, 27976, Note_on_c, 0, 78, 77
2, 27985, Control_c, 0, 64, 59
2, 28005, Control_c, 0, 64, 55
2, 28023, Control_c, 0, 64, 51
2, 28027, Note_on_c, 0, 80, 0
2, 28042, Control_c, 0, 64, 48
2, 28061, Control_c, 0, 64, 45
2, 28082, Control_c, 0, 64, 40
2, 28100, Control_c, 0, 64, 34
2, 28120, Control_c, 0, 64, 33
2, 28139, Control_c, 0, 64, 35
2, 28160, Control_c, 0, 64, 42
2, 28160, Note_on_c, 0, 80, 75
2, 28167, Note_on_c, 0, 59, 44
2, 28175, Control_c, 0, 64, 48
2, 28182, Note_on_c, 0, 78, 0
2, 28197, Control_c, 0, 64, 53
2, 28217, Control_c, 0, 64, 57
2, 28234, Control_c, 0, 64, 59
2, 28253, Control_c, 0, 64, 61
2, 28272, Control_c, 0, 64, 63
2, 28292, Control_c, 0, 64, 64
2, 28352, Control_c, 0, 64, 65
2, 28352, Note_on_c, 0, 78, 71
2, 28373, Note_on_c, 0, 80, 0
2, 28390, Control_c, 0, 64, 66
2, 28390, Note_on_c, 0, 59, 0
2, 28464, Control_c, 0, 64, 65
2, 28504, Control_c, 0, 64, 64
2, 28511, Note_on_c, 0, 78, 0
2, 28522, Control_c, 0, 64, 62
2, 28545, Control_c, 0, 64, 60
2, 28545, Note_on_c, 0, 76, 71
2, 28560, Control_c, 0, 64, 57
2, 28579, Control_c, 0, 64, 54
2, 28598, Control_c, 0, 64, 50
2, 28620, Control_c, 0, 64, 45
2, 28640, Control_c, 0, 64, 40
2, 28657, Control_c, 0, 64, 38
2, 28704, Note_on_c, 0, 76, 0
2, 28719, Note_on_c, 0, 57, 41
2, 28735, Control_c, 0, 64, 40
2, 28740, Note_on_c, 0, 75, 66
2, 28753, Control_c, 0, 64, 42
2, 28775, Control_c, 0, 64, 45
2, 28794, Control_c, 0, 64, 49
2, 28810, Control_c, 0, 64, 53
2, 28829, Control_c, 0, 64, 58
2, 28849, Control_c, 0, 64, 62
2, 28867, Control_c, 0, 64, 64
2, 28887, Control_c, 0, 64, 65
2, 28906, Control_c, 0, 64, 66
2, 28926, Control_c, 0, 64, 68
2, 28945, Control_c, 0, 64, 70
2, 28964, Control_c, 0, 64, 72
2, 28983, Control_c, 0, 64, 75
2, 29004, Control_c, 0, 64, 78
2, 29004, Note_on_c, 0, 76, 80
2, 29019, Note_on_c, 0, 75, 0
2, 29024, Control_c, 0, 64, 82
2, 29041, Control_c, 0, 64, 84
2, 29061, Control_c, 0, 64, 85
2, 29104, Note_on_c, 0, 54, 0
2, 29176, Control_c, 0, 64, 84
2, 29213, Control_c, 0, 64, 83
2, 29233, Control_c, 0, 64, 82
2, 29254, Control_c, 0, 64, 78
2, 29271, Control_c, 0, 64, 73
2, 29291, Control_c, 0, 64, 66
2, 29296, Note_on_c, 0, 57, 0
2, 29309, Control_c, 0, 64, 61
2, 29314, Note_on_c, 0, 51, 44
2, 29330, Control_c, 0, 64, 55
2, 29345, Note_on_c, 0, 76, 0
2, 29348, Control_c, 0, 64, 49
2, 29354, Note_on_c, 0, 78, 70
2, 29370, Control_c, 0, 64, 42
2, 29386, Control_c, 0, 64, 38
2, 29447, Control_c, 0, 64, 39
2, 29465, Control_c, 0, 64, 41
2, 29482, Control_c, 0, 64, 43
2, 29501, Control_c, 0, 64, 44
2, 29539, Control_c, 0, 64, 45
2, 29558, Control_c, 0, 64, 47
2, 29580, Control_c, 0, 64, 52
2, 29597, Control_c, 0, 64, 58
2, 29616, Control_c, 0, 64, 61
2, 29631, Note_on_c, 0, 57, 43
2, 29636, Control_c, 0, 64, 63
2, 29654, Control_c, 0, 64, 65
2, 29669, Note_on_c, 0, 51, 0
2, 29677, Control_c, 0, 64, 66
2, 29693, Control_c, 0, 64, 68
2, 29713, Control_c, 0, 64, 71
2, 29731, Control_c, 0, 64, 76
2, 29751, Control_c, 0, 64, 80
2, 29772, Control_c, 0, 64, 84
2, 29789, Control_c, 0, 64, 86
2, 29848, Control_c, 0, 64, 84
2, 29865, Control_c, 0, 64, 80
2, 29887, Control_c, 0, 64, 74
2, 29904, Control_c, 0, 64, 68
2, 29909, Note_on_c, 0, 56, 50
2, 29920, Note_on_c, 0, 48, 45
2, 29925, Control_c, 0, 64, 63
2, 29943, Control_c, 0, 64, 60
2, 29947, Note_on_c, 0, 57, 0
2, 29964, Control_c, 0, 64, 57
2, 29980, Control_c, 0, 64, 55
2, 30000, Control_c, 0, 64, 51
2, 30020, Control_c, 0, 64, 47
2, 30039, Control_c, 0, 64, 44
2, 30059, Control_c, 0, 64, 42
2, 30114, Control_c, 0, 64, 41
2, 30153, Control_c, 0, 64, 40
2, 30153, Note_on_c, 0, 76, 81
2, 30166, Note_on_c, 0, 78, 0
2, 30209, Control_c, 0, 64, 39
2, 30247, Control_c, 0, 64, 38
2, 30267, Control_c, 0, 64, 37
2, 30327, Control_c, 0, 64, 36
2, 30345, Control_c, 0, 64, 35
2, 30364, Control_c, 0, 64, 33
2, 30383, Control_c, 0, 64, 31
2, 30402, Control_c, 0, 64, 30
2, 30415, Note_on_c, 0, 76, 0
2, 30426, Note_on_c, 0, 56, 0
2, 30434, Note_on_c, 0, 54, 49
2, 30439, Note_on_c, 0, 75, 72
2, 30461, Control_c, 0, 64, 29
2, 30479, Control_c, 0, 64, 28
2, 30638, Note_on_c, 0, 48, 0
2, 30671, Control_c, 0, 64, 27
2, 30688, Note_on_c, 0, 81, 75
2, 30693, Note_on_c, 0, 75, 0
2, 30766, Control_c, 0, 64, 25
2, 30788, Control_c, 0, 64, 24
2, 30805, Control_c, 0, 64, 23
2, 30824, Control_c, 0, 64, 21
2, 30845, Control_c, 0, 64, 18
2, 30862, Control_c, 0, 64, 15
2, 30922, Control_c, 0, 64, 13
2, 30939, Control_c, 0, 64, 11
2, 30957, Note_on_c, 0, 54, 0
2, 30961, Control_c, 0, 64, 10
2, 30970, Note_on_c, 0, 52, 46
2, 31000, Note_on_c, 0, 80, 66
2, 31071, Note_on_c, 0, 81, 0
2, 31093, Control_c, 0, 64, 11
2, 31152, Note_on_c, 0, 80, 0
2, 31171, Control_c, 0, 64, 12
2, 31175, Note_on_c, 0, 78, 65
2, 31311, Note_on_c, 0, 78, 0
2, 31327, Note_on_c, 0, 76, 61
2, 31463, Note_on_c, 0, 52, 0
2, 31475, Note_on_c, 0, 51, 52
2, 31484, Note_on_c, 0, 76, 0
2, 31502, Note_on_c, 0, 78, 64
2, 31507, Note_on_c, 0, 44, 36
2, 31572, Control_c, 0, 64, 13
2, 31675, Note_on_c, 0, 78, 0
2, 31679, Note_on_c, 0, 76, 66
2, 31728, Control_c, 0, 64, 14
2, 31801, Note_on_c, 0, 76, 0
2, 31825, Note_on_c, 0, 75, 67
2, 32019, Note_on_c, 0, 51, 0
2, 32032, Note_on_c, 0, 49, 61
2, 32036, Control_c, 0, 64, 13
2, 32057, Note_on_c, 0, 44, 0
2, 32067, Note_on_c, 0, 75, 0
2, 32081, Note_on_c, 0, 76, 66
2, 32376, Note_on_c, 0, 75, 75
2, 32397, Note_on_c, 0, 76, 0
2, 32399, Control_c, 0, 64, 12
2, 32649, Control_c, 0, 64, 11
2, 32663, Note_on_c, 0, 73, 72
2, 32681, Note_on_c, 0, 75, 0
2, 32686, Control_c, 0, 64, 10
2, 32744, Control_c, 0, 64, 9
2, 32782, Control_c, 0, 64, 8
2, 32822, Control_c, 0, 64, 0
2, 32918, Note_on_c, 0, 47, 50
2, 33216, Note_on_c, 0, 47, 0
2, 33220, Note_on_c, 0, 45, 46
2, 33464, Note_on_c, 0, 75, 66
2, 33525, Note_on_c, 0, 73, 0
2, 33747, Note_on_c, 0, 44, 41
2, 33752, Note_on_c, 0, 73, 69
2, 33761, Note_on_c, 0, 45, 0
2, 33761, Note_on_c, 0, 75, 0
2, 34015, Note_on_c, 0, 73, 0
2, 34020, Note_on_c, 0, 72, 66
2, 34311, Note_on_c, 0, 72, 0
2, 34337, Note_on_c, 0, 73, 59
2, 34352, Note_on_c, 0, 44, 0
2, 34362, Note_on_c, 0, 42, 39
2, 34371, Note_on_c, 0, 49, 0
2, 34617, Note_on_c, 0, 73, 0
2, 34628, Note_on_c, 0, 76, 61
2, 34909, Note_on_c, 0, 49, 47
2, 34922, Note_on_c, 0, 69, 54
2, 34941, Note_on_c, 0, 76, 0
2, 35184, Note_on_c, 0, 68, 68
2, 35243, Note_on_c, 0, 69, 0
2, 35453, Note_on_c, 0, 49, 0
2, 35471, Note_on_c, 0, 68, 0
2, 35475, Note_on_c, 0, 54, 47
2, 35475, Note_on_c, 0, 69, 64
2, 35714, Note_on_c, 0, 69, 0
2, 35733, Note_on_c, 0, 72, 70
2, 35985, Note_on_c, 0, 42, 0
2, 36007, Note_on_c, 0, 66, 65
2, 36018, Note_on_c, 0, 44, 46
2, 36020, Note_on_c, 0, 72, 0
2, 36058, Note_on_c, 0, 54, 0
2, 36285, Note_on_c, 0, 64, 66
2, 36336, Note_on_c, 0, 66, 0
2, 36523, Note_on_c, 0, 44, 0
2, 36554, Note_on_c, 0, 45, 37
2, 36554, Note_on_c, 0, 66, 63
2, 36559, Note_on_c, 0, 64, 0
2, 36824, Note_on_c, 0, 72, 77
2, 36829, Note_on_c, 0, 66, 0
2, 37099, Note_on_c, 0, 72, 0
2, 37108, Note_on_c, 0, 73, 74
2, 37112, Note_on_c, 0, 42, 38
2, 37154, Note_on_c, 0, 45, 0
2, 37386, Note_on_c, 0, 75, 74
2, 37412, Note_on_c, 0, 73, 0
2, 37612, Note_on_c, 0, 44, 41
2, 37655, Note_on_c, 0, 42, 0
2, 37698, Note_on_c, 0, 76, 69
2, 37709, Note_on_c, 0, 75, 0
2, 37908, Note_on_c, 0, 75, 66
2, 37908, Note_on_c, 0, 76, 0
2, 38070, Note_on_c, 0, 73, 72
2, 38103, Note_on_c, 0, 75, 0
2, 38221, Note_on_c, 0, 54, 37
2, 38248, Note_on_c, 0, 75, 64
2, 38252, Note_on_c, 0, 73, 0
2, 38292, Control_c, 0, 64, 17
2, 38313, Control_c, 0, 64, 33
2, 38335, Control_c, 0, 64, 48
2, 38335, Note_on_c, 0, 44, 0
2, 38350, Control_c, 0, 64, 59
2, 38370, Control_c, 0, 64, 65
2, 38390, Control_c, 0, 64, 69
2, 38390, Note_on_c, 0, 75, 0
2, 38408, Control_c, 0, 64, 75
2, 38413, Note_on_c, 0, 73, 72
2, 38428, Control_c, 0, 64, 83
2, 38446, Control_c, 0, 64, 93
2, 38466, Control_c, 0, 64, 105
2, 38486, Control_c, 0, 64, 127
2, 38543, Note_on_c, 0, 73, 0
2, 38573, Note_on_c, 0, 72, 76
2, 38596, Note_on_c, 0, 54, 0
2, 38638, Control_c, 0, 64, 112
2, 38658, Control_c, 0, 64, 98
2, 38677, Control_c, 0, 64, 86
2, 38696, Control_c, 0, 64, 77
2, 38715, Control_c, 0, 64, 69
2, 38735, Control_c, 0, 64, 64
2, 38754, Control_c, 0, 64, 58
2, 38775, Control_c, 0, 64, 52
2, 38791, Control_c, 0, 64, 47
2, 38798, Note_on_c, 0, 72, 0
2, 38810, Control_c, 0, 64, 42
2, 38824, Note_on_c, 0, 73, 60
2, 38830, Control_c, 0, 64, 35
2, 38848, Note_on_c, 0, 49, 37
2, 38850, Control_c, 0, 64, 28
2, 38868, Control_c, 0, 64, 18
2, 38887, Control_c, 0, 64, 0
2, 38983, Control_c, 0, 64, 15
2, 39003, Control_c, 0, 64, 25
2, 39021, Control_c, 0, 64, 37
2, 39040, Control_c, 0, 64, 46
2, 39061, Control_c, 0, 64, 53
2, 39081, Control_c, 0, 64, 59
2, 39098, Control_c, 0, 64, 63
2, 39118, Control_c, 0, 64, 65
2, 39139, Control_c, 0, 64, 68
2, 39159, Control_c, 0, 64, 74
2, 39177, Control_c, 0, 64, 81
2, 39195, Control_c, 0, 64, 88
2, 39214, Control_c, 0, 64, 92
2, 39234, Control_c, 0, 64, 93
2, 39263, Note_on_c, 0, 73, 0
2, 39311, Control_c, 0, 64, 92
2, 39330, Control_c, 0, 64, 91
2, 39351, Control_c, 0, 64, 90
2, 39370, Control_c, 0, 64, 88
2, 39387, Control_c, 0, 64, 85
2, 39405, Control_c, 0, 64, 83
2, 39425, Control_c, 0, 64, 81
2, 39445, Control_c, 0, 64, 77
2, 39463, Control_c, 0, 64, 73
2, 39485, Control_c, 0, 64, 68
2, 39503, Control_c, 0, 64, 63
2, 39523, Control_c, 0, 64, 59
2, 39540, Note_on_c, 0, 68, 54
2, 39545, Control_c, 0, 64, 57
2, 39545, Note_on_c, 0, 52, 34
2, 39563, Control_c, 0, 64, 54
2, 39581, Control_c, 0, 64, 51
2, 39597, Control_c, 0, 64, 48
2, 39617, Control_c, 0, 64, 45
2, 39637, Control_c, 0, 64, 42
2, 39658, Control_c, 0, 64, 40
2, 40125, Note_on_c, 0, 56, 47
2, 40405, Control_c, 0, 64, 41
2, 40539, Control_c, 0, 64, 42
2, 40695, Note_on_c, 0, 64, 66
2, 40725, Note_on_c, 0, 61, 38
2, 40753, Control_c, 0, 64, 41
2, 40753, Note_on_c, 0, 68, 0
2, 40794, Note_on_c, 0, 56, 0
2, 40889, Note_on_c, 0, 49, 0
2, 40902, Note_on_c, 0, 52, 0
2, 40923, Control_c, 0, 64, 40
2, 40963, Control_c, 0, 64, 39
2, 40970, Note_on_c, 0, 66, 71
2, 40983, Note_on_c, 0, 61, 0
2, 40987, Note_on_c, 0, 51, 50
2, 40987, Note_on_c, 0, 64, 0
2, 41000, Control_c, 0, 64, 38
2, 41056, Control_c, 0, 64, 37
2, 41077, Control_c, 0, 64, 36
2, 41095, Control_c, 0, 64, 34
2, 41116, Control_c, 0, 64, 32
2, 41133, Control_c, 0, 64, 30
2, 41154, Control_c, 0, 64, 29
2, 41173, Control_c, 0, 64, 28
2, 41191, Control_c, 0, 64, 27
2, 41210, Control_c, 0, 64, 25
2, 41230, Control_c, 0, 64, 20
2, 41251, Control_c, 0, 64, 19
2, 41268, Control_c, 0, 64, 18
2, 41282, Note_on_c, 0, 66, 0
2, 41296, Note_on_c, 0, 52, 43
2, 41296, Note_on_c, 0, 68, 61
2, 41309, Control_c, 0, 64, 16
2, 41315, Note_on_c, 0, 51, 0
2, 41329, Control_c, 0, 64, 14
2, 41345, Control_c, 0, 64, 11
2, 41473, Note_on_c, 0, 68, 0
2, 41480, Note_on_c, 0, 66, 59
2, 41610, Note_on_c, 0, 66, 0
2, 41638, Note_on_c, 0, 64, 64
2, 41692, Control_c, 0, 64, 10
2, 41768, Control_c, 0, 64, 9
2, 41787, Control_c, 0, 64, 0
2, 41796, Note_on_c, 0, 64, 0
2, 41800, Note_on_c, 0, 52, 0
2, 41821, Note_on_c, 0, 66, 58
2, 41841, Note_on_c, 0, 56, 36
2, 41858, Note_on_c, 0, 60, 35
2, 41940, Control_c, 0, 64, 13
2, 41959, Control_c, 0, 64, 19
2, 41980, Control_c, 0, 64, 26
2, 42001, Control_c, 0, 64, 35
2, 42001, Note_on_c, 0, 66, 0
2, 42017, Control_c, 0, 64, 43
2, 42021, Note_on_c, 0, 64, 54
2, 42037, Control_c, 0, 64, 49
2, 42058, Control_c, 0, 64, 54
2, 42074, Control_c, 0, 64, 57
2, 42095, Note_on_c, 0, 60, 0
2, 42100, Control_c, 0, 64, 59
2, 42115, Control_c, 0, 64, 60
2, 42133, Control_c, 0, 64, 61
2, 42163, Note_on_c, 0, 64, 0
2, 42172, Control_c, 0, 64, 62
2, 42209, Note_on_c, 0, 63, 46
2, 42285, Control_c, 0, 64, 61
2, 42298, Note_on_c, 0, 56, 0
2, 42344, Control_c, 0, 64, 60
2, 42381, Control_c, 0, 64, 58
2, 42400, Control_c, 0, 64, 56
2, 42420, Control_c, 0, 64, 54
2, 42439, Control_c, 0, 64, 52
2, 42459, Control_c, 0, 64, 49
2, 42479, Control_c, 0, 64, 45
2, 42479, Note_on_c, 0, 61, 53
2, 42488, Note_on_c, 0, 49, 47
2, 42493, Note_on_c, 0, 63, 0
2, 42499, Control_c, 0, 64, 40
2, 42518, Control_c, 0, 64, 35
2, 42518, Note_on_c, 0, 64, 44
2, 42537, Control_c, 0, 64, 31
2, 42558, Control_c, 0, 64, 27
2, 42574, Control_c, 0, 64, 22
2, 42593, Control_c, 0, 64, 16
2, 42670, Control_c, 0, 64, 17
2, 42691, Control_c, 0, 64, 21
2, 42710, Control_c, 0, 64, 25
2, 42730, Control_c, 0, 64, 30
2, 42747, Control_c, 0, 64, 39
2, 42769, Control_c, 0, 64, 48
2, 42785, Control_c, 0, 64, 56
2, 42805, Control_c, 0, 64, 60
2, 42828, Control_c, 0, 64, 63
2, 42842, Note_on_c, 0, 66, 55
2, 42866, Control_c, 0, 64, 64
2, 42872, Note_on_c, 0, 64, 0
2, 42885, Control_c, 0, 64, 65
2, 42922, Control_c, 0, 64, 66
2, 42941, Control_c, 0, 64, 68
2, 42959, Control_c, 0, 64, 69
2, 42980, Control_c, 0, 64, 71
2, 43002, Control_c, 0, 64, 72
2, 43020, Control_c, 0, 64, 73
2, 43076, Control_c, 0, 64, 72
2, 43094, Control_c, 0, 64, 71
2, 43116, Control_c, 0, 64, 69
2, 43116, Note_on_c, 0, 61, 0
2, 43135, Control_c, 0, 64, 66
2, 43152, Note_on_c, 0, 56, 61
2, 43156, Control_c, 0, 64, 62
2, 43172, Control_c, 0, 64, 59
2, 43180, Note_on_c, 0, 64, 62
2, 43184, Note_on_c, 0, 66, 0
2, 43191, Control_c, 0, 64, 57
2, 43211, Control_c, 0, 64, 55
2, 43232, Control_c, 0, 64, 53
2, 43247, Control_c, 0, 64, 51
2, 43268, Control_c, 0, 64, 49
2, 43286, Control_c, 0, 64, 50
2, 43306, Control_c, 0, 64, 51
2, 43325, Control_c, 0, 64, 52
2, 43382, Control_c, 0, 64, 53
2, 43402, Control_c, 0, 64, 54
2, 43424, Control_c, 0, 64, 56
2, 43442, Control_c, 0, 64, 58
2, 43442, Note_on_c, 0, 64, 0
2, 43451, Note_on_c, 0, 63, 68
2, 43480, Control_c, 0, 64, 59
2, 43519, Control_c, 0, 64, 60
2, 43536, Control_c, 0, 64, 62
2, 43558, Control_c, 0, 64, 63
2, 43575, Control_c, 0, 64, 64
2, 43593, Control_c, 0, 64, 66
2, 43612, Control_c, 0, 64, 67
2, 43635, Control_c, 0, 64, 68
2, 43651, Control_c, 0, 64, 69
2, 43669, Control_c, 0, 64, 70
2, 43690, Control_c, 0, 64, 72
2, 43696, Note_on_c, 0, 63, 0
2, 43709, Control_c, 0, 64, 75
2, 43715, Note_on_c, 0, 64, 76
2, 43730, Control_c, 0, 64, 77
2, 43746, Control_c, 0, 64, 78
2, 43768, Control_c, 0, 64, 80
2, 43786, Control_c, 0, 64, 81
2, 43901, Control_c, 0, 64, 78
2, 43921, Control_c, 0, 64, 75
2, 43941, Control_c, 0, 64, 70
2, 43950, Note_on_c, 0, 56, 0
2, 43959, Note_on_c, 0, 64, 0
2, 43961, Control_c, 0, 64, 65
2, 43961, Note_on_c, 0, 68, 77
2, 43977, Control_c, 0, 64, 61
2, 43977, Note_on_c, 0, 54, 57
2, 44000, Control_c, 0, 64, 59
2, 44017, Control_c, 0, 64, 57
2, 44094, Control_c, 0, 64, 56
2, 44153, Note_on_c, 0, 49, 0
2, 44173, Control_c, 0, 64, 57
2, 44184, Note_on_c, 0, 54, 0
2, 44208, Control_c, 0, 64, 58
2, 44230, Control_c, 0, 64, 59
2, 44230, Note_on_c, 0, 52, 56
2, 44230, Note_on_c, 0, 73, 84
2, 44245, Note_on_c, 0, 68, 0
2, 44246, Control_c, 0, 64, 60
2, 44266, Control_c, 0, 64, 61
2, 44285, Control_c, 0, 64, 62
2, 44363, Control_c, 0, 64, 61
2, 44400, Control_c, 0, 64, 60
2, 44419, Control_c, 0, 64, 59
2, 44440, Control_c, 0, 64, 58
2, 44457, Control_c, 0, 64, 57
2, 44479, Control_c, 0, 64, 55
2, 44485, Note_on_c, 0, 75, 79
2, 44496, Control_c, 0, 64, 54
2, 44500, Note_on_c, 0, 52, 0
2, 44510, Note_on_c, 0, 73, 0
2, 44513, Note_on_c, 0, 47, 49
2, 44517, Control_c, 0, 64, 53
2, 44534, Control_c, 0, 64, 52
2, 44552, Control_c, 0, 64, 50
2, 44572, Control_c, 0, 64, 48
2, 44759, Note_on_c, 0, 46, 46
2, 44759, Note_on_c, 0, 47, 0
2, 44785, Control_c, 0, 64, 47
2, 44785, Note_on_c, 0, 75, 0
2, 44807, Note_on_c, 0, 76, 79
2, 44985, Note_on_c, 0, 76, 0
2, 45013, Note_on_c, 0, 79, 86
2, 45017, Control_c, 0, 64, 48
2, 45181, Note_on_c, 0, 78, 90
2, 45187, Control_c, 0, 64, 47
2, 45192, Note_on_c, 0, 79, 0
2, 45226, Control_c, 0, 64, 46
2, 45302, Note_on_c, 0, 46, 0
2, 45307, Control_c, 0, 64, 45
2, 45349, Note_on_c, 0, 49, 49
2, 45354, Note_on_c, 0, 76, 82
2, 45370, Note_on_c, 0, 52, 38
2, 45374, Note_on_c, 0, 78, 0
2, 45437, Control_c, 0, 64, 46
2, 45505, Note_on_c, 0, 76, 0
2, 45529, Note_on_c, 0, 74, 73
2, 45682, Note_on_c, 0, 74, 0
2, 45710, Note_on_c, 0, 73, 73
2, 45881, Note_on_c, 0, 73, 0
2, 45889, Note_on_c, 0, 49, 0
2, 45903, Note_on_c, 0, 71, 61
2, 45907, Note_on_c, 0, 52, 0
2, 45912, Note_on_c, 0, 42, 41
2, 46048, Note_on_c, 0, 71, 0
2, 46076, Note_on_c, 0, 70, 67
2, 46264, Note_on_c, 0, 73, 66
2, 46282, Note_on_c, 0, 70, 0
2, 46415, Control_c, 0, 64, 45
2, 46476, Note_on_c, 0, 73, 0
2, 46493, Note_on_c, 0, 49, 44
2, 46495, Note_on_c, 0, 64, 59
2, 46779, Note_on_c, 0, 42, 0
2, 47076, Note_on_c, 0, 54, 46
2, 47093, Note_on_c, 0, 49, 0
2, 47185, Note_on_c, 0, 64, 0
2, 47204, Note_on_c, 0, 66, 63
2, 47315, Note_on_c, 0, 66, 0
2, 47338, Note_on_c, 0, 64, 69
2, 47451, Note_on_c, 0, 64, 0
2, 47471, Note_on_c, 0, 63, 68
2, 47562, Note_on_c, 0, 63, 0
2, 47626, Note_on_c, 0, 49, 50
2, 47626, Note_on_c, 0, 64, 72
2, 47664, Note_on_c, 0, 64, 0
2, 47932, Control_c, 0, 64, 44
2, 47938, Note_on_c, 0, 64, 71
2, 48222, Control_c, 0, 64, 43
2, 48222, Note_on_c, 0, 49, 0
2, 48240, Note_on_c, 0, 46, 48
2, 48513, Note_on_c, 0, 70, 68
2, 48528, Note_on_c, 0, 64, 0
2, 48603, Control_c, 0, 64, 42
2, 48699, Control_c, 0, 64, 41
2, 48756, Control_c, 0, 64, 39
2, 48776, Control_c, 0, 64, 37
2, 48796, Control_c, 0, 64, 35
2, 48796, Note_on_c, 0, 70, 0
2, 48809, Note_on_c, 0, 71, 59
2, 48814, Control_c, 0, 64, 32
2, 48825, Note_on_c, 0, 42, 40
2, 48834, Control_c, 0, 64, 30
2, 48853, Note_on_c, 0, 46, 0
2, 48854, Control_c, 0, 64, 28
2, 48948, Control_c, 0, 64, 30
2, 48970, Control_c, 0, 64, 35
2, 48985, Control_c, 0, 64, 45
2, 49005, Control_c, 0, 64, 55
2, 49028, Control_c, 0, 64, 62
2, 49045, Control_c, 0, 64, 67
2, 49064, Control_c, 0, 64, 77
2, 49084, Control_c, 0, 64, 127
2, 49102, Note_on_c, 0, 42, 0
2, 49111, Note_on_c, 0, 71, 0
2, 49120, Note_on_c, 0, 73, 62
2, 49174, Note_on_c, 0, 54, 0
2, 49234, Note_on_c, 0, 73, 0
2, 49467, Control_c, 0, 64, 97
2, 49470, Note_on_c, 0, 62, 56
2, 49483, Note_on_c, 0, 47, 40
2, 49487, Control_c, 0, 64, 73
2, 49508, Control_c, 0, 64, 63
2, 49526, Control_c, 0, 64, 54
2, 49544, Control_c, 0, 64, 47
2, 49562, Control_c, 0, 64, 43
2, 49582, Control_c, 0, 64, 40
2, 49603, Control_c, 0, 64, 38
2, 49622, Control_c, 0, 64, 35
2, 49638, Control_c, 0, 64, 33
2, 49698, Control_c, 0, 64, 32
2, 49716, Control_c, 0, 64, 31
2, 49735, Control_c, 0, 64, 30
2, 49779, Note_on_c, 0, 62, 0
2, 49790, Note_on_c, 0, 64, 52
2, 50049, Note_on_c, 0, 64, 0
2, 50066, Note_on_c, 0, 54, 43
2, 50066, Note_on_c, 0, 62, 55
2, 50323, Note_on_c, 0, 62, 0
2, 50345, Note_on_c, 0, 61, 57
2, 50485, Control_c, 0, 64, 31
2, 50543, Control_c, 0, 64, 32
2, 50562, Control_c, 0, 64, 33
2, 50581, Control_c, 0, 64, 34
2, 50585, Note_on_c, 0, 61, 0
2, 50604, Control_c, 0, 64, 35
2, 50604, Note_on_c, 0, 54, 0
2, 50620, Control_c, 0, 64, 36
2, 50620, Note_on_c, 0, 62, 56
2, 50638, Control_c, 0, 64, 39
2, 50645, Note_on_c, 0, 59, 44
2, 50656, Control_c, 0, 64, 44
2, 50676, Control_c, 0, 64, 49
2, 50696, Control_c, 0, 64, 53
2, 50717, Control_c, 0, 64, 56
2, 50732, Control_c, 0, 64, 57
2, 50849, Control_c, 0, 64, 56
2, 50879, Note_on_c, 0, 62, 0
2, 50881, Note_on_c, 0, 66, 72
2, 50890, Control_c, 0, 64, 55
2, 50907, Control_c, 0, 64, 54
2, 50928, Note_on_c, 0, 54, 52
2, 50932, Control_c, 0, 64, 53
2, 50944, Control_c, 0, 64, 51
2, 50956, Note_on_c, 0, 59, 0
2, 50967, Control_c, 0, 64, 48
2, 50986, Control_c, 0, 64, 45
2, 51005, Control_c, 0, 64, 43
2, 51021, Control_c, 0, 64, 42
2, 51041, Control_c, 0, 64, 41
2, 51060, Control_c, 0, 64, 39
2, 51080, Control_c, 0, 64, 37
2, 51098, Control_c, 0, 64, 34
2, 51120, Control_c, 0, 64, 33
2, 51138, Control_c, 0, 64, 32
2, 51160, Note_on_c, 0, 66, 0
2, 51160, Note_on_c, 0, 71, 75
2, 51171, Note_on_c, 0, 54, 0
2, 51176, Note_on_c, 0, 50, 50
2, 51207, Note_on_c, 0, 47, 0
2, 51331, Control_c, 0, 64, 33
2, 51349, Control_c, 0, 64, 35
2, 51368, Control_c, 0, 64, 38
2, 51386, Control_c, 0, 64, 42
2, 51406, Control_c, 0, 64, 49
2, 51426, Control_c, 0, 64, 56
2, 51431, Note_on_c, 0, 50, 0
2, 51431, Note_on_c, 0, 73, 81
2, 51445, Control_c, 0, 64, 60
2, 51445, Note_on_c, 0, 54, 61
2, 51449, Note_on_c, 0, 71, 0
2, 51463, Control_c, 0, 64, 63
2, 51486, Control_c, 0, 64, 64
2, 51504, Control_c, 0, 64, 65
2, 51521, Control_c, 0, 64, 67
2, 51541, Control_c, 0, 64, 68
2, 51560, Control_c, 0, 64, 70
2, 51578, Control_c, 0, 64, 72
2, 51597, Control_c, 0, 64, 74
2, 51617, Control_c, 0, 64, 75
2, 51638, Note_on_c, 0, 54, 0
2, 51672, Note_on_c, 0, 73, 0
2, 51693, Note_on_c, 0, 47, 55
2, 51715, Control_c, 0, 64, 74
2, 51719, Note_on_c, 0, 74, 79
2, 51733, Control_c, 0, 64, 72
2, 51752, Control_c, 0, 64, 70
2, 51770, Control_c, 0, 64, 68
2, 51790, Control_c, 0, 64, 66
2, 51809, Control_c, 0, 64, 63
2, 51827, Control_c, 0, 64, 60
2, 51847, Control_c, 0, 64, 58
2, 51870, Control_c, 0, 64, 57
2, 51887, Control_c, 0, 64, 55
2, 51906, Control_c, 0, 64, 54
2, 51927, Control_c, 0, 64, 52
2, 51927, Note_on_c, 0, 47, 0
2, 51927, Note_on_c, 0, 74, 0
2, 51931, Note_on_c, 0, 78, 86
2, 51944, Control_c, 0, 64, 50
2, 51962, Control_c, 0, 64, 48
2, 51984, Note_on_c, 0, 50, 53
2, 52103, Note_on_c, 0, 76, 85
2, 52117, Control_c, 0, 64, 49
2, 52137, Control_c, 0, 64, 50
2, 52163, Note_on_c, 0, 78, 0
2, 52242, Note_on_c, 0, 76, 0
2, 52257, Note_on_c, 0, 44, 57
2, 52257, Note_on_c, 0, 50, 0
2, 52271, Note_on_c, 0, 74, 68
2, 52385, Control_c, 0, 64, 49
2, 52402, Note_on_c, 0, 74, 0
2, 52423, Control_c, 0, 64, 48
2, 52434, Note_on_c, 0, 73, 73
2, 52462, Control_c, 0, 64, 47
2, 52500, Control_c, 0, 64, 46
2, 52522, Control_c, 0, 64, 44
2, 52538, Control_c, 0, 64, 42
2, 52558, Control_c, 0, 64, 39
2, 52578, Control_c, 0, 64, 38
2, 52587, Note_on_c, 0, 44, 0
2, 52599, Note_on_c, 0, 47, 48
2, 52607, Note_on_c, 0, 73, 0
2, 52618, Note_on_c, 0, 71, 72
2, 52635, Control_c, 0, 64, 37
2, 52655, Control_c, 0, 64, 35
2, 52674, Control_c, 0, 64, 33
2, 52748, Note_on_c, 0, 71, 0
2, 52816, Note_on_c, 0, 69, 60
2, 52822, Note_on_c, 0, 47, 0
2, 52850, Note_on_c, 0, 40, 37
2, 52962, Note_on_c, 0, 69, 0
2, 52995, Note_on_c, 0, 68, 69
2, 53149, Note_on_c, 0, 68, 0
2, 53165, Note_on_c, 0, 71, 68
2, 53369, Note_on_c, 0, 71, 0
2, 53380, Note_on_c, 0, 62, 59
2, 53402, Note_on_c, 0, 47, 40
2, 53516, Note_on_c, 0, 40, 0
2, 53539, Control_c, 0, 64, 32
2, 53891, Note_on_c, 0, 47, 0
2, 53944, Note_on_c, 0, 52, 43
2, 54047, Note_on_c, 0, 62, 0
2, 54072, Note_on_c, 0, 64, 62
2, 54160, Note_on_c, 0, 64, 0
2, 54190, Note_on_c, 0, 62, 69
2, 54305, Note_on_c, 0, 62, 0
2, 54323, Note_on_c, 0, 61, 62
2, 54472, Note_on_c, 0, 47, 39
2, 54476, Note_on_c, 0, 62, 71
2, 54482, Note_on_c, 0, 61, 0
2, 54515, Note_on_c, 0, 62, 0
2, 54787, Note_on_c, 0, 62, 66
2, 55070, Note_on_c, 0, 44, 49
2, 55106, Note_on_c, 0, 47, 0
2, 55332, Note_on_c, 0, 62, 0
2, 55332, Note_on_c, 0, 68, 65
2, 55341, Control_c, 0, 64, 31
2, 55361, Control_c, 0, 64, 30
2, 55398, Control_c, 0, 64, 29
2, 55418, Control_c, 0, 64, 26
2, 55438, Control_c, 0, 64, 18
2, 55460, Control_c, 0, 64, 0
2, 55632, Note_on_c, 0, 68, 0
2, 55634, Note_on_c, 0, 69, 53
2, 55654, Note_on_c, 0, 40, 23
2, 55663, Note_on_c, 0, 44, 0
2, 55820, Control_c, 0, 64, 40
2, 55843, Control_c, 0, 64, 56
2, 55863, Control_c, 0, 64, 64
2, 55879, Control_c, 0, 64, 69
2, 55897, Control_c, 0, 64, 78
2, 55917, Control_c, 0, 64, 97
2, 55928, Note_on_c, 0, 40, 0
2, 55940, Control_c, 0, 64, 127
2, 55955, Note_on_c, 0, 69, 0
2, 55966, Note_on_c, 0, 71, 58
2, 56051, Note_on_c, 0, 71, 0
2, 56126, Note_on_c, 0, 52, 0
2, 56324, Control_c, 0, 64, 98
2, 56340, Control_c, 0, 64, 81
2, 56344, Note_on_c, 0, 45, 38
2, 56359, Control_c, 0, 64, 68
2, 56367, Note_on_c, 0, 61, 49
2, 56378, Control_c, 0, 64, 61
2, 56398, Control_c, 0, 64, 54
2, 56416, Control_c, 0, 64, 47
2, 56436, Control_c, 0, 64, 40
2, 56457, Control_c, 0, 64, 36
2, 56474, Control_c, 0, 64, 33
2, 56495, Control_c, 0, 64, 30
2, 56516, Control_c, 0, 64, 29
2, 56534, Control_c, 0, 64, 27
2, 56554, Control_c, 0, 64, 24
2, 56572, Control_c, 0, 64, 23
2, 56666, Control_c, 0, 64, 22
2, 56687, Note_on_c, 0, 62, 60
2, 56713, Note_on_c, 0, 61, 0
2, 56959, Note_on_c, 0, 62, 0
2, 56978, Note_on_c, 0, 61, 55
2, 56983, Note_on_c, 0, 52, 43
2, 57204, Control_c, 0, 64, 21
2, 57249, Note_on_c, 0, 61, 0
2, 57260, Note_on_c, 0, 59, 60
2, 57461, Note_on_c, 0, 52, 0
2, 57483, Note_on_c, 0, 45, 0
2, 57516, Note_on_c, 0, 59, 0
2, 57530, Note_on_c, 0, 61, 58
2, 57533, Note_on_c, 0, 57, 46
2, 57785, Note_on_c, 0, 61, 0
2, 57801, Note_on_c, 0, 64, 70
2, 58040, Note_on_c, 0, 64, 0
2, 58047, Note_on_c, 0, 57, 0
2, 58063, Note_on_c, 0, 69, 67
2, 58080, Note_on_c, 0, 56, 36
2, 58338, Note_on_c, 0, 71, 74
2, 58380, Note_on_c, 0, 69, 0
2, 58653, Note_on_c, 0, 56, 0
2, 58665, Note_on_c, 0, 57, 41
2, 58690, Note_on_c, 0, 71, 0
2, 58695, Note_on_c, 0, 73, 62
2, 58988, Note_on_c, 0, 52, 44
2, 59143, Control_c, 0, 64, 22
2, 59181, Control_c, 0, 64, 23
2, 59221, Control_c, 0, 64, 25
2, 59225, Note_on_c, 0, 52, 0
2, 59231, Note_on_c, 0, 49, 50
2, 59238, Control_c, 0, 64, 30
2, 59260, Control_c, 0, 64, 38
2, 59279, Control_c, 0, 64, 47
2, 59297, Control_c, 0, 64, 56
2, 59318, Control_c, 0, 64, 61
2, 59336, Control_c, 0, 64, 64
2, 59356, Control_c, 0, 64, 65
2, 59373, Control_c, 0, 64, 67
2, 59392, Control_c, 0, 64, 72
2, 59412, Control_c, 0, 64, 81
2, 59432, Control_c, 0, 64, 100
2, 59450, Control_c, 0, 64, 127
2, 59499, Note_on_c, 0, 49, 0
2, 59503, Note_on_c, 0, 45, 59
2, 59548, Note_on_c, 0, 45, 0
2, 59773, Note_on_c, 0, 57, 0
2, 59799, Control_c, 0, 64, 84
2, 59806, Note_on_c, 0, 50, 54
2, 59817, Control_c, 0, 64, 70
2, 59836, Control_c, 0, 64, 61
2, 59854, Control_c, 0, 64, 54
2, 59872, Control_c, 0, 64, 49
2, 59892, Control_c, 0, 64, 46
2, 59911, Control_c, 0, 64, 45
2, 59934, Control_c, 0, 64, 44
2, 59952, Control_c, 0, 64, 43
2, 59970, Control_c, 0, 64, 41
2, 59988, Control_c, 0, 64, 40
2, 60008, Control_c, 0, 64, 39
2, 60054, Note_on_c, 0, 73, 0
2, 60074, Note_on_c, 0, 67, 71
2, 60199, Control_c, 0, 64, 38
2, 60278, Control_c, 0, 64, 37
2, 60294, Control_c, 0, 64, 36
2, 60303, Note_on_c, 0, 67, 0
2, 60314, Control_c, 0, 64, 35
2, 60334, Control_c, 0, 64, 34
2, 60343, Note_on_c, 0, 66, 68
2, 60368, Note_on_c, 0, 57, 46
2, 60374, Control_c, 0, 64, 33
2, 60392, Control_c, 0, 64, 32
2, 60411, Control_c, 0, 64, 31
2, 60433, Control_c, 0, 64, 29
2, 60450, Control_c, 0, 64, 28
2, 60469, Control_c, 0, 64, 27
2, 60486, Control_c, 0, 64, 26
2, 60506, Control_c, 0, 64, 25
2, 60528, Control_c, 0, 64, 23
2, 60546, Control_c, 0, 64, 22
2, 60584, Control_c, 0, 64, 20
2, 60603, Control_c, 0, 64, 17
2, 60621, Note_on_c, 0, 64, 75
2, 60626, Control_c, 0, 64, 10
2, 60630, Note_on_c, 0, 66, 0
2, 60641, Control_c, 0, 64, 0
2, 60817, Control_c, 0, 64, 10
2, 60833, Control_c, 0, 64, 21
2, 60855, Control_c, 0, 64, 34
2, 60871, Control_c, 0, 64, 46
2, 60885, Note_on_c, 0, 66, 75
2, 60894, Control_c, 0, 64, 57
2, 60894, Note_on_c, 0, 62, 40
2, 60904, Note_on_c, 0, 64, 0
2, 60912, Control_c, 0, 64, 65
2, 60928, Control_c, 0, 64, 72
2, 60952, Control_c, 0, 64, 86
2, 60956, Note_on_c, 0, 57, 0
2, 60956, Note_on_c, 0, 62, 0
2, 60968, Control_c, 0, 64, 127
2, 61110, Note_on_c, 0, 66, 0
2, 61137, Note_on_c, 0, 69, 79
2, 61390, Note_on_c, 0, 69, 0
2, 61410, Control_c, 0, 64, 120
2, 61414, Note_on_c, 0, 74, 85
2, 61430, Control_c, 0, 64, 88
2, 61433, Note_on_c, 0, 54, 52
2, 61433, Note_on_c, 0, 57, 49
2, 61439, Note_on_c, 0, 50, 0
2, 61448, Control_c, 0, 64, 71
2, 61468, Control_c, 0, 64, 64
2, 61486, Control_c, 0, 64, 58
2, 61504, Control_c, 0, 64, 55
2, 61523, Control_c, 0, 64, 54
2, 61582, Control_c, 0, 64, 53
2, 61600, Control_c, 0, 64, 51
2, 61621, Control_c, 0, 64, 50
2, 61639, Control_c, 0, 64, 49
2, 61673, Note_on_c, 0, 76, 89
2, 61678, Control_c, 0, 64, 50
2, 61717, Control_c, 0, 64, 49
2, 61734, Note_on_c, 0, 74, 0
2, 61832, Control_c, 0, 64, 48
2, 61850, Control_c, 0, 64, 47
2, 61863, Note_on_c, 0, 57, 0
2, 61870, Control_c, 0, 64, 46
2, 61888, Control_c, 0, 64, 45
2, 61907, Control_c, 0, 64, 43
2, 61927, Control_c, 0, 64, 41
2, 61946, Control_c, 0, 64, 39
2, 61966, Control_c, 0, 64, 38
2, 62012, Note_on_c, 0, 78, 70
2, 62014, Note_on_c, 0, 76, 0
2, 62019, Note_on_c, 0, 51, 43
2, 62022, Control_c, 0, 64, 37
2, 62061, Control_c, 0, 64, 38
2, 62084, Control_c, 0, 64, 41
2, 62101, Control_c, 0, 64, 44
2, 62120, Control_c, 0, 64, 47
2, 62139, Control_c, 0, 64, 51
2, 62157, Control_c, 0, 64, 55
2, 62180, Control_c, 0, 64, 59
2, 62196, Control_c, 0, 64, 62
2, 62217, Control_c, 0, 64, 64
2, 62235, Control_c, 0, 64, 66
2, 62253, Control_c, 0, 64, 69
2, 62266, Note_on_c, 0, 54, 0
2, 62273, Control_c, 0, 64, 74
2, 62295, Control_c, 0, 64, 87
2, 62313, Control_c, 0, 64, 113
2, 62324, Note_on_c, 0, 57, 43
2, 62330, Control_c, 0, 64, 127
2, 62544, Note_on_c, 0, 51, 0
2, 62588, Note_on_c, 0, 47, 53
2, 62599, Control_c, 0, 64, 91
2, 62621, Control_c, 0, 64, 71
2, 62639, Control_c, 0, 64, 62
2, 62656, Control_c, 0, 64, 58
2, 62678, Control_c, 0, 64, 60
2, 62698, Control_c, 0, 64, 64
2, 62716, Control_c, 0, 64, 68
2, 62734, Control_c, 0, 64, 76
2, 62755, Control_c, 0, 64, 91
2, 62772, Control_c, 0, 64, 127
2, 62814, Note_on_c, 0, 57, 0
2, 62855, Note_on_c, 0, 51, 60
2, 62862, Note_on_c, 0, 47, 0
2, 62900, Note_on_c, 0, 51, 0
2, 63174, Control_c, 0, 64, 91
2, 63190, Note_on_c, 0, 56, 52
2, 63194, Control_c, 0, 64, 74
2, 63203, Note_on_c, 0, 52, 41
2, 63214, Control_c, 0, 64, 64
2, 63234, Control_c, 0, 64, 56
2, 63252, Control_c, 0, 64, 49
2, 63271, Control_c, 0, 64, 46
2, 63290, Control_c, 0, 64, 45
2, 63309, Control_c, 0, 64, 44
2, 63327, Control_c, 0, 64, 43
2, 63346, Control_c, 0, 64, 41
2, 63442, Note_on_c, 0, 78, 0
2, 63451, Note_on_c, 0, 69, 70
2, 63693, Note_on_c, 0, 69, 0
2, 63734, Note_on_c, 0, 68, 70
2, 63755, Control_c, 0, 64, 40
2, 63755, Note_on_c, 0, 59, 48
2, 63770, Control_c, 0, 64, 39
2, 63808, Control_c, 0, 64, 38
2, 63848, Control_c, 0, 64, 37
2, 63889, Control_c, 0, 64, 36
2, 63905, Control_c, 0, 64, 34
2, 63924, Control_c, 0, 64, 31
2, 63944, Control_c, 0, 64, 29
2, 63963, Control_c, 0, 64, 28
2, 64001, Control_c, 0, 64, 27
2, 64006, Note_on_c, 0, 66, 75
2, 64010, Note_on_c, 0, 68, 0
2, 64022, Control_c, 0, 64, 25
2, 64041, Control_c, 0, 64, 23
2, 64059, Control_c, 0, 64, 22
2, 64078, Control_c, 0, 64, 21
2, 64098, Control_c, 0, 64, 20
2, 64117, Control_c, 0, 64, 18
2, 64134, Control_c, 0, 64, 17
2, 64205, Note_on_c, 0, 59, 0
2, 64270, Control_c, 0, 64, 18
2, 64278, Note_on_c, 0, 68, 75
2, 64291, Control_c, 0, 64, 23
2, 64296, Note_on_c, 0, 66, 0
2, 64297, Note_on_c, 0, 64, 42
2, 64310, Control_c, 0, 64, 31
2, 64329, Control_c, 0, 64, 40
2, 64346, Control_c, 0, 64, 50
2, 64365, Control_c, 0, 64, 58
2, 64386, Control_c, 0, 64, 63
2, 64406, Control_c, 0, 64, 65
2, 64425, Control_c, 0, 64, 66
2, 64441, Control_c, 0, 64, 67
2, 64462, Control_c, 0, 64, 69
2, 64480, Control_c, 0, 64, 73
2, 64497, Note_on_c, 0, 68, 0
2, 64501, Control_c, 0, 64, 77
2, 64519, Control_c, 0, 64, 81
2, 64522, Note_on_c, 0, 71, 74
2, 64539, Control_c, 0, 64, 84
2, 64552, Note_on_c, 0, 56, 0
2, 64557, Control_c, 0, 64, 86
2, 64575, Control_c, 0, 64, 87
2, 64750, Control_c, 0, 64, 86
2, 64767, Control_c, 0, 64, 83
2, 64772, Note_on_c, 0, 71, 0
2, 64790, Control_c, 0, 64, 77
2, 64794, Note_on_c, 0, 76, 89
2, 64810, Control_c, 0, 64, 69
2, 64810, Note_on_c, 0, 59, 51
2, 64828, Control_c, 0, 64, 63
2, 64846, Control_c, 0, 64, 58
2, 64848, Note_on_c, 0, 64, 0
2, 64866, Control_c, 0, 64, 55
2, 64885, Control_c, 0, 64, 52
2, 64903, Control_c, 0, 64, 49
2, 64922, Control_c, 0, 64, 46
2, 64944, Control_c, 0, 64, 42
2, 64964, Control_c, 0, 64, 38
2, 64979, Control_c, 0, 64, 36
2, 65021, Control_c, 0, 64, 35
2, 65036, Control_c, 0, 64, 34
2, 65056, Control_c, 0, 64, 32
2, 65067, Note_on_c, 0, 80, 87
2, 65076, Control_c, 0, 64, 31
2, 65094, Control_c, 0, 64, 30
2, 65102, Note_on_c, 0, 76, 0
2, 65115, Control_c, 0, 64, 29
2, 65153, Control_c, 0, 64, 28
2, 65193, Control_c, 0, 64, 27
2, 65250, Control_c, 0, 64, 26
2, 65287, Control_c, 0, 64, 25
2, 65349, Control_c, 0, 64, 24
2, 65382, Note_on_c, 0, 80, 0
2, 65393, Note_on_c, 0, 83, 65
2, 65404, Note_on_c, 0, 56, 49
2, 65441, Control_c, 0, 64, 26
2, 65454, Note_on_c, 0, 52, 0
2, 65460, Control_c, 0, 64, 33
2, 65474, Note_on_c, 0, 59, 0
2, 65478, Control_c, 0, 64, 43
2, 65499, Control_c, 0, 64, 53
2, 65516, Control_c, 0, 64, 61
2, 65536, Control_c, 0, 64, 64
2, 65555, Control_c, 0, 64, 67
2, 65574, Control_c, 0, 64, 72
2, 65595, Control_c, 0, 64, 78
2, 65615, Control_c, 0, 64, 86
2, 65635, Control_c, 0, 64, 95
2, 65651, Control_c, 0, 64, 104
2, 65663, Note_on_c, 0, 83, 0
2, 65672, Control_c, 0, 64, 116
2, 65691, Control_c, 0, 64, 127
2, 65694, Note_on_c, 0, 74, 54
2, 65843, Control_c, 0, 64, 115
2, 65864, Control_c, 0, 64, 102
2, 65883, Control_c, 0, 64, 92
2, 65902, Control_c, 0, 64, 80
2, 65920, Control_c, 0, 64, 68
2, 65942, Control_c, 0, 64, 60
2, 65959, Control_c, 0, 64, 51
2, 65959, Note_on_c, 0, 74, 0
2, 65978, Control_c, 0, 64, 43
2, 65991, Note_on_c, 0, 52, 39
2, 65991, Note_on_c, 0, 73, 57
2, 65994, Note_on_c, 0, 56, 0
2, 65997, Control_c, 0, 64, 39
2, 66037, Control_c, 0, 64, 41
2, 66058, Control_c, 0, 64, 44
2, 66073, Control_c, 0, 64, 49
2, 66093, Control_c, 0, 64, 55
2, 66115, Control_c, 0, 64, 60
2, 66134, Control_c, 0, 64, 64
2, 66151, Control_c, 0, 64, 66
2, 66170, Control_c, 0, 64, 69
2, 66190, Control_c, 0, 64, 76
2, 66209, Control_c, 0, 64, 90
2, 66230, Control_c, 0, 64, 127
2, 66238, Note_on_c, 0, 52, 0
2, 66263, Note_on_c, 0, 73, 0
2, 66292, Note_on_c, 0, 71, 52
2, 66574, Control_c, 0, 64, 108
2, 66593, Control_c, 0, 64, 84
2, 66613, Control_c, 0, 64, 69
2, 66630, Control_c, 0, 64, 61
2, 66641, Note_on_c, 0, 73, 49
2, 66652, Control_c, 0, 64, 55
2, 66652, Note_on_c, 0, 45, 30
2, 66670, Note_on_c, 0, 57, 29
2, 66675, Control_c, 0, 64, 51
2, 66679, Note_on_c, 0, 71, 0
2, 66688, Control_c, 0, 64, 47
2, 66709, Control_c, 0, 64, 45
2, 66745, Control_c, 0, 64, 46
2, 66765, Control_c, 0, 64, 50
2, 66784, Control_c, 0, 64, 56
2, 66805, Control_c, 0, 64, 61
2, 66822, Control_c, 0, 64, 63
2, 66844, Control_c, 0, 64, 64
2, 66863, Control_c, 0, 64, 65
2, 66874, Note_on_c, 0, 57, 0
2, 66883, Control_c, 0, 64, 67
2, 66899, Control_c, 0, 64, 72
2, 66919, Control_c, 0, 64, 79
2, 66939, Control_c, 0, 64, 92
2, 66958, Control_c, 0, 64, 116
2, 66982, Control_c, 0, 64, 127
2, 66982, Note_on_c, 0, 73, 0
2, 66982, Note_on_c, 0, 78, 58
2, 67247, Control_c, 0, 64, 112
2, 67263, Control_c, 0, 64, 87
2, 67285, Control_c, 0, 64, 71
2, 67290, Note_on_c, 0, 47, 41
2, 67294, Note_on_c, 0, 56, 39
2, 67294, Note_on_c, 0, 76, 61
2, 67308, Control_c, 0, 64, 62
2, 67308, Note_on_c, 0, 78, 0
2, 67317, Note_on_c, 0, 45, 0
2, 67321, Control_c, 0, 64, 55
2, 67343, Control_c, 0, 64, 50
2, 67381, Control_c, 0, 64, 52
2, 67401, Control_c, 0, 64, 55
2, 67418, Control_c, 0, 64, 58
2, 67438, Control_c, 0, 64, 61
2, 67458, Control_c, 0, 64, 63
2, 67476, Control_c, 0, 64, 65
2, 67494, Control_c, 0, 64, 66
2, 67513, Control_c, 0, 64, 69
2, 67534, Control_c, 0, 64, 73
2, 67551, Control_c, 0, 64, 78
2, 67567, Note_on_c, 0, 76, 0
2, 67571, Note_on_c, 0, 75, 70
2, 67575, Control_c, 0, 64, 84
2, 67591, Control_c, 0, 64, 90
2, 67611, Control_c, 0, 64, 95
2, 67629, Control_c, 0, 64, 97
2, 67648, Control_c, 0, 64, 98
2, 67706, Note_on_c, 0, 56, 0
2, 67745, Control_c, 0, 64, 97
2, 67803, Control_c, 0, 64, 96
2, 67821, Control_c, 0, 64, 95
2, 67841, Control_c, 0, 64, 92
2, 67857, Note_on_c, 0, 49, 47
2, 67860, Control_c, 0, 64, 85
2, 67864, Note_on_c, 0, 76, 66
2, 67871, Note_on_c, 0, 75, 0
2, 67880, Control_c, 0, 64, 77
2, 67888, Note_on_c, 0, 47, 0
2, 67897, Control_c, 0, 64, 69
2, 67919, Control_c, 0, 64, 62
2, 67939, Control_c, 0, 64, 56
2, 67957, Control_c, 0, 64, 52
2, 67996, Control_c, 0, 64, 54
2, 68012, Control_c, 0, 64, 57
2, 68034, Control_c, 0, 64, 61
2, 68052, Control_c, 0, 64, 63
2, 68070, Control_c, 0, 64, 66
2, 68090, Control_c, 0, 64, 68
2, 68098, Note_on_c, 0, 49, 0
2, 68111, Control_c, 0, 64, 72
2, 68129, Control_c, 0, 64, 75
2, 68149, Control_c, 0, 64, 79
2, 68149, Note_on_c, 0, 73, 70
2, 68167, Control_c, 0, 64, 83
2, 68171, Note_on_c, 0, 57, 51
2, 68188, Control_c, 0, 64, 88
2, 68206, Control_c, 0, 64, 91
2, 68226, Control_c, 0, 64, 93
2, 68244, Control_c, 0, 64, 94
2, 68305, Note_on_c, 0, 76, 0
2, 68339, Control_c, 0, 64, 90
2, 68354, Note_on_c, 0, 57, 0
2, 68359, Control_c, 0, 64, 83
2, 68379, Control_c, 0, 64, 73
2, 68398, Control_c, 0, 64, 65
2, 68410, Note_on_c, 0, 71, 68
2, 68417, Control_c, 0, 64, 59
2, 68417, Note_on_c, 0, 50, 47
2, 68421, Note_on_c, 0, 73, 0
2, 68438, Control_c, 0, 64, 54
2, 68459, Control_c, 0, 64, 50
2, 68476, Control_c, 0, 64, 47
2, 68513, Control_c, 0, 64, 49
2, 68532, Control_c, 0, 64, 52
2, 68551, Control_c, 0, 64, 55
2, 68569, Control_c, 0, 64, 58
2, 68588, Control_c, 0, 64, 61
2, 68611, Control_c, 0, 64, 64
2, 68622, Note_on_c, 0, 50, 0
2, 68629, Control_c, 0, 64, 66
2, 68649, Control_c, 0, 64, 68
2, 68649, Note_on_c, 0, 71, 0
2, 68664, Note_on_c, 0, 69, 59
2, 68668, Control_c, 0, 64, 73
2, 68687, Control_c, 0, 64, 79
2, 68697, Note_on_c, 0, 59, 52
2, 68706, Control_c, 0, 64, 88
2, 68723, Control_c, 0, 64, 99
2, 68745, Control_c, 0, 64, 110
2, 68762, Control_c, 0, 64, 113
2, 68839, Control_c, 0, 64, 110
2, 68857, Control_c, 0, 64, 105
2, 68870, Note_on_c, 0, 69, 0
2, 68876, Control_c, 0, 64, 97
2, 68885, Note_on_c, 0, 59, 0
2, 68899, Control_c, 0, 64, 86
2, 68916, Control_c, 0, 64, 76
2, 68931, Note_on_c, 0, 73, 67
2, 68936, Control_c, 0, 64, 68
2, 68955, Control_c, 0, 64, 63
2, 68960, Note_on_c, 0, 52, 50
2, 68972, Control_c, 0, 64, 59
2, 68992, Control_c, 0, 64, 54
2, 69012, Control_c, 0, 64, 49
2, 69030, Control_c, 0, 64, 44
2, 69148, Control_c, 0, 64, 47
2, 69165, Note_on_c, 0, 52, 0
2, 69169, Control_c, 0, 64, 53
2, 69185, Control_c, 0, 64, 58
2, 69205, Control_c, 0, 64, 61
2, 69223, Note_on_c, 0, 57, 42
2, 69228, Control_c, 0, 64, 62
2, 69243, Control_c, 0, 64, 63
2, 69250, Note_on_c, 0, 64, 11
2, 69262, Control_c, 0, 64, 64
2, 69281, Control_c, 0, 64, 65
2, 69299, Control_c, 0, 64, 66
2, 69321, Control_c, 0, 64, 68
2, 69337, Control_c, 0, 64, 69
2, 69359, Control_c, 0, 64, 70
2, 69378, Control_c, 0, 64, 71
2, 69416, Control_c, 0, 64, 70
2, 69437, Control_c, 0, 64, 68
2, 69442, Note_on_c, 0, 57, 0
2, 69452, Control_c, 0, 64, 64
2, 69475, Control_c, 0, 64, 60
2, 69475, Note_on_c, 0, 52, 50
2, 69486, Note_on_c, 0, 64, 0
2, 69492, Control_c, 0, 64, 55
2, 69492, Note_on_c, 0, 71, 65
2, 69511, Control_c, 0, 64, 51
2, 69529, Control_c, 0, 64, 47
2, 69538, Note_on_c, 0, 73, 0
2, 69551, Control_c, 0, 64, 44
2, 69588, Control_c, 0, 64, 47
2, 69607, Control_c, 0, 64, 54
2, 69628, Control_c, 0, 64, 60
2, 69645, Control_c, 0, 64, 63
2, 69663, Control_c, 0, 64, 64
2, 69702, Control_c, 0, 64, 65
2, 69722, Control_c, 0, 64, 66
2, 69731, Note_on_c, 0, 71, 0
2, 69744, Control_c, 0, 64, 67
2, 69750, Note_on_c, 0, 52, 0
2, 69760, Control_c, 0, 64, 69
2, 69760, Note_on_c, 0, 56, 45
2, 69769, Note_on_c, 0, 62, 55
2, 69783, Control_c, 0, 64, 73
2, 69799, Control_c, 0, 64, 77
2, 69818, Control_c, 0, 64, 82
2, 69840, Control_c, 0, 64, 86
2, 69857, Control_c, 0, 64, 89
2, 69874, Control_c, 0, 64, 90
2, 69934, Control_c, 0, 64, 89
2, 69952, Control_c, 0, 64, 83
2, 69973, Control_c, 0, 64, 74
2, 69991, Control_c, 0, 64, 64
2, 69995, Note_on_c, 0, 62, 0
2, 70009, Control_c, 0, 64, 57
2, 70018, Note_on_c, 0, 56, 0
2, 70030, Control_c, 0, 64, 50
2, 70042, Note_on_c, 0, 61, 56
2, 70048, Control_c, 0, 64, 43
2, 70061, Note_on_c, 0, 57, 43
2, 70072, Control_c, 0, 64, 39
2, 70088, Control_c, 0, 64, 38
2, 70109, Control_c, 0, 64, 40
2, 70126, Control_c, 0, 64, 45
2, 70144, Control_c, 0, 64, 50
2, 70163, Control_c, 0, 64, 56
2, 70183, Control_c, 0, 64, 59
2, 70204, Control_c, 0, 64, 60
2, 70221, Control_c, 0, 64, 61
2, 70229, Note_on_c, 0, 61, 0
2, 70262, Control_c, 0, 64, 60
2, 70322, Note_on_c, 0, 64, 65
2, 70376, Control_c, 0, 64, 59
2, 70416, Control_c, 0, 64, 58
2, 70434, Control_c, 0, 64, 57
2, 70453, Control_c, 0, 64, 55
2, 70473, Control_c, 0, 64, 54
2, 70490, Control_c, 0, 64, 52
2, 70511, Control_c, 0, 64, 51
2, 70528, Control_c, 0, 64, 50
2, 70567, Control_c, 0, 64, 49
2, 70587, Control_c, 0, 64, 47
2, 70600, Note_on_c, 0, 64, 0
2, 70604, Control_c, 0, 64, 46
2, 70625, Control_c, 0, 64, 44
2, 70625, Note_on_c, 0, 69, 58
2, 70643, Control_c, 0, 64, 43
2, 70701, Control_c, 0, 64, 42
2, 70722, Control_c, 0, 64, 41
2, 70741, Control_c, 0, 64, 39
2, 70758, Control_c, 0, 64, 38
2, 70798, Control_c, 0, 64, 37
2, 70836, Control_c, 0, 64, 36
2, 70855, Control_c, 0, 64, 35
2, 70903, Note_on_c, 0, 52, 46
2, 70933, Note_on_c, 0, 57, 0
2, 71186, Note_on_c, 0, 49, 50
2, 71201, Note_on_c, 0, 52, 0
2, 71259, Control_c, 0, 64, 36
2, 71431, Note_on_c, 0, 49, 0
2, 71435, Note_on_c, 0, 64, 70
2, 71468, Note_on_c, 0, 45, 46
2, 71533, Note_on_c, 0, 69, 0
2, 71698, Note_on_c, 0, 69, 59
2, 71729, Note_on_c, 0, 64, 0
2, 71738, Note_on_c, 0, 49, 47
2, 71806, Note_on_c, 0, 45, 0
2, 72002, Note_on_c, 0, 71, 61
2, 72030, Note_on_c, 0, 52, 44
2, 72030, Note_on_c, 0, 69, 0
2, 72035, Note_on_c, 0, 49, 0
2, 72249, Note_on_c, 0, 52, 0
2, 72286, Note_on_c, 0, 73, 61
2, 72303, Note_on_c, 0, 71, 0
2, 72310, Note_on_c, 0, 57, 49
2, 72411, Control_c, 0, 64, 37
2, 72569, Note_on_c, 0, 73, 0
2, 72578, Note_on_c, 0, 69, 47
2, 72794, Control_c, 0, 64, 36
2, 72840, Note_on_c, 0, 69, 0
2, 72854, Control_c, 0, 64, 35
2, 72869, Note_on_c, 0, 57, 0
2, 72869, Note_on_c, 0, 66, 47
2, 72904, Note_on_c, 0, 60, 33
2, 72928, Control_c, 0, 64, 34
2, 73005, Control_c, 0, 64, 35
2, 73024, Control_c, 0, 64, 37
2, 73043, Control_c, 0, 64, 40
2, 73061, Control_c, 0, 64, 45
2, 73081, Control_c, 0, 64, 51
2, 73101, Control_c, 0, 64, 56
2, 73121, Control_c, 0, 64, 58
2, 73139, Control_c, 0, 64, 60
2, 73158, Control_c, 0, 64, 62
2, 73177, Control_c, 0, 64, 63
2, 73197, Control_c, 0, 64, 65
2, 73201, Note_on_c, 0, 66, 0
2, 73217, Control_c, 0, 64, 67
2, 73232, Note_on_c, 0, 60, 0
2, 73237, Note_on_c, 0, 75, 44
2, 73241, Control_c, 0, 64, 71
2, 73255, Control_c, 0, 64, 78
2, 73274, Control_c, 0, 64, 86
2, 73292, Control_c, 0, 64, 93
2, 73312, Control_c, 0, 64, 97
2, 73332, Control_c, 0, 64, 98
2, 73350, Control_c, 0, 64, 99
2, 73504, Control_c, 0, 64, 98
2, 73542, Control_c, 0, 64, 97
2, 73562, Control_c, 0, 64, 96
2, 73580, Control_c, 0, 64, 94
2, 73599, Control_c, 0, 64, 90
2, 73619, Control_c, 0, 64, 86
2, 73631, Note_on_c, 0, 75, 0
2, 73640, Control_c, 0, 64, 81
2, 73644, Note_on_c, 0, 76, 44
2, 73658, Control_c, 0, 64, 75
2, 73674, Note_on_c, 0, 59, 16
2, 73678, Control_c, 0, 64, 69
2, 73696, Control_c, 0, 64, 64
2, 73718, Control_c, 0, 64, 60
2, 73718, Note_on_c, 0, 55, 27
2, 73734, Control_c, 0, 64, 57
2, 73753, Control_c, 0, 64, 54
2, 73773, Control_c, 0, 64, 51
2, 73795, Control_c, 0, 64, 48
2, 73811, Control_c, 0, 64, 46
2, 73891, Control_c, 0, 64, 47
2, 73929, Control_c, 0, 64, 48
2, 73946, Control_c, 0, 64, 50
2, 73965, Control_c, 0, 64, 53
2, 73985, Control_c, 0, 64, 56
2, 74006, Control_c, 0, 64, 58
2, 74041, Control_c, 0, 64, 59
2, 74073, Note_on_c, 0, 76, 0
2, 74084, Control_c, 0, 64, 60
2, 74114, Note_on_c, 0, 71, 43
2, 74118, Control_c, 0, 64, 61
2, 74138, Control_c, 0, 64, 62
2, 74159, Control_c, 0, 64, 63
2, 74197, Control_c, 0, 64, 64
2, 74233, Control_c, 0, 64, 65
2, 74273, Control_c, 0, 64, 66
2, 74350, Note_on_c, 0, 55, 0
2, 74386, Note_on_c, 0, 57, 32
2, 74401, Note_on_c, 0, 59, 0
2, 74434, Note_on_c, 0, 54, 30
2, 74504, Control_c, 0, 64, 65
2, 74522, Control_c, 0, 64, 64
2, 74539, Control_c, 0, 64, 63
2, 74579, Control_c, 0, 64, 64
2, 74618, Control_c, 0, 64, 65
2, 74636, Control_c, 0, 64, 66
2, 74658, Control_c, 0, 64, 67
2, 74673, Note_on_c, 0, 75, 57
2, 74677, Control_c, 0, 64, 68
2, 74694, Control_c, 0, 64, 70
2, 74717, Control_c, 0, 64, 74
2, 74735, Control_c, 0, 64, 77
2, 74752, Control_c, 0, 64, 81
2, 74772, Note_on_c, 0, 71, 0
2, 74776, Control_c, 0, 64, 85
2, 74792, Control_c, 0, 64, 88
2, 74812, Control_c, 0, 64, 95
2, 74829, Control_c, 0, 64, 100
2, 74848, Control_c, 0, 64, 103
2, 74871, Control_c, 0, 64, 105
2, 74871, Note_on_c, 0, 54, 0
2, 74887, Control_c, 0, 64, 106
2, 75001, Control_c, 0, 64, 104
2, 75023, Control_c, 0, 64, 102
2, 75023, Note_on_c, 0, 55, 32
2, 75030, Note_on_c, 0, 75, 0
2, 75041, Control_c, 0, 64, 97
2, 75041, Note_on_c, 0, 52, 40
2, 75050, Note_on_c, 0, 76, 52
2, 75058, Control_c, 0, 64, 90
2, 75078, Control_c, 0, 64, 78
2, 75098, Control_c, 0, 64, 68
2, 75117, Control_c, 0, 64, 63
2, 75137, Control_c, 0, 64, 59
2, 75156, Control_c, 0, 64, 58
2, 75171, Note_on_c, 0, 57, 0
2, 75213, Control_c, 0, 64, 59
2, 75232, Control_c, 0, 64, 60
2, 75251, Control_c, 0, 64, 62
2, 75270, Control_c, 0, 64, 64
2, 75291, Control_c, 0, 64, 66
2, 75309, Control_c, 0, 64, 68
2, 75328, Control_c, 0, 64, 71
2, 75349, Control_c, 0, 64, 75
2, 75370, Control_c, 0, 64, 81
2, 75387, Control_c, 0, 64, 87
2, 75404, Control_c, 0, 64, 94
2, 75409, Note_on_c, 0, 55, 0
2, 75414, Note_on_c, 0, 71, 55
2, 75427, Control_c, 0, 64, 100
2, 75438, Note_on_c, 0, 76, 0
2, 75443, Control_c, 0, 64, 106
2, 75463, Control_c, 0, 64, 112
2, 75482, Control_c, 0, 64, 120
2, 75501, Control_c, 0, 64, 127
2, 75666, Note_on_c, 0, 59, 52
2, 75674, Note_on_c, 0, 52, 0
2, 75694, Note_on_c, 0, 55, 46
2, 75733, Control_c, 0, 64, 115
2, 75751, Control_c, 0, 64, 96
2, 75770, Control_c, 0, 64, 78
2, 75789, Control_c, 0, 64, 69
2, 75809, Control_c, 0, 64, 64
2, 75828, Control_c, 0, 64, 65
2, 75828, Note_on_c, 0, 59, 0
2, 75845, Control_c, 0, 64, 67
2, 75867, Control_c, 0, 64, 71
2, 75884, Control_c, 0, 64, 78
2, 75904, Control_c, 0, 64, 95
2, 75909, Note_on_c, 0, 75, 72
2, 75923, Control_c, 0, 64, 127
2, 75978, Note_on_c, 0, 71, 0
2, 76154, Control_c, 0, 64, 122
2, 76174, Control_c, 0, 64, 92
2, 76196, Control_c, 0, 64, 73
2, 76206, Note_on_c, 0, 75, 0
2, 76216, Note_on_c, 0, 55, 0
2, 76216, Note_on_c, 0, 61, 38
2, 76221, Control_c, 0, 64, 63
2, 76221, Note_on_c, 0, 76, 69
2, 76223, Note_on_c, 0, 49, 36
2, 76232, Control_c, 0, 64, 58
2, 76249, Control_c, 0, 64, 55
2, 76364, Control_c, 0, 64, 56
2, 76403, Control_c, 0, 64, 57
2, 76480, Control_c, 0, 64, 58
2, 76503, Control_c, 0, 64, 59
2, 76503, Note_on_c, 0, 71, 59
2, 76519, Control_c, 0, 64, 60
2, 76537, Control_c, 0, 64, 61
2, 76615, Control_c, 0, 64, 62
2, 76633, Control_c, 0, 64, 63
2, 76661, Note_on_c, 0, 76, 0
2, 76671, Note_on_c, 0, 61, 0
2, 76692, Control_c, 0, 64, 62
2, 76729, Control_c, 0, 64, 61
2, 76744, Note_on_c, 0, 71, 0
2, 76747, Note_on_c, 0, 70, 59
2, 76751, Control_c, 0, 64, 60
2, 76763, Note_on_c, 0, 54, 45
2, 76771, Control_c, 0, 64, 58
2, 76786, Control_c, 0, 64, 55
2, 76805, Control_c, 0, 64, 52
2, 76826, Control_c, 0, 64, 51
2, 76866, Control_c, 0, 64, 53
2, 76883, Control_c, 0, 64, 54
2, 76903, Control_c, 0, 64, 55
2, 76924, Control_c, 0, 64, 58
2, 76941, Control_c, 0, 64, 60
2, 76961, Control_c, 0, 64, 63
2, 76981, Control_c, 0, 64, 65
2, 76990, Note_on_c, 0, 70, 0
2, 76999, Control_c, 0, 64, 67
2, 77003, Note_on_c, 0, 76, 61
2, 77018, Control_c, 0, 64, 72
2, 77040, Control_c, 0, 64, 77
2, 77058, Control_c, 0, 64, 82
2, 77067, Note_on_c, 0, 49, 0
2, 77076, Control_c, 0, 64, 88
2, 77094, Control_c, 0, 64, 91
2, 77117, Control_c, 0, 64, 94
2, 77133, Control_c, 0, 64, 95
2, 77151, Control_c, 0, 64, 96
2, 77171, Control_c, 0, 64, 97
2, 77182, Note_on_c, 0, 54, 0
2, 77215, Note_on_c, 0, 59, 46
2, 77220, Note_on_c, 0, 76, 0
2, 77228, Control_c, 0, 64, 96
2, 77245, Note_on_c, 0, 74, 64
2, 77247, Control_c, 0, 64, 90
2, 77270, Control_c, 0, 64, 81
2, 77286, Control_c, 0, 64, 69
2, 77292, Note_on_c, 0, 74, 0
2, 77308, Control_c, 0, 64, 62
2, 77329, Control_c, 0, 64, 57
2, 77329, Note_on_c, 0, 76, 73
2, 77346, Control_c, 0, 64, 55
2, 77363, Control_c, 0, 64, 54
2, 77384, Control_c, 0, 64, 53
2, 77397, Note_on_c, 0, 76, 0
2, 77417, Note_on_c, 0, 74, 70
2, 77422, Control_c, 0, 64, 52
2, 77501, Control_c, 0, 64, 51
2, 77518, Control_c, 0, 64, 50
2, 77620, Note_on_c, 0, 74, 0
2, 77629, Note_on_c, 0, 73, 60
2, 77709, Control_c, 0, 64, 49
2, 77904, Control_c, 0, 64, 48
2, 77904, Note_on_c, 0, 71, 56
2, 77904, Note_on_c, 0, 73, 0
2, 78169, Note_on_c, 0, 54, 52
2, 78205, Note_on_c, 0, 59, 0
2, 78434, Note_on_c, 0, 54, 0
2, 78454, Note_on_c, 0, 50, 50
2, 78516, Control_c, 0, 64, 47
2, 78676, Note_on_c, 0, 50, 0
2, 78699, Note_on_c, 0, 66, 68
2, 78723, Note_on_c, 0, 47, 50
2, 78776, Note_on_c, 0, 71, 0
2, 78966, Note_on_c, 0, 47, 0
2, 78968, Note_on_c, 0, 71, 68
2, 78985, Note_on_c, 0, 50, 51
2, 78992, Note_on_c, 0, 66, 0
2, 79235, Note_on_c, 0, 73, 73
2, 79259, Note_on_c, 0, 50, 0
2, 79267, Note_on_c, 0, 54, 56
2, 79296, Note_on_c, 0, 71, 0
2, 79302, Control_c, 0, 64, 46
2, 79499, Note_on_c, 0, 54, 0
2, 79531, Note_on_c, 0, 74, 61
2, 79550, Note_on_c, 0, 73, 0
2, 79552, Control_c, 0, 64, 45
2, 79556, Note_on_c, 0, 59, 47
2, 79669, Control_c, 0, 64, 44
2, 79784, Note_on_c, 0, 74, 0
2, 79817, Note_on_c, 0, 71, 57
2, 79841, Control_c, 0, 64, 43
2, 79993, Control_c, 0, 64, 42
2, 80037, Note_on_c, 0, 59, 0
2, 80057, Note_on_c, 0, 71, 0
2, 80070, Control_c, 0, 64, 41
2, 80088, Note_on_c, 0, 68, 53
2, 80112, Note_on_c, 0, 62, 35
2, 80186, Control_c, 0, 64, 42
2, 80206, Control_c, 0, 64, 46
2, 80225, Control_c, 0, 64, 52
2, 80243, Control_c, 0, 64, 58
2, 80263, Control_c, 0, 64, 62
2, 80280, Control_c, 0, 64, 64
2, 80300, Control_c, 0, 64, 66
2, 80320, Control_c, 0, 64, 69
2, 80341, Control_c, 0, 64, 74
2, 80358, Control_c, 0, 64, 83
2, 80367, Note_on_c, 0, 68, 0
2, 80380, Control_c, 0, 64, 97
2, 80397, Control_c, 0, 64, 127
2, 80408, Note_on_c, 0, 62, 0
2, 80419, Note_on_c, 0, 77, 51
2, 80704, Control_c, 0, 64, 103
2, 80721, Control_c, 0, 64, 88
2, 80741, Control_c, 0, 64, 78
2, 80763, Control_c, 0, 64, 70
2, 80783, Control_c, 0, 64, 64
2, 80783, Note_on_c, 0, 77, 0
2, 80792, Note_on_c, 0, 61, 28
2, 80800, Control_c, 0, 64, 60
2, 80800, Note_on_c, 0, 78, 48
2, 80818, Note_on_c, 0, 57, 40
2, 80822, Control_c, 0, 64, 57
2, 80839, Control_c, 0, 64, 54
2, 80857, Control_c, 0, 64, 51
2, 80877, Control_c, 0, 64, 49
2, 80899, Control_c, 0, 64, 46
2, 80915, Control_c, 0, 64, 44
2, 80935, Control_c, 0, 64, 42
2, 81069, Control_c, 0, 64, 43
2, 81157, Note_on_c, 0, 78, 0
2, 81161, Note_on_c, 0, 73, 59
2, 81163, Control_c, 0, 64, 44
2, 81261, Control_c, 0, 64, 45
2, 81384, Note_on_c, 0, 57, 0
2, 81411, Note_on_c, 0, 59, 41
2, 81416, Note_on_c, 0, 56, 41
2, 81435, Note_on_c, 0, 61, 0
2, 81645, Control_c, 0, 64, 46
2, 81685, Control_c, 0, 64, 47
2, 81689, Note_on_c, 0, 77, 71
2, 81738, Note_on_c, 0, 73, 0
2, 81797, Control_c, 0, 64, 48
2, 81911, Note_on_c, 0, 56, 0
2, 81915, Control_c, 0, 64, 47
2, 81970, Control_c, 0, 64, 46
2, 82004, Note_on_c, 0, 54, 38
2, 82021, Note_on_c, 0, 78, 57
2, 82025, Note_on_c, 0, 57, 41
2, 82038, Note_on_c, 0, 77, 0
2, 82110, Note_on_c, 0, 59, 0
2, 82146, Control_c, 0, 64, 48
2, 82164, Control_c, 0, 64, 51
2, 82182, Control_c, 0, 64, 54
2, 82201, Control_c, 0, 64, 58
2, 82221, Control_c, 0, 64, 60
2, 82241, Control_c, 0, 64, 61
2, 82259, Control_c, 0, 64, 63
2, 82278, Control_c, 0, 64, 64
2, 82298, Control_c, 0, 64, 67
2, 82317, Control_c, 0, 64, 70
2, 82336, Control_c, 0, 64, 77
2, 82356, Control_c, 0, 64, 88
2, 82369, Note_on_c, 0, 73, 66
2, 82375, Control_c, 0, 64, 106
2, 82384, Note_on_c, 0, 57, 0
2, 82392, Control_c, 0, 64, 127
2, 82402, Note_on_c, 0, 78, 0
2, 82629, Note_on_c, 0, 61, 50
2, 82633, Note_on_c, 0, 57, 53
2, 82644, Note_on_c, 0, 54, 0
2, 82825, Note_on_c, 0, 61, 0
2, 82846, Note_on_c, 0, 77, 83
2, 82890, Note_on_c, 0, 73, 0
2, 82970, Control_c, 0, 64, 120
2, 82989, Control_c, 0, 64, 116
2, 83009, Control_c, 0, 64, 112
2, 83029, Control_c, 0, 64, 109
2, 83046, Control_c, 0, 64, 106
2, 83065, Control_c, 0, 64, 101
2, 83086, Control_c, 0, 64, 95
2, 83106, Control_c, 0, 64, 87
2, 83125, Control_c, 0, 64, 77
2, 83142, Control_c, 0, 64, 68
2, 83161, Control_c, 0, 64, 62
2, 83183, Control_c, 0, 64, 57
2, 83185, Note_on_c, 0, 78, 70
2, 83192, Note_on_c, 0, 63, 37
2, 83192, Note_on_c, 0, 77, 0
2, 83199, Control_c, 0, 64, 54
2, 83215, Note_on_c, 0, 51, 44
2, 83220, Control_c, 0, 64, 51
2, 83220, Note_on_c, 0, 57, 0
2, 83242, Control_c, 0, 64, 49
2, 83258, Control_c, 0, 64, 48
2, 83297, Control_c, 0, 64, 50
2, 83317, Control_c, 0, 64, 53
2, 83334, Control_c, 0, 64, 57
2, 83352, Control_c, 0, 64, 61
2, 83372, Control_c, 0, 64, 63
2, 83393, Control_c, 0, 64, 65
2, 83412, Control_c, 0, 64, 67
2, 83431, Control_c, 0, 64, 71
2, 83451, Control_c, 0, 64, 75
2, 83465, Note_on_c, 0, 73, 69
2, 83469, Control_c, 0, 64, 83
2, 83488, Control_c, 0, 64, 93
2, 83508, Control_c, 0, 64, 103
2, 83530, Control_c, 0, 64, 112
2, 83544, Control_c, 0, 64, 120
2, 83565, Control_c, 0, 64, 122
2, 83584, Control_c, 0, 64, 127
2, 83656, Note_on_c, 0, 78, 0
2, 83661, Control_c, 0, 64, 122
2, 83665, Note_on_c, 0, 63, 0
2, 83681, Control_c, 0, 64, 109
2, 83698, Control_c, 0, 64, 92
2, 83715, Note_on_c, 0, 56, 58
2, 83720, Control_c, 0, 64, 76
2, 83724, Note_on_c, 0, 72, 73
2, 83724, Note_on_c, 0, 73, 0
2, 83738, Control_c, 0, 64, 65
2, 83756, Control_c, 0, 64, 58
2, 83774, Control_c, 0, 64, 55
2, 83796, Control_c, 0, 64, 53
2, 83813, Control_c, 0, 64, 52
2, 83912, Control_c, 0, 64, 53
2, 83929, Control_c, 0, 64, 54
2, 83948, Control_c, 0, 64, 56
2, 83968, Note_on_c, 0, 78, 65
2, 83969, Control_c, 0, 64, 58
2, 83986, Control_c, 0, 64, 61
2, 83986, Note_on_c, 0, 72, 0
2, 84008, Control_c, 0, 64, 63
2, 84026, Control_c, 0, 64, 65
2, 84046, Control_c, 0, 64, 67
2, 84062, Control_c, 0, 64, 69
2, 84070, Note_on_c, 0, 51, 0
2, 84083, Control_c, 0, 64, 71
2, 84103, Control_c, 0, 64, 73
2, 84123, Control_c, 0, 64, 75
2, 84140, Control_c, 0, 64, 76
2, 84199, Note_on_c, 0, 56, 0
2, 84206, Note_on_c, 0, 78, 0
2, 84214, Note_on_c, 0, 61, 51
2, 84219, Control_c, 0, 64, 74
2, 84230, Note_on_c, 0, 76, 69
2, 84239, Control_c, 0, 64, 72
2, 84259, Control_c, 0, 64, 68
2, 84275, Control_c, 0, 64, 64
2, 84294, Control_c, 0, 64, 59
2, 84303, Note_on_c, 0, 76, 0
2, 84310, Note_on_c, 0, 78, 77
2, 84314, Control_c, 0, 64, 56
2, 84334, Control_c, 0, 64, 54
2, 84351, Control_c, 0, 64, 53
2, 84371, Control_c, 0, 64, 52
2, 84386, Note_on_c, 0, 76, 70
2, 84396, Control_c, 0, 64, 51
2, 84396, Note_on_c, 0, 78, 0
2, 84410, Control_c, 0, 64, 50
2, 84431, Control_c, 0, 64, 48
2, 84448, Control_c, 0, 64, 47
2, 84467, Control_c, 0, 64, 46
2, 84505, Control_c, 0, 64, 45
2, 84616, Note_on_c, 0, 76, 0
2, 84639, Note_on_c, 0, 75, 63
2, 84718, Control_c, 0, 64, 44
2, 84891, Note_on_c, 0, 75, 0
2, 84912, Note_on_c, 0, 73, 58
2, 85120, Control_c, 0, 64, 45
2, 85183, Note_on_c, 0, 56, 54
2, 85250, Note_on_c, 0, 61, 0
2, 85464, Note_on_c, 0, 56, 0
2, 85469, Note_on_c, 0, 52, 50
2, 85678, Control_c, 0, 64, 46
2, 85687, Note_on_c, 0, 52, 0
2, 85705, Note_on_c, 0, 49, 47
2, 85721, Note_on_c, 0, 68, 70
2, 85741, Note_on_c, 0, 73, 0
2, 85972, Note_on_c, 0, 49, 0
2, 85987, Note_on_c, 0, 73, 71
2, 85998, Note_on_c, 0, 52, 48
2, 86017, Note_on_c, 0, 68, 0
2, 86235, Note_on_c, 0, 52, 0
2, 86250, Note_on_c, 0, 56, 53
2, 86250, Note_on_c, 0, 75, 67
2, 86329, Note_on_c, 0, 73, 0
2, 86348, Control_c, 0, 64, 47
2, 86500, Note_on_c, 0, 56, 0
2, 86526, Note_on_c, 0, 76, 68
2, 86533, Note_on_c, 0, 61, 45
2, 86551, Note_on_c, 0, 75, 0
2, 86807, Note_on_c, 0, 73, 79
2, 86825, Note_on_c, 0, 76, 0
2, 87070, Note_on_c, 0, 70, 73
2, 87086, Note_on_c, 0, 73, 0
2, 87091, Note_on_c, 0, 52, 47
2, 87355, Note_on_c, 0, 79, 78
2, 87369, Note_on_c, 0, 70, 0
2, 87666, Note_on_c, 0, 61, 0
2, 87686, Note_on_c, 0, 50, 39
2, 87703, Note_on_c, 0, 79, 0
2, 87708, Note_on_c, 0, 78, 64
2, 87728, Note_on_c, 0, 52, 0
2, 87924, Control_c, 0, 64, 46
2, 88019, Control_c, 0, 64, 45
2, 88032, Note_on_c, 0, 74, 50
2, 88076, Control_c, 0, 64, 44
2, 88096, Control_c, 0, 64, 43
2, 88114, Note_on_c, 0, 78, 0
2, 88118, Control_c, 0, 64, 42
2, 88134, Control_c, 0, 64, 41
2, 88264, Note_on_c, 0, 74, 0
2, 88270, Control_c, 0, 64, 43
2, 88287, Control_c, 0, 64, 46
2, 88291, Note_on_c, 0, 54, 39
2, 88299, Note_on_c, 0, 71, 61
2, 88304, Note_on_c, 0, 50, 0
2, 88308, Control_c, 0, 64, 50
2, 88326, Control_c, 0, 64, 53
2, 88345, Control_c, 0, 64, 56
2, 88365, Control_c, 0, 64, 59
2, 88384, Control_c, 0, 64, 62
2, 88402, Control_c, 0, 64, 64
2, 88423, Control_c, 0, 64, 65
2, 88440, Control_c, 0, 64, 67
2, 88461, Control_c, 0, 64, 68
2, 88482, Control_c, 0, 64, 70
2, 88500, Control_c, 0, 64, 71
2, 88520, Control_c, 0, 64, 73
2, 88536, Control_c, 0, 64, 75
2, 88560, Control_c, 0, 64, 77
2, 88560, Note_on_c, 0, 71, 0
2, 88573, Note_on_c, 0, 70, 61
2, 88577, Control_c, 0, 64, 78
2, 88729, Control_c, 0, 64, 77
2, 88751, Control_c, 0, 64, 76
2, 88769, Control_c, 0, 64, 73
2, 88789, Control_c, 0, 64, 68
2, 88807, Control_c, 0, 64, 63
2, 88826, Control_c, 0, 64, 59
2, 88846, Control_c, 0, 64, 56
2, 88846, Note_on_c, 0, 71, 59
2, 88857, Note_on_c, 0, 70, 0
2, 88869, Control_c, 0, 64, 55
2, 88869, Note_on_c, 0, 50, 49
2, 88869, Note_on_c, 0, 54, 0
2, 88885, Control_c, 0, 64, 54
2, 88903, Control_c, 0, 64, 53
2, 88921, Control_c, 0, 64, 51
2, 88939, Control_c, 0, 64, 50
2, 88958, Control_c, 0, 64, 49
2, 89058, Control_c, 0, 64, 48
2, 89086, Note_on_c, 0, 71, 0
2, 89116, Note_on_c, 0, 66, 74
2, 89120, Note_on_c, 0, 47, 59
2, 89136, Note_on_c, 0, 50, 0
2, 89394, Note_on_c, 0, 66, 0
2, 89400, Note_on_c, 0, 50, 63
2, 89407, Note_on_c, 0, 71, 67
2, 89411, Note_on_c, 0, 47, 0
2, 89434, Note_on_c, 0, 72, 54
2, 89472, Note_on_c, 0, 72, 0
2, 89665, Note_on_c, 0, 74, 81
2, 89676, Note_on_c, 0, 71, 0
2, 89683, Note_on_c, 0, 54, 63
2, 89688, Note_on_c, 0, 50, 0
2, 89766, Control_c, 0, 64, 49
2, 89784, Control_c, 0, 64, 50
2, 89804, Control_c, 0, 64, 53
2, 89843, Control_c, 0, 64, 54
2, 89934, Note_on_c, 0, 74, 0
2, 89934, Note_on_c, 0, 78, 83
2, 89942, Control_c, 0, 64, 53
2, 89942, Note_on_c, 0, 54, 0
2, 89960, Note_on_c, 0, 59, 59
2, 90074, Control_c, 0, 64, 52
2, 90131, Control_c, 0, 64, 51
2, 90171, Control_c, 0, 64, 50
2, 90188, Control_c, 0, 64, 49
2, 90200, Note_on_c, 0, 74, 79
2, 90209, Control_c, 0, 64, 48
2, 90220, Note_on_c, 0, 78, 0
2, 90249, Control_c, 0, 64, 47
2, 90285, Control_c, 0, 64, 46
2, 90305, Control_c, 0, 64, 45
2, 90343, Control_c, 0, 64, 44
2, 90363, Control_c, 0, 64, 42
2, 90381, Control_c, 0, 64, 41
2, 90401, Control_c, 0, 64, 39
2, 90423, Control_c, 0, 64, 37
2, 90439, Control_c, 0, 64, 36
2, 90457, Control_c, 0, 64, 33
2, 90462, Note_on_c, 0, 59, 0
2, 90477, Control_c, 0, 64, 28
2, 90495, Control_c, 0, 64, 22
2, 90507, Note_on_c, 0, 54, 43
2, 90512, Note_on_c, 0, 74, 0
2, 90519, Control_c, 0, 64, 16
2, 90523, Note_on_c, 0, 72, 70
2, 90536, Control_c, 0, 64, 0
2, 90536, Note_on_c, 0, 51, 42
2, 90688, Control_c, 0, 64, 28
2, 90707, Control_c, 0, 64, 43
2, 90725, Control_c, 0, 64, 54
2, 90745, Control_c, 0, 64, 60
2, 90765, Control_c, 0, 64, 63
2, 90786, Control_c, 0, 64, 64
2, 90804, Control_c, 0, 64, 66
2, 90815, Note_on_c, 0, 72, 0
2, 90824, Control_c, 0, 64, 71
2, 90824, Note_on_c, 0, 81, 59
2, 90842, Control_c, 0, 64, 83
2, 90861, Control_c, 0, 64, 111
2, 90872, Note_on_c, 0, 51, 0
2, 90881, Control_c, 0, 64, 127
2, 90991, Note_on_c, 0, 54, 0
2, 91092, Control_c, 0, 64, 115
2, 91110, Control_c, 0, 64, 94
2, 91131, Control_c, 0, 64, 79
2, 91147, Control_c, 0, 64, 69
2, 91167, Control_c, 0, 64, 62
2, 91177, Note_on_c, 0, 80, 53
2, 91186, Control_c, 0, 64, 58
2, 91186, Note_on_c, 0, 61, 25
2, 91207, Note_on_c, 0, 52, 35
2, 91211, Control_c, 0, 64, 56
2, 91223, Note_on_c, 0, 81, 0
2, 91227, Control_c, 0, 64, 54
2, 91245, Control_c, 0, 64, 52
2, 91265, Control_c, 0, 64, 50
2, 91284, Control_c, 0, 64, 47
2, 91303, Control_c, 0, 64, 46
2, 91398, Control_c, 0, 64, 47
2, 91416, Control_c, 0, 64, 49
2, 91438, Control_c, 0, 64, 52
2, 91457, Control_c, 0, 64, 57
2, 91476, Control_c, 0, 64, 60
2, 91495, Control_c, 0, 64, 62
2, 91513, Note_on_c, 0, 76, 54
2, 91517, Control_c, 0, 64, 63
2, 91520, Note_on_c, 0, 80, 0
2, 91532, Control_c, 0, 64, 64
2, 91551, Control_c, 0, 64, 65
2, 91570, Control_c, 0, 64, 67
2, 91589, Control_c, 0, 64, 71
2, 91609, Control_c, 0, 64, 74
2, 91629, Control_c, 0, 64, 76
2, 91648, Control_c, 0, 64, 78
2, 91743, Control_c, 0, 64, 77
2, 91783, Control_c, 0, 64, 76
2, 91787, Note_on_c, 0, 76, 0
2, 91802, Control_c, 0, 64, 75
2, 91811, Note_on_c, 0, 73, 58
2, 91825, Control_c, 0, 64, 74
2, 91825, Note_on_c, 0, 56, 42
2, 91858, Control_c, 0, 64, 73
2, 91869, Note_on_c, 0, 52, 0
2, 91869, Note_on_c, 0, 61, 0
2, 91879, Control_c, 0, 64, 72
2, 91900, Control_c, 0, 64, 71
2, 91917, Control_c, 0, 64, 69
2, 91938, Control_c, 0, 64, 68
2, 91955, Control_c, 0, 64, 66
2, 91975, Control_c, 0, 64, 65
2, 92015, Control_c, 0, 64, 64
2, 92046, Note_on_c, 0, 73, 0
2, 92051, Control_c, 0, 64, 63
2, 92065, Note_on_c, 0, 72, 64
2, 92073, Control_c, 0, 64, 62
2, 92090, Control_c, 0, 64, 61
2, 92112, Control_c, 0, 64, 60
2, 92265, Control_c, 0, 64, 59
2, 92281, Control_c, 0, 64, 58
2, 92300, Control_c, 0, 64, 56
2, 92322, Control_c, 0, 64, 55
2, 92336, Note_on_c, 0, 56, 0
2, 92340, Control_c, 0, 64, 54
2, 92355, Note_on_c, 0, 72, 0
2, 92359, Control_c, 0, 64, 53
2, 92359, Note_on_c, 0, 73, 60
2, 92364, Note_on_c, 0, 52, 42
2, 92604, Note_on_c, 0, 73, 0
2, 92632, Note_on_c, 0, 49, 45
2, 92632, Note_on_c, 0, 68, 64
2, 92658, Note_on_c, 0, 52, 0
2, 92687, Control_c, 0, 64, 52
2, 92875, Note_on_c, 0, 49, 0
2, 92884, Note_on_c, 0, 73, 75
2, 92897, Note_on_c, 0, 52, 48
2, 92902, Note_on_c, 0, 68, 0
2, 93031, Control_c, 0, 64, 51
2, 93088, Control_c, 0, 64, 50
2, 93130, Control_c, 0, 64, 49
2, 93130, Note_on_c, 0, 52, 0
2, 93146, Control_c, 0, 64, 48
2, 93153, Note_on_c, 0, 76, 78
2, 93160, Note_on_c, 0, 56, 54
2, 93164, Control_c, 0, 64, 45
2, 93182, Note_on_c, 0, 73, 0
2, 93187, Control_c, 0, 64, 43
2, 93204, Control_c, 0, 64, 41
2, 93222, Control_c, 0, 64, 39
2, 93240, Control_c, 0, 64, 38
2, 93263, Control_c, 0, 64, 37
2, 93281, Control_c, 0, 64, 36
2, 93420, Control_c, 0, 64, 38
2, 93420, Note_on_c, 0, 76, 0
2, 93424, Note_on_c, 0, 56, 0
2, 93424, Note_on_c, 0, 80, 78
2, 93434, Control_c, 0, 64, 42
2, 93443, Note_on_c, 0, 61, 48
2, 93452, Control_c, 0, 64, 47
2, 93471, Control_c, 0, 64, 54
2, 93491, Control_c, 0, 64, 59
2, 93512, Control_c, 0, 64, 62
2, 93532, Control_c, 0, 64, 64
2, 93549, Control_c, 0, 64, 65
2, 93568, Control_c, 0, 64, 67
2, 93587, Control_c, 0, 64, 69
2, 93605, Control_c, 0, 64, 71
2, 93625, Control_c, 0, 64, 74
2, 93644, Control_c, 0, 64, 76
2, 93664, Control_c, 0, 64, 77
2, 93683, Control_c, 0, 64, 78
2, 93705, Note_on_c, 0, 77, 84
2, 93705, Note_on_c, 0, 80, 0
2, 93779, Control_c, 0, 64, 77
2, 93817, Control_c, 0, 64, 76
2, 93836, Control_c, 0, 64, 74
2, 93856, Control_c, 0, 64, 73
2, 93874, Control_c, 0, 64, 72
2, 93893, Control_c, 0, 64, 70
2, 93913, Control_c, 0, 64, 68
2, 93936, Control_c, 0, 64, 65
2, 93952, Control_c, 0, 64, 63
2, 93969, Control_c, 0, 64, 61
2, 93990, Control_c, 0, 64, 59
2, 94009, Control_c, 0, 64, 56
2, 94013, Note_on_c, 0, 61, 0
2, 94031, Control_c, 0, 64, 55
2, 94031, Note_on_c, 0, 74, 72
2, 94036, Note_on_c, 0, 53, 39
2, 94043, Note_on_c, 0, 56, 49
2, 94047, Control_c, 0, 64, 53
2, 94067, Control_c, 0, 64, 52
2, 94075, Note_on_c, 0, 77, 0
2, 94086, Control_c, 0, 64, 50
2, 94124, Control_c, 0, 64, 49
2, 94220, Control_c, 0, 64, 50
2, 94317, Control_c, 0, 64, 51
2, 94345, Note_on_c, 0, 83, 74
2, 94355, Control_c, 0, 64, 52
2, 94360, Note_on_c, 0, 74, 0
2, 94471, Control_c, 0, 64, 51
2, 94565, Control_c, 0, 64, 50
2, 94661, Control_c, 0, 64, 49
2, 94682, Control_c, 0, 64, 48
2, 94702, Control_c, 0, 64, 47
2, 94720, Control_c, 0, 64, 46
2, 94742, Note_on_c, 0, 81, 50
2, 94745, Control_c, 0, 64, 45
2, 94745, Note_on_c, 0, 53, 0
2, 94755, Note_on_c, 0, 54, 39
2, 94758, Control_c, 0, 64, 43
2, 94776, Control_c, 0, 64, 42
2, 94787, Note_on_c, 0, 83, 0
2, 94798, Control_c, 0, 64, 41
2, 94805, Note_on_c, 0, 56, 0
2, 94819, Control_c, 0, 64, 40
2, 94835, Control_c, 0, 64, 39
2, 94876, Control_c, 0, 64, 38
2, 94892, Control_c, 0, 64, 37
2, 95155, Note_on_c, 0, 78, 57
2, 95158, Note_on_c, 0, 81, 0
2, 95296, Control_c, 0, 64, 38
2, 95333, Control_c, 0, 64, 39
2, 95373, Control_c, 0, 64, 40
2, 95439, Note_on_c, 0, 56, 46
2, 95450, Control_c, 0, 64, 41
2, 95699, Note_on_c, 0, 77, 64
2, 95717, Note_on_c, 0, 78, 0
2, 95874, Control_c, 0, 64, 40
2, 95928, Control_c, 0, 64, 39
2, 95968, Control_c, 0, 64, 38
2, 95988, Control_c, 0, 64, 37
2, 95988, Note_on_c, 0, 56, 0
2, 96006, Control_c, 0, 64, 36
2, 96018, Note_on_c, 0, 78, 60
2, 96025, Note_on_c, 0, 57, 37
2, 96029, Control_c, 0, 64, 35
2, 96045, Control_c, 0, 64, 34
2, 96051, Note_on_c, 0, 77, 0
2, 96121, Control_c, 0, 64, 35
2, 96141, Control_c, 0, 64, 38
2, 96160, Control_c, 0, 64, 43
2, 96179, Control_c, 0, 64, 49
2, 96198, Control_c, 0, 64, 56
2, 96217, Control_c, 0, 64, 60
2, 96237, Control_c, 0, 64, 62
2, 96256, Control_c, 0, 64, 63
2, 96276, Control_c, 0, 64, 64
2, 96292, Control_c, 0, 64, 66
2, 96312, Control_c, 0, 64, 71
2, 96333, Control_c, 0, 64, 78
2, 96341, Note_on_c, 0, 78, 0
2, 96353, Note_on_c, 0, 74, 58
2, 96356, Control_c, 0, 64, 88
2, 96369, Control_c, 0, 64, 99
2, 96389, Control_c, 0, 64, 106
2, 96412, Control_c, 0, 64, 110
2, 96524, Control_c, 0, 64, 108
2, 96546, Control_c, 0, 64, 104
2, 96563, Control_c, 0, 64, 96
2, 96585, Control_c, 0, 64, 85
2, 96601, Control_c, 0, 64, 72
2, 96621, Control_c, 0, 64, 62
2, 96637, Note_on_c, 0, 56, 42
2, 96641, Control_c, 0, 64, 55
2, 96658, Control_c, 0, 64, 52
2, 96658, Note_on_c, 0, 52, 38
2, 96672, Note_on_c, 0, 54, 0
2, 96672, Note_on_c, 0, 57, 0
2, 96679, Control_c, 0, 64, 51
2, 96698, Control_c, 0, 64, 52
2, 96717, Control_c, 0, 64, 53
2, 96735, Control_c, 0, 64, 55
2, 96755, Control_c, 0, 64, 59
2, 96776, Control_c, 0, 64, 62
2, 96794, Control_c, 0, 64, 64
2, 96814, Control_c, 0, 64, 67
2, 96832, Control_c, 0, 64, 71
2, 96850, Control_c, 0, 64, 75
2, 96869, Control_c, 0, 64, 79
2, 96889, Control_c, 0, 64, 85
2, 96905, Note_on_c, 0, 73, 65
2, 96909, Control_c, 0, 64, 93
2, 96924, Note_on_c, 0, 74, 0
2, 96928, Control_c, 0, 64, 103
2, 96948, Control_c, 0, 64, 127
2, 97029, Note_on_c, 0, 52, 0
2, 97066, Note_on_c, 0, 73, 0
2, 97217, Control_c, 0, 64, 94
2, 97235, Control_c, 0, 64, 74
2, 97254, Control_c, 0, 64, 62
2, 97257, Note_on_c, 0, 54, 43
2, 97259, Note_on_c, 0, 73, 63
2, 97269, Note_on_c, 0, 51, 41
2, 97273, Control_c, 0, 64, 55
2, 97293, Control_c, 0, 64, 52
2, 97313, Control_c, 0, 64, 49
2, 97313, Note_on_c, 0, 56, 0
2, 97330, Control_c, 0, 64, 47
2, 97351, Control_c, 0, 64, 45
2, 97371, Control_c, 0, 64, 43
2, 97408, Control_c, 0, 64, 44
2, 97485, Control_c, 0, 64, 45
2, 97503, Control_c, 0, 64, 47
2, 97523, Control_c, 0, 64, 49
2, 97637, Control_c, 0, 64, 48
2, 97641, Note_on_c, 0, 72, 72
2, 97657, Control_c, 0, 64, 47
2, 97659, Note_on_c, 0, 73, 0
2, 97790, Note_on_c, 0, 51, 0
2, 97927, Control_c, 0, 64, 46
2, 97970, Note_on_c, 0, 56, 51
2, 97979, Note_on_c, 0, 54, 0
2, 97995, Note_on_c, 0, 50, 37
2, 98023, Control_c, 0, 64, 47
2, 98061, Control_c, 0, 64, 49
2, 98079, Control_c, 0, 64, 52
2, 98098, Control_c, 0, 64, 55
2, 98117, Control_c, 0, 64, 58
2, 98136, Control_c, 0, 64, 60
2, 98157, Control_c, 0, 64, 61
2, 98176, Control_c, 0, 64, 62
2, 98216, Control_c, 0, 64, 63
2, 98234, Control_c, 0, 64, 64
2, 98252, Control_c, 0, 64, 65
2, 98271, Control_c, 0, 64, 66
2, 98293, Control_c, 0, 64, 69
2, 98302, Note_on_c, 0, 78, 83
2, 98313, Control_c, 0, 64, 75
2, 98313, Note_on_c, 0, 72, 0
2, 98332, Control_c, 0, 64, 83
2, 98337, Note_on_c, 0, 50, 0
2, 98349, Control_c, 0, 64, 101
2, 98370, Control_c, 0, 64, 127
2, 98562, Note_on_c, 0, 78, 0
2, 98862, Note_on_c, 0, 56, 0
2, 98862, Note_on_c, 0, 78, 75
2, 98869, Control_c, 0, 64, 102
2, 98869, Note_on_c, 0, 57, 43
2, 98886, Control_c, 0, 64, 75
2, 98897, Note_on_c, 0, 49, 35
2, 98897, Note_on_c, 0, 73, 52
2, 98908, Control_c, 0, 64, 64
2, 98924, Control_c, 0, 64, 58
2, 98944, Control_c, 0, 64, 55
2, 98963, Control_c, 0, 64, 53
2, 98984, Control_c, 0, 64, 50
2, 99001, Control_c, 0, 64, 47
2, 99021, Control_c, 0, 64, 44
2, 99038, Control_c, 0, 64, 43
2, 99329, Control_c, 0, 64, 42
2, 100499, Control_c, 0, 64, 43
2, 100960, Note_on_c, 0, 77, 45
2, 100964, Note_on_c, 0, 56, 10
2, 101038, Note_on_c, 0, 78, 0
2, 101047, Note_on_c, 0, 57, 0
2, 101075, Control_c, 0, 64, 42
2, 101633, Control_c, 0, 64, 41
2, 102073, Control_c, 0, 64, 42
2, 102092, Control_c, 0, 64, 44
2, 102112, Control_c, 0, 64, 46
2, 102130, Control_c, 0, 64, 50
2, 102150, Control_c, 0, 64, 54
2, 102170, Control_c, 0, 64, 57
2, 102188, Control_c, 0, 64, 60
2, 102208, Control_c, 0, 64, 63
2, 102227, Control_c, 0, 64, 65
2, 102248, Control_c, 0, 64, 70
2, 102264, Control_c, 0, 64, 77
2, 102284, Control_c, 0, 64, 91
2, 102306, Control_c, 0, 64, 127
2, 102400, Note_on_c, 0, 56, 0
2, 102404, Note_on_c, 0, 49, 0
2, 102404, Note_on_c, 0, 73, 0
2, 102404, Note_on_c, 0, 77, 0
2, 102649, Control_c, 0, 64, 106
2, 102668, Control_c, 0, 64, 94
2, 102689, Control_c, 0, 64, 86
2, 102706, Control_c, 0, 64, 79
2, 102725, Control_c, 0, 64, 74
2, 102745, Control_c, 0, 64, 68
2, 102764, Control_c, 0, 64, 65
2, 102784, Control_c, 0, 64, 63
2, 102803, Control_c, 0, 64, 62
2, 102822, Control_c, 0, 64, 61
2, 102840, Control_c, 0, 64, 60
2, 102858, Control_c, 0, 64, 58
2, 102878, Control_c, 0, 64, 57
2, 102897, Control_c, 0, 64, 56
2, 102935, Control_c, 0, 64, 55
2, 102957, Control_c, 0, 64, 54
2, 102977, Control_c, 0, 64, 52
2, 102997, Control_c, 0, 64, 51
2, 103033, Control_c, 0, 64, 50
2, 103090, Control_c, 0, 64, 49
2, 103110, Control_c, 0, 64, 48
2, 103482, Note_on_c, 0, 47, 32
2, 103806, Note_on_c, 0, 49, 45
2, 103843, Note_on_c, 0, 47, 0
2, 103959, Note_on_c, 0, 49, 0
2, 104005, Note_on_c, 0, 50, 55
2, 104195, Note_on_c, 0, 49, 53
2, 104195, Note_on_c, 0, 50, 0
2, 104344, Note_on_c, 0, 49, 0
2, 104374, Note_on_c, 0, 47, 61
2, 104551, Note_on_c, 0, 47, 0
2, 104555, Note_on_c, 0, 45, 64
2, 104694, Note_on_c, 0, 45, 0
2, 104719, Note_on_c, 0, 47, 62
2, 104905, Note_on_c, 0, 47, 0
2, 104909, Note_on_c, 0, 45, 55
2, 105058, Note_on_c, 0, 45, 0
2, 105087, Control_c, 0, 64, 47
2, 105091, Note_on_c, 0, 44, 64
2, 105107, Control_c, 0, 64, 46
2, 105146, Control_c, 0, 64, 45
2, 105183, Control_c, 0, 64, 44
2, 105202, Control_c, 0, 64, 42
2, 105222, Control_c, 0, 64, 38
2, 105241, Control_c, 0, 64, 33
2, 105260, Control_c, 0, 64, 26
2, 105276, Note_on_c, 0, 44, 0
2, 105280, Control_c, 0, 64, 15
2, 105298, Control_c, 0, 64, 0
2, 105362, Note_on_c, 0, 42, 45
2, 105362, Note_on_c, 0, 78, 60
2, 105509, Control_c, 0, 64, 30
2, 105528, Control_c, 0, 64, 47
2, 105548, Control_c, 0, 64, 61
2, 105568, Control_c, 0, 64, 68
2, 105588, Control_c, 0, 64, 80
2, 105606, Control_c, 0, 64, 115
2, 105627, Control_c, 0, 64, 127
2, 105627, Note_on_c, 0, 42, 0
2, 105768, Note_on_c, 0, 78, 0
2, 106047, Control_c, 0, 64, 110
2, 106066, Control_c, 0, 64, 99
2, 106088, Control_c, 0, 64, 92
2, 106104, Control_c, 0, 64, 85
2, 106127, Control_c, 0, 64, 75
2, 106144, Control_c, 0, 64, 65
2, 106163, Control_c, 0, 64, 58
2, 106181, Control_c, 0, 64, 50
2, 106188, Note_on_c, 0, 73, 55
2, 106201, Control_c, 0, 64, 47
2, 106208, Note_on_c, 0, 57, 38
2, 106222, Control_c, 0, 64, 46
2, 106239, Control_c, 0, 64, 43
2, 106239, Note_on_c, 0, 54, 24
2, 106258, Control_c, 0, 64, 39
2, 106277, Control_c, 0, 64, 33
2, 106296, Control_c, 0, 64, 28
2, 106317, Control_c, 0, 64, 26
2, 106353, Control_c, 0, 64, 25
2, 106392, Control_c, 0, 64, 24
2, 106645, Control_c, 0, 64, 25
2, 106718, Control_c, 0, 64, 26
2, 106830, Note_on_c, 0, 61, 40
2, 107359, Note_on_c, 0, 57, 0
2, 107376, Note_on_c, 0, 69, 61
2, 107385, Note_on_c, 0, 73, 0
2, 107387, Note_on_c, 0, 61, 0
2, 107391, Note_on_c, 0, 66, 44
2, 107629, Note_on_c, 0, 66, 0
2, 107647, Note_on_c, 0, 56, 51
2, 107649, Note_on_c, 0, 71, 74
2, 107660, Note_on_c, 0, 69, 0
2, 107668, Note_on_c, 0, 54, 0
2, 107738, Control_c, 0, 64, 25
2, 107891, Control_c, 0, 64, 24
2, 107911, Control_c, 0, 64, 23
2, 107931, Note_on_c, 0, 71, 0
2, 107935, Note_on_c, 0, 73, 65
2, 107959, Note_on_c, 0, 56, 0
2, 107968, Control_c, 0, 64, 22
2, 107973, Note_on_c, 0, 57, 39
2, 108045, Control_c, 0, 64, 21
2, 108132, Note_on_c, 0, 73, 0
2, 108137, Note_on_c, 0, 71, 63
2, 108216, Control_c, 0, 64, 20
2, 108287, Note_on_c, 0, 71, 0
2, 108298, Note_on_c, 0, 69, 61
2, 108312, Control_c, 0, 64, 19
2, 108335, Control_c, 0, 64, 18
2, 108370, Control_c, 0, 64, 17
2, 108391, Control_c, 0, 64, 16
2, 108409, Control_c, 0, 64, 13
2, 108417, Note_on_c, 0, 57, 0
2, 108429, Control_c, 0, 64, 0
2, 108463, Note_on_c, 0, 61, 36
2, 108465, Note_on_c, 0, 69, 0
2, 108486, Note_on_c, 0, 71, 60
2, 108516, Note_on_c, 0, 65, 29
2, 108643, Note_on_c, 0, 71, 0
2, 108677, Note_on_c, 0, 69, 51
2, 108678, Control_c, 0, 64, 21
2, 108696, Control_c, 0, 64, 35
2, 108717, Control_c, 0, 64, 47
2, 108734, Control_c, 0, 64, 57
2, 108756, Control_c, 0, 64, 62
2, 108775, Control_c, 0, 64, 64
2, 108782, Note_on_c, 0, 65, 0
2, 108818, Note_on_c, 0, 69, 0
2, 108831, Control_c, 0, 64, 65
2, 108851, Note_on_c, 0, 68, 54
2, 108894, Note_on_c, 0, 61, 0
2, 108946, Control_c, 0, 64, 64
2, 108966, Control_c, 0, 64, 63
2, 109005, Control_c, 0, 64, 62
2, 109024, Control_c, 0, 64, 60
2, 109042, Control_c, 0, 64, 58
2, 109062, Control_c, 0, 64, 55
2, 109081, Control_c, 0, 64, 50
2, 109099, Control_c, 0, 64, 46
2, 109119, Control_c, 0, 64, 41
2, 109119, Note_on_c, 0, 68, 0
2, 109138, Control_c, 0, 64, 31
2, 109147, Note_on_c, 0, 66, 62
2, 109160, Control_c, 0, 64, 18
2, 109160, Note_on_c, 0, 69, 35
2, 109170, Note_on_c, 0, 54, 43
2, 109177, Control_c, 0, 64, 10
2, 109196, Control_c, 0, 64, 9
2, 109235, Control_c, 0, 64, 12
2, 109254, Control_c, 0, 64, 18
2, 109274, Control_c, 0, 64, 28
2, 109292, Control_c, 0, 64, 39
2, 109312, Control_c, 0, 64, 51
2, 109332, Control_c, 0, 64, 60
2, 109349, Control_c, 0, 64, 65
2, 109369, Control_c, 0, 64, 68
2, 109389, Control_c, 0, 64, 71
2, 109407, Control_c, 0, 64, 77
2, 109428, Control_c, 0, 64, 90
2, 109445, Control_c, 0, 64, 127
2, 109460, Note_on_c, 0, 66, 0
2, 109504, Note_on_c, 0, 71, 50
2, 109544, Note_on_c, 0, 69, 0
2, 109811, Control_c, 0, 64, 98
2, 109815, Note_on_c, 0, 61, 57
2, 109824, Note_on_c, 0, 71, 0
2, 109828, Control_c, 0, 64, 76
2, 109828, Note_on_c, 0, 69, 55
2, 109849, Control_c, 0, 64, 64
2, 109867, Control_c, 0, 64, 56
2, 109887, Control_c, 0, 64, 51
2, 109909, Control_c, 0, 64, 48
2, 109927, Control_c, 0, 64, 47
2, 109945, Control_c, 0, 64, 45
2, 109965, Control_c, 0, 64, 44
2, 110023, Control_c, 0, 64, 43
2, 110059, Control_c, 0, 64, 42
2, 110086, Note_on_c, 0, 69, 0
2, 110105, Note_on_c, 0, 68, 68
2, 110355, Note_on_c, 0, 68, 0
2, 110364, Note_on_c, 0, 69, 62
2, 110649, Note_on_c, 0, 73, 70
2, 110674, Note_on_c, 0, 69, 0
2, 110911, Note_on_c, 0, 78, 66
2, 110927, Note_on_c, 0, 73, 0
2, 110935, Note_on_c, 0, 57, 52
2, 110969, Note_on_c, 0, 61, 0
2, 111180, Note_on_c, 0, 80, 72
2, 111205, Note_on_c, 0, 59, 53
2, 111229, Note_on_c, 0, 57, 0
2, 111229, Note_on_c, 0, 78, 0
2, 111475, Note_on_c, 0, 81, 63
2, 111478, Note_on_c, 0, 59, 0
2, 111493, Note_on_c, 0, 61, 45
2, 111509, Note_on_c, 0, 80, 0
2, 111633, Note_on_c, 0, 61, 0
2, 111662, Note_on_c, 0, 59, 53
2, 111672, Note_on_c, 0, 80, 72
2, 111726, Note_on_c, 0, 81, 0
2, 111800, Note_on_c, 0, 59, 0
2, 111815, Note_on_c, 0, 57, 57
2, 111825, Note_on_c, 0, 78, 77
2, 111863, Note_on_c, 0, 80, 0
2, 111964, Note_on_c, 0, 57, 0
2, 111987, Note_on_c, 0, 59, 54
2, 111994, Note_on_c, 0, 80, 73
2, 112009, Note_on_c, 0, 78, 0
2, 112077, Control_c, 0, 64, 43
2, 112128, Note_on_c, 0, 80, 0
2, 112135, Note_on_c, 0, 59, 0
2, 112147, Note_on_c, 0, 78, 72
2, 112162, Note_on_c, 0, 57, 49
2, 112278, Note_on_c, 0, 78, 0
2, 112304, Note_on_c, 0, 77, 63
2, 112308, Note_on_c, 0, 57, 0
2, 112312, Note_on_c, 0, 54, 0
2, 112325, Note_on_c, 0, 56, 54
2, 112505, Note_on_c, 0, 56, 0
2, 112513, Note_on_c, 0, 77, 0
2, 112526, Note_on_c, 0, 78, 59
2, 112540, Note_on_c, 0, 57, 49
2, 112747, Control_c, 0, 64, 42
2, 112843, Control_c, 0, 64, 41
2, 112864, Control_c, 0, 64, 40
2, 112864, Note_on_c, 0, 73, 69
2, 112879, Note_on_c, 0, 78, 0
2, 112920, Control_c, 0, 64, 39
2, 112979, Control_c, 0, 64, 38
2, 113100, Note_on_c, 0, 57, 0
2, 113126, Note_on_c, 0, 59, 51
2, 113135, Note_on_c, 0, 56, 46
2, 113411, Note_on_c, 0, 77, 71
2, 113442, Note_on_c, 0, 73, 0
2, 113627, Note_on_c, 0, 56, 0
2, 113683, Note_on_c, 0, 59, 0
2, 113687, Control_c, 0, 64, 39
2, 113692, Note_on_c, 0, 77, 0
2, 113696, Note_on_c, 0, 78, 66
2, 113710, Control_c, 0, 64, 41
2, 113710, Note_on_c, 0, 57, 43
2, 113715, Note_on_c, 0, 61, 43
2, 113727, Control_c, 0, 64, 44
2, 113746, Control_c, 0, 64, 48
2, 113765, Control_c, 0, 64, 54
2, 113786, Control_c, 0, 64, 58
2, 113804, Control_c, 0, 64, 62
2, 113823, Control_c, 0, 64, 65
2, 113846, Control_c, 0, 64, 69
2, 113862, Control_c, 0, 64, 78
2, 113882, Control_c, 0, 64, 99
2, 113902, Control_c, 0, 64, 127
2, 113948, Note_on_c, 0, 57, 0
2, 113988, Note_on_c, 0, 61, 0
2, 114037, Note_on_c, 0, 73, 80
2, 114037, Note_on_c, 0, 78, 0
2, 114264, Control_c, 0, 64, 103
2, 114271, Note_on_c, 0, 59, 65
2, 114285, Control_c, 0, 64, 80
2, 114287, Note_on_c, 0, 56, 63
2, 114303, Control_c, 0, 64, 66
2, 114324, Control_c, 0, 64, 60
2, 114344, Control_c, 0, 64, 56
2, 114362, Control_c, 0, 64, 54
2, 114382, Control_c, 0, 64, 53
2, 114399, Control_c, 0, 64, 51
2, 114419, Control_c, 0, 64, 50
2, 114437, Control_c, 0, 64, 47
2, 114456, Control_c, 0, 64, 46
2, 114476, Control_c, 0, 64, 44
2, 114494, Control_c, 0, 64, 43
2, 114505, Note_on_c, 0, 77, 80
2, 114514, Control_c, 0, 64, 41
2, 114526, Note_on_c, 0, 73, 0
2, 114535, Control_c, 0, 64, 40
2, 114553, Control_c, 0, 64, 39
2, 114590, Control_c, 0, 64, 38
2, 114612, Control_c, 0, 64, 37
2, 114647, Control_c, 0, 64, 36
2, 114670, Control_c, 0, 64, 35
2, 114687, Control_c, 0, 64, 33
2, 114708, Control_c, 0, 64, 31
2, 114726, Control_c, 0, 64, 28
2, 114746, Control_c, 0, 64, 26
2, 114763, Control_c, 0, 64, 22
2, 114784, Control_c, 0, 64, 18
2, 114788, Note_on_c, 0, 56, 0
2, 114790, Note_on_c, 0, 78, 76
2, 114803, Control_c, 0, 64, 17
2, 114819, Note_on_c, 0, 54, 44
2, 114823, Note_on_c, 0, 77, 0
2, 114832, Note_on_c, 0, 57, 48
2, 114859, Control_c, 0, 64, 18
2, 114882, Control_c, 0, 64, 22
2, 114882, Note_on_c, 0, 59, 0
2, 114899, Control_c, 0, 64, 31
2, 114917, Control_c, 0, 64, 44
2, 114938, Control_c, 0, 64, 57
2, 114956, Control_c, 0, 64, 64
2, 114976, Control_c, 0, 64, 70
2, 114993, Control_c, 0, 64, 87
2, 115014, Control_c, 0, 64, 127
2, 115044, Note_on_c, 0, 57, 0
2, 115066, Note_on_c, 0, 54, 0
2, 115081, Note_on_c, 0, 74, 79
2, 115085, Note_on_c, 0, 78, 0
2, 115320, Control_c, 0, 64, 109
2, 115340, Control_c, 0, 64, 78
2, 115344, Note_on_c, 0, 73, 85
2, 115358, Note_on_c, 0, 55, 48
2, 115363, Control_c, 0, 64, 64
2, 115366, Note_on_c, 0, 74, 0
2, 115371, Note_on_c, 0, 52, 48
2, 115378, Control_c, 0, 64, 54
2, 115398, Control_c, 0, 64, 43
2, 115417, Control_c, 0, 64, 35
2, 115435, Control_c, 0, 64, 34
2, 115477, Control_c, 0, 64, 35
2, 115494, Control_c, 0, 64, 38
2, 115514, Control_c, 0, 64, 42
2, 115531, Control_c, 0, 64, 46
2, 115551, Control_c, 0, 64, 50
2, 115569, Control_c, 0, 64, 54
2, 115589, Control_c, 0, 64, 56
2, 115610, Control_c, 0, 64, 58
2, 115626, Note_on_c, 0, 73, 0
2, 115631, Control_c, 0, 64, 60
2, 115631, Note_on_c, 0, 82, 83
2, 115646, Control_c, 0, 64, 62
2, 115666, Control_c, 0, 64, 63
2, 115685, Control_c, 0, 64, 64
2, 115705, Control_c, 0, 64, 66
2, 115725, Control_c, 0, 64, 68
2, 115745, Control_c, 0, 64, 70
2, 115761, Control_c, 0, 64, 72
2, 115783, Control_c, 0, 64, 73
2, 115896, Control_c, 0, 64, 72
2, 115916, Control_c, 0, 64, 71
2, 115937, Control_c, 0, 64, 69
2, 115953, Control_c, 0, 64, 66
2, 115973, Control_c, 0, 64, 64
2, 115993, Note_on_c, 0, 54, 42
2, 115997, Control_c, 0, 64, 61
2, 115997, Note_on_c, 0, 82, 0
2, 115997, Note_on_c, 0, 83, 58
2, 116008, Note_on_c, 0, 52, 0
2, 116013, Control_c, 0, 64, 58
2, 116020, Note_on_c, 0, 50, 37
2, 116031, Control_c, 0, 64, 54
2, 116041, Note_on_c, 0, 55, 0
2, 116053, Control_c, 0, 64, 49
2, 116070, Control_c, 0, 64, 43
2, 116088, Control_c, 0, 64, 36
2, 116107, Control_c, 0, 64, 32
2, 116128, Control_c, 0, 64, 29
2, 116149, Control_c, 0, 64, 28
2, 116185, Control_c, 0, 64, 27
2, 116281, Control_c, 0, 64, 28
2, 116301, Control_c, 0, 64, 31
2, 116319, Control_c, 0, 64, 35
2, 116338, Control_c, 0, 64, 39
2, 116360, Control_c, 0, 64, 45
2, 116377, Control_c, 0, 64, 52
2, 116388, Note_on_c, 0, 78, 74
2, 116395, Control_c, 0, 64, 58
2, 116414, Control_c, 0, 64, 61
2, 116423, Note_on_c, 0, 83, 0
2, 116434, Control_c, 0, 64, 63
2, 116472, Control_c, 0, 64, 64
2, 116493, Control_c, 0, 64, 65
2, 116549, Control_c, 0, 64, 66
2, 116565, Note_on_c, 0, 50, 0
2, 116642, Note_on_c, 0, 52, 52
2, 116646, Control_c, 0, 64, 65
2, 116651, Note_on_c, 0, 49, 51
2, 116709, Note_on_c, 0, 54, 0
2, 116723, Control_c, 0, 64, 64
2, 116780, Control_c, 0, 64, 63
2, 116817, Control_c, 0, 64, 61
2, 116836, Control_c, 0, 64, 60
2, 116858, Control_c, 0, 64, 58
2, 116878, Control_c, 0, 64, 55
2, 116894, Control_c, 0, 64, 52
2, 116899, Note_on_c, 0, 82, 86
2, 116915, Control_c, 0, 64, 47
2, 116934, Control_c, 0, 64, 43
2, 116941, Note_on_c, 0, 78, 0
2, 116952, Control_c, 0, 64, 40
2, 116971, Control_c, 0, 64, 39
2, 117011, Control_c, 0, 64, 38
2, 117031, Control_c, 0, 64, 37
2, 117049, Control_c, 0, 64, 36
2, 117161, Note_on_c, 0, 49, 0
2, 117209, Note_on_c, 0, 54, 49
2, 117213, Note_on_c, 0, 83, 68
2, 117231, Note_on_c, 0, 50, 37
2, 117246, Note_on_c, 0, 52, 0
2, 117264, Note_on_c, 0, 82, 0
2, 117536, Note_on_c, 0, 78, 73
2, 117557, Note_on_c, 0, 83, 0
2, 117754, Note_on_c, 0, 54, 0
2, 117775, Note_on_c, 0, 52, 51
2, 117782, Note_on_c, 0, 50, 0
2, 117795, Note_on_c, 0, 61, 38
2, 118023, Note_on_c, 0, 82, 71
2, 118042, Note_on_c, 0, 78, 0
2, 118203, Note_on_c, 0, 61, 0
2, 118294, Note_on_c, 0, 54, 33
2, 118298, Note_on_c, 0, 52, 0
2, 118307, Note_on_c, 0, 50, 36
2, 118327, Note_on_c, 0, 82, 0
2, 118335, Note_on_c, 0, 83, 61
2, 118536, Note_on_c, 0, 81, 72
2, 118573, Note_on_c, 0, 83, 0
2, 118684, Note_on_c, 0, 80, 80
2, 118700, Control_c, 0, 64, 35
2, 118718, Control_c, 0, 64, 34
2, 118733, Note_on_c, 0, 81, 0
2, 118738, Control_c, 0, 64, 33
2, 118758, Control_c, 0, 64, 31
2, 118775, Control_c, 0, 64, 29
2, 118798, Control_c, 0, 64, 26
2, 118809, Note_on_c, 0, 50, 0
2, 118816, Control_c, 0, 64, 21
2, 118834, Control_c, 0, 64, 0
2, 118843, Note_on_c, 0, 49, 41
2, 118872, Note_on_c, 0, 81, 66
2, 118896, Note_on_c, 0, 80, 0
2, 119007, Control_c, 0, 64, 29
2, 119015, Note_on_c, 0, 81, 0
2, 119024, Control_c, 0, 64, 42
2, 119045, Control_c, 0, 64, 53
2, 119058, Note_on_c, 0, 80, 61
2, 119067, Control_c, 0, 64, 60
2, 119083, Control_c, 0, 64, 64
2, 119104, Control_c, 0, 64, 67
2, 119122, Control_c, 0, 64, 71
2, 119142, Control_c, 0, 64, 76
2, 119160, Control_c, 0, 64, 82
2, 119182, Control_c, 0, 64, 87
2, 119201, Control_c, 0, 64, 91
2, 119201, Note_on_c, 0, 80, 0
2, 119219, Control_c, 0, 64, 94
2, 119237, Control_c, 0, 64, 95
2, 119243, Note_on_c, 0, 78, 62
2, 119250, Note_on_c, 0, 49, 0
2, 119352, Control_c, 0, 64, 94
2, 119370, Control_c, 0, 64, 93
2, 119390, Control_c, 0, 64, 91
2, 119409, Control_c, 0, 64, 87
2, 119430, Control_c, 0, 64, 82
2, 119447, Control_c, 0, 64, 76
2, 119468, Control_c, 0, 64, 69
2, 119483, Note_on_c, 0, 54, 0
2, 119488, Control_c, 0, 64, 63
2, 119507, Control_c, 0, 64, 57
2, 119524, Control_c, 0, 64, 47
2, 119540, Note_on_c, 0, 78, 0
2, 119544, Control_c, 0, 64, 37
2, 119549, Note_on_c, 0, 79, 50
2, 119562, Note_on_c, 0, 47, 30
2, 119562, Note_on_c, 0, 59, 26
2, 119567, Control_c, 0, 64, 29
2, 119585, Control_c, 0, 64, 25
2, 119603, Control_c, 0, 64, 24
2, 119641, Control_c, 0, 64, 25
2, 119662, Control_c, 0, 64, 29
2, 119680, Control_c, 0, 64, 36
2, 119697, Control_c, 0, 64, 45
2, 119719, Control_c, 0, 64, 55
2, 119737, Control_c, 0, 64, 63
2, 119755, Control_c, 0, 64, 68
2, 119775, Control_c, 0, 64, 74
2, 119795, Control_c, 0, 64, 84
2, 119799, Note_on_c, 0, 47, 0
2, 119812, Control_c, 0, 64, 98
2, 119831, Control_c, 0, 64, 127
2, 119862, Note_on_c, 0, 59, 0
2, 119934, Note_on_c, 0, 79, 0
2, 119959, Note_on_c, 0, 74, 44
2, 120140, Control_c, 0, 64, 90
2, 120158, Control_c, 0, 64, 73
2, 120177, Control_c, 0, 64, 63
2, 120197, Control_c, 0, 64, 55
2, 120217, Control_c, 0, 64, 48
2, 120237, Control_c, 0, 64, 44
2, 120237, Note_on_c, 0, 62, 36
2, 120241, Note_on_c, 0, 59, 27
2, 120275, Control_c, 0, 64, 46
2, 120292, Control_c, 0, 64, 50
2, 120314, Control_c, 0, 64, 55
2, 120332, Control_c, 0, 64, 60
2, 120352, Control_c, 0, 64, 64
2, 120370, Control_c, 0, 64, 67
2, 120390, Control_c, 0, 64, 72
2, 120409, Control_c, 0, 64, 80
2, 120429, Control_c, 0, 64, 93
2, 120446, Control_c, 0, 64, 127
2, 120500, Note_on_c, 0, 62, 0
2, 120521, Note_on_c, 0, 59, 0
2, 120521, Note_on_c, 0, 78, 60
2, 120550, Note_on_c, 0, 74, 0
2, 120774, Control_c, 0, 64, 102
2, 120794, Control_c, 0, 64, 78
2, 120809, Note_on_c, 0, 79, 57
2, 120817, Control_c, 0, 64, 66
2, 120817, Note_on_c, 0, 78, 0
2, 120830, Control_c, 0, 64, 58
2, 120834, Note_on_c, 0, 59, 30
2, 120851, Control_c, 0, 64, 52
2, 120851, Note_on_c, 0, 62, 30
2, 120872, Control_c, 0, 64, 47
2, 120889, Control_c, 0, 64, 44
2, 120907, Control_c, 0, 64, 43
2, 120926, Control_c, 0, 64, 44
2, 120948, Control_c, 0, 64, 46
2, 120965, Control_c, 0, 64, 47
2, 120987, Control_c, 0, 64, 50
2, 121004, Control_c, 0, 64, 53
2, 121024, Control_c, 0, 64, 57
2, 121043, Control_c, 0, 64, 60
2, 121060, Control_c, 0, 64, 63
2, 121079, Control_c, 0, 64, 64
2, 121101, Control_c, 0, 64, 66
2, 121118, Control_c, 0, 64, 67
2, 121137, Control_c, 0, 64, 69
2, 121157, Control_c, 0, 64, 72
2, 121160, Note_on_c, 0, 59, 0
2, 121168, Note_on_c, 0, 74, 45
2, 121173, Note_on_c, 0, 79, 0
2, 121177, Control_c, 0, 64, 76
2, 121182, Note_on_c, 0, 62, 0
2, 121195, Control_c, 0, 64, 81
2, 121214, Control_c, 0, 64, 85
2, 121235, Control_c, 0, 64, 91
2, 121252, Control_c, 0, 64, 97
2, 121272, Control_c, 0, 64, 102
2, 121292, Control_c, 0, 64, 109
2, 121311, Control_c, 0, 64, 122
2, 121332, Control_c, 0, 64, 127
2, 121463, Control_c, 0, 64, 103
2, 121470, Note_on_c, 0, 59, 45
2, 121486, Control_c, 0, 64, 82
2, 121486, Note_on_c, 0, 62, 45
2, 121505, Control_c, 0, 64, 70
2, 121525, Control_c, 0, 64, 66
2, 121558, Control_c, 0, 64, 68
2, 121579, Control_c, 0, 64, 73
2, 121599, Control_c, 0, 64, 82
2, 121621, Control_c, 0, 64, 95
2, 121636, Control_c, 0, 64, 127
2, 121684, Note_on_c, 0, 74, 0
2, 121714, Note_on_c, 0, 78, 69
2, 121734, Note_on_c, 0, 59, 0
2, 121743, Note_on_c, 0, 62, 0
2, 121817, Note_on_c, 0, 78, 0
2, 121999, Note_on_c, 0, 59, 35
2, 122003, Note_on_c, 0, 62, 37
2, 122058, Control_c, 0, 64, 113
2, 122078, Control_c, 0, 64, 85
2, 122094, Note_on_c, 0, 79, 64
2, 122098, Control_c, 0, 64, 71
2, 122116, Control_c, 0, 64, 65
2, 122137, Control_c, 0, 64, 63
2, 122156, Control_c, 0, 64, 64
2, 122175, Control_c, 0, 64, 65
2, 122194, Control_c, 0, 64, 66
2, 122214, Control_c, 0, 64, 70
2, 122231, Control_c, 0, 64, 76
2, 122252, Control_c, 0, 64, 86
2, 122268, Note_on_c, 0, 79, 0
2, 122272, Control_c, 0, 64, 101
2, 122281, Note_on_c, 0, 59, 0
2, 122293, Control_c, 0, 64, 127
2, 122297, Note_on_c, 0, 81, 58
2, 122322, Note_on_c, 0, 62, 0
2, 122455, Note_on_c, 0, 83, 66
2, 122457, Note_on_c, 0, 81, 0
2, 122593, Note_on_c, 0, 83, 0
2, 122598, Control_c, 0, 64, 115
2, 122618, Control_c, 0, 64, 88
2, 122623, Note_on_c, 0, 59, 52
2, 122623, Note_on_c, 0, 62, 53
2, 122638, Control_c, 0, 64, 73
2, 122648, Note_on_c, 0, 81, 58
2, 122657, Control_c, 0, 64, 65
2, 122675, Control_c, 0, 64, 61
2, 122712, Control_c, 0, 64, 62
2, 122730, Control_c, 0, 64, 63
2, 122751, Control_c, 0, 64, 65
2, 122771, Control_c, 0, 64, 69
2, 122787, Control_c, 0, 64, 77
2, 122807, Note_on_c, 0, 81, 0
2, 122812, Control_c, 0, 64, 90
2, 122818, Note_on_c, 0, 80, 70
2, 122830, Control_c, 0, 64, 106
2, 122846, Control_c, 0, 64, 127
2, 122855, Note_on_c, 0, 59, 0
2, 122980, Note_on_c, 0, 78, 75
2, 122991, Note_on_c, 0, 80, 0
2, 123077, Control_c, 0, 64, 115
2, 123097, Control_c, 0, 64, 99
2, 123118, Control_c, 0, 64, 82
2, 123136, Control_c, 0, 64, 72
2, 123152, Control_c, 0, 64, 65
2, 123172, Control_c, 0, 64, 60
2, 123177, Note_on_c, 0, 61, 39
2, 123181, Note_on_c, 0, 62, 0
2, 123192, Control_c, 0, 64, 57
2, 123197, Note_on_c, 0, 59, 42
2, 123206, Note_on_c, 0, 77, 66
2, 123212, Control_c, 0, 64, 55
2, 123220, Note_on_c, 0, 78, 0
2, 123229, Control_c, 0, 64, 53
2, 123249, Control_c, 0, 64, 52
2, 123268, Control_c, 0, 64, 51
2, 123365, Control_c, 0, 64, 50
2, 123386, Note_on_c, 0, 78, 68
2, 123408, Note_on_c, 0, 77, 0
2, 123483, Control_c, 0, 64, 52
2, 123499, Control_c, 0, 64, 53
2, 123517, Control_c, 0, 64, 56
2, 123537, Control_c, 0, 64, 59
2, 123557, Control_c, 0, 64, 62
2, 123561, Note_on_c, 0, 80, 73
2, 123579, Control_c, 0, 64, 65
2, 123595, Control_c, 0, 64, 68
2, 123595, Note_on_c, 0, 78, 0
2, 123615, Control_c, 0, 64, 74
2, 123633, Control_c, 0, 64, 85
2, 123652, Control_c, 0, 64, 102
2, 123673, Control_c, 0, 64, 127
2, 123736, Note_on_c, 0, 78, 75
2, 123745, Note_on_c, 0, 61, 0
2, 123754, Note_on_c, 0, 59, 0
2, 123786, Note_on_c, 0, 80, 0
2, 123855, Note_on_c, 0, 78, 0
2, 123883, Note_on_c, 0, 77, 77
2, 124030, Note_on_c, 0, 77, 0
2, 124054, Note_on_c, 0, 75, 73
2, 124152, Control_c, 0, 64, 104
2, 124170, Control_c, 0, 64, 82
2, 124189, Control_c, 0, 64, 69
2, 124209, Control_c, 0, 64, 61
2, 124228, Control_c, 0, 64, 57
2, 124243, Note_on_c, 0, 73, 71
2, 124253, Control_c, 0, 64, 54
2, 124253, Note_on_c, 0, 75, 0
2, 124269, Control_c, 0, 64, 52
2, 124287, Control_c, 0, 64, 50
2, 124305, Control_c, 0, 64, 47
2, 124324, Control_c, 0, 64, 44
2, 124344, Control_c, 0, 64, 42
2, 124383, Control_c, 0, 64, 41
2, 124396, Note_on_c, 0, 71, 64
2, 124402, Control_c, 0, 64, 40
2, 124407, Note_on_c, 0, 73, 0
2, 124420, Control_c, 0, 64, 39
2, 124499, Control_c, 0, 64, 38
2, 124566, Note_on_c, 0, 71, 0
2, 124566, Note_on_c, 0, 73, 63
2, 124737, Note_on_c, 0, 56, 42
2, 124743, Note_on_c, 0, 53, 39
2, 124754, Note_on_c, 0, 74, 64
2, 124770, Note_on_c, 0, 73, 0
2, 124919, Note_on_c, 0, 73, 62
2, 124926, Note_on_c, 0, 74, 0
2, 125095, Note_on_c, 0, 71, 64
2, 125128, Note_on_c, 0, 73, 0
2, 125198, Note_on_c, 0, 53, 0
2, 125218, Note_on_c, 0, 71, 0
2, 125231, Note_on_c, 0, 69, 59
2, 125238, Note_on_c, 0, 56, 0
2, 125252, Note_on_c, 0, 61, 39
2, 125257, Note_on_c, 0, 54, 45
2, 125400, Note_on_c, 0, 69, 0
2, 125412, Note_on_c, 0, 71, 53
2, 125554, Control_c, 0, 64, 37
2, 125563, Note_on_c, 0, 71, 0
2, 125578, Note_on_c, 0, 73, 58
2, 125593, Control_c, 0, 64, 36
2, 125610, Control_c, 0, 64, 35
2, 125629, Control_c, 0, 64, 34
2, 125651, Control_c, 0, 64, 33
2, 125669, Control_c, 0, 64, 31
2, 125687, Control_c, 0, 64, 29
2, 125707, Control_c, 0, 64, 27
2, 125729, Control_c, 0, 64, 24
2, 125745, Control_c, 0, 64, 21
2, 125764, Control_c, 0, 64, 20
2, 125773, Note_on_c, 0, 49, 46
2, 125826, Note_on_c, 0, 71, 55
2, 125844, Note_on_c, 0, 54, 0
2, 125861, Control_c, 0, 64, 21
2, 125870, Note_on_c, 0, 73, 0
2, 125883, Control_c, 0, 64, 25
2, 125901, Control_c, 0, 64, 32
2, 125918, Control_c, 0, 64, 40
2, 125938, Control_c, 0, 64, 49
2, 125959, Control_c, 0, 64, 58
2, 125963, Note_on_c, 0, 71, 0
2, 125977, Control_c, 0, 64, 63
2, 125996, Control_c, 0, 64, 67
2, 126005, Note_on_c, 0, 69, 49
2, 126016, Control_c, 0, 64, 73
2, 126033, Control_c, 0, 64, 83
2, 126055, Control_c, 0, 64, 101
2, 126072, Control_c, 0, 64, 127
2, 126147, Note_on_c, 0, 69, 0
2, 126162, Note_on_c, 0, 68, 65
2, 126185, Note_on_c, 0, 49, 0
2, 126240, Note_on_c, 0, 61, 0
2, 126341, Control_c, 0, 64, 87
2, 126361, Control_c, 0, 64, 70
2, 126379, Control_c, 0, 64, 60
2, 126396, Note_on_c, 0, 68, 0
2, 126400, Control_c, 0, 64, 50
2, 126400, Note_on_c, 0, 50, 38
2, 126418, Control_c, 0, 64, 36
2, 126440, Control_c, 0, 64, 29
2, 126445, Note_on_c, 0, 66, 48
2, 126476, Control_c, 0, 64, 31
2, 126494, Control_c, 0, 64, 37
2, 126515, Control_c, 0, 64, 45
2, 126534, Control_c, 0, 64, 54
2, 126553, Control_c, 0, 64, 62
2, 126573, Control_c, 0, 64, 65
2, 126590, Control_c, 0, 64, 68
2, 126609, Control_c, 0, 64, 73
2, 126623, Note_on_c, 0, 66, 0
2, 126633, Control_c, 0, 64, 80
2, 126649, Control_c, 0, 64, 88
2, 126669, Control_c, 0, 64, 95
2, 126686, Control_c, 0, 64, 101
2, 126707, Control_c, 0, 64, 105
2, 126727, Control_c, 0, 64, 108
2, 126745, Control_c, 0, 64, 110
2, 126784, Control_c, 0, 64, 109
2, 126802, Control_c, 0, 64, 100
2, 126823, Control_c, 0, 64, 85
2, 126843, Control_c, 0, 64, 71
2, 126843, Note_on_c, 0, 77, 67
2, 126860, Control_c, 0, 64, 63
2, 126879, Control_c, 0, 64, 57
2, 126902, Control_c, 0, 64, 53
2, 126916, Control_c, 0, 64, 50
2, 126936, Control_c, 0, 64, 48
2, 126958, Control_c, 0, 64, 45
2, 126974, Control_c, 0, 64, 43
2, 127031, Control_c, 0, 64, 42
2, 127052, Control_c, 0, 64, 41
2, 127070, Control_c, 0, 64, 39
2, 127092, Control_c, 0, 64, 38
2, 127109, Control_c, 0, 64, 37
2, 127129, Control_c, 0, 64, 35
2, 127134, Note_on_c, 0, 61, 40
2, 127147, Control_c, 0, 64, 33
2, 127168, Control_c, 0, 64, 30
2, 127184, Control_c, 0, 64, 28
2, 127208, Control_c, 0, 64, 26
2, 127223, Control_c, 0, 64, 24
2, 127244, Control_c, 0, 64, 23
2, 127264, Control_c, 0, 64, 22
2, 127280, Control_c, 0, 64, 20
2, 127321, Control_c, 0, 64, 19
2, 127340, Control_c, 0, 64, 18
2, 127401, Note_on_c, 0, 77, 0
2, 127409, Note_on_c, 0, 78, 62
2, 127550, Control_c, 0, 64, 19
2, 127570, Control_c, 0, 64, 20
2, 127588, Control_c, 0, 64, 21
2, 127607, Control_c, 0, 64, 24
2, 127627, Control_c, 0, 64, 29
2, 127634, Note_on_c, 0, 61, 0
2, 127647, Control_c, 0, 64, 34
2, 127664, Control_c, 0, 64, 40
2, 127685, Control_c, 0, 64, 46
2, 127703, Note_on_c, 0, 59, 46
2, 127707, Control_c, 0, 64, 52
2, 127707, Note_on_c, 0, 78, 0
2, 127718, Note_on_c, 0, 68, 47
2, 127723, Control_c, 0, 64, 59
2, 127743, Control_c, 0, 64, 63
2, 127761, Control_c, 0, 64, 65
2, 127782, Control_c, 0, 64, 67
2, 127803, Control_c, 0, 64, 69
2, 127813, Note_on_c, 0, 50, 0
2, 127820, Control_c, 0, 64, 72
2, 127833, Note_on_c, 0, 68, 0
2, 127841, Control_c, 0, 64, 76
2, 127859, Control_c, 0, 64, 81
2, 127877, Control_c, 0, 64, 84
2, 127896, Control_c, 0, 64, 87
2, 128014, Control_c, 0, 64, 86
2, 128029, Control_c, 0, 64, 85
2, 128048, Control_c, 0, 64, 84
2, 128064, Note_on_c, 0, 78, 68
2, 128069, Control_c, 0, 64, 80
2, 128088, Control_c, 0, 64, 76
2, 128105, Control_c, 0, 64, 70
2, 128126, Control_c, 0, 64, 65
2, 128146, Control_c, 0, 64, 61
2, 128165, Control_c, 0, 64, 59
2, 128184, Control_c, 0, 64, 57
2, 128203, Control_c, 0, 64, 54
2, 128223, Control_c, 0, 64, 51
2, 128241, Control_c, 0, 64, 48
2, 128260, Control_c, 0, 64, 44
2, 128281, Control_c, 0, 64, 42
2, 128301, Control_c, 0, 64, 41
2, 128317, Control_c, 0, 64, 39
2, 128337, Control_c, 0, 64, 37
2, 128357, Control_c, 0, 64, 36
2, 128364, Note_on_c, 0, 50, 37
2, 128376, Control_c, 0, 64, 35
2, 128434, Control_c, 0, 64, 34
2, 128617, Note_on_c, 0, 77, 64
2, 128626, Control_c, 0, 64, 35
2, 128639, Note_on_c, 0, 78, 0
2, 128645, Control_c, 0, 64, 36
2, 128683, Control_c, 0, 64, 37
2, 128793, Note_on_c, 0, 59, 0
2, 128857, Control_c, 0, 64, 36
2, 128875, Control_c, 0, 64, 35
2, 128882, Note_on_c, 0, 49, 41
2, 128894, Control_c, 0, 64, 34
2, 128917, Note_on_c, 0, 70, 51
2, 128917, Note_on_c, 0, 77, 0
2, 128926, Note_on_c, 0, 50, 0
2, 128935, Control_c, 0, 64, 32
2, 128953, Control_c, 0, 64, 31
2, 128973, Control_c, 0, 64, 30
2, 129009, Control_c, 0, 64, 31
2, 129029, Control_c, 0, 64, 35
2, 129049, Control_c, 0, 64, 43
2, 129067, Control_c, 0, 64, 51
2, 129084, Control_c, 0, 64, 60
2, 129102, Control_c, 0, 64, 64
2, 129121, Control_c, 0, 64, 66
2, 129141, Control_c, 0, 64, 68
2, 129162, Control_c, 0, 64, 70
2, 129178, Control_c, 0, 64, 71
2, 129193, Note_on_c, 0, 70, 0
2, 129198, Control_c, 0, 64, 73
2, 129237, Control_c, 0, 64, 74
2, 129266, Note_on_c, 0, 76, 63
2, 129353, Control_c, 0, 64, 73
2, 129370, Control_c, 0, 64, 70
2, 129389, Control_c, 0, 64, 66
2, 129411, Control_c, 0, 64, 61
2, 129429, Control_c, 0, 64, 57
2, 129447, Control_c, 0, 64, 53
2, 129467, Control_c, 0, 64, 51
2, 129489, Control_c, 0, 64, 50
2, 129506, Control_c, 0, 64, 51
2, 129525, Control_c, 0, 64, 52
2, 129544, Control_c, 0, 64, 54
2, 129548, Note_on_c, 0, 58, 33
2, 129563, Control_c, 0, 64, 56
2, 129581, Note_on_c, 0, 55, 38
2, 129585, Control_c, 0, 64, 59
2, 129602, Control_c, 0, 64, 62
2, 129622, Control_c, 0, 64, 64
2, 129642, Control_c, 0, 64, 66
2, 129659, Control_c, 0, 64, 70
2, 129678, Control_c, 0, 64, 77
2, 129700, Control_c, 0, 64, 87
2, 129718, Control_c, 0, 64, 127
2, 129718, Note_on_c, 0, 49, 0
2, 129748, Note_on_c, 0, 55, 0
2, 129801, Note_on_c, 0, 76, 0
2, 129821, Note_on_c, 0, 75, 66
2, 129849, Note_on_c, 0, 58, 0
2, 130004, Note_on_c, 0, 75, 0
2, 130180, Control_c, 0, 64, 93
2, 130193, Note_on_c, 0, 60, 45
2, 130200, Control_c, 0, 64, 77
2, 130204, Note_on_c, 0, 54, 44
2, 130217, Control_c, 0, 64, 68
2, 130217, Note_on_c, 0, 75, 54
2, 130235, Control_c, 0, 64, 63
2, 130255, Control_c, 0, 64, 59
2, 130277, Control_c, 0, 64, 57
2, 130291, Control_c, 0, 64, 55
2, 130311, Control_c, 0, 64, 54
2, 130331, Control_c, 0, 64, 53
2, 130352, Control_c, 0, 64, 52
2, 130371, Control_c, 0, 64, 51
2, 130392, Note_on_c, 0, 75, 0
2, 130407, Note_on_c, 0, 76, 64
2, 130506, Control_c, 0, 64, 50
2, 130569, Note_on_c, 0, 76, 0
2, 130582, Control_c, 0, 64, 49
2, 130586, Note_on_c, 0, 78, 63
2, 130620, Control_c, 0, 64, 48
2, 130638, Control_c, 0, 64, 47
2, 130711, Note_on_c, 0, 60, 0
2, 130715, Control_c, 0, 64, 46
2, 130750, Note_on_c, 0, 61, 45
2, 130754, Note_on_c, 0, 78, 0
2, 130770, Note_on_c, 0, 76, 60
2, 130919, Note_on_c, 0, 76, 0
2, 130935, Note_on_c, 0, 75, 69
2, 131003, Control_c, 0, 64, 45
2, 131042, Control_c, 0, 64, 44
2, 131080, Control_c, 0, 64, 43
2, 131101, Control_c, 0, 64, 42
2, 131101, Note_on_c, 0, 73, 71
2, 131119, Control_c, 0, 64, 41
2, 131119, Note_on_c, 0, 75, 0
2, 131139, Control_c, 0, 64, 40
2, 131158, Control_c, 0, 64, 37
2, 131176, Control_c, 0, 64, 33
2, 131197, Control_c, 0, 64, 29
2, 131215, Control_c, 0, 64, 27
2, 131228, Note_on_c, 0, 61, 0
2, 131235, Control_c, 0, 64, 25
2, 131254, Control_c, 0, 64, 24
2, 131264, Note_on_c, 0, 63, 39
2, 131311, Control_c, 0, 64, 25
2, 131317, Note_on_c, 0, 73, 0
2, 131322, Note_on_c, 0, 72, 66
2, 131333, Control_c, 0, 64, 28
2, 131348, Control_c, 0, 64, 36
2, 131369, Control_c, 0, 64, 48
2, 131386, Control_c, 0, 64, 58
2, 131407, Control_c, 0, 64, 64
2, 131427, Control_c, 0, 64, 68
2, 131444, Control_c, 0, 64, 74
2, 131453, Note_on_c, 0, 54, 0
2, 131467, Control_c, 0, 64, 82
2, 131477, Note_on_c, 0, 73, 63
2, 131487, Control_c, 0, 64, 92
2, 131487, Note_on_c, 0, 72, 0
2, 131502, Control_c, 0, 64, 107
2, 131522, Control_c, 0, 64, 127
2, 131641, Note_on_c, 0, 75, 70
2, 131670, Note_on_c, 0, 73, 0
2, 131693, Note_on_c, 0, 63, 0
2, 131811, Control_c, 0, 64, 116
2, 131815, Note_on_c, 0, 52, 44
2, 131820, Note_on_c, 0, 56, 53
2, 131820, Note_on_c, 0, 73, 72
2, 131829, Control_c, 0, 64, 89
2, 131849, Control_c, 0, 64, 73
2, 131869, Control_c, 0, 64, 64
2, 131884, Note_on_c, 0, 75, 0
2, 131888, Control_c, 0, 64, 59
2, 131905, Control_c, 0, 64, 54
2, 131925, Control_c, 0, 64, 52
2, 131944, Control_c, 0, 64, 51
2, 131955, Note_on_c, 0, 73, 0
2, 131967, Control_c, 0, 64, 50
2, 131967, Note_on_c, 0, 72, 66
2, 131982, Control_c, 0, 64, 48
2, 132002, Control_c, 0, 64, 47
2, 132020, Control_c, 0, 64, 46
2, 132042, Control_c, 0, 64, 44
2, 132058, Control_c, 0, 64, 42
2, 132077, Control_c, 0, 64, 40
2, 132098, Control_c, 0, 64, 38
2, 132101, Note_on_c, 0, 72, 0
2, 132116, Note_on_c, 0, 70, 72
2, 132120, Control_c, 0, 64, 36
2, 132139, Control_c, 0, 64, 35
2, 132157, Control_c, 0, 64, 33
2, 132174, Control_c, 0, 64, 32
2, 132193, Control_c, 0, 64, 29
2, 132216, Control_c, 0, 64, 27
2, 132231, Control_c, 0, 64, 24
2, 132251, Control_c, 0, 64, 22
2, 132270, Control_c, 0, 64, 19
2, 132289, Control_c, 0, 64, 17
2, 132305, Note_on_c, 0, 68, 70
2, 132305, Note_on_c, 0, 70, 0
2, 132309, Control_c, 0, 64, 15
2, 132340, Note_on_c, 0, 58, 44
2, 132354, Note_on_c, 0, 56, 0
2, 132406, Control_c, 0, 64, 19
2, 132425, Control_c, 0, 64, 27
2, 132444, Control_c, 0, 64, 39
2, 132462, Control_c, 0, 64, 53
2, 132469, Note_on_c, 0, 68, 0
2, 132473, Note_on_c, 0, 66, 63
2, 132480, Control_c, 0, 64, 64
2, 132503, Control_c, 0, 64, 70
2, 132514, Note_on_c, 0, 52, 0
2, 132523, Control_c, 0, 64, 79
2, 132540, Control_c, 0, 64, 90
2, 132561, Control_c, 0, 64, 102
2, 132578, Control_c, 0, 64, 118
2, 132599, Control_c, 0, 64, 127
2, 132640, Note_on_c, 0, 68, 75
2, 132653, Note_on_c, 0, 66, 0
2, 132771, Control_c, 0, 64, 120
2, 132788, Control_c, 0, 64, 90
2, 132811, Control_c, 0, 64, 73
2, 132826, Control_c, 0, 64, 63
2, 132837, Note_on_c, 0, 69, 58
2, 132846, Control_c, 0, 64, 53
2, 132846, Note_on_c, 0, 58, 0
2, 132857, Note_on_c, 0, 60, 46
2, 132866, Control_c, 0, 64, 43
2, 132870, Note_on_c, 0, 51, 42
2, 132885, Control_c, 0, 64, 33
2, 132903, Control_c, 0, 64, 32
2, 132903, Note_on_c, 0, 68, 0
2, 132925, Control_c, 0, 64, 36
2, 132944, Control_c, 0, 64, 44
2, 132963, Control_c, 0, 64, 55
2, 132981, Control_c, 0, 64, 63
2, 133000, Control_c, 0, 64, 69
2, 133020, Control_c, 0, 64, 82
2, 133027, Note_on_c, 0, 68, 74
2, 133038, Control_c, 0, 64, 103
2, 133053, Note_on_c, 0, 69, 0
2, 133058, Control_c, 0, 64, 127
2, 133086, Note_on_c, 0, 51, 0
2, 133100, Note_on_c, 0, 60, 0
2, 133188, Note_on_c, 0, 66, 71
2, 133199, Note_on_c, 0, 68, 0
2, 133326, Control_c, 0, 64, 107
2, 133344, Control_c, 0, 64, 84
2, 133369, Control_c, 0, 64, 72
2, 133369, Note_on_c, 0, 65, 65
2, 133369, Note_on_c, 0, 66, 0
2, 133384, Control_c, 0, 64, 64
2, 133384, Note_on_c, 0, 59, 46
2, 133388, Note_on_c, 0, 49, 39
2, 133403, Control_c, 0, 64, 60
2, 133425, Control_c, 0, 64, 57
2, 133442, Control_c, 0, 64, 55
2, 133462, Control_c, 0, 64, 53
2, 133480, Control_c, 0, 64, 51
2, 133499, Control_c, 0, 64, 49
2, 133520, Control_c, 0, 64, 47
2, 133535, Note_on_c, 0, 66, 68
2, 133559, Note_on_c, 0, 65, 0
2, 133576, Control_c, 0, 64, 46
2, 133596, Control_c, 0, 64, 44
2, 133616, Control_c, 0, 64, 43
2, 133634, Control_c, 0, 64, 42
2, 133652, Control_c, 0, 64, 41
2, 133671, Control_c, 0, 64, 39
2, 133690, Control_c, 0, 64, 36
2, 133699, Note_on_c, 0, 68, 72
2, 133712, Control_c, 0, 64, 33
2, 133712, Note_on_c, 0, 66, 0
2, 133732, Control_c, 0, 64, 31
2, 133748, Control_c, 0, 64, 30
2, 133788, Control_c, 0, 64, 29
2, 133803, Note_on_c, 0, 59, 0
2, 133807, Control_c, 0, 64, 28
2, 133871, Note_on_c, 0, 57, 46
2, 133878, Note_on_c, 0, 66, 69
2, 133882, Note_on_c, 0, 51, 39
2, 133922, Note_on_c, 0, 68, 0
2, 133927, Control_c, 0, 64, 29
2, 133941, Control_c, 0, 64, 32
2, 133961, Control_c, 0, 64, 36
2, 133966, Note_on_c, 0, 49, 0
2, 133979, Control_c, 0, 64, 44
2, 133998, Control_c, 0, 64, 53
2, 134018, Control_c, 0, 64, 61
2, 134037, Control_c, 0, 64, 66
2, 134037, Note_on_c, 0, 66, 0
2, 134058, Control_c, 0, 64, 70
2, 134058, Note_on_c, 0, 65, 67
2, 134075, Control_c, 0, 64, 76
2, 134095, Control_c, 0, 64, 84
2, 134116, Control_c, 0, 64, 95
2, 134129, Note_on_c, 0, 51, 0
2, 134133, Control_c, 0, 64, 116
2, 134152, Control_c, 0, 64, 127
2, 134234, Note_on_c, 0, 65, 0
2, 134239, Note_on_c, 0, 63, 73
2, 134403, Control_c, 0, 64, 105
2, 134420, Control_c, 0, 64, 85
2, 134443, Control_c, 0, 64, 72
2, 134460, Control_c, 0, 64, 64
2, 134478, Control_c, 0, 64, 59
2, 134497, Control_c, 0, 64, 56
2, 134502, Note_on_c, 0, 63, 0
2, 134517, Control_c, 0, 64, 54
2, 134517, Note_on_c, 0, 61, 59
2, 134521, Note_on_c, 0, 53, 41
2, 134536, Control_c, 0, 64, 51
2, 134536, Note_on_c, 0, 56, 42
2, 134555, Control_c, 0, 64, 49
2, 134574, Control_c, 0, 64, 46
2, 134589, Note_on_c, 0, 57, 0
2, 134594, Control_c, 0, 64, 43
2, 134612, Control_c, 0, 64, 40
2, 134635, Control_c, 0, 64, 38
2, 134652, Control_c, 0, 64, 36
2, 134669, Control_c, 0, 64, 35
2, 134694, Control_c, 0, 64, 34
2, 134708, Control_c, 0, 64, 33
2, 134727, Control_c, 0, 64, 32
2, 134804, Control_c, 0, 64, 31
2, 135054, Control_c, 0, 64, 30
2, 135114, Note_on_c, 0, 56, 0
2, 135184, Note_on_c, 0, 57, 42
2, 135191, Control_c, 0, 64, 29
2, 135193, Note_on_c, 0, 53, 0
2, 135200, Note_on_c, 0, 54, 35
2, 135227, Control_c, 0, 64, 28
2, 135379, Control_c, 0, 64, 29
2, 135399, Control_c, 0, 64, 31
2, 135419, Control_c, 0, 64, 33
2, 135439, Control_c, 0, 64, 37
2, 135457, Control_c, 0, 64, 43
2, 135476, Control_c, 0, 64, 52
2, 135496, Control_c, 0, 64, 60
2, 135515, Control_c, 0, 64, 63
2, 135532, Control_c, 0, 64, 65
2, 135555, Control_c, 0, 64, 67
2, 135575, Control_c, 0, 64, 71
2, 135592, Control_c, 0, 64, 78
2, 135612, Control_c, 0, 64, 92
2, 135633, Control_c, 0, 64, 127
2, 135722, Note_on_c, 0, 61, 0
2, 135771, Note_on_c, 0, 54, 0
2, 135802, Control_c, 0, 64, 104
2, 135809, Note_on_c, 0, 57, 0
2, 135822, Control_c, 0, 64, 82
2, 135832, Note_on_c, 0, 56, 45
2, 135841, Control_c, 0, 64, 68
2, 135841, Note_on_c, 0, 59, 44
2, 135860, Control_c, 0, 64, 59
2, 135879, Control_c, 0, 64, 47
2, 135901, Control_c, 0, 64, 36
2, 135919, Control_c, 0, 64, 34
2, 135938, Control_c, 0, 64, 37
2, 135956, Control_c, 0, 64, 44
2, 135975, Control_c, 0, 64, 53
2, 135995, Control_c, 0, 64, 61
2, 136014, Control_c, 0, 64, 66
2, 136037, Control_c, 0, 64, 72
2, 136052, Control_c, 0, 64, 80
2, 136073, Control_c, 0, 64, 87
2, 136090, Control_c, 0, 64, 94
2, 136107, Note_on_c, 0, 59, 0
2, 136111, Control_c, 0, 64, 100
2, 136126, Note_on_c, 0, 56, 0
2, 136131, Control_c, 0, 64, 103
2, 136150, Control_c, 0, 64, 105
2, 136168, Control_c, 0, 64, 108
2, 136189, Control_c, 0, 64, 113
2, 136189, Note_on_c, 0, 65, 60
2, 136206, Control_c, 0, 64, 118
2, 136303, Control_c, 0, 64, 116
2, 136321, Control_c, 0, 64, 112
2, 136321, Note_on_c, 0, 68, 76
2, 136342, Control_c, 0, 64, 107
2, 136342, Note_on_c, 0, 65, 0
2, 136361, Control_c, 0, 64, 102
2, 136379, Control_c, 0, 64, 95
2, 136398, Control_c, 0, 64, 88
2, 136419, Control_c, 0, 64, 79
2, 136437, Control_c, 0, 64, 70
2, 136456, Control_c, 0, 64, 62
2, 136475, Control_c, 0, 64, 57
2, 136497, Control_c, 0, 64, 54
2, 136514, Control_c, 0, 64, 51
2, 136532, Control_c, 0, 64, 48
2, 136540, Note_on_c, 0, 71, 55
2, 136549, Note_on_c, 0, 68, 0
2, 136553, Control_c, 0, 64, 44
2, 136557, Note_on_c, 0, 53, 34
2, 136569, Note_on_c, 0, 44, 32
2, 136574, Control_c, 0, 64, 38
2, 136592, Control_c, 0, 64, 32
2, 136608, Control_c, 0, 64, 26
2, 136629, Control_c, 0, 64, 22
2, 136648, Control_c, 0, 64, 18
2, 136670, Control_c, 0, 64, 15
2, 136686, Control_c, 0, 64, 13
2, 136782, Control_c, 0, 64, 16
2, 136800, Control_c, 0, 64, 23
2, 136821, Control_c, 0, 64, 33
2, 136838, Control_c, 0, 64, 43
2, 136859, Control_c, 0, 64, 54
2, 136881, Control_c, 0, 64, 63
2, 136894, Note_on_c, 0, 71, 0
2, 136899, Control_c, 0, 64, 68
2, 136917, Control_c, 0, 64, 76
2, 136920, Note_on_c, 0, 74, 57
2, 136940, Control_c, 0, 64, 90
2, 136959, Control_c, 0, 64, 127
2, 136963, Note_on_c, 0, 53, 0
2, 136986, Note_on_c, 0, 44, 0
2, 137017, Note_on_c, 0, 74, 0
2, 137318, Note_on_c, 0, 54, 39
2, 137323, Control_c, 0, 64, 122
2, 137323, Note_on_c, 0, 73, 62
2, 137332, Note_on_c, 0, 45, 40
2, 137343, Control_c, 0, 64, 88
2, 137358, Control_c, 0, 64, 72
2, 137379, Control_c, 0, 64, 63
2, 137397, Control_c, 0, 64, 56
2, 137415, Control_c, 0, 64, 52
2, 137435, Control_c, 0, 64, 51
2, 137493, Control_c, 0, 64, 50
2, 137511, Control_c, 0, 64, 49
2, 137531, Control_c, 0, 64, 48
2, 137544, Note_on_c, 0, 73, 0
2, 137549, Note_on_c, 0, 75, 66
2, 137666, Control_c, 0, 64, 49
2, 137697, Note_on_c, 0, 75, 0
2, 137727, Note_on_c, 0, 77, 62
2, 137762, Control_c, 0, 64, 48
2, 137841, Control_c, 0, 64, 47
2, 137879, Control_c, 0, 64, 46
2, 137879, Note_on_c, 0, 77, 0
2, 137898, Note_on_c, 0, 49, 56
2, 137902, Control_c, 0, 64, 45
2, 137917, Control_c, 0, 64, 43
2, 137917, Note_on_c, 0, 54, 0
2, 137930, Note_on_c, 0, 78, 62
2, 137935, Control_c, 0, 64, 42
2, 137955, Control_c, 0, 64, 41
2, 138114, Note_on_c, 0, 76, 67
2, 138128, Note_on_c, 0, 78, 0
2, 138233, Note_on_c, 0, 76, 0
2, 138269, Note_on_c, 0, 74, 64
2, 138459, Note_on_c, 0, 74, 0
2, 138479, Note_on_c, 0, 54, 50
2, 138491, Note_on_c, 0, 73, 65
2, 138505, Note_on_c, 0, 49, 0
2, 138700, Note_on_c, 0, 71, 61
2, 138724, Note_on_c, 0, 73, 0
2, 138742, Control_c, 0, 64, 42
2, 138841, Note_on_c, 0, 71, 0
2, 138850, Note_on_c, 0, 69, 55
2, 138932, Note_on_c, 0, 45, 0
2, 139031, Note_on_c, 0, 69, 0
2, 139037, Note_on_c, 0, 47, 33
2, 139037, Note_on_c, 0, 74, 67
2, 139205, Note_on_c, 0, 73, 69
2, 139240, Note_on_c, 0, 74, 0
2, 139378, Note_on_c, 0, 71, 72
2, 139437, Note_on_c, 0, 73, 0
2, 139471, Control_c, 0, 64, 43
2, 139519, Note_on_c, 0, 71, 0
2, 139533, Note_on_c, 0, 47, 0
2, 139545, Note_on_c, 0, 69, 59
2, 139552, Note_on_c, 0, 49, 51
2, 139696, Note_on_c, 0, 69, 0
2, 139716, Note_on_c, 0, 68, 73
2, 139814, Control_c, 0, 64, 42
2, 139859, Note_on_c, 0, 66, 75
2, 139892, Control_c, 0, 64, 41
2, 139908, Note_on_c, 0, 68, 0
2, 139932, Control_c, 0, 64, 40
2, 139969, Control_c, 0, 64, 39
2, 139988, Control_c, 0, 64, 38
2, 140008, Control_c, 0, 64, 36
2, 140027, Control_c, 0, 64, 33
2, 140040, Note_on_c, 0, 68, 80
2, 140042, Note_on_c, 0, 49, 0
2, 140047, Control_c, 0, 64, 29
2, 140047, Note_on_c, 0, 53, 50
2, 140064, Note_on_c, 0, 47, 46
2, 140070, Control_c, 0, 64, 26
2, 140070, Note_on_c, 0, 66, 0
2, 140079, Note_on_c, 0, 54, 0
2, 140088, Control_c, 0, 64, 22
2, 140104, Control_c, 0, 64, 17
2, 140123, Control_c, 0, 64, 15
2, 140179, Control_c, 0, 64, 18
2, 140201, Control_c, 0, 64, 24
2, 140210, Note_on_c, 0, 66, 75
2, 140223, Control_c, 0, 64, 33
2, 140238, Control_c, 0, 64, 42
2, 140252, Note_on_c, 0, 68, 0
2, 140256, Control_c, 0, 64, 53
2, 140276, Control_c, 0, 64, 62
2, 140295, Control_c, 0, 64, 66
2, 140314, Control_c, 0, 64, 71
2, 140336, Control_c, 0, 64, 78
2, 140354, Control_c, 0, 64, 87
2, 140362, Note_on_c, 0, 47, 0
2, 140365, Note_on_c, 0, 66, 0
2, 140373, Control_c, 0, 64, 104
2, 140389, Note_on_c, 0, 65, 77
2, 140394, Control_c, 0, 64, 127
2, 140589, Note_on_c, 0, 65, 0
2, 140604, Control_c, 0, 64, 97
2, 140622, Control_c, 0, 64, 74
2, 140643, Control_c, 0, 64, 63
2, 140648, Note_on_c, 0, 66, 72
2, 140662, Control_c, 0, 64, 54
2, 140682, Control_c, 0, 64, 49
2, 140701, Control_c, 0, 64, 46
2, 140701, Note_on_c, 0, 46, 39
2, 140701, Note_on_c, 0, 53, 0
2, 140721, Control_c, 0, 64, 45
2, 140737, Control_c, 0, 64, 43
2, 140758, Control_c, 0, 64, 42
2, 140777, Control_c, 0, 64, 40
2, 140798, Control_c, 0, 64, 39
2, 140922, Note_on_c, 0, 64, 67
2, 141090, Note_on_c, 0, 62, 64
2, 141111, Note_on_c, 0, 64, 0
2, 141140, Control_c, 0, 64, 40
2, 141198, Control_c, 0, 64, 41
2, 141217, Control_c, 0, 64, 42
2, 141239, Control_c, 0, 64, 46
2, 141239, Note_on_c, 0, 54, 41
2, 141260, Control_c, 0, 64, 51
2, 141260, Note_on_c, 0, 61, 67
2, 141260, Note_on_c, 0, 62, 0
2, 141275, Control_c, 0, 64, 58
2, 141293, Control_c, 0, 64, 63
2, 141314, Control_c, 0, 64, 65
2, 141333, Control_c, 0, 64, 69
2, 141351, Control_c, 0, 64, 74
2, 141372, Control_c, 0, 64, 82
2, 141394, Control_c, 0, 64, 93
2, 141409, Control_c, 0, 64, 109
2, 141418, Note_on_c, 0, 62, 78
2, 141429, Control_c, 0, 64, 127
2, 141469, Note_on_c, 0, 61, 0
2, 141496, Note_on_c, 0, 46, 0
2, 141581, Note_on_c, 0, 54, 0
2, 141587, Note_on_c, 0, 64, 72
2, 141607, Note_on_c, 0, 62, 0
2, 141697, Control_c, 0, 64, 91
2, 141717, Control_c, 0, 64, 76
2, 141725, Note_on_c, 0, 47, 40
2, 141732, Note_on_c, 0, 64, 0
2, 141736, Control_c, 0, 64, 66
2, 141759, Control_c, 0, 64, 59
2, 141769, Note_on_c, 0, 62, 66
2, 141774, Control_c, 0, 64, 52
2, 141794, Control_c, 0, 64, 48
2, 141812, Control_c, 0, 64, 45
2, 141834, Control_c, 0, 64, 43
2, 141851, Control_c, 0, 64, 42
2, 141889, Control_c, 0, 64, 41
2, 141902, Note_on_c, 0, 62, 0
2, 141908, Control_c, 0, 64, 40
2, 141926, Control_c, 0, 64, 39
2, 141939, Note_on_c, 0, 61, 60
2, 142059, Note_on_c, 0, 61, 0
2, 142099, Note_on_c, 0, 59, 64
2, 142139, Control_c, 0, 64, 38
2, 142178, Control_c, 0, 64, 37
2, 142260, Note_on_c, 0, 59, 0
2, 142273, Note_on_c, 0, 58, 66
2, 142278, Control_c, 0, 64, 36
2, 142282, Note_on_c, 0, 49, 42
2, 142296, Control_c, 0, 64, 35
2, 142311, Control_c, 0, 64, 34
2, 142333, Control_c, 0, 64, 31
2, 142350, Control_c, 0, 64, 29
2, 142371, Control_c, 0, 64, 28
2, 142390, Control_c, 0, 64, 27
2, 142405, Control_c, 0, 64, 25
2, 142417, Note_on_c, 0, 58, 0
2, 142424, Control_c, 0, 64, 23
2, 142433, Note_on_c, 0, 59, 61
2, 142445, Control_c, 0, 64, 21
2, 142462, Control_c, 0, 64, 19
2, 142480, Control_c, 0, 64, 18
2, 142502, Control_c, 0, 64, 16
2, 142520, Control_c, 0, 64, 13
2, 142561, Control_c, 0, 64, 11
2, 142578, Control_c, 0, 64, 8
2, 142593, Note_on_c, 0, 59, 0
2, 142597, Control_c, 0, 64, 0
2, 142623, Note_on_c, 0, 61, 49
2, 142768, Note_on_c, 0, 66, 0
2, 142777, Note_on_c, 0, 49, 0
2, 142788, Note_on_c, 0, 61, 0
2, 142809, Note_on_c, 0, 59, 44
2, 142830, Note_on_c, 0, 50, 38
2, 142867, Control_c, 0, 64, 14
2, 142867, Note_on_c, 0, 47, 0
2, 142883, Control_c, 0, 64, 32
2, 142903, Control_c, 0, 64, 46
2, 142924, Control_c, 0, 64, 59
2, 142944, Control_c, 0, 64, 64
2, 142965, Control_c, 0, 64, 67
2, 142980, Control_c, 0, 64, 72
2, 142998, Control_c, 0, 64, 79
2, 143022, Control_c, 0, 64, 91
2, 143038, Control_c, 0, 64, 120
2, 143055, Note_on_c, 0, 50, 0
2, 143059, Control_c, 0, 64, 127
2, 143101, Note_on_c, 0, 59, 0
2, 143168, Note_on_c, 0, 65, 75
2, 143327, Control_c, 0, 64, 95
2, 143347, Control_c, 0, 64, 76
2, 143365, Control_c, 0, 64, 66
2, 143386, Control_c, 0, 64, 59
2, 143404, Control_c, 0, 64, 53
2, 143424, Control_c, 0, 64, 46
2, 143441, Control_c, 0, 64, 36
2, 143462, Control_c, 0, 64, 22
2, 143466, Note_on_c, 0, 47, 39
2, 143482, Control_c, 0, 64, 0
2, 143484, Note_on_c, 0, 54, 45
2, 143507, Note_on_c, 0, 57, 28
2, 143557, Control_c, 0, 64, 12
2, 143579, Control_c, 0, 64, 20
2, 143595, Control_c, 0, 64, 30
2, 143608, Note_on_c, 0, 57, 0
2, 143615, Control_c, 0, 64, 47
2, 143633, Control_c, 0, 64, 60
2, 143653, Control_c, 0, 64, 68
2, 143674, Control_c, 0, 64, 78
2, 143691, Control_c, 0, 64, 97
2, 143712, Control_c, 0, 64, 127
2, 143766, Note_on_c, 0, 66, 77
2, 143798, Note_on_c, 0, 65, 0
2, 143807, Note_on_c, 0, 47, 0
2, 143828, Note_on_c, 0, 66, 0
2, 143995, Note_on_c, 0, 54, 0
2, 144057, Control_c, 0, 64, 107
2, 144076, Control_c, 0, 64, 79
2, 144096, Control_c, 0, 64, 65
2, 144113, Control_c, 0, 64, 53
2, 144113, Note_on_c, 0, 53, 32
2, 144123, Note_on_c, 0, 56, 37
2, 144125, Note_on_c, 0, 74, 63
2, 144132, Control_c, 0, 64, 36
2, 144140, Note_on_c, 0, 49, 32
2, 144153, Control_c, 0, 64, 15
2, 144171, Control_c, 0, 64, 0
2, 144192, Control_c, 0, 64, 11
2, 144209, Control_c, 0, 64, 25
2, 144229, Control_c, 0, 64, 39
2, 144247, Control_c, 0, 64, 53
2, 144267, Control_c, 0, 64, 63
2, 144286, Control_c, 0, 64, 67
2, 144305, Control_c, 0, 64, 72
2, 144324, Control_c, 0, 64, 77
2, 144344, Control_c, 0, 64, 82
2, 144348, Note_on_c, 0, 56, 0
2, 144364, Control_c, 0, 64, 87
2, 144368, Note_on_c, 0, 74, 0
2, 144382, Control_c, 0, 64, 93
2, 144401, Control_c, 0, 64, 100
2, 144421, Control_c, 0, 64, 108
2, 144441, Control_c, 0, 64, 127
2, 144543, Note_on_c, 0, 72, 80
2, 144556, Control_c, 0, 64, 110
2, 144576, Control_c, 0, 64, 90
2, 144576, Note_on_c, 0, 53, 0
2, 144594, Control_c, 0, 64, 77
2, 144615, Control_c, 0, 64, 67
2, 144634, Control_c, 0, 64, 61
2, 144652, Control_c, 0, 64, 56
2, 144669, Control_c, 0, 64, 52
2, 144691, Control_c, 0, 64, 50
2, 144710, Control_c, 0, 64, 48
2, 144728, Control_c, 0, 64, 47
2, 144747, Control_c, 0, 64, 44
2, 144766, Control_c, 0, 64, 41
2, 144785, Control_c, 0, 64, 37
2, 144808, Control_c, 0, 64, 30
2, 144823, Control_c, 0, 64, 25
2, 144842, Control_c, 0, 64, 21
2, 144852, Note_on_c, 0, 54, 45
2, 144863, Control_c, 0, 64, 16
2, 144876, Note_on_c, 0, 57, 37
2, 144885, Control_c, 0, 64, 13
2, 144938, Control_c, 0, 64, 17
2, 144958, Control_c, 0, 64, 20
2, 144977, Control_c, 0, 64, 24
2, 144997, Control_c, 0, 64, 30
2, 145015, Control_c, 0, 64, 39
2, 145034, Control_c, 0, 64, 51
2, 145056, Control_c, 0, 64, 62
2, 145075, Control_c, 0, 64, 68
2, 145092, Control_c, 0, 64, 75
2, 145110, Note_on_c, 0, 57, 0
2, 145114, Control_c, 0, 64, 86
2, 145114, Note_on_c, 0, 54, 0
2, 145123, Note_on_c, 0, 73, 74
2, 145132, Control_c, 0, 64, 104
2, 145152, Control_c, 0, 64, 127
2, 145161, Note_on_c, 0, 72, 0
2, 145381, Control_c, 0, 64, 90
2, 145385, Note_on_c, 0, 73, 0
2, 145400, Control_c, 0, 64, 69
2, 145419, Control_c, 0, 64, 59
2, 145433, Note_on_c, 0, 56, 47
2, 145437, Control_c, 0, 64, 46
2, 145442, Note_on_c, 0, 65, 61
2, 145457, Control_c, 0, 64, 28
2, 145480, Control_c, 0, 64, 13
2, 145480, Note_on_c, 0, 59, 30
2, 145495, Control_c, 0, 64, 11
2, 145554, Control_c, 0, 64, 18
2, 145574, Control_c, 0, 64, 25
2, 145591, Control_c, 0, 64, 35
2, 145611, Control_c, 0, 64, 48
2, 145630, Control_c, 0, 64, 60
2, 145648, Control_c, 0, 64, 66
2, 145668, Control_c, 0, 64, 72
2, 145690, Control_c, 0, 64, 78
2, 145704, Note_on_c, 0, 56, 0
2, 145706, Control_c, 0, 64, 81
2, 145726, Control_c, 0, 64, 82
2, 145738, Note_on_c, 0, 65, 0
2, 145805, Control_c, 0, 64, 81
2, 145823, Control_c, 0, 64, 78
2, 145827, Note_on_c, 0, 71, 65
2, 145842, Control_c, 0, 64, 73
2, 145859, Control_c, 0, 64, 69
2, 145880, Control_c, 0, 64, 64
2, 145898, Control_c, 0, 64, 58
2, 145919, Control_c, 0, 64, 52
2, 145936, Control_c, 0, 64, 46
2, 145956, Control_c, 0, 64, 40
2, 145974, Control_c, 0, 64, 37
2, 145994, Control_c, 0, 64, 35
2, 146044, Note_on_c, 0, 59, 0
2, 146090, Note_on_c, 0, 49, 0
2, 146112, Control_c, 0, 64, 36
2, 146115, Note_on_c, 0, 54, 47
2, 146129, Control_c, 0, 64, 38
2, 146133, Note_on_c, 0, 50, 38
2, 146149, Control_c, 0, 64, 41
2, 146167, Control_c, 0, 64, 44
2, 146187, Control_c, 0, 64, 47
2, 146205, Control_c, 0, 64, 50
2, 146226, Control_c, 0, 64, 56
2, 146245, Control_c, 0, 64, 59
2, 146264, Control_c, 0, 64, 61
2, 146282, Control_c, 0, 64, 63
2, 146303, Control_c, 0, 64, 64
2, 146323, Control_c, 0, 64, 65
2, 146341, Control_c, 0, 64, 67
2, 146358, Control_c, 0, 64, 70
2, 146381, Note_on_c, 0, 71, 0
2, 146386, Control_c, 0, 64, 75
2, 146386, Note_on_c, 0, 69, 58
2, 146397, Control_c, 0, 64, 79
2, 146416, Control_c, 0, 64, 82
2, 146436, Control_c, 0, 64, 84
2, 146552, Control_c, 0, 64, 83
2, 146570, Control_c, 0, 64, 82
2, 146577, Note_on_c, 0, 50, 0
2, 146593, Control_c, 0, 64, 80
2, 146612, Control_c, 0, 64, 76
2, 146629, Control_c, 0, 64, 72
2, 146644, Note_on_c, 0, 47, 42
2, 146648, Control_c, 0, 64, 67
2, 146667, Control_c, 0, 64, 64
2, 146680, Note_on_c, 0, 54, 0
2, 146687, Control_c, 0, 64, 61
2, 146706, Control_c, 0, 64, 60
2, 146715, Note_on_c, 0, 69, 0
2, 146720, Note_on_c, 0, 68, 63
2, 146725, Control_c, 0, 64, 58
2, 146743, Control_c, 0, 64, 57
2, 146763, Control_c, 0, 64, 56
2, 146782, Control_c, 0, 64, 53
2, 146800, Control_c, 0, 64, 50
2, 146820, Control_c, 0, 64, 47
2, 146840, Control_c, 0, 64, 46
2, 146861, Control_c, 0, 64, 45
2, 146879, Control_c, 0, 64, 44
2, 146898, Control_c, 0, 64, 43
2, 146919, Control_c, 0, 64, 41
2, 146929, Note_on_c, 0, 71, 68
2, 146936, Control_c, 0, 64, 40
2, 146940, Note_on_c, 0, 68, 0
2, 146958, Control_c, 0, 64, 38
2, 146976, Control_c, 0, 64, 37
2, 146995, Control_c, 0, 64, 36
2, 147013, Control_c, 0, 64, 35
2, 147030, Control_c, 0, 64, 34
2, 147090, Control_c, 0, 64, 33
2, 147112, Note_on_c, 0, 69, 64
2, 147183, Note_on_c, 0, 71, 0
2, 147185, Control_c, 0, 64, 32
2, 147242, Control_c, 0, 64, 31
2, 147255, Note_on_c, 0, 69, 0
2, 147271, Note_on_c, 0, 49, 43
2, 147280, Note_on_c, 0, 68, 64
2, 147289, Note_on_c, 0, 53, 36
2, 147377, Control_c, 0, 64, 33
2, 147398, Control_c, 0, 64, 35
2, 147419, Control_c, 0, 64, 41
2, 147422, Note_on_c, 0, 68, 0
2, 147437, Control_c, 0, 64, 48
2, 147441, Note_on_c, 0, 47, 0
2, 147445, Note_on_c, 0, 66, 62
2, 147454, Control_c, 0, 64, 57
2, 147475, Control_c, 0, 64, 62
2, 147496, Control_c, 0, 64, 63
2, 147538, Note_on_c, 0, 49, 0
2, 147569, Control_c, 0, 64, 64
2, 147623, Note_on_c, 0, 65, 55
2, 147628, Note_on_c, 0, 66, 0
2, 147685, Control_c, 0, 64, 63
2, 147703, Control_c, 0, 64, 62
2, 147723, Control_c, 0, 64, 60
2, 147742, Control_c, 0, 64, 56
2, 147761, Control_c, 0, 64, 51
2, 147782, Control_c, 0, 64, 46
2, 147790, Note_on_c, 0, 49, 36
2, 147799, Control_c, 0, 64, 41
2, 147799, Note_on_c, 0, 53, 0
2, 147808, Note_on_c, 0, 45, 38
2, 147820, Control_c, 0, 64, 39
2, 147825, Note_on_c, 0, 66, 57
2, 147830, Note_on_c, 0, 65, 0
2, 147839, Control_c, 0, 64, 41
2, 147860, Control_c, 0, 64, 44
2, 147877, Control_c, 0, 64, 51
2, 147895, Control_c, 0, 64, 57
2, 147915, Control_c, 0, 64, 62
2, 147935, Control_c, 0, 64, 64
2, 147955, Control_c, 0, 64, 65
2, 147972, Control_c, 0, 64, 66
2, 147991, Control_c, 0, 64, 68
2, 148009, Note_on_c, 0, 68, 74
2, 148013, Control_c, 0, 64, 72
2, 148022, Note_on_c, 0, 66, 0
2, 148028, Control_c, 0, 64, 78
2, 148050, Control_c, 0, 64, 85
2, 148070, Control_c, 0, 64, 92
2, 148080, Note_on_c, 0, 45, 0
2, 148087, Control_c, 0, 64, 97
2, 148105, Control_c, 0, 64, 99
2, 148126, Control_c, 0, 64, 100
2, 148144, Note_on_c, 0, 68, 0
2, 148167, Note_on_c, 0, 69, 70
2, 148260, Control_c, 0, 64, 99
2, 148280, Control_c, 0, 64, 93
2, 148299, Control_c, 0, 64, 81
2, 148317, Control_c, 0, 64, 70
2, 148340, Control_c, 0, 64, 62
2, 148349, Note_on_c, 0, 69, 0
2, 148359, Control_c, 0, 64, 55
2, 148359, Note_on_c, 0, 71, 69
2, 148364, Note_on_c, 0, 49, 0
2, 148366, Note_on_c, 0, 44, 46
2, 148371, Note_on_c, 0, 53, 36
2, 148376, Control_c, 0, 64, 47
2, 148396, Control_c, 0, 64, 38
2, 148414, Control_c, 0, 64, 29
2, 148432, Control_c, 0, 64, 25
2, 148453, Control_c, 0, 64, 26
2, 148470, Control_c, 0, 64, 30
2, 148489, Control_c, 0, 64, 36
2, 148509, Control_c, 0, 64, 44
2, 148520, Note_on_c, 0, 73, 73
2, 148529, Control_c, 0, 64, 55
2, 148548, Control_c, 0, 64, 63
2, 148552, Note_on_c, 0, 71, 0
2, 148568, Control_c, 0, 64, 69
2, 148587, Control_c, 0, 64, 77
2, 148607, Control_c, 0, 64, 87
2, 148627, Control_c, 0, 64, 113
2, 148645, Control_c, 0, 64, 127
2, 148706, Note_on_c, 0, 74, 75
2, 148728, Note_on_c, 0, 44, 0
2, 148737, Note_on_c, 0, 73, 0
2, 148790, Note_on_c, 0, 74, 0
2, 148942, Note_on_c, 0, 61, 74
2, 148952, Control_c, 0, 64, 106
2, 148952, Note_on_c, 0, 45, 49
2, 148967, Note_on_c, 0, 53, 0
2, 148971, Control_c, 0, 64, 80
2, 148989, Control_c, 0, 64, 65
2, 149008, Control_c, 0, 64, 55
2, 149030, Control_c, 0, 64, 46
2, 149049, Control_c, 0, 64, 40
2, 149069, Control_c, 0, 64, 34
2, 149089, Control_c, 0, 64, 26
2, 149106, Control_c, 0, 64, 0
2, 149149, Note_on_c, 0, 54, 63
2, 149206, Note_on_c, 0, 54, 0
2, 149323, Note_on_c, 0, 52, 64
2, 149418, Note_on_c, 0, 52, 0
2, 149506, Note_on_c, 0, 45, 0
2, 149525, Note_on_c, 0, 50, 55
2, 149532, Note_on_c, 0, 61, 0
2, 149539, Note_on_c, 0, 66, 66
2, 149561, Note_on_c, 0, 56, 45
2, 149618, Note_on_c, 0, 50, 0
2, 149723, Note_on_c, 0, 49, 58
2, 149873, Control_c, 0, 64, 18
2, 149882, Note_on_c, 0, 49, 0
2, 149895, Control_c, 0, 64, 41
2, 149912, Control_c, 0, 64, 56
2, 149930, Control_c, 0, 64, 61
2, 149952, Control_c, 0, 64, 60
2, 149952, Note_on_c, 0, 47, 40
2, 149969, Control_c, 0, 64, 59
2, 150007, Control_c, 0, 64, 58
2, 150027, Control_c, 0, 64, 57
2, 150031, Note_on_c, 0, 56, 0
2, 150048, Control_c, 0, 64, 55
2, 150063, Control_c, 0, 64, 51
2, 150085, Control_c, 0, 64, 47
2, 150103, Control_c, 0, 64, 44
2, 150125, Control_c, 0, 64, 43
2, 150140, Control_c, 0, 64, 42
2, 150254, Note_on_c, 0, 57, 51
2, 150290, Note_on_c, 0, 49, 33
2, 150331, Note_on_c, 0, 47, 0
2, 150336, Control_c, 0, 64, 41
2, 150430, Note_on_c, 0, 66, 0
2, 150469, Control_c, 0, 64, 42
2, 150488, Control_c, 0, 64, 43
2, 150508, Control_c, 0, 64, 45
2, 150526, Control_c, 0, 64, 46
2, 150544, Control_c, 0, 64, 48
2, 150565, Control_c, 0, 64, 49
2, 150586, Control_c, 0, 64, 50
2, 150603, Control_c, 0, 64, 51
2, 150623, Control_c, 0, 64, 52
2, 150641, Control_c, 0, 64, 54
2, 150659, Control_c, 0, 64, 56
2, 150680, Control_c, 0, 64, 58
2, 150699, Control_c, 0, 64, 60
2, 150719, Control_c, 0, 64, 61
2, 150736, Control_c, 0, 64, 63
2, 150758, Control_c, 0, 64, 65
2, 150762, Note_on_c, 0, 66, 49
2, 150776, Control_c, 0, 64, 70
2, 150796, Control_c, 0, 64, 80
2, 150814, Control_c, 0, 64, 100
2, 150833, Control_c, 0, 64, 127
2, 150871, Note_on_c, 0, 57, 0
2, 151237, Control_c, 0, 64, 106
2, 151256, Control_c, 0, 64, 84
2, 151261, Note_on_c, 0, 59, 41
2, 151272, Note_on_c, 0, 37, 39
2, 151278, Control_c, 0, 64, 70
2, 151294, Control_c, 0, 64, 62
2, 151312, Control_c, 0, 64, 55
2, 151332, Control_c, 0, 64, 51
2, 151352, Control_c, 0, 64, 49
2, 151370, Control_c, 0, 64, 48
2, 151392, Control_c, 0, 64, 46
2, 151410, Control_c, 0, 64, 43
2, 151428, Control_c, 0, 64, 41
2, 151446, Control_c, 0, 64, 40
2, 151545, Control_c, 0, 64, 41
2, 151832, Control_c, 0, 64, 42
2, 151930, Control_c, 0, 64, 43
2, 151947, Control_c, 0, 64, 44
2, 151956, Note_on_c, 0, 65, 40
2, 151965, Control_c, 0, 64, 45
2, 151984, Control_c, 0, 64, 46
2, 152005, Control_c, 0, 64, 49
2, 152022, Note_on_c, 0, 66, 0
2, 152026, Control_c, 0, 64, 52
2, 152042, Control_c, 0, 64, 55
2, 152083, Control_c, 0, 64, 56
2, 152101, Control_c, 0, 64, 57
2, 152120, Control_c, 0, 64, 58
2, 152139, Control_c, 0, 64, 59
2, 152159, Control_c, 0, 64, 60
2, 152177, Control_c, 0, 64, 61
2, 152217, Control_c, 0, 64, 62
2, 152235, Control_c, 0, 64, 63
2, 152255, Control_c, 0, 64, 65
2, 152272, Control_c, 0, 64, 67
2, 152294, Control_c, 0, 64, 71
2, 152311, Control_c, 0, 64, 77
2, 152330, Control_c, 0, 64, 85
2, 152351, Control_c, 0, 64, 97
2, 152370, Control_c, 0, 64, 127
2, 152449, Note_on_c, 0, 59, 0
2, 152709, Note_on_c, 0, 37, 0
2, 153388, Control_c, 0, 64, 105
2, 153407, Control_c, 0, 64, 89
2, 153407, Note_on_c, 0, 66, 41
2, 153425, Control_c, 0, 64, 76
2, 153429, Note_on_c, 0, 58, 32
2, 153434, Note_on_c, 0, 42, 44
2, 153445, Control_c, 0, 64, 66
2, 153463, Control_c, 0, 64, 58
2, 153485, Control_c, 0, 64, 50
2, 153501, Control_c, 0, 64, 44
2, 153521, Control_c, 0, 64, 39
2, 153541, Control_c, 0, 64, 35
2, 153559, Control_c, 0, 64, 30
2, 153579, Control_c, 0, 64, 23
2, 153600, Control_c, 0, 64, 15
2, 153616, Control_c, 0, 64, 0
2, 153836, Note_on_c, 0, 65, 0
2, 157903, Note_on_c, 0, 49, 0
2, 157929, Note_on_c, 0, 58, 0
2, 157936, Note_on_c, 0, 42, 0
2, 157964, Note_on_c, 0, 66, 0
2, 159956,End_track
0, 0, End_of_file
