0, 0, Header, 1, 2, 480
1, 0, Start_track
1, 0, Tempo, 500000
1, 0, Time_signature, 4, 2, 24, 8
1, 1, End_track
2,0,Start_track
2,0, Note_on_c, 0, 61, 54
2,54, Note_on_c, 0, 61, 0
2,340, Note_on_c, 0, 57, 54
2,387, Note_on_c, 0, 57, 0
2,672, Note_on_c, 0, 54, 61
2,713, Note_on_c, 0, 54, 0
2,1044, Note_on_c, 0, 62, 71
2,2029, Note_on_c, 0, 62, 0
2,2061, Note_on_c, 0, 61, 66
2,2108, Note_on_c, 0, 61, 0
2,2205, Note_on_c, 0, 59, 65
2,2243, Note_on_c, 0, 59, 0
2,2409, Note_on_c, 0, 61, 59
2,3391, Note_on_c, 0, 61, 0
2,3442, Note_on_c, 0, 66, 66
2,3495, Note_on_c, 0, 66, 0
2,3814, Note_on_c, 0, 59, 57
2,4813, Note_on_c, 0, 59, 0
2,4873, Note_on_c, 0, 57, 56
2,4917, Note_on_c, 0, 57, 0
2,4997, Note_on_c, 0, 56, 59
2,5036, Note_on_c, 0, 56, 0
2,5152, Note_on_c, 0, 57, 72
2,5193, Note_on_c, 0, 57, 0
2,5498, Note_on_c, 0, 54, 71
2,5543, Note_on_c, 0, 54, 0
2,5813, Note_on_c, 0, 57, 63
2,5852, Note_on_c, 0, 57, 0
2,5872, Note_on_c, 0, 56, 53
2,5930, Note_on_c, 0, 56, 0
2,5946, Note_on_c, 0, 57, 67
2,5997, Note_on_c, 0, 57, 0
2,6040, Note_on_c, 0, 56, 62
2,6084, Note_on_c, 0, 56, 0
2,6126, Note_on_c, 0, 57, 54
2,6155, Note_on_c, 0, 57, 0
2,6168, Note_on_c, 0, 56, 71
2,6217, Note_on_c, 0, 56, 0
2,6246, Note_on_c, 0, 57, 73
2,6298, Note_on_c, 0, 57, 0
2,6331, Note_on_c, 0, 56, 68
2,6380, Note_on_c, 0, 56, 0
2,6410, Note_on_c, 0, 57, 63
2,6451, Note_on_c, 0, 57, 0
2,6483, Note_on_c, 0, 56, 62
2,6534, Note_on_c, 0, 56, 0
2,6542, Note_on_c, 0, 57, 69
2,6600, Note_on_c, 0, 57, 0
2,6624, Note_on_c, 0, 56, 70
2,6674, Note_on_c, 0, 56, 0
2,6702, Note_on_c, 0, 57, 67
2,6749, Note_on_c, 0, 57, 0
2,6790, Note_on_c, 0, 56, 53
2,6825, Note_on_c, 0, 56, 0
2,6833, Note_on_c, 0, 57, 71
2,6892, Note_on_c, 0, 57, 0
2,6915, Note_on_c, 0, 56, 69
2,6990, Note_on_c, 0, 56, 0
2,7005, Note_on_c, 0, 54, 72
2,7055, Note_on_c, 0, 54, 0
2,7357, Note_on_c, 0, 56, 58
2,7403, Note_on_c, 0, 56, 0
2,7673, Note_on_c, 0, 57, 62
2,7709, Note_on_c, 0, 57, 0
2,7990, Note_on_c, 0, 66, 62
2,8009, Note_on_c, 0, 59, 49
2,8034, Note_on_c, 0, 66, 0
2,8087, Note_on_c, 0, 59, 0
2,8308, Note_on_c, 0, 61, 43
2,8324, Note_on_c, 0, 64, 57
2,8469, Note_on_c, 0, 64, 0
2,8579, Note_on_c, 0, 61, 0
2,8673, Note_on_c, 0, 61, 54
2,8720, Note_on_c, 0, 61, 0
2,8988, Note_on_c, 0, 69, 63
2,9317, Note_on_c, 0, 63, 62
2,9355, Note_on_c, 0, 63, 0
2,9663, Note_on_c, 0, 64, 54
2,9840, Note_on_c, 0, 69, 0
2,9982, Note_on_c, 0, 68, 74
2,10022, Note_on_c, 0, 68, 0
2,10121, Note_on_c, 0, 66, 68
2,10163, Note_on_c, 0, 64, 0
2,10163, Note_on_c, 0, 66, 0
2,10305, Note_on_c, 0, 68, 75
2,10644, Note_on_c, 0, 64, 59
2,10688, Note_on_c, 0, 64, 0
2,10986, Note_on_c, 0, 58, 50
2,11166, Note_on_c, 0, 68, 0
2,11324, Note_on_c, 0, 73, 68
2,11371, Note_on_c, 0, 73, 0
2,11649, Note_on_c, 0, 66, 67
2,11695, Note_on_c, 0, 58, 0
2,12002, Note_on_c, 0, 60, 60
2,12040, Note_on_c, 0, 60, 0
2,12350, Note_on_c, 0, 61, 55
2,12485, Note_on_c, 0, 66, 0
2,12667, Note_on_c, 0, 64, 70
2,12708, Note_on_c, 0, 64, 0
2,12750, Note_on_c, 0, 61, 0
2,12798, Note_on_c, 0, 63, 63
2,12859, Note_on_c, 0, 63, 0
2,12973, Note_on_c, 0, 64, 64
2,13024, Note_on_c, 0, 64, 0
2,13295, Note_on_c, 0, 61, 71
2,13603, Note_on_c, 0, 64, 60
2,13643, Note_on_c, 0, 64, 0
2,13681, Note_on_c, 0, 63, 60
2,13725, Note_on_c, 0, 63, 0
2,13747, Note_on_c, 0, 64, 56
2,13797, Note_on_c, 0, 64, 0
2,13817, Note_on_c, 0, 61, 0
2,13822, Note_on_c, 0, 63, 62
2,13867, Note_on_c, 0, 60, 69
2,13874, Note_on_c, 0, 63, 0
2,13905, Note_on_c, 0, 64, 65
2,13916, Note_on_c, 0, 60, 0
2,13952, Note_on_c, 0, 64, 0
2,13994, Note_on_c, 0, 63, 51
2,14003, Note_on_c, 0, 58, 71
2,14030, Note_on_c, 0, 63, 0
2,14045, Note_on_c, 0, 58, 0
2,14054, Note_on_c, 0, 64, 71
2,14099, Note_on_c, 0, 64, 0
2,14133, Note_on_c, 0, 63, 63
2,14148, Note_on_c, 0, 60, 76
2,14176, Note_on_c, 0, 63, 0
2,14186, Note_on_c, 0, 60, 0
2,14207, Note_on_c, 0, 64, 66
2,14249, Note_on_c, 0, 64, 0
2,14289, Note_on_c, 0, 63, 57
2,14322, Note_on_c, 0, 63, 0
2,14337, Note_on_c, 0, 64, 72
2,14388, Note_on_c, 0, 64, 0
2,14416, Note_on_c, 0, 63, 61
2,14433, Note_on_c, 0, 56, 67
2,14450, Note_on_c, 0, 63, 0
2,14476, Note_on_c, 0, 56, 0
2,14480, Note_on_c, 0, 64, 71
2,14538, Note_on_c, 0, 63, 60
2,14584, Note_on_c, 0, 64, 0
2,14681, Note_on_c, 0, 63, 0
2,14721, Note_on_c, 0, 61, 68
2,14721, Note_on_c, 0, 64, 81
2,14756, Note_on_c, 0, 61, 0
2,15053, Note_on_c, 0, 73, 78
2,15096, Note_on_c, 0, 73, 0
2,15400, Note_on_c, 0, 66, 63
2,15419, Note_on_c, 0, 64, 0
2,15713, Note_on_c, 0, 57, 77
2,15761, Note_on_c, 0, 57, 0
2,16052, Note_on_c, 0, 66, 0
2,16061, Note_on_c, 0, 62, 58
2,16389, Note_on_c, 0, 71, 60
2,16422, Note_on_c, 0, 71, 0
2,16739, Note_on_c, 0, 64, 56
2,16760, Note_on_c, 0, 62, 0
2,17075, Note_on_c, 0, 56, 49
2,17126, Note_on_c, 0, 56, 0
2,17404, Note_on_c, 0, 61, 49
2,17480, Note_on_c, 0, 64, 0
2,17751, Note_on_c, 0, 69, 44
2,17985, Note_on_c, 0, 61, 0
2,18063, Note_on_c, 0, 59, 46
2,18365, Note_on_c, 0, 69, 0
2,18389, Note_on_c, 0, 68, 58
2,18634, Note_on_c, 0, 59, 0
2,18660, Note_on_c, 0, 68, 0
2,18688, Note_on_c, 0, 57, 58
2,18992, Note_on_c, 0, 66, 57
2,19135, Note_on_c, 0, 57, 0
2,19309, Note_on_c, 0, 56, 53
2,19320, Note_on_c, 0, 66, 0
2,19609, Note_on_c, 0, 49, 85
2,19609, Note_on_c, 0, 65, 59
2,19614, Note_on_c, 0, 56, 0
2,19654, Note_on_c, 0, 49, 0
2,19773, Note_on_c, 0, 65, 0
2,19929, Note_on_c, 0, 45, 84
2,19949, Note_on_c, 0, 66, 57
2,19956, Note_on_c, 0, 54, 51
2,19967, Note_on_c, 0, 45, 0
2,20271, Note_on_c, 0, 42, 63
2,20314, Note_on_c, 0, 42, 0
2,20479, Note_on_c, 0, 54, 0
2,20526, Note_on_c, 0, 66, 0
2,20588, Note_on_c, 0, 50, 72
2,20890, Note_on_c, 0, 71, 74
2,20932, Note_on_c, 0, 71, 0
2,21211, Note_on_c, 0, 68, 77
2,21246, Note_on_c, 0, 68, 0
2,21460, Note_on_c, 0, 50, 0
2,21531, Note_on_c, 0, 49, 65
2,21531, Note_on_c, 0, 64, 72
2,21566, Note_on_c, 0, 64, 0
2,21575, Note_on_c, 0, 49, 0
2,21667, Note_on_c, 0, 47, 67
2,21718, Note_on_c, 0, 47, 0
2,21828, Note_on_c, 0, 52, 64
2,21832, Note_on_c, 0, 49, 64
2,21877, Note_on_c, 0, 52, 0
2,22178, Note_on_c, 0, 69, 62
2,22243, Note_on_c, 0, 69, 0
2,22491, Note_on_c, 0, 66, 77
2,22505, Note_on_c, 0, 57, 55
2,22540, Note_on_c, 0, 57, 0
2,22546, Note_on_c, 0, 49, 0
2,22555, Note_on_c, 0, 66, 0
2,22811, Note_on_c, 0, 63, 78
2,22814, Note_on_c, 0, 54, 75
2,22849, Note_on_c, 0, 63, 0
2,22874, Note_on_c, 0, 54, 0
2,23105, Note_on_c, 0, 62, 77
2,23125, Note_on_c, 0, 47, 72
2,23164, Note_on_c, 0, 62, 0
2,23449, Note_on_c, 0, 68, 77
2,23458, Note_on_c, 0, 59, 69
2,23495, Note_on_c, 0, 59, 0
2,23534, Note_on_c, 0, 68, 0
2,23789, Note_on_c, 0, 65, 65
2,23817, Note_on_c, 0, 56, 53
2,23833, Note_on_c, 0, 47, 0
2,24052, Note_on_c, 0, 56, 0
2,24091, Note_on_c, 0, 45, 70
2,24104, Note_on_c, 0, 61, 61
2,24109, Note_on_c, 0, 65, 0
2,24139, Note_on_c, 0, 45, 0
2,24216, Note_on_c, 0, 44, 79
2,24261, Note_on_c, 0, 44, 0
2,24359, Note_on_c, 0, 45, 76
2,24372, Note_on_c, 0, 66, 75
2,24379, Note_on_c, 0, 61, 0
2,24415, Note_on_c, 0, 45, 0
2,24701, Note_on_c, 0, 42, 82
2,24712, Note_on_c, 0, 57, 71
2,24738, Note_on_c, 0, 42, 0
2,24776, Note_on_c, 0, 57, 0
2,25033, Note_on_c, 0, 45, 64
2,25033, Note_on_c, 0, 59, 75
2,25068, Note_on_c, 0, 45, 0
2,25074, Note_on_c, 0, 44, 64
2,25158, Note_on_c, 0, 44, 0
2,25163, Note_on_c, 0, 45, 64
2,25218, Note_on_c, 0, 45, 0
2,25278, Note_on_c, 0, 44, 55
2,25322, Note_on_c, 0, 59, 0
2,25324, Note_on_c, 0, 44, 0
2,25335, Note_on_c, 0, 62, 70
2,25360, Note_on_c, 0, 45, 55
2,25395, Note_on_c, 0, 62, 0
2,25400, Note_on_c, 0, 45, 0
2,25428, Note_on_c, 0, 44, 69
2,25480, Note_on_c, 0, 44, 0
2,25502, Note_on_c, 0, 45, 61
2,25550, Note_on_c, 0, 45, 0
2,25587, Note_on_c, 0, 44, 63
2,25637, Note_on_c, 0, 65, 68
2,25650, Note_on_c, 0, 44, 0
2,25665, Note_on_c, 0, 45, 60
2,25710, Note_on_c, 0, 45, 0
2,25747, Note_on_c, 0, 44, 63
2,25806, Note_on_c, 0, 44, 0
2,25815, Note_on_c, 0, 45, 65
2,25866, Note_on_c, 0, 45, 0
2,25877, Note_on_c, 0, 65, 0
2,25909, Note_on_c, 0, 44, 58
2,25911, Note_on_c, 0, 66, 0
2,25942, Note_on_c, 0, 56, 72
2,25955, Note_on_c, 0, 44, 0
2,25964, Note_on_c, 0, 45, 66
2,26014, Note_on_c, 0, 45, 0
2,26023, Note_on_c, 0, 56, 0
2,26066, Note_on_c, 0, 44, 57
2,26102, Note_on_c, 0, 44, 0
2,26108, Note_on_c, 0, 45, 64
2,26166, Note_on_c, 0, 45, 0
2,26239, Note_on_c, 0, 42, 54
2,26250, Note_on_c, 0, 66, 63
2,26257, Note_on_c, 0, 57, 56
2,26296, Note_on_c, 0, 57, 0
2,26296, Note_on_c, 0, 66, 0
2,26516, Note_on_c, 0, 42, 0
2,26595, Note_on_c, 0, 69, 58
2,26608, Note_on_c, 0, 61, 46
2,26646, Note_on_c, 0, 61, 0
2,26646, Note_on_c, 0, 69, 0
2,26908, Note_on_c, 0, 71, 63
2,26923, Note_on_c, 0, 50, 42
2,26958, Note_on_c, 0, 71, 0
2,27252, Note_on_c, 0, 74, 56
2,27266, Note_on_c, 0, 54, 41
2,27337, Note_on_c, 0, 74, 0
2,27541, Note_on_c, 0, 54, 0
2,27588, Note_on_c, 0, 56, 45
2,27875, Note_on_c, 0, 56, 0
2,27879, Note_on_c, 0, 68, 75
2,27896, Note_on_c, 0, 59, 50
2,27934, Note_on_c, 0, 68, 0
2,27965, Note_on_c, 0, 59, 0
2,28161, Note_on_c, 0, 50, 0
2,28188, Note_on_c, 0, 49, 48
2,28199, Note_on_c, 0, 69, 65
2,28238, Note_on_c, 0, 69, 0
2,28510, Note_on_c, 0, 73, 69
2,28525, Note_on_c, 0, 57, 43
2,28553, Note_on_c, 0, 73, 0
2,28595, Note_on_c, 0, 57, 0
2,28821, Note_on_c, 0, 49, 0
2,28839, Note_on_c, 0, 62, 64
2,28844, Note_on_c, 0, 47, 45
2,29154, Note_on_c, 0, 66, 66
2,29174, Note_on_c, 0, 62, 0
2,29281, Note_on_c, 0, 68, 68
2,29285, Note_on_c, 0, 47, 0
2,29298, Note_on_c, 0, 66, 0
2,29322, Note_on_c, 0, 68, 0
2,29416, Note_on_c, 0, 59, 57
2,29420, Note_on_c, 0, 69, 67
2,29469, Note_on_c, 0, 59, 0
2,29474, Note_on_c, 0, 69, 0
2,29487, Note_on_c, 0, 68, 67
2,29554, Note_on_c, 0, 68, 0
2,29570, Note_on_c, 0, 69, 68
2,29625, Note_on_c, 0, 69, 0
2,29659, Note_on_c, 0, 68, 72
2,29686, Note_on_c, 0, 52, 88
2,29718, Note_on_c, 0, 52, 0
2,29727, Note_on_c, 0, 68, 0
2,29727, Note_on_c, 0, 69, 70
2,29801, Note_on_c, 0, 68, 68
2,29801, Note_on_c, 0, 69, 0
2,29841, Note_on_c, 0, 68, 0
2,29862, Note_on_c, 0, 66, 75
2,29923, Note_on_c, 0, 68, 65
2,29942, Note_on_c, 0, 66, 0
2,29968, Note_on_c, 0, 68, 0
2,29968, Note_on_c, 0, 69, 79
2,29984, Note_on_c, 0, 49, 86
2,29984, Note_on_c, 0, 64, 75
2,30024, Note_on_c, 0, 64, 0
2,30029, Note_on_c, 0, 49, 0
2,30296, Note_on_c, 0, 45, 71
2,30330, Note_on_c, 0, 61, 62
2,30341, Note_on_c, 0, 45, 0
2,30394, Note_on_c, 0, 61, 0
2,30643, Note_on_c, 0, 69, 0
2,30648, Note_on_c, 0, 54, 77
2,30648, Note_on_c, 0, 63, 70
2,30793, Note_on_c, 0, 63, 0
2,30967, Note_on_c, 0, 75, 78
2,30980, Note_on_c, 0, 66, 66
2,31015, Note_on_c, 0, 66, 0
2,31079, Note_on_c, 0, 75, 0
2,31275, Note_on_c, 0, 72, 79
2,31355, Note_on_c, 0, 72, 0
2,31605, Note_on_c, 0, 60, 55
2,31607, Note_on_c, 0, 68, 75
2,31650, Note_on_c, 0, 60, 0
2,31767, Note_on_c, 0, 68, 0
2,31905, Note_on_c, 0, 54, 0
2,31915, Note_on_c, 0, 61, 58
2,31920, Note_on_c, 0, 52, 57
2,32104, Note_on_c, 0, 61, 0
2,32207, Note_on_c, 0, 73, 81
2,32240, Note_on_c, 0, 64, 54
2,32257, Note_on_c, 0, 52, 0
2,32278, Note_on_c, 0, 73, 0
2,32468, Note_on_c, 0, 64, 0
2,32493, Note_on_c, 0, 51, 51
2,32590, Note_on_c, 0, 78, 86
2,32878, Note_on_c, 0, 58, 64
2,32925, Note_on_c, 0, 51, 0
2,32973, Note_on_c, 0, 58, 0
2,33037, Note_on_c, 0, 60, 60
2,33110, Note_on_c, 0, 60, 0
2,33180, Note_on_c, 0, 78, 0
2,33193, Note_on_c, 0, 61, 57
2,33204, Note_on_c, 0, 75, 69
2,33234, Note_on_c, 0, 61, 0
2,33271, Note_on_c, 0, 60, 69
2,33312, Note_on_c, 0, 60, 0
2,33340, Note_on_c, 0, 61, 65
2,33402, Note_on_c, 0, 61, 0
2,33431, Note_on_c, 0, 60, 69
2,33491, Note_on_c, 0, 56, 67
2,33513, Note_on_c, 0, 75, 0
2,33528, Note_on_c, 0, 61, 78
2,33559, Note_on_c, 0, 60, 0
2,33602, Note_on_c, 0, 58, 71
2,33607, Note_on_c, 0, 56, 0
2,33686, Note_on_c, 0, 58, 0
2,33693, Note_on_c, 0, 61, 0
2,33696, Note_on_c, 0, 60, 42
2,33766, Note_on_c, 0, 52, 72
2,33766, Note_on_c, 0, 60, 0
2,33771, Note_on_c, 0, 80, 85
2,33779, Note_on_c, 0, 61, 81
2,33821, Note_on_c, 0, 52, 0
2,34113, Note_on_c, 0, 49, 68
2,34115, Note_on_c, 0, 80, 0
2,34119, Note_on_c, 0, 76, 80
2,34159, Note_on_c, 0, 49, 0
2,34382, Note_on_c, 0, 61, 0
2,34448, Note_on_c, 0, 78, 89
2,34456, Note_on_c, 0, 57, 61
2,34482, Note_on_c, 0, 76, 0
2,34758, Note_on_c, 0, 78, 0
2,34780, Note_on_c, 0, 81, 76
2,34791, Note_on_c, 0, 66, 52
2,34845, Note_on_c, 0, 66, 0
2,34920, Note_on_c, 0, 81, 0
2,35087, Note_on_c, 0, 62, 54
2,35144, Note_on_c, 0, 62, 0
2,35297, Note_on_c, 0, 57, 0
2,35412, Note_on_c, 0, 74, 70
2,35433, Note_on_c, 0, 59, 41
2,35462, Note_on_c, 0, 74, 0
2,35744, Note_on_c, 0, 76, 66
2,35750, Note_on_c, 0, 56, 44
2,35768, Note_on_c, 0, 59, 0
2,35788, Note_on_c, 0, 76, 0
2,36089, Note_on_c, 0, 80, 59
2,36103, Note_on_c, 0, 64, 46
2,36144, Note_on_c, 0, 64, 0
2,36144, Note_on_c, 0, 80, 0
2,36361, Note_on_c, 0, 56, 0
2,36417, Note_on_c, 0, 61, 55
2,36470, Note_on_c, 0, 61, 0
2,36720, Note_on_c, 0, 49, 47
2,36732, Note_on_c, 0, 73, 65
2,36750, Note_on_c, 0, 57, 50
2,36770, Note_on_c, 0, 73, 0
2,36979, Note_on_c, 0, 49, 0
2,36997, Note_on_c, 0, 57, 0
2,37068, Note_on_c, 0, 54, 51
2,37084, Note_on_c, 0, 71, 51
2,37345, Note_on_c, 0, 71, 0
2,37384, Note_on_c, 0, 62, 81
2,37388, Note_on_c, 0, 69, 64
2,37427, Note_on_c, 0, 69, 0
2,37457, Note_on_c, 0, 62, 0
2,37501, Note_on_c, 0, 61, 76
2,37572, Note_on_c, 0, 61, 0
2,37660, Note_on_c, 0, 59, 83
2,37686, Note_on_c, 0, 68, 71
2,37729, Note_on_c, 0, 59, 0
2,37996, Note_on_c, 0, 54, 0
2,38001, Note_on_c, 0, 57, 85
2,38070, Note_on_c, 0, 68, 0
2,38075, Note_on_c, 0, 57, 0
2,38282, Note_on_c, 0, 57, 79
2,38287, Note_on_c, 0, 53, 70
2,38323, Note_on_c, 0, 57, 0
2,38355, Note_on_c, 0, 56, 70
2,38403, Note_on_c, 0, 56, 0
2,38431, Note_on_c, 0, 57, 78
2,38470, Note_on_c, 0, 57, 0
2,38504, Note_on_c, 0, 56, 76
2,38578, Note_on_c, 0, 57, 86
2,38578, Note_on_c, 0, 73, 88
2,38582, Note_on_c, 0, 56, 0
2,38638, Note_on_c, 0, 57, 0
2,38654, Note_on_c, 0, 56, 67
2,38654, Note_on_c, 0, 73, 0
2,38708, Note_on_c, 0, 56, 0
2,38713, Note_on_c, 0, 57, 76
2,38767, Note_on_c, 0, 53, 0
2,38798, Note_on_c, 0, 56, 71
2,38798, Note_on_c, 0, 57, 0
2,38885, Note_on_c, 0, 56, 0
2,38892, Note_on_c, 0, 69, 85
2,38904, Note_on_c, 0, 54, 66
2,38920, Note_on_c, 0, 69, 0
2,39220, Note_on_c, 0, 57, 64
2,39224, Note_on_c, 0, 66, 79
2,39261, Note_on_c, 0, 66, 0
2,39273, Note_on_c, 0, 54, 0
2,39383, Note_on_c, 0, 57, 0
2,39557, Note_on_c, 0, 74, 67
2,39577, Note_on_c, 0, 59, 50
2,39799, Note_on_c, 0, 59, 0
2,39877, Note_on_c, 0, 71, 59
2,39903, Note_on_c, 0, 62, 42
2,39968, Note_on_c, 0, 71, 0
2,39972, Note_on_c, 0, 62, 0
2,40207, Note_on_c, 0, 64, 50
2,40227, Note_on_c, 0, 56, 49
2,40427, Note_on_c, 0, 64, 0
2,40444, Note_on_c, 0, 74, 0
2,40482, Note_on_c, 0, 56, 0
2,40529, Note_on_c, 0, 52, 47
2,40529, Note_on_c, 0, 73, 78
2,40581, Note_on_c, 0, 73, 0
2,40585, Note_on_c, 0, 52, 0
2,40668, Note_on_c, 0, 71, 84
2,40739, Note_on_c, 0, 71, 0
2,40838, Note_on_c, 0, 73, 77
2,40879, Note_on_c, 0, 57, 46
2,41116, Note_on_c, 0, 57, 0
2,41158, Note_on_c, 0, 64, 61
2,41181, Note_on_c, 0, 61, 43
2,41204, Note_on_c, 0, 64, 0
2,41242, Note_on_c, 0, 61, 0
2,41483, Note_on_c, 0, 69, 56
2,41492, Note_on_c, 0, 54, 46
2,41530, Note_on_c, 0, 73, 0
2,41747, Note_on_c, 0, 54, 0
2,41797, Note_on_c, 0, 78, 76
2,41818, Note_on_c, 0, 51, 45
2,41830, Note_on_c, 0, 78, 0
2,41878, Note_on_c, 0, 51, 0
2,42110, Note_on_c, 0, 69, 0
2,42123, Note_on_c, 0, 71, 68
2,42161, Note_on_c, 0, 56, 47
2,42266, Note_on_c, 0, 56, 0
2,42441, Note_on_c, 0, 68, 69
2,42452, Note_on_c, 0, 59, 49
2,42501, Note_on_c, 0, 59, 0
2,42563, Note_on_c, 0, 68, 0
2,42579, Note_on_c, 0, 66, 59
2,42755, Note_on_c, 0, 68, 61
2,42771, Note_on_c, 0, 66, 0
2,42780, Note_on_c, 0, 53, 45
2,42883, Note_on_c, 0, 71, 0
2,42994, Note_on_c, 0, 53, 0
2,43017, Note_on_c, 0, 68, 0
2,43071, Note_on_c, 0, 49, 47
2,43075, Note_on_c, 0, 69, 70
2,43084, Note_on_c, 0, 65, 52
2,43124, Note_on_c, 0, 65, 0
2,43163, Note_on_c, 0, 69, 0
2,43194, Note_on_c, 0, 68, 87
2,43270, Note_on_c, 0, 68, 0
2,43312, Note_on_c, 0, 49, 0
2,43347, Note_on_c, 0, 69, 72
2,43373, Note_on_c, 0, 54, 52
2,43390, Note_on_c, 0, 66, 63
2,43521, Note_on_c, 0, 66, 0
2,43654, Note_on_c, 0, 54, 0
2,43669, Note_on_c, 0, 66, 78
2,43673, Note_on_c, 0, 69, 0
2,43709, Note_on_c, 0, 57, 53
2,43865, Note_on_c, 0, 57, 0
2,43937, Note_on_c, 0, 66, 0
2,43978, Note_on_c, 0, 69, 70
2,44003, Note_on_c, 0, 59, 42
2,44031, Note_on_c, 0, 69, 0
2,44040, Note_on_c, 0, 68, 74
2,44089, Note_on_c, 0, 69, 68
2,44098, Note_on_c, 0, 59, 0
2,44102, Note_on_c, 0, 68, 0
2,44180, Note_on_c, 0, 68, 66
2,44204, Note_on_c, 0, 69, 0
2,44335, Note_on_c, 0, 56, 47
2,44339, Note_on_c, 0, 64, 66
2,44386, Note_on_c, 0, 56, 0
2,44464, Note_on_c, 0, 64, 0
2,44486, Note_on_c, 0, 63, 49
2,44624, Note_on_c, 0, 63, 0
2,44635, Note_on_c, 0, 64, 52
2,44657, Note_on_c, 0, 61, 50
2,44727, Note_on_c, 0, 61, 0
2,44999, Note_on_c, 0, 59, 52
2,45039, Note_on_c, 0, 59, 0
2,45328, Note_on_c, 0, 58, 45
2,45333, Note_on_c, 0, 66, 57
2,45341, Note_on_c, 0, 64, 0
2,45374, Note_on_c, 0, 68, 0
2,45556, Note_on_c, 0, 58, 0
2,45662, Note_on_c, 0, 54, 42
2,45662, Note_on_c, 0, 62, 55
2,45703, Note_on_c, 0, 54, 0
2,45714, Note_on_c, 0, 66, 0
2,45777, Note_on_c, 0, 61, 62
2,45777, Note_on_c, 0, 62, 0
2,45924, Note_on_c, 0, 61, 0
2,45943, Note_on_c, 0, 62, 63
2,45959, Note_on_c, 0, 59, 50
2,46016, Note_on_c, 0, 59, 0
2,46269, Note_on_c, 0, 71, 55
2,46290, Note_on_c, 0, 57, 46
2,46313, Note_on_c, 0, 71, 0
2,46330, Note_on_c, 0, 57, 0
2,46585, Note_on_c, 0, 64, 70
2,46599, Note_on_c, 0, 56, 51
2,46635, Note_on_c, 0, 64, 0
2,46646, Note_on_c, 0, 56, 0
2,46906, Note_on_c, 0, 68, 70
2,46936, Note_on_c, 0, 52, 35
2,46959, Note_on_c, 0, 62, 0
2,46968, Note_on_c, 0, 68, 0
2,46979, Note_on_c, 0, 52, 0
2,47212, Note_on_c, 0, 69, 56
2,47219, Note_on_c, 0, 61, 48
2,47224, Note_on_c, 0, 54, 51
2,47271, Note_on_c, 0, 54, 0
2,47525, Note_on_c, 0, 73, 64
2,47536, Note_on_c, 0, 57, 44
2,47578, Note_on_c, 0, 57, 0
2,47792, Note_on_c, 0, 69, 0
2,47818, Note_on_c, 0, 73, 0
2,47822, Note_on_c, 0, 66, 66
2,47835, Note_on_c, 0, 50, 64
2,47872, Note_on_c, 0, 50, 0
2,48130, Note_on_c, 0, 66, 0
2,48141, Note_on_c, 0, 61, 0
2,48141, Note_on_c, 0, 62, 60
2,48152, Note_on_c, 0, 47, 60
2,48194, Note_on_c, 0, 47, 0
2,48455, Note_on_c, 0, 68, 61
2,48460, Note_on_c, 0, 52, 57
2,48478, Note_on_c, 0, 59, 47
2,48502, Note_on_c, 0, 52, 0
2,48748, Note_on_c, 0, 62, 0
2,48767, Note_on_c, 0, 40, 51
2,48787, Note_on_c, 0, 68, 0
2,48800, Note_on_c, 0, 64, 52
2,48809, Note_on_c, 0, 40, 0
2,49028, Note_on_c, 0, 59, 0
2,49082, Note_on_c, 0, 45, 70
2,49096, Note_on_c, 0, 64, 0
2,49096, Note_on_c, 0, 69, 56
2,49117, Note_on_c, 0, 61, 45
2,49126, Note_on_c, 0, 45, 0
2,49220, Note_on_c, 0, 69, 0
2,49267, Note_on_c, 0, 61, 0
2,49403, Note_on_c, 0, 57, 90
2,49474, Note_on_c, 0, 57, 0
2,49730, Note_on_c, 0, 57, 83
2,49769, Note_on_c, 0, 57, 0
2,49789, Note_on_c, 0, 56, 83
2,49856, Note_on_c, 0, 57, 86
2,49860, Note_on_c, 0, 56, 0
2,49906, Note_on_c, 0, 56, 61
2,49919, Note_on_c, 0, 57, 0
2,50185, Note_on_c, 0, 56, 0
2,50245, Note_on_c, 0, 54, 67
2,50306, Note_on_c, 0, 54, 0
2,50412, Note_on_c, 0, 53, 67
2,50471, Note_on_c, 0, 53, 0
2,50708, Note_on_c, 0, 49, 44
2,50708, Note_on_c, 0, 61, 57
2,50749, Note_on_c, 0, 61, 0
2,50829, Note_on_c, 0, 49, 0
2,50991, Note_on_c, 0, 54, 46
2,51035, Note_on_c, 0, 61, 52
2,51071, Note_on_c, 0, 61, 0
2,51093, Note_on_c, 0, 59, 60
2,51122, Note_on_c, 0, 59, 0
2,51153, Note_on_c, 0, 61, 66
2,51186, Note_on_c, 0, 61, 0
2,51218, Note_on_c, 0, 59, 63
2,51558, Note_on_c, 0, 57, 61
2,51610, Note_on_c, 0, 57, 0
2,51610, Note_on_c, 0, 59, 0
2,51684, Note_on_c, 0, 56, 54
2,51707, Note_on_c, 0, 54, 0
2,51986, Note_on_c, 0, 74, 76
2,52026, Note_on_c, 0, 74, 0
2,52316, Note_on_c, 0, 53, 51
2,52324, Note_on_c, 0, 56, 0
2,52329, Note_on_c, 0, 74, 61
2,52365, Note_on_c, 0, 74, 0
2,52369, Note_on_c, 0, 73, 71
2,52412, Note_on_c, 0, 73, 0
2,52434, Note_on_c, 0, 74, 79
2,52499, Note_on_c, 0, 73, 71
2,52515, Note_on_c, 0, 74, 0
2,52631, Note_on_c, 0, 53, 0
2,52647, Note_on_c, 0, 52, 55
2,52651, Note_on_c, 0, 61, 49
2,52727, Note_on_c, 0, 73, 0
2,52769, Note_on_c, 0, 71, 69
2,52867, Note_on_c, 0, 61, 0
2,52918, Note_on_c, 0, 71, 0
2,52951, Note_on_c, 0, 54, 59
2,52955, Note_on_c, 0, 70, 74
2,52968, Note_on_c, 0, 52, 0
2,52986, Note_on_c, 0, 54, 0
2,53233, Note_on_c, 0, 70, 0
2,53265, Note_on_c, 0, 50, 95
2,53265, Note_on_c, 0, 66, 85
2,53359, Note_on_c, 0, 66, 0
2,53569, Note_on_c, 0, 49, 79
2,53569, Note_on_c, 0, 50, 0
2,53580, Note_on_c, 0, 71, 79
2,53585, Note_on_c, 0, 66, 69
2,53618, Note_on_c, 0, 49, 0
2,53618, Note_on_c, 0, 66, 0
2,53638, Note_on_c, 0, 64, 83
2,53696, Note_on_c, 0, 64, 0
2,53700, Note_on_c, 0, 66, 75
2,53784, Note_on_c, 0, 66, 0
2,53789, Note_on_c, 0, 64, 68
2,53878, Note_on_c, 0, 47, 76
2,53920, Note_on_c, 0, 47, 0
2,54039, Note_on_c, 0, 62, 76
2,54043, Note_on_c, 0, 64, 0
2,54125, Note_on_c, 0, 62, 0
2,54208, Note_on_c, 0, 52, 68
2,54213, Note_on_c, 0, 61, 73
2,54382, Note_on_c, 0, 61, 0
2,54482, Note_on_c, 0, 52, 0
2,54508, Note_on_c, 0, 67, 90
2,54514, Note_on_c, 0, 49, 68
2,54706, Note_on_c, 0, 67, 0
2,54748, Note_on_c, 0, 71, 0
2,54774, Note_on_c, 0, 49, 0
2,54802, Note_on_c, 0, 67, 81
2,54812, Note_on_c, 0, 54, 66
2,54813, Note_on_c, 0, 70, 75
2,54868, Note_on_c, 0, 70, 0
2,54893, Note_on_c, 0, 66, 78
2,54933, Note_on_c, 0, 66, 0
2,54939, Note_on_c, 0, 67, 0
2,54951, Note_on_c, 0, 70, 66
2,55023, Note_on_c, 0, 66, 77
2,55023, Note_on_c, 0, 70, 0
2,55105, Note_on_c, 0, 69, 75
2,55123, Note_on_c, 0, 42, 46
2,55141, Note_on_c, 0, 66, 0
2,55159, Note_on_c, 0, 54, 0
2,55253, Note_on_c, 0, 69, 0
2,55268, Note_on_c, 0, 64, 70
2,55358, Note_on_c, 0, 42, 0
2,55413, Note_on_c, 0, 64, 0
2,55445, Note_on_c, 0, 63, 61
2,55477, Note_on_c, 0, 47, 44
2,55751, Note_on_c, 0, 59, 64
2,55751, Note_on_c, 0, 71, 75
2,55790, Note_on_c, 0, 59, 0
2,55817, Note_on_c, 0, 63, 0
2,55843, Note_on_c, 0, 71, 0
2,55858, Note_on_c, 0, 47, 0
2,56055, Note_on_c, 0, 71, 62
2,56068, Note_on_c, 0, 64, 57
2,56093, Note_on_c, 0, 71, 0
2,56101, Note_on_c, 0, 69, 68
2,56160, Note_on_c, 0, 69, 0
2,56164, Note_on_c, 0, 71, 78
2,56244, Note_on_c, 0, 71, 0
2,56260, Note_on_c, 0, 69, 61
2,56302, Note_on_c, 0, 64, 0
2,56302, Note_on_c, 0, 64, 16
2,56384, Note_on_c, 0, 49, 61
2,56423, Note_on_c, 0, 49, 0
2,56515, Note_on_c, 0, 69, 0
2,56524, Note_on_c, 0, 68, 67
2,56702, Note_on_c, 0, 45, 67
2,56719, Note_on_c, 0, 66, 70
2,56719, Note_on_c, 0, 68, 0
2,56744, Note_on_c, 0, 45, 0
2,56820, Note_on_c, 0, 64, 0
2,57045, Note_on_c, 0, 61, 91
2,57268, Note_on_c, 0, 61, 0
2,57314, Note_on_c, 0, 66, 0
2,57370, Note_on_c, 0, 61, 84
2,57390, Note_on_c, 0, 63, 71
2,57422, Note_on_c, 0, 61, 0
2,57439, Note_on_c, 0, 59, 74
2,57509, Note_on_c, 0, 59, 0
2,57514, Note_on_c, 0, 61, 79
2,57580, Note_on_c, 0, 59, 61
2,57582, Note_on_c, 0, 61, 0
2,57696, Note_on_c, 0, 62, 71
2,57700, Note_on_c, 0, 63, 0
2,57742, Note_on_c, 0, 59, 0
2,57834, Note_on_c, 0, 57, 72
2,57881, Note_on_c, 0, 57, 0
2,57923, Note_on_c, 0, 62, 0
2,57986, Note_on_c, 0, 56, 75
2,57999, Note_on_c, 0, 64, 67
2,58025, Note_on_c, 0, 56, 0
2,58302, Note_on_c, 0, 52, 80
2,58324, Note_on_c, 0, 61, 58
2,58349, Note_on_c, 0, 52, 0
2,58360, Note_on_c, 0, 64, 0
2,58431, Note_on_c, 0, 59, 60
2,58452, Note_on_c, 0, 61, 0
2,58604, Note_on_c, 0, 57, 76
2,58611, Note_on_c, 0, 59, 0
2,58622, Note_on_c, 0, 61, 55
2,58659, Note_on_c, 0, 61, 0
2,58939, Note_on_c, 0, 69, 60
2,58944, Note_on_c, 0, 66, 64
2,58978, Note_on_c, 0, 66, 0
2,58983, Note_on_c, 0, 69, 0
2,59270, Note_on_c, 0, 71, 62
2,59282, Note_on_c, 0, 62, 52
2,59328, Note_on_c, 0, 62, 0
2,59617, Note_on_c, 0, 59, 63
2,59666, Note_on_c, 0, 59, 0
2,59939, Note_on_c, 0, 64, 60
2,59944, Note_on_c, 0, 56, 61
2,59944, Note_on_c, 0, 57, 0
2,60006, Note_on_c, 0, 56, 0
2,60230, Note_on_c, 0, 71, 0
2,60262, Note_on_c, 0, 68, 66
2,60269, Note_on_c, 0, 52, 47
2,60296, Note_on_c, 0, 68, 0
2,60366, Note_on_c, 0, 52, 0
2,60569, Note_on_c, 0, 64, 0
2,60597, Note_on_c, 0, 57, 35
2,60622, Note_on_c, 0, 73, 60
2,60925, Note_on_c, 0, 61, 52
2,60969, Note_on_c, 0, 61, 0
2,61262, Note_on_c, 0, 66, 57
2,61354, Note_on_c, 0, 73, 0
2,61554, Note_on_c, 0, 57, 0
2,61570, Note_on_c, 0, 69, 62
2,61592, Note_on_c, 0, 54, 44
2,61618, Note_on_c, 0, 69, 0
2,61867, Note_on_c, 0, 54, 0
2,61881, Note_on_c, 0, 66, 0
2,61939, Note_on_c, 0, 74, 54
2,61957, Note_on_c, 0, 59, 40
2,62242, Note_on_c, 0, 69, 56
2,62290, Note_on_c, 0, 69, 0
2,62529, Note_on_c, 0, 69, 56
2,62580, Note_on_c, 0, 69, 0
2,62599, Note_on_c, 0, 68, 76
2,62878, Note_on_c, 0, 56, 47
2,62882, Note_on_c, 0, 74, 0
2,62917, Note_on_c, 0, 59, 0
2,63006, Note_on_c, 0, 68, 0
2,63032, Note_on_c, 0, 66, 59
2,63070, Note_on_c, 0, 56, 0
2,63079, Note_on_c, 0, 61, 49
2,63227, Note_on_c, 0, 64, 65
2,63231, Note_on_c, 0, 66, 0
2,63521, Note_on_c, 0, 74, 70
2,63522, Note_on_c, 0, 64, 0
2,63544, Note_on_c, 0, 71, 65
2,63674, Note_on_c, 0, 71, 0
2,63683, Note_on_c, 0, 74, 0
2,63832, Note_on_c, 0, 69, 53
2,63841, Note_on_c, 0, 74, 39
2,63847, Note_on_c, 0, 73, 77
2,63878, Note_on_c, 0, 74, 0
2,63919, Note_on_c, 0, 73, 0
2,63931, Note_on_c, 0, 74, 70
2,63953, Note_on_c, 0, 69, 0
2,63996, Note_on_c, 0, 73, 64
2,64027, Note_on_c, 0, 74, 0
2,64141, Note_on_c, 0, 68, 86
2,64178, Note_on_c, 0, 73, 0
2,64255, Note_on_c, 0, 68, 0
2,64276, Note_on_c, 0, 71, 85
2,64292, Note_on_c, 0, 61, 0
2,64423, Note_on_c, 0, 71, 0
2,64444, Note_on_c, 0, 69, 76
2,64461, Note_on_c, 0, 66, 73
2,64751, Note_on_c, 0, 66, 0
2,64758, Note_on_c, 0, 69, 0
2,64769, Note_on_c, 0, 64, 94
2,64791, Note_on_c, 0, 61, 72
2,64966, Note_on_c, 0, 64, 0
2,64996, Note_on_c, 0, 61, 0
2,65089, Note_on_c, 0, 78, 81
2,65095, Note_on_c, 0, 64, 87
2,65104, Note_on_c, 0, 59, 74
2,65129, Note_on_c, 0, 64, 0
2,65152, Note_on_c, 0, 62, 71
2,65195, Note_on_c, 0, 62, 0
2,65223, Note_on_c, 0, 64, 80
2,65281, Note_on_c, 0, 64, 0
2,65313, Note_on_c, 0, 62, 73
2,65400, Note_on_c, 0, 59, 0
2,65437, Note_on_c, 0, 61, 69
2,65454, Note_on_c, 0, 62, 0
2,65569, Note_on_c, 0, 57, 77
2,65574, Note_on_c, 0, 61, 0
2,65627, Note_on_c, 0, 57, 0
2,65754, Note_on_c, 0, 59, 55
2,65768, Note_on_c, 0, 56, 66
2,65823, Note_on_c, 0, 78, 0
2,66052, Note_on_c, 0, 76, 82
2,66131, Note_on_c, 0, 76, 0
2,66266, Note_on_c, 0, 56, 0
2,66316, Note_on_c, 0, 59, 0
2,66321, Note_on_c, 0, 66, 47
2,66334, Note_on_c, 0, 58, 45
2,66375, Note_on_c, 0, 76, 71
2,66407, Note_on_c, 0, 76, 0
2,66431, Note_on_c, 0, 74, 67
2,66472, Note_on_c, 0, 74, 0
2,66485, Note_on_c, 0, 76, 80
2,66534, Note_on_c, 0, 76, 0
2,66559, Note_on_c, 0, 74, 70
2,66855, Note_on_c, 0, 74, 0
2,66871, Note_on_c, 0, 66, 0
2,66875, Note_on_c, 0, 73, 73
2,66951, Note_on_c, 0, 58, 0
2,67025, Note_on_c, 0, 74, 65
2,67034, Note_on_c, 0, 59, 76
2,67038, Note_on_c, 0, 73, 0
2,67076, Note_on_c, 0, 74, 0
2,67086, Note_on_c, 0, 59, 0
2,67362, Note_on_c, 0, 62, 94
2,67362, Note_on_c, 0, 71, 78
2,67400, Note_on_c, 0, 71, 0
2,67522, Note_on_c, 0, 62, 0
2,67670, Note_on_c, 0, 62, 86
2,67691, Note_on_c, 0, 76, 82
2,67697, Note_on_c, 0, 55, 62
2,67719, Note_on_c, 0, 62, 0
2,67750, Note_on_c, 0, 61, 77
2,67810, Note_on_c, 0, 62, 84
2,67816, Note_on_c, 0, 61, 0
2,67881, Note_on_c, 0, 61, 66
2,67883, Note_on_c, 0, 62, 0
2,68107, Note_on_c, 0, 61, 0
2,68124, Note_on_c, 0, 55, 0
2,68159, Note_on_c, 0, 59, 77
2,68305, Note_on_c, 0, 59, 0
2,68327, Note_on_c, 0, 54, 59
2,68327, Note_on_c, 0, 58, 66
2,68336, Note_on_c, 0, 76, 0
2,68385, Note_on_c, 0, 54, 0
2,68636, Note_on_c, 0, 78, 82
2,68655, Note_on_c, 0, 54, 55
2,68694, Note_on_c, 0, 78, 0
2,68698, Note_on_c, 0, 58, 0
2,68889, Note_on_c, 0, 54, 0
2,68964, Note_on_c, 0, 74, 71
2,68975, Note_on_c, 0, 59, 56
2,69000, Note_on_c, 0, 74, 0
2,69277, Note_on_c, 0, 71, 55
2,69308, Note_on_c, 0, 55, 42
2,69315, Note_on_c, 0, 71, 0
2,69350, Note_on_c, 0, 55, 0
2,69619, Note_on_c, 0, 73, 60
2,69621, Note_on_c, 0, 52, 57
2,69666, Note_on_c, 0, 52, 0
2,69782, Note_on_c, 0, 73, 0
2,69782, Note_on_c, 0, 73, 14
2,69944, Note_on_c, 0, 59, 0
2,69963, Note_on_c, 0, 49, 55
2,70033, Note_on_c, 0, 49, 0
2,70269, Note_on_c, 0, 54, 58
2,70280, Note_on_c, 0, 58, 55
2,70438, Note_on_c, 0, 54, 0
2,70447, Note_on_c, 0, 58, 0
2,70595, Note_on_c, 0, 66, 91
2,70595, Note_on_c, 0, 73, 0
2,70622, Note_on_c, 0, 70, 63
2,70684, Note_on_c, 0, 66, 0
2,70819, Note_on_c, 0, 70, 0
2,70934, Note_on_c, 0, 62, 88
2,70939, Note_on_c, 0, 71, 73
2,71003, Note_on_c, 0, 62, 0
2,71246, Note_on_c, 0, 59, 83
2,71249, Note_on_c, 0, 74, 73
2,71254, Note_on_c, 0, 71, 0
2,71287, Note_on_c, 0, 59, 0
2,71332, Note_on_c, 0, 74, 0
2,71563, Note_on_c, 0, 52, 73
2,71565, Note_on_c, 0, 74, 72
2,71570, Note_on_c, 0, 67, 67
2,71600, Note_on_c, 0, 74, 0
2,71615, Note_on_c, 0, 73, 77
2,71632, Note_on_c, 0, 52, 0
2,71676, Note_on_c, 0, 74, 76
2,71687, Note_on_c, 0, 73, 0
2,71776, Note_on_c, 0, 74, 0
2,71780, Note_on_c, 0, 73, 71
2,71893, Note_on_c, 0, 50, 58
2,71928, Note_on_c, 0, 50, 0
2,72019, Note_on_c, 0, 71, 73
2,72040, Note_on_c, 0, 73, 0
2,72169, Note_on_c, 0, 67, 0
2,72173, Note_on_c, 0, 71, 0
2,72180, Note_on_c, 0, 69, 72
2,72198, Note_on_c, 0, 49, 60
2,72391, Note_on_c, 0, 69, 0
2,72429, Note_on_c, 0, 49, 0
2,72493, Note_on_c, 0, 66, 84
2,72508, Note_on_c, 0, 45, 44
2,72549, Note_on_c, 0, 45, 0
2,72549, Note_on_c, 0, 66, 0
2,72622, Note_on_c, 0, 64, 89
2,72703, Note_on_c, 0, 64, 0
2,72796, Note_on_c, 0, 66, 78
2,72823, Note_on_c, 0, 50, 53
2,72873, Note_on_c, 0, 50, 0
2,73109, Note_on_c, 0, 49, 62
2,73134, Note_on_c, 0, 74, 54
2,73145, Note_on_c, 0, 49, 0
2,73418, Note_on_c, 0, 47, 74
2,73439, Note_on_c, 0, 67, 61
2,73455, Note_on_c, 0, 47, 0
2,73528, Note_on_c, 0, 66, 0
2,73694, Note_on_c, 0, 74, 0
2,73732, Note_on_c, 0, 50, 89
2,73736, Note_on_c, 0, 67, 0
2,73736, Note_on_c, 0, 71, 71
2,73920, Note_on_c, 0, 50, 0
2,74016, Note_on_c, 0, 71, 0
2,74048, Note_on_c, 0, 50, 82
2,74070, Note_on_c, 0, 64, 78
2,74098, Note_on_c, 0, 50, 0
2,74118, Note_on_c, 0, 49, 84
2,74188, Note_on_c, 0, 49, 0
2,74193, Note_on_c, 0, 50, 84
2,74260, Note_on_c, 0, 50, 0
2,74267, Note_on_c, 0, 49, 64
2,74385, Note_on_c, 0, 73, 62
2,74443, Note_on_c, 0, 49, 0
2,74500, Note_on_c, 0, 47, 69
2,74574, Note_on_c, 0, 47, 0
2,74646, Note_on_c, 0, 66, 76
2,74652, Note_on_c, 0, 46, 75
2,74659, Note_on_c, 0, 73, 0
2,74685, Note_on_c, 0, 64, 0
2,74694, Note_on_c, 0, 46, 0
2,74959, Note_on_c, 0, 42, 65
2,74982, Note_on_c, 0, 62, 73
2,75005, Note_on_c, 0, 42, 0
2,75039, Note_on_c, 0, 62, 0
2,75108, Note_on_c, 0, 61, 59
2,75217, Note_on_c, 0, 61, 0
2,75263, Note_on_c, 0, 47, 60
2,75275, Note_on_c, 0, 62, 70
2,75329, Note_on_c, 0, 62, 0
2,75604, Note_on_c, 0, 59, 68
2,75650, Note_on_c, 0, 59, 0
2,75700, Note_on_c, 0, 66, 0
2,75912, Note_on_c, 0, 47, 0
2,75930, Note_on_c, 0, 61, 61
2,76237, Note_on_c, 0, 65, 65
2,76245, Note_on_c, 0, 45, 42
2,76300, Note_on_c, 0, 45, 0
2,76304, Note_on_c, 0, 65, 0
2,76371, Note_on_c, 0, 44, 56
2,76434, Note_on_c, 0, 44, 0
2,76540, Note_on_c, 0, 45, 44
2,76549, Note_on_c, 0, 66, 63
2,76603, Note_on_c, 0, 66, 0
2,76876, Note_on_c, 0, 69, 57
2,76902, Note_on_c, 0, 61, 0
2,76925, Note_on_c, 0, 69, 0
2,77181, Note_on_c, 0, 63, 57
2,77192, Note_on_c, 0, 59, 43
2,77220, Note_on_c, 0, 45, 0
2,77467, Note_on_c, 0, 59, 0
2,77478, Note_on_c, 0, 66, 62
2,77482, Note_on_c, 0, 44, 72
2,77523, Note_on_c, 0, 63, 0
2,77527, Note_on_c, 0, 44, 0
2,77612, Note_on_c, 0, 42, 61
2,77649, Note_on_c, 0, 42, 0
2,77754, Note_on_c, 0, 66, 0
2,77772, Note_on_c, 0, 71, 59
2,77793, Note_on_c, 0, 44, 69
2,77836, Note_on_c, 0, 44, 0
2,78090, Note_on_c, 0, 40, 59
2,78106, Note_on_c, 0, 68, 56
2,78132, Note_on_c, 0, 40, 0
2,78395, Note_on_c, 0, 49, 69
2,78408, Note_on_c, 0, 64, 59
2,78408, Note_on_c, 0, 71, 0
2,78422, Note_on_c, 0, 68, 0
2,78450, Note_on_c, 0, 49, 0
2,78711, Note_on_c, 0, 37, 54
2,78719, Note_on_c, 0, 69, 76
2,78775, Note_on_c, 0, 37, 0
2,78799, Note_on_c, 0, 69, 0
2,78849, Note_on_c, 0, 68, 84
2,78928, Note_on_c, 0, 68, 0
2,79015, Note_on_c, 0, 49, 52
2,79015, Note_on_c, 0, 69, 66
2,79054, Note_on_c, 0, 69, 0
2,79323, Note_on_c, 0, 73, 75
2,79361, Note_on_c, 0, 64, 0
2,79391, Note_on_c, 0, 73, 0
2,79641, Note_on_c, 0, 66, 68
2,79647, Note_on_c, 0, 49, 0
2,79656, Note_on_c, 0, 62, 58
2,79944, Note_on_c, 0, 47, 70
2,79955, Note_on_c, 0, 69, 55
2,79986, Note_on_c, 0, 47, 0
2,80075, Note_on_c, 0, 45, 68
2,80102, Note_on_c, 0, 66, 0
2,80109, Note_on_c, 0, 45, 0
2,80226, Note_on_c, 0, 69, 0
2,80246, Note_on_c, 0, 74, 75
2,80262, Note_on_c, 0, 47, 66
2,80294, Note_on_c, 0, 62, 0
2,80298, Note_on_c, 0, 47, 0
2,80575, Note_on_c, 0, 44, 55
2,80594, Note_on_c, 0, 71, 51
2,80616, Note_on_c, 0, 44, 0
2,80872, Note_on_c, 0, 41, 48
2,80877, Note_on_c, 0, 68, 62
2,80890, Note_on_c, 0, 71, 0
2,80911, Note_on_c, 0, 41, 0
2,80995, Note_on_c, 0, 74, 0
2,81170, Note_on_c, 0, 56, 61
2,81170, Note_on_c, 0, 68, 0
2,81170, Note_on_c, 0, 74, 75
2,81202, Note_on_c, 0, 65, 47
2,81240, Note_on_c, 0, 65, 0
2,81272, Note_on_c, 0, 74, 0
2,81405, Note_on_c, 0, 56, 0
2,81438, Note_on_c, 0, 53, 52
2,81463, Note_on_c, 0, 74, 59
2,81499, Note_on_c, 0, 74, 0
2,81507, Note_on_c, 0, 73, 78
2,81573, Note_on_c, 0, 73, 0
2,81573, Note_on_c, 0, 74, 85
2,81643, Note_on_c, 0, 73, 69
2,81652, Note_on_c, 0, 74, 0
2,81725, Note_on_c, 0, 53, 0
2,81774, Note_on_c, 0, 68, 78
2,81794, Note_on_c, 0, 49, 45
2,81798, Note_on_c, 0, 73, 0
2,81839, Note_on_c, 0, 49, 0
2,81905, Note_on_c, 0, 68, 0
2,81910, Note_on_c, 0, 71, 76
2,82069, Note_on_c, 0, 69, 63
2,82069, Note_on_c, 0, 71, 0
2,82083, Note_on_c, 0, 54, 61
2,82120, Note_on_c, 0, 54, 0
2,82398, Note_on_c, 0, 56, 67
2,82398, Note_on_c, 0, 66, 60
2,82445, Note_on_c, 0, 56, 0
2,82505, Note_on_c, 0, 66, 0
2,82509, Note_on_c, 0, 65, 66
2,82578, Note_on_c, 0, 65, 0
2,82690, Note_on_c, 0, 66, 65
2,82697, Note_on_c, 0, 57, 61
2,82748, Note_on_c, 0, 57, 0
2,82761, Note_on_c, 0, 66, 0
2,82990, Note_on_c, 0, 54, 76
2,83001, Note_on_c, 0, 63, 70
2,83030, Note_on_c, 0, 54, 0
2,83052, Note_on_c, 0, 69, 0
2,83256, Note_on_c, 0, 63, 0
2,83313, Note_on_c, 0, 56, 65
2,83318, Note_on_c, 0, 60, 70
2,83401, Note_on_c, 0, 56, 0
2,83631, Note_on_c, 0, 68, 85
2,83635, Note_on_c, 0, 44, 71
2,83670, Note_on_c, 0, 44, 0
2,83760, Note_on_c, 0, 66, 77
2,83790, Note_on_c, 0, 68, 0
2,83950, Note_on_c, 0, 68, 79
2,83967, Note_on_c, 0, 66, 0
2,84040, Note_on_c, 0, 68, 0
2,84190, Note_on_c, 0, 60, 0
2,84230, Note_on_c, 0, 56, 90
2,84243, Note_on_c, 0, 63, 85
2,84288, Note_on_c, 0, 56, 0
2,84379, Note_on_c, 0, 63, 0
2,84529, Note_on_c, 0, 64, 87
2,84534, Note_on_c, 0, 52, 85
2,84538, Note_on_c, 0, 61, 70
2,84567, Note_on_c, 0, 64, 0
2,84571, Note_on_c, 0, 61, 0
2,84575, Note_on_c, 0, 52, 0
2,84840, Note_on_c, 0, 76, 90
2,84853, Note_on_c, 0, 49, 67
2,84889, Note_on_c, 0, 76, 0
2,84894, Note_on_c, 0, 49, 0
2,85187, Note_on_c, 0, 57, 80
2,85187, Note_on_c, 0, 76, 74
2,85241, Note_on_c, 0, 75, 72
2,85245, Note_on_c, 0, 76, 0
2,85298, Note_on_c, 0, 76, 81
2,85314, Note_on_c, 0, 75, 0
2,85361, Note_on_c, 0, 75, 69
2,85405, Note_on_c, 0, 76, 0
2,85677, Note_on_c, 0, 73, 80
2,85708, Note_on_c, 0, 75, 0
2,85805, Note_on_c, 0, 72, 89
2,85838, Note_on_c, 0, 73, 0
2,86095, Note_on_c, 0, 78, 91
2,86099, Note_on_c, 0, 72, 0
2,86113, Note_on_c, 0, 56, 81
2,86113, Note_on_c, 0, 75, 63
2,86121, Note_on_c, 0, 57, 0
2,86143, Note_on_c, 0, 75, 0
2,86155, Note_on_c, 0, 78, 0
2,86211, Note_on_c, 0, 56, 0
2,86243, Note_on_c, 0, 54, 81
2,86357, Note_on_c, 0, 54, 0
2,86401, Note_on_c, 0, 56, 89
2,86414, Note_on_c, 0, 76, 90
2,86432, Note_on_c, 0, 75, 74
2,86517, Note_on_c, 0, 73, 77
2,86548, Note_on_c, 0, 75, 0
2,86577, Note_on_c, 0, 73, 0
2,86612, Note_on_c, 0, 75, 64
2,86706, Note_on_c, 0, 76, 0
2,86711, Note_on_c, 0, 73, 67
2,86771, Note_on_c, 0, 75, 0
2,86849, Note_on_c, 0, 73, 0
2,86867, Note_on_c, 0, 72, 81
2,86996, Note_on_c, 0, 72, 0
2,87045, Note_on_c, 0, 76, 89
2,87066, Note_on_c, 0, 73, 70
2,87086, Note_on_c, 0, 56, 0
2,87226, Note_on_c, 0, 73, 0
2,87226, Note_on_c, 0, 73, 6
2,87363, Note_on_c, 0, 71, 76
2,87371, Note_on_c, 0, 61, 85
2,87405, Note_on_c, 0, 73, 0
2,87432, Note_on_c, 0, 61, 0
2,87656, Note_on_c, 0, 71, 0
2,87696, Note_on_c, 0, 54, 90
2,87701, Note_on_c, 0, 69, 69
2,87757, Note_on_c, 0, 69, 0
2,87871, Note_on_c, 0, 76, 0
2,88001, Note_on_c, 0, 75, 86
2,88005, Note_on_c, 0, 66, 72
2,88043, Note_on_c, 0, 66, 0
2,88127, Note_on_c, 0, 73, 86
2,88235, Note_on_c, 0, 75, 0
2,88285, Note_on_c, 0, 54, 0
2,88288, Note_on_c, 0, 60, 68
2,88297, Note_on_c, 0, 80, 90
2,88303, Note_on_c, 0, 73, 0
2,88418, Note_on_c, 0, 80, 0
2,88502, Note_on_c, 0, 60, 0
2,88582, Note_on_c, 0, 52, 80
2,88589, Note_on_c, 0, 63, 79
2,88589, Note_on_c, 0, 72, 90
2,88619, Note_on_c, 0, 63, 0
2,88619, Note_on_c, 0, 72, 0
2,88689, Note_on_c, 0, 52, 0
2,88703, Note_on_c, 0, 51, 80
2,88858, Note_on_c, 0, 51, 0
2,88866, Note_on_c, 0, 52, 64
2,88873, Note_on_c, 0, 73, 89
2,88877, Note_on_c, 0, 56, 73
2,88932, Note_on_c, 0, 52, 0
2,89205, Note_on_c, 0, 49, 64
2,89214, Note_on_c, 0, 68, 75
2,89290, Note_on_c, 0, 68, 0
2,89452, Note_on_c, 0, 49, 0
2,89489, Note_on_c, 0, 56, 0
2,89520, Note_on_c, 0, 66, 65
2,89531, Note_on_c, 0, 51, 56
2,89648, Note_on_c, 0, 66, 0
2,89685, Note_on_c, 0, 68, 62
2,89817, Note_on_c, 0, 66, 61
2,89878, Note_on_c, 0, 68, 0
2,89943, Note_on_c, 0, 66, 0
2,89951, Note_on_c, 0, 64, 65
2,89985, Note_on_c, 0, 73, 0
2,90097, Note_on_c, 0, 56, 49
2,90103, Note_on_c, 0, 72, 74
2,90123, Note_on_c, 0, 64, 0
2,90127, Note_on_c, 0, 66, 50
2,90141, Note_on_c, 0, 51, 0
2,90208, Note_on_c, 0, 66, 0
2,90274, Note_on_c, 0, 64, 57
2,90405, Note_on_c, 0, 63, 56
2,90410, Note_on_c, 0, 64, 0
2,90439, Note_on_c, 0, 72, 0
2,90529, Note_on_c, 0, 63, 0
2,90547, Note_on_c, 0, 66, 52
2,90621, Note_on_c, 0, 56, 0
2,90670, Note_on_c, 0, 49, 35
2,90705, Note_on_c, 0, 66, 0
2,90714, Note_on_c, 0, 73, 61
2,90721, Note_on_c, 0, 64, 54
2,90828, Note_on_c, 0, 64, 0
2,90862, Note_on_c, 0, 66, 58
2,90942, Note_on_c, 0, 49, 0
2,91004, Note_on_c, 0, 64, 59
2,91004, Note_on_c, 0, 66, 0
2,91161, Note_on_c, 0, 63, 63
2,91165, Note_on_c, 0, 64, 0
2,91217, Note_on_c, 0, 63, 0
2,91269, Note_on_c, 0, 73, 0
2,91303, Note_on_c, 0, 64, 68
2,91377, Note_on_c, 0, 64, 0
2,91445, Note_on_c, 0, 63, 55
2,91549, Note_on_c, 0, 63, 0
2,91573, Note_on_c, 0, 61, 59
2,91578, Note_on_c, 0, 73, 65
2,91628, Note_on_c, 0, 73, 0
2,91643, Note_on_c, 0, 61, 0
2,91732, Note_on_c, 0, 64, 51
2,91813, Note_on_c, 0, 64, 0
2,91907, Note_on_c, 0, 63, 43
2,91909, Note_on_c, 0, 71, 47
2,91959, Note_on_c, 0, 63, 0
2,92026, Note_on_c, 0, 71, 0
2,92062, Note_on_c, 0, 73, 54
2,92152, Note_on_c, 0, 73, 0
2,92193, Note_on_c, 0, 71, 55
2,92201, Note_on_c, 0, 68, 56
2,92232, Note_on_c, 0, 68, 0
2,92275, Note_on_c, 0, 71, 0
2,92321, Note_on_c, 0, 69, 56
2,92429, Note_on_c, 0, 69, 0
2,92469, Note_on_c, 0, 71, 63
2,92478, Note_on_c, 0, 61, 48
2,92519, Note_on_c, 0, 61, 0
2,92591, Note_on_c, 0, 71, 0
2,92610, Note_on_c, 0, 69, 59
2,92702, Note_on_c, 0, 69, 0
2,92766, Note_on_c, 0, 68, 61
2,92770, Note_on_c, 0, 65, 52
2,92816, Note_on_c, 0, 65, 0
2,92888, Note_on_c, 0, 68, 0
2,92903, Note_on_c, 0, 71, 64
2,93009, Note_on_c, 0, 71, 0
2,93062, Note_on_c, 0, 66, 62
2,93066, Note_on_c, 0, 69, 61
2,93119, Note_on_c, 0, 66, 0
2,93204, Note_on_c, 0, 62, 64
2,93208, Note_on_c, 0, 71, 71
2,93240, Note_on_c, 0, 69, 0
2,93277, Note_on_c, 0, 62, 0
2,93334, Note_on_c, 0, 61, 68
2,93355, Note_on_c, 0, 69, 68
2,93402, Note_on_c, 0, 71, 0
2,93425, Note_on_c, 0, 61, 0
2,93472, Note_on_c, 0, 69, 0
2,93479, Note_on_c, 0, 59, 70
2,93484, Note_on_c, 0, 68, 80
2,93534, Note_on_c, 0, 59, 0
2,93591, Note_on_c, 0, 68, 0
2,93610, Note_on_c, 0, 61, 72
2,93624, Note_on_c, 0, 69, 76
2,93694, Note_on_c, 0, 61, 0
2,93752, Note_on_c, 0, 57, 67
2,93757, Note_on_c, 0, 68, 84
2,93804, Note_on_c, 0, 69, 0
2,93890, Note_on_c, 0, 57, 0
2,93899, Note_on_c, 0, 54, 69
2,93903, Note_on_c, 0, 66, 81
2,93918, Note_on_c, 0, 62, 69
2,93925, Note_on_c, 0, 68, 0
2,93942, Note_on_c, 0, 54, 0
2,93989, Note_on_c, 0, 62, 0
2,94052, Note_on_c, 0, 69, 79
2,94066, Note_on_c, 0, 66, 0
2,94177, Note_on_c, 0, 69, 0
2,94186, Note_on_c, 0, 68, 85
2,94201, Note_on_c, 0, 52, 74
2,94238, Note_on_c, 0, 68, 0
2,94278, Note_on_c, 0, 52, 0
2,94334, Note_on_c, 0, 54, 80
2,94455, Note_on_c, 0, 54, 0
2,94475, Note_on_c, 0, 56, 80
2,94475, Note_on_c, 0, 73, 86
2,94488, Note_on_c, 0, 52, 69
2,94534, Note_on_c, 0, 56, 0
2,94538, Note_on_c, 0, 73, 0
2,94579, Note_on_c, 0, 52, 0
2,94617, Note_on_c, 0, 50, 60
2,94675, Note_on_c, 0, 50, 0
2,94764, Note_on_c, 0, 66, 80
2,94772, Note_on_c, 0, 52, 61
2,94779, Note_on_c, 0, 58, 65
2,94808, Note_on_c, 0, 66, 0
2,94816, Note_on_c, 0, 58, 0
2,94866, Note_on_c, 0, 52, 0
2,94915, Note_on_c, 0, 50, 67
2,95051, Note_on_c, 0, 50, 0
2,95055, Note_on_c, 0, 70, 74
2,95060, Note_on_c, 0, 49, 66
2,95069, Note_on_c, 0, 61, 54
2,95098, Note_on_c, 0, 61, 0
2,95121, Note_on_c, 0, 70, 0
2,95144, Note_on_c, 0, 49, 0
2,95209, Note_on_c, 0, 52, 65
2,95340, Note_on_c, 0, 52, 0
2,95349, Note_on_c, 0, 71, 74
2,95358, Note_on_c, 0, 54, 55
2,95372, Note_on_c, 0, 50, 51
2,95422, Note_on_c, 0, 71, 0
2,95427, Note_on_c, 0, 54, 0
2,95445, Note_on_c, 0, 50, 0
2,95499, Note_on_c, 0, 52, 57
2,95591, Note_on_c, 0, 52, 0
2,95650, Note_on_c, 0, 66, 76
2,95657, Note_on_c, 0, 50, 56
2,95690, Note_on_c, 0, 66, 0
2,95743, Note_on_c, 0, 50, 0
2,95795, Note_on_c, 0, 49, 56
2,95889, Note_on_c, 0, 49, 0
2,95948, Note_on_c, 0, 71, 69
2,95967, Note_on_c, 0, 50, 51
2,96045, Note_on_c, 0, 50, 0
2,96086, Note_on_c, 0, 49, 55
2,96187, Note_on_c, 0, 49, 0
2,96246, Note_on_c, 0, 47, 47
2,96250, Note_on_c, 0, 66, 60
2,96371, Note_on_c, 0, 47, 0
2,96382, Note_on_c, 0, 50, 56
2,96457, Note_on_c, 0, 50, 0
2,96547, Note_on_c, 0, 49, 66
2,96551, Note_on_c, 0, 66, 0
2,96564, Note_on_c, 0, 64, 59
2,96583, Note_on_c, 0, 49, 0
2,96682, Note_on_c, 0, 64, 0
2,96689, Note_on_c, 0, 66, 53
2,96852, Note_on_c, 0, 42, 55
2,96856, Note_on_c, 0, 64, 52
2,96895, Note_on_c, 0, 42, 0
2,97013, Note_on_c, 0, 63, 58
2,97017, Note_on_c, 0, 64, 0
2,97031, Note_on_c, 0, 66, 0
2,97043, Note_on_c, 0, 71, 0
2,97143, Note_on_c, 0, 63, 0
2,97152, Note_on_c, 0, 54, 62
2,97159, Note_on_c, 0, 64, 66
2,97159, Note_on_c, 0, 69, 70
2,97191, Note_on_c, 0, 54, 0
2,97203, Note_on_c, 0, 64, 0
2,97322, Note_on_c, 0, 63, 54
2,97413, Note_on_c, 0, 63, 0
2,97471, Note_on_c, 0, 57, 51
2,97471, Note_on_c, 0, 61, 48
2,97506, Note_on_c, 0, 57, 0
2,97568, Note_on_c, 0, 61, 0
2,97609, Note_on_c, 0, 64, 50
2,97769, Note_on_c, 0, 47, 68
2,97778, Note_on_c, 0, 64, 0
2,97789, Note_on_c, 0, 63, 55
2,97803, Note_on_c, 0, 47, 0
2,97934, Note_on_c, 0, 63, 0
2,97948, Note_on_c, 0, 64, 54
2,97955, Note_on_c, 0, 69, 0
2,98093, Note_on_c, 0, 59, 66
2,98100, Note_on_c, 0, 64, 0
2,98118, Note_on_c, 0, 63, 56
2,98143, Note_on_c, 0, 59, 0
2,98186, Note_on_c, 0, 63, 0
2,98231, Note_on_c, 0, 61, 55
2,98336, Note_on_c, 0, 61, 0
2,98374, Note_on_c, 0, 52, 64
2,98383, Note_on_c, 0, 63, 54
2,98383, Note_on_c, 0, 68, 68
2,98422, Note_on_c, 0, 52, 0
2,98465, Note_on_c, 0, 63, 0
2,98506, Note_on_c, 0, 61, 50
2,98653, Note_on_c, 0, 61, 0
2,98666, Note_on_c, 0, 56, 54
2,98678, Note_on_c, 0, 60, 52
2,98708, Note_on_c, 0, 56, 0
2,98807, Note_on_c, 0, 60, 0
2,98832, Note_on_c, 0, 63, 46
2,98962, Note_on_c, 0, 45, 66
2,98979, Note_on_c, 0, 61, 55
2,98979, Note_on_c, 0, 63, 0
2,99004, Note_on_c, 0, 45, 0
2,99102, Note_on_c, 0, 61, 0
2,99133, Note_on_c, 0, 63, 53
2,99257, Note_on_c, 0, 61, 58
2,99279, Note_on_c, 0, 44, 56
2,99321, Note_on_c, 0, 44, 0
2,99326, Note_on_c, 0, 63, 0
2,99344, Note_on_c, 0, 68, 0
2,99365, Note_on_c, 0, 61, 0
2,99393, Note_on_c, 0, 60, 63
2,99545, Note_on_c, 0, 45, 69
2,99545, Note_on_c, 0, 60, 0
2,99545, Note_on_c, 0, 66, 70
2,99549, Note_on_c, 0, 61, 55
2,99583, Note_on_c, 0, 45, 0
2,99689, Note_on_c, 0, 64, 62
2,99732, Note_on_c, 0, 61, 0
2,99765, Note_on_c, 0, 66, 0
2,99821, Note_on_c, 0, 64, 0
2,99834, Note_on_c, 0, 63, 63
2,99867, Note_on_c, 0, 57, 90
2,99934, Note_on_c, 0, 63, 0
2,100004, Note_on_c, 0, 61, 52
2,100136, Note_on_c, 0, 61, 0
2,100156, Note_on_c, 0, 57, 0
2,100178, Note_on_c, 0, 60, 66
2,100187, Note_on_c, 0, 56, 70
2,100192, Note_on_c, 0, 68, 72
2,100216, Note_on_c, 0, 60, 0
2,100227, Note_on_c, 0, 68, 0
2,100280, Note_on_c, 0, 56, 0
2,100319, Note_on_c, 0, 57, 66
2,100409, Note_on_c, 0, 57, 0
2,100463, Note_on_c, 0, 72, 67
2,100467, Note_on_c, 0, 56, 64
2,100471, Note_on_c, 0, 63, 51
2,100508, Note_on_c, 0, 63, 0
2,100508, Note_on_c, 0, 72, 0
2,100570, Note_on_c, 0, 56, 0
2,100600, Note_on_c, 0, 54, 69
2,100688, Note_on_c, 0, 54, 0
2,100748, Note_on_c, 0, 56, 64
2,100756, Note_on_c, 0, 73, 74
2,100765, Note_on_c, 0, 64, 63
2,100792, Note_on_c, 0, 73, 0
2,100799, Note_on_c, 0, 64, 0
2,100886, Note_on_c, 0, 56, 0
2,100899, Note_on_c, 0, 54, 56
2,101005, Note_on_c, 0, 54, 0
2,101043, Note_on_c, 0, 76, 78
2,101055, Note_on_c, 0, 68, 66
2,101074, Note_on_c, 0, 52, 53
2,101091, Note_on_c, 0, 68, 0
2,101095, Note_on_c, 0, 76, 0
2,101137, Note_on_c, 0, 52, 0
2,101214, Note_on_c, 0, 56, 58
2,101290, Note_on_c, 0, 56, 0
2,101352, Note_on_c, 0, 54, 60
2,101430, Note_on_c, 0, 54, 0
2,101491, Note_on_c, 0, 56, 55
2,101568, Note_on_c, 0, 56, 0
2,101645, Note_on_c, 0, 54, 58
2,101645, Note_on_c, 0, 76, 83
2,101649, Note_on_c, 0, 68, 73
2,101680, Note_on_c, 0, 68, 0
2,101701, Note_on_c, 0, 76, 0
2,101761, Note_on_c, 0, 54, 0
2,101795, Note_on_c, 0, 52, 51
2,101880, Note_on_c, 0, 52, 0
2,101944, Note_on_c, 0, 54, 59
2,101944, Note_on_c, 0, 66, 54
2,101944, Note_on_c, 0, 75, 72
2,101971, Note_on_c, 0, 66, 0
2,101984, Note_on_c, 0, 75, 0
2,102025, Note_on_c, 0, 54, 0
2,102070, Note_on_c, 0, 52, 52
2,102224, Note_on_c, 0, 52, 0
2,102238, Note_on_c, 0, 51, 60
2,102238, Note_on_c, 0, 78, 72
2,102247, Note_on_c, 0, 69, 58
2,102281, Note_on_c, 0, 69, 0
2,102303, Note_on_c, 0, 78, 0
2,102333, Note_on_c, 0, 51, 0
2,102403, Note_on_c, 0, 54, 59
2,102479, Note_on_c, 0, 54, 0
2,102547, Note_on_c, 0, 52, 65
2,102621, Note_on_c, 0, 52, 0
2,102667, Note_on_c, 0, 54, 63
2,102770, Note_on_c, 0, 54, 0
2,102826, Note_on_c, 0, 52, 58
2,102830, Note_on_c, 0, 72, 75
2,102838, Note_on_c, 0, 68, 66
2,102913, Note_on_c, 0, 52, 0
2,102924, Note_on_c, 0, 72, 0
2,102934, Note_on_c, 0, 68, 0
2,102949, Note_on_c, 0, 51, 66
2,102958, Note_on_c, 0, 66, 76
2,103016, Note_on_c, 0, 51, 0
2,103030, Note_on_c, 0, 66, 0
2,103112, Note_on_c, 0, 52, 54
2,103121, Note_on_c, 0, 68, 58
2,103125, Note_on_c, 0, 73, 69
2,103208, Note_on_c, 0, 52, 0
2,103245, Note_on_c, 0, 51, 63
2,103359, Note_on_c, 0, 51, 0
2,103408, Note_on_c, 0, 49, 65
2,103424, Note_on_c, 0, 70, 70
2,103488, Note_on_c, 0, 73, 0
2,103509, Note_on_c, 0, 49, 0
2,103536, Note_on_c, 0, 68, 0
2,103543, Note_on_c, 0, 52, 68
2,103575, Note_on_c, 0, 70, 0
2,103635, Note_on_c, 0, 52, 0
2,103698, Note_on_c, 0, 43, 84
2,103718, Note_on_c, 0, 63, 89
2,103766, Note_on_c, 0, 43, 0
2,103850, Note_on_c, 0, 64, 84
2,103869, Note_on_c, 0, 63, 0
2,103958, Note_on_c, 0, 64, 0
2,104013, Note_on_c, 0, 46, 75
2,104013, Note_on_c, 0, 63, 78
2,104013, Note_on_c, 0, 67, 82
2,104053, Note_on_c, 0, 46, 0
2,104100, Note_on_c, 0, 67, 0
2,104115, Note_on_c, 0, 63, 0
2,104143, Note_on_c, 0, 61, 78
2,104295, Note_on_c, 0, 68, 93
2,104298, Note_on_c, 0, 63, 80
2,104312, Note_on_c, 0, 47, 66
2,104321, Note_on_c, 0, 61, 0
2,104349, Note_on_c, 0, 47, 0
2,104429, Note_on_c, 0, 63, 0
2,104447, Note_on_c, 0, 61, 64
2,104585, Note_on_c, 0, 61, 0
2,104599, Note_on_c, 0, 52, 67
2,104603, Note_on_c, 0, 59, 69
2,104652, Note_on_c, 0, 52, 0
2,104725, Note_on_c, 0, 59, 0
2,104748, Note_on_c, 0, 63, 76
2,104858, Note_on_c, 0, 68, 0
2,104883, Note_on_c, 0, 63, 0
2,104894, Note_on_c, 0, 61, 84
2,104900, Note_on_c, 0, 46, 82
2,104963, Note_on_c, 0, 46, 0
2,105038, Note_on_c, 0, 63, 75
2,105042, Note_on_c, 0, 61, 0
2,105178, Note_on_c, 0, 63, 0
2,105188, Note_on_c, 0, 61, 77
2,105188, Note_on_c, 0, 70, 87
2,105195, Note_on_c, 0, 49, 81
2,105240, Note_on_c, 0, 61, 0
2,105251, Note_on_c, 0, 49, 0
2,105255, Note_on_c, 0, 70, 0
2,105321, Note_on_c, 0, 59, 81
2,105422, Note_on_c, 0, 59, 0
2,105470, Note_on_c, 0, 51, 81
2,105483, Note_on_c, 0, 61, 80
2,105483, Note_on_c, 0, 63, 80
2,105549, Note_on_c, 0, 51, 0
2,105584, Note_on_c, 0, 63, 0
2,105616, Note_on_c, 0, 59, 76
2,105677, Note_on_c, 0, 59, 0
2,105681, Note_on_c, 0, 61, 0
2,105752, Note_on_c, 0, 67, 77
2,105756, Note_on_c, 0, 39, 83
2,105765, Note_on_c, 0, 58, 76
2,105820, Note_on_c, 0, 39, 0
2,105849, Note_on_c, 0, 67, 0
2,105854, Note_on_c, 0, 58, 0
2,105905, Note_on_c, 0, 61, 69
2,105963, Note_on_c, 0, 61, 0
2,106054, Note_on_c, 0, 68, 76
2,106059, Note_on_c, 0, 44, 73
2,106067, Note_on_c, 0, 59, 57
2,106097, Note_on_c, 0, 44, 0
2,106124, Note_on_c, 0, 59, 0
2,106204, Note_on_c, 0, 61, 43
2,106353, Note_on_c, 0, 56, 68
2,106362, Note_on_c, 0, 63, 53
2,106372, Note_on_c, 0, 61, 0
2,106382, Note_on_c, 0, 68, 0
2,106419, Note_on_c, 0, 56, 0
2,106432, Note_on_c, 0, 63, 0
2,106473, Note_on_c, 0, 59, 50
2,106487, Note_on_c, 0, 54, 70
2,106513, Note_on_c, 0, 59, 0
2,106559, Note_on_c, 0, 54, 0
2,106642, Note_on_c, 0, 56, 58
2,106677, Note_on_c, 0, 64, 46
2,106681, Note_on_c, 0, 56, 0
2,106827, Note_on_c, 0, 69, 38
2,106903, Note_on_c, 0, 69, 0
2,106967, Note_on_c, 0, 44, 53
2,106976, Note_on_c, 0, 71, 42
2,107011, Note_on_c, 0, 44, 0
2,107045, Note_on_c, 0, 71, 0
2,107117, Note_on_c, 0, 68, 55
2,107274, Note_on_c, 0, 42, 63
2,107283, Note_on_c, 0, 68, 0
2,107292, Note_on_c, 0, 69, 45
2,107312, Note_on_c, 0, 42, 0
2,107416, Note_on_c, 0, 69, 0
2,107430, Note_on_c, 0, 71, 53
2,107583, Note_on_c, 0, 69, 53
2,107606, Note_on_c, 0, 54, 59
2,107660, Note_on_c, 0, 54, 0
2,107660, Note_on_c, 0, 71, 0
2,107684, Note_on_c, 0, 64, 0
2,107715, Note_on_c, 0, 69, 0
2,107724, Note_on_c, 0, 52, 58
2,107728, Note_on_c, 0, 68, 66
2,107776, Note_on_c, 0, 52, 0
2,107794, Note_on_c, 0, 68, 0
2,107871, Note_on_c, 0, 54, 58
2,107878, Note_on_c, 0, 69, 66
2,107912, Note_on_c, 0, 54, 0
2,107922, Note_on_c, 0, 63, 33
2,108035, Note_on_c, 0, 68, 53
2,108104, Note_on_c, 0, 69, 0
2,108173, Note_on_c, 0, 47, 59
2,108199, Note_on_c, 0, 66, 60
2,108216, Note_on_c, 0, 47, 0
2,108247, Note_on_c, 0, 63, 0
2,108254, Note_on_c, 0, 68, 0
2,108326, Note_on_c, 0, 69, 65
2,108342, Note_on_c, 0, 66, 0
2,108431, Note_on_c, 0, 69, 0
2,108473, Note_on_c, 0, 52, 57
2,108491, Note_on_c, 0, 68, 66
2,108499, Note_on_c, 0, 64, 44
2,108561, Note_on_c, 0, 52, 0
2,108628, Note_on_c, 0, 54, 59
2,108628, Note_on_c, 0, 69, 58
2,108652, Note_on_c, 0, 68, 0
2,108687, Note_on_c, 0, 54, 0
2,108746, Note_on_c, 0, 71, 72
2,108765, Note_on_c, 0, 69, 0
2,108767, Note_on_c, 0, 56, 68
2,108838, Note_on_c, 0, 56, 0
2,108853, Note_on_c, 0, 71, 0
2,108891, Note_on_c, 0, 68, 80
2,108898, Note_on_c, 0, 52, 67
2,108990, Note_on_c, 0, 52, 0
2,109061, Note_on_c, 0, 73, 86
2,109072, Note_on_c, 0, 57, 63
2,109084, Note_on_c, 0, 68, 0
2,109166, Note_on_c, 0, 57, 0
2,109214, Note_on_c, 0, 71, 72
2,109221, Note_on_c, 0, 59, 58
2,109293, Note_on_c, 0, 64, 0
2,109373, Note_on_c, 0, 69, 72
2,109378, Note_on_c, 0, 59, 0
2,109378, Note_on_c, 0, 61, 61
2,109378, Note_on_c, 0, 73, 0
2,109408, Note_on_c, 0, 71, 0
2,109510, Note_on_c, 0, 61, 0
2,109527, Note_on_c, 0, 69, 0
2,109531, Note_on_c, 0, 68, 79
2,109534, Note_on_c, 0, 57, 59
2,109658, Note_on_c, 0, 57, 0
2,109686, Note_on_c, 0, 68, 0
2,109697, Note_on_c, 0, 66, 68
2,109701, Note_on_c, 0, 62, 58
2,109779, Note_on_c, 0, 62, 0
2,109854, Note_on_c, 0, 64, 51
2,109935, Note_on_c, 0, 64, 0
2,109962, Note_on_c, 0, 73, 79
2,109988, Note_on_c, 0, 62, 60
2,110026, Note_on_c, 0, 73, 0
2,110044, Note_on_c, 0, 62, 0
2,110174, Note_on_c, 0, 61, 69
2,110239, Note_on_c, 0, 61, 0
2,110249, Note_on_c, 0, 71, 59
2,110295, Note_on_c, 0, 66, 0
2,110300, Note_on_c, 0, 61, 40
2,110344, Note_on_c, 0, 61, 0
2,110356, Note_on_c, 0, 62, 62
2,110414, Note_on_c, 0, 62, 0
2,110500, Note_on_c, 0, 61, 60
2,110550, Note_on_c, 0, 66, 72
2,110595, Note_on_c, 0, 61, 0
2,110643, Note_on_c, 0, 59, 58
2,110647, Note_on_c, 0, 71, 0
2,110716, Note_on_c, 0, 59, 0
2,110746, Note_on_c, 0, 62, 70
2,110864, Note_on_c, 0, 62, 0
2,110869, Note_on_c, 0, 64, 71
2,110882, Note_on_c, 0, 61, 59
2,110979, Note_on_c, 0, 66, 0
2,110983, Note_on_c, 0, 61, 0
2,111008, Note_on_c, 0, 71, 69
2,111016, Note_on_c, 0, 62, 62
2,111125, Note_on_c, 0, 62, 0
2,111158, Note_on_c, 0, 69, 69
2,111162, Note_on_c, 0, 61, 63
2,111177, Note_on_c, 0, 71, 0
2,111230, Note_on_c, 0, 64, 0
2,111262, Note_on_c, 0, 61, 0
2,111295, Note_on_c, 0, 68, 81
2,111304, Note_on_c, 0, 59, 67
2,111320, Note_on_c, 0, 69, 0
2,111410, Note_on_c, 0, 59, 0
2,111444, Note_on_c, 0, 69, 77
2,111455, Note_on_c, 0, 61, 63
2,111498, Note_on_c, 0, 68, 0
2,111562, Note_on_c, 0, 61, 0
2,111575, Note_on_c, 0, 59, 71
2,111588, Note_on_c, 0, 71, 79
2,111601, Note_on_c, 0, 69, 0
2,111704, Note_on_c, 0, 59, 0
2,111725, Note_on_c, 0, 57, 71
2,111734, Note_on_c, 0, 73, 86
2,111762, Note_on_c, 0, 71, 0
2,111837, Note_on_c, 0, 73, 0
2,111866, Note_on_c, 0, 57, 0
2,111866, Note_on_c, 0, 61, 79
2,111866, Note_on_c, 0, 69, 78
2,111943, Note_on_c, 0, 61, 0
2,112028, Note_on_c, 0, 59, 87
2,112031, Note_on_c, 0, 69, 0
2,112039, Note_on_c, 0, 74, 84
2,112202, Note_on_c, 0, 76, 77
2,112215, Note_on_c, 0, 74, 0
2,112336, Note_on_c, 0, 69, 78
2,112347, Note_on_c, 0, 74, 86
2,112372, Note_on_c, 0, 69, 0
2,112391, Note_on_c, 0, 76, 0
2,112481, Note_on_c, 0, 73, 84
2,112526, Note_on_c, 0, 74, 0
2,112648, Note_on_c, 0, 68, 93
2,112655, Note_on_c, 0, 74, 84
2,112697, Note_on_c, 0, 73, 0
2,112730, Note_on_c, 0, 59, 0
2,112820, Note_on_c, 0, 73, 82
2,112917, Note_on_c, 0, 74, 0
2,112953, Note_on_c, 0, 64, 65
2,112961, Note_on_c, 0, 71, 81
2,112978, Note_on_c, 0, 73, 0
2,112991, Note_on_c, 0, 64, 0
2,113098, Note_on_c, 0, 74, 79
2,113102, Note_on_c, 0, 71, 0
2,113272, Note_on_c, 0, 57, 83
2,113272, Note_on_c, 0, 73, 85
2,113281, Note_on_c, 0, 68, 0
2,113316, Note_on_c, 0, 74, 0
2,113416, Note_on_c, 0, 74, 77
2,113460, Note_on_c, 0, 73, 0
2,113585, Note_on_c, 0, 73, 85
2,113596, Note_on_c, 0, 61, 74
2,113606, Note_on_c, 0, 74, 0
2,113652, Note_on_c, 0, 61, 0
2,113720, Note_on_c, 0, 71, 80
2,113757, Note_on_c, 0, 73, 0
2,113890, Note_on_c, 0, 66, 77
2,113890, Note_on_c, 0, 73, 88
2,113903, Note_on_c, 0, 71, 0
2,113994, Note_on_c, 0, 57, 0
2,114028, Note_on_c, 0, 71, 82
2,114088, Note_on_c, 0, 73, 0
2,114177, Note_on_c, 0, 69, 71
2,114179, Note_on_c, 0, 71, 0
2,114185, Note_on_c, 0, 62, 64
2,114311, Note_on_c, 0, 73, 81
2,114361, Note_on_c, 0, 69, 0
2,114386, Note_on_c, 0, 73, 0
2,114399, Note_on_c, 0, 66, 0
2,114488, Note_on_c, 0, 71, 70
2,114489, Note_on_c, 0, 56, 56
2,114494, Note_on_c, 0, 62, 0
2,114639, Note_on_c, 0, 69, 51
2,114678, Note_on_c, 0, 56, 0
2,114771, Note_on_c, 0, 69, 0
2,114782, Note_on_c, 0, 68, 59
2,114821, Note_on_c, 0, 59, 50
2,114860, Note_on_c, 0, 59, 0
2,114886, Note_on_c, 0, 68, 0
2,114927, Note_on_c, 0, 66, 50
2,115074, Note_on_c, 0, 66, 0
2,115095, Note_on_c, 0, 53, 59
2,115100, Note_on_c, 0, 68, 51
2,115141, Note_on_c, 0, 53, 0
2,115243, Note_on_c, 0, 66, 55
2,115297, Note_on_c, 0, 68, 0
2,115408, Note_on_c, 0, 49, 58
2,115408, Note_on_c, 0, 66, 0
2,115416, Note_on_c, 0, 65, 52
2,115470, Note_on_c, 0, 49, 0
2,115514, Note_on_c, 0, 71, 0
2,115545, Note_on_c, 0, 65, 0
2,115558, Note_on_c, 0, 68, 64
2,115680, Note_on_c, 0, 68, 0
2,115721, Note_on_c, 0, 54, 51
2,115732, Note_on_c, 0, 66, 56
2,115865, Note_on_c, 0, 68, 59
2,115870, Note_on_c, 0, 66, 0
2,116014, Note_on_c, 0, 68, 0
2,116028, Note_on_c, 0, 70, 55
2,116038, Note_on_c, 0, 61, 53
2,116083, Note_on_c, 0, 61, 0
2,116090, Note_on_c, 0, 70, 0
2,116150, Note_on_c, 0, 71, 66
2,116279, Note_on_c, 0, 71, 0
2,116308, Note_on_c, 0, 70, 67
2,116337, Note_on_c, 0, 54, 0
2,116337, Note_on_c, 0, 62, 59
2,116407, Note_on_c, 0, 70, 0
2,116433, Note_on_c, 0, 71, 63
2,116600, Note_on_c, 0, 73, 74
2,116609, Note_on_c, 0, 54, 65
2,116621, Note_on_c, 0, 71, 0
2,116667, Note_on_c, 0, 54, 0
2,116705, Note_on_c, 0, 73, 0
2,116744, Note_on_c, 0, 70, 72
2,116848, Note_on_c, 0, 70, 0
2,116891, Note_on_c, 0, 71, 67
2,116896, Note_on_c, 0, 62, 0
2,116915, Note_on_c, 0, 55, 63
2,117061, Note_on_c, 0, 70, 71
2,117062, Note_on_c, 0, 71, 0
2,117197, Note_on_c, 0, 70, 0
2,117201, Note_on_c, 0, 63, 68
2,117205, Note_on_c, 0, 71, 72
2,117241, Note_on_c, 0, 63, 0
2,117350, Note_on_c, 0, 73, 78
2,117364, Note_on_c, 0, 71, 0
2,117509, Note_on_c, 0, 64, 80
2,117509, Note_on_c, 0, 71, 76
2,117513, Note_on_c, 0, 55, 0
2,117518, Note_on_c, 0, 73, 0
2,117660, Note_on_c, 0, 73, 74
2,117762, Note_on_c, 0, 71, 0
2,117795, Note_on_c, 0, 56, 81
2,117813, Note_on_c, 0, 74, 82
2,117855, Note_on_c, 0, 73, 0
2,117862, Note_on_c, 0, 56, 0
2,117944, Note_on_c, 0, 71, 79
2,118048, Note_on_c, 0, 74, 0
2,118059, Note_on_c, 0, 64, 0
2,118097, Note_on_c, 0, 57, 90
2,118105, Note_on_c, 0, 73, 82
2,118184, Note_on_c, 0, 73, 0
2,118325, Note_on_c, 0, 71, 0
2,118342, Note_on_c, 0, 73, 76
2,118399, Note_on_c, 0, 65, 82
2,118482, Note_on_c, 0, 73, 0
2,118489, Note_on_c, 0, 74, 74
2,118570, Note_on_c, 0, 65, 0
2,118599, Note_on_c, 0, 74, 0
2,118657, Note_on_c, 0, 73, 88
2,118676, Note_on_c, 0, 66, 77
2,118698, Note_on_c, 0, 57, 0
2,118819, Note_on_c, 0, 74, 78
2,118838, Note_on_c, 0, 73, 0
2,118958, Note_on_c, 0, 58, 71
2,118976, Note_on_c, 0, 76, 75
2,119022, Note_on_c, 0, 74, 0
2,119084, Note_on_c, 0, 58, 0
2,119129, Note_on_c, 0, 73, 68
2,119157, Note_on_c, 0, 76, 0
2,119267, Note_on_c, 0, 59, 68
2,119297, Note_on_c, 0, 74, 56
2,119317, Note_on_c, 0, 59, 0
2,119342, Note_on_c, 0, 73, 0
2,119393, Note_on_c, 0, 74, 0
2,119426, Note_on_c, 0, 76, 50
2,119560, Note_on_c, 0, 54, 60
2,119565, Note_on_c, 0, 74, 53
2,119601, Note_on_c, 0, 54, 0
2,119658, Note_on_c, 0, 74, 0
2,119675, Note_on_c, 0, 76, 0
2,119703, Note_on_c, 0, 73, 60
2,119761, Note_on_c, 0, 66, 0
2,119861, Note_on_c, 0, 73, 0
2,119865, Note_on_c, 0, 47, 58
2,119869, Note_on_c, 0, 74, 57
2,119917, Note_on_c, 0, 47, 0
2,120011, Note_on_c, 0, 73, 60
2,120018, Note_on_c, 0, 74, 0
2,120156, Note_on_c, 0, 50, 51
2,120163, Note_on_c, 0, 71, 61
2,120170, Note_on_c, 0, 73, 0
2,120207, Note_on_c, 0, 50, 0
2,120286, Note_on_c, 0, 71, 0
2,120297, Note_on_c, 0, 74, 61
2,120340, Note_on_c, 0, 74, 0
2,120474, Note_on_c, 0, 67, 82
2,120489, Note_on_c, 0, 52, 58
2,120533, Note_on_c, 0, 52, 0
2,120621, Note_on_c, 0, 66, 65
2,120714, Note_on_c, 0, 66, 0
2,120745, Note_on_c, 0, 67, 0
2,120745, Note_on_c, 0, 67, 7
2,120783, Note_on_c, 0, 54, 58
2,120783, Note_on_c, 0, 64, 60
2,120831, Note_on_c, 0, 54, 0
2,120895, Note_on_c, 0, 64, 0
2,120914, Note_on_c, 0, 62, 62
2,121014, Note_on_c, 0, 62, 0
2,121051, Note_on_c, 0, 64, 63
2,121075, Note_on_c, 0, 55, 46
2,121137, Note_on_c, 0, 64, 0
2,121146, Note_on_c, 0, 55, 0
2,121194, Note_on_c, 0, 62, 55
2,121335, Note_on_c, 0, 62, 0
2,121355, Note_on_c, 0, 52, 61
2,121355, Note_on_c, 0, 61, 59
2,121395, Note_on_c, 0, 52, 0
2,121471, Note_on_c, 0, 61, 0
2,121493, Note_on_c, 0, 64, 62
2,121526, Note_on_c, 0, 67, 0
2,121653, Note_on_c, 0, 49, 63
2,121665, Note_on_c, 0, 57, 73
2,121716, Note_on_c, 0, 49, 0
2,121783, Note_on_c, 0, 64, 0
2,121792, Note_on_c, 0, 67, 75
2,121957, Note_on_c, 0, 66, 75
2,121970, Note_on_c, 0, 45, 45
2,121975, Note_on_c, 0, 67, 0
2,122010, Note_on_c, 0, 45, 0
2,122102, Note_on_c, 0, 64, 72
2,122124, Note_on_c, 0, 66, 0
2,122257, Note_on_c, 0, 50, 49
2,122264, Note_on_c, 0, 66, 70
2,122270, Note_on_c, 0, 64, 0
2,122292, Note_on_c, 0, 50, 0
2,122403, Note_on_c, 0, 64, 62
2,122413, Note_on_c, 0, 66, 0
2,122558, Note_on_c, 0, 42, 63
2,122568, Note_on_c, 0, 62, 55
2,122623, Note_on_c, 0, 42, 0
2,122626, Note_on_c, 0, 57, 0
2,122680, Note_on_c, 0, 66, 70
2,122685, Note_on_c, 0, 62, 0
2,122685, Note_on_c, 0, 64, 0
2,122811, Note_on_c, 0, 66, 0
2,122856, Note_on_c, 0, 59, 69
2,122882, Note_on_c, 0, 43, 42
2,122991, Note_on_c, 0, 59, 0
2,123007, Note_on_c, 0, 57, 62
2,123106, Note_on_c, 0, 43, 0
2,123131, Note_on_c, 0, 57, 0
2,123159, Note_on_c, 0, 47, 44
2,123171, Note_on_c, 0, 55, 57
2,123208, Note_on_c, 0, 47, 0
2,123269, Note_on_c, 0, 55, 0
2,123298, Note_on_c, 0, 54, 63
2,123399, Note_on_c, 0, 54, 0
2,123441, Note_on_c, 0, 61, 65
2,123446, Note_on_c, 0, 55, 58
2,123473, Note_on_c, 0, 40, 24
2,123511, Note_on_c, 0, 55, 0
2,123576, Note_on_c, 0, 54, 57
2,123582, Note_on_c, 0, 40, 0
2,123713, Note_on_c, 0, 61, 0
2,123715, Note_on_c, 0, 54, 0
2,123728, Note_on_c, 0, 45, 55
2,123739, Note_on_c, 0, 52, 65
2,123766, Note_on_c, 0, 45, 0
2,123870, Note_on_c, 0, 52, 0
2,123888, Note_on_c, 0, 55, 49
2,123992, Note_on_c, 0, 55, 0
2,124027, Note_on_c, 0, 62, 63
2,124042, Note_on_c, 0, 54, 55
2,124054, Note_on_c, 0, 50, 53
2,124072, Note_on_c, 0, 62, 0
2,124076, Note_on_c, 0, 54, 0
2,124118, Note_on_c, 0, 50, 0
2,124197, Note_on_c, 0, 49, 49
2,124279, Note_on_c, 0, 49, 0
2,124327, Note_on_c, 0, 66, 68
2,124350, Note_on_c, 0, 50, 53
2,124365, Note_on_c, 0, 66, 0
2,124412, Note_on_c, 0, 50, 0
2,124490, Note_on_c, 0, 52, 61
2,124552, Note_on_c, 0, 52, 0
2,124620, Note_on_c, 0, 50, 57
2,124648, Note_on_c, 0, 71, 62
2,124703, Note_on_c, 0, 50, 0
2,124772, Note_on_c, 0, 55, 55
2,124842, Note_on_c, 0, 55, 0
2,124929, Note_on_c, 0, 54, 58
2,124952, Note_on_c, 0, 59, 56
2,124996, Note_on_c, 0, 54, 0
2,125009, Note_on_c, 0, 59, 0
2,125067, Note_on_c, 0, 55, 58
2,125104, Note_on_c, 0, 55, 0
2,125240, Note_on_c, 0, 64, 68
2,125248, Note_on_c, 0, 71, 0
2,125253, Note_on_c, 0, 49, 57
2,125318, Note_on_c, 0, 49, 0
2,125405, Note_on_c, 0, 47, 45
2,125535, Note_on_c, 0, 47, 0
2,125541, Note_on_c, 0, 64, 0
2,125551, Note_on_c, 0, 70, 68
2,125559, Note_on_c, 0, 49, 56
2,125655, Note_on_c, 0, 49, 0
2,125673, Note_on_c, 0, 68, 68
2,125693, Note_on_c, 0, 50, 53
2,125702, Note_on_c, 0, 70, 0
2,125790, Note_on_c, 0, 50, 0
2,125828, Note_on_c, 0, 70, 74
2,125834, Note_on_c, 0, 68, 0
2,125836, Note_on_c, 0, 49, 62
2,125875, Note_on_c, 0, 70, 0
2,125902, Note_on_c, 0, 49, 0
2,125983, Note_on_c, 0, 54, 63
2,126048, Note_on_c, 0, 54, 0
2,126124, Note_on_c, 0, 66, 95
2,126142, Note_on_c, 0, 52, 68
2,126177, Note_on_c, 0, 66, 0
2,126201, Note_on_c, 0, 52, 0
2,126264, Note_on_c, 0, 54, 63
2,126318, Note_on_c, 0, 54, 0
2,126422, Note_on_c, 0, 71, 91
2,126426, Note_on_c, 0, 62, 86
2,126430, Note_on_c, 0, 47, 60
2,126479, Note_on_c, 0, 62, 0
2,126549, Note_on_c, 0, 47, 0
2,126581, Note_on_c, 0, 49, 64
2,126678, Note_on_c, 0, 49, 0
2,126752, Note_on_c, 0, 50, 60
2,126756, Note_on_c, 0, 59, 89
2,126788, Note_on_c, 0, 59, 0
2,126845, Note_on_c, 0, 50, 0
2,126888, Note_on_c, 0, 47, 58
2,127043, Note_on_c, 0, 47, 0
2,127043, Note_on_c, 0, 71, 0
2,127064, Note_on_c, 0, 52, 62
2,127064, Note_on_c, 0, 67, 92
2,127185, Note_on_c, 0, 52, 0
2,127215, Note_on_c, 0, 50, 50
2,127308, Note_on_c, 0, 50, 0
2,127362, Note_on_c, 0, 49, 55
2,127375, Note_on_c, 0, 76, 77
2,127415, Note_on_c, 0, 76, 0
2,127436, Note_on_c, 0, 49, 0
2,127499, Note_on_c, 0, 47, 45
2,127676, Note_on_c, 0, 67, 0
2,127680, Note_on_c, 0, 47, 0
2,127680, Note_on_c, 0, 69, 69
2,127704, Note_on_c, 0, 49, 49
2,127818, Note_on_c, 0, 52, 55
2,127829, Note_on_c, 0, 49, 0
2,127928, Note_on_c, 0, 52, 0
2,127937, Note_on_c, 0, 69, 0
2,127985, Note_on_c, 0, 66, 86
2,127987, Note_on_c, 0, 50, 59
2,128043, Note_on_c, 0, 66, 0
2,128052, Note_on_c, 0, 50, 0
2,128114, Note_on_c, 0, 49, 64
2,128118, Note_on_c, 0, 64, 85
2,128199, Note_on_c, 0, 64, 0
2,128226, Note_on_c, 0, 49, 0
2,128282, Note_on_c, 0, 66, 91
2,128295, Note_on_c, 0, 50, 65
2,128347, Note_on_c, 0, 50, 0
2,128435, Note_on_c, 0, 52, 57
2,128560, Note_on_c, 0, 52, 0
2,128589, Note_on_c, 0, 54, 62
2,128598, Note_on_c, 0, 74, 63
2,128659, Note_on_c, 0, 54, 0
2,128729, Note_on_c, 0, 50, 58
2,128804, Note_on_c, 0, 50, 0
2,128917, Note_on_c, 0, 52, 63
2,128921, Note_on_c, 0, 66, 0
2,128921, Note_on_c, 0, 67, 74
2,128975, Note_on_c, 0, 74, 0
2,128981, Note_on_c, 0, 52, 0
2,129059, Note_on_c, 0, 50, 54
2,129167, Note_on_c, 0, 67, 0
2,129171, Note_on_c, 0, 50, 0
2,129203, Note_on_c, 0, 71, 88
2,129218, Note_on_c, 0, 52, 66
2,129246, Note_on_c, 0, 71, 0
2,129301, Note_on_c, 0, 52, 0
2,129359, Note_on_c, 0, 54, 66
2,129436, Note_on_c, 0, 54, 0
2,129497, Note_on_c, 0, 64, 85
2,129506, Note_on_c, 0, 55, 55
2,129621, Note_on_c, 0, 55, 0
2,129653, Note_on_c, 0, 54, 57
2,129726, Note_on_c, 0, 54, 0
2,129797, Note_on_c, 0, 52, 51
2,129810, Note_on_c, 0, 72, 72
2,129891, Note_on_c, 0, 52, 0
2,129962, Note_on_c, 0, 55, 57
2,130086, Note_on_c, 0, 55, 0
2,130106, Note_on_c, 0, 70, 75
2,130114, Note_on_c, 0, 54, 63
2,130152, Note_on_c, 0, 72, 0
2,130265, Note_on_c, 0, 56, 68
2,130270, Note_on_c, 0, 54, 0
2,130287, Note_on_c, 0, 64, 0
2,130346, Note_on_c, 0, 56, 0
2,130355, Note_on_c, 0, 70, 0
2,130400, Note_on_c, 0, 58, 77
2,130400, Note_on_c, 0, 66, 90
2,130408, Note_on_c, 0, 62, 80
2,130450, Note_on_c, 0, 62, 0
2,130483, Note_on_c, 0, 58, 0
2,130483, Note_on_c, 0, 66, 0
2,130531, Note_on_c, 0, 54, 79
2,130536, Note_on_c, 0, 61, 83
2,130598, Note_on_c, 0, 61, 0
2,130604, Note_on_c, 0, 54, 0
2,130672, Note_on_c, 0, 59, 87
2,130680, Note_on_c, 0, 62, 84
2,130704, Note_on_c, 0, 66, 81
2,130778, Note_on_c, 0, 66, 0
2,130838, Note_on_c, 0, 47, 83
2,130838, Note_on_c, 0, 71, 84
2,130861, Note_on_c, 0, 59, 0
2,130939, Note_on_c, 0, 47, 0
2,130991, Note_on_c, 0, 59, 96
2,131010, Note_on_c, 0, 73, 88
2,131103, Note_on_c, 0, 71, 0
2,131136, Note_on_c, 0, 74, 86
2,131153, Note_on_c, 0, 73, 0
2,131208, Note_on_c, 0, 62, 0
2,131255, Note_on_c, 0, 74, 0
2,131308, Note_on_c, 0, 65, 79
2,131316, Note_on_c, 0, 61, 82
2,131320, Note_on_c, 0, 59, 0
2,131465, Note_on_c, 0, 57, 62
2,131582, Note_on_c, 0, 57, 0
2,131602, Note_on_c, 0, 65, 0
2,131606, Note_on_c, 0, 56, 64
2,131622, Note_on_c, 0, 73, 83
2,131673, Note_on_c, 0, 73, 0
2,131706, Note_on_c, 0, 56, 0
2,131734, Note_on_c, 0, 59, 62
2,131850, Note_on_c, 0, 59, 0
2,131895, Note_on_c, 0, 57, 69
2,131895, Note_on_c, 0, 66, 80
2,131979, Note_on_c, 0, 57, 0
2,132030, Note_on_c, 0, 56, 66
2,132142, Note_on_c, 0, 56, 0
2,132175, Note_on_c, 0, 54, 64
2,132234, Note_on_c, 0, 54, 0
2,132239, Note_on_c, 0, 61, 0
2,132317, Note_on_c, 0, 57, 69
2,132457, Note_on_c, 0, 57, 0
2,132497, Note_on_c, 0, 59, 74
2,132501, Note_on_c, 0, 66, 0
2,132508, Note_on_c, 0, 56, 62
2,132604, Note_on_c, 0, 56, 0
2,132643, Note_on_c, 0, 57, 61
2,132742, Note_on_c, 0, 59, 0
2,132775, Note_on_c, 0, 65, 74
2,132787, Note_on_c, 0, 57, 0
2,132788, Note_on_c, 0, 56, 69
2,132907, Note_on_c, 0, 66, 82
2,132919, Note_on_c, 0, 54, 75
2,132931, Note_on_c, 0, 56, 0
2,132981, Note_on_c, 0, 65, 0
2,133032, Note_on_c, 0, 54, 0
2,133062, Note_on_c, 0, 68, 85
2,133066, Note_on_c, 0, 53, 71
2,133105, Note_on_c, 0, 66, 0
2,133171, Note_on_c, 0, 68, 0
2,133197, Note_on_c, 0, 53, 0
2,133197, Note_on_c, 0, 54, 70
2,133197, Note_on_c, 0, 69, 79
2,133312, Note_on_c, 0, 69, 0
2,133319, Note_on_c, 0, 54, 0
2,133344, Note_on_c, 0, 56, 72
2,133344, Note_on_c, 0, 71, 84
2,133416, Note_on_c, 0, 56, 0
2,133472, Note_on_c, 0, 53, 70
2,133486, Note_on_c, 0, 68, 93
2,133508, Note_on_c, 0, 71, 0
2,133617, Note_on_c, 0, 53, 0
2,133643, Note_on_c, 0, 71, 85
2,133647, Note_on_c, 0, 54, 65
2,133675, Note_on_c, 0, 68, 0
2,133787, Note_on_c, 0, 69, 84
2,133828, Note_on_c, 0, 71, 0
2,133937, Note_on_c, 0, 54, 0
2,133937, Note_on_c, 0, 56, 68
2,133937, Note_on_c, 0, 68, 92
2,133972, Note_on_c, 0, 69, 0
2,134064, Note_on_c, 0, 66, 82
2,134069, Note_on_c, 0, 68, 0
2,134084, Note_on_c, 0, 57, 68
2,134088, Note_on_c, 0, 56, 0
2,134165, Note_on_c, 0, 66, 0
2,134192, Note_on_c, 0, 57, 0
2,134233, Note_on_c, 0, 74, 89
2,134242, Note_on_c, 0, 59, 60
2,134349, Note_on_c, 0, 59, 0
2,134403, Note_on_c, 0, 57, 57
2,134405, Note_on_c, 0, 73, 65
2,134488, Note_on_c, 0, 57, 0
2,134488, Note_on_c, 0, 73, 0
2,134536, Note_on_c, 0, 71, 61
2,134547, Note_on_c, 0, 56, 53
2,134621, Note_on_c, 0, 71, 0
2,134630, Note_on_c, 0, 56, 0
2,134675, Note_on_c, 0, 54, 58
2,134675, Note_on_c, 0, 69, 51
2,134734, Note_on_c, 0, 54, 0
2,134815, Note_on_c, 0, 68, 69
2,134831, Note_on_c, 0, 52, 55
2,134942, Note_on_c, 0, 52, 0
2,134942, Note_on_c, 0, 69, 0
2,134961, Note_on_c, 0, 54, 58
2,135003, Note_on_c, 0, 74, 0
2,135025, Note_on_c, 0, 54, 0
2,135098, Note_on_c, 0, 52, 65
2,135114, Note_on_c, 0, 73, 99
2,135116, Note_on_c, 0, 68, 0
2,135209, Note_on_c, 0, 52, 0
2,135250, Note_on_c, 0, 50, 61
2,135250, Note_on_c, 0, 71, 90
2,135292, Note_on_c, 0, 73, 0
2,135317, Note_on_c, 0, 50, 0
2,135388, Note_on_c, 0, 52, 59
2,135403, Note_on_c, 0, 73, 93
2,135438, Note_on_c, 0, 71, 0
2,135487, Note_on_c, 0, 52, 0
2,135547, Note_on_c, 0, 50, 57
2,135568, Note_on_c, 0, 71, 71
2,135615, Note_on_c, 0, 50, 0
2,135676, Note_on_c, 0, 49, 66
2,135696, Note_on_c, 0, 69, 65
2,135731, Note_on_c, 0, 49, 0
2,135772, Note_on_c, 0, 71, 0
2,135825, Note_on_c, 0, 52, 71
2,135830, Note_on_c, 0, 69, 0
2,135836, Note_on_c, 0, 68, 72
2,135937, Note_on_c, 0, 52, 0
2,135937, Note_on_c, 0, 73, 0
2,135946, Note_on_c, 0, 68, 0
2,135983, Note_on_c, 0, 66, 86
2,135985, Note_on_c, 0, 50, 75
2,136044, Note_on_c, 0, 66, 0
2,136053, Note_on_c, 0, 50, 0
2,136102, Note_on_c, 0, 52, 67
2,136234, Note_on_c, 0, 52, 0
2,136259, Note_on_c, 0, 78, 93
2,136263, Note_on_c, 0, 50, 77
2,136263, Note_on_c, 0, 69, 86
2,136289, Note_on_c, 0, 69, 0
2,136305, Note_on_c, 0, 78, 0
2,136342, Note_on_c, 0, 50, 0
2,136402, Note_on_c, 0, 49, 68
2,136471, Note_on_c, 0, 49, 0
2,136544, Note_on_c, 0, 50, 60
2,136559, Note_on_c, 0, 71, 75
2,136564, Note_on_c, 0, 69, 74
2,136613, Note_on_c, 0, 50, 0
2,136621, Note_on_c, 0, 69, 0
2,136626, Note_on_c, 0, 68, 91
2,136659, Note_on_c, 0, 49, 67
2,136696, Note_on_c, 0, 68, 0
2,136711, Note_on_c, 0, 69, 66
2,136739, Note_on_c, 0, 49, 0
2,136761, Note_on_c, 0, 69, 0
2,136766, Note_on_c, 0, 68, 69
2,136824, Note_on_c, 0, 47, 67
2,136900, Note_on_c, 0, 47, 0
2,136971, Note_on_c, 0, 50, 62
2,136981, Note_on_c, 0, 66, 80
2,137031, Note_on_c, 0, 68, 0
2,137082, Note_on_c, 0, 50, 0
2,137131, Note_on_c, 0, 65, 77
2,137131, Note_on_c, 0, 66, 0
2,137135, Note_on_c, 0, 49, 72
2,137236, Note_on_c, 0, 49, 0
2,137278, Note_on_c, 0, 50, 75
2,137287, Note_on_c, 0, 65, 0
2,137363, Note_on_c, 0, 71, 0
2,137368, Note_on_c, 0, 50, 0
2,137422, Note_on_c, 0, 69, 87
2,137430, Note_on_c, 0, 49, 73
2,137430, Note_on_c, 0, 61, 80
2,137494, Note_on_c, 0, 61, 0
2,137503, Note_on_c, 0, 49, 0
2,137544, Note_on_c, 0, 68, 90
2,137564, Note_on_c, 0, 47, 72
2,137576, Note_on_c, 0, 69, 0
2,137647, Note_on_c, 0, 68, 0
2,137662, Note_on_c, 0, 47, 0
2,137704, Note_on_c, 0, 69, 88
2,137728, Note_on_c, 0, 66, 74
2,137734, Note_on_c, 0, 49, 68
2,137800, Note_on_c, 0, 49, 0
2,137870, Note_on_c, 0, 47, 63
2,137911, Note_on_c, 0, 66, 0
2,137963, Note_on_c, 0, 47, 0
2,138013, Note_on_c, 0, 69, 0
2,138017, Note_on_c, 0, 66, 80
2,138028, Note_on_c, 0, 45, 59
2,138113, Note_on_c, 0, 45, 0
2,138174, Note_on_c, 0, 49, 66
2,138258, Note_on_c, 0, 49, 0
2,138280, Note_on_c, 0, 66, 0
2,138309, Note_on_c, 0, 69, 74
2,138324, Note_on_c, 0, 47, 63
2,138448, Note_on_c, 0, 47, 0
2,138481, Note_on_c, 0, 69, 0
2,138495, Note_on_c, 0, 68, 66
2,138509, Note_on_c, 0, 45, 9
2,138534, Note_on_c, 0, 49, 60
2,138554, Note_on_c, 0, 68, 0
2,138565, Note_on_c, 0, 45, 0
2,138588, Note_on_c, 0, 69, 61
2,138609, Note_on_c, 0, 49, 0
2,138635, Note_on_c, 0, 69, 0
2,138651, Note_on_c, 0, 47, 51
2,138658, Note_on_c, 0, 68, 84
2,138706, Note_on_c, 0, 68, 0
2,138717, Note_on_c, 0, 47, 0
2,138733, Note_on_c, 0, 45, 47
2,138737, Note_on_c, 0, 69, 70
2,138782, Note_on_c, 0, 45, 0
2,138786, Note_on_c, 0, 69, 0
2,138799, Note_on_c, 0, 68, 79
2,138849, Note_on_c, 0, 68, 0
2,138867, Note_on_c, 0, 47, 67
2,138867, Note_on_c, 0, 69, 74
2,138930, Note_on_c, 0, 65, 47
2,138939, Note_on_c, 0, 68, 87
2,138939, Note_on_c, 0, 69, 0
2,138994, Note_on_c, 0, 47, 0
2,139005, Note_on_c, 0, 68, 0
2,139020, Note_on_c, 0, 65, 0
2,139020, Note_on_c, 0, 65, 32
2,139020, Note_on_c, 0, 69, 68
2,139034, Note_on_c, 0, 45, 42
2,139077, Note_on_c, 0, 65, 0
2,139093, Note_on_c, 0, 69, 0
2,139114, Note_on_c, 0, 68, 68
2,139134, Note_on_c, 0, 45, 0
2,139148, Note_on_c, 0, 68, 0
2,139155, Note_on_c, 0, 44, 54
2,139164, Note_on_c, 0, 69, 62
2,139224, Note_on_c, 0, 69, 0
2,139233, Note_on_c, 0, 68, 75
2,139254, Note_on_c, 0, 44, 0
2,139293, Note_on_c, 0, 68, 0
2,139308, Note_on_c, 0, 47, 47
2,139314, Note_on_c, 0, 69, 56
2,139353, Note_on_c, 0, 69, 0
2,139391, Note_on_c, 0, 68, 61
2,139496, Note_on_c, 0, 47, 0
2,139535, Note_on_c, 0, 68, 0
2,139572, Note_on_c, 0, 45, 39
2,139572, Note_on_c, 0, 66, 44
2,139680, Note_on_c, 0, 45, 0
2,139754, Note_on_c, 0, 44, 48
2,139857, Note_on_c, 0, 44, 0
2,139857, Note_on_c, 0, 66, 0
2,139925, Note_on_c, 0, 73, 51
2,139938, Note_on_c, 0, 42, 39
2,140028, Note_on_c, 0, 42, 0
2,140080, Note_on_c, 0, 44, 49
2,140176, Note_on_c, 0, 44, 0
2,140211, Note_on_c, 0, 73, 0
2,140254, Note_on_c, 0, 45, 44
2,140254, Note_on_c, 0, 78, 63
2,140321, Note_on_c, 0, 45, 0
2,140414, Note_on_c, 0, 47, 37
2,140545, Note_on_c, 0, 47, 0
2,140558, Note_on_c, 0, 81, 60
2,140567, Note_on_c, 0, 78, 0
2,140580, Note_on_c, 0, 49, 46
2,140697, Note_on_c, 0, 49, 0
2,140754, Note_on_c, 0, 51, 51
2,140850, Note_on_c, 0, 51, 0
2,140925, Note_on_c, 0, 52, 42
2,140932, Note_on_c, 0, 80, 64
2,140979, Note_on_c, 0, 81, 0
2,141020, Note_on_c, 0, 52, 0
2,141084, Note_on_c, 0, 51, 45
2,141172, Note_on_c, 0, 51, 0
2,141234, Note_on_c, 0, 68, 61
2,141241, Note_on_c, 0, 49, 49
2,141352, Note_on_c, 0, 49, 0
2,141389, Note_on_c, 0, 51, 60
2,141483, Note_on_c, 0, 51, 0
2,141511, Note_on_c, 0, 68, 0
2,141534, Note_on_c, 0, 73, 63
2,141545, Note_on_c, 0, 52, 54
2,141642, Note_on_c, 0, 52, 0
2,141691, Note_on_c, 0, 54, 56
2,141819, Note_on_c, 0, 54, 0
2,141857, Note_on_c, 0, 56, 53
2,141872, Note_on_c, 0, 76, 70
2,141877, Note_on_c, 0, 73, 0
2,141987, Note_on_c, 0, 56, 0
2,142018, Note_on_c, 0, 58, 60
2,142113, Note_on_c, 0, 58, 0
2,142165, Note_on_c, 0, 60, 52
2,142174, Note_on_c, 0, 75, 77
2,142199, Note_on_c, 0, 76, 0
2,142210, Note_on_c, 0, 80, 0
2,142283, Note_on_c, 0, 60, 0
2,142308, Note_on_c, 0, 58, 53
2,142419, Note_on_c, 0, 58, 0
2,142472, Note_on_c, 0, 81, 83
2,142500, Note_on_c, 0, 60, 50
2,142624, Note_on_c, 0, 60, 0
2,142653, Note_on_c, 0, 61, 53
2,142727, Note_on_c, 0, 61, 0
2,142797, Note_on_c, 0, 80, 80
2,142805, Note_on_c, 0, 60, 57
2,142838, Note_on_c, 0, 81, 0
2,142958, Note_on_c, 0, 60, 0
2,142967, Note_on_c, 0, 61, 50
2,143063, Note_on_c, 0, 61, 0
2,143068, Note_on_c, 0, 80, 0
2,143115, Note_on_c, 0, 78, 80
2,143126, Note_on_c, 0, 63, 59
2,143221, Note_on_c, 0, 63, 0
2,143262, Note_on_c, 0, 60, 57
2,143322, Note_on_c, 0, 78, 0
2,143365, Note_on_c, 0, 75, 0
2,143399, Note_on_c, 0, 60, 0
2,143435, Note_on_c, 0, 61, 52
2,143439, Note_on_c, 0, 76, 77
2,143534, Note_on_c, 0, 61, 0
2,143607, Note_on_c, 0, 63, 49
2,143678, Note_on_c, 0, 63, 0
2,143729, Note_on_c, 0, 68, 60
2,143763, Note_on_c, 0, 64, 50
2,143848, Note_on_c, 0, 64, 0
2,143906, Note_on_c, 0, 63, 45
2,143977, Note_on_c, 0, 68, 0
2,143997, Note_on_c, 0, 63, 0
2,144049, Note_on_c, 0, 61, 49
2,144053, Note_on_c, 0, 73, 64
2,144109, Note_on_c, 0, 61, 0
2,144174, Note_on_c, 0, 59, 52
2,144269, Note_on_c, 0, 59, 0
2,144347, Note_on_c, 0, 57, 46
2,144352, Note_on_c, 0, 73, 0
2,144369, Note_on_c, 0, 71, 58
2,144430, Note_on_c, 0, 57, 0
2,144484, Note_on_c, 0, 56, 51
2,144669, Note_on_c, 0, 54, 51
2,144674, Note_on_c, 0, 56, 0
2,144674, Note_on_c, 0, 69, 59
2,144678, Note_on_c, 0, 71, 0
2,144704, Note_on_c, 0, 76, 0
2,144765, Note_on_c, 0, 54, 0
2,144811, Note_on_c, 0, 52, 55
2,144955, Note_on_c, 0, 76, 84
2,144984, Note_on_c, 0, 54, 53
2,145064, Note_on_c, 0, 52, 0
2,145119, Note_on_c, 0, 54, 0
2,145130, Note_on_c, 0, 56, 61
2,145199, Note_on_c, 0, 56, 0
2,145237, Note_on_c, 0, 76, 0
2,145276, Note_on_c, 0, 54, 55
2,145276, Note_on_c, 0, 75, 72
2,145399, Note_on_c, 0, 54, 0
2,145417, Note_on_c, 0, 56, 54
2,145580, Note_on_c, 0, 75, 0
2,145584, Note_on_c, 0, 57, 55
2,145593, Note_on_c, 0, 78, 75
2,145623, Note_on_c, 0, 56, 0
2,145649, Note_on_c, 0, 57, 0
2,145713, Note_on_c, 0, 54, 57
2,145795, Note_on_c, 0, 69, 0
2,145825, Note_on_c, 0, 54, 0
2,145880, Note_on_c, 0, 56, 63
2,145880, Note_on_c, 0, 72, 70
2,145923, Note_on_c, 0, 78, 0
2,145956, Note_on_c, 0, 56, 0
2,146020, Note_on_c, 0, 54, 58
2,146142, Note_on_c, 0, 54, 0
2,146167, Note_on_c, 0, 56, 60
2,146188, Note_on_c, 0, 63, 62
2,146236, Note_on_c, 0, 56, 0
2,146288, Note_on_c, 0, 57, 69
2,146424, Note_on_c, 0, 63, 0
2,146445, Note_on_c, 0, 57, 0
2,146457, Note_on_c, 0, 56, 67
2,146462, Note_on_c, 0, 68, 76
2,146477, Note_on_c, 0, 72, 0
2,146581, Note_on_c, 0, 56, 0
2,146594, Note_on_c, 0, 54, 66
2,146667, Note_on_c, 0, 54, 0
2,146733, Note_on_c, 0, 52, 76
2,146753, Note_on_c, 0, 66, 60
2,146753, Note_on_c, 0, 68, 0
2,146762, Note_on_c, 0, 75, 53
2,146815, Note_on_c, 0, 52, 0
2,146877, Note_on_c, 0, 51, 83
2,146919, Note_on_c, 0, 51, 0
2,146937, Note_on_c, 0, 66, 0
2,147014, Note_on_c, 0, 52, 88
2,147036, Note_on_c, 0, 68, 77
2,147040, Note_on_c, 0, 75, 0
2,147082, Note_on_c, 0, 52, 0
2,147191, Note_on_c, 0, 66, 69
2,147312, Note_on_c, 0, 49, 88
2,147325, Note_on_c, 0, 68, 0
2,147334, Note_on_c, 0, 66, 0
2,147357, Note_on_c, 0, 64, 69
2,147361, Note_on_c, 0, 49, 0
2,147479, Note_on_c, 0, 64, 0
2,147492, Note_on_c, 0, 63, 70
2,147635, Note_on_c, 0, 57, 100
2,147644, Note_on_c, 0, 61, 62
2,147649, Note_on_c, 0, 63, 0
2,147734, Note_on_c, 0, 61, 0
2,147794, Note_on_c, 0, 63, 66
2,147902, Note_on_c, 0, 63, 0
2,147951, Note_on_c, 0, 64, 80
2,147961, Note_on_c, 0, 73, 79
2,147994, Note_on_c, 0, 64, 0
2,148113, Note_on_c, 0, 61, 74
2,148147, Note_on_c, 0, 61, 0
2,148249, Note_on_c, 0, 73, 0
2,148260, Note_on_c, 0, 63, 80
2,148260, Note_on_c, 0, 71, 88
2,148402, Note_on_c, 0, 63, 0
2,148426, Note_on_c, 0, 73, 78
2,148454, Note_on_c, 0, 71, 0
2,148549, Note_on_c, 0, 73, 0
2,148553, Note_on_c, 0, 56, 85
2,148564, Note_on_c, 0, 57, 0
2,148571, Note_on_c, 0, 71, 83
2,148660, Note_on_c, 0, 56, 0
2,148685, Note_on_c, 0, 54, 81
2,148715, Note_on_c, 0, 69, 75
2,148769, Note_on_c, 0, 71, 0
2,148823, Note_on_c, 0, 69, 0
2,148828, Note_on_c, 0, 54, 0
2,148836, Note_on_c, 0, 56, 80
2,148847, Note_on_c, 0, 71, 77
2,148990, Note_on_c, 0, 69, 74
2,149054, Note_on_c, 0, 71, 0
2,149106, Note_on_c, 0, 69, 0
2,149130, Note_on_c, 0, 64, 66
2,149151, Note_on_c, 0, 68, 78
2,149182, Note_on_c, 0, 64, 0
2,149271, Note_on_c, 0, 71, 79
2,149275, Note_on_c, 0, 68, 0
2,149415, Note_on_c, 0, 61, 80
2,149430, Note_on_c, 0, 69, 78
2,149446, Note_on_c, 0, 56, 0
2,149457, Note_on_c, 0, 61, 0
2,149457, Note_on_c, 0, 71, 0
2,149568, Note_on_c, 0, 71, 81
2,149606, Note_on_c, 0, 69, 0
2,149717, Note_on_c, 0, 61, 93
2,149726, Note_on_c, 0, 69, 75
2,149755, Note_on_c, 0, 64, 54
2,149777, Note_on_c, 0, 61, 0
2,149786, Note_on_c, 0, 64, 0
2,149843, Note_on_c, 0, 69, 0
2,149843, Note_on_c, 0, 71, 0
2,149847, Note_on_c, 0, 68, 79
2,149926, Note_on_c, 0, 68, 0
2,149987, Note_on_c, 0, 64, 56
2,150002, Note_on_c, 0, 69, 74
2,150015, Note_on_c, 0, 54, 75
2,150015, Note_on_c, 0, 63, 83
2,150025, Note_on_c, 0, 64, 0
2,150102, Note_on_c, 0, 68, 77
2,150128, Note_on_c, 0, 69, 0
2,150293, Note_on_c, 0, 66, 77
2,150310, Note_on_c, 0, 68, 0
2,150416, Note_on_c, 0, 63, 0
2,150453, Note_on_c, 0, 69, 75
2,150457, Note_on_c, 0, 66, 0
2,150462, Note_on_c, 0, 61, 70
2,150541, Note_on_c, 0, 61, 0
2,150578, Note_on_c, 0, 54, 0
2,150607, Note_on_c, 0, 60, 78
2,150614, Note_on_c, 0, 68, 80
2,150655, Note_on_c, 0, 69, 0
2,150761, Note_on_c, 0, 69, 74
2,150804, Note_on_c, 0, 68, 0
2,150874, Note_on_c, 0, 60, 0
2,150913, Note_on_c, 0, 56, 81
2,150917, Note_on_c, 0, 68, 90
2,150921, Note_on_c, 0, 52, 77
2,150958, Note_on_c, 0, 69, 0
2,151000, Note_on_c, 0, 52, 0
2,151018, Note_on_c, 0, 56, 0
2,151029, Note_on_c, 0, 51, 90
2,151050, Note_on_c, 0, 66, 88
2,151096, Note_on_c, 0, 68, 0
2,151116, Note_on_c, 0, 51, 0
2,151142, Note_on_c, 0, 52, 15
2,151191, Note_on_c, 0, 61, 74
2,151202, Note_on_c, 0, 68, 91
2,151226, Note_on_c, 0, 66, 0
2,151239, Note_on_c, 0, 52, 0
2,151327, Note_on_c, 0, 68, 0
2,151353, Note_on_c, 0, 66, 78
2,151481, Note_on_c, 0, 66, 0
2,151490, Note_on_c, 0, 49, 68
2,151517, Note_on_c, 0, 64, 69
2,151642, Note_on_c, 0, 64, 0
2,151650, Note_on_c, 0, 68, 72
2,151751, Note_on_c, 0, 49, 0
2,151762, Note_on_c, 0, 61, 0
2,151808, Note_on_c, 0, 66, 63
2,151808, Note_on_c, 0, 68, 0
2,151816, Note_on_c, 0, 51, 54
2,151952, Note_on_c, 0, 66, 0
2,151961, Note_on_c, 0, 68, 62
2,152112, Note_on_c, 0, 66, 60
2,152116, Note_on_c, 0, 68, 0
2,152201, Note_on_c, 0, 66, 0
2,152254, Note_on_c, 0, 64, 58
2,152369, Note_on_c, 0, 64, 0
2,152378, Note_on_c, 0, 60, 44
2,152402, Note_on_c, 0, 66, 57
2,152552, Note_on_c, 0, 66, 0
2,152557, Note_on_c, 0, 64, 55
2,152694, Note_on_c, 0, 64, 0
2,152722, Note_on_c, 0, 51, 0
2,152729, Note_on_c, 0, 63, 55
2,152866, Note_on_c, 0, 63, 0
2,152872, Note_on_c, 0, 60, 0
2,152872, Note_on_c, 0, 66, 56
2,153025, Note_on_c, 0, 66, 0
2,153043, Note_on_c, 0, 49, 45
2,153054, Note_on_c, 0, 64, 49
2,153081, Note_on_c, 0, 61, 33
2,153155, Note_on_c, 0, 49, 0
2,153224, Note_on_c, 0, 48, 48
2,153336, Note_on_c, 0, 48, 0
2,153389, Note_on_c, 0, 49, 57
2,153393, Note_on_c, 0, 56, 57
2,153398, Note_on_c, 0, 64, 0
2,153481, Note_on_c, 0, 61, 0
2,153506, Note_on_c, 0, 49, 0
2,153541, Note_on_c, 0, 51, 72
2,153632, Note_on_c, 0, 56, 0
2,153647, Note_on_c, 0, 51, 0
2,153692, Note_on_c, 0, 61, 60
2,153694, Note_on_c, 0, 52, 75
2,153797, Note_on_c, 0, 52, 0
2,153836, Note_on_c, 0, 54, 68
2,153934, Note_on_c, 0, 54, 0
2,154000, Note_on_c, 0, 55, 59
2,154004, Note_on_c, 0, 64, 61
2,154013, Note_on_c, 0, 61, 0
2,154058, Note_on_c, 0, 55, 0
2,154132, Note_on_c, 0, 52, 63
2,154239, Note_on_c, 0, 52, 0
2,154295, Note_on_c, 0, 54, 64
2,154295, Note_on_c, 0, 58, 60
2,154352, Note_on_c, 0, 54, 0
2,154426, Note_on_c, 0, 55, 60
2,154542, Note_on_c, 0, 55, 0
2,154590, Note_on_c, 0, 67, 68
2,154595, Note_on_c, 0, 54, 58
2,154612, Note_on_c, 0, 64, 0
2,154616, Note_on_c, 0, 58, 0
2,154679, Note_on_c, 0, 54, 0
2,154738, Note_on_c, 0, 52, 59
2,154803, Note_on_c, 0, 52, 0
2,154872, Note_on_c, 0, 66, 76
2,154877, Note_on_c, 0, 59, 71
2,154883, Note_on_c, 0, 67, 0
2,154902, Note_on_c, 0, 50, 59
2,154914, Note_on_c, 0, 59, 0
2,154925, Note_on_c, 0, 66, 0
2,154985, Note_on_c, 0, 50, 0
2,155059, Note_on_c, 0, 49, 48
2,155128, Note_on_c, 0, 49, 0
2,155188, Note_on_c, 0, 64, 68
2,155201, Note_on_c, 0, 47, 53
2,155201, Note_on_c, 0, 61, 59
2,155240, Note_on_c, 0, 64, 0
2,155245, Note_on_c, 0, 61, 0
2,155304, Note_on_c, 0, 47, 0
2,155337, Note_on_c, 0, 46, 57
2,155443, Note_on_c, 0, 46, 0
2,155497, Note_on_c, 0, 62, 64
2,155511, Note_on_c, 0, 47, 55
2,155590, Note_on_c, 0, 47, 0
2,155671, Note_on_c, 0, 42, 44
2,155783, Note_on_c, 0, 42, 0
2,155820, Note_on_c, 0, 54, 57
2,155825, Note_on_c, 0, 47, 52
2,155865, Note_on_c, 0, 54, 0
2,155929, Note_on_c, 0, 47, 0
2,155971, Note_on_c, 0, 49, 60
2,156057, Note_on_c, 0, 49, 0
2,156079, Note_on_c, 0, 62, 0
2,156126, Note_on_c, 0, 59, 60
2,156135, Note_on_c, 0, 50, 55
2,156246, Note_on_c, 0, 50, 0
2,156284, Note_on_c, 0, 52, 57
2,156356, Note_on_c, 0, 52, 0
2,156429, Note_on_c, 0, 62, 64
2,156438, Note_on_c, 0, 54, 63
2,156476, Note_on_c, 0, 59, 0
2,156512, Note_on_c, 0, 54, 0
2,156587, Note_on_c, 0, 50, 62
2,156663, Note_on_c, 0, 50, 0
2,156726, Note_on_c, 0, 62, 0
2,156730, Note_on_c, 0, 56, 68
2,156737, Note_on_c, 0, 52, 56
2,156799, Note_on_c, 0, 52, 0
2,156888, Note_on_c, 0, 54, 53
2,156953, Note_on_c, 0, 54, 0
2,157030, Note_on_c, 0, 52, 60
2,157035, Note_on_c, 0, 66, 73
2,157134, Note_on_c, 0, 52, 0
2,157179, Note_on_c, 0, 50, 61
2,157210, Note_on_c, 0, 66, 0
2,157229, Note_on_c, 0, 56, 0
2,157278, Note_on_c, 0, 50, 0
2,157329, Note_on_c, 0, 49, 60
2,157337, Note_on_c, 0, 57, 68
2,157342, Note_on_c, 0, 64, 66
2,157370, Note_on_c, 0, 57, 0
2,157386, Note_on_c, 0, 49, 0
2,157386, Note_on_c, 0, 64, 0
2,157463, Note_on_c, 0, 47, 58
2,157558, Note_on_c, 0, 47, 0
2,157625, Note_on_c, 0, 62, 72
2,157634, Note_on_c, 0, 45, 54
2,157639, Note_on_c, 0, 59, 58
2,157668, Note_on_c, 0, 59, 0
2,157687, Note_on_c, 0, 62, 0
2,157703, Note_on_c, 0, 45, 0
2,157780, Note_on_c, 0, 44, 64
2,157873, Note_on_c, 0, 44, 0
2,157920, Note_on_c, 0, 61, 65
2,157941, Note_on_c, 0, 45, 52
2,158000, Note_on_c, 0, 45, 0
2,158077, Note_on_c, 0, 40, 59
2,158208, Note_on_c, 0, 61, 0
2,158212, Note_on_c, 0, 40, 0
2,158219, Note_on_c, 0, 45, 63
2,158219, Note_on_c, 0, 57, 64
2,158289, Note_on_c, 0, 45, 0
2,158367, Note_on_c, 0, 47, 58
2,158391, Note_on_c, 0, 56, 74
2,158435, Note_on_c, 0, 57, 0
2,158486, Note_on_c, 0, 47, 0
2,158530, Note_on_c, 0, 49, 68
2,158530, Note_on_c, 0, 56, 0
2,158546, Note_on_c, 0, 57, 75
2,158615, Note_on_c, 0, 49, 0
2,158685, Note_on_c, 0, 50, 65
2,158755, Note_on_c, 0, 50, 0
2,158821, Note_on_c, 0, 52, 63
2,158834, Note_on_c, 0, 61, 68
2,158899, Note_on_c, 0, 52, 0
2,158945, Note_on_c, 0, 57, 0
2,158956, Note_on_c, 0, 49, 68
2,159016, Note_on_c, 0, 49, 0
2,159109, Note_on_c, 0, 66, 80
2,159113, Note_on_c, 0, 61, 0
2,159117, Note_on_c, 0, 50, 69
2,159175, Note_on_c, 0, 50, 0
2,159259, Note_on_c, 0, 52, 63
2,159361, Note_on_c, 0, 52, 0
2,159416, Note_on_c, 0, 50, 62
2,159420, Note_on_c, 0, 59, 75
2,159501, Note_on_c, 0, 50, 0
2,159552, Note_on_c, 0, 49, 67
2,159561, Note_on_c, 0, 61, 72
2,159577, Note_on_c, 0, 59, 0
2,159630, Note_on_c, 0, 49, 0
2,159660, Note_on_c, 0, 66, 0
2,159695, Note_on_c, 0, 61, 0
2,159710, Note_on_c, 0, 47, 74
2,159710, Note_on_c, 0, 62, 86
2,159826, Note_on_c, 0, 47, 0
2,159847, Note_on_c, 0, 45, 71
2,159940, Note_on_c, 0, 45, 0
2,159976, Note_on_c, 0, 62, 0
2,160002, Note_on_c, 0, 44, 79
2,160011, Note_on_c, 0, 65, 79
2,160083, Note_on_c, 0, 44, 0
2,160154, Note_on_c, 0, 42, 79
2,160160, Note_on_c, 0, 66, 87
2,160194, Note_on_c, 0, 65, 0
2,160227, Note_on_c, 0, 42, 0
2,160287, Note_on_c, 0, 68, 87
2,160292, Note_on_c, 0, 41, 85
2,160302, Note_on_c, 0, 66, 0
2,160355, Note_on_c, 0, 41, 0
2,160386, Note_on_c, 0, 68, 0
2,160429, Note_on_c, 0, 61, 81
2,160497, Note_on_c, 0, 61, 0
2,160584, Note_on_c, 0, 37, 74
2,160588, Note_on_c, 0, 63, 81
2,160595, Note_on_c, 0, 66, 84
2,160653, Note_on_c, 0, 37, 0
2,160680, Note_on_c, 0, 63, 0
2,160719, Note_on_c, 0, 68, 84
2,160734, Note_on_c, 0, 65, 75
2,160738, Note_on_c, 0, 66, 0
2,160792, Note_on_c, 0, 65, 0
2,160808, Note_on_c, 0, 68, 0
2,160893, Note_on_c, 0, 42, 88
2,160893, Note_on_c, 0, 69, 81
2,160915, Note_on_c, 0, 66, 67
2,161047, Note_on_c, 0, 69, 0
2,161063, Note_on_c, 0, 68, 80
2,161119, Note_on_c, 0, 66, 0
2,161190, Note_on_c, 0, 69, 72
2,161244, Note_on_c, 0, 68, 0
2,161303, Note_on_c, 0, 69, 0
2,161350, Note_on_c, 0, 66, 72
2,161466, Note_on_c, 0, 66, 0
2,161495, Note_on_c, 0, 71, 73
2,161640, Note_on_c, 0, 71, 0
2,161642, Note_on_c, 0, 73, 70
2,161792, Note_on_c, 0, 73, 0
2,161795, Note_on_c, 0, 71, 68
2,161925, Note_on_c, 0, 71, 0
2,161930, Note_on_c, 0, 69, 56
2,162047, Note_on_c, 0, 42, 0
2,162054, Note_on_c, 0, 41, 56
2,162062, Note_on_c, 0, 71, 71
2,162075, Note_on_c, 0, 69, 0
2,162217, Note_on_c, 0, 69, 63
2,162285, Note_on_c, 0, 71, 0
2,162330, Note_on_c, 0, 69, 0
2,162348, Note_on_c, 0, 73, 77
2,162395, Note_on_c, 0, 41, 0
2,162402, Note_on_c, 0, 68, 61
2,162508, Note_on_c, 0, 69, 62
2,162539, Note_on_c, 0, 68, 0
2,162539, Note_on_c, 0, 73, 0
2,162561, Note_on_c, 0, 69, 0
2,162645, Note_on_c, 0, 69, 72
2,162672, Note_on_c, 0, 42, 31
2,162713, Note_on_c, 0, 69, 0
2,162794, Note_on_c, 0, 42, 0
2,162822, Note_on_c, 0, 54, 64
2,162901, Note_on_c, 0, 54, 0
2,162955, Note_on_c, 0, 66, 72
2,162980, Note_on_c, 0, 56, 62
2,163002, Note_on_c, 0, 66, 0
2,163054, Note_on_c, 0, 56, 0
2,163123, Note_on_c, 0, 57, 55
2,163186, Note_on_c, 0, 57, 0
2,163267, Note_on_c, 0, 74, 71
2,163280, Note_on_c, 0, 59, 50
2,163397, Note_on_c, 0, 59, 0
2,163436, Note_on_c, 0, 61, 51
2,163523, Note_on_c, 0, 61, 0
2,163587, Note_on_c, 0, 59, 55
2,163591, Note_on_c, 0, 66, 58
2,163692, Note_on_c, 0, 59, 0
2,163743, Note_on_c, 0, 57, 54
2,163743, Note_on_c, 0, 66, 0
2,163743, Note_on_c, 0, 66, 4
2,163833, Note_on_c, 0, 57, 0
2,163892, Note_on_c, 0, 56, 49
2,163906, Note_on_c, 0, 64, 57
2,163910, Note_on_c, 0, 66, 0
2,164043, Note_on_c, 0, 66, 67
2,164056, Note_on_c, 0, 64, 0
2,164056, Note_on_c, 0, 74, 0
2,164134, Note_on_c, 0, 56, 0
2,164175, Note_on_c, 0, 66, 0
2,164194, Note_on_c, 0, 73, 86
2,164204, Note_on_c, 0, 64, 67
2,164313, Note_on_c, 0, 64, 0
2,164334, Note_on_c, 0, 71, 80
2,164341, Note_on_c, 0, 62, 67
2,164381, Note_on_c, 0, 73, 0
2,164412, Note_on_c, 0, 62, 0
2,164476, Note_on_c, 0, 64, 60
2,164489, Note_on_c, 0, 73, 80
2,164491, Note_on_c, 0, 71, 0
2,164600, Note_on_c, 0, 64, 0
2,164624, Note_on_c, 0, 62, 69
2,164738, Note_on_c, 0, 62, 0
2,164769, Note_on_c, 0, 58, 62
2,164769, Note_on_c, 0, 61, 64
2,164893, Note_on_c, 0, 61, 0
2,164898, Note_on_c, 0, 58, 0
2,164903, Note_on_c, 0, 64, 73
2,165019, Note_on_c, 0, 64, 0
2,165041, Note_on_c, 0, 62, 81
2,165056, Note_on_c, 0, 59, 69
2,165143, Note_on_c, 0, 62, 0
2,165174, Note_on_c, 0, 64, 81
2,165209, Note_on_c, 0, 59, 0
2,165280, Note_on_c, 0, 64, 0
2,165321, Note_on_c, 0, 62, 89
2,165340, Note_on_c, 0, 57, 75
2,165345, Note_on_c, 0, 78, 93
2,165472, Note_on_c, 0, 62, 0
2,165479, Note_on_c, 0, 61, 80
2,165517, Note_on_c, 0, 57, 0
2,165517, Note_on_c, 0, 61, 0
2,165640, Note_on_c, 0, 73, 0
2,165645, Note_on_c, 0, 78, 0
2,165653, Note_on_c, 0, 71, 92
2,165658, Note_on_c, 0, 62, 84
2,165662, Note_on_c, 0, 56, 83
2,165755, Note_on_c, 0, 62, 0
2,165803, Note_on_c, 0, 61, 74
2,165915, Note_on_c, 0, 61, 0
2,165975, Note_on_c, 0, 59, 80
2,166000, Note_on_c, 0, 56, 0
2,166035, Note_on_c, 0, 59, 0
2,166102, Note_on_c, 0, 62, 79
2,166119, Note_on_c, 0, 54, 88
2,166166, Note_on_c, 0, 54, 0
2,166257, Note_on_c, 0, 53, 87
2,166260, Note_on_c, 0, 61, 80
2,166283, Note_on_c, 0, 62, 0
2,166313, Note_on_c, 0, 71, 0
2,166322, Note_on_c, 0, 53, 0
2,166349, Note_on_c, 0, 61, 0
2,166391, Note_on_c, 0, 62, 85
2,166464, Note_on_c, 0, 62, 0
2,166541, Note_on_c, 0, 69, 85
2,166545, Note_on_c, 0, 49, 67
2,166550, Note_on_c, 0, 61, 77
2,166590, Note_on_c, 0, 61, 0
2,166599, Note_on_c, 0, 69, 0
2,166672, Note_on_c, 0, 68, 92
2,166681, Note_on_c, 0, 59, 77
2,166687, Note_on_c, 0, 49, 0
2,166687, Note_on_c, 0, 49, 5
2,166717, Note_on_c, 0, 59, 0
2,166743, Note_on_c, 0, 68, 0
2,166752, Note_on_c, 0, 49, 0
2,166818, Note_on_c, 0, 69, 83
2,166833, Note_on_c, 0, 54, 65
2,166833, Note_on_c, 0, 61, 77
2,166972, Note_on_c, 0, 59, 75
2,167059, Note_on_c, 0, 59, 0
2,167067, Note_on_c, 0, 61, 0
2,167115, Note_on_c, 0, 57, 86
2,167120, Note_on_c, 0, 66, 90
2,167136, Note_on_c, 0, 69, 0
2,167190, Note_on_c, 0, 57, 0
2,167279, Note_on_c, 0, 61, 85
2,167297, Note_on_c, 0, 53, 58
2,167341, Note_on_c, 0, 66, 0
2,167346, Note_on_c, 0, 53, 0
2,167375, Note_on_c, 0, 54, 0
2,167399, Note_on_c, 0, 69, 89
2,167431, Note_on_c, 0, 61, 0
2,167446, Note_on_c, 0, 59, 76
2,167560, Note_on_c, 0, 69, 0
2,167582, Note_on_c, 0, 68, 79
2,167586, Note_on_c, 0, 59, 0
2,167600, Note_on_c, 0, 61, 68
2,167630, Note_on_c, 0, 68, 0
2,167648, Note_on_c, 0, 61, 0
2,167677, Note_on_c, 0, 69, 72
2,167715, Note_on_c, 0, 69, 0
2,167720, Note_on_c, 0, 59, 77
2,167734, Note_on_c, 0, 68, 72
2,167767, Note_on_c, 0, 68, 0
2,167798, Note_on_c, 0, 69, 72
2,167804, Note_on_c, 0, 59, 0
2,167839, Note_on_c, 0, 57, 85
2,167848, Note_on_c, 0, 69, 0
2,167859, Note_on_c, 0, 68, 63
2,167891, Note_on_c, 0, 68, 0
2,167933, Note_on_c, 0, 69, 66
2,167941, Note_on_c, 0, 57, 0
2,167969, Note_on_c, 0, 69, 0
2,167974, Note_on_c, 0, 59, 86
2,167989, Note_on_c, 0, 68, 67
2,167993, Note_on_c, 0, 53, 72
2,168036, Note_on_c, 0, 68, 0
2,168050, Note_on_c, 0, 69, 72
2,168099, Note_on_c, 0, 59, 0
2,168099, Note_on_c, 0, 69, 0
2,168103, Note_on_c, 0, 57, 77
2,168122, Note_on_c, 0, 68, 78
2,168164, Note_on_c, 0, 68, 0
2,168199, Note_on_c, 0, 69, 75
2,168218, Note_on_c, 0, 56, 76
2,168237, Note_on_c, 0, 69, 0
2,168242, Note_on_c, 0, 57, 0
2,168253, Note_on_c, 0, 53, 0
2,168261, Note_on_c, 0, 68, 74
2,168293, Note_on_c, 0, 68, 0
2,168312, Note_on_c, 0, 59, 80
2,168312, Note_on_c, 0, 69, 84
2,168365, Note_on_c, 0, 68, 74
2,168374, Note_on_c, 0, 69, 0
2,168426, Note_on_c, 0, 59, 0
2,168433, Note_on_c, 0, 56, 0
2,168437, Note_on_c, 0, 69, 72
2,168446, Note_on_c, 0, 68, 0
2,168485, Note_on_c, 0, 57, 89
2,168489, Note_on_c, 0, 54, 82
2,168561, Note_on_c, 0, 57, 0
2,168585, Note_on_c, 0, 54, 0
2,168598, Note_on_c, 0, 69, 0
2,168626, Note_on_c, 0, 66, 89
2,168766, Note_on_c, 0, 50, 100
2,168775, Note_on_c, 0, 66, 0
2,168814, Note_on_c, 0, 59, 73
2,168900, Note_on_c, 0, 59, 0
2,168922, Note_on_c, 0, 65, 83
2,169053, Note_on_c, 0, 50, 0
2,169060, Note_on_c, 0, 65, 0
2,169072, Note_on_c, 0, 61, 87
2,169084, Note_on_c, 0, 45, 92
2,169188, Note_on_c, 0, 61, 0
2,169224, Note_on_c, 0, 66, 89
2,169375, Note_on_c, 0, 47, 92
2,169379, Note_on_c, 0, 62, 93
2,169383, Note_on_c, 0, 66, 0
2,169388, Note_on_c, 0, 45, 0
2,169537, Note_on_c, 0, 68, 95
2,169568, Note_on_c, 0, 62, 0
2,169688, Note_on_c, 0, 47, 0
2,169727, Note_on_c, 0, 61, 92
2,169732, Note_on_c, 0, 49, 85
2,169736, Note_on_c, 0, 68, 0
2,169741, Note_on_c, 0, 57, 92
2,170120, Note_on_c, 0, 66, 95
2,170146, Note_on_c, 0, 61, 0
2,170166, Note_on_c, 0, 57, 0
2,170516, Note_on_c, 0, 66, 0
2,170531, Note_on_c, 0, 56, 90
2,170535, Note_on_c, 0, 49, 0
2,170539, Note_on_c, 0, 37, 85
2,171020, Note_on_c, 0, 65, 86
2,171093, Note_on_c, 0, 56, 0
2,171796, Note_on_c, 0, 37, 0
2,171796, Note_on_c, 0, 54, 88
2,171800, Note_on_c, 0, 42, 86
2,171800, Note_on_c, 0, 66, 89
2,171905, Note_on_c, 0, 65, 0
2,174649, Note_on_c, 0, 54, 0
2,174659, Note_on_c, 0, 66, 0
2,174681, Note_on_c, 0, 42, 0
2,174682, End_track
0, 0, End_of_file
