0, 0, Header, 1, 2, 384
1, 0, Start_track
1, 0, Tempo, 500000
1, 0, Time_signature, 4, 2, 24, 8
1, 1, End_track
2, 0, Start_track
2, 0, Title_t, "7.6.13 Group 2"
2, 0, Program_c, 0, 0
2, 0, Control_c, 0, 64, 0
2, 0, Control_c, 0, 66, 0
2, 0, Control_c, 0, 67, 0
2, 766, Note_on_c, 0, 54, 37
2, 783, Note_on_c, 0, 78, 58
2, 1394, Note_on_c, 0, 73, 61
2, 1405, Note_on_c, 0, 57, 24
2, 1474, Note_on_c, 0, 78, 0
2, 1780, Control_c, 0, 64, 19
2, 1796, Control_c, 0, 64, 26
2, 1811, Control_c, 0, 64, 30
2, 1826, Control_c, 0, 64, 33
2, 1842, Control_c, 0, 64, 36
2, 1857, Control_c, 0, 64, 39
2, 1872, Control_c, 0, 64, 41
2, 1887, Control_c, 0, 64, 42
2, 1902, Control_c, 0, 64, 44
2, 1918, Control_c, 0, 64, 45
2, 1933, Control_c, 0, 64, 47
2, 1948, Control_c, 0, 64, 49
2, 1963, Control_c, 0, 64, 50
2, 1976, Note_on_c, 0, 61, 39
2, 1978, Control_c, 0, 64, 52
2, 1994, Control_c, 0, 64, 53
2, 2009, Control_c, 0, 64, 55
2, 2023, Control_c, 0, 64, 56
2, 2039, Control_c, 0, 64, 58
2, 2054, Control_c, 0, 64, 59
2, 2069, Control_c, 0, 64, 61
2, 2084, Control_c, 0, 64, 62
2, 2099, Control_c, 0, 64, 63
2, 2115, Control_c, 0, 64, 64
2, 2130, Control_c, 0, 64, 65
2, 2144, Control_c, 0, 64, 67
2, 2160, Control_c, 0, 64, 69
2, 2165, Note_on_c, 0, 54, 0
2, 2175, Control_c, 0, 64, 72
2, 2191, Control_c, 0, 64, 76
2, 2206, Control_c, 0, 64, 82
2, 2219, Note_on_c, 0, 57, 0
2, 2221, Control_c, 0, 64, 92
2, 2237, Control_c, 0, 64, 105
2, 2260, Control_c, 0, 64, 127
2, 2564, Note_on_c, 0, 69, 48
2, 2584, Note_on_c, 0, 66, 37
2, 2602, Note_on_c, 0, 61, 0
2, 2611, Note_on_c, 0, 73, 0
2, 2839, Note_on_c, 0, 56, 37
2, 2842, Note_on_c, 0, 71, 64
2, 2989, Note_on_c, 0, 69, 0
2, 3144, Note_on_c, 0, 57, 37
2, 3167, Note_on_c, 0, 73, 63
2, 3178, Control_c, 0, 64, 108
2, 3193, Control_c, 0, 64, 99
2, 3198, Note_on_c, 0, 56, 0
2, 3206, Note_on_c, 0, 71, 0
2, 3209, Control_c, 0, 64, 90
2, 3223, Control_c, 0, 64, 79
2, 3239, Control_c, 0, 64, 69
2, 3254, Control_c, 0, 64, 54
2, 3269, Control_c, 0, 64, 0
2, 3363, Note_on_c, 0, 71, 65
2, 3392, Note_on_c, 0, 73, 0
2, 3406, Control_c, 0, 64, 49
2, 3421, Control_c, 0, 64, 61
2, 3436, Control_c, 0, 64, 64
2, 3451, Control_c, 0, 64, 68
2, 3466, Control_c, 0, 64, 75
2, 3472, Note_on_c, 0, 66, 0
2, 3482, Control_c, 0, 64, 86
2, 3498, Control_c, 0, 64, 102
2, 3512, Control_c, 0, 64, 127
2, 3521, Note_on_c, 0, 69, 64
2, 3526, Note_on_c, 0, 71, 0
2, 3685, Note_on_c, 0, 71, 69
2, 3702, Note_on_c, 0, 61, 50
2, 3703, Note_on_c, 0, 69, 0
2, 3707, Note_on_c, 0, 65, 53
2, 3726, Control_c, 0, 64, 107
2, 3741, Control_c, 0, 64, 77
2, 3757, Control_c, 0, 64, 64
2, 3771, Control_c, 0, 64, 44
2, 3775, Note_on_c, 0, 57, 0
2, 3793, Control_c, 0, 64, 0
2, 3809, Control_c, 0, 64, 20
2, 3824, Control_c, 0, 64, 44
2, 3840, Control_c, 0, 64, 53
2, 3854, Control_c, 0, 64, 59
2, 3863, Note_on_c, 0, 69, 65
2, 3869, Control_c, 0, 64, 63
2, 3885, Control_c, 0, 64, 66
2, 3901, Control_c, 0, 64, 70
2, 3907, Note_on_c, 0, 71, 0
2, 3917, Control_c, 0, 64, 77
2, 3932, Control_c, 0, 64, 90
2, 3946, Control_c, 0, 64, 114
2, 3951, Note_on_c, 0, 65, 0
2, 3962, Control_c, 0, 64, 127
2, 4035, Note_on_c, 0, 68, 72
2, 4069, Note_on_c, 0, 69, 0
2, 4280, Note_on_c, 0, 69, 61
2, 4304, Note_on_c, 0, 66, 50
2, 4311, Control_c, 0, 64, 110
2, 4327, Control_c, 0, 64, 102
2, 4331, Note_on_c, 0, 54, 32
2, 4342, Control_c, 0, 64, 95
2, 4344, Note_on_c, 0, 68, 0
2, 4357, Control_c, 0, 64, 89
2, 4372, Control_c, 0, 64, 84
2, 4373, Note_on_c, 0, 61, 0
2, 4387, Control_c, 0, 64, 81
2, 4402, Control_c, 0, 64, 78
2, 4417, Control_c, 0, 64, 75
2, 4432, Control_c, 0, 64, 72
2, 4448, Control_c, 0, 64, 70
2, 4463, Control_c, 0, 64, 68
2, 4479, Control_c, 0, 64, 66
2, 4493, Control_c, 0, 64, 64
2, 4508, Control_c, 0, 64, 61
2, 4524, Control_c, 0, 64, 58
2, 4539, Control_c, 0, 64, 53
2, 4562, Control_c, 0, 64, 47
2, 4577, Control_c, 0, 64, 40
2, 4592, Control_c, 0, 64, 29
2, 4600, Note_on_c, 0, 71, 54
2, 4608, Control_c, 0, 64, 12
2, 4622, Control_c, 0, 64, 0
2, 4673, Note_on_c, 0, 69, 0
2, 4904, Note_on_c, 0, 61, 49
2, 4906, Note_on_c, 0, 69, 53
2, 4942, Note_on_c, 0, 71, 0
2, 5028, Note_on_c, 0, 66, 0
2, 5168, Note_on_c, 0, 68, 52
2, 5229, Note_on_c, 0, 69, 0
2, 5478, Note_on_c, 0, 69, 52
2, 5493, Note_on_c, 0, 68, 0
2, 5770, Note_on_c, 0, 73, 61
2, 5900, Note_on_c, 0, 69, 0
2, 6052, Note_on_c, 0, 57, 33
2, 6059, Note_on_c, 0, 78, 67
2, 6070, Note_on_c, 0, 61, 0
2, 6174, Note_on_c, 0, 73, 0
2, 6337, Note_on_c, 0, 80, 64
2, 6353, Note_on_c, 0, 59, 48
2, 6363, Note_on_c, 0, 57, 0
2, 6418, Note_on_c, 0, 78, 0
2, 6638, Note_on_c, 0, 81, 57
2, 6661, Note_on_c, 0, 61, 45
2, 6664, Note_on_c, 0, 59, 0
2, 6680, Note_on_c, 0, 80, 0
2, 6823, Note_on_c, 0, 59, 44
2, 6829, Note_on_c, 0, 80, 57
2, 6870, Note_on_c, 0, 61, 0
2, 6879, Note_on_c, 0, 81, 0
2, 6986, Note_on_c, 0, 59, 0
2, 6997, Note_on_c, 0, 78, 63
2, 7000, Note_on_c, 0, 57, 43
2, 7026, Note_on_c, 0, 80, 0
2, 7150, Note_on_c, 0, 57, 0
2, 7155, Note_on_c, 0, 59, 47
2, 7172, Note_on_c, 0, 80, 60
2, 7198, Note_on_c, 0, 78, 0
2, 7319, Note_on_c, 0, 78, 70
2, 7327, Note_on_c, 0, 59, 0
2, 7337, Note_on_c, 0, 57, 42
2, 7356, Note_on_c, 0, 80, 0
2, 7487, Note_on_c, 0, 57, 0
2, 7490, Note_on_c, 0, 77, 65
2, 7508, Note_on_c, 0, 56, 46
2, 7534, Note_on_c, 0, 78, 0
2, 7731, Note_on_c, 0, 56, 0
2, 7734, Note_on_c, 0, 57, 46
2, 7746, Note_on_c, 0, 78, 62
2, 7779, Note_on_c, 0, 77, 0
2, 8057, Note_on_c, 0, 73, 63
2, 8108, Note_on_c, 0, 78, 0
2, 8357, Note_on_c, 0, 56, 41
2, 8357, Note_on_c, 0, 59, 44
2, 8415, Note_on_c, 0, 57, 0
2, 8439, Note_on_c, 0, 54, 0
2, 8663, Note_on_c, 0, 77, 53
2, 8784, Note_on_c, 0, 73, 0
2, 8948, Note_on_c, 0, 57, 39
2, 8948, Note_on_c, 0, 59, 0
2, 8949, Note_on_c, 0, 61, 35
2, 8957, Note_on_c, 0, 78, 59
2, 8988, Note_on_c, 0, 56, 0
2, 8999, Note_on_c, 0, 77, 0
2, 9073, Control_c, 0, 64, 15
2, 9088, Control_c, 0, 64, 36
2, 9103, Control_c, 0, 64, 45
2, 9119, Control_c, 0, 64, 53
2, 9133, Control_c, 0, 64, 61
2, 9149, Control_c, 0, 64, 65
2, 9171, Control_c, 0, 64, 68
2, 9186, Control_c, 0, 64, 75
2, 9201, Control_c, 0, 64, 84
2, 9216, Control_c, 0, 64, 99
2, 9232, Control_c, 0, 64, 127
2, 9265, Note_on_c, 0, 61, 0
2, 9271, Note_on_c, 0, 73, 63
2, 9281, Note_on_c, 0, 57, 0
2, 9330, Note_on_c, 0, 78, 0
2, 9565, Note_on_c, 0, 68, 59
2, 9571, Note_on_c, 0, 59, 51
2, 9611, Control_c, 0, 64, 111
2, 9628, Control_c, 0, 64, 90
2, 9643, Control_c, 0, 64, 76
2, 9658, Control_c, 0, 64, 64
2, 9674, Control_c, 0, 64, 39
2, 9689, Control_c, 0, 64, 0
2, 9795, Control_c, 0, 64, 10
2, 9810, Control_c, 0, 64, 41
2, 9824, Control_c, 0, 64, 51
2, 9840, Control_c, 0, 64, 59
2, 9855, Control_c, 0, 64, 64
2, 9863, Note_on_c, 0, 77, 68
2, 9871, Control_c, 0, 64, 71
2, 9886, Control_c, 0, 64, 82
2, 9901, Control_c, 0, 64, 101
2, 9901, Note_on_c, 0, 68, 0
2, 9917, Control_c, 0, 64, 127
2, 10072, Note_on_c, 0, 73, 0
2, 10152, Note_on_c, 0, 57, 50
2, 10155, Note_on_c, 0, 66, 56
2, 10164, Note_on_c, 0, 59, 0
2, 10166, Note_on_c, 0, 78, 73
2, 10198, Control_c, 0, 64, 104
2, 10213, Control_c, 0, 64, 88
2, 10223, Note_on_c, 0, 77, 0
2, 10229, Control_c, 0, 64, 74
2, 10243, Control_c, 0, 64, 62
2, 10258, Control_c, 0, 64, 0
2, 10411, Control_c, 0, 64, 37
2, 10426, Control_c, 0, 64, 50
2, 10442, Control_c, 0, 64, 59
2, 10457, Control_c, 0, 64, 64
2, 10473, Control_c, 0, 64, 68
2, 10473, Note_on_c, 0, 73, 70
2, 10488, Control_c, 0, 64, 74
2, 10503, Control_c, 0, 64, 87
2, 10519, Control_c, 0, 64, 104
2, 10519, Note_on_c, 0, 78, 0
2, 10534, Control_c, 0, 64, 127
2, 10537, Note_on_c, 0, 66, 0
2, 10766, Note_on_c, 0, 57, 0
2, 10773, Note_on_c, 0, 78, 75
2, 10774, Note_on_c, 0, 56, 51
2, 10775, Note_on_c, 0, 65, 56
2, 10800, Control_c, 0, 64, 98
2, 10815, Control_c, 0, 64, 80
2, 10831, Control_c, 0, 64, 65
2, 10845, Control_c, 0, 64, 37
2, 10860, Control_c, 0, 64, 0
2, 11028, Control_c, 0, 64, 36
2, 11042, Control_c, 0, 64, 51
2, 11056, Note_on_c, 0, 73, 0
2, 11057, Control_c, 0, 64, 58
2, 11073, Control_c, 0, 64, 62
2, 11078, Note_on_c, 0, 80, 72
2, 11087, Control_c, 0, 64, 64
2, 11102, Control_c, 0, 64, 67
2, 11118, Control_c, 0, 64, 73
2, 11118, Note_on_c, 0, 65, 0
2, 11133, Control_c, 0, 64, 81
2, 11149, Control_c, 0, 64, 92
2, 11164, Control_c, 0, 64, 99
2, 11172, Note_on_c, 0, 78, 0
2, 11178, Control_c, 0, 64, 108
2, 11194, Control_c, 0, 64, 127
2, 11377, Control_c, 0, 64, 117
2, 11392, Control_c, 0, 64, 105
2, 11405, Note_on_c, 0, 81, 66
2, 11407, Control_c, 0, 64, 99
2, 11422, Control_c, 0, 64, 94
2, 11423, Note_on_c, 0, 66, 47
2, 11424, Note_on_c, 0, 56, 0
2, 11426, Note_on_c, 0, 54, 47
2, 11438, Control_c, 0, 64, 88
2, 11445, Note_on_c, 0, 80, 0
2, 11453, Control_c, 0, 64, 81
2, 11476, Control_c, 0, 64, 75
2, 11491, Control_c, 0, 64, 70
2, 11506, Control_c, 0, 64, 65
2, 11522, Control_c, 0, 64, 59
2, 11536, Control_c, 0, 64, 40
2, 11552, Control_c, 0, 64, 0
2, 11733, Control_c, 0, 64, 40
2, 11743, Note_on_c, 0, 66, 0
2, 11749, Control_c, 0, 64, 51
2, 11756, Note_on_c, 0, 77, 55
2, 11764, Control_c, 0, 64, 59
2, 11779, Control_c, 0, 64, 64
2, 11795, Control_c, 0, 64, 68
2, 11809, Control_c, 0, 64, 73
2, 11824, Control_c, 0, 64, 82
2, 11840, Control_c, 0, 64, 93
2, 11855, Control_c, 0, 64, 104
2, 11871, Control_c, 0, 64, 120
2, 11885, Control_c, 0, 64, 127
2, 12053, Control_c, 0, 64, 122
2, 12053, Note_on_c, 0, 78, 63
2, 12061, Note_on_c, 0, 54, 0
2, 12069, Control_c, 0, 64, 107
2, 12070, Note_on_c, 0, 61, 43
2, 12072, Note_on_c, 0, 52, 46
2, 12084, Control_c, 0, 64, 97
2, 12096, Note_on_c, 0, 77, 0
2, 12099, Control_c, 0, 64, 90
2, 12115, Control_c, 0, 64, 83
2, 12130, Control_c, 0, 64, 77
2, 12141, Note_on_c, 0, 81, 0
2, 12145, Control_c, 0, 64, 70
2, 12160, Control_c, 0, 64, 62
2, 12175, Control_c, 0, 64, 29
2, 12191, Control_c, 0, 64, 0
2, 12365, Control_c, 0, 64, 40
2, 12370, Note_on_c, 0, 81, 60
2, 12380, Control_c, 0, 64, 51
2, 12396, Control_c, 0, 64, 56
2, 12411, Control_c, 0, 64, 60
2, 12414, Note_on_c, 0, 78, 0
2, 12426, Control_c, 0, 64, 62
2, 12442, Control_c, 0, 64, 64
2, 12453, Note_on_c, 0, 61, 0
2, 12457, Control_c, 0, 64, 65
2, 12473, Control_c, 0, 64, 68
2, 12488, Control_c, 0, 64, 72
2, 12502, Control_c, 0, 64, 76
2, 12518, Control_c, 0, 64, 78
2, 12624, Control_c, 0, 64, 77
2, 12640, Control_c, 0, 64, 76
2, 12654, Control_c, 0, 64, 74
2, 12670, Control_c, 0, 64, 72
2, 12685, Control_c, 0, 64, 70
2, 12692, Note_on_c, 0, 54, 45
2, 12700, Control_c, 0, 64, 67
2, 12705, Note_on_c, 0, 50, 38
2, 12708, Note_on_c, 0, 71, 53
2, 12716, Control_c, 0, 64, 65
2, 12730, Control_c, 0, 64, 63
2, 12745, Control_c, 0, 64, 60
2, 12761, Control_c, 0, 64, 55
2, 12773, Note_on_c, 0, 52, 0
2, 12775, Control_c, 0, 64, 45
2, 12791, Control_c, 0, 64, 26
2, 12791, Note_on_c, 0, 81, 0
2, 12806, Control_c, 0, 64, 0
2, 13011, Note_on_c, 0, 81, 61
2, 13314, Note_on_c, 0, 53, 53
2, 13320, Note_on_c, 0, 80, 64
2, 13386, Note_on_c, 0, 81, 0
2, 13403, Note_on_c, 0, 54, 0
2, 13517, Note_on_c, 0, 71, 0
2, 13609, Note_on_c, 0, 81, 66
2, 13713, Note_on_c, 0, 80, 0
2, 13919, Note_on_c, 0, 83, 61
2, 13930, Note_on_c, 0, 54, 46
2, 13971, Note_on_c, 0, 81, 0
2, 13982, Note_on_c, 0, 53, 0
2, 14130, Note_on_c, 0, 81, 56
2, 14181, Note_on_c, 0, 83, 0
2, 14287, Note_on_c, 0, 80, 64
2, 14322, Note_on_c, 0, 81, 0
2, 14463, Note_on_c, 0, 59, 54
2, 14470, Note_on_c, 0, 81, 63
2, 14491, Note_on_c, 0, 80, 0
2, 14600, Note_on_c, 0, 54, 0
2, 14625, Control_c, 0, 64, 37
2, 14641, Control_c, 0, 64, 51
2, 14649, Note_on_c, 0, 80, 66
2, 14655, Control_c, 0, 64, 57
2, 14671, Control_c, 0, 64, 61
2, 14675, Note_on_c, 0, 81, 0
2, 14686, Control_c, 0, 64, 63
2, 14701, Control_c, 0, 64, 66
2, 14717, Control_c, 0, 64, 69
2, 14732, Control_c, 0, 64, 74
2, 14733, Note_on_c, 0, 50, 0
2, 14746, Control_c, 0, 64, 80
2, 14762, Control_c, 0, 64, 87
2, 14777, Control_c, 0, 64, 94
2, 14793, Control_c, 0, 64, 103
2, 14808, Control_c, 0, 64, 117
2, 14814, Note_on_c, 0, 78, 72
2, 14823, Control_c, 0, 64, 127
2, 14860, Note_on_c, 0, 80, 0
2, 14990, Control_c, 0, 64, 111
2, 15005, Control_c, 0, 64, 102
2, 15020, Control_c, 0, 64, 96
2, 15035, Control_c, 0, 64, 90
2, 15047, Note_on_c, 0, 49, 50
2, 15047, Note_on_c, 0, 77, 71
2, 15050, Control_c, 0, 64, 84
2, 15065, Control_c, 0, 64, 78
2, 15075, Note_on_c, 0, 78, 0
2, 15081, Control_c, 0, 64, 72
2, 15096, Control_c, 0, 64, 66
2, 15111, Control_c, 0, 64, 58
2, 15126, Control_c, 0, 64, 21
2, 15141, Control_c, 0, 64, 0
2, 15361, Note_on_c, 0, 72, 64
2, 15438, Note_on_c, 0, 77, 0
2, 15655, Note_on_c, 0, 56, 61
2, 15767, Note_on_c, 0, 59, 0
2, 15920, Note_on_c, 0, 73, 70
2, 16006, Note_on_c, 0, 72, 0
2, 16225, Note_on_c, 0, 57, 52
2, 16229, Note_on_c, 0, 78, 65
2, 16288, Note_on_c, 0, 56, 0
2, 16299, Note_on_c, 0, 73, 0
2, 16520, Note_on_c, 0, 72, 59
2, 16585, Note_on_c, 0, 78, 0
2, 16800, Note_on_c, 0, 54, 51
2, 16908, Note_on_c, 0, 57, 0
2, 17056, Note_on_c, 0, 73, 58
2, 17133, Note_on_c, 0, 72, 0
2, 17353, Note_on_c, 0, 53, 41
2, 17353, Note_on_c, 0, 80, 59
2, 17368, Note_on_c, 0, 54, 0
2, 17385, Note_on_c, 0, 73, 0
2, 17524, Note_on_c, 0, 71, 56
2, 17667, Note_on_c, 0, 80, 0
2, 17684, Note_on_c, 0, 73, 66
2, 17799, Note_on_c, 0, 71, 0
2, 17854, Note_on_c, 0, 74, 67
2, 17860, Note_on_c, 0, 73, 0
2, 18005, Note_on_c, 0, 73, 65
2, 18025, Note_on_c, 0, 74, 0
2, 18149, Note_on_c, 0, 73, 0
2, 18160, Note_on_c, 0, 71, 64
2, 18356, Note_on_c, 0, 69, 60
2, 18389, Note_on_c, 0, 53, 0
2, 18407, Note_on_c, 0, 71, 0
2, 18521, Note_on_c, 0, 53, 48
2, 18676, Note_on_c, 0, 54, 66
2, 18728, Note_on_c, 0, 53, 0
2, 18859, Note_on_c, 0, 56, 66
2, 18889, Note_on_c, 0, 54, 0
2, 19019, Note_on_c, 0, 54, 65
2, 19061, Note_on_c, 0, 56, 0
2, 19193, Note_on_c, 0, 53, 60
2, 19203, Note_on_c, 0, 54, 0
2, 19373, Note_on_c, 0, 54, 61
2, 19383, Note_on_c, 0, 53, 0
2, 19524, Note_on_c, 0, 54, 0
2, 19535, Note_on_c, 0, 56, 52
2, 19542, Note_on_c, 0, 68, 64
2, 19579, Note_on_c, 0, 69, 0
2, 19707, Note_on_c, 0, 57, 56
2, 19709, Note_on_c, 0, 56, 0
2, 19709, Note_on_c, 0, 66, 67
2, 19772, Note_on_c, 0, 68, 0
2, 19885, Note_on_c, 0, 65, 65
2, 19886, Note_on_c, 0, 59, 60
2, 19919, Note_on_c, 0, 57, 0
2, 19927, Note_on_c, 0, 66, 0
2, 20059, Note_on_c, 0, 57, 60
2, 20060, Note_on_c, 0, 66, 70
2, 20089, Note_on_c, 0, 59, 0
2, 20127, Note_on_c, 0, 65, 0
2, 20239, Note_on_c, 0, 68, 69
2, 20240, Note_on_c, 0, 57, 0
2, 20241, Note_on_c, 0, 56, 58
2, 20283, Note_on_c, 0, 66, 0
2, 20421, Note_on_c, 0, 66, 64
2, 20447, Note_on_c, 0, 57, 54
2, 20474, Note_on_c, 0, 56, 0
2, 20476, Note_on_c, 0, 68, 0
2, 20612, Note_on_c, 0, 65, 66
2, 20616, Note_on_c, 0, 49, 0
2, 20650, Note_on_c, 0, 66, 0
2, 20802, Note_on_c, 0, 66, 71
2, 20850, Note_on_c, 0, 65, 0
2, 21117, Note_on_c, 0, 75, 75
2, 21120, Note_on_c, 0, 48, 38
2, 21186, Note_on_c, 0, 66, 0
2, 21405, Control_c, 0, 64, 21
2, 21420, Control_c, 0, 64, 33
2, 21436, Control_c, 0, 64, 40
2, 21458, Control_c, 0, 64, 46
2, 21473, Control_c, 0, 64, 49
2, 21489, Control_c, 0, 64, 53
2, 21504, Control_c, 0, 64, 56
2, 21520, Control_c, 0, 64, 58
2, 21534, Control_c, 0, 64, 60
2, 21549, Control_c, 0, 64, 61
2, 21565, Control_c, 0, 64, 63
2, 21580, Control_c, 0, 64, 64
2, 21594, Control_c, 0, 64, 65
2, 21600, Note_on_c, 0, 66, 61
2, 21610, Control_c, 0, 64, 68
2, 21625, Control_c, 0, 64, 71
2, 21641, Control_c, 0, 64, 75
2, 21654, Note_on_c, 0, 75, 0
2, 21656, Control_c, 0, 64, 80
2, 21670, Control_c, 0, 64, 85
2, 21686, Control_c, 0, 64, 92
2, 21701, Control_c, 0, 64, 101
2, 21716, Control_c, 0, 64, 118
2, 21731, Control_c, 0, 64, 127
2, 21736, Note_on_c, 0, 66, 0
2, 21912, Control_c, 0, 64, 114
2, 21917, Note_on_c, 0, 49, 47
2, 21928, Control_c, 0, 64, 102
2, 21936, Note_on_c, 0, 66, 62
2, 21942, Control_c, 0, 64, 96
2, 21957, Control_c, 0, 64, 91
2, 21964, Note_on_c, 0, 48, 0
2, 21973, Control_c, 0, 64, 86
2, 21988, Control_c, 0, 64, 80
2, 22004, Control_c, 0, 64, 73
2, 22018, Control_c, 0, 64, 66
2, 22033, Control_c, 0, 64, 58
2, 22049, Control_c, 0, 64, 33
2, 22064, Control_c, 0, 64, 0
2, 22070, Note_on_c, 0, 57, 0
2, 22395, Note_on_c, 0, 56, 42
2, 22477, Note_on_c, 0, 56, 0
2, 22498, Note_on_c, 0, 54, 53
2, 22606, Note_on_c, 0, 56, 59
2, 22617, Note_on_c, 0, 54, 0
2, 23025, Note_on_c, 0, 66, 0
2, 23046, Note_on_c, 0, 65, 53
2, 23123, Note_on_c, 0, 65, 0
2, 23141, Note_on_c, 0, 63, 55
2, 23216, Note_on_c, 0, 63, 0
2, 23230, Note_on_c, 0, 65, 49
2, 23419, Note_on_c, 0, 65, 0
2, 23422, Note_on_c, 0, 61, 56
2, 23516, Note_on_c, 0, 49, 0
2, 23599, Note_on_c, 0, 63, 56
2, 23614, Note_on_c, 0, 61, 0
2, 23786, Note_on_c, 0, 49, 43
2, 23792, Note_on_c, 0, 65, 52
2, 23798, Note_on_c, 0, 63, 0
2, 23985, Note_on_c, 0, 66, 62
2, 24114, Note_on_c, 0, 65, 0
2, 24158, Note_on_c, 0, 68, 65
2, 24206, Note_on_c, 0, 66, 0
2, 24351, Note_on_c, 0, 51, 51
2, 24356, Note_on_c, 0, 66, 64
2, 24410, Note_on_c, 0, 68, 0
2, 24412, Note_on_c, 0, 49, 0
2, 24544, Note_on_c, 0, 65, 63
2, 24576, Note_on_c, 0, 66, 0
2, 24718, Note_on_c, 0, 66, 71
2, 24779, Note_on_c, 0, 65, 0
2, 24911, Note_on_c, 0, 68, 71
2, 24933, Note_on_c, 0, 53, 47
2, 24957, Note_on_c, 0, 66, 0
2, 25035, Note_on_c, 0, 51, 0
2, 25085, Note_on_c, 0, 56, 0
2, 25104, Note_on_c, 0, 69, 70
2, 25121, Note_on_c, 0, 68, 0
2, 25302, Note_on_c, 0, 71, 69
2, 25329, Note_on_c, 0, 69, 0
2, 25527, Note_on_c, 0, 69, 50
2, 25545, Note_on_c, 0, 54, 49
2, 25578, Note_on_c, 0, 71, 0
2, 25599, Note_on_c, 0, 53, 0
2, 25715, Note_on_c, 0, 69, 0
2, 25734, Note_on_c, 0, 68, 49
2, 25910, Note_on_c, 0, 66, 52
2, 25925, Note_on_c, 0, 68, 0
2, 26148, Note_on_c, 0, 42, 47
2, 26337, Note_on_c, 0, 54, 0
2, 26535, Note_on_c, 0, 69, 52
2, 26622, Note_on_c, 0, 69, 0
2, 26624, Note_on_c, 0, 73, 63
2, 26685, Note_on_c, 0, 66, 0
2, 26744, Note_on_c, 0, 78, 62
2, 26753, Note_on_c, 0, 73, 0
2, 26766, Note_on_c, 0, 45, 51
2, 26880, Note_on_c, 0, 42, 0
2, 26952, Note_on_c, 0, 73, 64
2, 27009, Note_on_c, 0, 78, 0
2, 27104, Note_on_c, 0, 75, 69
2, 27139, Note_on_c, 0, 73, 0
2, 27289, Note_on_c, 0, 77, 69
2, 27308, Note_on_c, 0, 49, 56
2, 27310, Note_on_c, 0, 75, 0
2, 27433, Note_on_c, 0, 45, 0
2, 27483, Note_on_c, 0, 78, 73
2, 27534, Note_on_c, 0, 77, 0
2, 27668, Note_on_c, 0, 80, 76
2, 27763, Note_on_c, 0, 78, 0
2, 27871, Note_on_c, 0, 54, 53
2, 27886, Note_on_c, 0, 81, 75
2, 27922, Note_on_c, 0, 49, 0
2, 27941, Note_on_c, 0, 80, 0
2, 28059, Note_on_c, 0, 80, 76
2, 28111, Note_on_c, 0, 81, 0
2, 28243, Note_on_c, 0, 78, 72
2, 28283, Note_on_c, 0, 80, 0
2, 28429, Note_on_c, 0, 59, 59
2, 28429, Note_on_c, 0, 80, 71
2, 28461, Note_on_c, 0, 78, 0
2, 28506, Control_c, 0, 64, 31
2, 28522, Control_c, 0, 64, 41
2, 28537, Control_c, 0, 64, 47
2, 28552, Control_c, 0, 64, 52
2, 28568, Control_c, 0, 64, 56
2, 28582, Control_c, 0, 64, 60
2, 28598, Control_c, 0, 64, 62
2, 28613, Control_c, 0, 64, 64
2, 28614, Note_on_c, 0, 78, 66
2, 28628, Control_c, 0, 64, 66
2, 28644, Control_c, 0, 64, 69
2, 28647, Note_on_c, 0, 80, 0
2, 28659, Control_c, 0, 64, 73
2, 28673, Control_c, 0, 64, 77
2, 28689, Control_c, 0, 64, 84
2, 28704, Control_c, 0, 64, 91
2, 28720, Control_c, 0, 64, 100
2, 28735, Control_c, 0, 64, 111
2, 28750, Control_c, 0, 64, 127
2, 28751, Note_on_c, 0, 59, 0
2, 28759, Note_on_c, 0, 78, 0
2, 28764, Note_on_c, 0, 76, 68
2, 28876, Note_on_c, 0, 76, 0
2, 28905, Note_on_c, 0, 75, 59
2, 28942, Note_on_c, 0, 75, 0
2, 28946, Control_c, 0, 64, 122
2, 28962, Control_c, 0, 64, 108
2, 28968, Note_on_c, 0, 76, 66
2, 28977, Control_c, 0, 64, 101
2, 28991, Control_c, 0, 64, 94
2, 29007, Control_c, 0, 64, 86
2, 29007, Note_on_c, 0, 57, 45
2, 29022, Control_c, 0, 64, 78
2, 29025, Note_on_c, 0, 75, 75
2, 29038, Control_c, 0, 64, 71
2, 29053, Control_c, 0, 64, 63
2, 29061, Note_on_c, 0, 76, 0
2, 29068, Control_c, 0, 64, 45
2, 29084, Control_c, 0, 64, 0
2, 29337, Note_on_c, 0, 76, 70
2, 29408, Note_on_c, 0, 75, 0
2, 29619, Note_on_c, 0, 57, 0
2, 29630, Note_on_c, 0, 51, 36
2, 29643, Note_on_c, 0, 78, 74
2, 29729, Note_on_c, 0, 76, 0
2, 29733, Note_on_c, 0, 54, 0
2, 29932, Note_on_c, 0, 57, 55
2, 30233, Note_on_c, 0, 56, 53
2, 30243, Note_on_c, 0, 48, 41
2, 30329, Note_on_c, 0, 51, 0
2, 30350, Note_on_c, 0, 57, 0
2, 30546, Note_on_c, 0, 76, 56
2, 30591, Note_on_c, 0, 78, 0
2, 30830, Note_on_c, 0, 75, 60
2, 30836, Note_on_c, 0, 54, 49
2, 30867, Note_on_c, 0, 76, 0
2, 30912, Note_on_c, 0, 56, 0
2, 31104, Note_on_c, 0, 81, 58
2, 31247, Note_on_c, 0, 75, 0
2, 31406, Note_on_c, 0, 52, 51
2, 31423, Note_on_c, 0, 80, 59
2, 31479, Note_on_c, 0, 54, 0
2, 31487, Note_on_c, 0, 81, 0
2, 31505, Note_on_c, 0, 48, 0
2, 31623, Note_on_c, 0, 78, 66
2, 31652, Note_on_c, 0, 80, 0
2, 31799, Note_on_c, 0, 76, 68
2, 31813, Note_on_c, 0, 78, 0
2, 31971, Note_on_c, 0, 78, 63
2, 31972, Note_on_c, 0, 44, 47
2, 31972, Note_on_c, 0, 51, 47
2, 31977, Note_on_c, 0, 76, 0
2, 32087, Note_on_c, 0, 52, 0
2, 32163, Note_on_c, 0, 76, 64
2, 32212, Note_on_c, 0, 78, 0
2, 32343, Note_on_c, 0, 75, 67
2, 32364, Note_on_c, 0, 76, 0
2, 32535, Note_on_c, 0, 49, 54
2, 32579, Note_on_c, 0, 76, 58
2, 32624, Note_on_c, 0, 44, 0
2, 32630, Note_on_c, 0, 51, 0
2, 32633, Note_on_c, 0, 75, 0
2, 32861, Note_on_c, 0, 75, 60
2, 32893, Note_on_c, 0, 76, 0
2, 33136, Note_on_c, 0, 73, 55
2, 33180, Note_on_c, 0, 75, 0
2, 33383, Note_on_c, 0, 47, 45
2, 33691, Note_on_c, 0, 45, 53
2, 33752, Note_on_c, 0, 47, 0
2, 34003, Note_on_c, 0, 75, 61
2, 34113, Note_on_c, 0, 73, 0
2, 34263, Note_on_c, 0, 44, 54
2, 34272, Note_on_c, 0, 73, 55
2, 34323, Note_on_c, 0, 45, 0
2, 34343, Note_on_c, 0, 75, 0
2, 34576, Note_on_c, 0, 72, 65
2, 34625, Note_on_c, 0, 73, 0
2, 34856, Note_on_c, 0, 42, 54
2, 34868, Note_on_c, 0, 73, 65
2, 34905, Note_on_c, 0, 44, 0
2, 34950, Note_on_c, 0, 72, 0
2, 35021, Note_on_c, 0, 49, 0
2, 35156, Note_on_c, 0, 76, 67
2, 35207, Note_on_c, 0, 73, 0
2, 35451, Note_on_c, 0, 69, 55
2, 35455, Note_on_c, 0, 49, 51
2, 35524, Note_on_c, 0, 76, 0
2, 35723, Note_on_c, 0, 68, 67
2, 35804, Note_on_c, 0, 69, 0
2, 36015, Note_on_c, 0, 54, 63
2, 36015, Note_on_c, 0, 69, 65
2, 36096, Note_on_c, 0, 68, 0
2, 36122, Note_on_c, 0, 49, 0
2, 36302, Note_on_c, 0, 72, 67
2, 36317, Note_on_c, 0, 42, 0
2, 36354, Note_on_c, 0, 69, 0
2, 36594, Note_on_c, 0, 44, 52
2, 36600, Note_on_c, 0, 66, 63
2, 36668, Note_on_c, 0, 72, 0
2, 36894, Note_on_c, 0, 64, 68
2, 36951, Note_on_c, 0, 66, 0
2, 37176, Note_on_c, 0, 45, 55
2, 37187, Note_on_c, 0, 66, 57
2, 37207, Note_on_c, 0, 64, 0
2, 37225, Note_on_c, 0, 44, 0
2, 37517, Note_on_c, 0, 66, 0
2, 37522, Note_on_c, 0, 72, 50
2, 37793, Note_on_c, 0, 73, 66
2, 37797, Note_on_c, 0, 42, 51
2, 37857, Note_on_c, 0, 72, 0
2, 37883, Note_on_c, 0, 45, 0
2, 38065, Note_on_c, 0, 75, 73
2, 38158, Note_on_c, 0, 73, 0
2, 38387, Note_on_c, 0, 76, 61
2, 38394, Note_on_c, 0, 44, 45
2, 38436, Note_on_c, 0, 75, 0
2, 38457, Note_on_c, 0, 42, 0
2, 38609, Note_on_c, 0, 75, 69
2, 38613, Note_on_c, 0, 54, 0
2, 38633, Note_on_c, 0, 76, 0
2, 38781, Note_on_c, 0, 73, 67
2, 38823, Note_on_c, 0, 75, 0
2, 38966, Note_on_c, 0, 75, 67
2, 38974, Note_on_c, 0, 54, 48
2, 39000, Note_on_c, 0, 73, 0
2, 39083, Control_c, 0, 64, 21
2, 39097, Control_c, 0, 64, 37
2, 39122, Control_c, 0, 64, 45
2, 39137, Control_c, 0, 64, 51
2, 39142, Note_on_c, 0, 73, 72
2, 39151, Control_c, 0, 64, 55
2, 39167, Control_c, 0, 64, 58
2, 39182, Control_c, 0, 64, 61
2, 39197, Note_on_c, 0, 75, 0
2, 39198, Control_c, 0, 64, 63
2, 39213, Control_c, 0, 64, 65
2, 39224, Note_on_c, 0, 44, 0
2, 39228, Control_c, 0, 64, 67
2, 39243, Control_c, 0, 64, 70
2, 39258, Control_c, 0, 64, 75
2, 39273, Control_c, 0, 64, 80
2, 39289, Control_c, 0, 64, 86
2, 39304, Control_c, 0, 64, 93
2, 39320, Control_c, 0, 64, 102
2, 39335, Control_c, 0, 64, 115
2, 39335, Note_on_c, 0, 72, 70
2, 39346, Note_on_c, 0, 73, 0
2, 39349, Control_c, 0, 64, 127
2, 39531, Control_c, 0, 64, 114
2, 39546, Control_c, 0, 64, 107
2, 39562, Control_c, 0, 64, 101
2, 39577, Control_c, 0, 64, 96
2, 39591, Control_c, 0, 64, 92
2, 39604, Note_on_c, 0, 73, 78
2, 39605, Note_on_c, 0, 49, 46
2, 39607, Control_c, 0, 64, 88
2, 39622, Control_c, 0, 64, 83
2, 39638, Control_c, 0, 64, 78
2, 39650, Note_on_c, 0, 72, 0
2, 39653, Control_c, 0, 64, 72
2, 39668, Control_c, 0, 64, 67
2, 39683, Control_c, 0, 64, 61
2, 39698, Control_c, 0, 64, 45
2, 39713, Control_c, 0, 64, 0
2, 40249, Note_on_c, 0, 68, 65
2, 40252, Note_on_c, 0, 52, 33
2, 40280, Note_on_c, 0, 54, 0
2, 40324, Note_on_c, 0, 73, 0
2, 40850, Note_on_c, 0, 56, 55
2, 40933, Control_c, 0, 64, 23
2, 40948, Control_c, 0, 64, 35
2, 40963, Control_c, 0, 64, 41
2, 40978, Control_c, 0, 64, 46
2, 40994, Control_c, 0, 64, 50
2, 41001, Note_on_c, 0, 52, 0
2, 41009, Control_c, 0, 64, 54
2, 41023, Control_c, 0, 64, 57
2, 41039, Control_c, 0, 64, 59
2, 41054, Control_c, 0, 64, 62
2, 41070, Control_c, 0, 64, 63
2, 41085, Control_c, 0, 64, 65
2, 41099, Control_c, 0, 64, 66
2, 41115, Control_c, 0, 64, 69
2, 41131, Control_c, 0, 64, 72
2, 41146, Control_c, 0, 64, 75
2, 41162, Control_c, 0, 64, 81
2, 41176, Control_c, 0, 64, 87
2, 41192, Control_c, 0, 64, 96
2, 41207, Control_c, 0, 64, 109
2, 41221, Control_c, 0, 64, 127
2, 41432, Note_on_c, 0, 64, 57
2, 41449, Note_on_c, 0, 49, 0
2, 41452, Note_on_c, 0, 61, 51
2, 41503, Note_on_c, 0, 56, 0
2, 41503, Note_on_c, 0, 68, 0
2, 41705, Note_on_c, 0, 66, 70
2, 41708, Note_on_c, 0, 51, 44
2, 41836, Note_on_c, 0, 64, 0
2, 41944, Control_c, 0, 64, 118
2, 41960, Control_c, 0, 64, 106
2, 41975, Control_c, 0, 64, 99
2, 41991, Control_c, 0, 64, 92
2, 42001, Note_on_c, 0, 52, 46
2, 42002, Note_on_c, 0, 68, 68
2, 42006, Control_c, 0, 64, 85
2, 42020, Control_c, 0, 64, 79
2, 42036, Control_c, 0, 64, 70
2, 42051, Control_c, 0, 64, 59
2, 42056, Note_on_c, 0, 66, 0
2, 42065, Control_c, 0, 64, 0
2, 42074, Note_on_c, 0, 51, 0
2, 42208, Note_on_c, 0, 66, 66
2, 42225, Control_c, 0, 64, 13
2, 42241, Control_c, 0, 64, 45
2, 42251, Note_on_c, 0, 68, 0
2, 42256, Control_c, 0, 64, 55
2, 42271, Control_c, 0, 64, 60
2, 42286, Control_c, 0, 64, 64
2, 42301, Control_c, 0, 64, 67
2, 42302, Note_on_c, 0, 61, 0
2, 42317, Control_c, 0, 64, 71
2, 42332, Control_c, 0, 64, 78
2, 42347, Control_c, 0, 64, 86
2, 42361, Note_on_c, 0, 64, 68
2, 42362, Control_c, 0, 64, 95
2, 42376, Note_on_c, 0, 66, 0
2, 42377, Control_c, 0, 64, 108
2, 42393, Control_c, 0, 64, 127
2, 42524, Note_on_c, 0, 56, 54
2, 42531, Note_on_c, 0, 60, 58
2, 42533, Note_on_c, 0, 66, 70
2, 42545, Control_c, 0, 64, 112
2, 42561, Control_c, 0, 64, 94
2, 42575, Control_c, 0, 64, 79
2, 42583, Note_on_c, 0, 64, 0
2, 42591, Control_c, 0, 64, 66
2, 42606, Control_c, 0, 64, 45
2, 42621, Control_c, 0, 64, 0
2, 42660, Note_on_c, 0, 52, 0
2, 42713, Control_c, 0, 64, 26
2, 42719, Note_on_c, 0, 64, 66
2, 42728, Control_c, 0, 64, 46
2, 42743, Control_c, 0, 64, 56
2, 42758, Control_c, 0, 64, 60
2, 42773, Control_c, 0, 64, 64
2, 42773, Note_on_c, 0, 66, 0
2, 42788, Control_c, 0, 64, 66
2, 42804, Control_c, 0, 64, 71
2, 42819, Control_c, 0, 64, 76
2, 42820, Note_on_c, 0, 60, 0
2, 42835, Control_c, 0, 64, 82
2, 42850, Control_c, 0, 64, 90
2, 42864, Control_c, 0, 64, 97
2, 42880, Control_c, 0, 64, 101
2, 42885, Note_on_c, 0, 63, 69
2, 42895, Control_c, 0, 64, 102
2, 42929, Note_on_c, 0, 64, 0
2, 43009, Control_c, 0, 64, 101
2, 43024, Control_c, 0, 64, 99
2, 43040, Control_c, 0, 64, 96
2, 43055, Control_c, 0, 64, 91
2, 43070, Control_c, 0, 64, 85
2, 43085, Control_c, 0, 64, 79
2, 43100, Control_c, 0, 64, 74
2, 43112, Note_on_c, 0, 61, 57
2, 43113, Note_on_c, 0, 64, 69
2, 43115, Control_c, 0, 64, 70
2, 43119, Note_on_c, 0, 49, 40
2, 43130, Control_c, 0, 64, 66
2, 43145, Control_c, 0, 64, 63
2, 43161, Control_c, 0, 64, 55
2, 43169, Note_on_c, 0, 63, 0
2, 43176, Control_c, 0, 64, 36
2, 43191, Control_c, 0, 64, 0
2, 43238, Note_on_c, 0, 56, 0
2, 43414, Note_on_c, 0, 66, 63
2, 43495, Note_on_c, 0, 64, 0
2, 43690, Note_on_c, 0, 64, 52
2, 43693, Note_on_c, 0, 56, 49
2, 43718, Note_on_c, 0, 66, 0
2, 43816, Note_on_c, 0, 61, 0
2, 43984, Note_on_c, 0, 63, 56
2, 44057, Note_on_c, 0, 64, 0
2, 44255, Note_on_c, 0, 64, 50
2, 44275, Note_on_c, 0, 63, 0
2, 44488, Note_on_c, 0, 56, 0
2, 44527, Note_on_c, 0, 54, 44
2, 44530, Note_on_c, 0, 68, 65
2, 44666, Control_c, 0, 64, 13
2, 44681, Control_c, 0, 64, 34
2, 44685, Note_on_c, 0, 64, 0
2, 44696, Control_c, 0, 64, 43
2, 44712, Control_c, 0, 64, 48
2, 44727, Control_c, 0, 64, 52
2, 44742, Control_c, 0, 64, 55
2, 44758, Control_c, 0, 64, 56
2, 44773, Control_c, 0, 64, 57
2, 44796, Note_on_c, 0, 73, 73
2, 44811, Note_on_c, 0, 52, 55
2, 44818, Control_c, 0, 64, 56
2, 44834, Control_c, 0, 64, 54
2, 44849, Control_c, 0, 64, 51
2, 44863, Note_on_c, 0, 54, 0
2, 44864, Control_c, 0, 64, 47
2, 44864, Note_on_c, 0, 49, 0
2, 44873, Note_on_c, 0, 68, 0
2, 44880, Control_c, 0, 64, 43
2, 44895, Control_c, 0, 64, 39
2, 44911, Control_c, 0, 64, 34
2, 44926, Control_c, 0, 64, 30
2, 44941, Control_c, 0, 64, 26
2, 44957, Control_c, 0, 64, 16
2, 44971, Control_c, 0, 64, 0
2, 45051, Note_on_c, 0, 75, 75
2, 45057, Note_on_c, 0, 47, 62
2, 45122, Note_on_c, 0, 73, 0
2, 45356, Note_on_c, 0, 46, 60
2, 45363, Note_on_c, 0, 76, 71
2, 45384, Note_on_c, 0, 75, 0
2, 45399, Note_on_c, 0, 47, 0
2, 45552, Note_on_c, 0, 79, 76
2, 45617, Note_on_c, 0, 52, 0
2, 45626, Note_on_c, 0, 76, 0
2, 45704, Note_on_c, 0, 78, 79
2, 45763, Note_on_c, 0, 79, 0
2, 45875, Note_on_c, 0, 76, 77
2, 45894, Note_on_c, 0, 52, 57
2, 45896, Note_on_c, 0, 49, 56
2, 45927, Note_on_c, 0, 78, 0
2, 45971, Note_on_c, 0, 46, 0
2, 46046, Note_on_c, 0, 74, 74
2, 46055, Note_on_c, 0, 76, 0
2, 46217, Note_on_c, 0, 73, 77
2, 46272, Note_on_c, 0, 74, 0
2, 46410, Note_on_c, 0, 71, 73
2, 46414, Note_on_c, 0, 42, 53
2, 46460, Note_on_c, 0, 49, 0
2, 46478, Note_on_c, 0, 73, 0
2, 46599, Note_on_c, 0, 70, 70
2, 46649, Note_on_c, 0, 71, 0
2, 46765, Note_on_c, 0, 73, 78
2, 46832, Note_on_c, 0, 70, 0
2, 47006, Note_on_c, 0, 49, 42
2, 47044, Note_on_c, 0, 64, 66
2, 47058, Note_on_c, 0, 52, 0
2, 47140, Note_on_c, 0, 73, 0
2, 47594, Note_on_c, 0, 54, 44
2, 47677, Note_on_c, 0, 49, 0
2, 47740, Note_on_c, 0, 64, 0
2, 47740, Note_on_c, 0, 66, 50
2, 47859, Note_on_c, 0, 64, 48
2, 47861, Note_on_c, 0, 66, 0
2, 47968, Note_on_c, 0, 63, 58
2, 47970, Note_on_c, 0, 64, 0
2, 48105, Note_on_c, 0, 64, 60
2, 48121, Note_on_c, 0, 49, 45
2, 48135, Note_on_c, 0, 63, 0
2, 48192, Note_on_c, 0, 42, 0
2, 48232, Note_on_c, 0, 64, 0
2, 48400, Note_on_c, 0, 64, 61
2, 48672, Note_on_c, 0, 46, 45
2, 48833, Note_on_c, 0, 49, 0
2, 48941, Note_on_c, 0, 70, 59
2, 49082, Note_on_c, 0, 64, 0
2, 49227, Note_on_c, 0, 42, 50
2, 49235, Note_on_c, 0, 71, 68
2, 49280, Note_on_c, 0, 70, 0
2, 49286, Note_on_c, 0, 46, 0
2, 49518, Note_on_c, 0, 73, 70
2, 49561, Note_on_c, 0, 71, 0
2, 49786, Note_on_c, 0, 42, 0
2, 49792, Note_on_c, 0, 47, 42
2, 49804, Note_on_c, 0, 62, 56
2, 49892, Note_on_c, 0, 73, 0
2, 49942, Note_on_c, 0, 54, 0
2, 50085, Note_on_c, 0, 64, 62
2, 50154, Note_on_c, 0, 62, 0
2, 50347, Note_on_c, 0, 54, 53
2, 50352, Note_on_c, 0, 62, 53
2, 50391, Note_on_c, 0, 64, 0
2, 50638, Note_on_c, 0, 61, 68
2, 50696, Note_on_c, 0, 62, 0
2, 50927, Note_on_c, 0, 61, 0
2, 50929, Note_on_c, 0, 62, 60
2, 50935, Note_on_c, 0, 59, 49
2, 50962, Note_on_c, 0, 54, 0
2, 51178, Note_on_c, 0, 66, 66
2, 51186, Note_on_c, 0, 54, 57
2, 51201, Control_c, 0, 64, 16
2, 51217, Control_c, 0, 64, 26
2, 51231, Control_c, 0, 64, 34
2, 51247, Control_c, 0, 64, 39
2, 51262, Control_c, 0, 64, 43
2, 51276, Control_c, 0, 64, 46
2, 51292, Control_c, 0, 64, 49
2, 51307, Control_c, 0, 64, 51
2, 51322, Control_c, 0, 64, 53
2, 51338, Control_c, 0, 64, 55
2, 51352, Control_c, 0, 64, 57
2, 51368, Control_c, 0, 64, 58
2, 51383, Control_c, 0, 64, 60
2, 51407, Control_c, 0, 64, 61
2, 51422, Control_c, 0, 64, 62
2, 51427, Note_on_c, 0, 62, 0
2, 51434, Note_on_c, 0, 71, 75
2, 51437, Control_c, 0, 64, 63
2, 51452, Note_on_c, 0, 59, 0
2, 51453, Control_c, 0, 64, 64
2, 51453, Note_on_c, 0, 50, 58
2, 51467, Control_c, 0, 64, 65
2, 51482, Control_c, 0, 64, 67
2, 51498, Control_c, 0, 64, 68
2, 51511, Note_on_c, 0, 47, 0
2, 51513, Control_c, 0, 64, 70
2, 51519, Note_on_c, 0, 54, 0
2, 51529, Control_c, 0, 64, 72
2, 51544, Control_c, 0, 64, 75
2, 51545, Note_on_c, 0, 66, 0
2, 51558, Control_c, 0, 64, 78
2, 51574, Control_c, 0, 64, 82
2, 51589, Control_c, 0, 64, 87
2, 51605, Control_c, 0, 64, 94
2, 51620, Control_c, 0, 64, 104
2, 51635, Control_c, 0, 64, 127
2, 51687, Note_on_c, 0, 73, 84
2, 51699, Note_on_c, 0, 54, 67
2, 51724, Note_on_c, 0, 71, 0
2, 51757, Note_on_c, 0, 50, 0
2, 51785, Note_on_c, 0, 73, 0
2, 51961, Note_on_c, 0, 47, 63
2, 51975, Note_on_c, 0, 74, 68
2, 51994, Note_on_c, 0, 54, 0
2, 51999, Control_c, 0, 64, 103
2, 52015, Control_c, 0, 64, 86
2, 52030, Control_c, 0, 64, 70
2, 52045, Control_c, 0, 64, 44
2, 52060, Control_c, 0, 64, 0
2, 52139, Note_on_c, 0, 78, 77
2, 52167, Control_c, 0, 64, 41
2, 52189, Control_c, 0, 64, 55
2, 52204, Control_c, 0, 64, 61
2, 52204, Note_on_c, 0, 74, 0
2, 52219, Control_c, 0, 64, 64
2, 52235, Control_c, 0, 64, 67
2, 52237, Note_on_c, 0, 50, 64
2, 52251, Control_c, 0, 64, 73
2, 52266, Control_c, 0, 64, 81
2, 52266, Note_on_c, 0, 47, 0
2, 52281, Control_c, 0, 64, 91
2, 52297, Control_c, 0, 64, 104
2, 52311, Control_c, 0, 64, 127
2, 52316, Note_on_c, 0, 76, 75
2, 52378, Note_on_c, 0, 78, 0
2, 52469, Note_on_c, 0, 44, 72
2, 52500, Note_on_c, 0, 74, 76
2, 52505, Note_on_c, 0, 76, 0
2, 52509, Control_c, 0, 64, 102
2, 52525, Control_c, 0, 64, 77
2, 52540, Control_c, 0, 64, 62
2, 52549, Note_on_c, 0, 50, 0
2, 52554, Control_c, 0, 64, 0
2, 52648, Control_c, 0, 64, 16
2, 52663, Control_c, 0, 64, 48
2, 52679, Control_c, 0, 64, 59
2, 52687, Note_on_c, 0, 73, 73
2, 52694, Control_c, 0, 64, 63
2, 52708, Control_c, 0, 64, 66
2, 52724, Control_c, 0, 64, 71
2, 52735, Note_on_c, 0, 74, 0
2, 52739, Control_c, 0, 64, 78
2, 52754, Control_c, 0, 64, 87
2, 52755, Note_on_c, 0, 47, 62
2, 52769, Control_c, 0, 64, 101
2, 52784, Control_c, 0, 64, 127
2, 52812, Note_on_c, 0, 44, 0
2, 52879, Note_on_c, 0, 71, 82
2, 52959, Note_on_c, 0, 73, 0
2, 53067, Control_c, 0, 64, 104
2, 53082, Control_c, 0, 64, 94
2, 53085, Note_on_c, 0, 40, 68
2, 53097, Control_c, 0, 64, 85
2, 53112, Control_c, 0, 64, 77
2, 53118, Note_on_c, 0, 69, 68
2, 53128, Control_c, 0, 64, 71
2, 53143, Control_c, 0, 64, 65
2, 53149, Note_on_c, 0, 47, 0
2, 53158, Control_c, 0, 64, 59
2, 53168, Note_on_c, 0, 71, 0
2, 53173, Control_c, 0, 64, 43
2, 53188, Control_c, 0, 64, 10
2, 53203, Control_c, 0, 64, 0
2, 53285, Note_on_c, 0, 68, 73
2, 53328, Note_on_c, 0, 69, 0
2, 53460, Note_on_c, 0, 71, 77
2, 53484, Note_on_c, 0, 68, 0
2, 53740, Note_on_c, 0, 62, 68
2, 53763, Note_on_c, 0, 47, 37
2, 53823, Note_on_c, 0, 71, 0
2, 54331, Note_on_c, 0, 52, 43
2, 54390, Note_on_c, 0, 47, 0
2, 54462, Note_on_c, 0, 64, 54
2, 54468, Note_on_c, 0, 62, 0
2, 54603, Note_on_c, 0, 64, 0
2, 54606, Note_on_c, 0, 62, 59
2, 54733, Note_on_c, 0, 61, 59
2, 54744, Note_on_c, 0, 62, 0
2, 54871, Note_on_c, 0, 47, 41
2, 54880, Note_on_c, 0, 62, 55
2, 54914, Note_on_c, 0, 61, 0
2, 54971, Note_on_c, 0, 40, 0
2, 54995, Note_on_c, 0, 62, 0
2, 55148, Note_on_c, 0, 62, 58
2, 55452, Note_on_c, 0, 44, 48
2, 55645, Note_on_c, 0, 47, 0
2, 55720, Note_on_c, 0, 68, 58
2, 55951, Note_on_c, 0, 62, 0
2, 56019, Note_on_c, 0, 40, 44
2, 56031, Note_on_c, 0, 69, 63
2, 56086, Note_on_c, 0, 68, 0
2, 56101, Note_on_c, 0, 44, 0
2, 56300, Note_on_c, 0, 71, 65
2, 56339, Note_on_c, 0, 69, 0
2, 56584, Note_on_c, 0, 61, 56
2, 56592, Note_on_c, 0, 45, 39
2, 56605, Note_on_c, 0, 40, 0
2, 56619, Note_on_c, 0, 71, 0
2, 56706, Note_on_c, 0, 52, 0
2, 56856, Note_on_c, 0, 62, 60
2, 56918, Note_on_c, 0, 61, 0
2, 57144, Note_on_c, 0, 52, 41
2, 57153, Note_on_c, 0, 61, 58
2, 57194, Note_on_c, 0, 62, 0
2, 57444, Note_on_c, 0, 59, 57
2, 57473, Note_on_c, 0, 61, 0
2, 57708, Note_on_c, 0, 57, 52
2, 57711, Note_on_c, 0, 59, 0
2, 57715, Note_on_c, 0, 61, 57
2, 57807, Note_on_c, 0, 52, 0
2, 57827, Note_on_c, 0, 45, 0
2, 57991, Note_on_c, 0, 64, 66
2, 58015, Note_on_c, 0, 61, 0
2, 58260, Note_on_c, 0, 69, 69
2, 58281, Note_on_c, 0, 56, 49
2, 58348, Note_on_c, 0, 64, 0
2, 58370, Note_on_c, 0, 57, 0
2, 58520, Note_on_c, 0, 71, 69
2, 58619, Note_on_c, 0, 69, 0
2, 58844, Note_on_c, 0, 57, 42
2, 58850, Note_on_c, 0, 73, 66
2, 58884, Note_on_c, 0, 56, 0
2, 58908, Note_on_c, 0, 71, 0
2, 59158, Note_on_c, 0, 52, 41
2, 59421, Note_on_c, 0, 49, 50
2, 59582, Note_on_c, 0, 52, 0
2, 59694, Note_on_c, 0, 45, 52
2, 59762, Note_on_c, 0, 49, 0
2, 60012, Note_on_c, 0, 50, 53
2, 60073, Note_on_c, 0, 45, 0
2, 60206, Note_on_c, 0, 57, 0
2, 60268, Note_on_c, 0, 67, 59
2, 60313, Note_on_c, 0, 73, 0
2, 60544, Note_on_c, 0, 66, 63
2, 60557, Note_on_c, 0, 57, 45
2, 60610, Note_on_c, 0, 67, 0
2, 60822, Note_on_c, 0, 64, 66
2, 60875, Note_on_c, 0, 66, 0
2, 61100, Note_on_c, 0, 66, 64
2, 61113, Note_on_c, 0, 62, 50
2, 61140, Note_on_c, 0, 64, 0
2, 61158, Note_on_c, 0, 57, 0
2, 61365, Note_on_c, 0, 69, 63
2, 61376, Note_on_c, 0, 66, 0
2, 61646, Note_on_c, 0, 74, 72
2, 61650, Note_on_c, 0, 57, 43
2, 61659, Note_on_c, 0, 54, 45
2, 61710, Note_on_c, 0, 69, 0
2, 61743, Note_on_c, 0, 62, 0
2, 61821, Note_on_c, 0, 50, 0
2, 61911, Note_on_c, 0, 76, 71
2, 61974, Note_on_c, 0, 74, 0
2, 62221, Note_on_c, 0, 51, 38
2, 62256, Note_on_c, 0, 78, 78
2, 62273, Note_on_c, 0, 57, 0
2, 62294, Note_on_c, 0, 76, 0
2, 62310, Note_on_c, 0, 54, 0
2, 62509, Control_c, 0, 64, 8
2, 62525, Control_c, 0, 64, 23
2, 62540, Control_c, 0, 64, 30
2, 62540, Note_on_c, 0, 57, 38
2, 62555, Control_c, 0, 64, 36
2, 62571, Control_c, 0, 64, 40
2, 62586, Control_c, 0, 64, 43
2, 62602, Control_c, 0, 64, 45
2, 62616, Control_c, 0, 64, 48
2, 62631, Control_c, 0, 64, 51
2, 62647, Control_c, 0, 64, 53
2, 62662, Control_c, 0, 64, 55
2, 62678, Control_c, 0, 64, 57
2, 62692, Control_c, 0, 64, 58
2, 62707, Control_c, 0, 64, 59
2, 62723, Control_c, 0, 64, 61
2, 62738, Control_c, 0, 64, 62
2, 62752, Control_c, 0, 64, 62
2, 62768, Control_c, 0, 64, 63
2, 62783, Control_c, 0, 64, 64
2, 62799, Control_c, 0, 64, 65
2, 62810, Note_on_c, 0, 47, 49
2, 62814, Control_c, 0, 64, 66
2, 62828, Control_c, 0, 64, 68
2, 62844, Control_c, 0, 64, 70
2, 62853, Note_on_c, 0, 51, 0
2, 62859, Control_c, 0, 64, 72
2, 62875, Control_c, 0, 64, 74
2, 62891, Control_c, 0, 64, 77
2, 62906, Control_c, 0, 64, 80
2, 62928, Control_c, 0, 64, 84
2, 62943, Control_c, 0, 64, 90
2, 62959, Control_c, 0, 64, 97
2, 62974, Control_c, 0, 64, 107
2, 62989, Control_c, 0, 64, 127
2, 63057, Note_on_c, 0, 47, 0
2, 63085, Note_on_c, 0, 51, 53
2, 63168, Note_on_c, 0, 51, 0
2, 63184, Note_on_c, 0, 57, 0
2, 63385, Note_on_c, 0, 52, 48
2, 63389, Note_on_c, 0, 56, 53
2, 63398, Control_c, 0, 64, 111
2, 63413, Control_c, 0, 64, 99
2, 63428, Control_c, 0, 64, 89
2, 63444, Control_c, 0, 64, 80
2, 63459, Control_c, 0, 64, 70
2, 63473, Control_c, 0, 64, 61
2, 63489, Control_c, 0, 64, 38
2, 63504, Control_c, 0, 64, 0
2, 63677, Note_on_c, 0, 69, 54
2, 63743, Note_on_c, 0, 78, 0
2, 63949, Note_on_c, 0, 59, 52
2, 63954, Note_on_c, 0, 68, 60
2, 64010, Note_on_c, 0, 69, 0
2, 64029, Note_on_c, 0, 56, 0
2, 64214, Note_on_c, 0, 66, 63
2, 64264, Note_on_c, 0, 68, 0
2, 64509, Note_on_c, 0, 68, 64
2, 64510, Note_on_c, 0, 64, 55
2, 64544, Note_on_c, 0, 59, 0
2, 64546, Note_on_c, 0, 66, 0
2, 64776, Note_on_c, 0, 71, 72
2, 64810, Note_on_c, 0, 68, 0
2, 65053, Note_on_c, 0, 76, 71
2, 65056, Note_on_c, 0, 59, 46
2, 65139, Note_on_c, 0, 64, 0
2, 65173, Note_on_c, 0, 71, 0
2, 65331, Note_on_c, 0, 80, 76
2, 65394, Note_on_c, 0, 76, 0
2, 65628, Note_on_c, 0, 83, 71
2, 65648, Note_on_c, 0, 56, 42
2, 65660, Note_on_c, 0, 80, 0
2, 65677, Note_on_c, 0, 52, 0
2, 65779, Control_c, 0, 64, 13
2, 65793, Control_c, 0, 64, 27
2, 65809, Control_c, 0, 64, 34
2, 65824, Control_c, 0, 64, 39
2, 65840, Control_c, 0, 64, 43
2, 65855, Control_c, 0, 64, 46
2, 65869, Control_c, 0, 64, 49
2, 65885, Control_c, 0, 64, 52
2, 65900, Control_c, 0, 64, 54
2, 65915, Control_c, 0, 64, 56
2, 65931, Control_c, 0, 64, 58
2, 65934, Note_on_c, 0, 74, 56
2, 65946, Control_c, 0, 64, 59
2, 65962, Control_c, 0, 64, 60
2, 65976, Control_c, 0, 64, 62
2, 65999, Control_c, 0, 64, 63
2, 66005, Note_on_c, 0, 83, 0
2, 66014, Control_c, 0, 64, 64
2, 66029, Control_c, 0, 64, 65
2, 66045, Control_c, 0, 64, 66
2, 66060, Control_c, 0, 64, 68
2, 66074, Control_c, 0, 64, 71
2, 66090, Control_c, 0, 64, 73
2, 66105, Control_c, 0, 64, 77
2, 66121, Control_c, 0, 64, 80
2, 66135, Control_c, 0, 64, 85
2, 66150, Control_c, 0, 64, 90
2, 66168, Control_c, 0, 64, 97
2, 66182, Control_c, 0, 64, 110
2, 66198, Control_c, 0, 64, 127
2, 66209, Note_on_c, 0, 52, 43
2, 66209, Note_on_c, 0, 73, 72
2, 66231, Note_on_c, 0, 56, 0
2, 66241, Note_on_c, 0, 74, 0
2, 66355, Note_on_c, 0, 59, 0
2, 66399, Note_on_c, 0, 52, 0
2, 66499, Note_on_c, 0, 71, 72
2, 66542, Note_on_c, 0, 73, 0
2, 66744, Control_c, 0, 64, 105
2, 66767, Control_c, 0, 64, 93
2, 66775, Note_on_c, 0, 57, 50
2, 66776, Note_on_c, 0, 45, 47
2, 66782, Control_c, 0, 64, 82
2, 66792, Note_on_c, 0, 73, 74
2, 66798, Control_c, 0, 64, 72
2, 66813, Control_c, 0, 64, 62
2, 66828, Control_c, 0, 64, 0
2, 66851, Note_on_c, 0, 71, 0
2, 66995, Control_c, 0, 64, 35
2, 67011, Control_c, 0, 64, 52
2, 67026, Control_c, 0, 64, 59
2, 67042, Control_c, 0, 64, 63
2, 67057, Control_c, 0, 64, 68
2, 67071, Control_c, 0, 64, 73
2, 67086, Note_on_c, 0, 78, 64
2, 67087, Control_c, 0, 64, 82
2, 67100, Note_on_c, 0, 57, 0
2, 67102, Control_c, 0, 64, 93
2, 67118, Control_c, 0, 64, 108
2, 67133, Control_c, 0, 64, 127
2, 67176, Note_on_c, 0, 73, 0
2, 67330, Control_c, 0, 64, 115
2, 67345, Control_c, 0, 64, 98
2, 67347, Note_on_c, 0, 47, 42
2, 67348, Note_on_c, 0, 56, 51
2, 67359, Note_on_c, 0, 76, 64
2, 67360, Control_c, 0, 64, 86
2, 67375, Control_c, 0, 64, 74
2, 67390, Control_c, 0, 64, 66
2, 67405, Control_c, 0, 64, 54
2, 67409, Note_on_c, 0, 45, 0
2, 67420, Control_c, 0, 64, 0
2, 67432, Note_on_c, 0, 78, 0
2, 67610, Control_c, 0, 64, 15
2, 67623, Note_on_c, 0, 75, 61
2, 67625, Control_c, 0, 64, 40
2, 67641, Control_c, 0, 64, 50
2, 67656, Control_c, 0, 64, 56
2, 67665, Note_on_c, 0, 76, 0
2, 67671, Control_c, 0, 64, 60
2, 67686, Control_c, 0, 64, 63
2, 67701, Control_c, 0, 64, 65
2, 67716, Control_c, 0, 64, 68
2, 67732, Control_c, 0, 64, 71
2, 67747, Control_c, 0, 64, 76
2, 67762, Control_c, 0, 64, 80
2, 67777, Control_c, 0, 64, 85
2, 67793, Control_c, 0, 64, 91
2, 67809, Control_c, 0, 64, 94
2, 67919, Note_on_c, 0, 49, 46
2, 67930, Control_c, 0, 64, 92
2, 67937, Note_on_c, 0, 47, 0
2, 67945, Control_c, 0, 64, 89
2, 67961, Control_c, 0, 64, 83
2, 67961, Note_on_c, 0, 76, 64
2, 67976, Control_c, 0, 64, 76
2, 67991, Control_c, 0, 64, 69
2, 68002, Note_on_c, 0, 75, 0
2, 68007, Control_c, 0, 64, 58
2, 68022, Control_c, 0, 64, 0
2, 68042, Note_on_c, 0, 56, 0
2, 68205, Control_c, 0, 64, 12
2, 68220, Control_c, 0, 64, 46
2, 68221, Note_on_c, 0, 73, 63
2, 68222, Note_on_c, 0, 57, 41
2, 68235, Control_c, 0, 64, 56
2, 68250, Control_c, 0, 64, 60
2, 68265, Control_c, 0, 64, 63
2, 68281, Control_c, 0, 64, 66
2, 68284, Note_on_c, 0, 76, 0
2, 68296, Control_c, 0, 64, 70
2, 68319, Control_c, 0, 64, 76
2, 68334, Control_c, 0, 64, 85
2, 68349, Control_c, 0, 64, 95
2, 68365, Control_c, 0, 64, 109
2, 68379, Control_c, 0, 64, 127
2, 68488, Note_on_c, 0, 71, 67
2, 68492, Note_on_c, 0, 50, 47
2, 68497, Note_on_c, 0, 49, 0
2, 68501, Control_c, 0, 64, 104
2, 68516, Control_c, 0, 64, 86
2, 68518, Note_on_c, 0, 57, 0
2, 68525, Note_on_c, 0, 73, 0
2, 68532, Control_c, 0, 64, 71
2, 68546, Control_c, 0, 64, 54
2, 68562, Control_c, 0, 64, 0
2, 68730, Control_c, 0, 64, 35
2, 68743, Note_on_c, 0, 69, 51
2, 68744, Note_on_c, 0, 71, 0
2, 68745, Control_c, 0, 64, 50
2, 68760, Control_c, 0, 64, 57
2, 68775, Control_c, 0, 64, 61
2, 68778, Note_on_c, 0, 59, 38
2, 68790, Control_c, 0, 64, 64
2, 68806, Control_c, 0, 64, 67
2, 68821, Control_c, 0, 64, 71
2, 68835, Control_c, 0, 64, 78
2, 68851, Control_c, 0, 64, 89
2, 68866, Control_c, 0, 64, 101
2, 68882, Control_c, 0, 64, 127
2, 69049, Control_c, 0, 64, 111
2, 69057, Note_on_c, 0, 73, 65
2, 69060, Note_on_c, 0, 52, 42
2, 69064, Control_c, 0, 64, 94
2, 69064, Note_on_c, 0, 59, 0
2, 69087, Control_c, 0, 64, 82
2, 69095, Note_on_c, 0, 69, 0
2, 69101, Control_c, 0, 64, 71
2, 69116, Control_c, 0, 64, 62
2, 69132, Control_c, 0, 64, 21
2, 69138, Note_on_c, 0, 50, 0
2, 69147, Control_c, 0, 64, 0
2, 69300, Control_c, 0, 64, 38
2, 69314, Control_c, 0, 64, 51
2, 69330, Control_c, 0, 64, 57
2, 69344, Note_on_c, 0, 57, 37
2, 69345, Control_c, 0, 64, 61
2, 69359, Note_on_c, 0, 64, 50
2, 69361, Control_c, 0, 64, 64
2, 69376, Control_c, 0, 64, 67
2, 69390, Control_c, 0, 64, 71
2, 69406, Control_c, 0, 64, 76
2, 69416, Note_on_c, 0, 52, 0
2, 69421, Control_c, 0, 64, 81
2, 69435, Note_on_c, 0, 73, 0
2, 69438, Control_c, 0, 64, 86
2, 69453, Control_c, 0, 64, 89
2, 69559, Control_c, 0, 64, 89
2, 69574, Control_c, 0, 64, 87
2, 69589, Control_c, 0, 64, 85
2, 69604, Control_c, 0, 64, 82
2, 69617, Note_on_c, 0, 52, 35
2, 69619, Control_c, 0, 64, 79
2, 69622, Note_on_c, 0, 71, 66
2, 69634, Control_c, 0, 64, 74
2, 69650, Control_c, 0, 64, 69
2, 69665, Control_c, 0, 64, 64
2, 69680, Control_c, 0, 64, 58
2, 69694, Note_on_c, 0, 64, 0
2, 69695, Control_c, 0, 64, 31
2, 69710, Control_c, 0, 64, 0
2, 69713, Note_on_c, 0, 57, 0
2, 69870, Control_c, 0, 64, 15
2, 69886, Control_c, 0, 64, 41
2, 69899, Note_on_c, 0, 56, 47
2, 69900, Control_c, 0, 64, 52
2, 69908, Note_on_c, 0, 62, 47
2, 69915, Control_c, 0, 64, 58
2, 69931, Control_c, 0, 64, 62
2, 69945, Control_c, 0, 64, 64
2, 69961, Control_c, 0, 64, 67
2, 69976, Control_c, 0, 64, 71
2, 69991, Control_c, 0, 64, 76
2, 70007, Control_c, 0, 64, 81
2, 70013, Note_on_c, 0, 71, 0
2, 70021, Control_c, 0, 64, 87
2, 70036, Control_c, 0, 64, 91
2, 70052, Control_c, 0, 64, 91
2, 70174, Control_c, 0, 64, 90
2, 70189, Control_c, 0, 64, 88
2, 70205, Control_c, 0, 64, 85
2, 70220, Control_c, 0, 64, 82
2, 70221, Note_on_c, 0, 52, 0
2, 70232, Note_on_c, 0, 57, 46
2, 70235, Control_c, 0, 64, 78
2, 70248, Note_on_c, 0, 61, 60
2, 70251, Control_c, 0, 64, 75
2, 70266, Control_c, 0, 64, 72
2, 70282, Control_c, 0, 64, 69
2, 70297, Control_c, 0, 64, 66
2, 70311, Note_on_c, 0, 62, 0
2, 70312, Control_c, 0, 64, 64
2, 70327, Control_c, 0, 64, 61
2, 70338, Note_on_c, 0, 56, 0
2, 70342, Control_c, 0, 64, 58
2, 70358, Control_c, 0, 64, 54
2, 70373, Control_c, 0, 64, 49
2, 70388, Control_c, 0, 64, 43
2, 70404, Control_c, 0, 64, 33
2, 70419, Control_c, 0, 64, 15
2, 70434, Control_c, 0, 64, 0
2, 70510, Note_on_c, 0, 64, 59
2, 70806, Note_on_c, 0, 69, 53
2, 70821, Note_on_c, 0, 64, 0
2, 71059, Note_on_c, 0, 52, 43
2, 71199, Control_c, 0, 64, 18
2, 71215, Control_c, 0, 64, 31
2, 71230, Control_c, 0, 64, 39
2, 71246, Control_c, 0, 64, 45
2, 71260, Control_c, 0, 64, 50
2, 71275, Control_c, 0, 64, 54
2, 71291, Control_c, 0, 64, 57
2, 71306, Control_c, 0, 64, 60
2, 71318, Note_on_c, 0, 61, 0
2, 71321, Control_c, 0, 64, 62
2, 71337, Control_c, 0, 64, 64
2, 71341, Note_on_c, 0, 49, 48
2, 71352, Control_c, 0, 64, 66
2, 71374, Control_c, 0, 64, 69
2, 71389, Control_c, 0, 64, 74
2, 71405, Control_c, 0, 64, 80
2, 71411, Note_on_c, 0, 52, 0
2, 71420, Control_c, 0, 64, 87
2, 71434, Control_c, 0, 64, 96
2, 71450, Control_c, 0, 64, 112
2, 71465, Control_c, 0, 64, 127
2, 71496, Note_on_c, 0, 57, 0
2, 71615, Note_on_c, 0, 64, 63
2, 71618, Note_on_c, 0, 45, 46
2, 71652, Note_on_c, 0, 69, 0
2, 71663, Note_on_c, 0, 49, 0
2, 71829, Control_c, 0, 64, 118
2, 71845, Control_c, 0, 64, 111
2, 71860, Control_c, 0, 64, 105
2, 71875, Control_c, 0, 64, 100
2, 71885, Note_on_c, 0, 49, 58
2, 71892, Control_c, 0, 64, 96
2, 71893, Note_on_c, 0, 69, 72
2, 71907, Control_c, 0, 64, 93
2, 71922, Control_c, 0, 64, 89
2, 71937, Control_c, 0, 64, 86
2, 71952, Control_c, 0, 64, 83
2, 71954, Note_on_c, 0, 45, 0
2, 71968, Control_c, 0, 64, 81
2, 71968, Note_on_c, 0, 64, 0
2, 71983, Control_c, 0, 64, 79
2, 71998, Control_c, 0, 64, 77
2, 72013, Control_c, 0, 64, 75
2, 72028, Control_c, 0, 64, 73
2, 72043, Control_c, 0, 64, 71
2, 72059, Control_c, 0, 64, 69
2, 72073, Control_c, 0, 64, 68
2, 72089, Control_c, 0, 64, 67
2, 72104, Control_c, 0, 64, 65
2, 72119, Control_c, 0, 64, 65
2, 72135, Control_c, 0, 64, 64
2, 72154, Note_on_c, 0, 71, 72
2, 72157, Control_c, 0, 64, 62
2, 72158, Note_on_c, 0, 52, 58
2, 72173, Control_c, 0, 64, 61
2, 72188, Control_c, 0, 64, 60
2, 72202, Control_c, 0, 64, 59
2, 72218, Control_c, 0, 64, 57
2, 72222, Note_on_c, 0, 49, 0
2, 72233, Control_c, 0, 64, 56
2, 72242, Note_on_c, 0, 69, 0
2, 72249, Control_c, 0, 64, 54
2, 72264, Control_c, 0, 64, 52
2, 72278, Control_c, 0, 64, 51
2, 72294, Control_c, 0, 64, 48
2, 72309, Control_c, 0, 64, 46
2, 72325, Control_c, 0, 64, 44
2, 72340, Control_c, 0, 64, 42
2, 72355, Control_c, 0, 64, 39
2, 72370, Control_c, 0, 64, 37
2, 72385, Control_c, 0, 64, 34
2, 72400, Control_c, 0, 64, 30
2, 72416, Control_c, 0, 64, 26
2, 72431, Control_c, 0, 64, 21
2, 72447, Control_c, 0, 64, 10
2, 72456, Note_on_c, 0, 57, 64
2, 72462, Control_c, 0, 64, 0
2, 72479, Note_on_c, 0, 73, 71
2, 72551, Note_on_c, 0, 71, 0
2, 72566, Note_on_c, 0, 52, 0
2, 72754, Note_on_c, 0, 69, 66
2, 72839, Note_on_c, 0, 73, 0
2, 73039, Note_on_c, 0, 60, 44
2, 73039, Note_on_c, 0, 66, 62
2, 73107, Control_c, 0, 64, 33
2, 73122, Control_c, 0, 64, 44
2, 73126, Note_on_c, 0, 69, 0
2, 73138, Control_c, 0, 64, 50
2, 73153, Control_c, 0, 64, 55
2, 73168, Control_c, 0, 64, 59
2, 73183, Control_c, 0, 64, 62
2, 73198, Control_c, 0, 64, 64
2, 73214, Control_c, 0, 64, 66
2, 73229, Control_c, 0, 64, 70
2, 73243, Control_c, 0, 64, 74
2, 73251, Note_on_c, 0, 57, 0
2, 73259, Control_c, 0, 64, 79
2, 73274, Control_c, 0, 64, 86
2, 73290, Control_c, 0, 64, 96
2, 73305, Control_c, 0, 64, 108
2, 73315, Note_on_c, 0, 75, 71
2, 73319, Control_c, 0, 64, 127
2, 73336, Note_on_c, 0, 60, 0
2, 73624, Control_c, 0, 64, 114
2, 73639, Control_c, 0, 64, 104
2, 73649, Note_on_c, 0, 76, 64
2, 73655, Control_c, 0, 64, 97
2, 73656, Note_on_c, 0, 55, 48
2, 73657, Note_on_c, 0, 59, 42
2, 73677, Control_c, 0, 64, 91
2, 73693, Control_c, 0, 64, 85
2, 73708, Control_c, 0, 64, 80
2, 73708, Note_on_c, 0, 75, 0
2, 73723, Control_c, 0, 64, 74
2, 73739, Control_c, 0, 64, 70
2, 73753, Control_c, 0, 64, 65
2, 73769, Control_c, 0, 64, 60
2, 73784, Control_c, 0, 64, 50
2, 73799, Control_c, 0, 64, 38
2, 73813, Note_on_c, 0, 66, 0
2, 73815, Control_c, 0, 64, 18
2, 73829, Control_c, 0, 64, 0
2, 73979, Note_on_c, 0, 71, 62
2, 74089, Note_on_c, 0, 76, 0
2, 74267, Note_on_c, 0, 57, 51
2, 74269, Note_on_c, 0, 54, 49
2, 74339, Note_on_c, 0, 55, 0
2, 74393, Note_on_c, 0, 59, 0
2, 74531, Note_on_c, 0, 75, 67
2, 74800, Note_on_c, 0, 71, 0
2, 74811, Note_on_c, 0, 76, 72
2, 74819, Note_on_c, 0, 52, 46
2, 74825, Note_on_c, 0, 55, 54
2, 74840, Note_on_c, 0, 54, 0
2, 74867, Note_on_c, 0, 75, 0
2, 74938, Note_on_c, 0, 57, 0
2, 75069, Control_c, 0, 64, 15
2, 75085, Control_c, 0, 64, 46
2, 75099, Control_c, 0, 64, 55
2, 75102, Note_on_c, 0, 71, 71
2, 75114, Control_c, 0, 64, 60
2, 75130, Control_c, 0, 64, 64
2, 75144, Control_c, 0, 64, 67
2, 75149, Note_on_c, 0, 55, 0
2, 75160, Control_c, 0, 64, 73
2, 75176, Control_c, 0, 64, 83
2, 75191, Control_c, 0, 64, 102
2, 75192, Note_on_c, 0, 76, 0
2, 75214, Control_c, 0, 64, 127
2, 75391, Note_on_c, 0, 59, 65
2, 75396, Note_on_c, 0, 55, 58
2, 75441, Control_c, 0, 64, 88
2, 75457, Control_c, 0, 64, 69
2, 75472, Control_c, 0, 64, 47
2, 75488, Control_c, 0, 64, 0
2, 75543, Note_on_c, 0, 52, 0
2, 75593, Control_c, 0, 64, 31
2, 75609, Control_c, 0, 64, 49
2, 75624, Control_c, 0, 64, 58
2, 75639, Control_c, 0, 64, 62
2, 75654, Control_c, 0, 64, 64
2, 75663, Note_on_c, 0, 75, 74
2, 75669, Control_c, 0, 64, 68
2, 75685, Control_c, 0, 64, 72
2, 75700, Control_c, 0, 64, 78
2, 75715, Control_c, 0, 64, 85
2, 75728, Note_on_c, 0, 59, 0
2, 75730, Control_c, 0, 64, 94
2, 75745, Control_c, 0, 64, 107
2, 75760, Control_c, 0, 64, 127
2, 75866, Note_on_c, 0, 71, 0
2, 75958, Control_c, 0, 64, 106
2, 75969, Note_on_c, 0, 61, 65
2, 75969, Note_on_c, 0, 76, 71
2, 75982, Control_c, 0, 64, 97
2, 75985, Note_on_c, 0, 49, 54
2, 75997, Control_c, 0, 64, 91
2, 76012, Control_c, 0, 64, 85
2, 76027, Control_c, 0, 64, 78
2, 76042, Control_c, 0, 64, 71
2, 76046, Note_on_c, 0, 75, 0
2, 76058, Control_c, 0, 64, 64
2, 76072, Note_on_c, 0, 55, 0
2, 76073, Control_c, 0, 64, 56
2, 76089, Control_c, 0, 64, 38
2, 76103, Control_c, 0, 64, 0
2, 76253, Note_on_c, 0, 71, 67
2, 76336, Note_on_c, 0, 76, 0
2, 76518, Note_on_c, 0, 54, 55
2, 76538, Note_on_c, 0, 49, 0
2, 76540, Note_on_c, 0, 70, 58
2, 76567, Note_on_c, 0, 71, 0
2, 76605, Control_c, 0, 64, 33
2, 76620, Control_c, 0, 64, 46
2, 76635, Control_c, 0, 64, 53
2, 76651, Control_c, 0, 64, 57
2, 76666, Control_c, 0, 64, 60
2, 76681, Control_c, 0, 64, 63
2, 76696, Control_c, 0, 64, 65
2, 76711, Control_c, 0, 64, 68
2, 76727, Control_c, 0, 64, 72
2, 76742, Control_c, 0, 64, 77
2, 76765, Control_c, 0, 64, 82
2, 76779, Control_c, 0, 64, 89
2, 76794, Control_c, 0, 64, 99
2, 76801, Note_on_c, 0, 61, 0
2, 76811, Control_c, 0, 64, 109
2, 76816, Note_on_c, 0, 76, 57
2, 76826, Control_c, 0, 64, 127
2, 76861, Note_on_c, 0, 70, 0
2, 76938, Note_on_c, 0, 76, 0
2, 76978, Control_c, 0, 64, 122
2, 76993, Control_c, 0, 64, 107
2, 77005, Note_on_c, 0, 74, 28
2, 77009, Control_c, 0, 64, 99
2, 77023, Control_c, 0, 64, 92
2, 77029, Note_on_c, 0, 74, 0
2, 77038, Control_c, 0, 64, 85
2, 77054, Control_c, 0, 64, 78
2, 77054, Note_on_c, 0, 76, 62
2, 77069, Control_c, 0, 64, 71
2, 77085, Control_c, 0, 64, 65
2, 77086, Note_on_c, 0, 59, 53
2, 77100, Control_c, 0, 64, 57
2, 77101, Note_on_c, 0, 76, 0
2, 77103, Note_on_c, 0, 74, 63
2, 77115, Control_c, 0, 64, 37
2, 77130, Control_c, 0, 64, 0
2, 77168, Note_on_c, 0, 54, 0
2, 77342, Note_on_c, 0, 73, 67
2, 77397, Note_on_c, 0, 74, 0
2, 77612, Note_on_c, 0, 71, 58
2, 77640, Note_on_c, 0, 73, 0
2, 77869, Note_on_c, 0, 54, 46
2, 78065, Control_c, 0, 64, 22
2, 78080, Control_c, 0, 64, 35
2, 78096, Control_c, 0, 64, 42
2, 78110, Control_c, 0, 64, 47
2, 78126, Control_c, 0, 64, 51
2, 78141, Control_c, 0, 64, 55
2, 78156, Control_c, 0, 64, 58
2, 78160, Note_on_c, 0, 50, 43
2, 78172, Control_c, 0, 64, 60
2, 78186, Control_c, 0, 64, 62
2, 78199, Note_on_c, 0, 59, 0
2, 78201, Control_c, 0, 64, 64
2, 78217, Control_c, 0, 64, 66
2, 78231, Control_c, 0, 64, 69
2, 78236, Note_on_c, 0, 54, 0
2, 78247, Control_c, 0, 64, 72
2, 78262, Control_c, 0, 64, 75
2, 78286, Control_c, 0, 64, 78
2, 78301, Control_c, 0, 64, 80
2, 78315, Control_c, 0, 64, 81
2, 78331, Control_c, 0, 64, 81
2, 78390, Note_on_c, 0, 47, 48
2, 78424, Note_on_c, 0, 50, 0
2, 78424, Note_on_c, 0, 66, 64
2, 78463, Note_on_c, 0, 71, 0
2, 78530, Control_c, 0, 64, 81
2, 78544, Control_c, 0, 64, 80
2, 78575, Control_c, 0, 64, 80
2, 78590, Control_c, 0, 64, 79
2, 78606, Control_c, 0, 64, 79
2, 78620, Control_c, 0, 64, 78
2, 78635, Control_c, 0, 64, 78
2, 78651, Control_c, 0, 64, 77
2, 78666, Control_c, 0, 64, 77
2, 78668, Note_on_c, 0, 50, 57
2, 78681, Control_c, 0, 64, 76
2, 78686, Note_on_c, 0, 71, 73
2, 78696, Control_c, 0, 64, 76
2, 78711, Control_c, 0, 64, 75
2, 78714, Note_on_c, 0, 47, 0
2, 78742, Control_c, 0, 64, 74
2, 78757, Control_c, 0, 64, 74
2, 78772, Control_c, 0, 64, 73
2, 78787, Control_c, 0, 64, 72
2, 78802, Control_c, 0, 64, 71
2, 78818, Control_c, 0, 64, 70
2, 78821, Note_on_c, 0, 66, 0
2, 78833, Control_c, 0, 64, 69
2, 78849, Control_c, 0, 64, 69
2, 78864, Control_c, 0, 64, 68
2, 78879, Control_c, 0, 64, 67
2, 78895, Control_c, 0, 64, 66
2, 78909, Control_c, 0, 64, 65
2, 78925, Control_c, 0, 64, 64
2, 78940, Control_c, 0, 64, 64
2, 78944, Note_on_c, 0, 54, 64
2, 78954, Control_c, 0, 64, 63
2, 78955, Note_on_c, 0, 73, 74
2, 78970, Control_c, 0, 64, 62
2, 78985, Control_c, 0, 64, 61
2, 79000, Control_c, 0, 64, 60
2, 79016, Control_c, 0, 64, 59
2, 79019, Note_on_c, 0, 50, 0
2, 79030, Control_c, 0, 64, 58
2, 79041, Note_on_c, 0, 71, 0
2, 79046, Control_c, 0, 64, 55
2, 79069, Control_c, 0, 64, 52
2, 79083, Control_c, 0, 64, 48
2, 79099, Control_c, 0, 64, 43
2, 79114, Control_c, 0, 64, 35
2, 79130, Control_c, 0, 64, 28
2, 79145, Control_c, 0, 64, 20
2, 79159, Control_c, 0, 64, 0
2, 79231, Note_on_c, 0, 59, 64
2, 79231, Note_on_c, 0, 74, 74
2, 79291, Note_on_c, 0, 73, 0
2, 79315, Note_on_c, 0, 54, 0
2, 79501, Note_on_c, 0, 71, 77
2, 79545, Note_on_c, 0, 74, 0
2, 79772, Note_on_c, 0, 62, 48
2, 79777, Note_on_c, 0, 68, 70
2, 79814, Control_c, 0, 64, 21
2, 79836, Control_c, 0, 64, 44
2, 79852, Control_c, 0, 64, 54
2, 79867, Control_c, 0, 64, 58
2, 79882, Control_c, 0, 64, 62
2, 79897, Control_c, 0, 64, 64
2, 79912, Control_c, 0, 64, 67
2, 79920, Note_on_c, 0, 59, 0
2, 79928, Control_c, 0, 64, 71
2, 79943, Control_c, 0, 64, 76
2, 79958, Control_c, 0, 64, 84
2, 79974, Control_c, 0, 64, 94
2, 79987, Note_on_c, 0, 62, 0
2, 79989, Control_c, 0, 64, 107
2, 80003, Control_c, 0, 64, 127
2, 80062, Note_on_c, 0, 77, 78
2, 80159, Note_on_c, 0, 71, 0
2, 80182, Note_on_c, 0, 68, 0
2, 80323, Control_c, 0, 64, 114
2, 80339, Control_c, 0, 64, 105
2, 80354, Control_c, 0, 64, 99
2, 80359, Note_on_c, 0, 61, 48
2, 80370, Control_c, 0, 64, 92
2, 80372, Note_on_c, 0, 57, 53
2, 80384, Control_c, 0, 64, 88
2, 80395, Note_on_c, 0, 78, 75
2, 80399, Control_c, 0, 64, 84
2, 80415, Control_c, 0, 64, 81
2, 80429, Note_on_c, 0, 77, 0
2, 80430, Control_c, 0, 64, 77
2, 80445, Control_c, 0, 64, 73
2, 80460, Control_c, 0, 64, 70
2, 80475, Control_c, 0, 64, 66
2, 80491, Control_c, 0, 64, 62
2, 80506, Control_c, 0, 64, 57
2, 80521, Control_c, 0, 64, 50
2, 80536, Control_c, 0, 64, 43
2, 80551, Control_c, 0, 64, 32
2, 80567, Control_c, 0, 64, 0
2, 80713, Note_on_c, 0, 73, 65
2, 80816, Note_on_c, 0, 78, 0
2, 80960, Note_on_c, 0, 56, 46
2, 80962, Note_on_c, 0, 59, 54
2, 81027, Note_on_c, 0, 57, 0
2, 81035, Note_on_c, 0, 61, 0
2, 81246, Note_on_c, 0, 77, 64
2, 81383, Note_on_c, 0, 73, 0
2, 81551, Note_on_c, 0, 54, 55
2, 81551, Note_on_c, 0, 78, 67
2, 81559, Note_on_c, 0, 57, 45
2, 81583, Note_on_c, 0, 56, 0
2, 81603, Note_on_c, 0, 77, 0
2, 81706, Note_on_c, 0, 59, 0
2, 81830, Control_c, 0, 64, 30
2, 81833, Note_on_c, 0, 73, 71
2, 81846, Control_c, 0, 64, 45
2, 81861, Control_c, 0, 64, 54
2, 81875, Control_c, 0, 64, 59
2, 81880, Note_on_c, 0, 57, 0
2, 81891, Control_c, 0, 64, 62
2, 81906, Control_c, 0, 64, 65
2, 81910, Note_on_c, 0, 78, 0
2, 81921, Control_c, 0, 64, 68
2, 81937, Control_c, 0, 64, 72
2, 81952, Control_c, 0, 64, 76
2, 81968, Control_c, 0, 64, 81
2, 81982, Control_c, 0, 64, 83
2, 81997, Control_c, 0, 64, 85
2, 82110, Note_on_c, 0, 61, 66
2, 82113, Note_on_c, 0, 57, 62
2, 82127, Control_c, 0, 64, 84
2, 82141, Control_c, 0, 64, 83
2, 82156, Control_c, 0, 64, 78
2, 82172, Control_c, 0, 64, 68
2, 82187, Control_c, 0, 64, 58
2, 82202, Control_c, 0, 64, 0
2, 82255, Note_on_c, 0, 54, 0
2, 82309, Control_c, 0, 64, 34
2, 82325, Control_c, 0, 64, 47
2, 82339, Control_c, 0, 64, 54
2, 82354, Control_c, 0, 64, 59
2, 82370, Control_c, 0, 64, 63
2, 82380, Note_on_c, 0, 77, 75
2, 82385, Control_c, 0, 64, 66
2, 82400, Control_c, 0, 64, 69
2, 82415, Control_c, 0, 64, 74
2, 82430, Control_c, 0, 64, 81
2, 82442, Note_on_c, 0, 61, 0
2, 82446, Control_c, 0, 64, 89
2, 82460, Control_c, 0, 64, 101
2, 82462, Note_on_c, 0, 73, 0
2, 82475, Control_c, 0, 64, 127
2, 82673, Control_c, 0, 64, 122
2, 82688, Control_c, 0, 64, 104
2, 82691, Note_on_c, 0, 78, 75
2, 82692, Note_on_c, 0, 51, 48
2, 82693, Note_on_c, 0, 63, 56
2, 82703, Control_c, 0, 64, 94
2, 82718, Control_c, 0, 64, 89
2, 82734, Control_c, 0, 64, 83
2, 82749, Control_c, 0, 64, 77
2, 82750, Note_on_c, 0, 77, 0
2, 82763, Control_c, 0, 64, 71
2, 82779, Control_c, 0, 64, 67
2, 82787, Note_on_c, 0, 57, 0
2, 82794, Control_c, 0, 64, 63
2, 82810, Control_c, 0, 64, 55
2, 82825, Control_c, 0, 64, 46
2, 82839, Control_c, 0, 64, 37
2, 82855, Control_c, 0, 64, 20
2, 82870, Control_c, 0, 64, 0
2, 82968, Note_on_c, 0, 73, 65
2, 83040, Note_on_c, 0, 78, 0
2, 83251, Note_on_c, 0, 56, 51
2, 83253, Note_on_c, 0, 72, 56
2, 83254, Note_on_c, 0, 51, 0
2, 83296, Note_on_c, 0, 73, 0
2, 83440, Control_c, 0, 64, 35
2, 83456, Control_c, 0, 64, 46
2, 83471, Control_c, 0, 64, 52
2, 83487, Control_c, 0, 64, 57
2, 83502, Control_c, 0, 64, 60
2, 83505, Note_on_c, 0, 78, 65
2, 83513, Note_on_c, 0, 72, 0
2, 83517, Control_c, 0, 64, 63
2, 83520, Note_on_c, 0, 63, 0
2, 83532, Control_c, 0, 64, 65
2, 83547, Control_c, 0, 64, 68
2, 83562, Control_c, 0, 64, 72
2, 83578, Control_c, 0, 64, 77
2, 83593, Control_c, 0, 64, 81
2, 83608, Control_c, 0, 64, 86
2, 83623, Control_c, 0, 64, 92
2, 83638, Control_c, 0, 64, 96
2, 83654, Control_c, 0, 64, 98
2, 83672, Note_on_c, 0, 78, 0
2, 83699, Note_on_c, 0, 76, 56
2, 83736, Note_on_c, 0, 76, 0
2, 83752, Note_on_c, 0, 78, 51
2, 83768, Control_c, 0, 64, 97
2, 83783, Control_c, 0, 64, 95
2, 83798, Control_c, 0, 64, 92
2, 83814, Control_c, 0, 64, 87
2, 83814, Note_on_c, 0, 76, 66
2, 83817, Note_on_c, 0, 78, 0
2, 83826, Note_on_c, 0, 61, 55
2, 83828, Control_c, 0, 64, 79
2, 83843, Control_c, 0, 64, 72
2, 83859, Control_c, 0, 64, 64
2, 83874, Control_c, 0, 64, 50
2, 83889, Control_c, 0, 64, 0
2, 83912, Note_on_c, 0, 56, 0
2, 84090, Note_on_c, 0, 75, 55
2, 84141, Note_on_c, 0, 76, 0
2, 84349, Note_on_c, 0, 73, 63
2, 84392, Note_on_c, 0, 75, 0
2, 84609, Note_on_c, 0, 56, 45
2, 84809, Control_c, 0, 64, 19
2, 84824, Control_c, 0, 64, 30
2, 84839, Control_c, 0, 64, 38
2, 84855, Control_c, 0, 64, 43
2, 84869, Control_c, 0, 64, 48
2, 84885, Control_c, 0, 64, 51
2, 84900, Control_c, 0, 64, 53
2, 84900, Note_on_c, 0, 52, 40
2, 84915, Control_c, 0, 64, 56
2, 84931, Control_c, 0, 64, 58
2, 84940, Note_on_c, 0, 56, 0
2, 84945, Control_c, 0, 64, 59
2, 84960, Control_c, 0, 64, 61
2, 84976, Control_c, 0, 64, 62
2, 84992, Control_c, 0, 64, 64
2, 85008, Control_c, 0, 64, 65
2, 85022, Control_c, 0, 64, 67
2, 85037, Control_c, 0, 64, 69
2, 85053, Control_c, 0, 64, 72
2, 85068, Control_c, 0, 64, 76
2, 85083, Control_c, 0, 64, 80
2, 85098, Control_c, 0, 64, 84
2, 85113, Control_c, 0, 64, 90
2, 85129, Control_c, 0, 64, 96
2, 85144, Control_c, 0, 64, 101
2, 85159, Control_c, 0, 64, 104
2, 85166, Note_on_c, 0, 49, 47
2, 85166, Note_on_c, 0, 68, 59
2, 85172, Note_on_c, 0, 52, 0
2, 85175, Control_c, 0, 64, 105
2, 85197, Control_c, 0, 64, 106
2, 85213, Control_c, 0, 64, 107
2, 85226, Note_on_c, 0, 73, 0
2, 85379, Control_c, 0, 64, 106
2, 85394, Control_c, 0, 64, 104
2, 85410, Control_c, 0, 64, 102
2, 85425, Control_c, 0, 64, 101
2, 85440, Control_c, 0, 64, 99
2, 85443, Note_on_c, 0, 73, 75
2, 85454, Note_on_c, 0, 52, 48
2, 85456, Control_c, 0, 64, 96
2, 85471, Control_c, 0, 64, 94
2, 85487, Control_c, 0, 64, 92
2, 85501, Control_c, 0, 64, 90
2, 85516, Control_c, 0, 64, 88
2, 85525, Note_on_c, 0, 68, 0
2, 85532, Control_c, 0, 64, 86
2, 85547, Control_c, 0, 64, 85
2, 85562, Control_c, 0, 64, 83
2, 85578, Control_c, 0, 64, 82
2, 85590, Note_on_c, 0, 61, 0
2, 85592, Control_c, 0, 64, 81
2, 85608, Control_c, 0, 64, 79
2, 85623, Control_c, 0, 64, 78
2, 85637, Control_c, 0, 64, 77
2, 85649, Note_on_c, 0, 49, 0
2, 85653, Control_c, 0, 64, 75
2, 85668, Control_c, 0, 64, 74
2, 85683, Control_c, 0, 64, 73
2, 85699, Control_c, 0, 64, 72
2, 85700, Note_on_c, 0, 75, 72
2, 85701, Note_on_c, 0, 56, 62
2, 85713, Control_c, 0, 64, 70
2, 85729, Control_c, 0, 64, 69
2, 85744, Control_c, 0, 64, 68
2, 85759, Control_c, 0, 64, 66
2, 85773, Note_on_c, 0, 52, 0
2, 85775, Control_c, 0, 64, 65
2, 85789, Control_c, 0, 64, 63
2, 85789, Note_on_c, 0, 73, 0
2, 85806, Control_c, 0, 64, 61
2, 85821, Control_c, 0, 64, 58
2, 85836, Control_c, 0, 64, 55
2, 85852, Control_c, 0, 64, 50
2, 85866, Control_c, 0, 64, 44
2, 85881, Control_c, 0, 64, 40
2, 85897, Control_c, 0, 64, 37
2, 85912, Control_c, 0, 64, 31
2, 85928, Control_c, 0, 64, 21
2, 85942, Control_c, 0, 64, 0
2, 86002, Note_on_c, 0, 61, 61
2, 86007, Note_on_c, 0, 76, 71
2, 86066, Note_on_c, 0, 75, 0
2, 86098, Note_on_c, 0, 56, 0
2, 86283, Note_on_c, 0, 73, 70
2, 86347, Note_on_c, 0, 76, 0
2, 86566, Note_on_c, 0, 70, 60
2, 86581, Note_on_c, 0, 52, 42
2, 86647, Note_on_c, 0, 73, 0
2, 86779, Control_c, 0, 64, 10
2, 86794, Control_c, 0, 64, 36
2, 86810, Control_c, 0, 64, 46
2, 86825, Control_c, 0, 64, 54
2, 86840, Control_c, 0, 64, 58
2, 86856, Control_c, 0, 64, 61
2, 86856, Note_on_c, 0, 79, 71
2, 86870, Control_c, 0, 64, 63
2, 86886, Control_c, 0, 64, 65
2, 86901, Control_c, 0, 64, 67
2, 86915, Control_c, 0, 64, 70
2, 86931, Control_c, 0, 64, 73
2, 86946, Control_c, 0, 64, 75
2, 86961, Control_c, 0, 64, 76
2, 87067, Control_c, 0, 64, 76
2, 87082, Control_c, 0, 64, 75
2, 87098, Control_c, 0, 64, 73
2, 87112, Control_c, 0, 64, 72
2, 87128, Control_c, 0, 64, 69
2, 87143, Control_c, 0, 64, 67
2, 87158, Control_c, 0, 64, 65
2, 87174, Control_c, 0, 64, 63
2, 87177, Note_on_c, 0, 50, 46
2, 87184, Note_on_c, 0, 78, 70
2, 87189, Control_c, 0, 64, 62
2, 87205, Control_c, 0, 64, 59
2, 87220, Control_c, 0, 64, 56
2, 87235, Control_c, 0, 64, 49
2, 87249, Note_on_c, 0, 79, 0
2, 87250, Control_c, 0, 64, 37
2, 87252, Note_on_c, 0, 52, 0
2, 87265, Control_c, 0, 64, 0
2, 87318, Note_on_c, 0, 70, 0
2, 87486, Note_on_c, 0, 74, 58
2, 87744, Note_on_c, 0, 78, 0
2, 87766, Note_on_c, 0, 54, 51
2, 87782, Note_on_c, 0, 71, 58
2, 87809, Note_on_c, 0, 74, 0
2, 88018, Control_c, 0, 64, 29
2, 88033, Control_c, 0, 64, 43
2, 88049, Control_c, 0, 64, 50
2, 88059, Note_on_c, 0, 70, 66
2, 88063, Control_c, 0, 64, 55
2, 88078, Control_c, 0, 64, 58
2, 88094, Control_c, 0, 64, 61
2, 88109, Control_c, 0, 64, 63
2, 88111, Note_on_c, 0, 61, 0
2, 88125, Control_c, 0, 64, 65
2, 88134, Note_on_c, 0, 71, 0
2, 88140, Control_c, 0, 64, 67
2, 88150, Note_on_c, 0, 50, 0
2, 88155, Control_c, 0, 64, 69
2, 88170, Control_c, 0, 64, 72
2, 88185, Control_c, 0, 64, 73
2, 88200, Control_c, 0, 64, 74
2, 88332, Note_on_c, 0, 71, 64
2, 88346, Control_c, 0, 64, 74
2, 88357, Note_on_c, 0, 50, 50
2, 88362, Note_on_c, 0, 70, 0
2, 88376, Control_c, 0, 64, 73
2, 88391, Control_c, 0, 64, 73
2, 88402, Note_on_c, 0, 54, 0
2, 88406, Control_c, 0, 64, 72
2, 88421, Control_c, 0, 64, 71
2, 88436, Control_c, 0, 64, 71
2, 88452, Control_c, 0, 64, 70
2, 88467, Control_c, 0, 64, 69
2, 88482, Control_c, 0, 64, 69
2, 88498, Control_c, 0, 64, 68
2, 88513, Control_c, 0, 64, 68
2, 88529, Control_c, 0, 64, 67
2, 88543, Control_c, 0, 64, 66
2, 88558, Control_c, 0, 64, 65
2, 88574, Control_c, 0, 64, 64
2, 88589, Control_c, 0, 64, 63
2, 88603, Control_c, 0, 64, 62
2, 88606, Note_on_c, 0, 66, 62
2, 88618, Note_on_c, 0, 47, 52
2, 88619, Control_c, 0, 64, 62
2, 88634, Control_c, 0, 64, 60
2, 88650, Control_c, 0, 64, 59
2, 88654, Note_on_c, 0, 50, 0
2, 88655, Note_on_c, 0, 71, 0
2, 88665, Control_c, 0, 64, 58
2, 88679, Control_c, 0, 64, 57
2, 88695, Control_c, 0, 64, 56
2, 88710, Control_c, 0, 64, 55
2, 88725, Control_c, 0, 64, 54
2, 88740, Control_c, 0, 64, 53
2, 88755, Control_c, 0, 64, 52
2, 88771, Control_c, 0, 64, 50
2, 88786, Control_c, 0, 64, 49
2, 88800, Control_c, 0, 64, 48
2, 88816, Control_c, 0, 64, 46
2, 88831, Control_c, 0, 64, 45
2, 88847, Control_c, 0, 64, 44
2, 88862, Control_c, 0, 64, 42
2, 88877, Control_c, 0, 64, 41
2, 88879, Note_on_c, 0, 71, 74
2, 88885, Note_on_c, 0, 50, 68
2, 88892, Control_c, 0, 64, 38
2, 88907, Control_c, 0, 64, 35
2, 88922, Control_c, 0, 64, 32
2, 88934, Note_on_c, 0, 47, 0
2, 88938, Control_c, 0, 64, 28
2, 88953, Control_c, 0, 64, 24
2, 88968, Note_on_c, 0, 66, 0
2, 88969, Control_c, 0, 64, 21
2, 88984, Control_c, 0, 64, 15
2, 88999, Control_c, 0, 64, 0
2, 89161, Note_on_c, 0, 54, 68
2, 89167, Note_on_c, 0, 74, 74
2, 89237, Note_on_c, 0, 71, 0
2, 89240, Note_on_c, 0, 50, 0
2, 89452, Note_on_c, 0, 78, 75
2, 89461, Note_on_c, 0, 59, 65
2, 89537, Note_on_c, 0, 74, 0
2, 89552, Note_on_c, 0, 54, 0
2, 89737, Note_on_c, 0, 74, 74
2, 89743, Note_on_c, 0, 76, 11
2, 89787, Note_on_c, 0, 76, 0
2, 89831, Note_on_c, 0, 78, 0
2, 90027, Note_on_c, 0, 54, 63
2, 90028, Note_on_c, 0, 51, 51
2, 90040, Note_on_c, 0, 72, 71
2, 90075, Note_on_c, 0, 74, 0
2, 90119, Note_on_c, 0, 59, 0
2, 90170, Control_c, 0, 64, 25
2, 90185, Control_c, 0, 64, 44
2, 90200, Control_c, 0, 64, 56
2, 90216, Control_c, 0, 64, 61
2, 90231, Control_c, 0, 64, 64
2, 90247, Control_c, 0, 64, 68
2, 90262, Control_c, 0, 64, 75
2, 90277, Control_c, 0, 64, 86
2, 90292, Control_c, 0, 64, 103
2, 90302, Note_on_c, 0, 81, 76
2, 90307, Control_c, 0, 64, 127
2, 90588, Control_c, 0, 64, 110
2, 90603, Control_c, 0, 64, 98
2, 90619, Control_c, 0, 64, 91
2, 90632, Note_on_c, 0, 61, 57
2, 90633, Control_c, 0, 64, 84
2, 90643, Note_on_c, 0, 52, 60
2, 90643, Note_on_c, 0, 80, 74
2, 90649, Control_c, 0, 64, 80
2, 90664, Control_c, 0, 64, 75
2, 90679, Control_c, 0, 64, 69
2, 90695, Control_c, 0, 64, 64
2, 90702, Note_on_c, 0, 81, 0
2, 90709, Control_c, 0, 64, 56
2, 90711, Note_on_c, 0, 54, 0
2, 90714, Note_on_c, 0, 72, 0
2, 90726, Control_c, 0, 64, 44
2, 90741, Control_c, 0, 64, 21
2, 90756, Control_c, 0, 64, 0
2, 90776, Note_on_c, 0, 51, 0
2, 90930, Note_on_c, 0, 76, 68
2, 90994, Note_on_c, 0, 80, 0
2, 91221, Note_on_c, 0, 56, 58
2, 91227, Note_on_c, 0, 73, 69
2, 91270, Note_on_c, 0, 61, 0
2, 91294, Note_on_c, 0, 76, 0
2, 91486, Note_on_c, 0, 72, 63
2, 91546, Note_on_c, 0, 52, 0
2, 91565, Note_on_c, 0, 73, 0
2, 91797, Note_on_c, 0, 52, 49
2, 91812, Note_on_c, 0, 73, 66
2, 91827, Control_c, 0, 64, 26
2, 91842, Control_c, 0, 64, 38
2, 91858, Control_c, 0, 64, 43
2, 91866, Note_on_c, 0, 72, 0
2, 91873, Control_c, 0, 64, 46
2, 91889, Control_c, 0, 64, 48
2, 91893, Note_on_c, 0, 56, 0
2, 91903, Control_c, 0, 64, 49
2, 92040, Control_c, 0, 64, 48
2, 92055, Control_c, 0, 64, 47
2, 92070, Control_c, 0, 64, 45
2, 92073, Note_on_c, 0, 68, 65
2, 92086, Control_c, 0, 64, 43
2, 92094, Note_on_c, 0, 49, 53
2, 92101, Control_c, 0, 64, 40
2, 92123, Control_c, 0, 64, 38
2, 92134, Note_on_c, 0, 73, 0
2, 92139, Control_c, 0, 64, 36
2, 92154, Control_c, 0, 64, 32
2, 92161, Note_on_c, 0, 52, 0
2, 92170, Control_c, 0, 64, 27
2, 92185, Control_c, 0, 64, 18
2, 92199, Control_c, 0, 64, 0
2, 92358, Note_on_c, 0, 73, 76
2, 92368, Note_on_c, 0, 52, 66
2, 92440, Note_on_c, 0, 49, 0
2, 92460, Note_on_c, 0, 68, 0
2, 92619, Note_on_c, 0, 56, 69
2, 92628, Note_on_c, 0, 76, 76
2, 92687, Note_on_c, 0, 52, 0
2, 92703, Note_on_c, 0, 73, 0
2, 92946, Note_on_c, 0, 61, 67
2, 92946, Note_on_c, 0, 80, 78
2, 93029, Note_on_c, 0, 56, 0
2, 93037, Note_on_c, 0, 76, 0
2, 93219, Note_on_c, 0, 76, 73
2, 93296, Note_on_c, 0, 80, 0
2, 93539, Note_on_c, 0, 53, 44
2, 93540, Note_on_c, 0, 56, 54
2, 93545, Note_on_c, 0, 74, 72
2, 93588, Note_on_c, 0, 76, 0
2, 93689, Note_on_c, 0, 61, 0
2, 93888, Note_on_c, 0, 83, 78
2, 94270, Note_on_c, 0, 54, 48
2, 94298, Note_on_c, 0, 81, 69
2, 94323, Note_on_c, 0, 53, 0
2, 94363, Note_on_c, 0, 83, 0
2, 94380, Note_on_c, 0, 74, 0
2, 94414, Note_on_c, 0, 56, 0
2, 94658, Note_on_c, 0, 78, 61
2, 94732, Note_on_c, 0, 81, 0
2, 94942, Note_on_c, 0, 56, 50
2, 95224, Note_on_c, 0, 77, 64
2, 95291, Note_on_c, 0, 78, 0
2, 95531, Note_on_c, 0, 78, 62
2, 95533, Note_on_c, 0, 57, 46
2, 95584, Note_on_c, 0, 77, 0
2, 95587, Note_on_c, 0, 56, 0
2, 95835, Note_on_c, 0, 74, 58
2, 95895, Note_on_c, 0, 78, 0
2, 96129, Note_on_c, 0, 56, 48
2, 96138, Note_on_c, 0, 52, 39
2, 96190, Note_on_c, 0, 54, 0
2, 96209, Note_on_c, 0, 57, 0
2, 96439, Note_on_c, 0, 73, 60
2, 96497, Control_c, 0, 64, 15
2, 96511, Control_c, 0, 64, 30
2, 96527, Control_c, 0, 64, 39
2, 96542, Control_c, 0, 64, 47
2, 96556, Control_c, 0, 64, 53
2, 96572, Control_c, 0, 64, 57
2, 96587, Control_c, 0, 64, 60
2, 96602, Control_c, 0, 64, 63
2, 96618, Control_c, 0, 64, 68
2, 96624, Note_on_c, 0, 73, 0
2, 96633, Control_c, 0, 64, 75
2, 96649, Control_c, 0, 64, 82
2, 96663, Note_on_c, 0, 74, 0
2, 96664, Control_c, 0, 64, 84
2, 96679, Control_c, 0, 64, 85
2, 96776, Note_on_c, 0, 73, 58
2, 96789, Note_on_c, 0, 51, 38
2, 96795, Note_on_c, 0, 54, 48
2, 96808, Control_c, 0, 64, 83
2, 96823, Control_c, 0, 64, 81
2, 96838, Control_c, 0, 64, 78
2, 96854, Control_c, 0, 64, 74
2, 96859, Note_on_c, 0, 52, 0
2, 96868, Control_c, 0, 64, 69
2, 96883, Control_c, 0, 64, 65
2, 96888, Note_on_c, 0, 56, 0
2, 96899, Control_c, 0, 64, 59
2, 96914, Control_c, 0, 64, 47
2, 96930, Control_c, 0, 64, 25
2, 96945, Control_c, 0, 64, 0
2, 97135, Note_on_c, 0, 72, 54
2, 97210, Note_on_c, 0, 73, 0
2, 97459, Note_on_c, 0, 56, 45
2, 97467, Note_on_c, 0, 50, 44
2, 97506, Note_on_c, 0, 54, 0
2, 97562, Note_on_c, 0, 51, 0
2, 97636, Control_c, 0, 64, 27
2, 97652, Control_c, 0, 64, 40
2, 97667, Control_c, 0, 64, 47
2, 97682, Control_c, 0, 64, 52
2, 97697, Control_c, 0, 64, 55
2, 97712, Control_c, 0, 64, 59
2, 97728, Control_c, 0, 64, 63
2, 97743, Control_c, 0, 64, 66
2, 97758, Control_c, 0, 64, 69
2, 97774, Control_c, 0, 64, 74
2, 97789, Control_c, 0, 64, 80
2, 97804, Control_c, 0, 64, 89
2, 97808, Note_on_c, 0, 78, 66
2, 97819, Control_c, 0, 64, 105
2, 97834, Control_c, 0, 64, 127
2, 97951, Note_on_c, 0, 56, 0
2, 98006, Note_on_c, 0, 78, 0
2, 98314, Control_c, 0, 64, 109
2, 98320, Note_on_c, 0, 73, 62
2, 98320, Note_on_c, 0, 78, 67
2, 98329, Control_c, 0, 64, 98
2, 98336, Note_on_c, 0, 57, 42
2, 98338, Note_on_c, 0, 49, 43
2, 98344, Control_c, 0, 64, 89
2, 98359, Control_c, 0, 64, 83
2, 98375, Control_c, 0, 64, 77
2, 98389, Control_c, 0, 64, 72
2, 98404, Control_c, 0, 64, 67
2, 98420, Control_c, 0, 64, 63
2, 98428, Note_on_c, 0, 50, 0
2, 98435, Control_c, 0, 64, 58
2, 98451, Control_c, 0, 64, 49
2, 98453, Note_on_c, 0, 72, 0
2, 98465, Control_c, 0, 64, 42
2, 98480, Control_c, 0, 64, 35
2, 98496, Control_c, 0, 64, 21
2, 98511, Control_c, 0, 64, 0
2, 99309, Note_on_c, 0, 77, 56
2, 99311, Note_on_c, 0, 56, 37
2, 99396, Note_on_c, 0, 57, 0
2, 99424, Note_on_c, 0, 78, 0
2, 99690, Control_c, 0, 64, 21
2, 99705, Control_c, 0, 64, 32
2, 99719, Control_c, 0, 64, 39
2, 99736, Control_c, 0, 64, 44
2, 99751, Control_c, 0, 64, 48
2, 99767, Control_c, 0, 64, 51
2, 99782, Control_c, 0, 64, 54
2, 99804, Control_c, 0, 64, 56
2, 99819, Control_c, 0, 64, 58
2, 99834, Control_c, 0, 64, 60
2, 99850, Control_c, 0, 64, 62
2, 99865, Control_c, 0, 64, 64
2, 99880, Control_c, 0, 64, 67
2, 99896, Control_c, 0, 64, 71
2, 99910, Control_c, 0, 64, 76
2, 99926, Control_c, 0, 64, 82
2, 99941, Control_c, 0, 64, 88
2, 99956, Control_c, 0, 64, 95
2, 99972, Control_c, 0, 64, 105
2, 99987, Control_c, 0, 64, 127
2, 99999, Note_on_c, 0, 56, 0
2, 100156, Note_on_c, 0, 73, 0
2, 100180, Note_on_c, 0, 49, 0
2, 100290, Control_c, 0, 64, 113
2, 100293, Note_on_c, 0, 77, 0
2, 100305, Control_c, 0, 64, 105
2, 100320, Control_c, 0, 64, 99
2, 100336, Control_c, 0, 64, 94
2, 100351, Control_c, 0, 64, 89
2, 100367, Control_c, 0, 64, 86
2, 100382, Control_c, 0, 64, 83
2, 100396, Control_c, 0, 64, 79
2, 100412, Control_c, 0, 64, 76
2, 100427, Control_c, 0, 64, 74
2, 100442, Control_c, 0, 64, 72
2, 100458, Control_c, 0, 64, 69
2, 100473, Control_c, 0, 64, 66
2, 100488, Control_c, 0, 64, 64
2, 100503, Control_c, 0, 64, 61
2, 100518, Control_c, 0, 64, 57
2, 100534, Control_c, 0, 64, 53
2, 100549, Control_c, 0, 64, 49
2, 100573, Control_c, 0, 64, 42
2, 100587, Control_c, 0, 64, 34
2, 100602, Control_c, 0, 64, 21
2, 100618, Control_c, 0, 64, 0
2, 101036, Note_on_c, 0, 47, 35
2, 101253, Note_on_c, 0, 49, 49
2, 101323, Note_on_c, 0, 47, 0
2, 101455, Note_on_c, 0, 50, 50
2, 101458, Note_on_c, 0, 49, 0
2, 101641, Note_on_c, 0, 49, 49
2, 101684, Note_on_c, 0, 50, 0
2, 101844, Note_on_c, 0, 47, 45
2, 101873, Note_on_c, 0, 49, 0
2, 102061, Note_on_c, 0, 45, 46
2, 102070, Note_on_c, 0, 47, 0
2, 102277, Note_on_c, 0, 47, 43
2, 102280, Note_on_c, 0, 45, 0
2, 102491, Note_on_c, 0, 45, 41
2, 102520, Note_on_c, 0, 47, 0
2, 102702, Note_on_c, 0, 44, 50
2, 102735, Note_on_c, 0, 45, 0
2, 103036, Note_on_c, 0, 78, 66
2, 103038, Note_on_c, 0, 42, 43
2, 103039, Note_on_c, 0, 44, 0
2, 103180, Control_c, 0, 64, 30
2, 103194, Control_c, 0, 64, 45
2, 103210, Control_c, 0, 64, 54
2, 103225, Control_c, 0, 64, 60
2, 103240, Control_c, 0, 64, 63
2, 103256, Control_c, 0, 64, 67
2, 103270, Control_c, 0, 64, 77
2, 103276, Note_on_c, 0, 42, 0
2, 103286, Control_c, 0, 64, 100
2, 103301, Control_c, 0, 64, 127
2, 103680, Note_on_c, 0, 57, 46
2, 103691, Note_on_c, 0, 54, 43
2, 103692, Note_on_c, 0, 73, 69
2, 103734, Control_c, 0, 64, 108
2, 103749, Control_c, 0, 64, 99
2, 103764, Control_c, 0, 64, 91
2, 103771, Note_on_c, 0, 78, 0
2, 103780, Control_c, 0, 64, 86
2, 103794, Control_c, 0, 64, 80
2, 103810, Control_c, 0, 64, 76
2, 103825, Control_c, 0, 64, 71
2, 103841, Control_c, 0, 64, 67
2, 103857, Control_c, 0, 64, 63
2, 103872, Control_c, 0, 64, 57
2, 103887, Control_c, 0, 64, 50
2, 103902, Control_c, 0, 64, 45
2, 103917, Control_c, 0, 64, 40
2, 103933, Control_c, 0, 64, 33
2, 103948, Control_c, 0, 64, 10
2, 103962, Control_c, 0, 64, 0
2, 104282, Note_on_c, 0, 61, 55
2, 104433, Note_on_c, 0, 57, 0
2, 104891, Note_on_c, 0, 66, 49
2, 104896, Note_on_c, 0, 69, 51
2, 104897, Note_on_c, 0, 73, 0
2, 104987, Note_on_c, 0, 61, 0
2, 104989, Control_c, 0, 64, 33
2, 105004, Control_c, 0, 64, 45
2, 105020, Control_c, 0, 64, 51
2, 105032, Note_on_c, 0, 54, 0
2, 105034, Control_c, 0, 64, 56
2, 105050, Control_c, 0, 64, 59
2, 105065, Control_c, 0, 64, 62
2, 105080, Control_c, 0, 64, 64
2, 105096, Control_c, 0, 64, 67
2, 105111, Control_c, 0, 64, 73
2, 105127, Control_c, 0, 64, 79
2, 105141, Control_c, 0, 64, 84
2, 105163, Control_c, 0, 64, 87
2, 105179, Control_c, 0, 64, 90
2, 105190, Note_on_c, 0, 71, 67
2, 105194, Control_c, 0, 64, 92
2, 105206, Note_on_c, 0, 56, 47
2, 105328, Note_on_c, 0, 69, 0
2, 105377, Control_c, 0, 64, 91
2, 105392, Control_c, 0, 64, 90
2, 105408, Control_c, 0, 64, 89
2, 105422, Control_c, 0, 64, 87
2, 105437, Control_c, 0, 64, 84
2, 105453, Control_c, 0, 64, 81
2, 105468, Control_c, 0, 64, 78
2, 105484, Control_c, 0, 64, 76
2, 105487, Note_on_c, 0, 73, 68
2, 105498, Note_on_c, 0, 57, 46
2, 105500, Control_c, 0, 64, 73
2, 105514, Control_c, 0, 64, 69
2, 105523, Note_on_c, 0, 71, 0
2, 105530, Control_c, 0, 64, 63
2, 105544, Note_on_c, 0, 56, 0
2, 105545, Control_c, 0, 64, 45
2, 105560, Control_c, 0, 64, 0
2, 105682, Note_on_c, 0, 71, 65
2, 105724, Note_on_c, 0, 73, 0
2, 105728, Control_c, 0, 64, 21
2, 105743, Control_c, 0, 64, 48
2, 105758, Control_c, 0, 64, 57
2, 105774, Control_c, 0, 64, 62
2, 105788, Control_c, 0, 64, 67
2, 105803, Control_c, 0, 64, 76
2, 105819, Control_c, 0, 64, 92
2, 105834, Control_c, 0, 64, 127
2, 105872, Note_on_c, 0, 69, 67
2, 105876, Note_on_c, 0, 71, 0
2, 105897, Note_on_c, 0, 66, 0
2, 106051, Note_on_c, 0, 71, 66
2, 106059, Note_on_c, 0, 65, 63
2, 106065, Note_on_c, 0, 61, 57
2, 106084, Control_c, 0, 64, 99
2, 106090, Note_on_c, 0, 69, 0
2, 106100, Control_c, 0, 64, 78
2, 106114, Control_c, 0, 64, 64
2, 106130, Control_c, 0, 64, 29
2, 106145, Control_c, 0, 64, 0
2, 106145, Note_on_c, 0, 57, 0
2, 106230, Note_on_c, 0, 69, 66
2, 106252, Control_c, 0, 64, 24
2, 106267, Control_c, 0, 64, 46
2, 106273, Note_on_c, 0, 71, 0
2, 106282, Control_c, 0, 64, 54
2, 106298, Control_c, 0, 64, 59
2, 106313, Control_c, 0, 64, 64
2, 106329, Control_c, 0, 64, 69
2, 106343, Control_c, 0, 64, 76
2, 106358, Control_c, 0, 64, 84
2, 106364, Note_on_c, 0, 65, 0
2, 106374, Control_c, 0, 64, 94
2, 106389, Control_c, 0, 64, 103
2, 106404, Control_c, 0, 64, 127
2, 106409, Note_on_c, 0, 68, 66
2, 106452, Note_on_c, 0, 69, 0
2, 106601, Control_c, 0, 64, 113
2, 106617, Control_c, 0, 64, 104
2, 106631, Control_c, 0, 64, 99
2, 106647, Control_c, 0, 64, 94
2, 106650, Note_on_c, 0, 66, 58
2, 106652, Note_on_c, 0, 69, 63
2, 106662, Control_c, 0, 64, 89
2, 106668, Note_on_c, 0, 54, 44
2, 106677, Control_c, 0, 64, 83
2, 106693, Control_c, 0, 64, 78
2, 106707, Note_on_c, 0, 68, 0
2, 106715, Control_c, 0, 64, 74
2, 106731, Control_c, 0, 64, 71
2, 106746, Control_c, 0, 64, 68
2, 106753, Note_on_c, 0, 61, 0
2, 106760, Control_c, 0, 64, 65
2, 106776, Control_c, 0, 64, 59
2, 106791, Control_c, 0, 64, 47
2, 106807, Control_c, 0, 64, 27
2, 106822, Control_c, 0, 64, 0
2, 106956, Note_on_c, 0, 71, 60
2, 107019, Note_on_c, 0, 69, 0
2, 107247, Note_on_c, 0, 69, 46
2, 107261, Note_on_c, 0, 61, 49
2, 107272, Note_on_c, 0, 71, 0
2, 107441, Note_on_c, 0, 66, 0
2, 107548, Note_on_c, 0, 68, 54
2, 107623, Note_on_c, 0, 69, 0
2, 107848, Note_on_c, 0, 69, 53
2, 107884, Note_on_c, 0, 68, 0
2, 108117, Note_on_c, 0, 73, 63
2, 108260, Note_on_c, 0, 69, 0
2, 108413, Note_on_c, 0, 78, 64
2, 108441, Note_on_c, 0, 57, 23
2, 108498, Note_on_c, 0, 61, 0
2, 108508, Note_on_c, 0, 73, 0
2, 108691, Note_on_c, 0, 80, 64
2, 108695, Note_on_c, 0, 59, 50
2, 108709, Note_on_c, 0, 57, 0
2, 108793, Note_on_c, 0, 78, 0
2, 108963, Note_on_c, 0, 81, 61
2, 108968, Note_on_c, 0, 61, 50
2, 108982, Note_on_c, 0, 59, 0
2, 109017, Note_on_c, 0, 80, 0
2, 109156, Note_on_c, 0, 59, 45
2, 109156, Note_on_c, 0, 80, 60
2, 109172, Note_on_c, 0, 61, 0
2, 109199, Note_on_c, 0, 81, 0
2, 109310, Note_on_c, 0, 78, 67
2, 109312, Note_on_c, 0, 59, 0
2, 109324, Note_on_c, 0, 57, 48
2, 109334, Note_on_c, 0, 80, 0
2, 109476, Note_on_c, 0, 59, 51
2, 109477, Note_on_c, 0, 57, 0
2, 109487, Note_on_c, 0, 80, 59
2, 109506, Note_on_c, 0, 78, 0
2, 109644, Note_on_c, 0, 78, 61
2, 109650, Note_on_c, 0, 57, 46
2, 109672, Note_on_c, 0, 59, 0
2, 109684, Note_on_c, 0, 80, 0
2, 109803, Note_on_c, 0, 57, 0
2, 109821, Note_on_c, 0, 77, 63
2, 109822, Note_on_c, 0, 56, 45
2, 109873, Note_on_c, 0, 78, 0
2, 110027, Note_on_c, 0, 56, 0
2, 110039, Note_on_c, 0, 57, 44
2, 110042, Note_on_c, 0, 78, 52
2, 110082, Note_on_c, 0, 77, 0
2, 110348, Note_on_c, 0, 73, 65
2, 110406, Note_on_c, 0, 78, 0
2, 110662, Note_on_c, 0, 59, 47
2, 110663, Note_on_c, 0, 56, 41
2, 110723, Note_on_c, 0, 57, 0
2, 110749, Note_on_c, 0, 54, 0
2, 110933, Note_on_c, 0, 77, 58
2, 111084, Note_on_c, 0, 73, 0
2, 111244, Note_on_c, 0, 61, 41
2, 111247, Note_on_c, 0, 57, 39
2, 111248, Note_on_c, 0, 78, 58
2, 111296, Note_on_c, 0, 59, 0
2, 111316, Note_on_c, 0, 56, 0
2, 111320, Note_on_c, 0, 77, 0
2, 111546, Note_on_c, 0, 73, 63
2, 111604, Note_on_c, 0, 78, 0
2, 111842, Note_on_c, 0, 56, 51
2, 111843, Note_on_c, 0, 59, 54
2, 111908, Note_on_c, 0, 57, 0
2, 111929, Note_on_c, 0, 61, 0
2, 112127, Note_on_c, 0, 77, 72
2, 112409, Note_on_c, 0, 54, 54
2, 112415, Note_on_c, 0, 57, 52
2, 112416, Note_on_c, 0, 78, 74
2, 112429, Note_on_c, 0, 73, 0
2, 112434, Note_on_c, 0, 56, 0
2, 112476, Note_on_c, 0, 59, 0
2, 112484, Note_on_c, 0, 77, 0
2, 112561, Control_c, 0, 64, 19
2, 112577, Control_c, 0, 64, 37
2, 112592, Control_c, 0, 64, 47
2, 112608, Control_c, 0, 64, 54
2, 112623, Control_c, 0, 64, 58
2, 112638, Control_c, 0, 64, 61
2, 112654, Control_c, 0, 64, 63
2, 112668, Control_c, 0, 64, 66
2, 112678, Note_on_c, 0, 57, 0
2, 112683, Control_c, 0, 64, 69
2, 112697, Note_on_c, 0, 74, 72
2, 112699, Control_c, 0, 64, 74
2, 112714, Control_c, 0, 64, 82
2, 112730, Control_c, 0, 64, 93
2, 112744, Control_c, 0, 64, 111
2, 112744, Note_on_c, 0, 78, 0
2, 112752, Note_on_c, 0, 54, 0
2, 112759, Control_c, 0, 64, 127
2, 112993, Note_on_c, 0, 73, 83
2, 112997, Note_on_c, 0, 55, 62
2, 113001, Note_on_c, 0, 52, 63
2, 113072, Control_c, 0, 64, 120
2, 113073, Note_on_c, 0, 74, 0
2, 113088, Control_c, 0, 64, 88
2, 113102, Control_c, 0, 64, 69
2, 113117, Control_c, 0, 64, 47
2, 113133, Control_c, 0, 64, 0
2, 113251, Note_on_c, 0, 82, 80
2, 113269, Control_c, 0, 64, 40
2, 113284, Control_c, 0, 64, 53
2, 113300, Control_c, 0, 64, 59
2, 113314, Control_c, 0, 64, 62
2, 113317, Note_on_c, 0, 73, 0
2, 113330, Control_c, 0, 64, 65
2, 113345, Control_c, 0, 64, 70
2, 113360, Control_c, 0, 64, 77
2, 113376, Control_c, 0, 64, 85
2, 113390, Control_c, 0, 64, 95
2, 113406, Control_c, 0, 64, 114
2, 113421, Control_c, 0, 64, 127
2, 113467, Note_on_c, 0, 82, 0
2, 113596, Note_on_c, 0, 83, 84
2, 113617, Note_on_c, 0, 54, 64
2, 113619, Note_on_c, 0, 50, 56
2, 113666, Note_on_c, 0, 52, 0
2, 113673, Control_c, 0, 64, 110
2, 113688, Control_c, 0, 64, 97
2, 113703, Control_c, 0, 64, 87
2, 113718, Control_c, 0, 64, 79
2, 113724, Note_on_c, 0, 55, 0
2, 113734, Control_c, 0, 64, 72
2, 113748, Control_c, 0, 64, 66
2, 113763, Control_c, 0, 64, 59
2, 113779, Control_c, 0, 64, 36
2, 113794, Control_c, 0, 64, 0
2, 113919, Note_on_c, 0, 78, 75
2, 114020, Note_on_c, 0, 83, 0
2, 114181, Note_on_c, 0, 50, 0
2, 114189, Note_on_c, 0, 52, 54
2, 114195, Note_on_c, 0, 49, 58
2, 114263, Note_on_c, 0, 54, 0
2, 114467, Note_on_c, 0, 82, 76
2, 114747, Note_on_c, 0, 54, 61
2, 114752, Note_on_c, 0, 83, 79
2, 114753, Note_on_c, 0, 50, 50
2, 114786, Note_on_c, 0, 52, 0
2, 114798, Note_on_c, 0, 78, 0
2, 114801, Note_on_c, 0, 82, 0
2, 114816, Note_on_c, 0, 49, 0
2, 115047, Note_on_c, 0, 78, 67
2, 115137, Note_on_c, 0, 83, 0
2, 115333, Note_on_c, 0, 61, 62
2, 115341, Note_on_c, 0, 52, 55
2, 115388, Note_on_c, 0, 54, 0
2, 115432, Note_on_c, 0, 50, 0
2, 115596, Note_on_c, 0, 82, 66
2, 115663, Note_on_c, 0, 78, 0
2, 115904, Note_on_c, 0, 83, 62
2, 115919, Note_on_c, 0, 54, 49
2, 115929, Note_on_c, 0, 50, 47
2, 115947, Note_on_c, 0, 82, 0
2, 116012, Note_on_c, 0, 52, 0
2, 116064, Note_on_c, 0, 61, 0
2, 116131, Note_on_c, 0, 81, 56
2, 116177, Note_on_c, 0, 83, 0
2, 116284, Note_on_c, 0, 80, 61
2, 116316, Note_on_c, 0, 81, 0
2, 116484, Note_on_c, 0, 81, 51
2, 116486, Note_on_c, 0, 49, 38
2, 116521, Note_on_c, 0, 80, 0
2, 116550, Note_on_c, 0, 50, 0
2, 116574, Control_c, 0, 64, 29
2, 116589, Control_c, 0, 64, 42
2, 116605, Control_c, 0, 64, 50
2, 116620, Control_c, 0, 64, 55
2, 116636, Control_c, 0, 64, 59
2, 116651, Control_c, 0, 64, 62
2, 116660, Note_on_c, 0, 80, 60
2, 116666, Control_c, 0, 64, 64
2, 116673, Note_on_c, 0, 81, 0
2, 116682, Control_c, 0, 64, 66
2, 116703, Control_c, 0, 64, 69
2, 116719, Control_c, 0, 64, 74
2, 116734, Control_c, 0, 64, 79
2, 116749, Control_c, 0, 64, 88
2, 116765, Control_c, 0, 64, 99
2, 116775, Note_on_c, 0, 49, 0
2, 116779, Control_c, 0, 64, 118
2, 116795, Control_c, 0, 64, 127
2, 116855, Note_on_c, 0, 78, 59
2, 116868, Note_on_c, 0, 80, 0
2, 117039, Control_c, 0, 64, 122
2, 117054, Control_c, 0, 64, 107
2, 117069, Control_c, 0, 64, 99
2, 117085, Control_c, 0, 64, 92
2, 117100, Control_c, 0, 64, 86
2, 117106, Note_on_c, 0, 79, 60
2, 117116, Control_c, 0, 64, 80
2, 117130, Control_c, 0, 64, 75
2, 117131, Note_on_c, 0, 59, 36
2, 117134, Note_on_c, 0, 47, 39
2, 117134, Note_on_c, 0, 78, 0
2, 117145, Control_c, 0, 64, 70
2, 117146, Note_on_c, 0, 54, 0
2, 117160, Control_c, 0, 64, 62
2, 117175, Control_c, 0, 64, 33
2, 117190, Control_c, 0, 64, 0
2, 117358, Control_c, 0, 64, 31
2, 117370, Control_c, 0, 64, 47
2, 117385, Control_c, 0, 64, 54
2, 117401, Control_c, 0, 64, 58
2, 117408, Note_on_c, 0, 47, 0
2, 117416, Control_c, 0, 64, 62
2, 117431, Control_c, 0, 64, 64
2, 117447, Control_c, 0, 64, 67
2, 117459, Note_on_c, 0, 74, 46
2, 117468, Control_c, 0, 64, 72
2, 117484, Control_c, 0, 64, 87
2, 117492, Note_on_c, 0, 79, 0
2, 117499, Control_c, 0, 64, 111
2, 117514, Control_c, 0, 64, 127
2, 117528, Note_on_c, 0, 59, 0
2, 117755, Note_on_c, 0, 59, 33
2, 117767, Note_on_c, 0, 62, 43
2, 117774, Control_c, 0, 64, 102
2, 117789, Control_c, 0, 64, 91
2, 117805, Control_c, 0, 64, 79
2, 117820, Control_c, 0, 64, 70
2, 117835, Control_c, 0, 64, 63
2, 117850, Control_c, 0, 64, 43
2, 117865, Control_c, 0, 64, 0
2, 117986, Control_c, 0, 64, 30
2, 118002, Control_c, 0, 64, 45
2, 118017, Control_c, 0, 64, 52
2, 118032, Control_c, 0, 64, 57
2, 118047, Control_c, 0, 64, 61
2, 118050, Note_on_c, 0, 78, 56
2, 118062, Control_c, 0, 64, 63
2, 118077, Control_c, 0, 64, 65
2, 118092, Control_c, 0, 64, 69
2, 118107, Control_c, 0, 64, 74
2, 118123, Control_c, 0, 64, 79
2, 118125, Note_on_c, 0, 59, 0
2, 118138, Control_c, 0, 64, 85
2, 118146, Note_on_c, 0, 62, 0
2, 118153, Control_c, 0, 64, 91
2, 118168, Control_c, 0, 64, 94
2, 118183, Control_c, 0, 64, 95
2, 118242, Note_on_c, 0, 74, 0
2, 118328, Control_c, 0, 64, 95
2, 118336, Note_on_c, 0, 79, 63
2, 118343, Control_c, 0, 64, 92
2, 118345, Note_on_c, 0, 59, 33
2, 118350, Note_on_c, 0, 62, 31
2, 118359, Control_c, 0, 64, 88
2, 118374, Control_c, 0, 64, 81
2, 118385, Note_on_c, 0, 78, 0
2, 118388, Control_c, 0, 64, 73
2, 118404, Control_c, 0, 64, 66
2, 118419, Control_c, 0, 64, 59
2, 118434, Control_c, 0, 64, 44
2, 118450, Control_c, 0, 64, 36
2, 118465, Control_c, 0, 64, 36
2, 118495, Control_c, 0, 64, 37
2, 118510, Control_c, 0, 64, 43
2, 118526, Control_c, 0, 64, 49
2, 118541, Control_c, 0, 64, 54
2, 118556, Control_c, 0, 64, 58
2, 118572, Control_c, 0, 64, 61
2, 118587, Control_c, 0, 64, 63
2, 118603, Control_c, 0, 64, 65
2, 118618, Control_c, 0, 64, 68
2, 118633, Control_c, 0, 64, 72
2, 118642, Note_on_c, 0, 74, 46
2, 118648, Control_c, 0, 64, 78
2, 118663, Control_c, 0, 64, 84
2, 118679, Control_c, 0, 64, 91
2, 118680, Note_on_c, 0, 62, 0
2, 118681, Note_on_c, 0, 59, 0
2, 118685, Note_on_c, 0, 79, 0
2, 118694, Control_c, 0, 64, 99
2, 118709, Control_c, 0, 64, 111
2, 118725, Control_c, 0, 64, 127
2, 118906, Control_c, 0, 64, 114
2, 118908, Note_on_c, 0, 59, 36
2, 118917, Note_on_c, 0, 62, 41
2, 118922, Control_c, 0, 64, 96
2, 118936, Control_c, 0, 64, 83
2, 118951, Control_c, 0, 64, 72
2, 118967, Control_c, 0, 64, 65
2, 118980, Control_c, 0, 64, 59
2, 119003, Control_c, 0, 64, 53
2, 119018, Control_c, 0, 64, 52
2, 119049, Control_c, 0, 64, 53
2, 119064, Control_c, 0, 64, 56
2, 119079, Control_c, 0, 64, 58
2, 119094, Control_c, 0, 64, 60
2, 119109, Control_c, 0, 64, 62
2, 119124, Control_c, 0, 64, 64
2, 119140, Control_c, 0, 64, 66
2, 119154, Control_c, 0, 64, 69
2, 119167, Note_on_c, 0, 78, 56
2, 119170, Control_c, 0, 64, 75
2, 119185, Control_c, 0, 64, 80
2, 119200, Control_c, 0, 64, 88
2, 119216, Control_c, 0, 64, 97
2, 119220, Note_on_c, 0, 62, 0
2, 119222, Note_on_c, 0, 59, 0
2, 119230, Control_c, 0, 64, 112
2, 119246, Control_c, 0, 64, 127
2, 119395, Note_on_c, 0, 74, 0
2, 119443, Note_on_c, 0, 79, 60
2, 119460, Control_c, 0, 64, 109
2, 119461, Note_on_c, 0, 59, 33
2, 119471, Note_on_c, 0, 62, 41
2, 119475, Control_c, 0, 64, 86
2, 119491, Control_c, 0, 64, 75
2, 119506, Control_c, 0, 64, 67
2, 119521, Control_c, 0, 64, 61
2, 119536, Control_c, 0, 64, 53
2, 119551, Control_c, 0, 64, 48
2, 119558, Note_on_c, 0, 78, 0
2, 119582, Control_c, 0, 64, 49
2, 119596, Control_c, 0, 64, 53
2, 119612, Control_c, 0, 64, 57
2, 119627, Control_c, 0, 64, 60
2, 119636, Note_on_c, 0, 81, 60
2, 119642, Control_c, 0, 64, 63
2, 119658, Control_c, 0, 64, 65
2, 119673, Control_c, 0, 64, 68
2, 119689, Control_c, 0, 64, 73
2, 119704, Control_c, 0, 64, 79
2, 119719, Control_c, 0, 64, 86
2, 119734, Control_c, 0, 64, 94
2, 119744, Note_on_c, 0, 79, 0
2, 119749, Control_c, 0, 64, 107
2, 119769, Note_on_c, 0, 59, 0
2, 119772, Control_c, 0, 64, 127
2, 119777, Note_on_c, 0, 62, 0
2, 119804, Note_on_c, 0, 83, 71
2, 119848, Note_on_c, 0, 81, 0
2, 119970, Control_c, 0, 64, 122
2, 119983, Note_on_c, 0, 81, 64
2, 119985, Control_c, 0, 64, 92
2, 119989, Note_on_c, 0, 62, 45
2, 119999, Control_c, 0, 64, 76
2, 120003, Note_on_c, 0, 59, 34
2, 120015, Control_c, 0, 64, 64
2, 120030, Control_c, 0, 64, 50
2, 120031, Note_on_c, 0, 83, 0
2, 120046, Control_c, 0, 64, 19
2, 120061, Control_c, 0, 64, 0
2, 120075, Control_c, 0, 64, 8
2, 120091, Control_c, 0, 64, 23
2, 120106, Control_c, 0, 64, 38
2, 120120, Control_c, 0, 64, 49
2, 120136, Control_c, 0, 64, 54
2, 120151, Control_c, 0, 64, 58
2, 120160, Note_on_c, 0, 80, 65
2, 120167, Control_c, 0, 64, 61
2, 120176, Note_on_c, 0, 81, 0
2, 120182, Control_c, 0, 64, 64
2, 120196, Control_c, 0, 64, 66
2, 120213, Control_c, 0, 64, 69
2, 120227, Control_c, 0, 64, 74
2, 120241, Control_c, 0, 64, 80
2, 120257, Control_c, 0, 64, 87
2, 120272, Control_c, 0, 64, 95
2, 120272, Note_on_c, 0, 62, 0
2, 120281, Note_on_c, 0, 59, 0
2, 120288, Control_c, 0, 64, 107
2, 120303, Control_c, 0, 64, 127
2, 120324, Note_on_c, 0, 78, 71
2, 120364, Note_on_c, 0, 80, 0
2, 120515, Control_c, 0, 64, 107
2, 120533, Note_on_c, 0, 77, 62
2, 120539, Control_c, 0, 64, 96
2, 120547, Note_on_c, 0, 61, 47
2, 120548, Note_on_c, 0, 59, 38
2, 120553, Control_c, 0, 64, 88
2, 120559, Note_on_c, 0, 78, 0
2, 120569, Control_c, 0, 64, 81
2, 120584, Control_c, 0, 64, 75
2, 120599, Control_c, 0, 64, 70
2, 120615, Control_c, 0, 64, 66
2, 120629, Control_c, 0, 64, 61
2, 120644, Control_c, 0, 64, 49
2, 120660, Control_c, 0, 64, 33
2, 120675, Control_c, 0, 64, 0
2, 120707, Note_on_c, 0, 78, 60
2, 120802, Note_on_c, 0, 77, 0
2, 120894, Note_on_c, 0, 80, 61
2, 120930, Note_on_c, 0, 78, 0
2, 121056, Note_on_c, 0, 78, 63
2, 121092, Note_on_c, 0, 80, 0
2, 121223, Note_on_c, 0, 77, 58
2, 121226, Note_on_c, 0, 78, 0
2, 121394, Note_on_c, 0, 75, 66
2, 121419, Note_on_c, 0, 77, 0
2, 121567, Note_on_c, 0, 73, 66
2, 121598, Note_on_c, 0, 75, 0
2, 121744, Note_on_c, 0, 71, 66
2, 121747, Control_c, 0, 64, 32
2, 121761, Control_c, 0, 64, 42
2, 121774, Note_on_c, 0, 73, 0
2, 121777, Control_c, 0, 64, 48
2, 121792, Control_c, 0, 64, 52
2, 121808, Control_c, 0, 64, 56
2, 121823, Control_c, 0, 64, 58
2, 121837, Control_c, 0, 64, 59
2, 121854, Control_c, 0, 64, 60
2, 121869, Control_c, 0, 64, 60
2, 121874, Note_on_c, 0, 59, 0
2, 121899, Note_on_c, 0, 61, 0
2, 121901, Note_on_c, 0, 73, 73
2, 121985, Note_on_c, 0, 71, 0
2, 121991, Control_c, 0, 64, 60
2, 122021, Control_c, 0, 64, 59
2, 122036, Control_c, 0, 64, 58
2, 122052, Control_c, 0, 64, 57
2, 122074, Control_c, 0, 64, 56
2, 122090, Control_c, 0, 64, 55
2, 122095, Note_on_c, 0, 74, 65
2, 122098, Note_on_c, 0, 53, 52
2, 122098, Note_on_c, 0, 56, 54
2, 122105, Control_c, 0, 64, 54
2, 122119, Control_c, 0, 64, 52
2, 122131, Note_on_c, 0, 73, 0
2, 122135, Control_c, 0, 64, 50
2, 122150, Control_c, 0, 64, 48
2, 122165, Control_c, 0, 64, 45
2, 122181, Control_c, 0, 64, 41
2, 122195, Control_c, 0, 64, 37
2, 122211, Control_c, 0, 64, 32
2, 122226, Control_c, 0, 64, 25
2, 122241, Control_c, 0, 64, 8
2, 122257, Control_c, 0, 64, 0
2, 122263, Note_on_c, 0, 73, 73
2, 122307, Note_on_c, 0, 74, 0
2, 122432, Note_on_c, 0, 71, 72
2, 122458, Note_on_c, 0, 73, 0
2, 122624, Note_on_c, 0, 61, 57
2, 122638, Note_on_c, 0, 54, 61
2, 122642, Note_on_c, 0, 69, 61
2, 122690, Note_on_c, 0, 71, 0
2, 122694, Note_on_c, 0, 53, 0
2, 122702, Note_on_c, 0, 56, 0
2, 122809, Note_on_c, 0, 71, 74
2, 122854, Note_on_c, 0, 69, 0
2, 122996, Note_on_c, 0, 73, 74
2, 123033, Note_on_c, 0, 71, 0
2, 123180, Note_on_c, 0, 71, 66
2, 123190, Note_on_c, 0, 49, 59
2, 123258, Note_on_c, 0, 54, 0
2, 123324, Note_on_c, 0, 73, 0
2, 123373, Note_on_c, 0, 69, 70
2, 123416, Note_on_c, 0, 71, 0
2, 123541, Note_on_c, 0, 68, 73
2, 123581, Note_on_c, 0, 69, 0
2, 123787, Note_on_c, 0, 50, 57
2, 123810, Note_on_c, 0, 66, 61
2, 123862, Note_on_c, 0, 49, 0
2, 123879, Note_on_c, 0, 68, 0
2, 123962, Note_on_c, 0, 61, 0
2, 124131, Note_on_c, 0, 77, 78
2, 124408, Note_on_c, 0, 61, 70
2, 124409, Control_c, 0, 64, 12
2, 124424, Control_c, 0, 64, 27
2, 124439, Control_c, 0, 64, 35
2, 124455, Control_c, 0, 64, 42
2, 124470, Control_c, 0, 64, 47
2, 124485, Control_c, 0, 64, 51
2, 124501, Control_c, 0, 64, 55
2, 124516, Control_c, 0, 64, 58
2, 124531, Control_c, 0, 64, 60
2, 124546, Control_c, 0, 64, 62
2, 124561, Control_c, 0, 64, 65
2, 124576, Control_c, 0, 64, 67
2, 124591, Control_c, 0, 64, 71
2, 124607, Control_c, 0, 64, 77
2, 124622, Control_c, 0, 64, 83
2, 124637, Control_c, 0, 64, 93
2, 124652, Control_c, 0, 64, 106
2, 124657, Note_on_c, 0, 77, 0
2, 124667, Control_c, 0, 64, 127
2, 124711, Note_on_c, 0, 78, 76
2, 124764, Note_on_c, 0, 66, 0
2, 124770, Note_on_c, 0, 61, 0
2, 124972, Control_c, 0, 64, 105
2, 124986, Control_c, 0, 64, 95
2, 125001, Control_c, 0, 64, 88
2, 125002, Note_on_c, 0, 68, 67
2, 125004, Note_on_c, 0, 59, 63
2, 125017, Control_c, 0, 64, 83
2, 125032, Control_c, 0, 64, 78
2, 125048, Control_c, 0, 64, 74
2, 125062, Control_c, 0, 64, 69
2, 125077, Control_c, 0, 64, 65
2, 125088, Note_on_c, 0, 78, 0
2, 125093, Control_c, 0, 64, 61
2, 125108, Control_c, 0, 64, 54
2, 125114, Note_on_c, 0, 50, 0
2, 125132, Control_c, 0, 64, 44
2, 125147, Control_c, 0, 64, 32
2, 125161, Control_c, 0, 64, 12
2, 125177, Control_c, 0, 64, 0
2, 125313, Note_on_c, 0, 78, 68
2, 125586, Note_on_c, 0, 50, 49
2, 125754, Control_c, 0, 64, 28
2, 125770, Control_c, 0, 64, 38
2, 125785, Control_c, 0, 64, 44
2, 125800, Control_c, 0, 64, 49
2, 125816, Control_c, 0, 64, 53
2, 125830, Control_c, 0, 64, 57
2, 125842, Note_on_c, 0, 77, 68
2, 125845, Control_c, 0, 64, 59
2, 125861, Control_c, 0, 64, 61
2, 125876, Control_c, 0, 64, 62
2, 125877, Note_on_c, 0, 68, 0
2, 125892, Control_c, 0, 64, 64
2, 125913, Control_c, 0, 64, 66
2, 125929, Control_c, 0, 64, 69
2, 125944, Control_c, 0, 64, 73
2, 125960, Control_c, 0, 64, 78
2, 125976, Control_c, 0, 64, 82
2, 125991, Control_c, 0, 64, 86
2, 126005, Control_c, 0, 64, 91
2, 126021, Control_c, 0, 64, 93
2, 126036, Control_c, 0, 64, 94
2, 126143, Control_c, 0, 64, 93
2, 126150, Note_on_c, 0, 70, 64
2, 126158, Control_c, 0, 64, 91
2, 126160, Note_on_c, 0, 49, 48
2, 126173, Control_c, 0, 64, 88
2, 126185, Note_on_c, 0, 50, 0
2, 126188, Control_c, 0, 64, 84
2, 126194, Note_on_c, 0, 77, 0
2, 126203, Control_c, 0, 64, 79
2, 126219, Control_c, 0, 64, 74
2, 126234, Control_c, 0, 64, 69
2, 126250, Control_c, 0, 64, 65
2, 126264, Control_c, 0, 64, 59
2, 126279, Control_c, 0, 64, 48
2, 126281, Note_on_c, 0, 78, 0
2, 126295, Control_c, 0, 64, 29
2, 126310, Control_c, 0, 64, 0
2, 126344, Note_on_c, 0, 59, 0
2, 126429, Note_on_c, 0, 76, 70
2, 126702, Note_on_c, 0, 58, 59
2, 126709, Note_on_c, 0, 55, 46
2, 126805, Control_c, 0, 64, 31
2, 126821, Control_c, 0, 64, 47
2, 126836, Control_c, 0, 64, 55
2, 126851, Control_c, 0, 64, 59
2, 126866, Control_c, 0, 64, 62
2, 126881, Control_c, 0, 64, 65
2, 126897, Control_c, 0, 64, 68
2, 126898, Note_on_c, 0, 55, 0
2, 126905, Note_on_c, 0, 49, 0
2, 126911, Control_c, 0, 64, 73
2, 126927, Control_c, 0, 64, 78
2, 126942, Control_c, 0, 64, 85
2, 126957, Control_c, 0, 64, 94
2, 126972, Control_c, 0, 64, 103
2, 126977, Note_on_c, 0, 75, 63
2, 126987, Control_c, 0, 64, 118
2, 127000, Note_on_c, 0, 58, 0
2, 127002, Control_c, 0, 64, 127
2, 127011, Note_on_c, 0, 76, 0
2, 127075, Note_on_c, 0, 75, 0
2, 127154, Control_c, 0, 64, 120
2, 127170, Control_c, 0, 64, 111
2, 127172, Note_on_c, 0, 70, 0
2, 127185, Control_c, 0, 64, 105
2, 127200, Control_c, 0, 64, 99
2, 127216, Control_c, 0, 64, 94
2, 127231, Control_c, 0, 64, 91
2, 127247, Control_c, 0, 64, 87
2, 127261, Control_c, 0, 64, 83
2, 127262, Note_on_c, 0, 60, 56
2, 127270, Note_on_c, 0, 75, 62
2, 127271, Note_on_c, 0, 54, 53
2, 127276, Control_c, 0, 64, 79
2, 127292, Control_c, 0, 64, 76
2, 127306, Control_c, 0, 64, 73
2, 127321, Control_c, 0, 64, 70
2, 127337, Control_c, 0, 64, 66
2, 127352, Control_c, 0, 64, 63
2, 127368, Control_c, 0, 64, 60
2, 127382, Control_c, 0, 64, 55
2, 127397, Control_c, 0, 64, 50
2, 127413, Control_c, 0, 64, 45
2, 127428, Control_c, 0, 64, 40
2, 127451, Control_c, 0, 64, 34
2, 127459, Note_on_c, 0, 76, 62
2, 127466, Control_c, 0, 64, 21
2, 127481, Control_c, 0, 64, 0
2, 127555, Note_on_c, 0, 75, 0
2, 127630, Note_on_c, 0, 78, 75
2, 127670, Note_on_c, 0, 76, 0
2, 127796, Note_on_c, 0, 76, 67
2, 127800, Note_on_c, 0, 61, 70
2, 127873, Note_on_c, 0, 60, 0
2, 127940, Note_on_c, 0, 78, 0
2, 127944, Note_on_c, 0, 75, 69
2, 127977, Note_on_c, 0, 76, 0
2, 128115, Note_on_c, 0, 73, 71
2, 128167, Note_on_c, 0, 75, 0
2, 128305, Note_on_c, 0, 63, 63
2, 128322, Note_on_c, 0, 72, 60
2, 128338, Note_on_c, 0, 73, 0
2, 128369, Note_on_c, 0, 61, 0
2, 128491, Note_on_c, 0, 73, 64
2, 128493, Control_c, 0, 64, 26
2, 128506, Note_on_c, 0, 54, 0
2, 128508, Control_c, 0, 64, 44
2, 128523, Control_c, 0, 64, 53
2, 128538, Control_c, 0, 64, 59
2, 128553, Control_c, 0, 64, 62
2, 128569, Control_c, 0, 64, 65
2, 128574, Note_on_c, 0, 72, 0
2, 128584, Control_c, 0, 64, 68
2, 128598, Control_c, 0, 64, 72
2, 128614, Control_c, 0, 64, 76
2, 128629, Control_c, 0, 64, 79
2, 128644, Control_c, 0, 64, 82
2, 128648, Note_on_c, 0, 75, 66
2, 128660, Control_c, 0, 64, 84
2, 128662, Note_on_c, 0, 73, 0
2, 128674, Control_c, 0, 64, 85
2, 128796, Control_c, 0, 64, 84
2, 128812, Control_c, 0, 64, 83
2, 128822, Note_on_c, 0, 56, 57
2, 128827, Control_c, 0, 64, 81
2, 128832, Note_on_c, 0, 52, 49
2, 128842, Control_c, 0, 64, 79
2, 128842, Note_on_c, 0, 73, 65
2, 128858, Control_c, 0, 64, 78
2, 128872, Control_c, 0, 64, 75
2, 128872, Note_on_c, 0, 75, 0
2, 128888, Control_c, 0, 64, 73
2, 128903, Control_c, 0, 64, 70
2, 128917, Control_c, 0, 64, 68
2, 128933, Control_c, 0, 64, 65
2, 128948, Control_c, 0, 64, 62
2, 128971, Control_c, 0, 64, 58
2, 128986, Control_c, 0, 64, 51
2, 129001, Control_c, 0, 64, 38
2, 129001, Note_on_c, 0, 72, 64
2, 129016, Note_on_c, 0, 73, 0
2, 129017, Control_c, 0, 64, 13
2, 129032, Control_c, 0, 64, 0
2, 129110, Note_on_c, 0, 63, 0
2, 129167, Note_on_c, 0, 70, 66
2, 129199, Note_on_c, 0, 72, 0
2, 129359, Note_on_c, 0, 58, 65
2, 129361, Note_on_c, 0, 68, 66
2, 129389, Note_on_c, 0, 70, 0
2, 129471, Note_on_c, 0, 56, 0
2, 129530, Note_on_c, 0, 66, 66
2, 129545, Note_on_c, 0, 68, 0
2, 129680, Note_on_c, 0, 68, 63
2, 129839, Note_on_c, 0, 66, 0
2, 129891, Note_on_c, 0, 60, 58
2, 129896, Note_on_c, 0, 69, 59
2, 129911, Note_on_c, 0, 58, 0
2, 129911, Note_on_c, 0, 68, 0
2, 129928, Note_on_c, 0, 51, 30
2, 129971, Note_on_c, 0, 52, 0
2, 130059, Control_c, 0, 64, 34
2, 130074, Control_c, 0, 64, 45
2, 130081, Note_on_c, 0, 68, 55
2, 130090, Control_c, 0, 64, 52
2, 130094, Note_on_c, 0, 69, 0
2, 130105, Control_c, 0, 64, 58
2, 130120, Control_c, 0, 64, 61
2, 130136, Control_c, 0, 64, 64
2, 130150, Control_c, 0, 64, 67
2, 130165, Control_c, 0, 64, 72
2, 130181, Control_c, 0, 64, 78
2, 130196, Control_c, 0, 64, 86
2, 130211, Control_c, 0, 64, 97
2, 130218, Note_on_c, 0, 60, 0
2, 130225, Control_c, 0, 64, 117
2, 130227, Note_on_c, 0, 68, 0
2, 130238, Note_on_c, 0, 66, 59
2, 130240, Control_c, 0, 64, 127
2, 130451, Note_on_c, 0, 65, 56
2, 130460, Note_on_c, 0, 59, 50
2, 130467, Note_on_c, 0, 49, 44
2, 130469, Control_c, 0, 64, 97
2, 130476, Note_on_c, 0, 51, 0
2, 130483, Control_c, 0, 64, 83
2, 130496, Note_on_c, 0, 66, 0
2, 130499, Control_c, 0, 64, 72
2, 130521, Control_c, 0, 64, 63
2, 130537, Control_c, 0, 64, 33
2, 130552, Control_c, 0, 64, 0
2, 130645, Note_on_c, 0, 66, 53
2, 130689, Control_c, 0, 64, 38
2, 130689, Note_on_c, 0, 65, 0
2, 130704, Control_c, 0, 64, 50
2, 130719, Control_c, 0, 64, 58
2, 130733, Note_on_c, 0, 59, 0
2, 130735, Control_c, 0, 64, 62
2, 130750, Control_c, 0, 64, 64
2, 130764, Control_c, 0, 64, 68
2, 130780, Control_c, 0, 64, 73
2, 130795, Control_c, 0, 64, 80
2, 130811, Control_c, 0, 64, 87
2, 130814, Note_on_c, 0, 68, 57
2, 130825, Control_c, 0, 64, 95
2, 130832, Note_on_c, 0, 66, 0
2, 130840, Control_c, 0, 64, 104
2, 130856, Control_c, 0, 64, 113
2, 130872, Control_c, 0, 64, 114
2, 130979, Control_c, 0, 64, 112
2, 130993, Control_c, 0, 64, 106
2, 130994, Note_on_c, 0, 57, 47
2, 131000, Note_on_c, 0, 66, 59
2, 131004, Note_on_c, 0, 51, 43
2, 131009, Control_c, 0, 64, 97
2, 131022, Note_on_c, 0, 68, 0
2, 131024, Control_c, 0, 64, 88
2, 131039, Control_c, 0, 64, 77
2, 131054, Control_c, 0, 64, 68
2, 131069, Control_c, 0, 64, 59
2, 131080, Note_on_c, 0, 49, 0
2, 131084, Control_c, 0, 64, 31
2, 131100, Control_c, 0, 64, 0
2, 131186, Note_on_c, 0, 65, 57
2, 131211, Note_on_c, 0, 66, 0
2, 131221, Control_c, 0, 64, 10
2, 131236, Control_c, 0, 64, 37
2, 131252, Control_c, 0, 64, 47
2, 131267, Control_c, 0, 64, 54
2, 131290, Control_c, 0, 64, 59
2, 131305, Control_c, 0, 64, 62
2, 131320, Control_c, 0, 64, 65
2, 131335, Control_c, 0, 64, 68
2, 131350, Control_c, 0, 64, 72
2, 131355, Note_on_c, 0, 63, 57
2, 131362, Note_on_c, 0, 65, 0
2, 131365, Control_c, 0, 64, 77
2, 131381, Control_c, 0, 64, 82
2, 131396, Control_c, 0, 64, 87
2, 131411, Control_c, 0, 64, 92
2, 131426, Control_c, 0, 64, 95
2, 131533, Control_c, 0, 64, 95
2, 131548, Control_c, 0, 64, 92
2, 131563, Control_c, 0, 64, 88
2, 131571, Note_on_c, 0, 61, 63
2, 131573, Note_on_c, 0, 51, 0
2, 131579, Control_c, 0, 64, 81
2, 131593, Note_on_c, 0, 56, 47
2, 131594, Control_c, 0, 64, 74
2, 131597, Note_on_c, 0, 53, 32
2, 131609, Control_c, 0, 64, 66
2, 131619, Note_on_c, 0, 63, 0
2, 131624, Control_c, 0, 64, 56
2, 131639, Control_c, 0, 64, 0
2, 131692, Note_on_c, 0, 57, 0
2, 131808, Control_c, 0, 64, 39
2, 131823, Control_c, 0, 64, 50
2, 131837, Control_c, 0, 64, 57
2, 131853, Control_c, 0, 64, 62
2, 131868, Control_c, 0, 64, 65
2, 131882, Control_c, 0, 64, 68
2, 131891, Note_on_c, 0, 56, 0
2, 131898, Control_c, 0, 64, 73
2, 131913, Control_c, 0, 64, 79
2, 131929, Control_c, 0, 64, 85
2, 131944, Control_c, 0, 64, 92
2, 131959, Control_c, 0, 64, 99
2, 131974, Control_c, 0, 64, 100
2, 132103, Control_c, 0, 64, 98
2, 132118, Control_c, 0, 64, 94
2, 132134, Control_c, 0, 64, 89
2, 132139, Note_on_c, 0, 54, 45
2, 132146, Note_on_c, 0, 57, 44
2, 132149, Control_c, 0, 64, 81
2, 132164, Control_c, 0, 64, 71
2, 132176, Note_on_c, 0, 53, 0
2, 132179, Control_c, 0, 64, 64
2, 132194, Control_c, 0, 64, 49
2, 132210, Control_c, 0, 64, 0
2, 132315, Control_c, 0, 64, 39
2, 132331, Control_c, 0, 64, 50
2, 132346, Control_c, 0, 64, 57
2, 132361, Control_c, 0, 64, 61
2, 132377, Control_c, 0, 64, 65
2, 132392, Control_c, 0, 64, 68
2, 132407, Control_c, 0, 64, 72
2, 132422, Control_c, 0, 64, 78
2, 132437, Control_c, 0, 64, 85
2, 132453, Control_c, 0, 64, 92
2, 132459, Note_on_c, 0, 57, 0
2, 132460, Note_on_c, 0, 54, 0
2, 132468, Control_c, 0, 64, 101
2, 132483, Control_c, 0, 64, 117
2, 132499, Control_c, 0, 64, 127
2, 132636, Control_c, 0, 64, 117
2, 132652, Control_c, 0, 64, 105
2, 132667, Control_c, 0, 64, 93
2, 132681, Control_c, 0, 64, 80
2, 132687, Note_on_c, 0, 56, 44
2, 132692, Note_on_c, 0, 59, 44
2, 132697, Control_c, 0, 64, 68
2, 132712, Control_c, 0, 64, 57
2, 132727, Control_c, 0, 64, 0
2, 132841, Control_c, 0, 64, 32
2, 132857, Control_c, 0, 64, 47
2, 132872, Control_c, 0, 64, 55
2, 132887, Control_c, 0, 64, 60
2, 132902, Control_c, 0, 64, 63
2, 132906, Note_on_c, 0, 59, 0
2, 132917, Control_c, 0, 64, 67
2, 132933, Control_c, 0, 64, 72
2, 132947, Control_c, 0, 64, 79
2, 132956, Note_on_c, 0, 56, 0
2, 132962, Control_c, 0, 64, 88
2, 132978, Control_c, 0, 64, 102
2, 132982, Note_on_c, 0, 65, 54
2, 132993, Control_c, 0, 64, 127
2, 133043, Note_on_c, 0, 61, 0
2, 133101, Note_on_c, 0, 68, 64
2, 133135, Note_on_c, 0, 65, 0
2, 133241, Note_on_c, 0, 44, 48
2, 133248, Note_on_c, 0, 71, 67
2, 133250, Note_on_c, 0, 53, 48
2, 133251, Control_c, 0, 64, 89
2, 133266, Control_c, 0, 64, 72
2, 133282, Control_c, 0, 64, 59
2, 133288, Note_on_c, 0, 68, 0
2, 133297, Control_c, 0, 64, 0
2, 133404, Control_c, 0, 64, 23
2, 133420, Control_c, 0, 64, 44
2, 133435, Control_c, 0, 64, 55
2, 133450, Control_c, 0, 64, 60
2, 133465, Control_c, 0, 64, 63
2, 133480, Control_c, 0, 64, 66
2, 133496, Control_c, 0, 64, 71
2, 133511, Control_c, 0, 64, 77
2, 133524, Note_on_c, 0, 53, 0
2, 133525, Control_c, 0, 64, 85
2, 133532, Note_on_c, 0, 74, 70
2, 133541, Control_c, 0, 64, 96
2, 133545, Note_on_c, 0, 71, 0
2, 133546, Note_on_c, 0, 44, 0
2, 133556, Control_c, 0, 64, 113
2, 133572, Control_c, 0, 64, 127
2, 133808, Control_c, 0, 64, 113
2, 133823, Control_c, 0, 64, 102
2, 133825, Note_on_c, 0, 54, 48
2, 133826, Note_on_c, 0, 73, 71
2, 133833, Note_on_c, 0, 45, 45
2, 133838, Control_c, 0, 64, 94
2, 133853, Control_c, 0, 64, 87
2, 133860, Note_on_c, 0, 74, 0
2, 133868, Control_c, 0, 64, 80
2, 133883, Control_c, 0, 64, 76
2, 133899, Control_c, 0, 64, 72
2, 133914, Control_c, 0, 64, 68
2, 133930, Control_c, 0, 64, 64
2, 133944, Control_c, 0, 64, 59
2, 133959, Control_c, 0, 64, 49
2, 133975, Control_c, 0, 64, 35
2, 133989, Control_c, 0, 64, 13
2, 134004, Control_c, 0, 64, 0
2, 134004, Note_on_c, 0, 75, 71
2, 134041, Note_on_c, 0, 73, 0
2, 134162, Note_on_c, 0, 77, 75
2, 134194, Note_on_c, 0, 75, 0
2, 134361, Note_on_c, 0, 49, 55
2, 134363, Note_on_c, 0, 78, 68
2, 134410, Note_on_c, 0, 77, 0
2, 134510, Note_on_c, 0, 54, 0
2, 134531, Note_on_c, 0, 76, 71
2, 134587, Note_on_c, 0, 78, 0
2, 134683, Note_on_c, 0, 74, 71
2, 134707, Note_on_c, 0, 76, 0
2, 134887, Note_on_c, 0, 73, 69
2, 134907, Note_on_c, 0, 54, 56
2, 134924, Note_on_c, 0, 74, 0
2, 135009, Note_on_c, 0, 49, 0
2, 135078, Note_on_c, 0, 71, 69
2, 135128, Note_on_c, 0, 73, 0
2, 135186, Note_on_c, 0, 45, 0
2, 135248, Note_on_c, 0, 69, 61
2, 135264, Note_on_c, 0, 71, 0
2, 135443, Note_on_c, 0, 74, 56
2, 135449, Note_on_c, 0, 47, 42
2, 135547, Note_on_c, 0, 69, 0
2, 135619, Note_on_c, 0, 73, 72
2, 135679, Note_on_c, 0, 74, 0
2, 135787, Note_on_c, 0, 71, 74
2, 135840, Note_on_c, 0, 73, 0
2, 135972, Note_on_c, 0, 69, 70
2, 135983, Note_on_c, 0, 49, 58
2, 135993, Note_on_c, 0, 71, 0
2, 136064, Note_on_c, 0, 47, 0
2, 136146, Note_on_c, 0, 68, 70
2, 136161, Note_on_c, 0, 69, 0
2, 136320, Note_on_c, 0, 54, 0
2, 136323, Note_on_c, 0, 66, 73
2, 136368, Note_on_c, 0, 68, 0
2, 136509, Note_on_c, 0, 68, 66
2, 136512, Note_on_c, 0, 53, 58
2, 136519, Note_on_c, 0, 47, 54
2, 136547, Note_on_c, 0, 66, 0
2, 136569, Note_on_c, 0, 49, 0
2, 136689, Note_on_c, 0, 66, 71
2, 136742, Note_on_c, 0, 68, 0
2, 136860, Note_on_c, 0, 65, 70
2, 136880, Note_on_c, 0, 66, 0
2, 137097, Note_on_c, 0, 46, 40
2, 137112, Note_on_c, 0, 47, 0
2, 137143, Note_on_c, 0, 66, 69
2, 137207, Note_on_c, 0, 65, 0
2, 137294, Note_on_c, 0, 53, 0
2, 137363, Note_on_c, 0, 64, 51
2, 137522, Note_on_c, 0, 62, 59
2, 137555, Note_on_c, 0, 64, 0
2, 137699, Note_on_c, 0, 61, 65
2, 137711, Note_on_c, 0, 54, 59
2, 137728, Note_on_c, 0, 62, 0
2, 137871, Note_on_c, 0, 62, 66
2, 137925, Note_on_c, 0, 61, 0
2, 137955, Note_on_c, 0, 46, 0
2, 138038, Note_on_c, 0, 64, 69
2, 138067, Note_on_c, 0, 62, 0
2, 138231, Note_on_c, 0, 62, 63
2, 138241, Note_on_c, 0, 47, 48
2, 138264, Note_on_c, 0, 64, 0
2, 138378, Note_on_c, 0, 54, 0
2, 138392, Note_on_c, 0, 61, 64
2, 138434, Note_on_c, 0, 62, 0
2, 138558, Note_on_c, 0, 59, 64
2, 138583, Note_on_c, 0, 61, 0
2, 138740, Note_on_c, 0, 58, 64
2, 138746, Note_on_c, 0, 49, 50
2, 138773, Note_on_c, 0, 59, 0
2, 138837, Note_on_c, 0, 47, 0
2, 138899, Note_on_c, 0, 59, 67
2, 138935, Note_on_c, 0, 58, 0
2, 139104, Note_on_c, 0, 61, 68
2, 139128, Note_on_c, 0, 59, 0
2, 139301, Note_on_c, 0, 59, 58
2, 139316, Note_on_c, 0, 50, 55
2, 139354, Note_on_c, 0, 61, 0
2, 139354, Note_on_c, 0, 66, 0
2, 139368, Note_on_c, 0, 49, 0
2, 139583, Note_on_c, 0, 65, 74
2, 139904, Note_on_c, 0, 54, 60
2, 139907, Note_on_c, 0, 47, 50
2, 139908, Note_on_c, 0, 57, 57
2, 139949, Note_on_c, 0, 50, 0
2, 139981, Control_c, 0, 64, 20
2, 139996, Control_c, 0, 64, 39
2, 140011, Control_c, 0, 64, 48
2, 140026, Control_c, 0, 64, 54
2, 140041, Control_c, 0, 64, 58
2, 140057, Control_c, 0, 64, 61
2, 140072, Control_c, 0, 64, 64
2, 140088, Control_c, 0, 64, 67
2, 140102, Control_c, 0, 64, 71
2, 140114, Note_on_c, 0, 47, 0
2, 140117, Control_c, 0, 64, 77
2, 140133, Control_c, 0, 64, 84
2, 140148, Control_c, 0, 64, 96
2, 140163, Control_c, 0, 64, 127
2, 140188, Note_on_c, 0, 66, 81
2, 140205, Note_on_c, 0, 57, 0
2, 140210, Note_on_c, 0, 59, 0
2, 140236, Note_on_c, 0, 65, 0
2, 140299, Note_on_c, 0, 66, 0
2, 140593, Note_on_c, 0, 56, 53
2, 140596, Note_on_c, 0, 53, 52
2, 140598, Note_on_c, 0, 49, 50
2, 140599, Note_on_c, 0, 74, 77
2, 140623, Note_on_c, 0, 54, 0
2, 140627, Control_c, 0, 64, 99
2, 140642, Control_c, 0, 64, 86
2, 140658, Control_c, 0, 64, 74
2, 140673, Control_c, 0, 64, 63
2, 140688, Control_c, 0, 64, 20
2, 140704, Control_c, 0, 64, 0
2, 140901, Control_c, 0, 64, 34
2, 140916, Control_c, 0, 64, 49
2, 140932, Control_c, 0, 64, 56
2, 140947, Control_c, 0, 64, 62
2, 140961, Note_on_c, 0, 72, 74
2, 140962, Control_c, 0, 64, 64
2, 140977, Control_c, 0, 64, 68
2, 140992, Control_c, 0, 64, 74
2, 140998, Note_on_c, 0, 74, 0
2, 141008, Control_c, 0, 64, 82
2, 141023, Control_c, 0, 64, 93
2, 141029, Note_on_c, 0, 56, 0
2, 141038, Control_c, 0, 64, 113
2, 141053, Control_c, 0, 64, 127
2, 141218, Note_on_c, 0, 53, 0
2, 141232, Note_on_c, 0, 57, 52
2, 141235, Control_c, 0, 64, 118
2, 141237, Note_on_c, 0, 54, 57
2, 141251, Control_c, 0, 64, 87
2, 141273, Control_c, 0, 64, 73
2, 141289, Control_c, 0, 64, 61
2, 141304, Control_c, 0, 64, 0
2, 141456, Control_c, 0, 64, 34
2, 141470, Control_c, 0, 64, 51
2, 141485, Control_c, 0, 64, 58
2, 141501, Control_c, 0, 64, 62
2, 141505, Note_on_c, 0, 73, 71
2, 141517, Control_c, 0, 64, 65
2, 141533, Control_c, 0, 64, 70
2, 141547, Control_c, 0, 64, 76
2, 141547, Note_on_c, 0, 72, 0
2, 141562, Control_c, 0, 64, 84
2, 141571, Note_on_c, 0, 57, 0
2, 141578, Control_c, 0, 64, 98
2, 141578, Note_on_c, 0, 54, 0
2, 141593, Control_c, 0, 64, 127
2, 141805, Control_c, 0, 64, 120
2, 141818, Note_on_c, 0, 65, 62
2, 141821, Control_c, 0, 64, 92
2, 141833, Note_on_c, 0, 59, 45
2, 141834, Note_on_c, 0, 56, 46
2, 141836, Control_c, 0, 64, 76
2, 141848, Control_c, 0, 64, 64
2, 141864, Control_c, 0, 64, 39
2, 141879, Control_c, 0, 64, 0
2, 141883, Note_on_c, 0, 73, 0
2, 142001, Control_c, 0, 64, 37
2, 142017, Control_c, 0, 64, 48
2, 142038, Control_c, 0, 64, 55
2, 142054, Control_c, 0, 64, 60
2, 142069, Control_c, 0, 64, 63
2, 142084, Control_c, 0, 64, 65
2, 142100, Control_c, 0, 64, 69
2, 142106, Note_on_c, 0, 71, 68
2, 142107, Note_on_c, 0, 56, 0
2, 142115, Control_c, 0, 64, 74
2, 142130, Control_c, 0, 64, 79
2, 142146, Control_c, 0, 64, 84
2, 142160, Control_c, 0, 64, 89
2, 142176, Control_c, 0, 64, 94
2, 142191, Control_c, 0, 64, 96
2, 142206, Control_c, 0, 64, 96
2, 142327, Control_c, 0, 64, 94
2, 142344, Control_c, 0, 64, 92
2, 142359, Control_c, 0, 64, 88
2, 142375, Control_c, 0, 64, 84
2, 142389, Control_c, 0, 64, 81
2, 142390, Note_on_c, 0, 50, 43
2, 142390, Note_on_c, 0, 54, 53
2, 142404, Control_c, 0, 64, 77
2, 142420, Control_c, 0, 64, 72
2, 142435, Control_c, 0, 64, 66
2, 142435, Note_on_c, 0, 49, 0
2, 142450, Control_c, 0, 64, 59
2, 142465, Control_c, 0, 64, 21
2, 142480, Control_c, 0, 64, 0
2, 142530, Note_on_c, 0, 59, 0
2, 142652, Note_on_c, 0, 69, 58
2, 142662, Control_c, 0, 64, 25
2, 142677, Control_c, 0, 64, 44
2, 142692, Control_c, 0, 64, 53
2, 142705, Note_on_c, 0, 71, 0
2, 142708, Control_c, 0, 64, 59
2, 142723, Control_c, 0, 64, 62
2, 142739, Control_c, 0, 64, 64
2, 142754, Control_c, 0, 64, 66
2, 142769, Control_c, 0, 64, 69
2, 142785, Control_c, 0, 64, 72
2, 142806, Control_c, 0, 64, 75
2, 142822, Control_c, 0, 64, 76
2, 142928, Control_c, 0, 64, 76
2, 142928, Note_on_c, 0, 68, 62
2, 142931, Note_on_c, 0, 47, 43
2, 142944, Control_c, 0, 64, 75
2, 142959, Control_c, 0, 64, 73
2, 142962, Note_on_c, 0, 69, 0
2, 142974, Control_c, 0, 64, 71
2, 142983, Note_on_c, 0, 50, 0
2, 142989, Control_c, 0, 64, 68
2, 143004, Control_c, 0, 64, 65
2, 143020, Control_c, 0, 64, 63
2, 143035, Control_c, 0, 64, 61
2, 143050, Control_c, 0, 64, 57
2, 143066, Control_c, 0, 64, 51
2, 143080, Control_c, 0, 64, 41
2, 143096, Control_c, 0, 64, 24
2, 143108, Note_on_c, 0, 71, 71
2, 143111, Control_c, 0, 64, 0
2, 143145, Note_on_c, 0, 68, 0
2, 143245, Note_on_c, 0, 65, 0
2, 143283, Note_on_c, 0, 69, 67
2, 143375, Note_on_c, 0, 71, 0
2, 143449, Note_on_c, 0, 68, 67
2, 143450, Note_on_c, 0, 53, 53
2, 143468, Note_on_c, 0, 49, 59
2, 143478, Note_on_c, 0, 54, 0
2, 143485, Note_on_c, 0, 69, 0
2, 143589, Note_on_c, 0, 47, 0
2, 143631, Note_on_c, 0, 66, 67
2, 143667, Control_c, 0, 64, 30
2, 143682, Control_c, 0, 64, 48
2, 143686, Note_on_c, 0, 68, 0
2, 143698, Control_c, 0, 64, 57
2, 143713, Control_c, 0, 64, 61
2, 143727, Control_c, 0, 64, 64
2, 143743, Control_c, 0, 64, 68
2, 143758, Control_c, 0, 64, 73
2, 143774, Control_c, 0, 64, 81
2, 143789, Control_c, 0, 64, 89
2, 143795, Note_on_c, 0, 49, 0
2, 143803, Control_c, 0, 64, 101
2, 143809, Note_on_c, 0, 65, 71
2, 143819, Control_c, 0, 64, 122
2, 143834, Control_c, 0, 64, 127
2, 143836, Note_on_c, 0, 66, 0
2, 144002, Control_c, 0, 64, 118
2, 144014, Note_on_c, 0, 49, 63
2, 144014, Note_on_c, 0, 66, 74
2, 144018, Control_c, 0, 64, 103
2, 144032, Control_c, 0, 64, 92
2, 144047, Control_c, 0, 64, 79
2, 144062, Note_on_c, 0, 45, 25
2, 144063, Control_c, 0, 64, 67
2, 144063, Note_on_c, 0, 65, 0
2, 144078, Control_c, 0, 64, 43
2, 144092, Control_c, 0, 64, 0
2, 144185, Control_c, 0, 64, 37
2, 144188, Note_on_c, 0, 45, 0
2, 144199, Note_on_c, 0, 53, 0
2, 144200, Control_c, 0, 64, 54
2, 144204, Note_on_c, 0, 68, 73
2, 144216, Control_c, 0, 64, 62
2, 144230, Control_c, 0, 64, 65
2, 144245, Control_c, 0, 64, 69
2, 144246, Note_on_c, 0, 66, 0
2, 144261, Control_c, 0, 64, 75
2, 144275, Control_c, 0, 64, 84
2, 144290, Control_c, 0, 64, 94
2, 144306, Control_c, 0, 64, 107
2, 144321, Control_c, 0, 64, 127
2, 144344, Note_on_c, 0, 49, 0
2, 144370, Note_on_c, 0, 68, 0
2, 144381, Note_on_c, 0, 69, 78
2, 144555, Note_on_c, 0, 44, 62
2, 144555, Note_on_c, 0, 71, 81
2, 144557, Control_c, 0, 64, 98
2, 144571, Control_c, 0, 64, 74
2, 144587, Control_c, 0, 64, 56
2, 144597, Note_on_c, 0, 69, 0
2, 144602, Control_c, 0, 64, 0
2, 144692, Control_c, 0, 64, 43
2, 144708, Control_c, 0, 64, 55
2, 144723, Control_c, 0, 64, 61
2, 144730, Note_on_c, 0, 73, 79
2, 144739, Control_c, 0, 64, 65
2, 144754, Control_c, 0, 64, 69
2, 144759, Note_on_c, 0, 71, 0
2, 144768, Control_c, 0, 64, 75
2, 144784, Control_c, 0, 64, 83
2, 144800, Control_c, 0, 64, 93
2, 144815, Control_c, 0, 64, 110
2, 144830, Control_c, 0, 64, 127
2, 144901, Note_on_c, 0, 44, 0
2, 144906, Note_on_c, 0, 74, 76
2, 144925, Note_on_c, 0, 73, 0
2, 144951, Note_on_c, 0, 74, 0
2, 145123, Note_on_c, 0, 45, 52
2, 145172, Control_c, 0, 64, 105
2, 145188, Control_c, 0, 64, 92
2, 145202, Control_c, 0, 64, 81
2, 145202, Note_on_c, 0, 61, 77
2, 145218, Control_c, 0, 64, 69
2, 145233, Control_c, 0, 64, 58
2, 145247, Control_c, 0, 64, 0
2, 145399, Note_on_c, 0, 54, 60
2, 145445, Control_c, 0, 64, 30
2, 145460, Control_c, 0, 64, 50
2, 145475, Control_c, 0, 64, 58
2, 145490, Control_c, 0, 64, 62
2, 145506, Control_c, 0, 64, 64
2, 145521, Control_c, 0, 64, 67
2, 145536, Control_c, 0, 64, 71
2, 145551, Control_c, 0, 64, 76
2, 145566, Control_c, 0, 64, 82
2, 145572, Note_on_c, 0, 52, 64
2, 145582, Control_c, 0, 64, 89
2, 145597, Control_c, 0, 64, 97
2, 145614, Control_c, 0, 64, 105
2, 145629, Control_c, 0, 64, 111
2, 145674, Note_on_c, 0, 54, 0
2, 145735, Control_c, 0, 64, 111
2, 145735, Note_on_c, 0, 45, 0
2, 145750, Control_c, 0, 64, 106
2, 145765, Control_c, 0, 64, 101
2, 145781, Control_c, 0, 64, 95
2, 145796, Control_c, 0, 64, 89
2, 145807, Note_on_c, 0, 66, 73
2, 145811, Control_c, 0, 64, 82
2, 145812, Note_on_c, 0, 50, 59
2, 145821, Note_on_c, 0, 56, 52
2, 145827, Control_c, 0, 64, 75
2, 145841, Control_c, 0, 64, 69
2, 145857, Control_c, 0, 64, 63
2, 145859, Note_on_c, 0, 52, 0
2, 145879, Control_c, 0, 64, 50
2, 145888, Note_on_c, 0, 61, 0
2, 145895, Control_c, 0, 64, 0
2, 146042, Note_on_c, 0, 49, 60
2, 146065, Note_on_c, 0, 50, 0
2, 146092, Control_c, 0, 64, 30
2, 146107, Control_c, 0, 64, 47
2, 146122, Control_c, 0, 64, 56
2, 146138, Control_c, 0, 64, 60
2, 146153, Control_c, 0, 64, 62
2, 146168, Control_c, 0, 64, 65
2, 146183, Control_c, 0, 64, 67
2, 146198, Control_c, 0, 64, 71
2, 146214, Control_c, 0, 64, 76
2, 146229, Control_c, 0, 64, 83
2, 146244, Control_c, 0, 64, 89
2, 146245, Note_on_c, 0, 47, 56
2, 146249, Note_on_c, 0, 49, 0
2, 146259, Control_c, 0, 64, 96
2, 146274, Control_c, 0, 64, 102
2, 146289, Control_c, 0, 64, 104
2, 146298, Note_on_c, 0, 56, 0
2, 146304, Control_c, 0, 64, 104
2, 146319, Control_c, 0, 64, 105
2, 146443, Control_c, 0, 64, 104
2, 146459, Control_c, 0, 64, 100
2, 146474, Control_c, 0, 64, 96
2, 146488, Control_c, 0, 64, 93
2, 146504, Control_c, 0, 64, 88
2, 146519, Control_c, 0, 64, 83
2, 146535, Control_c, 0, 64, 77
2, 146550, Control_c, 0, 64, 71
2, 146557, Note_on_c, 0, 49, 59
2, 146560, Note_on_c, 0, 57, 56
2, 146564, Control_c, 0, 64, 65
2, 146580, Control_c, 0, 64, 59
2, 146595, Control_c, 0, 64, 41
2, 146609, Control_c, 0, 64, 0
2, 146610, Note_on_c, 0, 47, 0
2, 146704, Note_on_c, 0, 66, 0
2, 146997, Note_on_c, 0, 66, 67
2, 147089, Control_c, 0, 64, 33
2, 147104, Control_c, 0, 64, 45
2, 147119, Control_c, 0, 64, 52
2, 147135, Control_c, 0, 64, 57
2, 147149, Control_c, 0, 64, 60
2, 147164, Control_c, 0, 64, 63
2, 147180, Control_c, 0, 64, 65
2, 147195, Control_c, 0, 64, 67
2, 147210, Control_c, 0, 64, 70
2, 147225, Control_c, 0, 64, 73
2, 147240, Control_c, 0, 64, 75
2, 147257, Control_c, 0, 64, 76
2, 147272, Control_c, 0, 64, 77
2, 147300, Note_on_c, 0, 57, 0
2, 147417, Control_c, 0, 64, 76
2, 147432, Control_c, 0, 64, 75
2, 147447, Control_c, 0, 64, 73
2, 147462, Control_c, 0, 64, 72
2, 147477, Control_c, 0, 64, 70
2, 147480, Note_on_c, 0, 37, 52
2, 147492, Control_c, 0, 64, 68
2, 147505, Note_on_c, 0, 59, 50
2, 147508, Control_c, 0, 64, 65
2, 147523, Control_c, 0, 64, 62
2, 147538, Control_c, 0, 64, 54
2, 147553, Control_c, 0, 64, 35
2, 147568, Control_c, 0, 64, 0
2, 148126, Note_on_c, 0, 65, 61
2, 148266, Note_on_c, 0, 66, 0
2, 149088, Note_on_c, 0, 58, 48
2, 149101, Note_on_c, 0, 42, 43
2, 149101, Note_on_c, 0, 66, 51
2, 149141, Note_on_c, 0, 59, 0
2, 149156, Note_on_c, 0, 37, 0
2, 149197, Note_on_c, 0, 65, 0
2, 151728, Note_on_c, 0, 49, 0
2, 151779, Note_on_c, 0, 58, 0
2, 151788, Note_on_c, 0, 42, 0
2, 151882, Note_on_c, 0, 66, 0
2, 153852, Note_on_c, 0, 61, 49
2, 153963, Note_on_c, 0, 61, 0
2, 154140, Note_on_c, 0, 57, 53
2, 154273, Note_on_c, 0, 57, 0
2, 154413, Note_on_c, 0, 54, 66
2, 154522, Note_on_c, 0, 54, 0
2, 154705, Note_on_c, 0, 62, 65
2, 155577, Note_on_c, 0, 61, 53
2, 155586, Note_on_c, 0, 62, 0
2, 155702, Note_on_c, 0, 61, 0
2, 155711, Note_on_c, 0, 59, 55
2, 155881, Note_on_c, 0, 61, 57
2, 155916, Note_on_c, 0, 59, 0
2, 156491, Note_on_c, 0, 61, 0
2, 156742, Note_on_c, 0, 66, 70
2, 156873, Note_on_c, 0, 66, 0
2, 157051, Note_on_c, 0, 59, 72
2, 157889, Note_on_c, 0, 57, 54
2, 157907, Note_on_c, 0, 59, 0
2, 158009, Note_on_c, 0, 56, 61
2, 158015, Note_on_c, 0, 57, 0
2, 158165, Note_on_c, 0, 57, 64
2, 158166, Note_on_c, 0, 56, 0
2, 158292, Note_on_c, 0, 57, 0
2, 158432, Note_on_c, 0, 54, 58
2, 158547, Note_on_c, 0, 54, 0
2, 158685, Note_on_c, 0, 56, 60
2, 158791, Note_on_c, 0, 56, 0
2, 158825, Note_on_c, 0, 57, 52
2, 158869, Note_on_c, 0, 57, 0
2, 158893, Note_on_c, 0, 56, 58
2, 158941, Note_on_c, 0, 56, 0
2, 158968, Note_on_c, 0, 57, 65
2, 159004, Note_on_c, 0, 57, 0
2, 159022, Note_on_c, 0, 56, 65
2, 159067, Note_on_c, 0, 56, 0
2, 159088, Note_on_c, 0, 57, 66
2, 159128, Note_on_c, 0, 57, 0
2, 159152, Note_on_c, 0, 56, 52
2, 159193, Note_on_c, 0, 56, 0
2, 159219, Note_on_c, 0, 57, 65
2, 159257, Note_on_c, 0, 57, 0
2, 159279, Note_on_c, 0, 56, 64
2, 159333, Note_on_c, 0, 56, 0
2, 159354, Note_on_c, 0, 57, 61
2, 159395, Note_on_c, 0, 57, 0
2, 159413, Note_on_c, 0, 56, 62
2, 159457, Note_on_c, 0, 56, 0
2, 159485, Note_on_c, 0, 57, 67
2, 159522, Note_on_c, 0, 57, 0
2, 159536, Note_on_c, 0, 56, 65
2, 159582, Note_on_c, 0, 56, 0
2, 159597, Note_on_c, 0, 54, 63
2, 159673, Note_on_c, 0, 54, 0
2, 159692, Note_on_c, 0, 56, 66
2, 159772, Note_on_c, 0, 54, 67
2, 159772, Note_on_c, 0, 56, 0
2, 159936, Note_on_c, 0, 54, 0
2, 160051, Note_on_c, 0, 56, 58
2, 160197, Note_on_c, 0, 56, 0
2, 160338, Note_on_c, 0, 57, 54
2, 160499, Note_on_c, 0, 57, 0
2, 160613, Note_on_c, 0, 66, 67
2, 160633, Note_on_c, 0, 59, 42
2, 160746, Note_on_c, 0, 59, 0
2, 160789, Note_on_c, 0, 66, 0
2, 160891, Note_on_c, 0, 64, 71
2, 160897, Note_on_c, 0, 61, 48
2, 161046, Note_on_c, 0, 61, 0
2, 161083, Note_on_c, 0, 64, 0
2, 161172, Note_on_c, 0, 61, 65
2, 161342, Note_on_c, 0, 61, 0
2, 161456, Note_on_c, 0, 69, 71
2, 161723, Note_on_c, 0, 63, 53
2, 161868, Note_on_c, 0, 63, 0
2, 162026, Note_on_c, 0, 64, 60
2, 162283, Note_on_c, 0, 68, 58
2, 162310, Note_on_c, 0, 69, 0
2, 162416, Note_on_c, 0, 66, 63
2, 162434, Note_on_c, 0, 68, 0
2, 162565, Note_on_c, 0, 68, 63
2, 162607, Note_on_c, 0, 66, 0
2, 162634, Note_on_c, 0, 64, 0
2, 162865, Note_on_c, 0, 64, 64
2, 162965, Note_on_c, 0, 64, 0
2, 163144, Note_on_c, 0, 58, 64
2, 163271, Note_on_c, 0, 68, 0
2, 163406, Note_on_c, 0, 73, 73
2, 163550, Note_on_c, 0, 73, 0
2, 163697, Note_on_c, 0, 66, 72
2, 163828, Note_on_c, 0, 58, 0
2, 163981, Note_on_c, 0, 60, 61
2, 164133, Note_on_c, 0, 60, 0
2, 164264, Note_on_c, 0, 61, 61
2, 164525, Note_on_c, 0, 66, 0
2, 164547, Note_on_c, 0, 64, 56
2, 164663, Note_on_c, 0, 63, 64
2, 164669, Note_on_c, 0, 64, 0
2, 164796, Note_on_c, 0, 61, 0
2, 164821, Note_on_c, 0, 64, 67
2, 164848, Note_on_c, 0, 63, 0
2, 164993, Note_on_c, 0, 64, 0
2, 165081, Note_on_c, 0, 61, 62
2, 165339, Note_on_c, 0, 63, 54
2, 165415, Note_on_c, 0, 63, 0
2, 165439, Note_on_c, 0, 64, 55
2, 165492, Note_on_c, 0, 64, 0
2, 165514, Note_on_c, 0, 63, 52
2, 165547, Note_on_c, 0, 60, 62
2, 165551, Note_on_c, 0, 63, 0
2, 165563, Note_on_c, 0, 61, 0
2, 165579, Note_on_c, 0, 64, 49
2, 165613, Note_on_c, 0, 64, 0
2, 165635, Note_on_c, 0, 63, 61
2, 165667, Note_on_c, 0, 63, 0
2, 165678, Note_on_c, 0, 58, 64
2, 165696, Note_on_c, 0, 64, 62
2, 165697, Note_on_c, 0, 60, 0
2, 165726, Note_on_c, 0, 64, 0
2, 165745, Note_on_c, 0, 63, 68
2, 165776, Note_on_c, 0, 63, 0
2, 165799, Note_on_c, 0, 64, 71
2, 165819, Note_on_c, 0, 60, 75
2, 165842, Note_on_c, 0, 64, 0
2, 165855, Note_on_c, 0, 58, 0
2, 165857, Note_on_c, 0, 63, 73
2, 165891, Note_on_c, 0, 63, 0
2, 165906, Note_on_c, 0, 64, 63
2, 165909, Note_on_c, 0, 60, 0
2, 165944, Note_on_c, 0, 64, 0
2, 165956, Note_on_c, 0, 63, 61
2, 165987, Note_on_c, 0, 63, 0
2, 165987, Note_on_c, 0, 64, 65
2, 166053, Note_on_c, 0, 63, 72
2, 166057, Note_on_c, 0, 56, 58
2, 166065, Note_on_c, 0, 64, 0
2, 166113, Note_on_c, 0, 63, 0
2, 166118, Note_on_c, 0, 56, 0
2, 166126, Note_on_c, 0, 61, 70
2, 166190, Note_on_c, 0, 63, 65
2, 166209, Note_on_c, 0, 61, 0
2, 166327, Note_on_c, 0, 64, 69
2, 166329, Note_on_c, 0, 61, 70
2, 166369, Note_on_c, 0, 63, 0
2, 166508, Note_on_c, 0, 61, 0
2, 166609, Note_on_c, 0, 73, 76
2, 166816, Note_on_c, 0, 73, 0
2, 166899, Note_on_c, 0, 66, 60
2, 167027, Note_on_c, 0, 64, 0
2, 167169, Note_on_c, 0, 57, 47
2, 167323, Note_on_c, 0, 57, 0
2, 167468, Note_on_c, 0, 62, 60
2, 167590, Note_on_c, 0, 66, 0
2, 167736, Note_on_c, 0, 71, 69
2, 167904, Note_on_c, 0, 71, 0
2, 168016, Note_on_c, 0, 64, 61
2, 168125, Note_on_c, 0, 62, 0
2, 168293, Note_on_c, 0, 56, 54
2, 168427, Note_on_c, 0, 56, 0
2, 168577, Note_on_c, 0, 61, 65
2, 168766, Note_on_c, 0, 64, 0
2, 168848, Note_on_c, 0, 69, 65
2, 168976, Note_on_c, 0, 61, 0
2, 169149, Note_on_c, 0, 59, 58
2, 169252, Note_on_c, 0, 69, 0
2, 169420, Note_on_c, 0, 68, 63
2, 169511, Note_on_c, 0, 59, 0
2, 169724, Note_on_c, 0, 57, 58
2, 169852, Note_on_c, 0, 68, 0
2, 169999, Note_on_c, 0, 66, 73
2, 170049, Note_on_c, 0, 57, 0
2, 170269, Note_on_c, 0, 56, 68
2, 170378, Note_on_c, 0, 66, 0
2, 170542, Note_on_c, 0, 49, 66
2, 170549, Note_on_c, 0, 65, 61
2, 170639, Note_on_c, 0, 56, 0
2, 170696, Note_on_c, 0, 65, 0
2, 170702, Note_on_c, 0, 49, 0
2, 170830, Note_on_c, 0, 66, 69
2, 170832, Note_on_c, 0, 45, 66
2, 170833, Note_on_c, 0, 54, 71
2, 170973, Note_on_c, 0, 45, 0
2, 171104, Note_on_c, 0, 42, 73
2, 171238, Note_on_c, 0, 42, 0
2, 171395, Note_on_c, 0, 50, 73
2, 171461, Note_on_c, 0, 66, 0
2, 171497, Note_on_c, 0, 54, 0
2, 171666, Note_on_c, 0, 71, 71
2, 171820, Note_on_c, 0, 71, 0
2, 171948, Note_on_c, 0, 68, 65
2, 172101, Note_on_c, 0, 68, 0
2, 172207, Note_on_c, 0, 50, 0
2, 172222, Note_on_c, 0, 49, 51
2, 172223, Note_on_c, 0, 64, 57
2, 172334, Note_on_c, 0, 49, 0
2, 172348, Note_on_c, 0, 47, 53
2, 172498, Note_on_c, 0, 52, 56
2, 172501, Note_on_c, 0, 49, 59
2, 172501, Note_on_c, 0, 64, 0
2, 172543, Note_on_c, 0, 47, 0
2, 172781, Note_on_c, 0, 69, 67
2, 172805, Note_on_c, 0, 52, 0
2, 172946, Note_on_c, 0, 69, 0
2, 173067, Note_on_c, 0, 57, 67
2, 173080, Note_on_c, 0, 66, 60
2, 173161, Note_on_c, 0, 49, 0
2, 173213, Note_on_c, 0, 66, 0
2, 173333, Note_on_c, 0, 54, 70
2, 173333, Note_on_c, 0, 63, 65
2, 173475, Note_on_c, 0, 54, 0
2, 173498, Note_on_c, 0, 63, 0
2, 173622, Note_on_c, 0, 47, 66
2, 173631, Note_on_c, 0, 62, 62
2, 173703, Note_on_c, 0, 57, 0
2, 173783, Note_on_c, 0, 62, 0
2, 173902, Note_on_c, 0, 68, 69
2, 173904, Note_on_c, 0, 59, 56
2, 173996, Note_on_c, 0, 59, 0
2, 174060, Note_on_c, 0, 68, 0
2, 174163, Note_on_c, 0, 65, 72
2, 174167, Note_on_c, 0, 56, 69
2, 174351, Note_on_c, 0, 65, 0
2, 174428, Note_on_c, 0, 45, 59
2, 174440, Note_on_c, 0, 61, 62
2, 174457, Note_on_c, 0, 47, 0
2, 174544, Note_on_c, 0, 61, 0
2, 174555, Note_on_c, 0, 44, 63
2, 174557, Note_on_c, 0, 45, 0
2, 174708, Note_on_c, 0, 66, 74
2, 174715, Note_on_c, 0, 62, 6
2, 174717, Note_on_c, 0, 45, 55
2, 174733, Note_on_c, 0, 44, 0
2, 174751, Note_on_c, 0, 62, 0
2, 174810, Note_on_c, 0, 56, 0
2, 174843, Note_on_c, 0, 45, 0
2, 174974, Note_on_c, 0, 57, 58
2, 174991, Note_on_c, 0, 42, 50
2, 175129, Note_on_c, 0, 42, 0
2, 175154, Note_on_c, 0, 57, 0
2, 175250, Note_on_c, 0, 59, 58
2, 175253, Note_on_c, 0, 44, 48
2, 175326, Note_on_c, 0, 44, 0
2, 175358, Note_on_c, 0, 45, 51
2, 175407, Note_on_c, 0, 45, 0
2, 175430, Note_on_c, 0, 59, 0
2, 175437, Note_on_c, 0, 44, 57
2, 175474, Note_on_c, 0, 44, 0
2, 175508, Note_on_c, 0, 45, 60
2, 175517, Note_on_c, 0, 62, 64
2, 175550, Note_on_c, 0, 45, 0
2, 175560, Note_on_c, 0, 44, 64
2, 175610, Note_on_c, 0, 44, 0
2, 175621, Note_on_c, 0, 62, 0
2, 175636, Note_on_c, 0, 45, 67
2, 175689, Note_on_c, 0, 45, 0
2, 175716, Note_on_c, 0, 44, 58
2, 175761, Note_on_c, 0, 44, 0
2, 175789, Note_on_c, 0, 65, 75
2, 175797, Note_on_c, 0, 45, 61
2, 175848, Note_on_c, 0, 66, 0
2, 175854, Note_on_c, 0, 45, 0
2, 175870, Note_on_c, 0, 44, 63
2, 175936, Note_on_c, 0, 44, 0
2, 175960, Note_on_c, 0, 45, 61
2, 176025, Note_on_c, 0, 45, 0
2, 176037, Note_on_c, 0, 56, 61
2, 176047, Note_on_c, 0, 44, 64
2, 176087, Note_on_c, 0, 44, 0
2, 176103, Note_on_c, 0, 42, 62
2, 176116, Note_on_c, 0, 65, 0
2, 176177, Note_on_c, 0, 56, 0
2, 176187, Note_on_c, 0, 42, 0
2, 176196, Note_on_c, 0, 44, 62
2, 176315, Note_on_c, 0, 66, 63
2, 176323, Note_on_c, 0, 57, 48
2, 176324, Note_on_c, 0, 42, 58
2, 176327, Note_on_c, 0, 44, 0
2, 176452, Note_on_c, 0, 66, 0
2, 176478, Note_on_c, 0, 57, 0
2, 176591, Note_on_c, 0, 69, 70
2, 176596, Note_on_c, 0, 61, 56
2, 176647, Note_on_c, 0, 42, 0
2, 176675, Note_on_c, 0, 61, 0
2, 176772, Note_on_c, 0, 69, 0
2, 176878, Note_on_c, 0, 71, 71
2, 176884, Note_on_c, 0, 50, 49
2, 177024, Note_on_c, 0, 71, 0
2, 177141, Note_on_c, 0, 54, 56
2, 177143, Note_on_c, 0, 74, 63
2, 177274, Note_on_c, 0, 54, 0
2, 177324, Note_on_c, 0, 74, 0
2, 177441, Note_on_c, 0, 56, 63
2, 177576, Note_on_c, 0, 56, 0
2, 177688, Note_on_c, 0, 68, 62
2, 177709, Note_on_c, 0, 59, 56
2, 177808, Note_on_c, 0, 50, 0
2, 177834, Note_on_c, 0, 59, 0
2, 177877, Note_on_c, 0, 68, 0
2, 177978, Note_on_c, 0, 69, 67
2, 177981, Note_on_c, 0, 49, 60
2, 178157, Note_on_c, 0, 69, 0
2, 178257, Note_on_c, 0, 73, 69
2, 178260, Note_on_c, 0, 57, 56
2, 178370, Note_on_c, 0, 49, 0
2, 178431, Note_on_c, 0, 57, 0
2, 178451, Note_on_c, 0, 73, 0
2, 178545, Note_on_c, 0, 62, 66
2, 178547, Note_on_c, 0, 47, 54
2, 178821, Note_on_c, 0, 66, 63
2, 178947, Note_on_c, 0, 68, 63
2, 178966, Note_on_c, 0, 66, 0
2, 179050, Note_on_c, 0, 68, 0
2, 179080, Note_on_c, 0, 69, 54
2, 179110, Note_on_c, 0, 59, 50
2, 179124, Note_on_c, 0, 69, 0
2, 179157, Note_on_c, 0, 68, 56
2, 179196, Note_on_c, 0, 68, 0
2, 179212, Note_on_c, 0, 69, 70
2, 179249, Note_on_c, 0, 47, 0
2, 179254, Note_on_c, 0, 69, 0
2, 179262, Note_on_c, 0, 68, 68
2, 179311, Note_on_c, 0, 68, 0
2, 179316, Note_on_c, 0, 69, 69
2, 179348, Note_on_c, 0, 52, 51
2, 179374, Note_on_c, 0, 68, 71
2, 179387, Note_on_c, 0, 62, 0
2, 179402, Note_on_c, 0, 69, 0
2, 179434, Note_on_c, 0, 68, 0
2, 179438, Note_on_c, 0, 52, 0
2, 179438, Note_on_c, 0, 66, 77
2, 179492, Note_on_c, 0, 68, 67
2, 179527, Note_on_c, 0, 66, 0
2, 179586, Note_on_c, 0, 64, 64
2, 179587, Note_on_c, 0, 69, 82
2, 179594, Note_on_c, 0, 49, 55
2, 179600, Note_on_c, 0, 68, 0
2, 179646, Note_on_c, 0, 59, 0
2, 179736, Note_on_c, 0, 64, 0
2, 179765, Note_on_c, 0, 49, 0
2, 179862, Note_on_c, 0, 61, 75
2, 179866, Note_on_c, 0, 45, 56
2, 179953, Note_on_c, 0, 45, 0
2, 180010, Note_on_c, 0, 61, 0
2, 180145, Note_on_c, 0, 54, 60
2, 180146, Note_on_c, 0, 63, 77
2, 180151, Note_on_c, 0, 69, 0
2, 180331, Note_on_c, 0, 63, 0
2, 180419, Note_on_c, 0, 75, 65
2, 180430, Note_on_c, 0, 66, 69
2, 180611, Note_on_c, 0, 75, 0
2, 180616, Note_on_c, 0, 66, 0
2, 180690, Note_on_c, 0, 72, 72
2, 180860, Note_on_c, 0, 72, 0
2, 180951, Note_on_c, 0, 60, 70
2, 180978, Note_on_c, 0, 68, 65
2, 181046, Note_on_c, 0, 54, 0
2, 181097, Note_on_c, 0, 60, 0
2, 181116, Note_on_c, 0, 68, 0
2, 181252, Note_on_c, 0, 52, 60
2, 181252, Note_on_c, 0, 61, 70
2, 181398, Note_on_c, 0, 61, 0
2, 181514, Note_on_c, 0, 73, 78
2, 181530, Note_on_c, 0, 64, 64
2, 181631, Note_on_c, 0, 52, 0
2, 181667, Note_on_c, 0, 64, 0
2, 181669, Note_on_c, 0, 73, 0
2, 181822, Note_on_c, 0, 78, 76
2, 181825, Note_on_c, 0, 74, 37
2, 181834, Note_on_c, 0, 51, 51
2, 181867, Note_on_c, 0, 74, 0
2, 182120, Note_on_c, 0, 58, 58
2, 182225, Note_on_c, 0, 78, 0
2, 182264, Note_on_c, 0, 60, 63
2, 182270, Note_on_c, 0, 58, 0
2, 182388, Note_on_c, 0, 60, 0
2, 182394, Note_on_c, 0, 75, 66
2, 182407, Note_on_c, 0, 61, 60
2, 182472, Note_on_c, 0, 61, 0
2, 182480, Note_on_c, 0, 60, 67
2, 182542, Note_on_c, 0, 60, 0
2, 182551, Note_on_c, 0, 61, 74
2, 182621, Note_on_c, 0, 60, 75
2, 182628, Note_on_c, 0, 75, 0
2, 182629, Note_on_c, 0, 61, 0
2, 182643, Note_on_c, 0, 51, 0
2, 182667, Note_on_c, 0, 56, 54
2, 182698, Note_on_c, 0, 60, 0
2, 182722, Note_on_c, 0, 58, 68
2, 182757, Note_on_c, 0, 56, 0
2, 182806, Note_on_c, 0, 60, 79
2, 182827, Note_on_c, 0, 58, 0
2, 182912, Note_on_c, 0, 80, 70
2, 182919, Note_on_c, 0, 61, 68
2, 182930, Note_on_c, 0, 52, 64
2, 182958, Note_on_c, 0, 60, 0
2, 183054, Note_on_c, 0, 52, 0
2, 183099, Note_on_c, 0, 80, 0
2, 183195, Note_on_c, 0, 49, 69
2, 183202, Note_on_c, 0, 76, 69
2, 183346, Note_on_c, 0, 49, 0
2, 183361, Note_on_c, 0, 76, 0
2, 183481, Note_on_c, 0, 57, 65
2, 183499, Note_on_c, 0, 78, 66
2, 183557, Note_on_c, 0, 61, 0
2, 183656, Note_on_c, 0, 78, 0
2, 183777, Note_on_c, 0, 81, 60
2, 183780, Note_on_c, 0, 66, 59
2, 183893, Note_on_c, 0, 66, 0
2, 183924, Note_on_c, 0, 81, 0
2, 184062, Note_on_c, 0, 62, 62
2, 184210, Note_on_c, 0, 62, 0
2, 184343, Note_on_c, 0, 59, 56
2, 184347, Note_on_c, 0, 74, 58
2, 184467, Note_on_c, 0, 59, 0
2, 184471, Note_on_c, 0, 57, 0
2, 184512, Note_on_c, 0, 74, 0
2, 184642, Note_on_c, 0, 76, 60
2, 184646, Note_on_c, 0, 56, 60
2, 184801, Note_on_c, 0, 76, 0
2, 184924, Note_on_c, 0, 80, 61
2, 184939, Note_on_c, 0, 64, 54
2, 185072, Note_on_c, 0, 64, 0
2, 185104, Note_on_c, 0, 80, 0
2, 185214, Note_on_c, 0, 61, 64
2, 185337, Note_on_c, 0, 61, 0
2, 185370, Note_on_c, 0, 56, 0
2, 185492, Note_on_c, 0, 73, 67
2, 185503, Note_on_c, 0, 49, 56
2, 185503, Note_on_c, 0, 57, 52
2, 185626, Note_on_c, 0, 57, 0
2, 185648, Note_on_c, 0, 49, 0
2, 185662, Note_on_c, 0, 73, 0
2, 185773, Note_on_c, 0, 54, 64
2, 185773, Note_on_c, 0, 71, 67
2, 185936, Note_on_c, 0, 71, 0
2, 186053, Note_on_c, 0, 61, 65
2, 186058, Note_on_c, 0, 69, 62
2, 186204, Note_on_c, 0, 69, 0
2, 186210, Note_on_c, 0, 61, 0
2, 186341, Note_on_c, 0, 59, 67
2, 186344, Note_on_c, 0, 68, 66
2, 186494, Note_on_c, 0, 59, 0
2, 186612, Note_on_c, 0, 57, 61
2, 186727, Note_on_c, 0, 54, 0
2, 186745, Note_on_c, 0, 57, 0
2, 186891, Note_on_c, 0, 56, 57
2, 186905, Note_on_c, 0, 53, 43
2, 186960, Note_on_c, 0, 56, 0
2, 186985, Note_on_c, 0, 57, 56
2, 186987, Note_on_c, 0, 68, 0
2, 187034, Note_on_c, 0, 57, 0
2, 187048, Note_on_c, 0, 56, 60
2, 187113, Note_on_c, 0, 56, 0
2, 187122, Note_on_c, 0, 73, 77
2, 187137, Note_on_c, 0, 57, 64
2, 187174, Note_on_c, 0, 57, 0
2, 187182, Note_on_c, 0, 56, 59
2, 187245, Note_on_c, 0, 56, 0
2, 187262, Note_on_c, 0, 57, 68
2, 187323, Note_on_c, 0, 56, 63
2, 187323, Note_on_c, 0, 73, 0
2, 187342, Note_on_c, 0, 57, 0
2, 187410, Note_on_c, 0, 53, 0
2, 187412, Note_on_c, 0, 69, 69
2, 187466, Note_on_c, 0, 54, 60
2, 187479, Note_on_c, 0, 56, 0
2, 187565, Note_on_c, 0, 69, 0
2, 187690, Note_on_c, 0, 66, 72
2, 187703, Note_on_c, 0, 57, 55
2, 187827, Note_on_c, 0, 57, 0
2, 187874, Note_on_c, 0, 66, 0
2, 187974, Note_on_c, 0, 74, 76
2, 187994, Note_on_c, 0, 59, 46
2, 188043, Note_on_c, 0, 54, 0
2, 188143, Note_on_c, 0, 59, 0
2, 188260, Note_on_c, 0, 71, 58
2, 188268, Note_on_c, 0, 62, 50
2, 188382, Note_on_c, 0, 71, 0
2, 188417, Note_on_c, 0, 62, 0
2, 188543, Note_on_c, 0, 64, 54
2, 188549, Note_on_c, 0, 56, 42
2, 188702, Note_on_c, 0, 56, 0
2, 188816, Note_on_c, 0, 73, 64
2, 188836, Note_on_c, 0, 52, 38
2, 188865, Note_on_c, 0, 74, 0
2, 188953, Note_on_c, 0, 71, 67
2, 188974, Note_on_c, 0, 73, 0
2, 189030, Note_on_c, 0, 52, 0
2, 189108, Note_on_c, 0, 73, 75
2, 189125, Note_on_c, 0, 57, 51
2, 189158, Note_on_c, 0, 71, 0
2, 189179, Note_on_c, 0, 64, 0
2, 189271, Note_on_c, 0, 57, 0
2, 189360, Note_on_c, 0, 64, 54
2, 189378, Note_on_c, 0, 61, 58
2, 189488, Note_on_c, 0, 64, 0
2, 189530, Note_on_c, 0, 61, 0
2, 189644, Note_on_c, 0, 69, 67
2, 189656, Note_on_c, 0, 54, 56
2, 189742, Note_on_c, 0, 73, 0
2, 189822, Note_on_c, 0, 54, 0
2, 189911, Note_on_c, 0, 78, 75
2, 189921, Note_on_c, 0, 51, 47
2, 190048, Note_on_c, 0, 78, 0
2, 190097, Note_on_c, 0, 51, 0
2, 190183, Note_on_c, 0, 71, 76
2, 190209, Note_on_c, 0, 56, 55
2, 190249, Note_on_c, 0, 69, 0
2, 190360, Note_on_c, 0, 56, 0
2, 190475, Note_on_c, 0, 68, 51
2, 190501, Note_on_c, 0, 59, 47
2, 190606, Note_on_c, 0, 68, 0
2, 190610, Note_on_c, 0, 66, 64
2, 190625, Note_on_c, 0, 59, 0
2, 190764, Note_on_c, 0, 53, 50
2, 190766, Note_on_c, 0, 68, 64
2, 190805, Note_on_c, 0, 66, 0
2, 190843, Note_on_c, 0, 71, 0
2, 190911, Note_on_c, 0, 68, 0
2, 190934, Note_on_c, 0, 53, 0
2, 191022, Note_on_c, 0, 49, 49
2, 191032, Note_on_c, 0, 69, 65
2, 191035, Note_on_c, 0, 65, 48
2, 191155, Note_on_c, 0, 68, 72
2, 191166, Note_on_c, 0, 49, 0
2, 191200, Note_on_c, 0, 69, 0
2, 191308, Note_on_c, 0, 65, 0
2, 191317, Note_on_c, 0, 54, 57
2, 191319, Note_on_c, 0, 69, 79
2, 191321, Note_on_c, 0, 66, 60
2, 191358, Note_on_c, 0, 68, 0
2, 191404, Note_on_c, 0, 66, 0
2, 191507, Note_on_c, 0, 54, 0
2, 191584, Note_on_c, 0, 66, 71
2, 191588, Note_on_c, 0, 57, 58
2, 191665, Note_on_c, 0, 69, 0
2, 191747, Note_on_c, 0, 57, 0
2, 191853, Note_on_c, 0, 68, 72
2, 191866, Note_on_c, 0, 59, 62
2, 192017, Note_on_c, 0, 59, 0
2, 192112, Note_on_c, 0, 66, 0
2, 192133, Note_on_c, 0, 56, 56
2, 192157, Note_on_c, 0, 64, 52
2, 192271, Note_on_c, 0, 63, 60
2, 192285, Note_on_c, 0, 64, 0
2, 192301, Note_on_c, 0, 56, 0
2, 192423, Note_on_c, 0, 61, 66
2, 192427, Note_on_c, 0, 64, 55
2, 192447, Note_on_c, 0, 63, 0
2, 192592, Note_on_c, 0, 61, 0
2, 192665, Note_on_c, 0, 68, 0
2, 192692, Note_on_c, 0, 59, 57
2, 192888, Note_on_c, 0, 59, 0
2, 192980, Note_on_c, 0, 66, 62
2, 192995, Note_on_c, 0, 58, 54
2, 193057, Note_on_c, 0, 64, 0
2, 193151, Note_on_c, 0, 58, 0
2, 193261, Note_on_c, 0, 62, 46
2, 193272, Note_on_c, 0, 54, 55
2, 193374, Note_on_c, 0, 62, 0
2, 193384, Note_on_c, 0, 61, 57
2, 193416, Note_on_c, 0, 54, 0
2, 193546, Note_on_c, 0, 62, 54
2, 193554, Note_on_c, 0, 59, 57
2, 193558, Note_on_c, 0, 61, 0
2, 193616, Note_on_c, 0, 66, 0
2, 193715, Note_on_c, 0, 59, 0
2, 193809, Note_on_c, 0, 71, 70
2, 193831, Note_on_c, 0, 57, 52
2, 193965, Note_on_c, 0, 71, 0
2, 193976, Note_on_c, 0, 57, 0
2, 194077, Note_on_c, 0, 64, 68
2, 194090, Note_on_c, 0, 56, 60
2, 194249, Note_on_c, 0, 64, 0
2, 194270, Note_on_c, 0, 56, 0
2, 194364, Note_on_c, 0, 68, 66
2, 194368, Note_on_c, 0, 52, 59
2, 194399, Note_on_c, 0, 62, 0
2, 194510, Note_on_c, 0, 52, 0
2, 194522, Note_on_c, 0, 68, 0
2, 194636, Note_on_c, 0, 54, 60
2, 194636, Note_on_c, 0, 61, 72
2, 194644, Note_on_c, 0, 69, 65
2, 194793, Note_on_c, 0, 69, 0
2, 194816, Note_on_c, 0, 54, 0
2, 194907, Note_on_c, 0, 73, 79
2, 194909, Note_on_c, 0, 57, 58
2, 195044, Note_on_c, 0, 73, 0
2, 195081, Note_on_c, 0, 57, 0
2, 195195, Note_on_c, 0, 66, 74
2, 195196, Note_on_c, 0, 50, 62
2, 195308, Note_on_c, 0, 61, 0
2, 195341, Note_on_c, 0, 50, 0
2, 195457, Note_on_c, 0, 47, 61
2, 195464, Note_on_c, 0, 62, 67
2, 195557, Note_on_c, 0, 66, 0
2, 195612, Note_on_c, 0, 47, 0
2, 195626, Note_on_c, 0, 62, 0
2, 195738, Note_on_c, 0, 52, 61
2, 195738, Note_on_c, 0, 68, 73
2, 195746, Note_on_c, 0, 59, 62
2, 195881, Note_on_c, 0, 52, 0
2, 195903, Note_on_c, 0, 59, 0
2, 196011, Note_on_c, 0, 40, 62
2, 196013, Note_on_c, 0, 64, 69
2, 196100, Note_on_c, 0, 68, 0
2, 196143, Note_on_c, 0, 40, 0
2, 196188, Note_on_c, 0, 64, 0
2, 196308, Note_on_c, 0, 45, 63
2, 196312, Note_on_c, 0, 61, 59
2, 196313, Note_on_c, 0, 69, 66
2, 196453, Note_on_c, 0, 45, 0
2, 196589, Note_on_c, 0, 57, 69
2, 196741, Note_on_c, 0, 57, 0
2, 196878, Note_on_c, 0, 56, 74
2, 197020, Note_on_c, 0, 69, 0
2, 197120, Note_on_c, 0, 61, 0
2, 197273, Note_on_c, 0, 54, 70
2, 197332, Note_on_c, 0, 56, 0
2, 197441, Note_on_c, 0, 53, 76
2, 197455, Note_on_c, 0, 54, 0
2, 197586, Note_on_c, 0, 53, 0
2, 197705, Note_on_c, 0, 61, 64
2, 197714, Note_on_c, 0, 49, 59
2, 197850, Note_on_c, 0, 49, 0
2, 197860, Note_on_c, 0, 61, 0
2, 198001, Note_on_c, 0, 59, 71
2, 198012, Note_on_c, 0, 54, 66
2, 198433, Note_on_c, 0, 57, 65
2, 198499, Note_on_c, 0, 59, 0
2, 198591, Note_on_c, 0, 56, 74
2, 198652, Note_on_c, 0, 57, 0
2, 198862, Note_on_c, 0, 74, 74
2, 198933, Note_on_c, 0, 54, 0
2, 198939, Note_on_c, 0, 56, 0
2, 199071, Note_on_c, 0, 74, 0
2, 199138, Note_on_c, 0, 53, 54
2, 199140, Note_on_c, 0, 73, 78
2, 199412, Note_on_c, 0, 61, 59
2, 199420, Note_on_c, 0, 52, 57
2, 199477, Note_on_c, 0, 53, 0
2, 199531, Note_on_c, 0, 71, 78
2, 199561, Note_on_c, 0, 73, 0
2, 199699, Note_on_c, 0, 70, 78
2, 199705, Note_on_c, 0, 54, 56
2, 199710, Note_on_c, 0, 71, 0
2, 199727, Note_on_c, 0, 61, 0
2, 199825, Note_on_c, 0, 70, 0
2, 199928, Note_on_c, 0, 54, 0
2, 199968, Note_on_c, 0, 50, 53
2, 199971, Note_on_c, 0, 52, 0
2, 199977, Note_on_c, 0, 66, 72
2, 200113, Note_on_c, 0, 50, 0
2, 200130, Note_on_c, 0, 66, 0
2, 200238, Note_on_c, 0, 64, 72
2, 200238, Note_on_c, 0, 71, 72
2, 200244, Note_on_c, 0, 49, 58
2, 200407, Note_on_c, 0, 49, 0
2, 200519, Note_on_c, 0, 47, 55
2, 200635, Note_on_c, 0, 62, 70
2, 200653, Note_on_c, 0, 64, 0
2, 200657, Note_on_c, 0, 47, 0
2, 200794, Note_on_c, 0, 52, 55
2, 200803, Note_on_c, 0, 61, 74
2, 200830, Note_on_c, 0, 62, 0
2, 200926, Note_on_c, 0, 71, 0
2, 200945, Note_on_c, 0, 52, 0
2, 200970, Note_on_c, 0, 61, 0
2, 201066, Note_on_c, 0, 67, 76
2, 201072, Note_on_c, 0, 49, 57
2, 201213, Note_on_c, 0, 49, 0
2, 201244, Note_on_c, 0, 67, 0
2, 201356, Note_on_c, 0, 70, 76
2, 201357, Note_on_c, 0, 66, 69
2, 201369, Note_on_c, 0, 54, 62
2, 201517, Note_on_c, 0, 54, 0
2, 201587, Note_on_c, 0, 70, 0
2, 201628, Note_on_c, 0, 42, 56
2, 201643, Note_on_c, 0, 69, 70
2, 201756, Note_on_c, 0, 64, 78
2, 201768, Note_on_c, 0, 42, 0
2, 201772, Note_on_c, 0, 66, 0
2, 201903, Note_on_c, 0, 47, 60
2, 201904, Note_on_c, 0, 63, 76
2, 201921, Note_on_c, 0, 64, 0
2, 202004, Note_on_c, 0, 69, 0
2, 202038, Note_on_c, 0, 63, 0
2, 202167, Note_on_c, 0, 59, 75
2, 202179, Note_on_c, 0, 71, 64
2, 202271, Note_on_c, 0, 71, 0
2, 202316, Note_on_c, 0, 59, 0
2, 202447, Note_on_c, 0, 64, 76
2, 202447, Note_on_c, 0, 69, 68
2, 202511, Note_on_c, 0, 47, 0
2, 202732, Note_on_c, 0, 49, 59
2, 202836, Note_on_c, 0, 68, 67
2, 202878, Note_on_c, 0, 49, 0
2, 202881, Note_on_c, 0, 69, 0
2, 203001, Note_on_c, 0, 45, 57
2, 203003, Note_on_c, 0, 66, 70
2, 203050, Note_on_c, 0, 68, 0
2, 203136, Note_on_c, 0, 45, 0
2, 203261, Note_on_c, 0, 61, 68
2, 203320, Note_on_c, 0, 64, 0
2, 203437, Note_on_c, 0, 61, 0
2, 203551, Note_on_c, 0, 59, 71
2, 203559, Note_on_c, 0, 63, 58
2, 203837, Note_on_c, 0, 62, 58
2, 203881, Note_on_c, 0, 63, 0
2, 203887, Note_on_c, 0, 66, 0
2, 203946, Note_on_c, 0, 57, 65
2, 203994, Note_on_c, 0, 59, 0
2, 204101, Note_on_c, 0, 56, 69
2, 204120, Note_on_c, 0, 64, 60
2, 204139, Note_on_c, 0, 57, 0
2, 204239, Note_on_c, 0, 56, 0
2, 204347, Note_on_c, 0, 62, 0
2, 204383, Note_on_c, 0, 52, 61
2, 204395, Note_on_c, 0, 61, 55
2, 204497, Note_on_c, 0, 52, 0
2, 204501, Note_on_c, 0, 61, 0
2, 204511, Note_on_c, 0, 59, 63
2, 204658, Note_on_c, 0, 61, 61
2, 204666, Note_on_c, 0, 57, 66
2, 204722, Note_on_c, 0, 59, 0
2, 204738, Note_on_c, 0, 64, 0
2, 204795, Note_on_c, 0, 61, 0
2, 204918, Note_on_c, 0, 69, 62
2, 204934, Note_on_c, 0, 66, 61
2, 205069, Note_on_c, 0, 69, 0
2, 205074, Note_on_c, 0, 66, 0
2, 205220, Note_on_c, 0, 71, 67
2, 205224, Note_on_c, 0, 62, 58
2, 205400, Note_on_c, 0, 62, 0
2, 205503, Note_on_c, 0, 59, 56
2, 205617, Note_on_c, 0, 59, 0
2, 205625, Note_on_c, 0, 57, 0
2, 205786, Note_on_c, 0, 64, 65
2, 205790, Note_on_c, 0, 56, 54
2, 205912, Note_on_c, 0, 71, 0
2, 205955, Note_on_c, 0, 56, 0
2, 206049, Note_on_c, 0, 68, 68
2, 206053, Note_on_c, 0, 52, 49
2, 206208, Note_on_c, 0, 52, 0
2, 206208, Note_on_c, 0, 68, 0
2, 206331, Note_on_c, 0, 73, 74
2, 206341, Note_on_c, 0, 57, 65
2, 206412, Note_on_c, 0, 64, 0
2, 206625, Note_on_c, 0, 61, 65
2, 206810, Note_on_c, 0, 61, 0
2, 206909, Note_on_c, 0, 66, 75
2, 206999, Note_on_c, 0, 73, 0
2, 207025, Note_on_c, 0, 57, 0
2, 207162, Note_on_c, 0, 54, 64
2, 207162, Note_on_c, 0, 69, 71
2, 207286, Note_on_c, 0, 69, 0
2, 207315, Note_on_c, 0, 54, 0
2, 207460, Note_on_c, 0, 74, 76
2, 207463, Note_on_c, 0, 59, 70
2, 207560, Note_on_c, 0, 66, 0
2, 207710, Note_on_c, 0, 69, 74
2, 207885, Note_on_c, 0, 69, 0
2, 207994, Note_on_c, 0, 68, 76
2, 208148, Note_on_c, 0, 59, 0
2, 208273, Note_on_c, 0, 56, 66
2, 208368, Note_on_c, 0, 66, 74
2, 208410, Note_on_c, 0, 56, 0
2, 208447, Note_on_c, 0, 68, 0
2, 208450, Note_on_c, 0, 74, 0
2, 208535, Note_on_c, 0, 64, 72
2, 208544, Note_on_c, 0, 61, 70
2, 208588, Note_on_c, 0, 66, 0
2, 208719, Note_on_c, 0, 64, 0
2, 208795, Note_on_c, 0, 74, 74
2, 208801, Note_on_c, 0, 71, 68
2, 208930, Note_on_c, 0, 71, 0
2, 208965, Note_on_c, 0, 74, 0
2, 209078, Note_on_c, 0, 73, 81
2, 209086, Note_on_c, 0, 69, 72
2, 209364, Note_on_c, 0, 68, 61
2, 209390, Note_on_c, 0, 69, 0
2, 209479, Note_on_c, 0, 71, 77
2, 209523, Note_on_c, 0, 68, 0
2, 209578, Note_on_c, 0, 73, 0
2, 209615, Note_on_c, 0, 61, 0
2, 209645, Note_on_c, 0, 69, 77
2, 209653, Note_on_c, 0, 66, 59
2, 209692, Note_on_c, 0, 71, 0
2, 209899, Note_on_c, 0, 61, 68
2, 209901, Note_on_c, 0, 64, 73
2, 209972, Note_on_c, 0, 69, 0
2, 209997, Note_on_c, 0, 64, 0
2, 210031, Note_on_c, 0, 66, 0
2, 210051, Note_on_c, 0, 61, 0
2, 210182, Note_on_c, 0, 78, 82
2, 210183, Note_on_c, 0, 62, 57
2, 210184, Note_on_c, 0, 59, 57
2, 210482, Note_on_c, 0, 61, 65
2, 210526, Note_on_c, 0, 59, 0
2, 210568, Note_on_c, 0, 62, 0
2, 210608, Note_on_c, 0, 57, 60
2, 210747, Note_on_c, 0, 56, 68
2, 210756, Note_on_c, 0, 59, 71
2, 210787, Note_on_c, 0, 61, 0
2, 210795, Note_on_c, 0, 57, 0
2, 210996, Note_on_c, 0, 76, 74
2, 211012, Note_on_c, 0, 78, 0
2, 211200, Note_on_c, 0, 76, 0
2, 211305, Note_on_c, 0, 66, 68
2, 211306, Note_on_c, 0, 58, 74
2, 211314, Note_on_c, 0, 74, 75
2, 211347, Note_on_c, 0, 59, 0
2, 211354, Note_on_c, 0, 56, 0
2, 211723, Note_on_c, 0, 73, 70
2, 211754, Note_on_c, 0, 74, 0
2, 211882, Note_on_c, 0, 74, 63
2, 211892, Note_on_c, 0, 59, 60
2, 211920, Note_on_c, 0, 58, 0
2, 211951, Note_on_c, 0, 73, 0
2, 211981, Note_on_c, 0, 66, 0
2, 212029, Note_on_c, 0, 74, 0
2, 212153, Note_on_c, 0, 71, 70
2, 212175, Note_on_c, 0, 62, 74
2, 212260, Note_on_c, 0, 59, 0
2, 212299, Note_on_c, 0, 71, 0
2, 212305, Note_on_c, 0, 62, 0
2, 212423, Note_on_c, 0, 76, 74
2, 212433, Note_on_c, 0, 61, 72
2, 212443, Note_on_c, 0, 55, 60
2, 212843, Note_on_c, 0, 61, 0
2, 212856, Note_on_c, 0, 59, 65
2, 212991, Note_on_c, 0, 58, 74
2, 212998, Note_on_c, 0, 54, 60
2, 213033, Note_on_c, 0, 59, 0
2, 213033, Note_on_c, 0, 76, 0
2, 213034, Note_on_c, 0, 55, 0
2, 213122, Note_on_c, 0, 54, 0
2, 213160, Note_on_c, 0, 58, 0
2, 213257, Note_on_c, 0, 54, 62
2, 213261, Note_on_c, 0, 78, 73
2, 213420, Note_on_c, 0, 54, 0
2, 213430, Note_on_c, 0, 78, 0
2, 213541, Note_on_c, 0, 59, 54
2, 213548, Note_on_c, 0, 74, 62
2, 213724, Note_on_c, 0, 74, 0
2, 213804, Note_on_c, 0, 55, 55
2, 213814, Note_on_c, 0, 71, 64
2, 213938, Note_on_c, 0, 55, 0
2, 213984, Note_on_c, 0, 71, 0
2, 214104, Note_on_c, 0, 73, 64
2, 214105, Note_on_c, 0, 52, 51
2, 214251, Note_on_c, 0, 52, 0
2, 214367, Note_on_c, 0, 49, 57
2, 214455, Note_on_c, 0, 59, 0
2, 214500, Note_on_c, 0, 49, 0
2, 214653, Note_on_c, 0, 73, 0
2, 214659, Note_on_c, 0, 58, 63
2, 214667, Note_on_c, 0, 54, 60
2, 214924, Note_on_c, 0, 66, 73
2, 214932, Note_on_c, 0, 70, 61
2, 215028, Note_on_c, 0, 70, 0
2, 215121, Note_on_c, 0, 66, 0
2, 215213, Note_on_c, 0, 62, 78
2, 215225, Note_on_c, 0, 71, 62
2, 215296, Note_on_c, 0, 58, 0
2, 215324, Note_on_c, 0, 71, 0
2, 215402, Note_on_c, 0, 62, 0
2, 215500, Note_on_c, 0, 59, 75
2, 215511, Note_on_c, 0, 74, 68
2, 215568, Note_on_c, 0, 54, 0
2, 215614, Note_on_c, 0, 74, 0
2, 215702, Note_on_c, 0, 59, 0
2, 215794, Note_on_c, 0, 67, 78
2, 215804, Note_on_c, 0, 52, 52
2, 215804, Note_on_c, 0, 73, 68
2, 215937, Note_on_c, 0, 52, 0
2, 216092, Note_on_c, 0, 50, 53
2, 216206, Note_on_c, 0, 50, 0
2, 216220, Note_on_c, 0, 71, 64
2, 216255, Note_on_c, 0, 73, 0
2, 216378, Note_on_c, 0, 49, 47
2, 216383, Note_on_c, 0, 69, 59
2, 216451, Note_on_c, 0, 71, 0
2, 216508, Note_on_c, 0, 67, 0
2, 216512, Note_on_c, 0, 49, 0
2, 216649, Note_on_c, 0, 66, 66
2, 216655, Note_on_c, 0, 45, 46
2, 216763, Note_on_c, 0, 64, 70
2, 216805, Note_on_c, 0, 66, 0
2, 216811, Note_on_c, 0, 45, 0
2, 216920, Note_on_c, 0, 50, 54
2, 216926, Note_on_c, 0, 66, 73
2, 216986, Note_on_c, 0, 64, 0
2, 217002, Note_on_c, 0, 69, 0
2, 217091, Note_on_c, 0, 50, 0
2, 217188, Note_on_c, 0, 49, 59
2, 217191, Note_on_c, 0, 74, 63
2, 217310, Note_on_c, 0, 74, 0
2, 217354, Note_on_c, 0, 49, 0
2, 217460, Note_on_c, 0, 47, 65
2, 217476, Note_on_c, 0, 67, 69
2, 217554, Note_on_c, 0, 66, 0
2, 217641, Note_on_c, 0, 47, 0
2, 217726, Note_on_c, 0, 71, 77
2, 217728, Note_on_c, 0, 50, 67
2, 217870, Note_on_c, 0, 50, 0
2, 217877, Note_on_c, 0, 71, 0
2, 218010, Note_on_c, 0, 64, 72
2, 218017, Note_on_c, 0, 49, 71
2, 218089, Note_on_c, 0, 67, 0
2, 218284, Note_on_c, 0, 73, 71
2, 218427, Note_on_c, 0, 47, 65
2, 218435, Note_on_c, 0, 73, 0
2, 218443, Note_on_c, 0, 49, 0
2, 218578, Note_on_c, 0, 66, 71
2, 218583, Note_on_c, 0, 46, 68
2, 218625, Note_on_c, 0, 47, 0
2, 218741, Note_on_c, 0, 46, 0
2, 218810, Note_on_c, 0, 64, 0
2, 218863, Note_on_c, 0, 62, 61
2, 218868, Note_on_c, 0, 42, 63
2, 218980, Note_on_c, 0, 61, 71
2, 219004, Note_on_c, 0, 62, 0
2, 219008, Note_on_c, 0, 42, 0
2, 219134, Note_on_c, 0, 62, 67
2, 219142, Note_on_c, 0, 47, 63
2, 219198, Note_on_c, 0, 61, 0
2, 219309, Note_on_c, 0, 62, 0
2, 219410, Note_on_c, 0, 59, 67
2, 219549, Note_on_c, 0, 59, 0
2, 219684, Note_on_c, 0, 61, 71
2, 219778, Note_on_c, 0, 66, 0
2, 219937, Note_on_c, 0, 65, 55
2, 219959, Note_on_c, 0, 45, 53
2, 219993, Note_on_c, 0, 47, 0
2, 220023, Note_on_c, 0, 65, 0
2, 220068, Note_on_c, 0, 45, 0
2, 220071, Note_on_c, 0, 44, 55
2, 220208, Note_on_c, 0, 66, 64
2, 220209, Note_on_c, 0, 45, 61
2, 220241, Note_on_c, 0, 44, 0
2, 220328, Note_on_c, 0, 66, 0
2, 220518, Note_on_c, 0, 69, 66
2, 220590, Note_on_c, 0, 61, 0
2, 220679, Note_on_c, 0, 69, 0
2, 220756, Note_on_c, 0, 59, 65
2, 220764, Note_on_c, 0, 63, 66
2, 220887, Note_on_c, 0, 63, 0
2, 221016, Note_on_c, 0, 66, 63
2, 221018, Note_on_c, 0, 44, 58
2, 221045, Note_on_c, 0, 45, 0
2, 221096, Note_on_c, 0, 66, 0
2, 221150, Note_on_c, 0, 42, 60
2, 221152, Note_on_c, 0, 44, 0
2, 221294, Note_on_c, 0, 71, 72
2, 221307, Note_on_c, 0, 44, 56
2, 221332, Note_on_c, 0, 42, 0
2, 221371, Note_on_c, 0, 59, 0
2, 221419, Note_on_c, 0, 44, 0
2, 221559, Note_on_c, 0, 68, 56
2, 221561, Note_on_c, 0, 40, 56
2, 221684, Note_on_c, 0, 68, 0
2, 221686, Note_on_c, 0, 40, 0
2, 221831, Note_on_c, 0, 64, 66
2, 221832, Note_on_c, 0, 49, 67
2, 221974, Note_on_c, 0, 49, 0
2, 222098, Note_on_c, 0, 37, 57
2, 222104, Note_on_c, 0, 69, 59
2, 222151, Note_on_c, 0, 71, 0
2, 222203, Note_on_c, 0, 37, 0
2, 222231, Note_on_c, 0, 68, 68
2, 222252, Note_on_c, 0, 69, 0
2, 222375, Note_on_c, 0, 49, 67
2, 222386, Note_on_c, 0, 69, 70
2, 222422, Note_on_c, 0, 68, 0
2, 222490, Note_on_c, 0, 69, 0
2, 222630, Note_on_c, 0, 73, 77
2, 222772, Note_on_c, 0, 64, 0
2, 222817, Note_on_c, 0, 73, 0
2, 222912, Note_on_c, 0, 66, 66
2, 222915, Note_on_c, 0, 62, 70
2, 223015, Note_on_c, 0, 66, 0
2, 223155, Note_on_c, 0, 47, 60
2, 223155, Note_on_c, 0, 69, 65
2, 223196, Note_on_c, 0, 49, 0
2, 223257, Note_on_c, 0, 69, 0
2, 223282, Note_on_c, 0, 45, 65
2, 223298, Note_on_c, 0, 47, 0
2, 223422, Note_on_c, 0, 74, 81
2, 223453, Note_on_c, 0, 47, 63
2, 223476, Note_on_c, 0, 45, 0
2, 223570, Note_on_c, 0, 47, 0
2, 223599, Note_on_c, 0, 62, 0
2, 223696, Note_on_c, 0, 71, 70
2, 223701, Note_on_c, 0, 44, 65
2, 223829, Note_on_c, 0, 71, 0
2, 223851, Note_on_c, 0, 44, 0
2, 223922, Note_on_c, 0, 74, 0
2, 223965, Note_on_c, 0, 41, 61
2, 223966, Note_on_c, 0, 68, 72
2, 224090, Note_on_c, 0, 41, 0
2, 224125, Note_on_c, 0, 68, 0
2, 224228, Note_on_c, 0, 74, 81
2, 224237, Note_on_c, 0, 65, 67
2, 224239, Note_on_c, 0, 56, 67
2, 224382, Note_on_c, 0, 74, 0
2, 224412, Note_on_c, 0, 56, 0
2, 224505, Note_on_c, 0, 69, 23
2, 224513, Note_on_c, 0, 73, 85
2, 224519, Note_on_c, 0, 53, 57
2, 224531, Note_on_c, 0, 69, 0
2, 224679, Note_on_c, 0, 53, 0
2, 224720, Note_on_c, 0, 65, 0
2, 224791, Note_on_c, 0, 68, 64
2, 224797, Note_on_c, 0, 49, 50
2, 224904, Note_on_c, 0, 73, 0
2, 224908, Note_on_c, 0, 71, 71
2, 224970, Note_on_c, 0, 49, 0
2, 225072, Note_on_c, 0, 69, 73
2, 225088, Note_on_c, 0, 54, 61
2, 225118, Note_on_c, 0, 71, 0
2, 225232, Note_on_c, 0, 68, 0
2, 225233, Note_on_c, 0, 54, 0
2, 225329, Note_on_c, 0, 66, 61
2, 225357, Note_on_c, 0, 56, 57
2, 225455, Note_on_c, 0, 66, 0
2, 225458, Note_on_c, 0, 65, 75
2, 225490, Note_on_c, 0, 56, 0
2, 225604, Note_on_c, 0, 66, 72
2, 225620, Note_on_c, 0, 57, 56
2, 225656, Note_on_c, 0, 65, 0
2, 225742, Note_on_c, 0, 57, 0
2, 225759, Note_on_c, 0, 66, 0
2, 225871, Note_on_c, 0, 63, 71
2, 225883, Note_on_c, 0, 54, 55
2, 226005, Note_on_c, 0, 63, 0
2, 226024, Note_on_c, 0, 54, 0
2, 226152, Note_on_c, 0, 60, 75
2, 226158, Note_on_c, 0, 56, 55
2, 226208, Note_on_c, 0, 69, 0
2, 226301, Note_on_c, 0, 56, 0
2, 226431, Note_on_c, 0, 68, 61
2, 226435, Note_on_c, 0, 44, 49
2, 226568, Note_on_c, 0, 66, 70
2, 226595, Note_on_c, 0, 68, 0
2, 226656, Note_on_c, 0, 44, 0
2, 226717, Note_on_c, 0, 68, 70
2, 226765, Note_on_c, 0, 66, 0
2, 226825, Note_on_c, 0, 68, 0
2, 226967, Note_on_c, 0, 56, 70
2, 226993, Note_on_c, 0, 63, 59
2, 227069, Note_on_c, 0, 60, 0
2, 227116, Note_on_c, 0, 63, 0
2, 227127, Note_on_c, 0, 56, 0
2, 227237, Note_on_c, 0, 61, 70
2, 227243, Note_on_c, 0, 52, 63
2, 227246, Note_on_c, 0, 64, 69
2, 227397, Note_on_c, 0, 52, 0
2, 227422, Note_on_c, 0, 64, 0
2, 227518, Note_on_c, 0, 49, 74
2, 227518, Note_on_c, 0, 76, 74
2, 227655, Note_on_c, 0, 49, 0
2, 227700, Note_on_c, 0, 76, 0
2, 227788, Note_on_c, 0, 57, 74
2, 227824, Note_on_c, 0, 75, 78
2, 227872, Note_on_c, 0, 61, 0
2, 228231, Note_on_c, 0, 73, 77
2, 228277, Note_on_c, 0, 75, 0
2, 228365, Note_on_c, 0, 72, 71
2, 228396, Note_on_c, 0, 73, 0
2, 228522, Note_on_c, 0, 72, 0
2, 228624, Note_on_c, 0, 57, 0
2, 228640, Note_on_c, 0, 56, 53
2, 228640, Note_on_c, 0, 75, 58
2, 228642, Note_on_c, 0, 78, 61
2, 228748, Note_on_c, 0, 75, 0
2, 228766, Note_on_c, 0, 56, 0
2, 228768, Note_on_c, 0, 54, 61
2, 228792, Note_on_c, 0, 78, 0
2, 228922, Note_on_c, 0, 73, 67
2, 228923, Note_on_c, 0, 76, 71
2, 228928, Note_on_c, 0, 56, 57
2, 228955, Note_on_c, 0, 54, 0
2, 229205, Note_on_c, 0, 75, 75
2, 229268, Note_on_c, 0, 73, 0
2, 229269, Note_on_c, 0, 76, 0
2, 229305, Note_on_c, 0, 72, 69
2, 229460, Note_on_c, 0, 73, 73
2, 229464, Note_on_c, 0, 76, 80
2, 229500, Note_on_c, 0, 75, 0
2, 229507, Note_on_c, 0, 72, 0
2, 229567, Note_on_c, 0, 73, 0
2, 229604, Note_on_c, 0, 56, 0
2, 229729, Note_on_c, 0, 61, 73
2, 229729, Note_on_c, 0, 71, 68
2, 229861, Note_on_c, 0, 61, 0
2, 229879, Note_on_c, 0, 71, 0
2, 229991, Note_on_c, 0, 69, 71
2, 230002, Note_on_c, 0, 54, 74
2, 230046, Note_on_c, 0, 76, 0
2, 230150, Note_on_c, 0, 69, 0
2, 230259, Note_on_c, 0, 66, 76
2, 230268, Note_on_c, 0, 75, 72
2, 230393, Note_on_c, 0, 73, 78
2, 230439, Note_on_c, 0, 66, 0
2, 230453, Note_on_c, 0, 75, 0
2, 230546, Note_on_c, 0, 80, 77
2, 230548, Note_on_c, 0, 60, 68
2, 230597, Note_on_c, 0, 73, 0
2, 230661, Note_on_c, 0, 60, 0
2, 230671, Note_on_c, 0, 80, 0
2, 230691, Note_on_c, 0, 54, 0
2, 230812, Note_on_c, 0, 72, 65
2, 230816, Note_on_c, 0, 63, 52
2, 230911, Note_on_c, 0, 72, 0
2, 230929, Note_on_c, 0, 51, 64
2, 231080, Note_on_c, 0, 73, 75
2, 231085, Note_on_c, 0, 52, 43
2, 231091, Note_on_c, 0, 56, 56
2, 231117, Note_on_c, 0, 51, 0
2, 231154, Note_on_c, 0, 63, 0
2, 231223, Note_on_c, 0, 52, 0
2, 231248, Note_on_c, 0, 56, 0
2, 231348, Note_on_c, 0, 68, 58
2, 231350, Note_on_c, 0, 49, 57
2, 231468, Note_on_c, 0, 49, 0
2, 231619, Note_on_c, 0, 66, 59
2, 231628, Note_on_c, 0, 51, 53
2, 231628, Note_on_c, 0, 68, 0
2, 231749, Note_on_c, 0, 66, 0
2, 231750, Note_on_c, 0, 68, 65
2, 231860, Note_on_c, 0, 73, 0
2, 231890, Note_on_c, 0, 66, 67
2, 231935, Note_on_c, 0, 68, 0
2, 232012, Note_on_c, 0, 64, 69
2, 232033, Note_on_c, 0, 66, 0
2, 232166, Note_on_c, 0, 72, 70
2, 232168, Note_on_c, 0, 56, 45
2, 232168, Note_on_c, 0, 66, 51
2, 232189, Note_on_c, 0, 64, 0
2, 232230, Note_on_c, 0, 51, 0
2, 232274, Note_on_c, 0, 66, 0
2, 232308, Note_on_c, 0, 64, 61
2, 232425, Note_on_c, 0, 64, 0
2, 232443, Note_on_c, 0, 63, 63
2, 232532, Note_on_c, 0, 72, 0
2, 232563, Note_on_c, 0, 66, 62
2, 232623, Note_on_c, 0, 63, 0
2, 232717, Note_on_c, 0, 73, 71
2, 232721, Note_on_c, 0, 49, 43
2, 232724, Note_on_c, 0, 56, 0
2, 232727, Note_on_c, 0, 64, 58
2, 232729, Note_on_c, 0, 66, 0
2, 232847, Note_on_c, 0, 64, 0
2, 232856, Note_on_c, 0, 66, 60
2, 232978, Note_on_c, 0, 64, 61
2, 233000, Note_on_c, 0, 66, 0
2, 233019, Note_on_c, 0, 49, 0
2, 233105, Note_on_c, 0, 64, 0
2, 233107, Note_on_c, 0, 63, 63
2, 233233, Note_on_c, 0, 64, 59
2, 233262, Note_on_c, 0, 63, 0
2, 233325, Note_on_c, 0, 73, 0
2, 233370, Note_on_c, 0, 64, 0
2, 233371, Note_on_c, 0, 63, 62
2, 233504, Note_on_c, 0, 73, 69
2, 233513, Note_on_c, 0, 63, 0
2, 233518, Note_on_c, 0, 61, 52
2, 233628, Note_on_c, 0, 61, 0
2, 233631, Note_on_c, 0, 64, 55
2, 233780, Note_on_c, 0, 71, 65
2, 233789, Note_on_c, 0, 63, 56
2, 233794, Note_on_c, 0, 64, 0
2, 233823, Note_on_c, 0, 73, 0
2, 233923, Note_on_c, 0, 63, 0
2, 233926, Note_on_c, 0, 73, 74
2, 233949, Note_on_c, 0, 71, 0
2, 234065, Note_on_c, 0, 68, 67
2, 234067, Note_on_c, 0, 71, 70
2, 234091, Note_on_c, 0, 73, 0
2, 234167, Note_on_c, 0, 68, 0
2, 234195, Note_on_c, 0, 69, 62
2, 234196, Note_on_c, 0, 71, 0
2, 234333, Note_on_c, 0, 69, 0
2, 234335, Note_on_c, 0, 61, 65
2, 234338, Note_on_c, 0, 71, 65
2, 234462, Note_on_c, 0, 69, 65
2, 234468, Note_on_c, 0, 61, 0
2, 234480, Note_on_c, 0, 71, 0
2, 234599, Note_on_c, 0, 68, 65
2, 234602, Note_on_c, 0, 65, 65
2, 234604, Note_on_c, 0, 69, 0
2, 234734, Note_on_c, 0, 71, 71
2, 234736, Note_on_c, 0, 65, 0
2, 234757, Note_on_c, 0, 68, 0
2, 234870, Note_on_c, 0, 66, 59
2, 234872, Note_on_c, 0, 69, 60
2, 234888, Note_on_c, 0, 71, 0
2, 235003, Note_on_c, 0, 66, 0
2, 235018, Note_on_c, 0, 62, 63
2, 235021, Note_on_c, 0, 71, 73
2, 235024, Note_on_c, 0, 69, 0
2, 235136, Note_on_c, 0, 61, 71
2, 235148, Note_on_c, 0, 69, 74
2, 235168, Note_on_c, 0, 62, 0
2, 235192, Note_on_c, 0, 71, 0
2, 235267, Note_on_c, 0, 68, 75
2, 235268, Note_on_c, 0, 59, 68
2, 235274, Note_on_c, 0, 61, 0
2, 235289, Note_on_c, 0, 69, 0
2, 235406, Note_on_c, 0, 61, 74
2, 235414, Note_on_c, 0, 69, 74
2, 235424, Note_on_c, 0, 59, 0
2, 235442, Note_on_c, 0, 68, 0
2, 235531, Note_on_c, 0, 61, 0
2, 235532, Note_on_c, 0, 68, 71
2, 235534, Note_on_c, 0, 57, 69
2, 235558, Note_on_c, 0, 69, 0
2, 235664, Note_on_c, 0, 66, 75
2, 235674, Note_on_c, 0, 54, 65
2, 235678, Note_on_c, 0, 62, 67
2, 235683, Note_on_c, 0, 57, 0
2, 235702, Note_on_c, 0, 68, 0
2, 235814, Note_on_c, 0, 69, 72
2, 235854, Note_on_c, 0, 66, 0
2, 235926, Note_on_c, 0, 62, 0
2, 235936, Note_on_c, 0, 54, 0
2, 235946, Note_on_c, 0, 68, 75
2, 235957, Note_on_c, 0, 52, 49
2, 235984, Note_on_c, 0, 69, 0
2, 236078, Note_on_c, 0, 54, 70
2, 236081, Note_on_c, 0, 68, 0
2, 236100, Note_on_c, 0, 52, 0
2, 236206, Note_on_c, 0, 73, 79
2, 236216, Note_on_c, 0, 56, 73
2, 236228, Note_on_c, 0, 54, 0
2, 236235, Note_on_c, 0, 52, 68
2, 236331, Note_on_c, 0, 56, 0
2, 236332, Note_on_c, 0, 52, 0
2, 236343, Note_on_c, 0, 50, 71
2, 236356, Note_on_c, 0, 73, 0
2, 236478, Note_on_c, 0, 66, 77
2, 236480, Note_on_c, 0, 50, 0
2, 236492, Note_on_c, 0, 58, 58
2, 236496, Note_on_c, 0, 52, 63
2, 236617, Note_on_c, 0, 52, 0
2, 236620, Note_on_c, 0, 50, 71
2, 236634, Note_on_c, 0, 66, 0
2, 236662, Note_on_c, 0, 58, 0
2, 236747, Note_on_c, 0, 49, 66
2, 236754, Note_on_c, 0, 61, 76
2, 236760, Note_on_c, 0, 70, 62
2, 236766, Note_on_c, 0, 50, 0
2, 236857, Note_on_c, 0, 70, 0
2, 236870, Note_on_c, 0, 52, 66
2, 236891, Note_on_c, 0, 49, 0
2, 236956, Note_on_c, 0, 61, 0
2, 237012, Note_on_c, 0, 54, 65
2, 237017, Note_on_c, 0, 71, 71
2, 237018, Note_on_c, 0, 52, 0
2, 237030, Note_on_c, 0, 50, 61
2, 237132, Note_on_c, 0, 50, 0
2, 237150, Note_on_c, 0, 52, 60
2, 237159, Note_on_c, 0, 54, 0
2, 237191, Note_on_c, 0, 71, 0
2, 237256, Note_on_c, 0, 52, 0
2, 237291, Note_on_c, 0, 66, 76
2, 237295, Note_on_c, 0, 50, 50
2, 237428, Note_on_c, 0, 49, 59
2, 237435, Note_on_c, 0, 50, 0
2, 237452, Note_on_c, 0, 66, 0
2, 237561, Note_on_c, 0, 71, 71
2, 237567, Note_on_c, 0, 49, 0
2, 237573, Note_on_c, 0, 50, 65
2, 237686, Note_on_c, 0, 49, 60
2, 237709, Note_on_c, 0, 50, 0
2, 237822, Note_on_c, 0, 66, 62
2, 237831, Note_on_c, 0, 47, 54
2, 237832, Note_on_c, 0, 49, 0
2, 237946, Note_on_c, 0, 47, 0
2, 237955, Note_on_c, 0, 50, 58
2, 237965, Note_on_c, 0, 66, 0
2, 238111, Note_on_c, 0, 64, 64
2, 238115, Note_on_c, 0, 49, 59
2, 238145, Note_on_c, 0, 50, 0
2, 238242, Note_on_c, 0, 64, 0
2, 238244, Note_on_c, 0, 66, 66
2, 238270, Note_on_c, 0, 49, 0
2, 238285, Note_on_c, 0, 71, 0
2, 238368, Note_on_c, 0, 64, 65
2, 238379, Note_on_c, 0, 66, 0
2, 238387, Note_on_c, 0, 42, 56
2, 238492, Note_on_c, 0, 63, 65
2, 238527, Note_on_c, 0, 42, 0
2, 238537, Note_on_c, 0, 64, 0
2, 238628, Note_on_c, 0, 69, 68
2, 238644, Note_on_c, 0, 64, 71
2, 238646, Note_on_c, 0, 54, 58
2, 238654, Note_on_c, 0, 63, 0
2, 238761, Note_on_c, 0, 64, 0
2, 238771, Note_on_c, 0, 54, 0
2, 238772, Note_on_c, 0, 63, 65
2, 238910, Note_on_c, 0, 63, 0
2, 238921, Note_on_c, 0, 57, 57
2, 238922, Note_on_c, 0, 61, 66
2, 239037, Note_on_c, 0, 57, 0
2, 239049, Note_on_c, 0, 64, 65
2, 239072, Note_on_c, 0, 61, 0
2, 239202, Note_on_c, 0, 47, 56
2, 239205, Note_on_c, 0, 63, 63
2, 239222, Note_on_c, 0, 64, 0
2, 239344, Note_on_c, 0, 64, 70
2, 239367, Note_on_c, 0, 63, 0
2, 239381, Note_on_c, 0, 47, 0
2, 239389, Note_on_c, 0, 69, 0
2, 239486, Note_on_c, 0, 63, 72
2, 239499, Note_on_c, 0, 59, 64
2, 239516, Note_on_c, 0, 64, 0
2, 239613, Note_on_c, 0, 61, 66
2, 239631, Note_on_c, 0, 63, 0
2, 239663, Note_on_c, 0, 59, 0
2, 239756, Note_on_c, 0, 63, 65
2, 239759, Note_on_c, 0, 52, 55
2, 239759, Note_on_c, 0, 68, 70
2, 239778, Note_on_c, 0, 61, 0
2, 239878, Note_on_c, 0, 52, 0
2, 239891, Note_on_c, 0, 61, 63
2, 239897, Note_on_c, 0, 63, 0
2, 240016, Note_on_c, 0, 61, 0
2, 240028, Note_on_c, 0, 60, 59
2, 240033, Note_on_c, 0, 56, 61
2, 240155, Note_on_c, 0, 63, 56
2, 240176, Note_on_c, 0, 56, 0
2, 240206, Note_on_c, 0, 60, 0
2, 240299, Note_on_c, 0, 61, 63
2, 240312, Note_on_c, 0, 45, 58
2, 240314, Note_on_c, 0, 63, 0
2, 240447, Note_on_c, 0, 61, 0
2, 240448, Note_on_c, 0, 63, 64
2, 240471, Note_on_c, 0, 45, 0
2, 240500, Note_on_c, 0, 68, 0
2, 240576, Note_on_c, 0, 61, 65
2, 240592, Note_on_c, 0, 44, 62
2, 240616, Note_on_c, 0, 63, 0
2, 240701, Note_on_c, 0, 60, 71
2, 240713, Note_on_c, 0, 61, 0
2, 240742, Note_on_c, 0, 44, 0
2, 240863, Note_on_c, 0, 66, 70
2, 240864, Note_on_c, 0, 45, 58
2, 240865, Note_on_c, 0, 61, 59
2, 240905, Note_on_c, 0, 60, 0
2, 240992, Note_on_c, 0, 61, 0
2, 240997, Note_on_c, 0, 64, 70
2, 240998, Note_on_c, 0, 45, 0
2, 241082, Note_on_c, 0, 66, 0
2, 241112, Note_on_c, 0, 63, 72
2, 241144, Note_on_c, 0, 57, 52
2, 241162, Note_on_c, 0, 64, 0
2, 241248, Note_on_c, 0, 61, 70
2, 241278, Note_on_c, 0, 57, 0
2, 241374, Note_on_c, 0, 63, 0
2, 241375, Note_on_c, 0, 68, 69
2, 241381, Note_on_c, 0, 56, 51
2, 241392, Note_on_c, 0, 60, 66
2, 241408, Note_on_c, 0, 61, 0
2, 241502, Note_on_c, 0, 68, 0
2, 241522, Note_on_c, 0, 56, 0
2, 241522, Note_on_c, 0, 57, 57
2, 241540, Note_on_c, 0, 60, 0
2, 241653, Note_on_c, 0, 56, 62
2, 241653, Note_on_c, 0, 63, 68
2, 241658, Note_on_c, 0, 72, 79
2, 241692, Note_on_c, 0, 57, 0
2, 241739, Note_on_c, 0, 63, 0
2, 241786, Note_on_c, 0, 54, 62
2, 241795, Note_on_c, 0, 56, 0
2, 241799, Note_on_c, 0, 72, 0
2, 241932, Note_on_c, 0, 64, 67
2, 241933, Note_on_c, 0, 73, 79
2, 241937, Note_on_c, 0, 56, 61
2, 241950, Note_on_c, 0, 54, 0
2, 242062, Note_on_c, 0, 64, 0
2, 242073, Note_on_c, 0, 54, 62
2, 242077, Note_on_c, 0, 56, 0
2, 242092, Note_on_c, 0, 73, 0
2, 242199, Note_on_c, 0, 54, 0
2, 242200, Note_on_c, 0, 68, 59
2, 242201, Note_on_c, 0, 76, 68
2, 242216, Note_on_c, 0, 52, 52
2, 242335, Note_on_c, 0, 52, 0
2, 242339, Note_on_c, 0, 56, 59
2, 242451, Note_on_c, 0, 76, 0
2, 242456, Note_on_c, 0, 68, 0
2, 242465, Note_on_c, 0, 54, 67
2, 242472, Note_on_c, 0, 56, 0
2, 242587, Note_on_c, 0, 56, 71
2, 242598, Note_on_c, 0, 54, 0
2, 242718, Note_on_c, 0, 68, 72
2, 242719, Note_on_c, 0, 76, 77
2, 242741, Note_on_c, 0, 54, 60
2, 242771, Note_on_c, 0, 56, 0
2, 242854, Note_on_c, 0, 68, 0
2, 242857, Note_on_c, 0, 76, 0
2, 242874, Note_on_c, 0, 54, 0
2, 242877, Note_on_c, 0, 52, 59
2, 242996, Note_on_c, 0, 75, 79
2, 242999, Note_on_c, 0, 66, 67
2, 243009, Note_on_c, 0, 54, 64
2, 243016, Note_on_c, 0, 52, 0
2, 243109, Note_on_c, 0, 66, 0
2, 243141, Note_on_c, 0, 52, 60
2, 243151, Note_on_c, 0, 54, 0
2, 243178, Note_on_c, 0, 75, 0
2, 243271, Note_on_c, 0, 51, 57
2, 243274, Note_on_c, 0, 78, 76
2, 243275, Note_on_c, 0, 69, 65
2, 243278, Note_on_c, 0, 52, 0
2, 243394, Note_on_c, 0, 51, 0
2, 243405, Note_on_c, 0, 54, 61
2, 243540, Note_on_c, 0, 54, 0
2, 243541, Note_on_c, 0, 52, 61
2, 243554, Note_on_c, 0, 78, 0
2, 243644, Note_on_c, 0, 69, 0
2, 243663, Note_on_c, 0, 54, 71
2, 243681, Note_on_c, 0, 52, 0
2, 243805, Note_on_c, 0, 52, 67
2, 243806, Note_on_c, 0, 68, 71
2, 243806, Note_on_c, 0, 72, 74
2, 243827, Note_on_c, 0, 54, 0
2, 243929, Note_on_c, 0, 68, 0
2, 243934, Note_on_c, 0, 51, 63
2, 243939, Note_on_c, 0, 66, 77
2, 243957, Note_on_c, 0, 52, 0
2, 244064, Note_on_c, 0, 51, 0
2, 244072, Note_on_c, 0, 73, 81
2, 244078, Note_on_c, 0, 68, 72
2, 244081, Note_on_c, 0, 52, 61
2, 244109, Note_on_c, 0, 72, 0
2, 244131, Note_on_c, 0, 66, 0
2, 244207, Note_on_c, 0, 68, 0
2, 244221, Note_on_c, 0, 51, 64
2, 244244, Note_on_c, 0, 52, 0
2, 244338, Note_on_c, 0, 70, 73
2, 244339, Note_on_c, 0, 49, 65
2, 244363, Note_on_c, 0, 51, 0
2, 244468, Note_on_c, 0, 52, 66
2, 244487, Note_on_c, 0, 49, 0
2, 244492, Note_on_c, 0, 70, 0
2, 244606, Note_on_c, 0, 43, 60
2, 244621, Note_on_c, 0, 63, 67
2, 244633, Note_on_c, 0, 73, 0
2, 244647, Note_on_c, 0, 52, 0
2, 244743, Note_on_c, 0, 64, 76
2, 244750, Note_on_c, 0, 43, 0
2, 244791, Note_on_c, 0, 63, 0
2, 244883, Note_on_c, 0, 67, 75
2, 244889, Note_on_c, 0, 46, 66
2, 244904, Note_on_c, 0, 63, 67
2, 244908, Note_on_c, 0, 64, 0
2, 244972, Note_on_c, 0, 63, 0
2, 245020, Note_on_c, 0, 61, 71
2, 245032, Note_on_c, 0, 46, 0
2, 245156, Note_on_c, 0, 47, 63
2, 245163, Note_on_c, 0, 68, 66
2, 245169, Note_on_c, 0, 63, 68
2, 245180, Note_on_c, 0, 67, 0
2, 245185, Note_on_c, 0, 61, 0
2, 245279, Note_on_c, 0, 61, 60
2, 245289, Note_on_c, 0, 63, 0
2, 245301, Note_on_c, 0, 47, 0
2, 245426, Note_on_c, 0, 61, 0
2, 245434, Note_on_c, 0, 59, 57
2, 245436, Note_on_c, 0, 52, 59
2, 245564, Note_on_c, 0, 63, 57
2, 245584, Note_on_c, 0, 59, 0
2, 245592, Note_on_c, 0, 52, 0
2, 245604, Note_on_c, 0, 68, 0
2, 245714, Note_on_c, 0, 61, 59
2, 245720, Note_on_c, 0, 46, 60
2, 245724, Note_on_c, 0, 63, 0
2, 245840, Note_on_c, 0, 61, 0
2, 245849, Note_on_c, 0, 63, 65
2, 245862, Note_on_c, 0, 46, 0
2, 245976, Note_on_c, 0, 70, 75
2, 245984, Note_on_c, 0, 49, 59
2, 245990, Note_on_c, 0, 61, 40
2, 246054, Note_on_c, 0, 61, 0
2, 246066, Note_on_c, 0, 63, 0
2, 246101, Note_on_c, 0, 59, 58
2, 246113, Note_on_c, 0, 49, 0
2, 246120, Note_on_c, 0, 70, 0
2, 246237, Note_on_c, 0, 59, 0
2, 246252, Note_on_c, 0, 63, 58
2, 246256, Note_on_c, 0, 61, 60
2, 246259, Note_on_c, 0, 51, 64
2, 246349, Note_on_c, 0, 61, 0
2, 246357, Note_on_c, 0, 63, 0
2, 246369, Note_on_c, 0, 51, 0
2, 246376, Note_on_c, 0, 59, 61
2, 246526, Note_on_c, 0, 58, 58
2, 246531, Note_on_c, 0, 39, 57
2, 246531, Note_on_c, 0, 67, 63
2, 246535, Note_on_c, 0, 59, 0
2, 246640, Note_on_c, 0, 67, 0
2, 246644, Note_on_c, 0, 61, 65
2, 246646, Note_on_c, 0, 39, 0
2, 246647, Note_on_c, 0, 58, 0
2, 246794, Note_on_c, 0, 44, 61
2, 246797, Note_on_c, 0, 68, 64
2, 246805, Note_on_c, 0, 61, 0
2, 246806, Note_on_c, 0, 59, 48
2, 246928, Note_on_c, 0, 61, 63
2, 246941, Note_on_c, 0, 59, 0
2, 246944, Note_on_c, 0, 44, 0
2, 247046, Note_on_c, 0, 56, 59
2, 247060, Note_on_c, 0, 63, 63
2, 247073, Note_on_c, 0, 61, 0
2, 247081, Note_on_c, 0, 68, 0
2, 247164, Note_on_c, 0, 56, 0
2, 247174, Note_on_c, 0, 54, 60
2, 247180, Note_on_c, 0, 59, 66
2, 247193, Note_on_c, 0, 63, 0
2, 247316, Note_on_c, 0, 54, 0
2, 247336, Note_on_c, 0, 56, 44
2, 247337, Note_on_c, 0, 64, 71
2, 247344, Note_on_c, 0, 59, 0
2, 247420, Note_on_c, 0, 56, 0
2, 247448, Note_on_c, 0, 69, 60
2, 247591, Note_on_c, 0, 71, 72
2, 247596, Note_on_c, 0, 49, 54
2, 247598, Note_on_c, 0, 69, 0
2, 247696, Note_on_c, 0, 49, 0
2, 247702, Note_on_c, 0, 68, 63
2, 247731, Note_on_c, 0, 71, 0
2, 247855, Note_on_c, 0, 42, 58
2, 247868, Note_on_c, 0, 69, 61
2, 247936, Note_on_c, 0, 68, 0
2, 247981, Note_on_c, 0, 69, 0
2, 247991, Note_on_c, 0, 71, 65
2, 248026, Note_on_c, 0, 42, 0
2, 248107, Note_on_c, 0, 64, 0
2, 248131, Note_on_c, 0, 69, 62
2, 248136, Note_on_c, 0, 54, 55
2, 248148, Note_on_c, 0, 71, 0
2, 248247, Note_on_c, 0, 54, 0
2, 248256, Note_on_c, 0, 68, 69
2, 248258, Note_on_c, 0, 52, 52
2, 248293, Note_on_c, 0, 69, 0
2, 248383, Note_on_c, 0, 63, 70
2, 248403, Note_on_c, 0, 54, 53
2, 248408, Note_on_c, 0, 52, 0
2, 248420, Note_on_c, 0, 68, 0
2, 248466, Note_on_c, 0, 69, 26
2, 248494, Note_on_c, 0, 54, 0
2, 248531, Note_on_c, 0, 69, 0
2, 248544, Note_on_c, 0, 68, 64
2, 248658, Note_on_c, 0, 47, 50
2, 248661, Note_on_c, 0, 66, 66
2, 248703, Note_on_c, 0, 68, 0
2, 248740, Note_on_c, 0, 47, 0
2, 248785, Note_on_c, 0, 63, 0
2, 248807, Note_on_c, 0, 69, 62
2, 248852, Note_on_c, 0, 66, 0
2, 248935, Note_on_c, 0, 64, 51
2, 248938, Note_on_c, 0, 52, 38
2, 248948, Note_on_c, 0, 68, 63
2, 248961, Note_on_c, 0, 69, 0
2, 249060, Note_on_c, 0, 54, 54
2, 249075, Note_on_c, 0, 69, 71
2, 249093, Note_on_c, 0, 52, 0
2, 249123, Note_on_c, 0, 68, 0
2, 249193, Note_on_c, 0, 71, 77
2, 249204, Note_on_c, 0, 56, 63
2, 249209, Note_on_c, 0, 69, 0
2, 249217, Note_on_c, 0, 54, 0
2, 249321, Note_on_c, 0, 68, 72
2, 249329, Note_on_c, 0, 52, 61
2, 249339, Note_on_c, 0, 71, 0
2, 249345, Note_on_c, 0, 56, 0
2, 249446, Note_on_c, 0, 52, 0
2, 249462, Note_on_c, 0, 73, 80
2, 249473, Note_on_c, 0, 57, 57
2, 249481, Note_on_c, 0, 68, 0
2, 249594, Note_on_c, 0, 71, 63
2, 249613, Note_on_c, 0, 59, 59
2, 249635, Note_on_c, 0, 57, 0
2, 249710, Note_on_c, 0, 64, 0
2, 249726, Note_on_c, 0, 61, 62
2, 249742, Note_on_c, 0, 69, 65
2, 249753, Note_on_c, 0, 59, 0
2, 249781, Note_on_c, 0, 71, 0
2, 249860, Note_on_c, 0, 68, 71
2, 249873, Note_on_c, 0, 57, 59
2, 249888, Note_on_c, 0, 69, 0
2, 249901, Note_on_c, 0, 61, 0
2, 250012, Note_on_c, 0, 57, 0
2, 250020, Note_on_c, 0, 62, 60
2, 250020, Note_on_c, 0, 66, 69
2, 250047, Note_on_c, 0, 73, 0
2, 250065, Note_on_c, 0, 68, 0
2, 250151, Note_on_c, 0, 62, 0
2, 250154, Note_on_c, 0, 64, 63
2, 250246, Note_on_c, 0, 64, 0
2, 250276, Note_on_c, 0, 73, 78
2, 250277, Note_on_c, 0, 62, 57
2, 250403, Note_on_c, 0, 61, 63
2, 250407, Note_on_c, 0, 62, 0
2, 250429, Note_on_c, 0, 73, 0
2, 250534, Note_on_c, 0, 61, 0
2, 250544, Note_on_c, 0, 62, 53
2, 250566, Note_on_c, 0, 71, 73
2, 250659, Note_on_c, 0, 66, 0
2, 250671, Note_on_c, 0, 61, 55
2, 250701, Note_on_c, 0, 62, 0
2, 250831, Note_on_c, 0, 66, 52
2, 250834, Note_on_c, 0, 61, 0
2, 250844, Note_on_c, 0, 59, 48
2, 250962, Note_on_c, 0, 66, 0
2, 250967, Note_on_c, 0, 59, 0
2, 250972, Note_on_c, 0, 62, 57
2, 251092, Note_on_c, 0, 71, 0
2, 251093, Note_on_c, 0, 64, 63
2, 251109, Note_on_c, 0, 61, 57
2, 251112, Note_on_c, 0, 62, 0
2, 251222, Note_on_c, 0, 71, 70
2, 251238, Note_on_c, 0, 61, 0
2, 251239, Note_on_c, 0, 62, 60
2, 251352, Note_on_c, 0, 69, 71
2, 251361, Note_on_c, 0, 64, 0
2, 251365, Note_on_c, 0, 61, 60
2, 251395, Note_on_c, 0, 62, 0
2, 251405, Note_on_c, 0, 71, 0
2, 251480, Note_on_c, 0, 68, 73
2, 251496, Note_on_c, 0, 61, 0
2, 251497, Note_on_c, 0, 59, 60
2, 251515, Note_on_c, 0, 69, 0
2, 251629, Note_on_c, 0, 69, 77
2, 251631, Note_on_c, 0, 61, 67
2, 251641, Note_on_c, 0, 59, 0
2, 251643, Note_on_c, 0, 68, 0
2, 251749, Note_on_c, 0, 71, 76
2, 251764, Note_on_c, 0, 59, 68
2, 251787, Note_on_c, 0, 61, 0
2, 251798, Note_on_c, 0, 69, 0
2, 251885, Note_on_c, 0, 73, 78
2, 251905, Note_on_c, 0, 57, 69
2, 251928, Note_on_c, 0, 71, 0
2, 251934, Note_on_c, 0, 59, 0
2, 252020, Note_on_c, 0, 69, 71
2, 252024, Note_on_c, 0, 61, 72
2, 252052, Note_on_c, 0, 73, 0
2, 252066, Note_on_c, 0, 57, 0
2, 252163, Note_on_c, 0, 74, 71
2, 252175, Note_on_c, 0, 59, 70
2, 252209, Note_on_c, 0, 61, 0
2, 252212, Note_on_c, 0, 69, 0
2, 252301, Note_on_c, 0, 76, 74
2, 252324, Note_on_c, 0, 74, 0
2, 252439, Note_on_c, 0, 74, 68
2, 252441, Note_on_c, 0, 69, 74
2, 252472, Note_on_c, 0, 76, 0
2, 252566, Note_on_c, 0, 69, 0
2, 252583, Note_on_c, 0, 73, 63
2, 252588, Note_on_c, 0, 74, 0
2, 252725, Note_on_c, 0, 68, 73
2, 252748, Note_on_c, 0, 73, 0
2, 252748, Note_on_c, 0, 74, 51
2, 252823, Note_on_c, 0, 59, 0
2, 252876, Note_on_c, 0, 73, 63
2, 252919, Note_on_c, 0, 74, 0
2, 253008, Note_on_c, 0, 64, 61
2, 253020, Note_on_c, 0, 71, 65
2, 253031, Note_on_c, 0, 73, 0
2, 253122, Note_on_c, 0, 64, 0
2, 253147, Note_on_c, 0, 74, 63
2, 253154, Note_on_c, 0, 71, 0
2, 253272, Note_on_c, 0, 57, 63
2, 253301, Note_on_c, 0, 73, 63
2, 253307, Note_on_c, 0, 74, 0
2, 253415, Note_on_c, 0, 68, 0
2, 253450, Note_on_c, 0, 74, 60
2, 253456, Note_on_c, 0, 73, 0
2, 253566, Note_on_c, 0, 61, 70
2, 253583, Note_on_c, 0, 73, 64
2, 253585, Note_on_c, 0, 74, 0
2, 253693, Note_on_c, 0, 61, 0
2, 253706, Note_on_c, 0, 71, 63
2, 253721, Note_on_c, 0, 73, 0
2, 253854, Note_on_c, 0, 66, 75
2, 253871, Note_on_c, 0, 71, 0
2, 253876, Note_on_c, 0, 73, 54
2, 253963, Note_on_c, 0, 57, 0
2, 253999, Note_on_c, 0, 71, 62
2, 254020, Note_on_c, 0, 73, 0
2, 254136, Note_on_c, 0, 71, 0
2, 254137, Note_on_c, 0, 62, 54
2, 254157, Note_on_c, 0, 69, 58
2, 254241, Note_on_c, 0, 62, 0
2, 254276, Note_on_c, 0, 73, 66
2, 254325, Note_on_c, 0, 69, 0
2, 254410, Note_on_c, 0, 56, 52
2, 254420, Note_on_c, 0, 71, 70
2, 254453, Note_on_c, 0, 73, 0
2, 254483, Note_on_c, 0, 66, 0
2, 254528, Note_on_c, 0, 56, 0
2, 254550, Note_on_c, 0, 69, 62
2, 254684, Note_on_c, 0, 59, 50
2, 254689, Note_on_c, 0, 68, 62
2, 254722, Note_on_c, 0, 69, 0
2, 254811, Note_on_c, 0, 59, 0
2, 254812, Note_on_c, 0, 66, 65
2, 254830, Note_on_c, 0, 68, 0
2, 254950, Note_on_c, 0, 66, 0
2, 254962, Note_on_c, 0, 53, 56
2, 254970, Note_on_c, 0, 68, 58
2, 255065, Note_on_c, 0, 53, 0
2, 255092, Note_on_c, 0, 66, 57
2, 255135, Note_on_c, 0, 68, 0
2, 255227, Note_on_c, 0, 66, 0
2, 255237, Note_on_c, 0, 49, 55
2, 255237, Note_on_c, 0, 65, 58
2, 255332, Note_on_c, 0, 49, 0
2, 255383, Note_on_c, 0, 68, 56
2, 255437, Note_on_c, 0, 65, 0
2, 255517, Note_on_c, 0, 68, 0
2, 255520, Note_on_c, 0, 66, 59
2, 255528, Note_on_c, 0, 54, 60
2, 255547, Note_on_c, 0, 71, 0
2, 255646, Note_on_c, 0, 68, 56
2, 255693, Note_on_c, 0, 66, 0
2, 255790, Note_on_c, 0, 61, 59
2, 255796, Note_on_c, 0, 70, 57
2, 255804, Note_on_c, 0, 68, 0
2, 255912, Note_on_c, 0, 70, 0
2, 255918, Note_on_c, 0, 71, 64
2, 255973, Note_on_c, 0, 61, 0
2, 256055, Note_on_c, 0, 70, 56
2, 256065, Note_on_c, 0, 62, 65
2, 256068, Note_on_c, 0, 71, 0
2, 256132, Note_on_c, 0, 54, 0
2, 256202, Note_on_c, 0, 71, 63
2, 256206, Note_on_c, 0, 70, 0
2, 256325, Note_on_c, 0, 54, 68
2, 256326, Note_on_c, 0, 73, 66
2, 256367, Note_on_c, 0, 71, 0
2, 256445, Note_on_c, 0, 70, 64
2, 256450, Note_on_c, 0, 54, 0
2, 256514, Note_on_c, 0, 73, 0
2, 256596, Note_on_c, 0, 55, 67
2, 256611, Note_on_c, 0, 71, 69
2, 256621, Note_on_c, 0, 70, 0
2, 256689, Note_on_c, 0, 62, 0
2, 256732, Note_on_c, 0, 70, 73
2, 256744, Note_on_c, 0, 71, 0
2, 256866, Note_on_c, 0, 71, 70
2, 256872, Note_on_c, 0, 63, 76
2, 256873, Note_on_c, 0, 70, 0
2, 256996, Note_on_c, 0, 73, 71
2, 257000, Note_on_c, 0, 63, 0
2, 257029, Note_on_c, 0, 71, 0
2, 257131, Note_on_c, 0, 64, 79
2, 257150, Note_on_c, 0, 71, 76
2, 257183, Note_on_c, 0, 73, 0
2, 257236, Note_on_c, 0, 55, 0
2, 257276, Note_on_c, 0, 73, 72
2, 257340, Note_on_c, 0, 71, 0
2, 257416, Note_on_c, 0, 56, 72
2, 257420, Note_on_c, 0, 74, 74
2, 257451, Note_on_c, 0, 73, 0
2, 257529, Note_on_c, 0, 71, 71
2, 257569, Note_on_c, 0, 56, 0
2, 257570, Note_on_c, 0, 74, 0
2, 257681, Note_on_c, 0, 73, 74
2, 257688, Note_on_c, 0, 57, 70
2, 257694, Note_on_c, 0, 71, 0
2, 257772, Note_on_c, 0, 64, 0
2, 257812, Note_on_c, 0, 71, 73
2, 257813, Note_on_c, 0, 73, 0
2, 257940, Note_on_c, 0, 65, 77
2, 257944, Note_on_c, 0, 73, 73
2, 257969, Note_on_c, 0, 71, 0
2, 258078, Note_on_c, 0, 74, 70
2, 258089, Note_on_c, 0, 73, 0
2, 258129, Note_on_c, 0, 65, 0
2, 258221, Note_on_c, 0, 66, 82
2, 258224, Note_on_c, 0, 73, 71
2, 258239, Note_on_c, 0, 74, 0
2, 258319, Note_on_c, 0, 57, 0
2, 258343, Note_on_c, 0, 74, 73
2, 258350, Note_on_c, 0, 73, 0
2, 258483, Note_on_c, 0, 58, 68
2, 258497, Note_on_c, 0, 76, 79
2, 258525, Note_on_c, 0, 74, 0
2, 258611, Note_on_c, 0, 73, 76
2, 258635, Note_on_c, 0, 58, 0
2, 258647, Note_on_c, 0, 76, 0
2, 258768, Note_on_c, 0, 59, 67
2, 258777, Note_on_c, 0, 74, 70
2, 258908, Note_on_c, 0, 76, 79
2, 258909, Note_on_c, 0, 73, 0
2, 258935, Note_on_c, 0, 74, 0
2, 258958, Note_on_c, 0, 59, 0
2, 259043, Note_on_c, 0, 54, 71
2, 259048, Note_on_c, 0, 74, 72
2, 259057, Note_on_c, 0, 76, 0
2, 259162, Note_on_c, 0, 73, 76
2, 259172, Note_on_c, 0, 74, 0
2, 259204, Note_on_c, 0, 54, 0
2, 259309, Note_on_c, 0, 47, 62
2, 259318, Note_on_c, 0, 74, 68
2, 259332, Note_on_c, 0, 73, 0
2, 259437, Note_on_c, 0, 73, 75
2, 259448, Note_on_c, 0, 47, 0
2, 259468, Note_on_c, 0, 74, 0
2, 259574, Note_on_c, 0, 71, 73
2, 259584, Note_on_c, 0, 50, 59
2, 259604, Note_on_c, 0, 73, 0
2, 259697, Note_on_c, 0, 71, 0
2, 259697, Note_on_c, 0, 74, 73
2, 259724, Note_on_c, 0, 50, 0
2, 259743, Note_on_c, 0, 74, 0
2, 259829, Note_on_c, 0, 66, 0
2, 259842, Note_on_c, 0, 52, 56
2, 259849, Note_on_c, 0, 67, 76
2, 259967, Note_on_c, 0, 66, 72
2, 259998, Note_on_c, 0, 52, 0
2, 260100, Note_on_c, 0, 64, 78
2, 260113, Note_on_c, 0, 54, 63
2, 260142, Note_on_c, 0, 66, 0
2, 260229, Note_on_c, 0, 62, 76
2, 260239, Note_on_c, 0, 64, 0
2, 260250, Note_on_c, 0, 54, 0
2, 260369, Note_on_c, 0, 64, 77
2, 260388, Note_on_c, 0, 55, 63
2, 260388, Note_on_c, 0, 62, 0
2, 260491, Note_on_c, 0, 62, 76
2, 260519, Note_on_c, 0, 64, 0
2, 260544, Note_on_c, 0, 55, 0
2, 260628, Note_on_c, 0, 61, 74
2, 260649, Note_on_c, 0, 52, 52
2, 260669, Note_on_c, 0, 62, 0
2, 260754, Note_on_c, 0, 64, 76
2, 260795, Note_on_c, 0, 52, 0
2, 260796, Note_on_c, 0, 67, 0
2, 260804, Note_on_c, 0, 61, 0
2, 260905, Note_on_c, 0, 57, 71
2, 260911, Note_on_c, 0, 49, 53
2, 261027, Note_on_c, 0, 64, 0
2, 261031, Note_on_c, 0, 67, 77
2, 261078, Note_on_c, 0, 49, 0
2, 261163, Note_on_c, 0, 66, 72
2, 261183, Note_on_c, 0, 45, 57
2, 261209, Note_on_c, 0, 67, 0
2, 261280, Note_on_c, 0, 64, 78
2, 261320, Note_on_c, 0, 66, 0
2, 261323, Note_on_c, 0, 45, 0
2, 261435, Note_on_c, 0, 66, 75
2, 261441, Note_on_c, 0, 50, 66
2, 261449, Note_on_c, 0, 64, 0
2, 261562, Note_on_c, 0, 64, 74
2, 261587, Note_on_c, 0, 50, 0
2, 261604, Note_on_c, 0, 66, 0
2, 261696, Note_on_c, 0, 62, 68
2, 261709, Note_on_c, 0, 42, 60
2, 261710, Note_on_c, 0, 64, 0
2, 261822, Note_on_c, 0, 66, 76
2, 261859, Note_on_c, 0, 42, 0
2, 261859, Note_on_c, 0, 62, 0
2, 261899, Note_on_c, 0, 57, 0
2, 261971, Note_on_c, 0, 59, 77
2, 261999, Note_on_c, 0, 43, 56
2, 262053, Note_on_c, 0, 66, 0
2, 262099, Note_on_c, 0, 57, 68
2, 262121, Note_on_c, 0, 43, 0
2, 262232, Note_on_c, 0, 55, 64
2, 262243, Note_on_c, 0, 47, 56
2, 262279, Note_on_c, 0, 59, 0
2, 262353, Note_on_c, 0, 57, 0
2, 262358, Note_on_c, 0, 54, 66
2, 262386, Note_on_c, 0, 55, 0
2, 262404, Note_on_c, 0, 54, 0
2, 262441, Note_on_c, 0, 47, 0
2, 262491, Note_on_c, 0, 61, 73
2, 262506, Note_on_c, 0, 55, 60
2, 262527, Note_on_c, 0, 40, 48
2, 262610, Note_on_c, 0, 40, 0
2, 262630, Note_on_c, 0, 54, 60
2, 262635, Note_on_c, 0, 55, 0
2, 262732, Note_on_c, 0, 54, 0
2, 262766, Note_on_c, 0, 52, 56
2, 262769, Note_on_c, 0, 45, 57
2, 262857, Note_on_c, 0, 45, 0
2, 262888, Note_on_c, 0, 55, 52
2, 262894, Note_on_c, 0, 61, 0
2, 262927, Note_on_c, 0, 52, 0
2, 263023, Note_on_c, 0, 55, 0
2, 263027, Note_on_c, 0, 62, 67
2, 263033, Note_on_c, 0, 54, 56
2, 263056, Note_on_c, 0, 50, 49
2, 263113, Note_on_c, 0, 54, 0
2, 263174, Note_on_c, 0, 62, 0
2, 263181, Note_on_c, 0, 49, 51
2, 263225, Note_on_c, 0, 49, 0
2, 263302, Note_on_c, 0, 66, 67
2, 263428, Note_on_c, 0, 66, 0
2, 263461, Note_on_c, 0, 52, 62
2, 263464, Note_on_c, 0, 50, 0
2, 263586, Note_on_c, 0, 71, 75
2, 263588, Note_on_c, 0, 50, 56
2, 263600, Note_on_c, 0, 52, 0
2, 263708, Note_on_c, 0, 50, 0
2, 263715, Note_on_c, 0, 55, 63
2, 263848, Note_on_c, 0, 54, 65
2, 263848, Note_on_c, 0, 55, 0
2, 263851, Note_on_c, 0, 59, 66
2, 263943, Note_on_c, 0, 59, 0
2, 263963, Note_on_c, 0, 54, 0
2, 263971, Note_on_c, 0, 55, 65
2, 264106, Note_on_c, 0, 64, 79
2, 264112, Note_on_c, 0, 49, 57
2, 264132, Note_on_c, 0, 55, 0
2, 264255, Note_on_c, 0, 49, 0
2, 264260, Note_on_c, 0, 47, 57
2, 264386, Note_on_c, 0, 70, 64
2, 264400, Note_on_c, 0, 49, 56
2, 264413, Note_on_c, 0, 47, 0
2, 264430, Note_on_c, 0, 71, 0
2, 264510, Note_on_c, 0, 68, 67
2, 264521, Note_on_c, 0, 49, 0
2, 264529, Note_on_c, 0, 50, 63
2, 264530, Note_on_c, 0, 70, 0
2, 264659, Note_on_c, 0, 49, 63
2, 264659, Note_on_c, 0, 50, 0
2, 264665, Note_on_c, 0, 70, 62
2, 264692, Note_on_c, 0, 68, 0
2, 264756, Note_on_c, 0, 64, 0
2, 264794, Note_on_c, 0, 54, 66
2, 264804, Note_on_c, 0, 49, 0
2, 264919, Note_on_c, 0, 66, 80
2, 264932, Note_on_c, 0, 54, 0
2, 264933, Note_on_c, 0, 52, 62
2, 265050, Note_on_c, 0, 52, 0
2, 265054, Note_on_c, 0, 54, 62
2, 265078, Note_on_c, 0, 66, 0
2, 265187, Note_on_c, 0, 62, 70
2, 265195, Note_on_c, 0, 71, 76
2, 265197, Note_on_c, 0, 54, 0
2, 265199, Note_on_c, 0, 47, 54
2, 265239, Note_on_c, 0, 70, 0
2, 265327, Note_on_c, 0, 49, 61
2, 265337, Note_on_c, 0, 47, 0
2, 265344, Note_on_c, 0, 62, 0
2, 265440, Note_on_c, 0, 50, 64
2, 265446, Note_on_c, 0, 49, 0
2, 265465, Note_on_c, 0, 59, 77
2, 265558, Note_on_c, 0, 59, 0
2, 265572, Note_on_c, 0, 50, 0
2, 265580, Note_on_c, 0, 47, 60
2, 265730, Note_on_c, 0, 67, 82
2, 265745, Note_on_c, 0, 52, 58
2, 265792, Note_on_c, 0, 71, 0
2, 265796, Note_on_c, 0, 47, 0
2, 265869, Note_on_c, 0, 50, 57
2, 265908, Note_on_c, 0, 52, 0
2, 265989, Note_on_c, 0, 76, 61
2, 265998, Note_on_c, 0, 49, 57
2, 266004, Note_on_c, 0, 50, 0
2, 266110, Note_on_c, 0, 76, 0
2, 266123, Note_on_c, 0, 49, 0
2, 266128, Note_on_c, 0, 47, 59
2, 266271, Note_on_c, 0, 69, 73
2, 266280, Note_on_c, 0, 49, 58
2, 266298, Note_on_c, 0, 47, 0
2, 266414, Note_on_c, 0, 52, 60
2, 266429, Note_on_c, 0, 49, 0
2, 266521, Note_on_c, 0, 67, 0
2, 266545, Note_on_c, 0, 66, 52
2, 266552, Note_on_c, 0, 50, 59
2, 266559, Note_on_c, 0, 52, 0
2, 266660, Note_on_c, 0, 66, 0
2, 266661, Note_on_c, 0, 49, 56
2, 266668, Note_on_c, 0, 50, 0
2, 266681, Note_on_c, 0, 64, 64
2, 266807, Note_on_c, 0, 50, 64
2, 266810, Note_on_c, 0, 66, 68
2, 266848, Note_on_c, 0, 49, 0
2, 266864, Note_on_c, 0, 64, 0
2, 266896, Note_on_c, 0, 69, 0
2, 266902, Note_on_c, 0, 50, 0
2, 266923, Note_on_c, 0, 52, 61
2, 267062, Note_on_c, 0, 54, 68
2, 267068, Note_on_c, 0, 74, 71
2, 267101, Note_on_c, 0, 52, 0
2, 267168, Note_on_c, 0, 74, 0
2, 267178, Note_on_c, 0, 50, 65
2, 267195, Note_on_c, 0, 54, 0
2, 267334, Note_on_c, 0, 52, 64
2, 267339, Note_on_c, 0, 67, 77
2, 267349, Note_on_c, 0, 50, 0
2, 267420, Note_on_c, 0, 66, 0
2, 267474, Note_on_c, 0, 50, 69
2, 267476, Note_on_c, 0, 52, 0
2, 267593, Note_on_c, 0, 71, 80
2, 267608, Note_on_c, 0, 52, 65
2, 267632, Note_on_c, 0, 50, 0
2, 267737, Note_on_c, 0, 54, 71
2, 267745, Note_on_c, 0, 71, 0
2, 267772, Note_on_c, 0, 52, 0
2, 267862, Note_on_c, 0, 64, 76
2, 267870, Note_on_c, 0, 55, 68
2, 267880, Note_on_c, 0, 54, 0
2, 267951, Note_on_c, 0, 67, 0
2, 268002, Note_on_c, 0, 54, 72
2, 268039, Note_on_c, 0, 55, 0
2, 268130, Note_on_c, 0, 72, 76
2, 268132, Note_on_c, 0, 52, 62
2, 268150, Note_on_c, 0, 54, 0
2, 268246, Note_on_c, 0, 52, 0
2, 268268, Note_on_c, 0, 55, 63
2, 268275, Note_on_c, 0, 72, 0
2, 268403, Note_on_c, 0, 70, 71
2, 268417, Note_on_c, 0, 54, 65
2, 268460, Note_on_c, 0, 55, 0
2, 268509, Note_on_c, 0, 64, 0
2, 268538, Note_on_c, 0, 56, 71
2, 268576, Note_on_c, 0, 54, 0
2, 268660, Note_on_c, 0, 62, 62
2, 268664, Note_on_c, 0, 70, 0
2, 268665, Note_on_c, 0, 58, 72
2, 268668, Note_on_c, 0, 66, 74
2, 268687, Note_on_c, 0, 56, 0
2, 268797, Note_on_c, 0, 54, 69
2, 268801, Note_on_c, 0, 61, 77
2, 268814, Note_on_c, 0, 58, 0
2, 268816, Note_on_c, 0, 62, 0
2, 268926, Note_on_c, 0, 66, 0
2, 268936, Note_on_c, 0, 54, 0
2, 268938, Note_on_c, 0, 59, 77
2, 268939, Note_on_c, 0, 62, 74
2, 268960, Note_on_c, 0, 61, 0
2, 269056, Note_on_c, 0, 47, 74
2, 269056, Note_on_c, 0, 71, 74
2, 269064, Note_on_c, 0, 59, 0
2, 269109, Note_on_c, 0, 71, 0
2, 269197, Note_on_c, 0, 73, 76
2, 269198, Note_on_c, 0, 59, 83
2, 269222, Note_on_c, 0, 47, 0
2, 269232, Note_on_c, 0, 62, 0
2, 269305, Note_on_c, 0, 73, 0
2, 269311, Note_on_c, 0, 74, 75
2, 269436, Note_on_c, 0, 74, 0
2, 269458, Note_on_c, 0, 61, 75
2, 269461, Note_on_c, 0, 65, 64
2, 269549, Note_on_c, 0, 65, 0
2, 269589, Note_on_c, 0, 57, 62
2, 269598, Note_on_c, 0, 59, 0
2, 269715, Note_on_c, 0, 56, 59
2, 269716, Note_on_c, 0, 57, 0
2, 269727, Note_on_c, 0, 73, 75
2, 269837, Note_on_c, 0, 73, 0
2, 269847, Note_on_c, 0, 56, 0
2, 269856, Note_on_c, 0, 59, 61
2, 269996, Note_on_c, 0, 66, 71
2, 270002, Note_on_c, 0, 57, 56
2, 270018, Note_on_c, 0, 59, 0
2, 270121, Note_on_c, 0, 57, 0
2, 270132, Note_on_c, 0, 56, 56
2, 270245, Note_on_c, 0, 56, 0
2, 270254, Note_on_c, 0, 54, 59
2, 270400, Note_on_c, 0, 57, 62
2, 270415, Note_on_c, 0, 61, 0
2, 270450, Note_on_c, 0, 54, 0
2, 270533, Note_on_c, 0, 59, 65
2, 270543, Note_on_c, 0, 56, 56
2, 270548, Note_on_c, 0, 57, 0
2, 270660, Note_on_c, 0, 56, 0
2, 270685, Note_on_c, 0, 57, 54
2, 270784, Note_on_c, 0, 66, 0
2, 270791, Note_on_c, 0, 65, 58
2, 270805, Note_on_c, 0, 56, 56
2, 270813, Note_on_c, 0, 57, 0
2, 270911, Note_on_c, 0, 66, 66
2, 270941, Note_on_c, 0, 56, 0
2, 270950, Note_on_c, 0, 54, 57
2, 270954, Note_on_c, 0, 65, 0
2, 271058, Note_on_c, 0, 68, 66
2, 271060, Note_on_c, 0, 54, 0
2, 271071, Note_on_c, 0, 53, 55
2, 271119, Note_on_c, 0, 66, 0
2, 271194, Note_on_c, 0, 69, 69
2, 271207, Note_on_c, 0, 54, 62
2, 271207, Note_on_c, 0, 68, 0
2, 271216, Note_on_c, 0, 53, 0
2, 271325, Note_on_c, 0, 56, 62
2, 271327, Note_on_c, 0, 71, 71
2, 271328, Note_on_c, 0, 54, 0
2, 271380, Note_on_c, 0, 69, 0
2, 271443, Note_on_c, 0, 56, 0
2, 271452, Note_on_c, 0, 68, 70
2, 271459, Note_on_c, 0, 53, 57
2, 271482, Note_on_c, 0, 71, 0
2, 271592, Note_on_c, 0, 54, 60
2, 271602, Note_on_c, 0, 71, 74
2, 271609, Note_on_c, 0, 53, 0
2, 271641, Note_on_c, 0, 68, 0
2, 271643, Note_on_c, 0, 59, 0
2, 271735, Note_on_c, 0, 69, 74
2, 271771, Note_on_c, 0, 71, 0
2, 271861, Note_on_c, 0, 68, 77
2, 271876, Note_on_c, 0, 56, 65
2, 271899, Note_on_c, 0, 69, 0
2, 271903, Note_on_c, 0, 54, 0
2, 272000, Note_on_c, 0, 66, 74
2, 272013, Note_on_c, 0, 57, 56
2, 272045, Note_on_c, 0, 56, 0
2, 272057, Note_on_c, 0, 68, 0
2, 272142, Note_on_c, 0, 74, 77
2, 272156, Note_on_c, 0, 57, 0
2, 272168, Note_on_c, 0, 59, 57
2, 272255, Note_on_c, 0, 66, 0
2, 272284, Note_on_c, 0, 73, 65
2, 272290, Note_on_c, 0, 57, 56
2, 272293, Note_on_c, 0, 59, 0
2, 272406, Note_on_c, 0, 71, 68
2, 272410, Note_on_c, 0, 56, 58
2, 272410, Note_on_c, 0, 57, 0
2, 272515, Note_on_c, 0, 73, 0
2, 272547, Note_on_c, 0, 69, 67
2, 272551, Note_on_c, 0, 71, 0
2, 272557, Note_on_c, 0, 54, 59
2, 272567, Note_on_c, 0, 56, 0
2, 272703, Note_on_c, 0, 54, 0
2, 272710, Note_on_c, 0, 68, 64
2, 272715, Note_on_c, 0, 52, 55
2, 272720, Note_on_c, 0, 69, 0
2, 272811, Note_on_c, 0, 52, 0
2, 272827, Note_on_c, 0, 54, 64
2, 272924, Note_on_c, 0, 54, 0
2, 272954, Note_on_c, 0, 73, 69
2, 272957, Note_on_c, 0, 52, 55
2, 272999, Note_on_c, 0, 74, 0
2, 273084, Note_on_c, 0, 50, 57
2, 273088, Note_on_c, 0, 71, 74
2, 273093, Note_on_c, 0, 52, 0
2, 273113, Note_on_c, 0, 73, 0
2, 273222, Note_on_c, 0, 50, 0
2, 273223, Note_on_c, 0, 52, 60
2, 273232, Note_on_c, 0, 73, 80
2, 273241, Note_on_c, 0, 71, 0
2, 273362, Note_on_c, 0, 50, 63
2, 273365, Note_on_c, 0, 71, 68
2, 273367, Note_on_c, 0, 52, 0
2, 273410, Note_on_c, 0, 68, 0
2, 273490, Note_on_c, 0, 49, 60
2, 273490, Note_on_c, 0, 50, 0
2, 273490, Note_on_c, 0, 69, 68
2, 273503, Note_on_c, 0, 71, 0
2, 273621, Note_on_c, 0, 52, 56
2, 273625, Note_on_c, 0, 68, 71
2, 273629, Note_on_c, 0, 49, 0
2, 273662, Note_on_c, 0, 69, 0
2, 273768, Note_on_c, 0, 50, 65
2, 273771, Note_on_c, 0, 66, 69
2, 273772, Note_on_c, 0, 52, 0
2, 273811, Note_on_c, 0, 68, 0
2, 273863, Note_on_c, 0, 66, 0
2, 273892, Note_on_c, 0, 52, 68
2, 273892, Note_on_c, 0, 73, 0
2, 273895, Note_on_c, 0, 50, 0
2, 274017, Note_on_c, 0, 78, 83
2, 274021, Note_on_c, 0, 50, 69
2, 274024, Note_on_c, 0, 69, 73
2, 274046, Note_on_c, 0, 52, 0
2, 274133, Note_on_c, 0, 78, 0
2, 274139, Note_on_c, 0, 49, 66
2, 274151, Note_on_c, 0, 50, 0
2, 274181, Note_on_c, 0, 69, 0
2, 274274, Note_on_c, 0, 49, 0
2, 274287, Note_on_c, 0, 50, 65
2, 274304, Note_on_c, 0, 71, 82
2, 274307, Note_on_c, 0, 68, 74
2, 274427, Note_on_c, 0, 49, 60
2, 274467, Note_on_c, 0, 50, 0
2, 274555, Note_on_c, 0, 47, 62
2, 274581, Note_on_c, 0, 49, 0
2, 274692, Note_on_c, 0, 66, 75
2, 274699, Note_on_c, 0, 50, 61
2, 274703, Note_on_c, 0, 47, 0
2, 274727, Note_on_c, 0, 68, 0
2, 274833, Note_on_c, 0, 49, 61
2, 274835, Note_on_c, 0, 66, 0
2, 274837, Note_on_c, 0, 65, 77
2, 274846, Note_on_c, 0, 50, 0
2, 274968, Note_on_c, 0, 65, 0
2, 274969, Note_on_c, 0, 71, 0
2, 274984, Note_on_c, 0, 49, 0
2, 274984, Note_on_c, 0, 50, 63
2, 275111, Note_on_c, 0, 61, 70
2, 275112, Note_on_c, 0, 49, 60
2, 275113, Note_on_c, 0, 69, 65
2, 275143, Note_on_c, 0, 50, 0
2, 275234, Note_on_c, 0, 49, 0
2, 275238, Note_on_c, 0, 68, 74
2, 275240, Note_on_c, 0, 47, 57
2, 275276, Note_on_c, 0, 69, 0
2, 275375, Note_on_c, 0, 49, 61
2, 275381, Note_on_c, 0, 47, 0
2, 275389, Note_on_c, 0, 66, 65
2, 275391, Note_on_c, 0, 69, 80
2, 275426, Note_on_c, 0, 68, 0
2, 275430, Note_on_c, 0, 61, 0
2, 275505, Note_on_c, 0, 66, 0
2, 275518, Note_on_c, 0, 47, 56
2, 275536, Note_on_c, 0, 49, 0
2, 275646, Note_on_c, 0, 47, 0
2, 275670, Note_on_c, 0, 45, 54
2, 275680, Note_on_c, 0, 66, 66
2, 275763, Note_on_c, 0, 69, 0
2, 275807, Note_on_c, 0, 45, 0
2, 275809, Note_on_c, 0, 49, 56
2, 275951, Note_on_c, 0, 68, 70
2, 275955, Note_on_c, 0, 49, 0
2, 275964, Note_on_c, 0, 47, 52
2, 276086, Note_on_c, 0, 47, 0
2, 276091, Note_on_c, 0, 49, 57
2, 276218, Note_on_c, 0, 49, 0
2, 276233, Note_on_c, 0, 47, 50
2, 276349, Note_on_c, 0, 47, 0
2, 276369, Note_on_c, 0, 45, 52
2, 276491, Note_on_c, 0, 45, 0
2, 276511, Note_on_c, 0, 47, 45
2, 276515, Note_on_c, 0, 65, 59
2, 276563, Note_on_c, 0, 66, 0
2, 276643, Note_on_c, 0, 47, 0
2, 276646, Note_on_c, 0, 45, 54
2, 276771, Note_on_c, 0, 45, 0
2, 276775, Note_on_c, 0, 44, 51
2, 276863, Note_on_c, 0, 65, 0
2, 276894, Note_on_c, 0, 44, 0
2, 276909, Note_on_c, 0, 47, 53
2, 276916, Note_on_c, 0, 68, 0
2, 277058, Note_on_c, 0, 47, 0
2, 277059, Note_on_c, 0, 45, 49
2, 277059, Note_on_c, 0, 66, 61
2, 277187, Note_on_c, 0, 45, 0
2, 277190, Note_on_c, 0, 44, 50
2, 277321, Note_on_c, 0, 44, 0
2, 277325, Note_on_c, 0, 73, 66
2, 277335, Note_on_c, 0, 42, 49
2, 277454, Note_on_c, 0, 44, 56
2, 277469, Note_on_c, 0, 73, 0
2, 277470, Note_on_c, 0, 42, 0
2, 277599, Note_on_c, 0, 45, 51
2, 277601, Note_on_c, 0, 44, 0
2, 277606, Note_on_c, 0, 78, 69
2, 277690, Note_on_c, 0, 45, 0
2, 277711, Note_on_c, 0, 66, 0
2, 277733, Note_on_c, 0, 47, 49
2, 277749, Note_on_c, 0, 78, 0
2, 277872, Note_on_c, 0, 47, 0
2, 277872, Note_on_c, 0, 81, 71
2, 277876, Note_on_c, 0, 49, 55
2, 278007, Note_on_c, 0, 51, 58
2, 278016, Note_on_c, 0, 81, 0
2, 278028, Note_on_c, 0, 49, 0
2, 278151, Note_on_c, 0, 80, 72
2, 278152, Note_on_c, 0, 51, 0
2, 278170, Note_on_c, 0, 52, 45
2, 278283, Note_on_c, 0, 52, 0
2, 278291, Note_on_c, 0, 51, 52
2, 278401, Note_on_c, 0, 51, 0
2, 278418, Note_on_c, 0, 49, 46
2, 278437, Note_on_c, 0, 68, 48
2, 278549, Note_on_c, 0, 51, 52
2, 278558, Note_on_c, 0, 49, 0
2, 278632, Note_on_c, 0, 68, 0
2, 278653, Note_on_c, 0, 51, 0
2, 278677, Note_on_c, 0, 52, 53
2, 278687, Note_on_c, 0, 73, 67
2, 278824, Note_on_c, 0, 54, 59
2, 278830, Note_on_c, 0, 52, 0
2, 278874, Note_on_c, 0, 73, 0
2, 278954, Note_on_c, 0, 56, 58
2, 278956, Note_on_c, 0, 76, 66
2, 278960, Note_on_c, 0, 54, 0
2, 279078, Note_on_c, 0, 58, 61
2, 279080, Note_on_c, 0, 76, 0
2, 279122, Note_on_c, 0, 56, 0
2, 279214, Note_on_c, 0, 58, 0
2, 279231, Note_on_c, 0, 60, 57
2, 279232, Note_on_c, 0, 75, 67
2, 279313, Note_on_c, 0, 80, 0
2, 279351, Note_on_c, 0, 60, 0
2, 279397, Note_on_c, 0, 57, 8
2, 279444, Note_on_c, 0, 57, 0
2, 279478, Note_on_c, 0, 60, 65
2, 279488, Note_on_c, 0, 81, 71
2, 279610, Note_on_c, 0, 61, 64
2, 279631, Note_on_c, 0, 81, 0
2, 279640, Note_on_c, 0, 60, 0
2, 279732, Note_on_c, 0, 61, 0
2, 279753, Note_on_c, 0, 60, 60
2, 279757, Note_on_c, 0, 80, 72
2, 279874, Note_on_c, 0, 61, 64
2, 279893, Note_on_c, 0, 60, 0
2, 279903, Note_on_c, 0, 80, 0
2, 280012, Note_on_c, 0, 63, 65
2, 280022, Note_on_c, 0, 78, 77
2, 280040, Note_on_c, 0, 61, 0
2, 280132, Note_on_c, 0, 78, 0
2, 280150, Note_on_c, 0, 60, 65
2, 280151, Note_on_c, 0, 63, 0
2, 280300, Note_on_c, 0, 60, 0
2, 280302, Note_on_c, 0, 76, 72
2, 280304, Note_on_c, 0, 61, 64
2, 280337, Note_on_c, 0, 75, 0
2, 280435, Note_on_c, 0, 63, 64
2, 280462, Note_on_c, 0, 61, 0
2, 280568, Note_on_c, 0, 68, 56
2, 280572, Note_on_c, 0, 63, 0
2, 280574, Note_on_c, 0, 64, 66
2, 280694, Note_on_c, 0, 63, 67
2, 280707, Note_on_c, 0, 68, 0
2, 280712, Note_on_c, 0, 64, 0
2, 280820, Note_on_c, 0, 61, 59
2, 280821, Note_on_c, 0, 73, 70
2, 280833, Note_on_c, 0, 63, 0
2, 280923, Note_on_c, 0, 61, 0
2, 280943, Note_on_c, 0, 59, 57
2, 280980, Note_on_c, 0, 73, 0
2, 281098, Note_on_c, 0, 57, 58
2, 281105, Note_on_c, 0, 71, 68
2, 281108, Note_on_c, 0, 59, 0
2, 281209, Note_on_c, 0, 56, 59
2, 281220, Note_on_c, 0, 57, 0
2, 281231, Note_on_c, 0, 71, 0
2, 281361, Note_on_c, 0, 56, 0
2, 281364, Note_on_c, 0, 54, 57
2, 281364, Note_on_c, 0, 69, 63
2, 281433, Note_on_c, 0, 76, 0
2, 281483, Note_on_c, 0, 54, 0
2, 281497, Note_on_c, 0, 52, 52
2, 281627, Note_on_c, 0, 76, 73
2, 281633, Note_on_c, 0, 54, 59
2, 281646, Note_on_c, 0, 52, 0
2, 281751, Note_on_c, 0, 56, 61
2, 281756, Note_on_c, 0, 54, 0
2, 281786, Note_on_c, 0, 76, 0
2, 281909, Note_on_c, 0, 54, 61
2, 281913, Note_on_c, 0, 75, 75
2, 281919, Note_on_c, 0, 56, 0
2, 282039, Note_on_c, 0, 56, 63
2, 282061, Note_on_c, 0, 75, 0
2, 282082, Note_on_c, 0, 54, 0
2, 282174, Note_on_c, 0, 78, 80
2, 282177, Note_on_c, 0, 57, 61
2, 282196, Note_on_c, 0, 56, 0
2, 282296, Note_on_c, 0, 78, 0
2, 282303, Note_on_c, 0, 54, 64
2, 282312, Note_on_c, 0, 57, 0
2, 282444, Note_on_c, 0, 72, 80
2, 282454, Note_on_c, 0, 56, 65
2, 282474, Note_on_c, 0, 54, 0
2, 282493, Note_on_c, 0, 69, 0
2, 282606, Note_on_c, 0, 54, 63
2, 282615, Note_on_c, 0, 56, 0
2, 282723, Note_on_c, 0, 63, 57
2, 282743, Note_on_c, 0, 56, 64
2, 282777, Note_on_c, 0, 54, 0
2, 282833, Note_on_c, 0, 63, 0
2, 282870, Note_on_c, 0, 57, 69
2, 282880, Note_on_c, 0, 56, 0
2, 282991, Note_on_c, 0, 68, 74
2, 282994, Note_on_c, 0, 56, 71
2, 283009, Note_on_c, 0, 72, 0
2, 283027, Note_on_c, 0, 57, 0
2, 283089, Note_on_c, 0, 54, 73
2, 283123, Note_on_c, 0, 56, 0
2, 283130, Note_on_c, 0, 68, 0
2, 283204, Note_on_c, 0, 54, 0
2, 283234, Note_on_c, 0, 52, 69
2, 283242, Note_on_c, 0, 75, 76
2, 283249, Note_on_c, 0, 66, 62
2, 283352, Note_on_c, 0, 75, 0
2, 283361, Note_on_c, 0, 51, 74
2, 283389, Note_on_c, 0, 52, 0
2, 283493, Note_on_c, 0, 52, 79
2, 283502, Note_on_c, 0, 51, 0
2, 283513, Note_on_c, 0, 68, 73
2, 283545, Note_on_c, 0, 66, 0
2, 283581, Note_on_c, 0, 52, 0
2, 283621, Note_on_c, 0, 66, 70
2, 283759, Note_on_c, 0, 49, 81
2, 283762, Note_on_c, 0, 64, 72
2, 283797, Note_on_c, 0, 66, 0
2, 283815, Note_on_c, 0, 49, 0
2, 283897, Note_on_c, 0, 63, 71
2, 283902, Note_on_c, 0, 64, 0
2, 284034, Note_on_c, 0, 57, 69
2, 284047, Note_on_c, 0, 61, 79
2, 284050, Note_on_c, 0, 63, 0
2, 284064, Note_on_c, 0, 68, 0
2, 284187, Note_on_c, 0, 63, 74
2, 284223, Note_on_c, 0, 61, 0
2, 284301, Note_on_c, 0, 73, 71
2, 284320, Note_on_c, 0, 64, 79
2, 284322, Note_on_c, 0, 63, 0
2, 284422, Note_on_c, 0, 61, 76
2, 284450, Note_on_c, 0, 64, 0
2, 284577, Note_on_c, 0, 63, 77
2, 284586, Note_on_c, 0, 71, 71
2, 284593, Note_on_c, 0, 73, 0
2, 284634, Note_on_c, 0, 61, 0
2, 284670, Note_on_c, 0, 57, 0
2, 284712, Note_on_c, 0, 73, 69
2, 284715, Note_on_c, 0, 71, 0
2, 284843, Note_on_c, 0, 56, 67
2, 284849, Note_on_c, 0, 71, 64
2, 284854, Note_on_c, 0, 73, 0
2, 284974, Note_on_c, 0, 54, 70
2, 284990, Note_on_c, 0, 69, 66
2, 284996, Note_on_c, 0, 71, 0
2, 284997, Note_on_c, 0, 56, 0
2, 285123, Note_on_c, 0, 56, 79
2, 285155, Note_on_c, 0, 71, 64
2, 285161, Note_on_c, 0, 69, 0
2, 285169, Note_on_c, 0, 54, 0
2, 285250, Note_on_c, 0, 63, 0
2, 285276, Note_on_c, 0, 69, 72
2, 285302, Note_on_c, 0, 71, 0
2, 285404, Note_on_c, 0, 64, 77
2, 285417, Note_on_c, 0, 68, 63
2, 285446, Note_on_c, 0, 69, 0
2, 285516, Note_on_c, 0, 64, 0
2, 285542, Note_on_c, 0, 71, 67
2, 285557, Note_on_c, 0, 68, 0
2, 285683, Note_on_c, 0, 61, 77
2, 285698, Note_on_c, 0, 69, 62
2, 285706, Note_on_c, 0, 71, 0
2, 285765, Note_on_c, 0, 56, 0
2, 285801, Note_on_c, 0, 61, 0
2, 285811, Note_on_c, 0, 69, 0
2, 285824, Note_on_c, 0, 71, 71
2, 285944, Note_on_c, 0, 69, 66
2, 285950, Note_on_c, 0, 64, 78
2, 285953, Note_on_c, 0, 61, 77
2, 285967, Note_on_c, 0, 71, 0
2, 286046, Note_on_c, 0, 64, 0
2, 286061, Note_on_c, 0, 61, 0
2, 286073, Note_on_c, 0, 68, 71
2, 286079, Note_on_c, 0, 69, 0
2, 286225, Note_on_c, 0, 69, 67
2, 286228, Note_on_c, 0, 54, 81
2, 286229, Note_on_c, 0, 63, 84
2, 286249, Note_on_c, 0, 68, 0
2, 286363, Note_on_c, 0, 68, 72
2, 286390, Note_on_c, 0, 69, 0
2, 286505, Note_on_c, 0, 66, 70
2, 286546, Note_on_c, 0, 68, 0
2, 286630, Note_on_c, 0, 61, 72
2, 286648, Note_on_c, 0, 69, 67
2, 286656, Note_on_c, 0, 63, 0
2, 286684, Note_on_c, 0, 66, 0
2, 286771, Note_on_c, 0, 68, 68
2, 286780, Note_on_c, 0, 60, 79
2, 286799, Note_on_c, 0, 69, 0
2, 286802, Note_on_c, 0, 61, 0
2, 286918, Note_on_c, 0, 54, 0
2, 286921, Note_on_c, 0, 69, 68
2, 286935, Note_on_c, 0, 68, 0
2, 286949, Note_on_c, 0, 60, 0
2, 287050, Note_on_c, 0, 69, 0
2, 287051, Note_on_c, 0, 68, 67
2, 287057, Note_on_c, 0, 52, 65
2, 287060, Note_on_c, 0, 56, 65
2, 287162, Note_on_c, 0, 56, 0
2, 287165, Note_on_c, 0, 66, 67
2, 287193, Note_on_c, 0, 68, 0
2, 287194, Note_on_c, 0, 51, 71
2, 287208, Note_on_c, 0, 52, 0
2, 287325, Note_on_c, 0, 61, 74
2, 287333, Note_on_c, 0, 68, 58
2, 287334, Note_on_c, 0, 66, 0
2, 287343, Note_on_c, 0, 52, 66
2, 287381, Note_on_c, 0, 51, 0
2, 287438, Note_on_c, 0, 52, 0
2, 287458, Note_on_c, 0, 66, 66
2, 287478, Note_on_c, 0, 68, 0
2, 287600, Note_on_c, 0, 49, 69
2, 287614, Note_on_c, 0, 66, 0
2, 287616, Note_on_c, 0, 64, 62
2, 287728, Note_on_c, 0, 68, 59
2, 287729, Note_on_c, 0, 49, 0
2, 287827, Note_on_c, 0, 64, 0
2, 287885, Note_on_c, 0, 51, 66
2, 287906, Note_on_c, 0, 68, 0
2, 287908, Note_on_c, 0, 66, 61
2, 288032, Note_on_c, 0, 61, 0
2, 288040, Note_on_c, 0, 68, 64
2, 288046, Note_on_c, 0, 66, 0
2, 288176, Note_on_c, 0, 66, 63
2, 288182, Note_on_c, 0, 68, 0
2, 288274, Note_on_c, 0, 66, 0
2, 288297, Note_on_c, 0, 64, 60
2, 288436, Note_on_c, 0, 60, 72
2, 288458, Note_on_c, 0, 66, 57
2, 288474, Note_on_c, 0, 64, 0
2, 288584, Note_on_c, 0, 64, 65
2, 288593, Note_on_c, 0, 66, 0
2, 288631, Note_on_c, 0, 51, 0
2, 288727, Note_on_c, 0, 63, 62
2, 288748, Note_on_c, 0, 64, 0
2, 288835, Note_on_c, 0, 66, 66
2, 288881, Note_on_c, 0, 63, 0
2, 288977, Note_on_c, 0, 60, 0
2, 288980, Note_on_c, 0, 49, 46
2, 288987, Note_on_c, 0, 64, 67
2, 289019, Note_on_c, 0, 61, 54
2, 289046, Note_on_c, 0, 66, 0
2, 289090, Note_on_c, 0, 49, 0
2, 289108, Note_on_c, 0, 48, 54
2, 289111, Note_on_c, 0, 61, 0
2, 289225, Note_on_c, 0, 48, 0
2, 289233, Note_on_c, 0, 49, 55
2, 289246, Note_on_c, 0, 56, 57
2, 289367, Note_on_c, 0, 51, 58
2, 289374, Note_on_c, 0, 56, 0
2, 289384, Note_on_c, 0, 49, 0
2, 289487, Note_on_c, 0, 51, 0
2, 289511, Note_on_c, 0, 61, 70
2, 289517, Note_on_c, 0, 52, 54
2, 289618, Note_on_c, 0, 64, 0
2, 289653, Note_on_c, 0, 54, 57
2, 289661, Note_on_c, 0, 52, 0
2, 289687, Note_on_c, 0, 61, 0
2, 289768, Note_on_c, 0, 64, 74
2, 289793, Note_on_c, 0, 55, 57
2, 289802, Note_on_c, 0, 54, 0
2, 289907, Note_on_c, 0, 55, 0
2, 289921, Note_on_c, 0, 64, 0
2, 289923, Note_on_c, 0, 52, 56
2, 290050, Note_on_c, 0, 58, 74
2, 290065, Note_on_c, 0, 52, 0
2, 290065, Note_on_c, 0, 54, 60
2, 290203, Note_on_c, 0, 55, 59
2, 290205, Note_on_c, 0, 54, 0
2, 290306, Note_on_c, 0, 67, 64
2, 290342, Note_on_c, 0, 54, 63
2, 290343, Note_on_c, 0, 55, 0
2, 290421, Note_on_c, 0, 67, 0
2, 290446, Note_on_c, 0, 54, 0
2, 290466, Note_on_c, 0, 52, 58
2, 290499, Note_on_c, 0, 58, 0
2, 290584, Note_on_c, 0, 59, 66
2, 290595, Note_on_c, 0, 66, 65
2, 290613, Note_on_c, 0, 50, 59
2, 290618, Note_on_c, 0, 52, 0
2, 290717, Note_on_c, 0, 66, 0
2, 290721, Note_on_c, 0, 49, 62
2, 290726, Note_on_c, 0, 50, 0
2, 290762, Note_on_c, 0, 59, 0
2, 290848, Note_on_c, 0, 49, 0
2, 290850, Note_on_c, 0, 61, 74
2, 290855, Note_on_c, 0, 64, 70
2, 290866, Note_on_c, 0, 47, 60
2, 290974, Note_on_c, 0, 64, 0
2, 290994, Note_on_c, 0, 46, 63
2, 291021, Note_on_c, 0, 47, 0
2, 291127, Note_on_c, 0, 62, 73
2, 291141, Note_on_c, 0, 46, 0
2, 291141, Note_on_c, 0, 47, 68
2, 291181, Note_on_c, 0, 61, 0
2, 291278, Note_on_c, 0, 42, 57
2, 291279, Note_on_c, 0, 47, 0
2, 291401, Note_on_c, 0, 54, 61
2, 291402, Note_on_c, 0, 42, 0
2, 291415, Note_on_c, 0, 47, 61
2, 291536, Note_on_c, 0, 49, 67
2, 291539, Note_on_c, 0, 54, 0
2, 291542, Note_on_c, 0, 47, 0
2, 291679, Note_on_c, 0, 50, 66
2, 291686, Note_on_c, 0, 59, 70
2, 291717, Note_on_c, 0, 49, 0
2, 291780, Note_on_c, 0, 50, 0
2, 291811, Note_on_c, 0, 52, 61
2, 291819, Note_on_c, 0, 62, 0
2, 291860, Note_on_c, 0, 59, 0
2, 291952, Note_on_c, 0, 62, 65
2, 291953, Note_on_c, 0, 54, 66
2, 291987, Note_on_c, 0, 52, 0
2, 292071, Note_on_c, 0, 50, 61
2, 292085, Note_on_c, 0, 54, 0
2, 292088, Note_on_c, 0, 62, 0
2, 292216, Note_on_c, 0, 56, 69
2, 292232, Note_on_c, 0, 52, 58
2, 292234, Note_on_c, 0, 50, 0
2, 292351, Note_on_c, 0, 52, 0
2, 292354, Note_on_c, 0, 54, 64
2, 292486, Note_on_c, 0, 66, 60
2, 292488, Note_on_c, 0, 52, 59
2, 292495, Note_on_c, 0, 54, 0
2, 292599, Note_on_c, 0, 52, 0
2, 292625, Note_on_c, 0, 66, 0
2, 292627, Note_on_c, 0, 50, 61
2, 292694, Note_on_c, 0, 56, 0
2, 292764, Note_on_c, 0, 50, 0
2, 292767, Note_on_c, 0, 49, 59
2, 292770, Note_on_c, 0, 57, 66
2, 292788, Note_on_c, 0, 64, 67
2, 292893, Note_on_c, 0, 49, 0
2, 292899, Note_on_c, 0, 64, 0
2, 292902, Note_on_c, 0, 47, 59
2, 292976, Note_on_c, 0, 57, 0
2, 293034, Note_on_c, 0, 45, 65
2, 293034, Note_on_c, 0, 59, 69
2, 293042, Note_on_c, 0, 62, 69
2, 293044, Note_on_c, 0, 47, 0
2, 293155, Note_on_c, 0, 44, 63
2, 293171, Note_on_c, 0, 45, 0
2, 293192, Note_on_c, 0, 62, 0
2, 293299, Note_on_c, 0, 61, 72
2, 293305, Note_on_c, 0, 45, 61
2, 293309, Note_on_c, 0, 44, 0
2, 293454, Note_on_c, 0, 40, 57
2, 293456, Note_on_c, 0, 45, 0
2, 293582, Note_on_c, 0, 40, 0
2, 293590, Note_on_c, 0, 45, 61
2, 293591, Note_on_c, 0, 59, 0
2, 293611, Note_on_c, 0, 57, 54
2, 293728, Note_on_c, 0, 56, 65
2, 293737, Note_on_c, 0, 57, 0
2, 293740, Note_on_c, 0, 47, 60
2, 293743, Note_on_c, 0, 45, 0
2, 293861, Note_on_c, 0, 49, 65
2, 293871, Note_on_c, 0, 57, 68
2, 293888, Note_on_c, 0, 47, 0
2, 293899, Note_on_c, 0, 56, 0
2, 293951, Note_on_c, 0, 61, 0
2, 293981, Note_on_c, 0, 50, 73
2, 294018, Note_on_c, 0, 49, 0
2, 294121, Note_on_c, 0, 52, 67
2, 294134, Note_on_c, 0, 61, 73
2, 294137, Note_on_c, 0, 50, 0
2, 294252, Note_on_c, 0, 49, 67
2, 294265, Note_on_c, 0, 61, 0
2, 294283, Note_on_c, 0, 52, 0
2, 294396, Note_on_c, 0, 50, 69
2, 294397, Note_on_c, 0, 66, 81
2, 294423, Note_on_c, 0, 49, 0
2, 294527, Note_on_c, 0, 52, 67
2, 294535, Note_on_c, 0, 50, 0
2, 294657, Note_on_c, 0, 50, 69
2, 294667, Note_on_c, 0, 59, 69
2, 294688, Note_on_c, 0, 52, 0
2, 294722, Note_on_c, 0, 57, 0
2, 294778, Note_on_c, 0, 49, 67
2, 294790, Note_on_c, 0, 61, 74
2, 294804, Note_on_c, 0, 50, 0
2, 294831, Note_on_c, 0, 59, 0
2, 294935, Note_on_c, 0, 47, 65
2, 294935, Note_on_c, 0, 49, 0
2, 294936, Note_on_c, 0, 62, 72
2, 294957, Note_on_c, 0, 61, 0
2, 295066, Note_on_c, 0, 45, 72
2, 295098, Note_on_c, 0, 47, 0
2, 295183, Note_on_c, 0, 44, 74
2, 295205, Note_on_c, 0, 65, 66
2, 295206, Note_on_c, 0, 45, 0
2, 295283, Note_on_c, 0, 66, 0
2, 295306, Note_on_c, 0, 42, 75
2, 295306, Note_on_c, 0, 66, 40
2, 295330, Note_on_c, 0, 65, 0
2, 295333, Note_on_c, 0, 44, 0
2, 295413, Note_on_c, 0, 62, 0
2, 295456, Note_on_c, 0, 42, 0
2, 295457, Note_on_c, 0, 41, 80
2, 295460, Note_on_c, 0, 68, 79
2, 295487, Note_on_c, 0, 66, 0
2, 295566, Note_on_c, 0, 41, 0
2, 295581, Note_on_c, 0, 61, 66
2, 295651, Note_on_c, 0, 61, 0
2, 295728, Note_on_c, 0, 37, 79
2, 295731, Note_on_c, 0, 63, 70
2, 295748, Note_on_c, 0, 68, 0
2, 295760, Note_on_c, 0, 66, 72
2, 295857, Note_on_c, 0, 37, 0
2, 295860, Note_on_c, 0, 65, 68
2, 295875, Note_on_c, 0, 68, 72
2, 295894, Note_on_c, 0, 66, 0
2, 295899, Note_on_c, 0, 63, 0
2, 295994, Note_on_c, 0, 42, 82
2, 296010, Note_on_c, 0, 69, 77
2, 296011, Note_on_c, 0, 66, 77
2, 296014, Note_on_c, 0, 65, 0
2, 296039, Note_on_c, 0, 68, 0
2, 296118, Note_on_c, 0, 69, 0
2, 296148, Note_on_c, 0, 68, 79
2, 296187, Note_on_c, 0, 66, 0
2, 296280, Note_on_c, 0, 69, 75
2, 296303, Note_on_c, 0, 68, 0
2, 296415, Note_on_c, 0, 66, 73
2, 296419, Note_on_c, 0, 69, 0
2, 296561, Note_on_c, 0, 71, 78
2, 296642, Note_on_c, 0, 66, 0
2, 296688, Note_on_c, 0, 73, 80
2, 296733, Note_on_c, 0, 71, 0
2, 296829, Note_on_c, 0, 71, 77
2, 296859, Note_on_c, 0, 73, 0
2, 296924, Note_on_c, 0, 42, 0
2, 296956, Note_on_c, 0, 69, 67
2, 296987, Note_on_c, 0, 71, 0
2, 297092, Note_on_c, 0, 41, 66
2, 297104, Note_on_c, 0, 69, 0
2, 297105, Note_on_c, 0, 71, 75
2, 297236, Note_on_c, 0, 69, 71
2, 297279, Note_on_c, 0, 71, 0
2, 297365, Note_on_c, 0, 68, 72
2, 297367, Note_on_c, 0, 73, 85
2, 297370, Note_on_c, 0, 69, 0
2, 297450, Note_on_c, 0, 68, 0
2, 297460, Note_on_c, 0, 41, 0
2, 297491, Note_on_c, 0, 69, 79
2, 297554, Note_on_c, 0, 73, 0
2, 297563, Note_on_c, 0, 69, 0
2, 297633, Note_on_c, 0, 42, 63
2, 297645, Note_on_c, 0, 69, 80
2, 297660, Note_on_c, 0, 66, 58
2, 297726, Note_on_c, 0, 66, 0
2, 297768, Note_on_c, 0, 42, 0
2, 297773, Note_on_c, 0, 54, 70
2, 297828, Note_on_c, 0, 69, 0
2, 297904, Note_on_c, 0, 56, 71
2, 297904, Note_on_c, 0, 66, 76
2, 297936, Note_on_c, 0, 54, 0
2, 298042, Note_on_c, 0, 57, 68
2, 298060, Note_on_c, 0, 66, 0
2, 298096, Note_on_c, 0, 56, 0
2, 298171, Note_on_c, 0, 57, 0
2, 298172, Note_on_c, 0, 74, 81
2, 298177, Note_on_c, 0, 69, 43
2, 298194, Note_on_c, 0, 59, 64
2, 298214, Note_on_c, 0, 69, 0
2, 298309, Note_on_c, 0, 59, 0
2, 298318, Note_on_c, 0, 61, 69
2, 298425, Note_on_c, 0, 61, 0
2, 298437, Note_on_c, 0, 59, 68
2, 298446, Note_on_c, 0, 66, 54
2, 298558, Note_on_c, 0, 66, 0
2, 298566, Note_on_c, 0, 57, 68
2, 298597, Note_on_c, 0, 59, 0
2, 298713, Note_on_c, 0, 56, 66
2, 298717, Note_on_c, 0, 64, 63
2, 298728, Note_on_c, 0, 57, 0
2, 298825, Note_on_c, 0, 74, 0
2, 298838, Note_on_c, 0, 66, 67
2, 298878, Note_on_c, 0, 64, 0
2, 298983, Note_on_c, 0, 73, 76
2, 298997, Note_on_c, 0, 56, 0
2, 299000, Note_on_c, 0, 64, 68
2, 299037, Note_on_c, 0, 66, 0
2, 299103, Note_on_c, 0, 71, 75
2, 299125, Note_on_c, 0, 73, 0
2, 299131, Note_on_c, 0, 62, 66
2, 299143, Note_on_c, 0, 64, 0
2, 299247, Note_on_c, 0, 73, 81
2, 299260, Note_on_c, 0, 62, 0
2, 299262, Note_on_c, 0, 64, 73
2, 299284, Note_on_c, 0, 71, 0
2, 299395, Note_on_c, 0, 62, 67
2, 299449, Note_on_c, 0, 64, 0
2, 299526, Note_on_c, 0, 58, 70
2, 299536, Note_on_c, 0, 61, 70
2, 299574, Note_on_c, 0, 62, 0
2, 299660, Note_on_c, 0, 61, 0
2, 299660, Note_on_c, 0, 64, 78
2, 299675, Note_on_c, 0, 58, 0
2, 299783, Note_on_c, 0, 73, 0
2, 299797, Note_on_c, 0, 59, 77
2, 299797, Note_on_c, 0, 62, 75
2, 299828, Note_on_c, 0, 64, 0
2, 299922, Note_on_c, 0, 59, 0
2, 299928, Note_on_c, 0, 62, 0
2, 299937, Note_on_c, 0, 64, 79
2, 300064, Note_on_c, 0, 62, 71
2, 300066, Note_on_c, 0, 78, 83
2, 300073, Note_on_c, 0, 57, 64
2, 300092, Note_on_c, 0, 64, 0
2, 300178, Note_on_c, 0, 62, 0
2, 300187, Note_on_c, 0, 78, 0
2, 300188, Note_on_c, 0, 61, 73
2, 300314, Note_on_c, 0, 57, 0
2, 300345, Note_on_c, 0, 71, 85
2, 300353, Note_on_c, 0, 62, 69
2, 300354, Note_on_c, 0, 56, 72
2, 300383, Note_on_c, 0, 61, 0
2, 300487, Note_on_c, 0, 62, 0
2, 300497, Note_on_c, 0, 61, 71
2, 300603, Note_on_c, 0, 61, 0
2, 300607, Note_on_c, 0, 59, 73
2, 300621, Note_on_c, 0, 56, 0
2, 300727, Note_on_c, 0, 62, 71
2, 300736, Note_on_c, 0, 54, 76
2, 300747, Note_on_c, 0, 71, 0
2, 300772, Note_on_c, 0, 59, 0
2, 300880, Note_on_c, 0, 61, 72
2, 300885, Note_on_c, 0, 53, 76
2, 300896, Note_on_c, 0, 62, 0
2, 300928, Note_on_c, 0, 54, 0
2, 301020, Note_on_c, 0, 61, 0
2, 301020, Note_on_c, 0, 62, 70
2, 301026, Note_on_c, 0, 53, 0
2, 301160, Note_on_c, 0, 61, 75
2, 301163, Note_on_c, 0, 69, 73
2, 301172, Note_on_c, 0, 62, 0
2, 301176, Note_on_c, 0, 49, 75
2, 301258, Note_on_c, 0, 49, 0
2, 301281, Note_on_c, 0, 61, 0
2, 301289, Note_on_c, 0, 68, 76
2, 301292, Note_on_c, 0, 59, 71
2, 301327, Note_on_c, 0, 69, 0
2, 301427, Note_on_c, 0, 61, 72
2, 301434, Note_on_c, 0, 69, 80
2, 301437, Note_on_c, 0, 54, 70
2, 301457, Note_on_c, 0, 59, 0
2, 301457, Note_on_c, 0, 68, 0
2, 301524, Note_on_c, 0, 61, 0
2, 301570, Note_on_c, 0, 59, 79
2, 301628, Note_on_c, 0, 69, 0
2, 301692, Note_on_c, 0, 57, 66
2, 301692, Note_on_c, 0, 66, 80
2, 301717, Note_on_c, 0, 59, 0
2, 301836, Note_on_c, 0, 57, 0
2, 301836, Note_on_c, 0, 61, 72
2, 301869, Note_on_c, 0, 66, 0
2, 301986, Note_on_c, 0, 59, 66
2, 301989, Note_on_c, 0, 68, 84
2, 302001, Note_on_c, 0, 61, 0
2, 302126, Note_on_c, 0, 61, 64
2, 302134, Note_on_c, 0, 59, 0
2, 302257, Note_on_c, 0, 59, 69
2, 302285, Note_on_c, 0, 61, 0
2, 302316, Note_on_c, 0, 54, 0
2, 302390, Note_on_c, 0, 57, 69
2, 302421, Note_on_c, 0, 59, 0
2, 302525, Note_on_c, 0, 53, 68
2, 302553, Note_on_c, 0, 57, 0
2, 302558, Note_on_c, 0, 59, 73
2, 302706, Note_on_c, 0, 57, 68
2, 302708, Note_on_c, 0, 59, 0
2, 302839, Note_on_c, 0, 56, 70
2, 302875, Note_on_c, 0, 57, 0
2, 302964, Note_on_c, 0, 59, 73
2, 302967, Note_on_c, 0, 56, 0
2, 303123, Note_on_c, 0, 57, 70
2, 303128, Note_on_c, 0, 54, 74
2, 303142, Note_on_c, 0, 53, 0
2, 303148, Note_on_c, 0, 59, 0
2, 303275, Note_on_c, 0, 57, 0
2, 303276, Note_on_c, 0, 66, 75
2, 303330, Note_on_c, 0, 68, 0
2, 303332, Note_on_c, 0, 54, 0
2, 303442, Note_on_c, 0, 50, 76
2, 303448, Note_on_c, 0, 59, 72
2, 303464, Note_on_c, 0, 66, 0
2, 303588, Note_on_c, 0, 65, 75
2, 303591, Note_on_c, 0, 50, 0
2, 303653, Note_on_c, 0, 59, 0
2, 303729, Note_on_c, 0, 61, 78
2, 303732, Note_on_c, 0, 45, 75
2, 303763, Note_on_c, 0, 65, 0
2, 303882, Note_on_c, 0, 45, 0
2, 303882, Note_on_c, 0, 66, 81
2, 303928, Note_on_c, 0, 61, 0
2, 304037, Note_on_c, 0, 47, 72
2, 304045, Note_on_c, 0, 62, 77
2, 304081, Note_on_c, 0, 66, 0
2, 304198, Note_on_c, 0, 68, 77
2, 304218, Note_on_c, 0, 47, 0
2, 304232, Note_on_c, 0, 62, 0
2, 304426, Note_on_c, 0, 49, 78
2, 304428, Note_on_c, 0, 61, 73
2, 304430, Note_on_c, 0, 57, 71
2, 304480, Note_on_c, 0, 68, 0
2, 304649, Note_on_c, 0, 61, 0
2, 304822, Note_on_c, 0, 66, 82
2, 305008, Note_on_c, 0, 57, 0
2, 305260, Note_on_c, 0, 37, 76
2, 305266, Note_on_c, 0, 56, 78
2, 305308, Note_on_c, 0, 49, 0
2, 305781, Note_on_c, 0, 65, 74
2, 305818, Note_on_c, 0, 66, 0
2, 306225, Note_on_c, 0, 56, 0
2, 306423, Note_on_c, 0, 54, 77
2, 306425, Note_on_c, 0, 42, 73
2, 306425, Note_on_c, 0, 66, 82
2, 306461, Note_on_c, 0, 37, 0
2, 306463, Note_on_c, 0, 65, 0
2, 307890, Note_on_c, 0, 54, 0
2, 307954, Note_on_c, 0, 42, 0
2, 308012, Note_on_c, 0, 66, 0
2, 308013, End_track
0, 0, End_of_file
