0, 0, Header, 1, 2, 384
1, 0, Start_track
1, 0, Tempo, 500000
1, 0, Time_signature, 4, 2, 24, 8
1, 1, End_track
2,0,Start_track
2,0, Note_on_c, 0, 61, 49
2,111, Note_on_c, 0, 61, 0
2,288, Note_on_c, 0, 57, 53
2,421, Note_on_c, 0, 57, 0
2,561, Note_on_c, 0, 54, 66
2,670, Note_on_c, 0, 54, 0
2,853, Note_on_c, 0, 62, 65
2,1725, Note_on_c, 0, 61, 53
2,1734, Note_on_c, 0, 62, 0
2,1850, Note_on_c, 0, 61, 0
2,1859, Note_on_c, 0, 59, 55
2,2029, Note_on_c, 0, 61, 57
2,2064, Note_on_c, 0, 59, 0
2,2639, Note_on_c, 0, 61, 0
2,2890, Note_on_c, 0, 66, 70
2,3021, Note_on_c, 0, 66, 0
2,3199, Note_on_c, 0, 59, 72
2,4037, Note_on_c, 0, 57, 54
2,4055, Note_on_c, 0, 59, 0
2,4157, Note_on_c, 0, 56, 61
2,4163, Note_on_c, 0, 57, 0
2,4313, Note_on_c, 0, 57, 64
2,4314, Note_on_c, 0, 56, 0
2,4440, Note_on_c, 0, 57, 0
2,4580, Note_on_c, 0, 54, 58
2,4695, Note_on_c, 0, 54, 0
2,4833, Note_on_c, 0, 56, 60
2,4939, Note_on_c, 0, 56, 0
2,4973, Note_on_c, 0, 57, 52
2,5017, Note_on_c, 0, 57, 0
2,5041, Note_on_c, 0, 56, 58
2,5089, Note_on_c, 0, 56, 0
2,5116, Note_on_c, 0, 57, 65
2,5152, Note_on_c, 0, 57, 0
2,5170, Note_on_c, 0, 56, 65
2,5215, Note_on_c, 0, 56, 0
2,5236, Note_on_c, 0, 57, 66
2,5276, Note_on_c, 0, 57, 0
2,5300, Note_on_c, 0, 56, 52
2,5341, Note_on_c, 0, 56, 0
2,5367, Note_on_c, 0, 57, 65
2,5405, Note_on_c, 0, 57, 0
2,5427, Note_on_c, 0, 56, 64
2,5481, Note_on_c, 0, 56, 0
2,5502, Note_on_c, 0, 57, 61
2,5543, Note_on_c, 0, 57, 0
2,5561, Note_on_c, 0, 56, 62
2,5605, Note_on_c, 0, 56, 0
2,5633, Note_on_c, 0, 57, 67
2,5670, Note_on_c, 0, 57, 0
2,5684, Note_on_c, 0, 56, 65
2,5730, Note_on_c, 0, 56, 0
2,5745, Note_on_c, 0, 54, 63
2,5821, Note_on_c, 0, 54, 0
2,5840, Note_on_c, 0, 56, 66
2,5920, Note_on_c, 0, 54, 67
2,5920, Note_on_c, 0, 56, 0
2,6084, Note_on_c, 0, 54, 0
2,6199, Note_on_c, 0, 56, 58
2,6345, Note_on_c, 0, 56, 0
2,6486, Note_on_c, 0, 57, 54
2,6647, Note_on_c, 0, 57, 0
2,6761, Note_on_c, 0, 66, 67
2,6781, Note_on_c, 0, 59, 42
2,6894, Note_on_c, 0, 59, 0
2,6937, Note_on_c, 0, 66, 0
2,7039, Note_on_c, 0, 64, 71
2,7045, Note_on_c, 0, 61, 48
2,7194, Note_on_c, 0, 61, 0
2,7231, Note_on_c, 0, 64, 0
2,7320, Note_on_c, 0, 61, 65
2,7490, Note_on_c, 0, 61, 0
2,7604, Note_on_c, 0, 69, 71
2,7871, Note_on_c, 0, 63, 53
2,8016, Note_on_c, 0, 63, 0
2,8174, Note_on_c, 0, 64, 60
2,8431, Note_on_c, 0, 68, 58
2,8458, Note_on_c, 0, 69, 0
2,8564, Note_on_c, 0, 66, 63
2,8582, Note_on_c, 0, 68, 0
2,8713, Note_on_c, 0, 68, 63
2,8755, Note_on_c, 0, 66, 0
2,8782, Note_on_c, 0, 64, 0
2,9013, Note_on_c, 0, 64, 64
2,9113, Note_on_c, 0, 64, 0
2,9292, Note_on_c, 0, 58, 64
2,9419, Note_on_c, 0, 68, 0
2,9554, Note_on_c, 0, 73, 73
2,9698, Note_on_c, 0, 73, 0
2,9845, Note_on_c, 0, 66, 72
2,9976, Note_on_c, 0, 58, 0
2,10129, Note_on_c, 0, 60, 61
2,10281, Note_on_c, 0, 60, 0
2,10412, Note_on_c, 0, 61, 61
2,10673, Note_on_c, 0, 66, 0
2,10695, Note_on_c, 0, 64, 56
2,10811, Note_on_c, 0, 63, 64
2,10817, Note_on_c, 0, 64, 0
2,10944, Note_on_c, 0, 61, 0
2,10969, Note_on_c, 0, 64, 67
2,10996, Note_on_c, 0, 63, 0
2,11141, Note_on_c, 0, 64, 0
2,11229, Note_on_c, 0, 61, 62
2,11487, Note_on_c, 0, 63, 54
2,11563, Note_on_c, 0, 63, 0
2,11587, Note_on_c, 0, 64, 55
2,11640, Note_on_c, 0, 64, 0
2,11662, Note_on_c, 0, 63, 52
2,11695, Note_on_c, 0, 60, 62
2,11699, Note_on_c, 0, 63, 0
2,11711, Note_on_c, 0, 61, 0
2,11727, Note_on_c, 0, 64, 49
2,11761, Note_on_c, 0, 64, 0
2,11783, Note_on_c, 0, 63, 61
2,11815, Note_on_c, 0, 63, 0
2,11826, Note_on_c, 0, 58, 64
2,11844, Note_on_c, 0, 64, 62
2,11845, Note_on_c, 0, 60, 0
2,11874, Note_on_c, 0, 64, 0
2,11893, Note_on_c, 0, 63, 68
2,11924, Note_on_c, 0, 63, 0
2,11947, Note_on_c, 0, 64, 71
2,11967, Note_on_c, 0, 60, 75
2,11990, Note_on_c, 0, 64, 0
2,12003, Note_on_c, 0, 58, 0
2,12005, Note_on_c, 0, 63, 73
2,12039, Note_on_c, 0, 63, 0
2,12054, Note_on_c, 0, 64, 63
2,12057, Note_on_c, 0, 60, 0
2,12092, Note_on_c, 0, 64, 0
2,12104, Note_on_c, 0, 63, 61
2,12135, Note_on_c, 0, 63, 0
2,12135, Note_on_c, 0, 64, 65
2,12201, Note_on_c, 0, 63, 72
2,12205, Note_on_c, 0, 56, 58
2,12213, Note_on_c, 0, 64, 0
2,12261, Note_on_c, 0, 63, 0
2,12266, Note_on_c, 0, 56, 0
2,12274, Note_on_c, 0, 61, 70
2,12338, Note_on_c, 0, 63, 65
2,12357, Note_on_c, 0, 61, 0
2,12475, Note_on_c, 0, 64, 69
2,12477, Note_on_c, 0, 61, 70
2,12517, Note_on_c, 0, 63, 0
2,12656, Note_on_c, 0, 61, 0
2,12757, Note_on_c, 0, 73, 76
2,12964, Note_on_c, 0, 73, 0
2,13047, Note_on_c, 0, 66, 60
2,13175, Note_on_c, 0, 64, 0
2,13317, Note_on_c, 0, 57, 47
2,13471, Note_on_c, 0, 57, 0
2,13616, Note_on_c, 0, 62, 60
2,13738, Note_on_c, 0, 66, 0
2,13884, Note_on_c, 0, 71, 69
2,14052, Note_on_c, 0, 71, 0
2,14164, Note_on_c, 0, 64, 61
2,14273, Note_on_c, 0, 62, 0
2,14441, Note_on_c, 0, 56, 54
2,14575, Note_on_c, 0, 56, 0
2,14725, Note_on_c, 0, 61, 65
2,14914, Note_on_c, 0, 64, 0
2,14996, Note_on_c, 0, 69, 65
2,15124, Note_on_c, 0, 61, 0
2,15297, Note_on_c, 0, 59, 58
2,15400, Note_on_c, 0, 69, 0
2,15568, Note_on_c, 0, 68, 63
2,15659, Note_on_c, 0, 59, 0
2,15872, Note_on_c, 0, 57, 58
2,16000, Note_on_c, 0, 68, 0
2,16147, Note_on_c, 0, 66, 73
2,16197, Note_on_c, 0, 57, 0
2,16417, Note_on_c, 0, 56, 68
2,16526, Note_on_c, 0, 66, 0
2,16690, Note_on_c, 0, 49, 66
2,16697, Note_on_c, 0, 65, 61
2,16787, Note_on_c, 0, 56, 0
2,16844, Note_on_c, 0, 65, 0
2,16850, Note_on_c, 0, 49, 0
2,16978, Note_on_c, 0, 66, 69
2,16980, Note_on_c, 0, 45, 66
2,16981, Note_on_c, 0, 54, 71
2,17121, Note_on_c, 0, 45, 0
2,17252, Note_on_c, 0, 42, 73
2,17386, Note_on_c, 0, 42, 0
2,17543, Note_on_c, 0, 50, 73
2,17609, Note_on_c, 0, 66, 0
2,17645, Note_on_c, 0, 54, 0
2,17814, Note_on_c, 0, 71, 71
2,17968, Note_on_c, 0, 71, 0
2,18096, Note_on_c, 0, 68, 65
2,18249, Note_on_c, 0, 68, 0
2,18355, Note_on_c, 0, 50, 0
2,18370, Note_on_c, 0, 49, 51
2,18371, Note_on_c, 0, 64, 57
2,18482, Note_on_c, 0, 49, 0
2,18496, Note_on_c, 0, 47, 53
2,18646, Note_on_c, 0, 52, 56
2,18649, Note_on_c, 0, 49, 59
2,18649, Note_on_c, 0, 64, 0
2,18691, Note_on_c, 0, 47, 0
2,18929, Note_on_c, 0, 69, 67
2,18953, Note_on_c, 0, 52, 0
2,19094, Note_on_c, 0, 69, 0
2,19215, Note_on_c, 0, 57, 67
2,19228, Note_on_c, 0, 66, 60
2,19309, Note_on_c, 0, 49, 0
2,19361, Note_on_c, 0, 66, 0
2,19481, Note_on_c, 0, 54, 70
2,19481, Note_on_c, 0, 63, 65
2,19623, Note_on_c, 0, 54, 0
2,19646, Note_on_c, 0, 63, 0
2,19770, Note_on_c, 0, 47, 66
2,19779, Note_on_c, 0, 62, 62
2,19851, Note_on_c, 0, 57, 0
2,19931, Note_on_c, 0, 62, 0
2,20050, Note_on_c, 0, 68, 69
2,20052, Note_on_c, 0, 59, 56
2,20144, Note_on_c, 0, 59, 0
2,20208, Note_on_c, 0, 68, 0
2,20311, Note_on_c, 0, 65, 72
2,20315, Note_on_c, 0, 56, 69
2,20499, Note_on_c, 0, 65, 0
2,20576, Note_on_c, 0, 45, 59
2,20588, Note_on_c, 0, 61, 62
2,20605, Note_on_c, 0, 47, 0
2,20692, Note_on_c, 0, 61, 0
2,20703, Note_on_c, 0, 44, 63
2,20705, Note_on_c, 0, 45, 0
2,20856, Note_on_c, 0, 66, 74
2,20863, Note_on_c, 0, 62, 6
2,20865, Note_on_c, 0, 45, 55
2,20881, Note_on_c, 0, 44, 0
2,20899, Note_on_c, 0, 62, 0
2,20958, Note_on_c, 0, 56, 0
2,20991, Note_on_c, 0, 45, 0
2,21122, Note_on_c, 0, 57, 58
2,21139, Note_on_c, 0, 42, 50
2,21277, Note_on_c, 0, 42, 0
2,21302, Note_on_c, 0, 57, 0
2,21398, Note_on_c, 0, 59, 58
2,21401, Note_on_c, 0, 44, 48
2,21474, Note_on_c, 0, 44, 0
2,21506, Note_on_c, 0, 45, 51
2,21555, Note_on_c, 0, 45, 0
2,21578, Note_on_c, 0, 59, 0
2,21585, Note_on_c, 0, 44, 57
2,21622, Note_on_c, 0, 44, 0
2,21656, Note_on_c, 0, 45, 60
2,21665, Note_on_c, 0, 62, 64
2,21698, Note_on_c, 0, 45, 0
2,21708, Note_on_c, 0, 44, 64
2,21758, Note_on_c, 0, 44, 0
2,21769, Note_on_c, 0, 62, 0
2,21784, Note_on_c, 0, 45, 67
2,21837, Note_on_c, 0, 45, 0
2,21864, Note_on_c, 0, 44, 58
2,21909, Note_on_c, 0, 44, 0
2,21937, Note_on_c, 0, 65, 75
2,21945, Note_on_c, 0, 45, 61
2,21996, Note_on_c, 0, 66, 0
2,22002, Note_on_c, 0, 45, 0
2,22018, Note_on_c, 0, 44, 63
2,22084, Note_on_c, 0, 44, 0
2,22108, Note_on_c, 0, 45, 61
2,22173, Note_on_c, 0, 45, 0
2,22185, Note_on_c, 0, 56, 61
2,22195, Note_on_c, 0, 44, 64
2,22235, Note_on_c, 0, 44, 0
2,22251, Note_on_c, 0, 42, 62
2,22264, Note_on_c, 0, 65, 0
2,22325, Note_on_c, 0, 56, 0
2,22335, Note_on_c, 0, 42, 0
2,22344, Note_on_c, 0, 44, 62
2,22463, Note_on_c, 0, 66, 63
2,22471, Note_on_c, 0, 57, 48
2,22472, Note_on_c, 0, 42, 58
2,22475, Note_on_c, 0, 44, 0
2,22600, Note_on_c, 0, 66, 0
2,22626, Note_on_c, 0, 57, 0
2,22739, Note_on_c, 0, 69, 70
2,22744, Note_on_c, 0, 61, 56
2,22795, Note_on_c, 0, 42, 0
2,22823, Note_on_c, 0, 61, 0
2,22920, Note_on_c, 0, 69, 0
2,23026, Note_on_c, 0, 71, 71
2,23032, Note_on_c, 0, 50, 49
2,23172, Note_on_c, 0, 71, 0
2,23289, Note_on_c, 0, 54, 56
2,23291, Note_on_c, 0, 74, 63
2,23422, Note_on_c, 0, 54, 0
2,23472, Note_on_c, 0, 74, 0
2,23589, Note_on_c, 0, 56, 63
2,23724, Note_on_c, 0, 56, 0
2,23836, Note_on_c, 0, 68, 62
2,23857, Note_on_c, 0, 59, 56
2,23956, Note_on_c, 0, 50, 0
2,23982, Note_on_c, 0, 59, 0
2,24025, Note_on_c, 0, 68, 0
2,24126, Note_on_c, 0, 69, 67
2,24129, Note_on_c, 0, 49, 60
2,24305, Note_on_c, 0, 69, 0
2,24405, Note_on_c, 0, 73, 69
2,24408, Note_on_c, 0, 57, 56
2,24518, Note_on_c, 0, 49, 0
2,24579, Note_on_c, 0, 57, 0
2,24599, Note_on_c, 0, 73, 0
2,24693, Note_on_c, 0, 62, 66
2,24695, Note_on_c, 0, 47, 54
2,24969, Note_on_c, 0, 66, 63
2,25095, Note_on_c, 0, 68, 63
2,25114, Note_on_c, 0, 66, 0
2,25198, Note_on_c, 0, 68, 0
2,25228, Note_on_c, 0, 69, 54
2,25258, Note_on_c, 0, 59, 50
2,25272, Note_on_c, 0, 69, 0
2,25305, Note_on_c, 0, 68, 56
2,25344, Note_on_c, 0, 68, 0
2,25360, Note_on_c, 0, 69, 70
2,25397, Note_on_c, 0, 47, 0
2,25402, Note_on_c, 0, 69, 0
2,25410, Note_on_c, 0, 68, 68
2,25459, Note_on_c, 0, 68, 0
2,25464, Note_on_c, 0, 69, 69
2,25496, Note_on_c, 0, 52, 51
2,25522, Note_on_c, 0, 68, 71
2,25535, Note_on_c, 0, 62, 0
2,25550, Note_on_c, 0, 69, 0
2,25582, Note_on_c, 0, 68, 0
2,25586, Note_on_c, 0, 52, 0
2,25586, Note_on_c, 0, 66, 77
2,25640, Note_on_c, 0, 68, 67
2,25675, Note_on_c, 0, 66, 0
2,25734, Note_on_c, 0, 64, 64
2,25735, Note_on_c, 0, 69, 82
2,25742, Note_on_c, 0, 49, 55
2,25748, Note_on_c, 0, 68, 0
2,25794, Note_on_c, 0, 59, 0
2,25884, Note_on_c, 0, 64, 0
2,25913, Note_on_c, 0, 49, 0
2,26010, Note_on_c, 0, 61, 75
2,26014, Note_on_c, 0, 45, 56
2,26101, Note_on_c, 0, 45, 0
2,26158, Note_on_c, 0, 61, 0
2,26293, Note_on_c, 0, 54, 60
2,26294, Note_on_c, 0, 63, 77
2,26299, Note_on_c, 0, 69, 0
2,26479, Note_on_c, 0, 63, 0
2,26567, Note_on_c, 0, 75, 65
2,26578, Note_on_c, 0, 66, 69
2,26759, Note_on_c, 0, 75, 0
2,26764, Note_on_c, 0, 66, 0
2,26838, Note_on_c, 0, 72, 72
2,27008, Note_on_c, 0, 72, 0
2,27099, Note_on_c, 0, 60, 70
2,27126, Note_on_c, 0, 68, 65
2,27194, Note_on_c, 0, 54, 0
2,27245, Note_on_c, 0, 60, 0
2,27264, Note_on_c, 0, 68, 0
2,27400, Note_on_c, 0, 52, 60
2,27400, Note_on_c, 0, 61, 70
2,27546, Note_on_c, 0, 61, 0
2,27662, Note_on_c, 0, 73, 78
2,27678, Note_on_c, 0, 64, 64
2,27779, Note_on_c, 0, 52, 0
2,27815, Note_on_c, 0, 64, 0
2,27817, Note_on_c, 0, 73, 0
2,27970, Note_on_c, 0, 78, 76
2,27973, Note_on_c, 0, 74, 37
2,27982, Note_on_c, 0, 51, 51
2,28015, Note_on_c, 0, 74, 0
2,28268, Note_on_c, 0, 58, 58
2,28373, Note_on_c, 0, 78, 0
2,28412, Note_on_c, 0, 60, 63
2,28418, Note_on_c, 0, 58, 0
2,28536, Note_on_c, 0, 60, 0
2,28542, Note_on_c, 0, 75, 66
2,28555, Note_on_c, 0, 61, 60
2,28620, Note_on_c, 0, 61, 0
2,28628, Note_on_c, 0, 60, 67
2,28690, Note_on_c, 0, 60, 0
2,28699, Note_on_c, 0, 61, 74
2,28769, Note_on_c, 0, 60, 75
2,28776, Note_on_c, 0, 75, 0
2,28777, Note_on_c, 0, 61, 0
2,28791, Note_on_c, 0, 51, 0
2,28815, Note_on_c, 0, 56, 54
2,28846, Note_on_c, 0, 60, 0
2,28870, Note_on_c, 0, 58, 68
2,28905, Note_on_c, 0, 56, 0
2,28954, Note_on_c, 0, 60, 79
2,28975, Note_on_c, 0, 58, 0
2,29060, Note_on_c, 0, 80, 70
2,29067, Note_on_c, 0, 61, 68
2,29078, Note_on_c, 0, 52, 64
2,29106, Note_on_c, 0, 60, 0
2,29202, Note_on_c, 0, 52, 0
2,29247, Note_on_c, 0, 80, 0
2,29343, Note_on_c, 0, 49, 69
2,29350, Note_on_c, 0, 76, 69
2,29494, Note_on_c, 0, 49, 0
2,29509, Note_on_c, 0, 76, 0
2,29629, Note_on_c, 0, 57, 65
2,29647, Note_on_c, 0, 78, 66
2,29705, Note_on_c, 0, 61, 0
2,29804, Note_on_c, 0, 78, 0
2,29925, Note_on_c, 0, 81, 60
2,29928, Note_on_c, 0, 66, 59
2,30041, Note_on_c, 0, 66, 0
2,30072, Note_on_c, 0, 81, 0
2,30210, Note_on_c, 0, 62, 62
2,30358, Note_on_c, 0, 62, 0
2,30491, Note_on_c, 0, 59, 56
2,30495, Note_on_c, 0, 74, 58
2,30615, Note_on_c, 0, 59, 0
2,30619, Note_on_c, 0, 57, 0
2,30660, Note_on_c, 0, 74, 0
2,30790, Note_on_c, 0, 76, 60
2,30794, Note_on_c, 0, 56, 60
2,30949, Note_on_c, 0, 76, 0
2,31072, Note_on_c, 0, 80, 61
2,31087, Note_on_c, 0, 64, 54
2,31220, Note_on_c, 0, 64, 0
2,31252, Note_on_c, 0, 80, 0
2,31362, Note_on_c, 0, 61, 64
2,31485, Note_on_c, 0, 61, 0
2,31518, Note_on_c, 0, 56, 0
2,31640, Note_on_c, 0, 73, 67
2,31651, Note_on_c, 0, 49, 56
2,31651, Note_on_c, 0, 57, 52
2,31774, Note_on_c, 0, 57, 0
2,31796, Note_on_c, 0, 49, 0
2,31810, Note_on_c, 0, 73, 0
2,31921, Note_on_c, 0, 54, 64
2,31921, Note_on_c, 0, 71, 67
2,32084, Note_on_c, 0, 71, 0
2,32201, Note_on_c, 0, 61, 65
2,32206, Note_on_c, 0, 69, 62
2,32352, Note_on_c, 0, 69, 0
2,32358, Note_on_c, 0, 61, 0
2,32489, Note_on_c, 0, 59, 67
2,32492, Note_on_c, 0, 68, 66
2,32642, Note_on_c, 0, 59, 0
2,32760, Note_on_c, 0, 57, 61
2,32875, Note_on_c, 0, 54, 0
2,32893, Note_on_c, 0, 57, 0
2,33039, Note_on_c, 0, 56, 57
2,33053, Note_on_c, 0, 53, 43
2,33108, Note_on_c, 0, 56, 0
2,33133, Note_on_c, 0, 57, 56
2,33135, Note_on_c, 0, 68, 0
2,33182, Note_on_c, 0, 57, 0
2,33196, Note_on_c, 0, 56, 60
2,33261, Note_on_c, 0, 56, 0
2,33270, Note_on_c, 0, 73, 77
2,33285, Note_on_c, 0, 57, 64
2,33322, Note_on_c, 0, 57, 0
2,33330, Note_on_c, 0, 56, 59
2,33393, Note_on_c, 0, 56, 0
2,33410, Note_on_c, 0, 57, 68
2,33471, Note_on_c, 0, 56, 63
2,33471, Note_on_c, 0, 73, 0
2,33490, Note_on_c, 0, 57, 0
2,33558, Note_on_c, 0, 53, 0
2,33560, Note_on_c, 0, 69, 69
2,33614, Note_on_c, 0, 54, 60
2,33627, Note_on_c, 0, 56, 0
2,33713, Note_on_c, 0, 69, 0
2,33838, Note_on_c, 0, 66, 72
2,33851, Note_on_c, 0, 57, 55
2,33975, Note_on_c, 0, 57, 0
2,34022, Note_on_c, 0, 66, 0
2,34122, Note_on_c, 0, 74, 76
2,34142, Note_on_c, 0, 59, 46
2,34191, Note_on_c, 0, 54, 0
2,34291, Note_on_c, 0, 59, 0
2,34408, Note_on_c, 0, 71, 58
2,34416, Note_on_c, 0, 62, 50
2,34530, Note_on_c, 0, 71, 0
2,34565, Note_on_c, 0, 62, 0
2,34691, Note_on_c, 0, 64, 54
2,34697, Note_on_c, 0, 56, 42
2,34850, Note_on_c, 0, 56, 0
2,34964, Note_on_c, 0, 73, 64
2,34984, Note_on_c, 0, 52, 38
2,35013, Note_on_c, 0, 74, 0
2,35101, Note_on_c, 0, 71, 67
2,35122, Note_on_c, 0, 73, 0
2,35178, Note_on_c, 0, 52, 0
2,35256, Note_on_c, 0, 73, 75
2,35273, Note_on_c, 0, 57, 51
2,35306, Note_on_c, 0, 71, 0
2,35327, Note_on_c, 0, 64, 0
2,35419, Note_on_c, 0, 57, 0
2,35508, Note_on_c, 0, 64, 54
2,35526, Note_on_c, 0, 61, 58
2,35636, Note_on_c, 0, 64, 0
2,35678, Note_on_c, 0, 61, 0
2,35792, Note_on_c, 0, 69, 67
2,35804, Note_on_c, 0, 54, 56
2,35890, Note_on_c, 0, 73, 0
2,35970, Note_on_c, 0, 54, 0
2,36059, Note_on_c, 0, 78, 75
2,36069, Note_on_c, 0, 51, 47
2,36196, Note_on_c, 0, 78, 0
2,36245, Note_on_c, 0, 51, 0
2,36331, Note_on_c, 0, 71, 76
2,36357, Note_on_c, 0, 56, 55
2,36397, Note_on_c, 0, 69, 0
2,36508, Note_on_c, 0, 56, 0
2,36623, Note_on_c, 0, 68, 51
2,36649, Note_on_c, 0, 59, 47
2,36754, Note_on_c, 0, 68, 0
2,36758, Note_on_c, 0, 66, 64
2,36773, Note_on_c, 0, 59, 0
2,36912, Note_on_c, 0, 53, 50
2,36914, Note_on_c, 0, 68, 64
2,36953, Note_on_c, 0, 66, 0
2,36991, Note_on_c, 0, 71, 0
2,37059, Note_on_c, 0, 68, 0
2,37082, Note_on_c, 0, 53, 0
2,37170, Note_on_c, 0, 49, 49
2,37180, Note_on_c, 0, 69, 65
2,37183, Note_on_c, 0, 65, 48
2,37303, Note_on_c, 0, 68, 72
2,37314, Note_on_c, 0, 49, 0
2,37348, Note_on_c, 0, 69, 0
2,37456, Note_on_c, 0, 65, 0
2,37465, Note_on_c, 0, 54, 57
2,37467, Note_on_c, 0, 69, 79
2,37469, Note_on_c, 0, 66, 60
2,37506, Note_on_c, 0, 68, 0
2,37552, Note_on_c, 0, 66, 0
2,37655, Note_on_c, 0, 54, 0
2,37732, Note_on_c, 0, 66, 71
2,37736, Note_on_c, 0, 57, 58
2,37813, Note_on_c, 0, 69, 0
2,37895, Note_on_c, 0, 57, 0
2,38001, Note_on_c, 0, 68, 72
2,38014, Note_on_c, 0, 59, 62
2,38165, Note_on_c, 0, 59, 0
2,38260, Note_on_c, 0, 66, 0
2,38281, Note_on_c, 0, 56, 56
2,38305, Note_on_c, 0, 64, 52
2,38419, Note_on_c, 0, 63, 60
2,38433, Note_on_c, 0, 64, 0
2,38449, Note_on_c, 0, 56, 0
2,38571, Note_on_c, 0, 61, 66
2,38575, Note_on_c, 0, 64, 55
2,38595, Note_on_c, 0, 63, 0
2,38740, Note_on_c, 0, 61, 0
2,38813, Note_on_c, 0, 68, 0
2,38840, Note_on_c, 0, 59, 57
2,39036, Note_on_c, 0, 59, 0
2,39128, Note_on_c, 0, 66, 62
2,39143, Note_on_c, 0, 58, 54
2,39205, Note_on_c, 0, 64, 0
2,39299, Note_on_c, 0, 58, 0
2,39409, Note_on_c, 0, 62, 46
2,39420, Note_on_c, 0, 54, 55
2,39522, Note_on_c, 0, 62, 0
2,39532, Note_on_c, 0, 61, 57
2,39564, Note_on_c, 0, 54, 0
2,39694, Note_on_c, 0, 62, 54
2,39702, Note_on_c, 0, 59, 57
2,39706, Note_on_c, 0, 61, 0
2,39764, Note_on_c, 0, 66, 0
2,39863, Note_on_c, 0, 59, 0
2,39957, Note_on_c, 0, 71, 70
2,39979, Note_on_c, 0, 57, 52
2,40113, Note_on_c, 0, 71, 0
2,40124, Note_on_c, 0, 57, 0
2,40225, Note_on_c, 0, 64, 68
2,40238, Note_on_c, 0, 56, 60
2,40397, Note_on_c, 0, 64, 0
2,40418, Note_on_c, 0, 56, 0
2,40512, Note_on_c, 0, 68, 66
2,40516, Note_on_c, 0, 52, 59
2,40547, Note_on_c, 0, 62, 0
2,40658, Note_on_c, 0, 52, 0
2,40670, Note_on_c, 0, 68, 0
2,40784, Note_on_c, 0, 54, 60
2,40784, Note_on_c, 0, 61, 72
2,40792, Note_on_c, 0, 69, 65
2,40941, Note_on_c, 0, 69, 0
2,40964, Note_on_c, 0, 54, 0
2,41055, Note_on_c, 0, 73, 79
2,41057, Note_on_c, 0, 57, 58
2,41192, Note_on_c, 0, 73, 0
2,41229, Note_on_c, 0, 57, 0
2,41343, Note_on_c, 0, 66, 74
2,41344, Note_on_c, 0, 50, 62
2,41456, Note_on_c, 0, 61, 0
2,41489, Note_on_c, 0, 50, 0
2,41605, Note_on_c, 0, 47, 61
2,41612, Note_on_c, 0, 62, 67
2,41705, Note_on_c, 0, 66, 0
2,41760, Note_on_c, 0, 47, 0
2,41774, Note_on_c, 0, 62, 0
2,41886, Note_on_c, 0, 52, 61
2,41886, Note_on_c, 0, 68, 73
2,41894, Note_on_c, 0, 59, 62
2,42029, Note_on_c, 0, 52, 0
2,42051, Note_on_c, 0, 59, 0
2,42159, Note_on_c, 0, 40, 62
2,42161, Note_on_c, 0, 64, 69
2,42248, Note_on_c, 0, 68, 0
2,42291, Note_on_c, 0, 40, 0
2,42336, Note_on_c, 0, 64, 0
2,42456, Note_on_c, 0, 45, 63
2,42460, Note_on_c, 0, 61, 59
2,42461, Note_on_c, 0, 69, 66
2,42601, Note_on_c, 0, 45, 0
2,42737, Note_on_c, 0, 57, 69
2,42889, Note_on_c, 0, 57, 0
2,43026, Note_on_c, 0, 56, 74
2,43168, Note_on_c, 0, 69, 0
2,43268, Note_on_c, 0, 61, 0
2,43421, Note_on_c, 0, 54, 70
2,43480, Note_on_c, 0, 56, 0
2,43589, Note_on_c, 0, 53, 76
2,43603, Note_on_c, 0, 54, 0
2,43734, Note_on_c, 0, 53, 0
2,43853, Note_on_c, 0, 61, 64
2,43862, Note_on_c, 0, 49, 59
2,43998, Note_on_c, 0, 49, 0
2,44008, Note_on_c, 0, 61, 0
2,44149, Note_on_c, 0, 59, 71
2,44160, Note_on_c, 0, 54, 66
2,44581, Note_on_c, 0, 57, 65
2,44647, Note_on_c, 0, 59, 0
2,44739, Note_on_c, 0, 56, 74
2,44800, Note_on_c, 0, 57, 0
2,45010, Note_on_c, 0, 74, 74
2,45081, Note_on_c, 0, 54, 0
2,45087, Note_on_c, 0, 56, 0
2,45219, Note_on_c, 0, 74, 0
2,45286, Note_on_c, 0, 53, 54
2,45288, Note_on_c, 0, 73, 78
2,45560, Note_on_c, 0, 61, 59
2,45568, Note_on_c, 0, 52, 57
2,45625, Note_on_c, 0, 53, 0
2,45679, Note_on_c, 0, 71, 78
2,45709, Note_on_c, 0, 73, 0
2,45847, Note_on_c, 0, 70, 78
2,45853, Note_on_c, 0, 54, 56
2,45858, Note_on_c, 0, 71, 0
2,45875, Note_on_c, 0, 61, 0
2,45973, Note_on_c, 0, 70, 0
2,46076, Note_on_c, 0, 54, 0
2,46116, Note_on_c, 0, 50, 53
2,46119, Note_on_c, 0, 52, 0
2,46125, Note_on_c, 0, 66, 72
2,46261, Note_on_c, 0, 50, 0
2,46278, Note_on_c, 0, 66, 0
2,46386, Note_on_c, 0, 64, 72
2,46386, Note_on_c, 0, 71, 72
2,46392, Note_on_c, 0, 49, 58
2,46555, Note_on_c, 0, 49, 0
2,46667, Note_on_c, 0, 47, 55
2,46783, Note_on_c, 0, 62, 70
2,46801, Note_on_c, 0, 64, 0
2,46805, Note_on_c, 0, 47, 0
2,46942, Note_on_c, 0, 52, 55
2,46951, Note_on_c, 0, 61, 74
2,46978, Note_on_c, 0, 62, 0
2,47074, Note_on_c, 0, 71, 0
2,47093, Note_on_c, 0, 52, 0
2,47118, Note_on_c, 0, 61, 0
2,47214, Note_on_c, 0, 67, 76
2,47220, Note_on_c, 0, 49, 57
2,47361, Note_on_c, 0, 49, 0
2,47392, Note_on_c, 0, 67, 0
2,47504, Note_on_c, 0, 70, 76
2,47505, Note_on_c, 0, 66, 69
2,47517, Note_on_c, 0, 54, 62
2,47665, Note_on_c, 0, 54, 0
2,47735, Note_on_c, 0, 70, 0
2,47776, Note_on_c, 0, 42, 56
2,47791, Note_on_c, 0, 69, 70
2,47904, Note_on_c, 0, 64, 78
2,47916, Note_on_c, 0, 42, 0
2,47920, Note_on_c, 0, 66, 0
2,48051, Note_on_c, 0, 47, 60
2,48052, Note_on_c, 0, 63, 76
2,48069, Note_on_c, 0, 64, 0
2,48152, Note_on_c, 0, 69, 0
2,48186, Note_on_c, 0, 63, 0
2,48315, Note_on_c, 0, 59, 75
2,48327, Note_on_c, 0, 71, 64
2,48419, Note_on_c, 0, 71, 0
2,48464, Note_on_c, 0, 59, 0
2,48595, Note_on_c, 0, 64, 76
2,48595, Note_on_c, 0, 69, 68
2,48659, Note_on_c, 0, 47, 0
2,48880, Note_on_c, 0, 49, 59
2,48984, Note_on_c, 0, 68, 67
2,49026, Note_on_c, 0, 49, 0
2,49029, Note_on_c, 0, 69, 0
2,49149, Note_on_c, 0, 45, 57
2,49151, Note_on_c, 0, 66, 70
2,49198, Note_on_c, 0, 68, 0
2,49284, Note_on_c, 0, 45, 0
2,49409, Note_on_c, 0, 61, 68
2,49468, Note_on_c, 0, 64, 0
2,49585, Note_on_c, 0, 61, 0
2,49699, Note_on_c, 0, 59, 71
2,49707, Note_on_c, 0, 63, 58
2,49985, Note_on_c, 0, 62, 58
2,50029, Note_on_c, 0, 63, 0
2,50035, Note_on_c, 0, 66, 0
2,50094, Note_on_c, 0, 57, 65
2,50142, Note_on_c, 0, 59, 0
2,50249, Note_on_c, 0, 56, 69
2,50268, Note_on_c, 0, 64, 60
2,50287, Note_on_c, 0, 57, 0
2,50387, Note_on_c, 0, 56, 0
2,50495, Note_on_c, 0, 62, 0
2,50531, Note_on_c, 0, 52, 61
2,50543, Note_on_c, 0, 61, 55
2,50645, Note_on_c, 0, 52, 0
2,50649, Note_on_c, 0, 61, 0
2,50659, Note_on_c, 0, 59, 63
2,50806, Note_on_c, 0, 61, 61
2,50814, Note_on_c, 0, 57, 66
2,50870, Note_on_c, 0, 59, 0
2,50886, Note_on_c, 0, 64, 0
2,50943, Note_on_c, 0, 61, 0
2,51066, Note_on_c, 0, 69, 62
2,51082, Note_on_c, 0, 66, 61
2,51217, Note_on_c, 0, 69, 0
2,51222, Note_on_c, 0, 66, 0
2,51368, Note_on_c, 0, 71, 67
2,51372, Note_on_c, 0, 62, 58
2,51548, Note_on_c, 0, 62, 0
2,51651, Note_on_c, 0, 59, 56
2,51765, Note_on_c, 0, 59, 0
2,51773, Note_on_c, 0, 57, 0
2,51934, Note_on_c, 0, 64, 65
2,51938, Note_on_c, 0, 56, 54
2,52060, Note_on_c, 0, 71, 0
2,52103, Note_on_c, 0, 56, 0
2,52197, Note_on_c, 0, 68, 68
2,52201, Note_on_c, 0, 52, 49
2,52356, Note_on_c, 0, 52, 0
2,52356, Note_on_c, 0, 68, 0
2,52479, Note_on_c, 0, 73, 74
2,52489, Note_on_c, 0, 57, 65
2,52560, Note_on_c, 0, 64, 0
2,52773, Note_on_c, 0, 61, 65
2,52958, Note_on_c, 0, 61, 0
2,53057, Note_on_c, 0, 66, 75
2,53147, Note_on_c, 0, 73, 0
2,53173, Note_on_c, 0, 57, 0
2,53310, Note_on_c, 0, 54, 64
2,53310, Note_on_c, 0, 69, 71
2,53434, Note_on_c, 0, 69, 0
2,53463, Note_on_c, 0, 54, 0
2,53608, Note_on_c, 0, 74, 76
2,53611, Note_on_c, 0, 59, 70
2,53708, Note_on_c, 0, 66, 0
2,53858, Note_on_c, 0, 69, 74
2,54033, Note_on_c, 0, 69, 0
2,54142, Note_on_c, 0, 68, 76
2,54296, Note_on_c, 0, 59, 0
2,54421, Note_on_c, 0, 56, 66
2,54516, Note_on_c, 0, 66, 74
2,54558, Note_on_c, 0, 56, 0
2,54595, Note_on_c, 0, 68, 0
2,54598, Note_on_c, 0, 74, 0
2,54683, Note_on_c, 0, 64, 72
2,54692, Note_on_c, 0, 61, 70
2,54736, Note_on_c, 0, 66, 0
2,54867, Note_on_c, 0, 64, 0
2,54943, Note_on_c, 0, 74, 74
2,54949, Note_on_c, 0, 71, 68
2,55078, Note_on_c, 0, 71, 0
2,55113, Note_on_c, 0, 74, 0
2,55226, Note_on_c, 0, 73, 81
2,55234, Note_on_c, 0, 69, 72
2,55512, Note_on_c, 0, 68, 61
2,55538, Note_on_c, 0, 69, 0
2,55627, Note_on_c, 0, 71, 77
2,55671, Note_on_c, 0, 68, 0
2,55726, Note_on_c, 0, 73, 0
2,55763, Note_on_c, 0, 61, 0
2,55793, Note_on_c, 0, 69, 77
2,55801, Note_on_c, 0, 66, 59
2,55840, Note_on_c, 0, 71, 0
2,56047, Note_on_c, 0, 61, 68
2,56049, Note_on_c, 0, 64, 73
2,56120, Note_on_c, 0, 69, 0
2,56145, Note_on_c, 0, 64, 0
2,56179, Note_on_c, 0, 66, 0
2,56199, Note_on_c, 0, 61, 0
2,56330, Note_on_c, 0, 78, 82
2,56331, Note_on_c, 0, 62, 57
2,56332, Note_on_c, 0, 59, 57
2,56630, Note_on_c, 0, 61, 65
2,56674, Note_on_c, 0, 59, 0
2,56716, Note_on_c, 0, 62, 0
2,56756, Note_on_c, 0, 57, 60
2,56895, Note_on_c, 0, 56, 68
2,56904, Note_on_c, 0, 59, 71
2,56935, Note_on_c, 0, 61, 0
2,56943, Note_on_c, 0, 57, 0
2,57144, Note_on_c, 0, 76, 74
2,57160, Note_on_c, 0, 78, 0
2,57348, Note_on_c, 0, 76, 0
2,57453, Note_on_c, 0, 66, 68
2,57454, Note_on_c, 0, 58, 74
2,57462, Note_on_c, 0, 74, 75
2,57495, Note_on_c, 0, 59, 0
2,57502, Note_on_c, 0, 56, 0
2,57871, Note_on_c, 0, 73, 70
2,57902, Note_on_c, 0, 74, 0
2,58030, Note_on_c, 0, 74, 63
2,58040, Note_on_c, 0, 59, 60
2,58068, Note_on_c, 0, 58, 0
2,58099, Note_on_c, 0, 73, 0
2,58129, Note_on_c, 0, 66, 0
2,58177, Note_on_c, 0, 74, 0
2,58301, Note_on_c, 0, 71, 70
2,58323, Note_on_c, 0, 62, 74
2,58408, Note_on_c, 0, 59, 0
2,58447, Note_on_c, 0, 71, 0
2,58453, Note_on_c, 0, 62, 0
2,58571, Note_on_c, 0, 76, 74
2,58581, Note_on_c, 0, 61, 72
2,58591, Note_on_c, 0, 55, 60
2,58991, Note_on_c, 0, 61, 0
2,59004, Note_on_c, 0, 59, 65
2,59139, Note_on_c, 0, 58, 74
2,59146, Note_on_c, 0, 54, 60
2,59181, Note_on_c, 0, 59, 0
2,59181, Note_on_c, 0, 76, 0
2,59182, Note_on_c, 0, 55, 0
2,59270, Note_on_c, 0, 54, 0
2,59308, Note_on_c, 0, 58, 0
2,59405, Note_on_c, 0, 54, 62
2,59409, Note_on_c, 0, 78, 73
2,59568, Note_on_c, 0, 54, 0
2,59578, Note_on_c, 0, 78, 0
2,59689, Note_on_c, 0, 59, 54
2,59696, Note_on_c, 0, 74, 62
2,59872, Note_on_c, 0, 74, 0
2,59952, Note_on_c, 0, 55, 55
2,59962, Note_on_c, 0, 71, 64
2,60086, Note_on_c, 0, 55, 0
2,60132, Note_on_c, 0, 71, 0
2,60252, Note_on_c, 0, 73, 64
2,60253, Note_on_c, 0, 52, 51
2,60399, Note_on_c, 0, 52, 0
2,60515, Note_on_c, 0, 49, 57
2,60603, Note_on_c, 0, 59, 0
2,60648, Note_on_c, 0, 49, 0
2,60801, Note_on_c, 0, 73, 0
2,60807, Note_on_c, 0, 58, 63
2,60815, Note_on_c, 0, 54, 60
2,61072, Note_on_c, 0, 66, 73
2,61080, Note_on_c, 0, 70, 61
2,61176, Note_on_c, 0, 70, 0
2,61269, Note_on_c, 0, 66, 0
2,61361, Note_on_c, 0, 62, 78
2,61373, Note_on_c, 0, 71, 62
2,61444, Note_on_c, 0, 58, 0
2,61472, Note_on_c, 0, 71, 0
2,61550, Note_on_c, 0, 62, 0
2,61648, Note_on_c, 0, 59, 75
2,61659, Note_on_c, 0, 74, 68
2,61716, Note_on_c, 0, 54, 0
2,61762, Note_on_c, 0, 74, 0
2,61850, Note_on_c, 0, 59, 0
2,61942, Note_on_c, 0, 67, 78
2,61952, Note_on_c, 0, 52, 52
2,61952, Note_on_c, 0, 73, 68
2,62085, Note_on_c, 0, 52, 0
2,62240, Note_on_c, 0, 50, 53
2,62354, Note_on_c, 0, 50, 0
2,62368, Note_on_c, 0, 71, 64
2,62403, Note_on_c, 0, 73, 0
2,62526, Note_on_c, 0, 49, 47
2,62531, Note_on_c, 0, 69, 59
2,62599, Note_on_c, 0, 71, 0
2,62656, Note_on_c, 0, 67, 0
2,62660, Note_on_c, 0, 49, 0
2,62797, Note_on_c, 0, 66, 66
2,62803, Note_on_c, 0, 45, 46
2,62911, Note_on_c, 0, 64, 70
2,62953, Note_on_c, 0, 66, 0
2,62959, Note_on_c, 0, 45, 0
2,63068, Note_on_c, 0, 50, 54
2,63074, Note_on_c, 0, 66, 73
2,63134, Note_on_c, 0, 64, 0
2,63150, Note_on_c, 0, 69, 0
2,63239, Note_on_c, 0, 50, 0
2,63336, Note_on_c, 0, 49, 59
2,63339, Note_on_c, 0, 74, 63
2,63458, Note_on_c, 0, 74, 0
2,63502, Note_on_c, 0, 49, 0
2,63608, Note_on_c, 0, 47, 65
2,63624, Note_on_c, 0, 67, 69
2,63702, Note_on_c, 0, 66, 0
2,63789, Note_on_c, 0, 47, 0
2,63874, Note_on_c, 0, 71, 77
2,63876, Note_on_c, 0, 50, 67
2,64018, Note_on_c, 0, 50, 0
2,64025, Note_on_c, 0, 71, 0
2,64158, Note_on_c, 0, 64, 72
2,64165, Note_on_c, 0, 49, 71
2,64237, Note_on_c, 0, 67, 0
2,64432, Note_on_c, 0, 73, 71
2,64575, Note_on_c, 0, 47, 65
2,64583, Note_on_c, 0, 73, 0
2,64591, Note_on_c, 0, 49, 0
2,64726, Note_on_c, 0, 66, 71
2,64731, Note_on_c, 0, 46, 68
2,64773, Note_on_c, 0, 47, 0
2,64889, Note_on_c, 0, 46, 0
2,64958, Note_on_c, 0, 64, 0
2,65011, Note_on_c, 0, 62, 61
2,65016, Note_on_c, 0, 42, 63
2,65128, Note_on_c, 0, 61, 71
2,65152, Note_on_c, 0, 62, 0
2,65156, Note_on_c, 0, 42, 0
2,65282, Note_on_c, 0, 62, 67
2,65290, Note_on_c, 0, 47, 63
2,65346, Note_on_c, 0, 61, 0
2,65457, Note_on_c, 0, 62, 0
2,65558, Note_on_c, 0, 59, 67
2,65697, Note_on_c, 0, 59, 0
2,65832, Note_on_c, 0, 61, 71
2,65926, Note_on_c, 0, 66, 0
2,66085, Note_on_c, 0, 65, 55
2,66107, Note_on_c, 0, 45, 53
2,66141, Note_on_c, 0, 47, 0
2,66171, Note_on_c, 0, 65, 0
2,66216, Note_on_c, 0, 45, 0
2,66219, Note_on_c, 0, 44, 55
2,66356, Note_on_c, 0, 66, 64
2,66357, Note_on_c, 0, 45, 61
2,66389, Note_on_c, 0, 44, 0
2,66476, Note_on_c, 0, 66, 0
2,66666, Note_on_c, 0, 69, 66
2,66738, Note_on_c, 0, 61, 0
2,66827, Note_on_c, 0, 69, 0
2,66904, Note_on_c, 0, 59, 65
2,66912, Note_on_c, 0, 63, 66
2,67035, Note_on_c, 0, 63, 0
2,67164, Note_on_c, 0, 66, 63
2,67166, Note_on_c, 0, 44, 58
2,67193, Note_on_c, 0, 45, 0
2,67244, Note_on_c, 0, 66, 0
2,67298, Note_on_c, 0, 42, 60
2,67300, Note_on_c, 0, 44, 0
2,67442, Note_on_c, 0, 71, 72
2,67455, Note_on_c, 0, 44, 56
2,67480, Note_on_c, 0, 42, 0
2,67519, Note_on_c, 0, 59, 0
2,67567, Note_on_c, 0, 44, 0
2,67707, Note_on_c, 0, 68, 56
2,67709, Note_on_c, 0, 40, 56
2,67832, Note_on_c, 0, 68, 0
2,67834, Note_on_c, 0, 40, 0
2,67979, Note_on_c, 0, 64, 66
2,67980, Note_on_c, 0, 49, 67
2,68122, Note_on_c, 0, 49, 0
2,68246, Note_on_c, 0, 37, 57
2,68252, Note_on_c, 0, 69, 59
2,68299, Note_on_c, 0, 71, 0
2,68351, Note_on_c, 0, 37, 0
2,68379, Note_on_c, 0, 68, 68
2,68400, Note_on_c, 0, 69, 0
2,68523, Note_on_c, 0, 49, 67
2,68534, Note_on_c, 0, 69, 70
2,68570, Note_on_c, 0, 68, 0
2,68638, Note_on_c, 0, 69, 0
2,68778, Note_on_c, 0, 73, 77
2,68920, Note_on_c, 0, 64, 0
2,68965, Note_on_c, 0, 73, 0
2,69060, Note_on_c, 0, 66, 66
2,69063, Note_on_c, 0, 62, 70
2,69163, Note_on_c, 0, 66, 0
2,69303, Note_on_c, 0, 47, 60
2,69303, Note_on_c, 0, 69, 65
2,69344, Note_on_c, 0, 49, 0
2,69405, Note_on_c, 0, 69, 0
2,69430, Note_on_c, 0, 45, 65
2,69446, Note_on_c, 0, 47, 0
2,69570, Note_on_c, 0, 74, 81
2,69601, Note_on_c, 0, 47, 63
2,69624, Note_on_c, 0, 45, 0
2,69718, Note_on_c, 0, 47, 0
2,69747, Note_on_c, 0, 62, 0
2,69844, Note_on_c, 0, 71, 70
2,69849, Note_on_c, 0, 44, 65
2,69977, Note_on_c, 0, 71, 0
2,69999, Note_on_c, 0, 44, 0
2,70070, Note_on_c, 0, 74, 0
2,70113, Note_on_c, 0, 41, 61
2,70114, Note_on_c, 0, 68, 72
2,70238, Note_on_c, 0, 41, 0
2,70273, Note_on_c, 0, 68, 0
2,70376, Note_on_c, 0, 74, 81
2,70385, Note_on_c, 0, 65, 67
2,70387, Note_on_c, 0, 56, 67
2,70530, Note_on_c, 0, 74, 0
2,70560, Note_on_c, 0, 56, 0
2,70653, Note_on_c, 0, 69, 23
2,70661, Note_on_c, 0, 73, 85
2,70667, Note_on_c, 0, 53, 57
2,70679, Note_on_c, 0, 69, 0
2,70827, Note_on_c, 0, 53, 0
2,70868, Note_on_c, 0, 65, 0
2,70939, Note_on_c, 0, 68, 64
2,70945, Note_on_c, 0, 49, 50
2,71052, Note_on_c, 0, 73, 0
2,71056, Note_on_c, 0, 71, 71
2,71118, Note_on_c, 0, 49, 0
2,71220, Note_on_c, 0, 69, 73
2,71236, Note_on_c, 0, 54, 61
2,71266, Note_on_c, 0, 71, 0
2,71380, Note_on_c, 0, 68, 0
2,71381, Note_on_c, 0, 54, 0
2,71477, Note_on_c, 0, 66, 61
2,71505, Note_on_c, 0, 56, 57
2,71603, Note_on_c, 0, 66, 0
2,71606, Note_on_c, 0, 65, 75
2,71638, Note_on_c, 0, 56, 0
2,71752, Note_on_c, 0, 66, 72
2,71768, Note_on_c, 0, 57, 56
2,71804, Note_on_c, 0, 65, 0
2,71890, Note_on_c, 0, 57, 0
2,71907, Note_on_c, 0, 66, 0
2,72019, Note_on_c, 0, 63, 71
2,72031, Note_on_c, 0, 54, 55
2,72153, Note_on_c, 0, 63, 0
2,72172, Note_on_c, 0, 54, 0
2,72300, Note_on_c, 0, 60, 75
2,72306, Note_on_c, 0, 56, 55
2,72356, Note_on_c, 0, 69, 0
2,72449, Note_on_c, 0, 56, 0
2,72579, Note_on_c, 0, 68, 61
2,72583, Note_on_c, 0, 44, 49
2,72716, Note_on_c, 0, 66, 70
2,72743, Note_on_c, 0, 68, 0
2,72804, Note_on_c, 0, 44, 0
2,72865, Note_on_c, 0, 68, 70
2,72913, Note_on_c, 0, 66, 0
2,72973, Note_on_c, 0, 68, 0
2,73115, Note_on_c, 0, 56, 70
2,73141, Note_on_c, 0, 63, 59
2,73217, Note_on_c, 0, 60, 0
2,73264, Note_on_c, 0, 63, 0
2,73275, Note_on_c, 0, 56, 0
2,73385, Note_on_c, 0, 61, 70
2,73391, Note_on_c, 0, 52, 63
2,73394, Note_on_c, 0, 64, 69
2,73545, Note_on_c, 0, 52, 0
2,73570, Note_on_c, 0, 64, 0
2,73666, Note_on_c, 0, 49, 74
2,73666, Note_on_c, 0, 76, 74
2,73803, Note_on_c, 0, 49, 0
2,73848, Note_on_c, 0, 76, 0
2,73936, Note_on_c, 0, 57, 74
2,73972, Note_on_c, 0, 75, 78
2,74020, Note_on_c, 0, 61, 0
2,74379, Note_on_c, 0, 73, 77
2,74425, Note_on_c, 0, 75, 0
2,74513, Note_on_c, 0, 72, 71
2,74544, Note_on_c, 0, 73, 0
2,74670, Note_on_c, 0, 72, 0
2,74772, Note_on_c, 0, 57, 0
2,74788, Note_on_c, 0, 56, 53
2,74788, Note_on_c, 0, 75, 58
2,74790, Note_on_c, 0, 78, 61
2,74896, Note_on_c, 0, 75, 0
2,74914, Note_on_c, 0, 56, 0
2,74916, Note_on_c, 0, 54, 61
2,74940, Note_on_c, 0, 78, 0
2,75070, Note_on_c, 0, 73, 67
2,75071, Note_on_c, 0, 76, 71
2,75076, Note_on_c, 0, 56, 57
2,75103, Note_on_c, 0, 54, 0
2,75353, Note_on_c, 0, 75, 75
2,75416, Note_on_c, 0, 73, 0
2,75417, Note_on_c, 0, 76, 0
2,75453, Note_on_c, 0, 72, 69
2,75608, Note_on_c, 0, 73, 73
2,75612, Note_on_c, 0, 76, 80
2,75648, Note_on_c, 0, 75, 0
2,75655, Note_on_c, 0, 72, 0
2,75715, Note_on_c, 0, 73, 0
2,75752, Note_on_c, 0, 56, 0
2,75877, Note_on_c, 0, 61, 73
2,75877, Note_on_c, 0, 71, 68
2,76009, Note_on_c, 0, 61, 0
2,76027, Note_on_c, 0, 71, 0
2,76139, Note_on_c, 0, 69, 71
2,76150, Note_on_c, 0, 54, 74
2,76194, Note_on_c, 0, 76, 0
2,76298, Note_on_c, 0, 69, 0
2,76407, Note_on_c, 0, 66, 76
2,76416, Note_on_c, 0, 75, 72
2,76541, Note_on_c, 0, 73, 78
2,76587, Note_on_c, 0, 66, 0
2,76601, Note_on_c, 0, 75, 0
2,76694, Note_on_c, 0, 80, 77
2,76696, Note_on_c, 0, 60, 68
2,76745, Note_on_c, 0, 73, 0
2,76809, Note_on_c, 0, 60, 0
2,76819, Note_on_c, 0, 80, 0
2,76839, Note_on_c, 0, 54, 0
2,76960, Note_on_c, 0, 72, 65
2,76964, Note_on_c, 0, 63, 52
2,77059, Note_on_c, 0, 72, 0
2,77077, Note_on_c, 0, 51, 64
2,77228, Note_on_c, 0, 73, 75
2,77233, Note_on_c, 0, 52, 43
2,77239, Note_on_c, 0, 56, 56
2,77265, Note_on_c, 0, 51, 0
2,77302, Note_on_c, 0, 63, 0
2,77371, Note_on_c, 0, 52, 0
2,77396, Note_on_c, 0, 56, 0
2,77496, Note_on_c, 0, 68, 58
2,77498, Note_on_c, 0, 49, 57
2,77616, Note_on_c, 0, 49, 0
2,77767, Note_on_c, 0, 66, 59
2,77776, Note_on_c, 0, 51, 53
2,77776, Note_on_c, 0, 68, 0
2,77897, Note_on_c, 0, 66, 0
2,77898, Note_on_c, 0, 68, 65
2,78008, Note_on_c, 0, 73, 0
2,78038, Note_on_c, 0, 66, 67
2,78083, Note_on_c, 0, 68, 0
2,78160, Note_on_c, 0, 64, 69
2,78181, Note_on_c, 0, 66, 0
2,78314, Note_on_c, 0, 72, 70
2,78316, Note_on_c, 0, 56, 45
2,78316, Note_on_c, 0, 66, 51
2,78337, Note_on_c, 0, 64, 0
2,78378, Note_on_c, 0, 51, 0
2,78422, Note_on_c, 0, 66, 0
2,78456, Note_on_c, 0, 64, 61
2,78573, Note_on_c, 0, 64, 0
2,78591, Note_on_c, 0, 63, 63
2,78680, Note_on_c, 0, 72, 0
2,78711, Note_on_c, 0, 66, 62
2,78771, Note_on_c, 0, 63, 0
2,78865, Note_on_c, 0, 73, 71
2,78869, Note_on_c, 0, 49, 43
2,78872, Note_on_c, 0, 56, 0
2,78875, Note_on_c, 0, 64, 58
2,78877, Note_on_c, 0, 66, 0
2,78995, Note_on_c, 0, 64, 0
2,79004, Note_on_c, 0, 66, 60
2,79126, Note_on_c, 0, 64, 61
2,79148, Note_on_c, 0, 66, 0
2,79167, Note_on_c, 0, 49, 0
2,79253, Note_on_c, 0, 64, 0
2,79255, Note_on_c, 0, 63, 63
2,79381, Note_on_c, 0, 64, 59
2,79410, Note_on_c, 0, 63, 0
2,79473, Note_on_c, 0, 73, 0
2,79518, Note_on_c, 0, 64, 0
2,79519, Note_on_c, 0, 63, 62
2,79652, Note_on_c, 0, 73, 69
2,79661, Note_on_c, 0, 63, 0
2,79666, Note_on_c, 0, 61, 52
2,79776, Note_on_c, 0, 61, 0
2,79779, Note_on_c, 0, 64, 55
2,79928, Note_on_c, 0, 71, 65
2,79937, Note_on_c, 0, 63, 56
2,79942, Note_on_c, 0, 64, 0
2,79971, Note_on_c, 0, 73, 0
2,80071, Note_on_c, 0, 63, 0
2,80074, Note_on_c, 0, 73, 74
2,80097, Note_on_c, 0, 71, 0
2,80213, Note_on_c, 0, 68, 67
2,80215, Note_on_c, 0, 71, 70
2,80239, Note_on_c, 0, 73, 0
2,80315, Note_on_c, 0, 68, 0
2,80343, Note_on_c, 0, 69, 62
2,80344, Note_on_c, 0, 71, 0
2,80481, Note_on_c, 0, 69, 0
2,80483, Note_on_c, 0, 61, 65
2,80486, Note_on_c, 0, 71, 65
2,80610, Note_on_c, 0, 69, 65
2,80616, Note_on_c, 0, 61, 0
2,80628, Note_on_c, 0, 71, 0
2,80747, Note_on_c, 0, 68, 65
2,80750, Note_on_c, 0, 65, 65
2,80752, Note_on_c, 0, 69, 0
2,80882, Note_on_c, 0, 71, 71
2,80884, Note_on_c, 0, 65, 0
2,80905, Note_on_c, 0, 68, 0
2,81018, Note_on_c, 0, 66, 59
2,81020, Note_on_c, 0, 69, 60
2,81036, Note_on_c, 0, 71, 0
2,81151, Note_on_c, 0, 66, 0
2,81166, Note_on_c, 0, 62, 63
2,81169, Note_on_c, 0, 71, 73
2,81172, Note_on_c, 0, 69, 0
2,81284, Note_on_c, 0, 61, 71
2,81296, Note_on_c, 0, 69, 74
2,81316, Note_on_c, 0, 62, 0
2,81340, Note_on_c, 0, 71, 0
2,81415, Note_on_c, 0, 68, 75
2,81416, Note_on_c, 0, 59, 68
2,81422, Note_on_c, 0, 61, 0
2,81437, Note_on_c, 0, 69, 0
2,81554, Note_on_c, 0, 61, 74
2,81562, Note_on_c, 0, 69, 74
2,81572, Note_on_c, 0, 59, 0
2,81590, Note_on_c, 0, 68, 0
2,81679, Note_on_c, 0, 61, 0
2,81680, Note_on_c, 0, 68, 71
2,81682, Note_on_c, 0, 57, 69
2,81706, Note_on_c, 0, 69, 0
2,81812, Note_on_c, 0, 66, 75
2,81822, Note_on_c, 0, 54, 65
2,81826, Note_on_c, 0, 62, 67
2,81831, Note_on_c, 0, 57, 0
2,81850, Note_on_c, 0, 68, 0
2,81962, Note_on_c, 0, 69, 72
2,82002, Note_on_c, 0, 66, 0
2,82074, Note_on_c, 0, 62, 0
2,82084, Note_on_c, 0, 54, 0
2,82094, Note_on_c, 0, 68, 75
2,82105, Note_on_c, 0, 52, 49
2,82132, Note_on_c, 0, 69, 0
2,82226, Note_on_c, 0, 54, 70
2,82229, Note_on_c, 0, 68, 0
2,82248, Note_on_c, 0, 52, 0
2,82354, Note_on_c, 0, 73, 79
2,82364, Note_on_c, 0, 56, 73
2,82376, Note_on_c, 0, 54, 0
2,82383, Note_on_c, 0, 52, 68
2,82479, Note_on_c, 0, 56, 0
2,82480, Note_on_c, 0, 52, 0
2,82491, Note_on_c, 0, 50, 71
2,82504, Note_on_c, 0, 73, 0
2,82626, Note_on_c, 0, 66, 77
2,82628, Note_on_c, 0, 50, 0
2,82640, Note_on_c, 0, 58, 58
2,82644, Note_on_c, 0, 52, 63
2,82765, Note_on_c, 0, 52, 0
2,82768, Note_on_c, 0, 50, 71
2,82782, Note_on_c, 0, 66, 0
2,82810, Note_on_c, 0, 58, 0
2,82895, Note_on_c, 0, 49, 66
2,82902, Note_on_c, 0, 61, 76
2,82908, Note_on_c, 0, 70, 62
2,82914, Note_on_c, 0, 50, 0
2,83005, Note_on_c, 0, 70, 0
2,83018, Note_on_c, 0, 52, 66
2,83039, Note_on_c, 0, 49, 0
2,83104, Note_on_c, 0, 61, 0
2,83160, Note_on_c, 0, 54, 65
2,83165, Note_on_c, 0, 71, 71
2,83166, Note_on_c, 0, 52, 0
2,83178, Note_on_c, 0, 50, 61
2,83280, Note_on_c, 0, 50, 0
2,83298, Note_on_c, 0, 52, 60
2,83307, Note_on_c, 0, 54, 0
2,83339, Note_on_c, 0, 71, 0
2,83404, Note_on_c, 0, 52, 0
2,83439, Note_on_c, 0, 66, 76
2,83443, Note_on_c, 0, 50, 50
2,83576, Note_on_c, 0, 49, 59
2,83583, Note_on_c, 0, 50, 0
2,83600, Note_on_c, 0, 66, 0
2,83709, Note_on_c, 0, 71, 71
2,83715, Note_on_c, 0, 49, 0
2,83721, Note_on_c, 0, 50, 65
2,83834, Note_on_c, 0, 49, 60
2,83857, Note_on_c, 0, 50, 0
2,83970, Note_on_c, 0, 66, 62
2,83979, Note_on_c, 0, 47, 54
2,83980, Note_on_c, 0, 49, 0
2,84094, Note_on_c, 0, 47, 0
2,84103, Note_on_c, 0, 50, 58
2,84113, Note_on_c, 0, 66, 0
2,84259, Note_on_c, 0, 64, 64
2,84263, Note_on_c, 0, 49, 59
2,84293, Note_on_c, 0, 50, 0
2,84390, Note_on_c, 0, 64, 0
2,84392, Note_on_c, 0, 66, 66
2,84418, Note_on_c, 0, 49, 0
2,84433, Note_on_c, 0, 71, 0
2,84516, Note_on_c, 0, 64, 65
2,84527, Note_on_c, 0, 66, 0
2,84535, Note_on_c, 0, 42, 56
2,84640, Note_on_c, 0, 63, 65
2,84675, Note_on_c, 0, 42, 0
2,84685, Note_on_c, 0, 64, 0
2,84776, Note_on_c, 0, 69, 68
2,84792, Note_on_c, 0, 64, 71
2,84794, Note_on_c, 0, 54, 58
2,84802, Note_on_c, 0, 63, 0
2,84909, Note_on_c, 0, 64, 0
2,84919, Note_on_c, 0, 54, 0
2,84920, Note_on_c, 0, 63, 65
2,85058, Note_on_c, 0, 63, 0
2,85069, Note_on_c, 0, 57, 57
2,85070, Note_on_c, 0, 61, 66
2,85185, Note_on_c, 0, 57, 0
2,85197, Note_on_c, 0, 64, 65
2,85220, Note_on_c, 0, 61, 0
2,85350, Note_on_c, 0, 47, 56
2,85353, Note_on_c, 0, 63, 63
2,85370, Note_on_c, 0, 64, 0
2,85492, Note_on_c, 0, 64, 70
2,85515, Note_on_c, 0, 63, 0
2,85529, Note_on_c, 0, 47, 0
2,85537, Note_on_c, 0, 69, 0
2,85634, Note_on_c, 0, 63, 72
2,85647, Note_on_c, 0, 59, 64
2,85664, Note_on_c, 0, 64, 0
2,85761, Note_on_c, 0, 61, 66
2,85779, Note_on_c, 0, 63, 0
2,85811, Note_on_c, 0, 59, 0
2,85904, Note_on_c, 0, 63, 65
2,85907, Note_on_c, 0, 52, 55
2,85907, Note_on_c, 0, 68, 70
2,85926, Note_on_c, 0, 61, 0
2,86026, Note_on_c, 0, 52, 0
2,86039, Note_on_c, 0, 61, 63
2,86045, Note_on_c, 0, 63, 0
2,86164, Note_on_c, 0, 61, 0
2,86176, Note_on_c, 0, 60, 59
2,86181, Note_on_c, 0, 56, 61
2,86303, Note_on_c, 0, 63, 56
2,86324, Note_on_c, 0, 56, 0
2,86354, Note_on_c, 0, 60, 0
2,86447, Note_on_c, 0, 61, 63
2,86460, Note_on_c, 0, 45, 58
2,86462, Note_on_c, 0, 63, 0
2,86595, Note_on_c, 0, 61, 0
2,86596, Note_on_c, 0, 63, 64
2,86619, Note_on_c, 0, 45, 0
2,86648, Note_on_c, 0, 68, 0
2,86724, Note_on_c, 0, 61, 65
2,86740, Note_on_c, 0, 44, 62
2,86764, Note_on_c, 0, 63, 0
2,86849, Note_on_c, 0, 60, 71
2,86861, Note_on_c, 0, 61, 0
2,86890, Note_on_c, 0, 44, 0
2,87011, Note_on_c, 0, 66, 70
2,87012, Note_on_c, 0, 45, 58
2,87013, Note_on_c, 0, 61, 59
2,87053, Note_on_c, 0, 60, 0
2,87140, Note_on_c, 0, 61, 0
2,87145, Note_on_c, 0, 64, 70
2,87146, Note_on_c, 0, 45, 0
2,87230, Note_on_c, 0, 66, 0
2,87260, Note_on_c, 0, 63, 72
2,87292, Note_on_c, 0, 57, 52
2,87310, Note_on_c, 0, 64, 0
2,87396, Note_on_c, 0, 61, 70
2,87426, Note_on_c, 0, 57, 0
2,87522, Note_on_c, 0, 63, 0
2,87523, Note_on_c, 0, 68, 69
2,87529, Note_on_c, 0, 56, 51
2,87540, Note_on_c, 0, 60, 66
2,87556, Note_on_c, 0, 61, 0
2,87650, Note_on_c, 0, 68, 0
2,87670, Note_on_c, 0, 56, 0
2,87670, Note_on_c, 0, 57, 57
2,87688, Note_on_c, 0, 60, 0
2,87801, Note_on_c, 0, 56, 62
2,87801, Note_on_c, 0, 63, 68
2,87806, Note_on_c, 0, 72, 79
2,87840, Note_on_c, 0, 57, 0
2,87887, Note_on_c, 0, 63, 0
2,87934, Note_on_c, 0, 54, 62
2,87943, Note_on_c, 0, 56, 0
2,87947, Note_on_c, 0, 72, 0
2,88080, Note_on_c, 0, 64, 67
2,88081, Note_on_c, 0, 73, 79
2,88085, Note_on_c, 0, 56, 61
2,88098, Note_on_c, 0, 54, 0
2,88210, Note_on_c, 0, 64, 0
2,88221, Note_on_c, 0, 54, 62
2,88225, Note_on_c, 0, 56, 0
2,88240, Note_on_c, 0, 73, 0
2,88347, Note_on_c, 0, 54, 0
2,88348, Note_on_c, 0, 68, 59
2,88349, Note_on_c, 0, 76, 68
2,88364, Note_on_c, 0, 52, 52
2,88483, Note_on_c, 0, 52, 0
2,88487, Note_on_c, 0, 56, 59
2,88599, Note_on_c, 0, 76, 0
2,88604, Note_on_c, 0, 68, 0
2,88613, Note_on_c, 0, 54, 67
2,88620, Note_on_c, 0, 56, 0
2,88735, Note_on_c, 0, 56, 71
2,88746, Note_on_c, 0, 54, 0
2,88866, Note_on_c, 0, 68, 72
2,88867, Note_on_c, 0, 76, 77
2,88889, Note_on_c, 0, 54, 60
2,88919, Note_on_c, 0, 56, 0
2,89002, Note_on_c, 0, 68, 0
2,89005, Note_on_c, 0, 76, 0
2,89022, Note_on_c, 0, 54, 0
2,89025, Note_on_c, 0, 52, 59
2,89144, Note_on_c, 0, 75, 79
2,89147, Note_on_c, 0, 66, 67
2,89157, Note_on_c, 0, 54, 64
2,89164, Note_on_c, 0, 52, 0
2,89257, Note_on_c, 0, 66, 0
2,89289, Note_on_c, 0, 52, 60
2,89299, Note_on_c, 0, 54, 0
2,89326, Note_on_c, 0, 75, 0
2,89419, Note_on_c, 0, 51, 57
2,89422, Note_on_c, 0, 78, 76
2,89423, Note_on_c, 0, 69, 65
2,89426, Note_on_c, 0, 52, 0
2,89542, Note_on_c, 0, 51, 0
2,89553, Note_on_c, 0, 54, 61
2,89688, Note_on_c, 0, 54, 0
2,89689, Note_on_c, 0, 52, 61
2,89702, Note_on_c, 0, 78, 0
2,89792, Note_on_c, 0, 69, 0
2,89811, Note_on_c, 0, 54, 71
2,89829, Note_on_c, 0, 52, 0
2,89953, Note_on_c, 0, 52, 67
2,89954, Note_on_c, 0, 68, 71
2,89954, Note_on_c, 0, 72, 74
2,89975, Note_on_c, 0, 54, 0
2,90077, Note_on_c, 0, 68, 0
2,90082, Note_on_c, 0, 51, 63
2,90087, Note_on_c, 0, 66, 77
2,90105, Note_on_c, 0, 52, 0
2,90212, Note_on_c, 0, 51, 0
2,90220, Note_on_c, 0, 73, 81
2,90226, Note_on_c, 0, 68, 72
2,90229, Note_on_c, 0, 52, 61
2,90257, Note_on_c, 0, 72, 0
2,90279, Note_on_c, 0, 66, 0
2,90355, Note_on_c, 0, 68, 0
2,90369, Note_on_c, 0, 51, 64
2,90392, Note_on_c, 0, 52, 0
2,90486, Note_on_c, 0, 70, 73
2,90487, Note_on_c, 0, 49, 65
2,90511, Note_on_c, 0, 51, 0
2,90616, Note_on_c, 0, 52, 66
2,90635, Note_on_c, 0, 49, 0
2,90640, Note_on_c, 0, 70, 0
2,90754, Note_on_c, 0, 43, 60
2,90769, Note_on_c, 0, 63, 67
2,90781, Note_on_c, 0, 73, 0
2,90795, Note_on_c, 0, 52, 0
2,90891, Note_on_c, 0, 64, 76
2,90898, Note_on_c, 0, 43, 0
2,90939, Note_on_c, 0, 63, 0
2,91031, Note_on_c, 0, 67, 75
2,91037, Note_on_c, 0, 46, 66
2,91052, Note_on_c, 0, 63, 67
2,91056, Note_on_c, 0, 64, 0
2,91120, Note_on_c, 0, 63, 0
2,91168, Note_on_c, 0, 61, 71
2,91180, Note_on_c, 0, 46, 0
2,91304, Note_on_c, 0, 47, 63
2,91311, Note_on_c, 0, 68, 66
2,91317, Note_on_c, 0, 63, 68
2,91328, Note_on_c, 0, 67, 0
2,91333, Note_on_c, 0, 61, 0
2,91427, Note_on_c, 0, 61, 60
2,91437, Note_on_c, 0, 63, 0
2,91449, Note_on_c, 0, 47, 0
2,91574, Note_on_c, 0, 61, 0
2,91582, Note_on_c, 0, 59, 57
2,91584, Note_on_c, 0, 52, 59
2,91712, Note_on_c, 0, 63, 57
2,91732, Note_on_c, 0, 59, 0
2,91740, Note_on_c, 0, 52, 0
2,91752, Note_on_c, 0, 68, 0
2,91862, Note_on_c, 0, 61, 59
2,91868, Note_on_c, 0, 46, 60
2,91872, Note_on_c, 0, 63, 0
2,91988, Note_on_c, 0, 61, 0
2,91997, Note_on_c, 0, 63, 65
2,92010, Note_on_c, 0, 46, 0
2,92124, Note_on_c, 0, 70, 75
2,92132, Note_on_c, 0, 49, 59
2,92138, Note_on_c, 0, 61, 40
2,92202, Note_on_c, 0, 61, 0
2,92214, Note_on_c, 0, 63, 0
2,92249, Note_on_c, 0, 59, 58
2,92261, Note_on_c, 0, 49, 0
2,92268, Note_on_c, 0, 70, 0
2,92385, Note_on_c, 0, 59, 0
2,92400, Note_on_c, 0, 63, 58
2,92404, Note_on_c, 0, 61, 60
2,92407, Note_on_c, 0, 51, 64
2,92497, Note_on_c, 0, 61, 0
2,92505, Note_on_c, 0, 63, 0
2,92517, Note_on_c, 0, 51, 0
2,92524, Note_on_c, 0, 59, 61
2,92674, Note_on_c, 0, 58, 58
2,92679, Note_on_c, 0, 39, 57
2,92679, Note_on_c, 0, 67, 63
2,92683, Note_on_c, 0, 59, 0
2,92788, Note_on_c, 0, 67, 0
2,92792, Note_on_c, 0, 61, 65
2,92794, Note_on_c, 0, 39, 0
2,92795, Note_on_c, 0, 58, 0
2,92942, Note_on_c, 0, 44, 61
2,92945, Note_on_c, 0, 68, 64
2,92953, Note_on_c, 0, 61, 0
2,92954, Note_on_c, 0, 59, 48
2,93076, Note_on_c, 0, 61, 63
2,93089, Note_on_c, 0, 59, 0
2,93092, Note_on_c, 0, 44, 0
2,93194, Note_on_c, 0, 56, 59
2,93208, Note_on_c, 0, 63, 63
2,93221, Note_on_c, 0, 61, 0
2,93229, Note_on_c, 0, 68, 0
2,93312, Note_on_c, 0, 56, 0
2,93322, Note_on_c, 0, 54, 60
2,93328, Note_on_c, 0, 59, 66
2,93341, Note_on_c, 0, 63, 0
2,93464, Note_on_c, 0, 54, 0
2,93484, Note_on_c, 0, 56, 44
2,93485, Note_on_c, 0, 64, 71
2,93492, Note_on_c, 0, 59, 0
2,93568, Note_on_c, 0, 56, 0
2,93596, Note_on_c, 0, 69, 60
2,93739, Note_on_c, 0, 71, 72
2,93744, Note_on_c, 0, 49, 54
2,93746, Note_on_c, 0, 69, 0
2,93844, Note_on_c, 0, 49, 0
2,93850, Note_on_c, 0, 68, 63
2,93879, Note_on_c, 0, 71, 0
2,94003, Note_on_c, 0, 42, 58
2,94016, Note_on_c, 0, 69, 61
2,94084, Note_on_c, 0, 68, 0
2,94129, Note_on_c, 0, 69, 0
2,94139, Note_on_c, 0, 71, 65
2,94174, Note_on_c, 0, 42, 0
2,94255, Note_on_c, 0, 64, 0
2,94279, Note_on_c, 0, 69, 62
2,94284, Note_on_c, 0, 54, 55
2,94296, Note_on_c, 0, 71, 0
2,94395, Note_on_c, 0, 54, 0
2,94404, Note_on_c, 0, 68, 69
2,94406, Note_on_c, 0, 52, 52
2,94441, Note_on_c, 0, 69, 0
2,94531, Note_on_c, 0, 63, 70
2,94551, Note_on_c, 0, 54, 53
2,94556, Note_on_c, 0, 52, 0
2,94568, Note_on_c, 0, 68, 0
2,94614, Note_on_c, 0, 69, 26
2,94642, Note_on_c, 0, 54, 0
2,94679, Note_on_c, 0, 69, 0
2,94692, Note_on_c, 0, 68, 64
2,94806, Note_on_c, 0, 47, 50
2,94809, Note_on_c, 0, 66, 66
2,94851, Note_on_c, 0, 68, 0
2,94888, Note_on_c, 0, 47, 0
2,94933, Note_on_c, 0, 63, 0
2,94955, Note_on_c, 0, 69, 62
2,95000, Note_on_c, 0, 66, 0
2,95083, Note_on_c, 0, 64, 51
2,95086, Note_on_c, 0, 52, 38
2,95096, Note_on_c, 0, 68, 63
2,95109, Note_on_c, 0, 69, 0
2,95208, Note_on_c, 0, 54, 54
2,95223, Note_on_c, 0, 69, 71
2,95241, Note_on_c, 0, 52, 0
2,95271, Note_on_c, 0, 68, 0
2,95341, Note_on_c, 0, 71, 77
2,95352, Note_on_c, 0, 56, 63
2,95357, Note_on_c, 0, 69, 0
2,95365, Note_on_c, 0, 54, 0
2,95469, Note_on_c, 0, 68, 72
2,95477, Note_on_c, 0, 52, 61
2,95487, Note_on_c, 0, 71, 0
2,95493, Note_on_c, 0, 56, 0
2,95594, Note_on_c, 0, 52, 0
2,95610, Note_on_c, 0, 73, 80
2,95621, Note_on_c, 0, 57, 57
2,95629, Note_on_c, 0, 68, 0
2,95742, Note_on_c, 0, 71, 63
2,95761, Note_on_c, 0, 59, 59
2,95783, Note_on_c, 0, 57, 0
2,95858, Note_on_c, 0, 64, 0
2,95874, Note_on_c, 0, 61, 62
2,95890, Note_on_c, 0, 69, 65
2,95901, Note_on_c, 0, 59, 0
2,95929, Note_on_c, 0, 71, 0
2,96008, Note_on_c, 0, 68, 71
2,96021, Note_on_c, 0, 57, 59
2,96036, Note_on_c, 0, 69, 0
2,96049, Note_on_c, 0, 61, 0
2,96160, Note_on_c, 0, 57, 0
2,96168, Note_on_c, 0, 62, 60
2,96168, Note_on_c, 0, 66, 69
2,96195, Note_on_c, 0, 73, 0
2,96213, Note_on_c, 0, 68, 0
2,96299, Note_on_c, 0, 62, 0
2,96302, Note_on_c, 0, 64, 63
2,96394, Note_on_c, 0, 64, 0
2,96424, Note_on_c, 0, 73, 78
2,96425, Note_on_c, 0, 62, 57
2,96551, Note_on_c, 0, 61, 63
2,96555, Note_on_c, 0, 62, 0
2,96577, Note_on_c, 0, 73, 0
2,96682, Note_on_c, 0, 61, 0
2,96692, Note_on_c, 0, 62, 53
2,96714, Note_on_c, 0, 71, 73
2,96807, Note_on_c, 0, 66, 0
2,96819, Note_on_c, 0, 61, 55
2,96849, Note_on_c, 0, 62, 0
2,96979, Note_on_c, 0, 66, 52
2,96982, Note_on_c, 0, 61, 0
2,96992, Note_on_c, 0, 59, 48
2,97110, Note_on_c, 0, 66, 0
2,97115, Note_on_c, 0, 59, 0
2,97120, Note_on_c, 0, 62, 57
2,97240, Note_on_c, 0, 71, 0
2,97241, Note_on_c, 0, 64, 63
2,97257, Note_on_c, 0, 61, 57
2,97260, Note_on_c, 0, 62, 0
2,97370, Note_on_c, 0, 71, 70
2,97386, Note_on_c, 0, 61, 0
2,97387, Note_on_c, 0, 62, 60
2,97500, Note_on_c, 0, 69, 71
2,97509, Note_on_c, 0, 64, 0
2,97513, Note_on_c, 0, 61, 60
2,97543, Note_on_c, 0, 62, 0
2,97553, Note_on_c, 0, 71, 0
2,97628, Note_on_c, 0, 68, 73
2,97644, Note_on_c, 0, 61, 0
2,97645, Note_on_c, 0, 59, 60
2,97663, Note_on_c, 0, 69, 0
2,97777, Note_on_c, 0, 69, 77
2,97779, Note_on_c, 0, 61, 67
2,97789, Note_on_c, 0, 59, 0
2,97791, Note_on_c, 0, 68, 0
2,97897, Note_on_c, 0, 71, 76
2,97912, Note_on_c, 0, 59, 68
2,97935, Note_on_c, 0, 61, 0
2,97946, Note_on_c, 0, 69, 0
2,98033, Note_on_c, 0, 73, 78
2,98053, Note_on_c, 0, 57, 69
2,98076, Note_on_c, 0, 71, 0
2,98082, Note_on_c, 0, 59, 0
2,98168, Note_on_c, 0, 69, 71
2,98172, Note_on_c, 0, 61, 72
2,98200, Note_on_c, 0, 73, 0
2,98214, Note_on_c, 0, 57, 0
2,98311, Note_on_c, 0, 74, 71
2,98323, Note_on_c, 0, 59, 70
2,98357, Note_on_c, 0, 61, 0
2,98360, Note_on_c, 0, 69, 0
2,98449, Note_on_c, 0, 76, 74
2,98472, Note_on_c, 0, 74, 0
2,98587, Note_on_c, 0, 74, 68
2,98589, Note_on_c, 0, 69, 74
2,98620, Note_on_c, 0, 76, 0
2,98714, Note_on_c, 0, 69, 0
2,98731, Note_on_c, 0, 73, 63
2,98736, Note_on_c, 0, 74, 0
2,98873, Note_on_c, 0, 68, 73
2,98896, Note_on_c, 0, 73, 0
2,98896, Note_on_c, 0, 74, 51
2,98971, Note_on_c, 0, 59, 0
2,99024, Note_on_c, 0, 73, 63
2,99067, Note_on_c, 0, 74, 0
2,99156, Note_on_c, 0, 64, 61
2,99168, Note_on_c, 0, 71, 65
2,99179, Note_on_c, 0, 73, 0
2,99270, Note_on_c, 0, 64, 0
2,99295, Note_on_c, 0, 74, 63
2,99302, Note_on_c, 0, 71, 0
2,99420, Note_on_c, 0, 57, 63
2,99449, Note_on_c, 0, 73, 63
2,99455, Note_on_c, 0, 74, 0
2,99563, Note_on_c, 0, 68, 0
2,99598, Note_on_c, 0, 74, 60
2,99604, Note_on_c, 0, 73, 0
2,99714, Note_on_c, 0, 61, 70
2,99731, Note_on_c, 0, 73, 64
2,99733, Note_on_c, 0, 74, 0
2,99841, Note_on_c, 0, 61, 0
2,99854, Note_on_c, 0, 71, 63
2,99869, Note_on_c, 0, 73, 0
2,100002, Note_on_c, 0, 66, 75
2,100019, Note_on_c, 0, 71, 0
2,100024, Note_on_c, 0, 73, 54
2,100111, Note_on_c, 0, 57, 0
2,100147, Note_on_c, 0, 71, 62
2,100168, Note_on_c, 0, 73, 0
2,100284, Note_on_c, 0, 71, 0
2,100285, Note_on_c, 0, 62, 54
2,100305, Note_on_c, 0, 69, 58
2,100389, Note_on_c, 0, 62, 0
2,100424, Note_on_c, 0, 73, 66
2,100473, Note_on_c, 0, 69, 0
2,100558, Note_on_c, 0, 56, 52
2,100568, Note_on_c, 0, 71, 70
2,100601, Note_on_c, 0, 73, 0
2,100631, Note_on_c, 0, 66, 0
2,100676, Note_on_c, 0, 56, 0
2,100698, Note_on_c, 0, 69, 62
2,100832, Note_on_c, 0, 59, 50
2,100837, Note_on_c, 0, 68, 62
2,100870, Note_on_c, 0, 69, 0
2,100959, Note_on_c, 0, 59, 0
2,100960, Note_on_c, 0, 66, 65
2,100978, Note_on_c, 0, 68, 0
2,101098, Note_on_c, 0, 66, 0
2,101110, Note_on_c, 0, 53, 56
2,101118, Note_on_c, 0, 68, 58
2,101213, Note_on_c, 0, 53, 0
2,101240, Note_on_c, 0, 66, 57
2,101283, Note_on_c, 0, 68, 0
2,101375, Note_on_c, 0, 66, 0
2,101385, Note_on_c, 0, 49, 55
2,101385, Note_on_c, 0, 65, 58
2,101480, Note_on_c, 0, 49, 0
2,101531, Note_on_c, 0, 68, 56
2,101585, Note_on_c, 0, 65, 0
2,101665, Note_on_c, 0, 68, 0
2,101668, Note_on_c, 0, 66, 59
2,101676, Note_on_c, 0, 54, 60
2,101695, Note_on_c, 0, 71, 0
2,101794, Note_on_c, 0, 68, 56
2,101841, Note_on_c, 0, 66, 0
2,101938, Note_on_c, 0, 61, 59
2,101944, Note_on_c, 0, 70, 57
2,101952, Note_on_c, 0, 68, 0
2,102060, Note_on_c, 0, 70, 0
2,102066, Note_on_c, 0, 71, 64
2,102121, Note_on_c, 0, 61, 0
2,102203, Note_on_c, 0, 70, 56
2,102213, Note_on_c, 0, 62, 65
2,102216, Note_on_c, 0, 71, 0
2,102280, Note_on_c, 0, 54, 0
2,102350, Note_on_c, 0, 71, 63
2,102354, Note_on_c, 0, 70, 0
2,102473, Note_on_c, 0, 54, 68
2,102474, Note_on_c, 0, 73, 66
2,102515, Note_on_c, 0, 71, 0
2,102593, Note_on_c, 0, 70, 64
2,102598, Note_on_c, 0, 54, 0
2,102662, Note_on_c, 0, 73, 0
2,102744, Note_on_c, 0, 55, 67
2,102759, Note_on_c, 0, 71, 69
2,102769, Note_on_c, 0, 70, 0
2,102837, Note_on_c, 0, 62, 0
2,102880, Note_on_c, 0, 70, 73
2,102892, Note_on_c, 0, 71, 0
2,103014, Note_on_c, 0, 71, 70
2,103020, Note_on_c, 0, 63, 76
2,103021, Note_on_c, 0, 70, 0
2,103144, Note_on_c, 0, 73, 71
2,103148, Note_on_c, 0, 63, 0
2,103177, Note_on_c, 0, 71, 0
2,103279, Note_on_c, 0, 64, 79
2,103298, Note_on_c, 0, 71, 76
2,103331, Note_on_c, 0, 73, 0
2,103384, Note_on_c, 0, 55, 0
2,103424, Note_on_c, 0, 73, 72
2,103488, Note_on_c, 0, 71, 0
2,103564, Note_on_c, 0, 56, 72
2,103568, Note_on_c, 0, 74, 74
2,103599, Note_on_c, 0, 73, 0
2,103677, Note_on_c, 0, 71, 71
2,103717, Note_on_c, 0, 56, 0
2,103718, Note_on_c, 0, 74, 0
2,103829, Note_on_c, 0, 73, 74
2,103836, Note_on_c, 0, 57, 70
2,103842, Note_on_c, 0, 71, 0
2,103920, Note_on_c, 0, 64, 0
2,103960, Note_on_c, 0, 71, 73
2,103961, Note_on_c, 0, 73, 0
2,104088, Note_on_c, 0, 65, 77
2,104092, Note_on_c, 0, 73, 73
2,104117, Note_on_c, 0, 71, 0
2,104226, Note_on_c, 0, 74, 70
2,104237, Note_on_c, 0, 73, 0
2,104277, Note_on_c, 0, 65, 0
2,104369, Note_on_c, 0, 66, 82
2,104372, Note_on_c, 0, 73, 71
2,104387, Note_on_c, 0, 74, 0
2,104467, Note_on_c, 0, 57, 0
2,104491, Note_on_c, 0, 74, 73
2,104498, Note_on_c, 0, 73, 0
2,104631, Note_on_c, 0, 58, 68
2,104645, Note_on_c, 0, 76, 79
2,104673, Note_on_c, 0, 74, 0
2,104759, Note_on_c, 0, 73, 76
2,104783, Note_on_c, 0, 58, 0
2,104795, Note_on_c, 0, 76, 0
2,104916, Note_on_c, 0, 59, 67
2,104925, Note_on_c, 0, 74, 70
2,105056, Note_on_c, 0, 76, 79
2,105057, Note_on_c, 0, 73, 0
2,105083, Note_on_c, 0, 74, 0
2,105106, Note_on_c, 0, 59, 0
2,105191, Note_on_c, 0, 54, 71
2,105196, Note_on_c, 0, 74, 72
2,105205, Note_on_c, 0, 76, 0
2,105310, Note_on_c, 0, 73, 76
2,105320, Note_on_c, 0, 74, 0
2,105352, Note_on_c, 0, 54, 0
2,105457, Note_on_c, 0, 47, 62
2,105466, Note_on_c, 0, 74, 68
2,105480, Note_on_c, 0, 73, 0
2,105585, Note_on_c, 0, 73, 75
2,105596, Note_on_c, 0, 47, 0
2,105616, Note_on_c, 0, 74, 0
2,105722, Note_on_c, 0, 71, 73
2,105732, Note_on_c, 0, 50, 59
2,105752, Note_on_c, 0, 73, 0
2,105845, Note_on_c, 0, 71, 0
2,105845, Note_on_c, 0, 74, 73
2,105872, Note_on_c, 0, 50, 0
2,105891, Note_on_c, 0, 74, 0
2,105977, Note_on_c, 0, 66, 0
2,105990, Note_on_c, 0, 52, 56
2,105997, Note_on_c, 0, 67, 76
2,106115, Note_on_c, 0, 66, 72
2,106146, Note_on_c, 0, 52, 0
2,106248, Note_on_c, 0, 64, 78
2,106261, Note_on_c, 0, 54, 63
2,106290, Note_on_c, 0, 66, 0
2,106377, Note_on_c, 0, 62, 76
2,106387, Note_on_c, 0, 64, 0
2,106398, Note_on_c, 0, 54, 0
2,106517, Note_on_c, 0, 64, 77
2,106536, Note_on_c, 0, 55, 63
2,106536, Note_on_c, 0, 62, 0
2,106639, Note_on_c, 0, 62, 76
2,106667, Note_on_c, 0, 64, 0
2,106692, Note_on_c, 0, 55, 0
2,106776, Note_on_c, 0, 61, 74
2,106797, Note_on_c, 0, 52, 52
2,106817, Note_on_c, 0, 62, 0
2,106902, Note_on_c, 0, 64, 76
2,106943, Note_on_c, 0, 52, 0
2,106944, Note_on_c, 0, 67, 0
2,106952, Note_on_c, 0, 61, 0
2,107053, Note_on_c, 0, 57, 71
2,107059, Note_on_c, 0, 49, 53
2,107175, Note_on_c, 0, 64, 0
2,107179, Note_on_c, 0, 67, 77
2,107226, Note_on_c, 0, 49, 0
2,107311, Note_on_c, 0, 66, 72
2,107331, Note_on_c, 0, 45, 57
2,107357, Note_on_c, 0, 67, 0
2,107428, Note_on_c, 0, 64, 78
2,107468, Note_on_c, 0, 66, 0
2,107471, Note_on_c, 0, 45, 0
2,107583, Note_on_c, 0, 66, 75
2,107589, Note_on_c, 0, 50, 66
2,107597, Note_on_c, 0, 64, 0
2,107710, Note_on_c, 0, 64, 74
2,107735, Note_on_c, 0, 50, 0
2,107752, Note_on_c, 0, 66, 0
2,107844, Note_on_c, 0, 62, 68
2,107857, Note_on_c, 0, 42, 60
2,107858, Note_on_c, 0, 64, 0
2,107970, Note_on_c, 0, 66, 76
2,108007, Note_on_c, 0, 42, 0
2,108007, Note_on_c, 0, 62, 0
2,108047, Note_on_c, 0, 57, 0
2,108119, Note_on_c, 0, 59, 77
2,108147, Note_on_c, 0, 43, 56
2,108201, Note_on_c, 0, 66, 0
2,108247, Note_on_c, 0, 57, 68
2,108269, Note_on_c, 0, 43, 0
2,108380, Note_on_c, 0, 55, 64
2,108391, Note_on_c, 0, 47, 56
2,108427, Note_on_c, 0, 59, 0
2,108501, Note_on_c, 0, 57, 0
2,108506, Note_on_c, 0, 54, 66
2,108534, Note_on_c, 0, 55, 0
2,108552, Note_on_c, 0, 54, 0
2,108589, Note_on_c, 0, 47, 0
2,108639, Note_on_c, 0, 61, 73
2,108654, Note_on_c, 0, 55, 60
2,108675, Note_on_c, 0, 40, 48
2,108758, Note_on_c, 0, 40, 0
2,108778, Note_on_c, 0, 54, 60
2,108783, Note_on_c, 0, 55, 0
2,108880, Note_on_c, 0, 54, 0
2,108914, Note_on_c, 0, 52, 56
2,108917, Note_on_c, 0, 45, 57
2,109005, Note_on_c, 0, 45, 0
2,109036, Note_on_c, 0, 55, 52
2,109042, Note_on_c, 0, 61, 0
2,109075, Note_on_c, 0, 52, 0
2,109171, Note_on_c, 0, 55, 0
2,109175, Note_on_c, 0, 62, 67
2,109181, Note_on_c, 0, 54, 56
2,109204, Note_on_c, 0, 50, 49
2,109261, Note_on_c, 0, 54, 0
2,109322, Note_on_c, 0, 62, 0
2,109329, Note_on_c, 0, 49, 51
2,109373, Note_on_c, 0, 49, 0
2,109450, Note_on_c, 0, 66, 67
2,109576, Note_on_c, 0, 66, 0
2,109609, Note_on_c, 0, 52, 62
2,109612, Note_on_c, 0, 50, 0
2,109734, Note_on_c, 0, 71, 75
2,109736, Note_on_c, 0, 50, 56
2,109748, Note_on_c, 0, 52, 0
2,109856, Note_on_c, 0, 50, 0
2,109863, Note_on_c, 0, 55, 63
2,109996, Note_on_c, 0, 54, 65
2,109996, Note_on_c, 0, 55, 0
2,109999, Note_on_c, 0, 59, 66
2,110091, Note_on_c, 0, 59, 0
2,110111, Note_on_c, 0, 54, 0
2,110119, Note_on_c, 0, 55, 65
2,110254, Note_on_c, 0, 64, 79
2,110260, Note_on_c, 0, 49, 57
2,110280, Note_on_c, 0, 55, 0
2,110403, Note_on_c, 0, 49, 0
2,110408, Note_on_c, 0, 47, 57
2,110534, Note_on_c, 0, 70, 64
2,110548, Note_on_c, 0, 49, 56
2,110561, Note_on_c, 0, 47, 0
2,110578, Note_on_c, 0, 71, 0
2,110658, Note_on_c, 0, 68, 67
2,110669, Note_on_c, 0, 49, 0
2,110677, Note_on_c, 0, 50, 63
2,110678, Note_on_c, 0, 70, 0
2,110807, Note_on_c, 0, 49, 63
2,110807, Note_on_c, 0, 50, 0
2,110813, Note_on_c, 0, 70, 62
2,110840, Note_on_c, 0, 68, 0
2,110904, Note_on_c, 0, 64, 0
2,110942, Note_on_c, 0, 54, 66
2,110952, Note_on_c, 0, 49, 0
2,111067, Note_on_c, 0, 66, 80
2,111080, Note_on_c, 0, 54, 0
2,111081, Note_on_c, 0, 52, 62
2,111198, Note_on_c, 0, 52, 0
2,111202, Note_on_c, 0, 54, 62
2,111226, Note_on_c, 0, 66, 0
2,111335, Note_on_c, 0, 62, 70
2,111343, Note_on_c, 0, 71, 76
2,111345, Note_on_c, 0, 54, 0
2,111347, Note_on_c, 0, 47, 54
2,111387, Note_on_c, 0, 70, 0
2,111475, Note_on_c, 0, 49, 61
2,111485, Note_on_c, 0, 47, 0
2,111492, Note_on_c, 0, 62, 0
2,111588, Note_on_c, 0, 50, 64
2,111594, Note_on_c, 0, 49, 0
2,111613, Note_on_c, 0, 59, 77
2,111706, Note_on_c, 0, 59, 0
2,111720, Note_on_c, 0, 50, 0
2,111728, Note_on_c, 0, 47, 60
2,111878, Note_on_c, 0, 67, 82
2,111893, Note_on_c, 0, 52, 58
2,111940, Note_on_c, 0, 71, 0
2,111944, Note_on_c, 0, 47, 0
2,112017, Note_on_c, 0, 50, 57
2,112056, Note_on_c, 0, 52, 0
2,112137, Note_on_c, 0, 76, 61
2,112146, Note_on_c, 0, 49, 57
2,112152, Note_on_c, 0, 50, 0
2,112258, Note_on_c, 0, 76, 0
2,112271, Note_on_c, 0, 49, 0
2,112276, Note_on_c, 0, 47, 59
2,112419, Note_on_c, 0, 69, 73
2,112428, Note_on_c, 0, 49, 58
2,112446, Note_on_c, 0, 47, 0
2,112562, Note_on_c, 0, 52, 60
2,112577, Note_on_c, 0, 49, 0
2,112669, Note_on_c, 0, 67, 0
2,112693, Note_on_c, 0, 66, 52
2,112700, Note_on_c, 0, 50, 59
2,112707, Note_on_c, 0, 52, 0
2,112808, Note_on_c, 0, 66, 0
2,112809, Note_on_c, 0, 49, 56
2,112816, Note_on_c, 0, 50, 0
2,112829, Note_on_c, 0, 64, 64
2,112955, Note_on_c, 0, 50, 64
2,112958, Note_on_c, 0, 66, 68
2,112996, Note_on_c, 0, 49, 0
2,113012, Note_on_c, 0, 64, 0
2,113044, Note_on_c, 0, 69, 0
2,113050, Note_on_c, 0, 50, 0
2,113071, Note_on_c, 0, 52, 61
2,113210, Note_on_c, 0, 54, 68
2,113216, Note_on_c, 0, 74, 71
2,113249, Note_on_c, 0, 52, 0
2,113316, Note_on_c, 0, 74, 0
2,113326, Note_on_c, 0, 50, 65
2,113343, Note_on_c, 0, 54, 0
2,113482, Note_on_c, 0, 52, 64
2,113487, Note_on_c, 0, 67, 77
2,113497, Note_on_c, 0, 50, 0
2,113568, Note_on_c, 0, 66, 0
2,113622, Note_on_c, 0, 50, 69
2,113624, Note_on_c, 0, 52, 0
2,113741, Note_on_c, 0, 71, 80
2,113756, Note_on_c, 0, 52, 65
2,113780, Note_on_c, 0, 50, 0
2,113885, Note_on_c, 0, 54, 71
2,113893, Note_on_c, 0, 71, 0
2,113920, Note_on_c, 0, 52, 0
2,114010, Note_on_c, 0, 64, 76
2,114018, Note_on_c, 0, 55, 68
2,114028, Note_on_c, 0, 54, 0
2,114099, Note_on_c, 0, 67, 0
2,114150, Note_on_c, 0, 54, 72
2,114187, Note_on_c, 0, 55, 0
2,114278, Note_on_c, 0, 72, 76
2,114280, Note_on_c, 0, 52, 62
2,114298, Note_on_c, 0, 54, 0
2,114394, Note_on_c, 0, 52, 0
2,114416, Note_on_c, 0, 55, 63
2,114423, Note_on_c, 0, 72, 0
2,114551, Note_on_c, 0, 70, 71
2,114565, Note_on_c, 0, 54, 65
2,114608, Note_on_c, 0, 55, 0
2,114657, Note_on_c, 0, 64, 0
2,114686, Note_on_c, 0, 56, 71
2,114724, Note_on_c, 0, 54, 0
2,114808, Note_on_c, 0, 62, 62
2,114812, Note_on_c, 0, 70, 0
2,114813, Note_on_c, 0, 58, 72
2,114816, Note_on_c, 0, 66, 74
2,114835, Note_on_c, 0, 56, 0
2,114945, Note_on_c, 0, 54, 69
2,114949, Note_on_c, 0, 61, 77
2,114962, Note_on_c, 0, 58, 0
2,114964, Note_on_c, 0, 62, 0
2,115074, Note_on_c, 0, 66, 0
2,115084, Note_on_c, 0, 54, 0
2,115086, Note_on_c, 0, 59, 77
2,115087, Note_on_c, 0, 62, 74
2,115108, Note_on_c, 0, 61, 0
2,115204, Note_on_c, 0, 47, 74
2,115204, Note_on_c, 0, 71, 74
2,115212, Note_on_c, 0, 59, 0
2,115257, Note_on_c, 0, 71, 0
2,115345, Note_on_c, 0, 73, 76
2,115346, Note_on_c, 0, 59, 83
2,115370, Note_on_c, 0, 47, 0
2,115380, Note_on_c, 0, 62, 0
2,115453, Note_on_c, 0, 73, 0
2,115459, Note_on_c, 0, 74, 75
2,115584, Note_on_c, 0, 74, 0
2,115606, Note_on_c, 0, 61, 75
2,115609, Note_on_c, 0, 65, 64
2,115697, Note_on_c, 0, 65, 0
2,115737, Note_on_c, 0, 57, 62
2,115746, Note_on_c, 0, 59, 0
2,115863, Note_on_c, 0, 56, 59
2,115864, Note_on_c, 0, 57, 0
2,115875, Note_on_c, 0, 73, 75
2,115985, Note_on_c, 0, 73, 0
2,115995, Note_on_c, 0, 56, 0
2,116004, Note_on_c, 0, 59, 61
2,116144, Note_on_c, 0, 66, 71
2,116150, Note_on_c, 0, 57, 56
2,116166, Note_on_c, 0, 59, 0
2,116269, Note_on_c, 0, 57, 0
2,116280, Note_on_c, 0, 56, 56
2,116393, Note_on_c, 0, 56, 0
2,116402, Note_on_c, 0, 54, 59
2,116548, Note_on_c, 0, 57, 62
2,116563, Note_on_c, 0, 61, 0
2,116598, Note_on_c, 0, 54, 0
2,116681, Note_on_c, 0, 59, 65
2,116691, Note_on_c, 0, 56, 56
2,116696, Note_on_c, 0, 57, 0
2,116808, Note_on_c, 0, 56, 0
2,116833, Note_on_c, 0, 57, 54
2,116932, Note_on_c, 0, 66, 0
2,116939, Note_on_c, 0, 65, 58
2,116953, Note_on_c, 0, 56, 56
2,116961, Note_on_c, 0, 57, 0
2,117059, Note_on_c, 0, 66, 66
2,117089, Note_on_c, 0, 56, 0
2,117098, Note_on_c, 0, 54, 57
2,117102, Note_on_c, 0, 65, 0
2,117206, Note_on_c, 0, 68, 66
2,117208, Note_on_c, 0, 54, 0
2,117219, Note_on_c, 0, 53, 55
2,117267, Note_on_c, 0, 66, 0
2,117342, Note_on_c, 0, 69, 69
2,117355, Note_on_c, 0, 54, 62
2,117355, Note_on_c, 0, 68, 0
2,117364, Note_on_c, 0, 53, 0
2,117473, Note_on_c, 0, 56, 62
2,117475, Note_on_c, 0, 71, 71
2,117476, Note_on_c, 0, 54, 0
2,117528, Note_on_c, 0, 69, 0
2,117591, Note_on_c, 0, 56, 0
2,117600, Note_on_c, 0, 68, 70
2,117607, Note_on_c, 0, 53, 57
2,117630, Note_on_c, 0, 71, 0
2,117740, Note_on_c, 0, 54, 60
2,117750, Note_on_c, 0, 71, 74
2,117757, Note_on_c, 0, 53, 0
2,117789, Note_on_c, 0, 68, 0
2,117791, Note_on_c, 0, 59, 0
2,117883, Note_on_c, 0, 69, 74
2,117919, Note_on_c, 0, 71, 0
2,118009, Note_on_c, 0, 68, 77
2,118024, Note_on_c, 0, 56, 65
2,118047, Note_on_c, 0, 69, 0
2,118051, Note_on_c, 0, 54, 0
2,118148, Note_on_c, 0, 66, 74
2,118161, Note_on_c, 0, 57, 56
2,118193, Note_on_c, 0, 56, 0
2,118205, Note_on_c, 0, 68, 0
2,118290, Note_on_c, 0, 74, 77
2,118304, Note_on_c, 0, 57, 0
2,118316, Note_on_c, 0, 59, 57
2,118403, Note_on_c, 0, 66, 0
2,118432, Note_on_c, 0, 73, 65
2,118438, Note_on_c, 0, 57, 56
2,118441, Note_on_c, 0, 59, 0
2,118554, Note_on_c, 0, 71, 68
2,118558, Note_on_c, 0, 56, 58
2,118558, Note_on_c, 0, 57, 0
2,118663, Note_on_c, 0, 73, 0
2,118695, Note_on_c, 0, 69, 67
2,118699, Note_on_c, 0, 71, 0
2,118705, Note_on_c, 0, 54, 59
2,118715, Note_on_c, 0, 56, 0
2,118851, Note_on_c, 0, 54, 0
2,118858, Note_on_c, 0, 68, 64
2,118863, Note_on_c, 0, 52, 55
2,118868, Note_on_c, 0, 69, 0
2,118959, Note_on_c, 0, 52, 0
2,118975, Note_on_c, 0, 54, 64
2,119072, Note_on_c, 0, 54, 0
2,119102, Note_on_c, 0, 73, 69
2,119105, Note_on_c, 0, 52, 55
2,119147, Note_on_c, 0, 74, 0
2,119232, Note_on_c, 0, 50, 57
2,119236, Note_on_c, 0, 71, 74
2,119241, Note_on_c, 0, 52, 0
2,119261, Note_on_c, 0, 73, 0
2,119370, Note_on_c, 0, 50, 0
2,119371, Note_on_c, 0, 52, 60
2,119380, Note_on_c, 0, 73, 80
2,119389, Note_on_c, 0, 71, 0
2,119510, Note_on_c, 0, 50, 63
2,119513, Note_on_c, 0, 71, 68
2,119515, Note_on_c, 0, 52, 0
2,119558, Note_on_c, 0, 68, 0
2,119638, Note_on_c, 0, 49, 60
2,119638, Note_on_c, 0, 50, 0
2,119638, Note_on_c, 0, 69, 68
2,119651, Note_on_c, 0, 71, 0
2,119769, Note_on_c, 0, 52, 56
2,119773, Note_on_c, 0, 68, 71
2,119777, Note_on_c, 0, 49, 0
2,119810, Note_on_c, 0, 69, 0
2,119916, Note_on_c, 0, 50, 65
2,119919, Note_on_c, 0, 66, 69
2,119920, Note_on_c, 0, 52, 0
2,119959, Note_on_c, 0, 68, 0
2,120011, Note_on_c, 0, 66, 0
2,120040, Note_on_c, 0, 52, 68
2,120040, Note_on_c, 0, 73, 0
2,120043, Note_on_c, 0, 50, 0
2,120165, Note_on_c, 0, 78, 83
2,120169, Note_on_c, 0, 50, 69
2,120172, Note_on_c, 0, 69, 73
2,120194, Note_on_c, 0, 52, 0
2,120281, Note_on_c, 0, 78, 0
2,120287, Note_on_c, 0, 49, 66
2,120299, Note_on_c, 0, 50, 0
2,120329, Note_on_c, 0, 69, 0
2,120422, Note_on_c, 0, 49, 0
2,120435, Note_on_c, 0, 50, 65
2,120452, Note_on_c, 0, 71, 82
2,120455, Note_on_c, 0, 68, 74
2,120575, Note_on_c, 0, 49, 60
2,120615, Note_on_c, 0, 50, 0
2,120703, Note_on_c, 0, 47, 62
2,120729, Note_on_c, 0, 49, 0
2,120840, Note_on_c, 0, 66, 75
2,120847, Note_on_c, 0, 50, 61
2,120851, Note_on_c, 0, 47, 0
2,120875, Note_on_c, 0, 68, 0
2,120981, Note_on_c, 0, 49, 61
2,120983, Note_on_c, 0, 66, 0
2,120985, Note_on_c, 0, 65, 77
2,120994, Note_on_c, 0, 50, 0
2,121116, Note_on_c, 0, 65, 0
2,121117, Note_on_c, 0, 71, 0
2,121132, Note_on_c, 0, 49, 0
2,121132, Note_on_c, 0, 50, 63
2,121259, Note_on_c, 0, 61, 70
2,121260, Note_on_c, 0, 49, 60
2,121261, Note_on_c, 0, 69, 65
2,121291, Note_on_c, 0, 50, 0
2,121382, Note_on_c, 0, 49, 0
2,121386, Note_on_c, 0, 68, 74
2,121388, Note_on_c, 0, 47, 57
2,121424, Note_on_c, 0, 69, 0
2,121523, Note_on_c, 0, 49, 61
2,121529, Note_on_c, 0, 47, 0
2,121537, Note_on_c, 0, 66, 65
2,121539, Note_on_c, 0, 69, 80
2,121574, Note_on_c, 0, 68, 0
2,121578, Note_on_c, 0, 61, 0
2,121653, Note_on_c, 0, 66, 0
2,121666, Note_on_c, 0, 47, 56
2,121684, Note_on_c, 0, 49, 0
2,121794, Note_on_c, 0, 47, 0
2,121818, Note_on_c, 0, 45, 54
2,121828, Note_on_c, 0, 66, 66
2,121911, Note_on_c, 0, 69, 0
2,121955, Note_on_c, 0, 45, 0
2,121957, Note_on_c, 0, 49, 56
2,122099, Note_on_c, 0, 68, 70
2,122103, Note_on_c, 0, 49, 0
2,122112, Note_on_c, 0, 47, 52
2,122234, Note_on_c, 0, 47, 0
2,122239, Note_on_c, 0, 49, 57
2,122366, Note_on_c, 0, 49, 0
2,122381, Note_on_c, 0, 47, 50
2,122497, Note_on_c, 0, 47, 0
2,122517, Note_on_c, 0, 45, 52
2,122639, Note_on_c, 0, 45, 0
2,122659, Note_on_c, 0, 47, 45
2,122663, Note_on_c, 0, 65, 59
2,122711, Note_on_c, 0, 66, 0
2,122791, Note_on_c, 0, 47, 0
2,122794, Note_on_c, 0, 45, 54
2,122919, Note_on_c, 0, 45, 0
2,122923, Note_on_c, 0, 44, 51
2,123011, Note_on_c, 0, 65, 0
2,123042, Note_on_c, 0, 44, 0
2,123057, Note_on_c, 0, 47, 53
2,123064, Note_on_c, 0, 68, 0
2,123206, Note_on_c, 0, 47, 0
2,123207, Note_on_c, 0, 45, 49
2,123207, Note_on_c, 0, 66, 61
2,123335, Note_on_c, 0, 45, 0
2,123338, Note_on_c, 0, 44, 50
2,123469, Note_on_c, 0, 44, 0
2,123473, Note_on_c, 0, 73, 66
2,123483, Note_on_c, 0, 42, 49
2,123602, Note_on_c, 0, 44, 56
2,123617, Note_on_c, 0, 73, 0
2,123618, Note_on_c, 0, 42, 0
2,123747, Note_on_c, 0, 45, 51
2,123749, Note_on_c, 0, 44, 0
2,123754, Note_on_c, 0, 78, 69
2,123838, Note_on_c, 0, 45, 0
2,123859, Note_on_c, 0, 66, 0
2,123881, Note_on_c, 0, 47, 49
2,123897, Note_on_c, 0, 78, 0
2,124020, Note_on_c, 0, 47, 0
2,124020, Note_on_c, 0, 81, 71
2,124024, Note_on_c, 0, 49, 55
2,124155, Note_on_c, 0, 51, 58
2,124164, Note_on_c, 0, 81, 0
2,124176, Note_on_c, 0, 49, 0
2,124299, Note_on_c, 0, 80, 72
2,124300, Note_on_c, 0, 51, 0
2,124318, Note_on_c, 0, 52, 45
2,124431, Note_on_c, 0, 52, 0
2,124439, Note_on_c, 0, 51, 52
2,124549, Note_on_c, 0, 51, 0
2,124566, Note_on_c, 0, 49, 46
2,124585, Note_on_c, 0, 68, 48
2,124697, Note_on_c, 0, 51, 52
2,124706, Note_on_c, 0, 49, 0
2,124780, Note_on_c, 0, 68, 0
2,124801, Note_on_c, 0, 51, 0
2,124825, Note_on_c, 0, 52, 53
2,124835, Note_on_c, 0, 73, 67
2,124972, Note_on_c, 0, 54, 59
2,124978, Note_on_c, 0, 52, 0
2,125022, Note_on_c, 0, 73, 0
2,125102, Note_on_c, 0, 56, 58
2,125104, Note_on_c, 0, 76, 66
2,125108, Note_on_c, 0, 54, 0
2,125226, Note_on_c, 0, 58, 61
2,125228, Note_on_c, 0, 76, 0
2,125270, Note_on_c, 0, 56, 0
2,125362, Note_on_c, 0, 58, 0
2,125379, Note_on_c, 0, 60, 57
2,125380, Note_on_c, 0, 75, 67
2,125461, Note_on_c, 0, 80, 0
2,125499, Note_on_c, 0, 60, 0
2,125545, Note_on_c, 0, 57, 8
2,125592, Note_on_c, 0, 57, 0
2,125626, Note_on_c, 0, 60, 65
2,125636, Note_on_c, 0, 81, 71
2,125758, Note_on_c, 0, 61, 64
2,125779, Note_on_c, 0, 81, 0
2,125788, Note_on_c, 0, 60, 0
2,125880, Note_on_c, 0, 61, 0
2,125901, Note_on_c, 0, 60, 60
2,125905, Note_on_c, 0, 80, 72
2,126022, Note_on_c, 0, 61, 64
2,126041, Note_on_c, 0, 60, 0
2,126051, Note_on_c, 0, 80, 0
2,126160, Note_on_c, 0, 63, 65
2,126170, Note_on_c, 0, 78, 77
2,126188, Note_on_c, 0, 61, 0
2,126280, Note_on_c, 0, 78, 0
2,126298, Note_on_c, 0, 60, 65
2,126299, Note_on_c, 0, 63, 0
2,126448, Note_on_c, 0, 60, 0
2,126450, Note_on_c, 0, 76, 72
2,126452, Note_on_c, 0, 61, 64
2,126485, Note_on_c, 0, 75, 0
2,126583, Note_on_c, 0, 63, 64
2,126610, Note_on_c, 0, 61, 0
2,126716, Note_on_c, 0, 68, 56
2,126720, Note_on_c, 0, 63, 0
2,126722, Note_on_c, 0, 64, 66
2,126842, Note_on_c, 0, 63, 67
2,126855, Note_on_c, 0, 68, 0
2,126860, Note_on_c, 0, 64, 0
2,126968, Note_on_c, 0, 61, 59
2,126969, Note_on_c, 0, 73, 70
2,126981, Note_on_c, 0, 63, 0
2,127071, Note_on_c, 0, 61, 0
2,127091, Note_on_c, 0, 59, 57
2,127128, Note_on_c, 0, 73, 0
2,127246, Note_on_c, 0, 57, 58
2,127253, Note_on_c, 0, 71, 68
2,127256, Note_on_c, 0, 59, 0
2,127357, Note_on_c, 0, 56, 59
2,127368, Note_on_c, 0, 57, 0
2,127379, Note_on_c, 0, 71, 0
2,127509, Note_on_c, 0, 56, 0
2,127512, Note_on_c, 0, 54, 57
2,127512, Note_on_c, 0, 69, 63
2,127581, Note_on_c, 0, 76, 0
2,127631, Note_on_c, 0, 54, 0
2,127645, Note_on_c, 0, 52, 52
2,127775, Note_on_c, 0, 76, 73
2,127781, Note_on_c, 0, 54, 59
2,127794, Note_on_c, 0, 52, 0
2,127899, Note_on_c, 0, 56, 61
2,127904, Note_on_c, 0, 54, 0
2,127934, Note_on_c, 0, 76, 0
2,128057, Note_on_c, 0, 54, 61
2,128061, Note_on_c, 0, 75, 75
2,128067, Note_on_c, 0, 56, 0
2,128187, Note_on_c, 0, 56, 63
2,128209, Note_on_c, 0, 75, 0
2,128230, Note_on_c, 0, 54, 0
2,128322, Note_on_c, 0, 78, 80
2,128325, Note_on_c, 0, 57, 61
2,128344, Note_on_c, 0, 56, 0
2,128444, Note_on_c, 0, 78, 0
2,128451, Note_on_c, 0, 54, 64
2,128460, Note_on_c, 0, 57, 0
2,128592, Note_on_c, 0, 72, 80
2,128602, Note_on_c, 0, 56, 65
2,128622, Note_on_c, 0, 54, 0
2,128641, Note_on_c, 0, 69, 0
2,128754, Note_on_c, 0, 54, 63
2,128763, Note_on_c, 0, 56, 0
2,128871, Note_on_c, 0, 63, 57
2,128891, Note_on_c, 0, 56, 64
2,128925, Note_on_c, 0, 54, 0
2,128981, Note_on_c, 0, 63, 0
2,129018, Note_on_c, 0, 57, 69
2,129028, Note_on_c, 0, 56, 0
2,129139, Note_on_c, 0, 68, 74
2,129142, Note_on_c, 0, 56, 71
2,129157, Note_on_c, 0, 72, 0
2,129175, Note_on_c, 0, 57, 0
2,129237, Note_on_c, 0, 54, 73
2,129271, Note_on_c, 0, 56, 0
2,129278, Note_on_c, 0, 68, 0
2,129352, Note_on_c, 0, 54, 0
2,129382, Note_on_c, 0, 52, 69
2,129390, Note_on_c, 0, 75, 76
2,129397, Note_on_c, 0, 66, 62
2,129500, Note_on_c, 0, 75, 0
2,129509, Note_on_c, 0, 51, 74
2,129537, Note_on_c, 0, 52, 0
2,129641, Note_on_c, 0, 52, 79
2,129650, Note_on_c, 0, 51, 0
2,129661, Note_on_c, 0, 68, 73
2,129693, Note_on_c, 0, 66, 0
2,129729, Note_on_c, 0, 52, 0
2,129769, Note_on_c, 0, 66, 70
2,129907, Note_on_c, 0, 49, 81
2,129910, Note_on_c, 0, 64, 72
2,129945, Note_on_c, 0, 66, 0
2,129963, Note_on_c, 0, 49, 0
2,130045, Note_on_c, 0, 63, 71
2,130050, Note_on_c, 0, 64, 0
2,130182, Note_on_c, 0, 57, 69
2,130195, Note_on_c, 0, 61, 79
2,130198, Note_on_c, 0, 63, 0
2,130212, Note_on_c, 0, 68, 0
2,130335, Note_on_c, 0, 63, 74
2,130371, Note_on_c, 0, 61, 0
2,130449, Note_on_c, 0, 73, 71
2,130468, Note_on_c, 0, 64, 79
2,130470, Note_on_c, 0, 63, 0
2,130570, Note_on_c, 0, 61, 76
2,130598, Note_on_c, 0, 64, 0
2,130725, Note_on_c, 0, 63, 77
2,130734, Note_on_c, 0, 71, 71
2,130741, Note_on_c, 0, 73, 0
2,130782, Note_on_c, 0, 61, 0
2,130818, Note_on_c, 0, 57, 0
2,130860, Note_on_c, 0, 73, 69
2,130863, Note_on_c, 0, 71, 0
2,130991, Note_on_c, 0, 56, 67
2,130997, Note_on_c, 0, 71, 64
2,131002, Note_on_c, 0, 73, 0
2,131122, Note_on_c, 0, 54, 70
2,131138, Note_on_c, 0, 69, 66
2,131144, Note_on_c, 0, 71, 0
2,131145, Note_on_c, 0, 56, 0
2,131271, Note_on_c, 0, 56, 79
2,131303, Note_on_c, 0, 71, 64
2,131309, Note_on_c, 0, 69, 0
2,131317, Note_on_c, 0, 54, 0
2,131398, Note_on_c, 0, 63, 0
2,131424, Note_on_c, 0, 69, 72
2,131450, Note_on_c, 0, 71, 0
2,131552, Note_on_c, 0, 64, 77
2,131565, Note_on_c, 0, 68, 63
2,131594, Note_on_c, 0, 69, 0
2,131664, Note_on_c, 0, 64, 0
2,131690, Note_on_c, 0, 71, 67
2,131705, Note_on_c, 0, 68, 0
2,131831, Note_on_c, 0, 61, 77
2,131846, Note_on_c, 0, 69, 62
2,131854, Note_on_c, 0, 71, 0
2,131913, Note_on_c, 0, 56, 0
2,131949, Note_on_c, 0, 61, 0
2,131959, Note_on_c, 0, 69, 0
2,131972, Note_on_c, 0, 71, 71
2,132092, Note_on_c, 0, 69, 66
2,132098, Note_on_c, 0, 64, 78
2,132101, Note_on_c, 0, 61, 77
2,132115, Note_on_c, 0, 71, 0
2,132194, Note_on_c, 0, 64, 0
2,132209, Note_on_c, 0, 61, 0
2,132221, Note_on_c, 0, 68, 71
2,132227, Note_on_c, 0, 69, 0
2,132373, Note_on_c, 0, 69, 67
2,132376, Note_on_c, 0, 54, 81
2,132377, Note_on_c, 0, 63, 84
2,132397, Note_on_c, 0, 68, 0
2,132511, Note_on_c, 0, 68, 72
2,132538, Note_on_c, 0, 69, 0
2,132653, Note_on_c, 0, 66, 70
2,132694, Note_on_c, 0, 68, 0
2,132778, Note_on_c, 0, 61, 72
2,132796, Note_on_c, 0, 69, 67
2,132804, Note_on_c, 0, 63, 0
2,132832, Note_on_c, 0, 66, 0
2,132919, Note_on_c, 0, 68, 68
2,132928, Note_on_c, 0, 60, 79
2,132947, Note_on_c, 0, 69, 0
2,132950, Note_on_c, 0, 61, 0
2,133066, Note_on_c, 0, 54, 0
2,133069, Note_on_c, 0, 69, 68
2,133083, Note_on_c, 0, 68, 0
2,133097, Note_on_c, 0, 60, 0
2,133198, Note_on_c, 0, 69, 0
2,133199, Note_on_c, 0, 68, 67
2,133205, Note_on_c, 0, 52, 65
2,133208, Note_on_c, 0, 56, 65
2,133310, Note_on_c, 0, 56, 0
2,133313, Note_on_c, 0, 66, 67
2,133341, Note_on_c, 0, 68, 0
2,133342, Note_on_c, 0, 51, 71
2,133356, Note_on_c, 0, 52, 0
2,133473, Note_on_c, 0, 61, 74
2,133481, Note_on_c, 0, 68, 58
2,133482, Note_on_c, 0, 66, 0
2,133491, Note_on_c, 0, 52, 66
2,133529, Note_on_c, 0, 51, 0
2,133586, Note_on_c, 0, 52, 0
2,133606, Note_on_c, 0, 66, 66
2,133626, Note_on_c, 0, 68, 0
2,133748, Note_on_c, 0, 49, 69
2,133762, Note_on_c, 0, 66, 0
2,133764, Note_on_c, 0, 64, 62
2,133876, Note_on_c, 0, 68, 59
2,133877, Note_on_c, 0, 49, 0
2,133975, Note_on_c, 0, 64, 0
2,134033, Note_on_c, 0, 51, 66
2,134054, Note_on_c, 0, 68, 0
2,134056, Note_on_c, 0, 66, 61
2,134180, Note_on_c, 0, 61, 0
2,134188, Note_on_c, 0, 68, 64
2,134194, Note_on_c, 0, 66, 0
2,134324, Note_on_c, 0, 66, 63
2,134330, Note_on_c, 0, 68, 0
2,134422, Note_on_c, 0, 66, 0
2,134445, Note_on_c, 0, 64, 60
2,134584, Note_on_c, 0, 60, 72
2,134606, Note_on_c, 0, 66, 57
2,134622, Note_on_c, 0, 64, 0
2,134732, Note_on_c, 0, 64, 65
2,134741, Note_on_c, 0, 66, 0
2,134779, Note_on_c, 0, 51, 0
2,134875, Note_on_c, 0, 63, 62
2,134896, Note_on_c, 0, 64, 0
2,134983, Note_on_c, 0, 66, 66
2,135029, Note_on_c, 0, 63, 0
2,135125, Note_on_c, 0, 60, 0
2,135128, Note_on_c, 0, 49, 46
2,135135, Note_on_c, 0, 64, 67
2,135167, Note_on_c, 0, 61, 54
2,135194, Note_on_c, 0, 66, 0
2,135238, Note_on_c, 0, 49, 0
2,135256, Note_on_c, 0, 48, 54
2,135259, Note_on_c, 0, 61, 0
2,135373, Note_on_c, 0, 48, 0
2,135381, Note_on_c, 0, 49, 55
2,135394, Note_on_c, 0, 56, 57
2,135515, Note_on_c, 0, 51, 58
2,135522, Note_on_c, 0, 56, 0
2,135532, Note_on_c, 0, 49, 0
2,135635, Note_on_c, 0, 51, 0
2,135659, Note_on_c, 0, 61, 70
2,135665, Note_on_c, 0, 52, 54
2,135766, Note_on_c, 0, 64, 0
2,135801, Note_on_c, 0, 54, 57
2,135809, Note_on_c, 0, 52, 0
2,135835, Note_on_c, 0, 61, 0
2,135916, Note_on_c, 0, 64, 74
2,135941, Note_on_c, 0, 55, 57
2,135950, Note_on_c, 0, 54, 0
2,136055, Note_on_c, 0, 55, 0
2,136069, Note_on_c, 0, 64, 0
2,136071, Note_on_c, 0, 52, 56
2,136198, Note_on_c, 0, 58, 74
2,136213, Note_on_c, 0, 52, 0
2,136213, Note_on_c, 0, 54, 60
2,136351, Note_on_c, 0, 55, 59
2,136353, Note_on_c, 0, 54, 0
2,136454, Note_on_c, 0, 67, 64
2,136490, Note_on_c, 0, 54, 63
2,136491, Note_on_c, 0, 55, 0
2,136569, Note_on_c, 0, 67, 0
2,136594, Note_on_c, 0, 54, 0
2,136614, Note_on_c, 0, 52, 58
2,136647, Note_on_c, 0, 58, 0
2,136732, Note_on_c, 0, 59, 66
2,136743, Note_on_c, 0, 66, 65
2,136761, Note_on_c, 0, 50, 59
2,136766, Note_on_c, 0, 52, 0
2,136865, Note_on_c, 0, 66, 0
2,136869, Note_on_c, 0, 49, 62
2,136874, Note_on_c, 0, 50, 0
2,136910, Note_on_c, 0, 59, 0
2,136996, Note_on_c, 0, 49, 0
2,136998, Note_on_c, 0, 61, 74
2,137003, Note_on_c, 0, 64, 70
2,137014, Note_on_c, 0, 47, 60
2,137122, Note_on_c, 0, 64, 0
2,137142, Note_on_c, 0, 46, 63
2,137169, Note_on_c, 0, 47, 0
2,137275, Note_on_c, 0, 62, 73
2,137289, Note_on_c, 0, 46, 0
2,137289, Note_on_c, 0, 47, 68
2,137329, Note_on_c, 0, 61, 0
2,137426, Note_on_c, 0, 42, 57
2,137427, Note_on_c, 0, 47, 0
2,137549, Note_on_c, 0, 54, 61
2,137550, Note_on_c, 0, 42, 0
2,137563, Note_on_c, 0, 47, 61
2,137684, Note_on_c, 0, 49, 67
2,137687, Note_on_c, 0, 54, 0
2,137690, Note_on_c, 0, 47, 0
2,137827, Note_on_c, 0, 50, 66
2,137834, Note_on_c, 0, 59, 70
2,137865, Note_on_c, 0, 49, 0
2,137928, Note_on_c, 0, 50, 0
2,137959, Note_on_c, 0, 52, 61
2,137967, Note_on_c, 0, 62, 0
2,138008, Note_on_c, 0, 59, 0
2,138100, Note_on_c, 0, 62, 65
2,138101, Note_on_c, 0, 54, 66
2,138135, Note_on_c, 0, 52, 0
2,138219, Note_on_c, 0, 50, 61
2,138233, Note_on_c, 0, 54, 0
2,138236, Note_on_c, 0, 62, 0
2,138364, Note_on_c, 0, 56, 69
2,138380, Note_on_c, 0, 52, 58
2,138382, Note_on_c, 0, 50, 0
2,138499, Note_on_c, 0, 52, 0
2,138502, Note_on_c, 0, 54, 64
2,138634, Note_on_c, 0, 66, 60
2,138636, Note_on_c, 0, 52, 59
2,138643, Note_on_c, 0, 54, 0
2,138747, Note_on_c, 0, 52, 0
2,138773, Note_on_c, 0, 66, 0
2,138775, Note_on_c, 0, 50, 61
2,138842, Note_on_c, 0, 56, 0
2,138912, Note_on_c, 0, 50, 0
2,138915, Note_on_c, 0, 49, 59
2,138918, Note_on_c, 0, 57, 66
2,138936, Note_on_c, 0, 64, 67
2,139041, Note_on_c, 0, 49, 0
2,139047, Note_on_c, 0, 64, 0
2,139050, Note_on_c, 0, 47, 59
2,139124, Note_on_c, 0, 57, 0
2,139182, Note_on_c, 0, 45, 65
2,139182, Note_on_c, 0, 59, 69
2,139190, Note_on_c, 0, 62, 69
2,139192, Note_on_c, 0, 47, 0
2,139303, Note_on_c, 0, 44, 63
2,139319, Note_on_c, 0, 45, 0
2,139340, Note_on_c, 0, 62, 0
2,139447, Note_on_c, 0, 61, 72
2,139453, Note_on_c, 0, 45, 61
2,139457, Note_on_c, 0, 44, 0
2,139602, Note_on_c, 0, 40, 57
2,139604, Note_on_c, 0, 45, 0
2,139730, Note_on_c, 0, 40, 0
2,139738, Note_on_c, 0, 45, 61
2,139739, Note_on_c, 0, 59, 0
2,139759, Note_on_c, 0, 57, 54
2,139876, Note_on_c, 0, 56, 65
2,139885, Note_on_c, 0, 57, 0
2,139888, Note_on_c, 0, 47, 60
2,139891, Note_on_c, 0, 45, 0
2,140009, Note_on_c, 0, 49, 65
2,140019, Note_on_c, 0, 57, 68
2,140036, Note_on_c, 0, 47, 0
2,140047, Note_on_c, 0, 56, 0
2,140099, Note_on_c, 0, 61, 0
2,140129, Note_on_c, 0, 50, 73
2,140166, Note_on_c, 0, 49, 0
2,140269, Note_on_c, 0, 52, 67
2,140282, Note_on_c, 0, 61, 73
2,140285, Note_on_c, 0, 50, 0
2,140400, Note_on_c, 0, 49, 67
2,140413, Note_on_c, 0, 61, 0
2,140431, Note_on_c, 0, 52, 0
2,140544, Note_on_c, 0, 50, 69
2,140545, Note_on_c, 0, 66, 81
2,140571, Note_on_c, 0, 49, 0
2,140675, Note_on_c, 0, 52, 67
2,140683, Note_on_c, 0, 50, 0
2,140805, Note_on_c, 0, 50, 69
2,140815, Note_on_c, 0, 59, 69
2,140836, Note_on_c, 0, 52, 0
2,140870, Note_on_c, 0, 57, 0
2,140926, Note_on_c, 0, 49, 67
2,140938, Note_on_c, 0, 61, 74
2,140952, Note_on_c, 0, 50, 0
2,140979, Note_on_c, 0, 59, 0
2,141083, Note_on_c, 0, 47, 65
2,141083, Note_on_c, 0, 49, 0
2,141084, Note_on_c, 0, 62, 72
2,141105, Note_on_c, 0, 61, 0
2,141214, Note_on_c, 0, 45, 72
2,141246, Note_on_c, 0, 47, 0
2,141331, Note_on_c, 0, 44, 74
2,141353, Note_on_c, 0, 65, 66
2,141354, Note_on_c, 0, 45, 0
2,141431, Note_on_c, 0, 66, 0
2,141454, Note_on_c, 0, 42, 75
2,141454, Note_on_c, 0, 66, 40
2,141478, Note_on_c, 0, 65, 0
2,141481, Note_on_c, 0, 44, 0
2,141561, Note_on_c, 0, 62, 0
2,141604, Note_on_c, 0, 42, 0
2,141605, Note_on_c, 0, 41, 80
2,141608, Note_on_c, 0, 68, 79
2,141635, Note_on_c, 0, 66, 0
2,141714, Note_on_c, 0, 41, 0
2,141729, Note_on_c, 0, 61, 66
2,141799, Note_on_c, 0, 61, 0
2,141876, Note_on_c, 0, 37, 79
2,141879, Note_on_c, 0, 63, 70
2,141896, Note_on_c, 0, 68, 0
2,141908, Note_on_c, 0, 66, 72
2,142005, Note_on_c, 0, 37, 0
2,142008, Note_on_c, 0, 65, 68
2,142023, Note_on_c, 0, 68, 72
2,142042, Note_on_c, 0, 66, 0
2,142047, Note_on_c, 0, 63, 0
2,142142, Note_on_c, 0, 42, 82
2,142158, Note_on_c, 0, 69, 77
2,142159, Note_on_c, 0, 66, 77
2,142162, Note_on_c, 0, 65, 0
2,142187, Note_on_c, 0, 68, 0
2,142266, Note_on_c, 0, 69, 0
2,142296, Note_on_c, 0, 68, 79
2,142335, Note_on_c, 0, 66, 0
2,142428, Note_on_c, 0, 69, 75
2,142451, Note_on_c, 0, 68, 0
2,142563, Note_on_c, 0, 66, 73
2,142567, Note_on_c, 0, 69, 0
2,142709, Note_on_c, 0, 71, 78
2,142790, Note_on_c, 0, 66, 0
2,142836, Note_on_c, 0, 73, 80
2,142881, Note_on_c, 0, 71, 0
2,142977, Note_on_c, 0, 71, 77
2,143007, Note_on_c, 0, 73, 0
2,143072, Note_on_c, 0, 42, 0
2,143104, Note_on_c, 0, 69, 67
2,143135, Note_on_c, 0, 71, 0
2,143240, Note_on_c, 0, 41, 66
2,143252, Note_on_c, 0, 69, 0
2,143253, Note_on_c, 0, 71, 75
2,143384, Note_on_c, 0, 69, 71
2,143427, Note_on_c, 0, 71, 0
2,143513, Note_on_c, 0, 68, 72
2,143515, Note_on_c, 0, 73, 85
2,143518, Note_on_c, 0, 69, 0
2,143598, Note_on_c, 0, 68, 0
2,143608, Note_on_c, 0, 41, 0
2,143639, Note_on_c, 0, 69, 79
2,143702, Note_on_c, 0, 73, 0
2,143711, Note_on_c, 0, 69, 0
2,143781, Note_on_c, 0, 42, 63
2,143793, Note_on_c, 0, 69, 80
2,143808, Note_on_c, 0, 66, 58
2,143874, Note_on_c, 0, 66, 0
2,143916, Note_on_c, 0, 42, 0
2,143921, Note_on_c, 0, 54, 70
2,143976, Note_on_c, 0, 69, 0
2,144052, Note_on_c, 0, 56, 71
2,144052, Note_on_c, 0, 66, 76
2,144084, Note_on_c, 0, 54, 0
2,144190, Note_on_c, 0, 57, 68
2,144208, Note_on_c, 0, 66, 0
2,144244, Note_on_c, 0, 56, 0
2,144319, Note_on_c, 0, 57, 0
2,144320, Note_on_c, 0, 74, 81
2,144325, Note_on_c, 0, 69, 43
2,144342, Note_on_c, 0, 59, 64
2,144362, Note_on_c, 0, 69, 0
2,144457, Note_on_c, 0, 59, 0
2,144466, Note_on_c, 0, 61, 69
2,144573, Note_on_c, 0, 61, 0
2,144585, Note_on_c, 0, 59, 68
2,144594, Note_on_c, 0, 66, 54
2,144706, Note_on_c, 0, 66, 0
2,144714, Note_on_c, 0, 57, 68
2,144745, Note_on_c, 0, 59, 0
2,144861, Note_on_c, 0, 56, 66
2,144865, Note_on_c, 0, 64, 63
2,144876, Note_on_c, 0, 57, 0
2,144973, Note_on_c, 0, 74, 0
2,144986, Note_on_c, 0, 66, 67
2,145026, Note_on_c, 0, 64, 0
2,145131, Note_on_c, 0, 73, 76
2,145145, Note_on_c, 0, 56, 0
2,145148, Note_on_c, 0, 64, 68
2,145185, Note_on_c, 0, 66, 0
2,145251, Note_on_c, 0, 71, 75
2,145273, Note_on_c, 0, 73, 0
2,145279, Note_on_c, 0, 62, 66
2,145291, Note_on_c, 0, 64, 0
2,145395, Note_on_c, 0, 73, 81
2,145408, Note_on_c, 0, 62, 0
2,145410, Note_on_c, 0, 64, 73
2,145432, Note_on_c, 0, 71, 0
2,145543, Note_on_c, 0, 62, 67
2,145597, Note_on_c, 0, 64, 0
2,145674, Note_on_c, 0, 58, 70
2,145684, Note_on_c, 0, 61, 70
2,145722, Note_on_c, 0, 62, 0
2,145808, Note_on_c, 0, 61, 0
2,145808, Note_on_c, 0, 64, 78
2,145823, Note_on_c, 0, 58, 0
2,145931, Note_on_c, 0, 73, 0
2,145945, Note_on_c, 0, 59, 77
2,145945, Note_on_c, 0, 62, 75
2,145976, Note_on_c, 0, 64, 0
2,146070, Note_on_c, 0, 59, 0
2,146076, Note_on_c, 0, 62, 0
2,146085, Note_on_c, 0, 64, 79
2,146212, Note_on_c, 0, 62, 71
2,146214, Note_on_c, 0, 78, 83
2,146221, Note_on_c, 0, 57, 64
2,146240, Note_on_c, 0, 64, 0
2,146326, Note_on_c, 0, 62, 0
2,146335, Note_on_c, 0, 78, 0
2,146336, Note_on_c, 0, 61, 73
2,146462, Note_on_c, 0, 57, 0
2,146493, Note_on_c, 0, 71, 85
2,146501, Note_on_c, 0, 62, 69
2,146502, Note_on_c, 0, 56, 72
2,146531, Note_on_c, 0, 61, 0
2,146635, Note_on_c, 0, 62, 0
2,146645, Note_on_c, 0, 61, 71
2,146751, Note_on_c, 0, 61, 0
2,146755, Note_on_c, 0, 59, 73
2,146769, Note_on_c, 0, 56, 0
2,146875, Note_on_c, 0, 62, 71
2,146884, Note_on_c, 0, 54, 76
2,146895, Note_on_c, 0, 71, 0
2,146920, Note_on_c, 0, 59, 0
2,147028, Note_on_c, 0, 61, 72
2,147033, Note_on_c, 0, 53, 76
2,147044, Note_on_c, 0, 62, 0
2,147076, Note_on_c, 0, 54, 0
2,147168, Note_on_c, 0, 61, 0
2,147168, Note_on_c, 0, 62, 70
2,147174, Note_on_c, 0, 53, 0
2,147308, Note_on_c, 0, 61, 75
2,147311, Note_on_c, 0, 69, 73
2,147320, Note_on_c, 0, 62, 0
2,147324, Note_on_c, 0, 49, 75
2,147406, Note_on_c, 0, 49, 0
2,147429, Note_on_c, 0, 61, 0
2,147437, Note_on_c, 0, 68, 76
2,147440, Note_on_c, 0, 59, 71
2,147475, Note_on_c, 0, 69, 0
2,147575, Note_on_c, 0, 61, 72
2,147582, Note_on_c, 0, 69, 80
2,147585, Note_on_c, 0, 54, 70
2,147605, Note_on_c, 0, 59, 0
2,147605, Note_on_c, 0, 68, 0
2,147672, Note_on_c, 0, 61, 0
2,147718, Note_on_c, 0, 59, 79
2,147776, Note_on_c, 0, 69, 0
2,147840, Note_on_c, 0, 57, 66
2,147840, Note_on_c, 0, 66, 80
2,147865, Note_on_c, 0, 59, 0
2,147984, Note_on_c, 0, 57, 0
2,147984, Note_on_c, 0, 61, 72
2,148017, Note_on_c, 0, 66, 0
2,148134, Note_on_c, 0, 59, 66
2,148137, Note_on_c, 0, 68, 84
2,148149, Note_on_c, 0, 61, 0
2,148274, Note_on_c, 0, 61, 64
2,148282, Note_on_c, 0, 59, 0
2,148405, Note_on_c, 0, 59, 69
2,148433, Note_on_c, 0, 61, 0
2,148464, Note_on_c, 0, 54, 0
2,148538, Note_on_c, 0, 57, 69
2,148569, Note_on_c, 0, 59, 0
2,148673, Note_on_c, 0, 53, 68
2,148701, Note_on_c, 0, 57, 0
2,148706, Note_on_c, 0, 59, 73
2,148854, Note_on_c, 0, 57, 68
2,148856, Note_on_c, 0, 59, 0
2,148987, Note_on_c, 0, 56, 70
2,149023, Note_on_c, 0, 57, 0
2,149112, Note_on_c, 0, 59, 73
2,149115, Note_on_c, 0, 56, 0
2,149271, Note_on_c, 0, 57, 70
2,149276, Note_on_c, 0, 54, 74
2,149290, Note_on_c, 0, 53, 0
2,149296, Note_on_c, 0, 59, 0
2,149423, Note_on_c, 0, 57, 0
2,149424, Note_on_c, 0, 66, 75
2,149478, Note_on_c, 0, 68, 0
2,149480, Note_on_c, 0, 54, 0
2,149590, Note_on_c, 0, 50, 76
2,149596, Note_on_c, 0, 59, 72
2,149612, Note_on_c, 0, 66, 0
2,149736, Note_on_c, 0, 65, 75
2,149739, Note_on_c, 0, 50, 0
2,149801, Note_on_c, 0, 59, 0
2,149877, Note_on_c, 0, 61, 78
2,149880, Note_on_c, 0, 45, 75
2,149911, Note_on_c, 0, 65, 0
2,150030, Note_on_c, 0, 45, 0
2,150030, Note_on_c, 0, 66, 81
2,150076, Note_on_c, 0, 61, 0
2,150185, Note_on_c, 0, 47, 72
2,150193, Note_on_c, 0, 62, 77
2,150229, Note_on_c, 0, 66, 0
2,150346, Note_on_c, 0, 68, 77
2,150366, Note_on_c, 0, 47, 0
2,150380, Note_on_c, 0, 62, 0
2,150574, Note_on_c, 0, 49, 78
2,150576, Note_on_c, 0, 61, 73
2,150578, Note_on_c, 0, 57, 71
2,150628, Note_on_c, 0, 68, 0
2,150797, Note_on_c, 0, 61, 0
2,150970, Note_on_c, 0, 66, 82
2,151156, Note_on_c, 0, 57, 0
2,151408, Note_on_c, 0, 37, 76
2,151414, Note_on_c, 0, 56, 78
2,151456, Note_on_c, 0, 49, 0
2,151929, Note_on_c, 0, 65, 74
2,151966, Note_on_c, 0, 66, 0
2,152373, Note_on_c, 0, 56, 0
2,152571, Note_on_c, 0, 54, 77
2,152573, Note_on_c, 0, 42, 73
2,152573, Note_on_c, 0, 66, 82
2,152609, Note_on_c, 0, 37, 0
2,152611, Note_on_c, 0, 65, 0
2,154038, Note_on_c, 0, 54, 0
2,154102, Note_on_c, 0, 42, 0
2,154160, Note_on_c, 0, 66, 0
2,154161, End_track
0, 0, End_of_file
