0, 0, Header, 1, 2, 480
1, 0, Start_track
1, 0, Tempo, 500000
1, 0, Time_signature, 4, 2, 24, 8
1, 1, End_track
2,0,Start_track
2,0, Note_on_c, 0, 61, 83
2,65, Note_on_c, 0, 61, 0
2,271, Note_on_c, 0, 57, 85
2,560, Note_on_c, 0, 54, 84
2,564, Note_on_c, 0, 57, 0
2,599, Note_on_c, 0, 54, 0
2,871, Note_on_c, 0, 62, 91
2,1745, Note_on_c, 0, 62, 0
2,1759, Note_on_c, 0, 61, 81
2,1824, Note_on_c, 0, 61, 0
2,1879, Note_on_c, 0, 59, 84
2,1925, Note_on_c, 0, 59, 0
2,2030, Note_on_c, 0, 61, 89
2,2954, Note_on_c, 0, 61, 0
2,2969, Note_on_c, 0, 66, 90
2,3044, Note_on_c, 0, 66, 0
2,3285, Note_on_c, 0, 59, 94
2,4162, Note_on_c, 0, 59, 0
2,4233, Note_on_c, 0, 57, 81
2,4296, Note_on_c, 0, 57, 0
2,4359, Note_on_c, 0, 56, 82
2,4429, Note_on_c, 0, 56, 0
2,4508, Note_on_c, 0, 57, 88
2,4574, Note_on_c, 0, 57, 0
2,4793, Note_on_c, 0, 54, 78
2,4844, Note_on_c, 0, 54, 0
2,5106, Note_on_c, 0, 57, 78
2,5198, Control_c, 0, 67, 12
2,5217, Control_c, 0, 67, 37
2,5237, Control_c, 0, 67, 69
2,5255, Control_c, 0, 67, 104
2,5275, Control_c, 0, 67, 127
2,5337, Note_on_c, 0, 57, 0
2,5338, Note_on_c, 0, 56, 68
2,5419, Note_on_c, 0, 56, 0
2,5443, Note_on_c, 0, 57, 75
2,5502, Note_on_c, 0, 57, 0
2,5533, Note_on_c, 0, 56, 72
2,5581, Note_on_c, 0, 56, 0
2,5607, Note_on_c, 0, 57, 74
2,5656, Note_on_c, 0, 57, 0
2,5685, Note_on_c, 0, 56, 72
2,5730, Note_on_c, 0, 56, 0
2,5753, Note_on_c, 0, 57, 78
2,5801, Note_on_c, 0, 57, 0
2,5814, Note_on_c, 0, 56, 68
2,5866, Note_on_c, 0, 56, 0
2,5884, Note_on_c, 0, 57, 78
2,5940, Note_on_c, 0, 57, 0
2,5961, Note_on_c, 0, 56, 57
2,6000, Note_on_c, 0, 56, 0
2,6013, Note_on_c, 0, 57, 65
2,6057, Note_on_c, 0, 57, 0
2,6074, Note_on_c, 0, 56, 74
2,6177, Note_on_c, 0, 56, 0
2,6186, Note_on_c, 0, 54, 76
2,6306, Note_on_c, 0, 54, 0
2,6471, Note_on_c, 0, 56, 78
2,6546, Note_on_c, 0, 56, 0
2,6763, Note_on_c, 0, 57, 81
2,6829, Note_on_c, 0, 57, 0
2,6848, Control_c, 0, 67, 120
2,6868, Control_c, 0, 67, 108
2,6887, Control_c, 0, 67, 96
2,6906, Control_c, 0, 67, 78
2,6925, Control_c, 0, 67, 61
2,6945, Control_c, 0, 67, 46
2,6964, Control_c, 0, 67, 33
2,6982, Control_c, 0, 67, 20
2,7002, Control_c, 0, 67, 0
2,7028, Note_on_c, 0, 66, 82
2,7032, Note_on_c, 0, 59, 76
2,7098, Note_on_c, 0, 59, 0
2,7102, Note_on_c, 0, 66, 0
2,7120, Control_c, 0, 64, 9
2,7159, Control_c, 0, 64, 11
2,7325, Note_on_c, 0, 64, 83
2,7328, Note_on_c, 0, 61, 82
2,7357, Note_on_c, 0, 61, 0
2,7580, Note_on_c, 0, 64, 0
2,7597, Note_on_c, 0, 61, 81
2,7654, Note_on_c, 0, 61, 0
2,7830, Control_c, 0, 64, 9
2,7875, Note_on_c, 0, 69, 96
2,8163, Note_on_c, 0, 63, 74
2,8198, Note_on_c, 0, 63, 0
2,8455, Note_on_c, 0, 64, 84
2,8648, Note_on_c, 0, 69, 0
2,8754, Note_on_c, 0, 68, 82
2,8808, Note_on_c, 0, 68, 0
2,8879, Note_on_c, 0, 66, 81
2,8932, Note_on_c, 0, 66, 0
2,8982, Control_c, 0, 64, 11
2,9017, Note_on_c, 0, 68, 96
2,9106, Note_on_c, 0, 64, 0
2,9251, Control_c, 0, 64, 13
2,9328, Note_on_c, 0, 64, 83
2,9391, Note_on_c, 0, 64, 0
2,9606, Note_on_c, 0, 58, 84
2,9865, Control_c, 0, 64, 15
2,9875, Note_on_c, 0, 73, 85
2,9890, Note_on_c, 0, 68, 0
2,9935, Note_on_c, 0, 73, 0
2,10134, Control_c, 0, 64, 17
2,10162, Note_on_c, 0, 66, 91
2,10250, Note_on_c, 0, 58, 0
2,10403, Control_c, 0, 64, 18
2,10422, Control_c, 0, 64, 19
2,10442, Control_c, 0, 64, 20
2,10443, Note_on_c, 0, 60, 82
2,10461, Control_c, 0, 64, 21
2,10480, Control_c, 0, 64, 22
2,10491, Note_on_c, 0, 60, 0
2,10735, Note_on_c, 0, 61, 84
2,10898, Note_on_c, 0, 66, 0
2,10941, Control_c, 0, 64, 23
2,10979, Control_c, 0, 64, 24
2,11018, Note_on_c, 0, 64, 77
2,11062, Note_on_c, 0, 64, 0
2,11136, Note_on_c, 0, 63, 80
2,11199, Note_on_c, 0, 63, 0
2,11267, Control_c, 0, 64, 25
2,11288, Note_on_c, 0, 64, 81
2,11306, Note_on_c, 0, 61, 0
2,11348, Note_on_c, 0, 64, 0
2,11382, Control_c, 0, 64, 26
2,11402, Control_c, 0, 64, 27
2,11440, Control_c, 0, 64, 27
2,11584, Note_on_c, 0, 61, 80
2,11857, Note_on_c, 0, 64, 77
2,11963, Note_on_c, 0, 64, 0
2,11975, Note_on_c, 0, 63, 75
2,12045, Note_on_c, 0, 61, 0
2,12053, Note_on_c, 0, 63, 0
2,12074, Note_on_c, 0, 64, 76
2,12091, Note_on_c, 0, 60, 78
2,12149, Note_on_c, 0, 64, 0
2,12152, Note_on_c, 0, 60, 0
2,12163, Note_on_c, 0, 63, 75
2,12210, Note_on_c, 0, 58, 80
2,12235, Note_on_c, 0, 63, 0
2,12246, Note_on_c, 0, 64, 73
2,12256, Note_on_c, 0, 58, 0
2,12317, Note_on_c, 0, 64, 0
2,12324, Note_on_c, 0, 63, 78
2,12360, Note_on_c, 0, 60, 87
2,12398, Note_on_c, 0, 63, 0
2,12398, Note_on_c, 0, 64, 74
2,12425, Note_on_c, 0, 60, 0
2,12477, Note_on_c, 0, 64, 0
2,12487, Note_on_c, 0, 63, 78
2,12551, Note_on_c, 0, 64, 69
2,12554, Note_on_c, 0, 63, 0
2,12620, Note_on_c, 0, 56, 80
2,12624, Note_on_c, 0, 63, 76
2,12625, Note_on_c, 0, 64, 0
2,12659, Note_on_c, 0, 56, 0
2,12689, Note_on_c, 0, 64, 66
2,12695, Note_on_c, 0, 63, 0
2,12707, Control_c, 0, 64, 27
2,12745, Control_c, 0, 64, 26
2,12760, Note_on_c, 0, 63, 76
2,12761, Note_on_c, 0, 64, 0
2,12861, Control_c, 0, 64, 25
2,12874, Control_c, 0, 64, 23
2,12900, Control_c, 0, 64, 21
2,12903, Note_on_c, 0, 64, 85
2,12907, Note_on_c, 0, 63, 0
2,12915, Note_on_c, 0, 61, 90
2,12920, Control_c, 0, 64, 20
2,12938, Control_c, 0, 64, 17
2,12958, Control_c, 0, 64, 11
2,12977, Control_c, 0, 64, 0
2,13178, Note_on_c, 0, 73, 93
2,13202, Note_on_c, 0, 61, 0
2,13238, Note_on_c, 0, 73, 0
2,13467, Note_on_c, 0, 66, 92
2,13749, Note_on_c, 0, 57, 81
2,13761, Note_on_c, 0, 64, 0
2,13791, Note_on_c, 0, 57, 0
2,14037, Note_on_c, 0, 62, 92
2,14323, Note_on_c, 0, 71, 87
2,14337, Note_on_c, 0, 66, 0
2,14375, Note_on_c, 0, 71, 0
2,14619, Note_on_c, 0, 64, 93
2,14898, Note_on_c, 0, 56, 81
2,14908, Note_on_c, 0, 62, 0
2,14944, Note_on_c, 0, 56, 0
2,15125, Control_c, 0, 64, 9
2,15163, Control_c, 0, 64, 11
2,15188, Note_on_c, 0, 61, 88
2,15292, Note_on_c, 0, 64, 0
2,15412, Control_c, 0, 64, 13
2,15451, Control_c, 0, 64, 15
2,15471, Control_c, 0, 64, 17
2,15478, Note_on_c, 0, 69, 82
2,15501, Note_on_c, 0, 61, 0
2,15566, Control_c, 0, 64, 18
2,15755, Note_on_c, 0, 59, 76
2,15808, Note_on_c, 0, 69, 0
2,15892, Control_c, 0, 64, 19
2,16047, Note_on_c, 0, 68, 70
2,16080, Note_on_c, 0, 59, 0
2,16328, Note_on_c, 0, 57, 61
2,16354, Control_c, 0, 64, 18
2,16369, Note_on_c, 0, 68, 0
2,16619, Note_on_c, 0, 66, 57
2,16670, Note_on_c, 0, 57, 0
2,16737, Control_c, 0, 64, 19
2,16919, Note_on_c, 0, 56, 64
2,16968, Control_c, 0, 64, 20
2,17172, Note_on_c, 0, 49, 90
2,17182, Note_on_c, 0, 65, 74
2,17185, Note_on_c, 0, 56, 0
2,17202, Note_on_c, 0, 66, 0
2,17217, Control_c, 0, 64, 18
2,17243, Note_on_c, 0, 65, 0
2,17251, Note_on_c, 0, 49, 0
2,17448, Control_c, 0, 64, 17
2,17458, Note_on_c, 0, 45, 89
2,17459, Note_on_c, 0, 54, 89
2,17467, Note_on_c, 0, 66, 89
2,17505, Control_c, 0, 64, 15
2,17543, Control_c, 0, 64, 11
2,17563, Control_c, 0, 64, 9
2,17582, Control_c, 0, 64, 0
2,17700, Note_on_c, 0, 54, 0
2,17734, Note_on_c, 0, 42, 86
2,17760, Note_on_c, 0, 45, 0
2,17780, Note_on_c, 0, 42, 0
2,18022, Note_on_c, 0, 50, 101
2,18139, Note_on_c, 0, 66, 0
2,18310, Note_on_c, 0, 71, 86
2,18331, Control_c, 0, 64, 9
2,18353, Note_on_c, 0, 71, 0
2,18369, Control_c, 0, 64, 11
2,18465, Control_c, 0, 64, 13
2,18485, Control_c, 0, 64, 15
2,18503, Control_c, 0, 64, 17
2,18561, Control_c, 0, 64, 18
2,18605, Note_on_c, 0, 68, 92
2,18794, Note_on_c, 0, 50, 0
2,18856, Note_on_c, 0, 49, 84
2,18870, Note_on_c, 0, 64, 77
2,18899, Note_on_c, 0, 68, 0
2,18914, Note_on_c, 0, 49, 0
2,18965, Control_c, 0, 64, 19
2,18976, Note_on_c, 0, 47, 86
2,19012, Note_on_c, 0, 47, 0
2,19078, Note_on_c, 0, 64, 0
2,19081, Control_c, 0, 64, 20
2,19100, Control_c, 0, 64, 21
2,19119, Control_c, 0, 64, 24
2,19130, Note_on_c, 0, 49, 82
2,19130, Note_on_c, 0, 52, 87
2,19158, Control_c, 0, 64, 25
2,19397, Note_on_c, 0, 52, 0
2,19413, Note_on_c, 0, 69, 88
2,19469, Note_on_c, 0, 69, 0
2,19674, Control_c, 0, 64, 26
2,19692, Note_on_c, 0, 66, 89
2,19693, Control_c, 0, 64, 27
2,19696, Note_on_c, 0, 49, 0
2,19697, Note_on_c, 0, 57, 86
2,19713, Control_c, 0, 64, 27
2,19967, Note_on_c, 0, 63, 82
2,19969, Note_on_c, 0, 54, 88
2,20000, Control_c, 0, 64, 27
2,20000, Note_on_c, 0, 66, 0
2,20019, Control_c, 0, 64, 26
2,20035, Note_on_c, 0, 54, 0
2,20036, Note_on_c, 0, 63, 0
2,20211, Control_c, 0, 64, 27
2,20255, Note_on_c, 0, 47, 91
2,20265, Note_on_c, 0, 62, 86
2,20266, Note_on_c, 0, 57, 0
2,20327, Control_c, 0, 64, 26
2,20329, Note_on_c, 0, 62, 0
2,20480, Control_c, 0, 64, 27
2,20519, Control_c, 0, 64, 27
2,20533, Note_on_c, 0, 59, 78
2,20535, Note_on_c, 0, 68, 88
2,20557, Control_c, 0, 64, 28
2,20573, Note_on_c, 0, 59, 0
2,20596, Note_on_c, 0, 68, 0
2,20750, Control_c, 0, 64, 29
2,20768, Control_c, 0, 64, 29
2,20777, Note_on_c, 0, 47, 0
2,20788, Control_c, 0, 64, 31
2,20807, Control_c, 0, 64, 31
2,20810, Note_on_c, 0, 56, 86
2,20815, Note_on_c, 0, 65, 88
2,20922, Control_c, 0, 64, 32
2,20941, Control_c, 0, 64, 32
2,20960, Control_c, 0, 64, 33
2,20999, Control_c, 0, 64, 34
2,21004, Note_on_c, 0, 56, 0
2,21037, Control_c, 0, 64, 35
2,21071, Note_on_c, 0, 65, 0
2,21078, Note_on_c, 0, 61, 77
2,21086, Note_on_c, 0, 45, 80
2,21142, Note_on_c, 0, 61, 0
2,21159, Note_on_c, 0, 45, 0
2,21204, Note_on_c, 0, 44, 79
2,21210, Control_c, 0, 64, 34
2,21230, Control_c, 0, 64, 34
2,21248, Control_c, 0, 64, 33
2,21268, Control_c, 0, 64, 32
2,21283, Note_on_c, 0, 44, 0
2,21325, Control_c, 0, 64, 31
2,21344, Control_c, 0, 64, 29
2,21351, Note_on_c, 0, 45, 83
2,21354, Note_on_c, 0, 66, 89
2,21364, Control_c, 0, 64, 27
2,21402, Control_c, 0, 64, 27
2,21421, Control_c, 0, 64, 25
2,21425, Note_on_c, 0, 45, 0
2,21440, Control_c, 0, 64, 23
2,21459, Control_c, 0, 64, 21
2,21479, Control_c, 0, 64, 19
2,21535, Control_c, 0, 64, 21
2,21555, Control_c, 0, 64, 24
2,21574, Control_c, 0, 64, 26
2,21593, Control_c, 0, 64, 27
2,21612, Control_c, 0, 64, 31
2,21628, Note_on_c, 0, 42, 79
2,21632, Control_c, 0, 64, 36
2,21634, Note_on_c, 0, 57, 83
2,21650, Control_c, 0, 64, 37
2,21668, Note_on_c, 0, 42, 0
2,21670, Control_c, 0, 64, 38
2,21689, Control_c, 0, 64, 38
2,21690, Note_on_c, 0, 57, 0
2,21746, Control_c, 0, 64, 39
2,21804, Control_c, 0, 64, 38
2,21823, Control_c, 0, 64, 38
2,21861, Control_c, 0, 64, 37
2,21881, Control_c, 0, 64, 36
2,21900, Control_c, 0, 64, 35
2,21917, Note_on_c, 0, 45, 80
2,21920, Control_c, 0, 64, 34
2,21923, Note_on_c, 0, 59, 91
2,21941, Control_c, 0, 64, 32
2,21961, Control_c, 0, 64, 31
2,21980, Control_c, 0, 64, 29
2,21999, Control_c, 0, 64, 28
2,22050, Note_on_c, 0, 44, 67
2,22057, Note_on_c, 0, 45, 0
2,22114, Control_c, 0, 64, 29
2,22133, Control_c, 0, 64, 32
2,22142, Note_on_c, 0, 44, 0
2,22152, Control_c, 0, 64, 34
2,22160, Note_on_c, 0, 45, 73
2,22181, Note_on_c, 0, 62, 80
2,22204, Note_on_c, 0, 59, 0
2,22223, Note_on_c, 0, 45, 0
2,22246, Note_on_c, 0, 66, 0
2,22249, Control_c, 0, 64, 34
2,22255, Note_on_c, 0, 44, 72
2,22268, Control_c, 0, 64, 35
2,22268, Note_on_c, 0, 62, 0
2,22311, Note_on_c, 0, 44, 0
2,22332, Note_on_c, 0, 45, 72
2,22396, Note_on_c, 0, 45, 0
2,22403, Control_c, 0, 64, 35
2,22421, Control_c, 0, 64, 36
2,22437, Note_on_c, 0, 44, 65
2,22464, Note_on_c, 0, 65, 91
2,22479, Note_on_c, 0, 44, 0
2,22498, Note_on_c, 0, 45, 70
2,22553, Note_on_c, 0, 45, 0
2,22572, Note_on_c, 0, 44, 70
2,22624, Note_on_c, 0, 44, 0
2,22645, Note_on_c, 0, 45, 70
2,22702, Note_on_c, 0, 45, 0
2,22723, Note_on_c, 0, 44, 67
2,22732, Note_on_c, 0, 56, 82
2,22771, Note_on_c, 0, 44, 0
2,22778, Note_on_c, 0, 45, 70
2,22780, Note_on_c, 0, 65, 0
2,22803, Note_on_c, 0, 56, 0
2,22806, Control_c, 0, 64, 36
2,22832, Note_on_c, 0, 45, 0
2,22844, Control_c, 0, 64, 37
2,22855, Note_on_c, 0, 44, 74
2,22883, Control_c, 0, 64, 37
2,22921, Control_c, 0, 64, 38
2,22940, Control_c, 0, 64, 39
2,22996, Note_on_c, 0, 44, 0
2,23003, Note_on_c, 0, 42, 78
2,23009, Note_on_c, 0, 66, 89
2,23017, Note_on_c, 0, 57, 88
2,23055, Control_c, 0, 64, 38
2,23100, Note_on_c, 0, 66, 0
2,23132, Control_c, 0, 64, 38
2,23228, Note_on_c, 0, 42, 0
2,23291, Note_on_c, 0, 69, 92
2,23295, Note_on_c, 0, 61, 79
2,23304, Control_c, 0, 64, 37
2,23315, Note_on_c, 0, 57, 0
2,23326, Note_on_c, 0, 61, 0
2,23343, Control_c, 0, 64, 37
2,23351, Note_on_c, 0, 69, 0
2,23381, Control_c, 0, 64, 36
2,23401, Control_c, 0, 64, 36
2,23420, Control_c, 0, 64, 35
2,23438, Control_c, 0, 64, 35
2,23458, Control_c, 0, 64, 33
2,23477, Control_c, 0, 64, 31
2,23497, Control_c, 0, 64, 29
2,23515, Control_c, 0, 64, 28
2,23535, Control_c, 0, 64, 27
2,23554, Control_c, 0, 64, 26
2,23565, Note_on_c, 0, 50, 69
2,23571, Note_on_c, 0, 71, 85
2,23573, Control_c, 0, 64, 20
2,23592, Control_c, 0, 64, 0
2,23834, Note_on_c, 0, 54, 73
2,23835, Note_on_c, 0, 74, 85
2,23869, Note_on_c, 0, 71, 0
2,23885, Note_on_c, 0, 54, 0
2,23888, Note_on_c, 0, 74, 0
2,24116, Note_on_c, 0, 56, 81
2,24386, Note_on_c, 0, 68, 86
2,24402, Note_on_c, 0, 59, 77
2,24419, Note_on_c, 0, 56, 0
2,24440, Note_on_c, 0, 50, 0
2,24453, Note_on_c, 0, 68, 0
2,24468, Note_on_c, 0, 59, 0
2,24654, Note_on_c, 0, 69, 83
2,24659, Note_on_c, 0, 49, 82
2,24933, Note_on_c, 0, 73, 83
2,24941, Note_on_c, 0, 49, 0
2,24945, Note_on_c, 0, 57, 71
2,24951, Note_on_c, 0, 69, 0
2,24993, Note_on_c, 0, 73, 0
2,25208, Note_on_c, 0, 57, 0
2,25217, Note_on_c, 0, 47, 82
2,25219, Note_on_c, 0, 62, 80
2,25509, Note_on_c, 0, 66, 75
2,25560, Note_on_c, 0, 62, 0
2,25641, Note_on_c, 0, 68, 79
2,25674, Note_on_c, 0, 66, 0
2,25742, Note_on_c, 0, 47, 0
2,25747, Note_on_c, 0, 68, 0
2,25747, Note_on_c, 0, 69, 89
2,25758, Note_on_c, 0, 59, 84
2,25781, Control_c, 0, 64, 9
2,25820, Control_c, 0, 64, 11
2,25823, Note_on_c, 0, 69, 0
2,25829, Note_on_c, 0, 68, 68
2,25877, Control_c, 0, 64, 13
2,25895, Note_on_c, 0, 69, 82
2,25897, Control_c, 0, 64, 15
2,25902, Note_on_c, 0, 68, 0
2,25976, Note_on_c, 0, 59, 0
2,25978, Note_on_c, 0, 68, 77
2,26012, Control_c, 0, 64, 17
2,26020, Note_on_c, 0, 52, 86
2,26024, Note_on_c, 0, 69, 0
2,26031, Control_c, 0, 64, 19
2,26050, Control_c, 0, 64, 21
2,26069, Control_c, 0, 64, 22
2,26080, Note_on_c, 0, 66, 81
2,26085, Note_on_c, 0, 52, 0
2,26089, Control_c, 0, 64, 23
2,26089, Note_on_c, 0, 68, 0
2,26165, Note_on_c, 0, 68, 77
2,26205, Note_on_c, 0, 66, 0
2,26284, Note_on_c, 0, 69, 90
2,26286, Note_on_c, 0, 68, 0
2,26288, Note_on_c, 0, 49, 90
2,26291, Note_on_c, 0, 64, 87
2,26315, Control_c, 0, 64, 22
2,26341, Note_on_c, 0, 64, 0
2,26377, Control_c, 0, 64, 21
2,26492, Control_c, 0, 64, 22
2,26530, Control_c, 0, 64, 23
2,26563, Note_on_c, 0, 45, 80
2,26564, Note_on_c, 0, 61, 83
2,26576, Note_on_c, 0, 49, 0
2,26602, Note_on_c, 0, 45, 0
2,26630, Note_on_c, 0, 61, 0
2,26684, Control_c, 0, 64, 22
2,26761, Control_c, 0, 64, 23
2,26798, Control_c, 0, 64, 24
2,26846, Note_on_c, 0, 54, 91
2,26849, Note_on_c, 0, 63, 90
2,26857, Note_on_c, 0, 69, 0
2,27049, Control_c, 0, 64, 25
2,27087, Control_c, 0, 64, 26
2,27117, Note_on_c, 0, 75, 85
2,27126, Control_c, 0, 64, 27
2,27126, Note_on_c, 0, 66, 78
2,27144, Control_c, 0, 64, 27
2,27164, Note_on_c, 0, 66, 0
2,27167, Note_on_c, 0, 63, 0
2,27183, Control_c, 0, 64, 28
2,27185, Note_on_c, 0, 75, 0
2,27337, Control_c, 0, 64, 29
2,27406, Note_on_c, 0, 72, 88
2,27509, Control_c, 0, 64, 28
2,27681, Note_on_c, 0, 68, 83
2,27687, Note_on_c, 0, 60, 75
2,27712, Note_on_c, 0, 72, 0
2,27721, Control_c, 0, 64, 27
2,27725, Note_on_c, 0, 60, 0
2,27748, Note_on_c, 0, 68, 0
2,27778, Control_c, 0, 64, 27
2,27936, Note_on_c, 0, 54, 0
2,27938, Note_on_c, 0, 61, 78
2,27940, Note_on_c, 0, 52, 74
2,27989, Control_c, 0, 64, 26
2,28009, Control_c, 0, 64, 24
2,28028, Control_c, 0, 64, 21
2,28047, Control_c, 0, 64, 20
2,28086, Control_c, 0, 64, 18
2,28225, Note_on_c, 0, 73, 81
2,28233, Note_on_c, 0, 64, 72
2,28241, Note_on_c, 0, 61, 0
2,28265, Note_on_c, 0, 64, 0
2,28295, Note_on_c, 0, 73, 0
2,28335, Control_c, 0, 64, 19
2,28450, Control_c, 0, 64, 20
2,28511, Note_on_c, 0, 52, 0
2,28518, Note_on_c, 0, 51, 69
2,28528, Note_on_c, 0, 78, 91
2,28738, Control_c, 0, 64, 21
2,28808, Note_on_c, 0, 58, 70
2,28897, Note_on_c, 0, 51, 0
2,28951, Note_on_c, 0, 58, 0
2,28954, Note_on_c, 0, 60, 75
2,29026, Control_c, 0, 64, 22
2,29059, Note_on_c, 0, 61, 82
2,29061, Note_on_c, 0, 60, 0
2,29068, Note_on_c, 0, 75, 82
2,29129, Note_on_c, 0, 78, 0
2,29135, Note_on_c, 0, 61, 0
2,29140, Note_on_c, 0, 60, 54
2,29187, Note_on_c, 0, 61, 62
2,29190, Note_on_c, 0, 60, 0
2,29276, Control_c, 0, 64, 23
2,29291, Note_on_c, 0, 60, 67
2,29316, Note_on_c, 0, 61, 0
2,29352, Note_on_c, 0, 56, 74
2,29381, Note_on_c, 0, 75, 0
2,29413, Note_on_c, 0, 60, 0
2,29427, Note_on_c, 0, 58, 75
2,29497, Note_on_c, 0, 56, 0
2,29504, Control_c, 0, 64, 22
2,29522, Note_on_c, 0, 60, 68
2,29538, Note_on_c, 0, 58, 0
2,29542, Control_c, 0, 64, 21
2,29581, Control_c, 0, 64, 20
2,29585, Note_on_c, 0, 52, 81
2,29585, Note_on_c, 0, 60, 0
2,29585, Note_on_c, 0, 61, 91
2,29589, Note_on_c, 0, 80, 88
2,29619, Control_c, 0, 64, 19
2,29665, Note_on_c, 0, 80, 0
2,29677, Control_c, 0, 64, 18
2,29719, Note_on_c, 0, 52, 0
2,29832, Note_on_c, 0, 61, 0
2,29863, Note_on_c, 0, 76, 84
2,29864, Note_on_c, 0, 49, 94
2,29924, Note_on_c, 0, 76, 0
2,29935, Note_on_c, 0, 49, 0
2,29965, Control_c, 0, 64, 17
2,30022, Control_c, 0, 64, 15
2,30139, Note_on_c, 0, 57, 94
2,30146, Note_on_c, 0, 78, 87
2,30311, Control_c, 0, 64, 13
2,30436, Note_on_c, 0, 66, 85
2,30441, Note_on_c, 0, 81, 90
2,30476, Note_on_c, 0, 78, 0
2,30491, Note_on_c, 0, 66, 0
2,30492, Note_on_c, 0, 81, 0
2,30711, Note_on_c, 0, 62, 91
2,30733, Control_c, 0, 64, 11
2,30791, Control_c, 0, 64, 9
2,30810, Control_c, 0, 64, 0
2,30980, Note_on_c, 0, 62, 0
2,30994, Note_on_c, 0, 59, 79
2,30999, Note_on_c, 0, 74, 89
2,31044, Note_on_c, 0, 57, 0
2,31051, Note_on_c, 0, 74, 0
2,31273, Note_on_c, 0, 56, 82
2,31278, Note_on_c, 0, 76, 93
2,31287, Note_on_c, 0, 59, 0
2,31540, Note_on_c, 0, 64, 80
2,31550, Note_on_c, 0, 80, 94
2,31567, Note_on_c, 0, 76, 0
2,31580, Note_on_c, 0, 78, 49
2,31599, Note_on_c, 0, 80, 0
2,31605, Note_on_c, 0, 64, 0
2,31611, Note_on_c, 0, 78, 0
2,31807, Note_on_c, 0, 56, 0
2,31825, Note_on_c, 0, 61, 95
2,32095, Note_on_c, 0, 49, 72
2,32100, Note_on_c, 0, 57, 77
2,32100, Note_on_c, 0, 61, 0
2,32104, Note_on_c, 0, 73, 87
2,32165, Note_on_c, 0, 73, 0
2,32222, Note_on_c, 0, 49, 0
2,32381, Note_on_c, 0, 71, 93
2,32391, Note_on_c, 0, 54, 81
2,32406, Note_on_c, 0, 57, 0
2,32564, Note_on_c, 0, 55, 3
2,32648, Note_on_c, 0, 71, 0
2,32650, Note_on_c, 0, 62, 77
2,32654, Note_on_c, 0, 69, 80
2,32670, Note_on_c, 0, 55, 0
2,32710, Note_on_c, 0, 69, 0
2,32731, Note_on_c, 0, 62, 0
2,32787, Note_on_c, 0, 61, 79
2,32859, Note_on_c, 0, 61, 0
2,32885, Note_on_c, 0, 54, 0
2,32913, Note_on_c, 0, 59, 88
2,32913, Note_on_c, 0, 68, 93
2,32972, Note_on_c, 0, 59, 0
2,33184, Note_on_c, 0, 57, 80
2,33230, Note_on_c, 0, 57, 0
2,33461, Note_on_c, 0, 53, 78
2,33463, Note_on_c, 0, 57, 81
2,33505, Note_on_c, 0, 56, 84
2,33510, Note_on_c, 0, 57, 0
2,33539, Note_on_c, 0, 68, 0
2,33580, Note_on_c, 0, 56, 0
2,33598, Note_on_c, 0, 57, 80
2,33657, Note_on_c, 0, 57, 0
2,33663, Note_on_c, 0, 56, 77
2,33733, Note_on_c, 0, 56, 0
2,33746, Note_on_c, 0, 57, 58
2,33762, Note_on_c, 0, 73, 94
2,33784, Note_on_c, 0, 57, 0
2,33794, Note_on_c, 0, 56, 71
2,33811, Note_on_c, 0, 71, 34
2,33821, Note_on_c, 0, 71, 0
2,33827, Note_on_c, 0, 73, 0
2,33855, Note_on_c, 0, 53, 0
2,34016, Note_on_c, 0, 56, 0
2,34034, Note_on_c, 0, 69, 100
2,34053, Note_on_c, 0, 54, 80
2,34272, Note_on_c, 0, 69, 0
2,34298, Note_on_c, 0, 57, 67
2,34302, Note_on_c, 0, 66, 84
2,34346, Note_on_c, 0, 57, 0
2,34366, Note_on_c, 0, 66, 0
2,34573, Note_on_c, 0, 74, 90
2,34580, Note_on_c, 0, 59, 73
2,34591, Note_on_c, 0, 54, 0
2,34622, Note_on_c, 0, 59, 0
2,34843, Note_on_c, 0, 62, 65
2,34846, Note_on_c, 0, 71, 74
2,34879, Note_on_c, 0, 62, 0
2,34915, Note_on_c, 0, 71, 0
2,35128, Note_on_c, 0, 56, 60
2,35136, Note_on_c, 0, 64, 71
2,35274, Note_on_c, 0, 74, 0
2,35379, Note_on_c, 0, 56, 0
2,35384, Note_on_c, 0, 52, 58
2,35385, Note_on_c, 0, 73, 85
2,35429, Note_on_c, 0, 52, 0
2,35456, Note_on_c, 0, 73, 0
2,35515, Note_on_c, 0, 71, 79
2,35581, Note_on_c, 0, 71, 0
2,35673, Note_on_c, 0, 73, 92
2,35677, Note_on_c, 0, 57, 69
2,35717, Note_on_c, 0, 64, 0
2,35720, Note_on_c, 0, 57, 0
2,35952, Note_on_c, 0, 64, 74
2,35956, Note_on_c, 0, 61, 61
2,35995, Note_on_c, 0, 61, 0
2,35997, Note_on_c, 0, 64, 0
2,36225, Note_on_c, 0, 69, 86
2,36240, Note_on_c, 0, 54, 60
2,36260, Note_on_c, 0, 73, 0
2,36491, Note_on_c, 0, 78, 88
2,36500, Note_on_c, 0, 51, 59
2,36504, Note_on_c, 0, 54, 0
2,36548, Note_on_c, 0, 51, 0
2,36582, Note_on_c, 0, 78, 0
2,36763, Note_on_c, 0, 71, 88
2,36771, Note_on_c, 0, 56, 77
2,36780, Note_on_c, 0, 69, 0
2,36816, Note_on_c, 0, 56, 0
2,37046, Note_on_c, 0, 68, 80
2,37058, Note_on_c, 0, 59, 72
2,37100, Note_on_c, 0, 59, 0
2,37123, Note_on_c, 0, 68, 0
2,37165, Note_on_c, 0, 66, 78
2,37252, Note_on_c, 0, 66, 0
2,37313, Note_on_c, 0, 68, 81
2,37324, Note_on_c, 0, 53, 72
2,37340, Note_on_c, 0, 71, 0
2,37560, Note_on_c, 0, 53, 0
2,37578, Note_on_c, 0, 49, 67
2,37580, Note_on_c, 0, 69, 80
2,37583, Note_on_c, 0, 65, 70
2,37593, Note_on_c, 0, 68, 0
2,37617, Note_on_c, 0, 65, 0
2,37633, Note_on_c, 0, 49, 0
2,37700, Note_on_c, 0, 68, 84
2,37731, Note_on_c, 0, 69, 0
2,37806, Note_on_c, 0, 68, 0
2,37840, Note_on_c, 0, 66, 85
2,37847, Note_on_c, 0, 54, 72
2,37850, Note_on_c, 0, 69, 87
2,37904, Note_on_c, 0, 54, 0
2,37907, Note_on_c, 0, 66, 0
2,38125, Note_on_c, 0, 66, 85
2,38128, Note_on_c, 0, 57, 77
2,38159, Note_on_c, 0, 69, 0
2,38181, Note_on_c, 0, 57, 0
2,38408, Note_on_c, 0, 68, 93
2,38417, Note_on_c, 0, 59, 79
2,38442, Note_on_c, 0, 66, 0
2,38669, Note_on_c, 0, 64, 81
2,38673, Note_on_c, 0, 56, 73
2,38677, Note_on_c, 0, 59, 0
2,38714, Note_on_c, 0, 56, 0
2,38722, Note_on_c, 0, 64, 0
2,38795, Note_on_c, 0, 63, 75
2,38913, Note_on_c, 0, 63, 0
2,38930, Note_on_c, 0, 61, 80
2,38934, Note_on_c, 0, 64, 80
2,38995, Note_on_c, 0, 61, 0
2,39227, Note_on_c, 0, 59, 77
2,39278, Note_on_c, 0, 59, 0
2,39428, Control_c, 0, 67, 14
2,39448, Control_c, 0, 67, 33
2,39467, Control_c, 0, 67, 61
2,39486, Control_c, 0, 67, 99
2,39505, Control_c, 0, 67, 127
2,39515, Note_on_c, 0, 66, 75
2,39530, Note_on_c, 0, 58, 57
2,39539, Note_on_c, 0, 64, 0
2,39566, Note_on_c, 0, 68, 0
2,39789, Note_on_c, 0, 62, 67
2,39801, Note_on_c, 0, 58, 0
2,39809, Note_on_c, 0, 54, 53
2,39834, Note_on_c, 0, 62, 0
2,39858, Note_on_c, 0, 54, 0
2,39914, Note_on_c, 0, 61, 66
2,40017, Note_on_c, 0, 61, 0
2,40065, Note_on_c, 0, 62, 65
2,40077, Note_on_c, 0, 59, 60
2,40120, Note_on_c, 0, 66, 0
2,40123, Note_on_c, 0, 59, 0
2,40335, Note_on_c, 0, 71, 75
2,40336, Note_on_c, 0, 57, 61
2,40395, Note_on_c, 0, 57, 0
2,40424, Note_on_c, 0, 71, 0
2,40609, Note_on_c, 0, 64, 74
2,40611, Note_on_c, 0, 56, 62
2,40670, Note_on_c, 0, 56, 0
2,40670, Note_on_c, 0, 64, 0
2,40754, Control_c, 0, 67, 118
2,40773, Control_c, 0, 67, 107
2,40792, Control_c, 0, 67, 94
2,40811, Control_c, 0, 67, 84
2,40830, Control_c, 0, 67, 74
2,40850, Control_c, 0, 67, 63
2,40868, Control_c, 0, 67, 51
2,40878, Note_on_c, 0, 68, 78
2,40887, Note_on_c, 0, 52, 62
2,40888, Control_c, 0, 67, 39
2,40907, Control_c, 0, 67, 29
2,40926, Control_c, 0, 67, 17
2,40933, Note_on_c, 0, 62, 0
2,40945, Control_c, 0, 67, 0
2,40949, Note_on_c, 0, 52, 0
2,40975, Note_on_c, 0, 68, 0
2,41150, Note_on_c, 0, 69, 84
2,41152, Note_on_c, 0, 61, 84
2,41156, Note_on_c, 0, 54, 74
2,41400, Note_on_c, 0, 69, 0
2,41406, Note_on_c, 0, 54, 0
2,41424, Note_on_c, 0, 57, 80
2,41425, Control_c, 0, 64, 9
2,41428, Note_on_c, 0, 73, 82
2,41501, Note_on_c, 0, 73, 0
2,41519, Note_on_c, 0, 57, 0
2,41579, Control_c, 0, 64, 11
2,41694, Control_c, 0, 64, 9
2,41706, Note_on_c, 0, 66, 87
2,41713, Note_on_c, 0, 50, 87
2,41714, Control_c, 0, 64, 0
2,41786, Note_on_c, 0, 50, 0
2,41936, Note_on_c, 0, 61, 0
2,41981, Note_on_c, 0, 62, 80
2,41986, Note_on_c, 0, 47, 90
2,42025, Note_on_c, 0, 66, 0
2,42050, Note_on_c, 0, 47, 0
2,42276, Note_on_c, 0, 52, 92
2,42277, Note_on_c, 0, 68, 95
2,42278, Note_on_c, 0, 59, 95
2,42308, Note_on_c, 0, 62, 0
2,42344, Note_on_c, 0, 52, 0
2,42562, Note_on_c, 0, 64, 87
2,42566, Note_on_c, 0, 40, 90
2,42575, Note_on_c, 0, 59, 0
2,42613, Note_on_c, 0, 68, 0
2,42623, Note_on_c, 0, 40, 0
2,42870, Note_on_c, 0, 45, 93
2,42880, Note_on_c, 0, 69, 93
2,42888, Note_on_c, 0, 61, 90
2,42926, Note_on_c, 0, 64, 0
2,42932, Note_on_c, 0, 45, 0
2,42942, Control_c, 0, 64, 58
2,42962, Control_c, 0, 64, 64
2,42980, Control_c, 0, 64, 66
2,43000, Control_c, 0, 64, 67
2,43019, Control_c, 0, 64, 68
2,43039, Control_c, 0, 64, 70
2,43057, Control_c, 0, 64, 69
2,43077, Control_c, 0, 64, 64
2,43096, Control_c, 0, 64, 50
2,43116, Control_c, 0, 64, 0
2,43131, Note_on_c, 0, 61, 0
2,43166, Note_on_c, 0, 69, 0
2,43190, Note_on_c, 0, 57, 94
2,43266, Note_on_c, 0, 57, 0
2,43537, Note_on_c, 0, 56, 92
2,43984, Note_on_c, 0, 54, 72
2,44032, Note_on_c, 0, 56, 0
2,44093, Note_on_c, 0, 53, 81
2,44113, Note_on_c, 0, 54, 0
2,44181, Note_on_c, 0, 53, 0
2,44381, Note_on_c, 0, 61, 92
2,44393, Note_on_c, 0, 49, 83
2,44445, Note_on_c, 0, 49, 0
2,44449, Note_on_c, 0, 61, 0
2,44720, Note_on_c, 0, 59, 97
2,44721, Note_on_c, 0, 54, 82
2,44998, Control_c, 0, 64, 11
2,45017, Control_c, 0, 64, 18
2,45036, Control_c, 0, 64, 21
2,45055, Control_c, 0, 64, 24
2,45075, Control_c, 0, 64, 28
2,45094, Control_c, 0, 64, 30
2,45113, Control_c, 0, 64, 31
2,45184, Note_on_c, 0, 57, 71
2,45186, Note_on_c, 0, 59, 0
2,45228, Control_c, 0, 64, 30
2,45286, Control_c, 0, 64, 29
2,45286, Note_on_c, 0, 56, 77
2,45291, Note_on_c, 0, 57, 0
2,45305, Control_c, 0, 64, 27
2,45516, Control_c, 0, 64, 28
2,45535, Control_c, 0, 64, 29
2,45543, Note_on_c, 0, 54, 0
2,45559, Note_on_c, 0, 56, 0
2,45571, Note_on_c, 0, 74, 85
2,45574, Control_c, 0, 64, 29
2,45593, Control_c, 0, 64, 30
2,45612, Control_c, 0, 64, 31
2,45647, Note_on_c, 0, 74, 0
2,45708, Control_c, 0, 64, 31
2,45727, Control_c, 0, 64, 32
2,45861, Control_c, 0, 64, 32
2,45881, Control_c, 0, 64, 33
2,45882, Note_on_c, 0, 73, 90
2,45883, Note_on_c, 0, 53, 80
2,46015, Control_c, 0, 64, 34
2,46111, Control_c, 0, 64, 34
2,46124, Note_on_c, 0, 53, 0
2,46131, Control_c, 0, 64, 35
2,46141, Note_on_c, 0, 61, 82
2,46142, Note_on_c, 0, 52, 70
2,46169, Control_c, 0, 64, 35
2,46226, Control_c, 0, 64, 34
2,46260, Note_on_c, 0, 71, 76
2,46311, Note_on_c, 0, 73, 0
2,46323, Control_c, 0, 64, 35
2,46361, Control_c, 0, 64, 36
2,46363, Note_on_c, 0, 71, 0
2,46380, Control_c, 0, 64, 37
2,46389, Note_on_c, 0, 61, 0
2,46400, Control_c, 0, 64, 38
2,46401, Note_on_c, 0, 54, 83
2,46402, Note_on_c, 0, 70, 94
2,46425, Note_on_c, 0, 52, 0
2,46438, Control_c, 0, 64, 37
2,46450, Note_on_c, 0, 54, 0
2,46457, Control_c, 0, 64, 37
2,46460, Note_on_c, 0, 70, 0
2,46477, Control_c, 0, 64, 36
2,46574, Control_c, 0, 64, 36
2,46701, Note_on_c, 0, 50, 78
2,46704, Note_on_c, 0, 66, 93
2,46754, Note_on_c, 0, 66, 0
2,46758, Note_on_c, 0, 50, 0
2,46823, Control_c, 0, 64, 36
2,46862, Control_c, 0, 64, 37
2,46881, Control_c, 0, 64, 38
2,46900, Control_c, 0, 64, 39
2,46920, Control_c, 0, 64, 39
2,46958, Control_c, 0, 64, 40
2,47002, Note_on_c, 0, 64, 96
2,47002, Note_on_c, 0, 71, 92
2,47004, Note_on_c, 0, 49, 79
2,47054, Control_c, 0, 64, 39
2,47060, Note_on_c, 0, 49, 0
2,47092, Control_c, 0, 64, 39
2,47293, Note_on_c, 0, 47, 68
2,47323, Control_c, 0, 64, 38
2,47358, Note_on_c, 0, 47, 0
2,47361, Control_c, 0, 64, 38
2,47380, Control_c, 0, 64, 37
2,47391, Note_on_c, 0, 64, 0
2,47417, Note_on_c, 0, 62, 75
2,47419, Control_c, 0, 64, 37
2,47513, Control_c, 0, 64, 36
2,47532, Control_c, 0, 64, 36
2,47538, Note_on_c, 0, 52, 76
2,47545, Note_on_c, 0, 61, 87
2,47570, Note_on_c, 0, 62, 0
2,47580, Note_on_c, 0, 52, 0
2,47611, Note_on_c, 0, 61, 0
2,47801, Control_c, 0, 64, 37
2,47809, Note_on_c, 0, 67, 83
2,47812, Note_on_c, 0, 49, 83
2,47820, Control_c, 0, 64, 38
2,47842, Note_on_c, 0, 71, 0
2,47858, Control_c, 0, 64, 38
2,47860, Note_on_c, 0, 49, 0
2,47865, Note_on_c, 0, 67, 0
2,47897, Control_c, 0, 64, 39
2,47993, Control_c, 0, 64, 39
2,48012, Control_c, 0, 64, 40
2,48031, Control_c, 0, 64, 41
2,48051, Control_c, 0, 64, 42
2,48069, Control_c, 0, 64, 43
2,48089, Control_c, 0, 64, 44
2,48092, Note_on_c, 0, 70, 94
2,48094, Note_on_c, 0, 54, 82
2,48105, Note_on_c, 0, 66, 81
2,48162, Note_on_c, 0, 54, 0
2,48300, Control_c, 0, 64, 44
2,48360, Note_on_c, 0, 42, 73
2,48362, Note_on_c, 0, 69, 80
2,48377, Control_c, 0, 64, 44
2,48399, Note_on_c, 0, 70, 0
2,48407, Note_on_c, 0, 66, 0
2,48419, Note_on_c, 0, 42, 0
2,48506, Note_on_c, 0, 64, 77
2,48564, Note_on_c, 0, 69, 0
2,48571, Note_on_c, 0, 64, 0
2,48607, Control_c, 0, 64, 43
2,48631, Note_on_c, 0, 63, 82
2,48633, Note_on_c, 0, 47, 91
2,48665, Control_c, 0, 64, 43
2,48684, Control_c, 0, 64, 42
2,48701, Note_on_c, 0, 63, 0
2,48703, Control_c, 0, 64, 42
2,48800, Control_c, 0, 64, 43
2,48876, Control_c, 0, 64, 43
2,48895, Control_c, 0, 64, 44
2,48902, Note_on_c, 0, 71, 82
2,48904, Note_on_c, 0, 59, 79
2,48915, Control_c, 0, 64, 44
2,48940, Note_on_c, 0, 59, 0
2,48953, Control_c, 0, 64, 44
2,48966, Note_on_c, 0, 71, 0
2,49126, Control_c, 0, 64, 44
2,49164, Control_c, 0, 64, 45
2,49203, Control_c, 0, 64, 44
2,49220, Note_on_c, 0, 69, 96
2,49221, Control_c, 0, 64, 44
2,49221, Note_on_c, 0, 64, 93
2,49283, Note_on_c, 0, 47, 0
2,49318, Control_c, 0, 64, 43
2,49337, Control_c, 0, 64, 43
2,49433, Control_c, 0, 64, 43
2,49476, Note_on_c, 0, 49, 87
2,49534, Note_on_c, 0, 49, 0
2,49567, Control_c, 0, 64, 43
2,49605, Note_on_c, 0, 64, 0
2,49605, Note_on_c, 0, 68, 80
2,49606, Control_c, 0, 64, 42
2,49625, Control_c, 0, 64, 42
2,49686, Note_on_c, 0, 69, 0
2,49737, Note_on_c, 0, 66, 84
2,49740, Control_c, 0, 64, 41
2,49757, Note_on_c, 0, 45, 84
2,49767, Note_on_c, 0, 68, 0
2,49790, Note_on_c, 0, 45, 0
2,49798, Control_c, 0, 64, 41
2,49817, Control_c, 0, 64, 40
2,49836, Control_c, 0, 64, 40
2,49913, Control_c, 0, 64, 40
2,49932, Control_c, 0, 64, 41
2,49951, Control_c, 0, 64, 42
2,49971, Control_c, 0, 64, 43
2,49989, Control_c, 0, 64, 44
2,50028, Control_c, 0, 64, 45
2,50031, Note_on_c, 0, 61, 88
2,50086, Note_on_c, 0, 61, 0
2,50124, Control_c, 0, 64, 45
2,50143, Control_c, 0, 64, 46
2,50201, Control_c, 0, 64, 45
2,50220, Control_c, 0, 64, 45
2,50311, Note_on_c, 0, 59, 86
2,50316, Note_on_c, 0, 63, 83
2,50336, Control_c, 0, 64, 44
2,50509, Control_c, 0, 64, 45
2,50528, Control_c, 0, 64, 45
2,50585, Control_c, 0, 64, 45
2,50602, Note_on_c, 0, 62, 78
2,50605, Control_c, 0, 64, 44
2,50635, Note_on_c, 0, 63, 0
2,50644, Control_c, 0, 64, 45
2,50662, Control_c, 0, 64, 44
2,50687, Note_on_c, 0, 62, 0
2,50729, Note_on_c, 0, 57, 79
2,50731, Note_on_c, 0, 59, 0
2,50759, Control_c, 0, 64, 44
2,50778, Control_c, 0, 64, 43
2,50797, Control_c, 0, 64, 43
2,50855, Control_c, 0, 64, 43
2,50858, Note_on_c, 0, 64, 84
2,50866, Note_on_c, 0, 56, 84
2,50874, Control_c, 0, 64, 44
2,50883, Note_on_c, 0, 57, 0
2,50919, Note_on_c, 0, 66, 0
2,50922, Note_on_c, 0, 56, 0
2,50950, Control_c, 0, 64, 43
2,50989, Control_c, 0, 64, 43
2,51140, Note_on_c, 0, 52, 83
2,51145, Note_on_c, 0, 61, 81
2,51150, Note_on_c, 0, 64, 0
2,51162, Control_c, 0, 64, 42
2,51172, Note_on_c, 0, 52, 0
2,51211, Note_on_c, 0, 61, 0
2,51258, Control_c, 0, 64, 41
2,51266, Note_on_c, 0, 59, 88
2,51294, Control_c, 0, 64, 40
2,51326, Note_on_c, 0, 59, 0
2,51390, Control_c, 0, 64, 40
2,51410, Control_c, 0, 64, 39
2,51410, Note_on_c, 0, 57, 92
2,51417, Note_on_c, 0, 61, 92
2,51428, Control_c, 0, 64, 37
2,51448, Control_c, 0, 64, 36
2,51469, Note_on_c, 0, 61, 0
2,51602, Control_c, 0, 64, 37
2,51620, Control_c, 0, 64, 38
2,51640, Control_c, 0, 64, 39
2,51659, Control_c, 0, 64, 40
2,51688, Note_on_c, 0, 66, 85
2,51693, Note_on_c, 0, 69, 82
2,51717, Control_c, 0, 64, 39
2,51735, Note_on_c, 0, 69, 0
2,51736, Note_on_c, 0, 66, 0
2,51794, Control_c, 0, 64, 39
2,51890, Control_c, 0, 64, 39
2,51908, Control_c, 0, 64, 40
2,51928, Control_c, 0, 64, 40
2,51947, Control_c, 0, 64, 41
2,51984, Note_on_c, 0, 71, 94
2,51985, Control_c, 0, 64, 41
2,51989, Note_on_c, 0, 62, 93
2,52005, Control_c, 0, 64, 42
2,52024, Control_c, 0, 64, 42
2,52062, Control_c, 0, 64, 42
2,52063, Note_on_c, 0, 62, 0
2,52159, Control_c, 0, 64, 41
2,52177, Control_c, 0, 64, 41
2,52236, Control_c, 0, 64, 40
2,52253, Control_c, 0, 64, 39
2,52260, Note_on_c, 0, 59, 89
2,52272, Control_c, 0, 64, 39
2,52292, Control_c, 0, 64, 38
2,52315, Note_on_c, 0, 59, 0
2,52333, Note_on_c, 0, 57, 0
2,52369, Control_c, 0, 64, 37
2,52387, Control_c, 0, 64, 36
2,52426, Control_c, 0, 64, 36
2,52484, Control_c, 0, 64, 35
2,52503, Control_c, 0, 64, 35
2,52518, Note_on_c, 0, 56, 72
2,52518, Note_on_c, 0, 64, 89
2,52541, Control_c, 0, 64, 34
2,52566, Note_on_c, 0, 71, 0
2,52579, Note_on_c, 0, 56, 0
2,52795, Note_on_c, 0, 52, 57
2,52801, Note_on_c, 0, 68, 89
2,52849, Control_c, 0, 64, 35
2,52849, Note_on_c, 0, 52, 0
2,52867, Control_c, 0, 64, 35
2,52879, Note_on_c, 0, 68, 0
2,52887, Control_c, 0, 64, 36
2,52926, Control_c, 0, 64, 36
2,52983, Control_c, 0, 64, 37
2,53088, Note_on_c, 0, 73, 94
2,53091, Note_on_c, 0, 57, 58
2,53098, Control_c, 0, 64, 37
2,53108, Note_on_c, 0, 64, 0
2,53118, Control_c, 0, 64, 38
2,53136, Control_c, 0, 64, 38
2,53367, Control_c, 0, 64, 38
2,53372, Note_on_c, 0, 61, 85
2,53386, Control_c, 0, 64, 37
2,53422, Note_on_c, 0, 61, 0
2,53650, Note_on_c, 0, 66, 90
2,53675, Control_c, 0, 64, 38
2,53693, Control_c, 0, 64, 38
2,53710, Note_on_c, 0, 73, 0
2,53732, Control_c, 0, 64, 39
2,53906, Note_on_c, 0, 57, 0
2,53917, Note_on_c, 0, 54, 80
2,53917, Note_on_c, 0, 69, 78
2,53960, Note_on_c, 0, 54, 0
2,53992, Note_on_c, 0, 69, 0
2,54201, Note_on_c, 0, 59, 97
2,54206, Note_on_c, 0, 74, 88
2,54241, Note_on_c, 0, 66, 0
2,54250, Control_c, 0, 64, 38
2,54269, Control_c, 0, 64, 38
2,54384, Control_c, 0, 64, 37
2,54404, Control_c, 0, 64, 38
2,54442, Control_c, 0, 64, 38
2,54466, Note_on_c, 0, 69, 82
2,54519, Control_c, 0, 64, 39
2,54531, Note_on_c, 0, 69, 0
2,54766, Note_on_c, 0, 68, 90
2,54906, Note_on_c, 0, 59, 0
2,54924, Control_c, 0, 64, 39
2,55001, Control_c, 0, 64, 40
2,55021, Control_c, 0, 64, 40
2,55035, Note_on_c, 0, 56, 93
2,55101, Note_on_c, 0, 56, 0
2,55145, Note_on_c, 0, 68, 0
2,55164, Note_on_c, 0, 66, 83
2,55232, Control_c, 0, 64, 41
2,55256, Note_on_c, 0, 66, 0
2,55284, Note_on_c, 0, 74, 0
2,55301, Note_on_c, 0, 61, 94
2,55305, Note_on_c, 0, 64, 86
2,55375, Note_on_c, 0, 64, 0
2,55481, Control_c, 0, 64, 41
2,55501, Control_c, 0, 64, 42
2,55585, Note_on_c, 0, 71, 85
2,55591, Note_on_c, 0, 74, 83
2,55646, Note_on_c, 0, 71, 0
2,55658, Note_on_c, 0, 74, 0
2,55693, Control_c, 0, 64, 41
2,55864, Note_on_c, 0, 73, 89
2,55868, Note_on_c, 0, 69, 92
2,56128, Note_on_c, 0, 69, 0
2,56150, Note_on_c, 0, 68, 84
2,56153, Control_c, 0, 64, 41
2,56207, Note_on_c, 0, 73, 0
2,56272, Note_on_c, 0, 71, 87
2,56289, Note_on_c, 0, 68, 0
2,56399, Note_on_c, 0, 61, 0
2,56408, Note_on_c, 0, 69, 87
2,56411, Note_on_c, 0, 71, 0
2,56421, Note_on_c, 0, 66, 83
2,56547, Note_on_c, 0, 69, 0
2,56681, Note_on_c, 0, 61, 75
2,56681, Note_on_c, 0, 64, 76
2,56720, Note_on_c, 0, 61, 0
2,56726, Note_on_c, 0, 64, 0
2,56921, Control_c, 0, 64, 40
2,56941, Control_c, 0, 64, 40
2,56960, Control_c, 0, 64, 39
2,56973, Note_on_c, 0, 62, 77
2,56973, Note_on_c, 0, 78, 95
2,56982, Note_on_c, 0, 59, 74
2,57032, Note_on_c, 0, 66, 0
2,57209, Control_c, 0, 64, 38
2,57235, Note_on_c, 0, 61, 75
2,57248, Note_on_c, 0, 62, 0
2,57270, Note_on_c, 0, 59, 0
2,57323, Control_c, 0, 64, 38
2,57354, Note_on_c, 0, 57, 72
2,57437, Note_on_c, 0, 61, 0
2,57477, Control_c, 0, 64, 37
2,57491, Note_on_c, 0, 56, 77
2,57495, Note_on_c, 0, 59, 81
2,57516, Control_c, 0, 64, 37
2,57516, Note_on_c, 0, 57, 0
2,57535, Control_c, 0, 64, 36
2,57554, Control_c, 0, 64, 34
2,57595, Note_on_c, 0, 78, 0
2,57689, Control_c, 0, 64, 34
2,57746, Control_c, 0, 64, 33
2,57766, Control_c, 0, 64, 32
2,57785, Note_on_c, 0, 76, 91
2,57856, Note_on_c, 0, 76, 0
2,57862, Control_c, 0, 64, 32
2,57919, Control_c, 0, 64, 31
2,58054, Control_c, 0, 64, 32
2,58069, Note_on_c, 0, 59, 0
2,58079, Note_on_c, 0, 66, 79
2,58083, Note_on_c, 0, 58, 71
2,58083, Note_on_c, 0, 74, 93
2,58092, Control_c, 0, 64, 32
2,58124, Note_on_c, 0, 56, 0
2,58322, Control_c, 0, 64, 33
2,58508, Note_on_c, 0, 73, 80
2,58514, Note_on_c, 0, 74, 0
2,58570, Note_on_c, 0, 66, 0
2,58572, Control_c, 0, 64, 34
2,58582, Note_on_c, 0, 73, 0
2,58591, Control_c, 0, 64, 34
2,58608, Note_on_c, 0, 59, 76
2,58611, Control_c, 0, 64, 35
2,58618, Note_on_c, 0, 74, 92
2,58679, Note_on_c, 0, 74, 0
2,58682, Note_on_c, 0, 58, 0
2,58688, Control_c, 0, 64, 35
2,58783, Control_c, 0, 64, 36
2,58822, Control_c, 0, 64, 37
2,58840, Control_c, 0, 64, 38
2,58849, Note_on_c, 0, 59, 0
2,58890, Note_on_c, 0, 62, 83
2,58906, Note_on_c, 0, 71, 90
2,58917, Control_c, 0, 64, 38
2,58970, Note_on_c, 0, 71, 0
2,59008, Note_on_c, 0, 62, 0
2,59014, Control_c, 0, 64, 38
2,59190, Note_on_c, 0, 61, 87
2,59194, Note_on_c, 0, 76, 94
2,59196, Note_on_c, 0, 55, 72
2,59243, Control_c, 0, 64, 37
2,59263, Control_c, 0, 64, 36
2,59282, Control_c, 0, 64, 36
2,59397, Control_c, 0, 64, 36
2,59455, Control_c, 0, 64, 37
2,59603, Note_on_c, 0, 55, 0
2,59608, Note_on_c, 0, 59, 78
2,59640, Note_on_c, 0, 61, 0
2,59743, Control_c, 0, 64, 37
2,59745, Note_on_c, 0, 58, 74
2,59749, Note_on_c, 0, 59, 0
2,59758, Note_on_c, 0, 54, 70
2,59762, Control_c, 0, 64, 38
2,59782, Control_c, 0, 64, 38
2,59813, Note_on_c, 0, 58, 0
2,59820, Control_c, 0, 64, 39
2,59824, Note_on_c, 0, 54, 0
2,60020, Note_on_c, 0, 78, 88
2,60024, Note_on_c, 0, 54, 75
2,60071, Note_on_c, 0, 76, 0
2,60074, Note_on_c, 0, 54, 0
2,60097, Note_on_c, 0, 78, 0
2,60128, Control_c, 0, 64, 38
2,60243, Control_c, 0, 64, 38
2,60263, Control_c, 0, 64, 37
2,60308, Note_on_c, 0, 59, 87
2,60312, Note_on_c, 0, 74, 93
2,60573, Note_on_c, 0, 55, 79
2,60575, Note_on_c, 0, 71, 91
2,60584, Note_on_c, 0, 74, 0
2,60623, Note_on_c, 0, 55, 0
2,60628, Note_on_c, 0, 71, 0
2,60858, Control_c, 0, 64, 38
2,60860, Note_on_c, 0, 73, 94
2,60861, Note_on_c, 0, 52, 85
2,60953, Control_c, 0, 64, 38
2,60973, Control_c, 0, 64, 39
2,61111, Note_on_c, 0, 52, 0
2,61113, Note_on_c, 0, 49, 87
2,61170, Note_on_c, 0, 49, 0
2,61401, Note_on_c, 0, 58, 88
2,61403, Note_on_c, 0, 54, 81
2,61423, Note_on_c, 0, 59, 0
2,61440, Note_on_c, 0, 73, 0
2,61689, Note_on_c, 0, 66, 89
2,61689, Note_on_c, 0, 70, 89
2,61746, Note_on_c, 0, 66, 0
2,61750, Note_on_c, 0, 70, 0
2,61798, Control_c, 0, 64, 38
2,61818, Control_c, 0, 64, 38
2,61945, Note_on_c, 0, 58, 0
2,61952, Control_c, 0, 64, 39
2,61956, Note_on_c, 0, 62, 91
2,61956, Note_on_c, 0, 71, 93
2,61972, Control_c, 0, 64, 40
2,62048, Control_c, 0, 64, 39
2,62112, Note_on_c, 0, 71, 0
2,62212, Note_on_c, 0, 74, 77
2,62221, Control_c, 0, 64, 40
2,62222, Note_on_c, 0, 59, 87
2,62229, Note_on_c, 0, 62, 0
2,62259, Control_c, 0, 64, 40
2,62288, Note_on_c, 0, 74, 0
2,62298, Control_c, 0, 64, 41
2,62311, Note_on_c, 0, 59, 0
2,62336, Control_c, 0, 64, 41
2,62351, Note_on_c, 0, 54, 0
2,62501, Note_on_c, 0, 67, 86
2,62506, Note_on_c, 0, 73, 90
2,62512, Note_on_c, 0, 52, 85
2,62586, Control_c, 0, 64, 41
2,62587, Note_on_c, 0, 52, 0
2,62624, Control_c, 0, 64, 40
2,62663, Control_c, 0, 64, 40
2,62681, Control_c, 0, 64, 41
2,62790, Note_on_c, 0, 50, 78
2,62835, Control_c, 0, 64, 40
2,62876, Note_on_c, 0, 50, 0
2,62912, Control_c, 0, 64, 41
2,62928, Note_on_c, 0, 71, 76
2,62946, Note_on_c, 0, 67, 0
2,62999, Note_on_c, 0, 73, 0
2,63042, Note_on_c, 0, 69, 87
2,63045, Note_on_c, 0, 49, 75
2,63066, Control_c, 0, 64, 41
2,63067, Note_on_c, 0, 71, 0
2,63084, Control_c, 0, 64, 42
2,63104, Control_c, 0, 64, 42
2,63114, Note_on_c, 0, 49, 0
2,63123, Control_c, 0, 64, 43
2,63143, Control_c, 0, 64, 43
2,63200, Control_c, 0, 64, 43
2,63258, Control_c, 0, 64, 42
2,63277, Control_c, 0, 64, 42
2,63312, Note_on_c, 0, 45, 66
2,63315, Control_c, 0, 64, 41
2,63315, Note_on_c, 0, 66, 87
2,63353, Control_c, 0, 64, 40
2,63360, Note_on_c, 0, 45, 0
2,63408, Note_on_c, 0, 66, 0
2,63443, Note_on_c, 0, 64, 90
2,63515, Note_on_c, 0, 64, 0
2,63592, Note_on_c, 0, 50, 87
2,63594, Note_on_c, 0, 66, 91
2,63614, Note_on_c, 0, 69, 0
2,63664, Note_on_c, 0, 50, 0
2,63680, Control_c, 0, 64, 41
2,63738, Control_c, 0, 64, 41
2,63773, Control_c, 0, 64, 42
2,63848, Note_on_c, 0, 49, 88
2,63850, Note_on_c, 0, 74, 79
2,63868, Control_c, 0, 64, 42
2,63888, Control_c, 0, 64, 43
2,63912, Note_on_c, 0, 49, 0
2,63936, Note_on_c, 0, 74, 0
2,64002, Control_c, 0, 64, 42
2,64041, Control_c, 0, 64, 42
2,64079, Control_c, 0, 64, 41
2,64114, Note_on_c, 0, 47, 89
2,64120, Note_on_c, 0, 67, 83
2,64137, Control_c, 0, 64, 41
2,64176, Control_c, 0, 64, 40
2,64180, Note_on_c, 0, 47, 0
2,64199, Note_on_c, 0, 66, 0
2,64233, Control_c, 0, 64, 41
2,64411, Note_on_c, 0, 50, 94
2,64411, Note_on_c, 0, 71, 88
2,64473, Note_on_c, 0, 50, 0
2,64552, Note_on_c, 0, 71, 0
2,64617, Control_c, 0, 64, 42
2,64636, Control_c, 0, 64, 42
2,64672, Note_on_c, 0, 49, 95
2,64674, Control_c, 0, 64, 43
2,64679, Note_on_c, 0, 64, 91
2,64758, Note_on_c, 0, 67, 0
2,64776, Control_c, 0, 64, 42
2,64814, Control_c, 0, 64, 43
2,64968, Control_c, 0, 64, 42
2,64974, Note_on_c, 0, 73, 81
2,65044, Control_c, 0, 64, 43
2,65057, Note_on_c, 0, 73, 0
2,65077, Note_on_c, 0, 47, 78
2,65080, Note_on_c, 0, 49, 0
2,65102, Control_c, 0, 64, 42
2,65121, Control_c, 0, 64, 42
2,65196, Note_on_c, 0, 47, 0
2,65203, Note_on_c, 0, 46, 82
2,65214, Note_on_c, 0, 66, 86
2,65234, Note_on_c, 0, 64, 0
2,65279, Note_on_c, 0, 46, 0
2,65483, Note_on_c, 0, 62, 81
2,65490, Note_on_c, 0, 42, 80
2,65534, Note_on_c, 0, 42, 0
2,65555, Note_on_c, 0, 62, 0
2,65598, Note_on_c, 0, 61, 85
2,65601, Control_c, 0, 64, 41
2,65639, Control_c, 0, 64, 41
2,65671, Note_on_c, 0, 61, 0
2,65715, Control_c, 0, 64, 40
2,65735, Control_c, 0, 64, 39
2,65753, Control_c, 0, 64, 39
2,65756, Note_on_c, 0, 47, 91
2,65765, Note_on_c, 0, 62, 86
2,65845, Note_on_c, 0, 62, 0
2,66043, Note_on_c, 0, 59, 85
2,66104, Note_on_c, 0, 59, 0
2,66312, Note_on_c, 0, 61, 88
2,66355, Note_on_c, 0, 66, 0
2,66446, Note_on_c, 0, 47, 0
2,66573, Note_on_c, 0, 45, 78
2,66603, Note_on_c, 0, 65, 76
2,66623, Note_on_c, 0, 45, 0
2,66637, Control_c, 0, 64, 39
2,66656, Control_c, 0, 64, 40
2,66697, Note_on_c, 0, 65, 0
2,66699, Note_on_c, 0, 44, 76
2,66742, Note_on_c, 0, 44, 0
2,66851, Note_on_c, 0, 45, 75
2,66865, Note_on_c, 0, 66, 83
2,66886, Control_c, 0, 64, 39
2,66906, Control_c, 0, 64, 39
2,67136, Control_c, 0, 64, 38
2,67139, Note_on_c, 0, 69, 83
2,67150, Note_on_c, 0, 66, 0
2,67155, Control_c, 0, 64, 38
2,67173, Note_on_c, 0, 61, 0
2,67193, Control_c, 0, 64, 37
2,67196, Note_on_c, 0, 69, 0
2,67232, Control_c, 0, 64, 37
2,67270, Control_c, 0, 64, 36
2,67309, Control_c, 0, 64, 36
2,67405, Note_on_c, 0, 63, 83
2,67419, Note_on_c, 0, 59, 77
2,67463, Control_c, 0, 64, 35
2,67597, Note_on_c, 0, 45, 0
2,67661, Note_on_c, 0, 44, 78
2,67678, Note_on_c, 0, 66, 77
2,67710, Note_on_c, 0, 44, 0
2,67720, Note_on_c, 0, 63, 0
2,67737, Note_on_c, 0, 66, 0
2,67784, Note_on_c, 0, 42, 80
2,67806, Control_c, 0, 64, 36
2,67836, Note_on_c, 0, 42, 0
2,67943, Note_on_c, 0, 71, 94
2,67945, Note_on_c, 0, 44, 79
2,67984, Note_on_c, 0, 59, 0
2,68009, Note_on_c, 0, 44, 0
2,68113, Control_c, 0, 64, 35
2,68197, Note_on_c, 0, 68, 71
2,68210, Note_on_c, 0, 40, 64
2,68244, Note_on_c, 0, 68, 0
2,68267, Control_c, 0, 64, 36
2,68270, Note_on_c, 0, 40, 0
2,68324, Control_c, 0, 64, 36
2,68344, Control_c, 0, 64, 37
2,68362, Control_c, 0, 64, 38
2,68478, Control_c, 0, 64, 37
2,68498, Control_c, 0, 64, 36
2,68499, Note_on_c, 0, 64, 68
2,68502, Note_on_c, 0, 49, 60
2,68516, Control_c, 0, 64, 35
2,68536, Control_c, 0, 64, 31
2,68555, Control_c, 0, 64, 27
2,68568, Note_on_c, 0, 49, 0
2,68574, Control_c, 0, 64, 24
2,68593, Control_c, 0, 64, 22
2,68632, Control_c, 0, 64, 19
2,68635, Note_on_c, 0, 71, 0
2,68651, Control_c, 0, 64, 0
2,68766, Control_c, 0, 67, 9
2,68780, Note_on_c, 0, 69, 73
2,68784, Note_on_c, 0, 37, 56
2,68785, Control_c, 0, 67, 22
2,68804, Control_c, 0, 67, 42
2,68824, Control_c, 0, 67, 70
2,68824, Note_on_c, 0, 69, 0
2,68837, Note_on_c, 0, 37, 0
2,68842, Control_c, 0, 67, 111
2,68862, Control_c, 0, 67, 127
2,68909, Note_on_c, 0, 68, 81
2,68980, Note_on_c, 0, 68, 0
2,69051, Note_on_c, 0, 69, 83
2,69059, Note_on_c, 0, 49, 64
2,69116, Note_on_c, 0, 69, 0
2,69323, Note_on_c, 0, 73, 73
2,69371, Note_on_c, 0, 64, 0
2,69398, Note_on_c, 0, 73, 0
2,69594, Note_on_c, 0, 66, 77
2,69601, Note_on_c, 0, 62, 62
2,69774, Note_on_c, 0, 49, 0
2,69851, Note_on_c, 0, 47, 75
2,69877, Note_on_c, 0, 69, 75
2,69909, Note_on_c, 0, 47, 0
2,69913, Note_on_c, 0, 66, 0
2,69948, Note_on_c, 0, 69, 0
2,69978, Note_on_c, 0, 45, 71
2,70038, Note_on_c, 0, 45, 0
2,70133, Note_on_c, 0, 47, 70
2,70133, Note_on_c, 0, 74, 88
2,70182, Note_on_c, 0, 62, 0
2,70187, Note_on_c, 0, 47, 0
2,70393, Note_on_c, 0, 71, 69
2,70394, Note_on_c, 0, 44, 67
2,70475, Note_on_c, 0, 44, 0
2,70548, Note_on_c, 0, 71, 0
2,70590, Control_c, 0, 67, 121
2,70610, Control_c, 0, 67, 110
2,70628, Control_c, 0, 67, 99
2,70647, Control_c, 0, 67, 85
2,70667, Control_c, 0, 67, 71
2,70667, Note_on_c, 0, 68, 77
2,70673, Note_on_c, 0, 41, 73
2,70686, Control_c, 0, 67, 56
2,70705, Control_c, 0, 67, 39
2,70709, Note_on_c, 0, 41, 0
2,70717, Note_on_c, 0, 74, 0
2,70724, Control_c, 0, 67, 19
2,70744, Control_c, 0, 67, 0
2,70934, Note_on_c, 0, 74, 83
2,70940, Note_on_c, 0, 65, 75
2,70943, Note_on_c, 0, 56, 75
2,70957, Note_on_c, 0, 68, 0
2,70974, Control_c, 0, 64, 15
2,70993, Control_c, 0, 64, 23
2,70997, Note_on_c, 0, 56, 0
2,71013, Control_c, 0, 64, 25
2,71018, Note_on_c, 0, 74, 0
2,71032, Control_c, 0, 64, 26
2,71090, Control_c, 0, 64, 27
2,71108, Control_c, 0, 64, 27
2,71127, Control_c, 0, 64, 28
2,71201, Note_on_c, 0, 73, 88
2,71202, Note_on_c, 0, 53, 79
2,71204, Control_c, 0, 64, 29
2,71224, Control_c, 0, 64, 29
2,71267, Note_on_c, 0, 65, 0
2,71281, Control_c, 0, 64, 30
2,71301, Control_c, 0, 64, 31
2,71378, Control_c, 0, 64, 32
2,71469, Note_on_c, 0, 49, 69
2,71469, Note_on_c, 0, 68, 85
2,71499, Note_on_c, 0, 53, 0
2,71530, Note_on_c, 0, 49, 0
2,71552, Note_on_c, 0, 73, 0
2,71605, Note_on_c, 0, 71, 84
2,71625, Note_on_c, 0, 68, 0
2,71646, Control_c, 0, 64, 32
2,71731, Note_on_c, 0, 69, 89
2,71748, Note_on_c, 0, 54, 79
2,71758, Note_on_c, 0, 71, 0
2,71781, Control_c, 0, 64, 33
2,71799, Control_c, 0, 64, 34
2,71821, Note_on_c, 0, 54, 0
2,71915, Control_c, 0, 64, 34
2,71953, Control_c, 0, 64, 35
2,71992, Note_on_c, 0, 66, 78
2,72004, Note_on_c, 0, 56, 78
2,72044, Note_on_c, 0, 56, 0
2,72076, Note_on_c, 0, 66, 0
2,72107, Control_c, 0, 64, 35
2,72114, Note_on_c, 0, 65, 78
2,72184, Note_on_c, 0, 65, 0
2,72261, Control_c, 0, 64, 35
2,72266, Note_on_c, 0, 66, 82
2,72271, Note_on_c, 0, 57, 72
2,72318, Control_c, 0, 64, 34
2,72324, Note_on_c, 0, 57, 0
2,72341, Note_on_c, 0, 66, 0
2,72543, Note_on_c, 0, 63, 78
2,72550, Note_on_c, 0, 54, 76
2,72599, Note_on_c, 0, 54, 0
2,72618, Note_on_c, 0, 63, 0
2,72625, Control_c, 0, 64, 33
2,72644, Control_c, 0, 64, 32
2,72664, Control_c, 0, 64, 32
2,72824, Note_on_c, 0, 56, 82
2,72830, Note_on_c, 0, 60, 81
2,72836, Control_c, 0, 64, 31
2,72856, Control_c, 0, 64, 29
2,72875, Control_c, 0, 64, 28
2,72890, Note_on_c, 0, 69, 0
2,72894, Control_c, 0, 64, 27
2,72895, Note_on_c, 0, 56, 0
2,72990, Control_c, 0, 64, 27
2,73010, Control_c, 0, 64, 26
2,73028, Control_c, 0, 64, 25
2,73047, Control_c, 0, 64, 23
2,73067, Control_c, 0, 64, 22
2,73105, Control_c, 0, 64, 21
2,73113, Note_on_c, 0, 68, 89
2,73123, Note_on_c, 0, 44, 72
2,73144, Control_c, 0, 64, 20
2,73162, Control_c, 0, 64, 19
2,73198, Note_on_c, 0, 68, 0
2,73239, Control_c, 0, 64, 18
2,73244, Note_on_c, 0, 66, 78
2,73278, Control_c, 0, 64, 17
2,73316, Control_c, 0, 64, 15
2,73327, Note_on_c, 0, 66, 0
2,73345, Note_on_c, 0, 60, 0
2,73389, Note_on_c, 0, 44, 0
2,73390, Note_on_c, 0, 68, 90
2,73464, Note_on_c, 0, 68, 0
2,73491, Control_c, 0, 64, 17
2,73682, Note_on_c, 0, 56, 83
2,73686, Note_on_c, 0, 63, 88
2,73760, Note_on_c, 0, 56, 0
2,73763, Note_on_c, 0, 64, 23
2,73771, Note_on_c, 0, 63, 0
2,73804, Note_on_c, 0, 64, 0
2,73970, Note_on_c, 0, 61, 88
2,73971, Note_on_c, 0, 52, 82
2,73973, Note_on_c, 0, 64, 87
2,74123, Control_c, 0, 64, 15
2,74239, Control_c, 0, 64, 17
2,74254, Note_on_c, 0, 61, 0
2,74256, Note_on_c, 0, 49, 91
2,74259, Note_on_c, 0, 76, 93
2,74269, Note_on_c, 0, 52, 0
2,74277, Control_c, 0, 64, 18
2,74302, Note_on_c, 0, 64, 0
2,74315, Control_c, 0, 64, 19
2,74324, Note_on_c, 0, 49, 0
2,74353, Note_on_c, 0, 76, 0
2,74543, Control_c, 0, 64, 20
2,74592, Note_on_c, 0, 57, 96
2,74594, Note_on_c, 0, 75, 97
2,74620, Control_c, 0, 64, 21
2,74677, Control_c, 0, 64, 20
2,74774, Control_c, 0, 64, 21
2,74793, Control_c, 0, 64, 22
2,74813, Control_c, 0, 64, 25
2,74831, Control_c, 0, 64, 27
2,74851, Control_c, 0, 64, 28
2,74889, Control_c, 0, 64, 29
2,74947, Control_c, 0, 64, 28
2,75062, Control_c, 0, 64, 27
2,75078, Note_on_c, 0, 73, 80
2,75083, Note_on_c, 0, 75, 0
2,75176, Note_on_c, 0, 73, 0
2,75192, Note_on_c, 0, 72, 88
2,75216, Control_c, 0, 64, 28
2,75294, Control_c, 0, 64, 29
2,75322, Note_on_c, 0, 72, 0
2,75361, Note_on_c, 0, 57, 0
2,75456, Note_on_c, 0, 56, 87
2,75458, Note_on_c, 0, 75, 82
2,75460, Note_on_c, 0, 78, 83
2,75486, Control_c, 0, 64, 29
2,75505, Control_c, 0, 64, 30
2,75522, Note_on_c, 0, 56, 0
2,75524, Control_c, 0, 64, 31
2,75558, Note_on_c, 0, 75, 0
2,75578, Note_on_c, 0, 78, 0
2,75590, Note_on_c, 0, 54, 84
2,75601, Control_c, 0, 64, 31
2,75621, Control_c, 0, 64, 33
2,75631, Note_on_c, 0, 54, 0
2,75639, Control_c, 0, 64, 34
2,75659, Control_c, 0, 64, 34
2,75726, Note_on_c, 0, 56, 95
2,75726, Note_on_c, 0, 76, 87
2,75730, Note_on_c, 0, 73, 85
2,75774, Control_c, 0, 64, 34
2,75908, Note_on_c, 0, 73, 0
2,75966, Control_c, 0, 64, 33
2,76014, Note_on_c, 0, 75, 83
2,76046, Note_on_c, 0, 76, 0
2,76081, Control_c, 0, 64, 32
2,76136, Note_on_c, 0, 75, 0
2,76139, Control_c, 0, 64, 32
2,76150, Note_on_c, 0, 72, 81
2,76216, Note_on_c, 0, 72, 0
2,76274, Control_c, 0, 64, 31
2,76298, Note_on_c, 0, 76, 90
2,76302, Note_on_c, 0, 73, 84
2,76388, Note_on_c, 0, 73, 0
2,76450, Note_on_c, 0, 56, 0
2,76577, Note_on_c, 0, 71, 83
2,76587, Note_on_c, 0, 61, 86
2,76646, Note_on_c, 0, 71, 0
2,76658, Note_on_c, 0, 61, 0
2,76869, Note_on_c, 0, 54, 86
2,76869, Note_on_c, 0, 69, 89
2,76895, Note_on_c, 0, 76, 0
2,76927, Control_c, 0, 64, 31
2,76946, Control_c, 0, 64, 29
2,76949, Note_on_c, 0, 69, 0
2,76965, Control_c, 0, 64, 28
2,77164, Note_on_c, 0, 75, 86
2,77178, Note_on_c, 0, 66, 79
2,77215, Control_c, 0, 64, 29
2,77234, Control_c, 0, 64, 29
2,77290, Note_on_c, 0, 73, 85
2,77292, Control_c, 0, 64, 29
2,77298, Note_on_c, 0, 75, 0
2,77391, Note_on_c, 0, 73, 0
2,77422, Note_on_c, 0, 54, 0
2,77436, Note_on_c, 0, 80, 90
2,77441, Note_on_c, 0, 60, 74
2,77445, Control_c, 0, 64, 29
2,77465, Control_c, 0, 64, 30
2,77498, Note_on_c, 0, 80, 0
2,77503, Control_c, 0, 64, 31
2,77522, Note_on_c, 0, 66, 0
2,77657, Control_c, 0, 64, 30
2,77695, Control_c, 0, 64, 29
2,77709, Note_on_c, 0, 72, 89
2,77711, Note_on_c, 0, 52, 73
2,77716, Note_on_c, 0, 63, 83
2,77717, Note_on_c, 0, 60, 0
2,77753, Control_c, 0, 64, 29
2,77772, Control_c, 0, 64, 28
2,77775, Note_on_c, 0, 63, 0
2,77791, Control_c, 0, 64, 27
2,77793, Note_on_c, 0, 72, 0
2,77811, Control_c, 0, 64, 25
2,77829, Control_c, 0, 64, 24
2,77839, Note_on_c, 0, 51, 69
2,77843, Note_on_c, 0, 52, 0
2,77848, Control_c, 0, 64, 21
2,77868, Control_c, 0, 64, 20
2,77887, Control_c, 0, 64, 19
2,77946, Note_on_c, 0, 51, 0
2,77982, Note_on_c, 0, 56, 78
2,77984, Note_on_c, 0, 52, 74
2,77984, Note_on_c, 0, 73, 98
2,78022, Control_c, 0, 64, 18
2,78051, Note_on_c, 0, 56, 0
2,78057, Note_on_c, 0, 52, 0
2,78060, Control_c, 0, 64, 19
2,78247, Note_on_c, 0, 68, 85
2,78256, Note_on_c, 0, 49, 67
2,78272, Control_c, 0, 64, 20
2,78305, Note_on_c, 0, 49, 0
2,78317, Note_on_c, 0, 68, 0
2,78522, Note_on_c, 0, 51, 69
2,78525, Note_on_c, 0, 66, 84
2,78541, Control_c, 0, 64, 19
2,78560, Control_c, 0, 64, 18
2,78579, Control_c, 0, 64, 17
2,78598, Control_c, 0, 64, 15
2,78604, Note_on_c, 0, 66, 0
2,78637, Control_c, 0, 67, 26
2,78647, Note_on_c, 0, 68, 80
2,78656, Control_c, 0, 67, 53
2,78675, Control_c, 0, 67, 87
2,78695, Control_c, 0, 67, 125
2,78713, Control_c, 0, 67, 127
2,78727, Note_on_c, 0, 68, 0
2,78780, Note_on_c, 0, 66, 81
2,78818, Note_on_c, 0, 51, 0
2,78826, Note_on_c, 0, 73, 0
2,78829, Control_c, 0, 64, 13
2,78847, Control_c, 0, 64, 11
2,78848, Note_on_c, 0, 66, 0
2,78886, Control_c, 0, 64, 9
2,78915, Note_on_c, 0, 64, 78
2,78960, Note_on_c, 0, 64, 0
2,79042, Note_on_c, 0, 72, 90
2,79046, Note_on_c, 0, 56, 74
2,79057, Note_on_c, 0, 66, 81
2,79105, Note_on_c, 0, 66, 0
2,79183, Note_on_c, 0, 64, 81
2,79198, Note_on_c, 0, 56, 0
2,79201, Note_on_c, 0, 72, 0
2,79212, Control_c, 0, 64, 11
2,79245, Note_on_c, 0, 64, 0
2,79311, Note_on_c, 0, 63, 82
2,79365, Control_c, 0, 64, 13
2,79382, Note_on_c, 0, 63, 0
2,79448, Note_on_c, 0, 66, 76
2,79527, Note_on_c, 0, 66, 0
2,79576, Note_on_c, 0, 73, 87
2,79583, Note_on_c, 0, 64, 84
2,79587, Note_on_c, 0, 49, 73
2,79634, Note_on_c, 0, 64, 0
2,79720, Note_on_c, 0, 66, 77
2,79778, Note_on_c, 0, 49, 0
2,79790, Note_on_c, 0, 66, 0
2,79860, Note_on_c, 0, 64, 79
2,79908, Note_on_c, 0, 64, 0
2,80003, Note_on_c, 0, 63, 82
2,80053, Note_on_c, 0, 63, 0
2,80092, Note_on_c, 0, 73, 0
2,80135, Note_on_c, 0, 64, 80
2,80197, Note_on_c, 0, 64, 0
2,80268, Control_c, 0, 64, 15
2,80272, Note_on_c, 0, 63, 78
2,80313, Note_on_c, 0, 63, 0
2,80383, Control_c, 0, 64, 17
2,80393, Note_on_c, 0, 61, 80
2,80407, Note_on_c, 0, 73, 86
2,80441, Note_on_c, 0, 61, 0
2,80475, Note_on_c, 0, 71, 5
2,80481, Note_on_c, 0, 73, 0
2,80494, Note_on_c, 0, 71, 0
2,80517, Control_c, 0, 64, 18
2,80542, Note_on_c, 0, 64, 81
2,80587, Note_on_c, 0, 64, 0
2,80647, Note_on_c, 0, 71, 85
2,80668, Note_on_c, 0, 63, 77
2,80719, Note_on_c, 0, 63, 0
2,80743, Note_on_c, 0, 71, 0
2,80784, Note_on_c, 0, 73, 84
2,80858, Note_on_c, 0, 73, 0
2,80932, Note_on_c, 0, 71, 83
2,80933, Note_on_c, 0, 68, 85
2,80978, Control_c, 0, 64, 19
2,80994, Note_on_c, 0, 68, 0
2,80998, Note_on_c, 0, 71, 0
2,81054, Note_on_c, 0, 69, 87
2,81071, Control_c, 0, 64, 18
2,81127, Note_on_c, 0, 69, 0
2,81148, Control_c, 0, 67, 125
2,81167, Control_c, 0, 67, 116
2,81185, Note_on_c, 0, 61, 76
2,81187, Control_c, 0, 67, 104
2,81188, Note_on_c, 0, 71, 88
2,81205, Control_c, 0, 67, 92
2,81225, Control_c, 0, 67, 80
2,81242, Note_on_c, 0, 61, 0
2,81244, Control_c, 0, 64, 19
2,81244, Control_c, 0, 67, 67
2,81257, Note_on_c, 0, 71, 0
2,81263, Control_c, 0, 67, 50
2,81282, Control_c, 0, 67, 33
2,81302, Control_c, 0, 67, 17
2,81321, Control_c, 0, 67, 0
2,81332, Note_on_c, 0, 69, 82
2,81379, Control_c, 0, 64, 20
2,81397, Control_c, 0, 64, 21
2,81402, Note_on_c, 0, 69, 0
2,81436, Control_c, 0, 64, 22
2,81456, Control_c, 0, 64, 23
2,81457, Note_on_c, 0, 65, 81
2,81471, Note_on_c, 0, 68, 83
2,81474, Control_c, 0, 64, 25
2,81499, Note_on_c, 0, 65, 0
2,81542, Note_on_c, 0, 68, 0
2,81606, Note_on_c, 0, 71, 81
2,81608, Control_c, 0, 64, 26
2,81628, Control_c, 0, 64, 27
2,81678, Note_on_c, 0, 71, 0
2,81724, Control_c, 0, 64, 27
2,81728, Note_on_c, 0, 66, 80
2,81743, Note_on_c, 0, 69, 86
2,81797, Note_on_c, 0, 66, 0
2,81809, Note_on_c, 0, 69, 0
2,81866, Note_on_c, 0, 71, 85
2,81872, Note_on_c, 0, 62, 72
2,81897, Control_c, 0, 64, 26
2,81916, Control_c, 0, 64, 25
2,81931, Note_on_c, 0, 71, 0
2,81977, Note_on_c, 0, 62, 0
2,81994, Note_on_c, 0, 61, 73
2,81997, Note_on_c, 0, 69, 81
2,82046, Note_on_c, 0, 61, 0
2,82057, Note_on_c, 0, 69, 0
2,82135, Note_on_c, 0, 59, 83
2,82140, Note_on_c, 0, 68, 81
2,82188, Note_on_c, 0, 59, 0
2,82208, Note_on_c, 0, 68, 0
2,82269, Note_on_c, 0, 61, 79
2,82277, Note_on_c, 0, 69, 87
2,82345, Note_on_c, 0, 69, 0
2,82357, Note_on_c, 0, 61, 0
2,82399, Note_on_c, 0, 68, 83
2,82401, Note_on_c, 0, 57, 68
2,82473, Note_on_c, 0, 68, 0
2,82483, Note_on_c, 0, 57, 0
2,82514, Control_c, 0, 64, 26
2,82534, Control_c, 0, 64, 27
2,82539, Note_on_c, 0, 62, 75
2,82540, Note_on_c, 0, 54, 77
2,82542, Note_on_c, 0, 66, 82
2,82572, Control_c, 0, 64, 27
2,82619, Note_on_c, 0, 66, 0
2,82630, Note_on_c, 0, 54, 0
2,82648, Control_c, 0, 64, 28
2,82669, Note_on_c, 0, 69, 85
2,82728, Note_on_c, 0, 69, 0
2,82752, Note_on_c, 0, 62, 0
2,82801, Note_on_c, 0, 52, 83
2,82802, Control_c, 0, 64, 27
2,82812, Note_on_c, 0, 68, 83
2,82822, Control_c, 0, 64, 27
2,82860, Control_c, 0, 64, 26
2,82868, Note_on_c, 0, 52, 0
2,82882, Note_on_c, 0, 68, 0
2,82898, Control_c, 0, 64, 25
2,82937, Control_c, 0, 64, 24
2,82939, Note_on_c, 0, 54, 80
2,83013, Note_on_c, 0, 54, 0
2,83067, Note_on_c, 0, 73, 90
2,83069, Note_on_c, 0, 52, 77
2,83083, Note_on_c, 0, 56, 72
2,83128, Note_on_c, 0, 56, 0
2,83134, Note_on_c, 0, 73, 0
2,83140, Note_on_c, 0, 52, 0
2,83148, Control_c, 0, 64, 25
2,83167, Control_c, 0, 64, 26
2,83186, Control_c, 0, 64, 27
2,83200, Note_on_c, 0, 50, 81
2,83205, Control_c, 0, 64, 28
2,83225, Control_c, 0, 64, 29
2,83241, Note_on_c, 0, 50, 0
2,83263, Control_c, 0, 64, 29
2,83320, Control_c, 0, 64, 30
2,83344, Note_on_c, 0, 66, 79
2,83346, Note_on_c, 0, 52, 77
2,83348, Note_on_c, 0, 58, 82
2,83391, Note_on_c, 0, 52, 0
2,83393, Note_on_c, 0, 58, 0
2,83420, Note_on_c, 0, 66, 0
2,83474, Note_on_c, 0, 50, 80
2,83523, Note_on_c, 0, 50, 0
2,83596, Note_on_c, 0, 49, 88
2,83608, Note_on_c, 0, 61, 78
2,83608, Note_on_c, 0, 70, 84
2,83628, Control_c, 0, 64, 29
2,83647, Note_on_c, 0, 61, 0
2,83666, Control_c, 0, 64, 29
2,83667, Note_on_c, 0, 49, 0
2,83686, Note_on_c, 0, 70, 0
2,83725, Note_on_c, 0, 52, 82
2,83783, Note_on_c, 0, 52, 0
2,83820, Control_c, 0, 64, 29
2,83839, Control_c, 0, 64, 30
2,83865, Note_on_c, 0, 50, 77
2,83870, Note_on_c, 0, 54, 76
2,83872, Note_on_c, 0, 71, 88
2,83903, Note_on_c, 0, 50, 0
2,83907, Note_on_c, 0, 54, 0
2,83931, Note_on_c, 0, 71, 0
2,83933, Control_c, 0, 64, 29
2,83972, Control_c, 0, 64, 29
2,84003, Note_on_c, 0, 52, 80
2,84029, Control_c, 0, 64, 28
2,84058, Note_on_c, 0, 52, 0
2,84086, Control_c, 0, 64, 27
2,84132, Note_on_c, 0, 50, 77
2,84138, Note_on_c, 0, 66, 83
2,84163, Control_c, 0, 64, 27
2,84177, Note_on_c, 0, 50, 0
2,84200, Note_on_c, 0, 66, 0
2,84270, Note_on_c, 0, 49, 74
2,84298, Control_c, 0, 64, 27
2,84313, Note_on_c, 0, 49, 0
2,84317, Control_c, 0, 64, 28
2,84337, Control_c, 0, 64, 29
2,84355, Control_c, 0, 64, 31
2,84375, Control_c, 0, 64, 31
2,84402, Note_on_c, 0, 71, 96
2,84405, Note_on_c, 0, 50, 82
2,84413, Control_c, 0, 64, 32
2,84452, Control_c, 0, 64, 31
2,84466, Note_on_c, 0, 50, 0
2,84534, Note_on_c, 0, 49, 79
2,84591, Note_on_c, 0, 49, 0
2,84605, Control_c, 0, 64, 31
2,84668, Note_on_c, 0, 47, 78
2,84678, Note_on_c, 0, 66, 84
2,84682, Control_c, 0, 64, 31
2,84725, Note_on_c, 0, 47, 0
2,84741, Note_on_c, 0, 66, 0
2,84807, Note_on_c, 0, 50, 76
2,84854, Note_on_c, 0, 50, 0
2,84942, Note_on_c, 0, 64, 88
2,84944, Note_on_c, 0, 49, 88
2,84969, Control_c, 0, 64, 31
2,85003, Note_on_c, 0, 64, 0
2,85013, Note_on_c, 0, 49, 0
2,85075, Note_on_c, 0, 66, 78
2,85127, Note_on_c, 0, 66, 0
2,85202, Note_on_c, 0, 42, 73
2,85207, Note_on_c, 0, 64, 76
2,85240, Note_on_c, 0, 42, 0
2,85240, Note_on_c, 0, 64, 0
2,85339, Note_on_c, 0, 63, 75
2,85384, Note_on_c, 0, 71, 0
2,85388, Note_on_c, 0, 63, 0
2,85476, Note_on_c, 0, 69, 92
2,85482, Note_on_c, 0, 64, 86
2,85487, Note_on_c, 0, 54, 81
2,85526, Control_c, 0, 64, 30
2,85537, Note_on_c, 0, 64, 0
2,85554, Note_on_c, 0, 54, 0
2,85616, Note_on_c, 0, 63, 81
2,85623, Control_c, 0, 64, 29
2,85687, Note_on_c, 0, 63, 0
2,85718, Control_c, 0, 64, 30
2,85746, Note_on_c, 0, 61, 81
2,85760, Note_on_c, 0, 57, 74
2,85794, Note_on_c, 0, 61, 0
2,85807, Note_on_c, 0, 57, 0
2,85879, Note_on_c, 0, 64, 77
2,85946, Note_on_c, 0, 64, 0
2,86017, Note_on_c, 0, 47, 72
2,86019, Note_on_c, 0, 63, 81
2,86064, Control_c, 0, 64, 31
2,86077, Note_on_c, 0, 47, 0
2,86092, Note_on_c, 0, 63, 0
2,86141, Note_on_c, 0, 64, 79
2,86174, Note_on_c, 0, 69, 0
2,86180, Control_c, 0, 64, 31
2,86198, Note_on_c, 0, 64, 0
2,86279, Note_on_c, 0, 63, 79
2,86284, Note_on_c, 0, 59, 73
2,86295, Control_c, 0, 64, 32
2,86328, Note_on_c, 0, 63, 0
2,86334, Note_on_c, 0, 59, 0
2,86409, Note_on_c, 0, 61, 79
2,86465, Note_on_c, 0, 61, 0
2,86551, Note_on_c, 0, 52, 78
2,86552, Note_on_c, 0, 68, 90
2,86558, Note_on_c, 0, 63, 84
2,86583, Control_c, 0, 64, 32
2,86618, Note_on_c, 0, 52, 0
2,86622, Note_on_c, 0, 63, 0
2,86706, Note_on_c, 0, 61, 76
2,86717, Control_c, 0, 64, 32
2,86754, Note_on_c, 0, 61, 0
2,86818, Note_on_c, 0, 56, 76
2,86830, Note_on_c, 0, 60, 75
2,86886, Note_on_c, 0, 60, 0
2,86896, Note_on_c, 0, 56, 0
2,86949, Note_on_c, 0, 63, 75
2,87020, Note_on_c, 0, 63, 0
2,87093, Note_on_c, 0, 61, 78
2,87095, Note_on_c, 0, 45, 79
2,87140, Control_c, 0, 64, 31
2,87161, Note_on_c, 0, 61, 0
2,87174, Note_on_c, 0, 45, 0
2,87231, Note_on_c, 0, 63, 73
2,87313, Note_on_c, 0, 63, 0
2,87366, Note_on_c, 0, 61, 79
2,87367, Note_on_c, 0, 44, 78
2,87386, Note_on_c, 0, 68, 0
2,87428, Control_c, 0, 64, 32
2,87437, Note_on_c, 0, 44, 0
2,87440, Note_on_c, 0, 61, 0
2,87498, Note_on_c, 0, 60, 79
2,87565, Note_on_c, 0, 60, 0
2,87626, Note_on_c, 0, 45, 82
2,87636, Note_on_c, 0, 66, 82
2,87638, Note_on_c, 0, 61, 78
2,87693, Note_on_c, 0, 45, 0
2,87711, Note_on_c, 0, 61, 0
2,87764, Note_on_c, 0, 64, 77
2,87810, Note_on_c, 0, 66, 0
2,87849, Control_c, 0, 64, 32
2,87857, Note_on_c, 0, 64, 0
2,87906, Note_on_c, 0, 63, 80
2,87908, Note_on_c, 0, 57, 82
2,87979, Note_on_c, 0, 57, 0
2,87993, Note_on_c, 0, 63, 0
2,88058, Note_on_c, 0, 61, 71
2,88164, Note_on_c, 0, 56, 89
2,88177, Note_on_c, 0, 61, 0
2,88177, Note_on_c, 0, 68, 86
2,88180, Note_on_c, 0, 60, 78
2,88214, Note_on_c, 0, 60, 0
2,88214, Note_on_c, 0, 68, 0
2,88228, Note_on_c, 0, 56, 0
2,88292, Control_c, 0, 64, 32
2,88300, Note_on_c, 0, 57, 75
2,88353, Note_on_c, 0, 57, 0
2,88406, Control_c, 0, 64, 32
2,88423, Note_on_c, 0, 72, 77
2,88430, Note_on_c, 0, 63, 72
2,88431, Note_on_c, 0, 56, 84
2,88476, Note_on_c, 0, 56, 0
2,88477, Note_on_c, 0, 63, 0
2,88486, Note_on_c, 0, 72, 0
2,88564, Note_on_c, 0, 54, 77
2,88607, Note_on_c, 0, 54, 0
2,88637, Control_c, 0, 64, 33
2,88692, Note_on_c, 0, 73, 92
2,88695, Control_c, 0, 64, 34
2,88696, Note_on_c, 0, 64, 87
2,88702, Note_on_c, 0, 56, 86
2,88714, Control_c, 0, 64, 34
2,88772, Note_on_c, 0, 56, 0
2,88792, Control_c, 0, 64, 35
2,88810, Control_c, 0, 64, 35
2,88824, Note_on_c, 0, 54, 80
2,88830, Control_c, 0, 64, 36
2,88877, Note_on_c, 0, 54, 0
2,88907, Control_c, 0, 64, 36
2,88926, Control_c, 0, 64, 37
2,88927, Note_on_c, 0, 64, 0
2,88945, Control_c, 0, 64, 38
2,88957, Note_on_c, 0, 52, 76
2,88969, Note_on_c, 0, 76, 84
2,88977, Note_on_c, 0, 68, 88
2,89002, Note_on_c, 0, 52, 0
2,89010, Note_on_c, 0, 73, 0
2,89027, Note_on_c, 0, 68, 0
2,89043, Note_on_c, 0, 76, 0
2,89102, Note_on_c, 0, 56, 81
2,89150, Note_on_c, 0, 56, 0
2,89229, Note_on_c, 0, 54, 81
2,89233, Control_c, 0, 64, 37
2,89272, Control_c, 0, 64, 36
2,89300, Note_on_c, 0, 54, 0
2,89310, Control_c, 0, 64, 36
2,89366, Note_on_c, 0, 56, 82
2,89367, Control_c, 0, 64, 35
2,89387, Control_c, 0, 64, 35
2,89406, Control_c, 0, 64, 34
2,89427, Note_on_c, 0, 56, 0
2,89493, Note_on_c, 0, 54, 80
2,89503, Note_on_c, 0, 76, 86
2,89504, Note_on_c, 0, 68, 84
2,89535, Note_on_c, 0, 68, 0
2,89542, Note_on_c, 0, 54, 0
2,89563, Note_on_c, 0, 76, 0
2,89655, Note_on_c, 0, 52, 73
2,89688, Note_on_c, 0, 52, 0
2,89751, Control_c, 0, 64, 35
2,89768, Note_on_c, 0, 66, 92
2,89769, Control_c, 0, 64, 35
2,89769, Note_on_c, 0, 75, 90
2,89772, Note_on_c, 0, 54, 87
2,89828, Control_c, 0, 64, 36
2,89836, Note_on_c, 0, 54, 0
2,89918, Note_on_c, 0, 52, 72
2,89956, Note_on_c, 0, 52, 0
2,90000, Control_c, 0, 64, 37
2,90028, Note_on_c, 0, 78, 86
2,90032, Note_on_c, 0, 51, 74
2,90035, Note_on_c, 0, 69, 78
2,90038, Control_c, 0, 64, 37
2,90064, Note_on_c, 0, 66, 0
2,90072, Note_on_c, 0, 75, 0
2,90077, Control_c, 0, 64, 38
2,90096, Note_on_c, 0, 69, 0
2,90101, Note_on_c, 0, 51, 0
2,90112, Note_on_c, 0, 78, 0
2,90172, Note_on_c, 0, 54, 87
2,90233, Note_on_c, 0, 54, 0
2,90249, Control_c, 0, 64, 37
2,90304, Note_on_c, 0, 52, 80
2,90308, Control_c, 0, 64, 37
2,90326, Control_c, 0, 64, 36
2,90346, Control_c, 0, 64, 35
2,90365, Control_c, 0, 64, 34
2,90367, Note_on_c, 0, 52, 0
2,90437, Note_on_c, 0, 54, 86
2,90461, Control_c, 0, 64, 33
2,90496, Note_on_c, 0, 54, 0
2,90557, Control_c, 0, 64, 32
2,90562, Note_on_c, 0, 52, 85
2,90569, Note_on_c, 0, 72, 85
2,90573, Note_on_c, 0, 68, 86
2,90595, Control_c, 0, 64, 32
2,90621, Note_on_c, 0, 52, 0
2,90631, Note_on_c, 0, 72, 0
2,90643, Note_on_c, 0, 68, 0
2,90682, Note_on_c, 0, 51, 80
2,90696, Note_on_c, 0, 66, 85
2,90720, Note_on_c, 0, 51, 0
2,90766, Note_on_c, 0, 66, 0
2,90804, Control_c, 0, 64, 32
2,90831, Note_on_c, 0, 52, 84
2,90838, Note_on_c, 0, 73, 93
2,90843, Control_c, 0, 64, 33
2,90850, Note_on_c, 0, 68, 80
2,90876, Note_on_c, 0, 52, 0
2,90881, Control_c, 0, 64, 34
2,90897, Note_on_c, 0, 68, 0
2,90951, Note_on_c, 0, 51, 81
2,90978, Control_c, 0, 64, 34
2,91026, Note_on_c, 0, 51, 0
2,91082, Note_on_c, 0, 49, 82
2,91098, Note_on_c, 0, 70, 83
2,91157, Note_on_c, 0, 49, 0
2,91185, Note_on_c, 0, 70, 0
2,91218, Note_on_c, 0, 52, 75
2,91264, Note_on_c, 0, 52, 0
2,91358, Note_on_c, 0, 43, 95
2,91366, Note_on_c, 0, 63, 89
2,91390, Note_on_c, 0, 73, 0
2,91400, Control_c, 0, 64, 34
2,91438, Control_c, 0, 64, 34
2,91439, Note_on_c, 0, 63, 0
2,91477, Control_c, 0, 64, 35
2,91498, Note_on_c, 0, 43, 0
2,91501, Note_on_c, 0, 64, 84
2,91553, Control_c, 0, 64, 35
2,91591, Control_c, 0, 64, 36
2,91618, Note_on_c, 0, 64, 0
2,91626, Note_on_c, 0, 67, 80
2,91628, Note_on_c, 0, 46, 92
2,91631, Note_on_c, 0, 63, 83
2,91657, Note_on_c, 0, 66, 47
2,91696, Note_on_c, 0, 66, 0
2,91698, Note_on_c, 0, 46, 0
2,91724, Note_on_c, 0, 63, 0
2,91754, Note_on_c, 0, 61, 83
2,91765, Note_on_c, 0, 67, 0
2,91783, Control_c, 0, 64, 35
2,91825, Note_on_c, 0, 61, 0
2,91887, Note_on_c, 0, 47, 91
2,91895, Note_on_c, 0, 68, 91
2,91896, Note_on_c, 0, 63, 84
2,91898, Control_c, 0, 64, 35
2,91937, Control_c, 0, 64, 34
2,91950, Note_on_c, 0, 47, 0
2,91975, Control_c, 0, 64, 34
2,91984, Note_on_c, 0, 63, 0
2,92029, Note_on_c, 0, 61, 82
2,92110, Note_on_c, 0, 61, 0
2,92161, Note_on_c, 0, 52, 82
2,92161, Note_on_c, 0, 59, 82
2,92189, Note_on_c, 0, 68, 0
2,92205, Control_c, 0, 64, 33
2,92228, Note_on_c, 0, 52, 0
2,92239, Note_on_c, 0, 59, 0
2,92285, Note_on_c, 0, 63, 80
2,92368, Note_on_c, 0, 63, 0
2,92423, Note_on_c, 0, 46, 79
2,92423, Note_on_c, 0, 61, 82
2,92495, Note_on_c, 0, 46, 0
2,92500, Note_on_c, 0, 61, 0
2,92538, Note_on_c, 0, 63, 83
2,92540, Control_c, 0, 64, 32
2,92629, Note_on_c, 0, 63, 0
2,92694, Note_on_c, 0, 70, 85
2,92697, Note_on_c, 0, 61, 83
2,92702, Note_on_c, 0, 49, 87
2,92762, Note_on_c, 0, 61, 0
2,92765, Note_on_c, 0, 49, 0
2,92838, Note_on_c, 0, 59, 88
2,92839, Note_on_c, 0, 70, 0
2,92859, Control_c, 0, 64, 32
2,92902, Note_on_c, 0, 59, 0
2,92967, Note_on_c, 0, 61, 84
2,92969, Note_on_c, 0, 63, 80
2,92970, Note_on_c, 0, 51, 85
2,93047, Note_on_c, 0, 63, 0
2,93054, Note_on_c, 0, 51, 0
2,93067, Note_on_c, 0, 61, 0
2,93094, Note_on_c, 0, 59, 88
2,93128, Control_c, 0, 64, 31
2,93150, Note_on_c, 0, 59, 0
2,93224, Control_c, 0, 64, 31
2,93228, Note_on_c, 0, 67, 80
2,93234, Note_on_c, 0, 58, 81
2,93243, Note_on_c, 0, 39, 77
2,93308, Note_on_c, 0, 58, 0
2,93324, Note_on_c, 0, 67, 0
2,93341, Note_on_c, 0, 39, 0
2,93353, Note_on_c, 0, 61, 81
2,93428, Note_on_c, 0, 61, 0
2,93500, Note_on_c, 0, 68, 89
2,93505, Note_on_c, 0, 44, 86
2,93505, Note_on_c, 0, 59, 91
2,93558, Note_on_c, 0, 44, 0
2,93565, Note_on_c, 0, 59, 0
2,93628, Control_c, 0, 64, 29
2,93650, Note_on_c, 0, 61, 79
2,93705, Control_c, 0, 67, 37
2,93725, Control_c, 0, 67, 82
2,93727, Note_on_c, 0, 61, 0
2,93743, Control_c, 0, 64, 29
2,93743, Control_c, 0, 67, 127
2,93763, Control_c, 0, 64, 28
2,93792, Note_on_c, 0, 63, 76
2,93793, Note_on_c, 0, 56, 79
2,93830, Note_on_c, 0, 56, 0
2,93839, Control_c, 0, 64, 26
2,93859, Control_c, 0, 64, 22
2,93877, Control_c, 0, 64, 18
2,93897, Control_c, 0, 64, 17
2,93920, Note_on_c, 0, 63, 0
2,93923, Note_on_c, 0, 54, 76
2,93923, Note_on_c, 0, 59, 81
2,93950, Note_on_c, 0, 68, 0
2,93958, Note_on_c, 0, 59, 0
2,93959, Note_on_c, 0, 54, 0
2,93993, Control_c, 0, 64, 18
2,94061, Note_on_c, 0, 56, 82
2,94067, Note_on_c, 0, 64, 89
2,94116, Note_on_c, 0, 56, 0
2,94206, Note_on_c, 0, 69, 77
2,94265, Note_on_c, 0, 69, 0
2,94327, Note_on_c, 0, 49, 75
2,94339, Note_on_c, 0, 71, 61
2,94373, Note_on_c, 0, 49, 0
2,94396, Control_c, 0, 64, 19
2,94406, Note_on_c, 0, 71, 0
2,94473, Note_on_c, 0, 68, 79
2,94549, Note_on_c, 0, 68, 0
2,94598, Note_on_c, 0, 42, 65
2,94610, Note_on_c, 0, 69, 81
2,94640, Note_on_c, 0, 42, 0
2,94688, Note_on_c, 0, 69, 0
2,94702, Control_c, 0, 64, 18
2,94753, Note_on_c, 0, 71, 66
2,94760, Control_c, 0, 64, 17
2,94807, Note_on_c, 0, 71, 0
2,94863, Note_on_c, 0, 54, 61
2,94880, Note_on_c, 0, 69, 73
2,94910, Note_on_c, 0, 54, 0
2,94928, Note_on_c, 0, 64, 0
2,94976, Note_on_c, 0, 69, 0
2,94984, Note_on_c, 0, 52, 69
2,94986, Note_on_c, 0, 68, 81
2,94990, Control_c, 0, 64, 18
2,95029, Control_c, 0, 64, 19
2,95037, Note_on_c, 0, 52, 0
2,95040, Note_on_c, 0, 68, 0
2,95048, Control_c, 0, 64, 20
2,95067, Control_c, 0, 64, 21
2,95125, Control_c, 0, 64, 22
2,95132, Note_on_c, 0, 69, 80
2,95134, Note_on_c, 0, 63, 81
2,95141, Note_on_c, 0, 54, 71
2,95182, Control_c, 0, 64, 23
2,95187, Note_on_c, 0, 54, 0
2,95202, Control_c, 0, 64, 24
2,95221, Control_c, 0, 64, 25
2,95267, Note_on_c, 0, 68, 75
2,95283, Note_on_c, 0, 69, 0
2,95366, Note_on_c, 0, 68, 0
2,95386, Note_on_c, 0, 47, 62
2,95395, Note_on_c, 0, 66, 72
2,95426, Note_on_c, 0, 47, 0
2,95431, Note_on_c, 0, 63, 0
2,95518, Note_on_c, 0, 69, 79
2,95533, Note_on_c, 0, 66, 0
2,95577, Note_on_c, 0, 69, 0
2,95666, Note_on_c, 0, 52, 62
2,95671, Note_on_c, 0, 64, 74
2,95675, Note_on_c, 0, 68, 77
2,95705, Note_on_c, 0, 52, 0
2,95720, Control_c, 0, 64, 24
2,95762, Note_on_c, 0, 68, 0
2,95795, Note_on_c, 0, 54, 71
2,95804, Note_on_c, 0, 69, 81
2,95843, Note_on_c, 0, 54, 0
2,95855, Control_c, 0, 64, 25
2,95887, Note_on_c, 0, 69, 0
2,95934, Note_on_c, 0, 56, 77
2,95935, Note_on_c, 0, 71, 76
2,95974, Note_on_c, 0, 56, 0
2,96008, Control_c, 0, 64, 26
2,96016, Note_on_c, 0, 71, 0
2,96066, Note_on_c, 0, 68, 81
2,96069, Note_on_c, 0, 52, 67
2,96110, Note_on_c, 0, 52, 0
2,96124, Control_c, 0, 64, 27
2,96204, Note_on_c, 0, 73, 88
2,96210, Note_on_c, 0, 57, 70
2,96222, Note_on_c, 0, 68, 0
2,96247, Note_on_c, 0, 57, 0
2,96254, Note_on_c, 0, 64, 0
2,96333, Note_on_c, 0, 59, 75
2,96335, Note_on_c, 0, 71, 79
2,96395, Note_on_c, 0, 59, 0
2,96464, Note_on_c, 0, 69, 85
2,96470, Control_c, 0, 64, 27
2,96470, Note_on_c, 0, 61, 76
2,96502, Note_on_c, 0, 71, 0
2,96504, Note_on_c, 0, 73, 0
2,96510, Note_on_c, 0, 61, 0
2,96528, Control_c, 0, 64, 28
2,96546, Control_c, 0, 64, 29
2,96585, Control_c, 0, 64, 29
2,96591, Note_on_c, 0, 69, 0
2,96598, Note_on_c, 0, 68, 85
2,96605, Note_on_c, 0, 57, 73
2,96623, Control_c, 0, 64, 30
2,96643, Control_c, 0, 64, 31
2,96644, Note_on_c, 0, 57, 0
2,96711, Note_on_c, 0, 68, 0
2,96744, Note_on_c, 0, 62, 69
2,96748, Note_on_c, 0, 66, 84
2,96785, Note_on_c, 0, 62, 0
2,96854, Control_c, 0, 64, 31
2,96873, Control_c, 0, 64, 32
2,96890, Note_on_c, 0, 64, 66
2,96892, Control_c, 0, 64, 33
2,96924, Note_on_c, 0, 64, 0
2,97003, Note_on_c, 0, 73, 82
2,97006, Note_on_c, 0, 62, 70
2,97047, Note_on_c, 0, 62, 0
2,97073, Note_on_c, 0, 73, 0
2,97140, Note_on_c, 0, 61, 67
2,97174, Note_on_c, 0, 61, 0
2,97276, Control_c, 0, 64, 34
2,97280, Note_on_c, 0, 62, 72
2,97280, Note_on_c, 0, 71, 89
2,97295, Control_c, 0, 64, 34
2,97315, Note_on_c, 0, 66, 0
2,97327, Note_on_c, 0, 62, 0
2,97391, Control_c, 0, 64, 35
2,97411, Note_on_c, 0, 61, 71
2,97450, Note_on_c, 0, 61, 0
2,97537, Note_on_c, 0, 59, 70
2,97545, Note_on_c, 0, 66, 81
2,97565, Control_c, 0, 64, 34
2,97580, Note_on_c, 0, 59, 0
2,97611, Note_on_c, 0, 66, 0
2,97675, Note_on_c, 0, 62, 70
2,97720, Note_on_c, 0, 62, 0
2,97756, Control_c, 0, 64, 34
2,97806, Note_on_c, 0, 64, 78
2,97807, Note_on_c, 0, 61, 78
2,97819, Note_on_c, 0, 71, 0
2,97848, Note_on_c, 0, 61, 0
2,97891, Control_c, 0, 64, 33
2,97936, Note_on_c, 0, 62, 76
2,97940, Note_on_c, 0, 71, 82
2,97975, Note_on_c, 0, 62, 0
2,97984, Note_on_c, 0, 64, 0
2,98016, Note_on_c, 0, 71, 0
2,98063, Note_on_c, 0, 61, 80
2,98063, Note_on_c, 0, 69, 81
2,98123, Note_on_c, 0, 61, 0
2,98140, Note_on_c, 0, 69, 0
2,98199, Note_on_c, 0, 68, 85
2,98203, Note_on_c, 0, 59, 74
2,98251, Note_on_c, 0, 59, 0
2,98274, Note_on_c, 0, 68, 0
2,98330, Note_on_c, 0, 69, 85
2,98334, Note_on_c, 0, 61, 79
2,98387, Note_on_c, 0, 61, 0
2,98428, Note_on_c, 0, 69, 0
2,98457, Note_on_c, 0, 59, 77
2,98460, Note_on_c, 0, 71, 75
2,98465, Control_c, 0, 64, 32
2,98506, Note_on_c, 0, 59, 0
2,98523, Control_c, 0, 64, 33
2,98558, Note_on_c, 0, 71, 0
2,98571, Note_on_c, 0, 73, 82
2,98585, Note_on_c, 0, 57, 70
2,98629, Note_on_c, 0, 57, 0
2,98639, Note_on_c, 0, 73, 0
2,98657, Control_c, 0, 64, 34
2,98675, Control_c, 0, 64, 35
2,98695, Control_c, 0, 64, 35
2,98703, Note_on_c, 0, 61, 83
2,98709, Note_on_c, 0, 69, 83
2,98748, Note_on_c, 0, 61, 0
2,98771, Note_on_c, 0, 69, 0
2,98840, Note_on_c, 0, 59, 92
2,98849, Note_on_c, 0, 74, 88
2,98906, Control_c, 0, 67, 119
2,98926, Control_c, 0, 67, 106
2,98945, Control_c, 0, 67, 90
2,98964, Control_c, 0, 67, 73
2,98974, Note_on_c, 0, 74, 0
2,98975, Note_on_c, 0, 76, 82
2,98983, Control_c, 0, 67, 55
2,99003, Control_c, 0, 67, 34
2,99021, Control_c, 0, 67, 0
2,99036, Note_on_c, 0, 76, 0
2,99040, Control_c, 0, 64, 36
2,99101, Note_on_c, 0, 74, 82
2,99114, Note_on_c, 0, 69, 78
2,99137, Control_c, 0, 64, 38
2,99145, Note_on_c, 0, 69, 0
2,99155, Control_c, 0, 64, 39
2,99166, Note_on_c, 0, 74, 0
2,99214, Control_c, 0, 64, 40
2,99220, Note_on_c, 0, 73, 85
2,99232, Control_c, 0, 64, 41
2,99267, Control_c, 0, 64, 41
2,99288, Note_on_c, 0, 73, 0
2,99290, Control_c, 0, 64, 42
2,99367, Control_c, 0, 64, 42
2,99378, Note_on_c, 0, 74, 85
2,99385, Note_on_c, 0, 68, 90
2,99386, Control_c, 0, 64, 43
2,99406, Control_c, 0, 64, 44
2,99434, Note_on_c, 0, 59, 0
2,99523, Note_on_c, 0, 73, 81
2,99550, Note_on_c, 0, 74, 0
2,99567, Note_on_c, 0, 68, 0
2,99617, Control_c, 0, 64, 44
2,99640, Note_on_c, 0, 71, 84
2,99649, Note_on_c, 0, 64, 85
2,99660, Note_on_c, 0, 73, 0
2,99706, Note_on_c, 0, 64, 0
2,99747, Note_on_c, 0, 71, 0
2,99785, Note_on_c, 0, 74, 79
2,99855, Note_on_c, 0, 74, 0
2,99902, Note_on_c, 0, 57, 92
2,99912, Note_on_c, 0, 73, 84
2,99943, Control_c, 0, 64, 44
2,99981, Control_c, 0, 64, 44
2,100000, Control_c, 0, 64, 45
2,100014, Note_on_c, 0, 73, 0
2,100033, Note_on_c, 0, 74, 77
2,100039, Control_c, 0, 64, 44
2,100058, Control_c, 0, 64, 44
2,100106, Note_on_c, 0, 74, 0
2,100154, Control_c, 0, 64, 43
2,100159, Note_on_c, 0, 73, 83
2,100170, Note_on_c, 0, 61, 79
2,100215, Control_c, 0, 64, 43
2,100244, Note_on_c, 0, 73, 0
2,100251, Note_on_c, 0, 61, 0
2,100271, Control_c, 0, 64, 43
2,100290, Control_c, 0, 64, 42
2,100301, Note_on_c, 0, 71, 80
2,100348, Control_c, 0, 64, 43
2,100363, Note_on_c, 0, 71, 0
2,100386, Note_on_c, 0, 57, 0
2,100405, Control_c, 0, 64, 43
2,100427, Note_on_c, 0, 66, 94
2,100428, Note_on_c, 0, 73, 87
2,100444, Control_c, 0, 64, 44
2,100463, Control_c, 0, 64, 44
2,100482, Control_c, 0, 64, 45
2,100505, Note_on_c, 0, 73, 0
2,100557, Note_on_c, 0, 71, 86
2,100624, Note_on_c, 0, 71, 0
2,100695, Note_on_c, 0, 62, 75
2,100703, Note_on_c, 0, 69, 80
2,100759, Note_on_c, 0, 69, 0
2,100764, Note_on_c, 0, 62, 0
2,100828, Control_c, 0, 64, 46
2,100832, Note_on_c, 0, 73, 83
2,100885, Control_c, 0, 64, 46
2,100901, Note_on_c, 0, 73, 0
2,100956, Note_on_c, 0, 71, 92
2,100965, Note_on_c, 0, 56, 81
2,100982, Note_on_c, 0, 66, 0
2,101020, Control_c, 0, 64, 47
2,101021, Note_on_c, 0, 56, 0
2,101078, Control_c, 0, 64, 46
2,101091, Note_on_c, 0, 69, 84
2,101116, Control_c, 0, 64, 46
2,101147, Note_on_c, 0, 71, 0
2,101191, Note_on_c, 0, 71, 65
2,101203, Note_on_c, 0, 69, 0
2,101212, Note_on_c, 0, 59, 80
2,101212, Note_on_c, 0, 68, 82
2,101265, Note_on_c, 0, 59, 0
2,101307, Note_on_c, 0, 68, 0
2,101308, Control_c, 0, 64, 45
2,101329, Note_on_c, 0, 66, 79
2,101347, Control_c, 0, 64, 45
2,101385, Control_c, 0, 64, 44
2,101393, Note_on_c, 0, 66, 0
2,101442, Control_c, 0, 64, 44
2,101473, Note_on_c, 0, 53, 79
2,101481, Note_on_c, 0, 68, 79
2,101500, Control_c, 0, 64, 44
2,101543, Note_on_c, 0, 53, 0
2,101558, Note_on_c, 0, 68, 0
2,101577, Control_c, 0, 64, 44
2,101618, Note_on_c, 0, 66, 74
2,101653, Control_c, 0, 64, 44
2,101682, Note_on_c, 0, 66, 0
2,101738, Note_on_c, 0, 49, 78
2,101754, Note_on_c, 0, 65, 74
2,101780, Note_on_c, 0, 49, 0
2,101809, Note_on_c, 0, 65, 0
2,101809, Note_on_c, 0, 71, 0
2,101867, Note_on_c, 0, 68, 81
2,101951, Note_on_c, 0, 68, 0
2,102003, Note_on_c, 0, 54, 91
2,102006, Note_on_c, 0, 66, 81
2,102091, Note_on_c, 0, 66, 0
2,102136, Note_on_c, 0, 68, 83
2,102191, Control_c, 0, 64, 45
2,102215, Note_on_c, 0, 68, 0
2,102248, Control_c, 0, 64, 45
2,102263, Note_on_c, 0, 70, 85
2,102277, Note_on_c, 0, 61, 84
2,102287, Control_c, 0, 64, 46
2,102328, Note_on_c, 0, 70, 0
2,102356, Note_on_c, 0, 61, 0
2,102383, Control_c, 0, 64, 46
2,102394, Note_on_c, 0, 71, 82
2,102457, Note_on_c, 0, 71, 0
2,102464, Note_on_c, 0, 54, 0
2,102520, Note_on_c, 0, 62, 86
2,102532, Note_on_c, 0, 70, 86
2,102537, Control_c, 0, 64, 46
2,102605, Note_on_c, 0, 70, 0
2,102668, Note_on_c, 0, 71, 82
2,102690, Control_c, 0, 64, 45
2,102725, Note_on_c, 0, 71, 0
2,102792, Note_on_c, 0, 73, 76
2,102798, Note_on_c, 0, 54, 81
2,102870, Note_on_c, 0, 73, 0
2,102873, Note_on_c, 0, 54, 0
2,102942, Note_on_c, 0, 70, 83
2,102959, Control_c, 0, 64, 46
2,103007, Note_on_c, 0, 70, 0
2,103047, Note_on_c, 0, 55, 91
2,103072, Note_on_c, 0, 62, 0
2,103072, Note_on_c, 0, 71, 79
2,103147, Note_on_c, 0, 71, 0
2,103193, Note_on_c, 0, 70, 83
2,103256, Note_on_c, 0, 70, 0
2,103307, Note_on_c, 0, 71, 87
2,103308, Note_on_c, 0, 63, 86
2,103375, Note_on_c, 0, 71, 0
2,103392, Note_on_c, 0, 63, 0
2,103401, Control_c, 0, 64, 46
2,103433, Note_on_c, 0, 73, 79
2,103459, Control_c, 0, 64, 46
2,103497, Control_c, 0, 64, 46
2,103506, Note_on_c, 0, 73, 0
2,103516, Control_c, 0, 64, 47
2,103546, Note_on_c, 0, 55, 0
2,103550, Note_on_c, 0, 64, 85
2,103592, Note_on_c, 0, 71, 93
2,103612, Control_c, 0, 64, 47
2,103631, Control_c, 0, 64, 48
2,103647, Note_on_c, 0, 71, 0
2,103704, Note_on_c, 0, 73, 81
2,103785, Note_on_c, 0, 73, 0
2,103823, Note_on_c, 0, 56, 84
2,103826, Note_on_c, 0, 74, 77
2,103895, Note_on_c, 0, 74, 0
2,103899, Note_on_c, 0, 56, 0
2,103900, Control_c, 0, 64, 48
2,103919, Control_c, 0, 64, 49
2,103967, Note_on_c, 0, 71, 87
2,104033, Note_on_c, 0, 71, 0
2,104073, Control_c, 0, 64, 48
2,104101, Note_on_c, 0, 73, 86
2,104103, Note_on_c, 0, 57, 91
2,104113, Note_on_c, 0, 64, 0
2,104171, Note_on_c, 0, 73, 0
2,104188, Control_c, 0, 64, 48
2,104227, Control_c, 0, 64, 47
2,104240, Note_on_c, 0, 71, 83
2,104265, Control_c, 0, 64, 46
2,104284, Control_c, 0, 64, 46
2,104333, Note_on_c, 0, 71, 0
2,104348, Note_on_c, 0, 65, 81
2,104358, Note_on_c, 0, 73, 85
2,104361, Control_c, 0, 64, 45
2,104380, Control_c, 0, 64, 45
2,104399, Control_c, 0, 64, 44
2,104442, Note_on_c, 0, 65, 0
2,104457, Control_c, 0, 64, 45
2,104469, Note_on_c, 0, 74, 79
2,104473, Note_on_c, 0, 73, 0
2,104541, Note_on_c, 0, 74, 0
2,104553, Control_c, 0, 64, 44
2,104620, Note_on_c, 0, 73, 85
2,104621, Note_on_c, 0, 66, 92
2,104668, Control_c, 0, 64, 45
2,104753, Note_on_c, 0, 74, 75
2,104816, Note_on_c, 0, 73, 0
2,104822, Control_c, 0, 64, 44
2,104856, Note_on_c, 0, 57, 0
2,104873, Note_on_c, 0, 58, 87
2,104878, Note_on_c, 0, 74, 0
2,104878, Note_on_c, 0, 77, 69
2,104879, Control_c, 0, 64, 44
2,104909, Note_on_c, 0, 76, 56
2,104918, Note_on_c, 0, 58, 0
2,104940, Note_on_c, 0, 76, 0
2,104960, Note_on_c, 0, 77, 0
2,105016, Note_on_c, 0, 73, 79
2,105051, Control_c, 0, 64, 44
2,105100, Note_on_c, 0, 73, 0
2,105135, Note_on_c, 0, 59, 94
2,105137, Note_on_c, 0, 74, 81
2,105147, Control_c, 0, 64, 44
2,105263, Control_c, 0, 64, 43
2,105270, Note_on_c, 0, 76, 79
2,105281, Control_c, 0, 64, 43
2,105282, Note_on_c, 0, 74, 0
2,105378, Control_c, 0, 64, 42
2,105379, Note_on_c, 0, 59, 0
2,105389, Note_on_c, 0, 54, 87
2,105399, Note_on_c, 0, 74, 79
2,105434, Note_on_c, 0, 76, 0
2,105451, Note_on_c, 0, 54, 0
2,105469, Note_on_c, 0, 66, 0
2,105473, Control_c, 0, 64, 41
2,105492, Control_c, 0, 64, 39
2,105512, Control_c, 0, 64, 37
2,105524, Note_on_c, 0, 73, 80
2,105538, Note_on_c, 0, 74, 0
2,105550, Control_c, 0, 64, 37
2,105569, Control_c, 0, 64, 36
2,105589, Control_c, 0, 64, 32
2,105608, Control_c, 0, 64, 27
2,105627, Control_c, 0, 64, 21
2,105633, Note_on_c, 0, 73, 0
2,105646, Control_c, 0, 64, 13
2,105659, Note_on_c, 0, 47, 86
2,105659, Note_on_c, 0, 74, 84
2,105666, Control_c, 0, 64, 0
2,105713, Note_on_c, 0, 47, 0
2,105788, Note_on_c, 0, 73, 81
2,105822, Note_on_c, 0, 74, 0
2,105902, Note_on_c, 0, 50, 87
2,105918, Note_on_c, 0, 71, 73
2,105945, Note_on_c, 0, 50, 0
2,105961, Note_on_c, 0, 73, 0
2,106034, Note_on_c, 0, 71, 0
2,106063, Note_on_c, 0, 74, 51
2,106069, Note_on_c, 0, 76, 42
2,106090, Note_on_c, 0, 74, 0
2,106103, Note_on_c, 0, 76, 0
2,106159, Note_on_c, 0, 52, 92
2,106178, Note_on_c, 0, 67, 89
2,106261, Control_c, 0, 67, 24
2,106280, Control_c, 0, 67, 58
2,106299, Control_c, 0, 67, 110
2,106306, Note_on_c, 0, 66, 81
2,106318, Control_c, 0, 67, 127
2,106420, Note_on_c, 0, 54, 82
2,106423, Note_on_c, 0, 52, 0
2,106431, Note_on_c, 0, 64, 77
2,106431, Note_on_c, 0, 66, 0
2,106460, Note_on_c, 0, 54, 0
2,106489, Note_on_c, 0, 64, 0
2,106572, Note_on_c, 0, 62, 74
2,106642, Note_on_c, 0, 62, 0
2,106689, Note_on_c, 0, 55, 82
2,106699, Note_on_c, 0, 64, 73
2,106734, Note_on_c, 0, 55, 0
2,106822, Note_on_c, 0, 64, 0
2,106829, Note_on_c, 0, 62, 66
2,106902, Note_on_c, 0, 62, 0
2,106940, Note_on_c, 0, 52, 71
2,106951, Note_on_c, 0, 61, 63
2,106980, Note_on_c, 0, 52, 0
2,106995, Note_on_c, 0, 61, 0
2,107075, Note_on_c, 0, 64, 64
2,107206, Note_on_c, 0, 49, 68
2,107213, Note_on_c, 0, 67, 0
2,107220, Note_on_c, 0, 57, 73
2,107223, Note_on_c, 0, 64, 0
2,107268, Note_on_c, 0, 49, 0
2,107350, Note_on_c, 0, 67, 73
2,107468, Note_on_c, 0, 45, 56
2,107469, Note_on_c, 0, 66, 78
2,107491, Note_on_c, 0, 67, 0
2,107515, Note_on_c, 0, 45, 0
2,107596, Note_on_c, 0, 64, 79
2,107611, Note_on_c, 0, 66, 0
2,107676, Note_on_c, 0, 64, 0
2,107711, Note_on_c, 0, 50, 67
2,107721, Note_on_c, 0, 66, 76
2,107785, Note_on_c, 0, 50, 0
2,107836, Note_on_c, 0, 64, 77
2,107851, Note_on_c, 0, 66, 0
2,107948, Note_on_c, 0, 42, 68
2,107962, Note_on_c, 0, 62, 72
2,107996, Note_on_c, 0, 64, 0
2,108016, Note_on_c, 0, 42, 0
2,108069, Note_on_c, 0, 62, 0
2,108075, Note_on_c, 0, 66, 73
2,108078, Note_on_c, 0, 57, 0
2,108078, Note_on_c, 0, 57, 5
2,108122, Note_on_c, 0, 66, 0
2,108183, Note_on_c, 0, 57, 0
2,108228, Note_on_c, 0, 59, 90
2,108232, Note_on_c, 0, 43, 67
2,108292, Note_on_c, 0, 43, 0
2,108359, Note_on_c, 0, 57, 76
2,108474, Note_on_c, 0, 57, 0
2,108487, Note_on_c, 0, 47, 72
2,108501, Note_on_c, 0, 55, 71
2,108531, Note_on_c, 0, 47, 0
2,108568, Note_on_c, 0, 55, 0
2,108605, Note_on_c, 0, 59, 0
2,108617, Note_on_c, 0, 54, 76
2,108729, Note_on_c, 0, 54, 0
2,108751, Note_on_c, 0, 61, 80
2,108756, Note_on_c, 0, 55, 77
2,108771, Note_on_c, 0, 40, 57
2,108807, Note_on_c, 0, 55, 0
2,108817, Note_on_c, 0, 40, 0
2,108890, Note_on_c, 0, 54, 73
2,108972, Note_on_c, 0, 54, 0
2,109013, Note_on_c, 0, 52, 75
2,109017, Note_on_c, 0, 45, 68
2,109053, Note_on_c, 0, 45, 0
2,109078, Note_on_c, 0, 52, 0
2,109137, Note_on_c, 0, 61, 0
2,109145, Note_on_c, 0, 55, 76
2,109211, Note_on_c, 0, 55, 0
2,109286, Note_on_c, 0, 50, 76
2,109291, Note_on_c, 0, 54, 70
2,109300, Note_on_c, 0, 60, 67
2,109311, Note_on_c, 0, 62, 69
2,109333, Note_on_c, 0, 54, 0
2,109341, Note_on_c, 0, 60, 0
2,109344, Note_on_c, 0, 62, 0
2,109361, Note_on_c, 0, 50, 0
2,109408, Note_on_c, 0, 49, 79
2,109475, Note_on_c, 0, 49, 0
2,109536, Note_on_c, 0, 50, 77
2,109536, Note_on_c, 0, 66, 83
2,109600, Note_on_c, 0, 50, 0
2,109603, Note_on_c, 0, 66, 0
2,109673, Note_on_c, 0, 52, 75
2,109722, Note_on_c, 0, 52, 0
2,109809, Note_on_c, 0, 50, 70
2,109819, Note_on_c, 0, 71, 96
2,109833, Control_c, 0, 67, 124
2,109852, Control_c, 0, 67, 111
2,109853, Note_on_c, 0, 50, 0
2,109871, Control_c, 0, 67, 94
2,109890, Control_c, 0, 67, 76
2,109910, Control_c, 0, 67, 60
2,109928, Control_c, 0, 67, 47
2,109948, Control_c, 0, 67, 36
2,109958, Note_on_c, 0, 55, 68
2,109967, Control_c, 0, 67, 23
2,109987, Control_c, 0, 67, 0
2,110004, Note_on_c, 0, 55, 0
2,110065, Note_on_c, 0, 59, 80
2,110082, Control_c, 0, 64, 9
2,110083, Note_on_c, 0, 54, 70
2,110102, Control_c, 0, 64, 11
2,110107, Note_on_c, 0, 59, 0
2,110122, Note_on_c, 0, 54, 0
2,110140, Control_c, 0, 64, 15
2,110159, Control_c, 0, 64, 18
2,110198, Control_c, 0, 64, 19
2,110217, Control_c, 0, 64, 20
2,110223, Note_on_c, 0, 55, 67
2,110236, Control_c, 0, 64, 22
2,110256, Control_c, 0, 64, 23
2,110258, Note_on_c, 0, 55, 0
2,110313, Control_c, 0, 64, 24
2,110338, Note_on_c, 0, 49, 80
2,110340, Note_on_c, 0, 64, 87
2,110398, Note_on_c, 0, 71, 0
2,110428, Control_c, 0, 64, 25
2,110433, Note_on_c, 0, 49, 0
2,110481, Note_on_c, 0, 47, 70
2,110543, Note_on_c, 0, 47, 0
2,110605, Note_on_c, 0, 49, 74
2,110609, Note_on_c, 0, 70, 80
2,110688, Note_on_c, 0, 49, 0
2,110739, Note_on_c, 0, 68, 83
2,110742, Note_on_c, 0, 50, 79
2,110767, Note_on_c, 0, 70, 0
2,110784, Note_on_c, 0, 64, 0
2,110813, Control_c, 0, 64, 26
2,110813, Note_on_c, 0, 50, 0
2,110818, Note_on_c, 0, 68, 0
2,110871, Note_on_c, 0, 49, 80
2,110883, Note_on_c, 0, 70, 92
2,110932, Note_on_c, 0, 49, 0
2,110942, Note_on_c, 0, 70, 0
2,111016, Note_on_c, 0, 54, 77
2,111043, Control_c, 0, 64, 27
2,111071, Note_on_c, 0, 54, 0
2,111120, Control_c, 0, 64, 28
2,111129, Note_on_c, 0, 66, 97
2,111137, Note_on_c, 0, 52, 74
2,111140, Control_c, 0, 64, 29
2,111194, Note_on_c, 0, 66, 0
2,111197, Control_c, 0, 64, 29
2,111217, Control_c, 0, 64, 32
2,111221, Note_on_c, 0, 52, 0
2,111235, Control_c, 0, 64, 35
2,111254, Control_c, 0, 64, 37
2,111265, Note_on_c, 0, 54, 73
2,111274, Control_c, 0, 64, 37
2,111293, Control_c, 0, 64, 38
2,111312, Control_c, 0, 64, 39
2,111322, Note_on_c, 0, 54, 0
2,111331, Control_c, 0, 64, 39
2,111351, Control_c, 0, 64, 40
2,111369, Control_c, 0, 64, 40
2,111389, Control_c, 0, 64, 41
2,111393, Note_on_c, 0, 62, 99
2,111394, Note_on_c, 0, 71, 95
2,111398, Note_on_c, 0, 47, 65
2,111452, Note_on_c, 0, 62, 0
2,111459, Note_on_c, 0, 47, 0
2,111466, Control_c, 0, 64, 40
2,111485, Control_c, 0, 64, 39
2,111523, Note_on_c, 0, 49, 79
2,111644, Note_on_c, 0, 49, 0
2,111649, Note_on_c, 0, 59, 96
2,111656, Note_on_c, 0, 50, 75
2,111701, Note_on_c, 0, 59, 0
2,111703, Note_on_c, 0, 50, 0
2,111715, Control_c, 0, 64, 40
2,111734, Control_c, 0, 64, 41
2,111778, Note_on_c, 0, 47, 77
2,111818, Note_on_c, 0, 47, 0
2,111931, Note_on_c, 0, 67, 99
2,111933, Note_on_c, 0, 52, 75
2,111962, Note_on_c, 0, 71, 0
2,111964, Control_c, 0, 64, 40
2,111983, Control_c, 0, 64, 40
2,111998, Note_on_c, 0, 52, 0
2,112022, Control_c, 0, 64, 39
2,112070, Note_on_c, 0, 50, 67
2,112079, Control_c, 0, 64, 39
2,112115, Note_on_c, 0, 50, 0
2,112175, Control_c, 0, 64, 39
2,112190, Note_on_c, 0, 76, 83
2,112193, Note_on_c, 0, 49, 75
2,112240, Note_on_c, 0, 49, 0
2,112271, Control_c, 0, 64, 40
2,112287, Note_on_c, 0, 76, 0
2,112312, Note_on_c, 0, 47, 74
2,112359, Note_on_c, 0, 47, 0
2,112448, Note_on_c, 0, 69, 97
2,112451, Note_on_c, 0, 49, 80
2,112463, Control_c, 0, 64, 39
2,112473, Note_on_c, 0, 67, 0
2,112512, Note_on_c, 0, 49, 0
2,112521, Control_c, 0, 64, 39
2,112584, Note_on_c, 0, 52, 74
2,112633, Note_on_c, 0, 52, 0
2,112655, Control_c, 0, 64, 38
2,112674, Control_c, 0, 64, 38
2,112708, Note_on_c, 0, 50, 77
2,112708, Note_on_c, 0, 66, 87
2,112713, Control_c, 0, 64, 37
2,112747, Note_on_c, 0, 69, 0
2,112752, Note_on_c, 0, 50, 0
2,112797, Note_on_c, 0, 66, 0
2,112829, Note_on_c, 0, 64, 87
2,112831, Note_on_c, 0, 49, 82
2,112867, Control_c, 0, 64, 38
2,112883, Note_on_c, 0, 49, 0
2,112885, Control_c, 0, 64, 38
2,112903, Note_on_c, 0, 64, 0
2,112943, Control_c, 0, 64, 38
2,112967, Note_on_c, 0, 50, 87
2,112970, Note_on_c, 0, 66, 91
2,113001, Control_c, 0, 64, 37
2,113026, Note_on_c, 0, 50, 0
2,113097, Note_on_c, 0, 52, 74
2,113135, Control_c, 0, 64, 37
2,113146, Note_on_c, 0, 52, 0
2,113219, Note_on_c, 0, 74, 79
2,113228, Note_on_c, 0, 54, 79
2,113250, Control_c, 0, 64, 37
2,113281, Note_on_c, 0, 54, 0
2,113288, Control_c, 0, 64, 38
2,113289, Note_on_c, 0, 74, 0
2,113353, Note_on_c, 0, 50, 76
2,113410, Note_on_c, 0, 50, 0
2,113491, Note_on_c, 0, 52, 80
2,113498, Note_on_c, 0, 67, 84
2,113546, Note_on_c, 0, 66, 0
2,113548, Note_on_c, 0, 52, 0
2,113558, Control_c, 0, 64, 37
2,113625, Note_on_c, 0, 50, 80
2,113679, Note_on_c, 0, 50, 0
2,113692, Control_c, 0, 64, 37
2,113767, Note_on_c, 0, 71, 88
2,113772, Note_on_c, 0, 52, 62
2,113797, Note_on_c, 0, 53, 50
2,113822, Note_on_c, 0, 52, 0
2,113827, Control_c, 0, 64, 36
2,113831, Note_on_c, 0, 53, 0
2,113840, Note_on_c, 0, 71, 0
2,113903, Note_on_c, 0, 54, 77
2,113945, Note_on_c, 0, 54, 0
2,113980, Control_c, 0, 64, 37
2,114032, Note_on_c, 0, 64, 94
2,114037, Note_on_c, 0, 55, 81
2,114068, Note_on_c, 0, 67, 0
2,114098, Note_on_c, 0, 55, 0
2,114153, Control_c, 0, 64, 36
2,114167, Note_on_c, 0, 54, 79
2,114214, Note_on_c, 0, 54, 0
2,114268, Control_c, 0, 64, 37
2,114297, Note_on_c, 0, 52, 79
2,114302, Note_on_c, 0, 72, 90
2,114363, Note_on_c, 0, 52, 0
2,114403, Note_on_c, 0, 72, 0
2,114441, Control_c, 0, 64, 37
2,114449, Note_on_c, 0, 55, 68
2,114494, Note_on_c, 0, 55, 0
2,114578, Note_on_c, 0, 54, 83
2,114580, Note_on_c, 0, 70, 93
2,114644, Note_on_c, 0, 64, 0
2,114647, Note_on_c, 0, 54, 0
2,114652, Control_c, 0, 64, 38
2,114671, Control_c, 0, 64, 38
2,114681, Note_on_c, 0, 70, 0
2,114690, Control_c, 0, 64, 39
2,114715, Note_on_c, 0, 56, 80
2,114772, Note_on_c, 0, 56, 0
2,114828, Note_on_c, 0, 66, 87
2,114829, Note_on_c, 0, 62, 86
2,114840, Note_on_c, 0, 58, 85
2,114901, Note_on_c, 0, 58, 0
2,114904, Note_on_c, 0, 62, 0
2,114921, Control_c, 0, 64, 38
2,114955, Note_on_c, 0, 54, 84
2,114966, Note_on_c, 0, 61, 88
2,114979, Control_c, 0, 64, 37
2,114983, Note_on_c, 0, 66, 0
2,115040, Note_on_c, 0, 54, 0
2,115055, Control_c, 0, 64, 38
2,115066, Note_on_c, 0, 61, 0
2,115088, Note_on_c, 0, 59, 90
2,115088, Note_on_c, 0, 62, 82
2,115132, Control_c, 0, 64, 37
2,115150, Note_on_c, 0, 59, 0
2,115164, Note_on_c, 0, 62, 0
2,115208, Control_c, 0, 64, 37
2,115223, Note_on_c, 0, 71, 83
2,115225, Note_on_c, 0, 47, 88
2,115228, Control_c, 0, 64, 36
2,115274, Note_on_c, 0, 47, 0
2,115339, Note_on_c, 0, 59, 96
2,115352, Note_on_c, 0, 73, 80
2,115382, Control_c, 0, 64, 37
2,115398, Note_on_c, 0, 71, 0
2,115472, Note_on_c, 0, 74, 73
2,115493, Note_on_c, 0, 73, 0
2,115502, Note_on_c, 0, 74, 0
2,115622, Note_on_c, 0, 61, 95
2,115628, Note_on_c, 0, 65, 83
2,115650, Control_c, 0, 64, 38
2,115670, Control_c, 0, 64, 39
2,115677, Note_on_c, 0, 59, 0
2,115685, Note_on_c, 0, 65, 0
2,115738, Note_on_c, 0, 57, 82
2,115784, Note_on_c, 0, 57, 0
2,115868, Note_on_c, 0, 73, 88
2,115869, Note_on_c, 0, 56, 81
2,115913, Note_on_c, 0, 56, 0
2,115940, Note_on_c, 0, 73, 0
2,116009, Note_on_c, 0, 59, 82
2,116050, Note_on_c, 0, 59, 0
2,116152, Note_on_c, 0, 57, 78
2,116169, Note_on_c, 0, 66, 91
2,116198, Note_on_c, 0, 57, 0
2,116227, Control_c, 0, 64, 38
2,116282, Note_on_c, 0, 56, 81
2,116303, Control_c, 0, 64, 38
2,116322, Control_c, 0, 64, 37
2,116322, Control_c, 0, 67, 12
2,116339, Note_on_c, 0, 56, 0
2,116342, Control_c, 0, 67, 39
2,116361, Control_c, 0, 64, 38
2,116361, Control_c, 0, 67, 72
2,116380, Control_c, 0, 64, 38
2,116380, Control_c, 0, 67, 120
2,116399, Control_c, 0, 64, 39
2,116399, Control_c, 0, 67, 127
2,116415, Note_on_c, 0, 54, 75
2,116453, Note_on_c, 0, 54, 0
2,116476, Control_c, 0, 64, 38
2,116489, Note_on_c, 0, 61, 0
2,116556, Note_on_c, 0, 57, 77
2,116570, Control_c, 0, 64, 38
2,116589, Control_c, 0, 64, 37
2,116598, Note_on_c, 0, 57, 0
2,116692, Note_on_c, 0, 56, 78
2,116699, Note_on_c, 0, 59, 89
2,116722, Note_on_c, 0, 66, 0
2,116732, Note_on_c, 0, 56, 0
2,116827, Note_on_c, 0, 57, 70
2,116872, Note_on_c, 0, 57, 0
2,116951, Note_on_c, 0, 65, 75
2,116954, Control_c, 0, 64, 37
2,116955, Note_on_c, 0, 59, 0
2,116963, Note_on_c, 0, 56, 71
2,116973, Control_c, 0, 64, 36
2,117006, Note_on_c, 0, 56, 0
2,117085, Note_on_c, 0, 66, 84
2,117087, Note_on_c, 0, 54, 75
2,117092, Note_on_c, 0, 65, 0
2,117133, Note_on_c, 0, 54, 0
2,117209, Note_on_c, 0, 53, 77
2,117212, Note_on_c, 0, 68, 87
2,117254, Note_on_c, 0, 53, 0
2,117266, Note_on_c, 0, 66, 0
2,117304, Note_on_c, 0, 68, 0
2,117338, Note_on_c, 0, 54, 74
2,117351, Note_on_c, 0, 69, 84
2,117397, Note_on_c, 0, 54, 0
2,117401, Note_on_c, 0, 69, 0
2,117464, Note_on_c, 0, 71, 86
2,117467, Note_on_c, 0, 56, 81
2,117514, Note_on_c, 0, 56, 0
2,117533, Note_on_c, 0, 71, 0
2,117595, Note_on_c, 0, 68, 82
2,117609, Note_on_c, 0, 53, 74
2,117665, Control_c, 0, 64, 36
2,117668, Note_on_c, 0, 68, 0
2,117730, Note_on_c, 0, 71, 84
2,117731, Note_on_c, 0, 53, 0
2,117736, Note_on_c, 0, 54, 73
2,117863, Note_on_c, 0, 69, 80
2,117886, Note_on_c, 0, 71, 0
2,117987, Note_on_c, 0, 68, 83
2,117987, Note_on_c, 0, 69, 0
2,118010, Control_c, 0, 64, 37
2,118014, Note_on_c, 0, 56, 72
2,118034, Note_on_c, 0, 54, 0
2,118048, Control_c, 0, 64, 37
2,118054, Note_on_c, 0, 68, 0
2,118071, Note_on_c, 0, 56, 0
2,118126, Note_on_c, 0, 66, 83
2,118133, Note_on_c, 0, 57, 81
2,118145, Control_c, 0, 64, 38
2,118185, Note_on_c, 0, 57, 0
2,118185, Note_on_c, 0, 66, 0
2,118264, Note_on_c, 0, 74, 88
2,118268, Note_on_c, 0, 59, 85
2,118313, Note_on_c, 0, 59, 0
2,118317, Control_c, 0, 64, 37
2,118356, Control_c, 0, 64, 36
2,118391, Note_on_c, 0, 73, 75
2,118402, Note_on_c, 0, 57, 67
2,118413, Control_c, 0, 64, 36
2,118442, Note_on_c, 0, 57, 0
2,118506, Note_on_c, 0, 71, 78
2,118523, Note_on_c, 0, 56, 75
2,118549, Note_on_c, 0, 73, 0
2,118578, Note_on_c, 0, 56, 0
2,118601, Note_on_c, 0, 71, 0
2,118642, Note_on_c, 0, 54, 71
2,118646, Note_on_c, 0, 69, 72
2,118676, Note_on_c, 0, 54, 0
2,118682, Control_c, 0, 64, 36
2,118702, Note_on_c, 0, 69, 0
2,118775, Note_on_c, 0, 68, 76
2,118784, Note_on_c, 0, 52, 69
2,118797, Control_c, 0, 64, 37
2,118818, Note_on_c, 0, 52, 0
2,118828, Note_on_c, 0, 74, 0
2,118836, Control_c, 0, 64, 37
2,118928, Note_on_c, 0, 54, 51
2,118959, Note_on_c, 0, 54, 0
2,119040, Note_on_c, 0, 73, 80
2,119041, Note_on_c, 0, 52, 62
2,119061, Note_on_c, 0, 68, 0
2,119078, Note_on_c, 0, 52, 0
2,119085, Control_c, 0, 64, 37
2,119105, Control_c, 0, 64, 36
2,119121, Note_on_c, 0, 73, 0
2,119161, Note_on_c, 0, 50, 74
2,119164, Note_on_c, 0, 71, 85
2,119196, Note_on_c, 0, 50, 0
2,119200, Control_c, 0, 64, 36
2,119239, Control_c, 0, 64, 35
2,119248, Note_on_c, 0, 71, 0
2,119296, Control_c, 0, 64, 35
2,119302, Note_on_c, 0, 73, 86
2,119309, Note_on_c, 0, 52, 73
2,119316, Control_c, 0, 64, 34
2,119334, Control_c, 0, 64, 34
2,119348, Note_on_c, 0, 52, 0
2,119373, Control_c, 0, 64, 32
2,119393, Control_c, 0, 64, 31
2,119411, Control_c, 0, 64, 29
2,119431, Control_c, 0, 64, 27
2,119434, Note_on_c, 0, 50, 75
2,119443, Note_on_c, 0, 71, 72
2,119450, Control_c, 0, 64, 26
2,119469, Control_c, 0, 64, 25
2,119470, Note_on_c, 0, 50, 0
2,119508, Control_c, 0, 64, 24
2,119527, Control_c, 0, 64, 23
2,119556, Note_on_c, 0, 49, 78
2,119560, Note_on_c, 0, 69, 84
2,119581, Note_on_c, 0, 71, 0
2,119597, Note_on_c, 0, 49, 0
2,119598, Note_on_c, 0, 73, 0
2,119687, Note_on_c, 0, 69, 0
2,119699, Note_on_c, 0, 52, 74
2,119699, Note_on_c, 0, 68, 83
2,119736, Note_on_c, 0, 52, 0
2,119779, Note_on_c, 0, 68, 0
2,119825, Note_on_c, 0, 50, 87
2,119829, Note_on_c, 0, 66, 79
2,119869, Note_on_c, 0, 50, 0
2,119869, Note_on_c, 0, 66, 0
2,119911, Control_c, 0, 64, 24
2,119949, Control_c, 0, 64, 25
2,119965, Note_on_c, 0, 52, 78
2,119988, Control_c, 0, 64, 26
2,120009, Note_on_c, 0, 52, 0
2,120066, Note_on_c, 0, 78, 84
2,120076, Note_on_c, 0, 69, 79
2,120094, Note_on_c, 0, 50, 80
2,120113, Note_on_c, 0, 69, 0
2,120133, Note_on_c, 0, 50, 0
2,120139, Note_on_c, 0, 78, 0
2,120232, Note_on_c, 0, 49, 72
2,120256, Control_c, 0, 64, 27
2,120272, Note_on_c, 0, 49, 0
2,120276, Control_c, 0, 64, 27
2,120294, Control_c, 0, 64, 28
2,120314, Control_c, 0, 64, 29
2,120341, Note_on_c, 0, 71, 97
2,120353, Note_on_c, 0, 50, 78
2,120353, Note_on_c, 0, 68, 82
2,120391, Note_on_c, 0, 50, 0
2,120429, Control_c, 0, 64, 29
2,120476, Note_on_c, 0, 49, 78
2,120521, Note_on_c, 0, 49, 0
2,120528, Control_c, 0, 64, 30
2,120547, Control_c, 0, 64, 31
2,120566, Control_c, 0, 64, 31
2,120585, Control_c, 0, 64, 32
2,120605, Note_on_c, 0, 47, 76
2,120646, Note_on_c, 0, 47, 0
2,120718, Note_on_c, 0, 68, 0
2,120730, Note_on_c, 0, 66, 80
2,120731, Note_on_c, 0, 50, 83
2,120759, Control_c, 0, 64, 32
2,120771, Note_on_c, 0, 71, 0
2,120777, Control_c, 0, 64, 33
2,120780, Note_on_c, 0, 50, 0
2,120797, Control_c, 0, 64, 34
2,120813, Note_on_c, 0, 66, 0
2,120816, Control_c, 0, 64, 34
2,120836, Control_c, 0, 64, 35
2,120858, Note_on_c, 0, 65, 82
2,120864, Note_on_c, 0, 49, 88
2,120907, Note_on_c, 0, 65, 0
2,120911, Note_on_c, 0, 49, 0
2,120912, Control_c, 0, 64, 35
2,120951, Control_c, 0, 64, 36
2,121001, Note_on_c, 0, 50, 78
2,121027, Control_c, 0, 64, 36
2,121046, Control_c, 0, 64, 37
2,121047, Note_on_c, 0, 50, 0
2,121065, Control_c, 0, 64, 37
2,121119, Note_on_c, 0, 69, 90
2,121120, Note_on_c, 0, 61, 85
2,121128, Note_on_c, 0, 49, 84
2,121162, Control_c, 0, 64, 38
2,121182, Note_on_c, 0, 61, 0
2,121184, Note_on_c, 0, 49, 0
2,121241, Note_on_c, 0, 68, 88
2,121258, Note_on_c, 0, 47, 79
2,121284, Note_on_c, 0, 69, 0
2,121296, Control_c, 0, 64, 37
2,121304, Note_on_c, 0, 47, 0
2,121316, Control_c, 0, 64, 36
2,121334, Control_c, 0, 64, 35
2,121350, Control_c, 0, 64, 34
2,121382, Note_on_c, 0, 69, 91
2,121387, Note_on_c, 0, 66, 87
2,121388, Note_on_c, 0, 49, 88
2,121392, Control_c, 0, 64, 34
2,121452, Note_on_c, 0, 66, 0
2,121452, Note_on_c, 0, 68, 0
2,121454, Note_on_c, 0, 49, 0
2,121507, Control_c, 0, 64, 33
2,121518, Note_on_c, 0, 47, 80
2,121565, Control_c, 0, 64, 32
2,121569, Note_on_c, 0, 47, 0
2,121642, Control_c, 0, 64, 32
2,121646, Note_on_c, 0, 45, 79
2,121653, Note_on_c, 0, 66, 90
2,121661, Control_c, 0, 64, 31
2,121680, Control_c, 0, 64, 29
2,121700, Note_on_c, 0, 45, 0
2,121780, Note_on_c, 0, 49, 82
2,121796, Control_c, 0, 64, 29
2,121814, Control_c, 0, 64, 27
2,121837, Note_on_c, 0, 49, 0
2,121853, Control_c, 0, 64, 27
2,121911, Control_c, 0, 64, 26
2,121917, Note_on_c, 0, 68, 91
2,121922, Note_on_c, 0, 47, 72
2,121930, Control_c, 0, 64, 25
2,121948, Control_c, 0, 64, 24
2,121965, Note_on_c, 0, 69, 0
2,121978, Note_on_c, 0, 47, 0
2,122045, Control_c, 0, 64, 23
2,122050, Note_on_c, 0, 49, 80
2,122096, Note_on_c, 0, 49, 0
2,122122, Control_c, 0, 64, 22
2,122188, Note_on_c, 0, 47, 72
2,122235, Note_on_c, 0, 47, 0
2,122311, Note_on_c, 0, 45, 73
2,122345, Note_on_c, 0, 45, 0
2,122462, Note_on_c, 0, 47, 73
2,122484, Note_on_c, 0, 65, 69
2,122488, Control_c, 0, 64, 23
2,122502, Note_on_c, 0, 47, 0
2,122507, Note_on_c, 0, 66, 0
2,122584, Control_c, 0, 64, 24
2,122607, Note_on_c, 0, 45, 65
2,122622, Control_c, 0, 64, 25
2,122642, Control_c, 0, 64, 26
2,122648, Note_on_c, 0, 45, 0
2,122722, Note_on_c, 0, 44, 68
2,122747, Note_on_c, 0, 65, 0
2,122756, Note_on_c, 0, 44, 0
2,122812, Control_c, 0, 64, 27
2,122828, Note_on_c, 0, 68, 0
2,122860, Note_on_c, 0, 47, 61
2,122910, Note_on_c, 0, 47, 0
2,123001, Note_on_c, 0, 45, 65
2,123011, Note_on_c, 0, 66, 73
2,123040, Note_on_c, 0, 45, 0
2,123062, Control_c, 0, 64, 26
2,123139, Note_on_c, 0, 44, 68
2,123182, Note_on_c, 0, 44, 0
2,123253, Control_c, 0, 64, 25
2,123261, Note_on_c, 0, 42, 73
2,123268, Note_on_c, 0, 73, 79
2,123301, Note_on_c, 0, 42, 0
2,123405, Note_on_c, 0, 44, 68
2,123444, Note_on_c, 0, 44, 0
2,123521, Note_on_c, 0, 78, 84
2,123527, Note_on_c, 0, 45, 71
2,123555, Note_on_c, 0, 73, 0
2,123561, Control_c, 0, 64, 24
2,123571, Note_on_c, 0, 45, 0
2,123649, Note_on_c, 0, 47, 70
2,123692, Note_on_c, 0, 47, 0
2,123779, Note_on_c, 0, 49, 73
2,123806, Note_on_c, 0, 81, 84
2,123828, Note_on_c, 0, 49, 0
2,123838, Note_on_c, 0, 78, 0
2,123920, Note_on_c, 0, 51, 70
2,123961, Note_on_c, 0, 51, 0
2,124002, Control_c, 0, 64, 25
2,124056, Note_on_c, 0, 80, 83
2,124060, Note_on_c, 0, 52, 70
2,124064, Note_on_c, 0, 66, 0
2,124092, Note_on_c, 0, 81, 0
2,124107, Note_on_c, 0, 52, 0
2,124194, Note_on_c, 0, 51, 66
2,124236, Note_on_c, 0, 51, 0
2,124313, Note_on_c, 0, 68, 74
2,124324, Note_on_c, 0, 49, 72
2,124364, Note_on_c, 0, 49, 0
2,124464, Note_on_c, 0, 51, 66
2,124511, Note_on_c, 0, 51, 0
2,124579, Note_on_c, 0, 73, 80
2,124586, Note_on_c, 0, 52, 71
2,124606, Note_on_c, 0, 68, 0
2,124638, Note_on_c, 0, 52, 0
2,124734, Note_on_c, 0, 54, 71
2,124785, Note_on_c, 0, 54, 0
2,124805, Control_c, 0, 64, 26
2,124853, Note_on_c, 0, 76, 78
2,124865, Note_on_c, 0, 56, 73
2,124873, Note_on_c, 0, 73, 0
2,124909, Note_on_c, 0, 56, 0
2,124920, Control_c, 0, 64, 27
2,124999, Note_on_c, 0, 58, 68
2,125035, Control_c, 0, 64, 27
2,125039, Note_on_c, 0, 58, 0
2,125129, Note_on_c, 0, 60, 69
2,125133, Note_on_c, 0, 75, 85
2,125139, Note_on_c, 0, 76, 0
2,125182, Note_on_c, 0, 60, 0
2,125207, Note_on_c, 0, 80, 0
2,125269, Control_c, 0, 64, 28
2,125274, Note_on_c, 0, 58, 64
2,125324, Note_on_c, 0, 58, 0
2,125397, Note_on_c, 0, 81, 82
2,125406, Note_on_c, 0, 60, 67
2,125454, Note_on_c, 0, 60, 0
2,125542, Note_on_c, 0, 61, 67
2,125586, Note_on_c, 0, 61, 0
2,125619, Note_on_c, 0, 81, 0
2,125671, Note_on_c, 0, 80, 82
2,125675, Note_on_c, 0, 60, 63
2,125724, Note_on_c, 0, 60, 0
2,125803, Note_on_c, 0, 61, 72
2,125855, Note_on_c, 0, 61, 0
2,125909, Note_on_c, 0, 78, 80
2,125923, Note_on_c, 0, 63, 78
2,125943, Note_on_c, 0, 80, 0
2,125965, Note_on_c, 0, 63, 0
2,126029, Note_on_c, 0, 78, 0
2,126067, Note_on_c, 0, 60, 58
2,126099, Note_on_c, 0, 60, 0
2,126113, Note_on_c, 0, 75, 0
2,126180, Note_on_c, 0, 61, 76
2,126180, Note_on_c, 0, 76, 84
2,126233, Note_on_c, 0, 61, 0
2,126314, Note_on_c, 0, 63, 74
2,126352, Note_on_c, 0, 63, 0
2,126443, Note_on_c, 0, 68, 83
2,126444, Note_on_c, 0, 64, 68
2,126486, Note_on_c, 0, 64, 0
2,126574, Control_c, 0, 64, 29
2,126577, Note_on_c, 0, 63, 66
2,126632, Note_on_c, 0, 63, 0
2,126647, Note_on_c, 0, 68, 0
2,126693, Note_on_c, 0, 73, 86
2,126699, Note_on_c, 0, 61, 64
2,126709, Control_c, 0, 64, 29
2,126732, Note_on_c, 0, 61, 0
2,126827, Note_on_c, 0, 59, 75
2,126872, Note_on_c, 0, 59, 0
2,126926, Note_on_c, 0, 73, 0
2,126956, Note_on_c, 0, 57, 74
2,126958, Note_on_c, 0, 71, 82
2,126995, Note_on_c, 0, 57, 0
2,127089, Note_on_c, 0, 56, 77
2,127129, Note_on_c, 0, 71, 0
2,127134, Note_on_c, 0, 56, 0
2,127223, Note_on_c, 0, 54, 74
2,127242, Note_on_c, 0, 69, 83
2,127272, Note_on_c, 0, 54, 0
2,127284, Control_c, 0, 64, 30
2,127294, Note_on_c, 0, 76, 0
2,127344, Note_on_c, 0, 52, 76
2,127384, Note_on_c, 0, 52, 0
2,127487, Note_on_c, 0, 54, 69
2,127492, Note_on_c, 0, 76, 85
2,127531, Note_on_c, 0, 54, 0
2,127624, Note_on_c, 0, 56, 73
2,127667, Note_on_c, 0, 56, 0
2,127688, Control_c, 0, 64, 31
2,127752, Note_on_c, 0, 54, 74
2,127764, Note_on_c, 0, 75, 89
2,127798, Note_on_c, 0, 54, 0
2,127801, Note_on_c, 0, 76, 0
2,127841, Control_c, 0, 64, 31
2,127861, Control_c, 0, 64, 32
2,127880, Control_c, 0, 64, 32
2,127888, Note_on_c, 0, 56, 75
2,127898, Control_c, 0, 64, 33
2,127929, Note_on_c, 0, 56, 0
2,127995, Control_c, 0, 64, 34
2,128014, Control_c, 0, 64, 35
2,128017, Note_on_c, 0, 57, 75
2,128026, Note_on_c, 0, 78, 88
2,128033, Control_c, 0, 64, 35
2,128055, Note_on_c, 0, 57, 0
2,128057, Note_on_c, 0, 75, 0
2,128110, Control_c, 0, 64, 36
2,128138, Note_on_c, 0, 54, 80
2,128146, Note_on_c, 0, 78, 0
2,128189, Note_on_c, 0, 54, 0
2,128278, Note_on_c, 0, 56, 84
2,128280, Note_on_c, 0, 72, 89
2,128305, Note_on_c, 0, 69, 0
2,128334, Note_on_c, 0, 56, 0
2,128412, Note_on_c, 0, 54, 80
2,128417, Control_c, 0, 64, 36
2,128465, Note_on_c, 0, 54, 0
2,128494, Control_c, 0, 67, 122
2,128513, Control_c, 0, 64, 37
2,128513, Control_c, 0, 67, 113
2,128529, Note_on_c, 0, 63, 78
2,128532, Control_c, 0, 67, 97
2,128540, Note_on_c, 0, 56, 81
2,128552, Control_c, 0, 64, 37
2,128552, Control_c, 0, 67, 77
2,128571, Control_c, 0, 67, 56
2,128585, Note_on_c, 0, 56, 0
2,128590, Control_c, 0, 67, 40
2,128600, Note_on_c, 0, 63, 0
2,128609, Control_c, 0, 67, 28
2,128629, Control_c, 0, 64, 38
2,128629, Control_c, 0, 67, 12
2,128648, Control_c, 0, 64, 38
2,128648, Control_c, 0, 67, 0
2,128667, Control_c, 0, 64, 39
2,128673, Note_on_c, 0, 57, 79
2,128686, Control_c, 0, 64, 40
2,128706, Control_c, 0, 64, 40
2,128724, Control_c, 0, 64, 41
2,128737, Note_on_c, 0, 57, 0
2,128744, Control_c, 0, 64, 42
2,128763, Control_c, 0, 64, 42
2,128783, Control_c, 0, 64, 43
2,128800, Note_on_c, 0, 56, 82
2,128801, Control_c, 0, 64, 44
2,128808, Note_on_c, 0, 68, 87
2,128821, Control_c, 0, 64, 44
2,128840, Control_c, 0, 64, 45
2,128862, Note_on_c, 0, 56, 0
2,128878, Control_c, 0, 64, 45
2,128897, Control_c, 0, 64, 46
2,128933, Note_on_c, 0, 54, 72
2,128955, Control_c, 0, 64, 46
2,128966, Note_on_c, 0, 54, 0
2,129068, Note_on_c, 0, 52, 88
2,129079, Note_on_c, 0, 75, 85
2,129083, Note_on_c, 0, 66, 83
2,129120, Note_on_c, 0, 68, 0
2,129126, Note_on_c, 0, 52, 0
2,129128, Control_c, 0, 64, 47
2,129143, Note_on_c, 0, 72, 0
2,129166, Control_c, 0, 64, 47
2,129204, Control_c, 0, 64, 47
2,129207, Note_on_c, 0, 51, 84
2,129224, Control_c, 0, 64, 46
2,129243, Control_c, 0, 64, 46
2,129266, Note_on_c, 0, 66, 0
2,129270, Note_on_c, 0, 51, 0
2,129301, Control_c, 0, 64, 46
2,129315, Note_on_c, 0, 68, 89
2,129334, Note_on_c, 0, 52, 97
2,129358, Control_c, 0, 64, 47
2,129368, Note_on_c, 0, 75, 0
2,129397, Control_c, 0, 64, 47
2,129435, Control_c, 0, 64, 48
2,129468, Note_on_c, 0, 66, 85
2,129473, Control_c, 0, 64, 47
2,129512, Control_c, 0, 64, 48
2,129531, Control_c, 0, 64, 48
2,129569, Control_c, 0, 64, 48
2,129569, Note_on_c, 0, 52, 0
2,129589, Control_c, 0, 64, 47
2,129591, Note_on_c, 0, 66, 0
2,129609, Note_on_c, 0, 49, 85
2,129613, Note_on_c, 0, 64, 83
2,129656, Note_on_c, 0, 49, 0
2,129658, Note_on_c, 0, 68, 0
2,129666, Control_c, 0, 64, 47
2,129687, Note_on_c, 0, 64, 0
2,129704, Control_c, 0, 64, 46
2,129747, Note_on_c, 0, 63, 84
2,129817, Note_on_c, 0, 63, 0
2,129838, Control_c, 0, 64, 47
2,129857, Control_c, 0, 64, 47
2,129880, Note_on_c, 0, 57, 93
2,129885, Note_on_c, 0, 61, 84
2,129895, Control_c, 0, 64, 48
2,129934, Control_c, 0, 64, 48
2,129984, Note_on_c, 0, 61, 0
2,130010, Control_c, 0, 64, 48
2,130033, Note_on_c, 0, 63, 65
2,130073, Note_on_c, 0, 63, 0
2,130106, Control_c, 0, 64, 48
2,130125, Note_on_c, 0, 64, 75
2,130148, Note_on_c, 0, 73, 84
2,130163, Control_c, 0, 64, 49
2,130183, Control_c, 0, 64, 50
2,130213, Note_on_c, 0, 73, 0
2,130223, Note_on_c, 0, 64, 0
2,130278, Note_on_c, 0, 61, 77
2,130317, Control_c, 0, 64, 50
2,130351, Note_on_c, 0, 61, 0
2,130362, Note_on_c, 0, 57, 0
2,130397, Note_on_c, 0, 57, 65
2,130403, Note_on_c, 0, 71, 91
2,130408, Note_on_c, 0, 63, 87
2,130433, Control_c, 0, 64, 50
2,130528, Control_c, 0, 64, 49
2,130536, Note_on_c, 0, 73, 81
2,130555, Note_on_c, 0, 71, 0
2,130586, Control_c, 0, 64, 49
2,130648, Note_on_c, 0, 56, 89
2,130652, Note_on_c, 0, 57, 0
2,130657, Note_on_c, 0, 71, 83
2,130693, Note_on_c, 0, 63, 0
2,130696, Note_on_c, 0, 73, 0
2,130710, Note_on_c, 0, 56, 0
2,130758, Note_on_c, 0, 71, 0
2,130759, Control_c, 0, 64, 49
2,130781, Note_on_c, 0, 54, 88
2,130783, Note_on_c, 0, 69, 88
2,130816, Control_c, 0, 64, 50
2,130849, Note_on_c, 0, 54, 0
2,130854, Control_c, 0, 64, 49
2,130909, Note_on_c, 0, 71, 83
2,130910, Note_on_c, 0, 56, 98
2,130931, Note_on_c, 0, 69, 0
2,131008, Control_c, 0, 64, 50
2,131035, Note_on_c, 0, 69, 86
2,131060, Note_on_c, 0, 71, 0
2,131066, Control_c, 0, 64, 49
2,131154, Note_on_c, 0, 64, 85
2,131158, Note_on_c, 0, 69, 0
2,131162, Note_on_c, 0, 68, 81
2,131200, Control_c, 0, 64, 49
2,131220, Control_c, 0, 64, 49
2,131272, Note_on_c, 0, 64, 0
2,131276, Note_on_c, 0, 71, 86
2,131294, Note_on_c, 0, 68, 0
2,131421, Note_on_c, 0, 71, 0
2,131434, Note_on_c, 0, 69, 85
2,131435, Note_on_c, 0, 61, 85
2,131514, Note_on_c, 0, 56, 0
2,131530, Note_on_c, 0, 61, 0
2,131559, Note_on_c, 0, 71, 77
2,131561, Note_on_c, 0, 69, 0
2,131687, Note_on_c, 0, 69, 88
2,131697, Note_on_c, 0, 64, 75
2,131700, Control_c, 0, 64, 49
2,131703, Note_on_c, 0, 71, 0
2,131713, Note_on_c, 0, 61, 86
2,131745, Note_on_c, 0, 64, 0
2,131768, Note_on_c, 0, 69, 0
2,131776, Note_on_c, 0, 61, 0
2,131830, Note_on_c, 0, 68, 82
2,131853, Control_c, 0, 64, 49
2,131937, Note_on_c, 0, 68, 0
2,131986, Note_on_c, 0, 54, 92
2,131988, Note_on_c, 0, 69, 94
2,131992, Note_on_c, 0, 63, 88
2,132007, Control_c, 0, 64, 49
2,132026, Control_c, 0, 64, 48
2,132045, Control_c, 0, 64, 47
2,132065, Control_c, 0, 64, 47
2,132103, Control_c, 0, 67, 27
2,132120, Note_on_c, 0, 68, 78
2,132122, Control_c, 0, 64, 46
2,132122, Control_c, 0, 67, 44
2,132142, Control_c, 0, 67, 66
2,132144, Note_on_c, 0, 69, 0
2,132160, Control_c, 0, 67, 109
2,132180, Control_c, 0, 67, 127
2,132246, Note_on_c, 0, 66, 73
2,132256, Control_c, 0, 64, 46
2,132268, Note_on_c, 0, 68, 0
2,132276, Control_c, 0, 64, 44
2,132294, Control_c, 0, 64, 44
2,132314, Control_c, 0, 64, 43
2,132371, Control_c, 0, 64, 44
2,132384, Note_on_c, 0, 69, 82
2,132396, Note_on_c, 0, 66, 0
2,132398, Note_on_c, 0, 61, 84
2,132410, Control_c, 0, 64, 44
2,132448, Control_c, 0, 64, 45
2,132452, Note_on_c, 0, 63, 0
2,132465, Note_on_c, 0, 61, 0
2,132468, Control_c, 0, 64, 46
2,132487, Control_c, 0, 64, 46
2,132511, Note_on_c, 0, 68, 85
2,132518, Note_on_c, 0, 60, 83
2,132550, Note_on_c, 0, 69, 0
2,132563, Control_c, 0, 64, 47
2,132569, Note_on_c, 0, 60, 0
2,132577, Note_on_c, 0, 54, 0
2,132583, Control_c, 0, 64, 47
2,132602, Control_c, 0, 64, 48
2,132658, Note_on_c, 0, 69, 82
2,132664, Note_on_c, 0, 68, 0
2,132736, Control_c, 0, 64, 47
2,132770, Note_on_c, 0, 69, 0
2,132773, Note_on_c, 0, 56, 88
2,132777, Note_on_c, 0, 68, 93
2,132787, Note_on_c, 0, 52, 76
2,132825, Note_on_c, 0, 56, 0
2,132832, Note_on_c, 0, 52, 0
2,132889, Control_c, 0, 64, 47
2,132900, Note_on_c, 0, 51, 80
2,132900, Note_on_c, 0, 68, 0
2,132908, Note_on_c, 0, 66, 85
2,132927, Control_c, 0, 64, 47
2,132965, Note_on_c, 0, 51, 0
2,132966, Control_c, 0, 64, 47
2,132994, Note_on_c, 0, 66, 0
2,133024, Control_c, 0, 64, 47
2,133029, Note_on_c, 0, 68, 88
2,133033, Note_on_c, 0, 52, 90
2,133038, Note_on_c, 0, 61, 90
2,133081, Control_c, 0, 64, 47
2,133095, Note_on_c, 0, 52, 0
2,133169, Note_on_c, 0, 66, 77
2,133197, Note_on_c, 0, 68, 0
2,133235, Control_c, 0, 64, 47
2,133287, Note_on_c, 0, 64, 80
2,133303, Note_on_c, 0, 49, 86
2,133303, Note_on_c, 0, 66, 0
2,133353, Note_on_c, 0, 49, 0
2,133419, Note_on_c, 0, 68, 81
2,133432, Note_on_c, 0, 64, 0
2,133465, Control_c, 0, 64, 48
2,133504, Control_c, 0, 64, 48
2,133569, Note_on_c, 0, 66, 82
2,133576, Note_on_c, 0, 52, 88
2,133586, Note_on_c, 0, 68, 0
2,133660, Control_c, 0, 64, 48
2,133675, Note_on_c, 0, 52, 0
2,133689, Note_on_c, 0, 68, 86
2,133691, Note_on_c, 0, 51, 79
2,133699, Note_on_c, 0, 66, 0
2,133768, Note_on_c, 0, 51, 0
2,133783, Note_on_c, 0, 52, 79
2,133816, Note_on_c, 0, 66, 79
2,133830, Note_on_c, 0, 68, 0
2,133844, Note_on_c, 0, 52, 0
2,133852, Control_c, 0, 64, 48
2,133870, Note_on_c, 0, 51, 83
2,133872, Control_c, 0, 64, 49
2,133941, Note_on_c, 0, 51, 0
2,133945, Note_on_c, 0, 64, 79
2,133947, Note_on_c, 0, 66, 0
2,133954, Note_on_c, 0, 63, 29
2,133955, Note_on_c, 0, 52, 81
2,133958, Note_on_c, 0, 61, 0
2,134015, Note_on_c, 0, 63, 0
2,134023, Note_on_c, 0, 64, 0
2,134033, Note_on_c, 0, 52, 0
2,134054, Note_on_c, 0, 51, 82
2,134063, Control_c, 0, 64, 48
2,134090, Note_on_c, 0, 66, 81
2,134106, Note_on_c, 0, 60, 82
2,134121, Control_c, 0, 64, 48
2,134131, Note_on_c, 0, 51, 0
2,134139, Note_on_c, 0, 52, 80
2,134140, Control_c, 0, 64, 47
2,134217, Note_on_c, 0, 52, 0
2,134227, Note_on_c, 0, 51, 74
2,134242, Note_on_c, 0, 64, 77
2,134259, Note_on_c, 0, 66, 0
2,134275, Control_c, 0, 64, 47
2,134293, Control_c, 0, 64, 46
2,134296, Note_on_c, 0, 51, 0
2,134304, Note_on_c, 0, 52, 71
2,134313, Control_c, 0, 64, 46
2,134364, Note_on_c, 0, 52, 0
2,134366, Note_on_c, 0, 51, 61
2,134366, Note_on_c, 0, 63, 79
2,134372, Note_on_c, 0, 64, 0
2,134382, Note_on_c, 0, 60, 0
2,134421, Note_on_c, 0, 51, 0
2,134433, Note_on_c, 0, 52, 68
2,134497, Note_on_c, 0, 66, 81
2,134507, Note_on_c, 0, 52, 0
2,134509, Note_on_c, 0, 63, 0
2,134519, Note_on_c, 0, 51, 65
2,134641, Note_on_c, 0, 49, 88
2,134644, Note_on_c, 0, 64, 86
2,134650, Note_on_c, 0, 61, 86
2,134651, Note_on_c, 0, 51, 0
2,134663, Note_on_c, 0, 66, 0
2,134678, Control_c, 0, 64, 46
2,134696, Note_on_c, 0, 61, 0
2,134705, Note_on_c, 0, 64, 0
2,134707, Note_on_c, 0, 49, 0
2,134775, Note_on_c, 0, 48, 80
2,134832, Note_on_c, 0, 48, 0
2,134869, Control_c, 0, 64, 47
2,134889, Control_c, 0, 67, 119
2,134899, Note_on_c, 0, 49, 90
2,134902, Note_on_c, 0, 56, 86
2,134907, Control_c, 0, 64, 47
2,134907, Control_c, 0, 67, 96
2,134927, Control_c, 0, 64, 48
2,134927, Control_c, 0, 67, 77
2,134946, Control_c, 0, 64, 48
2,134946, Control_c, 0, 67, 63
2,134965, Note_on_c, 0, 49, 0
2,134965, Note_on_c, 0, 56, 0
2,134966, Control_c, 0, 67, 53
2,134984, Control_c, 0, 64, 49
2,134984, Control_c, 0, 67, 43
2,135004, Control_c, 0, 67, 29
2,135023, Control_c, 0, 67, 16
2,135040, Note_on_c, 0, 51, 84
2,135042, Control_c, 0, 64, 49
2,135042, Control_c, 0, 67, 0
2,135061, Control_c, 0, 64, 50
2,135081, Control_c, 0, 64, 50
2,135101, Note_on_c, 0, 51, 0
2,135119, Control_c, 0, 64, 51
2,135171, Note_on_c, 0, 61, 89
2,135176, Note_on_c, 0, 52, 86
2,135234, Note_on_c, 0, 52, 0
2,135253, Control_c, 0, 64, 51
2,135308, Note_on_c, 0, 54, 82
2,135378, Note_on_c, 0, 54, 0
2,135398, Note_on_c, 0, 61, 0
2,135424, Note_on_c, 0, 55, 81
2,135443, Note_on_c, 0, 64, 89
2,135465, Note_on_c, 0, 55, 0
2,135510, Note_on_c, 0, 64, 0
2,135522, Control_c, 0, 64, 52
2,135552, Note_on_c, 0, 52, 79
2,135561, Control_c, 0, 64, 51
2,135580, Control_c, 0, 64, 51
2,135593, Note_on_c, 0, 52, 0
2,135599, Control_c, 0, 64, 50
2,135695, Control_c, 0, 64, 50
2,135705, Note_on_c, 0, 54, 80
2,135715, Control_c, 0, 64, 49
2,135717, Note_on_c, 0, 58, 91
2,135749, Note_on_c, 0, 54, 0
2,135829, Control_c, 0, 64, 49
2,135843, Note_on_c, 0, 55, 74
2,135895, Note_on_c, 0, 55, 0
2,135944, Control_c, 0, 64, 49
2,135964, Control_c, 0, 64, 50
2,135964, Note_on_c, 0, 54, 85
2,135971, Note_on_c, 0, 67, 71
2,136002, Control_c, 0, 64, 50
2,136026, Note_on_c, 0, 54, 0
2,136079, Control_c, 0, 64, 51
2,136098, Control_c, 0, 64, 51
2,136118, Control_c, 0, 64, 52
2,136120, Note_on_c, 0, 52, 78
2,136124, Note_on_c, 0, 58, 0
2,136175, Note_on_c, 0, 52, 0
2,136233, Control_c, 0, 64, 53
2,136238, Note_on_c, 0, 66, 81
2,136241, Note_on_c, 0, 59, 81
2,136242, Note_on_c, 0, 50, 83
2,136286, Note_on_c, 0, 67, 0
2,136290, Control_c, 0, 64, 52
2,136308, Note_on_c, 0, 50, 0
2,136380, Note_on_c, 0, 49, 81
2,136382, Note_on_c, 0, 66, 0
2,136426, Note_on_c, 0, 49, 0
2,136444, Control_c, 0, 64, 52
2,136463, Control_c, 0, 64, 51
2,136504, Note_on_c, 0, 64, 80
2,136509, Note_on_c, 0, 61, 75
2,136511, Note_on_c, 0, 47, 83
2,136518, Note_on_c, 0, 59, 0
2,136540, Control_c, 0, 64, 51
2,136540, Control_c, 0, 67, 37
2,136559, Control_c, 0, 64, 50
2,136559, Control_c, 0, 67, 92
2,136561, Note_on_c, 0, 47, 0
2,136578, Control_c, 0, 64, 46
2,136578, Control_c, 0, 67, 127
2,136598, Control_c, 0, 64, 24
2,136616, Control_c, 0, 64, 0
2,136646, Note_on_c, 0, 46, 73
2,136648, Note_on_c, 0, 61, 0
2,136691, Note_on_c, 0, 46, 0
2,136781, Note_on_c, 0, 47, 75
2,136794, Note_on_c, 0, 62, 79
2,136825, Note_on_c, 0, 64, 0
2,136826, Note_on_c, 0, 47, 0
2,136861, Note_on_c, 0, 62, 0
2,136915, Note_on_c, 0, 42, 66
2,136958, Note_on_c, 0, 42, 0
2,137050, Note_on_c, 0, 47, 67
2,137055, Note_on_c, 0, 54, 67
2,137092, Note_on_c, 0, 47, 0
2,137100, Note_on_c, 0, 54, 0
2,137326, Note_on_c, 0, 59, 72
2,137336, Note_on_c, 0, 50, 69
2,137376, Note_on_c, 0, 50, 0
2,137481, Note_on_c, 0, 52, 54
2,137519, Note_on_c, 0, 52, 0
2,137586, Note_on_c, 0, 62, 69
2,137605, Note_on_c, 0, 54, 67
2,137621, Note_on_c, 0, 59, 0
2,137639, Note_on_c, 0, 54, 0
2,137657, Note_on_c, 0, 62, 0
2,137748, Note_on_c, 0, 50, 65
2,137786, Note_on_c, 0, 50, 0
2,137877, Note_on_c, 0, 56, 77
2,137888, Note_on_c, 0, 52, 70
2,137928, Note_on_c, 0, 52, 0
2,138020, Note_on_c, 0, 54, 74
2,138066, Note_on_c, 0, 54, 0
2,138145, Note_on_c, 0, 66, 73
2,138150, Note_on_c, 0, 52, 72
2,138194, Note_on_c, 0, 52, 0
2,138273, Note_on_c, 0, 50, 73
2,138296, Note_on_c, 0, 56, 0
2,138321, Note_on_c, 0, 50, 0
2,138412, Note_on_c, 0, 49, 79
2,138419, Note_on_c, 0, 64, 73
2,138423, Note_on_c, 0, 57, 70
2,138455, Note_on_c, 0, 49, 0
2,138481, Note_on_c, 0, 66, 0
2,138518, Note_on_c, 0, 64, 0
2,138548, Note_on_c, 0, 47, 72
2,138591, Note_on_c, 0, 47, 0
2,138674, Note_on_c, 0, 45, 72
2,138686, Note_on_c, 0, 62, 77
2,138690, Note_on_c, 0, 59, 77
2,138707, Note_on_c, 0, 57, 0
2,138723, Note_on_c, 0, 45, 0
2,138812, Note_on_c, 0, 44, 70
2,138862, Note_on_c, 0, 44, 0
2,138951, Note_on_c, 0, 45, 75
2,138951, Note_on_c, 0, 61, 85
2,138964, Note_on_c, 0, 62, 0
2,139001, Note_on_c, 0, 59, 0
2,139007, Note_on_c, 0, 45, 0
2,139081, Note_on_c, 0, 40, 70
2,139122, Note_on_c, 0, 40, 0
2,139214, Note_on_c, 0, 45, 74
2,139226, Note_on_c, 0, 57, 80
2,139274, Note_on_c, 0, 45, 0
2,139286, Note_on_c, 0, 57, 0
2,139346, Note_on_c, 0, 47, 72
2,139360, Note_on_c, 0, 56, 84
2,139390, Note_on_c, 0, 47, 0
2,139445, Note_on_c, 0, 56, 0
2,139478, Control_c, 0, 64, 15
2,139480, Note_on_c, 0, 49, 79
2,139496, Control_c, 0, 64, 19
2,139496, Control_c, 0, 67, 123
2,139497, Note_on_c, 0, 57, 87
2,139516, Control_c, 0, 64, 21
2,139516, Control_c, 0, 67, 108
2,139523, Note_on_c, 0, 61, 0
2,139530, Note_on_c, 0, 49, 0
2,139535, Control_c, 0, 64, 22
2,139535, Control_c, 0, 67, 95
2,139555, Control_c, 0, 64, 26
2,139555, Control_c, 0, 67, 83
2,139573, Control_c, 0, 64, 29
2,139573, Control_c, 0, 67, 70
2,139593, Control_c, 0, 64, 34
2,139593, Control_c, 0, 67, 55
2,139613, Control_c, 0, 64, 38
2,139613, Control_c, 0, 67, 34
2,139617, Note_on_c, 0, 50, 79
2,139631, Control_c, 0, 64, 41
2,139631, Control_c, 0, 67, 13
2,139651, Control_c, 0, 64, 42
2,139651, Control_c, 0, 67, 0
2,139666, Note_on_c, 0, 50, 0
2,139690, Control_c, 0, 64, 43
2,139708, Control_c, 0, 64, 44
2,139728, Control_c, 0, 64, 46
2,139747, Control_c, 0, 64, 48
2,139755, Note_on_c, 0, 52, 78
2,139757, Note_on_c, 0, 61, 87
2,139766, Control_c, 0, 64, 48
2,139785, Control_c, 0, 64, 49
2,139803, Note_on_c, 0, 52, 0
2,139824, Control_c, 0, 64, 50
2,139830, Note_on_c, 0, 61, 0
2,139843, Control_c, 0, 64, 51
2,139862, Control_c, 0, 64, 51
2,139879, Note_on_c, 0, 49, 83
2,139882, Control_c, 0, 64, 52
2,139936, Note_on_c, 0, 49, 0
2,140014, Note_on_c, 0, 50, 86
2,140036, Note_on_c, 0, 66, 96
2,140074, Note_on_c, 0, 57, 0
2,140080, Note_on_c, 0, 50, 0
2,140093, Control_c, 0, 64, 52
2,140150, Control_c, 0, 64, 53
2,140161, Note_on_c, 0, 52, 81
2,140219, Note_on_c, 0, 52, 0
2,140290, Note_on_c, 0, 50, 84
2,140306, Note_on_c, 0, 59, 82
2,140359, Note_on_c, 0, 50, 0
2,140378, Note_on_c, 0, 59, 0
2,140400, Control_c, 0, 64, 53
2,140414, Note_on_c, 0, 49, 84
2,140430, Note_on_c, 0, 61, 83
2,140462, Note_on_c, 0, 49, 0
2,140496, Control_c, 0, 64, 54
2,140527, Note_on_c, 0, 66, 0
2,140557, Note_on_c, 0, 61, 0
2,140563, Note_on_c, 0, 47, 82
2,140571, Note_on_c, 0, 62, 83
2,140621, Note_on_c, 0, 47, 0
2,140689, Note_on_c, 0, 45, 83
2,140758, Note_on_c, 0, 45, 0
2,140806, Note_on_c, 0, 62, 0
2,140814, Note_on_c, 0, 44, 84
2,140831, Note_on_c, 0, 65, 72
2,140876, Control_c, 0, 64, 54
2,140886, Note_on_c, 0, 44, 0
2,140939, Note_on_c, 0, 42, 86
2,140952, Note_on_c, 0, 66, 82
2,140973, Control_c, 0, 64, 55
2,140991, Note_on_c, 0, 42, 0
2,140991, Note_on_c, 0, 65, 0
2,141049, Control_c, 0, 64, 55
2,141080, Note_on_c, 0, 68, 92
2,141083, Note_on_c, 0, 41, 91
2,141087, Control_c, 0, 64, 56
2,141106, Note_on_c, 0, 66, 0
2,141160, Note_on_c, 0, 41, 0
2,141182, Note_on_c, 0, 68, 0
2,141215, Note_on_c, 0, 61, 86
2,141280, Note_on_c, 0, 61, 0
2,141335, Note_on_c, 0, 37, 88
2,141351, Note_on_c, 0, 63, 80
2,141351, Note_on_c, 0, 66, 75
2,141420, Note_on_c, 0, 66, 0
2,141421, Note_on_c, 0, 63, 0
2,141435, Note_on_c, 0, 37, 0
2,141467, Note_on_c, 0, 68, 85
2,141475, Note_on_c, 0, 65, 80
2,141529, Note_on_c, 0, 65, 0
2,141536, Note_on_c, 0, 68, 0
2,141604, Note_on_c, 0, 42, 94
2,141605, Note_on_c, 0, 69, 88
2,141617, Note_on_c, 0, 66, 79
2,141623, Control_c, 0, 64, 55
2,141662, Control_c, 0, 64, 55
2,141687, Note_on_c, 0, 66, 0
2,141693, Note_on_c, 0, 69, 0
2,141744, Note_on_c, 0, 68, 89
2,141757, Control_c, 0, 64, 54
2,141796, Control_c, 0, 64, 53
2,141816, Control_c, 0, 64, 53
2,141871, Note_on_c, 0, 69, 85
2,141888, Note_on_c, 0, 68, 0
2,141943, Note_on_c, 0, 69, 0
2,141988, Control_c, 0, 64, 52
2,142006, Note_on_c, 0, 66, 87
2,142026, Control_c, 0, 64, 52
2,142083, Note_on_c, 0, 66, 0
2,142159, Note_on_c, 0, 71, 91
2,142163, Control_c, 0, 64, 51
2,142233, Note_on_c, 0, 71, 0
2,142286, Note_on_c, 0, 73, 87
2,142356, Control_c, 0, 64, 52
2,142361, Note_on_c, 0, 73, 0
2,142425, Note_on_c, 0, 71, 89
2,142472, Control_c, 0, 64, 52
2,142491, Control_c, 0, 64, 53
2,142492, Note_on_c, 0, 71, 0
2,142553, Note_on_c, 0, 69, 91
2,142568, Control_c, 0, 64, 53
2,142623, Note_on_c, 0, 69, 0
2,142629, Note_on_c, 0, 42, 0
2,142664, Control_c, 0, 64, 54
2,142679, Note_on_c, 0, 41, 83
2,142683, Note_on_c, 0, 71, 92
2,142815, Note_on_c, 0, 69, 89
2,142837, Control_c, 0, 64, 53
2,142840, Note_on_c, 0, 71, 0
2,142875, Control_c, 0, 64, 53
2,142918, Note_on_c, 0, 69, 0
2,142951, Note_on_c, 0, 73, 89
2,142952, Control_c, 0, 64, 52
2,142959, Note_on_c, 0, 68, 89
2,142990, Control_c, 0, 64, 51
2,143036, Note_on_c, 0, 68, 0
2,143048, Control_c, 0, 64, 51
2,143067, Control_c, 0, 64, 49
2,143075, Note_on_c, 0, 73, 0
2,143080, Note_on_c, 0, 69, 87
2,143086, Control_c, 0, 64, 48
2,143106, Control_c, 0, 64, 47
2,143124, Control_c, 0, 64, 47
2,143144, Control_c, 0, 64, 46
2,143149, Note_on_c, 0, 69, 0
2,143163, Control_c, 0, 64, 45
2,143183, Control_c, 0, 64, 44
2,143201, Control_c, 0, 64, 44
2,143217, Note_on_c, 0, 42, 83
2,143217, Note_on_c, 0, 69, 96
2,143220, Control_c, 0, 64, 43
2,143229, Note_on_c, 0, 66, 87
2,143257, Note_on_c, 0, 41, 0
2,143258, Control_c, 0, 64, 41
2,143266, Note_on_c, 0, 66, 0
2,143278, Control_c, 0, 64, 39
2,143280, Note_on_c, 0, 69, 0
2,143297, Control_c, 0, 64, 38
2,143317, Control_c, 0, 64, 38
2,143323, Note_on_c, 0, 42, 0
2,143335, Control_c, 0, 64, 37
2,143354, Note_on_c, 0, 54, 83
2,143404, Note_on_c, 0, 54, 0
2,143483, Note_on_c, 0, 56, 82
2,143500, Note_on_c, 0, 66, 91
2,143552, Note_on_c, 0, 56, 0
2,143553, Note_on_c, 0, 66, 0
2,143610, Note_on_c, 0, 57, 81
2,143661, Control_c, 0, 64, 37
2,143670, Note_on_c, 0, 57, 0
2,143680, Control_c, 0, 64, 36
2,143699, Control_c, 0, 64, 36
2,143756, Note_on_c, 0, 59, 83
2,143760, Note_on_c, 0, 74, 96
2,143776, Control_c, 0, 64, 36
2,143796, Control_c, 0, 64, 37
2,143817, Note_on_c, 0, 59, 0
2,143853, Control_c, 0, 64, 38
2,143873, Control_c, 0, 64, 39
2,143891, Control_c, 0, 64, 39
2,143893, Note_on_c, 0, 61, 79
2,143943, Note_on_c, 0, 61, 0
2,143949, Control_c, 0, 64, 40
2,143968, Control_c, 0, 64, 41
2,143988, Control_c, 0, 64, 42
2,144007, Control_c, 0, 64, 42
2,144017, Note_on_c, 0, 59, 83
2,144026, Control_c, 0, 64, 43
2,144030, Note_on_c, 0, 66, 79
2,144087, Note_on_c, 0, 59, 0
2,144107, Note_on_c, 0, 66, 0
2,144122, Control_c, 0, 64, 43
2,144141, Control_c, 0, 64, 44
2,144153, Note_on_c, 0, 57, 75
2,144179, Control_c, 0, 64, 44
2,144199, Control_c, 0, 64, 46
2,144199, Note_on_c, 0, 57, 0
2,144218, Control_c, 0, 64, 47
2,144237, Control_c, 0, 64, 48
2,144286, Note_on_c, 0, 56, 82
2,144286, Note_on_c, 0, 64, 86
2,144315, Note_on_c, 0, 74, 0
2,144353, Control_c, 0, 64, 48
2,144394, Note_on_c, 0, 64, 0
2,144423, Note_on_c, 0, 66, 80
2,144467, Control_c, 0, 64, 49
2,144486, Control_c, 0, 64, 49
2,144497, Note_on_c, 0, 66, 0
2,144505, Control_c, 0, 64, 50
2,144522, Note_on_c, 0, 56, 0
2,144524, Control_c, 0, 64, 50
2,144552, Note_on_c, 0, 64, 78
2,144560, Note_on_c, 0, 73, 93
2,144610, Note_on_c, 0, 64, 0
2,144639, Control_c, 0, 64, 51
2,144640, Note_on_c, 0, 73, 0
2,144658, Control_c, 0, 64, 51
2,144676, Note_on_c, 0, 62, 85
2,144685, Note_on_c, 0, 71, 87
2,144716, Control_c, 0, 64, 51
2,144739, Note_on_c, 0, 62, 0
2,144755, Control_c, 0, 64, 50
2,144761, Note_on_c, 0, 71, 0
2,144812, Note_on_c, 0, 64, 82
2,144827, Note_on_c, 0, 73, 96
2,144877, Note_on_c, 0, 64, 0
2,144946, Note_on_c, 0, 62, 84
2,144966, Control_c, 0, 64, 50
2,144985, Control_c, 0, 64, 49
2,145076, Note_on_c, 0, 62, 0
2,145086, Note_on_c, 0, 61, 77
2,145089, Note_on_c, 0, 58, 74
2,145138, Control_c, 0, 64, 50
2,145159, Note_on_c, 0, 61, 0
2,145215, Control_c, 0, 64, 50
2,145216, Note_on_c, 0, 58, 0
2,145219, Note_on_c, 0, 64, 86
2,145253, Control_c, 0, 64, 51
2,145273, Control_c, 0, 64, 51
2,145276, Note_on_c, 0, 64, 0
2,145312, Control_c, 0, 64, 51
2,145358, Note_on_c, 0, 59, 86
2,145364, Note_on_c, 0, 62, 83
2,145369, Control_c, 0, 64, 51
2,145389, Control_c, 0, 64, 51
2,145430, Note_on_c, 0, 62, 0
2,145431, Note_on_c, 0, 59, 0
2,145440, Note_on_c, 0, 73, 0
2,145490, Note_on_c, 0, 64, 85
2,145504, Control_c, 0, 64, 51
2,145546, Note_on_c, 0, 64, 0
2,145614, Note_on_c, 0, 78, 89
2,145618, Control_c, 0, 64, 52
2,145619, Note_on_c, 0, 57, 74
2,145619, Note_on_c, 0, 62, 80
2,145676, Control_c, 0, 64, 52
2,145695, Control_c, 0, 64, 53
2,145703, Note_on_c, 0, 78, 0
2,145715, Control_c, 0, 64, 54
2,145733, Control_c, 0, 64, 54
2,145733, Note_on_c, 0, 57, 0
2,145746, Note_on_c, 0, 61, 78
2,145749, Note_on_c, 0, 62, 0
2,145855, Note_on_c, 0, 61, 0
2,145869, Control_c, 0, 64, 54
2,145882, Note_on_c, 0, 62, 84
2,145887, Note_on_c, 0, 56, 78
2,145895, Note_on_c, 0, 71, 95
2,146019, Note_on_c, 0, 62, 0
2,146021, Control_c, 0, 64, 53
2,146027, Note_on_c, 0, 61, 77
2,146069, Note_on_c, 0, 56, 0
2,146118, Control_c, 0, 64, 53
2,146118, Note_on_c, 0, 61, 0
2,146137, Control_c, 0, 64, 52
2,146154, Note_on_c, 0, 59, 84
2,146213, Control_c, 0, 64, 51
2,146233, Control_c, 0, 64, 50
2,146272, Control_c, 0, 64, 50
2,146273, Note_on_c, 0, 59, 0
2,146278, Note_on_c, 0, 54, 84
2,146286, Note_on_c, 0, 62, 81
2,146310, Control_c, 0, 64, 50
2,146318, Note_on_c, 0, 71, 0
2,146352, Note_on_c, 0, 62, 0
2,146407, Note_on_c, 0, 53, 83
2,146411, Note_on_c, 0, 61, 87
2,146418, Note_on_c, 0, 54, 0
2,146425, Control_c, 0, 64, 51
2,146444, Control_c, 0, 64, 52
2,146464, Control_c, 0, 64, 52
2,146473, Note_on_c, 0, 53, 0
2,146498, Note_on_c, 0, 61, 0
2,146548, Note_on_c, 0, 62, 86
2,146578, Control_c, 0, 64, 53
2,146598, Control_c, 0, 64, 53
2,146605, Note_on_c, 0, 62, 0
2,146678, Note_on_c, 0, 49, 86
2,146684, Note_on_c, 0, 69, 86
2,146691, Note_on_c, 0, 61, 84
2,146756, Note_on_c, 0, 49, 0
2,146758, Note_on_c, 0, 61, 0
2,146768, Note_on_c, 0, 69, 0
2,146818, Note_on_c, 0, 59, 92
2,146818, Note_on_c, 0, 68, 85
2,146872, Note_on_c, 0, 59, 0
2,146905, Control_c, 0, 64, 54
2,146905, Note_on_c, 0, 68, 0
2,146947, Note_on_c, 0, 54, 96
2,146959, Note_on_c, 0, 69, 90
2,146960, Note_on_c, 0, 61, 86
2,147031, Note_on_c, 0, 61, 0
2,147039, Control_c, 0, 64, 54
2,147058, Control_c, 0, 64, 55
2,147069, Note_on_c, 0, 69, 0
2,147078, Control_c, 0, 64, 54
2,147086, Note_on_c, 0, 59, 92
2,147144, Note_on_c, 0, 59, 0
2,147227, Note_on_c, 0, 66, 87
2,147228, Note_on_c, 0, 57, 84
2,147232, Control_c, 0, 64, 54
2,147271, Control_c, 0, 64, 53
2,147287, Note_on_c, 0, 57, 0
2,147351, Control_c, 0, 64, 53
2,147370, Note_on_c, 0, 61, 86
2,147375, Note_on_c, 0, 66, 0
2,147455, Note_on_c, 0, 61, 0
2,147522, Note_on_c, 0, 68, 96
2,147526, Note_on_c, 0, 59, 96
2,147580, Control_c, 0, 64, 53
2,147580, Note_on_c, 0, 59, 0
2,147638, Control_c, 0, 64, 53
2,147677, Control_c, 0, 64, 53
2,147678, Note_on_c, 0, 61, 82
2,147814, Note_on_c, 0, 59, 89
2,147826, Note_on_c, 0, 61, 0
2,147882, Note_on_c, 0, 59, 0
2,147946, Control_c, 0, 64, 53
2,147946, Note_on_c, 0, 57, 88
2,148002, Note_on_c, 0, 57, 0
2,148080, Control_c, 0, 64, 52
2,148085, Note_on_c, 0, 53, 84
2,148090, Note_on_c, 0, 59, 90
2,148139, Note_on_c, 0, 54, 0
2,148156, Note_on_c, 0, 59, 0
2,148176, Control_c, 0, 64, 52
2,148195, Control_c, 0, 64, 51
2,148224, Note_on_c, 0, 57, 77
2,148269, Control_c, 0, 64, 51
2,148297, Note_on_c, 0, 57, 0
2,148327, Control_c, 0, 64, 50
2,148370, Note_on_c, 0, 56, 80
2,148452, Note_on_c, 0, 56, 0
2,148499, Control_c, 0, 64, 51
2,148513, Note_on_c, 0, 59, 83
2,148557, Control_c, 0, 64, 51
2,148588, Note_on_c, 0, 59, 0
2,148596, Control_c, 0, 64, 52
2,148625, Note_on_c, 0, 53, 0
2,148653, Control_c, 0, 64, 52
2,148654, Note_on_c, 0, 57, 84
2,148659, Note_on_c, 0, 54, 77
2,148673, Control_c, 0, 64, 54
2,148691, Control_c, 0, 64, 54
2,148711, Control_c, 0, 64, 55
2,148773, Note_on_c, 0, 57, 0
2,148814, Note_on_c, 0, 66, 81
2,148825, Note_on_c, 0, 54, 0
2,148864, Note_on_c, 0, 68, 0
2,148902, Control_c, 0, 64, 54
2,148941, Control_c, 0, 64, 54
2,148964, Note_on_c, 0, 59, 88
2,148967, Note_on_c, 0, 50, 88
2,148999, Control_c, 0, 64, 53
2,149002, Note_on_c, 0, 66, 0
2,149018, Control_c, 0, 64, 53
2,149094, Control_c, 0, 64, 52
2,149098, Note_on_c, 0, 50, 0
2,149102, Note_on_c, 0, 59, 0
2,149104, Note_on_c, 0, 65, 85
2,149133, Control_c, 0, 64, 52
2,149182, Control_c, 0, 64, 51
2,149228, Control_c, 0, 64, 50
2,149246, Control_c, 0, 64, 49
2,149251, Note_on_c, 0, 65, 0
2,149253, Note_on_c, 0, 61, 92
2,149258, Note_on_c, 0, 45, 88
2,149266, Control_c, 0, 64, 49
2,149304, Control_c, 0, 64, 48
2,149323, Control_c, 0, 64, 47
2,149342, Control_c, 0, 64, 44
2,149362, Control_c, 0, 64, 43
2,149364, Note_on_c, 0, 45, 0
2,149394, Note_on_c, 0, 66, 85
2,149400, Control_c, 0, 64, 44
2,149424, Note_on_c, 0, 61, 0
2,149439, Control_c, 0, 64, 43
2,149457, Control_c, 0, 64, 41
2,149477, Control_c, 0, 64, 40
2,149544, Note_on_c, 0, 62, 86
2,149551, Note_on_c, 0, 47, 95
2,149554, Control_c, 0, 64, 39
2,149572, Note_on_c, 0, 66, 0
2,149573, Control_c, 0, 64, 38
2,149592, Control_c, 0, 64, 37
2,149646, Note_on_c, 0, 47, 0
2,149706, Note_on_c, 0, 68, 91
2,149726, Control_c, 0, 64, 37
2,149739, Note_on_c, 0, 62, 0
2,149746, Control_c, 0, 64, 38
2,149765, Control_c, 0, 64, 40
2,149784, Control_c, 0, 64, 41
2,149803, Control_c, 0, 64, 42
2,149822, Control_c, 0, 64, 43
2,149860, Control_c, 0, 64, 43
2,149912, Note_on_c, 0, 49, 91
2,149922, Note_on_c, 0, 61, 87
2,149930, Note_on_c, 0, 57, 84
2,149957, Control_c, 0, 64, 42
2,149976, Control_c, 0, 64, 41
2,149976, Note_on_c, 0, 68, 0
2,149995, Control_c, 0, 64, 40
2,150014, Control_c, 0, 64, 40
2,150034, Control_c, 0, 64, 38
2,150053, Control_c, 0, 64, 35
2,150072, Control_c, 0, 64, 29
2,150091, Control_c, 0, 64, 20
2,150111, Control_c, 0, 64, 9
2,150129, Control_c, 0, 64, 0
2,150341, Note_on_c, 0, 66, 94
2,150429, Note_on_c, 0, 57, 0
2,150778, Note_on_c, 0, 37, 82
2,150779, Note_on_c, 0, 56, 94
2,150847, Note_on_c, 0, 49, 0
2,150972, Note_on_c, 0, 61, 0
2,151134, Note_on_c, 0, 66, 0
2,151336, Note_on_c, 0, 65, 90
2,151569, Control_c, 0, 64, 24
2,151589, Control_c, 0, 64, 57
2,151608, Control_c, 0, 64, 65
2,151628, Control_c, 0, 64, 70
2,151646, Control_c, 0, 64, 80
2,151666, Control_c, 0, 64, 93
2,151685, Control_c, 0, 64, 127
2,151716, Note_on_c, 0, 56, 0
2,152275, Note_on_c, 0, 66, 93
2,152280, Note_on_c, 0, 54, 93
2,152281, Note_on_c, 0, 42, 87
2,152319, Control_c, 0, 64, 83
2,152322, Note_on_c, 0, 37, 0
2,152337, Control_c, 0, 64, 61
2,152357, Control_c, 0, 64, 0
2,152382, Note_on_c, 0, 65, 0
2,155456, Note_on_c, 0, 66, 0
2,155465, Note_on_c, 0, 54, 0
2,155498, Note_on_c, 0, 42, 0
2,155499, End_track
0, 0, End_of_file
