0, 0, Header, 1, 2, 480
1, 0, Start_track
1, 0, Tempo, 500000
1, 0, Time_signature, 4, 2, 24, 8
1, 1, End_track
2, 0, Start_track
2, 0, Program_c, 0, 0
2, 0, Control_c, 0, 64, 127
2, 0, Control_c, 0, 67, 9
2, 429, Control_c, 0, 67, 10
2, 534, Control_c, 0, 67, 10
2, 592, Control_c, 0, 67, 11
2, 611, Control_c, 0, 67, 11
2, 628, Control_c, 0, 67, 12
2, 935, Note_on_c, 0, 54, 26
2, 966, Note_on_c, 0, 78, 61
2, 1269, Control_c, 0, 67, 12
2, 1308, Control_c, 0, 67, 13
2, 1346, Control_c, 0, 67, 13
2, 1385, Control_c, 0, 67, 14
2, 1423, Control_c, 0, 67, 14
2, 1443, Control_c, 0, 67, 15
2, 1462, Control_c, 0, 67, 16
2, 1481, Control_c, 0, 67, 17
2, 1500, Control_c, 0, 67, 17
2, 1520, Control_c, 0, 67, 18
2, 1538, Control_c, 0, 67, 20
2, 1557, Control_c, 0, 67, 22
2, 1577, Control_c, 0, 67, 26
2, 1596, Control_c, 0, 67, 29
2, 1615, Control_c, 0, 67, 30
2, 1634, Control_c, 0, 67, 30
2, 1876, Note_on_c, 0, 57, 22
2, 1884, Note_on_c, 0, 73, 56
2, 2018, Control_c, 0, 64, 119
2, 2037, Control_c, 0, 64, 110
2, 2057, Control_c, 0, 64, 105
2, 2076, Control_c, 0, 64, 102
2, 2095, Control_c, 0, 64, 101
2, 2114, Control_c, 0, 64, 100
2, 2134, Control_c, 0, 64, 99
2, 2152, Control_c, 0, 64, 98
2, 2173, Control_c, 0, 64, 97
2, 2192, Control_c, 0, 64, 96
2, 2212, Control_c, 0, 64, 96
2, 2230, Control_c, 0, 64, 95
2, 2250, Control_c, 0, 64, 93
2, 2269, Control_c, 0, 64, 91
2, 2288, Control_c, 0, 64, 89
2, 2307, Control_c, 0, 64, 87
2, 2326, Note_on_c, 0, 78, 0
2, 2327, Control_c, 0, 64, 84
2, 2346, Control_c, 0, 64, 82
2, 2365, Control_c, 0, 64, 80
2, 2384, Control_c, 0, 64, 78
2, 2404, Control_c, 0, 64, 77
2, 2422, Control_c, 0, 64, 76
2, 2442, Control_c, 0, 64, 75
2, 2461, Control_c, 0, 64, 74
2, 2481, Control_c, 0, 64, 73
2, 2499, Control_c, 0, 64, 72
2, 2518, Control_c, 0, 64, 72
2, 2538, Control_c, 0, 64, 71
2, 2557, Control_c, 0, 64, 70
2, 2572, Note_on_c, 0, 61, 32
2, 2576, Control_c, 0, 64, 69
2, 2595, Control_c, 0, 64, 66
2, 2615, Control_c, 0, 64, 64
2, 2633, Control_c, 0, 64, 60
2, 2653, Control_c, 0, 64, 58
2, 2672, Control_c, 0, 64, 56
2, 2692, Control_c, 0, 64, 55
2, 2710, Control_c, 0, 64, 54
2, 2730, Control_c, 0, 67, 30
2, 2749, Control_c, 0, 64, 54
2, 2768, Control_c, 0, 64, 56
2, 2787, Control_c, 0, 64, 58
2, 2787, Control_c, 0, 67, 29
2, 2807, Control_c, 0, 64, 60
2, 2826, Control_c, 0, 64, 62
2, 2845, Control_c, 0, 64, 63
2, 2855, Note_on_c, 0, 57, 0
2, 2864, Control_c, 0, 64, 64
2, 2884, Control_c, 0, 64, 64
2, 2902, Control_c, 0, 64, 65
2, 2922, Control_c, 0, 64, 66
2, 2922, Control_c, 0, 67, 29
2, 2941, Control_c, 0, 64, 67
2, 2961, Control_c, 0, 64, 68
2, 2979, Control_c, 0, 64, 69
2, 2979, Control_c, 0, 67, 28
2, 2998, Control_c, 0, 64, 71
2, 3018, Control_c, 0, 64, 71
2, 3037, Control_c, 0, 64, 72
2, 3037, Control_c, 0, 67, 28
2, 3056, Control_c, 0, 64, 72
2, 3113, Control_c, 0, 67, 27
2, 3172, Control_c, 0, 64, 72
2, 3248, Control_c, 0, 67, 27
2, 3254, Note_on_c, 0, 69, 51
2, 3267, Control_c, 0, 64, 71
2, 3268, Note_on_c, 0, 66, 20
2, 3358, Note_on_c, 0, 61, 0
2, 3361, Note_on_c, 0, 73, 0
2, 3382, Control_c, 0, 64, 71
2, 3498, Control_c, 0, 64, 70
2, 3536, Control_c, 0, 64, 70
2, 3536, Control_c, 0, 67, 26
2, 3566, Note_on_c, 0, 56, 45
2, 3578, Note_on_c, 0, 71, 60
2, 3613, Control_c, 0, 64, 69
2, 3652, Control_c, 0, 64, 69
2, 3670, Control_c, 0, 64, 68
2, 3709, Control_c, 0, 64, 68
2, 3733, Note_on_c, 0, 69, 0
2, 3747, Control_c, 0, 64, 67
2, 3767, Control_c, 0, 64, 67
2, 3786, Control_c, 0, 64, 66
2, 3803, Note_on_c, 0, 54, 0
2, 3805, Control_c, 0, 64, 66
2, 3824, Control_c, 0, 64, 65
2, 3844, Control_c, 0, 67, 26
2, 3862, Control_c, 0, 64, 65
2, 3901, Control_c, 0, 64, 64
2, 3936, Note_on_c, 0, 73, 64
2, 3939, Control_c, 0, 64, 64
2, 3943, Note_on_c, 0, 57, 38
2, 3978, Control_c, 0, 64, 63
2, 3997, Control_c, 0, 64, 63
2, 4029, Note_on_c, 0, 71, 0
2, 4043, Note_on_c, 0, 56, 0
2, 4094, Control_c, 0, 64, 62
2, 4169, Note_on_c, 0, 71, 71
2, 4171, Control_c, 0, 64, 62
2, 4209, Control_c, 0, 64, 61
2, 4209, Control_c, 0, 67, 26
2, 4248, Control_c, 0, 64, 61
2, 4283, Note_on_c, 0, 73, 0
2, 4343, Control_c, 0, 64, 60
2, 4344, Note_on_c, 0, 69, 71
2, 4379, Note_on_c, 0, 71, 0
2, 4402, Control_c, 0, 64, 60
2, 4478, Note_on_c, 0, 66, 0
2, 4523, Note_on_c, 0, 65, 48
2, 4524, Note_on_c, 0, 61, 45
2, 4531, Note_on_c, 0, 71, 66
2, 4597, Note_on_c, 0, 69, 0
2, 4631, Control_c, 0, 64, 59
2, 4667, Note_on_c, 0, 57, 0
2, 4670, Control_c, 0, 64, 59
2, 4689, Control_c, 0, 64, 58
2, 4708, Control_c, 0, 64, 58
2, 4728, Control_c, 0, 64, 57
2, 4737, Note_on_c, 0, 69, 70
2, 4747, Control_c, 0, 64, 56
2, 4766, Control_c, 0, 64, 55
2, 4785, Control_c, 0, 64, 53
2, 4805, Control_c, 0, 64, 51
2, 4805, Control_c, 0, 67, 26
2, 4823, Control_c, 0, 64, 47
2, 4823, Control_c, 0, 67, 25
2, 4843, Control_c, 0, 64, 39
2, 4862, Control_c, 0, 64, 30
2, 4882, Control_c, 0, 64, 21
2, 4882, Control_c, 0, 67, 25
2, 4888, Note_on_c, 0, 71, 0
2, 4900, Control_c, 0, 64, 11
2, 4900, Control_c, 0, 67, 24
2, 4920, Control_c, 0, 64, 0
2, 4920, Control_c, 0, 67, 24
2, 4924, Note_on_c, 0, 68, 66
2, 4925, Note_on_c, 0, 65, 0
2, 4939, Control_c, 0, 67, 23
2, 4957, Control_c, 0, 67, 22
2, 4957, Note_on_c, 0, 54, 48
2, 4977, Control_c, 0, 67, 22
2, 4983, Note_on_c, 0, 69, 0
2, 4996, Control_c, 0, 67, 21
2, 5016, Control_c, 0, 67, 20
2, 5031, Control_c, 0, 67, 20
2, 5053, Control_c, 0, 67, 19
2, 5072, Control_c, 0, 67, 19
2, 5291, Note_on_c, 0, 66, 72
2, 5305, Note_on_c, 0, 69, 68
2, 5389, Note_on_c, 0, 61, 0
2, 5408, Note_on_c, 0, 68, 0
2, 5513, Control_c, 0, 67, 19
2, 5691, Note_on_c, 0, 71, 58
2, 5788, Note_on_c, 0, 69, 0
2, 5841, Control_c, 0, 67, 20
2, 6047, Note_on_c, 0, 61, 60
2, 6061, Note_on_c, 0, 69, 62
2, 6214, Note_on_c, 0, 66, 0
2, 6287, Note_on_c, 0, 71, 0
2, 6372, Note_on_c, 0, 68, 62
2, 6474, Note_on_c, 0, 69, 0
2, 6548, Control_c, 0, 67, 20
2, 6710, Note_on_c, 0, 69, 60
2, 6755, Note_on_c, 0, 68, 0
2, 7014, Note_on_c, 0, 73, 62
2, 7076, Note_on_c, 0, 69, 0
2, 7327, Note_on_c, 0, 57, 42
2, 7339, Note_on_c, 0, 78, 68
2, 7449, Note_on_c, 0, 73, 0
2, 7536, Note_on_c, 0, 61, 0
2, 7651, Note_on_c, 0, 80, 76
2, 7657, Note_on_c, 0, 59, 51
2, 7764, Note_on_c, 0, 57, 0
2, 7798, Note_on_c, 0, 78, 0
2, 8003, Note_on_c, 0, 61, 42
2, 8030, Note_on_c, 0, 81, 70
2, 8079, Note_on_c, 0, 59, 0
2, 8107, Note_on_c, 0, 80, 0
2, 8272, Note_on_c, 0, 80, 74
2, 8279, Note_on_c, 0, 59, 43
2, 8373, Note_on_c, 0, 81, 0
2, 8446, Note_on_c, 0, 78, 75
2, 8448, Note_on_c, 0, 57, 51
2, 8449, Control_c, 0, 67, 21
2, 8475, Note_on_c, 0, 59, 0
2, 8487, Control_c, 0, 67, 21
2, 8487, Note_on_c, 0, 61, 0
2, 8496, Note_on_c, 0, 80, 0
2, 8506, Control_c, 0, 67, 22
2, 8526, Control_c, 0, 67, 23
2, 8544, Control_c, 0, 67, 24
2, 8564, Control_c, 0, 67, 24
2, 8583, Control_c, 0, 67, 25
2, 8603, Control_c, 0, 67, 26
2, 8621, Control_c, 0, 67, 27
2, 8634, Note_on_c, 0, 59, 58
2, 8636, Note_on_c, 0, 80, 73
2, 8641, Control_c, 0, 67, 28
2, 8660, Control_c, 0, 67, 29
2, 8662, Note_on_c, 0, 57, 0
2, 8677, Note_on_c, 0, 78, 0
2, 8678, Control_c, 0, 67, 31
2, 8698, Control_c, 0, 67, 32
2, 8717, Control_c, 0, 67, 34
2, 8737, Control_c, 0, 67, 43
2, 8755, Control_c, 0, 67, 56
2, 8775, Control_c, 0, 67, 68
2, 8794, Control_c, 0, 67, 79
2, 8813, Control_c, 0, 67, 91
2, 8829, Note_on_c, 0, 78, 71
2, 8832, Control_c, 0, 67, 103
2, 8845, Note_on_c, 0, 57, 49
2, 8852, Control_c, 0, 67, 118
2, 8870, Control_c, 0, 67, 127
2, 8919, Note_on_c, 0, 80, 0
2, 8926, Note_on_c, 0, 59, 0
2, 9044, Note_on_c, 0, 77, 64
2, 9062, Note_on_c, 0, 56, 46
2, 9087, Note_on_c, 0, 78, 0
2, 9095, Note_on_c, 0, 57, 0
2, 9336, Note_on_c, 0, 57, 26
2, 9345, Note_on_c, 0, 78, 59
2, 9439, Note_on_c, 0, 77, 0
2, 9488, Note_on_c, 0, 56, 0
2, 9784, Note_on_c, 0, 73, 49
2, 9915, Note_on_c, 0, 78, 0
2, 10119, Note_on_c, 0, 56, 37
2, 10129, Note_on_c, 0, 59, 36
2, 10309, Note_on_c, 0, 57, 0
2, 10339, Note_on_c, 0, 54, 0
2, 10458, Note_on_c, 0, 77, 66
2, 10582, Note_on_c, 0, 73, 0
2, 10803, Note_on_c, 0, 57, 43
2, 10811, Note_on_c, 0, 78, 69
2, 10812, Control_c, 0, 67, 121
2, 10815, Note_on_c, 0, 61, 36
2, 10831, Control_c, 0, 67, 115
2, 10851, Control_c, 0, 67, 105
2, 10869, Control_c, 0, 67, 95
2, 10889, Control_c, 0, 67, 84
2, 10902, Note_on_c, 0, 59, 0
2, 10907, Note_on_c, 0, 77, 0
2, 10908, Control_c, 0, 67, 73
2, 10928, Control_c, 0, 67, 62
2, 10946, Control_c, 0, 67, 53
2, 10964, Note_on_c, 0, 56, 0
2, 10966, Control_c, 0, 67, 44
2, 10985, Control_c, 0, 67, 31
2, 11004, Control_c, 0, 67, 19
2, 11023, Control_c, 0, 64, 13
2, 11023, Control_c, 0, 67, 0
2, 11043, Control_c, 0, 64, 34
2, 11062, Control_c, 0, 64, 46
2, 11081, Control_c, 0, 64, 52
2, 11100, Control_c, 0, 64, 57
2, 11119, Control_c, 0, 64, 60
2, 11138, Control_c, 0, 64, 62
2, 11152, Note_on_c, 0, 73, 60
2, 11157, Control_c, 0, 64, 64
2, 11177, Control_c, 0, 64, 65
2, 11196, Control_c, 0, 64, 66
2, 11215, Control_c, 0, 64, 67
2, 11234, Control_c, 0, 64, 68
2, 11245, Note_on_c, 0, 78, 0
2, 11254, Control_c, 0, 64, 69
2, 11272, Control_c, 0, 64, 70
2, 11292, Control_c, 0, 64, 71
2, 11446, Control_c, 0, 64, 69
2, 11453, Note_on_c, 0, 68, 51
2, 11462, Note_on_c, 0, 59, 57
2, 11465, Control_c, 0, 64, 67
2, 11484, Control_c, 0, 64, 63
2, 11503, Control_c, 0, 64, 57
2, 11523, Control_c, 0, 64, 52
2, 11542, Control_c, 0, 64, 47
2, 11561, Control_c, 0, 64, 45
2, 11568, Note_on_c, 0, 57, 0
2, 11580, Control_c, 0, 64, 46
2, 11597, Note_on_c, 0, 61, 0
2, 11599, Control_c, 0, 64, 50
2, 11618, Control_c, 0, 64, 56
2, 11637, Control_c, 0, 64, 60
2, 11657, Control_c, 0, 64, 63
2, 11676, Control_c, 0, 64, 64
2, 11695, Control_c, 0, 64, 66
2, 11714, Control_c, 0, 64, 69
2, 11734, Control_c, 0, 64, 71
2, 11752, Control_c, 0, 64, 75
2, 11771, Control_c, 0, 64, 80
2, 11783, Note_on_c, 0, 77, 76
2, 11790, Control_c, 0, 64, 85
2, 11810, Control_c, 0, 64, 92
2, 11828, Control_c, 0, 64, 101
2, 11848, Control_c, 0, 64, 123
2, 11867, Control_c, 0, 64, 127
2, 11891, Note_on_c, 0, 73, 0
2, 11912, Note_on_c, 0, 68, 0
2, 12130, Note_on_c, 0, 57, 50
2, 12136, Control_c, 0, 64, 101
2, 12136, Note_on_c, 0, 78, 79
2, 12139, Note_on_c, 0, 66, 47
2, 12155, Control_c, 0, 64, 79
2, 12174, Control_c, 0, 64, 66
2, 12193, Control_c, 0, 64, 57
2, 12213, Control_c, 0, 64, 44
2, 12219, Note_on_c, 0, 77, 0
2, 12223, Note_on_c, 0, 59, 0
2, 12232, Control_c, 0, 64, 41
2, 12251, Control_c, 0, 64, 44
2, 12270, Control_c, 0, 64, 51
2, 12290, Control_c, 0, 64, 57
2, 12308, Control_c, 0, 64, 61
2, 12328, Control_c, 0, 64, 64
2, 12347, Control_c, 0, 64, 66
2, 12367, Control_c, 0, 64, 68
2, 12385, Control_c, 0, 64, 71
2, 12405, Control_c, 0, 64, 78
2, 12424, Control_c, 0, 64, 87
2, 12443, Control_c, 0, 64, 98
2, 12462, Control_c, 0, 64, 121
2, 12466, Note_on_c, 0, 73, 78
2, 12482, Control_c, 0, 64, 127
2, 12519, Note_on_c, 0, 78, 0
2, 12576, Note_on_c, 0, 66, 0
2, 12791, Note_on_c, 0, 78, 82
2, 12795, Note_on_c, 0, 56, 52
2, 12804, Note_on_c, 0, 65, 44
2, 12807, Control_c, 0, 64, 90
2, 12826, Control_c, 0, 64, 72
2, 12846, Control_c, 0, 64, 63
2, 12857, Note_on_c, 0, 73, 0
2, 12860, Note_on_c, 0, 57, 0
2, 12864, Control_c, 0, 64, 53
2, 12884, Control_c, 0, 64, 45
2, 12903, Control_c, 0, 64, 44
2, 12923, Control_c, 0, 64, 46
2, 12941, Control_c, 0, 64, 48
2, 12960, Control_c, 0, 64, 53
2, 12980, Control_c, 0, 64, 57
2, 12998, Control_c, 0, 64, 61
2, 13018, Control_c, 0, 64, 63
2, 13037, Control_c, 0, 64, 64
2, 13057, Control_c, 0, 64, 66
2, 13075, Control_c, 0, 64, 67
2, 13095, Control_c, 0, 64, 71
2, 13114, Control_c, 0, 64, 76
2, 13128, Note_on_c, 0, 80, 86
2, 13133, Control_c, 0, 64, 84
2, 13152, Control_c, 0, 64, 95
2, 13172, Control_c, 0, 64, 112
2, 13173, Note_on_c, 0, 65, 0
2, 13191, Control_c, 0, 64, 127
2, 13238, Note_on_c, 0, 78, 0
2, 13455, Note_on_c, 0, 81, 80
2, 13473, Note_on_c, 0, 54, 47
2, 13477, Note_on_c, 0, 66, 40
2, 13498, Control_c, 0, 64, 92
2, 13510, Note_on_c, 0, 56, 0
2, 13517, Control_c, 0, 64, 72
2, 13523, Note_on_c, 0, 80, 0
2, 13537, Control_c, 0, 64, 61
2, 13555, Control_c, 0, 64, 39
2, 13575, Control_c, 0, 64, 0
2, 13652, Control_c, 0, 64, 18
2, 13672, Control_c, 0, 64, 38
2, 13691, Control_c, 0, 64, 53
2, 13710, Control_c, 0, 64, 60
2, 13730, Control_c, 0, 64, 63
2, 13748, Control_c, 0, 64, 65
2, 13768, Control_c, 0, 64, 68
2, 13787, Control_c, 0, 64, 73
2, 13792, Note_on_c, 0, 66, 0
2, 13807, Control_c, 0, 64, 82
2, 13819, Note_on_c, 0, 77, 76
2, 13825, Control_c, 0, 64, 94
2, 13845, Control_c, 0, 64, 113
2, 13864, Control_c, 0, 64, 127
2, 13925, Note_on_c, 0, 81, 0
2, 14143, Note_on_c, 0, 78, 69
2, 14150, Note_on_c, 0, 52, 43
2, 14152, Control_c, 0, 64, 110
2, 14168, Note_on_c, 0, 61, 40
2, 14171, Control_c, 0, 64, 86
2, 14190, Control_c, 0, 64, 69
2, 14210, Control_c, 0, 64, 60
2, 14228, Control_c, 0, 64, 36
2, 14248, Control_c, 0, 64, 0
2, 14249, Note_on_c, 0, 77, 0
2, 14290, Note_on_c, 0, 54, 0
2, 14325, Control_c, 0, 64, 36
2, 14344, Control_c, 0, 64, 56
2, 14363, Control_c, 0, 64, 61
2, 14382, Control_c, 0, 64, 62
2, 14402, Control_c, 0, 64, 63
2, 14421, Control_c, 0, 64, 63
2, 14512, Note_on_c, 0, 81, 71
2, 14516, Control_c, 0, 64, 63
2, 14555, Control_c, 0, 64, 62
2, 14593, Control_c, 0, 64, 62
2, 14613, Control_c, 0, 64, 61
2, 14644, Note_on_c, 0, 78, 0
2, 14651, Control_c, 0, 64, 61
2, 14670, Control_c, 0, 64, 60
2, 14690, Control_c, 0, 64, 60
2, 14708, Control_c, 0, 64, 59
2, 14747, Control_c, 0, 64, 59
2, 14824, Control_c, 0, 64, 58
2, 14843, Control_c, 0, 64, 57
2, 14862, Control_c, 0, 64, 57
2, 14882, Control_c, 0, 64, 56
2, 14893, Note_on_c, 0, 54, 43
2, 14901, Control_c, 0, 64, 55
2, 14901, Note_on_c, 0, 50, 34
2, 14905, Note_on_c, 0, 71, 56
2, 14919, Control_c, 0, 64, 55
2, 14939, Control_c, 0, 64, 54
2, 14958, Control_c, 0, 64, 53
2, 14978, Control_c, 0, 64, 53
2, 15016, Control_c, 0, 64, 52
2, 15035, Control_c, 0, 64, 52
2, 15054, Control_c, 0, 64, 51
2, 15055, Note_on_c, 0, 52, 0
2, 15073, Control_c, 0, 64, 50
2, 15093, Control_c, 0, 64, 49
2, 15105, Note_on_c, 0, 61, 0
2, 15112, Control_c, 0, 64, 48
2, 15115, Note_on_c, 0, 81, 0
2, 15131, Control_c, 0, 64, 47
2, 15188, Control_c, 0, 64, 47
2, 15265, Control_c, 0, 64, 46
2, 15285, Control_c, 0, 64, 46
2, 15304, Control_c, 0, 64, 45
2, 15323, Control_c, 0, 64, 44
2, 15342, Control_c, 0, 64, 44
2, 15350, Note_on_c, 0, 81, 76
2, 15487, Note_on_c, 0, 71, 0
2, 15697, Note_on_c, 0, 53, 34
2, 15705, Note_on_c, 0, 80, 70
2, 15784, Note_on_c, 0, 54, 0
2, 15832, Note_on_c, 0, 81, 0
2, 16039, Note_on_c, 0, 81, 79
2, 16130, Control_c, 0, 64, 43
2, 16148, Control_c, 0, 64, 43
2, 16180, Note_on_c, 0, 80, 0
2, 16187, Control_c, 0, 64, 42
2, 16207, Control_c, 0, 64, 42
2, 16283, Control_c, 0, 64, 41
2, 16322, Control_c, 0, 64, 41
2, 16354, Note_on_c, 0, 54, 35
2, 16359, Control_c, 0, 64, 40
2, 16372, Note_on_c, 0, 83, 73
2, 16418, Control_c, 0, 64, 40
2, 16462, Note_on_c, 0, 81, 0
2, 16475, Control_c, 0, 64, 39
2, 16523, Note_on_c, 0, 53, 0
2, 16552, Control_c, 0, 64, 39
2, 16552, Control_c, 0, 67, 14
2, 16571, Control_c, 0, 67, 23
2, 16590, Control_c, 0, 67, 33
2, 16610, Control_c, 0, 67, 43
2, 16627, Note_on_c, 0, 81, 75
2, 16628, Control_c, 0, 67, 53
2, 16648, Control_c, 0, 67, 65
2, 16667, Control_c, 0, 67, 81
2, 16687, Control_c, 0, 67, 102
2, 16705, Control_c, 0, 67, 122
2, 16708, Note_on_c, 0, 83, 0
2, 16725, Control_c, 0, 67, 127
2, 16763, Control_c, 0, 64, 38
2, 16802, Control_c, 0, 64, 38
2, 16821, Control_c, 0, 64, 37
2, 16829, Note_on_c, 0, 80, 77
2, 16839, Control_c, 0, 64, 36
2, 16859, Control_c, 0, 64, 35
2, 16876, Note_on_c, 0, 81, 0
2, 16878, Control_c, 0, 64, 34
2, 16916, Control_c, 0, 64, 34
2, 16993, Control_c, 0, 64, 33
2, 17032, Note_on_c, 0, 81, 67
2, 17040, Note_on_c, 0, 54, 0
2, 17043, Note_on_c, 0, 59, 40
2, 17070, Control_c, 0, 64, 32
2, 17077, Note_on_c, 0, 80, 0
2, 17090, Control_c, 0, 64, 32
2, 17108, Control_c, 0, 64, 31
2, 17128, Control_c, 0, 64, 31
2, 17167, Control_c, 0, 64, 29
2, 17185, Control_c, 0, 64, 29
2, 17205, Control_c, 0, 64, 28
2, 17224, Control_c, 0, 64, 27
2, 17252, Note_on_c, 0, 80, 65
2, 17262, Control_c, 0, 64, 27
2, 17319, Control_c, 0, 64, 26
2, 17341, Note_on_c, 0, 81, 0
2, 17492, Note_on_c, 0, 78, 61
2, 17512, Control_c, 0, 64, 25
2, 17598, Note_on_c, 0, 80, 0
2, 17705, Control_c, 0, 64, 24
2, 17824, Note_on_c, 0, 49, 27
2, 17866, Note_on_c, 0, 77, 54
2, 17944, Note_on_c, 0, 78, 0
2, 17947, Note_on_c, 0, 50, 0
2, 18166, Control_c, 0, 64, 23
2, 18249, Note_on_c, 0, 59, 0
2, 18427, Note_on_c, 0, 72, 50
2, 18472, Control_c, 0, 64, 22
2, 18569, Control_c, 0, 64, 21
2, 18608, Control_c, 0, 64, 20
2, 18628, Note_on_c, 0, 77, 0
2, 18723, Control_c, 0, 64, 19
2, 18790, Note_on_c, 0, 56, 45
2, 19111, Note_on_c, 0, 73, 62
2, 19145, Control_c, 0, 64, 18
2, 19233, Note_on_c, 0, 72, 0
2, 19457, Note_on_c, 0, 78, 67
2, 19469, Note_on_c, 0, 57, 39
2, 19537, Note_on_c, 0, 73, 0
2, 19569, Note_on_c, 0, 56, 0
2, 19794, Note_on_c, 0, 72, 61
2, 20005, Note_on_c, 0, 78, 0
2, 20098, Note_on_c, 0, 54, 37
2, 20258, Note_on_c, 0, 57, 0
2, 20374, Control_c, 0, 64, 19
2, 20469, Control_c, 0, 64, 20
2, 20475, Note_on_c, 0, 73, 55
2, 20546, Control_c, 0, 64, 21
2, 20585, Control_c, 0, 64, 22
2, 20629, Note_on_c, 0, 72, 0
2, 20855, Note_on_c, 0, 53, 37
2, 20948, Note_on_c, 0, 80, 58
2, 21016, Note_on_c, 0, 73, 0
2, 21066, Note_on_c, 0, 54, 0
2, 21263, Note_on_c, 0, 71, 54
2, 21351, Note_on_c, 0, 80, 0
2, 21485, Note_on_c, 0, 73, 60
2, 21549, Note_on_c, 0, 71, 0
2, 21698, Note_on_c, 0, 74, 58
2, 21725, Note_on_c, 0, 73, 0
2, 21901, Note_on_c, 0, 73, 62
2, 22041, Note_on_c, 0, 74, 0
2, 22115, Note_on_c, 0, 71, 54
2, 22210, Note_on_c, 0, 73, 0
2, 22373, Note_on_c, 0, 69, 57
2, 22439, Note_on_c, 0, 71, 0
2, 22462, Note_on_c, 0, 53, 0
2, 22607, Note_on_c, 0, 53, 47
2, 22821, Note_on_c, 0, 54, 59
2, 22907, Note_on_c, 0, 53, 0
2, 23020, Note_on_c, 0, 56, 60
2, 23049, Note_on_c, 0, 54, 0
2, 23227, Note_on_c, 0, 54, 61
2, 23415, Note_on_c, 0, 56, 0
2, 23425, Note_on_c, 0, 53, 56
2, 23447, Note_on_c, 0, 54, 0
2, 23660, Note_on_c, 0, 54, 62
2, 23789, Control_c, 0, 64, 23
2, 23825, Note_on_c, 0, 53, 0
2, 23838, Note_on_c, 0, 68, 74
2, 23842, Note_on_c, 0, 56, 67
2, 23856, Note_on_c, 0, 49, 0
2, 23866, Control_c, 0, 64, 24
2, 23936, Note_on_c, 0, 54, 0
2, 24000, Control_c, 0, 64, 25
2, 24037, Note_on_c, 0, 66, 73
2, 24046, Note_on_c, 0, 57, 61
2, 24054, Note_on_c, 0, 56, 0
2, 24077, Control_c, 0, 64, 26
2, 24079, Note_on_c, 0, 69, 0
2, 24097, Control_c, 0, 67, 121
2, 24108, Note_on_c, 0, 68, 0
2, 24115, Control_c, 0, 64, 27
2, 24115, Control_c, 0, 67, 114
2, 24135, Control_c, 0, 67, 107
2, 24154, Control_c, 0, 64, 27
2, 24154, Control_c, 0, 67, 100
2, 24173, Control_c, 0, 67, 93
2, 24192, Control_c, 0, 67, 85
2, 24212, Control_c, 0, 67, 77
2, 24231, Control_c, 0, 67, 68
2, 24250, Control_c, 0, 67, 59
2, 24251, Note_on_c, 0, 65, 68
2, 24261, Note_on_c, 0, 59, 68
2, 24269, Control_c, 0, 64, 28
2, 24269, Control_c, 0, 67, 48
2, 24274, Note_on_c, 0, 66, 0
2, 24289, Control_c, 0, 67, 38
2, 24293, Note_on_c, 0, 57, 0
2, 24307, Control_c, 0, 67, 28
2, 24327, Control_c, 0, 67, 18
2, 24346, Control_c, 0, 67, 8
2, 24366, Control_c, 0, 67, 0
2, 24461, Control_c, 0, 64, 29
2, 24467, Note_on_c, 0, 57, 59
2, 24472, Note_on_c, 0, 59, 0
2, 24474, Note_on_c, 0, 66, 75
2, 24534, Note_on_c, 0, 65, 0
2, 24669, Note_on_c, 0, 56, 63
2, 24670, Note_on_c, 0, 68, 79
2, 24716, Note_on_c, 0, 57, 0
2, 24722, Note_on_c, 0, 66, 0
2, 24807, Control_c, 0, 64, 28
2, 24826, Control_c, 0, 64, 27
2, 24846, Control_c, 0, 64, 27
2, 24864, Control_c, 0, 64, 25
2, 24903, Control_c, 0, 64, 24
2, 24912, Note_on_c, 0, 66, 71
2, 24914, Note_on_c, 0, 57, 56
2, 24922, Control_c, 0, 64, 22
2, 24941, Control_c, 0, 64, 20
2, 24960, Control_c, 0, 64, 18
2, 24960, Note_on_c, 0, 56, 0
2, 24980, Control_c, 0, 64, 13
2, 24998, Control_c, 0, 64, 0
2, 25002, Note_on_c, 0, 68, 0
2, 25137, Note_on_c, 0, 65, 66
2, 25186, Note_on_c, 0, 66, 0
2, 25367, Note_on_c, 0, 66, 65
2, 25489, Note_on_c, 0, 65, 0
2, 25751, Note_on_c, 0, 75, 66
2, 25760, Note_on_c, 0, 48, 28
2, 25937, Note_on_c, 0, 66, 0
2, 26246, Control_c, 0, 67, 8
2, 26265, Control_c, 0, 67, 17
2, 26285, Control_c, 0, 67, 30
2, 26303, Control_c, 0, 67, 48
2, 26322, Control_c, 0, 67, 64
2, 26342, Control_c, 0, 67, 82
2, 26361, Control_c, 0, 64, 15
2, 26361, Control_c, 0, 67, 104
2, 26380, Control_c, 0, 64, 43
2, 26380, Control_c, 0, 67, 127
2, 26399, Control_c, 0, 64, 55
2, 26419, Control_c, 0, 64, 60
2, 26437, Control_c, 0, 64, 63
2, 26457, Control_c, 0, 64, 64
2, 26476, Control_c, 0, 64, 64
2, 26496, Control_c, 0, 64, 65
2, 26514, Control_c, 0, 64, 66
2, 26534, Control_c, 0, 64, 67
2, 26553, Control_c, 0, 64, 68
2, 26573, Control_c, 0, 64, 69
2, 26574, Note_on_c, 0, 66, 64
2, 26591, Control_c, 0, 64, 71
2, 26611, Control_c, 0, 64, 73
2, 26630, Control_c, 0, 64, 75
2, 26649, Control_c, 0, 64, 77
2, 26655, Note_on_c, 0, 66, 0
2, 26668, Control_c, 0, 64, 78
2, 26688, Control_c, 0, 64, 77
2, 26693, Note_on_c, 0, 75, 0
2, 26707, Control_c, 0, 64, 74
2, 26726, Control_c, 0, 64, 69
2, 26728, Note_on_c, 0, 49, 51
2, 26745, Control_c, 0, 64, 64
2, 26745, Note_on_c, 0, 48, 0
2, 26765, Control_c, 0, 64, 58
2, 26767, Note_on_c, 0, 66, 63
2, 26783, Control_c, 0, 64, 53
2, 26802, Control_c, 0, 64, 48
2, 26822, Control_c, 0, 64, 44
2, 26841, Control_c, 0, 64, 40
2, 26860, Control_c, 0, 64, 35
2, 26879, Control_c, 0, 64, 32
2, 26899, Control_c, 0, 64, 31
2, 26917, Control_c, 0, 64, 31
2, 26937, Control_c, 0, 64, 29
2, 26956, Control_c, 0, 64, 27
2, 26976, Control_c, 0, 64, 25
2, 26994, Control_c, 0, 64, 22
2, 27169, Control_c, 0, 64, 21
2, 27188, Note_on_c, 0, 56, 51
2, 27305, Note_on_c, 0, 57, 0
2, 27320, Note_on_c, 0, 56, 0
2, 27341, Note_on_c, 0, 54, 47
2, 27518, Note_on_c, 0, 56, 41
2, 27552, Control_c, 0, 64, 22
2, 27645, Note_on_c, 0, 54, 0
2, 27864, Note_on_c, 0, 65, 54
2, 27878, Control_c, 0, 64, 23
2, 27987, Note_on_c, 0, 66, 0
2, 28024, Note_on_c, 0, 63, 61
2, 28042, Note_on_c, 0, 65, 0
2, 28200, Note_on_c, 0, 65, 59
2, 28217, Note_on_c, 0, 63, 0
2, 28429, Note_on_c, 0, 61, 63
2, 28463, Note_on_c, 0, 65, 0
2, 28566, Note_on_c, 0, 49, 0
2, 28621, Note_on_c, 0, 63, 66
2, 28690, Note_on_c, 0, 61, 0
2, 28847, Note_on_c, 0, 49, 52
2, 28860, Note_on_c, 0, 65, 61
2, 28863, Note_on_c, 0, 63, 0
2, 28929, Note_on_c, 0, 56, 0
2, 29074, Note_on_c, 0, 66, 62
2, 29142, Note_on_c, 0, 65, 0
2, 29245, Control_c, 0, 64, 24
2, 29264, Note_on_c, 0, 68, 70
2, 29320, Note_on_c, 0, 66, 0
2, 29341, Control_c, 0, 64, 25
2, 29360, Control_c, 0, 67, 123
2, 29380, Control_c, 0, 67, 116
2, 29398, Control_c, 0, 64, 26
2, 29398, Control_c, 0, 67, 109
2, 29418, Control_c, 0, 67, 100
2, 29437, Control_c, 0, 67, 89
2, 29456, Control_c, 0, 67, 80
2, 29475, Control_c, 0, 64, 27
2, 29475, Control_c, 0, 67, 72
2, 29485, Note_on_c, 0, 51, 57
2, 29494, Control_c, 0, 67, 61
2, 29497, Note_on_c, 0, 66, 65
2, 29514, Control_c, 0, 67, 50
2, 29532, Control_c, 0, 67, 39
2, 29552, Control_c, 0, 67, 29
2, 29571, Control_c, 0, 67, 18
2, 29589, Note_on_c, 0, 68, 0
2, 29591, Control_c, 0, 67, 8
2, 29594, Note_on_c, 0, 49, 0
2, 29609, Control_c, 0, 64, 27
2, 29609, Control_c, 0, 67, 0
2, 29708, Note_on_c, 0, 65, 65
2, 29722, Note_on_c, 0, 66, 0
2, 29919, Note_on_c, 0, 66, 72
2, 29965, Note_on_c, 0, 65, 0
2, 30146, Note_on_c, 0, 53, 61
2, 30151, Note_on_c, 0, 68, 74
2, 30315, Note_on_c, 0, 51, 0
2, 30369, Note_on_c, 0, 69, 69
2, 30378, Control_c, 0, 64, 27
2, 30416, Control_c, 0, 64, 26
2, 30435, Control_c, 0, 64, 24
2, 30438, Note_on_c, 0, 66, 0
2, 30438, Note_on_c, 0, 68, 0
2, 30454, Control_c, 0, 64, 23
2, 30474, Control_c, 0, 64, 22
2, 30492, Control_c, 0, 64, 21
2, 30531, Control_c, 0, 64, 20
2, 30551, Control_c, 0, 64, 19
2, 30569, Control_c, 0, 64, 18
2, 30579, Note_on_c, 0, 71, 70
2, 30589, Control_c, 0, 64, 17
2, 30627, Control_c, 0, 64, 15
2, 30641, Note_on_c, 0, 69, 0
2, 30666, Control_c, 0, 64, 13
2, 30743, Control_c, 0, 64, 11
2, 30781, Control_c, 0, 64, 9
2, 30848, Note_on_c, 0, 54, 47
2, 30896, Control_c, 0, 64, 0
2, 30901, Note_on_c, 0, 69, 62
2, 30953, Note_on_c, 0, 53, 0
2, 31069, Note_on_c, 0, 68, 67
2, 31109, Note_on_c, 0, 71, 0
2, 31188, Note_on_c, 0, 69, 0
2, 31270, Note_on_c, 0, 66, 59
2, 31329, Note_on_c, 0, 68, 0
2, 31577, Note_on_c, 0, 42, 50
2, 31710, Note_on_c, 0, 54, 0
2, 31998, Note_on_c, 0, 66, 0
2, 32002, Note_on_c, 0, 69, 65
2, 32168, Note_on_c, 0, 73, 72
2, 32205, Note_on_c, 0, 69, 0
2, 32350, Note_on_c, 0, 45, 59
2, 32361, Note_on_c, 0, 78, 74
2, 32383, Note_on_c, 0, 73, 0
2, 32438, Note_on_c, 0, 42, 0
2, 32595, Note_on_c, 0, 73, 78
2, 32659, Note_on_c, 0, 78, 0
2, 32802, Note_on_c, 0, 75, 78
2, 32875, Note_on_c, 0, 73, 0
2, 33030, Note_on_c, 0, 77, 81
2, 33031, Note_on_c, 0, 49, 71
2, 33038, Note_on_c, 0, 75, 0
2, 33089, Note_on_c, 0, 45, 0
2, 33245, Note_on_c, 0, 78, 86
2, 33297, Note_on_c, 0, 77, 0
2, 33461, Note_on_c, 0, 80, 89
2, 33543, Note_on_c, 0, 78, 0
2, 33687, Note_on_c, 0, 81, 82
2, 33691, Note_on_c, 0, 54, 55
2, 33740, Note_on_c, 0, 49, 0
2, 33741, Note_on_c, 0, 80, 0
2, 33911, Note_on_c, 0, 80, 77
2, 34027, Note_on_c, 0, 81, 0
2, 34145, Note_on_c, 0, 78, 79
2, 34197, Note_on_c, 0, 80, 0
2, 34371, Note_on_c, 0, 80, 74
2, 34375, Note_on_c, 0, 57, 37
2, 34421, Note_on_c, 0, 78, 0
2, 34612, Note_on_c, 0, 78, 68
2, 34746, Note_on_c, 0, 80, 0
2, 34840, Note_on_c, 0, 76, 66
2, 34873, Note_on_c, 0, 78, 0
2, 35101, Note_on_c, 0, 75, 67
2, 35163, Note_on_c, 0, 76, 0
2, 35428, Control_c, 0, 67, 10
2, 35447, Control_c, 0, 67, 17
2, 35467, Control_c, 0, 67, 25
2, 35478, Note_on_c, 0, 76, 74
2, 35485, Control_c, 0, 67, 33
2, 35505, Control_c, 0, 67, 40
2, 35524, Control_c, 0, 67, 47
2, 35540, Control_c, 0, 67, 56
2, 35558, Control_c, 0, 67, 66
2, 35578, Control_c, 0, 67, 78
2, 35587, Note_on_c, 0, 75, 0
2, 35597, Control_c, 0, 67, 92
2, 35617, Control_c, 0, 67, 106
2, 35635, Control_c, 0, 67, 122
2, 35654, Control_c, 0, 67, 127
2, 35867, Note_on_c, 0, 51, 30
2, 35874, Note_on_c, 0, 78, 68
2, 35973, Note_on_c, 0, 54, 0
2, 35981, Note_on_c, 0, 57, 0
2, 35998, Note_on_c, 0, 76, 0
2, 36252, Note_on_c, 0, 57, 43
2, 36326, Control_c, 0, 64, 50
2, 36346, Control_c, 0, 64, 61
2, 36365, Control_c, 0, 64, 64
2, 36384, Control_c, 0, 64, 66
2, 36403, Control_c, 0, 64, 68
2, 36423, Control_c, 0, 64, 71
2, 36441, Control_c, 0, 64, 75
2, 36448, Note_on_c, 0, 57, 0
2, 36461, Control_c, 0, 64, 78
2, 36480, Control_c, 0, 64, 80
2, 36500, Control_c, 0, 64, 81
2, 36518, Control_c, 0, 64, 80
2, 36538, Control_c, 0, 64, 79
2, 36557, Control_c, 0, 64, 77
2, 36565, Note_on_c, 0, 48, 49
2, 36577, Control_c, 0, 64, 76
2, 36595, Control_c, 0, 64, 75
2, 36599, Note_on_c, 0, 57, 59
2, 36614, Control_c, 0, 64, 72
2, 36634, Control_c, 0, 64, 67
2, 36652, Control_c, 0, 64, 63
2, 36659, Note_on_c, 0, 57, 0
2, 36672, Control_c, 0, 64, 58
2, 36691, Control_c, 0, 64, 53
2, 36692, Note_on_c, 0, 56, 60
2, 36710, Control_c, 0, 64, 46
2, 36727, Control_c, 0, 64, 38
2, 36747, Control_c, 0, 64, 17
2, 36747, Note_on_c, 0, 56, 0
2, 36766, Control_c, 0, 64, 0
2, 36769, Note_on_c, 0, 57, 54
2, 36808, Note_on_c, 0, 51, 0
2, 36818, Note_on_c, 0, 57, 0
2, 36836, Note_on_c, 0, 56, 58
2, 37114, Note_on_c, 0, 76, 67
2, 37235, Note_on_c, 0, 78, 0
2, 37481, Note_on_c, 0, 75, 74
2, 37491, Note_on_c, 0, 54, 39
2, 37579, Note_on_c, 0, 76, 0
2, 37594, Note_on_c, 0, 56, 0
2, 37826, Note_on_c, 0, 81, 85
2, 37899, Control_c, 0, 67, 124
2, 37918, Control_c, 0, 67, 118
2, 37925, Note_on_c, 0, 75, 0
2, 37938, Control_c, 0, 67, 112
2, 37956, Control_c, 0, 67, 104
2, 37975, Control_c, 0, 67, 97
2, 37995, Control_c, 0, 67, 91
2, 38014, Control_c, 0, 67, 85
2, 38033, Control_c, 0, 67, 79
2, 38052, Control_c, 0, 67, 73
2, 38072, Control_c, 0, 67, 65
2, 38091, Control_c, 0, 67, 54
2, 38110, Control_c, 0, 67, 45
2, 38129, Control_c, 0, 67, 37
2, 38149, Control_c, 0, 67, 31
2, 38167, Control_c, 0, 67, 25
2, 38187, Control_c, 0, 67, 17
2, 38196, Note_on_c, 0, 80, 73
2, 38202, Note_on_c, 0, 52, 43
2, 38206, Control_c, 0, 67, 8
2, 38226, Control_c, 0, 67, 0
2, 38334, Note_on_c, 0, 48, 0
2, 38362, Note_on_c, 0, 54, 0
2, 38407, Note_on_c, 0, 81, 0
2, 38450, Note_on_c, 0, 78, 76
2, 38543, Note_on_c, 0, 80, 0
2, 38664, Note_on_c, 0, 76, 79
2, 38673, Note_on_c, 0, 78, 0
2, 38869, Note_on_c, 0, 51, 44
2, 38875, Note_on_c, 0, 44, 36
2, 38879, Note_on_c, 0, 78, 74
2, 38948, Note_on_c, 0, 76, 0
2, 38956, Note_on_c, 0, 52, 0
2, 39100, Note_on_c, 0, 76, 71
2, 39308, Note_on_c, 0, 75, 78
2, 39335, Note_on_c, 0, 76, 0
2, 39349, Note_on_c, 0, 78, 0
2, 39615, Note_on_c, 0, 49, 33
2, 39628, Note_on_c, 0, 76, 63
2, 39738, Note_on_c, 0, 75, 0
2, 39752, Note_on_c, 0, 51, 0
2, 39764, Note_on_c, 0, 44, 0
2, 40013, Control_c, 0, 67, 12
2, 40032, Control_c, 0, 67, 22
2, 40034, Note_on_c, 0, 75, 65
2, 40051, Control_c, 0, 67, 33
2, 40071, Control_c, 0, 67, 45
2, 40089, Control_c, 0, 67, 59
2, 40109, Control_c, 0, 67, 76
2, 40128, Control_c, 0, 67, 98
2, 40147, Control_c, 0, 67, 118
2, 40166, Control_c, 0, 67, 127
2, 40196, Note_on_c, 0, 76, 0
2, 40402, Note_on_c, 0, 73, 53
2, 40569, Note_on_c, 0, 75, 0
2, 40746, Note_on_c, 0, 47, 38
2, 41135, Note_on_c, 0, 45, 44
2, 41314, Note_on_c, 0, 47, 0
2, 41514, Note_on_c, 0, 75, 63
2, 41619, Note_on_c, 0, 73, 0
2, 41876, Note_on_c, 0, 44, 32
2, 41876, Note_on_c, 0, 73, 61
2, 41987, Note_on_c, 0, 45, 0
2, 42034, Note_on_c, 0, 75, 0
2, 42262, Note_on_c, 0, 72, 58
2, 42391, Note_on_c, 0, 73, 0
2, 42722, Note_on_c, 0, 42, 24
2, 42793, Note_on_c, 0, 73, 49
2, 42894, Note_on_c, 0, 44, 0
2, 42953, Note_on_c, 0, 72, 0
2, 43268, Note_on_c, 0, 49, 0
2, 43272, Note_on_c, 0, 76, 52
2, 43371, Note_on_c, 0, 73, 0
2, 43645, Note_on_c, 0, 49, 50
2, 43664, Note_on_c, 0, 69, 56
2, 43790, Note_on_c, 0, 76, 0
2, 44005, Note_on_c, 0, 68, 64
2, 44080, Note_on_c, 0, 69, 0
2, 44348, Note_on_c, 0, 54, 63
2, 44354, Note_on_c, 0, 69, 64
2, 44438, Note_on_c, 0, 49, 0
2, 44458, Note_on_c, 0, 68, 0
2, 44698, Note_on_c, 0, 72, 63
2, 44761, Note_on_c, 0, 69, 0
2, 45034, Note_on_c, 0, 66, 61
2, 45040, Note_on_c, 0, 44, 38
2, 45190, Note_on_c, 0, 42, 0
2, 45206, Note_on_c, 0, 54, 0
2, 45271, Note_on_c, 0, 72, 0
2, 45369, Note_on_c, 0, 64, 59
2, 45461, Note_on_c, 0, 66, 0
2, 45725, Note_on_c, 0, 45, 40
2, 45730, Note_on_c, 0, 66, 54
2, 45769, Note_on_c, 0, 64, 0
2, 45896, Note_on_c, 0, 44, 0
2, 46093, Note_on_c, 0, 72, 58
2, 46136, Note_on_c, 0, 66, 0
2, 46438, Note_on_c, 0, 42, 40
2, 46443, Note_on_c, 0, 73, 58
2, 46524, Note_on_c, 0, 72, 0
2, 46528, Note_on_c, 0, 45, 0
2, 46804, Note_on_c, 0, 75, 63
2, 46945, Note_on_c, 0, 73, 0
2, 47169, Note_on_c, 0, 44, 33
2, 47214, Note_on_c, 0, 76, 51
2, 47283, Note_on_c, 0, 75, 0
2, 47320, Note_on_c, 0, 42, 0
2, 47467, Note_on_c, 0, 75, 57
2, 47618, Note_on_c, 0, 76, 0
2, 47700, Note_on_c, 0, 73, 57
2, 47755, Note_on_c, 0, 75, 0
2, 47949, Note_on_c, 0, 75, 55
2, 47955, Note_on_c, 0, 54, 32
2, 48009, Note_on_c, 0, 73, 0
2, 48192, Note_on_c, 0, 73, 52
2, 48382, Note_on_c, 0, 75, 0
2, 48404, Control_c, 0, 67, 120
2, 48423, Control_c, 0, 67, 109
2, 48443, Control_c, 0, 67, 96
2, 48461, Control_c, 0, 67, 83
2, 48475, Note_on_c, 0, 72, 54
2, 48481, Control_c, 0, 67, 68
2, 48500, Control_c, 0, 67, 53
2, 48520, Control_c, 0, 67, 38
2, 48538, Control_c, 0, 67, 20
2, 48558, Control_c, 0, 67, 0
2, 48576, Note_on_c, 0, 73, 0
2, 48984, Note_on_c, 0, 49, 30
2, 49019, Note_on_c, 0, 73, 71
2, 49103, Note_on_c, 0, 44, 0
2, 49112, Note_on_c, 0, 72, 0
2, 49776, Note_on_c, 0, 52, 31
2, 49833, Note_on_c, 0, 68, 69
2, 49944, Note_on_c, 0, 54, 0
2, 50128, Note_on_c, 0, 73, 0
2, 50364, Control_c, 0, 64, 9
2, 50382, Control_c, 0, 64, 15
2, 50402, Control_c, 0, 64, 20
2, 50421, Control_c, 0, 64, 21
2, 50529, Note_on_c, 0, 56, 42
2, 50574, Control_c, 0, 64, 23
2, 50594, Control_c, 0, 64, 24
2, 50613, Control_c, 0, 64, 25
2, 50633, Control_c, 0, 64, 27
2, 50651, Control_c, 0, 64, 31
2, 50671, Control_c, 0, 64, 33
2, 50690, Control_c, 0, 64, 35
2, 50709, Control_c, 0, 64, 36
2, 50712, Note_on_c, 0, 52, 0
2, 50747, Control_c, 0, 64, 37
2, 50767, Control_c, 0, 64, 37
2, 50785, Control_c, 0, 64, 38
2, 50805, Control_c, 0, 64, 39
2, 50844, Control_c, 0, 64, 40
2, 50862, Control_c, 0, 64, 41
2, 50882, Control_c, 0, 64, 43
2, 50901, Control_c, 0, 64, 43
2, 51093, Control_c, 0, 64, 43
2, 51131, Control_c, 0, 64, 42
2, 51151, Control_c, 0, 64, 42
2, 51289, Note_on_c, 0, 64, 62
2, 51290, Note_on_c, 0, 61, 28
2, 51362, Control_c, 0, 64, 41
2, 51381, Control_c, 0, 64, 41
2, 51388, Note_on_c, 0, 56, 0
2, 51388, Note_on_c, 0, 68, 0
2, 51400, Control_c, 0, 64, 40
2, 51496, Control_c, 0, 64, 40
2, 51516, Control_c, 0, 64, 39
2, 51534, Control_c, 0, 64, 39
2, 51573, Control_c, 0, 64, 38
2, 51593, Control_c, 0, 64, 38
2, 51611, Control_c, 0, 64, 37
2, 51622, Note_on_c, 0, 51, 35
2, 51630, Control_c, 0, 64, 36
2, 51632, Note_on_c, 0, 66, 70
2, 51650, Control_c, 0, 64, 36
2, 51669, Control_c, 0, 64, 35
2, 51688, Control_c, 0, 64, 35
2, 51707, Control_c, 0, 64, 34
2, 51710, Note_on_c, 0, 64, 0
2, 51765, Control_c, 0, 64, 34
2, 51784, Control_c, 0, 64, 33
2, 51790, Note_on_c, 0, 49, 0
2, 51804, Control_c, 0, 64, 32
2, 51822, Control_c, 0, 64, 31
2, 51842, Control_c, 0, 64, 29
2, 51861, Control_c, 0, 64, 28
2, 51880, Control_c, 0, 64, 27
2, 51899, Control_c, 0, 64, 26
2, 51919, Control_c, 0, 64, 25
2, 51938, Control_c, 0, 64, 22
2, 51957, Control_c, 0, 64, 20
2, 51964, Note_on_c, 0, 68, 68
2, 51972, Note_on_c, 0, 52, 43
2, 51976, Control_c, 0, 64, 19
2, 52014, Control_c, 0, 64, 18
2, 52034, Control_c, 0, 64, 17
2, 52038, Note_on_c, 0, 51, 0
2, 52053, Control_c, 0, 64, 15
2, 52059, Note_on_c, 0, 66, 0
2, 52210, Note_on_c, 0, 66, 66
2, 52282, Control_c, 0, 64, 17
2, 52300, Control_c, 0, 64, 18
2, 52329, Note_on_c, 0, 68, 0
2, 52433, Note_on_c, 0, 64, 71
2, 52435, Control_c, 0, 64, 19
2, 52462, Note_on_c, 0, 66, 0
2, 52562, Note_on_c, 0, 61, 0
2, 52619, Note_on_c, 0, 60, 58
2, 52622, Note_on_c, 0, 56, 60
2, 52629, Note_on_c, 0, 66, 72
2, 52685, Control_c, 0, 64, 20
2, 52712, Note_on_c, 0, 64, 0
2, 52749, Note_on_c, 0, 52, 0
2, 52845, Note_on_c, 0, 64, 76
2, 52857, Control_c, 0, 64, 19
2, 52934, Control_c, 0, 64, 18
2, 52975, Note_on_c, 0, 60, 0
2, 52982, Note_on_c, 0, 66, 0
2, 53038, Note_on_c, 0, 49, 55
2, 53042, Note_on_c, 0, 63, 73
2, 53088, Note_on_c, 0, 64, 0
2, 53109, Control_c, 0, 64, 17
2, 53244, Control_c, 0, 64, 15
2, 53352, Note_on_c, 0, 64, 73
2, 53360, Note_on_c, 0, 61, 81
2, 53419, Note_on_c, 0, 63, 0
2, 53487, Note_on_c, 0, 56, 0
2, 53720, Note_on_c, 0, 66, 64
2, 53742, Control_c, 0, 64, 13
2, 53785, Note_on_c, 0, 64, 0
2, 53819, Control_c, 0, 64, 11
2, 53916, Control_c, 0, 64, 9
2, 53954, Control_c, 0, 64, 0
2, 54061, Note_on_c, 0, 56, 67
2, 54064, Note_on_c, 0, 64, 65
2, 54181, Note_on_c, 0, 61, 0
2, 54276, Note_on_c, 0, 66, 0
2, 54398, Note_on_c, 0, 63, 51
2, 54492, Note_on_c, 0, 64, 0
2, 54745, Note_on_c, 0, 64, 65
2, 54793, Note_on_c, 0, 63, 0
2, 55056, Note_on_c, 0, 68, 75
2, 55057, Note_on_c, 0, 54, 61
2, 55112, Note_on_c, 0, 56, 0
2, 55121, Note_on_c, 0, 64, 0
2, 55386, Note_on_c, 0, 73, 80
2, 55387, Note_on_c, 0, 52, 68
2, 55390, Note_on_c, 0, 49, 0
2, 55439, Note_on_c, 0, 54, 0
2, 55462, Note_on_c, 0, 68, 0
2, 55689, Note_on_c, 0, 47, 77
2, 55694, Note_on_c, 0, 75, 84
2, 55815, Note_on_c, 0, 73, 0
2, 56053, Note_on_c, 0, 46, 64
2, 56081, Note_on_c, 0, 76, 80
2, 56121, Note_on_c, 0, 75, 0
2, 56181, Note_on_c, 0, 47, 0
2, 56184, Note_on_c, 0, 52, 0
2, 56403, Note_on_c, 0, 79, 83
2, 56449, Note_on_c, 0, 76, 0
2, 56651, Note_on_c, 0, 78, 84
2, 56723, Note_on_c, 0, 79, 0
2, 56865, Note_on_c, 0, 76, 83
2, 56870, Note_on_c, 0, 49, 60
2, 56874, Note_on_c, 0, 52, 54
2, 56953, Note_on_c, 0, 78, 0
2, 57001, Note_on_c, 0, 46, 0
2, 57079, Note_on_c, 0, 74, 80
2, 57082, Note_on_c, 0, 76, 0
2, 57303, Note_on_c, 0, 73, 77
2, 57360, Note_on_c, 0, 74, 0
2, 57549, Note_on_c, 0, 71, 71
2, 57565, Note_on_c, 0, 42, 48
2, 57586, Note_on_c, 0, 52, 0
2, 57683, Note_on_c, 0, 49, 0
2, 57734, Control_c, 0, 67, 17
2, 57754, Control_c, 0, 67, 36
2, 57773, Control_c, 0, 67, 56
2, 57791, Control_c, 0, 67, 78
2, 57793, Note_on_c, 0, 70, 77
2, 57811, Control_c, 0, 67, 105
2, 57827, Note_on_c, 0, 71, 0
2, 57830, Control_c, 0, 67, 127
2, 57835, Note_on_c, 0, 73, 0
2, 58039, Note_on_c, 0, 73, 64
2, 58099, Note_on_c, 0, 70, 0
2, 58269, Note_on_c, 0, 73, 0
2, 58383, Note_on_c, 0, 49, 43
2, 58452, Note_on_c, 0, 64, 57
2, 58916, Note_on_c, 0, 49, 0
2, 59178, Note_on_c, 0, 54, 63
2, 59340, Note_on_c, 0, 66, 62
2, 59356, Note_on_c, 0, 42, 0
2, 59365, Note_on_c, 0, 64, 0
2, 59515, Note_on_c, 0, 64, 66
2, 59565, Note_on_c, 0, 66, 0
2, 59657, Note_on_c, 0, 64, 0
2, 59660, Note_on_c, 0, 63, 67
2, 59851, Note_on_c, 0, 49, 44
2, 59855, Note_on_c, 0, 63, 0
2, 59873, Note_on_c, 0, 64, 49
2, 59987, Note_on_c, 0, 64, 0
2, 60213, Note_on_c, 0, 64, 48
2, 60590, Note_on_c, 0, 46, 39
2, 60757, Note_on_c, 0, 49, 0
2, 60934, Note_on_c, 0, 70, 62
2, 61082, Note_on_c, 0, 64, 0
2, 61304, Note_on_c, 0, 42, 28
2, 61314, Note_on_c, 0, 71, 62
2, 61418, Note_on_c, 0, 70, 0
2, 61419, Note_on_c, 0, 46, 0
2, 61687, Note_on_c, 0, 73, 56
2, 61765, Note_on_c, 0, 71, 0
2, 62102, Note_on_c, 0, 47, 30
2, 62160, Note_on_c, 0, 62, 45
2, 62210, Note_on_c, 0, 42, 0
2, 62265, Note_on_c, 0, 73, 0
2, 62516, Note_on_c, 0, 54, 0
2, 62591, Note_on_c, 0, 64, 53
2, 62677, Note_on_c, 0, 62, 0
2, 62935, Note_on_c, 0, 54, 44
2, 62939, Note_on_c, 0, 62, 62
2, 63160, Note_on_c, 0, 64, 0
2, 63254, Note_on_c, 0, 61, 60
2, 63338, Note_on_c, 0, 62, 0
2, 63600, Note_on_c, 0, 59, 52
2, 63605, Note_on_c, 0, 54, 0
2, 63610, Note_on_c, 0, 62, 64
2, 63644, Note_on_c, 0, 61, 0
2, 63918, Note_on_c, 0, 66, 75
2, 63926, Note_on_c, 0, 54, 54
2, 63973, Note_on_c, 0, 62, 0
2, 63999, Note_on_c, 0, 59, 0
2, 64091, Control_c, 0, 67, 125
2, 64110, Control_c, 0, 67, 118
2, 64130, Control_c, 0, 67, 111
2, 64149, Control_c, 0, 67, 105
2, 64168, Control_c, 0, 67, 98
2, 64187, Control_c, 0, 67, 91
2, 64207, Control_c, 0, 67, 84
2, 64221, Note_on_c, 0, 47, 0
2, 64223, Note_on_c, 0, 50, 53
2, 64225, Control_c, 0, 67, 75
2, 64228, Note_on_c, 0, 71, 73
2, 64245, Control_c, 0, 67, 65
2, 64264, Control_c, 0, 67, 56
2, 64281, Note_on_c, 0, 54, 0
2, 64284, Control_c, 0, 67, 48
2, 64301, Note_on_c, 0, 66, 0
2, 64302, Control_c, 0, 67, 39
2, 64322, Control_c, 0, 67, 28
2, 64341, Control_c, 0, 67, 13
2, 64360, Control_c, 0, 67, 0
2, 64538, Note_on_c, 0, 73, 73
2, 64549, Note_on_c, 0, 54, 46
2, 64573, Note_on_c, 0, 50, 0
2, 64631, Note_on_c, 0, 71, 0
2, 64872, Note_on_c, 0, 47, 39
2, 64902, Note_on_c, 0, 74, 64
2, 64910, Note_on_c, 0, 73, 0
2, 64933, Note_on_c, 0, 54, 0
2, 65129, Note_on_c, 0, 78, 68
2, 65184, Note_on_c, 0, 74, 0
2, 65247, Note_on_c, 0, 50, 46
2, 65258, Note_on_c, 0, 47, 0
2, 65261, Control_c, 0, 67, 10
2, 65281, Control_c, 0, 67, 21
2, 65300, Control_c, 0, 67, 34
2, 65320, Control_c, 0, 67, 49
2, 65338, Control_c, 0, 67, 65
2, 65350, Note_on_c, 0, 76, 63
2, 65358, Control_c, 0, 67, 86
2, 65377, Control_c, 0, 67, 105
2, 65396, Control_c, 0, 67, 124
2, 65415, Control_c, 0, 67, 127
2, 65496, Note_on_c, 0, 78, 0
2, 65539, Note_on_c, 0, 44, 40
2, 65577, Note_on_c, 0, 76, 0
2, 65580, Note_on_c, 0, 74, 59
2, 65791, Note_on_c, 0, 73, 53
2, 65827, Note_on_c, 0, 74, 0
2, 65860, Note_on_c, 0, 47, 35
2, 65941, Note_on_c, 0, 44, 0
2, 66018, Note_on_c, 0, 71, 57
2, 66117, Note_on_c, 0, 73, 0
2, 66268, Note_on_c, 0, 69, 54
2, 66284, Note_on_c, 0, 40, 37
2, 66306, Note_on_c, 0, 71, 0
2, 66396, Note_on_c, 0, 47, 0
2, 66517, Note_on_c, 0, 68, 58
2, 66542, Note_on_c, 0, 50, 0
2, 66564, Note_on_c, 0, 69, 0
2, 66768, Note_on_c, 0, 71, 52
2, 66826, Note_on_c, 0, 68, 0
2, 66962, Note_on_c, 0, 71, 0
2, 67075, Note_on_c, 0, 47, 27
2, 67126, Note_on_c, 0, 62, 51
2, 67535, Note_on_c, 0, 47, 0
2, 67877, Note_on_c, 0, 52, 47
2, 68035, Note_on_c, 0, 40, 0
2, 68035, Note_on_c, 0, 64, 58
2, 68055, Note_on_c, 0, 62, 0
2, 68209, Note_on_c, 0, 62, 54
2, 68286, Note_on_c, 0, 64, 0
2, 68384, Note_on_c, 0, 61, 57
2, 68396, Note_on_c, 0, 62, 0
2, 68584, Note_on_c, 0, 62, 50
2, 68598, Note_on_c, 0, 47, 40
2, 68600, Note_on_c, 0, 61, 0
2, 68740, Note_on_c, 0, 62, 0
2, 68949, Note_on_c, 0, 62, 43
2, 69307, Note_on_c, 0, 44, 38
2, 69531, Note_on_c, 0, 47, 0
2, 69654, Note_on_c, 0, 68, 57
2, 69803, Note_on_c, 0, 62, 0
2, 70000, Note_on_c, 0, 40, 28
2, 70013, Note_on_c, 0, 69, 67
2, 70092, Note_on_c, 0, 44, 0
2, 70110, Note_on_c, 0, 68, 0
2, 70382, Note_on_c, 0, 71, 61
2, 70460, Note_on_c, 0, 69, 0
2, 70757, Note_on_c, 0, 45, 38
2, 70820, Note_on_c, 0, 40, 0
2, 70832, Note_on_c, 0, 61, 61
2, 70921, Note_on_c, 0, 71, 0
2, 71117, Control_c, 0, 67, 125
2, 71136, Control_c, 0, 67, 119
2, 71149, Note_on_c, 0, 52, 0
2, 71155, Control_c, 0, 67, 114
2, 71174, Control_c, 0, 67, 107
2, 71181, Note_on_c, 0, 62, 62
2, 71193, Control_c, 0, 67, 99
2, 71213, Control_c, 0, 67, 91
2, 71231, Control_c, 0, 67, 80
2, 71251, Control_c, 0, 67, 70
2, 71256, Note_on_c, 0, 61, 0
2, 71270, Control_c, 0, 67, 60
2, 71290, Control_c, 0, 67, 54
2, 71308, Control_c, 0, 67, 48
2, 71328, Control_c, 0, 67, 44
2, 71347, Control_c, 0, 67, 38
2, 71366, Control_c, 0, 67, 31
2, 71385, Control_c, 0, 67, 25
2, 71405, Control_c, 0, 67, 18
2, 71424, Control_c, 0, 67, 13
2, 71443, Control_c, 0, 67, 8
2, 71462, Control_c, 0, 67, 0
2, 71515, Note_on_c, 0, 61, 67
2, 71522, Note_on_c, 0, 52, 53
2, 71622, Note_on_c, 0, 62, 0
2, 71844, Note_on_c, 0, 59, 70
2, 71904, Note_on_c, 0, 61, 0
2, 72170, Note_on_c, 0, 61, 68
2, 72175, Note_on_c, 0, 57, 64
2, 72212, Note_on_c, 0, 59, 0
2, 72265, Note_on_c, 0, 52, 0
2, 72502, Note_on_c, 0, 64, 71
2, 72518, Note_on_c, 0, 61, 0
2, 72831, Note_on_c, 0, 56, 54
2, 72838, Note_on_c, 0, 69, 78
2, 72877, Note_on_c, 0, 64, 0
2, 72947, Note_on_c, 0, 57, 0
2, 73160, Note_on_c, 0, 71, 80
2, 73209, Note_on_c, 0, 45, 0
2, 73221, Note_on_c, 0, 69, 0
2, 73468, Note_on_c, 0, 57, 48
2, 73534, Note_on_c, 0, 56, 0
2, 73546, Note_on_c, 0, 73, 67
2, 73551, Note_on_c, 0, 71, 0
2, 73662, Note_on_c, 0, 73, 0
2, 73666, Note_on_c, 0, 71, 71
2, 73727, Control_c, 0, 67, 9
2, 73746, Control_c, 0, 67, 22
2, 73765, Control_c, 0, 67, 36
2, 73784, Control_c, 0, 67, 53
2, 73786, Note_on_c, 0, 73, 70
2, 73804, Control_c, 0, 67, 71
2, 73815, Note_on_c, 0, 71, 0
2, 73823, Control_c, 0, 67, 90
2, 73842, Control_c, 0, 67, 110
2, 73861, Control_c, 0, 67, 127
2, 73871, Note_on_c, 0, 52, 43
2, 74199, Note_on_c, 0, 49, 43
2, 74333, Note_on_c, 0, 52, 0
2, 74533, Note_on_c, 0, 45, 40
2, 74644, Note_on_c, 0, 49, 0
2, 74946, Note_on_c, 0, 50, 41
2, 75024, Note_on_c, 0, 45, 0
2, 75293, Note_on_c, 0, 67, 61
2, 75345, Note_on_c, 0, 57, 0
2, 75652, Note_on_c, 0, 66, 70
2, 75657, Note_on_c, 0, 57, 48
2, 75674, Note_on_c, 0, 73, 0
2, 75775, Note_on_c, 0, 67, 0
2, 75896, Control_c, 0, 67, 124
2, 75916, Control_c, 0, 67, 113
2, 75935, Control_c, 0, 67, 103
2, 75954, Control_c, 0, 67, 91
2, 75964, Note_on_c, 0, 64, 66
2, 75973, Control_c, 0, 67, 79
2, 75992, Control_c, 0, 67, 67
2, 76012, Control_c, 0, 67, 56
2, 76030, Control_c, 0, 67, 46
2, 76044, Note_on_c, 0, 66, 0
2, 76050, Control_c, 0, 67, 37
2, 76069, Control_c, 0, 67, 25
2, 76089, Control_c, 0, 67, 15
2, 76107, Control_c, 0, 67, 0
2, 76304, Note_on_c, 0, 66, 72
2, 76314, Note_on_c, 0, 62, 65
2, 76347, Note_on_c, 0, 64, 0
2, 76364, Note_on_c, 0, 57, 0
2, 76656, Note_on_c, 0, 69, 77
2, 76670, Note_on_c, 0, 66, 0
2, 76960, Note_on_c, 0, 57, 57
2, 76966, Note_on_c, 0, 54, 53
2, 76968, Note_on_c, 0, 74, 78
2, 76998, Note_on_c, 0, 62, 0
2, 77000, Note_on_c, 0, 69, 0
2, 77048, Control_c, 0, 64, 9
2, 77066, Control_c, 0, 64, 15
2, 77086, Control_c, 0, 64, 20
2, 77105, Control_c, 0, 64, 23
2, 77125, Control_c, 0, 64, 24
2, 77140, Note_on_c, 0, 50, 0
2, 77301, Note_on_c, 0, 76, 84
2, 77361, Note_on_c, 0, 74, 0
2, 77371, Control_c, 0, 64, 23
2, 77429, Control_c, 0, 64, 22
2, 77467, Control_c, 0, 64, 21
2, 77563, Control_c, 0, 64, 20
2, 77600, Note_on_c, 0, 51, 66
2, 77602, Control_c, 0, 64, 19
2, 77620, Control_c, 0, 64, 18
2, 77629, Note_on_c, 0, 54, 0
2, 77640, Control_c, 0, 64, 17
2, 77647, Note_on_c, 0, 78, 76
2, 77659, Control_c, 0, 64, 15
2, 77665, Note_on_c, 0, 76, 0
2, 77678, Control_c, 0, 64, 13
2, 77683, Note_on_c, 0, 57, 0
2, 77697, Control_c, 0, 64, 9
2, 77749, Note_on_c, 0, 76, 73
2, 77755, Control_c, 0, 64, 0
2, 77760, Note_on_c, 0, 78, 0
2, 77861, Note_on_c, 0, 78, 82
2, 77883, Note_on_c, 0, 76, 0
2, 77941, Note_on_c, 0, 54, 70
2, 78250, Note_on_c, 0, 56, 72
2, 78273, Note_on_c, 0, 47, 59
2, 78293, Note_on_c, 0, 54, 0
2, 78321, Note_on_c, 0, 51, 0
2, 78567, Note_on_c, 0, 57, 66
2, 78612, Note_on_c, 0, 56, 0
2, 78669, Note_on_c, 0, 47, 0
2, 78752, Note_on_c, 0, 57, 0
2, 78892, Note_on_c, 0, 52, 61
2, 78907, Note_on_c, 0, 57, 74
2, 78937, Note_on_c, 0, 78, 0
2, 78992, Note_on_c, 0, 57, 0
2, 78997, Note_on_c, 0, 56, 75
2, 79054, Note_on_c, 0, 56, 0
2, 79060, Note_on_c, 0, 57, 69
2, 79147, Note_on_c, 0, 56, 73
2, 79155, Note_on_c, 0, 57, 0
2, 79437, Note_on_c, 0, 69, 77
2, 79792, Note_on_c, 0, 68, 84
2, 79795, Note_on_c, 0, 59, 71
2, 79897, Note_on_c, 0, 69, 0
2, 79930, Note_on_c, 0, 56, 0
2, 80121, Note_on_c, 0, 66, 80
2, 80193, Note_on_c, 0, 68, 0
2, 80457, Note_on_c, 0, 68, 77
2, 80469, Note_on_c, 0, 64, 72
2, 80492, Note_on_c, 0, 66, 0
2, 80560, Note_on_c, 0, 59, 0
2, 80797, Note_on_c, 0, 71, 78
2, 80833, Note_on_c, 0, 68, 0
2, 81137, Note_on_c, 0, 76, 80
2, 81141, Note_on_c, 0, 59, 62
2, 81173, Note_on_c, 0, 64, 0
2, 81209, Note_on_c, 0, 71, 0
2, 81453, Note_on_c, 0, 80, 83
2, 81556, Note_on_c, 0, 76, 0
2, 81798, Note_on_c, 0, 56, 46
2, 81815, Note_on_c, 0, 83, 81
2, 81927, Note_on_c, 0, 80, 0
2, 81939, Note_on_c, 0, 59, 0
2, 81991, Note_on_c, 0, 52, 0
2, 82160, Note_on_c, 0, 74, 71
2, 82245, Note_on_c, 0, 83, 0
2, 82496, Note_on_c, 0, 52, 49
2, 82508, Note_on_c, 0, 73, 75
2, 82594, Note_on_c, 0, 74, 0
2, 82875, Note_on_c, 0, 71, 71
2, 83005, Note_on_c, 0, 73, 0
2, 83267, Note_on_c, 0, 57, 48
2, 83289, Note_on_c, 0, 45, 44
2, 83303, Note_on_c, 0, 73, 70
2, 83370, Note_on_c, 0, 56, 0
2, 83414, Note_on_c, 0, 71, 0
2, 83423, Note_on_c, 0, 52, 0
2, 83669, Control_c, 0, 64, 47
2, 83688, Control_c, 0, 64, 61
2, 83707, Control_c, 0, 64, 65
2, 83710, Note_on_c, 0, 78, 76
2, 83726, Control_c, 0, 64, 69
2, 83746, Control_c, 0, 64, 76
2, 83765, Control_c, 0, 64, 88
2, 83783, Control_c, 0, 64, 106
2, 83802, Note_on_c, 0, 73, 0
2, 83803, Control_c, 0, 64, 127
2, 83813, Note_on_c, 0, 45, 0
2, 84052, Control_c, 0, 64, 123
2, 84059, Note_on_c, 0, 56, 68
2, 84067, Note_on_c, 0, 76, 76
2, 84072, Control_c, 0, 64, 93
2, 84072, Note_on_c, 0, 47, 47
2, 84091, Control_c, 0, 64, 78
2, 84111, Control_c, 0, 64, 68
2, 84129, Control_c, 0, 64, 60
2, 84149, Control_c, 0, 64, 45
2, 84165, Note_on_c, 0, 57, 0
2, 84168, Control_c, 0, 64, 34
2, 84187, Control_c, 0, 64, 32
2, 84187, Note_on_c, 0, 78, 0
2, 84206, Control_c, 0, 64, 32
2, 84226, Control_c, 0, 64, 31
2, 84245, Control_c, 0, 64, 27
2, 84263, Control_c, 0, 64, 24
2, 84283, Control_c, 0, 64, 23
2, 84302, Control_c, 0, 64, 22
2, 84397, Note_on_c, 0, 75, 79
2, 84451, Note_on_c, 0, 76, 0
2, 84494, Control_c, 0, 64, 23
2, 84609, Control_c, 0, 64, 24
2, 84629, Control_c, 0, 64, 26
2, 84648, Control_c, 0, 64, 27
2, 84667, Control_c, 0, 64, 28
2, 84704, Note_on_c, 0, 49, 66
2, 84727, Note_on_c, 0, 76, 72
2, 84761, Note_on_c, 0, 47, 0
2, 84776, Note_on_c, 0, 75, 0
2, 85050, Note_on_c, 0, 57, 76
2, 85051, Note_on_c, 0, 73, 74
2, 85072, Control_c, 0, 64, 29
2, 85082, Note_on_c, 0, 56, 0
2, 85301, Control_c, 0, 64, 29
2, 85309, Note_on_c, 0, 76, 0
2, 85379, Note_on_c, 0, 71, 72
2, 85399, Note_on_c, 0, 49, 0
2, 85419, Note_on_c, 0, 50, 66
2, 85552, Note_on_c, 0, 73, 0
2, 85705, Note_on_c, 0, 59, 76
2, 85719, Note_on_c, 0, 69, 70
2, 85743, Control_c, 0, 64, 29
2, 85775, Note_on_c, 0, 71, 0
2, 85778, Note_on_c, 0, 57, 0
2, 85801, Control_c, 0, 64, 28
2, 85973, Control_c, 0, 64, 27
2, 86012, Control_c, 0, 64, 27
2, 86031, Note_on_c, 0, 52, 62
2, 86044, Note_on_c, 0, 73, 69
2, 86062, Note_on_c, 0, 50, 0
2, 86114, Note_on_c, 0, 69, 0
2, 86127, Control_c, 0, 64, 26
2, 86300, Control_c, 0, 64, 25
2, 86377, Note_on_c, 0, 57, 67
2, 86394, Note_on_c, 0, 64, 61
2, 86476, Note_on_c, 0, 59, 0
2, 86497, Note_on_c, 0, 73, 0
2, 86518, Note_on_c, 0, 52, 0
2, 86730, Note_on_c, 0, 52, 57
2, 86735, Note_on_c, 0, 71, 73
2, 86855, Note_on_c, 0, 64, 0
2, 87084, Note_on_c, 0, 56, 64
2, 87097, Note_on_c, 0, 62, 63
2, 87175, Note_on_c, 0, 57, 0
2, 87178, Note_on_c, 0, 71, 0
2, 87242, Control_c, 0, 64, 24
2, 87293, Note_on_c, 0, 52, 0
2, 87526, Note_on_c, 0, 57, 67
2, 87547, Note_on_c, 0, 61, 68
2, 87635, Note_on_c, 0, 62, 0
2, 87738, Note_on_c, 0, 56, 0
2, 87929, Note_on_c, 0, 64, 70
2, 88024, Note_on_c, 0, 61, 0
2, 88124, Control_c, 0, 64, 25
2, 88252, Note_on_c, 0, 69, 75
2, 88332, Note_on_c, 0, 64, 0
2, 88412, Control_c, 0, 64, 24
2, 88527, Control_c, 0, 64, 23
2, 88582, Note_on_c, 0, 52, 52
2, 88731, Note_on_c, 0, 57, 0
2, 88776, Control_c, 0, 64, 22
2, 88814, Control_c, 0, 64, 21
2, 88834, Control_c, 0, 64, 20
2, 88911, Control_c, 0, 64, 19
2, 88911, Note_on_c, 0, 49, 56
2, 88949, Control_c, 0, 64, 18
2, 88968, Control_c, 0, 64, 17
2, 88987, Control_c, 0, 64, 13
2, 89006, Control_c, 0, 64, 11
2, 89025, Control_c, 0, 64, 0
2, 89045, Control_c, 0, 67, 16
2, 89048, Note_on_c, 0, 52, 0
2, 89063, Control_c, 0, 67, 33
2, 89083, Control_c, 0, 67, 50
2, 89102, Control_c, 0, 67, 69
2, 89122, Control_c, 0, 67, 91
2, 89140, Control_c, 0, 67, 118
2, 89160, Control_c, 0, 67, 127
2, 89254, Note_on_c, 0, 64, 56
2, 89259, Note_on_c, 0, 45, 39
2, 89323, Note_on_c, 0, 49, 0
2, 89327, Note_on_c, 0, 69, 0
2, 89598, Note_on_c, 0, 69, 60
2, 89612, Note_on_c, 0, 49, 39
2, 89683, Note_on_c, 0, 64, 0
2, 89766, Note_on_c, 0, 45, 0
2, 89924, Note_on_c, 0, 52, 35
2, 89925, Note_on_c, 0, 71, 59
2, 90030, Note_on_c, 0, 69, 0
2, 90095, Note_on_c, 0, 49, 0
2, 90292, Note_on_c, 0, 73, 53
2, 90326, Note_on_c, 0, 57, 28
2, 90390, Note_on_c, 0, 52, 0
2, 90631, Note_on_c, 0, 69, 54
2, 90756, Note_on_c, 0, 71, 0
2, 90797, Note_on_c, 0, 73, 0
2, 91027, Note_on_c, 0, 66, 49
2, 91030, Note_on_c, 0, 60, 36
2, 91146, Note_on_c, 0, 69, 0
2, 91450, Note_on_c, 0, 75, 70
2, 91597, Note_on_c, 0, 66, 0
2, 91925, Note_on_c, 0, 59, 35
2, 91930, Note_on_c, 0, 55, 25
2, 92007, Note_on_c, 0, 76, 58
2, 92024, Note_on_c, 0, 60, 0
2, 92061, Note_on_c, 0, 57, 0
2, 92086, Note_on_c, 0, 75, 0
2, 92501, Note_on_c, 0, 71, 53
2, 92725, Note_on_c, 0, 76, 0
2, 92804, Note_on_c, 0, 54, 37
2, 92807, Note_on_c, 0, 57, 40
2, 92935, Note_on_c, 0, 55, 0
2, 92985, Note_on_c, 0, 59, 0
2, 93022, Control_c, 0, 67, 124
2, 93041, Control_c, 0, 64, 9
2, 93041, Control_c, 0, 67, 109
2, 93060, Control_c, 0, 64, 39
2, 93060, Control_c, 0, 67, 92
2, 93080, Control_c, 0, 64, 52
2, 93080, Control_c, 0, 67, 75
2, 93099, Control_c, 0, 64, 57
2, 93099, Control_c, 0, 67, 56
2, 93117, Control_c, 0, 64, 60
2, 93117, Control_c, 0, 67, 39
2, 93137, Control_c, 0, 64, 62
2, 93137, Control_c, 0, 67, 18
2, 93137, Note_on_c, 0, 75, 78
2, 93156, Control_c, 0, 64, 63
2, 93156, Control_c, 0, 67, 0
2, 93175, Control_c, 0, 64, 65
2, 93194, Control_c, 0, 64, 66
2, 93214, Control_c, 0, 64, 69
2, 93233, Control_c, 0, 64, 74
2, 93252, Control_c, 0, 64, 81
2, 93260, Note_on_c, 0, 71, 0
2, 93271, Control_c, 0, 64, 88
2, 93291, Control_c, 0, 64, 93
2, 93310, Control_c, 0, 64, 97
2, 93329, Control_c, 0, 64, 98
2, 93425, Control_c, 0, 64, 98
2, 93445, Control_c, 0, 64, 96
2, 93463, Control_c, 0, 64, 94
2, 93469, Note_on_c, 0, 55, 44
2, 93483, Control_c, 0, 64, 90
2, 93490, Note_on_c, 0, 52, 44
2, 93502, Control_c, 0, 64, 83
2, 93509, Note_on_c, 0, 76, 78
2, 93521, Control_c, 0, 64, 75
2, 93540, Control_c, 0, 64, 66
2, 93560, Control_c, 0, 64, 58
2, 93579, Control_c, 0, 64, 38
2, 93581, Note_on_c, 0, 54, 0
2, 93583, Note_on_c, 0, 57, 0
2, 93597, Control_c, 0, 64, 0
2, 93601, Note_on_c, 0, 75, 0
2, 93866, Control_c, 0, 64, 41
2, 93872, Note_on_c, 0, 71, 67
2, 93886, Control_c, 0, 64, 57
2, 93905, Control_c, 0, 64, 62
2, 93925, Control_c, 0, 64, 63
2, 93937, Note_on_c, 0, 55, 0
2, 93943, Control_c, 0, 64, 64
2, 93963, Control_c, 0, 64, 64
2, 93982, Control_c, 0, 64, 66
2, 94001, Control_c, 0, 64, 68
2, 94020, Control_c, 0, 64, 71
2, 94040, Control_c, 0, 64, 76
2, 94059, Control_c, 0, 64, 81
2, 94077, Control_c, 0, 64, 86
2, 94087, Note_on_c, 0, 76, 0
2, 94097, Control_c, 0, 64, 88
2, 94191, Note_on_c, 0, 59, 60
2, 94200, Note_on_c, 0, 55, 55
2, 94212, Control_c, 0, 64, 88
2, 94270, Control_c, 0, 64, 88
2, 94298, Note_on_c, 0, 52, 0
2, 94366, Control_c, 0, 64, 87
2, 94405, Control_c, 0, 64, 87
2, 94481, Control_c, 0, 64, 86
2, 94500, Control_c, 0, 64, 86
2, 94520, Control_c, 0, 64, 85
2, 94535, Note_on_c, 0, 75, 84
2, 94557, Control_c, 0, 64, 85
2, 94592, Note_on_c, 0, 59, 0
2, 94596, Control_c, 0, 64, 84
2, 94615, Control_c, 0, 64, 83
2, 94641, Note_on_c, 0, 71, 0
2, 94650, Note_on_c, 0, 49, 60
2, 94654, Control_c, 0, 64, 83
2, 94673, Control_c, 0, 64, 82
2, 94692, Control_c, 0, 64, 81
2, 94711, Control_c, 0, 64, 81
2, 94750, Control_c, 0, 64, 80
2, 94788, Control_c, 0, 64, 80
2, 94808, Control_c, 0, 64, 79
2, 94865, Control_c, 0, 64, 78
2, 94885, Control_c, 0, 64, 78
2, 94903, Control_c, 0, 64, 76
2, 94923, Control_c, 0, 64, 74
2, 94942, Control_c, 0, 64, 71
2, 94952, Note_on_c, 0, 61, 81
2, 94961, Control_c, 0, 64, 66
2, 94964, Note_on_c, 0, 57, 22
2, 94965, Note_on_c, 0, 76, 71
2, 94980, Control_c, 0, 64, 63
2, 95000, Control_c, 0, 64, 62
2, 95005, Note_on_c, 0, 55, 0
2, 95015, Note_on_c, 0, 57, 0
2, 95019, Control_c, 0, 64, 60
2, 95026, Note_on_c, 0, 75, 0
2, 95037, Control_c, 0, 64, 57
2, 95057, Control_c, 0, 64, 53
2, 95076, Control_c, 0, 64, 46
2, 95095, Control_c, 0, 64, 34
2, 95114, Control_c, 0, 64, 23
2, 95134, Control_c, 0, 64, 19
2, 95153, Control_c, 0, 64, 13
2, 95172, Control_c, 0, 64, 0
2, 95320, Note_on_c, 0, 71, 65
2, 95445, Note_on_c, 0, 76, 0
2, 95642, Note_on_c, 0, 54, 53
2, 95665, Note_on_c, 0, 70, 62
2, 95677, Note_on_c, 0, 71, 0
2, 95740, Note_on_c, 0, 49, 0
2, 95768, Control_c, 0, 67, 10
2, 95786, Control_c, 0, 67, 19
2, 95806, Control_c, 0, 67, 28
2, 95825, Control_c, 0, 67, 39
2, 95845, Control_c, 0, 67, 57
2, 95863, Control_c, 0, 67, 79
2, 95883, Control_c, 0, 67, 103
2, 95902, Control_c, 0, 67, 127
2, 95978, Note_on_c, 0, 70, 0
2, 95978, Note_on_c, 0, 76, 66
2, 96223, Note_on_c, 0, 76, 0
2, 96297, Note_on_c, 0, 59, 66
2, 96310, Note_on_c, 0, 76, 69
2, 96353, Note_on_c, 0, 61, 0
2, 96365, Note_on_c, 0, 76, 0
2, 96376, Note_on_c, 0, 74, 66
2, 96382, Note_on_c, 0, 54, 0
2, 96415, Note_on_c, 0, 74, 0
2, 96433, Note_on_c, 0, 76, 70
2, 96505, Note_on_c, 0, 76, 0
2, 96840, Note_on_c, 0, 73, 68
2, 97176, Note_on_c, 0, 71, 60
2, 97285, Note_on_c, 0, 73, 0
2, 97513, Note_on_c, 0, 54, 53
2, 97705, Note_on_c, 0, 59, 0
2, 97835, Note_on_c, 0, 50, 55
2, 97900, Control_c, 0, 67, 123
2, 97918, Control_c, 0, 67, 111
2, 97938, Control_c, 0, 67, 96
2, 97951, Note_on_c, 0, 54, 0
2, 97957, Control_c, 0, 67, 80
2, 97976, Control_c, 0, 67, 66
2, 97995, Control_c, 0, 67, 56
2, 98015, Control_c, 0, 67, 46
2, 98034, Control_c, 0, 67, 36
2, 98053, Control_c, 0, 67, 24
2, 98072, Control_c, 0, 67, 12
2, 98092, Control_c, 0, 67, 0
2, 98148, Note_on_c, 0, 66, 64
2, 98157, Note_on_c, 0, 47, 50
2, 98241, Note_on_c, 0, 71, 0
2, 98262, Note_on_c, 0, 50, 0
2, 98484, Note_on_c, 0, 71, 74
2, 98493, Note_on_c, 0, 50, 68
2, 98549, Note_on_c, 0, 66, 0
2, 98599, Note_on_c, 0, 47, 0
2, 98808, Note_on_c, 0, 73, 76
2, 98812, Note_on_c, 0, 54, 73
2, 98877, Note_on_c, 0, 71, 0
2, 98914, Note_on_c, 0, 50, 0
2, 99145, Note_on_c, 0, 59, 76
2, 99151, Note_on_c, 0, 74, 68
2, 99194, Note_on_c, 0, 54, 0
2, 99250, Note_on_c, 0, 73, 0
2, 99479, Note_on_c, 0, 71, 64
2, 99599, Note_on_c, 0, 74, 0
2, 99795, Note_on_c, 0, 62, 40
2, 99803, Note_on_c, 0, 68, 59
2, 99871, Note_on_c, 0, 71, 0
2, 100178, Note_on_c, 0, 77, 70
2, 100300, Note_on_c, 0, 68, 0
2, 100561, Note_on_c, 0, 57, 38
2, 100563, Note_on_c, 0, 61, 42
2, 100605, Note_on_c, 0, 59, 0
2, 100611, Note_on_c, 0, 78, 74
2, 100645, Note_on_c, 0, 62, 0
2, 100689, Note_on_c, 0, 77, 0
2, 101028, Note_on_c, 0, 73, 62
2, 101184, Note_on_c, 0, 78, 0
2, 101327, Note_on_c, 0, 59, 57
2, 101329, Note_on_c, 0, 56, 51
2, 101385, Note_on_c, 0, 57, 0
2, 101439, Note_on_c, 0, 61, 0
2, 101638, Note_on_c, 0, 77, 78
2, 101700, Control_c, 0, 64, 9
2, 101719, Control_c, 0, 64, 13
2, 101739, Control_c, 0, 64, 18
2, 101757, Control_c, 0, 64, 21
2, 101777, Control_c, 0, 64, 23
2, 101796, Control_c, 0, 64, 24
2, 101798, Note_on_c, 0, 73, 0
2, 101834, Control_c, 0, 64, 25
2, 101911, Control_c, 0, 64, 24
2, 101931, Control_c, 0, 64, 20
2, 101950, Control_c, 0, 64, 11
2, 101969, Control_c, 0, 64, 0
2, 101971, Note_on_c, 0, 57, 53
2, 101980, Note_on_c, 0, 54, 53
2, 101985, Note_on_c, 0, 78, 79
2, 102044, Note_on_c, 0, 77, 0
2, 102051, Note_on_c, 0, 56, 0
2, 102060, Note_on_c, 0, 59, 0
2, 102314, Control_c, 0, 64, 22
2, 102321, Note_on_c, 0, 73, 76
2, 102334, Control_c, 0, 64, 49
2, 102353, Control_c, 0, 64, 60
2, 102372, Control_c, 0, 64, 63
2, 102391, Control_c, 0, 64, 65
2, 102408, Note_on_c, 0, 57, 0
2, 102411, Control_c, 0, 64, 66
2, 102430, Control_c, 0, 64, 68
2, 102449, Control_c, 0, 64, 71
2, 102468, Control_c, 0, 64, 77
2, 102472, Note_on_c, 0, 78, 0
2, 102488, Control_c, 0, 64, 85
2, 102506, Control_c, 0, 64, 94
2, 102526, Control_c, 0, 64, 104
2, 102545, Control_c, 0, 64, 112
2, 102565, Control_c, 0, 64, 119
2, 102583, Control_c, 0, 64, 127
2, 102639, Note_on_c, 0, 61, 75
2, 102653, Note_on_c, 0, 57, 67
2, 102751, Note_on_c, 0, 54, 0
2, 102945, Note_on_c, 0, 77, 87
2, 103045, Control_c, 0, 64, 123
2, 103063, Control_c, 0, 64, 107
2, 103083, Control_c, 0, 64, 99
2, 103084, Note_on_c, 0, 73, 0
2, 103086, Note_on_c, 0, 51, 69
2, 103100, Note_on_c, 0, 61, 0
2, 103102, Control_c, 0, 64, 93
2, 103121, Control_c, 0, 64, 87
2, 103140, Control_c, 0, 64, 81
2, 103159, Control_c, 0, 64, 76
2, 103179, Control_c, 0, 64, 71
2, 103197, Control_c, 0, 64, 66
2, 103217, Control_c, 0, 64, 62
2, 103236, Control_c, 0, 64, 58
2, 103255, Control_c, 0, 64, 55
2, 103274, Control_c, 0, 64, 51
2, 103294, Control_c, 0, 64, 45
2, 103313, Control_c, 0, 64, 37
2, 103332, Control_c, 0, 64, 27
2, 103350, Note_on_c, 0, 63, 88
2, 103351, Control_c, 0, 64, 0
2, 103367, Note_on_c, 0, 78, 80
2, 103412, Note_on_c, 0, 57, 0
2, 103432, Note_on_c, 0, 77, 0
2, 103694, Note_on_c, 0, 73, 70
2, 103833, Note_on_c, 0, 78, 0
2, 104023, Note_on_c, 0, 56, 65
2, 104031, Note_on_c, 0, 72, 70
2, 104072, Note_on_c, 0, 73, 0
2, 104151, Note_on_c, 0, 51, 0
2, 104357, Note_on_c, 0, 78, 76
2, 104391, Note_on_c, 0, 72, 0
2, 104576, Note_on_c, 0, 78, 0
2, 104670, Note_on_c, 0, 61, 74
2, 104671, Note_on_c, 0, 78, 78
2, 104695, Note_on_c, 0, 63, 0
2, 104740, Note_on_c, 0, 78, 0
2, 104755, Note_on_c, 0, 76, 74
2, 104783, Note_on_c, 0, 56, 0
2, 104800, Note_on_c, 0, 78, 72
2, 104805, Note_on_c, 0, 76, 0
2, 104884, Note_on_c, 0, 76, 70
2, 104888, Note_on_c, 0, 78, 0
2, 105143, Note_on_c, 0, 75, 80
2, 105195, Note_on_c, 0, 76, 0
2, 105493, Note_on_c, 0, 73, 70
2, 105726, Note_on_c, 0, 75, 0
2, 105826, Note_on_c, 0, 56, 57
2, 105999, Note_on_c, 0, 61, 0
2, 106141, Note_on_c, 0, 52, 59
2, 106255, Note_on_c, 0, 56, 0
2, 106460, Note_on_c, 0, 68, 76
2, 106475, Note_on_c, 0, 49, 59
2, 106534, Note_on_c, 0, 73, 0
2, 106544, Note_on_c, 0, 52, 0
2, 106786, Note_on_c, 0, 73, 79
2, 106790, Note_on_c, 0, 52, 69
2, 106859, Note_on_c, 0, 68, 0
2, 106927, Note_on_c, 0, 49, 0
2, 107115, Note_on_c, 0, 75, 79
2, 107119, Note_on_c, 0, 56, 69
2, 107196, Note_on_c, 0, 73, 0
2, 107247, Note_on_c, 0, 52, 0
2, 107442, Note_on_c, 0, 76, 74
2, 107449, Note_on_c, 0, 61, 65
2, 107512, Note_on_c, 0, 75, 0
2, 107583, Note_on_c, 0, 56, 0
2, 107768, Note_on_c, 0, 73, 71
2, 107837, Note_on_c, 0, 76, 0
2, 108095, Note_on_c, 0, 70, 67
2, 108103, Note_on_c, 0, 52, 52
2, 108259, Note_on_c, 0, 73, 0
2, 108453, Note_on_c, 0, 79, 78
2, 108556, Note_on_c, 0, 70, 0
2, 108824, Note_on_c, 0, 50, 51
2, 108857, Note_on_c, 0, 78, 70
2, 108912, Note_on_c, 0, 52, 0
2, 109047, Note_on_c, 0, 79, 0
2, 109213, Note_on_c, 0, 74, 67
2, 109356, Note_on_c, 0, 78, 0
2, 109527, Note_on_c, 0, 54, 58
2, 109548, Note_on_c, 0, 71, 64
2, 109591, Note_on_c, 0, 74, 0
2, 109605, Note_on_c, 0, 61, 0
2, 109874, Note_on_c, 0, 70, 74
2, 109933, Note_on_c, 0, 71, 0
2, 110001, Note_on_c, 0, 50, 0
2, 110176, Note_on_c, 0, 50, 57
2, 110195, Note_on_c, 0, 71, 69
2, 110243, Note_on_c, 0, 70, 0
2, 110269, Note_on_c, 0, 54, 0
2, 110499, Note_on_c, 0, 47, 59
2, 110506, Note_on_c, 0, 66, 70
2, 110540, Note_on_c, 0, 71, 0
2, 110579, Note_on_c, 0, 50, 0
2, 110820, Note_on_c, 0, 71, 78
2, 110828, Note_on_c, 0, 50, 71
2, 110859, Note_on_c, 0, 66, 0
2, 110986, Note_on_c, 0, 47, 0
2, 111143, Note_on_c, 0, 54, 76
2, 111143, Note_on_c, 0, 74, 79
2, 111227, Note_on_c, 0, 71, 0
2, 111237, Note_on_c, 0, 50, 0
2, 111490, Note_on_c, 0, 59, 82
2, 111490, Note_on_c, 0, 78, 83
2, 111524, Note_on_c, 0, 74, 0
2, 111567, Note_on_c, 0, 54, 0
2, 111817, Note_on_c, 0, 74, 75
2, 111930, Note_on_c, 0, 78, 0
2, 112136, Note_on_c, 0, 54, 68
2, 112142, Note_on_c, 0, 51, 53
2, 112144, Note_on_c, 0, 72, 74
2, 112190, Note_on_c, 0, 74, 0
2, 112237, Note_on_c, 0, 59, 0
2, 112488, Note_on_c, 0, 81, 91
2, 112555, Note_on_c, 0, 72, 0
2, 112618, Note_on_c, 0, 52, 71
2, 112660, Note_on_c, 0, 54, 0
2, 112701, Note_on_c, 0, 51, 0
2, 112942, Note_on_c, 0, 80, 81
2, 112945, Note_on_c, 0, 61, 88
2, 113041, Note_on_c, 0, 81, 0
2, 113329, Note_on_c, 0, 76, 76
2, 113455, Note_on_c, 0, 80, 0
2, 113653, Note_on_c, 0, 73, 81
2, 113659, Note_on_c, 0, 56, 74
2, 113743, Note_on_c, 0, 61, 0
2, 113745, Note_on_c, 0, 76, 0
2, 113832, Control_c, 0, 64, 9
2, 113852, Control_c, 0, 64, 13
2, 113871, Control_c, 0, 64, 15
2, 113890, Control_c, 0, 64, 17
2, 113929, Control_c, 0, 64, 18
2, 113948, Control_c, 0, 64, 20
2, 113967, Control_c, 0, 64, 21
2, 113980, Note_on_c, 0, 72, 78
2, 114006, Control_c, 0, 64, 22
2, 114044, Note_on_c, 0, 73, 0
2, 114083, Control_c, 0, 64, 23
2, 114132, Note_on_c, 0, 52, 0
2, 114178, Control_c, 0, 64, 24
2, 114197, Control_c, 0, 64, 25
2, 114217, Control_c, 0, 64, 26
2, 114311, Note_on_c, 0, 52, 63
2, 114315, Note_on_c, 0, 73, 82
2, 114356, Note_on_c, 0, 72, 0
2, 114370, Control_c, 0, 64, 27
2, 114428, Control_c, 0, 64, 27
2, 114447, Control_c, 0, 64, 28
2, 114450, Note_on_c, 0, 56, 0
2, 114466, Control_c, 0, 64, 29
2, 114486, Control_c, 0, 64, 31
2, 114524, Control_c, 0, 64, 31
2, 114562, Control_c, 0, 64, 32
2, 114581, Control_c, 0, 64, 33
2, 114600, Control_c, 0, 64, 35
2, 114620, Control_c, 0, 64, 36
2, 114639, Control_c, 0, 64, 37
2, 114646, Note_on_c, 0, 68, 86
2, 114650, Note_on_c, 0, 49, 61
2, 114677, Control_c, 0, 64, 37
2, 114729, Note_on_c, 0, 73, 0
2, 114748, Note_on_c, 0, 52, 0
2, 114754, Control_c, 0, 64, 37
2, 114792, Control_c, 0, 64, 36
2, 114889, Control_c, 0, 64, 36
2, 114908, Control_c, 0, 64, 35
2, 114927, Control_c, 0, 64, 34
2, 114946, Control_c, 0, 64, 32
2, 114955, Note_on_c, 0, 73, 87
2, 114966, Control_c, 0, 64, 31
2, 114966, Note_on_c, 0, 52, 75
2, 115004, Control_c, 0, 64, 30
2, 115021, Note_on_c, 0, 68, 0
2, 115023, Control_c, 0, 64, 29
2, 115042, Control_c, 0, 64, 28
2, 115061, Control_c, 0, 64, 26
2, 115080, Control_c, 0, 64, 23
2, 115100, Control_c, 0, 64, 21
2, 115119, Control_c, 0, 64, 20
2, 115130, Note_on_c, 0, 49, 0
2, 115138, Control_c, 0, 64, 19
2, 115157, Control_c, 0, 64, 17
2, 115177, Control_c, 0, 64, 15
2, 115195, Control_c, 0, 64, 13
2, 115215, Control_c, 0, 64, 11
2, 115234, Control_c, 0, 64, 9
2, 115290, Note_on_c, 0, 76, 85
2, 115292, Control_c, 0, 64, 0
2, 115295, Note_on_c, 0, 56, 77
2, 115553, Note_on_c, 0, 52, 0
2, 115623, Note_on_c, 0, 80, 91
2, 115626, Note_on_c, 0, 61, 72
2, 115658, Note_on_c, 0, 76, 0
2, 115660, Note_on_c, 0, 73, 0
2, 115675, Control_c, 0, 64, 9
2, 115706, Note_on_c, 0, 56, 0
2, 115772, Control_c, 0, 64, 11
2, 115983, Control_c, 0, 64, 9
2, 115983, Note_on_c, 0, 77, 86
2, 116046, Note_on_c, 0, 80, 0
2, 116297, Note_on_c, 0, 56, 68
2, 116301, Note_on_c, 0, 53, 57
2, 116305, Note_on_c, 0, 74, 81
2, 116309, Control_c, 0, 64, 0
2, 116348, Note_on_c, 0, 77, 0
2, 116393, Note_on_c, 0, 61, 0
2, 116714, Note_on_c, 0, 83, 95
2, 116815, Note_on_c, 0, 74, 0
2, 116943, Control_c, 0, 64, 9
2, 117000, Control_c, 0, 64, 13
2, 117020, Control_c, 0, 64, 15
2, 117039, Control_c, 0, 64, 17
2, 117120, Note_on_c, 0, 54, 63
2, 117199, Note_on_c, 0, 81, 91
2, 117247, Note_on_c, 0, 56, 0
2, 117280, Note_on_c, 0, 53, 0
2, 117301, Note_on_c, 0, 83, 0
2, 117627, Note_on_c, 0, 78, 82
2, 117681, Note_on_c, 0, 81, 0
2, 117947, Note_on_c, 0, 56, 65
2, 117961, Control_c, 0, 64, 18
2, 118253, Note_on_c, 0, 77, 83
2, 118322, Note_on_c, 0, 78, 0
2, 118480, Control_c, 0, 64, 17
2, 118500, Control_c, 0, 64, 15
2, 118519, Control_c, 0, 64, 13
2, 118539, Control_c, 0, 64, 11
2, 118557, Control_c, 0, 64, 0
2, 118595, Note_on_c, 0, 78, 76
2, 118600, Note_on_c, 0, 57, 54
2, 118674, Note_on_c, 0, 77, 0
2, 118676, Note_on_c, 0, 56, 0
2, 118952, Note_on_c, 0, 74, 79
2, 119231, Note_on_c, 0, 78, 0
2, 119276, Note_on_c, 0, 56, 64
2, 119284, Note_on_c, 0, 52, 53
2, 119355, Note_on_c, 0, 57, 0
2, 119365, Note_on_c, 0, 54, 0
2, 119638, Note_on_c, 0, 73, 80
2, 119692, Control_c, 0, 64, 25
2, 119710, Control_c, 0, 64, 57
2, 119721, Note_on_c, 0, 74, 0
2, 119730, Control_c, 0, 64, 66
2, 119749, Control_c, 0, 64, 71
2, 119769, Control_c, 0, 64, 81
2, 119787, Control_c, 0, 64, 98
2, 119807, Control_c, 0, 64, 127
2, 119942, Note_on_c, 0, 73, 0
2, 120018, Control_c, 0, 64, 108
2, 120021, Note_on_c, 0, 51, 48
2, 120031, Note_on_c, 0, 54, 64
2, 120037, Control_c, 0, 64, 84
2, 120049, Note_on_c, 0, 73, 85
2, 120055, Note_on_c, 0, 52, 0
2, 120056, Control_c, 0, 64, 70
2, 120075, Control_c, 0, 64, 62
2, 120095, Control_c, 0, 64, 54
2, 120114, Control_c, 0, 64, 49
2, 120133, Control_c, 0, 64, 48
2, 120152, Control_c, 0, 64, 46
2, 120172, Control_c, 0, 64, 41
2, 120190, Control_c, 0, 64, 30
2, 120210, Control_c, 0, 64, 11
2, 120229, Control_c, 0, 64, 0
2, 120230, Note_on_c, 0, 56, 0
2, 120470, Note_on_c, 0, 72, 77
2, 120642, Note_on_c, 0, 73, 0
2, 120877, Note_on_c, 0, 56, 63
2, 120893, Note_on_c, 0, 50, 55
2, 121032, Note_on_c, 0, 54, 0
2, 121060, Note_on_c, 0, 51, 0
2, 121463, Note_on_c, 0, 78, 81
2, 121615, Note_on_c, 0, 72, 0
2, 121628, Control_c, 0, 64, 43
2, 121647, Control_c, 0, 64, 60
2, 121666, Control_c, 0, 64, 65
2, 121686, Control_c, 0, 64, 70
2, 121705, Control_c, 0, 64, 81
2, 121723, Control_c, 0, 64, 107
2, 121743, Control_c, 0, 64, 127
2, 121935, Note_on_c, 0, 78, 0
2, 122486, Note_on_c, 0, 78, 88
2, 122493, Note_on_c, 0, 57, 51
2, 122493, Note_on_c, 0, 73, 78
2, 122500, Note_on_c, 0, 49, 55
2, 122569, Control_c, 0, 64, 96
2, 122588, Control_c, 0, 64, 78
2, 122607, Control_c, 0, 64, 65
2, 122610, Note_on_c, 0, 50, 0
2, 122626, Control_c, 0, 64, 57
2, 122646, Control_c, 0, 64, 51
2, 122660, Note_on_c, 0, 56, 0
2, 122665, Control_c, 0, 64, 50
2, 122683, Control_c, 0, 64, 48
2, 122703, Control_c, 0, 64, 43
2, 122722, Control_c, 0, 64, 31
2, 122741, Control_c, 0, 64, 0
2, 123394, Control_c, 0, 67, 8
2, 123414, Control_c, 0, 67, 16
2, 123432, Control_c, 0, 67, 27
2, 123452, Control_c, 0, 67, 41
2, 123471, Control_c, 0, 67, 58
2, 123490, Control_c, 0, 67, 79
2, 123509, Control_c, 0, 67, 99
2, 123529, Control_c, 0, 67, 122
2, 123548, Control_c, 0, 67, 127
2, 124403, Note_on_c, 0, 77, 62
2, 124427, Note_on_c, 0, 56, 35
2, 124532, Note_on_c, 0, 78, 0
2, 124561, Note_on_c, 0, 57, 0
2, 124820, Note_on_c, 0, 75, 69
2, 124842, Note_on_c, 0, 54, 37
2, 124908, Note_on_c, 0, 77, 0
2, 124937, Note_on_c, 0, 56, 0
2, 125097, Note_on_c, 0, 56, 49
2, 125110, Note_on_c, 0, 77, 81
2, 125194, Note_on_c, 0, 75, 0
2, 125236, Note_on_c, 0, 54, 0
2, 125362, Note_on_c, 0, 78, 72
2, 125385, Note_on_c, 0, 57, 45
2, 125406, Note_on_c, 0, 77, 0
2, 125414, Note_on_c, 0, 56, 0
2, 125569, Note_on_c, 0, 77, 75
2, 125591, Note_on_c, 0, 56, 56
2, 125599, Note_on_c, 0, 78, 0
2, 125614, Note_on_c, 0, 57, 0
2, 125769, Note_on_c, 0, 78, 69
2, 125778, Note_on_c, 0, 56, 0
2, 125785, Note_on_c, 0, 57, 51
2, 125801, Note_on_c, 0, 77, 0
2, 125980, Note_on_c, 0, 77, 66
2, 125995, Note_on_c, 0, 56, 47
2, 126004, Note_on_c, 0, 57, 0
2, 126017, Note_on_c, 0, 78, 0
2, 126218, Note_on_c, 0, 57, 34
2, 126220, Note_on_c, 0, 78, 62
2, 126253, Note_on_c, 0, 56, 0
2, 126258, Note_on_c, 0, 77, 0
2, 126464, Note_on_c, 0, 77, 59
2, 126478, Note_on_c, 0, 56, 42
2, 126560, Note_on_c, 0, 78, 0
2, 126576, Note_on_c, 0, 57, 0
2, 126818, Note_on_c, 0, 78, 61
2, 126826, Note_on_c, 0, 57, 27
2, 126923, Note_on_c, 0, 77, 0
2, 126924, Note_on_c, 0, 56, 0
2, 127195, Note_on_c, 0, 77, 55
2, 127206, Note_on_c, 0, 56, 43
2, 127305, Note_on_c, 0, 78, 0
2, 127364, Note_on_c, 0, 57, 0
2, 127717, Note_on_c, 0, 75, 54
2, 127735, Note_on_c, 0, 54, 29
2, 127891, Note_on_c, 0, 56, 0
2, 127926, Note_on_c, 0, 77, 0
2, 128623, Note_on_c, 0, 77, 59
2, 128633, Note_on_c, 0, 56, 37
2, 128675, Note_on_c, 0, 75, 0
2, 128680, Note_on_c, 0, 54, 0
2, 128836, Note_on_c, 0, 75, 60
2, 128839, Note_on_c, 0, 54, 37
2, 128861, Note_on_c, 0, 77, 0
2, 128927, Note_on_c, 0, 56, 0
2, 129130, Note_on_c, 0, 77, 58
2, 129166, Note_on_c, 0, 56, 10
2, 129304, Note_on_c, 0, 75, 0
2, 129381, Note_on_c, 0, 54, 0
2, 131344, Note_on_c, 0, 73, 0
2, 131405, Note_on_c, 0, 56, 0
2, 131527, Note_on_c, 0, 49, 0
2, 131528, Note_on_c, 0, 77, 0
2, 133556, Note_on_c, 0, 47, 37
2, 133838, Note_on_c, 0, 49, 51
2, 133953, Note_on_c, 0, 47, 0
2, 134062, Note_on_c, 0, 50, 55
2, 134085, Note_on_c, 0, 49, 0
2, 134295, Note_on_c, 0, 49, 63
2, 134364, Note_on_c, 0, 50, 0
2, 134500, Note_on_c, 0, 47, 60
2, 134582, Note_on_c, 0, 49, 0
2, 134728, Note_on_c, 0, 45, 57
2, 134743, Note_on_c, 0, 47, 0
2, 134967, Note_on_c, 0, 47, 49
2, 135000, Note_on_c, 0, 45, 0
2, 135214, Note_on_c, 0, 45, 40
2, 135282, Note_on_c, 0, 47, 0
2, 135486, Note_on_c, 0, 44, 39
2, 135622, Note_on_c, 0, 45, 0
2, 135959, Note_on_c, 0, 42, 37
2, 136016, Note_on_c, 0, 78, 69
2, 136091, Note_on_c, 0, 44, 0
2, 136277, Control_c, 0, 64, 45
2, 136297, Control_c, 0, 64, 61
2, 136315, Control_c, 0, 64, 66
2, 136335, Control_c, 0, 64, 70
2, 136354, Control_c, 0, 64, 80
2, 136374, Control_c, 0, 64, 104
2, 136376, Note_on_c, 0, 42, 0
2, 136392, Control_c, 0, 64, 127
2, 136971, Note_on_c, 0, 54, 36
2, 136971, Note_on_c, 0, 57, 35
2, 136972, Note_on_c, 0, 73, 52
2, 137063, Control_c, 0, 64, 115
2, 137081, Control_c, 0, 64, 95
2, 137101, Control_c, 0, 64, 84
2, 137120, Control_c, 0, 64, 75
2, 137140, Control_c, 0, 64, 68
2, 137158, Control_c, 0, 64, 64
2, 137178, Control_c, 0, 64, 60
2, 137197, Control_c, 0, 64, 57
2, 137216, Control_c, 0, 64, 57
2, 137255, Control_c, 0, 64, 56
2, 137274, Control_c, 0, 64, 55
2, 137293, Control_c, 0, 64, 53
2, 137312, Control_c, 0, 64, 50
2, 137332, Control_c, 0, 64, 48
2, 137350, Control_c, 0, 64, 46
2, 137370, Control_c, 0, 64, 46
2, 137380, Note_on_c, 0, 78, 0
2, 137389, Control_c, 0, 64, 45
2, 137409, Control_c, 0, 64, 43
2, 137427, Control_c, 0, 64, 41
2, 137446, Control_c, 0, 64, 39
2, 137466, Control_c, 0, 64, 35
2, 137485, Control_c, 0, 64, 33
2, 137504, Control_c, 0, 64, 32
2, 137524, Control_c, 0, 64, 31
2, 137544, Control_c, 0, 64, 31
2, 137562, Control_c, 0, 64, 30
2, 137582, Control_c, 0, 64, 29
2, 137601, Control_c, 0, 64, 25
2, 137620, Control_c, 0, 64, 22
2, 137639, Control_c, 0, 64, 21
2, 137657, Note_on_c, 0, 61, 41
2, 137697, Control_c, 0, 64, 20
2, 137890, Control_c, 0, 64, 21
2, 137908, Control_c, 0, 64, 22
2, 137915, Note_on_c, 0, 57, 0
2, 137965, Control_c, 0, 64, 24
2, 137985, Control_c, 0, 64, 25
2, 138004, Control_c, 0, 64, 27
2, 138024, Control_c, 0, 64, 27
2, 138081, Control_c, 0, 64, 28
2, 138100, Control_c, 0, 64, 29
2, 138119, Control_c, 0, 64, 29
2, 138177, Control_c, 0, 64, 30
2, 138196, Control_c, 0, 64, 31
2, 138235, Control_c, 0, 64, 31
2, 138293, Control_c, 0, 64, 32
2, 138311, Control_c, 0, 64, 33
2, 138326, Note_on_c, 0, 66, 43
2, 138331, Control_c, 0, 64, 34
2, 138334, Note_on_c, 0, 69, 59
2, 138408, Control_c, 0, 64, 34
2, 138433, Note_on_c, 0, 61, 0
2, 138436, Note_on_c, 0, 73, 0
2, 138484, Control_c, 0, 64, 35
2, 138542, Control_c, 0, 64, 35
2, 138580, Control_c, 0, 64, 36
2, 138653, Note_on_c, 0, 56, 48
2, 138657, Control_c, 0, 64, 36
2, 138657, Note_on_c, 0, 71, 64
2, 138696, Control_c, 0, 64, 37
2, 138715, Control_c, 0, 64, 37
2, 138734, Control_c, 0, 64, 38
2, 138753, Control_c, 0, 64, 39
2, 138753, Control_c, 0, 67, 120
2, 138773, Control_c, 0, 64, 39
2, 138773, Control_c, 0, 67, 113
2, 138785, Note_on_c, 0, 69, 0
2, 138791, Control_c, 0, 67, 106
2, 138811, Control_c, 0, 67, 98
2, 138830, Control_c, 0, 67, 88
2, 138850, Control_c, 0, 67, 78
2, 138857, Note_on_c, 0, 54, 0
2, 138868, Control_c, 0, 67, 68
2, 138888, Control_c, 0, 67, 58
2, 138907, Control_c, 0, 64, 39
2, 138907, Control_c, 0, 67, 50
2, 138925, Control_c, 0, 67, 44
2, 138945, Control_c, 0, 67, 39
2, 138964, Control_c, 0, 64, 38
2, 138964, Control_c, 0, 67, 34
2, 138984, Control_c, 0, 64, 38
2, 138984, Control_c, 0, 67, 29
2, 139002, Control_c, 0, 67, 24
2, 139006, Note_on_c, 0, 57, 44
2, 139014, Note_on_c, 0, 73, 64
2, 139022, Control_c, 0, 67, 20
2, 139041, Control_c, 0, 67, 16
2, 139060, Control_c, 0, 67, 11
2, 139067, Note_on_c, 0, 56, 0
2, 139079, Control_c, 0, 64, 37
2, 139079, Control_c, 0, 67, 0
2, 139112, Note_on_c, 0, 71, 0
2, 139253, Note_on_c, 0, 71, 72
2, 139348, Control_c, 0, 64, 36
2, 139368, Control_c, 0, 64, 36
2, 139381, Note_on_c, 0, 73, 0
2, 139387, Control_c, 0, 64, 35
2, 139439, Note_on_c, 0, 69, 74
2, 139479, Note_on_c, 0, 71, 0
2, 139521, Control_c, 0, 64, 35
2, 139574, Note_on_c, 0, 66, 0
2, 139579, Control_c, 0, 64, 34
2, 139598, Control_c, 0, 64, 34
2, 139617, Control_c, 0, 64, 32
2, 139626, Note_on_c, 0, 65, 59
2, 139633, Note_on_c, 0, 61, 53
2, 139636, Control_c, 0, 64, 31
2, 139639, Note_on_c, 0, 71, 63
2, 139656, Control_c, 0, 64, 31
2, 139675, Control_c, 0, 64, 30
2, 139694, Control_c, 0, 64, 29
2, 139701, Note_on_c, 0, 69, 0
2, 139713, Control_c, 0, 64, 28
2, 139751, Control_c, 0, 64, 27
2, 139771, Control_c, 0, 64, 27
2, 139780, Note_on_c, 0, 57, 0
2, 139790, Control_c, 0, 64, 26
2, 139810, Control_c, 0, 64, 24
2, 139828, Control_c, 0, 64, 23
2, 139848, Control_c, 0, 64, 21
2, 139853, Note_on_c, 0, 69, 65
2, 139867, Control_c, 0, 64, 18
2, 139885, Control_c, 0, 64, 15
2, 139924, Control_c, 0, 64, 13
2, 139944, Control_c, 0, 64, 11
2, 139962, Control_c, 0, 64, 9
2, 139982, Control_c, 0, 64, 0
2, 140055, Note_on_c, 0, 65, 0
2, 140059, Note_on_c, 0, 68, 65
2, 140060, Note_on_c, 0, 54, 43
2, 140122, Note_on_c, 0, 69, 0
2, 140168, Note_on_c, 0, 71, 0
2, 140384, Note_on_c, 0, 66, 78
2, 140391, Note_on_c, 0, 69, 71
2, 140487, Note_on_c, 0, 68, 0
2, 140530, Note_on_c, 0, 61, 0
2, 140772, Note_on_c, 0, 71, 59
2, 140852, Note_on_c, 0, 69, 0
2, 141098, Note_on_c, 0, 61, 66
2, 141123, Note_on_c, 0, 69, 61
2, 141265, Note_on_c, 0, 66, 0
2, 141280, Note_on_c, 0, 71, 0
2, 141431, Note_on_c, 0, 68, 58
2, 141529, Note_on_c, 0, 69, 0
2, 141770, Note_on_c, 0, 69, 62
2, 141816, Note_on_c, 0, 68, 0
2, 142075, Note_on_c, 0, 73, 62
2, 142140, Note_on_c, 0, 69, 0
2, 142396, Note_on_c, 0, 57, 55
2, 142398, Note_on_c, 0, 78, 63
2, 142524, Note_on_c, 0, 73, 0
2, 142606, Note_on_c, 0, 61, 0
2, 142715, Note_on_c, 0, 80, 71
2, 142724, Note_on_c, 0, 59, 66
2, 142849, Note_on_c, 0, 78, 0
2, 142857, Note_on_c, 0, 57, 0
2, 143104, Note_on_c, 0, 61, 53
2, 143118, Note_on_c, 0, 81, 68
2, 143184, Note_on_c, 0, 80, 0
2, 143210, Note_on_c, 0, 59, 0
2, 143365, Note_on_c, 0, 59, 65
2, 143367, Note_on_c, 0, 80, 70
2, 143494, Note_on_c, 0, 81, 0
2, 143499, Note_on_c, 0, 61, 0
2, 143549, Note_on_c, 0, 57, 58
2, 143556, Note_on_c, 0, 78, 72
2, 143585, Note_on_c, 0, 59, 0
2, 143611, Note_on_c, 0, 80, 0
2, 143748, Note_on_c, 0, 59, 59
2, 143754, Note_on_c, 0, 80, 74
2, 143779, Note_on_c, 0, 57, 0
2, 143790, Note_on_c, 0, 78, 0
2, 143941, Note_on_c, 0, 78, 68
2, 143948, Note_on_c, 0, 57, 55
2, 144090, Note_on_c, 0, 80, 0
2, 144118, Note_on_c, 0, 59, 0
2, 144131, Note_on_c, 0, 77, 69
2, 144149, Note_on_c, 0, 56, 43
2, 144177, Note_on_c, 0, 78, 0
2, 144190, Note_on_c, 0, 57, 0
2, 144412, Note_on_c, 0, 57, 26
2, 144445, Note_on_c, 0, 78, 55
2, 144536, Note_on_c, 0, 77, 0
2, 144550, Note_on_c, 0, 56, 0
2, 144857, Note_on_c, 0, 73, 46
2, 145010, Note_on_c, 0, 78, 0
2, 145174, Note_on_c, 0, 59, 43
2, 145178, Note_on_c, 0, 56, 39
2, 145345, Note_on_c, 0, 54, 0
2, 145413, Note_on_c, 0, 57, 0
2, 145498, Note_on_c, 0, 77, 71
2, 145621, Note_on_c, 0, 73, 0
2, 145833, Note_on_c, 0, 78, 65
2, 145835, Note_on_c, 0, 57, 46
2, 145850, Note_on_c, 0, 61, 28
2, 145936, Note_on_c, 0, 77, 0
2, 145958, Note_on_c, 0, 56, 0
2, 145986, Note_on_c, 0, 59, 0
2, 146180, Note_on_c, 0, 73, 61
2, 146286, Note_on_c, 0, 78, 0
2, 146486, Note_on_c, 0, 59, 48
2, 146500, Note_on_c, 0, 56, 37
2, 146502, Note_on_c, 0, 57, 0
2, 146596, Note_on_c, 0, 61, 0
2, 146824, Note_on_c, 0, 77, 61
2, 146949, Note_on_c, 0, 73, 0
2, 147159, Note_on_c, 0, 78, 57
2, 147160, Note_on_c, 0, 57, 46
2, 147187, Note_on_c, 0, 77, 0
2, 147188, Note_on_c, 0, 54, 36
2, 147216, Note_on_c, 0, 59, 0
2, 147221, Note_on_c, 0, 56, 0
2, 147491, Note_on_c, 0, 74, 57
2, 147623, Note_on_c, 0, 78, 0
2, 147830, Note_on_c, 0, 52, 28
2, 147831, Note_on_c, 0, 73, 48
2, 147851, Note_on_c, 0, 55, 38
2, 147885, Note_on_c, 0, 74, 0
2, 147927, Note_on_c, 0, 57, 0
2, 147971, Note_on_c, 0, 54, 0
2, 148193, Note_on_c, 0, 82, 88
2, 148324, Note_on_c, 0, 73, 0
2, 148601, Note_on_c, 0, 50, 32
2, 148606, Note_on_c, 0, 54, 41
2, 148621, Note_on_c, 0, 83, 82
2, 148706, Note_on_c, 0, 52, 0
2, 148717, Note_on_c, 0, 82, 0
2, 148743, Note_on_c, 0, 55, 0
2, 149108, Note_on_c, 0, 78, 65
2, 149398, Note_on_c, 0, 83, 0
2, 149407, Note_on_c, 0, 52, 49
2, 149423, Note_on_c, 0, 49, 47
2, 149527, Note_on_c, 0, 50, 0
2, 149542, Note_on_c, 0, 54, 0
2, 149718, Note_on_c, 0, 82, 85
2, 149882, Note_on_c, 0, 78, 0
2, 150052, Note_on_c, 0, 54, 42
2, 150065, Note_on_c, 0, 83, 78
2, 150079, Note_on_c, 0, 50, 34
2, 150153, Note_on_c, 0, 82, 0
2, 150200, Note_on_c, 0, 52, 0
2, 150204, Note_on_c, 0, 49, 0
2, 150451, Note_on_c, 0, 78, 66
2, 150677, Note_on_c, 0, 83, 0
2, 150744, Note_on_c, 0, 61, 55
2, 150754, Note_on_c, 0, 52, 53
2, 150900, Note_on_c, 0, 54, 0
2, 150911, Note_on_c, 0, 50, 0
2, 151057, Note_on_c, 0, 82, 82
2, 151394, Note_on_c, 0, 54, 46
2, 151419, Note_on_c, 0, 83, 73
2, 151420, Note_on_c, 0, 50, 37
2, 151467, Note_on_c, 0, 78, 0
2, 151496, Note_on_c, 0, 82, 0
2, 151545, Note_on_c, 0, 61, 0
2, 151615, Note_on_c, 0, 52, 0
2, 151675, Note_on_c, 0, 81, 71
2, 151769, Note_on_c, 0, 83, 0
2, 151791, Control_c, 0, 67, 13
2, 151811, Control_c, 0, 67, 29
2, 151829, Control_c, 0, 67, 53
2, 151848, Control_c, 0, 67, 76
2, 151868, Control_c, 0, 67, 100
2, 151880, Note_on_c, 0, 80, 69
2, 151886, Control_c, 0, 67, 124
2, 151906, Control_c, 0, 67, 127
2, 151935, Note_on_c, 0, 81, 0
2, 152105, Note_on_c, 0, 49, 40
2, 152105, Note_on_c, 0, 81, 62
2, 152148, Note_on_c, 0, 80, 0
2, 152168, Note_on_c, 0, 50, 0
2, 152334, Note_on_c, 0, 80, 55
2, 152516, Note_on_c, 0, 81, 0
2, 152572, Note_on_c, 0, 78, 56
2, 152661, Note_on_c, 0, 80, 0
2, 152992, Note_on_c, 0, 47, 30
2, 153013, Note_on_c, 0, 59, 26
2, 153049, Note_on_c, 0, 79, 57
2, 153146, Note_on_c, 0, 78, 0
2, 153202, Note_on_c, 0, 54, 0
2, 153220, Note_on_c, 0, 49, 0
2, 153401, Control_c, 0, 64, 31
2, 153421, Control_c, 0, 64, 57
2, 153440, Control_c, 0, 64, 63
2, 153460, Control_c, 0, 64, 66
2, 153478, Control_c, 0, 64, 69
2, 153498, Control_c, 0, 64, 74
2, 153517, Control_c, 0, 64, 83
2, 153536, Control_c, 0, 64, 93
2, 153555, Control_c, 0, 64, 107
2, 153564, Note_on_c, 0, 47, 0
2, 153575, Control_c, 0, 64, 127
2, 153579, Note_on_c, 0, 74, 44
2, 153626, Note_on_c, 0, 59, 0
2, 153742, Note_on_c, 0, 79, 0
2, 153997, Control_c, 0, 64, 105
2, 154006, Note_on_c, 0, 62, 28
2, 154016, Control_c, 0, 64, 89
2, 154025, Note_on_c, 0, 59, 38
2, 154035, Control_c, 0, 64, 75
2, 154055, Control_c, 0, 64, 66
2, 154074, Control_c, 0, 64, 59
2, 154093, Control_c, 0, 64, 51
2, 154112, Control_c, 0, 64, 48
2, 154132, Control_c, 0, 64, 50
2, 154150, Control_c, 0, 64, 54
2, 154169, Control_c, 0, 64, 57
2, 154189, Control_c, 0, 64, 60
2, 154208, Control_c, 0, 64, 62
2, 154227, Control_c, 0, 64, 64
2, 154246, Control_c, 0, 64, 66
2, 154266, Control_c, 0, 64, 69
2, 154285, Control_c, 0, 64, 72
2, 154304, Control_c, 0, 64, 78
2, 154318, Note_on_c, 0, 78, 55
2, 154323, Control_c, 0, 64, 84
2, 154323, Note_on_c, 0, 62, 0
2, 154343, Control_c, 0, 64, 91
2, 154350, Note_on_c, 0, 59, 0
2, 154361, Control_c, 0, 64, 96
2, 154381, Control_c, 0, 64, 100
2, 154435, Note_on_c, 0, 74, 0
2, 154458, Control_c, 0, 64, 100
2, 154535, Control_c, 0, 64, 100
2, 154573, Control_c, 0, 64, 98
2, 154592, Control_c, 0, 64, 95
2, 154612, Control_c, 0, 64, 89
2, 154630, Control_c, 0, 64, 79
2, 154643, Note_on_c, 0, 79, 60
2, 154649, Control_c, 0, 64, 69
2, 154667, Note_on_c, 0, 62, 28
2, 154669, Control_c, 0, 64, 59
2, 154681, Note_on_c, 0, 59, 25
2, 154688, Control_c, 0, 64, 46
2, 154707, Control_c, 0, 64, 39
2, 154707, Note_on_c, 0, 78, 0
2, 154726, Control_c, 0, 64, 37
2, 154783, Control_c, 0, 64, 40
2, 154801, Control_c, 0, 64, 49
2, 154822, Control_c, 0, 64, 57
2, 154840, Control_c, 0, 64, 62
2, 154860, Control_c, 0, 64, 64
2, 154879, Control_c, 0, 64, 67
2, 154899, Control_c, 0, 64, 70
2, 154917, Control_c, 0, 64, 76
2, 154937, Control_c, 0, 64, 85
2, 154956, Control_c, 0, 64, 94
2, 154960, Note_on_c, 0, 62, 0
2, 154976, Control_c, 0, 64, 101
2, 154990, Note_on_c, 0, 74, 51
2, 154994, Control_c, 0, 64, 104
2, 154994, Note_on_c, 0, 59, 0
2, 155073, Note_on_c, 0, 79, 0
2, 155167, Control_c, 0, 64, 104
2, 155205, Control_c, 0, 64, 103
2, 155225, Control_c, 0, 64, 102
2, 155244, Control_c, 0, 64, 100
2, 155263, Control_c, 0, 64, 94
2, 155282, Control_c, 0, 64, 85
2, 155302, Control_c, 0, 64, 74
2, 155312, Note_on_c, 0, 62, 26
2, 155320, Control_c, 0, 64, 65
2, 155326, Note_on_c, 0, 59, 35
2, 155340, Control_c, 0, 64, 55
2, 155359, Control_c, 0, 64, 37
2, 155379, Control_c, 0, 64, 29
2, 155436, Control_c, 0, 64, 31
2, 155456, Control_c, 0, 64, 38
2, 155474, Control_c, 0, 64, 48
2, 155494, Control_c, 0, 64, 56
2, 155513, Control_c, 0, 64, 60
2, 155532, Control_c, 0, 64, 62
2, 155551, Control_c, 0, 64, 63
2, 155571, Control_c, 0, 64, 65
2, 155590, Control_c, 0, 64, 66
2, 155608, Control_c, 0, 64, 69
2, 155625, Note_on_c, 0, 78, 57
2, 155627, Note_on_c, 0, 62, 0
2, 155628, Control_c, 0, 64, 73
2, 155647, Control_c, 0, 64, 76
2, 155666, Control_c, 0, 64, 79
2, 155671, Note_on_c, 0, 59, 0
2, 155685, Control_c, 0, 64, 80
2, 155723, Note_on_c, 0, 74, 0
2, 155801, Control_c, 0, 64, 79
2, 155917, Control_c, 0, 64, 79
2, 155936, Control_c, 0, 64, 77
2, 155955, Control_c, 0, 64, 75
2, 155973, Note_on_c, 0, 79, 58
2, 155975, Control_c, 0, 64, 71
2, 155978, Note_on_c, 0, 59, 33
2, 155987, Note_on_c, 0, 62, 27
2, 155994, Control_c, 0, 64, 66
2, 156013, Control_c, 0, 64, 61
2, 156032, Control_c, 0, 64, 51
2, 156052, Control_c, 0, 64, 31
2, 156070, Control_c, 0, 64, 0
2, 156074, Note_on_c, 0, 78, 0
2, 156205, Control_c, 0, 64, 47
2, 156224, Control_c, 0, 64, 59
2, 156225, Note_on_c, 0, 81, 60
2, 156243, Control_c, 0, 64, 63
2, 156263, Control_c, 0, 64, 64
2, 156281, Control_c, 0, 64, 65
2, 156293, Note_on_c, 0, 79, 0
2, 156301, Control_c, 0, 64, 67
2, 156320, Control_c, 0, 64, 69
2, 156333, Note_on_c, 0, 62, 0
2, 156339, Note_on_c, 0, 59, 0
2, 156340, Control_c, 0, 64, 73
2, 156358, Control_c, 0, 64, 76
2, 156378, Control_c, 0, 64, 78
2, 156439, Note_on_c, 0, 83, 64
2, 156484, Note_on_c, 0, 81, 0
2, 156550, Control_c, 0, 64, 78
2, 156589, Control_c, 0, 64, 77
2, 156608, Control_c, 0, 64, 77
2, 156627, Control_c, 0, 64, 76
2, 156646, Control_c, 0, 64, 73
2, 156656, Note_on_c, 0, 62, 37
2, 156661, Note_on_c, 0, 81, 59
2, 156663, Note_on_c, 0, 59, 35
2, 156666, Control_c, 0, 64, 70
2, 156685, Control_c, 0, 64, 65
2, 156704, Control_c, 0, 64, 59
2, 156723, Control_c, 0, 64, 47
2, 156743, Control_c, 0, 64, 17
2, 156761, Control_c, 0, 64, 0
2, 156876, Note_on_c, 0, 80, 67
2, 156877, Control_c, 0, 64, 46
2, 156890, Note_on_c, 0, 83, 0
2, 156896, Control_c, 0, 64, 59
2, 156915, Control_c, 0, 64, 63
2, 156935, Control_c, 0, 64, 64
2, 156953, Note_on_c, 0, 59, 0
2, 156954, Control_c, 0, 64, 64
2, 157087, Note_on_c, 0, 78, 64
2, 157088, Control_c, 0, 64, 64
2, 157132, Note_on_c, 0, 81, 0
2, 157140, Note_on_c, 0, 80, 0
2, 157146, Control_c, 0, 64, 63
2, 157184, Control_c, 0, 64, 63
2, 157223, Control_c, 0, 64, 62
2, 157241, Control_c, 0, 64, 62
2, 157261, Control_c, 0, 64, 61
2, 157280, Control_c, 0, 64, 60
2, 157300, Control_c, 0, 64, 59
2, 157318, Control_c, 0, 64, 58
2, 157332, Note_on_c, 0, 77, 60
2, 157335, Note_on_c, 0, 59, 47
2, 157338, Control_c, 0, 64, 57
2, 157344, Note_on_c, 0, 61, 41
2, 157349, Note_on_c, 0, 78, 0
2, 157357, Control_c, 0, 64, 55
2, 157376, Control_c, 0, 64, 53
2, 157395, Control_c, 0, 64, 51
2, 157415, Control_c, 0, 64, 48
2, 157434, Control_c, 0, 64, 46
2, 157453, Control_c, 0, 64, 45
2, 157472, Control_c, 0, 64, 43
2, 157492, Control_c, 0, 64, 41
2, 157510, Control_c, 0, 64, 40
2, 157529, Control_c, 0, 64, 38
2, 157541, Note_on_c, 0, 62, 0
2, 157549, Control_c, 0, 64, 35
2, 157568, Control_c, 0, 64, 34
2, 157582, Note_on_c, 0, 78, 64
2, 157587, Control_c, 0, 64, 33
2, 157629, Note_on_c, 0, 77, 0
2, 157645, Control_c, 0, 64, 32
2, 157664, Control_c, 0, 64, 32
2, 157703, Control_c, 0, 64, 31
2, 157778, Note_on_c, 0, 80, 63
2, 157814, Note_on_c, 0, 78, 0
2, 157818, Control_c, 0, 64, 31
2, 157914, Control_c, 0, 64, 30
2, 158006, Note_on_c, 0, 78, 57
2, 158087, Note_on_c, 0, 80, 0
2, 158221, Note_on_c, 0, 77, 63
2, 158223, Note_on_c, 0, 78, 0
2, 158445, Note_on_c, 0, 75, 59
2, 158486, Note_on_c, 0, 77, 0
2, 158547, Control_c, 0, 64, 31
2, 158605, Control_c, 0, 64, 31
2, 158656, Note_on_c, 0, 61, 0
2, 158657, Note_on_c, 0, 73, 63
2, 158663, Control_c, 0, 64, 32
2, 158720, Note_on_c, 0, 59, 0
2, 158740, Control_c, 0, 64, 32
2, 158750, Note_on_c, 0, 75, 0
2, 158797, Control_c, 0, 64, 33
2, 158816, Control_c, 0, 64, 34
2, 158855, Control_c, 0, 64, 34
2, 158874, Control_c, 0, 64, 35
2, 158884, Note_on_c, 0, 71, 60
2, 158916, Note_on_c, 0, 73, 0
2, 158932, Control_c, 0, 64, 35
2, 158951, Control_c, 0, 64, 36
2, 158989, Control_c, 0, 64, 36
2, 159008, Control_c, 0, 64, 37
2, 159066, Control_c, 0, 64, 37
2, 159084, Note_on_c, 0, 73, 66
2, 159085, Control_c, 0, 64, 38
2, 159104, Control_c, 0, 64, 38
2, 159123, Control_c, 0, 64, 39
2, 159133, Note_on_c, 0, 71, 0
2, 159200, Control_c, 0, 64, 39
2, 159220, Control_c, 0, 64, 40
2, 159238, Control_c, 0, 64, 40
2, 159277, Control_c, 0, 64, 41
2, 159327, Note_on_c, 0, 56, 51
2, 159328, Note_on_c, 0, 74, 62
2, 159340, Note_on_c, 0, 53, 50
2, 159354, Control_c, 0, 64, 41
2, 159385, Note_on_c, 0, 73, 0
2, 159392, Control_c, 0, 64, 42
2, 159431, Control_c, 0, 64, 42
2, 159449, Control_c, 0, 64, 43
2, 159469, Control_c, 0, 67, 125
2, 159488, Control_c, 0, 67, 118
2, 159507, Control_c, 0, 67, 109
2, 159526, Control_c, 0, 67, 99
2, 159546, Control_c, 0, 67, 86
2, 159565, Control_c, 0, 64, 43
2, 159565, Control_c, 0, 67, 72
2, 159565, Note_on_c, 0, 73, 65
2, 159582, Control_c, 0, 64, 44
2, 159582, Control_c, 0, 67, 62
2, 159601, Control_c, 0, 67, 54
2, 159622, Control_c, 0, 67, 48
2, 159640, Control_c, 0, 67, 40
2, 159660, Control_c, 0, 67, 32
2, 159679, Control_c, 0, 67, 24
2, 159699, Control_c, 0, 64, 44
2, 159699, Control_c, 0, 67, 14
2, 159717, Control_c, 0, 67, 0
2, 159736, Note_on_c, 0, 74, 0
2, 159791, Note_on_c, 0, 71, 69
2, 159912, Note_on_c, 0, 73, 0
2, 160022, Note_on_c, 0, 69, 64
2, 160024, Note_on_c, 0, 54, 58
2, 160025, Control_c, 0, 64, 44
2, 160031, Note_on_c, 0, 61, 45
2, 160063, Control_c, 0, 64, 43
2, 160082, Control_c, 0, 64, 43
2, 160099, Note_on_c, 0, 71, 0
2, 160140, Control_c, 0, 64, 42
2, 160159, Control_c, 0, 64, 42
2, 160194, Note_on_c, 0, 53, 0
2, 160197, Control_c, 0, 64, 41
2, 160210, Note_on_c, 0, 56, 0
2, 160217, Control_c, 0, 64, 41
2, 160236, Control_c, 0, 64, 40
2, 160254, Note_on_c, 0, 71, 69
2, 160256, Control_c, 0, 64, 40
2, 160274, Control_c, 0, 64, 39
2, 160294, Control_c, 0, 64, 38
2, 160313, Control_c, 0, 64, 37
2, 160334, Note_on_c, 0, 69, 0
2, 160351, Control_c, 0, 64, 37
2, 160370, Control_c, 0, 64, 36
2, 160390, Control_c, 0, 64, 35
2, 160408, Control_c, 0, 64, 34
2, 160428, Control_c, 0, 64, 31
2, 160447, Control_c, 0, 64, 28
2, 160463, Note_on_c, 0, 73, 63
2, 160466, Control_c, 0, 64, 25
2, 160485, Control_c, 0, 64, 18
2, 160505, Control_c, 0, 64, 0
2, 160511, Note_on_c, 0, 71, 0
2, 160677, Note_on_c, 0, 49, 47
2, 160705, Note_on_c, 0, 71, 52
2, 160818, Note_on_c, 0, 54, 0
2, 160875, Note_on_c, 0, 73, 0
2, 160943, Note_on_c, 0, 69, 59
2, 161007, Note_on_c, 0, 71, 0
2, 161042, Control_c, 0, 64, 44
2, 161062, Control_c, 0, 64, 58
2, 161080, Control_c, 0, 64, 62
2, 161100, Control_c, 0, 64, 64
2, 161119, Control_c, 0, 64, 65
2, 161139, Control_c, 0, 64, 66
2, 161157, Control_c, 0, 64, 67
2, 161177, Control_c, 0, 64, 68
2, 161196, Control_c, 0, 64, 70
2, 161216, Control_c, 0, 64, 71
2, 161218, Note_on_c, 0, 68, 58
2, 161234, Control_c, 0, 64, 71
2, 161254, Control_c, 0, 64, 72
2, 161261, Note_on_c, 0, 69, 0
2, 161291, Control_c, 0, 64, 71
2, 161311, Note_on_c, 0, 49, 0
2, 161350, Control_c, 0, 64, 71
2, 161388, Control_c, 0, 64, 70
2, 161407, Control_c, 0, 64, 70
2, 161426, Control_c, 0, 64, 69
2, 161445, Control_c, 0, 64, 69
2, 161465, Control_c, 0, 64, 68
2, 161484, Control_c, 0, 64, 68
2, 161502, Control_c, 0, 64, 67
2, 161521, Control_c, 0, 64, 66
2, 161542, Control_c, 0, 64, 65
2, 161560, Control_c, 0, 64, 64
2, 161578, Control_c, 0, 64, 63
2, 161582, Note_on_c, 0, 66, 54
2, 161585, Note_on_c, 0, 50, 41
2, 161597, Control_c, 0, 64, 62
2, 161617, Control_c, 0, 64, 61
2, 161635, Control_c, 0, 64, 60
2, 161647, Note_on_c, 0, 68, 0
2, 161655, Control_c, 0, 64, 59
2, 161674, Control_c, 0, 64, 58
2, 161694, Control_c, 0, 64, 58
2, 161712, Control_c, 0, 64, 57
2, 161731, Control_c, 0, 64, 56
2, 161751, Control_c, 0, 64, 55
2, 161769, Control_c, 0, 64, 54
2, 161808, Control_c, 0, 64, 53
2, 161846, Control_c, 0, 64, 53
2, 162020, Control_c, 0, 64, 52
2, 162038, Control_c, 0, 64, 52
2, 162046, Note_on_c, 0, 77, 73
2, 162058, Control_c, 0, 64, 51
2, 162097, Control_c, 0, 64, 51
2, 162115, Control_c, 0, 64, 50
2, 162126, Note_on_c, 0, 61, 0
2, 162135, Control_c, 0, 64, 50
2, 162154, Control_c, 0, 64, 49
2, 162174, Control_c, 0, 64, 49
2, 162231, Control_c, 0, 64, 48
2, 162249, Control_c, 0, 64, 48
2, 162269, Control_c, 0, 64, 47
2, 162295, Note_on_c, 0, 66, 0
2, 162365, Control_c, 0, 64, 47
2, 162419, Note_on_c, 0, 61, 60
2, 162423, Control_c, 0, 64, 46
2, 162442, Control_c, 0, 64, 46
2, 162672, Control_c, 0, 64, 46
2, 162749, Control_c, 0, 64, 47
2, 162768, Control_c, 0, 64, 47
2, 162778, Note_on_c, 0, 78, 73
2, 162914, Note_on_c, 0, 77, 0
2, 163121, Note_on_c, 0, 68, 69
2, 163127, Note_on_c, 0, 59, 53
2, 163171, Control_c, 0, 64, 47
2, 163188, Note_on_c, 0, 61, 0
2, 163258, Note_on_c, 0, 78, 0
2, 163421, Control_c, 0, 64, 47
2, 163433, Note_on_c, 0, 50, 0
2, 163471, Note_on_c, 0, 78, 79
2, 163498, Control_c, 0, 64, 47
2, 163614, Note_on_c, 0, 68, 0
2, 163771, Note_on_c, 0, 50, 64
2, 163958, Control_c, 0, 64, 47
2, 164108, Note_on_c, 0, 77, 74
2, 164318, Note_on_c, 0, 78, 0
2, 164435, Note_on_c, 0, 49, 58
2, 164451, Note_on_c, 0, 70, 73
2, 164499, Control_c, 0, 64, 47
2, 164518, Note_on_c, 0, 50, 0
2, 164530, Note_on_c, 0, 77, 0
2, 164575, Control_c, 0, 64, 46
2, 164633, Control_c, 0, 64, 46
2, 164651, Control_c, 0, 64, 45
2, 164709, Control_c, 0, 64, 44
2, 164728, Control_c, 0, 64, 44
2, 164748, Control_c, 0, 64, 43
2, 164784, Note_on_c, 0, 76, 84
2, 164786, Control_c, 0, 64, 42
2, 164805, Control_c, 0, 64, 41
2, 164825, Control_c, 0, 64, 39
2, 164843, Control_c, 0, 64, 36
2, 164863, Control_c, 0, 64, 32
2, 164882, Control_c, 0, 64, 28
2, 164902, Control_c, 0, 64, 24
2, 164920, Control_c, 0, 64, 20
2, 164920, Note_on_c, 0, 70, 0
2, 164940, Control_c, 0, 64, 13
2, 164959, Control_c, 0, 64, 0
2, 165115, Note_on_c, 0, 55, 59
2, 165118, Note_on_c, 0, 58, 61
2, 165222, Note_on_c, 0, 59, 0
2, 165305, Note_on_c, 0, 49, 0
2, 165485, Note_on_c, 0, 75, 81
2, 165534, Control_c, 0, 64, 40
2, 165553, Control_c, 0, 64, 57
2, 165573, Control_c, 0, 64, 62
2, 165592, Control_c, 0, 64, 65
2, 165595, Note_on_c, 0, 76, 0
2, 165610, Control_c, 0, 64, 69
2, 165630, Control_c, 0, 64, 76
2, 165649, Control_c, 0, 64, 90
2, 165669, Control_c, 0, 64, 127
2, 165800, Note_on_c, 0, 75, 0
2, 165956, Note_on_c, 0, 60, 72
2, 165966, Note_on_c, 0, 75, 75
2, 165968, Note_on_c, 0, 54, 58
2, 165976, Control_c, 0, 64, 109
2, 165995, Control_c, 0, 64, 91
2, 166014, Control_c, 0, 64, 79
2, 166033, Control_c, 0, 64, 71
2, 166053, Control_c, 0, 64, 65
2, 166072, Control_c, 0, 64, 61
2, 166086, Note_on_c, 0, 55, 0
2, 166090, Control_c, 0, 64, 58
2, 166110, Control_c, 0, 64, 56
2, 166129, Control_c, 0, 64, 55
2, 166149, Control_c, 0, 64, 55
2, 166149, Note_on_c, 0, 58, 0
2, 166167, Control_c, 0, 64, 53
2, 166187, Control_c, 0, 64, 52
2, 166206, Control_c, 0, 64, 51
2, 166225, Control_c, 0, 64, 50
2, 166265, Note_on_c, 0, 76, 76
2, 166302, Control_c, 0, 64, 50
2, 166341, Control_c, 0, 64, 49
2, 166357, Note_on_c, 0, 75, 0
2, 166379, Control_c, 0, 64, 49
2, 166398, Control_c, 0, 64, 48
2, 166418, Control_c, 0, 64, 47
2, 166436, Control_c, 0, 64, 44
2, 166456, Control_c, 0, 64, 40
2, 166475, Control_c, 0, 64, 36
2, 166494, Control_c, 0, 64, 30
2, 166513, Control_c, 0, 64, 25
2, 166521, Note_on_c, 0, 78, 75
2, 166532, Control_c, 0, 64, 21
2, 166552, Control_c, 0, 64, 18
2, 166570, Control_c, 0, 64, 17
2, 166597, Note_on_c, 0, 76, 0
2, 166609, Control_c, 0, 64, 15
2, 166629, Control_c, 0, 64, 11
2, 166647, Control_c, 0, 64, 0
2, 166757, Note_on_c, 0, 61, 68
2, 166757, Note_on_c, 0, 76, 69
2, 166890, Note_on_c, 0, 60, 0
2, 166990, Control_c, 0, 64, 11
2, 167007, Note_on_c, 0, 75, 72
2, 167029, Control_c, 0, 64, 13
2, 167048, Control_c, 0, 64, 15
2, 167107, Note_on_c, 0, 78, 0
2, 167219, Note_on_c, 0, 73, 72
2, 167298, Control_c, 0, 64, 13
2, 167306, Note_on_c, 0, 76, 0
2, 167318, Note_on_c, 0, 75, 0
2, 167336, Control_c, 0, 64, 11
2, 167418, Note_on_c, 0, 63, 72
2, 167434, Note_on_c, 0, 72, 67
2, 167460, Note_on_c, 0, 73, 0
2, 167541, Note_on_c, 0, 61, 0
2, 167547, Control_c, 0, 64, 13
2, 167586, Control_c, 0, 64, 15
2, 167605, Control_c, 0, 64, 17
2, 167624, Control_c, 0, 64, 18
2, 167644, Control_c, 0, 64, 19
2, 167659, Note_on_c, 0, 73, 70
2, 167682, Control_c, 0, 64, 20
2, 167704, Note_on_c, 0, 72, 0
2, 167720, Control_c, 0, 64, 21
2, 167739, Control_c, 0, 64, 22
2, 167778, Control_c, 0, 64, 23
2, 167816, Control_c, 0, 64, 24
2, 167843, Note_on_c, 0, 75, 69
2, 167888, Note_on_c, 0, 73, 0
2, 168055, Note_on_c, 0, 56, 63
2, 168061, Note_on_c, 0, 52, 52
2, 168071, Note_on_c, 0, 73, 68
2, 168085, Control_c, 0, 64, 25
2, 168142, Control_c, 0, 64, 26
2, 168146, Note_on_c, 0, 75, 0
2, 168179, Note_on_c, 0, 63, 0
2, 168181, Control_c, 0, 64, 27
2, 168196, Note_on_c, 0, 54, 0
2, 168219, Control_c, 0, 64, 27
2, 168270, Note_on_c, 0, 72, 72
2, 168286, Note_on_c, 0, 73, 0
2, 168296, Control_c, 0, 64, 28
2, 168450, Control_c, 0, 64, 29
2, 168492, Note_on_c, 0, 70, 70
2, 168530, Note_on_c, 0, 72, 0
2, 168734, Note_on_c, 0, 68, 70
2, 168736, Note_on_c, 0, 58, 63
2, 168833, Control_c, 0, 64, 28
2, 168853, Note_on_c, 0, 56, 0
2, 168872, Control_c, 0, 64, 27
2, 168910, Control_c, 0, 64, 27
2, 168915, Note_on_c, 0, 70, 0
2, 168949, Note_on_c, 0, 66, 65
2, 168968, Control_c, 0, 64, 26
2, 168987, Control_c, 0, 64, 25
2, 168991, Note_on_c, 0, 68, 0
2, 169026, Control_c, 0, 64, 24
2, 169102, Control_c, 0, 64, 23
2, 169156, Note_on_c, 0, 68, 70
2, 169179, Control_c, 0, 64, 22
2, 169217, Control_c, 0, 64, 21
2, 169235, Control_c, 0, 64, 20
2, 169312, Control_c, 0, 64, 19
2, 169332, Control_c, 0, 64, 18
2, 169351, Control_c, 0, 64, 17
2, 169371, Control_c, 0, 64, 15
2, 169378, Note_on_c, 0, 66, 0
2, 169389, Control_c, 0, 64, 13
2, 169393, Note_on_c, 0, 69, 64
2, 169396, Note_on_c, 0, 60, 52
2, 169403, Note_on_c, 0, 51, 49
2, 169409, Control_c, 0, 64, 11
2, 169428, Control_c, 0, 64, 9
2, 169444, Note_on_c, 0, 68, 0
2, 169447, Control_c, 0, 64, 0
2, 169474, Note_on_c, 0, 52, 0
2, 169527, Note_on_c, 0, 58, 0
2, 169619, Note_on_c, 0, 68, 65
2, 169735, Control_c, 0, 64, 42
2, 169754, Control_c, 0, 64, 58
2, 169774, Control_c, 0, 64, 62
2, 169792, Control_c, 0, 64, 63
2, 169812, Control_c, 0, 64, 64
2, 169831, Control_c, 0, 64, 64
2, 169851, Control_c, 0, 64, 65
2, 169855, Note_on_c, 0, 66, 65
2, 169916, Note_on_c, 0, 60, 0
2, 169927, Control_c, 0, 64, 64
2, 169968, Note_on_c, 0, 68, 0
2, 169985, Control_c, 0, 64, 64
2, 169988, Note_on_c, 0, 69, 0
2, 170004, Control_c, 0, 64, 63
2, 170043, Control_c, 0, 64, 63
2, 170061, Control_c, 0, 64, 62
2, 170080, Control_c, 0, 64, 62
2, 170100, Control_c, 0, 64, 60
2, 170107, Note_on_c, 0, 49, 49
2, 170107, Note_on_c, 0, 65, 63
2, 170109, Note_on_c, 0, 59, 50
2, 170119, Control_c, 0, 64, 57
2, 170138, Control_c, 0, 64, 55
2, 170149, Note_on_c, 0, 66, 0
2, 170166, Control_c, 0, 64, 53
2, 170184, Control_c, 0, 64, 50
2, 170204, Control_c, 0, 64, 45
2, 170223, Control_c, 0, 64, 39
2, 170241, Control_c, 0, 64, 29
2, 170250, Note_on_c, 0, 51, 0
2, 170261, Control_c, 0, 64, 0
2, 170349, Note_on_c, 0, 66, 70
2, 170411, Note_on_c, 0, 65, 0
2, 170571, Note_on_c, 0, 68, 79
2, 170638, Note_on_c, 0, 66, 0
2, 170813, Note_on_c, 0, 66, 73
2, 170819, Note_on_c, 0, 51, 52
2, 170826, Note_on_c, 0, 57, 57
2, 170901, Note_on_c, 0, 59, 0
2, 170917, Note_on_c, 0, 49, 0
2, 170955, Note_on_c, 0, 68, 0
2, 171029, Control_c, 0, 64, 17
2, 171049, Control_c, 0, 64, 50
2, 171056, Note_on_c, 0, 65, 75
2, 171067, Control_c, 0, 64, 60
2, 171087, Control_c, 0, 64, 63
2, 171099, Note_on_c, 0, 66, 0
2, 171106, Control_c, 0, 64, 64
2, 171127, Control_c, 0, 64, 65
2, 171146, Control_c, 0, 64, 66
2, 171166, Control_c, 0, 64, 67
2, 171185, Control_c, 0, 64, 69
2, 171204, Control_c, 0, 64, 71
2, 171223, Control_c, 0, 64, 73
2, 171243, Control_c, 0, 64, 75
2, 171245, Note_on_c, 0, 51, 0
2, 171261, Control_c, 0, 64, 76
2, 171291, Note_on_c, 0, 63, 80
2, 171338, Control_c, 0, 64, 77
2, 171378, Note_on_c, 0, 65, 0
2, 171395, Control_c, 0, 64, 76
2, 171588, Control_c, 0, 64, 76
2, 171607, Control_c, 0, 64, 75
2, 171621, Note_on_c, 0, 61, 76
2, 171626, Control_c, 0, 64, 74
2, 171628, Note_on_c, 0, 56, 45
2, 171640, Note_on_c, 0, 53, 43
2, 171646, Control_c, 0, 64, 72
2, 171665, Control_c, 0, 64, 69
2, 171684, Control_c, 0, 64, 65
2, 171703, Control_c, 0, 64, 62
2, 171723, Control_c, 0, 64, 59
2, 171741, Control_c, 0, 64, 56
2, 171760, Control_c, 0, 64, 51
2, 171780, Control_c, 0, 64, 41
2, 171799, Control_c, 0, 64, 13
2, 171816, Note_on_c, 0, 57, 0
2, 171818, Control_c, 0, 64, 0
2, 171933, Note_on_c, 0, 63, 0
2, 172011, Control_c, 0, 67, 12
2, 172029, Control_c, 0, 67, 29
2, 172049, Control_c, 0, 67, 49
2, 172068, Control_c, 0, 67, 73
2, 172088, Control_c, 0, 67, 103
2, 172107, Control_c, 0, 67, 127
2, 172392, Note_on_c, 0, 57, 39
2, 172408, Note_on_c, 0, 54, 33
2, 172546, Note_on_c, 0, 53, 0
2, 172582, Note_on_c, 0, 56, 0
2, 173139, Note_on_c, 0, 56, 34
2, 173152, Note_on_c, 0, 59, 35
2, 173275, Note_on_c, 0, 54, 0
2, 173286, Note_on_c, 0, 57, 0
2, 173440, Control_c, 0, 64, 27
2, 173460, Control_c, 0, 64, 54
2, 173479, Control_c, 0, 64, 61
2, 173498, Control_c, 0, 64, 64
2, 173517, Control_c, 0, 64, 65
2, 173517, Note_on_c, 0, 56, 0
2, 173537, Control_c, 0, 64, 66
2, 173555, Control_c, 0, 64, 68
2, 173569, Note_on_c, 0, 61, 0
2, 173575, Control_c, 0, 64, 72
2, 173594, Control_c, 0, 64, 77
2, 173597, Note_on_c, 0, 65, 49
2, 173601, Note_on_c, 0, 59, 0
2, 173614, Control_c, 0, 64, 83
2, 173632, Control_c, 0, 64, 87
2, 173652, Control_c, 0, 64, 88
2, 173709, Control_c, 0, 64, 89
2, 173748, Control_c, 0, 64, 90
2, 173764, Note_on_c, 0, 65, 0
2, 173767, Note_on_c, 0, 68, 60
2, 173926, Control_c, 0, 64, 89
2, 173946, Control_c, 0, 64, 88
2, 173965, Control_c, 0, 64, 86
2, 173977, Note_on_c, 0, 71, 64
2, 173978, Note_on_c, 0, 53, 42
2, 173983, Control_c, 0, 64, 82
2, 174001, Note_on_c, 0, 44, 37
2, 174003, Control_c, 0, 64, 76
2, 174024, Control_c, 0, 64, 69
2, 174032, Note_on_c, 0, 68, 0
2, 174043, Control_c, 0, 64, 64
2, 174062, Control_c, 0, 64, 58
2, 174082, Control_c, 0, 64, 52
2, 174101, Control_c, 0, 64, 44
2, 174120, Control_c, 0, 64, 27
2, 174139, Control_c, 0, 64, 0
2, 174463, Note_on_c, 0, 74, 51
2, 174485, Control_c, 0, 64, 43
2, 174504, Control_c, 0, 64, 59
2, 174504, Note_on_c, 0, 71, 0
2, 174523, Control_c, 0, 64, 63
2, 174542, Control_c, 0, 64, 65
2, 174562, Control_c, 0, 64, 67
2, 174581, Control_c, 0, 64, 70
2, 174600, Control_c, 0, 64, 75
2, 174619, Control_c, 0, 64, 86
2, 174639, Control_c, 0, 64, 98
2, 174657, Control_c, 0, 64, 116
2, 174670, Note_on_c, 0, 44, 0
2, 174677, Control_c, 0, 64, 127
2, 174770, Note_on_c, 0, 74, 0
2, 175116, Control_c, 0, 64, 119
2, 175135, Control_c, 0, 64, 113
2, 175154, Control_c, 0, 64, 107
2, 175172, Note_on_c, 0, 45, 31
2, 175173, Control_c, 0, 64, 102
2, 175178, Note_on_c, 0, 54, 25
2, 175193, Control_c, 0, 64, 97
2, 175211, Control_c, 0, 64, 90
2, 175231, Control_c, 0, 64, 82
2, 175231, Note_on_c, 0, 73, 48
2, 175250, Control_c, 0, 64, 75
2, 175270, Control_c, 0, 64, 70
2, 175288, Control_c, 0, 64, 66
2, 175308, Control_c, 0, 64, 63
2, 175327, Control_c, 0, 64, 60
2, 175347, Control_c, 0, 64, 58
2, 175355, Note_on_c, 0, 53, 0
2, 175365, Control_c, 0, 64, 56
2, 175384, Control_c, 0, 64, 55
2, 175404, Control_c, 0, 64, 54
2, 175422, Control_c, 0, 64, 51
2, 175442, Control_c, 0, 64, 48
2, 175461, Control_c, 0, 64, 47
2, 175499, Control_c, 0, 64, 47
2, 175519, Control_c, 0, 64, 46
2, 175538, Control_c, 0, 64, 43
2, 175557, Control_c, 0, 64, 37
2, 175576, Control_c, 0, 64, 32
2, 175596, Control_c, 0, 64, 32
2, 175615, Control_c, 0, 64, 31
2, 175616, Note_on_c, 0, 75, 54
2, 175634, Control_c, 0, 64, 30
2, 175653, Control_c, 0, 64, 28
2, 175673, Control_c, 0, 64, 27
2, 175691, Control_c, 0, 64, 26
2, 175750, Control_c, 0, 64, 25
2, 175768, Control_c, 0, 64, 24
2, 175788, Control_c, 0, 64, 23
2, 175807, Control_c, 0, 64, 22
2, 175845, Control_c, 0, 64, 21
2, 175857, Note_on_c, 0, 77, 49
2, 175884, Control_c, 0, 64, 20
2, 175945, Note_on_c, 0, 75, 0
2, 175979, Control_c, 0, 64, 19
2, 176035, Note_on_c, 0, 73, 0
2, 176094, Note_on_c, 0, 49, 39
2, 176100, Note_on_c, 0, 78, 56
2, 176114, Control_c, 0, 64, 18
2, 176152, Note_on_c, 0, 77, 0
2, 176216, Note_on_c, 0, 54, 0
2, 176248, Control_c, 0, 64, 17
2, 176337, Note_on_c, 0, 76, 61
2, 176449, Note_on_c, 0, 78, 0
2, 176575, Control_c, 0, 64, 15
2, 176581, Note_on_c, 0, 74, 55
2, 176690, Control_c, 0, 64, 13
2, 176696, Note_on_c, 0, 76, 0
2, 176796, Note_on_c, 0, 54, 57
2, 176799, Note_on_c, 0, 73, 64
2, 176844, Control_c, 0, 64, 11
2, 176901, Note_on_c, 0, 74, 0
2, 176920, Note_on_c, 0, 49, 0
2, 177030, Note_on_c, 0, 71, 58
2, 177056, Note_on_c, 0, 73, 0
2, 177286, Note_on_c, 0, 69, 64
2, 177338, Note_on_c, 0, 71, 0
2, 177342, Control_c, 0, 64, 9
2, 177524, Note_on_c, 0, 74, 60
2, 177532, Note_on_c, 0, 47, 44
2, 177566, Note_on_c, 0, 69, 0
2, 177597, Note_on_c, 0, 45, 0
2, 177755, Note_on_c, 0, 73, 62
2, 177944, Note_on_c, 0, 74, 0
2, 177969, Note_on_c, 0, 71, 60
2, 178166, Note_on_c, 0, 73, 0
2, 178197, Note_on_c, 0, 71, 0
2, 178198, Note_on_c, 0, 69, 57
2, 178203, Note_on_c, 0, 49, 42
2, 178289, Note_on_c, 0, 47, 0
2, 178431, Note_on_c, 0, 68, 60
2, 178456, Note_on_c, 0, 69, 0
2, 178495, Control_c, 0, 64, 11
2, 178610, Control_c, 0, 64, 13
2, 178664, Note_on_c, 0, 66, 52
2, 178691, Note_on_c, 0, 68, 0
2, 178725, Control_c, 0, 64, 15
2, 178802, Control_c, 0, 64, 17
2, 178897, Note_on_c, 0, 54, 0
2, 178925, Note_on_c, 0, 68, 57
2, 178956, Note_on_c, 0, 53, 42
2, 178967, Note_on_c, 0, 66, 0
2, 178978, Note_on_c, 0, 47, 27
2, 179130, Control_c, 0, 64, 18
2, 179153, Note_on_c, 0, 49, 0
2, 179156, Note_on_c, 0, 66, 50
2, 179227, Control_c, 0, 64, 19
2, 179264, Control_c, 0, 64, 20
2, 179295, Note_on_c, 0, 68, 0
2, 179303, Control_c, 0, 64, 21
2, 179399, Control_c, 0, 64, 22
2, 179436, Note_on_c, 0, 65, 50
2, 179438, Control_c, 0, 64, 23
2, 179461, Note_on_c, 0, 66, 0
2, 179726, Note_on_c, 0, 46, 42
2, 179781, Note_on_c, 0, 66, 57
2, 179820, Note_on_c, 0, 65, 0
2, 179855, Note_on_c, 0, 53, 0
2, 179861, Note_on_c, 0, 47, 0
2, 179935, Control_c, 0, 64, 22
2, 179954, Control_c, 0, 64, 21
2, 179993, Control_c, 0, 64, 20
2, 180031, Control_c, 0, 64, 19
2, 180048, Note_on_c, 0, 64, 37
2, 180070, Control_c, 0, 64, 18
2, 180108, Control_c, 0, 64, 17
2, 180127, Control_c, 0, 64, 15
2, 180165, Control_c, 0, 64, 13
2, 180204, Control_c, 0, 64, 9
2, 180242, Control_c, 0, 64, 0
2, 180253, Note_on_c, 0, 62, 46
2, 180358, Note_on_c, 0, 64, 0
2, 180485, Note_on_c, 0, 54, 46
2, 180488, Note_on_c, 0, 61, 53
2, 180497, Note_on_c, 0, 62, 0
2, 180638, Note_on_c, 0, 46, 0
2, 180645, Control_c, 0, 64, 9
2, 180664, Control_c, 0, 64, 11
2, 180702, Control_c, 0, 64, 13
2, 180722, Control_c, 0, 64, 15
2, 180744, Control_c, 0, 64, 17
2, 180750, Note_on_c, 0, 62, 47
2, 180821, Control_c, 0, 64, 18
2, 180851, Note_on_c, 0, 61, 0
2, 180972, Note_on_c, 0, 64, 49
2, 181004, Note_on_c, 0, 62, 0
2, 181230, Note_on_c, 0, 47, 54
2, 181236, Note_on_c, 0, 62, 53
2, 181345, Note_on_c, 0, 54, 0
2, 181401, Note_on_c, 0, 64, 0
2, 181458, Note_on_c, 0, 61, 62
2, 181512, Note_on_c, 0, 62, 0
2, 181688, Note_on_c, 0, 59, 68
2, 181701, Note_on_c, 0, 61, 0
2, 181914, Control_c, 0, 64, 19
2, 181928, Note_on_c, 0, 49, 65
2, 181939, Note_on_c, 0, 58, 60
2, 181967, Note_on_c, 0, 59, 0
2, 182048, Control_c, 0, 64, 20
2, 182065, Note_on_c, 0, 47, 0
2, 182086, Control_c, 0, 64, 21
2, 182125, Control_c, 0, 67, 125
2, 182143, Control_c, 0, 64, 22
2, 182143, Control_c, 0, 67, 118
2, 182163, Control_c, 0, 67, 112
2, 182173, Note_on_c, 0, 59, 65
2, 182182, Control_c, 0, 64, 23
2, 182182, Control_c, 0, 67, 106
2, 182202, Control_c, 0, 67, 98
2, 182206, Note_on_c, 0, 58, 0
2, 182220, Control_c, 0, 67, 88
2, 182240, Control_c, 0, 67, 76
2, 182259, Control_c, 0, 67, 65
2, 182278, Control_c, 0, 64, 24
2, 182278, Control_c, 0, 67, 56
2, 182297, Control_c, 0, 67, 49
2, 182317, Control_c, 0, 64, 25
2, 182317, Control_c, 0, 67, 44
2, 182336, Control_c, 0, 67, 37
2, 182355, Control_c, 0, 67, 31
2, 182374, Control_c, 0, 67, 24
2, 182394, Control_c, 0, 67, 17
2, 182401, Note_on_c, 0, 61, 61
2, 182412, Control_c, 0, 67, 10
2, 182432, Control_c, 0, 67, 0
2, 182473, Note_on_c, 0, 59, 0
2, 182642, Control_c, 0, 64, 26
2, 182664, Note_on_c, 0, 50, 51
2, 182682, Note_on_c, 0, 59, 61
2, 182732, Note_on_c, 0, 61, 0
2, 182759, Note_on_c, 0, 49, 0
2, 183096, Note_on_c, 0, 65, 67
2, 183181, Control_c, 0, 64, 27
2, 183201, Control_c, 0, 64, 27
2, 183217, Note_on_c, 0, 59, 0
2, 183239, Control_c, 0, 64, 28
2, 183295, Note_on_c, 0, 66, 0
2, 183296, Control_c, 0, 64, 29
2, 183316, Control_c, 0, 64, 30
2, 183491, Note_on_c, 0, 54, 56
2, 183496, Note_on_c, 0, 47, 48
2, 183501, Note_on_c, 0, 57, 50
2, 183546, Control_c, 0, 64, 28
2, 183566, Control_c, 0, 64, 26
2, 183584, Control_c, 0, 64, 22
2, 183605, Control_c, 0, 64, 17
2, 183611, Note_on_c, 0, 50, 0
2, 183624, Control_c, 0, 64, 0
2, 183952, Note_on_c, 0, 66, 80
2, 183989, Control_c, 0, 64, 42
2, 184008, Control_c, 0, 64, 61
2, 184028, Control_c, 0, 64, 66
2, 184047, Control_c, 0, 64, 70
2, 184059, Note_on_c, 0, 47, 0
2, 184062, Note_on_c, 0, 65, 0
2, 184065, Control_c, 0, 64, 78
2, 184085, Control_c, 0, 64, 90
2, 184104, Control_c, 0, 64, 127
2, 184118, Note_on_c, 0, 54, 0
2, 184534, Note_on_c, 0, 56, 50
2, 184548, Note_on_c, 0, 53, 47
2, 184549, Note_on_c, 0, 49, 30
2, 184629, Note_on_c, 0, 74, 81
2, 184659, Control_c, 0, 64, 93
2, 184678, Control_c, 0, 64, 77
2, 184697, Control_c, 0, 64, 66
2, 184717, Control_c, 0, 64, 58
2, 184736, Control_c, 0, 64, 51
2, 184755, Control_c, 0, 64, 47
2, 184761, Note_on_c, 0, 57, 0
2, 184774, Control_c, 0, 64, 43
2, 184775, Note_on_c, 0, 66, 0
2, 184794, Control_c, 0, 64, 29
2, 184812, Control_c, 0, 64, 0
2, 185298, Note_on_c, 0, 72, 77
2, 185446, Note_on_c, 0, 74, 0
2, 185676, Note_on_c, 0, 57, 49
2, 185683, Note_on_c, 0, 54, 53
2, 185771, Note_on_c, 0, 56, 0
2, 185805, Note_on_c, 0, 53, 0
2, 185887, Control_c, 0, 64, 31
2, 185906, Control_c, 0, 64, 35
2, 185944, Control_c, 0, 64, 34
2, 185944, Control_c, 0, 67, 8
2, 185964, Control_c, 0, 67, 14
2, 185982, Control_c, 0, 67, 25
2, 186002, Control_c, 0, 64, 36
2, 186002, Control_c, 0, 67, 43
2, 186021, Control_c, 0, 64, 44
2, 186021, Control_c, 0, 67, 60
2, 186041, Control_c, 0, 64, 53
2, 186041, Control_c, 0, 67, 81
2, 186043, Note_on_c, 0, 73, 70
2, 186059, Control_c, 0, 64, 58
2, 186059, Control_c, 0, 67, 104
2, 186079, Control_c, 0, 64, 62
2, 186079, Control_c, 0, 67, 127
2, 186098, Control_c, 0, 64, 64
2, 186117, Control_c, 0, 64, 66
2, 186136, Control_c, 0, 64, 67
2, 186156, Control_c, 0, 64, 70
2, 186175, Control_c, 0, 64, 75
2, 186191, Note_on_c, 0, 72, 0
2, 186194, Control_c, 0, 64, 81
2, 186213, Control_c, 0, 64, 86
2, 186233, Control_c, 0, 64, 88
2, 186251, Control_c, 0, 64, 89
2, 186278, Note_on_c, 0, 57, 0
2, 186405, Control_c, 0, 64, 87
2, 186424, Control_c, 0, 64, 86
2, 186444, Control_c, 0, 64, 85
2, 186462, Control_c, 0, 64, 84
2, 186482, Control_c, 0, 64, 82
2, 186501, Control_c, 0, 64, 79
2, 186521, Control_c, 0, 64, 74
2, 186522, Note_on_c, 0, 65, 47
2, 186531, Note_on_c, 0, 56, 44
2, 186539, Control_c, 0, 64, 69
2, 186552, Note_on_c, 0, 59, 35
2, 186559, Control_c, 0, 64, 66
2, 186578, Control_c, 0, 64, 62
2, 186597, Control_c, 0, 64, 59
2, 186616, Control_c, 0, 64, 55
2, 186629, Note_on_c, 0, 73, 0
2, 186636, Control_c, 0, 64, 46
2, 186655, Control_c, 0, 64, 23
2, 186674, Control_c, 0, 64, 0
2, 186703, Note_on_c, 0, 54, 0
2, 186962, Control_c, 0, 64, 38
2, 186981, Control_c, 0, 64, 57
2, 187001, Control_c, 0, 64, 63
2, 187019, Control_c, 0, 64, 64
2, 187039, Control_c, 0, 64, 65
2, 187043, Note_on_c, 0, 71, 59
2, 187058, Control_c, 0, 64, 66
2, 187074, Note_on_c, 0, 59, 0
2, 187077, Control_c, 0, 64, 68
2, 187096, Control_c, 0, 64, 71
2, 187116, Control_c, 0, 64, 75
2, 187125, Note_on_c, 0, 56, 0
2, 187135, Control_c, 0, 64, 80
2, 187154, Control_c, 0, 64, 82
2, 187173, Control_c, 0, 64, 83
2, 187173, Note_on_c, 0, 49, 0
2, 187314, Note_on_c, 0, 65, 0
2, 187421, Note_on_c, 0, 54, 58
2, 187422, Control_c, 0, 64, 82
2, 187422, Note_on_c, 0, 50, 56
2, 187442, Control_c, 0, 64, 82
2, 187483, Control_c, 0, 64, 81
2, 187502, Control_c, 0, 64, 81
2, 187522, Control_c, 0, 64, 80
2, 187541, Control_c, 0, 64, 79
2, 187560, Control_c, 0, 64, 78
2, 187579, Control_c, 0, 64, 76
2, 187599, Control_c, 0, 64, 75
2, 187617, Control_c, 0, 64, 74
2, 187637, Control_c, 0, 64, 73
2, 187656, Control_c, 0, 64, 72
2, 187676, Control_c, 0, 64, 71
2, 187694, Control_c, 0, 64, 70
2, 187714, Control_c, 0, 64, 70
2, 187733, Control_c, 0, 64, 69
2, 187752, Control_c, 0, 64, 68
2, 187771, Control_c, 0, 64, 67
2, 187776, Note_on_c, 0, 69, 62
2, 187791, Control_c, 0, 64, 66
2, 187810, Control_c, 0, 64, 65
2, 187829, Control_c, 0, 64, 65
2, 187867, Control_c, 0, 64, 64
2, 187887, Control_c, 0, 64, 64
2, 187925, Control_c, 0, 64, 63
2, 187963, Control_c, 0, 64, 63
2, 187973, Note_on_c, 0, 71, 0
2, 187982, Control_c, 0, 64, 62
2, 188021, Control_c, 0, 64, 61
2, 188040, Control_c, 0, 64, 61
2, 188059, Control_c, 0, 64, 60
2, 188079, Control_c, 0, 64, 60
2, 188136, Control_c, 0, 64, 59
2, 188147, Note_on_c, 0, 47, 43
2, 188150, Note_on_c, 0, 68, 65
2, 188156, Control_c, 0, 64, 59
2, 188194, Control_c, 0, 64, 58
2, 188213, Control_c, 0, 64, 57
2, 188232, Control_c, 0, 64, 56
2, 188247, Note_on_c, 0, 50, 0
2, 188251, Control_c, 0, 64, 55
2, 188258, Note_on_c, 0, 69, 0
2, 188271, Control_c, 0, 64, 54
2, 188290, Control_c, 0, 64, 54
2, 188328, Control_c, 0, 64, 53
2, 188347, Control_c, 0, 64, 52
2, 188367, Control_c, 0, 64, 50
2, 188385, Control_c, 0, 64, 49
2, 188422, Control_c, 0, 64, 50
2, 188434, Note_on_c, 0, 71, 66
2, 188442, Control_c, 0, 64, 50
2, 188460, Control_c, 0, 64, 51
2, 188472, Note_on_c, 0, 68, 0
2, 188480, Control_c, 0, 64, 51
2, 188595, Control_c, 0, 64, 52
2, 188670, Note_on_c, 0, 69, 66
2, 188819, Note_on_c, 0, 54, 0
2, 188825, Control_c, 0, 64, 51
2, 188883, Control_c, 0, 64, 51
2, 188883, Note_on_c, 0, 53, 48
2, 188893, Note_on_c, 0, 68, 62
2, 188894, Note_on_c, 0, 49, 48
2, 188922, Control_c, 0, 64, 50
2, 188960, Control_c, 0, 64, 49
2, 188964, Note_on_c, 0, 71, 0
2, 188979, Control_c, 0, 64, 47
2, 188998, Control_c, 0, 64, 44
2, 189010, Note_on_c, 0, 47, 0
2, 189017, Control_c, 0, 64, 37
2, 189037, Control_c, 0, 64, 26
2, 189056, Control_c, 0, 64, 0
2, 189124, Note_on_c, 0, 66, 67
2, 189177, Note_on_c, 0, 69, 0
2, 189192, Note_on_c, 0, 68, 0
2, 189325, Control_c, 0, 64, 51
2, 189343, Control_c, 0, 64, 61
2, 189357, Note_on_c, 0, 65, 55
2, 189362, Control_c, 0, 64, 64
2, 189383, Control_c, 0, 64, 65
2, 189392, Note_on_c, 0, 49, 0
2, 189399, Note_on_c, 0, 66, 0
2, 189402, Control_c, 0, 64, 65
2, 189421, Control_c, 0, 64, 66
2, 189479, Control_c, 0, 64, 65
2, 189556, Control_c, 0, 64, 65
2, 189575, Control_c, 0, 64, 64
2, 189595, Control_c, 0, 64, 64
2, 189613, Control_c, 0, 64, 63
2, 189616, Note_on_c, 0, 66, 58
2, 189623, Note_on_c, 0, 49, 42
2, 189624, Note_on_c, 0, 45, 38
2, 189633, Control_c, 0, 64, 61
2, 189652, Control_c, 0, 64, 59
2, 189672, Control_c, 0, 64, 56
2, 189681, Note_on_c, 0, 65, 0
2, 189690, Control_c, 0, 64, 52
2, 189710, Control_c, 0, 64, 49
2, 189729, Control_c, 0, 64, 45
2, 189747, Control_c, 0, 64, 41
2, 189767, Control_c, 0, 64, 38
2, 189771, Note_on_c, 0, 53, 0
2, 189786, Control_c, 0, 64, 35
2, 189806, Control_c, 0, 64, 31
2, 189824, Control_c, 0, 64, 24
2, 189844, Control_c, 0, 64, 17
2, 189863, Control_c, 0, 64, 11
2, 189863, Note_on_c, 0, 68, 66
2, 189882, Control_c, 0, 64, 9
2, 189901, Control_c, 0, 64, 0
2, 189970, Note_on_c, 0, 66, 0
2, 190016, Control_c, 0, 64, 9
2, 190122, Note_on_c, 0, 69, 65
2, 190136, Note_on_c, 0, 68, 0
2, 190227, Control_c, 0, 64, 11
2, 190358, Note_on_c, 0, 53, 35
2, 190385, Note_on_c, 0, 44, 39
2, 190390, Note_on_c, 0, 71, 60
2, 190462, Note_on_c, 0, 69, 0
2, 190463, Note_on_c, 0, 45, 0
2, 190497, Note_on_c, 0, 49, 0
2, 190513, Control_c, 0, 64, 0
2, 190643, Note_on_c, 0, 73, 63
2, 190730, Note_on_c, 0, 71, 0
2, 190820, Control_c, 0, 64, 34
2, 190840, Control_c, 0, 64, 54
2, 190858, Control_c, 0, 64, 60
2, 190878, Control_c, 0, 64, 63
2, 190897, Control_c, 0, 64, 64
2, 190917, Control_c, 0, 64, 66
2, 190935, Control_c, 0, 64, 70
2, 190950, Note_on_c, 0, 74, 55
2, 190955, Control_c, 0, 64, 75
2, 190974, Control_c, 0, 64, 85
2, 190993, Control_c, 0, 64, 93
2, 191012, Control_c, 0, 64, 98
2, 191032, Control_c, 0, 64, 99
2, 191053, Note_on_c, 0, 73, 0
2, 191056, Note_on_c, 0, 44, 0
2, 191082, Note_on_c, 0, 74, 0
2, 191185, Control_c, 0, 64, 99
2, 191204, Control_c, 0, 64, 97
2, 191223, Control_c, 0, 64, 96
2, 191243, Control_c, 0, 64, 94
2, 191261, Control_c, 0, 64, 92
2, 191277, Note_on_c, 0, 45, 39
2, 191281, Control_c, 0, 64, 90
2, 191302, Control_c, 0, 64, 87
2, 191322, Control_c, 0, 64, 83
2, 191340, Control_c, 0, 64, 79
2, 191360, Control_c, 0, 64, 75
2, 191374, Note_on_c, 0, 53, 0
2, 191379, Control_c, 0, 64, 70
2, 191398, Control_c, 0, 64, 67
2, 191409, Note_on_c, 0, 61, 56
2, 191417, Control_c, 0, 64, 65
2, 191437, Control_c, 0, 64, 64
2, 191456, Control_c, 0, 64, 63
2, 191475, Control_c, 0, 64, 62
2, 191494, Control_c, 0, 64, 60
2, 191514, Control_c, 0, 64, 57
2, 191532, Control_c, 0, 64, 55
2, 191552, Control_c, 0, 64, 53
2, 191571, Control_c, 0, 64, 52
2, 191591, Control_c, 0, 64, 51
2, 191609, Control_c, 0, 64, 49
2, 191628, Control_c, 0, 64, 48
2, 191648, Control_c, 0, 64, 46
2, 191666, Control_c, 0, 64, 45
2, 191703, Note_on_c, 0, 54, 51
2, 191725, Control_c, 0, 64, 44
2, 191782, Control_c, 0, 64, 44
2, 191955, Control_c, 0, 64, 44
2, 192001, Note_on_c, 0, 52, 50
2, 192060, Note_on_c, 0, 54, 0
2, 192296, Note_on_c, 0, 66, 54
2, 192323, Note_on_c, 0, 56, 39
2, 192334, Note_on_c, 0, 50, 49
2, 192336, Note_on_c, 0, 52, 0
2, 192337, Control_c, 0, 64, 44
2, 192375, Control_c, 0, 64, 43
2, 192430, Note_on_c, 0, 61, 0
2, 192472, Control_c, 0, 64, 43
2, 192655, Note_on_c, 0, 49, 44
2, 192683, Control_c, 0, 64, 42
2, 192701, Control_c, 0, 64, 42
2, 192746, Note_on_c, 0, 50, 0
2, 192760, Control_c, 0, 64, 41
2, 192798, Control_c, 0, 64, 41
2, 192817, Control_c, 0, 64, 39
2, 192837, Control_c, 0, 64, 39
2, 192855, Control_c, 0, 64, 38
2, 192875, Control_c, 0, 64, 38
2, 192932, Control_c, 0, 64, 37
2, 192990, Control_c, 0, 64, 37
2, 193009, Control_c, 0, 64, 36
2, 193026, Note_on_c, 0, 47, 42
2, 193047, Control_c, 0, 64, 36
2, 193086, Control_c, 0, 64, 35
2, 193108, Note_on_c, 0, 49, 0
2, 193181, Control_c, 0, 64, 35
2, 193201, Control_c, 0, 64, 34
2, 193220, Control_c, 0, 64, 33
2, 193240, Control_c, 0, 64, 32
2, 193451, Control_c, 0, 64, 32
2, 193489, Control_c, 0, 64, 31
2, 193518, Note_on_c, 0, 57, 52
2, 193521, Note_on_c, 0, 49, 44
2, 193527, Control_c, 0, 64, 31
2, 193546, Control_c, 0, 64, 30
2, 193661, Control_c, 0, 64, 29
2, 193663, Note_on_c, 0, 45, 0
2, 193753, Note_on_c, 0, 56, 0
2, 193755, Note_on_c, 0, 66, 0
2, 193773, Note_on_c, 0, 47, 0
2, 194046, Control_c, 0, 64, 29
2, 194123, Control_c, 0, 64, 28
2, 194178, Control_c, 0, 64, 27
2, 194193, Note_on_c, 0, 66, 65
2, 194275, Control_c, 0, 64, 27
2, 194313, Control_c, 0, 64, 26
2, 194352, Control_c, 0, 64, 25
2, 194370, Control_c, 0, 64, 23
2, 194390, Control_c, 0, 64, 22
2, 194409, Control_c, 0, 64, 21
2, 194427, Control_c, 0, 64, 20
2, 194658, Control_c, 0, 64, 19
2, 195086, Note_on_c, 0, 37, 48
2, 195087, Note_on_c, 0, 59, 62
2, 195213, Note_on_c, 0, 57, 0
2, 195371, Control_c, 0, 64, 18
2, 195428, Control_c, 0, 64, 17
2, 195486, Control_c, 0, 64, 15
2, 195581, Control_c, 0, 64, 13
2, 195697, Control_c, 0, 64, 11
2, 196274, Control_c, 0, 64, 13
2, 196446, Note_on_c, 0, 65, 57
2, 196783, Note_on_c, 0, 66, 0
2, 196888, Control_c, 0, 64, 11
2, 196965, Control_c, 0, 64, 9
2, 197158, Control_c, 0, 64, 11
2, 197177, Control_c, 0, 64, 19
2, 197197, Control_c, 0, 64, 27
2, 197216, Control_c, 0, 64, 34
2, 197235, Control_c, 0, 64, 41
2, 197254, Control_c, 0, 64, 45
2, 197274, Control_c, 0, 64, 48
2, 197292, Control_c, 0, 64, 51
2, 197312, Control_c, 0, 64, 54
2, 197331, Control_c, 0, 64, 56
2, 197351, Control_c, 0, 64, 58
2, 197369, Control_c, 0, 64, 60
2, 197388, Control_c, 0, 64, 60
2, 197408, Control_c, 0, 64, 61
2, 197426, Control_c, 0, 64, 62
2, 197446, Control_c, 0, 64, 63
2, 197465, Control_c, 0, 64, 64
2, 197485, Control_c, 0, 64, 64
2, 197503, Control_c, 0, 64, 65
2, 197523, Control_c, 0, 64, 66
2, 197542, Control_c, 0, 64, 67
2, 197562, Control_c, 0, 64, 69
2, 197580, Control_c, 0, 64, 73
2, 197600, Control_c, 0, 64, 78
2, 197619, Control_c, 0, 64, 83
2, 197638, Control_c, 0, 64, 87
2, 197657, Control_c, 0, 64, 89
2, 197677, Control_c, 0, 64, 90
2, 197696, Control_c, 0, 64, 90
2, 197715, Control_c, 0, 64, 91
2, 197792, Control_c, 0, 64, 91
2, 197849, Control_c, 0, 64, 92
2, 197868, Control_c, 0, 64, 92
2, 197888, Control_c, 0, 64, 93
2, 197983, Control_c, 0, 64, 93
2, 198118, Control_c, 0, 64, 93
2, 198234, Control_c, 0, 64, 92
2, 198272, Control_c, 0, 64, 92
2, 198560, Control_c, 0, 64, 91
2, 198598, Control_c, 0, 64, 91
2, 198637, Control_c, 0, 64, 90
2, 198656, Control_c, 0, 64, 90
2, 198694, Control_c, 0, 64, 89
2, 198714, Control_c, 0, 64, 88
2, 198732, Control_c, 0, 64, 86
2, 198743, Note_on_c, 0, 42, 46
2, 198747, Note_on_c, 0, 66, 54
2, 198752, Control_c, 0, 64, 84
2, 198771, Control_c, 0, 64, 81
2, 198791, Control_c, 0, 64, 77
2, 198809, Control_c, 0, 64, 72
2, 198828, Control_c, 0, 64, 68
2, 198848, Control_c, 0, 64, 65
2, 198866, Control_c, 0, 64, 64
2, 198886, Control_c, 0, 64, 63
2, 198905, Control_c, 0, 64, 62
2, 198925, Control_c, 0, 64, 60
2, 198943, Control_c, 0, 64, 58
2, 198957, Note_on_c, 0, 65, 0
2, 198963, Control_c, 0, 64, 57
2, 198982, Control_c, 0, 64, 56
2, 199020, Control_c, 0, 64, 56
2, 199040, Control_c, 0, 64, 55
2, 199042, Note_on_c, 0, 37, 0
2, 199059, Control_c, 0, 64, 54
2, 199078, Control_c, 0, 64, 54
2, 199097, Control_c, 0, 64, 53
2, 199405, Control_c, 0, 64, 54
2, 199462, Control_c, 0, 64, 54
2, 199539, Control_c, 0, 64, 55
2, 199635, Control_c, 0, 64, 55
2, 199678, Note_on_c, 0, 58, 35
2, 199850, Note_on_c, 0, 59, 0
2, 200193, Note_on_c, 0, 56, 46
2, 200287, Control_c, 0, 64, 55
2, 200323, Note_on_c, 0, 58, 0
2, 200556, Note_on_c, 0, 58, 54
2, 200652, Note_on_c, 0, 56, 0
2, 200859, Note_on_c, 0, 59, 58
2, 200907, Note_on_c, 0, 58, 0
2, 200939, Control_c, 0, 64, 54
2, 201093, Control_c, 0, 64, 54
2, 201146, Note_on_c, 0, 58, 51
2, 201200, Note_on_c, 0, 59, 0
2, 201227, Control_c, 0, 64, 53
2, 201381, Control_c, 0, 64, 53
2, 201458, Control_c, 0, 64, 52
2, 201473, Note_on_c, 0, 59, 53
2, 201550, Note_on_c, 0, 58, 0
2, 201573, Control_c, 0, 64, 52
2, 201593, Control_c, 0, 64, 51
2, 201650, Control_c, 0, 64, 51
2, 201669, Control_c, 0, 64, 50
2, 201707, Control_c, 0, 64, 50
2, 201727, Control_c, 0, 64, 49
2, 201804, Control_c, 0, 64, 49
2, 201898, Note_on_c, 0, 58, 32
2, 201918, Control_c, 0, 64, 48
2, 202045, Note_on_c, 0, 59, 0
2, 202052, Control_c, 0, 64, 48
2, 202206, Control_c, 0, 64, 47
2, 202301, Control_c, 0, 64, 47
2, 202417, Control_c, 0, 64, 46
2, 202419, Note_on_c, 0, 56, 38
2, 202628, Control_c, 0, 64, 46
2, 202718, Note_on_c, 0, 58, 0
2, 202781, Control_c, 0, 64, 45
2, 202820, Control_c, 0, 64, 44
2, 202897, Control_c, 0, 64, 44
2, 203420, Note_on_c, 0, 58, 39
2, 203485, Note_on_c, 0, 56, 0
2, 203680, Note_on_c, 0, 56, 48
2, 203723, Control_c, 0, 64, 44
2, 203742, Note_on_c, 0, 58, 0
2, 203877, Control_c, 0, 64, 44
2, 203986, Note_on_c, 0, 58, 43
2, 204084, Control_c, 0, 64, 43
2, 204104, Control_c, 0, 64, 43
2, 204123, Control_c, 0, 64, 42
2, 204124, Note_on_c, 0, 56, 0
2, 204143, Control_c, 0, 64, 41
2, 204161, Control_c, 0, 64, 40
2, 204181, Control_c, 0, 64, 38
2, 204200, Control_c, 0, 64, 36
2, 204218, Control_c, 0, 64, 35
2, 204238, Control_c, 0, 64, 32
2, 204257, Control_c, 0, 64, 29
2, 204277, Control_c, 0, 64, 27
2, 204295, Control_c, 0, 64, 23
2, 204315, Control_c, 0, 64, 17
2, 204334, Control_c, 0, 64, 0
2, 205850, Control_c, 0, 64, 11
2, 205869, Control_c, 0, 64, 17
2, 205888, Control_c, 0, 64, 19
2, 205908, Control_c, 0, 64, 21
2, 205927, Control_c, 0, 64, 23
2, 205946, Control_c, 0, 64, 25
2, 205965, Control_c, 0, 64, 26
2, 205985, Control_c, 0, 64, 27
2, 206004, Control_c, 0, 64, 27
2, 206023, Control_c, 0, 64, 28
2, 206042, Control_c, 0, 64, 29
2, 206062, Control_c, 0, 64, 30
2, 206080, Control_c, 0, 64, 31
2, 206099, Control_c, 0, 64, 31
2, 206157, Control_c, 0, 64, 32
2, 206196, Control_c, 0, 64, 32
2, 206196, Control_c, 0, 67, 123
2, 206214, Control_c, 0, 67, 118
2, 206234, Control_c, 0, 64, 33
2, 206234, Control_c, 0, 67, 113
2, 206253, Control_c, 0, 67, 108
2, 206273, Control_c, 0, 64, 34
2, 206273, Control_c, 0, 67, 106
2, 206291, Control_c, 0, 64, 34
2, 206291, Control_c, 0, 67, 104
2, 206311, Control_c, 0, 64, 35
2, 206311, Control_c, 0, 67, 102
2, 206330, Control_c, 0, 64, 35
2, 206330, Control_c, 0, 67, 99
2, 206349, Control_c, 0, 64, 36
2, 206349, Control_c, 0, 67, 96
2, 206368, Control_c, 0, 64, 37
2, 206368, Control_c, 0, 67, 92
2, 206388, Control_c, 0, 64, 38
2, 206388, Control_c, 0, 67, 85
2, 206407, Control_c, 0, 64, 39
2, 206407, Control_c, 0, 67, 79
2, 206426, Control_c, 0, 67, 73
2, 206445, Control_c, 0, 67, 69
2, 206465, Control_c, 0, 67, 65
2, 206484, Control_c, 0, 67, 61
2, 206503, Control_c, 0, 67, 57
2, 206522, Control_c, 0, 67, 54
2, 206542, Control_c, 0, 67, 51
2, 206560, Control_c, 0, 67, 48
2, 206579, Control_c, 0, 67, 44
2, 206599, Control_c, 0, 67, 41
2, 206618, Control_c, 0, 67, 38
2, 206636, Control_c, 0, 67, 36
2, 206656, Control_c, 0, 67, 32
2, 206676, Control_c, 0, 67, 27
2, 206694, Control_c, 0, 67, 22
2, 206714, Control_c, 0, 67, 17
2, 206733, Control_c, 0, 67, 13
2, 206753, Control_c, 0, 67, 9
2, 206771, Control_c, 0, 67, 0
2, 207002, Control_c, 0, 64, 38
2, 207040, Control_c, 0, 64, 38
2, 207079, Control_c, 0, 64, 37
2, 207117, Control_c, 0, 64, 37
2, 207156, Control_c, 0, 64, 36
2, 207233, Control_c, 0, 64, 36
2, 207309, Control_c, 0, 64, 35
2, 207348, Control_c, 0, 64, 35
2, 207386, Control_c, 0, 64, 34
2, 207502, Control_c, 0, 64, 34
2, 207654, Control_c, 0, 64, 33
2, 207731, Control_c, 0, 64, 32
2, 207847, Control_c, 0, 64, 32
2, 207866, Control_c, 0, 64, 31
2, 207943, Control_c, 0, 64, 31
2, 208000, Control_c, 0, 64, 30
2, 208058, Control_c, 0, 64, 29
2, 208077, Control_c, 0, 64, 29
2, 208116, Control_c, 0, 64, 28
2, 208211, Control_c, 0, 64, 27
2, 208269, Control_c, 0, 64, 27
2, 208288, Control_c, 0, 64, 25
2, 208385, Control_c, 0, 64, 24
2, 208462, Control_c, 0, 64, 23
2, 208499, Control_c, 0, 64, 22
2, 208557, Control_c, 0, 64, 21
2, 208614, Control_c, 0, 64, 20
2, 208634, Control_c, 0, 64, 19
2, 208673, Control_c, 0, 64, 18
2, 208749, Control_c, 0, 64, 17
2, 208845, Control_c, 0, 64, 15
2, 208979, Control_c, 0, 64, 13
2, 209018, Control_c, 0, 64, 11
2, 209056, Control_c, 0, 64, 9
2, 209094, Control_c, 0, 64, 0
2, 209212, Note_on_c, 0, 58, 0
2, 209220, Note_on_c, 0, 49, 0
2, 209224, Note_on_c, 0, 42, 0
2, 209317, Note_on_c, 0, 66, 0
2, 214879,End_track
0, 0, End_of_file
