0, 0, Header, 1, 2, 480
1, 0, Start_track
1, 0, Tempo, 500000
1, 0, Time_signature, 4, 2, 24, 8
1, 1, End_track
2, 0, Start_track
2, 0, Program_c, 0, 0
2, 0, Control_c, 0, 64, 127
2, 0, Control_c, 0, 67, 9
2, 429, Control_c, 0, 67, 10
2, 534, Control_c, 0, 67, 10
2, 592, Control_c, 0, 67, 11
2, 611, Control_c, 0, 67, 11
2, 628, Control_c, 0, 67, 12
2, 935, Note_on_c, 0, 54, 26
2, 966, Note_on_c, 0, 78, 61
2, 1269, Control_c, 0, 67, 12
2, 1308, Control_c, 0, 67, 13
2, 1346, Control_c, 0, 67, 13
2, 1385, Control_c, 0, 67, 14
2, 1423, Control_c, 0, 67, 14
2, 1443, Control_c, 0, 67, 15
2, 1462, Control_c, 0, 67, 16
2, 1481, Control_c, 0, 67, 17
2, 1500, Control_c, 0, 67, 17
2, 1520, Control_c, 0, 67, 18
2, 1538, Control_c, 0, 67, 20
2, 1557, Control_c, 0, 67, 22
2, 1577, Control_c, 0, 67, 26
2, 1596, Control_c, 0, 67, 29
2, 1615, Control_c, 0, 67, 30
2, 1634, Control_c, 0, 67, 30
2, 1876, Note_on_c, 0, 57, 22
2, 1884, Note_on_c, 0, 73, 56
2, 2018, Control_c, 0, 64, 119
2, 2037, Control_c, 0, 64, 110
2, 2057, Control_c, 0, 64, 105
2, 2076, Control_c, 0, 64, 102
2, 2095, Control_c, 0, 64, 101
2, 2114, Control_c, 0, 64, 100
2, 2134, Control_c, 0, 64, 99
2, 2152, Control_c, 0, 64, 98
2, 2173, Control_c, 0, 64, 97
2, 2192, Control_c, 0, 64, 96
2, 2212, Control_c, 0, 64, 96
2, 2230, Control_c, 0, 64, 95
2, 2250, Control_c, 0, 64, 93
2, 2269, Control_c, 0, 64, 91
2, 2288, Control_c, 0, 64, 89
2, 2307, Control_c, 0, 64, 87
2, 2326, Note_on_c, 0, 78, 0
2, 2327, Control_c, 0, 64, 84
2, 2346, Control_c, 0, 64, 82
2, 2365, Control_c, 0, 64, 80
2, 2384, Control_c, 0, 64, 78
2, 2404, Control_c, 0, 64, 77
2, 2422, Control_c, 0, 64, 76
2, 2442, Control_c, 0, 64, 75
2, 2461, Control_c, 0, 64, 74
2, 2481, Control_c, 0, 64, 73
2, 2499, Control_c, 0, 64, 72
2, 2518, Control_c, 0, 64, 72
2, 2538, Control_c, 0, 64, 71
2, 2557, Control_c, 0, 64, 70
2, 2572, Note_on_c, 0, 61, 32
2, 2576, Control_c, 0, 64, 69
2, 2595, Control_c, 0, 64, 66
2, 2615, Control_c, 0, 64, 64
2, 2633, Control_c, 0, 64, 60
2, 2653, Control_c, 0, 64, 58
2, 2672, Control_c, 0, 64, 56
2, 2692, Control_c, 0, 64, 55
2, 2710, Control_c, 0, 64, 54
2, 2730, Control_c, 0, 67, 30
2, 2749, Control_c, 0, 64, 54
2, 2768, Control_c, 0, 64, 56
2, 2787, Control_c, 0, 64, 58
2, 2787, Control_c, 0, 67, 29
2, 2807, Control_c, 0, 64, 60
2, 2826, Control_c, 0, 64, 62
2, 2845, Control_c, 0, 64, 63
2, 2855, Note_on_c, 0, 57, 0
2, 2864, Control_c, 0, 64, 64
2, 2884, Control_c, 0, 64, 64
2, 2902, Control_c, 0, 64, 65
2, 2922, Control_c, 0, 64, 66
2, 2922, Control_c, 0, 67, 29
2, 2941, Control_c, 0, 64, 67
2, 2961, Control_c, 0, 64, 68
2, 2979, Control_c, 0, 64, 69
2, 2979, Control_c, 0, 67, 28
2, 2998, Control_c, 0, 64, 71
2, 3018, Control_c, 0, 64, 71
2, 3037, Control_c, 0, 64, 72
2, 3037, Control_c, 0, 67, 28
2, 3056, Control_c, 0, 64, 72
2, 3113, Control_c, 0, 67, 27
2, 3172, Control_c, 0, 64, 72
2, 3248, Control_c, 0, 67, 27
2, 3254, Note_on_c, 0, 69, 51
2, 3267, Control_c, 0, 64, 71
2, 3268, Note_on_c, 0, 66, 20
2, 3358, Note_on_c, 0, 61, 0
2, 3361, Note_on_c, 0, 73, 0
2, 3382, Control_c, 0, 64, 71
2, 3498, Control_c, 0, 64, 70
2, 3536, Control_c, 0, 64, 70
2, 3536, Control_c, 0, 67, 26
2, 3566, Note_on_c, 0, 56, 45
2, 3578, Note_on_c, 0, 71, 60
2, 3613, Control_c, 0, 64, 69
2, 3652, Control_c, 0, 64, 69
2, 3670, Control_c, 0, 64, 68
2, 3709, Control_c, 0, 64, 68
2, 3733, Note_on_c, 0, 69, 0
2, 3747, Control_c, 0, 64, 67
2, 3767, Control_c, 0, 64, 67
2, 3786, Control_c, 0, 64, 66
2, 3803, Note_on_c, 0, 54, 0
2, 3805, Control_c, 0, 64, 66
2, 3824, Control_c, 0, 64, 65
2, 3844, Control_c, 0, 67, 26
2, 3862, Control_c, 0, 64, 65
2, 3901, Control_c, 0, 64, 64
2, 3936, Note_on_c, 0, 73, 64
2, 3939, Control_c, 0, 64, 64
2, 3943, Note_on_c, 0, 57, 38
2, 3978, Control_c, 0, 64, 63
2, 3997, Control_c, 0, 64, 63
2, 4029, Note_on_c, 0, 71, 0
2, 4043, Note_on_c, 0, 56, 0
2, 4094, Control_c, 0, 64, 62
2, 4169, Note_on_c, 0, 71, 71
2, 4171, Control_c, 0, 64, 62
2, 4209, Control_c, 0, 64, 61
2, 4209, Control_c, 0, 67, 26
2, 4248, Control_c, 0, 64, 61
2, 4283, Note_on_c, 0, 73, 0
2, 4343, Control_c, 0, 64, 60
2, 4344, Note_on_c, 0, 69, 71
2, 4379, Note_on_c, 0, 71, 0
2, 4402, Control_c, 0, 64, 60
2, 4478, Note_on_c, 0, 66, 0
2, 4523, Note_on_c, 0, 65, 48
2, 4524, Note_on_c, 0, 61, 45
2, 4531, Note_on_c, 0, 71, 66
2, 4597, Note_on_c, 0, 69, 0
2, 4631, Control_c, 0, 64, 59
2, 4667, Note_on_c, 0, 57, 0
2, 4670, Control_c, 0, 64, 59
2, 4689, Control_c, 0, 64, 58
2, 4708, Control_c, 0, 64, 58
2, 4728, Control_c, 0, 64, 57
2, 4737, Note_on_c, 0, 69, 70
2, 4747, Control_c, 0, 64, 56
2, 4766, Control_c, 0, 64, 55
2, 4785, Control_c, 0, 64, 53
2, 4805, Control_c, 0, 64, 51
2, 4805, Control_c, 0, 67, 26
2, 4823, Control_c, 0, 64, 47
2, 4823, Control_c, 0, 67, 25
2, 4843, Control_c, 0, 64, 39
2, 4862, Control_c, 0, 64, 30
2, 4882, Control_c, 0, 64, 21
2, 4882, Control_c, 0, 67, 25
2, 4888, Note_on_c, 0, 71, 0
2, 4900, Control_c, 0, 64, 11
2, 4900, Control_c, 0, 67, 24
2, 4920, Control_c, 0, 64, 0
2, 4920, Control_c, 0, 67, 24
2, 4924, Note_on_c, 0, 68, 66
2, 4925, Note_on_c, 0, 65, 0
2, 4939, Control_c, 0, 67, 23
2, 4957, Control_c, 0, 67, 22
2, 4957, Note_on_c, 0, 54, 48
2, 4977, Control_c, 0, 67, 22
2, 4983, Note_on_c, 0, 69, 0
2, 4996, Control_c, 0, 67, 21
2, 5016, Control_c, 0, 67, 20
2, 5031, Control_c, 0, 67, 20
2, 5053, Control_c, 0, 67, 19
2, 5072, Control_c, 0, 67, 19
2, 5291, Note_on_c, 0, 66, 72
2, 5305, Note_on_c, 0, 69, 68
2, 5389, Note_on_c, 0, 61, 0
2, 5408, Note_on_c, 0, 68, 0
2, 5513, Control_c, 0, 67, 19
2, 5691, Note_on_c, 0, 71, 58
2, 5788, Note_on_c, 0, 69, 0
2, 5841, Control_c, 0, 67, 20
2, 6047, Note_on_c, 0, 61, 60
2, 6061, Note_on_c, 0, 69, 62
2, 6214, Note_on_c, 0, 66, 0
2, 6287, Note_on_c, 0, 71, 0
2, 6372, Note_on_c, 0, 68, 62
2, 6474, Note_on_c, 0, 69, 0
2, 6548, Control_c, 0, 67, 20
2, 6710, Note_on_c, 0, 69, 60
2, 6755, Note_on_c, 0, 68, 0
2, 7014, Note_on_c, 0, 73, 62
2, 7076, Note_on_c, 0, 69, 0
2, 7327, Note_on_c, 0, 57, 42
2, 7339, Note_on_c, 0, 78, 68
2, 7449, Note_on_c, 0, 73, 0
2, 7536, Note_on_c, 0, 61, 0
2, 7651, Note_on_c, 0, 80, 76
2, 7657, Note_on_c, 0, 59, 51
2, 7764, Note_on_c, 0, 57, 0
2, 7798, Note_on_c, 0, 78, 0
2, 8003, Note_on_c, 0, 61, 42
2, 8030, Note_on_c, 0, 81, 70
2, 8079, Note_on_c, 0, 59, 0
2, 8107, Note_on_c, 0, 80, 0
2, 8272, Note_on_c, 0, 80, 74
2, 8279, Note_on_c, 0, 59, 43
2, 8373, Note_on_c, 0, 81, 0
2, 8446, Note_on_c, 0, 78, 75
2, 8448, Note_on_c, 0, 57, 51
2, 8449, Control_c, 0, 67, 21
2, 8475, Note_on_c, 0, 59, 0
2, 8487, Control_c, 0, 67, 21
2, 8487, Note_on_c, 0, 61, 0
2, 8496, Note_on_c, 0, 80, 0
2, 8506, Control_c, 0, 67, 22
2, 8526, Control_c, 0, 67, 23
2, 8544, Control_c, 0, 67, 24
2, 8564, Control_c, 0, 67, 24
2, 8583, Control_c, 0, 67, 25
2, 8603, Control_c, 0, 67, 26
2, 8621, Control_c, 0, 67, 27
2, 8634, Note_on_c, 0, 59, 58
2, 8636, Note_on_c, 0, 80, 73
2, 8641, Control_c, 0, 67, 28
2, 8660, Control_c, 0, 67, 29
2, 8662, Note_on_c, 0, 57, 0
2, 8677, Note_on_c, 0, 78, 0
2, 8678, Control_c, 0, 67, 31
2, 8698, Control_c, 0, 67, 32
2, 8717, Control_c, 0, 67, 34
2, 8737, Control_c, 0, 67, 43
2, 8755, Control_c, 0, 67, 56
2, 8775, Control_c, 0, 67, 68
2, 8794, Control_c, 0, 67, 79
2, 8813, Control_c, 0, 67, 91
2, 8829, Note_on_c, 0, 78, 71
2, 8832, Control_c, 0, 67, 103
2, 8845, Note_on_c, 0, 57, 49
2, 8852, Control_c, 0, 67, 118
2, 8870, Control_c, 0, 67, 127
2, 8919, Note_on_c, 0, 80, 0
2, 8926, Note_on_c, 0, 59, 0
2, 9044, Note_on_c, 0, 77, 64
2, 9062, Note_on_c, 0, 56, 46
2, 9087, Note_on_c, 0, 78, 0
2, 9095, Note_on_c, 0, 57, 0
2, 9336, Note_on_c, 0, 57, 26
2, 9345, Note_on_c, 0, 78, 59
2, 9439, Note_on_c, 0, 77, 0
2, 9488, Note_on_c, 0, 56, 0
2, 9784, Note_on_c, 0, 73, 49
2, 9915, Note_on_c, 0, 78, 0
2, 10119, Note_on_c, 0, 56, 37
2, 10129, Note_on_c, 0, 59, 36
2, 10309, Note_on_c, 0, 57, 0
2, 10339, Note_on_c, 0, 54, 0
2, 10458, Note_on_c, 0, 77, 66
2, 10582, Note_on_c, 0, 73, 0
2, 10803, Note_on_c, 0, 57, 43
2, 10811, Note_on_c, 0, 78, 69
2, 10812, Control_c, 0, 67, 121
2, 10815, Note_on_c, 0, 61, 36
2, 10831, Control_c, 0, 67, 115
2, 10851, Control_c, 0, 67, 105
2, 10869, Control_c, 0, 67, 95
2, 10889, Control_c, 0, 67, 84
2, 10902, Note_on_c, 0, 59, 0
2, 10907, Note_on_c, 0, 77, 0
2, 10908, Control_c, 0, 67, 73
2, 10928, Control_c, 0, 67, 62
2, 10946, Control_c, 0, 67, 53
2, 10964, Note_on_c, 0, 56, 0
2, 10966, Control_c, 0, 67, 44
2, 10985, Control_c, 0, 67, 31
2, 11004, Control_c, 0, 67, 19
2, 11023, Control_c, 0, 64, 13
2, 11023, Control_c, 0, 67, 0
2, 11043, Control_c, 0, 64, 34
2, 11062, Control_c, 0, 64, 46
2, 11081, Control_c, 0, 64, 52
2, 11100, Control_c, 0, 64, 57
2, 11119, Control_c, 0, 64, 60
2, 11138, Control_c, 0, 64, 62
2, 11152, Note_on_c, 0, 73, 60
2, 11157, Control_c, 0, 64, 64
2, 11177, Control_c, 0, 64, 65
2, 11196, Control_c, 0, 64, 66
2, 11215, Control_c, 0, 64, 67
2, 11234, Control_c, 0, 64, 68
2, 11245, Note_on_c, 0, 78, 0
2, 11254, Control_c, 0, 64, 69
2, 11272, Control_c, 0, 64, 70
2, 11292, Control_c, 0, 64, 71
2, 11446, Control_c, 0, 64, 69
2, 11453, Note_on_c, 0, 68, 51
2, 11462, Note_on_c, 0, 59, 57
2, 11465, Control_c, 0, 64, 67
2, 11484, Control_c, 0, 64, 63
2, 11503, Control_c, 0, 64, 57
2, 11523, Control_c, 0, 64, 52
2, 11542, Control_c, 0, 64, 47
2, 11561, Control_c, 0, 64, 45
2, 11568, Note_on_c, 0, 57, 0
2, 11580, Control_c, 0, 64, 46
2, 11597, Note_on_c, 0, 61, 0
2, 11599, Control_c, 0, 64, 50
2, 11618, Control_c, 0, 64, 56
2, 11637, Control_c, 0, 64, 60
2, 11657, Control_c, 0, 64, 63
2, 11676, Control_c, 0, 64, 64
2, 11695, Control_c, 0, 64, 66
2, 11714, Control_c, 0, 64, 69
2, 11734, Control_c, 0, 64, 71
2, 11752, Control_c, 0, 64, 75
2, 11771, Control_c, 0, 64, 80
2, 11783, Note_on_c, 0, 77, 76
2, 11790, Control_c, 0, 64, 85
2, 11810, Control_c, 0, 64, 92
2, 11828, Control_c, 0, 64, 101
2, 11848, Control_c, 0, 64, 123
2, 11867, Control_c, 0, 64, 127
2, 11891, Note_on_c, 0, 73, 0
2, 11912, Note_on_c, 0, 68, 0
2, 12130, Note_on_c, 0, 57, 50
2, 12136, Control_c, 0, 64, 101
2, 12136, Note_on_c, 0, 78, 79
2, 12139, Note_on_c, 0, 66, 47
2, 12155, Control_c, 0, 64, 79
2, 12174, Control_c, 0, 64, 66
2, 12193, Control_c, 0, 64, 57
2, 12213, Control_c, 0, 64, 44
2, 12219, Note_on_c, 0, 77, 0
2, 12223, Note_on_c, 0, 59, 0
2, 12232, Control_c, 0, 64, 41
2, 12251, Control_c, 0, 64, 44
2, 12270, Control_c, 0, 64, 51
2, 12290, Control_c, 0, 64, 57
2, 12308, Control_c, 0, 64, 61
2, 12328, Control_c, 0, 64, 64
2, 12347, Control_c, 0, 64, 66
2, 12367, Control_c, 0, 64, 68
2, 12385, Control_c, 0, 64, 71
2, 12405, Control_c, 0, 64, 78
2, 12424, Control_c, 0, 64, 87
2, 12443, Control_c, 0, 64, 98
2, 12462, Control_c, 0, 64, 121
2, 12466, Note_on_c, 0, 73, 78
2, 12482, Control_c, 0, 64, 127
2, 12519, Note_on_c, 0, 78, 0
2, 12576, Note_on_c, 0, 66, 0
2, 12791, Note_on_c, 0, 78, 82
2, 12795, Note_on_c, 0, 56, 52
2, 12804, Note_on_c, 0, 65, 44
2, 12807, Control_c, 0, 64, 90
2, 12826, Control_c, 0, 64, 72
2, 12846, Control_c, 0, 64, 63
2, 12857, Note_on_c, 0, 73, 0
2, 12860, Note_on_c, 0, 57, 0
2, 12864, Control_c, 0, 64, 53
2, 12884, Control_c, 0, 64, 45
2, 12903, Control_c, 0, 64, 44
2, 12923, Control_c, 0, 64, 46
2, 12941, Control_c, 0, 64, 48
2, 12960, Control_c, 0, 64, 53
2, 12980, Control_c, 0, 64, 57
2, 12998, Control_c, 0, 64, 61
2, 13018, Control_c, 0, 64, 63
2, 13037, Control_c, 0, 64, 64
2, 13057, Control_c, 0, 64, 66
2, 13075, Control_c, 0, 64, 67
2, 13095, Control_c, 0, 64, 71
2, 13114, Control_c, 0, 64, 76
2, 13128, Note_on_c, 0, 80, 86
2, 13133, Control_c, 0, 64, 84
2, 13152, Control_c, 0, 64, 95
2, 13172, Control_c, 0, 64, 112
2, 13173, Note_on_c, 0, 65, 0
2, 13191, Control_c, 0, 64, 127
2, 13238, Note_on_c, 0, 78, 0
2, 13455, Note_on_c, 0, 81, 80
2, 13473, Note_on_c, 0, 54, 47
2, 13477, Note_on_c, 0, 66, 40
2, 13498, Control_c, 0, 64, 92
2, 13510, Note_on_c, 0, 56, 0
2, 13517, Control_c, 0, 64, 72
2, 13523, Note_on_c, 0, 80, 0
2, 13537, Control_c, 0, 64, 61
2, 13555, Control_c, 0, 64, 39
2, 13575, Control_c, 0, 64, 0
2, 13652, Control_c, 0, 64, 18
2, 13672, Control_c, 0, 64, 38
2, 13691, Control_c, 0, 64, 53
2, 13710, Control_c, 0, 64, 60
2, 13730, Control_c, 0, 64, 63
2, 13748, Control_c, 0, 64, 65
2, 13768, Control_c, 0, 64, 68
2, 13787, Control_c, 0, 64, 73
2, 13792, Note_on_c, 0, 66, 0
2, 13807, Control_c, 0, 64, 82
2, 13819, Note_on_c, 0, 77, 76
2, 13825, Control_c, 0, 64, 94
2, 13845, Control_c, 0, 64, 113
2, 13864, Control_c, 0, 64, 127
2, 13925, Note_on_c, 0, 81, 0
2, 14143, Note_on_c, 0, 78, 69
2, 14150, Note_on_c, 0, 52, 43
2, 14152, Control_c, 0, 64, 110
2, 14168, Note_on_c, 0, 61, 40
2, 14171, Control_c, 0, 64, 86
2, 14190, Control_c, 0, 64, 69
2, 14210, Control_c, 0, 64, 60
2, 14228, Control_c, 0, 64, 36
2, 14248, Control_c, 0, 64, 0
2, 14249, Note_on_c, 0, 77, 0
2, 14290, Note_on_c, 0, 54, 0
2, 14325, Control_c, 0, 64, 36
2, 14344, Control_c, 0, 64, 56
2, 14363, Control_c, 0, 64, 61
2, 14382, Control_c, 0, 64, 62
2, 14402, Control_c, 0, 64, 63
2, 14421, Control_c, 0, 64, 63
2, 14512, Note_on_c, 0, 81, 71
2, 14516, Control_c, 0, 64, 63
2, 14555, Control_c, 0, 64, 62
2, 14593, Control_c, 0, 64, 62
2, 14613, Control_c, 0, 64, 61
2, 14644, Note_on_c, 0, 78, 0
2, 14651, Control_c, 0, 64, 61
2, 14670, Control_c, 0, 64, 60
2, 14690, Control_c, 0, 64, 60
2, 14708, Control_c, 0, 64, 59
2, 14747, Control_c, 0, 64, 59
2, 14824, Control_c, 0, 64, 58
2, 14843, Control_c, 0, 64, 57
2, 14862, Control_c, 0, 64, 57
2, 14882, Control_c, 0, 64, 56
2, 14893, Note_on_c, 0, 54, 43
2, 14901, Control_c, 0, 64, 55
2, 14901, Note_on_c, 0, 50, 34
2, 14905, Note_on_c, 0, 71, 56
2, 14919, Control_c, 0, 64, 55
2, 14939, Control_c, 0, 64, 54
2, 14958, Control_c, 0, 64, 53
2, 14978, Control_c, 0, 64, 53
2, 15016, Control_c, 0, 64, 52
2, 15035, Control_c, 0, 64, 52
2, 15054, Control_c, 0, 64, 51
2, 15055, Note_on_c, 0, 52, 0
2, 15073, Control_c, 0, 64, 50
2, 15093, Control_c, 0, 64, 49
2, 15105, Note_on_c, 0, 61, 0
2, 15112, Control_c, 0, 64, 48
2, 15115, Note_on_c, 0, 81, 0
2, 15131, Control_c, 0, 64, 47
2, 15188, Control_c, 0, 64, 47
2, 15265, Control_c, 0, 64, 46
2, 15285, Control_c, 0, 64, 46
2, 15304, Control_c, 0, 64, 45
2, 15323, Control_c, 0, 64, 44
2, 15342, Control_c, 0, 64, 44
2, 15350, Note_on_c, 0, 81, 76
2, 15487, Note_on_c, 0, 71, 0
2, 15697, Note_on_c, 0, 53, 34
2, 15705, Note_on_c, 0, 80, 70
2, 15784, Note_on_c, 0, 54, 0
2, 15832, Note_on_c, 0, 81, 0
2, 16039, Note_on_c, 0, 81, 79
2, 16130, Control_c, 0, 64, 43
2, 16148, Control_c, 0, 64, 43
2, 16180, Note_on_c, 0, 80, 0
2, 16187, Control_c, 0, 64, 42
2, 16207, Control_c, 0, 64, 42
2, 16283, Control_c, 0, 64, 41
2, 16322, Control_c, 0, 64, 41
2, 16354, Note_on_c, 0, 54, 35
2, 16359, Control_c, 0, 64, 40
2, 16372, Note_on_c, 0, 83, 73
2, 16418, Control_c, 0, 64, 40
2, 16462, Note_on_c, 0, 81, 0
2, 16475, Control_c, 0, 64, 39
2, 16523, Note_on_c, 0, 53, 0
2, 16552, Control_c, 0, 64, 39
2, 16552, Control_c, 0, 67, 14
2, 16571, Control_c, 0, 67, 23
2, 16590, Control_c, 0, 67, 33
2, 16610, Control_c, 0, 67, 43
2, 16627, Note_on_c, 0, 81, 75
2, 16628, Control_c, 0, 67, 53
2, 16648, Control_c, 0, 67, 65
2, 16667, Control_c, 0, 67, 81
2, 16687, Control_c, 0, 67, 102
2, 16705, Control_c, 0, 67, 122
2, 16708, Note_on_c, 0, 83, 0
2, 16725, Control_c, 0, 67, 127
2, 16763, Control_c, 0, 64, 38
2, 16802, Control_c, 0, 64, 38
2, 16821, Control_c, 0, 64, 37
2, 16829, Note_on_c, 0, 80, 77
2, 16839, Control_c, 0, 64, 36
2, 16859, Control_c, 0, 64, 35
2, 16876, Note_on_c, 0, 81, 0
2, 16878, Control_c, 0, 64, 34
2, 16916, Control_c, 0, 64, 34
2, 16993, Control_c, 0, 64, 33
2, 17032, Note_on_c, 0, 81, 67
2, 17040, Note_on_c, 0, 54, 0
2, 17043, Note_on_c, 0, 59, 40
2, 17070, Control_c, 0, 64, 32
2, 17077, Note_on_c, 0, 80, 0
2, 17090, Control_c, 0, 64, 32
2, 17108, Control_c, 0, 64, 31
2, 17128, Control_c, 0, 64, 31
2, 17167, Control_c, 0, 64, 29
2, 17185, Control_c, 0, 64, 29
2, 17205, Control_c, 0, 64, 28
2, 17224, Control_c, 0, 64, 27
2, 17252, Note_on_c, 0, 80, 65
2, 17262, Control_c, 0, 64, 27
2, 17319, Control_c, 0, 64, 26
2, 17341, Note_on_c, 0, 81, 0
2, 17492, Note_on_c, 0, 78, 61
2, 17512, Control_c, 0, 64, 25
2, 17598, Note_on_c, 0, 80, 0
2, 17705, Control_c, 0, 64, 24
2, 17824, Note_on_c, 0, 49, 27
2, 17866, Note_on_c, 0, 77, 54
2, 17944, Note_on_c, 0, 78, 0
2, 17947, Note_on_c, 0, 50, 0
2, 18166, Control_c, 0, 64, 23
2, 18249, Note_on_c, 0, 59, 0
2, 18427, Note_on_c, 0, 72, 50
2, 18472, Control_c, 0, 64, 22
2, 18569, Control_c, 0, 64, 21
2, 18608, Control_c, 0, 64, 20
2, 18628, Note_on_c, 0, 77, 0
2, 18723, Control_c, 0, 64, 19
2, 18790, Note_on_c, 0, 56, 45
2, 19111, Note_on_c, 0, 73, 62
2, 19145, Control_c, 0, 64, 18
2, 19233, Note_on_c, 0, 72, 0
2, 19457, Note_on_c, 0, 78, 67
2, 19469, Note_on_c, 0, 57, 39
2, 19537, Note_on_c, 0, 73, 0
2, 19569, Note_on_c, 0, 56, 0
2, 19794, Note_on_c, 0, 72, 61
2, 20005, Note_on_c, 0, 78, 0
2, 20098, Note_on_c, 0, 54, 37
2, 20258, Note_on_c, 0, 57, 0
2, 20374, Control_c, 0, 64, 19
2, 20469, Control_c, 0, 64, 20
2, 20475, Note_on_c, 0, 73, 55
2, 20546, Control_c, 0, 64, 21
2, 20585, Control_c, 0, 64, 22
2, 20629, Note_on_c, 0, 72, 0
2, 20855, Note_on_c, 0, 53, 37
2, 20948, Note_on_c, 0, 80, 58
2, 21016, Note_on_c, 0, 73, 0
2, 21066, Note_on_c, 0, 54, 0
2, 21263, Note_on_c, 0, 71, 54
2, 21351, Note_on_c, 0, 80, 0
2, 21485, Note_on_c, 0, 73, 60
2, 21549, Note_on_c, 0, 71, 0
2, 21698, Note_on_c, 0, 74, 58
2, 21725, Note_on_c, 0, 73, 0
2, 21901, Note_on_c, 0, 73, 62
2, 22041, Note_on_c, 0, 74, 0
2, 22115, Note_on_c, 0, 71, 54
2, 22210, Note_on_c, 0, 73, 0
2, 22373, Note_on_c, 0, 69, 57
2, 22439, Note_on_c, 0, 71, 0
2, 22462, Note_on_c, 0, 53, 0
2, 22607, Note_on_c, 0, 53, 47
2, 22821, Note_on_c, 0, 54, 59
2, 22907, Note_on_c, 0, 53, 0
2, 23020, Note_on_c, 0, 56, 60
2, 23049, Note_on_c, 0, 54, 0
2, 23227, Note_on_c, 0, 54, 61
2, 23415, Note_on_c, 0, 56, 0
2, 23425, Note_on_c, 0, 53, 56
2, 23447, Note_on_c, 0, 54, 0
2, 23660, Note_on_c, 0, 54, 62
2, 23789, Control_c, 0, 64, 23
2, 23825, Note_on_c, 0, 53, 0
2, 23838, Note_on_c, 0, 68, 74
2, 23842, Note_on_c, 0, 56, 67
2, 23856, Note_on_c, 0, 49, 0
2, 23866, Control_c, 0, 64, 24
2, 23936, Note_on_c, 0, 54, 0
2, 24000, Control_c, 0, 64, 25
2, 24037, Note_on_c, 0, 66, 73
2, 24046, Note_on_c, 0, 57, 61
2, 24054, Note_on_c, 0, 56, 0
2, 24077, Control_c, 0, 64, 26
2, 24079, Note_on_c, 0, 69, 0
2, 24097, Control_c, 0, 67, 121
2, 24108, Note_on_c, 0, 68, 0
2, 24115, Control_c, 0, 64, 27
2, 24115, Control_c, 0, 67, 114
2, 24135, Control_c, 0, 67, 107
2, 24154, Control_c, 0, 64, 27
2, 24154, Control_c, 0, 67, 100
2, 24173, Control_c, 0, 67, 93
2, 24192, Control_c, 0, 67, 85
2, 24212, Control_c, 0, 67, 77
2, 24231, Control_c, 0, 67, 68
2, 24250, Control_c, 0, 67, 59
2, 24251, Note_on_c, 0, 65, 68
2, 24261, Note_on_c, 0, 59, 68
2, 24269, Control_c, 0, 64, 28
2, 24269, Control_c, 0, 67, 48
2, 24274, Note_on_c, 0, 66, 0
2, 24289, Control_c, 0, 67, 38
2, 24293, Note_on_c, 0, 57, 0
2, 24307, Control_c, 0, 67, 28
2, 24327, Control_c, 0, 67, 18
2, 24346, Control_c, 0, 67, 8
2, 24366, Control_c, 0, 67, 0
2, 24461, Control_c, 0, 64, 29
2, 24467, Note_on_c, 0, 57, 59
2, 24472, Note_on_c, 0, 59, 0
2, 24474, Note_on_c, 0, 66, 75
2, 24534, Note_on_c, 0, 65, 0
2, 24669, Note_on_c, 0, 56, 63
2, 24670, Note_on_c, 0, 68, 79
2, 24716, Note_on_c, 0, 57, 0
2, 24722, Note_on_c, 0, 66, 0
2, 24807, Control_c, 0, 64, 28
2, 24826, Control_c, 0, 64, 27
2, 24846, Control_c, 0, 64, 27
2, 24864, Control_c, 0, 64, 25
2, 24903, Control_c, 0, 64, 24
2, 24912, Note_on_c, 0, 66, 71
2, 24914, Note_on_c, 0, 57, 56
2, 24922, Control_c, 0, 64, 22
2, 24941, Control_c, 0, 64, 20
2, 24960, Control_c, 0, 64, 18
2, 24960, Note_on_c, 0, 56, 0
2, 24980, Control_c, 0, 64, 13
2, 24998, Control_c, 0, 64, 0
2, 25002, Note_on_c, 0, 68, 0
2, 25137, Note_on_c, 0, 65, 66
2, 25186, Note_on_c, 0, 66, 0
2, 25367, Note_on_c, 0, 66, 65
2, 25489, Note_on_c, 0, 65, 0
2, 25751, Note_on_c, 0, 75, 66
2, 25760, Note_on_c, 0, 48, 28
2, 25937, Note_on_c, 0, 66, 0
2, 26246, Control_c, 0, 67, 8
2, 26265, Control_c, 0, 67, 17
2, 26285, Control_c, 0, 67, 30
2, 26303, Control_c, 0, 67, 48
2, 26322, Control_c, 0, 67, 64
2, 26342, Control_c, 0, 67, 82
2, 26361, Control_c, 0, 64, 15
2, 26361, Control_c, 0, 67, 104
2, 26380, Control_c, 0, 64, 43
2, 26380, Control_c, 0, 67, 127
2, 26399, Control_c, 0, 64, 55
2, 26419, Control_c, 0, 64, 60
2, 26437, Control_c, 0, 64, 63
2, 26457, Control_c, 0, 64, 64
2, 26476, Control_c, 0, 64, 64
2, 26496, Control_c, 0, 64, 65
2, 26514, Control_c, 0, 64, 66
2, 26534, Control_c, 0, 64, 67
2, 26553, Control_c, 0, 64, 68
2, 26573, Control_c, 0, 64, 69
2, 26574, Note_on_c, 0, 66, 64
2, 26591, Control_c, 0, 64, 71
2, 26611, Control_c, 0, 64, 73
2, 26630, Control_c, 0, 64, 75
2, 26649, Control_c, 0, 64, 77
2, 26655, Note_on_c, 0, 66, 0
2, 26668, Control_c, 0, 64, 78
2, 26688, Control_c, 0, 64, 77
2, 26693, Note_on_c, 0, 75, 0
2, 26707, Control_c, 0, 64, 74
2, 26726, Control_c, 0, 64, 69
2, 26728, Note_on_c, 0, 49, 51
2, 26745, Control_c, 0, 64, 64
2, 26745, Note_on_c, 0, 48, 0
2, 26765, Control_c, 0, 64, 58
2, 26767, Note_on_c, 0, 66, 63
2, 26783, Control_c, 0, 64, 53
2, 26802, Control_c, 0, 64, 48
2, 26822, Control_c, 0, 64, 44
2, 26841, Control_c, 0, 64, 40
2, 26860, Control_c, 0, 64, 35
2, 26879, Control_c, 0, 64, 32
2, 26899, Control_c, 0, 64, 31
2, 26917, Control_c, 0, 64, 31
2, 26937, Control_c, 0, 64, 29
2, 26956, Control_c, 0, 64, 27
2, 26976, Control_c, 0, 64, 25
2, 26994, Control_c, 0, 64, 22
2, 27169, Control_c, 0, 64, 21
2, 27188, Note_on_c, 0, 56, 51
2, 27305, Note_on_c, 0, 57, 0
2, 27320, Note_on_c, 0, 56, 0
2, 27341, Note_on_c, 0, 54, 47
2, 27518, Note_on_c, 0, 56, 41
2, 27552, Control_c, 0, 64, 22
2, 27645, Note_on_c, 0, 54, 0
2, 27864, Note_on_c, 0, 65, 54
2, 27878, Control_c, 0, 64, 23
2, 27987, Note_on_c, 0, 66, 0
2, 28024, Note_on_c, 0, 63, 61
2, 28042, Note_on_c, 0, 65, 0
2, 28200, Note_on_c, 0, 65, 59
2, 28217, Note_on_c, 0, 63, 0
2, 28429, Note_on_c, 0, 61, 63
2, 28463, Note_on_c, 0, 65, 0
2, 28566, Note_on_c, 0, 49, 0
2, 28621, Note_on_c, 0, 63, 66
2, 28690, Note_on_c, 0, 61, 0
2, 28847, Note_on_c, 0, 49, 52
2, 28860, Note_on_c, 0, 65, 61
2, 28863, Note_on_c, 0, 63, 0
2, 28929, Note_on_c, 0, 56, 0
2, 29074, Note_on_c, 0, 66, 62
2, 29142, Note_on_c, 0, 65, 0
2, 29245, Control_c, 0, 64, 24
2, 29264, Note_on_c, 0, 68, 70
2, 29320, Note_on_c, 0, 66, 0
2, 29341, Control_c, 0, 64, 25
2, 29360, Control_c, 0, 67, 123
2, 29380, Control_c, 0, 67, 116
2, 29398, Control_c, 0, 64, 26
2, 29398, Control_c, 0, 67, 109
2, 29418, Control_c, 0, 67, 100
2, 29437, Control_c, 0, 67, 89
2, 29456, Control_c, 0, 67, 80
2, 29475, Control_c, 0, 64, 27
2, 29475, Control_c, 0, 67, 72
2, 29485, Note_on_c, 0, 51, 57
2, 29494, Control_c, 0, 67, 61
2, 29497, Note_on_c, 0, 66, 65
2, 29514, Control_c, 0, 67, 50
2, 29532, Control_c, 0, 67, 39
2, 29552, Control_c, 0, 67, 29
2, 29571, Control_c, 0, 67, 18
2, 29589, Note_on_c, 0, 68, 0
2, 29591, Control_c, 0, 67, 8
2, 29594, Note_on_c, 0, 49, 0
2, 29609, Control_c, 0, 64, 27
2, 29609, Control_c, 0, 67, 0
2, 29708, Note_on_c, 0, 65, 65
2, 29722, Note_on_c, 0, 66, 0
2, 29919, Note_on_c, 0, 66, 72
2, 29965, Note_on_c, 0, 65, 0
2, 30146, Note_on_c, 0, 53, 61
2, 30151, Note_on_c, 0, 68, 74
2, 30315, Note_on_c, 0, 51, 0
2, 30369, Note_on_c, 0, 69, 69
2, 30378, Control_c, 0, 64, 27
2, 30416, Control_c, 0, 64, 26
2, 30435, Control_c, 0, 64, 24
2, 30438, Note_on_c, 0, 66, 0
2, 30438, Note_on_c, 0, 68, 0
2, 30454, Control_c, 0, 64, 23
2, 30474, Control_c, 0, 64, 22
2, 30492, Control_c, 0, 64, 21
2, 30531, Control_c, 0, 64, 20
2, 30551, Control_c, 0, 64, 19
2, 30569, Control_c, 0, 64, 18
2, 30579, Note_on_c, 0, 71, 70
2, 30589, Control_c, 0, 64, 17
2, 30627, Control_c, 0, 64, 15
2, 30641, Note_on_c, 0, 69, 0
2, 30666, Control_c, 0, 64, 13
2, 30743, Control_c, 0, 64, 11
2, 30781, Control_c, 0, 64, 9
2, 30848, Note_on_c, 0, 54, 47
2, 30896, Control_c, 0, 64, 0
2, 30901, Note_on_c, 0, 69, 62
2, 30953, Note_on_c, 0, 53, 0
2, 31069, Note_on_c, 0, 68, 67
2, 31109, Note_on_c, 0, 71, 0
2, 31188, Note_on_c, 0, 69, 0
2, 31270, Note_on_c, 0, 66, 59
2, 31329, Note_on_c, 0, 68, 0
2, 31577, Note_on_c, 0, 42, 50
2, 31710, Note_on_c, 0, 54, 0
2, 31998, Note_on_c, 0, 66, 0
2, 32002, Note_on_c, 0, 69, 65
2, 32168, Note_on_c, 0, 73, 72
2, 32205, Note_on_c, 0, 69, 0
2, 32350, Note_on_c, 0, 45, 59
2, 32361, Note_on_c, 0, 78, 74
2, 32383, Note_on_c, 0, 73, 0
2, 32438, Note_on_c, 0, 42, 0
2, 32595, Note_on_c, 0, 73, 78
2, 32659, Note_on_c, 0, 78, 0
2, 32802, Note_on_c, 0, 75, 78
2, 32875, Note_on_c, 0, 73, 0
2, 33030, Note_on_c, 0, 77, 81
2, 33031, Note_on_c, 0, 49, 71
2, 33038, Note_on_c, 0, 75, 0
2, 33089, Note_on_c, 0, 45, 0
2, 33245, Note_on_c, 0, 78, 86
2, 33297, Note_on_c, 0, 77, 0
2, 33461, Note_on_c, 0, 80, 89
2, 33543, Note_on_c, 0, 78, 0
2, 33687, Note_on_c, 0, 81, 82
2, 33691, Note_on_c, 0, 54, 55
2, 33740, Note_on_c, 0, 49, 0
2, 33741, Note_on_c, 0, 80, 0
2, 33911, Note_on_c, 0, 80, 77
2, 34027, Note_on_c, 0, 81, 0
2, 34145, Note_on_c, 0, 78, 79
2, 34197, Note_on_c, 0, 80, 0
2, 34371, Note_on_c, 0, 80, 74
2, 34375, Note_on_c, 0, 57, 37
2, 34421, Note_on_c, 0, 78, 0
2, 34612, Note_on_c, 0, 78, 68
2, 34746, Note_on_c, 0, 80, 0
2, 34840, Note_on_c, 0, 76, 66
2, 34873, Note_on_c, 0, 78, 0
2, 35101, Note_on_c, 0, 75, 67
2, 35163, Note_on_c, 0, 76, 0
2, 35428, Control_c, 0, 67, 10
2, 35447, Control_c, 0, 67, 17
2, 35467, Control_c, 0, 67, 25
2, 35478, Note_on_c, 0, 76, 74
2, 35485, Control_c, 0, 67, 33
2, 35505, Control_c, 0, 67, 40
2, 35524, Control_c, 0, 67, 47
2, 35540, Control_c, 0, 67, 56
2, 35558, Control_c, 0, 67, 66
2, 35578, Control_c, 0, 67, 78
2, 35587, Note_on_c, 0, 75, 0
2, 35597, Control_c, 0, 67, 92
2, 35617, Control_c, 0, 67, 106
2, 35635, Control_c, 0, 67, 122
2, 35654, Control_c, 0, 67, 127
2, 35867, Note_on_c, 0, 51, 30
2, 35874, Note_on_c, 0, 78, 68
2, 35973, Note_on_c, 0, 54, 0
2, 35981, Note_on_c, 0, 57, 0
2, 35998, Note_on_c, 0, 76, 0
2, 36252, Note_on_c, 0, 57, 43
2, 36326, Control_c, 0, 64, 50
2, 36346, Control_c, 0, 64, 61
2, 36365, Control_c, 0, 64, 64
2, 36384, Control_c, 0, 64, 66
2, 36403, Control_c, 0, 64, 68
2, 36423, Control_c, 0, 64, 71
2, 36441, Control_c, 0, 64, 75
2, 36448, Note_on_c, 0, 57, 0
2, 36461, Control_c, 0, 64, 78
2, 36480, Control_c, 0, 64, 80
2, 36500, Control_c, 0, 64, 81
2, 36518, Control_c, 0, 64, 80
2, 36538, Control_c, 0, 64, 79
2, 36557, Control_c, 0, 64, 77
2, 36565, Note_on_c, 0, 48, 49
2, 36577, Control_c, 0, 64, 76
2, 36595, Control_c, 0, 64, 75
2, 36599, Note_on_c, 0, 57, 59
2, 36614, Control_c, 0, 64, 72
2, 36634, Control_c, 0, 64, 67
2, 36652, Control_c, 0, 64, 63
2, 36659, Note_on_c, 0, 57, 0
2, 36672, Control_c, 0, 64, 58
2, 36691, Control_c, 0, 64, 53
2, 36692, Note_on_c, 0, 56, 60
2, 36710, Control_c, 0, 64, 46
2, 36727, Control_c, 0, 64, 38
2, 36747, Control_c, 0, 64, 17
2, 36747, Note_on_c, 0, 56, 0
2, 36766, Control_c, 0, 64, 0
2, 36769, Note_on_c, 0, 57, 54
2, 36808, Note_on_c, 0, 51, 0
2, 36818, Note_on_c, 0, 57, 0
2, 36836, Note_on_c, 0, 56, 58
2, 37114, Note_on_c, 0, 76, 67
2, 37235, Note_on_c, 0, 78, 0
2, 37481, Note_on_c, 0, 75, 74
2, 37491, Note_on_c, 0, 54, 39
2, 37579, Note_on_c, 0, 76, 0
2, 37594, Note_on_c, 0, 56, 0
2, 37826, Note_on_c, 0, 81, 85
2, 37899, Control_c, 0, 67, 124
2, 37918, Control_c, 0, 67, 118
2, 37925, Note_on_c, 0, 75, 0
2, 37938, Control_c, 0, 67, 112
2, 37956, Control_c, 0, 67, 104
2, 37975, Control_c, 0, 67, 97
2, 37995, Control_c, 0, 67, 91
2, 38014, Control_c, 0, 67, 85
2, 38033, Control_c, 0, 67, 79
2, 38052, Control_c, 0, 67, 73
2, 38072, Control_c, 0, 67, 65
2, 38091, Control_c, 0, 67, 54
2, 38110, Control_c, 0, 67, 45
2, 38129, Control_c, 0, 67, 37
2, 38149, Control_c, 0, 67, 31
2, 38167, Control_c, 0, 67, 25
2, 38187, Control_c, 0, 67, 17
2, 38196, Note_on_c, 0, 80, 73
2, 38202, Note_on_c, 0, 52, 43
2, 38206, Control_c, 0, 67, 8
2, 38226, Control_c, 0, 67, 0
2, 38334, Note_on_c, 0, 48, 0
2, 38362, Note_on_c, 0, 54, 0
2, 38407, Note_on_c, 0, 81, 0
2, 38450, Note_on_c, 0, 78, 76
2, 38543, Note_on_c, 0, 80, 0
2, 38664, Note_on_c, 0, 76, 79
2, 38673, Note_on_c, 0, 78, 0
2, 38869, Note_on_c, 0, 51, 44
2, 38875, Note_on_c, 0, 44, 36
2, 38879, Note_on_c, 0, 78, 74
2, 38948, Note_on_c, 0, 76, 0
2, 38956, Note_on_c, 0, 52, 0
2, 39100, Note_on_c, 0, 76, 71
2, 39308, Note_on_c, 0, 75, 78
2, 39335, Note_on_c, 0, 76, 0
2, 39349, Note_on_c, 0, 78, 0
2, 39615, Note_on_c, 0, 49, 33
2, 39628, Note_on_c, 0, 76, 63
2, 39738, Note_on_c, 0, 75, 0
2, 39752, Note_on_c, 0, 51, 0
2, 39764, Note_on_c, 0, 44, 0
2, 40013, Control_c, 0, 67, 12
2, 40032, Control_c, 0, 67, 22
2, 40034, Note_on_c, 0, 75, 65
2, 40051, Control_c, 0, 67, 33
2, 40071, Control_c, 0, 67, 45
2, 40089, Control_c, 0, 67, 59
2, 40109, Control_c, 0, 67, 76
2, 40128, Control_c, 0, 67, 98
2, 40147, Control_c, 0, 67, 118
2, 40166, Control_c, 0, 67, 127
2, 40196, Note_on_c, 0, 76, 0
2, 40402, Note_on_c, 0, 73, 53
2, 40569, Note_on_c, 0, 75, 0
2, 40746, Note_on_c, 0, 47, 38
2, 41135, Note_on_c, 0, 45, 44
2, 41314, Note_on_c, 0, 47, 0
2, 41514, Note_on_c, 0, 75, 63
2, 41619, Note_on_c, 0, 73, 0
2, 41876, Note_on_c, 0, 44, 32
2, 41876, Note_on_c, 0, 73, 61
2, 41987, Note_on_c, 0, 45, 0
2, 42034, Note_on_c, 0, 75, 0
2, 42262, Note_on_c, 0, 72, 58
2, 42391, Note_on_c, 0, 73, 0
2, 42722, Note_on_c, 0, 42, 24
2, 42793, Note_on_c, 0, 73, 49
2, 42894, Note_on_c, 0, 44, 0
2, 42953, Note_on_c, 0, 72, 0
2, 43268, Note_on_c, 0, 49, 0
2, 43272, Note_on_c, 0, 76, 52
2, 43371, Note_on_c, 0, 73, 0
2, 43645, Note_on_c, 0, 49, 50
2, 43664, Note_on_c, 0, 69, 56
2, 43790, Note_on_c, 0, 76, 0
2, 44005, Note_on_c, 0, 68, 64
2, 44080, Note_on_c, 0, 69, 0
2, 44348, Note_on_c, 0, 54, 63
2, 44354, Note_on_c, 0, 69, 64
2, 44438, Note_on_c, 0, 49, 0
2, 44458, Note_on_c, 0, 68, 0
2, 44698, Note_on_c, 0, 72, 63
2, 44761, Note_on_c, 0, 69, 0
2, 45034, Note_on_c, 0, 66, 61
2, 45040, Note_on_c, 0, 44, 38
2, 45190, Note_on_c, 0, 42, 0
2, 45206, Note_on_c, 0, 54, 0
2, 45271, Note_on_c, 0, 72, 0
2, 45369, Note_on_c, 0, 64, 59
2, 45461, Note_on_c, 0, 66, 0
2, 45725, Note_on_c, 0, 45, 40
2, 45730, Note_on_c, 0, 66, 54
2, 45769, Note_on_c, 0, 64, 0
2, 45896, Note_on_c, 0, 44, 0
2, 46093, Note_on_c, 0, 72, 58
2, 46136, Note_on_c, 0, 66, 0
2, 46438, Note_on_c, 0, 42, 40
2, 46443, Note_on_c, 0, 73, 58
2, 46524, Note_on_c, 0, 72, 0
2, 46528, Note_on_c, 0, 45, 0
2, 46804, Note_on_c, 0, 75, 63
2, 46945, Note_on_c, 0, 73, 0
2, 47169, Note_on_c, 0, 44, 33
2, 47214, Note_on_c, 0, 76, 51
2, 47283, Note_on_c, 0, 75, 0
2, 47320, Note_on_c, 0, 42, 0
2, 47467, Note_on_c, 0, 75, 57
2, 47618, Note_on_c, 0, 76, 0
2, 47700, Note_on_c, 0, 73, 57
2, 47755, Note_on_c, 0, 75, 0
2, 47949, Note_on_c, 0, 75, 55
2, 47955, Note_on_c, 0, 54, 32
2, 48009, Note_on_c, 0, 73, 0
2, 48192, Note_on_c, 0, 73, 52
2, 48382, Note_on_c, 0, 75, 0
2, 48404, Control_c, 0, 67, 120
2, 48423, Control_c, 0, 67, 109
2, 48443, Control_c, 0, 67, 96
2, 48461, Control_c, 0, 67, 83
2, 48475, Note_on_c, 0, 72, 54
2, 48481, Control_c, 0, 67, 68
2, 48500, Control_c, 0, 67, 53
2, 48520, Control_c, 0, 67, 38
2, 48538, Control_c, 0, 67, 20
2, 48558, Control_c, 0, 67, 0
2, 48576, Note_on_c, 0, 73, 0
2, 48984, Note_on_c, 0, 49, 30
2, 49019, Note_on_c, 0, 73, 71
2, 49103, Note_on_c, 0, 44, 0
2, 49112, Note_on_c, 0, 72, 0
2, 49776, Note_on_c, 0, 52, 31
2, 49833, Note_on_c, 0, 68, 69
2, 49944, Note_on_c, 0, 54, 0
2, 50128, Note_on_c, 0, 73, 0
2, 50364, Control_c, 0, 64, 9
2, 50382, Control_c, 0, 64, 15
2, 50402, Control_c, 0, 64, 20
2, 50421, Control_c, 0, 64, 21
2, 50529, Note_on_c, 0, 56, 42
2, 50574, Control_c, 0, 64, 23
2, 50594, Control_c, 0, 64, 24
2, 50613, Control_c, 0, 64, 25
2, 50633, Control_c, 0, 64, 27
2, 50651, Control_c, 0, 64, 31
2, 50671, Control_c, 0, 64, 33
2, 50690, Control_c, 0, 64, 35
2, 50709, Control_c, 0, 64, 36
2, 50712, Note_on_c, 0, 52, 0
2, 50747, Control_c, 0, 64, 37
2, 50767, Control_c, 0, 64, 37
2, 50785, Control_c, 0, 64, 38
2, 50805, Control_c, 0, 64, 39
2, 50844, Control_c, 0, 64, 40
2, 50862, Control_c, 0, 64, 41
2, 50882, Control_c, 0, 64, 43
2, 50901, Control_c, 0, 64, 43
2, 51093, Control_c, 0, 64, 43
2, 51131, Control_c, 0, 64, 42
2, 51151, Control_c, 0, 64, 42
2, 51289, Note_on_c, 0, 64, 62
2, 51290, Note_on_c, 0, 61, 28
2, 51362, Control_c, 0, 64, 41
2, 51381, Control_c, 0, 64, 41
2, 51388, Note_on_c, 0, 56, 0
2, 51388, Note_on_c, 0, 68, 0
2, 51400, Control_c, 0, 64, 40
2, 51496, Control_c, 0, 64, 40
2, 51516, Control_c, 0, 64, 39
2, 51534, Control_c, 0, 64, 39
2, 51573, Control_c, 0, 64, 38
2, 51593, Control_c, 0, 64, 38
2, 51611, Control_c, 0, 64, 37
2, 51622, Note_on_c, 0, 51, 35
2, 51630, Control_c, 0, 64, 36
2, 51632, Note_on_c, 0, 66, 70
2, 51650, Control_c, 0, 64, 36
2, 51669, Control_c, 0, 64, 35
2, 51688, Control_c, 0, 64, 35
2, 51707, Control_c, 0, 64, 34
2, 51710, Note_on_c, 0, 64, 0
2, 51765, Control_c, 0, 64, 34
2, 51784, Control_c, 0, 64, 33
2, 51790, Note_on_c, 0, 49, 0
2, 51804, Control_c, 0, 64, 32
2, 51822, Control_c, 0, 64, 31
2, 51842, Control_c, 0, 64, 29
2, 51861, Control_c, 0, 64, 28
2, 51880, Control_c, 0, 64, 27
2, 51899, Control_c, 0, 64, 26
2, 51919, Control_c, 0, 64, 25
2, 51938, Control_c, 0, 64, 22
2, 51957, Control_c, 0, 64, 20
2, 51964, Note_on_c, 0, 68, 68
2, 51972, Note_on_c, 0, 52, 43
2, 51976, Control_c, 0, 64, 19
2, 52014, Control_c, 0, 64, 18
2, 52034, Control_c, 0, 64, 17
2, 52038, Note_on_c, 0, 51, 0
2, 52053, Control_c, 0, 64, 15
2, 52059, Note_on_c, 0, 66, 0
2, 52210, Note_on_c, 0, 66, 66
2, 52282, Control_c, 0, 64, 17
2, 52300, Control_c, 0, 64, 18
2, 52329, Note_on_c, 0, 68, 0
2, 52433, Note_on_c, 0, 64, 71
2, 52435, Control_c, 0, 64, 19
2, 52462, Note_on_c, 0, 66, 0
2, 52562, Note_on_c, 0, 61, 0
2, 52619, Note_on_c, 0, 60, 58
2, 52622, Note_on_c, 0, 56, 60
2, 52629, Note_on_c, 0, 66, 72
2, 52685, Control_c, 0, 64, 20
2, 52712, Note_on_c, 0, 64, 0
2, 52749, Note_on_c, 0, 52, 0
2, 52845, Note_on_c, 0, 64, 76
2, 52857, Control_c, 0, 64, 19
2, 52934, Control_c, 0, 64, 18
2, 52975, Note_on_c, 0, 60, 0
2, 52982, Note_on_c, 0, 66, 0
2, 53038, Note_on_c, 0, 49, 55
2, 53042, Note_on_c, 0, 63, 73
2, 53088, Note_on_c, 0, 64, 0
2, 53109, Control_c, 0, 64, 17
2, 53244, Control_c, 0, 64, 15
2, 53352, Note_on_c, 0, 64, 73
2, 53360, Note_on_c, 0, 61, 81
2, 53419, Note_on_c, 0, 63, 0
2, 53487, Note_on_c, 0, 56, 0
2, 53720, Note_on_c, 0, 66, 64
2, 53742, Control_c, 0, 64, 13
2, 53785, Note_on_c, 0, 64, 0
2, 53819, Control_c, 0, 64, 11
2, 53916, Control_c, 0, 64, 9
2, 53954, Control_c, 0, 64, 0
2, 54061, Note_on_c, 0, 56, 67
2, 54064, Note_on_c, 0, 64, 65
2, 54181, Note_on_c, 0, 61, 0
2, 54276, Note_on_c, 0, 66, 0
2, 54398, Note_on_c, 0, 63, 51
2, 54492, Note_on_c, 0, 64, 0
2, 54745, Note_on_c, 0, 64, 65
2, 54793, Note_on_c, 0, 63, 0
2, 55056, Note_on_c, 0, 68, 75
2, 55057, Note_on_c, 0, 54, 61
2, 55112, Note_on_c, 0, 56, 0
2, 55121, Note_on_c, 0, 64, 0
2, 55386, Note_on_c, 0, 73, 80
2, 55387, Note_on_c, 0, 52, 68
2, 55390, Note_on_c, 0, 49, 0
2, 55439, Note_on_c, 0, 54, 0
2, 55462, Note_on_c, 0, 68, 0
2, 55689, Note_on_c, 0, 47, 77
2, 55694, Note_on_c, 0, 75, 84
2, 55815, Note_on_c, 0, 73, 0
2, 56053, Note_on_c, 0, 46, 64
2, 56081, Note_on_c, 0, 76, 80
2, 56121, Note_on_c, 0, 75, 0
2, 56181, Note_on_c, 0, 47, 0
2, 56184, Note_on_c, 0, 52, 0
2, 56403, Note_on_c, 0, 79, 83
2, 56449, Note_on_c, 0, 76, 0
2, 56651, Note_on_c, 0, 78, 84
2, 56723, Note_on_c, 0, 79, 0
2, 56865, Note_on_c, 0, 76, 83
2, 56870, Note_on_c, 0, 49, 60
2, 56874, Note_on_c, 0, 52, 54
2, 56953, Note_on_c, 0, 78, 0
2, 57001, Note_on_c, 0, 46, 0
2, 57079, Note_on_c, 0, 74, 80
2, 57082, Note_on_c, 0, 76, 0
2, 57303, Note_on_c, 0, 73, 77
2, 57360, Note_on_c, 0, 74, 0
2, 57549, Note_on_c, 0, 71, 71
2, 57565, Note_on_c, 0, 42, 48
2, 57586, Note_on_c, 0, 52, 0
2, 57683, Note_on_c, 0, 49, 0
2, 57734, Control_c, 0, 67, 17
2, 57754, Control_c, 0, 67, 36
2, 57773, Control_c, 0, 67, 56
2, 57791, Control_c, 0, 67, 78
2, 57793, Note_on_c, 0, 70, 77
2, 57811, Control_c, 0, 67, 105
2, 57827, Note_on_c, 0, 71, 0
2, 57830, Control_c, 0, 67, 127
2, 57835, Note_on_c, 0, 73, 0
2, 58039, Note_on_c, 0, 73, 64
2, 58099, Note_on_c, 0, 70, 0
2, 58269, Note_on_c, 0, 73, 0
2, 58383, Note_on_c, 0, 49, 43
2, 58452, Note_on_c, 0, 64, 57
2, 58916, Note_on_c, 0, 49, 0
2, 59178, Note_on_c, 0, 54, 63
2, 59340, Note_on_c, 0, 66, 62
2, 59356, Note_on_c, 0, 42, 0
2, 59365, Note_on_c, 0, 64, 0
2, 59515, Note_on_c, 0, 64, 66
2, 59565, Note_on_c, 0, 66, 0
2, 59657, Note_on_c, 0, 64, 0
2, 59660, Note_on_c, 0, 63, 67
2, 59851, Note_on_c, 0, 49, 44
2, 59855, Note_on_c, 0, 63, 0
2, 59873, Note_on_c, 0, 64, 49
2, 59987, Note_on_c, 0, 64, 0
2, 60213, Note_on_c, 0, 64, 48
2, 60590, Note_on_c, 0, 46, 39
2, 60757, Note_on_c, 0, 49, 0
2, 60934, Note_on_c, 0, 70, 62
2, 61082, Note_on_c, 0, 64, 0
2, 61304, Note_on_c, 0, 42, 28
2, 61314, Note_on_c, 0, 71, 62
2, 61418, Note_on_c, 0, 70, 0
2, 61419, Note_on_c, 0, 46, 0
2, 61687, Note_on_c, 0, 73, 56
2, 61765, Note_on_c, 0, 71, 0
2, 62102, Note_on_c, 0, 47, 30
2, 62160, Note_on_c, 0, 62, 45
2, 62210, Note_on_c, 0, 42, 0
2, 62265, Note_on_c, 0, 73, 0
2, 62516, Note_on_c, 0, 54, 0
2, 62591, Note_on_c, 0, 64, 53
2, 62677, Note_on_c, 0, 62, 0
2, 62935, Note_on_c, 0, 54, 44
2, 62939, Note_on_c, 0, 62, 62
2, 63160, Note_on_c, 0, 64, 0
2, 63254, Note_on_c, 0, 61, 60
2, 63338, Note_on_c, 0, 62, 0
2, 63600, Note_on_c, 0, 59, 52
2, 63605, Note_on_c, 0, 54, 0
2, 63610, Note_on_c, 0, 62, 64
2, 63644, Note_on_c, 0, 61, 0
2, 63918, Note_on_c, 0, 66, 75
2, 63926, Note_on_c, 0, 54, 54
2, 63973, Note_on_c, 0, 62, 0
2, 63999, Note_on_c, 0, 59, 0
2, 64091, Control_c, 0, 67, 125
2, 64110, Control_c, 0, 67, 118
2, 64130, Control_c, 0, 67, 111
2, 64149, Control_c, 0, 67, 105
2, 64168, Control_c, 0, 67, 98
2, 64187, Control_c, 0, 67, 91
2, 64207, Control_c, 0, 67, 84
2, 64221, Note_on_c, 0, 47, 0
2, 64223, Note_on_c, 0, 50, 53
2, 64225, Control_c, 0, 67, 75
2, 64228, Note_on_c, 0, 71, 73
2, 64245, Control_c, 0, 67, 65
2, 64264, Control_c, 0, 67, 56
2, 64281, Note_on_c, 0, 54, 0
2, 64284, Control_c, 0, 67, 48
2, 64301, Note_on_c, 0, 66, 0
2, 64302, Control_c, 0, 67, 39
2, 64322, Control_c, 0, 67, 28
2, 64341, Control_c, 0, 67, 13
2, 64360, Control_c, 0, 67, 0
2, 64538, Note_on_c, 0, 73, 73
2, 64549, Note_on_c, 0, 54, 46
2, 64573, Note_on_c, 0, 50, 0
2, 64631, Note_on_c, 0, 71, 0
2, 64872, Note_on_c, 0, 47, 39
2, 64902, Note_on_c, 0, 74, 64
2, 64910, Note_on_c, 0, 73, 0
2, 64933, Note_on_c, 0, 54, 0
2, 65129, Note_on_c, 0, 78, 68
2, 65184, Note_on_c, 0, 74, 0
2, 65247, Note_on_c, 0, 50, 46
2, 65258, Note_on_c, 0, 47, 0
2, 65261, Control_c, 0, 67, 10
2, 65281, Control_c, 0, 67, 21
2, 65300, Control_c, 0, 67, 34
2, 65320, Control_c, 0, 67, 49
2, 65338, Control_c, 0, 67, 65
2, 65350, Note_on_c, 0, 76, 63
2, 65358, Control_c, 0, 67, 86
2, 65377, Control_c, 0, 67, 105
2, 65396, Control_c, 0, 67, 124
2, 65415, Control_c, 0, 67, 127
2, 65496, Note_on_c, 0, 78, 0
2, 65539, Note_on_c, 0, 44, 40
2, 65577, Note_on_c, 0, 76, 0
2, 65580, Note_on_c, 0, 74, 59
2, 65791, Note_on_c, 0, 73, 53
2, 65827, Note_on_c, 0, 74, 0
2, 65860, Note_on_c, 0, 47, 35
2, 65941, Note_on_c, 0, 44, 0
2, 66018, Note_on_c, 0, 71, 57
2, 66117, Note_on_c, 0, 73, 0
2, 66268, Note_on_c, 0, 69, 54
2, 66284, Note_on_c, 0, 40, 37
2, 66306, Note_on_c, 0, 71, 0
2, 66396, Note_on_c, 0, 47, 0
2, 66517, Note_on_c, 0, 68, 58
2, 66542, Note_on_c, 0, 50, 0
2, 66564, Note_on_c, 0, 69, 0
2, 66768, Note_on_c, 0, 71, 52
2, 66826, Note_on_c, 0, 68, 0
2, 66962, Note_on_c, 0, 71, 0
2, 67075, Note_on_c, 0, 47, 27
2, 67126, Note_on_c, 0, 62, 51
2, 67535, Note_on_c, 0, 47, 0
2, 67877, Note_on_c, 0, 52, 47
2, 68035, Note_on_c, 0, 40, 0
2, 68035, Note_on_c, 0, 64, 58
2, 68055, Note_on_c, 0, 62, 0
2, 68209, Note_on_c, 0, 62, 54
2, 68286, Note_on_c, 0, 64, 0
2, 68384, Note_on_c, 0, 61, 57
2, 68396, Note_on_c, 0, 62, 0
2, 68584, Note_on_c, 0, 62, 50
2, 68598, Note_on_c, 0, 47, 40
2, 68600, Note_on_c, 0, 61, 0
2, 68740, Note_on_c, 0, 62, 0
2, 68949, Note_on_c, 0, 62, 43
2, 69307, Note_on_c, 0, 44, 38
2, 69531, Note_on_c, 0, 47, 0
2, 69654, Note_on_c, 0, 68, 57
2, 69803, Note_on_c, 0, 62, 0
2, 70000, Note_on_c, 0, 40, 28
2, 70013, Note_on_c, 0, 69, 67
2, 70092, Note_on_c, 0, 44, 0
2, 70110, Note_on_c, 0, 68, 0
2, 70382, Note_on_c, 0, 71, 61
2, 70460, Note_on_c, 0, 69, 0
2, 70757, Note_on_c, 0, 45, 38
2, 70820, Note_on_c, 0, 40, 0
2, 70832, Note_on_c, 0, 61, 61
2, 70921, Note_on_c, 0, 71, 0
2, 71117, Control_c, 0, 67, 125
2, 71136, Control_c, 0, 67, 119
2, 71149, Note_on_c, 0, 52, 0
2, 71155, Control_c, 0, 67, 114
2, 71174, Control_c, 0, 67, 107
2, 71181, Note_on_c, 0, 62, 62
2, 71193, Control_c, 0, 67, 99
2, 71213, Control_c, 0, 67, 91
2, 71231, Control_c, 0, 67, 80
2, 71251, Control_c, 0, 67, 70
2, 71256, Note_on_c, 0, 61, 0
2, 71270, Control_c, 0, 67, 60
2, 71290, Control_c, 0, 67, 54
2, 71308, Control_c, 0, 67, 48
2, 71328, Control_c, 0, 67, 44
2, 71347, Control_c, 0, 67, 38
2, 71366, Control_c, 0, 67, 31
2, 71385, Control_c, 0, 67, 25
2, 71405, Control_c, 0, 67, 18
2, 71424, Control_c, 0, 67, 13
2, 71443, Control_c, 0, 67, 8
2, 71462, Control_c, 0, 67, 0
2, 71515, Note_on_c, 0, 61, 67
2, 71522, Note_on_c, 0, 52, 53
2, 71622, Note_on_c, 0, 62, 0
2, 71844, Note_on_c, 0, 59, 70
2, 71904, Note_on_c, 0, 61, 0
2, 72170, Note_on_c, 0, 61, 68
2, 72175, Note_on_c, 0, 57, 64
2, 72212, Note_on_c, 0, 59, 0
2, 72265, Note_on_c, 0, 52, 0
2, 72502, Note_on_c, 0, 64, 71
2, 72518, Note_on_c, 0, 61, 0
2, 72831, Note_on_c, 0, 56, 54
2, 72838, Note_on_c, 0, 69, 78
2, 72877, Note_on_c, 0, 64, 0
2, 72947, Note_on_c, 0, 57, 0
2, 73160, Note_on_c, 0, 71, 80
2, 73209, Note_on_c, 0, 45, 0
2, 73221, Note_on_c, 0, 69, 0
2, 73468, Note_on_c, 0, 57, 48
2, 73534, Note_on_c, 0, 56, 0
2, 73546, Note_on_c, 0, 73, 67
2, 73551, Note_on_c, 0, 71, 0
2, 73662, Note_on_c, 0, 73, 0
2, 73666, Note_on_c, 0, 71, 71
2, 73727, Control_c, 0, 67, 9
2, 73746, Control_c, 0, 67, 22
2, 73765, Control_c, 0, 67, 36
2, 73784, Control_c, 0, 67, 53
2, 73786, Note_on_c, 0, 73, 70
2, 73804, Control_c, 0, 67, 71
2, 73815, Note_on_c, 0, 71, 0
2, 73823, Control_c, 0, 67, 90
2, 73842, Control_c, 0, 67, 110
2, 73861, Control_c, 0, 67, 127
2, 73871, Note_on_c, 0, 52, 43
2, 74199, Note_on_c, 0, 49, 43
2, 74333, Note_on_c, 0, 52, 0
2, 74533, Note_on_c, 0, 45, 40
2, 74644, Note_on_c, 0, 49, 0
2, 74946, Note_on_c, 0, 50, 41
2, 75024, Note_on_c, 0, 45, 0
2, 75293, Note_on_c, 0, 67, 61
2, 75345, Note_on_c, 0, 57, 0
2, 75652, Note_on_c, 0, 66, 70
2, 75657, Note_on_c, 0, 57, 48
2, 75674, Note_on_c, 0, 73, 0
2, 75775, Note_on_c, 0, 67, 0
2, 75896, Control_c, 0, 67, 124
2, 75916, Control_c, 0, 67, 113
2, 75935, Control_c, 0, 67, 103
2, 75954, Control_c, 0, 67, 91
2, 75964, Note_on_c, 0, 64, 66
2, 75973, Control_c, 0, 67, 79
2, 75992, Control_c, 0, 67, 67
2, 76012, Control_c, 0, 67, 56
2, 76030, Control_c, 0, 67, 46
2, 76044, Note_on_c, 0, 66, 0
2, 76050, Control_c, 0, 67, 37
2, 76069, Control_c, 0, 67, 25
2, 76089, Control_c, 0, 67, 15
2, 76107, Control_c, 0, 67, 0
2, 76304, Note_on_c, 0, 66, 72
2, 76314, Note_on_c, 0, 62, 65
2, 76347, Note_on_c, 0, 64, 0
2, 76364, Note_on_c, 0, 57, 0
2, 76656, Note_on_c, 0, 69, 77
2, 76670, Note_on_c, 0, 66, 0
2, 76960, Note_on_c, 0, 57, 57
2, 76966, Note_on_c, 0, 54, 53
2, 76968, Note_on_c, 0, 74, 78
2, 76998, Note_on_c, 0, 62, 0
2, 77000, Note_on_c, 0, 69, 0
2, 77048, Control_c, 0, 64, 9
2, 77066, Control_c, 0, 64, 15
2, 77086, Control_c, 0, 64, 20
2, 77105, Control_c, 0, 64, 23
2, 77125, Control_c, 0, 64, 24
2, 77140, Note_on_c, 0, 50, 0
2, 77301, Note_on_c, 0, 76, 84
2, 77361, Note_on_c, 0, 74, 0
2, 77371, Control_c, 0, 64, 23
2, 77429, Control_c, 0, 64, 22
2, 77467, Control_c, 0, 64, 21
2, 77563, Control_c, 0, 64, 20
2, 77600, Note_on_c, 0, 51, 66
2, 77602, Control_c, 0, 64, 19
2, 77620, Control_c, 0, 64, 18
2, 77629, Note_on_c, 0, 54, 0
2, 77640, Control_c, 0, 64, 17
2, 77647, Note_on_c, 0, 78, 76
2, 77659, Control_c, 0, 64, 15
2, 77665, Note_on_c, 0, 76, 0
2, 77678, Control_c, 0, 64, 13
2, 77683, Note_on_c, 0, 57, 0
2, 77697, Control_c, 0, 64, 9
2, 77749, Note_on_c, 0, 76, 73
2, 77755, Control_c, 0, 64, 0
2, 77760, Note_on_c, 0, 78, 0
2, 77861, Note_on_c, 0, 78, 82
2, 77883, Note_on_c, 0, 76, 0
2, 77941, Note_on_c, 0, 54, 70
2, 78250, Note_on_c, 0, 56, 72
2, 78273, Note_on_c, 0, 47, 59
2, 78293, Note_on_c, 0, 54, 0
2, 78321, Note_on_c, 0, 51, 0
2, 78567, Note_on_c, 0, 57, 66
2, 78612, Note_on_c, 0, 56, 0
2, 78669, Note_on_c, 0, 47, 0
2, 78752, Note_on_c, 0, 57, 0
2, 78892, Note_on_c, 0, 52, 61
2, 78907, Note_on_c, 0, 57, 74
2, 78937, Note_on_c, 0, 78, 0
2, 78992, Note_on_c, 0, 57, 0
2, 78997, Note_on_c, 0, 56, 75
2, 79054, Note_on_c, 0, 56, 0
2, 79060, Note_on_c, 0, 57, 69
2, 79147, Note_on_c, 0, 56, 73
2, 79155, Note_on_c, 0, 57, 0
2, 79437, Note_on_c, 0, 69, 77
2, 79792, Note_on_c, 0, 68, 84
2, 79795, Note_on_c, 0, 59, 71
2, 79897, Note_on_c, 0, 69, 0
2, 79930, Note_on_c, 0, 56, 0
2, 80121, Note_on_c, 0, 66, 80
2, 80193, Note_on_c, 0, 68, 0
2, 80457, Note_on_c, 0, 68, 77
2, 80469, Note_on_c, 0, 64, 72
2, 80492, Note_on_c, 0, 66, 0
2, 80560, Note_on_c, 0, 59, 0
2, 80797, Note_on_c, 0, 71, 78
2, 80833, Note_on_c, 0, 68, 0
2, 81137, Note_on_c, 0, 76, 80
2, 81141, Note_on_c, 0, 59, 62
2, 81173, Note_on_c, 0, 64, 0
2, 81209, Note_on_c, 0, 71, 0
2, 81453, Note_on_c, 0, 80, 83
2, 81556, Note_on_c, 0, 76, 0
2, 81798, Note_on_c, 0, 56, 46
2, 81815, Note_on_c, 0, 83, 81
2, 81927, Note_on_c, 0, 80, 0
2, 81939, Note_on_c, 0, 59, 0
2, 81991, Note_on_c, 0, 52, 0
2, 82160, Note_on_c, 0, 74, 71
2, 82245, Note_on_c, 0, 83, 0
2, 82496, Note_on_c, 0, 52, 49
2, 82508, Note_on_c, 0, 73, 75
2, 82594, Note_on_c, 0, 74, 0
2, 82875, Note_on_c, 0, 71, 71
2, 83005, Note_on_c, 0, 73, 0
2, 83267, Note_on_c, 0, 57, 48
2, 83289, Note_on_c, 0, 45, 44
2, 83303, Note_on_c, 0, 73, 70
2, 83370, Note_on_c, 0, 56, 0
2, 83414, Note_on_c, 0, 71, 0
2, 83423, Note_on_c, 0, 52, 0
2, 83669, Control_c, 0, 64, 47
2, 83688, Control_c, 0, 64, 61
2, 83707, Control_c, 0, 64, 65
2, 83710, Note_on_c, 0, 78, 76
2, 83726, Control_c, 0, 64, 69
2, 83746, Control_c, 0, 64, 76
2, 83765, Control_c, 0, 64, 88
2, 83783, Control_c, 0, 64, 106
2, 83802, Note_on_c, 0, 73, 0
2, 83803, Control_c, 0, 64, 127
2, 83813, Note_on_c, 0, 45, 0
2, 84052, Control_c, 0, 64, 123
2, 84059, Note_on_c, 0, 56, 68
2, 84067, Note_on_c, 0, 76, 76
2, 84072, Control_c, 0, 64, 93
2, 84072, Note_on_c, 0, 47, 47
2, 84091, Control_c, 0, 64, 78
2, 84111, Control_c, 0, 64, 68
2, 84129, Control_c, 0, 64, 60
2, 84149, Control_c, 0, 64, 45
2, 84165, Note_on_c, 0, 57, 0
2, 84168, Control_c, 0, 64, 34
2, 84187, Control_c, 0, 64, 32
2, 84187, Note_on_c, 0, 78, 0
2, 84206, Control_c, 0, 64, 32
2, 84226, Control_c, 0, 64, 31
2, 84245, Control_c, 0, 64, 27
2, 84263, Control_c, 0, 64, 24
2, 84283, Control_c, 0, 64, 23
2, 84302, Control_c, 0, 64, 22
2, 84397, Note_on_c, 0, 75, 79
2, 84451, Note_on_c, 0, 76, 0
2, 84494, Control_c, 0, 64, 23
2, 84609, Control_c, 0, 64, 24
2, 84629, Control_c, 0, 64, 26
2, 84648, Control_c, 0, 64, 27
2, 84667, Control_c, 0, 64, 28
2, 84704, Note_on_c, 0, 49, 66
2, 84727, Note_on_c, 0, 76, 72
2, 84761, Note_on_c, 0, 47, 0
2, 84776, Note_on_c, 0, 75, 0
2, 85050, Note_on_c, 0, 57, 76
2, 85051, Note_on_c, 0, 73, 74
2, 85072, Control_c, 0, 64, 29
2, 85082, Note_on_c, 0, 56, 0
2, 85301, Control_c, 0, 64, 29
2, 85309, Note_on_c, 0, 76, 0
2, 85379, Note_on_c, 0, 71, 72
2, 85399, Note_on_c, 0, 49, 0
2, 85419, Note_on_c, 0, 50, 66
2, 85552, Note_on_c, 0, 73, 0
2, 85705, Note_on_c, 0, 59, 76
2, 85719, Note_on_c, 0, 69, 70
2, 85743, Control_c, 0, 64, 29
2, 85775, Note_on_c, 0, 71, 0
2, 85778, Note_on_c, 0, 57, 0
2, 85801, Control_c, 0, 64, 28
2, 85973, Control_c, 0, 64, 27
2, 86012, Control_c, 0, 64, 27
2, 86031, Note_on_c, 0, 52, 62
2, 86044, Note_on_c, 0, 73, 69
2, 86062, Note_on_c, 0, 50, 0
2, 86114, Note_on_c, 0, 69, 0
2, 86127, Control_c, 0, 64, 26
2, 86300, Control_c, 0, 64, 25
2, 86377, Note_on_c, 0, 57, 67
2, 86394, Note_on_c, 0, 64, 61
2, 86476, Note_on_c, 0, 59, 0
2, 86497, Note_on_c, 0, 73, 0
2, 86518, Note_on_c, 0, 52, 0
2, 86730, Note_on_c, 0, 52, 57
2, 86735, Note_on_c, 0, 71, 73
2, 86855, Note_on_c, 0, 64, 0
2, 87084, Note_on_c, 0, 56, 64
2, 87097, Note_on_c, 0, 62, 63
2, 87175, Note_on_c, 0, 57, 0
2, 87178, Note_on_c, 0, 71, 0
2, 87242, Control_c, 0, 64, 24
2, 87293, Note_on_c, 0, 52, 0
2, 87526, Note_on_c, 0, 57, 67
2, 87547, Note_on_c, 0, 61, 68
2, 87635, Note_on_c, 0, 62, 0
2, 87738, Note_on_c, 0, 56, 0
2, 87929, Note_on_c, 0, 64, 70
2, 88024, Note_on_c, 0, 61, 0
2, 88124, Control_c, 0, 64, 25
2, 88252, Note_on_c, 0, 69, 75
2, 88332, Note_on_c, 0, 64, 0
2, 88412, Control_c, 0, 64, 24
2, 88527, Control_c, 0, 64, 23
2, 88582, Note_on_c, 0, 52, 52
2, 88731, Note_on_c, 0, 57, 0
2, 88776, Control_c, 0, 64, 22
2, 88814, Control_c, 0, 64, 21
2, 88834, Control_c, 0, 64, 20
2, 88911, Control_c, 0, 64, 19
2, 88911, Note_on_c, 0, 49, 56
2, 88949, Control_c, 0, 64, 18
2, 88968, Control_c, 0, 64, 17
2, 88987, Control_c, 0, 64, 13
2, 89006, Control_c, 0, 64, 11
2, 89025, Control_c, 0, 64, 0
2, 89045, Control_c, 0, 67, 16
2, 89048, Note_on_c, 0, 52, 0
2, 89063, Control_c, 0, 67, 33
2, 89083, Control_c, 0, 67, 50
2, 89102, Control_c, 0, 67, 69
2, 89122, Control_c, 0, 67, 91
2, 89140, Control_c, 0, 67, 118
2, 89160, Control_c, 0, 67, 127
2, 89254, Note_on_c, 0, 64, 56
2, 89259, Note_on_c, 0, 45, 39
2, 89323, Note_on_c, 0, 49, 0
2, 89327, Note_on_c, 0, 69, 0
2, 89598, Note_on_c, 0, 69, 60
2, 89612, Note_on_c, 0, 49, 39
2, 89683, Note_on_c, 0, 64, 0
2, 89766, Note_on_c, 0, 45, 0
2, 89924, Note_on_c, 0, 52, 35
2, 89925, Note_on_c, 0, 71, 59
2, 90030, Note_on_c, 0, 69, 0
2, 90095, Note_on_c, 0, 49, 0
2, 90292, Note_on_c, 0, 73, 53
2, 90326, Note_on_c, 0, 57, 28
2, 90390, Note_on_c, 0, 52, 0
2, 90631, Note_on_c, 0, 69, 54
2, 90756, Note_on_c, 0, 71, 0
2, 90797, Note_on_c, 0, 73, 0
2, 91027, Note_on_c, 0, 66, 49
2, 91030, Note_on_c, 0, 60, 36
2, 91146, Note_on_c, 0, 69, 0
2, 91450, Note_on_c, 0, 75, 70
2, 91597, Note_on_c, 0, 66, 0
2, 91925, Note_on_c, 0, 59, 35
2, 91930, Note_on_c, 0, 55, 25
2, 92007, Note_on_c, 0, 76, 58
2, 92024, Note_on_c, 0, 60, 0
2, 92061, Note_on_c, 0, 57, 0
2, 92086, Note_on_c, 0, 75, 0
2, 92501, Note_on_c, 0, 71, 53
2, 92725, Note_on_c, 0, 76, 0
2, 92804, Note_on_c, 0, 54, 37
2, 92807, Note_on_c, 0, 57, 40
2, 92935, Note_on_c, 0, 55, 0
2, 92985, Note_on_c, 0, 59, 0
2, 93022, Control_c, 0, 67, 124
2, 93041, Control_c, 0, 64, 9
2, 93041, Control_c, 0, 67, 109
2, 93060, Control_c, 0, 64, 39
2, 93060, Control_c, 0, 67, 92
2, 93080, Control_c, 0, 64, 52
2, 93080, Control_c, 0, 67, 75
2, 93099, Control_c, 0, 64, 57
2, 93099, Control_c, 0, 67, 56
2, 93117, Control_c, 0, 64, 60
2, 93117, Control_c, 0, 67, 39
2, 93137, Control_c, 0, 64, 62
2, 93137, Control_c, 0, 67, 18
2, 93137, Note_on_c, 0, 75, 78
2, 93156, Control_c, 0, 64, 63
2, 93156, Control_c, 0, 67, 0
2, 93175, Control_c, 0, 64, 65
2, 93194, Control_c, 0, 64, 66
2, 93214, Control_c, 0, 64, 69
2, 93233, Control_c, 0, 64, 74
2, 93252, Control_c, 0, 64, 81
2, 93260, Note_on_c, 0, 71, 0
2, 93271, Control_c, 0, 64, 88
2, 93291, Control_c, 0, 64, 93
2, 93310, Control_c, 0, 64, 97
2, 93329, Control_c, 0, 64, 98
2, 93425, Control_c, 0, 64, 98
2, 93445, Control_c, 0, 64, 96
2, 93463, Control_c, 0, 64, 94
2, 93469, Note_on_c, 0, 55, 44
2, 93483, Control_c, 0, 64, 90
2, 93490, Note_on_c, 0, 52, 44
2, 93502, Control_c, 0, 64, 83
2, 93509, Note_on_c, 0, 76, 78
2, 93521, Control_c, 0, 64, 75
2, 93540, Control_c, 0, 64, 66
2, 93560, Control_c, 0, 64, 58
2, 93579, Control_c, 0, 64, 38
2, 93581, Note_on_c, 0, 54, 0
2, 93583, Note_on_c, 0, 57, 0
2, 93597, Control_c, 0, 64, 0
2, 93601, Note_on_c, 0, 75, 0
2, 93866, Control_c, 0, 64, 41
2, 93872, Note_on_c, 0, 71, 67
2, 93886, Control_c, 0, 64, 57
2, 93905, Control_c, 0, 64, 62
2, 93925, Control_c, 0, 64, 63
2, 93937, Note_on_c, 0, 55, 0
2, 93943, Control_c, 0, 64, 64
2, 93963, Control_c, 0, 64, 64
2, 93982, Control_c, 0, 64, 66
2, 94001, Control_c, 0, 64, 68
2, 94020, Control_c, 0, 64, 71
2, 94040, Control_c, 0, 64, 76
2, 94059, Control_c, 0, 64, 81
2, 94077, Control_c, 0, 64, 86
2, 94087, Note_on_c, 0, 76, 0
2, 94097, Control_c, 0, 64, 88
2, 94191, Note_on_c, 0, 59, 60
2, 94200, Note_on_c, 0, 55, 55
2, 94212, Control_c, 0, 64, 88
2, 94270, Control_c, 0, 64, 88
2, 94298, Note_on_c, 0, 52, 0
2, 94366, Control_c, 0, 64, 87
2, 94405, Control_c, 0, 64, 87
2, 94481, Control_c, 0, 64, 86
2, 94500, Control_c, 0, 64, 86
2, 94520, Control_c, 0, 64, 85
2, 94535, Note_on_c, 0, 75, 84
2, 94557, Control_c, 0, 64, 85
2, 94592, Note_on_c, 0, 59, 0
2, 94596, Control_c, 0, 64, 84
2, 94615, Control_c, 0, 64, 83
2, 94641, Note_on_c, 0, 71, 0
2, 94650, Note_on_c, 0, 49, 60
2, 94654, Control_c, 0, 64, 83
2, 94673, Control_c, 0, 64, 82
2, 94692, Control_c, 0, 64, 81
2, 94711, Control_c, 0, 64, 81
2, 94750, Control_c, 0, 64, 80
2, 94788, Control_c, 0, 64, 80
2, 94808, Control_c, 0, 64, 79
2, 94865, Control_c, 0, 64, 78
2, 94885, Control_c, 0, 64, 78
2, 94903, Control_c, 0, 64, 76
2, 94923, Control_c, 0, 64, 74
2, 94942, Control_c, 0, 64, 71
2, 94952, Note_on_c, 0, 61, 81
2, 94961, Control_c, 0, 64, 66
2, 94964, Note_on_c, 0, 57, 22
2, 94965, Note_on_c, 0, 76, 71
2, 94980, Control_c, 0, 64, 63
2, 95000, Control_c, 0, 64, 62
2, 95005, Note_on_c, 0, 55, 0
2, 95015, Note_on_c, 0, 57, 0
2, 95019, Control_c, 0, 64, 60
2, 95026, Note_on_c, 0, 75, 0
2, 95037, Control_c, 0, 64, 57
2, 95057, Control_c, 0, 64, 53
2, 95076, Control_c, 0, 64, 46
2, 95095, Control_c, 0, 64, 34
2, 95114, Control_c, 0, 64, 23
2, 95134, Control_c, 0, 64, 19
2, 95153, Control_c, 0, 64, 13
2, 95172, Control_c, 0, 64, 0
2, 95320, Note_on_c, 0, 71, 65
2, 95445, Note_on_c, 0, 76, 0
2, 95642, Note_on_c, 0, 54, 53
2, 95665, Note_on_c, 0, 70, 62
2, 95677, Note_on_c, 0, 71, 0
2, 95740, Note_on_c, 0, 49, 0
2, 95768, Control_c, 0, 67, 10
2, 95786, Control_c, 0, 67, 19
2, 95806, Control_c, 0, 67, 28
2, 95825, Control_c, 0, 67, 39
2, 95845, Control_c, 0, 67, 57
2, 95863, Control_c, 0, 67, 79
2, 95883, Control_c, 0, 67, 103
2, 95902, Control_c, 0, 67, 127
2, 95978, Note_on_c, 0, 70, 0
2, 95978, Note_on_c, 0, 76, 66
2, 96223, Note_on_c, 0, 76, 0
2, 96297, Note_on_c, 0, 59, 66
2, 96310, Note_on_c, 0, 76, 69
2, 96353, Note_on_c, 0, 61, 0
2, 96365, Note_on_c, 0, 76, 0
2, 96376, Note_on_c, 0, 74, 66
2, 96382, Note_on_c, 0, 54, 0
2, 96415, Note_on_c, 0, 74, 0
2, 96433, Note_on_c, 0, 76, 70
2, 96505, Note_on_c, 0, 76, 0
2, 96840, Note_on_c, 0, 73, 68
2, 97176, Note_on_c, 0, 71, 60
2, 97285, Note_on_c, 0, 73, 0
2, 97513, Note_on_c, 0, 54, 53
2, 97705, Note_on_c, 0, 59, 0
2, 97835, Note_on_c, 0, 50, 55
2, 97900, Control_c, 0, 67, 123
2, 97918, Control_c, 0, 67, 111
2, 97938, Control_c, 0, 67, 96
2, 97951, Note_on_c, 0, 54, 0
2, 97957, Control_c, 0, 67, 80
2, 97976, Control_c, 0, 67, 66
2, 97995, Control_c, 0, 67, 56
2, 98015, Control_c, 0, 67, 46
2, 98034, Control_c, 0, 67, 36
2, 98053, Control_c, 0, 67, 24
2, 98072, Control_c, 0, 67, 12
2, 98092, Control_c, 0, 67, 0
2, 98148, Note_on_c, 0, 66, 64
2, 98157, Note_on_c, 0, 47, 50
2, 98241, Note_on_c, 0, 71, 0
2, 98262, Note_on_c, 0, 50, 0
2, 98484, Note_on_c, 0, 71, 74
2, 98493, Note_on_c, 0, 50, 68
2, 98549, Note_on_c, 0, 66, 0
2, 98599, Note_on_c, 0, 47, 0
2, 98808, Note_on_c, 0, 73, 76
2, 98812, Note_on_c, 0, 54, 73
2, 98877, Note_on_c, 0, 71, 0
2, 98914, Note_on_c, 0, 50, 0
2, 99145, Note_on_c, 0, 59, 76
2, 99151, Note_on_c, 0, 74, 68
2, 99194, Note_on_c, 0, 54, 0
2, 99250, Note_on_c, 0, 73, 0
2, 99479, Note_on_c, 0, 71, 64
2, 99599, Note_on_c, 0, 74, 0
2, 99795, Note_on_c, 0, 62, 40
2, 99803, Note_on_c, 0, 68, 59
2, 99871, Note_on_c, 0, 71, 0
2, 100178, Note_on_c, 0, 77, 70
2, 100300, Note_on_c, 0, 68, 0
2, 100561, Note_on_c, 0, 57, 38
2, 100563, Note_on_c, 0, 61, 42
2, 100605, Note_on_c, 0, 59, 0
2, 100611, Note_on_c, 0, 78, 74
2, 100645, Note_on_c, 0, 62, 0
2, 100689, Note_on_c, 0, 77, 0
2, 101028, Note_on_c, 0, 73, 62
2, 101184, Note_on_c, 0, 78, 0
2, 101327, Note_on_c, 0, 59, 57
2, 101329, Note_on_c, 0, 56, 51
2, 101385, Note_on_c, 0, 57, 0
2, 101439, Note_on_c, 0, 61, 0
2, 101638, Note_on_c, 0, 77, 78
2, 101700, Control_c, 0, 64, 9
2, 101719, Control_c, 0, 64, 13
2, 101739, Control_c, 0, 64, 18
2, 101757, Control_c, 0, 64, 21
2, 101777, Control_c, 0, 64, 23
2, 101796, Control_c, 0, 64, 24
2, 101798, Note_on_c, 0, 73, 0
2, 101834, Control_c, 0, 64, 25
2, 101911, Control_c, 0, 64, 24
2, 101931, Control_c, 0, 64, 20
2, 101950, Control_c, 0, 64, 11
2, 101969, Control_c, 0, 64, 0
2, 101971, Note_on_c, 0, 57, 53
2, 101980, Note_on_c, 0, 54, 53
2, 101985, Note_on_c, 0, 78, 79
2, 102044, Note_on_c, 0, 77, 0
2, 102051, Note_on_c, 0, 56, 0
2, 102060, Note_on_c, 0, 59, 0
2, 102314, Control_c, 0, 64, 22
2, 102321, Note_on_c, 0, 73, 76
2, 102334, Control_c, 0, 64, 49
2, 102353, Control_c, 0, 64, 60
2, 102372, Control_c, 0, 64, 63
2, 102391, Control_c, 0, 64, 65
2, 102408, Note_on_c, 0, 57, 0
2, 102411, Control_c, 0, 64, 66
2, 102430, Control_c, 0, 64, 68
2, 102449, Control_c, 0, 64, 71
2, 102468, Control_c, 0, 64, 77
2, 102472, Note_on_c, 0, 78, 0
2, 102488, Control_c, 0, 64, 85
2, 102506, Control_c, 0, 64, 94
2, 102526, Control_c, 0, 64, 104
2, 102545, Control_c, 0, 64, 112
2, 102565, Control_c, 0, 64, 119
2, 102583, Control_c, 0, 64, 127
2, 102639, Note_on_c, 0, 61, 75
2, 102653, Note_on_c, 0, 57, 67
2, 102751, Note_on_c, 0, 54, 0
2, 102945, Note_on_c, 0, 77, 87
2, 103045, Control_c, 0, 64, 123
2, 103063, Control_c, 0, 64, 107
2, 103083, Control_c, 0, 64, 99
2, 103084, Note_on_c, 0, 73, 0
2, 103086, Note_on_c, 0, 51, 69
2, 103100, Note_on_c, 0, 61, 0
2, 103102, Control_c, 0, 64, 93
2, 103121, Control_c, 0, 64, 87
2, 103140, Control_c, 0, 64, 81
2, 103159, Control_c, 0, 64, 76
2, 103179, Control_c, 0, 64, 71
2, 103197, Control_c, 0, 64, 66
2, 103217, Control_c, 0, 64, 62
2, 103236, Control_c, 0, 64, 58
2, 103255, Control_c, 0, 64, 55
2, 103274, Control_c, 0, 64, 51
2, 103294, Control_c, 0, 64, 45
2, 103313, Control_c, 0, 64, 37
2, 103332, Control_c, 0, 64, 27
2, 103350, Note_on_c, 0, 63, 88
2, 103351, Control_c, 0, 64, 0
2, 103367, Note_on_c, 0, 78, 80
2, 103412, Note_on_c, 0, 57, 0
2, 103432, Note_on_c, 0, 77, 0
2, 103694, Note_on_c, 0, 73, 70
2, 103833, Note_on_c, 0, 78, 0
2, 104023, Note_on_c, 0, 56, 65
2, 104031, Note_on_c, 0, 72, 70
2, 104072, Note_on_c, 0, 73, 0
2, 104151, Note_on_c, 0, 51, 0
2, 104357, Note_on_c, 0, 78, 76
2, 104391, Note_on_c, 0, 72, 0
2, 104576, Note_on_c, 0, 78, 0
2, 104670, Note_on_c, 0, 61, 74
2, 104671, Note_on_c, 0, 78, 78
2, 104695, Note_on_c, 0, 63, 0
2, 104740, Note_on_c, 0, 78, 0
2, 104755, Note_on_c, 0, 76, 74
2, 104783, Note_on_c, 0, 56, 0
2, 104800, Note_on_c, 0, 78, 72
2, 104805, Note_on_c, 0, 76, 0
2, 104884, Note_on_c, 0, 76, 70
2, 104888, Note_on_c, 0, 78, 0
2, 105143, Note_on_c, 0, 75, 80
2, 105195, Note_on_c, 0, 76, 0
2, 105493, Note_on_c, 0, 73, 70
2, 105726, Note_on_c, 0, 75, 0
2, 105826, Note_on_c, 0, 56, 57
2, 105999, Note_on_c, 0, 61, 0
2, 106141, Note_on_c, 0, 52, 59
2, 106255, Note_on_c, 0, 56, 0
2, 106460, Note_on_c, 0, 68, 76
2, 106475, Note_on_c, 0, 49, 59
2, 106534, Note_on_c, 0, 73, 0
2, 106544, Note_on_c, 0, 52, 0
2, 106786, Note_on_c, 0, 73, 79
2, 106790, Note_on_c, 0, 52, 69
2, 106859, Note_on_c, 0, 68, 0
2, 106927, Note_on_c, 0, 49, 0
2, 107115, Note_on_c, 0, 75, 79
2, 107119, Note_on_c, 0, 56, 69
2, 107196, Note_on_c, 0, 73, 0
2, 107247, Note_on_c, 0, 52, 0
2, 107442, Note_on_c, 0, 76, 74
2, 107449, Note_on_c, 0, 61, 65
2, 107512, Note_on_c, 0, 75, 0
2, 107583, Note_on_c, 0, 56, 0
2, 107768, Note_on_c, 0, 73, 71
2, 107837, Note_on_c, 0, 76, 0
2, 108095, Note_on_c, 0, 70, 67
2, 108103, Note_on_c, 0, 52, 52
2, 108259, Note_on_c, 0, 73, 0
2, 108453, Note_on_c, 0, 79, 78
2, 108556, Note_on_c, 0, 70, 0
2, 108824, Note_on_c, 0, 50, 51
2, 108857, Note_on_c, 0, 78, 70
2, 108912, Note_on_c, 0, 52, 0
2, 109047, Note_on_c, 0, 79, 0
2, 109213, Note_on_c, 0, 74, 67
2, 109356, Note_on_c, 0, 78, 0
2, 109527, Note_on_c, 0, 54, 58
2, 109548, Note_on_c, 0, 71, 64
2, 109591, Note_on_c, 0, 74, 0
2, 109605, Note_on_c, 0, 61, 0
2, 109874, Note_on_c, 0, 70, 74
2, 109933, Note_on_c, 0, 71, 0
2, 110001, Note_on_c, 0, 50, 0
2, 110176, Note_on_c, 0, 50, 57
2, 110195, Note_on_c, 0, 71, 69
2, 110243, Note_on_c, 0, 70, 0
2, 110269, Note_on_c, 0, 54, 0
2, 110499, Note_on_c, 0, 47, 59
2, 110506, Note_on_c, 0, 66, 70
2, 110540, Note_on_c, 0, 71, 0
2, 110579, Note_on_c, 0, 50, 0
2, 110820, Note_on_c, 0, 71, 78
2, 110828, Note_on_c, 0, 50, 71
2, 110859, Note_on_c, 0, 66, 0
2, 110986, Note_on_c, 0, 47, 0
2, 111143, Note_on_c, 0, 54, 76
2, 111143, Note_on_c, 0, 74, 79
2, 111227, Note_on_c, 0, 71, 0
2, 111237, Note_on_c, 0, 50, 0
2, 111490, Note_on_c, 0, 59, 82
2, 111490, Note_on_c, 0, 78, 83
2, 111524, Note_on_c, 0, 74, 0
2, 111567, Note_on_c, 0, 54, 0
2, 111817, Note_on_c, 0, 74, 75
2, 111930, Note_on_c, 0, 78, 0
2, 112136, Note_on_c, 0, 54, 68
2, 112142, Note_on_c, 0, 51, 53
2, 112144, Note_on_c, 0, 72, 74
2, 112190, Note_on_c, 0, 74, 0
2, 112237, Note_on_c, 0, 59, 0
2, 112488, Note_on_c, 0, 81, 91
2, 112555, Note_on_c, 0, 72, 0
2, 112618, Note_on_c, 0, 52, 71
2, 112660, Note_on_c, 0, 54, 0
2, 112701, Note_on_c, 0, 51, 0
2, 112942, Note_on_c, 0, 80, 81
2, 112945, Note_on_c, 0, 61, 88
2, 113041, Note_on_c, 0, 81, 0
2, 113329, Note_on_c, 0, 76, 76
2, 113455, Note_on_c, 0, 80, 0
2, 113653, Note_on_c, 0, 73, 81
2, 113659, Note_on_c, 0, 56, 74
2, 113743, Note_on_c, 0, 61, 0
2, 113745, Note_on_c, 0, 76, 0
2, 113832, Control_c, 0, 64, 9
2, 113852, Control_c, 0, 64, 13
2, 113871, Control_c, 0, 64, 15
2, 113890, Control_c, 0, 64, 17
2, 113929, Control_c, 0, 64, 18
2, 113948, Control_c, 0, 64, 20
2, 113967, Control_c, 0, 64, 21
2, 113980, Note_on_c, 0, 72, 78
2, 114006, Control_c, 0, 64, 22
2, 114044, Note_on_c, 0, 73, 0
2, 114083, Control_c, 0, 64, 23
2, 114132, Note_on_c, 0, 52, 0
2, 114178, Control_c, 0, 64, 24
2, 114197, Control_c, 0, 64, 25
2, 114217, Control_c, 0, 64, 26
2, 114311, Note_on_c, 0, 52, 63
2, 114315, Note_on_c, 0, 73, 82
2, 114356, Note_on_c, 0, 72, 0
2, 114370, Control_c, 0, 64, 27
2, 114428, Control_c, 0, 64, 27
2, 114447, Control_c, 0, 64, 28
2, 114450, Note_on_c, 0, 56, 0
2, 114466, Control_c, 0, 64, 29
2, 114486, Control_c, 0, 64, 31
2, 114524, Control_c, 0, 64, 31
2, 114562, Control_c, 0, 64, 32
2, 114581, Control_c, 0, 64, 33
2, 114600, Control_c, 0, 64, 35
2, 114620, Control_c, 0, 64, 36
2, 114639, Control_c, 0, 64, 37
2, 114646, Note_on_c, 0, 68, 86
2, 114650, Note_on_c, 0, 49, 61
2, 114677, Control_c, 0, 64, 37
2, 114729, Note_on_c, 0, 73, 0
2, 114748, Note_on_c, 0, 52, 0
2, 114754, Control_c, 0, 64, 37
2, 114792, Control_c, 0, 64, 36
2, 114889, Control_c, 0, 64, 36
2, 114908, Control_c, 0, 64, 35
2, 114927, Control_c, 0, 64, 34
2, 114946, Control_c, 0, 64, 32
2, 114955, Note_on_c, 0, 73, 87
2, 114966, Control_c, 0, 64, 31
2, 114966, Note_on_c, 0, 52, 75
2, 115004, Control_c, 0, 64, 30
2, 115021, Note_on_c, 0, 68, 0
2, 115023, Control_c, 0, 64, 29
2, 115042, Control_c, 0, 64, 28
2, 115061, Control_c, 0, 64, 26
2, 115080, Control_c, 0, 64, 23
2, 115100, Control_c, 0, 64, 21
2, 115119, Control_c, 0, 64, 20
2, 115130, Note_on_c, 0, 49, 0
2, 115138, Control_c, 0, 64, 19
2, 115157, Control_c, 0, 64, 17
2, 115177, Control_c, 0, 64, 15
2, 115195, Control_c, 0, 64, 13
2, 115215, Control_c, 0, 64, 11
2, 115234, Control_c, 0, 64, 9
2, 115290, Note_on_c, 0, 76, 85
2, 115292, Control_c, 0, 64, 0
2, 115295, Note_on_c, 0, 56, 77
2, 115553, Note_on_c, 0, 52, 0
2, 115623, Note_on_c, 0, 80, 91
2, 115626, Note_on_c, 0, 61, 72
2, 115658, Note_on_c, 0, 76, 0
2, 115660, Note_on_c, 0, 73, 0
2, 115675, Control_c, 0, 64, 9
2, 115706, Note_on_c, 0, 56, 0
2, 115772, Control_c, 0, 64, 11
2, 115983, Control_c, 0, 64, 9
2, 115983, Note_on_c, 0, 77, 86
2, 116046, Note_on_c, 0, 80, 0
2, 116297, Note_on_c, 0, 56, 68
2, 116301, Note_on_c, 0, 53, 57
2, 116305, Note_on_c, 0, 74, 81
2, 116309, Control_c, 0, 64, 0
2, 116348, Note_on_c, 0, 77, 0
2, 116393, Note_on_c, 0, 61, 0
2, 116714, Note_on_c, 0, 83, 95
2, 116815, Note_on_c, 0, 74, 0
2, 116943, Control_c, 0, 64, 9
2, 117000, Control_c, 0, 64, 13
2, 117020, Control_c, 0, 64, 15
2, 117039, Control_c, 0, 64, 17
2, 117120, Note_on_c, 0, 54, 63
2, 117199, Note_on_c, 0, 81, 91
2, 117247, Note_on_c, 0, 56, 0
2, 117280, Note_on_c, 0, 53, 0
2, 117301, Note_on_c, 0, 83, 0
2, 117627, Note_on_c, 0, 78, 82
2, 117681, Note_on_c, 0, 81, 0
2, 117947, Note_on_c, 0, 56, 65
2, 117961, Control_c, 0, 64, 18
2, 118253, Note_on_c, 0, 77, 83
2, 118322, Note_on_c, 0, 78, 0
2, 118480, Control_c, 0, 64, 17
2, 118500, Control_c, 0, 64, 15
2, 118519, Control_c, 0, 64, 13
2, 118539, Control_c, 0, 64, 11
2, 118557, Control_c, 0, 64, 0
2, 118595, Note_on_c, 0, 78, 76
2, 118600, Note_on_c, 0, 57, 54
2, 118674, Note_on_c, 0, 77, 0
2, 118676, Note_on_c, 0, 56, 0
2, 118952, Note_on_c, 0, 74, 79
2, 119231, Note_on_c, 0, 78, 0
2, 119276, Note_on_c, 0, 56, 64
2, 119284, Note_on_c, 0, 52, 53
2, 119355, Note_on_c, 0, 57, 0
2, 119365, Note_on_c, 0, 54, 0
2, 119638, Note_on_c, 0, 73, 80
2, 119692, Control_c, 0, 64, 25
2, 119710, Control_c, 0, 64, 57
2, 119721, Note_on_c, 0, 74, 0
2, 119730, Control_c, 0, 64, 66
2, 119749, Control_c, 0, 64, 71
2, 119769, Control_c, 0, 64, 81
2, 119787, Control_c, 0, 64, 98
2, 119807, Control_c, 0, 64, 127
2, 119942, Note_on_c, 0, 73, 0
2, 120018, Control_c, 0, 64, 108
2, 120021, Note_on_c, 0, 51, 48
2, 120031, Note_on_c, 0, 54, 64
2, 120037, Control_c, 0, 64, 84
2, 120049, Note_on_c, 0, 73, 85
2, 120055, Note_on_c, 0, 52, 0
2, 120056, Control_c, 0, 64, 70
2, 120075, Control_c, 0, 64, 62
2, 120095, Control_c, 0, 64, 54
2, 120114, Control_c, 0, 64, 49
2, 120133, Control_c, 0, 64, 48
2, 120152, Control_c, 0, 64, 46
2, 120172, Control_c, 0, 64, 41
2, 120190, Control_c, 0, 64, 30
2, 120210, Control_c, 0, 64, 11
2, 120229, Control_c, 0, 64, 0
2, 120230, Note_on_c, 0, 56, 0
2, 120470, Note_on_c, 0, 72, 77
2, 120642, Note_on_c, 0, 73, 0
2, 120877, Note_on_c, 0, 56, 63
2, 120893, Note_on_c, 0, 50, 55
2, 121032, Note_on_c, 0, 54, 0
2, 121060, Note_on_c, 0, 51, 0
2, 121463, Note_on_c, 0, 78, 81
2, 121615, Note_on_c, 0, 72, 0
2, 121628, Control_c, 0, 64, 43
2, 121647, Control_c, 0, 64, 60
2, 121666, Control_c, 0, 64, 65
2, 121686, Control_c, 0, 64, 70
2, 121705, Control_c, 0, 64, 81
2, 121723, Control_c, 0, 64, 107
2, 121743, Control_c, 0, 64, 127
2, 121935, Note_on_c, 0, 78, 0
2, 122486, Note_on_c, 0, 78, 88
2, 122493, Note_on_c, 0, 57, 51
2, 122493, Note_on_c, 0, 73, 78
2, 122500, Note_on_c, 0, 49, 55
2, 122569, Control_c, 0, 64, 96
2, 122588, Control_c, 0, 64, 78
2, 122607, Control_c, 0, 64, 65
2, 122610, Note_on_c, 0, 50, 0
2, 122626, Control_c, 0, 64, 57
2, 122646, Control_c, 0, 64, 51
2, 122660, Note_on_c, 0, 56, 0
2, 122665, Control_c, 0, 64, 50
2, 122683, Control_c, 0, 64, 48
2, 122703, Control_c, 0, 64, 43
2, 122722, Control_c, 0, 64, 31
2, 122741, Control_c, 0, 64, 0
2, 123394, Control_c, 0, 67, 8
2, 123414, Control_c, 0, 67, 16
2, 123432, Control_c, 0, 67, 27
2, 123452, Control_c, 0, 67, 41
2, 123471, Control_c, 0, 67, 58
2, 123490, Control_c, 0, 67, 79
2, 123509, Control_c, 0, 67, 99
2, 123529, Control_c, 0, 67, 122
2, 123548, Control_c, 0, 67, 127
2, 124403, Note_on_c, 0, 77, 62
2, 124427, Note_on_c, 0, 56, 35
2, 124532, Note_on_c, 0, 78, 0
2, 124561, Note_on_c, 0, 57, 0
2, 124820, Note_on_c, 0, 75, 69
2, 124842, Note_on_c, 0, 54, 37
2, 124908, Note_on_c, 0, 77, 0
2, 124937, Note_on_c, 0, 56, 0
2, 125097, Note_on_c, 0, 56, 49
2, 125110, Note_on_c, 0, 77, 81
2, 125194, Note_on_c, 0, 75, 0
2, 125236, Note_on_c, 0, 54, 0
2, 125362, Note_on_c, 0, 78, 72
2, 125385, Note_on_c, 0, 57, 45
2, 125406, Note_on_c, 0, 77, 0
2, 125414, Note_on_c, 0, 56, 0
2, 125569, Note_on_c, 0, 77, 75
2, 125591, Note_on_c, 0, 56, 56
2, 125599, Note_on_c, 0, 78, 0
2, 125614, Note_on_c, 0, 57, 0
2, 125769, Note_on_c, 0, 78, 69
2, 125778, Note_on_c, 0, 56, 0
2, 125785, Note_on_c, 0, 57, 51
2, 125801, Note_on_c, 0, 77, 0
2, 125980, Note_on_c, 0, 77, 66
2, 125995, Note_on_c, 0, 56, 47
2, 126004, Note_on_c, 0, 57, 0
2, 126017, Note_on_c, 0, 78, 0
2, 126218, Note_on_c, 0, 57, 34
2, 126220, Note_on_c, 0, 78, 62
2, 126253, Note_on_c, 0, 56, 0
2, 126258, Note_on_c, 0, 77, 0
2, 126464, Note_on_c, 0, 77, 59
2, 126478, Note_on_c, 0, 56, 42
2, 126560, Note_on_c, 0, 78, 0
2, 126576, Note_on_c, 0, 57, 0
2, 126818, Note_on_c, 0, 78, 61
2, 126826, Note_on_c, 0, 57, 27
2, 126923, Note_on_c, 0, 77, 0
2, 126924, Note_on_c, 0, 56, 0
2, 127195, Note_on_c, 0, 77, 55
2, 127206, Note_on_c, 0, 56, 43
2, 127305, Note_on_c, 0, 78, 0
2, 127364, Note_on_c, 0, 57, 0
2, 127717, Note_on_c, 0, 75, 54
2, 127735, Note_on_c, 0, 54, 29
2, 127891, Note_on_c, 0, 56, 0
2, 127926, Note_on_c, 0, 77, 0
2, 128623, Note_on_c, 0, 77, 59
2, 128633, Note_on_c, 0, 56, 37
2, 128675, Note_on_c, 0, 75, 0
2, 128680, Note_on_c, 0, 54, 0
2, 128836, Note_on_c, 0, 75, 60
2, 128839, Note_on_c, 0, 54, 37
2, 128861, Note_on_c, 0, 77, 0
2, 128927, Note_on_c, 0, 56, 0
2, 129130, Note_on_c, 0, 77, 58
2, 129166, Note_on_c, 0, 56, 10
2, 129304, Note_on_c, 0, 75, 0
2, 129381, Note_on_c, 0, 54, 0
2, 131344, Note_on_c, 0, 73, 0
2, 131405, Note_on_c, 0, 56, 0
2, 131527, Note_on_c, 0, 49, 0
2, 131528, Note_on_c, 0, 77, 0
2, 133556, Note_on_c, 0, 47, 37
2, 133838, Note_on_c, 0, 49, 51
2, 133953, Note_on_c, 0, 47, 0
2, 134062, Note_on_c, 0, 50, 55
2, 134085, Note_on_c, 0, 49, 0
2, 134295, Note_on_c, 0, 49, 63
2, 134364, Note_on_c, 0, 50, 0
2, 134500, Note_on_c, 0, 47, 60
2, 134582, Note_on_c, 0, 49, 0
2, 134728, Note_on_c, 0, 45, 57
2, 134743, Note_on_c, 0, 47, 0
2, 134967, Note_on_c, 0, 47, 49
2, 135000, Note_on_c, 0, 45, 0
2, 135214, Note_on_c, 0, 45, 40
2, 135282, Note_on_c, 0, 47, 0
2, 135486, Note_on_c, 0, 44, 39
2, 135622, Note_on_c, 0, 45, 0
2, 135959, Note_on_c, 0, 42, 37
2, 136016, Note_on_c, 0, 78, 69
2, 136091, Note_on_c, 0, 44, 0
2, 136277, Control_c, 0, 64, 45
2, 136297, Control_c, 0, 64, 61
2, 136315, Control_c, 0, 64, 66
2, 136335, Control_c, 0, 64, 70
2, 136354, Control_c, 0, 64, 80
2, 136374, Control_c, 0, 64, 104
2, 136376, Note_on_c, 0, 42, 0
2, 136392, Control_c, 0, 64, 127
2, 136971, Note_on_c, 0, 54, 36
2, 136971, Note_on_c, 0, 57, 35
2, 136972, Note_on_c, 0, 73, 52
2, 137063, Control_c, 0, 64, 115
2, 137081, Control_c, 0, 64, 95
2, 137101, Control_c, 0, 64, 84
2, 137120, Control_c, 0, 64, 75
2, 137140, Control_c, 0, 64, 68
2, 137158, Control_c, 0, 64, 64
2, 137178, Control_c, 0, 64, 60
2, 137197, Control_c, 0, 64, 57
2, 137216, Control_c, 0, 64, 57
2, 137255, Control_c, 0, 64, 56
2, 137274, Control_c, 0, 64, 55
2, 137293, Control_c, 0, 64, 53
2, 137312, Control_c, 0, 64, 50
2, 137332, Control_c, 0, 64, 48
2, 137350, Control_c, 0, 64, 46
2, 137370, Control_c, 0, 64, 46
2, 137380, Note_on_c, 0, 78, 0
2, 137389, Control_c, 0, 64, 45
2, 137409, Control_c, 0, 64, 43
2, 137427, Control_c, 0, 64, 41
2, 137446, Control_c, 0, 64, 39
2, 137466, Control_c, 0, 64, 35
2, 137485, Control_c, 0, 64, 33
2, 137504, Control_c, 0, 64, 32
2, 137524, Control_c, 0, 64, 31
2, 137544, Control_c, 0, 64, 31
2, 137562, Control_c, 0, 64, 30
2, 137582, Control_c, 0, 64, 29
2, 137601, Control_c, 0, 64, 25
2, 137620, Control_c, 0, 64, 22
2, 137639, Control_c, 0, 64, 21
2, 137657, Note_on_c, 0, 61, 41
2, 137697, Control_c, 0, 64, 20
2, 137890, Control_c, 0, 64, 21
2, 137908, Control_c, 0, 64, 22
2, 137915, Note_on_c, 0, 57, 0
2, 137965, Control_c, 0, 64, 24
2, 137985, Control_c, 0, 64, 25
2, 138004, Control_c, 0, 64, 27
2, 138024, Control_c, 0, 64, 27
2, 138081, Control_c, 0, 64, 28
2, 138100, Control_c, 0, 64, 29
2, 138119, Control_c, 0, 64, 29
2, 138177, Control_c, 0, 64, 30
2, 138196, Control_c, 0, 64, 31
2, 138235, Control_c, 0, 64, 31
2, 138293, Control_c, 0, 64, 32
2, 138311, Control_c, 0, 64, 33
2, 138326, Note_on_c, 0, 66, 43
2, 138331, Control_c, 0, 64, 34
2, 138334, Note_on_c, 0, 69, 59
2, 138408, Control_c, 0, 64, 34
2, 138433, Note_on_c, 0, 61, 0
2, 138436, Note_on_c, 0, 73, 0
2, 138484, Control_c, 0, 64, 35
2, 138542, Control_c, 0, 64, 35
2, 138580, Control_c, 0, 64, 36
2, 138653, Note_on_c, 0, 56, 48
2, 138657, Control_c, 0, 64, 36
2, 138657, Note_on_c, 0, 71, 64
2, 138696, Control_c, 0, 64, 37
2, 138715, Control_c, 0, 64, 37
2, 138734, Control_c, 0, 64, 38
2, 138753, Control_c, 0, 64, 39
2, 138753, Control_c, 0, 67, 120
2, 138773, Control_c, 0, 64, 39
2, 138773, Control_c, 0, 67, 113
2, 138785, Note_on_c, 0, 69, 0
2, 138791, Control_c, 0, 67, 106
2, 138811, Control_c, 0, 67, 98
2, 138830, Control_c, 0, 67, 88
2, 138850, Control_c, 0, 67, 78
2, 138857, Note_on_c, 0, 54, 0
2, 138868, Control_c, 0, 67, 68
2, 138888, Control_c, 0, 67, 58
2, 138907, Control_c, 0, 64, 39
2, 138907, Control_c, 0, 67, 50
2, 138925, Control_c, 0, 67, 44
2, 138945, Control_c, 0, 67, 39
2, 138964, Control_c, 0, 64, 38
2, 138964, Control_c, 0, 67, 34
2, 138984, Control_c, 0, 64, 38
2, 138984, Control_c, 0, 67, 29
2, 139002, Control_c, 0, 67, 24
2, 139006, Note_on_c, 0, 57, 44
2, 139014, Note_on_c, 0, 73, 64
2, 139022, Control_c, 0, 67, 20
2, 139041, Control_c, 0, 67, 16
2, 139060, Control_c, 0, 67, 11
2, 139067, Note_on_c, 0, 56, 0
2, 139079, Control_c, 0, 64, 37
2, 139079, Control_c, 0, 67, 0
2, 139112, Note_on_c, 0, 71, 0
2, 139253, Note_on_c, 0, 71, 72
2, 139348, Control_c, 0, 64, 36
2, 139368, Control_c, 0, 64, 36
2, 139381, Note_on_c, 0, 73, 0
2, 139387, Control_c, 0, 64, 35
2, 139439, Note_on_c, 0, 69, 74
2, 139479, Note_on_c, 0, 71, 0
2, 139521, Control_c, 0, 64, 35
2, 139574, Note_on_c, 0, 66, 0
2, 139579, Control_c, 0, 64, 34
2, 139598, Control_c, 0, 64, 34
2, 139617, Control_c, 0, 64, 32
2, 139626, Note_on_c, 0, 65, 59
2, 139633, Note_on_c, 0, 61, 53
2, 139636, Control_c, 0, 64, 31
2, 139639, Note_on_c, 0, 71, 63
2, 139656, Control_c, 0, 64, 31
2, 139675, Control_c, 0, 64, 30
2, 139694, Control_c, 0, 64, 29
2, 139701, Note_on_c, 0, 69, 0
2, 139713, Control_c, 0, 64, 28
2, 139751, Control_c, 0, 64, 27
2, 139771, Control_c, 0, 64, 27
2, 139780, Note_on_c, 0, 57, 0
2, 139790, Control_c, 0, 64, 26
2, 139810, Control_c, 0, 64, 24
2, 139828, Control_c, 0, 64, 23
2, 139848, Control_c, 0, 64, 21
2, 139853, Note_on_c, 0, 69, 65
2, 139867, Control_c, 0, 64, 18
2, 139885, Control_c, 0, 64, 15
2, 139924, Control_c, 0, 64, 13
2, 139944, Control_c, 0, 64, 11
2, 139962, Control_c, 0, 64, 9
2, 139982, Control_c, 0, 64, 0
2, 140055, Note_on_c, 0, 65, 0
2, 140059, Note_on_c, 0, 68, 65
2, 140060, Note_on_c, 0, 54, 43
2, 140122, Note_on_c, 0, 69, 0
2, 140168, Note_on_c, 0, 71, 0
2, 140384, Note_on_c, 0, 66, 78
2, 140391, Note_on_c, 0, 69, 71
2, 140487, Note_on_c, 0, 68, 0
2, 140530, Note_on_c, 0, 61, 0
2, 140772, Note_on_c, 0, 71, 59
2, 140852, Note_on_c, 0, 69, 0
2, 141098, Note_on_c, 0, 61, 66
2, 141123, Note_on_c, 0, 69, 61
2, 141265, Note_on_c, 0, 66, 0
2, 141280, Note_on_c, 0, 71, 0
2, 141431, Note_on_c, 0, 68, 58
2, 141529, Note_on_c, 0, 69, 0
2, 141770, Note_on_c, 0, 69, 62
2, 141816, Note_on_c, 0, 68, 0
2, 142075, Note_on_c, 0, 73, 62
2, 142140, Note_on_c, 0, 69, 0
2, 142396, Note_on_c, 0, 57, 55
2, 142398, Note_on_c, 0, 78, 63
2, 142524, Note_on_c, 0, 73, 0
2, 142606, Note_on_c, 0, 61, 0
2, 142715, Note_on_c, 0, 80, 71
2, 142724, Note_on_c, 0, 59, 66
2, 142849, Note_on_c, 0, 78, 0
2, 142857, Note_on_c, 0, 57, 0
2, 143104, Note_on_c, 0, 61, 53
2, 143118, Note_on_c, 0, 81, 68
2, 143184, Note_on_c, 0, 80, 0
2, 143210, Note_on_c, 0, 59, 0
2, 143365, Note_on_c, 0, 59, 65
2, 143367, Note_on_c, 0, 80, 70
2, 143494, Note_on_c, 0, 81, 0
2, 143499, Note_on_c, 0, 61, 0
2, 143549, Note_on_c, 0, 57, 58
2, 143556, Note_on_c, 0, 78, 72
2, 143585, Note_on_c, 0, 59, 0
2, 143611, Note_on_c, 0, 80, 0
2, 143748, Note_on_c, 0, 59, 59
2, 143754, Note_on_c, 0, 80, 74
2, 143779, Note_on_c, 0, 57, 0
2, 143790, Note_on_c, 0, 78, 0
2, 143941, Note_on_c, 0, 78, 68
2, 143948, Note_on_c, 0, 57, 55
2, 144090, Note_on_c, 0, 80, 0
2, 144118, Note_on_c, 0, 59, 0
2, 144131, Note_on_c, 0, 77, 69
2, 144149, Note_on_c, 0, 56, 43
2, 144177, Note_on_c, 0, 78, 0
2, 144190, Note_on_c, 0, 57, 0
2, 144412, Note_on_c, 0, 57, 26
2, 144445, Note_on_c, 0, 78, 55
2, 144536, Note_on_c, 0, 77, 0
2, 144550, Note_on_c, 0, 56, 0
2, 144857, Note_on_c, 0, 73, 46
2, 145010, Note_on_c, 0, 78, 0
2, 145174, Note_on_c, 0, 59, 43
2, 145178, Note_on_c, 0, 56, 39
2, 145345, Note_on_c, 0, 54, 0
2, 145413, Note_on_c, 0, 57, 0
2, 145498, Note_on_c, 0, 77, 71
2, 145621, Note_on_c, 0, 73, 0
2, 145833, Note_on_c, 0, 78, 65
2, 145835, Note_on_c, 0, 57, 46
2, 145850, Note_on_c, 0, 61, 28
2, 145936, Note_on_c, 0, 77, 0
2, 145958, Note_on_c, 0, 56, 0
2, 145986, Note_on_c, 0, 59, 0
2, 146180, Note_on_c, 0, 73, 61
2, 146286, Note_on_c, 0, 78, 0
2, 146486, Note_on_c, 0, 59, 48
2, 146500, Note_on_c, 0, 56, 37
2, 146502, Note_on_c, 0, 57, 0
2, 146596, Note_on_c, 0, 61, 0
2, 146824, Note_on_c, 0, 77, 61
2, 146949, Note_on_c, 0, 73, 0
2, 147159, Note_on_c, 0, 78, 57
2, 147160, Note_on_c, 0, 57, 46
2, 147187, Note_on_c, 0, 77, 0
2, 147188, Note_on_c, 0, 54, 36
2, 147216, Note_on_c, 0, 59, 0
2, 147221, Note_on_c, 0, 56, 0
2, 147491, Note_on_c, 0, 74, 57
2, 147623, Note_on_c, 0, 78, 0
2, 147830, Note_on_c, 0, 52, 28
2, 147831, Note_on_c, 0, 73, 48
2, 147851, Note_on_c, 0, 55, 38
2, 147885, Note_on_c, 0, 74, 0
2, 147927, Note_on_c, 0, 57, 0
2, 147971, Note_on_c, 0, 54, 0
2, 148193, Note_on_c, 0, 82, 88
2, 148324, Note_on_c, 0, 73, 0
2, 148601, Note_on_c, 0, 50, 32
2, 148606, Note_on_c, 0, 54, 41
2, 148621, Note_on_c, 0, 83, 82
2, 148706, Note_on_c, 0, 52, 0
2, 148717, Note_on_c, 0, 82, 0
2, 148743, Note_on_c, 0, 55, 0
2, 149108, Note_on_c, 0, 78, 65
2, 149398, Note_on_c, 0, 83, 0
2, 149407, Note_on_c, 0, 52, 49
2, 149423, Note_on_c, 0, 49, 47
2, 149527, Note_on_c, 0, 50, 0
2, 149542, Note_on_c, 0, 54, 0
2, 149718, Note_on_c, 0, 82, 85
2, 149882, Note_on_c, 0, 78, 0
2, 150052, Note_on_c, 0, 54, 42
2, 150065, Note_on_c, 0, 83, 78
2, 150079, Note_on_c, 0, 50, 34
2, 150153, Note_on_c, 0, 82, 0
2, 150200, Note_on_c, 0, 52, 0
2, 150204, Note_on_c, 0, 49, 0
2, 150451, Note_on_c, 0, 78, 66
2, 150677, Note_on_c, 0, 83, 0
2, 150744, Note_on_c, 0, 61, 55
2, 150754, Note_on_c, 0, 52, 53
2, 150900, Note_on_c, 0, 54, 0
2, 150911, Note_on_c, 0, 50, 0
2, 151057, Note_on_c, 0, 82, 82
2, 151394, Note_on_c, 0, 54, 46
2, 151419, Note_on_c, 0, 83, 73
2, 151420, Note_on_c, 0, 50, 37
2, 151467, Note_on_c, 0, 78, 0
2, 151496, Note_on_c, 0, 82, 0
2, 151545, Note_on_c, 0, 61, 0
2, 151615, Note_on_c, 0, 52, 0
2, 151675, Note_on_c, 0, 81, 71
2, 151769, Note_on_c, 0, 83, 0
2, 151791, Control_c, 0, 67, 13
2, 151811, Control_c, 0, 67, 29
2, 151829, Control_c, 0, 67, 53
2, 151848, Control_c, 0, 67, 76
2, 151868, Control_c, 0, 67, 100
2, 151880, Note_on_c, 0, 80, 69
2, 151886, Control_c, 0, 67, 124
2, 151906, Control_c, 0, 67, 127
2, 151935, Note_on_c, 0, 81, 0
2, 152105, Note_on_c, 0, 49, 40
2, 152105, Note_on_c, 0, 81, 62
2, 152148, Note_on_c, 0, 80, 0
2, 152168, Note_on_c, 0, 50, 0
2, 152334, Note_on_c, 0, 80, 55
2, 152516, Note_on_c, 0, 81, 0
2, 152572, Note_on_c, 0, 78, 56
2, 152661, Note_on_c, 0, 80, 0
2, 152992, Note_on_c, 0, 47, 30
2, 153013, Note_on_c, 0, 59, 26
2, 153049, Note_on_c, 0, 79, 57
2, 153146, Note_on_c, 0, 78, 0
2, 153202, Note_on_c, 0, 54, 0
2, 153220, Note_on_c, 0, 49, 0
2, 153401, Control_c, 0, 64, 31
2, 153421, Control_c, 0, 64, 57
2, 153440, Control_c, 0, 64, 63
2, 153460, Control_c, 0, 64, 66
2, 153478, Control_c, 0, 64, 69
2, 153498, Control_c, 0, 64, 74
2, 153517, Control_c, 0, 64, 83
2, 153536, Control_c, 0, 64, 93
2, 153555, Control_c, 0, 64, 107
2, 153564, Note_on_c, 0, 47, 0
2, 153575, Control_c, 0, 64, 127
2, 153579, Note_on_c, 0, 74, 44
2, 153626, Note_on_c, 0, 59, 0
2, 153742, Note_on_c, 0, 79, 0
2, 153997, Control_c, 0, 64, 105
2, 154006, Note_on_c, 0, 62, 28
2, 154016, Control_c, 0, 64, 89
2, 154025, Note_on_c, 0, 59, 38
2, 154035, Control_c, 0, 64, 75
2, 154055, Control_c, 0, 64, 66
2, 154074, Control_c, 0, 64, 59
2, 154093, Control_c, 0, 64, 51
2, 154112, Control_c, 0, 64, 48
2, 154132, Control_c, 0, 64, 50
2, 154150, Control_c, 0, 64, 54
2, 154169, Control_c, 0, 64, 57
2, 154189, Control_c, 0, 64, 60
2, 154208, Control_c, 0, 64, 62
2, 154227, Control_c, 0, 64, 64
2, 154246, Control_c, 0, 64, 66
2, 154266, Control_c, 0, 64, 69
2, 154285, Control_c, 0, 64, 72
2, 154304, Control_c, 0, 64, 78
2, 154318, Note_on_c, 0, 78, 55
2, 154323, Control_c, 0, 64, 84
2, 154323, Note_on_c, 0, 62, 0
2, 154343, Control_c, 0, 64, 91
2, 154350, Note_on_c, 0, 59, 0
2, 154361, Control_c, 0, 64, 96
2, 154381, Control_c, 0, 64, 100
2, 154435, Note_on_c, 0, 74, 0
2, 154458, Control_c, 0, 64, 100
2, 154535, Control_c, 0, 64, 100
2, 154573, Control_c, 0, 64, 98
2, 154592, Control_c, 0, 64, 95
2, 154612, Control_c, 0, 64, 89
2, 154630, Control_c, 0, 64, 79
2, 154643, Note_on_c, 0, 79, 60
2, 154649, Control_c, 0, 64, 69
2, 154667, Note_on_c, 0, 62, 28
2, 154669, Control_c, 0, 64, 59
2, 154681, Note_on_c, 0, 59, 25
2, 154688, Control_c, 0, 64, 46
2, 154707, Control_c, 0, 64, 39
2, 154707, Note_on_c, 0, 78, 0
2, 154726, Control_c, 0, 64, 37
2, 154783, Control_c, 0, 64, 40
2, 154801, Control_c, 0, 64, 49
2, 154822, Control_c, 0, 64, 57
2, 154840, Control_c, 0, 64, 62
2, 154860, Control_c, 0, 64, 64
2, 154879, Control_c, 0, 64, 67
2, 154899, Control_c, 0, 64, 70
2, 154917, Control_c, 0, 64, 76
2, 154937, Control_c, 0, 64, 85
2, 154956, Control_c, 0, 64, 94
2, 154960, Note_on_c, 0, 62, 0
2, 154976, Control_c, 0, 64, 101
2, 154990, Note_on_c, 0, 74, 51
2, 154994, Control_c, 0, 64, 104
2, 154994, Note_on_c, 0, 59, 0
2, 155073, Note_on_c, 0, 79, 0
2, 155167, Control_c, 0, 64, 104
2, 155205, Control_c, 0, 64, 103
2, 155225, Control_c, 0, 64, 102
2, 155244, Control_c, 0, 64, 100
2, 155263, Control_c, 0, 64, 94
2, 155282, Control_c, 0, 64, 85
2, 155302, Control_c, 0, 64, 74
2, 155312, Note_on_c, 0, 62, 26
2, 155320, Control_c, 0, 64, 65
2, 155326, Note_on_c, 0, 59, 35
2, 155340, Control_c, 0, 64, 55
2, 155359, Control_c, 0, 64, 37
2, 155379, Control_c, 0, 64, 29
2, 155436, Control_c, 0, 64, 31
2, 155456, Control_c, 0, 64, 38
2, 155474, Control_c, 0, 64, 48
2, 155494, Control_c, 0, 64, 56
2, 155513, Control_c, 0, 64, 60
2, 155532, Control_c, 0, 64, 62
2, 155551, Control_c, 0, 64, 63
2, 155571, Control_c, 0, 64, 65
2, 155590, Control_c, 0, 64, 66
2, 155608, Control_c, 0, 64, 69
2, 155625, Note_on_c, 0, 78, 57
2, 155627, Note_on_c, 0, 62, 0
2, 155628, Control_c, 0, 64, 73
2, 155647, Control_c, 0, 64, 76
2, 155666, Control_c, 0, 64, 79
2, 155671, Note_on_c, 0, 59, 0
2, 155685, Control_c, 0, 64, 80
2, 155723, Note_on_c, 0, 74, 0
2, 155801, Control_c, 0, 64, 79
2, 155917, Control_c, 0, 64, 79
2, 155936, Control_c, 0, 64, 77
2, 155955, Control_c, 0, 64, 75
2, 155973, Note_on_c, 0, 79, 58
2, 155975, Control_c, 0, 64, 71
2, 155978, Note_on_c, 0, 59, 33
2, 155987, Note_on_c, 0, 62, 27
2, 155994, Control_c, 0, 64, 66
2, 156013, Control_c, 0, 64, 61
2, 156032, Control_c, 0, 64, 51
2, 156052, Control_c, 0, 64, 31
2, 156070, Control_c, 0, 64, 0
2, 156074, Note_on_c, 0, 78, 0
2, 156205, Control_c, 0, 64, 47
2, 156224, Control_c, 0, 64, 59
2, 156225, Note_on_c, 0, 81, 60
2, 156243, Control_c, 0, 64, 63
2, 156263, Control_c, 0, 64, 64
2, 156281, Control_c, 0, 64, 65
2, 156293, Note_on_c, 0, 79, 0
2, 156301, Control_c, 0, 64, 67
2, 156320, Control_c, 0, 64, 69
2, 156333, Note_on_c, 0, 62, 0
2, 156339, Note_on_c, 0, 59, 0
2, 156340, Control_c, 0, 64, 73
2, 156358, Control_c, 0, 64, 76
2, 156378, Control_c, 0, 64, 78
2, 156439, Note_on_c, 0, 83, 64
2, 156484, Note_on_c, 0, 81, 0
2, 156550, Control_c, 0, 64, 78
2, 156589, Control_c, 0, 64, 77
2, 156608, Control_c, 0, 64, 77
2, 156627, Control_c, 0, 64, 76
2, 156646, Control_c, 0, 64, 73
2, 156656, Note_on_c, 0, 62, 37
2, 156661, Note_on_c, 0, 81, 59
2, 156663, Note_on_c, 0, 59, 35
2, 156666, Control_c, 0, 64, 70
2, 156685, Control_c, 0, 64, 65
2, 156704, Control_c, 0, 64, 59
2, 156723, Control_c, 0, 64, 47
2, 156743, Control_c, 0, 64, 17
2, 156761, Control_c, 0, 64, 0
2, 156876, Note_on_c, 0, 80, 67
2, 156877, Control_c, 0, 64, 46
2, 156890, Note_on_c, 0, 83, 0
2, 156896, Control_c, 0, 64, 59
2, 156915, Control_c, 0, 64, 63
2, 156935, Control_c, 0, 64, 64
2, 156953, Note_on_c, 0, 59, 0
2, 156954, Control_c, 0, 64, 64
2, 157087, Note_on_c, 0, 78, 64
2, 157088, Control_c, 0, 64, 64
2, 157132, Note_on_c, 0, 81, 0
2, 157140, Note_on_c, 0, 80, 0
2, 157146, Control_c, 0, 64, 63
2, 157184, Control_c, 0, 64, 63
2, 157223, Control_c, 0, 64, 62
2, 157241, Control_c, 0, 64, 62
2, 157261, Control_c, 0, 64, 61
2, 157280, Control_c, 0, 64, 60
2, 157300, Control_c, 0, 64, 59
2, 157318, Control_c, 0, 64, 58
2, 157332, Note_on_c, 0, 77, 60
2, 157335, Note_on_c, 0, 59, 47
2, 157338, Control_c, 0, 64, 57
2, 157344, Note_on_c, 0, 61, 41
2, 157349, Note_on_c, 0, 78, 0
2, 157357, Control_c, 0, 64, 55
2, 157376, Control_c, 0, 64, 53
2, 157395, Control_c, 0, 64, 51
2, 157415, Control_c, 0, 64, 48
2, 157434, Control_c, 0, 64, 46
2, 157453, Control_c, 0, 64, 45
2, 157472, Control_c, 0, 64, 43
2, 157492, Control_c, 0, 64, 41
2, 157510, Control_c, 0, 64, 40
2, 157529, Control_c, 0, 64, 38
2, 157541, Note_on_c, 0, 62, 0
2, 157549, Control_c, 0, 64, 35
2, 157568, Control_c, 0, 64, 34
2, 157582, Note_on_c, 0, 78, 64
2, 157587, Control_c, 0, 64, 33
2, 157629, Note_on_c, 0, 77, 0
2, 157645, Control_c, 0, 64, 32
2, 157664, Control_c, 0, 64, 32
2, 157703, Control_c, 0, 64, 31
2, 157778, Note_on_c, 0, 80, 63
2, 157814, Note_on_c, 0, 78, 0
2, 157818, Control_c, 0, 64, 31
2, 157914, Control_c, 0, 64, 30
2, 158006, Note_on_c, 0, 78, 57
2, 158087, Note_on_c, 0, 80, 0
2, 158221, Note_on_c, 0, 77, 63
2, 158223, Note_on_c, 0, 78, 0
2, 158445, Note_on_c, 0, 75, 59
2, 158486, Note_on_c, 0, 77, 0
2, 158547, Control_c, 0, 64, 31
2, 158605, Control_c, 0, 64, 31
2, 158656, Note_on_c, 0, 61, 0
2, 158657, Note_on_c, 0, 73, 63
2, 158663, Control_c, 0, 64, 32
2, 158720, Note_on_c, 0, 59, 0
2, 158740, Control_c, 0, 64, 32
2, 158750, Note_on_c, 0, 75, 0
2, 158797, Control_c, 0, 64, 33
2, 158816, Control_c, 0, 64, 34
2, 158855, Control_c, 0, 64, 34
2, 158874, Control_c, 0, 64, 35
2, 158884, Note_on_c, 0, 71, 60
2, 158916, Note_on_c, 0, 73, 0
2, 158932, Control_c, 0, 64, 35
2, 158951, Control_c, 0, 64, 36
2, 158989, Control_c, 0, 64, 36
2, 159008, Control_c, 0, 64, 37
2, 159066, Control_c, 0, 64, 37
2, 159084, Note_on_c, 0, 73, 66
2, 159085, Control_c, 0, 64, 38
2, 159104, Control_c, 0, 64, 38
2, 159123, Control_c, 0, 64, 39
2, 159133, Note_on_c, 0, 71, 0
2, 159200, Control_c, 0, 64, 39
2, 159220, Control_c, 0, 64, 40
2, 159238, Control_c, 0, 64, 40
2, 159277, Control_c, 0, 64, 41
2, 159327, Note_on_c, 0, 56, 51
2, 159328, Note_on_c, 0, 74, 62
2, 159340, Note_on_c, 0, 53, 50
2, 159354, Control_c, 0, 64, 41
2, 159385, Note_on_c, 0, 73, 0
2, 159392, Control_c, 0, 64, 42
2, 159431, Control_c, 0, 64, 42
2, 159449, Control_c, 0, 64, 43
2, 159469, Control_c, 0, 67, 125
2, 159488, Control_c, 0, 67, 118
2, 159507, Control_c, 0, 67, 109
2, 159526, Control_c, 0, 67, 99
2, 159546, Control_c, 0, 67, 86
2, 159565, Control_c, 0, 64, 43
2, 159565, Control_c, 0, 67, 72
2, 159565, Note_on_c, 0, 73, 65
2, 159582, Control_c, 0, 64, 44
2, 159582, Control_c, 0, 67, 62
2, 159601, Control_c, 0, 67, 54
2, 159622, Control_c, 0, 67, 48
2, 159640, Control_c, 0, 67, 40
2, 159660, Control_c, 0, 67, 32
2, 159679, Control_c, 0, 67, 24
2, 159699, Control_c, 0, 64, 44
2, 159699, Control_c, 0, 67, 14
2, 159717, Control_c, 0, 67, 0
2, 159736, Note_on_c, 0, 74, 0
2, 159791, Note_on_c, 0, 71, 69
2, 159912, Note_on_c, 0, 73, 0
2, 160022, Note_on_c, 0, 69, 64
2, 160024, Note_on_c, 0, 54, 58
2, 160025, Control_c, 0, 64, 44
2, 160031, Note_on_c, 0, 61, 45
2, 160063, Control_c, 0, 64, 43
2, 160082, Control_c, 0, 64, 43
2, 160099, Note_on_c, 0, 71, 0
2, 160140, Control_c, 0, 64, 42
2, 160159, Control_c, 0, 64, 42
2, 160194, Note_on_c, 0, 53, 0
2, 160197, Control_c, 0, 64, 41
2, 160210, Note_on_c, 0, 56, 0
2, 160217, Control_c, 0, 64, 41
2, 160236, Control_c, 0, 64, 40
2, 160254, Note_on_c, 0, 71, 69
2, 160256, Control_c, 0, 64, 40
2, 160274, Control_c, 0, 64, 39
2, 160294, Control_c, 0, 64, 38
2, 160313, Control_c, 0, 64, 37
2, 160334, Note_on_c, 0, 69, 0
2, 160351, Control_c, 0, 64, 37
2, 160370, Control_c, 0, 64, 36
2, 160390, Control_c, 0, 64, 35
2, 160408, Control_c, 0, 64, 34
2, 160428, Control_c, 0, 64, 31
2, 160447, Control_c, 0, 64, 28
2, 160463, Note_on_c, 0, 73, 63
2, 160466, Control_c, 0, 64, 25
2, 160485, Control_c, 0, 64, 18
2, 160505, Control_c, 0, 64, 0
2, 160511, Note_on_c, 0, 71, 0
2, 160677, Note_on_c, 0, 49, 47
2, 160705, Note_on_c, 0, 71, 52
2, 160818, Note_on_c, 0, 54, 0
2, 160875, Note_on_c, 0, 73, 0
2, 160943, Note_on_c, 0, 69, 59
2, 161007, Note_on_c, 0, 71, 0
2, 161042, Control_c, 0, 64, 44
2, 161062, Control_c, 0, 64, 58
2, 161080, Control_c, 0, 64, 62
2, 161100, Control_c, 0, 64, 64
2, 161119, Control_c, 0, 64, 65
2, 161139, Control_c, 0, 64, 66
2, 161157, Control_c, 0, 64, 67
2, 161177, Control_c, 0, 64, 68
2, 161196, Control_c, 0, 64, 70
2, 161216, Control_c, 0, 64, 71
2, 161218, Note_on_c, 0, 68, 58
2, 161234, Control_c, 0, 64, 71
2, 161254, Control_c, 0, 64, 72
2, 161261, Note_on_c, 0, 69, 0
2, 161291, Control_c, 0, 64, 71
2, 161311, Note_on_c, 0, 49, 0
2, 161350, Control_c, 0, 64, 71
2, 161388, Control_c, 0, 64, 70
2, 161407, Control_c, 0, 64, 70
2, 161426, Control_c, 0, 64, 69
2, 161445, Control_c, 0, 64, 69
2, 161465, Control_c, 0, 64, 68
2, 161484, Control_c, 0, 64, 68
2, 161502, Control_c, 0, 64, 67
2, 161521, Control_c, 0, 64, 66
2, 161542, Control_c, 0, 64, 65
2, 161560, Control_c, 0, 64, 64
2, 161578, Control_c, 0, 64, 63
2, 161582, Note_on_c, 0, 66, 54
2, 161585, Note_on_c, 0, 50, 41
2, 161597, Control_c, 0, 64, 62
2, 161617, Control_c, 0, 64, 61
2, 161635, Control_c, 0, 64, 60
2, 161647, Note_on_c, 0, 68, 0
2, 161655, Control_c, 0, 64, 59
2, 161674, Control_c, 0, 64, 58
2, 161694, Control_c, 0, 64, 58
2, 161712, Control_c, 0, 64, 57
2, 161731, Control_c, 0, 64, 56
2, 161751, Control_c, 0, 64, 55
2, 161769, Control_c, 0, 64, 54
2, 161808, Control_c, 0, 64, 53
2, 161846, Control_c, 0, 64, 53
2, 162020, Control_c, 0, 64, 52
2, 162038, Control_c, 0, 64, 52
2, 162046, Note_on_c, 0, 77, 73
2, 162058, Control_c, 0, 64, 51
2, 162097, Control_c, 0, 64, 51
2, 162115, Control_c, 0, 64, 50
2, 162126, Note_on_c, 0, 61, 0
2, 162135, Control_c, 0, 64, 50
2, 162154, Control_c, 0, 64, 49
2, 162174, Control_c, 0, 64, 49
2, 162231, Control_c, 0, 64, 48
2, 162249, Control_c, 0, 64, 48
2, 162269, Control_c, 0, 64, 47
2, 162295, Note_on_c, 0, 66, 0
2, 162365, Control_c, 0, 64, 47
2, 162419, Note_on_c, 0, 61, 60
2, 162423, Control_c, 0, 64, 46
2, 162442, Control_c, 0, 64, 46
2, 162672, Control_c, 0, 64, 46
2, 162749, Control_c, 0, 64, 47
2, 162768, Control_c, 0, 64, 47
2, 162778, Note_on_c, 0, 78, 73
2, 162914, Note_on_c, 0, 77, 0
2, 163121, Note_on_c, 0, 68, 69
2, 163127, Note_on_c, 0, 59, 53
2, 163171, Control_c, 0, 64, 47
2, 163188, Note_on_c, 0, 61, 0
2, 163258, Note_on_c, 0, 78, 0
2, 163421, Control_c, 0, 64, 47
2, 163433, Note_on_c, 0, 50, 0
2, 163471, Note_on_c, 0, 78, 79
2, 163498, Control_c, 0, 64, 47
2, 163614, Note_on_c, 0, 68, 0
2, 163771, Note_on_c, 0, 50, 64
2, 163958, Control_c, 0, 64, 47
2, 164108, Note_on_c, 0, 77, 74
2, 164318, Note_on_c, 0, 78, 0
2, 164435, Note_on_c, 0, 49, 58
2, 164451, Note_on_c, 0, 70, 73
2, 164499, Control_c, 0, 64, 47
2, 164518, Note_on_c, 0, 50, 0
2, 164530, Note_on_c, 0, 77, 0
2, 164575, Control_c, 0, 64, 46
2, 164633, Control_c, 0, 64, 46
2, 164651, Control_c, 0, 64, 45
2, 164709, Control_c, 0, 64, 44
2, 164728, Control_c, 0, 64, 44
2, 164748, Control_c, 0, 64, 43
2, 164784, Note_on_c, 0, 76, 84
2, 164786, Control_c, 0, 64, 42
2, 164805, Control_c, 0, 64, 41
2, 164825, Control_c, 0, 64, 39
2, 164843, Control_c, 0, 64, 36
2, 164863, Control_c, 0, 64, 32
2, 164882, Control_c, 0, 64, 28
2, 164902, Control_c, 0, 64, 24
2, 164920, Control_c, 0, 64, 20
2, 164920, Note_on_c, 0, 70, 0
2, 164940, Control_c, 0, 64, 13
2, 164959, Control_c, 0, 64, 0
2, 165115, Note_on_c, 0, 55, 59
2, 165118, Note_on_c, 0, 58, 61
2, 165222, Note_on_c, 0, 59, 0
2, 165305, Note_on_c, 0, 49, 0
2, 165485, Note_on_c, 0, 75, 81
2, 165534, Control_c, 0, 64, 40
2, 165553, Control_c, 0, 64, 57
2, 165573, Control_c, 0, 64, 62
2, 165592, Control_c, 0, 64, 65
2, 165595, Note_on_c, 0, 76, 0
2, 165610, Control_c, 0, 64, 69
2, 165630, Control_c, 0, 64, 76
2, 165649, Control_c, 0, 64, 90
2, 165669, Control_c, 0, 64, 127
2, 165800, Note_on_c, 0, 75, 0
2, 165956, Note_on_c, 0, 60, 72
2, 165966, Note_on_c, 0, 75, 75
2, 165968, Note_on_c, 0, 54, 58
2, 165976, Control_c, 0, 64, 109
2, 165995, Control_c, 0, 64, 91
2, 166014, Control_c, 0, 64, 79
2, 166033, Control_c, 0, 64, 71
2, 166053, Control_c, 0, 64, 65
2, 166072, Control_c, 0, 64, 61
2, 166086, Note_on_c, 0, 55, 0
2, 166090, Control_c, 0, 64, 58
2, 166110, Control_c, 0, 64, 56
2, 166129, Control_c, 0, 64, 55
2, 166149, Control_c, 0, 64, 55
2, 166149, Note_on_c, 0, 58, 0
2, 166167, Control_c, 0, 64, 53
2, 166187, Control_c, 0, 64, 52
2, 166206, Control_c, 0, 64, 51
2, 166225, Control_c, 0, 64, 50
2, 166265, Note_on_c, 0, 76, 76
2, 166302, Control_c, 0, 64, 50
2, 166341, Control_c, 0, 64, 49
2, 166357, Note_on_c, 0, 75, 0
2, 166379, Control_c, 0, 64, 49
2, 166398, Control_c, 0, 64, 48
2, 166418, Control_c, 0, 64, 47
2, 166436, Control_c, 0, 64, 44
2, 166456, Control_c, 0, 64, 40
2, 166475, Control_c, 0, 64, 36
2, 166494, Control_c, 0, 64, 30
2, 166513, Control_c, 0, 64, 25
2, 166521, Note_on_c, 0, 78, 75
2, 166532, Control_c, 0, 64, 21
2, 166552, Control_c, 0, 64, 18
2, 166570, Control_c, 0, 64, 17
2, 166597, Note_on_c, 0, 76, 0
2, 166609, Control_c, 0, 64, 15
2, 166629, Control_c, 0, 64, 11
2, 166647, Control_c, 0, 64, 0
2, 166757, Note_on_c, 0, 61, 68
2, 166757, Note_on_c, 0, 76, 69
2, 166890, Note_on_c, 0, 60, 0
2, 166990, Control_c, 0, 64, 11
2, 167007, Note_on_c, 0, 75, 72
2, 167029, Control_c, 0, 64, 13
2, 167048, Control_c, 0, 64, 15
2, 167107, Note_on_c, 0, 78, 0
2, 167219, Note_on_c, 0, 73, 72
2, 167298, Control_c, 0, 64, 13
2, 167306, Note_on_c, 0, 76, 0
2, 167318, Note_on_c, 0, 75, 0
2, 167336, Control_c, 0, 64, 11
2, 167418, Note_on_c, 0, 63, 72
2, 167434, Note_on_c, 0, 72, 67
2, 167460, Note_on_c, 0, 73, 0
2, 167541, Note_on_c, 0, 61, 0
2, 167547, Control_c, 0, 64, 13
2, 167586, Control_c, 0, 64, 15
2, 167605, Control_c, 0, 64, 17
2, 167624, Control_c, 0, 64, 18
2, 167644, Control_c, 0, 64, 19
2, 167659, Note_on_c, 0, 73, 70
2, 167682, Control_c, 0, 64, 20
2, 167704, Note_on_c, 0, 72, 0
2, 167720, Control_c, 0, 64, 21
2, 167739, Control_c, 0, 64, 22
2, 167778, Control_c, 0, 64, 23
2, 167816, Control_c, 0, 64, 24
2, 167843, Note_on_c, 0, 75, 69
2, 167888, Note_on_c, 0, 73, 0
2, 168055, Note_on_c, 0, 56, 63
2, 168061, Note_on_c, 0, 52, 52
2, 168071, Note_on_c, 0, 73, 68
2, 168085, Control_c, 0, 64, 25
2, 168142, Control_c, 0, 64, 26
2, 168146, Note_on_c, 0, 75, 0
2, 168179, Note_on_c, 0, 63, 0
2, 168181, Control_c, 0, 64, 27
2, 168196, Note_on_c, 0, 54, 0
2, 168219, Control_c, 0, 64, 27
2, 168270, Note_on_c, 0, 72, 72
2, 168286, Note_on_c, 0, 73, 0
2, 168296, Control_c, 0, 64, 28
2, 168450, Control_c, 0, 64, 29
2, 168492, Note_on_c, 0, 70, 70
2, 168530, Note_on_c, 0, 72, 0
2, 168734, Note_on_c, 0, 68, 70
2, 168736, Note_on_c, 0, 58, 63
2, 168833, Control_c, 0, 64, 28
2, 168853, Note_on_c, 0, 56, 0
2, 168872, Control_c, 0, 64, 27
2, 168910, Control_c, 0, 64, 27
2, 168915, Note_on_c, 0, 70, 0
2, 168949, Note_on_c, 0, 66, 65
2, 168968, Control_c, 0, 64, 26
2, 168987, Control_c, 0, 64, 25
2, 168991, Note_on_c, 0, 68, 0
2, 169026, Control_c, 0, 64, 24
2, 169102, Control_c, 0, 64, 23
2, 169156, Note_on_c, 0, 68, 70
2, 169179, Control_c, 0, 64, 22
2, 169217, Control_c, 0, 64, 21
2, 169235, Control_c, 0, 64, 20
2, 169312, Control_c, 0, 64, 19
2, 169332, Control_c, 0, 64, 18
2, 169351, Control_c, 0, 64, 17
2, 169371, Control_c, 0, 64, 15
2, 169378, Note_on_c, 0, 66, 0
2, 169389, Control_c, 0, 64, 13
2, 169393, Note_on_c, 0, 69, 64
2, 169396, Note_on_c, 0, 60, 52
2, 169403, Note_on_c, 0, 51, 49
2, 169409, Control_c, 0, 64, 11
2, 169428, Control_c, 0, 64, 9
2, 169444, Note_on_c, 0, 68, 0
2, 169447, Control_c, 0, 64, 0
2, 169474, Note_on_c, 0, 52, 0
2, 169527, Note_on_c, 0, 58, 0
2, 169619, Note_on_c, 0, 68, 65
2, 169735, Control_c, 0, 64, 42
2, 169754, Control_c, 0, 64, 58
2, 169774, Control_c, 0, 64, 62
2, 169792, Control_c, 0, 64, 63
2, 169812, Control_c, 0, 64, 64
2, 169831, Control_c, 0, 64, 64
2, 169851, Control_c, 0, 64, 65
2, 169855, Note_on_c, 0, 66, 65
2, 169916, Note_on_c, 0, 60, 0
2, 169927, Control_c, 0, 64, 64
2, 169968, Note_on_c, 0, 68, 0
2, 169985, Control_c, 0, 64, 64
2, 169988, Note_on_c, 0, 69, 0
2, 170004, Control_c, 0, 64, 63
2, 170043, Control_c, 0, 64, 63
2, 170061, Control_c, 0, 64, 62
2, 170080, Control_c, 0, 64, 62
2, 170100, Control_c, 0, 64, 60
2, 170107, Note_on_c, 0, 49, 49
2, 170107, Note_on_c, 0, 65, 63
2, 170109, Note_on_c, 0, 59, 50
2, 170119, Control_c, 0, 64, 57
2, 170138, Control_c, 0, 64, 55
2, 170149, Note_on_c, 0, 66, 0
2, 170166, Control_c, 0, 64, 53
2, 170184, Control_c, 0, 64, 50
2, 170204, Control_c, 0, 64, 45
2, 170223, Control_c, 0, 64, 39
2, 170241, Control_c, 0, 64, 29
2, 170250, Note_on_c, 0, 51, 0
2, 170261, Control_c, 0, 64, 0
2, 170349, Note_on_c, 0, 66, 70
2, 170411, Note_on_c, 0, 65, 0
2, 170571, Note_on_c, 0, 68, 79
2, 170638, Note_on_c, 0, 66, 0
2, 170813, Note_on_c, 0, 66, 73
2, 170819, Note_on_c, 0, 51, 52
2, 170826, Note_on_c, 0, 57, 57
2, 170901, Note_on_c, 0, 59, 0
2, 170917, Note_on_c, 0, 49, 0
2, 170955, Note_on_c, 0, 68, 0
2, 171029, Control_c, 0, 64, 17
2, 171049, Control_c, 0, 64, 50
2, 171056, Note_on_c, 0, 65, 75
2, 171067, Control_c, 0, 64, 60
2, 171087, Control_c, 0, 64, 63
2, 171099, Note_on_c, 0, 66, 0
2, 171106, Control_c, 0, 64, 64
2, 171127, Control_c, 0, 64, 65
2, 171146, Control_c, 0, 64, 66
2, 171166, Control_c, 0, 64, 67
2, 171185, Control_c, 0, 64, 69
2, 171204, Control_c, 0, 64, 71
2, 171223, Control_c, 0, 64, 73
2, 171243, Control_c, 0, 64, 75
2, 171245, Note_on_c, 0, 51, 0
2, 171261, Control_c, 0, 64, 76
2, 171291, Note_on_c, 0, 63, 80
2, 171338, Control_c, 0, 64, 77
2, 171378, Note_on_c, 0, 65, 0
2, 171395, Control_c, 0, 64, 76
2, 171588, Control_c, 0, 64, 76
2, 171607, Control_c, 0, 64, 75
2, 171621, Note_on_c, 0, 61, 76
2, 171626, Control_c, 0, 64, 74
2, 171628, Note_on_c, 0, 56, 45
2, 171640, Note_on_c, 0, 53, 43
2, 171646, Control_c, 0, 64, 72
2, 171665, Control_c, 0, 64, 69
2, 171684, Control_c, 0, 64, 65
2, 171703, Control_c, 0, 64, 62
2, 171723, Control_c, 0, 64, 59
2, 171741, Control_c, 0, 64, 56
2, 171760, Control_c, 0, 64, 51
2, 171780, Control_c, 0, 64, 41
2, 171799, Control_c, 0, 64, 13
2, 171816, Note_on_c, 0, 57, 0
2, 171818, Control_c, 0, 64, 0
2, 171933, Note_on_c, 0, 63, 0
2, 172011, Control_c, 0, 67, 12
2, 172029, Control_c, 0, 67, 29
2, 172049, Control_c, 0, 67, 49
2, 172068, Control_c, 0, 67, 73
2, 172088, Control_c, 0, 67, 103
2, 172107, Control_c, 0, 67, 127
2, 172392, Note_on_c, 0, 57, 39
2, 172408, Note_on_c, 0, 54, 33
2, 172546, Note_on_c, 0, 53, 0
2, 172582, Note_on_c, 0, 56, 0
2, 173139, Note_on_c, 0, 56, 34
2, 173152, Note_on_c, 0, 59, 35
2, 173275, Note_on_c, 0, 54, 0
2, 173286, Note_on_c, 0, 57, 0
2, 173440, Control_c, 0, 64, 27
2, 173460, Control_c, 0, 64, 54
2, 173479, Control_c, 0, 64, 61
2, 173498, Control_c, 0, 64, 64
2, 173517, Control_c, 0, 64, 65
2, 173517, Note_on_c, 0, 56, 0
2, 173537, Control_c, 0, 64, 66
2, 173555, Control_c, 0, 64, 68
2, 173569, Note_on_c, 0, 61, 0
2, 173575, Control_c, 0, 64, 72
2, 173594, Control_c, 0, 64, 77
2, 173597, Note_on_c, 0, 65, 49
2, 173601, Note_on_c, 0, 59, 0
2, 173614, Control_c, 0, 64, 83
2, 173632, Control_c, 0, 64, 87
2, 173652, Control_c, 0, 64, 88
2, 173709, Control_c, 0, 64, 89
2, 173748, Control_c, 0, 64, 90
2, 173764, Note_on_c, 0, 65, 0
2, 173767, Note_on_c, 0, 68, 60
2, 173926, Control_c, 0, 64, 89
2, 173946, Control_c, 0, 64, 88
2, 173965, Control_c, 0, 64, 86
2, 173977, Note_on_c, 0, 71, 64
2, 173978, Note_on_c, 0, 53, 42
2, 173983, Control_c, 0, 64, 82
2, 174001, Note_on_c, 0, 44, 37
2, 174003, Control_c, 0, 64, 76
2, 174024, Control_c, 0, 64, 69
2, 174032, Note_on_c, 0, 68, 0
2, 174043, Control_c, 0, 64, 64
2, 174062, Control_c, 0, 64, 58
2, 174082, Control_c, 0, 64, 52
2, 174101, Control_c, 0, 64, 44
2, 174120, Control_c, 0, 64, 27
2, 174139, Control_c, 0, 64, 0
2, 174463, Note_on_c, 0, 74, 51
2, 174485, Control_c, 0, 64, 43
2, 174504, Control_c, 0, 64, 59
2, 174504, Note_on_c, 0, 71, 0
2, 174523, Control_c, 0, 64, 63
2, 174542, Control_c, 0, 64, 65
2, 174562, Control_c, 0, 64, 67
2, 174581, Control_c, 0, 64, 70
2, 174600, Control_c, 0, 64, 75
2, 174619, Control_c, 0, 64, 86
2, 174639, Control_c, 0, 64, 98
2, 174657, Control_c, 0, 64, 116
2, 174670, Note_on_c, 0, 44, 0
2, 174677, Control_c, 0, 64, 127
2, 174770, Note_on_c, 0, 74, 0
2, 175116, Control_c, 0, 64, 119
2, 175135, Control_c, 0, 64, 113
2, 175154, Control_c, 0, 64, 107
2, 175172, Note_on_c, 0, 45, 31
2, 175173, Control_c, 0, 64, 102
2, 175178, Note_on_c, 0, 54, 25
2, 175193, Control_c, 0, 64, 97
2, 175211, Control_c, 0, 64, 90
2, 175231, Control_c, 0, 64, 82
2, 175231, Note_on_c, 0, 73, 48
2, 175250, Control_c, 0, 64, 75
2, 175270, Control_c, 0, 64, 70
2, 175288, Control_c, 0, 64, 66
2, 175308, Control_c, 0, 64, 63
2, 175327, Control_c, 0, 64, 60
2, 175347, Control_c, 0, 64, 58
2, 175355, Note_on_c, 0, 53, 0
2, 175365, Control_c, 0, 64, 56
2, 175384, Control_c, 0, 64, 55
2, 175404, Control_c, 0, 64, 54
2, 175422, Control_c, 0, 64, 51
2, 175442, Control_c, 0, 64, 48
2, 175461, Control_c, 0, 64, 47
2, 175499, Control_c, 0, 64, 47
2, 175519, Control_c, 0, 64, 46
2, 175538, Control_c, 0, 64, 43
2, 175557, Control_c, 0, 64, 37
2, 175576, Control_c, 0, 64, 32
2, 175596, Control_c, 0, 64, 32
2, 175615, Control_c, 0, 64, 31
2, 175616, Note_on_c, 0, 75, 54
2, 175634, Control_c, 0, 64, 30
2, 175653, Control_c, 0, 64, 28
2, 175673, Control_c, 0, 64, 27
2, 175691, Control_c, 0, 64, 26
2, 175750, Control_c, 0, 64, 25
2, 175768, Control_c, 0, 64, 24
2, 175788, Control_c, 0, 64, 23
2, 175807, Control_c, 0, 64, 22
2, 175845, Control_c, 0, 64, 21
2, 175857, Note_on_c, 0, 77, 49
2, 175884, Control_c, 0, 64, 20
2, 175945, Note_on_c, 0, 75, 0
2, 175979, Control_c, 0, 64, 19
2, 176035, Note_on_c, 0, 73, 0
2, 176094, Note_on_c, 0, 49, 39
2, 176100, Note_on_c, 0, 78, 56
2, 176114, Control_c, 0, 64, 18
2, 176152, Note_on_c, 0, 77, 0
2, 176216, Note_on_c, 0, 54, 0
2, 176248, Control_c, 0, 64, 17
2, 176337, Note_on_c, 0, 76, 61
2, 176449, Note_on_c, 0, 78, 0
2, 176575, Control_c, 0, 64, 15
2, 176581, Note_on_c, 0, 74, 55
2, 176690, Control_c, 0, 64, 13
2, 176696, Note_on_c, 0, 76, 0
2, 176796, Note_on_c, 0, 54, 57
2, 176799, Note_on_c, 0, 73, 64
2, 176844, Control_c, 0, 64, 11
2, 176901, Note_on_c, 0, 74, 0
2, 176920, Note_on_c, 0, 49, 0
2, 177030, Note_on_c, 0, 71, 58
2, 177056, Note_on_c, 0, 73, 0
2, 177286, Note_on_c, 0, 69, 64
2, 177338, Note_on_c, 0, 71, 0
2, 177342, Control_c, 0, 64, 9
2, 177524, Note_on_c, 0, 74, 60
2, 177532, Note_on_c, 0, 47, 44
2, 177566, Note_on_c, 0, 69, 0
2, 177597, Note_on_c, 0, 45, 0
2, 177755, Note_on_c, 0, 73, 62
2, 177944, Note_on_c, 0, 74, 0
2, 177969, Note_on_c, 0, 71, 60
2, 178166, Note_on_c, 0, 73, 0
2, 178197, Note_on_c, 0, 71, 0
2, 178198, Note_on_c, 0, 69, 57
2, 178203, Note_on_c, 0, 49, 42
2, 178289, Note_on_c, 0, 47, 0
2, 178431, Note_on_c, 0, 68, 60
2, 178456, Note_on_c, 0, 69, 0
2, 178495, Control_c, 0, 64, 11
2, 178610, Control_c, 0, 64, 13
2, 178664, Note_on_c, 0, 66, 52
2, 178691, Note_on_c, 0, 68, 0
2, 178725, Control_c, 0, 64, 15
2, 178802, Control_c, 0, 64, 17
2, 178897, Note_on_c, 0, 54, 0
2, 178925, Note_on_c, 0, 68, 57
2, 178956, Note_on_c, 0, 53, 42
2, 178967, Note_on_c, 0, 66, 0
2, 178978, Note_on_c, 0, 47, 27
2, 179130, Control_c, 0, 64, 18
2, 179153, Note_on_c, 0, 49, 0
2, 179156, Note_on_c, 0, 66, 50
2, 179227, Control_c, 0, 64, 19
2, 179264, Control_c, 0, 64, 20
2, 179295, Note_on_c, 0, 68, 0
2, 179303, Control_c, 0, 64, 21
2, 179399, Control_c, 0, 64, 22
2, 179436, Note_on_c, 0, 65, 50
2, 179438, Control_c, 0, 64, 23
2, 179461, Note_on_c, 0, 66, 0
2, 179726, Note_on_c, 0, 46, 42
2, 179781, Note_on_c, 0, 66, 57
2, 179820, Note_on_c, 0, 65, 0
2, 179855, Note_on_c, 0, 53, 0
2, 179861, Note_on_c, 0, 47, 0
2, 179935, Control_c, 0, 64, 22
2, 179954, Control_c, 0, 64, 21
2, 179993, Control_c, 0, 64, 20
2, 180031, Control_c, 0, 64, 19
2, 180048, Note_on_c, 0, 64, 37
2, 180070, Control_c, 0, 64, 18
2, 180108, Control_c, 0, 64, 17
2, 180127, Control_c, 0, 64, 15
2, 180165, Control_c, 0, 64, 13
2, 180204, Control_c, 0, 64, 9
2, 180242, Control_c, 0, 64, 0
2, 180253, Note_on_c, 0, 62, 46
2, 180358, Note_on_c, 0, 64, 0
2, 180485, Note_on_c, 0, 54, 46
2, 180488, Note_on_c, 0, 61, 53
2, 180497, Note_on_c, 0, 62, 0
2, 180638, Note_on_c, 0, 46, 0
2, 180645, Control_c, 0, 64, 9
2, 180664, Control_c, 0, 64, 11
2, 180702, Control_c, 0, 64, 13
2, 180722, Control_c, 0, 64, 15
2, 180744, Control_c, 0, 64, 17
2, 180750, Note_on_c, 0, 62, 47
2, 180821, Control_c, 0, 64, 18
2, 180851, Note_on_c, 0, 61, 0
2, 180972, Note_on_c, 0, 64, 49
2, 181004, Note_on_c, 0, 62, 0
2, 181230, Note_on_c, 0, 47, 54
2, 181236, Note_on_c, 0, 62, 53
2, 181345, Note_on_c, 0, 54, 0
2, 181401, Note_on_c, 0, 64, 0
2, 181458, Note_on_c, 0, 61, 62
2, 181512, Note_on_c, 0, 62, 0
2, 181688, Note_on_c, 0, 59, 68
2, 181701, Note_on_c, 0, 61, 0
2, 181914, Control_c, 0, 64, 19
2, 181928, Note_on_c, 0, 49, 65
2, 181939, Note_on_c, 0, 58, 60
2, 181967, Note_on_c, 0, 59, 0
2, 182048, Control_c, 0, 64, 20
2, 182065, Note_on_c, 0, 47, 0
2, 182086, Control_c, 0, 64, 21
2, 182125, Control_c, 0, 67, 125
2, 182143, Control_c, 0, 64, 22
2, 182143, Control_c, 0, 67, 118
2, 182163, Control_c, 0, 67, 112
2, 182173, Note_on_c, 0, 59, 65
2, 182182, Control_c, 0, 64, 23
2, 182182, Control_c, 0, 67, 106
2, 182202, Control_c, 0, 67, 98
2, 182206, Note_on_c, 0, 58, 0
2, 182220, Control_c, 0, 67, 88
2, 182240, Control_c, 0, 67, 76
2, 182259, Control_c, 0, 67, 65
2, 182278, Control_c, 0, 64, 24
2, 182278, Control_c, 0, 67, 56
2, 182297, Control_c, 0, 67, 49
2, 182317, Control_c, 0, 64, 25
2, 182317, Control_c, 0, 67, 44
2, 182336, Control_c, 0, 67, 37
2, 182355, Control_c, 0, 67, 31
2, 182374, Control_c, 0, 67, 24
2, 182394, Control_c, 0, 67, 17
2, 182401, Note_on_c, 0, 61, 61
2, 182412, Control_c, 0, 67, 10
2, 182432, Control_c, 0, 67, 0
2, 182473, Note_on_c, 0, 59, 0
2, 182642, Control_c, 0, 64, 26
2, 182664, Note_on_c, 0, 50, 51
2, 182682, Note_on_c, 0, 59, 61
2, 182732, Note_on_c, 0, 61, 0
2, 182759, Note_on_c, 0, 49, 0
2, 183096, Note_on_c, 0, 65, 67
2, 183181, Control_c, 0, 64, 27
2, 183201, Control_c, 0, 64, 27
2, 183217, Note_on_c, 0, 59, 0
2, 183239, Control_c, 0, 64, 28
2, 183295, Note_on_c, 0, 66, 0
2, 183296, Control_c, 0, 64, 29
2, 183316, Control_c, 0, 64, 30
2, 183491, Note_on_c, 0, 54, 56
2, 183496, Note_on_c, 0, 47, 48
2, 183501, Note_on_c, 0, 57, 50
2, 183546, Control_c, 0, 64, 28
2, 183566, Control_c, 0, 64, 26
2, 183584, Control_c, 0, 64, 22
2, 183605, Control_c, 0, 64, 17
2, 183611, Note_on_c, 0, 50, 0
2, 183624, Control_c, 0, 64, 0
2, 183952, Note_on_c, 0, 66, 80
2, 183989, Control_c, 0, 64, 42
2, 184008, Control_c, 0, 64, 61
2, 184028, Control_c, 0, 64, 66
2, 184047, Control_c, 0, 64, 70
2, 184059, Note_on_c, 0, 47, 0
2, 184062, Note_on_c, 0, 65, 0
2, 184065, Control_c, 0, 64, 78
2, 184085, Control_c, 0, 64, 90
2, 184104, Control_c, 0, 64, 127
2, 184118, Note_on_c, 0, 54, 0
2, 184534, Note_on_c, 0, 56, 50
2, 184548, Note_on_c, 0, 53, 47
2, 184549, Note_on_c, 0, 49, 30
2, 184629, Note_on_c, 0, 74, 81
2, 184659, Control_c, 0, 64, 93
2, 184678, Control_c, 0, 64, 77
2, 184697, Control_c, 0, 64, 66
2, 184717, Control_c, 0, 64, 58
2, 184736, Control_c, 0, 64, 51
2, 184755, Control_c, 0, 64, 47
2, 184761, Note_on_c, 0, 57, 0
2, 184774, Control_c, 0, 64, 43
2, 184775, Note_on_c, 0, 66, 0
2, 184794, Control_c, 0, 64, 29
2, 184812, Control_c, 0, 64, 0
2, 185298, Note_on_c, 0, 72, 77
2, 185446, Note_on_c, 0, 74, 0
2, 185676, Note_on_c, 0, 57, 49
2, 185683, Note_on_c, 0, 54, 53
2, 185771, Note_on_c, 0, 56, 0
2, 185805, Note_on_c, 0, 53, 0
2, 185887, Control_c, 0, 64, 31
2, 185906, Control_c, 0, 64, 35
2, 185944, Control_c, 0, 64, 34
2, 185944, Control_c, 0, 67, 8
2, 185964, Control_c, 0, 67, 14
2, 185982, Control_c, 0, 67, 25
2, 186002, Control_c, 0, 64, 36
2, 186002, Control_c, 0, 67, 43
2, 186021, Control_c, 0, 64, 44
2, 186021, Control_c, 0, 67, 60
2, 186041, Control_c, 0, 64, 53
2, 186041, Control_c, 0, 67, 81
2, 186043, Note_on_c, 0, 73, 70
2, 186059, Control_c, 0, 64, 58
2, 186059, Control_c, 0, 67, 104
2, 186079, Control_c, 0, 64, 62
2, 186079, Control_c, 0, 67, 127
2, 186098, Control_c, 0, 64, 64
2, 186117, Control_c, 0, 64, 66
2, 186136, Control_c, 0, 64, 67
2, 186156, Control_c, 0, 64, 70
2, 186175, Control_c, 0, 64, 75
2, 186191, Note_on_c, 0, 72, 0
2, 186194, Control_c, 0, 64, 81
2, 186213, Control_c, 0, 64, 86
2, 186233, Control_c, 0, 64, 88
2, 186251, Control_c, 0, 64, 89
2, 186278, Note_on_c, 0, 57, 0
2, 186405, Control_c, 0, 64, 87
2, 186424, Control_c, 0, 64, 86
2, 186444, Control_c, 0, 64, 85
2, 186462, Control_c, 0, 64, 84
2, 186482, Control_c, 0, 64, 82
2, 186501, Control_c, 0, 64, 79
2, 186521, Control_c, 0, 64, 74
2, 186522, Note_on_c, 0, 65, 47
2, 186531, Note_on_c, 0, 56, 44
2, 186539, Control_c, 0, 64, 69
2, 186552, Note_on_c, 0, 59, 35
2, 186559, Control_c, 0, 64, 66
2, 186578, Control_c, 0, 64, 62
2, 186597, Control_c, 0, 64, 59
2, 186616, Control_c, 0, 64, 55
2, 186629, Note_on_c, 0, 73, 0
2, 186636, Control_c, 0, 64, 46
2, 186655, Control_c, 0, 64, 23
2, 186674, Control_c, 0, 64, 0
2, 186703, Note_on_c, 0, 54, 0
2, 186962, Control_c, 0, 64, 38
2, 186981, Control_c, 0, 64, 57
2, 187001, Control_c, 0, 64, 63
2, 187019, Control_c, 0, 64, 64
2, 187039, Control_c, 0, 64, 65
2, 187043, Note_on_c, 0, 71, 59
2, 187058, Control_c, 0, 64, 66
2, 187074, Note_on_c, 0, 59, 0
2, 187077, Control_c, 0, 64, 68
2, 187096, Control_c, 0, 64, 71
2, 187116, Control_c, 0, 64, 75
2, 187125, Note_on_c, 0, 56, 0
2, 187135, Control_c, 0, 64, 80
2, 187154, Control_c, 0, 64, 82
2, 187173, Control_c, 0, 64, 83
2, 187173, Note_on_c, 0, 49, 0
2, 187314, Note_on_c, 0, 65, 0
2, 187421, Note_on_c, 0, 54, 58
2, 187422, Control_c, 0, 64, 82
2, 187422, Note_on_c, 0, 50, 56
2, 187442, Control_c, 0, 64, 82
2, 187483, Control_c, 0, 64, 81
2, 187502, Control_c, 0, 64, 81
2, 187522, Control_c, 0, 64, 80
2, 187541, Control_c, 0, 64, 79
2, 187560, Control_c, 0, 64, 78
2, 187579, Control_c, 0, 64, 76
2, 187599, Control_c, 0, 64, 75
2, 187617, Control_c, 0, 64, 74
2, 187637, Control_c, 0, 64, 73
2, 187656, Control_c, 0, 64, 72
2, 187676, Control_c, 0, 64, 71
2, 187694, Control_c, 0, 64, 70
2, 187714, Control_c, 0, 64, 70
2, 187733, Control_c, 0, 64, 69
2, 187752, Control_c, 0, 64, 68
2, 187771, Control_c, 0, 64, 67
2, 187776, Note_on_c, 0, 69, 62
2, 187791, Control_c, 0, 64, 66
2, 187810, Control_c, 0, 64, 65
2, 187829, Control_c, 0, 64, 65
2, 187867, Control_c, 0, 64, 64
2, 187887, Control_c, 0, 64, 64
2, 187925, Control_c, 0, 64, 63
2, 187963, Control_c, 0, 64, 63
2, 187973, Note_on_c, 0, 71, 0
2, 187982, Control_c, 0, 64, 62
2, 188021, Control_c, 0, 64, 61
2, 188040, Control_c, 0, 64, 61
2, 188059, Control_c, 0, 64, 60
2, 188079, Control_c, 0, 64, 60
2, 188136, Control_c, 0, 64, 59
2, 188147, Note_on_c, 0, 47, 43
2, 188150, Note_on_c, 0, 68, 65
2, 188156, Control_c, 0, 64, 59
2, 188194, Control_c, 0, 64, 58
2, 188213, Control_c, 0, 64, 57
2, 188232, Control_c, 0, 64, 56
2, 188247, Note_on_c, 0, 50, 0
2, 188251, Control_c, 0, 64, 55
2, 188258, Note_on_c, 0, 69, 0
2, 188271, Control_c, 0, 64, 54
2, 188290, Control_c, 0, 64, 54
2, 188328, Control_c, 0, 64, 53
2, 188347, Control_c, 0, 64, 52
2, 188367, Control_c, 0, 64, 50
2, 188385, Control_c, 0, 64, 49
2, 188422, Control_c, 0, 64, 50
2, 188434, Note_on_c, 0, 71, 66
2, 188442, Control_c, 0, 64, 50
2, 188460, Control_c, 0, 64, 51
2, 188472, Note_on_c, 0, 68, 0
2, 188480, Control_c, 0, 64, 51
2, 188595, Control_c, 0, 64, 52
2, 188670, Note_on_c, 0, 69, 66
2, 188819, Note_on_c, 0, 54, 0
2, 188825, Control_c, 0, 64, 51
2, 188883, Control_c, 0, 64, 51
2, 188883, Note_on_c, 0, 53, 48
2, 188893, Note_on_c, 0, 68, 62
2, 188894, Note_on_c, 0, 49, 48
2, 188922, Control_c, 0, 64, 50
2, 188960, Control_c, 0, 64, 49
2, 188964, Note_on_c, 0, 71, 0
2, 188979, Control_c, 0, 64, 47
2, 188998, Control_c, 0, 64, 44
2, 189010, Note_on_c, 0, 47, 0
2, 189017, Control_c, 0, 64, 37
2, 189037, Control_c, 0, 64, 26
2, 189056, Control_c, 0, 64, 0
2, 189124, Note_on_c, 0, 66, 67
2, 189177, Note_on_c, 0, 69, 0
2, 189192, Note_on_c, 0, 68, 0
2, 189325, Control_c, 0, 64, 51
2, 189343, Control_c, 0, 64, 61
2, 189357, Note_on_c, 0, 65, 55
2, 189362, Control_c, 0, 64, 64
2, 189383, Control_c, 0, 64, 65
2, 189392, Note_on_c, 0, 49, 0
2, 189399, Note_on_c, 0, 66, 0
2, 189402, Control_c, 0, 64, 65
2, 189421, Control_c, 0, 64, 66
2, 189479, Control_c, 0, 64, 65
2, 189556, Control_c, 0, 64, 65
2, 189575, Control_c, 0, 64, 64
2, 189595, Control_c, 0, 64, 64
2, 189613, Control_c, 0, 64, 63
2, 189616, Note_on_c, 0, 66, 58
2, 189623, Note_on_c, 0, 49, 42
2, 189624, Note_on_c, 0, 45, 38
2, 189633, Control_c, 0, 64, 61
2, 189652, Control_c, 0, 64, 59
2, 189672, Control_c, 0, 64, 56
2, 189681, Note_on_c, 0, 65, 0
2, 189690, Control_c, 0, 64, 52
2, 189710, Control_c, 0, 64, 49
2, 189729, Control_c, 0, 64, 45
2, 189747, Control_c, 0, 64, 41
2, 189767, Control_c, 0, 64, 38
2, 189771, Note_on_c, 0, 53, 0
2, 189786, Control_c, 0, 64, 35
2, 189806, Control_c, 0, 64, 31
2, 189824, Control_c, 0, 64, 24
2, 189844, Control_c, 0, 64, 17
2, 189863, Control_c, 0, 64, 11
2, 189863, Note_on_c, 0, 68, 66
2, 189882, Control_c, 0, 64, 9
2, 189901, Control_c, 0, 64, 0
2, 189970, Note_on_c, 0, 66, 0
2, 190016, Control_c, 0, 64, 9
2, 190122, Note_on_c, 0, 69, 65
2, 190136, Note_on_c, 0, 68, 0
2, 190227, Control_c, 0, 64, 11
2, 190358, Note_on_c, 0, 53, 35
2, 190385, Note_on_c, 0, 44, 39
2, 190390, Note_on_c, 0, 71, 60
2, 190462, Note_on_c, 0, 69, 0
2, 190463, Note_on_c, 0, 45, 0
2, 190497, Note_on_c, 0, 49, 0
2, 190513, Control_c, 0, 64, 0
2, 190643, Note_on_c, 0, 73, 63
2, 190730, Note_on_c, 0, 71, 0
2, 190820, Control_c, 0, 64, 34
2, 190840, Control_c, 0, 64, 54
2, 190858, Control_c, 0, 64, 60
2, 190878, Control_c, 0, 64, 63
2, 190897, Control_c, 0, 64, 64
2, 190917, Control_c, 0, 64, 66
2, 190935, Control_c, 0, 64, 70
2, 190950, Note_on_c, 0, 74, 55
2, 190955, Control_c, 0, 64, 75
2, 190974, Control_c, 0, 64, 85
2, 190993, Control_c, 0, 64, 93
2, 191012, Control_c, 0, 64, 98
2, 191032, Control_c, 0, 64, 99
2, 191053, Note_on_c, 0, 73, 0
2, 191056, Note_on_c, 0, 44, 0
2, 191082, Note_on_c, 0, 74, 0
2, 191185, Control_c, 0, 64, 99
2, 191204, Control_c, 0, 64, 97
2, 191223, Control_c, 0, 64, 96
2, 191243, Control_c, 0, 64, 94
2, 191261, Control_c, 0, 64, 92
2, 191277, Note_on_c, 0, 45, 39
2, 191281, Control_c, 0, 64, 90
2, 191302, Control_c, 0, 64, 87
2, 191322, Control_c, 0, 64, 83
2, 191340, Control_c, 0, 64, 79
2, 191360, Control_c, 0, 64, 75
2, 191374, Note_on_c, 0, 53, 0
2, 191379, Control_c, 0, 64, 70
2, 191398, Control_c, 0, 64, 67
2, 191409, Note_on_c, 0, 61, 56
2, 191417, Control_c, 0, 64, 65
2, 191437, Control_c, 0, 64, 64
2, 191456, Control_c, 0, 64, 63
2, 191475, Control_c, 0, 64, 62
2, 191494, Control_c, 0, 64, 60
2, 191514, Control_c, 0, 64, 57
2, 191532, Control_c, 0, 64, 55
2, 191552, Control_c, 0, 64, 53
2, 191571, Control_c, 0, 64, 52
2, 191591, Control_c, 0, 64, 51
2, 191609, Control_c, 0, 64, 49
2, 191628, Control_c, 0, 64, 48
2, 191648, Control_c, 0, 64, 46
2, 191666, Control_c, 0, 64, 45
2, 191703, Note_on_c, 0, 54, 51
2, 191725, Control_c, 0, 64, 44
2, 191782, Control_c, 0, 64, 44
2, 191955, Control_c, 0, 64, 44
2, 192001, Note_on_c, 0, 52, 50
2, 192060, Note_on_c, 0, 54, 0
2, 192296, Note_on_c, 0, 66, 54
2, 192323, Note_on_c, 0, 56, 39
2, 192334, Note_on_c, 0, 50, 49
2, 192336, Note_on_c, 0, 52, 0
2, 192337, Control_c, 0, 64, 44
2, 192375, Control_c, 0, 64, 43
2, 192430, Note_on_c, 0, 61, 0
2, 192472, Control_c, 0, 64, 43
2, 192655, Note_on_c, 0, 49, 44
2, 192683, Control_c, 0, 64, 42
2, 192701, Control_c, 0, 64, 42
2, 192746, Note_on_c, 0, 50, 0
2, 192760, Control_c, 0, 64, 41
2, 192798, Control_c, 0, 64, 41
2, 192817, Control_c, 0, 64, 39
2, 192837, Control_c, 0, 64, 39
2, 192855, Control_c, 0, 64, 38
2, 192875, Control_c, 0, 64, 38
2, 192932, Control_c, 0, 64, 37
2, 192990, Control_c, 0, 64, 37
2, 193009, Control_c, 0, 64, 36
2, 193026, Note_on_c, 0, 47, 42
2, 193047, Control_c, 0, 64, 36
2, 193086, Control_c, 0, 64, 35
2, 193108, Note_on_c, 0, 49, 0
2, 193181, Control_c, 0, 64, 35
2, 193201, Control_c, 0, 64, 34
2, 193220, Control_c, 0, 64, 33
2, 193240, Control_c, 0, 64, 32
2, 193451, Control_c, 0, 64, 32
2, 193489, Control_c, 0, 64, 31
2, 193518, Note_on_c, 0, 57, 52
2, 193521, Note_on_c, 0, 49, 44
2, 193527, Control_c, 0, 64, 31
2, 193546, Control_c, 0, 64, 30
2, 193661, Control_c, 0, 64, 29
2, 193663, Note_on_c, 0, 45, 0
2, 193753, Note_on_c, 0, 56, 0
2, 193755, Note_on_c, 0, 66, 0
2, 193773, Note_on_c, 0, 47, 0
2, 194046, Control_c, 0, 64, 29
2, 194123, Control_c, 0, 64, 28
2, 194178, Control_c, 0, 64, 27
2, 194193, Note_on_c, 0, 66, 65
2, 194275, Control_c, 0, 64, 27
2, 194313, Control_c, 0, 64, 26
2, 194352, Control_c, 0, 64, 25
2, 194370, Control_c, 0, 64, 23
2, 194390, Control_c, 0, 64, 22
2, 194409, Control_c, 0, 64, 21
2, 194427, Control_c, 0, 64, 20
2, 194658, Control_c, 0, 64, 19
2, 195086, Note_on_c, 0, 37, 48
2, 195087, Note_on_c, 0, 59, 62
2, 195213, Note_on_c, 0, 57, 0
2, 195371, Control_c, 0, 64, 18
2, 195428, Control_c, 0, 64, 17
2, 195486, Control_c, 0, 64, 15
2, 195581, Control_c, 0, 64, 13
2, 195697, Control_c, 0, 64, 11
2, 196274, Control_c, 0, 64, 13
2, 196446, Note_on_c, 0, 65, 57
2, 196783, Note_on_c, 0, 66, 0
2, 196888, Control_c, 0, 64, 11
2, 196965, Control_c, 0, 64, 9
2, 197158, Control_c, 0, 64, 11
2, 197177, Control_c, 0, 64, 19
2, 197197, Control_c, 0, 64, 27
2, 197216, Control_c, 0, 64, 34
2, 197235, Control_c, 0, 64, 41
2, 197254, Control_c, 0, 64, 45
2, 197274, Control_c, 0, 64, 48
2, 197292, Control_c, 0, 64, 51
2, 197312, Control_c, 0, 64, 54
2, 197331, Control_c, 0, 64, 56
2, 197351, Control_c, 0, 64, 58
2, 197369, Control_c, 0, 64, 60
2, 197388, Control_c, 0, 64, 60
2, 197408, Control_c, 0, 64, 61
2, 197426, Control_c, 0, 64, 62
2, 197446, Control_c, 0, 64, 63
2, 197465, Control_c, 0, 64, 64
2, 197485, Control_c, 0, 64, 64
2, 197503, Control_c, 0, 64, 65
2, 197523, Control_c, 0, 64, 66
2, 197542, Control_c, 0, 64, 67
2, 197562, Control_c, 0, 64, 69
2, 197580, Control_c, 0, 64, 73
2, 197600, Control_c, 0, 64, 78
2, 197619, Control_c, 0, 64, 83
2, 197638, Control_c, 0, 64, 87
2, 197657, Control_c, 0, 64, 89
2, 197677, Control_c, 0, 64, 90
2, 197696, Control_c, 0, 64, 90
2, 197715, Control_c, 0, 64, 91
2, 197792, Control_c, 0, 64, 91
2, 197849, Control_c, 0, 64, 92
2, 197868, Control_c, 0, 64, 92
2, 197888, Control_c, 0, 64, 93
2, 197983, Control_c, 0, 64, 93
2, 198118, Control_c, 0, 64, 93
2, 198234, Control_c, 0, 64, 92
2, 198272, Control_c, 0, 64, 92
2, 198560, Control_c, 0, 64, 91
2, 198598, Control_c, 0, 64, 91
2, 198637, Control_c, 0, 64, 90
2, 198656, Control_c, 0, 64, 90
2, 198694, Control_c, 0, 64, 89
2, 198714, Control_c, 0, 64, 88
2, 198732, Control_c, 0, 64, 86
2, 198743, Note_on_c, 0, 42, 46
2, 198747, Note_on_c, 0, 66, 54
2, 198752, Control_c, 0, 64, 84
2, 198771, Control_c, 0, 64, 81
2, 198791, Control_c, 0, 64, 77
2, 198809, Control_c, 0, 64, 72
2, 198828, Control_c, 0, 64, 68
2, 198848, Control_c, 0, 64, 65
2, 198866, Control_c, 0, 64, 64
2, 198886, Control_c, 0, 64, 63
2, 198905, Control_c, 0, 64, 62
2, 198925, Control_c, 0, 64, 60
2, 198943, Control_c, 0, 64, 58
2, 198957, Note_on_c, 0, 65, 0
2, 198963, Control_c, 0, 64, 57
2, 198982, Control_c, 0, 64, 56
2, 199020, Control_c, 0, 64, 56
2, 199040, Control_c, 0, 64, 55
2, 199042, Note_on_c, 0, 37, 0
2, 199059, Control_c, 0, 64, 54
2, 199078, Control_c, 0, 64, 54
2, 199097, Control_c, 0, 64, 53
2, 199405, Control_c, 0, 64, 54
2, 199462, Control_c, 0, 64, 54
2, 199539, Control_c, 0, 64, 55
2, 199635, Control_c, 0, 64, 55
2, 199678, Note_on_c, 0, 58, 35
2, 199850, Note_on_c, 0, 59, 0
2, 200193, Note_on_c, 0, 56, 46
2, 200287, Control_c, 0, 64, 55
2, 200323, Note_on_c, 0, 58, 0
2, 200556, Note_on_c, 0, 58, 54
2, 200652, Note_on_c, 0, 56, 0
2, 200859, Note_on_c, 0, 59, 58
2, 200907, Note_on_c, 0, 58, 0
2, 200939, Control_c, 0, 64, 54
2, 201093, Control_c, 0, 64, 54
2, 201146, Note_on_c, 0, 58, 51
2, 201200, Note_on_c, 0, 59, 0
2, 201227, Control_c, 0, 64, 53
2, 201381, Control_c, 0, 64, 53
2, 201458, Control_c, 0, 64, 52
2, 201473, Note_on_c, 0, 59, 53
2, 201550, Note_on_c, 0, 58, 0
2, 201573, Control_c, 0, 64, 52
2, 201593, Control_c, 0, 64, 51
2, 201650, Control_c, 0, 64, 51
2, 201669, Control_c, 0, 64, 50
2, 201707, Control_c, 0, 64, 50
2, 201727, Control_c, 0, 64, 49
2, 201804, Control_c, 0, 64, 49
2, 201898, Note_on_c, 0, 58, 32
2, 201918, Control_c, 0, 64, 48
2, 202045, Note_on_c, 0, 59, 0
2, 202052, Control_c, 0, 64, 48
2, 202206, Control_c, 0, 64, 47
2, 202301, Control_c, 0, 64, 47
2, 202417, Control_c, 0, 64, 46
2, 202419, Note_on_c, 0, 56, 38
2, 202628, Control_c, 0, 64, 46
2, 202718, Note_on_c, 0, 58, 0
2, 202781, Control_c, 0, 64, 45
2, 202820, Control_c, 0, 64, 44
2, 202897, Control_c, 0, 64, 44
2, 203420, Note_on_c, 0, 58, 39
2, 203485, Note_on_c, 0, 56, 0
2, 203680, Note_on_c, 0, 56, 48
2, 203723, Control_c, 0, 64, 44
2, 203742, Note_on_c, 0, 58, 0
2, 203877, Control_c, 0, 64, 44
2, 203986, Note_on_c, 0, 58, 43
2, 204084, Control_c, 0, 64, 43
2, 204104, Control_c, 0, 64, 43
2, 204123, Control_c, 0, 64, 42
2, 204124, Note_on_c, 0, 56, 0
2, 204143, Control_c, 0, 64, 41
2, 204161, Control_c, 0, 64, 40
2, 204181, Control_c, 0, 64, 38
2, 204200, Control_c, 0, 64, 36
2, 204218, Control_c, 0, 64, 35
2, 204238, Control_c, 0, 64, 32
2, 204257, Control_c, 0, 64, 29
2, 204277, Control_c, 0, 64, 27
2, 204295, Control_c, 0, 64, 23
2, 204315, Control_c, 0, 64, 17
2, 204334, Control_c, 0, 64, 0
2, 205850, Control_c, 0, 64, 11
2, 205869, Control_c, 0, 64, 17
2, 205888, Control_c, 0, 64, 19
2, 205908, Control_c, 0, 64, 21
2, 205927, Control_c, 0, 64, 23
2, 205946, Control_c, 0, 64, 25
2, 205965, Control_c, 0, 64, 26
2, 205985, Control_c, 0, 64, 27
2, 206004, Control_c, 0, 64, 27
2, 206023, Control_c, 0, 64, 28
2, 206042, Control_c, 0, 64, 29
2, 206062, Control_c, 0, 64, 30
2, 206080, Control_c, 0, 64, 31
2, 206099, Control_c, 0, 64, 31
2, 206157, Control_c, 0, 64, 32
2, 206196, Control_c, 0, 64, 32
2, 206196, Control_c, 0, 67, 123
2, 206214, Control_c, 0, 67, 118
2, 206234, Control_c, 0, 64, 33
2, 206234, Control_c, 0, 67, 113
2, 206253, Control_c, 0, 67, 108
2, 206273, Control_c, 0, 64, 34
2, 206273, Control_c, 0, 67, 106
2, 206291, Control_c, 0, 64, 34
2, 206291, Control_c, 0, 67, 104
2, 206311, Control_c, 0, 64, 35
2, 206311, Control_c, 0, 67, 102
2, 206330, Control_c, 0, 64, 35
2, 206330, Control_c, 0, 67, 99
2, 206349, Control_c, 0, 64, 36
2, 206349, Control_c, 0, 67, 96
2, 206368, Control_c, 0, 64, 37
2, 206368, Control_c, 0, 67, 92
2, 206388, Control_c, 0, 64, 38
2, 206388, Control_c, 0, 67, 85
2, 206407, Control_c, 0, 64, 39
2, 206407, Control_c, 0, 67, 79
2, 206426, Control_c, 0, 67, 73
2, 206445, Control_c, 0, 67, 69
2, 206465, Control_c, 0, 67, 65
2, 206484, Control_c, 0, 67, 61
2, 206503, Control_c, 0, 67, 57
2, 206522, Control_c, 0, 67, 54
2, 206542, Control_c, 0, 67, 51
2, 206560, Control_c, 0, 67, 48
2, 206579, Control_c, 0, 67, 44
2, 206599, Control_c, 0, 67, 41
2, 206618, Control_c, 0, 67, 38
2, 206636, Control_c, 0, 67, 36
2, 206656, Control_c, 0, 67, 32
2, 206676, Control_c, 0, 67, 27
2, 206694, Control_c, 0, 67, 22
2, 206714, Control_c, 0, 67, 17
2, 206733, Control_c, 0, 67, 13
2, 206753, Control_c, 0, 67, 9
2, 206771, Control_c, 0, 67, 0
2, 207002, Control_c, 0, 64, 38
2, 207040, Control_c, 0, 64, 38
2, 207079, Control_c, 0, 64, 37
2, 207117, Control_c, 0, 64, 37
2, 207156, Control_c, 0, 64, 36
2, 207233, Control_c, 0, 64, 36
2, 207309, Control_c, 0, 64, 35
2, 207348, Control_c, 0, 64, 35
2, 207386, Control_c, 0, 64, 34
2, 207502, Control_c, 0, 64, 34
2, 207654, Control_c, 0, 64, 33
2, 207731, Control_c, 0, 64, 32
2, 207847, Control_c, 0, 64, 32
2, 207866, Control_c, 0, 64, 31
2, 207943, Control_c, 0, 64, 31
2, 208000, Control_c, 0, 64, 30
2, 208058, Control_c, 0, 64, 29
2, 208077, Control_c, 0, 64, 29
2, 208116, Control_c, 0, 64, 28
2, 208211, Control_c, 0, 64, 27
2, 208269, Control_c, 0, 64, 27
2, 208288, Control_c, 0, 64, 25
2, 208385, Control_c, 0, 64, 24
2, 208462, Control_c, 0, 64, 23
2, 208499, Control_c, 0, 64, 22
2, 208557, Control_c, 0, 64, 21
2, 208614, Control_c, 0, 64, 20
2, 208634, Control_c, 0, 64, 19
2, 208673, Control_c, 0, 64, 18
2, 208749, Control_c, 0, 64, 17
2, 208845, Control_c, 0, 64, 15
2, 208979, Control_c, 0, 64, 13
2, 209018, Control_c, 0, 64, 11
2, 209056, Control_c, 0, 64, 9
2, 209094, Control_c, 0, 64, 0
2, 209212, Note_on_c, 0, 58, 0
2, 209220, Note_on_c, 0, 49, 0
2, 209224, Note_on_c, 0, 42, 0
2, 209317, Note_on_c, 0, 66, 0
2, 214879, Note_on_c, 0, 61, 83
2, 214944, Note_on_c, 0, 61, 0
2, 215150, Note_on_c, 0, 57, 85
2, 215439, Note_on_c, 0, 54, 84
2, 215443, Note_on_c, 0, 57, 0
2, 215478, Note_on_c, 0, 54, 0
2, 215750, Note_on_c, 0, 62, 91
2, 216624, Note_on_c, 0, 62, 0
2, 216638, Note_on_c, 0, 61, 81
2, 216703, Note_on_c, 0, 61, 0
2, 216758, Note_on_c, 0, 59, 84
2, 216804, Note_on_c, 0, 59, 0
2, 216909, Note_on_c, 0, 61, 89
2, 217833, Note_on_c, 0, 61, 0
2, 217848, Note_on_c, 0, 66, 90
2, 217923, Note_on_c, 0, 66, 0
2, 218164, Note_on_c, 0, 59, 94
2, 219041, Note_on_c, 0, 59, 0
2, 219112, Note_on_c, 0, 57, 81
2, 219175, Note_on_c, 0, 57, 0
2, 219238, Note_on_c, 0, 56, 82
2, 219308, Note_on_c, 0, 56, 0
2, 219387, Note_on_c, 0, 57, 88
2, 219453, Note_on_c, 0, 57, 0
2, 219672, Note_on_c, 0, 54, 78
2, 219723, Note_on_c, 0, 54, 0
2, 219985, Note_on_c, 0, 57, 78
2, 220077, Control_c, 0, 67, 12
2, 220096, Control_c, 0, 67, 37
2, 220116, Control_c, 0, 67, 69
2, 220134, Control_c, 0, 67, 104
2, 220154, Control_c, 0, 67, 127
2, 220216, Note_on_c, 0, 57, 0
2, 220217, Note_on_c, 0, 56, 68
2, 220298, Note_on_c, 0, 56, 0
2, 220322, Note_on_c, 0, 57, 75
2, 220381, Note_on_c, 0, 57, 0
2, 220412, Note_on_c, 0, 56, 72
2, 220460, Note_on_c, 0, 56, 0
2, 220486, Note_on_c, 0, 57, 74
2, 220535, Note_on_c, 0, 57, 0
2, 220564, Note_on_c, 0, 56, 72
2, 220609, Note_on_c, 0, 56, 0
2, 220632, Note_on_c, 0, 57, 78
2, 220680, Note_on_c, 0, 57, 0
2, 220693, Note_on_c, 0, 56, 68
2, 220745, Note_on_c, 0, 56, 0
2, 220763, Note_on_c, 0, 57, 78
2, 220819, Note_on_c, 0, 57, 0
2, 220840, Note_on_c, 0, 56, 57
2, 220879, Note_on_c, 0, 56, 0
2, 220892, Note_on_c, 0, 57, 65
2, 220936, Note_on_c, 0, 57, 0
2, 220953, Note_on_c, 0, 56, 74
2, 221056, Note_on_c, 0, 56, 0
2, 221065, Note_on_c, 0, 54, 76
2, 221185, Note_on_c, 0, 54, 0
2, 221350, Note_on_c, 0, 56, 78
2, 221425, Note_on_c, 0, 56, 0
2, 221642, Note_on_c, 0, 57, 81
2, 221708, Note_on_c, 0, 57, 0
2, 221727, Control_c, 0, 67, 120
2, 221747, Control_c, 0, 67, 108
2, 221766, Control_c, 0, 67, 96
2, 221785, Control_c, 0, 67, 78
2, 221804, Control_c, 0, 67, 61
2, 221824, Control_c, 0, 67, 46
2, 221843, Control_c, 0, 67, 33
2, 221861, Control_c, 0, 67, 20
2, 221881, Control_c, 0, 67, 0
2, 221907, Note_on_c, 0, 66, 82
2, 221911, Note_on_c, 0, 59, 76
2, 221977, Note_on_c, 0, 59, 0
2, 221981, Note_on_c, 0, 66, 0
2, 221999, Control_c, 0, 64, 9
2, 222038, Control_c, 0, 64, 11
2, 222204, Note_on_c, 0, 64, 83
2, 222207, Note_on_c, 0, 61, 82
2, 222236, Note_on_c, 0, 61, 0
2, 222459, Note_on_c, 0, 64, 0
2, 222476, Note_on_c, 0, 61, 81
2, 222533, Note_on_c, 0, 61, 0
2, 222709, Control_c, 0, 64, 9
2, 222754, Note_on_c, 0, 69, 96
2, 223042, Note_on_c, 0, 63, 74
2, 223077, Note_on_c, 0, 63, 0
2, 223334, Note_on_c, 0, 64, 84
2, 223527, Note_on_c, 0, 69, 0
2, 223633, Note_on_c, 0, 68, 82
2, 223687, Note_on_c, 0, 68, 0
2, 223758, Note_on_c, 0, 66, 81
2, 223811, Note_on_c, 0, 66, 0
2, 223861, Control_c, 0, 64, 11
2, 223896, Note_on_c, 0, 68, 96
2, 223985, Note_on_c, 0, 64, 0
2, 224130, Control_c, 0, 64, 13
2, 224207, Note_on_c, 0, 64, 83
2, 224270, Note_on_c, 0, 64, 0
2, 224485, Note_on_c, 0, 58, 84
2, 224744, Control_c, 0, 64, 15
2, 224754, Note_on_c, 0, 73, 85
2, 224769, Note_on_c, 0, 68, 0
2, 224814, Note_on_c, 0, 73, 0
2, 225013, Control_c, 0, 64, 17
2, 225041, Note_on_c, 0, 66, 91
2, 225129, Note_on_c, 0, 58, 0
2, 225282, Control_c, 0, 64, 18
2, 225301, Control_c, 0, 64, 19
2, 225321, Control_c, 0, 64, 20
2, 225322, Note_on_c, 0, 60, 82
2, 225340, Control_c, 0, 64, 21
2, 225359, Control_c, 0, 64, 22
2, 225370, Note_on_c, 0, 60, 0
2, 225614, Note_on_c, 0, 61, 84
2, 225777, Note_on_c, 0, 66, 0
2, 225820, Control_c, 0, 64, 23
2, 225858, Control_c, 0, 64, 24
2, 225897, Note_on_c, 0, 64, 77
2, 225941, Note_on_c, 0, 64, 0
2, 226015, Note_on_c, 0, 63, 80
2, 226078, Note_on_c, 0, 63, 0
2, 226146, Control_c, 0, 64, 25
2, 226167, Note_on_c, 0, 64, 81
2, 226185, Note_on_c, 0, 61, 0
2, 226227, Note_on_c, 0, 64, 0
2, 226261, Control_c, 0, 64, 26
2, 226281, Control_c, 0, 64, 27
2, 226319, Control_c, 0, 64, 27
2, 226463, Note_on_c, 0, 61, 80
2, 226736, Note_on_c, 0, 64, 77
2, 226842, Note_on_c, 0, 64, 0
2, 226854, Note_on_c, 0, 63, 75
2, 226924, Note_on_c, 0, 61, 0
2, 226932, Note_on_c, 0, 63, 0
2, 226953, Note_on_c, 0, 64, 76
2, 226970, Note_on_c, 0, 60, 78
2, 227028, Note_on_c, 0, 64, 0
2, 227031, Note_on_c, 0, 60, 0
2, 227042, Note_on_c, 0, 63, 75
2, 227089, Note_on_c, 0, 58, 80
2, 227114, Note_on_c, 0, 63, 0
2, 227125, Note_on_c, 0, 64, 73
2, 227135, Note_on_c, 0, 58, 0
2, 227196, Note_on_c, 0, 64, 0
2, 227203, Note_on_c, 0, 63, 78
2, 227239, Note_on_c, 0, 60, 87
2, 227277, Note_on_c, 0, 63, 0
2, 227277, Note_on_c, 0, 64, 74
2, 227304, Note_on_c, 0, 60, 0
2, 227356, Note_on_c, 0, 64, 0
2, 227366, Note_on_c, 0, 63, 78
2, 227430, Note_on_c, 0, 64, 69
2, 227433, Note_on_c, 0, 63, 0
2, 227499, Note_on_c, 0, 56, 80
2, 227503, Note_on_c, 0, 63, 76
2, 227504, Note_on_c, 0, 64, 0
2, 227538, Note_on_c, 0, 56, 0
2, 227568, Note_on_c, 0, 64, 66
2, 227574, Note_on_c, 0, 63, 0
2, 227586, Control_c, 0, 64, 27
2, 227624, Control_c, 0, 64, 26
2, 227639, Note_on_c, 0, 63, 76
2, 227640, Note_on_c, 0, 64, 0
2, 227740, Control_c, 0, 64, 25
2, 227753, Control_c, 0, 64, 23
2, 227779, Control_c, 0, 64, 21
2, 227782, Note_on_c, 0, 64, 85
2, 227786, Note_on_c, 0, 63, 0
2, 227794, Note_on_c, 0, 61, 90
2, 227799, Control_c, 0, 64, 20
2, 227817, Control_c, 0, 64, 17
2, 227837, Control_c, 0, 64, 11
2, 227856, Control_c, 0, 64, 0
2, 228057, Note_on_c, 0, 73, 93
2, 228081, Note_on_c, 0, 61, 0
2, 228117, Note_on_c, 0, 73, 0
2, 228346, Note_on_c, 0, 66, 92
2, 228628, Note_on_c, 0, 57, 81
2, 228640, Note_on_c, 0, 64, 0
2, 228670, Note_on_c, 0, 57, 0
2, 228916, Note_on_c, 0, 62, 92
2, 229202, Note_on_c, 0, 71, 87
2, 229216, Note_on_c, 0, 66, 0
2, 229254, Note_on_c, 0, 71, 0
2, 229498, Note_on_c, 0, 64, 93
2, 229777, Note_on_c, 0, 56, 81
2, 229787, Note_on_c, 0, 62, 0
2, 229823, Note_on_c, 0, 56, 0
2, 230004, Control_c, 0, 64, 9
2, 230042, Control_c, 0, 64, 11
2, 230067, Note_on_c, 0, 61, 88
2, 230171, Note_on_c, 0, 64, 0
2, 230291, Control_c, 0, 64, 13
2, 230330, Control_c, 0, 64, 15
2, 230350, Control_c, 0, 64, 17
2, 230357, Note_on_c, 0, 69, 82
2, 230380, Note_on_c, 0, 61, 0
2, 230445, Control_c, 0, 64, 18
2, 230634, Note_on_c, 0, 59, 76
2, 230687, Note_on_c, 0, 69, 0
2, 230771, Control_c, 0, 64, 19
2, 230926, Note_on_c, 0, 68, 70
2, 230959, Note_on_c, 0, 59, 0
2, 231207, Note_on_c, 0, 57, 61
2, 231233, Control_c, 0, 64, 18
2, 231248, Note_on_c, 0, 68, 0
2, 231498, Note_on_c, 0, 66, 57
2, 231549, Note_on_c, 0, 57, 0
2, 231616, Control_c, 0, 64, 19
2, 231798, Note_on_c, 0, 56, 64
2, 231847, Control_c, 0, 64, 20
2, 232051, Note_on_c, 0, 49, 90
2, 232061, Note_on_c, 0, 65, 74
2, 232064, Note_on_c, 0, 56, 0
2, 232081, Note_on_c, 0, 66, 0
2, 232096, Control_c, 0, 64, 18
2, 232122, Note_on_c, 0, 65, 0
2, 232130, Note_on_c, 0, 49, 0
2, 232327, Control_c, 0, 64, 17
2, 232337, Note_on_c, 0, 45, 89
2, 232338, Note_on_c, 0, 54, 89
2, 232346, Note_on_c, 0, 66, 89
2, 232384, Control_c, 0, 64, 15
2, 232422, Control_c, 0, 64, 11
2, 232442, Control_c, 0, 64, 9
2, 232461, Control_c, 0, 64, 0
2, 232579, Note_on_c, 0, 54, 0
2, 232613, Note_on_c, 0, 42, 86
2, 232639, Note_on_c, 0, 45, 0
2, 232659, Note_on_c, 0, 42, 0
2, 232901, Note_on_c, 0, 50, 101
2, 233018, Note_on_c, 0, 66, 0
2, 233189, Note_on_c, 0, 71, 86
2, 233210, Control_c, 0, 64, 9
2, 233232, Note_on_c, 0, 71, 0
2, 233248, Control_c, 0, 64, 11
2, 233344, Control_c, 0, 64, 13
2, 233364, Control_c, 0, 64, 15
2, 233382, Control_c, 0, 64, 17
2, 233440, Control_c, 0, 64, 18
2, 233484, Note_on_c, 0, 68, 92
2, 233673, Note_on_c, 0, 50, 0
2, 233735, Note_on_c, 0, 49, 84
2, 233749, Note_on_c, 0, 64, 77
2, 233778, Note_on_c, 0, 68, 0
2, 233793, Note_on_c, 0, 49, 0
2, 233844, Control_c, 0, 64, 19
2, 233855, Note_on_c, 0, 47, 86
2, 233891, Note_on_c, 0, 47, 0
2, 233957, Note_on_c, 0, 64, 0
2, 233960, Control_c, 0, 64, 20
2, 233979, Control_c, 0, 64, 21
2, 233998, Control_c, 0, 64, 24
2, 234009, Note_on_c, 0, 49, 82
2, 234009, Note_on_c, 0, 52, 87
2, 234037, Control_c, 0, 64, 25
2, 234276, Note_on_c, 0, 52, 0
2, 234292, Note_on_c, 0, 69, 88
2, 234348, Note_on_c, 0, 69, 0
2, 234553, Control_c, 0, 64, 26
2, 234571, Note_on_c, 0, 66, 89
2, 234572, Control_c, 0, 64, 27
2, 234575, Note_on_c, 0, 49, 0
2, 234576, Note_on_c, 0, 57, 86
2, 234592, Control_c, 0, 64, 27
2, 234846, Note_on_c, 0, 63, 82
2, 234848, Note_on_c, 0, 54, 88
2, 234879, Control_c, 0, 64, 27
2, 234879, Note_on_c, 0, 66, 0
2, 234898, Control_c, 0, 64, 26
2, 234914, Note_on_c, 0, 54, 0
2, 234915, Note_on_c, 0, 63, 0
2, 235090, Control_c, 0, 64, 27
2, 235134, Note_on_c, 0, 47, 91
2, 235144, Note_on_c, 0, 62, 86
2, 235145, Note_on_c, 0, 57, 0
2, 235206, Control_c, 0, 64, 26
2, 235208, Note_on_c, 0, 62, 0
2, 235359, Control_c, 0, 64, 27
2, 235398, Control_c, 0, 64, 27
2, 235412, Note_on_c, 0, 59, 78
2, 235414, Note_on_c, 0, 68, 88
2, 235436, Control_c, 0, 64, 28
2, 235452, Note_on_c, 0, 59, 0
2, 235475, Note_on_c, 0, 68, 0
2, 235629, Control_c, 0, 64, 29
2, 235647, Control_c, 0, 64, 29
2, 235656, Note_on_c, 0, 47, 0
2, 235667, Control_c, 0, 64, 31
2, 235686, Control_c, 0, 64, 31
2, 235689, Note_on_c, 0, 56, 86
2, 235694, Note_on_c, 0, 65, 88
2, 235801, Control_c, 0, 64, 32
2, 235820, Control_c, 0, 64, 32
2, 235839, Control_c, 0, 64, 33
2, 235878, Control_c, 0, 64, 34
2, 235883, Note_on_c, 0, 56, 0
2, 235916, Control_c, 0, 64, 35
2, 235950, Note_on_c, 0, 65, 0
2, 235957, Note_on_c, 0, 61, 77
2, 235965, Note_on_c, 0, 45, 80
2, 236021, Note_on_c, 0, 61, 0
2, 236038, Note_on_c, 0, 45, 0
2, 236083, Note_on_c, 0, 44, 79
2, 236089, Control_c, 0, 64, 34
2, 236109, Control_c, 0, 64, 34
2, 236127, Control_c, 0, 64, 33
2, 236147, Control_c, 0, 64, 32
2, 236162, Note_on_c, 0, 44, 0
2, 236204, Control_c, 0, 64, 31
2, 236223, Control_c, 0, 64, 29
2, 236230, Note_on_c, 0, 45, 83
2, 236233, Note_on_c, 0, 66, 89
2, 236243, Control_c, 0, 64, 27
2, 236281, Control_c, 0, 64, 27
2, 236300, Control_c, 0, 64, 25
2, 236304, Note_on_c, 0, 45, 0
2, 236319, Control_c, 0, 64, 23
2, 236338, Control_c, 0, 64, 21
2, 236358, Control_c, 0, 64, 19
2, 236414, Control_c, 0, 64, 21
2, 236434, Control_c, 0, 64, 24
2, 236453, Control_c, 0, 64, 26
2, 236472, Control_c, 0, 64, 27
2, 236491, Control_c, 0, 64, 31
2, 236507, Note_on_c, 0, 42, 79
2, 236511, Control_c, 0, 64, 36
2, 236513, Note_on_c, 0, 57, 83
2, 236529, Control_c, 0, 64, 37
2, 236547, Note_on_c, 0, 42, 0
2, 236549, Control_c, 0, 64, 38
2, 236568, Control_c, 0, 64, 38
2, 236569, Note_on_c, 0, 57, 0
2, 236625, Control_c, 0, 64, 39
2, 236683, Control_c, 0, 64, 38
2, 236702, Control_c, 0, 64, 38
2, 236740, Control_c, 0, 64, 37
2, 236760, Control_c, 0, 64, 36
2, 236779, Control_c, 0, 64, 35
2, 236796, Note_on_c, 0, 45, 80
2, 236799, Control_c, 0, 64, 34
2, 236802, Note_on_c, 0, 59, 91
2, 236820, Control_c, 0, 64, 32
2, 236840, Control_c, 0, 64, 31
2, 236859, Control_c, 0, 64, 29
2, 236878, Control_c, 0, 64, 28
2, 236929, Note_on_c, 0, 44, 67
2, 236936, Note_on_c, 0, 45, 0
2, 236993, Control_c, 0, 64, 29
2, 237012, Control_c, 0, 64, 32
2, 237021, Note_on_c, 0, 44, 0
2, 237031, Control_c, 0, 64, 34
2, 237039, Note_on_c, 0, 45, 73
2, 237060, Note_on_c, 0, 62, 80
2, 237083, Note_on_c, 0, 59, 0
2, 237102, Note_on_c, 0, 45, 0
2, 237125, Note_on_c, 0, 66, 0
2, 237128, Control_c, 0, 64, 34
2, 237134, Note_on_c, 0, 44, 72
2, 237147, Control_c, 0, 64, 35
2, 237147, Note_on_c, 0, 62, 0
2, 237190, Note_on_c, 0, 44, 0
2, 237211, Note_on_c, 0, 45, 72
2, 237275, Note_on_c, 0, 45, 0
2, 237282, Control_c, 0, 64, 35
2, 237300, Control_c, 0, 64, 36
2, 237316, Note_on_c, 0, 44, 65
2, 237343, Note_on_c, 0, 65, 91
2, 237358, Note_on_c, 0, 44, 0
2, 237377, Note_on_c, 0, 45, 70
2, 237432, Note_on_c, 0, 45, 0
2, 237451, Note_on_c, 0, 44, 70
2, 237503, Note_on_c, 0, 44, 0
2, 237524, Note_on_c, 0, 45, 70
2, 237581, Note_on_c, 0, 45, 0
2, 237602, Note_on_c, 0, 44, 67
2, 237611, Note_on_c, 0, 56, 82
2, 237650, Note_on_c, 0, 44, 0
2, 237657, Note_on_c, 0, 45, 70
2, 237659, Note_on_c, 0, 65, 0
2, 237682, Note_on_c, 0, 56, 0
2, 237685, Control_c, 0, 64, 36
2, 237711, Note_on_c, 0, 45, 0
2, 237723, Control_c, 0, 64, 37
2, 237734, Note_on_c, 0, 44, 74
2, 237762, Control_c, 0, 64, 37
2, 237800, Control_c, 0, 64, 38
2, 237819, Control_c, 0, 64, 39
2, 237875, Note_on_c, 0, 44, 0
2, 237882, Note_on_c, 0, 42, 78
2, 237888, Note_on_c, 0, 66, 89
2, 237896, Note_on_c, 0, 57, 88
2, 237934, Control_c, 0, 64, 38
2, 237979, Note_on_c, 0, 66, 0
2, 238011, Control_c, 0, 64, 38
2, 238107, Note_on_c, 0, 42, 0
2, 238170, Note_on_c, 0, 69, 92
2, 238174, Note_on_c, 0, 61, 79
2, 238183, Control_c, 0, 64, 37
2, 238194, Note_on_c, 0, 57, 0
2, 238205, Note_on_c, 0, 61, 0
2, 238222, Control_c, 0, 64, 37
2, 238230, Note_on_c, 0, 69, 0
2, 238260, Control_c, 0, 64, 36
2, 238280, Control_c, 0, 64, 36
2, 238299, Control_c, 0, 64, 35
2, 238317, Control_c, 0, 64, 35
2, 238337, Control_c, 0, 64, 33
2, 238356, Control_c, 0, 64, 31
2, 238376, Control_c, 0, 64, 29
2, 238394, Control_c, 0, 64, 28
2, 238414, Control_c, 0, 64, 27
2, 238433, Control_c, 0, 64, 26
2, 238444, Note_on_c, 0, 50, 69
2, 238450, Note_on_c, 0, 71, 85
2, 238452, Control_c, 0, 64, 20
2, 238471, Control_c, 0, 64, 0
2, 238713, Note_on_c, 0, 54, 73
2, 238714, Note_on_c, 0, 74, 85
2, 238748, Note_on_c, 0, 71, 0
2, 238764, Note_on_c, 0, 54, 0
2, 238767, Note_on_c, 0, 74, 0
2, 238995, Note_on_c, 0, 56, 81
2, 239265, Note_on_c, 0, 68, 86
2, 239281, Note_on_c, 0, 59, 77
2, 239298, Note_on_c, 0, 56, 0
2, 239319, Note_on_c, 0, 50, 0
2, 239332, Note_on_c, 0, 68, 0
2, 239347, Note_on_c, 0, 59, 0
2, 239533, Note_on_c, 0, 69, 83
2, 239538, Note_on_c, 0, 49, 82
2, 239812, Note_on_c, 0, 73, 83
2, 239820, Note_on_c, 0, 49, 0
2, 239824, Note_on_c, 0, 57, 71
2, 239830, Note_on_c, 0, 69, 0
2, 239872, Note_on_c, 0, 73, 0
2, 240087, Note_on_c, 0, 57, 0
2, 240096, Note_on_c, 0, 47, 82
2, 240098, Note_on_c, 0, 62, 80
2, 240388, Note_on_c, 0, 66, 75
2, 240439, Note_on_c, 0, 62, 0
2, 240520, Note_on_c, 0, 68, 79
2, 240553, Note_on_c, 0, 66, 0
2, 240621, Note_on_c, 0, 47, 0
2, 240626, Note_on_c, 0, 68, 0
2, 240626, Note_on_c, 0, 69, 89
2, 240637, Note_on_c, 0, 59, 84
2, 240660, Control_c, 0, 64, 9
2, 240699, Control_c, 0, 64, 11
2, 240702, Note_on_c, 0, 69, 0
2, 240708, Note_on_c, 0, 68, 68
2, 240756, Control_c, 0, 64, 13
2, 240774, Note_on_c, 0, 69, 82
2, 240776, Control_c, 0, 64, 15
2, 240781, Note_on_c, 0, 68, 0
2, 240855, Note_on_c, 0, 59, 0
2, 240857, Note_on_c, 0, 68, 77
2, 240891, Control_c, 0, 64, 17
2, 240899, Note_on_c, 0, 52, 86
2, 240903, Note_on_c, 0, 69, 0
2, 240910, Control_c, 0, 64, 19
2, 240929, Control_c, 0, 64, 21
2, 240948, Control_c, 0, 64, 22
2, 240959, Note_on_c, 0, 66, 81
2, 240964, Note_on_c, 0, 52, 0
2, 240968, Control_c, 0, 64, 23
2, 240968, Note_on_c, 0, 68, 0
2, 241044, Note_on_c, 0, 68, 77
2, 241084, Note_on_c, 0, 66, 0
2, 241163, Note_on_c, 0, 69, 90
2, 241165, Note_on_c, 0, 68, 0
2, 241167, Note_on_c, 0, 49, 90
2, 241170, Note_on_c, 0, 64, 87
2, 241194, Control_c, 0, 64, 22
2, 241220, Note_on_c, 0, 64, 0
2, 241256, Control_c, 0, 64, 21
2, 241371, Control_c, 0, 64, 22
2, 241409, Control_c, 0, 64, 23
2, 241442, Note_on_c, 0, 45, 80
2, 241443, Note_on_c, 0, 61, 83
2, 241455, Note_on_c, 0, 49, 0
2, 241481, Note_on_c, 0, 45, 0
2, 241509, Note_on_c, 0, 61, 0
2, 241563, Control_c, 0, 64, 22
2, 241640, Control_c, 0, 64, 23
2, 241677, Control_c, 0, 64, 24
2, 241725, Note_on_c, 0, 54, 91
2, 241728, Note_on_c, 0, 63, 90
2, 241736, Note_on_c, 0, 69, 0
2, 241928, Control_c, 0, 64, 25
2, 241966, Control_c, 0, 64, 26
2, 241996, Note_on_c, 0, 75, 85
2, 242005, Control_c, 0, 64, 27
2, 242005, Note_on_c, 0, 66, 78
2, 242023, Control_c, 0, 64, 27
2, 242043, Note_on_c, 0, 66, 0
2, 242046, Note_on_c, 0, 63, 0
2, 242062, Control_c, 0, 64, 28
2, 242064, Note_on_c, 0, 75, 0
2, 242216, Control_c, 0, 64, 29
2, 242285, Note_on_c, 0, 72, 88
2, 242388, Control_c, 0, 64, 28
2, 242560, Note_on_c, 0, 68, 83
2, 242566, Note_on_c, 0, 60, 75
2, 242591, Note_on_c, 0, 72, 0
2, 242600, Control_c, 0, 64, 27
2, 242604, Note_on_c, 0, 60, 0
2, 242627, Note_on_c, 0, 68, 0
2, 242657, Control_c, 0, 64, 27
2, 242815, Note_on_c, 0, 54, 0
2, 242817, Note_on_c, 0, 61, 78
2, 242819, Note_on_c, 0, 52, 74
2, 242868, Control_c, 0, 64, 26
2, 242888, Control_c, 0, 64, 24
2, 242907, Control_c, 0, 64, 21
2, 242926, Control_c, 0, 64, 20
2, 242965, Control_c, 0, 64, 18
2, 243104, Note_on_c, 0, 73, 81
2, 243112, Note_on_c, 0, 64, 72
2, 243120, Note_on_c, 0, 61, 0
2, 243144, Note_on_c, 0, 64, 0
2, 243174, Note_on_c, 0, 73, 0
2, 243214, Control_c, 0, 64, 19
2, 243329, Control_c, 0, 64, 20
2, 243390, Note_on_c, 0, 52, 0
2, 243397, Note_on_c, 0, 51, 69
2, 243407, Note_on_c, 0, 78, 91
2, 243617, Control_c, 0, 64, 21
2, 243687, Note_on_c, 0, 58, 70
2, 243776, Note_on_c, 0, 51, 0
2, 243830, Note_on_c, 0, 58, 0
2, 243833, Note_on_c, 0, 60, 75
2, 243905, Control_c, 0, 64, 22
2, 243938, Note_on_c, 0, 61, 82
2, 243940, Note_on_c, 0, 60, 0
2, 243947, Note_on_c, 0, 75, 82
2, 244008, Note_on_c, 0, 78, 0
2, 244014, Note_on_c, 0, 61, 0
2, 244019, Note_on_c, 0, 60, 54
2, 244066, Note_on_c, 0, 61, 62
2, 244069, Note_on_c, 0, 60, 0
2, 244155, Control_c, 0, 64, 23
2, 244170, Note_on_c, 0, 60, 67
2, 244195, Note_on_c, 0, 61, 0
2, 244231, Note_on_c, 0, 56, 74
2, 244260, Note_on_c, 0, 75, 0
2, 244292, Note_on_c, 0, 60, 0
2, 244306, Note_on_c, 0, 58, 75
2, 244376, Note_on_c, 0, 56, 0
2, 244383, Control_c, 0, 64, 22
2, 244401, Note_on_c, 0, 60, 68
2, 244417, Note_on_c, 0, 58, 0
2, 244421, Control_c, 0, 64, 21
2, 244460, Control_c, 0, 64, 20
2, 244464, Note_on_c, 0, 52, 81
2, 244464, Note_on_c, 0, 60, 0
2, 244464, Note_on_c, 0, 61, 91
2, 244468, Note_on_c, 0, 80, 88
2, 244498, Control_c, 0, 64, 19
2, 244544, Note_on_c, 0, 80, 0
2, 244556, Control_c, 0, 64, 18
2, 244598, Note_on_c, 0, 52, 0
2, 244711, Note_on_c, 0, 61, 0
2, 244742, Note_on_c, 0, 76, 84
2, 244743, Note_on_c, 0, 49, 94
2, 244803, Note_on_c, 0, 76, 0
2, 244814, Note_on_c, 0, 49, 0
2, 244844, Control_c, 0, 64, 17
2, 244901, Control_c, 0, 64, 15
2, 245018, Note_on_c, 0, 57, 94
2, 245025, Note_on_c, 0, 78, 87
2, 245190, Control_c, 0, 64, 13
2, 245315, Note_on_c, 0, 66, 85
2, 245320, Note_on_c, 0, 81, 90
2, 245355, Note_on_c, 0, 78, 0
2, 245370, Note_on_c, 0, 66, 0
2, 245371, Note_on_c, 0, 81, 0
2, 245590, Note_on_c, 0, 62, 91
2, 245612, Control_c, 0, 64, 11
2, 245670, Control_c, 0, 64, 9
2, 245689, Control_c, 0, 64, 0
2, 245859, Note_on_c, 0, 62, 0
2, 245873, Note_on_c, 0, 59, 79
2, 245878, Note_on_c, 0, 74, 89
2, 245923, Note_on_c, 0, 57, 0
2, 245930, Note_on_c, 0, 74, 0
2, 246152, Note_on_c, 0, 56, 82
2, 246157, Note_on_c, 0, 76, 93
2, 246166, Note_on_c, 0, 59, 0
2, 246419, Note_on_c, 0, 64, 80
2, 246429, Note_on_c, 0, 80, 94
2, 246446, Note_on_c, 0, 76, 0
2, 246459, Note_on_c, 0, 78, 49
2, 246478, Note_on_c, 0, 80, 0
2, 246484, Note_on_c, 0, 64, 0
2, 246490, Note_on_c, 0, 78, 0
2, 246686, Note_on_c, 0, 56, 0
2, 246704, Note_on_c, 0, 61, 95
2, 246974, Note_on_c, 0, 49, 72
2, 246979, Note_on_c, 0, 57, 77
2, 246979, Note_on_c, 0, 61, 0
2, 246983, Note_on_c, 0, 73, 87
2, 247044, Note_on_c, 0, 73, 0
2, 247101, Note_on_c, 0, 49, 0
2, 247260, Note_on_c, 0, 71, 93
2, 247270, Note_on_c, 0, 54, 81
2, 247285, Note_on_c, 0, 57, 0
2, 247443, Note_on_c, 0, 55, 3
2, 247527, Note_on_c, 0, 71, 0
2, 247529, Note_on_c, 0, 62, 77
2, 247533, Note_on_c, 0, 69, 80
2, 247549, Note_on_c, 0, 55, 0
2, 247589, Note_on_c, 0, 69, 0
2, 247610, Note_on_c, 0, 62, 0
2, 247666, Note_on_c, 0, 61, 79
2, 247738, Note_on_c, 0, 61, 0
2, 247764, Note_on_c, 0, 54, 0
2, 247792, Note_on_c, 0, 59, 88
2, 247792, Note_on_c, 0, 68, 93
2, 247851, Note_on_c, 0, 59, 0
2, 248063, Note_on_c, 0, 57, 80
2, 248109, Note_on_c, 0, 57, 0
2, 248340, Note_on_c, 0, 53, 78
2, 248342, Note_on_c, 0, 57, 81
2, 248384, Note_on_c, 0, 56, 84
2, 248389, Note_on_c, 0, 57, 0
2, 248418, Note_on_c, 0, 68, 0
2, 248459, Note_on_c, 0, 56, 0
2, 248477, Note_on_c, 0, 57, 80
2, 248536, Note_on_c, 0, 57, 0
2, 248542, Note_on_c, 0, 56, 77
2, 248612, Note_on_c, 0, 56, 0
2, 248625, Note_on_c, 0, 57, 58
2, 248641, Note_on_c, 0, 73, 94
2, 248663, Note_on_c, 0, 57, 0
2, 248673, Note_on_c, 0, 56, 71
2, 248690, Note_on_c, 0, 71, 34
2, 248700, Note_on_c, 0, 71, 0
2, 248706, Note_on_c, 0, 73, 0
2, 248734, Note_on_c, 0, 53, 0
2, 248895, Note_on_c, 0, 56, 0
2, 248913, Note_on_c, 0, 69, 100
2, 248932, Note_on_c, 0, 54, 80
2, 249151, Note_on_c, 0, 69, 0
2, 249177, Note_on_c, 0, 57, 67
2, 249181, Note_on_c, 0, 66, 84
2, 249225, Note_on_c, 0, 57, 0
2, 249245, Note_on_c, 0, 66, 0
2, 249452, Note_on_c, 0, 74, 90
2, 249459, Note_on_c, 0, 59, 73
2, 249470, Note_on_c, 0, 54, 0
2, 249501, Note_on_c, 0, 59, 0
2, 249722, Note_on_c, 0, 62, 65
2, 249725, Note_on_c, 0, 71, 74
2, 249758, Note_on_c, 0, 62, 0
2, 249794, Note_on_c, 0, 71, 0
2, 250007, Note_on_c, 0, 56, 60
2, 250015, Note_on_c, 0, 64, 71
2, 250153, Note_on_c, 0, 74, 0
2, 250258, Note_on_c, 0, 56, 0
2, 250263, Note_on_c, 0, 52, 58
2, 250264, Note_on_c, 0, 73, 85
2, 250308, Note_on_c, 0, 52, 0
2, 250335, Note_on_c, 0, 73, 0
2, 250394, Note_on_c, 0, 71, 79
2, 250460, Note_on_c, 0, 71, 0
2, 250552, Note_on_c, 0, 73, 92
2, 250556, Note_on_c, 0, 57, 69
2, 250596, Note_on_c, 0, 64, 0
2, 250599, Note_on_c, 0, 57, 0
2, 250831, Note_on_c, 0, 64, 74
2, 250835, Note_on_c, 0, 61, 61
2, 250874, Note_on_c, 0, 61, 0
2, 250876, Note_on_c, 0, 64, 0
2, 251104, Note_on_c, 0, 69, 86
2, 251119, Note_on_c, 0, 54, 60
2, 251139, Note_on_c, 0, 73, 0
2, 251370, Note_on_c, 0, 78, 88
2, 251379, Note_on_c, 0, 51, 59
2, 251383, Note_on_c, 0, 54, 0
2, 251427, Note_on_c, 0, 51, 0
2, 251461, Note_on_c, 0, 78, 0
2, 251642, Note_on_c, 0, 71, 88
2, 251650, Note_on_c, 0, 56, 77
2, 251659, Note_on_c, 0, 69, 0
2, 251695, Note_on_c, 0, 56, 0
2, 251925, Note_on_c, 0, 68, 80
2, 251937, Note_on_c, 0, 59, 72
2, 251979, Note_on_c, 0, 59, 0
2, 252002, Note_on_c, 0, 68, 0
2, 252044, Note_on_c, 0, 66, 78
2, 252131, Note_on_c, 0, 66, 0
2, 252192, Note_on_c, 0, 68, 81
2, 252203, Note_on_c, 0, 53, 72
2, 252219, Note_on_c, 0, 71, 0
2, 252439, Note_on_c, 0, 53, 0
2, 252457, Note_on_c, 0, 49, 67
2, 252459, Note_on_c, 0, 69, 80
2, 252462, Note_on_c, 0, 65, 70
2, 252472, Note_on_c, 0, 68, 0
2, 252496, Note_on_c, 0, 65, 0
2, 252512, Note_on_c, 0, 49, 0
2, 252579, Note_on_c, 0, 68, 84
2, 252610, Note_on_c, 0, 69, 0
2, 252685, Note_on_c, 0, 68, 0
2, 252719, Note_on_c, 0, 66, 85
2, 252726, Note_on_c, 0, 54, 72
2, 252729, Note_on_c, 0, 69, 87
2, 252783, Note_on_c, 0, 54, 0
2, 252786, Note_on_c, 0, 66, 0
2, 253004, Note_on_c, 0, 66, 85
2, 253007, Note_on_c, 0, 57, 77
2, 253038, Note_on_c, 0, 69, 0
2, 253060, Note_on_c, 0, 57, 0
2, 253287, Note_on_c, 0, 68, 93
2, 253296, Note_on_c, 0, 59, 79
2, 253321, Note_on_c, 0, 66, 0
2, 253548, Note_on_c, 0, 64, 81
2, 253552, Note_on_c, 0, 56, 73
2, 253556, Note_on_c, 0, 59, 0
2, 253593, Note_on_c, 0, 56, 0
2, 253601, Note_on_c, 0, 64, 0
2, 253674, Note_on_c, 0, 63, 75
2, 253792, Note_on_c, 0, 63, 0
2, 253809, Note_on_c, 0, 61, 80
2, 253813, Note_on_c, 0, 64, 80
2, 253874, Note_on_c, 0, 61, 0
2, 254106, Note_on_c, 0, 59, 77
2, 254157, Note_on_c, 0, 59, 0
2, 254307, Control_c, 0, 67, 14
2, 254327, Control_c, 0, 67, 33
2, 254346, Control_c, 0, 67, 61
2, 254365, Control_c, 0, 67, 99
2, 254384, Control_c, 0, 67, 127
2, 254394, Note_on_c, 0, 66, 75
2, 254409, Note_on_c, 0, 58, 57
2, 254418, Note_on_c, 0, 64, 0
2, 254445, Note_on_c, 0, 68, 0
2, 254668, Note_on_c, 0, 62, 67
2, 254680, Note_on_c, 0, 58, 0
2, 254688, Note_on_c, 0, 54, 53
2, 254713, Note_on_c, 0, 62, 0
2, 254737, Note_on_c, 0, 54, 0
2, 254793, Note_on_c, 0, 61, 66
2, 254896, Note_on_c, 0, 61, 0
2, 254944, Note_on_c, 0, 62, 65
2, 254956, Note_on_c, 0, 59, 60
2, 254999, Note_on_c, 0, 66, 0
2, 255002, Note_on_c, 0, 59, 0
2, 255214, Note_on_c, 0, 71, 75
2, 255215, Note_on_c, 0, 57, 61
2, 255274, Note_on_c, 0, 57, 0
2, 255303, Note_on_c, 0, 71, 0
2, 255488, Note_on_c, 0, 64, 74
2, 255490, Note_on_c, 0, 56, 62
2, 255549, Note_on_c, 0, 56, 0
2, 255549, Note_on_c, 0, 64, 0
2, 255633, Control_c, 0, 67, 118
2, 255652, Control_c, 0, 67, 107
2, 255671, Control_c, 0, 67, 94
2, 255690, Control_c, 0, 67, 84
2, 255709, Control_c, 0, 67, 74
2, 255729, Control_c, 0, 67, 63
2, 255747, Control_c, 0, 67, 51
2, 255757, Note_on_c, 0, 68, 78
2, 255766, Note_on_c, 0, 52, 62
2, 255767, Control_c, 0, 67, 39
2, 255786, Control_c, 0, 67, 29
2, 255805, Control_c, 0, 67, 17
2, 255812, Note_on_c, 0, 62, 0
2, 255824, Control_c, 0, 67, 0
2, 255828, Note_on_c, 0, 52, 0
2, 255854, Note_on_c, 0, 68, 0
2, 256029, Note_on_c, 0, 69, 84
2, 256031, Note_on_c, 0, 61, 84
2, 256035, Note_on_c, 0, 54, 74
2, 256279, Note_on_c, 0, 69, 0
2, 256285, Note_on_c, 0, 54, 0
2, 256303, Note_on_c, 0, 57, 80
2, 256304, Control_c, 0, 64, 9
2, 256307, Note_on_c, 0, 73, 82
2, 256380, Note_on_c, 0, 73, 0
2, 256398, Note_on_c, 0, 57, 0
2, 256458, Control_c, 0, 64, 11
2, 256573, Control_c, 0, 64, 9
2, 256585, Note_on_c, 0, 66, 87
2, 256592, Note_on_c, 0, 50, 87
2, 256593, Control_c, 0, 64, 0
2, 256665, Note_on_c, 0, 50, 0
2, 256815, Note_on_c, 0, 61, 0
2, 256860, Note_on_c, 0, 62, 80
2, 256865, Note_on_c, 0, 47, 90
2, 256904, Note_on_c, 0, 66, 0
2, 256929, Note_on_c, 0, 47, 0
2, 257155, Note_on_c, 0, 52, 92
2, 257156, Note_on_c, 0, 68, 95
2, 257157, Note_on_c, 0, 59, 95
2, 257187, Note_on_c, 0, 62, 0
2, 257223, Note_on_c, 0, 52, 0
2, 257441, Note_on_c, 0, 64, 87
2, 257445, Note_on_c, 0, 40, 90
2, 257454, Note_on_c, 0, 59, 0
2, 257492, Note_on_c, 0, 68, 0
2, 257502, Note_on_c, 0, 40, 0
2, 257749, Note_on_c, 0, 45, 93
2, 257759, Note_on_c, 0, 69, 93
2, 257767, Note_on_c, 0, 61, 90
2, 257805, Note_on_c, 0, 64, 0
2, 257811, Note_on_c, 0, 45, 0
2, 257821, Control_c, 0, 64, 58
2, 257841, Control_c, 0, 64, 64
2, 257859, Control_c, 0, 64, 66
2, 257879, Control_c, 0, 64, 67
2, 257898, Control_c, 0, 64, 68
2, 257918, Control_c, 0, 64, 70
2, 257936, Control_c, 0, 64, 69
2, 257956, Control_c, 0, 64, 64
2, 257975, Control_c, 0, 64, 50
2, 257995, Control_c, 0, 64, 0
2, 258010, Note_on_c, 0, 61, 0
2, 258045, Note_on_c, 0, 69, 0
2, 258069, Note_on_c, 0, 57, 94
2, 258145, Note_on_c, 0, 57, 0
2, 258416, Note_on_c, 0, 56, 92
2, 258863, Note_on_c, 0, 54, 72
2, 258911, Note_on_c, 0, 56, 0
2, 258972, Note_on_c, 0, 53, 81
2, 258992, Note_on_c, 0, 54, 0
2, 259060, Note_on_c, 0, 53, 0
2, 259260, Note_on_c, 0, 61, 92
2, 259272, Note_on_c, 0, 49, 83
2, 259324, Note_on_c, 0, 49, 0
2, 259328, Note_on_c, 0, 61, 0
2, 259599, Note_on_c, 0, 59, 97
2, 259600, Note_on_c, 0, 54, 82
2, 259877, Control_c, 0, 64, 11
2, 259896, Control_c, 0, 64, 18
2, 259915, Control_c, 0, 64, 21
2, 259934, Control_c, 0, 64, 24
2, 259954, Control_c, 0, 64, 28
2, 259973, Control_c, 0, 64, 30
2, 259992, Control_c, 0, 64, 31
2, 260063, Note_on_c, 0, 57, 71
2, 260065, Note_on_c, 0, 59, 0
2, 260107, Control_c, 0, 64, 30
2, 260165, Control_c, 0, 64, 29
2, 260165, Note_on_c, 0, 56, 77
2, 260170, Note_on_c, 0, 57, 0
2, 260184, Control_c, 0, 64, 27
2, 260395, Control_c, 0, 64, 28
2, 260414, Control_c, 0, 64, 29
2, 260422, Note_on_c, 0, 54, 0
2, 260438, Note_on_c, 0, 56, 0
2, 260450, Note_on_c, 0, 74, 85
2, 260453, Control_c, 0, 64, 29
2, 260472, Control_c, 0, 64, 30
2, 260491, Control_c, 0, 64, 31
2, 260526, Note_on_c, 0, 74, 0
2, 260587, Control_c, 0, 64, 31
2, 260606, Control_c, 0, 64, 32
2, 260740, Control_c, 0, 64, 32
2, 260760, Control_c, 0, 64, 33
2, 260761, Note_on_c, 0, 73, 90
2, 260762, Note_on_c, 0, 53, 80
2, 260894, Control_c, 0, 64, 34
2, 260990, Control_c, 0, 64, 34
2, 261003, Note_on_c, 0, 53, 0
2, 261010, Control_c, 0, 64, 35
2, 261020, Note_on_c, 0, 61, 82
2, 261021, Note_on_c, 0, 52, 70
2, 261048, Control_c, 0, 64, 35
2, 261105, Control_c, 0, 64, 34
2, 261139, Note_on_c, 0, 71, 76
2, 261190, Note_on_c, 0, 73, 0
2, 261202, Control_c, 0, 64, 35
2, 261240, Control_c, 0, 64, 36
2, 261242, Note_on_c, 0, 71, 0
2, 261259, Control_c, 0, 64, 37
2, 261268, Note_on_c, 0, 61, 0
2, 261279, Control_c, 0, 64, 38
2, 261280, Note_on_c, 0, 54, 83
2, 261281, Note_on_c, 0, 70, 94
2, 261304, Note_on_c, 0, 52, 0
2, 261317, Control_c, 0, 64, 37
2, 261329, Note_on_c, 0, 54, 0
2, 261336, Control_c, 0, 64, 37
2, 261339, Note_on_c, 0, 70, 0
2, 261356, Control_c, 0, 64, 36
2, 261453, Control_c, 0, 64, 36
2, 261580, Note_on_c, 0, 50, 78
2, 261583, Note_on_c, 0, 66, 93
2, 261633, Note_on_c, 0, 66, 0
2, 261637, Note_on_c, 0, 50, 0
2, 261702, Control_c, 0, 64, 36
2, 261741, Control_c, 0, 64, 37
2, 261760, Control_c, 0, 64, 38
2, 261779, Control_c, 0, 64, 39
2, 261799, Control_c, 0, 64, 39
2, 261837, Control_c, 0, 64, 40
2, 261881, Note_on_c, 0, 64, 96
2, 261881, Note_on_c, 0, 71, 92
2, 261883, Note_on_c, 0, 49, 79
2, 261933, Control_c, 0, 64, 39
2, 261939, Note_on_c, 0, 49, 0
2, 261971, Control_c, 0, 64, 39
2, 262172, Note_on_c, 0, 47, 68
2, 262202, Control_c, 0, 64, 38
2, 262237, Note_on_c, 0, 47, 0
2, 262240, Control_c, 0, 64, 38
2, 262259, Control_c, 0, 64, 37
2, 262270, Note_on_c, 0, 64, 0
2, 262296, Note_on_c, 0, 62, 75
2, 262298, Control_c, 0, 64, 37
2, 262392, Control_c, 0, 64, 36
2, 262411, Control_c, 0, 64, 36
2, 262417, Note_on_c, 0, 52, 76
2, 262424, Note_on_c, 0, 61, 87
2, 262449, Note_on_c, 0, 62, 0
2, 262459, Note_on_c, 0, 52, 0
2, 262490, Note_on_c, 0, 61, 0
2, 262680, Control_c, 0, 64, 37
2, 262688, Note_on_c, 0, 67, 83
2, 262691, Note_on_c, 0, 49, 83
2, 262699, Control_c, 0, 64, 38
2, 262721, Note_on_c, 0, 71, 0
2, 262737, Control_c, 0, 64, 38
2, 262739, Note_on_c, 0, 49, 0
2, 262744, Note_on_c, 0, 67, 0
2, 262776, Control_c, 0, 64, 39
2, 262872, Control_c, 0, 64, 39
2, 262891, Control_c, 0, 64, 40
2, 262910, Control_c, 0, 64, 41
2, 262930, Control_c, 0, 64, 42
2, 262948, Control_c, 0, 64, 43
2, 262968, Control_c, 0, 64, 44
2, 262971, Note_on_c, 0, 70, 94
2, 262973, Note_on_c, 0, 54, 82
2, 262984, Note_on_c, 0, 66, 81
2, 263041, Note_on_c, 0, 54, 0
2, 263179, Control_c, 0, 64, 44
2, 263239, Note_on_c, 0, 42, 73
2, 263241, Note_on_c, 0, 69, 80
2, 263256, Control_c, 0, 64, 44
2, 263278, Note_on_c, 0, 70, 0
2, 263286, Note_on_c, 0, 66, 0
2, 263298, Note_on_c, 0, 42, 0
2, 263385, Note_on_c, 0, 64, 77
2, 263443, Note_on_c, 0, 69, 0
2, 263450, Note_on_c, 0, 64, 0
2, 263486, Control_c, 0, 64, 43
2, 263510, Note_on_c, 0, 63, 82
2, 263512, Note_on_c, 0, 47, 91
2, 263544, Control_c, 0, 64, 43
2, 263563, Control_c, 0, 64, 42
2, 263580, Note_on_c, 0, 63, 0
2, 263582, Control_c, 0, 64, 42
2, 263679, Control_c, 0, 64, 43
2, 263755, Control_c, 0, 64, 43
2, 263774, Control_c, 0, 64, 44
2, 263781, Note_on_c, 0, 71, 82
2, 263783, Note_on_c, 0, 59, 79
2, 263794, Control_c, 0, 64, 44
2, 263819, Note_on_c, 0, 59, 0
2, 263832, Control_c, 0, 64, 44
2, 263845, Note_on_c, 0, 71, 0
2, 264005, Control_c, 0, 64, 44
2, 264043, Control_c, 0, 64, 45
2, 264082, Control_c, 0, 64, 44
2, 264099, Note_on_c, 0, 69, 96
2, 264100, Control_c, 0, 64, 44
2, 264100, Note_on_c, 0, 64, 93
2, 264162, Note_on_c, 0, 47, 0
2, 264197, Control_c, 0, 64, 43
2, 264216, Control_c, 0, 64, 43
2, 264312, Control_c, 0, 64, 43
2, 264355, Note_on_c, 0, 49, 87
2, 264413, Note_on_c, 0, 49, 0
2, 264446, Control_c, 0, 64, 43
2, 264484, Note_on_c, 0, 64, 0
2, 264484, Note_on_c, 0, 68, 80
2, 264485, Control_c, 0, 64, 42
2, 264504, Control_c, 0, 64, 42
2, 264565, Note_on_c, 0, 69, 0
2, 264616, Note_on_c, 0, 66, 84
2, 264619, Control_c, 0, 64, 41
2, 264636, Note_on_c, 0, 45, 84
2, 264646, Note_on_c, 0, 68, 0
2, 264669, Note_on_c, 0, 45, 0
2, 264677, Control_c, 0, 64, 41
2, 264696, Control_c, 0, 64, 40
2, 264715, Control_c, 0, 64, 40
2, 264792, Control_c, 0, 64, 40
2, 264811, Control_c, 0, 64, 41
2, 264830, Control_c, 0, 64, 42
2, 264850, Control_c, 0, 64, 43
2, 264868, Control_c, 0, 64, 44
2, 264907, Control_c, 0, 64, 45
2, 264910, Note_on_c, 0, 61, 88
2, 264965, Note_on_c, 0, 61, 0
2, 265003, Control_c, 0, 64, 45
2, 265022, Control_c, 0, 64, 46
2, 265080, Control_c, 0, 64, 45
2, 265099, Control_c, 0, 64, 45
2, 265190, Note_on_c, 0, 59, 86
2, 265195, Note_on_c, 0, 63, 83
2, 265215, Control_c, 0, 64, 44
2, 265388, Control_c, 0, 64, 45
2, 265407, Control_c, 0, 64, 45
2, 265464, Control_c, 0, 64, 45
2, 265481, Note_on_c, 0, 62, 78
2, 265484, Control_c, 0, 64, 44
2, 265514, Note_on_c, 0, 63, 0
2, 265523, Control_c, 0, 64, 45
2, 265541, Control_c, 0, 64, 44
2, 265566, Note_on_c, 0, 62, 0
2, 265608, Note_on_c, 0, 57, 79
2, 265610, Note_on_c, 0, 59, 0
2, 265638, Control_c, 0, 64, 44
2, 265657, Control_c, 0, 64, 43
2, 265676, Control_c, 0, 64, 43
2, 265734, Control_c, 0, 64, 43
2, 265737, Note_on_c, 0, 64, 84
2, 265745, Note_on_c, 0, 56, 84
2, 265753, Control_c, 0, 64, 44
2, 265762, Note_on_c, 0, 57, 0
2, 265798, Note_on_c, 0, 66, 0
2, 265801, Note_on_c, 0, 56, 0
2, 265829, Control_c, 0, 64, 43
2, 265868, Control_c, 0, 64, 43
2, 266019, Note_on_c, 0, 52, 83
2, 266024, Note_on_c, 0, 61, 81
2, 266029, Note_on_c, 0, 64, 0
2, 266041, Control_c, 0, 64, 42
2, 266051, Note_on_c, 0, 52, 0
2, 266090, Note_on_c, 0, 61, 0
2, 266137, Control_c, 0, 64, 41
2, 266145, Note_on_c, 0, 59, 88
2, 266173, Control_c, 0, 64, 40
2, 266205, Note_on_c, 0, 59, 0
2, 266269, Control_c, 0, 64, 40
2, 266289, Control_c, 0, 64, 39
2, 266289, Note_on_c, 0, 57, 92
2, 266296, Note_on_c, 0, 61, 92
2, 266307, Control_c, 0, 64, 37
2, 266327, Control_c, 0, 64, 36
2, 266348, Note_on_c, 0, 61, 0
2, 266481, Control_c, 0, 64, 37
2, 266499, Control_c, 0, 64, 38
2, 266519, Control_c, 0, 64, 39
2, 266538, Control_c, 0, 64, 40
2, 266567, Note_on_c, 0, 66, 85
2, 266572, Note_on_c, 0, 69, 82
2, 266596, Control_c, 0, 64, 39
2, 266614, Note_on_c, 0, 69, 0
2, 266615, Note_on_c, 0, 66, 0
2, 266673, Control_c, 0, 64, 39
2, 266769, Control_c, 0, 64, 39
2, 266787, Control_c, 0, 64, 40
2, 266807, Control_c, 0, 64, 40
2, 266826, Control_c, 0, 64, 41
2, 266863, Note_on_c, 0, 71, 94
2, 266864, Control_c, 0, 64, 41
2, 266868, Note_on_c, 0, 62, 93
2, 266884, Control_c, 0, 64, 42
2, 266903, Control_c, 0, 64, 42
2, 266941, Control_c, 0, 64, 42
2, 266942, Note_on_c, 0, 62, 0
2, 267038, Control_c, 0, 64, 41
2, 267056, Control_c, 0, 64, 41
2, 267115, Control_c, 0, 64, 40
2, 267132, Control_c, 0, 64, 39
2, 267139, Note_on_c, 0, 59, 89
2, 267151, Control_c, 0, 64, 39
2, 267171, Control_c, 0, 64, 38
2, 267194, Note_on_c, 0, 59, 0
2, 267212, Note_on_c, 0, 57, 0
2, 267248, Control_c, 0, 64, 37
2, 267266, Control_c, 0, 64, 36
2, 267305, Control_c, 0, 64, 36
2, 267363, Control_c, 0, 64, 35
2, 267382, Control_c, 0, 64, 35
2, 267397, Note_on_c, 0, 56, 72
2, 267397, Note_on_c, 0, 64, 89
2, 267420, Control_c, 0, 64, 34
2, 267445, Note_on_c, 0, 71, 0
2, 267458, Note_on_c, 0, 56, 0
2, 267674, Note_on_c, 0, 52, 57
2, 267680, Note_on_c, 0, 68, 89
2, 267728, Control_c, 0, 64, 35
2, 267728, Note_on_c, 0, 52, 0
2, 267746, Control_c, 0, 64, 35
2, 267758, Note_on_c, 0, 68, 0
2, 267766, Control_c, 0, 64, 36
2, 267805, Control_c, 0, 64, 36
2, 267862, Control_c, 0, 64, 37
2, 267967, Note_on_c, 0, 73, 94
2, 267970, Note_on_c, 0, 57, 58
2, 267977, Control_c, 0, 64, 37
2, 267987, Note_on_c, 0, 64, 0
2, 267997, Control_c, 0, 64, 38
2, 268015, Control_c, 0, 64, 38
2, 268246, Control_c, 0, 64, 38
2, 268251, Note_on_c, 0, 61, 85
2, 268265, Control_c, 0, 64, 37
2, 268301, Note_on_c, 0, 61, 0
2, 268529, Note_on_c, 0, 66, 90
2, 268554, Control_c, 0, 64, 38
2, 268572, Control_c, 0, 64, 38
2, 268589, Note_on_c, 0, 73, 0
2, 268611, Control_c, 0, 64, 39
2, 268785, Note_on_c, 0, 57, 0
2, 268796, Note_on_c, 0, 54, 80
2, 268796, Note_on_c, 0, 69, 78
2, 268839, Note_on_c, 0, 54, 0
2, 268871, Note_on_c, 0, 69, 0
2, 269080, Note_on_c, 0, 59, 97
2, 269085, Note_on_c, 0, 74, 88
2, 269120, Note_on_c, 0, 66, 0
2, 269129, Control_c, 0, 64, 38
2, 269148, Control_c, 0, 64, 38
2, 269263, Control_c, 0, 64, 37
2, 269283, Control_c, 0, 64, 38
2, 269321, Control_c, 0, 64, 38
2, 269345, Note_on_c, 0, 69, 82
2, 269398, Control_c, 0, 64, 39
2, 269410, Note_on_c, 0, 69, 0
2, 269645, Note_on_c, 0, 68, 90
2, 269785, Note_on_c, 0, 59, 0
2, 269803, Control_c, 0, 64, 39
2, 269880, Control_c, 0, 64, 40
2, 269900, Control_c, 0, 64, 40
2, 269914, Note_on_c, 0, 56, 93
2, 269980, Note_on_c, 0, 56, 0
2, 270024, Note_on_c, 0, 68, 0
2, 270043, Note_on_c, 0, 66, 83
2, 270111, Control_c, 0, 64, 41
2, 270135, Note_on_c, 0, 66, 0
2, 270163, Note_on_c, 0, 74, 0
2, 270180, Note_on_c, 0, 61, 94
2, 270184, Note_on_c, 0, 64, 86
2, 270254, Note_on_c, 0, 64, 0
2, 270360, Control_c, 0, 64, 41
2, 270380, Control_c, 0, 64, 42
2, 270464, Note_on_c, 0, 71, 85
2, 270470, Note_on_c, 0, 74, 83
2, 270525, Note_on_c, 0, 71, 0
2, 270537, Note_on_c, 0, 74, 0
2, 270572, Control_c, 0, 64, 41
2, 270743, Note_on_c, 0, 73, 89
2, 270747, Note_on_c, 0, 69, 92
2, 271007, Note_on_c, 0, 69, 0
2, 271029, Note_on_c, 0, 68, 84
2, 271032, Control_c, 0, 64, 41
2, 271086, Note_on_c, 0, 73, 0
2, 271151, Note_on_c, 0, 71, 87
2, 271168, Note_on_c, 0, 68, 0
2, 271278, Note_on_c, 0, 61, 0
2, 271287, Note_on_c, 0, 69, 87
2, 271290, Note_on_c, 0, 71, 0
2, 271300, Note_on_c, 0, 66, 83
2, 271426, Note_on_c, 0, 69, 0
2, 271560, Note_on_c, 0, 61, 75
2, 271560, Note_on_c, 0, 64, 76
2, 271599, Note_on_c, 0, 61, 0
2, 271605, Note_on_c, 0, 64, 0
2, 271800, Control_c, 0, 64, 40
2, 271820, Control_c, 0, 64, 40
2, 271839, Control_c, 0, 64, 39
2, 271852, Note_on_c, 0, 62, 77
2, 271852, Note_on_c, 0, 78, 95
2, 271861, Note_on_c, 0, 59, 74
2, 271911, Note_on_c, 0, 66, 0
2, 272088, Control_c, 0, 64, 38
2, 272114, Note_on_c, 0, 61, 75
2, 272127, Note_on_c, 0, 62, 0
2, 272149, Note_on_c, 0, 59, 0
2, 272202, Control_c, 0, 64, 38
2, 272233, Note_on_c, 0, 57, 72
2, 272316, Note_on_c, 0, 61, 0
2, 272356, Control_c, 0, 64, 37
2, 272370, Note_on_c, 0, 56, 77
2, 272374, Note_on_c, 0, 59, 81
2, 272395, Control_c, 0, 64, 37
2, 272395, Note_on_c, 0, 57, 0
2, 272414, Control_c, 0, 64, 36
2, 272433, Control_c, 0, 64, 34
2, 272474, Note_on_c, 0, 78, 0
2, 272568, Control_c, 0, 64, 34
2, 272625, Control_c, 0, 64, 33
2, 272645, Control_c, 0, 64, 32
2, 272664, Note_on_c, 0, 76, 91
2, 272735, Note_on_c, 0, 76, 0
2, 272741, Control_c, 0, 64, 32
2, 272798, Control_c, 0, 64, 31
2, 272933, Control_c, 0, 64, 32
2, 272948, Note_on_c, 0, 59, 0
2, 272958, Note_on_c, 0, 66, 79
2, 272962, Note_on_c, 0, 58, 71
2, 272962, Note_on_c, 0, 74, 93
2, 272971, Control_c, 0, 64, 32
2, 273003, Note_on_c, 0, 56, 0
2, 273201, Control_c, 0, 64, 33
2, 273387, Note_on_c, 0, 73, 80
2, 273393, Note_on_c, 0, 74, 0
2, 273449, Note_on_c, 0, 66, 0
2, 273451, Control_c, 0, 64, 34
2, 273461, Note_on_c, 0, 73, 0
2, 273470, Control_c, 0, 64, 34
2, 273487, Note_on_c, 0, 59, 76
2, 273490, Control_c, 0, 64, 35
2, 273497, Note_on_c, 0, 74, 92
2, 273558, Note_on_c, 0, 74, 0
2, 273561, Note_on_c, 0, 58, 0
2, 273567, Control_c, 0, 64, 35
2, 273662, Control_c, 0, 64, 36
2, 273701, Control_c, 0, 64, 37
2, 273719, Control_c, 0, 64, 38
2, 273728, Note_on_c, 0, 59, 0
2, 273769, Note_on_c, 0, 62, 83
2, 273785, Note_on_c, 0, 71, 90
2, 273796, Control_c, 0, 64, 38
2, 273849, Note_on_c, 0, 71, 0
2, 273887, Note_on_c, 0, 62, 0
2, 273893, Control_c, 0, 64, 38
2, 274069, Note_on_c, 0, 61, 87
2, 274073, Note_on_c, 0, 76, 94
2, 274075, Note_on_c, 0, 55, 72
2, 274122, Control_c, 0, 64, 37
2, 274142, Control_c, 0, 64, 36
2, 274161, Control_c, 0, 64, 36
2, 274276, Control_c, 0, 64, 36
2, 274334, Control_c, 0, 64, 37
2, 274482, Note_on_c, 0, 55, 0
2, 274487, Note_on_c, 0, 59, 78
2, 274519, Note_on_c, 0, 61, 0
2, 274622, Control_c, 0, 64, 37
2, 274624, Note_on_c, 0, 58, 74
2, 274628, Note_on_c, 0, 59, 0
2, 274637, Note_on_c, 0, 54, 70
2, 274641, Control_c, 0, 64, 38
2, 274661, Control_c, 0, 64, 38
2, 274692, Note_on_c, 0, 58, 0
2, 274699, Control_c, 0, 64, 39
2, 274703, Note_on_c, 0, 54, 0
2, 274899, Note_on_c, 0, 78, 88
2, 274903, Note_on_c, 0, 54, 75
2, 274950, Note_on_c, 0, 76, 0
2, 274953, Note_on_c, 0, 54, 0
2, 274976, Note_on_c, 0, 78, 0
2, 275007, Control_c, 0, 64, 38
2, 275122, Control_c, 0, 64, 38
2, 275142, Control_c, 0, 64, 37
2, 275187, Note_on_c, 0, 59, 87
2, 275191, Note_on_c, 0, 74, 93
2, 275452, Note_on_c, 0, 55, 79
2, 275454, Note_on_c, 0, 71, 91
2, 275463, Note_on_c, 0, 74, 0
2, 275502, Note_on_c, 0, 55, 0
2, 275507, Note_on_c, 0, 71, 0
2, 275737, Control_c, 0, 64, 38
2, 275739, Note_on_c, 0, 73, 94
2, 275740, Note_on_c, 0, 52, 85
2, 275832, Control_c, 0, 64, 38
2, 275852, Control_c, 0, 64, 39
2, 275990, Note_on_c, 0, 52, 0
2, 275992, Note_on_c, 0, 49, 87
2, 276049, Note_on_c, 0, 49, 0
2, 276280, Note_on_c, 0, 58, 88
2, 276282, Note_on_c, 0, 54, 81
2, 276302, Note_on_c, 0, 59, 0
2, 276319, Note_on_c, 0, 73, 0
2, 276568, Note_on_c, 0, 66, 89
2, 276568, Note_on_c, 0, 70, 89
2, 276625, Note_on_c, 0, 66, 0
2, 276629, Note_on_c, 0, 70, 0
2, 276677, Control_c, 0, 64, 38
2, 276697, Control_c, 0, 64, 38
2, 276824, Note_on_c, 0, 58, 0
2, 276831, Control_c, 0, 64, 39
2, 276835, Note_on_c, 0, 62, 91
2, 276835, Note_on_c, 0, 71, 93
2, 276851, Control_c, 0, 64, 40
2, 276927, Control_c, 0, 64, 39
2, 276991, Note_on_c, 0, 71, 0
2, 277091, Note_on_c, 0, 74, 77
2, 277100, Control_c, 0, 64, 40
2, 277101, Note_on_c, 0, 59, 87
2, 277108, Note_on_c, 0, 62, 0
2, 277138, Control_c, 0, 64, 40
2, 277167, Note_on_c, 0, 74, 0
2, 277177, Control_c, 0, 64, 41
2, 277190, Note_on_c, 0, 59, 0
2, 277215, Control_c, 0, 64, 41
2, 277230, Note_on_c, 0, 54, 0
2, 277380, Note_on_c, 0, 67, 86
2, 277385, Note_on_c, 0, 73, 90
2, 277391, Note_on_c, 0, 52, 85
2, 277465, Control_c, 0, 64, 41
2, 277466, Note_on_c, 0, 52, 0
2, 277503, Control_c, 0, 64, 40
2, 277542, Control_c, 0, 64, 40
2, 277560, Control_c, 0, 64, 41
2, 277669, Note_on_c, 0, 50, 78
2, 277714, Control_c, 0, 64, 40
2, 277755, Note_on_c, 0, 50, 0
2, 277791, Control_c, 0, 64, 41
2, 277807, Note_on_c, 0, 71, 76
2, 277825, Note_on_c, 0, 67, 0
2, 277878, Note_on_c, 0, 73, 0
2, 277921, Note_on_c, 0, 69, 87
2, 277924, Note_on_c, 0, 49, 75
2, 277945, Control_c, 0, 64, 41
2, 277946, Note_on_c, 0, 71, 0
2, 277963, Control_c, 0, 64, 42
2, 277983, Control_c, 0, 64, 42
2, 277993, Note_on_c, 0, 49, 0
2, 278002, Control_c, 0, 64, 43
2, 278022, Control_c, 0, 64, 43
2, 278079, Control_c, 0, 64, 43
2, 278137, Control_c, 0, 64, 42
2, 278156, Control_c, 0, 64, 42
2, 278191, Note_on_c, 0, 45, 66
2, 278194, Control_c, 0, 64, 41
2, 278194, Note_on_c, 0, 66, 87
2, 278232, Control_c, 0, 64, 40
2, 278239, Note_on_c, 0, 45, 0
2, 278287, Note_on_c, 0, 66, 0
2, 278322, Note_on_c, 0, 64, 90
2, 278394, Note_on_c, 0, 64, 0
2, 278471, Note_on_c, 0, 50, 87
2, 278473, Note_on_c, 0, 66, 91
2, 278493, Note_on_c, 0, 69, 0
2, 278543, Note_on_c, 0, 50, 0
2, 278559, Control_c, 0, 64, 41
2, 278617, Control_c, 0, 64, 41
2, 278652, Control_c, 0, 64, 42
2, 278727, Note_on_c, 0, 49, 88
2, 278729, Note_on_c, 0, 74, 79
2, 278747, Control_c, 0, 64, 42
2, 278767, Control_c, 0, 64, 43
2, 278791, Note_on_c, 0, 49, 0
2, 278815, Note_on_c, 0, 74, 0
2, 278881, Control_c, 0, 64, 42
2, 278920, Control_c, 0, 64, 42
2, 278958, Control_c, 0, 64, 41
2, 278993, Note_on_c, 0, 47, 89
2, 278999, Note_on_c, 0, 67, 83
2, 279016, Control_c, 0, 64, 41
2, 279055, Control_c, 0, 64, 40
2, 279059, Note_on_c, 0, 47, 0
2, 279078, Note_on_c, 0, 66, 0
2, 279112, Control_c, 0, 64, 41
2, 279290, Note_on_c, 0, 50, 94
2, 279290, Note_on_c, 0, 71, 88
2, 279352, Note_on_c, 0, 50, 0
2, 279431, Note_on_c, 0, 71, 0
2, 279496, Control_c, 0, 64, 42
2, 279515, Control_c, 0, 64, 42
2, 279551, Note_on_c, 0, 49, 95
2, 279553, Control_c, 0, 64, 43
2, 279558, Note_on_c, 0, 64, 91
2, 279637, Note_on_c, 0, 67, 0
2, 279655, Control_c, 0, 64, 42
2, 279693, Control_c, 0, 64, 43
2, 279847, Control_c, 0, 64, 42
2, 279853, Note_on_c, 0, 73, 81
2, 279923, Control_c, 0, 64, 43
2, 279936, Note_on_c, 0, 73, 0
2, 279956, Note_on_c, 0, 47, 78
2, 279959, Note_on_c, 0, 49, 0
2, 279981, Control_c, 0, 64, 42
2, 280000, Control_c, 0, 64, 42
2, 280075, Note_on_c, 0, 47, 0
2, 280082, Note_on_c, 0, 46, 82
2, 280093, Note_on_c, 0, 66, 86
2, 280113, Note_on_c, 0, 64, 0
2, 280158, Note_on_c, 0, 46, 0
2, 280362, Note_on_c, 0, 62, 81
2, 280369, Note_on_c, 0, 42, 80
2, 280413, Note_on_c, 0, 42, 0
2, 280434, Note_on_c, 0, 62, 0
2, 280477, Note_on_c, 0, 61, 85
2, 280480, Control_c, 0, 64, 41
2, 280518, Control_c, 0, 64, 41
2, 280550, Note_on_c, 0, 61, 0
2, 280594, Control_c, 0, 64, 40
2, 280614, Control_c, 0, 64, 39
2, 280632, Control_c, 0, 64, 39
2, 280635, Note_on_c, 0, 47, 91
2, 280644, Note_on_c, 0, 62, 86
2, 280724, Note_on_c, 0, 62, 0
2, 280922, Note_on_c, 0, 59, 85
2, 280983, Note_on_c, 0, 59, 0
2, 281191, Note_on_c, 0, 61, 88
2, 281234, Note_on_c, 0, 66, 0
2, 281325, Note_on_c, 0, 47, 0
2, 281452, Note_on_c, 0, 45, 78
2, 281482, Note_on_c, 0, 65, 76
2, 281502, Note_on_c, 0, 45, 0
2, 281516, Control_c, 0, 64, 39
2, 281535, Control_c, 0, 64, 40
2, 281576, Note_on_c, 0, 65, 0
2, 281578, Note_on_c, 0, 44, 76
2, 281621, Note_on_c, 0, 44, 0
2, 281730, Note_on_c, 0, 45, 75
2, 281744, Note_on_c, 0, 66, 83
2, 281765, Control_c, 0, 64, 39
2, 281785, Control_c, 0, 64, 39
2, 282015, Control_c, 0, 64, 38
2, 282018, Note_on_c, 0, 69, 83
2, 282029, Note_on_c, 0, 66, 0
2, 282034, Control_c, 0, 64, 38
2, 282052, Note_on_c, 0, 61, 0
2, 282072, Control_c, 0, 64, 37
2, 282075, Note_on_c, 0, 69, 0
2, 282111, Control_c, 0, 64, 37
2, 282149, Control_c, 0, 64, 36
2, 282188, Control_c, 0, 64, 36
2, 282284, Note_on_c, 0, 63, 83
2, 282298, Note_on_c, 0, 59, 77
2, 282342, Control_c, 0, 64, 35
2, 282476, Note_on_c, 0, 45, 0
2, 282540, Note_on_c, 0, 44, 78
2, 282557, Note_on_c, 0, 66, 77
2, 282589, Note_on_c, 0, 44, 0
2, 282599, Note_on_c, 0, 63, 0
2, 282616, Note_on_c, 0, 66, 0
2, 282663, Note_on_c, 0, 42, 80
2, 282685, Control_c, 0, 64, 36
2, 282715, Note_on_c, 0, 42, 0
2, 282822, Note_on_c, 0, 71, 94
2, 282824, Note_on_c, 0, 44, 79
2, 282863, Note_on_c, 0, 59, 0
2, 282888, Note_on_c, 0, 44, 0
2, 282992, Control_c, 0, 64, 35
2, 283076, Note_on_c, 0, 68, 71
2, 283089, Note_on_c, 0, 40, 64
2, 283123, Note_on_c, 0, 68, 0
2, 283146, Control_c, 0, 64, 36
2, 283149, Note_on_c, 0, 40, 0
2, 283203, Control_c, 0, 64, 36
2, 283223, Control_c, 0, 64, 37
2, 283241, Control_c, 0, 64, 38
2, 283357, Control_c, 0, 64, 37
2, 283377, Control_c, 0, 64, 36
2, 283378, Note_on_c, 0, 64, 68
2, 283381, Note_on_c, 0, 49, 60
2, 283395, Control_c, 0, 64, 35
2, 283415, Control_c, 0, 64, 31
2, 283434, Control_c, 0, 64, 27
2, 283447, Note_on_c, 0, 49, 0
2, 283453, Control_c, 0, 64, 24
2, 283472, Control_c, 0, 64, 22
2, 283511, Control_c, 0, 64, 19
2, 283514, Note_on_c, 0, 71, 0
2, 283530, Control_c, 0, 64, 0
2, 283645, Control_c, 0, 67, 9
2, 283659, Note_on_c, 0, 69, 73
2, 283663, Note_on_c, 0, 37, 56
2, 283664, Control_c, 0, 67, 22
2, 283683, Control_c, 0, 67, 42
2, 283703, Control_c, 0, 67, 70
2, 283703, Note_on_c, 0, 69, 0
2, 283716, Note_on_c, 0, 37, 0
2, 283721, Control_c, 0, 67, 111
2, 283741, Control_c, 0, 67, 127
2, 283788, Note_on_c, 0, 68, 81
2, 283859, Note_on_c, 0, 68, 0
2, 283930, Note_on_c, 0, 69, 83
2, 283938, Note_on_c, 0, 49, 64
2, 283995, Note_on_c, 0, 69, 0
2, 284202, Note_on_c, 0, 73, 73
2, 284250, Note_on_c, 0, 64, 0
2, 284277, Note_on_c, 0, 73, 0
2, 284473, Note_on_c, 0, 66, 77
2, 284480, Note_on_c, 0, 62, 62
2, 284653, Note_on_c, 0, 49, 0
2, 284730, Note_on_c, 0, 47, 75
2, 284756, Note_on_c, 0, 69, 75
2, 284788, Note_on_c, 0, 47, 0
2, 284792, Note_on_c, 0, 66, 0
2, 284827, Note_on_c, 0, 69, 0
2, 284857, Note_on_c, 0, 45, 71
2, 284917, Note_on_c, 0, 45, 0
2, 285012, Note_on_c, 0, 47, 70
2, 285012, Note_on_c, 0, 74, 88
2, 285061, Note_on_c, 0, 62, 0
2, 285066, Note_on_c, 0, 47, 0
2, 285272, Note_on_c, 0, 71, 69
2, 285273, Note_on_c, 0, 44, 67
2, 285354, Note_on_c, 0, 44, 0
2, 285427, Note_on_c, 0, 71, 0
2, 285469, Control_c, 0, 67, 121
2, 285489, Control_c, 0, 67, 110
2, 285507, Control_c, 0, 67, 99
2, 285526, Control_c, 0, 67, 85
2, 285546, Control_c, 0, 67, 71
2, 285546, Note_on_c, 0, 68, 77
2, 285552, Note_on_c, 0, 41, 73
2, 285565, Control_c, 0, 67, 56
2, 285584, Control_c, 0, 67, 39
2, 285588, Note_on_c, 0, 41, 0
2, 285596, Note_on_c, 0, 74, 0
2, 285603, Control_c, 0, 67, 19
2, 285623, Control_c, 0, 67, 0
2, 285813, Note_on_c, 0, 74, 83
2, 285819, Note_on_c, 0, 65, 75
2, 285822, Note_on_c, 0, 56, 75
2, 285836, Note_on_c, 0, 68, 0
2, 285853, Control_c, 0, 64, 15
2, 285872, Control_c, 0, 64, 23
2, 285876, Note_on_c, 0, 56, 0
2, 285892, Control_c, 0, 64, 25
2, 285897, Note_on_c, 0, 74, 0
2, 285911, Control_c, 0, 64, 26
2, 285969, Control_c, 0, 64, 27
2, 285987, Control_c, 0, 64, 27
2, 286006, Control_c, 0, 64, 28
2, 286080, Note_on_c, 0, 73, 88
2, 286081, Note_on_c, 0, 53, 79
2, 286083, Control_c, 0, 64, 29
2, 286103, Control_c, 0, 64, 29
2, 286146, Note_on_c, 0, 65, 0
2, 286160, Control_c, 0, 64, 30
2, 286180, Control_c, 0, 64, 31
2, 286257, Control_c, 0, 64, 32
2, 286348, Note_on_c, 0, 49, 69
2, 286348, Note_on_c, 0, 68, 85
2, 286378, Note_on_c, 0, 53, 0
2, 286409, Note_on_c, 0, 49, 0
2, 286431, Note_on_c, 0, 73, 0
2, 286484, Note_on_c, 0, 71, 84
2, 286504, Note_on_c, 0, 68, 0
2, 286525, Control_c, 0, 64, 32
2, 286610, Note_on_c, 0, 69, 89
2, 286627, Note_on_c, 0, 54, 79
2, 286637, Note_on_c, 0, 71, 0
2, 286660, Control_c, 0, 64, 33
2, 286678, Control_c, 0, 64, 34
2, 286700, Note_on_c, 0, 54, 0
2, 286794, Control_c, 0, 64, 34
2, 286832, Control_c, 0, 64, 35
2, 286871, Note_on_c, 0, 66, 78
2, 286883, Note_on_c, 0, 56, 78
2, 286923, Note_on_c, 0, 56, 0
2, 286955, Note_on_c, 0, 66, 0
2, 286986, Control_c, 0, 64, 35
2, 286993, Note_on_c, 0, 65, 78
2, 287063, Note_on_c, 0, 65, 0
2, 287140, Control_c, 0, 64, 35
2, 287145, Note_on_c, 0, 66, 82
2, 287150, Note_on_c, 0, 57, 72
2, 287197, Control_c, 0, 64, 34
2, 287203, Note_on_c, 0, 57, 0
2, 287220, Note_on_c, 0, 66, 0
2, 287422, Note_on_c, 0, 63, 78
2, 287429, Note_on_c, 0, 54, 76
2, 287478, Note_on_c, 0, 54, 0
2, 287497, Note_on_c, 0, 63, 0
2, 287504, Control_c, 0, 64, 33
2, 287523, Control_c, 0, 64, 32
2, 287543, Control_c, 0, 64, 32
2, 287703, Note_on_c, 0, 56, 82
2, 287709, Note_on_c, 0, 60, 81
2, 287715, Control_c, 0, 64, 31
2, 287735, Control_c, 0, 64, 29
2, 287754, Control_c, 0, 64, 28
2, 287769, Note_on_c, 0, 69, 0
2, 287773, Control_c, 0, 64, 27
2, 287774, Note_on_c, 0, 56, 0
2, 287869, Control_c, 0, 64, 27
2, 287889, Control_c, 0, 64, 26
2, 287907, Control_c, 0, 64, 25
2, 287926, Control_c, 0, 64, 23
2, 287946, Control_c, 0, 64, 22
2, 287984, Control_c, 0, 64, 21
2, 287992, Note_on_c, 0, 68, 89
2, 288002, Note_on_c, 0, 44, 72
2, 288023, Control_c, 0, 64, 20
2, 288041, Control_c, 0, 64, 19
2, 288077, Note_on_c, 0, 68, 0
2, 288118, Control_c, 0, 64, 18
2, 288123, Note_on_c, 0, 66, 78
2, 288157, Control_c, 0, 64, 17
2, 288195, Control_c, 0, 64, 15
2, 288206, Note_on_c, 0, 66, 0
2, 288224, Note_on_c, 0, 60, 0
2, 288268, Note_on_c, 0, 44, 0
2, 288269, Note_on_c, 0, 68, 90
2, 288343, Note_on_c, 0, 68, 0
2, 288370, Control_c, 0, 64, 17
2, 288561, Note_on_c, 0, 56, 83
2, 288565, Note_on_c, 0, 63, 88
2, 288639, Note_on_c, 0, 56, 0
2, 288642, Note_on_c, 0, 64, 23
2, 288650, Note_on_c, 0, 63, 0
2, 288683, Note_on_c, 0, 64, 0
2, 288849, Note_on_c, 0, 61, 88
2, 288850, Note_on_c, 0, 52, 82
2, 288852, Note_on_c, 0, 64, 87
2, 289002, Control_c, 0, 64, 15
2, 289118, Control_c, 0, 64, 17
2, 289133, Note_on_c, 0, 61, 0
2, 289135, Note_on_c, 0, 49, 91
2, 289138, Note_on_c, 0, 76, 93
2, 289148, Note_on_c, 0, 52, 0
2, 289156, Control_c, 0, 64, 18
2, 289181, Note_on_c, 0, 64, 0
2, 289194, Control_c, 0, 64, 19
2, 289203, Note_on_c, 0, 49, 0
2, 289232, Note_on_c, 0, 76, 0
2, 289422, Control_c, 0, 64, 20
2, 289471, Note_on_c, 0, 57, 96
2, 289473, Note_on_c, 0, 75, 97
2, 289499, Control_c, 0, 64, 21
2, 289556, Control_c, 0, 64, 20
2, 289653, Control_c, 0, 64, 21
2, 289672, Control_c, 0, 64, 22
2, 289692, Control_c, 0, 64, 25
2, 289710, Control_c, 0, 64, 27
2, 289730, Control_c, 0, 64, 28
2, 289768, Control_c, 0, 64, 29
2, 289826, Control_c, 0, 64, 28
2, 289941, Control_c, 0, 64, 27
2, 289957, Note_on_c, 0, 73, 80
2, 289962, Note_on_c, 0, 75, 0
2, 290055, Note_on_c, 0, 73, 0
2, 290071, Note_on_c, 0, 72, 88
2, 290095, Control_c, 0, 64, 28
2, 290173, Control_c, 0, 64, 29
2, 290201, Note_on_c, 0, 72, 0
2, 290240, Note_on_c, 0, 57, 0
2, 290335, Note_on_c, 0, 56, 87
2, 290337, Note_on_c, 0, 75, 82
2, 290339, Note_on_c, 0, 78, 83
2, 290365, Control_c, 0, 64, 29
2, 290384, Control_c, 0, 64, 30
2, 290401, Note_on_c, 0, 56, 0
2, 290403, Control_c, 0, 64, 31
2, 290437, Note_on_c, 0, 75, 0
2, 290457, Note_on_c, 0, 78, 0
2, 290469, Note_on_c, 0, 54, 84
2, 290480, Control_c, 0, 64, 31
2, 290500, Control_c, 0, 64, 33
2, 290510, Note_on_c, 0, 54, 0
2, 290518, Control_c, 0, 64, 34
2, 290538, Control_c, 0, 64, 34
2, 290605, Note_on_c, 0, 56, 95
2, 290605, Note_on_c, 0, 76, 87
2, 290609, Note_on_c, 0, 73, 85
2, 290653, Control_c, 0, 64, 34
2, 290787, Note_on_c, 0, 73, 0
2, 290845, Control_c, 0, 64, 33
2, 290893, Note_on_c, 0, 75, 83
2, 290925, Note_on_c, 0, 76, 0
2, 290960, Control_c, 0, 64, 32
2, 291015, Note_on_c, 0, 75, 0
2, 291018, Control_c, 0, 64, 32
2, 291029, Note_on_c, 0, 72, 81
2, 291095, Note_on_c, 0, 72, 0
2, 291153, Control_c, 0, 64, 31
2, 291177, Note_on_c, 0, 76, 90
2, 291181, Note_on_c, 0, 73, 84
2, 291267, Note_on_c, 0, 73, 0
2, 291329, Note_on_c, 0, 56, 0
2, 291456, Note_on_c, 0, 71, 83
2, 291466, Note_on_c, 0, 61, 86
2, 291525, Note_on_c, 0, 71, 0
2, 291537, Note_on_c, 0, 61, 0
2, 291748, Note_on_c, 0, 54, 86
2, 291748, Note_on_c, 0, 69, 89
2, 291774, Note_on_c, 0, 76, 0
2, 291806, Control_c, 0, 64, 31
2, 291825, Control_c, 0, 64, 29
2, 291828, Note_on_c, 0, 69, 0
2, 291844, Control_c, 0, 64, 28
2, 292043, Note_on_c, 0, 75, 86
2, 292057, Note_on_c, 0, 66, 79
2, 292094, Control_c, 0, 64, 29
2, 292113, Control_c, 0, 64, 29
2, 292169, Note_on_c, 0, 73, 85
2, 292171, Control_c, 0, 64, 29
2, 292177, Note_on_c, 0, 75, 0
2, 292270, Note_on_c, 0, 73, 0
2, 292301, Note_on_c, 0, 54, 0
2, 292315, Note_on_c, 0, 80, 90
2, 292320, Note_on_c, 0, 60, 74
2, 292324, Control_c, 0, 64, 29
2, 292344, Control_c, 0, 64, 30
2, 292377, Note_on_c, 0, 80, 0
2, 292382, Control_c, 0, 64, 31
2, 292401, Note_on_c, 0, 66, 0
2, 292536, Control_c, 0, 64, 30
2, 292574, Control_c, 0, 64, 29
2, 292588, Note_on_c, 0, 72, 89
2, 292590, Note_on_c, 0, 52, 73
2, 292595, Note_on_c, 0, 63, 83
2, 292596, Note_on_c, 0, 60, 0
2, 292632, Control_c, 0, 64, 29
2, 292651, Control_c, 0, 64, 28
2, 292654, Note_on_c, 0, 63, 0
2, 292670, Control_c, 0, 64, 27
2, 292672, Note_on_c, 0, 72, 0
2, 292690, Control_c, 0, 64, 25
2, 292708, Control_c, 0, 64, 24
2, 292718, Note_on_c, 0, 51, 69
2, 292722, Note_on_c, 0, 52, 0
2, 292727, Control_c, 0, 64, 21
2, 292747, Control_c, 0, 64, 20
2, 292766, Control_c, 0, 64, 19
2, 292825, Note_on_c, 0, 51, 0
2, 292861, Note_on_c, 0, 56, 78
2, 292863, Note_on_c, 0, 52, 74
2, 292863, Note_on_c, 0, 73, 98
2, 292901, Control_c, 0, 64, 18
2, 292930, Note_on_c, 0, 56, 0
2, 292936, Note_on_c, 0, 52, 0
2, 292939, Control_c, 0, 64, 19
2, 293126, Note_on_c, 0, 68, 85
2, 293135, Note_on_c, 0, 49, 67
2, 293151, Control_c, 0, 64, 20
2, 293184, Note_on_c, 0, 49, 0
2, 293196, Note_on_c, 0, 68, 0
2, 293401, Note_on_c, 0, 51, 69
2, 293404, Note_on_c, 0, 66, 84
2, 293420, Control_c, 0, 64, 19
2, 293439, Control_c, 0, 64, 18
2, 293458, Control_c, 0, 64, 17
2, 293477, Control_c, 0, 64, 15
2, 293483, Note_on_c, 0, 66, 0
2, 293516, Control_c, 0, 67, 26
2, 293526, Note_on_c, 0, 68, 80
2, 293535, Control_c, 0, 67, 53
2, 293554, Control_c, 0, 67, 87
2, 293574, Control_c, 0, 67, 125
2, 293592, Control_c, 0, 67, 127
2, 293606, Note_on_c, 0, 68, 0
2, 293659, Note_on_c, 0, 66, 81
2, 293697, Note_on_c, 0, 51, 0
2, 293705, Note_on_c, 0, 73, 0
2, 293708, Control_c, 0, 64, 13
2, 293726, Control_c, 0, 64, 11
2, 293727, Note_on_c, 0, 66, 0
2, 293765, Control_c, 0, 64, 9
2, 293794, Note_on_c, 0, 64, 78
2, 293839, Note_on_c, 0, 64, 0
2, 293921, Note_on_c, 0, 72, 90
2, 293925, Note_on_c, 0, 56, 74
2, 293936, Note_on_c, 0, 66, 81
2, 293984, Note_on_c, 0, 66, 0
2, 294062, Note_on_c, 0, 64, 81
2, 294077, Note_on_c, 0, 56, 0
2, 294080, Note_on_c, 0, 72, 0
2, 294091, Control_c, 0, 64, 11
2, 294124, Note_on_c, 0, 64, 0
2, 294190, Note_on_c, 0, 63, 82
2, 294244, Control_c, 0, 64, 13
2, 294261, Note_on_c, 0, 63, 0
2, 294327, Note_on_c, 0, 66, 76
2, 294406, Note_on_c, 0, 66, 0
2, 294455, Note_on_c, 0, 73, 87
2, 294462, Note_on_c, 0, 64, 84
2, 294466, Note_on_c, 0, 49, 73
2, 294513, Note_on_c, 0, 64, 0
2, 294599, Note_on_c, 0, 66, 77
2, 294657, Note_on_c, 0, 49, 0
2, 294669, Note_on_c, 0, 66, 0
2, 294739, Note_on_c, 0, 64, 79
2, 294787, Note_on_c, 0, 64, 0
2, 294882, Note_on_c, 0, 63, 82
2, 294932, Note_on_c, 0, 63, 0
2, 294971, Note_on_c, 0, 73, 0
2, 295014, Note_on_c, 0, 64, 80
2, 295076, Note_on_c, 0, 64, 0
2, 295147, Control_c, 0, 64, 15
2, 295151, Note_on_c, 0, 63, 78
2, 295192, Note_on_c, 0, 63, 0
2, 295262, Control_c, 0, 64, 17
2, 295272, Note_on_c, 0, 61, 80
2, 295286, Note_on_c, 0, 73, 86
2, 295320, Note_on_c, 0, 61, 0
2, 295354, Note_on_c, 0, 71, 5
2, 295360, Note_on_c, 0, 73, 0
2, 295373, Note_on_c, 0, 71, 0
2, 295396, Control_c, 0, 64, 18
2, 295421, Note_on_c, 0, 64, 81
2, 295466, Note_on_c, 0, 64, 0
2, 295526, Note_on_c, 0, 71, 85
2, 295547, Note_on_c, 0, 63, 77
2, 295598, Note_on_c, 0, 63, 0
2, 295622, Note_on_c, 0, 71, 0
2, 295663, Note_on_c, 0, 73, 84
2, 295737, Note_on_c, 0, 73, 0
2, 295811, Note_on_c, 0, 71, 83
2, 295812, Note_on_c, 0, 68, 85
2, 295857, Control_c, 0, 64, 19
2, 295873, Note_on_c, 0, 68, 0
2, 295877, Note_on_c, 0, 71, 0
2, 295933, Note_on_c, 0, 69, 87
2, 295950, Control_c, 0, 64, 18
2, 296006, Note_on_c, 0, 69, 0
2, 296027, Control_c, 0, 67, 125
2, 296046, Control_c, 0, 67, 116
2, 296064, Note_on_c, 0, 61, 76
2, 296066, Control_c, 0, 67, 104
2, 296067, Note_on_c, 0, 71, 88
2, 296084, Control_c, 0, 67, 92
2, 296104, Control_c, 0, 67, 80
2, 296121, Note_on_c, 0, 61, 0
2, 296123, Control_c, 0, 64, 19
2, 296123, Control_c, 0, 67, 67
2, 296136, Note_on_c, 0, 71, 0
2, 296142, Control_c, 0, 67, 50
2, 296161, Control_c, 0, 67, 33
2, 296181, Control_c, 0, 67, 17
2, 296200, Control_c, 0, 67, 0
2, 296211, Note_on_c, 0, 69, 82
2, 296258, Control_c, 0, 64, 20
2, 296276, Control_c, 0, 64, 21
2, 296281, Note_on_c, 0, 69, 0
2, 296315, Control_c, 0, 64, 22
2, 296335, Control_c, 0, 64, 23
2, 296336, Note_on_c, 0, 65, 81
2, 296350, Note_on_c, 0, 68, 83
2, 296353, Control_c, 0, 64, 25
2, 296378, Note_on_c, 0, 65, 0
2, 296421, Note_on_c, 0, 68, 0
2, 296485, Note_on_c, 0, 71, 81
2, 296487, Control_c, 0, 64, 26
2, 296507, Control_c, 0, 64, 27
2, 296557, Note_on_c, 0, 71, 0
2, 296603, Control_c, 0, 64, 27
2, 296607, Note_on_c, 0, 66, 80
2, 296622, Note_on_c, 0, 69, 86
2, 296676, Note_on_c, 0, 66, 0
2, 296688, Note_on_c, 0, 69, 0
2, 296745, Note_on_c, 0, 71, 85
2, 296751, Note_on_c, 0, 62, 72
2, 296776, Control_c, 0, 64, 26
2, 296795, Control_c, 0, 64, 25
2, 296810, Note_on_c, 0, 71, 0
2, 296856, Note_on_c, 0, 62, 0
2, 296873, Note_on_c, 0, 61, 73
2, 296876, Note_on_c, 0, 69, 81
2, 296925, Note_on_c, 0, 61, 0
2, 296936, Note_on_c, 0, 69, 0
2, 297014, Note_on_c, 0, 59, 83
2, 297019, Note_on_c, 0, 68, 81
2, 297067, Note_on_c, 0, 59, 0
2, 297087, Note_on_c, 0, 68, 0
2, 297148, Note_on_c, 0, 61, 79
2, 297156, Note_on_c, 0, 69, 87
2, 297224, Note_on_c, 0, 69, 0
2, 297236, Note_on_c, 0, 61, 0
2, 297278, Note_on_c, 0, 68, 83
2, 297280, Note_on_c, 0, 57, 68
2, 297352, Note_on_c, 0, 68, 0
2, 297362, Note_on_c, 0, 57, 0
2, 297393, Control_c, 0, 64, 26
2, 297413, Control_c, 0, 64, 27
2, 297418, Note_on_c, 0, 62, 75
2, 297419, Note_on_c, 0, 54, 77
2, 297421, Note_on_c, 0, 66, 82
2, 297451, Control_c, 0, 64, 27
2, 297498, Note_on_c, 0, 66, 0
2, 297509, Note_on_c, 0, 54, 0
2, 297527, Control_c, 0, 64, 28
2, 297548, Note_on_c, 0, 69, 85
2, 297607, Note_on_c, 0, 69, 0
2, 297631, Note_on_c, 0, 62, 0
2, 297680, Note_on_c, 0, 52, 83
2, 297681, Control_c, 0, 64, 27
2, 297691, Note_on_c, 0, 68, 83
2, 297701, Control_c, 0, 64, 27
2, 297739, Control_c, 0, 64, 26
2, 297747, Note_on_c, 0, 52, 0
2, 297761, Note_on_c, 0, 68, 0
2, 297777, Control_c, 0, 64, 25
2, 297816, Control_c, 0, 64, 24
2, 297818, Note_on_c, 0, 54, 80
2, 297892, Note_on_c, 0, 54, 0
2, 297946, Note_on_c, 0, 73, 90
2, 297948, Note_on_c, 0, 52, 77
2, 297962, Note_on_c, 0, 56, 72
2, 298007, Note_on_c, 0, 56, 0
2, 298013, Note_on_c, 0, 73, 0
2, 298019, Note_on_c, 0, 52, 0
2, 298027, Control_c, 0, 64, 25
2, 298046, Control_c, 0, 64, 26
2, 298065, Control_c, 0, 64, 27
2, 298079, Note_on_c, 0, 50, 81
2, 298084, Control_c, 0, 64, 28
2, 298104, Control_c, 0, 64, 29
2, 298120, Note_on_c, 0, 50, 0
2, 298142, Control_c, 0, 64, 29
2, 298199, Control_c, 0, 64, 30
2, 298223, Note_on_c, 0, 66, 79
2, 298225, Note_on_c, 0, 52, 77
2, 298227, Note_on_c, 0, 58, 82
2, 298270, Note_on_c, 0, 52, 0
2, 298272, Note_on_c, 0, 58, 0
2, 298299, Note_on_c, 0, 66, 0
2, 298353, Note_on_c, 0, 50, 80
2, 298402, Note_on_c, 0, 50, 0
2, 298475, Note_on_c, 0, 49, 88
2, 298487, Note_on_c, 0, 61, 78
2, 298487, Note_on_c, 0, 70, 84
2, 298507, Control_c, 0, 64, 29
2, 298526, Note_on_c, 0, 61, 0
2, 298545, Control_c, 0, 64, 29
2, 298546, Note_on_c, 0, 49, 0
2, 298565, Note_on_c, 0, 70, 0
2, 298604, Note_on_c, 0, 52, 82
2, 298662, Note_on_c, 0, 52, 0
2, 298699, Control_c, 0, 64, 29
2, 298718, Control_c, 0, 64, 30
2, 298744, Note_on_c, 0, 50, 77
2, 298749, Note_on_c, 0, 54, 76
2, 298751, Note_on_c, 0, 71, 88
2, 298782, Note_on_c, 0, 50, 0
2, 298786, Note_on_c, 0, 54, 0
2, 298810, Note_on_c, 0, 71, 0
2, 298812, Control_c, 0, 64, 29
2, 298851, Control_c, 0, 64, 29
2, 298882, Note_on_c, 0, 52, 80
2, 298908, Control_c, 0, 64, 28
2, 298937, Note_on_c, 0, 52, 0
2, 298965, Control_c, 0, 64, 27
2, 299011, Note_on_c, 0, 50, 77
2, 299017, Note_on_c, 0, 66, 83
2, 299042, Control_c, 0, 64, 27
2, 299056, Note_on_c, 0, 50, 0
2, 299079, Note_on_c, 0, 66, 0
2, 299149, Note_on_c, 0, 49, 74
2, 299177, Control_c, 0, 64, 27
2, 299192, Note_on_c, 0, 49, 0
2, 299196, Control_c, 0, 64, 28
2, 299216, Control_c, 0, 64, 29
2, 299234, Control_c, 0, 64, 31
2, 299254, Control_c, 0, 64, 31
2, 299281, Note_on_c, 0, 71, 96
2, 299284, Note_on_c, 0, 50, 82
2, 299292, Control_c, 0, 64, 32
2, 299331, Control_c, 0, 64, 31
2, 299345, Note_on_c, 0, 50, 0
2, 299413, Note_on_c, 0, 49, 79
2, 299470, Note_on_c, 0, 49, 0
2, 299484, Control_c, 0, 64, 31
2, 299547, Note_on_c, 0, 47, 78
2, 299557, Note_on_c, 0, 66, 84
2, 299561, Control_c, 0, 64, 31
2, 299604, Note_on_c, 0, 47, 0
2, 299620, Note_on_c, 0, 66, 0
2, 299686, Note_on_c, 0, 50, 76
2, 299733, Note_on_c, 0, 50, 0
2, 299821, Note_on_c, 0, 64, 88
2, 299823, Note_on_c, 0, 49, 88
2, 299848, Control_c, 0, 64, 31
2, 299882, Note_on_c, 0, 64, 0
2, 299892, Note_on_c, 0, 49, 0
2, 299954, Note_on_c, 0, 66, 78
2, 300006, Note_on_c, 0, 66, 0
2, 300081, Note_on_c, 0, 42, 73
2, 300086, Note_on_c, 0, 64, 76
2, 300119, Note_on_c, 0, 42, 0
2, 300119, Note_on_c, 0, 64, 0
2, 300218, Note_on_c, 0, 63, 75
2, 300263, Note_on_c, 0, 71, 0
2, 300267, Note_on_c, 0, 63, 0
2, 300355, Note_on_c, 0, 69, 92
2, 300361, Note_on_c, 0, 64, 86
2, 300366, Note_on_c, 0, 54, 81
2, 300405, Control_c, 0, 64, 30
2, 300416, Note_on_c, 0, 64, 0
2, 300433, Note_on_c, 0, 54, 0
2, 300495, Note_on_c, 0, 63, 81
2, 300502, Control_c, 0, 64, 29
2, 300566, Note_on_c, 0, 63, 0
2, 300597, Control_c, 0, 64, 30
2, 300625, Note_on_c, 0, 61, 81
2, 300639, Note_on_c, 0, 57, 74
2, 300673, Note_on_c, 0, 61, 0
2, 300686, Note_on_c, 0, 57, 0
2, 300758, Note_on_c, 0, 64, 77
2, 300825, Note_on_c, 0, 64, 0
2, 300896, Note_on_c, 0, 47, 72
2, 300898, Note_on_c, 0, 63, 81
2, 300943, Control_c, 0, 64, 31
2, 300956, Note_on_c, 0, 47, 0
2, 300971, Note_on_c, 0, 63, 0
2, 301020, Note_on_c, 0, 64, 79
2, 301053, Note_on_c, 0, 69, 0
2, 301059, Control_c, 0, 64, 31
2, 301077, Note_on_c, 0, 64, 0
2, 301158, Note_on_c, 0, 63, 79
2, 301163, Note_on_c, 0, 59, 73
2, 301174, Control_c, 0, 64, 32
2, 301207, Note_on_c, 0, 63, 0
2, 301213, Note_on_c, 0, 59, 0
2, 301288, Note_on_c, 0, 61, 79
2, 301344, Note_on_c, 0, 61, 0
2, 301430, Note_on_c, 0, 52, 78
2, 301431, Note_on_c, 0, 68, 90
2, 301437, Note_on_c, 0, 63, 84
2, 301462, Control_c, 0, 64, 32
2, 301497, Note_on_c, 0, 52, 0
2, 301501, Note_on_c, 0, 63, 0
2, 301585, Note_on_c, 0, 61, 76
2, 301596, Control_c, 0, 64, 32
2, 301633, Note_on_c, 0, 61, 0
2, 301697, Note_on_c, 0, 56, 76
2, 301709, Note_on_c, 0, 60, 75
2, 301765, Note_on_c, 0, 60, 0
2, 301775, Note_on_c, 0, 56, 0
2, 301828, Note_on_c, 0, 63, 75
2, 301899, Note_on_c, 0, 63, 0
2, 301972, Note_on_c, 0, 61, 78
2, 301974, Note_on_c, 0, 45, 79
2, 302019, Control_c, 0, 64, 31
2, 302040, Note_on_c, 0, 61, 0
2, 302053, Note_on_c, 0, 45, 0
2, 302110, Note_on_c, 0, 63, 73
2, 302192, Note_on_c, 0, 63, 0
2, 302245, Note_on_c, 0, 61, 79
2, 302246, Note_on_c, 0, 44, 78
2, 302265, Note_on_c, 0, 68, 0
2, 302307, Control_c, 0, 64, 32
2, 302316, Note_on_c, 0, 44, 0
2, 302319, Note_on_c, 0, 61, 0
2, 302377, Note_on_c, 0, 60, 79
2, 302444, Note_on_c, 0, 60, 0
2, 302505, Note_on_c, 0, 45, 82
2, 302515, Note_on_c, 0, 66, 82
2, 302517, Note_on_c, 0, 61, 78
2, 302572, Note_on_c, 0, 45, 0
2, 302590, Note_on_c, 0, 61, 0
2, 302643, Note_on_c, 0, 64, 77
2, 302689, Note_on_c, 0, 66, 0
2, 302728, Control_c, 0, 64, 32
2, 302736, Note_on_c, 0, 64, 0
2, 302785, Note_on_c, 0, 63, 80
2, 302787, Note_on_c, 0, 57, 82
2, 302858, Note_on_c, 0, 57, 0
2, 302872, Note_on_c, 0, 63, 0
2, 302937, Note_on_c, 0, 61, 71
2, 303043, Note_on_c, 0, 56, 89
2, 303056, Note_on_c, 0, 61, 0
2, 303056, Note_on_c, 0, 68, 86
2, 303059, Note_on_c, 0, 60, 78
2, 303093, Note_on_c, 0, 60, 0
2, 303093, Note_on_c, 0, 68, 0
2, 303107, Note_on_c, 0, 56, 0
2, 303171, Control_c, 0, 64, 32
2, 303179, Note_on_c, 0, 57, 75
2, 303232, Note_on_c, 0, 57, 0
2, 303285, Control_c, 0, 64, 32
2, 303302, Note_on_c, 0, 72, 77
2, 303309, Note_on_c, 0, 63, 72
2, 303310, Note_on_c, 0, 56, 84
2, 303355, Note_on_c, 0, 56, 0
2, 303356, Note_on_c, 0, 63, 0
2, 303365, Note_on_c, 0, 72, 0
2, 303443, Note_on_c, 0, 54, 77
2, 303486, Note_on_c, 0, 54, 0
2, 303516, Control_c, 0, 64, 33
2, 303571, Note_on_c, 0, 73, 92
2, 303574, Control_c, 0, 64, 34
2, 303575, Note_on_c, 0, 64, 87
2, 303581, Note_on_c, 0, 56, 86
2, 303593, Control_c, 0, 64, 34
2, 303651, Note_on_c, 0, 56, 0
2, 303671, Control_c, 0, 64, 35
2, 303689, Control_c, 0, 64, 35
2, 303703, Note_on_c, 0, 54, 80
2, 303709, Control_c, 0, 64, 36
2, 303756, Note_on_c, 0, 54, 0
2, 303786, Control_c, 0, 64, 36
2, 303805, Control_c, 0, 64, 37
2, 303806, Note_on_c, 0, 64, 0
2, 303824, Control_c, 0, 64, 38
2, 303836, Note_on_c, 0, 52, 76
2, 303848, Note_on_c, 0, 76, 84
2, 303856, Note_on_c, 0, 68, 88
2, 303881, Note_on_c, 0, 52, 0
2, 303889, Note_on_c, 0, 73, 0
2, 303906, Note_on_c, 0, 68, 0
2, 303922, Note_on_c, 0, 76, 0
2, 303981, Note_on_c, 0, 56, 81
2, 304029, Note_on_c, 0, 56, 0
2, 304108, Note_on_c, 0, 54, 81
2, 304112, Control_c, 0, 64, 37
2, 304151, Control_c, 0, 64, 36
2, 304179, Note_on_c, 0, 54, 0
2, 304189, Control_c, 0, 64, 36
2, 304245, Note_on_c, 0, 56, 82
2, 304246, Control_c, 0, 64, 35
2, 304266, Control_c, 0, 64, 35
2, 304285, Control_c, 0, 64, 34
2, 304306, Note_on_c, 0, 56, 0
2, 304372, Note_on_c, 0, 54, 80
2, 304382, Note_on_c, 0, 76, 86
2, 304383, Note_on_c, 0, 68, 84
2, 304414, Note_on_c, 0, 68, 0
2, 304421, Note_on_c, 0, 54, 0
2, 304442, Note_on_c, 0, 76, 0
2, 304534, Note_on_c, 0, 52, 73
2, 304567, Note_on_c, 0, 52, 0
2, 304630, Control_c, 0, 64, 35
2, 304647, Note_on_c, 0, 66, 92
2, 304648, Control_c, 0, 64, 35
2, 304648, Note_on_c, 0, 75, 90
2, 304651, Note_on_c, 0, 54, 87
2, 304707, Control_c, 0, 64, 36
2, 304715, Note_on_c, 0, 54, 0
2, 304797, Note_on_c, 0, 52, 72
2, 304835, Note_on_c, 0, 52, 0
2, 304879, Control_c, 0, 64, 37
2, 304907, Note_on_c, 0, 78, 86
2, 304911, Note_on_c, 0, 51, 74
2, 304914, Note_on_c, 0, 69, 78
2, 304917, Control_c, 0, 64, 37
2, 304943, Note_on_c, 0, 66, 0
2, 304951, Note_on_c, 0, 75, 0
2, 304956, Control_c, 0, 64, 38
2, 304975, Note_on_c, 0, 69, 0
2, 304980, Note_on_c, 0, 51, 0
2, 304991, Note_on_c, 0, 78, 0
2, 305051, Note_on_c, 0, 54, 87
2, 305112, Note_on_c, 0, 54, 0
2, 305128, Control_c, 0, 64, 37
2, 305183, Note_on_c, 0, 52, 80
2, 305187, Control_c, 0, 64, 37
2, 305205, Control_c, 0, 64, 36
2, 305225, Control_c, 0, 64, 35
2, 305244, Control_c, 0, 64, 34
2, 305246, Note_on_c, 0, 52, 0
2, 305316, Note_on_c, 0, 54, 86
2, 305340, Control_c, 0, 64, 33
2, 305375, Note_on_c, 0, 54, 0
2, 305436, Control_c, 0, 64, 32
2, 305441, Note_on_c, 0, 52, 85
2, 305448, Note_on_c, 0, 72, 85
2, 305452, Note_on_c, 0, 68, 86
2, 305474, Control_c, 0, 64, 32
2, 305500, Note_on_c, 0, 52, 0
2, 305510, Note_on_c, 0, 72, 0
2, 305522, Note_on_c, 0, 68, 0
2, 305561, Note_on_c, 0, 51, 80
2, 305575, Note_on_c, 0, 66, 85
2, 305599, Note_on_c, 0, 51, 0
2, 305645, Note_on_c, 0, 66, 0
2, 305683, Control_c, 0, 64, 32
2, 305710, Note_on_c, 0, 52, 84
2, 305717, Note_on_c, 0, 73, 93
2, 305722, Control_c, 0, 64, 33
2, 305729, Note_on_c, 0, 68, 80
2, 305755, Note_on_c, 0, 52, 0
2, 305760, Control_c, 0, 64, 34
2, 305776, Note_on_c, 0, 68, 0
2, 305830, Note_on_c, 0, 51, 81
2, 305857, Control_c, 0, 64, 34
2, 305905, Note_on_c, 0, 51, 0
2, 305961, Note_on_c, 0, 49, 82
2, 305977, Note_on_c, 0, 70, 83
2, 306036, Note_on_c, 0, 49, 0
2, 306064, Note_on_c, 0, 70, 0
2, 306097, Note_on_c, 0, 52, 75
2, 306143, Note_on_c, 0, 52, 0
2, 306237, Note_on_c, 0, 43, 95
2, 306245, Note_on_c, 0, 63, 89
2, 306269, Note_on_c, 0, 73, 0
2, 306279, Control_c, 0, 64, 34
2, 306317, Control_c, 0, 64, 34
2, 306318, Note_on_c, 0, 63, 0
2, 306356, Control_c, 0, 64, 35
2, 306377, Note_on_c, 0, 43, 0
2, 306380, Note_on_c, 0, 64, 84
2, 306432, Control_c, 0, 64, 35
2, 306470, Control_c, 0, 64, 36
2, 306497, Note_on_c, 0, 64, 0
2, 306505, Note_on_c, 0, 67, 80
2, 306507, Note_on_c, 0, 46, 92
2, 306510, Note_on_c, 0, 63, 83
2, 306536, Note_on_c, 0, 66, 47
2, 306575, Note_on_c, 0, 66, 0
2, 306577, Note_on_c, 0, 46, 0
2, 306603, Note_on_c, 0, 63, 0
2, 306633, Note_on_c, 0, 61, 83
2, 306644, Note_on_c, 0, 67, 0
2, 306662, Control_c, 0, 64, 35
2, 306704, Note_on_c, 0, 61, 0
2, 306766, Note_on_c, 0, 47, 91
2, 306774, Note_on_c, 0, 68, 91
2, 306775, Note_on_c, 0, 63, 84
2, 306777, Control_c, 0, 64, 35
2, 306816, Control_c, 0, 64, 34
2, 306829, Note_on_c, 0, 47, 0
2, 306854, Control_c, 0, 64, 34
2, 306863, Note_on_c, 0, 63, 0
2, 306908, Note_on_c, 0, 61, 82
2, 306989, Note_on_c, 0, 61, 0
2, 307040, Note_on_c, 0, 52, 82
2, 307040, Note_on_c, 0, 59, 82
2, 307068, Note_on_c, 0, 68, 0
2, 307084, Control_c, 0, 64, 33
2, 307107, Note_on_c, 0, 52, 0
2, 307118, Note_on_c, 0, 59, 0
2, 307164, Note_on_c, 0, 63, 80
2, 307247, Note_on_c, 0, 63, 0
2, 307302, Note_on_c, 0, 46, 79
2, 307302, Note_on_c, 0, 61, 82
2, 307374, Note_on_c, 0, 46, 0
2, 307379, Note_on_c, 0, 61, 0
2, 307417, Note_on_c, 0, 63, 83
2, 307419, Control_c, 0, 64, 32
2, 307508, Note_on_c, 0, 63, 0
2, 307573, Note_on_c, 0, 70, 85
2, 307576, Note_on_c, 0, 61, 83
2, 307581, Note_on_c, 0, 49, 87
2, 307641, Note_on_c, 0, 61, 0
2, 307644, Note_on_c, 0, 49, 0
2, 307717, Note_on_c, 0, 59, 88
2, 307718, Note_on_c, 0, 70, 0
2, 307738, Control_c, 0, 64, 32
2, 307781, Note_on_c, 0, 59, 0
2, 307846, Note_on_c, 0, 61, 84
2, 307848, Note_on_c, 0, 63, 80
2, 307849, Note_on_c, 0, 51, 85
2, 307926, Note_on_c, 0, 63, 0
2, 307933, Note_on_c, 0, 51, 0
2, 307946, Note_on_c, 0, 61, 0
2, 307973, Note_on_c, 0, 59, 88
2, 308007, Control_c, 0, 64, 31
2, 308029, Note_on_c, 0, 59, 0
2, 308103, Control_c, 0, 64, 31
2, 308107, Note_on_c, 0, 67, 80
2, 308113, Note_on_c, 0, 58, 81
2, 308122, Note_on_c, 0, 39, 77
2, 308187, Note_on_c, 0, 58, 0
2, 308203, Note_on_c, 0, 67, 0
2, 308220, Note_on_c, 0, 39, 0
2, 308232, Note_on_c, 0, 61, 81
2, 308307, Note_on_c, 0, 61, 0
2, 308379, Note_on_c, 0, 68, 89
2, 308384, Note_on_c, 0, 44, 86
2, 308384, Note_on_c, 0, 59, 91
2, 308437, Note_on_c, 0, 44, 0
2, 308444, Note_on_c, 0, 59, 0
2, 308507, Control_c, 0, 64, 29
2, 308529, Note_on_c, 0, 61, 79
2, 308584, Control_c, 0, 67, 37
2, 308604, Control_c, 0, 67, 82
2, 308606, Note_on_c, 0, 61, 0
2, 308622, Control_c, 0, 64, 29
2, 308622, Control_c, 0, 67, 127
2, 308642, Control_c, 0, 64, 28
2, 308671, Note_on_c, 0, 63, 76
2, 308672, Note_on_c, 0, 56, 79
2, 308709, Note_on_c, 0, 56, 0
2, 308718, Control_c, 0, 64, 26
2, 308738, Control_c, 0, 64, 22
2, 308756, Control_c, 0, 64, 18
2, 308776, Control_c, 0, 64, 17
2, 308799, Note_on_c, 0, 63, 0
2, 308802, Note_on_c, 0, 54, 76
2, 308802, Note_on_c, 0, 59, 81
2, 308829, Note_on_c, 0, 68, 0
2, 308837, Note_on_c, 0, 59, 0
2, 308838, Note_on_c, 0, 54, 0
2, 308872, Control_c, 0, 64, 18
2, 308940, Note_on_c, 0, 56, 82
2, 308946, Note_on_c, 0, 64, 89
2, 308995, Note_on_c, 0, 56, 0
2, 309085, Note_on_c, 0, 69, 77
2, 309144, Note_on_c, 0, 69, 0
2, 309206, Note_on_c, 0, 49, 75
2, 309218, Note_on_c, 0, 71, 61
2, 309252, Note_on_c, 0, 49, 0
2, 309275, Control_c, 0, 64, 19
2, 309285, Note_on_c, 0, 71, 0
2, 309352, Note_on_c, 0, 68, 79
2, 309428, Note_on_c, 0, 68, 0
2, 309477, Note_on_c, 0, 42, 65
2, 309489, Note_on_c, 0, 69, 81
2, 309519, Note_on_c, 0, 42, 0
2, 309567, Note_on_c, 0, 69, 0
2, 309581, Control_c, 0, 64, 18
2, 309632, Note_on_c, 0, 71, 66
2, 309639, Control_c, 0, 64, 17
2, 309686, Note_on_c, 0, 71, 0
2, 309742, Note_on_c, 0, 54, 61
2, 309759, Note_on_c, 0, 69, 73
2, 309789, Note_on_c, 0, 54, 0
2, 309807, Note_on_c, 0, 64, 0
2, 309855, Note_on_c, 0, 69, 0
2, 309863, Note_on_c, 0, 52, 69
2, 309865, Note_on_c, 0, 68, 81
2, 309869, Control_c, 0, 64, 18
2, 309908, Control_c, 0, 64, 19
2, 309916, Note_on_c, 0, 52, 0
2, 309919, Note_on_c, 0, 68, 0
2, 309927, Control_c, 0, 64, 20
2, 309946, Control_c, 0, 64, 21
2, 310004, Control_c, 0, 64, 22
2, 310011, Note_on_c, 0, 69, 80
2, 310013, Note_on_c, 0, 63, 81
2, 310020, Note_on_c, 0, 54, 71
2, 310061, Control_c, 0, 64, 23
2, 310066, Note_on_c, 0, 54, 0
2, 310081, Control_c, 0, 64, 24
2, 310100, Control_c, 0, 64, 25
2, 310146, Note_on_c, 0, 68, 75
2, 310162, Note_on_c, 0, 69, 0
2, 310245, Note_on_c, 0, 68, 0
2, 310265, Note_on_c, 0, 47, 62
2, 310274, Note_on_c, 0, 66, 72
2, 310305, Note_on_c, 0, 47, 0
2, 310310, Note_on_c, 0, 63, 0
2, 310397, Note_on_c, 0, 69, 79
2, 310412, Note_on_c, 0, 66, 0
2, 310456, Note_on_c, 0, 69, 0
2, 310545, Note_on_c, 0, 52, 62
2, 310550, Note_on_c, 0, 64, 74
2, 310554, Note_on_c, 0, 68, 77
2, 310584, Note_on_c, 0, 52, 0
2, 310599, Control_c, 0, 64, 24
2, 310641, Note_on_c, 0, 68, 0
2, 310674, Note_on_c, 0, 54, 71
2, 310683, Note_on_c, 0, 69, 81
2, 310722, Note_on_c, 0, 54, 0
2, 310734, Control_c, 0, 64, 25
2, 310766, Note_on_c, 0, 69, 0
2, 310813, Note_on_c, 0, 56, 77
2, 310814, Note_on_c, 0, 71, 76
2, 310853, Note_on_c, 0, 56, 0
2, 310887, Control_c, 0, 64, 26
2, 310895, Note_on_c, 0, 71, 0
2, 310945, Note_on_c, 0, 68, 81
2, 310948, Note_on_c, 0, 52, 67
2, 310989, Note_on_c, 0, 52, 0
2, 311003, Control_c, 0, 64, 27
2, 311083, Note_on_c, 0, 73, 88
2, 311089, Note_on_c, 0, 57, 70
2, 311101, Note_on_c, 0, 68, 0
2, 311126, Note_on_c, 0, 57, 0
2, 311133, Note_on_c, 0, 64, 0
2, 311212, Note_on_c, 0, 59, 75
2, 311214, Note_on_c, 0, 71, 79
2, 311274, Note_on_c, 0, 59, 0
2, 311343, Note_on_c, 0, 69, 85
2, 311349, Control_c, 0, 64, 27
2, 311349, Note_on_c, 0, 61, 76
2, 311381, Note_on_c, 0, 71, 0
2, 311383, Note_on_c, 0, 73, 0
2, 311389, Note_on_c, 0, 61, 0
2, 311407, Control_c, 0, 64, 28
2, 311425, Control_c, 0, 64, 29
2, 311464, Control_c, 0, 64, 29
2, 311470, Note_on_c, 0, 69, 0
2, 311477, Note_on_c, 0, 68, 85
2, 311484, Note_on_c, 0, 57, 73
2, 311502, Control_c, 0, 64, 30
2, 311522, Control_c, 0, 64, 31
2, 311523, Note_on_c, 0, 57, 0
2, 311590, Note_on_c, 0, 68, 0
2, 311623, Note_on_c, 0, 62, 69
2, 311627, Note_on_c, 0, 66, 84
2, 311664, Note_on_c, 0, 62, 0
2, 311733, Control_c, 0, 64, 31
2, 311752, Control_c, 0, 64, 32
2, 311769, Note_on_c, 0, 64, 66
2, 311771, Control_c, 0, 64, 33
2, 311803, Note_on_c, 0, 64, 0
2, 311882, Note_on_c, 0, 73, 82
2, 311885, Note_on_c, 0, 62, 70
2, 311926, Note_on_c, 0, 62, 0
2, 311952, Note_on_c, 0, 73, 0
2, 312019, Note_on_c, 0, 61, 67
2, 312053, Note_on_c, 0, 61, 0
2, 312155, Control_c, 0, 64, 34
2, 312159, Note_on_c, 0, 62, 72
2, 312159, Note_on_c, 0, 71, 89
2, 312174, Control_c, 0, 64, 34
2, 312194, Note_on_c, 0, 66, 0
2, 312206, Note_on_c, 0, 62, 0
2, 312270, Control_c, 0, 64, 35
2, 312290, Note_on_c, 0, 61, 71
2, 312329, Note_on_c, 0, 61, 0
2, 312416, Note_on_c, 0, 59, 70
2, 312424, Note_on_c, 0, 66, 81
2, 312444, Control_c, 0, 64, 34
2, 312459, Note_on_c, 0, 59, 0
2, 312490, Note_on_c, 0, 66, 0
2, 312554, Note_on_c, 0, 62, 70
2, 312599, Note_on_c, 0, 62, 0
2, 312635, Control_c, 0, 64, 34
2, 312685, Note_on_c, 0, 64, 78
2, 312686, Note_on_c, 0, 61, 78
2, 312698, Note_on_c, 0, 71, 0
2, 312727, Note_on_c, 0, 61, 0
2, 312770, Control_c, 0, 64, 33
2, 312815, Note_on_c, 0, 62, 76
2, 312819, Note_on_c, 0, 71, 82
2, 312854, Note_on_c, 0, 62, 0
2, 312863, Note_on_c, 0, 64, 0
2, 312895, Note_on_c, 0, 71, 0
2, 312942, Note_on_c, 0, 61, 80
2, 312942, Note_on_c, 0, 69, 81
2, 313002, Note_on_c, 0, 61, 0
2, 313019, Note_on_c, 0, 69, 0
2, 313078, Note_on_c, 0, 68, 85
2, 313082, Note_on_c, 0, 59, 74
2, 313130, Note_on_c, 0, 59, 0
2, 313153, Note_on_c, 0, 68, 0
2, 313209, Note_on_c, 0, 69, 85
2, 313213, Note_on_c, 0, 61, 79
2, 313266, Note_on_c, 0, 61, 0
2, 313307, Note_on_c, 0, 69, 0
2, 313336, Note_on_c, 0, 59, 77
2, 313339, Note_on_c, 0, 71, 75
2, 313344, Control_c, 0, 64, 32
2, 313385, Note_on_c, 0, 59, 0
2, 313402, Control_c, 0, 64, 33
2, 313437, Note_on_c, 0, 71, 0
2, 313450, Note_on_c, 0, 73, 82
2, 313464, Note_on_c, 0, 57, 70
2, 313508, Note_on_c, 0, 57, 0
2, 313518, Note_on_c, 0, 73, 0
2, 313536, Control_c, 0, 64, 34
2, 313554, Control_c, 0, 64, 35
2, 313574, Control_c, 0, 64, 35
2, 313582, Note_on_c, 0, 61, 83
2, 313588, Note_on_c, 0, 69, 83
2, 313627, Note_on_c, 0, 61, 0
2, 313650, Note_on_c, 0, 69, 0
2, 313719, Note_on_c, 0, 59, 92
2, 313728, Note_on_c, 0, 74, 88
2, 313785, Control_c, 0, 67, 119
2, 313805, Control_c, 0, 67, 106
2, 313824, Control_c, 0, 67, 90
2, 313843, Control_c, 0, 67, 73
2, 313853, Note_on_c, 0, 74, 0
2, 313854, Note_on_c, 0, 76, 82
2, 313862, Control_c, 0, 67, 55
2, 313882, Control_c, 0, 67, 34
2, 313900, Control_c, 0, 67, 0
2, 313915, Note_on_c, 0, 76, 0
2, 313919, Control_c, 0, 64, 36
2, 313980, Note_on_c, 0, 74, 82
2, 313993, Note_on_c, 0, 69, 78
2, 314016, Control_c, 0, 64, 38
2, 314024, Note_on_c, 0, 69, 0
2, 314034, Control_c, 0, 64, 39
2, 314045, Note_on_c, 0, 74, 0
2, 314093, Control_c, 0, 64, 40
2, 314099, Note_on_c, 0, 73, 85
2, 314111, Control_c, 0, 64, 41
2, 314146, Control_c, 0, 64, 41
2, 314167, Note_on_c, 0, 73, 0
2, 314169, Control_c, 0, 64, 42
2, 314246, Control_c, 0, 64, 42
2, 314257, Note_on_c, 0, 74, 85
2, 314264, Note_on_c, 0, 68, 90
2, 314265, Control_c, 0, 64, 43
2, 314285, Control_c, 0, 64, 44
2, 314313, Note_on_c, 0, 59, 0
2, 314402, Note_on_c, 0, 73, 81
2, 314429, Note_on_c, 0, 74, 0
2, 314446, Note_on_c, 0, 68, 0
2, 314496, Control_c, 0, 64, 44
2, 314519, Note_on_c, 0, 71, 84
2, 314528, Note_on_c, 0, 64, 85
2, 314539, Note_on_c, 0, 73, 0
2, 314585, Note_on_c, 0, 64, 0
2, 314626, Note_on_c, 0, 71, 0
2, 314664, Note_on_c, 0, 74, 79
2, 314734, Note_on_c, 0, 74, 0
2, 314781, Note_on_c, 0, 57, 92
2, 314791, Note_on_c, 0, 73, 84
2, 314822, Control_c, 0, 64, 44
2, 314860, Control_c, 0, 64, 44
2, 314879, Control_c, 0, 64, 45
2, 314893, Note_on_c, 0, 73, 0
2, 314912, Note_on_c, 0, 74, 77
2, 314918, Control_c, 0, 64, 44
2, 314937, Control_c, 0, 64, 44
2, 314985, Note_on_c, 0, 74, 0
2, 315033, Control_c, 0, 64, 43
2, 315038, Note_on_c, 0, 73, 83
2, 315049, Note_on_c, 0, 61, 79
2, 315094, Control_c, 0, 64, 43
2, 315123, Note_on_c, 0, 73, 0
2, 315130, Note_on_c, 0, 61, 0
2, 315150, Control_c, 0, 64, 43
2, 315169, Control_c, 0, 64, 42
2, 315180, Note_on_c, 0, 71, 80
2, 315227, Control_c, 0, 64, 43
2, 315242, Note_on_c, 0, 71, 0
2, 315265, Note_on_c, 0, 57, 0
2, 315284, Control_c, 0, 64, 43
2, 315306, Note_on_c, 0, 66, 94
2, 315307, Note_on_c, 0, 73, 87
2, 315323, Control_c, 0, 64, 44
2, 315342, Control_c, 0, 64, 44
2, 315361, Control_c, 0, 64, 45
2, 315384, Note_on_c, 0, 73, 0
2, 315436, Note_on_c, 0, 71, 86
2, 315503, Note_on_c, 0, 71, 0
2, 315574, Note_on_c, 0, 62, 75
2, 315582, Note_on_c, 0, 69, 80
2, 315638, Note_on_c, 0, 69, 0
2, 315643, Note_on_c, 0, 62, 0
2, 315707, Control_c, 0, 64, 46
2, 315711, Note_on_c, 0, 73, 83
2, 315764, Control_c, 0, 64, 46
2, 315780, Note_on_c, 0, 73, 0
2, 315835, Note_on_c, 0, 71, 92
2, 315844, Note_on_c, 0, 56, 81
2, 315861, Note_on_c, 0, 66, 0
2, 315899, Control_c, 0, 64, 47
2, 315900, Note_on_c, 0, 56, 0
2, 315957, Control_c, 0, 64, 46
2, 315970, Note_on_c, 0, 69, 84
2, 315995, Control_c, 0, 64, 46
2, 316026, Note_on_c, 0, 71, 0
2, 316070, Note_on_c, 0, 71, 65
2, 316082, Note_on_c, 0, 69, 0
2, 316091, Note_on_c, 0, 59, 80
2, 316091, Note_on_c, 0, 68, 82
2, 316144, Note_on_c, 0, 59, 0
2, 316186, Note_on_c, 0, 68, 0
2, 316187, Control_c, 0, 64, 45
2, 316208, Note_on_c, 0, 66, 79
2, 316226, Control_c, 0, 64, 45
2, 316264, Control_c, 0, 64, 44
2, 316272, Note_on_c, 0, 66, 0
2, 316321, Control_c, 0, 64, 44
2, 316352, Note_on_c, 0, 53, 79
2, 316360, Note_on_c, 0, 68, 79
2, 316379, Control_c, 0, 64, 44
2, 316422, Note_on_c, 0, 53, 0
2, 316437, Note_on_c, 0, 68, 0
2, 316456, Control_c, 0, 64, 44
2, 316497, Note_on_c, 0, 66, 74
2, 316532, Control_c, 0, 64, 44
2, 316561, Note_on_c, 0, 66, 0
2, 316617, Note_on_c, 0, 49, 78
2, 316633, Note_on_c, 0, 65, 74
2, 316659, Note_on_c, 0, 49, 0
2, 316688, Note_on_c, 0, 65, 0
2, 316688, Note_on_c, 0, 71, 0
2, 316746, Note_on_c, 0, 68, 81
2, 316830, Note_on_c, 0, 68, 0
2, 316882, Note_on_c, 0, 54, 91
2, 316885, Note_on_c, 0, 66, 81
2, 316970, Note_on_c, 0, 66, 0
2, 317015, Note_on_c, 0, 68, 83
2, 317070, Control_c, 0, 64, 45
2, 317094, Note_on_c, 0, 68, 0
2, 317127, Control_c, 0, 64, 45
2, 317142, Note_on_c, 0, 70, 85
2, 317156, Note_on_c, 0, 61, 84
2, 317166, Control_c, 0, 64, 46
2, 317207, Note_on_c, 0, 70, 0
2, 317235, Note_on_c, 0, 61, 0
2, 317262, Control_c, 0, 64, 46
2, 317273, Note_on_c, 0, 71, 82
2, 317336, Note_on_c, 0, 71, 0
2, 317343, Note_on_c, 0, 54, 0
2, 317399, Note_on_c, 0, 62, 86
2, 317411, Note_on_c, 0, 70, 86
2, 317416, Control_c, 0, 64, 46
2, 317484, Note_on_c, 0, 70, 0
2, 317547, Note_on_c, 0, 71, 82
2, 317569, Control_c, 0, 64, 45
2, 317604, Note_on_c, 0, 71, 0
2, 317671, Note_on_c, 0, 73, 76
2, 317677, Note_on_c, 0, 54, 81
2, 317749, Note_on_c, 0, 73, 0
2, 317752, Note_on_c, 0, 54, 0
2, 317821, Note_on_c, 0, 70, 83
2, 317838, Control_c, 0, 64, 46
2, 317886, Note_on_c, 0, 70, 0
2, 317926, Note_on_c, 0, 55, 91
2, 317951, Note_on_c, 0, 62, 0
2, 317951, Note_on_c, 0, 71, 79
2, 318026, Note_on_c, 0, 71, 0
2, 318072, Note_on_c, 0, 70, 83
2, 318135, Note_on_c, 0, 70, 0
2, 318186, Note_on_c, 0, 71, 87
2, 318187, Note_on_c, 0, 63, 86
2, 318254, Note_on_c, 0, 71, 0
2, 318271, Note_on_c, 0, 63, 0
2, 318280, Control_c, 0, 64, 46
2, 318312, Note_on_c, 0, 73, 79
2, 318338, Control_c, 0, 64, 46
2, 318376, Control_c, 0, 64, 46
2, 318385, Note_on_c, 0, 73, 0
2, 318395, Control_c, 0, 64, 47
2, 318425, Note_on_c, 0, 55, 0
2, 318429, Note_on_c, 0, 64, 85
2, 318471, Note_on_c, 0, 71, 93
2, 318491, Control_c, 0, 64, 47
2, 318510, Control_c, 0, 64, 48
2, 318526, Note_on_c, 0, 71, 0
2, 318583, Note_on_c, 0, 73, 81
2, 318664, Note_on_c, 0, 73, 0
2, 318702, Note_on_c, 0, 56, 84
2, 318705, Note_on_c, 0, 74, 77
2, 318774, Note_on_c, 0, 74, 0
2, 318778, Note_on_c, 0, 56, 0
2, 318779, Control_c, 0, 64, 48
2, 318798, Control_c, 0, 64, 49
2, 318846, Note_on_c, 0, 71, 87
2, 318912, Note_on_c, 0, 71, 0
2, 318952, Control_c, 0, 64, 48
2, 318980, Note_on_c, 0, 73, 86
2, 318982, Note_on_c, 0, 57, 91
2, 318992, Note_on_c, 0, 64, 0
2, 319050, Note_on_c, 0, 73, 0
2, 319067, Control_c, 0, 64, 48
2, 319106, Control_c, 0, 64, 47
2, 319119, Note_on_c, 0, 71, 83
2, 319144, Control_c, 0, 64, 46
2, 319163, Control_c, 0, 64, 46
2, 319212, Note_on_c, 0, 71, 0
2, 319227, Note_on_c, 0, 65, 81
2, 319237, Note_on_c, 0, 73, 85
2, 319240, Control_c, 0, 64, 45
2, 319259, Control_c, 0, 64, 45
2, 319278, Control_c, 0, 64, 44
2, 319321, Note_on_c, 0, 65, 0
2, 319336, Control_c, 0, 64, 45
2, 319348, Note_on_c, 0, 74, 79
2, 319352, Note_on_c, 0, 73, 0
2, 319420, Note_on_c, 0, 74, 0
2, 319432, Control_c, 0, 64, 44
2, 319499, Note_on_c, 0, 73, 85
2, 319500, Note_on_c, 0, 66, 92
2, 319547, Control_c, 0, 64, 45
2, 319632, Note_on_c, 0, 74, 75
2, 319695, Note_on_c, 0, 73, 0
2, 319701, Control_c, 0, 64, 44
2, 319735, Note_on_c, 0, 57, 0
2, 319752, Note_on_c, 0, 58, 87
2, 319757, Note_on_c, 0, 74, 0
2, 319757, Note_on_c, 0, 77, 69
2, 319758, Control_c, 0, 64, 44
2, 319788, Note_on_c, 0, 76, 56
2, 319797, Note_on_c, 0, 58, 0
2, 319819, Note_on_c, 0, 76, 0
2, 319839, Note_on_c, 0, 77, 0
2, 319895, Note_on_c, 0, 73, 79
2, 319930, Control_c, 0, 64, 44
2, 319979, Note_on_c, 0, 73, 0
2, 320014, Note_on_c, 0, 59, 94
2, 320016, Note_on_c, 0, 74, 81
2, 320026, Control_c, 0, 64, 44
2, 320142, Control_c, 0, 64, 43
2, 320149, Note_on_c, 0, 76, 79
2, 320160, Control_c, 0, 64, 43
2, 320161, Note_on_c, 0, 74, 0
2, 320257, Control_c, 0, 64, 42
2, 320258, Note_on_c, 0, 59, 0
2, 320268, Note_on_c, 0, 54, 87
2, 320278, Note_on_c, 0, 74, 79
2, 320313, Note_on_c, 0, 76, 0
2, 320330, Note_on_c, 0, 54, 0
2, 320348, Note_on_c, 0, 66, 0
2, 320352, Control_c, 0, 64, 41
2, 320371, Control_c, 0, 64, 39
2, 320391, Control_c, 0, 64, 37
2, 320403, Note_on_c, 0, 73, 80
2, 320417, Note_on_c, 0, 74, 0
2, 320429, Control_c, 0, 64, 37
2, 320448, Control_c, 0, 64, 36
2, 320468, Control_c, 0, 64, 32
2, 320487, Control_c, 0, 64, 27
2, 320506, Control_c, 0, 64, 21
2, 320512, Note_on_c, 0, 73, 0
2, 320525, Control_c, 0, 64, 13
2, 320538, Note_on_c, 0, 47, 86
2, 320538, Note_on_c, 0, 74, 84
2, 320545, Control_c, 0, 64, 0
2, 320592, Note_on_c, 0, 47, 0
2, 320667, Note_on_c, 0, 73, 81
2, 320701, Note_on_c, 0, 74, 0
2, 320781, Note_on_c, 0, 50, 87
2, 320797, Note_on_c, 0, 71, 73
2, 320824, Note_on_c, 0, 50, 0
2, 320840, Note_on_c, 0, 73, 0
2, 320913, Note_on_c, 0, 71, 0
2, 320942, Note_on_c, 0, 74, 51
2, 320948, Note_on_c, 0, 76, 42
2, 320969, Note_on_c, 0, 74, 0
2, 320982, Note_on_c, 0, 76, 0
2, 321038, Note_on_c, 0, 52, 92
2, 321057, Note_on_c, 0, 67, 89
2, 321140, Control_c, 0, 67, 24
2, 321159, Control_c, 0, 67, 58
2, 321178, Control_c, 0, 67, 110
2, 321185, Note_on_c, 0, 66, 81
2, 321197, Control_c, 0, 67, 127
2, 321299, Note_on_c, 0, 54, 82
2, 321302, Note_on_c, 0, 52, 0
2, 321310, Note_on_c, 0, 64, 77
2, 321310, Note_on_c, 0, 66, 0
2, 321339, Note_on_c, 0, 54, 0
2, 321368, Note_on_c, 0, 64, 0
2, 321451, Note_on_c, 0, 62, 74
2, 321521, Note_on_c, 0, 62, 0
2, 321568, Note_on_c, 0, 55, 82
2, 321578, Note_on_c, 0, 64, 73
2, 321613, Note_on_c, 0, 55, 0
2, 321701, Note_on_c, 0, 64, 0
2, 321708, Note_on_c, 0, 62, 66
2, 321781, Note_on_c, 0, 62, 0
2, 321819, Note_on_c, 0, 52, 71
2, 321830, Note_on_c, 0, 61, 63
2, 321859, Note_on_c, 0, 52, 0
2, 321874, Note_on_c, 0, 61, 0
2, 321954, Note_on_c, 0, 64, 64
2, 322085, Note_on_c, 0, 49, 68
2, 322092, Note_on_c, 0, 67, 0
2, 322099, Note_on_c, 0, 57, 73
2, 322102, Note_on_c, 0, 64, 0
2, 322147, Note_on_c, 0, 49, 0
2, 322229, Note_on_c, 0, 67, 73
2, 322347, Note_on_c, 0, 45, 56
2, 322348, Note_on_c, 0, 66, 78
2, 322370, Note_on_c, 0, 67, 0
2, 322394, Note_on_c, 0, 45, 0
2, 322475, Note_on_c, 0, 64, 79
2, 322490, Note_on_c, 0, 66, 0
2, 322555, Note_on_c, 0, 64, 0
2, 322590, Note_on_c, 0, 50, 67
2, 322600, Note_on_c, 0, 66, 76
2, 322664, Note_on_c, 0, 50, 0
2, 322715, Note_on_c, 0, 64, 77
2, 322730, Note_on_c, 0, 66, 0
2, 322827, Note_on_c, 0, 42, 68
2, 322841, Note_on_c, 0, 62, 72
2, 322875, Note_on_c, 0, 64, 0
2, 322895, Note_on_c, 0, 42, 0
2, 322948, Note_on_c, 0, 62, 0
2, 322954, Note_on_c, 0, 66, 73
2, 322957, Note_on_c, 0, 57, 0
2, 322957, Note_on_c, 0, 57, 5
2, 323001, Note_on_c, 0, 66, 0
2, 323062, Note_on_c, 0, 57, 0
2, 323107, Note_on_c, 0, 59, 90
2, 323111, Note_on_c, 0, 43, 67
2, 323171, Note_on_c, 0, 43, 0
2, 323238, Note_on_c, 0, 57, 76
2, 323353, Note_on_c, 0, 57, 0
2, 323366, Note_on_c, 0, 47, 72
2, 323380, Note_on_c, 0, 55, 71
2, 323410, Note_on_c, 0, 47, 0
2, 323447, Note_on_c, 0, 55, 0
2, 323484, Note_on_c, 0, 59, 0
2, 323496, Note_on_c, 0, 54, 76
2, 323608, Note_on_c, 0, 54, 0
2, 323630, Note_on_c, 0, 61, 80
2, 323635, Note_on_c, 0, 55, 77
2, 323650, Note_on_c, 0, 40, 57
2, 323686, Note_on_c, 0, 55, 0
2, 323696, Note_on_c, 0, 40, 0
2, 323769, Note_on_c, 0, 54, 73
2, 323851, Note_on_c, 0, 54, 0
2, 323892, Note_on_c, 0, 52, 75
2, 323896, Note_on_c, 0, 45, 68
2, 323932, Note_on_c, 0, 45, 0
2, 323957, Note_on_c, 0, 52, 0
2, 324016, Note_on_c, 0, 61, 0
2, 324024, Note_on_c, 0, 55, 76
2, 324090, Note_on_c, 0, 55, 0
2, 324165, Note_on_c, 0, 50, 76
2, 324170, Note_on_c, 0, 54, 70
2, 324179, Note_on_c, 0, 60, 67
2, 324190, Note_on_c, 0, 62, 69
2, 324212, Note_on_c, 0, 54, 0
2, 324220, Note_on_c, 0, 60, 0
2, 324223, Note_on_c, 0, 62, 0
2, 324240, Note_on_c, 0, 50, 0
2, 324287, Note_on_c, 0, 49, 79
2, 324354, Note_on_c, 0, 49, 0
2, 324415, Note_on_c, 0, 50, 77
2, 324415, Note_on_c, 0, 66, 83
2, 324479, Note_on_c, 0, 50, 0
2, 324482, Note_on_c, 0, 66, 0
2, 324552, Note_on_c, 0, 52, 75
2, 324601, Note_on_c, 0, 52, 0
2, 324688, Note_on_c, 0, 50, 70
2, 324698, Note_on_c, 0, 71, 96
2, 324712, Control_c, 0, 67, 124
2, 324731, Control_c, 0, 67, 111
2, 324732, Note_on_c, 0, 50, 0
2, 324750, Control_c, 0, 67, 94
2, 324769, Control_c, 0, 67, 76
2, 324789, Control_c, 0, 67, 60
2, 324807, Control_c, 0, 67, 47
2, 324827, Control_c, 0, 67, 36
2, 324837, Note_on_c, 0, 55, 68
2, 324846, Control_c, 0, 67, 23
2, 324866, Control_c, 0, 67, 0
2, 324883, Note_on_c, 0, 55, 0
2, 324944, Note_on_c, 0, 59, 80
2, 324961, Control_c, 0, 64, 9
2, 324962, Note_on_c, 0, 54, 70
2, 324981, Control_c, 0, 64, 11
2, 324986, Note_on_c, 0, 59, 0
2, 325001, Note_on_c, 0, 54, 0
2, 325019, Control_c, 0, 64, 15
2, 325038, Control_c, 0, 64, 18
2, 325077, Control_c, 0, 64, 19
2, 325096, Control_c, 0, 64, 20
2, 325102, Note_on_c, 0, 55, 67
2, 325115, Control_c, 0, 64, 22
2, 325135, Control_c, 0, 64, 23
2, 325137, Note_on_c, 0, 55, 0
2, 325192, Control_c, 0, 64, 24
2, 325217, Note_on_c, 0, 49, 80
2, 325219, Note_on_c, 0, 64, 87
2, 325277, Note_on_c, 0, 71, 0
2, 325307, Control_c, 0, 64, 25
2, 325312, Note_on_c, 0, 49, 0
2, 325360, Note_on_c, 0, 47, 70
2, 325422, Note_on_c, 0, 47, 0
2, 325484, Note_on_c, 0, 49, 74
2, 325488, Note_on_c, 0, 70, 80
2, 325567, Note_on_c, 0, 49, 0
2, 325618, Note_on_c, 0, 68, 83
2, 325621, Note_on_c, 0, 50, 79
2, 325646, Note_on_c, 0, 70, 0
2, 325663, Note_on_c, 0, 64, 0
2, 325692, Control_c, 0, 64, 26
2, 325692, Note_on_c, 0, 50, 0
2, 325697, Note_on_c, 0, 68, 0
2, 325750, Note_on_c, 0, 49, 80
2, 325762, Note_on_c, 0, 70, 92
2, 325811, Note_on_c, 0, 49, 0
2, 325821, Note_on_c, 0, 70, 0
2, 325895, Note_on_c, 0, 54, 77
2, 325922, Control_c, 0, 64, 27
2, 325950, Note_on_c, 0, 54, 0
2, 325999, Control_c, 0, 64, 28
2, 326008, Note_on_c, 0, 66, 97
2, 326016, Note_on_c, 0, 52, 74
2, 326019, Control_c, 0, 64, 29
2, 326073, Note_on_c, 0, 66, 0
2, 326076, Control_c, 0, 64, 29
2, 326096, Control_c, 0, 64, 32
2, 326100, Note_on_c, 0, 52, 0
2, 326114, Control_c, 0, 64, 35
2, 326133, Control_c, 0, 64, 37
2, 326144, Note_on_c, 0, 54, 73
2, 326153, Control_c, 0, 64, 37
2, 326172, Control_c, 0, 64, 38
2, 326191, Control_c, 0, 64, 39
2, 326201, Note_on_c, 0, 54, 0
2, 326210, Control_c, 0, 64, 39
2, 326230, Control_c, 0, 64, 40
2, 326248, Control_c, 0, 64, 40
2, 326268, Control_c, 0, 64, 41
2, 326272, Note_on_c, 0, 62, 99
2, 326273, Note_on_c, 0, 71, 95
2, 326277, Note_on_c, 0, 47, 65
2, 326331, Note_on_c, 0, 62, 0
2, 326338, Note_on_c, 0, 47, 0
2, 326345, Control_c, 0, 64, 40
2, 326364, Control_c, 0, 64, 39
2, 326402, Note_on_c, 0, 49, 79
2, 326523, Note_on_c, 0, 49, 0
2, 326528, Note_on_c, 0, 59, 96
2, 326535, Note_on_c, 0, 50, 75
2, 326580, Note_on_c, 0, 59, 0
2, 326582, Note_on_c, 0, 50, 0
2, 326594, Control_c, 0, 64, 40
2, 326613, Control_c, 0, 64, 41
2, 326657, Note_on_c, 0, 47, 77
2, 326697, Note_on_c, 0, 47, 0
2, 326810, Note_on_c, 0, 67, 99
2, 326812, Note_on_c, 0, 52, 75
2, 326841, Note_on_c, 0, 71, 0
2, 326843, Control_c, 0, 64, 40
2, 326862, Control_c, 0, 64, 40
2, 326877, Note_on_c, 0, 52, 0
2, 326901, Control_c, 0, 64, 39
2, 326949, Note_on_c, 0, 50, 67
2, 326958, Control_c, 0, 64, 39
2, 326994, Note_on_c, 0, 50, 0
2, 327054, Control_c, 0, 64, 39
2, 327069, Note_on_c, 0, 76, 83
2, 327072, Note_on_c, 0, 49, 75
2, 327119, Note_on_c, 0, 49, 0
2, 327150, Control_c, 0, 64, 40
2, 327166, Note_on_c, 0, 76, 0
2, 327191, Note_on_c, 0, 47, 74
2, 327238, Note_on_c, 0, 47, 0
2, 327327, Note_on_c, 0, 69, 97
2, 327330, Note_on_c, 0, 49, 80
2, 327342, Control_c, 0, 64, 39
2, 327352, Note_on_c, 0, 67, 0
2, 327391, Note_on_c, 0, 49, 0
2, 327400, Control_c, 0, 64, 39
2, 327463, Note_on_c, 0, 52, 74
2, 327512, Note_on_c, 0, 52, 0
2, 327534, Control_c, 0, 64, 38
2, 327553, Control_c, 0, 64, 38
2, 327587, Note_on_c, 0, 50, 77
2, 327587, Note_on_c, 0, 66, 87
2, 327592, Control_c, 0, 64, 37
2, 327626, Note_on_c, 0, 69, 0
2, 327631, Note_on_c, 0, 50, 0
2, 327676, Note_on_c, 0, 66, 0
2, 327708, Note_on_c, 0, 64, 87
2, 327710, Note_on_c, 0, 49, 82
2, 327746, Control_c, 0, 64, 38
2, 327762, Note_on_c, 0, 49, 0
2, 327764, Control_c, 0, 64, 38
2, 327782, Note_on_c, 0, 64, 0
2, 327822, Control_c, 0, 64, 38
2, 327846, Note_on_c, 0, 50, 87
2, 327849, Note_on_c, 0, 66, 91
2, 327880, Control_c, 0, 64, 37
2, 327905, Note_on_c, 0, 50, 0
2, 327976, Note_on_c, 0, 52, 74
2, 328014, Control_c, 0, 64, 37
2, 328025, Note_on_c, 0, 52, 0
2, 328098, Note_on_c, 0, 74, 79
2, 328107, Note_on_c, 0, 54, 79
2, 328129, Control_c, 0, 64, 37
2, 328160, Note_on_c, 0, 54, 0
2, 328167, Control_c, 0, 64, 38
2, 328168, Note_on_c, 0, 74, 0
2, 328232, Note_on_c, 0, 50, 76
2, 328289, Note_on_c, 0, 50, 0
2, 328370, Note_on_c, 0, 52, 80
2, 328377, Note_on_c, 0, 67, 84
2, 328425, Note_on_c, 0, 66, 0
2, 328427, Note_on_c, 0, 52, 0
2, 328437, Control_c, 0, 64, 37
2, 328504, Note_on_c, 0, 50, 80
2, 328558, Note_on_c, 0, 50, 0
2, 328571, Control_c, 0, 64, 37
2, 328646, Note_on_c, 0, 71, 88
2, 328651, Note_on_c, 0, 52, 62
2, 328676, Note_on_c, 0, 53, 50
2, 328701, Note_on_c, 0, 52, 0
2, 328706, Control_c, 0, 64, 36
2, 328710, Note_on_c, 0, 53, 0
2, 328719, Note_on_c, 0, 71, 0
2, 328782, Note_on_c, 0, 54, 77
2, 328824, Note_on_c, 0, 54, 0
2, 328859, Control_c, 0, 64, 37
2, 328911, Note_on_c, 0, 64, 94
2, 328916, Note_on_c, 0, 55, 81
2, 328947, Note_on_c, 0, 67, 0
2, 328977, Note_on_c, 0, 55, 0
2, 329032, Control_c, 0, 64, 36
2, 329046, Note_on_c, 0, 54, 79
2, 329093, Note_on_c, 0, 54, 0
2, 329147, Control_c, 0, 64, 37
2, 329176, Note_on_c, 0, 52, 79
2, 329181, Note_on_c, 0, 72, 90
2, 329242, Note_on_c, 0, 52, 0
2, 329282, Note_on_c, 0, 72, 0
2, 329320, Control_c, 0, 64, 37
2, 329328, Note_on_c, 0, 55, 68
2, 329373, Note_on_c, 0, 55, 0
2, 329457, Note_on_c, 0, 54, 83
2, 329459, Note_on_c, 0, 70, 93
2, 329523, Note_on_c, 0, 64, 0
2, 329526, Note_on_c, 0, 54, 0
2, 329531, Control_c, 0, 64, 38
2, 329550, Control_c, 0, 64, 38
2, 329560, Note_on_c, 0, 70, 0
2, 329569, Control_c, 0, 64, 39
2, 329594, Note_on_c, 0, 56, 80
2, 329651, Note_on_c, 0, 56, 0
2, 329707, Note_on_c, 0, 66, 87
2, 329708, Note_on_c, 0, 62, 86
2, 329719, Note_on_c, 0, 58, 85
2, 329780, Note_on_c, 0, 58, 0
2, 329783, Note_on_c, 0, 62, 0
2, 329800, Control_c, 0, 64, 38
2, 329834, Note_on_c, 0, 54, 84
2, 329845, Note_on_c, 0, 61, 88
2, 329858, Control_c, 0, 64, 37
2, 329862, Note_on_c, 0, 66, 0
2, 329919, Note_on_c, 0, 54, 0
2, 329934, Control_c, 0, 64, 38
2, 329945, Note_on_c, 0, 61, 0
2, 329967, Note_on_c, 0, 59, 90
2, 329967, Note_on_c, 0, 62, 82
2, 330011, Control_c, 0, 64, 37
2, 330029, Note_on_c, 0, 59, 0
2, 330043, Note_on_c, 0, 62, 0
2, 330087, Control_c, 0, 64, 37
2, 330102, Note_on_c, 0, 71, 83
2, 330104, Note_on_c, 0, 47, 88
2, 330107, Control_c, 0, 64, 36
2, 330153, Note_on_c, 0, 47, 0
2, 330218, Note_on_c, 0, 59, 96
2, 330231, Note_on_c, 0, 73, 80
2, 330261, Control_c, 0, 64, 37
2, 330277, Note_on_c, 0, 71, 0
2, 330351, Note_on_c, 0, 74, 73
2, 330372, Note_on_c, 0, 73, 0
2, 330381, Note_on_c, 0, 74, 0
2, 330501, Note_on_c, 0, 61, 95
2, 330507, Note_on_c, 0, 65, 83
2, 330529, Control_c, 0, 64, 38
2, 330549, Control_c, 0, 64, 39
2, 330556, Note_on_c, 0, 59, 0
2, 330564, Note_on_c, 0, 65, 0
2, 330617, Note_on_c, 0, 57, 82
2, 330663, Note_on_c, 0, 57, 0
2, 330747, Note_on_c, 0, 73, 88
2, 330748, Note_on_c, 0, 56, 81
2, 330792, Note_on_c, 0, 56, 0
2, 330819, Note_on_c, 0, 73, 0
2, 330888, Note_on_c, 0, 59, 82
2, 330929, Note_on_c, 0, 59, 0
2, 331031, Note_on_c, 0, 57, 78
2, 331048, Note_on_c, 0, 66, 91
2, 331077, Note_on_c, 0, 57, 0
2, 331106, Control_c, 0, 64, 38
2, 331161, Note_on_c, 0, 56, 81
2, 331182, Control_c, 0, 64, 38
2, 331201, Control_c, 0, 64, 37
2, 331201, Control_c, 0, 67, 12
2, 331218, Note_on_c, 0, 56, 0
2, 331221, Control_c, 0, 67, 39
2, 331240, Control_c, 0, 64, 38
2, 331240, Control_c, 0, 67, 72
2, 331259, Control_c, 0, 64, 38
2, 331259, Control_c, 0, 67, 120
2, 331278, Control_c, 0, 64, 39
2, 331278, Control_c, 0, 67, 127
2, 331294, Note_on_c, 0, 54, 75
2, 331332, Note_on_c, 0, 54, 0
2, 331355, Control_c, 0, 64, 38
2, 331368, Note_on_c, 0, 61, 0
2, 331435, Note_on_c, 0, 57, 77
2, 331449, Control_c, 0, 64, 38
2, 331468, Control_c, 0, 64, 37
2, 331477, Note_on_c, 0, 57, 0
2, 331571, Note_on_c, 0, 56, 78
2, 331578, Note_on_c, 0, 59, 89
2, 331601, Note_on_c, 0, 66, 0
2, 331611, Note_on_c, 0, 56, 0
2, 331706, Note_on_c, 0, 57, 70
2, 331751, Note_on_c, 0, 57, 0
2, 331830, Note_on_c, 0, 65, 75
2, 331833, Control_c, 0, 64, 37
2, 331834, Note_on_c, 0, 59, 0
2, 331842, Note_on_c, 0, 56, 71
2, 331852, Control_c, 0, 64, 36
2, 331885, Note_on_c, 0, 56, 0
2, 331964, Note_on_c, 0, 66, 84
2, 331966, Note_on_c, 0, 54, 75
2, 331971, Note_on_c, 0, 65, 0
2, 332012, Note_on_c, 0, 54, 0
2, 332088, Note_on_c, 0, 53, 77
2, 332091, Note_on_c, 0, 68, 87
2, 332133, Note_on_c, 0, 53, 0
2, 332145, Note_on_c, 0, 66, 0
2, 332183, Note_on_c, 0, 68, 0
2, 332217, Note_on_c, 0, 54, 74
2, 332230, Note_on_c, 0, 69, 84
2, 332276, Note_on_c, 0, 54, 0
2, 332280, Note_on_c, 0, 69, 0
2, 332343, Note_on_c, 0, 71, 86
2, 332346, Note_on_c, 0, 56, 81
2, 332393, Note_on_c, 0, 56, 0
2, 332412, Note_on_c, 0, 71, 0
2, 332474, Note_on_c, 0, 68, 82
2, 332488, Note_on_c, 0, 53, 74
2, 332544, Control_c, 0, 64, 36
2, 332547, Note_on_c, 0, 68, 0
2, 332609, Note_on_c, 0, 71, 84
2, 332610, Note_on_c, 0, 53, 0
2, 332615, Note_on_c, 0, 54, 73
2, 332742, Note_on_c, 0, 69, 80
2, 332765, Note_on_c, 0, 71, 0
2, 332866, Note_on_c, 0, 68, 83
2, 332866, Note_on_c, 0, 69, 0
2, 332889, Control_c, 0, 64, 37
2, 332893, Note_on_c, 0, 56, 72
2, 332913, Note_on_c, 0, 54, 0
2, 332927, Control_c, 0, 64, 37
2, 332933, Note_on_c, 0, 68, 0
2, 332950, Note_on_c, 0, 56, 0
2, 333005, Note_on_c, 0, 66, 83
2, 333012, Note_on_c, 0, 57, 81
2, 333024, Control_c, 0, 64, 38
2, 333064, Note_on_c, 0, 57, 0
2, 333064, Note_on_c, 0, 66, 0
2, 333143, Note_on_c, 0, 74, 88
2, 333147, Note_on_c, 0, 59, 85
2, 333192, Note_on_c, 0, 59, 0
2, 333196, Control_c, 0, 64, 37
2, 333235, Control_c, 0, 64, 36
2, 333270, Note_on_c, 0, 73, 75
2, 333281, Note_on_c, 0, 57, 67
2, 333292, Control_c, 0, 64, 36
2, 333321, Note_on_c, 0, 57, 0
2, 333385, Note_on_c, 0, 71, 78
2, 333402, Note_on_c, 0, 56, 75
2, 333428, Note_on_c, 0, 73, 0
2, 333457, Note_on_c, 0, 56, 0
2, 333480, Note_on_c, 0, 71, 0
2, 333521, Note_on_c, 0, 54, 71
2, 333525, Note_on_c, 0, 69, 72
2, 333555, Note_on_c, 0, 54, 0
2, 333561, Control_c, 0, 64, 36
2, 333581, Note_on_c, 0, 69, 0
2, 333654, Note_on_c, 0, 68, 76
2, 333663, Note_on_c, 0, 52, 69
2, 333676, Control_c, 0, 64, 37
2, 333697, Note_on_c, 0, 52, 0
2, 333707, Note_on_c, 0, 74, 0
2, 333715, Control_c, 0, 64, 37
2, 333807, Note_on_c, 0, 54, 51
2, 333838, Note_on_c, 0, 54, 0
2, 333919, Note_on_c, 0, 73, 80
2, 333920, Note_on_c, 0, 52, 62
2, 333940, Note_on_c, 0, 68, 0
2, 333957, Note_on_c, 0, 52, 0
2, 333964, Control_c, 0, 64, 37
2, 333984, Control_c, 0, 64, 36
2, 334000, Note_on_c, 0, 73, 0
2, 334040, Note_on_c, 0, 50, 74
2, 334043, Note_on_c, 0, 71, 85
2, 334075, Note_on_c, 0, 50, 0
2, 334079, Control_c, 0, 64, 36
2, 334118, Control_c, 0, 64, 35
2, 334127, Note_on_c, 0, 71, 0
2, 334175, Control_c, 0, 64, 35
2, 334181, Note_on_c, 0, 73, 86
2, 334188, Note_on_c, 0, 52, 73
2, 334195, Control_c, 0, 64, 34
2, 334213, Control_c, 0, 64, 34
2, 334227, Note_on_c, 0, 52, 0
2, 334252, Control_c, 0, 64, 32
2, 334272, Control_c, 0, 64, 31
2, 334290, Control_c, 0, 64, 29
2, 334310, Control_c, 0, 64, 27
2, 334313, Note_on_c, 0, 50, 75
2, 334322, Note_on_c, 0, 71, 72
2, 334329, Control_c, 0, 64, 26
2, 334348, Control_c, 0, 64, 25
2, 334349, Note_on_c, 0, 50, 0
2, 334387, Control_c, 0, 64, 24
2, 334406, Control_c, 0, 64, 23
2, 334435, Note_on_c, 0, 49, 78
2, 334439, Note_on_c, 0, 69, 84
2, 334460, Note_on_c, 0, 71, 0
2, 334476, Note_on_c, 0, 49, 0
2, 334477, Note_on_c, 0, 73, 0
2, 334566, Note_on_c, 0, 69, 0
2, 334578, Note_on_c, 0, 52, 74
2, 334578, Note_on_c, 0, 68, 83
2, 334615, Note_on_c, 0, 52, 0
2, 334658, Note_on_c, 0, 68, 0
2, 334704, Note_on_c, 0, 50, 87
2, 334708, Note_on_c, 0, 66, 79
2, 334748, Note_on_c, 0, 50, 0
2, 334748, Note_on_c, 0, 66, 0
2, 334790, Control_c, 0, 64, 24
2, 334828, Control_c, 0, 64, 25
2, 334844, Note_on_c, 0, 52, 78
2, 334867, Control_c, 0, 64, 26
2, 334888, Note_on_c, 0, 52, 0
2, 334945, Note_on_c, 0, 78, 84
2, 334955, Note_on_c, 0, 69, 79
2, 334973, Note_on_c, 0, 50, 80
2, 334992, Note_on_c, 0, 69, 0
2, 335012, Note_on_c, 0, 50, 0
2, 335018, Note_on_c, 0, 78, 0
2, 335111, Note_on_c, 0, 49, 72
2, 335135, Control_c, 0, 64, 27
2, 335151, Note_on_c, 0, 49, 0
2, 335155, Control_c, 0, 64, 27
2, 335173, Control_c, 0, 64, 28
2, 335193, Control_c, 0, 64, 29
2, 335220, Note_on_c, 0, 71, 97
2, 335232, Note_on_c, 0, 50, 78
2, 335232, Note_on_c, 0, 68, 82
2, 335270, Note_on_c, 0, 50, 0
2, 335308, Control_c, 0, 64, 29
2, 335355, Note_on_c, 0, 49, 78
2, 335400, Note_on_c, 0, 49, 0
2, 335407, Control_c, 0, 64, 30
2, 335426, Control_c, 0, 64, 31
2, 335445, Control_c, 0, 64, 31
2, 335464, Control_c, 0, 64, 32
2, 335484, Note_on_c, 0, 47, 76
2, 335525, Note_on_c, 0, 47, 0
2, 335597, Note_on_c, 0, 68, 0
2, 335609, Note_on_c, 0, 66, 80
2, 335610, Note_on_c, 0, 50, 83
2, 335638, Control_c, 0, 64, 32
2, 335650, Note_on_c, 0, 71, 0
2, 335656, Control_c, 0, 64, 33
2, 335659, Note_on_c, 0, 50, 0
2, 335676, Control_c, 0, 64, 34
2, 335692, Note_on_c, 0, 66, 0
2, 335695, Control_c, 0, 64, 34
2, 335715, Control_c, 0, 64, 35
2, 335737, Note_on_c, 0, 65, 82
2, 335743, Note_on_c, 0, 49, 88
2, 335786, Note_on_c, 0, 65, 0
2, 335790, Note_on_c, 0, 49, 0
2, 335791, Control_c, 0, 64, 35
2, 335830, Control_c, 0, 64, 36
2, 335880, Note_on_c, 0, 50, 78
2, 335906, Control_c, 0, 64, 36
2, 335925, Control_c, 0, 64, 37
2, 335926, Note_on_c, 0, 50, 0
2, 335944, Control_c, 0, 64, 37
2, 335998, Note_on_c, 0, 69, 90
2, 335999, Note_on_c, 0, 61, 85
2, 336007, Note_on_c, 0, 49, 84
2, 336041, Control_c, 0, 64, 38
2, 336061, Note_on_c, 0, 61, 0
2, 336063, Note_on_c, 0, 49, 0
2, 336120, Note_on_c, 0, 68, 88
2, 336137, Note_on_c, 0, 47, 79
2, 336163, Note_on_c, 0, 69, 0
2, 336175, Control_c, 0, 64, 37
2, 336183, Note_on_c, 0, 47, 0
2, 336195, Control_c, 0, 64, 36
2, 336213, Control_c, 0, 64, 35
2, 336229, Control_c, 0, 64, 34
2, 336261, Note_on_c, 0, 69, 91
2, 336266, Note_on_c, 0, 66, 87
2, 336267, Note_on_c, 0, 49, 88
2, 336271, Control_c, 0, 64, 34
2, 336331, Note_on_c, 0, 66, 0
2, 336331, Note_on_c, 0, 68, 0
2, 336333, Note_on_c, 0, 49, 0
2, 336386, Control_c, 0, 64, 33
2, 336397, Note_on_c, 0, 47, 80
2, 336444, Control_c, 0, 64, 32
2, 336448, Note_on_c, 0, 47, 0
2, 336521, Control_c, 0, 64, 32
2, 336525, Note_on_c, 0, 45, 79
2, 336532, Note_on_c, 0, 66, 90
2, 336540, Control_c, 0, 64, 31
2, 336559, Control_c, 0, 64, 29
2, 336579, Note_on_c, 0, 45, 0
2, 336659, Note_on_c, 0, 49, 82
2, 336675, Control_c, 0, 64, 29
2, 336693, Control_c, 0, 64, 27
2, 336716, Note_on_c, 0, 49, 0
2, 336732, Control_c, 0, 64, 27
2, 336790, Control_c, 0, 64, 26
2, 336796, Note_on_c, 0, 68, 91
2, 336801, Note_on_c, 0, 47, 72
2, 336809, Control_c, 0, 64, 25
2, 336827, Control_c, 0, 64, 24
2, 336844, Note_on_c, 0, 69, 0
2, 336857, Note_on_c, 0, 47, 0
2, 336924, Control_c, 0, 64, 23
2, 336929, Note_on_c, 0, 49, 80
2, 336975, Note_on_c, 0, 49, 0
2, 337001, Control_c, 0, 64, 22
2, 337067, Note_on_c, 0, 47, 72
2, 337114, Note_on_c, 0, 47, 0
2, 337190, Note_on_c, 0, 45, 73
2, 337224, Note_on_c, 0, 45, 0
2, 337341, Note_on_c, 0, 47, 73
2, 337363, Note_on_c, 0, 65, 69
2, 337367, Control_c, 0, 64, 23
2, 337381, Note_on_c, 0, 47, 0
2, 337386, Note_on_c, 0, 66, 0
2, 337463, Control_c, 0, 64, 24
2, 337486, Note_on_c, 0, 45, 65
2, 337501, Control_c, 0, 64, 25
2, 337521, Control_c, 0, 64, 26
2, 337527, Note_on_c, 0, 45, 0
2, 337601, Note_on_c, 0, 44, 68
2, 337626, Note_on_c, 0, 65, 0
2, 337635, Note_on_c, 0, 44, 0
2, 337691, Control_c, 0, 64, 27
2, 337707, Note_on_c, 0, 68, 0
2, 337739, Note_on_c, 0, 47, 61
2, 337789, Note_on_c, 0, 47, 0
2, 337880, Note_on_c, 0, 45, 65
2, 337890, Note_on_c, 0, 66, 73
2, 337919, Note_on_c, 0, 45, 0
2, 337941, Control_c, 0, 64, 26
2, 338018, Note_on_c, 0, 44, 68
2, 338061, Note_on_c, 0, 44, 0
2, 338132, Control_c, 0, 64, 25
2, 338140, Note_on_c, 0, 42, 73
2, 338147, Note_on_c, 0, 73, 79
2, 338180, Note_on_c, 0, 42, 0
2, 338284, Note_on_c, 0, 44, 68
2, 338323, Note_on_c, 0, 44, 0
2, 338400, Note_on_c, 0, 78, 84
2, 338406, Note_on_c, 0, 45, 71
2, 338434, Note_on_c, 0, 73, 0
2, 338440, Control_c, 0, 64, 24
2, 338450, Note_on_c, 0, 45, 0
2, 338528, Note_on_c, 0, 47, 70
2, 338571, Note_on_c, 0, 47, 0
2, 338658, Note_on_c, 0, 49, 73
2, 338685, Note_on_c, 0, 81, 84
2, 338707, Note_on_c, 0, 49, 0
2, 338717, Note_on_c, 0, 78, 0
2, 338799, Note_on_c, 0, 51, 70
2, 338840, Note_on_c, 0, 51, 0
2, 338881, Control_c, 0, 64, 25
2, 338935, Note_on_c, 0, 80, 83
2, 338939, Note_on_c, 0, 52, 70
2, 338943, Note_on_c, 0, 66, 0
2, 338971, Note_on_c, 0, 81, 0
2, 338986, Note_on_c, 0, 52, 0
2, 339073, Note_on_c, 0, 51, 66
2, 339115, Note_on_c, 0, 51, 0
2, 339192, Note_on_c, 0, 68, 74
2, 339203, Note_on_c, 0, 49, 72
2, 339243, Note_on_c, 0, 49, 0
2, 339343, Note_on_c, 0, 51, 66
2, 339390, Note_on_c, 0, 51, 0
2, 339458, Note_on_c, 0, 73, 80
2, 339465, Note_on_c, 0, 52, 71
2, 339485, Note_on_c, 0, 68, 0
2, 339517, Note_on_c, 0, 52, 0
2, 339613, Note_on_c, 0, 54, 71
2, 339664, Note_on_c, 0, 54, 0
2, 339684, Control_c, 0, 64, 26
2, 339732, Note_on_c, 0, 76, 78
2, 339744, Note_on_c, 0, 56, 73
2, 339752, Note_on_c, 0, 73, 0
2, 339788, Note_on_c, 0, 56, 0
2, 339799, Control_c, 0, 64, 27
2, 339878, Note_on_c, 0, 58, 68
2, 339914, Control_c, 0, 64, 27
2, 339918, Note_on_c, 0, 58, 0
2, 340008, Note_on_c, 0, 60, 69
2, 340012, Note_on_c, 0, 75, 85
2, 340018, Note_on_c, 0, 76, 0
2, 340061, Note_on_c, 0, 60, 0
2, 340086, Note_on_c, 0, 80, 0
2, 340148, Control_c, 0, 64, 28
2, 340153, Note_on_c, 0, 58, 64
2, 340203, Note_on_c, 0, 58, 0
2, 340276, Note_on_c, 0, 81, 82
2, 340285, Note_on_c, 0, 60, 67
2, 340333, Note_on_c, 0, 60, 0
2, 340421, Note_on_c, 0, 61, 67
2, 340465, Note_on_c, 0, 61, 0
2, 340498, Note_on_c, 0, 81, 0
2, 340550, Note_on_c, 0, 80, 82
2, 340554, Note_on_c, 0, 60, 63
2, 340603, Note_on_c, 0, 60, 0
2, 340682, Note_on_c, 0, 61, 72
2, 340734, Note_on_c, 0, 61, 0
2, 340788, Note_on_c, 0, 78, 80
2, 340802, Note_on_c, 0, 63, 78
2, 340822, Note_on_c, 0, 80, 0
2, 340844, Note_on_c, 0, 63, 0
2, 340908, Note_on_c, 0, 78, 0
2, 340946, Note_on_c, 0, 60, 58
2, 340978, Note_on_c, 0, 60, 0
2, 340992, Note_on_c, 0, 75, 0
2, 341059, Note_on_c, 0, 61, 76
2, 341059, Note_on_c, 0, 76, 84
2, 341112, Note_on_c, 0, 61, 0
2, 341193, Note_on_c, 0, 63, 74
2, 341231, Note_on_c, 0, 63, 0
2, 341322, Note_on_c, 0, 68, 83
2, 341323, Note_on_c, 0, 64, 68
2, 341365, Note_on_c, 0, 64, 0
2, 341453, Control_c, 0, 64, 29
2, 341456, Note_on_c, 0, 63, 66
2, 341511, Note_on_c, 0, 63, 0
2, 341526, Note_on_c, 0, 68, 0
2, 341572, Note_on_c, 0, 73, 86
2, 341578, Note_on_c, 0, 61, 64
2, 341588, Control_c, 0, 64, 29
2, 341611, Note_on_c, 0, 61, 0
2, 341706, Note_on_c, 0, 59, 75
2, 341751, Note_on_c, 0, 59, 0
2, 341805, Note_on_c, 0, 73, 0
2, 341835, Note_on_c, 0, 57, 74
2, 341837, Note_on_c, 0, 71, 82
2, 341874, Note_on_c, 0, 57, 0
2, 341968, Note_on_c, 0, 56, 77
2, 342008, Note_on_c, 0, 71, 0
2, 342013, Note_on_c, 0, 56, 0
2, 342102, Note_on_c, 0, 54, 74
2, 342121, Note_on_c, 0, 69, 83
2, 342151, Note_on_c, 0, 54, 0
2, 342163, Control_c, 0, 64, 30
2, 342173, Note_on_c, 0, 76, 0
2, 342223, Note_on_c, 0, 52, 76
2, 342263, Note_on_c, 0, 52, 0
2, 342366, Note_on_c, 0, 54, 69
2, 342371, Note_on_c, 0, 76, 85
2, 342410, Note_on_c, 0, 54, 0
2, 342503, Note_on_c, 0, 56, 73
2, 342546, Note_on_c, 0, 56, 0
2, 342567, Control_c, 0, 64, 31
2, 342631, Note_on_c, 0, 54, 74
2, 342643, Note_on_c, 0, 75, 89
2, 342677, Note_on_c, 0, 54, 0
2, 342680, Note_on_c, 0, 76, 0
2, 342720, Control_c, 0, 64, 31
2, 342740, Control_c, 0, 64, 32
2, 342759, Control_c, 0, 64, 32
2, 342767, Note_on_c, 0, 56, 75
2, 342777, Control_c, 0, 64, 33
2, 342808, Note_on_c, 0, 56, 0
2, 342874, Control_c, 0, 64, 34
2, 342893, Control_c, 0, 64, 35
2, 342896, Note_on_c, 0, 57, 75
2, 342905, Note_on_c, 0, 78, 88
2, 342912, Control_c, 0, 64, 35
2, 342934, Note_on_c, 0, 57, 0
2, 342936, Note_on_c, 0, 75, 0
2, 342989, Control_c, 0, 64, 36
2, 343017, Note_on_c, 0, 54, 80
2, 343025, Note_on_c, 0, 78, 0
2, 343068, Note_on_c, 0, 54, 0
2, 343157, Note_on_c, 0, 56, 84
2, 343159, Note_on_c, 0, 72, 89
2, 343184, Note_on_c, 0, 69, 0
2, 343213, Note_on_c, 0, 56, 0
2, 343291, Note_on_c, 0, 54, 80
2, 343296, Control_c, 0, 64, 36
2, 343344, Note_on_c, 0, 54, 0
2, 343373, Control_c, 0, 67, 122
2, 343392, Control_c, 0, 64, 37
2, 343392, Control_c, 0, 67, 113
2, 343408, Note_on_c, 0, 63, 78
2, 343411, Control_c, 0, 67, 97
2, 343419, Note_on_c, 0, 56, 81
2, 343431, Control_c, 0, 64, 37
2, 343431, Control_c, 0, 67, 77
2, 343450, Control_c, 0, 67, 56
2, 343464, Note_on_c, 0, 56, 0
2, 343469, Control_c, 0, 67, 40
2, 343479, Note_on_c, 0, 63, 0
2, 343488, Control_c, 0, 67, 28
2, 343508, Control_c, 0, 64, 38
2, 343508, Control_c, 0, 67, 12
2, 343527, Control_c, 0, 64, 38
2, 343527, Control_c, 0, 67, 0
2, 343546, Control_c, 0, 64, 39
2, 343552, Note_on_c, 0, 57, 79
2, 343565, Control_c, 0, 64, 40
2, 343585, Control_c, 0, 64, 40
2, 343603, Control_c, 0, 64, 41
2, 343616, Note_on_c, 0, 57, 0
2, 343623, Control_c, 0, 64, 42
2, 343642, Control_c, 0, 64, 42
2, 343662, Control_c, 0, 64, 43
2, 343679, Note_on_c, 0, 56, 82
2, 343680, Control_c, 0, 64, 44
2, 343687, Note_on_c, 0, 68, 87
2, 343700, Control_c, 0, 64, 44
2, 343719, Control_c, 0, 64, 45
2, 343741, Note_on_c, 0, 56, 0
2, 343757, Control_c, 0, 64, 45
2, 343776, Control_c, 0, 64, 46
2, 343812, Note_on_c, 0, 54, 72
2, 343834, Control_c, 0, 64, 46
2, 343845, Note_on_c, 0, 54, 0
2, 343947, Note_on_c, 0, 52, 88
2, 343958, Note_on_c, 0, 75, 85
2, 343962, Note_on_c, 0, 66, 83
2, 343999, Note_on_c, 0, 68, 0
2, 344005, Note_on_c, 0, 52, 0
2, 344007, Control_c, 0, 64, 47
2, 344022, Note_on_c, 0, 72, 0
2, 344045, Control_c, 0, 64, 47
2, 344083, Control_c, 0, 64, 47
2, 344086, Note_on_c, 0, 51, 84
2, 344103, Control_c, 0, 64, 46
2, 344122, Control_c, 0, 64, 46
2, 344145, Note_on_c, 0, 66, 0
2, 344149, Note_on_c, 0, 51, 0
2, 344180, Control_c, 0, 64, 46
2, 344194, Note_on_c, 0, 68, 89
2, 344213, Note_on_c, 0, 52, 97
2, 344237, Control_c, 0, 64, 47
2, 344247, Note_on_c, 0, 75, 0
2, 344276, Control_c, 0, 64, 47
2, 344314, Control_c, 0, 64, 48
2, 344347, Note_on_c, 0, 66, 85
2, 344352, Control_c, 0, 64, 47
2, 344391, Control_c, 0, 64, 48
2, 344410, Control_c, 0, 64, 48
2, 344448, Control_c, 0, 64, 48
2, 344448, Note_on_c, 0, 52, 0
2, 344468, Control_c, 0, 64, 47
2, 344470, Note_on_c, 0, 66, 0
2, 344488, Note_on_c, 0, 49, 85
2, 344492, Note_on_c, 0, 64, 83
2, 344535, Note_on_c, 0, 49, 0
2, 344537, Note_on_c, 0, 68, 0
2, 344545, Control_c, 0, 64, 47
2, 344566, Note_on_c, 0, 64, 0
2, 344583, Control_c, 0, 64, 46
2, 344626, Note_on_c, 0, 63, 84
2, 344696, Note_on_c, 0, 63, 0
2, 344717, Control_c, 0, 64, 47
2, 344736, Control_c, 0, 64, 47
2, 344759, Note_on_c, 0, 57, 93
2, 344764, Note_on_c, 0, 61, 84
2, 344774, Control_c, 0, 64, 48
2, 344813, Control_c, 0, 64, 48
2, 344863, Note_on_c, 0, 61, 0
2, 344889, Control_c, 0, 64, 48
2, 344912, Note_on_c, 0, 63, 65
2, 344952, Note_on_c, 0, 63, 0
2, 344985, Control_c, 0, 64, 48
2, 345004, Note_on_c, 0, 64, 75
2, 345027, Note_on_c, 0, 73, 84
2, 345042, Control_c, 0, 64, 49
2, 345062, Control_c, 0, 64, 50
2, 345092, Note_on_c, 0, 73, 0
2, 345102, Note_on_c, 0, 64, 0
2, 345157, Note_on_c, 0, 61, 77
2, 345196, Control_c, 0, 64, 50
2, 345230, Note_on_c, 0, 61, 0
2, 345241, Note_on_c, 0, 57, 0
2, 345276, Note_on_c, 0, 57, 65
2, 345282, Note_on_c, 0, 71, 91
2, 345287, Note_on_c, 0, 63, 87
2, 345312, Control_c, 0, 64, 50
2, 345407, Control_c, 0, 64, 49
2, 345415, Note_on_c, 0, 73, 81
2, 345434, Note_on_c, 0, 71, 0
2, 345465, Control_c, 0, 64, 49
2, 345527, Note_on_c, 0, 56, 89
2, 345531, Note_on_c, 0, 57, 0
2, 345536, Note_on_c, 0, 71, 83
2, 345572, Note_on_c, 0, 63, 0
2, 345575, Note_on_c, 0, 73, 0
2, 345589, Note_on_c, 0, 56, 0
2, 345637, Note_on_c, 0, 71, 0
2, 345638, Control_c, 0, 64, 49
2, 345660, Note_on_c, 0, 54, 88
2, 345662, Note_on_c, 0, 69, 88
2, 345695, Control_c, 0, 64, 50
2, 345728, Note_on_c, 0, 54, 0
2, 345733, Control_c, 0, 64, 49
2, 345788, Note_on_c, 0, 71, 83
2, 345789, Note_on_c, 0, 56, 98
2, 345810, Note_on_c, 0, 69, 0
2, 345887, Control_c, 0, 64, 50
2, 345914, Note_on_c, 0, 69, 86
2, 345939, Note_on_c, 0, 71, 0
2, 345945, Control_c, 0, 64, 49
2, 346033, Note_on_c, 0, 64, 85
2, 346037, Note_on_c, 0, 69, 0
2, 346041, Note_on_c, 0, 68, 81
2, 346079, Control_c, 0, 64, 49
2, 346099, Control_c, 0, 64, 49
2, 346151, Note_on_c, 0, 64, 0
2, 346155, Note_on_c, 0, 71, 86
2, 346173, Note_on_c, 0, 68, 0
2, 346300, Note_on_c, 0, 71, 0
2, 346313, Note_on_c, 0, 69, 85
2, 346314, Note_on_c, 0, 61, 85
2, 346393, Note_on_c, 0, 56, 0
2, 346409, Note_on_c, 0, 61, 0
2, 346438, Note_on_c, 0, 71, 77
2, 346440, Note_on_c, 0, 69, 0
2, 346566, Note_on_c, 0, 69, 88
2, 346576, Note_on_c, 0, 64, 75
2, 346579, Control_c, 0, 64, 49
2, 346582, Note_on_c, 0, 71, 0
2, 346592, Note_on_c, 0, 61, 86
2, 346624, Note_on_c, 0, 64, 0
2, 346647, Note_on_c, 0, 69, 0
2, 346655, Note_on_c, 0, 61, 0
2, 346709, Note_on_c, 0, 68, 82
2, 346732, Control_c, 0, 64, 49
2, 346816, Note_on_c, 0, 68, 0
2, 346865, Note_on_c, 0, 54, 92
2, 346867, Note_on_c, 0, 69, 94
2, 346871, Note_on_c, 0, 63, 88
2, 346886, Control_c, 0, 64, 49
2, 346905, Control_c, 0, 64, 48
2, 346924, Control_c, 0, 64, 47
2, 346944, Control_c, 0, 64, 47
2, 346982, Control_c, 0, 67, 27
2, 346999, Note_on_c, 0, 68, 78
2, 347001, Control_c, 0, 64, 46
2, 347001, Control_c, 0, 67, 44
2, 347021, Control_c, 0, 67, 66
2, 347023, Note_on_c, 0, 69, 0
2, 347039, Control_c, 0, 67, 109
2, 347059, Control_c, 0, 67, 127
2, 347125, Note_on_c, 0, 66, 73
2, 347135, Control_c, 0, 64, 46
2, 347147, Note_on_c, 0, 68, 0
2, 347155, Control_c, 0, 64, 44
2, 347173, Control_c, 0, 64, 44
2, 347193, Control_c, 0, 64, 43
2, 347250, Control_c, 0, 64, 44
2, 347263, Note_on_c, 0, 69, 82
2, 347275, Note_on_c, 0, 66, 0
2, 347277, Note_on_c, 0, 61, 84
2, 347289, Control_c, 0, 64, 44
2, 347327, Control_c, 0, 64, 45
2, 347331, Note_on_c, 0, 63, 0
2, 347344, Note_on_c, 0, 61, 0
2, 347347, Control_c, 0, 64, 46
2, 347366, Control_c, 0, 64, 46
2, 347390, Note_on_c, 0, 68, 85
2, 347397, Note_on_c, 0, 60, 83
2, 347429, Note_on_c, 0, 69, 0
2, 347442, Control_c, 0, 64, 47
2, 347448, Note_on_c, 0, 60, 0
2, 347456, Note_on_c, 0, 54, 0
2, 347462, Control_c, 0, 64, 47
2, 347481, Control_c, 0, 64, 48
2, 347537, Note_on_c, 0, 69, 82
2, 347543, Note_on_c, 0, 68, 0
2, 347615, Control_c, 0, 64, 47
2, 347649, Note_on_c, 0, 69, 0
2, 347652, Note_on_c, 0, 56, 88
2, 347656, Note_on_c, 0, 68, 93
2, 347666, Note_on_c, 0, 52, 76
2, 347704, Note_on_c, 0, 56, 0
2, 347711, Note_on_c, 0, 52, 0
2, 347768, Control_c, 0, 64, 47
2, 347779, Note_on_c, 0, 51, 80
2, 347779, Note_on_c, 0, 68, 0
2, 347787, Note_on_c, 0, 66, 85
2, 347806, Control_c, 0, 64, 47
2, 347844, Note_on_c, 0, 51, 0
2, 347845, Control_c, 0, 64, 47
2, 347873, Note_on_c, 0, 66, 0
2, 347903, Control_c, 0, 64, 47
2, 347908, Note_on_c, 0, 68, 88
2, 347912, Note_on_c, 0, 52, 90
2, 347917, Note_on_c, 0, 61, 90
2, 347960, Control_c, 0, 64, 47
2, 347974, Note_on_c, 0, 52, 0
2, 348048, Note_on_c, 0, 66, 77
2, 348076, Note_on_c, 0, 68, 0
2, 348114, Control_c, 0, 64, 47
2, 348166, Note_on_c, 0, 64, 80
2, 348182, Note_on_c, 0, 49, 86
2, 348182, Note_on_c, 0, 66, 0
2, 348232, Note_on_c, 0, 49, 0
2, 348298, Note_on_c, 0, 68, 81
2, 348311, Note_on_c, 0, 64, 0
2, 348344, Control_c, 0, 64, 48
2, 348383, Control_c, 0, 64, 48
2, 348448, Note_on_c, 0, 66, 82
2, 348455, Note_on_c, 0, 52, 88
2, 348465, Note_on_c, 0, 68, 0
2, 348539, Control_c, 0, 64, 48
2, 348554, Note_on_c, 0, 52, 0
2, 348568, Note_on_c, 0, 68, 86
2, 348570, Note_on_c, 0, 51, 79
2, 348578, Note_on_c, 0, 66, 0
2, 348647, Note_on_c, 0, 51, 0
2, 348662, Note_on_c, 0, 52, 79
2, 348695, Note_on_c, 0, 66, 79
2, 348709, Note_on_c, 0, 68, 0
2, 348723, Note_on_c, 0, 52, 0
2, 348731, Control_c, 0, 64, 48
2, 348749, Note_on_c, 0, 51, 83
2, 348751, Control_c, 0, 64, 49
2, 348820, Note_on_c, 0, 51, 0
2, 348824, Note_on_c, 0, 64, 79
2, 348826, Note_on_c, 0, 66, 0
2, 348833, Note_on_c, 0, 63, 29
2, 348834, Note_on_c, 0, 52, 81
2, 348837, Note_on_c, 0, 61, 0
2, 348894, Note_on_c, 0, 63, 0
2, 348902, Note_on_c, 0, 64, 0
2, 348912, Note_on_c, 0, 52, 0
2, 348933, Note_on_c, 0, 51, 82
2, 348942, Control_c, 0, 64, 48
2, 348969, Note_on_c, 0, 66, 81
2, 348985, Note_on_c, 0, 60, 82
2, 349000, Control_c, 0, 64, 48
2, 349010, Note_on_c, 0, 51, 0
2, 349018, Note_on_c, 0, 52, 80
2, 349019, Control_c, 0, 64, 47
2, 349096, Note_on_c, 0, 52, 0
2, 349106, Note_on_c, 0, 51, 74
2, 349121, Note_on_c, 0, 64, 77
2, 349138, Note_on_c, 0, 66, 0
2, 349154, Control_c, 0, 64, 47
2, 349172, Control_c, 0, 64, 46
2, 349175, Note_on_c, 0, 51, 0
2, 349183, Note_on_c, 0, 52, 71
2, 349192, Control_c, 0, 64, 46
2, 349243, Note_on_c, 0, 52, 0
2, 349245, Note_on_c, 0, 51, 61
2, 349245, Note_on_c, 0, 63, 79
2, 349251, Note_on_c, 0, 64, 0
2, 349261, Note_on_c, 0, 60, 0
2, 349300, Note_on_c, 0, 51, 0
2, 349312, Note_on_c, 0, 52, 68
2, 349376, Note_on_c, 0, 66, 81
2, 349386, Note_on_c, 0, 52, 0
2, 349388, Note_on_c, 0, 63, 0
2, 349398, Note_on_c, 0, 51, 65
2, 349520, Note_on_c, 0, 49, 88
2, 349523, Note_on_c, 0, 64, 86
2, 349529, Note_on_c, 0, 61, 86
2, 349530, Note_on_c, 0, 51, 0
2, 349542, Note_on_c, 0, 66, 0
2, 349557, Control_c, 0, 64, 46
2, 349575, Note_on_c, 0, 61, 0
2, 349584, Note_on_c, 0, 64, 0
2, 349586, Note_on_c, 0, 49, 0
2, 349654, Note_on_c, 0, 48, 80
2, 349711, Note_on_c, 0, 48, 0
2, 349748, Control_c, 0, 64, 47
2, 349768, Control_c, 0, 67, 119
2, 349778, Note_on_c, 0, 49, 90
2, 349781, Note_on_c, 0, 56, 86
2, 349786, Control_c, 0, 64, 47
2, 349786, Control_c, 0, 67, 96
2, 349806, Control_c, 0, 64, 48
2, 349806, Control_c, 0, 67, 77
2, 349825, Control_c, 0, 64, 48
2, 349825, Control_c, 0, 67, 63
2, 349844, Note_on_c, 0, 49, 0
2, 349844, Note_on_c, 0, 56, 0
2, 349845, Control_c, 0, 67, 53
2, 349863, Control_c, 0, 64, 49
2, 349863, Control_c, 0, 67, 43
2, 349883, Control_c, 0, 67, 29
2, 349902, Control_c, 0, 67, 16
2, 349919, Note_on_c, 0, 51, 84
2, 349921, Control_c, 0, 64, 49
2, 349921, Control_c, 0, 67, 0
2, 349940, Control_c, 0, 64, 50
2, 349960, Control_c, 0, 64, 50
2, 349980, Note_on_c, 0, 51, 0
2, 349998, Control_c, 0, 64, 51
2, 350050, Note_on_c, 0, 61, 89
2, 350055, Note_on_c, 0, 52, 86
2, 350113, Note_on_c, 0, 52, 0
2, 350132, Control_c, 0, 64, 51
2, 350187, Note_on_c, 0, 54, 82
2, 350257, Note_on_c, 0, 54, 0
2, 350277, Note_on_c, 0, 61, 0
2, 350303, Note_on_c, 0, 55, 81
2, 350322, Note_on_c, 0, 64, 89
2, 350344, Note_on_c, 0, 55, 0
2, 350389, Note_on_c, 0, 64, 0
2, 350401, Control_c, 0, 64, 52
2, 350431, Note_on_c, 0, 52, 79
2, 350440, Control_c, 0, 64, 51
2, 350459, Control_c, 0, 64, 51
2, 350472, Note_on_c, 0, 52, 0
2, 350478, Control_c, 0, 64, 50
2, 350574, Control_c, 0, 64, 50
2, 350584, Note_on_c, 0, 54, 80
2, 350594, Control_c, 0, 64, 49
2, 350596, Note_on_c, 0, 58, 91
2, 350628, Note_on_c, 0, 54, 0
2, 350708, Control_c, 0, 64, 49
2, 350722, Note_on_c, 0, 55, 74
2, 350774, Note_on_c, 0, 55, 0
2, 350823, Control_c, 0, 64, 49
2, 350843, Control_c, 0, 64, 50
2, 350843, Note_on_c, 0, 54, 85
2, 350850, Note_on_c, 0, 67, 71
2, 350881, Control_c, 0, 64, 50
2, 350905, Note_on_c, 0, 54, 0
2, 350958, Control_c, 0, 64, 51
2, 350977, Control_c, 0, 64, 51
2, 350997, Control_c, 0, 64, 52
2, 350999, Note_on_c, 0, 52, 78
2, 351003, Note_on_c, 0, 58, 0
2, 351054, Note_on_c, 0, 52, 0
2, 351112, Control_c, 0, 64, 53
2, 351117, Note_on_c, 0, 66, 81
2, 351120, Note_on_c, 0, 59, 81
2, 351121, Note_on_c, 0, 50, 83
2, 351165, Note_on_c, 0, 67, 0
2, 351169, Control_c, 0, 64, 52
2, 351187, Note_on_c, 0, 50, 0
2, 351259, Note_on_c, 0, 49, 81
2, 351261, Note_on_c, 0, 66, 0
2, 351305, Note_on_c, 0, 49, 0
2, 351323, Control_c, 0, 64, 52
2, 351342, Control_c, 0, 64, 51
2, 351383, Note_on_c, 0, 64, 80
2, 351388, Note_on_c, 0, 61, 75
2, 351390, Note_on_c, 0, 47, 83
2, 351397, Note_on_c, 0, 59, 0
2, 351419, Control_c, 0, 64, 51
2, 351419, Control_c, 0, 67, 37
2, 351438, Control_c, 0, 64, 50
2, 351438, Control_c, 0, 67, 92
2, 351440, Note_on_c, 0, 47, 0
2, 351457, Control_c, 0, 64, 46
2, 351457, Control_c, 0, 67, 127
2, 351477, Control_c, 0, 64, 24
2, 351495, Control_c, 0, 64, 0
2, 351525, Note_on_c, 0, 46, 73
2, 351527, Note_on_c, 0, 61, 0
2, 351570, Note_on_c, 0, 46, 0
2, 351660, Note_on_c, 0, 47, 75
2, 351673, Note_on_c, 0, 62, 79
2, 351704, Note_on_c, 0, 64, 0
2, 351705, Note_on_c, 0, 47, 0
2, 351740, Note_on_c, 0, 62, 0
2, 351794, Note_on_c, 0, 42, 66
2, 351837, Note_on_c, 0, 42, 0
2, 351929, Note_on_c, 0, 47, 67
2, 351934, Note_on_c, 0, 54, 67
2, 351971, Note_on_c, 0, 47, 0
2, 351979, Note_on_c, 0, 54, 0
2, 352205, Note_on_c, 0, 59, 72
2, 352215, Note_on_c, 0, 50, 69
2, 352255, Note_on_c, 0, 50, 0
2, 352360, Note_on_c, 0, 52, 54
2, 352398, Note_on_c, 0, 52, 0
2, 352465, Note_on_c, 0, 62, 69
2, 352484, Note_on_c, 0, 54, 67
2, 352500, Note_on_c, 0, 59, 0
2, 352518, Note_on_c, 0, 54, 0
2, 352536, Note_on_c, 0, 62, 0
2, 352627, Note_on_c, 0, 50, 65
2, 352665, Note_on_c, 0, 50, 0
2, 352756, Note_on_c, 0, 56, 77
2, 352767, Note_on_c, 0, 52, 70
2, 352807, Note_on_c, 0, 52, 0
2, 352899, Note_on_c, 0, 54, 74
2, 352945, Note_on_c, 0, 54, 0
2, 353024, Note_on_c, 0, 66, 73
2, 353029, Note_on_c, 0, 52, 72
2, 353073, Note_on_c, 0, 52, 0
2, 353152, Note_on_c, 0, 50, 73
2, 353175, Note_on_c, 0, 56, 0
2, 353200, Note_on_c, 0, 50, 0
2, 353291, Note_on_c, 0, 49, 79
2, 353298, Note_on_c, 0, 64, 73
2, 353302, Note_on_c, 0, 57, 70
2, 353334, Note_on_c, 0, 49, 0
2, 353360, Note_on_c, 0, 66, 0
2, 353397, Note_on_c, 0, 64, 0
2, 353427, Note_on_c, 0, 47, 72
2, 353470, Note_on_c, 0, 47, 0
2, 353553, Note_on_c, 0, 45, 72
2, 353565, Note_on_c, 0, 62, 77
2, 353569, Note_on_c, 0, 59, 77
2, 353586, Note_on_c, 0, 57, 0
2, 353602, Note_on_c, 0, 45, 0
2, 353691, Note_on_c, 0, 44, 70
2, 353741, Note_on_c, 0, 44, 0
2, 353830, Note_on_c, 0, 45, 75
2, 353830, Note_on_c, 0, 61, 85
2, 353843, Note_on_c, 0, 62, 0
2, 353880, Note_on_c, 0, 59, 0
2, 353886, Note_on_c, 0, 45, 0
2, 353960, Note_on_c, 0, 40, 70
2, 354001, Note_on_c, 0, 40, 0
2, 354093, Note_on_c, 0, 45, 74
2, 354105, Note_on_c, 0, 57, 80
2, 354153, Note_on_c, 0, 45, 0
2, 354165, Note_on_c, 0, 57, 0
2, 354225, Note_on_c, 0, 47, 72
2, 354239, Note_on_c, 0, 56, 84
2, 354269, Note_on_c, 0, 47, 0
2, 354324, Note_on_c, 0, 56, 0
2, 354357, Control_c, 0, 64, 15
2, 354359, Note_on_c, 0, 49, 79
2, 354375, Control_c, 0, 64, 19
2, 354375, Control_c, 0, 67, 123
2, 354376, Note_on_c, 0, 57, 87
2, 354395, Control_c, 0, 64, 21
2, 354395, Control_c, 0, 67, 108
2, 354402, Note_on_c, 0, 61, 0
2, 354409, Note_on_c, 0, 49, 0
2, 354414, Control_c, 0, 64, 22
2, 354414, Control_c, 0, 67, 95
2, 354434, Control_c, 0, 64, 26
2, 354434, Control_c, 0, 67, 83
2, 354452, Control_c, 0, 64, 29
2, 354452, Control_c, 0, 67, 70
2, 354472, Control_c, 0, 64, 34
2, 354472, Control_c, 0, 67, 55
2, 354492, Control_c, 0, 64, 38
2, 354492, Control_c, 0, 67, 34
2, 354496, Note_on_c, 0, 50, 79
2, 354510, Control_c, 0, 64, 41
2, 354510, Control_c, 0, 67, 13
2, 354530, Control_c, 0, 64, 42
2, 354530, Control_c, 0, 67, 0
2, 354545, Note_on_c, 0, 50, 0
2, 354569, Control_c, 0, 64, 43
2, 354587, Control_c, 0, 64, 44
2, 354607, Control_c, 0, 64, 46
2, 354626, Control_c, 0, 64, 48
2, 354634, Note_on_c, 0, 52, 78
2, 354636, Note_on_c, 0, 61, 87
2, 354645, Control_c, 0, 64, 48
2, 354664, Control_c, 0, 64, 49
2, 354682, Note_on_c, 0, 52, 0
2, 354703, Control_c, 0, 64, 50
2, 354709, Note_on_c, 0, 61, 0
2, 354722, Control_c, 0, 64, 51
2, 354741, Control_c, 0, 64, 51
2, 354758, Note_on_c, 0, 49, 83
2, 354761, Control_c, 0, 64, 52
2, 354815, Note_on_c, 0, 49, 0
2, 354893, Note_on_c, 0, 50, 86
2, 354915, Note_on_c, 0, 66, 96
2, 354953, Note_on_c, 0, 57, 0
2, 354959, Note_on_c, 0, 50, 0
2, 354972, Control_c, 0, 64, 52
2, 355029, Control_c, 0, 64, 53
2, 355040, Note_on_c, 0, 52, 81
2, 355098, Note_on_c, 0, 52, 0
2, 355169, Note_on_c, 0, 50, 84
2, 355185, Note_on_c, 0, 59, 82
2, 355238, Note_on_c, 0, 50, 0
2, 355257, Note_on_c, 0, 59, 0
2, 355279, Control_c, 0, 64, 53
2, 355293, Note_on_c, 0, 49, 84
2, 355309, Note_on_c, 0, 61, 83
2, 355341, Note_on_c, 0, 49, 0
2, 355375, Control_c, 0, 64, 54
2, 355406, Note_on_c, 0, 66, 0
2, 355436, Note_on_c, 0, 61, 0
2, 355442, Note_on_c, 0, 47, 82
2, 355450, Note_on_c, 0, 62, 83
2, 355500, Note_on_c, 0, 47, 0
2, 355568, Note_on_c, 0, 45, 83
2, 355637, Note_on_c, 0, 45, 0
2, 355685, Note_on_c, 0, 62, 0
2, 355693, Note_on_c, 0, 44, 84
2, 355710, Note_on_c, 0, 65, 72
2, 355755, Control_c, 0, 64, 54
2, 355765, Note_on_c, 0, 44, 0
2, 355818, Note_on_c, 0, 42, 86
2, 355831, Note_on_c, 0, 66, 82
2, 355852, Control_c, 0, 64, 55
2, 355870, Note_on_c, 0, 42, 0
2, 355870, Note_on_c, 0, 65, 0
2, 355928, Control_c, 0, 64, 55
2, 355959, Note_on_c, 0, 68, 92
2, 355962, Note_on_c, 0, 41, 91
2, 355966, Control_c, 0, 64, 56
2, 355985, Note_on_c, 0, 66, 0
2, 356039, Note_on_c, 0, 41, 0
2, 356061, Note_on_c, 0, 68, 0
2, 356094, Note_on_c, 0, 61, 86
2, 356159, Note_on_c, 0, 61, 0
2, 356214, Note_on_c, 0, 37, 88
2, 356230, Note_on_c, 0, 63, 80
2, 356230, Note_on_c, 0, 66, 75
2, 356299, Note_on_c, 0, 66, 0
2, 356300, Note_on_c, 0, 63, 0
2, 356314, Note_on_c, 0, 37, 0
2, 356346, Note_on_c, 0, 68, 85
2, 356354, Note_on_c, 0, 65, 80
2, 356408, Note_on_c, 0, 65, 0
2, 356415, Note_on_c, 0, 68, 0
2, 356483, Note_on_c, 0, 42, 94
2, 356484, Note_on_c, 0, 69, 88
2, 356496, Note_on_c, 0, 66, 79
2, 356502, Control_c, 0, 64, 55
2, 356541, Control_c, 0, 64, 55
2, 356566, Note_on_c, 0, 66, 0
2, 356572, Note_on_c, 0, 69, 0
2, 356623, Note_on_c, 0, 68, 89
2, 356636, Control_c, 0, 64, 54
2, 356675, Control_c, 0, 64, 53
2, 356695, Control_c, 0, 64, 53
2, 356750, Note_on_c, 0, 69, 85
2, 356767, Note_on_c, 0, 68, 0
2, 356822, Note_on_c, 0, 69, 0
2, 356867, Control_c, 0, 64, 52
2, 356885, Note_on_c, 0, 66, 87
2, 356905, Control_c, 0, 64, 52
2, 356962, Note_on_c, 0, 66, 0
2, 357038, Note_on_c, 0, 71, 91
2, 357042, Control_c, 0, 64, 51
2, 357112, Note_on_c, 0, 71, 0
2, 357165, Note_on_c, 0, 73, 87
2, 357235, Control_c, 0, 64, 52
2, 357240, Note_on_c, 0, 73, 0
2, 357304, Note_on_c, 0, 71, 89
2, 357351, Control_c, 0, 64, 52
2, 357370, Control_c, 0, 64, 53
2, 357371, Note_on_c, 0, 71, 0
2, 357432, Note_on_c, 0, 69, 91
2, 357447, Control_c, 0, 64, 53
2, 357502, Note_on_c, 0, 69, 0
2, 357508, Note_on_c, 0, 42, 0
2, 357543, Control_c, 0, 64, 54
2, 357558, Note_on_c, 0, 41, 83
2, 357562, Note_on_c, 0, 71, 92
2, 357694, Note_on_c, 0, 69, 89
2, 357716, Control_c, 0, 64, 53
2, 357719, Note_on_c, 0, 71, 0
2, 357754, Control_c, 0, 64, 53
2, 357797, Note_on_c, 0, 69, 0
2, 357830, Note_on_c, 0, 73, 89
2, 357831, Control_c, 0, 64, 52
2, 357838, Note_on_c, 0, 68, 89
2, 357869, Control_c, 0, 64, 51
2, 357915, Note_on_c, 0, 68, 0
2, 357927, Control_c, 0, 64, 51
2, 357946, Control_c, 0, 64, 49
2, 357954, Note_on_c, 0, 73, 0
2, 357959, Note_on_c, 0, 69, 87
2, 357965, Control_c, 0, 64, 48
2, 357985, Control_c, 0, 64, 47
2, 358003, Control_c, 0, 64, 47
2, 358023, Control_c, 0, 64, 46
2, 358028, Note_on_c, 0, 69, 0
2, 358042, Control_c, 0, 64, 45
2, 358062, Control_c, 0, 64, 44
2, 358080, Control_c, 0, 64, 44
2, 358096, Note_on_c, 0, 42, 83
2, 358096, Note_on_c, 0, 69, 96
2, 358099, Control_c, 0, 64, 43
2, 358108, Note_on_c, 0, 66, 87
2, 358136, Note_on_c, 0, 41, 0
2, 358137, Control_c, 0, 64, 41
2, 358145, Note_on_c, 0, 66, 0
2, 358157, Control_c, 0, 64, 39
2, 358159, Note_on_c, 0, 69, 0
2, 358176, Control_c, 0, 64, 38
2, 358196, Control_c, 0, 64, 38
2, 358202, Note_on_c, 0, 42, 0
2, 358214, Control_c, 0, 64, 37
2, 358233, Note_on_c, 0, 54, 83
2, 358283, Note_on_c, 0, 54, 0
2, 358362, Note_on_c, 0, 56, 82
2, 358379, Note_on_c, 0, 66, 91
2, 358431, Note_on_c, 0, 56, 0
2, 358432, Note_on_c, 0, 66, 0
2, 358489, Note_on_c, 0, 57, 81
2, 358540, Control_c, 0, 64, 37
2, 358549, Note_on_c, 0, 57, 0
2, 358559, Control_c, 0, 64, 36
2, 358578, Control_c, 0, 64, 36
2, 358635, Note_on_c, 0, 59, 83
2, 358639, Note_on_c, 0, 74, 96
2, 358655, Control_c, 0, 64, 36
2, 358675, Control_c, 0, 64, 37
2, 358696, Note_on_c, 0, 59, 0
2, 358732, Control_c, 0, 64, 38
2, 358752, Control_c, 0, 64, 39
2, 358770, Control_c, 0, 64, 39
2, 358772, Note_on_c, 0, 61, 79
2, 358822, Note_on_c, 0, 61, 0
2, 358828, Control_c, 0, 64, 40
2, 358847, Control_c, 0, 64, 41
2, 358867, Control_c, 0, 64, 42
2, 358886, Control_c, 0, 64, 42
2, 358896, Note_on_c, 0, 59, 83
2, 358905, Control_c, 0, 64, 43
2, 358909, Note_on_c, 0, 66, 79
2, 358966, Note_on_c, 0, 59, 0
2, 358986, Note_on_c, 0, 66, 0
2, 359001, Control_c, 0, 64, 43
2, 359020, Control_c, 0, 64, 44
2, 359032, Note_on_c, 0, 57, 75
2, 359058, Control_c, 0, 64, 44
2, 359078, Control_c, 0, 64, 46
2, 359078, Note_on_c, 0, 57, 0
2, 359097, Control_c, 0, 64, 47
2, 359116, Control_c, 0, 64, 48
2, 359165, Note_on_c, 0, 56, 82
2, 359165, Note_on_c, 0, 64, 86
2, 359194, Note_on_c, 0, 74, 0
2, 359232, Control_c, 0, 64, 48
2, 359273, Note_on_c, 0, 64, 0
2, 359302, Note_on_c, 0, 66, 80
2, 359346, Control_c, 0, 64, 49
2, 359365, Control_c, 0, 64, 49
2, 359376, Note_on_c, 0, 66, 0
2, 359384, Control_c, 0, 64, 50
2, 359401, Note_on_c, 0, 56, 0
2, 359403, Control_c, 0, 64, 50
2, 359431, Note_on_c, 0, 64, 78
2, 359439, Note_on_c, 0, 73, 93
2, 359489, Note_on_c, 0, 64, 0
2, 359518, Control_c, 0, 64, 51
2, 359519, Note_on_c, 0, 73, 0
2, 359537, Control_c, 0, 64, 51
2, 359555, Note_on_c, 0, 62, 85
2, 359564, Note_on_c, 0, 71, 87
2, 359595, Control_c, 0, 64, 51
2, 359618, Note_on_c, 0, 62, 0
2, 359634, Control_c, 0, 64, 50
2, 359640, Note_on_c, 0, 71, 0
2, 359691, Note_on_c, 0, 64, 82
2, 359706, Note_on_c, 0, 73, 96
2, 359756, Note_on_c, 0, 64, 0
2, 359825, Note_on_c, 0, 62, 84
2, 359845, Control_c, 0, 64, 50
2, 359864, Control_c, 0, 64, 49
2, 359955, Note_on_c, 0, 62, 0
2, 359965, Note_on_c, 0, 61, 77
2, 359968, Note_on_c, 0, 58, 74
2, 360017, Control_c, 0, 64, 50
2, 360038, Note_on_c, 0, 61, 0
2, 360094, Control_c, 0, 64, 50
2, 360095, Note_on_c, 0, 58, 0
2, 360098, Note_on_c, 0, 64, 86
2, 360132, Control_c, 0, 64, 51
2, 360152, Control_c, 0, 64, 51
2, 360155, Note_on_c, 0, 64, 0
2, 360191, Control_c, 0, 64, 51
2, 360237, Note_on_c, 0, 59, 86
2, 360243, Note_on_c, 0, 62, 83
2, 360248, Control_c, 0, 64, 51
2, 360268, Control_c, 0, 64, 51
2, 360309, Note_on_c, 0, 62, 0
2, 360310, Note_on_c, 0, 59, 0
2, 360319, Note_on_c, 0, 73, 0
2, 360369, Note_on_c, 0, 64, 85
2, 360383, Control_c, 0, 64, 51
2, 360425, Note_on_c, 0, 64, 0
2, 360493, Note_on_c, 0, 78, 89
2, 360497, Control_c, 0, 64, 52
2, 360498, Note_on_c, 0, 57, 74
2, 360498, Note_on_c, 0, 62, 80
2, 360555, Control_c, 0, 64, 52
2, 360574, Control_c, 0, 64, 53
2, 360582, Note_on_c, 0, 78, 0
2, 360594, Control_c, 0, 64, 54
2, 360612, Control_c, 0, 64, 54
2, 360612, Note_on_c, 0, 57, 0
2, 360625, Note_on_c, 0, 61, 78
2, 360628, Note_on_c, 0, 62, 0
2, 360734, Note_on_c, 0, 61, 0
2, 360748, Control_c, 0, 64, 54
2, 360761, Note_on_c, 0, 62, 84
2, 360766, Note_on_c, 0, 56, 78
2, 360774, Note_on_c, 0, 71, 95
2, 360898, Note_on_c, 0, 62, 0
2, 360900, Control_c, 0, 64, 53
2, 360906, Note_on_c, 0, 61, 77
2, 360948, Note_on_c, 0, 56, 0
2, 360997, Control_c, 0, 64, 53
2, 360997, Note_on_c, 0, 61, 0
2, 361016, Control_c, 0, 64, 52
2, 361033, Note_on_c, 0, 59, 84
2, 361092, Control_c, 0, 64, 51
2, 361112, Control_c, 0, 64, 50
2, 361151, Control_c, 0, 64, 50
2, 361152, Note_on_c, 0, 59, 0
2, 361157, Note_on_c, 0, 54, 84
2, 361165, Note_on_c, 0, 62, 81
2, 361189, Control_c, 0, 64, 50
2, 361197, Note_on_c, 0, 71, 0
2, 361231, Note_on_c, 0, 62, 0
2, 361286, Note_on_c, 0, 53, 83
2, 361290, Note_on_c, 0, 61, 87
2, 361297, Note_on_c, 0, 54, 0
2, 361304, Control_c, 0, 64, 51
2, 361323, Control_c, 0, 64, 52
2, 361343, Control_c, 0, 64, 52
2, 361352, Note_on_c, 0, 53, 0
2, 361377, Note_on_c, 0, 61, 0
2, 361427, Note_on_c, 0, 62, 86
2, 361457, Control_c, 0, 64, 53
2, 361477, Control_c, 0, 64, 53
2, 361484, Note_on_c, 0, 62, 0
2, 361557, Note_on_c, 0, 49, 86
2, 361563, Note_on_c, 0, 69, 86
2, 361570, Note_on_c, 0, 61, 84
2, 361635, Note_on_c, 0, 49, 0
2, 361637, Note_on_c, 0, 61, 0
2, 361647, Note_on_c, 0, 69, 0
2, 361697, Note_on_c, 0, 59, 92
2, 361697, Note_on_c, 0, 68, 85
2, 361751, Note_on_c, 0, 59, 0
2, 361784, Control_c, 0, 64, 54
2, 361784, Note_on_c, 0, 68, 0
2, 361826, Note_on_c, 0, 54, 96
2, 361838, Note_on_c, 0, 69, 90
2, 361839, Note_on_c, 0, 61, 86
2, 361910, Note_on_c, 0, 61, 0
2, 361918, Control_c, 0, 64, 54
2, 361937, Control_c, 0, 64, 55
2, 361948, Note_on_c, 0, 69, 0
2, 361957, Control_c, 0, 64, 54
2, 361965, Note_on_c, 0, 59, 92
2, 362023, Note_on_c, 0, 59, 0
2, 362106, Note_on_c, 0, 66, 87
2, 362107, Note_on_c, 0, 57, 84
2, 362111, Control_c, 0, 64, 54
2, 362150, Control_c, 0, 64, 53
2, 362166, Note_on_c, 0, 57, 0
2, 362230, Control_c, 0, 64, 53
2, 362249, Note_on_c, 0, 61, 86
2, 362254, Note_on_c, 0, 66, 0
2, 362334, Note_on_c, 0, 61, 0
2, 362401, Note_on_c, 0, 68, 96
2, 362405, Note_on_c, 0, 59, 96
2, 362459, Control_c, 0, 64, 53
2, 362459, Note_on_c, 0, 59, 0
2, 362517, Control_c, 0, 64, 53
2, 362556, Control_c, 0, 64, 53
2, 362557, Note_on_c, 0, 61, 82
2, 362693, Note_on_c, 0, 59, 89
2, 362705, Note_on_c, 0, 61, 0
2, 362761, Note_on_c, 0, 59, 0
2, 362825, Control_c, 0, 64, 53
2, 362825, Note_on_c, 0, 57, 88
2, 362881, Note_on_c, 0, 57, 0
2, 362959, Control_c, 0, 64, 52
2, 362964, Note_on_c, 0, 53, 84
2, 362969, Note_on_c, 0, 59, 90
2, 363018, Note_on_c, 0, 54, 0
2, 363035, Note_on_c, 0, 59, 0
2, 363055, Control_c, 0, 64, 52
2, 363074, Control_c, 0, 64, 51
2, 363103, Note_on_c, 0, 57, 77
2, 363148, Control_c, 0, 64, 51
2, 363176, Note_on_c, 0, 57, 0
2, 363206, Control_c, 0, 64, 50
2, 363249, Note_on_c, 0, 56, 80
2, 363331, Note_on_c, 0, 56, 0
2, 363378, Control_c, 0, 64, 51
2, 363392, Note_on_c, 0, 59, 83
2, 363436, Control_c, 0, 64, 51
2, 363467, Note_on_c, 0, 59, 0
2, 363475, Control_c, 0, 64, 52
2, 363504, Note_on_c, 0, 53, 0
2, 363532, Control_c, 0, 64, 52
2, 363533, Note_on_c, 0, 57, 84
2, 363538, Note_on_c, 0, 54, 77
2, 363552, Control_c, 0, 64, 54
2, 363570, Control_c, 0, 64, 54
2, 363590, Control_c, 0, 64, 55
2, 363652, Note_on_c, 0, 57, 0
2, 363693, Note_on_c, 0, 66, 81
2, 363704, Note_on_c, 0, 54, 0
2, 363743, Note_on_c, 0, 68, 0
2, 363781, Control_c, 0, 64, 54
2, 363820, Control_c, 0, 64, 54
2, 363843, Note_on_c, 0, 59, 88
2, 363846, Note_on_c, 0, 50, 88
2, 363878, Control_c, 0, 64, 53
2, 363881, Note_on_c, 0, 66, 0
2, 363897, Control_c, 0, 64, 53
2, 363973, Control_c, 0, 64, 52
2, 363977, Note_on_c, 0, 50, 0
2, 363981, Note_on_c, 0, 59, 0
2, 363983, Note_on_c, 0, 65, 85
2, 364012, Control_c, 0, 64, 52
2, 364061, Control_c, 0, 64, 51
2, 364107, Control_c, 0, 64, 50
2, 364125, Control_c, 0, 64, 49
2, 364130, Note_on_c, 0, 65, 0
2, 364132, Note_on_c, 0, 61, 92
2, 364137, Note_on_c, 0, 45, 88
2, 364145, Control_c, 0, 64, 49
2, 364183, Control_c, 0, 64, 48
2, 364202, Control_c, 0, 64, 47
2, 364221, Control_c, 0, 64, 44
2, 364241, Control_c, 0, 64, 43
2, 364243, Note_on_c, 0, 45, 0
2, 364273, Note_on_c, 0, 66, 85
2, 364279, Control_c, 0, 64, 44
2, 364303, Note_on_c, 0, 61, 0
2, 364318, Control_c, 0, 64, 43
2, 364336, Control_c, 0, 64, 41
2, 364356, Control_c, 0, 64, 40
2, 364423, Note_on_c, 0, 62, 86
2, 364430, Note_on_c, 0, 47, 95
2, 364433, Control_c, 0, 64, 39
2, 364451, Note_on_c, 0, 66, 0
2, 364452, Control_c, 0, 64, 38
2, 364471, Control_c, 0, 64, 37
2, 364525, Note_on_c, 0, 47, 0
2, 364585, Note_on_c, 0, 68, 91
2, 364605, Control_c, 0, 64, 37
2, 364618, Note_on_c, 0, 62, 0
2, 364625, Control_c, 0, 64, 38
2, 364644, Control_c, 0, 64, 40
2, 364663, Control_c, 0, 64, 41
2, 364682, Control_c, 0, 64, 42
2, 364701, Control_c, 0, 64, 43
2, 364739, Control_c, 0, 64, 43
2, 364791, Note_on_c, 0, 49, 91
2, 364801, Note_on_c, 0, 61, 87
2, 364809, Note_on_c, 0, 57, 84
2, 364836, Control_c, 0, 64, 42
2, 364855, Control_c, 0, 64, 41
2, 364855, Note_on_c, 0, 68, 0
2, 364874, Control_c, 0, 64, 40
2, 364893, Control_c, 0, 64, 40
2, 364913, Control_c, 0, 64, 38
2, 364932, Control_c, 0, 64, 35
2, 364951, Control_c, 0, 64, 29
2, 364970, Control_c, 0, 64, 20
2, 364990, Control_c, 0, 64, 9
2, 365008, Control_c, 0, 64, 0
2, 365220, Note_on_c, 0, 66, 94
2, 365308, Note_on_c, 0, 57, 0
2, 365657, Note_on_c, 0, 37, 82
2, 365658, Note_on_c, 0, 56, 94
2, 365726, Note_on_c, 0, 49, 0
2, 365851, Note_on_c, 0, 61, 0
2, 366013, Note_on_c, 0, 66, 0
2, 366215, Note_on_c, 0, 65, 90
2, 366448, Control_c, 0, 64, 24
2, 366468, Control_c, 0, 64, 57
2, 366487, Control_c, 0, 64, 65
2, 366507, Control_c, 0, 64, 70
2, 366525, Control_c, 0, 64, 80
2, 366545, Control_c, 0, 64, 93
2, 366564, Control_c, 0, 64, 127
2, 366595, Note_on_c, 0, 56, 0
2, 367154, Note_on_c, 0, 66, 93
2, 367159, Note_on_c, 0, 54, 93
2, 367160, Note_on_c, 0, 42, 87
2, 367198, Control_c, 0, 64, 83
2, 367201, Note_on_c, 0, 37, 0
2, 367216, Control_c, 0, 64, 61
2, 367236, Control_c, 0, 64, 0
2, 367261, Note_on_c, 0, 65, 0
2, 370335, Note_on_c, 0, 66, 0
2, 370344, Note_on_c, 0, 54, 0
2, 370377, Note_on_c, 0, 42, 0
2, 370378, End_track
0, 0, End_of_file
