0, 0, Header, 1, 2, 480
1, 0, Start_track
1, 0, Tempo, 500000
1, 0, Time_signature, 4, 2, 24, 8
1, 1, End_track
2, 0, Start_track
2, 0, Program_c, 0, 0
2, 0, Control_c, 0, 64, 0
2, 960, Note_on_c, 0, 78, 63
2, 971, Note_on_c, 0, 54, 34
2, 1312, Control_c, 0, 64, 23
2, 1330, Control_c, 0, 64, 42
2, 1350, Control_c, 0, 64, 53
2, 1369, Control_c, 0, 64, 58
2, 1388, Control_c, 0, 64, 60
2, 1407, Control_c, 0, 64, 61
2, 1427, Control_c, 0, 64, 61
2, 1465, Control_c, 0, 64, 62
2, 1638, Control_c, 0, 64, 61
2, 1657, Control_c, 0, 64, 61
2, 1695, Control_c, 0, 64, 60
2, 1715, Control_c, 0, 64, 59
2, 1733, Control_c, 0, 64, 59
2, 1744, Note_on_c, 0, 73, 53
2, 1753, Control_c, 0, 64, 57
2, 1757, Note_on_c, 0, 57, 23
2, 1772, Control_c, 0, 64, 56
2, 1792, Control_c, 0, 64, 53
2, 1810, Control_c, 0, 64, 51
2, 1830, Control_c, 0, 64, 48
2, 1832, Note_on_c, 0, 78, 0
2, 1849, Control_c, 0, 64, 45
2, 1868, Control_c, 0, 64, 42
2, 1888, Control_c, 0, 64, 37
2, 1908, Control_c, 0, 64, 32
2, 1927, Control_c, 0, 64, 25
2, 1946, Control_c, 0, 64, 18
2, 1965, Control_c, 0, 64, 0
2, 2119, Control_c, 0, 64, 11
2, 2137, Control_c, 0, 64, 35
2, 2157, Control_c, 0, 64, 48
2, 2176, Control_c, 0, 64, 54
2, 2196, Control_c, 0, 64, 56
2, 2214, Control_c, 0, 64, 57
2, 2234, Control_c, 0, 64, 58
2, 2253, Control_c, 0, 64, 59
2, 2330, Control_c, 0, 64, 58
2, 2349, Control_c, 0, 64, 57
2, 2368, Control_c, 0, 64, 56
2, 2388, Control_c, 0, 64, 55
2, 2396, Note_on_c, 0, 61, 36
2, 2407, Control_c, 0, 64, 53
2, 2426, Control_c, 0, 64, 51
2, 2445, Control_c, 0, 64, 48
2, 2465, Control_c, 0, 64, 45
2, 2483, Control_c, 0, 64, 42
2, 2493, Note_on_c, 0, 57, 0
2, 2503, Control_c, 0, 64, 39
2, 2522, Control_c, 0, 64, 36
2, 2542, Control_c, 0, 64, 34
2, 2560, Control_c, 0, 64, 30
2, 2579, Control_c, 0, 64, 26
2, 2599, Control_c, 0, 64, 21
2, 2617, Control_c, 0, 64, 17
2, 2637, Control_c, 0, 64, 13
2, 2656, Control_c, 0, 64, 9
2, 2676, Control_c, 0, 64, 0
2, 2957, Note_on_c, 0, 66, 34
2, 2960, Note_on_c, 0, 69, 53
2, 2980, Note_on_c, 0, 73, 0
2, 3027, Note_on_c, 0, 61, 0
2, 3255, Note_on_c, 0, 71, 62
2, 3263, Note_on_c, 0, 56, 40
2, 3279, Note_on_c, 0, 69, 0
2, 3349, Note_on_c, 0, 54, 0
2, 3577, Note_on_c, 0, 71, 0
2, 3591, Note_on_c, 0, 73, 54
2, 3598, Note_on_c, 0, 57, 35
2, 3626, Note_on_c, 0, 56, 0
2, 3770, Control_c, 0, 64, 43
2, 3780, Note_on_c, 0, 73, 0
2, 3789, Control_c, 0, 64, 56
2, 3800, Note_on_c, 0, 71, 51
2, 3807, Control_c, 0, 64, 60
2, 3827, Control_c, 0, 64, 63
2, 3846, Control_c, 0, 64, 65
2, 3865, Control_c, 0, 64, 68
2, 3866, Note_on_c, 0, 66, 0
2, 3867, Note_on_c, 0, 57, 0
2, 3884, Control_c, 0, 64, 71
2, 3904, Control_c, 0, 64, 76
2, 3923, Control_c, 0, 64, 80
2, 3935, Note_on_c, 0, 71, 0
2, 3942, Control_c, 0, 64, 82
2, 3960, Note_on_c, 0, 69, 60
2, 4000, Control_c, 0, 64, 80
2, 4019, Control_c, 0, 64, 78
2, 4039, Control_c, 0, 64, 77
2, 4057, Control_c, 0, 64, 76
2, 4077, Control_c, 0, 64, 76
2, 4096, Control_c, 0, 64, 75
2, 4116, Control_c, 0, 64, 73
2, 4124, Note_on_c, 0, 69, 0
2, 4134, Control_c, 0, 64, 70
2, 4148, Note_on_c, 0, 65, 33
2, 4149, Note_on_c, 0, 71, 48
2, 4154, Control_c, 0, 64, 68
2, 4162, Note_on_c, 0, 61, 36
2, 4179, Control_c, 0, 64, 65
2, 4198, Control_c, 0, 64, 61
2, 4217, Control_c, 0, 64, 54
2, 4236, Control_c, 0, 64, 44
2, 4253, Control_c, 0, 64, 24
2, 4271, Control_c, 0, 64, 0
2, 4313, Note_on_c, 0, 71, 0
2, 4336, Note_on_c, 0, 69, 44
2, 4445, Control_c, 0, 64, 25
2, 4464, Control_c, 0, 64, 42
2, 4482, Control_c, 0, 64, 53
2, 4487, Note_on_c, 0, 69, 0
2, 4502, Control_c, 0, 64, 59
2, 4521, Control_c, 0, 64, 62
2, 4527, Note_on_c, 0, 65, 0
2, 4540, Control_c, 0, 64, 64
2, 4549, Note_on_c, 0, 68, 37
2, 4559, Control_c, 0, 64, 66
2, 4579, Control_c, 0, 64, 67
2, 4598, Control_c, 0, 64, 68
2, 4601, Note_on_c, 0, 61, 0
2, 4617, Control_c, 0, 64, 68
2, 4636, Control_c, 0, 64, 69
2, 4656, Control_c, 0, 64, 70
2, 4694, Control_c, 0, 64, 70
2, 4790, Control_c, 0, 64, 69
2, 4810, Control_c, 0, 64, 69
2, 4828, Control_c, 0, 64, 68
2, 4843, Note_on_c, 0, 66, 48
2, 4848, Control_c, 0, 64, 67
2, 4867, Control_c, 0, 64, 66
2, 4870, Note_on_c, 0, 69, 45
2, 4874, Note_on_c, 0, 68, 0
2, 4886, Control_c, 0, 64, 65
2, 4889, Note_on_c, 0, 54, 37
2, 4905, Control_c, 0, 64, 65
2, 4925, Control_c, 0, 64, 64
2, 4944, Control_c, 0, 64, 64
2, 4962, Control_c, 0, 64, 62
2, 4982, Control_c, 0, 64, 60
2, 5001, Control_c, 0, 64, 57
2, 5020, Control_c, 0, 64, 54
2, 5039, Control_c, 0, 64, 49
2, 5059, Control_c, 0, 64, 43
2, 5078, Control_c, 0, 64, 33
2, 5097, Control_c, 0, 64, 18
2, 5116, Control_c, 0, 64, 0
2, 5193, Control_c, 0, 64, 18
2, 5194, Note_on_c, 0, 71, 43
2, 5198, Note_on_c, 0, 69, 0
2, 5213, Control_c, 0, 64, 38
2, 5231, Control_c, 0, 64, 56
2, 5251, Control_c, 0, 64, 62
2, 5270, Control_c, 0, 64, 65
2, 5290, Control_c, 0, 64, 68
2, 5308, Control_c, 0, 64, 73
2, 5328, Control_c, 0, 64, 82
2, 5347, Control_c, 0, 64, 91
2, 5366, Control_c, 0, 64, 102
2, 5385, Control_c, 0, 64, 112
2, 5405, Control_c, 0, 64, 123
2, 5424, Control_c, 0, 64, 127
2, 5462, Control_c, 0, 64, 119
2, 5481, Control_c, 0, 64, 115
2, 5500, Control_c, 0, 64, 112
2, 5516, Note_on_c, 0, 69, 47
2, 5519, Control_c, 0, 64, 109
2, 5529, Note_on_c, 0, 61, 48
2, 5529, Note_on_c, 0, 71, 0
2, 5539, Control_c, 0, 64, 105
2, 5558, Control_c, 0, 64, 100
2, 5577, Control_c, 0, 64, 92
2, 5589, Note_on_c, 0, 66, 0
2, 5596, Control_c, 0, 64, 82
2, 5616, Control_c, 0, 64, 73
2, 5635, Control_c, 0, 64, 65
2, 5654, Control_c, 0, 64, 59
2, 5673, Control_c, 0, 64, 53
2, 5693, Control_c, 0, 64, 49
2, 5711, Control_c, 0, 64, 46
2, 5729, Control_c, 0, 64, 44
2, 5748, Control_c, 0, 64, 43
2, 5768, Control_c, 0, 64, 42
2, 5785, Note_on_c, 0, 69, 0
2, 5803, Note_on_c, 0, 68, 52
2, 5806, Control_c, 0, 64, 44
2, 5825, Control_c, 0, 64, 48
2, 5845, Control_c, 0, 64, 54
2, 5863, Control_c, 0, 64, 58
2, 5882, Control_c, 0, 64, 60
2, 5902, Control_c, 0, 64, 62
2, 5917, Control_c, 0, 64, 63
2, 5936, Control_c, 0, 64, 63
2, 5955, Control_c, 0, 64, 64
2, 5975, Control_c, 0, 64, 64
2, 6032, Control_c, 0, 64, 64
2, 6070, Control_c, 0, 64, 63
2, 6086, Note_on_c, 0, 69, 60
2, 6092, Note_on_c, 0, 68, 0
2, 6109, Control_c, 0, 64, 63
2, 6129, Control_c, 0, 64, 62
2, 6147, Control_c, 0, 64, 62
2, 6167, Control_c, 0, 64, 60
2, 6186, Control_c, 0, 64, 56
2, 6206, Control_c, 0, 64, 51
2, 6224, Control_c, 0, 64, 46
2, 6243, Control_c, 0, 64, 39
2, 6263, Control_c, 0, 64, 34
2, 6281, Control_c, 0, 64, 31
2, 6320, Control_c, 0, 64, 34
2, 6340, Control_c, 0, 64, 43
2, 6358, Control_c, 0, 64, 53
2, 6366, Note_on_c, 0, 73, 61
2, 6370, Note_on_c, 0, 69, 0
2, 6378, Control_c, 0, 64, 59
2, 6397, Control_c, 0, 64, 61
2, 6416, Control_c, 0, 64, 63
2, 6435, Control_c, 0, 64, 63
2, 6455, Control_c, 0, 64, 64
2, 6493, Control_c, 0, 64, 65
2, 6512, Control_c, 0, 64, 65
2, 6570, Control_c, 0, 64, 65
2, 6589, Control_c, 0, 64, 64
2, 6609, Control_c, 0, 64, 63
2, 6627, Control_c, 0, 64, 62
2, 6647, Control_c, 0, 64, 60
2, 6652, Note_on_c, 0, 78, 68
2, 6659, Note_on_c, 0, 57, 37
2, 6666, Control_c, 0, 64, 56
2, 6686, Control_c, 0, 64, 52
2, 6705, Control_c, 0, 64, 46
2, 6705, Note_on_c, 0, 61, 0
2, 6713, Note_on_c, 0, 73, 0
2, 6725, Control_c, 0, 64, 42
2, 6744, Control_c, 0, 64, 38
2, 6762, Control_c, 0, 64, 36
2, 6782, Control_c, 0, 64, 35
2, 6820, Control_c, 0, 64, 36
2, 6839, Control_c, 0, 64, 39
2, 6859, Control_c, 0, 64, 45
2, 6882, Control_c, 0, 64, 51
2, 6902, Control_c, 0, 64, 54
2, 6918, Note_on_c, 0, 57, 0
2, 6921, Control_c, 0, 64, 56
2, 6925, Note_on_c, 0, 80, 73
2, 6940, Control_c, 0, 64, 57
2, 6955, Note_on_c, 0, 59, 38
2, 6959, Control_c, 0, 64, 57
2, 6963, Note_on_c, 0, 78, 0
2, 6979, Control_c, 0, 64, 58
2, 6998, Control_c, 0, 64, 58
2, 7017, Control_c, 0, 64, 59
2, 7113, Control_c, 0, 64, 58
2, 7133, Control_c, 0, 64, 57
2, 7151, Control_c, 0, 64, 57
2, 7171, Control_c, 0, 64, 56
2, 7190, Control_c, 0, 64, 55
2, 7210, Control_c, 0, 64, 54
2, 7225, Note_on_c, 0, 61, 37
2, 7228, Control_c, 0, 64, 53
2, 7235, Note_on_c, 0, 81, 65
2, 7237, Note_on_c, 0, 59, 0
2, 7248, Control_c, 0, 64, 52
2, 7258, Note_on_c, 0, 80, 0
2, 7267, Control_c, 0, 64, 51
2, 7286, Control_c, 0, 64, 49
2, 7305, Control_c, 0, 64, 47
2, 7325, Control_c, 0, 64, 46
2, 7344, Control_c, 0, 64, 45
2, 7362, Control_c, 0, 64, 44
2, 7382, Control_c, 0, 64, 43
2, 7401, Control_c, 0, 64, 42
2, 7420, Control_c, 0, 64, 41
2, 7426, Note_on_c, 0, 80, 67
2, 7439, Control_c, 0, 64, 40
2, 7440, Note_on_c, 0, 61, 0
2, 7459, Control_c, 0, 64, 40
2, 7462, Note_on_c, 0, 81, 0
2, 7465, Note_on_c, 0, 59, 39
2, 7478, Control_c, 0, 64, 39
2, 7497, Control_c, 0, 64, 38
2, 7516, Control_c, 0, 64, 37
2, 7536, Control_c, 0, 64, 36
2, 7555, Control_c, 0, 64, 36
2, 7581, Note_on_c, 0, 59, 0
2, 7601, Note_on_c, 0, 78, 69
2, 7613, Note_on_c, 0, 57, 46
2, 7620, Note_on_c, 0, 80, 0
2, 7631, Control_c, 0, 64, 35
2, 7650, Control_c, 0, 64, 35
2, 7689, Control_c, 0, 64, 34
2, 7707, Control_c, 0, 64, 34
2, 7727, Control_c, 0, 64, 33
2, 7728, Note_on_c, 0, 57, 0
2, 7768, Note_on_c, 0, 59, 46
2, 7784, Control_c, 0, 64, 32
2, 7792, Note_on_c, 0, 80, 60
2, 7794, Note_on_c, 0, 78, 0
2, 7823, Control_c, 0, 64, 32
2, 7841, Control_c, 0, 64, 31
2, 7861, Control_c, 0, 64, 30
2, 7880, Control_c, 0, 64, 29
2, 7900, Control_c, 0, 64, 28
2, 7915, Note_on_c, 0, 59, 0
2, 7918, Control_c, 0, 64, 27
2, 7938, Control_c, 0, 64, 25
2, 7957, Control_c, 0, 64, 24
2, 7961, Note_on_c, 0, 57, 37
2, 7966, Note_on_c, 0, 78, 58
2, 7976, Control_c, 0, 64, 22
2, 7984, Note_on_c, 0, 80, 0
2, 7995, Control_c, 0, 64, 20
2, 8015, Control_c, 0, 64, 19
2, 8034, Control_c, 0, 64, 18
2, 8053, Control_c, 0, 64, 17
2, 8072, Control_c, 0, 64, 13
2, 8092, Control_c, 0, 64, 9
2, 8110, Control_c, 0, 64, 0
2, 8118, Note_on_c, 0, 57, 0
2, 8159, Note_on_c, 0, 78, 0
2, 8162, Note_on_c, 0, 77, 53
2, 8165, Note_on_c, 0, 56, 33
2, 8450, Note_on_c, 0, 78, 50
2, 8471, Note_on_c, 0, 77, 0
2, 8472, Note_on_c, 0, 57, 18
2, 8488, Note_on_c, 0, 56, 0
2, 8778, Note_on_c, 0, 73, 42
2, 8796, Note_on_c, 0, 78, 0
2, 9077, Note_on_c, 0, 59, 37
2, 9081, Note_on_c, 0, 57, 0
2, 9102, Note_on_c, 0, 56, 21
2, 9186, Control_c, 0, 64, 35
2, 9187, Note_on_c, 0, 54, 0
2, 9206, Control_c, 0, 64, 54
2, 9224, Control_c, 0, 64, 61
2, 9243, Control_c, 0, 64, 64
2, 9263, Control_c, 0, 64, 67
2, 9281, Control_c, 0, 64, 73
2, 9301, Control_c, 0, 64, 84
2, 9320, Control_c, 0, 64, 104
2, 9340, Control_c, 0, 64, 127
2, 9366, Note_on_c, 0, 56, 0
2, 9366, Note_on_c, 0, 77, 59
2, 9421, Note_on_c, 0, 73, 0
2, 9501, Note_on_c, 0, 59, 0
2, 9626, Control_c, 0, 64, 102
2, 9646, Control_c, 0, 64, 90
2, 9665, Control_c, 0, 64, 80
2, 9667, Note_on_c, 0, 78, 58
2, 9684, Control_c, 0, 64, 72
2, 9689, Note_on_c, 0, 77, 0
2, 9692, Note_on_c, 0, 57, 33
2, 9703, Control_c, 0, 64, 66
2, 9717, Note_on_c, 0, 61, 30
2, 9722, Control_c, 0, 64, 60
2, 9742, Control_c, 0, 64, 52
2, 9761, Control_c, 0, 64, 48
2, 9781, Control_c, 0, 64, 46
2, 9800, Control_c, 0, 64, 46
2, 9838, Control_c, 0, 64, 48
2, 9858, Control_c, 0, 64, 53
2, 9877, Control_c, 0, 64, 59
2, 9896, Control_c, 0, 64, 64
2, 9915, Control_c, 0, 64, 67
2, 9935, Control_c, 0, 64, 73
2, 9954, Control_c, 0, 64, 83
2, 9973, Control_c, 0, 64, 96
2, 9985, Note_on_c, 0, 73, 54
2, 9992, Control_c, 0, 64, 107
2, 10001, Note_on_c, 0, 61, 0
2, 10001, Note_on_c, 0, 78, 0
2, 10012, Control_c, 0, 64, 121
2, 10025, Note_on_c, 0, 57, 0
2, 10030, Control_c, 0, 64, 127
2, 10203, Control_c, 0, 64, 114
2, 10223, Control_c, 0, 64, 105
2, 10241, Control_c, 0, 64, 98
2, 10261, Control_c, 0, 64, 92
2, 10280, Control_c, 0, 64, 86
2, 10300, Control_c, 0, 64, 80
2, 10307, Note_on_c, 0, 68, 54
2, 10318, Control_c, 0, 64, 72
2, 10318, Note_on_c, 0, 59, 48
2, 10338, Control_c, 0, 64, 67
2, 10357, Control_c, 0, 64, 62
2, 10376, Control_c, 0, 64, 56
2, 10395, Control_c, 0, 64, 53
2, 10415, Control_c, 0, 64, 51
2, 10434, Control_c, 0, 64, 51
2, 10453, Control_c, 0, 64, 51
2, 10472, Control_c, 0, 64, 52
2, 10492, Control_c, 0, 64, 54
2, 10510, Control_c, 0, 64, 56
2, 10530, Control_c, 0, 64, 60
2, 10549, Control_c, 0, 64, 63
2, 10569, Control_c, 0, 64, 65
2, 10587, Control_c, 0, 64, 70
2, 10596, Note_on_c, 0, 77, 64
2, 10607, Control_c, 0, 64, 77
2, 10626, Control_c, 0, 64, 87
2, 10633, Note_on_c, 0, 73, 0
2, 10641, Note_on_c, 0, 68, 0
2, 10646, Control_c, 0, 64, 97
2, 10664, Control_c, 0, 64, 104
2, 10683, Control_c, 0, 64, 110
2, 10703, Control_c, 0, 64, 116
2, 10721, Control_c, 0, 64, 118
2, 10780, Control_c, 0, 64, 117
2, 10782, Note_on_c, 0, 59, 0
2, 10798, Control_c, 0, 64, 116
2, 10818, Control_c, 0, 64, 115
2, 10837, Control_c, 0, 64, 112
2, 10856, Control_c, 0, 64, 106
2, 10875, Control_c, 0, 64, 97
2, 10895, Control_c, 0, 64, 86
2, 10898, Note_on_c, 0, 78, 64
2, 10899, Note_on_c, 0, 57, 39
2, 10914, Control_c, 0, 64, 75
2, 10915, Note_on_c, 0, 66, 41
2, 10933, Control_c, 0, 64, 66
2, 10939, Note_on_c, 0, 77, 0
2, 10952, Control_c, 0, 64, 61
2, 10972, Control_c, 0, 64, 58
2, 10990, Control_c, 0, 64, 56
2, 11010, Control_c, 0, 64, 55
2, 11029, Control_c, 0, 64, 54
2, 11049, Control_c, 0, 64, 55
2, 11067, Control_c, 0, 64, 56
2, 11087, Control_c, 0, 64, 59
2, 11106, Control_c, 0, 64, 63
2, 11126, Control_c, 0, 64, 66
2, 11144, Control_c, 0, 64, 72
2, 11163, Control_c, 0, 64, 80
2, 11183, Control_c, 0, 64, 88
2, 11184, Note_on_c, 0, 73, 64
2, 11186, Note_on_c, 0, 78, 0
2, 11188, Note_on_c, 0, 66, 0
2, 11201, Control_c, 0, 64, 93
2, 11221, Control_c, 0, 64, 95
2, 11240, Control_c, 0, 64, 96
2, 11260, Control_c, 0, 64, 96
2, 11300, Note_on_c, 0, 57, 0
2, 11317, Control_c, 0, 64, 96
2, 11336, Control_c, 0, 64, 95
2, 11355, Control_c, 0, 64, 94
2, 11375, Control_c, 0, 64, 91
2, 11394, Control_c, 0, 64, 86
2, 11413, Control_c, 0, 64, 79
2, 11432, Control_c, 0, 64, 72
2, 11452, Control_c, 0, 64, 66
2, 11469, Note_on_c, 0, 78, 65
2, 11470, Control_c, 0, 64, 61
2, 11482, Note_on_c, 0, 65, 32
2, 11488, Note_on_c, 0, 73, 0
2, 11491, Control_c, 0, 64, 55
2, 11494, Note_on_c, 0, 56, 34
2, 11510, Control_c, 0, 64, 50
2, 11530, Control_c, 0, 64, 46
2, 11548, Control_c, 0, 64, 45
2, 11568, Control_c, 0, 64, 46
2, 11587, Control_c, 0, 64, 51
2, 11606, Control_c, 0, 64, 58
2, 11625, Control_c, 0, 64, 63
2, 11644, Control_c, 0, 64, 65
2, 11664, Control_c, 0, 64, 68
2, 11682, Control_c, 0, 64, 73
2, 11702, Control_c, 0, 64, 80
2, 11714, Note_on_c, 0, 65, 0
2, 11721, Control_c, 0, 64, 85
2, 11740, Control_c, 0, 64, 89
2, 11744, Note_on_c, 0, 80, 76
2, 11759, Control_c, 0, 64, 91
2, 11762, Note_on_c, 0, 56, 0
2, 11779, Control_c, 0, 64, 92
2, 11789, Note_on_c, 0, 78, 0
2, 11951, Control_c, 0, 64, 91
2, 11971, Control_c, 0, 64, 89
2, 11990, Control_c, 0, 64, 86
2, 12010, Control_c, 0, 64, 79
2, 12028, Control_c, 0, 64, 71
2, 12048, Control_c, 0, 64, 64
2, 12049, Note_on_c, 0, 66, 39
2, 12049, Note_on_c, 0, 81, 68
2, 12062, Note_on_c, 0, 54, 37
2, 12067, Control_c, 0, 64, 56
2, 12086, Control_c, 0, 64, 51
2, 12091, Note_on_c, 0, 80, 0
2, 12105, Control_c, 0, 64, 46
2, 12124, Control_c, 0, 64, 44
2, 12144, Control_c, 0, 64, 44
2, 12162, Control_c, 0, 64, 51
2, 12182, Control_c, 0, 64, 59
2, 12201, Control_c, 0, 64, 64
2, 12220, Control_c, 0, 64, 67
2, 12239, Control_c, 0, 64, 72
2, 12259, Control_c, 0, 64, 79
2, 12261, Note_on_c, 0, 66, 0
2, 12278, Control_c, 0, 64, 89
2, 12297, Control_c, 0, 64, 97
2, 12316, Control_c, 0, 64, 102
2, 12327, Note_on_c, 0, 54, 0
2, 12336, Control_c, 0, 64, 105
2, 12348, Note_on_c, 0, 77, 72
2, 12355, Control_c, 0, 64, 106
2, 12384, Note_on_c, 0, 81, 0
2, 12393, Control_c, 0, 64, 106
2, 12528, Control_c, 0, 64, 105
2, 12547, Control_c, 0, 64, 103
2, 12566, Control_c, 0, 64, 100
2, 12585, Control_c, 0, 64, 95
2, 12604, Control_c, 0, 64, 88
2, 12624, Control_c, 0, 64, 81
2, 12641, Note_on_c, 0, 78, 72
2, 12642, Control_c, 0, 64, 71
2, 12656, Note_on_c, 0, 52, 44
2, 12662, Control_c, 0, 64, 64
2, 12665, Note_on_c, 0, 61, 43
2, 12681, Control_c, 0, 64, 58
2, 12689, Note_on_c, 0, 77, 0
2, 12701, Control_c, 0, 64, 52
2, 12719, Control_c, 0, 64, 48
2, 12739, Control_c, 0, 64, 46
2, 12758, Control_c, 0, 64, 46
2, 12796, Control_c, 0, 64, 51
2, 12816, Control_c, 0, 64, 58
2, 12835, Control_c, 0, 64, 62
2, 12854, Control_c, 0, 64, 64
2, 12873, Control_c, 0, 64, 66
2, 12893, Control_c, 0, 64, 69
2, 12911, Control_c, 0, 64, 73
2, 12931, Control_c, 0, 64, 77
2, 12944, Note_on_c, 0, 81, 73
2, 12950, Control_c, 0, 64, 80
2, 12970, Control_c, 0, 64, 82
2, 12977, Note_on_c, 0, 78, 0
2, 12988, Control_c, 0, 64, 83
2, 13084, Control_c, 0, 64, 82
2, 13098, Note_on_c, 0, 61, 0
2, 13104, Control_c, 0, 64, 82
2, 13122, Control_c, 0, 64, 81
2, 13142, Control_c, 0, 64, 79
2, 13161, Control_c, 0, 64, 77
2, 13181, Control_c, 0, 64, 75
2, 13199, Control_c, 0, 64, 72
2, 13209, Note_on_c, 0, 52, 0
2, 13219, Control_c, 0, 64, 68
2, 13238, Control_c, 0, 64, 64
2, 13257, Control_c, 0, 64, 60
2, 13258, Note_on_c, 0, 50, 34
2, 13259, Note_on_c, 0, 71, 64
2, 13265, Note_on_c, 0, 81, 0
2, 13267, Note_on_c, 0, 54, 41
2, 13276, Control_c, 0, 64, 57
2, 13296, Control_c, 0, 64, 55
2, 13315, Control_c, 0, 64, 52
2, 13334, Control_c, 0, 64, 49
2, 13353, Control_c, 0, 64, 48
2, 13373, Control_c, 0, 64, 49
2, 13391, Control_c, 0, 64, 53
2, 13406, Control_c, 0, 64, 58
2, 13424, Control_c, 0, 64, 60
2, 13443, Control_c, 0, 64, 62
2, 13463, Control_c, 0, 64, 64
2, 13481, Control_c, 0, 64, 65
2, 13501, Control_c, 0, 64, 66
2, 13520, Control_c, 0, 64, 67
2, 13540, Control_c, 0, 64, 68
2, 13541, Note_on_c, 0, 81, 71
2, 13558, Control_c, 0, 64, 70
2, 13575, Note_on_c, 0, 71, 0
2, 13585, Control_c, 0, 64, 71
2, 13603, Control_c, 0, 64, 71
2, 13642, Control_c, 0, 64, 71
2, 13700, Control_c, 0, 64, 70
2, 13738, Control_c, 0, 64, 70
2, 13777, Control_c, 0, 64, 69
2, 13795, Control_c, 0, 64, 68
2, 13815, Control_c, 0, 64, 66
2, 13834, Control_c, 0, 64, 62
2, 13839, Note_on_c, 0, 80, 75
2, 13849, Note_on_c, 0, 53, 40
2, 13854, Control_c, 0, 64, 58
2, 13872, Control_c, 0, 64, 54
2, 13879, Note_on_c, 0, 81, 0
2, 13884, Note_on_c, 0, 54, 0
2, 13892, Control_c, 0, 64, 50
2, 13911, Control_c, 0, 64, 48
2, 13931, Control_c, 0, 64, 47
2, 13949, Control_c, 0, 64, 48
2, 13969, Control_c, 0, 64, 53
2, 13988, Control_c, 0, 64, 58
2, 14007, Control_c, 0, 64, 62
2, 14026, Control_c, 0, 64, 63
2, 14046, Control_c, 0, 64, 64
2, 14065, Control_c, 0, 64, 65
2, 14083, Control_c, 0, 64, 65
2, 14103, Control_c, 0, 64, 66
2, 14122, Control_c, 0, 64, 66
2, 14127, Note_on_c, 0, 81, 73
2, 14185, Note_on_c, 0, 80, 0
2, 14237, Control_c, 0, 64, 66
2, 14314, Control_c, 0, 64, 65
2, 14334, Control_c, 0, 64, 65
2, 14352, Control_c, 0, 64, 64
2, 14369, Control_c, 0, 64, 64
2, 14388, Control_c, 0, 64, 63
2, 14424, Note_on_c, 0, 54, 28
2, 14426, Control_c, 0, 64, 63
2, 14440, Note_on_c, 0, 53, 0
2, 14446, Control_c, 0, 64, 62
2, 14465, Control_c, 0, 64, 62
2, 14479, Note_on_c, 0, 83, 64
2, 14484, Control_c, 0, 64, 61
2, 14503, Control_c, 0, 64, 60
2, 14517, Note_on_c, 0, 81, 0
2, 14522, Control_c, 0, 64, 58
2, 14542, Control_c, 0, 64, 57
2, 14561, Control_c, 0, 64, 55
2, 14581, Control_c, 0, 64, 53
2, 14600, Control_c, 0, 64, 52
2, 14620, Control_c, 0, 64, 51
2, 14638, Control_c, 0, 64, 50
2, 14658, Control_c, 0, 64, 49
2, 14677, Control_c, 0, 64, 48
2, 14696, Control_c, 0, 64, 47
2, 14704, Note_on_c, 0, 81, 64
2, 14715, Control_c, 0, 64, 46
2, 14735, Control_c, 0, 64, 46
2, 14740, Note_on_c, 0, 83, 0
2, 14754, Control_c, 0, 64, 45
2, 14792, Control_c, 0, 64, 44
2, 14889, Control_c, 0, 64, 47
2, 14893, Note_on_c, 0, 80, 68
2, 14905, Note_on_c, 0, 81, 0
2, 14907, Control_c, 0, 64, 51
2, 14927, Control_c, 0, 64, 55
2, 14946, Control_c, 0, 64, 57
2, 14965, Control_c, 0, 64, 58
2, 14984, Control_c, 0, 64, 59
2, 15003, Control_c, 0, 64, 59
2, 15041, Control_c, 0, 64, 60
2, 15080, Control_c, 0, 64, 59
2, 15110, Note_on_c, 0, 59, 29
2, 15110, Note_on_c, 0, 80, 0
2, 15115, Note_on_c, 0, 81, 53
2, 15118, Control_c, 0, 64, 59
2, 15138, Control_c, 0, 64, 57
2, 15147, Note_on_c, 0, 54, 0
2, 15157, Control_c, 0, 64, 56
2, 15176, Control_c, 0, 64, 54
2, 15195, Control_c, 0, 64, 52
2, 15215, Control_c, 0, 64, 50
2, 15234, Control_c, 0, 64, 48
2, 15253, Control_c, 0, 64, 47
2, 15272, Control_c, 0, 64, 46
2, 15292, Control_c, 0, 64, 44
2, 15296, Note_on_c, 0, 81, 0
2, 15310, Control_c, 0, 64, 43
2, 15313, Note_on_c, 0, 80, 53
2, 15329, Control_c, 0, 64, 42
2, 15348, Control_c, 0, 64, 41
2, 15405, Control_c, 0, 64, 40
2, 15522, Note_on_c, 0, 78, 48
2, 15524, Note_on_c, 0, 80, 0
2, 15773, Control_c, 0, 64, 40
2, 15816, Note_on_c, 0, 49, 23
2, 15816, Note_on_c, 0, 77, 44
2, 15821, Note_on_c, 0, 78, 0
2, 15830, Control_c, 0, 64, 39
2, 15850, Control_c, 0, 64, 38
2, 15868, Control_c, 0, 64, 37
2, 15878, Note_on_c, 0, 50, 0
2, 15888, Control_c, 0, 64, 36
2, 15888, Note_on_c, 0, 59, 0
2, 15907, Control_c, 0, 64, 35
2, 15925, Control_c, 0, 64, 33
2, 15945, Control_c, 0, 64, 32
2, 15964, Control_c, 0, 64, 32
2, 15984, Control_c, 0, 64, 31
2, 16002, Control_c, 0, 64, 31
2, 16061, Control_c, 0, 64, 30
2, 16176, Control_c, 0, 64, 31
2, 16195, Control_c, 0, 64, 32
2, 16201, Note_on_c, 0, 72, 46
2, 16214, Control_c, 0, 64, 34
2, 16219, Note_on_c, 0, 77, 0
2, 16233, Control_c, 0, 64, 36
2, 16253, Control_c, 0, 64, 39
2, 16271, Control_c, 0, 64, 44
2, 16291, Control_c, 0, 64, 50
2, 16310, Control_c, 0, 64, 55
2, 16330, Control_c, 0, 64, 56
2, 16348, Control_c, 0, 64, 57
2, 16368, Control_c, 0, 64, 59
2, 16387, Control_c, 0, 64, 60
2, 16405, Control_c, 0, 64, 61
2, 16425, Control_c, 0, 64, 62
2, 16444, Control_c, 0, 64, 62
2, 16507, Note_on_c, 0, 56, 31
2, 16558, Control_c, 0, 64, 62
2, 16578, Control_c, 0, 64, 61
2, 16597, Control_c, 0, 64, 59
2, 16616, Control_c, 0, 64, 56
2, 16635, Control_c, 0, 64, 53
2, 16655, Control_c, 0, 64, 51
2, 16674, Control_c, 0, 64, 50
2, 16693, Control_c, 0, 64, 52
2, 16712, Control_c, 0, 64, 56
2, 16732, Control_c, 0, 64, 60
2, 16750, Control_c, 0, 64, 62
2, 16770, Control_c, 0, 64, 64
2, 16789, Control_c, 0, 64, 66
2, 16809, Control_c, 0, 64, 68
2, 16813, Note_on_c, 0, 73, 53
2, 16827, Control_c, 0, 64, 70
2, 16847, Control_c, 0, 64, 72
2, 16866, Control_c, 0, 64, 73
2, 16884, Note_on_c, 0, 72, 0
2, 16885, Control_c, 0, 64, 75
2, 16943, Control_c, 0, 64, 74
2, 17020, Control_c, 0, 64, 74
2, 17038, Control_c, 0, 64, 73
2, 17058, Control_c, 0, 64, 72
2, 17077, Control_c, 0, 64, 72
2, 17096, Control_c, 0, 64, 71
2, 17114, Note_on_c, 0, 57, 30
2, 17115, Control_c, 0, 64, 70
2, 17135, Control_c, 0, 64, 69
2, 17142, Note_on_c, 0, 78, 62
2, 17154, Control_c, 0, 64, 66
2, 17155, Note_on_c, 0, 56, 0
2, 17167, Note_on_c, 0, 73, 0
2, 17173, Control_c, 0, 64, 63
2, 17192, Control_c, 0, 64, 59
2, 17212, Control_c, 0, 64, 56
2, 17230, Control_c, 0, 64, 55
2, 17250, Control_c, 0, 64, 54
2, 17269, Control_c, 0, 64, 53
2, 17307, Control_c, 0, 64, 55
2, 17327, Control_c, 0, 64, 57
2, 17346, Control_c, 0, 64, 59
2, 17365, Control_c, 0, 64, 61
2, 17384, Control_c, 0, 64, 63
2, 17403, Control_c, 0, 64, 64
2, 17423, Control_c, 0, 64, 65
2, 17441, Control_c, 0, 64, 66
2, 17461, Control_c, 0, 64, 68
2, 17463, Note_on_c, 0, 78, 0
2, 17470, Note_on_c, 0, 72, 52
2, 17480, Control_c, 0, 64, 69
2, 17500, Control_c, 0, 64, 70
2, 17653, Control_c, 0, 64, 69
2, 17710, Control_c, 0, 64, 69
2, 17730, Control_c, 0, 64, 68
2, 17749, Control_c, 0, 64, 67
2, 17769, Control_c, 0, 64, 64
2, 17770, Note_on_c, 0, 54, 17
2, 17781, Note_on_c, 0, 57, 0
2, 17787, Control_c, 0, 64, 61
2, 17807, Control_c, 0, 64, 58
2, 17826, Control_c, 0, 64, 57
2, 17845, Control_c, 0, 64, 57
2, 17864, Control_c, 0, 64, 60
2, 17883, Control_c, 0, 64, 63
2, 17903, Control_c, 0, 64, 65
2, 17921, Control_c, 0, 64, 67
2, 17941, Control_c, 0, 64, 69
2, 17960, Control_c, 0, 64, 70
2, 17980, Control_c, 0, 64, 71
2, 17998, Control_c, 0, 64, 72
2, 18037, Control_c, 0, 64, 71
2, 18063, Note_on_c, 0, 72, 0
2, 18089, Note_on_c, 0, 73, 46
2, 18152, Control_c, 0, 64, 71
2, 18248, Control_c, 0, 64, 70
2, 18285, Control_c, 0, 64, 70
2, 18343, Control_c, 0, 64, 69
2, 18362, Control_c, 0, 64, 69
2, 18374, Note_on_c, 0, 53, 31
2, 18378, Note_on_c, 0, 54, 0
2, 18382, Control_c, 0, 64, 68
2, 18402, Control_c, 0, 64, 67
2, 18422, Control_c, 0, 64, 66
2, 18441, Control_c, 0, 64, 65
2, 18461, Control_c, 0, 64, 64
2, 18474, Note_on_c, 0, 80, 61
2, 18476, Note_on_c, 0, 73, 0
2, 18479, Control_c, 0, 64, 63
2, 18499, Control_c, 0, 64, 62
2, 18518, Control_c, 0, 64, 60
2, 18537, Control_c, 0, 64, 58
2, 18556, Control_c, 0, 64, 55
2, 18576, Control_c, 0, 64, 51
2, 18595, Control_c, 0, 64, 49
2, 18614, Control_c, 0, 64, 48
2, 18633, Control_c, 0, 64, 47
2, 18691, Control_c, 0, 64, 49
2, 18710, Control_c, 0, 64, 52
2, 18730, Control_c, 0, 64, 56
2, 18748, Control_c, 0, 64, 59
2, 18757, Note_on_c, 0, 80, 0
2, 18768, Control_c, 0, 64, 61
2, 18777, Note_on_c, 0, 71, 43
2, 18787, Control_c, 0, 64, 62
2, 18805, Control_c, 0, 64, 63
2, 18825, Control_c, 0, 64, 63
2, 18844, Control_c, 0, 64, 64
2, 18864, Control_c, 0, 64, 64
2, 18882, Control_c, 0, 64, 65
2, 18984, Note_on_c, 0, 71, 0
2, 18985, Note_on_c, 0, 73, 51
2, 19036, Control_c, 0, 64, 64
2, 19075, Control_c, 0, 64, 64
2, 19094, Control_c, 0, 64, 63
2, 19113, Control_c, 0, 64, 63
2, 19133, Control_c, 0, 64, 62
2, 19151, Control_c, 0, 64, 61
2, 19168, Note_on_c, 0, 73, 0
2, 19169, Control_c, 0, 64, 60
2, 19175, Note_on_c, 0, 74, 56
2, 19188, Control_c, 0, 64, 60
2, 19208, Control_c, 0, 64, 60
2, 19226, Control_c, 0, 64, 61
2, 19245, Control_c, 0, 64, 61
2, 19322, Control_c, 0, 64, 61
2, 19353, Note_on_c, 0, 74, 0
2, 19361, Control_c, 0, 64, 60
2, 19365, Note_on_c, 0, 73, 53
2, 19381, Control_c, 0, 64, 59
2, 19400, Control_c, 0, 64, 58
2, 19420, Control_c, 0, 64, 56
2, 19438, Control_c, 0, 64, 55
2, 19458, Control_c, 0, 64, 53
2, 19477, Control_c, 0, 64, 50
2, 19496, Control_c, 0, 64, 48
2, 19515, Control_c, 0, 64, 46
2, 19530, Note_on_c, 0, 73, 0
2, 19535, Control_c, 0, 64, 44
2, 19554, Control_c, 0, 64, 42
2, 19563, Note_on_c, 0, 71, 48
2, 19573, Control_c, 0, 64, 41
2, 19592, Control_c, 0, 64, 41
2, 19612, Control_c, 0, 64, 40
2, 19630, Control_c, 0, 64, 39
2, 19725, Note_on_c, 0, 71, 0
2, 19746, Control_c, 0, 64, 42
2, 19760, Note_on_c, 0, 69, 45
2, 19765, Control_c, 0, 64, 48
2, 19784, Control_c, 0, 64, 54
2, 19793, Note_on_c, 0, 53, 0
2, 19803, Control_c, 0, 64, 58
2, 19823, Control_c, 0, 64, 59
2, 19841, Control_c, 0, 64, 60
2, 19861, Control_c, 0, 64, 61
2, 19880, Control_c, 0, 64, 61
2, 19955, Note_on_c, 0, 53, 32
2, 20015, Control_c, 0, 64, 61
2, 20053, Control_c, 0, 64, 60
2, 20060, Note_on_c, 0, 53, 0
2, 20072, Control_c, 0, 64, 60
2, 20110, Control_c, 0, 64, 59
2, 20124, Note_on_c, 0, 54, 41
2, 20149, Control_c, 0, 64, 59
2, 20187, Control_c, 0, 64, 58
2, 20206, Control_c, 0, 64, 58
2, 20226, Control_c, 0, 64, 57
2, 20245, Control_c, 0, 64, 56
2, 20264, Control_c, 0, 64, 55
2, 20283, Control_c, 0, 64, 55
2, 20291, Note_on_c, 0, 54, 0
2, 20303, Control_c, 0, 64, 54
2, 20305, Note_on_c, 0, 56, 48
2, 20341, Control_c, 0, 64, 53
2, 20380, Control_c, 0, 64, 54
2, 20398, Control_c, 0, 64, 55
2, 20418, Control_c, 0, 64, 56
2, 20437, Control_c, 0, 64, 58
2, 20456, Control_c, 0, 64, 59
2, 20459, Note_on_c, 0, 56, 0
2, 20464, Note_on_c, 0, 54, 51
2, 20475, Control_c, 0, 64, 61
2, 20495, Control_c, 0, 64, 62
2, 20514, Control_c, 0, 64, 63
2, 20533, Control_c, 0, 64, 64
2, 20552, Control_c, 0, 64, 64
2, 20572, Control_c, 0, 64, 65
2, 20590, Control_c, 0, 64, 66
2, 20610, Control_c, 0, 64, 67
2, 20617, Note_on_c, 0, 54, 0
2, 20629, Control_c, 0, 64, 67
2, 20649, Note_on_c, 0, 53, 51
2, 20706, Control_c, 0, 64, 67
2, 20744, Control_c, 0, 64, 66
2, 20763, Control_c, 0, 64, 65
2, 20783, Control_c, 0, 64, 64
2, 20796, Note_on_c, 0, 53, 0
2, 20801, Control_c, 0, 64, 61
2, 20821, Control_c, 0, 64, 58
2, 20826, Note_on_c, 0, 54, 48
2, 20840, Control_c, 0, 64, 56
2, 20860, Control_c, 0, 64, 54
2, 20898, Control_c, 0, 64, 56
2, 20917, Control_c, 0, 64, 58
2, 20936, Control_c, 0, 64, 59
2, 20955, Control_c, 0, 64, 60
2, 20975, Control_c, 0, 64, 61
2, 20995, Note_on_c, 0, 68, 60
2, 21005, Note_on_c, 0, 69, 0
2, 21010, Note_on_c, 0, 56, 50
2, 21011, Note_on_c, 0, 54, 0
2, 21070, Control_c, 0, 64, 60
2, 21086, Control_c, 0, 64, 60
2, 21106, Control_c, 0, 64, 59
2, 21125, Control_c, 0, 64, 57
2, 21145, Control_c, 0, 64, 56
2, 21162, Note_on_c, 0, 56, 0
2, 21163, Control_c, 0, 64, 54
2, 21169, Note_on_c, 0, 66, 62
2, 21176, Note_on_c, 0, 49, 0
2, 21176, Note_on_c, 0, 57, 50
2, 21183, Control_c, 0, 64, 52
2, 21183, Note_on_c, 0, 68, 0
2, 21202, Control_c, 0, 64, 50
2, 21221, Control_c, 0, 64, 49
2, 21260, Control_c, 0, 64, 50
2, 21281, Control_c, 0, 64, 52
2, 21301, Control_c, 0, 64, 55
2, 21320, Control_c, 0, 64, 58
2, 21340, Control_c, 0, 64, 59
2, 21341, Note_on_c, 0, 57, 0
2, 21358, Control_c, 0, 64, 59
2, 21363, Note_on_c, 0, 65, 61
2, 21366, Note_on_c, 0, 66, 0
2, 21374, Note_on_c, 0, 59, 50
2, 21474, Control_c, 0, 64, 59
2, 21493, Control_c, 0, 64, 58
2, 21512, Control_c, 0, 64, 57
2, 21530, Note_on_c, 0, 59, 0
2, 21532, Control_c, 0, 64, 56
2, 21550, Control_c, 0, 64, 55
2, 21551, Note_on_c, 0, 57, 39
2, 21556, Note_on_c, 0, 66, 63
2, 21570, Control_c, 0, 64, 54
2, 21581, Note_on_c, 0, 65, 0
2, 21589, Control_c, 0, 64, 52
2, 21609, Control_c, 0, 64, 51
2, 21627, Control_c, 0, 64, 50
2, 21666, Control_c, 0, 64, 50
2, 21685, Control_c, 0, 64, 49
2, 21704, Control_c, 0, 64, 49
2, 21723, Control_c, 0, 64, 48
2, 21723, Note_on_c, 0, 57, 0
2, 21732, Note_on_c, 0, 68, 68
2, 21743, Control_c, 0, 64, 47
2, 21745, Note_on_c, 0, 56, 48
2, 21763, Note_on_c, 0, 66, 0
2, 21781, Control_c, 0, 64, 47
2, 21838, Control_c, 0, 64, 46
2, 21932, Note_on_c, 0, 66, 58
2, 21941, Note_on_c, 0, 57, 38
2, 21943, Note_on_c, 0, 68, 0
2, 21956, Note_on_c, 0, 56, 0
2, 22114, Note_on_c, 0, 66, 0
2, 22135, Note_on_c, 0, 65, 55
2, 22344, Note_on_c, 0, 65, 0
2, 22356, Control_c, 0, 64, 46
2, 22356, Note_on_c, 0, 66, 54
2, 22433, Control_c, 0, 64, 45
2, 22491, Control_c, 0, 64, 44
2, 22548, Control_c, 0, 64, 44
2, 22582, Note_on_c, 0, 66, 0
2, 22600, Note_on_c, 0, 48, 19
2, 22643, Note_on_c, 0, 75, 58
2, 22702, Control_c, 0, 64, 46
2, 22720, Control_c, 0, 64, 48
2, 22740, Control_c, 0, 64, 51
2, 22759, Control_c, 0, 64, 55
2, 22779, Control_c, 0, 64, 58
2, 22797, Control_c, 0, 64, 61
2, 22817, Control_c, 0, 64, 63
2, 22836, Control_c, 0, 64, 66
2, 22856, Control_c, 0, 64, 70
2, 22874, Control_c, 0, 64, 75
2, 22894, Control_c, 0, 64, 81
2, 22913, Control_c, 0, 64, 87
2, 22926, Note_on_c, 0, 75, 0
2, 22932, Control_c, 0, 64, 91
2, 22951, Control_c, 0, 64, 94
2, 22971, Control_c, 0, 64, 94
2, 23104, Control_c, 0, 64, 94
2, 23123, Control_c, 0, 64, 93
2, 23161, Control_c, 0, 64, 93
2, 23181, Control_c, 0, 64, 92
2, 23219, Control_c, 0, 64, 92
2, 23238, Control_c, 0, 64, 91
2, 23257, Note_on_c, 0, 66, 43
2, 23276, Control_c, 0, 64, 90
2, 23296, Control_c, 0, 64, 90
2, 23303, Note_on_c, 0, 66, 0
2, 23315, Control_c, 0, 64, 89
2, 23335, Control_c, 0, 64, 89
2, 23353, Control_c, 0, 64, 88
2, 23373, Control_c, 0, 64, 86
2, 23392, Control_c, 0, 64, 84
2, 23411, Control_c, 0, 64, 82
2, 23429, Note_on_c, 0, 49, 32
2, 23430, Control_c, 0, 64, 79
2, 23450, Control_c, 0, 64, 76
2, 23456, Note_on_c, 0, 48, 0
2, 23469, Control_c, 0, 64, 74
2, 23476, Note_on_c, 0, 66, 41
2, 23488, Control_c, 0, 64, 71
2, 23507, Control_c, 0, 64, 68
2, 23526, Control_c, 0, 64, 66
2, 23546, Control_c, 0, 64, 63
2, 23564, Control_c, 0, 64, 60
2, 23584, Control_c, 0, 64, 58
2, 23603, Control_c, 0, 64, 56
2, 23622, Control_c, 0, 64, 55
2, 23661, Control_c, 0, 64, 55
2, 23680, Control_c, 0, 64, 57
2, 23699, Control_c, 0, 64, 59
2, 23718, Control_c, 0, 64, 62
2, 23738, Control_c, 0, 64, 63
2, 23756, Control_c, 0, 64, 65
2, 23776, Control_c, 0, 64, 67
2, 23795, Control_c, 0, 64, 69
2, 23815, Control_c, 0, 64, 70
2, 23833, Control_c, 0, 64, 72
2, 23853, Control_c, 0, 64, 72
2, 23949, Control_c, 0, 64, 72
2, 23962, Note_on_c, 0, 57, 0
2, 23968, Control_c, 0, 64, 71
2, 23987, Control_c, 0, 64, 71
2, 23992, Note_on_c, 0, 56, 41
2, 24006, Control_c, 0, 64, 70
2, 24026, Control_c, 0, 64, 69
2, 24044, Control_c, 0, 64, 68
2, 24056, Note_on_c, 0, 56, 0
2, 24064, Control_c, 0, 64, 66
2, 24083, Control_c, 0, 64, 64
2, 24099, Note_on_c, 0, 54, 43
2, 24102, Control_c, 0, 64, 64
2, 24121, Control_c, 0, 64, 63
2, 24141, Control_c, 0, 64, 63
2, 24160, Control_c, 0, 64, 62
2, 24179, Control_c, 0, 64, 61
2, 24197, Note_on_c, 0, 54, 0
2, 24198, Control_c, 0, 64, 60
2, 24218, Control_c, 0, 64, 59
2, 24228, Note_on_c, 0, 56, 35
2, 24236, Control_c, 0, 64, 57
2, 24256, Control_c, 0, 64, 56
2, 24275, Control_c, 0, 64, 54
2, 24295, Control_c, 0, 64, 53
2, 24313, Control_c, 0, 64, 51
2, 24333, Control_c, 0, 64, 50
2, 24352, Control_c, 0, 64, 48
2, 24371, Control_c, 0, 64, 47
2, 24390, Control_c, 0, 64, 47
2, 24429, Control_c, 0, 64, 46
2, 24524, Control_c, 0, 64, 47
2, 24544, Control_c, 0, 64, 49
2, 24563, Control_c, 0, 64, 51
2, 24582, Control_c, 0, 64, 54
2, 24601, Control_c, 0, 64, 57
2, 24621, Control_c, 0, 64, 59
2, 24631, Note_on_c, 0, 66, 0
2, 24640, Control_c, 0, 64, 59
2, 24659, Control_c, 0, 64, 60
2, 24703, Note_on_c, 0, 65, 25
2, 24733, Control_c, 0, 64, 59
2, 24772, Control_c, 0, 64, 59
2, 24774, Note_on_c, 0, 65, 0
2, 24790, Control_c, 0, 64, 58
2, 24794, Note_on_c, 0, 63, 37
2, 24810, Control_c, 0, 64, 57
2, 24829, Control_c, 0, 64, 56
2, 24848, Control_c, 0, 64, 55
2, 24867, Control_c, 0, 64, 52
2, 24887, Control_c, 0, 64, 50
2, 24906, Control_c, 0, 64, 47
2, 24908, Note_on_c, 0, 63, 0
2, 24926, Control_c, 0, 64, 45
2, 24934, Note_on_c, 0, 65, 48
2, 24945, Control_c, 0, 64, 43
2, 24965, Control_c, 0, 64, 41
2, 24983, Control_c, 0, 64, 40
2, 25003, Control_c, 0, 64, 39
2, 25119, Control_c, 0, 64, 40
2, 25138, Control_c, 0, 64, 42
2, 25142, Note_on_c, 0, 65, 0
2, 25146, Note_on_c, 0, 61, 44
2, 25158, Control_c, 0, 64, 46
2, 25177, Control_c, 0, 64, 51
2, 25195, Control_c, 0, 64, 55
2, 25215, Control_c, 0, 64, 58
2, 25234, Control_c, 0, 64, 59
2, 25253, Control_c, 0, 64, 60
2, 25272, Control_c, 0, 64, 61
2, 25292, Control_c, 0, 64, 62
2, 25309, Note_on_c, 0, 49, 0
2, 25311, Control_c, 0, 64, 63
2, 25330, Control_c, 0, 64, 63
2, 25353, Note_on_c, 0, 63, 48
2, 25360, Note_on_c, 0, 61, 0
2, 25369, Control_c, 0, 64, 64
2, 25464, Control_c, 0, 64, 63
2, 25503, Control_c, 0, 64, 63
2, 25523, Control_c, 0, 64, 62
2, 25541, Control_c, 0, 64, 61
2, 25544, Note_on_c, 0, 49, 24
2, 25552, Note_on_c, 0, 63, 0
2, 25561, Control_c, 0, 64, 59
2, 25561, Note_on_c, 0, 65, 55
2, 25580, Control_c, 0, 64, 57
2, 25599, Control_c, 0, 64, 53
2, 25618, Control_c, 0, 64, 49
2, 25638, Control_c, 0, 64, 45
2, 25657, Control_c, 0, 64, 42
2, 25675, Control_c, 0, 64, 40
2, 25695, Control_c, 0, 64, 39
2, 25746, Note_on_c, 0, 66, 62
2, 25751, Note_on_c, 0, 65, 0
2, 25772, Control_c, 0, 64, 43
2, 25791, Control_c, 0, 64, 50
2, 25810, Control_c, 0, 64, 56
2, 25829, Control_c, 0, 64, 59
2, 25849, Control_c, 0, 64, 61
2, 25867, Control_c, 0, 64, 62
2, 25887, Control_c, 0, 64, 62
2, 25906, Control_c, 0, 64, 63
2, 25926, Control_c, 0, 64, 63
2, 25943, Note_on_c, 0, 68, 65
2, 25964, Control_c, 0, 64, 64
2, 25966, Note_on_c, 0, 66, 0
2, 25983, Control_c, 0, 64, 63
2, 26080, Control_c, 0, 64, 63
2, 26099, Control_c, 0, 64, 62
2, 26119, Control_c, 0, 64, 62
2, 26137, Note_on_c, 0, 51, 44
2, 26138, Control_c, 0, 64, 61
2, 26149, Note_on_c, 0, 66, 57
2, 26157, Control_c, 0, 64, 59
2, 26162, Note_on_c, 0, 68, 0
2, 26176, Control_c, 0, 64, 58
2, 26185, Note_on_c, 0, 56, 0
2, 26186, Note_on_c, 0, 49, 0
2, 26195, Control_c, 0, 64, 56
2, 26214, Control_c, 0, 64, 54
2, 26233, Control_c, 0, 64, 51
2, 26253, Control_c, 0, 64, 50
2, 26272, Control_c, 0, 64, 48
2, 26291, Control_c, 0, 64, 47
2, 26310, Control_c, 0, 64, 47
2, 26330, Control_c, 0, 64, 46
2, 26339, Note_on_c, 0, 66, 0
2, 26344, Note_on_c, 0, 65, 57
2, 26387, Control_c, 0, 64, 46
2, 26425, Control_c, 0, 64, 45
2, 26530, Note_on_c, 0, 66, 56
2, 26531, Note_on_c, 0, 65, 0
2, 26618, Control_c, 0, 64, 45
2, 26637, Control_c, 0, 64, 44
2, 26713, Control_c, 0, 64, 44
2, 26721, Note_on_c, 0, 51, 0
2, 26730, Note_on_c, 0, 66, 0
2, 26736, Note_on_c, 0, 68, 55
2, 26744, Note_on_c, 0, 53, 34
2, 26771, Control_c, 0, 64, 43
2, 26810, Control_c, 0, 64, 42
2, 26847, Control_c, 0, 64, 41
2, 26866, Control_c, 0, 64, 41
2, 26930, Note_on_c, 0, 68, 0
2, 26937, Note_on_c, 0, 69, 57
2, 26981, Control_c, 0, 64, 40
2, 27022, Control_c, 0, 64, 40
2, 27080, Control_c, 0, 64, 39
2, 27138, Note_on_c, 0, 69, 0
2, 27173, Note_on_c, 0, 71, 44
2, 27175, Control_c, 0, 64, 39
2, 27271, Control_c, 0, 64, 38
2, 27309, Control_c, 0, 64, 38
2, 27423, Note_on_c, 0, 71, 0
2, 27424, Note_on_c, 0, 54, 23
2, 27433, Note_on_c, 0, 53, 0
2, 27445, Note_on_c, 0, 69, 39
2, 27543, Note_on_c, 0, 69, 0
2, 27574, Note_on_c, 0, 68, 40
2, 27710, Note_on_c, 0, 68, 0
2, 27739, Note_on_c, 0, 66, 31
2, 28053, Note_on_c, 0, 54, 0
2, 28056, Note_on_c, 0, 42, 26
2, 28074, Control_c, 0, 64, 39
2, 28094, Control_c, 0, 64, 42
2, 28113, Control_c, 0, 64, 46
2, 28133, Control_c, 0, 64, 52
2, 28151, Control_c, 0, 64, 57
2, 28171, Control_c, 0, 64, 61
2, 28190, Control_c, 0, 64, 63
2, 28209, Control_c, 0, 64, 65
2, 28228, Control_c, 0, 64, 66
2, 28248, Control_c, 0, 64, 68
2, 28267, Control_c, 0, 64, 71
2, 28281, Note_on_c, 0, 66, 0
2, 28286, Control_c, 0, 64, 74
2, 28305, Control_c, 0, 64, 77
2, 28325, Control_c, 0, 64, 78
2, 28335, Note_on_c, 0, 69, 50
2, 28363, Control_c, 0, 64, 77
2, 28440, Control_c, 0, 64, 77
2, 28478, Control_c, 0, 64, 76
2, 28488, Note_on_c, 0, 73, 56
2, 28497, Control_c, 0, 64, 75
2, 28516, Control_c, 0, 64, 74
2, 28534, Note_on_c, 0, 69, 0
2, 28536, Control_c, 0, 64, 73
2, 28554, Control_c, 0, 64, 72
2, 28574, Control_c, 0, 64, 70
2, 28593, Control_c, 0, 64, 68
2, 28613, Control_c, 0, 64, 65
2, 28631, Control_c, 0, 64, 63
2, 28647, Note_on_c, 0, 45, 30
2, 28651, Control_c, 0, 64, 61
2, 28657, Note_on_c, 0, 78, 55
2, 28670, Control_c, 0, 64, 58
2, 28689, Control_c, 0, 64, 53
2, 28708, Control_c, 0, 64, 47
2, 28710, Note_on_c, 0, 73, 0
2, 28728, Control_c, 0, 64, 43
2, 28747, Control_c, 0, 64, 40
2, 28753, Note_on_c, 0, 42, 0
2, 28785, Control_c, 0, 64, 41
2, 28805, Control_c, 0, 64, 46
2, 28823, Control_c, 0, 64, 53
2, 28843, Control_c, 0, 64, 59
2, 28862, Control_c, 0, 64, 62
2, 28867, Note_on_c, 0, 73, 63
2, 28882, Control_c, 0, 64, 63
2, 28886, Note_on_c, 0, 78, 0
2, 28900, Control_c, 0, 64, 64
2, 28920, Control_c, 0, 64, 64
2, 28939, Control_c, 0, 64, 65
2, 28958, Control_c, 0, 64, 65
2, 28977, Control_c, 0, 64, 66
2, 29061, Note_on_c, 0, 75, 68
2, 29093, Control_c, 0, 64, 65
2, 29107, Note_on_c, 0, 73, 0
2, 29150, Control_c, 0, 64, 65
2, 29169, Control_c, 0, 64, 64
2, 29188, Control_c, 0, 64, 64
2, 29208, Control_c, 0, 64, 63
2, 29227, Control_c, 0, 64, 62
2, 29246, Control_c, 0, 64, 59
2, 29257, Note_on_c, 0, 49, 42
2, 29257, Note_on_c, 0, 77, 63
2, 29265, Control_c, 0, 64, 55
2, 29273, Note_on_c, 0, 75, 0
2, 29283, Note_on_c, 0, 45, 0
2, 29285, Control_c, 0, 64, 50
2, 29303, Control_c, 0, 64, 47
2, 29323, Control_c, 0, 64, 46
2, 29362, Control_c, 0, 64, 48
2, 29380, Control_c, 0, 64, 53
2, 29400, Control_c, 0, 64, 58
2, 29419, Control_c, 0, 64, 61
2, 29438, Control_c, 0, 64, 63
2, 29451, Note_on_c, 0, 78, 75
2, 29457, Control_c, 0, 64, 64
2, 29467, Note_on_c, 0, 77, 0
2, 29476, Control_c, 0, 64, 65
2, 29496, Control_c, 0, 64, 65
2, 29514, Control_c, 0, 64, 66
2, 29553, Control_c, 0, 64, 66
2, 29642, Note_on_c, 0, 80, 75
2, 29649, Note_on_c, 0, 78, 0
2, 29727, Control_c, 0, 64, 66
2, 29766, Control_c, 0, 64, 65
2, 29784, Control_c, 0, 64, 64
2, 29804, Control_c, 0, 64, 63
2, 29823, Control_c, 0, 64, 60
2, 29827, Note_on_c, 0, 54, 42
2, 29835, Note_on_c, 0, 81, 72
2, 29843, Control_c, 0, 64, 55
2, 29861, Control_c, 0, 64, 51
2, 29866, Note_on_c, 0, 80, 0
2, 29876, Note_on_c, 0, 49, 0
2, 29881, Control_c, 0, 64, 48
2, 29900, Control_c, 0, 64, 47
2, 29919, Control_c, 0, 64, 46
2, 29958, Control_c, 0, 64, 47
2, 29977, Control_c, 0, 64, 51
2, 29995, Control_c, 0, 64, 56
2, 30015, Control_c, 0, 64, 60
2, 30020, Note_on_c, 0, 80, 76
2, 30031, Note_on_c, 0, 81, 0
2, 30034, Control_c, 0, 64, 62
2, 30053, Control_c, 0, 64, 64
2, 30072, Control_c, 0, 64, 65
2, 30092, Control_c, 0, 64, 66
2, 30111, Control_c, 0, 64, 67
2, 30130, Control_c, 0, 64, 69
2, 30149, Control_c, 0, 64, 70
2, 30169, Control_c, 0, 64, 71
2, 30188, Control_c, 0, 64, 72
2, 30202, Note_on_c, 0, 78, 73
2, 30213, Note_on_c, 0, 80, 0
2, 30303, Control_c, 0, 64, 71
2, 30323, Control_c, 0, 64, 71
2, 30341, Control_c, 0, 64, 70
2, 30361, Control_c, 0, 64, 69
2, 30380, Control_c, 0, 64, 68
2, 30389, Note_on_c, 0, 80, 68
2, 30399, Control_c, 0, 64, 65
2, 30408, Note_on_c, 0, 59, 56
2, 30410, Note_on_c, 0, 78, 0
2, 30418, Control_c, 0, 64, 62
2, 30438, Control_c, 0, 64, 57
2, 30457, Control_c, 0, 64, 53
2, 30475, Control_c, 0, 64, 50
2, 30495, Control_c, 0, 64, 48
2, 30533, Control_c, 0, 64, 50
2, 30552, Control_c, 0, 64, 54
2, 30572, Control_c, 0, 64, 58
2, 30575, Note_on_c, 0, 78, 65
2, 30584, Note_on_c, 0, 80, 0
2, 30591, Control_c, 0, 64, 62
2, 30610, Control_c, 0, 64, 64
2, 30629, Control_c, 0, 64, 65
2, 30649, Control_c, 0, 64, 67
2, 30668, Control_c, 0, 64, 69
2, 30686, Control_c, 0, 64, 71
2, 30705, Control_c, 0, 64, 72
2, 30725, Control_c, 0, 64, 73
2, 30767, Note_on_c, 0, 78, 0
2, 30769, Note_on_c, 0, 59, 0
2, 30777, Note_on_c, 0, 76, 63
2, 30829, Note_on_c, 0, 76, 0
2, 30840, Control_c, 0, 64, 72
2, 30907, Note_on_c, 0, 76, 55
2, 30975, Note_on_c, 0, 76, 0
2, 31001, Note_on_c, 0, 75, 62
2, 31052, Control_c, 0, 64, 72
2, 31070, Note_on_c, 0, 75, 0
2, 31081, Note_on_c, 0, 76, 63
2, 31090, Control_c, 0, 64, 71
2, 31109, Control_c, 0, 64, 71
2, 31129, Control_c, 0, 64, 70
2, 31148, Control_c, 0, 64, 69
2, 31167, Control_c, 0, 64, 68
2, 31173, Note_on_c, 0, 57, 32
2, 31186, Control_c, 0, 64, 66
2, 31194, Note_on_c, 0, 76, 0
2, 31206, Control_c, 0, 64, 65
2, 31206, Note_on_c, 0, 75, 70
2, 31224, Control_c, 0, 64, 63
2, 31244, Control_c, 0, 64, 61
2, 31263, Control_c, 0, 64, 57
2, 31283, Control_c, 0, 64, 53
2, 31301, Control_c, 0, 64, 49
2, 31321, Control_c, 0, 64, 46
2, 31340, Control_c, 0, 64, 45
2, 31359, Control_c, 0, 64, 45
2, 31398, Control_c, 0, 64, 47
2, 31417, Control_c, 0, 64, 52
2, 31435, Control_c, 0, 64, 57
2, 31455, Control_c, 0, 64, 61
2, 31474, Control_c, 0, 64, 63
2, 31493, Control_c, 0, 64, 65
2, 31502, Note_on_c, 0, 76, 67
2, 31512, Control_c, 0, 64, 66
2, 31532, Control_c, 0, 64, 68
2, 31535, Note_on_c, 0, 75, 0
2, 31551, Control_c, 0, 64, 69
2, 31570, Control_c, 0, 64, 71
2, 31589, Control_c, 0, 64, 72
2, 31609, Control_c, 0, 64, 73
2, 31724, Control_c, 0, 64, 72
2, 31763, Control_c, 0, 64, 71
2, 31781, Control_c, 0, 64, 70
2, 31785, Note_on_c, 0, 51, 36
2, 31801, Control_c, 0, 64, 68
2, 31820, Control_c, 0, 64, 66
2, 31833, Note_on_c, 0, 78, 68
2, 31838, Control_c, 0, 64, 63
2, 31857, Control_c, 0, 64, 59
2, 31864, Note_on_c, 0, 54, 0
2, 31876, Control_c, 0, 64, 58
2, 31897, Note_on_c, 0, 76, 0
2, 31914, Control_c, 0, 64, 59
2, 31934, Control_c, 0, 64, 62
2, 31953, Control_c, 0, 64, 64
2, 31967, Note_on_c, 0, 57, 0
2, 31973, Control_c, 0, 64, 66
2, 31991, Control_c, 0, 64, 68
2, 32011, Control_c, 0, 64, 70
2, 32030, Control_c, 0, 64, 72
2, 32049, Control_c, 0, 64, 73
2, 32123, Note_on_c, 0, 57, 55
2, 32145, Control_c, 0, 64, 74
2, 32183, Control_c, 0, 64, 74
2, 32203, Control_c, 0, 64, 75
2, 32242, Control_c, 0, 64, 74
2, 32280, Control_c, 0, 64, 74
2, 32299, Control_c, 0, 64, 73
2, 32317, Control_c, 0, 64, 72
2, 32337, Control_c, 0, 64, 71
2, 32356, Control_c, 0, 64, 68
2, 32370, Note_on_c, 0, 57, 0
2, 32376, Control_c, 0, 64, 65
2, 32387, Note_on_c, 0, 51, 0
2, 32394, Control_c, 0, 64, 62
2, 32410, Note_on_c, 0, 56, 50
2, 32414, Control_c, 0, 64, 59
2, 32418, Note_on_c, 0, 48, 42
2, 32433, Control_c, 0, 64, 56
2, 32453, Control_c, 0, 64, 53
2, 32471, Control_c, 0, 64, 52
2, 32491, Control_c, 0, 64, 51
2, 32548, Control_c, 0, 64, 53
2, 32568, Control_c, 0, 64, 56
2, 32587, Control_c, 0, 64, 60
2, 32605, Control_c, 0, 64, 63
2, 32624, Control_c, 0, 64, 64
2, 32644, Control_c, 0, 64, 66
2, 32663, Control_c, 0, 64, 68
2, 32682, Control_c, 0, 64, 70
2, 32690, Note_on_c, 0, 76, 69
2, 32701, Control_c, 0, 64, 71
2, 32721, Control_c, 0, 64, 73
2, 32738, Note_on_c, 0, 78, 0
2, 32739, Control_c, 0, 64, 74
2, 32778, Control_c, 0, 64, 74
2, 32856, Control_c, 0, 64, 74
2, 32874, Control_c, 0, 64, 73
2, 32894, Control_c, 0, 64, 73
2, 32913, Control_c, 0, 64, 71
2, 32933, Control_c, 0, 64, 69
2, 32951, Control_c, 0, 64, 66
2, 32971, Control_c, 0, 64, 62
2, 32990, Control_c, 0, 64, 60
2, 32992, Note_on_c, 0, 75, 72
2, 32997, Note_on_c, 0, 54, 43
2, 33009, Control_c, 0, 64, 59
2, 33028, Control_c, 0, 64, 60
2, 33028, Note_on_c, 0, 56, 0
2, 33037, Note_on_c, 0, 76, 0
2, 33048, Control_c, 0, 64, 61
2, 33067, Control_c, 0, 64, 63
2, 33086, Control_c, 0, 64, 65
2, 33105, Control_c, 0, 64, 68
2, 33125, Control_c, 0, 64, 70
2, 33143, Control_c, 0, 64, 73
2, 33163, Control_c, 0, 64, 74
2, 33292, Note_on_c, 0, 81, 73
2, 33297, Control_c, 0, 64, 74
2, 33345, Note_on_c, 0, 75, 0
2, 33413, Control_c, 0, 64, 73
2, 33451, Control_c, 0, 64, 73
2, 33470, Control_c, 0, 64, 72
2, 33489, Control_c, 0, 64, 71
2, 33508, Control_c, 0, 64, 70
2, 33528, Control_c, 0, 64, 69
2, 33547, Control_c, 0, 64, 67
2, 33564, Control_c, 0, 64, 65
2, 33583, Control_c, 0, 64, 63
2, 33588, Note_on_c, 0, 52, 33
2, 33594, Note_on_c, 0, 80, 68
2, 33603, Control_c, 0, 64, 61
2, 33622, Control_c, 0, 64, 58
2, 33641, Control_c, 0, 64, 56
2, 33647, Note_on_c, 0, 81, 0
2, 33660, Control_c, 0, 64, 55
2, 33672, Note_on_c, 0, 54, 0
2, 33680, Control_c, 0, 64, 54
2, 33717, Control_c, 0, 64, 55
2, 33737, Control_c, 0, 64, 58
2, 33757, Control_c, 0, 64, 60
2, 33761, Note_on_c, 0, 48, 0
2, 33776, Control_c, 0, 64, 63
2, 33795, Control_c, 0, 64, 64
2, 33810, Note_on_c, 0, 78, 66
2, 33815, Control_c, 0, 64, 66
2, 33833, Control_c, 0, 64, 68
2, 33853, Control_c, 0, 64, 71
2, 33856, Note_on_c, 0, 80, 0
2, 33872, Control_c, 0, 64, 73
2, 33892, Control_c, 0, 64, 75
2, 33910, Control_c, 0, 64, 76
2, 33986, Note_on_c, 0, 78, 0
2, 33997, Note_on_c, 0, 76, 65
2, 34045, Control_c, 0, 64, 75
2, 34084, Control_c, 0, 64, 75
2, 34103, Control_c, 0, 64, 74
2, 34122, Control_c, 0, 64, 73
2, 34141, Control_c, 0, 64, 72
2, 34161, Control_c, 0, 64, 70
2, 34165, Note_on_c, 0, 52, 0
2, 34173, Note_on_c, 0, 51, 33
2, 34179, Control_c, 0, 64, 68
2, 34183, Note_on_c, 0, 78, 54
2, 34185, Note_on_c, 0, 76, 0
2, 34199, Control_c, 0, 64, 65
2, 34205, Note_on_c, 0, 44, 25
2, 34218, Control_c, 0, 64, 61
2, 34237, Control_c, 0, 64, 58
2, 34256, Control_c, 0, 64, 56
2, 34275, Control_c, 0, 64, 55
2, 34295, Control_c, 0, 64, 54
2, 34313, Control_c, 0, 64, 55
2, 34333, Control_c, 0, 64, 56
2, 34352, Control_c, 0, 64, 59
2, 34369, Note_on_c, 0, 76, 50
2, 34371, Note_on_c, 0, 78, 0
2, 34372, Control_c, 0, 64, 62
2, 34390, Control_c, 0, 64, 63
2, 34410, Control_c, 0, 64, 65
2, 34429, Control_c, 0, 64, 66
2, 34448, Control_c, 0, 64, 68
2, 34467, Control_c, 0, 64, 70
2, 34487, Control_c, 0, 64, 71
2, 34506, Control_c, 0, 64, 73
2, 34526, Control_c, 0, 64, 73
2, 34549, Note_on_c, 0, 76, 0
2, 34582, Note_on_c, 0, 75, 49
2, 34622, Control_c, 0, 64, 73
2, 34680, Control_c, 0, 64, 72
2, 34717, Control_c, 0, 64, 72
2, 34756, Control_c, 0, 64, 71
2, 34776, Control_c, 0, 64, 70
2, 34794, Control_c, 0, 64, 69
2, 34814, Control_c, 0, 64, 68
2, 34833, Control_c, 0, 64, 66
2, 34853, Control_c, 0, 64, 65
2, 34853, Note_on_c, 0, 49, 30
2, 34857, Note_on_c, 0, 76, 44
2, 34871, Control_c, 0, 64, 64
2, 34873, Note_on_c, 0, 51, 0
2, 34875, Note_on_c, 0, 75, 0
2, 34891, Control_c, 0, 64, 63
2, 34910, Control_c, 0, 64, 61
2, 34911, Note_on_c, 0, 44, 0
2, 34929, Control_c, 0, 64, 58
2, 34948, Control_c, 0, 64, 55
2, 34968, Control_c, 0, 64, 53
2, 34987, Control_c, 0, 64, 50
2, 35006, Control_c, 0, 64, 48
2, 35025, Control_c, 0, 64, 46
2, 35045, Control_c, 0, 64, 45
2, 35063, Control_c, 0, 64, 45
2, 35122, Control_c, 0, 64, 46
2, 35140, Control_c, 0, 64, 49
2, 35160, Control_c, 0, 64, 53
2, 35165, Note_on_c, 0, 75, 50
2, 35166, Note_on_c, 0, 76, 0
2, 35179, Control_c, 0, 64, 56
2, 35197, Control_c, 0, 64, 59
2, 35217, Control_c, 0, 64, 60
2, 35236, Control_c, 0, 64, 61
2, 35256, Control_c, 0, 64, 62
2, 35274, Control_c, 0, 64, 62
2, 35294, Control_c, 0, 64, 63
2, 35313, Control_c, 0, 64, 63
2, 35333, Control_c, 0, 64, 64
2, 35371, Control_c, 0, 64, 64
2, 35463, Note_on_c, 0, 73, 50
2, 35494, Note_on_c, 0, 75, 0
2, 35618, Control_c, 0, 64, 64
2, 35697, Control_c, 0, 64, 63
2, 35736, Control_c, 0, 64, 62
2, 35746, Note_on_c, 0, 47, 38
2, 35754, Control_c, 0, 64, 61
2, 35774, Control_c, 0, 64, 60
2, 35793, Control_c, 0, 64, 59
2, 35813, Control_c, 0, 64, 60
2, 35831, Control_c, 0, 64, 61
2, 35851, Control_c, 0, 64, 62
2, 35870, Control_c, 0, 64, 62
2, 35889, Control_c, 0, 64, 63
2, 35928, Control_c, 0, 64, 63
2, 36005, Control_c, 0, 64, 63
2, 36043, Control_c, 0, 64, 62
2, 36061, Note_on_c, 0, 45, 40
2, 36062, Control_c, 0, 64, 61
2, 36082, Control_c, 0, 64, 59
2, 36100, Control_c, 0, 64, 57
2, 36120, Control_c, 0, 64, 55
2, 36130, Note_on_c, 0, 47, 0
2, 36139, Control_c, 0, 64, 53
2, 36157, Control_c, 0, 64, 51
2, 36177, Control_c, 0, 64, 51
2, 36216, Control_c, 0, 64, 52
2, 36234, Control_c, 0, 64, 54
2, 36254, Control_c, 0, 64, 57
2, 36273, Control_c, 0, 64, 60
2, 36293, Control_c, 0, 64, 62
2, 36311, Control_c, 0, 64, 63
2, 36331, Control_c, 0, 64, 64
2, 36350, Control_c, 0, 64, 64
2, 36359, Note_on_c, 0, 75, 64
2, 36369, Control_c, 0, 64, 65
2, 36388, Control_c, 0, 64, 65
2, 36395, Note_on_c, 0, 73, 0
2, 36408, Control_c, 0, 64, 66
2, 36503, Control_c, 0, 64, 65
2, 36542, Control_c, 0, 64, 65
2, 36562, Control_c, 0, 64, 64
2, 36580, Control_c, 0, 64, 63
2, 36600, Control_c, 0, 64, 61
2, 36619, Control_c, 0, 64, 57
2, 36637, Control_c, 0, 64, 53
2, 36649, Note_on_c, 0, 73, 64
2, 36657, Control_c, 0, 64, 50
2, 36662, Note_on_c, 0, 44, 34
2, 36676, Control_c, 0, 64, 49
2, 36696, Control_c, 0, 64, 48
2, 36710, Note_on_c, 0, 75, 0
2, 36712, Note_on_c, 0, 45, 0
2, 36734, Control_c, 0, 64, 51
2, 36753, Control_c, 0, 64, 56
2, 36773, Control_c, 0, 64, 61
2, 36791, Control_c, 0, 64, 63
2, 36811, Control_c, 0, 64, 65
2, 36830, Control_c, 0, 64, 66
2, 36849, Control_c, 0, 64, 67
2, 36868, Control_c, 0, 64, 69
2, 36888, Control_c, 0, 64, 70
2, 36907, Control_c, 0, 64, 71
2, 36926, Control_c, 0, 64, 72
2, 36942, Note_on_c, 0, 72, 72
2, 36956, Note_on_c, 0, 73, 0
2, 36965, Control_c, 0, 64, 73
2, 37060, Control_c, 0, 64, 72
2, 37099, Control_c, 0, 64, 72
2, 37117, Control_c, 0, 64, 71
2, 37137, Control_c, 0, 64, 69
2, 37156, Control_c, 0, 64, 68
2, 37176, Control_c, 0, 64, 65
2, 37194, Control_c, 0, 64, 63
2, 37194, Note_on_c, 0, 44, 0
2, 37214, Control_c, 0, 64, 60
2, 37233, Control_c, 0, 64, 58
2, 37252, Note_on_c, 0, 42, 30
2, 37252, Note_on_c, 0, 73, 61
2, 37253, Control_c, 0, 64, 55
2, 37271, Control_c, 0, 64, 52
2, 37283, Note_on_c, 0, 72, 0
2, 37291, Control_c, 0, 64, 50
2, 37310, Control_c, 0, 64, 49
2, 37368, Control_c, 0, 64, 50
2, 37387, Control_c, 0, 64, 53
2, 37405, Control_c, 0, 64, 57
2, 37424, Control_c, 0, 64, 60
2, 37444, Control_c, 0, 64, 63
2, 37463, Control_c, 0, 64, 64
2, 37482, Control_c, 0, 64, 66
2, 37501, Control_c, 0, 64, 68
2, 37521, Control_c, 0, 64, 71
2, 37535, Note_on_c, 0, 76, 63
2, 37539, Control_c, 0, 64, 75
2, 37541, Note_on_c, 0, 49, 0
2, 37545, Note_on_c, 0, 73, 0
2, 37558, Control_c, 0, 64, 77
2, 37578, Control_c, 0, 64, 78
2, 37597, Control_c, 0, 64, 79
2, 37694, Control_c, 0, 64, 79
2, 37713, Control_c, 0, 64, 78
2, 37733, Control_c, 0, 64, 77
2, 37751, Control_c, 0, 64, 76
2, 37771, Control_c, 0, 64, 73
2, 37790, Control_c, 0, 64, 70
2, 37809, Control_c, 0, 64, 66
2, 37812, Note_on_c, 0, 76, 0
2, 37828, Control_c, 0, 64, 62
2, 37831, Note_on_c, 0, 69, 57
2, 37832, Note_on_c, 0, 49, 47
2, 37848, Control_c, 0, 64, 58
2, 37867, Control_c, 0, 64, 56
2, 37886, Control_c, 0, 64, 55
2, 37905, Control_c, 0, 64, 54
2, 37943, Control_c, 0, 64, 56
2, 37963, Control_c, 0, 64, 59
2, 37982, Control_c, 0, 64, 62
2, 38002, Control_c, 0, 64, 64
2, 38020, Control_c, 0, 64, 65
2, 38040, Control_c, 0, 64, 67
2, 38059, Control_c, 0, 64, 70
2, 38077, Control_c, 0, 64, 72
2, 38097, Control_c, 0, 64, 74
2, 38112, Note_on_c, 0, 68, 67
2, 38116, Control_c, 0, 64, 75
2, 38117, Note_on_c, 0, 69, 0
2, 38136, Control_c, 0, 64, 75
2, 38251, Control_c, 0, 64, 75
2, 38289, Control_c, 0, 64, 74
2, 38308, Control_c, 0, 64, 73
2, 38328, Control_c, 0, 64, 72
2, 38347, Control_c, 0, 64, 70
2, 38365, Control_c, 0, 64, 68
2, 38384, Control_c, 0, 64, 65
2, 38404, Control_c, 0, 64, 62
2, 38420, Note_on_c, 0, 54, 45
2, 38423, Control_c, 0, 64, 59
2, 38437, Note_on_c, 0, 69, 61
2, 38442, Control_c, 0, 64, 56
2, 38461, Control_c, 0, 64, 55
2, 38474, Note_on_c, 0, 68, 0
2, 38481, Control_c, 0, 64, 54
2, 38499, Control_c, 0, 64, 53
2, 38517, Note_on_c, 0, 49, 0
2, 38518, Control_c, 0, 64, 54
2, 38538, Control_c, 0, 64, 55
2, 38557, Control_c, 0, 64, 57
2, 38577, Control_c, 0, 64, 60
2, 38596, Control_c, 0, 64, 62
2, 38616, Control_c, 0, 64, 64
2, 38634, Control_c, 0, 64, 65
2, 38654, Control_c, 0, 64, 67
2, 38673, Control_c, 0, 64, 69
2, 38693, Control_c, 0, 64, 71
2, 38711, Control_c, 0, 64, 73
2, 38725, Note_on_c, 0, 72, 66
2, 38731, Control_c, 0, 64, 74
2, 38733, Note_on_c, 0, 69, 0
2, 38750, Control_c, 0, 64, 75
2, 38865, Control_c, 0, 64, 74
2, 38885, Control_c, 0, 64, 73
2, 38903, Control_c, 0, 64, 72
2, 38923, Control_c, 0, 64, 70
2, 38942, Control_c, 0, 64, 67
2, 38962, Control_c, 0, 64, 65
2, 38980, Control_c, 0, 64, 63
2, 39000, Control_c, 0, 64, 60
2, 39004, Note_on_c, 0, 72, 0
2, 39019, Control_c, 0, 64, 57
2, 39022, Note_on_c, 0, 66, 55
2, 39025, Note_on_c, 0, 44, 37
2, 39037, Control_c, 0, 64, 54
2, 39057, Control_c, 0, 64, 52
2, 39076, Control_c, 0, 64, 52
2, 39100, Note_on_c, 0, 42, 0
2, 39114, Control_c, 0, 64, 53
2, 39134, Control_c, 0, 64, 56
2, 39153, Control_c, 0, 64, 60
2, 39173, Control_c, 0, 64, 62
2, 39191, Control_c, 0, 64, 64
2, 39211, Control_c, 0, 64, 65
2, 39230, Control_c, 0, 64, 66
2, 39249, Control_c, 0, 64, 67
2, 39268, Control_c, 0, 64, 67
2, 39288, Control_c, 0, 64, 68
2, 39311, Note_on_c, 0, 66, 0
2, 39323, Note_on_c, 0, 64, 50
2, 39325, Control_c, 0, 64, 68
2, 39364, Control_c, 0, 64, 69
2, 39498, Control_c, 0, 64, 68
2, 39517, Control_c, 0, 64, 68
2, 39536, Control_c, 0, 64, 67
2, 39555, Control_c, 0, 64, 65
2, 39575, Control_c, 0, 64, 64
2, 39593, Control_c, 0, 64, 62
2, 39604, Note_on_c, 0, 66, 49
2, 39613, Control_c, 0, 64, 59
2, 39622, Note_on_c, 0, 45, 31
2, 39624, Note_on_c, 0, 64, 0
2, 39632, Control_c, 0, 64, 56
2, 39652, Control_c, 0, 64, 52
2, 39670, Control_c, 0, 64, 49
2, 39680, Note_on_c, 0, 44, 0
2, 39690, Control_c, 0, 64, 47
2, 39709, Control_c, 0, 64, 46
2, 39754, Note_on_c, 0, 54, 0
2, 39767, Control_c, 0, 64, 48
2, 39786, Control_c, 0, 64, 52
2, 39805, Control_c, 0, 64, 56
2, 39824, Control_c, 0, 64, 59
2, 39844, Control_c, 0, 64, 61
2, 39863, Control_c, 0, 64, 62
2, 39882, Control_c, 0, 64, 63
2, 39888, Note_on_c, 0, 72, 60
2, 39901, Control_c, 0, 64, 64
2, 39908, Note_on_c, 0, 66, 0
2, 39921, Control_c, 0, 64, 65
2, 39939, Control_c, 0, 64, 65
2, 40035, Control_c, 0, 64, 65
2, 40073, Control_c, 0, 64, 64
2, 40093, Control_c, 0, 64, 64
2, 40112, Control_c, 0, 64, 63
2, 40132, Control_c, 0, 64, 62
2, 40150, Control_c, 0, 64, 61
2, 40170, Control_c, 0, 64, 58
2, 40189, Control_c, 0, 64, 54
2, 40189, Note_on_c, 0, 72, 0
2, 40197, Note_on_c, 0, 73, 65
2, 40208, Control_c, 0, 64, 50
2, 40216, Note_on_c, 0, 42, 30
2, 40227, Control_c, 0, 64, 47
2, 40247, Control_c, 0, 64, 45
2, 40266, Control_c, 0, 64, 45
2, 40284, Control_c, 0, 64, 44
2, 40299, Note_on_c, 0, 45, 0
2, 40342, Control_c, 0, 64, 45
2, 40361, Control_c, 0, 64, 48
2, 40380, Control_c, 0, 64, 54
2, 40400, Control_c, 0, 64, 59
2, 40418, Control_c, 0, 64, 61
2, 40437, Control_c, 0, 64, 63
2, 40457, Control_c, 0, 64, 64
2, 40477, Control_c, 0, 64, 64
2, 40496, Note_on_c, 0, 75, 67
2, 40497, Control_c, 0, 64, 65
2, 40516, Control_c, 0, 64, 66
2, 40526, Note_on_c, 0, 73, 0
2, 40670, Control_c, 0, 64, 65
2, 40708, Control_c, 0, 64, 65
2, 40747, Control_c, 0, 64, 64
2, 40766, Control_c, 0, 64, 64
2, 40781, Note_on_c, 0, 44, 27
2, 40785, Control_c, 0, 64, 63
2, 40805, Control_c, 0, 64, 61
2, 40823, Control_c, 0, 64, 58
2, 40843, Control_c, 0, 64, 55
2, 40845, Note_on_c, 0, 76, 49
2, 40848, Note_on_c, 0, 75, 0
2, 40862, Control_c, 0, 64, 52
2, 40882, Control_c, 0, 64, 50
2, 40891, Note_on_c, 0, 42, 0
2, 40900, Control_c, 0, 64, 49
2, 40920, Control_c, 0, 64, 49
2, 40977, Control_c, 0, 64, 51
2, 40996, Control_c, 0, 64, 56
2, 41016, Control_c, 0, 64, 60
2, 41034, Control_c, 0, 64, 62
2, 41048, Note_on_c, 0, 75, 58
2, 41054, Control_c, 0, 64, 64
2, 41060, Note_on_c, 0, 76, 0
2, 41073, Control_c, 0, 64, 65
2, 41093, Control_c, 0, 64, 66
2, 41111, Control_c, 0, 64, 67
2, 41131, Control_c, 0, 64, 69
2, 41150, Control_c, 0, 64, 70
2, 41169, Control_c, 0, 64, 71
2, 41188, Control_c, 0, 64, 71
2, 41230, Note_on_c, 0, 73, 56
2, 41230, Note_on_c, 0, 75, 0
2, 41301, Control_c, 0, 64, 71
2, 41320, Control_c, 0, 64, 70
2, 41339, Control_c, 0, 64, 70
2, 41358, Control_c, 0, 64, 69
2, 41378, Control_c, 0, 64, 68
2, 41396, Control_c, 0, 64, 66
2, 41416, Control_c, 0, 64, 65
2, 41424, Note_on_c, 0, 73, 0
2, 41437, Control_c, 0, 64, 63
2, 41441, Note_on_c, 0, 54, 35
2, 41443, Note_on_c, 0, 75, 48
2, 41456, Control_c, 0, 64, 60
2, 41475, Control_c, 0, 64, 56
2, 41495, Control_c, 0, 64, 53
2, 41513, Control_c, 0, 64, 51
2, 41533, Control_c, 0, 64, 49
2, 41572, Control_c, 0, 64, 50
2, 41590, Control_c, 0, 64, 51
2, 41610, Control_c, 0, 64, 55
2, 41629, Control_c, 0, 64, 59
2, 41648, Control_c, 0, 64, 62
2, 41658, Note_on_c, 0, 75, 0
2, 41667, Control_c, 0, 64, 64
2, 41678, Note_on_c, 0, 73, 51
2, 41687, Control_c, 0, 64, 66
2, 41706, Control_c, 0, 64, 67
2, 41725, Control_c, 0, 64, 69
2, 41744, Control_c, 0, 64, 71
2, 41764, Control_c, 0, 64, 72
2, 41783, Control_c, 0, 64, 73
2, 41802, Control_c, 0, 64, 74
2, 41813, Note_on_c, 0, 44, 0
2, 41883, Note_on_c, 0, 73, 0
2, 41902, Note_on_c, 0, 72, 51
2, 41975, Control_c, 0, 64, 74
2, 42013, Control_c, 0, 64, 75
2, 42032, Control_c, 0, 64, 75
2, 42052, Control_c, 0, 64, 76
2, 42070, Control_c, 0, 64, 76
2, 42090, Control_c, 0, 64, 77
2, 42157, Note_on_c, 0, 49, 31
2, 42167, Control_c, 0, 64, 76
2, 42186, Control_c, 0, 64, 76
2, 42204, Control_c, 0, 64, 75
2, 42223, Control_c, 0, 64, 74
2, 42243, Control_c, 0, 64, 72
2, 42262, Control_c, 0, 64, 70
2, 42281, Control_c, 0, 64, 68
2, 42292, Note_on_c, 0, 73, 51
2, 42300, Control_c, 0, 64, 66
2, 42320, Control_c, 0, 64, 64
2, 42322, Note_on_c, 0, 72, 0
2, 42338, Control_c, 0, 64, 62
2, 42357, Control_c, 0, 64, 59
2, 42377, Control_c, 0, 64, 56
2, 42397, Control_c, 0, 64, 54
2, 42416, Control_c, 0, 64, 53
2, 42435, Control_c, 0, 64, 52
2, 42493, Control_c, 0, 64, 54
2, 42512, Control_c, 0, 64, 57
2, 42532, Control_c, 0, 64, 60
2, 42550, Control_c, 0, 64, 63
2, 42570, Control_c, 0, 64, 66
2, 42589, Control_c, 0, 64, 69
2, 42608, Control_c, 0, 64, 74
2, 42627, Control_c, 0, 64, 80
2, 42647, Control_c, 0, 64, 84
2, 42666, Control_c, 0, 64, 86
2, 42685, Control_c, 0, 64, 88
2, 42704, Control_c, 0, 64, 88
2, 42819, Control_c, 0, 64, 88
2, 42838, Control_c, 0, 64, 87
2, 42858, Control_c, 0, 64, 86
2, 42877, Control_c, 0, 64, 86
2, 42896, Control_c, 0, 64, 84
2, 42915, Control_c, 0, 64, 82
2, 42935, Control_c, 0, 64, 80
2, 42953, Control_c, 0, 64, 77
2, 42962, Note_on_c, 0, 52, 30
2, 42968, Note_on_c, 0, 68, 48
2, 42973, Control_c, 0, 64, 73
2, 42992, Control_c, 0, 64, 69
2, 43012, Control_c, 0, 64, 65
2, 43030, Control_c, 0, 64, 63
2, 43049, Note_on_c, 0, 54, 0
2, 43050, Control_c, 0, 64, 60
2, 43062, Note_on_c, 0, 73, 0
2, 43069, Control_c, 0, 64, 58
2, 43088, Control_c, 0, 64, 56
2, 43107, Control_c, 0, 64, 55
2, 43166, Control_c, 0, 64, 56
2, 43185, Control_c, 0, 64, 58
2, 43205, Control_c, 0, 64, 61
2, 43223, Control_c, 0, 64, 63
2, 43243, Control_c, 0, 64, 65
2, 43262, Control_c, 0, 64, 67
2, 43282, Control_c, 0, 64, 70
2, 43300, Control_c, 0, 64, 74
2, 43319, Control_c, 0, 64, 77
2, 43339, Control_c, 0, 64, 79
2, 43357, Control_c, 0, 64, 81
2, 43377, Control_c, 0, 64, 82
2, 43473, Control_c, 0, 64, 81
2, 43511, Control_c, 0, 64, 81
2, 43531, Control_c, 0, 64, 80
2, 43550, Control_c, 0, 64, 79
2, 43569, Control_c, 0, 64, 78
2, 43588, Control_c, 0, 64, 77
2, 43608, Control_c, 0, 64, 74
2, 43610, Note_on_c, 0, 56, 41
2, 43627, Control_c, 0, 64, 70
2, 43646, Control_c, 0, 64, 65
2, 43665, Control_c, 0, 64, 61
2, 43685, Control_c, 0, 64, 59
2, 43686, Note_on_c, 0, 52, 0
2, 43703, Control_c, 0, 64, 58
2, 43723, Control_c, 0, 64, 57
2, 43742, Control_c, 0, 64, 58
2, 43762, Control_c, 0, 64, 61
2, 43780, Control_c, 0, 64, 63
2, 43799, Control_c, 0, 64, 65
2, 43819, Control_c, 0, 64, 67
2, 43837, Control_c, 0, 64, 70
2, 43857, Control_c, 0, 64, 73
2, 43876, Control_c, 0, 64, 76
2, 43896, Control_c, 0, 64, 77
2, 43914, Control_c, 0, 64, 78
2, 44030, Control_c, 0, 64, 77
2, 44049, Control_c, 0, 64, 76
2, 44068, Control_c, 0, 64, 75
2, 44088, Control_c, 0, 64, 74
2, 44107, Control_c, 0, 64, 73
2, 44126, Control_c, 0, 64, 71
2, 44145, Control_c, 0, 64, 69
2, 44165, Control_c, 0, 64, 67
2, 44175, Note_on_c, 0, 61, 34
2, 44177, Note_on_c, 0, 68, 0
2, 44179, Note_on_c, 0, 64, 47
2, 44183, Control_c, 0, 64, 65
2, 44203, Control_c, 0, 64, 64
2, 44242, Control_c, 0, 64, 63
2, 44248, Note_on_c, 0, 56, 0
2, 44260, Control_c, 0, 64, 63
2, 44279, Control_c, 0, 64, 62
2, 44299, Control_c, 0, 64, 61
2, 44317, Control_c, 0, 64, 59
2, 44337, Control_c, 0, 64, 58
2, 44356, Control_c, 0, 64, 57
2, 44376, Control_c, 0, 64, 56
2, 44394, Control_c, 0, 64, 55
2, 44414, Control_c, 0, 64, 54
2, 44433, Control_c, 0, 64, 53
2, 44453, Control_c, 0, 64, 53
2, 44464, Note_on_c, 0, 66, 58
2, 44471, Control_c, 0, 64, 52
2, 44472, Note_on_c, 0, 51, 34
2, 44491, Control_c, 0, 64, 52
2, 44491, Note_on_c, 0, 64, 0
2, 44510, Control_c, 0, 64, 51
2, 44511, Note_on_c, 0, 49, 0
2, 44529, Control_c, 0, 64, 50
2, 44548, Control_c, 0, 64, 49
2, 44568, Control_c, 0, 64, 49
2, 44587, Control_c, 0, 64, 48
2, 44606, Control_c, 0, 64, 48
2, 44625, Control_c, 0, 64, 47
2, 44645, Control_c, 0, 64, 46
2, 44663, Control_c, 0, 64, 46
2, 44683, Control_c, 0, 64, 45
2, 44702, Control_c, 0, 64, 44
2, 44722, Control_c, 0, 64, 44
2, 44759, Control_c, 0, 64, 43
2, 44791, Note_on_c, 0, 68, 54
2, 44795, Note_on_c, 0, 52, 36
2, 44799, Note_on_c, 0, 66, 0
2, 44831, Note_on_c, 0, 51, 0
2, 44874, Control_c, 0, 64, 44
2, 44894, Control_c, 0, 64, 46
2, 44913, Control_c, 0, 64, 49
2, 44933, Control_c, 0, 64, 51
2, 44951, Control_c, 0, 64, 54
2, 44971, Control_c, 0, 64, 57
2, 44975, Note_on_c, 0, 66, 48
2, 44986, Note_on_c, 0, 68, 0
2, 44990, Control_c, 0, 64, 60
2, 45009, Control_c, 0, 64, 62
2, 45028, Control_c, 0, 64, 63
2, 45048, Control_c, 0, 64, 64
2, 45067, Control_c, 0, 64, 65
2, 45086, Control_c, 0, 64, 67
2, 45102, Note_on_c, 0, 61, 0
2, 45105, Control_c, 0, 64, 69
2, 45125, Control_c, 0, 64, 70
2, 45142, Note_on_c, 0, 66, 0
2, 45143, Control_c, 0, 64, 71
2, 45150, Note_on_c, 0, 52, 0
2, 45172, Note_on_c, 0, 64, 48
2, 45220, Control_c, 0, 64, 70
2, 45281, Control_c, 0, 64, 70
2, 45300, Control_c, 0, 64, 69
2, 45319, Control_c, 0, 64, 68
2, 45338, Control_c, 0, 64, 67
2, 45338, Note_on_c, 0, 64, 0
2, 45357, Control_c, 0, 64, 65
2, 45358, Note_on_c, 0, 66, 43
2, 45370, Note_on_c, 0, 60, 31
2, 45375, Note_on_c, 0, 56, 29
2, 45377, Control_c, 0, 64, 64
2, 45396, Control_c, 0, 64, 61
2, 45415, Control_c, 0, 64, 57
2, 45434, Control_c, 0, 64, 52
2, 45454, Control_c, 0, 64, 48
2, 45473, Control_c, 0, 64, 46
2, 45492, Control_c, 0, 64, 44
2, 45511, Control_c, 0, 64, 44
2, 45533, Note_on_c, 0, 66, 0
2, 45562, Note_on_c, 0, 64, 40
2, 45588, Control_c, 0, 64, 44
2, 45608, Control_c, 0, 64, 47
2, 45626, Control_c, 0, 64, 51
2, 45646, Control_c, 0, 64, 56
2, 45665, Control_c, 0, 64, 60
2, 45684, Control_c, 0, 64, 63
2, 45703, Control_c, 0, 64, 64
2, 45704, Note_on_c, 0, 64, 0
2, 45723, Control_c, 0, 64, 66
2, 45742, Control_c, 0, 64, 68
2, 45743, Note_on_c, 0, 60, 0
2, 45761, Control_c, 0, 64, 70
2, 45761, Note_on_c, 0, 63, 40
2, 45780, Control_c, 0, 64, 71
2, 45799, Control_c, 0, 64, 73
2, 45818, Control_c, 0, 64, 73
2, 45863, Note_on_c, 0, 56, 0
2, 45895, Control_c, 0, 64, 73
2, 46011, Control_c, 0, 64, 72
2, 46056, Note_on_c, 0, 61, 48
2, 46068, Control_c, 0, 64, 72
2, 46091, Note_on_c, 0, 63, 0
2, 46101, Note_on_c, 0, 49, 35
2, 46106, Control_c, 0, 64, 71
2, 46115, Note_on_c, 0, 64, 35
2, 46126, Control_c, 0, 64, 71
2, 46145, Control_c, 0, 64, 70
2, 46164, Control_c, 0, 64, 69
2, 46183, Control_c, 0, 64, 68
2, 46203, Control_c, 0, 64, 65
2, 46222, Control_c, 0, 64, 62
2, 46241, Control_c, 0, 64, 59
2, 46260, Control_c, 0, 64, 56
2, 46279, Control_c, 0, 64, 53
2, 46298, Control_c, 0, 64, 50
2, 46317, Control_c, 0, 64, 49
2, 46337, Control_c, 0, 64, 49
2, 46356, Control_c, 0, 64, 48
2, 46394, Control_c, 0, 64, 49
2, 46402, Note_on_c, 0, 64, 0
2, 46414, Control_c, 0, 64, 51
2, 46418, Note_on_c, 0, 66, 42
2, 46433, Control_c, 0, 64, 54
2, 46452, Control_c, 0, 64, 58
2, 46471, Control_c, 0, 64, 62
2, 46491, Control_c, 0, 64, 64
2, 46509, Control_c, 0, 64, 66
2, 46529, Control_c, 0, 64, 68
2, 46548, Control_c, 0, 64, 70
2, 46568, Control_c, 0, 64, 71
2, 46586, Control_c, 0, 64, 73
2, 46606, Control_c, 0, 64, 74
2, 46644, Control_c, 0, 64, 73
2, 46702, Control_c, 0, 64, 73
2, 46715, Note_on_c, 0, 56, 47
2, 46721, Control_c, 0, 64, 72
2, 46726, Note_on_c, 0, 64, 47
2, 46738, Note_on_c, 0, 66, 0
2, 46740, Control_c, 0, 64, 71
2, 46759, Control_c, 0, 64, 69
2, 46763, Note_on_c, 0, 61, 0
2, 46778, Control_c, 0, 64, 66
2, 46797, Control_c, 0, 64, 64
2, 46817, Control_c, 0, 64, 63
2, 46836, Control_c, 0, 64, 62
2, 46855, Control_c, 0, 64, 61
2, 46874, Control_c, 0, 64, 59
2, 46894, Control_c, 0, 64, 55
2, 46913, Control_c, 0, 64, 52
2, 46932, Control_c, 0, 64, 50
2, 46951, Control_c, 0, 64, 48
2, 46971, Control_c, 0, 64, 48
2, 46985, Note_on_c, 0, 64, 0
2, 47009, Note_on_c, 0, 63, 49
2, 47121, Control_c, 0, 64, 49
2, 47139, Control_c, 0, 64, 50
2, 47158, Control_c, 0, 64, 53
2, 47178, Control_c, 0, 64, 56
2, 47196, Control_c, 0, 64, 59
2, 47215, Control_c, 0, 64, 61
2, 47234, Control_c, 0, 64, 62
2, 47254, Control_c, 0, 64, 63
2, 47273, Control_c, 0, 64, 64
2, 47292, Control_c, 0, 64, 65
2, 47302, Note_on_c, 0, 63, 0
2, 47302, Note_on_c, 0, 64, 55
2, 47311, Control_c, 0, 64, 66
2, 47331, Control_c, 0, 64, 66
2, 47349, Control_c, 0, 64, 67
2, 47369, Control_c, 0, 64, 67
2, 47503, Control_c, 0, 64, 67
2, 47523, Control_c, 0, 64, 66
2, 47535, Note_on_c, 0, 56, 0
2, 47542, Control_c, 0, 64, 65
2, 47561, Control_c, 0, 64, 63
2, 47575, Note_on_c, 0, 68, 55
2, 47577, Note_on_c, 0, 64, 0
2, 47580, Control_c, 0, 64, 61
2, 47599, Control_c, 0, 64, 59
2, 47603, Note_on_c, 0, 54, 35
2, 47618, Control_c, 0, 64, 60
2, 47637, Control_c, 0, 64, 62
2, 47657, Control_c, 0, 64, 63
2, 47676, Control_c, 0, 64, 65
2, 47695, Control_c, 0, 64, 66
2, 47714, Control_c, 0, 64, 67
2, 47734, Control_c, 0, 64, 68
2, 47753, Control_c, 0, 64, 69
2, 47861, Note_on_c, 0, 73, 59
2, 47868, Control_c, 0, 64, 68
2, 47881, Note_on_c, 0, 54, 0
2, 47891, Note_on_c, 0, 68, 0
2, 47896, Note_on_c, 0, 52, 39
2, 47941, Note_on_c, 0, 49, 0
2, 47997, Control_c, 0, 64, 68
2, 48036, Control_c, 0, 64, 67
2, 48055, Control_c, 0, 64, 67
2, 48074, Control_c, 0, 64, 66
2, 48094, Control_c, 0, 64, 65
2, 48113, Control_c, 0, 64, 64
2, 48131, Note_on_c, 0, 75, 62
2, 48132, Control_c, 0, 64, 61
2, 48158, Control_c, 0, 64, 59
2, 48167, Note_on_c, 0, 47, 38
2, 48177, Control_c, 0, 64, 57
2, 48186, Note_on_c, 0, 73, 0
2, 48196, Control_c, 0, 64, 56
2, 48216, Control_c, 0, 64, 55
2, 48254, Control_c, 0, 64, 56
2, 48273, Control_c, 0, 64, 59
2, 48293, Control_c, 0, 64, 61
2, 48311, Control_c, 0, 64, 62
2, 48331, Control_c, 0, 64, 63
2, 48350, Control_c, 0, 64, 63
2, 48369, Control_c, 0, 64, 64
2, 48388, Control_c, 0, 64, 64
2, 48421, Note_on_c, 0, 47, 0
2, 48455, Note_on_c, 0, 75, 0
2, 48465, Note_on_c, 0, 76, 53
2, 48475, Note_on_c, 0, 46, 19
2, 48503, Control_c, 0, 64, 64
2, 48562, Control_c, 0, 64, 63
2, 48599, Control_c, 0, 64, 63
2, 48619, Control_c, 0, 64, 62
2, 48638, Control_c, 0, 64, 61
2, 48657, Control_c, 0, 64, 60
2, 48667, Note_on_c, 0, 79, 65
2, 48676, Control_c, 0, 64, 59
2, 48677, Note_on_c, 0, 76, 0
2, 48696, Control_c, 0, 64, 58
2, 48706, Note_on_c, 0, 52, 0
2, 48714, Control_c, 0, 64, 57
2, 48734, Control_c, 0, 64, 56
2, 48753, Control_c, 0, 64, 55
2, 48773, Control_c, 0, 64, 54
2, 48791, Control_c, 0, 64, 53
2, 48811, Control_c, 0, 64, 52
2, 48830, Control_c, 0, 64, 50
2, 48849, Control_c, 0, 64, 49
2, 48852, Note_on_c, 0, 78, 68
2, 48866, Note_on_c, 0, 79, 0
2, 48868, Control_c, 0, 64, 48
2, 48888, Control_c, 0, 64, 47
2, 48907, Control_c, 0, 64, 47
2, 48926, Control_c, 0, 64, 46
2, 48945, Control_c, 0, 64, 46
2, 48965, Control_c, 0, 64, 45
2, 48983, Control_c, 0, 64, 45
2, 49003, Control_c, 0, 64, 44
2, 49035, Note_on_c, 0, 76, 65
2, 49044, Note_on_c, 0, 78, 0
2, 49055, Note_on_c, 0, 52, 26
2, 49065, Note_on_c, 0, 49, 34
2, 49093, Note_on_c, 0, 46, 0
2, 49175, Control_c, 0, 64, 46
2, 49193, Control_c, 0, 64, 49
2, 49213, Control_c, 0, 64, 53
2, 49217, Note_on_c, 0, 76, 0
2, 49232, Control_c, 0, 64, 57
2, 49233, Note_on_c, 0, 74, 63
2, 49252, Control_c, 0, 64, 60
2, 49270, Control_c, 0, 64, 62
2, 49290, Control_c, 0, 64, 63
2, 49309, Control_c, 0, 64, 63
2, 49328, Control_c, 0, 64, 64
2, 49386, Control_c, 0, 64, 64
2, 49415, Note_on_c, 0, 73, 65
2, 49427, Note_on_c, 0, 74, 0
2, 49520, Control_c, 0, 64, 64
2, 49558, Control_c, 0, 64, 63
2, 49578, Control_c, 0, 64, 62
2, 49597, Control_c, 0, 64, 61
2, 49616, Control_c, 0, 64, 58
2, 49619, Note_on_c, 0, 42, 29
2, 49619, Note_on_c, 0, 73, 0
2, 49620, Note_on_c, 0, 71, 63
2, 49635, Control_c, 0, 64, 54
2, 49643, Note_on_c, 0, 49, 0
2, 49655, Control_c, 0, 64, 49
2, 49673, Control_c, 0, 64, 46
2, 49693, Control_c, 0, 64, 44
2, 49712, Control_c, 0, 64, 44
2, 49770, Control_c, 0, 64, 45
2, 49789, Control_c, 0, 64, 50
2, 49807, Note_on_c, 0, 70, 64
2, 49808, Control_c, 0, 64, 55
2, 49816, Note_on_c, 0, 71, 0
2, 49827, Control_c, 0, 64, 59
2, 49847, Control_c, 0, 64, 62
2, 49866, Control_c, 0, 64, 63
2, 49884, Control_c, 0, 64, 64
2, 49903, Control_c, 0, 64, 64
2, 49923, Control_c, 0, 64, 65
2, 50003, Note_on_c, 0, 73, 61
2, 50005, Note_on_c, 0, 70, 0
2, 50115, Control_c, 0, 64, 64
2, 50153, Control_c, 0, 64, 64
2, 50173, Control_c, 0, 64, 63
2, 50192, Control_c, 0, 64, 62
2, 50212, Control_c, 0, 64, 61
2, 50228, Note_on_c, 0, 49, 25
2, 50230, Control_c, 0, 64, 59
2, 50250, Control_c, 0, 64, 55
2, 50261, Note_on_c, 0, 64, 44
2, 50269, Control_c, 0, 64, 51
2, 50272, Note_on_c, 0, 73, 0
2, 50288, Control_c, 0, 64, 47
2, 50291, Note_on_c, 0, 52, 0
2, 50307, Control_c, 0, 64, 44
2, 50327, Control_c, 0, 64, 41
2, 50346, Control_c, 0, 64, 39
2, 50461, Control_c, 0, 64, 41
2, 50480, Control_c, 0, 64, 46
2, 50499, Control_c, 0, 64, 52
2, 50518, Control_c, 0, 64, 56
2, 50538, Control_c, 0, 64, 59
2, 50557, Control_c, 0, 64, 61
2, 50576, Control_c, 0, 64, 62
2, 50595, Control_c, 0, 64, 62
2, 50615, Control_c, 0, 64, 63
2, 50653, Control_c, 0, 64, 64
2, 50845, Control_c, 0, 64, 63
2, 50863, Note_on_c, 0, 54, 27
2, 50884, Control_c, 0, 64, 63
2, 50903, Control_c, 0, 64, 62
2, 50922, Control_c, 0, 64, 60
2, 50925, Note_on_c, 0, 49, 0
2, 50941, Control_c, 0, 64, 57
2, 50960, Control_c, 0, 64, 53
2, 50963, Note_on_c, 0, 42, 0
2, 50979, Control_c, 0, 64, 48
2, 50991, Note_on_c, 0, 64, 0
2, 50998, Control_c, 0, 64, 44
2, 51018, Control_c, 0, 64, 39
2, 51035, Note_on_c, 0, 66, 38
2, 51038, Control_c, 0, 64, 35
2, 51057, Control_c, 0, 64, 31
2, 51076, Control_c, 0, 64, 26
2, 51096, Control_c, 0, 64, 20
2, 51114, Control_c, 0, 64, 17
2, 51134, Control_c, 0, 64, 15
2, 51140, Note_on_c, 0, 66, 0
2, 51153, Control_c, 0, 64, 11
2, 51164, Note_on_c, 0, 64, 51
2, 51173, Control_c, 0, 64, 9
2, 51191, Control_c, 0, 64, 0
2, 51243, Note_on_c, 0, 64, 0
2, 51283, Note_on_c, 0, 63, 48
2, 51449, Note_on_c, 0, 63, 0
2, 51452, Note_on_c, 0, 64, 42
2, 51465, Note_on_c, 0, 49, 35
2, 51523, Note_on_c, 0, 64, 0
2, 51775, Note_on_c, 0, 64, 40
2, 52097, Note_on_c, 0, 46, 19
2, 52115, Note_on_c, 0, 49, 0
2, 52376, Note_on_c, 0, 70, 51
2, 52426, Note_on_c, 0, 64, 0
2, 52683, Note_on_c, 0, 42, 35
2, 52696, Note_on_c, 0, 70, 0
2, 52696, Note_on_c, 0, 71, 48
2, 52738, Note_on_c, 0, 46, 0
2, 52999, Note_on_c, 0, 71, 0
2, 53028, Note_on_c, 0, 73, 39
2, 53346, Note_on_c, 0, 47, 17
2, 53349, Note_on_c, 0, 73, 0
2, 53369, Note_on_c, 0, 62, 37
2, 53457, Note_on_c, 0, 42, 0
2, 53459, Control_c, 0, 64, 29
2, 53478, Control_c, 0, 64, 47
2, 53498, Control_c, 0, 64, 58
2, 53516, Control_c, 0, 64, 62
2, 53536, Control_c, 0, 64, 64
2, 53555, Control_c, 0, 64, 66
2, 53575, Control_c, 0, 64, 69
2, 53593, Control_c, 0, 64, 74
2, 53612, Control_c, 0, 64, 80
2, 53632, Control_c, 0, 64, 85
2, 53650, Control_c, 0, 64, 89
2, 53670, Control_c, 0, 64, 91
2, 53686, Note_on_c, 0, 62, 0
2, 53717, Note_on_c, 0, 64, 34
2, 53719, Note_on_c, 0, 54, 0
2, 53804, Control_c, 0, 64, 91
2, 53824, Control_c, 0, 64, 90
2, 53843, Control_c, 0, 64, 89
2, 53862, Control_c, 0, 64, 88
2, 53881, Control_c, 0, 64, 87
2, 53901, Control_c, 0, 64, 85
2, 53920, Control_c, 0, 64, 82
2, 53939, Control_c, 0, 64, 79
2, 53958, Control_c, 0, 64, 74
2, 53978, Control_c, 0, 64, 70
2, 53987, Note_on_c, 0, 62, 43
2, 53996, Control_c, 0, 64, 66
2, 53996, Note_on_c, 0, 64, 0
2, 54010, Note_on_c, 0, 54, 27
2, 54016, Control_c, 0, 64, 63
2, 54035, Control_c, 0, 64, 59
2, 54055, Control_c, 0, 64, 56
2, 54073, Control_c, 0, 64, 53
2, 54092, Control_c, 0, 64, 50
2, 54112, Control_c, 0, 64, 48
2, 54130, Control_c, 0, 64, 49
2, 54150, Control_c, 0, 64, 53
2, 54169, Control_c, 0, 64, 58
2, 54189, Control_c, 0, 64, 62
2, 54207, Control_c, 0, 64, 64
2, 54227, Control_c, 0, 64, 66
2, 54246, Control_c, 0, 64, 67
2, 54259, Note_on_c, 0, 62, 0
2, 54266, Control_c, 0, 64, 70
2, 54268, Note_on_c, 0, 61, 52
2, 54284, Control_c, 0, 64, 72
2, 54304, Control_c, 0, 64, 75
2, 54323, Control_c, 0, 64, 76
2, 54458, Control_c, 0, 64, 76
2, 54476, Control_c, 0, 64, 75
2, 54490, Note_on_c, 0, 54, 0
2, 54496, Control_c, 0, 64, 73
2, 54515, Control_c, 0, 64, 70
2, 54535, Control_c, 0, 64, 66
2, 54547, Note_on_c, 0, 59, 38
2, 54553, Control_c, 0, 64, 62
2, 54563, Note_on_c, 0, 62, 54
2, 54572, Control_c, 0, 64, 57
2, 54580, Note_on_c, 0, 61, 0
2, 54592, Control_c, 0, 64, 54
2, 54610, Control_c, 0, 64, 51
2, 54630, Control_c, 0, 64, 50
2, 54649, Control_c, 0, 64, 52
2, 54669, Control_c, 0, 64, 57
2, 54686, Control_c, 0, 64, 61
2, 54705, Control_c, 0, 64, 63
2, 54724, Control_c, 0, 64, 65
2, 54744, Control_c, 0, 64, 66
2, 54762, Control_c, 0, 64, 68
2, 54782, Control_c, 0, 64, 70
2, 54801, Control_c, 0, 64, 73
2, 54806, Note_on_c, 0, 59, 0
2, 54821, Control_c, 0, 64, 78
2, 54839, Control_c, 0, 64, 82
2, 54844, Note_on_c, 0, 62, 0
2, 54848, Note_on_c, 0, 54, 36
2, 54850, Note_on_c, 0, 66, 57
2, 54859, Control_c, 0, 64, 86
2, 54878, Control_c, 0, 64, 89
2, 54897, Control_c, 0, 64, 91
2, 54916, Control_c, 0, 64, 93
2, 54936, Control_c, 0, 64, 94
2, 54955, Control_c, 0, 64, 94
2, 55012, Control_c, 0, 64, 91
2, 55031, Control_c, 0, 64, 85
2, 55050, Control_c, 0, 64, 78
2, 55070, Control_c, 0, 64, 71
2, 55089, Control_c, 0, 64, 68
2, 55119, Note_on_c, 0, 50, 35
2, 55121, Note_on_c, 0, 71, 65
2, 55127, Control_c, 0, 64, 70
2, 55136, Note_on_c, 0, 54, 0
2, 55140, Note_on_c, 0, 66, 0
2, 55147, Control_c, 0, 64, 74
2, 55166, Control_c, 0, 64, 79
2, 55185, Control_c, 0, 64, 85
2, 55192, Note_on_c, 0, 47, 0
2, 55204, Control_c, 0, 64, 89
2, 55224, Control_c, 0, 64, 91
2, 55242, Control_c, 0, 64, 93
2, 55262, Control_c, 0, 64, 95
2, 55281, Control_c, 0, 64, 96
2, 55301, Control_c, 0, 64, 97
2, 55357, Note_on_c, 0, 50, 0
2, 55358, Control_c, 0, 64, 96
2, 55377, Control_c, 0, 64, 94
2, 55391, Note_on_c, 0, 73, 72
2, 55396, Control_c, 0, 64, 93
2, 55414, Note_on_c, 0, 54, 47
2, 55425, Note_on_c, 0, 71, 0
2, 55627, Control_c, 0, 64, 93
2, 55644, Note_on_c, 0, 73, 0
2, 55645, Control_c, 0, 64, 90
2, 55658, Note_on_c, 0, 54, 0
2, 55664, Control_c, 0, 64, 83
2, 55671, Note_on_c, 0, 47, 51
2, 55680, Note_on_c, 0, 74, 67
2, 55683, Control_c, 0, 64, 75
2, 55703, Control_c, 0, 64, 69
2, 55721, Control_c, 0, 64, 66
2, 55741, Control_c, 0, 64, 67
2, 55760, Control_c, 0, 64, 69
2, 55780, Control_c, 0, 64, 72
2, 55798, Control_c, 0, 64, 75
2, 55818, Control_c, 0, 64, 79
2, 55838, Control_c, 0, 64, 83
2, 55857, Control_c, 0, 64, 85
2, 55876, Control_c, 0, 64, 85
2, 55880, Note_on_c, 0, 78, 74
2, 55898, Note_on_c, 0, 74, 0
2, 55960, Note_on_c, 0, 47, 0
2, 55982, Note_on_c, 0, 50, 50
2, 55991, Control_c, 0, 64, 85
2, 56049, Control_c, 0, 64, 84
2, 56066, Note_on_c, 0, 76, 75
2, 56087, Control_c, 0, 64, 84
2, 56106, Note_on_c, 0, 78, 0
2, 56107, Control_c, 0, 64, 83
2, 56126, Control_c, 0, 64, 82
2, 56145, Control_c, 0, 64, 81
2, 56164, Control_c, 0, 64, 80
2, 56184, Control_c, 0, 64, 79
2, 56202, Control_c, 0, 64, 78
2, 56222, Control_c, 0, 64, 76
2, 56238, Note_on_c, 0, 76, 0
2, 56241, Control_c, 0, 64, 74
2, 56257, Note_on_c, 0, 74, 71
2, 56261, Control_c, 0, 64, 71
2, 56276, Note_on_c, 0, 44, 49
2, 56279, Control_c, 0, 64, 68
2, 56299, Control_c, 0, 64, 65
2, 56318, Control_c, 0, 64, 63
2, 56337, Control_c, 0, 64, 61
2, 56356, Control_c, 0, 64, 59
2, 56442, Note_on_c, 0, 73, 69
2, 56452, Control_c, 0, 64, 60
2, 56471, Control_c, 0, 64, 60
2, 56479, Note_on_c, 0, 74, 0
2, 56490, Control_c, 0, 64, 61
2, 56510, Control_c, 0, 64, 62
2, 56529, Control_c, 0, 64, 63
2, 56544, Note_on_c, 0, 44, 0
2, 56548, Control_c, 0, 64, 64
2, 56549, Note_on_c, 0, 47, 49
2, 56567, Control_c, 0, 64, 64
2, 56587, Control_c, 0, 64, 65
2, 56606, Control_c, 0, 64, 66
2, 56626, Control_c, 0, 64, 67
2, 56640, Note_on_c, 0, 71, 71
2, 56645, Control_c, 0, 64, 68
2, 56665, Control_c, 0, 64, 69
2, 56679, Note_on_c, 0, 73, 0
2, 56683, Control_c, 0, 64, 69
2, 56741, Control_c, 0, 64, 69
2, 56760, Control_c, 0, 64, 68
2, 56780, Control_c, 0, 64, 68
2, 56800, Control_c, 0, 64, 67
2, 56819, Control_c, 0, 64, 66
2, 56838, Control_c, 0, 64, 65
2, 56850, Note_on_c, 0, 71, 0
2, 56858, Control_c, 0, 64, 63
2, 56859, Note_on_c, 0, 69, 69
2, 56860, Note_on_c, 0, 40, 51
2, 56864, Note_on_c, 0, 47, 0
2, 56876, Control_c, 0, 64, 61
2, 56896, Control_c, 0, 64, 59
2, 56915, Control_c, 0, 64, 57
2, 56935, Control_c, 0, 64, 53
2, 56953, Control_c, 0, 64, 50
2, 56972, Control_c, 0, 64, 48
2, 57030, Control_c, 0, 64, 50
2, 57046, Note_on_c, 0, 68, 69
2, 57049, Control_c, 0, 64, 52
2, 57069, Control_c, 0, 64, 55
2, 57076, Note_on_c, 0, 69, 0
2, 57087, Control_c, 0, 64, 59
2, 57107, Control_c, 0, 64, 61
2, 57126, Control_c, 0, 64, 63
2, 57146, Control_c, 0, 64, 64
2, 57164, Control_c, 0, 64, 66
2, 57184, Control_c, 0, 64, 67
2, 57203, Control_c, 0, 64, 68
2, 57222, Control_c, 0, 64, 70
2, 57236, Note_on_c, 0, 68, 0
2, 57236, Note_on_c, 0, 71, 67
2, 57241, Control_c, 0, 64, 71
2, 57261, Control_c, 0, 64, 72
2, 57280, Control_c, 0, 64, 73
2, 57376, Control_c, 0, 64, 72
2, 57395, Control_c, 0, 64, 71
2, 57415, Control_c, 0, 64, 70
2, 57433, Control_c, 0, 64, 68
2, 57447, Note_on_c, 0, 50, 0
2, 57452, Control_c, 0, 64, 66
2, 57452, Note_on_c, 0, 47, 34
2, 57465, Note_on_c, 0, 71, 0
2, 57472, Control_c, 0, 64, 64
2, 57490, Control_c, 0, 64, 61
2, 57492, Note_on_c, 0, 62, 51
2, 57510, Control_c, 0, 64, 58
2, 57529, Control_c, 0, 64, 55
2, 57549, Control_c, 0, 64, 52
2, 57566, Control_c, 0, 64, 50
2, 57586, Control_c, 0, 64, 50
2, 57625, Control_c, 0, 64, 51
2, 57643, Control_c, 0, 64, 54
2, 57663, Control_c, 0, 64, 57
2, 57682, Control_c, 0, 64, 60
2, 57701, Control_c, 0, 64, 62
2, 57720, Control_c, 0, 64, 63
2, 57740, Control_c, 0, 64, 64
2, 57760, Control_c, 0, 64, 65
2, 57779, Control_c, 0, 64, 66
2, 57798, Control_c, 0, 64, 67
2, 57818, Control_c, 0, 64, 68
2, 57836, Control_c, 0, 64, 69
2, 57856, Control_c, 0, 64, 71
2, 57875, Control_c, 0, 64, 72
2, 57895, Control_c, 0, 64, 72
2, 58046, Note_on_c, 0, 47, 0
2, 58067, Control_c, 0, 64, 72
2, 58070, Note_on_c, 0, 52, 34
2, 58086, Control_c, 0, 64, 71
2, 58124, Control_c, 0, 64, 70
2, 58144, Control_c, 0, 64, 69
2, 58155, Note_on_c, 0, 40, 0
2, 58163, Control_c, 0, 64, 67
2, 58182, Control_c, 0, 64, 65
2, 58198, Note_on_c, 0, 62, 0
2, 58201, Control_c, 0, 64, 64
2, 58221, Control_c, 0, 64, 63
2, 58235, Note_on_c, 0, 64, 47
2, 58240, Control_c, 0, 64, 62
2, 58259, Control_c, 0, 64, 61
2, 58278, Control_c, 0, 64, 59
2, 58298, Control_c, 0, 64, 58
2, 58316, Control_c, 0, 64, 56
2, 58336, Control_c, 0, 64, 55
2, 58347, Note_on_c, 0, 64, 0
2, 58355, Control_c, 0, 64, 53
2, 58357, Note_on_c, 0, 62, 53
2, 58375, Control_c, 0, 64, 52
2, 58393, Control_c, 0, 64, 50
2, 58412, Control_c, 0, 64, 49
2, 58432, Control_c, 0, 64, 48
2, 58450, Control_c, 0, 64, 48
2, 58450, Note_on_c, 0, 62, 0
2, 58489, Control_c, 0, 64, 47
2, 58489, Note_on_c, 0, 61, 50
2, 58565, Control_c, 0, 64, 47
2, 58603, Control_c, 0, 64, 46
2, 58639, Note_on_c, 0, 62, 47
2, 58642, Note_on_c, 0, 61, 0
2, 58643, Note_on_c, 0, 47, 24
2, 58729, Note_on_c, 0, 62, 0
2, 58951, Note_on_c, 0, 62, 34
2, 58969, Control_c, 0, 64, 46
2, 59046, Control_c, 0, 64, 45
2, 59237, Note_on_c, 0, 44, 27
2, 59252, Note_on_c, 0, 47, 0
2, 59258, Control_c, 0, 64, 46
2, 59276, Control_c, 0, 64, 47
2, 59296, Control_c, 0, 64, 49
2, 59315, Control_c, 0, 64, 50
2, 59353, Control_c, 0, 64, 51
2, 59372, Control_c, 0, 64, 51
2, 59392, Control_c, 0, 64, 52
2, 59430, Control_c, 0, 64, 52
2, 59469, Control_c, 0, 64, 53
2, 59559, Note_on_c, 0, 68, 50
2, 59578, Note_on_c, 0, 62, 0
2, 59641, Control_c, 0, 64, 52
2, 59680, Control_c, 0, 64, 52
2, 59718, Control_c, 0, 64, 51
2, 59776, Control_c, 0, 64, 51
2, 59795, Control_c, 0, 64, 50
2, 59833, Control_c, 0, 64, 50
2, 59872, Control_c, 0, 64, 49
2, 59880, Note_on_c, 0, 40, 20
2, 59886, Note_on_c, 0, 69, 49
2, 59897, Note_on_c, 0, 68, 0
2, 59929, Control_c, 0, 64, 49
2, 59935, Note_on_c, 0, 44, 0
2, 59987, Control_c, 0, 64, 48
2, 60044, Control_c, 0, 64, 48
2, 60083, Control_c, 0, 64, 47
2, 60171, Note_on_c, 0, 69, 0
2, 60215, Note_on_c, 0, 71, 41
2, 60275, Control_c, 0, 64, 47
2, 60530, Note_on_c, 0, 45, 21
2, 60555, Note_on_c, 0, 61, 33
2, 60565, Note_on_c, 0, 71, 0
2, 60600, Control_c, 0, 64, 47
2, 60620, Control_c, 0, 64, 48
2, 60639, Control_c, 0, 64, 50
2, 60656, Note_on_c, 0, 40, 0
2, 60658, Control_c, 0, 64, 52
2, 60677, Control_c, 0, 64, 54
2, 60697, Control_c, 0, 64, 56
2, 60716, Control_c, 0, 64, 58
2, 60735, Control_c, 0, 64, 60
2, 60754, Control_c, 0, 64, 62
2, 60773, Control_c, 0, 64, 64
2, 60792, Control_c, 0, 64, 66
2, 60811, Control_c, 0, 64, 68
2, 60831, Control_c, 0, 64, 73
2, 60850, Control_c, 0, 64, 79
2, 60865, Note_on_c, 0, 61, 0
2, 60869, Control_c, 0, 64, 85
2, 60887, Note_on_c, 0, 52, 0
2, 60888, Control_c, 0, 64, 89
2, 60893, Note_on_c, 0, 62, 32
2, 60908, Control_c, 0, 64, 90
2, 61003, Control_c, 0, 64, 90
2, 61042, Control_c, 0, 64, 89
2, 61061, Control_c, 0, 64, 88
2, 61080, Control_c, 0, 64, 87
2, 61100, Control_c, 0, 64, 85
2, 61119, Control_c, 0, 64, 82
2, 61138, Control_c, 0, 64, 79
2, 61149, Note_on_c, 0, 62, 0
2, 61157, Control_c, 0, 64, 75
2, 61175, Note_on_c, 0, 61, 41
2, 61177, Control_c, 0, 64, 71
2, 61188, Note_on_c, 0, 52, 35
2, 61196, Control_c, 0, 64, 67
2, 61215, Control_c, 0, 64, 64
2, 61234, Control_c, 0, 64, 61
2, 61253, Control_c, 0, 64, 59
2, 61272, Control_c, 0, 64, 58
2, 61311, Control_c, 0, 64, 59
2, 61330, Control_c, 0, 64, 60
2, 61349, Control_c, 0, 64, 61
2, 61368, Control_c, 0, 64, 63
2, 61388, Control_c, 0, 64, 65
2, 61407, Control_c, 0, 64, 66
2, 61427, Control_c, 0, 64, 69
2, 61446, Control_c, 0, 64, 71
2, 61466, Control_c, 0, 64, 73
2, 61466, Note_on_c, 0, 61, 0
2, 61473, Note_on_c, 0, 59, 51
2, 61484, Control_c, 0, 64, 75
2, 61504, Control_c, 0, 64, 76
2, 61638, Control_c, 0, 64, 76
2, 61676, Control_c, 0, 64, 75
2, 61696, Control_c, 0, 64, 74
2, 61715, Control_c, 0, 64, 73
2, 61735, Control_c, 0, 64, 71
2, 61753, Control_c, 0, 64, 67
2, 61772, Control_c, 0, 64, 64
2, 61772, Note_on_c, 0, 57, 38
2, 61779, Note_on_c, 0, 61, 43
2, 61783, Note_on_c, 0, 52, 0
2, 61788, Note_on_c, 0, 59, 0
2, 61792, Control_c, 0, 64, 61
2, 61811, Control_c, 0, 64, 59
2, 61830, Control_c, 0, 64, 58
2, 61849, Control_c, 0, 64, 57
2, 61869, Control_c, 0, 64, 57
2, 61887, Control_c, 0, 64, 60
2, 61898, Note_on_c, 0, 45, 0
2, 61907, Control_c, 0, 64, 63
2, 61926, Control_c, 0, 64, 64
2, 61946, Control_c, 0, 64, 66
2, 61964, Control_c, 0, 64, 68
2, 61984, Control_c, 0, 64, 70
2, 62003, Control_c, 0, 64, 73
2, 62022, Control_c, 0, 64, 74
2, 62041, Control_c, 0, 64, 76
2, 62048, Note_on_c, 0, 61, 0
2, 62061, Control_c, 0, 64, 76
2, 62071, Note_on_c, 0, 64, 55
2, 62099, Control_c, 0, 64, 77
2, 62118, Control_c, 0, 64, 77
2, 62138, Control_c, 0, 64, 78
2, 62214, Control_c, 0, 64, 78
2, 62291, Control_c, 0, 64, 78
2, 62310, Control_c, 0, 64, 77
2, 62329, Control_c, 0, 64, 74
2, 62331, Note_on_c, 0, 57, 0
2, 62346, Note_on_c, 0, 69, 56
2, 62349, Control_c, 0, 64, 69
2, 62351, Note_on_c, 0, 64, 0
2, 62353, Note_on_c, 0, 56, 28
2, 62366, Control_c, 0, 64, 65
2, 62385, Control_c, 0, 64, 63
2, 62424, Control_c, 0, 64, 64
2, 62442, Control_c, 0, 64, 65
2, 62462, Control_c, 0, 64, 67
2, 62481, Control_c, 0, 64, 69
2, 62501, Control_c, 0, 64, 73
2, 62519, Control_c, 0, 64, 76
2, 62539, Control_c, 0, 64, 78
2, 62560, Control_c, 0, 64, 78
2, 62579, Control_c, 0, 64, 78
2, 62623, Note_on_c, 0, 71, 66
2, 62628, Note_on_c, 0, 69, 0
2, 62829, Control_c, 0, 64, 77
2, 62847, Control_c, 0, 64, 75
2, 62867, Control_c, 0, 64, 74
2, 62886, Control_c, 0, 64, 72
2, 62906, Control_c, 0, 64, 70
2, 62907, Note_on_c, 0, 73, 60
2, 62911, Note_on_c, 0, 56, 0
2, 62914, Note_on_c, 0, 57, 37
2, 62915, Note_on_c, 0, 71, 0
2, 62924, Control_c, 0, 64, 67
2, 62944, Control_c, 0, 64, 65
2, 62963, Control_c, 0, 64, 63
2, 62982, Control_c, 0, 64, 62
2, 63001, Control_c, 0, 64, 60
2, 63021, Control_c, 0, 64, 59
2, 63040, Control_c, 0, 64, 59
2, 63098, Control_c, 0, 64, 58
2, 63182, Note_on_c, 0, 52, 40
2, 63232, Control_c, 0, 64, 58
2, 63270, Control_c, 0, 64, 58
2, 63289, Control_c, 0, 64, 59
2, 63309, Control_c, 0, 64, 60
2, 63327, Control_c, 0, 64, 61
2, 63347, Control_c, 0, 64, 61
2, 63404, Control_c, 0, 64, 61
2, 63424, Control_c, 0, 64, 60
2, 63443, Control_c, 0, 64, 59
2, 63457, Note_on_c, 0, 52, 0
2, 63462, Control_c, 0, 64, 59
2, 63465, Note_on_c, 0, 49, 51
2, 63481, Control_c, 0, 64, 57
2, 63501, Control_c, 0, 64, 56
2, 63520, Control_c, 0, 64, 55
2, 63539, Control_c, 0, 64, 55
2, 63578, Control_c, 0, 64, 54
2, 63635, Control_c, 0, 64, 54
2, 63692, Control_c, 0, 64, 55
2, 63712, Control_c, 0, 64, 57
2, 63731, Control_c, 0, 64, 59
2, 63746, Note_on_c, 0, 45, 49
2, 63750, Control_c, 0, 64, 61
2, 63763, Note_on_c, 0, 49, 0
2, 63769, Control_c, 0, 64, 61
2, 63789, Control_c, 0, 64, 62
2, 63825, Control_c, 0, 64, 63
2, 63863, Control_c, 0, 64, 62
2, 63901, Control_c, 0, 64, 62
2, 63920, Control_c, 0, 64, 61
2, 63939, Control_c, 0, 64, 60
2, 63958, Control_c, 0, 64, 58
2, 63978, Control_c, 0, 64, 57
2, 63997, Control_c, 0, 64, 55
2, 64016, Control_c, 0, 64, 53
2, 64035, Control_c, 0, 64, 51
2, 64055, Control_c, 0, 64, 50
2, 64065, Note_on_c, 0, 50, 51
2, 64071, Note_on_c, 0, 45, 0
2, 64073, Control_c, 0, 64, 49
2, 64093, Control_c, 0, 64, 50
2, 64112, Control_c, 0, 64, 51
2, 64132, Control_c, 0, 64, 55
2, 64150, Control_c, 0, 64, 58
2, 64170, Control_c, 0, 64, 61
2, 64189, Control_c, 0, 64, 63
2, 64209, Control_c, 0, 64, 65
2, 64227, Control_c, 0, 64, 68
2, 64247, Control_c, 0, 64, 72
2, 64266, Control_c, 0, 64, 76
2, 64283, Control_c, 0, 64, 81
2, 64303, Control_c, 0, 64, 86
2, 64322, Control_c, 0, 64, 91
2, 64335, Note_on_c, 0, 73, 0
2, 64342, Control_c, 0, 64, 94
2, 64345, Note_on_c, 0, 57, 0
2, 64360, Control_c, 0, 64, 96
2, 64360, Note_on_c, 0, 67, 53
2, 64514, Control_c, 0, 64, 95
2, 64534, Control_c, 0, 64, 94
2, 64553, Control_c, 0, 64, 92
2, 64572, Control_c, 0, 64, 89
2, 64591, Control_c, 0, 64, 85
2, 64611, Control_c, 0, 64, 80
2, 64629, Control_c, 0, 64, 75
2, 64639, Note_on_c, 0, 57, 46
2, 64649, Control_c, 0, 64, 69
2, 64655, Note_on_c, 0, 66, 57
2, 64656, Note_on_c, 0, 67, 0
2, 64668, Control_c, 0, 64, 65
2, 64688, Control_c, 0, 64, 62
2, 64706, Control_c, 0, 64, 60
2, 64763, Control_c, 0, 64, 61
2, 64783, Control_c, 0, 64, 62
2, 64802, Control_c, 0, 64, 64
2, 64822, Control_c, 0, 64, 65
2, 64840, Control_c, 0, 64, 67
2, 64860, Control_c, 0, 64, 69
2, 64879, Control_c, 0, 64, 72
2, 64898, Control_c, 0, 64, 75
2, 64917, Control_c, 0, 64, 78
2, 64937, Control_c, 0, 64, 80
2, 64942, Note_on_c, 0, 64, 67
2, 64956, Control_c, 0, 64, 82
2, 64966, Note_on_c, 0, 66, 0
2, 64975, Control_c, 0, 64, 82
2, 64994, Control_c, 0, 64, 83
2, 65014, Control_c, 0, 64, 82
2, 65091, Control_c, 0, 64, 82
2, 65109, Control_c, 0, 64, 81
2, 65129, Control_c, 0, 64, 79
2, 65148, Control_c, 0, 64, 77
2, 65168, Control_c, 0, 64, 73
2, 65186, Control_c, 0, 64, 69
2, 65206, Control_c, 0, 64, 65
2, 65225, Control_c, 0, 64, 63
2, 65230, Note_on_c, 0, 62, 49
2, 65230, Note_on_c, 0, 66, 67
2, 65242, Control_c, 0, 64, 61
2, 65254, Note_on_c, 0, 64, 0
2, 65258, Note_on_c, 0, 57, 0
2, 65261, Control_c, 0, 64, 59
2, 65280, Control_c, 0, 64, 57
2, 65338, Control_c, 0, 64, 59
2, 65357, Control_c, 0, 64, 62
2, 65377, Control_c, 0, 64, 65
2, 65395, Control_c, 0, 64, 67
2, 65415, Control_c, 0, 64, 70
2, 65436, Control_c, 0, 64, 73
2, 65455, Control_c, 0, 64, 78
2, 65474, Control_c, 0, 64, 85
2, 65494, Control_c, 0, 64, 90
2, 65513, Control_c, 0, 64, 93
2, 65517, Note_on_c, 0, 66, 0
2, 65518, Note_on_c, 0, 69, 77
2, 65532, Control_c, 0, 64, 96
2, 65551, Control_c, 0, 64, 99
2, 65571, Control_c, 0, 64, 101
2, 65589, Control_c, 0, 64, 101
2, 65609, Control_c, 0, 64, 102
2, 65628, Control_c, 0, 64, 104
2, 65648, Control_c, 0, 64, 106
2, 65666, Control_c, 0, 64, 106
2, 65705, Control_c, 0, 64, 106
2, 65723, Control_c, 0, 64, 103
2, 65743, Control_c, 0, 64, 96
2, 65762, Control_c, 0, 64, 87
2, 65782, Control_c, 0, 64, 78
2, 65790, Note_on_c, 0, 57, 41
2, 65794, Note_on_c, 0, 54, 45
2, 65796, Note_on_c, 0, 74, 72
2, 65799, Note_on_c, 0, 62, 0
2, 65800, Control_c, 0, 64, 70
2, 65820, Control_c, 0, 64, 66
2, 65830, Note_on_c, 0, 69, 0
2, 65835, Note_on_c, 0, 50, 0
2, 65839, Control_c, 0, 64, 63
2, 65858, Control_c, 0, 64, 62
2, 65877, Control_c, 0, 64, 63
2, 65897, Control_c, 0, 64, 64
2, 65916, Control_c, 0, 64, 66
2, 65935, Control_c, 0, 64, 69
2, 65954, Control_c, 0, 64, 73
2, 65974, Control_c, 0, 64, 78
2, 65993, Control_c, 0, 64, 84
2, 66012, Control_c, 0, 64, 92
2, 66031, Control_c, 0, 64, 101
2, 66051, Control_c, 0, 64, 113
2, 66069, Control_c, 0, 64, 127
2, 66075, Note_on_c, 0, 76, 74
2, 66112, Note_on_c, 0, 74, 0
2, 66243, Control_c, 0, 64, 112
2, 66263, Control_c, 0, 64, 102
2, 66281, Control_c, 0, 64, 93
2, 66301, Control_c, 0, 64, 84
2, 66320, Control_c, 0, 64, 76
2, 66339, Control_c, 0, 64, 70
2, 66342, Note_on_c, 0, 51, 42
2, 66358, Control_c, 0, 64, 66
2, 66378, Control_c, 0, 64, 64
2, 66394, Note_on_c, 0, 54, 0
2, 66394, Note_on_c, 0, 78, 72
2, 66397, Control_c, 0, 64, 63
2, 66410, Note_on_c, 0, 57, 0
2, 66416, Control_c, 0, 64, 62
2, 66435, Control_c, 0, 64, 61
2, 66449, Note_on_c, 0, 76, 0
2, 66473, Control_c, 0, 64, 62
2, 66493, Control_c, 0, 64, 63
2, 66512, Control_c, 0, 64, 65
2, 66532, Control_c, 0, 64, 67
2, 66550, Control_c, 0, 64, 70
2, 66570, Control_c, 0, 64, 75
2, 66589, Control_c, 0, 64, 81
2, 66609, Control_c, 0, 64, 86
2, 66627, Control_c, 0, 64, 91
2, 66647, Control_c, 0, 64, 97
2, 66665, Note_on_c, 0, 57, 55
2, 66666, Control_c, 0, 64, 104
2, 66685, Control_c, 0, 64, 113
2, 66704, Control_c, 0, 64, 127
2, 66863, Note_on_c, 0, 51, 0
2, 66915, Control_c, 0, 64, 96
2, 66935, Control_c, 0, 64, 85
2, 66939, Note_on_c, 0, 47, 68
2, 66953, Control_c, 0, 64, 83
2, 66973, Control_c, 0, 64, 87
2, 66992, Control_c, 0, 64, 93
2, 67012, Control_c, 0, 64, 101
2, 67030, Control_c, 0, 64, 115
2, 67050, Control_c, 0, 64, 127
2, 67196, Note_on_c, 0, 51, 71
2, 67211, Note_on_c, 0, 47, 0
2, 67288, Note_on_c, 0, 51, 0
2, 67452, Control_c, 0, 64, 105
2, 67471, Control_c, 0, 64, 91
2, 67491, Control_c, 0, 64, 80
2, 67492, Note_on_c, 0, 57, 0
2, 67509, Control_c, 0, 64, 72
2, 67511, Note_on_c, 0, 52, 57
2, 67514, Note_on_c, 0, 56, 65
2, 67529, Control_c, 0, 64, 65
2, 67548, Control_c, 0, 64, 61
2, 67568, Control_c, 0, 64, 57
2, 67586, Control_c, 0, 64, 55
2, 67606, Control_c, 0, 64, 54
2, 67625, Control_c, 0, 64, 53
2, 67643, Control_c, 0, 64, 52
2, 67663, Control_c, 0, 64, 53
2, 67682, Control_c, 0, 64, 55
2, 67702, Control_c, 0, 64, 58
2, 67720, Control_c, 0, 64, 60
2, 67740, Control_c, 0, 64, 62
2, 67759, Control_c, 0, 64, 64
2, 67778, Control_c, 0, 64, 65
2, 67797, Control_c, 0, 64, 69
2, 67817, Control_c, 0, 64, 73
2, 67817, Note_on_c, 0, 69, 71
2, 67831, Note_on_c, 0, 78, 0
2, 67836, Control_c, 0, 64, 80
2, 67855, Control_c, 0, 64, 87
2, 67874, Control_c, 0, 64, 93
2, 67894, Control_c, 0, 64, 96
2, 67913, Control_c, 0, 64, 96
2, 68028, Control_c, 0, 64, 96
2, 68048, Control_c, 0, 64, 94
2, 68066, Control_c, 0, 64, 92
2, 68086, Control_c, 0, 64, 87
2, 68097, Note_on_c, 0, 59, 53
2, 68102, Note_on_c, 0, 68, 75
2, 68105, Control_c, 0, 64, 79
2, 68123, Control_c, 0, 64, 71
2, 68127, Note_on_c, 0, 69, 0
2, 68134, Note_on_c, 0, 56, 0
2, 68143, Control_c, 0, 64, 64
2, 68162, Control_c, 0, 64, 58
2, 68182, Control_c, 0, 64, 55
2, 68220, Control_c, 0, 64, 56
2, 68239, Control_c, 0, 64, 59
2, 68258, Control_c, 0, 64, 62
2, 68277, Control_c, 0, 64, 64
2, 68297, Control_c, 0, 64, 67
2, 68318, Control_c, 0, 64, 70
2, 68337, Control_c, 0, 64, 73
2, 68356, Control_c, 0, 64, 77
2, 68376, Control_c, 0, 64, 79
2, 68383, Note_on_c, 0, 66, 74
2, 68394, Control_c, 0, 64, 81
2, 68414, Control_c, 0, 64, 82
2, 68424, Note_on_c, 0, 68, 0
2, 68433, Control_c, 0, 64, 83
2, 68453, Control_c, 0, 64, 84
2, 68568, Control_c, 0, 64, 83
2, 68587, Control_c, 0, 64, 82
2, 68606, Control_c, 0, 64, 80
2, 68625, Control_c, 0, 64, 77
2, 68645, Control_c, 0, 64, 73
2, 68663, Control_c, 0, 64, 68
2, 68676, Note_on_c, 0, 64, 51
2, 68676, Note_on_c, 0, 68, 76
2, 68682, Control_c, 0, 64, 63
2, 68699, Note_on_c, 0, 66, 0
2, 68702, Control_c, 0, 64, 60
2, 68712, Note_on_c, 0, 59, 0
2, 68721, Control_c, 0, 64, 57
2, 68740, Control_c, 0, 64, 55
2, 68759, Control_c, 0, 64, 55
2, 68798, Control_c, 0, 64, 57
2, 68817, Control_c, 0, 64, 60
2, 68836, Control_c, 0, 64, 62
2, 68856, Control_c, 0, 64, 64
2, 68874, Control_c, 0, 64, 66
2, 68894, Control_c, 0, 64, 69
2, 68913, Control_c, 0, 64, 72
2, 68933, Control_c, 0, 64, 76
2, 68951, Control_c, 0, 64, 78
2, 68955, Note_on_c, 0, 71, 79
2, 68958, Note_on_c, 0, 68, 0
2, 68971, Control_c, 0, 64, 81
2, 68990, Control_c, 0, 64, 82
2, 69009, Control_c, 0, 64, 83
2, 69200, Control_c, 0, 64, 82
2, 69219, Control_c, 0, 64, 81
2, 69238, Control_c, 0, 64, 78
2, 69249, Note_on_c, 0, 76, 74
2, 69258, Control_c, 0, 64, 73
2, 69278, Control_c, 0, 64, 67
2, 69278, Note_on_c, 0, 59, 48
2, 69292, Note_on_c, 0, 64, 0
2, 69295, Note_on_c, 0, 71, 0
2, 69297, Control_c, 0, 64, 62
2, 69316, Control_c, 0, 64, 58
2, 69336, Control_c, 0, 64, 57
2, 69354, Control_c, 0, 64, 58
2, 69374, Control_c, 0, 64, 60
2, 69393, Control_c, 0, 64, 63
2, 69413, Control_c, 0, 64, 66
2, 69431, Control_c, 0, 64, 69
2, 69451, Control_c, 0, 64, 75
2, 69470, Control_c, 0, 64, 82
2, 69489, Control_c, 0, 64, 91
2, 69508, Control_c, 0, 64, 100
2, 69528, Control_c, 0, 64, 107
2, 69536, Note_on_c, 0, 80, 78
2, 69547, Control_c, 0, 64, 113
2, 69566, Control_c, 0, 64, 117
2, 69585, Control_c, 0, 64, 118
2, 69591, Note_on_c, 0, 76, 0
2, 69719, Control_c, 0, 64, 117
2, 69739, Control_c, 0, 64, 112
2, 69758, Control_c, 0, 64, 105
2, 69777, Control_c, 0, 64, 98
2, 69796, Control_c, 0, 64, 90
2, 69816, Control_c, 0, 64, 82
2, 69834, Control_c, 0, 64, 74
2, 69840, Note_on_c, 0, 56, 43
2, 69854, Control_c, 0, 64, 68
2, 69859, Note_on_c, 0, 59, 0
2, 69873, Control_c, 0, 64, 64
2, 69887, Note_on_c, 0, 83, 79
2, 69893, Control_c, 0, 64, 61
2, 69911, Control_c, 0, 64, 60
2, 69931, Control_c, 0, 64, 59
2, 69938, Note_on_c, 0, 80, 0
2, 69969, Control_c, 0, 64, 60
2, 69988, Control_c, 0, 64, 62
2, 70008, Control_c, 0, 64, 64
2, 70027, Control_c, 0, 64, 66
2, 70043, Control_c, 0, 64, 68
2, 70062, Control_c, 0, 64, 73
2, 70081, Control_c, 0, 64, 78
2, 70101, Control_c, 0, 64, 84
2, 70119, Control_c, 0, 64, 90
2, 70139, Control_c, 0, 64, 94
2, 70158, Control_c, 0, 64, 97
2, 70167, Note_on_c, 0, 52, 0
2, 70178, Control_c, 0, 64, 100
2, 70196, Control_c, 0, 64, 100
2, 70215, Note_on_c, 0, 83, 0
2, 70216, Control_c, 0, 64, 101
2, 70217, Note_on_c, 0, 74, 75
2, 70256, Control_c, 0, 64, 102
2, 70275, Control_c, 0, 64, 105
2, 70295, Control_c, 0, 64, 108
2, 70313, Control_c, 0, 64, 110
2, 70372, Control_c, 0, 64, 110
2, 70429, Control_c, 0, 64, 109
2, 70449, Control_c, 0, 64, 105
2, 70467, Control_c, 0, 64, 98
2, 70487, Control_c, 0, 64, 89
2, 70506, Control_c, 0, 64, 79
2, 70523, Note_on_c, 0, 73, 80
2, 70524, Control_c, 0, 64, 70
2, 70526, Note_on_c, 0, 52, 49
2, 70526, Note_on_c, 0, 74, 0
2, 70544, Control_c, 0, 64, 64
2, 70563, Control_c, 0, 64, 60
2, 70583, Control_c, 0, 64, 59
2, 70621, Control_c, 0, 64, 60
2, 70640, Control_c, 0, 64, 63
2, 70652, Note_on_c, 0, 56, 0
2, 70659, Control_c, 0, 64, 65
2, 70678, Control_c, 0, 64, 69
2, 70698, Control_c, 0, 64, 75
2, 70717, Control_c, 0, 64, 82
2, 70720, Note_on_c, 0, 52, 0
2, 70736, Control_c, 0, 64, 90
2, 70755, Control_c, 0, 64, 99
2, 70775, Control_c, 0, 64, 110
2, 70793, Control_c, 0, 64, 127
2, 70808, Note_on_c, 0, 71, 74
2, 70809, Note_on_c, 0, 73, 0
2, 71041, Control_c, 0, 64, 113
2, 71061, Control_c, 0, 64, 99
2, 71079, Control_c, 0, 64, 89
2, 71099, Control_c, 0, 64, 77
2, 71104, Note_on_c, 0, 73, 72
2, 71109, Note_on_c, 0, 45, 43
2, 71110, Note_on_c, 0, 57, 37
2, 71118, Control_c, 0, 64, 70
2, 71138, Control_c, 0, 64, 65
2, 71147, Note_on_c, 0, 71, 0
2, 71156, Control_c, 0, 64, 62
2, 71176, Control_c, 0, 64, 60
2, 71197, Control_c, 0, 64, 59
2, 71216, Control_c, 0, 64, 59
2, 71255, Control_c, 0, 64, 59
2, 71273, Control_c, 0, 64, 61
2, 71293, Control_c, 0, 64, 63
2, 71312, Control_c, 0, 64, 64
2, 71332, Control_c, 0, 64, 66
2, 71350, Control_c, 0, 64, 68
2, 71370, Control_c, 0, 64, 72
2, 71377, Note_on_c, 0, 57, 0
2, 71389, Control_c, 0, 64, 79
2, 71393, Note_on_c, 0, 78, 74
2, 71409, Control_c, 0, 64, 87
2, 71423, Note_on_c, 0, 73, 0
2, 71427, Control_c, 0, 64, 93
2, 71447, Control_c, 0, 64, 98
2, 71466, Control_c, 0, 64, 102
2, 71484, Control_c, 0, 64, 107
2, 71504, Control_c, 0, 64, 111
2, 71510, Note_on_c, 0, 45, 0
2, 71523, Control_c, 0, 64, 114
2, 71619, Control_c, 0, 64, 112
2, 71638, Control_c, 0, 64, 107
2, 71658, Control_c, 0, 64, 99
2, 71677, Control_c, 0, 64, 89
2, 71681, Note_on_c, 0, 76, 69
2, 71692, Note_on_c, 0, 56, 46
2, 71696, Control_c, 0, 64, 78
2, 71701, Note_on_c, 0, 47, 41
2, 71715, Control_c, 0, 64, 69
2, 71719, Note_on_c, 0, 78, 0
2, 71735, Control_c, 0, 64, 64
2, 71753, Control_c, 0, 64, 61
2, 71773, Control_c, 0, 64, 60
2, 71792, Control_c, 0, 64, 59
2, 71830, Control_c, 0, 64, 60
2, 71850, Control_c, 0, 64, 63
2, 71869, Control_c, 0, 64, 65
2, 71889, Control_c, 0, 64, 67
2, 71907, Control_c, 0, 64, 70
2, 71927, Control_c, 0, 64, 74
2, 71946, Control_c, 0, 64, 78
2, 71963, Control_c, 0, 64, 82
2, 71971, Note_on_c, 0, 75, 73
2, 71971, Note_on_c, 0, 76, 0
2, 71983, Control_c, 0, 64, 86
2, 72002, Control_c, 0, 64, 89
2, 72022, Control_c, 0, 64, 91
2, 72040, Control_c, 0, 64, 91
2, 72079, Control_c, 0, 64, 92
2, 72098, Control_c, 0, 64, 92
2, 72117, Control_c, 0, 64, 93
2, 72175, Control_c, 0, 64, 92
2, 72194, Control_c, 0, 64, 90
2, 72214, Control_c, 0, 64, 86
2, 72233, Control_c, 0, 64, 82
2, 72252, Control_c, 0, 64, 76
2, 72262, Note_on_c, 0, 49, 44
2, 72263, Note_on_c, 0, 47, 0
2, 72271, Control_c, 0, 64, 70
2, 72287, Note_on_c, 0, 75, 0
2, 72291, Control_c, 0, 64, 65
2, 72297, Note_on_c, 0, 76, 59
2, 72309, Control_c, 0, 64, 61
2, 72329, Control_c, 0, 64, 59
2, 72348, Control_c, 0, 64, 59
2, 72368, Control_c, 0, 64, 59
2, 72386, Control_c, 0, 64, 62
2, 72406, Control_c, 0, 64, 64
2, 72425, Control_c, 0, 64, 66
2, 72443, Control_c, 0, 64, 69
2, 72463, Control_c, 0, 64, 73
2, 72482, Control_c, 0, 64, 77
2, 72501, Note_on_c, 0, 56, 0
2, 72502, Control_c, 0, 64, 80
2, 72520, Control_c, 0, 64, 82
2, 72540, Control_c, 0, 64, 82
2, 72559, Control_c, 0, 64, 83
2, 72567, Note_on_c, 0, 73, 64
2, 72574, Note_on_c, 0, 49, 0
2, 72582, Note_on_c, 0, 57, 45
2, 72593, Note_on_c, 0, 76, 0
2, 72597, Control_c, 0, 64, 83
2, 72636, Control_c, 0, 64, 84
2, 72674, Control_c, 0, 64, 84
2, 72751, Control_c, 0, 64, 84
2, 72771, Control_c, 0, 64, 83
2, 72789, Control_c, 0, 64, 81
2, 72809, Control_c, 0, 64, 78
2, 72828, Control_c, 0, 64, 73
2, 72848, Control_c, 0, 64, 67
2, 72857, Note_on_c, 0, 50, 47
2, 72858, Note_on_c, 0, 71, 65
2, 72866, Control_c, 0, 64, 64
2, 72886, Control_c, 0, 64, 63
2, 72895, Note_on_c, 0, 73, 0
2, 72905, Control_c, 0, 64, 64
2, 72922, Control_c, 0, 64, 66
2, 72941, Control_c, 0, 64, 68
2, 72960, Control_c, 0, 64, 71
2, 72980, Control_c, 0, 64, 77
2, 72983, Note_on_c, 0, 57, 0
2, 72998, Control_c, 0, 64, 83
2, 73018, Control_c, 0, 64, 88
2, 73037, Control_c, 0, 64, 90
2, 73103, Note_on_c, 0, 50, 0
2, 73147, Note_on_c, 0, 71, 0
2, 73148, Note_on_c, 0, 69, 64
2, 73174, Control_c, 0, 64, 89
2, 73189, Note_on_c, 0, 59, 42
2, 73251, Control_c, 0, 64, 89
2, 73289, Control_c, 0, 64, 88
2, 73308, Control_c, 0, 64, 87
2, 73328, Control_c, 0, 64, 86
2, 73346, Control_c, 0, 64, 84
2, 73366, Control_c, 0, 64, 82
2, 73385, Control_c, 0, 64, 79
2, 73403, Control_c, 0, 64, 75
2, 73423, Control_c, 0, 64, 71
2, 73442, Control_c, 0, 64, 67
2, 73462, Control_c, 0, 64, 64
2, 73476, Note_on_c, 0, 52, 21
2, 73478, Note_on_c, 0, 73, 57
2, 73480, Control_c, 0, 64, 62
2, 73489, Note_on_c, 0, 69, 0
2, 73500, Control_c, 0, 64, 61
2, 73508, Note_on_c, 0, 59, 0
2, 73519, Control_c, 0, 64, 60
2, 73557, Control_c, 0, 64, 61
2, 73577, Control_c, 0, 64, 63
2, 73596, Control_c, 0, 64, 65
2, 73615, Control_c, 0, 64, 67
2, 73634, Control_c, 0, 64, 70
2, 73654, Control_c, 0, 64, 74
2, 73673, Control_c, 0, 64, 79
2, 73692, Control_c, 0, 64, 83
2, 73711, Control_c, 0, 64, 85
2, 73731, Control_c, 0, 64, 87
2, 73786, Note_on_c, 0, 64, 49
2, 73797, Note_on_c, 0, 52, 0
2, 73826, Control_c, 0, 64, 86
2, 73828, Note_on_c, 0, 57, 22
2, 73940, Control_c, 0, 64, 86
2, 73978, Control_c, 0, 64, 85
2, 73997, Control_c, 0, 64, 84
2, 74017, Control_c, 0, 64, 83
2, 74035, Control_c, 0, 64, 81
2, 74055, Control_c, 0, 64, 79
2, 74076, Control_c, 0, 64, 76
2, 74095, Control_c, 0, 64, 72
2, 74111, Note_on_c, 0, 73, 0
2, 74114, Control_c, 0, 64, 67
2, 74118, Note_on_c, 0, 71, 50
2, 74124, Note_on_c, 0, 52, 28
2, 74134, Control_c, 0, 64, 64
2, 74152, Note_on_c, 0, 64, 0
2, 74153, Control_c, 0, 64, 62
2, 74172, Control_c, 0, 64, 60
2, 74191, Control_c, 0, 64, 59
2, 74249, Control_c, 0, 64, 59
2, 74268, Control_c, 0, 64, 61
2, 74288, Control_c, 0, 64, 62
2, 74306, Control_c, 0, 64, 64
2, 74325, Control_c, 0, 64, 65
2, 74345, Control_c, 0, 64, 65
2, 74363, Control_c, 0, 64, 66
2, 74363, Note_on_c, 0, 57, 0
2, 74383, Control_c, 0, 64, 67
2, 74402, Control_c, 0, 64, 69
2, 74422, Control_c, 0, 64, 70
2, 74440, Control_c, 0, 64, 71
2, 74460, Control_c, 0, 64, 71
2, 74487, Note_on_c, 0, 62, 37
2, 74496, Note_on_c, 0, 56, 17
2, 74498, Control_c, 0, 64, 72
2, 74537, Control_c, 0, 64, 72
2, 74652, Control_c, 0, 64, 72
2, 74825, Control_c, 0, 64, 71
2, 74864, Control_c, 0, 64, 71
2, 74883, Control_c, 0, 64, 70
2, 74903, Control_c, 0, 64, 70
2, 74903, Note_on_c, 0, 56, 0
2, 74919, Note_on_c, 0, 57, 19
2, 74921, Control_c, 0, 64, 69
2, 74924, Note_on_c, 0, 61, 32
2, 74941, Control_c, 0, 64, 68
2, 74960, Control_c, 0, 64, 67
2, 74967, Note_on_c, 0, 71, 0
2, 74979, Control_c, 0, 64, 65
2, 74993, Note_on_c, 0, 62, 0
2, 74998, Control_c, 0, 64, 65
2, 75012, Note_on_c, 0, 52, 0
2, 75018, Control_c, 0, 64, 64
2, 75037, Control_c, 0, 64, 63
2, 75056, Control_c, 0, 64, 62
2, 75075, Control_c, 0, 64, 60
2, 75095, Control_c, 0, 64, 58
2, 75113, Control_c, 0, 64, 56
2, 75133, Control_c, 0, 64, 55
2, 75152, Control_c, 0, 64, 53
2, 75172, Control_c, 0, 64, 51
2, 75190, Control_c, 0, 64, 50
2, 75210, Control_c, 0, 64, 50
2, 75249, Note_on_c, 0, 64, 35
2, 75272, Note_on_c, 0, 61, 0
2, 75324, Control_c, 0, 64, 50
2, 75344, Control_c, 0, 64, 51
2, 75363, Control_c, 0, 64, 52
2, 75383, Control_c, 0, 64, 54
2, 75401, Control_c, 0, 64, 55
2, 75421, Control_c, 0, 64, 56
2, 75440, Control_c, 0, 64, 57
2, 75459, Control_c, 0, 64, 58
2, 75498, Control_c, 0, 64, 59
2, 75531, Note_on_c, 0, 64, 0
2, 75536, Control_c, 0, 64, 59
2, 75548, Note_on_c, 0, 69, 39
2, 75555, Control_c, 0, 64, 60
2, 75709, Control_c, 0, 64, 59
2, 75786, Control_c, 0, 64, 59
2, 75818, Note_on_c, 0, 57, 0
2, 75831, Note_on_c, 0, 52, 26
2, 75842, Control_c, 0, 64, 58
2, 75977, Control_c, 0, 64, 58
2, 76055, Control_c, 0, 64, 57
2, 76159, Note_on_c, 0, 49, 19
2, 76189, Control_c, 0, 64, 57
2, 76189, Note_on_c, 0, 52, 0
2, 76247, Control_c, 0, 64, 56
2, 76343, Control_c, 0, 64, 56
2, 76400, Control_c, 0, 64, 55
2, 76438, Control_c, 0, 64, 55
2, 76442, Note_on_c, 0, 45, 25
2, 76447, Note_on_c, 0, 64, 33
2, 76483, Note_on_c, 0, 49, 0
2, 76496, Control_c, 0, 64, 54
2, 76496, Note_on_c, 0, 69, 0
2, 76573, Control_c, 0, 64, 54
2, 76741, Note_on_c, 0, 64, 0
2, 76741, Note_on_c, 0, 69, 45
2, 76746, Control_c, 0, 64, 54
2, 76759, Note_on_c, 0, 45, 0
2, 76780, Note_on_c, 0, 49, 17
2, 76784, Control_c, 0, 64, 55
2, 77018, Note_on_c, 0, 71, 55
2, 77023, Note_on_c, 0, 69, 0
2, 77038, Note_on_c, 0, 52, 31
2, 77052, Control_c, 0, 64, 54
2, 77059, Note_on_c, 0, 49, 0
2, 77225, Control_c, 0, 64, 54
2, 77263, Control_c, 0, 64, 53
2, 77302, Control_c, 0, 64, 53
2, 77320, Control_c, 0, 64, 52
2, 77330, Note_on_c, 0, 73, 50
2, 77336, Note_on_c, 0, 71, 0
2, 77354, Note_on_c, 0, 57, 25
2, 77390, Note_on_c, 0, 52, 0
2, 77474, Control_c, 0, 64, 53
2, 77494, Control_c, 0, 64, 54
2, 77513, Control_c, 0, 64, 56
2, 77532, Control_c, 0, 64, 59
2, 77551, Control_c, 0, 64, 61
2, 77571, Control_c, 0, 64, 64
2, 77589, Control_c, 0, 64, 66
2, 77609, Control_c, 0, 64, 68
2, 77619, Note_on_c, 0, 73, 0
2, 77620, Note_on_c, 0, 69, 48
2, 77628, Control_c, 0, 64, 72
2, 77648, Control_c, 0, 64, 78
2, 77666, Control_c, 0, 64, 85
2, 77685, Control_c, 0, 64, 92
2, 77705, Control_c, 0, 64, 95
2, 77723, Control_c, 0, 64, 96
2, 77800, Control_c, 0, 64, 95
2, 77820, Control_c, 0, 64, 95
2, 77839, Control_c, 0, 64, 94
2, 77858, Control_c, 0, 64, 93
2, 77877, Control_c, 0, 64, 90
2, 77897, Control_c, 0, 64, 85
2, 77915, Control_c, 0, 64, 79
2, 77934, Control_c, 0, 64, 73
2, 77946, Note_on_c, 0, 66, 43
2, 77951, Note_on_c, 0, 60, 29
2, 77951, Note_on_c, 0, 69, 0
2, 77953, Control_c, 0, 64, 68
2, 77973, Control_c, 0, 64, 63
2, 77992, Control_c, 0, 64, 58
2, 78011, Control_c, 0, 64, 55
2, 78030, Control_c, 0, 64, 54
2, 78088, Control_c, 0, 64, 54
2, 78107, Control_c, 0, 64, 56
2, 78127, Control_c, 0, 64, 60
2, 78145, Control_c, 0, 64, 63
2, 78164, Control_c, 0, 64, 64
2, 78184, Control_c, 0, 64, 66
2, 78203, Control_c, 0, 64, 69
2, 78222, Control_c, 0, 64, 72
2, 78241, Control_c, 0, 64, 75
2, 78261, Control_c, 0, 64, 78
2, 78269, Note_on_c, 0, 75, 53
2, 78275, Note_on_c, 0, 66, 0
2, 78279, Control_c, 0, 64, 80
2, 78291, Note_on_c, 0, 60, 0
2, 78347, Note_on_c, 0, 57, 0
2, 78414, Control_c, 0, 64, 80
2, 78472, Control_c, 0, 64, 79
2, 78530, Control_c, 0, 64, 79
2, 78548, Control_c, 0, 64, 78
2, 78568, Control_c, 0, 64, 78
2, 78587, Control_c, 0, 64, 77
2, 78607, Control_c, 0, 64, 77
2, 78644, Control_c, 0, 64, 76
2, 78664, Control_c, 0, 64, 75
2, 78671, Note_on_c, 0, 76, 43
2, 78684, Note_on_c, 0, 59, 17
2, 78685, Control_c, 0, 64, 73
2, 78702, Note_on_c, 0, 55, 27
2, 78704, Control_c, 0, 64, 72
2, 78723, Control_c, 0, 64, 70
2, 78728, Note_on_c, 0, 75, 0
2, 78743, Control_c, 0, 64, 68
2, 78761, Control_c, 0, 64, 66
2, 78781, Control_c, 0, 64, 65
2, 78800, Control_c, 0, 64, 64
2, 78820, Control_c, 0, 64, 62
2, 78838, Control_c, 0, 64, 60
2, 78857, Control_c, 0, 64, 58
2, 78877, Control_c, 0, 64, 56
2, 78896, Control_c, 0, 64, 54
2, 78915, Control_c, 0, 64, 53
2, 79011, Control_c, 0, 64, 54
2, 79031, Control_c, 0, 64, 57
2, 79049, Control_c, 0, 64, 60
2, 79069, Control_c, 0, 64, 62
2, 79083, Note_on_c, 0, 71, 43
2, 79087, Control_c, 0, 64, 65
2, 79102, Note_on_c, 0, 76, 0
2, 79106, Control_c, 0, 64, 67
2, 79125, Control_c, 0, 64, 70
2, 79145, Control_c, 0, 64, 74
2, 79164, Control_c, 0, 64, 78
2, 79183, Control_c, 0, 64, 82
2, 79185, Note_on_c, 0, 55, 0
2, 79202, Control_c, 0, 64, 85
2, 79222, Control_c, 0, 64, 86
2, 79223, Note_on_c, 0, 59, 0
2, 79240, Control_c, 0, 64, 87
2, 79317, Control_c, 0, 64, 86
2, 79356, Control_c, 0, 64, 85
2, 79375, Control_c, 0, 64, 83
2, 79394, Control_c, 0, 64, 79
2, 79395, Note_on_c, 0, 57, 30
2, 79413, Control_c, 0, 64, 73
2, 79414, Note_on_c, 0, 54, 20
2, 79433, Control_c, 0, 64, 68
2, 79451, Control_c, 0, 64, 64
2, 79471, Control_c, 0, 64, 62
2, 79490, Control_c, 0, 64, 62
2, 79510, Control_c, 0, 64, 61
2, 79548, Control_c, 0, 64, 62
2, 79567, Control_c, 0, 64, 64
2, 79586, Control_c, 0, 64, 65
2, 79605, Control_c, 0, 64, 67
2, 79625, Control_c, 0, 64, 70
2, 79644, Control_c, 0, 64, 74
2, 79663, Control_c, 0, 64, 78
2, 79682, Control_c, 0, 64, 82
2, 79686, Note_on_c, 0, 75, 52
2, 79702, Control_c, 0, 64, 84
2, 79705, Note_on_c, 0, 71, 0
2, 79720, Control_c, 0, 64, 86
2, 79735, Note_on_c, 0, 54, 0
2, 79740, Control_c, 0, 64, 86
2, 79750, Note_on_c, 0, 57, 0
2, 79779, Control_c, 0, 64, 87
2, 79797, Control_c, 0, 64, 87
2, 79816, Control_c, 0, 64, 88
2, 79894, Control_c, 0, 64, 87
2, 79914, Control_c, 0, 64, 86
2, 79932, Control_c, 0, 64, 85
2, 79952, Control_c, 0, 64, 83
2, 79971, Control_c, 0, 64, 79
2, 79990, Control_c, 0, 64, 74
2, 80004, Note_on_c, 0, 76, 55
2, 80006, Note_on_c, 0, 55, 33
2, 80009, Control_c, 0, 64, 68
2, 80021, Note_on_c, 0, 52, 28
2, 80029, Control_c, 0, 64, 64
2, 80035, Note_on_c, 0, 75, 0
2, 80048, Control_c, 0, 64, 61
2, 80067, Control_c, 0, 64, 59
2, 80144, Control_c, 0, 64, 61
2, 80163, Control_c, 0, 64, 62
2, 80183, Control_c, 0, 64, 64
2, 80201, Control_c, 0, 64, 65
2, 80221, Control_c, 0, 64, 68
2, 80240, Control_c, 0, 64, 71
2, 80260, Control_c, 0, 64, 74
2, 80278, Control_c, 0, 64, 78
2, 80297, Control_c, 0, 64, 82
2, 80315, Note_on_c, 0, 71, 57
2, 80317, Control_c, 0, 64, 85
2, 80328, Note_on_c, 0, 76, 0
2, 80335, Control_c, 0, 64, 87
2, 80336, Note_on_c, 0, 55, 0
2, 80355, Control_c, 0, 64, 87
2, 80470, Control_c, 0, 64, 87
2, 80489, Control_c, 0, 64, 86
2, 80509, Control_c, 0, 64, 84
2, 80528, Control_c, 0, 64, 82
2, 80547, Control_c, 0, 64, 79
2, 80561, Note_on_c, 0, 52, 0
2, 80566, Control_c, 0, 64, 74
2, 80586, Control_c, 0, 64, 69
2, 80605, Control_c, 0, 64, 64
2, 80614, Note_on_c, 0, 59, 44
2, 80619, Note_on_c, 0, 55, 38
2, 80624, Control_c, 0, 64, 62
2, 80643, Control_c, 0, 64, 60
2, 80681, Control_c, 0, 64, 61
2, 80701, Control_c, 0, 64, 62
2, 80720, Control_c, 0, 64, 64
2, 80740, Control_c, 0, 64, 66
2, 80758, Control_c, 0, 64, 69
2, 80777, Control_c, 0, 64, 73
2, 80794, Control_c, 0, 64, 78
2, 80813, Control_c, 0, 64, 83
2, 80824, Note_on_c, 0, 59, 0
2, 80832, Control_c, 0, 64, 86
2, 80851, Control_c, 0, 64, 88
2, 80871, Control_c, 0, 64, 90
2, 80872, Note_on_c, 0, 55, 0
2, 80909, Control_c, 0, 64, 90
2, 80920, Note_on_c, 0, 75, 65
2, 80928, Control_c, 0, 64, 91
2, 80932, Note_on_c, 0, 71, 0
2, 80948, Control_c, 0, 64, 93
2, 80966, Control_c, 0, 64, 95
2, 81063, Control_c, 0, 64, 94
2, 81082, Control_c, 0, 64, 93
2, 81101, Control_c, 0, 64, 91
2, 81120, Control_c, 0, 64, 89
2, 81140, Control_c, 0, 64, 85
2, 81159, Control_c, 0, 64, 81
2, 81177, Control_c, 0, 64, 77
2, 81197, Control_c, 0, 64, 74
2, 81215, Note_on_c, 0, 61, 42
2, 81216, Control_c, 0, 64, 71
2, 81230, Note_on_c, 0, 49, 41
2, 81235, Control_c, 0, 64, 69
2, 81247, Note_on_c, 0, 76, 62
2, 81254, Control_c, 0, 64, 66
2, 81265, Note_on_c, 0, 75, 0
2, 81274, Control_c, 0, 64, 63
2, 81293, Control_c, 0, 64, 61
2, 81312, Control_c, 0, 64, 60
2, 81331, Control_c, 0, 64, 59
2, 81351, Control_c, 0, 64, 59
2, 81428, Control_c, 0, 64, 59
2, 81446, Control_c, 0, 64, 60
2, 81466, Control_c, 0, 64, 61
2, 81485, Control_c, 0, 64, 63
2, 81505, Control_c, 0, 64, 64
2, 81505, Note_on_c, 0, 76, 0
2, 81523, Control_c, 0, 64, 66
2, 81537, Note_on_c, 0, 71, 61
2, 81543, Control_c, 0, 64, 68
2, 81561, Control_c, 0, 64, 71
2, 81581, Control_c, 0, 64, 73
2, 81599, Control_c, 0, 64, 75
2, 81619, Control_c, 0, 64, 77
2, 81638, Control_c, 0, 64, 78
2, 81656, Control_c, 0, 64, 79
2, 81676, Control_c, 0, 64, 80
2, 81695, Control_c, 0, 64, 79
2, 81808, Note_on_c, 0, 71, 0
2, 81814, Control_c, 0, 64, 78
2, 81819, Note_on_c, 0, 49, 0
2, 81820, Note_on_c, 0, 70, 62
2, 81824, Note_on_c, 0, 54, 40
2, 81834, Control_c, 0, 64, 77
2, 81852, Control_c, 0, 64, 74
2, 81872, Control_c, 0, 64, 69
2, 81891, Control_c, 0, 64, 65
2, 81910, Control_c, 0, 64, 62
2, 81929, Control_c, 0, 64, 60
2, 81949, Control_c, 0, 64, 59
2, 81968, Control_c, 0, 64, 58
2, 82006, Control_c, 0, 64, 59
2, 82026, Control_c, 0, 64, 61
2, 82045, Control_c, 0, 64, 63
2, 82064, Control_c, 0, 64, 65
2, 82083, Control_c, 0, 64, 67
2, 82101, Note_on_c, 0, 76, 61
2, 82103, Control_c, 0, 64, 70
2, 82121, Control_c, 0, 64, 74
2, 82128, Note_on_c, 0, 70, 0
2, 82141, Control_c, 0, 64, 77
2, 82160, Control_c, 0, 64, 79
2, 82180, Control_c, 0, 64, 81
2, 82198, Control_c, 0, 64, 82
2, 82210, Note_on_c, 0, 76, 0
2, 82217, Control_c, 0, 64, 82
2, 82225, Note_on_c, 0, 61, 0
2, 82294, Control_c, 0, 64, 82
2, 82352, Control_c, 0, 64, 81
2, 82366, Note_on_c, 0, 76, 57
2, 82390, Control_c, 0, 64, 81
2, 82409, Control_c, 0, 64, 80
2, 82412, Note_on_c, 0, 76, 0
2, 82429, Control_c, 0, 64, 80
2, 82448, Control_c, 0, 64, 79
2, 82448, Note_on_c, 0, 74, 54
2, 82467, Control_c, 0, 64, 78
2, 82486, Control_c, 0, 64, 77
2, 82506, Control_c, 0, 64, 75
2, 82510, Note_on_c, 0, 74, 0
2, 82525, Control_c, 0, 64, 73
2, 82544, Control_c, 0, 64, 71
2, 82546, Note_on_c, 0, 76, 52
2, 82563, Control_c, 0, 64, 69
2, 82583, Control_c, 0, 64, 67
2, 82601, Control_c, 0, 64, 66
2, 82621, Control_c, 0, 64, 66
2, 82626, Note_on_c, 0, 76, 0
2, 82640, Control_c, 0, 64, 65
2, 82654, Note_on_c, 0, 54, 0
2, 82660, Control_c, 0, 64, 65
2, 82669, Note_on_c, 0, 74, 46
2, 82678, Control_c, 0, 64, 64
2, 82697, Control_c, 0, 64, 63
2, 82705, Note_on_c, 0, 59, 32
2, 82718, Control_c, 0, 64, 62
2, 82736, Control_c, 0, 64, 61
2, 82756, Control_c, 0, 64, 60
2, 82775, Control_c, 0, 64, 59
2, 82795, Control_c, 0, 64, 58
2, 82813, Control_c, 0, 64, 57
2, 82833, Control_c, 0, 64, 57
2, 82852, Control_c, 0, 64, 56
2, 82871, Control_c, 0, 64, 55
2, 82890, Control_c, 0, 64, 54
2, 82910, Control_c, 0, 64, 53
2, 82929, Control_c, 0, 64, 52
2, 82948, Control_c, 0, 64, 51
2, 82965, Note_on_c, 0, 74, 0
2, 82967, Control_c, 0, 64, 51
2, 82987, Control_c, 0, 64, 50
2, 82999, Note_on_c, 0, 73, 39
2, 83198, Control_c, 0, 64, 51
2, 83216, Control_c, 0, 64, 52
2, 83236, Control_c, 0, 64, 53
2, 83255, Control_c, 0, 64, 54
2, 83275, Control_c, 0, 64, 55
2, 83290, Note_on_c, 0, 71, 42
2, 83293, Control_c, 0, 64, 57
2, 83301, Note_on_c, 0, 73, 0
2, 83313, Control_c, 0, 64, 58
2, 83332, Control_c, 0, 64, 60
2, 83351, Control_c, 0, 64, 61
2, 83370, Control_c, 0, 64, 62
2, 83390, Control_c, 0, 64, 62
2, 83409, Control_c, 0, 64, 63
2, 83428, Control_c, 0, 64, 63
2, 83467, Control_c, 0, 64, 64
2, 83485, Control_c, 0, 64, 64
2, 83524, Control_c, 0, 64, 65
2, 83562, Control_c, 0, 64, 65
2, 83576, Note_on_c, 0, 54, 29
2, 83601, Control_c, 0, 64, 66
2, 83603, Note_on_c, 0, 59, 0
2, 83695, Control_c, 0, 64, 66
2, 83867, Note_on_c, 0, 50, 42
2, 83884, Note_on_c, 0, 54, 0
2, 83926, Control_c, 0, 64, 66
2, 84100, Note_on_c, 0, 50, 0
2, 84151, Note_on_c, 0, 47, 39
2, 84157, Control_c, 0, 64, 65
2, 84163, Note_on_c, 0, 66, 53
2, 84189, Note_on_c, 0, 71, 0
2, 84195, Control_c, 0, 64, 64
2, 84214, Control_c, 0, 64, 64
2, 84234, Control_c, 0, 64, 63
2, 84252, Control_c, 0, 64, 63
2, 84272, Control_c, 0, 64, 62
2, 84310, Control_c, 0, 64, 62
2, 84329, Control_c, 0, 64, 61
2, 84349, Control_c, 0, 64, 61
2, 84387, Control_c, 0, 64, 60
2, 84426, Control_c, 0, 64, 60
2, 84444, Note_on_c, 0, 71, 65
2, 84449, Note_on_c, 0, 50, 38
2, 84468, Note_on_c, 0, 66, 0
2, 84501, Note_on_c, 0, 47, 0
2, 84503, Control_c, 0, 64, 60
2, 84541, Control_c, 0, 64, 61
2, 84655, Control_c, 0, 64, 60
2, 84675, Control_c, 0, 64, 59
2, 84694, Control_c, 0, 64, 58
2, 84705, Note_on_c, 0, 50, 0
2, 84714, Control_c, 0, 64, 57
2, 84715, Note_on_c, 0, 73, 66
2, 84732, Control_c, 0, 64, 57
2, 84738, Note_on_c, 0, 54, 43
2, 84750, Note_on_c, 0, 71, 0
2, 84752, Control_c, 0, 64, 57
2, 84771, Control_c, 0, 64, 58
2, 84790, Control_c, 0, 64, 59
2, 84809, Control_c, 0, 64, 61
2, 84829, Control_c, 0, 64, 62
2, 84848, Control_c, 0, 64, 63
2, 84867, Control_c, 0, 64, 63
2, 84983, Control_c, 0, 64, 63
2, 85001, Control_c, 0, 64, 62
2, 85007, Note_on_c, 0, 54, 0
2, 85017, Note_on_c, 0, 74, 62
2, 85021, Control_c, 0, 64, 61
2, 85040, Control_c, 0, 64, 60
2, 85046, Note_on_c, 0, 59, 41
2, 85055, Note_on_c, 0, 73, 0
2, 85060, Control_c, 0, 64, 58
2, 85078, Control_c, 0, 64, 57
2, 85097, Control_c, 0, 64, 56
2, 85117, Control_c, 0, 64, 55
2, 85155, Control_c, 0, 64, 54
2, 85174, Control_c, 0, 64, 55
2, 85194, Control_c, 0, 64, 55
2, 85212, Control_c, 0, 64, 58
2, 85232, Control_c, 0, 64, 60
2, 85251, Control_c, 0, 64, 62
2, 85270, Control_c, 0, 64, 64
2, 85289, Control_c, 0, 64, 67
2, 85308, Note_on_c, 0, 71, 67
2, 85309, Control_c, 0, 64, 69
2, 85312, Note_on_c, 0, 74, 0
2, 85328, Control_c, 0, 64, 72
2, 85347, Control_c, 0, 64, 75
2, 85366, Control_c, 0, 64, 78
2, 85386, Control_c, 0, 64, 81
2, 85405, Control_c, 0, 64, 83
2, 85501, Control_c, 0, 64, 82
2, 85520, Control_c, 0, 64, 82
2, 85540, Control_c, 0, 64, 81
2, 85558, Control_c, 0, 64, 78
2, 85577, Control_c, 0, 64, 75
2, 85597, Control_c, 0, 64, 72
2, 85608, Note_on_c, 0, 68, 63
2, 85610, Note_on_c, 0, 71, 0
2, 85615, Control_c, 0, 64, 68
2, 85621, Note_on_c, 0, 62, 43
2, 85635, Control_c, 0, 64, 65
2, 85654, Control_c, 0, 64, 62
2, 85674, Control_c, 0, 64, 60
2, 85692, Control_c, 0, 64, 58
2, 85712, Control_c, 0, 64, 57
2, 85731, Control_c, 0, 64, 57
2, 85750, Control_c, 0, 64, 57
2, 85769, Control_c, 0, 64, 59
2, 85789, Control_c, 0, 64, 61
2, 85808, Control_c, 0, 64, 63
2, 85827, Control_c, 0, 64, 65
2, 85846, Control_c, 0, 64, 67
2, 85866, Control_c, 0, 64, 70
2, 85885, Control_c, 0, 64, 73
2, 85903, Note_on_c, 0, 62, 0
2, 85904, Control_c, 0, 64, 76
2, 85923, Control_c, 0, 64, 78
2, 85934, Note_on_c, 0, 77, 70
2, 85943, Control_c, 0, 64, 80
2, 85961, Control_c, 0, 64, 82
2, 85981, Control_c, 0, 64, 82
2, 85983, Note_on_c, 0, 68, 0
2, 86011, Note_on_c, 0, 59, 0
2, 86172, Control_c, 0, 64, 82
2, 86230, Control_c, 0, 64, 81
2, 86269, Control_c, 0, 64, 81
2, 86288, Control_c, 0, 64, 80
2, 86292, Note_on_c, 0, 61, 30
2, 86307, Control_c, 0, 64, 79
2, 86307, Note_on_c, 0, 57, 34
2, 86309, Note_on_c, 0, 78, 55
2, 86326, Control_c, 0, 64, 77
2, 86338, Note_on_c, 0, 77, 0
2, 86346, Control_c, 0, 64, 75
2, 86365, Control_c, 0, 64, 71
2, 86383, Control_c, 0, 64, 67
2, 86402, Control_c, 0, 64, 64
2, 86422, Control_c, 0, 64, 62
2, 86440, Control_c, 0, 64, 60
2, 86460, Control_c, 0, 64, 58
2, 86479, Control_c, 0, 64, 57
2, 86498, Control_c, 0, 64, 56
2, 86575, Control_c, 0, 64, 57
2, 86594, Control_c, 0, 64, 58
2, 86613, Control_c, 0, 64, 59
2, 86633, Control_c, 0, 64, 61
2, 86650, Note_on_c, 0, 78, 0
2, 86651, Control_c, 0, 64, 64
2, 86671, Control_c, 0, 64, 65
2, 86671, Note_on_c, 0, 73, 52
2, 86690, Control_c, 0, 64, 68
2, 86710, Control_c, 0, 64, 72
2, 86728, Control_c, 0, 64, 76
2, 86748, Control_c, 0, 64, 82
2, 86767, Control_c, 0, 64, 86
2, 86786, Control_c, 0, 64, 90
2, 86805, Control_c, 0, 64, 92
2, 86825, Control_c, 0, 64, 93
2, 86863, Control_c, 0, 64, 92
2, 86882, Control_c, 0, 64, 92
2, 86902, Control_c, 0, 64, 91
2, 86920, Control_c, 0, 64, 89
2, 86940, Control_c, 0, 64, 85
2, 86950, Note_on_c, 0, 57, 0
2, 86959, Control_c, 0, 64, 79
2, 86960, Note_on_c, 0, 56, 43
2, 86960, Note_on_c, 0, 59, 45
2, 86977, Control_c, 0, 64, 73
2, 86995, Note_on_c, 0, 61, 0
2, 86996, Control_c, 0, 64, 67
2, 87015, Control_c, 0, 64, 63
2, 87035, Control_c, 0, 64, 60
2, 87054, Control_c, 0, 64, 59
2, 87112, Control_c, 0, 64, 60
2, 87130, Control_c, 0, 64, 62
2, 87150, Control_c, 0, 64, 64
2, 87169, Control_c, 0, 64, 66
2, 87189, Control_c, 0, 64, 69
2, 87207, Control_c, 0, 64, 75
2, 87227, Control_c, 0, 64, 80
2, 87246, Control_c, 0, 64, 86
2, 87248, Note_on_c, 0, 77, 74
2, 87265, Control_c, 0, 64, 91
2, 87284, Control_c, 0, 64, 97
2, 87293, Note_on_c, 0, 73, 0
2, 87304, Control_c, 0, 64, 101
2, 87322, Control_c, 0, 64, 103
2, 87340, Control_c, 0, 64, 103
2, 87359, Control_c, 0, 64, 104
2, 87378, Control_c, 0, 64, 104
2, 87468, Note_on_c, 0, 56, 0
2, 87474, Control_c, 0, 64, 102
2, 87493, Control_c, 0, 64, 98
2, 87516, Control_c, 0, 64, 92
2, 87534, Control_c, 0, 64, 85
2, 87547, Note_on_c, 0, 78, 73
2, 87553, Note_on_c, 0, 59, 0
2, 87554, Control_c, 0, 64, 78
2, 87560, Note_on_c, 0, 77, 0
2, 87562, Note_on_c, 0, 54, 36
2, 87562, Note_on_c, 0, 57, 44
2, 87573, Control_c, 0, 64, 72
2, 87593, Control_c, 0, 64, 66
2, 87611, Control_c, 0, 64, 62
2, 87631, Control_c, 0, 64, 59
2, 87650, Control_c, 0, 64, 59
2, 87727, Control_c, 0, 64, 59
2, 87746, Control_c, 0, 64, 61
2, 87765, Control_c, 0, 64, 63
2, 87785, Control_c, 0, 64, 65
2, 87804, Control_c, 0, 64, 67
2, 87823, Control_c, 0, 64, 71
2, 87842, Control_c, 0, 64, 76
2, 87848, Note_on_c, 0, 73, 72
2, 87862, Control_c, 0, 64, 82
2, 87878, Note_on_c, 0, 78, 0
2, 87880, Control_c, 0, 64, 90
2, 87882, Note_on_c, 0, 57, 0
2, 87900, Control_c, 0, 64, 94
2, 87919, Control_c, 0, 64, 98
2, 87938, Control_c, 0, 64, 100
2, 87957, Control_c, 0, 64, 101
2, 87976, Control_c, 0, 64, 101
2, 87996, Control_c, 0, 64, 102
2, 88091, Control_c, 0, 64, 100
2, 88111, Control_c, 0, 64, 96
2, 88130, Control_c, 0, 64, 91
2, 88141, Note_on_c, 0, 54, 0
2, 88149, Control_c, 0, 64, 82
2, 88151, Note_on_c, 0, 61, 54
2, 88154, Note_on_c, 0, 57, 49
2, 88168, Control_c, 0, 64, 72
2, 88188, Control_c, 0, 64, 66
2, 88207, Control_c, 0, 64, 63
2, 88226, Control_c, 0, 64, 62
2, 88245, Control_c, 0, 64, 63
2, 88265, Control_c, 0, 64, 65
2, 88282, Control_c, 0, 64, 68
2, 88301, Control_c, 0, 64, 74
2, 88320, Control_c, 0, 64, 82
2, 88339, Control_c, 0, 64, 91
2, 88359, Control_c, 0, 64, 99
2, 88377, Control_c, 0, 64, 105
2, 88397, Control_c, 0, 64, 110
2, 88400, Note_on_c, 0, 57, 0
2, 88406, Note_on_c, 0, 61, 0
2, 88416, Control_c, 0, 64, 112
2, 88445, Note_on_c, 0, 77, 79
2, 88477, Control_c, 0, 64, 114
2, 88494, Note_on_c, 0, 73, 0
2, 88495, Control_c, 0, 64, 116
2, 88515, Control_c, 0, 64, 117
2, 88534, Control_c, 0, 64, 118
2, 88649, Control_c, 0, 64, 116
2, 88669, Control_c, 0, 64, 110
2, 88688, Control_c, 0, 64, 105
2, 88707, Control_c, 0, 64, 99
2, 88726, Control_c, 0, 64, 93
2, 88746, Control_c, 0, 64, 86
2, 88755, Note_on_c, 0, 63, 39
2, 88764, Control_c, 0, 64, 80
2, 88777, Note_on_c, 0, 51, 33
2, 88784, Control_c, 0, 64, 75
2, 88785, Note_on_c, 0, 78, 78
2, 88803, Control_c, 0, 64, 70
2, 88821, Note_on_c, 0, 77, 0
2, 88823, Control_c, 0, 64, 66
2, 88841, Control_c, 0, 64, 62
2, 88861, Control_c, 0, 64, 60
2, 88880, Control_c, 0, 64, 59
2, 88957, Control_c, 0, 64, 60
2, 88975, Control_c, 0, 64, 60
2, 88995, Control_c, 0, 64, 61
2, 89014, Control_c, 0, 64, 63
2, 89034, Control_c, 0, 64, 64
2, 89052, Control_c, 0, 64, 65
2, 89072, Control_c, 0, 64, 67
2, 89077, Note_on_c, 0, 73, 69
2, 89091, Control_c, 0, 64, 70
2, 89092, Note_on_c, 0, 78, 0
2, 89110, Control_c, 0, 64, 74
2, 89129, Control_c, 0, 64, 78
2, 89149, Control_c, 0, 64, 81
2, 89168, Control_c, 0, 64, 84
2, 89187, Control_c, 0, 64, 85
2, 89206, Control_c, 0, 64, 86
2, 89226, Control_c, 0, 64, 87
2, 89353, Note_on_c, 0, 51, 0
2, 89359, Control_c, 0, 64, 86
2, 89374, Note_on_c, 0, 56, 40
2, 89378, Control_c, 0, 64, 85
2, 89381, Note_on_c, 0, 72, 64
2, 89388, Note_on_c, 0, 73, 0
2, 89397, Control_c, 0, 64, 82
2, 89416, Control_c, 0, 64, 78
2, 89436, Control_c, 0, 64, 73
2, 89454, Control_c, 0, 64, 67
2, 89474, Control_c, 0, 64, 63
2, 89493, Control_c, 0, 64, 61
2, 89513, Control_c, 0, 64, 60
2, 89531, Control_c, 0, 64, 59
2, 89570, Control_c, 0, 64, 61
2, 89589, Control_c, 0, 64, 63
2, 89608, Control_c, 0, 64, 64
2, 89628, Control_c, 0, 64, 66
2, 89647, Control_c, 0, 64, 69
2, 89666, Control_c, 0, 64, 72
2, 89667, Note_on_c, 0, 72, 0
2, 89670, Note_on_c, 0, 78, 48
2, 89685, Control_c, 0, 64, 77
2, 89705, Control_c, 0, 64, 80
2, 89707, Note_on_c, 0, 63, 0
2, 89707, Note_on_c, 0, 78, 0
2, 89724, Control_c, 0, 64, 82
2, 89743, Control_c, 0, 64, 84
2, 89762, Control_c, 0, 64, 86
2, 89819, Control_c, 0, 64, 86
2, 89821, Note_on_c, 0, 78, 64
2, 89917, Note_on_c, 0, 78, 0
2, 89934, Control_c, 0, 64, 86
2, 89958, Note_on_c, 0, 76, 47
2, 89973, Control_c, 0, 64, 85
2, 89993, Control_c, 0, 64, 85
2, 90011, Control_c, 0, 64, 84
2, 90012, Note_on_c, 0, 76, 0
2, 90031, Control_c, 0, 64, 83
2, 90036, Note_on_c, 0, 78, 54
2, 90050, Control_c, 0, 64, 82
2, 90069, Control_c, 0, 64, 81
2, 90088, Control_c, 0, 64, 79
2, 90108, Control_c, 0, 64, 78
2, 90127, Control_c, 0, 64, 76
2, 90138, Note_on_c, 0, 76, 57
2, 90146, Control_c, 0, 64, 74
2, 90149, Note_on_c, 0, 56, 0
2, 90165, Control_c, 0, 64, 72
2, 90167, Note_on_c, 0, 78, 0
2, 90169, Note_on_c, 0, 61, 29
2, 90185, Control_c, 0, 64, 70
2, 90198, Control_c, 0, 64, 68
2, 90217, Control_c, 0, 64, 66
2, 90236, Control_c, 0, 64, 65
2, 90255, Control_c, 0, 64, 64
2, 90275, Control_c, 0, 64, 63
2, 90294, Control_c, 0, 64, 62
2, 90313, Control_c, 0, 64, 61
2, 90332, Control_c, 0, 64, 61
2, 90352, Control_c, 0, 64, 60
2, 90370, Control_c, 0, 64, 59
2, 90397, Control_c, 0, 64, 59
2, 90415, Control_c, 0, 64, 58
2, 90435, Control_c, 0, 64, 58
2, 90462, Note_on_c, 0, 76, 0
2, 90469, Note_on_c, 0, 75, 50
2, 90474, Control_c, 0, 64, 57
2, 90492, Control_c, 0, 64, 57
2, 90608, Control_c, 0, 64, 56
2, 90761, Control_c, 0, 64, 57
2, 90772, Note_on_c, 0, 73, 44
2, 90781, Control_c, 0, 64, 59
2, 90783, Note_on_c, 0, 75, 0
2, 90800, Control_c, 0, 64, 60
2, 90819, Control_c, 0, 64, 62
2, 90838, Control_c, 0, 64, 63
2, 90857, Control_c, 0, 64, 64
2, 90877, Control_c, 0, 64, 65
2, 90895, Control_c, 0, 64, 65
2, 90915, Control_c, 0, 64, 66
2, 90934, Control_c, 0, 64, 66
2, 91011, Control_c, 0, 64, 67
2, 91046, Note_on_c, 0, 56, 36
2, 91058, Note_on_c, 0, 61, 0
2, 91146, Control_c, 0, 64, 66
2, 91202, Control_c, 0, 64, 67
2, 91358, Note_on_c, 0, 52, 41
2, 91384, Note_on_c, 0, 56, 0
2, 91394, Control_c, 0, 64, 66
2, 91433, Control_c, 0, 64, 66
2, 91451, Control_c, 0, 64, 65
2, 91471, Control_c, 0, 64, 65
2, 91490, Control_c, 0, 64, 64
2, 91509, Control_c, 0, 64, 64
2, 91528, Control_c, 0, 64, 63
2, 91586, Control_c, 0, 64, 63
2, 91605, Control_c, 0, 64, 62
2, 91631, Note_on_c, 0, 52, 0
2, 91644, Control_c, 0, 64, 62
2, 91644, Note_on_c, 0, 68, 58
2, 91654, Note_on_c, 0, 49, 48
2, 91682, Control_c, 0, 64, 61
2, 91692, Note_on_c, 0, 73, 0
2, 91720, Control_c, 0, 64, 61
2, 91739, Control_c, 0, 64, 60
2, 91759, Control_c, 0, 64, 60
2, 91778, Control_c, 0, 64, 59
2, 91797, Control_c, 0, 64, 59
2, 91874, Control_c, 0, 64, 58
2, 91929, Note_on_c, 0, 73, 68
2, 91942, Note_on_c, 0, 52, 44
2, 91946, Note_on_c, 0, 49, 0
2, 91964, Note_on_c, 0, 68, 0
2, 92211, Note_on_c, 0, 75, 72
2, 92215, Note_on_c, 0, 52, 0
2, 92218, Control_c, 0, 64, 58
2, 92229, Note_on_c, 0, 56, 44
2, 92273, Note_on_c, 0, 73, 0
2, 92518, Note_on_c, 0, 76, 66
2, 92527, Note_on_c, 0, 61, 29
2, 92544, Note_on_c, 0, 56, 0
2, 92573, Note_on_c, 0, 75, 0
2, 92698, Control_c, 0, 64, 58
2, 92718, Control_c, 0, 64, 59
2, 92737, Control_c, 0, 64, 59
2, 92756, Control_c, 0, 64, 60
2, 92775, Control_c, 0, 64, 61
2, 92795, Control_c, 0, 64, 62
2, 92808, Note_on_c, 0, 73, 69
2, 92814, Control_c, 0, 64, 63
2, 92833, Control_c, 0, 64, 64
2, 92836, Note_on_c, 0, 76, 0
2, 92852, Control_c, 0, 64, 66
2, 92872, Control_c, 0, 64, 68
2, 92890, Control_c, 0, 64, 70
2, 92910, Control_c, 0, 64, 73
2, 92929, Control_c, 0, 64, 76
2, 92949, Control_c, 0, 64, 79
2, 92967, Control_c, 0, 64, 81
2, 92987, Control_c, 0, 64, 84
2, 93006, Control_c, 0, 64, 84
2, 93064, Control_c, 0, 64, 84
2, 93083, Control_c, 0, 64, 83
2, 93103, Control_c, 0, 64, 82
2, 93112, Note_on_c, 0, 70, 63
2, 93122, Control_c, 0, 64, 78
2, 93122, Note_on_c, 0, 52, 40
2, 93135, Note_on_c, 0, 73, 0
2, 93142, Control_c, 0, 64, 74
2, 93160, Control_c, 0, 64, 69
2, 93179, Control_c, 0, 64, 64
2, 93199, Control_c, 0, 64, 62
2, 93218, Control_c, 0, 64, 61
2, 93237, Control_c, 0, 64, 61
2, 93275, Control_c, 0, 64, 61
2, 93294, Control_c, 0, 64, 62
2, 93313, Control_c, 0, 64, 63
2, 93332, Control_c, 0, 64, 64
2, 93352, Control_c, 0, 64, 66
2, 93370, Control_c, 0, 64, 67
2, 93390, Control_c, 0, 64, 70
2, 93409, Control_c, 0, 64, 74
2, 93422, Note_on_c, 0, 79, 65
2, 93429, Control_c, 0, 64, 77
2, 93447, Control_c, 0, 64, 80
2, 93467, Control_c, 0, 64, 82
2, 93486, Control_c, 0, 64, 83
2, 93499, Note_on_c, 0, 70, 0
2, 93505, Control_c, 0, 64, 84
2, 93544, Control_c, 0, 64, 83
2, 93563, Control_c, 0, 64, 83
2, 93639, Control_c, 0, 64, 82
2, 93658, Control_c, 0, 64, 82
2, 93678, Control_c, 0, 64, 81
2, 93697, Control_c, 0, 64, 80
2, 93716, Control_c, 0, 64, 78
2, 93720, Note_on_c, 0, 52, 0
2, 93731, Note_on_c, 0, 50, 34
2, 93735, Control_c, 0, 64, 77
2, 93755, Control_c, 0, 64, 74
2, 93758, Note_on_c, 0, 78, 61
2, 93774, Control_c, 0, 64, 72
2, 93793, Control_c, 0, 64, 69
2, 93797, Note_on_c, 0, 79, 0
2, 93812, Control_c, 0, 64, 65
2, 93832, Control_c, 0, 64, 63
2, 93850, Control_c, 0, 64, 61
2, 93870, Control_c, 0, 64, 60
2, 93889, Control_c, 0, 64, 59
2, 93966, Control_c, 0, 64, 60
2, 93985, Control_c, 0, 64, 62
2, 94004, Control_c, 0, 64, 63
2, 94024, Control_c, 0, 64, 64
2, 94042, Control_c, 0, 64, 66
2, 94060, Control_c, 0, 64, 68
2, 94074, Note_on_c, 0, 74, 48
2, 94080, Control_c, 0, 64, 71
2, 94099, Control_c, 0, 64, 75
2, 94099, Note_on_c, 0, 78, 0
2, 94119, Control_c, 0, 64, 78
2, 94137, Control_c, 0, 64, 81
2, 94157, Control_c, 0, 64, 83
2, 94176, Control_c, 0, 64, 86
2, 94195, Control_c, 0, 64, 87
2, 94257, Control_c, 0, 64, 86
2, 94296, Control_c, 0, 64, 86
2, 94315, Control_c, 0, 64, 84
2, 94324, Note_on_c, 0, 74, 0
2, 94334, Control_c, 0, 64, 82
2, 94354, Control_c, 0, 64, 78
2, 94373, Control_c, 0, 64, 72
2, 94385, Note_on_c, 0, 71, 42
2, 94389, Note_on_c, 0, 54, 30
2, 94392, Control_c, 0, 64, 68
2, 94411, Control_c, 0, 64, 65
2, 94431, Control_c, 0, 64, 63
2, 94449, Control_c, 0, 64, 63
2, 94465, Note_on_c, 0, 61, 0
2, 94488, Control_c, 0, 64, 64
2, 94508, Control_c, 0, 64, 65
2, 94526, Control_c, 0, 64, 66
2, 94546, Control_c, 0, 64, 68
2, 94565, Control_c, 0, 64, 72
2, 94585, Control_c, 0, 64, 76
2, 94603, Control_c, 0, 64, 79
2, 94623, Control_c, 0, 64, 81
2, 94642, Control_c, 0, 64, 83
2, 94646, Note_on_c, 0, 71, 0
2, 94647, Note_on_c, 0, 50, 0
2, 94660, Control_c, 0, 64, 84
2, 94669, Note_on_c, 0, 70, 57
2, 94680, Control_c, 0, 64, 86
2, 94699, Control_c, 0, 64, 87
2, 94719, Control_c, 0, 64, 87
2, 94776, Control_c, 0, 64, 88
2, 94853, Control_c, 0, 64, 87
2, 94872, Control_c, 0, 64, 86
2, 94891, Control_c, 0, 64, 85
2, 94911, Control_c, 0, 64, 81
2, 94929, Control_c, 0, 64, 76
2, 94938, Note_on_c, 0, 70, 0
2, 94942, Note_on_c, 0, 50, 43
2, 94947, Note_on_c, 0, 71, 52
2, 94949, Control_c, 0, 64, 71
2, 94968, Control_c, 0, 64, 66
2, 94988, Control_c, 0, 64, 63
2, 94998, Note_on_c, 0, 54, 0
2, 95001, Control_c, 0, 64, 60
2, 95019, Control_c, 0, 64, 58
2, 95039, Control_c, 0, 64, 58
2, 95058, Control_c, 0, 64, 58
2, 95078, Control_c, 0, 64, 60
2, 95096, Control_c, 0, 64, 62
2, 95116, Control_c, 0, 64, 63
2, 95135, Control_c, 0, 64, 64
2, 95154, Control_c, 0, 64, 65
2, 95173, Control_c, 0, 64, 66
2, 95219, Note_on_c, 0, 66, 55
2, 95225, Note_on_c, 0, 47, 43
2, 95228, Note_on_c, 0, 71, 0
2, 95233, Control_c, 0, 64, 66
2, 95245, Note_on_c, 0, 50, 0
2, 95252, Control_c, 0, 64, 65
2, 95272, Control_c, 0, 64, 65
2, 95290, Control_c, 0, 64, 64
2, 95310, Control_c, 0, 64, 63
2, 95329, Control_c, 0, 64, 63
2, 95349, Control_c, 0, 64, 62
2, 95367, Control_c, 0, 64, 61
2, 95387, Control_c, 0, 64, 60
2, 95406, Control_c, 0, 64, 59
2, 95425, Control_c, 0, 64, 58
2, 95444, Control_c, 0, 64, 58
2, 95464, Control_c, 0, 64, 57
2, 95514, Note_on_c, 0, 71, 63
2, 95522, Note_on_c, 0, 50, 41
2, 95562, Note_on_c, 0, 66, 0
2, 95613, Note_on_c, 0, 47, 0
2, 95655, Control_c, 0, 64, 58
2, 95776, Note_on_c, 0, 74, 67
2, 95784, Note_on_c, 0, 50, 0
2, 95809, Control_c, 0, 64, 57
2, 95809, Note_on_c, 0, 54, 42
2, 95812, Note_on_c, 0, 71, 0
2, 95886, Control_c, 0, 64, 57
2, 96001, Control_c, 0, 64, 56
2, 96081, Note_on_c, 0, 78, 69
2, 96083, Note_on_c, 0, 59, 43
2, 96117, Note_on_c, 0, 54, 0
2, 96118, Note_on_c, 0, 74, 0
2, 96135, Control_c, 0, 64, 57
2, 96155, Control_c, 0, 64, 59
2, 96174, Control_c, 0, 64, 60
2, 96193, Control_c, 0, 64, 62
2, 96212, Control_c, 0, 64, 63
2, 96232, Control_c, 0, 64, 64
2, 96250, Control_c, 0, 64, 65
2, 96270, Control_c, 0, 64, 67
2, 96289, Control_c, 0, 64, 69
2, 96309, Control_c, 0, 64, 71
2, 96327, Control_c, 0, 64, 72
2, 96347, Control_c, 0, 64, 74
2, 96366, Control_c, 0, 64, 75
2, 96377, Note_on_c, 0, 74, 68
2, 96385, Control_c, 0, 64, 78
2, 96404, Control_c, 0, 64, 80
2, 96413, Note_on_c, 0, 78, 0
2, 96424, Control_c, 0, 64, 81
2, 96443, Control_c, 0, 64, 82
2, 96500, Control_c, 0, 64, 81
2, 96538, Control_c, 0, 64, 81
2, 96558, Control_c, 0, 64, 80
2, 96577, Control_c, 0, 64, 78
2, 96596, Control_c, 0, 64, 76
2, 96615, Control_c, 0, 64, 73
2, 96635, Control_c, 0, 64, 68
2, 96654, Control_c, 0, 64, 64
2, 96672, Note_on_c, 0, 72, 70
2, 96673, Control_c, 0, 64, 63
2, 96673, Note_on_c, 0, 59, 0
2, 96678, Note_on_c, 0, 51, 35
2, 96678, Note_on_c, 0, 74, 0
2, 96681, Note_on_c, 0, 54, 35
2, 96692, Control_c, 0, 64, 62
2, 96712, Control_c, 0, 64, 61
2, 96730, Control_c, 0, 64, 61
2, 96750, Control_c, 0, 64, 61
2, 96769, Control_c, 0, 64, 62
2, 96789, Control_c, 0, 64, 63
2, 96807, Control_c, 0, 64, 64
2, 96827, Control_c, 0, 64, 66
2, 96846, Control_c, 0, 64, 68
2, 96865, Control_c, 0, 64, 70
2, 96884, Control_c, 0, 64, 73
2, 96904, Control_c, 0, 64, 75
2, 96921, Control_c, 0, 64, 76
2, 96939, Control_c, 0, 64, 77
2, 96954, Note_on_c, 0, 81, 75
2, 96959, Control_c, 0, 64, 77
2, 96978, Control_c, 0, 64, 78
2, 96980, Note_on_c, 0, 72, 0
2, 96998, Control_c, 0, 64, 79
2, 97134, Control_c, 0, 64, 78
2, 97153, Control_c, 0, 64, 78
2, 97172, Control_c, 0, 64, 77
2, 97192, Control_c, 0, 64, 76
2, 97210, Control_c, 0, 64, 75
2, 97228, Note_on_c, 0, 54, 0
2, 97230, Control_c, 0, 64, 73
2, 97247, Note_on_c, 0, 51, 0
2, 97249, Control_c, 0, 64, 70
2, 97263, Note_on_c, 0, 52, 37
2, 97266, Note_on_c, 0, 80, 77
2, 97269, Control_c, 0, 64, 67
2, 97272, Note_on_c, 0, 61, 34
2, 97287, Control_c, 0, 64, 64
2, 97294, Note_on_c, 0, 81, 0
2, 97307, Control_c, 0, 64, 62
2, 97326, Control_c, 0, 64, 60
2, 97345, Control_c, 0, 64, 59
2, 97364, Control_c, 0, 64, 59
2, 97403, Control_c, 0, 64, 59
2, 97422, Control_c, 0, 64, 61
2, 97441, Control_c, 0, 64, 63
2, 97460, Control_c, 0, 64, 64
2, 97479, Control_c, 0, 64, 65
2, 97498, Control_c, 0, 64, 67
2, 97518, Control_c, 0, 64, 69
2, 97537, Control_c, 0, 64, 71
2, 97556, Control_c, 0, 64, 73
2, 97567, Note_on_c, 0, 80, 0
2, 97569, Note_on_c, 0, 76, 64
2, 97575, Control_c, 0, 64, 75
2, 97595, Control_c, 0, 64, 77
2, 97614, Control_c, 0, 64, 78
2, 97633, Control_c, 0, 64, 79
2, 97652, Control_c, 0, 64, 79
2, 97787, Control_c, 0, 64, 79
2, 97806, Control_c, 0, 64, 78
2, 97825, Control_c, 0, 64, 76
2, 97844, Control_c, 0, 64, 72
2, 97851, Note_on_c, 0, 56, 44
2, 97855, Note_on_c, 0, 73, 68
2, 97864, Control_c, 0, 64, 68
2, 97882, Control_c, 0, 64, 64
2, 97886, Note_on_c, 0, 76, 0
2, 97900, Control_c, 0, 64, 61
2, 97920, Control_c, 0, 64, 60
2, 97939, Control_c, 0, 64, 61
2, 97959, Control_c, 0, 64, 63
2, 97977, Control_c, 0, 64, 64
2, 97997, Control_c, 0, 64, 66
2, 98016, Control_c, 0, 64, 69
2, 98035, Control_c, 0, 64, 72
2, 98049, Note_on_c, 0, 61, 0
2, 98054, Control_c, 0, 64, 75
2, 98075, Control_c, 0, 64, 77
2, 98082, Note_on_c, 0, 52, 0
2, 98135, Note_on_c, 0, 72, 77
2, 98145, Note_on_c, 0, 73, 0
2, 98190, Control_c, 0, 64, 77
2, 98267, Control_c, 0, 64, 78
2, 98344, Control_c, 0, 64, 77
2, 98363, Control_c, 0, 64, 76
2, 98382, Control_c, 0, 64, 74
2, 98401, Control_c, 0, 64, 71
2, 98411, Note_on_c, 0, 72, 0
2, 98418, Note_on_c, 0, 52, 42
2, 98418, Note_on_c, 0, 73, 68
2, 98420, Control_c, 0, 64, 67
2, 98431, Note_on_c, 0, 56, 0
2, 98439, Control_c, 0, 64, 64
2, 98458, Control_c, 0, 64, 62
2, 98478, Control_c, 0, 64, 60
2, 98497, Control_c, 0, 64, 59
2, 98516, Control_c, 0, 64, 59
2, 98574, Control_c, 0, 64, 60
2, 98593, Control_c, 0, 64, 62
2, 98612, Control_c, 0, 64, 63
2, 98632, Control_c, 0, 64, 64
2, 98650, Control_c, 0, 64, 65
2, 98670, Control_c, 0, 64, 66
2, 98689, Control_c, 0, 64, 66
2, 98696, Note_on_c, 0, 49, 54
2, 98696, Note_on_c, 0, 68, 71
2, 98697, Note_on_c, 0, 73, 0
2, 98709, Control_c, 0, 64, 67
2, 98727, Control_c, 0, 64, 68
2, 98747, Control_c, 0, 64, 68
2, 98747, Note_on_c, 0, 52, 0
2, 98824, Control_c, 0, 64, 68
2, 98843, Control_c, 0, 64, 67
2, 98861, Control_c, 0, 64, 66
2, 98881, Control_c, 0, 64, 65
2, 98900, Control_c, 0, 64, 64
2, 98919, Control_c, 0, 64, 63
2, 98938, Control_c, 0, 64, 62
2, 98958, Control_c, 0, 64, 61
2, 98972, Note_on_c, 0, 52, 51
2, 98973, Note_on_c, 0, 73, 76
2, 98977, Control_c, 0, 64, 60
2, 98996, Control_c, 0, 64, 59
2, 99001, Note_on_c, 0, 68, 0
2, 99008, Note_on_c, 0, 49, 0
2, 99015, Control_c, 0, 64, 58
2, 99035, Control_c, 0, 64, 58
2, 99092, Control_c, 0, 64, 58
2, 99112, Control_c, 0, 64, 59
2, 99130, Control_c, 0, 64, 59
2, 99150, Control_c, 0, 64, 60
2, 99169, Control_c, 0, 64, 60
2, 99189, Control_c, 0, 64, 61
2, 99246, Control_c, 0, 64, 61
2, 99249, Note_on_c, 0, 76, 76
2, 99277, Note_on_c, 0, 56, 49
2, 99283, Note_on_c, 0, 52, 0
2, 99291, Note_on_c, 0, 73, 0
2, 99380, Control_c, 0, 64, 61
2, 99399, Control_c, 0, 64, 60
2, 99418, Control_c, 0, 64, 60
2, 99438, Control_c, 0, 64, 59
2, 99476, Control_c, 0, 64, 59
2, 99495, Control_c, 0, 64, 58
2, 99515, Control_c, 0, 64, 58
2, 99530, Note_on_c, 0, 80, 84
2, 99534, Control_c, 0, 64, 57
2, 99552, Note_on_c, 0, 76, 0
2, 99556, Note_on_c, 0, 61, 47
2, 99594, Note_on_c, 0, 56, 0
2, 99610, Control_c, 0, 64, 58
2, 99630, Control_c, 0, 64, 59
2, 99649, Control_c, 0, 64, 61
2, 99669, Control_c, 0, 64, 63
2, 99687, Control_c, 0, 64, 64
2, 99707, Control_c, 0, 64, 65
2, 99726, Control_c, 0, 64, 67
2, 99745, Control_c, 0, 64, 69
2, 99764, Control_c, 0, 64, 71
2, 99784, Control_c, 0, 64, 73
2, 99803, Control_c, 0, 64, 76
2, 99821, Control_c, 0, 64, 79
2, 99828, Note_on_c, 0, 77, 82
2, 99841, Control_c, 0, 64, 81
2, 99852, Note_on_c, 0, 80, 0
2, 99860, Control_c, 0, 64, 83
2, 99879, Control_c, 0, 64, 84
2, 99996, Control_c, 0, 64, 84
2, 100014, Control_c, 0, 64, 83
2, 100034, Control_c, 0, 64, 81
2, 100053, Control_c, 0, 64, 79
2, 100073, Control_c, 0, 64, 77
2, 100091, Control_c, 0, 64, 74
2, 100111, Control_c, 0, 64, 71
2, 100130, Control_c, 0, 64, 67
2, 100135, Note_on_c, 0, 61, 0
2, 100147, Note_on_c, 0, 56, 45
2, 100147, Note_on_c, 0, 74, 75
2, 100149, Note_on_c, 0, 53, 42
2, 100150, Control_c, 0, 64, 64
2, 100165, Note_on_c, 0, 77, 0
2, 100168, Control_c, 0, 64, 62
2, 100188, Control_c, 0, 64, 61
2, 100207, Control_c, 0, 64, 59
2, 100226, Control_c, 0, 64, 58
2, 100245, Control_c, 0, 64, 58
2, 100265, Control_c, 0, 64, 57
2, 100303, Control_c, 0, 64, 58
2, 100322, Control_c, 0, 64, 58
2, 100341, Control_c, 0, 64, 60
2, 100360, Control_c, 0, 64, 61
2, 100379, Control_c, 0, 64, 62
2, 100399, Control_c, 0, 64, 64
2, 100418, Control_c, 0, 64, 64
2, 100437, Control_c, 0, 64, 66
2, 100456, Control_c, 0, 64, 67
2, 100466, Note_on_c, 0, 83, 78
2, 100476, Control_c, 0, 64, 69
2, 100494, Control_c, 0, 64, 71
2, 100497, Note_on_c, 0, 74, 0
2, 100514, Control_c, 0, 64, 73
2, 100533, Control_c, 0, 64, 75
2, 100553, Control_c, 0, 64, 76
2, 100571, Control_c, 0, 64, 77
2, 100591, Control_c, 0, 64, 77
2, 100610, Control_c, 0, 64, 78
2, 100725, Control_c, 0, 64, 77
2, 100763, Control_c, 0, 64, 76
2, 100781, Control_c, 0, 64, 75
2, 100801, Control_c, 0, 64, 74
2, 100803, Note_on_c, 0, 54, 43
2, 100820, Control_c, 0, 64, 71
2, 100839, Control_c, 0, 64, 69
2, 100841, Note_on_c, 0, 53, 0
2, 100847, Note_on_c, 0, 81, 75
2, 100858, Control_c, 0, 64, 67
2, 100869, Note_on_c, 0, 56, 0
2, 100878, Control_c, 0, 64, 65
2, 100897, Control_c, 0, 64, 64
2, 100900, Note_on_c, 0, 83, 0
2, 100916, Control_c, 0, 64, 62
2, 100935, Control_c, 0, 64, 61
2, 100955, Control_c, 0, 64, 59
2, 100974, Control_c, 0, 64, 59
2, 100993, Control_c, 0, 64, 58
2, 101050, Control_c, 0, 64, 59
2, 101070, Control_c, 0, 64, 60
2, 101089, Control_c, 0, 64, 62
2, 101109, Control_c, 0, 64, 63
2, 101127, Control_c, 0, 64, 65
2, 101147, Control_c, 0, 64, 66
2, 101166, Control_c, 0, 64, 67
2, 101185, Control_c, 0, 64, 69
2, 101186, Note_on_c, 0, 78, 75
2, 101204, Control_c, 0, 64, 70
2, 101224, Control_c, 0, 64, 72
2, 101225, Note_on_c, 0, 81, 0
2, 101243, Control_c, 0, 64, 73
2, 101261, Control_c, 0, 64, 74
2, 101281, Control_c, 0, 64, 75
2, 101300, Control_c, 0, 64, 75
2, 101435, Control_c, 0, 64, 75
2, 101454, Control_c, 0, 64, 74
2, 101473, Control_c, 0, 64, 72
2, 101491, Note_on_c, 0, 56, 53
2, 101492, Control_c, 0, 64, 70
2, 101512, Control_c, 0, 64, 66
2, 101530, Control_c, 0, 64, 63
2, 101550, Control_c, 0, 64, 62
2, 101569, Control_c, 0, 64, 61
2, 101589, Control_c, 0, 64, 61
2, 101607, Control_c, 0, 64, 61
2, 101627, Control_c, 0, 64, 62
2, 101646, Control_c, 0, 64, 64
2, 101665, Control_c, 0, 64, 66
2, 101684, Control_c, 0, 64, 67
2, 101704, Control_c, 0, 64, 70
2, 101722, Control_c, 0, 64, 73
2, 101740, Control_c, 0, 64, 76
2, 101760, Control_c, 0, 64, 79
2, 101777, Note_on_c, 0, 77, 79
2, 101779, Control_c, 0, 64, 81
2, 101799, Control_c, 0, 64, 83
2, 101807, Note_on_c, 0, 78, 0
2, 101817, Control_c, 0, 64, 84
2, 101837, Control_c, 0, 64, 84
2, 101856, Control_c, 0, 64, 85
2, 101914, Control_c, 0, 64, 85
2, 101952, Control_c, 0, 64, 85
2, 101971, Control_c, 0, 64, 84
2, 101991, Control_c, 0, 64, 84
2, 102009, Control_c, 0, 64, 82
2, 102029, Control_c, 0, 64, 80
2, 102048, Control_c, 0, 64, 77
2, 102068, Control_c, 0, 64, 74
2, 102072, Note_on_c, 0, 57, 43
2, 102086, Control_c, 0, 64, 70
2, 102089, Note_on_c, 0, 78, 81
2, 102106, Control_c, 0, 64, 66
2, 102119, Note_on_c, 0, 77, 0
2, 102121, Note_on_c, 0, 56, 0
2, 102125, Control_c, 0, 64, 64
2, 102145, Control_c, 0, 64, 62
2, 102163, Control_c, 0, 64, 61
2, 102183, Control_c, 0, 64, 61
2, 102240, Control_c, 0, 64, 62
2, 102259, Control_c, 0, 64, 63
2, 102279, Control_c, 0, 64, 64
2, 102297, Control_c, 0, 64, 66
2, 102317, Control_c, 0, 64, 67
2, 102336, Control_c, 0, 64, 69
2, 102355, Control_c, 0, 64, 70
2, 102374, Control_c, 0, 64, 72
2, 102394, Control_c, 0, 64, 74
2, 102408, Note_on_c, 0, 74, 72
2, 102413, Control_c, 0, 64, 75
2, 102432, Control_c, 0, 64, 76
2, 102451, Control_c, 0, 64, 77
2, 102458, Note_on_c, 0, 78, 0
2, 102471, Control_c, 0, 64, 77
2, 102489, Control_c, 0, 64, 78
2, 102509, Control_c, 0, 64, 79
2, 102605, Control_c, 0, 64, 78
2, 102625, Control_c, 0, 64, 78
2, 102643, Control_c, 0, 64, 77
2, 102663, Control_c, 0, 64, 76
2, 102667, Note_on_c, 0, 57, 0
2, 102682, Control_c, 0, 64, 74
2, 102699, Control_c, 0, 64, 70
2, 102708, Note_on_c, 0, 56, 58
2, 102715, Note_on_c, 0, 54, 0
2, 102719, Control_c, 0, 64, 65
2, 102736, Note_on_c, 0, 52, 53
2, 102738, Control_c, 0, 64, 62
2, 102758, Control_c, 0, 64, 60
2, 102776, Control_c, 0, 64, 58
2, 102796, Control_c, 0, 64, 56
2, 102815, Control_c, 0, 64, 56
2, 102835, Control_c, 0, 64, 57
2, 102853, Control_c, 0, 64, 61
2, 102874, Control_c, 0, 64, 63
2, 102893, Control_c, 0, 64, 65
2, 102912, Control_c, 0, 64, 67
2, 102931, Control_c, 0, 64, 71
2, 102951, Control_c, 0, 64, 75
2, 102969, Control_c, 0, 64, 79
2, 102989, Control_c, 0, 64, 84
2, 103008, Control_c, 0, 64, 91
2, 103025, Note_on_c, 0, 73, 81
2, 103028, Control_c, 0, 64, 97
2, 103046, Control_c, 0, 64, 102
2, 103063, Note_on_c, 0, 74, 0
2, 103066, Control_c, 0, 64, 104
2, 103085, Control_c, 0, 64, 105
2, 103105, Control_c, 0, 64, 107
2, 103123, Control_c, 0, 64, 110
2, 103143, Control_c, 0, 64, 113
2, 103155, Note_on_c, 0, 73, 0
2, 103162, Control_c, 0, 64, 117
2, 103180, Control_c, 0, 64, 118
2, 103287, Note_on_c, 0, 52, 0
2, 103296, Control_c, 0, 64, 117
2, 103315, Control_c, 0, 64, 115
2, 103334, Control_c, 0, 64, 110
2, 103354, Control_c, 0, 64, 104
2, 103373, Control_c, 0, 64, 96
2, 103374, Note_on_c, 0, 51, 45
2, 103375, Note_on_c, 0, 54, 52
2, 103376, Note_on_c, 0, 73, 80
2, 103392, Control_c, 0, 64, 89
2, 103411, Control_c, 0, 64, 81
2, 103418, Note_on_c, 0, 56, 0
2, 103431, Control_c, 0, 64, 74
2, 103449, Control_c, 0, 64, 69
2, 103469, Control_c, 0, 64, 66
2, 103488, Control_c, 0, 64, 64
2, 103508, Control_c, 0, 64, 62
2, 103526, Control_c, 0, 64, 60
2, 103546, Control_c, 0, 64, 58
2, 103565, Control_c, 0, 64, 55
2, 103585, Control_c, 0, 64, 51
2, 103603, Control_c, 0, 64, 47
2, 103623, Control_c, 0, 64, 40
2, 103639, Control_c, 0, 64, 27
2, 103658, Control_c, 0, 64, 0
2, 103708, Note_on_c, 0, 72, 77
2, 103757, Note_on_c, 0, 73, 0
2, 104041, Note_on_c, 0, 51, 0
2, 104043, Note_on_c, 0, 56, 61
2, 104044, Note_on_c, 0, 50, 55
2, 104057, Note_on_c, 0, 54, 0
2, 104298, Control_c, 0, 64, 31
2, 104318, Control_c, 0, 64, 43
2, 104337, Control_c, 0, 64, 48
2, 104356, Control_c, 0, 64, 51
2, 104375, Control_c, 0, 64, 53
2, 104395, Control_c, 0, 64, 56
2, 104413, Control_c, 0, 64, 58
2, 104432, Control_c, 0, 64, 60
2, 104451, Note_on_c, 0, 78, 82
2, 104452, Control_c, 0, 64, 62
2, 104471, Control_c, 0, 64, 64
2, 104490, Control_c, 0, 64, 67
2, 104494, Note_on_c, 0, 72, 0
2, 104509, Control_c, 0, 64, 71
2, 104529, Control_c, 0, 64, 81
2, 104547, Control_c, 0, 64, 96
2, 104567, Control_c, 0, 64, 127
2, 104577, Note_on_c, 0, 78, 0
2, 104862, Note_on_c, 0, 56, 0
2, 104926, Note_on_c, 0, 50, 0
2, 104969, Control_c, 0, 64, 116
2, 104983, Note_on_c, 0, 78, 84
2, 104988, Control_c, 0, 64, 95
2, 104993, Note_on_c, 0, 73, 72
2, 104996, Note_on_c, 0, 57, 51
2, 105008, Control_c, 0, 64, 83
2, 105013, Note_on_c, 0, 49, 48
2, 105027, Control_c, 0, 64, 74
2, 105046, Control_c, 0, 64, 68
2, 105065, Control_c, 0, 64, 63
2, 105085, Control_c, 0, 64, 58
2, 105103, Control_c, 0, 64, 55
2, 105123, Control_c, 0, 64, 53
2, 105142, Control_c, 0, 64, 51
2, 105162, Control_c, 0, 64, 49
2, 105180, Control_c, 0, 64, 47
2, 105200, Control_c, 0, 64, 45
2, 105219, Control_c, 0, 64, 45
2, 105277, Control_c, 0, 64, 45
2, 105296, Control_c, 0, 64, 47
2, 105315, Control_c, 0, 64, 50
2, 105334, Control_c, 0, 64, 54
2, 105353, Control_c, 0, 64, 57
2, 105372, Control_c, 0, 64, 60
2, 105391, Control_c, 0, 64, 62
2, 105411, Control_c, 0, 64, 64
2, 105430, Control_c, 0, 64, 65
2, 105449, Control_c, 0, 64, 66
2, 105468, Control_c, 0, 64, 68
2, 105488, Control_c, 0, 64, 70
2, 105507, Control_c, 0, 64, 73
2, 105526, Control_c, 0, 64, 77
2, 105545, Control_c, 0, 64, 81
2, 105563, Control_c, 0, 64, 85
2, 105581, Control_c, 0, 64, 88
2, 105600, Control_c, 0, 64, 91
2, 105619, Control_c, 0, 64, 93
2, 105639, Control_c, 0, 64, 93
2, 105950, Control_c, 0, 64, 93
2, 105989, Control_c, 0, 64, 92
2, 106008, Control_c, 0, 64, 91
2, 106027, Control_c, 0, 64, 91
2, 106047, Control_c, 0, 64, 89
2, 106065, Control_c, 0, 64, 87
2, 106084, Control_c, 0, 64, 86
2, 106104, Control_c, 0, 64, 84
2, 106123, Control_c, 0, 64, 82
2, 106142, Control_c, 0, 64, 80
2, 106161, Control_c, 0, 64, 78
2, 106181, Control_c, 0, 64, 75
2, 106200, Control_c, 0, 64, 73
2, 106219, Control_c, 0, 64, 72
2, 106238, Control_c, 0, 64, 71
2, 106239, Note_on_c, 0, 77, 54
2, 106244, Note_on_c, 0, 56, 31
2, 106258, Control_c, 0, 64, 70
2, 106276, Control_c, 0, 64, 69
2, 106296, Control_c, 0, 64, 68
2, 106315, Control_c, 0, 64, 65
2, 106320, Note_on_c, 0, 57, 0
2, 106328, Note_on_c, 0, 78, 0
2, 106335, Control_c, 0, 64, 63
2, 106353, Control_c, 0, 64, 62
2, 106373, Control_c, 0, 64, 59
2, 106392, Control_c, 0, 64, 57
2, 106411, Control_c, 0, 64, 55
2, 106430, Control_c, 0, 64, 52
2, 106450, Control_c, 0, 64, 49
2, 106469, Control_c, 0, 64, 46
2, 106488, Control_c, 0, 64, 43
2, 106507, Control_c, 0, 64, 40
2, 106525, Control_c, 0, 64, 39
2, 106545, Control_c, 0, 64, 38
2, 106602, Control_c, 0, 64, 38
2, 106621, Control_c, 0, 64, 41
2, 106640, Control_c, 0, 64, 45
2, 106660, Control_c, 0, 64, 49
2, 106679, Control_c, 0, 64, 52
2, 106698, Control_c, 0, 64, 55
2, 106718, Control_c, 0, 64, 57
2, 106738, Control_c, 0, 64, 59
2, 106756, Control_c, 0, 64, 60
2, 106776, Control_c, 0, 64, 61
2, 106795, Control_c, 0, 64, 62
2, 106815, Control_c, 0, 64, 63
2, 106833, Control_c, 0, 64, 64
2, 106853, Control_c, 0, 64, 65
2, 106872, Control_c, 0, 64, 66
2, 106891, Control_c, 0, 64, 68
2, 106910, Control_c, 0, 64, 69
2, 106930, Control_c, 0, 64, 71
2, 106949, Control_c, 0, 64, 73
2, 106968, Control_c, 0, 64, 76
2, 106987, Control_c, 0, 64, 78
2, 107007, Control_c, 0, 64, 82
2, 107025, Control_c, 0, 64, 85
2, 107044, Control_c, 0, 64, 87
2, 107064, Control_c, 0, 64, 90
2, 107083, Control_c, 0, 64, 93
2, 107102, Control_c, 0, 64, 97
2, 107121, Control_c, 0, 64, 103
2, 107141, Control_c, 0, 64, 119
2, 107160, Control_c, 0, 64, 127
2, 107247, Note_on_c, 0, 56, 0
2, 107258, Note_on_c, 0, 49, 0
2, 107295, Note_on_c, 0, 73, 0
2, 107295, Note_on_c, 0, 77, 0
2, 107871, Control_c, 0, 64, 104
2, 107891, Control_c, 0, 64, 93
2, 107910, Control_c, 0, 64, 85
2, 107929, Control_c, 0, 64, 81
2, 107948, Control_c, 0, 64, 78
2, 107968, Control_c, 0, 64, 76
2, 107986, Control_c, 0, 64, 74
2, 108005, Control_c, 0, 64, 72
2, 108025, Control_c, 0, 64, 70
2, 108044, Control_c, 0, 64, 68
2, 108063, Control_c, 0, 64, 66
2, 108082, Control_c, 0, 64, 65
2, 108102, Control_c, 0, 64, 64
2, 108120, Control_c, 0, 64, 64
2, 108140, Control_c, 0, 64, 63
2, 108159, Control_c, 0, 64, 63
2, 108179, Control_c, 0, 64, 62
2, 108197, Control_c, 0, 64, 61
2, 108217, Control_c, 0, 64, 60
2, 108236, Control_c, 0, 64, 59
2, 108255, Control_c, 0, 64, 57
2, 108274, Control_c, 0, 64, 56
2, 108294, Control_c, 0, 64, 55
2, 108313, Control_c, 0, 64, 54
2, 108332, Control_c, 0, 64, 52
2, 108351, Control_c, 0, 64, 50
2, 108371, Control_c, 0, 64, 48
2, 108390, Control_c, 0, 64, 47
2, 108409, Control_c, 0, 64, 47
2, 108428, Control_c, 0, 64, 46
2, 108448, Control_c, 0, 64, 44
2, 108466, Control_c, 0, 64, 42
2, 108485, Control_c, 0, 64, 40
2, 108505, Control_c, 0, 64, 38
2, 108524, Control_c, 0, 64, 36
2, 108543, Control_c, 0, 64, 35
2, 108562, Control_c, 0, 64, 33
2, 108582, Control_c, 0, 64, 31
2, 108600, Control_c, 0, 64, 29
2, 108620, Control_c, 0, 64, 27
2, 108638, Control_c, 0, 64, 27
2, 108658, Control_c, 0, 64, 26
2, 108676, Control_c, 0, 64, 25
2, 108773, Control_c, 0, 64, 24
2, 109030, Note_on_c, 0, 47, 16
2, 109215, Note_on_c, 0, 49, 44
2, 109254, Note_on_c, 0, 47, 0
2, 109415, Note_on_c, 0, 50, 53
2, 109442, Note_on_c, 0, 49, 0
2, 109464, Control_c, 0, 64, 23
2, 109596, Note_on_c, 0, 49, 50
2, 109598, Note_on_c, 0, 50, 0
2, 109657, Control_c, 0, 64, 22
2, 109791, Note_on_c, 0, 49, 0
2, 109800, Note_on_c, 0, 47, 50
2, 109969, Note_on_c, 0, 47, 0
2, 110002, Note_on_c, 0, 45, 41
2, 110204, Note_on_c, 0, 45, 0
2, 110233, Note_on_c, 0, 47, 36
2, 110445, Note_on_c, 0, 45, 25
2, 110458, Note_on_c, 0, 47, 0
2, 110714, Note_on_c, 0, 44, 24
2, 110729, Note_on_c, 0, 45, 0
2, 110923, Control_c, 0, 64, 21
2, 111036, Control_c, 0, 64, 20
2, 111102, Note_on_c, 0, 78, 63
2, 111127, Note_on_c, 0, 42, 34
2, 111153, Note_on_c, 0, 44, 0
2, 111170, Control_c, 0, 64, 19
2, 111304, Control_c, 0, 64, 20
2, 111324, Control_c, 0, 64, 26
2, 111342, Control_c, 0, 64, 37
2, 111361, Control_c, 0, 64, 51
2, 111380, Control_c, 0, 64, 59
2, 111400, Control_c, 0, 64, 63
2, 111418, Control_c, 0, 64, 66
2, 111438, Control_c, 0, 64, 71
2, 111457, Control_c, 0, 64, 80
2, 111468, Note_on_c, 0, 42, 0
2, 111477, Control_c, 0, 64, 94
2, 111495, Control_c, 0, 64, 116
2, 111517, Control_c, 0, 64, 127
2, 111843, Control_c, 0, 64, 121
2, 111862, Control_c, 0, 64, 116
2, 111882, Control_c, 0, 64, 110
2, 111900, Control_c, 0, 64, 105
2, 111920, Control_c, 0, 64, 100
2, 111936, Note_on_c, 0, 73, 53
2, 111939, Control_c, 0, 64, 93
2, 111958, Control_c, 0, 64, 85
2, 111962, Note_on_c, 0, 54, 34
2, 111962, Note_on_c, 0, 57, 30
2, 111977, Control_c, 0, 64, 79
2, 111997, Control_c, 0, 64, 74
2, 112012, Note_on_c, 0, 78, 0
2, 112016, Control_c, 0, 64, 70
2, 112034, Control_c, 0, 64, 67
2, 112054, Control_c, 0, 64, 64
2, 112073, Control_c, 0, 64, 62
2, 112092, Control_c, 0, 64, 58
2, 112111, Control_c, 0, 64, 56
2, 112131, Control_c, 0, 64, 55
2, 112150, Control_c, 0, 64, 54
2, 112227, Control_c, 0, 64, 55
2, 112246, Control_c, 0, 64, 57
2, 112265, Control_c, 0, 64, 60
2, 112283, Control_c, 0, 64, 62
2, 112302, Control_c, 0, 64, 64
2, 112322, Control_c, 0, 64, 65
2, 112341, Control_c, 0, 64, 67
2, 112361, Control_c, 0, 64, 69
2, 112379, Control_c, 0, 64, 71
2, 112399, Control_c, 0, 64, 73
2, 112418, Control_c, 0, 64, 74
2, 112438, Control_c, 0, 64, 75
2, 112456, Control_c, 0, 64, 75
2, 112476, Control_c, 0, 64, 76
2, 112513, Control_c, 0, 64, 75
2, 112572, Control_c, 0, 64, 75
2, 112590, Control_c, 0, 64, 74
2, 112593, Note_on_c, 0, 57, 0
2, 112605, Note_on_c, 0, 61, 41
2, 112610, Control_c, 0, 64, 73
2, 112629, Control_c, 0, 64, 72
2, 112648, Control_c, 0, 64, 70
2, 112667, Control_c, 0, 64, 67
2, 112687, Control_c, 0, 64, 65
2, 112706, Control_c, 0, 64, 63
2, 112725, Control_c, 0, 64, 62
2, 112744, Control_c, 0, 64, 60
2, 112764, Control_c, 0, 64, 58
2, 112782, Control_c, 0, 64, 57
2, 112802, Control_c, 0, 64, 56
2, 112841, Control_c, 0, 64, 57
2, 112859, Control_c, 0, 64, 59
2, 112879, Control_c, 0, 64, 61
2, 112898, Control_c, 0, 64, 63
2, 112918, Control_c, 0, 64, 64
2, 112936, Control_c, 0, 64, 66
2, 112955, Control_c, 0, 64, 67
2, 112975, Control_c, 0, 64, 68
2, 112993, Control_c, 0, 64, 69
2, 113013, Control_c, 0, 64, 70
2, 113032, Control_c, 0, 64, 70
2, 113147, Control_c, 0, 64, 70
2, 113167, Control_c, 0, 64, 69
2, 113186, Control_c, 0, 64, 69
2, 113205, Control_c, 0, 64, 67
2, 113212, Note_on_c, 0, 69, 54
2, 113224, Control_c, 0, 64, 66
2, 113225, Note_on_c, 0, 66, 32
2, 113241, Control_c, 0, 64, 65
2, 113253, Note_on_c, 0, 73, 0
2, 113260, Control_c, 0, 64, 64
2, 113279, Control_c, 0, 64, 63
2, 113298, Control_c, 0, 64, 62
2, 113308, Note_on_c, 0, 61, 0
2, 113318, Control_c, 0, 64, 62
2, 113337, Control_c, 0, 64, 61
2, 113355, Control_c, 0, 64, 60
2, 113375, Control_c, 0, 64, 59
2, 113394, Control_c, 0, 64, 57
2, 113413, Control_c, 0, 64, 56
2, 113437, Control_c, 0, 64, 54
2, 113456, Control_c, 0, 64, 53
2, 113474, Control_c, 0, 64, 51
2, 113494, Control_c, 0, 64, 50
2, 113497, Note_on_c, 0, 71, 63
2, 113513, Control_c, 0, 64, 49
2, 113523, Note_on_c, 0, 56, 34
2, 113532, Control_c, 0, 64, 47
2, 113549, Note_on_c, 0, 69, 0
2, 113551, Control_c, 0, 64, 45
2, 113559, Note_on_c, 0, 54, 0
2, 113571, Control_c, 0, 64, 44
2, 113590, Control_c, 0, 64, 42
2, 113609, Control_c, 0, 64, 41
2, 113628, Control_c, 0, 64, 40
2, 113648, Control_c, 0, 64, 40
2, 113667, Control_c, 0, 64, 39
2, 113725, Control_c, 0, 64, 38
2, 113840, Note_on_c, 0, 73, 57
2, 113845, Note_on_c, 0, 71, 0
2, 113847, Note_on_c, 0, 56, 0
2, 113847, Note_on_c, 0, 57, 30
2, 113878, Control_c, 0, 64, 39
2, 113897, Control_c, 0, 64, 40
2, 113917, Control_c, 0, 64, 42
2, 113936, Control_c, 0, 64, 44
2, 113954, Control_c, 0, 64, 47
2, 113974, Control_c, 0, 64, 51
2, 113993, Control_c, 0, 64, 55
2, 114012, Control_c, 0, 64, 59
2, 114031, Control_c, 0, 64, 62
2, 114043, Note_on_c, 0, 73, 0
2, 114051, Control_c, 0, 64, 64
2, 114054, Note_on_c, 0, 71, 55
2, 114070, Control_c, 0, 64, 65
2, 114089, Control_c, 0, 64, 67
2, 114108, Control_c, 0, 64, 69
2, 114127, Note_on_c, 0, 66, 0
2, 114128, Control_c, 0, 64, 73
2, 114147, Control_c, 0, 64, 79
2, 114148, Note_on_c, 0, 57, 0
2, 114166, Control_c, 0, 64, 87
2, 114185, Control_c, 0, 64, 91
2, 114204, Control_c, 0, 64, 91
2, 114208, Note_on_c, 0, 71, 0
2, 114238, Note_on_c, 0, 69, 55
2, 114261, Control_c, 0, 64, 91
2, 114299, Control_c, 0, 64, 90
2, 114319, Control_c, 0, 64, 89
2, 114338, Control_c, 0, 64, 87
2, 114358, Control_c, 0, 64, 85
2, 114376, Control_c, 0, 64, 82
2, 114398, Control_c, 0, 64, 78
2, 114417, Control_c, 0, 64, 73
2, 114422, Note_on_c, 0, 69, 0
2, 114427, Note_on_c, 0, 65, 30
2, 114435, Control_c, 0, 64, 69
2, 114440, Note_on_c, 0, 61, 34
2, 114455, Control_c, 0, 64, 66
2, 114456, Note_on_c, 0, 71, 43
2, 114474, Control_c, 0, 64, 64
2, 114493, Control_c, 0, 64, 62
2, 114512, Control_c, 0, 64, 59
2, 114532, Control_c, 0, 64, 55
2, 114551, Control_c, 0, 64, 51
2, 114570, Control_c, 0, 64, 46
2, 114589, Control_c, 0, 64, 44
2, 114609, Control_c, 0, 64, 43
2, 114615, Note_on_c, 0, 71, 0
2, 114631, Note_on_c, 0, 69, 44
2, 114666, Control_c, 0, 64, 44
2, 114686, Control_c, 0, 64, 44
2, 114704, Control_c, 0, 64, 46
2, 114724, Control_c, 0, 64, 48
2, 114743, Control_c, 0, 64, 52
2, 114763, Control_c, 0, 64, 56
2, 114781, Control_c, 0, 64, 59
2, 114801, Control_c, 0, 64, 62
2, 114814, Note_on_c, 0, 69, 0
2, 114820, Control_c, 0, 64, 63
2, 114839, Control_c, 0, 64, 65
2, 114852, Note_on_c, 0, 65, 0
2, 114858, Control_c, 0, 64, 66
2, 114862, Note_on_c, 0, 68, 40
2, 114878, Control_c, 0, 64, 68
2, 114897, Control_c, 0, 64, 69
2, 114915, Control_c, 0, 64, 71
2, 114935, Control_c, 0, 64, 72
2, 114954, Control_c, 0, 64, 72
2, 115002, Note_on_c, 0, 61, 0
2, 115127, Control_c, 0, 64, 72
2, 115166, Note_on_c, 0, 66, 51
2, 115182, Control_c, 0, 64, 71
2, 115202, Control_c, 0, 64, 71
2, 115212, Note_on_c, 0, 68, 0
2, 115221, Control_c, 0, 64, 70
2, 115226, Note_on_c, 0, 69, 35
2, 115241, Control_c, 0, 64, 70
2, 115242, Note_on_c, 0, 54, 29
2, 115259, Control_c, 0, 64, 69
2, 115279, Control_c, 0, 64, 68
2, 115298, Control_c, 0, 64, 68
2, 115318, Control_c, 0, 64, 66
2, 115336, Control_c, 0, 64, 65
2, 115355, Control_c, 0, 64, 64
2, 115375, Control_c, 0, 64, 63
2, 115393, Control_c, 0, 64, 63
2, 115413, Control_c, 0, 64, 62
2, 115432, Control_c, 0, 64, 60
2, 115452, Control_c, 0, 64, 57
2, 115470, Control_c, 0, 64, 53
2, 115490, Control_c, 0, 64, 50
2, 115509, Control_c, 0, 64, 49
2, 115528, Control_c, 0, 64, 49
2, 115547, Control_c, 0, 64, 48
2, 115566, Note_on_c, 0, 69, 0
2, 115569, Note_on_c, 0, 71, 32
2, 115586, Control_c, 0, 64, 50
2, 115605, Control_c, 0, 64, 53
2, 115624, Control_c, 0, 64, 57
2, 115644, Control_c, 0, 64, 61
2, 115662, Control_c, 0, 64, 63
2, 115682, Control_c, 0, 64, 64
2, 115701, Control_c, 0, 64, 65
2, 115721, Control_c, 0, 64, 66
2, 115739, Control_c, 0, 64, 67
2, 115759, Control_c, 0, 64, 68
2, 115778, Control_c, 0, 64, 69
2, 115798, Control_c, 0, 64, 70
2, 115816, Control_c, 0, 64, 71
2, 115915, Note_on_c, 0, 61, 42
2, 115915, Note_on_c, 0, 69, 31
2, 115921, Note_on_c, 0, 71, 0
2, 115950, Control_c, 0, 64, 70
2, 115989, Control_c, 0, 64, 70
2, 115998, Note_on_c, 0, 66, 0
2, 116008, Control_c, 0, 64, 69
2, 116027, Control_c, 0, 64, 68
2, 116047, Control_c, 0, 64, 67
2, 116066, Control_c, 0, 64, 66
2, 116085, Control_c, 0, 64, 65
2, 116104, Control_c, 0, 64, 63
2, 116124, Control_c, 0, 64, 62
2, 116142, Control_c, 0, 64, 62
2, 116162, Control_c, 0, 64, 61
2, 116181, Control_c, 0, 64, 59
2, 116201, Control_c, 0, 64, 57
2, 116201, Note_on_c, 0, 68, 51
2, 116219, Control_c, 0, 64, 55
2, 116220, Note_on_c, 0, 69, 0
2, 116239, Control_c, 0, 64, 53
2, 116258, Control_c, 0, 64, 52
2, 116278, Control_c, 0, 64, 52
2, 116412, Control_c, 0, 64, 53
2, 116430, Control_c, 0, 64, 54
2, 116450, Control_c, 0, 64, 55
2, 116469, Control_c, 0, 64, 56
2, 116488, Control_c, 0, 64, 58
2, 116493, Note_on_c, 0, 69, 62
2, 116507, Control_c, 0, 64, 59
2, 116508, Note_on_c, 0, 68, 0
2, 116527, Control_c, 0, 64, 60
2, 116546, Control_c, 0, 64, 61
2, 116565, Control_c, 0, 64, 61
2, 116604, Control_c, 0, 64, 62
2, 116642, Control_c, 0, 64, 62
2, 116772, Note_on_c, 0, 73, 65
2, 116778, Note_on_c, 0, 69, 0
2, 116949, Control_c, 0, 64, 62
2, 117007, Control_c, 0, 64, 61
2, 117026, Control_c, 0, 64, 60
2, 117045, Control_c, 0, 64, 58
2, 117052, Note_on_c, 0, 57, 34
2, 117059, Note_on_c, 0, 78, 68
2, 117064, Control_c, 0, 64, 56
2, 117084, Control_c, 0, 64, 54
2, 117089, Note_on_c, 0, 61, 0
2, 117102, Control_c, 0, 64, 52
2, 117118, Note_on_c, 0, 73, 0
2, 117122, Control_c, 0, 64, 52
2, 117179, Control_c, 0, 64, 54
2, 117199, Control_c, 0, 64, 57
2, 117218, Control_c, 0, 64, 59
2, 117238, Control_c, 0, 64, 60
2, 117256, Control_c, 0, 64, 62
2, 117275, Control_c, 0, 64, 63
2, 117295, Control_c, 0, 64, 63
2, 117313, Control_c, 0, 64, 64
2, 117327, Note_on_c, 0, 80, 72
2, 117333, Control_c, 0, 64, 65
2, 117338, Note_on_c, 0, 57, 0
2, 117349, Note_on_c, 0, 59, 53
2, 117352, Control_c, 0, 64, 65
2, 117372, Control_c, 0, 64, 66
2, 117372, Note_on_c, 0, 78, 0
2, 117390, Control_c, 0, 64, 66
2, 117544, Control_c, 0, 64, 66
2, 117582, Control_c, 0, 64, 65
2, 117602, Control_c, 0, 64, 64
2, 117621, Control_c, 0, 64, 64
2, 117628, Note_on_c, 0, 61, 40
2, 117637, Note_on_c, 0, 59, 0
2, 117641, Control_c, 0, 64, 62
2, 117654, Note_on_c, 0, 81, 63
2, 117657, Note_on_c, 0, 80, 0
2, 117659, Control_c, 0, 64, 61
2, 117679, Control_c, 0, 64, 58
2, 117698, Control_c, 0, 64, 56
2, 117718, Control_c, 0, 64, 55
2, 117736, Control_c, 0, 64, 54
2, 117793, Control_c, 0, 64, 56
2, 117813, Control_c, 0, 64, 57
2, 117832, Control_c, 0, 64, 60
2, 117836, Note_on_c, 0, 80, 69
2, 117847, Note_on_c, 0, 61, 0
2, 117852, Control_c, 0, 64, 61
2, 117870, Control_c, 0, 64, 62
2, 117874, Note_on_c, 0, 59, 46
2, 117878, Note_on_c, 0, 81, 0
2, 117890, Control_c, 0, 64, 63
2, 117928, Control_c, 0, 64, 64
2, 117947, Control_c, 0, 64, 64
2, 117995, Note_on_c, 0, 59, 0
2, 118013, Note_on_c, 0, 78, 67
2, 118025, Note_on_c, 0, 57, 52
2, 118038, Note_on_c, 0, 80, 0
2, 118119, Control_c, 0, 64, 64
2, 118139, Note_on_c, 0, 57, 0
2, 118176, Control_c, 0, 64, 63
2, 118191, Note_on_c, 0, 59, 43
2, 118202, Note_on_c, 0, 80, 66
2, 118209, Note_on_c, 0, 78, 0
2, 118214, Control_c, 0, 64, 63
2, 118254, Control_c, 0, 64, 62
2, 118272, Control_c, 0, 64, 62
2, 118292, Control_c, 0, 64, 61
2, 118311, Control_c, 0, 64, 61
2, 118331, Control_c, 0, 64, 60
2, 118334, Note_on_c, 0, 59, 0
2, 118349, Control_c, 0, 64, 60
2, 118369, Control_c, 0, 64, 59
2, 118379, Note_on_c, 0, 57, 18
2, 118380, Note_on_c, 0, 78, 59
2, 118404, Note_on_c, 0, 80, 0
2, 118407, Control_c, 0, 64, 59
2, 118426, Control_c, 0, 64, 58
2, 118465, Control_c, 0, 64, 58
2, 118484, Control_c, 0, 64, 57
2, 118503, Control_c, 0, 64, 57
2, 118523, Control_c, 0, 64, 56
2, 118526, Note_on_c, 0, 57, 0
2, 118561, Control_c, 0, 64, 56
2, 118582, Note_on_c, 0, 56, 26
2, 118584, Note_on_c, 0, 77, 54
2, 118603, Note_on_c, 0, 78, 0
2, 118618, Control_c, 0, 64, 55
2, 118657, Control_c, 0, 64, 55
2, 118695, Control_c, 0, 64, 54
2, 118734, Control_c, 0, 64, 54
2, 118772, Control_c, 0, 64, 53
2, 118811, Control_c, 0, 64, 53
2, 118829, Control_c, 0, 64, 52
2, 118888, Note_on_c, 0, 78, 53
2, 118896, Note_on_c, 0, 57, 19
2, 118910, Note_on_c, 0, 77, 0
2, 118922, Note_on_c, 0, 56, 0
2, 118926, Control_c, 0, 64, 52
2, 118983, Control_c, 0, 64, 51
2, 119079, Control_c, 0, 64, 51
2, 119136, Control_c, 0, 64, 50
2, 119218, Note_on_c, 0, 73, 42
2, 119236, Note_on_c, 0, 78, 0
2, 119270, Control_c, 0, 64, 50
2, 119481, Note_on_c, 0, 54, 0
2, 119482, Control_c, 0, 64, 50
2, 119493, Note_on_c, 0, 57, 0
2, 119501, Control_c, 0, 64, 51
2, 119520, Control_c, 0, 64, 52
2, 119529, Note_on_c, 0, 59, 28
2, 119539, Control_c, 0, 64, 53
2, 119545, Note_on_c, 0, 56, 18
2, 119559, Control_c, 0, 64, 55
2, 119577, Control_c, 0, 64, 56
2, 119596, Control_c, 0, 64, 59
2, 119616, Control_c, 0, 64, 61
2, 119635, Control_c, 0, 64, 63
2, 119654, Control_c, 0, 64, 66
2, 119673, Control_c, 0, 64, 70
2, 119693, Control_c, 0, 64, 76
2, 119712, Control_c, 0, 64, 88
2, 119731, Control_c, 0, 64, 107
2, 119750, Control_c, 0, 64, 127
2, 119815, Note_on_c, 0, 56, 0
2, 119833, Note_on_c, 0, 77, 53
2, 119872, Note_on_c, 0, 73, 0
2, 119925, Note_on_c, 0, 59, 0
2, 120133, Control_c, 0, 64, 110
2, 120142, Note_on_c, 0, 78, 52
2, 120153, Note_on_c, 0, 77, 0
2, 120154, Control_c, 0, 64, 95
2, 120174, Control_c, 0, 64, 84
2, 120176, Note_on_c, 0, 57, 30
2, 120190, Note_on_c, 0, 61, 29
2, 120192, Control_c, 0, 64, 75
2, 120212, Control_c, 0, 64, 68
2, 120231, Control_c, 0, 64, 64
2, 120251, Control_c, 0, 64, 60
2, 120269, Control_c, 0, 64, 58
2, 120289, Control_c, 0, 64, 57
2, 120366, Control_c, 0, 64, 59
2, 120385, Control_c, 0, 64, 61
2, 120404, Control_c, 0, 64, 63
2, 120423, Control_c, 0, 64, 65
2, 120428, Note_on_c, 0, 78, 0
2, 120443, Control_c, 0, 64, 67
2, 120462, Control_c, 0, 64, 70
2, 120474, Note_on_c, 0, 61, 0
2, 120475, Note_on_c, 0, 73, 44
2, 120481, Control_c, 0, 64, 75
2, 120500, Control_c, 0, 64, 79
2, 120520, Control_c, 0, 64, 82
2, 120522, Note_on_c, 0, 57, 0
2, 120538, Control_c, 0, 64, 84
2, 120558, Control_c, 0, 64, 85
2, 120711, Control_c, 0, 64, 84
2, 120731, Control_c, 0, 64, 84
2, 120749, Control_c, 0, 64, 83
2, 120769, Control_c, 0, 64, 81
2, 120785, Note_on_c, 0, 59, 45
2, 120788, Control_c, 0, 64, 79
2, 120808, Control_c, 0, 64, 76
2, 120816, Note_on_c, 0, 56, 28
2, 120826, Control_c, 0, 64, 72
2, 120846, Control_c, 0, 64, 67
2, 120865, Control_c, 0, 64, 63
2, 120884, Control_c, 0, 64, 61
2, 120903, Control_c, 0, 64, 60
2, 120942, Control_c, 0, 64, 61
2, 120962, Control_c, 0, 64, 62
2, 120981, Control_c, 0, 64, 64
2, 121001, Control_c, 0, 64, 67
2, 121019, Control_c, 0, 64, 72
2, 121039, Control_c, 0, 64, 82
2, 121058, Control_c, 0, 64, 95
2, 121078, Control_c, 0, 64, 117
2, 121089, Note_on_c, 0, 77, 65
2, 121096, Control_c, 0, 64, 127
2, 121133, Note_on_c, 0, 73, 0
2, 121206, Note_on_c, 0, 59, 0
2, 121279, Note_on_c, 0, 56, 0
2, 121404, Control_c, 0, 64, 100
2, 121404, Note_on_c, 0, 78, 71
2, 121412, Note_on_c, 0, 57, 34
2, 121418, Note_on_c, 0, 54, 40
2, 121422, Control_c, 0, 64, 84
2, 121432, Note_on_c, 0, 77, 0
2, 121442, Control_c, 0, 64, 72
2, 121461, Control_c, 0, 64, 65
2, 121481, Control_c, 0, 64, 60
2, 121499, Control_c, 0, 64, 58
2, 121519, Control_c, 0, 64, 57
2, 121538, Control_c, 0, 64, 57
2, 121558, Control_c, 0, 64, 57
2, 121576, Control_c, 0, 64, 59
2, 121595, Control_c, 0, 64, 62
2, 121615, Control_c, 0, 64, 64
2, 121633, Control_c, 0, 64, 67
2, 121653, Control_c, 0, 64, 70
2, 121672, Control_c, 0, 64, 76
2, 121692, Control_c, 0, 64, 82
2, 121708, Note_on_c, 0, 74, 65
2, 121709, Note_on_c, 0, 57, 0
2, 121710, Control_c, 0, 64, 89
2, 121730, Control_c, 0, 64, 94
2, 121740, Note_on_c, 0, 78, 0
2, 121749, Control_c, 0, 64, 98
2, 121768, Control_c, 0, 64, 101
2, 121787, Control_c, 0, 64, 103
2, 121807, Control_c, 0, 64, 103
2, 121875, Note_on_c, 0, 54, 0
2, 121920, Control_c, 0, 64, 102
2, 121939, Control_c, 0, 64, 99
2, 121959, Control_c, 0, 64, 95
2, 121977, Control_c, 0, 64, 88
2, 121996, Control_c, 0, 64, 78
2, 122011, Note_on_c, 0, 74, 0
2, 122016, Control_c, 0, 64, 70
2, 122017, Note_on_c, 0, 73, 70
2, 122032, Note_on_c, 0, 52, 35
2, 122035, Control_c, 0, 64, 64
2, 122048, Note_on_c, 0, 55, 33
2, 122054, Control_c, 0, 64, 61
2, 122075, Control_c, 0, 64, 59
2, 122095, Control_c, 0, 64, 59
2, 122133, Control_c, 0, 64, 59
2, 122152, Control_c, 0, 64, 61
2, 122172, Control_c, 0, 64, 63
2, 122190, Control_c, 0, 64, 66
2, 122210, Control_c, 0, 64, 69
2, 122229, Control_c, 0, 64, 75
2, 122233, Note_on_c, 0, 52, 0
2, 122248, Control_c, 0, 64, 83
2, 122267, Control_c, 0, 64, 96
2, 122287, Control_c, 0, 64, 104
2, 122300, Note_on_c, 0, 55, 0
2, 122306, Control_c, 0, 64, 110
2, 122325, Control_c, 0, 64, 121
2, 122344, Control_c, 0, 64, 127
2, 122344, Note_on_c, 0, 82, 73
2, 122385, Note_on_c, 0, 73, 0
2, 122632, Control_c, 0, 64, 121
2, 122652, Control_c, 0, 64, 100
2, 122670, Control_c, 0, 64, 87
2, 122690, Control_c, 0, 64, 77
2, 122694, Note_on_c, 0, 83, 70
2, 122698, Note_on_c, 0, 54, 40
2, 122709, Control_c, 0, 64, 70
2, 122713, Note_on_c, 0, 50, 35
2, 122728, Control_c, 0, 64, 66
2, 122735, Note_on_c, 0, 82, 0
2, 122747, Control_c, 0, 64, 63
2, 122767, Control_c, 0, 64, 61
2, 122786, Control_c, 0, 64, 59
2, 122879, Control_c, 0, 64, 60
2, 122898, Control_c, 0, 64, 62
2, 122918, Control_c, 0, 64, 63
2, 122937, Control_c, 0, 64, 65
2, 122955, Control_c, 0, 64, 68
2, 122975, Control_c, 0, 64, 73
2, 122994, Control_c, 0, 64, 81
2, 123013, Control_c, 0, 64, 90
2, 123035, Control_c, 0, 64, 97
2, 123043, Note_on_c, 0, 78, 52
2, 123055, Control_c, 0, 64, 103
2, 123067, Note_on_c, 0, 54, 0
2, 123073, Control_c, 0, 64, 108
2, 123076, Note_on_c, 0, 83, 0
2, 123093, Control_c, 0, 64, 116
2, 123097, Note_on_c, 0, 50, 0
2, 123112, Control_c, 0, 64, 119
2, 123208, Control_c, 0, 64, 118
2, 123227, Control_c, 0, 64, 116
2, 123247, Control_c, 0, 64, 109
2, 123266, Control_c, 0, 64, 102
2, 123285, Control_c, 0, 64, 92
2, 123304, Control_c, 0, 64, 82
2, 123324, Control_c, 0, 64, 72
2, 123340, Note_on_c, 0, 52, 38
2, 123342, Control_c, 0, 64, 66
2, 123343, Note_on_c, 0, 49, 39
2, 123362, Control_c, 0, 64, 62
2, 123381, Control_c, 0, 64, 60
2, 123401, Control_c, 0, 64, 59
2, 123439, Control_c, 0, 64, 61
2, 123458, Control_c, 0, 64, 63
2, 123477, Control_c, 0, 64, 65
2, 123496, Control_c, 0, 64, 68
2, 123515, Control_c, 0, 64, 74
2, 123535, Control_c, 0, 64, 81
2, 123553, Control_c, 0, 64, 87
2, 123573, Control_c, 0, 64, 91
2, 123592, Control_c, 0, 64, 96
2, 123612, Control_c, 0, 64, 102
2, 123630, Control_c, 0, 64, 112
2, 123639, Note_on_c, 0, 82, 73
2, 123650, Control_c, 0, 64, 127
2, 123656, Note_on_c, 0, 49, 0
2, 123689, Note_on_c, 0, 52, 0
2, 123696, Note_on_c, 0, 78, 0
2, 123917, Control_c, 0, 64, 98
2, 123937, Control_c, 0, 64, 85
2, 123956, Control_c, 0, 64, 76
2, 123959, Note_on_c, 0, 83, 66
2, 123963, Note_on_c, 0, 54, 42
2, 123964, Note_on_c, 0, 50, 40
2, 123975, Control_c, 0, 64, 71
2, 123993, Control_c, 0, 64, 67
2, 124004, Note_on_c, 0, 82, 0
2, 124013, Control_c, 0, 64, 64
2, 124032, Control_c, 0, 64, 62
2, 124051, Control_c, 0, 64, 60
2, 124070, Control_c, 0, 64, 61
2, 124090, Control_c, 0, 64, 62
2, 124108, Control_c, 0, 64, 63
2, 124128, Control_c, 0, 64, 64
2, 124147, Control_c, 0, 64, 66
2, 124167, Control_c, 0, 64, 68
2, 124185, Control_c, 0, 64, 71
2, 124205, Control_c, 0, 64, 76
2, 124224, Control_c, 0, 64, 80
2, 124243, Control_c, 0, 64, 84
2, 124257, Note_on_c, 0, 78, 73
2, 124262, Control_c, 0, 64, 89
2, 124268, Note_on_c, 0, 50, 0
2, 124273, Note_on_c, 0, 54, 0
2, 124282, Control_c, 0, 64, 93
2, 124301, Control_c, 0, 64, 99
2, 124320, Control_c, 0, 64, 104
2, 124321, Note_on_c, 0, 83, 0
2, 124339, Control_c, 0, 64, 108
2, 124359, Control_c, 0, 64, 109
2, 124377, Control_c, 0, 64, 110
2, 124396, Control_c, 0, 64, 110
2, 124416, Control_c, 0, 64, 111
2, 124454, Control_c, 0, 64, 110
2, 124473, Control_c, 0, 64, 107
2, 124493, Control_c, 0, 64, 102
2, 124512, Control_c, 0, 64, 96
2, 124531, Control_c, 0, 64, 89
2, 124550, Control_c, 0, 64, 81
2, 124561, Note_on_c, 0, 61, 50
2, 124570, Control_c, 0, 64, 74
2, 124578, Note_on_c, 0, 52, 43
2, 124588, Control_c, 0, 64, 68
2, 124608, Control_c, 0, 64, 64
2, 124627, Control_c, 0, 64, 63
2, 124647, Control_c, 0, 64, 62
2, 124665, Control_c, 0, 64, 61
2, 124723, Control_c, 0, 64, 63
2, 124742, Control_c, 0, 64, 65
2, 124761, Control_c, 0, 64, 67
2, 124779, Control_c, 0, 64, 69
2, 124797, Control_c, 0, 64, 73
2, 124817, Control_c, 0, 64, 78
2, 124836, Control_c, 0, 64, 83
2, 124850, Note_on_c, 0, 82, 78
2, 124856, Control_c, 0, 64, 87
2, 124874, Control_c, 0, 64, 91
2, 124894, Control_c, 0, 64, 95
2, 124905, Note_on_c, 0, 61, 0
2, 124913, Control_c, 0, 64, 96
2, 124919, Note_on_c, 0, 78, 0
2, 125012, Note_on_c, 0, 52, 0
2, 125088, Control_c, 0, 64, 96
2, 125107, Control_c, 0, 64, 95
2, 125127, Control_c, 0, 64, 94
2, 125145, Control_c, 0, 64, 91
2, 125148, Note_on_c, 0, 54, 38
2, 125165, Control_c, 0, 64, 87
2, 125165, Note_on_c, 0, 50, 36
2, 125184, Control_c, 0, 64, 82
2, 125203, Control_c, 0, 64, 76
2, 125220, Note_on_c, 0, 83, 74
2, 125222, Control_c, 0, 64, 71
2, 125242, Control_c, 0, 64, 66
2, 125259, Note_on_c, 0, 82, 0
2, 125261, Control_c, 0, 64, 63
2, 125280, Control_c, 0, 64, 61
2, 125299, Control_c, 0, 64, 58
2, 125319, Control_c, 0, 64, 57
2, 125376, Control_c, 0, 64, 58
2, 125395, Control_c, 0, 64, 59
2, 125414, Control_c, 0, 64, 61
2, 125428, Note_on_c, 0, 81, 77
2, 125433, Control_c, 0, 64, 63
2, 125453, Control_c, 0, 64, 65
2, 125462, Note_on_c, 0, 83, 0
2, 125472, Control_c, 0, 64, 67
2, 125491, Control_c, 0, 64, 71
2, 125510, Control_c, 0, 64, 76
2, 125530, Control_c, 0, 64, 81
2, 125548, Control_c, 0, 64, 85
2, 125568, Control_c, 0, 64, 90
2, 125587, Control_c, 0, 64, 94
2, 125607, Control_c, 0, 64, 96
2, 125608, Note_on_c, 0, 80, 74
2, 125625, Control_c, 0, 64, 96
2, 125636, Note_on_c, 0, 81, 0
2, 125722, Control_c, 0, 64, 96
2, 125742, Control_c, 0, 64, 94
2, 125761, Control_c, 0, 64, 90
2, 125780, Control_c, 0, 64, 85
2, 125800, Control_c, 0, 64, 79
2, 125807, Note_on_c, 0, 49, 43
2, 125814, Note_on_c, 0, 81, 65
2, 125818, Control_c, 0, 64, 72
2, 125823, Note_on_c, 0, 80, 0
2, 125829, Note_on_c, 0, 50, 0
2, 125837, Control_c, 0, 64, 66
2, 125857, Control_c, 0, 64, 63
2, 125876, Control_c, 0, 64, 61
2, 125895, Control_c, 0, 64, 60
2, 125973, Control_c, 0, 64, 60
2, 125992, Control_c, 0, 64, 62
2, 126012, Control_c, 0, 64, 63
2, 126030, Control_c, 0, 64, 65
2, 126031, Note_on_c, 0, 81, 0
2, 126041, Note_on_c, 0, 80, 58
2, 126050, Control_c, 0, 64, 67
2, 126069, Control_c, 0, 64, 71
2, 126088, Control_c, 0, 64, 75
2, 126107, Control_c, 0, 64, 81
2, 126127, Control_c, 0, 64, 85
2, 126146, Control_c, 0, 64, 87
2, 126165, Control_c, 0, 64, 89
2, 126184, Control_c, 0, 64, 89
2, 126202, Note_on_c, 0, 49, 0
2, 126206, Note_on_c, 0, 54, 0
2, 126242, Control_c, 0, 64, 90
2, 126282, Note_on_c, 0, 80, 0
2, 126289, Note_on_c, 0, 78, 54
2, 126319, Control_c, 0, 64, 89
2, 126453, Control_c, 0, 64, 89
2, 126492, Control_c, 0, 64, 88
2, 126510, Control_c, 0, 64, 88
2, 126530, Control_c, 0, 64, 87
2, 126549, Control_c, 0, 64, 86
2, 126568, Control_c, 0, 64, 85
2, 126587, Control_c, 0, 64, 84
2, 126607, Control_c, 0, 64, 81
2, 126626, Control_c, 0, 64, 78
2, 126645, Control_c, 0, 64, 76
2, 126664, Control_c, 0, 64, 73
2, 126675, Control_c, 0, 64, 70
2, 126677, Note_on_c, 0, 79, 46
2, 126679, Note_on_c, 0, 47, 32
2, 126680, Note_on_c, 0, 59, 31
2, 126695, Control_c, 0, 64, 68
2, 126699, Note_on_c, 0, 78, 0
2, 126714, Control_c, 0, 64, 66
2, 126733, Control_c, 0, 64, 64
2, 126752, Control_c, 0, 64, 62
2, 126772, Control_c, 0, 64, 60
2, 126791, Control_c, 0, 64, 57
2, 126810, Control_c, 0, 64, 54
2, 126829, Control_c, 0, 64, 52
2, 126849, Control_c, 0, 64, 51
2, 126874, Control_c, 0, 64, 50
2, 126932, Control_c, 0, 64, 53
2, 126951, Control_c, 0, 64, 59
2, 126971, Control_c, 0, 64, 63
2, 126989, Control_c, 0, 64, 65
2, 127009, Control_c, 0, 64, 68
2, 127012, Note_on_c, 0, 47, 0
2, 127028, Control_c, 0, 64, 72
2, 127048, Control_c, 0, 64, 78
2, 127066, Control_c, 0, 64, 82
2, 127086, Control_c, 0, 64, 85
2, 127105, Control_c, 0, 64, 87
2, 127123, Note_on_c, 0, 59, 0
2, 127124, Control_c, 0, 64, 87
2, 127143, Control_c, 0, 64, 88
2, 127162, Note_on_c, 0, 79, 0
2, 127164, Note_on_c, 0, 74, 38
2, 127201, Control_c, 0, 64, 88
2, 127297, Control_c, 0, 64, 88
2, 127354, Control_c, 0, 64, 87
2, 127374, Control_c, 0, 64, 87
2, 127392, Control_c, 0, 64, 86
2, 127412, Control_c, 0, 64, 85
2, 127431, Control_c, 0, 64, 83
2, 127451, Control_c, 0, 64, 80
2, 127469, Control_c, 0, 64, 78
2, 127489, Control_c, 0, 64, 74
2, 127508, Control_c, 0, 64, 70
2, 127528, Control_c, 0, 64, 66
2, 127530, Note_on_c, 0, 59, 23
2, 127531, Note_on_c, 0, 62, 27
2, 127546, Control_c, 0, 64, 63
2, 127566, Control_c, 0, 64, 61
2, 127585, Control_c, 0, 64, 59
2, 127604, Control_c, 0, 64, 57
2, 127623, Control_c, 0, 64, 55
2, 127639, Control_c, 0, 64, 54
2, 127715, Control_c, 0, 64, 56
2, 127735, Control_c, 0, 64, 59
2, 127753, Control_c, 0, 64, 62
2, 127773, Control_c, 0, 64, 64
2, 127792, Control_c, 0, 64, 66
2, 127812, Control_c, 0, 64, 69
2, 127834, Control_c, 0, 64, 72
2, 127853, Note_on_c, 0, 78, 53
2, 127854, Control_c, 0, 64, 75
2, 127858, Note_on_c, 0, 74, 0
2, 127872, Control_c, 0, 64, 76
2, 127892, Control_c, 0, 64, 77
2, 127892, Note_on_c, 0, 62, 0
2, 127894, Note_on_c, 0, 59, 0
2, 127949, Control_c, 0, 64, 77
2, 128008, Control_c, 0, 64, 78
2, 128084, Control_c, 0, 64, 77
2, 128123, Control_c, 0, 64, 76
2, 128142, Control_c, 0, 64, 75
2, 128161, Control_c, 0, 64, 73
2, 128174, Note_on_c, 0, 79, 54
2, 128180, Control_c, 0, 64, 70
2, 128195, Note_on_c, 0, 62, 22
2, 128197, Note_on_c, 0, 59, 28
2, 128197, Note_on_c, 0, 78, 0
2, 128200, Control_c, 0, 64, 65
2, 128218, Control_c, 0, 64, 62
2, 128237, Control_c, 0, 64, 60
2, 128257, Control_c, 0, 64, 58
2, 128276, Control_c, 0, 64, 56
2, 128295, Control_c, 0, 64, 54
2, 128314, Control_c, 0, 64, 53
2, 128334, Control_c, 0, 64, 52
2, 128372, Control_c, 0, 64, 53
2, 128391, Control_c, 0, 64, 55
2, 128411, Control_c, 0, 64, 59
2, 128429, Control_c, 0, 64, 62
2, 128449, Control_c, 0, 64, 64
2, 128468, Control_c, 0, 64, 66
2, 128488, Control_c, 0, 64, 69
2, 128493, Note_on_c, 0, 79, 0
2, 128504, Note_on_c, 0, 74, 49
2, 128506, Control_c, 0, 64, 72
2, 128526, Control_c, 0, 64, 74
2, 128545, Control_c, 0, 64, 76
2, 128550, Note_on_c, 0, 59, 0
2, 128553, Note_on_c, 0, 62, 0
2, 128564, Control_c, 0, 64, 77
2, 128716, Control_c, 0, 64, 76
2, 128736, Control_c, 0, 64, 76
2, 128755, Control_c, 0, 64, 75
2, 128774, Control_c, 0, 64, 74
2, 128790, Note_on_c, 0, 62, 26
2, 128795, Control_c, 0, 64, 72
2, 128797, Note_on_c, 0, 59, 35
2, 128815, Control_c, 0, 64, 69
2, 128833, Control_c, 0, 64, 65
2, 128853, Control_c, 0, 64, 61
2, 128872, Control_c, 0, 64, 57
2, 128892, Control_c, 0, 64, 55
2, 128910, Control_c, 0, 64, 53
2, 128930, Control_c, 0, 64, 52
2, 128949, Control_c, 0, 64, 51
2, 128987, Control_c, 0, 64, 52
2, 129007, Control_c, 0, 64, 54
2, 129026, Control_c, 0, 64, 58
2, 129045, Control_c, 0, 64, 61
2, 129064, Control_c, 0, 64, 63
2, 129084, Control_c, 0, 64, 65
2, 129102, Control_c, 0, 64, 67
2, 129102, Note_on_c, 0, 78, 64
2, 129122, Control_c, 0, 64, 70
2, 129141, Control_c, 0, 64, 72
2, 129153, Note_on_c, 0, 74, 0
2, 129161, Control_c, 0, 64, 75
2, 129161, Note_on_c, 0, 59, 0
2, 129163, Note_on_c, 0, 62, 0
2, 129179, Control_c, 0, 64, 78
2, 129198, Control_c, 0, 64, 79
2, 129333, Control_c, 0, 64, 79
2, 129352, Control_c, 0, 64, 78
2, 129372, Control_c, 0, 64, 76
2, 129390, Control_c, 0, 64, 74
2, 129410, Control_c, 0, 64, 71
2, 129429, Control_c, 0, 64, 67
2, 129445, Note_on_c, 0, 62, 29
2, 129448, Control_c, 0, 64, 63
2, 129454, Note_on_c, 0, 78, 0
2, 129454, Note_on_c, 0, 79, 64
2, 129455, Note_on_c, 0, 59, 33
2, 129467, Control_c, 0, 64, 60
2, 129487, Control_c, 0, 64, 57
2, 129506, Control_c, 0, 64, 55
2, 129525, Control_c, 0, 64, 53
2, 129544, Control_c, 0, 64, 52
2, 129601, Control_c, 0, 64, 53
2, 129620, Control_c, 0, 64, 55
2, 129640, Control_c, 0, 64, 58
2, 129649, Note_on_c, 0, 81, 69
2, 129658, Control_c, 0, 64, 60
2, 129671, Note_on_c, 0, 79, 0
2, 129677, Control_c, 0, 64, 62
2, 129697, Control_c, 0, 64, 63
2, 129716, Control_c, 0, 64, 64
2, 129735, Control_c, 0, 64, 66
2, 129753, Control_c, 0, 64, 67
2, 129773, Control_c, 0, 64, 67
2, 129792, Control_c, 0, 64, 68
2, 129792, Note_on_c, 0, 62, 0
2, 129827, Note_on_c, 0, 59, 0
2, 129830, Control_c, 0, 64, 69
2, 129845, Note_on_c, 0, 83, 71
2, 129857, Note_on_c, 0, 81, 0
2, 129965, Control_c, 0, 64, 68
2, 130003, Control_c, 0, 64, 67
2, 130022, Control_c, 0, 64, 66
2, 130032, Note_on_c, 0, 81, 68
2, 130042, Control_c, 0, 64, 64
2, 130061, Control_c, 0, 64, 61
2, 130064, Note_on_c, 0, 62, 37
2, 130065, Note_on_c, 0, 83, 0
2, 130066, Note_on_c, 0, 59, 33
2, 130080, Control_c, 0, 64, 57
2, 130099, Control_c, 0, 64, 51
2, 130118, Control_c, 0, 64, 46
2, 130137, Control_c, 0, 64, 41
2, 130156, Control_c, 0, 64, 38
2, 130176, Control_c, 0, 64, 37
2, 130214, Note_on_c, 0, 80, 72
2, 130223, Note_on_c, 0, 81, 0
2, 130233, Control_c, 0, 64, 40
2, 130253, Control_c, 0, 64, 49
2, 130272, Control_c, 0, 64, 58
2, 130291, Control_c, 0, 64, 61
2, 130310, Control_c, 0, 64, 63
2, 130330, Control_c, 0, 64, 64
2, 130346, Note_on_c, 0, 59, 0
2, 130348, Control_c, 0, 64, 65
2, 130368, Control_c, 0, 64, 67
2, 130387, Control_c, 0, 64, 68
2, 130392, Note_on_c, 0, 62, 0
2, 130407, Control_c, 0, 64, 68
2, 130410, Note_on_c, 0, 78, 69
2, 130419, Note_on_c, 0, 80, 0
2, 130425, Control_c, 0, 64, 69
2, 130557, Control_c, 0, 64, 68
2, 130576, Control_c, 0, 64, 68
2, 130595, Control_c, 0, 64, 67
2, 130615, Control_c, 0, 64, 66
2, 130618, Note_on_c, 0, 61, 54
2, 130632, Note_on_c, 0, 77, 60
2, 130633, Control_c, 0, 64, 64
2, 130641, Note_on_c, 0, 59, 47
2, 130643, Note_on_c, 0, 78, 0
2, 130653, Control_c, 0, 64, 63
2, 130672, Control_c, 0, 64, 61
2, 130692, Control_c, 0, 64, 58
2, 130714, Control_c, 0, 64, 55
2, 130734, Control_c, 0, 64, 52
2, 130752, Control_c, 0, 64, 49
2, 130772, Control_c, 0, 64, 46
2, 130791, Control_c, 0, 64, 42
2, 130811, Control_c, 0, 64, 39
2, 130828, Note_on_c, 0, 78, 68
2, 130829, Control_c, 0, 64, 34
2, 130834, Note_on_c, 0, 77, 0
2, 130849, Control_c, 0, 64, 20
2, 130868, Control_c, 0, 64, 0
2, 131018, Note_on_c, 0, 80, 70
2, 131037, Note_on_c, 0, 78, 0
2, 131215, Note_on_c, 0, 80, 0
2, 131217, Note_on_c, 0, 78, 62
2, 131271, Control_c, 0, 64, 35
2, 131291, Control_c, 0, 64, 48
2, 131309, Control_c, 0, 64, 54
2, 131329, Control_c, 0, 64, 57
2, 131348, Control_c, 0, 64, 58
2, 131368, Control_c, 0, 64, 59
2, 131372, Note_on_c, 0, 78, 0
2, 131386, Control_c, 0, 64, 60
2, 131387, Note_on_c, 0, 77, 57
2, 131406, Control_c, 0, 64, 61
2, 131425, Control_c, 0, 64, 63
2, 131444, Control_c, 0, 64, 64
2, 131463, Control_c, 0, 64, 64
2, 131482, Control_c, 0, 64, 65
2, 131501, Control_c, 0, 64, 67
2, 131520, Control_c, 0, 64, 68
2, 131539, Control_c, 0, 64, 70
2, 131558, Control_c, 0, 64, 73
2, 131567, Note_on_c, 0, 75, 60
2, 131572, Note_on_c, 0, 77, 0
2, 131577, Control_c, 0, 64, 76
2, 131596, Control_c, 0, 64, 78
2, 131616, Control_c, 0, 64, 79
2, 131635, Control_c, 0, 64, 80
2, 131676, Control_c, 0, 64, 79
2, 131696, Note_on_c, 0, 59, 0
2, 131698, Note_on_c, 0, 61, 0
2, 131714, Control_c, 0, 64, 78
2, 131734, Control_c, 0, 64, 77
2, 131753, Control_c, 0, 64, 75
2, 131767, Note_on_c, 0, 73, 62
2, 131773, Control_c, 0, 64, 71
2, 131776, Note_on_c, 0, 75, 0
2, 131791, Control_c, 0, 64, 67
2, 131811, Control_c, 0, 64, 63
2, 131830, Control_c, 0, 64, 60
2, 131849, Control_c, 0, 64, 59
2, 131868, Control_c, 0, 64, 58
2, 131888, Control_c, 0, 64, 56
2, 131907, Control_c, 0, 64, 53
2, 131926, Control_c, 0, 64, 50
2, 131945, Control_c, 0, 64, 47
2, 131951, Note_on_c, 0, 73, 0
2, 131952, Note_on_c, 0, 71, 65
2, 131965, Control_c, 0, 64, 46
2, 131983, Control_c, 0, 64, 44
2, 132003, Control_c, 0, 64, 42
2, 132022, Control_c, 0, 64, 41
2, 132042, Control_c, 0, 64, 39
2, 132060, Control_c, 0, 64, 37
2, 132080, Control_c, 0, 64, 36
2, 132099, Control_c, 0, 64, 35
2, 132117, Control_c, 0, 64, 33
2, 132137, Control_c, 0, 64, 31
2, 132141, Note_on_c, 0, 73, 67
2, 132147, Note_on_c, 0, 71, 0
2, 132156, Control_c, 0, 64, 29
2, 132176, Control_c, 0, 64, 27
2, 132194, Control_c, 0, 64, 26
2, 132214, Control_c, 0, 64, 25
2, 132233, Control_c, 0, 64, 24
2, 132309, Note_on_c, 0, 56, 48
2, 132323, Note_on_c, 0, 53, 44
2, 132329, Control_c, 0, 64, 25
2, 132336, Note_on_c, 0, 74, 70
2, 132348, Control_c, 0, 64, 31
2, 132356, Note_on_c, 0, 73, 0
2, 132368, Control_c, 0, 64, 38
2, 132387, Control_c, 0, 64, 47
2, 132406, Control_c, 0, 64, 54
2, 132425, Control_c, 0, 64, 58
2, 132443, Control_c, 0, 64, 60
2, 132462, Control_c, 0, 64, 61
2, 132481, Control_c, 0, 64, 62
2, 132500, Control_c, 0, 64, 63
2, 132518, Note_on_c, 0, 73, 71
2, 132520, Control_c, 0, 64, 64
2, 132528, Note_on_c, 0, 74, 0
2, 132538, Control_c, 0, 64, 65
2, 132557, Control_c, 0, 64, 66
2, 132577, Control_c, 0, 64, 67
2, 132596, Control_c, 0, 64, 67
2, 132702, Note_on_c, 0, 71, 72
2, 132707, Note_on_c, 0, 73, 0
2, 132712, Control_c, 0, 64, 67
2, 132732, Control_c, 0, 64, 66
2, 132750, Control_c, 0, 64, 65
2, 132770, Control_c, 0, 64, 64
2, 132789, Control_c, 0, 64, 63
2, 132808, Control_c, 0, 64, 60
2, 132809, Note_on_c, 0, 53, 0
2, 132827, Control_c, 0, 64, 57
2, 132847, Control_c, 0, 64, 52
2, 132858, Note_on_c, 0, 56, 0
2, 132861, Note_on_c, 0, 54, 49
2, 132861, Note_on_c, 0, 61, 47
2, 132866, Control_c, 0, 64, 45
2, 132885, Control_c, 0, 64, 36
2, 132893, Note_on_c, 0, 69, 76
2, 132900, Note_on_c, 0, 71, 0
2, 132904, Control_c, 0, 64, 28
2, 132924, Control_c, 0, 64, 22
2, 132942, Control_c, 0, 64, 19
2, 132962, Control_c, 0, 64, 18
2, 133019, Control_c, 0, 64, 20
2, 133038, Control_c, 0, 64, 28
2, 133058, Control_c, 0, 64, 41
2, 133064, Note_on_c, 0, 71, 75
2, 133077, Control_c, 0, 64, 52
2, 133091, Note_on_c, 0, 69, 0
2, 133096, Control_c, 0, 64, 58
2, 133115, Control_c, 0, 64, 60
2, 133135, Control_c, 0, 64, 62
2, 133153, Control_c, 0, 64, 63
2, 133173, Control_c, 0, 64, 64
2, 133192, Control_c, 0, 64, 64
2, 133212, Control_c, 0, 64, 65
2, 133230, Control_c, 0, 64, 66
2, 133243, Note_on_c, 0, 73, 73
2, 133250, Control_c, 0, 64, 67
2, 133269, Control_c, 0, 64, 68
2, 133270, Note_on_c, 0, 71, 0
2, 133327, Control_c, 0, 64, 67
2, 133346, Control_c, 0, 64, 67
2, 133365, Control_c, 0, 64, 66
2, 133384, Control_c, 0, 64, 66
2, 133404, Control_c, 0, 64, 64
2, 133422, Control_c, 0, 64, 61
2, 133437, Note_on_c, 0, 73, 0
2, 133438, Note_on_c, 0, 71, 68
2, 133441, Control_c, 0, 64, 55
2, 133448, Note_on_c, 0, 49, 44
2, 133460, Control_c, 0, 64, 48
2, 133480, Control_c, 0, 64, 41
2, 133498, Control_c, 0, 64, 33
2, 133517, Control_c, 0, 64, 24
2, 133536, Note_on_c, 0, 54, 0
2, 133537, Control_c, 0, 64, 17
2, 133575, Control_c, 0, 64, 20
2, 133594, Control_c, 0, 64, 38
2, 133614, Control_c, 0, 64, 53
2, 133623, Note_on_c, 0, 71, 0
2, 133632, Control_c, 0, 64, 60
2, 133633, Note_on_c, 0, 69, 72
2, 133652, Control_c, 0, 64, 62
2, 133671, Control_c, 0, 64, 63
2, 133691, Control_c, 0, 64, 64
2, 133709, Control_c, 0, 64, 65
2, 133729, Control_c, 0, 64, 65
2, 133748, Control_c, 0, 64, 66
2, 133768, Control_c, 0, 64, 66
2, 133786, Control_c, 0, 64, 67
2, 133806, Control_c, 0, 64, 67
2, 133820, Note_on_c, 0, 68, 73
2, 133821, Note_on_c, 0, 69, 0
2, 133825, Control_c, 0, 64, 68
2, 133844, Control_c, 0, 64, 69
2, 133849, Note_on_c, 0, 49, 0
2, 133863, Control_c, 0, 64, 69
2, 133921, Control_c, 0, 64, 69
2, 133978, Control_c, 0, 64, 68
2, 133997, Control_c, 0, 64, 67
2, 134017, Control_c, 0, 64, 66
2, 134036, Control_c, 0, 64, 64
2, 134055, Control_c, 0, 64, 62
2, 134066, Note_on_c, 0, 50, 36
2, 134074, Control_c, 0, 64, 60
2, 134094, Control_c, 0, 64, 55
2, 134094, Note_on_c, 0, 66, 67
2, 134112, Control_c, 0, 64, 47
2, 134124, Note_on_c, 0, 68, 0
2, 134132, Control_c, 0, 64, 38
2, 134151, Control_c, 0, 64, 28
2, 134171, Control_c, 0, 64, 19
2, 134189, Control_c, 0, 64, 0
2, 134286, Control_c, 0, 64, 31
2, 134305, Control_c, 0, 64, 50
2, 134324, Control_c, 0, 64, 59
2, 134343, Control_c, 0, 64, 62
2, 134362, Control_c, 0, 64, 63
2, 134380, Control_c, 0, 64, 64
2, 134398, Control_c, 0, 64, 65
2, 134418, Control_c, 0, 64, 65
2, 134437, Control_c, 0, 64, 66
2, 134445, Note_on_c, 0, 77, 77
2, 134446, Note_on_c, 0, 61, 0
2, 134475, Control_c, 0, 64, 66
2, 134504, Note_on_c, 0, 66, 0
2, 134514, Control_c, 0, 64, 67
2, 134533, Control_c, 0, 64, 67
2, 134666, Control_c, 0, 64, 67
2, 134685, Control_c, 0, 64, 66
2, 134704, Control_c, 0, 64, 66
2, 134724, Control_c, 0, 64, 64
2, 134742, Control_c, 0, 64, 61
2, 134762, Control_c, 0, 64, 56
2, 134778, Note_on_c, 0, 61, 30
2, 134781, Control_c, 0, 64, 49
2, 134801, Control_c, 0, 64, 41
2, 134819, Control_c, 0, 64, 34
2, 134838, Control_c, 0, 64, 27
2, 134858, Control_c, 0, 64, 21
2, 134877, Control_c, 0, 64, 20
2, 134915, Control_c, 0, 64, 24
2, 134935, Control_c, 0, 64, 43
2, 134953, Control_c, 0, 64, 57
2, 134973, Control_c, 0, 64, 63
2, 134992, Control_c, 0, 64, 66
2, 135012, Control_c, 0, 64, 69
2, 135030, Control_c, 0, 64, 76
2, 135050, Control_c, 0, 64, 89
2, 135069, Control_c, 0, 64, 127
2, 135087, Note_on_c, 0, 78, 71
2, 135117, Note_on_c, 0, 77, 0
2, 135119, Note_on_c, 0, 61, 0
2, 135337, Control_c, 0, 64, 101
2, 135356, Control_c, 0, 64, 84
2, 135375, Control_c, 0, 64, 73
2, 135391, Note_on_c, 0, 78, 0
2, 135394, Control_c, 0, 64, 64
2, 135403, Note_on_c, 0, 68, 69
2, 135414, Control_c, 0, 64, 56
2, 135427, Note_on_c, 0, 59, 33
2, 135432, Control_c, 0, 64, 48
2, 135452, Control_c, 0, 64, 46
2, 135471, Control_c, 0, 64, 44
2, 135491, Control_c, 0, 64, 44
2, 135514, Control_c, 0, 64, 44
2, 135534, Control_c, 0, 64, 50
2, 135552, Control_c, 0, 64, 57
2, 135572, Control_c, 0, 64, 62
2, 135591, Control_c, 0, 64, 64
2, 135611, Control_c, 0, 64, 67
2, 135629, Control_c, 0, 64, 71
2, 135646, Note_on_c, 0, 50, 0
2, 135649, Control_c, 0, 64, 76
2, 135668, Control_c, 0, 64, 80
2, 135688, Control_c, 0, 64, 84
2, 135706, Control_c, 0, 64, 86
2, 135737, Note_on_c, 0, 78, 70
2, 135764, Control_c, 0, 64, 87
2, 135797, Note_on_c, 0, 68, 0
2, 135841, Control_c, 0, 64, 86
2, 135860, Control_c, 0, 64, 85
2, 135879, Control_c, 0, 64, 84
2, 135898, Control_c, 0, 64, 82
2, 135917, Control_c, 0, 64, 80
2, 135937, Control_c, 0, 64, 78
2, 135956, Control_c, 0, 64, 75
2, 135975, Control_c, 0, 64, 72
2, 135994, Control_c, 0, 64, 70
2, 136014, Control_c, 0, 64, 68
2, 136032, Control_c, 0, 64, 67
2, 136052, Control_c, 0, 64, 65
2, 136071, Control_c, 0, 64, 63
2, 136083, Note_on_c, 0, 50, 22
2, 136091, Control_c, 0, 64, 61
2, 136109, Control_c, 0, 64, 59
2, 136129, Control_c, 0, 64, 57
2, 136148, Control_c, 0, 64, 56
2, 136168, Control_c, 0, 64, 55
2, 136206, Control_c, 0, 64, 57
2, 136225, Control_c, 0, 64, 59
2, 136244, Control_c, 0, 64, 61
2, 136263, Control_c, 0, 64, 63
2, 136281, Control_c, 0, 64, 65
2, 136300, Control_c, 0, 64, 67
2, 136318, Control_c, 0, 64, 68
2, 136338, Control_c, 0, 64, 70
2, 136357, Control_c, 0, 64, 72
2, 136377, Control_c, 0, 64, 73
2, 136377, Note_on_c, 0, 77, 51
2, 136395, Control_c, 0, 64, 74
2, 136417, Note_on_c, 0, 78, 0
2, 136512, Control_c, 0, 64, 75
2, 136551, Control_c, 0, 64, 74
2, 136571, Control_c, 0, 64, 74
2, 136589, Control_c, 0, 64, 73
2, 136609, Control_c, 0, 64, 73
2, 136628, Control_c, 0, 64, 72
2, 136648, Control_c, 0, 64, 70
2, 136666, Control_c, 0, 64, 67
2, 136686, Control_c, 0, 64, 63
2, 136701, Note_on_c, 0, 70, 51
2, 136704, Note_on_c, 0, 77, 0
2, 136705, Control_c, 0, 64, 58
2, 136711, Note_on_c, 0, 49, 29
2, 136724, Control_c, 0, 64, 54
2, 136736, Note_on_c, 0, 50, 0
2, 136743, Control_c, 0, 64, 52
2, 136763, Control_c, 0, 64, 49
2, 136782, Control_c, 0, 64, 46
2, 136820, Control_c, 0, 64, 50
2, 136839, Control_c, 0, 64, 56
2, 136858, Control_c, 0, 64, 61
2, 136869, Note_on_c, 0, 59, 0
2, 136877, Control_c, 0, 64, 63
2, 136897, Control_c, 0, 64, 65
2, 136916, Control_c, 0, 64, 66
2, 136935, Control_c, 0, 64, 67
2, 136954, Control_c, 0, 64, 68
2, 136974, Control_c, 0, 64, 68
2, 136992, Control_c, 0, 64, 69
2, 137031, Control_c, 0, 64, 69
2, 137042, Note_on_c, 0, 76, 61
2, 137089, Control_c, 0, 64, 69
2, 137090, Note_on_c, 0, 70, 0
2, 137146, Control_c, 0, 64, 68
2, 137185, Control_c, 0, 64, 68
2, 137204, Control_c, 0, 64, 67
2, 137239, Control_c, 0, 64, 67
2, 137259, Control_c, 0, 64, 66
2, 137277, Control_c, 0, 64, 66
2, 137297, Control_c, 0, 64, 65
2, 137316, Control_c, 0, 64, 65
2, 137336, Control_c, 0, 64, 64
2, 137354, Control_c, 0, 64, 64
2, 137374, Control_c, 0, 64, 63
2, 137375, Note_on_c, 0, 55, 20
2, 137380, Note_on_c, 0, 58, 24
2, 137384, Note_on_c, 0, 49, 0
2, 137393, Control_c, 0, 64, 60
2, 137413, Control_c, 0, 64, 57
2, 137434, Control_c, 0, 64, 52
2, 137454, Control_c, 0, 64, 50
2, 137472, Control_c, 0, 64, 49
2, 137531, Control_c, 0, 64, 50
2, 137549, Control_c, 0, 64, 53
2, 137569, Control_c, 0, 64, 56
2, 137588, Control_c, 0, 64, 60
2, 137608, Control_c, 0, 64, 62
2, 137626, Control_c, 0, 64, 64
2, 137646, Control_c, 0, 64, 66
2, 137665, Control_c, 0, 64, 69
2, 137684, Control_c, 0, 64, 73
2, 137703, Control_c, 0, 64, 77
2, 137722, Note_on_c, 0, 76, 0
2, 137723, Control_c, 0, 64, 81
2, 137733, Note_on_c, 0, 75, 52
2, 137742, Control_c, 0, 64, 84
2, 137761, Control_c, 0, 64, 85
2, 137790, Note_on_c, 0, 58, 0
2, 137799, Control_c, 0, 64, 85
2, 137801, Note_on_c, 0, 75, 0
2, 137803, Note_on_c, 0, 55, 0
2, 137876, Control_c, 0, 64, 84
2, 137914, Control_c, 0, 64, 84
2, 137934, Control_c, 0, 64, 83
2, 137952, Control_c, 0, 64, 82
2, 137972, Control_c, 0, 64, 82
2, 137991, Control_c, 0, 64, 81
2, 138011, Control_c, 0, 64, 80
2, 138029, Control_c, 0, 64, 78
2, 138049, Control_c, 0, 64, 76
2, 138064, Note_on_c, 0, 60, 22
2, 138068, Control_c, 0, 64, 73
2, 138088, Control_c, 0, 64, 70
2, 138093, Note_on_c, 0, 54, 22
2, 138106, Control_c, 0, 64, 67
2, 138115, Note_on_c, 0, 75, 48
2, 138126, Control_c, 0, 64, 64
2, 138145, Control_c, 0, 64, 62
2, 138164, Control_c, 0, 64, 60
2, 138183, Control_c, 0, 64, 59
2, 138203, Control_c, 0, 64, 57
2, 138239, Control_c, 0, 64, 58
2, 138259, Control_c, 0, 64, 59
2, 138278, Control_c, 0, 64, 61
2, 138293, Note_on_c, 0, 75, 0
2, 138298, Control_c, 0, 64, 63
2, 138307, Note_on_c, 0, 76, 55
2, 138316, Control_c, 0, 64, 65
2, 138336, Control_c, 0, 64, 66
2, 138355, Control_c, 0, 64, 69
2, 138374, Control_c, 0, 64, 72
2, 138393, Control_c, 0, 64, 74
2, 138413, Control_c, 0, 64, 76
2, 138432, Control_c, 0, 64, 77
2, 138451, Control_c, 0, 64, 78
2, 138483, Note_on_c, 0, 76, 0
2, 138487, Note_on_c, 0, 78, 61
2, 138567, Control_c, 0, 64, 77
2, 138585, Control_c, 0, 64, 77
2, 138605, Control_c, 0, 64, 76
2, 138624, Control_c, 0, 64, 75
2, 138643, Control_c, 0, 64, 73
2, 138662, Control_c, 0, 64, 70
2, 138682, Control_c, 0, 64, 66
2, 138692, Note_on_c, 0, 78, 0
2, 138694, Note_on_c, 0, 76, 52
2, 138701, Control_c, 0, 64, 63
2, 138704, Note_on_c, 0, 61, 35
2, 138719, Control_c, 0, 64, 60
2, 138729, Note_on_c, 0, 60, 0
2, 138739, Control_c, 0, 64, 59
2, 138758, Control_c, 0, 64, 58
2, 138778, Control_c, 0, 64, 57
2, 138796, Control_c, 0, 64, 57
2, 138816, Control_c, 0, 64, 57
2, 138835, Control_c, 0, 64, 59
2, 138854, Control_c, 0, 64, 62
2, 138873, Control_c, 0, 64, 64
2, 138877, Note_on_c, 0, 75, 62
2, 138884, Note_on_c, 0, 76, 0
2, 138893, Control_c, 0, 64, 65
2, 138912, Control_c, 0, 64, 67
2, 138931, Control_c, 0, 64, 69
2, 138950, Control_c, 0, 64, 71
2, 138970, Control_c, 0, 64, 73
2, 138988, Control_c, 0, 64, 75
2, 139008, Control_c, 0, 64, 75
2, 139051, Note_on_c, 0, 75, 0
2, 139062, Note_on_c, 0, 73, 61
2, 139065, Control_c, 0, 64, 75
2, 139085, Control_c, 0, 64, 74
2, 139104, Control_c, 0, 64, 74
2, 139123, Control_c, 0, 64, 73
2, 139142, Control_c, 0, 64, 72
2, 139160, Control_c, 0, 64, 71
2, 139181, Control_c, 0, 64, 70
2, 139199, Control_c, 0, 64, 69
2, 139211, Note_on_c, 0, 61, 0
2, 139219, Control_c, 0, 64, 67
2, 139237, Note_on_c, 0, 73, 0
2, 139238, Control_c, 0, 64, 65
2, 139240, Note_on_c, 0, 72, 64
2, 139245, Note_on_c, 0, 63, 42
2, 139258, Control_c, 0, 64, 64
2, 139276, Control_c, 0, 64, 62
2, 139296, Control_c, 0, 64, 60
2, 139315, Control_c, 0, 64, 59
2, 139334, Control_c, 0, 64, 58
2, 139352, Control_c, 0, 64, 57
2, 139372, Control_c, 0, 64, 58
2, 139391, Control_c, 0, 64, 59
2, 139410, Control_c, 0, 64, 62
2, 139417, Note_on_c, 0, 72, 0
2, 139417, Note_on_c, 0, 73, 61
2, 139429, Control_c, 0, 64, 63
2, 139449, Control_c, 0, 64, 65
2, 139467, Control_c, 0, 64, 68
2, 139487, Control_c, 0, 64, 71
2, 139506, Control_c, 0, 64, 74
2, 139526, Control_c, 0, 64, 76
2, 139544, Control_c, 0, 64, 77
2, 139564, Control_c, 0, 64, 78
2, 139591, Note_on_c, 0, 63, 0
2, 139607, Note_on_c, 0, 75, 69
2, 139622, Note_on_c, 0, 73, 0
2, 139649, Note_on_c, 0, 54, 0
2, 139717, Control_c, 0, 64, 77
2, 139737, Control_c, 0, 64, 76
2, 139755, Control_c, 0, 64, 75
2, 139775, Control_c, 0, 64, 73
2, 139794, Control_c, 0, 64, 72
2, 139808, Note_on_c, 0, 73, 60
2, 139811, Note_on_c, 0, 75, 0
2, 139813, Control_c, 0, 64, 70
2, 139815, Note_on_c, 0, 56, 40
2, 139832, Control_c, 0, 64, 66
2, 139840, Note_on_c, 0, 52, 31
2, 139852, Control_c, 0, 64, 62
2, 139871, Control_c, 0, 64, 59
2, 139890, Control_c, 0, 64, 57
2, 139909, Control_c, 0, 64, 56
2, 139929, Control_c, 0, 64, 56
2, 139967, Control_c, 0, 64, 57
2, 139981, Note_on_c, 0, 73, 0
2, 139985, Note_on_c, 0, 72, 68
2, 139986, Control_c, 0, 64, 60
2, 140006, Control_c, 0, 64, 63
2, 140024, Control_c, 0, 64, 65
2, 140044, Control_c, 0, 64, 67
2, 140063, Control_c, 0, 64, 70
2, 140083, Control_c, 0, 64, 72
2, 140101, Control_c, 0, 64, 75
2, 140120, Control_c, 0, 64, 76
2, 140140, Control_c, 0, 64, 77
2, 140158, Control_c, 0, 64, 79
2, 140173, Note_on_c, 0, 70, 68
2, 140189, Note_on_c, 0, 72, 0
2, 140293, Control_c, 0, 64, 78
2, 140315, Control_c, 0, 64, 77
2, 140335, Control_c, 0, 64, 75
2, 140353, Control_c, 0, 64, 72
2, 140358, Note_on_c, 0, 58, 45
2, 140373, Control_c, 0, 64, 68
2, 140378, Note_on_c, 0, 68, 69
2, 140389, Note_on_c, 0, 70, 0
2, 140392, Control_c, 0, 64, 64
2, 140412, Control_c, 0, 64, 61
2, 140430, Control_c, 0, 64, 58
2, 140442, Note_on_c, 0, 56, 0
2, 140450, Control_c, 0, 64, 56
2, 140469, Control_c, 0, 64, 56
2, 140507, Control_c, 0, 64, 58
2, 140527, Control_c, 0, 64, 61
2, 140541, Note_on_c, 0, 66, 68
2, 140546, Control_c, 0, 64, 64
2, 140550, Note_on_c, 0, 68, 0
2, 140565, Control_c, 0, 64, 66
2, 140584, Control_c, 0, 64, 68
2, 140604, Control_c, 0, 64, 71
2, 140622, Control_c, 0, 64, 74
2, 140642, Control_c, 0, 64, 76
2, 140661, Control_c, 0, 64, 76
2, 140680, Control_c, 0, 64, 77
2, 140718, Control_c, 0, 64, 77
2, 140724, Note_on_c, 0, 68, 73
2, 140742, Note_on_c, 0, 66, 0
2, 140757, Control_c, 0, 64, 78
2, 140795, Control_c, 0, 64, 77
2, 140815, Control_c, 0, 64, 77
2, 140818, Note_on_c, 0, 52, 0
2, 140833, Control_c, 0, 64, 76
2, 140853, Control_c, 0, 64, 73
2, 140863, Note_on_c, 0, 58, 0
2, 140872, Control_c, 0, 64, 70
2, 140892, Control_c, 0, 64, 66
2, 140904, Note_on_c, 0, 69, 73
2, 140910, Control_c, 0, 64, 62
2, 140922, Note_on_c, 0, 60, 47
2, 140924, Note_on_c, 0, 68, 0
2, 140930, Control_c, 0, 64, 59
2, 140938, Note_on_c, 0, 51, 35
2, 140949, Control_c, 0, 64, 57
2, 140968, Control_c, 0, 64, 56
2, 140987, Control_c, 0, 64, 56
2, 141026, Control_c, 0, 64, 57
2, 141045, Control_c, 0, 64, 61
2, 141064, Control_c, 0, 64, 63
2, 141082, Note_on_c, 0, 68, 75
2, 141084, Control_c, 0, 64, 65
2, 141102, Control_c, 0, 64, 67
2, 141105, Note_on_c, 0, 69, 0
2, 141122, Control_c, 0, 64, 71
2, 141141, Control_c, 0, 64, 74
2, 141160, Control_c, 0, 64, 76
2, 141178, Note_on_c, 0, 60, 0
2, 141179, Control_c, 0, 64, 77
2, 141198, Control_c, 0, 64, 78
2, 141237, Control_c, 0, 64, 78
2, 141269, Note_on_c, 0, 66, 76
2, 141272, Note_on_c, 0, 68, 0
2, 141335, Control_c, 0, 64, 78
2, 141354, Control_c, 0, 64, 77
2, 141373, Control_c, 0, 64, 76
2, 141392, Control_c, 0, 64, 73
2, 141406, Note_on_c, 0, 51, 0
2, 141412, Control_c, 0, 64, 70
2, 141431, Control_c, 0, 64, 66
2, 141448, Note_on_c, 0, 49, 49
2, 141450, Control_c, 0, 64, 62
2, 141459, Note_on_c, 0, 66, 0
2, 141460, Note_on_c, 0, 65, 67
2, 141466, Note_on_c, 0, 59, 51
2, 141469, Control_c, 0, 64, 59
2, 141489, Control_c, 0, 64, 57
2, 141507, Control_c, 0, 64, 56
2, 141527, Control_c, 0, 64, 55
2, 141566, Control_c, 0, 64, 56
2, 141584, Control_c, 0, 64, 57
2, 141604, Control_c, 0, 64, 60
2, 141623, Control_c, 0, 64, 63
2, 141635, Note_on_c, 0, 66, 69
2, 141643, Control_c, 0, 64, 64
2, 141661, Control_c, 0, 64, 66
2, 141661, Note_on_c, 0, 65, 0
2, 141680, Control_c, 0, 64, 69
2, 141700, Control_c, 0, 64, 71
2, 141718, Control_c, 0, 64, 73
2, 141738, Control_c, 0, 64, 75
2, 141752, Note_on_c, 0, 59, 0
2, 141757, Control_c, 0, 64, 76
2, 141777, Control_c, 0, 64, 76
2, 141795, Control_c, 0, 64, 77
2, 141808, Note_on_c, 0, 68, 80
2, 141815, Control_c, 0, 64, 77
2, 141834, Control_c, 0, 64, 78
2, 141840, Note_on_c, 0, 66, 0
2, 141853, Control_c, 0, 64, 78
2, 141895, Control_c, 0, 64, 78
2, 141914, Control_c, 0, 64, 77
2, 141933, Control_c, 0, 64, 76
2, 141952, Control_c, 0, 64, 74
2, 141971, Control_c, 0, 64, 70
2, 141990, Control_c, 0, 64, 65
2, 141997, Note_on_c, 0, 66, 70
2, 141998, Note_on_c, 0, 49, 0
2, 142009, Control_c, 0, 64, 60
2, 142015, Note_on_c, 0, 51, 42
2, 142019, Note_on_c, 0, 57, 49
2, 142024, Note_on_c, 0, 68, 0
2, 142029, Control_c, 0, 64, 56
2, 142043, Control_c, 0, 64, 54
2, 142063, Control_c, 0, 64, 53
2, 142081, Control_c, 0, 64, 53
2, 142101, Control_c, 0, 64, 54
2, 142120, Control_c, 0, 64, 58
2, 142140, Control_c, 0, 64, 62
2, 142158, Control_c, 0, 64, 65
2, 142177, Note_on_c, 0, 66, 0
2, 142178, Control_c, 0, 64, 67
2, 142182, Note_on_c, 0, 65, 67
2, 142197, Control_c, 0, 64, 71
2, 142200, Note_on_c, 0, 51, 0
2, 142216, Control_c, 0, 64, 76
2, 142236, Control_c, 0, 64, 79
2, 142256, Control_c, 0, 64, 80
2, 142275, Control_c, 0, 64, 81
2, 142292, Note_on_c, 0, 57, 0
2, 142368, Note_on_c, 0, 63, 70
2, 142384, Note_on_c, 0, 65, 0
2, 142485, Control_c, 0, 64, 80
2, 142505, Control_c, 0, 64, 79
2, 142524, Control_c, 0, 64, 78
2, 142544, Control_c, 0, 64, 76
2, 142562, Control_c, 0, 64, 74
2, 142582, Control_c, 0, 64, 71
2, 142589, Note_on_c, 0, 53, 35
2, 142601, Control_c, 0, 64, 68
2, 142609, Note_on_c, 0, 56, 37
2, 142609, Note_on_c, 0, 61, 70
2, 142621, Control_c, 0, 64, 65
2, 142639, Control_c, 0, 64, 62
2, 142659, Control_c, 0, 64, 59
2, 142660, Note_on_c, 0, 63, 0
2, 142678, Control_c, 0, 64, 56
2, 142697, Control_c, 0, 64, 53
2, 142716, Control_c, 0, 64, 51
2, 142736, Control_c, 0, 64, 50
2, 142755, Control_c, 0, 64, 50
2, 142774, Control_c, 0, 64, 50
2, 142812, Control_c, 0, 64, 52
2, 142831, Control_c, 0, 64, 54
2, 142850, Control_c, 0, 64, 57
2, 142870, Control_c, 0, 64, 60
2, 142889, Control_c, 0, 64, 62
2, 142908, Control_c, 0, 64, 64
2, 142927, Control_c, 0, 64, 65
2, 142947, Control_c, 0, 64, 66
2, 142965, Control_c, 0, 64, 68
2, 142985, Control_c, 0, 64, 70
2, 143000, Control_c, 0, 64, 73
2, 143019, Control_c, 0, 64, 74
2, 143038, Control_c, 0, 64, 76
2, 143142, Note_on_c, 0, 53, 0
2, 143153, Control_c, 0, 64, 75
2, 143172, Control_c, 0, 64, 75
2, 143195, Control_c, 0, 64, 74
2, 143205, Note_on_c, 0, 56, 0
2, 143215, Control_c, 0, 64, 72
2, 143231, Note_on_c, 0, 57, 48
2, 143234, Control_c, 0, 64, 70
2, 143238, Note_on_c, 0, 54, 40
2, 143252, Control_c, 0, 64, 67
2, 143272, Control_c, 0, 64, 64
2, 143291, Control_c, 0, 64, 60
2, 143310, Control_c, 0, 64, 56
2, 143329, Control_c, 0, 64, 54
2, 143349, Control_c, 0, 64, 53
2, 143368, Control_c, 0, 64, 52
2, 143406, Control_c, 0, 64, 53
2, 143426, Control_c, 0, 64, 55
2, 143445, Control_c, 0, 64, 59
2, 143464, Control_c, 0, 64, 62
2, 143483, Control_c, 0, 64, 64
2, 143503, Control_c, 0, 64, 65
2, 143521, Control_c, 0, 64, 66
2, 143541, Control_c, 0, 64, 68
2, 143560, Control_c, 0, 64, 70
2, 143580, Control_c, 0, 64, 72
2, 143598, Control_c, 0, 64, 74
2, 143618, Control_c, 0, 64, 75
2, 143637, Control_c, 0, 64, 75
2, 143656, Control_c, 0, 64, 76
2, 143714, Control_c, 0, 64, 75
2, 143732, Control_c, 0, 64, 75
2, 143752, Control_c, 0, 64, 74
2, 143771, Control_c, 0, 64, 74
2, 143782, Note_on_c, 0, 57, 0
2, 143787, Note_on_c, 0, 54, 0
2, 143790, Control_c, 0, 64, 72
2, 143809, Control_c, 0, 64, 70
2, 143829, Control_c, 0, 64, 68
2, 143837, Note_on_c, 0, 56, 40
2, 143845, Note_on_c, 0, 59, 49
2, 143848, Control_c, 0, 64, 65
2, 143867, Control_c, 0, 64, 60
2, 143886, Control_c, 0, 64, 56
2, 143906, Control_c, 0, 64, 53
2, 143925, Control_c, 0, 64, 50
2, 143944, Control_c, 0, 64, 47
2, 143961, Control_c, 0, 64, 47
2, 143982, Control_c, 0, 64, 51
2, 144000, Control_c, 0, 64, 60
2, 144020, Control_c, 0, 64, 64
2, 144039, Control_c, 0, 64, 67
2, 144042, Note_on_c, 0, 59, 0
2, 144059, Control_c, 0, 64, 71
2, 144074, Note_on_c, 0, 56, 0
2, 144077, Control_c, 0, 64, 75
2, 144097, Control_c, 0, 64, 79
2, 144116, Control_c, 0, 64, 82
2, 144136, Control_c, 0, 64, 84
2, 144138, Note_on_c, 0, 61, 0
2, 144156, Control_c, 0, 64, 85
2, 144176, Control_c, 0, 64, 86
2, 144197, Note_on_c, 0, 65, 48
2, 144310, Control_c, 0, 64, 86
2, 144329, Control_c, 0, 64, 85
2, 144339, Note_on_c, 0, 68, 64
2, 144348, Control_c, 0, 64, 85
2, 144355, Note_on_c, 0, 65, 0
2, 144367, Control_c, 0, 64, 84
2, 144387, Control_c, 0, 64, 83
2, 144405, Control_c, 0, 64, 81
2, 144425, Control_c, 0, 64, 78
2, 144444, Control_c, 0, 64, 75
2, 144464, Control_c, 0, 64, 72
2, 144482, Control_c, 0, 64, 68
2, 144491, Note_on_c, 0, 53, 36
2, 144496, Note_on_c, 0, 44, 35
2, 144502, Control_c, 0, 64, 65
2, 144508, Note_on_c, 0, 71, 67
2, 144521, Control_c, 0, 64, 62
2, 144528, Note_on_c, 0, 68, 0
2, 144541, Control_c, 0, 64, 59
2, 144559, Control_c, 0, 64, 56
2, 144579, Control_c, 0, 64, 54
2, 144598, Control_c, 0, 64, 54
2, 144636, Control_c, 0, 64, 54
2, 144656, Control_c, 0, 64, 56
2, 144675, Control_c, 0, 64, 59
2, 144694, Control_c, 0, 64, 62
2, 144713, Control_c, 0, 64, 64
2, 144732, Control_c, 0, 64, 67
2, 144751, Control_c, 0, 64, 70
2, 144763, Note_on_c, 0, 53, 0
2, 144770, Control_c, 0, 64, 75
2, 144790, Control_c, 0, 64, 78
2, 144809, Control_c, 0, 64, 80
2, 144810, Note_on_c, 0, 74, 67
2, 144811, Note_on_c, 0, 71, 0
2, 144826, Note_on_c, 0, 44, 0
2, 144828, Control_c, 0, 64, 82
2, 144847, Control_c, 0, 64, 84
2, 144867, Control_c, 0, 64, 86
2, 144962, Control_c, 0, 64, 85
2, 144982, Control_c, 0, 64, 84
2, 145001, Control_c, 0, 64, 84
2, 145021, Control_c, 0, 64, 83
2, 145039, Control_c, 0, 64, 81
2, 145059, Control_c, 0, 64, 80
2, 145078, Control_c, 0, 64, 78
2, 145097, Control_c, 0, 64, 75
2, 145109, Note_on_c, 0, 73, 57
2, 145113, Note_on_c, 0, 54, 34
2, 145116, Control_c, 0, 64, 70
2, 145117, Note_on_c, 0, 74, 0
2, 145129, Note_on_c, 0, 45, 32
2, 145136, Control_c, 0, 64, 65
2, 145155, Control_c, 0, 64, 61
2, 145174, Control_c, 0, 64, 58
2, 145193, Control_c, 0, 64, 56
2, 145212, Control_c, 0, 64, 55
2, 145231, Control_c, 0, 64, 54
2, 145250, Control_c, 0, 64, 55
2, 145270, Control_c, 0, 64, 58
2, 145289, Control_c, 0, 64, 61
2, 145308, Control_c, 0, 64, 63
2, 145309, Note_on_c, 0, 75, 67
2, 145327, Control_c, 0, 64, 64
2, 145345, Note_on_c, 0, 73, 0
2, 145347, Control_c, 0, 64, 66
2, 145365, Control_c, 0, 64, 67
2, 145385, Control_c, 0, 64, 69
2, 145404, Control_c, 0, 64, 71
2, 145424, Control_c, 0, 64, 73
2, 145442, Control_c, 0, 64, 75
2, 145462, Control_c, 0, 64, 76
2, 145481, Control_c, 0, 64, 76
2, 145501, Control_c, 0, 64, 77
2, 145512, Note_on_c, 0, 77, 64
2, 145514, Note_on_c, 0, 75, 0
2, 145519, Control_c, 0, 64, 77
2, 145577, Control_c, 0, 64, 77
2, 145616, Control_c, 0, 64, 76
2, 145635, Control_c, 0, 64, 76
2, 145654, Control_c, 0, 64, 74
2, 145673, Control_c, 0, 64, 73
2, 145692, Control_c, 0, 64, 70
2, 145711, Control_c, 0, 64, 67
2, 145712, Note_on_c, 0, 78, 62
2, 145730, Control_c, 0, 64, 64
2, 145736, Note_on_c, 0, 49, 35
2, 145737, Note_on_c, 0, 77, 0
2, 145750, Control_c, 0, 64, 62
2, 145764, Note_on_c, 0, 54, 0
2, 145767, Control_c, 0, 64, 60
2, 145785, Control_c, 0, 64, 58
2, 145805, Control_c, 0, 64, 57
2, 145843, Control_c, 0, 64, 59
2, 145862, Control_c, 0, 64, 61
2, 145880, Control_c, 0, 64, 63
2, 145900, Control_c, 0, 64, 65
2, 145902, Note_on_c, 0, 76, 68
2, 145918, Control_c, 0, 64, 67
2, 145934, Note_on_c, 0, 78, 0
2, 145938, Control_c, 0, 64, 70
2, 145957, Control_c, 0, 64, 73
2, 145977, Control_c, 0, 64, 76
2, 145995, Control_c, 0, 64, 78
2, 146015, Control_c, 0, 64, 79
2, 146034, Control_c, 0, 64, 81
2, 146053, Control_c, 0, 64, 81
2, 146060, Note_on_c, 0, 76, 0
2, 146073, Control_c, 0, 64, 82
2, 146075, Note_on_c, 0, 74, 67
2, 146112, Control_c, 0, 64, 83
2, 146131, Control_c, 0, 64, 84
2, 146150, Control_c, 0, 64, 85
2, 146188, Control_c, 0, 64, 84
2, 146208, Control_c, 0, 64, 83
2, 146227, Control_c, 0, 64, 81
2, 146247, Control_c, 0, 64, 77
2, 146262, Note_on_c, 0, 73, 69
2, 146265, Control_c, 0, 64, 71
2, 146267, Note_on_c, 0, 54, 41
2, 146285, Control_c, 0, 64, 66
2, 146286, Note_on_c, 0, 74, 0
2, 146304, Control_c, 0, 64, 63
2, 146323, Control_c, 0, 64, 63
2, 146358, Note_on_c, 0, 49, 0
2, 146361, Control_c, 0, 64, 63
2, 146381, Control_c, 0, 64, 64
2, 146399, Control_c, 0, 64, 65
2, 146419, Control_c, 0, 64, 67
2, 146438, Control_c, 0, 64, 68
2, 146441, Note_on_c, 0, 71, 74
2, 146458, Control_c, 0, 64, 69
2, 146467, Note_on_c, 0, 73, 0
2, 146476, Control_c, 0, 64, 70
2, 146496, Control_c, 0, 64, 71
2, 146515, Control_c, 0, 64, 72
2, 146534, Control_c, 0, 64, 73
2, 146553, Control_c, 0, 64, 73
2, 146573, Control_c, 0, 64, 74
2, 146592, Control_c, 0, 64, 74
2, 146612, Note_on_c, 0, 71, 0
2, 146622, Note_on_c, 0, 69, 74
2, 146650, Control_c, 0, 64, 75
2, 146668, Control_c, 0, 64, 75
2, 146727, Control_c, 0, 64, 75
2, 146745, Control_c, 0, 64, 73
2, 146765, Control_c, 0, 64, 69
2, 146784, Control_c, 0, 64, 65
2, 146793, Note_on_c, 0, 45, 0
2, 146803, Control_c, 0, 64, 62
2, 146810, Note_on_c, 0, 47, 39
2, 146822, Control_c, 0, 64, 59
2, 146833, Note_on_c, 0, 74, 71
2, 146839, Control_c, 0, 64, 58
2, 146851, Note_on_c, 0, 69, 0
2, 146859, Control_c, 0, 64, 56
2, 146916, Control_c, 0, 64, 57
2, 146936, Control_c, 0, 64, 60
2, 146954, Control_c, 0, 64, 62
2, 146974, Control_c, 0, 64, 64
2, 146993, Control_c, 0, 64, 66
2, 147013, Control_c, 0, 64, 68
2, 147030, Note_on_c, 0, 73, 72
2, 147035, Control_c, 0, 64, 71
2, 147055, Control_c, 0, 64, 73
2, 147062, Note_on_c, 0, 74, 0
2, 147073, Control_c, 0, 64, 75
2, 147093, Control_c, 0, 64, 77
2, 147112, Control_c, 0, 64, 78
2, 147132, Control_c, 0, 64, 78
2, 147150, Control_c, 0, 64, 79
2, 147205, Note_on_c, 0, 71, 75
2, 147218, Note_on_c, 0, 73, 0
2, 147266, Control_c, 0, 64, 78
2, 147285, Control_c, 0, 64, 78
2, 147304, Control_c, 0, 64, 77
2, 147324, Control_c, 0, 64, 76
2, 147343, Control_c, 0, 64, 73
2, 147361, Control_c, 0, 64, 68
2, 147378, Note_on_c, 0, 49, 50
2, 147381, Control_c, 0, 64, 64
2, 147387, Note_on_c, 0, 71, 0
2, 147400, Control_c, 0, 64, 62
2, 147400, Note_on_c, 0, 69, 75
2, 147416, Note_on_c, 0, 47, 0
2, 147419, Control_c, 0, 64, 60
2, 147438, Control_c, 0, 64, 59
2, 147458, Control_c, 0, 64, 58
2, 147496, Control_c, 0, 64, 59
2, 147515, Control_c, 0, 64, 61
2, 147535, Control_c, 0, 64, 63
2, 147553, Control_c, 0, 64, 65
2, 147573, Control_c, 0, 64, 68
2, 147583, Note_on_c, 0, 68, 78
2, 147592, Control_c, 0, 64, 72
2, 147605, Note_on_c, 0, 69, 0
2, 147612, Control_c, 0, 64, 76
2, 147630, Control_c, 0, 64, 79
2, 147650, Control_c, 0, 64, 80
2, 147651, Note_on_c, 0, 54, 0
2, 147669, Control_c, 0, 64, 81
2, 147688, Control_c, 0, 64, 82
2, 147707, Control_c, 0, 64, 83
2, 147727, Control_c, 0, 64, 83
2, 147768, Note_on_c, 0, 66, 78
2, 147793, Note_on_c, 0, 68, 0
2, 147860, Control_c, 0, 64, 83
2, 147879, Control_c, 0, 64, 82
2, 147898, Control_c, 0, 64, 81
2, 147917, Control_c, 0, 64, 79
2, 147924, Note_on_c, 0, 49, 0
2, 147937, Control_c, 0, 64, 77
2, 147956, Control_c, 0, 64, 74
2, 147975, Control_c, 0, 64, 69
2, 147988, Note_on_c, 0, 68, 80
2, 147992, Note_on_c, 0, 53, 51
2, 147998, Control_c, 0, 64, 64
2, 148003, Note_on_c, 0, 47, 47
2, 148018, Control_c, 0, 64, 60
2, 148020, Note_on_c, 0, 66, 0
2, 148036, Control_c, 0, 64, 57
2, 148056, Control_c, 0, 64, 54
2, 148075, Control_c, 0, 64, 51
2, 148094, Control_c, 0, 64, 49
2, 148113, Control_c, 0, 64, 48
2, 148152, Control_c, 0, 64, 48
2, 148171, Control_c, 0, 64, 49
2, 148190, Control_c, 0, 64, 52
2, 148204, Note_on_c, 0, 66, 69
2, 148210, Control_c, 0, 64, 55
2, 148228, Control_c, 0, 64, 59
2, 148238, Note_on_c, 0, 68, 0
2, 148248, Control_c, 0, 64, 62
2, 148270, Control_c, 0, 64, 63
2, 148289, Control_c, 0, 64, 64
2, 148308, Control_c, 0, 64, 66
2, 148327, Control_c, 0, 64, 68
2, 148347, Control_c, 0, 64, 70
2, 148365, Control_c, 0, 64, 73
2, 148368, Note_on_c, 0, 53, 0
2, 148385, Control_c, 0, 64, 76
2, 148404, Control_c, 0, 64, 78
2, 148424, Control_c, 0, 64, 79
2, 148430, Note_on_c, 0, 65, 69
2, 148433, Note_on_c, 0, 66, 0
2, 148442, Control_c, 0, 64, 80
2, 148509, Note_on_c, 0, 47, 0
2, 148519, Control_c, 0, 64, 81
2, 148673, Control_c, 0, 64, 80
2, 148692, Control_c, 0, 64, 80
2, 148711, Control_c, 0, 64, 79
2, 148730, Control_c, 0, 64, 79
2, 148750, Control_c, 0, 64, 78
2, 148768, Control_c, 0, 64, 76
2, 148772, Note_on_c, 0, 46, 44
2, 148787, Control_c, 0, 64, 75
2, 148806, Control_c, 0, 64, 73
2, 148826, Control_c, 0, 64, 71
2, 148844, Note_on_c, 0, 66, 64
2, 148845, Control_c, 0, 64, 68
2, 148864, Control_c, 0, 64, 66
2, 148883, Control_c, 0, 64, 65
2, 148888, Note_on_c, 0, 65, 0
2, 148903, Control_c, 0, 64, 63
2, 148921, Control_c, 0, 64, 62
2, 148941, Control_c, 0, 64, 60
2, 148956, Control_c, 0, 64, 57
2, 148976, Control_c, 0, 64, 55
2, 148995, Control_c, 0, 64, 52
2, 149013, Control_c, 0, 64, 51
2, 149033, Control_c, 0, 64, 49
2, 149052, Control_c, 0, 64, 49
2, 149110, Control_c, 0, 64, 49
2, 149129, Control_c, 0, 64, 52
2, 149148, Control_c, 0, 64, 55
2, 149167, Control_c, 0, 64, 59
2, 149187, Control_c, 0, 64, 61
2, 149205, Control_c, 0, 64, 62
2, 149225, Control_c, 0, 64, 63
2, 149244, Control_c, 0, 64, 64
2, 149264, Control_c, 0, 64, 66
2, 149282, Control_c, 0, 64, 67
2, 149302, Control_c, 0, 64, 69
2, 149321, Control_c, 0, 64, 70
2, 149341, Control_c, 0, 64, 72
2, 149435, Note_on_c, 0, 64, 14
2, 149456, Control_c, 0, 64, 72
2, 149493, Control_c, 0, 64, 72
2, 149572, Note_on_c, 0, 64, 0
2, 149630, Note_on_c, 0, 62, 27
2, 149667, Control_c, 0, 64, 71
2, 149705, Control_c, 0, 64, 71
2, 149744, Control_c, 0, 64, 70
2, 149762, Control_c, 0, 64, 69
2, 149782, Control_c, 0, 64, 67
2, 149801, Control_c, 0, 64, 65
2, 149804, Note_on_c, 0, 62, 0
2, 149821, Control_c, 0, 64, 62
2, 149830, Note_on_c, 0, 61, 34
2, 149834, Note_on_c, 0, 54, 26
2, 149839, Control_c, 0, 64, 60
2, 149859, Control_c, 0, 64, 59
2, 149878, Control_c, 0, 64, 58
2, 149916, Control_c, 0, 64, 59
2, 149936, Control_c, 0, 64, 60
2, 149955, Control_c, 0, 64, 62
2, 149960, Note_on_c, 0, 46, 0
2, 149973, Control_c, 0, 64, 64
2, 149987, Note_on_c, 0, 61, 0
2, 149993, Control_c, 0, 64, 65
2, 150012, Control_c, 0, 64, 66
2, 150024, Note_on_c, 0, 62, 36
2, 150031, Control_c, 0, 64, 67
2, 150050, Control_c, 0, 64, 68
2, 150070, Control_c, 0, 64, 69
2, 150089, Control_c, 0, 64, 70
2, 150165, Control_c, 0, 64, 70
2, 150173, Note_on_c, 0, 62, 0
2, 150200, Note_on_c, 0, 64, 53
2, 150319, Control_c, 0, 64, 70
2, 150339, Control_c, 0, 64, 69
2, 150358, Control_c, 0, 64, 68
2, 150366, Note_on_c, 0, 64, 0
2, 150377, Control_c, 0, 64, 66
2, 150396, Control_c, 0, 64, 64
2, 150410, Note_on_c, 0, 47, 35
2, 150415, Note_on_c, 0, 62, 43
2, 150416, Control_c, 0, 64, 61
2, 150435, Control_c, 0, 64, 59
2, 150453, Control_c, 0, 64, 57
2, 150473, Control_c, 0, 64, 56
2, 150485, Note_on_c, 0, 54, 0
2, 150530, Control_c, 0, 64, 57
2, 150539, Note_on_c, 0, 62, 0
2, 150550, Control_c, 0, 64, 60
2, 150569, Control_c, 0, 64, 62
2, 150588, Control_c, 0, 64, 63
2, 150588, Note_on_c, 0, 61, 45
2, 150607, Control_c, 0, 64, 65
2, 150627, Control_c, 0, 64, 66
2, 150645, Control_c, 0, 64, 68
2, 150665, Control_c, 0, 64, 70
2, 150682, Control_c, 0, 64, 71
2, 150701, Control_c, 0, 64, 72
2, 150747, Note_on_c, 0, 61, 0
2, 150778, Control_c, 0, 64, 72
2, 150782, Note_on_c, 0, 59, 48
2, 150896, Control_c, 0, 64, 72
2, 150915, Control_c, 0, 64, 71
2, 150933, Control_c, 0, 64, 71
2, 150953, Control_c, 0, 64, 70
2, 150970, Note_on_c, 0, 59, 0
2, 150972, Control_c, 0, 64, 68
2, 150979, Note_on_c, 0, 49, 30
2, 150991, Control_c, 0, 64, 65
2, 150991, Note_on_c, 0, 58, 43
2, 150999, Note_on_c, 0, 47, 0
2, 151010, Control_c, 0, 64, 62
2, 151030, Control_c, 0, 64, 59
2, 151049, Control_c, 0, 64, 58
2, 151068, Control_c, 0, 64, 56
2, 151087, Control_c, 0, 64, 55
2, 151145, Control_c, 0, 64, 56
2, 151161, Note_on_c, 0, 58, 0
2, 151164, Control_c, 0, 64, 59
2, 151172, Note_on_c, 0, 59, 43
2, 151184, Control_c, 0, 64, 61
2, 151202, Control_c, 0, 64, 63
2, 151222, Control_c, 0, 64, 64
2, 151241, Control_c, 0, 64, 65
2, 151261, Control_c, 0, 64, 66
2, 151279, Control_c, 0, 64, 66
2, 151299, Control_c, 0, 64, 67
2, 151337, Control_c, 0, 64, 67
2, 151359, Note_on_c, 0, 59, 0
2, 151395, Control_c, 0, 64, 68
2, 151409, Note_on_c, 0, 61, 31
2, 151548, Control_c, 0, 64, 67
2, 151567, Control_c, 0, 64, 67
2, 151587, Control_c, 0, 64, 66
2, 151605, Control_c, 0, 64, 65
2, 151625, Control_c, 0, 64, 64
2, 151644, Control_c, 0, 64, 63
2, 151662, Note_on_c, 0, 50, 25
2, 151663, Control_c, 0, 64, 61
2, 151681, Control_c, 0, 64, 57
2, 151688, Note_on_c, 0, 61, 0
2, 151691, Note_on_c, 0, 59, 40
2, 151701, Control_c, 0, 64, 53
2, 151709, Note_on_c, 0, 49, 0
2, 151720, Control_c, 0, 64, 51
2, 151740, Control_c, 0, 64, 50
2, 151797, Control_c, 0, 64, 50
2, 151816, Control_c, 0, 64, 54
2, 151835, Control_c, 0, 64, 58
2, 151855, Control_c, 0, 64, 62
2, 151874, Control_c, 0, 64, 64
2, 151892, Control_c, 0, 64, 66
2, 151912, Control_c, 0, 64, 68
2, 151931, Control_c, 0, 64, 70
2, 151951, Control_c, 0, 64, 73
2, 151967, Note_on_c, 0, 50, 0
2, 151969, Control_c, 0, 64, 77
2, 151989, Control_c, 0, 64, 81
2, 152008, Control_c, 0, 64, 84
2, 152027, Control_c, 0, 64, 86
2, 152039, Note_on_c, 0, 59, 0
2, 152046, Control_c, 0, 64, 86
2, 152064, Note_on_c, 0, 65, 61
2, 152066, Control_c, 0, 64, 87
2, 152085, Control_c, 0, 64, 87
2, 152104, Control_c, 0, 64, 89
2, 152123, Control_c, 0, 64, 90
2, 152220, Control_c, 0, 64, 89
2, 152229, Note_on_c, 0, 66, 0
2, 152238, Control_c, 0, 64, 88
2, 152258, Control_c, 0, 64, 87
2, 152277, Control_c, 0, 64, 85
2, 152296, Control_c, 0, 64, 81
2, 152315, Control_c, 0, 64, 77
2, 152335, Control_c, 0, 64, 73
2, 152354, Control_c, 0, 64, 68
2, 152372, Control_c, 0, 64, 64
2, 152392, Control_c, 0, 64, 62
2, 152397, Note_on_c, 0, 57, 39
2, 152402, Note_on_c, 0, 54, 36
2, 152403, Note_on_c, 0, 47, 39
2, 152411, Control_c, 0, 64, 60
2, 152431, Control_c, 0, 64, 59
2, 152449, Control_c, 0, 64, 59
2, 152488, Control_c, 0, 64, 59
2, 152507, Control_c, 0, 64, 61
2, 152526, Control_c, 0, 64, 63
2, 152546, Control_c, 0, 64, 65
2, 152565, Control_c, 0, 64, 68
2, 152584, Control_c, 0, 64, 71
2, 152596, Control_c, 0, 64, 76
2, 152617, Control_c, 0, 64, 80
2, 152632, Note_on_c, 0, 47, 0
2, 152636, Control_c, 0, 64, 85
2, 152656, Control_c, 0, 64, 88
2, 152670, Note_on_c, 0, 54, 0
2, 152674, Control_c, 0, 64, 91
2, 152693, Control_c, 0, 64, 93
2, 152707, Note_on_c, 0, 57, 0
2, 152713, Control_c, 0, 64, 94
2, 152720, Note_on_c, 0, 66, 70
2, 152731, Control_c, 0, 64, 94
2, 152737, Note_on_c, 0, 65, 0
2, 152751, Control_c, 0, 64, 95
2, 152770, Control_c, 0, 64, 95
2, 152796, Control_c, 0, 64, 96
2, 152892, Control_c, 0, 64, 95
2, 152911, Control_c, 0, 64, 94
2, 152930, Control_c, 0, 64, 93
2, 152950, Control_c, 0, 64, 92
2, 152969, Control_c, 0, 64, 90
2, 152988, Control_c, 0, 64, 89
2, 153007, Control_c, 0, 64, 86
2, 153027, Control_c, 0, 64, 83
2, 153045, Control_c, 0, 64, 80
2, 153052, Note_on_c, 0, 53, 33
2, 153057, Note_on_c, 0, 56, 31
2, 153065, Control_c, 0, 64, 77
2, 153070, Note_on_c, 0, 49, 35
2, 153084, Control_c, 0, 64, 74
2, 153104, Control_c, 0, 64, 71
2, 153122, Control_c, 0, 64, 68
2, 153142, Control_c, 0, 64, 66
2, 153146, Note_on_c, 0, 74, 63
2, 153161, Control_c, 0, 64, 64
2, 153181, Control_c, 0, 64, 62
2, 153182, Note_on_c, 0, 66, 0
2, 153199, Control_c, 0, 64, 60
2, 153219, Control_c, 0, 64, 59
2, 153238, Control_c, 0, 64, 58
2, 153257, Control_c, 0, 64, 57
2, 153315, Control_c, 0, 64, 58
2, 153333, Control_c, 0, 64, 59
2, 153353, Control_c, 0, 64, 60
2, 153372, Control_c, 0, 64, 62
2, 153391, Control_c, 0, 64, 63
2, 153410, Control_c, 0, 64, 64
2, 153430, Control_c, 0, 64, 66
2, 153449, Control_c, 0, 64, 68
2, 153468, Control_c, 0, 64, 70
2, 153487, Control_c, 0, 64, 73
2, 153507, Control_c, 0, 64, 76
2, 153525, Control_c, 0, 64, 79
2, 153525, Note_on_c, 0, 72, 64
2, 153545, Control_c, 0, 64, 81
2, 153545, Note_on_c, 0, 53, 0
2, 153561, Control_c, 0, 64, 82
2, 153581, Control_c, 0, 64, 83
2, 153594, Note_on_c, 0, 74, 0
2, 153600, Control_c, 0, 64, 83
2, 153638, Control_c, 0, 64, 84
2, 153734, Control_c, 0, 64, 83
2, 153751, Note_on_c, 0, 56, 0
2, 153756, Control_c, 0, 64, 83
2, 153776, Control_c, 0, 64, 82
2, 153795, Control_c, 0, 64, 81
2, 153813, Control_c, 0, 64, 78
2, 153833, Control_c, 0, 64, 73
2, 153843, Note_on_c, 0, 57, 38
2, 153852, Control_c, 0, 64, 67
2, 153856, Note_on_c, 0, 54, 35
2, 153871, Control_c, 0, 64, 63
2, 153890, Control_c, 0, 64, 61
2, 153929, Control_c, 0, 64, 62
2, 153948, Control_c, 0, 64, 64
2, 153967, Control_c, 0, 64, 65
2, 153987, Control_c, 0, 64, 68
2, 154005, Control_c, 0, 64, 71
2, 154025, Control_c, 0, 64, 74
2, 154044, Control_c, 0, 64, 77
2, 154064, Control_c, 0, 64, 78
2, 154102, Control_c, 0, 64, 79
2, 154139, Note_on_c, 0, 73, 64
2, 154193, Note_on_c, 0, 72, 0
2, 154217, Control_c, 0, 64, 79
2, 154229, Note_on_c, 0, 57, 0
2, 154359, Note_on_c, 0, 54, 0
2, 154390, Control_c, 0, 64, 79
2, 154409, Control_c, 0, 64, 78
2, 154428, Control_c, 0, 64, 78
2, 154447, Control_c, 0, 64, 75
2, 154456, Note_on_c, 0, 65, 62
2, 154467, Control_c, 0, 64, 70
2, 154485, Control_c, 0, 64, 64
2, 154485, Note_on_c, 0, 73, 0
2, 154505, Control_c, 0, 64, 61
2, 154517, Note_on_c, 0, 59, 36
2, 154520, Control_c, 0, 64, 59
2, 154521, Note_on_c, 0, 56, 22
2, 154540, Control_c, 0, 64, 58
2, 154559, Control_c, 0, 64, 57
2, 154597, Control_c, 0, 64, 58
2, 154617, Control_c, 0, 64, 61
2, 154635, Control_c, 0, 64, 63
2, 154654, Control_c, 0, 64, 65
2, 154674, Control_c, 0, 64, 67
2, 154693, Control_c, 0, 64, 69
2, 154714, Control_c, 0, 64, 72
2, 154733, Control_c, 0, 64, 74
2, 154753, Control_c, 0, 64, 75
2, 154754, Note_on_c, 0, 59, 0
2, 154771, Control_c, 0, 64, 76
2, 154786, Note_on_c, 0, 71, 66
2, 154802, Note_on_c, 0, 56, 0
2, 154810, Control_c, 0, 64, 76
2, 154820, Note_on_c, 0, 65, 0
2, 154848, Control_c, 0, 64, 77
2, 154868, Control_c, 0, 64, 77
2, 155002, Control_c, 0, 64, 77
2, 155040, Control_c, 0, 64, 76
2, 155060, Control_c, 0, 64, 76
2, 155079, Control_c, 0, 64, 74
2, 155084, Note_on_c, 0, 54, 49
2, 155096, Note_on_c, 0, 49, 0
2, 155099, Control_c, 0, 64, 70
2, 155109, Note_on_c, 0, 50, 42
2, 155117, Control_c, 0, 64, 66
2, 155137, Control_c, 0, 64, 62
2, 155156, Control_c, 0, 64, 60
2, 155176, Control_c, 0, 64, 59
2, 155194, Control_c, 0, 64, 58
2, 155213, Control_c, 0, 64, 59
2, 155233, Control_c, 0, 64, 61
2, 155251, Control_c, 0, 64, 64
2, 155271, Control_c, 0, 64, 66
2, 155290, Control_c, 0, 64, 69
2, 155310, Control_c, 0, 64, 72
2, 155328, Control_c, 0, 64, 74
2, 155348, Control_c, 0, 64, 75
2, 155367, Control_c, 0, 64, 75
2, 155386, Control_c, 0, 64, 76
2, 155389, Note_on_c, 0, 69, 68
2, 155412, Note_on_c, 0, 71, 0
2, 155444, Control_c, 0, 64, 76
2, 155579, Control_c, 0, 64, 76
2, 155597, Control_c, 0, 64, 75
2, 155617, Control_c, 0, 64, 74
2, 155636, Control_c, 0, 64, 73
2, 155656, Control_c, 0, 64, 71
2, 155674, Control_c, 0, 64, 68
2, 155693, Control_c, 0, 64, 65
2, 155693, Note_on_c, 0, 47, 33
2, 155713, Control_c, 0, 64, 63
2, 155730, Note_on_c, 0, 68, 62
2, 155731, Control_c, 0, 64, 60
2, 155746, Note_on_c, 0, 69, 0
2, 155749, Note_on_c, 0, 50, 0
2, 155751, Control_c, 0, 64, 58
2, 155770, Control_c, 0, 64, 56
2, 155790, Control_c, 0, 64, 55
2, 155828, Control_c, 0, 64, 56
2, 155847, Control_c, 0, 64, 58
2, 155866, Control_c, 0, 64, 61
2, 155885, Control_c, 0, 64, 63
2, 155905, Control_c, 0, 64, 65
2, 155924, Control_c, 0, 64, 66
2, 155938, Note_on_c, 0, 68, 0
2, 155941, Note_on_c, 0, 71, 62
2, 155943, Control_c, 0, 64, 68
2, 155962, Control_c, 0, 64, 69
2, 155982, Control_c, 0, 64, 70
2, 156000, Control_c, 0, 64, 71
2, 156060, Note_on_c, 0, 54, 0
2, 156077, Control_c, 0, 64, 71
2, 156116, Control_c, 0, 64, 72
2, 156127, Note_on_c, 0, 69, 65
2, 156134, Note_on_c, 0, 71, 0
2, 156211, Control_c, 0, 64, 71
2, 156250, Control_c, 0, 64, 70
2, 156270, Control_c, 0, 64, 69
2, 156288, Control_c, 0, 64, 67
2, 156288, Note_on_c, 0, 47, 0
2, 156308, Control_c, 0, 64, 64
2, 156312, Note_on_c, 0, 68, 66
2, 156315, Note_on_c, 0, 69, 0
2, 156327, Control_c, 0, 64, 62
2, 156346, Control_c, 0, 64, 60
2, 156353, Note_on_c, 0, 49, 22
2, 156357, Note_on_c, 0, 53, 27
2, 156365, Control_c, 0, 64, 58
2, 156385, Control_c, 0, 64, 57
2, 156404, Control_c, 0, 64, 57
2, 156423, Control_c, 0, 64, 57
2, 156441, Control_c, 0, 64, 59
2, 156460, Control_c, 0, 64, 62
2, 156479, Control_c, 0, 64, 64
2, 156491, Note_on_c, 0, 66, 65
2, 156494, Note_on_c, 0, 68, 0
2, 156495, Control_c, 0, 64, 65
2, 156514, Control_c, 0, 64, 68
2, 156534, Control_c, 0, 64, 71
2, 156552, Control_c, 0, 64, 73
2, 156572, Control_c, 0, 64, 75
2, 156591, Control_c, 0, 64, 76
2, 156611, Control_c, 0, 64, 77
2, 156634, Control_c, 0, 64, 77
2, 156642, Note_on_c, 0, 49, 0
2, 156646, Note_on_c, 0, 53, 0
2, 156672, Control_c, 0, 64, 78
2, 156679, Note_on_c, 0, 66, 0
2, 156682, Note_on_c, 0, 65, 68
2, 156788, Control_c, 0, 64, 77
2, 156808, Control_c, 0, 64, 76
2, 156826, Control_c, 0, 64, 75
2, 156846, Control_c, 0, 64, 72
2, 156865, Control_c, 0, 64, 68
2, 156871, Note_on_c, 0, 49, 29
2, 156881, Note_on_c, 0, 66, 68
2, 156882, Note_on_c, 0, 65, 0
2, 156883, Control_c, 0, 64, 64
2, 156885, Note_on_c, 0, 45, 37
2, 156903, Control_c, 0, 64, 61
2, 156922, Control_c, 0, 64, 59
2, 156942, Control_c, 0, 64, 58
2, 156960, Control_c, 0, 64, 57
2, 156980, Control_c, 0, 64, 56
2, 157018, Control_c, 0, 64, 58
2, 157037, Control_c, 0, 64, 61
2, 157057, Control_c, 0, 64, 63
2, 157074, Note_on_c, 0, 68, 77
2, 157076, Control_c, 0, 64, 64
2, 157093, Note_on_c, 0, 66, 0
2, 157095, Control_c, 0, 64, 66
2, 157114, Control_c, 0, 64, 69
2, 157134, Control_c, 0, 64, 71
2, 157152, Control_c, 0, 64, 74
2, 157172, Control_c, 0, 64, 75
2, 157191, Control_c, 0, 64, 76
2, 157211, Control_c, 0, 64, 76
2, 157229, Control_c, 0, 64, 77
2, 157260, Note_on_c, 0, 69, 80
2, 157265, Note_on_c, 0, 68, 0
2, 157363, Control_c, 0, 64, 76
2, 157383, Control_c, 0, 64, 75
2, 157398, Control_c, 0, 64, 74
2, 157419, Control_c, 0, 64, 71
2, 157437, Control_c, 0, 64, 67
2, 157455, Note_on_c, 0, 53, 43
2, 157457, Control_c, 0, 64, 63
2, 157459, Note_on_c, 0, 71, 73
2, 157474, Note_on_c, 0, 44, 41
2, 157476, Control_c, 0, 64, 59
2, 157493, Note_on_c, 0, 69, 0
2, 157496, Control_c, 0, 64, 57
2, 157502, Note_on_c, 0, 49, 0
2, 157514, Control_c, 0, 64, 57
2, 157534, Control_c, 0, 64, 56
2, 157536, Note_on_c, 0, 45, 0
2, 157553, Control_c, 0, 64, 57
2, 157573, Control_c, 0, 64, 60
2, 157592, Control_c, 0, 64, 63
2, 157612, Control_c, 0, 64, 65
2, 157631, Control_c, 0, 64, 68
2, 157650, Control_c, 0, 64, 72
2, 157652, Note_on_c, 0, 73, 76
2, 157663, Note_on_c, 0, 71, 0
2, 157669, Control_c, 0, 64, 76
2, 157689, Control_c, 0, 64, 79
2, 157708, Control_c, 0, 64, 80
2, 157746, Control_c, 0, 64, 79
2, 157768, Note_on_c, 0, 44, 0
2, 157842, Control_c, 0, 64, 79
2, 157861, Control_c, 0, 64, 78
2, 157864, Note_on_c, 0, 74, 71
2, 157881, Note_on_c, 0, 73, 0
2, 157900, Control_c, 0, 64, 78
2, 157957, Control_c, 0, 64, 77
2, 157977, Control_c, 0, 64, 77
2, 157995, Control_c, 0, 64, 76
2, 158015, Control_c, 0, 64, 75
2, 158033, Note_on_c, 0, 45, 41
2, 158034, Control_c, 0, 64, 73
2, 158053, Control_c, 0, 64, 71
2, 158072, Control_c, 0, 64, 67
2, 158077, Note_on_c, 0, 74, 0
2, 158092, Control_c, 0, 64, 64
2, 158111, Control_c, 0, 64, 60
2, 158116, Note_on_c, 0, 61, 67
2, 158130, Control_c, 0, 64, 57
2, 158149, Control_c, 0, 64, 55
2, 158188, Control_c, 0, 64, 57
2, 158207, Control_c, 0, 64, 60
2, 158226, Control_c, 0, 64, 63
2, 158246, Control_c, 0, 64, 65
2, 158264, Control_c, 0, 64, 68
2, 158283, Control_c, 0, 64, 71
2, 158285, Note_on_c, 0, 53, 0
2, 158303, Control_c, 0, 64, 75
2, 158322, Control_c, 0, 64, 77
2, 158340, Note_on_c, 0, 54, 52
2, 158341, Control_c, 0, 64, 77
2, 158360, Control_c, 0, 64, 77
2, 158380, Control_c, 0, 64, 76
2, 158481, Note_on_c, 0, 54, 0
2, 158536, Note_on_c, 0, 52, 61
2, 158591, Control_c, 0, 64, 76
2, 158610, Control_c, 0, 64, 75
2, 158629, Control_c, 0, 64, 75
2, 158668, Control_c, 0, 64, 74
2, 158687, Control_c, 0, 64, 74
2, 158706, Control_c, 0, 64, 73
2, 158726, Control_c, 0, 64, 71
2, 158744, Control_c, 0, 64, 69
2, 158755, Note_on_c, 0, 52, 0
2, 158755, Note_on_c, 0, 66, 74
2, 158766, Control_c, 0, 64, 66
2, 158774, Note_on_c, 0, 45, 0
2, 158779, Note_on_c, 0, 56, 59
2, 158782, Note_on_c, 0, 50, 54
2, 158786, Control_c, 0, 64, 63
2, 158789, Note_on_c, 0, 61, 0
2, 158805, Control_c, 0, 64, 60
2, 158824, Control_c, 0, 64, 57
2, 158843, Control_c, 0, 64, 55
2, 158863, Control_c, 0, 64, 53
2, 158881, Control_c, 0, 64, 52
2, 158901, Control_c, 0, 64, 52
2, 158920, Control_c, 0, 64, 51
2, 158958, Control_c, 0, 64, 52
2, 158968, Note_on_c, 0, 50, 0
2, 158978, Control_c, 0, 64, 53
2, 158981, Note_on_c, 0, 49, 60
2, 158997, Control_c, 0, 64, 56
2, 159015, Control_c, 0, 64, 58
2, 159035, Control_c, 0, 64, 61
2, 159054, Control_c, 0, 64, 62
2, 159074, Control_c, 0, 64, 63
2, 159092, Control_c, 0, 64, 64
2, 159112, Control_c, 0, 64, 66
2, 159131, Control_c, 0, 64, 67
2, 159151, Control_c, 0, 64, 69
2, 159169, Control_c, 0, 64, 70
2, 159189, Control_c, 0, 64, 71
2, 159196, Note_on_c, 0, 49, 0
2, 159207, Note_on_c, 0, 47, 57
2, 159285, Control_c, 0, 64, 71
2, 159420, Control_c, 0, 64, 71
2, 159438, Control_c, 0, 64, 70
2, 159445, Note_on_c, 0, 56, 0
2, 159458, Control_c, 0, 64, 68
2, 159477, Control_c, 0, 64, 66
2, 159493, Note_on_c, 0, 57, 57
2, 159494, Note_on_c, 0, 47, 0
2, 159495, Control_c, 0, 64, 64
2, 159501, Note_on_c, 0, 49, 53
2, 159516, Control_c, 0, 64, 62
2, 159535, Control_c, 0, 64, 59
2, 159555, Control_c, 0, 64, 55
2, 159573, Control_c, 0, 64, 53
2, 159593, Control_c, 0, 64, 51
2, 159612, Control_c, 0, 64, 49
2, 159670, Control_c, 0, 64, 50
2, 159689, Control_c, 0, 64, 54
2, 159708, Control_c, 0, 64, 58
2, 159727, Control_c, 0, 64, 62
2, 159735, Note_on_c, 0, 66, 0
2, 159747, Control_c, 0, 64, 64
2, 159765, Control_c, 0, 64, 65
2, 159785, Control_c, 0, 64, 67
2, 159804, Control_c, 0, 64, 69
2, 159824, Control_c, 0, 64, 71
2, 159842, Control_c, 0, 64, 72
2, 159862, Control_c, 0, 64, 73
2, 159942, Note_on_c, 0, 66, 69
2, 159958, Control_c, 0, 64, 74
2, 159977, Control_c, 0, 64, 74
2, 159996, Control_c, 0, 64, 75
2, 160001, Note_on_c, 0, 57, 0
2, 160015, Control_c, 0, 64, 75
2, 160111, Control_c, 0, 64, 76
2, 160340, Control_c, 0, 64, 75
2, 160379, Control_c, 0, 64, 75
2, 160397, Control_c, 0, 64, 74
2, 160417, Control_c, 0, 64, 72
2, 160419, Note_on_c, 0, 59, 59
2, 160436, Control_c, 0, 64, 71
2, 160439, Note_on_c, 0, 37, 51
2, 160455, Control_c, 0, 64, 69
2, 160475, Control_c, 0, 64, 66
2, 160494, Control_c, 0, 64, 65
2, 160514, Control_c, 0, 64, 64
2, 160532, Control_c, 0, 64, 63
2, 160552, Control_c, 0, 64, 62
2, 160571, Control_c, 0, 64, 60
2, 160591, Control_c, 0, 64, 58
2, 160609, Control_c, 0, 64, 56
2, 160629, Control_c, 0, 64, 55
2, 160648, Control_c, 0, 64, 54
2, 160706, Control_c, 0, 64, 55
2, 160725, Control_c, 0, 64, 58
2, 160744, Control_c, 0, 64, 61
2, 160763, Control_c, 0, 64, 63
2, 160783, Control_c, 0, 64, 65
2, 160801, Control_c, 0, 64, 66
2, 160821, Control_c, 0, 64, 68
2, 160840, Control_c, 0, 64, 69
2, 160860, Control_c, 0, 64, 70
2, 160878, Control_c, 0, 64, 71
2, 160898, Control_c, 0, 64, 72
2, 160935, Control_c, 0, 64, 71
2, 160994, Control_c, 0, 64, 71
2, 161012, Control_c, 0, 64, 70
2, 161030, Note_on_c, 0, 65, 62
2, 161032, Control_c, 0, 64, 69
2, 161051, Control_c, 0, 64, 68
2, 161071, Control_c, 0, 64, 65
2, 161089, Control_c, 0, 64, 63
2, 161092, Note_on_c, 0, 66, 0
2, 161109, Control_c, 0, 64, 60
2, 161128, Control_c, 0, 64, 58
2, 161147, Control_c, 0, 64, 56
2, 161166, Control_c, 0, 64, 55
2, 161186, Control_c, 0, 64, 54
2, 161242, Control_c, 0, 64, 55
2, 161262, Control_c, 0, 64, 58
2, 161280, Control_c, 0, 64, 60
2, 161300, Control_c, 0, 64, 62
2, 161319, Control_c, 0, 64, 64
2, 161339, Control_c, 0, 64, 65
2, 161357, Control_c, 0, 64, 67
2, 161377, Control_c, 0, 64, 69
2, 161396, Control_c, 0, 64, 72
2, 161415, Control_c, 0, 64, 75
2, 161435, Control_c, 0, 64, 78
2, 161454, Control_c, 0, 64, 80
2, 161474, Control_c, 0, 64, 83
2, 161490, Note_on_c, 0, 59, 0
2, 161492, Control_c, 0, 64, 85
2, 161512, Control_c, 0, 64, 85
2, 161608, Control_c, 0, 64, 85
2, 161877, Control_c, 0, 64, 84
2, 162011, Control_c, 0, 64, 84
2, 162069, Control_c, 0, 64, 83
2, 162088, Control_c, 0, 64, 83
2, 162107, Control_c, 0, 64, 82
2, 162126, Control_c, 0, 64, 81
2, 162146, Control_c, 0, 64, 80
2, 162165, Control_c, 0, 64, 79
2, 162178, Note_on_c, 0, 66, 49
2, 162184, Control_c, 0, 64, 78
2, 162192, Note_on_c, 0, 58, 43
2, 162202, Control_c, 0, 64, 77
2, 162207, Note_on_c, 0, 42, 39
2, 162222, Control_c, 0, 64, 76
2, 162240, Control_c, 0, 64, 73
2, 162254, Note_on_c, 0, 65, 0
2, 162260, Control_c, 0, 64, 71
2, 162279, Control_c, 0, 64, 69
2, 162289, Note_on_c, 0, 37, 0
2, 162299, Control_c, 0, 64, 67
2, 162317, Control_c, 0, 64, 66
2, 162337, Control_c, 0, 64, 65
2, 162356, Control_c, 0, 64, 64
2, 162375, Control_c, 0, 64, 64
2, 162395, Control_c, 0, 64, 63
2, 162414, Control_c, 0, 64, 62
2, 162434, Control_c, 0, 64, 61
2, 162452, Control_c, 0, 64, 60
2, 162472, Control_c, 0, 64, 59
2, 162491, Control_c, 0, 64, 58
2, 162511, Control_c, 0, 64, 56
2, 162529, Control_c, 0, 64, 55
2, 162549, Control_c, 0, 64, 55
2, 162568, Control_c, 0, 64, 54
2, 162587, Control_c, 0, 64, 53
2, 162606, Control_c, 0, 64, 52
2, 162626, Control_c, 0, 64, 52
2, 162645, Control_c, 0, 64, 51
2, 162664, Control_c, 0, 64, 51
2, 162683, Control_c, 0, 64, 50
2, 162780, Control_c, 0, 64, 51
2, 162798, Control_c, 0, 64, 52
2, 162818, Control_c, 0, 64, 53
2, 162837, Control_c, 0, 64, 54
2, 162855, Control_c, 0, 64, 56
2, 162875, Control_c, 0, 64, 57
2, 162971, Control_c, 0, 64, 58
2, 162991, Control_c, 0, 64, 59
2, 163009, Control_c, 0, 64, 60
2, 163029, Control_c, 0, 64, 61
2, 163048, Control_c, 0, 64, 62
2, 163067, Control_c, 0, 64, 62
2, 163086, Control_c, 0, 64, 63
2, 163106, Control_c, 0, 64, 64
2, 163125, Control_c, 0, 64, 65
2, 163144, Control_c, 0, 64, 66
2, 163163, Control_c, 0, 64, 67
2, 163180, Control_c, 0, 64, 68
2, 163198, Control_c, 0, 64, 69
2, 163218, Control_c, 0, 64, 70
2, 163237, Control_c, 0, 64, 72
2, 163257, Control_c, 0, 64, 74
2, 163275, Control_c, 0, 64, 75
2, 163295, Control_c, 0, 64, 76
2, 163314, Control_c, 0, 64, 78
2, 163333, Control_c, 0, 64, 80
2, 163352, Control_c, 0, 64, 82
2, 163372, Control_c, 0, 64, 84
2, 163391, Control_c, 0, 64, 86
2, 163410, Control_c, 0, 64, 87
2, 163429, Control_c, 0, 64, 90
2, 163449, Control_c, 0, 64, 93
2, 163468, Control_c, 0, 64, 96
2, 163487, Control_c, 0, 64, 100
2, 163506, Control_c, 0, 64, 104
2, 163526, Control_c, 0, 64, 107
2, 163544, Control_c, 0, 64, 112
2, 163563, Control_c, 0, 64, 117
2, 163583, Control_c, 0, 64, 127
2, 167414, Note_on_c, 0, 49, 0
2, 167473, Note_on_c, 0, 58, 0
2, 167533, Note_on_c, 0, 42, 0
2, 167582, Note_on_c, 0, 66, 0
2, 167922, Control_c, 0, 64, 121
2, 167941, Control_c, 0, 64, 114
2, 167960, Control_c, 0, 64, 110
2, 167980, Control_c, 0, 64, 108
2, 167998, Control_c, 0, 64, 107
2, 168018, Control_c, 0, 64, 106
2, 168037, Control_c, 0, 64, 105
2, 168057, Control_c, 0, 64, 103
2, 168075, Control_c, 0, 64, 99
2, 168095, Control_c, 0, 64, 95
2, 168114, Control_c, 0, 64, 91
2, 168133, Control_c, 0, 64, 88
2, 168152, Control_c, 0, 64, 86
2, 168172, Control_c, 0, 64, 84
2, 168191, Control_c, 0, 64, 84
2, 168210, Control_c, 0, 64, 83
2, 168229, Control_c, 0, 64, 82
2, 168249, Control_c, 0, 64, 81
2, 168268, Control_c, 0, 64, 80
2, 168287, Control_c, 0, 64, 79
2, 168306, Control_c, 0, 64, 78
2, 168325, Control_c, 0, 64, 78
2, 168344, Control_c, 0, 64, 77
2, 168363, Control_c, 0, 64, 76
2, 168383, Control_c, 0, 64, 75
2, 168402, Control_c, 0, 64, 74
2, 168421, Control_c, 0, 64, 73
2, 168440, Control_c, 0, 64, 72
2, 168460, Control_c, 0, 64, 71
2, 168478, Control_c, 0, 64, 70
2, 168498, Control_c, 0, 64, 68
2, 168517, Control_c, 0, 64, 67
2, 168537, Control_c, 0, 64, 66
2, 168555, Control_c, 0, 64, 66
2, 168575, Control_c, 0, 64, 65
2, 168594, Control_c, 0, 64, 65
2, 168613, Control_c, 0, 64, 64
2, 168632, Control_c, 0, 64, 64
2, 168652, Control_c, 0, 64, 63
2, 168671, Control_c, 0, 64, 63
2, 168690, Control_c, 0, 64, 62
2, 168709, Control_c, 0, 64, 62
2, 168729, Control_c, 0, 64, 61
2, 168748, Control_c, 0, 64, 61
2, 168767, Control_c, 0, 64, 60
2, 168786, Control_c, 0, 64, 60
2, 168805, Control_c, 0, 64, 59
2, 168843, Control_c, 0, 64, 59
2, 168863, Control_c, 0, 64, 58
2, 168882, Control_c, 0, 64, 58
2, 168901, Control_c, 0, 64, 57
2, 168920, Control_c, 0, 64, 57
2, 168958, Control_c, 0, 64, 56
2, 168978, Control_c, 0, 64, 56
2, 168997, Control_c, 0, 64, 55
2, 169017, Control_c, 0, 64, 54
2, 169035, Control_c, 0, 64, 53
2, 169055, Control_c, 0, 64, 53
2, 169093, Control_c, 0, 64, 52
2, 169134, Control_c, 0, 64, 52
2, 169153, Control_c, 0, 64, 51
2, 169172, Control_c, 0, 64, 50
2, 169211, Control_c, 0, 64, 50
2, 169229, Control_c, 0, 64, 49
2, 169249, Control_c, 0, 64, 49
2, 169268, Control_c, 0, 64, 48
2, 169288, Control_c, 0, 64, 47
2, 169306, Control_c, 0, 64, 47
2, 169325, Control_c, 0, 64, 46
2, 169345, Control_c, 0, 64, 45
2, 169363, Control_c, 0, 64, 44
2, 169383, Control_c, 0, 64, 43
2, 169402, Control_c, 0, 64, 42
2, 169440, Control_c, 0, 64, 41
2, 169460, Control_c, 0, 64, 40
2, 169479, Control_c, 0, 64, 39
2, 169498, Control_c, 0, 64, 39
2, 169517, Control_c, 0, 64, 37
2, 169537, Control_c, 0, 64, 36
2, 169556, Control_c, 0, 64, 35
2, 169575, Control_c, 0, 64, 35
2, 169594, Control_c, 0, 64, 34
2, 169614, Control_c, 0, 64, 34
2, 169633, Control_c, 0, 64, 33
2, 169652, Control_c, 0, 64, 32
2, 169691, Control_c, 0, 64, 32
2, 169729, Control_c, 0, 64, 31
2, 169805, Control_c, 0, 64, 31
2, 170760, Control_c, 0, 64, 31
2, 170972, Control_c, 0, 64, 31
2, 170991, Control_c, 0, 64, 28
2, 171011, Control_c, 0, 64, 22
2, 171029, Control_c, 0, 64, 9
2, 171049, Control_c, 0, 64, 0
2, 174104,End_track
0, 0, End_of_file
