0, 0, Header, 1, 2, 384
1, 0, Start_track
1, 0, Tempo, 500000
1, 0, Time_signature, 4, 2, 24, 8
1, 1, End_track
2,0,Start_track
2,0, Note_on_c, 0, 67, 71
2,57, Note_on_c, 0, 67, 0
2,252, Note_on_c, 0, 69, 73
2,334, Note_on_c, 0, 69, 0
2,348, Note_on_c, 0, 67, 70
2,429, Note_on_c, 0, 67, 0
2,449, Note_on_c, 0, 66, 70
2,530, Note_on_c, 0, 66, 0
2,545, Note_on_c, 0, 67, 71
2,619, Note_on_c, 0, 67, 0
2,657, Note_on_c, 0, 69, 79
2,728, Note_on_c, 0, 69, 0
2,911, Note_on_c, 0, 71, 82
2,1008, Note_on_c, 0, 69, 80
2,1011, Note_on_c, 0, 71, 0
2,1105, Note_on_c, 0, 69, 0
2,1110, Note_on_c, 0, 67, 82
2,1206, Note_on_c, 0, 69, 86
2,1208, Note_on_c, 0, 67, 0
2,1287, Note_on_c, 0, 69, 0
2,1319, Note_on_c, 0, 71, 86
2,1378, Note_on_c, 0, 71, 0
2,1561, Note_on_c, 0, 69, 76
2,1615, Note_on_c, 0, 69, 0
2,1782, Note_on_c, 0, 67, 84
2,1840, Note_on_c, 0, 67, 0
2,2018, Note_on_c, 0, 62, 82
2,2090, Note_on_c, 0, 62, 0
2,2277, Note_on_c, 0, 72, 81
2,2776, Note_on_c, 0, 71, 79
2,2795, Note_on_c, 0, 72, 0
2,2841, Note_on_c, 0, 71, 0
2,3018, Note_on_c, 0, 69, 82
2,3071, Note_on_c, 0, 69, 0
2,3248, Note_on_c, 0, 67, 83
2,3305, Note_on_c, 0, 67, 0
2,3482, Note_on_c, 0, 66, 92
2,3548, Note_on_c, 0, 66, 0
2,3752, Note_on_c, 0, 76, 89
2,4239, Note_on_c, 0, 74, 77
2,4250, Note_on_c, 0, 76, 0
2,4311, Note_on_c, 0, 74, 0
2,4486, Note_on_c, 0, 76, 78
2,4588, Note_on_c, 0, 74, 74
2,4612, Note_on_c, 0, 76, 0
2,4695, Note_on_c, 0, 72, 73
2,4699, Note_on_c, 0, 74, 0
2,4778, Note_on_c, 0, 72, 0
2,4795, Note_on_c, 0, 71, 72
2,4875, Note_on_c, 0, 71, 0
2,4913, Note_on_c, 0, 69, 69
2,4980, Note_on_c, 0, 69, 0
2,5162, Note_on_c, 0, 72, 71
2,5267, Note_on_c, 0, 71, 64
2,5311, Note_on_c, 0, 72, 0
2,5373, Note_on_c, 0, 69, 66
2,5376, Note_on_c, 0, 71, 0
2,5468, Note_on_c, 0, 69, 0
2,5469, Note_on_c, 0, 67, 64
2,5592, Note_on_c, 0, 67, 0
2,5603, Note_on_c, 0, 62, 65
2,5607, Note_on_c, 0, 66, 64
2,5679, Note_on_c, 0, 66, 0
2,5687, Note_on_c, 0, 62, 0
2,5851, Note_on_c, 0, 67, 61
2,5853, Note_on_c, 0, 64, 71
2,5895, Note_on_c, 0, 67, 0
2,5938, Note_on_c, 0, 64, 0
2,5962, Note_on_c, 0, 62, 68
2,6054, Note_on_c, 0, 62, 0
2,6069, Note_on_c, 0, 61, 76
2,6071, Note_on_c, 0, 69, 68
2,6117, Note_on_c, 0, 69, 0
2,6168, Note_on_c, 0, 61, 0
2,6169, Note_on_c, 0, 62, 83
2,6268, Note_on_c, 0, 62, 0
2,6294, Note_on_c, 0, 64, 82
2,6311, Note_on_c, 0, 67, 70
2,6365, Note_on_c, 0, 64, 0
2,6378, Note_on_c, 0, 67, 0
2,6532, Note_on_c, 0, 66, 83
2,6536, Note_on_c, 0, 69, 73
2,6593, Note_on_c, 0, 69, 0
2,6629, Note_on_c, 0, 66, 0
2,6639, Note_on_c, 0, 64, 79
2,6751, Note_on_c, 0, 64, 0
2,6756, Note_on_c, 0, 62, 77
2,6759, Note_on_c, 0, 71, 73
2,6804, Note_on_c, 0, 71, 0
2,6854, Note_on_c, 0, 62, 0
2,6854, Note_on_c, 0, 64, 83
2,6951, Note_on_c, 0, 64, 0
2,6969, Note_on_c, 0, 66, 88
2,6981, Note_on_c, 0, 69, 74
2,7051, Note_on_c, 0, 66, 0
2,7218, Note_on_c, 0, 69, 0
2,7231, Note_on_c, 0, 64, 83
2,7243, Note_on_c, 0, 71, 64
2,7293, Note_on_c, 0, 64, 0
2,7320, Note_on_c, 0, 71, 0
2,7330, Note_on_c, 0, 73, 71
2,7447, Note_on_c, 0, 73, 0
2,7449, Note_on_c, 0, 74, 75
2,7455, Note_on_c, 0, 62, 81
2,7497, Note_on_c, 0, 62, 0
2,7542, Note_on_c, 0, 74, 0
2,7558, Note_on_c, 0, 71, 73
2,7675, Note_on_c, 0, 57, 78
2,7685, Note_on_c, 0, 71, 0
2,7687, Note_on_c, 0, 73, 70
2,7739, Note_on_c, 0, 57, 0
2,7778, Note_on_c, 0, 73, 0
2,7799, Note_on_c, 0, 71, 74
2,7923, Note_on_c, 0, 71, 0
2,7923, Note_on_c, 0, 73, 67
2,7926, Note_on_c, 0, 67, 83
2,8029, Note_on_c, 0, 73, 0
2,8029, Note_on_c, 0, 74, 62
2,8136, Note_on_c, 0, 74, 0
2,8141, Note_on_c, 0, 76, 73
2,8201, Note_on_c, 0, 76, 0
2,8250, Note_on_c, 0, 73, 76
2,8360, Note_on_c, 0, 73, 0
2,8375, Note_on_c, 0, 66, 80
2,8375, Note_on_c, 0, 74, 78
2,8379, Note_on_c, 0, 67, 0
2,8437, Note_on_c, 0, 66, 0
2,8472, Note_on_c, 0, 74, 0
2,8485, Note_on_c, 0, 73, 74
2,8602, Note_on_c, 0, 73, 0
2,8611, Note_on_c, 0, 74, 77
2,8613, Note_on_c, 0, 64, 79
2,8678, Note_on_c, 0, 64, 0
2,8719, Note_on_c, 0, 76, 78
2,8721, Note_on_c, 0, 74, 0
2,8839, Note_on_c, 0, 78, 78
2,8840, Note_on_c, 0, 76, 0
2,8845, Note_on_c, 0, 62, 81
2,8855, Control_c, 0, 64, 56
2,8870, Control_c, 0, 64, 65
2,8880, Note_on_c, 0, 62, 0
2,8886, Control_c, 0, 64, 68
2,8901, Control_c, 0, 64, 72
2,8916, Control_c, 0, 64, 77
2,8925, Note_on_c, 0, 78, 0
2,8931, Control_c, 0, 64, 79
2,8946, Control_c, 0, 64, 80
2,8947, Note_on_c, 0, 74, 81
2,9022, Control_c, 0, 64, 79
2,9038, Control_c, 0, 64, 74
2,9052, Control_c, 0, 64, 65
2,9060, Note_on_c, 0, 61, 85
2,9067, Control_c, 0, 64, 0
2,9076, Note_on_c, 0, 76, 80
2,9077, Note_on_c, 0, 74, 0
2,9118, Note_on_c, 0, 61, 0
2,9159, Note_on_c, 0, 76, 0
2,9176, Note_on_c, 0, 74, 82
2,9297, Note_on_c, 0, 71, 85
2,9310, Note_on_c, 0, 74, 0
2,9310, Note_on_c, 0, 76, 75
2,9422, Note_on_c, 0, 78, 79
2,9423, Note_on_c, 0, 76, 0
2,9541, Note_on_c, 0, 79, 82
2,9547, Note_on_c, 0, 78, 0
2,9650, Note_on_c, 0, 76, 79
2,9675, Note_on_c, 0, 79, 0
2,9771, Note_on_c, 0, 71, 0
2,9773, Note_on_c, 0, 78, 87
2,9774, Note_on_c, 0, 69, 77
2,9791, Note_on_c, 0, 76, 0
2,9889, Note_on_c, 0, 78, 0
2,9903, Note_on_c, 0, 69, 0
2,10032, Note_on_c, 0, 79, 79
2,10033, Note_on_c, 0, 71, 73
2,10135, Note_on_c, 0, 71, 0
2,10136, Note_on_c, 0, 69, 74
2,10145, Note_on_c, 0, 78, 80
2,10188, Note_on_c, 0, 79, 0
2,10252, Note_on_c, 0, 76, 81
2,10260, Note_on_c, 0, 67, 70
2,10261, Note_on_c, 0, 69, 0
2,10277, Note_on_c, 0, 78, 0
2,10330, Note_on_c, 0, 67, 0
2,10344, Note_on_c, 0, 76, 0
2,10351, Note_on_c, 0, 66, 72
2,10359, Note_on_c, 0, 74, 80
2,10454, Note_on_c, 0, 66, 0
2,10473, Note_on_c, 0, 64, 72
2,10479, Note_on_c, 0, 79, 81
2,10496, Note_on_c, 0, 74, 0
2,10582, Note_on_c, 0, 64, 0
2,10732, Note_on_c, 0, 67, 72
2,10827, Note_on_c, 0, 67, 0
2,10840, Note_on_c, 0, 66, 69
2,10968, Note_on_c, 0, 64, 62
2,10989, Note_on_c, 0, 66, 0
2,11040, Note_on_c, 0, 64, 0
2,11060, Note_on_c, 0, 62, 65
2,11188, Note_on_c, 0, 61, 69
2,11196, Note_on_c, 0, 62, 0
2,11246, Note_on_c, 0, 61, 0
2,11309, Note_on_c, 0, 79, 0
2,11310, Note_on_c, 0, 78, 67
2,11421, Note_on_c, 0, 78, 0
2,11429, Note_on_c, 0, 76, 71
2,11435, Note_on_c, 0, 67, 63
2,11469, Note_on_c, 0, 67, 0
2,11482, Note_on_c, 0, 76, 0
2,11536, Note_on_c, 0, 79, 66
2,11658, Note_on_c, 0, 74, 70
2,11658, Note_on_c, 0, 79, 0
2,11677, Note_on_c, 0, 66, 61
2,11710, Note_on_c, 0, 74, 0
2,11717, Note_on_c, 0, 66, 0
2,11771, Note_on_c, 0, 79, 71
2,11886, Note_on_c, 0, 73, 75
2,11893, Note_on_c, 0, 79, 0
2,11903, Note_on_c, 0, 64, 66
2,11950, Note_on_c, 0, 64, 0
2,11951, Note_on_c, 0, 73, 0
2,12002, Note_on_c, 0, 79, 70
2,12121, Note_on_c, 0, 79, 0
2,12122, Note_on_c, 0, 71, 77
2,12124, Note_on_c, 0, 62, 70
2,12172, Note_on_c, 0, 62, 0
2,12176, Note_on_c, 0, 71, 0
2,12237, Note_on_c, 0, 79, 75
2,12337, Note_on_c, 0, 79, 0
2,12355, Note_on_c, 0, 69, 78
2,12357, Note_on_c, 0, 61, 72
2,12403, Note_on_c, 0, 61, 0
2,12466, Note_on_c, 0, 69, 0
2,12466, Note_on_c, 0, 79, 77
2,12585, Note_on_c, 0, 78, 79
2,12600, Note_on_c, 0, 62, 69
2,12621, Note_on_c, 0, 79, 0
2,12670, Note_on_c, 0, 78, 0
2,12693, Note_on_c, 0, 62, 0
2,12702, Note_on_c, 0, 64, 67
2,12795, Note_on_c, 0, 64, 0
2,12821, Note_on_c, 0, 74, 72
2,12828, Note_on_c, 0, 66, 68
2,12888, Note_on_c, 0, 74, 0
2,12898, Note_on_c, 0, 66, 0
2,12934, Note_on_c, 0, 62, 64
2,13046, Note_on_c, 0, 76, 81
2,13050, Note_on_c, 0, 62, 0
2,13065, Note_on_c, 0, 67, 72
2,13110, Note_on_c, 0, 76, 0
2,13121, Note_on_c, 0, 67, 0
2,13178, Note_on_c, 0, 62, 68
2,13291, Note_on_c, 0, 78, 86
2,13300, Note_on_c, 0, 62, 0
2,13302, Note_on_c, 0, 69, 80
2,13365, Note_on_c, 0, 69, 0
2,13378, Note_on_c, 0, 78, 0
2,13416, Note_on_c, 0, 62, 65
2,13512, Note_on_c, 0, 62, 0
2,13521, Note_on_c, 0, 71, 82
2,13524, Note_on_c, 0, 79, 86
2,13600, Note_on_c, 0, 71, 0
2,13600, Note_on_c, 0, 79, 0
2,13629, Note_on_c, 0, 62, 73
2,13705, Control_c, 0, 64, 60
2,13717, Note_on_c, 0, 62, 0
2,13721, Control_c, 0, 64, 69
2,13736, Control_c, 0, 64, 75
2,13749, Note_on_c, 0, 72, 85
2,13751, Control_c, 0, 64, 80
2,13760, Note_on_c, 0, 81, 88
2,13766, Control_c, 0, 64, 85
2,13781, Control_c, 0, 64, 89
2,13797, Control_c, 0, 64, 93
2,13812, Control_c, 0, 64, 97
2,13827, Control_c, 0, 64, 100
2,13839, Note_on_c, 0, 72, 0
2,13842, Control_c, 0, 64, 102
2,13857, Control_c, 0, 64, 103
2,13858, Note_on_c, 0, 62, 85
2,13872, Control_c, 0, 64, 104
2,13892, Note_on_c, 0, 62, 0
2,13986, Control_c, 0, 64, 103
2,14002, Control_c, 0, 64, 98
2,14012, Note_on_c, 0, 55, 79
2,14013, Note_on_c, 0, 71, 79
2,14017, Control_c, 0, 64, 85
2,14032, Control_c, 0, 64, 67
2,14047, Control_c, 0, 64, 0
2,14095, Note_on_c, 0, 81, 0
2,14122, Note_on_c, 0, 55, 0
2,14263, Note_on_c, 0, 57, 83
2,14265, Note_on_c, 0, 74, 77
2,14367, Note_on_c, 0, 57, 0
2,14371, Note_on_c, 0, 55, 75
2,14473, Note_on_c, 0, 55, 0
2,14477, Note_on_c, 0, 71, 0
2,14481, Note_on_c, 0, 79, 77
2,14483, Note_on_c, 0, 54, 81
2,14589, Note_on_c, 0, 54, 0
2,14593, Note_on_c, 0, 55, 78
2,14722, Note_on_c, 0, 55, 0
2,14728, Note_on_c, 0, 72, 74
2,14733, Note_on_c, 0, 57, 83
2,14733, Note_on_c, 0, 79, 0
2,14782, Note_on_c, 0, 74, 0
2,14824, Note_on_c, 0, 57, 0
2,14982, Note_on_c, 0, 59, 84
2,14993, Note_on_c, 0, 78, 75
2,15080, Note_on_c, 0, 59, 0
2,15095, Note_on_c, 0, 57, 81
2,15174, Note_on_c, 0, 57, 0
2,15208, Note_on_c, 0, 55, 83
2,15212, Note_on_c, 0, 76, 82
2,15229, Note_on_c, 0, 72, 0
2,15248, Note_on_c, 0, 78, 0
2,15286, Note_on_c, 0, 55, 0
2,15306, Note_on_c, 0, 57, 80
2,15388, Note_on_c, 0, 57, 0
2,15433, Note_on_c, 0, 74, 86
2,15435, Note_on_c, 0, 76, 0
2,15439, Control_c, 0, 64, 61
2,15444, Note_on_c, 0, 59, 79
2,15454, Control_c, 0, 64, 67
2,15478, Control_c, 0, 64, 72
2,15493, Control_c, 0, 64, 76
2,15498, Note_on_c, 0, 74, 0
2,15507, Control_c, 0, 64, 78
2,15526, Note_on_c, 0, 59, 0
2,15614, Control_c, 0, 64, 77
2,15629, Control_c, 0, 64, 74
2,15645, Control_c, 0, 64, 67
2,15659, Control_c, 0, 64, 0
2,15676, Note_on_c, 0, 57, 74
2,15688, Note_on_c, 0, 72, 78
2,15692, Note_on_c, 0, 66, 73
2,15739, Note_on_c, 0, 57, 0
2,15822, Note_on_c, 0, 66, 0
2,15919, Control_c, 0, 64, 51
2,15923, Note_on_c, 0, 72, 0
2,15924, Note_on_c, 0, 71, 68
2,15930, Note_on_c, 0, 67, 63
2,15931, Note_on_c, 0, 55, 79
2,15933, Control_c, 0, 64, 65
2,15948, Control_c, 0, 64, 69
2,15964, Control_c, 0, 64, 73
2,15971, Note_on_c, 0, 55, 0
2,15979, Control_c, 0, 64, 77
2,15995, Control_c, 0, 64, 78
2,16007, Note_on_c, 0, 71, 0
2,16009, Control_c, 0, 64, 78
2,16024, Control_c, 0, 64, 79
2,16040, Control_c, 0, 64, 80
2,16055, Control_c, 0, 64, 80
2,16132, Control_c, 0, 64, 80
2,16146, Control_c, 0, 64, 78
2,16162, Control_c, 0, 64, 75
2,16170, Note_on_c, 0, 50, 77
2,16177, Control_c, 0, 64, 68
2,16180, Note_on_c, 0, 69, 76
2,16192, Control_c, 0, 64, 43
2,16199, Note_on_c, 0, 67, 0
2,16207, Control_c, 0, 64, 0
2,16276, Note_on_c, 0, 50, 0
2,16444, Note_on_c, 0, 60, 76
2,16446, Note_on_c, 0, 66, 67
2,16462, Note_on_c, 0, 69, 0
2,16543, Note_on_c, 0, 66, 0
2,16559, Note_on_c, 0, 67, 66
2,16667, Note_on_c, 0, 67, 0
2,16672, Note_on_c, 0, 69, 70
2,16783, Note_on_c, 0, 66, 69
2,16788, Note_on_c, 0, 69, 0
2,16899, Note_on_c, 0, 66, 0
2,16907, Note_on_c, 0, 59, 80
2,16907, Note_on_c, 0, 67, 73
2,16915, Note_on_c, 0, 60, 0
2,16962, Note_on_c, 0, 59, 0
2,17014, Note_on_c, 0, 67, 0
2,17022, Note_on_c, 0, 66, 72
2,17116, Note_on_c, 0, 66, 0
2,17146, Note_on_c, 0, 67, 76
2,17151, Note_on_c, 0, 57, 81
2,17214, Note_on_c, 0, 57, 0
2,17243, Note_on_c, 0, 67, 0
2,17250, Note_on_c, 0, 69, 77
2,17363, Control_c, 0, 64, 57
2,17374, Note_on_c, 0, 55, 80
2,17374, Note_on_c, 0, 69, 0
2,17376, Note_on_c, 0, 71, 71
2,17378, Control_c, 0, 64, 67
2,17379, Note_on_c, 0, 74, 80
2,17395, Control_c, 0, 64, 73
2,17410, Control_c, 0, 64, 79
2,17414, Note_on_c, 0, 55, 0
2,17424, Control_c, 0, 64, 82
2,17440, Control_c, 0, 64, 84
2,17445, Note_on_c, 0, 71, 0
2,17455, Control_c, 0, 64, 84
2,17470, Control_c, 0, 64, 85
2,17486, Control_c, 0, 64, 86
2,17486, Note_on_c, 0, 67, 78
2,17500, Control_c, 0, 64, 87
2,17516, Control_c, 0, 64, 87
2,17607, Control_c, 0, 64, 86
2,17610, Note_on_c, 0, 54, 87
2,17614, Note_on_c, 0, 69, 79
2,17621, Control_c, 0, 64, 82
2,17625, Note_on_c, 0, 67, 0
2,17637, Control_c, 0, 64, 73
2,17652, Control_c, 0, 64, 20
2,17667, Control_c, 0, 64, 0
2,17676, Note_on_c, 0, 74, 0
2,17683, Note_on_c, 0, 54, 0
2,17701, Note_on_c, 0, 69, 0
2,17719, Note_on_c, 0, 67, 82
2,17850, Note_on_c, 0, 67, 0
2,17853, Note_on_c, 0, 64, 81
2,17854, Note_on_c, 0, 72, 81
2,17864, Note_on_c, 0, 69, 68
2,17919, Note_on_c, 0, 69, 0
2,17923, Note_on_c, 0, 72, 0
2,17963, Note_on_c, 0, 71, 80
2,18060, Note_on_c, 0, 71, 0
2,18082, Note_on_c, 0, 81, 93
2,18088, Note_on_c, 0, 72, 76
2,18153, Note_on_c, 0, 72, 0
2,18196, Note_on_c, 0, 69, 80
2,18262, Note_on_c, 0, 69, 0
2,18299, Note_on_c, 0, 64, 0
2,18328, Note_on_c, 0, 71, 79
2,18333, Note_on_c, 0, 62, 77
2,18345, Control_c, 0, 64, 56
2,18359, Note_on_c, 0, 81, 0
2,18361, Control_c, 0, 64, 68
2,18376, Control_c, 0, 64, 77
2,18390, Control_c, 0, 64, 87
2,18390, Note_on_c, 0, 71, 0
2,18398, Note_on_c, 0, 62, 0
2,18406, Control_c, 0, 64, 93
2,18421, Control_c, 0, 64, 95
2,18437, Control_c, 0, 64, 97
2,18452, Control_c, 0, 64, 98
2,18466, Control_c, 0, 64, 98
2,18565, Control_c, 0, 64, 97
2,18580, Control_c, 0, 64, 91
2,18583, Note_on_c, 0, 64, 75
2,18584, Note_on_c, 0, 79, 88
2,18591, Note_on_c, 0, 72, 83
2,18596, Control_c, 0, 64, 80
2,18611, Control_c, 0, 64, 62
2,18626, Control_c, 0, 64, 0
2,18679, Note_on_c, 0, 72, 0
2,18682, Note_on_c, 0, 64, 0
2,18684, Note_on_c, 0, 62, 76
2,18685, Note_on_c, 0, 71, 79
2,18773, Note_on_c, 0, 71, 0
2,18804, Note_on_c, 0, 69, 80
2,18806, Note_on_c, 0, 62, 0
2,18810, Note_on_c, 0, 60, 74
2,18869, Note_on_c, 0, 60, 0
2,18879, Note_on_c, 0, 69, 0
2,18901, Note_on_c, 0, 67, 81
2,18904, Note_on_c, 0, 59, 74
2,18969, Note_on_c, 0, 59, 0
2,18980, Note_on_c, 0, 67, 0
2,19029, Note_on_c, 0, 72, 78
2,19036, Note_on_c, 0, 57, 74
2,19052, Control_c, 0, 64, 63
2,19067, Control_c, 0, 64, 72
2,19082, Note_on_c, 0, 57, 0
2,19083, Control_c, 0, 64, 81
2,19097, Note_on_c, 0, 79, 0
2,19098, Control_c, 0, 64, 87
2,19110, Note_on_c, 0, 72, 0
2,19112, Control_c, 0, 64, 88
2,19128, Control_c, 0, 64, 89
2,19281, Control_c, 0, 64, 88
2,19294, Note_on_c, 0, 81, 87
2,19296, Control_c, 0, 64, 86
2,19296, Note_on_c, 0, 60, 69
2,19318, Control_c, 0, 64, 78
2,19333, Control_c, 0, 64, 66
2,19348, Control_c, 0, 64, 0
2,19401, Note_on_c, 0, 79, 77
2,19403, Note_on_c, 0, 60, 0
2,19408, Note_on_c, 0, 59, 65
2,19427, Note_on_c, 0, 81, 0
2,19503, Note_on_c, 0, 59, 0
2,19519, Note_on_c, 0, 78, 81
2,19525, Note_on_c, 0, 57, 73
2,19552, Note_on_c, 0, 79, 0
2,19571, Note_on_c, 0, 57, 0
2,19611, Note_on_c, 0, 76, 77
2,19622, Note_on_c, 0, 78, 0
2,19623, Note_on_c, 0, 55, 73
2,19665, Note_on_c, 0, 76, 0
2,19717, Note_on_c, 0, 55, 0
2,19731, Note_on_c, 0, 54, 72
2,19758, Note_on_c, 0, 74, 77
2,19861, Note_on_c, 0, 71, 66
2,19940, Note_on_c, 0, 71, 0
2,19968, Note_on_c, 0, 69, 66
2,20038, Note_on_c, 0, 69, 0
2,20108, Note_on_c, 0, 72, 60
2,20203, Note_on_c, 0, 72, 0
2,20209, Note_on_c, 0, 54, 0
2,20223, Note_on_c, 0, 67, 68
2,20226, Note_on_c, 0, 52, 66
2,20276, Note_on_c, 0, 67, 0
2,20332, Note_on_c, 0, 72, 62
2,20451, Note_on_c, 0, 52, 0
2,20454, Note_on_c, 0, 66, 80
2,20460, Note_on_c, 0, 50, 69
2,20462, Note_on_c, 0, 72, 0
2,20515, Note_on_c, 0, 66, 0
2,20517, Note_on_c, 0, 50, 0
2,20565, Note_on_c, 0, 52, 68
2,20570, Note_on_c, 0, 72, 65
2,20643, Note_on_c, 0, 52, 0
2,20676, Note_on_c, 0, 72, 0
2,20684, Note_on_c, 0, 64, 74
2,20687, Note_on_c, 0, 50, 63
2,20749, Note_on_c, 0, 64, 0
2,20754, Note_on_c, 0, 50, 0
2,20794, Note_on_c, 0, 48, 65
2,20796, Note_on_c, 0, 72, 69
2,20884, Note_on_c, 0, 48, 0
2,20905, Note_on_c, 0, 72, 0
2,20913, Note_on_c, 0, 62, 74
2,20914, Note_on_c, 0, 47, 68
2,20975, Note_on_c, 0, 47, 0
2,20999, Note_on_c, 0, 62, 0
2,21019, Note_on_c, 0, 72, 72
2,21022, Note_on_c, 0, 45, 63
2,21082, Note_on_c, 0, 45, 0
2,21125, Note_on_c, 0, 74, 0
2,21129, Note_on_c, 0, 72, 0
2,21141, Note_on_c, 0, 71, 69
2,21157, Note_on_c, 0, 43, 62
2,21160, Control_c, 0, 64, 20
2,21175, Control_c, 0, 64, 64
2,21191, Control_c, 0, 64, 74
2,21206, Control_c, 0, 64, 82
2,21221, Control_c, 0, 64, 88
2,21221, Note_on_c, 0, 71, 0
2,21237, Control_c, 0, 64, 91
2,21252, Control_c, 0, 64, 92
2,21254, Note_on_c, 0, 43, 0
2,21266, Control_c, 0, 64, 92
2,21270, Note_on_c, 0, 45, 60
2,21358, Control_c, 0, 64, 90
2,21361, Note_on_c, 0, 45, 0
2,21373, Control_c, 0, 64, 81
2,21383, Note_on_c, 0, 65, 71
2,21384, Note_on_c, 0, 74, 71
2,21389, Control_c, 0, 64, 69
2,21390, Note_on_c, 0, 47, 69
2,21404, Control_c, 0, 64, 37
2,21418, Control_c, 0, 64, 0
2,21449, Control_c, 0, 64, 58
2,21457, Note_on_c, 0, 47, 0
2,21463, Control_c, 0, 64, 70
2,21479, Control_c, 0, 64, 82
2,21493, Note_on_c, 0, 65, 0
2,21495, Control_c, 0, 64, 93
2,21499, Note_on_c, 0, 43, 64
2,21505, Note_on_c, 0, 74, 0
2,21511, Control_c, 0, 64, 99
2,21526, Control_c, 0, 64, 100
2,21586, Control_c, 0, 64, 98
2,21602, Control_c, 0, 64, 90
2,21604, Note_on_c, 0, 43, 0
2,21624, Control_c, 0, 64, 78
2,21628, Note_on_c, 0, 72, 76
2,21634, Note_on_c, 0, 48, 66
2,21635, Note_on_c, 0, 64, 68
2,21640, Control_c, 0, 64, 61
2,21655, Control_c, 0, 64, 0
2,21692, Note_on_c, 0, 48, 0
2,21700, Control_c, 0, 64, 25
2,21716, Control_c, 0, 64, 68
2,21731, Control_c, 0, 64, 79
2,21738, Note_on_c, 0, 43, 64
2,21742, Note_on_c, 0, 64, 0
2,21746, Control_c, 0, 64, 92
2,21756, Note_on_c, 0, 72, 0
2,21762, Control_c, 0, 64, 100
2,21776, Control_c, 0, 64, 101
2,21822, Control_c, 0, 64, 100
2,21837, Control_c, 0, 64, 93
2,21849, Note_on_c, 0, 43, 0
2,21852, Control_c, 0, 64, 79
2,21866, Note_on_c, 0, 50, 70
2,21868, Control_c, 0, 64, 37
2,21868, Note_on_c, 0, 71, 78
2,21877, Note_on_c, 0, 62, 71
2,21883, Control_c, 0, 64, 0
2,21930, Control_c, 0, 64, 43
2,21930, Note_on_c, 0, 50, 0
2,21946, Control_c, 0, 64, 68
2,21962, Control_c, 0, 64, 80
2,21975, Note_on_c, 0, 43, 64
2,21976, Control_c, 0, 64, 98
2,21981, Note_on_c, 0, 62, 0
2,21992, Control_c, 0, 64, 112
2,22003, Note_on_c, 0, 71, 0
2,22007, Control_c, 0, 64, 117
2,22052, Control_c, 0, 64, 114
2,22068, Control_c, 0, 64, 100
2,22083, Control_c, 0, 64, 83
2,22087, Note_on_c, 0, 43, 0
2,22098, Control_c, 0, 64, 63
2,22105, Note_on_c, 0, 52, 71
2,22111, Note_on_c, 0, 69, 81
2,22113, Control_c, 0, 64, 0
2,22120, Note_on_c, 0, 60, 72
2,22159, Control_c, 0, 64, 46
2,22174, Control_c, 0, 64, 72
2,22183, Note_on_c, 0, 52, 0
2,22190, Control_c, 0, 64, 90
2,22205, Control_c, 0, 64, 123
2,22205, Note_on_c, 0, 60, 0
2,22212, Note_on_c, 0, 43, 68
2,22221, Control_c, 0, 64, 127
2,22230, Note_on_c, 0, 69, 0
2,22296, Control_c, 0, 64, 119
2,22312, Control_c, 0, 64, 93
2,22327, Control_c, 0, 64, 71
2,22327, Note_on_c, 0, 43, 0
2,22343, Control_c, 0, 64, 0
2,22346, Note_on_c, 0, 53, 70
2,22354, Note_on_c, 0, 67, 84
2,22361, Note_on_c, 0, 59, 74
2,22396, Control_c, 0, 64, 55
2,22403, Note_on_c, 0, 59, 0
2,22411, Control_c, 0, 64, 80
2,22419, Note_on_c, 0, 67, 0
2,22426, Control_c, 0, 64, 107
2,22437, Note_on_c, 0, 53, 0
2,22441, Control_c, 0, 64, 127
2,22458, Note_on_c, 0, 43, 70
2,22603, Note_on_c, 0, 43, 0
2,22607, Note_on_c, 0, 72, 91
2,22608, Control_c, 0, 64, 108
2,22608, Note_on_c, 0, 52, 76
2,22624, Control_c, 0, 64, 76
2,22639, Control_c, 0, 64, 0
2,22693, Note_on_c, 0, 52, 0
2,22694, Note_on_c, 0, 72, 0
2,22706, Note_on_c, 0, 74, 78
2,22713, Note_on_c, 0, 50, 68
2,22802, Note_on_c, 0, 50, 0
2,22832, Note_on_c, 0, 48, 65
2,22833, Note_on_c, 0, 76, 80
2,22848, Note_on_c, 0, 74, 0
2,22884, Note_on_c, 0, 48, 0
2,22935, Note_on_c, 0, 52, 62
2,23054, Note_on_c, 0, 52, 0
2,23081, Note_on_c, 0, 47, 77
2,23082, Note_on_c, 0, 67, 70
2,23110, Note_on_c, 0, 67, 0
2,23126, Note_on_c, 0, 47, 0
2,23204, Note_on_c, 0, 52, 54
2,23317, Note_on_c, 0, 52, 0
2,23340, Note_on_c, 0, 66, 81
2,23343, Note_on_c, 0, 45, 84
2,23344, Note_on_c, 0, 76, 0
2,23382, Note_on_c, 0, 45, 0
2,23445, Note_on_c, 0, 52, 64
2,23453, Note_on_c, 0, 74, 68
2,23553, Note_on_c, 0, 52, 0
2,23578, Note_on_c, 0, 43, 73
2,23578, Note_on_c, 0, 72, 73
2,23635, Note_on_c, 0, 43, 0
2,23666, Note_on_c, 0, 66, 0
2,23676, Note_on_c, 0, 52, 71
2,23678, Note_on_c, 0, 74, 0
2,23694, Note_on_c, 0, 71, 73
2,23710, Note_on_c, 0, 72, 0
2,23799, Note_on_c, 0, 52, 0
2,23814, Note_on_c, 0, 42, 85
2,23820, Note_on_c, 0, 69, 79
2,23832, Note_on_c, 0, 71, 0
2,23881, Note_on_c, 0, 42, 0
2,23932, Note_on_c, 0, 52, 69
2,23942, Note_on_c, 0, 69, 0
2,23942, Note_on_c, 0, 72, 81
2,24020, Note_on_c, 0, 52, 0
2,24028, Note_on_c, 0, 72, 0
2,24057, Note_on_c, 0, 50, 75
2,24058, Note_on_c, 0, 71, 83
2,24130, Note_on_c, 0, 50, 0
2,24159, Note_on_c, 0, 48, 66
2,24159, Note_on_c, 0, 71, 0
2,24165, Note_on_c, 0, 72, 83
2,24241, Note_on_c, 0, 48, 0
2,24281, Note_on_c, 0, 47, 73
2,24287, Note_on_c, 0, 72, 0
2,24288, Note_on_c, 0, 74, 79
2,24330, Note_on_c, 0, 47, 0
2,24394, Note_on_c, 0, 50, 62
2,24504, Note_on_c, 0, 50, 0
2,24529, Note_on_c, 0, 66, 80
2,24535, Note_on_c, 0, 45, 73
2,24577, Note_on_c, 0, 66, 0
2,24582, Note_on_c, 0, 45, 0
2,24631, Note_on_c, 0, 50, 61
2,24753, Note_on_c, 0, 50, 0
2,24780, Note_on_c, 0, 64, 77
2,24784, Note_on_c, 0, 74, 0
2,24788, Note_on_c, 0, 43, 75
2,24833, Note_on_c, 0, 43, 0
2,24893, Note_on_c, 0, 50, 60
2,24895, Note_on_c, 0, 72, 70
2,25011, Note_on_c, 0, 50, 0
2,25020, Note_on_c, 0, 71, 68
2,25030, Note_on_c, 0, 42, 68
2,25065, Note_on_c, 0, 72, 0
2,25078, Note_on_c, 0, 42, 0
2,25136, Note_on_c, 0, 69, 70
2,25136, Note_on_c, 0, 71, 0
2,25141, Note_on_c, 0, 50, 56
2,25247, Note_on_c, 0, 69, 0
2,25248, Note_on_c, 0, 50, 0
2,25259, Note_on_c, 0, 67, 69
2,25262, Note_on_c, 0, 40, 68
2,25308, Note_on_c, 0, 40, 0
2,25346, Note_on_c, 0, 67, 0
2,25372, Note_on_c, 0, 71, 68
2,25376, Note_on_c, 0, 50, 58
2,25456, Note_on_c, 0, 71, 0
2,25465, Note_on_c, 0, 50, 0
2,25509, Note_on_c, 0, 48, 61
2,25509, Note_on_c, 0, 69, 72
2,25515, Note_on_c, 0, 64, 0
2,25587, Note_on_c, 0, 48, 0
2,25604, Note_on_c, 0, 69, 0
2,25617, Note_on_c, 0, 47, 60
2,25621, Note_on_c, 0, 71, 66
2,25685, Note_on_c, 0, 47, 0
2,25730, Note_on_c, 0, 71, 0
2,25733, Note_on_c, 0, 45, 62
2,25740, Note_on_c, 0, 72, 72
2,25777, Note_on_c, 0, 45, 0
2,25847, Note_on_c, 0, 48, 49
2,25959, Note_on_c, 0, 48, 0
2,25980, Note_on_c, 0, 43, 65
2,25982, Note_on_c, 0, 64, 68
2,26021, Note_on_c, 0, 64, 0
2,26028, Note_on_c, 0, 43, 0
2,26093, Note_on_c, 0, 48, 54
2,26224, Note_on_c, 0, 48, 0
2,26235, Note_on_c, 0, 62, 72
2,26240, Note_on_c, 0, 72, 0
2,26244, Note_on_c, 0, 42, 62
2,26296, Note_on_c, 0, 42, 0
2,26353, Note_on_c, 0, 48, 58
2,26365, Note_on_c, 0, 71, 58
2,26472, Note_on_c, 0, 48, 0
2,26475, Note_on_c, 0, 69, 66
2,26479, Note_on_c, 0, 71, 0
2,26482, Note_on_c, 0, 40, 72
2,26524, Note_on_c, 0, 40, 0
2,26593, Note_on_c, 0, 67, 64
2,26595, Note_on_c, 0, 69, 0
2,26597, Note_on_c, 0, 48, 58
2,26691, Note_on_c, 0, 48, 0
2,26696, Note_on_c, 0, 67, 0
2,26707, Note_on_c, 0, 66, 70
2,26715, Note_on_c, 0, 38, 70
2,26734, Note_on_c, 0, 62, 0
2,26778, Note_on_c, 0, 38, 0
2,26810, Note_on_c, 0, 66, 0
2,26821, Note_on_c, 0, 48, 65
2,26824, Note_on_c, 0, 69, 74
2,26933, Note_on_c, 0, 69, 0
2,26940, Note_on_c, 0, 48, 0
2,26953, Note_on_c, 0, 47, 75
2,26953, Note_on_c, 0, 62, 75
2,26962, Note_on_c, 0, 67, 68
2,27071, Note_on_c, 0, 62, 0
2,27073, Note_on_c, 0, 47, 0
2,27073, Note_on_c, 0, 69, 73
2,27078, Note_on_c, 0, 67, 0
2,27193, Note_on_c, 0, 69, 0
2,27200, Note_on_c, 0, 71, 70
2,27211, Note_on_c, 0, 45, 74
2,27214, Note_on_c, 0, 60, 71
2,27252, Note_on_c, 0, 45, 0
2,27316, Note_on_c, 0, 60, 0
2,27319, Note_on_c, 0, 62, 80
2,27436, Note_on_c, 0, 64, 81
2,27442, Note_on_c, 0, 62, 0
2,27444, Note_on_c, 0, 43, 73
2,27487, Note_on_c, 0, 43, 0
2,27539, Note_on_c, 0, 64, 0
2,27542, Note_on_c, 0, 62, 84
2,27635, Note_on_c, 0, 62, 0
2,27665, Control_c, 0, 64, 56
2,27670, Note_on_c, 0, 71, 0
2,27673, Note_on_c, 0, 45, 76
2,27674, Note_on_c, 0, 60, 84
2,27679, Control_c, 0, 64, 68
2,27695, Control_c, 0, 64, 75
2,27710, Control_c, 0, 64, 84
2,27723, Note_on_c, 0, 60, 0
2,27726, Control_c, 0, 64, 89
2,27737, Note_on_c, 0, 45, 0
2,27741, Control_c, 0, 64, 90
2,27764, Control_c, 0, 64, 91
2,27779, Control_c, 0, 64, 91
2,27855, Control_c, 0, 64, 91
2,27869, Control_c, 0, 64, 88
2,27885, Control_c, 0, 64, 76
2,27900, Control_c, 0, 64, 0
2,27928, Note_on_c, 0, 64, 77
2,27931, Note_on_c, 0, 59, 73
2,27934, Note_on_c, 0, 43, 70
2,27987, Note_on_c, 0, 59, 0
2,27992, Note_on_c, 0, 43, 0
2,28033, Note_on_c, 0, 60, 82
2,28045, Note_on_c, 0, 64, 0
2,28159, Note_on_c, 0, 69, 73
2,28163, Note_on_c, 0, 60, 0
2,28166, Note_on_c, 0, 62, 82
2,28169, Note_on_c, 0, 42, 74
2,28222, Note_on_c, 0, 42, 0
2,28271, Note_on_c, 0, 60, 82
2,28275, Note_on_c, 0, 62, 0
2,28377, Note_on_c, 0, 60, 0
2,28404, Control_c, 0, 64, 37
2,28410, Note_on_c, 0, 59, 81
2,28412, Note_on_c, 0, 43, 69
2,28419, Control_c, 0, 64, 61
2,28433, Control_c, 0, 64, 65
2,28449, Control_c, 0, 64, 67
2,28464, Control_c, 0, 64, 69
2,28479, Control_c, 0, 64, 69
2,28491, Note_on_c, 0, 43, 0
2,28493, Control_c, 0, 64, 69
2,28507, Control_c, 0, 64, 68
2,28529, Note_on_c, 0, 67, 80
2,28531, Control_c, 0, 64, 66
2,28531, Note_on_c, 0, 59, 0
2,28533, Note_on_c, 0, 69, 0
2,28535, Note_on_c, 0, 55, 68
2,28546, Control_c, 0, 64, 59
2,28560, Control_c, 0, 64, 0
2,28634, Note_on_c, 0, 55, 0
2,28656, Note_on_c, 0, 69, 79
2,28661, Note_on_c, 0, 53, 71
2,28664, Note_on_c, 0, 67, 0
2,28667, Note_on_c, 0, 60, 78
2,28744, Note_on_c, 0, 53, 0
2,28755, Note_on_c, 0, 60, 0
2,28764, Note_on_c, 0, 52, 71
2,28855, Note_on_c, 0, 52, 0
2,28904, Note_on_c, 0, 50, 71
2,28904, Note_on_c, 0, 71, 81
2,28908, Note_on_c, 0, 62, 76
2,28926, Control_c, 0, 64, 68
2,28933, Note_on_c, 0, 69, 0
2,28941, Control_c, 0, 64, 75
2,28956, Control_c, 0, 64, 83
2,28959, Note_on_c, 0, 62, 0
2,28972, Control_c, 0, 64, 86
2,28973, Note_on_c, 0, 71, 0
2,28987, Control_c, 0, 64, 87
2,28995, Note_on_c, 0, 50, 0
2,29002, Control_c, 0, 64, 88
2,29013, Note_on_c, 0, 53, 70
2,29017, Control_c, 0, 64, 89
2,29032, Control_c, 0, 64, 90
2,29047, Control_c, 0, 64, 90
2,29078, Control_c, 0, 64, 91
2,29094, Control_c, 0, 64, 90
2,29123, Control_c, 0, 64, 89
2,29137, Note_on_c, 0, 53, 0
2,29139, Control_c, 0, 64, 82
2,29142, Note_on_c, 0, 72, 85
2,29145, Note_on_c, 0, 67, 82
2,29151, Note_on_c, 0, 52, 76
2,29154, Control_c, 0, 64, 67
2,29170, Control_c, 0, 64, 0
2,29205, Note_on_c, 0, 67, 0
2,29246, Note_on_c, 0, 52, 0
2,29259, Note_on_c, 0, 53, 68
2,29263, Note_on_c, 0, 74, 77
2,29264, Note_on_c, 0, 72, 0
2,29392, Note_on_c, 0, 72, 79
2,29399, Note_on_c, 0, 53, 0
2,29400, Note_on_c, 0, 57, 81
2,29410, Note_on_c, 0, 52, 69
2,29435, Note_on_c, 0, 74, 0
2,29457, Note_on_c, 0, 52, 0
2,29505, Note_on_c, 0, 71, 73
2,29506, Note_on_c, 0, 72, 0
2,29512, Note_on_c, 0, 50, 62
2,29615, Note_on_c, 0, 50, 0
2,29618, Note_on_c, 0, 71, 0
2,29628, Note_on_c, 0, 69, 79
2,29634, Note_on_c, 0, 48, 74
2,29689, Note_on_c, 0, 69, 0
2,29722, Note_on_c, 0, 57, 0
2,29746, Note_on_c, 0, 67, 77
2,29750, Note_on_c, 0, 52, 69
2,29758, Note_on_c, 0, 48, 0
2,29837, Note_on_c, 0, 67, 0
2,29858, Note_on_c, 0, 66, 75
2,29871, Note_on_c, 0, 59, 79
2,29878, Note_on_c, 0, 50, 70
2,29878, Note_on_c, 0, 52, 0
2,29899, Note_on_c, 0, 67, 59
2,29900, Note_on_c, 0, 66, 0
2,29960, Note_on_c, 0, 66, 70
2,29977, Note_on_c, 0, 50, 0
2,29983, Note_on_c, 0, 59, 0
2,29988, Note_on_c, 0, 67, 0
2,29989, Note_on_c, 0, 52, 72
2,30097, Note_on_c, 0, 66, 0
2,30123, Note_on_c, 0, 60, 80
2,30130, Note_on_c, 0, 50, 70
2,30160, Note_on_c, 0, 52, 0
2,30203, Note_on_c, 0, 60, 0
2,30211, Note_on_c, 0, 50, 0
2,30222, Note_on_c, 0, 64, 74
2,30236, Note_on_c, 0, 48, 65
2,30295, Note_on_c, 0, 66, 66
2,30313, Note_on_c, 0, 48, 0
2,30323, Note_on_c, 0, 64, 0
2,30364, Note_on_c, 0, 47, 71
2,30365, Note_on_c, 0, 62, 73
2,30365, Note_on_c, 0, 67, 79
2,30391, Note_on_c, 0, 66, 0
2,30404, Note_on_c, 0, 62, 0
2,30469, Note_on_c, 0, 47, 0
2,30475, Note_on_c, 0, 50, 63
2,30613, Note_on_c, 0, 64, 77
2,30615, Note_on_c, 0, 48, 78
2,30615, Note_on_c, 0, 50, 0
2,30618, Note_on_c, 0, 67, 0
2,30680, Note_on_c, 0, 64, 0
2,30707, Note_on_c, 0, 48, 0
2,30722, Note_on_c, 0, 71, 63
2,30732, Note_on_c, 0, 50, 65
2,30861, Note_on_c, 0, 54, 75
2,30866, Note_on_c, 0, 50, 0
2,30866, Note_on_c, 0, 69, 75
2,30869, Note_on_c, 0, 48, 67
2,30897, Note_on_c, 0, 71, 0
2,30941, Note_on_c, 0, 48, 0
2,30966, Note_on_c, 0, 67, 75
2,30973, Note_on_c, 0, 69, 0
2,30977, Note_on_c, 0, 47, 61
2,31068, Note_on_c, 0, 47, 0
2,31074, Note_on_c, 0, 67, 0
2,31090, Note_on_c, 0, 66, 73
2,31093, Note_on_c, 0, 45, 64
2,31106, Note_on_c, 0, 54, 0
2,31165, Note_on_c, 0, 66, 0
2,31196, Note_on_c, 0, 45, 0
2,31202, Note_on_c, 0, 48, 60
2,31212, Note_on_c, 0, 64, 66
2,31307, Note_on_c, 0, 48, 0
2,31320, Control_c, 0, 64, 61
2,31322, Note_on_c, 0, 64, 0
2,31323, Note_on_c, 0, 55, 61
2,31334, Note_on_c, 0, 62, 73
2,31336, Control_c, 0, 64, 69
2,31339, Note_on_c, 0, 47, 59
2,31351, Control_c, 0, 64, 77
2,31366, Control_c, 0, 64, 86
2,31382, Control_c, 0, 64, 90
2,31390, Note_on_c, 0, 62, 0
2,31396, Control_c, 0, 64, 91
2,31400, Note_on_c, 0, 55, 0
2,31412, Control_c, 0, 64, 92
2,31423, Note_on_c, 0, 47, 0
2,31441, Note_on_c, 0, 48, 66
2,31517, Control_c, 0, 64, 89
2,31533, Control_c, 0, 64, 80
2,31548, Control_c, 0, 64, 66
2,31563, Control_c, 0, 64, 0
2,31572, Note_on_c, 0, 55, 69
2,31582, Note_on_c, 0, 47, 60
2,31582, Note_on_c, 0, 48, 0
2,31652, Note_on_c, 0, 55, 0
2,31662, Note_on_c, 0, 47, 0
2,31687, Note_on_c, 0, 57, 66
2,31702, Note_on_c, 0, 45, 62
2,31792, Note_on_c, 0, 45, 0
2,31805, Note_on_c, 0, 59, 66
2,31808, Note_on_c, 0, 57, 0
2,31826, Note_on_c, 0, 43, 59
2,31906, Note_on_c, 0, 59, 0
2,31912, Note_on_c, 0, 61, 71
2,31925, Note_on_c, 0, 43, 0
2,31936, Note_on_c, 0, 45, 56
2,32013, Note_on_c, 0, 45, 0
2,32042, Note_on_c, 0, 61, 0
2,32042, Note_on_c, 0, 62, 76
2,32044, Note_on_c, 0, 47, 70
2,32127, Note_on_c, 0, 62, 0
2,32151, Note_on_c, 0, 47, 0
2,32153, Note_on_c, 0, 49, 74
2,32288, Note_on_c, 0, 50, 76
2,32290, Note_on_c, 0, 59, 77
2,32292, Note_on_c, 0, 49, 0
2,32368, Note_on_c, 0, 50, 0
2,32392, Note_on_c, 0, 59, 0
2,32406, Note_on_c, 0, 61, 83
2,32407, Note_on_c, 0, 52, 74
2,32499, Note_on_c, 0, 61, 0
2,32523, Note_on_c, 0, 52, 0
2,32524, Note_on_c, 0, 54, 77
2,32527, Note_on_c, 0, 62, 83
2,32610, Note_on_c, 0, 54, 0
2,32629, Note_on_c, 0, 55, 79
2,32630, Note_on_c, 0, 64, 87
2,32639, Note_on_c, 0, 62, 0
2,32716, Note_on_c, 0, 55, 0
2,32725, Note_on_c, 0, 64, 0
2,32759, Note_on_c, 0, 66, 81
2,32762, Note_on_c, 0, 54, 74
2,32762, Note_on_c, 0, 69, 91
2,32765, Control_c, 0, 64, 51
2,32781, Control_c, 0, 64, 67
2,32795, Control_c, 0, 64, 75
2,32811, Control_c, 0, 64, 83
2,32823, Note_on_c, 0, 66, 0
2,32826, Control_c, 0, 64, 89
2,32834, Note_on_c, 0, 69, 0
2,32841, Control_c, 0, 64, 92
2,32854, Note_on_c, 0, 54, 0
2,32857, Control_c, 0, 64, 95
2,32874, Control_c, 0, 64, 96
2,32890, Control_c, 0, 64, 98
2,32904, Control_c, 0, 64, 98
2,32981, Control_c, 0, 64, 93
2,32996, Control_c, 0, 64, 79
2,33012, Control_c, 0, 64, 31
2,33019, Note_on_c, 0, 67, 86
2,33024, Note_on_c, 0, 59, 79
2,33027, Control_c, 0, 64, 0
2,33030, Note_on_c, 0, 64, 73
2,33079, Note_on_c, 0, 59, 0
2,33087, Note_on_c, 0, 64, 0
2,33126, Note_on_c, 0, 69, 86
2,33128, Note_on_c, 0, 67, 0
2,33258, Note_on_c, 0, 47, 78
2,33260, Note_on_c, 0, 71, 82
2,33261, Note_on_c, 0, 63, 81
2,33264, Note_on_c, 0, 69, 0
2,33308, Note_on_c, 0, 47, 0
2,33309, Note_on_c, 0, 63, 0
2,33319, Note_on_c, 0, 71, 0
2,33376, Note_on_c, 0, 69, 83
2,33452, Note_on_c, 0, 69, 0
2,33490, Control_c, 0, 64, 60
2,33497, Note_on_c, 0, 52, 79
2,33498, Note_on_c, 0, 67, 82
2,33505, Control_c, 0, 64, 68
2,33507, Note_on_c, 0, 64, 76
2,33520, Control_c, 0, 64, 76
2,33536, Control_c, 0, 64, 86
2,33547, Note_on_c, 0, 52, 0
2,33550, Control_c, 0, 64, 91
2,33553, Note_on_c, 0, 64, 0
2,33554, Note_on_c, 0, 67, 0
2,33566, Control_c, 0, 64, 93
2,33581, Control_c, 0, 64, 94
2,33596, Control_c, 0, 64, 95
2,33688, Control_c, 0, 64, 92
2,33703, Control_c, 0, 64, 83
2,33718, Control_c, 0, 64, 66
2,33734, Control_c, 0, 64, 0
2,33748, Note_on_c, 0, 57, 77
2,33749, Note_on_c, 0, 62, 81
2,33755, Note_on_c, 0, 66, 75
2,33810, Note_on_c, 0, 57, 0
2,33810, Note_on_c, 0, 62, 0
2,33833, Note_on_c, 0, 66, 0
2,33847, Note_on_c, 0, 67, 70
2,33964, Note_on_c, 0, 67, 0
2,33980, Note_on_c, 0, 69, 77
2,33991, Note_on_c, 0, 45, 74
2,33993, Note_on_c, 0, 61, 73
2,34032, Note_on_c, 0, 61, 0
2,34052, Note_on_c, 0, 45, 0
2,34085, Note_on_c, 0, 67, 79
2,34110, Note_on_c, 0, 69, 0
2,34173, Note_on_c, 0, 67, 0
2,34197, Control_c, 0, 64, 38
2,34213, Control_c, 0, 64, 68
2,34223, Note_on_c, 0, 66, 86
2,34227, Note_on_c, 0, 50, 75
2,34228, Control_c, 0, 64, 79
2,34228, Note_on_c, 0, 62, 72
2,34243, Control_c, 0, 64, 89
2,34256, Note_on_c, 0, 50, 0
2,34258, Control_c, 0, 64, 94
2,34260, Note_on_c, 0, 62, 0
2,34272, Control_c, 0, 64, 96
2,34278, Note_on_c, 0, 66, 0
2,34288, Control_c, 0, 64, 97
2,34303, Control_c, 0, 64, 98
2,34317, Control_c, 0, 64, 99
2,34409, Control_c, 0, 64, 96
2,34424, Control_c, 0, 64, 84
2,34439, Control_c, 0, 64, 66
2,34455, Control_c, 0, 64, 0
2,34464, Note_on_c, 0, 52, 64
2,34471, Note_on_c, 0, 67, 86
2,34480, Note_on_c, 0, 61, 67
2,34529, Note_on_c, 0, 67, 0
2,34560, Note_on_c, 0, 52, 0
2,34572, Note_on_c, 0, 61, 0
2,34581, Note_on_c, 0, 59, 72
2,34720, Note_on_c, 0, 69, 87
2,34723, Note_on_c, 0, 59, 0
2,34728, Note_on_c, 0, 57, 65
2,34733, Note_on_c, 0, 54, 64
2,34775, Note_on_c, 0, 69, 0
2,34824, Note_on_c, 0, 57, 0
2,34839, Note_on_c, 0, 60, 72
2,34944, Note_on_c, 0, 60, 0
2,34953, Note_on_c, 0, 74, 95
2,34958, Note_on_c, 0, 59, 64
2,34980, Control_c, 0, 64, 57
2,34995, Control_c, 0, 64, 67
2,35012, Control_c, 0, 64, 75
2,35021, Note_on_c, 0, 74, 0
2,35027, Control_c, 0, 64, 84
2,35041, Control_c, 0, 64, 88
2,35057, Control_c, 0, 64, 89
2,35059, Note_on_c, 0, 59, 0
2,35066, Note_on_c, 0, 60, 69
2,35070, Note_on_c, 0, 54, 0
2,35103, Control_c, 0, 64, 90
2,35182, Note_on_c, 0, 60, 0
2,35191, Note_on_c, 0, 64, 84
2,35193, Control_c, 0, 64, 89
2,35203, Note_on_c, 0, 59, 68
2,35209, Control_c, 0, 64, 84
2,35219, Note_on_c, 0, 55, 69
2,35224, Control_c, 0, 64, 73
2,35235, Note_on_c, 0, 66, 77
2,35238, Control_c, 0, 64, 0
2,35245, Note_on_c, 0, 64, 0
2,35255, Note_on_c, 0, 59, 0
2,35259, Note_on_c, 0, 55, 0
2,35289, Note_on_c, 0, 64, 71
2,35300, Note_on_c, 0, 66, 0
2,35310, Note_on_c, 0, 57, 67
2,35424, Note_on_c, 0, 57, 0
2,35458, Note_on_c, 0, 55, 74
2,35461, Note_on_c, 0, 49, 69
2,35525, Note_on_c, 0, 49, 0
2,35531, Note_on_c, 0, 55, 0
2,35569, Note_on_c, 0, 59, 68
2,35685, Note_on_c, 0, 59, 0
2,35700, Note_on_c, 0, 66, 86
2,35703, Note_on_c, 0, 57, 71
2,35705, Note_on_c, 0, 50, 66
2,35708, Note_on_c, 0, 64, 0
2,35759, Note_on_c, 0, 66, 0
2,35776, Note_on_c, 0, 57, 0
2,35815, Note_on_c, 0, 59, 64
2,35921, Note_on_c, 0, 59, 0
2,35945, Note_on_c, 0, 67, 81
2,35950, Note_on_c, 0, 57, 67
2,35999, Note_on_c, 0, 67, 0
2,36053, Note_on_c, 0, 57, 0
2,36054, Note_on_c, 0, 55, 70
2,36128, Note_on_c, 0, 55, 0
2,36187, Note_on_c, 0, 54, 63
2,36189, Note_on_c, 0, 69, 70
2,36250, Note_on_c, 0, 69, 0
2,36280, Note_on_c, 0, 54, 0
2,36308, Note_on_c, 0, 57, 63
2,36417, Note_on_c, 0, 57, 0
2,36435, Note_on_c, 0, 71, 77
2,36437, Note_on_c, 0, 55, 63
2,36456, Control_c, 0, 64, 59
2,36471, Control_c, 0, 64, 67
2,36487, Control_c, 0, 64, 73
2,36498, Note_on_c, 0, 71, 0
2,36502, Control_c, 0, 64, 79
2,36515, Note_on_c, 0, 55, 0
2,36516, Control_c, 0, 64, 82
2,36532, Control_c, 0, 64, 82
2,36540, Note_on_c, 0, 57, 65
2,36547, Control_c, 0, 64, 83
2,36638, Control_c, 0, 64, 82
2,36644, Note_on_c, 0, 57, 0
2,36653, Control_c, 0, 64, 79
2,36667, Note_on_c, 0, 55, 54
2,36668, Control_c, 0, 64, 70
2,36672, Note_on_c, 0, 61, 76
2,36684, Control_c, 0, 64, 0
2,36708, Note_on_c, 0, 61, 0
2,36720, Note_on_c, 0, 62, 66
2,36734, Note_on_c, 0, 55, 0
2,36747, Note_on_c, 0, 54, 58
2,36779, Note_on_c, 0, 61, 65
2,36806, Note_on_c, 0, 50, 0
2,36814, Note_on_c, 0, 62, 0
2,36852, Note_on_c, 0, 54, 0
2,36876, Note_on_c, 0, 52, 62
2,36950, Note_on_c, 0, 52, 0
2,36997, Note_on_c, 0, 55, 69
2,37103, Note_on_c, 0, 55, 0
2,37130, Note_on_c, 0, 61, 0
2,37133, Control_c, 0, 64, 55
2,37133, Note_on_c, 0, 54, 57
2,37144, Note_on_c, 0, 62, 69
2,37148, Control_c, 0, 64, 65
2,37164, Control_c, 0, 64, 71
2,37179, Control_c, 0, 64, 79
2,37194, Control_c, 0, 64, 83
2,37198, Note_on_c, 0, 62, 0
2,37209, Control_c, 0, 64, 85
2,37224, Control_c, 0, 64, 86
2,37225, Note_on_c, 0, 54, 0
2,37236, Note_on_c, 0, 55, 61
2,37239, Control_c, 0, 64, 87
2,37329, Control_c, 0, 64, 83
2,37344, Control_c, 0, 64, 72
2,37350, Note_on_c, 0, 55, 0
2,37359, Control_c, 0, 64, 0
2,37366, Note_on_c, 0, 54, 57
2,37387, Note_on_c, 0, 62, 70
2,37457, Note_on_c, 0, 62, 0
2,37463, Note_on_c, 0, 54, 0
2,37472, Note_on_c, 0, 52, 62
2,37493, Note_on_c, 0, 64, 69
2,37594, Note_on_c, 0, 52, 0
2,37604, Note_on_c, 0, 66, 72
2,37615, Note_on_c, 0, 64, 0
2,37618, Note_on_c, 0, 50, 62
2,37686, Note_on_c, 0, 66, 0
2,37711, Note_on_c, 0, 67, 77
2,37719, Note_on_c, 0, 52, 66
2,37723, Note_on_c, 0, 50, 0
2,37819, Note_on_c, 0, 52, 0
2,37839, Note_on_c, 0, 54, 69
2,37851, Note_on_c, 0, 69, 79
2,37862, Note_on_c, 0, 67, 0
2,37925, Note_on_c, 0, 69, 0
2,37954, Note_on_c, 0, 55, 75
2,37956, Note_on_c, 0, 54, 0
2,38060, Note_on_c, 0, 55, 0
2,38089, Note_on_c, 0, 57, 70
2,38101, Note_on_c, 0, 66, 83
2,38174, Note_on_c, 0, 66, 0
2,38185, Note_on_c, 0, 57, 0
2,38207, Note_on_c, 0, 59, 74
2,38207, Note_on_c, 0, 67, 78
2,38301, Note_on_c, 0, 59, 0
2,38325, Note_on_c, 0, 60, 80
2,38326, Note_on_c, 0, 69, 80
2,38350, Note_on_c, 0, 67, 0
2,38384, Note_on_c, 0, 60, 0
2,38420, Note_on_c, 0, 62, 74
2,38428, Note_on_c, 0, 69, 0
2,38429, Note_on_c, 0, 71, 81
2,38546, Control_c, 0, 64, 57
2,38560, Control_c, 0, 64, 67
2,38560, Note_on_c, 0, 62, 0
2,38563, Note_on_c, 0, 54, 77
2,38564, Note_on_c, 0, 50, 69
2,38564, Note_on_c, 0, 72, 84
2,38576, Control_c, 0, 64, 74
2,38589, Note_on_c, 0, 71, 0
2,38591, Control_c, 0, 64, 83
2,38605, Note_on_c, 0, 54, 0
2,38607, Control_c, 0, 64, 88
2,38607, Note_on_c, 0, 50, 0
2,38622, Control_c, 0, 64, 90
2,38637, Control_c, 0, 64, 92
2,38653, Control_c, 0, 64, 93
2,38667, Control_c, 0, 64, 94
2,38683, Control_c, 0, 64, 94
2,38775, Control_c, 0, 64, 93
2,38790, Control_c, 0, 64, 85
2,38806, Control_c, 0, 64, 69
2,38820, Control_c, 0, 64, 0
2,38820, Note_on_c, 0, 48, 84
2,38828, Note_on_c, 0, 69, 73
2,38919, Note_on_c, 0, 48, 0
2,38933, Note_on_c, 0, 50, 81
2,39032, Note_on_c, 0, 50, 0
2,39053, Note_on_c, 0, 69, 0
2,39056, Note_on_c, 0, 52, 80
2,39056, Note_on_c, 0, 72, 0
2,39062, Note_on_c, 0, 71, 73
2,39068, Note_on_c, 0, 67, 72
2,39157, Note_on_c, 0, 52, 0
2,39160, Note_on_c, 0, 50, 83
2,39179, Note_on_c, 0, 71, 0
2,39259, Note_on_c, 0, 50, 0
2,39303, Note_on_c, 0, 48, 85
2,39306, Note_on_c, 0, 69, 72
2,39338, Note_on_c, 0, 67, 0
2,39381, Note_on_c, 0, 48, 0
2,39571, Note_on_c, 0, 47, 77
2,39572, Note_on_c, 0, 67, 71
2,39618, Note_on_c, 0, 69, 0
2,39669, Note_on_c, 0, 47, 0
2,39681, Note_on_c, 0, 48, 74
2,39775, Note_on_c, 0, 48, 0
2,39793, Note_on_c, 0, 67, 0
2,39803, Note_on_c, 0, 50, 71
2,39809, Note_on_c, 0, 66, 75
2,39885, Note_on_c, 0, 50, 0
2,39905, Note_on_c, 0, 48, 77
2,40004, Note_on_c, 0, 48, 0
2,40018, Note_on_c, 0, 66, 0
2,40037, Note_on_c, 0, 47, 78
2,40058, Note_on_c, 0, 67, 71
2,40139, Note_on_c, 0, 47, 0
2,40180, Note_on_c, 0, 79, 74
2,40199, Note_on_c, 0, 67, 0
2,40294, Note_on_c, 0, 48, 80
2,40304, Note_on_c, 0, 78, 74
2,40353, Note_on_c, 0, 79, 0
2,40356, Note_on_c, 0, 48, 0
2,40401, Note_on_c, 0, 78, 0
2,40406, Note_on_c, 0, 76, 75
2,40493, Control_c, 0, 64, 51
2,40507, Control_c, 0, 64, 69
2,40523, Control_c, 0, 64, 77
2,40527, Note_on_c, 0, 50, 78
2,40537, Note_on_c, 0, 74, 78
2,40538, Control_c, 0, 64, 85
2,40545, Note_on_c, 0, 76, 0
2,40553, Control_c, 0, 64, 89
2,40559, Note_on_c, 0, 50, 0
2,40569, Control_c, 0, 64, 90
2,40583, Control_c, 0, 64, 91
2,40598, Control_c, 0, 64, 92
2,40614, Control_c, 0, 64, 93
2,40628, Note_on_c, 0, 74, 0
2,40629, Control_c, 0, 64, 94
2,40643, Note_on_c, 0, 78, 78
2,40766, Control_c, 0, 64, 91
2,40776, Note_on_c, 0, 55, 89
2,40779, Note_on_c, 0, 76, 72
2,40781, Control_c, 0, 64, 81
2,40795, Control_c, 0, 64, 48
2,40800, Note_on_c, 0, 78, 0
2,40819, Control_c, 0, 64, 0
2,40850, Note_on_c, 0, 55, 0
2,40906, Note_on_c, 0, 78, 80
2,40910, Note_on_c, 0, 76, 0
2,41035, Note_on_c, 0, 45, 81
2,41035, Note_on_c, 0, 76, 74
2,41066, Note_on_c, 0, 78, 0
2,41144, Note_on_c, 0, 76, 0
2,41154, Note_on_c, 0, 74, 72
2,41231, Note_on_c, 0, 74, 0
2,41272, Note_on_c, 0, 72, 74
2,41343, Note_on_c, 0, 72, 0
2,41381, Note_on_c, 0, 76, 76
2,41498, Note_on_c, 0, 74, 75
2,41505, Note_on_c, 0, 47, 81
2,41511, Note_on_c, 0, 45, 0
2,41511, Note_on_c, 0, 76, 0
2,41582, Note_on_c, 0, 74, 0
2,41586, Note_on_c, 0, 47, 0
2,41631, Note_on_c, 0, 76, 74
2,41753, Note_on_c, 0, 74, 74
2,41757, Note_on_c, 0, 48, 80
2,41764, Note_on_c, 0, 76, 0
2,41821, Note_on_c, 0, 48, 0
2,41839, Note_on_c, 0, 74, 0
2,41856, Note_on_c, 0, 72, 76
2,41936, Note_on_c, 0, 72, 0
2,41966, Control_c, 0, 64, 49
2,41977, Note_on_c, 0, 71, 71
2,41982, Control_c, 0, 64, 67
2,41988, Note_on_c, 0, 50, 81
2,41996, Control_c, 0, 64, 75
2,42012, Control_c, 0, 64, 84
2,42021, Note_on_c, 0, 50, 0
2,42027, Control_c, 0, 64, 90
2,42037, Note_on_c, 0, 71, 0
2,42042, Control_c, 0, 64, 92
2,42058, Control_c, 0, 64, 93
2,42077, Note_on_c, 0, 74, 76
2,42210, Control_c, 0, 64, 92
2,42213, Note_on_c, 0, 72, 74
2,42225, Control_c, 0, 64, 87
2,42228, Note_on_c, 0, 52, 87
2,42228, Note_on_c, 0, 74, 0
2,42239, Control_c, 0, 64, 78
2,42255, Control_c, 0, 64, 64
2,42270, Control_c, 0, 64, 0
2,42307, Note_on_c, 0, 52, 0
2,42313, Note_on_c, 0, 72, 0
2,42337, Note_on_c, 0, 74, 72
2,42478, Note_on_c, 0, 72, 71
2,42483, Note_on_c, 0, 42, 75
2,42491, Note_on_c, 0, 74, 0
2,42566, Note_on_c, 0, 72, 0
2,42588, Note_on_c, 0, 71, 76
2,42660, Note_on_c, 0, 71, 0
2,42709, Note_on_c, 0, 69, 72
2,42763, Note_on_c, 0, 69, 0
2,42819, Note_on_c, 0, 72, 74
2,42917, Note_on_c, 0, 72, 0
2,42932, Note_on_c, 0, 42, 0
2,42949, Note_on_c, 0, 43, 77
2,42952, Note_on_c, 0, 71, 73
2,43030, Note_on_c, 0, 71, 0
2,43046, Note_on_c, 0, 43, 0
2,43064, Note_on_c, 0, 69, 76
2,43066, Note_on_c, 0, 45, 75
2,43143, Note_on_c, 0, 69, 0
2,43166, Note_on_c, 0, 45, 0
2,43191, Note_on_c, 0, 47, 68
2,43196, Note_on_c, 0, 67, 68
2,43242, Note_on_c, 0, 67, 0
2,43306, Note_on_c, 0, 71, 66
2,43433, Note_on_c, 0, 66, 62
2,43440, Note_on_c, 0, 62, 60
2,43440, Note_on_c, 0, 71, 0
2,43479, Note_on_c, 0, 62, 0
2,43484, Note_on_c, 0, 66, 0
2,43553, Note_on_c, 0, 71, 60
2,43685, Note_on_c, 0, 64, 73
2,43687, Note_on_c, 0, 61, 72
2,43695, Note_on_c, 0, 71, 0
2,43720, Note_on_c, 0, 61, 0
2,43741, Note_on_c, 0, 64, 0
2,43789, Note_on_c, 0, 47, 0
2,43794, Note_on_c, 0, 45, 72
2,43819, Note_on_c, 0, 71, 57
2,43892, Note_on_c, 0, 45, 0
2,43920, Note_on_c, 0, 43, 72
2,43937, Note_on_c, 0, 62, 79
2,43940, Note_on_c, 0, 71, 0
2,43992, Note_on_c, 0, 62, 0
2,43998, Note_on_c, 0, 43, 0
2,44031, Note_on_c, 0, 42, 72
2,44055, Note_on_c, 0, 71, 71
2,44106, Note_on_c, 0, 42, 0
2,44156, Note_on_c, 0, 40, 78
2,44163, Note_on_c, 0, 61, 80
2,44177, Note_on_c, 0, 71, 0
2,44227, Note_on_c, 0, 61, 0
2,44272, Note_on_c, 0, 43, 81
2,44275, Note_on_c, 0, 71, 77
2,44282, Note_on_c, 0, 40, 0
2,44368, Note_on_c, 0, 43, 0
2,44398, Note_on_c, 0, 42, 85
2,44399, Note_on_c, 0, 69, 75
2,44407, Note_on_c, 0, 71, 0
2,44480, Note_on_c, 0, 42, 0
2,44502, Note_on_c, 0, 69, 0
2,44512, Note_on_c, 0, 43, 73
2,44519, Note_on_c, 0, 67, 73
2,44613, Note_on_c, 0, 43, 0
2,44624, Note_on_c, 0, 67, 0
2,44639, Note_on_c, 0, 45, 69
2,44640, Note_on_c, 0, 66, 72
2,44732, Note_on_c, 0, 66, 0
2,44777, Note_on_c, 0, 69, 60
2,44907, Note_on_c, 0, 64, 72
2,44909, Note_on_c, 0, 69, 0
2,44911, Note_on_c, 0, 61, 67
2,44943, Note_on_c, 0, 61, 0
2,44966, Note_on_c, 0, 64, 0
2,45028, Note_on_c, 0, 69, 72
2,45146, Note_on_c, 0, 69, 0
2,45153, Note_on_c, 0, 59, 71
2,45153, Note_on_c, 0, 62, 71
2,45194, Note_on_c, 0, 59, 0
2,45210, Note_on_c, 0, 62, 0
2,45244, Note_on_c, 0, 45, 0
2,45263, Note_on_c, 0, 69, 73
2,45264, Note_on_c, 0, 43, 57
2,45372, Note_on_c, 0, 43, 0
2,45387, Note_on_c, 0, 61, 73
2,45387, Note_on_c, 0, 69, 0
2,45389, Note_on_c, 0, 42, 67
2,45450, Note_on_c, 0, 61, 0
2,45458, Note_on_c, 0, 42, 0
2,45497, Note_on_c, 0, 40, 66
2,45507, Note_on_c, 0, 69, 68
2,45566, Note_on_c, 0, 40, 0
2,45620, Note_on_c, 0, 69, 0
2,45633, Note_on_c, 0, 38, 62
2,45636, Note_on_c, 0, 59, 64
2,45686, Note_on_c, 0, 59, 0
2,45733, Note_on_c, 0, 38, 0
2,45737, Note_on_c, 0, 42, 62
2,45740, Note_on_c, 0, 69, 72
2,45833, Note_on_c, 0, 42, 0
2,45860, Note_on_c, 0, 69, 0
2,45866, Note_on_c, 0, 67, 64
2,45869, Note_on_c, 0, 40, 68
2,45936, Note_on_c, 0, 67, 0
2,45949, Note_on_c, 0, 40, 0
2,45976, Note_on_c, 0, 42, 64
2,45987, Note_on_c, 0, 66, 69
2,46069, Note_on_c, 0, 42, 0
2,46079, Note_on_c, 0, 66, 0
2,46104, Note_on_c, 0, 43, 57
2,46110, Note_on_c, 0, 64, 64
2,46170, Note_on_c, 0, 64, 0
2,46226, Note_on_c, 0, 67, 67
2,46345, Note_on_c, 0, 67, 0
2,46361, Note_on_c, 0, 62, 60
2,46364, Note_on_c, 0, 59, 55
2,46401, Note_on_c, 0, 59, 0
2,46401, Note_on_c, 0, 62, 0
2,46468, Note_on_c, 0, 67, 67
2,46599, Note_on_c, 0, 61, 71
2,46600, Note_on_c, 0, 67, 0
2,46610, Note_on_c, 0, 57, 61
2,46650, Note_on_c, 0, 57, 0
2,46658, Note_on_c, 0, 61, 0
2,46691, Note_on_c, 0, 43, 0
2,46714, Note_on_c, 0, 42, 56
2,46719, Note_on_c, 0, 67, 71
2,46804, Note_on_c, 0, 42, 0
2,46841, Note_on_c, 0, 59, 78
2,46842, Note_on_c, 0, 40, 62
2,46843, Note_on_c, 0, 67, 0
2,46901, Note_on_c, 0, 59, 0
2,46939, Note_on_c, 0, 40, 0
2,46963, Note_on_c, 0, 38, 63
2,46976, Note_on_c, 0, 67, 77
2,47058, Note_on_c, 0, 38, 0
2,47068, Note_on_c, 0, 67, 0
2,47090, Note_on_c, 0, 37, 68
2,47096, Note_on_c, 0, 57, 73
2,47162, Note_on_c, 0, 37, 0
2,47182, Note_on_c, 0, 57, 0
2,47199, Note_on_c, 0, 67, 76
2,47206, Note_on_c, 0, 40, 69
2,47264, Note_on_c, 0, 67, 0
2,47281, Note_on_c, 0, 40, 0
2,47312, Note_on_c, 0, 66, 81
2,47320, Note_on_c, 0, 38, 64
2,47425, Note_on_c, 0, 66, 0
2,47427, Note_on_c, 0, 38, 0
2,47433, Note_on_c, 0, 74, 74
2,47442, Note_on_c, 0, 40, 70
2,47519, Note_on_c, 0, 40, 0
2,47556, Note_on_c, 0, 72, 71
2,47558, Note_on_c, 0, 42, 66
2,47608, Note_on_c, 0, 42, 0
2,47611, Note_on_c, 0, 74, 0
2,47661, Note_on_c, 0, 38, 65
2,47670, Note_on_c, 0, 71, 70
2,47673, Note_on_c, 0, 72, 0
2,47767, Note_on_c, 0, 38, 0
2,47785, Note_on_c, 0, 71, 0
2,47800, Note_on_c, 0, 69, 80
2,47808, Note_on_c, 0, 43, 70
2,47850, Note_on_c, 0, 43, 0
2,47862, Note_on_c, 0, 69, 0
2,47899, Note_on_c, 0, 38, 67
2,47917, Note_on_c, 0, 67, 73
2,48027, Note_on_c, 0, 38, 0
2,48035, Note_on_c, 0, 45, 84
2,48036, Note_on_c, 0, 66, 79
2,48039, Note_on_c, 0, 67, 0
2,48091, Note_on_c, 0, 45, 0
2,48150, Note_on_c, 0, 64, 74
2,48154, Note_on_c, 0, 38, 67
2,48157, Note_on_c, 0, 66, 0
2,48263, Note_on_c, 0, 38, 0
2,48275, Note_on_c, 0, 62, 83
2,48276, Note_on_c, 0, 64, 0
2,48284, Note_on_c, 0, 47, 85
2,48343, Note_on_c, 0, 47, 0
2,48357, Note_on_c, 0, 62, 0
2,48388, Note_on_c, 0, 38, 72
2,48388, Note_on_c, 0, 60, 79
2,48507, Note_on_c, 0, 38, 0
2,48513, Note_on_c, 0, 60, 0
2,48521, Note_on_c, 0, 59, 78
2,48525, Note_on_c, 0, 48, 86
2,48589, Note_on_c, 0, 48, 0
2,48611, Note_on_c, 0, 59, 0
2,48627, Note_on_c, 0, 38, 77
2,48631, Note_on_c, 0, 57, 77
2,48722, Note_on_c, 0, 57, 0
2,48756, Control_c, 0, 64, 54
2,48758, Note_on_c, 0, 38, 0
2,48763, Note_on_c, 0, 47, 86
2,48770, Note_on_c, 0, 55, 74
2,48772, Control_c, 0, 64, 68
2,48787, Control_c, 0, 64, 76
2,48801, Control_c, 0, 64, 84
2,48807, Note_on_c, 0, 47, 0
2,48817, Control_c, 0, 64, 89
2,48817, Note_on_c, 0, 55, 0
2,48832, Control_c, 0, 64, 91
2,48846, Control_c, 0, 64, 93
2,48862, Control_c, 0, 64, 93
2,48877, Control_c, 0, 64, 94
2,48880, Note_on_c, 0, 55, 77
2,48890, Note_on_c, 0, 57, 75
2,48893, Control_c, 0, 64, 94
2,48939, Control_c, 0, 64, 94
2,48948, Note_on_c, 0, 57, 0
2,48959, Note_on_c, 0, 55, 0
2,48968, Control_c, 0, 64, 89
2,48984, Control_c, 0, 64, 76
2,48999, Control_c, 0, 64, 0
2,49010, Note_on_c, 0, 59, 76
2,49014, Note_on_c, 0, 53, 74
2,49077, Note_on_c, 0, 59, 0
2,49103, Note_on_c, 0, 53, 0
2,49131, Note_on_c, 0, 52, 78
2,49132, Note_on_c, 0, 55, 70
2,49202, Note_on_c, 0, 52, 0
2,49220, Note_on_c, 0, 55, 0
2,49246, Note_on_c, 0, 60, 84
2,49261, Note_on_c, 0, 50, 74
2,49305, Note_on_c, 0, 50, 0
2,49315, Note_on_c, 0, 60, 0
2,49372, Note_on_c, 0, 55, 68
2,49379, Note_on_c, 0, 48, 63
2,49457, Note_on_c, 0, 55, 0
2,49495, Note_on_c, 0, 62, 88
2,49500, Note_on_c, 0, 48, 0
2,49507, Note_on_c, 0, 47, 79
2,49560, Note_on_c, 0, 62, 0
2,49583, Note_on_c, 0, 47, 0
2,49611, Note_on_c, 0, 55, 71
2,49626, Note_on_c, 0, 45, 75
2,49701, Note_on_c, 0, 45, 0
2,49709, Note_on_c, 0, 55, 0
2,49736, Note_on_c, 0, 64, 89
2,49749, Note_on_c, 0, 43, 77
2,49803, Note_on_c, 0, 64, 0
2,49822, Note_on_c, 0, 43, 0
2,49850, Note_on_c, 0, 55, 73
2,49857, Note_on_c, 0, 41, 77
2,49947, Note_on_c, 0, 41, 0
2,49964, Note_on_c, 0, 55, 0
2,49973, Note_on_c, 0, 65, 91
2,49979, Note_on_c, 0, 40, 80
2,50042, Note_on_c, 0, 65, 0
2,50051, Note_on_c, 0, 40, 0
2,50081, Note_on_c, 0, 38, 74
2,50087, Note_on_c, 0, 55, 78
2,50166, Note_on_c, 0, 38, 0
2,50207, Note_on_c, 0, 55, 0
2,50216, Note_on_c, 0, 36, 79
2,50224, Note_on_c, 0, 64, 88
2,50302, Note_on_c, 0, 64, 0
2,50342, Note_on_c, 0, 38, 72
2,50345, Note_on_c, 0, 72, 79
2,50348, Note_on_c, 0, 36, 0
2,50428, Note_on_c, 0, 38, 0
2,50459, Note_on_c, 0, 71, 80
2,50459, Note_on_c, 0, 72, 0
2,50465, Note_on_c, 0, 40, 73
2,50541, Note_on_c, 0, 71, 0
2,50558, Note_on_c, 0, 40, 0
2,50575, Note_on_c, 0, 42, 66
2,50576, Note_on_c, 0, 74, 74
2,50697, Note_on_c, 0, 69, 88
2,50703, Note_on_c, 0, 42, 0
2,50704, Note_on_c, 0, 74, 0
2,50706, Note_on_c, 0, 44, 78
2,50755, Note_on_c, 0, 69, 0
2,50779, Note_on_c, 0, 44, 0
2,50820, Note_on_c, 0, 74, 78
2,50831, Note_on_c, 0, 45, 69
2,50939, Note_on_c, 0, 45, 0
2,50946, Note_on_c, 0, 47, 76
2,50950, Note_on_c, 0, 68, 91
2,50958, Note_on_c, 0, 74, 0
2,51026, Note_on_c, 0, 68, 0
2,51033, Note_on_c, 0, 47, 0
2,51057, Note_on_c, 0, 48, 74
2,51060, Note_on_c, 0, 74, 83
2,51175, Note_on_c, 0, 48, 0
2,51187, Note_on_c, 0, 50, 81
2,51191, Note_on_c, 0, 66, 89
2,51203, Note_on_c, 0, 74, 0
2,51256, Note_on_c, 0, 50, 0
2,51268, Note_on_c, 0, 66, 0
2,51299, Note_on_c, 0, 52, 78
2,51303, Note_on_c, 0, 74, 85
2,51422, Note_on_c, 0, 74, 0
2,51427, Note_on_c, 0, 64, 85
2,51436, Note_on_c, 0, 54, 78
2,51448, Note_on_c, 0, 52, 0
2,51515, Note_on_c, 0, 64, 0
2,51539, Note_on_c, 0, 74, 87
2,51554, Note_on_c, 0, 56, 79
2,51567, Note_on_c, 0, 54, 0
2,51655, Note_on_c, 0, 56, 0
2,51672, Note_on_c, 0, 72, 88
2,51684, Note_on_c, 0, 57, 73
2,51684, Note_on_c, 0, 74, 0
2,51749, Note_on_c, 0, 72, 0
2,51790, Note_on_c, 0, 69, 89
2,51803, Note_on_c, 0, 55, 75
2,51806, Note_on_c, 0, 57, 0
2,51894, Note_on_c, 0, 55, 0
2,51906, Note_on_c, 0, 54, 76
2,51919, Note_on_c, 0, 71, 88
2,51920, Note_on_c, 0, 69, 0
2,51972, Note_on_c, 0, 54, 0
2,52011, Note_on_c, 0, 57, 71
2,52028, Note_on_c, 0, 73, 89
2,52036, Note_on_c, 0, 71, 0
2,52147, Note_on_c, 0, 75, 89
2,52148, Note_on_c, 0, 52, 79
2,52149, Note_on_c, 0, 57, 0
2,52161, Note_on_c, 0, 73, 0
2,52204, Note_on_c, 0, 75, 0
2,52217, Note_on_c, 0, 52, 0
2,52255, Note_on_c, 0, 57, 76
2,52259, Note_on_c, 0, 76, 92
2,52372, Note_on_c, 0, 57, 0
2,52390, Note_on_c, 0, 51, 80
2,52391, Note_on_c, 0, 78, 94
2,52393, Note_on_c, 0, 76, 0
2,52462, Note_on_c, 0, 78, 0
2,52464, Note_on_c, 0, 51, 0
2,52491, Note_on_c, 0, 57, 70
2,52501, Note_on_c, 0, 79, 92
2,52615, Note_on_c, 0, 57, 0
2,52619, Note_on_c, 0, 49, 81
2,52625, Note_on_c, 0, 79, 0
2,52625, Note_on_c, 0, 81, 95
2,52695, Note_on_c, 0, 49, 0
2,52725, Note_on_c, 0, 57, 75
2,52725, Note_on_c, 0, 83, 93
2,52737, Note_on_c, 0, 81, 0
2,52841, Note_on_c, 0, 83, 0
2,52851, Note_on_c, 0, 57, 0
2,52852, Note_on_c, 0, 84, 94
2,52859, Note_on_c, 0, 47, 87
2,52916, Note_on_c, 0, 84, 0
2,52937, Note_on_c, 0, 47, 0
2,52962, Note_on_c, 0, 57, 82
2,52965, Note_on_c, 0, 75, 89
2,53040, Note_on_c, 0, 75, 0
2,53074, Note_on_c, 0, 57, 0
2,53108, Note_on_c, 0, 76, 94
2,53109, Note_on_c, 0, 55, 80
2,53132, Control_c, 0, 64, 68
2,53148, Control_c, 0, 64, 79
2,53159, Note_on_c, 0, 76, 0
2,53163, Control_c, 0, 64, 97
2,53179, Control_c, 0, 64, 108
2,53181, Note_on_c, 0, 55, 0
2,53194, Control_c, 0, 64, 116
2,53208, Control_c, 0, 64, 120
2,53224, Control_c, 0, 64, 125
2,53239, Control_c, 0, 64, 127
2,53315, Control_c, 0, 64, 124
2,53329, Control_c, 0, 64, 103
2,53345, Control_c, 0, 64, 78
2,53360, Control_c, 0, 64, 0
2,53377, Note_on_c, 0, 78, 95
2,53378, Note_on_c, 0, 60, 81
2,53440, Note_on_c, 0, 60, 0
2,53458, Note_on_c, 0, 78, 0
2,53481, Note_on_c, 0, 76, 72
2,53487, Note_on_c, 0, 77, 73
2,53562, Note_on_c, 0, 77, 0
2,53599, Note_on_c, 0, 59, 84
2,53608, Note_on_c, 0, 75, 89
2,53617, Note_on_c, 0, 76, 0
2,53647, Note_on_c, 0, 59, 0
2,53666, Note_on_c, 0, 75, 0
2,53712, Note_on_c, 0, 76, 86
2,53794, Note_on_c, 0, 76, 0
2,53840, Note_on_c, 0, 78, 99
2,53845, Note_on_c, 0, 57, 80
2,53848, Control_c, 0, 64, 68
2,53871, Control_c, 0, 64, 80
2,53886, Control_c, 0, 64, 94
2,53895, Note_on_c, 0, 78, 0
2,53902, Control_c, 0, 64, 104
2,53906, Note_on_c, 0, 57, 0
2,53917, Control_c, 0, 64, 107
2,53931, Control_c, 0, 64, 108
2,53947, Control_c, 0, 64, 109
2,53962, Control_c, 0, 64, 110
2,53978, Control_c, 0, 64, 112
2,53993, Control_c, 0, 64, 113
2,54053, Control_c, 0, 64, 113
2,54069, Control_c, 0, 64, 105
2,54084, Control_c, 0, 64, 84
2,54099, Control_c, 0, 64, 0
2,54108, Note_on_c, 0, 79, 95
2,54110, Note_on_c, 0, 59, 77
2,54182, Note_on_c, 0, 59, 0
2,54217, Note_on_c, 0, 78, 93
2,54243, Note_on_c, 0, 79, 0
2,54329, Note_on_c, 0, 78, 0
2,54335, Note_on_c, 0, 47, 82
2,54343, Note_on_c, 0, 76, 90
2,54379, Note_on_c, 0, 47, 0
2,54442, Note_on_c, 0, 78, 88
2,54451, Note_on_c, 0, 76, 0
2,54526, Note_on_c, 0, 78, 0
2,54570, Control_c, 0, 64, 61
2,54577, Note_on_c, 0, 79, 94
2,54585, Note_on_c, 0, 52, 75
2,54586, Control_c, 0, 64, 71
2,54601, Control_c, 0, 64, 82
2,54617, Control_c, 0, 64, 94
2,54638, Note_on_c, 0, 79, 0
2,54639, Control_c, 0, 64, 102
2,54654, Control_c, 0, 64, 105
2,54670, Control_c, 0, 64, 106
2,54685, Control_c, 0, 64, 107
2,54697, Note_on_c, 0, 52, 0
2,54699, Note_on_c, 0, 54, 73
2,54700, Control_c, 0, 64, 107
2,54760, Control_c, 0, 64, 102
2,54775, Control_c, 0, 64, 88
2,54791, Control_c, 0, 64, 65
2,54806, Control_c, 0, 64, 0
2,54806, Note_on_c, 0, 54, 0
2,54828, Note_on_c, 0, 55, 66
2,54835, Note_on_c, 0, 78, 97
2,54900, Note_on_c, 0, 78, 0
2,54910, Note_on_c, 0, 55, 0
2,54941, Note_on_c, 0, 52, 69
2,55031, Note_on_c, 0, 52, 0
2,55066, Note_on_c, 0, 76, 95
2,55077, Note_on_c, 0, 57, 78
2,55118, Note_on_c, 0, 76, 0
2,55137, Note_on_c, 0, 57, 0
2,55177, Note_on_c, 0, 52, 63
2,55301, Note_on_c, 0, 52, 0
2,55307, Note_on_c, 0, 71, 92
2,55314, Note_on_c, 0, 59, 79
2,55378, Note_on_c, 0, 71, 0
2,55380, Note_on_c, 0, 59, 0
2,55427, Note_on_c, 0, 52, 71
2,55547, Note_on_c, 0, 52, 0
2,55558, Note_on_c, 0, 81, 95
2,55567, Note_on_c, 0, 61, 80
2,55632, Note_on_c, 0, 61, 0
2,55680, Note_on_c, 0, 52, 63
2,55802, Note_on_c, 0, 52, 0
2,55807, Note_on_c, 0, 63, 88
2,55876, Note_on_c, 0, 63, 0
2,55916, Note_on_c, 0, 52, 72
2,56024, Note_on_c, 0, 52, 0
2,56043, Note_on_c, 0, 79, 82
2,56053, Note_on_c, 0, 64, 84
2,56073, Note_on_c, 0, 81, 0
2,56108, Note_on_c, 0, 79, 0
2,56152, Note_on_c, 0, 64, 0
2,56156, Note_on_c, 0, 63, 80
2,56268, Note_on_c, 0, 63, 0
2,56284, Note_on_c, 0, 64, 79
2,56290, Note_on_c, 0, 78, 89
2,56347, Note_on_c, 0, 78, 0
2,56365, Note_on_c, 0, 64, 0
2,56391, Note_on_c, 0, 66, 81
2,56494, Note_on_c, 0, 66, 0
2,56523, Note_on_c, 0, 67, 77
2,56526, Note_on_c, 0, 76, 93
2,56583, Note_on_c, 0, 76, 0
2,56594, Note_on_c, 0, 67, 0
2,56629, Note_on_c, 0, 64, 74
2,56757, Note_on_c, 0, 64, 0
2,56760, Note_on_c, 0, 75, 94
2,56768, Note_on_c, 0, 66, 75
2,56833, Note_on_c, 0, 75, 0
2,56846, Note_on_c, 0, 66, 0
2,56878, Note_on_c, 0, 64, 68
2,57018, Note_on_c, 0, 84, 97
2,57020, Note_on_c, 0, 66, 71
2,57023, Note_on_c, 0, 64, 0
2,57139, Note_on_c, 0, 67, 77
2,57142, Note_on_c, 0, 66, 0
2,57229, Note_on_c, 0, 67, 0
2,57257, Note_on_c, 0, 69, 77
2,57345, Note_on_c, 0, 69, 0
2,57363, Note_on_c, 0, 66, 78
2,57444, Note_on_c, 0, 66, 0
2,57490, Control_c, 0, 64, 57
2,57499, Note_on_c, 0, 83, 88
2,57505, Note_on_c, 0, 84, 0
2,57506, Control_c, 0, 64, 69
2,57514, Note_on_c, 0, 67, 79
2,57521, Control_c, 0, 64, 78
2,57536, Control_c, 0, 64, 88
2,57552, Control_c, 0, 64, 94
2,57561, Note_on_c, 0, 83, 0
2,57567, Control_c, 0, 64, 97
2,57570, Note_on_c, 0, 67, 0
2,57583, Control_c, 0, 64, 101
2,57598, Control_c, 0, 64, 104
2,57612, Control_c, 0, 64, 106
2,57628, Control_c, 0, 64, 108
2,57643, Control_c, 0, 64, 108
2,57711, Control_c, 0, 64, 105
2,57726, Control_c, 0, 64, 94
2,57742, Control_c, 0, 64, 76
2,57757, Control_c, 0, 64, 0
2,57765, Note_on_c, 0, 69, 72
2,57775, Note_on_c, 0, 84, 85
2,57869, Note_on_c, 0, 69, 0
2,57872, Note_on_c, 0, 67, 70
2,57877, Note_on_c, 0, 83, 82
2,57913, Note_on_c, 0, 84, 0
2,57962, Note_on_c, 0, 67, 0
2,57986, Note_on_c, 0, 66, 77
2,57989, Note_on_c, 0, 81, 82
2,58011, Note_on_c, 0, 83, 0
2,58050, Note_on_c, 0, 66, 0
2,58094, Note_on_c, 0, 64, 75
2,58095, Note_on_c, 0, 81, 0
2,58100, Note_on_c, 0, 79, 83
2,58179, Note_on_c, 0, 64, 0
2,58200, Note_on_c, 0, 79, 0
2,58216, Note_on_c, 0, 69, 75
2,58219, Note_on_c, 0, 78, 82
2,58302, Note_on_c, 0, 78, 0
2,58490, Note_on_c, 0, 81, 84
2,58600, Note_on_c, 0, 79, 77
2,58621, Note_on_c, 0, 81, 0
2,58714, Note_on_c, 0, 78, 74
2,58728, Note_on_c, 0, 79, 0
2,58816, Note_on_c, 0, 76, 71
2,58816, Note_on_c, 0, 78, 0
2,58922, Note_on_c, 0, 76, 0
2,58941, Note_on_c, 0, 75, 68
2,59016, Note_on_c, 0, 75, 0
2,59040, Note_on_c, 0, 69, 0
2,59055, Note_on_c, 0, 67, 60
2,59179, Note_on_c, 0, 67, 0
2,59182, Note_on_c, 0, 81, 74
2,59183, Note_on_c, 0, 66, 73
2,59248, Note_on_c, 0, 66, 0
2,59264, Note_on_c, 0, 81, 0
2,59304, Note_on_c, 0, 69, 65
2,59412, Note_on_c, 0, 69, 0
2,59433, Note_on_c, 0, 64, 71
2,59435, Note_on_c, 0, 79, 73
2,59496, Note_on_c, 0, 64, 0
2,59517, Note_on_c, 0, 79, 0
2,59542, Note_on_c, 0, 69, 60
2,59665, Note_on_c, 0, 69, 0
2,59671, Note_on_c, 0, 78, 71
2,59675, Note_on_c, 0, 63, 80
2,59734, Note_on_c, 0, 63, 0
2,59743, Note_on_c, 0, 78, 0
2,59789, Note_on_c, 0, 69, 59
2,59907, Note_on_c, 0, 69, 0
2,59916, Note_on_c, 0, 76, 73
2,59918, Note_on_c, 0, 61, 78
2,59970, Note_on_c, 0, 61, 0
2,59979, Note_on_c, 0, 76, 0
2,60034, Note_on_c, 0, 69, 70
2,60139, Note_on_c, 0, 69, 0
2,60163, Note_on_c, 0, 59, 79
2,60165, Note_on_c, 0, 75, 69
2,60209, Note_on_c, 0, 75, 0
2,60221, Note_on_c, 0, 59, 0
2,60264, Note_on_c, 0, 69, 75
2,60360, Note_on_c, 0, 69, 0
2,60380, Control_c, 0, 64, 42
2,60395, Control_c, 0, 64, 66
2,60404, Note_on_c, 0, 67, 86
2,60407, Note_on_c, 0, 76, 69
2,60410, Control_c, 0, 64, 73
2,60426, Control_c, 0, 64, 82
2,60441, Control_c, 0, 64, 87
2,60452, Note_on_c, 0, 76, 0
2,60456, Control_c, 0, 64, 91
2,60472, Control_c, 0, 64, 94
2,60472, Note_on_c, 0, 67, 0
2,60486, Control_c, 0, 64, 96
2,60502, Control_c, 0, 64, 98
2,60517, Control_c, 0, 64, 100
2,60593, Control_c, 0, 64, 99
2,60608, Control_c, 0, 64, 94
2,60623, Control_c, 0, 64, 79
2,60638, Control_c, 0, 64, 56
2,60653, Control_c, 0, 64, 0
2,60664, Note_on_c, 0, 66, 75
2,60676, Note_on_c, 0, 74, 69
2,60723, Note_on_c, 0, 74, 0
2,60787, Note_on_c, 0, 66, 0
2,60788, Note_on_c, 0, 67, 77
2,60880, Note_on_c, 0, 67, 0
2,60896, Note_on_c, 0, 69, 74
2,60899, Note_on_c, 0, 72, 72
2,60943, Note_on_c, 0, 72, 0
2,61000, Note_on_c, 0, 69, 0
2,61009, Note_on_c, 0, 67, 75
2,61100, Note_on_c, 0, 67, 0
2,61135, Note_on_c, 0, 66, 75
2,61135, Note_on_c, 0, 74, 68
2,61227, Note_on_c, 0, 74, 0
2,61250, Note_on_c, 0, 66, 0
2,61384, Note_on_c, 0, 64, 69
2,61390, Note_on_c, 0, 72, 76
2,61445, Note_on_c, 0, 72, 0
2,61480, Note_on_c, 0, 64, 0
2,61488, Note_on_c, 0, 66, 76
2,61605, Note_on_c, 0, 66, 0
2,61621, Note_on_c, 0, 67, 68
2,61627, Note_on_c, 0, 71, 73
2,61667, Note_on_c, 0, 71, 0
2,61705, Note_on_c, 0, 67, 0
2,61721, Note_on_c, 0, 66, 76
2,61829, Note_on_c, 0, 66, 0
2,61850, Note_on_c, 0, 64, 72
2,61853, Note_on_c, 0, 72, 76
2,61923, Note_on_c, 0, 64, 0
2,61959, Note_on_c, 0, 72, 0
2,61975, Note_on_c, 0, 84, 75
2,62098, Note_on_c, 0, 66, 79
2,62099, Note_on_c, 0, 83, 72
2,62099, Note_on_c, 0, 84, 0
2,62155, Note_on_c, 0, 66, 0
2,62180, Note_on_c, 0, 83, 0
2,62209, Note_on_c, 0, 81, 78
2,62331, Note_on_c, 0, 81, 0
2,62338, Note_on_c, 0, 79, 75
2,62342, Note_on_c, 0, 67, 80
2,62349, Control_c, 0, 64, 62
2,62364, Control_c, 0, 64, 72
2,62380, Control_c, 0, 64, 82
2,62380, Note_on_c, 0, 67, 0
2,62394, Control_c, 0, 64, 90
2,62409, Control_c, 0, 64, 92
2,62425, Control_c, 0, 64, 93
2,62425, Note_on_c, 0, 79, 0
2,62440, Control_c, 0, 64, 93
2,62455, Note_on_c, 0, 83, 77
2,62578, Control_c, 0, 64, 93
2,62588, Note_on_c, 0, 81, 74
2,62590, Note_on_c, 0, 72, 85
2,62593, Control_c, 0, 64, 90
2,62608, Control_c, 0, 64, 83
2,62620, Note_on_c, 0, 83, 0
2,62623, Control_c, 0, 64, 73
2,62638, Control_c, 0, 64, 27
2,62653, Control_c, 0, 64, 0
2,62676, Note_on_c, 0, 72, 0
2,62710, Note_on_c, 0, 83, 69
2,62713, Note_on_c, 0, 81, 0
2,62842, Note_on_c, 0, 63, 73
2,62847, Note_on_c, 0, 81, 71
2,62865, Note_on_c, 0, 83, 0
2,62954, Note_on_c, 0, 81, 0
2,62965, Note_on_c, 0, 79, 73
2,63003, Control_c, 0, 64, 23
2,63019, Control_c, 0, 64, 58
2,63033, Control_c, 0, 64, 65
2,63048, Control_c, 0, 64, 69
2,63050, Note_on_c, 0, 79, 0
2,63064, Control_c, 0, 64, 73
2,63085, Control_c, 0, 64, 79
2,63094, Note_on_c, 0, 78, 72
2,63101, Control_c, 0, 64, 83
2,63116, Control_c, 0, 64, 84
2,63131, Control_c, 0, 64, 85
2,63147, Control_c, 0, 64, 86
2,63161, Note_on_c, 0, 78, 0
2,63162, Control_c, 0, 64, 87
2,63166, Note_on_c, 0, 63, 0
2,63178, Control_c, 0, 64, 87
2,63206, Note_on_c, 0, 81, 78
2,63330, Control_c, 0, 64, 84
2,63335, Note_on_c, 0, 64, 80
2,63335, Note_on_c, 0, 79, 77
2,63346, Control_c, 0, 64, 73
2,63354, Note_on_c, 0, 81, 0
2,63361, Control_c, 0, 64, 0
2,63391, Note_on_c, 0, 64, 0
2,63414, Note_on_c, 0, 79, 0
2,63460, Note_on_c, 0, 81, 71
2,63574, Note_on_c, 0, 79, 74
2,63578, Note_on_c, 0, 66, 82
2,63587, Note_on_c, 0, 81, 0
2,63635, Note_on_c, 0, 66, 0
2,63661, Note_on_c, 0, 79, 0
2,63682, Note_on_c, 0, 78, 75
2,63776, Note_on_c, 0, 78, 0
2,63813, Note_on_c, 0, 67, 80
2,63813, Note_on_c, 0, 76, 72
2,63832, Control_c, 0, 64, 59
2,63854, Control_c, 0, 64, 68
2,63855, Note_on_c, 0, 67, 0
2,63870, Control_c, 0, 64, 75
2,63884, Control_c, 0, 64, 80
2,63891, Note_on_c, 0, 76, 0
2,63900, Control_c, 0, 64, 83
2,63915, Control_c, 0, 64, 85
2,63921, Note_on_c, 0, 79, 73
2,63929, Control_c, 0, 64, 85
2,63945, Control_c, 0, 64, 86
2,63960, Control_c, 0, 64, 87
2,63991, Control_c, 0, 64, 87
2,64051, Control_c, 0, 64, 87
2,64054, Note_on_c, 0, 69, 84
2,64054, Note_on_c, 0, 78, 70
2,64067, Control_c, 0, 64, 82
2,64083, Control_c, 0, 64, 69
2,64090, Note_on_c, 0, 79, 0
2,64099, Control_c, 0, 64, 0
2,64108, Note_on_c, 0, 69, 0
2,64161, Note_on_c, 0, 78, 0
2,64173, Note_on_c, 0, 79, 64
2,64311, Note_on_c, 0, 78, 72
2,64312, Note_on_c, 0, 59, 73
2,64349, Note_on_c, 0, 79, 0
2,64409, Note_on_c, 0, 78, 0
2,64415, Note_on_c, 0, 76, 74
2,64518, Note_on_c, 0, 76, 0
2,64550, Note_on_c, 0, 75, 70
2,64647, Note_on_c, 0, 75, 0
2,64663, Note_on_c, 0, 78, 71
2,64764, Note_on_c, 0, 59, 0
2,64776, Note_on_c, 0, 60, 67
2,64782, Note_on_c, 0, 78, 0
2,64790, Note_on_c, 0, 76, 74
2,64864, Note_on_c, 0, 60, 0
2,64889, Note_on_c, 0, 59, 72
2,64992, Note_on_c, 0, 59, 0
2,65018, Note_on_c, 0, 57, 67
2,65031, Note_on_c, 0, 78, 80
2,65051, Note_on_c, 0, 76, 0
2,65127, Note_on_c, 0, 57, 0
2,65132, Note_on_c, 0, 59, 65
2,65139, Note_on_c, 0, 78, 0
2,65140, Note_on_c, 0, 79, 78
2,65235, Note_on_c, 0, 59, 0
2,65261, Note_on_c, 0, 60, 67
2,65266, Note_on_c, 0, 81, 84
2,65275, Note_on_c, 0, 79, 0
2,65360, Note_on_c, 0, 60, 0
2,65366, Note_on_c, 0, 62, 78
2,65464, Note_on_c, 0, 62, 0
2,65500, Note_on_c, 0, 64, 79
2,65607, Note_on_c, 0, 63, 74
2,65612, Note_on_c, 0, 64, 0
2,65703, Note_on_c, 0, 81, 0
2,65718, Note_on_c, 0, 63, 0
2,65733, Note_on_c, 0, 64, 74
2,65739, Note_on_c, 0, 79, 80
2,65834, Note_on_c, 0, 79, 0
2,65838, Note_on_c, 0, 64, 0
2,65846, Note_on_c, 0, 66, 79
2,65847, Note_on_c, 0, 81, 87
2,65962, Note_on_c, 0, 66, 0
2,65964, Note_on_c, 0, 67, 84
2,65965, Note_on_c, 0, 81, 0
2,65981, Note_on_c, 0, 83, 80
2,66014, Control_c, 0, 64, 13
2,66030, Control_c, 0, 64, 62
2,66045, Control_c, 0, 64, 69
2,66054, Note_on_c, 0, 67, 0
2,66061, Control_c, 0, 64, 75
2,66076, Control_c, 0, 64, 80
2,66083, Note_on_c, 0, 69, 86
2,66090, Control_c, 0, 64, 83
2,66106, Control_c, 0, 64, 83
2,66121, Control_c, 0, 64, 84
2,66124, Note_on_c, 0, 69, 0
2,66220, Control_c, 0, 64, 83
2,66220, Note_on_c, 0, 71, 92
2,66235, Control_c, 0, 64, 79
2,66249, Note_on_c, 0, 83, 0
2,66250, Control_c, 0, 64, 66
2,66265, Control_c, 0, 64, 0
2,66333, Note_on_c, 0, 47, 68
2,66403, Note_on_c, 0, 49, 57
2,66416, Note_on_c, 0, 47, 0
2,66448, Note_on_c, 0, 49, 0
2,66451, Note_on_c, 0, 51, 74
2,66454, Note_on_c, 0, 81, 88
2,66518, Note_on_c, 0, 51, 0
2,66553, Note_on_c, 0, 47, 68
2,66662, Note_on_c, 0, 47, 0
2,66693, Note_on_c, 0, 79, 80
2,66700, Note_on_c, 0, 52, 83
2,66725, Note_on_c, 0, 81, 0
2,66756, Note_on_c, 0, 52, 0
2,66804, Note_on_c, 0, 47, 62
2,66915, Note_on_c, 0, 71, 0
2,66928, Note_on_c, 0, 47, 0
2,66946, Note_on_c, 0, 78, 82
2,66951, Note_on_c, 0, 54, 85
2,66962, Note_on_c, 0, 79, 0
2,67008, Note_on_c, 0, 54, 0
2,67032, Note_on_c, 0, 78, 0
2,67050, Note_on_c, 0, 79, 80
2,67053, Note_on_c, 0, 47, 70
2,67173, Note_on_c, 0, 47, 0
2,67186, Note_on_c, 0, 81, 85
2,67188, Note_on_c, 0, 55, 82
2,67194, Note_on_c, 0, 72, 79
2,67200, Control_c, 0, 64, 48
2,67201, Note_on_c, 0, 79, 0
2,67215, Control_c, 0, 64, 67
2,67231, Control_c, 0, 64, 73
2,67245, Control_c, 0, 64, 80
2,67255, Note_on_c, 0, 55, 0
2,67255, Note_on_c, 0, 72, 0
2,67256, Note_on_c, 0, 81, 0
2,67261, Control_c, 0, 64, 83
2,67276, Control_c, 0, 64, 84
2,67291, Control_c, 0, 64, 85
2,67307, Control_c, 0, 64, 86
2,67308, Note_on_c, 0, 47, 65
2,67336, Control_c, 0, 64, 86
2,67352, Control_c, 0, 64, 86
2,67384, Control_c, 0, 64, 80
2,67399, Control_c, 0, 64, 65
2,67413, Control_c, 0, 64, 0
2,67420, Note_on_c, 0, 47, 0
2,67441, Note_on_c, 0, 75, 90
2,67442, Note_on_c, 0, 57, 79
2,67442, Note_on_c, 0, 66, 87
2,67459, Control_c, 0, 64, 63
2,67474, Control_c, 0, 64, 72
2,67489, Control_c, 0, 64, 86
2,67505, Control_c, 0, 64, 98
2,67511, Note_on_c, 0, 75, 0
2,67516, Note_on_c, 0, 66, 0
2,67519, Note_on_c, 0, 57, 0
2,67520, Control_c, 0, 64, 106
2,67534, Control_c, 0, 64, 108
2,67550, Control_c, 0, 64, 108
2,67564, Note_on_c, 0, 47, 71
2,67672, Control_c, 0, 64, 107
2,67682, Note_on_c, 0, 47, 0
2,67692, Note_on_c, 0, 64, 93
2,67694, Control_c, 0, 64, 94
2,67699, Note_on_c, 0, 76, 81
2,67700, Note_on_c, 0, 55, 77
2,67710, Control_c, 0, 64, 72
2,67720, Note_on_c, 0, 76, 0
2,67725, Control_c, 0, 64, 0
2,67782, Note_on_c, 0, 55, 0
2,67801, Note_on_c, 0, 66, 86
2,67806, Note_on_c, 0, 54, 64
2,67814, Note_on_c, 0, 64, 0
2,67876, Note_on_c, 0, 54, 0
2,67926, Note_on_c, 0, 67, 78
2,67933, Note_on_c, 0, 52, 74
2,67935, Note_on_c, 0, 66, 0
2,67990, Note_on_c, 0, 52, 0
2,68045, Note_on_c, 0, 55, 60
2,68158, Note_on_c, 0, 55, 0
2,68174, Note_on_c, 0, 71, 72
2,68176, Note_on_c, 0, 50, 77
2,68215, Note_on_c, 0, 50, 0
2,68231, Note_on_c, 0, 71, 0
2,68296, Note_on_c, 0, 55, 52
2,68410, Note_on_c, 0, 55, 0
2,68422, Note_on_c, 0, 49, 81
2,68425, Note_on_c, 0, 67, 0
2,68428, Note_on_c, 0, 69, 82
2,68470, Note_on_c, 0, 49, 0
2,68546, Note_on_c, 0, 66, 69
2,68554, Note_on_c, 0, 55, 60
2,68644, Note_on_c, 0, 55, 0
2,68673, Note_on_c, 0, 66, 0
2,68674, Note_on_c, 0, 64, 74
2,68681, Note_on_c, 0, 47, 77
2,68718, Note_on_c, 0, 47, 0
2,68743, Note_on_c, 0, 64, 0
2,68774, Note_on_c, 0, 55, 67
2,68786, Note_on_c, 0, 62, 77
2,68888, Note_on_c, 0, 62, 0
2,68892, Note_on_c, 0, 55, 0
2,68916, Note_on_c, 0, 61, 74
2,68920, Note_on_c, 0, 45, 80
2,68967, Note_on_c, 0, 45, 0
2,68980, Note_on_c, 0, 61, 0
2,69016, Note_on_c, 0, 55, 70
2,69020, Note_on_c, 0, 64, 74
2,69075, Note_on_c, 0, 69, 0
2,69119, Note_on_c, 0, 64, 0
2,69123, Note_on_c, 0, 55, 0
2,69148, Note_on_c, 0, 62, 81
2,69152, Note_on_c, 0, 54, 75
2,69237, Note_on_c, 0, 62, 0
2,69246, Note_on_c, 0, 54, 0
2,69263, Note_on_c, 0, 64, 77
2,69267, Note_on_c, 0, 52, 65
2,69348, Note_on_c, 0, 52, 0
2,69394, Note_on_c, 0, 50, 70
2,69395, Note_on_c, 0, 64, 0
2,69402, Note_on_c, 0, 66, 78
2,69461, Note_on_c, 0, 50, 0
2,69514, Note_on_c, 0, 54, 62
2,69639, Note_on_c, 0, 54, 0
2,69651, Note_on_c, 0, 69, 75
2,69659, Note_on_c, 0, 49, 68
2,69702, Note_on_c, 0, 69, 0
2,69704, Note_on_c, 0, 49, 0
2,69760, Note_on_c, 0, 54, 55
2,69898, Note_on_c, 0, 54, 0
2,69901, Note_on_c, 0, 47, 77
2,69904, Note_on_c, 0, 67, 77
2,69905, Note_on_c, 0, 66, 0
2,69952, Note_on_c, 0, 47, 0
2,70013, Note_on_c, 0, 64, 67
2,70029, Note_on_c, 0, 54, 55
2,70099, Note_on_c, 0, 64, 0
2,70132, Note_on_c, 0, 54, 0
2,70151, Note_on_c, 0, 45, 67
2,70163, Note_on_c, 0, 62, 69
2,70199, Note_on_c, 0, 45, 0
2,70230, Note_on_c, 0, 62, 0
2,70260, Note_on_c, 0, 54, 60
2,70278, Note_on_c, 0, 61, 60
2,70343, Note_on_c, 0, 61, 0
2,70381, Note_on_c, 0, 54, 0
2,70393, Note_on_c, 0, 43, 65
2,70396, Note_on_c, 0, 59, 69
2,70444, Note_on_c, 0, 43, 0
2,70465, Note_on_c, 0, 59, 0
2,70503, Note_on_c, 0, 54, 55
2,70511, Note_on_c, 0, 62, 67
2,70539, Note_on_c, 0, 67, 0
2,70600, Note_on_c, 0, 54, 0
2,70629, Note_on_c, 0, 62, 0
2,70632, Note_on_c, 0, 52, 62
2,70633, Note_on_c, 0, 61, 68
2,70724, Note_on_c, 0, 52, 0
2,70731, Note_on_c, 0, 61, 0
2,70749, Note_on_c, 0, 62, 71
2,70765, Note_on_c, 0, 50, 56
2,70833, Note_on_c, 0, 50, 0
2,70867, Note_on_c, 0, 62, 0
2,70879, Note_on_c, 0, 49, 55
2,70887, Note_on_c, 0, 64, 69
2,70923, Note_on_c, 0, 49, 0
2,70991, Note_on_c, 0, 52, 55
2,71104, Note_on_c, 0, 52, 0
2,71128, Note_on_c, 0, 47, 67
2,71135, Note_on_c, 0, 67, 71
2,71175, Note_on_c, 0, 47, 0
2,71192, Note_on_c, 0, 67, 0
2,71241, Note_on_c, 0, 52, 51
2,71369, Note_on_c, 0, 52, 0
2,71387, Note_on_c, 0, 46, 67
2,71387, Note_on_c, 0, 66, 68
2,71408, Note_on_c, 0, 64, 0
2,71440, Note_on_c, 0, 46, 0
2,71500, Note_on_c, 0, 62, 63
2,71503, Note_on_c, 0, 52, 54
2,71607, Note_on_c, 0, 52, 0
2,71624, Note_on_c, 0, 62, 0
2,71636, Note_on_c, 0, 61, 67
2,71640, Note_on_c, 0, 44, 59
2,71688, Note_on_c, 0, 44, 0
2,71707, Note_on_c, 0, 61, 0
2,71748, Note_on_c, 0, 52, 54
2,71753, Note_on_c, 0, 59, 69
2,71830, Note_on_c, 0, 59, 0
2,71853, Note_on_c, 0, 52, 0
2,71883, Note_on_c, 0, 42, 61
2,71884, Note_on_c, 0, 58, 69
2,71950, Note_on_c, 0, 66, 0
2,71963, Note_on_c, 0, 42, 0
2,71965, Note_on_c, 0, 58, 0
2,71988, Note_on_c, 0, 61, 72
2,71993, Note_on_c, 0, 52, 58
2,72055, Control_c, 0, 64, 35
2,72056, Note_on_c, 0, 52, 0
2,72070, Control_c, 0, 64, 63
2,72072, Note_on_c, 0, 61, 0
2,72084, Control_c, 0, 64, 68
2,72100, Control_c, 0, 64, 73
2,72115, Control_c, 0, 64, 78
2,72125, Note_on_c, 0, 50, 69
2,72125, Note_on_c, 0, 59, 67
2,72131, Control_c, 0, 64, 80
2,72145, Control_c, 0, 64, 81
2,72158, Note_on_c, 0, 59, 0
2,72160, Control_c, 0, 64, 82
2,72219, Note_on_c, 0, 50, 0
2,72244, Note_on_c, 0, 70, 76
2,72251, Note_on_c, 0, 54, 64
2,72252, Control_c, 0, 64, 80
2,72262, Note_on_c, 0, 70, 0
2,72267, Control_c, 0, 64, 71
2,72272, Note_on_c, 0, 71, 73
2,72283, Control_c, 0, 64, 0
2,72366, Note_on_c, 0, 54, 0
2,72374, Note_on_c, 0, 71, 0
2,72375, Note_on_c, 0, 73, 77
2,72388, Note_on_c, 0, 52, 67
2,72446, Note_on_c, 0, 73, 0
2,72484, Note_on_c, 0, 52, 0
2,72493, Note_on_c, 0, 71, 74
2,72509, Note_on_c, 0, 50, 63
2,72584, Note_on_c, 0, 71, 0
2,72588, Note_on_c, 0, 50, 0
2,72613, Note_on_c, 0, 70, 79
2,72618, Note_on_c, 0, 49, 70
2,72653, Note_on_c, 0, 49, 0
2,72697, Note_on_c, 0, 70, 0
2,72715, Note_on_c, 0, 71, 80
2,72722, Note_on_c, 0, 47, 68
2,72795, Note_on_c, 0, 71, 0
2,72804, Note_on_c, 0, 47, 0
2,72837, Control_c, 0, 64, 52
2,72840, Note_on_c, 0, 73, 82
2,72849, Note_on_c, 0, 46, 72
2,72853, Control_c, 0, 64, 67
2,72868, Control_c, 0, 64, 75
2,72883, Control_c, 0, 64, 83
2,72892, Note_on_c, 0, 73, 0
2,72899, Control_c, 0, 64, 88
2,72913, Control_c, 0, 64, 90
2,72928, Control_c, 0, 64, 91
2,72944, Control_c, 0, 64, 91
2,72945, Note_on_c, 0, 46, 0
2,72978, Note_on_c, 0, 49, 75
2,73004, Control_c, 0, 64, 91
2,73020, Control_c, 0, 64, 84
2,73035, Control_c, 0, 64, 68
2,73051, Control_c, 0, 64, 0
2,73083, Note_on_c, 0, 49, 0
2,73104, Note_on_c, 0, 74, 90
2,73116, Note_on_c, 0, 47, 74
2,73211, Note_on_c, 0, 47, 0
2,73211, Note_on_c, 0, 73, 80
2,73225, Note_on_c, 0, 46, 71
2,73241, Note_on_c, 0, 74, 0
2,73322, Note_on_c, 0, 46, 0
2,73332, Note_on_c, 0, 73, 0
2,73335, Note_on_c, 0, 71, 80
2,73343, Note_on_c, 0, 44, 76
2,73413, Note_on_c, 0, 44, 0
2,73441, Note_on_c, 0, 73, 87
2,73447, Note_on_c, 0, 42, 75
2,73451, Note_on_c, 0, 71, 0
2,73518, Note_on_c, 0, 73, 0
2,73525, Note_on_c, 0, 42, 0
2,73566, Note_on_c, 0, 47, 84
2,73575, Note_on_c, 0, 74, 88
2,73590, Control_c, 0, 64, 62
2,73605, Control_c, 0, 64, 72
2,73621, Control_c, 0, 64, 83
2,73624, Note_on_c, 0, 74, 0
2,73634, Note_on_c, 0, 47, 0
2,73635, Control_c, 0, 64, 90
2,73651, Control_c, 0, 64, 94
2,73666, Control_c, 0, 64, 96
2,73681, Control_c, 0, 64, 97
2,73697, Control_c, 0, 64, 98
2,73712, Control_c, 0, 64, 99
2,73727, Control_c, 0, 64, 99
2,73757, Control_c, 0, 64, 99
2,73773, Control_c, 0, 64, 96
2,73788, Control_c, 0, 64, 84
2,73803, Control_c, 0, 64, 58
2,73819, Control_c, 0, 64, 0
2,73828, Note_on_c, 0, 73, 89
2,73833, Note_on_c, 0, 49, 81
2,73907, Note_on_c, 0, 73, 0
2,73929, Note_on_c, 0, 49, 0
2,73932, Note_on_c, 0, 47, 78
2,74031, Note_on_c, 0, 47, 0
2,74074, Note_on_c, 0, 46, 77
2,74075, Note_on_c, 0, 71, 85
2,74122, Note_on_c, 0, 71, 0
2,74156, Note_on_c, 0, 46, 0
2,74180, Note_on_c, 0, 47, 81
2,74307, Note_on_c, 0, 49, 85
2,74308, Note_on_c, 0, 70, 92
2,74318, Note_on_c, 0, 47, 0
2,74445, Note_on_c, 0, 49, 0
2,74567, Note_on_c, 0, 70, 0
2,74568, Note_on_c, 0, 79, 86
2,74577, Note_on_c, 0, 50, 79
2,74684, Note_on_c, 0, 49, 82
2,74685, Note_on_c, 0, 50, 0
2,74802, Note_on_c, 0, 49, 0
2,74803, Note_on_c, 0, 47, 81
2,74915, Note_on_c, 0, 49, 87
2,74926, Note_on_c, 0, 47, 0
2,75026, Note_on_c, 0, 49, 0
2,75044, Note_on_c, 0, 50, 88
2,75050, Note_on_c, 0, 78, 84
2,75096, Note_on_c, 0, 79, 0
2,75131, Note_on_c, 0, 50, 0
2,75311, Note_on_c, 0, 49, 86
2,75312, Note_on_c, 0, 79, 77
2,75331, Note_on_c, 0, 78, 0
2,75385, Note_on_c, 0, 49, 0
2,75434, Note_on_c, 0, 78, 77
2,75553, Note_on_c, 0, 47, 86
2,75562, Note_on_c, 0, 76, 78
2,75591, Note_on_c, 0, 79, 0
2,75600, Note_on_c, 0, 78, 0
2,75616, Note_on_c, 0, 47, 0
2,75631, Note_on_c, 0, 76, 0
2,75654, Note_on_c, 0, 74, 79
2,75789, Note_on_c, 0, 46, 89
2,75793, Note_on_c, 0, 73, 76
2,75804, Note_on_c, 0, 74, 0
2,75866, Note_on_c, 0, 46, 0
2,76064, Note_on_c, 0, 55, 85
2,76077, Note_on_c, 0, 76, 70
2,76082, Note_on_c, 0, 73, 0
2,76185, Note_on_c, 0, 74, 72
2,76205, Note_on_c, 0, 76, 0
2,76303, Note_on_c, 0, 74, 0
2,76308, Note_on_c, 0, 73, 73
2,76391, Note_on_c, 0, 73, 0
2,76422, Note_on_c, 0, 71, 69
2,76523, Note_on_c, 0, 71, 0
2,76547, Note_on_c, 0, 70, 63
2,76549, Note_on_c, 0, 55, 0
2,76550, Note_on_c, 0, 54, 69
2,76616, Note_on_c, 0, 70, 0
2,76648, Note_on_c, 0, 54, 0
2,76656, Note_on_c, 0, 71, 64
2,76672, Note_on_c, 0, 56, 65
2,76741, Note_on_c, 0, 71, 0
2,76750, Note_on_c, 0, 56, 0
2,76779, Note_on_c, 0, 73, 65
2,76791, Note_on_c, 0, 58, 64
2,76840, Note_on_c, 0, 58, 0
2,76844, Note_on_c, 0, 73, 0
2,76907, Note_on_c, 0, 70, 62
2,76913, Note_on_c, 0, 54, 58
2,77011, Note_on_c, 0, 54, 0
2,77011, Note_on_c, 0, 70, 0
2,77022, Note_on_c, 0, 74, 73
2,77038, Note_on_c, 0, 59, 68
2,77067, Note_on_c, 0, 74, 0
2,77086, Note_on_c, 0, 59, 0
2,77133, Note_on_c, 0, 70, 71
2,77136, Note_on_c, 0, 54, 61
2,77238, Note_on_c, 0, 70, 0
2,77256, Note_on_c, 0, 54, 0
2,77265, Note_on_c, 0, 76, 83
2,77272, Note_on_c, 0, 61, 77
2,77320, Note_on_c, 0, 76, 0
2,77329, Note_on_c, 0, 61, 0
2,77374, Note_on_c, 0, 70, 73
2,77381, Note_on_c, 0, 54, 68
2,77487, Note_on_c, 0, 70, 0
2,77499, Note_on_c, 0, 54, 0
2,77504, Note_on_c, 0, 78, 91
2,77513, Note_on_c, 0, 62, 82
2,77567, Note_on_c, 0, 62, 0
2,77584, Note_on_c, 0, 78, 0
2,77616, Note_on_c, 0, 54, 64
2,77620, Note_on_c, 0, 70, 79
2,77727, Note_on_c, 0, 54, 0
2,77739, Note_on_c, 0, 70, 0
2,77751, Note_on_c, 0, 79, 88
2,77752, Note_on_c, 0, 64, 88
2,77784, Control_c, 0, 64, 63
2,77799, Control_c, 0, 64, 76
2,77803, Note_on_c, 0, 64, 0
2,77814, Control_c, 0, 64, 89
2,77822, Note_on_c, 0, 79, 0
2,77830, Control_c, 0, 64, 98
2,77844, Control_c, 0, 64, 102
2,77860, Control_c, 0, 64, 103
2,77865, Note_on_c, 0, 54, 65
2,77868, Note_on_c, 0, 70, 81
2,77875, Control_c, 0, 64, 104
2,77890, Control_c, 0, 64, 105
2,77905, Control_c, 0, 64, 106
2,77966, Control_c, 0, 64, 105
2,77976, Note_on_c, 0, 54, 0
2,77979, Note_on_c, 0, 70, 0
2,77981, Control_c, 0, 64, 92
2,77994, Note_on_c, 0, 78, 96
2,77996, Control_c, 0, 64, 68
2,78002, Note_on_c, 0, 62, 80
2,78012, Control_c, 0, 64, 0
2,78087, Note_on_c, 0, 78, 0
2,78108, Note_on_c, 0, 62, 0
2,78112, Note_on_c, 0, 70, 83
2,78131, Note_on_c, 0, 54, 74
2,78181, Note_on_c, 0, 70, 0
2,78229, Note_on_c, 0, 54, 0
2,78233, Note_on_c, 0, 71, 80
2,78244, Note_on_c, 0, 55, 73
2,78312, Note_on_c, 0, 71, 0
2,78319, Note_on_c, 0, 55, 0
2,78351, Note_on_c, 0, 78, 81
2,78382, Note_on_c, 0, 62, 58
2,78463, Note_on_c, 0, 62, 0
2,78475, Note_on_c, 0, 78, 0
2,78493, Note_on_c, 0, 76, 76
2,78501, Note_on_c, 0, 61, 82
2,78544, Note_on_c, 0, 74, 66
2,78560, Note_on_c, 0, 61, 0
2,78567, Note_on_c, 0, 59, 56
2,78581, Note_on_c, 0, 58, 71
2,78586, Note_on_c, 0, 76, 0
2,78598, Note_on_c, 0, 73, 76
2,78598, Note_on_c, 0, 74, 0
2,78627, Note_on_c, 0, 59, 0
2,78637, Note_on_c, 0, 58, 0
2,78638, Note_on_c, 0, 59, 63
2,78664, Note_on_c, 0, 73, 0
2,78667, Note_on_c, 0, 74, 61
2,78704, Note_on_c, 0, 59, 0
2,78730, Note_on_c, 0, 61, 73
2,78730, Note_on_c, 0, 76, 81
2,78734, Note_on_c, 0, 74, 0
2,78828, Note_on_c, 0, 76, 0
2,78841, Note_on_c, 0, 61, 0
2,78847, Note_on_c, 0, 52, 64
2,78865, Note_on_c, 0, 68, 78
2,78952, Note_on_c, 0, 68, 0
2,78953, Note_on_c, 0, 52, 0
2,78975, Note_on_c, 0, 54, 64
2,78983, Note_on_c, 0, 70, 74
2,79058, Note_on_c, 0, 54, 0
2,79058, Note_on_c, 0, 70, 0
2,79096, Note_on_c, 0, 76, 73
2,79102, Note_on_c, 0, 61, 67
2,79164, Note_on_c, 0, 61, 0
2,79199, Note_on_c, 0, 76, 0
2,79212, Note_on_c, 0, 59, 70
2,79218, Note_on_c, 0, 74, 71
2,79264, Note_on_c, 0, 73, 64
2,79283, Note_on_c, 0, 59, 0
2,79289, Note_on_c, 0, 74, 0
2,79312, Note_on_c, 0, 56, 67
2,79313, Note_on_c, 0, 73, 0
2,79329, Note_on_c, 0, 71, 67
2,79355, Note_on_c, 0, 56, 0
2,79367, Note_on_c, 0, 58, 5
2,79386, Note_on_c, 0, 71, 0
2,79387, Note_on_c, 0, 73, 58
2,79443, Note_on_c, 0, 58, 0
2,79461, Note_on_c, 0, 73, 0
2,79464, Note_on_c, 0, 74, 76
2,79475, Note_on_c, 0, 59, 66
2,79570, Note_on_c, 0, 59, 0
2,79596, Note_on_c, 0, 61, 63
2,79702, Note_on_c, 0, 61, 0
2,79715, Note_on_c, 0, 62, 71
2,79769, Note_on_c, 0, 62, 0
2,79820, Note_on_c, 0, 59, 62
2,79919, Note_on_c, 0, 59, 0
2,79952, Note_on_c, 0, 64, 73
2,80014, Note_on_c, 0, 64, 0
2,80078, Note_on_c, 0, 59, 65
2,80191, Note_on_c, 0, 59, 0
2,80194, Note_on_c, 0, 66, 80
2,80255, Note_on_c, 0, 66, 0
2,80318, Note_on_c, 0, 59, 69
2,80427, Note_on_c, 0, 59, 0
2,80437, Note_on_c, 0, 68, 84
2,80505, Note_on_c, 0, 68, 0
2,80558, Note_on_c, 0, 59, 67
2,80678, Note_on_c, 0, 69, 77
2,80682, Control_c, 0, 64, 18
2,80682, Note_on_c, 0, 47, 68
2,80683, Note_on_c, 0, 59, 0
2,80698, Control_c, 0, 64, 68
2,80713, Control_c, 0, 64, 76
2,80727, Control_c, 0, 64, 86
2,80731, Note_on_c, 0, 69, 0
2,80751, Control_c, 0, 64, 91
2,80751, Note_on_c, 0, 47, 0
2,80766, Control_c, 0, 64, 94
2,80782, Control_c, 0, 64, 96
2,80797, Control_c, 0, 64, 98
2,80798, Note_on_c, 0, 59, 68
2,80811, Control_c, 0, 64, 101
2,80827, Control_c, 0, 64, 103
2,80842, Control_c, 0, 64, 105
2,80873, Control_c, 0, 64, 106
2,80887, Control_c, 0, 64, 105
2,80918, Control_c, 0, 64, 104
2,80932, Control_c, 0, 64, 91
2,80935, Note_on_c, 0, 59, 0
2,80941, Note_on_c, 0, 52, 74
2,80941, Note_on_c, 0, 68, 72
2,80948, Control_c, 0, 64, 72
2,80963, Control_c, 0, 64, 0
2,80995, Note_on_c, 0, 68, 0
2,81051, Note_on_c, 0, 52, 0
2,81055, Note_on_c, 0, 54, 70
2,81172, Note_on_c, 0, 54, 0
2,81183, Note_on_c, 0, 56, 74
2,81191, Note_on_c, 0, 64, 71
2,81234, Note_on_c, 0, 64, 0
2,81249, Note_on_c, 0, 56, 0
2,81296, Note_on_c, 0, 52, 72
2,81411, Note_on_c, 0, 52, 0
2,81423, Note_on_c, 0, 66, 78
2,81424, Note_on_c, 0, 57, 84
2,81476, Note_on_c, 0, 66, 0
2,81483, Note_on_c, 0, 57, 0
2,81534, Note_on_c, 0, 52, 69
2,81662, Note_on_c, 0, 52, 0
2,81675, Note_on_c, 0, 59, 86
2,81680, Note_on_c, 0, 68, 79
2,81735, Note_on_c, 0, 59, 0
2,81752, Note_on_c, 0, 68, 0
2,81785, Note_on_c, 0, 52, 69
2,81911, Note_on_c, 0, 52, 0
2,81920, Note_on_c, 0, 61, 92
2,81929, Note_on_c, 0, 69, 82
2,81992, Note_on_c, 0, 69, 0
2,81993, Note_on_c, 0, 61, 0
2,82025, Note_on_c, 0, 52, 73
2,82171, Note_on_c, 0, 52, 0
2,82171, Note_on_c, 0, 71, 79
2,82177, Note_on_c, 0, 62, 94
2,82216, Control_c, 0, 64, 67
2,82232, Control_c, 0, 64, 75
2,82240, Note_on_c, 0, 71, 0
2,82245, Note_on_c, 0, 62, 0
2,82247, Control_c, 0, 64, 86
2,82261, Control_c, 0, 64, 92
2,82284, Control_c, 0, 64, 95
2,82297, Note_on_c, 0, 52, 74
2,82299, Control_c, 0, 64, 96
2,82315, Control_c, 0, 64, 96
2,82406, Control_c, 0, 64, 93
2,82419, Note_on_c, 0, 74, 0
2,82420, Control_c, 0, 64, 81
2,82433, Note_on_c, 0, 52, 0
2,82433, Note_on_c, 0, 61, 87
2,82434, Note_on_c, 0, 64, 79
2,82436, Control_c, 0, 64, 58
2,82451, Control_c, 0, 64, 0
2,82546, Note_on_c, 0, 64, 0
2,82582, Note_on_c, 0, 66, 65
2,82619, Note_on_c, 0, 68, 72
2,82649, Note_on_c, 0, 66, 0
2,82672, Note_on_c, 0, 68, 0
2,82684, Note_on_c, 0, 69, 75
2,82763, Note_on_c, 0, 69, 0
2,82772, Note_on_c, 0, 61, 0
2,82806, Note_on_c, 0, 64, 73
2,82809, Note_on_c, 0, 62, 73
2,82897, Note_on_c, 0, 64, 0
2,82914, Note_on_c, 0, 62, 0
2,82925, Note_on_c, 0, 61, 71
2,82927, Note_on_c, 0, 71, 82
2,82994, Note_on_c, 0, 71, 0
2,83009, Note_on_c, 0, 61, 0
2,83033, Note_on_c, 0, 59, 74
2,83054, Note_on_c, 0, 64, 80
2,83127, Note_on_c, 0, 59, 0
2,83146, Note_on_c, 0, 64, 0
2,83163, Note_on_c, 0, 57, 76
2,83166, Note_on_c, 0, 73, 87
2,83221, Note_on_c, 0, 57, 0
2,83242, Note_on_c, 0, 73, 0
2,83278, Note_on_c, 0, 59, 75
2,83279, Note_on_c, 0, 64, 80
2,83357, Note_on_c, 0, 64, 0
2,83368, Note_on_c, 0, 59, 0
2,83405, Note_on_c, 0, 74, 87
2,83406, Note_on_c, 0, 57, 78
2,83471, Note_on_c, 0, 57, 0
2,83485, Note_on_c, 0, 74, 0
2,83507, Note_on_c, 0, 55, 79
2,83521, Note_on_c, 0, 66, 93
2,83594, Note_on_c, 0, 66, 0
2,83634, Note_on_c, 0, 49, 73
2,83641, Note_on_c, 0, 55, 0
2,83643, Note_on_c, 0, 76, 92
2,83646, Note_on_c, 0, 54, 73
2,83702, Note_on_c, 0, 76, 0
2,83735, Note_on_c, 0, 49, 0
2,83749, Note_on_c, 0, 54, 0
2,83755, Note_on_c, 0, 67, 87
2,83756, Note_on_c, 0, 52, 83
2,83854, Note_on_c, 0, 52, 0
2,83856, Note_on_c, 0, 67, 0
2,83886, Note_on_c, 0, 50, 84
2,83888, Note_on_c, 0, 66, 88
2,84002, Note_on_c, 0, 66, 0
2,84026, Note_on_c, 0, 67, 73
2,84076, Note_on_c, 0, 69, 73
2,84106, Note_on_c, 0, 67, 0
2,84141, Note_on_c, 0, 71, 74
2,84143, Note_on_c, 0, 69, 0
2,84215, Note_on_c, 0, 71, 0
2,84228, Note_on_c, 0, 50, 0
2,84253, Note_on_c, 0, 52, 82
2,84256, Note_on_c, 0, 66, 84
2,84357, Note_on_c, 0, 66, 0
2,84365, Note_on_c, 0, 50, 85
2,84368, Note_on_c, 0, 52, 0
2,84373, Note_on_c, 0, 73, 88
2,84460, Note_on_c, 0, 73, 0
2,84479, Note_on_c, 0, 49, 81
2,84479, Note_on_c, 0, 50, 0
2,84484, Note_on_c, 0, 66, 90
2,84599, Note_on_c, 0, 66, 0
2,84609, Note_on_c, 0, 47, 80
2,84609, Note_on_c, 0, 49, 0
2,84614, Note_on_c, 0, 74, 88
2,84695, Note_on_c, 0, 74, 0
2,84712, Note_on_c, 0, 47, 0
2,84732, Note_on_c, 0, 66, 88
2,84734, Note_on_c, 0, 49, 82
2,84812, Note_on_c, 0, 66, 0
2,84836, Note_on_c, 0, 49, 0
2,84852, Note_on_c, 0, 76, 93
2,84863, Note_on_c, 0, 47, 88
2,84931, Note_on_c, 0, 76, 0
2,84967, Note_on_c, 0, 67, 91
2,84976, Note_on_c, 0, 47, 0
2,84978, Note_on_c, 0, 45, 84
2,85081, Note_on_c, 0, 67, 0
2,85094, Note_on_c, 0, 43, 85
2,85096, Note_on_c, 0, 78, 99
2,85100, Note_on_c, 0, 45, 0
2,85175, Note_on_c, 0, 78, 0
2,85181, Note_on_c, 0, 43, 0
2,85203, Note_on_c, 0, 42, 82
2,85205, Note_on_c, 0, 69, 89
2,85277, Note_on_c, 0, 69, 0
2,85298, Note_on_c, 0, 42, 0
2,85329, Note_on_c, 0, 40, 88
2,85334, Note_on_c, 0, 67, 83
2,85411, Note_on_c, 0, 40, 0
2,85445, Note_on_c, 0, 67, 0
2,85460, Note_on_c, 0, 66, 87
2,85549, Note_on_c, 0, 66, 0
2,85590, Note_on_c, 0, 67, 82
2,85595, Note_on_c, 0, 50, 91
2,85653, Note_on_c, 0, 50, 0
2,85686, Note_on_c, 0, 67, 0
2,85710, Note_on_c, 0, 71, 75
2,85834, Note_on_c, 0, 49, 90
2,85836, Note_on_c, 0, 76, 82
2,85842, Note_on_c, 0, 71, 0
2,85873, Control_c, 0, 64, 49
2,85884, Note_on_c, 0, 49, 0
2,85888, Control_c, 0, 64, 27
2,85903, Control_c, 0, 64, 0
2,85941, Note_on_c, 0, 67, 81
2,85951, Note_on_c, 0, 76, 0
2,86079, Note_on_c, 0, 50, 94
2,86085, Note_on_c, 0, 66, 82
2,86101, Control_c, 0, 64, 57
2,86102, Note_on_c, 0, 67, 0
2,86123, Control_c, 0, 64, 69
2,86132, Note_on_c, 0, 50, 0
2,86138, Control_c, 0, 64, 81
2,86154, Control_c, 0, 64, 93
2,86169, Control_c, 0, 64, 100
2,86184, Control_c, 0, 64, 102
2,86187, Note_on_c, 0, 66, 0
2,86199, Note_on_c, 0, 71, 74
2,86200, Control_c, 0, 64, 104
2,86216, Control_c, 0, 64, 105
2,86231, Control_c, 0, 64, 107
2,86246, Control_c, 0, 64, 109
2,86307, Control_c, 0, 64, 107
2,86310, Note_on_c, 0, 71, 0
2,86322, Control_c, 0, 64, 97
2,86337, Control_c, 0, 64, 76
2,86338, Note_on_c, 0, 69, 87
2,86343, Note_on_c, 0, 52, 96
2,86353, Control_c, 0, 64, 0
2,86444, Note_on_c, 0, 50, 83
2,86450, Note_on_c, 0, 73, 84
2,86454, Note_on_c, 0, 52, 0
2,86478, Note_on_c, 0, 69, 0
2,86552, Note_on_c, 0, 50, 0
2,86568, Note_on_c, 0, 49, 89
2,86571, Note_on_c, 0, 74, 86
2,86575, Note_on_c, 0, 47, 79
2,86606, Note_on_c, 0, 73, 0
2,86635, Note_on_c, 0, 49, 0
2,86639, Note_on_c, 0, 47, 0
2,86682, Note_on_c, 0, 50, 86
2,86774, Note_on_c, 0, 50, 0
2,86818, Note_on_c, 0, 52, 92
2,86823, Control_c, 0, 64, 62
2,86828, Note_on_c, 0, 43, 78
2,86839, Control_c, 0, 64, 71
2,86854, Control_c, 0, 64, 82
2,86860, Note_on_c, 0, 43, 0
2,86861, Note_on_c, 0, 52, 0
2,86870, Control_c, 0, 64, 91
2,86891, Control_c, 0, 64, 95
2,86907, Control_c, 0, 64, 96
2,86922, Control_c, 0, 64, 97
2,86937, Control_c, 0, 64, 98
2,86953, Control_c, 0, 64, 99
2,86967, Control_c, 0, 64, 100
2,86982, Control_c, 0, 64, 101
2,86998, Control_c, 0, 64, 101
2,87013, Control_c, 0, 64, 101
2,87044, Control_c, 0, 64, 96
2,87059, Control_c, 0, 64, 81
2,87075, Control_c, 0, 64, 48
2,87090, Control_c, 0, 64, 0
2,87095, Note_on_c, 0, 54, 88
2,87101, Note_on_c, 0, 73, 86
2,87117, Note_on_c, 0, 45, 70
2,87121, Note_on_c, 0, 74, 0
2,87211, Note_on_c, 0, 52, 83
2,87212, Note_on_c, 0, 54, 0
2,87257, Note_on_c, 0, 45, 0
2,87336, Note_on_c, 0, 50, 82
2,87367, Note_on_c, 0, 52, 0
2,87448, Note_on_c, 0, 52, 83
2,87456, Note_on_c, 0, 50, 0
2,87530, Note_on_c, 0, 73, 0
2,87541, Note_on_c, 0, 52, 0
2,87575, Control_c, 0, 64, 64
2,87581, Note_on_c, 0, 54, 87
2,87582, Note_on_c, 0, 74, 95
2,87584, Note_on_c, 0, 50, 76
2,87591, Control_c, 0, 64, 75
2,87606, Control_c, 0, 64, 92
2,87621, Control_c, 0, 64, 103
2,87628, Note_on_c, 0, 74, 0
2,87637, Control_c, 0, 64, 109
2,87642, Note_on_c, 0, 50, 0
2,87658, Control_c, 0, 64, 112
2,87674, Control_c, 0, 64, 115
2,87674, Note_on_c, 0, 54, 0
2,87689, Control_c, 0, 64, 117
2,87704, Control_c, 0, 64, 119
2,87720, Control_c, 0, 64, 120
2,87765, Control_c, 0, 64, 119
2,87780, Control_c, 0, 64, 119
2,87796, Control_c, 0, 64, 111
2,87811, Control_c, 0, 64, 91
2,87827, Control_c, 0, 64, 67
2,87842, Control_c, 0, 64, 0
2,87851, Note_on_c, 0, 52, 81
2,87853, Note_on_c, 0, 76, 93
2,87857, Note_on_c, 0, 49, 76
2,87910, Note_on_c, 0, 52, 0
2,87918, Note_on_c, 0, 49, 0
2,87961, Note_on_c, 0, 74, 84
2,87987, Note_on_c, 0, 76, 0
2,88080, Note_on_c, 0, 73, 88
2,88085, Note_on_c, 0, 74, 0
2,88087, Note_on_c, 0, 47, 83
2,88087, Note_on_c, 0, 50, 84
2,88133, Note_on_c, 0, 50, 0
2,88141, Note_on_c, 0, 47, 0
2,88181, Note_on_c, 0, 74, 92
2,88189, Note_on_c, 0, 73, 0
2,88277, Note_on_c, 0, 74, 0
2,88325, Note_on_c, 0, 76, 92
2,88327, Note_on_c, 0, 49, 88
2,88332, Note_on_c, 0, 45, 82
2,88358, Control_c, 0, 64, 72
2,88373, Control_c, 0, 64, 85
2,88380, Note_on_c, 0, 76, 0
2,88389, Control_c, 0, 64, 105
2,88400, Note_on_c, 0, 49, 0
2,88404, Control_c, 0, 64, 114
2,88427, Control_c, 0, 64, 119
2,88442, Control_c, 0, 64, 121
2,88456, Control_c, 0, 64, 125
2,88472, Control_c, 0, 64, 127
2,88609, Note_on_c, 0, 78, 95
2,88618, Note_on_c, 0, 59, 89
2,88655, Control_c, 0, 64, 125
2,88671, Control_c, 0, 64, 115
2,88685, Control_c, 0, 64, 101
2,88700, Control_c, 0, 64, 86
2,88716, Control_c, 0, 64, 65
2,88719, Note_on_c, 0, 76, 84
2,88731, Control_c, 0, 64, 0
2,88752, Note_on_c, 0, 78, 0
2,88845, Note_on_c, 0, 74, 88
2,88856, Note_on_c, 0, 76, 0
2,88937, Note_on_c, 0, 59, 0
2,88952, Note_on_c, 0, 76, 94
2,88976, Note_on_c, 0, 74, 0
2,89049, Note_on_c, 0, 76, 0
2,89080, Note_on_c, 0, 57, 84
2,89081, Control_c, 0, 64, 52
2,89081, Note_on_c, 0, 78, 98
2,89096, Control_c, 0, 64, 71
2,89112, Control_c, 0, 64, 81
2,89126, Note_on_c, 0, 57, 0
2,89127, Control_c, 0, 64, 93
2,89136, Note_on_c, 0, 78, 0
2,89141, Control_c, 0, 64, 101
2,89157, Control_c, 0, 64, 106
2,89172, Control_c, 0, 64, 109
2,89188, Control_c, 0, 64, 113
2,89211, Control_c, 0, 64, 118
2,89226, Control_c, 0, 64, 126
2,89241, Control_c, 0, 64, 127
2,89349, Note_on_c, 0, 59, 81
2,89352, Note_on_c, 0, 79, 90
2,89362, Control_c, 0, 64, 122
2,89377, Control_c, 0, 64, 102
2,89393, Control_c, 0, 64, 82
2,89395, Note_on_c, 0, 59, 0
2,89408, Control_c, 0, 64, 51
2,89422, Control_c, 0, 64, 0
2,89458, Note_on_c, 0, 78, 88
2,89470, Note_on_c, 0, 57, 83
2,89486, Note_on_c, 0, 79, 0
2,89515, Note_on_c, 0, 57, 0
2,89572, Note_on_c, 0, 76, 86
2,89591, Note_on_c, 0, 55, 86
2,89597, Note_on_c, 0, 78, 0
2,89638, Note_on_c, 0, 55, 0
2,89646, Note_on_c, 0, 76, 0
2,89683, Note_on_c, 0, 74, 85
2,89685, Note_on_c, 0, 54, 83
2,89747, Note_on_c, 0, 54, 0
2,89768, Note_on_c, 0, 74, 0
2,89804, Control_c, 0, 64, 66
2,89808, Note_on_c, 0, 73, 97
2,89819, Control_c, 0, 64, 77
2,89822, Note_on_c, 0, 52, 83
2,89835, Control_c, 0, 64, 92
2,89850, Control_c, 0, 64, 104
2,89856, Note_on_c, 0, 73, 0
2,89864, Control_c, 0, 64, 109
2,89873, Note_on_c, 0, 52, 0
2,89880, Control_c, 0, 64, 110
2,89895, Control_c, 0, 64, 111
2,89910, Control_c, 0, 64, 111
2,90077, Note_on_c, 0, 83, 91
2,90081, Note_on_c, 0, 55, 77
2,90085, Control_c, 0, 64, 111
2,90100, Control_c, 0, 64, 110
2,90116, Control_c, 0, 64, 109
2,90130, Control_c, 0, 64, 107
2,90146, Control_c, 0, 64, 103
2,90161, Control_c, 0, 64, 98
2,90176, Control_c, 0, 64, 91
2,90192, Control_c, 0, 64, 81
2,90196, Note_on_c, 0, 55, 0
2,90206, Control_c, 0, 64, 68
2,90208, Note_on_c, 0, 54, 71
2,90221, Control_c, 0, 64, 0
2,90311, Note_on_c, 0, 54, 0
2,90335, Note_on_c, 0, 52, 69
2,90439, Note_on_c, 0, 52, 0
2,90443, Note_on_c, 0, 50, 74
2,90567, Note_on_c, 0, 49, 78
2,90581, Note_on_c, 0, 50, 0
2,90694, Note_on_c, 0, 81, 84
2,90696, Note_on_c, 0, 83, 0
2,90829, Note_on_c, 0, 83, 84
2,90841, Note_on_c, 0, 81, 0
2,90944, Note_on_c, 0, 81, 87
2,90979, Note_on_c, 0, 83, 0
2,91052, Note_on_c, 0, 49, 0
2,91062, Note_on_c, 0, 50, 74
2,91063, Note_on_c, 0, 79, 82
2,91085, Note_on_c, 0, 81, 0
2,91158, Control_c, 0, 64, 49
2,91168, Note_on_c, 0, 79, 0
2,91173, Control_c, 0, 64, 63
2,91177, Note_on_c, 0, 78, 79
2,91188, Control_c, 0, 64, 66
2,91203, Control_c, 0, 64, 69
2,91218, Control_c, 0, 64, 72
2,91234, Control_c, 0, 64, 75
2,91249, Control_c, 0, 64, 78
2,91254, Note_on_c, 0, 78, 0
2,91263, Control_c, 0, 64, 81
2,91279, Control_c, 0, 64, 83
2,91294, Control_c, 0, 64, 85
2,91295, Note_on_c, 0, 76, 71
2,91310, Control_c, 0, 64, 87
2,91324, Control_c, 0, 64, 89
2,91339, Control_c, 0, 64, 91
2,91339, Note_on_c, 0, 76, 0
2,91355, Control_c, 0, 64, 92
2,91370, Control_c, 0, 64, 93
2,91384, Note_on_c, 0, 78, 69
2,91402, Note_on_c, 0, 50, 0
2,91412, Note_on_c, 0, 45, 0
2,91417, Note_on_c, 0, 78, 0
2,91431, Note_on_c, 0, 55, 67
2,91444, Note_on_c, 0, 76, 64
2,91446, Control_c, 0, 64, 92
2,91461, Control_c, 0, 64, 84
2,91471, Note_on_c, 0, 76, 0
2,91477, Control_c, 0, 64, 65
2,91499, Control_c, 0, 64, 0
2,91503, Note_on_c, 0, 55, 0
2,91515, Note_on_c, 0, 54, 63
2,91517, Note_on_c, 0, 78, 68
2,91543, Note_on_c, 0, 52, 75
2,91547, Note_on_c, 0, 78, 0
2,91553, Note_on_c, 0, 54, 0
2,91562, Note_on_c, 0, 76, 69
2,91596, Note_on_c, 0, 52, 0
2,91599, Note_on_c, 0, 76, 0
2,91645, Note_on_c, 0, 78, 59
2,91648, Note_on_c, 0, 55, 56
2,91682, Note_on_c, 0, 78, 0
2,91694, Note_on_c, 0, 76, 60
2,91732, Note_on_c, 0, 76, 0
2,91748, Note_on_c, 0, 55, 0
2,91778, Note_on_c, 0, 78, 56
2,91781, Note_on_c, 0, 50, 76
2,91807, Note_on_c, 0, 78, 0
2,91814, Note_on_c, 0, 76, 58
2,91816, Note_on_c, 0, 50, 0
2,91859, Note_on_c, 0, 76, 0
2,91878, Note_on_c, 0, 55, 60
2,91896, Note_on_c, 0, 78, 65
2,91931, Note_on_c, 0, 78, 0
2,91958, Note_on_c, 0, 76, 46
2,92005, Note_on_c, 0, 76, 0
2,92010, Note_on_c, 0, 55, 0
2,92026, Note_on_c, 0, 49, 83
2,92033, Note_on_c, 0, 78, 64
2,92057, Note_on_c, 0, 78, 0
2,92078, Note_on_c, 0, 49, 0
2,92096, Note_on_c, 0, 76, 55
2,92137, Note_on_c, 0, 55, 58
2,92137, Note_on_c, 0, 76, 0
2,92165, Note_on_c, 0, 78, 60
2,92215, Note_on_c, 0, 78, 0
2,92240, Note_on_c, 0, 76, 58
2,92252, Note_on_c, 0, 55, 0
2,92278, Note_on_c, 0, 47, 87
2,92281, Note_on_c, 0, 76, 0
2,92308, Note_on_c, 0, 78, 60
2,92327, Note_on_c, 0, 47, 0
2,92344, Note_on_c, 0, 78, 0
2,92361, Note_on_c, 0, 76, 67
2,92381, Note_on_c, 0, 55, 63
2,92405, Note_on_c, 0, 76, 0
2,92421, Note_on_c, 0, 78, 66
2,92464, Note_on_c, 0, 78, 0
2,92474, Note_on_c, 0, 76, 58
2,92506, Note_on_c, 0, 55, 0
2,92512, Note_on_c, 0, 76, 0
2,92525, Control_c, 0, 64, 47
2,92528, Note_on_c, 0, 78, 58
2,92531, Note_on_c, 0, 45, 79
2,92540, Control_c, 0, 64, 67
2,92556, Control_c, 0, 64, 76
2,92571, Control_c, 0, 64, 85
2,92587, Control_c, 0, 64, 90
2,92588, Note_on_c, 0, 76, 64
2,92590, Note_on_c, 0, 45, 0
2,92602, Control_c, 0, 64, 92
2,92608, Note_on_c, 0, 78, 0
2,92617, Control_c, 0, 64, 93
2,92624, Note_on_c, 0, 55, 76
2,92633, Control_c, 0, 64, 94
2,92647, Control_c, 0, 64, 94
2,92662, Control_c, 0, 64, 95
2,92770, Control_c, 0, 64, 92
2,92780, Note_on_c, 0, 54, 89
2,92786, Control_c, 0, 64, 82
2,92795, Note_on_c, 0, 55, 0
2,92800, Control_c, 0, 64, 34
2,92815, Control_c, 0, 64, 0
2,92860, Note_on_c, 0, 76, 0
2,92881, Note_on_c, 0, 54, 0
2,92892, Note_on_c, 0, 81, 71
2,92910, Note_on_c, 0, 55, 81
2,92968, Note_on_c, 0, 79, 64
2,92994, Note_on_c, 0, 55, 0
2,92994, Note_on_c, 0, 81, 0
2,93011, Note_on_c, 0, 78, 76
2,93037, Note_on_c, 0, 57, 70
2,93057, Note_on_c, 0, 79, 0
2,93132, Note_on_c, 0, 78, 0
2,93164, Note_on_c, 0, 52, 65
2,93167, Note_on_c, 0, 81, 79
2,93261, Note_on_c, 0, 52, 0
2,93289, Note_on_c, 0, 50, 64
2,93301, Note_on_c, 0, 76, 71
2,93304, Note_on_c, 0, 81, 0
2,93327, Note_on_c, 0, 74, 51
2,93328, Note_on_c, 0, 74, 0
2,93351, Note_on_c, 0, 76, 0
2,93363, Note_on_c, 0, 50, 0
2,93391, Note_on_c, 0, 49, 65
2,93414, Note_on_c, 0, 81, 84
2,93474, Note_on_c, 0, 49, 0
2,93518, Note_on_c, 0, 57, 0
2,93523, Note_on_c, 0, 47, 77
2,93537, Note_on_c, 0, 74, 81
2,93548, Note_on_c, 0, 81, 0
2,93593, Note_on_c, 0, 74, 0
2,93644, Note_on_c, 0, 55, 70
2,93660, Note_on_c, 0, 81, 78
2,93774, Note_on_c, 0, 55, 0
2,93780, Note_on_c, 0, 54, 73
2,93784, Note_on_c, 0, 73, 83
2,93793, Note_on_c, 0, 81, 0
2,93844, Note_on_c, 0, 73, 0
2,93874, Note_on_c, 0, 54, 0
2,93903, Note_on_c, 0, 52, 69
2,93912, Note_on_c, 0, 81, 82
2,93965, Note_on_c, 0, 47, 0
2,93988, Note_on_c, 0, 52, 0
2,94021, Note_on_c, 0, 81, 0
2,94035, Note_on_c, 0, 50, 77
2,94039, Note_on_c, 0, 71, 78
2,94117, Note_on_c, 0, 71, 0
2,94148, Note_on_c, 0, 81, 85
2,94149, Note_on_c, 0, 50, 0
2,94150, Note_on_c, 0, 54, 80
2,94254, Note_on_c, 0, 54, 0
2,94280, Note_on_c, 0, 52, 87
2,94283, Note_on_c, 0, 79, 82
2,94299, Note_on_c, 0, 81, 0
2,94354, Note_on_c, 0, 79, 0
2,94395, Note_on_c, 0, 52, 0
2,94402, Note_on_c, 0, 78, 75
2,94407, Note_on_c, 0, 54, 77
2,94493, Note_on_c, 0, 78, 0
2,94505, Note_on_c, 0, 54, 0
2,94527, Note_on_c, 0, 76, 78
2,94538, Note_on_c, 0, 55, 69
2,94595, Note_on_c, 0, 76, 0
2,94655, Note_on_c, 0, 79, 72
2,94664, Note_on_c, 0, 50, 60
2,94755, Note_on_c, 0, 50, 0
2,94783, Note_on_c, 0, 79, 0
2,94789, Note_on_c, 0, 74, 73
2,94795, Note_on_c, 0, 49, 68
2,94844, Note_on_c, 0, 74, 0
2,94854, Note_on_c, 0, 49, 0
2,94903, Note_on_c, 0, 79, 74
2,94905, Note_on_c, 0, 47, 60
2,94985, Note_on_c, 0, 47, 0
2,95029, Note_on_c, 0, 73, 81
2,95030, Note_on_c, 0, 55, 0
2,95031, Note_on_c, 0, 45, 71
2,95038, Note_on_c, 0, 79, 0
2,95088, Note_on_c, 0, 73, 0
2,95149, Note_on_c, 0, 79, 74
2,95157, Note_on_c, 0, 54, 65
2,95252, Note_on_c, 0, 54, 0
2,95268, Note_on_c, 0, 52, 69
2,95275, Note_on_c, 0, 79, 0
2,95280, Note_on_c, 0, 71, 76
2,95326, Note_on_c, 0, 71, 0
2,95365, Note_on_c, 0, 45, 0
2,95377, Note_on_c, 0, 52, 0
2,95382, Note_on_c, 0, 50, 66
2,95406, Note_on_c, 0, 79, 75
2,95477, Note_on_c, 0, 50, 0
2,95501, Note_on_c, 0, 79, 0
2,95523, Note_on_c, 0, 49, 75
2,95529, Note_on_c, 0, 69, 78
2,95599, Note_on_c, 0, 69, 0
2,95625, Note_on_c, 0, 49, 0
2,95636, Note_on_c, 0, 52, 69
2,95641, Note_on_c, 0, 79, 75
2,95747, Note_on_c, 0, 52, 0
2,95756, Note_on_c, 0, 50, 75
2,95765, Note_on_c, 0, 78, 84
2,95796, Note_on_c, 0, 79, 0
2,95843, Note_on_c, 0, 78, 0
2,95855, Note_on_c, 0, 50, 0
2,95877, Note_on_c, 0, 52, 71
2,95885, Note_on_c, 0, 76, 69
2,95966, Note_on_c, 0, 52, 0
2,95967, Note_on_c, 0, 76, 0
2,95999, Note_on_c, 0, 74, 71
2,96009, Note_on_c, 0, 54, 66
2,96079, Note_on_c, 0, 74, 0
2,96126, Note_on_c, 0, 48, 64
2,96126, Note_on_c, 0, 78, 71
2,96237, Note_on_c, 0, 48, 0
2,96243, Note_on_c, 0, 78, 0
2,96252, Note_on_c, 0, 47, 68
2,96255, Note_on_c, 0, 72, 69
2,96264, Note_on_c, 0, 54, 0
2,96323, Note_on_c, 0, 72, 0
2,96344, Note_on_c, 0, 47, 0
2,96373, Note_on_c, 0, 45, 66
2,96374, Note_on_c, 0, 78, 72
2,96456, Note_on_c, 0, 45, 0
2,96485, Note_on_c, 0, 78, 0
2,96503, Note_on_c, 0, 43, 71
2,96503, Note_on_c, 0, 71, 74
2,96561, Note_on_c, 0, 71, 0
2,96588, Note_on_c, 0, 43, 0
2,96614, Note_on_c, 0, 78, 74
2,96615, Note_on_c, 0, 47, 67
2,96733, Note_on_c, 0, 47, 0
2,96734, Note_on_c, 0, 69, 78
2,96737, Note_on_c, 0, 49, 69
2,96744, Note_on_c, 0, 78, 0
2,96802, Note_on_c, 0, 69, 0
2,96847, Note_on_c, 0, 49, 0
2,96850, Note_on_c, 0, 78, 80
2,96853, Note_on_c, 0, 50, 74
2,96941, Note_on_c, 0, 50, 0
2,96970, Note_on_c, 0, 78, 0
2,96985, Note_on_c, 0, 52, 77
2,96987, Note_on_c, 0, 67, 81
2,97068, Note_on_c, 0, 67, 0
2,97102, Note_on_c, 0, 52, 0
2,97105, Note_on_c, 0, 54, 74
2,97106, Note_on_c, 0, 78, 77
2,97212, Note_on_c, 0, 54, 0
2,97228, Note_on_c, 0, 55, 76
2,97232, Note_on_c, 0, 78, 0
2,97233, Note_on_c, 0, 76, 76
2,97321, Note_on_c, 0, 55, 0
2,97330, Note_on_c, 0, 76, 0
2,97349, Note_on_c, 0, 57, 69
2,97349, Note_on_c, 0, 74, 75
2,97429, Note_on_c, 0, 74, 0
2,97472, Note_on_c, 0, 57, 0
2,97483, Note_on_c, 0, 73, 72
2,97486, Note_on_c, 0, 55, 70
2,97511, Note_on_c, 0, 73, 0
2,97562, Note_on_c, 0, 55, 0
2,97591, Note_on_c, 0, 76, 74
2,97592, Note_on_c, 0, 54, 73
2,97667, Note_on_c, 0, 54, 0
2,97719, Note_on_c, 0, 52, 71
2,97722, Note_on_c, 0, 76, 0
2,97725, Note_on_c, 0, 71, 74
2,97786, Note_on_c, 0, 71, 0
2,97795, Note_on_c, 0, 52, 0
2,97825, Note_on_c, 0, 50, 68
2,97838, Note_on_c, 0, 76, 77
2,97908, Note_on_c, 0, 50, 0
2,97960, Note_on_c, 0, 49, 79
2,97960, Note_on_c, 0, 69, 79
2,97972, Note_on_c, 0, 76, 0
2,98019, Note_on_c, 0, 69, 0
2,98028, Note_on_c, 0, 49, 0
2,98077, Note_on_c, 0, 45, 74
2,98084, Note_on_c, 0, 76, 83
2,98190, Note_on_c, 0, 76, 0
2,98204, Note_on_c, 0, 47, 81
2,98210, Note_on_c, 0, 67, 82
2,98226, Note_on_c, 0, 45, 0
2,98269, Note_on_c, 0, 67, 0
2,98315, Note_on_c, 0, 47, 0
2,98316, Note_on_c, 0, 49, 77
2,98321, Note_on_c, 0, 76, 83
2,98445, Note_on_c, 0, 50, 80
2,98446, Note_on_c, 0, 49, 0
2,98459, Note_on_c, 0, 66, 87
2,98477, Note_on_c, 0, 76, 0
2,98522, Note_on_c, 0, 50, 0
2,98537, Note_on_c, 0, 66, 0
2,98560, Note_on_c, 0, 52, 80
2,98579, Note_on_c, 0, 76, 81
2,98682, Note_on_c, 0, 54, 79
2,98684, Note_on_c, 0, 74, 81
2,98686, Note_on_c, 0, 52, 0
2,98708, Note_on_c, 0, 76, 0
2,98786, Note_on_c, 0, 54, 0
2,98799, Note_on_c, 0, 55, 84
2,98811, Note_on_c, 0, 66, 86
2,98817, Note_on_c, 0, 74, 0
2,98891, Note_on_c, 0, 66, 0
2,98898, Note_on_c, 0, 55, 0
2,98925, Note_on_c, 0, 57, 88
2,98933, Note_on_c, 0, 64, 79
2,98979, Note_on_c, 0, 57, 0
2,99037, Note_on_c, 0, 64, 0
2,99045, Note_on_c, 0, 67, 84
2,99135, Note_on_c, 0, 67, 0
2,99180, Note_on_c, 0, 74, 78
2,99182, Note_on_c, 0, 45, 89
2,99234, Note_on_c, 0, 45, 0
2,99298, Note_on_c, 0, 73, 81
2,99300, Note_on_c, 0, 74, 0
2,99389, Note_on_c, 0, 73, 0
2,99434, Note_on_c, 0, 50, 92
2,99435, Note_on_c, 0, 74, 69
2,99437, Control_c, 0, 64, 62
2,99452, Control_c, 0, 64, 71
2,99467, Control_c, 0, 64, 82
2,99482, Control_c, 0, 64, 93
2,99485, Note_on_c, 0, 50, 0
2,99497, Control_c, 0, 64, 99
2,99503, Note_on_c, 0, 74, 0
2,99513, Control_c, 0, 64, 105
2,99516, Note_on_c, 0, 76, 75
2,99528, Control_c, 0, 64, 111
2,99542, Control_c, 0, 64, 116
2,99558, Control_c, 0, 64, 121
2,99573, Control_c, 0, 64, 126
2,99584, Note_on_c, 0, 76, 0
2,99588, Control_c, 0, 64, 127
2,99595, Note_on_c, 0, 74, 70
2,99635, Control_c, 0, 64, 127
2,99638, Note_on_c, 0, 74, 0
2,99650, Control_c, 0, 64, 121
2,99665, Control_c, 0, 64, 97
2,99668, Note_on_c, 0, 76, 71
2,99681, Control_c, 0, 64, 68
2,99693, Note_on_c, 0, 48, 89
2,99695, Control_c, 0, 64, 0
2,99740, Note_on_c, 0, 76, 0
2,99757, Note_on_c, 0, 74, 67
2,99790, Note_on_c, 0, 48, 0
2,99803, Note_on_c, 0, 50, 87
2,99803, Note_on_c, 0, 74, 0
2,99818, Note_on_c, 0, 76, 72
2,99900, Note_on_c, 0, 76, 0
2,99902, Note_on_c, 0, 50, 0
2,99919, Note_on_c, 0, 74, 63
2,99927, Note_on_c, 0, 52, 84
2,99983, Note_on_c, 0, 74, 0
2,100008, Note_on_c, 0, 76, 70
2,100028, Note_on_c, 0, 52, 0
2,100038, Note_on_c, 0, 50, 83
2,100087, Note_on_c, 0, 76, 0
2,100099, Note_on_c, 0, 74, 64
2,100118, Note_on_c, 0, 50, 0
2,100167, Note_on_c, 0, 74, 0
2,100170, Note_on_c, 0, 48, 93
2,100184, Note_on_c, 0, 76, 72
2,100189, Control_c, 0, 64, 66
2,100205, Control_c, 0, 64, 74
2,100212, Note_on_c, 0, 48, 0
2,100220, Control_c, 0, 64, 83
2,100236, Control_c, 0, 64, 88
2,100250, Control_c, 0, 64, 90
2,100254, Note_on_c, 0, 76, 0
2,100265, Control_c, 0, 64, 91
2,100265, Note_on_c, 0, 74, 64
2,100280, Control_c, 0, 64, 91
2,100295, Control_c, 0, 64, 92
2,100310, Control_c, 0, 64, 93
2,100330, Note_on_c, 0, 74, 0
2,100343, Note_on_c, 0, 76, 70
2,100385, Control_c, 0, 64, 92
2,100401, Control_c, 0, 64, 85
2,100416, Control_c, 0, 64, 69
2,100417, Note_on_c, 0, 76, 0
2,100421, Note_on_c, 0, 74, 65
2,100426, Note_on_c, 0, 47, 86
2,100431, Control_c, 0, 64, 0
2,100479, Note_on_c, 0, 74, 0
2,100493, Note_on_c, 0, 76, 64
2,100529, Note_on_c, 0, 47, 0
2,100539, Note_on_c, 0, 48, 79
2,100558, Note_on_c, 0, 74, 66
2,100569, Note_on_c, 0, 76, 0
2,100630, Note_on_c, 0, 48, 0
2,100658, Note_on_c, 0, 50, 76
2,100747, Note_on_c, 0, 50, 0
2,100769, Note_on_c, 0, 48, 79
2,100866, Note_on_c, 0, 48, 0
2,100915, Note_on_c, 0, 47, 83
2,100985, Note_on_c, 0, 47, 0
2,101043, Note_on_c, 0, 67, 65
2,101162, Note_on_c, 0, 67, 0
2,101163, Note_on_c, 0, 65, 74
2,101164, Note_on_c, 0, 48, 83
2,101228, Note_on_c, 0, 48, 0
2,101253, Note_on_c, 0, 65, 0
2,101277, Note_on_c, 0, 64, 74
2,101336, Note_on_c, 0, 64, 0
2,101381, Control_c, 0, 64, 53
2,101397, Control_c, 0, 64, 67
2,101412, Control_c, 0, 64, 76
2,101415, Note_on_c, 0, 50, 82
2,101420, Note_on_c, 0, 62, 79
2,101426, Control_c, 0, 64, 88
2,101442, Control_c, 0, 64, 95
2,101457, Control_c, 0, 64, 98
2,101460, Note_on_c, 0, 50, 0
2,101481, Control_c, 0, 64, 100
2,101496, Control_c, 0, 64, 101
2,101510, Control_c, 0, 64, 102
2,101514, Note_on_c, 0, 62, 0
2,101526, Control_c, 0, 64, 103
2,101533, Note_on_c, 0, 65, 77
2,101541, Control_c, 0, 64, 104
2,101571, Control_c, 0, 64, 104
2,101572, Note_on_c, 0, 74, 0
2,101662, Control_c, 0, 64, 102
2,101668, Note_on_c, 0, 55, 87
2,101678, Control_c, 0, 64, 92
2,101691, Note_on_c, 0, 64, 70
2,101691, Note_on_c, 0, 65, 0
2,101693, Control_c, 0, 64, 73
2,101708, Control_c, 0, 64, 0
2,101744, Note_on_c, 0, 55, 0
2,101769, Note_on_c, 0, 64, 0
2,101793, Note_on_c, 0, 65, 70
2,101908, Note_on_c, 0, 65, 0
2,101909, Note_on_c, 0, 72, 80
2,101916, Note_on_c, 0, 45, 87
2,101921, Note_on_c, 0, 64, 68
2,101970, Note_on_c, 0, 64, 0
2,102031, Note_on_c, 0, 62, 72
2,102139, Note_on_c, 0, 62, 0
2,102171, Note_on_c, 0, 60, 69
2,102265, Note_on_c, 0, 60, 0
2,102287, Note_on_c, 0, 64, 67
2,102408, Note_on_c, 0, 64, 0
2,102413, Note_on_c, 0, 47, 82
2,102414, Note_on_c, 0, 45, 0
2,102421, Note_on_c, 0, 62, 70
2,102463, Note_on_c, 0, 72, 0
2,102465, Note_on_c, 0, 47, 0
2,102499, Note_on_c, 0, 62, 0
2,102533, Note_on_c, 0, 64, 67
2,102651, Note_on_c, 0, 64, 0
2,102665, Note_on_c, 0, 48, 81
2,102673, Note_on_c, 0, 71, 72
2,102675, Note_on_c, 0, 62, 70
2,102709, Note_on_c, 0, 62, 0
2,102736, Note_on_c, 0, 48, 0
2,102774, Note_on_c, 0, 60, 72
2,102890, Note_on_c, 0, 60, 0
2,102906, Control_c, 0, 64, 60
2,102916, Note_on_c, 0, 59, 74
2,102920, Control_c, 0, 64, 69
2,102921, Note_on_c, 0, 50, 80
2,102935, Control_c, 0, 64, 78
2,102951, Control_c, 0, 64, 87
2,102954, Note_on_c, 0, 50, 0
2,102965, Control_c, 0, 64, 91
2,102980, Control_c, 0, 64, 92
2,102996, Control_c, 0, 64, 93
2,103000, Note_on_c, 0, 59, 0
2,103018, Control_c, 0, 64, 93
2,103040, Note_on_c, 0, 62, 71
2,103156, Control_c, 0, 64, 93
2,103170, Control_c, 0, 64, 90
2,103173, Note_on_c, 0, 52, 80
2,103177, Note_on_c, 0, 62, 0
2,103186, Control_c, 0, 64, 81
2,103189, Note_on_c, 0, 60, 68
2,103201, Control_c, 0, 64, 64
2,103216, Control_c, 0, 64, 0
2,103233, Note_on_c, 0, 71, 0
2,103257, Note_on_c, 0, 52, 0
2,103259, Note_on_c, 0, 60, 0
2,103296, Note_on_c, 0, 62, 65
2,103413, Note_on_c, 0, 62, 0
2,103433, Note_on_c, 0, 42, 70
2,103437, Note_on_c, 0, 69, 72
2,103447, Note_on_c, 0, 60, 63
2,103477, Note_on_c, 0, 60, 0
2,103552, Note_on_c, 0, 59, 71
2,103647, Note_on_c, 0, 59, 0
2,103688, Note_on_c, 0, 57, 69
2,103781, Note_on_c, 0, 57, 0
2,103804, Note_on_c, 0, 60, 69
2,103892, Note_on_c, 0, 60, 0
2,103914, Note_on_c, 0, 42, 0
2,103922, Note_on_c, 0, 43, 68
2,103932, Note_on_c, 0, 59, 67
2,103932, Note_on_c, 0, 69, 0
2,104017, Note_on_c, 0, 43, 0
2,104048, Note_on_c, 0, 67, 74
2,104161, Note_on_c, 0, 42, 67
2,104166, Note_on_c, 0, 67, 0
2,104179, Note_on_c, 0, 69, 74
2,104254, Note_on_c, 0, 42, 0
2,104285, Note_on_c, 0, 43, 60
2,104293, Note_on_c, 0, 67, 76
2,104297, Note_on_c, 0, 69, 0
2,104396, Note_on_c, 0, 43, 0
2,104414, Note_on_c, 0, 67, 0
2,104416, Note_on_c, 0, 45, 64
2,104418, Note_on_c, 0, 66, 76
2,104434, Note_on_c, 0, 59, 0
2,104471, Note_on_c, 0, 45, 0
2,104502, Note_on_c, 0, 66, 0
2,104520, Note_on_c, 0, 67, 79
2,104521, Note_on_c, 0, 47, 65
2,104636, Note_on_c, 0, 47, 0
2,104646, Control_c, 0, 64, 65
2,104660, Control_c, 0, 64, 74
2,104661, Note_on_c, 0, 66, 71
2,104664, Note_on_c, 0, 57, 66
2,104666, Note_on_c, 0, 36, 69
2,104676, Control_c, 0, 64, 88
2,104691, Control_c, 0, 64, 97
2,104694, Note_on_c, 0, 57, 0
2,104703, Note_on_c, 0, 36, 0
2,104707, Control_c, 0, 64, 101
2,104722, Control_c, 0, 64, 103
2,104736, Control_c, 0, 64, 105
2,104739, Note_on_c, 0, 67, 0
2,104748, Note_on_c, 0, 66, 0
2,104752, Control_c, 0, 64, 106
2,104765, Control_c, 0, 64, 108
2,104780, Control_c, 0, 64, 109
2,104796, Control_c, 0, 64, 110
2,104805, Note_on_c, 0, 62, 71
2,104825, Control_c, 0, 64, 110
2,104846, Note_on_c, 0, 62, 0
2,104856, Control_c, 0, 64, 110
2,104866, Note_on_c, 0, 64, 67
2,104871, Control_c, 0, 64, 109
2,104887, Control_c, 0, 64, 96
2,104902, Control_c, 0, 64, 71
2,104918, Control_c, 0, 64, 0
2,104918, Note_on_c, 0, 60, 65
2,104921, Note_on_c, 0, 66, 79
2,104927, Note_on_c, 0, 64, 0
2,104998, Note_on_c, 0, 66, 0
2,105015, Note_on_c, 0, 60, 0
2,105040, Note_on_c, 0, 59, 61
2,105045, Note_on_c, 0, 62, 73
2,105133, Note_on_c, 0, 59, 0
2,105135, Note_on_c, 0, 62, 0
2,105159, Note_on_c, 0, 67, 84
2,105171, Note_on_c, 0, 57, 71
2,105216, Note_on_c, 0, 57, 0
2,105219, Note_on_c, 0, 67, 0
2,105271, Note_on_c, 0, 62, 72
2,105277, Note_on_c, 0, 55, 69
2,105373, Note_on_c, 0, 62, 0
2,105401, Note_on_c, 0, 69, 88
2,105403, Note_on_c, 0, 55, 0
2,105418, Note_on_c, 0, 54, 74
2,105462, Note_on_c, 0, 69, 0
2,105486, Note_on_c, 0, 54, 0
2,105521, Note_on_c, 0, 62, 72
2,105531, Note_on_c, 0, 52, 70
2,105610, Note_on_c, 0, 52, 0
2,105619, Note_on_c, 0, 62, 0
2,105646, Note_on_c, 0, 71, 86
2,105654, Note_on_c, 0, 50, 77
2,105725, Note_on_c, 0, 71, 0
2,105733, Note_on_c, 0, 50, 0
2,105763, Note_on_c, 0, 48, 81
2,105764, Note_on_c, 0, 62, 78
2,105866, Note_on_c, 0, 48, 0
2,105890, Note_on_c, 0, 47, 80
2,105895, Note_on_c, 0, 72, 87
2,105901, Note_on_c, 0, 62, 0
2,105954, Note_on_c, 0, 72, 0
2,105961, Note_on_c, 0, 47, 0
2,105986, Note_on_c, 0, 45, 77
2,106005, Note_on_c, 0, 62, 80
2,106074, Note_on_c, 0, 45, 0
2,106134, Note_on_c, 0, 43, 73
2,106143, Note_on_c, 0, 71, 78
2,106147, Note_on_c, 0, 62, 0
2,106249, Note_on_c, 0, 43, 0
2,106262, Note_on_c, 0, 71, 0
2,106265, Note_on_c, 0, 79, 75
2,106271, Note_on_c, 0, 45, 68
2,106369, Note_on_c, 0, 45, 0
2,106385, Note_on_c, 0, 77, 78
2,106394, Note_on_c, 0, 47, 69
2,106435, Note_on_c, 0, 79, 0
2,106452, Note_on_c, 0, 47, 0
2,106500, Note_on_c, 0, 43, 71
2,106504, Note_on_c, 0, 76, 77
2,106526, Note_on_c, 0, 77, 0
2,106612, Note_on_c, 0, 43, 0
2,106625, Note_on_c, 0, 74, 82
2,106627, Note_on_c, 0, 76, 0
2,106639, Note_on_c, 0, 48, 80
2,106691, Note_on_c, 0, 48, 0
2,106691, Note_on_c, 0, 74, 0
2,106733, Note_on_c, 0, 72, 78
2,106741, Note_on_c, 0, 43, 64
2,106860, Note_on_c, 0, 43, 0
2,106874, Note_on_c, 0, 71, 78
2,106875, Note_on_c, 0, 50, 87
2,106893, Note_on_c, 0, 72, 0
2,106928, Note_on_c, 0, 50, 0
2,106970, Note_on_c, 0, 71, 0
2,106979, Note_on_c, 0, 43, 65
2,106989, Note_on_c, 0, 69, 75
2,107115, Note_on_c, 0, 43, 0
2,107123, Note_on_c, 0, 67, 81
2,107124, Note_on_c, 0, 69, 0
2,107125, Note_on_c, 0, 52, 94
2,107184, Note_on_c, 0, 52, 0
2,107202, Note_on_c, 0, 67, 0
2,107233, Note_on_c, 0, 43, 66
2,107241, Note_on_c, 0, 65, 80
2,107364, Note_on_c, 0, 43, 0
2,107377, Note_on_c, 0, 53, 90
2,107378, Note_on_c, 0, 64, 80
2,107385, Note_on_c, 0, 65, 0
2,107437, Note_on_c, 0, 53, 0
2,107481, Note_on_c, 0, 43, 70
2,107489, Note_on_c, 0, 64, 0
2,107490, Note_on_c, 0, 62, 86
2,107585, Note_on_c, 0, 43, 0
2,107589, Note_on_c, 0, 62, 0
2,107625, Note_on_c, 0, 52, 88
2,107633, Note_on_c, 0, 60, 89
2,107655, Control_c, 0, 64, 63
2,107670, Control_c, 0, 64, 71
2,107685, Control_c, 0, 64, 79
2,107700, Control_c, 0, 64, 87
2,107715, Note_on_c, 0, 52, 0
2,107716, Control_c, 0, 64, 90
2,107717, Note_on_c, 0, 60, 0
2,107731, Control_c, 0, 64, 92
2,107746, Control_c, 0, 64, 92
2,107751, Note_on_c, 0, 40, 74
2,107779, Note_on_c, 0, 76, 88
2,107814, Note_on_c, 0, 42, 65
2,107822, Control_c, 0, 64, 91
2,107837, Note_on_c, 0, 40, 0
2,107838, Control_c, 0, 64, 80
2,107853, Control_c, 0, 64, 40
2,107867, Control_c, 0, 64, 0
2,107878, Note_on_c, 0, 44, 73
2,107886, Note_on_c, 0, 42, 0
2,107886, Note_on_c, 0, 74, 81
2,107924, Note_on_c, 0, 76, 0
2,107951, Note_on_c, 0, 44, 0
2,107981, Note_on_c, 0, 40, 66
2,108000, Note_on_c, 0, 72, 78
2,108009, Note_on_c, 0, 74, 0
2,108090, Note_on_c, 0, 40, 0
2,108098, Note_on_c, 0, 72, 0
2,108124, Note_on_c, 0, 71, 76
2,108131, Note_on_c, 0, 45, 72
2,108179, Note_on_c, 0, 45, 0
2,108185, Note_on_c, 0, 71, 0
2,108231, Note_on_c, 0, 40, 63
2,108238, Note_on_c, 0, 69, 74
2,108347, Note_on_c, 0, 40, 0
2,108357, Note_on_c, 0, 68, 77
2,108365, Note_on_c, 0, 47, 79
2,108365, Note_on_c, 0, 69, 0
2,108419, Note_on_c, 0, 47, 0
2,108479, Note_on_c, 0, 66, 74
2,108481, Note_on_c, 0, 68, 0
2,108489, Note_on_c, 0, 40, 60
2,108587, Note_on_c, 0, 66, 0
2,108591, Note_on_c, 0, 40, 0
2,108605, Note_on_c, 0, 64, 70
2,108614, Note_on_c, 0, 48, 76
2,108668, Note_on_c, 0, 48, 0
2,108680, Note_on_c, 0, 64, 0
2,108725, Note_on_c, 0, 40, 65
2,108729, Note_on_c, 0, 62, 67
2,108827, Note_on_c, 0, 40, 0
2,108850, Note_on_c, 0, 50, 75
2,108850, Note_on_c, 0, 62, 0
2,108858, Note_on_c, 0, 60, 67
2,108917, Note_on_c, 0, 50, 0
2,108950, Note_on_c, 0, 60, 0
2,108958, Note_on_c, 0, 40, 68
2,108966, Note_on_c, 0, 59, 66
2,109033, Control_c, 0, 64, 20
2,109048, Control_c, 0, 64, 64
2,109057, Note_on_c, 0, 59, 0
2,109063, Control_c, 0, 64, 72
2,109078, Control_c, 0, 64, 81
2,109092, Note_on_c, 0, 40, 0
2,109093, Control_c, 0, 64, 90
2,109094, Note_on_c, 0, 57, 69
2,109095, Note_on_c, 0, 49, 81
2,109108, Control_c, 0, 64, 95
2,109124, Control_c, 0, 64, 97
2,109130, Note_on_c, 0, 57, 0
2,109134, Note_on_c, 0, 49, 0
2,109140, Control_c, 0, 64, 99
2,109155, Control_c, 0, 64, 101
2,109177, Control_c, 0, 64, 103
2,109193, Control_c, 0, 64, 104
2,109208, Control_c, 0, 64, 104
2,109225, Note_on_c, 0, 57, 80
2,109227, Note_on_c, 0, 59, 67
2,109280, Note_on_c, 0, 59, 0
2,109299, Control_c, 0, 64, 104
2,109315, Control_c, 0, 64, 95
2,109323, Note_on_c, 0, 57, 0
2,109329, Control_c, 0, 64, 76
2,109344, Control_c, 0, 64, 0
2,109348, Note_on_c, 0, 61, 71
2,109351, Note_on_c, 0, 55, 76
2,109443, Note_on_c, 0, 61, 0
2,109454, Note_on_c, 0, 55, 0
2,109466, Note_on_c, 0, 54, 83
2,109467, Note_on_c, 0, 57, 74
2,109556, Note_on_c, 0, 54, 0
2,109579, Note_on_c, 0, 57, 0
2,109587, Note_on_c, 0, 62, 85
2,109591, Note_on_c, 0, 52, 82
2,109667, Note_on_c, 0, 62, 0
2,109699, Note_on_c, 0, 52, 0
2,109699, Note_on_c, 0, 57, 76
2,109704, Note_on_c, 0, 50, 81
2,109818, Note_on_c, 0, 57, 0
2,109820, Note_on_c, 0, 50, 0
2,109830, Note_on_c, 0, 64, 86
2,109834, Note_on_c, 0, 49, 83
2,109908, Note_on_c, 0, 64, 0
2,109937, Note_on_c, 0, 49, 0
2,109954, Note_on_c, 0, 57, 78
2,109962, Note_on_c, 0, 47, 80
2,110050, Note_on_c, 0, 47, 0
2,110078, Note_on_c, 0, 66, 95
2,110080, Note_on_c, 0, 57, 0
2,110091, Note_on_c, 0, 45, 83
2,110175, Note_on_c, 0, 66, 0
2,110194, Note_on_c, 0, 57, 83
2,110203, Note_on_c, 0, 45, 0
2,110207, Note_on_c, 0, 43, 82
2,110328, Note_on_c, 0, 67, 92
2,110333, Note_on_c, 0, 42, 83
2,110345, Note_on_c, 0, 57, 0
2,110350, Note_on_c, 0, 43, 0
2,110418, Note_on_c, 0, 42, 0
2,110418, Note_on_c, 0, 67, 0
2,110436, Note_on_c, 0, 40, 88
2,110441, Note_on_c, 0, 57, 86
2,110508, Note_on_c, 0, 40, 0
2,110543, Note_on_c, 0, 57, 0
2,110581, Note_on_c, 0, 38, 83
2,110583, Note_on_c, 0, 62, 87
2,110583, Note_on_c, 0, 66, 89
2,110613, Control_c, 0, 64, 52
2,110628, Control_c, 0, 64, 73
2,110644, Control_c, 0, 64, 83
2,110646, Note_on_c, 0, 62, 0
2,110650, Note_on_c, 0, 66, 0
2,110659, Control_c, 0, 64, 94
2,110675, Control_c, 0, 64, 99
2,110697, Control_c, 0, 64, 102
2,110713, Control_c, 0, 64, 104
2,110728, Control_c, 0, 64, 105
2,110743, Control_c, 0, 64, 108
2,110758, Control_c, 0, 64, 109
2,110820, Control_c, 0, 64, 109
2,110836, Control_c, 0, 64, 102
2,110850, Control_c, 0, 64, 85
2,110865, Control_c, 0, 64, 0
2,110877, Note_on_c, 0, 60, 88
2,110879, Note_on_c, 0, 71, 88
2,110935, Note_on_c, 0, 71, 0
2,110982, Note_on_c, 0, 62, 86
2,110996, Note_on_c, 0, 60, 0
2,111105, Note_on_c, 0, 64, 81
2,111111, Note_on_c, 0, 67, 85
2,111118, Note_on_c, 0, 62, 0
2,111173, Note_on_c, 0, 64, 0
2,111190, Note_on_c, 0, 67, 0
2,111210, Note_on_c, 0, 62, 91
2,111282, Note_on_c, 0, 62, 0
2,111358, Note_on_c, 0, 60, 95
2,111363, Note_on_c, 0, 64, 81
2,111381, Control_c, 0, 64, 67
2,111395, Note_on_c, 0, 64, 0
2,111396, Control_c, 0, 64, 79
2,111411, Control_c, 0, 64, 89
2,111416, Note_on_c, 0, 60, 0
2,111426, Control_c, 0, 64, 93
2,111442, Control_c, 0, 64, 95
2,111464, Control_c, 0, 64, 96
2,111480, Control_c, 0, 64, 98
2,111495, Control_c, 0, 64, 101
2,111510, Control_c, 0, 64, 105
2,111526, Control_c, 0, 64, 109
2,111541, Control_c, 0, 64, 111
2,111556, Control_c, 0, 64, 111
2,111586, Control_c, 0, 64, 111
2,111603, Control_c, 0, 64, 107
2,111617, Control_c, 0, 64, 93
2,111625, Note_on_c, 0, 59, 92
2,111630, Note_on_c, 0, 69, 92
2,111633, Control_c, 0, 64, 72
2,111648, Control_c, 0, 64, 0
2,111692, Note_on_c, 0, 69, 0
2,111705, Note_on_c, 0, 59, 0
2,111741, Note_on_c, 0, 60, 86
2,111865, Note_on_c, 0, 62, 78
2,111873, Note_on_c, 0, 66, 85
2,111893, Note_on_c, 0, 60, 0
2,111937, Note_on_c, 0, 62, 0
2,111976, Note_on_c, 0, 60, 83
2,111999, Note_on_c, 0, 66, 0
2,112093, Note_on_c, 0, 60, 0
2,112110, Note_on_c, 0, 67, 86
2,112116, Note_on_c, 0, 59, 84
2,112150, Control_c, 0, 64, 40
2,112165, Control_c, 0, 64, 63
2,112180, Control_c, 0, 64, 69
2,112190, Note_on_c, 0, 59, 0
2,112196, Control_c, 0, 64, 76
2,112209, Note_on_c, 0, 38, 0
2,112211, Control_c, 0, 64, 84
2,112226, Control_c, 0, 64, 88
2,112237, Note_on_c, 0, 50, 79
2,112249, Control_c, 0, 64, 91
2,112264, Control_c, 0, 64, 92
2,112280, Control_c, 0, 64, 93
2,112374, Note_on_c, 0, 50, 0
2,112375, Note_on_c, 0, 48, 78
2,112380, Note_on_c, 0, 60, 84
2,112385, Control_c, 0, 64, 89
2,112401, Control_c, 0, 64, 79
2,112417, Control_c, 0, 64, 55
2,112432, Control_c, 0, 64, 0
2,112457, Note_on_c, 0, 60, 0
2,112476, Note_on_c, 0, 48, 0
2,112496, Note_on_c, 0, 50, 81
2,112604, Note_on_c, 0, 50, 0
2,112622, Note_on_c, 0, 52, 79
2,112623, Note_on_c, 0, 62, 84
2,112695, Note_on_c, 0, 62, 0
2,112723, Note_on_c, 0, 52, 0
2,112741, Note_on_c, 0, 50, 83
2,112836, Note_on_c, 0, 50, 0
2,112863, Note_on_c, 0, 67, 0
2,112865, Note_on_c, 0, 48, 83
2,112866, Note_on_c, 0, 64, 81
2,112902, Control_c, 0, 64, 68
2,112918, Control_c, 0, 64, 82
2,112923, Note_on_c, 0, 48, 0
2,112931, Note_on_c, 0, 64, 0
2,112933, Control_c, 0, 64, 95
2,112947, Control_c, 0, 64, 100
2,112963, Control_c, 0, 64, 102
2,112978, Control_c, 0, 64, 103
2,112980, Note_on_c, 0, 69, 88
2,112994, Control_c, 0, 64, 104
2,113016, Control_c, 0, 64, 107
2,113021, Note_on_c, 0, 69, 0
2,113031, Control_c, 0, 64, 111
2,113047, Control_c, 0, 64, 115
2,113062, Control_c, 0, 64, 117
2,113078, Control_c, 0, 64, 118
2,113107, Control_c, 0, 64, 117
2,113123, Control_c, 0, 64, 104
2,113134, Note_on_c, 0, 69, 90
2,113138, Control_c, 0, 64, 81
2,113142, Note_on_c, 0, 54, 83
2,113147, Note_on_c, 0, 47, 78
2,113154, Control_c, 0, 64, 0
2,113182, Note_on_c, 0, 69, 0
2,113189, Note_on_c, 0, 71, 76
2,113231, Note_on_c, 0, 47, 0
2,113243, Note_on_c, 0, 69, 84
2,113243, Note_on_c, 0, 71, 0
2,113267, Note_on_c, 0, 48, 76
2,113286, Note_on_c, 0, 69, 0
2,113301, Note_on_c, 0, 71, 69
2,113341, Note_on_c, 0, 69, 74
2,113350, Note_on_c, 0, 71, 0
2,113354, Note_on_c, 0, 48, 0
2,113376, Note_on_c, 0, 50, 68
2,113377, Note_on_c, 0, 69, 0
2,113389, Note_on_c, 0, 71, 63
2,113403, Note_on_c, 0, 54, 0
2,113447, Note_on_c, 0, 69, 84
2,113449, Note_on_c, 0, 48, 64
2,113450, Note_on_c, 0, 71, 0
2,113490, Note_on_c, 0, 50, 0
2,113499, Note_on_c, 0, 67, 82
2,113499, Note_on_c, 0, 69, 0
2,113564, Note_on_c, 0, 48, 0
2,113581, Note_on_c, 0, 69, 79
2,113585, Note_on_c, 0, 67, 0
2,113610, Note_on_c, 0, 55, 68
2,113615, Note_on_c, 0, 47, 70
2,113639, Control_c, 0, 64, 66
2,113643, Note_on_c, 0, 71, 91
2,113649, Note_on_c, 0, 55, 0
2,113654, Control_c, 0, 64, 81
2,113654, Note_on_c, 0, 69, 0
2,113657, Note_on_c, 0, 47, 0
2,113669, Control_c, 0, 64, 94
2,113685, Control_c, 0, 64, 110
2,113690, Note_on_c, 0, 71, 0
2,113700, Control_c, 0, 64, 116
2,113715, Control_c, 0, 64, 120
2,113730, Control_c, 0, 64, 125
2,113745, Control_c, 0, 64, 127
2,113875, Control_c, 0, 64, 106
2,113890, Control_c, 0, 64, 78
2,113905, Control_c, 0, 64, 0
2,113906, Note_on_c, 0, 72, 91
2,113912, Note_on_c, 0, 45, 77
2,113916, Note_on_c, 0, 69, 77
2,113965, Note_on_c, 0, 69, 0
2,114007, Note_on_c, 0, 45, 0
2,114011, Note_on_c, 0, 47, 82
2,114011, Note_on_c, 0, 67, 85
2,114013, Note_on_c, 0, 71, 78
2,114056, Note_on_c, 0, 72, 0
2,114104, Note_on_c, 0, 71, 0
2,114108, Note_on_c, 0, 67, 0
2,114111, Note_on_c, 0, 47, 0
2,114141, Note_on_c, 0, 48, 84
2,114142, Note_on_c, 0, 69, 79
2,114145, Note_on_c, 0, 66, 84
2,114191, Note_on_c, 0, 66, 0
2,114197, Note_on_c, 0, 69, 0
2,114224, Note_on_c, 0, 48, 0
2,114250, Note_on_c, 0, 67, 81
2,114251, Note_on_c, 0, 47, 86
2,114251, Note_on_c, 0, 71, 81
2,114309, Note_on_c, 0, 47, 0
2,114309, Note_on_c, 0, 67, 0
2,114325, Note_on_c, 0, 71, 0
2,114386, Note_on_c, 0, 45, 88
2,114386, Note_on_c, 0, 72, 94
2,114387, Note_on_c, 0, 69, 86
2,114392, Control_c, 0, 64, 58
2,114407, Control_c, 0, 64, 77
2,114422, Control_c, 0, 64, 92
2,114435, Note_on_c, 0, 69, 0
2,114438, Control_c, 0, 64, 108
2,114439, Note_on_c, 0, 72, 0
2,114441, Note_on_c, 0, 45, 0
2,114453, Control_c, 0, 64, 115
2,114468, Control_c, 0, 64, 121
2,114483, Control_c, 0, 64, 127
2,114656, Control_c, 0, 64, 106
2,114665, Note_on_c, 0, 43, 80
2,114665, Note_on_c, 0, 74, 98
2,114671, Control_c, 0, 64, 81
2,114672, Note_on_c, 0, 71, 88
2,114686, Control_c, 0, 64, 0
2,114750, Note_on_c, 0, 71, 0
2,114777, Note_on_c, 0, 43, 0
2,114778, Note_on_c, 0, 69, 85
2,114782, Note_on_c, 0, 45, 82
2,114784, Note_on_c, 0, 72, 79
2,114805, Note_on_c, 0, 74, 0
2,114867, Note_on_c, 0, 69, 0
2,114885, Note_on_c, 0, 45, 0
2,114900, Note_on_c, 0, 71, 82
2,114906, Note_on_c, 0, 72, 0
2,114909, Note_on_c, 0, 67, 80
2,114910, Note_on_c, 0, 47, 87
2,114965, Note_on_c, 0, 71, 0
2,114969, Note_on_c, 0, 67, 0
2,114986, Note_on_c, 0, 47, 0
2,115017, Note_on_c, 0, 45, 79
2,115019, Note_on_c, 0, 72, 83
2,115020, Note_on_c, 0, 69, 88
2,115081, Note_on_c, 0, 69, 0
2,115093, Note_on_c, 0, 72, 0
2,115101, Note_on_c, 0, 45, 0
2,115143, Note_on_c, 0, 43, 89
2,115147, Note_on_c, 0, 74, 91
2,115154, Note_on_c, 0, 71, 79
2,115157, Control_c, 0, 64, 72
2,115173, Control_c, 0, 64, 89
2,115185, Note_on_c, 0, 43, 0
2,115188, Control_c, 0, 64, 104
2,115204, Control_c, 0, 64, 107
2,115207, Note_on_c, 0, 71, 0
2,115219, Control_c, 0, 64, 109
2,115233, Control_c, 0, 64, 109
2,115249, Control_c, 0, 64, 110
2,115264, Control_c, 0, 64, 110
2,115316, Note_on_c, 0, 55, 80
2,115363, Control_c, 0, 64, 110
2,115377, Note_on_c, 0, 54, 77
2,115378, Control_c, 0, 64, 97
2,115379, Note_on_c, 0, 55, 0
2,115393, Control_c, 0, 64, 75
2,115403, Note_on_c, 0, 72, 89
2,115408, Control_c, 0, 64, 0
2,115413, Note_on_c, 0, 69, 85
2,115416, Note_on_c, 0, 74, 0
2,115449, Note_on_c, 0, 52, 74
2,115456, Note_on_c, 0, 54, 0
2,115531, Note_on_c, 0, 52, 0
2,115550, Note_on_c, 0, 55, 76
2,115666, Note_on_c, 0, 55, 0
2,115670, Note_on_c, 0, 71, 86
2,115677, Note_on_c, 0, 67, 84
2,115693, Note_on_c, 0, 50, 73
2,115699, Note_on_c, 0, 69, 0
2,115713, Note_on_c, 0, 72, 0
2,115764, Note_on_c, 0, 50, 0
2,115790, Note_on_c, 0, 55, 79
2,115873, Note_on_c, 0, 67, 0
2,115911, Control_c, 0, 64, 45
2,115918, Note_on_c, 0, 69, 96
2,115923, Note_on_c, 0, 55, 0
2,115927, Control_c, 0, 64, 70
2,115930, Note_on_c, 0, 49, 80
2,115940, Note_on_c, 0, 71, 0
2,115942, Control_c, 0, 64, 79
2,115957, Control_c, 0, 64, 93
2,115961, Note_on_c, 0, 69, 0
2,115973, Control_c, 0, 64, 100
2,115988, Control_c, 0, 64, 104
2,116004, Control_c, 0, 64, 106
2,116019, Control_c, 0, 64, 108
2,116022, Note_on_c, 0, 49, 0
2,116034, Control_c, 0, 64, 111
2,116036, Note_on_c, 0, 57, 79
2,116049, Control_c, 0, 64, 114
2,116064, Control_c, 0, 64, 116
2,116164, Control_c, 0, 64, 112
2,116178, Control_c, 0, 64, 101
2,116179, Note_on_c, 0, 79, 97
2,116185, Note_on_c, 0, 74, 88
2,116192, Note_on_c, 0, 47, 79
2,116193, Control_c, 0, 64, 86
2,116201, Note_on_c, 0, 57, 0
2,116209, Control_c, 0, 64, 68
2,116224, Control_c, 0, 64, 0
2,116285, Control_c, 0, 64, 63
2,116295, Note_on_c, 0, 47, 0
2,116300, Control_c, 0, 64, 73
2,116314, Control_c, 0, 64, 87
2,116314, Note_on_c, 0, 57, 76
2,116330, Control_c, 0, 64, 101
2,116345, Control_c, 0, 64, 111
2,116361, Control_c, 0, 64, 115
2,116375, Control_c, 0, 64, 116
2,116435, Control_c, 0, 64, 113
2,116443, Note_on_c, 0, 57, 0
2,116448, Note_on_c, 0, 73, 94
2,116451, Control_c, 0, 64, 96
2,116455, Note_on_c, 0, 45, 79
2,116466, Control_c, 0, 64, 78
2,116482, Control_c, 0, 64, 0
2,116502, Note_on_c, 0, 74, 0
2,116502, Note_on_c, 0, 79, 0
2,116528, Control_c, 0, 64, 47
2,116543, Control_c, 0, 64, 76
2,116553, Note_on_c, 0, 45, 0
2,116558, Control_c, 0, 64, 98
2,116559, Note_on_c, 0, 57, 80
2,116574, Control_c, 0, 64, 127
2,116596, Note_on_c, 0, 73, 0
2,116679, Control_c, 0, 64, 104
2,116695, Control_c, 0, 64, 78
2,116697, Note_on_c, 0, 50, 82
2,116698, Note_on_c, 0, 57, 0
2,116700, Note_on_c, 0, 78, 97
2,116701, Note_on_c, 0, 74, 91
2,116710, Control_c, 0, 64, 0
2,116756, Control_c, 0, 64, 58
2,116772, Control_c, 0, 64, 79
2,116787, Control_c, 0, 64, 105
2,116791, Note_on_c, 0, 74, 0
2,116803, Control_c, 0, 64, 127
2,116809, Note_on_c, 0, 48, 80
2,116812, Note_on_c, 0, 50, 0
2,116814, Note_on_c, 0, 78, 0
2,116914, Note_on_c, 0, 48, 0
2,116931, Control_c, 0, 64, 114
2,116946, Control_c, 0, 64, 82
2,116959, Note_on_c, 0, 46, 79
2,116959, Note_on_c, 0, 76, 96
2,116962, Control_c, 0, 64, 0
2,116963, Note_on_c, 0, 67, 94
2,117022, Control_c, 0, 64, 64
2,117037, Control_c, 0, 64, 85
2,117053, Control_c, 0, 64, 127
2,117068, Control_c, 0, 64, 127
2,117068, Note_on_c, 0, 46, 0
2,117079, Note_on_c, 0, 67, 0
2,117083, Note_on_c, 0, 50, 82
2,117087, Note_on_c, 0, 76, 0
2,117189, Control_c, 0, 64, 93
2,117205, Control_c, 0, 64, 68
2,117220, Control_c, 0, 64, 0
2,117221, Note_on_c, 0, 74, 89
2,117224, Note_on_c, 0, 66, 96
2,117230, Note_on_c, 0, 45, 81
2,117239, Note_on_c, 0, 50, 0
2,117265, Control_c, 0, 64, 58
2,117279, Control_c, 0, 64, 83
2,117295, Control_c, 0, 64, 127
2,117331, Note_on_c, 0, 45, 0
2,117345, Note_on_c, 0, 50, 87
2,117348, Note_on_c, 0, 66, 0
2,117355, Note_on_c, 0, 74, 0
2,117433, Control_c, 0, 64, 98
2,117448, Control_c, 0, 64, 69
2,117463, Control_c, 0, 64, 0
2,117476, Note_on_c, 0, 73, 98
2,117479, Note_on_c, 0, 64, 99
2,117485, Note_on_c, 0, 43, 81
2,117498, Note_on_c, 0, 50, 0
2,117524, Control_c, 0, 64, 80
2,117530, Note_on_c, 0, 64, 0
2,117539, Control_c, 0, 64, 112
2,117554, Control_c, 0, 64, 127
2,117558, Note_on_c, 0, 73, 0
2,117573, Note_on_c, 0, 43, 0
2,117617, Note_on_c, 0, 52, 88
2,117778, Note_on_c, 0, 82, 107
2,117781, Note_on_c, 0, 73, 105
2,117790, Note_on_c, 0, 42, 82
2,117805, Control_c, 0, 64, 115
2,117807, Note_on_c, 0, 52, 0
2,117820, Control_c, 0, 64, 79
2,117835, Control_c, 0, 64, 0
2,117903, Note_on_c, 0, 42, 0
2,117922, Note_on_c, 0, 52, 84
2,117987, Control_c, 0, 64, 73
2,118002, Control_c, 0, 64, 87
2,118017, Control_c, 0, 64, 112
2,118032, Control_c, 0, 64, 127
2,118057, Note_on_c, 0, 52, 0
2,118059, Note_on_c, 0, 73, 0
2,118062, Note_on_c, 0, 40, 90
2,118063, Note_on_c, 0, 82, 0
2,118176, Note_on_c, 0, 52, 94
2,118180, Note_on_c, 0, 40, 0
2,118306, Control_c, 0, 64, 102
2,118313, Note_on_c, 0, 42, 97
2,118318, Note_on_c, 0, 81, 103
2,118322, Control_c, 0, 64, 78
2,118324, Note_on_c, 0, 72, 94
2,118336, Note_on_c, 0, 52, 0
2,118337, Control_c, 0, 64, 0
2,118431, Note_on_c, 0, 42, 0
2,118447, Note_on_c, 0, 79, 81
2,118486, Note_on_c, 0, 81, 0
2,118591, Note_on_c, 0, 78, 88
2,118593, Note_on_c, 0, 38, 89
2,118618, Control_c, 0, 64, 70
2,118630, Note_on_c, 0, 79, 0
2,118633, Control_c, 0, 64, 88
2,118649, Control_c, 0, 64, 113
2,118664, Control_c, 0, 64, 127
2,118683, Note_on_c, 0, 38, 0
2,118698, Note_on_c, 0, 76, 86
2,118719, Note_on_c, 0, 78, 0
2,118762, Note_on_c, 0, 76, 0
2,118786, Control_c, 0, 64, 100
2,118802, Control_c, 0, 64, 71
2,118817, Control_c, 0, 64, 0
2,118833, Note_on_c, 0, 74, 92
2,118834, Note_on_c, 0, 43, 94
2,118853, Note_on_c, 0, 72, 0
2,118877, Control_c, 0, 64, 65
2,118892, Control_c, 0, 64, 82
2,118907, Control_c, 0, 64, 112
2,118915, Note_on_c, 0, 43, 0
2,118923, Control_c, 0, 64, 127
2,118964, Note_on_c, 0, 74, 0
2,118966, Note_on_c, 0, 71, 81
2,119024, Note_on_c, 0, 71, 0
2,119025, Note_on_c, 0, 69, 84
2,119030, Control_c, 0, 64, 98
2,119046, Control_c, 0, 64, 72
2,119060, Control_c, 0, 64, 0
2,119089, Note_on_c, 0, 71, 89
2,119091, Note_on_c, 0, 40, 92
2,119098, Note_on_c, 0, 69, 0
2,119122, Control_c, 0, 64, 47
2,119144, Control_c, 0, 64, 79
2,119159, Control_c, 0, 64, 103
2,119174, Note_on_c, 0, 40, 0
2,119175, Control_c, 0, 64, 127
2,119208, Note_on_c, 0, 71, 0
2,119224, Note_on_c, 0, 79, 93
2,119296, Control_c, 0, 64, 118
2,119311, Control_c, 0, 64, 86
2,119326, Control_c, 0, 64, 38
2,119341, Control_c, 0, 64, 0
2,119351, Note_on_c, 0, 69, 94
2,119352, Note_on_c, 0, 36, 91
2,119364, Note_on_c, 0, 79, 0
2,119402, Control_c, 0, 64, 62
2,119413, Note_on_c, 0, 36, 0
2,119417, Control_c, 0, 64, 85
2,119432, Control_c, 0, 64, 127
2,119477, Note_on_c, 0, 72, 96
2,119569, Control_c, 0, 64, 115
2,119584, Control_c, 0, 64, 84
2,119599, Control_c, 0, 64, 0
2,119609, Note_on_c, 0, 38, 95
2,119614, Note_on_c, 0, 79, 91
2,119661, Control_c, 0, 64, 73
2,119664, Note_on_c, 0, 38, 0
2,119672, Note_on_c, 0, 69, 0
2,119676, Control_c, 0, 64, 94
2,119691, Control_c, 0, 64, 127
2,119737, Note_on_c, 0, 78, 92
2,119768, Note_on_c, 0, 79, 0
2,119933, Note_on_c, 0, 43, 96
2,119933, Note_on_c, 0, 71, 87
2,119933, Note_on_c, 0, 79, 91
2,119935, Note_on_c, 0, 72, 0
2,119972, Note_on_c, 0, 78, 0
2,119973, Control_c, 0, 64, 101
2,119988, Control_c, 0, 64, 75
2,120004, Control_c, 0, 64, 0
2,120110, Note_on_c, 0, 71, 0
2,120121, Note_on_c, 0, 78, 83
2,120149, Note_on_c, 0, 79, 0
2,120157, Note_on_c, 0, 76, 74
2,120212, Note_on_c, 0, 78, 0
2,120226, Note_on_c, 0, 74, 87
2,120229, Note_on_c, 0, 71, 75
2,120234, Note_on_c, 0, 76, 0
2,120307, Note_on_c, 0, 71, 0
2,120322, Note_on_c, 0, 74, 0
2,120352, Note_on_c, 0, 79, 93
2,120484, Note_on_c, 0, 72, 86
2,120491, Note_on_c, 0, 69, 85
2,120493, Note_on_c, 0, 79, 0
2,120552, Note_on_c, 0, 69, 0
2,120561, Note_on_c, 0, 72, 0
2,120599, Note_on_c, 0, 79, 92
2,120726, Control_c, 0, 64, 61
2,120740, Note_on_c, 0, 71, 93
2,120741, Control_c, 0, 64, 72
2,120745, Note_on_c, 0, 67, 90
2,120747, Note_on_c, 0, 79, 0
2,120756, Control_c, 0, 64, 83
2,120771, Control_c, 0, 64, 97
2,120778, Note_on_c, 0, 43, 0
2,120786, Control_c, 0, 64, 106
2,120802, Control_c, 0, 64, 112
2,120817, Control_c, 0, 64, 116
2,120831, Control_c, 0, 64, 121
2,120847, Control_c, 0, 64, 127
2,120876, Note_on_c, 0, 43, 84
2,120940, Note_on_c, 0, 45, 75
2,120954, Control_c, 0, 64, 104
2,120957, Note_on_c, 0, 43, 0
2,120963, Note_on_c, 0, 67, 0
2,120969, Control_c, 0, 64, 73
2,120984, Control_c, 0, 64, 0
2,121004, Note_on_c, 0, 71, 0
2,121008, Note_on_c, 0, 79, 94
2,121009, Note_on_c, 0, 47, 83
2,121019, Note_on_c, 0, 45, 0
2,121101, Note_on_c, 0, 47, 0
2,121126, Note_on_c, 0, 43, 85
2,121251, Note_on_c, 0, 43, 0
2,121252, Note_on_c, 0, 79, 0
2,121261, Note_on_c, 0, 69, 91
2,121264, Note_on_c, 0, 66, 88
2,121267, Note_on_c, 0, 48, 90
2,121385, Note_on_c, 0, 43, 87
2,121386, Note_on_c, 0, 48, 0
2,121415, Note_on_c, 0, 66, 0
2,121524, Note_on_c, 0, 43, 0
2,121526, Note_on_c, 0, 69, 0
2,121530, Note_on_c, 0, 50, 90
2,121532, Note_on_c, 0, 71, 83
2,121539, Note_on_c, 0, 67, 77
2,121614, Note_on_c, 0, 67, 0
2,121632, Note_on_c, 0, 71, 0
2,121662, Note_on_c, 0, 74, 84
2,121749, Note_on_c, 0, 72, 77
2,121777, Note_on_c, 0, 50, 0
2,121778, Note_on_c, 0, 74, 0
2,121783, Note_on_c, 0, 67, 77
2,121788, Note_on_c, 0, 43, 81
2,121792, Note_on_c, 0, 71, 83
2,121831, Note_on_c, 0, 72, 0
2,121872, Note_on_c, 0, 67, 0
2,121910, Note_on_c, 0, 71, 0
2,121924, Note_on_c, 0, 74, 87
2,122058, Note_on_c, 0, 69, 89
2,122061, Note_on_c, 0, 47, 86
2,122063, Note_on_c, 0, 65, 83
2,122073, Note_on_c, 0, 74, 0
2,122152, Note_on_c, 0, 65, 0
2,122161, Note_on_c, 0, 69, 0
2,122178, Note_on_c, 0, 74, 92
2,122308, Note_on_c, 0, 47, 0
2,122325, Note_on_c, 0, 64, 83
2,122325, Note_on_c, 0, 67, 85
2,122327, Note_on_c, 0, 48, 80
2,122342, Note_on_c, 0, 74, 0
2,122388, Note_on_c, 0, 48, 0
2,122397, Note_on_c, 0, 47, 79
2,122451, Note_on_c, 0, 48, 76
2,122465, Note_on_c, 0, 47, 0
2,122501, Note_on_c, 0, 50, 78
2,122509, Note_on_c, 0, 48, 0
2,122592, Note_on_c, 0, 52, 88
2,122595, Note_on_c, 0, 72, 81
2,122601, Note_on_c, 0, 67, 0
2,122610, Note_on_c, 0, 50, 0
2,122626, Note_on_c, 0, 64, 0
2,122695, Note_on_c, 0, 52, 0
2,122732, Note_on_c, 0, 48, 82
2,122872, Note_on_c, 0, 63, 91
2,122881, Note_on_c, 0, 54, 89
2,122907, Note_on_c, 0, 48, 0
2,122928, Control_c, 0, 64, 70
2,122943, Control_c, 0, 64, 81
2,122957, Control_c, 0, 64, 94
2,122973, Control_c, 0, 64, 101
2,122976, Note_on_c, 0, 63, 0
2,122996, Control_c, 0, 64, 105
2,123010, Note_on_c, 0, 54, 0
2,123012, Control_c, 0, 64, 107
2,123017, Note_on_c, 0, 48, 87
2,123027, Control_c, 0, 64, 109
2,123041, Control_c, 0, 64, 110
2,123058, Control_c, 0, 64, 111
2,123073, Control_c, 0, 64, 112
2,123134, Control_c, 0, 64, 111
2,123149, Control_c, 0, 64, 104
2,123159, Note_on_c, 0, 55, 82
2,123162, Note_on_c, 0, 62, 89
2,123164, Control_c, 0, 64, 88
2,123172, Note_on_c, 0, 48, 0
2,123180, Control_c, 0, 64, 67
2,123192, Note_on_c, 0, 72, 0
2,123195, Control_c, 0, 64, 0
2,123227, Note_on_c, 0, 67, 82
2,123260, Note_on_c, 0, 62, 0
2,123290, Note_on_c, 0, 69, 79
2,123301, Control_c, 0, 64, 44
2,123316, Control_c, 0, 64, 68
2,123332, Control_c, 0, 64, 77
2,123334, Note_on_c, 0, 67, 0
2,123346, Control_c, 0, 64, 85
2,123350, Note_on_c, 0, 71, 82
2,123361, Control_c, 0, 64, 87
2,123373, Note_on_c, 0, 69, 0
2,123422, Control_c, 0, 64, 81
2,123436, Note_on_c, 0, 72, 90
2,123437, Control_c, 0, 64, 66
2,123446, Note_on_c, 0, 64, 80
2,123453, Control_c, 0, 64, 0
2,123459, Note_on_c, 0, 71, 0
2,123559, Control_c, 0, 64, 72
2,123575, Control_c, 0, 64, 86
2,123580, Note_on_c, 0, 67, 92
2,123588, Note_on_c, 0, 72, 0
2,123589, Note_on_c, 0, 64, 0
2,123590, Control_c, 0, 64, 106
2,123604, Control_c, 0, 64, 116
2,123620, Control_c, 0, 64, 118
2,123696, Control_c, 0, 64, 116
2,123704, Note_on_c, 0, 67, 0
2,123711, Control_c, 0, 64, 100
2,123725, Note_on_c, 0, 74, 92
2,123726, Control_c, 0, 64, 81
2,123729, Note_on_c, 0, 71, 79
2,123732, Note_on_c, 0, 65, 85
2,123742, Control_c, 0, 64, 0
2,123825, Control_c, 0, 64, 64
2,123827, Note_on_c, 0, 71, 0
2,123832, Note_on_c, 0, 65, 0
2,123840, Control_c, 0, 64, 80
2,123856, Control_c, 0, 64, 101
2,123871, Control_c, 0, 64, 127
2,123877, Note_on_c, 0, 67, 95
2,123916, Note_on_c, 0, 74, 0
2,123935, Note_on_c, 0, 67, 0
2,124024, Control_c, 0, 64, 97
2,124028, Note_on_c, 0, 76, 92
2,124031, Note_on_c, 0, 67, 89
2,124035, Note_on_c, 0, 72, 81
2,124038, Control_c, 0, 64, 71
2,124054, Control_c, 0, 64, 0
2,124102, Note_on_c, 0, 72, 0
2,124113, Note_on_c, 0, 71, 84
2,124120, Note_on_c, 0, 67, 0
2,124160, Control_c, 0, 64, 64
2,124164, Note_on_c, 0, 76, 0
2,124176, Control_c, 0, 64, 79
2,124186, Note_on_c, 0, 72, 83
2,124190, Control_c, 0, 64, 99
2,124205, Control_c, 0, 64, 127
2,124228, Note_on_c, 0, 71, 0
2,124238, Note_on_c, 0, 74, 84
2,124275, Note_on_c, 0, 72, 0
2,124328, Control_c, 0, 64, 113
2,124331, Note_on_c, 0, 76, 98
2,124343, Control_c, 0, 64, 86
2,124343, Note_on_c, 0, 67, 85
2,124354, Note_on_c, 0, 74, 0
2,124357, Control_c, 0, 64, 18
2,124373, Control_c, 0, 64, 0
2,124464, Control_c, 0, 64, 61
2,124479, Control_c, 0, 64, 75
2,124495, Control_c, 0, 64, 94
2,124495, Note_on_c, 0, 72, 95
2,124507, Note_on_c, 0, 67, 0
2,124510, Control_c, 0, 64, 112
2,124526, Note_on_c, 0, 76, 0
2,124532, Control_c, 0, 64, 127
2,124668, Note_on_c, 0, 78, 101
2,124678, Note_on_c, 0, 69, 81
2,124684, Control_c, 0, 64, 115
2,124698, Note_on_c, 0, 72, 0
2,124700, Control_c, 0, 64, 90
2,124715, Control_c, 0, 64, 67
2,124731, Control_c, 0, 64, 0
2,124837, Note_on_c, 0, 72, 92
2,124844, Note_on_c, 0, 69, 0
2,124880, Control_c, 0, 64, 76
2,124896, Control_c, 0, 64, 96
2,124911, Control_c, 0, 64, 112
2,124926, Control_c, 0, 64, 112
2,124942, Control_c, 0, 64, 113
2,124957, Control_c, 0, 64, 114
2,125026, Note_on_c, 0, 79, 94
2,125027, Note_on_c, 0, 71, 86
2,125038, Note_on_c, 0, 72, 0
2,125040, Note_on_c, 0, 78, 0
2,125049, Control_c, 0, 64, 113
2,125064, Control_c, 0, 64, 105
2,125078, Control_c, 0, 64, 86
2,125094, Control_c, 0, 64, 64
2,125109, Control_c, 0, 64, 0
2,125211, Note_on_c, 0, 74, 87
2,125404, Note_on_c, 0, 76, 84
2,125424, Note_on_c, 0, 74, 0
2,125600, Note_on_c, 0, 72, 87
2,125634, Note_on_c, 0, 71, 0
2,125668, Note_on_c, 0, 76, 0
2,125813, Note_on_c, 0, 69, 92
2,126015, Control_c, 0, 64, 49
2,126030, Control_c, 0, 64, 64
2,126052, Control_c, 0, 64, 69
2,126067, Control_c, 0, 64, 77
2,126076, Note_on_c, 0, 78, 92
2,126082, Control_c, 0, 64, 84
2,126098, Control_c, 0, 64, 89
2,126108, Note_on_c, 0, 79, 0
2,126113, Control_c, 0, 64, 92
2,126128, Control_c, 0, 64, 95
2,126143, Control_c, 0, 64, 98
2,126158, Control_c, 0, 64, 102
2,126174, Control_c, 0, 64, 107
2,126175, Note_on_c, 0, 69, 0
2,126189, Control_c, 0, 64, 112
2,126204, Control_c, 0, 64, 115
2,126220, Control_c, 0, 64, 117
2,126235, Control_c, 0, 64, 118
2,126388, Control_c, 0, 64, 117
2,126419, Control_c, 0, 64, 117
2,126433, Control_c, 0, 64, 116
2,126449, Control_c, 0, 64, 115
2,126455, Note_on_c, 0, 79, 85
2,126464, Control_c, 0, 64, 113
2,126464, Note_on_c, 0, 74, 81
2,126467, Note_on_c, 0, 71, 81
2,126470, Note_on_c, 0, 78, 0
2,126479, Control_c, 0, 64, 110
2,126494, Control_c, 0, 64, 106
2,126504, Note_on_c, 0, 72, 0
2,126509, Control_c, 0, 64, 99
2,126524, Control_c, 0, 64, 89
2,126540, Control_c, 0, 64, 76
2,126555, Control_c, 0, 64, 0
2,128824, Note_on_c, 0, 71, 0
2,128895, Note_on_c, 0, 43, 0
2,128895, Note_on_c, 0, 55, 0
2,128895, Note_on_c, 0, 74, 0
2,128895, Note_on_c, 0, 79, 0
2,128896, End_track
0, 0, End_of_file
