0, 0, Header, 1, 2, 384
1, 0, Start_track
1, 0, Tempo, 500000
1, 0, Time_signature, 4, 2, 24, 8
1, 1, End_track
2, 0, Start_track
2, 0, Title_t, "Ko04-07.MID"
2, 0, Program_c, 0, 0
2, 835, Note_on_c, 0, 67, 81
2, 840, Note_on_c, 0, 55, 64
2, 873, Note_on_c, 0, 55, 0
2, 894, Note_on_c, 0, 67, 0
2, 902, Note_on_c, 0, 71, 79
2, 964, Note_on_c, 0, 74, 77
2, 967, Note_on_c, 0, 71, 0
2, 1027, Note_on_c, 0, 74, 0
2, 1038, Note_on_c, 0, 79, 86
2, 1039, Note_on_c, 0, 43, 67
2, 1065, Note_on_c, 0, 43, 0
2, 1112, Note_on_c, 0, 79, 0
2, 1113, Note_on_c, 0, 74, 83
2, 1178, Note_on_c, 0, 74, 0
2, 1186, Note_on_c, 0, 71, 74
2, 1248, Note_on_c, 0, 71, 0
2, 1270, Note_on_c, 0, 74, 77
2, 1336, Note_on_c, 0, 74, 0
2, 1346, Note_on_c, 0, 71, 69
2, 1375, Note_on_c, 0, 71, 0
2, 1421, Note_on_c, 0, 67, 65
2, 1457, Note_on_c, 0, 67, 0
2, 1477, Note_on_c, 0, 55, 74
2, 1491, Note_on_c, 0, 71, 82
2, 1502, Note_on_c, 0, 55, 0
2, 1562, Note_on_c, 0, 67, 83
2, 1589, Note_on_c, 0, 71, 0
2, 1655, Note_on_c, 0, 67, 0
2, 1656, Note_on_c, 0, 62, 76
2, 1704, Note_on_c, 0, 62, 0
2, 1727, Note_on_c, 0, 55, 86
2, 1737, Note_on_c, 0, 64, 84
2, 1775, Note_on_c, 0, 55, 0
2, 1796, Note_on_c, 0, 64, 0
2, 1810, Note_on_c, 0, 67, 86
2, 1871, Note_on_c, 0, 67, 0
2, 1891, Note_on_c, 0, 72, 74
2, 1968, Note_on_c, 0, 43, 81
2, 1969, Note_on_c, 0, 76, 82
2, 1974, Note_on_c, 0, 72, 0
2, 2000, Note_on_c, 0, 43, 0
2, 2042, Note_on_c, 0, 72, 79
2, 2072, Note_on_c, 0, 76, 0
2, 2119, Note_on_c, 0, 67, 75
2, 2119, Note_on_c, 0, 72, 0
2, 2188, Note_on_c, 0, 67, 0
2, 2200, Note_on_c, 0, 72, 83
2, 2265, Note_on_c, 0, 72, 0
2, 2270, Note_on_c, 0, 67, 78
2, 2325, Note_on_c, 0, 67, 0
2, 2346, Note_on_c, 0, 64, 76
2, 2390, Note_on_c, 0, 64, 0
2, 2426, Note_on_c, 0, 55, 85
2, 2445, Note_on_c, 0, 65, 74
2, 2445, Note_on_c, 0, 67, 74
2, 2465, Note_on_c, 0, 55, 0
2, 2505, Note_on_c, 0, 64, 80
2, 2507, Note_on_c, 0, 67, 0
2, 2519, Note_on_c, 0, 65, 0
2, 2592, Note_on_c, 0, 60, 75
2, 2599, Note_on_c, 0, 64, 0
2, 2641, Note_on_c, 0, 60, 0
2, 2656, Note_on_c, 0, 55, 79
2, 2661, Note_on_c, 0, 57, 82
2, 2684, Note_on_c, 0, 55, 0
2, 2727, Note_on_c, 0, 57, 0
2, 2736, Note_on_c, 0, 60, 86
2, 2796, Note_on_c, 0, 60, 0
2, 2815, Note_on_c, 0, 66, 73
2, 2898, Note_on_c, 0, 69, 82
2, 2902, Note_on_c, 0, 43, 64
2, 2902, Note_on_c, 0, 66, 0
2, 2932, Note_on_c, 0, 43, 0
2, 2970, Note_on_c, 0, 66, 78
2, 2992, Note_on_c, 0, 69, 0
2, 3045, Note_on_c, 0, 66, 0
2, 3050, Note_on_c, 0, 60, 62
2, 3130, Note_on_c, 0, 60, 0
2, 3132, Note_on_c, 0, 66, 79
2, 3204, Note_on_c, 0, 66, 0
2, 3210, Note_on_c, 0, 60, 73
2, 3253, Note_on_c, 0, 60, 0
2, 3298, Note_on_c, 0, 57, 62
2, 3327, Note_on_c, 0, 57, 0
2, 3347, Note_on_c, 0, 55, 71
2, 3365, Note_on_c, 0, 60, 76
2, 3377, Note_on_c, 0, 55, 0
2, 3434, Note_on_c, 0, 60, 0
2, 3435, Note_on_c, 0, 57, 66
2, 3505, Note_on_c, 0, 57, 0
2, 3510, Note_on_c, 0, 54, 69
2, 3551, Note_on_c, 0, 54, 0
2, 3582, Note_on_c, 0, 55, 80
2, 3625, Note_on_c, 0, 55, 0
2, 3674, Note_on_c, 0, 59, 57
2, 3720, Note_on_c, 0, 59, 0
2, 3751, Note_on_c, 0, 62, 60
2, 3820, Note_on_c, 0, 62, 0
2, 3822, Note_on_c, 0, 43, 54
2, 3825, Note_on_c, 0, 67, 68
2, 3852, Note_on_c, 0, 43, 0
2, 3912, Note_on_c, 0, 67, 0
2, 3915, Note_on_c, 0, 62, 71
2, 3981, Note_on_c, 0, 62, 0
2, 3989, Note_on_c, 0, 59, 66
2, 4056, Note_on_c, 0, 59, 0
2, 4083, Note_on_c, 0, 62, 73
2, 4149, Note_on_c, 0, 62, 0
2, 4159, Note_on_c, 0, 59, 70
2, 4189, Note_on_c, 0, 59, 0
2, 4230, Note_on_c, 0, 55, 69
2, 4271, Note_on_c, 0, 55, 0
2, 4298, Note_on_c, 0, 55, 54
2, 4299, Note_on_c, 0, 59, 80
2, 4336, Note_on_c, 0, 55, 0
2, 4346, Note_on_c, 0, 59, 0
2, 4391, Note_on_c, 0, 55, 80
2, 4417, Note_on_c, 0, 55, 0
2, 4447, Note_on_c, 0, 52, 69
2, 4508, Note_on_c, 0, 52, 0
2, 4538, Note_on_c, 0, 57, 84
2, 4546, Note_on_c, 0, 55, 73
2, 4577, Note_on_c, 0, 55, 0
2, 4602, Note_on_c, 0, 57, 0
2, 4611, Note_on_c, 0, 61, 81
2, 4696, Note_on_c, 0, 61, 0
2, 4696, Note_on_c, 0, 64, 75
2, 4776, Note_on_c, 0, 64, 0
2, 4781, Note_on_c, 0, 69, 77
2, 4784, Note_on_c, 0, 43, 61
2, 4815, Note_on_c, 0, 43, 0
2, 4858, Note_on_c, 0, 64, 76
2, 4863, Note_on_c, 0, 69, 0
2, 4927, Note_on_c, 0, 64, 0
2, 4934, Note_on_c, 0, 61, 73
2, 5008, Note_on_c, 0, 61, 0
2, 5014, Note_on_c, 0, 64, 73
2, 5095, Note_on_c, 0, 64, 0
2, 5104, Note_on_c, 0, 61, 67
2, 5130, Note_on_c, 0, 61, 0
2, 5163, Note_on_c, 0, 57, 73
2, 5216, Note_on_c, 0, 57, 0
2, 5221, Note_on_c, 0, 55, 74
2, 5235, Note_on_c, 0, 61, 75
2, 5248, Note_on_c, 0, 55, 0
2, 5315, Note_on_c, 0, 57, 67
2, 5320, Note_on_c, 0, 61, 0
2, 5376, Note_on_c, 0, 52, 75
2, 5380, Note_on_c, 0, 57, 0
2, 5437, Note_on_c, 0, 52, 0
2, 5471, Note_on_c, 0, 62, 74
2, 5488, Note_on_c, 0, 54, 73
2, 5524, Note_on_c, 0, 62, 0
2, 5560, Note_on_c, 0, 57, 66
2, 5576, Note_on_c, 0, 54, 0
2, 5628, Note_on_c, 0, 57, 0
2, 5640, Note_on_c, 0, 61, 70
2, 5679, Note_on_c, 0, 61, 0
2, 5716, Note_on_c, 0, 62, 67
2, 5777, Note_on_c, 0, 62, 0
2, 5791, Note_on_c, 0, 57, 67
2, 5855, Note_on_c, 0, 57, 0
2, 5868, Note_on_c, 0, 54, 68
2, 5920, Note_on_c, 0, 54, 0
2, 5953, Note_on_c, 0, 57, 68
2, 5993, Note_on_c, 0, 57, 0
2, 6026, Note_on_c, 0, 54, 70
2, 6089, Note_on_c, 0, 54, 0
2, 6090, Note_on_c, 0, 50, 63
2, 6147, Control_c, 0, 64, 49
2, 6159, Note_on_c, 0, 62, 76
2, 6163, Control_c, 0, 64, 65
2, 6163, Note_on_c, 0, 50, 0
2, 6177, Control_c, 0, 64, 67
2, 6194, Note_on_c, 0, 54, 68
2, 6200, Control_c, 0, 64, 69
2, 6215, Control_c, 0, 64, 70
2, 6218, Note_on_c, 0, 62, 0
2, 6230, Control_c, 0, 64, 71
2, 6246, Control_c, 0, 64, 72
2, 6265, Note_on_c, 0, 54, 0
2, 6283, Note_on_c, 0, 50, 63
2, 6312, Note_on_c, 0, 47, 69
2, 6346, Note_on_c, 0, 50, 0
2, 6389, Note_on_c, 0, 47, 0
2, 6397, Control_c, 0, 64, 71
2, 6413, Control_c, 0, 64, 70
2, 6413, Note_on_c, 0, 62, 74
2, 6428, Control_c, 0, 64, 64
2, 6435, Note_on_c, 0, 52, 69
2, 6444, Control_c, 0, 64, 0
2, 6474, Note_on_c, 0, 52, 0
2, 6477, Note_on_c, 0, 62, 0
2, 6508, Note_on_c, 0, 61, 65
2, 6549, Note_on_c, 0, 61, 0
2, 6578, Note_on_c, 0, 62, 63
2, 6655, Note_on_c, 0, 40, 62
2, 6655, Note_on_c, 0, 62, 0
2, 6656, Note_on_c, 0, 64, 64
2, 6704, Note_on_c, 0, 40, 0
2, 6721, Note_on_c, 0, 64, 0
2, 6733, Note_on_c, 0, 61, 65
2, 6789, Note_on_c, 0, 61, 0
2, 6807, Note_on_c, 0, 62, 60
2, 6895, Note_on_c, 0, 66, 70
2, 6915, Note_on_c, 0, 62, 0
2, 6966, Note_on_c, 0, 66, 0
2, 6980, Note_on_c, 0, 61, 71
2, 7046, Note_on_c, 0, 61, 0
2, 7054, Note_on_c, 0, 62, 63
2, 7138, Note_on_c, 0, 67, 73
2, 7139, Note_on_c, 0, 52, 72
2, 7162, Note_on_c, 0, 62, 0
2, 7218, Note_on_c, 0, 67, 0
2, 7225, Note_on_c, 0, 61, 66
2, 7309, Note_on_c, 0, 61, 0
2, 7312, Note_on_c, 0, 62, 57
2, 7389, Note_on_c, 0, 49, 72
2, 7394, Note_on_c, 0, 69, 72
2, 7419, Note_on_c, 0, 62, 0
2, 7466, Note_on_c, 0, 52, 0
2, 7476, Note_on_c, 0, 69, 0
2, 7479, Note_on_c, 0, 61, 64
2, 7552, Note_on_c, 0, 62, 62
2, 7567, Note_on_c, 0, 61, 0
2, 7648, Note_on_c, 0, 45, 72
2, 7655, Note_on_c, 0, 71, 78
2, 7667, Note_on_c, 0, 62, 0
2, 7695, Note_on_c, 0, 49, 0
2, 7746, Note_on_c, 0, 71, 0
2, 7769, Note_on_c, 0, 61, 65
2, 7823, Note_on_c, 0, 62, 56
2, 7839, Note_on_c, 0, 61, 0
2, 7905, Note_on_c, 0, 47, 75
2, 7915, Note_on_c, 0, 69, 77
2, 7928, Note_on_c, 0, 45, 0
2, 7955, Note_on_c, 0, 62, 0
2, 7985, Note_on_c, 0, 61, 67
2, 8010, Note_on_c, 0, 69, 0
2, 8073, Note_on_c, 0, 62, 64
2, 8077, Note_on_c, 0, 61, 0
2, 8146, Note_on_c, 0, 67, 76
2, 8154, Note_on_c, 0, 49, 71
2, 8163, Control_c, 0, 64, 63
2, 8169, Note_on_c, 0, 47, 0
2, 8169, Note_on_c, 0, 62, 0
2, 8177, Control_c, 0, 64, 72
2, 8192, Control_c, 0, 64, 80
2, 8208, Control_c, 0, 64, 84
2, 8208, Note_on_c, 0, 49, 0
2, 8222, Note_on_c, 0, 61, 68
2, 8223, Control_c, 0, 64, 85
2, 8225, Note_on_c, 0, 67, 0
2, 8239, Control_c, 0, 64, 86
2, 8254, Control_c, 0, 64, 87
2, 8269, Control_c, 0, 64, 87
2, 8291, Note_on_c, 0, 62, 70
2, 8302, Note_on_c, 0, 61, 0
2, 8375, Control_c, 0, 64, 86
2, 8390, Control_c, 0, 64, 79
2, 8400, Note_on_c, 0, 50, 68
2, 8400, Note_on_c, 0, 66, 74
2, 8401, Note_on_c, 0, 62, 0
2, 8406, Control_c, 0, 64, 63
2, 8420, Control_c, 0, 64, 0
2, 8436, Note_on_c, 0, 50, 0
2, 8494, Note_on_c, 0, 61, 75
2, 8566, Note_on_c, 0, 61, 0
2, 8596, Note_on_c, 0, 62, 59
2, 8643, Note_on_c, 0, 62, 0
2, 8659, Note_on_c, 0, 66, 0
2, 8661, Note_on_c, 0, 67, 76
2, 8663, Note_on_c, 0, 52, 65
2, 8759, Note_on_c, 0, 61, 62
2, 8768, Note_on_c, 0, 52, 0
2, 8790, Note_on_c, 0, 62, 58
2, 8822, Note_on_c, 0, 61, 0
2, 8884, Note_on_c, 0, 62, 0
2, 8908, Note_on_c, 0, 54, 61
2, 8916, Note_on_c, 0, 69, 80
2, 8980, Note_on_c, 0, 67, 0
2, 9001, Note_on_c, 0, 61, 57
2, 9003, Note_on_c, 0, 54, 0
2, 9058, Note_on_c, 0, 62, 54
2, 9065, Note_on_c, 0, 61, 0
2, 9165, Note_on_c, 0, 62, 0
2, 9165, Note_on_c, 0, 71, 75
2, 9168, Note_on_c, 0, 55, 58
2, 9205, Note_on_c, 0, 69, 0
2, 9254, Note_on_c, 0, 55, 0
2, 9271, Note_on_c, 0, 61, 59
2, 9319, Note_on_c, 0, 61, 0
2, 9342, Note_on_c, 0, 62, 58
2, 9418, Note_on_c, 0, 62, 0
2, 9427, Note_on_c, 0, 69, 80
2, 9436, Note_on_c, 0, 54, 66
2, 9463, Note_on_c, 0, 71, 0
2, 9519, Note_on_c, 0, 54, 0
2, 9523, Note_on_c, 0, 61, 65
2, 9573, Note_on_c, 0, 61, 0
2, 9605, Note_on_c, 0, 62, 55
2, 9666, Note_on_c, 0, 62, 0
2, 9685, Note_on_c, 0, 67, 79
2, 9699, Note_on_c, 0, 52, 61
2, 9717, Note_on_c, 0, 69, 0
2, 9749, Note_on_c, 0, 52, 0
2, 9773, Note_on_c, 0, 61, 69
2, 9814, Note_on_c, 0, 61, 0
2, 9854, Note_on_c, 0, 62, 64
2, 9913, Note_on_c, 0, 62, 0
2, 9936, Note_on_c, 0, 66, 80
2, 9947, Note_on_c, 0, 50, 67
2, 9977, Note_on_c, 0, 67, 0
2, 9984, Note_on_c, 0, 50, 0
2, 9990, Note_on_c, 0, 52, 38
2, 10026, Note_on_c, 0, 52, 0
2, 10037, Note_on_c, 0, 61, 72
2, 10105, Note_on_c, 0, 61, 0
2, 10115, Note_on_c, 0, 62, 60
2, 10146, Control_c, 0, 64, 66
2, 10162, Control_c, 0, 64, 75
2, 10171, Note_on_c, 0, 62, 0
2, 10177, Control_c, 0, 64, 86
2, 10182, Note_on_c, 0, 69, 86
2, 10183, Note_on_c, 0, 66, 0
2, 10186, Note_on_c, 0, 54, 69
2, 10192, Control_c, 0, 64, 95
2, 10208, Control_c, 0, 64, 101
2, 10221, Note_on_c, 0, 69, 0
2, 10223, Control_c, 0, 64, 105
2, 10239, Control_c, 0, 64, 110
2, 10253, Control_c, 0, 64, 115
2, 10253, Note_on_c, 0, 61, 76
2, 10265, Note_on_c, 0, 54, 0
2, 10268, Control_c, 0, 64, 120
2, 10284, Control_c, 0, 64, 126
2, 10299, Control_c, 0, 64, 127
2, 10300, Note_on_c, 0, 61, 0
2, 10317, Note_on_c, 0, 62, 74
2, 10372, Note_on_c, 0, 62, 0
2, 10390, Control_c, 0, 64, 116
2, 10406, Control_c, 0, 64, 93
2, 10421, Control_c, 0, 64, 63
2, 10431, Note_on_c, 0, 68, 85
2, 10433, Note_on_c, 0, 47, 92
2, 10436, Control_c, 0, 64, 0
2, 10486, Note_on_c, 0, 47, 0
2, 10513, Note_on_c, 0, 68, 0
2, 10514, Note_on_c, 0, 71, 77
2, 10601, Note_on_c, 0, 74, 76
2, 10614, Note_on_c, 0, 71, 0
2, 10689, Note_on_c, 0, 77, 86
2, 10693, Note_on_c, 0, 74, 0
2, 10698, Note_on_c, 0, 59, 85
2, 10743, Note_on_c, 0, 59, 0
2, 10767, Note_on_c, 0, 74, 81
2, 10788, Note_on_c, 0, 77, 0
2, 10849, Note_on_c, 0, 71, 74
2, 10851, Note_on_c, 0, 74, 0
2, 10923, Note_on_c, 0, 71, 0
2, 10925, Note_on_c, 0, 74, 81
2, 10996, Note_on_c, 0, 71, 78
2, 11009, Note_on_c, 0, 74, 0
2, 11066, Note_on_c, 0, 71, 0
2, 11082, Note_on_c, 0, 68, 78
2, 11106, Note_on_c, 0, 68, 0
2, 11127, Note_on_c, 0, 67, 40
2, 11138, Note_on_c, 0, 67, 0
2, 11163, Note_on_c, 0, 57, 83
2, 11177, Note_on_c, 0, 71, 84
2, 11247, Note_on_c, 0, 68, 74
2, 11278, Note_on_c, 0, 71, 0
2, 11329, Note_on_c, 0, 64, 74
2, 11347, Note_on_c, 0, 68, 0
2, 11403, Note_on_c, 0, 64, 0
2, 11414, Note_on_c, 0, 56, 78
2, 11419, Note_on_c, 0, 62, 77
2, 11424, Note_on_c, 0, 57, 0
2, 11446, Note_on_c, 0, 56, 0
2, 11486, Note_on_c, 0, 62, 0
2, 11494, Note_on_c, 0, 65, 78
2, 11582, Note_on_c, 0, 68, 72
2, 11583, Note_on_c, 0, 65, 0
2, 11666, Note_on_c, 0, 68, 0
2, 11669, Note_on_c, 0, 44, 70
2, 11669, Note_on_c, 0, 71, 75
2, 11708, Note_on_c, 0, 44, 0
2, 11747, Note_on_c, 0, 68, 74
2, 11764, Note_on_c, 0, 71, 0
2, 11819, Note_on_c, 0, 68, 0
2, 11822, Note_on_c, 0, 65, 72
2, 11897, Note_on_c, 0, 65, 0
2, 11898, Note_on_c, 0, 68, 82
2, 11979, Note_on_c, 0, 65, 72
2, 11991, Note_on_c, 0, 68, 0
2, 12036, Note_on_c, 0, 65, 0
2, 12052, Note_on_c, 0, 62, 69
2, 12097, Note_on_c, 0, 62, 0
2, 12127, Note_on_c, 0, 65, 76
2, 12128, Note_on_c, 0, 56, 70
2, 12153, Note_on_c, 0, 56, 0
2, 12201, Note_on_c, 0, 65, 0
2, 12204, Note_on_c, 0, 62, 74
2, 12265, Note_on_c, 0, 62, 0
2, 12276, Note_on_c, 0, 59, 71
2, 12341, Note_on_c, 0, 59, 0
2, 12366, Note_on_c, 0, 57, 66
2, 12366, Note_on_c, 0, 60, 80
2, 12390, Note_on_c, 0, 60, 0
2, 12452, Note_on_c, 0, 57, 0
2, 12463, Note_on_c, 0, 60, 63
2, 12537, Note_on_c, 0, 60, 0
2, 12537, Note_on_c, 0, 64, 61
2, 12603, Control_c, 0, 64, 43
2, 12603, Note_on_c, 0, 64, 0
2, 12605, Note_on_c, 0, 76, 75
2, 12622, Control_c, 0, 64, 63
2, 12627, Note_on_c, 0, 69, 62
2, 12638, Control_c, 0, 64, 68
2, 12652, Control_c, 0, 64, 73
2, 12668, Control_c, 0, 64, 79
2, 12682, Control_c, 0, 64, 84
2, 12696, Note_on_c, 0, 69, 0
2, 12697, Control_c, 0, 64, 88
2, 12710, Note_on_c, 0, 64, 58
2, 12713, Control_c, 0, 64, 91
2, 12728, Control_c, 0, 64, 93
2, 12743, Control_c, 0, 64, 95
2, 12759, Control_c, 0, 64, 96
2, 12774, Note_on_c, 0, 76, 0
2, 12776, Note_on_c, 0, 64, 0
2, 12780, Note_on_c, 0, 60, 68
2, 12804, Control_c, 0, 64, 94
2, 12819, Control_c, 0, 64, 86
2, 12832, Note_on_c, 0, 60, 0
2, 12835, Control_c, 0, 64, 74
2, 12850, Control_c, 0, 64, 52
2, 12858, Note_on_c, 0, 72, 79
2, 12864, Control_c, 0, 64, 0
2, 12883, Note_on_c, 0, 64, 61
2, 12895, Control_c, 0, 64, 62
2, 12910, Control_c, 0, 64, 73
2, 12925, Control_c, 0, 64, 86
2, 12940, Control_c, 0, 64, 100
2, 12942, Note_on_c, 0, 64, 0
2, 12946, Note_on_c, 0, 60, 73
2, 12956, Control_c, 0, 64, 112
2, 12971, Control_c, 0, 64, 121
2, 12986, Control_c, 0, 64, 123
2, 13001, Note_on_c, 0, 72, 0
2, 13010, Note_on_c, 0, 60, 0
2, 13024, Note_on_c, 0, 57, 69
2, 13061, Control_c, 0, 64, 115
2, 13078, Control_c, 0, 64, 97
2, 13082, Note_on_c, 0, 57, 0
2, 13093, Control_c, 0, 64, 80
2, 13111, Note_on_c, 0, 69, 87
2, 13117, Control_c, 0, 64, 58
2, 13126, Note_on_c, 0, 60, 74
2, 13132, Control_c, 0, 64, 0
2, 13177, Control_c, 0, 64, 62
2, 13182, Note_on_c, 0, 60, 0
2, 13193, Control_c, 0, 64, 80
2, 13194, Note_on_c, 0, 57, 79
2, 13208, Control_c, 0, 64, 98
2, 13222, Control_c, 0, 64, 122
2, 13230, Note_on_c, 0, 69, 0
2, 13238, Control_c, 0, 64, 127
2, 13245, Note_on_c, 0, 57, 0
2, 13267, Note_on_c, 0, 52, 70
2, 13329, Control_c, 0, 64, 104
2, 13343, Control_c, 0, 64, 83
2, 13354, Note_on_c, 0, 64, 83
2, 13359, Control_c, 0, 64, 59
2, 13359, Note_on_c, 0, 52, 0
2, 13370, Note_on_c, 0, 48, 74
2, 13374, Control_c, 0, 64, 0
2, 13419, Control_c, 0, 64, 70
2, 13431, Note_on_c, 0, 48, 0
2, 13435, Control_c, 0, 64, 88
2, 13435, Note_on_c, 0, 52, 65
2, 13450, Control_c, 0, 64, 127
2, 13478, Note_on_c, 0, 64, 0
2, 13522, Note_on_c, 0, 52, 0
2, 13529, Note_on_c, 0, 57, 72
2, 13572, Control_c, 0, 64, 93
2, 13588, Control_c, 0, 64, 66
2, 13595, Note_on_c, 0, 57, 0
2, 13603, Control_c, 0, 64, 0
2, 13605, Note_on_c, 0, 76, 92
2, 13618, Note_on_c, 0, 60, 70
2, 13663, Control_c, 0, 64, 67
2, 13679, Control_c, 0, 64, 94
2, 13690, Note_on_c, 0, 60, 0
2, 13691, Note_on_c, 0, 57, 76
2, 13693, Control_c, 0, 64, 127
2, 13734, Note_on_c, 0, 76, 0
2, 13736, Note_on_c, 0, 57, 0
2, 13777, Note_on_c, 0, 52, 61
2, 13783, Note_on_c, 0, 53, 57
2, 13810, Note_on_c, 0, 53, 0
2, 13815, Control_c, 0, 64, 100
2, 13815, Note_on_c, 0, 52, 0
2, 13830, Control_c, 0, 64, 68
2, 13845, Control_c, 0, 64, 0
2, 13848, Note_on_c, 0, 72, 87
2, 13856, Note_on_c, 0, 57, 72
2, 13915, Control_c, 0, 64, 58
2, 13930, Control_c, 0, 64, 83
2, 13942, Note_on_c, 0, 52, 82
2, 13944, Control_c, 0, 64, 113
2, 13948, Note_on_c, 0, 57, 0
2, 13958, Note_on_c, 0, 72, 0
2, 13960, Control_c, 0, 64, 127
2, 14024, Note_on_c, 0, 52, 0
2, 14042, Note_on_c, 0, 48, 61
2, 14058, Note_on_c, 0, 50, 48
2, 14067, Control_c, 0, 64, 105
2, 14082, Control_c, 0, 64, 71
2, 14087, Note_on_c, 0, 50, 0
2, 14089, Note_on_c, 0, 48, 0
2, 14097, Control_c, 0, 64, 0
2, 14099, Note_on_c, 0, 69, 93
2, 14125, Note_on_c, 0, 52, 81
2, 14150, Note_on_c, 0, 69, 0
2, 14158, Control_c, 0, 64, 77
2, 14173, Control_c, 0, 64, 120
2, 14188, Control_c, 0, 64, 127
2, 14189, Note_on_c, 0, 48, 84
2, 14194, Note_on_c, 0, 52, 0
2, 14245, Note_on_c, 0, 45, 83
2, 14251, Note_on_c, 0, 48, 0
2, 14321, Note_on_c, 0, 45, 0
2, 14339, Control_c, 0, 64, 108
2, 14339, Note_on_c, 0, 42, 87
2, 14341, Note_on_c, 0, 75, 92
2, 14355, Control_c, 0, 64, 71
2, 14370, Control_c, 0, 64, 0
2, 14401, Note_on_c, 0, 42, 0
2, 14428, Note_on_c, 0, 78, 89
2, 14443, Note_on_c, 0, 75, 0
2, 14498, Note_on_c, 0, 78, 0
2, 14504, Note_on_c, 0, 81, 81
2, 14600, Note_on_c, 0, 84, 84
2, 14602, Note_on_c, 0, 81, 0
2, 14605, Note_on_c, 0, 54, 87
2, 14670, Note_on_c, 0, 54, 0
2, 14684, Note_on_c, 0, 81, 87
2, 14707, Note_on_c, 0, 84, 0
2, 14768, Note_on_c, 0, 78, 86
2, 14773, Note_on_c, 0, 81, 0
2, 14842, Note_on_c, 0, 81, 89
2, 14844, Note_on_c, 0, 78, 0
2, 14924, Note_on_c, 0, 78, 86
2, 14930, Note_on_c, 0, 81, 0
2, 14976, Note_on_c, 0, 78, 0
2, 14999, Note_on_c, 0, 75, 77
2, 15030, Note_on_c, 0, 75, 0
2, 15070, Note_on_c, 0, 52, 89
2, 15079, Note_on_c, 0, 78, 97
2, 15156, Note_on_c, 0, 75, 69
2, 15193, Note_on_c, 0, 76, 49
2, 15201, Note_on_c, 0, 75, 0
2, 15201, Note_on_c, 0, 75, 34
2, 15223, Note_on_c, 0, 76, 0
2, 15237, Note_on_c, 0, 78, 0
2, 15241, Note_on_c, 0, 71, 70
2, 15247, Note_on_c, 0, 72, 57
2, 15247, Note_on_c, 0, 75, 0
2, 15266, Note_on_c, 0, 72, 0
2, 15312, Note_on_c, 0, 71, 0
2, 15318, Note_on_c, 0, 51, 86
2, 15323, Note_on_c, 0, 69, 84
2, 15326, Note_on_c, 0, 52, 0
2, 15360, Note_on_c, 0, 51, 0
2, 15391, Note_on_c, 0, 69, 0
2, 15395, Note_on_c, 0, 72, 80
2, 15489, Note_on_c, 0, 75, 81
2, 15501, Note_on_c, 0, 72, 0
2, 15564, Note_on_c, 0, 78, 93
2, 15565, Note_on_c, 0, 39, 78
2, 15570, Note_on_c, 0, 75, 0
2, 15603, Note_on_c, 0, 39, 0
2, 15647, Note_on_c, 0, 75, 76
2, 15677, Note_on_c, 0, 78, 0
2, 15717, Note_on_c, 0, 72, 77
2, 15723, Note_on_c, 0, 75, 0
2, 15796, Note_on_c, 0, 75, 77
2, 15797, Note_on_c, 0, 72, 0
2, 15874, Note_on_c, 0, 72, 76
2, 15880, Note_on_c, 0, 75, 0
2, 15925, Note_on_c, 0, 72, 0
2, 15956, Note_on_c, 0, 69, 73
2, 15993, Note_on_c, 0, 69, 0
2, 16031, Note_on_c, 0, 72, 87
2, 16037, Note_on_c, 0, 51, 70
2, 16066, Note_on_c, 0, 51, 0
2, 16114, Note_on_c, 0, 72, 0
2, 16117, Note_on_c, 0, 69, 75
2, 16163, Note_on_c, 0, 69, 0
2, 16192, Note_on_c, 0, 66, 75
2, 16268, Note_on_c, 0, 66, 0
2, 16276, Note_on_c, 0, 67, 79
2, 16292, Note_on_c, 0, 52, 53
2, 16295, Note_on_c, 0, 50, 32
2, 16316, Note_on_c, 0, 52, 0
2, 16332, Note_on_c, 0, 50, 0
2, 16387, Note_on_c, 0, 63, 67
2, 16442, Note_on_c, 0, 63, 0
2, 16491, Note_on_c, 0, 64, 44
2, 16516, Note_on_c, 0, 64, 0
2, 16521, Note_on_c, 0, 67, 0
2, 16531, Note_on_c, 0, 69, 76
2, 16546, Note_on_c, 0, 54, 61
2, 16612, Note_on_c, 0, 63, 67
2, 16617, Note_on_c, 0, 54, 0
2, 16683, Note_on_c, 0, 63, 0
2, 16684, Note_on_c, 0, 64, 48
2, 16766, Note_on_c, 0, 64, 0
2, 16782, Note_on_c, 0, 71, 74
2, 16787, Note_on_c, 0, 55, 64
2, 16851, Note_on_c, 0, 69, 0
2, 16863, Note_on_c, 0, 63, 60
2, 16874, Note_on_c, 0, 55, 0
2, 16947, Note_on_c, 0, 63, 0
2, 16947, Note_on_c, 0, 64, 56
2, 17024, Note_on_c, 0, 64, 0
2, 17037, Note_on_c, 0, 57, 64
2, 17037, Note_on_c, 0, 72, 80
2, 17060, Note_on_c, 0, 71, 0
2, 17122, Note_on_c, 0, 57, 0
2, 17140, Note_on_c, 0, 63, 53
2, 17182, Note_on_c, 0, 64, 61
2, 17187, Note_on_c, 0, 63, 0
2, 17267, Note_on_c, 0, 64, 0
2, 17289, Note_on_c, 0, 71, 75
2, 17297, Note_on_c, 0, 55, 68
2, 17309, Note_on_c, 0, 72, 0
2, 17372, Note_on_c, 0, 55, 0
2, 17382, Note_on_c, 0, 63, 73
2, 17441, Note_on_c, 0, 63, 0
2, 17468, Note_on_c, 0, 64, 60
2, 17526, Note_on_c, 0, 64, 0
2, 17547, Note_on_c, 0, 69, 77
2, 17550, Note_on_c, 0, 71, 0
2, 17558, Note_on_c, 0, 54, 68
2, 17627, Note_on_c, 0, 63, 72
2, 17638, Note_on_c, 0, 54, 0
2, 17682, Note_on_c, 0, 63, 0
2, 17730, Note_on_c, 0, 64, 61
2, 17783, Note_on_c, 0, 64, 0
2, 17796, Note_on_c, 0, 67, 76
2, 17817, Note_on_c, 0, 52, 76
2, 17835, Note_on_c, 0, 69, 0
2, 17850, Note_on_c, 0, 52, 0
2, 17899, Note_on_c, 0, 63, 75
2, 17974, Note_on_c, 0, 63, 0
2, 17991, Note_on_c, 0, 64, 50
2, 18025, Note_on_c, 0, 64, 0
2, 18040, Control_c, 0, 64, 55
2, 18044, Note_on_c, 0, 67, 0
2, 18047, Note_on_c, 0, 71, 73
2, 18052, Note_on_c, 0, 55, 66
2, 18054, Control_c, 0, 64, 69
2, 18069, Control_c, 0, 64, 78
2, 18085, Control_c, 0, 64, 90
2, 18100, Control_c, 0, 64, 97
2, 18105, Note_on_c, 0, 63, 61
2, 18115, Control_c, 0, 64, 102
2, 18130, Control_c, 0, 64, 106
2, 18132, Note_on_c, 0, 55, 0
2, 18141, Note_on_c, 0, 63, 0
2, 18145, Control_c, 0, 64, 108
2, 18161, Control_c, 0, 64, 110
2, 18169, Note_on_c, 0, 64, 67
2, 18176, Control_c, 0, 64, 110
2, 18191, Control_c, 0, 64, 111
2, 18197, Note_on_c, 0, 64, 0
2, 18206, Control_c, 0, 64, 111
2, 18252, Control_c, 0, 64, 111
2, 18285, Note_on_c, 0, 49, 77
2, 18297, Control_c, 0, 64, 109
2, 18298, Note_on_c, 0, 69, 66
2, 18312, Control_c, 0, 64, 103
2, 18322, Note_on_c, 0, 71, 0
2, 18328, Control_c, 0, 64, 92
2, 18343, Control_c, 0, 64, 78
2, 18358, Control_c, 0, 64, 54
2, 18373, Note_on_c, 0, 69, 0
2, 18374, Control_c, 0, 64, 0
2, 18391, Note_on_c, 0, 68, 62
2, 18457, Note_on_c, 0, 68, 0
2, 18481, Note_on_c, 0, 69, 62
2, 18542, Note_on_c, 0, 49, 0
2, 18547, Note_on_c, 0, 50, 76
2, 18555, Note_on_c, 0, 71, 67
2, 18577, Note_on_c, 0, 69, 0
2, 18627, Note_on_c, 0, 68, 65
2, 18627, Note_on_c, 0, 71, 0
2, 18718, Note_on_c, 0, 68, 0
2, 18722, Note_on_c, 0, 69, 68
2, 18796, Note_on_c, 0, 52, 77
2, 18808, Note_on_c, 0, 73, 76
2, 18818, Note_on_c, 0, 50, 0
2, 18830, Note_on_c, 0, 69, 0
2, 18869, Note_on_c, 0, 73, 0
2, 18882, Note_on_c, 0, 68, 75
2, 18967, Note_on_c, 0, 69, 69
2, 18975, Note_on_c, 0, 68, 0
2, 19043, Note_on_c, 0, 54, 79
2, 19043, Note_on_c, 0, 74, 80
2, 19047, Note_on_c, 0, 52, 0
2, 19063, Note_on_c, 0, 69, 0
2, 19120, Note_on_c, 0, 74, 0
2, 19122, Note_on_c, 0, 68, 76
2, 19204, Note_on_c, 0, 69, 72
2, 19272, Note_on_c, 0, 68, 0
2, 19298, Note_on_c, 0, 76, 83
2, 19300, Note_on_c, 0, 49, 74
2, 19309, Note_on_c, 0, 69, 0
2, 19325, Note_on_c, 0, 54, 0
2, 19382, Note_on_c, 0, 68, 85
2, 19384, Note_on_c, 0, 76, 0
2, 19464, Note_on_c, 0, 69, 76
2, 19465, Note_on_c, 0, 68, 0
2, 19539, Note_on_c, 0, 78, 93
2, 19543, Note_on_c, 0, 47, 75
2, 19551, Note_on_c, 0, 69, 0
2, 19560, Note_on_c, 0, 49, 0
2, 19608, Note_on_c, 0, 68, 84
2, 19631, Note_on_c, 0, 78, 0
2, 19676, Note_on_c, 0, 68, 0
2, 19688, Note_on_c, 0, 69, 77
2, 19755, Note_on_c, 0, 69, 0
2, 19776, Note_on_c, 0, 47, 0
2, 19785, Note_on_c, 0, 79, 88
2, 19798, Note_on_c, 0, 45, 70
2, 19870, Note_on_c, 0, 76, 78
2, 19883, Note_on_c, 0, 79, 0
2, 19943, Note_on_c, 0, 73, 81
2, 19961, Note_on_c, 0, 76, 0
2, 19970, Control_c, 0, 64, 57
2, 19985, Control_c, 0, 64, 67
2, 20001, Control_c, 0, 64, 74
2, 20023, Control_c, 0, 64, 81
2, 20023, Note_on_c, 0, 73, 0
2, 20030, Note_on_c, 0, 49, 75
2, 20030, Note_on_c, 0, 69, 76
2, 20038, Control_c, 0, 64, 85
2, 20040, Note_on_c, 0, 45, 0
2, 20054, Control_c, 0, 64, 88
2, 20065, Note_on_c, 0, 49, 0
2, 20068, Control_c, 0, 64, 88
2, 20084, Control_c, 0, 64, 89
2, 20110, Note_on_c, 0, 73, 83
2, 20112, Note_on_c, 0, 69, 0
2, 20187, Note_on_c, 0, 76, 73
2, 20205, Note_on_c, 0, 73, 0
2, 20206, Control_c, 0, 64, 88
2, 20220, Control_c, 0, 64, 86
2, 20235, Control_c, 0, 64, 79
2, 20251, Control_c, 0, 64, 58
2, 20266, Control_c, 0, 64, 0
2, 20282, Note_on_c, 0, 50, 73
2, 20282, Note_on_c, 0, 78, 83
2, 20313, Note_on_c, 0, 76, 0
2, 20361, Note_on_c, 0, 50, 0
2, 20364, Note_on_c, 0, 54, 67
2, 20443, Note_on_c, 0, 57, 74
2, 20448, Note_on_c, 0, 54, 0
2, 20477, Note_on_c, 0, 78, 0
2, 20502, Note_on_c, 0, 57, 0
2, 20523, Note_on_c, 0, 62, 69
2, 20582, Note_on_c, 0, 62, 0
2, 20592, Note_on_c, 0, 57, 59
2, 20660, Note_on_c, 0, 54, 69
2, 20663, Note_on_c, 0, 57, 0
2, 20753, Note_on_c, 0, 54, 0
2, 20760, Note_on_c, 0, 50, 73
2, 20762, Note_on_c, 0, 81, 93
2, 20807, Note_on_c, 0, 50, 0
2, 20847, Note_on_c, 0, 78, 81
2, 20872, Note_on_c, 0, 81, 0
2, 20923, Note_on_c, 0, 74, 77
2, 20948, Note_on_c, 0, 78, 0
2, 20992, Note_on_c, 0, 74, 0
2, 20994, Note_on_c, 0, 72, 81
2, 21008, Note_on_c, 0, 62, 80
2, 21051, Note_on_c, 0, 62, 0
2, 21069, Note_on_c, 0, 74, 83
2, 21082, Note_on_c, 0, 72, 0
2, 21144, Note_on_c, 0, 78, 87
2, 21166, Note_on_c, 0, 74, 0
2, 21233, Note_on_c, 0, 81, 92
2, 21249, Note_on_c, 0, 50, 74
2, 21251, Note_on_c, 0, 78, 0
2, 21321, Note_on_c, 0, 50, 0
2, 21333, Note_on_c, 0, 55, 71
2, 21348, Note_on_c, 0, 81, 0
2, 21419, Note_on_c, 0, 59, 72
2, 21421, Note_on_c, 0, 55, 0
2, 21476, Note_on_c, 0, 59, 0
2, 21486, Note_on_c, 0, 79, 88
2, 21492, Note_on_c, 0, 62, 74
2, 21543, Note_on_c, 0, 79, 0
2, 21569, Note_on_c, 0, 62, 0
2, 21575, Note_on_c, 0, 59, 70
2, 21645, Note_on_c, 0, 59, 0
2, 21651, Note_on_c, 0, 55, 71
2, 21724, Note_on_c, 0, 55, 0
2, 21738, Note_on_c, 0, 79, 93
2, 21740, Note_on_c, 0, 50, 81
2, 21777, Note_on_c, 0, 50, 0
2, 21813, Note_on_c, 0, 76, 81
2, 21813, Note_on_c, 0, 79, 0
2, 21896, Note_on_c, 0, 73, 79
2, 21913, Note_on_c, 0, 76, 0
2, 21964, Note_on_c, 0, 73, 0
2, 21966, Note_on_c, 0, 69, 83
2, 21983, Note_on_c, 0, 62, 79
2, 22036, Note_on_c, 0, 62, 0
2, 22047, Note_on_c, 0, 73, 89
2, 22066, Note_on_c, 0, 69, 0
2, 22131, Note_on_c, 0, 73, 0
2, 22131, Note_on_c, 0, 76, 81
2, 22209, Note_on_c, 0, 79, 89
2, 22219, Note_on_c, 0, 50, 80
2, 22224, Note_on_c, 0, 76, 0
2, 22284, Note_on_c, 0, 50, 0
2, 22295, Note_on_c, 0, 57, 74
2, 22302, Note_on_c, 0, 79, 0
2, 22379, Note_on_c, 0, 61, 76
2, 22391, Note_on_c, 0, 57, 0
2, 22438, Note_on_c, 0, 61, 0
2, 22458, Note_on_c, 0, 62, 78
2, 22467, Note_on_c, 0, 78, 87
2, 22519, Note_on_c, 0, 62, 0
2, 22524, Note_on_c, 0, 78, 0
2, 22536, Note_on_c, 0, 57, 75
2, 22616, Note_on_c, 0, 57, 0
2, 22624, Note_on_c, 0, 54, 73
2, 22704, Note_on_c, 0, 54, 0
2, 22711, Note_on_c, 0, 78, 88
2, 22714, Note_on_c, 0, 50, 77
2, 22747, Note_on_c, 0, 50, 0
2, 22794, Note_on_c, 0, 74, 71
2, 22815, Note_on_c, 0, 78, 0
2, 22887, Note_on_c, 0, 71, 67
2, 22898, Note_on_c, 0, 74, 0
2, 22957, Note_on_c, 0, 67, 73
2, 22958, Note_on_c, 0, 71, 0
2, 22965, Note_on_c, 0, 62, 68
2, 22997, Note_on_c, 0, 62, 0
2, 23017, Note_on_c, 0, 67, 0
2, 23031, Note_on_c, 0, 71, 68
2, 23125, Note_on_c, 0, 71, 0
2, 23127, Note_on_c, 0, 74, 68
2, 23215, Note_on_c, 0, 78, 75
2, 23220, Note_on_c, 0, 50, 62
2, 23220, Note_on_c, 0, 74, 0
2, 23281, Note_on_c, 0, 50, 0
2, 23281, Note_on_c, 0, 52, 65
2, 23309, Note_on_c, 0, 78, 0
2, 23368, Note_on_c, 0, 52, 0
2, 23382, Note_on_c, 0, 55, 63
2, 23430, Note_on_c, 0, 55, 0
2, 23453, Note_on_c, 0, 76, 76
2, 23471, Note_on_c, 0, 59, 58
2, 23509, Note_on_c, 0, 76, 0
2, 23512, Note_on_c, 0, 59, 0
2, 23541, Note_on_c, 0, 55, 63
2, 23579, Note_on_c, 0, 55, 0
2, 23615, Note_on_c, 0, 52, 61
2, 23683, Note_on_c, 0, 52, 0
2, 23692, Note_on_c, 0, 76, 77
2, 23696, Note_on_c, 0, 50, 67
2, 23722, Note_on_c, 0, 50, 0
2, 23761, Note_on_c, 0, 76, 0
2, 23768, Note_on_c, 0, 73, 74
2, 23865, Note_on_c, 0, 73, 0
2, 23867, Note_on_c, 0, 69, 66
2, 23914, Note_on_c, 0, 69, 0
2, 23936, Note_on_c, 0, 67, 75
2, 23952, Note_on_c, 0, 62, 61
2, 23987, Note_on_c, 0, 62, 0
2, 23991, Note_on_c, 0, 67, 0
2, 24014, Note_on_c, 0, 69, 76
2, 24089, Note_on_c, 0, 69, 0
2, 24092, Note_on_c, 0, 73, 70
2, 24169, Note_on_c, 0, 76, 70
2, 24176, Note_on_c, 0, 50, 64
2, 24182, Note_on_c, 0, 73, 0
2, 24244, Note_on_c, 0, 50, 0
2, 24259, Note_on_c, 0, 54, 63
2, 24260, Note_on_c, 0, 76, 0
2, 24340, Note_on_c, 0, 54, 0
2, 24351, Note_on_c, 0, 57, 61
2, 24392, Note_on_c, 0, 57, 0
2, 24411, Note_on_c, 0, 74, 69
2, 24426, Note_on_c, 0, 62, 65
2, 24472, Note_on_c, 0, 62, 0
2, 24502, Note_on_c, 0, 57, 59
2, 24560, Note_on_c, 0, 57, 0
2, 24578, Note_on_c, 0, 54, 61
2, 24602, Note_on_c, 0, 74, 0
2, 24618, Note_on_c, 0, 54, 0
2, 24666, Note_on_c, 0, 57, 64
2, 24701, Note_on_c, 0, 57, 0
2, 24728, Note_on_c, 0, 54, 62
2, 24795, Note_on_c, 0, 54, 0
2, 24807, Note_on_c, 0, 50, 61
2, 24872, Note_on_c, 0, 50, 0
2, 24884, Note_on_c, 0, 74, 73
2, 24887, Note_on_c, 0, 54, 64
2, 24919, Control_c, 0, 64, 54
2, 24934, Control_c, 0, 64, 64
2, 24938, Note_on_c, 0, 74, 0
2, 24940, Note_on_c, 0, 54, 0
2, 24949, Control_c, 0, 64, 66
2, 24964, Control_c, 0, 64, 68
2, 24967, Note_on_c, 0, 50, 61
2, 24979, Control_c, 0, 64, 69
2, 24994, Control_c, 0, 64, 70
2, 25010, Control_c, 0, 64, 71
2, 25036, Note_on_c, 0, 50, 0
2, 25040, Control_c, 0, 64, 71
2, 25048, Note_on_c, 0, 48, 65
2, 25055, Control_c, 0, 64, 70
2, 25070, Control_c, 0, 64, 68
2, 25085, Control_c, 0, 64, 62
2, 25101, Control_c, 0, 64, 0
2, 25134, Note_on_c, 0, 47, 66
2, 25134, Note_on_c, 0, 74, 79
2, 25145, Note_on_c, 0, 48, 0
2, 25199, Note_on_c, 0, 47, 0
2, 25204, Note_on_c, 0, 72, 75
2, 25213, Note_on_c, 0, 50, 59
2, 25223, Note_on_c, 0, 74, 0
2, 25271, Note_on_c, 0, 71, 69
2, 25271, Note_on_c, 0, 72, 0
2, 25272, Note_on_c, 0, 50, 0
2, 25283, Note_on_c, 0, 54, 63
2, 25300, Note_on_c, 0, 71, 0
2, 25325, Note_on_c, 0, 54, 0
2, 25357, Note_on_c, 0, 71, 78
2, 25367, Note_on_c, 0, 55, 63
2, 25419, Note_on_c, 0, 55, 0
2, 25443, Note_on_c, 0, 69, 74
2, 25444, Note_on_c, 0, 50, 65
2, 25447, Note_on_c, 0, 71, 0
2, 25502, Note_on_c, 0, 50, 0
2, 25507, Note_on_c, 0, 69, 0
2, 25527, Note_on_c, 0, 67, 74
2, 25528, Note_on_c, 0, 47, 72
2, 25559, Note_on_c, 0, 67, 0
2, 25587, Note_on_c, 0, 47, 0
2, 25609, Note_on_c, 0, 67, 75
2, 25620, Note_on_c, 0, 50, 73
2, 25679, Note_on_c, 0, 50, 0
2, 25690, Note_on_c, 0, 67, 0
2, 25691, Note_on_c, 0, 71, 81
2, 25697, Note_on_c, 0, 47, 70
2, 25740, Note_on_c, 0, 47, 0
2, 25758, Note_on_c, 0, 43, 73
2, 25764, Note_on_c, 0, 74, 81
2, 25771, Note_on_c, 0, 71, 0
2, 25828, Note_on_c, 0, 43, 0
2, 25837, Note_on_c, 0, 74, 0
2, 25840, Note_on_c, 0, 77, 83
2, 25848, Note_on_c, 0, 47, 72
2, 25909, Note_on_c, 0, 47, 0
2, 25917, Note_on_c, 0, 76, 82
2, 25923, Note_on_c, 0, 43, 71
2, 25944, Note_on_c, 0, 77, 0
2, 25988, Note_on_c, 0, 43, 0
2, 25994, Note_on_c, 0, 74, 72
2, 25996, Note_on_c, 0, 76, 0
2, 26001, Note_on_c, 0, 41, 69
2, 26019, Note_on_c, 0, 74, 0
2, 26067, Note_on_c, 0, 40, 73
2, 26079, Note_on_c, 0, 74, 82
2, 26136, Note_on_c, 0, 41, 0
2, 26138, Note_on_c, 0, 40, 0
2, 26140, Note_on_c, 0, 43, 72
2, 26171, Note_on_c, 0, 76, 82
2, 26186, Note_on_c, 0, 74, 0
2, 26229, Note_on_c, 0, 43, 0
2, 26238, Note_on_c, 0, 47, 75
2, 26242, Note_on_c, 0, 77, 82
2, 26250, Note_on_c, 0, 76, 0
2, 26277, Note_on_c, 0, 47, 0
2, 26314, Note_on_c, 0, 48, 67
2, 26332, Note_on_c, 0, 76, 80
2, 26364, Note_on_c, 0, 48, 0
2, 26389, Note_on_c, 0, 77, 0
2, 26391, Note_on_c, 0, 52, 81
2, 26478, Note_on_c, 0, 55, 81
2, 26488, Note_on_c, 0, 52, 0
2, 26495, Note_on_c, 0, 76, 0
2, 26555, Note_on_c, 0, 55, 0
2, 26567, Note_on_c, 0, 60, 83
2, 26636, Note_on_c, 0, 60, 0
2, 26638, Note_on_c, 0, 55, 73
2, 26699, Note_on_c, 0, 55, 0
2, 26711, Note_on_c, 0, 52, 73
2, 26773, Control_c, 0, 64, 55
2, 26788, Control_c, 0, 64, 69
2, 26790, Note_on_c, 0, 76, 87
2, 26797, Note_on_c, 0, 52, 0
2, 26802, Control_c, 0, 64, 77
2, 26808, Note_on_c, 0, 55, 77
2, 26818, Control_c, 0, 64, 87
2, 26833, Control_c, 0, 64, 91
2, 26834, Note_on_c, 0, 76, 0
2, 26849, Control_c, 0, 64, 93
2, 26864, Control_c, 0, 64, 94
2, 26871, Note_on_c, 0, 55, 0
2, 26878, Control_c, 0, 64, 94
2, 26879, Note_on_c, 0, 52, 68
2, 26961, Note_on_c, 0, 50, 67
2, 26981, Note_on_c, 0, 52, 0
2, 27009, Control_c, 0, 64, 94
2, 27024, Control_c, 0, 64, 88
2, 27039, Control_c, 0, 64, 75
2, 27049, Note_on_c, 0, 49, 78
2, 27051, Note_on_c, 0, 50, 0
2, 27052, Note_on_c, 0, 76, 90
2, 27055, Control_c, 0, 64, 0
2, 27118, Note_on_c, 0, 52, 60
2, 27121, Note_on_c, 0, 74, 85
2, 27134, Note_on_c, 0, 49, 0
2, 27160, Note_on_c, 0, 76, 0
2, 27198, Note_on_c, 0, 52, 0
2, 27199, Note_on_c, 0, 55, 66
2, 27201, Note_on_c, 0, 74, 0
2, 27204, Note_on_c, 0, 73, 76
2, 27237, Note_on_c, 0, 73, 0
2, 27251, Note_on_c, 0, 55, 0
2, 27283, Note_on_c, 0, 73, 80
2, 27284, Note_on_c, 0, 57, 70
2, 27355, Note_on_c, 0, 57, 0
2, 27362, Note_on_c, 0, 52, 72
2, 27367, Note_on_c, 0, 71, 82
2, 27387, Note_on_c, 0, 73, 0
2, 27435, Note_on_c, 0, 52, 0
2, 27436, Note_on_c, 0, 71, 0
2, 27445, Note_on_c, 0, 69, 77
2, 27448, Note_on_c, 0, 49, 68
2, 27479, Note_on_c, 0, 69, 0
2, 27512, Note_on_c, 0, 49, 0
2, 27527, Note_on_c, 0, 69, 84
2, 27536, Note_on_c, 0, 52, 77
2, 27591, Note_on_c, 0, 52, 0
2, 27605, Note_on_c, 0, 73, 87
2, 27608, Note_on_c, 0, 49, 75
2, 27629, Note_on_c, 0, 69, 0
2, 27671, Note_on_c, 0, 49, 0
2, 27673, Note_on_c, 0, 45, 73
2, 27684, Note_on_c, 0, 76, 85
2, 27705, Note_on_c, 0, 73, 0
2, 27762, Note_on_c, 0, 45, 0
2, 27770, Note_on_c, 0, 79, 85
2, 27773, Note_on_c, 0, 49, 81
2, 27773, Note_on_c, 0, 76, 0
2, 27843, Note_on_c, 0, 45, 74
2, 27845, Note_on_c, 0, 49, 0
2, 27852, Note_on_c, 0, 78, 88
2, 27901, Note_on_c, 0, 79, 0
2, 27913, Note_on_c, 0, 43, 67
2, 27915, Note_on_c, 0, 45, 0
2, 27925, Note_on_c, 0, 76, 82
2, 27944, Note_on_c, 0, 78, 0
2, 27964, Note_on_c, 0, 76, 0
2, 27992, Note_on_c, 0, 43, 0
2, 27994, Note_on_c, 0, 42, 84
2, 28009, Note_on_c, 0, 76, 88
2, 28066, Note_on_c, 0, 45, 68
2, 28089, Note_on_c, 0, 78, 87
2, 28099, Note_on_c, 0, 42, 0
2, 28113, Note_on_c, 0, 76, 0
2, 28149, Note_on_c, 0, 49, 73
2, 28153, Note_on_c, 0, 45, 0
2, 28167, Note_on_c, 0, 78, 0
2, 28167, Note_on_c, 0, 79, 82
2, 28210, Note_on_c, 0, 49, 0
2, 28226, Note_on_c, 0, 50, 69
2, 28244, Note_on_c, 0, 78, 90
2, 28263, Note_on_c, 0, 79, 0
2, 28301, Note_on_c, 0, 50, 0
2, 28309, Note_on_c, 0, 54, 80
2, 28378, Note_on_c, 0, 78, 0
2, 28388, Note_on_c, 0, 57, 84
2, 28404, Note_on_c, 0, 54, 0
2, 28485, Note_on_c, 0, 62, 92
2, 28487, Note_on_c, 0, 57, 0
2, 28562, Note_on_c, 0, 57, 84
2, 28564, Note_on_c, 0, 62, 0
2, 28628, Note_on_c, 0, 54, 82
2, 28629, Note_on_c, 0, 57, 0
2, 28712, Control_c, 0, 64, 51
2, 28717, Note_on_c, 0, 54, 0
2, 28727, Control_c, 0, 64, 69
2, 28728, Note_on_c, 0, 81, 105
2, 28733, Note_on_c, 0, 57, 84
2, 28742, Control_c, 0, 64, 79
2, 28757, Control_c, 0, 64, 90
2, 28770, Note_on_c, 0, 81, 0
2, 28773, Control_c, 0, 64, 95
2, 28788, Control_c, 0, 64, 99
2, 28794, Note_on_c, 0, 57, 0
2, 28800, Note_on_c, 0, 54, 79
2, 28803, Control_c, 0, 64, 102
2, 28819, Control_c, 0, 64, 105
2, 28833, Control_c, 0, 64, 108
2, 28849, Control_c, 0, 64, 111
2, 28864, Control_c, 0, 64, 112
2, 28865, Note_on_c, 0, 54, 0
2, 28876, Note_on_c, 0, 50, 82
2, 28879, Control_c, 0, 64, 113
2, 28924, Control_c, 0, 64, 113
2, 28953, Note_on_c, 0, 50, 0
2, 28965, Note_on_c, 0, 54, 84
2, 28974, Note_on_c, 0, 81, 99
2, 28986, Control_c, 0, 64, 111
2, 29000, Control_c, 0, 64, 105
2, 29016, Control_c, 0, 64, 92
2, 29027, Note_on_c, 0, 54, 0
2, 29031, Control_c, 0, 64, 71
2, 29047, Control_c, 0, 64, 0
2, 29051, Note_on_c, 0, 79, 87
2, 29053, Note_on_c, 0, 50, 79
2, 29087, Note_on_c, 0, 81, 0
2, 29127, Note_on_c, 0, 50, 0
2, 29128, Note_on_c, 0, 78, 86
2, 29131, Note_on_c, 0, 45, 73
2, 29131, Note_on_c, 0, 79, 0
2, 29160, Note_on_c, 0, 78, 0
2, 29182, Note_on_c, 0, 45, 0
2, 29204, Note_on_c, 0, 50, 80
2, 29213, Note_on_c, 0, 78, 87
2, 29289, Note_on_c, 0, 50, 0
2, 29294, Note_on_c, 0, 76, 83
2, 29296, Note_on_c, 0, 45, 79
2, 29311, Note_on_c, 0, 78, 0
2, 29375, Note_on_c, 0, 76, 0
2, 29377, Note_on_c, 0, 74, 71
2, 29382, Note_on_c, 0, 42, 80
2, 29385, Note_on_c, 0, 45, 0
2, 29415, Note_on_c, 0, 74, 0
2, 29452, Note_on_c, 0, 38, 90
2, 29460, Note_on_c, 0, 74, 77
2, 29465, Note_on_c, 0, 42, 0
2, 29523, Note_on_c, 0, 38, 0
2, 29549, Note_on_c, 0, 78, 94
2, 29577, Note_on_c, 0, 74, 0
2, 29633, Note_on_c, 0, 81, 91
2, 29648, Note_on_c, 0, 78, 0
2, 29708, Note_on_c, 0, 50, 93
2, 29717, Note_on_c, 0, 84, 89
2, 29723, Control_c, 0, 64, 60
2, 29727, Note_on_c, 0, 81, 0
2, 29739, Control_c, 0, 64, 68
2, 29754, Control_c, 0, 64, 75
2, 29756, Note_on_c, 0, 50, 0
2, 29769, Control_c, 0, 64, 83
2, 29784, Control_c, 0, 64, 86
2, 29799, Control_c, 0, 64, 87
2, 29804, Note_on_c, 0, 83, 87
2, 29815, Control_c, 0, 64, 87
2, 29830, Control_c, 0, 64, 88
2, 29837, Note_on_c, 0, 84, 0
2, 29860, Control_c, 0, 64, 88
2, 29882, Note_on_c, 0, 81, 88
2, 29899, Note_on_c, 0, 83, 0
2, 29927, Note_on_c, 0, 81, 0
2, 29951, Control_c, 0, 64, 88
2, 29965, Control_c, 0, 64, 87
2, 29974, Note_on_c, 0, 43, 98
2, 29981, Control_c, 0, 64, 82
2, 29998, Note_on_c, 0, 81, 90
2, 30004, Control_c, 0, 64, 73
2, 30020, Control_c, 0, 64, 35
2, 30035, Control_c, 0, 64, 0
2, 30094, Note_on_c, 0, 83, 83
2, 30111, Note_on_c, 0, 81, 0
2, 30185, Note_on_c, 0, 84, 89
2, 30191, Note_on_c, 0, 83, 0
2, 30267, Note_on_c, 0, 83, 88
2, 30298, Note_on_c, 0, 84, 0
2, 30365, Note_on_c, 0, 47, 82
2, 30369, Note_on_c, 0, 43, 0
2, 30454, Note_on_c, 0, 47, 0
2, 30454, Note_on_c, 0, 50, 79
2, 30515, Note_on_c, 0, 50, 0
2, 30530, Note_on_c, 0, 55, 74
2, 30593, Note_on_c, 0, 81, 81
2, 30598, Note_on_c, 0, 83, 0
2, 30617, Note_on_c, 0, 55, 0
2, 30619, Note_on_c, 0, 57, 79
2, 30653, Note_on_c, 0, 81, 0
2, 30672, Note_on_c, 0, 79, 75
2, 30690, Note_on_c, 0, 57, 0
2, 30696, Note_on_c, 0, 59, 77
2, 30715, Note_on_c, 0, 79, 0
2, 30719, Note_on_c, 0, 59, 0
2, 30755, Note_on_c, 0, 77, 88
2, 30779, Note_on_c, 0, 59, 88
2, 30840, Note_on_c, 0, 76, 77
2, 30849, Note_on_c, 0, 60, 76
2, 30879, Note_on_c, 0, 59, 0
2, 30879, Note_on_c, 0, 77, 0
2, 30921, Note_on_c, 0, 62, 88
2, 30921, Note_on_c, 0, 74, 79
2, 30924, Note_on_c, 0, 60, 0
2, 30930, Note_on_c, 0, 76, 0
2, 30986, Note_on_c, 0, 62, 0
2, 30989, Note_on_c, 0, 74, 0
2, 31007, Note_on_c, 0, 72, 84
2, 31011, Note_on_c, 0, 64, 88
2, 31083, Note_on_c, 0, 72, 0
2, 31093, Note_on_c, 0, 76, 86
2, 31170, Note_on_c, 0, 64, 0
2, 31170, Note_on_c, 0, 76, 0
2, 31177, Note_on_c, 0, 79, 76
2, 31261, Note_on_c, 0, 81, 85
2, 31271, Note_on_c, 0, 60, 78
2, 31271, Note_on_c, 0, 79, 0
2, 31332, Note_on_c, 0, 57, 74
2, 31342, Note_on_c, 0, 78, 80
2, 31345, Note_on_c, 0, 60, 0
2, 31363, Note_on_c, 0, 81, 0
2, 31412, Note_on_c, 0, 57, 0
2, 31414, Note_on_c, 0, 54, 77
2, 31429, Note_on_c, 0, 74, 78
2, 31441, Note_on_c, 0, 78, 0
2, 31498, Note_on_c, 0, 74, 0
2, 31502, Note_on_c, 0, 54, 0
2, 31506, Note_on_c, 0, 62, 90
2, 31512, Note_on_c, 0, 71, 77
2, 31594, Note_on_c, 0, 71, 0
2, 31597, Note_on_c, 0, 74, 86
2, 31638, Note_on_c, 0, 62, 0
2, 31681, Note_on_c, 0, 74, 0
2, 31682, Note_on_c, 0, 78, 82
2, 31764, Note_on_c, 0, 79, 79
2, 31775, Note_on_c, 0, 59, 79
2, 31784, Note_on_c, 0, 78, 0
2, 31842, Note_on_c, 0, 55, 74
2, 31847, Note_on_c, 0, 59, 0
2, 31847, Note_on_c, 0, 76, 85
2, 31855, Note_on_c, 0, 79, 0
2, 31918, Note_on_c, 0, 55, 0
2, 31927, Note_on_c, 0, 52, 71
2, 31931, Note_on_c, 0, 72, 80
2, 31943, Note_on_c, 0, 76, 0
2, 31992, Note_on_c, 0, 72, 0
2, 32015, Note_on_c, 0, 60, 85
2, 32015, Note_on_c, 0, 69, 82
2, 32026, Note_on_c, 0, 52, 0
2, 32080, Note_on_c, 0, 69, 0
2, 32091, Note_on_c, 0, 72, 84
2, 32127, Note_on_c, 0, 60, 0
2, 32170, Note_on_c, 0, 72, 0
2, 32177, Note_on_c, 0, 76, 74
2, 32252, Note_on_c, 0, 78, 81
2, 32270, Note_on_c, 0, 57, 72
2, 32273, Note_on_c, 0, 76, 0
2, 32339, Note_on_c, 0, 74, 77
2, 32343, Note_on_c, 0, 78, 0
2, 32353, Note_on_c, 0, 54, 75
2, 32355, Note_on_c, 0, 57, 0
2, 32429, Note_on_c, 0, 54, 0
2, 32429, Note_on_c, 0, 71, 74
2, 32433, Note_on_c, 0, 50, 61
2, 32442, Note_on_c, 0, 74, 0
2, 32495, Note_on_c, 0, 71, 0
2, 32510, Note_on_c, 0, 67, 81
2, 32512, Note_on_c, 0, 59, 81
2, 32533, Note_on_c, 0, 50, 0
2, 32570, Note_on_c, 0, 67, 0
2, 32597, Note_on_c, 0, 71, 75
2, 32632, Note_on_c, 0, 59, 0
2, 32659, Note_on_c, 0, 71, 0
2, 32674, Note_on_c, 0, 74, 68
2, 32764, Note_on_c, 0, 76, 73
2, 32777, Note_on_c, 0, 55, 63
2, 32778, Note_on_c, 0, 74, 0
2, 32835, Note_on_c, 0, 55, 0
2, 32840, Note_on_c, 0, 76, 0
2, 32842, Note_on_c, 0, 52, 73
2, 32844, Note_on_c, 0, 72, 73
2, 32914, Note_on_c, 0, 52, 0
2, 32934, Note_on_c, 0, 48, 65
2, 32934, Note_on_c, 0, 69, 75
2, 32937, Note_on_c, 0, 72, 0
2, 32998, Note_on_c, 0, 69, 0
2, 33014, Note_on_c, 0, 57, 67
2, 33017, Note_on_c, 0, 66, 78
2, 33022, Note_on_c, 0, 48, 0
2, 33082, Note_on_c, 0, 66, 0
2, 33108, Note_on_c, 0, 69, 72
2, 33112, Note_on_c, 0, 57, 0
2, 33185, Note_on_c, 0, 69, 0
2, 33190, Note_on_c, 0, 72, 69
2, 33274, Note_on_c, 0, 54, 62
2, 33284, Note_on_c, 0, 74, 70
2, 33289, Note_on_c, 0, 72, 0
2, 33334, Note_on_c, 0, 54, 0
2, 33354, Note_on_c, 0, 50, 65
2, 33358, Note_on_c, 0, 71, 72
2, 33360, Note_on_c, 0, 74, 0
2, 33423, Note_on_c, 0, 50, 0
2, 33435, Note_on_c, 0, 67, 71
2, 33441, Note_on_c, 0, 71, 0
2, 33451, Note_on_c, 0, 47, 66
2, 33495, Note_on_c, 0, 67, 0
2, 33521, Note_on_c, 0, 64, 73
2, 33525, Note_on_c, 0, 55, 67
2, 33541, Note_on_c, 0, 47, 0
2, 33574, Note_on_c, 0, 64, 0
2, 33603, Note_on_c, 0, 67, 74
2, 33604, Note_on_c, 0, 55, 0
2, 33670, Note_on_c, 0, 67, 0
2, 33690, Note_on_c, 0, 71, 59
2, 33753, Note_on_c, 0, 52, 69
2, 33769, Note_on_c, 0, 72, 75
2, 33780, Note_on_c, 0, 71, 0
2, 33816, Note_on_c, 0, 52, 0
2, 33828, Note_on_c, 0, 48, 69
2, 33865, Note_on_c, 0, 69, 71
2, 33868, Note_on_c, 0, 72, 0
2, 33892, Note_on_c, 0, 48, 0
2, 33913, Note_on_c, 0, 45, 63
2, 33936, Control_c, 0, 64, 48
2, 33945, Note_on_c, 0, 66, 67
2, 33951, Control_c, 0, 64, 64
2, 33957, Note_on_c, 0, 69, 0
2, 33967, Control_c, 0, 64, 70
2, 33981, Control_c, 0, 64, 78
2, 33985, Note_on_c, 0, 45, 0
2, 33996, Control_c, 0, 64, 83
2, 34000, Note_on_c, 0, 54, 82
2, 34011, Note_on_c, 0, 66, 0
2, 34012, Control_c, 0, 64, 85
2, 34026, Note_on_c, 0, 62, 76
2, 34027, Control_c, 0, 64, 87
2, 34042, Control_c, 0, 64, 87
2, 34042, Note_on_c, 0, 54, 0
2, 34057, Control_c, 0, 64, 88
2, 34087, Note_on_c, 0, 62, 0
2, 34097, Note_on_c, 0, 66, 75
2, 34178, Note_on_c, 0, 66, 0
2, 34179, Control_c, 0, 64, 82
2, 34186, Note_on_c, 0, 69, 64
2, 34194, Control_c, 0, 64, 69
2, 34210, Control_c, 0, 64, 0
2, 34252, Note_on_c, 0, 50, 82
2, 34268, Note_on_c, 0, 71, 71
2, 34279, Note_on_c, 0, 69, 0
2, 34311, Note_on_c, 0, 50, 0
2, 34328, Note_on_c, 0, 47, 69
2, 34343, Note_on_c, 0, 67, 75
2, 34351, Note_on_c, 0, 71, 0
2, 34410, Note_on_c, 0, 47, 0
2, 34419, Note_on_c, 0, 43, 64
2, 34430, Note_on_c, 0, 64, 70
2, 34441, Note_on_c, 0, 67, 0
2, 34488, Note_on_c, 0, 52, 87
2, 34496, Note_on_c, 0, 64, 0
2, 34502, Note_on_c, 0, 43, 0
2, 34503, Note_on_c, 0, 60, 75
2, 34554, Note_on_c, 0, 52, 0
2, 34557, Note_on_c, 0, 48, 77
2, 34563, Note_on_c, 0, 60, 0
2, 34570, Note_on_c, 0, 64, 73
2, 34658, Note_on_c, 0, 48, 0
2, 34664, Note_on_c, 0, 45, 70
2, 34673, Note_on_c, 0, 64, 0
2, 34676, Note_on_c, 0, 67, 66
2, 34747, Note_on_c, 0, 54, 86
2, 34756, Note_on_c, 0, 69, 81
2, 34772, Note_on_c, 0, 67, 0
2, 34783, Note_on_c, 0, 45, 0
2, 34817, Note_on_c, 0, 50, 70
2, 34836, Note_on_c, 0, 66, 76
2, 34837, Note_on_c, 0, 54, 0
2, 34857, Note_on_c, 0, 69, 0
2, 34913, Note_on_c, 0, 47, 67
2, 34931, Note_on_c, 0, 62, 72
2, 34940, Note_on_c, 0, 66, 0
2, 34949, Note_on_c, 0, 50, 0
2, 35009, Note_on_c, 0, 55, 86
2, 35018, Note_on_c, 0, 59, 75
2, 35018, Note_on_c, 0, 62, 0
2, 35025, Note_on_c, 0, 47, 0
2, 35095, Note_on_c, 0, 59, 0
2, 35100, Note_on_c, 0, 62, 77
2, 35193, Note_on_c, 0, 66, 71
2, 35209, Note_on_c, 0, 62, 0
2, 35275, Note_on_c, 0, 52, 84
2, 35275, Note_on_c, 0, 67, 82
2, 35298, Note_on_c, 0, 66, 0
2, 35305, Note_on_c, 0, 55, 0
2, 35381, Note_on_c, 0, 64, 73
2, 35407, Note_on_c, 0, 67, 0
2, 35475, Note_on_c, 0, 60, 72
2, 35505, Note_on_c, 0, 64, 0
2, 35549, Note_on_c, 0, 48, 81
2, 35565, Note_on_c, 0, 52, 0
2, 35565, Note_on_c, 0, 57, 75
2, 35565, Note_on_c, 0, 60, 0
2, 35652, Note_on_c, 0, 57, 0
2, 35653, Note_on_c, 0, 60, 79
2, 35751, Note_on_c, 0, 64, 79
2, 35758, Note_on_c, 0, 60, 0
2, 35842, Note_on_c, 0, 66, 76
2, 35848, Note_on_c, 0, 50, 77
2, 35856, Note_on_c, 0, 48, 0
2, 35872, Note_on_c, 0, 64, 0
2, 35933, Note_on_c, 0, 62, 80
2, 36025, Note_on_c, 0, 66, 0
2, 36043, Note_on_c, 0, 60, 77
2, 36089, Note_on_c, 0, 62, 0
2, 36278, Note_on_c, 0, 67, 79
2, 36279, Note_on_c, 0, 62, 71
2, 36281, Note_on_c, 0, 59, 70
2, 36283, Note_on_c, 0, 43, 67
2, 36312, Note_on_c, 0, 50, 0
2, 36318, Note_on_c, 0, 60, 0
2, 37751, Note_on_c, 0, 59, 0
2, 37767, Note_on_c, 0, 62, 0
2, 37771, Note_on_c, 0, 67, 0
2, 37869, Note_on_c, 0, 43, 0
2, 39100, Note_on_c, 0, 67, 71
2, 39157, Note_on_c, 0, 67, 0
2, 39352, Note_on_c, 0, 69, 73
2, 39434, Note_on_c, 0, 69, 0
2, 39448, Note_on_c, 0, 67, 70
2, 39529, Note_on_c, 0, 67, 0
2, 39549, Note_on_c, 0, 66, 70
2, 39630, Note_on_c, 0, 66, 0
2, 39645, Note_on_c, 0, 67, 71
2, 39719, Note_on_c, 0, 67, 0
2, 39757, Note_on_c, 0, 69, 79
2, 39828, Note_on_c, 0, 69, 0
2, 40011, Note_on_c, 0, 71, 82
2, 40108, Note_on_c, 0, 69, 80
2, 40111, Note_on_c, 0, 71, 0
2, 40205, Note_on_c, 0, 69, 0
2, 40210, Note_on_c, 0, 67, 82
2, 40306, Note_on_c, 0, 69, 86
2, 40308, Note_on_c, 0, 67, 0
2, 40387, Note_on_c, 0, 69, 0
2, 40419, Note_on_c, 0, 71, 86
2, 40478, Note_on_c, 0, 71, 0
2, 40661, Note_on_c, 0, 69, 76
2, 40715, Note_on_c, 0, 69, 0
2, 40882, Note_on_c, 0, 67, 84
2, 40940, Note_on_c, 0, 67, 0
2, 41118, Note_on_c, 0, 62, 82
2, 41190, Note_on_c, 0, 62, 0
2, 41377, Note_on_c, 0, 72, 81
2, 41876, Note_on_c, 0, 71, 79
2, 41895, Note_on_c, 0, 72, 0
2, 41941, Note_on_c, 0, 71, 0
2, 42118, Note_on_c, 0, 69, 82
2, 42171, Note_on_c, 0, 69, 0
2, 42348, Note_on_c, 0, 67, 83
2, 42405, Note_on_c, 0, 67, 0
2, 42582, Note_on_c, 0, 66, 92
2, 42648, Note_on_c, 0, 66, 0
2, 42852, Note_on_c, 0, 76, 89
2, 43339, Note_on_c, 0, 74, 77
2, 43350, Note_on_c, 0, 76, 0
2, 43411, Note_on_c, 0, 74, 0
2, 43586, Note_on_c, 0, 76, 78
2, 43688, Note_on_c, 0, 74, 74
2, 43712, Note_on_c, 0, 76, 0
2, 43795, Note_on_c, 0, 72, 73
2, 43799, Note_on_c, 0, 74, 0
2, 43878, Note_on_c, 0, 72, 0
2, 43895, Note_on_c, 0, 71, 72
2, 43975, Note_on_c, 0, 71, 0
2, 44013, Note_on_c, 0, 69, 69
2, 44080, Note_on_c, 0, 69, 0
2, 44262, Note_on_c, 0, 72, 71
2, 44367, Note_on_c, 0, 71, 64
2, 44411, Note_on_c, 0, 72, 0
2, 44473, Note_on_c, 0, 69, 66
2, 44476, Note_on_c, 0, 71, 0
2, 44568, Note_on_c, 0, 69, 0
2, 44569, Note_on_c, 0, 67, 64
2, 44692, Note_on_c, 0, 67, 0
2, 44703, Note_on_c, 0, 62, 65
2, 44707, Note_on_c, 0, 66, 64
2, 44779, Note_on_c, 0, 66, 0
2, 44787, Note_on_c, 0, 62, 0
2, 44951, Note_on_c, 0, 67, 61
2, 44953, Note_on_c, 0, 64, 71
2, 44995, Note_on_c, 0, 67, 0
2, 45038, Note_on_c, 0, 64, 0
2, 45062, Note_on_c, 0, 62, 68
2, 45154, Note_on_c, 0, 62, 0
2, 45169, Note_on_c, 0, 61, 76
2, 45171, Note_on_c, 0, 69, 68
2, 45217, Note_on_c, 0, 69, 0
2, 45268, Note_on_c, 0, 61, 0
2, 45269, Note_on_c, 0, 62, 83
2, 45368, Note_on_c, 0, 62, 0
2, 45394, Note_on_c, 0, 64, 82
2, 45411, Note_on_c, 0, 67, 70
2, 45465, Note_on_c, 0, 64, 0
2, 45478, Note_on_c, 0, 67, 0
2, 45632, Note_on_c, 0, 66, 83
2, 45636, Note_on_c, 0, 69, 73
2, 45693, Note_on_c, 0, 69, 0
2, 45729, Note_on_c, 0, 66, 0
2, 45739, Note_on_c, 0, 64, 79
2, 45851, Note_on_c, 0, 64, 0
2, 45856, Note_on_c, 0, 62, 77
2, 45859, Note_on_c, 0, 71, 73
2, 45904, Note_on_c, 0, 71, 0
2, 45954, Note_on_c, 0, 62, 0
2, 45954, Note_on_c, 0, 64, 83
2, 46051, Note_on_c, 0, 64, 0
2, 46069, Note_on_c, 0, 66, 88
2, 46081, Note_on_c, 0, 69, 74
2, 46151, Note_on_c, 0, 66, 0
2, 46318, Note_on_c, 0, 69, 0
2, 46331, Note_on_c, 0, 64, 83
2, 46343, Note_on_c, 0, 71, 64
2, 46393, Note_on_c, 0, 64, 0
2, 46420, Note_on_c, 0, 71, 0
2, 46430, Note_on_c, 0, 73, 71
2, 46547, Note_on_c, 0, 73, 0
2, 46549, Note_on_c, 0, 74, 75
2, 46555, Note_on_c, 0, 62, 81
2, 46597, Note_on_c, 0, 62, 0
2, 46642, Note_on_c, 0, 74, 0
2, 46658, Note_on_c, 0, 71, 73
2, 46775, Note_on_c, 0, 57, 78
2, 46785, Note_on_c, 0, 71, 0
2, 46787, Note_on_c, 0, 73, 70
2, 46839, Note_on_c, 0, 57, 0
2, 46878, Note_on_c, 0, 73, 0
2, 46899, Note_on_c, 0, 71, 74
2, 47023, Note_on_c, 0, 71, 0
2, 47023, Note_on_c, 0, 73, 67
2, 47026, Note_on_c, 0, 67, 83
2, 47129, Note_on_c, 0, 73, 0
2, 47129, Note_on_c, 0, 74, 62
2, 47236, Note_on_c, 0, 74, 0
2, 47241, Note_on_c, 0, 76, 73
2, 47301, Note_on_c, 0, 76, 0
2, 47350, Note_on_c, 0, 73, 76
2, 47460, Note_on_c, 0, 73, 0
2, 47475, Note_on_c, 0, 66, 80
2, 47475, Note_on_c, 0, 74, 78
2, 47479, Note_on_c, 0, 67, 0
2, 47537, Note_on_c, 0, 66, 0
2, 47572, Note_on_c, 0, 74, 0
2, 47585, Note_on_c, 0, 73, 74
2, 47702, Note_on_c, 0, 73, 0
2, 47711, Note_on_c, 0, 74, 77
2, 47713, Note_on_c, 0, 64, 79
2, 47778, Note_on_c, 0, 64, 0
2, 47819, Note_on_c, 0, 76, 78
2, 47821, Note_on_c, 0, 74, 0
2, 47939, Note_on_c, 0, 78, 78
2, 47940, Note_on_c, 0, 76, 0
2, 47945, Note_on_c, 0, 62, 81
2, 47955, Control_c, 0, 64, 56
2, 47970, Control_c, 0, 64, 65
2, 47980, Note_on_c, 0, 62, 0
2, 47986, Control_c, 0, 64, 68
2, 48001, Control_c, 0, 64, 72
2, 48016, Control_c, 0, 64, 77
2, 48025, Note_on_c, 0, 78, 0
2, 48031, Control_c, 0, 64, 79
2, 48046, Control_c, 0, 64, 80
2, 48047, Note_on_c, 0, 74, 81
2, 48122, Control_c, 0, 64, 79
2, 48138, Control_c, 0, 64, 74
2, 48152, Control_c, 0, 64, 65
2, 48160, Note_on_c, 0, 61, 85
2, 48167, Control_c, 0, 64, 0
2, 48176, Note_on_c, 0, 76, 80
2, 48177, Note_on_c, 0, 74, 0
2, 48218, Note_on_c, 0, 61, 0
2, 48259, Note_on_c, 0, 76, 0
2, 48276, Note_on_c, 0, 74, 82
2, 48397, Note_on_c, 0, 71, 85
2, 48410, Note_on_c, 0, 74, 0
2, 48410, Note_on_c, 0, 76, 75
2, 48522, Note_on_c, 0, 78, 79
2, 48523, Note_on_c, 0, 76, 0
2, 48641, Note_on_c, 0, 79, 82
2, 48647, Note_on_c, 0, 78, 0
2, 48750, Note_on_c, 0, 76, 79
2, 48775, Note_on_c, 0, 79, 0
2, 48871, Note_on_c, 0, 71, 0
2, 48873, Note_on_c, 0, 78, 87
2, 48874, Note_on_c, 0, 69, 77
2, 48891, Note_on_c, 0, 76, 0
2, 48989, Note_on_c, 0, 78, 0
2, 49003, Note_on_c, 0, 69, 0
2, 49132, Note_on_c, 0, 79, 79
2, 49133, Note_on_c, 0, 71, 73
2, 49235, Note_on_c, 0, 71, 0
2, 49236, Note_on_c, 0, 69, 74
2, 49245, Note_on_c, 0, 78, 80
2, 49288, Note_on_c, 0, 79, 0
2, 49352, Note_on_c, 0, 76, 81
2, 49360, Note_on_c, 0, 67, 70
2, 49361, Note_on_c, 0, 69, 0
2, 49377, Note_on_c, 0, 78, 0
2, 49430, Note_on_c, 0, 67, 0
2, 49444, Note_on_c, 0, 76, 0
2, 49451, Note_on_c, 0, 66, 72
2, 49459, Note_on_c, 0, 74, 80
2, 49554, Note_on_c, 0, 66, 0
2, 49573, Note_on_c, 0, 64, 72
2, 49579, Note_on_c, 0, 79, 81
2, 49596, Note_on_c, 0, 74, 0
2, 49682, Note_on_c, 0, 64, 0
2, 49832, Note_on_c, 0, 67, 72
2, 49927, Note_on_c, 0, 67, 0
2, 49940, Note_on_c, 0, 66, 69
2, 50068, Note_on_c, 0, 64, 62
2, 50089, Note_on_c, 0, 66, 0
2, 50140, Note_on_c, 0, 64, 0
2, 50160, Note_on_c, 0, 62, 65
2, 50288, Note_on_c, 0, 61, 69
2, 50296, Note_on_c, 0, 62, 0
2, 50346, Note_on_c, 0, 61, 0
2, 50409, Note_on_c, 0, 79, 0
2, 50410, Note_on_c, 0, 78, 67
2, 50521, Note_on_c, 0, 78, 0
2, 50529, Note_on_c, 0, 76, 71
2, 50535, Note_on_c, 0, 67, 63
2, 50569, Note_on_c, 0, 67, 0
2, 50582, Note_on_c, 0, 76, 0
2, 50636, Note_on_c, 0, 79, 66
2, 50758, Note_on_c, 0, 74, 70
2, 50758, Note_on_c, 0, 79, 0
2, 50777, Note_on_c, 0, 66, 61
2, 50810, Note_on_c, 0, 74, 0
2, 50817, Note_on_c, 0, 66, 0
2, 50871, Note_on_c, 0, 79, 71
2, 50986, Note_on_c, 0, 73, 75
2, 50993, Note_on_c, 0, 79, 0
2, 51003, Note_on_c, 0, 64, 66
2, 51050, Note_on_c, 0, 64, 0
2, 51051, Note_on_c, 0, 73, 0
2, 51102, Note_on_c, 0, 79, 70
2, 51221, Note_on_c, 0, 79, 0
2, 51222, Note_on_c, 0, 71, 77
2, 51224, Note_on_c, 0, 62, 70
2, 51272, Note_on_c, 0, 62, 0
2, 51276, Note_on_c, 0, 71, 0
2, 51337, Note_on_c, 0, 79, 75
2, 51437, Note_on_c, 0, 79, 0
2, 51455, Note_on_c, 0, 69, 78
2, 51457, Note_on_c, 0, 61, 72
2, 51503, Note_on_c, 0, 61, 0
2, 51566, Note_on_c, 0, 69, 0
2, 51566, Note_on_c, 0, 79, 77
2, 51685, Note_on_c, 0, 78, 79
2, 51700, Note_on_c, 0, 62, 69
2, 51721, Note_on_c, 0, 79, 0
2, 51770, Note_on_c, 0, 78, 0
2, 51793, Note_on_c, 0, 62, 0
2, 51802, Note_on_c, 0, 64, 67
2, 51895, Note_on_c, 0, 64, 0
2, 51921, Note_on_c, 0, 74, 72
2, 51928, Note_on_c, 0, 66, 68
2, 51988, Note_on_c, 0, 74, 0
2, 51998, Note_on_c, 0, 66, 0
2, 52034, Note_on_c, 0, 62, 64
2, 52146, Note_on_c, 0, 76, 81
2, 52150, Note_on_c, 0, 62, 0
2, 52165, Note_on_c, 0, 67, 72
2, 52210, Note_on_c, 0, 76, 0
2, 52221, Note_on_c, 0, 67, 0
2, 52278, Note_on_c, 0, 62, 68
2, 52391, Note_on_c, 0, 78, 86
2, 52400, Note_on_c, 0, 62, 0
2, 52402, Note_on_c, 0, 69, 80
2, 52465, Note_on_c, 0, 69, 0
2, 52478, Note_on_c, 0, 78, 0
2, 52516, Note_on_c, 0, 62, 65
2, 52612, Note_on_c, 0, 62, 0
2, 52621, Note_on_c, 0, 71, 82
2, 52624, Note_on_c, 0, 79, 86
2, 52700, Note_on_c, 0, 71, 0
2, 52700, Note_on_c, 0, 79, 0
2, 52729, Note_on_c, 0, 62, 73
2, 52805, Control_c, 0, 64, 60
2, 52817, Note_on_c, 0, 62, 0
2, 52821, Control_c, 0, 64, 69
2, 52836, Control_c, 0, 64, 75
2, 52849, Note_on_c, 0, 72, 85
2, 52851, Control_c, 0, 64, 80
2, 52860, Note_on_c, 0, 81, 88
2, 52866, Control_c, 0, 64, 85
2, 52881, Control_c, 0, 64, 89
2, 52897, Control_c, 0, 64, 93
2, 52912, Control_c, 0, 64, 97
2, 52927, Control_c, 0, 64, 100
2, 52939, Note_on_c, 0, 72, 0
2, 52942, Control_c, 0, 64, 102
2, 52957, Control_c, 0, 64, 103
2, 52958, Note_on_c, 0, 62, 85
2, 52972, Control_c, 0, 64, 104
2, 52992, Note_on_c, 0, 62, 0
2, 53086, Control_c, 0, 64, 103
2, 53102, Control_c, 0, 64, 98
2, 53112, Note_on_c, 0, 55, 79
2, 53113, Note_on_c, 0, 71, 79
2, 53117, Control_c, 0, 64, 85
2, 53132, Control_c, 0, 64, 67
2, 53147, Control_c, 0, 64, 0
2, 53195, Note_on_c, 0, 81, 0
2, 53222, Note_on_c, 0, 55, 0
2, 53363, Note_on_c, 0, 57, 83
2, 53365, Note_on_c, 0, 74, 77
2, 53467, Note_on_c, 0, 57, 0
2, 53471, Note_on_c, 0, 55, 75
2, 53573, Note_on_c, 0, 55, 0
2, 53577, Note_on_c, 0, 71, 0
2, 53581, Note_on_c, 0, 79, 77
2, 53583, Note_on_c, 0, 54, 81
2, 53689, Note_on_c, 0, 54, 0
2, 53693, Note_on_c, 0, 55, 78
2, 53822, Note_on_c, 0, 55, 0
2, 53828, Note_on_c, 0, 72, 74
2, 53833, Note_on_c, 0, 57, 83
2, 53833, Note_on_c, 0, 79, 0
2, 53882, Note_on_c, 0, 74, 0
2, 53924, Note_on_c, 0, 57, 0
2, 54082, Note_on_c, 0, 59, 84
2, 54093, Note_on_c, 0, 78, 75
2, 54180, Note_on_c, 0, 59, 0
2, 54195, Note_on_c, 0, 57, 81
2, 54274, Note_on_c, 0, 57, 0
2, 54308, Note_on_c, 0, 55, 83
2, 54312, Note_on_c, 0, 76, 82
2, 54329, Note_on_c, 0, 72, 0
2, 54348, Note_on_c, 0, 78, 0
2, 54386, Note_on_c, 0, 55, 0
2, 54406, Note_on_c, 0, 57, 80
2, 54488, Note_on_c, 0, 57, 0
2, 54533, Note_on_c, 0, 74, 86
2, 54535, Note_on_c, 0, 76, 0
2, 54539, Control_c, 0, 64, 61
2, 54544, Note_on_c, 0, 59, 79
2, 54554, Control_c, 0, 64, 67
2, 54578, Control_c, 0, 64, 72
2, 54593, Control_c, 0, 64, 76
2, 54598, Note_on_c, 0, 74, 0
2, 54607, Control_c, 0, 64, 78
2, 54626, Note_on_c, 0, 59, 0
2, 54714, Control_c, 0, 64, 77
2, 54729, Control_c, 0, 64, 74
2, 54745, Control_c, 0, 64, 67
2, 54759, Control_c, 0, 64, 0
2, 54776, Note_on_c, 0, 57, 74
2, 54788, Note_on_c, 0, 72, 78
2, 54792, Note_on_c, 0, 66, 73
2, 54839, Note_on_c, 0, 57, 0
2, 54922, Note_on_c, 0, 66, 0
2, 55019, Control_c, 0, 64, 51
2, 55023, Note_on_c, 0, 72, 0
2, 55024, Note_on_c, 0, 71, 68
2, 55030, Note_on_c, 0, 67, 63
2, 55031, Note_on_c, 0, 55, 79
2, 55033, Control_c, 0, 64, 65
2, 55048, Control_c, 0, 64, 69
2, 55064, Control_c, 0, 64, 73
2, 55071, Note_on_c, 0, 55, 0
2, 55079, Control_c, 0, 64, 77
2, 55095, Control_c, 0, 64, 78
2, 55107, Note_on_c, 0, 71, 0
2, 55109, Control_c, 0, 64, 78
2, 55124, Control_c, 0, 64, 79
2, 55140, Control_c, 0, 64, 80
2, 55155, Control_c, 0, 64, 80
2, 55232, Control_c, 0, 64, 80
2, 55246, Control_c, 0, 64, 78
2, 55262, Control_c, 0, 64, 75
2, 55270, Note_on_c, 0, 50, 77
2, 55277, Control_c, 0, 64, 68
2, 55280, Note_on_c, 0, 69, 76
2, 55292, Control_c, 0, 64, 43
2, 55299, Note_on_c, 0, 67, 0
2, 55307, Control_c, 0, 64, 0
2, 55376, Note_on_c, 0, 50, 0
2, 55544, Note_on_c, 0, 60, 76
2, 55546, Note_on_c, 0, 66, 67
2, 55562, Note_on_c, 0, 69, 0
2, 55643, Note_on_c, 0, 66, 0
2, 55659, Note_on_c, 0, 67, 66
2, 55767, Note_on_c, 0, 67, 0
2, 55772, Note_on_c, 0, 69, 70
2, 55883, Note_on_c, 0, 66, 69
2, 55888, Note_on_c, 0, 69, 0
2, 55999, Note_on_c, 0, 66, 0
2, 56007, Note_on_c, 0, 59, 80
2, 56007, Note_on_c, 0, 67, 73
2, 56015, Note_on_c, 0, 60, 0
2, 56062, Note_on_c, 0, 59, 0
2, 56114, Note_on_c, 0, 67, 0
2, 56122, Note_on_c, 0, 66, 72
2, 56216, Note_on_c, 0, 66, 0
2, 56246, Note_on_c, 0, 67, 76
2, 56251, Note_on_c, 0, 57, 81
2, 56314, Note_on_c, 0, 57, 0
2, 56343, Note_on_c, 0, 67, 0
2, 56350, Note_on_c, 0, 69, 77
2, 56463, Control_c, 0, 64, 57
2, 56474, Note_on_c, 0, 55, 80
2, 56474, Note_on_c, 0, 69, 0
2, 56476, Note_on_c, 0, 71, 71
2, 56478, Control_c, 0, 64, 67
2, 56479, Note_on_c, 0, 74, 80
2, 56495, Control_c, 0, 64, 73
2, 56510, Control_c, 0, 64, 79
2, 56514, Note_on_c, 0, 55, 0
2, 56524, Control_c, 0, 64, 82
2, 56540, Control_c, 0, 64, 84
2, 56545, Note_on_c, 0, 71, 0
2, 56555, Control_c, 0, 64, 84
2, 56570, Control_c, 0, 64, 85
2, 56586, Control_c, 0, 64, 86
2, 56586, Note_on_c, 0, 67, 78
2, 56600, Control_c, 0, 64, 87
2, 56616, Control_c, 0, 64, 87
2, 56707, Control_c, 0, 64, 86
2, 56710, Note_on_c, 0, 54, 87
2, 56714, Note_on_c, 0, 69, 79
2, 56721, Control_c, 0, 64, 82
2, 56725, Note_on_c, 0, 67, 0
2, 56737, Control_c, 0, 64, 73
2, 56752, Control_c, 0, 64, 20
2, 56767, Control_c, 0, 64, 0
2, 56776, Note_on_c, 0, 74, 0
2, 56783, Note_on_c, 0, 54, 0
2, 56801, Note_on_c, 0, 69, 0
2, 56819, Note_on_c, 0, 67, 82
2, 56950, Note_on_c, 0, 67, 0
2, 56953, Note_on_c, 0, 64, 81
2, 56954, Note_on_c, 0, 72, 81
2, 56964, Note_on_c, 0, 69, 68
2, 57019, Note_on_c, 0, 69, 0
2, 57023, Note_on_c, 0, 72, 0
2, 57063, Note_on_c, 0, 71, 80
2, 57160, Note_on_c, 0, 71, 0
2, 57182, Note_on_c, 0, 81, 93
2, 57188, Note_on_c, 0, 72, 76
2, 57253, Note_on_c, 0, 72, 0
2, 57296, Note_on_c, 0, 69, 80
2, 57362, Note_on_c, 0, 69, 0
2, 57399, Note_on_c, 0, 64, 0
2, 57428, Note_on_c, 0, 71, 79
2, 57433, Note_on_c, 0, 62, 77
2, 57445, Control_c, 0, 64, 56
2, 57459, Note_on_c, 0, 81, 0
2, 57461, Control_c, 0, 64, 68
2, 57476, Control_c, 0, 64, 77
2, 57490, Control_c, 0, 64, 87
2, 57490, Note_on_c, 0, 71, 0
2, 57498, Note_on_c, 0, 62, 0
2, 57506, Control_c, 0, 64, 93
2, 57521, Control_c, 0, 64, 95
2, 57537, Control_c, 0, 64, 97
2, 57552, Control_c, 0, 64, 98
2, 57566, Control_c, 0, 64, 98
2, 57665, Control_c, 0, 64, 97
2, 57680, Control_c, 0, 64, 91
2, 57683, Note_on_c, 0, 64, 75
2, 57684, Note_on_c, 0, 79, 88
2, 57691, Note_on_c, 0, 72, 83
2, 57696, Control_c, 0, 64, 80
2, 57711, Control_c, 0, 64, 62
2, 57726, Control_c, 0, 64, 0
2, 57779, Note_on_c, 0, 72, 0
2, 57782, Note_on_c, 0, 64, 0
2, 57784, Note_on_c, 0, 62, 76
2, 57785, Note_on_c, 0, 71, 79
2, 57873, Note_on_c, 0, 71, 0
2, 57904, Note_on_c, 0, 69, 80
2, 57906, Note_on_c, 0, 62, 0
2, 57910, Note_on_c, 0, 60, 74
2, 57969, Note_on_c, 0, 60, 0
2, 57979, Note_on_c, 0, 69, 0
2, 58001, Note_on_c, 0, 67, 81
2, 58004, Note_on_c, 0, 59, 74
2, 58069, Note_on_c, 0, 59, 0
2, 58080, Note_on_c, 0, 67, 0
2, 58129, Note_on_c, 0, 72, 78
2, 58136, Note_on_c, 0, 57, 74
2, 58152, Control_c, 0, 64, 63
2, 58167, Control_c, 0, 64, 72
2, 58182, Note_on_c, 0, 57, 0
2, 58183, Control_c, 0, 64, 81
2, 58197, Note_on_c, 0, 79, 0
2, 58198, Control_c, 0, 64, 87
2, 58210, Note_on_c, 0, 72, 0
2, 58212, Control_c, 0, 64, 88
2, 58228, Control_c, 0, 64, 89
2, 58381, Control_c, 0, 64, 88
2, 58394, Note_on_c, 0, 81, 87
2, 58396, Control_c, 0, 64, 86
2, 58396, Note_on_c, 0, 60, 69
2, 58418, Control_c, 0, 64, 78
2, 58433, Control_c, 0, 64, 66
2, 58448, Control_c, 0, 64, 0
2, 58501, Note_on_c, 0, 79, 77
2, 58503, Note_on_c, 0, 60, 0
2, 58508, Note_on_c, 0, 59, 65
2, 58527, Note_on_c, 0, 81, 0
2, 58603, Note_on_c, 0, 59, 0
2, 58619, Note_on_c, 0, 78, 81
2, 58625, Note_on_c, 0, 57, 73
2, 58652, Note_on_c, 0, 79, 0
2, 58671, Note_on_c, 0, 57, 0
2, 58711, Note_on_c, 0, 76, 77
2, 58722, Note_on_c, 0, 78, 0
2, 58723, Note_on_c, 0, 55, 73
2, 58765, Note_on_c, 0, 76, 0
2, 58817, Note_on_c, 0, 55, 0
2, 58831, Note_on_c, 0, 54, 72
2, 58858, Note_on_c, 0, 74, 77
2, 58961, Note_on_c, 0, 71, 66
2, 59040, Note_on_c, 0, 71, 0
2, 59068, Note_on_c, 0, 69, 66
2, 59138, Note_on_c, 0, 69, 0
2, 59208, Note_on_c, 0, 72, 60
2, 59303, Note_on_c, 0, 72, 0
2, 59309, Note_on_c, 0, 54, 0
2, 59323, Note_on_c, 0, 67, 68
2, 59326, Note_on_c, 0, 52, 66
2, 59376, Note_on_c, 0, 67, 0
2, 59432, Note_on_c, 0, 72, 62
2, 59551, Note_on_c, 0, 52, 0
2, 59554, Note_on_c, 0, 66, 80
2, 59560, Note_on_c, 0, 50, 69
2, 59562, Note_on_c, 0, 72, 0
2, 59615, Note_on_c, 0, 66, 0
2, 59617, Note_on_c, 0, 50, 0
2, 59665, Note_on_c, 0, 52, 68
2, 59670, Note_on_c, 0, 72, 65
2, 59743, Note_on_c, 0, 52, 0
2, 59776, Note_on_c, 0, 72, 0
2, 59784, Note_on_c, 0, 64, 74
2, 59787, Note_on_c, 0, 50, 63
2, 59849, Note_on_c, 0, 64, 0
2, 59854, Note_on_c, 0, 50, 0
2, 59894, Note_on_c, 0, 48, 65
2, 59896, Note_on_c, 0, 72, 69
2, 59984, Note_on_c, 0, 48, 0
2, 60005, Note_on_c, 0, 72, 0
2, 60013, Note_on_c, 0, 62, 74
2, 60014, Note_on_c, 0, 47, 68
2, 60075, Note_on_c, 0, 47, 0
2, 60099, Note_on_c, 0, 62, 0
2, 60119, Note_on_c, 0, 72, 72
2, 60122, Note_on_c, 0, 45, 63
2, 60182, Note_on_c, 0, 45, 0
2, 60225, Note_on_c, 0, 74, 0
2, 60229, Note_on_c, 0, 72, 0
2, 60241, Note_on_c, 0, 71, 69
2, 60257, Note_on_c, 0, 43, 62
2, 60260, Control_c, 0, 64, 20
2, 60275, Control_c, 0, 64, 64
2, 60291, Control_c, 0, 64, 74
2, 60306, Control_c, 0, 64, 82
2, 60321, Control_c, 0, 64, 88
2, 60321, Note_on_c, 0, 71, 0
2, 60337, Control_c, 0, 64, 91
2, 60352, Control_c, 0, 64, 92
2, 60354, Note_on_c, 0, 43, 0
2, 60366, Control_c, 0, 64, 92
2, 60370, Note_on_c, 0, 45, 60
2, 60458, Control_c, 0, 64, 90
2, 60461, Note_on_c, 0, 45, 0
2, 60473, Control_c, 0, 64, 81
2, 60483, Note_on_c, 0, 65, 71
2, 60484, Note_on_c, 0, 74, 71
2, 60489, Control_c, 0, 64, 69
2, 60490, Note_on_c, 0, 47, 69
2, 60504, Control_c, 0, 64, 37
2, 60518, Control_c, 0, 64, 0
2, 60549, Control_c, 0, 64, 58
2, 60557, Note_on_c, 0, 47, 0
2, 60563, Control_c, 0, 64, 70
2, 60579, Control_c, 0, 64, 82
2, 60593, Note_on_c, 0, 65, 0
2, 60595, Control_c, 0, 64, 93
2, 60599, Note_on_c, 0, 43, 64
2, 60605, Note_on_c, 0, 74, 0
2, 60611, Control_c, 0, 64, 99
2, 60626, Control_c, 0, 64, 100
2, 60686, Control_c, 0, 64, 98
2, 60702, Control_c, 0, 64, 90
2, 60704, Note_on_c, 0, 43, 0
2, 60724, Control_c, 0, 64, 78
2, 60728, Note_on_c, 0, 72, 76
2, 60734, Note_on_c, 0, 48, 66
2, 60735, Note_on_c, 0, 64, 68
2, 60740, Control_c, 0, 64, 61
2, 60755, Control_c, 0, 64, 0
2, 60792, Note_on_c, 0, 48, 0
2, 60800, Control_c, 0, 64, 25
2, 60816, Control_c, 0, 64, 68
2, 60831, Control_c, 0, 64, 79
2, 60838, Note_on_c, 0, 43, 64
2, 60842, Note_on_c, 0, 64, 0
2, 60846, Control_c, 0, 64, 92
2, 60856, Note_on_c, 0, 72, 0
2, 60862, Control_c, 0, 64, 100
2, 60876, Control_c, 0, 64, 101
2, 60922, Control_c, 0, 64, 100
2, 60937, Control_c, 0, 64, 93
2, 60949, Note_on_c, 0, 43, 0
2, 60952, Control_c, 0, 64, 79
2, 60966, Note_on_c, 0, 50, 70
2, 60968, Control_c, 0, 64, 37
2, 60968, Note_on_c, 0, 71, 78
2, 60977, Note_on_c, 0, 62, 71
2, 60983, Control_c, 0, 64, 0
2, 61030, Control_c, 0, 64, 43
2, 61030, Note_on_c, 0, 50, 0
2, 61046, Control_c, 0, 64, 68
2, 61062, Control_c, 0, 64, 80
2, 61075, Note_on_c, 0, 43, 64
2, 61076, Control_c, 0, 64, 98
2, 61081, Note_on_c, 0, 62, 0
2, 61092, Control_c, 0, 64, 112
2, 61103, Note_on_c, 0, 71, 0
2, 61107, Control_c, 0, 64, 117
2, 61152, Control_c, 0, 64, 114
2, 61168, Control_c, 0, 64, 100
2, 61183, Control_c, 0, 64, 83
2, 61187, Note_on_c, 0, 43, 0
2, 61198, Control_c, 0, 64, 63
2, 61205, Note_on_c, 0, 52, 71
2, 61211, Note_on_c, 0, 69, 81
2, 61213, Control_c, 0, 64, 0
2, 61220, Note_on_c, 0, 60, 72
2, 61259, Control_c, 0, 64, 46
2, 61274, Control_c, 0, 64, 72
2, 61283, Note_on_c, 0, 52, 0
2, 61290, Control_c, 0, 64, 90
2, 61305, Control_c, 0, 64, 123
2, 61305, Note_on_c, 0, 60, 0
2, 61312, Note_on_c, 0, 43, 68
2, 61321, Control_c, 0, 64, 127
2, 61330, Note_on_c, 0, 69, 0
2, 61396, Control_c, 0, 64, 119
2, 61412, Control_c, 0, 64, 93
2, 61427, Control_c, 0, 64, 71
2, 61427, Note_on_c, 0, 43, 0
2, 61443, Control_c, 0, 64, 0
2, 61446, Note_on_c, 0, 53, 70
2, 61454, Note_on_c, 0, 67, 84
2, 61461, Note_on_c, 0, 59, 74
2, 61496, Control_c, 0, 64, 55
2, 61503, Note_on_c, 0, 59, 0
2, 61511, Control_c, 0, 64, 80
2, 61519, Note_on_c, 0, 67, 0
2, 61526, Control_c, 0, 64, 107
2, 61537, Note_on_c, 0, 53, 0
2, 61541, Control_c, 0, 64, 127
2, 61558, Note_on_c, 0, 43, 70
2, 61703, Note_on_c, 0, 43, 0
2, 61707, Note_on_c, 0, 72, 91
2, 61708, Control_c, 0, 64, 108
2, 61708, Note_on_c, 0, 52, 76
2, 61724, Control_c, 0, 64, 76
2, 61739, Control_c, 0, 64, 0
2, 61793, Note_on_c, 0, 52, 0
2, 61794, Note_on_c, 0, 72, 0
2, 61806, Note_on_c, 0, 74, 78
2, 61813, Note_on_c, 0, 50, 68
2, 61902, Note_on_c, 0, 50, 0
2, 61932, Note_on_c, 0, 48, 65
2, 61933, Note_on_c, 0, 76, 80
2, 61948, Note_on_c, 0, 74, 0
2, 61984, Note_on_c, 0, 48, 0
2, 62035, Note_on_c, 0, 52, 62
2, 62154, Note_on_c, 0, 52, 0
2, 62181, Note_on_c, 0, 47, 77
2, 62182, Note_on_c, 0, 67, 70
2, 62210, Note_on_c, 0, 67, 0
2, 62226, Note_on_c, 0, 47, 0
2, 62304, Note_on_c, 0, 52, 54
2, 62417, Note_on_c, 0, 52, 0
2, 62440, Note_on_c, 0, 66, 81
2, 62443, Note_on_c, 0, 45, 84
2, 62444, Note_on_c, 0, 76, 0
2, 62482, Note_on_c, 0, 45, 0
2, 62545, Note_on_c, 0, 52, 64
2, 62553, Note_on_c, 0, 74, 68
2, 62653, Note_on_c, 0, 52, 0
2, 62678, Note_on_c, 0, 43, 73
2, 62678, Note_on_c, 0, 72, 73
2, 62735, Note_on_c, 0, 43, 0
2, 62766, Note_on_c, 0, 66, 0
2, 62776, Note_on_c, 0, 52, 71
2, 62778, Note_on_c, 0, 74, 0
2, 62794, Note_on_c, 0, 71, 73
2, 62810, Note_on_c, 0, 72, 0
2, 62899, Note_on_c, 0, 52, 0
2, 62914, Note_on_c, 0, 42, 85
2, 62920, Note_on_c, 0, 69, 79
2, 62932, Note_on_c, 0, 71, 0
2, 62981, Note_on_c, 0, 42, 0
2, 63032, Note_on_c, 0, 52, 69
2, 63042, Note_on_c, 0, 69, 0
2, 63042, Note_on_c, 0, 72, 81
2, 63120, Note_on_c, 0, 52, 0
2, 63128, Note_on_c, 0, 72, 0
2, 63157, Note_on_c, 0, 50, 75
2, 63158, Note_on_c, 0, 71, 83
2, 63230, Note_on_c, 0, 50, 0
2, 63259, Note_on_c, 0, 48, 66
2, 63259, Note_on_c, 0, 71, 0
2, 63265, Note_on_c, 0, 72, 83
2, 63341, Note_on_c, 0, 48, 0
2, 63381, Note_on_c, 0, 47, 73
2, 63387, Note_on_c, 0, 72, 0
2, 63388, Note_on_c, 0, 74, 79
2, 63430, Note_on_c, 0, 47, 0
2, 63494, Note_on_c, 0, 50, 62
2, 63604, Note_on_c, 0, 50, 0
2, 63629, Note_on_c, 0, 66, 80
2, 63635, Note_on_c, 0, 45, 73
2, 63677, Note_on_c, 0, 66, 0
2, 63682, Note_on_c, 0, 45, 0
2, 63731, Note_on_c, 0, 50, 61
2, 63853, Note_on_c, 0, 50, 0
2, 63880, Note_on_c, 0, 64, 77
2, 63884, Note_on_c, 0, 74, 0
2, 63888, Note_on_c, 0, 43, 75
2, 63933, Note_on_c, 0, 43, 0
2, 63993, Note_on_c, 0, 50, 60
2, 63995, Note_on_c, 0, 72, 70
2, 64111, Note_on_c, 0, 50, 0
2, 64120, Note_on_c, 0, 71, 68
2, 64130, Note_on_c, 0, 42, 68
2, 64165, Note_on_c, 0, 72, 0
2, 64178, Note_on_c, 0, 42, 0
2, 64236, Note_on_c, 0, 69, 70
2, 64236, Note_on_c, 0, 71, 0
2, 64241, Note_on_c, 0, 50, 56
2, 64347, Note_on_c, 0, 69, 0
2, 64348, Note_on_c, 0, 50, 0
2, 64359, Note_on_c, 0, 67, 69
2, 64362, Note_on_c, 0, 40, 68
2, 64408, Note_on_c, 0, 40, 0
2, 64446, Note_on_c, 0, 67, 0
2, 64472, Note_on_c, 0, 71, 68
2, 64476, Note_on_c, 0, 50, 58
2, 64556, Note_on_c, 0, 71, 0
2, 64565, Note_on_c, 0, 50, 0
2, 64609, Note_on_c, 0, 48, 61
2, 64609, Note_on_c, 0, 69, 72
2, 64615, Note_on_c, 0, 64, 0
2, 64687, Note_on_c, 0, 48, 0
2, 64704, Note_on_c, 0, 69, 0
2, 64717, Note_on_c, 0, 47, 60
2, 64721, Note_on_c, 0, 71, 66
2, 64785, Note_on_c, 0, 47, 0
2, 64830, Note_on_c, 0, 71, 0
2, 64833, Note_on_c, 0, 45, 62
2, 64840, Note_on_c, 0, 72, 72
2, 64877, Note_on_c, 0, 45, 0
2, 64947, Note_on_c, 0, 48, 49
2, 65059, Note_on_c, 0, 48, 0
2, 65080, Note_on_c, 0, 43, 65
2, 65082, Note_on_c, 0, 64, 68
2, 65121, Note_on_c, 0, 64, 0
2, 65128, Note_on_c, 0, 43, 0
2, 65193, Note_on_c, 0, 48, 54
2, 65324, Note_on_c, 0, 48, 0
2, 65335, Note_on_c, 0, 62, 72
2, 65340, Note_on_c, 0, 72, 0
2, 65344, Note_on_c, 0, 42, 62
2, 65396, Note_on_c, 0, 42, 0
2, 65453, Note_on_c, 0, 48, 58
2, 65465, Note_on_c, 0, 71, 58
2, 65572, Note_on_c, 0, 48, 0
2, 65575, Note_on_c, 0, 69, 66
2, 65579, Note_on_c, 0, 71, 0
2, 65582, Note_on_c, 0, 40, 72
2, 65624, Note_on_c, 0, 40, 0
2, 65693, Note_on_c, 0, 67, 64
2, 65695, Note_on_c, 0, 69, 0
2, 65697, Note_on_c, 0, 48, 58
2, 65791, Note_on_c, 0, 48, 0
2, 65796, Note_on_c, 0, 67, 0
2, 65807, Note_on_c, 0, 66, 70
2, 65815, Note_on_c, 0, 38, 70
2, 65834, Note_on_c, 0, 62, 0
2, 65878, Note_on_c, 0, 38, 0
2, 65910, Note_on_c, 0, 66, 0
2, 65921, Note_on_c, 0, 48, 65
2, 65924, Note_on_c, 0, 69, 74
2, 66033, Note_on_c, 0, 69, 0
2, 66040, Note_on_c, 0, 48, 0
2, 66053, Note_on_c, 0, 47, 75
2, 66053, Note_on_c, 0, 62, 75
2, 66062, Note_on_c, 0, 67, 68
2, 66171, Note_on_c, 0, 62, 0
2, 66173, Note_on_c, 0, 47, 0
2, 66173, Note_on_c, 0, 69, 73
2, 66178, Note_on_c, 0, 67, 0
2, 66293, Note_on_c, 0, 69, 0
2, 66300, Note_on_c, 0, 71, 70
2, 66311, Note_on_c, 0, 45, 74
2, 66314, Note_on_c, 0, 60, 71
2, 66352, Note_on_c, 0, 45, 0
2, 66416, Note_on_c, 0, 60, 0
2, 66419, Note_on_c, 0, 62, 80
2, 66536, Note_on_c, 0, 64, 81
2, 66542, Note_on_c, 0, 62, 0
2, 66544, Note_on_c, 0, 43, 73
2, 66587, Note_on_c, 0, 43, 0
2, 66639, Note_on_c, 0, 64, 0
2, 66642, Note_on_c, 0, 62, 84
2, 66735, Note_on_c, 0, 62, 0
2, 66765, Control_c, 0, 64, 56
2, 66770, Note_on_c, 0, 71, 0
2, 66773, Note_on_c, 0, 45, 76
2, 66774, Note_on_c, 0, 60, 84
2, 66779, Control_c, 0, 64, 68
2, 66795, Control_c, 0, 64, 75
2, 66810, Control_c, 0, 64, 84
2, 66823, Note_on_c, 0, 60, 0
2, 66826, Control_c, 0, 64, 89
2, 66837, Note_on_c, 0, 45, 0
2, 66841, Control_c, 0, 64, 90
2, 66864, Control_c, 0, 64, 91
2, 66879, Control_c, 0, 64, 91
2, 66955, Control_c, 0, 64, 91
2, 66969, Control_c, 0, 64, 88
2, 66985, Control_c, 0, 64, 76
2, 67000, Control_c, 0, 64, 0
2, 67028, Note_on_c, 0, 64, 77
2, 67031, Note_on_c, 0, 59, 73
2, 67034, Note_on_c, 0, 43, 70
2, 67087, Note_on_c, 0, 59, 0
2, 67092, Note_on_c, 0, 43, 0
2, 67133, Note_on_c, 0, 60, 82
2, 67145, Note_on_c, 0, 64, 0
2, 67259, Note_on_c, 0, 69, 73
2, 67263, Note_on_c, 0, 60, 0
2, 67266, Note_on_c, 0, 62, 82
2, 67269, Note_on_c, 0, 42, 74
2, 67322, Note_on_c, 0, 42, 0
2, 67371, Note_on_c, 0, 60, 82
2, 67375, Note_on_c, 0, 62, 0
2, 67477, Note_on_c, 0, 60, 0
2, 67504, Control_c, 0, 64, 37
2, 67510, Note_on_c, 0, 59, 81
2, 67512, Note_on_c, 0, 43, 69
2, 67519, Control_c, 0, 64, 61
2, 67533, Control_c, 0, 64, 65
2, 67549, Control_c, 0, 64, 67
2, 67564, Control_c, 0, 64, 69
2, 67579, Control_c, 0, 64, 69
2, 67591, Note_on_c, 0, 43, 0
2, 67593, Control_c, 0, 64, 69
2, 67607, Control_c, 0, 64, 68
2, 67629, Note_on_c, 0, 67, 80
2, 67631, Control_c, 0, 64, 66
2, 67631, Note_on_c, 0, 59, 0
2, 67633, Note_on_c, 0, 69, 0
2, 67635, Note_on_c, 0, 55, 68
2, 67646, Control_c, 0, 64, 59
2, 67660, Control_c, 0, 64, 0
2, 67734, Note_on_c, 0, 55, 0
2, 67756, Note_on_c, 0, 69, 79
2, 67761, Note_on_c, 0, 53, 71
2, 67764, Note_on_c, 0, 67, 0
2, 67767, Note_on_c, 0, 60, 78
2, 67844, Note_on_c, 0, 53, 0
2, 67855, Note_on_c, 0, 60, 0
2, 67864, Note_on_c, 0, 52, 71
2, 67955, Note_on_c, 0, 52, 0
2, 68004, Note_on_c, 0, 50, 71
2, 68004, Note_on_c, 0, 71, 81
2, 68008, Note_on_c, 0, 62, 76
2, 68026, Control_c, 0, 64, 68
2, 68033, Note_on_c, 0, 69, 0
2, 68041, Control_c, 0, 64, 75
2, 68056, Control_c, 0, 64, 83
2, 68059, Note_on_c, 0, 62, 0
2, 68072, Control_c, 0, 64, 86
2, 68073, Note_on_c, 0, 71, 0
2, 68087, Control_c, 0, 64, 87
2, 68095, Note_on_c, 0, 50, 0
2, 68102, Control_c, 0, 64, 88
2, 68113, Note_on_c, 0, 53, 70
2, 68117, Control_c, 0, 64, 89
2, 68132, Control_c, 0, 64, 90
2, 68147, Control_c, 0, 64, 90
2, 68178, Control_c, 0, 64, 91
2, 68194, Control_c, 0, 64, 90
2, 68223, Control_c, 0, 64, 89
2, 68237, Note_on_c, 0, 53, 0
2, 68239, Control_c, 0, 64, 82
2, 68242, Note_on_c, 0, 72, 85
2, 68245, Note_on_c, 0, 67, 82
2, 68251, Note_on_c, 0, 52, 76
2, 68254, Control_c, 0, 64, 67
2, 68270, Control_c, 0, 64, 0
2, 68305, Note_on_c, 0, 67, 0
2, 68346, Note_on_c, 0, 52, 0
2, 68359, Note_on_c, 0, 53, 68
2, 68363, Note_on_c, 0, 74, 77
2, 68364, Note_on_c, 0, 72, 0
2, 68492, Note_on_c, 0, 72, 79
2, 68499, Note_on_c, 0, 53, 0
2, 68500, Note_on_c, 0, 57, 81
2, 68510, Note_on_c, 0, 52, 69
2, 68535, Note_on_c, 0, 74, 0
2, 68557, Note_on_c, 0, 52, 0
2, 68605, Note_on_c, 0, 71, 73
2, 68606, Note_on_c, 0, 72, 0
2, 68612, Note_on_c, 0, 50, 62
2, 68715, Note_on_c, 0, 50, 0
2, 68718, Note_on_c, 0, 71, 0
2, 68728, Note_on_c, 0, 69, 79
2, 68734, Note_on_c, 0, 48, 74
2, 68789, Note_on_c, 0, 69, 0
2, 68822, Note_on_c, 0, 57, 0
2, 68846, Note_on_c, 0, 67, 77
2, 68850, Note_on_c, 0, 52, 69
2, 68858, Note_on_c, 0, 48, 0
2, 68937, Note_on_c, 0, 67, 0
2, 68958, Note_on_c, 0, 66, 75
2, 68971, Note_on_c, 0, 59, 79
2, 68978, Note_on_c, 0, 50, 70
2, 68978, Note_on_c, 0, 52, 0
2, 68999, Note_on_c, 0, 67, 59
2, 69000, Note_on_c, 0, 66, 0
2, 69060, Note_on_c, 0, 66, 70
2, 69077, Note_on_c, 0, 50, 0
2, 69083, Note_on_c, 0, 59, 0
2, 69088, Note_on_c, 0, 67, 0
2, 69089, Note_on_c, 0, 52, 72
2, 69197, Note_on_c, 0, 66, 0
2, 69223, Note_on_c, 0, 60, 80
2, 69230, Note_on_c, 0, 50, 70
2, 69260, Note_on_c, 0, 52, 0
2, 69303, Note_on_c, 0, 60, 0
2, 69311, Note_on_c, 0, 50, 0
2, 69322, Note_on_c, 0, 64, 74
2, 69336, Note_on_c, 0, 48, 65
2, 69395, Note_on_c, 0, 66, 66
2, 69413, Note_on_c, 0, 48, 0
2, 69423, Note_on_c, 0, 64, 0
2, 69464, Note_on_c, 0, 47, 71
2, 69465, Note_on_c, 0, 62, 73
2, 69465, Note_on_c, 0, 67, 79
2, 69491, Note_on_c, 0, 66, 0
2, 69504, Note_on_c, 0, 62, 0
2, 69569, Note_on_c, 0, 47, 0
2, 69575, Note_on_c, 0, 50, 63
2, 69713, Note_on_c, 0, 64, 77
2, 69715, Note_on_c, 0, 48, 78
2, 69715, Note_on_c, 0, 50, 0
2, 69718, Note_on_c, 0, 67, 0
2, 69780, Note_on_c, 0, 64, 0
2, 69807, Note_on_c, 0, 48, 0
2, 69822, Note_on_c, 0, 71, 63
2, 69832, Note_on_c, 0, 50, 65
2, 69961, Note_on_c, 0, 54, 75
2, 69966, Note_on_c, 0, 50, 0
2, 69966, Note_on_c, 0, 69, 75
2, 69969, Note_on_c, 0, 48, 67
2, 69997, Note_on_c, 0, 71, 0
2, 70041, Note_on_c, 0, 48, 0
2, 70066, Note_on_c, 0, 67, 75
2, 70073, Note_on_c, 0, 69, 0
2, 70077, Note_on_c, 0, 47, 61
2, 70168, Note_on_c, 0, 47, 0
2, 70174, Note_on_c, 0, 67, 0
2, 70190, Note_on_c, 0, 66, 73
2, 70193, Note_on_c, 0, 45, 64
2, 70206, Note_on_c, 0, 54, 0
2, 70265, Note_on_c, 0, 66, 0
2, 70296, Note_on_c, 0, 45, 0
2, 70302, Note_on_c, 0, 48, 60
2, 70312, Note_on_c, 0, 64, 66
2, 70407, Note_on_c, 0, 48, 0
2, 70420, Control_c, 0, 64, 61
2, 70422, Note_on_c, 0, 64, 0
2, 70423, Note_on_c, 0, 55, 61
2, 70434, Note_on_c, 0, 62, 73
2, 70436, Control_c, 0, 64, 69
2, 70439, Note_on_c, 0, 47, 59
2, 70451, Control_c, 0, 64, 77
2, 70466, Control_c, 0, 64, 86
2, 70482, Control_c, 0, 64, 90
2, 70490, Note_on_c, 0, 62, 0
2, 70496, Control_c, 0, 64, 91
2, 70500, Note_on_c, 0, 55, 0
2, 70512, Control_c, 0, 64, 92
2, 70523, Note_on_c, 0, 47, 0
2, 70541, Note_on_c, 0, 48, 66
2, 70617, Control_c, 0, 64, 89
2, 70633, Control_c, 0, 64, 80
2, 70648, Control_c, 0, 64, 66
2, 70663, Control_c, 0, 64, 0
2, 70672, Note_on_c, 0, 55, 69
2, 70682, Note_on_c, 0, 47, 60
2, 70682, Note_on_c, 0, 48, 0
2, 70752, Note_on_c, 0, 55, 0
2, 70762, Note_on_c, 0, 47, 0
2, 70787, Note_on_c, 0, 57, 66
2, 70802, Note_on_c, 0, 45, 62
2, 70892, Note_on_c, 0, 45, 0
2, 70905, Note_on_c, 0, 59, 66
2, 70908, Note_on_c, 0, 57, 0
2, 70926, Note_on_c, 0, 43, 59
2, 71006, Note_on_c, 0, 59, 0
2, 71012, Note_on_c, 0, 61, 71
2, 71025, Note_on_c, 0, 43, 0
2, 71036, Note_on_c, 0, 45, 56
2, 71113, Note_on_c, 0, 45, 0
2, 71142, Note_on_c, 0, 61, 0
2, 71142, Note_on_c, 0, 62, 76
2, 71144, Note_on_c, 0, 47, 70
2, 71227, Note_on_c, 0, 62, 0
2, 71251, Note_on_c, 0, 47, 0
2, 71253, Note_on_c, 0, 49, 74
2, 71388, Note_on_c, 0, 50, 76
2, 71390, Note_on_c, 0, 59, 77
2, 71392, Note_on_c, 0, 49, 0
2, 71468, Note_on_c, 0, 50, 0
2, 71492, Note_on_c, 0, 59, 0
2, 71506, Note_on_c, 0, 61, 83
2, 71507, Note_on_c, 0, 52, 74
2, 71599, Note_on_c, 0, 61, 0
2, 71623, Note_on_c, 0, 52, 0
2, 71624, Note_on_c, 0, 54, 77
2, 71627, Note_on_c, 0, 62, 83
2, 71710, Note_on_c, 0, 54, 0
2, 71729, Note_on_c, 0, 55, 79
2, 71730, Note_on_c, 0, 64, 87
2, 71739, Note_on_c, 0, 62, 0
2, 71816, Note_on_c, 0, 55, 0
2, 71825, Note_on_c, 0, 64, 0
2, 71859, Note_on_c, 0, 66, 81
2, 71862, Note_on_c, 0, 54, 74
2, 71862, Note_on_c, 0, 69, 91
2, 71865, Control_c, 0, 64, 51
2, 71881, Control_c, 0, 64, 67
2, 71895, Control_c, 0, 64, 75
2, 71911, Control_c, 0, 64, 83
2, 71923, Note_on_c, 0, 66, 0
2, 71926, Control_c, 0, 64, 89
2, 71934, Note_on_c, 0, 69, 0
2, 71941, Control_c, 0, 64, 92
2, 71954, Note_on_c, 0, 54, 0
2, 71957, Control_c, 0, 64, 95
2, 71974, Control_c, 0, 64, 96
2, 71990, Control_c, 0, 64, 98
2, 72004, Control_c, 0, 64, 98
2, 72081, Control_c, 0, 64, 93
2, 72096, Control_c, 0, 64, 79
2, 72112, Control_c, 0, 64, 31
2, 72119, Note_on_c, 0, 67, 86
2, 72124, Note_on_c, 0, 59, 79
2, 72127, Control_c, 0, 64, 0
2, 72130, Note_on_c, 0, 64, 73
2, 72179, Note_on_c, 0, 59, 0
2, 72187, Note_on_c, 0, 64, 0
2, 72226, Note_on_c, 0, 69, 86
2, 72228, Note_on_c, 0, 67, 0
2, 72358, Note_on_c, 0, 47, 78
2, 72360, Note_on_c, 0, 71, 82
2, 72361, Note_on_c, 0, 63, 81
2, 72364, Note_on_c, 0, 69, 0
2, 72408, Note_on_c, 0, 47, 0
2, 72409, Note_on_c, 0, 63, 0
2, 72419, Note_on_c, 0, 71, 0
2, 72476, Note_on_c, 0, 69, 83
2, 72552, Note_on_c, 0, 69, 0
2, 72590, Control_c, 0, 64, 60
2, 72597, Note_on_c, 0, 52, 79
2, 72598, Note_on_c, 0, 67, 82
2, 72605, Control_c, 0, 64, 68
2, 72607, Note_on_c, 0, 64, 76
2, 72620, Control_c, 0, 64, 76
2, 72636, Control_c, 0, 64, 86
2, 72647, Note_on_c, 0, 52, 0
2, 72650, Control_c, 0, 64, 91
2, 72653, Note_on_c, 0, 64, 0
2, 72654, Note_on_c, 0, 67, 0
2, 72666, Control_c, 0, 64, 93
2, 72681, Control_c, 0, 64, 94
2, 72696, Control_c, 0, 64, 95
2, 72788, Control_c, 0, 64, 92
2, 72803, Control_c, 0, 64, 83
2, 72818, Control_c, 0, 64, 66
2, 72834, Control_c, 0, 64, 0
2, 72848, Note_on_c, 0, 57, 77
2, 72849, Note_on_c, 0, 62, 81
2, 72855, Note_on_c, 0, 66, 75
2, 72910, Note_on_c, 0, 57, 0
2, 72910, Note_on_c, 0, 62, 0
2, 72933, Note_on_c, 0, 66, 0
2, 72947, Note_on_c, 0, 67, 70
2, 73064, Note_on_c, 0, 67, 0
2, 73080, Note_on_c, 0, 69, 77
2, 73091, Note_on_c, 0, 45, 74
2, 73093, Note_on_c, 0, 61, 73
2, 73132, Note_on_c, 0, 61, 0
2, 73152, Note_on_c, 0, 45, 0
2, 73185, Note_on_c, 0, 67, 79
2, 73210, Note_on_c, 0, 69, 0
2, 73273, Note_on_c, 0, 67, 0
2, 73297, Control_c, 0, 64, 38
2, 73313, Control_c, 0, 64, 68
2, 73323, Note_on_c, 0, 66, 86
2, 73327, Note_on_c, 0, 50, 75
2, 73328, Control_c, 0, 64, 79
2, 73328, Note_on_c, 0, 62, 72
2, 73343, Control_c, 0, 64, 89
2, 73356, Note_on_c, 0, 50, 0
2, 73358, Control_c, 0, 64, 94
2, 73360, Note_on_c, 0, 62, 0
2, 73372, Control_c, 0, 64, 96
2, 73378, Note_on_c, 0, 66, 0
2, 73388, Control_c, 0, 64, 97
2, 73403, Control_c, 0, 64, 98
2, 73417, Control_c, 0, 64, 99
2, 73509, Control_c, 0, 64, 96
2, 73524, Control_c, 0, 64, 84
2, 73539, Control_c, 0, 64, 66
2, 73555, Control_c, 0, 64, 0
2, 73564, Note_on_c, 0, 52, 64
2, 73571, Note_on_c, 0, 67, 86
2, 73580, Note_on_c, 0, 61, 67
2, 73629, Note_on_c, 0, 67, 0
2, 73660, Note_on_c, 0, 52, 0
2, 73672, Note_on_c, 0, 61, 0
2, 73681, Note_on_c, 0, 59, 72
2, 73820, Note_on_c, 0, 69, 87
2, 73823, Note_on_c, 0, 59, 0
2, 73828, Note_on_c, 0, 57, 65
2, 73833, Note_on_c, 0, 54, 64
2, 73875, Note_on_c, 0, 69, 0
2, 73924, Note_on_c, 0, 57, 0
2, 73939, Note_on_c, 0, 60, 72
2, 74044, Note_on_c, 0, 60, 0
2, 74053, Note_on_c, 0, 74, 95
2, 74058, Note_on_c, 0, 59, 64
2, 74080, Control_c, 0, 64, 57
2, 74095, Control_c, 0, 64, 67
2, 74112, Control_c, 0, 64, 75
2, 74121, Note_on_c, 0, 74, 0
2, 74127, Control_c, 0, 64, 84
2, 74141, Control_c, 0, 64, 88
2, 74157, Control_c, 0, 64, 89
2, 74159, Note_on_c, 0, 59, 0
2, 74166, Note_on_c, 0, 60, 69
2, 74170, Note_on_c, 0, 54, 0
2, 74203, Control_c, 0, 64, 90
2, 74282, Note_on_c, 0, 60, 0
2, 74291, Note_on_c, 0, 64, 84
2, 74293, Control_c, 0, 64, 89
2, 74303, Note_on_c, 0, 59, 68
2, 74309, Control_c, 0, 64, 84
2, 74319, Note_on_c, 0, 55, 69
2, 74324, Control_c, 0, 64, 73
2, 74335, Note_on_c, 0, 66, 77
2, 74338, Control_c, 0, 64, 0
2, 74345, Note_on_c, 0, 64, 0
2, 74355, Note_on_c, 0, 59, 0
2, 74359, Note_on_c, 0, 55, 0
2, 74389, Note_on_c, 0, 64, 71
2, 74400, Note_on_c, 0, 66, 0
2, 74410, Note_on_c, 0, 57, 67
2, 74524, Note_on_c, 0, 57, 0
2, 74558, Note_on_c, 0, 55, 74
2, 74561, Note_on_c, 0, 49, 69
2, 74625, Note_on_c, 0, 49, 0
2, 74631, Note_on_c, 0, 55, 0
2, 74669, Note_on_c, 0, 59, 68
2, 74785, Note_on_c, 0, 59, 0
2, 74800, Note_on_c, 0, 66, 86
2, 74803, Note_on_c, 0, 57, 71
2, 74805, Note_on_c, 0, 50, 66
2, 74808, Note_on_c, 0, 64, 0
2, 74859, Note_on_c, 0, 66, 0
2, 74876, Note_on_c, 0, 57, 0
2, 74915, Note_on_c, 0, 59, 64
2, 75021, Note_on_c, 0, 59, 0
2, 75045, Note_on_c, 0, 67, 81
2, 75050, Note_on_c, 0, 57, 67
2, 75099, Note_on_c, 0, 67, 0
2, 75153, Note_on_c, 0, 57, 0
2, 75154, Note_on_c, 0, 55, 70
2, 75228, Note_on_c, 0, 55, 0
2, 75287, Note_on_c, 0, 54, 63
2, 75289, Note_on_c, 0, 69, 70
2, 75350, Note_on_c, 0, 69, 0
2, 75380, Note_on_c, 0, 54, 0
2, 75408, Note_on_c, 0, 57, 63
2, 75517, Note_on_c, 0, 57, 0
2, 75535, Note_on_c, 0, 71, 77
2, 75537, Note_on_c, 0, 55, 63
2, 75556, Control_c, 0, 64, 59
2, 75571, Control_c, 0, 64, 67
2, 75587, Control_c, 0, 64, 73
2, 75598, Note_on_c, 0, 71, 0
2, 75602, Control_c, 0, 64, 79
2, 75615, Note_on_c, 0, 55, 0
2, 75616, Control_c, 0, 64, 82
2, 75632, Control_c, 0, 64, 82
2, 75640, Note_on_c, 0, 57, 65
2, 75647, Control_c, 0, 64, 83
2, 75738, Control_c, 0, 64, 82
2, 75744, Note_on_c, 0, 57, 0
2, 75753, Control_c, 0, 64, 79
2, 75767, Note_on_c, 0, 55, 54
2, 75768, Control_c, 0, 64, 70
2, 75772, Note_on_c, 0, 61, 76
2, 75784, Control_c, 0, 64, 0
2, 75808, Note_on_c, 0, 61, 0
2, 75820, Note_on_c, 0, 62, 66
2, 75834, Note_on_c, 0, 55, 0
2, 75847, Note_on_c, 0, 54, 58
2, 75879, Note_on_c, 0, 61, 65
2, 75906, Note_on_c, 0, 50, 0
2, 75914, Note_on_c, 0, 62, 0
2, 75952, Note_on_c, 0, 54, 0
2, 75976, Note_on_c, 0, 52, 62
2, 76050, Note_on_c, 0, 52, 0
2, 76097, Note_on_c, 0, 55, 69
2, 76203, Note_on_c, 0, 55, 0
2, 76230, Note_on_c, 0, 61, 0
2, 76233, Control_c, 0, 64, 55
2, 76233, Note_on_c, 0, 54, 57
2, 76244, Note_on_c, 0, 62, 69
2, 76248, Control_c, 0, 64, 65
2, 76264, Control_c, 0, 64, 71
2, 76279, Control_c, 0, 64, 79
2, 76294, Control_c, 0, 64, 83
2, 76298, Note_on_c, 0, 62, 0
2, 76309, Control_c, 0, 64, 85
2, 76324, Control_c, 0, 64, 86
2, 76325, Note_on_c, 0, 54, 0
2, 76336, Note_on_c, 0, 55, 61
2, 76339, Control_c, 0, 64, 87
2, 76429, Control_c, 0, 64, 83
2, 76444, Control_c, 0, 64, 72
2, 76450, Note_on_c, 0, 55, 0
2, 76459, Control_c, 0, 64, 0
2, 76466, Note_on_c, 0, 54, 57
2, 76487, Note_on_c, 0, 62, 70
2, 76557, Note_on_c, 0, 62, 0
2, 76563, Note_on_c, 0, 54, 0
2, 76572, Note_on_c, 0, 52, 62
2, 76593, Note_on_c, 0, 64, 69
2, 76694, Note_on_c, 0, 52, 0
2, 76704, Note_on_c, 0, 66, 72
2, 76715, Note_on_c, 0, 64, 0
2, 76718, Note_on_c, 0, 50, 62
2, 76786, Note_on_c, 0, 66, 0
2, 76811, Note_on_c, 0, 67, 77
2, 76819, Note_on_c, 0, 52, 66
2, 76823, Note_on_c, 0, 50, 0
2, 76919, Note_on_c, 0, 52, 0
2, 76939, Note_on_c, 0, 54, 69
2, 76951, Note_on_c, 0, 69, 79
2, 76962, Note_on_c, 0, 67, 0
2, 77025, Note_on_c, 0, 69, 0
2, 77054, Note_on_c, 0, 55, 75
2, 77056, Note_on_c, 0, 54, 0
2, 77160, Note_on_c, 0, 55, 0
2, 77189, Note_on_c, 0, 57, 70
2, 77201, Note_on_c, 0, 66, 83
2, 77274, Note_on_c, 0, 66, 0
2, 77285, Note_on_c, 0, 57, 0
2, 77307, Note_on_c, 0, 59, 74
2, 77307, Note_on_c, 0, 67, 78
2, 77401, Note_on_c, 0, 59, 0
2, 77425, Note_on_c, 0, 60, 80
2, 77426, Note_on_c, 0, 69, 80
2, 77450, Note_on_c, 0, 67, 0
2, 77484, Note_on_c, 0, 60, 0
2, 77520, Note_on_c, 0, 62, 74
2, 77528, Note_on_c, 0, 69, 0
2, 77529, Note_on_c, 0, 71, 81
2, 77646, Control_c, 0, 64, 57
2, 77660, Control_c, 0, 64, 67
2, 77660, Note_on_c, 0, 62, 0
2, 77663, Note_on_c, 0, 54, 77
2, 77664, Note_on_c, 0, 50, 69
2, 77664, Note_on_c, 0, 72, 84
2, 77676, Control_c, 0, 64, 74
2, 77689, Note_on_c, 0, 71, 0
2, 77691, Control_c, 0, 64, 83
2, 77705, Note_on_c, 0, 54, 0
2, 77707, Control_c, 0, 64, 88
2, 77707, Note_on_c, 0, 50, 0
2, 77722, Control_c, 0, 64, 90
2, 77737, Control_c, 0, 64, 92
2, 77753, Control_c, 0, 64, 93
2, 77767, Control_c, 0, 64, 94
2, 77783, Control_c, 0, 64, 94
2, 77875, Control_c, 0, 64, 93
2, 77890, Control_c, 0, 64, 85
2, 77906, Control_c, 0, 64, 69
2, 77920, Control_c, 0, 64, 0
2, 77920, Note_on_c, 0, 48, 84
2, 77928, Note_on_c, 0, 69, 73
2, 78019, Note_on_c, 0, 48, 0
2, 78033, Note_on_c, 0, 50, 81
2, 78132, Note_on_c, 0, 50, 0
2, 78153, Note_on_c, 0, 69, 0
2, 78156, Note_on_c, 0, 52, 80
2, 78156, Note_on_c, 0, 72, 0
2, 78162, Note_on_c, 0, 71, 73
2, 78168, Note_on_c, 0, 67, 72
2, 78257, Note_on_c, 0, 52, 0
2, 78260, Note_on_c, 0, 50, 83
2, 78279, Note_on_c, 0, 71, 0
2, 78359, Note_on_c, 0, 50, 0
2, 78403, Note_on_c, 0, 48, 85
2, 78406, Note_on_c, 0, 69, 72
2, 78438, Note_on_c, 0, 67, 0
2, 78481, Note_on_c, 0, 48, 0
2, 78671, Note_on_c, 0, 47, 77
2, 78672, Note_on_c, 0, 67, 71
2, 78718, Note_on_c, 0, 69, 0
2, 78769, Note_on_c, 0, 47, 0
2, 78781, Note_on_c, 0, 48, 74
2, 78875, Note_on_c, 0, 48, 0
2, 78893, Note_on_c, 0, 67, 0
2, 78903, Note_on_c, 0, 50, 71
2, 78909, Note_on_c, 0, 66, 75
2, 78985, Note_on_c, 0, 50, 0
2, 79005, Note_on_c, 0, 48, 77
2, 79104, Note_on_c, 0, 48, 0
2, 79118, Note_on_c, 0, 66, 0
2, 79137, Note_on_c, 0, 47, 78
2, 79158, Note_on_c, 0, 67, 71
2, 79239, Note_on_c, 0, 47, 0
2, 79280, Note_on_c, 0, 79, 74
2, 79299, Note_on_c, 0, 67, 0
2, 79394, Note_on_c, 0, 48, 80
2, 79404, Note_on_c, 0, 78, 74
2, 79453, Note_on_c, 0, 79, 0
2, 79456, Note_on_c, 0, 48, 0
2, 79501, Note_on_c, 0, 78, 0
2, 79506, Note_on_c, 0, 76, 75
2, 79593, Control_c, 0, 64, 51
2, 79607, Control_c, 0, 64, 69
2, 79623, Control_c, 0, 64, 77
2, 79627, Note_on_c, 0, 50, 78
2, 79637, Note_on_c, 0, 74, 78
2, 79638, Control_c, 0, 64, 85
2, 79645, Note_on_c, 0, 76, 0
2, 79653, Control_c, 0, 64, 89
2, 79659, Note_on_c, 0, 50, 0
2, 79669, Control_c, 0, 64, 90
2, 79683, Control_c, 0, 64, 91
2, 79698, Control_c, 0, 64, 92
2, 79714, Control_c, 0, 64, 93
2, 79728, Note_on_c, 0, 74, 0
2, 79729, Control_c, 0, 64, 94
2, 79743, Note_on_c, 0, 78, 78
2, 79866, Control_c, 0, 64, 91
2, 79876, Note_on_c, 0, 55, 89
2, 79879, Note_on_c, 0, 76, 72
2, 79881, Control_c, 0, 64, 81
2, 79895, Control_c, 0, 64, 48
2, 79900, Note_on_c, 0, 78, 0
2, 79919, Control_c, 0, 64, 0
2, 79950, Note_on_c, 0, 55, 0
2, 80006, Note_on_c, 0, 78, 80
2, 80010, Note_on_c, 0, 76, 0
2, 80135, Note_on_c, 0, 45, 81
2, 80135, Note_on_c, 0, 76, 74
2, 80166, Note_on_c, 0, 78, 0
2, 80244, Note_on_c, 0, 76, 0
2, 80254, Note_on_c, 0, 74, 72
2, 80331, Note_on_c, 0, 74, 0
2, 80372, Note_on_c, 0, 72, 74
2, 80443, Note_on_c, 0, 72, 0
2, 80481, Note_on_c, 0, 76, 76
2, 80598, Note_on_c, 0, 74, 75
2, 80605, Note_on_c, 0, 47, 81
2, 80611, Note_on_c, 0, 45, 0
2, 80611, Note_on_c, 0, 76, 0
2, 80682, Note_on_c, 0, 74, 0
2, 80686, Note_on_c, 0, 47, 0
2, 80731, Note_on_c, 0, 76, 74
2, 80853, Note_on_c, 0, 74, 74
2, 80857, Note_on_c, 0, 48, 80
2, 80864, Note_on_c, 0, 76, 0
2, 80921, Note_on_c, 0, 48, 0
2, 80939, Note_on_c, 0, 74, 0
2, 80956, Note_on_c, 0, 72, 76
2, 81036, Note_on_c, 0, 72, 0
2, 81066, Control_c, 0, 64, 49
2, 81077, Note_on_c, 0, 71, 71
2, 81082, Control_c, 0, 64, 67
2, 81088, Note_on_c, 0, 50, 81
2, 81096, Control_c, 0, 64, 75
2, 81112, Control_c, 0, 64, 84
2, 81121, Note_on_c, 0, 50, 0
2, 81127, Control_c, 0, 64, 90
2, 81137, Note_on_c, 0, 71, 0
2, 81142, Control_c, 0, 64, 92
2, 81158, Control_c, 0, 64, 93
2, 81177, Note_on_c, 0, 74, 76
2, 81310, Control_c, 0, 64, 92
2, 81313, Note_on_c, 0, 72, 74
2, 81325, Control_c, 0, 64, 87
2, 81328, Note_on_c, 0, 52, 87
2, 81328, Note_on_c, 0, 74, 0
2, 81339, Control_c, 0, 64, 78
2, 81355, Control_c, 0, 64, 64
2, 81370, Control_c, 0, 64, 0
2, 81407, Note_on_c, 0, 52, 0
2, 81413, Note_on_c, 0, 72, 0
2, 81437, Note_on_c, 0, 74, 72
2, 81578, Note_on_c, 0, 72, 71
2, 81583, Note_on_c, 0, 42, 75
2, 81591, Note_on_c, 0, 74, 0
2, 81666, Note_on_c, 0, 72, 0
2, 81688, Note_on_c, 0, 71, 76
2, 81760, Note_on_c, 0, 71, 0
2, 81809, Note_on_c, 0, 69, 72
2, 81863, Note_on_c, 0, 69, 0
2, 81919, Note_on_c, 0, 72, 74
2, 82017, Note_on_c, 0, 72, 0
2, 82032, Note_on_c, 0, 42, 0
2, 82049, Note_on_c, 0, 43, 77
2, 82052, Note_on_c, 0, 71, 73
2, 82130, Note_on_c, 0, 71, 0
2, 82146, Note_on_c, 0, 43, 0
2, 82164, Note_on_c, 0, 69, 76
2, 82166, Note_on_c, 0, 45, 75
2, 82243, Note_on_c, 0, 69, 0
2, 82266, Note_on_c, 0, 45, 0
2, 82291, Note_on_c, 0, 47, 68
2, 82296, Note_on_c, 0, 67, 68
2, 82342, Note_on_c, 0, 67, 0
2, 82406, Note_on_c, 0, 71, 66
2, 82533, Note_on_c, 0, 66, 62
2, 82540, Note_on_c, 0, 62, 60
2, 82540, Note_on_c, 0, 71, 0
2, 82579, Note_on_c, 0, 62, 0
2, 82584, Note_on_c, 0, 66, 0
2, 82653, Note_on_c, 0, 71, 60
2, 82785, Note_on_c, 0, 64, 73
2, 82787, Note_on_c, 0, 61, 72
2, 82795, Note_on_c, 0, 71, 0
2, 82820, Note_on_c, 0, 61, 0
2, 82841, Note_on_c, 0, 64, 0
2, 82889, Note_on_c, 0, 47, 0
2, 82894, Note_on_c, 0, 45, 72
2, 82919, Note_on_c, 0, 71, 57
2, 82992, Note_on_c, 0, 45, 0
2, 83020, Note_on_c, 0, 43, 72
2, 83037, Note_on_c, 0, 62, 79
2, 83040, Note_on_c, 0, 71, 0
2, 83092, Note_on_c, 0, 62, 0
2, 83098, Note_on_c, 0, 43, 0
2, 83131, Note_on_c, 0, 42, 72
2, 83155, Note_on_c, 0, 71, 71
2, 83206, Note_on_c, 0, 42, 0
2, 83256, Note_on_c, 0, 40, 78
2, 83263, Note_on_c, 0, 61, 80
2, 83277, Note_on_c, 0, 71, 0
2, 83327, Note_on_c, 0, 61, 0
2, 83372, Note_on_c, 0, 43, 81
2, 83375, Note_on_c, 0, 71, 77
2, 83382, Note_on_c, 0, 40, 0
2, 83468, Note_on_c, 0, 43, 0
2, 83498, Note_on_c, 0, 42, 85
2, 83499, Note_on_c, 0, 69, 75
2, 83507, Note_on_c, 0, 71, 0
2, 83580, Note_on_c, 0, 42, 0
2, 83602, Note_on_c, 0, 69, 0
2, 83612, Note_on_c, 0, 43, 73
2, 83619, Note_on_c, 0, 67, 73
2, 83713, Note_on_c, 0, 43, 0
2, 83724, Note_on_c, 0, 67, 0
2, 83739, Note_on_c, 0, 45, 69
2, 83740, Note_on_c, 0, 66, 72
2, 83832, Note_on_c, 0, 66, 0
2, 83877, Note_on_c, 0, 69, 60
2, 84007, Note_on_c, 0, 64, 72
2, 84009, Note_on_c, 0, 69, 0
2, 84011, Note_on_c, 0, 61, 67
2, 84043, Note_on_c, 0, 61, 0
2, 84066, Note_on_c, 0, 64, 0
2, 84128, Note_on_c, 0, 69, 72
2, 84246, Note_on_c, 0, 69, 0
2, 84253, Note_on_c, 0, 59, 71
2, 84253, Note_on_c, 0, 62, 71
2, 84294, Note_on_c, 0, 59, 0
2, 84310, Note_on_c, 0, 62, 0
2, 84344, Note_on_c, 0, 45, 0
2, 84363, Note_on_c, 0, 69, 73
2, 84364, Note_on_c, 0, 43, 57
2, 84472, Note_on_c, 0, 43, 0
2, 84487, Note_on_c, 0, 61, 73
2, 84487, Note_on_c, 0, 69, 0
2, 84489, Note_on_c, 0, 42, 67
2, 84550, Note_on_c, 0, 61, 0
2, 84558, Note_on_c, 0, 42, 0
2, 84597, Note_on_c, 0, 40, 66
2, 84607, Note_on_c, 0, 69, 68
2, 84666, Note_on_c, 0, 40, 0
2, 84720, Note_on_c, 0, 69, 0
2, 84733, Note_on_c, 0, 38, 62
2, 84736, Note_on_c, 0, 59, 64
2, 84786, Note_on_c, 0, 59, 0
2, 84833, Note_on_c, 0, 38, 0
2, 84837, Note_on_c, 0, 42, 62
2, 84840, Note_on_c, 0, 69, 72
2, 84933, Note_on_c, 0, 42, 0
2, 84960, Note_on_c, 0, 69, 0
2, 84966, Note_on_c, 0, 67, 64
2, 84969, Note_on_c, 0, 40, 68
2, 85036, Note_on_c, 0, 67, 0
2, 85049, Note_on_c, 0, 40, 0
2, 85076, Note_on_c, 0, 42, 64
2, 85087, Note_on_c, 0, 66, 69
2, 85169, Note_on_c, 0, 42, 0
2, 85179, Note_on_c, 0, 66, 0
2, 85204, Note_on_c, 0, 43, 57
2, 85210, Note_on_c, 0, 64, 64
2, 85270, Note_on_c, 0, 64, 0
2, 85326, Note_on_c, 0, 67, 67
2, 85445, Note_on_c, 0, 67, 0
2, 85461, Note_on_c, 0, 62, 60
2, 85464, Note_on_c, 0, 59, 55
2, 85501, Note_on_c, 0, 59, 0
2, 85501, Note_on_c, 0, 62, 0
2, 85568, Note_on_c, 0, 67, 67
2, 85699, Note_on_c, 0, 61, 71
2, 85700, Note_on_c, 0, 67, 0
2, 85710, Note_on_c, 0, 57, 61
2, 85750, Note_on_c, 0, 57, 0
2, 85758, Note_on_c, 0, 61, 0
2, 85791, Note_on_c, 0, 43, 0
2, 85814, Note_on_c, 0, 42, 56
2, 85819, Note_on_c, 0, 67, 71
2, 85904, Note_on_c, 0, 42, 0
2, 85941, Note_on_c, 0, 59, 78
2, 85942, Note_on_c, 0, 40, 62
2, 85943, Note_on_c, 0, 67, 0
2, 86001, Note_on_c, 0, 59, 0
2, 86039, Note_on_c, 0, 40, 0
2, 86063, Note_on_c, 0, 38, 63
2, 86076, Note_on_c, 0, 67, 77
2, 86158, Note_on_c, 0, 38, 0
2, 86168, Note_on_c, 0, 67, 0
2, 86190, Note_on_c, 0, 37, 68
2, 86196, Note_on_c, 0, 57, 73
2, 86262, Note_on_c, 0, 37, 0
2, 86282, Note_on_c, 0, 57, 0
2, 86299, Note_on_c, 0, 67, 76
2, 86306, Note_on_c, 0, 40, 69
2, 86364, Note_on_c, 0, 67, 0
2, 86381, Note_on_c, 0, 40, 0
2, 86412, Note_on_c, 0, 66, 81
2, 86420, Note_on_c, 0, 38, 64
2, 86525, Note_on_c, 0, 66, 0
2, 86527, Note_on_c, 0, 38, 0
2, 86533, Note_on_c, 0, 74, 74
2, 86542, Note_on_c, 0, 40, 70
2, 86619, Note_on_c, 0, 40, 0
2, 86656, Note_on_c, 0, 72, 71
2, 86658, Note_on_c, 0, 42, 66
2, 86708, Note_on_c, 0, 42, 0
2, 86711, Note_on_c, 0, 74, 0
2, 86761, Note_on_c, 0, 38, 65
2, 86770, Note_on_c, 0, 71, 70
2, 86773, Note_on_c, 0, 72, 0
2, 86867, Note_on_c, 0, 38, 0
2, 86885, Note_on_c, 0, 71, 0
2, 86900, Note_on_c, 0, 69, 80
2, 86908, Note_on_c, 0, 43, 70
2, 86950, Note_on_c, 0, 43, 0
2, 86962, Note_on_c, 0, 69, 0
2, 86999, Note_on_c, 0, 38, 67
2, 87017, Note_on_c, 0, 67, 73
2, 87127, Note_on_c, 0, 38, 0
2, 87135, Note_on_c, 0, 45, 84
2, 87136, Note_on_c, 0, 66, 79
2, 87139, Note_on_c, 0, 67, 0
2, 87191, Note_on_c, 0, 45, 0
2, 87250, Note_on_c, 0, 64, 74
2, 87254, Note_on_c, 0, 38, 67
2, 87257, Note_on_c, 0, 66, 0
2, 87363, Note_on_c, 0, 38, 0
2, 87375, Note_on_c, 0, 62, 83
2, 87376, Note_on_c, 0, 64, 0
2, 87384, Note_on_c, 0, 47, 85
2, 87443, Note_on_c, 0, 47, 0
2, 87457, Note_on_c, 0, 62, 0
2, 87488, Note_on_c, 0, 38, 72
2, 87488, Note_on_c, 0, 60, 79
2, 87607, Note_on_c, 0, 38, 0
2, 87613, Note_on_c, 0, 60, 0
2, 87621, Note_on_c, 0, 59, 78
2, 87625, Note_on_c, 0, 48, 86
2, 87689, Note_on_c, 0, 48, 0
2, 87711, Note_on_c, 0, 59, 0
2, 87727, Note_on_c, 0, 38, 77
2, 87731, Note_on_c, 0, 57, 77
2, 87822, Note_on_c, 0, 57, 0
2, 87856, Control_c, 0, 64, 54
2, 87858, Note_on_c, 0, 38, 0
2, 87863, Note_on_c, 0, 47, 86
2, 87870, Note_on_c, 0, 55, 74
2, 87872, Control_c, 0, 64, 68
2, 87887, Control_c, 0, 64, 76
2, 87901, Control_c, 0, 64, 84
2, 87907, Note_on_c, 0, 47, 0
2, 87917, Control_c, 0, 64, 89
2, 87917, Note_on_c, 0, 55, 0
2, 87932, Control_c, 0, 64, 91
2, 87946, Control_c, 0, 64, 93
2, 87962, Control_c, 0, 64, 93
2, 87977, Control_c, 0, 64, 94
2, 87980, Note_on_c, 0, 55, 77
2, 87990, Note_on_c, 0, 57, 75
2, 87993, Control_c, 0, 64, 94
2, 88039, Control_c, 0, 64, 94
2, 88048, Note_on_c, 0, 57, 0
2, 88059, Note_on_c, 0, 55, 0
2, 88068, Control_c, 0, 64, 89
2, 88084, Control_c, 0, 64, 76
2, 88099, Control_c, 0, 64, 0
2, 88110, Note_on_c, 0, 59, 76
2, 88114, Note_on_c, 0, 53, 74
2, 88177, Note_on_c, 0, 59, 0
2, 88203, Note_on_c, 0, 53, 0
2, 88231, Note_on_c, 0, 52, 78
2, 88232, Note_on_c, 0, 55, 70
2, 88302, Note_on_c, 0, 52, 0
2, 88320, Note_on_c, 0, 55, 0
2, 88346, Note_on_c, 0, 60, 84
2, 88361, Note_on_c, 0, 50, 74
2, 88405, Note_on_c, 0, 50, 0
2, 88415, Note_on_c, 0, 60, 0
2, 88472, Note_on_c, 0, 55, 68
2, 88479, Note_on_c, 0, 48, 63
2, 88557, Note_on_c, 0, 55, 0
2, 88595, Note_on_c, 0, 62, 88
2, 88600, Note_on_c, 0, 48, 0
2, 88607, Note_on_c, 0, 47, 79
2, 88660, Note_on_c, 0, 62, 0
2, 88683, Note_on_c, 0, 47, 0
2, 88711, Note_on_c, 0, 55, 71
2, 88726, Note_on_c, 0, 45, 75
2, 88801, Note_on_c, 0, 45, 0
2, 88809, Note_on_c, 0, 55, 0
2, 88836, Note_on_c, 0, 64, 89
2, 88849, Note_on_c, 0, 43, 77
2, 88903, Note_on_c, 0, 64, 0
2, 88922, Note_on_c, 0, 43, 0
2, 88950, Note_on_c, 0, 55, 73
2, 88957, Note_on_c, 0, 41, 77
2, 89047, Note_on_c, 0, 41, 0
2, 89064, Note_on_c, 0, 55, 0
2, 89073, Note_on_c, 0, 65, 91
2, 89079, Note_on_c, 0, 40, 80
2, 89142, Note_on_c, 0, 65, 0
2, 89151, Note_on_c, 0, 40, 0
2, 89181, Note_on_c, 0, 38, 74
2, 89187, Note_on_c, 0, 55, 78
2, 89266, Note_on_c, 0, 38, 0
2, 89307, Note_on_c, 0, 55, 0
2, 89316, Note_on_c, 0, 36, 79
2, 89324, Note_on_c, 0, 64, 88
2, 89402, Note_on_c, 0, 64, 0
2, 89442, Note_on_c, 0, 38, 72
2, 89445, Note_on_c, 0, 72, 79
2, 89448, Note_on_c, 0, 36, 0
2, 89528, Note_on_c, 0, 38, 0
2, 89559, Note_on_c, 0, 71, 80
2, 89559, Note_on_c, 0, 72, 0
2, 89565, Note_on_c, 0, 40, 73
2, 89641, Note_on_c, 0, 71, 0
2, 89658, Note_on_c, 0, 40, 0
2, 89675, Note_on_c, 0, 42, 66
2, 89676, Note_on_c, 0, 74, 74
2, 89797, Note_on_c, 0, 69, 88
2, 89803, Note_on_c, 0, 42, 0
2, 89804, Note_on_c, 0, 74, 0
2, 89806, Note_on_c, 0, 44, 78
2, 89855, Note_on_c, 0, 69, 0
2, 89879, Note_on_c, 0, 44, 0
2, 89920, Note_on_c, 0, 74, 78
2, 89931, Note_on_c, 0, 45, 69
2, 90039, Note_on_c, 0, 45, 0
2, 90046, Note_on_c, 0, 47, 76
2, 90050, Note_on_c, 0, 68, 91
2, 90058, Note_on_c, 0, 74, 0
2, 90126, Note_on_c, 0, 68, 0
2, 90133, Note_on_c, 0, 47, 0
2, 90157, Note_on_c, 0, 48, 74
2, 90160, Note_on_c, 0, 74, 83
2, 90275, Note_on_c, 0, 48, 0
2, 90287, Note_on_c, 0, 50, 81
2, 90291, Note_on_c, 0, 66, 89
2, 90303, Note_on_c, 0, 74, 0
2, 90356, Note_on_c, 0, 50, 0
2, 90368, Note_on_c, 0, 66, 0
2, 90399, Note_on_c, 0, 52, 78
2, 90403, Note_on_c, 0, 74, 85
2, 90522, Note_on_c, 0, 74, 0
2, 90527, Note_on_c, 0, 64, 85
2, 90536, Note_on_c, 0, 54, 78
2, 90548, Note_on_c, 0, 52, 0
2, 90615, Note_on_c, 0, 64, 0
2, 90639, Note_on_c, 0, 74, 87
2, 90654, Note_on_c, 0, 56, 79
2, 90667, Note_on_c, 0, 54, 0
2, 90755, Note_on_c, 0, 56, 0
2, 90772, Note_on_c, 0, 72, 88
2, 90784, Note_on_c, 0, 57, 73
2, 90784, Note_on_c, 0, 74, 0
2, 90849, Note_on_c, 0, 72, 0
2, 90890, Note_on_c, 0, 69, 89
2, 90903, Note_on_c, 0, 55, 75
2, 90906, Note_on_c, 0, 57, 0
2, 90994, Note_on_c, 0, 55, 0
2, 91006, Note_on_c, 0, 54, 76
2, 91019, Note_on_c, 0, 71, 88
2, 91020, Note_on_c, 0, 69, 0
2, 91072, Note_on_c, 0, 54, 0
2, 91111, Note_on_c, 0, 57, 71
2, 91128, Note_on_c, 0, 73, 89
2, 91136, Note_on_c, 0, 71, 0
2, 91247, Note_on_c, 0, 75, 89
2, 91248, Note_on_c, 0, 52, 79
2, 91249, Note_on_c, 0, 57, 0
2, 91261, Note_on_c, 0, 73, 0
2, 91304, Note_on_c, 0, 75, 0
2, 91317, Note_on_c, 0, 52, 0
2, 91355, Note_on_c, 0, 57, 76
2, 91359, Note_on_c, 0, 76, 92
2, 91472, Note_on_c, 0, 57, 0
2, 91490, Note_on_c, 0, 51, 80
2, 91491, Note_on_c, 0, 78, 94
2, 91493, Note_on_c, 0, 76, 0
2, 91562, Note_on_c, 0, 78, 0
2, 91564, Note_on_c, 0, 51, 0
2, 91591, Note_on_c, 0, 57, 70
2, 91601, Note_on_c, 0, 79, 92
2, 91715, Note_on_c, 0, 57, 0
2, 91719, Note_on_c, 0, 49, 81
2, 91725, Note_on_c, 0, 79, 0
2, 91725, Note_on_c, 0, 81, 95
2, 91795, Note_on_c, 0, 49, 0
2, 91825, Note_on_c, 0, 57, 75
2, 91825, Note_on_c, 0, 83, 93
2, 91837, Note_on_c, 0, 81, 0
2, 91941, Note_on_c, 0, 83, 0
2, 91951, Note_on_c, 0, 57, 0
2, 91952, Note_on_c, 0, 84, 94
2, 91959, Note_on_c, 0, 47, 87
2, 92016, Note_on_c, 0, 84, 0
2, 92037, Note_on_c, 0, 47, 0
2, 92062, Note_on_c, 0, 57, 82
2, 92065, Note_on_c, 0, 75, 89
2, 92140, Note_on_c, 0, 75, 0
2, 92174, Note_on_c, 0, 57, 0
2, 92208, Note_on_c, 0, 76, 94
2, 92209, Note_on_c, 0, 55, 80
2, 92232, Control_c, 0, 64, 68
2, 92248, Control_c, 0, 64, 79
2, 92259, Note_on_c, 0, 76, 0
2, 92263, Control_c, 0, 64, 97
2, 92279, Control_c, 0, 64, 108
2, 92281, Note_on_c, 0, 55, 0
2, 92294, Control_c, 0, 64, 116
2, 92308, Control_c, 0, 64, 120
2, 92324, Control_c, 0, 64, 125
2, 92339, Control_c, 0, 64, 127
2, 92415, Control_c, 0, 64, 124
2, 92429, Control_c, 0, 64, 103
2, 92445, Control_c, 0, 64, 78
2, 92460, Control_c, 0, 64, 0
2, 92477, Note_on_c, 0, 78, 95
2, 92478, Note_on_c, 0, 60, 81
2, 92540, Note_on_c, 0, 60, 0
2, 92558, Note_on_c, 0, 78, 0
2, 92581, Note_on_c, 0, 76, 72
2, 92587, Note_on_c, 0, 77, 73
2, 92662, Note_on_c, 0, 77, 0
2, 92699, Note_on_c, 0, 59, 84
2, 92708, Note_on_c, 0, 75, 89
2, 92717, Note_on_c, 0, 76, 0
2, 92747, Note_on_c, 0, 59, 0
2, 92766, Note_on_c, 0, 75, 0
2, 92812, Note_on_c, 0, 76, 86
2, 92894, Note_on_c, 0, 76, 0
2, 92940, Note_on_c, 0, 78, 99
2, 92945, Note_on_c, 0, 57, 80
2, 92948, Control_c, 0, 64, 68
2, 92971, Control_c, 0, 64, 80
2, 92986, Control_c, 0, 64, 94
2, 92995, Note_on_c, 0, 78, 0
2, 93002, Control_c, 0, 64, 104
2, 93006, Note_on_c, 0, 57, 0
2, 93017, Control_c, 0, 64, 107
2, 93031, Control_c, 0, 64, 108
2, 93047, Control_c, 0, 64, 109
2, 93062, Control_c, 0, 64, 110
2, 93078, Control_c, 0, 64, 112
2, 93093, Control_c, 0, 64, 113
2, 93153, Control_c, 0, 64, 113
2, 93169, Control_c, 0, 64, 105
2, 93184, Control_c, 0, 64, 84
2, 93199, Control_c, 0, 64, 0
2, 93208, Note_on_c, 0, 79, 95
2, 93210, Note_on_c, 0, 59, 77
2, 93282, Note_on_c, 0, 59, 0
2, 93317, Note_on_c, 0, 78, 93
2, 93343, Note_on_c, 0, 79, 0
2, 93429, Note_on_c, 0, 78, 0
2, 93435, Note_on_c, 0, 47, 82
2, 93443, Note_on_c, 0, 76, 90
2, 93479, Note_on_c, 0, 47, 0
2, 93542, Note_on_c, 0, 78, 88
2, 93551, Note_on_c, 0, 76, 0
2, 93626, Note_on_c, 0, 78, 0
2, 93670, Control_c, 0, 64, 61
2, 93677, Note_on_c, 0, 79, 94
2, 93685, Note_on_c, 0, 52, 75
2, 93686, Control_c, 0, 64, 71
2, 93701, Control_c, 0, 64, 82
2, 93717, Control_c, 0, 64, 94
2, 93738, Note_on_c, 0, 79, 0
2, 93739, Control_c, 0, 64, 102
2, 93754, Control_c, 0, 64, 105
2, 93770, Control_c, 0, 64, 106
2, 93785, Control_c, 0, 64, 107
2, 93797, Note_on_c, 0, 52, 0
2, 93799, Note_on_c, 0, 54, 73
2, 93800, Control_c, 0, 64, 107
2, 93860, Control_c, 0, 64, 102
2, 93875, Control_c, 0, 64, 88
2, 93891, Control_c, 0, 64, 65
2, 93906, Control_c, 0, 64, 0
2, 93906, Note_on_c, 0, 54, 0
2, 93928, Note_on_c, 0, 55, 66
2, 93935, Note_on_c, 0, 78, 97
2, 94000, Note_on_c, 0, 78, 0
2, 94010, Note_on_c, 0, 55, 0
2, 94041, Note_on_c, 0, 52, 69
2, 94131, Note_on_c, 0, 52, 0
2, 94166, Note_on_c, 0, 76, 95
2, 94177, Note_on_c, 0, 57, 78
2, 94218, Note_on_c, 0, 76, 0
2, 94237, Note_on_c, 0, 57, 0
2, 94277, Note_on_c, 0, 52, 63
2, 94401, Note_on_c, 0, 52, 0
2, 94407, Note_on_c, 0, 71, 92
2, 94414, Note_on_c, 0, 59, 79
2, 94478, Note_on_c, 0, 71, 0
2, 94480, Note_on_c, 0, 59, 0
2, 94527, Note_on_c, 0, 52, 71
2, 94647, Note_on_c, 0, 52, 0
2, 94658, Note_on_c, 0, 81, 95
2, 94667, Note_on_c, 0, 61, 80
2, 94732, Note_on_c, 0, 61, 0
2, 94780, Note_on_c, 0, 52, 63
2, 94902, Note_on_c, 0, 52, 0
2, 94907, Note_on_c, 0, 63, 88
2, 94976, Note_on_c, 0, 63, 0
2, 95016, Note_on_c, 0, 52, 72
2, 95124, Note_on_c, 0, 52, 0
2, 95143, Note_on_c, 0, 79, 82
2, 95153, Note_on_c, 0, 64, 84
2, 95173, Note_on_c, 0, 81, 0
2, 95208, Note_on_c, 0, 79, 0
2, 95252, Note_on_c, 0, 64, 0
2, 95256, Note_on_c, 0, 63, 80
2, 95368, Note_on_c, 0, 63, 0
2, 95384, Note_on_c, 0, 64, 79
2, 95390, Note_on_c, 0, 78, 89
2, 95447, Note_on_c, 0, 78, 0
2, 95465, Note_on_c, 0, 64, 0
2, 95491, Note_on_c, 0, 66, 81
2, 95594, Note_on_c, 0, 66, 0
2, 95623, Note_on_c, 0, 67, 77
2, 95626, Note_on_c, 0, 76, 93
2, 95683, Note_on_c, 0, 76, 0
2, 95694, Note_on_c, 0, 67, 0
2, 95729, Note_on_c, 0, 64, 74
2, 95857, Note_on_c, 0, 64, 0
2, 95860, Note_on_c, 0, 75, 94
2, 95868, Note_on_c, 0, 66, 75
2, 95933, Note_on_c, 0, 75, 0
2, 95946, Note_on_c, 0, 66, 0
2, 95978, Note_on_c, 0, 64, 68
2, 96118, Note_on_c, 0, 84, 97
2, 96120, Note_on_c, 0, 66, 71
2, 96123, Note_on_c, 0, 64, 0
2, 96239, Note_on_c, 0, 67, 77
2, 96242, Note_on_c, 0, 66, 0
2, 96329, Note_on_c, 0, 67, 0
2, 96357, Note_on_c, 0, 69, 77
2, 96445, Note_on_c, 0, 69, 0
2, 96463, Note_on_c, 0, 66, 78
2, 96544, Note_on_c, 0, 66, 0
2, 96590, Control_c, 0, 64, 57
2, 96599, Note_on_c, 0, 83, 88
2, 96605, Note_on_c, 0, 84, 0
2, 96606, Control_c, 0, 64, 69
2, 96614, Note_on_c, 0, 67, 79
2, 96621, Control_c, 0, 64, 78
2, 96636, Control_c, 0, 64, 88
2, 96652, Control_c, 0, 64, 94
2, 96661, Note_on_c, 0, 83, 0
2, 96667, Control_c, 0, 64, 97
2, 96670, Note_on_c, 0, 67, 0
2, 96683, Control_c, 0, 64, 101
2, 96698, Control_c, 0, 64, 104
2, 96712, Control_c, 0, 64, 106
2, 96728, Control_c, 0, 64, 108
2, 96743, Control_c, 0, 64, 108
2, 96811, Control_c, 0, 64, 105
2, 96826, Control_c, 0, 64, 94
2, 96842, Control_c, 0, 64, 76
2, 96857, Control_c, 0, 64, 0
2, 96865, Note_on_c, 0, 69, 72
2, 96875, Note_on_c, 0, 84, 85
2, 96969, Note_on_c, 0, 69, 0
2, 96972, Note_on_c, 0, 67, 70
2, 96977, Note_on_c, 0, 83, 82
2, 97013, Note_on_c, 0, 84, 0
2, 97062, Note_on_c, 0, 67, 0
2, 97086, Note_on_c, 0, 66, 77
2, 97089, Note_on_c, 0, 81, 82
2, 97111, Note_on_c, 0, 83, 0
2, 97150, Note_on_c, 0, 66, 0
2, 97194, Note_on_c, 0, 64, 75
2, 97195, Note_on_c, 0, 81, 0
2, 97200, Note_on_c, 0, 79, 83
2, 97279, Note_on_c, 0, 64, 0
2, 97300, Note_on_c, 0, 79, 0
2, 97316, Note_on_c, 0, 69, 75
2, 97319, Note_on_c, 0, 78, 82
2, 97402, Note_on_c, 0, 78, 0
2, 97590, Note_on_c, 0, 81, 84
2, 97700, Note_on_c, 0, 79, 77
2, 97721, Note_on_c, 0, 81, 0
2, 97814, Note_on_c, 0, 78, 74
2, 97828, Note_on_c, 0, 79, 0
2, 97916, Note_on_c, 0, 76, 71
2, 97916, Note_on_c, 0, 78, 0
2, 98022, Note_on_c, 0, 76, 0
2, 98041, Note_on_c, 0, 75, 68
2, 98116, Note_on_c, 0, 75, 0
2, 98140, Note_on_c, 0, 69, 0
2, 98155, Note_on_c, 0, 67, 60
2, 98279, Note_on_c, 0, 67, 0
2, 98282, Note_on_c, 0, 81, 74
2, 98283, Note_on_c, 0, 66, 73
2, 98348, Note_on_c, 0, 66, 0
2, 98364, Note_on_c, 0, 81, 0
2, 98404, Note_on_c, 0, 69, 65
2, 98512, Note_on_c, 0, 69, 0
2, 98533, Note_on_c, 0, 64, 71
2, 98535, Note_on_c, 0, 79, 73
2, 98596, Note_on_c, 0, 64, 0
2, 98617, Note_on_c, 0, 79, 0
2, 98642, Note_on_c, 0, 69, 60
2, 98765, Note_on_c, 0, 69, 0
2, 98771, Note_on_c, 0, 78, 71
2, 98775, Note_on_c, 0, 63, 80
2, 98834, Note_on_c, 0, 63, 0
2, 98843, Note_on_c, 0, 78, 0
2, 98889, Note_on_c, 0, 69, 59
2, 99007, Note_on_c, 0, 69, 0
2, 99016, Note_on_c, 0, 76, 73
2, 99018, Note_on_c, 0, 61, 78
2, 99070, Note_on_c, 0, 61, 0
2, 99079, Note_on_c, 0, 76, 0
2, 99134, Note_on_c, 0, 69, 70
2, 99239, Note_on_c, 0, 69, 0
2, 99263, Note_on_c, 0, 59, 79
2, 99265, Note_on_c, 0, 75, 69
2, 99309, Note_on_c, 0, 75, 0
2, 99321, Note_on_c, 0, 59, 0
2, 99364, Note_on_c, 0, 69, 75
2, 99460, Note_on_c, 0, 69, 0
2, 99480, Control_c, 0, 64, 42
2, 99495, Control_c, 0, 64, 66
2, 99504, Note_on_c, 0, 67, 86
2, 99507, Note_on_c, 0, 76, 69
2, 99510, Control_c, 0, 64, 73
2, 99526, Control_c, 0, 64, 82
2, 99541, Control_c, 0, 64, 87
2, 99552, Note_on_c, 0, 76, 0
2, 99556, Control_c, 0, 64, 91
2, 99572, Control_c, 0, 64, 94
2, 99572, Note_on_c, 0, 67, 0
2, 99586, Control_c, 0, 64, 96
2, 99602, Control_c, 0, 64, 98
2, 99617, Control_c, 0, 64, 100
2, 99693, Control_c, 0, 64, 99
2, 99708, Control_c, 0, 64, 94
2, 99723, Control_c, 0, 64, 79
2, 99738, Control_c, 0, 64, 56
2, 99753, Control_c, 0, 64, 0
2, 99764, Note_on_c, 0, 66, 75
2, 99776, Note_on_c, 0, 74, 69
2, 99823, Note_on_c, 0, 74, 0
2, 99887, Note_on_c, 0, 66, 0
2, 99888, Note_on_c, 0, 67, 77
2, 99980, Note_on_c, 0, 67, 0
2, 99996, Note_on_c, 0, 69, 74
2, 99999, Note_on_c, 0, 72, 72
2, 100043, Note_on_c, 0, 72, 0
2, 100100, Note_on_c, 0, 69, 0
2, 100109, Note_on_c, 0, 67, 75
2, 100200, Note_on_c, 0, 67, 0
2, 100235, Note_on_c, 0, 66, 75
2, 100235, Note_on_c, 0, 74, 68
2, 100327, Note_on_c, 0, 74, 0
2, 100350, Note_on_c, 0, 66, 0
2, 100484, Note_on_c, 0, 64, 69
2, 100490, Note_on_c, 0, 72, 76
2, 100545, Note_on_c, 0, 72, 0
2, 100580, Note_on_c, 0, 64, 0
2, 100588, Note_on_c, 0, 66, 76
2, 100705, Note_on_c, 0, 66, 0
2, 100721, Note_on_c, 0, 67, 68
2, 100727, Note_on_c, 0, 71, 73
2, 100767, Note_on_c, 0, 71, 0
2, 100805, Note_on_c, 0, 67, 0
2, 100821, Note_on_c, 0, 66, 76
2, 100929, Note_on_c, 0, 66, 0
2, 100950, Note_on_c, 0, 64, 72
2, 100953, Note_on_c, 0, 72, 76
2, 101023, Note_on_c, 0, 64, 0
2, 101059, Note_on_c, 0, 72, 0
2, 101075, Note_on_c, 0, 84, 75
2, 101198, Note_on_c, 0, 66, 79
2, 101199, Note_on_c, 0, 83, 72
2, 101199, Note_on_c, 0, 84, 0
2, 101255, Note_on_c, 0, 66, 0
2, 101280, Note_on_c, 0, 83, 0
2, 101309, Note_on_c, 0, 81, 78
2, 101431, Note_on_c, 0, 81, 0
2, 101438, Note_on_c, 0, 79, 75
2, 101442, Note_on_c, 0, 67, 80
2, 101449, Control_c, 0, 64, 62
2, 101464, Control_c, 0, 64, 72
2, 101480, Control_c, 0, 64, 82
2, 101480, Note_on_c, 0, 67, 0
2, 101494, Control_c, 0, 64, 90
2, 101509, Control_c, 0, 64, 92
2, 101525, Control_c, 0, 64, 93
2, 101525, Note_on_c, 0, 79, 0
2, 101540, Control_c, 0, 64, 93
2, 101555, Note_on_c, 0, 83, 77
2, 101678, Control_c, 0, 64, 93
2, 101688, Note_on_c, 0, 81, 74
2, 101690, Note_on_c, 0, 72, 85
2, 101693, Control_c, 0, 64, 90
2, 101708, Control_c, 0, 64, 83
2, 101720, Note_on_c, 0, 83, 0
2, 101723, Control_c, 0, 64, 73
2, 101738, Control_c, 0, 64, 27
2, 101753, Control_c, 0, 64, 0
2, 101776, Note_on_c, 0, 72, 0
2, 101810, Note_on_c, 0, 83, 69
2, 101813, Note_on_c, 0, 81, 0
2, 101942, Note_on_c, 0, 63, 73
2, 101947, Note_on_c, 0, 81, 71
2, 101965, Note_on_c, 0, 83, 0
2, 102054, Note_on_c, 0, 81, 0
2, 102065, Note_on_c, 0, 79, 73
2, 102103, Control_c, 0, 64, 23
2, 102119, Control_c, 0, 64, 58
2, 102133, Control_c, 0, 64, 65
2, 102148, Control_c, 0, 64, 69
2, 102150, Note_on_c, 0, 79, 0
2, 102164, Control_c, 0, 64, 73
2, 102185, Control_c, 0, 64, 79
2, 102194, Note_on_c, 0, 78, 72
2, 102201, Control_c, 0, 64, 83
2, 102216, Control_c, 0, 64, 84
2, 102231, Control_c, 0, 64, 85
2, 102247, Control_c, 0, 64, 86
2, 102261, Note_on_c, 0, 78, 0
2, 102262, Control_c, 0, 64, 87
2, 102266, Note_on_c, 0, 63, 0
2, 102278, Control_c, 0, 64, 87
2, 102306, Note_on_c, 0, 81, 78
2, 102430, Control_c, 0, 64, 84
2, 102435, Note_on_c, 0, 64, 80
2, 102435, Note_on_c, 0, 79, 77
2, 102446, Control_c, 0, 64, 73
2, 102454, Note_on_c, 0, 81, 0
2, 102461, Control_c, 0, 64, 0
2, 102491, Note_on_c, 0, 64, 0
2, 102514, Note_on_c, 0, 79, 0
2, 102560, Note_on_c, 0, 81, 71
2, 102674, Note_on_c, 0, 79, 74
2, 102678, Note_on_c, 0, 66, 82
2, 102687, Note_on_c, 0, 81, 0
2, 102735, Note_on_c, 0, 66, 0
2, 102761, Note_on_c, 0, 79, 0
2, 102782, Note_on_c, 0, 78, 75
2, 102876, Note_on_c, 0, 78, 0
2, 102913, Note_on_c, 0, 67, 80
2, 102913, Note_on_c, 0, 76, 72
2, 102932, Control_c, 0, 64, 59
2, 102954, Control_c, 0, 64, 68
2, 102955, Note_on_c, 0, 67, 0
2, 102970, Control_c, 0, 64, 75
2, 102984, Control_c, 0, 64, 80
2, 102991, Note_on_c, 0, 76, 0
2, 103000, Control_c, 0, 64, 83
2, 103015, Control_c, 0, 64, 85
2, 103021, Note_on_c, 0, 79, 73
2, 103029, Control_c, 0, 64, 85
2, 103045, Control_c, 0, 64, 86
2, 103060, Control_c, 0, 64, 87
2, 103091, Control_c, 0, 64, 87
2, 103151, Control_c, 0, 64, 87
2, 103154, Note_on_c, 0, 69, 84
2, 103154, Note_on_c, 0, 78, 70
2, 103167, Control_c, 0, 64, 82
2, 103183, Control_c, 0, 64, 69
2, 103190, Note_on_c, 0, 79, 0
2, 103199, Control_c, 0, 64, 0
2, 103208, Note_on_c, 0, 69, 0
2, 103261, Note_on_c, 0, 78, 0
2, 103273, Note_on_c, 0, 79, 64
2, 103411, Note_on_c, 0, 78, 72
2, 103412, Note_on_c, 0, 59, 73
2, 103449, Note_on_c, 0, 79, 0
2, 103509, Note_on_c, 0, 78, 0
2, 103515, Note_on_c, 0, 76, 74
2, 103618, Note_on_c, 0, 76, 0
2, 103650, Note_on_c, 0, 75, 70
2, 103747, Note_on_c, 0, 75, 0
2, 103763, Note_on_c, 0, 78, 71
2, 103864, Note_on_c, 0, 59, 0
2, 103876, Note_on_c, 0, 60, 67
2, 103882, Note_on_c, 0, 78, 0
2, 103890, Note_on_c, 0, 76, 74
2, 103964, Note_on_c, 0, 60, 0
2, 103989, Note_on_c, 0, 59, 72
2, 104092, Note_on_c, 0, 59, 0
2, 104118, Note_on_c, 0, 57, 67
2, 104131, Note_on_c, 0, 78, 80
2, 104151, Note_on_c, 0, 76, 0
2, 104227, Note_on_c, 0, 57, 0
2, 104232, Note_on_c, 0, 59, 65
2, 104239, Note_on_c, 0, 78, 0
2, 104240, Note_on_c, 0, 79, 78
2, 104335, Note_on_c, 0, 59, 0
2, 104361, Note_on_c, 0, 60, 67
2, 104366, Note_on_c, 0, 81, 84
2, 104375, Note_on_c, 0, 79, 0
2, 104460, Note_on_c, 0, 60, 0
2, 104466, Note_on_c, 0, 62, 78
2, 104564, Note_on_c, 0, 62, 0
2, 104600, Note_on_c, 0, 64, 79
2, 104707, Note_on_c, 0, 63, 74
2, 104712, Note_on_c, 0, 64, 0
2, 104803, Note_on_c, 0, 81, 0
2, 104818, Note_on_c, 0, 63, 0
2, 104833, Note_on_c, 0, 64, 74
2, 104839, Note_on_c, 0, 79, 80
2, 104934, Note_on_c, 0, 79, 0
2, 104938, Note_on_c, 0, 64, 0
2, 104946, Note_on_c, 0, 66, 79
2, 104947, Note_on_c, 0, 81, 87
2, 105062, Note_on_c, 0, 66, 0
2, 105064, Note_on_c, 0, 67, 84
2, 105065, Note_on_c, 0, 81, 0
2, 105081, Note_on_c, 0, 83, 80
2, 105114, Control_c, 0, 64, 13
2, 105130, Control_c, 0, 64, 62
2, 105145, Control_c, 0, 64, 69
2, 105154, Note_on_c, 0, 67, 0
2, 105161, Control_c, 0, 64, 75
2, 105176, Control_c, 0, 64, 80
2, 105183, Note_on_c, 0, 69, 86
2, 105190, Control_c, 0, 64, 83
2, 105206, Control_c, 0, 64, 83
2, 105221, Control_c, 0, 64, 84
2, 105224, Note_on_c, 0, 69, 0
2, 105320, Control_c, 0, 64, 83
2, 105320, Note_on_c, 0, 71, 92
2, 105335, Control_c, 0, 64, 79
2, 105349, Note_on_c, 0, 83, 0
2, 105350, Control_c, 0, 64, 66
2, 105365, Control_c, 0, 64, 0
2, 105433, Note_on_c, 0, 47, 68
2, 105503, Note_on_c, 0, 49, 57
2, 105516, Note_on_c, 0, 47, 0
2, 105548, Note_on_c, 0, 49, 0
2, 105551, Note_on_c, 0, 51, 74
2, 105554, Note_on_c, 0, 81, 88
2, 105618, Note_on_c, 0, 51, 0
2, 105653, Note_on_c, 0, 47, 68
2, 105762, Note_on_c, 0, 47, 0
2, 105793, Note_on_c, 0, 79, 80
2, 105800, Note_on_c, 0, 52, 83
2, 105825, Note_on_c, 0, 81, 0
2, 105856, Note_on_c, 0, 52, 0
2, 105904, Note_on_c, 0, 47, 62
2, 106015, Note_on_c, 0, 71, 0
2, 106028, Note_on_c, 0, 47, 0
2, 106046, Note_on_c, 0, 78, 82
2, 106051, Note_on_c, 0, 54, 85
2, 106062, Note_on_c, 0, 79, 0
2, 106108, Note_on_c, 0, 54, 0
2, 106132, Note_on_c, 0, 78, 0
2, 106150, Note_on_c, 0, 79, 80
2, 106153, Note_on_c, 0, 47, 70
2, 106273, Note_on_c, 0, 47, 0
2, 106286, Note_on_c, 0, 81, 85
2, 106288, Note_on_c, 0, 55, 82
2, 106294, Note_on_c, 0, 72, 79
2, 106300, Control_c, 0, 64, 48
2, 106301, Note_on_c, 0, 79, 0
2, 106315, Control_c, 0, 64, 67
2, 106331, Control_c, 0, 64, 73
2, 106345, Control_c, 0, 64, 80
2, 106355, Note_on_c, 0, 55, 0
2, 106355, Note_on_c, 0, 72, 0
2, 106356, Note_on_c, 0, 81, 0
2, 106361, Control_c, 0, 64, 83
2, 106376, Control_c, 0, 64, 84
2, 106391, Control_c, 0, 64, 85
2, 106407, Control_c, 0, 64, 86
2, 106408, Note_on_c, 0, 47, 65
2, 106436, Control_c, 0, 64, 86
2, 106452, Control_c, 0, 64, 86
2, 106484, Control_c, 0, 64, 80
2, 106499, Control_c, 0, 64, 65
2, 106513, Control_c, 0, 64, 0
2, 106520, Note_on_c, 0, 47, 0
2, 106541, Note_on_c, 0, 75, 90
2, 106542, Note_on_c, 0, 57, 79
2, 106542, Note_on_c, 0, 66, 87
2, 106559, Control_c, 0, 64, 63
2, 106574, Control_c, 0, 64, 72
2, 106589, Control_c, 0, 64, 86
2, 106605, Control_c, 0, 64, 98
2, 106611, Note_on_c, 0, 75, 0
2, 106616, Note_on_c, 0, 66, 0
2, 106619, Note_on_c, 0, 57, 0
2, 106620, Control_c, 0, 64, 106
2, 106634, Control_c, 0, 64, 108
2, 106650, Control_c, 0, 64, 108
2, 106664, Note_on_c, 0, 47, 71
2, 106772, Control_c, 0, 64, 107
2, 106782, Note_on_c, 0, 47, 0
2, 106792, Note_on_c, 0, 64, 93
2, 106794, Control_c, 0, 64, 94
2, 106799, Note_on_c, 0, 76, 81
2, 106800, Note_on_c, 0, 55, 77
2, 106810, Control_c, 0, 64, 72
2, 106820, Note_on_c, 0, 76, 0
2, 106825, Control_c, 0, 64, 0
2, 106882, Note_on_c, 0, 55, 0
2, 106901, Note_on_c, 0, 66, 86
2, 106906, Note_on_c, 0, 54, 64
2, 106914, Note_on_c, 0, 64, 0
2, 106976, Note_on_c, 0, 54, 0
2, 107026, Note_on_c, 0, 67, 78
2, 107033, Note_on_c, 0, 52, 74
2, 107035, Note_on_c, 0, 66, 0
2, 107090, Note_on_c, 0, 52, 0
2, 107145, Note_on_c, 0, 55, 60
2, 107258, Note_on_c, 0, 55, 0
2, 107274, Note_on_c, 0, 71, 72
2, 107276, Note_on_c, 0, 50, 77
2, 107315, Note_on_c, 0, 50, 0
2, 107331, Note_on_c, 0, 71, 0
2, 107396, Note_on_c, 0, 55, 52
2, 107510, Note_on_c, 0, 55, 0
2, 107522, Note_on_c, 0, 49, 81
2, 107525, Note_on_c, 0, 67, 0
2, 107528, Note_on_c, 0, 69, 82
2, 107570, Note_on_c, 0, 49, 0
2, 107646, Note_on_c, 0, 66, 69
2, 107654, Note_on_c, 0, 55, 60
2, 107744, Note_on_c, 0, 55, 0
2, 107773, Note_on_c, 0, 66, 0
2, 107774, Note_on_c, 0, 64, 74
2, 107781, Note_on_c, 0, 47, 77
2, 107818, Note_on_c, 0, 47, 0
2, 107843, Note_on_c, 0, 64, 0
2, 107874, Note_on_c, 0, 55, 67
2, 107886, Note_on_c, 0, 62, 77
2, 107988, Note_on_c, 0, 62, 0
2, 107992, Note_on_c, 0, 55, 0
2, 108016, Note_on_c, 0, 61, 74
2, 108020, Note_on_c, 0, 45, 80
2, 108067, Note_on_c, 0, 45, 0
2, 108080, Note_on_c, 0, 61, 0
2, 108116, Note_on_c, 0, 55, 70
2, 108120, Note_on_c, 0, 64, 74
2, 108175, Note_on_c, 0, 69, 0
2, 108219, Note_on_c, 0, 64, 0
2, 108223, Note_on_c, 0, 55, 0
2, 108248, Note_on_c, 0, 62, 81
2, 108252, Note_on_c, 0, 54, 75
2, 108337, Note_on_c, 0, 62, 0
2, 108346, Note_on_c, 0, 54, 0
2, 108363, Note_on_c, 0, 64, 77
2, 108367, Note_on_c, 0, 52, 65
2, 108448, Note_on_c, 0, 52, 0
2, 108494, Note_on_c, 0, 50, 70
2, 108495, Note_on_c, 0, 64, 0
2, 108502, Note_on_c, 0, 66, 78
2, 108561, Note_on_c, 0, 50, 0
2, 108614, Note_on_c, 0, 54, 62
2, 108739, Note_on_c, 0, 54, 0
2, 108751, Note_on_c, 0, 69, 75
2, 108759, Note_on_c, 0, 49, 68
2, 108802, Note_on_c, 0, 69, 0
2, 108804, Note_on_c, 0, 49, 0
2, 108860, Note_on_c, 0, 54, 55
2, 108998, Note_on_c, 0, 54, 0
2, 109001, Note_on_c, 0, 47, 77
2, 109004, Note_on_c, 0, 67, 77
2, 109005, Note_on_c, 0, 66, 0
2, 109052, Note_on_c, 0, 47, 0
2, 109113, Note_on_c, 0, 64, 67
2, 109129, Note_on_c, 0, 54, 55
2, 109199, Note_on_c, 0, 64, 0
2, 109232, Note_on_c, 0, 54, 0
2, 109251, Note_on_c, 0, 45, 67
2, 109263, Note_on_c, 0, 62, 69
2, 109299, Note_on_c, 0, 45, 0
2, 109330, Note_on_c, 0, 62, 0
2, 109360, Note_on_c, 0, 54, 60
2, 109378, Note_on_c, 0, 61, 60
2, 109443, Note_on_c, 0, 61, 0
2, 109481, Note_on_c, 0, 54, 0
2, 109493, Note_on_c, 0, 43, 65
2, 109496, Note_on_c, 0, 59, 69
2, 109544, Note_on_c, 0, 43, 0
2, 109565, Note_on_c, 0, 59, 0
2, 109603, Note_on_c, 0, 54, 55
2, 109611, Note_on_c, 0, 62, 67
2, 109639, Note_on_c, 0, 67, 0
2, 109700, Note_on_c, 0, 54, 0
2, 109729, Note_on_c, 0, 62, 0
2, 109732, Note_on_c, 0, 52, 62
2, 109733, Note_on_c, 0, 61, 68
2, 109824, Note_on_c, 0, 52, 0
2, 109831, Note_on_c, 0, 61, 0
2, 109849, Note_on_c, 0, 62, 71
2, 109865, Note_on_c, 0, 50, 56
2, 109933, Note_on_c, 0, 50, 0
2, 109967, Note_on_c, 0, 62, 0
2, 109979, Note_on_c, 0, 49, 55
2, 109987, Note_on_c, 0, 64, 69
2, 110023, Note_on_c, 0, 49, 0
2, 110091, Note_on_c, 0, 52, 55
2, 110204, Note_on_c, 0, 52, 0
2, 110228, Note_on_c, 0, 47, 67
2, 110235, Note_on_c, 0, 67, 71
2, 110275, Note_on_c, 0, 47, 0
2, 110292, Note_on_c, 0, 67, 0
2, 110341, Note_on_c, 0, 52, 51
2, 110469, Note_on_c, 0, 52, 0
2, 110487, Note_on_c, 0, 46, 67
2, 110487, Note_on_c, 0, 66, 68
2, 110508, Note_on_c, 0, 64, 0
2, 110540, Note_on_c, 0, 46, 0
2, 110600, Note_on_c, 0, 62, 63
2, 110603, Note_on_c, 0, 52, 54
2, 110707, Note_on_c, 0, 52, 0
2, 110724, Note_on_c, 0, 62, 0
2, 110736, Note_on_c, 0, 61, 67
2, 110740, Note_on_c, 0, 44, 59
2, 110788, Note_on_c, 0, 44, 0
2, 110807, Note_on_c, 0, 61, 0
2, 110848, Note_on_c, 0, 52, 54
2, 110853, Note_on_c, 0, 59, 69
2, 110930, Note_on_c, 0, 59, 0
2, 110953, Note_on_c, 0, 52, 0
2, 110983, Note_on_c, 0, 42, 61
2, 110984, Note_on_c, 0, 58, 69
2, 111050, Note_on_c, 0, 66, 0
2, 111063, Note_on_c, 0, 42, 0
2, 111065, Note_on_c, 0, 58, 0
2, 111088, Note_on_c, 0, 61, 72
2, 111093, Note_on_c, 0, 52, 58
2, 111155, Control_c, 0, 64, 35
2, 111156, Note_on_c, 0, 52, 0
2, 111170, Control_c, 0, 64, 63
2, 111172, Note_on_c, 0, 61, 0
2, 111184, Control_c, 0, 64, 68
2, 111200, Control_c, 0, 64, 73
2, 111215, Control_c, 0, 64, 78
2, 111225, Note_on_c, 0, 50, 69
2, 111225, Note_on_c, 0, 59, 67
2, 111231, Control_c, 0, 64, 80
2, 111245, Control_c, 0, 64, 81
2, 111258, Note_on_c, 0, 59, 0
2, 111260, Control_c, 0, 64, 82
2, 111319, Note_on_c, 0, 50, 0
2, 111344, Note_on_c, 0, 70, 76
2, 111351, Note_on_c, 0, 54, 64
2, 111352, Control_c, 0, 64, 80
2, 111362, Note_on_c, 0, 70, 0
2, 111367, Control_c, 0, 64, 71
2, 111372, Note_on_c, 0, 71, 73
2, 111383, Control_c, 0, 64, 0
2, 111466, Note_on_c, 0, 54, 0
2, 111474, Note_on_c, 0, 71, 0
2, 111475, Note_on_c, 0, 73, 77
2, 111488, Note_on_c, 0, 52, 67
2, 111546, Note_on_c, 0, 73, 0
2, 111584, Note_on_c, 0, 52, 0
2, 111593, Note_on_c, 0, 71, 74
2, 111609, Note_on_c, 0, 50, 63
2, 111684, Note_on_c, 0, 71, 0
2, 111688, Note_on_c, 0, 50, 0
2, 111713, Note_on_c, 0, 70, 79
2, 111718, Note_on_c, 0, 49, 70
2, 111753, Note_on_c, 0, 49, 0
2, 111797, Note_on_c, 0, 70, 0
2, 111815, Note_on_c, 0, 71, 80
2, 111822, Note_on_c, 0, 47, 68
2, 111895, Note_on_c, 0, 71, 0
2, 111904, Note_on_c, 0, 47, 0
2, 111937, Control_c, 0, 64, 52
2, 111940, Note_on_c, 0, 73, 82
2, 111949, Note_on_c, 0, 46, 72
2, 111953, Control_c, 0, 64, 67
2, 111968, Control_c, 0, 64, 75
2, 111983, Control_c, 0, 64, 83
2, 111992, Note_on_c, 0, 73, 0
2, 111999, Control_c, 0, 64, 88
2, 112013, Control_c, 0, 64, 90
2, 112028, Control_c, 0, 64, 91
2, 112044, Control_c, 0, 64, 91
2, 112045, Note_on_c, 0, 46, 0
2, 112078, Note_on_c, 0, 49, 75
2, 112104, Control_c, 0, 64, 91
2, 112120, Control_c, 0, 64, 84
2, 112135, Control_c, 0, 64, 68
2, 112151, Control_c, 0, 64, 0
2, 112183, Note_on_c, 0, 49, 0
2, 112204, Note_on_c, 0, 74, 90
2, 112216, Note_on_c, 0, 47, 74
2, 112311, Note_on_c, 0, 47, 0
2, 112311, Note_on_c, 0, 73, 80
2, 112325, Note_on_c, 0, 46, 71
2, 112341, Note_on_c, 0, 74, 0
2, 112422, Note_on_c, 0, 46, 0
2, 112432, Note_on_c, 0, 73, 0
2, 112435, Note_on_c, 0, 71, 80
2, 112443, Note_on_c, 0, 44, 76
2, 112513, Note_on_c, 0, 44, 0
2, 112541, Note_on_c, 0, 73, 87
2, 112547, Note_on_c, 0, 42, 75
2, 112551, Note_on_c, 0, 71, 0
2, 112618, Note_on_c, 0, 73, 0
2, 112625, Note_on_c, 0, 42, 0
2, 112666, Note_on_c, 0, 47, 84
2, 112675, Note_on_c, 0, 74, 88
2, 112690, Control_c, 0, 64, 62
2, 112705, Control_c, 0, 64, 72
2, 112721, Control_c, 0, 64, 83
2, 112724, Note_on_c, 0, 74, 0
2, 112734, Note_on_c, 0, 47, 0
2, 112735, Control_c, 0, 64, 90
2, 112751, Control_c, 0, 64, 94
2, 112766, Control_c, 0, 64, 96
2, 112781, Control_c, 0, 64, 97
2, 112797, Control_c, 0, 64, 98
2, 112812, Control_c, 0, 64, 99
2, 112827, Control_c, 0, 64, 99
2, 112857, Control_c, 0, 64, 99
2, 112873, Control_c, 0, 64, 96
2, 112888, Control_c, 0, 64, 84
2, 112903, Control_c, 0, 64, 58
2, 112919, Control_c, 0, 64, 0
2, 112928, Note_on_c, 0, 73, 89
2, 112933, Note_on_c, 0, 49, 81
2, 113007, Note_on_c, 0, 73, 0
2, 113029, Note_on_c, 0, 49, 0
2, 113032, Note_on_c, 0, 47, 78
2, 113131, Note_on_c, 0, 47, 0
2, 113174, Note_on_c, 0, 46, 77
2, 113175, Note_on_c, 0, 71, 85
2, 113222, Note_on_c, 0, 71, 0
2, 113256, Note_on_c, 0, 46, 0
2, 113280, Note_on_c, 0, 47, 81
2, 113407, Note_on_c, 0, 49, 85
2, 113408, Note_on_c, 0, 70, 92
2, 113418, Note_on_c, 0, 47, 0
2, 113545, Note_on_c, 0, 49, 0
2, 113667, Note_on_c, 0, 70, 0
2, 113668, Note_on_c, 0, 79, 86
2, 113677, Note_on_c, 0, 50, 79
2, 113784, Note_on_c, 0, 49, 82
2, 113785, Note_on_c, 0, 50, 0
2, 113902, Note_on_c, 0, 49, 0
2, 113903, Note_on_c, 0, 47, 81
2, 114015, Note_on_c, 0, 49, 87
2, 114026, Note_on_c, 0, 47, 0
2, 114126, Note_on_c, 0, 49, 0
2, 114144, Note_on_c, 0, 50, 88
2, 114150, Note_on_c, 0, 78, 84
2, 114196, Note_on_c, 0, 79, 0
2, 114231, Note_on_c, 0, 50, 0
2, 114411, Note_on_c, 0, 49, 86
2, 114412, Note_on_c, 0, 79, 77
2, 114431, Note_on_c, 0, 78, 0
2, 114485, Note_on_c, 0, 49, 0
2, 114534, Note_on_c, 0, 78, 77
2, 114653, Note_on_c, 0, 47, 86
2, 114662, Note_on_c, 0, 76, 78
2, 114691, Note_on_c, 0, 79, 0
2, 114700, Note_on_c, 0, 78, 0
2, 114716, Note_on_c, 0, 47, 0
2, 114731, Note_on_c, 0, 76, 0
2, 114754, Note_on_c, 0, 74, 79
2, 114889, Note_on_c, 0, 46, 89
2, 114893, Note_on_c, 0, 73, 76
2, 114904, Note_on_c, 0, 74, 0
2, 114966, Note_on_c, 0, 46, 0
2, 115164, Note_on_c, 0, 55, 85
2, 115177, Note_on_c, 0, 76, 70
2, 115182, Note_on_c, 0, 73, 0
2, 115285, Note_on_c, 0, 74, 72
2, 115305, Note_on_c, 0, 76, 0
2, 115403, Note_on_c, 0, 74, 0
2, 115408, Note_on_c, 0, 73, 73
2, 115491, Note_on_c, 0, 73, 0
2, 115522, Note_on_c, 0, 71, 69
2, 115623, Note_on_c, 0, 71, 0
2, 115647, Note_on_c, 0, 70, 63
2, 115649, Note_on_c, 0, 55, 0
2, 115650, Note_on_c, 0, 54, 69
2, 115716, Note_on_c, 0, 70, 0
2, 115748, Note_on_c, 0, 54, 0
2, 115756, Note_on_c, 0, 71, 64
2, 115772, Note_on_c, 0, 56, 65
2, 115841, Note_on_c, 0, 71, 0
2, 115850, Note_on_c, 0, 56, 0
2, 115879, Note_on_c, 0, 73, 65
2, 115891, Note_on_c, 0, 58, 64
2, 115940, Note_on_c, 0, 58, 0
2, 115944, Note_on_c, 0, 73, 0
2, 116007, Note_on_c, 0, 70, 62
2, 116013, Note_on_c, 0, 54, 58
2, 116111, Note_on_c, 0, 54, 0
2, 116111, Note_on_c, 0, 70, 0
2, 116122, Note_on_c, 0, 74, 73
2, 116138, Note_on_c, 0, 59, 68
2, 116167, Note_on_c, 0, 74, 0
2, 116186, Note_on_c, 0, 59, 0
2, 116233, Note_on_c, 0, 70, 71
2, 116236, Note_on_c, 0, 54, 61
2, 116338, Note_on_c, 0, 70, 0
2, 116356, Note_on_c, 0, 54, 0
2, 116365, Note_on_c, 0, 76, 83
2, 116372, Note_on_c, 0, 61, 77
2, 116420, Note_on_c, 0, 76, 0
2, 116429, Note_on_c, 0, 61, 0
2, 116474, Note_on_c, 0, 70, 73
2, 116481, Note_on_c, 0, 54, 68
2, 116587, Note_on_c, 0, 70, 0
2, 116599, Note_on_c, 0, 54, 0
2, 116604, Note_on_c, 0, 78, 91
2, 116613, Note_on_c, 0, 62, 82
2, 116667, Note_on_c, 0, 62, 0
2, 116684, Note_on_c, 0, 78, 0
2, 116716, Note_on_c, 0, 54, 64
2, 116720, Note_on_c, 0, 70, 79
2, 116827, Note_on_c, 0, 54, 0
2, 116839, Note_on_c, 0, 70, 0
2, 116851, Note_on_c, 0, 79, 88
2, 116852, Note_on_c, 0, 64, 88
2, 116884, Control_c, 0, 64, 63
2, 116899, Control_c, 0, 64, 76
2, 116903, Note_on_c, 0, 64, 0
2, 116914, Control_c, 0, 64, 89
2, 116922, Note_on_c, 0, 79, 0
2, 116930, Control_c, 0, 64, 98
2, 116944, Control_c, 0, 64, 102
2, 116960, Control_c, 0, 64, 103
2, 116965, Note_on_c, 0, 54, 65
2, 116968, Note_on_c, 0, 70, 81
2, 116975, Control_c, 0, 64, 104
2, 116990, Control_c, 0, 64, 105
2, 117005, Control_c, 0, 64, 106
2, 117066, Control_c, 0, 64, 105
2, 117076, Note_on_c, 0, 54, 0
2, 117079, Note_on_c, 0, 70, 0
2, 117081, Control_c, 0, 64, 92
2, 117094, Note_on_c, 0, 78, 96
2, 117096, Control_c, 0, 64, 68
2, 117102, Note_on_c, 0, 62, 80
2, 117112, Control_c, 0, 64, 0
2, 117187, Note_on_c, 0, 78, 0
2, 117208, Note_on_c, 0, 62, 0
2, 117212, Note_on_c, 0, 70, 83
2, 117231, Note_on_c, 0, 54, 74
2, 117281, Note_on_c, 0, 70, 0
2, 117329, Note_on_c, 0, 54, 0
2, 117333, Note_on_c, 0, 71, 80
2, 117344, Note_on_c, 0, 55, 73
2, 117412, Note_on_c, 0, 71, 0
2, 117419, Note_on_c, 0, 55, 0
2, 117451, Note_on_c, 0, 78, 81
2, 117482, Note_on_c, 0, 62, 58
2, 117563, Note_on_c, 0, 62, 0
2, 117575, Note_on_c, 0, 78, 0
2, 117593, Note_on_c, 0, 76, 76
2, 117601, Note_on_c, 0, 61, 82
2, 117644, Note_on_c, 0, 74, 66
2, 117660, Note_on_c, 0, 61, 0
2, 117667, Note_on_c, 0, 59, 56
2, 117681, Note_on_c, 0, 58, 71
2, 117686, Note_on_c, 0, 76, 0
2, 117698, Note_on_c, 0, 73, 76
2, 117698, Note_on_c, 0, 74, 0
2, 117727, Note_on_c, 0, 59, 0
2, 117737, Note_on_c, 0, 58, 0
2, 117738, Note_on_c, 0, 59, 63
2, 117764, Note_on_c, 0, 73, 0
2, 117767, Note_on_c, 0, 74, 61
2, 117804, Note_on_c, 0, 59, 0
2, 117830, Note_on_c, 0, 61, 73
2, 117830, Note_on_c, 0, 76, 81
2, 117834, Note_on_c, 0, 74, 0
2, 117928, Note_on_c, 0, 76, 0
2, 117941, Note_on_c, 0, 61, 0
2, 117947, Note_on_c, 0, 52, 64
2, 117965, Note_on_c, 0, 68, 78
2, 118052, Note_on_c, 0, 68, 0
2, 118053, Note_on_c, 0, 52, 0
2, 118075, Note_on_c, 0, 54, 64
2, 118083, Note_on_c, 0, 70, 74
2, 118158, Note_on_c, 0, 54, 0
2, 118158, Note_on_c, 0, 70, 0
2, 118196, Note_on_c, 0, 76, 73
2, 118202, Note_on_c, 0, 61, 67
2, 118264, Note_on_c, 0, 61, 0
2, 118299, Note_on_c, 0, 76, 0
2, 118312, Note_on_c, 0, 59, 70
2, 118318, Note_on_c, 0, 74, 71
2, 118364, Note_on_c, 0, 73, 64
2, 118383, Note_on_c, 0, 59, 0
2, 118389, Note_on_c, 0, 74, 0
2, 118412, Note_on_c, 0, 56, 67
2, 118413, Note_on_c, 0, 73, 0
2, 118429, Note_on_c, 0, 71, 67
2, 118455, Note_on_c, 0, 56, 0
2, 118467, Note_on_c, 0, 58, 5
2, 118486, Note_on_c, 0, 71, 0
2, 118487, Note_on_c, 0, 73, 58
2, 118543, Note_on_c, 0, 58, 0
2, 118561, Note_on_c, 0, 73, 0
2, 118564, Note_on_c, 0, 74, 76
2, 118575, Note_on_c, 0, 59, 66
2, 118670, Note_on_c, 0, 59, 0
2, 118696, Note_on_c, 0, 61, 63
2, 118802, Note_on_c, 0, 61, 0
2, 118815, Note_on_c, 0, 62, 71
2, 118869, Note_on_c, 0, 62, 0
2, 118920, Note_on_c, 0, 59, 62
2, 119019, Note_on_c, 0, 59, 0
2, 119052, Note_on_c, 0, 64, 73
2, 119114, Note_on_c, 0, 64, 0
2, 119178, Note_on_c, 0, 59, 65
2, 119291, Note_on_c, 0, 59, 0
2, 119294, Note_on_c, 0, 66, 80
2, 119355, Note_on_c, 0, 66, 0
2, 119418, Note_on_c, 0, 59, 69
2, 119527, Note_on_c, 0, 59, 0
2, 119537, Note_on_c, 0, 68, 84
2, 119605, Note_on_c, 0, 68, 0
2, 119658, Note_on_c, 0, 59, 67
2, 119778, Note_on_c, 0, 69, 77
2, 119782, Control_c, 0, 64, 18
2, 119782, Note_on_c, 0, 47, 68
2, 119783, Note_on_c, 0, 59, 0
2, 119798, Control_c, 0, 64, 68
2, 119813, Control_c, 0, 64, 76
2, 119827, Control_c, 0, 64, 86
2, 119831, Note_on_c, 0, 69, 0
2, 119851, Control_c, 0, 64, 91
2, 119851, Note_on_c, 0, 47, 0
2, 119866, Control_c, 0, 64, 94
2, 119882, Control_c, 0, 64, 96
2, 119897, Control_c, 0, 64, 98
2, 119898, Note_on_c, 0, 59, 68
2, 119911, Control_c, 0, 64, 101
2, 119927, Control_c, 0, 64, 103
2, 119942, Control_c, 0, 64, 105
2, 119973, Control_c, 0, 64, 106
2, 119987, Control_c, 0, 64, 105
2, 120018, Control_c, 0, 64, 104
2, 120032, Control_c, 0, 64, 91
2, 120035, Note_on_c, 0, 59, 0
2, 120041, Note_on_c, 0, 52, 74
2, 120041, Note_on_c, 0, 68, 72
2, 120048, Control_c, 0, 64, 72
2, 120063, Control_c, 0, 64, 0
2, 120095, Note_on_c, 0, 68, 0
2, 120151, Note_on_c, 0, 52, 0
2, 120155, Note_on_c, 0, 54, 70
2, 120272, Note_on_c, 0, 54, 0
2, 120283, Note_on_c, 0, 56, 74
2, 120291, Note_on_c, 0, 64, 71
2, 120334, Note_on_c, 0, 64, 0
2, 120349, Note_on_c, 0, 56, 0
2, 120396, Note_on_c, 0, 52, 72
2, 120511, Note_on_c, 0, 52, 0
2, 120523, Note_on_c, 0, 66, 78
2, 120524, Note_on_c, 0, 57, 84
2, 120576, Note_on_c, 0, 66, 0
2, 120583, Note_on_c, 0, 57, 0
2, 120634, Note_on_c, 0, 52, 69
2, 120762, Note_on_c, 0, 52, 0
2, 120775, Note_on_c, 0, 59, 86
2, 120780, Note_on_c, 0, 68, 79
2, 120835, Note_on_c, 0, 59, 0
2, 120852, Note_on_c, 0, 68, 0
2, 120885, Note_on_c, 0, 52, 69
2, 121011, Note_on_c, 0, 52, 0
2, 121020, Note_on_c, 0, 61, 92
2, 121029, Note_on_c, 0, 69, 82
2, 121092, Note_on_c, 0, 69, 0
2, 121093, Note_on_c, 0, 61, 0
2, 121125, Note_on_c, 0, 52, 73
2, 121271, Note_on_c, 0, 52, 0
2, 121271, Note_on_c, 0, 71, 79
2, 121277, Note_on_c, 0, 62, 94
2, 121316, Control_c, 0, 64, 67
2, 121332, Control_c, 0, 64, 75
2, 121340, Note_on_c, 0, 71, 0
2, 121345, Note_on_c, 0, 62, 0
2, 121347, Control_c, 0, 64, 86
2, 121361, Control_c, 0, 64, 92
2, 121384, Control_c, 0, 64, 95
2, 121397, Note_on_c, 0, 52, 74
2, 121399, Control_c, 0, 64, 96
2, 121415, Control_c, 0, 64, 96
2, 121506, Control_c, 0, 64, 93
2, 121519, Note_on_c, 0, 74, 0
2, 121520, Control_c, 0, 64, 81
2, 121533, Note_on_c, 0, 52, 0
2, 121533, Note_on_c, 0, 61, 87
2, 121534, Note_on_c, 0, 64, 79
2, 121536, Control_c, 0, 64, 58
2, 121551, Control_c, 0, 64, 0
2, 121646, Note_on_c, 0, 64, 0
2, 121682, Note_on_c, 0, 66, 65
2, 121719, Note_on_c, 0, 68, 72
2, 121749, Note_on_c, 0, 66, 0
2, 121772, Note_on_c, 0, 68, 0
2, 121784, Note_on_c, 0, 69, 75
2, 121863, Note_on_c, 0, 69, 0
2, 121872, Note_on_c, 0, 61, 0
2, 121906, Note_on_c, 0, 64, 73
2, 121909, Note_on_c, 0, 62, 73
2, 121997, Note_on_c, 0, 64, 0
2, 122014, Note_on_c, 0, 62, 0
2, 122025, Note_on_c, 0, 61, 71
2, 122027, Note_on_c, 0, 71, 82
2, 122094, Note_on_c, 0, 71, 0
2, 122109, Note_on_c, 0, 61, 0
2, 122133, Note_on_c, 0, 59, 74
2, 122154, Note_on_c, 0, 64, 80
2, 122227, Note_on_c, 0, 59, 0
2, 122246, Note_on_c, 0, 64, 0
2, 122263, Note_on_c, 0, 57, 76
2, 122266, Note_on_c, 0, 73, 87
2, 122321, Note_on_c, 0, 57, 0
2, 122342, Note_on_c, 0, 73, 0
2, 122378, Note_on_c, 0, 59, 75
2, 122379, Note_on_c, 0, 64, 80
2, 122457, Note_on_c, 0, 64, 0
2, 122468, Note_on_c, 0, 59, 0
2, 122505, Note_on_c, 0, 74, 87
2, 122506, Note_on_c, 0, 57, 78
2, 122571, Note_on_c, 0, 57, 0
2, 122585, Note_on_c, 0, 74, 0
2, 122607, Note_on_c, 0, 55, 79
2, 122621, Note_on_c, 0, 66, 93
2, 122694, Note_on_c, 0, 66, 0
2, 122734, Note_on_c, 0, 49, 73
2, 122741, Note_on_c, 0, 55, 0
2, 122743, Note_on_c, 0, 76, 92
2, 122746, Note_on_c, 0, 54, 73
2, 122802, Note_on_c, 0, 76, 0
2, 122835, Note_on_c, 0, 49, 0
2, 122849, Note_on_c, 0, 54, 0
2, 122855, Note_on_c, 0, 67, 87
2, 122856, Note_on_c, 0, 52, 83
2, 122954, Note_on_c, 0, 52, 0
2, 122956, Note_on_c, 0, 67, 0
2, 122986, Note_on_c, 0, 50, 84
2, 122988, Note_on_c, 0, 66, 88
2, 123102, Note_on_c, 0, 66, 0
2, 123126, Note_on_c, 0, 67, 73
2, 123176, Note_on_c, 0, 69, 73
2, 123206, Note_on_c, 0, 67, 0
2, 123241, Note_on_c, 0, 71, 74
2, 123243, Note_on_c, 0, 69, 0
2, 123315, Note_on_c, 0, 71, 0
2, 123328, Note_on_c, 0, 50, 0
2, 123353, Note_on_c, 0, 52, 82
2, 123356, Note_on_c, 0, 66, 84
2, 123457, Note_on_c, 0, 66, 0
2, 123465, Note_on_c, 0, 50, 85
2, 123468, Note_on_c, 0, 52, 0
2, 123473, Note_on_c, 0, 73, 88
2, 123560, Note_on_c, 0, 73, 0
2, 123579, Note_on_c, 0, 49, 81
2, 123579, Note_on_c, 0, 50, 0
2, 123584, Note_on_c, 0, 66, 90
2, 123699, Note_on_c, 0, 66, 0
2, 123709, Note_on_c, 0, 47, 80
2, 123709, Note_on_c, 0, 49, 0
2, 123714, Note_on_c, 0, 74, 88
2, 123795, Note_on_c, 0, 74, 0
2, 123812, Note_on_c, 0, 47, 0
2, 123832, Note_on_c, 0, 66, 88
2, 123834, Note_on_c, 0, 49, 82
2, 123912, Note_on_c, 0, 66, 0
2, 123936, Note_on_c, 0, 49, 0
2, 123952, Note_on_c, 0, 76, 93
2, 123963, Note_on_c, 0, 47, 88
2, 124031, Note_on_c, 0, 76, 0
2, 124067, Note_on_c, 0, 67, 91
2, 124076, Note_on_c, 0, 47, 0
2, 124078, Note_on_c, 0, 45, 84
2, 124181, Note_on_c, 0, 67, 0
2, 124194, Note_on_c, 0, 43, 85
2, 124196, Note_on_c, 0, 78, 99
2, 124200, Note_on_c, 0, 45, 0
2, 124275, Note_on_c, 0, 78, 0
2, 124281, Note_on_c, 0, 43, 0
2, 124303, Note_on_c, 0, 42, 82
2, 124305, Note_on_c, 0, 69, 89
2, 124377, Note_on_c, 0, 69, 0
2, 124398, Note_on_c, 0, 42, 0
2, 124429, Note_on_c, 0, 40, 88
2, 124434, Note_on_c, 0, 67, 83
2, 124511, Note_on_c, 0, 40, 0
2, 124545, Note_on_c, 0, 67, 0
2, 124560, Note_on_c, 0, 66, 87
2, 124649, Note_on_c, 0, 66, 0
2, 124690, Note_on_c, 0, 67, 82
2, 124695, Note_on_c, 0, 50, 91
2, 124753, Note_on_c, 0, 50, 0
2, 124786, Note_on_c, 0, 67, 0
2, 124810, Note_on_c, 0, 71, 75
2, 124934, Note_on_c, 0, 49, 90
2, 124936, Note_on_c, 0, 76, 82
2, 124942, Note_on_c, 0, 71, 0
2, 124973, Control_c, 0, 64, 49
2, 124984, Note_on_c, 0, 49, 0
2, 124988, Control_c, 0, 64, 27
2, 125003, Control_c, 0, 64, 0
2, 125041, Note_on_c, 0, 67, 81
2, 125051, Note_on_c, 0, 76, 0
2, 125179, Note_on_c, 0, 50, 94
2, 125185, Note_on_c, 0, 66, 82
2, 125201, Control_c, 0, 64, 57
2, 125202, Note_on_c, 0, 67, 0
2, 125223, Control_c, 0, 64, 69
2, 125232, Note_on_c, 0, 50, 0
2, 125238, Control_c, 0, 64, 81
2, 125254, Control_c, 0, 64, 93
2, 125269, Control_c, 0, 64, 100
2, 125284, Control_c, 0, 64, 102
2, 125287, Note_on_c, 0, 66, 0
2, 125299, Note_on_c, 0, 71, 74
2, 125300, Control_c, 0, 64, 104
2, 125316, Control_c, 0, 64, 105
2, 125331, Control_c, 0, 64, 107
2, 125346, Control_c, 0, 64, 109
2, 125407, Control_c, 0, 64, 107
2, 125410, Note_on_c, 0, 71, 0
2, 125422, Control_c, 0, 64, 97
2, 125437, Control_c, 0, 64, 76
2, 125438, Note_on_c, 0, 69, 87
2, 125443, Note_on_c, 0, 52, 96
2, 125453, Control_c, 0, 64, 0
2, 125544, Note_on_c, 0, 50, 83
2, 125550, Note_on_c, 0, 73, 84
2, 125554, Note_on_c, 0, 52, 0
2, 125578, Note_on_c, 0, 69, 0
2, 125652, Note_on_c, 0, 50, 0
2, 125668, Note_on_c, 0, 49, 89
2, 125671, Note_on_c, 0, 74, 86
2, 125675, Note_on_c, 0, 47, 79
2, 125706, Note_on_c, 0, 73, 0
2, 125735, Note_on_c, 0, 49, 0
2, 125739, Note_on_c, 0, 47, 0
2, 125782, Note_on_c, 0, 50, 86
2, 125874, Note_on_c, 0, 50, 0
2, 125918, Note_on_c, 0, 52, 92
2, 125923, Control_c, 0, 64, 62
2, 125928, Note_on_c, 0, 43, 78
2, 125939, Control_c, 0, 64, 71
2, 125954, Control_c, 0, 64, 82
2, 125960, Note_on_c, 0, 43, 0
2, 125961, Note_on_c, 0, 52, 0
2, 125970, Control_c, 0, 64, 91
2, 125991, Control_c, 0, 64, 95
2, 126007, Control_c, 0, 64, 96
2, 126022, Control_c, 0, 64, 97
2, 126037, Control_c, 0, 64, 98
2, 126053, Control_c, 0, 64, 99
2, 126067, Control_c, 0, 64, 100
2, 126082, Control_c, 0, 64, 101
2, 126098, Control_c, 0, 64, 101
2, 126113, Control_c, 0, 64, 101
2, 126144, Control_c, 0, 64, 96
2, 126159, Control_c, 0, 64, 81
2, 126175, Control_c, 0, 64, 48
2, 126190, Control_c, 0, 64, 0
2, 126195, Note_on_c, 0, 54, 88
2, 126201, Note_on_c, 0, 73, 86
2, 126217, Note_on_c, 0, 45, 70
2, 126221, Note_on_c, 0, 74, 0
2, 126311, Note_on_c, 0, 52, 83
2, 126312, Note_on_c, 0, 54, 0
2, 126357, Note_on_c, 0, 45, 0
2, 126436, Note_on_c, 0, 50, 82
2, 126467, Note_on_c, 0, 52, 0
2, 126548, Note_on_c, 0, 52, 83
2, 126556, Note_on_c, 0, 50, 0
2, 126630, Note_on_c, 0, 73, 0
2, 126641, Note_on_c, 0, 52, 0
2, 126675, Control_c, 0, 64, 64
2, 126681, Note_on_c, 0, 54, 87
2, 126682, Note_on_c, 0, 74, 95
2, 126684, Note_on_c, 0, 50, 76
2, 126691, Control_c, 0, 64, 75
2, 126706, Control_c, 0, 64, 92
2, 126721, Control_c, 0, 64, 103
2, 126728, Note_on_c, 0, 74, 0
2, 126737, Control_c, 0, 64, 109
2, 126742, Note_on_c, 0, 50, 0
2, 126758, Control_c, 0, 64, 112
2, 126774, Control_c, 0, 64, 115
2, 126774, Note_on_c, 0, 54, 0
2, 126789, Control_c, 0, 64, 117
2, 126804, Control_c, 0, 64, 119
2, 126820, Control_c, 0, 64, 120
2, 126865, Control_c, 0, 64, 119
2, 126880, Control_c, 0, 64, 119
2, 126896, Control_c, 0, 64, 111
2, 126911, Control_c, 0, 64, 91
2, 126927, Control_c, 0, 64, 67
2, 126942, Control_c, 0, 64, 0
2, 126951, Note_on_c, 0, 52, 81
2, 126953, Note_on_c, 0, 76, 93
2, 126957, Note_on_c, 0, 49, 76
2, 127010, Note_on_c, 0, 52, 0
2, 127018, Note_on_c, 0, 49, 0
2, 127061, Note_on_c, 0, 74, 84
2, 127087, Note_on_c, 0, 76, 0
2, 127180, Note_on_c, 0, 73, 88
2, 127185, Note_on_c, 0, 74, 0
2, 127187, Note_on_c, 0, 47, 83
2, 127187, Note_on_c, 0, 50, 84
2, 127233, Note_on_c, 0, 50, 0
2, 127241, Note_on_c, 0, 47, 0
2, 127281, Note_on_c, 0, 74, 92
2, 127289, Note_on_c, 0, 73, 0
2, 127377, Note_on_c, 0, 74, 0
2, 127425, Note_on_c, 0, 76, 92
2, 127427, Note_on_c, 0, 49, 88
2, 127432, Note_on_c, 0, 45, 82
2, 127458, Control_c, 0, 64, 72
2, 127473, Control_c, 0, 64, 85
2, 127480, Note_on_c, 0, 76, 0
2, 127489, Control_c, 0, 64, 105
2, 127500, Note_on_c, 0, 49, 0
2, 127504, Control_c, 0, 64, 114
2, 127527, Control_c, 0, 64, 119
2, 127542, Control_c, 0, 64, 121
2, 127556, Control_c, 0, 64, 125
2, 127572, Control_c, 0, 64, 127
2, 127709, Note_on_c, 0, 78, 95
2, 127718, Note_on_c, 0, 59, 89
2, 127755, Control_c, 0, 64, 125
2, 127771, Control_c, 0, 64, 115
2, 127785, Control_c, 0, 64, 101
2, 127800, Control_c, 0, 64, 86
2, 127816, Control_c, 0, 64, 65
2, 127819, Note_on_c, 0, 76, 84
2, 127831, Control_c, 0, 64, 0
2, 127852, Note_on_c, 0, 78, 0
2, 127945, Note_on_c, 0, 74, 88
2, 127956, Note_on_c, 0, 76, 0
2, 128037, Note_on_c, 0, 59, 0
2, 128052, Note_on_c, 0, 76, 94
2, 128076, Note_on_c, 0, 74, 0
2, 128149, Note_on_c, 0, 76, 0
2, 128180, Note_on_c, 0, 57, 84
2, 128181, Control_c, 0, 64, 52
2, 128181, Note_on_c, 0, 78, 98
2, 128196, Control_c, 0, 64, 71
2, 128212, Control_c, 0, 64, 81
2, 128226, Note_on_c, 0, 57, 0
2, 128227, Control_c, 0, 64, 93
2, 128236, Note_on_c, 0, 78, 0
2, 128241, Control_c, 0, 64, 101
2, 128257, Control_c, 0, 64, 106
2, 128272, Control_c, 0, 64, 109
2, 128288, Control_c, 0, 64, 113
2, 128311, Control_c, 0, 64, 118
2, 128326, Control_c, 0, 64, 126
2, 128341, Control_c, 0, 64, 127
2, 128449, Note_on_c, 0, 59, 81
2, 128452, Note_on_c, 0, 79, 90
2, 128462, Control_c, 0, 64, 122
2, 128477, Control_c, 0, 64, 102
2, 128493, Control_c, 0, 64, 82
2, 128495, Note_on_c, 0, 59, 0
2, 128508, Control_c, 0, 64, 51
2, 128522, Control_c, 0, 64, 0
2, 128558, Note_on_c, 0, 78, 88
2, 128570, Note_on_c, 0, 57, 83
2, 128586, Note_on_c, 0, 79, 0
2, 128615, Note_on_c, 0, 57, 0
2, 128672, Note_on_c, 0, 76, 86
2, 128691, Note_on_c, 0, 55, 86
2, 128697, Note_on_c, 0, 78, 0
2, 128738, Note_on_c, 0, 55, 0
2, 128746, Note_on_c, 0, 76, 0
2, 128783, Note_on_c, 0, 74, 85
2, 128785, Note_on_c, 0, 54, 83
2, 128847, Note_on_c, 0, 54, 0
2, 128868, Note_on_c, 0, 74, 0
2, 128904, Control_c, 0, 64, 66
2, 128908, Note_on_c, 0, 73, 97
2, 128919, Control_c, 0, 64, 77
2, 128922, Note_on_c, 0, 52, 83
2, 128935, Control_c, 0, 64, 92
2, 128950, Control_c, 0, 64, 104
2, 128956, Note_on_c, 0, 73, 0
2, 128964, Control_c, 0, 64, 109
2, 128973, Note_on_c, 0, 52, 0
2, 128980, Control_c, 0, 64, 110
2, 128995, Control_c, 0, 64, 111
2, 129010, Control_c, 0, 64, 111
2, 129177, Note_on_c, 0, 83, 91
2, 129181, Note_on_c, 0, 55, 77
2, 129185, Control_c, 0, 64, 111
2, 129200, Control_c, 0, 64, 110
2, 129216, Control_c, 0, 64, 109
2, 129230, Control_c, 0, 64, 107
2, 129246, Control_c, 0, 64, 103
2, 129261, Control_c, 0, 64, 98
2, 129276, Control_c, 0, 64, 91
2, 129292, Control_c, 0, 64, 81
2, 129296, Note_on_c, 0, 55, 0
2, 129306, Control_c, 0, 64, 68
2, 129308, Note_on_c, 0, 54, 71
2, 129321, Control_c, 0, 64, 0
2, 129411, Note_on_c, 0, 54, 0
2, 129435, Note_on_c, 0, 52, 69
2, 129539, Note_on_c, 0, 52, 0
2, 129543, Note_on_c, 0, 50, 74
2, 129667, Note_on_c, 0, 49, 78
2, 129681, Note_on_c, 0, 50, 0
2, 129794, Note_on_c, 0, 81, 84
2, 129796, Note_on_c, 0, 83, 0
2, 129929, Note_on_c, 0, 83, 84
2, 129941, Note_on_c, 0, 81, 0
2, 130044, Note_on_c, 0, 81, 87
2, 130079, Note_on_c, 0, 83, 0
2, 130152, Note_on_c, 0, 49, 0
2, 130162, Note_on_c, 0, 50, 74
2, 130163, Note_on_c, 0, 79, 82
2, 130185, Note_on_c, 0, 81, 0
2, 130258, Control_c, 0, 64, 49
2, 130268, Note_on_c, 0, 79, 0
2, 130273, Control_c, 0, 64, 63
2, 130277, Note_on_c, 0, 78, 79
2, 130288, Control_c, 0, 64, 66
2, 130303, Control_c, 0, 64, 69
2, 130318, Control_c, 0, 64, 72
2, 130334, Control_c, 0, 64, 75
2, 130349, Control_c, 0, 64, 78
2, 130354, Note_on_c, 0, 78, 0
2, 130363, Control_c, 0, 64, 81
2, 130379, Control_c, 0, 64, 83
2, 130394, Control_c, 0, 64, 85
2, 130395, Note_on_c, 0, 76, 71
2, 130410, Control_c, 0, 64, 87
2, 130424, Control_c, 0, 64, 89
2, 130439, Control_c, 0, 64, 91
2, 130439, Note_on_c, 0, 76, 0
2, 130455, Control_c, 0, 64, 92
2, 130470, Control_c, 0, 64, 93
2, 130484, Note_on_c, 0, 78, 69
2, 130502, Note_on_c, 0, 50, 0
2, 130512, Note_on_c, 0, 45, 0
2, 130517, Note_on_c, 0, 78, 0
2, 130531, Note_on_c, 0, 55, 67
2, 130544, Note_on_c, 0, 76, 64
2, 130546, Control_c, 0, 64, 92
2, 130561, Control_c, 0, 64, 84
2, 130571, Note_on_c, 0, 76, 0
2, 130577, Control_c, 0, 64, 65
2, 130599, Control_c, 0, 64, 0
2, 130603, Note_on_c, 0, 55, 0
2, 130615, Note_on_c, 0, 54, 63
2, 130617, Note_on_c, 0, 78, 68
2, 130643, Note_on_c, 0, 52, 75
2, 130647, Note_on_c, 0, 78, 0
2, 130653, Note_on_c, 0, 54, 0
2, 130662, Note_on_c, 0, 76, 69
2, 130696, Note_on_c, 0, 52, 0
2, 130699, Note_on_c, 0, 76, 0
2, 130745, Note_on_c, 0, 78, 59
2, 130748, Note_on_c, 0, 55, 56
2, 130782, Note_on_c, 0, 78, 0
2, 130794, Note_on_c, 0, 76, 60
2, 130832, Note_on_c, 0, 76, 0
2, 130848, Note_on_c, 0, 55, 0
2, 130878, Note_on_c, 0, 78, 56
2, 130881, Note_on_c, 0, 50, 76
2, 130907, Note_on_c, 0, 78, 0
2, 130914, Note_on_c, 0, 76, 58
2, 130916, Note_on_c, 0, 50, 0
2, 130959, Note_on_c, 0, 76, 0
2, 130978, Note_on_c, 0, 55, 60
2, 130996, Note_on_c, 0, 78, 65
2, 131031, Note_on_c, 0, 78, 0
2, 131058, Note_on_c, 0, 76, 46
2, 131105, Note_on_c, 0, 76, 0
2, 131110, Note_on_c, 0, 55, 0
2, 131126, Note_on_c, 0, 49, 83
2, 131133, Note_on_c, 0, 78, 64
2, 131157, Note_on_c, 0, 78, 0
2, 131178, Note_on_c, 0, 49, 0
2, 131196, Note_on_c, 0, 76, 55
2, 131237, Note_on_c, 0, 55, 58
2, 131237, Note_on_c, 0, 76, 0
2, 131265, Note_on_c, 0, 78, 60
2, 131315, Note_on_c, 0, 78, 0
2, 131340, Note_on_c, 0, 76, 58
2, 131352, Note_on_c, 0, 55, 0
2, 131378, Note_on_c, 0, 47, 87
2, 131381, Note_on_c, 0, 76, 0
2, 131408, Note_on_c, 0, 78, 60
2, 131427, Note_on_c, 0, 47, 0
2, 131444, Note_on_c, 0, 78, 0
2, 131461, Note_on_c, 0, 76, 67
2, 131481, Note_on_c, 0, 55, 63
2, 131505, Note_on_c, 0, 76, 0
2, 131521, Note_on_c, 0, 78, 66
2, 131564, Note_on_c, 0, 78, 0
2, 131574, Note_on_c, 0, 76, 58
2, 131606, Note_on_c, 0, 55, 0
2, 131612, Note_on_c, 0, 76, 0
2, 131625, Control_c, 0, 64, 47
2, 131628, Note_on_c, 0, 78, 58
2, 131631, Note_on_c, 0, 45, 79
2, 131640, Control_c, 0, 64, 67
2, 131656, Control_c, 0, 64, 76
2, 131671, Control_c, 0, 64, 85
2, 131687, Control_c, 0, 64, 90
2, 131688, Note_on_c, 0, 76, 64
2, 131690, Note_on_c, 0, 45, 0
2, 131702, Control_c, 0, 64, 92
2, 131708, Note_on_c, 0, 78, 0
2, 131717, Control_c, 0, 64, 93
2, 131724, Note_on_c, 0, 55, 76
2, 131733, Control_c, 0, 64, 94
2, 131747, Control_c, 0, 64, 94
2, 131762, Control_c, 0, 64, 95
2, 131870, Control_c, 0, 64, 92
2, 131880, Note_on_c, 0, 54, 89
2, 131886, Control_c, 0, 64, 82
2, 131895, Note_on_c, 0, 55, 0
2, 131900, Control_c, 0, 64, 34
2, 131915, Control_c, 0, 64, 0
2, 131960, Note_on_c, 0, 76, 0
2, 131981, Note_on_c, 0, 54, 0
2, 131992, Note_on_c, 0, 81, 71
2, 132010, Note_on_c, 0, 55, 81
2, 132068, Note_on_c, 0, 79, 64
2, 132094, Note_on_c, 0, 55, 0
2, 132094, Note_on_c, 0, 81, 0
2, 132111, Note_on_c, 0, 78, 76
2, 132137, Note_on_c, 0, 57, 70
2, 132157, Note_on_c, 0, 79, 0
2, 132232, Note_on_c, 0, 78, 0
2, 132264, Note_on_c, 0, 52, 65
2, 132267, Note_on_c, 0, 81, 79
2, 132361, Note_on_c, 0, 52, 0
2, 132389, Note_on_c, 0, 50, 64
2, 132401, Note_on_c, 0, 76, 71
2, 132404, Note_on_c, 0, 81, 0
2, 132427, Note_on_c, 0, 74, 51
2, 132428, Note_on_c, 0, 74, 0
2, 132451, Note_on_c, 0, 76, 0
2, 132463, Note_on_c, 0, 50, 0
2, 132491, Note_on_c, 0, 49, 65
2, 132514, Note_on_c, 0, 81, 84
2, 132574, Note_on_c, 0, 49, 0
2, 132618, Note_on_c, 0, 57, 0
2, 132623, Note_on_c, 0, 47, 77
2, 132637, Note_on_c, 0, 74, 81
2, 132648, Note_on_c, 0, 81, 0
2, 132693, Note_on_c, 0, 74, 0
2, 132744, Note_on_c, 0, 55, 70
2, 132760, Note_on_c, 0, 81, 78
2, 132874, Note_on_c, 0, 55, 0
2, 132880, Note_on_c, 0, 54, 73
2, 132884, Note_on_c, 0, 73, 83
2, 132893, Note_on_c, 0, 81, 0
2, 132944, Note_on_c, 0, 73, 0
2, 132974, Note_on_c, 0, 54, 0
2, 133003, Note_on_c, 0, 52, 69
2, 133012, Note_on_c, 0, 81, 82
2, 133065, Note_on_c, 0, 47, 0
2, 133088, Note_on_c, 0, 52, 0
2, 133121, Note_on_c, 0, 81, 0
2, 133135, Note_on_c, 0, 50, 77
2, 133139, Note_on_c, 0, 71, 78
2, 133217, Note_on_c, 0, 71, 0
2, 133248, Note_on_c, 0, 81, 85
2, 133249, Note_on_c, 0, 50, 0
2, 133250, Note_on_c, 0, 54, 80
2, 133354, Note_on_c, 0, 54, 0
2, 133380, Note_on_c, 0, 52, 87
2, 133383, Note_on_c, 0, 79, 82
2, 133399, Note_on_c, 0, 81, 0
2, 133454, Note_on_c, 0, 79, 0
2, 133495, Note_on_c, 0, 52, 0
2, 133502, Note_on_c, 0, 78, 75
2, 133507, Note_on_c, 0, 54, 77
2, 133593, Note_on_c, 0, 78, 0
2, 133605, Note_on_c, 0, 54, 0
2, 133627, Note_on_c, 0, 76, 78
2, 133638, Note_on_c, 0, 55, 69
2, 133695, Note_on_c, 0, 76, 0
2, 133755, Note_on_c, 0, 79, 72
2, 133764, Note_on_c, 0, 50, 60
2, 133855, Note_on_c, 0, 50, 0
2, 133883, Note_on_c, 0, 79, 0
2, 133889, Note_on_c, 0, 74, 73
2, 133895, Note_on_c, 0, 49, 68
2, 133944, Note_on_c, 0, 74, 0
2, 133954, Note_on_c, 0, 49, 0
2, 134003, Note_on_c, 0, 79, 74
2, 134005, Note_on_c, 0, 47, 60
2, 134085, Note_on_c, 0, 47, 0
2, 134129, Note_on_c, 0, 73, 81
2, 134130, Note_on_c, 0, 55, 0
2, 134131, Note_on_c, 0, 45, 71
2, 134138, Note_on_c, 0, 79, 0
2, 134188, Note_on_c, 0, 73, 0
2, 134249, Note_on_c, 0, 79, 74
2, 134257, Note_on_c, 0, 54, 65
2, 134352, Note_on_c, 0, 54, 0
2, 134368, Note_on_c, 0, 52, 69
2, 134375, Note_on_c, 0, 79, 0
2, 134380, Note_on_c, 0, 71, 76
2, 134426, Note_on_c, 0, 71, 0
2, 134465, Note_on_c, 0, 45, 0
2, 134477, Note_on_c, 0, 52, 0
2, 134482, Note_on_c, 0, 50, 66
2, 134506, Note_on_c, 0, 79, 75
2, 134577, Note_on_c, 0, 50, 0
2, 134601, Note_on_c, 0, 79, 0
2, 134623, Note_on_c, 0, 49, 75
2, 134629, Note_on_c, 0, 69, 78
2, 134699, Note_on_c, 0, 69, 0
2, 134725, Note_on_c, 0, 49, 0
2, 134736, Note_on_c, 0, 52, 69
2, 134741, Note_on_c, 0, 79, 75
2, 134847, Note_on_c, 0, 52, 0
2, 134856, Note_on_c, 0, 50, 75
2, 134865, Note_on_c, 0, 78, 84
2, 134896, Note_on_c, 0, 79, 0
2, 134943, Note_on_c, 0, 78, 0
2, 134955, Note_on_c, 0, 50, 0
2, 134977, Note_on_c, 0, 52, 71
2, 134985, Note_on_c, 0, 76, 69
2, 135066, Note_on_c, 0, 52, 0
2, 135067, Note_on_c, 0, 76, 0
2, 135099, Note_on_c, 0, 74, 71
2, 135109, Note_on_c, 0, 54, 66
2, 135179, Note_on_c, 0, 74, 0
2, 135226, Note_on_c, 0, 48, 64
2, 135226, Note_on_c, 0, 78, 71
2, 135337, Note_on_c, 0, 48, 0
2, 135343, Note_on_c, 0, 78, 0
2, 135352, Note_on_c, 0, 47, 68
2, 135355, Note_on_c, 0, 72, 69
2, 135364, Note_on_c, 0, 54, 0
2, 135423, Note_on_c, 0, 72, 0
2, 135444, Note_on_c, 0, 47, 0
2, 135473, Note_on_c, 0, 45, 66
2, 135474, Note_on_c, 0, 78, 72
2, 135556, Note_on_c, 0, 45, 0
2, 135585, Note_on_c, 0, 78, 0
2, 135603, Note_on_c, 0, 43, 71
2, 135603, Note_on_c, 0, 71, 74
2, 135661, Note_on_c, 0, 71, 0
2, 135688, Note_on_c, 0, 43, 0
2, 135714, Note_on_c, 0, 78, 74
2, 135715, Note_on_c, 0, 47, 67
2, 135833, Note_on_c, 0, 47, 0
2, 135834, Note_on_c, 0, 69, 78
2, 135837, Note_on_c, 0, 49, 69
2, 135844, Note_on_c, 0, 78, 0
2, 135902, Note_on_c, 0, 69, 0
2, 135947, Note_on_c, 0, 49, 0
2, 135950, Note_on_c, 0, 78, 80
2, 135953, Note_on_c, 0, 50, 74
2, 136041, Note_on_c, 0, 50, 0
2, 136070, Note_on_c, 0, 78, 0
2, 136085, Note_on_c, 0, 52, 77
2, 136087, Note_on_c, 0, 67, 81
2, 136168, Note_on_c, 0, 67, 0
2, 136202, Note_on_c, 0, 52, 0
2, 136205, Note_on_c, 0, 54, 74
2, 136206, Note_on_c, 0, 78, 77
2, 136312, Note_on_c, 0, 54, 0
2, 136328, Note_on_c, 0, 55, 76
2, 136332, Note_on_c, 0, 78, 0
2, 136333, Note_on_c, 0, 76, 76
2, 136421, Note_on_c, 0, 55, 0
2, 136430, Note_on_c, 0, 76, 0
2, 136449, Note_on_c, 0, 57, 69
2, 136449, Note_on_c, 0, 74, 75
2, 136529, Note_on_c, 0, 74, 0
2, 136572, Note_on_c, 0, 57, 0
2, 136583, Note_on_c, 0, 73, 72
2, 136586, Note_on_c, 0, 55, 70
2, 136611, Note_on_c, 0, 73, 0
2, 136662, Note_on_c, 0, 55, 0
2, 136691, Note_on_c, 0, 76, 74
2, 136692, Note_on_c, 0, 54, 73
2, 136767, Note_on_c, 0, 54, 0
2, 136819, Note_on_c, 0, 52, 71
2, 136822, Note_on_c, 0, 76, 0
2, 136825, Note_on_c, 0, 71, 74
2, 136886, Note_on_c, 0, 71, 0
2, 136895, Note_on_c, 0, 52, 0
2, 136925, Note_on_c, 0, 50, 68
2, 136938, Note_on_c, 0, 76, 77
2, 137008, Note_on_c, 0, 50, 0
2, 137060, Note_on_c, 0, 49, 79
2, 137060, Note_on_c, 0, 69, 79
2, 137072, Note_on_c, 0, 76, 0
2, 137119, Note_on_c, 0, 69, 0
2, 137128, Note_on_c, 0, 49, 0
2, 137177, Note_on_c, 0, 45, 74
2, 137184, Note_on_c, 0, 76, 83
2, 137290, Note_on_c, 0, 76, 0
2, 137304, Note_on_c, 0, 47, 81
2, 137310, Note_on_c, 0, 67, 82
2, 137326, Note_on_c, 0, 45, 0
2, 137369, Note_on_c, 0, 67, 0
2, 137415, Note_on_c, 0, 47, 0
2, 137416, Note_on_c, 0, 49, 77
2, 137421, Note_on_c, 0, 76, 83
2, 137545, Note_on_c, 0, 50, 80
2, 137546, Note_on_c, 0, 49, 0
2, 137559, Note_on_c, 0, 66, 87
2, 137577, Note_on_c, 0, 76, 0
2, 137622, Note_on_c, 0, 50, 0
2, 137637, Note_on_c, 0, 66, 0
2, 137660, Note_on_c, 0, 52, 80
2, 137679, Note_on_c, 0, 76, 81
2, 137782, Note_on_c, 0, 54, 79
2, 137784, Note_on_c, 0, 74, 81
2, 137786, Note_on_c, 0, 52, 0
2, 137808, Note_on_c, 0, 76, 0
2, 137886, Note_on_c, 0, 54, 0
2, 137899, Note_on_c, 0, 55, 84
2, 137911, Note_on_c, 0, 66, 86
2, 137917, Note_on_c, 0, 74, 0
2, 137991, Note_on_c, 0, 66, 0
2, 137998, Note_on_c, 0, 55, 0
2, 138025, Note_on_c, 0, 57, 88
2, 138033, Note_on_c, 0, 64, 79
2, 138079, Note_on_c, 0, 57, 0
2, 138137, Note_on_c, 0, 64, 0
2, 138145, Note_on_c, 0, 67, 84
2, 138235, Note_on_c, 0, 67, 0
2, 138280, Note_on_c, 0, 74, 78
2, 138282, Note_on_c, 0, 45, 89
2, 138334, Note_on_c, 0, 45, 0
2, 138398, Note_on_c, 0, 73, 81
2, 138400, Note_on_c, 0, 74, 0
2, 138489, Note_on_c, 0, 73, 0
2, 138534, Note_on_c, 0, 50, 92
2, 138535, Note_on_c, 0, 74, 69
2, 138537, Control_c, 0, 64, 62
2, 138552, Control_c, 0, 64, 71
2, 138567, Control_c, 0, 64, 82
2, 138582, Control_c, 0, 64, 93
2, 138585, Note_on_c, 0, 50, 0
2, 138597, Control_c, 0, 64, 99
2, 138603, Note_on_c, 0, 74, 0
2, 138613, Control_c, 0, 64, 105
2, 138616, Note_on_c, 0, 76, 75
2, 138628, Control_c, 0, 64, 111
2, 138642, Control_c, 0, 64, 116
2, 138658, Control_c, 0, 64, 121
2, 138673, Control_c, 0, 64, 126
2, 138684, Note_on_c, 0, 76, 0
2, 138688, Control_c, 0, 64, 127
2, 138695, Note_on_c, 0, 74, 70
2, 138735, Control_c, 0, 64, 127
2, 138738, Note_on_c, 0, 74, 0
2, 138750, Control_c, 0, 64, 121
2, 138765, Control_c, 0, 64, 97
2, 138768, Note_on_c, 0, 76, 71
2, 138781, Control_c, 0, 64, 68
2, 138793, Note_on_c, 0, 48, 89
2, 138795, Control_c, 0, 64, 0
2, 138840, Note_on_c, 0, 76, 0
2, 138857, Note_on_c, 0, 74, 67
2, 138890, Note_on_c, 0, 48, 0
2, 138903, Note_on_c, 0, 50, 87
2, 138903, Note_on_c, 0, 74, 0
2, 138918, Note_on_c, 0, 76, 72
2, 139000, Note_on_c, 0, 76, 0
2, 139002, Note_on_c, 0, 50, 0
2, 139019, Note_on_c, 0, 74, 63
2, 139027, Note_on_c, 0, 52, 84
2, 139083, Note_on_c, 0, 74, 0
2, 139108, Note_on_c, 0, 76, 70
2, 139128, Note_on_c, 0, 52, 0
2, 139138, Note_on_c, 0, 50, 83
2, 139187, Note_on_c, 0, 76, 0
2, 139199, Note_on_c, 0, 74, 64
2, 139218, Note_on_c, 0, 50, 0
2, 139267, Note_on_c, 0, 74, 0
2, 139270, Note_on_c, 0, 48, 93
2, 139284, Note_on_c, 0, 76, 72
2, 139289, Control_c, 0, 64, 66
2, 139305, Control_c, 0, 64, 74
2, 139312, Note_on_c, 0, 48, 0
2, 139320, Control_c, 0, 64, 83
2, 139336, Control_c, 0, 64, 88
2, 139350, Control_c, 0, 64, 90
2, 139354, Note_on_c, 0, 76, 0
2, 139365, Control_c, 0, 64, 91
2, 139365, Note_on_c, 0, 74, 64
2, 139380, Control_c, 0, 64, 91
2, 139395, Control_c, 0, 64, 92
2, 139410, Control_c, 0, 64, 93
2, 139430, Note_on_c, 0, 74, 0
2, 139443, Note_on_c, 0, 76, 70
2, 139485, Control_c, 0, 64, 92
2, 139501, Control_c, 0, 64, 85
2, 139516, Control_c, 0, 64, 69
2, 139517, Note_on_c, 0, 76, 0
2, 139521, Note_on_c, 0, 74, 65
2, 139526, Note_on_c, 0, 47, 86
2, 139531, Control_c, 0, 64, 0
2, 139579, Note_on_c, 0, 74, 0
2, 139593, Note_on_c, 0, 76, 64
2, 139629, Note_on_c, 0, 47, 0
2, 139639, Note_on_c, 0, 48, 79
2, 139658, Note_on_c, 0, 74, 66
2, 139669, Note_on_c, 0, 76, 0
2, 139730, Note_on_c, 0, 48, 0
2, 139758, Note_on_c, 0, 50, 76
2, 139847, Note_on_c, 0, 50, 0
2, 139869, Note_on_c, 0, 48, 79
2, 139966, Note_on_c, 0, 48, 0
2, 140015, Note_on_c, 0, 47, 83
2, 140085, Note_on_c, 0, 47, 0
2, 140143, Note_on_c, 0, 67, 65
2, 140262, Note_on_c, 0, 67, 0
2, 140263, Note_on_c, 0, 65, 74
2, 140264, Note_on_c, 0, 48, 83
2, 140328, Note_on_c, 0, 48, 0
2, 140353, Note_on_c, 0, 65, 0
2, 140377, Note_on_c, 0, 64, 74
2, 140436, Note_on_c, 0, 64, 0
2, 140481, Control_c, 0, 64, 53
2, 140497, Control_c, 0, 64, 67
2, 140512, Control_c, 0, 64, 76
2, 140515, Note_on_c, 0, 50, 82
2, 140520, Note_on_c, 0, 62, 79
2, 140526, Control_c, 0, 64, 88
2, 140542, Control_c, 0, 64, 95
2, 140557, Control_c, 0, 64, 98
2, 140560, Note_on_c, 0, 50, 0
2, 140581, Control_c, 0, 64, 100
2, 140596, Control_c, 0, 64, 101
2, 140610, Control_c, 0, 64, 102
2, 140614, Note_on_c, 0, 62, 0
2, 140626, Control_c, 0, 64, 103
2, 140633, Note_on_c, 0, 65, 77
2, 140641, Control_c, 0, 64, 104
2, 140671, Control_c, 0, 64, 104
2, 140672, Note_on_c, 0, 74, 0
2, 140762, Control_c, 0, 64, 102
2, 140768, Note_on_c, 0, 55, 87
2, 140778, Control_c, 0, 64, 92
2, 140791, Note_on_c, 0, 64, 70
2, 140791, Note_on_c, 0, 65, 0
2, 140793, Control_c, 0, 64, 73
2, 140808, Control_c, 0, 64, 0
2, 140844, Note_on_c, 0, 55, 0
2, 140869, Note_on_c, 0, 64, 0
2, 140893, Note_on_c, 0, 65, 70
2, 141008, Note_on_c, 0, 65, 0
2, 141009, Note_on_c, 0, 72, 80
2, 141016, Note_on_c, 0, 45, 87
2, 141021, Note_on_c, 0, 64, 68
2, 141070, Note_on_c, 0, 64, 0
2, 141131, Note_on_c, 0, 62, 72
2, 141239, Note_on_c, 0, 62, 0
2, 141271, Note_on_c, 0, 60, 69
2, 141365, Note_on_c, 0, 60, 0
2, 141387, Note_on_c, 0, 64, 67
2, 141508, Note_on_c, 0, 64, 0
2, 141513, Note_on_c, 0, 47, 82
2, 141514, Note_on_c, 0, 45, 0
2, 141521, Note_on_c, 0, 62, 70
2, 141563, Note_on_c, 0, 72, 0
2, 141565, Note_on_c, 0, 47, 0
2, 141599, Note_on_c, 0, 62, 0
2, 141633, Note_on_c, 0, 64, 67
2, 141751, Note_on_c, 0, 64, 0
2, 141765, Note_on_c, 0, 48, 81
2, 141773, Note_on_c, 0, 71, 72
2, 141775, Note_on_c, 0, 62, 70
2, 141809, Note_on_c, 0, 62, 0
2, 141836, Note_on_c, 0, 48, 0
2, 141874, Note_on_c, 0, 60, 72
2, 141990, Note_on_c, 0, 60, 0
2, 142006, Control_c, 0, 64, 60
2, 142016, Note_on_c, 0, 59, 74
2, 142020, Control_c, 0, 64, 69
2, 142021, Note_on_c, 0, 50, 80
2, 142035, Control_c, 0, 64, 78
2, 142051, Control_c, 0, 64, 87
2, 142054, Note_on_c, 0, 50, 0
2, 142065, Control_c, 0, 64, 91
2, 142080, Control_c, 0, 64, 92
2, 142096, Control_c, 0, 64, 93
2, 142100, Note_on_c, 0, 59, 0
2, 142118, Control_c, 0, 64, 93
2, 142140, Note_on_c, 0, 62, 71
2, 142256, Control_c, 0, 64, 93
2, 142270, Control_c, 0, 64, 90
2, 142273, Note_on_c, 0, 52, 80
2, 142277, Note_on_c, 0, 62, 0
2, 142286, Control_c, 0, 64, 81
2, 142289, Note_on_c, 0, 60, 68
2, 142301, Control_c, 0, 64, 64
2, 142316, Control_c, 0, 64, 0
2, 142333, Note_on_c, 0, 71, 0
2, 142357, Note_on_c, 0, 52, 0
2, 142359, Note_on_c, 0, 60, 0
2, 142396, Note_on_c, 0, 62, 65
2, 142513, Note_on_c, 0, 62, 0
2, 142533, Note_on_c, 0, 42, 70
2, 142537, Note_on_c, 0, 69, 72
2, 142547, Note_on_c, 0, 60, 63
2, 142577, Note_on_c, 0, 60, 0
2, 142652, Note_on_c, 0, 59, 71
2, 142747, Note_on_c, 0, 59, 0
2, 142788, Note_on_c, 0, 57, 69
2, 142881, Note_on_c, 0, 57, 0
2, 142904, Note_on_c, 0, 60, 69
2, 142992, Note_on_c, 0, 60, 0
2, 143014, Note_on_c, 0, 42, 0
2, 143022, Note_on_c, 0, 43, 68
2, 143032, Note_on_c, 0, 59, 67
2, 143032, Note_on_c, 0, 69, 0
2, 143117, Note_on_c, 0, 43, 0
2, 143148, Note_on_c, 0, 67, 74
2, 143261, Note_on_c, 0, 42, 67
2, 143266, Note_on_c, 0, 67, 0
2, 143279, Note_on_c, 0, 69, 74
2, 143354, Note_on_c, 0, 42, 0
2, 143385, Note_on_c, 0, 43, 60
2, 143393, Note_on_c, 0, 67, 76
2, 143397, Note_on_c, 0, 69, 0
2, 143496, Note_on_c, 0, 43, 0
2, 143514, Note_on_c, 0, 67, 0
2, 143516, Note_on_c, 0, 45, 64
2, 143518, Note_on_c, 0, 66, 76
2, 143534, Note_on_c, 0, 59, 0
2, 143571, Note_on_c, 0, 45, 0
2, 143602, Note_on_c, 0, 66, 0
2, 143620, Note_on_c, 0, 67, 79
2, 143621, Note_on_c, 0, 47, 65
2, 143736, Note_on_c, 0, 47, 0
2, 143746, Control_c, 0, 64, 65
2, 143760, Control_c, 0, 64, 74
2, 143761, Note_on_c, 0, 66, 71
2, 143764, Note_on_c, 0, 57, 66
2, 143766, Note_on_c, 0, 36, 69
2, 143776, Control_c, 0, 64, 88
2, 143791, Control_c, 0, 64, 97
2, 143794, Note_on_c, 0, 57, 0
2, 143803, Note_on_c, 0, 36, 0
2, 143807, Control_c, 0, 64, 101
2, 143822, Control_c, 0, 64, 103
2, 143836, Control_c, 0, 64, 105
2, 143839, Note_on_c, 0, 67, 0
2, 143848, Note_on_c, 0, 66, 0
2, 143852, Control_c, 0, 64, 106
2, 143865, Control_c, 0, 64, 108
2, 143880, Control_c, 0, 64, 109
2, 143896, Control_c, 0, 64, 110
2, 143905, Note_on_c, 0, 62, 71
2, 143925, Control_c, 0, 64, 110
2, 143946, Note_on_c, 0, 62, 0
2, 143956, Control_c, 0, 64, 110
2, 143966, Note_on_c, 0, 64, 67
2, 143971, Control_c, 0, 64, 109
2, 143987, Control_c, 0, 64, 96
2, 144002, Control_c, 0, 64, 71
2, 144018, Control_c, 0, 64, 0
2, 144018, Note_on_c, 0, 60, 65
2, 144021, Note_on_c, 0, 66, 79
2, 144027, Note_on_c, 0, 64, 0
2, 144098, Note_on_c, 0, 66, 0
2, 144115, Note_on_c, 0, 60, 0
2, 144140, Note_on_c, 0, 59, 61
2, 144145, Note_on_c, 0, 62, 73
2, 144233, Note_on_c, 0, 59, 0
2, 144235, Note_on_c, 0, 62, 0
2, 144259, Note_on_c, 0, 67, 84
2, 144271, Note_on_c, 0, 57, 71
2, 144316, Note_on_c, 0, 57, 0
2, 144319, Note_on_c, 0, 67, 0
2, 144371, Note_on_c, 0, 62, 72
2, 144377, Note_on_c, 0, 55, 69
2, 144473, Note_on_c, 0, 62, 0
2, 144501, Note_on_c, 0, 69, 88
2, 144503, Note_on_c, 0, 55, 0
2, 144518, Note_on_c, 0, 54, 74
2, 144562, Note_on_c, 0, 69, 0
2, 144586, Note_on_c, 0, 54, 0
2, 144621, Note_on_c, 0, 62, 72
2, 144631, Note_on_c, 0, 52, 70
2, 144710, Note_on_c, 0, 52, 0
2, 144719, Note_on_c, 0, 62, 0
2, 144746, Note_on_c, 0, 71, 86
2, 144754, Note_on_c, 0, 50, 77
2, 144825, Note_on_c, 0, 71, 0
2, 144833, Note_on_c, 0, 50, 0
2, 144863, Note_on_c, 0, 48, 81
2, 144864, Note_on_c, 0, 62, 78
2, 144966, Note_on_c, 0, 48, 0
2, 144990, Note_on_c, 0, 47, 80
2, 144995, Note_on_c, 0, 72, 87
2, 145001, Note_on_c, 0, 62, 0
2, 145054, Note_on_c, 0, 72, 0
2, 145061, Note_on_c, 0, 47, 0
2, 145086, Note_on_c, 0, 45, 77
2, 145105, Note_on_c, 0, 62, 80
2, 145174, Note_on_c, 0, 45, 0
2, 145234, Note_on_c, 0, 43, 73
2, 145243, Note_on_c, 0, 71, 78
2, 145247, Note_on_c, 0, 62, 0
2, 145349, Note_on_c, 0, 43, 0
2, 145362, Note_on_c, 0, 71, 0
2, 145365, Note_on_c, 0, 79, 75
2, 145371, Note_on_c, 0, 45, 68
2, 145469, Note_on_c, 0, 45, 0
2, 145485, Note_on_c, 0, 77, 78
2, 145494, Note_on_c, 0, 47, 69
2, 145535, Note_on_c, 0, 79, 0
2, 145552, Note_on_c, 0, 47, 0
2, 145600, Note_on_c, 0, 43, 71
2, 145604, Note_on_c, 0, 76, 77
2, 145626, Note_on_c, 0, 77, 0
2, 145712, Note_on_c, 0, 43, 0
2, 145725, Note_on_c, 0, 74, 82
2, 145727, Note_on_c, 0, 76, 0
2, 145739, Note_on_c, 0, 48, 80
2, 145791, Note_on_c, 0, 48, 0
2, 145791, Note_on_c, 0, 74, 0
2, 145833, Note_on_c, 0, 72, 78
2, 145841, Note_on_c, 0, 43, 64
2, 145960, Note_on_c, 0, 43, 0
2, 145974, Note_on_c, 0, 71, 78
2, 145975, Note_on_c, 0, 50, 87
2, 145993, Note_on_c, 0, 72, 0
2, 146028, Note_on_c, 0, 50, 0
2, 146070, Note_on_c, 0, 71, 0
2, 146079, Note_on_c, 0, 43, 65
2, 146089, Note_on_c, 0, 69, 75
2, 146215, Note_on_c, 0, 43, 0
2, 146223, Note_on_c, 0, 67, 81
2, 146224, Note_on_c, 0, 69, 0
2, 146225, Note_on_c, 0, 52, 94
2, 146284, Note_on_c, 0, 52, 0
2, 146302, Note_on_c, 0, 67, 0
2, 146333, Note_on_c, 0, 43, 66
2, 146341, Note_on_c, 0, 65, 80
2, 146464, Note_on_c, 0, 43, 0
2, 146477, Note_on_c, 0, 53, 90
2, 146478, Note_on_c, 0, 64, 80
2, 146485, Note_on_c, 0, 65, 0
2, 146537, Note_on_c, 0, 53, 0
2, 146581, Note_on_c, 0, 43, 70
2, 146589, Note_on_c, 0, 64, 0
2, 146590, Note_on_c, 0, 62, 86
2, 146685, Note_on_c, 0, 43, 0
2, 146689, Note_on_c, 0, 62, 0
2, 146725, Note_on_c, 0, 52, 88
2, 146733, Note_on_c, 0, 60, 89
2, 146755, Control_c, 0, 64, 63
2, 146770, Control_c, 0, 64, 71
2, 146785, Control_c, 0, 64, 79
2, 146800, Control_c, 0, 64, 87
2, 146815, Note_on_c, 0, 52, 0
2, 146816, Control_c, 0, 64, 90
2, 146817, Note_on_c, 0, 60, 0
2, 146831, Control_c, 0, 64, 92
2, 146846, Control_c, 0, 64, 92
2, 146851, Note_on_c, 0, 40, 74
2, 146879, Note_on_c, 0, 76, 88
2, 146914, Note_on_c, 0, 42, 65
2, 146922, Control_c, 0, 64, 91
2, 146937, Note_on_c, 0, 40, 0
2, 146938, Control_c, 0, 64, 80
2, 146953, Control_c, 0, 64, 40
2, 146967, Control_c, 0, 64, 0
2, 146978, Note_on_c, 0, 44, 73
2, 146986, Note_on_c, 0, 42, 0
2, 146986, Note_on_c, 0, 74, 81
2, 147024, Note_on_c, 0, 76, 0
2, 147051, Note_on_c, 0, 44, 0
2, 147081, Note_on_c, 0, 40, 66
2, 147100, Note_on_c, 0, 72, 78
2, 147109, Note_on_c, 0, 74, 0
2, 147190, Note_on_c, 0, 40, 0
2, 147198, Note_on_c, 0, 72, 0
2, 147224, Note_on_c, 0, 71, 76
2, 147231, Note_on_c, 0, 45, 72
2, 147279, Note_on_c, 0, 45, 0
2, 147285, Note_on_c, 0, 71, 0
2, 147331, Note_on_c, 0, 40, 63
2, 147338, Note_on_c, 0, 69, 74
2, 147447, Note_on_c, 0, 40, 0
2, 147457, Note_on_c, 0, 68, 77
2, 147465, Note_on_c, 0, 47, 79
2, 147465, Note_on_c, 0, 69, 0
2, 147519, Note_on_c, 0, 47, 0
2, 147579, Note_on_c, 0, 66, 74
2, 147581, Note_on_c, 0, 68, 0
2, 147589, Note_on_c, 0, 40, 60
2, 147687, Note_on_c, 0, 66, 0
2, 147691, Note_on_c, 0, 40, 0
2, 147705, Note_on_c, 0, 64, 70
2, 147714, Note_on_c, 0, 48, 76
2, 147768, Note_on_c, 0, 48, 0
2, 147780, Note_on_c, 0, 64, 0
2, 147825, Note_on_c, 0, 40, 65
2, 147829, Note_on_c, 0, 62, 67
2, 147927, Note_on_c, 0, 40, 0
2, 147950, Note_on_c, 0, 50, 75
2, 147950, Note_on_c, 0, 62, 0
2, 147958, Note_on_c, 0, 60, 67
2, 148017, Note_on_c, 0, 50, 0
2, 148050, Note_on_c, 0, 60, 0
2, 148058, Note_on_c, 0, 40, 68
2, 148066, Note_on_c, 0, 59, 66
2, 148133, Control_c, 0, 64, 20
2, 148148, Control_c, 0, 64, 64
2, 148157, Note_on_c, 0, 59, 0
2, 148163, Control_c, 0, 64, 72
2, 148178, Control_c, 0, 64, 81
2, 148192, Note_on_c, 0, 40, 0
2, 148193, Control_c, 0, 64, 90
2, 148194, Note_on_c, 0, 57, 69
2, 148195, Note_on_c, 0, 49, 81
2, 148208, Control_c, 0, 64, 95
2, 148224, Control_c, 0, 64, 97
2, 148230, Note_on_c, 0, 57, 0
2, 148234, Note_on_c, 0, 49, 0
2, 148240, Control_c, 0, 64, 99
2, 148255, Control_c, 0, 64, 101
2, 148277, Control_c, 0, 64, 103
2, 148293, Control_c, 0, 64, 104
2, 148308, Control_c, 0, 64, 104
2, 148325, Note_on_c, 0, 57, 80
2, 148327, Note_on_c, 0, 59, 67
2, 148380, Note_on_c, 0, 59, 0
2, 148399, Control_c, 0, 64, 104
2, 148415, Control_c, 0, 64, 95
2, 148423, Note_on_c, 0, 57, 0
2, 148429, Control_c, 0, 64, 76
2, 148444, Control_c, 0, 64, 0
2, 148448, Note_on_c, 0, 61, 71
2, 148451, Note_on_c, 0, 55, 76
2, 148543, Note_on_c, 0, 61, 0
2, 148554, Note_on_c, 0, 55, 0
2, 148566, Note_on_c, 0, 54, 83
2, 148567, Note_on_c, 0, 57, 74
2, 148656, Note_on_c, 0, 54, 0
2, 148679, Note_on_c, 0, 57, 0
2, 148687, Note_on_c, 0, 62, 85
2, 148691, Note_on_c, 0, 52, 82
2, 148767, Note_on_c, 0, 62, 0
2, 148799, Note_on_c, 0, 52, 0
2, 148799, Note_on_c, 0, 57, 76
2, 148804, Note_on_c, 0, 50, 81
2, 148918, Note_on_c, 0, 57, 0
2, 148920, Note_on_c, 0, 50, 0
2, 148930, Note_on_c, 0, 64, 86
2, 148934, Note_on_c, 0, 49, 83
2, 149008, Note_on_c, 0, 64, 0
2, 149037, Note_on_c, 0, 49, 0
2, 149054, Note_on_c, 0, 57, 78
2, 149062, Note_on_c, 0, 47, 80
2, 149150, Note_on_c, 0, 47, 0
2, 149178, Note_on_c, 0, 66, 95
2, 149180, Note_on_c, 0, 57, 0
2, 149191, Note_on_c, 0, 45, 83
2, 149275, Note_on_c, 0, 66, 0
2, 149294, Note_on_c, 0, 57, 83
2, 149303, Note_on_c, 0, 45, 0
2, 149307, Note_on_c, 0, 43, 82
2, 149428, Note_on_c, 0, 67, 92
2, 149433, Note_on_c, 0, 42, 83
2, 149445, Note_on_c, 0, 57, 0
2, 149450, Note_on_c, 0, 43, 0
2, 149518, Note_on_c, 0, 42, 0
2, 149518, Note_on_c, 0, 67, 0
2, 149536, Note_on_c, 0, 40, 88
2, 149541, Note_on_c, 0, 57, 86
2, 149608, Note_on_c, 0, 40, 0
2, 149643, Note_on_c, 0, 57, 0
2, 149681, Note_on_c, 0, 38, 83
2, 149683, Note_on_c, 0, 62, 87
2, 149683, Note_on_c, 0, 66, 89
2, 149713, Control_c, 0, 64, 52
2, 149728, Control_c, 0, 64, 73
2, 149744, Control_c, 0, 64, 83
2, 149746, Note_on_c, 0, 62, 0
2, 149750, Note_on_c, 0, 66, 0
2, 149759, Control_c, 0, 64, 94
2, 149775, Control_c, 0, 64, 99
2, 149797, Control_c, 0, 64, 102
2, 149813, Control_c, 0, 64, 104
2, 149828, Control_c, 0, 64, 105
2, 149843, Control_c, 0, 64, 108
2, 149858, Control_c, 0, 64, 109
2, 149920, Control_c, 0, 64, 109
2, 149936, Control_c, 0, 64, 102
2, 149950, Control_c, 0, 64, 85
2, 149965, Control_c, 0, 64, 0
2, 149977, Note_on_c, 0, 60, 88
2, 149979, Note_on_c, 0, 71, 88
2, 150035, Note_on_c, 0, 71, 0
2, 150082, Note_on_c, 0, 62, 86
2, 150096, Note_on_c, 0, 60, 0
2, 150205, Note_on_c, 0, 64, 81
2, 150211, Note_on_c, 0, 67, 85
2, 150218, Note_on_c, 0, 62, 0
2, 150273, Note_on_c, 0, 64, 0
2, 150290, Note_on_c, 0, 67, 0
2, 150310, Note_on_c, 0, 62, 91
2, 150382, Note_on_c, 0, 62, 0
2, 150458, Note_on_c, 0, 60, 95
2, 150463, Note_on_c, 0, 64, 81
2, 150481, Control_c, 0, 64, 67
2, 150495, Note_on_c, 0, 64, 0
2, 150496, Control_c, 0, 64, 79
2, 150511, Control_c, 0, 64, 89
2, 150516, Note_on_c, 0, 60, 0
2, 150526, Control_c, 0, 64, 93
2, 150542, Control_c, 0, 64, 95
2, 150564, Control_c, 0, 64, 96
2, 150580, Control_c, 0, 64, 98
2, 150595, Control_c, 0, 64, 101
2, 150610, Control_c, 0, 64, 105
2, 150626, Control_c, 0, 64, 109
2, 150641, Control_c, 0, 64, 111
2, 150656, Control_c, 0, 64, 111
2, 150686, Control_c, 0, 64, 111
2, 150703, Control_c, 0, 64, 107
2, 150717, Control_c, 0, 64, 93
2, 150725, Note_on_c, 0, 59, 92
2, 150730, Note_on_c, 0, 69, 92
2, 150733, Control_c, 0, 64, 72
2, 150748, Control_c, 0, 64, 0
2, 150792, Note_on_c, 0, 69, 0
2, 150805, Note_on_c, 0, 59, 0
2, 150841, Note_on_c, 0, 60, 86
2, 150965, Note_on_c, 0, 62, 78
2, 150973, Note_on_c, 0, 66, 85
2, 150993, Note_on_c, 0, 60, 0
2, 151037, Note_on_c, 0, 62, 0
2, 151076, Note_on_c, 0, 60, 83
2, 151099, Note_on_c, 0, 66, 0
2, 151193, Note_on_c, 0, 60, 0
2, 151210, Note_on_c, 0, 67, 86
2, 151216, Note_on_c, 0, 59, 84
2, 151250, Control_c, 0, 64, 40
2, 151265, Control_c, 0, 64, 63
2, 151280, Control_c, 0, 64, 69
2, 151290, Note_on_c, 0, 59, 0
2, 151296, Control_c, 0, 64, 76
2, 151309, Note_on_c, 0, 38, 0
2, 151311, Control_c, 0, 64, 84
2, 151326, Control_c, 0, 64, 88
2, 151337, Note_on_c, 0, 50, 79
2, 151349, Control_c, 0, 64, 91
2, 151364, Control_c, 0, 64, 92
2, 151380, Control_c, 0, 64, 93
2, 151474, Note_on_c, 0, 50, 0
2, 151475, Note_on_c, 0, 48, 78
2, 151480, Note_on_c, 0, 60, 84
2, 151485, Control_c, 0, 64, 89
2, 151501, Control_c, 0, 64, 79
2, 151517, Control_c, 0, 64, 55
2, 151532, Control_c, 0, 64, 0
2, 151557, Note_on_c, 0, 60, 0
2, 151576, Note_on_c, 0, 48, 0
2, 151596, Note_on_c, 0, 50, 81
2, 151704, Note_on_c, 0, 50, 0
2, 151722, Note_on_c, 0, 52, 79
2, 151723, Note_on_c, 0, 62, 84
2, 151795, Note_on_c, 0, 62, 0
2, 151823, Note_on_c, 0, 52, 0
2, 151841, Note_on_c, 0, 50, 83
2, 151936, Note_on_c, 0, 50, 0
2, 151963, Note_on_c, 0, 67, 0
2, 151965, Note_on_c, 0, 48, 83
2, 151966, Note_on_c, 0, 64, 81
2, 152002, Control_c, 0, 64, 68
2, 152018, Control_c, 0, 64, 82
2, 152023, Note_on_c, 0, 48, 0
2, 152031, Note_on_c, 0, 64, 0
2, 152033, Control_c, 0, 64, 95
2, 152047, Control_c, 0, 64, 100
2, 152063, Control_c, 0, 64, 102
2, 152078, Control_c, 0, 64, 103
2, 152080, Note_on_c, 0, 69, 88
2, 152094, Control_c, 0, 64, 104
2, 152116, Control_c, 0, 64, 107
2, 152121, Note_on_c, 0, 69, 0
2, 152131, Control_c, 0, 64, 111
2, 152147, Control_c, 0, 64, 115
2, 152162, Control_c, 0, 64, 117
2, 152178, Control_c, 0, 64, 118
2, 152207, Control_c, 0, 64, 117
2, 152223, Control_c, 0, 64, 104
2, 152234, Note_on_c, 0, 69, 90
2, 152238, Control_c, 0, 64, 81
2, 152242, Note_on_c, 0, 54, 83
2, 152247, Note_on_c, 0, 47, 78
2, 152254, Control_c, 0, 64, 0
2, 152282, Note_on_c, 0, 69, 0
2, 152289, Note_on_c, 0, 71, 76
2, 152331, Note_on_c, 0, 47, 0
2, 152343, Note_on_c, 0, 69, 84
2, 152343, Note_on_c, 0, 71, 0
2, 152367, Note_on_c, 0, 48, 76
2, 152386, Note_on_c, 0, 69, 0
2, 152401, Note_on_c, 0, 71, 69
2, 152441, Note_on_c, 0, 69, 74
2, 152450, Note_on_c, 0, 71, 0
2, 152454, Note_on_c, 0, 48, 0
2, 152476, Note_on_c, 0, 50, 68
2, 152477, Note_on_c, 0, 69, 0
2, 152489, Note_on_c, 0, 71, 63
2, 152503, Note_on_c, 0, 54, 0
2, 152547, Note_on_c, 0, 69, 84
2, 152549, Note_on_c, 0, 48, 64
2, 152550, Note_on_c, 0, 71, 0
2, 152590, Note_on_c, 0, 50, 0
2, 152599, Note_on_c, 0, 67, 82
2, 152599, Note_on_c, 0, 69, 0
2, 152664, Note_on_c, 0, 48, 0
2, 152681, Note_on_c, 0, 69, 79
2, 152685, Note_on_c, 0, 67, 0
2, 152710, Note_on_c, 0, 55, 68
2, 152715, Note_on_c, 0, 47, 70
2, 152739, Control_c, 0, 64, 66
2, 152743, Note_on_c, 0, 71, 91
2, 152749, Note_on_c, 0, 55, 0
2, 152754, Control_c, 0, 64, 81
2, 152754, Note_on_c, 0, 69, 0
2, 152757, Note_on_c, 0, 47, 0
2, 152769, Control_c, 0, 64, 94
2, 152785, Control_c, 0, 64, 110
2, 152790, Note_on_c, 0, 71, 0
2, 152800, Control_c, 0, 64, 116
2, 152815, Control_c, 0, 64, 120
2, 152830, Control_c, 0, 64, 125
2, 152845, Control_c, 0, 64, 127
2, 152975, Control_c, 0, 64, 106
2, 152990, Control_c, 0, 64, 78
2, 153005, Control_c, 0, 64, 0
2, 153006, Note_on_c, 0, 72, 91
2, 153012, Note_on_c, 0, 45, 77
2, 153016, Note_on_c, 0, 69, 77
2, 153065, Note_on_c, 0, 69, 0
2, 153107, Note_on_c, 0, 45, 0
2, 153111, Note_on_c, 0, 47, 82
2, 153111, Note_on_c, 0, 67, 85
2, 153113, Note_on_c, 0, 71, 78
2, 153156, Note_on_c, 0, 72, 0
2, 153204, Note_on_c, 0, 71, 0
2, 153208, Note_on_c, 0, 67, 0
2, 153211, Note_on_c, 0, 47, 0
2, 153241, Note_on_c, 0, 48, 84
2, 153242, Note_on_c, 0, 69, 79
2, 153245, Note_on_c, 0, 66, 84
2, 153291, Note_on_c, 0, 66, 0
2, 153297, Note_on_c, 0, 69, 0
2, 153324, Note_on_c, 0, 48, 0
2, 153350, Note_on_c, 0, 67, 81
2, 153351, Note_on_c, 0, 47, 86
2, 153351, Note_on_c, 0, 71, 81
2, 153409, Note_on_c, 0, 47, 0
2, 153409, Note_on_c, 0, 67, 0
2, 153425, Note_on_c, 0, 71, 0
2, 153486, Note_on_c, 0, 45, 88
2, 153486, Note_on_c, 0, 72, 94
2, 153487, Note_on_c, 0, 69, 86
2, 153492, Control_c, 0, 64, 58
2, 153507, Control_c, 0, 64, 77
2, 153522, Control_c, 0, 64, 92
2, 153535, Note_on_c, 0, 69, 0
2, 153538, Control_c, 0, 64, 108
2, 153539, Note_on_c, 0, 72, 0
2, 153541, Note_on_c, 0, 45, 0
2, 153553, Control_c, 0, 64, 115
2, 153568, Control_c, 0, 64, 121
2, 153583, Control_c, 0, 64, 127
2, 153756, Control_c, 0, 64, 106
2, 153765, Note_on_c, 0, 43, 80
2, 153765, Note_on_c, 0, 74, 98
2, 153771, Control_c, 0, 64, 81
2, 153772, Note_on_c, 0, 71, 88
2, 153786, Control_c, 0, 64, 0
2, 153850, Note_on_c, 0, 71, 0
2, 153877, Note_on_c, 0, 43, 0
2, 153878, Note_on_c, 0, 69, 85
2, 153882, Note_on_c, 0, 45, 82
2, 153884, Note_on_c, 0, 72, 79
2, 153905, Note_on_c, 0, 74, 0
2, 153967, Note_on_c, 0, 69, 0
2, 153985, Note_on_c, 0, 45, 0
2, 154000, Note_on_c, 0, 71, 82
2, 154006, Note_on_c, 0, 72, 0
2, 154009, Note_on_c, 0, 67, 80
2, 154010, Note_on_c, 0, 47, 87
2, 154065, Note_on_c, 0, 71, 0
2, 154069, Note_on_c, 0, 67, 0
2, 154086, Note_on_c, 0, 47, 0
2, 154117, Note_on_c, 0, 45, 79
2, 154119, Note_on_c, 0, 72, 83
2, 154120, Note_on_c, 0, 69, 88
2, 154181, Note_on_c, 0, 69, 0
2, 154193, Note_on_c, 0, 72, 0
2, 154201, Note_on_c, 0, 45, 0
2, 154243, Note_on_c, 0, 43, 89
2, 154247, Note_on_c, 0, 74, 91
2, 154254, Note_on_c, 0, 71, 79
2, 154257, Control_c, 0, 64, 72
2, 154273, Control_c, 0, 64, 89
2, 154285, Note_on_c, 0, 43, 0
2, 154288, Control_c, 0, 64, 104
2, 154304, Control_c, 0, 64, 107
2, 154307, Note_on_c, 0, 71, 0
2, 154319, Control_c, 0, 64, 109
2, 154333, Control_c, 0, 64, 109
2, 154349, Control_c, 0, 64, 110
2, 154364, Control_c, 0, 64, 110
2, 154416, Note_on_c, 0, 55, 80
2, 154463, Control_c, 0, 64, 110
2, 154477, Note_on_c, 0, 54, 77
2, 154478, Control_c, 0, 64, 97
2, 154479, Note_on_c, 0, 55, 0
2, 154493, Control_c, 0, 64, 75
2, 154503, Note_on_c, 0, 72, 89
2, 154508, Control_c, 0, 64, 0
2, 154513, Note_on_c, 0, 69, 85
2, 154516, Note_on_c, 0, 74, 0
2, 154549, Note_on_c, 0, 52, 74
2, 154556, Note_on_c, 0, 54, 0
2, 154631, Note_on_c, 0, 52, 0
2, 154650, Note_on_c, 0, 55, 76
2, 154766, Note_on_c, 0, 55, 0
2, 154770, Note_on_c, 0, 71, 86
2, 154777, Note_on_c, 0, 67, 84
2, 154793, Note_on_c, 0, 50, 73
2, 154799, Note_on_c, 0, 69, 0
2, 154813, Note_on_c, 0, 72, 0
2, 154864, Note_on_c, 0, 50, 0
2, 154890, Note_on_c, 0, 55, 79
2, 154973, Note_on_c, 0, 67, 0
2, 155011, Control_c, 0, 64, 45
2, 155018, Note_on_c, 0, 69, 96
2, 155023, Note_on_c, 0, 55, 0
2, 155027, Control_c, 0, 64, 70
2, 155030, Note_on_c, 0, 49, 80
2, 155040, Note_on_c, 0, 71, 0
2, 155042, Control_c, 0, 64, 79
2, 155057, Control_c, 0, 64, 93
2, 155061, Note_on_c, 0, 69, 0
2, 155073, Control_c, 0, 64, 100
2, 155088, Control_c, 0, 64, 104
2, 155104, Control_c, 0, 64, 106
2, 155119, Control_c, 0, 64, 108
2, 155122, Note_on_c, 0, 49, 0
2, 155134, Control_c, 0, 64, 111
2, 155136, Note_on_c, 0, 57, 79
2, 155149, Control_c, 0, 64, 114
2, 155164, Control_c, 0, 64, 116
2, 155264, Control_c, 0, 64, 112
2, 155278, Control_c, 0, 64, 101
2, 155279, Note_on_c, 0, 79, 97
2, 155285, Note_on_c, 0, 74, 88
2, 155292, Note_on_c, 0, 47, 79
2, 155293, Control_c, 0, 64, 86
2, 155301, Note_on_c, 0, 57, 0
2, 155309, Control_c, 0, 64, 68
2, 155324, Control_c, 0, 64, 0
2, 155385, Control_c, 0, 64, 63
2, 155395, Note_on_c, 0, 47, 0
2, 155400, Control_c, 0, 64, 73
2, 155414, Control_c, 0, 64, 87
2, 155414, Note_on_c, 0, 57, 76
2, 155430, Control_c, 0, 64, 101
2, 155445, Control_c, 0, 64, 111
2, 155461, Control_c, 0, 64, 115
2, 155475, Control_c, 0, 64, 116
2, 155535, Control_c, 0, 64, 113
2, 155543, Note_on_c, 0, 57, 0
2, 155548, Note_on_c, 0, 73, 94
2, 155551, Control_c, 0, 64, 96
2, 155555, Note_on_c, 0, 45, 79
2, 155566, Control_c, 0, 64, 78
2, 155582, Control_c, 0, 64, 0
2, 155602, Note_on_c, 0, 74, 0
2, 155602, Note_on_c, 0, 79, 0
2, 155628, Control_c, 0, 64, 47
2, 155643, Control_c, 0, 64, 76
2, 155653, Note_on_c, 0, 45, 0
2, 155658, Control_c, 0, 64, 98
2, 155659, Note_on_c, 0, 57, 80
2, 155674, Control_c, 0, 64, 127
2, 155696, Note_on_c, 0, 73, 0
2, 155779, Control_c, 0, 64, 104
2, 155795, Control_c, 0, 64, 78
2, 155797, Note_on_c, 0, 50, 82
2, 155798, Note_on_c, 0, 57, 0
2, 155800, Note_on_c, 0, 78, 97
2, 155801, Note_on_c, 0, 74, 91
2, 155810, Control_c, 0, 64, 0
2, 155856, Control_c, 0, 64, 58
2, 155872, Control_c, 0, 64, 79
2, 155887, Control_c, 0, 64, 105
2, 155891, Note_on_c, 0, 74, 0
2, 155903, Control_c, 0, 64, 127
2, 155909, Note_on_c, 0, 48, 80
2, 155912, Note_on_c, 0, 50, 0
2, 155914, Note_on_c, 0, 78, 0
2, 156014, Note_on_c, 0, 48, 0
2, 156031, Control_c, 0, 64, 114
2, 156046, Control_c, 0, 64, 82
2, 156059, Note_on_c, 0, 46, 79
2, 156059, Note_on_c, 0, 76, 96
2, 156062, Control_c, 0, 64, 0
2, 156063, Note_on_c, 0, 67, 94
2, 156122, Control_c, 0, 64, 64
2, 156137, Control_c, 0, 64, 85
2, 156153, Control_c, 0, 64, 127
2, 156168, Control_c, 0, 64, 127
2, 156168, Note_on_c, 0, 46, 0
2, 156179, Note_on_c, 0, 67, 0
2, 156183, Note_on_c, 0, 50, 82
2, 156187, Note_on_c, 0, 76, 0
2, 156289, Control_c, 0, 64, 93
2, 156305, Control_c, 0, 64, 68
2, 156320, Control_c, 0, 64, 0
2, 156321, Note_on_c, 0, 74, 89
2, 156324, Note_on_c, 0, 66, 96
2, 156330, Note_on_c, 0, 45, 81
2, 156339, Note_on_c, 0, 50, 0
2, 156365, Control_c, 0, 64, 58
2, 156379, Control_c, 0, 64, 83
2, 156395, Control_c, 0, 64, 127
2, 156431, Note_on_c, 0, 45, 0
2, 156445, Note_on_c, 0, 50, 87
2, 156448, Note_on_c, 0, 66, 0
2, 156455, Note_on_c, 0, 74, 0
2, 156533, Control_c, 0, 64, 98
2, 156548, Control_c, 0, 64, 69
2, 156563, Control_c, 0, 64, 0
2, 156576, Note_on_c, 0, 73, 98
2, 156579, Note_on_c, 0, 64, 99
2, 156585, Note_on_c, 0, 43, 81
2, 156598, Note_on_c, 0, 50, 0
2, 156624, Control_c, 0, 64, 80
2, 156630, Note_on_c, 0, 64, 0
2, 156639, Control_c, 0, 64, 112
2, 156654, Control_c, 0, 64, 127
2, 156658, Note_on_c, 0, 73, 0
2, 156673, Note_on_c, 0, 43, 0
2, 156717, Note_on_c, 0, 52, 88
2, 156878, Note_on_c, 0, 82, 107
2, 156881, Note_on_c, 0, 73, 105
2, 156890, Note_on_c, 0, 42, 82
2, 156905, Control_c, 0, 64, 115
2, 156907, Note_on_c, 0, 52, 0
2, 156920, Control_c, 0, 64, 79
2, 156935, Control_c, 0, 64, 0
2, 157003, Note_on_c, 0, 42, 0
2, 157022, Note_on_c, 0, 52, 84
2, 157087, Control_c, 0, 64, 73
2, 157102, Control_c, 0, 64, 87
2, 157117, Control_c, 0, 64, 112
2, 157132, Control_c, 0, 64, 127
2, 157157, Note_on_c, 0, 52, 0
2, 157159, Note_on_c, 0, 73, 0
2, 157162, Note_on_c, 0, 40, 90
2, 157163, Note_on_c, 0, 82, 0
2, 157276, Note_on_c, 0, 52, 94
2, 157280, Note_on_c, 0, 40, 0
2, 157406, Control_c, 0, 64, 102
2, 157413, Note_on_c, 0, 42, 97
2, 157418, Note_on_c, 0, 81, 103
2, 157422, Control_c, 0, 64, 78
2, 157424, Note_on_c, 0, 72, 94
2, 157436, Note_on_c, 0, 52, 0
2, 157437, Control_c, 0, 64, 0
2, 157531, Note_on_c, 0, 42, 0
2, 157547, Note_on_c, 0, 79, 81
2, 157586, Note_on_c, 0, 81, 0
2, 157691, Note_on_c, 0, 78, 88
2, 157693, Note_on_c, 0, 38, 89
2, 157718, Control_c, 0, 64, 70
2, 157730, Note_on_c, 0, 79, 0
2, 157733, Control_c, 0, 64, 88
2, 157749, Control_c, 0, 64, 113
2, 157764, Control_c, 0, 64, 127
2, 157783, Note_on_c, 0, 38, 0
2, 157798, Note_on_c, 0, 76, 86
2, 157819, Note_on_c, 0, 78, 0
2, 157862, Note_on_c, 0, 76, 0
2, 157886, Control_c, 0, 64, 100
2, 157902, Control_c, 0, 64, 71
2, 157917, Control_c, 0, 64, 0
2, 157933, Note_on_c, 0, 74, 92
2, 157934, Note_on_c, 0, 43, 94
2, 157953, Note_on_c, 0, 72, 0
2, 157977, Control_c, 0, 64, 65
2, 157992, Control_c, 0, 64, 82
2, 158007, Control_c, 0, 64, 112
2, 158015, Note_on_c, 0, 43, 0
2, 158023, Control_c, 0, 64, 127
2, 158064, Note_on_c, 0, 74, 0
2, 158066, Note_on_c, 0, 71, 81
2, 158124, Note_on_c, 0, 71, 0
2, 158125, Note_on_c, 0, 69, 84
2, 158130, Control_c, 0, 64, 98
2, 158146, Control_c, 0, 64, 72
2, 158160, Control_c, 0, 64, 0
2, 158189, Note_on_c, 0, 71, 89
2, 158191, Note_on_c, 0, 40, 92
2, 158198, Note_on_c, 0, 69, 0
2, 158222, Control_c, 0, 64, 47
2, 158244, Control_c, 0, 64, 79
2, 158259, Control_c, 0, 64, 103
2, 158274, Note_on_c, 0, 40, 0
2, 158275, Control_c, 0, 64, 127
2, 158308, Note_on_c, 0, 71, 0
2, 158324, Note_on_c, 0, 79, 93
2, 158396, Control_c, 0, 64, 118
2, 158411, Control_c, 0, 64, 86
2, 158426, Control_c, 0, 64, 38
2, 158441, Control_c, 0, 64, 0
2, 158451, Note_on_c, 0, 69, 94
2, 158452, Note_on_c, 0, 36, 91
2, 158464, Note_on_c, 0, 79, 0
2, 158502, Control_c, 0, 64, 62
2, 158513, Note_on_c, 0, 36, 0
2, 158517, Control_c, 0, 64, 85
2, 158532, Control_c, 0, 64, 127
2, 158577, Note_on_c, 0, 72, 96
2, 158669, Control_c, 0, 64, 115
2, 158684, Control_c, 0, 64, 84
2, 158699, Control_c, 0, 64, 0
2, 158709, Note_on_c, 0, 38, 95
2, 158714, Note_on_c, 0, 79, 91
2, 158761, Control_c, 0, 64, 73
2, 158764, Note_on_c, 0, 38, 0
2, 158772, Note_on_c, 0, 69, 0
2, 158776, Control_c, 0, 64, 94
2, 158791, Control_c, 0, 64, 127
2, 158837, Note_on_c, 0, 78, 92
2, 158868, Note_on_c, 0, 79, 0
2, 159033, Note_on_c, 0, 43, 96
2, 159033, Note_on_c, 0, 71, 87
2, 159033, Note_on_c, 0, 79, 91
2, 159035, Note_on_c, 0, 72, 0
2, 159072, Note_on_c, 0, 78, 0
2, 159073, Control_c, 0, 64, 101
2, 159088, Control_c, 0, 64, 75
2, 159104, Control_c, 0, 64, 0
2, 159210, Note_on_c, 0, 71, 0
2, 159221, Note_on_c, 0, 78, 83
2, 159249, Note_on_c, 0, 79, 0
2, 159257, Note_on_c, 0, 76, 74
2, 159312, Note_on_c, 0, 78, 0
2, 159326, Note_on_c, 0, 74, 87
2, 159329, Note_on_c, 0, 71, 75
2, 159334, Note_on_c, 0, 76, 0
2, 159407, Note_on_c, 0, 71, 0
2, 159422, Note_on_c, 0, 74, 0
2, 159452, Note_on_c, 0, 79, 93
2, 159584, Note_on_c, 0, 72, 86
2, 159591, Note_on_c, 0, 69, 85
2, 159593, Note_on_c, 0, 79, 0
2, 159652, Note_on_c, 0, 69, 0
2, 159661, Note_on_c, 0, 72, 0
2, 159699, Note_on_c, 0, 79, 92
2, 159826, Control_c, 0, 64, 61
2, 159840, Note_on_c, 0, 71, 93
2, 159841, Control_c, 0, 64, 72
2, 159845, Note_on_c, 0, 67, 90
2, 159847, Note_on_c, 0, 79, 0
2, 159856, Control_c, 0, 64, 83
2, 159871, Control_c, 0, 64, 97
2, 159878, Note_on_c, 0, 43, 0
2, 159886, Control_c, 0, 64, 106
2, 159902, Control_c, 0, 64, 112
2, 159917, Control_c, 0, 64, 116
2, 159931, Control_c, 0, 64, 121
2, 159947, Control_c, 0, 64, 127
2, 159976, Note_on_c, 0, 43, 84
2, 160040, Note_on_c, 0, 45, 75
2, 160054, Control_c, 0, 64, 104
2, 160057, Note_on_c, 0, 43, 0
2, 160063, Note_on_c, 0, 67, 0
2, 160069, Control_c, 0, 64, 73
2, 160084, Control_c, 0, 64, 0
2, 160104, Note_on_c, 0, 71, 0
2, 160108, Note_on_c, 0, 79, 94
2, 160109, Note_on_c, 0, 47, 83
2, 160119, Note_on_c, 0, 45, 0
2, 160201, Note_on_c, 0, 47, 0
2, 160226, Note_on_c, 0, 43, 85
2, 160351, Note_on_c, 0, 43, 0
2, 160352, Note_on_c, 0, 79, 0
2, 160361, Note_on_c, 0, 69, 91
2, 160364, Note_on_c, 0, 66, 88
2, 160367, Note_on_c, 0, 48, 90
2, 160485, Note_on_c, 0, 43, 87
2, 160486, Note_on_c, 0, 48, 0
2, 160515, Note_on_c, 0, 66, 0
2, 160624, Note_on_c, 0, 43, 0
2, 160626, Note_on_c, 0, 69, 0
2, 160630, Note_on_c, 0, 50, 90
2, 160632, Note_on_c, 0, 71, 83
2, 160639, Note_on_c, 0, 67, 77
2, 160714, Note_on_c, 0, 67, 0
2, 160732, Note_on_c, 0, 71, 0
2, 160762, Note_on_c, 0, 74, 84
2, 160849, Note_on_c, 0, 72, 77
2, 160877, Note_on_c, 0, 50, 0
2, 160878, Note_on_c, 0, 74, 0
2, 160883, Note_on_c, 0, 67, 77
2, 160888, Note_on_c, 0, 43, 81
2, 160892, Note_on_c, 0, 71, 83
2, 160931, Note_on_c, 0, 72, 0
2, 160972, Note_on_c, 0, 67, 0
2, 161010, Note_on_c, 0, 71, 0
2, 161024, Note_on_c, 0, 74, 87
2, 161158, Note_on_c, 0, 69, 89
2, 161161, Note_on_c, 0, 47, 86
2, 161163, Note_on_c, 0, 65, 83
2, 161173, Note_on_c, 0, 74, 0
2, 161252, Note_on_c, 0, 65, 0
2, 161261, Note_on_c, 0, 69, 0
2, 161278, Note_on_c, 0, 74, 92
2, 161408, Note_on_c, 0, 47, 0
2, 161425, Note_on_c, 0, 64, 83
2, 161425, Note_on_c, 0, 67, 85
2, 161427, Note_on_c, 0, 48, 80
2, 161442, Note_on_c, 0, 74, 0
2, 161488, Note_on_c, 0, 48, 0
2, 161497, Note_on_c, 0, 47, 79
2, 161551, Note_on_c, 0, 48, 76
2, 161565, Note_on_c, 0, 47, 0
2, 161601, Note_on_c, 0, 50, 78
2, 161609, Note_on_c, 0, 48, 0
2, 161692, Note_on_c, 0, 52, 88
2, 161695, Note_on_c, 0, 72, 81
2, 161701, Note_on_c, 0, 67, 0
2, 161710, Note_on_c, 0, 50, 0
2, 161726, Note_on_c, 0, 64, 0
2, 161795, Note_on_c, 0, 52, 0
2, 161832, Note_on_c, 0, 48, 82
2, 161972, Note_on_c, 0, 63, 91
2, 161981, Note_on_c, 0, 54, 89
2, 162007, Note_on_c, 0, 48, 0
2, 162028, Control_c, 0, 64, 70
2, 162043, Control_c, 0, 64, 81
2, 162057, Control_c, 0, 64, 94
2, 162073, Control_c, 0, 64, 101
2, 162076, Note_on_c, 0, 63, 0
2, 162096, Control_c, 0, 64, 105
2, 162110, Note_on_c, 0, 54, 0
2, 162112, Control_c, 0, 64, 107
2, 162117, Note_on_c, 0, 48, 87
2, 162127, Control_c, 0, 64, 109
2, 162141, Control_c, 0, 64, 110
2, 162158, Control_c, 0, 64, 111
2, 162173, Control_c, 0, 64, 112
2, 162234, Control_c, 0, 64, 111
2, 162249, Control_c, 0, 64, 104
2, 162259, Note_on_c, 0, 55, 82
2, 162262, Note_on_c, 0, 62, 89
2, 162264, Control_c, 0, 64, 88
2, 162272, Note_on_c, 0, 48, 0
2, 162280, Control_c, 0, 64, 67
2, 162292, Note_on_c, 0, 72, 0
2, 162295, Control_c, 0, 64, 0
2, 162327, Note_on_c, 0, 67, 82
2, 162360, Note_on_c, 0, 62, 0
2, 162390, Note_on_c, 0, 69, 79
2, 162401, Control_c, 0, 64, 44
2, 162416, Control_c, 0, 64, 68
2, 162432, Control_c, 0, 64, 77
2, 162434, Note_on_c, 0, 67, 0
2, 162446, Control_c, 0, 64, 85
2, 162450, Note_on_c, 0, 71, 82
2, 162461, Control_c, 0, 64, 87
2, 162473, Note_on_c, 0, 69, 0
2, 162522, Control_c, 0, 64, 81
2, 162536, Note_on_c, 0, 72, 90
2, 162537, Control_c, 0, 64, 66
2, 162546, Note_on_c, 0, 64, 80
2, 162553, Control_c, 0, 64, 0
2, 162559, Note_on_c, 0, 71, 0
2, 162659, Control_c, 0, 64, 72
2, 162675, Control_c, 0, 64, 86
2, 162680, Note_on_c, 0, 67, 92
2, 162688, Note_on_c, 0, 72, 0
2, 162689, Note_on_c, 0, 64, 0
2, 162690, Control_c, 0, 64, 106
2, 162704, Control_c, 0, 64, 116
2, 162720, Control_c, 0, 64, 118
2, 162796, Control_c, 0, 64, 116
2, 162804, Note_on_c, 0, 67, 0
2, 162811, Control_c, 0, 64, 100
2, 162825, Note_on_c, 0, 74, 92
2, 162826, Control_c, 0, 64, 81
2, 162829, Note_on_c, 0, 71, 79
2, 162832, Note_on_c, 0, 65, 85
2, 162842, Control_c, 0, 64, 0
2, 162925, Control_c, 0, 64, 64
2, 162927, Note_on_c, 0, 71, 0
2, 162932, Note_on_c, 0, 65, 0
2, 162940, Control_c, 0, 64, 80
2, 162956, Control_c, 0, 64, 101
2, 162971, Control_c, 0, 64, 127
2, 162977, Note_on_c, 0, 67, 95
2, 163016, Note_on_c, 0, 74, 0
2, 163035, Note_on_c, 0, 67, 0
2, 163124, Control_c, 0, 64, 97
2, 163128, Note_on_c, 0, 76, 92
2, 163131, Note_on_c, 0, 67, 89
2, 163135, Note_on_c, 0, 72, 81
2, 163138, Control_c, 0, 64, 71
2, 163154, Control_c, 0, 64, 0
2, 163202, Note_on_c, 0, 72, 0
2, 163213, Note_on_c, 0, 71, 84
2, 163220, Note_on_c, 0, 67, 0
2, 163260, Control_c, 0, 64, 64
2, 163264, Note_on_c, 0, 76, 0
2, 163276, Control_c, 0, 64, 79
2, 163286, Note_on_c, 0, 72, 83
2, 163290, Control_c, 0, 64, 99
2, 163305, Control_c, 0, 64, 127
2, 163328, Note_on_c, 0, 71, 0
2, 163338, Note_on_c, 0, 74, 84
2, 163375, Note_on_c, 0, 72, 0
2, 163428, Control_c, 0, 64, 113
2, 163431, Note_on_c, 0, 76, 98
2, 163443, Control_c, 0, 64, 86
2, 163443, Note_on_c, 0, 67, 85
2, 163454, Note_on_c, 0, 74, 0
2, 163457, Control_c, 0, 64, 18
2, 163473, Control_c, 0, 64, 0
2, 163564, Control_c, 0, 64, 61
2, 163579, Control_c, 0, 64, 75
2, 163595, Control_c, 0, 64, 94
2, 163595, Note_on_c, 0, 72, 95
2, 163607, Note_on_c, 0, 67, 0
2, 163610, Control_c, 0, 64, 112
2, 163626, Note_on_c, 0, 76, 0
2, 163632, Control_c, 0, 64, 127
2, 163768, Note_on_c, 0, 78, 101
2, 163778, Note_on_c, 0, 69, 81
2, 163784, Control_c, 0, 64, 115
2, 163798, Note_on_c, 0, 72, 0
2, 163800, Control_c, 0, 64, 90
2, 163815, Control_c, 0, 64, 67
2, 163831, Control_c, 0, 64, 0
2, 163937, Note_on_c, 0, 72, 92
2, 163944, Note_on_c, 0, 69, 0
2, 163980, Control_c, 0, 64, 76
2, 163996, Control_c, 0, 64, 96
2, 164011, Control_c, 0, 64, 112
2, 164026, Control_c, 0, 64, 112
2, 164042, Control_c, 0, 64, 113
2, 164057, Control_c, 0, 64, 114
2, 164126, Note_on_c, 0, 79, 94
2, 164127, Note_on_c, 0, 71, 86
2, 164138, Note_on_c, 0, 72, 0
2, 164140, Note_on_c, 0, 78, 0
2, 164149, Control_c, 0, 64, 113
2, 164164, Control_c, 0, 64, 105
2, 164178, Control_c, 0, 64, 86
2, 164194, Control_c, 0, 64, 64
2, 164209, Control_c, 0, 64, 0
2, 164311, Note_on_c, 0, 74, 87
2, 164504, Note_on_c, 0, 76, 84
2, 164524, Note_on_c, 0, 74, 0
2, 164700, Note_on_c, 0, 72, 87
2, 164734, Note_on_c, 0, 71, 0
2, 164768, Note_on_c, 0, 76, 0
2, 164913, Note_on_c, 0, 69, 92
2, 165115, Control_c, 0, 64, 49
2, 165130, Control_c, 0, 64, 64
2, 165152, Control_c, 0, 64, 69
2, 165167, Control_c, 0, 64, 77
2, 165176, Note_on_c, 0, 78, 92
2, 165182, Control_c, 0, 64, 84
2, 165198, Control_c, 0, 64, 89
2, 165208, Note_on_c, 0, 79, 0
2, 165213, Control_c, 0, 64, 92
2, 165228, Control_c, 0, 64, 95
2, 165243, Control_c, 0, 64, 98
2, 165258, Control_c, 0, 64, 102
2, 165274, Control_c, 0, 64, 107
2, 165275, Note_on_c, 0, 69, 0
2, 165289, Control_c, 0, 64, 112
2, 165304, Control_c, 0, 64, 115
2, 165320, Control_c, 0, 64, 117
2, 165335, Control_c, 0, 64, 118
2, 165488, Control_c, 0, 64, 117
2, 165519, Control_c, 0, 64, 117
2, 165533, Control_c, 0, 64, 116
2, 165549, Control_c, 0, 64, 115
2, 165555, Note_on_c, 0, 79, 85
2, 165564, Control_c, 0, 64, 113
2, 165564, Note_on_c, 0, 74, 81
2, 165567, Note_on_c, 0, 71, 81
2, 165570, Note_on_c, 0, 78, 0
2, 165579, Control_c, 0, 64, 110
2, 165594, Control_c, 0, 64, 106
2, 165604, Note_on_c, 0, 72, 0
2, 165609, Control_c, 0, 64, 99
2, 165624, Control_c, 0, 64, 89
2, 165640, Control_c, 0, 64, 76
2, 165655, Control_c, 0, 64, 0
2, 167924, Note_on_c, 0, 71, 0
2, 167995, Note_on_c, 0, 43, 0
2, 167995, Note_on_c, 0, 55, 0
2, 167995, Note_on_c, 0, 74, 0
2, 167995, Note_on_c, 0, 79, 0
2, 167996, End_track
0, 0, End_of_file
