0, 0, Header, 1, 2, 384
1, 0, Start_track
1, 0, Tempo, 500000
1, 0, Time_signature, 4, 2, 24, 8
1, 1, End_track
2, 0, Start_track
2, 0, Title_t," ""Ko04-07.MID"""
2, 0, Program_c, 0, 0
2, 835, Note_on_c, 0, 67, 81
2, 840, Note_on_c, 0, 55, 64
2, 873, Note_on_c, 0, 55, 0
2, 894, Note_on_c, 0, 67, 0
2, 902, Note_on_c, 0, 71, 79
2, 964, Note_on_c, 0, 74, 77
2, 967, Note_on_c, 0, 71, 0
2, 1027, Note_on_c, 0, 74, 0
2, 1038, Note_on_c, 0, 79, 86
2, 1039, Note_on_c, 0, 43, 67
2, 1065, Note_on_c, 0, 43, 0
2, 1112, Note_on_c, 0, 79, 0
2, 1113, Note_on_c, 0, 74, 83
2, 1178, Note_on_c, 0, 74, 0
2, 1186, Note_on_c, 0, 71, 74
2, 1248, Note_on_c, 0, 71, 0
2, 1270, Note_on_c, 0, 74, 77
2, 1336, Note_on_c, 0, 74, 0
2, 1346, Note_on_c, 0, 71, 69
2, 1375, Note_on_c, 0, 71, 0
2, 1421, Note_on_c, 0, 67, 65
2, 1457, Note_on_c, 0, 67, 0
2, 1477, Note_on_c, 0, 55, 74
2, 1491, Note_on_c, 0, 71, 82
2, 1502, Note_on_c, 0, 55, 0
2, 1562, Note_on_c, 0, 67, 83
2, 1589, Note_on_c, 0, 71, 0
2, 1655, Note_on_c, 0, 67, 0
2, 1656, Note_on_c, 0, 62, 76
2, 1704, Note_on_c, 0, 62, 0
2, 1727, Note_on_c, 0, 55, 86
2, 1737, Note_on_c, 0, 64, 84
2, 1775, Note_on_c, 0, 55, 0
2, 1796, Note_on_c, 0, 64, 0
2, 1810, Note_on_c, 0, 67, 86
2, 1871, Note_on_c, 0, 67, 0
2, 1891, Note_on_c, 0, 72, 74
2, 1968, Note_on_c, 0, 43, 81
2, 1969, Note_on_c, 0, 76, 82
2, 1974, Note_on_c, 0, 72, 0
2, 2000, Note_on_c, 0, 43, 0
2, 2042, Note_on_c, 0, 72, 79
2, 2072, Note_on_c, 0, 76, 0
2, 2119, Note_on_c, 0, 67, 75
2, 2119, Note_on_c, 0, 72, 0
2, 2188, Note_on_c, 0, 67, 0
2, 2200, Note_on_c, 0, 72, 83
2, 2265, Note_on_c, 0, 72, 0
2, 2270, Note_on_c, 0, 67, 78
2, 2325, Note_on_c, 0, 67, 0
2, 2346, Note_on_c, 0, 64, 76
2, 2390, Note_on_c, 0, 64, 0
2, 2426, Note_on_c, 0, 55, 85
2, 2445, Note_on_c, 0, 65, 74
2, 2445, Note_on_c, 0, 67, 74
2, 2465, Note_on_c, 0, 55, 0
2, 2505, Note_on_c, 0, 64, 80
2, 2507, Note_on_c, 0, 67, 0
2, 2519, Note_on_c, 0, 65, 0
2, 2592, Note_on_c, 0, 60, 75
2, 2599, Note_on_c, 0, 64, 0
2, 2641, Note_on_c, 0, 60, 0
2, 2656, Note_on_c, 0, 55, 79
2, 2661, Note_on_c, 0, 57, 82
2, 2684, Note_on_c, 0, 55, 0
2, 2727, Note_on_c, 0, 57, 0
2, 2736, Note_on_c, 0, 60, 86
2, 2796, Note_on_c, 0, 60, 0
2, 2815, Note_on_c, 0, 66, 73
2, 2898, Note_on_c, 0, 69, 82
2, 2902, Note_on_c, 0, 43, 64
2, 2902, Note_on_c, 0, 66, 0
2, 2932, Note_on_c, 0, 43, 0
2, 2970, Note_on_c, 0, 66, 78
2, 2992, Note_on_c, 0, 69, 0
2, 3045, Note_on_c, 0, 66, 0
2, 3050, Note_on_c, 0, 60, 62
2, 3130, Note_on_c, 0, 60, 0
2, 3132, Note_on_c, 0, 66, 79
2, 3204, Note_on_c, 0, 66, 0
2, 3210, Note_on_c, 0, 60, 73
2, 3253, Note_on_c, 0, 60, 0
2, 3298, Note_on_c, 0, 57, 62
2, 3327, Note_on_c, 0, 57, 0
2, 3347, Note_on_c, 0, 55, 71
2, 3365, Note_on_c, 0, 60, 76
2, 3377, Note_on_c, 0, 55, 0
2, 3434, Note_on_c, 0, 60, 0
2, 3435, Note_on_c, 0, 57, 66
2, 3505, Note_on_c, 0, 57, 0
2, 3510, Note_on_c, 0, 54, 69
2, 3551, Note_on_c, 0, 54, 0
2, 3582, Note_on_c, 0, 55, 80
2, 3625, Note_on_c, 0, 55, 0
2, 3674, Note_on_c, 0, 59, 57
2, 3720, Note_on_c, 0, 59, 0
2, 3751, Note_on_c, 0, 62, 60
2, 3820, Note_on_c, 0, 62, 0
2, 3822, Note_on_c, 0, 43, 54
2, 3825, Note_on_c, 0, 67, 68
2, 3852, Note_on_c, 0, 43, 0
2, 3912, Note_on_c, 0, 67, 0
2, 3915, Note_on_c, 0, 62, 71
2, 3981, Note_on_c, 0, 62, 0
2, 3989, Note_on_c, 0, 59, 66
2, 4056, Note_on_c, 0, 59, 0
2, 4083, Note_on_c, 0, 62, 73
2, 4149, Note_on_c, 0, 62, 0
2, 4159, Note_on_c, 0, 59, 70
2, 4189, Note_on_c, 0, 59, 0
2, 4230, Note_on_c, 0, 55, 69
2, 4271, Note_on_c, 0, 55, 0
2, 4298, Note_on_c, 0, 55, 54
2, 4299, Note_on_c, 0, 59, 80
2, 4336, Note_on_c, 0, 55, 0
2, 4346, Note_on_c, 0, 59, 0
2, 4391, Note_on_c, 0, 55, 80
2, 4417, Note_on_c, 0, 55, 0
2, 4447, Note_on_c, 0, 52, 69
2, 4508, Note_on_c, 0, 52, 0
2, 4538, Note_on_c, 0, 57, 84
2, 4546, Note_on_c, 0, 55, 73
2, 4577, Note_on_c, 0, 55, 0
2, 4602, Note_on_c, 0, 57, 0
2, 4611, Note_on_c, 0, 61, 81
2, 4696, Note_on_c, 0, 61, 0
2, 4696, Note_on_c, 0, 64, 75
2, 4776, Note_on_c, 0, 64, 0
2, 4781, Note_on_c, 0, 69, 77
2, 4784, Note_on_c, 0, 43, 61
2, 4815, Note_on_c, 0, 43, 0
2, 4858, Note_on_c, 0, 64, 76
2, 4863, Note_on_c, 0, 69, 0
2, 4927, Note_on_c, 0, 64, 0
2, 4934, Note_on_c, 0, 61, 73
2, 5008, Note_on_c, 0, 61, 0
2, 5014, Note_on_c, 0, 64, 73
2, 5095, Note_on_c, 0, 64, 0
2, 5104, Note_on_c, 0, 61, 67
2, 5130, Note_on_c, 0, 61, 0
2, 5163, Note_on_c, 0, 57, 73
2, 5216, Note_on_c, 0, 57, 0
2, 5221, Note_on_c, 0, 55, 74
2, 5235, Note_on_c, 0, 61, 75
2, 5248, Note_on_c, 0, 55, 0
2, 5315, Note_on_c, 0, 57, 67
2, 5320, Note_on_c, 0, 61, 0
2, 5376, Note_on_c, 0, 52, 75
2, 5380, Note_on_c, 0, 57, 0
2, 5437, Note_on_c, 0, 52, 0
2, 5471, Note_on_c, 0, 62, 74
2, 5488, Note_on_c, 0, 54, 73
2, 5524, Note_on_c, 0, 62, 0
2, 5560, Note_on_c, 0, 57, 66
2, 5576, Note_on_c, 0, 54, 0
2, 5628, Note_on_c, 0, 57, 0
2, 5640, Note_on_c, 0, 61, 70
2, 5679, Note_on_c, 0, 61, 0
2, 5716, Note_on_c, 0, 62, 67
2, 5777, Note_on_c, 0, 62, 0
2, 5791, Note_on_c, 0, 57, 67
2, 5855, Note_on_c, 0, 57, 0
2, 5868, Note_on_c, 0, 54, 68
2, 5920, Note_on_c, 0, 54, 0
2, 5953, Note_on_c, 0, 57, 68
2, 5993, Note_on_c, 0, 57, 0
2, 6026, Note_on_c, 0, 54, 70
2, 6089, Note_on_c, 0, 54, 0
2, 6090, Note_on_c, 0, 50, 63
2, 6147, Control_c, 0, 64, 49
2, 6159, Note_on_c, 0, 62, 76
2, 6163, Control_c, 0, 64, 65
2, 6163, Note_on_c, 0, 50, 0
2, 6177, Control_c, 0, 64, 67
2, 6194, Note_on_c, 0, 54, 68
2, 6200, Control_c, 0, 64, 69
2, 6215, Control_c, 0, 64, 70
2, 6218, Note_on_c, 0, 62, 0
2, 6230, Control_c, 0, 64, 71
2, 6246, Control_c, 0, 64, 72
2, 6265, Note_on_c, 0, 54, 0
2, 6283, Note_on_c, 0, 50, 63
2, 6312, Note_on_c, 0, 47, 69
2, 6346, Note_on_c, 0, 50, 0
2, 6389, Note_on_c, 0, 47, 0
2, 6397, Control_c, 0, 64, 71
2, 6413, Control_c, 0, 64, 70
2, 6413, Note_on_c, 0, 62, 74
2, 6428, Control_c, 0, 64, 64
2, 6435, Note_on_c, 0, 52, 69
2, 6444, Control_c, 0, 64, 0
2, 6474, Note_on_c, 0, 52, 0
2, 6477, Note_on_c, 0, 62, 0
2, 6508, Note_on_c, 0, 61, 65
2, 6549, Note_on_c, 0, 61, 0
2, 6578, Note_on_c, 0, 62, 63
2, 6655, Note_on_c, 0, 40, 62
2, 6655, Note_on_c, 0, 62, 0
2, 6656, Note_on_c, 0, 64, 64
2, 6704, Note_on_c, 0, 40, 0
2, 6721, Note_on_c, 0, 64, 0
2, 6733, Note_on_c, 0, 61, 65
2, 6789, Note_on_c, 0, 61, 0
2, 6807, Note_on_c, 0, 62, 60
2, 6895, Note_on_c, 0, 66, 70
2, 6915, Note_on_c, 0, 62, 0
2, 6966, Note_on_c, 0, 66, 0
2, 6980, Note_on_c, 0, 61, 71
2, 7046, Note_on_c, 0, 61, 0
2, 7054, Note_on_c, 0, 62, 63
2, 7138, Note_on_c, 0, 67, 73
2, 7139, Note_on_c, 0, 52, 72
2, 7162, Note_on_c, 0, 62, 0
2, 7218, Note_on_c, 0, 67, 0
2, 7225, Note_on_c, 0, 61, 66
2, 7309, Note_on_c, 0, 61, 0
2, 7312, Note_on_c, 0, 62, 57
2, 7389, Note_on_c, 0, 49, 72
2, 7394, Note_on_c, 0, 69, 72
2, 7419, Note_on_c, 0, 62, 0
2, 7466, Note_on_c, 0, 52, 0
2, 7476, Note_on_c, 0, 69, 0
2, 7479, Note_on_c, 0, 61, 64
2, 7552, Note_on_c, 0, 62, 62
2, 7567, Note_on_c, 0, 61, 0
2, 7648, Note_on_c, 0, 45, 72
2, 7655, Note_on_c, 0, 71, 78
2, 7667, Note_on_c, 0, 62, 0
2, 7695, Note_on_c, 0, 49, 0
2, 7746, Note_on_c, 0, 71, 0
2, 7769, Note_on_c, 0, 61, 65
2, 7823, Note_on_c, 0, 62, 56
2, 7839, Note_on_c, 0, 61, 0
2, 7905, Note_on_c, 0, 47, 75
2, 7915, Note_on_c, 0, 69, 77
2, 7928, Note_on_c, 0, 45, 0
2, 7955, Note_on_c, 0, 62, 0
2, 7985, Note_on_c, 0, 61, 67
2, 8010, Note_on_c, 0, 69, 0
2, 8073, Note_on_c, 0, 62, 64
2, 8077, Note_on_c, 0, 61, 0
2, 8146, Note_on_c, 0, 67, 76
2, 8154, Note_on_c, 0, 49, 71
2, 8163, Control_c, 0, 64, 63
2, 8169, Note_on_c, 0, 47, 0
2, 8169, Note_on_c, 0, 62, 0
2, 8177, Control_c, 0, 64, 72
2, 8192, Control_c, 0, 64, 80
2, 8208, Control_c, 0, 64, 84
2, 8208, Note_on_c, 0, 49, 0
2, 8222, Note_on_c, 0, 61, 68
2, 8223, Control_c, 0, 64, 85
2, 8225, Note_on_c, 0, 67, 0
2, 8239, Control_c, 0, 64, 86
2, 8254, Control_c, 0, 64, 87
2, 8269, Control_c, 0, 64, 87
2, 8291, Note_on_c, 0, 62, 70
2, 8302, Note_on_c, 0, 61, 0
2, 8375, Control_c, 0, 64, 86
2, 8390, Control_c, 0, 64, 79
2, 8400, Note_on_c, 0, 50, 68
2, 8400, Note_on_c, 0, 66, 74
2, 8401, Note_on_c, 0, 62, 0
2, 8406, Control_c, 0, 64, 63
2, 8420, Control_c, 0, 64, 0
2, 8436, Note_on_c, 0, 50, 0
2, 8494, Note_on_c, 0, 61, 75
2, 8566, Note_on_c, 0, 61, 0
2, 8596, Note_on_c, 0, 62, 59
2, 8643, Note_on_c, 0, 62, 0
2, 8659, Note_on_c, 0, 66, 0
2, 8661, Note_on_c, 0, 67, 76
2, 8663, Note_on_c, 0, 52, 65
2, 8759, Note_on_c, 0, 61, 62
2, 8768, Note_on_c, 0, 52, 0
2, 8790, Note_on_c, 0, 62, 58
2, 8822, Note_on_c, 0, 61, 0
2, 8884, Note_on_c, 0, 62, 0
2, 8908, Note_on_c, 0, 54, 61
2, 8916, Note_on_c, 0, 69, 80
2, 8980, Note_on_c, 0, 67, 0
2, 9001, Note_on_c, 0, 61, 57
2, 9003, Note_on_c, 0, 54, 0
2, 9058, Note_on_c, 0, 62, 54
2, 9065, Note_on_c, 0, 61, 0
2, 9165, Note_on_c, 0, 62, 0
2, 9165, Note_on_c, 0, 71, 75
2, 9168, Note_on_c, 0, 55, 58
2, 9205, Note_on_c, 0, 69, 0
2, 9254, Note_on_c, 0, 55, 0
2, 9271, Note_on_c, 0, 61, 59
2, 9319, Note_on_c, 0, 61, 0
2, 9342, Note_on_c, 0, 62, 58
2, 9418, Note_on_c, 0, 62, 0
2, 9427, Note_on_c, 0, 69, 80
2, 9436, Note_on_c, 0, 54, 66
2, 9463, Note_on_c, 0, 71, 0
2, 9519, Note_on_c, 0, 54, 0
2, 9523, Note_on_c, 0, 61, 65
2, 9573, Note_on_c, 0, 61, 0
2, 9605, Note_on_c, 0, 62, 55
2, 9666, Note_on_c, 0, 62, 0
2, 9685, Note_on_c, 0, 67, 79
2, 9699, Note_on_c, 0, 52, 61
2, 9717, Note_on_c, 0, 69, 0
2, 9749, Note_on_c, 0, 52, 0
2, 9773, Note_on_c, 0, 61, 69
2, 9814, Note_on_c, 0, 61, 0
2, 9854, Note_on_c, 0, 62, 64
2, 9913, Note_on_c, 0, 62, 0
2, 9936, Note_on_c, 0, 66, 80
2, 9947, Note_on_c, 0, 50, 67
2, 9977, Note_on_c, 0, 67, 0
2, 9984, Note_on_c, 0, 50, 0
2, 9990, Note_on_c, 0, 52, 38
2, 10026, Note_on_c, 0, 52, 0
2, 10037, Note_on_c, 0, 61, 72
2, 10105, Note_on_c, 0, 61, 0
2, 10115, Note_on_c, 0, 62, 60
2, 10146, Control_c, 0, 64, 66
2, 10162, Control_c, 0, 64, 75
2, 10171, Note_on_c, 0, 62, 0
2, 10177, Control_c, 0, 64, 86
2, 10182, Note_on_c, 0, 69, 86
2, 10183, Note_on_c, 0, 66, 0
2, 10186, Note_on_c, 0, 54, 69
2, 10192, Control_c, 0, 64, 95
2, 10208, Control_c, 0, 64, 101
2, 10221, Note_on_c, 0, 69, 0
2, 10223, Control_c, 0, 64, 105
2, 10239, Control_c, 0, 64, 110
2, 10253, Control_c, 0, 64, 115
2, 10253, Note_on_c, 0, 61, 76
2, 10265, Note_on_c, 0, 54, 0
2, 10268, Control_c, 0, 64, 120
2, 10284, Control_c, 0, 64, 126
2, 10299, Control_c, 0, 64, 127
2, 10300, Note_on_c, 0, 61, 0
2, 10317, Note_on_c, 0, 62, 74
2, 10372, Note_on_c, 0, 62, 0
2, 10390, Control_c, 0, 64, 116
2, 10406, Control_c, 0, 64, 93
2, 10421, Control_c, 0, 64, 63
2, 10431, Note_on_c, 0, 68, 85
2, 10433, Note_on_c, 0, 47, 92
2, 10436, Control_c, 0, 64, 0
2, 10486, Note_on_c, 0, 47, 0
2, 10513, Note_on_c, 0, 68, 0
2, 10514, Note_on_c, 0, 71, 77
2, 10601, Note_on_c, 0, 74, 76
2, 10614, Note_on_c, 0, 71, 0
2, 10689, Note_on_c, 0, 77, 86
2, 10693, Note_on_c, 0, 74, 0
2, 10698, Note_on_c, 0, 59, 85
2, 10743, Note_on_c, 0, 59, 0
2, 10767, Note_on_c, 0, 74, 81
2, 10788, Note_on_c, 0, 77, 0
2, 10849, Note_on_c, 0, 71, 74
2, 10851, Note_on_c, 0, 74, 0
2, 10923, Note_on_c, 0, 71, 0
2, 10925, Note_on_c, 0, 74, 81
2, 10996, Note_on_c, 0, 71, 78
2, 11009, Note_on_c, 0, 74, 0
2, 11066, Note_on_c, 0, 71, 0
2, 11082, Note_on_c, 0, 68, 78
2, 11106, Note_on_c, 0, 68, 0
2, 11127, Note_on_c, 0, 67, 40
2, 11138, Note_on_c, 0, 67, 0
2, 11163, Note_on_c, 0, 57, 83
2, 11177, Note_on_c, 0, 71, 84
2, 11247, Note_on_c, 0, 68, 74
2, 11278, Note_on_c, 0, 71, 0
2, 11329, Note_on_c, 0, 64, 74
2, 11347, Note_on_c, 0, 68, 0
2, 11403, Note_on_c, 0, 64, 0
2, 11414, Note_on_c, 0, 56, 78
2, 11419, Note_on_c, 0, 62, 77
2, 11424, Note_on_c, 0, 57, 0
2, 11446, Note_on_c, 0, 56, 0
2, 11486, Note_on_c, 0, 62, 0
2, 11494, Note_on_c, 0, 65, 78
2, 11582, Note_on_c, 0, 68, 72
2, 11583, Note_on_c, 0, 65, 0
2, 11666, Note_on_c, 0, 68, 0
2, 11669, Note_on_c, 0, 44, 70
2, 11669, Note_on_c, 0, 71, 75
2, 11708, Note_on_c, 0, 44, 0
2, 11747, Note_on_c, 0, 68, 74
2, 11764, Note_on_c, 0, 71, 0
2, 11819, Note_on_c, 0, 68, 0
2, 11822, Note_on_c, 0, 65, 72
2, 11897, Note_on_c, 0, 65, 0
2, 11898, Note_on_c, 0, 68, 82
2, 11979, Note_on_c, 0, 65, 72
2, 11991, Note_on_c, 0, 68, 0
2, 12036, Note_on_c, 0, 65, 0
2, 12052, Note_on_c, 0, 62, 69
2, 12097, Note_on_c, 0, 62, 0
2, 12127, Note_on_c, 0, 65, 76
2, 12128, Note_on_c, 0, 56, 70
2, 12153, Note_on_c, 0, 56, 0
2, 12201, Note_on_c, 0, 65, 0
2, 12204, Note_on_c, 0, 62, 74
2, 12265, Note_on_c, 0, 62, 0
2, 12276, Note_on_c, 0, 59, 71
2, 12341, Note_on_c, 0, 59, 0
2, 12366, Note_on_c, 0, 57, 66
2, 12366, Note_on_c, 0, 60, 80
2, 12390, Note_on_c, 0, 60, 0
2, 12452, Note_on_c, 0, 57, 0
2, 12463, Note_on_c, 0, 60, 63
2, 12537, Note_on_c, 0, 60, 0
2, 12537, Note_on_c, 0, 64, 61
2, 12603, Control_c, 0, 64, 43
2, 12603, Note_on_c, 0, 64, 0
2, 12605, Note_on_c, 0, 76, 75
2, 12622, Control_c, 0, 64, 63
2, 12627, Note_on_c, 0, 69, 62
2, 12638, Control_c, 0, 64, 68
2, 12652, Control_c, 0, 64, 73
2, 12668, Control_c, 0, 64, 79
2, 12682, Control_c, 0, 64, 84
2, 12696, Note_on_c, 0, 69, 0
2, 12697, Control_c, 0, 64, 88
2, 12710, Note_on_c, 0, 64, 58
2, 12713, Control_c, 0, 64, 91
2, 12728, Control_c, 0, 64, 93
2, 12743, Control_c, 0, 64, 95
2, 12759, Control_c, 0, 64, 96
2, 12774, Note_on_c, 0, 76, 0
2, 12776, Note_on_c, 0, 64, 0
2, 12780, Note_on_c, 0, 60, 68
2, 12804, Control_c, 0, 64, 94
2, 12819, Control_c, 0, 64, 86
2, 12832, Note_on_c, 0, 60, 0
2, 12835, Control_c, 0, 64, 74
2, 12850, Control_c, 0, 64, 52
2, 12858, Note_on_c, 0, 72, 79
2, 12864, Control_c, 0, 64, 0
2, 12883, Note_on_c, 0, 64, 61
2, 12895, Control_c, 0, 64, 62
2, 12910, Control_c, 0, 64, 73
2, 12925, Control_c, 0, 64, 86
2, 12940, Control_c, 0, 64, 100
2, 12942, Note_on_c, 0, 64, 0
2, 12946, Note_on_c, 0, 60, 73
2, 12956, Control_c, 0, 64, 112
2, 12971, Control_c, 0, 64, 121
2, 12986, Control_c, 0, 64, 123
2, 13001, Note_on_c, 0, 72, 0
2, 13010, Note_on_c, 0, 60, 0
2, 13024, Note_on_c, 0, 57, 69
2, 13061, Control_c, 0, 64, 115
2, 13078, Control_c, 0, 64, 97
2, 13082, Note_on_c, 0, 57, 0
2, 13093, Control_c, 0, 64, 80
2, 13111, Note_on_c, 0, 69, 87
2, 13117, Control_c, 0, 64, 58
2, 13126, Note_on_c, 0, 60, 74
2, 13132, Control_c, 0, 64, 0
2, 13177, Control_c, 0, 64, 62
2, 13182, Note_on_c, 0, 60, 0
2, 13193, Control_c, 0, 64, 80
2, 13194, Note_on_c, 0, 57, 79
2, 13208, Control_c, 0, 64, 98
2, 13222, Control_c, 0, 64, 122
2, 13230, Note_on_c, 0, 69, 0
2, 13238, Control_c, 0, 64, 127
2, 13245, Note_on_c, 0, 57, 0
2, 13267, Note_on_c, 0, 52, 70
2, 13329, Control_c, 0, 64, 104
2, 13343, Control_c, 0, 64, 83
2, 13354, Note_on_c, 0, 64, 83
2, 13359, Control_c, 0, 64, 59
2, 13359, Note_on_c, 0, 52, 0
2, 13370, Note_on_c, 0, 48, 74
2, 13374, Control_c, 0, 64, 0
2, 13419, Control_c, 0, 64, 70
2, 13431, Note_on_c, 0, 48, 0
2, 13435, Control_c, 0, 64, 88
2, 13435, Note_on_c, 0, 52, 65
2, 13450, Control_c, 0, 64, 127
2, 13478, Note_on_c, 0, 64, 0
2, 13522, Note_on_c, 0, 52, 0
2, 13529, Note_on_c, 0, 57, 72
2, 13572, Control_c, 0, 64, 93
2, 13588, Control_c, 0, 64, 66
2, 13595, Note_on_c, 0, 57, 0
2, 13603, Control_c, 0, 64, 0
2, 13605, Note_on_c, 0, 76, 92
2, 13618, Note_on_c, 0, 60, 70
2, 13663, Control_c, 0, 64, 67
2, 13679, Control_c, 0, 64, 94
2, 13690, Note_on_c, 0, 60, 0
2, 13691, Note_on_c, 0, 57, 76
2, 13693, Control_c, 0, 64, 127
2, 13734, Note_on_c, 0, 76, 0
2, 13736, Note_on_c, 0, 57, 0
2, 13777, Note_on_c, 0, 52, 61
2, 13783, Note_on_c, 0, 53, 57
2, 13810, Note_on_c, 0, 53, 0
2, 13815, Control_c, 0, 64, 100
2, 13815, Note_on_c, 0, 52, 0
2, 13830, Control_c, 0, 64, 68
2, 13845, Control_c, 0, 64, 0
2, 13848, Note_on_c, 0, 72, 87
2, 13856, Note_on_c, 0, 57, 72
2, 13915, Control_c, 0, 64, 58
2, 13930, Control_c, 0, 64, 83
2, 13942, Note_on_c, 0, 52, 82
2, 13944, Control_c, 0, 64, 113
2, 13948, Note_on_c, 0, 57, 0
2, 13958, Note_on_c, 0, 72, 0
2, 13960, Control_c, 0, 64, 127
2, 14024, Note_on_c, 0, 52, 0
2, 14042, Note_on_c, 0, 48, 61
2, 14058, Note_on_c, 0, 50, 48
2, 14067, Control_c, 0, 64, 105
2, 14082, Control_c, 0, 64, 71
2, 14087, Note_on_c, 0, 50, 0
2, 14089, Note_on_c, 0, 48, 0
2, 14097, Control_c, 0, 64, 0
2, 14099, Note_on_c, 0, 69, 93
2, 14125, Note_on_c, 0, 52, 81
2, 14150, Note_on_c, 0, 69, 0
2, 14158, Control_c, 0, 64, 77
2, 14173, Control_c, 0, 64, 120
2, 14188, Control_c, 0, 64, 127
2, 14189, Note_on_c, 0, 48, 84
2, 14194, Note_on_c, 0, 52, 0
2, 14245, Note_on_c, 0, 45, 83
2, 14251, Note_on_c, 0, 48, 0
2, 14321, Note_on_c, 0, 45, 0
2, 14339, Control_c, 0, 64, 108
2, 14339, Note_on_c, 0, 42, 87
2, 14341, Note_on_c, 0, 75, 92
2, 14355, Control_c, 0, 64, 71
2, 14370, Control_c, 0, 64, 0
2, 14401, Note_on_c, 0, 42, 0
2, 14428, Note_on_c, 0, 78, 89
2, 14443, Note_on_c, 0, 75, 0
2, 14498, Note_on_c, 0, 78, 0
2, 14504, Note_on_c, 0, 81, 81
2, 14600, Note_on_c, 0, 84, 84
2, 14602, Note_on_c, 0, 81, 0
2, 14605, Note_on_c, 0, 54, 87
2, 14670, Note_on_c, 0, 54, 0
2, 14684, Note_on_c, 0, 81, 87
2, 14707, Note_on_c, 0, 84, 0
2, 14768, Note_on_c, 0, 78, 86
2, 14773, Note_on_c, 0, 81, 0
2, 14842, Note_on_c, 0, 81, 89
2, 14844, Note_on_c, 0, 78, 0
2, 14924, Note_on_c, 0, 78, 86
2, 14930, Note_on_c, 0, 81, 0
2, 14976, Note_on_c, 0, 78, 0
2, 14999, Note_on_c, 0, 75, 77
2, 15030, Note_on_c, 0, 75, 0
2, 15070, Note_on_c, 0, 52, 89
2, 15079, Note_on_c, 0, 78, 97
2, 15156, Note_on_c, 0, 75, 69
2, 15193, Note_on_c, 0, 76, 49
2, 15201, Note_on_c, 0, 75, 0
2, 15201, Note_on_c, 0, 75, 34
2, 15223, Note_on_c, 0, 76, 0
2, 15237, Note_on_c, 0, 78, 0
2, 15241, Note_on_c, 0, 71, 70
2, 15247, Note_on_c, 0, 72, 57
2, 15247, Note_on_c, 0, 75, 0
2, 15266, Note_on_c, 0, 72, 0
2, 15312, Note_on_c, 0, 71, 0
2, 15318, Note_on_c, 0, 51, 86
2, 15323, Note_on_c, 0, 69, 84
2, 15326, Note_on_c, 0, 52, 0
2, 15360, Note_on_c, 0, 51, 0
2, 15391, Note_on_c, 0, 69, 0
2, 15395, Note_on_c, 0, 72, 80
2, 15489, Note_on_c, 0, 75, 81
2, 15501, Note_on_c, 0, 72, 0
2, 15564, Note_on_c, 0, 78, 93
2, 15565, Note_on_c, 0, 39, 78
2, 15570, Note_on_c, 0, 75, 0
2, 15603, Note_on_c, 0, 39, 0
2, 15647, Note_on_c, 0, 75, 76
2, 15677, Note_on_c, 0, 78, 0
2, 15717, Note_on_c, 0, 72, 77
2, 15723, Note_on_c, 0, 75, 0
2, 15796, Note_on_c, 0, 75, 77
2, 15797, Note_on_c, 0, 72, 0
2, 15874, Note_on_c, 0, 72, 76
2, 15880, Note_on_c, 0, 75, 0
2, 15925, Note_on_c, 0, 72, 0
2, 15956, Note_on_c, 0, 69, 73
2, 15993, Note_on_c, 0, 69, 0
2, 16031, Note_on_c, 0, 72, 87
2, 16037, Note_on_c, 0, 51, 70
2, 16066, Note_on_c, 0, 51, 0
2, 16114, Note_on_c, 0, 72, 0
2, 16117, Note_on_c, 0, 69, 75
2, 16163, Note_on_c, 0, 69, 0
2, 16192, Note_on_c, 0, 66, 75
2, 16268, Note_on_c, 0, 66, 0
2, 16276, Note_on_c, 0, 67, 79
2, 16292, Note_on_c, 0, 52, 53
2, 16295, Note_on_c, 0, 50, 32
2, 16316, Note_on_c, 0, 52, 0
2, 16332, Note_on_c, 0, 50, 0
2, 16387, Note_on_c, 0, 63, 67
2, 16442, Note_on_c, 0, 63, 0
2, 16491, Note_on_c, 0, 64, 44
2, 16516, Note_on_c, 0, 64, 0
2, 16521, Note_on_c, 0, 67, 0
2, 16531, Note_on_c, 0, 69, 76
2, 16546, Note_on_c, 0, 54, 61
2, 16612, Note_on_c, 0, 63, 67
2, 16617, Note_on_c, 0, 54, 0
2, 16683, Note_on_c, 0, 63, 0
2, 16684, Note_on_c, 0, 64, 48
2, 16766, Note_on_c, 0, 64, 0
2, 16782, Note_on_c, 0, 71, 74
2, 16787, Note_on_c, 0, 55, 64
2, 16851, Note_on_c, 0, 69, 0
2, 16863, Note_on_c, 0, 63, 60
2, 16874, Note_on_c, 0, 55, 0
2, 16947, Note_on_c, 0, 63, 0
2, 16947, Note_on_c, 0, 64, 56
2, 17024, Note_on_c, 0, 64, 0
2, 17037, Note_on_c, 0, 57, 64
2, 17037, Note_on_c, 0, 72, 80
2, 17060, Note_on_c, 0, 71, 0
2, 17122, Note_on_c, 0, 57, 0
2, 17140, Note_on_c, 0, 63, 53
2, 17182, Note_on_c, 0, 64, 61
2, 17187, Note_on_c, 0, 63, 0
2, 17267, Note_on_c, 0, 64, 0
2, 17289, Note_on_c, 0, 71, 75
2, 17297, Note_on_c, 0, 55, 68
2, 17309, Note_on_c, 0, 72, 0
2, 17372, Note_on_c, 0, 55, 0
2, 17382, Note_on_c, 0, 63, 73
2, 17441, Note_on_c, 0, 63, 0
2, 17468, Note_on_c, 0, 64, 60
2, 17526, Note_on_c, 0, 64, 0
2, 17547, Note_on_c, 0, 69, 77
2, 17550, Note_on_c, 0, 71, 0
2, 17558, Note_on_c, 0, 54, 68
2, 17627, Note_on_c, 0, 63, 72
2, 17638, Note_on_c, 0, 54, 0
2, 17682, Note_on_c, 0, 63, 0
2, 17730, Note_on_c, 0, 64, 61
2, 17783, Note_on_c, 0, 64, 0
2, 17796, Note_on_c, 0, 67, 76
2, 17817, Note_on_c, 0, 52, 76
2, 17835, Note_on_c, 0, 69, 0
2, 17850, Note_on_c, 0, 52, 0
2, 17899, Note_on_c, 0, 63, 75
2, 17974, Note_on_c, 0, 63, 0
2, 17991, Note_on_c, 0, 64, 50
2, 18025, Note_on_c, 0, 64, 0
2, 18040, Control_c, 0, 64, 55
2, 18044, Note_on_c, 0, 67, 0
2, 18047, Note_on_c, 0, 71, 73
2, 18052, Note_on_c, 0, 55, 66
2, 18054, Control_c, 0, 64, 69
2, 18069, Control_c, 0, 64, 78
2, 18085, Control_c, 0, 64, 90
2, 18100, Control_c, 0, 64, 97
2, 18105, Note_on_c, 0, 63, 61
2, 18115, Control_c, 0, 64, 102
2, 18130, Control_c, 0, 64, 106
2, 18132, Note_on_c, 0, 55, 0
2, 18141, Note_on_c, 0, 63, 0
2, 18145, Control_c, 0, 64, 108
2, 18161, Control_c, 0, 64, 110
2, 18169, Note_on_c, 0, 64, 67
2, 18176, Control_c, 0, 64, 110
2, 18191, Control_c, 0, 64, 111
2, 18197, Note_on_c, 0, 64, 0
2, 18206, Control_c, 0, 64, 111
2, 18252, Control_c, 0, 64, 111
2, 18285, Note_on_c, 0, 49, 77
2, 18297, Control_c, 0, 64, 109
2, 18298, Note_on_c, 0, 69, 66
2, 18312, Control_c, 0, 64, 103
2, 18322, Note_on_c, 0, 71, 0
2, 18328, Control_c, 0, 64, 92
2, 18343, Control_c, 0, 64, 78
2, 18358, Control_c, 0, 64, 54
2, 18373, Note_on_c, 0, 69, 0
2, 18374, Control_c, 0, 64, 0
2, 18391, Note_on_c, 0, 68, 62
2, 18457, Note_on_c, 0, 68, 0
2, 18481, Note_on_c, 0, 69, 62
2, 18542, Note_on_c, 0, 49, 0
2, 18547, Note_on_c, 0, 50, 76
2, 18555, Note_on_c, 0, 71, 67
2, 18577, Note_on_c, 0, 69, 0
2, 18627, Note_on_c, 0, 68, 65
2, 18627, Note_on_c, 0, 71, 0
2, 18718, Note_on_c, 0, 68, 0
2, 18722, Note_on_c, 0, 69, 68
2, 18796, Note_on_c, 0, 52, 77
2, 18808, Note_on_c, 0, 73, 76
2, 18818, Note_on_c, 0, 50, 0
2, 18830, Note_on_c, 0, 69, 0
2, 18869, Note_on_c, 0, 73, 0
2, 18882, Note_on_c, 0, 68, 75
2, 18967, Note_on_c, 0, 69, 69
2, 18975, Note_on_c, 0, 68, 0
2, 19043, Note_on_c, 0, 54, 79
2, 19043, Note_on_c, 0, 74, 80
2, 19047, Note_on_c, 0, 52, 0
2, 19063, Note_on_c, 0, 69, 0
2, 19120, Note_on_c, 0, 74, 0
2, 19122, Note_on_c, 0, 68, 76
2, 19204, Note_on_c, 0, 69, 72
2, 19272, Note_on_c, 0, 68, 0
2, 19298, Note_on_c, 0, 76, 83
2, 19300, Note_on_c, 0, 49, 74
2, 19309, Note_on_c, 0, 69, 0
2, 19325, Note_on_c, 0, 54, 0
2, 19382, Note_on_c, 0, 68, 85
2, 19384, Note_on_c, 0, 76, 0
2, 19464, Note_on_c, 0, 69, 76
2, 19465, Note_on_c, 0, 68, 0
2, 19539, Note_on_c, 0, 78, 93
2, 19543, Note_on_c, 0, 47, 75
2, 19551, Note_on_c, 0, 69, 0
2, 19560, Note_on_c, 0, 49, 0
2, 19608, Note_on_c, 0, 68, 84
2, 19631, Note_on_c, 0, 78, 0
2, 19676, Note_on_c, 0, 68, 0
2, 19688, Note_on_c, 0, 69, 77
2, 19755, Note_on_c, 0, 69, 0
2, 19776, Note_on_c, 0, 47, 0
2, 19785, Note_on_c, 0, 79, 88
2, 19798, Note_on_c, 0, 45, 70
2, 19870, Note_on_c, 0, 76, 78
2, 19883, Note_on_c, 0, 79, 0
2, 19943, Note_on_c, 0, 73, 81
2, 19961, Note_on_c, 0, 76, 0
2, 19970, Control_c, 0, 64, 57
2, 19985, Control_c, 0, 64, 67
2, 20001, Control_c, 0, 64, 74
2, 20023, Control_c, 0, 64, 81
2, 20023, Note_on_c, 0, 73, 0
2, 20030, Note_on_c, 0, 49, 75
2, 20030, Note_on_c, 0, 69, 76
2, 20038, Control_c, 0, 64, 85
2, 20040, Note_on_c, 0, 45, 0
2, 20054, Control_c, 0, 64, 88
2, 20065, Note_on_c, 0, 49, 0
2, 20068, Control_c, 0, 64, 88
2, 20084, Control_c, 0, 64, 89
2, 20110, Note_on_c, 0, 73, 83
2, 20112, Note_on_c, 0, 69, 0
2, 20187, Note_on_c, 0, 76, 73
2, 20205, Note_on_c, 0, 73, 0
2, 20206, Control_c, 0, 64, 88
2, 20220, Control_c, 0, 64, 86
2, 20235, Control_c, 0, 64, 79
2, 20251, Control_c, 0, 64, 58
2, 20266, Control_c, 0, 64, 0
2, 20282, Note_on_c, 0, 50, 73
2, 20282, Note_on_c, 0, 78, 83
2, 20313, Note_on_c, 0, 76, 0
2, 20361, Note_on_c, 0, 50, 0
2, 20364, Note_on_c, 0, 54, 67
2, 20443, Note_on_c, 0, 57, 74
2, 20448, Note_on_c, 0, 54, 0
2, 20477, Note_on_c, 0, 78, 0
2, 20502, Note_on_c, 0, 57, 0
2, 20523, Note_on_c, 0, 62, 69
2, 20582, Note_on_c, 0, 62, 0
2, 20592, Note_on_c, 0, 57, 59
2, 20660, Note_on_c, 0, 54, 69
2, 20663, Note_on_c, 0, 57, 0
2, 20753, Note_on_c, 0, 54, 0
2, 20760, Note_on_c, 0, 50, 73
2, 20762, Note_on_c, 0, 81, 93
2, 20807, Note_on_c, 0, 50, 0
2, 20847, Note_on_c, 0, 78, 81
2, 20872, Note_on_c, 0, 81, 0
2, 20923, Note_on_c, 0, 74, 77
2, 20948, Note_on_c, 0, 78, 0
2, 20992, Note_on_c, 0, 74, 0
2, 20994, Note_on_c, 0, 72, 81
2, 21008, Note_on_c, 0, 62, 80
2, 21051, Note_on_c, 0, 62, 0
2, 21069, Note_on_c, 0, 74, 83
2, 21082, Note_on_c, 0, 72, 0
2, 21144, Note_on_c, 0, 78, 87
2, 21166, Note_on_c, 0, 74, 0
2, 21233, Note_on_c, 0, 81, 92
2, 21249, Note_on_c, 0, 50, 74
2, 21251, Note_on_c, 0, 78, 0
2, 21321, Note_on_c, 0, 50, 0
2, 21333, Note_on_c, 0, 55, 71
2, 21348, Note_on_c, 0, 81, 0
2, 21419, Note_on_c, 0, 59, 72
2, 21421, Note_on_c, 0, 55, 0
2, 21476, Note_on_c, 0, 59, 0
2, 21486, Note_on_c, 0, 79, 88
2, 21492, Note_on_c, 0, 62, 74
2, 21543, Note_on_c, 0, 79, 0
2, 21569, Note_on_c, 0, 62, 0
2, 21575, Note_on_c, 0, 59, 70
2, 21645, Note_on_c, 0, 59, 0
2, 21651, Note_on_c, 0, 55, 71
2, 21724, Note_on_c, 0, 55, 0
2, 21738, Note_on_c, 0, 79, 93
2, 21740, Note_on_c, 0, 50, 81
2, 21777, Note_on_c, 0, 50, 0
2, 21813, Note_on_c, 0, 76, 81
2, 21813, Note_on_c, 0, 79, 0
2, 21896, Note_on_c, 0, 73, 79
2, 21913, Note_on_c, 0, 76, 0
2, 21964, Note_on_c, 0, 73, 0
2, 21966, Note_on_c, 0, 69, 83
2, 21983, Note_on_c, 0, 62, 79
2, 22036, Note_on_c, 0, 62, 0
2, 22047, Note_on_c, 0, 73, 89
2, 22066, Note_on_c, 0, 69, 0
2, 22131, Note_on_c, 0, 73, 0
2, 22131, Note_on_c, 0, 76, 81
2, 22209, Note_on_c, 0, 79, 89
2, 22219, Note_on_c, 0, 50, 80
2, 22224, Note_on_c, 0, 76, 0
2, 22284, Note_on_c, 0, 50, 0
2, 22295, Note_on_c, 0, 57, 74
2, 22302, Note_on_c, 0, 79, 0
2, 22379, Note_on_c, 0, 61, 76
2, 22391, Note_on_c, 0, 57, 0
2, 22438, Note_on_c, 0, 61, 0
2, 22458, Note_on_c, 0, 62, 78
2, 22467, Note_on_c, 0, 78, 87
2, 22519, Note_on_c, 0, 62, 0
2, 22524, Note_on_c, 0, 78, 0
2, 22536, Note_on_c, 0, 57, 75
2, 22616, Note_on_c, 0, 57, 0
2, 22624, Note_on_c, 0, 54, 73
2, 22704, Note_on_c, 0, 54, 0
2, 22711, Note_on_c, 0, 78, 88
2, 22714, Note_on_c, 0, 50, 77
2, 22747, Note_on_c, 0, 50, 0
2, 22794, Note_on_c, 0, 74, 71
2, 22815, Note_on_c, 0, 78, 0
2, 22887, Note_on_c, 0, 71, 67
2, 22898, Note_on_c, 0, 74, 0
2, 22957, Note_on_c, 0, 67, 73
2, 22958, Note_on_c, 0, 71, 0
2, 22965, Note_on_c, 0, 62, 68
2, 22997, Note_on_c, 0, 62, 0
2, 23017, Note_on_c, 0, 67, 0
2, 23031, Note_on_c, 0, 71, 68
2, 23125, Note_on_c, 0, 71, 0
2, 23127, Note_on_c, 0, 74, 68
2, 23215, Note_on_c, 0, 78, 75
2, 23220, Note_on_c, 0, 50, 62
2, 23220, Note_on_c, 0, 74, 0
2, 23281, Note_on_c, 0, 50, 0
2, 23281, Note_on_c, 0, 52, 65
2, 23309, Note_on_c, 0, 78, 0
2, 23368, Note_on_c, 0, 52, 0
2, 23382, Note_on_c, 0, 55, 63
2, 23430, Note_on_c, 0, 55, 0
2, 23453, Note_on_c, 0, 76, 76
2, 23471, Note_on_c, 0, 59, 58
2, 23509, Note_on_c, 0, 76, 0
2, 23512, Note_on_c, 0, 59, 0
2, 23541, Note_on_c, 0, 55, 63
2, 23579, Note_on_c, 0, 55, 0
2, 23615, Note_on_c, 0, 52, 61
2, 23683, Note_on_c, 0, 52, 0
2, 23692, Note_on_c, 0, 76, 77
2, 23696, Note_on_c, 0, 50, 67
2, 23722, Note_on_c, 0, 50, 0
2, 23761, Note_on_c, 0, 76, 0
2, 23768, Note_on_c, 0, 73, 74
2, 23865, Note_on_c, 0, 73, 0
2, 23867, Note_on_c, 0, 69, 66
2, 23914, Note_on_c, 0, 69, 0
2, 23936, Note_on_c, 0, 67, 75
2, 23952, Note_on_c, 0, 62, 61
2, 23987, Note_on_c, 0, 62, 0
2, 23991, Note_on_c, 0, 67, 0
2, 24014, Note_on_c, 0, 69, 76
2, 24089, Note_on_c, 0, 69, 0
2, 24092, Note_on_c, 0, 73, 70
2, 24169, Note_on_c, 0, 76, 70
2, 24176, Note_on_c, 0, 50, 64
2, 24182, Note_on_c, 0, 73, 0
2, 24244, Note_on_c, 0, 50, 0
2, 24259, Note_on_c, 0, 54, 63
2, 24260, Note_on_c, 0, 76, 0
2, 24340, Note_on_c, 0, 54, 0
2, 24351, Note_on_c, 0, 57, 61
2, 24392, Note_on_c, 0, 57, 0
2, 24411, Note_on_c, 0, 74, 69
2, 24426, Note_on_c, 0, 62, 65
2, 24472, Note_on_c, 0, 62, 0
2, 24502, Note_on_c, 0, 57, 59
2, 24560, Note_on_c, 0, 57, 0
2, 24578, Note_on_c, 0, 54, 61
2, 24602, Note_on_c, 0, 74, 0
2, 24618, Note_on_c, 0, 54, 0
2, 24666, Note_on_c, 0, 57, 64
2, 24701, Note_on_c, 0, 57, 0
2, 24728, Note_on_c, 0, 54, 62
2, 24795, Note_on_c, 0, 54, 0
2, 24807, Note_on_c, 0, 50, 61
2, 24872, Note_on_c, 0, 50, 0
2, 24884, Note_on_c, 0, 74, 73
2, 24887, Note_on_c, 0, 54, 64
2, 24919, Control_c, 0, 64, 54
2, 24934, Control_c, 0, 64, 64
2, 24938, Note_on_c, 0, 74, 0
2, 24940, Note_on_c, 0, 54, 0
2, 24949, Control_c, 0, 64, 66
2, 24964, Control_c, 0, 64, 68
2, 24967, Note_on_c, 0, 50, 61
2, 24979, Control_c, 0, 64, 69
2, 24994, Control_c, 0, 64, 70
2, 25010, Control_c, 0, 64, 71
2, 25036, Note_on_c, 0, 50, 0
2, 25040, Control_c, 0, 64, 71
2, 25048, Note_on_c, 0, 48, 65
2, 25055, Control_c, 0, 64, 70
2, 25070, Control_c, 0, 64, 68
2, 25085, Control_c, 0, 64, 62
2, 25101, Control_c, 0, 64, 0
2, 25134, Note_on_c, 0, 47, 66
2, 25134, Note_on_c, 0, 74, 79
2, 25145, Note_on_c, 0, 48, 0
2, 25199, Note_on_c, 0, 47, 0
2, 25204, Note_on_c, 0, 72, 75
2, 25213, Note_on_c, 0, 50, 59
2, 25223, Note_on_c, 0, 74, 0
2, 25271, Note_on_c, 0, 71, 69
2, 25271, Note_on_c, 0, 72, 0
2, 25272, Note_on_c, 0, 50, 0
2, 25283, Note_on_c, 0, 54, 63
2, 25300, Note_on_c, 0, 71, 0
2, 25325, Note_on_c, 0, 54, 0
2, 25357, Note_on_c, 0, 71, 78
2, 25367, Note_on_c, 0, 55, 63
2, 25419, Note_on_c, 0, 55, 0
2, 25443, Note_on_c, 0, 69, 74
2, 25444, Note_on_c, 0, 50, 65
2, 25447, Note_on_c, 0, 71, 0
2, 25502, Note_on_c, 0, 50, 0
2, 25507, Note_on_c, 0, 69, 0
2, 25527, Note_on_c, 0, 67, 74
2, 25528, Note_on_c, 0, 47, 72
2, 25559, Note_on_c, 0, 67, 0
2, 25587, Note_on_c, 0, 47, 0
2, 25609, Note_on_c, 0, 67, 75
2, 25620, Note_on_c, 0, 50, 73
2, 25679, Note_on_c, 0, 50, 0
2, 25690, Note_on_c, 0, 67, 0
2, 25691, Note_on_c, 0, 71, 81
2, 25697, Note_on_c, 0, 47, 70
2, 25740, Note_on_c, 0, 47, 0
2, 25758, Note_on_c, 0, 43, 73
2, 25764, Note_on_c, 0, 74, 81
2, 25771, Note_on_c, 0, 71, 0
2, 25828, Note_on_c, 0, 43, 0
2, 25837, Note_on_c, 0, 74, 0
2, 25840, Note_on_c, 0, 77, 83
2, 25848, Note_on_c, 0, 47, 72
2, 25909, Note_on_c, 0, 47, 0
2, 25917, Note_on_c, 0, 76, 82
2, 25923, Note_on_c, 0, 43, 71
2, 25944, Note_on_c, 0, 77, 0
2, 25988, Note_on_c, 0, 43, 0
2, 25994, Note_on_c, 0, 74, 72
2, 25996, Note_on_c, 0, 76, 0
2, 26001, Note_on_c, 0, 41, 69
2, 26019, Note_on_c, 0, 74, 0
2, 26067, Note_on_c, 0, 40, 73
2, 26079, Note_on_c, 0, 74, 82
2, 26136, Note_on_c, 0, 41, 0
2, 26138, Note_on_c, 0, 40, 0
2, 26140, Note_on_c, 0, 43, 72
2, 26171, Note_on_c, 0, 76, 82
2, 26186, Note_on_c, 0, 74, 0
2, 26229, Note_on_c, 0, 43, 0
2, 26238, Note_on_c, 0, 47, 75
2, 26242, Note_on_c, 0, 77, 82
2, 26250, Note_on_c, 0, 76, 0
2, 26277, Note_on_c, 0, 47, 0
2, 26314, Note_on_c, 0, 48, 67
2, 26332, Note_on_c, 0, 76, 80
2, 26364, Note_on_c, 0, 48, 0
2, 26389, Note_on_c, 0, 77, 0
2, 26391, Note_on_c, 0, 52, 81
2, 26478, Note_on_c, 0, 55, 81
2, 26488, Note_on_c, 0, 52, 0
2, 26495, Note_on_c, 0, 76, 0
2, 26555, Note_on_c, 0, 55, 0
2, 26567, Note_on_c, 0, 60, 83
2, 26636, Note_on_c, 0, 60, 0
2, 26638, Note_on_c, 0, 55, 73
2, 26699, Note_on_c, 0, 55, 0
2, 26711, Note_on_c, 0, 52, 73
2, 26773, Control_c, 0, 64, 55
2, 26788, Control_c, 0, 64, 69
2, 26790, Note_on_c, 0, 76, 87
2, 26797, Note_on_c, 0, 52, 0
2, 26802, Control_c, 0, 64, 77
2, 26808, Note_on_c, 0, 55, 77
2, 26818, Control_c, 0, 64, 87
2, 26833, Control_c, 0, 64, 91
2, 26834, Note_on_c, 0, 76, 0
2, 26849, Control_c, 0, 64, 93
2, 26864, Control_c, 0, 64, 94
2, 26871, Note_on_c, 0, 55, 0
2, 26878, Control_c, 0, 64, 94
2, 26879, Note_on_c, 0, 52, 68
2, 26961, Note_on_c, 0, 50, 67
2, 26981, Note_on_c, 0, 52, 0
2, 27009, Control_c, 0, 64, 94
2, 27024, Control_c, 0, 64, 88
2, 27039, Control_c, 0, 64, 75
2, 27049, Note_on_c, 0, 49, 78
2, 27051, Note_on_c, 0, 50, 0
2, 27052, Note_on_c, 0, 76, 90
2, 27055, Control_c, 0, 64, 0
2, 27118, Note_on_c, 0, 52, 60
2, 27121, Note_on_c, 0, 74, 85
2, 27134, Note_on_c, 0, 49, 0
2, 27160, Note_on_c, 0, 76, 0
2, 27198, Note_on_c, 0, 52, 0
2, 27199, Note_on_c, 0, 55, 66
2, 27201, Note_on_c, 0, 74, 0
2, 27204, Note_on_c, 0, 73, 76
2, 27237, Note_on_c, 0, 73, 0
2, 27251, Note_on_c, 0, 55, 0
2, 27283, Note_on_c, 0, 73, 80
2, 27284, Note_on_c, 0, 57, 70
2, 27355, Note_on_c, 0, 57, 0
2, 27362, Note_on_c, 0, 52, 72
2, 27367, Note_on_c, 0, 71, 82
2, 27387, Note_on_c, 0, 73, 0
2, 27435, Note_on_c, 0, 52, 0
2, 27436, Note_on_c, 0, 71, 0
2, 27445, Note_on_c, 0, 69, 77
2, 27448, Note_on_c, 0, 49, 68
2, 27479, Note_on_c, 0, 69, 0
2, 27512, Note_on_c, 0, 49, 0
2, 27527, Note_on_c, 0, 69, 84
2, 27536, Note_on_c, 0, 52, 77
2, 27591, Note_on_c, 0, 52, 0
2, 27605, Note_on_c, 0, 73, 87
2, 27608, Note_on_c, 0, 49, 75
2, 27629, Note_on_c, 0, 69, 0
2, 27671, Note_on_c, 0, 49, 0
2, 27673, Note_on_c, 0, 45, 73
2, 27684, Note_on_c, 0, 76, 85
2, 27705, Note_on_c, 0, 73, 0
2, 27762, Note_on_c, 0, 45, 0
2, 27770, Note_on_c, 0, 79, 85
2, 27773, Note_on_c, 0, 49, 81
2, 27773, Note_on_c, 0, 76, 0
2, 27843, Note_on_c, 0, 45, 74
2, 27845, Note_on_c, 0, 49, 0
2, 27852, Note_on_c, 0, 78, 88
2, 27901, Note_on_c, 0, 79, 0
2, 27913, Note_on_c, 0, 43, 67
2, 27915, Note_on_c, 0, 45, 0
2, 27925, Note_on_c, 0, 76, 82
2, 27944, Note_on_c, 0, 78, 0
2, 27964, Note_on_c, 0, 76, 0
2, 27992, Note_on_c, 0, 43, 0
2, 27994, Note_on_c, 0, 42, 84
2, 28009, Note_on_c, 0, 76, 88
2, 28066, Note_on_c, 0, 45, 68
2, 28089, Note_on_c, 0, 78, 87
2, 28099, Note_on_c, 0, 42, 0
2, 28113, Note_on_c, 0, 76, 0
2, 28149, Note_on_c, 0, 49, 73
2, 28153, Note_on_c, 0, 45, 0
2, 28167, Note_on_c, 0, 78, 0
2, 28167, Note_on_c, 0, 79, 82
2, 28210, Note_on_c, 0, 49, 0
2, 28226, Note_on_c, 0, 50, 69
2, 28244, Note_on_c, 0, 78, 90
2, 28263, Note_on_c, 0, 79, 0
2, 28301, Note_on_c, 0, 50, 0
2, 28309, Note_on_c, 0, 54, 80
2, 28378, Note_on_c, 0, 78, 0
2, 28388, Note_on_c, 0, 57, 84
2, 28404, Note_on_c, 0, 54, 0
2, 28485, Note_on_c, 0, 62, 92
2, 28487, Note_on_c, 0, 57, 0
2, 28562, Note_on_c, 0, 57, 84
2, 28564, Note_on_c, 0, 62, 0
2, 28628, Note_on_c, 0, 54, 82
2, 28629, Note_on_c, 0, 57, 0
2, 28712, Control_c, 0, 64, 51
2, 28717, Note_on_c, 0, 54, 0
2, 28727, Control_c, 0, 64, 69
2, 28728, Note_on_c, 0, 81, 105
2, 28733, Note_on_c, 0, 57, 84
2, 28742, Control_c, 0, 64, 79
2, 28757, Control_c, 0, 64, 90
2, 28770, Note_on_c, 0, 81, 0
2, 28773, Control_c, 0, 64, 95
2, 28788, Control_c, 0, 64, 99
2, 28794, Note_on_c, 0, 57, 0
2, 28800, Note_on_c, 0, 54, 79
2, 28803, Control_c, 0, 64, 102
2, 28819, Control_c, 0, 64, 105
2, 28833, Control_c, 0, 64, 108
2, 28849, Control_c, 0, 64, 111
2, 28864, Control_c, 0, 64, 112
2, 28865, Note_on_c, 0, 54, 0
2, 28876, Note_on_c, 0, 50, 82
2, 28879, Control_c, 0, 64, 113
2, 28924, Control_c, 0, 64, 113
2, 28953, Note_on_c, 0, 50, 0
2, 28965, Note_on_c, 0, 54, 84
2, 28974, Note_on_c, 0, 81, 99
2, 28986, Control_c, 0, 64, 111
2, 29000, Control_c, 0, 64, 105
2, 29016, Control_c, 0, 64, 92
2, 29027, Note_on_c, 0, 54, 0
2, 29031, Control_c, 0, 64, 71
2, 29047, Control_c, 0, 64, 0
2, 29051, Note_on_c, 0, 79, 87
2, 29053, Note_on_c, 0, 50, 79
2, 29087, Note_on_c, 0, 81, 0
2, 29127, Note_on_c, 0, 50, 0
2, 29128, Note_on_c, 0, 78, 86
2, 29131, Note_on_c, 0, 45, 73
2, 29131, Note_on_c, 0, 79, 0
2, 29160, Note_on_c, 0, 78, 0
2, 29182, Note_on_c, 0, 45, 0
2, 29204, Note_on_c, 0, 50, 80
2, 29213, Note_on_c, 0, 78, 87
2, 29289, Note_on_c, 0, 50, 0
2, 29294, Note_on_c, 0, 76, 83
2, 29296, Note_on_c, 0, 45, 79
2, 29311, Note_on_c, 0, 78, 0
2, 29375, Note_on_c, 0, 76, 0
2, 29377, Note_on_c, 0, 74, 71
2, 29382, Note_on_c, 0, 42, 80
2, 29385, Note_on_c, 0, 45, 0
2, 29415, Note_on_c, 0, 74, 0
2, 29452, Note_on_c, 0, 38, 90
2, 29460, Note_on_c, 0, 74, 77
2, 29465, Note_on_c, 0, 42, 0
2, 29523, Note_on_c, 0, 38, 0
2, 29549, Note_on_c, 0, 78, 94
2, 29577, Note_on_c, 0, 74, 0
2, 29633, Note_on_c, 0, 81, 91
2, 29648, Note_on_c, 0, 78, 0
2, 29708, Note_on_c, 0, 50, 93
2, 29717, Note_on_c, 0, 84, 89
2, 29723, Control_c, 0, 64, 60
2, 29727, Note_on_c, 0, 81, 0
2, 29739, Control_c, 0, 64, 68
2, 29754, Control_c, 0, 64, 75
2, 29756, Note_on_c, 0, 50, 0
2, 29769, Control_c, 0, 64, 83
2, 29784, Control_c, 0, 64, 86
2, 29799, Control_c, 0, 64, 87
2, 29804, Note_on_c, 0, 83, 87
2, 29815, Control_c, 0, 64, 87
2, 29830, Control_c, 0, 64, 88
2, 29837, Note_on_c, 0, 84, 0
2, 29860, Control_c, 0, 64, 88
2, 29882, Note_on_c, 0, 81, 88
2, 29899, Note_on_c, 0, 83, 0
2, 29927, Note_on_c, 0, 81, 0
2, 29951, Control_c, 0, 64, 88
2, 29965, Control_c, 0, 64, 87
2, 29974, Note_on_c, 0, 43, 98
2, 29981, Control_c, 0, 64, 82
2, 29998, Note_on_c, 0, 81, 90
2, 30004, Control_c, 0, 64, 73
2, 30020, Control_c, 0, 64, 35
2, 30035, Control_c, 0, 64, 0
2, 30094, Note_on_c, 0, 83, 83
2, 30111, Note_on_c, 0, 81, 0
2, 30185, Note_on_c, 0, 84, 89
2, 30191, Note_on_c, 0, 83, 0
2, 30267, Note_on_c, 0, 83, 88
2, 30298, Note_on_c, 0, 84, 0
2, 30365, Note_on_c, 0, 47, 82
2, 30369, Note_on_c, 0, 43, 0
2, 30454, Note_on_c, 0, 47, 0
2, 30454, Note_on_c, 0, 50, 79
2, 30515, Note_on_c, 0, 50, 0
2, 30530, Note_on_c, 0, 55, 74
2, 30593, Note_on_c, 0, 81, 81
2, 30598, Note_on_c, 0, 83, 0
2, 30617, Note_on_c, 0, 55, 0
2, 30619, Note_on_c, 0, 57, 79
2, 30653, Note_on_c, 0, 81, 0
2, 30672, Note_on_c, 0, 79, 75
2, 30690, Note_on_c, 0, 57, 0
2, 30696, Note_on_c, 0, 59, 77
2, 30715, Note_on_c, 0, 79, 0
2, 30719, Note_on_c, 0, 59, 0
2, 30755, Note_on_c, 0, 77, 88
2, 30779, Note_on_c, 0, 59, 88
2, 30840, Note_on_c, 0, 76, 77
2, 30849, Note_on_c, 0, 60, 76
2, 30879, Note_on_c, 0, 59, 0
2, 30879, Note_on_c, 0, 77, 0
2, 30921, Note_on_c, 0, 62, 88
2, 30921, Note_on_c, 0, 74, 79
2, 30924, Note_on_c, 0, 60, 0
2, 30930, Note_on_c, 0, 76, 0
2, 30986, Note_on_c, 0, 62, 0
2, 30989, Note_on_c, 0, 74, 0
2, 31007, Note_on_c, 0, 72, 84
2, 31011, Note_on_c, 0, 64, 88
2, 31083, Note_on_c, 0, 72, 0
2, 31093, Note_on_c, 0, 76, 86
2, 31170, Note_on_c, 0, 64, 0
2, 31170, Note_on_c, 0, 76, 0
2, 31177, Note_on_c, 0, 79, 76
2, 31261, Note_on_c, 0, 81, 85
2, 31271, Note_on_c, 0, 60, 78
2, 31271, Note_on_c, 0, 79, 0
2, 31332, Note_on_c, 0, 57, 74
2, 31342, Note_on_c, 0, 78, 80
2, 31345, Note_on_c, 0, 60, 0
2, 31363, Note_on_c, 0, 81, 0
2, 31412, Note_on_c, 0, 57, 0
2, 31414, Note_on_c, 0, 54, 77
2, 31429, Note_on_c, 0, 74, 78
2, 31441, Note_on_c, 0, 78, 0
2, 31498, Note_on_c, 0, 74, 0
2, 31502, Note_on_c, 0, 54, 0
2, 31506, Note_on_c, 0, 62, 90
2, 31512, Note_on_c, 0, 71, 77
2, 31594, Note_on_c, 0, 71, 0
2, 31597, Note_on_c, 0, 74, 86
2, 31638, Note_on_c, 0, 62, 0
2, 31681, Note_on_c, 0, 74, 0
2, 31682, Note_on_c, 0, 78, 82
2, 31764, Note_on_c, 0, 79, 79
2, 31775, Note_on_c, 0, 59, 79
2, 31784, Note_on_c, 0, 78, 0
2, 31842, Note_on_c, 0, 55, 74
2, 31847, Note_on_c, 0, 59, 0
2, 31847, Note_on_c, 0, 76, 85
2, 31855, Note_on_c, 0, 79, 0
2, 31918, Note_on_c, 0, 55, 0
2, 31927, Note_on_c, 0, 52, 71
2, 31931, Note_on_c, 0, 72, 80
2, 31943, Note_on_c, 0, 76, 0
2, 31992, Note_on_c, 0, 72, 0
2, 32015, Note_on_c, 0, 60, 85
2, 32015, Note_on_c, 0, 69, 82
2, 32026, Note_on_c, 0, 52, 0
2, 32080, Note_on_c, 0, 69, 0
2, 32091, Note_on_c, 0, 72, 84
2, 32127, Note_on_c, 0, 60, 0
2, 32170, Note_on_c, 0, 72, 0
2, 32177, Note_on_c, 0, 76, 74
2, 32252, Note_on_c, 0, 78, 81
2, 32270, Note_on_c, 0, 57, 72
2, 32273, Note_on_c, 0, 76, 0
2, 32339, Note_on_c, 0, 74, 77
2, 32343, Note_on_c, 0, 78, 0
2, 32353, Note_on_c, 0, 54, 75
2, 32355, Note_on_c, 0, 57, 0
2, 32429, Note_on_c, 0, 54, 0
2, 32429, Note_on_c, 0, 71, 74
2, 32433, Note_on_c, 0, 50, 61
2, 32442, Note_on_c, 0, 74, 0
2, 32495, Note_on_c, 0, 71, 0
2, 32510, Note_on_c, 0, 67, 81
2, 32512, Note_on_c, 0, 59, 81
2, 32533, Note_on_c, 0, 50, 0
2, 32570, Note_on_c, 0, 67, 0
2, 32597, Note_on_c, 0, 71, 75
2, 32632, Note_on_c, 0, 59, 0
2, 32659, Note_on_c, 0, 71, 0
2, 32674, Note_on_c, 0, 74, 68
2, 32764, Note_on_c, 0, 76, 73
2, 32777, Note_on_c, 0, 55, 63
2, 32778, Note_on_c, 0, 74, 0
2, 32835, Note_on_c, 0, 55, 0
2, 32840, Note_on_c, 0, 76, 0
2, 32842, Note_on_c, 0, 52, 73
2, 32844, Note_on_c, 0, 72, 73
2, 32914, Note_on_c, 0, 52, 0
2, 32934, Note_on_c, 0, 48, 65
2, 32934, Note_on_c, 0, 69, 75
2, 32937, Note_on_c, 0, 72, 0
2, 32998, Note_on_c, 0, 69, 0
2, 33014, Note_on_c, 0, 57, 67
2, 33017, Note_on_c, 0, 66, 78
2, 33022, Note_on_c, 0, 48, 0
2, 33082, Note_on_c, 0, 66, 0
2, 33108, Note_on_c, 0, 69, 72
2, 33112, Note_on_c, 0, 57, 0
2, 33185, Note_on_c, 0, 69, 0
2, 33190, Note_on_c, 0, 72, 69
2, 33274, Note_on_c, 0, 54, 62
2, 33284, Note_on_c, 0, 74, 70
2, 33289, Note_on_c, 0, 72, 0
2, 33334, Note_on_c, 0, 54, 0
2, 33354, Note_on_c, 0, 50, 65
2, 33358, Note_on_c, 0, 71, 72
2, 33360, Note_on_c, 0, 74, 0
2, 33423, Note_on_c, 0, 50, 0
2, 33435, Note_on_c, 0, 67, 71
2, 33441, Note_on_c, 0, 71, 0
2, 33451, Note_on_c, 0, 47, 66
2, 33495, Note_on_c, 0, 67, 0
2, 33521, Note_on_c, 0, 64, 73
2, 33525, Note_on_c, 0, 55, 67
2, 33541, Note_on_c, 0, 47, 0
2, 33574, Note_on_c, 0, 64, 0
2, 33603, Note_on_c, 0, 67, 74
2, 33604, Note_on_c, 0, 55, 0
2, 33670, Note_on_c, 0, 67, 0
2, 33690, Note_on_c, 0, 71, 59
2, 33753, Note_on_c, 0, 52, 69
2, 33769, Note_on_c, 0, 72, 75
2, 33780, Note_on_c, 0, 71, 0
2, 33816, Note_on_c, 0, 52, 0
2, 33828, Note_on_c, 0, 48, 69
2, 33865, Note_on_c, 0, 69, 71
2, 33868, Note_on_c, 0, 72, 0
2, 33892, Note_on_c, 0, 48, 0
2, 33913, Note_on_c, 0, 45, 63
2, 33936, Control_c, 0, 64, 48
2, 33945, Note_on_c, 0, 66, 67
2, 33951, Control_c, 0, 64, 64
2, 33957, Note_on_c, 0, 69, 0
2, 33967, Control_c, 0, 64, 70
2, 33981, Control_c, 0, 64, 78
2, 33985, Note_on_c, 0, 45, 0
2, 33996, Control_c, 0, 64, 83
2, 34000, Note_on_c, 0, 54, 82
2, 34011, Note_on_c, 0, 66, 0
2, 34012, Control_c, 0, 64, 85
2, 34026, Note_on_c, 0, 62, 76
2, 34027, Control_c, 0, 64, 87
2, 34042, Control_c, 0, 64, 87
2, 34042, Note_on_c, 0, 54, 0
2, 34057, Control_c, 0, 64, 88
2, 34087, Note_on_c, 0, 62, 0
2, 34097, Note_on_c, 0, 66, 75
2, 34178, Note_on_c, 0, 66, 0
2, 34179, Control_c, 0, 64, 82
2, 34186, Note_on_c, 0, 69, 64
2, 34194, Control_c, 0, 64, 69
2, 34210, Control_c, 0, 64, 0
2, 34252, Note_on_c, 0, 50, 82
2, 34268, Note_on_c, 0, 71, 71
2, 34279, Note_on_c, 0, 69, 0
2, 34311, Note_on_c, 0, 50, 0
2, 34328, Note_on_c, 0, 47, 69
2, 34343, Note_on_c, 0, 67, 75
2, 34351, Note_on_c, 0, 71, 0
2, 34410, Note_on_c, 0, 47, 0
2, 34419, Note_on_c, 0, 43, 64
2, 34430, Note_on_c, 0, 64, 70
2, 34441, Note_on_c, 0, 67, 0
2, 34488, Note_on_c, 0, 52, 87
2, 34496, Note_on_c, 0, 64, 0
2, 34502, Note_on_c, 0, 43, 0
2, 34503, Note_on_c, 0, 60, 75
2, 34554, Note_on_c, 0, 52, 0
2, 34557, Note_on_c, 0, 48, 77
2, 34563, Note_on_c, 0, 60, 0
2, 34570, Note_on_c, 0, 64, 73
2, 34658, Note_on_c, 0, 48, 0
2, 34664, Note_on_c, 0, 45, 70
2, 34673, Note_on_c, 0, 64, 0
2, 34676, Note_on_c, 0, 67, 66
2, 34747, Note_on_c, 0, 54, 86
2, 34756, Note_on_c, 0, 69, 81
2, 34772, Note_on_c, 0, 67, 0
2, 34783, Note_on_c, 0, 45, 0
2, 34817, Note_on_c, 0, 50, 70
2, 34836, Note_on_c, 0, 66, 76
2, 34837, Note_on_c, 0, 54, 0
2, 34857, Note_on_c, 0, 69, 0
2, 34913, Note_on_c, 0, 47, 67
2, 34931, Note_on_c, 0, 62, 72
2, 34940, Note_on_c, 0, 66, 0
2, 34949, Note_on_c, 0, 50, 0
2, 35009, Note_on_c, 0, 55, 86
2, 35018, Note_on_c, 0, 59, 75
2, 35018, Note_on_c, 0, 62, 0
2, 35025, Note_on_c, 0, 47, 0
2, 35095, Note_on_c, 0, 59, 0
2, 35100, Note_on_c, 0, 62, 77
2, 35193, Note_on_c, 0, 66, 71
2, 35209, Note_on_c, 0, 62, 0
2, 35275, Note_on_c, 0, 52, 84
2, 35275, Note_on_c, 0, 67, 82
2, 35298, Note_on_c, 0, 66, 0
2, 35305, Note_on_c, 0, 55, 0
2, 35381, Note_on_c, 0, 64, 73
2, 35407, Note_on_c, 0, 67, 0
2, 35475, Note_on_c, 0, 60, 72
2, 35505, Note_on_c, 0, 64, 0
2, 35549, Note_on_c, 0, 48, 81
2, 35565, Note_on_c, 0, 52, 0
2, 35565, Note_on_c, 0, 57, 75
2, 35565, Note_on_c, 0, 60, 0
2, 35652, Note_on_c, 0, 57, 0
2, 35653, Note_on_c, 0, 60, 79
2, 35751, Note_on_c, 0, 64, 79
2, 35758, Note_on_c, 0, 60, 0
2, 35842, Note_on_c, 0, 66, 76
2, 35848, Note_on_c, 0, 50, 77
2, 35856, Note_on_c, 0, 48, 0
2, 35872, Note_on_c, 0, 64, 0
2, 35933, Note_on_c, 0, 62, 80
2, 36025, Note_on_c, 0, 66, 0
2, 36043, Note_on_c, 0, 60, 77
2, 36089, Note_on_c, 0, 62, 0
2, 36278, Note_on_c, 0, 67, 79
2, 36279, Note_on_c, 0, 62, 71
2, 36281, Note_on_c, 0, 59, 70
2, 36283, Note_on_c, 0, 43, 67
2, 36312, Note_on_c, 0, 50, 0
2, 36318, Note_on_c, 0, 60, 0
2, 37751, Note_on_c, 0, 59, 0
2, 37767, Note_on_c, 0, 62, 0
2, 37771, Note_on_c, 0, 67, 0
2, 37869, Note_on_c, 0, 43, 0
2, 39100,End_track
0, 0, End_of_file
