0, 0, Header, 1, 2, 384
1, 0, Start_track
1, 0, Tempo, 500000
1, 0, Time_signature, 4, 2, 24, 8
1, 1, End_track
2,0,Start_track
2,0, Note_on_c, 0, 67, 69
2,27, Note_on_c, 0, 67, 0
2,271, Note_on_c, 0, 69, 54
2,364, Note_on_c, 0, 69, 0
2,377, Note_on_c, 0, 67, 65
2,480, Note_on_c, 0, 67, 0
2,486, Note_on_c, 0, 66, 70
2,580, Note_on_c, 0, 66, 0
2,601, Note_on_c, 0, 67, 72
2,741, Note_on_c, 0, 69, 84
2,745, Note_on_c, 0, 67, 0
2,776, Note_on_c, 0, 69, 0
2,991, Note_on_c, 0, 71, 70
2,1090, Note_on_c, 0, 71, 0
2,1099, Note_on_c, 0, 69, 75
2,1213, Note_on_c, 0, 67, 75
2,1222, Note_on_c, 0, 69, 0
2,1325, Note_on_c, 0, 69, 77
2,1331, Note_on_c, 0, 67, 0
2,1454, Note_on_c, 0, 69, 0
2,1459, Note_on_c, 0, 71, 78
2,1484, Note_on_c, 0, 71, 0
2,1711, Note_on_c, 0, 69, 84
2,1748, Note_on_c, 0, 69, 0
2,1963, Note_on_c, 0, 67, 81
2,2001, Note_on_c, 0, 67, 0
2,2220, Note_on_c, 0, 62, 80
2,2258, Note_on_c, 0, 62, 0
2,2500, Note_on_c, 0, 72, 74
2,2966, Note_on_c, 0, 72, 0
2,3001, Note_on_c, 0, 71, 75
2,3043, Note_on_c, 0, 71, 0
2,3243, Note_on_c, 0, 69, 82
2,3293, Note_on_c, 0, 69, 0
2,3494, Note_on_c, 0, 67, 83
2,3531, Note_on_c, 0, 67, 0
2,3754, Note_on_c, 0, 66, 81
2,3796, Note_on_c, 0, 66, 0
2,4036, Note_on_c, 0, 76, 79
2,4542, Note_on_c, 0, 76, 0
2,4547, Note_on_c, 0, 74, 73
2,4585, Note_on_c, 0, 74, 0
2,4791, Note_on_c, 0, 76, 71
2,4905, Note_on_c, 0, 74, 71
2,4921, Note_on_c, 0, 76, 0
2,5025, Note_on_c, 0, 72, 72
2,5030, Note_on_c, 0, 74, 0
2,5142, Note_on_c, 0, 72, 0
2,5143, Note_on_c, 0, 71, 71
2,5243, Note_on_c, 0, 71, 0
2,5256, Note_on_c, 0, 69, 76
2,5331, Note_on_c, 0, 69, 0
2,5504, Note_on_c, 0, 72, 74
2,5614, Note_on_c, 0, 71, 76
2,5640, Note_on_c, 0, 72, 0
2,5735, Note_on_c, 0, 69, 75
2,5735, Note_on_c, 0, 71, 0
2,5821, Note_on_c, 0, 69, 0
2,5832, Note_on_c, 0, 67, 75
2,5924, Note_on_c, 0, 67, 0
2,5968, Note_on_c, 0, 62, 82
2,5970, Note_on_c, 0, 66, 82
2,6025, Note_on_c, 0, 66, 0
2,6064, Note_on_c, 0, 62, 0
2,6229, Note_on_c, 0, 64, 74
2,6229, Note_on_c, 0, 67, 77
2,6300, Note_on_c, 0, 67, 0
2,6339, Note_on_c, 0, 62, 79
2,6339, Note_on_c, 0, 64, 0
2,6440, Note_on_c, 0, 62, 0
2,6458, Note_on_c, 0, 61, 80
2,6467, Note_on_c, 0, 69, 83
2,6528, Note_on_c, 0, 69, 0
2,6551, Note_on_c, 0, 61, 0
2,6565, Note_on_c, 0, 62, 82
2,6667, Note_on_c, 0, 62, 0
2,6705, Note_on_c, 0, 67, 86
2,6707, Note_on_c, 0, 64, 78
2,6762, Note_on_c, 0, 64, 0
2,6765, Note_on_c, 0, 67, 0
2,6965, Note_on_c, 0, 69, 86
2,6968, Note_on_c, 0, 66, 77
2,7040, Note_on_c, 0, 66, 0
2,7041, Note_on_c, 0, 69, 0
2,7074, Note_on_c, 0, 64, 75
2,7195, Note_on_c, 0, 64, 0
2,7196, Note_on_c, 0, 62, 80
2,7200, Note_on_c, 0, 71, 86
2,7263, Note_on_c, 0, 71, 0
2,7297, Note_on_c, 0, 62, 0
2,7303, Note_on_c, 0, 64, 82
2,7426, Note_on_c, 0, 64, 0
2,7434, Note_on_c, 0, 66, 89
2,7439, Note_on_c, 0, 69, 77
2,7496, Note_on_c, 0, 66, 0
2,7679, Note_on_c, 0, 69, 0
2,7692, Note_on_c, 0, 64, 80
2,7693, Note_on_c, 0, 71, 70
2,7759, Note_on_c, 0, 64, 0
2,7801, Note_on_c, 0, 71, 0
2,7805, Note_on_c, 0, 73, 73
2,7925, Note_on_c, 0, 62, 84
2,7925, Note_on_c, 0, 74, 72
2,7926, Note_on_c, 0, 73, 0
2,7977, Note_on_c, 0, 62, 0
2,8004, Note_on_c, 0, 74, 0
2,8025, Note_on_c, 0, 71, 68
2,8153, Note_on_c, 0, 71, 0
2,8159, Note_on_c, 0, 57, 85
2,8166, Note_on_c, 0, 73, 73
2,8204, Note_on_c, 0, 57, 0
2,8269, Note_on_c, 0, 73, 0
2,8275, Note_on_c, 0, 71, 69
2,8413, Note_on_c, 0, 71, 0
2,8413, Note_on_c, 0, 73, 64
2,8419, Note_on_c, 0, 67, 94
2,8526, Note_on_c, 0, 73, 0
2,8533, Note_on_c, 0, 74, 69
2,8621, Note_on_c, 0, 74, 0
2,8654, Note_on_c, 0, 76, 69
2,8767, Note_on_c, 0, 73, 68
2,8773, Note_on_c, 0, 76, 0
2,8851, Note_on_c, 0, 67, 0
2,8874, Note_on_c, 0, 66, 79
2,8881, Note_on_c, 0, 74, 70
2,8883, Note_on_c, 0, 73, 0
2,8938, Note_on_c, 0, 66, 0
2,8978, Note_on_c, 0, 74, 0
2,8989, Note_on_c, 0, 73, 76
2,9097, Note_on_c, 0, 73, 0
2,9101, Note_on_c, 0, 74, 71
2,9119, Note_on_c, 0, 64, 80
2,9173, Note_on_c, 0, 64, 0
2,9227, Note_on_c, 0, 76, 72
2,9229, Note_on_c, 0, 74, 0
2,9341, Note_on_c, 0, 78, 82
2,9343, Note_on_c, 0, 62, 83
2,9355, Note_on_c, 0, 76, 0
2,9392, Note_on_c, 0, 62, 0
2,9455, Note_on_c, 0, 74, 70
2,9455, Note_on_c, 0, 78, 0
2,9567, Note_on_c, 0, 74, 0
2,9578, Note_on_c, 0, 76, 74
2,9587, Note_on_c, 0, 61, 84
2,9631, Note_on_c, 0, 61, 0
2,9691, Note_on_c, 0, 74, 68
2,9692, Note_on_c, 0, 76, 0
2,9798, Note_on_c, 0, 74, 0
2,9824, Note_on_c, 0, 76, 74
2,9837, Note_on_c, 0, 71, 85
2,9942, Note_on_c, 0, 76, 0
2,9945, Note_on_c, 0, 78, 74
2,10062, Note_on_c, 0, 79, 74
2,10065, Note_on_c, 0, 78, 0
2,10167, Note_on_c, 0, 79, 0
2,10175, Note_on_c, 0, 76, 74
2,10245, Note_on_c, 0, 76, 0
2,10277, Note_on_c, 0, 71, 0
2,10294, Note_on_c, 0, 78, 82
2,10305, Note_on_c, 0, 69, 67
2,10355, Note_on_c, 0, 69, 0
2,10440, Note_on_c, 0, 78, 0
2,10541, Note_on_c, 0, 79, 79
2,10550, Note_on_c, 0, 71, 69
2,10617, Note_on_c, 0, 71, 0
2,10663, Note_on_c, 0, 69, 67
2,10666, Note_on_c, 0, 78, 81
2,10708, Note_on_c, 0, 79, 0
2,10767, Note_on_c, 0, 69, 0
2,10777, Note_on_c, 0, 67, 71
2,10777, Note_on_c, 0, 76, 79
2,10787, Note_on_c, 0, 78, 0
2,10869, Note_on_c, 0, 76, 0
2,10874, Note_on_c, 0, 67, 0
2,10875, Note_on_c, 0, 74, 74
2,10886, Note_on_c, 0, 66, 71
2,10992, Note_on_c, 0, 66, 0
2,11000, Note_on_c, 0, 74, 0
2,11007, Note_on_c, 0, 79, 90
2,11325, Note_on_c, 0, 67, 77
2,11385, Note_on_c, 0, 67, 0
2,11428, Note_on_c, 0, 66, 67
2,11548, Note_on_c, 0, 66, 0
2,11557, Note_on_c, 0, 64, 69
2,11651, Note_on_c, 0, 64, 0
2,11672, Note_on_c, 0, 62, 64
2,11782, Note_on_c, 0, 62, 0
2,11792, Note_on_c, 0, 61, 76
2,11848, Note_on_c, 0, 61, 0
2,11872, Note_on_c, 0, 79, 0
2,11909, Note_on_c, 0, 78, 73
2,12030, Note_on_c, 0, 67, 67
2,12032, Note_on_c, 0, 76, 67
2,12046, Note_on_c, 0, 78, 0
2,12079, Note_on_c, 0, 67, 0
2,12138, Note_on_c, 0, 79, 68
2,12143, Note_on_c, 0, 76, 0
2,12271, Note_on_c, 0, 66, 66
2,12271, Note_on_c, 0, 74, 65
2,12279, Note_on_c, 0, 79, 0
2,12339, Note_on_c, 0, 66, 0
2,12379, Note_on_c, 0, 74, 0
2,12393, Note_on_c, 0, 79, 72
2,12505, Note_on_c, 0, 64, 64
2,12507, Note_on_c, 0, 73, 72
2,12513, Note_on_c, 0, 79, 0
2,12558, Note_on_c, 0, 64, 0
2,12625, Note_on_c, 0, 79, 71
2,12635, Note_on_c, 0, 73, 0
2,12745, Note_on_c, 0, 71, 69
2,12746, Note_on_c, 0, 62, 63
2,12752, Note_on_c, 0, 79, 0
2,12790, Note_on_c, 0, 62, 0
2,12860, Note_on_c, 0, 79, 72
2,12861, Note_on_c, 0, 71, 0
2,12965, Note_on_c, 0, 79, 0
2,12978, Note_on_c, 0, 69, 75
2,13002, Note_on_c, 0, 61, 49
2,13048, Note_on_c, 0, 61, 0
2,13095, Note_on_c, 0, 79, 77
2,13107, Note_on_c, 0, 69, 0
2,13177, Note_on_c, 0, 79, 0
2,13221, Note_on_c, 0, 78, 89
2,13234, Note_on_c, 0, 62, 54
2,13292, Note_on_c, 0, 78, 0
2,13336, Note_on_c, 0, 62, 0
2,13348, Note_on_c, 0, 64, 59
2,13452, Note_on_c, 0, 64, 0
2,13462, Note_on_c, 0, 74, 87
2,13467, Note_on_c, 0, 66, 65
2,13518, Note_on_c, 0, 74, 0
2,13572, Note_on_c, 0, 66, 0
2,13576, Note_on_c, 0, 62, 65
2,13697, Note_on_c, 0, 62, 0
2,13703, Note_on_c, 0, 76, 90
2,13707, Note_on_c, 0, 67, 64
2,13757, Note_on_c, 0, 76, 0
2,13798, Note_on_c, 0, 67, 0
2,13828, Note_on_c, 0, 62, 67
2,13947, Note_on_c, 0, 62, 0
2,13948, Note_on_c, 0, 78, 94
2,13951, Note_on_c, 0, 69, 67
2,14002, Note_on_c, 0, 78, 0
2,14051, Note_on_c, 0, 69, 0
2,14074, Note_on_c, 0, 62, 68
2,14183, Note_on_c, 0, 62, 0
2,14183, Note_on_c, 0, 79, 93
2,14198, Note_on_c, 0, 71, 67
2,14247, Note_on_c, 0, 79, 0
2,14288, Note_on_c, 0, 71, 0
2,14314, Note_on_c, 0, 62, 71
2,14402, Note_on_c, 0, 62, 0
2,14425, Note_on_c, 0, 81, 94
2,14429, Note_on_c, 0, 72, 70
2,14506, Note_on_c, 0, 72, 0
2,14534, Note_on_c, 0, 62, 70
2,14574, Note_on_c, 0, 62, 0
2,14671, Note_on_c, 0, 81, 0
2,14691, Note_on_c, 0, 71, 87
2,14701, Note_on_c, 0, 55, 88
2,14787, Note_on_c, 0, 55, 0
2,14936, Note_on_c, 0, 74, 78
2,14942, Note_on_c, 0, 57, 71
2,15040, Note_on_c, 0, 57, 0
2,15048, Note_on_c, 0, 55, 77
2,15149, Note_on_c, 0, 55, 0
2,15163, Note_on_c, 0, 54, 77
2,15183, Note_on_c, 0, 79, 84
2,15187, Note_on_c, 0, 74, 0
2,15193, Note_on_c, 0, 71, 0
2,15230, Note_on_c, 0, 54, 0
2,15280, Note_on_c, 0, 55, 74
2,15375, Note_on_c, 0, 55, 0
2,15412, Note_on_c, 0, 57, 76
2,15412, Note_on_c, 0, 79, 0
2,15422, Note_on_c, 0, 72, 87
2,15473, Note_on_c, 0, 57, 0
2,15667, Note_on_c, 0, 78, 89
2,15675, Note_on_c, 0, 59, 67
2,15739, Note_on_c, 0, 59, 0
2,15778, Note_on_c, 0, 57, 73
2,15860, Note_on_c, 0, 78, 0
2,15882, Note_on_c, 0, 57, 0
2,15892, Note_on_c, 0, 55, 83
2,15900, Note_on_c, 0, 76, 83
2,15995, Note_on_c, 0, 55, 0
2,15996, Note_on_c, 0, 57, 78
2,16093, Note_on_c, 0, 72, 0
2,16109, Note_on_c, 0, 76, 0
2,16133, Note_on_c, 0, 57, 0
2,16140, Note_on_c, 0, 74, 80
2,16143, Note_on_c, 0, 59, 84
2,16180, Note_on_c, 0, 74, 0
2,16198, Note_on_c, 0, 59, 0
2,16385, Note_on_c, 0, 57, 77
2,16387, Note_on_c, 0, 72, 75
2,16393, Note_on_c, 0, 66, 82
2,16439, Note_on_c, 0, 57, 0
2,16441, Note_on_c, 0, 66, 0
2,16471, Note_on_c, 0, 72, 0
2,16634, Note_on_c, 0, 55, 76
2,16634, Note_on_c, 0, 71, 81
2,16640, Note_on_c, 0, 67, 72
2,16676, Note_on_c, 0, 55, 0
2,16885, Note_on_c, 0, 71, 0
2,16889, Note_on_c, 0, 50, 80
2,16896, Note_on_c, 0, 69, 78
2,16932, Note_on_c, 0, 50, 0
2,17013, Note_on_c, 0, 67, 0
2,17074, Control_c, 0, 64, 10
2,17087, Note_on_c, 0, 69, 0
2,17104, Control_c, 0, 64, 13
2,17119, Control_c, 0, 64, 15
2,17134, Control_c, 0, 64, 18
2,17136, Note_on_c, 0, 66, 61
2,17147, Note_on_c, 0, 60, 89
2,17150, Control_c, 0, 64, 23
2,17164, Control_c, 0, 64, 25
2,17180, Control_c, 0, 64, 26
2,17196, Note_on_c, 0, 66, 0
2,17240, Control_c, 0, 64, 25
2,17255, Control_c, 0, 64, 24
2,17261, Note_on_c, 0, 67, 60
2,17271, Control_c, 0, 64, 21
2,17286, Control_c, 0, 64, 18
2,17302, Control_c, 0, 64, 13
2,17317, Control_c, 0, 64, 0
2,17348, Note_on_c, 0, 67, 0
2,17378, Note_on_c, 0, 69, 71
2,17477, Note_on_c, 0, 69, 0
2,17500, Note_on_c, 0, 66, 65
2,17598, Note_on_c, 0, 60, 0
2,17610, Note_on_c, 0, 66, 0
2,17620, Note_on_c, 0, 67, 70
2,17631, Note_on_c, 0, 59, 67
2,17673, Note_on_c, 0, 59, 0
2,17729, Note_on_c, 0, 67, 0
2,17736, Note_on_c, 0, 66, 74
2,17840, Note_on_c, 0, 66, 0
2,17850, Note_on_c, 0, 67, 73
2,17861, Note_on_c, 0, 57, 74
2,17925, Note_on_c, 0, 57, 0
2,17956, Note_on_c, 0, 67, 0
2,17958, Note_on_c, 0, 69, 72
2,18013, Note_on_c, 0, 69, 0
2,18076, Note_on_c, 0, 74, 76
2,18078, Note_on_c, 0, 71, 78
2,18087, Note_on_c, 0, 55, 78
2,18131, Note_on_c, 0, 55, 0
2,18154, Note_on_c, 0, 71, 0
2,18189, Note_on_c, 0, 67, 75
2,18266, Note_on_c, 0, 67, 0
2,18312, Note_on_c, 0, 54, 77
2,18317, Note_on_c, 0, 69, 81
2,18372, Note_on_c, 0, 54, 0
2,18427, Note_on_c, 0, 69, 0
2,18432, Note_on_c, 0, 67, 71
2,18500, Note_on_c, 0, 67, 0
2,18527, Note_on_c, 0, 74, 0
2,18555, Note_on_c, 0, 64, 97
2,18558, Note_on_c, 0, 72, 77
2,18559, Note_on_c, 0, 69, 76
2,18614, Note_on_c, 0, 69, 0
2,18638, Note_on_c, 0, 72, 0
2,18669, Note_on_c, 0, 71, 75
2,18724, Note_on_c, 0, 71, 0
2,18787, Note_on_c, 0, 81, 90
2,18831, Note_on_c, 0, 72, 45
2,18901, Note_on_c, 0, 69, 66
2,18934, Note_on_c, 0, 69, 0
2,18940, Note_on_c, 0, 64, 0
2,18961, Note_on_c, 0, 72, 0
2,19021, Note_on_c, 0, 71, 78
2,19029, Note_on_c, 0, 62, 70
2,19060, Note_on_c, 0, 81, 0
2,19117, Note_on_c, 0, 62, 0
2,19160, Note_on_c, 0, 71, 0
2,19269, Note_on_c, 0, 79, 89
2,19278, Note_on_c, 0, 72, 84
2,19298, Note_on_c, 0, 64, 61
2,19352, Note_on_c, 0, 64, 0
2,19371, Note_on_c, 0, 72, 0
2,19389, Note_on_c, 0, 71, 71
2,19390, Note_on_c, 0, 62, 69
2,19438, Note_on_c, 0, 71, 0
2,19500, Note_on_c, 0, 62, 0
2,19506, Note_on_c, 0, 60, 75
2,19520, Note_on_c, 0, 69, 80
2,19604, Note_on_c, 0, 60, 0
2,19611, Note_on_c, 0, 69, 0
2,19612, Note_on_c, 0, 67, 79
2,19613, Note_on_c, 0, 59, 72
2,19659, Note_on_c, 0, 67, 0
2,19709, Note_on_c, 0, 79, 0
2,19720, Note_on_c, 0, 59, 0
2,19735, Note_on_c, 0, 57, 68
2,19745, Note_on_c, 0, 72, 86
2,19803, Note_on_c, 0, 57, 0
2,19986, Note_on_c, 0, 81, 87
2,19996, Note_on_c, 0, 60, 71
2,20063, Note_on_c, 0, 60, 0
2,20087, Note_on_c, 0, 79, 82
2,20095, Note_on_c, 0, 59, 71
2,20112, Note_on_c, 0, 81, 0
2,20202, Note_on_c, 0, 59, 0
2,20203, Note_on_c, 0, 78, 84
2,20207, Note_on_c, 0, 57, 76
2,20242, Note_on_c, 0, 79, 0
2,20251, Note_on_c, 0, 72, 0
2,20279, Note_on_c, 0, 57, 0
2,20292, Note_on_c, 0, 78, 0
2,20315, Note_on_c, 0, 76, 77
2,20316, Note_on_c, 0, 55, 76
2,20360, Note_on_c, 0, 76, 0
2,20423, Note_on_c, 0, 55, 0
2,20448, Note_on_c, 0, 74, 84
2,20452, Note_on_c, 0, 54, 69
2,20569, Note_on_c, 0, 71, 74
2,20649, Note_on_c, 0, 54, 0
2,20684, Note_on_c, 0, 71, 0
2,20686, Note_on_c, 0, 69, 80
2,20763, Note_on_c, 0, 69, 0
2,20801, Note_on_c, 0, 72, 78
2,20890, Note_on_c, 0, 72, 0
2,20912, Note_on_c, 0, 67, 77
2,20927, Note_on_c, 0, 52, 60
2,20976, Note_on_c, 0, 52, 0
2,21016, Note_on_c, 0, 67, 0
2,21028, Note_on_c, 0, 72, 76
2,21153, Note_on_c, 0, 66, 78
2,21154, Note_on_c, 0, 50, 61
2,21169, Note_on_c, 0, 72, 0
2,21228, Note_on_c, 0, 50, 0
2,21251, Note_on_c, 0, 66, 0
2,21254, Note_on_c, 0, 52, 59
2,21267, Note_on_c, 0, 72, 74
2,21355, Note_on_c, 0, 52, 0
2,21359, Note_on_c, 0, 72, 0
2,21379, Note_on_c, 0, 50, 62
2,21386, Note_on_c, 0, 64, 73
2,21469, Note_on_c, 0, 50, 0
2,21478, Note_on_c, 0, 64, 0
2,21503, Note_on_c, 0, 48, 61
2,21509, Note_on_c, 0, 72, 70
2,21597, Note_on_c, 0, 48, 0
2,21609, Note_on_c, 0, 72, 0
2,21615, Note_on_c, 0, 62, 71
2,21622, Note_on_c, 0, 47, 66
2,21707, Note_on_c, 0, 47, 0
2,21707, Note_on_c, 0, 62, 0
2,21734, Note_on_c, 0, 45, 60
2,21734, Note_on_c, 0, 72, 72
2,21812, Note_on_c, 0, 74, 0
2,21828, Note_on_c, 0, 45, 0
2,21837, Note_on_c, 0, 72, 0
2,21858, Note_on_c, 0, 43, 55
2,21867, Note_on_c, 0, 71, 74
2,21924, Note_on_c, 0, 71, 0
2,21962, Note_on_c, 0, 43, 0
2,21968, Note_on_c, 0, 45, 54
2,22091, Note_on_c, 0, 45, 0
2,22102, Note_on_c, 0, 74, 53
2,22105, Note_on_c, 0, 47, 60
2,22108, Note_on_c, 0, 65, 62
2,22126, Note_on_c, 0, 72, 46
2,22148, Note_on_c, 0, 65, 0
2,22151, Note_on_c, 0, 72, 0
2,22163, Note_on_c, 0, 74, 0
2,22181, Note_on_c, 0, 47, 0
2,22209, Note_on_c, 0, 43, 59
2,22336, Note_on_c, 0, 43, 0
2,22349, Note_on_c, 0, 48, 61
2,22354, Note_on_c, 0, 72, 72
2,22359, Note_on_c, 0, 64, 60
2,22398, Note_on_c, 0, 64, 0
2,22410, Note_on_c, 0, 72, 0
2,22450, Note_on_c, 0, 48, 0
2,22459, Note_on_c, 0, 43, 56
2,22579, Note_on_c, 0, 43, 0
2,22594, Note_on_c, 0, 50, 56
2,22600, Note_on_c, 0, 71, 69
2,22614, Note_on_c, 0, 62, 54
2,22645, Note_on_c, 0, 62, 0
2,22660, Note_on_c, 0, 71, 0
2,22668, Note_on_c, 0, 50, 0
2,22703, Note_on_c, 0, 43, 58
2,22810, Note_on_c, 0, 43, 0
2,22819, Note_on_c, 0, 52, 64
2,22832, Note_on_c, 0, 69, 66
2,22850, Note_on_c, 0, 60, 45
2,22878, Note_on_c, 0, 60, 0
2,22884, Note_on_c, 0, 69, 0
2,22908, Note_on_c, 0, 52, 0
2,22929, Note_on_c, 0, 43, 55
2,23049, Note_on_c, 0, 43, 0
2,23068, Note_on_c, 0, 67, 74
2,23069, Note_on_c, 0, 53, 62
2,23086, Note_on_c, 0, 59, 49
2,23111, Note_on_c, 0, 59, 0
2,23126, Note_on_c, 0, 67, 0
2,23163, Note_on_c, 0, 53, 0
2,23172, Note_on_c, 0, 43, 63
2,23267, Note_on_c, 0, 43, 0
2,23279, Control_c, 0, 64, 10
2,23293, Note_on_c, 0, 72, 81
2,23294, Control_c, 0, 64, 15
2,23300, Note_on_c, 0, 52, 61
2,23309, Control_c, 0, 64, 18
2,23324, Control_c, 0, 64, 23
2,23340, Control_c, 0, 64, 26
2,23348, Note_on_c, 0, 72, 0
2,23355, Control_c, 0, 64, 27
2,23370, Control_c, 0, 64, 28
2,23386, Control_c, 0, 64, 29
2,23396, Note_on_c, 0, 74, 78
2,23400, Note_on_c, 0, 52, 0
2,23414, Note_on_c, 0, 50, 62
2,23431, Control_c, 0, 64, 27
2,23462, Control_c, 0, 64, 26
2,23463, Note_on_c, 0, 74, 0
2,23477, Control_c, 0, 64, 24
2,23491, Control_c, 0, 64, 23
2,23499, Note_on_c, 0, 50, 0
2,23506, Control_c, 0, 64, 21
2,23515, Note_on_c, 0, 76, 84
2,23521, Control_c, 0, 64, 20
2,23521, Note_on_c, 0, 48, 56
2,23592, Note_on_c, 0, 48, 0
2,23597, Control_c, 0, 64, 21
2,23627, Control_c, 0, 64, 23
2,23631, Note_on_c, 0, 52, 60
2,23688, Control_c, 0, 64, 21
2,23711, Control_c, 0, 64, 20
2,23726, Control_c, 0, 64, 17
2,23742, Control_c, 0, 64, 13
2,23742, Note_on_c, 0, 52, 0
2,23757, Control_c, 0, 64, 0
2,23764, Note_on_c, 0, 67, 70
2,23766, Note_on_c, 0, 47, 60
2,23821, Note_on_c, 0, 67, 0
2,23871, Note_on_c, 0, 52, 58
2,23875, Note_on_c, 0, 47, 0
2,23980, Note_on_c, 0, 76, 0
2,23989, Note_on_c, 0, 52, 0
2,24006, Note_on_c, 0, 66, 73
2,24007, Note_on_c, 0, 45, 60
2,24107, Note_on_c, 0, 45, 0
2,24118, Note_on_c, 0, 52, 64
2,24119, Note_on_c, 0, 74, 69
2,24225, Note_on_c, 0, 74, 0
2,24237, Note_on_c, 0, 52, 0
2,24238, Note_on_c, 0, 72, 73
2,24247, Note_on_c, 0, 43, 59
2,24326, Note_on_c, 0, 43, 0
2,24355, Note_on_c, 0, 71, 80
2,24360, Note_on_c, 0, 52, 60
2,24374, Note_on_c, 0, 66, 0
2,24394, Note_on_c, 0, 72, 0
2,24465, Note_on_c, 0, 52, 0
2,24480, Note_on_c, 0, 69, 81
2,24486, Note_on_c, 0, 71, 0
2,24488, Note_on_c, 0, 42, 60
2,24568, Note_on_c, 0, 42, 0
2,24596, Note_on_c, 0, 69, 0
2,24599, Note_on_c, 0, 52, 58
2,24600, Note_on_c, 0, 72, 83
2,24667, Note_on_c, 0, 72, 0
2,24676, Note_on_c, 0, 52, 0
2,24692, Control_c, 0, 64, 10
2,24707, Note_on_c, 0, 50, 56
2,24708, Control_c, 0, 64, 15
2,24713, Note_on_c, 0, 71, 89
2,24723, Control_c, 0, 64, 17
2,24738, Control_c, 0, 64, 18
2,24753, Control_c, 0, 64, 20
2,24786, Note_on_c, 0, 71, 0
2,24809, Note_on_c, 0, 50, 0
2,24820, Note_on_c, 0, 48, 69
2,24825, Note_on_c, 0, 72, 87
2,24889, Control_c, 0, 64, 18
2,24905, Control_c, 0, 64, 17
2,24908, Note_on_c, 0, 72, 0
2,24918, Note_on_c, 0, 48, 0
2,24939, Note_on_c, 0, 47, 62
2,24945, Note_on_c, 0, 74, 88
2,24966, Control_c, 0, 64, 15
2,25015, Note_on_c, 0, 47, 0
2,25049, Note_on_c, 0, 50, 63
2,25104, Control_c, 0, 64, 10
2,25119, Control_c, 0, 64, 0
2,25168, Note_on_c, 0, 50, 0
2,25184, Note_on_c, 0, 45, 62
2,25186, Note_on_c, 0, 66, 80
2,25272, Note_on_c, 0, 66, 0
2,25288, Note_on_c, 0, 45, 0
2,25308, Note_on_c, 0, 50, 57
2,25385, Note_on_c, 0, 74, 0
2,25415, Note_on_c, 0, 50, 0
2,25428, Note_on_c, 0, 43, 63
2,25432, Note_on_c, 0, 64, 71
2,25502, Note_on_c, 0, 43, 0
2,25543, Note_on_c, 0, 50, 64
2,25552, Note_on_c, 0, 72, 75
2,25653, Note_on_c, 0, 50, 0
2,25668, Note_on_c, 0, 71, 74
2,25670, Note_on_c, 0, 72, 0
2,25675, Note_on_c, 0, 42, 58
2,25769, Note_on_c, 0, 42, 0
2,25787, Note_on_c, 0, 69, 81
2,25791, Note_on_c, 0, 50, 56
2,25810, Note_on_c, 0, 71, 0
2,25880, Note_on_c, 0, 50, 0
2,25893, Note_on_c, 0, 40, 63
2,25904, Note_on_c, 0, 67, 81
2,25912, Note_on_c, 0, 69, 0
2,25946, Note_on_c, 0, 64, 0
2,25965, Note_on_c, 0, 40, 0
2,25995, Note_on_c, 0, 50, 64
2,26021, Note_on_c, 0, 71, 87
2,26030, Note_on_c, 0, 67, 0
2,26092, Note_on_c, 0, 50, 0
2,26102, Note_on_c, 0, 71, 0
2,26115, Note_on_c, 0, 48, 64
2,26135, Note_on_c, 0, 69, 90
2,26138, Control_c, 0, 64, 10
2,26153, Control_c, 0, 64, 15
2,26167, Control_c, 0, 64, 17
2,26183, Control_c, 0, 64, 21
2,26198, Control_c, 0, 64, 26
2,26208, Note_on_c, 0, 69, 0
2,26213, Control_c, 0, 64, 28
2,26215, Note_on_c, 0, 48, 0
2,26228, Note_on_c, 0, 47, 68
2,26229, Control_c, 0, 64, 29
2,26244, Note_on_c, 0, 71, 89
2,26290, Control_c, 0, 64, 29
2,26336, Note_on_c, 0, 71, 0
2,26339, Note_on_c, 0, 47, 0
2,26351, Note_on_c, 0, 45, 62
2,26371, Note_on_c, 0, 72, 90
2,26411, Control_c, 0, 64, 29
2,26428, Note_on_c, 0, 45, 0
2,26456, Control_c, 0, 64, 28
2,26463, Note_on_c, 0, 48, 66
2,26487, Control_c, 0, 64, 27
2,26502, Control_c, 0, 64, 25
2,26517, Control_c, 0, 64, 23
2,26532, Control_c, 0, 64, 21
2,26564, Control_c, 0, 64, 20
2,26578, Note_on_c, 0, 48, 0
2,26579, Control_c, 0, 64, 18
2,26600, Note_on_c, 0, 43, 61
2,26606, Note_on_c, 0, 64, 73
2,26609, Control_c, 0, 64, 17
2,26625, Control_c, 0, 64, 13
2,26640, Control_c, 0, 64, 0
2,26678, Note_on_c, 0, 43, 0
2,26681, Note_on_c, 0, 64, 0
2,26708, Note_on_c, 0, 48, 64
2,26840, Note_on_c, 0, 72, 0
2,26842, Note_on_c, 0, 48, 0
2,26851, Note_on_c, 0, 62, 72
2,26860, Note_on_c, 0, 42, 60
2,26954, Note_on_c, 0, 42, 0
2,26962, Note_on_c, 0, 48, 64
2,26981, Note_on_c, 0, 71, 64
2,27071, Note_on_c, 0, 48, 0
2,27088, Note_on_c, 0, 40, 66
2,27089, Note_on_c, 0, 69, 71
2,27104, Note_on_c, 0, 71, 0
2,27170, Note_on_c, 0, 40, 0
2,27198, Note_on_c, 0, 48, 66
2,27204, Note_on_c, 0, 67, 75
2,27213, Note_on_c, 0, 69, 0
2,27310, Note_on_c, 0, 48, 0
2,27320, Note_on_c, 0, 38, 60
2,27321, Note_on_c, 0, 66, 76
2,27322, Note_on_c, 0, 67, 0
2,27374, Note_on_c, 0, 62, 0
2,27403, Note_on_c, 0, 38, 0
2,27427, Note_on_c, 0, 48, 70
2,27431, Note_on_c, 0, 69, 79
2,27443, Note_on_c, 0, 66, 0
2,27474, Note_on_c, 0, 48, 0
2,27489, Note_on_c, 0, 69, 0
2,27564, Note_on_c, 0, 67, 87
2,27569, Note_on_c, 0, 62, 82
2,27584, Note_on_c, 0, 47, 74
2,27650, Note_on_c, 0, 67, 0
2,27683, Note_on_c, 0, 47, 0
2,27685, Note_on_c, 0, 69, 73
2,27698, Note_on_c, 0, 62, 0
2,27736, Note_on_c, 0, 69, 0
2,27808, Note_on_c, 0, 71, 93
2,27822, Note_on_c, 0, 60, 78
2,27825, Note_on_c, 0, 45, 67
2,27868, Note_on_c, 0, 60, 0
2,27888, Note_on_c, 0, 45, 0
2,27939, Note_on_c, 0, 62, 79
2,28033, Note_on_c, 0, 62, 0
2,28056, Note_on_c, 0, 64, 80
2,28058, Note_on_c, 0, 43, 75
2,28118, Note_on_c, 0, 43, 0
2,28121, Note_on_c, 0, 71, 0
2,28165, Note_on_c, 0, 62, 83
2,28179, Note_on_c, 0, 64, 0
2,28291, Note_on_c, 0, 62, 0
2,28299, Note_on_c, 0, 60, 83
2,28300, Note_on_c, 0, 45, 79
2,28378, Note_on_c, 0, 45, 0
2,28397, Note_on_c, 0, 60, 0
2,28544, Note_on_c, 0, 64, 78
2,28555, Note_on_c, 0, 59, 61
2,28558, Note_on_c, 0, 43, 79
2,28589, Note_on_c, 0, 59, 0
2,28629, Note_on_c, 0, 43, 0
2,28631, Note_on_c, 0, 64, 0
2,28675, Note_on_c, 0, 60, 81
2,28745, Note_on_c, 0, 60, 0
2,28791, Note_on_c, 0, 42, 68
2,28797, Note_on_c, 0, 62, 78
2,28798, Note_on_c, 0, 69, 75
2,28845, Note_on_c, 0, 42, 0
2,28846, Note_on_c, 0, 62, 0
2,28908, Note_on_c, 0, 60, 80
2,28971, Note_on_c, 0, 60, 0
2,29033, Note_on_c, 0, 43, 60
2,29035, Note_on_c, 0, 59, 76
2,29090, Note_on_c, 0, 69, 0
2,29096, Note_on_c, 0, 43, 0
2,29116, Note_on_c, 0, 59, 0
2,29154, Note_on_c, 0, 55, 52
2,29170, Note_on_c, 0, 67, 69
2,29231, Note_on_c, 0, 67, 0
2,29248, Note_on_c, 0, 55, 0
2,29291, Note_on_c, 0, 53, 59
2,29296, Note_on_c, 0, 69, 81
2,29299, Note_on_c, 0, 60, 80
2,29359, Note_on_c, 0, 60, 0
2,29378, Note_on_c, 0, 69, 0
2,29401, Note_on_c, 0, 53, 0
2,29410, Note_on_c, 0, 52, 67
2,29513, Note_on_c, 0, 52, 0
2,29536, Note_on_c, 0, 50, 66
2,29539, Note_on_c, 0, 71, 85
2,29542, Note_on_c, 0, 62, 81
2,29578, Note_on_c, 0, 62, 0
2,29601, Note_on_c, 0, 71, 0
2,29642, Note_on_c, 0, 50, 0
2,29650, Control_c, 0, 64, 13
2,29652, Note_on_c, 0, 53, 74
2,29666, Control_c, 0, 64, 18
2,29680, Control_c, 0, 64, 21
2,29695, Control_c, 0, 64, 24
2,29711, Control_c, 0, 64, 25
2,29757, Control_c, 0, 64, 26
2,29765, Note_on_c, 0, 67, 74
2,29768, Note_on_c, 0, 72, 75
2,29772, Note_on_c, 0, 53, 0
2,29775, Note_on_c, 0, 52, 76
2,29834, Control_c, 0, 64, 25
2,29856, Control_c, 0, 64, 24
2,29858, Note_on_c, 0, 72, 0
2,29889, Note_on_c, 0, 74, 67
2,29895, Note_on_c, 0, 52, 0
2,29895, Note_on_c, 0, 67, 0
2,29895, Note_on_c, 0, 67, 6
2,29900, Note_on_c, 0, 53, 75
2,29932, Control_c, 0, 64, 23
2,29993, Control_c, 0, 64, 21
2,30008, Control_c, 0, 64, 20
2,30015, Note_on_c, 0, 72, 77
2,30016, Note_on_c, 0, 57, 93
2,30020, Note_on_c, 0, 53, 0
2,30024, Control_c, 0, 64, 18
2,30026, Note_on_c, 0, 52, 81
2,30028, Note_on_c, 0, 74, 0
2,30038, Control_c, 0, 64, 15
2,30053, Control_c, 0, 64, 0
2,30099, Note_on_c, 0, 67, 0
2,30127, Note_on_c, 0, 72, 0
2,30133, Note_on_c, 0, 52, 0
2,30141, Note_on_c, 0, 71, 57
2,30142, Note_on_c, 0, 50, 66
2,30241, Note_on_c, 0, 50, 0
2,30247, Note_on_c, 0, 71, 0
2,30258, Note_on_c, 0, 69, 70
2,30260, Note_on_c, 0, 48, 68
2,30284, Note_on_c, 0, 57, 0
2,30326, Note_on_c, 0, 69, 0
2,30345, Note_on_c, 0, 52, 75
2,30347, Note_on_c, 0, 48, 0
2,30359, Note_on_c, 0, 67, 64
2,30433, Note_on_c, 0, 67, 0
2,30448, Note_on_c, 0, 52, 0
2,30466, Note_on_c, 0, 66, 72
2,30480, Note_on_c, 0, 50, 69
2,30483, Note_on_c, 0, 59, 64
2,30486, Note_on_c, 0, 48, 62
2,30524, Note_on_c, 0, 48, 0
2,30536, Note_on_c, 0, 66, 0
2,30549, Note_on_c, 0, 67, 75
2,30572, Note_on_c, 0, 52, 79
2,30579, Note_on_c, 0, 59, 0
2,30580, Note_on_c, 0, 50, 0
2,30614, Note_on_c, 0, 67, 0
2,30629, Note_on_c, 0, 66, 65
2,30690, Note_on_c, 0, 66, 0
2,30695, Note_on_c, 0, 67, 84
2,30703, Note_on_c, 0, 60, 82
2,30713, Note_on_c, 0, 50, 79
2,30713, Note_on_c, 0, 52, 0
2,30745, Note_on_c, 0, 60, 0
2,30809, Note_on_c, 0, 64, 71
2,30810, Note_on_c, 0, 67, 0
2,30818, Note_on_c, 0, 50, 0
2,30833, Note_on_c, 0, 48, 65
2,30878, Note_on_c, 0, 66, 63
2,30910, Note_on_c, 0, 64, 0
2,30929, Note_on_c, 0, 48, 0
2,30947, Note_on_c, 0, 62, 92
2,30948, Note_on_c, 0, 66, 0
2,30952, Note_on_c, 0, 67, 85
2,30955, Note_on_c, 0, 47, 72
2,31062, Note_on_c, 0, 47, 0
2,31064, Note_on_c, 0, 50, 74
2,31081, Note_on_c, 0, 62, 0
2,31122, Note_on_c, 0, 67, 0
2,31181, Note_on_c, 0, 50, 0
2,31182, Note_on_c, 0, 48, 81
2,31185, Note_on_c, 0, 64, 83
2,31246, Note_on_c, 0, 64, 0
2,31303, Note_on_c, 0, 71, 75
2,31304, Note_on_c, 0, 48, 0
2,31310, Note_on_c, 0, 50, 71
2,31369, Control_c, 0, 64, 10
2,31373, Note_on_c, 0, 71, 0
2,31432, Note_on_c, 0, 69, 85
2,31436, Note_on_c, 0, 48, 77
2,31436, Note_on_c, 0, 50, 0
2,31449, Note_on_c, 0, 54, 85
2,31484, Control_c, 0, 64, 0
2,31525, Note_on_c, 0, 69, 0
2,31555, Note_on_c, 0, 48, 0
2,31560, Note_on_c, 0, 47, 64
2,31569, Note_on_c, 0, 67, 74
2,31660, Note_on_c, 0, 47, 0
2,31674, Note_on_c, 0, 45, 63
2,31674, Note_on_c, 0, 67, 0
2,31682, Note_on_c, 0, 66, 72
2,31698, Note_on_c, 0, 54, 0
2,31756, Note_on_c, 0, 66, 0
2,31776, Note_on_c, 0, 45, 0
2,31776, Note_on_c, 0, 48, 66
2,31795, Note_on_c, 0, 64, 60
2,31836, Note_on_c, 0, 64, 0
2,31894, Note_on_c, 0, 48, 0
2,31906, Note_on_c, 0, 47, 72
2,31908, Note_on_c, 0, 52, 67
2,31913, Note_on_c, 0, 62, 71
2,31978, Note_on_c, 0, 52, 0
2,32008, Note_on_c, 0, 62, 0
2,32013, Note_on_c, 0, 47, 0
2,32018, Note_on_c, 0, 48, 75
2,32142, Note_on_c, 0, 48, 0
2,32145, Note_on_c, 0, 55, 73
2,32148, Note_on_c, 0, 47, 75
2,32258, Note_on_c, 0, 47, 0
2,32262, Note_on_c, 0, 55, 0
2,32268, Note_on_c, 0, 57, 75
2,32278, Note_on_c, 0, 45, 65
2,32368, Note_on_c, 0, 45, 0
2,32379, Note_on_c, 0, 57, 0
2,32386, Note_on_c, 0, 43, 66
2,32390, Note_on_c, 0, 59, 78
2,32487, Note_on_c, 0, 59, 0
2,32503, Note_on_c, 0, 61, 82
2,32505, Note_on_c, 0, 45, 68
2,32507, Note_on_c, 0, 43, 0
2,32615, Note_on_c, 0, 45, 0
2,32616, Note_on_c, 0, 47, 76
2,32618, Note_on_c, 0, 62, 82
2,32637, Note_on_c, 0, 61, 0
2,32690, Note_on_c, 0, 62, 0
2,32714, Note_on_c, 0, 47, 0
2,32717, Note_on_c, 0, 49, 78
2,32834, Note_on_c, 0, 49, 0
2,32841, Note_on_c, 0, 59, 74
2,32842, Note_on_c, 0, 50, 67
2,32928, Note_on_c, 0, 50, 0
2,32958, Note_on_c, 0, 61, 76
2,32963, Note_on_c, 0, 52, 68
2,32963, Note_on_c, 0, 59, 0
2,33053, Note_on_c, 0, 61, 0
2,33058, Note_on_c, 0, 52, 0
2,33071, Note_on_c, 0, 62, 79
2,33072, Note_on_c, 0, 54, 73
2,33151, Note_on_c, 0, 62, 0
2,33181, Note_on_c, 0, 64, 74
2,33182, Note_on_c, 0, 54, 0
2,33185, Note_on_c, 0, 55, 64
2,33260, Note_on_c, 0, 55, 0
2,33306, Note_on_c, 0, 54, 76
2,33313, Note_on_c, 0, 69, 73
2,33315, Note_on_c, 0, 64, 0
2,33323, Note_on_c, 0, 66, 73
2,33341, Note_on_c, 0, 54, 0
2,33425, Note_on_c, 0, 66, 0
2,33434, Note_on_c, 0, 69, 0
2,33544, Note_on_c, 0, 64, 60
2,33545, Note_on_c, 0, 67, 68
2,33550, Note_on_c, 0, 59, 68
2,33597, Note_on_c, 0, 59, 0
2,33598, Note_on_c, 0, 64, 0
2,33612, Note_on_c, 0, 67, 0
2,33659, Note_on_c, 0, 69, 73
2,33746, Note_on_c, 0, 69, 0
2,33793, Note_on_c, 0, 47, 65
2,33800, Note_on_c, 0, 71, 73
2,33809, Note_on_c, 0, 63, 66
2,33844, Note_on_c, 0, 47, 0
2,33846, Note_on_c, 0, 63, 0
2,33890, Note_on_c, 0, 71, 0
2,33905, Note_on_c, 0, 69, 72
2,33995, Note_on_c, 0, 69, 0
2,34040, Note_on_c, 0, 67, 78
2,34044, Note_on_c, 0, 52, 65
2,34052, Note_on_c, 0, 64, 60
2,34071, Note_on_c, 0, 52, 0
2,34089, Note_on_c, 0, 64, 0
2,34102, Note_on_c, 0, 67, 0
2,34294, Note_on_c, 0, 62, 60
2,34294, Note_on_c, 0, 66, 69
2,34301, Note_on_c, 0, 57, 63
2,34346, Note_on_c, 0, 57, 0
2,34349, Note_on_c, 0, 62, 0
2,34373, Note_on_c, 0, 66, 0
2,34410, Note_on_c, 0, 67, 62
2,34495, Note_on_c, 0, 67, 0
2,34532, Note_on_c, 0, 45, 56
2,34533, Note_on_c, 0, 69, 70
2,34548, Note_on_c, 0, 61, 65
2,34576, Note_on_c, 0, 45, 0
2,34612, Note_on_c, 0, 61, 0
2,34622, Note_on_c, 0, 69, 0
2,34650, Note_on_c, 0, 67, 71
2,34743, Note_on_c, 0, 67, 0
2,34775, Note_on_c, 0, 66, 85
2,34784, Note_on_c, 0, 50, 62
2,34786, Note_on_c, 0, 62, 59
2,34814, Note_on_c, 0, 50, 0
2,34814, Note_on_c, 0, 62, 0
2,34831, Note_on_c, 0, 66, 0
2,34844, Control_c, 0, 64, 18
2,34860, Control_c, 0, 64, 24
2,34875, Control_c, 0, 64, 28
2,34890, Control_c, 0, 64, 30
2,34906, Control_c, 0, 64, 32
2,34921, Control_c, 0, 64, 32
2,34996, Control_c, 0, 64, 32
2,35025, Note_on_c, 0, 67, 86
2,35040, Note_on_c, 0, 52, 48
2,35042, Control_c, 0, 64, 31
2,35043, Note_on_c, 0, 61, 63
2,35072, Control_c, 0, 64, 30
2,35077, Note_on_c, 0, 67, 0
2,35087, Control_c, 0, 64, 29
2,35095, Note_on_c, 0, 52, 0
2,35118, Control_c, 0, 64, 29
2,35141, Note_on_c, 0, 61, 0
2,35150, Note_on_c, 0, 59, 60
2,35208, Control_c, 0, 64, 28
2,35239, Note_on_c, 0, 59, 0
2,35247, Control_c, 0, 64, 27
2,35278, Control_c, 0, 64, 26
2,35278, Note_on_c, 0, 69, 94
2,35287, Note_on_c, 0, 54, 66
2,35292, Control_c, 0, 64, 25
2,35306, Note_on_c, 0, 57, 59
2,35321, Note_on_c, 0, 69, 0
2,35368, Control_c, 0, 64, 26
2,35372, Note_on_c, 0, 57, 0
2,35399, Control_c, 0, 64, 27
2,35409, Note_on_c, 0, 61, 57
2,35485, Note_on_c, 0, 61, 0
2,35514, Note_on_c, 0, 74, 87
2,35534, Note_on_c, 0, 59, 66
2,35551, Control_c, 0, 64, 28
2,35562, Note_on_c, 0, 74, 0
2,35566, Control_c, 0, 64, 29
2,35582, Control_c, 0, 64, 30
2,35597, Control_c, 0, 64, 32
2,35610, Note_on_c, 0, 61, 70
2,35612, Control_c, 0, 64, 34
2,35618, Note_on_c, 0, 54, 0
2,35627, Note_on_c, 0, 59, 0
2,35628, Control_c, 0, 64, 35
2,35642, Control_c, 0, 64, 36
2,35658, Control_c, 0, 64, 36
2,35673, Control_c, 0, 64, 37
2,35682, Note_on_c, 0, 61, 0
2,35734, Control_c, 0, 64, 36
2,35739, Note_on_c, 0, 55, 70
2,35744, Note_on_c, 0, 64, 85
2,35750, Control_c, 0, 64, 36
2,35764, Control_c, 0, 64, 35
2,35780, Control_c, 0, 64, 34
2,35804, Note_on_c, 0, 55, 0
2,35810, Control_c, 0, 64, 34
2,35829, Note_on_c, 0, 66, 84
2,35832, Note_on_c, 0, 64, 0
2,35839, Note_on_c, 0, 57, 67
2,35840, Control_c, 0, 64, 33
2,35886, Control_c, 0, 64, 32
2,35903, Note_on_c, 0, 66, 0
2,35918, Note_on_c, 0, 64, 70
2,35921, Note_on_c, 0, 57, 0
2,35948, Note_on_c, 0, 64, 0
2,35952, Note_on_c, 0, 49, 60
2,35970, Note_on_c, 0, 66, 74
2,35976, Control_c, 0, 64, 32
2,35989, Note_on_c, 0, 55, 47
2,36000, Control_c, 0, 64, 29
2,36015, Control_c, 0, 64, 26
2,36031, Control_c, 0, 64, 24
2,36046, Control_c, 0, 64, 23
2,36047, Note_on_c, 0, 49, 0
2,36054, Note_on_c, 0, 64, 70
2,36055, Note_on_c, 0, 66, 0
2,36061, Control_c, 0, 64, 21
2,36065, Note_on_c, 0, 55, 0
2,36082, Note_on_c, 0, 59, 66
2,36091, Control_c, 0, 64, 20
2,36100, Note_on_c, 0, 64, 0
2,36104, Note_on_c, 0, 62, 67
2,36122, Control_c, 0, 64, 18
2,36152, Control_c, 0, 64, 17
2,36168, Note_on_c, 0, 64, 75
2,36171, Note_on_c, 0, 62, 0
2,36174, Note_on_c, 0, 59, 0
2,36182, Control_c, 0, 64, 15
2,36197, Control_c, 0, 64, 13
2,36209, Note_on_c, 0, 50, 60
2,36214, Note_on_c, 0, 57, 57
2,36214, Note_on_c, 0, 66, 81
2,36217, Note_on_c, 0, 64, 0
2,36250, Note_on_c, 0, 66, 0
2,36273, Control_c, 0, 64, 15
2,36318, Note_on_c, 0, 57, 0
2,36328, Note_on_c, 0, 59, 60
2,36364, Control_c, 0, 64, 13
2,36381, Control_c, 0, 64, 0
2,36431, Note_on_c, 0, 59, 0
2,36446, Note_on_c, 0, 57, 65
2,36452, Note_on_c, 0, 67, 86
2,36499, Note_on_c, 0, 67, 0
2,36548, Control_c, 0, 64, 10
2,36556, Note_on_c, 0, 57, 0
2,36572, Note_on_c, 0, 55, 69
2,36577, Control_c, 0, 64, 13
2,36626, Note_on_c, 0, 50, 0
2,36673, Note_on_c, 0, 55, 0
2,36684, Control_c, 0, 64, 15
2,36688, Note_on_c, 0, 54, 67
2,36691, Note_on_c, 0, 69, 93
2,36700, Control_c, 0, 64, 17
2,36715, Control_c, 0, 64, 20
2,36730, Control_c, 0, 64, 24
2,36742, Note_on_c, 0, 69, 0
2,36746, Control_c, 0, 64, 27
2,36767, Control_c, 0, 64, 28
2,36783, Control_c, 0, 64, 29
2,36793, Note_on_c, 0, 54, 0
2,36798, Control_c, 0, 64, 30
2,36813, Control_c, 0, 64, 31
2,36813, Note_on_c, 0, 57, 77
2,36875, Control_c, 0, 64, 30
2,36889, Control_c, 0, 64, 29
2,36924, Note_on_c, 0, 57, 0
2,36932, Note_on_c, 0, 55, 76
2,36940, Note_on_c, 0, 71, 89
2,36950, Control_c, 0, 64, 30
2,36985, Note_on_c, 0, 71, 0
2,37031, Note_on_c, 0, 55, 0
2,37036, Note_on_c, 0, 57, 72
2,37041, Control_c, 0, 64, 31
2,37146, Note_on_c, 0, 57, 0
2,37147, Control_c, 0, 64, 30
2,37153, Note_on_c, 0, 55, 75
2,37162, Control_c, 0, 64, 29
2,37165, Note_on_c, 0, 61, 89
2,37193, Control_c, 0, 64, 29
2,37209, Control_c, 0, 64, 28
2,37225, Control_c, 0, 64, 27
2,37240, Control_c, 0, 64, 26
2,37256, Note_on_c, 0, 61, 0
2,37263, Note_on_c, 0, 62, 73
2,37269, Note_on_c, 0, 55, 0
2,37270, Control_c, 0, 64, 25
2,37278, Note_on_c, 0, 54, 63
2,37301, Control_c, 0, 64, 24
2,37317, Control_c, 0, 64, 23
2,37331, Control_c, 0, 64, 20
2,37340, Note_on_c, 0, 62, 0
2,37347, Control_c, 0, 64, 17
2,37351, Note_on_c, 0, 61, 74
2,37362, Control_c, 0, 64, 15
2,37375, Note_on_c, 0, 54, 0
2,37377, Control_c, 0, 64, 13
2,37389, Note_on_c, 0, 52, 61
2,37392, Control_c, 0, 64, 10
2,37398, Note_on_c, 0, 62, 69
2,37400, Note_on_c, 0, 61, 0
2,37407, Control_c, 0, 64, 0
2,37474, Note_on_c, 0, 61, 63
2,37481, Note_on_c, 0, 62, 0
2,37488, Note_on_c, 0, 52, 0
2,37499, Note_on_c, 0, 55, 62
2,37507, Note_on_c, 0, 59, 69
2,37522, Note_on_c, 0, 61, 0
2,37609, Note_on_c, 0, 59, 0
2,37614, Note_on_c, 0, 61, 65
2,37624, Note_on_c, 0, 55, 0
2,37635, Note_on_c, 0, 54, 68
2,37656, Note_on_c, 0, 62, 81
2,37680, Note_on_c, 0, 61, 0
2,37703, Note_on_c, 0, 62, 0
2,37748, Note_on_c, 0, 54, 0
2,37758, Note_on_c, 0, 55, 65
2,37873, Note_on_c, 0, 55, 0
2,37876, Note_on_c, 0, 54, 71
2,37877, Note_on_c, 0, 62, 75
2,37988, Note_on_c, 0, 54, 0
2,37989, Note_on_c, 0, 62, 0
2,37997, Note_on_c, 0, 52, 68
2,37999, Note_on_c, 0, 64, 72
2,38094, Note_on_c, 0, 52, 0
2,38113, Note_on_c, 0, 50, 65
2,38115, Note_on_c, 0, 64, 0
2,38118, Note_on_c, 0, 66, 82
2,38206, Note_on_c, 0, 66, 0
2,38237, Note_on_c, 0, 52, 67
2,38244, Note_on_c, 0, 67, 81
2,38264, Note_on_c, 0, 50, 0
2,38281, Control_c, 0, 64, 10
2,38334, Control_c, 0, 64, 0
2,38361, Note_on_c, 0, 54, 72
2,38363, Note_on_c, 0, 52, 0
2,38365, Note_on_c, 0, 69, 84
2,38375, Note_on_c, 0, 67, 0
2,38395, Control_c, 0, 64, 10
2,38434, Note_on_c, 0, 69, 0
2,38478, Note_on_c, 0, 55, 76
2,38482, Note_on_c, 0, 54, 0
2,38502, Control_c, 0, 64, 13
2,38531, Control_c, 0, 64, 15
2,38595, Note_on_c, 0, 55, 0
2,38596, Note_on_c, 0, 57, 73
2,38605, Note_on_c, 0, 66, 85
2,38624, Control_c, 0, 64, 17
2,38653, Control_c, 0, 64, 18
2,38687, Note_on_c, 0, 57, 0
2,38712, Note_on_c, 0, 67, 83
2,38717, Note_on_c, 0, 59, 77
2,38721, Note_on_c, 0, 66, 0
2,38815, Note_on_c, 0, 67, 0
2,38825, Note_on_c, 0, 59, 0
2,38828, Note_on_c, 0, 60, 76
2,38835, Note_on_c, 0, 69, 90
2,38897, Control_c, 0, 64, 20
2,38903, Note_on_c, 0, 60, 0
2,38921, Note_on_c, 0, 69, 0
2,38933, Note_on_c, 0, 62, 78
2,38947, Note_on_c, 0, 71, 85
2,38958, Control_c, 0, 64, 21
2,39004, Control_c, 0, 64, 23
2,39045, Note_on_c, 0, 71, 0
2,39056, Note_on_c, 0, 62, 0
2,39090, Note_on_c, 0, 72, 96
2,39094, Note_on_c, 0, 54, 79
2,39101, Note_on_c, 0, 50, 78
2,39103, Control_c, 0, 64, 24
2,39118, Control_c, 0, 64, 25
2,39136, Note_on_c, 0, 50, 0
2,39136, Note_on_c, 0, 54, 0
2,39179, Control_c, 0, 64, 24
2,39194, Control_c, 0, 64, 23
2,39239, Control_c, 0, 64, 24
2,39254, Control_c, 0, 64, 25
2,39347, Note_on_c, 0, 48, 80
2,39354, Note_on_c, 0, 69, 79
2,39360, Control_c, 0, 64, 26
2,39437, Control_c, 0, 64, 25
2,39449, Note_on_c, 0, 48, 0
2,39456, Note_on_c, 0, 50, 83
2,39511, Note_on_c, 0, 69, 0
2,39528, Control_c, 0, 64, 24
2,39573, Control_c, 0, 64, 23
2,39584, Note_on_c, 0, 50, 0
2,39584, Note_on_c, 0, 52, 82
2,39588, Note_on_c, 0, 67, 79
2,39591, Note_on_c, 0, 71, 77
2,39629, Note_on_c, 0, 72, 0
2,39653, Note_on_c, 0, 52, 0
2,39696, Note_on_c, 0, 50, 83
2,39757, Control_c, 0, 64, 21
2,39772, Control_c, 0, 64, 18
2,39787, Control_c, 0, 64, 17
2,39802, Control_c, 0, 64, 15
2,39808, Note_on_c, 0, 50, 0
2,39817, Control_c, 0, 64, 10
2,39822, Note_on_c, 0, 67, 0
2,39831, Note_on_c, 0, 48, 81
2,39839, Note_on_c, 0, 69, 88
2,39855, Control_c, 0, 64, 0
2,39880, Note_on_c, 0, 71, 0
2,39905, Note_on_c, 0, 48, 0
2,40088, Note_on_c, 0, 47, 68
2,40090, Note_on_c, 0, 67, 77
2,40167, Note_on_c, 0, 69, 0
2,40200, Note_on_c, 0, 48, 75
2,40203, Note_on_c, 0, 47, 0
2,40320, Note_on_c, 0, 50, 75
2,40322, Note_on_c, 0, 48, 0
2,40329, Note_on_c, 0, 67, 0
2,40337, Note_on_c, 0, 66, 76
2,40438, Note_on_c, 0, 48, 82
2,40439, Note_on_c, 0, 50, 0
2,40530, Note_on_c, 0, 66, 0
2,40557, Note_on_c, 0, 48, 0
2,40563, Note_on_c, 0, 47, 78
2,40570, Note_on_c, 0, 67, 72
2,40632, Note_on_c, 0, 47, 0
2,40676, Note_on_c, 0, 67, 0
2,40700, Note_on_c, 0, 79, 75
2,40834, Note_on_c, 0, 78, 75
2,40836, Note_on_c, 0, 48, 65
2,40871, Note_on_c, 0, 79, 0
2,40888, Note_on_c, 0, 48, 0
2,40945, Note_on_c, 0, 76, 73
2,40996, Note_on_c, 0, 78, 0
2,41070, Note_on_c, 0, 74, 76
2,41075, Note_on_c, 0, 50, 76
2,41077, Note_on_c, 0, 76, 0
2,41127, Note_on_c, 0, 50, 0
2,41168, Control_c, 0, 64, 13
2,41183, Control_c, 0, 64, 18
2,41183, Note_on_c, 0, 74, 0
2,41183, Note_on_c, 0, 78, 80
2,41199, Control_c, 0, 64, 23
2,41214, Control_c, 0, 64, 24
2,41229, Control_c, 0, 64, 25
2,41290, Control_c, 0, 64, 26
2,41307, Control_c, 0, 64, 28
2,41318, Note_on_c, 0, 76, 81
2,41321, Control_c, 0, 64, 29
2,41327, Note_on_c, 0, 55, 74
2,41332, Note_on_c, 0, 78, 0
2,41336, Control_c, 0, 64, 31
2,41352, Control_c, 0, 64, 32
2,41353, Note_on_c, 0, 55, 0
2,41405, Control_c, 0, 64, 32
2,41431, Note_on_c, 0, 78, 83
2,41436, Control_c, 0, 64, 33
2,41436, Note_on_c, 0, 76, 0
2,41451, Control_c, 0, 64, 34
2,41467, Control_c, 0, 64, 35
2,41526, Control_c, 0, 64, 34
2,41541, Control_c, 0, 64, 34
2,41570, Note_on_c, 0, 78, 0
2,41574, Note_on_c, 0, 76, 67
2,41587, Note_on_c, 0, 45, 74
2,41602, Control_c, 0, 64, 33
2,41617, Control_c, 0, 64, 32
2,41633, Control_c, 0, 64, 32
2,41648, Control_c, 0, 64, 30
2,41663, Control_c, 0, 64, 29
2,41679, Control_c, 0, 64, 28
2,41696, Note_on_c, 0, 76, 0
2,41701, Note_on_c, 0, 74, 67
2,41709, Control_c, 0, 64, 27
2,41724, Control_c, 0, 64, 26
2,41739, Control_c, 0, 64, 25
2,41755, Control_c, 0, 64, 24
2,41770, Control_c, 0, 64, 23
2,41786, Control_c, 0, 64, 20
2,41804, Note_on_c, 0, 74, 0
2,41808, Note_on_c, 0, 72, 70
2,41815, Control_c, 0, 64, 18
2,41831, Control_c, 0, 64, 17
2,41860, Control_c, 0, 64, 15
2,41876, Control_c, 0, 64, 13
2,41891, Control_c, 0, 64, 0
2,41916, Note_on_c, 0, 72, 0
2,41927, Note_on_c, 0, 76, 74
2,42058, Note_on_c, 0, 74, 71
2,42059, Note_on_c, 0, 45, 0
2,42067, Note_on_c, 0, 47, 78
2,42079, Note_on_c, 0, 76, 0
2,42110, Note_on_c, 0, 47, 0
2,42190, Note_on_c, 0, 76, 78
2,42192, Note_on_c, 0, 74, 0
2,42309, Note_on_c, 0, 76, 0
2,42310, Note_on_c, 0, 74, 75
2,42317, Note_on_c, 0, 48, 82
2,42372, Note_on_c, 0, 48, 0
2,42429, Note_on_c, 0, 72, 80
2,42431, Note_on_c, 0, 74, 0
2,42522, Control_c, 0, 64, 13
2,42537, Control_c, 0, 64, 17
2,42539, Note_on_c, 0, 72, 0
2,42544, Note_on_c, 0, 71, 75
2,42552, Note_on_c, 0, 50, 85
2,42553, Control_c, 0, 64, 18
2,42568, Control_c, 0, 64, 21
2,42599, Control_c, 0, 64, 23
2,42605, Note_on_c, 0, 50, 0
2,42651, Note_on_c, 0, 71, 0
2,42659, Control_c, 0, 64, 25
2,42662, Note_on_c, 0, 74, 72
2,42675, Control_c, 0, 64, 28
2,42689, Control_c, 0, 64, 29
2,42703, Control_c, 0, 64, 30
2,42779, Control_c, 0, 64, 31
2,42789, Note_on_c, 0, 52, 89
2,42793, Note_on_c, 0, 72, 77
2,42794, Note_on_c, 0, 74, 0
2,42810, Control_c, 0, 64, 32
2,42826, Control_c, 0, 64, 32
2,42834, Note_on_c, 0, 52, 0
2,42926, Note_on_c, 0, 74, 69
2,42932, Note_on_c, 0, 72, 0
2,42956, Control_c, 0, 64, 32
2,42971, Control_c, 0, 64, 31
2,42987, Control_c, 0, 64, 30
2,43002, Control_c, 0, 64, 29
2,43016, Control_c, 0, 64, 29
2,43039, Note_on_c, 0, 42, 81
2,43052, Note_on_c, 0, 72, 74
2,43053, Note_on_c, 0, 74, 0
2,43062, Control_c, 0, 64, 28
2,43078, Control_c, 0, 64, 26
2,43092, Control_c, 0, 64, 25
2,43108, Control_c, 0, 64, 23
2,43123, Control_c, 0, 64, 21
2,43138, Control_c, 0, 64, 18
2,43153, Control_c, 0, 64, 17
2,43156, Note_on_c, 0, 72, 0
2,43164, Note_on_c, 0, 71, 67
2,43168, Control_c, 0, 64, 15
2,43183, Control_c, 0, 64, 13
2,43229, Control_c, 0, 64, 10
2,43259, Control_c, 0, 64, 0
2,43272, Note_on_c, 0, 71, 0
2,43280, Note_on_c, 0, 69, 67
2,43391, Note_on_c, 0, 72, 74
2,43399, Note_on_c, 0, 69, 0
2,43515, Note_on_c, 0, 71, 76
2,43524, Note_on_c, 0, 43, 78
2,43525, Note_on_c, 0, 42, 0
2,43547, Note_on_c, 0, 72, 0
2,43619, Note_on_c, 0, 43, 0
2,43619, Note_on_c, 0, 71, 0
2,43627, Note_on_c, 0, 69, 77
2,43629, Note_on_c, 0, 45, 78
2,43740, Note_on_c, 0, 69, 0
2,43744, Note_on_c, 0, 45, 0
2,43752, Note_on_c, 0, 47, 83
2,43755, Note_on_c, 0, 67, 70
2,43856, Note_on_c, 0, 67, 0
2,43864, Note_on_c, 0, 71, 71
2,43984, Note_on_c, 0, 62, 82
2,43989, Note_on_c, 0, 66, 76
2,44003, Note_on_c, 0, 71, 0
2,44090, Note_on_c, 0, 66, 0
2,44092, Note_on_c, 0, 62, 0
2,44102, Note_on_c, 0, 71, 68
2,44227, Note_on_c, 0, 64, 72
2,44229, Note_on_c, 0, 61, 81
2,44232, Note_on_c, 0, 71, 0
2,44314, Note_on_c, 0, 61, 0
2,44317, Note_on_c, 0, 47, 0
2,44335, Note_on_c, 0, 64, 0
2,44343, Note_on_c, 0, 45, 57
2,44348, Note_on_c, 0, 71, 74
2,44444, Note_on_c, 0, 71, 0
2,44456, Note_on_c, 0, 45, 0
2,44477, Note_on_c, 0, 43, 63
2,44489, Note_on_c, 0, 62, 68
2,44564, Note_on_c, 0, 43, 0
2,44586, Note_on_c, 0, 62, 0
2,44593, Note_on_c, 0, 42, 59
2,44609, Note_on_c, 0, 71, 58
2,44682, Note_on_c, 0, 42, 0
2,44710, Note_on_c, 0, 40, 61
2,44729, Note_on_c, 0, 61, 68
2,44734, Note_on_c, 0, 71, 0
2,44813, Note_on_c, 0, 61, 0
2,44824, Note_on_c, 0, 40, 0
2,44834, Note_on_c, 0, 43, 68
2,44851, Note_on_c, 0, 71, 71
2,44952, Note_on_c, 0, 71, 0
2,44953, Note_on_c, 0, 43, 0
2,44958, Note_on_c, 0, 42, 73
2,44975, Note_on_c, 0, 69, 70
2,45046, Note_on_c, 0, 42, 0
2,45062, Note_on_c, 0, 43, 74
2,45062, Note_on_c, 0, 69, 0
2,45087, Note_on_c, 0, 67, 63
2,45181, Note_on_c, 0, 43, 0
2,45181, Note_on_c, 0, 45, 81
2,45207, Control_c, 0, 64, 10
2,45221, Note_on_c, 0, 66, 67
2,45222, Note_on_c, 0, 67, 0
2,45230, Control_c, 0, 64, 13
2,45245, Control_c, 0, 64, 15
2,45316, Note_on_c, 0, 66, 0
2,45322, Note_on_c, 0, 69, 72
2,45382, Control_c, 0, 64, 13
2,45413, Control_c, 0, 64, 10
2,45429, Control_c, 0, 64, 0
2,45445, Note_on_c, 0, 61, 82
2,45447, Note_on_c, 0, 64, 76
2,45466, Note_on_c, 0, 69, 0
2,45551, Note_on_c, 0, 64, 0
2,45558, Note_on_c, 0, 69, 84
2,45568, Note_on_c, 0, 61, 0
2,45680, Note_on_c, 0, 59, 80
2,45684, Note_on_c, 0, 62, 76
2,45684, Note_on_c, 0, 69, 0
2,45744, Note_on_c, 0, 45, 0
2,45765, Note_on_c, 0, 43, 56
2,45768, Note_on_c, 0, 59, 0
2,45787, Note_on_c, 0, 62, 0
2,45801, Note_on_c, 0, 69, 77
2,45871, Note_on_c, 0, 43, 0
2,45896, Note_on_c, 0, 42, 53
2,45920, Note_on_c, 0, 61, 74
2,45929, Note_on_c, 0, 69, 0
2,46003, Note_on_c, 0, 42, 0
2,46024, Note_on_c, 0, 40, 59
2,46034, Note_on_c, 0, 61, 0
2,46049, Note_on_c, 0, 69, 74
2,46119, Note_on_c, 0, 40, 0
2,46135, Note_on_c, 0, 38, 61
2,46155, Note_on_c, 0, 59, 73
2,46171, Note_on_c, 0, 69, 0
2,46245, Note_on_c, 0, 38, 0
2,46248, Note_on_c, 0, 42, 63
2,46265, Note_on_c, 0, 59, 0
2,46273, Note_on_c, 0, 69, 78
2,46366, Note_on_c, 0, 69, 0
2,46376, Note_on_c, 0, 42, 0
2,46380, Note_on_c, 0, 40, 75
2,46383, Note_on_c, 0, 67, 73
2,46484, Note_on_c, 0, 40, 0
2,46490, Note_on_c, 0, 42, 75
2,46497, Note_on_c, 0, 66, 70
2,46499, Note_on_c, 0, 67, 0
2,46615, Note_on_c, 0, 42, 0
2,46615, Note_on_c, 0, 64, 60
2,46616, Note_on_c, 0, 43, 74
2,46622, Note_on_c, 0, 66, 0
2,46719, Note_on_c, 0, 64, 0
2,46730, Note_on_c, 0, 67, 68
2,46846, Note_on_c, 0, 59, 82
2,46850, Note_on_c, 0, 62, 79
2,46875, Note_on_c, 0, 67, 0
2,46966, Note_on_c, 0, 62, 0
2,46966, Note_on_c, 0, 67, 78
2,46967, Note_on_c, 0, 59, 0
2,47093, Note_on_c, 0, 57, 77
2,47096, Note_on_c, 0, 61, 76
2,47097, Note_on_c, 0, 67, 0
2,47174, Note_on_c, 0, 57, 0
2,47204, Note_on_c, 0, 61, 0
2,47205, Note_on_c, 0, 67, 77
2,47209, Note_on_c, 0, 43, 0
2,47220, Note_on_c, 0, 42, 58
2,47323, Note_on_c, 0, 42, 0
2,47333, Note_on_c, 0, 40, 61
2,47336, Note_on_c, 0, 59, 69
2,47350, Note_on_c, 0, 67, 0
2,47409, Note_on_c, 0, 40, 0
2,47437, Note_on_c, 0, 38, 58
2,47438, Note_on_c, 0, 59, 0
2,47454, Note_on_c, 0, 67, 67
2,47548, Note_on_c, 0, 38, 0
2,47560, Note_on_c, 0, 67, 0
2,47566, Note_on_c, 0, 37, 59
2,47577, Note_on_c, 0, 57, 67
2,47654, Note_on_c, 0, 37, 0
2,47659, Note_on_c, 0, 57, 0
2,47679, Note_on_c, 0, 40, 64
2,47682, Note_on_c, 0, 67, 70
2,47746, Note_on_c, 0, 67, 0
2,47792, Note_on_c, 0, 40, 0
2,47813, Note_on_c, 0, 38, 60
2,47816, Note_on_c, 0, 66, 63
2,47915, Note_on_c, 0, 38, 0
2,47915, Note_on_c, 0, 66, 0
2,47929, Note_on_c, 0, 40, 59
2,47933, Note_on_c, 0, 74, 64
2,48028, Note_on_c, 0, 40, 0
2,48038, Note_on_c, 0, 74, 0
2,48046, Note_on_c, 0, 42, 58
2,48052, Note_on_c, 0, 72, 70
2,48136, Note_on_c, 0, 72, 0
2,48156, Note_on_c, 0, 42, 0
2,48162, Note_on_c, 0, 38, 52
2,48166, Note_on_c, 0, 71, 70
2,48254, Note_on_c, 0, 71, 0
2,48272, Note_on_c, 0, 38, 0
2,48290, Note_on_c, 0, 43, 53
2,48290, Note_on_c, 0, 69, 64
2,48369, Note_on_c, 0, 69, 0
2,48386, Note_on_c, 0, 43, 0
2,48395, Note_on_c, 0, 67, 61
2,48422, Note_on_c, 0, 38, 47
2,48514, Note_on_c, 0, 67, 0
2,48521, Note_on_c, 0, 38, 0
2,48521, Note_on_c, 0, 66, 63
2,48533, Note_on_c, 0, 45, 56
2,48626, Note_on_c, 0, 66, 0
2,48628, Note_on_c, 0, 45, 0
2,48638, Note_on_c, 0, 64, 63
2,48648, Note_on_c, 0, 38, 58
2,48755, Note_on_c, 0, 64, 0
2,48758, Note_on_c, 0, 38, 0
2,48759, Note_on_c, 0, 47, 62
2,48760, Note_on_c, 0, 62, 63
2,48845, Note_on_c, 0, 62, 0
2,48853, Note_on_c, 0, 47, 0
2,48872, Note_on_c, 0, 60, 64
2,48881, Note_on_c, 0, 38, 63
2,48969, Note_on_c, 0, 38, 0
2,48971, Note_on_c, 0, 60, 0
2,48988, Note_on_c, 0, 59, 67
2,48996, Note_on_c, 0, 48, 64
2,49081, Note_on_c, 0, 48, 0
2,49094, Note_on_c, 0, 59, 0
2,49104, Note_on_c, 0, 57, 71
2,49105, Note_on_c, 0, 38, 66
2,49194, Note_on_c, 0, 38, 0
2,49208, Note_on_c, 0, 57, 0
2,49223, Note_on_c, 0, 55, 73
2,49226, Note_on_c, 0, 47, 77
2,49237, Control_c, 0, 64, 17
2,49252, Control_c, 0, 64, 24
2,49266, Note_on_c, 0, 55, 0
2,49268, Control_c, 0, 64, 29
2,49283, Control_c, 0, 64, 31
2,49313, Control_c, 0, 64, 32
2,49321, Note_on_c, 0, 47, 0
2,49328, Control_c, 0, 64, 32
2,49340, Note_on_c, 0, 57, 69
2,49351, Note_on_c, 0, 55, 80
2,49404, Control_c, 0, 64, 33
2,49409, Note_on_c, 0, 57, 0
2,49449, Control_c, 0, 64, 34
2,49450, Note_on_c, 0, 55, 0
2,49462, Note_on_c, 0, 53, 77
2,49466, Note_on_c, 0, 59, 69
2,49512, Control_c, 0, 64, 34
2,49553, Note_on_c, 0, 59, 0
2,49577, Note_on_c, 0, 52, 82
2,49581, Note_on_c, 0, 55, 67
2,49583, Note_on_c, 0, 53, 0
2,49664, Note_on_c, 0, 55, 0
2,49679, Control_c, 0, 64, 34
2,49695, Note_on_c, 0, 52, 0
2,49705, Note_on_c, 0, 60, 72
2,49712, Note_on_c, 0, 50, 81
2,49795, Note_on_c, 0, 60, 0
2,49809, Note_on_c, 0, 50, 0
2,49815, Note_on_c, 0, 55, 64
2,49829, Note_on_c, 0, 48, 77
2,49929, Control_c, 0, 64, 33
2,49946, Note_on_c, 0, 62, 76
2,49949, Note_on_c, 0, 48, 0
2,49952, Note_on_c, 0, 47, 78
2,49952, Note_on_c, 0, 55, 0
2,49975, Control_c, 0, 64, 32
2,50059, Note_on_c, 0, 62, 0
2,50061, Note_on_c, 0, 45, 75
2,50064, Note_on_c, 0, 47, 0
2,50070, Note_on_c, 0, 55, 68
2,50127, Control_c, 0, 64, 32
2,50136, Note_on_c, 0, 45, 0
2,50157, Control_c, 0, 64, 31
2,50171, Note_on_c, 0, 43, 74
2,50189, Note_on_c, 0, 64, 71
2,50193, Note_on_c, 0, 55, 0
2,50202, Control_c, 0, 64, 30
2,50217, Control_c, 0, 64, 29
2,50264, Control_c, 0, 64, 30
2,50276, Note_on_c, 0, 64, 0
2,50283, Note_on_c, 0, 43, 0
2,50293, Note_on_c, 0, 41, 76
2,50310, Control_c, 0, 64, 31
2,50310, Note_on_c, 0, 55, 73
2,50341, Control_c, 0, 64, 32
2,50356, Control_c, 0, 64, 32
2,50401, Note_on_c, 0, 55, 0
2,50410, Note_on_c, 0, 41, 0
2,50416, Control_c, 0, 64, 32
2,50417, Note_on_c, 0, 40, 76
2,50430, Note_on_c, 0, 65, 72
2,50447, Control_c, 0, 64, 31
2,50491, Note_on_c, 0, 65, 0
2,50522, Control_c, 0, 64, 32
2,50522, Note_on_c, 0, 40, 0
2,50534, Note_on_c, 0, 55, 60
2,50537, Control_c, 0, 64, 32
2,50537, Note_on_c, 0, 38, 70
2,50553, Control_c, 0, 64, 33
2,50568, Control_c, 0, 64, 34
2,50617, Note_on_c, 0, 55, 0
2,50622, Control_c, 0, 64, 34
2,50642, Note_on_c, 0, 38, 0
2,50664, Note_on_c, 0, 36, 65
2,50668, Control_c, 0, 64, 34
2,50683, Control_c, 0, 64, 33
2,50694, Note_on_c, 0, 64, 39
2,50728, Control_c, 0, 64, 32
2,50743, Note_on_c, 0, 64, 0
2,50744, Control_c, 0, 64, 32
2,50779, Note_on_c, 0, 36, 0
2,50786, Note_on_c, 0, 38, 60
2,50790, Control_c, 0, 64, 31
2,50812, Note_on_c, 0, 72, 57
2,50891, Note_on_c, 0, 38, 0
2,50893, Note_on_c, 0, 40, 69
2,50911, Note_on_c, 0, 72, 0
2,50917, Note_on_c, 0, 71, 68
2,50942, Control_c, 0, 64, 32
2,51000, Note_on_c, 0, 40, 0
2,51017, Note_on_c, 0, 42, 64
2,51023, Note_on_c, 0, 71, 0
2,51025, Note_on_c, 0, 74, 71
2,51033, Control_c, 0, 64, 32
2,51047, Control_c, 0, 64, 33
2,51078, Control_c, 0, 64, 34
2,51109, Control_c, 0, 64, 34
2,51122, Note_on_c, 0, 42, 0
2,51125, Control_c, 0, 64, 35
2,51128, Note_on_c, 0, 44, 69
2,51141, Control_c, 0, 64, 36
2,51145, Note_on_c, 0, 69, 75
2,51155, Note_on_c, 0, 74, 0
2,51170, Control_c, 0, 64, 36
2,51180, Note_on_c, 0, 44, 0
2,51216, Control_c, 0, 64, 37
2,51239, Note_on_c, 0, 69, 0
2,51243, Note_on_c, 0, 45, 66
2,51259, Note_on_c, 0, 74, 70
2,51263, Control_c, 0, 64, 36
2,51379, Note_on_c, 0, 68, 78
2,51386, Note_on_c, 0, 45, 0
2,51387, Note_on_c, 0, 47, 75
2,51387, Note_on_c, 0, 74, 0
2,51391, Control_c, 0, 64, 37
2,51488, Note_on_c, 0, 68, 0
2,51491, Note_on_c, 0, 47, 0
2,51496, Note_on_c, 0, 48, 70
2,51496, Note_on_c, 0, 74, 71
2,51497, Control_c, 0, 64, 36
2,51544, Control_c, 0, 64, 37
2,51590, Note_on_c, 0, 48, 0
2,51604, Control_c, 0, 64, 37
2,51604, Note_on_c, 0, 66, 82
2,51615, Note_on_c, 0, 50, 65
2,51620, Control_c, 0, 64, 38
2,51632, Note_on_c, 0, 74, 0
2,51635, Control_c, 0, 64, 38
2,51690, Note_on_c, 0, 50, 0
2,51715, Note_on_c, 0, 52, 66
2,51720, Note_on_c, 0, 66, 0
2,51724, Note_on_c, 0, 74, 76
2,51725, Control_c, 0, 64, 39
2,51828, Note_on_c, 0, 52, 0
2,51836, Note_on_c, 0, 74, 0
2,51838, Note_on_c, 0, 54, 68
2,51845, Note_on_c, 0, 64, 74
2,51862, Control_c, 0, 64, 39
2,51936, Note_on_c, 0, 64, 0
2,51961, Note_on_c, 0, 74, 73
2,51963, Note_on_c, 0, 54, 0
2,51964, Note_on_c, 0, 56, 59
2,52030, Control_c, 0, 64, 39
2,52065, Note_on_c, 0, 74, 0
2,52071, Note_on_c, 0, 56, 0
2,52083, Note_on_c, 0, 72, 69
2,52087, Note_on_c, 0, 57, 61
2,52090, Control_c, 0, 64, 38
2,52170, Note_on_c, 0, 72, 0
2,52186, Note_on_c, 0, 57, 0
2,52199, Note_on_c, 0, 69, 74
2,52210, Note_on_c, 0, 55, 60
2,52266, Control_c, 0, 64, 38
2,52298, Note_on_c, 0, 55, 0
2,52312, Note_on_c, 0, 69, 0
2,52312, Note_on_c, 0, 71, 75
2,52314, Note_on_c, 0, 54, 66
2,52411, Note_on_c, 0, 54, 0
2,52412, Note_on_c, 0, 57, 73
2,52416, Note_on_c, 0, 71, 0
2,52420, Note_on_c, 0, 73, 76
2,52533, Note_on_c, 0, 73, 0
2,52536, Control_c, 0, 64, 38
2,52537, Note_on_c, 0, 57, 0
2,52537, Note_on_c, 0, 75, 76
2,52540, Note_on_c, 0, 52, 78
2,52582, Control_c, 0, 64, 38
2,52599, Note_on_c, 0, 75, 0
2,52617, Note_on_c, 0, 52, 0
2,52645, Note_on_c, 0, 57, 81
2,52645, Note_on_c, 0, 76, 75
2,52719, Control_c, 0, 64, 37
2,52730, Note_on_c, 0, 76, 0
2,52756, Note_on_c, 0, 78, 87
2,52772, Note_on_c, 0, 57, 0
2,52778, Note_on_c, 0, 51, 78
2,52780, Control_c, 0, 64, 38
2,52869, Note_on_c, 0, 79, 82
2,52871, Note_on_c, 0, 78, 0
2,52873, Note_on_c, 0, 51, 0
2,52878, Note_on_c, 0, 57, 75
2,52895, Control_c, 0, 64, 37
2,52911, Control_c, 0, 64, 37
2,52925, Control_c, 0, 64, 36
2,52956, Control_c, 0, 64, 36
2,52986, Control_c, 0, 64, 35
2,52991, Note_on_c, 0, 79, 0
2,52998, Note_on_c, 0, 81, 92
2,53000, Note_on_c, 0, 57, 0
2,53009, Note_on_c, 0, 49, 76
2,53077, Control_c, 0, 64, 36
2,53078, Note_on_c, 0, 81, 0
2,53091, Note_on_c, 0, 49, 0
2,53107, Control_c, 0, 64, 36
2,53107, Note_on_c, 0, 83, 85
2,53108, Note_on_c, 0, 57, 79
2,53137, Control_c, 0, 64, 37
2,53183, Control_c, 0, 64, 37
2,53190, Note_on_c, 0, 83, 0
2,53199, Control_c, 0, 64, 38
2,53205, Note_on_c, 0, 57, 0
2,53213, Control_c, 0, 64, 38
2,53213, Note_on_c, 0, 84, 85
2,53219, Note_on_c, 0, 47, 77
2,53229, Control_c, 0, 64, 39
2,53244, Control_c, 0, 64, 39
2,53275, Control_c, 0, 64, 39
2,53278, Note_on_c, 0, 84, 0
2,53302, Note_on_c, 0, 47, 0
2,53330, Note_on_c, 0, 57, 76
2,53331, Note_on_c, 0, 75, 84
2,53335, Control_c, 0, 64, 39
2,53351, Control_c, 0, 64, 40
2,53389, Note_on_c, 0, 75, 0
2,53396, Control_c, 0, 64, 39
2,53398, Note_on_c, 0, 57, 0
2,53411, Control_c, 0, 64, 39
2,53427, Control_c, 0, 64, 38
2,53455, Control_c, 0, 64, 38
2,53459, Note_on_c, 0, 76, 91
2,53462, Note_on_c, 0, 55, 92
2,53471, Control_c, 0, 64, 37
2,53486, Control_c, 0, 64, 36
2,53498, Note_on_c, 0, 55, 0
2,53501, Control_c, 0, 64, 32
2,53517, Control_c, 0, 64, 29
2,53531, Control_c, 0, 64, 25
2,53547, Control_c, 0, 64, 23
2,53562, Control_c, 0, 64, 21
2,53584, Note_on_c, 0, 76, 0
2,53594, Control_c, 0, 64, 23
2,53708, Control_c, 0, 64, 21
2,53722, Note_on_c, 0, 78, 88
2,53729, Note_on_c, 0, 60, 82
2,53738, Control_c, 0, 64, 20
2,53753, Control_c, 0, 64, 18
2,53768, Control_c, 0, 64, 17
2,53775, Note_on_c, 0, 60, 0
2,53799, Control_c, 0, 64, 15
2,53828, Note_on_c, 0, 78, 0
2,53835, Note_on_c, 0, 76, 84
2,53859, Control_c, 0, 64, 17
2,53890, Control_c, 0, 64, 18
2,53932, Note_on_c, 0, 76, 0
2,53962, Note_on_c, 0, 75, 89
2,53966, Control_c, 0, 64, 21
2,53969, Note_on_c, 0, 59, 81
2,53981, Control_c, 0, 64, 23
2,53997, Control_c, 0, 64, 24
2,54011, Control_c, 0, 64, 25
2,54020, Note_on_c, 0, 59, 0
2,54027, Control_c, 0, 64, 26
2,54042, Note_on_c, 0, 75, 0
2,54070, Note_on_c, 0, 76, 90
2,54073, Control_c, 0, 64, 27
2,54102, Control_c, 0, 64, 28
2,54133, Control_c, 0, 64, 29
2,54163, Control_c, 0, 64, 29
2,54194, Control_c, 0, 64, 30
2,54198, Note_on_c, 0, 78, 94
2,54209, Note_on_c, 0, 57, 76
2,54210, Control_c, 0, 64, 32
2,54218, Note_on_c, 0, 76, 0
2,54224, Control_c, 0, 64, 32
2,54240, Control_c, 0, 64, 34
2,54250, Note_on_c, 0, 57, 0
2,54255, Control_c, 0, 64, 35
2,54271, Control_c, 0, 64, 36
2,54286, Control_c, 0, 64, 37
2,54288, Note_on_c, 0, 78, 0
2,54300, Control_c, 0, 64, 38
2,54316, Control_c, 0, 64, 39
2,54331, Control_c, 0, 64, 40
2,54346, Control_c, 0, 64, 40
2,54470, Note_on_c, 0, 79, 92
2,54485, Note_on_c, 0, 59, 73
2,54491, Control_c, 0, 64, 41
2,54507, Control_c, 0, 64, 42
2,54522, Control_c, 0, 64, 42
2,54530, Note_on_c, 0, 59, 0
2,54580, Note_on_c, 0, 78, 90
2,54583, Control_c, 0, 64, 42
2,54613, Control_c, 0, 64, 41
2,54617, Note_on_c, 0, 79, 0
2,54629, Control_c, 0, 64, 41
2,54644, Control_c, 0, 64, 40
2,54659, Control_c, 0, 64, 40
2,54689, Control_c, 0, 64, 39
2,54695, Note_on_c, 0, 78, 0
2,54699, Note_on_c, 0, 47, 66
2,54700, Note_on_c, 0, 76, 89
2,54735, Control_c, 0, 64, 39
2,54765, Control_c, 0, 64, 38
2,54765, Note_on_c, 0, 47, 0
2,54795, Control_c, 0, 64, 38
2,54807, Note_on_c, 0, 78, 90
2,54818, Note_on_c, 0, 76, 0
2,54895, Note_on_c, 0, 78, 0
2,54917, Control_c, 0, 64, 38
2,54932, Control_c, 0, 64, 39
2,54938, Note_on_c, 0, 79, 97
2,54947, Note_on_c, 0, 52, 63
2,54948, Control_c, 0, 64, 40
2,54963, Control_c, 0, 64, 40
2,54993, Control_c, 0, 64, 41
2,54996, Note_on_c, 0, 79, 0
2,55008, Control_c, 0, 64, 41
2,55054, Control_c, 0, 64, 42
2,55054, Note_on_c, 0, 52, 0
2,55058, Note_on_c, 0, 54, 66
2,55069, Control_c, 0, 64, 42
2,55129, Control_c, 0, 64, 42
2,55187, Note_on_c, 0, 78, 96
2,55199, Note_on_c, 0, 55, 66
2,55208, Note_on_c, 0, 54, 0
2,55229, Control_c, 0, 64, 41
2,55252, Note_on_c, 0, 78, 0
2,55277, Note_on_c, 0, 55, 0
2,55304, Control_c, 0, 64, 42
2,55322, Note_on_c, 0, 52, 60
2,55366, Control_c, 0, 64, 41
2,55381, Control_c, 0, 64, 41
2,55397, Control_c, 0, 64, 40
2,55432, Note_on_c, 0, 52, 0
2,55437, Note_on_c, 0, 57, 70
2,55440, Note_on_c, 0, 76, 90
2,55473, Control_c, 0, 64, 41
2,55487, Note_on_c, 0, 76, 0
2,55488, Control_c, 0, 64, 41
2,55518, Control_c, 0, 64, 42
2,55533, Control_c, 0, 64, 42
2,55535, Note_on_c, 0, 57, 0
2,55549, Control_c, 0, 64, 43
2,55553, Note_on_c, 0, 52, 75
2,55563, Control_c, 0, 64, 43
2,55675, Note_on_c, 0, 52, 0
2,55678, Note_on_c, 0, 71, 89
2,55680, Note_on_c, 0, 59, 74
2,55700, Control_c, 0, 64, 44
2,55739, Note_on_c, 0, 71, 0
2,55761, Control_c, 0, 64, 44
2,55767, Note_on_c, 0, 59, 0
2,55792, Note_on_c, 0, 52, 73
2,55806, Control_c, 0, 64, 45
2,55821, Control_c, 0, 64, 45
2,55852, Control_c, 0, 64, 46
2,55928, Control_c, 0, 64, 45
2,55930, Note_on_c, 0, 52, 0
2,55932, Note_on_c, 0, 81, 92
2,55938, Note_on_c, 0, 61, 65
2,55943, Control_c, 0, 64, 45
2,55965, Control_c, 0, 64, 44
2,55980, Control_c, 0, 64, 43
2,55996, Control_c, 0, 64, 42
2,56011, Control_c, 0, 64, 42
2,56027, Control_c, 0, 64, 41
2,56043, Control_c, 0, 64, 40
2,56045, Note_on_c, 0, 61, 0
2,56057, Note_on_c, 0, 52, 72
2,56058, Control_c, 0, 64, 39
2,56073, Control_c, 0, 64, 38
2,56088, Control_c, 0, 64, 37
2,56103, Control_c, 0, 64, 37
2,56119, Control_c, 0, 64, 36
2,56180, Note_on_c, 0, 52, 0
2,56192, Note_on_c, 0, 63, 78
2,56255, Control_c, 0, 64, 36
2,56277, Note_on_c, 0, 63, 0
2,56286, Control_c, 0, 64, 35
2,56295, Note_on_c, 0, 52, 76
2,56317, Control_c, 0, 64, 34
2,56371, Note_on_c, 0, 81, 0
2,56377, Control_c, 0, 64, 36
2,56391, Note_on_c, 0, 52, 0
2,56393, Control_c, 0, 64, 37
2,56407, Control_c, 0, 64, 38
2,56422, Control_c, 0, 64, 39
2,56423, Note_on_c, 0, 79, 91
2,56437, Note_on_c, 0, 64, 66
2,56438, Control_c, 0, 64, 40
2,56453, Control_c, 0, 64, 41
2,56469, Control_c, 0, 64, 41
2,56483, Control_c, 0, 64, 42
2,56495, Note_on_c, 0, 79, 0
2,56498, Control_c, 0, 64, 42
2,56514, Control_c, 0, 64, 43
2,56529, Control_c, 0, 64, 44
2,56531, Note_on_c, 0, 64, 0
2,56549, Note_on_c, 0, 63, 66
2,56559, Control_c, 0, 64, 44
2,56604, Control_c, 0, 64, 43
2,56619, Control_c, 0, 64, 43
2,56635, Control_c, 0, 64, 42
2,56662, Note_on_c, 0, 78, 93
2,56669, Note_on_c, 0, 64, 74
2,56670, Note_on_c, 0, 63, 0
2,56727, Control_c, 0, 64, 42
2,56739, Note_on_c, 0, 78, 0
2,56783, Note_on_c, 0, 64, 0
2,56791, Note_on_c, 0, 66, 79
2,56810, Control_c, 0, 64, 41
2,56824, Control_c, 0, 64, 41
2,56840, Control_c, 0, 64, 40
2,56855, Control_c, 0, 64, 38
2,56872, Control_c, 0, 64, 37
2,56887, Control_c, 0, 64, 35
2,56902, Control_c, 0, 64, 34
2,56903, Note_on_c, 0, 67, 74
2,56912, Note_on_c, 0, 76, 88
2,56915, Note_on_c, 0, 66, 0
2,56917, Control_c, 0, 64, 33
2,56955, Note_on_c, 0, 76, 0
2,56963, Control_c, 0, 64, 34
2,56978, Control_c, 0, 64, 34
2,56980, Note_on_c, 0, 67, 0
2,56993, Control_c, 0, 64, 35
2,57008, Control_c, 0, 64, 36
2,57014, Note_on_c, 0, 64, 75
2,57023, Control_c, 0, 64, 36
2,57039, Control_c, 0, 64, 37
2,57053, Control_c, 0, 64, 37
2,57069, Control_c, 0, 64, 38
2,57099, Control_c, 0, 64, 38
2,57130, Control_c, 0, 64, 39
2,57130, Note_on_c, 0, 64, 0
2,57139, Note_on_c, 0, 66, 77
2,57141, Note_on_c, 0, 75, 91
2,57146, Control_c, 0, 64, 39
2,57161, Control_c, 0, 64, 40
2,57176, Control_c, 0, 64, 40
2,57191, Control_c, 0, 64, 41
2,57221, Control_c, 0, 64, 41
2,57221, Note_on_c, 0, 75, 0
2,57237, Note_on_c, 0, 66, 0
2,57249, Note_on_c, 0, 64, 74
2,57267, Control_c, 0, 64, 40
2,57281, Control_c, 0, 64, 40
2,57296, Control_c, 0, 64, 38
2,57312, Control_c, 0, 64, 37
2,57326, Control_c, 0, 64, 36
2,57341, Control_c, 0, 64, 35
2,57357, Control_c, 0, 64, 34
2,57372, Control_c, 0, 64, 34
2,57381, Note_on_c, 0, 84, 97
2,57383, Note_on_c, 0, 64, 0
2,57383, Note_on_c, 0, 66, 74
2,57433, Control_c, 0, 64, 33
2,57463, Control_c, 0, 64, 32
2,57479, Control_c, 0, 64, 32
2,57494, Control_c, 0, 64, 31
2,57496, Note_on_c, 0, 66, 0
2,57504, Note_on_c, 0, 67, 66
2,57517, Control_c, 0, 64, 29
2,57531, Control_c, 0, 64, 28
2,57547, Control_c, 0, 64, 27
2,57562, Control_c, 0, 64, 26
2,57599, Note_on_c, 0, 67, 0
2,57608, Note_on_c, 0, 69, 75
2,57638, Control_c, 0, 64, 27
2,57699, Control_c, 0, 64, 26
2,57718, Note_on_c, 0, 66, 80
2,57718, Note_on_c, 0, 69, 0
2,57730, Control_c, 0, 64, 25
2,57746, Control_c, 0, 64, 24
2,57760, Control_c, 0, 64, 23
2,57775, Control_c, 0, 64, 20
2,57791, Control_c, 0, 64, 18
2,57842, Note_on_c, 0, 83, 86
2,57842, Note_on_c, 0, 84, 0
2,57847, Note_on_c, 0, 67, 82
2,57851, Control_c, 0, 64, 20
2,57851, Note_on_c, 0, 66, 0
2,57867, Control_c, 0, 64, 21
2,57882, Control_c, 0, 64, 23
2,57913, Control_c, 0, 64, 24
2,57916, Note_on_c, 0, 83, 0
2,57926, Note_on_c, 0, 67, 0
2,57928, Control_c, 0, 64, 26
2,57958, Control_c, 0, 64, 27
2,58049, Control_c, 0, 64, 28
2,58080, Control_c, 0, 64, 29
2,58101, Note_on_c, 0, 84, 83
2,58113, Note_on_c, 0, 69, 73
2,58125, Control_c, 0, 64, 29
2,58186, Control_c, 0, 64, 29
2,58212, Note_on_c, 0, 83, 81
2,58214, Note_on_c, 0, 84, 0
2,58215, Control_c, 0, 64, 29
2,58217, Note_on_c, 0, 67, 76
2,58219, Note_on_c, 0, 69, 0
2,58270, Control_c, 0, 64, 30
2,58315, Control_c, 0, 64, 31
2,58339, Note_on_c, 0, 81, 82
2,58343, Note_on_c, 0, 66, 79
2,58343, Note_on_c, 0, 67, 0
2,58361, Control_c, 0, 64, 32
2,58371, Note_on_c, 0, 83, 0
2,58421, Control_c, 0, 64, 31
2,58433, Note_on_c, 0, 81, 0
2,58444, Note_on_c, 0, 79, 83
2,58445, Note_on_c, 0, 66, 0
2,58449, Note_on_c, 0, 64, 75
2,58451, Control_c, 0, 64, 30
2,58549, Note_on_c, 0, 64, 0
2,58577, Note_on_c, 0, 69, 89
2,58581, Note_on_c, 0, 78, 83
2,58582, Note_on_c, 0, 79, 0
2,58604, Control_c, 0, 64, 31
2,58654, Note_on_c, 0, 78, 0
2,58680, Control_c, 0, 64, 32
2,58695, Control_c, 0, 64, 32
2,58711, Control_c, 0, 64, 33
2,58741, Control_c, 0, 64, 34
2,58830, Note_on_c, 0, 81, 79
2,58942, Note_on_c, 0, 81, 0
2,58946, Note_on_c, 0, 79, 81
2,59072, Note_on_c, 0, 78, 84
2,59102, Note_on_c, 0, 79, 0
2,59179, Note_on_c, 0, 76, 82
2,59181, Note_on_c, 0, 78, 0
2,59205, Control_c, 0, 64, 33
2,59300, Note_on_c, 0, 75, 90
2,59311, Control_c, 0, 64, 34
2,59311, Note_on_c, 0, 76, 0
2,59344, Note_on_c, 0, 75, 0
2,59372, Control_c, 0, 64, 34
2,59388, Control_c, 0, 64, 35
2,59396, Note_on_c, 0, 69, 0
2,59417, Note_on_c, 0, 67, 66
2,59463, Control_c, 0, 64, 34
2,59479, Control_c, 0, 64, 34
2,59530, Note_on_c, 0, 67, 0
2,59542, Note_on_c, 0, 81, 89
2,59546, Note_on_c, 0, 66, 69
2,59595, Note_on_c, 0, 81, 0
2,59646, Control_c, 0, 64, 34
2,59655, Note_on_c, 0, 66, 0
2,59660, Control_c, 0, 64, 35
2,59661, Note_on_c, 0, 69, 72
2,59706, Control_c, 0, 64, 34
2,59752, Control_c, 0, 64, 34
2,59780, Note_on_c, 0, 69, 0
2,59783, Note_on_c, 0, 79, 89
2,59787, Note_on_c, 0, 64, 72
2,59805, Control_c, 0, 64, 34
2,59850, Control_c, 0, 64, 35
2,59855, Note_on_c, 0, 79, 0
2,59866, Control_c, 0, 64, 36
2,59867, Note_on_c, 0, 64, 0
2,59881, Control_c, 0, 64, 36
2,59896, Control_c, 0, 64, 37
2,59904, Note_on_c, 0, 69, 77
2,59911, Control_c, 0, 64, 38
2,59926, Control_c, 0, 64, 39
2,60032, Note_on_c, 0, 69, 0
2,60041, Note_on_c, 0, 78, 90
2,60042, Note_on_c, 0, 63, 76
2,60062, Control_c, 0, 64, 39
2,60078, Control_c, 0, 64, 40
2,60093, Control_c, 0, 64, 40
2,60122, Note_on_c, 0, 78, 0
2,60148, Note_on_c, 0, 69, 74
2,60152, Note_on_c, 0, 63, 0
2,60155, Control_c, 0, 64, 40
2,60215, Control_c, 0, 64, 39
2,60283, Note_on_c, 0, 61, 75
2,60284, Note_on_c, 0, 76, 85
2,60285, Note_on_c, 0, 69, 0
2,60353, Control_c, 0, 64, 39
2,60366, Note_on_c, 0, 76, 0
2,60383, Control_c, 0, 64, 38
2,60391, Note_on_c, 0, 69, 77
2,60394, Note_on_c, 0, 61, 0
2,60399, Control_c, 0, 64, 38
2,60429, Control_c, 0, 64, 37
2,60515, Note_on_c, 0, 59, 71
2,60519, Note_on_c, 0, 69, 0
2,60526, Note_on_c, 0, 75, 87
2,60535, Control_c, 0, 64, 38
2,60615, Note_on_c, 0, 75, 0
2,60631, Note_on_c, 0, 59, 0
2,60643, Note_on_c, 0, 69, 82
2,60649, Control_c, 0, 64, 37
2,60664, Control_c, 0, 64, 36
2,60679, Control_c, 0, 64, 35
2,60694, Control_c, 0, 64, 34
2,60710, Control_c, 0, 64, 33
2,60725, Control_c, 0, 64, 32
2,60740, Control_c, 0, 64, 31
2,60743, Note_on_c, 0, 69, 0
2,60755, Control_c, 0, 64, 30
2,60771, Note_on_c, 0, 76, 92
2,60772, Note_on_c, 0, 67, 88
2,60786, Control_c, 0, 64, 29
2,60831, Control_c, 0, 64, 30
2,60841, Note_on_c, 0, 76, 0
2,60846, Control_c, 0, 64, 31
2,60853, Note_on_c, 0, 67, 0
2,60861, Control_c, 0, 64, 32
2,60876, Control_c, 0, 64, 32
2,60891, Control_c, 0, 64, 33
2,61028, Note_on_c, 0, 74, 83
2,61029, Note_on_c, 0, 66, 83
2,61100, Note_on_c, 0, 74, 0
2,61147, Note_on_c, 0, 67, 79
2,61150, Note_on_c, 0, 66, 0
2,61258, Control_c, 0, 64, 34
2,61264, Note_on_c, 0, 72, 89
2,61266, Note_on_c, 0, 69, 86
2,61269, Note_on_c, 0, 67, 0
2,61288, Control_c, 0, 64, 34
2,61303, Control_c, 0, 64, 35
2,61325, Note_on_c, 0, 72, 0
2,61365, Note_on_c, 0, 69, 0
2,61372, Control_c, 0, 64, 34
2,61386, Note_on_c, 0, 67, 84
2,61417, Control_c, 0, 64, 35
2,61507, Note_on_c, 0, 74, 86
2,61515, Note_on_c, 0, 66, 91
2,61520, Note_on_c, 0, 67, 0
2,61569, Control_c, 0, 64, 36
2,61575, Note_on_c, 0, 74, 0
2,61584, Control_c, 0, 64, 36
2,61596, Note_on_c, 0, 66, 0
2,61600, Control_c, 0, 64, 37
2,61615, Control_c, 0, 64, 37
2,61646, Control_c, 0, 64, 38
2,61707, Control_c, 0, 64, 37
2,61757, Note_on_c, 0, 72, 85
2,61762, Note_on_c, 0, 64, 71
2,61799, Control_c, 0, 64, 38
2,61826, Note_on_c, 0, 72, 0
2,61869, Note_on_c, 0, 64, 0
2,61870, Note_on_c, 0, 66, 83
2,61890, Control_c, 0, 64, 38
2,61904, Control_c, 0, 64, 38
2,61991, Note_on_c, 0, 67, 82
2,61993, Note_on_c, 0, 71, 82
2,62003, Note_on_c, 0, 66, 0
2,62023, Control_c, 0, 64, 38
2,62034, Note_on_c, 0, 71, 0
2,62069, Control_c, 0, 64, 39
2,62098, Note_on_c, 0, 67, 0
2,62108, Note_on_c, 0, 66, 90
2,62138, Control_c, 0, 64, 38
2,62227, Note_on_c, 0, 64, 77
2,62227, Note_on_c, 0, 66, 0
2,62237, Note_on_c, 0, 72, 79
2,62244, Control_c, 0, 64, 39
2,62275, Control_c, 0, 64, 39
2,62304, Note_on_c, 0, 64, 0
2,62333, Note_on_c, 0, 72, 0
2,62354, Note_on_c, 0, 84, 81
2,62442, Control_c, 0, 64, 39
2,62473, Control_c, 0, 64, 38
2,62480, Note_on_c, 0, 83, 78
2,62482, Note_on_c, 0, 84, 0
2,62484, Note_on_c, 0, 66, 72
2,62548, Note_on_c, 0, 66, 0
2,62578, Control_c, 0, 64, 39
2,62590, Note_on_c, 0, 81, 79
2,62603, Note_on_c, 0, 83, 0
2,62682, Note_on_c, 0, 81, 0
2,62701, Control_c, 0, 64, 39
2,62717, Control_c, 0, 64, 40
2,62720, Note_on_c, 0, 67, 77
2,62720, Note_on_c, 0, 79, 80
2,62732, Control_c, 0, 64, 41
2,62746, Control_c, 0, 64, 42
2,62762, Control_c, 0, 64, 42
2,62764, Note_on_c, 0, 67, 0
2,62827, Note_on_c, 0, 83, 77
2,62838, Control_c, 0, 64, 43
2,62839, Note_on_c, 0, 79, 0
2,62921, Note_on_c, 0, 83, 0
2,62936, Control_c, 0, 64, 43
2,62951, Control_c, 0, 64, 44
2,62961, Note_on_c, 0, 81, 80
2,62967, Control_c, 0, 64, 44
2,62976, Note_on_c, 0, 72, 82
2,63010, Note_on_c, 0, 72, 0
2,63074, Note_on_c, 0, 83, 77
2,63078, Note_on_c, 0, 81, 0
2,63088, Control_c, 0, 64, 45
2,63103, Control_c, 0, 64, 45
2,63164, Control_c, 0, 64, 45
2,63179, Control_c, 0, 64, 44
2,63206, Note_on_c, 0, 63, 78
2,63214, Note_on_c, 0, 81, 77
2,63235, Note_on_c, 0, 83, 0
2,63240, Control_c, 0, 64, 44
2,63319, Note_on_c, 0, 81, 0
2,63331, Control_c, 0, 64, 43
2,63343, Note_on_c, 0, 79, 67
2,63393, Control_c, 0, 64, 43
2,63408, Control_c, 0, 64, 42
2,63439, Control_c, 0, 64, 41
2,63453, Control_c, 0, 64, 41
2,63461, Note_on_c, 0, 79, 0
2,63468, Control_c, 0, 64, 40
2,63471, Note_on_c, 0, 78, 76
2,63484, Control_c, 0, 64, 39
2,63499, Control_c, 0, 64, 39
2,63515, Control_c, 0, 64, 38
2,63530, Control_c, 0, 64, 38
2,63560, Control_c, 0, 64, 37
2,63566, Note_on_c, 0, 78, 0
2,63575, Control_c, 0, 64, 37
2,63582, Note_on_c, 0, 81, 77
2,63606, Control_c, 0, 64, 36
2,63658, Control_c, 0, 64, 37
2,63676, Note_on_c, 0, 81, 0
2,63677, Note_on_c, 0, 63, 0
2,63689, Control_c, 0, 64, 37
2,63710, Note_on_c, 0, 64, 75
2,63714, Note_on_c, 0, 79, 81
2,63720, Control_c, 0, 64, 38
2,63750, Control_c, 0, 64, 38
2,63761, Note_on_c, 0, 64, 0
2,63796, Control_c, 0, 64, 39
2,63827, Note_on_c, 0, 79, 0
2,63829, Note_on_c, 0, 81, 84
2,63842, Control_c, 0, 64, 39
2,63936, Note_on_c, 0, 81, 0
2,63943, Note_on_c, 0, 79, 75
2,63950, Note_on_c, 0, 66, 84
2,64015, Note_on_c, 0, 66, 0
2,64039, Control_c, 0, 64, 40
2,64056, Note_on_c, 0, 79, 0
2,64061, Note_on_c, 0, 78, 78
2,64160, Control_c, 0, 64, 40
2,64166, Note_on_c, 0, 78, 0
2,64175, Control_c, 0, 64, 41
2,64180, Note_on_c, 0, 76, 71
2,64187, Note_on_c, 0, 67, 88
2,64190, Control_c, 0, 64, 41
2,64206, Control_c, 0, 64, 42
2,64221, Control_c, 0, 64, 42
2,64245, Note_on_c, 0, 67, 0
2,64252, Control_c, 0, 64, 43
2,64267, Control_c, 0, 64, 43
2,64282, Control_c, 0, 64, 44
2,64292, Note_on_c, 0, 79, 76
2,64297, Control_c, 0, 64, 45
2,64299, Note_on_c, 0, 76, 0
2,64313, Control_c, 0, 64, 46
2,64328, Control_c, 0, 64, 47
2,64359, Control_c, 0, 64, 47
2,64405, Control_c, 0, 64, 48
2,64426, Control_c, 0, 64, 48
2,64429, Note_on_c, 0, 69, 86
2,64430, Note_on_c, 0, 78, 74
2,64443, Note_on_c, 0, 79, 0
2,64471, Note_on_c, 0, 69, 0
2,64537, Note_on_c, 0, 78, 0
2,64539, Note_on_c, 0, 79, 71
2,64548, Control_c, 0, 64, 49
2,64624, Control_c, 0, 64, 48
2,64658, Note_on_c, 0, 78, 74
2,64661, Note_on_c, 0, 79, 0
2,64674, Note_on_c, 0, 59, 83
2,64745, Control_c, 0, 64, 47
2,64761, Control_c, 0, 64, 47
2,64764, Note_on_c, 0, 78, 0
2,64776, Control_c, 0, 64, 46
2,64780, Note_on_c, 0, 76, 68
2,64791, Control_c, 0, 64, 46
2,64821, Control_c, 0, 64, 45
2,64897, Control_c, 0, 64, 45
2,64899, Note_on_c, 0, 76, 0
2,64908, Note_on_c, 0, 75, 72
2,64928, Control_c, 0, 64, 44
2,64958, Control_c, 0, 64, 44
2,64973, Control_c, 0, 64, 43
2,65020, Note_on_c, 0, 78, 82
2,65032, Note_on_c, 0, 75, 0
2,65065, Control_c, 0, 64, 44
2,65135, Note_on_c, 0, 78, 0
2,65141, Note_on_c, 0, 76, 86
2,65145, Note_on_c, 0, 59, 0
2,65157, Note_on_c, 0, 60, 72
2,65172, Control_c, 0, 64, 43
2,65251, Note_on_c, 0, 60, 0
2,65266, Note_on_c, 0, 59, 73
2,65301, Control_c, 0, 64, 44
2,65362, Control_c, 0, 64, 44
2,65369, Note_on_c, 0, 59, 0
2,65387, Note_on_c, 0, 57, 66
2,65391, Note_on_c, 0, 78, 83
2,65407, Note_on_c, 0, 76, 0
2,65493, Note_on_c, 0, 59, 67
2,65496, Note_on_c, 0, 57, 0
2,65497, Note_on_c, 0, 78, 0
2,65510, Note_on_c, 0, 79, 88
2,65530, Control_c, 0, 64, 44
2,65560, Control_c, 0, 64, 43
2,65575, Control_c, 0, 64, 43
2,65595, Note_on_c, 0, 79, 0
2,65605, Control_c, 0, 64, 42
2,65618, Note_on_c, 0, 59, 0
2,65621, Note_on_c, 0, 60, 72
2,65627, Note_on_c, 0, 81, 89
2,65738, Note_on_c, 0, 60, 0
2,65742, Note_on_c, 0, 62, 73
2,65757, Control_c, 0, 64, 43
2,65772, Control_c, 0, 64, 43
2,65802, Control_c, 0, 64, 44
2,65835, Note_on_c, 0, 62, 0
2,65849, Note_on_c, 0, 64, 67
2,65880, Control_c, 0, 64, 44
2,65894, Control_c, 0, 64, 45
2,65909, Control_c, 0, 64, 45
2,65961, Note_on_c, 0, 64, 0
2,65964, Note_on_c, 0, 63, 74
2,66039, Control_c, 0, 64, 46
2,66046, Note_on_c, 0, 81, 0
2,66054, Control_c, 0, 64, 46
2,66069, Control_c, 0, 64, 47
2,66083, Note_on_c, 0, 63, 0
2,66085, Note_on_c, 0, 64, 70
2,66092, Note_on_c, 0, 79, 86
2,66130, Control_c, 0, 64, 47
2,66177, Note_on_c, 0, 64, 0
2,66177, Note_on_c, 0, 79, 0
2,66190, Control_c, 0, 64, 48
2,66192, Note_on_c, 0, 81, 85
2,66202, Note_on_c, 0, 66, 75
2,66221, Control_c, 0, 64, 48
2,66282, Control_c, 0, 64, 49
2,66297, Control_c, 0, 64, 50
2,66306, Note_on_c, 0, 66, 0
2,66309, Note_on_c, 0, 67, 74
2,66310, Note_on_c, 0, 83, 90
2,66312, Control_c, 0, 64, 50
2,66312, Note_on_c, 0, 81, 0
2,66328, Control_c, 0, 64, 51
2,66342, Control_c, 0, 64, 52
2,66373, Control_c, 0, 64, 52
2,66401, Note_on_c, 0, 67, 0
2,66407, Note_on_c, 0, 69, 80
2,66419, Control_c, 0, 64, 53
2,66428, Note_on_c, 0, 69, 0
2,66509, Control_c, 0, 64, 52
2,66538, Note_on_c, 0, 71, 87
2,66570, Control_c, 0, 64, 52
2,66585, Control_c, 0, 64, 51
2,66600, Note_on_c, 0, 83, 0
2,66601, Control_c, 0, 64, 51
2,66616, Control_c, 0, 64, 49
2,66630, Control_c, 0, 64, 49
2,66646, Control_c, 0, 64, 48
2,66654, Note_on_c, 0, 47, 62
2,66661, Control_c, 0, 64, 47
2,66716, Control_c, 0, 64, 47
2,66731, Control_c, 0, 64, 46
2,66731, Note_on_c, 0, 49, 69
2,66734, Note_on_c, 0, 47, 0
2,66762, Control_c, 0, 64, 45
2,66777, Control_c, 0, 64, 44
2,66787, Note_on_c, 0, 81, 94
2,66792, Control_c, 0, 64, 43
2,66802, Note_on_c, 0, 49, 0
2,66806, Note_on_c, 0, 51, 67
2,66808, Control_c, 0, 64, 42
2,66838, Control_c, 0, 64, 42
2,66871, Note_on_c, 0, 81, 0
2,66883, Control_c, 0, 64, 42
2,66892, Note_on_c, 0, 51, 0
2,66896, Note_on_c, 0, 47, 67
2,66898, Control_c, 0, 64, 43
2,66914, Control_c, 0, 64, 43
2,67003, Note_on_c, 0, 47, 0
2,67004, Control_c, 0, 64, 44
2,67012, Note_on_c, 0, 52, 72
2,67018, Note_on_c, 0, 79, 89
2,67019, Control_c, 0, 64, 44
2,67050, Control_c, 0, 64, 45
2,67080, Control_c, 0, 64, 46
2,67081, Note_on_c, 0, 52, 0
2,67090, Note_on_c, 0, 71, 0
2,67095, Control_c, 0, 64, 47
2,67110, Control_c, 0, 64, 47
2,67123, Note_on_c, 0, 47, 68
2,67123, Note_on_c, 0, 79, 0
2,67126, Control_c, 0, 64, 49
2,67141, Control_c, 0, 64, 50
2,67156, Control_c, 0, 64, 52
2,67171, Control_c, 0, 64, 53
2,67186, Control_c, 0, 64, 54
2,67237, Note_on_c, 0, 47, 0
2,67241, Note_on_c, 0, 54, 64
2,67252, Note_on_c, 0, 78, 89
2,67278, Control_c, 0, 64, 53
2,67293, Control_c, 0, 64, 51
2,67308, Control_c, 0, 64, 45
2,67318, Note_on_c, 0, 78, 0
2,67324, Control_c, 0, 64, 32
2,67339, Control_c, 0, 64, 0
2,67348, Note_on_c, 0, 54, 0
2,67361, Note_on_c, 0, 47, 67
2,67368, Note_on_c, 0, 79, 91
2,67384, Control_c, 0, 64, 15
2,67400, Control_c, 0, 64, 42
2,67414, Control_c, 0, 64, 53
2,67429, Control_c, 0, 64, 58
2,67442, Note_on_c, 0, 79, 0
2,67445, Control_c, 0, 64, 61
2,67460, Control_c, 0, 64, 62
2,67483, Control_c, 0, 64, 64
2,67483, Note_on_c, 0, 47, 0
2,67490, Note_on_c, 0, 81, 84
2,67493, Note_on_c, 0, 72, 73
2,67496, Note_on_c, 0, 55, 62
2,67498, Control_c, 0, 64, 64
2,67514, Control_c, 0, 64, 65
2,67520, Note_on_c, 0, 72, 0
2,67544, Control_c, 0, 64, 64
2,67545, Note_on_c, 0, 81, 0
2,67560, Control_c, 0, 64, 64
2,67575, Control_c, 0, 64, 62
2,67577, Note_on_c, 0, 55, 0
2,67590, Control_c, 0, 64, 61
2,67605, Note_on_c, 0, 47, 70
2,67606, Control_c, 0, 64, 58
2,67620, Control_c, 0, 64, 55
2,67636, Control_c, 0, 64, 52
2,67651, Control_c, 0, 64, 47
2,67666, Control_c, 0, 64, 40
2,67682, Control_c, 0, 64, 32
2,67697, Control_c, 0, 64, 20
2,67702, Note_on_c, 0, 47, 0
2,67711, Control_c, 0, 64, 0
2,67719, Note_on_c, 0, 57, 68
2,67722, Note_on_c, 0, 75, 80
2,67774, Note_on_c, 0, 66, 44
2,67824, Note_on_c, 0, 57, 0
2,67827, Note_on_c, 0, 47, 66
2,67871, Note_on_c, 0, 66, 0
2,67875, Note_on_c, 0, 75, 0
2,67917, Note_on_c, 0, 47, 0
2,67939, Control_c, 0, 64, 15
2,67947, Note_on_c, 0, 55, 60
2,67952, Note_on_c, 0, 76, 80
2,67955, Control_c, 0, 64, 20
2,67962, Note_on_c, 0, 64, 68
2,67970, Control_c, 0, 64, 24
2,67985, Control_c, 0, 64, 29
2,67998, Note_on_c, 0, 64, 0
2,68000, Control_c, 0, 64, 32
2,68015, Control_c, 0, 64, 34
2,68030, Control_c, 0, 64, 35
2,68037, Note_on_c, 0, 55, 0
2,68046, Control_c, 0, 64, 36
2,68049, Note_on_c, 0, 54, 63
2,68061, Control_c, 0, 64, 38
2,68061, Note_on_c, 0, 66, 82
2,68077, Control_c, 0, 64, 40
2,68092, Control_c, 0, 64, 42
2,68106, Control_c, 0, 64, 44
2,68122, Control_c, 0, 64, 45
2,68137, Control_c, 0, 64, 46
2,68149, Note_on_c, 0, 54, 0
2,68152, Control_c, 0, 64, 47
2,68168, Control_c, 0, 64, 48
2,68175, Note_on_c, 0, 52, 56
2,68177, Note_on_c, 0, 76, 0
2,68183, Control_c, 0, 64, 48
2,68187, Note_on_c, 0, 66, 0
2,68194, Note_on_c, 0, 67, 75
2,68256, Note_on_c, 0, 52, 0
2,68265, Control_c, 0, 64, 49
2,68296, Note_on_c, 0, 55, 60
2,68388, Control_c, 0, 64, 48
2,68407, Note_on_c, 0, 55, 0
2,68419, Control_c, 0, 64, 48
2,68425, Note_on_c, 0, 50, 57
2,68434, Control_c, 0, 64, 47
2,68446, Note_on_c, 0, 71, 70
2,68449, Control_c, 0, 64, 47
2,68464, Control_c, 0, 64, 46
2,68480, Control_c, 0, 64, 44
2,68510, Control_c, 0, 64, 44
2,68514, Note_on_c, 0, 50, 0
2,68526, Control_c, 0, 64, 43
2,68528, Note_on_c, 0, 71, 0
2,68535, Note_on_c, 0, 55, 60
2,68541, Control_c, 0, 64, 43
2,68556, Control_c, 0, 64, 42
2,68571, Control_c, 0, 64, 42
2,68602, Control_c, 0, 64, 41
2,68631, Control_c, 0, 64, 41
2,68652, Note_on_c, 0, 55, 0
2,68666, Note_on_c, 0, 69, 72
2,68668, Note_on_c, 0, 49, 56
2,68676, Note_on_c, 0, 67, 0
2,68764, Note_on_c, 0, 49, 0
2,68768, Control_c, 0, 64, 40
2,68783, Note_on_c, 0, 55, 62
2,68786, Note_on_c, 0, 66, 64
2,68799, Control_c, 0, 64, 40
2,68813, Control_c, 0, 64, 39
2,68828, Control_c, 0, 64, 39
2,68859, Control_c, 0, 64, 38
2,68875, Control_c, 0, 64, 38
2,68898, Note_on_c, 0, 55, 0
2,68901, Note_on_c, 0, 64, 66
2,68902, Note_on_c, 0, 66, 0
2,68904, Control_c, 0, 64, 37
2,68919, Note_on_c, 0, 47, 54
2,68920, Control_c, 0, 64, 37
2,68997, Note_on_c, 0, 64, 0
2,69000, Note_on_c, 0, 47, 0
2,69013, Note_on_c, 0, 62, 65
2,69034, Note_on_c, 0, 55, 63
2,69064, Control_c, 0, 64, 37
2,69144, Note_on_c, 0, 62, 0
2,69149, Note_on_c, 0, 55, 0
2,69149, Note_on_c, 0, 61, 72
2,69157, Note_on_c, 0, 45, 62
2,69172, Control_c, 0, 64, 38
2,69187, Control_c, 0, 64, 38
2,69202, Control_c, 0, 64, 39
2,69217, Control_c, 0, 64, 41
2,69232, Control_c, 0, 64, 42
2,69248, Control_c, 0, 64, 43
2,69250, Note_on_c, 0, 45, 0
2,69256, Note_on_c, 0, 61, 0
2,69261, Note_on_c, 0, 64, 77
2,69263, Control_c, 0, 64, 44
2,69268, Note_on_c, 0, 69, 0
2,69278, Control_c, 0, 64, 45
2,69278, Note_on_c, 0, 55, 59
2,69293, Control_c, 0, 64, 45
2,69324, Control_c, 0, 64, 46
2,69339, Control_c, 0, 64, 46
2,69366, Note_on_c, 0, 64, 0
2,69368, Note_on_c, 0, 55, 0
2,69370, Control_c, 0, 64, 47
2,69375, Note_on_c, 0, 62, 83
2,69376, Note_on_c, 0, 54, 66
2,69400, Control_c, 0, 64, 47
2,69415, Control_c, 0, 64, 48
2,69488, Note_on_c, 0, 54, 0
2,69488, Note_on_c, 0, 64, 79
2,69495, Note_on_c, 0, 52, 70
2,69503, Note_on_c, 0, 62, 0
2,69506, Control_c, 0, 64, 49
2,69567, Control_c, 0, 64, 49
2,69582, Control_c, 0, 64, 50
2,69590, Note_on_c, 0, 52, 0
2,69598, Control_c, 0, 64, 51
2,69610, Note_on_c, 0, 50, 65
2,69612, Control_c, 0, 64, 51
2,69623, Note_on_c, 0, 66, 70
2,69625, Note_on_c, 0, 64, 0
2,69627, Control_c, 0, 64, 52
2,69643, Control_c, 0, 64, 53
2,69685, Note_on_c, 0, 50, 0
2,69703, Control_c, 0, 64, 53
2,69732, Note_on_c, 0, 54, 62
2,69748, Control_c, 0, 64, 53
2,69817, Control_c, 0, 64, 52
2,69832, Control_c, 0, 64, 52
2,69854, Note_on_c, 0, 54, 0
2,69863, Control_c, 0, 64, 51
2,69867, Note_on_c, 0, 69, 72
2,69874, Note_on_c, 0, 49, 58
2,69878, Control_c, 0, 64, 50
2,69893, Control_c, 0, 64, 50
2,69908, Control_c, 0, 64, 49
2,69924, Control_c, 0, 64, 48
2,69939, Control_c, 0, 64, 47
2,69954, Control_c, 0, 64, 46
2,69963, Note_on_c, 0, 49, 0
2,69970, Control_c, 0, 64, 46
2,69972, Note_on_c, 0, 54, 60
2,69985, Control_c, 0, 64, 45
2,69987, Note_on_c, 0, 69, 0
2,70001, Control_c, 0, 64, 45
2,70011, Note_on_c, 0, 66, 0
2,70031, Control_c, 0, 64, 44
2,70088, Note_on_c, 0, 54, 0
2,70092, Control_c, 0, 64, 44
2,70095, Note_on_c, 0, 67, 69
2,70106, Control_c, 0, 64, 43
2,70108, Note_on_c, 0, 47, 58
2,70122, Control_c, 0, 64, 43
2,70137, Control_c, 0, 64, 42
2,70189, Note_on_c, 0, 47, 0
2,70219, Note_on_c, 0, 54, 54
2,70220, Note_on_c, 0, 64, 63
2,70244, Control_c, 0, 64, 42
2,70259, Control_c, 0, 64, 41
2,70306, Note_on_c, 0, 64, 0
2,70320, Control_c, 0, 64, 42
2,70327, Note_on_c, 0, 62, 65
2,70335, Note_on_c, 0, 54, 0
2,70336, Note_on_c, 0, 45, 54
2,70403, Note_on_c, 0, 62, 0
2,70418, Note_on_c, 0, 45, 0
2,70445, Note_on_c, 0, 61, 66
2,70458, Note_on_c, 0, 54, 57
2,70516, Control_c, 0, 64, 42
2,70556, Control_c, 0, 64, 43
2,70567, Note_on_c, 0, 54, 0
2,70569, Note_on_c, 0, 59, 74
2,70571, Control_c, 0, 64, 44
2,70573, Note_on_c, 0, 61, 0
2,70580, Note_on_c, 0, 43, 63
2,70585, Control_c, 0, 64, 44
2,70616, Control_c, 0, 64, 45
2,70632, Control_c, 0, 64, 46
2,70647, Control_c, 0, 64, 47
2,70661, Control_c, 0, 64, 48
2,70662, Note_on_c, 0, 43, 0
2,70677, Control_c, 0, 64, 48
2,70686, Note_on_c, 0, 54, 62
2,70690, Note_on_c, 0, 59, 0
2,70690, Note_on_c, 0, 62, 74
2,70692, Control_c, 0, 64, 49
2,70723, Control_c, 0, 64, 49
2,70729, Note_on_c, 0, 54, 0
2,70738, Control_c, 0, 64, 50
2,70803, Note_on_c, 0, 52, 63
2,70813, Note_on_c, 0, 61, 76
2,70824, Note_on_c, 0, 62, 0
2,70830, Control_c, 0, 64, 49
2,70881, Note_on_c, 0, 67, 0
2,70910, Note_on_c, 0, 52, 0
2,70922, Control_c, 0, 64, 50
2,70922, Note_on_c, 0, 62, 78
2,70925, Note_on_c, 0, 61, 0
2,70926, Note_on_c, 0, 50, 65
2,70952, Control_c, 0, 64, 49
2,70967, Control_c, 0, 64, 49
2,71022, Note_on_c, 0, 50, 0
2,71035, Note_on_c, 0, 62, 0
2,71043, Note_on_c, 0, 64, 71
2,71048, Note_on_c, 0, 49, 61
2,71142, Note_on_c, 0, 49, 0
2,71166, Note_on_c, 0, 52, 63
2,71256, Control_c, 0, 64, 49
2,71270, Note_on_c, 0, 52, 0
2,71270, Note_on_c, 0, 67, 72
2,71286, Control_c, 0, 64, 50
2,71286, Note_on_c, 0, 47, 59
2,71325, Control_c, 0, 64, 50
2,71349, Note_on_c, 0, 67, 0
2,71360, Note_on_c, 0, 64, 0
2,71365, Note_on_c, 0, 47, 0
2,71385, Control_c, 0, 64, 51
2,71398, Note_on_c, 0, 52, 64
2,71416, Control_c, 0, 64, 51
2,71446, Control_c, 0, 64, 52
2,71505, Note_on_c, 0, 66, 69
2,71509, Note_on_c, 0, 52, 0
2,71522, Control_c, 0, 64, 51
2,71536, Note_on_c, 0, 46, 59
2,71552, Control_c, 0, 64, 51
2,71614, Control_c, 0, 64, 50
2,71634, Note_on_c, 0, 46, 0
2,71637, Note_on_c, 0, 62, 64
2,71642, Note_on_c, 0, 52, 60
2,71690, Control_c, 0, 64, 51
2,71720, Note_on_c, 0, 62, 0
2,71737, Note_on_c, 0, 52, 0
2,71750, Note_on_c, 0, 61, 63
2,71754, Note_on_c, 0, 44, 55
2,71827, Control_c, 0, 64, 51
2,71836, Note_on_c, 0, 44, 0
2,71848, Note_on_c, 0, 61, 0
2,71863, Note_on_c, 0, 59, 60
2,71868, Note_on_c, 0, 52, 62
2,71903, Control_c, 0, 64, 52
2,71916, Note_on_c, 0, 66, 0
2,71933, Control_c, 0, 64, 52
2,71949, Control_c, 0, 64, 53
2,71964, Control_c, 0, 64, 54
2,71973, Note_on_c, 0, 52, 0
2,71976, Note_on_c, 0, 59, 0
2,71979, Control_c, 0, 64, 54
2,71982, Note_on_c, 0, 42, 49
2,71982, Note_on_c, 0, 58, 68
2,71994, Control_c, 0, 64, 55
2,72009, Control_c, 0, 64, 56
2,72024, Control_c, 0, 64, 56
2,72040, Control_c, 0, 64, 57
2,72055, Control_c, 0, 64, 57
2,72070, Control_c, 0, 64, 58
2,72071, Note_on_c, 0, 42, 0
2,72093, Control_c, 0, 64, 58
2,72104, Note_on_c, 0, 61, 65
2,72108, Control_c, 0, 64, 59
2,72108, Note_on_c, 0, 52, 58
2,72111, Note_on_c, 0, 58, 0
2,72123, Control_c, 0, 64, 60
2,72138, Control_c, 0, 64, 60
2,72169, Control_c, 0, 64, 61
2,72184, Control_c, 0, 64, 61
2,72202, Note_on_c, 0, 61, 0
2,72205, Note_on_c, 0, 52, 0
2,72217, Note_on_c, 0, 59, 57
2,72234, Note_on_c, 0, 50, 53
2,72245, Control_c, 0, 64, 62
2,72249, Note_on_c, 0, 59, 0
2,72275, Control_c, 0, 64, 61
2,72290, Control_c, 0, 64, 61
2,72305, Control_c, 0, 64, 60
2,72320, Control_c, 0, 64, 59
2,72335, Control_c, 0, 64, 58
2,72336, Note_on_c, 0, 50, 0
2,72340, Note_on_c, 0, 54, 63
2,72350, Note_on_c, 0, 71, 66
2,72366, Control_c, 0, 64, 58
2,72381, Control_c, 0, 64, 57
2,72411, Control_c, 0, 64, 57
2,72428, Control_c, 0, 64, 56
2,72444, Note_on_c, 0, 71, 0
2,72445, Note_on_c, 0, 54, 0
2,72451, Note_on_c, 0, 52, 64
2,72458, Control_c, 0, 64, 56
2,72464, Note_on_c, 0, 73, 67
2,72534, Control_c, 0, 64, 55
2,72556, Note_on_c, 0, 52, 0
2,72564, Control_c, 0, 64, 55
2,72566, Note_on_c, 0, 73, 0
2,72575, Note_on_c, 0, 71, 70
2,72581, Note_on_c, 0, 50, 58
2,72686, Note_on_c, 0, 50, 0
2,72698, Note_on_c, 0, 71, 0
2,72701, Note_on_c, 0, 49, 63
2,72705, Note_on_c, 0, 70, 71
2,72810, Note_on_c, 0, 70, 0
2,72813, Note_on_c, 0, 49, 0
2,72814, Note_on_c, 0, 71, 77
2,72820, Note_on_c, 0, 47, 63
2,72930, Note_on_c, 0, 47, 0
2,72935, Note_on_c, 0, 71, 0
2,72937, Note_on_c, 0, 73, 79
2,72942, Note_on_c, 0, 46, 61
2,72952, Control_c, 0, 64, 55
2,73024, Note_on_c, 0, 73, 0
2,73053, Note_on_c, 0, 46, 0
2,73056, Note_on_c, 0, 49, 71
2,73119, Control_c, 0, 64, 55
2,73150, Control_c, 0, 64, 54
2,73174, Note_on_c, 0, 49, 0
2,73179, Control_c, 0, 64, 54
2,73181, Note_on_c, 0, 47, 77
2,73182, Note_on_c, 0, 74, 79
2,73195, Control_c, 0, 64, 53
2,73210, Control_c, 0, 64, 52
2,73225, Control_c, 0, 64, 51
2,73242, Control_c, 0, 64, 50
2,73257, Control_c, 0, 64, 48
2,73272, Control_c, 0, 64, 46
2,73287, Control_c, 0, 64, 43
2,73291, Note_on_c, 0, 73, 80
2,73292, Note_on_c, 0, 47, 0
2,73293, Note_on_c, 0, 46, 75
2,73302, Control_c, 0, 64, 40
2,73316, Control_c, 0, 64, 36
2,73330, Note_on_c, 0, 74, 0
2,73331, Control_c, 0, 64, 32
2,73345, Control_c, 0, 64, 29
2,73361, Control_c, 0, 64, 24
2,73376, Control_c, 0, 64, 15
2,73390, Control_c, 0, 64, 0
2,73407, Note_on_c, 0, 71, 80
2,73408, Note_on_c, 0, 44, 78
2,73408, Note_on_c, 0, 46, 0
2,73412, Note_on_c, 0, 73, 0
2,73519, Note_on_c, 0, 42, 72
2,73520, Note_on_c, 0, 73, 83
2,73523, Note_on_c, 0, 71, 0
2,73528, Note_on_c, 0, 44, 0
2,73631, Note_on_c, 0, 73, 0
2,73649, Note_on_c, 0, 42, 0
2,73649, Note_on_c, 0, 74, 86
2,73650, Note_on_c, 0, 47, 87
2,73714, Note_on_c, 0, 47, 0
2,73714, Note_on_c, 0, 74, 0
2,73732, Control_c, 0, 64, 10
2,73747, Control_c, 0, 64, 15
2,73763, Control_c, 0, 64, 18
2,73778, Control_c, 0, 64, 21
2,73794, Control_c, 0, 64, 23
2,73840, Control_c, 0, 64, 21
2,73855, Control_c, 0, 64, 20
2,73885, Control_c, 0, 64, 18
2,73909, Note_on_c, 0, 73, 87
2,73924, Note_on_c, 0, 49, 79
2,73983, Note_on_c, 0, 73, 0
2,74007, Control_c, 0, 64, 20
2,74031, Note_on_c, 0, 47, 81
2,74035, Note_on_c, 0, 49, 0
2,74037, Control_c, 0, 64, 21
2,74099, Control_c, 0, 64, 20
2,74129, Control_c, 0, 64, 18
2,74142, Note_on_c, 0, 47, 0
2,74156, Note_on_c, 0, 46, 77
2,74158, Note_on_c, 0, 71, 85
2,74159, Control_c, 0, 64, 20
2,74175, Control_c, 0, 64, 21
2,74190, Control_c, 0, 64, 24
2,74206, Control_c, 0, 64, 26
2,74212, Note_on_c, 0, 71, 0
2,74221, Control_c, 0, 64, 27
2,74236, Control_c, 0, 64, 28
2,74251, Control_c, 0, 64, 29
2,74252, Note_on_c, 0, 46, 0
2,74264, Note_on_c, 0, 47, 76
2,74266, Control_c, 0, 64, 32
2,74282, Control_c, 0, 64, 35
2,74297, Control_c, 0, 64, 38
2,74311, Control_c, 0, 64, 40
2,74327, Control_c, 0, 64, 40
2,74359, Note_on_c, 0, 47, 0
2,74410, Note_on_c, 0, 49, 56
2,74411, Control_c, 0, 64, 41
2,74420, Note_on_c, 0, 70, 88
2,74442, Control_c, 0, 64, 41
2,74456, Control_c, 0, 64, 42
2,74487, Control_c, 0, 64, 41
2,74499, Note_on_c, 0, 49, 0
2,74502, Control_c, 0, 64, 41
2,74505, Note_on_c, 0, 70, 0
2,74518, Control_c, 0, 64, 40
2,74532, Control_c, 0, 64, 40
2,74547, Control_c, 0, 64, 39
2,74577, Control_c, 0, 64, 39
2,74592, Control_c, 0, 64, 38
2,74608, Control_c, 0, 64, 38
2,74623, Control_c, 0, 64, 37
2,74639, Control_c, 0, 64, 36
2,74653, Control_c, 0, 64, 35
2,74656, Note_on_c, 0, 50, 64
2,74664, Note_on_c, 0, 79, 87
2,74668, Control_c, 0, 64, 34
2,74715, Control_c, 0, 64, 34
2,74744, Control_c, 0, 64, 33
2,74760, Control_c, 0, 64, 32
2,74768, Note_on_c, 0, 50, 0
2,74779, Note_on_c, 0, 49, 65
2,74790, Control_c, 0, 64, 31
2,74806, Control_c, 0, 64, 30
2,74820, Control_c, 0, 64, 29
2,74894, Note_on_c, 0, 49, 0
2,74902, Note_on_c, 0, 47, 76
2,74943, Control_c, 0, 64, 30
2,75003, Control_c, 0, 64, 29
2,75012, Note_on_c, 0, 47, 0
2,75015, Note_on_c, 0, 49, 79
2,75018, Control_c, 0, 64, 28
2,75034, Control_c, 0, 64, 25
2,75049, Control_c, 0, 64, 21
2,75064, Control_c, 0, 64, 18
2,75079, Control_c, 0, 64, 15
2,75094, Control_c, 0, 64, 13
2,75109, Control_c, 0, 64, 10
2,75125, Note_on_c, 0, 79, 0
2,75131, Note_on_c, 0, 78, 85
2,75143, Note_on_c, 0, 50, 80
2,75146, Note_on_c, 0, 49, 0
2,75178, Control_c, 0, 64, 13
2,75194, Control_c, 0, 64, 15
2,75207, Note_on_c, 0, 50, 0
2,75209, Control_c, 0, 64, 17
2,75221, Note_on_c, 0, 78, 0
2,75375, Control_c, 0, 64, 18
2,75406, Control_c, 0, 64, 20
2,75413, Note_on_c, 0, 49, 77
2,75413, Note_on_c, 0, 79, 76
2,75436, Control_c, 0, 64, 21
2,75481, Note_on_c, 0, 49, 0
2,75521, Note_on_c, 0, 78, 82
2,75527, Control_c, 0, 64, 23
2,75561, Note_on_c, 0, 79, 0
2,75651, Note_on_c, 0, 76, 76
2,75662, Note_on_c, 0, 47, 81
2,75664, Control_c, 0, 64, 24
2,75695, Control_c, 0, 64, 25
2,75701, Note_on_c, 0, 78, 0
2,75710, Control_c, 0, 64, 26
2,75740, Note_on_c, 0, 47, 0
2,75754, Note_on_c, 0, 76, 0
2,75757, Control_c, 0, 64, 27
2,75762, Note_on_c, 0, 74, 73
2,75772, Control_c, 0, 64, 28
2,75786, Control_c, 0, 64, 29
2,75802, Control_c, 0, 64, 29
2,75832, Control_c, 0, 64, 30
2,75866, Note_on_c, 0, 74, 0
2,75888, Note_on_c, 0, 73, 82
2,75893, Control_c, 0, 64, 32
2,75897, Note_on_c, 0, 46, 83
2,75908, Control_c, 0, 64, 33
2,75924, Control_c, 0, 64, 35
2,75945, Control_c, 0, 64, 36
2,75960, Note_on_c, 0, 46, 0
2,75961, Control_c, 0, 64, 37
2,75982, Note_on_c, 0, 73, 0
2,76038, Control_c, 0, 64, 38
2,76053, Control_c, 0, 64, 38
2,76067, Control_c, 0, 64, 39
2,76114, Control_c, 0, 64, 39
2,76129, Control_c, 0, 64, 40
2,76143, Control_c, 0, 64, 41
2,76159, Control_c, 0, 64, 42
2,76168, Note_on_c, 0, 76, 79
2,76174, Control_c, 0, 64, 43
2,76174, Note_on_c, 0, 55, 86
2,76188, Control_c, 0, 64, 44
2,76204, Control_c, 0, 64, 45
2,76219, Control_c, 0, 64, 45
2,76250, Control_c, 0, 64, 45
2,76280, Control_c, 0, 64, 44
2,76296, Note_on_c, 0, 74, 70
2,76297, Note_on_c, 0, 76, 0
2,76310, Control_c, 0, 64, 44
2,76326, Control_c, 0, 64, 43
2,76340, Control_c, 0, 64, 42
2,76356, Control_c, 0, 64, 42
2,76371, Control_c, 0, 64, 41
2,76386, Control_c, 0, 64, 40
2,76402, Control_c, 0, 64, 39
2,76415, Note_on_c, 0, 74, 0
2,76417, Control_c, 0, 64, 38
2,76420, Note_on_c, 0, 73, 73
2,76431, Control_c, 0, 64, 38
2,76447, Control_c, 0, 64, 36
2,76462, Control_c, 0, 64, 36
2,76478, Control_c, 0, 64, 34
2,76493, Control_c, 0, 64, 33
2,76508, Control_c, 0, 64, 32
2,76524, Control_c, 0, 64, 32
2,76529, Note_on_c, 0, 73, 0
2,76537, Note_on_c, 0, 71, 65
2,76539, Control_c, 0, 64, 31
2,76584, Control_c, 0, 64, 30
2,76653, Note_on_c, 0, 71, 0
2,76658, Note_on_c, 0, 70, 71
2,76661, Control_c, 0, 64, 29
2,76666, Note_on_c, 0, 55, 0
2,76670, Note_on_c, 0, 54, 60
2,76770, Note_on_c, 0, 70, 0
2,76781, Note_on_c, 0, 71, 68
2,76784, Note_on_c, 0, 54, 0
2,76792, Note_on_c, 0, 56, 58
2,76836, Control_c, 0, 64, 29
2,76882, Control_c, 0, 64, 29
2,76901, Note_on_c, 0, 73, 79
2,76907, Note_on_c, 0, 56, 0
2,76907, Note_on_c, 0, 71, 0
2,76911, Note_on_c, 0, 58, 61
2,76927, Control_c, 0, 64, 30
2,77017, Note_on_c, 0, 70, 72
2,77022, Note_on_c, 0, 73, 0
2,77029, Note_on_c, 0, 54, 53
2,77032, Control_c, 0, 64, 31
2,77037, Note_on_c, 0, 58, 0
2,77095, Note_on_c, 0, 70, 0
2,77141, Note_on_c, 0, 74, 73
2,77149, Note_on_c, 0, 54, 0
2,77150, Note_on_c, 0, 59, 55
2,77155, Control_c, 0, 64, 32
2,77218, Note_on_c, 0, 59, 0
2,77229, Control_c, 0, 64, 32
2,77262, Note_on_c, 0, 70, 58
2,77277, Note_on_c, 0, 54, 58
2,77283, Note_on_c, 0, 74, 0
2,77291, Control_c, 0, 64, 33
2,77351, Note_on_c, 0, 70, 0
2,77385, Note_on_c, 0, 54, 0
2,77398, Note_on_c, 0, 76, 78
2,77404, Note_on_c, 0, 61, 61
2,77413, Control_c, 0, 64, 34
2,77494, Note_on_c, 0, 61, 0
2,77504, Note_on_c, 0, 76, 0
2,77524, Note_on_c, 0, 54, 62
2,77533, Note_on_c, 0, 70, 66
2,77619, Control_c, 0, 64, 34
2,77634, Control_c, 0, 64, 35
2,77640, Note_on_c, 0, 62, 60
2,77644, Note_on_c, 0, 78, 81
2,77649, Control_c, 0, 64, 36
2,77652, Note_on_c, 0, 54, 0
2,77664, Control_c, 0, 64, 36
2,77684, Note_on_c, 0, 70, 0
2,77742, Note_on_c, 0, 62, 0
2,77756, Control_c, 0, 64, 37
2,77764, Note_on_c, 0, 70, 61
2,77776, Note_on_c, 0, 54, 58
2,77789, Note_on_c, 0, 78, 0
2,77872, Note_on_c, 0, 54, 0
2,77892, Control_c, 0, 64, 36
2,77892, Note_on_c, 0, 64, 60
2,77893, Note_on_c, 0, 79, 81
2,77923, Control_c, 0, 64, 36
2,77926, Note_on_c, 0, 70, 0
2,77971, Note_on_c, 0, 79, 0
2,77973, Note_on_c, 0, 64, 0
2,78010, Note_on_c, 0, 70, 72
2,78012, Note_on_c, 0, 54, 55
2,78029, Control_c, 0, 64, 36
2,78060, Control_c, 0, 64, 37
2,78121, Control_c, 0, 64, 36
2,78134, Note_on_c, 0, 54, 0
2,78138, Note_on_c, 0, 62, 58
2,78141, Note_on_c, 0, 78, 78
2,78163, Note_on_c, 0, 70, 0
2,78166, Control_c, 0, 64, 37
2,78233, Control_c, 0, 64, 36
2,78241, Note_on_c, 0, 62, 0
2,78271, Note_on_c, 0, 70, 74
2,78275, Note_on_c, 0, 54, 58
2,78295, Control_c, 0, 64, 37
2,78309, Control_c, 0, 64, 37
2,78325, Control_c, 0, 64, 38
2,78351, Note_on_c, 0, 78, 0
2,78355, Control_c, 0, 64, 38
2,78380, Note_on_c, 0, 54, 0
2,78380, Note_on_c, 0, 56, 57
2,78386, Control_c, 0, 64, 39
2,78389, Note_on_c, 0, 71, 69
2,78398, Note_on_c, 0, 70, 0
2,78401, Control_c, 0, 64, 39
2,78416, Control_c, 0, 64, 40
2,78431, Control_c, 0, 64, 41
2,78446, Control_c, 0, 64, 41
2,78461, Control_c, 0, 64, 42
2,78473, Note_on_c, 0, 56, 0
2,78492, Control_c, 0, 64, 43
2,78493, Note_on_c, 0, 62, 60
2,78499, Note_on_c, 0, 78, 72
2,78507, Control_c, 0, 64, 43
2,78507, Note_on_c, 0, 71, 0
2,78537, Control_c, 0, 64, 44
2,78561, Note_on_c, 0, 78, 0
2,78565, Note_on_c, 0, 62, 0
2,78585, Note_on_c, 0, 61, 63
2,78595, Note_on_c, 0, 76, 68
2,78597, Control_c, 0, 64, 43
2,78613, Control_c, 0, 64, 43
2,78628, Control_c, 0, 64, 42
2,78643, Note_on_c, 0, 61, 0
2,78659, Note_on_c, 0, 59, 67
2,78659, Note_on_c, 0, 76, 0
2,78661, Note_on_c, 0, 74, 68
2,78714, Note_on_c, 0, 74, 0
2,78718, Note_on_c, 0, 73, 72
2,78735, Control_c, 0, 64, 43
2,78750, Control_c, 0, 64, 43
2,78753, Note_on_c, 0, 58, 67
2,78753, Note_on_c, 0, 59, 0
2,78780, Control_c, 0, 64, 44
2,78784, Note_on_c, 0, 74, 75
2,78802, Note_on_c, 0, 73, 0
2,78825, Note_on_c, 0, 76, 81
2,78827, Note_on_c, 0, 58, 0
2,78827, Note_on_c, 0, 61, 70
2,78838, Note_on_c, 0, 74, 0
2,78839, Control_c, 0, 64, 43
2,78855, Control_c, 0, 64, 43
2,78870, Control_c, 0, 64, 42
2,78886, Control_c, 0, 64, 42
2,78900, Note_on_c, 0, 61, 0
2,78901, Control_c, 0, 64, 41
2,78916, Control_c, 0, 64, 41
2,78944, Note_on_c, 0, 68, 82
2,78947, Note_on_c, 0, 76, 0
2,78963, Note_on_c, 0, 52, 70
2,79059, Note_on_c, 0, 52, 0
2,79065, Note_on_c, 0, 54, 66
2,79065, Note_on_c, 0, 68, 0
2,79066, Note_on_c, 0, 70, 76
2,79107, Control_c, 0, 64, 41
2,79138, Control_c, 0, 64, 42
2,79147, Note_on_c, 0, 54, 0
2,79152, Control_c, 0, 64, 42
2,79163, Note_on_c, 0, 61, 71
2,79166, Note_on_c, 0, 70, 0
2,79168, Control_c, 0, 64, 43
2,79168, Note_on_c, 0, 76, 82
2,79183, Control_c, 0, 64, 43
2,79198, Control_c, 0, 64, 44
2,79210, Note_on_c, 0, 61, 0
2,79248, Note_on_c, 0, 76, 0
2,79254, Note_on_c, 0, 59, 62
2,79258, Note_on_c, 0, 74, 70
2,79289, Control_c, 0, 64, 44
2,79317, Note_on_c, 0, 73, 63
2,79325, Note_on_c, 0, 58, 76
2,79329, Note_on_c, 0, 59, 0
2,79354, Note_on_c, 0, 74, 0
2,79382, Note_on_c, 0, 73, 0
2,79383, Note_on_c, 0, 71, 75
2,79411, Control_c, 0, 64, 43
2,79411, Note_on_c, 0, 56, 67
2,79442, Control_c, 0, 64, 43
2,79448, Note_on_c, 0, 73, 73
2,79457, Note_on_c, 0, 71, 0
2,79464, Note_on_c, 0, 56, 0
2,79471, Control_c, 0, 64, 42
2,79487, Control_c, 0, 64, 42
2,79490, Note_on_c, 0, 58, 0
2,79502, Control_c, 0, 64, 41
2,79508, Note_on_c, 0, 59, 63
2,79513, Note_on_c, 0, 74, 84
2,79517, Control_c, 0, 64, 40
2,79521, Note_on_c, 0, 73, 0
2,79533, Control_c, 0, 64, 40
2,79563, Control_c, 0, 64, 39
2,79622, Note_on_c, 0, 59, 0
2,79656, Note_on_c, 0, 61, 60
2,79669, Control_c, 0, 64, 39
2,79699, Control_c, 0, 64, 38
2,79739, Note_on_c, 0, 61, 0
2,79745, Control_c, 0, 64, 38
2,79783, Note_on_c, 0, 62, 77
2,79866, Note_on_c, 0, 62, 0
2,79900, Note_on_c, 0, 59, 57
2,79951, Control_c, 0, 64, 38
2,79996, Note_on_c, 0, 59, 0
2,80027, Control_c, 0, 64, 39
2,80034, Note_on_c, 0, 64, 80
2,80058, Control_c, 0, 64, 39
2,80072, Control_c, 0, 64, 40
2,80115, Note_on_c, 0, 64, 0
2,80118, Control_c, 0, 64, 40
2,80148, Control_c, 0, 64, 41
2,80164, Control_c, 0, 64, 41
2,80173, Note_on_c, 0, 59, 46
2,80224, Control_c, 0, 64, 42
2,80232, Note_on_c, 0, 59, 0
2,80291, Note_on_c, 0, 66, 83
2,80346, Control_c, 0, 64, 42
2,80382, Note_on_c, 0, 66, 0
2,80422, Control_c, 0, 64, 43
2,80433, Note_on_c, 0, 59, 45
2,80483, Control_c, 0, 64, 43
2,80498, Control_c, 0, 64, 44
2,80508, Note_on_c, 0, 59, 0
2,80513, Control_c, 0, 64, 44
2,80529, Control_c, 0, 64, 45
2,80545, Note_on_c, 0, 68, 84
2,80551, Control_c, 0, 64, 46
2,80567, Control_c, 0, 64, 47
2,80581, Control_c, 0, 64, 47
2,80612, Control_c, 0, 64, 48
2,80628, Control_c, 0, 64, 48
2,80637, Note_on_c, 0, 68, 0
2,80673, Control_c, 0, 64, 49
2,80676, Note_on_c, 0, 59, 51
2,80804, Note_on_c, 0, 59, 0
2,80810, Note_on_c, 0, 69, 82
2,80820, Note_on_c, 0, 47, 59
2,80841, Control_c, 0, 64, 49
2,80893, Note_on_c, 0, 47, 0
2,80932, Control_c, 0, 64, 50
2,80936, Note_on_c, 0, 69, 0
2,80939, Note_on_c, 0, 59, 60
2,81017, Note_on_c, 0, 59, 0
2,81056, Note_on_c, 0, 74, 0
2,81060, Note_on_c, 0, 68, 84
2,81073, Note_on_c, 0, 52, 62
2,81138, Note_on_c, 0, 68, 0
2,81145, Control_c, 0, 64, 49
2,81178, Note_on_c, 0, 52, 0
2,81198, Note_on_c, 0, 54, 59
2,81221, Control_c, 0, 64, 49
2,81251, Control_c, 0, 64, 48
2,81317, Note_on_c, 0, 64, 81
2,81335, Note_on_c, 0, 54, 0
2,81336, Note_on_c, 0, 56, 64
2,81350, Control_c, 0, 64, 49
2,81385, Note_on_c, 0, 64, 0
2,81437, Note_on_c, 0, 56, 0
2,81453, Note_on_c, 0, 52, 64
2,81566, Note_on_c, 0, 52, 0
2,81566, Note_on_c, 0, 66, 87
2,81577, Note_on_c, 0, 57, 66
2,81636, Note_on_c, 0, 66, 0
2,81668, Note_on_c, 0, 57, 0
2,81689, Note_on_c, 0, 52, 71
2,81731, Control_c, 0, 64, 48
2,81746, Control_c, 0, 64, 47
2,81762, Control_c, 0, 64, 47
2,81814, Note_on_c, 0, 52, 0
2,81820, Note_on_c, 0, 68, 91
2,81821, Note_on_c, 0, 59, 67
2,81870, Note_on_c, 0, 70, 17
2,81878, Note_on_c, 0, 70, 0
2,81892, Note_on_c, 0, 68, 0
2,81901, Note_on_c, 0, 59, 0
2,81937, Note_on_c, 0, 52, 73
2,81961, Control_c, 0, 64, 47
2,82089, Note_on_c, 0, 69, 91
2,82091, Note_on_c, 0, 61, 68
2,82098, Note_on_c, 0, 52, 0
2,82105, Control_c, 0, 64, 48
2,82148, Note_on_c, 0, 69, 0
2,82160, Note_on_c, 0, 61, 0
2,82197, Control_c, 0, 64, 47
2,82205, Note_on_c, 0, 52, 69
2,82242, Control_c, 0, 64, 47
2,82289, Control_c, 0, 64, 46
2,82304, Control_c, 0, 64, 46
2,82315, Note_on_c, 0, 52, 0
2,82330, Note_on_c, 0, 62, 74
2,82330, Note_on_c, 0, 71, 85
2,82334, Control_c, 0, 64, 45
2,82349, Control_c, 0, 64, 44
2,82365, Control_c, 0, 64, 44
2,82390, Note_on_c, 0, 71, 0
2,82395, Control_c, 0, 64, 43
2,82410, Control_c, 0, 64, 42
2,82426, Note_on_c, 0, 62, 0
2,82440, Note_on_c, 0, 52, 74
2,82456, Control_c, 0, 64, 42
2,82544, Note_on_c, 0, 52, 0
2,82546, Control_c, 0, 64, 41
2,82560, Note_on_c, 0, 64, 72
2,82574, Note_on_c, 0, 61, 88
2,82652, Control_c, 0, 64, 42
2,82671, Note_on_c, 0, 66, 72
2,82677, Note_on_c, 0, 64, 0
2,82711, Control_c, 0, 64, 42
2,82748, Note_on_c, 0, 68, 71
2,82756, Note_on_c, 0, 66, 0
2,82813, Note_on_c, 0, 69, 82
2,82849, Note_on_c, 0, 68, 0
2,82887, Control_c, 0, 64, 42
2,82910, Note_on_c, 0, 69, 0
2,82920, Note_on_c, 0, 61, 0
2,82926, Note_on_c, 0, 64, 77
2,82927, Note_on_c, 0, 62, 69
2,82947, Control_c, 0, 64, 42
2,83008, Control_c, 0, 64, 43
2,83017, Note_on_c, 0, 62, 0
2,83023, Control_c, 0, 64, 43
2,83039, Control_c, 0, 64, 44
2,83051, Note_on_c, 0, 64, 0
2,83052, Note_on_c, 0, 71, 79
2,83054, Control_c, 0, 64, 44
2,83054, Note_on_c, 0, 61, 63
2,83130, Note_on_c, 0, 71, 0
2,83133, Control_c, 0, 64, 45
2,83162, Note_on_c, 0, 61, 0
2,83164, Control_c, 0, 64, 45
2,83170, Note_on_c, 0, 64, 75
2,83179, Note_on_c, 0, 59, 63
2,83209, Control_c, 0, 64, 45
2,83240, Control_c, 0, 64, 44
2,83274, Note_on_c, 0, 59, 0
2,83294, Note_on_c, 0, 73, 78
2,83295, Note_on_c, 0, 57, 76
2,83307, Note_on_c, 0, 64, 0
2,83316, Control_c, 0, 64, 45
2,83361, Control_c, 0, 64, 44
2,83397, Note_on_c, 0, 57, 0
2,83402, Note_on_c, 0, 59, 71
2,83407, Note_on_c, 0, 64, 78
2,83418, Note_on_c, 0, 73, 0
2,83452, Control_c, 0, 64, 45
2,83468, Control_c, 0, 64, 45
2,83498, Control_c, 0, 64, 46
2,83513, Control_c, 0, 64, 47
2,83518, Note_on_c, 0, 57, 77
2,83518, Note_on_c, 0, 59, 0
2,83524, Note_on_c, 0, 74, 77
2,83525, Note_on_c, 0, 64, 0
2,83528, Control_c, 0, 64, 47
2,83558, Control_c, 0, 64, 48
2,83589, Control_c, 0, 64, 48
2,83597, Note_on_c, 0, 57, 0
2,83604, Control_c, 0, 64, 49
2,83623, Note_on_c, 0, 74, 0
2,83628, Control_c, 0, 64, 50
2,83642, Control_c, 0, 64, 51
2,83644, Note_on_c, 0, 55, 75
2,83644, Note_on_c, 0, 66, 79
2,83657, Control_c, 0, 64, 51
2,83673, Control_c, 0, 64, 52
2,83713, Note_on_c, 0, 66, 0
2,83751, Note_on_c, 0, 55, 0
2,83768, Note_on_c, 0, 54, 71
2,83769, Note_on_c, 0, 49, 68
2,83769, Note_on_c, 0, 76, 89
2,83778, Control_c, 0, 64, 51
2,83794, Control_c, 0, 64, 51
2,83809, Control_c, 0, 64, 50
2,83824, Control_c, 0, 64, 49
2,83839, Control_c, 0, 64, 48
2,83846, Note_on_c, 0, 76, 0
2,83854, Control_c, 0, 64, 47
2,83863, Note_on_c, 0, 49, 0
2,83870, Control_c, 0, 64, 47
2,83874, Note_on_c, 0, 54, 0
2,83878, Note_on_c, 0, 67, 83
2,83879, Note_on_c, 0, 52, 82
2,83901, Control_c, 0, 64, 46
2,83932, Control_c, 0, 64, 46
2,83982, Note_on_c, 0, 52, 0
2,83999, Note_on_c, 0, 50, 92
2,84003, Note_on_c, 0, 67, 0
2,84004, Note_on_c, 0, 66, 73
2,84038, Control_c, 0, 64, 45
2,84053, Control_c, 0, 64, 45
2,84069, Control_c, 0, 64, 44
2,84084, Control_c, 0, 64, 44
2,84099, Control_c, 0, 64, 43
2,84099, Note_on_c, 0, 66, 0
2,84105, Note_on_c, 0, 67, 73
2,84172, Note_on_c, 0, 67, 0
2,84181, Note_on_c, 0, 69, 70
2,84191, Control_c, 0, 64, 43
2,84206, Control_c, 0, 64, 42
2,84230, Note_on_c, 0, 71, 77
2,84238, Note_on_c, 0, 69, 0
2,84282, Control_c, 0, 64, 42
2,84291, Note_on_c, 0, 71, 0
2,84297, Control_c, 0, 64, 41
2,84313, Control_c, 0, 64, 40
2,84321, Note_on_c, 0, 50, 0
2,84328, Control_c, 0, 64, 40
2,84336, Note_on_c, 0, 52, 72
2,84343, Control_c, 0, 64, 39
2,84343, Note_on_c, 0, 66, 80
2,84358, Control_c, 0, 64, 39
2,84373, Control_c, 0, 64, 37
2,84396, Control_c, 0, 64, 35
2,84411, Control_c, 0, 64, 32
2,84427, Control_c, 0, 64, 29
2,84441, Control_c, 0, 64, 28
2,84455, Note_on_c, 0, 52, 0
2,84456, Control_c, 0, 64, 26
2,84469, Note_on_c, 0, 50, 69
2,84472, Control_c, 0, 64, 24
2,84478, Note_on_c, 0, 73, 74
2,84487, Control_c, 0, 64, 21
2,84498, Note_on_c, 0, 66, 0
2,84502, Control_c, 0, 64, 15
2,84518, Control_c, 0, 64, 10
2,84563, Control_c, 0, 64, 13
2,84578, Control_c, 0, 64, 17
2,84582, Note_on_c, 0, 73, 0
2,84583, Note_on_c, 0, 50, 0
2,84591, Note_on_c, 0, 49, 73
2,84592, Note_on_c, 0, 66, 77
2,84594, Control_c, 0, 64, 18
2,84609, Control_c, 0, 64, 20
2,84623, Control_c, 0, 64, 21
2,84639, Control_c, 0, 64, 23
2,84654, Control_c, 0, 64, 24
2,84708, Note_on_c, 0, 49, 0
2,84712, Note_on_c, 0, 47, 72
2,84716, Note_on_c, 0, 74, 75
2,84747, Control_c, 0, 64, 25
2,84753, Note_on_c, 0, 66, 0
2,84811, Note_on_c, 0, 47, 0
2,84823, Note_on_c, 0, 66, 60
2,84824, Note_on_c, 0, 49, 77
2,84837, Control_c, 0, 64, 26
2,84868, Control_c, 0, 64, 27
2,84870, Note_on_c, 0, 74, 0
2,84898, Control_c, 0, 64, 25
2,84913, Control_c, 0, 64, 24
2,84928, Control_c, 0, 64, 21
2,84934, Note_on_c, 0, 49, 0
2,84939, Note_on_c, 0, 47, 73
2,84942, Note_on_c, 0, 66, 0
2,84943, Control_c, 0, 64, 20
2,84943, Note_on_c, 0, 76, 79
2,84959, Control_c, 0, 64, 18
2,84974, Control_c, 0, 64, 17
2,85004, Control_c, 0, 64, 15
2,85029, Note_on_c, 0, 47, 0
2,85029, Note_on_c, 0, 76, 0
2,85050, Note_on_c, 0, 45, 73
2,85063, Note_on_c, 0, 67, 74
2,85065, Control_c, 0, 64, 17
2,85080, Control_c, 0, 64, 18
2,85095, Control_c, 0, 64, 20
2,85111, Control_c, 0, 64, 21
2,85166, Note_on_c, 0, 45, 0
2,85177, Note_on_c, 0, 78, 80
2,85179, Note_on_c, 0, 43, 76
2,85198, Note_on_c, 0, 67, 0
2,85209, Control_c, 0, 64, 23
2,85254, Control_c, 0, 64, 24
2,85270, Note_on_c, 0, 78, 0
2,85283, Note_on_c, 0, 43, 0
2,85285, Control_c, 0, 64, 25
2,85297, Note_on_c, 0, 42, 70
2,85297, Note_on_c, 0, 69, 72
2,85300, Control_c, 0, 64, 26
2,85316, Control_c, 0, 64, 27
2,85377, Note_on_c, 0, 42, 0
2,85392, Control_c, 0, 64, 26
2,85397, Note_on_c, 0, 69, 0
2,85422, Control_c, 0, 64, 27
2,85431, Note_on_c, 0, 67, 76
2,85438, Control_c, 0, 64, 28
2,85438, Note_on_c, 0, 40, 80
2,85453, Control_c, 0, 64, 29
2,85476, Note_on_c, 0, 40, 0
2,85483, Control_c, 0, 64, 29
2,85530, Control_c, 0, 64, 30
2,85545, Control_c, 0, 64, 31
2,85552, Note_on_c, 0, 67, 0
2,85556, Note_on_c, 0, 66, 75
2,85560, Control_c, 0, 64, 32
2,85575, Control_c, 0, 64, 34
2,85591, Control_c, 0, 64, 35
2,85605, Control_c, 0, 64, 36
2,85662, Note_on_c, 0, 66, 0
2,85677, Note_on_c, 0, 67, 77
2,85681, Control_c, 0, 64, 36
2,85681, Note_on_c, 0, 50, 78
2,85711, Control_c, 0, 64, 36
2,85713, Note_on_c, 0, 48, 44
2,85714, Note_on_c, 0, 48, 0
2,85734, Note_on_c, 0, 50, 0
2,85741, Control_c, 0, 64, 35
2,85756, Control_c, 0, 64, 34
2,85771, Control_c, 0, 64, 34
2,85794, Note_on_c, 0, 71, 73
2,85808, Note_on_c, 0, 67, 0
2,85901, Note_on_c, 0, 71, 0
2,85919, Note_on_c, 0, 76, 75
2,85924, Note_on_c, 0, 49, 82
2,85981, Note_on_c, 0, 49, 0
2,86005, Note_on_c, 0, 76, 0
2,86007, Control_c, 0, 64, 34
2,86022, Control_c, 0, 64, 35
2,86027, Note_on_c, 0, 67, 75
2,86037, Control_c, 0, 64, 36
2,86052, Control_c, 0, 64, 36
2,86068, Control_c, 0, 64, 37
2,86160, Control_c, 0, 64, 37
2,86160, Note_on_c, 0, 67, 0
2,86163, Note_on_c, 0, 66, 74
2,86181, Note_on_c, 0, 50, 76
2,86190, Control_c, 0, 64, 38
2,86205, Control_c, 0, 64, 38
2,86268, Note_on_c, 0, 66, 0
2,86283, Note_on_c, 0, 71, 75
2,86341, Control_c, 0, 64, 38
2,86358, Control_c, 0, 64, 37
2,86366, Note_on_c, 0, 71, 0
2,86373, Control_c, 0, 64, 36
2,86389, Control_c, 0, 64, 36
2,86403, Control_c, 0, 64, 34
2,86405, Note_on_c, 0, 69, 80
2,86416, Note_on_c, 0, 50, 0
2,86417, Note_on_c, 0, 52, 71
2,86418, Control_c, 0, 64, 33
2,86434, Control_c, 0, 64, 32
2,86449, Control_c, 0, 64, 31
2,86463, Control_c, 0, 64, 30
2,86514, Note_on_c, 0, 52, 0
2,86517, Note_on_c, 0, 73, 83
2,86524, Control_c, 0, 64, 31
2,86526, Note_on_c, 0, 50, 73
2,86535, Note_on_c, 0, 69, 0
2,86539, Control_c, 0, 64, 32
2,86570, Control_c, 0, 64, 32
2,86615, Control_c, 0, 64, 33
2,86631, Note_on_c, 0, 74, 87
2,86645, Note_on_c, 0, 50, 0
2,86649, Note_on_c, 0, 47, 75
2,86661, Note_on_c, 0, 49, 63
2,86662, Note_on_c, 0, 73, 0
2,86699, Control_c, 0, 64, 34
2,86715, Control_c, 0, 64, 34
2,86765, Note_on_c, 0, 50, 86
2,86771, Note_on_c, 0, 47, 0
2,86787, Note_on_c, 0, 49, 0
2,86836, Control_c, 0, 64, 34
2,86872, Note_on_c, 0, 50, 0
2,86895, Note_on_c, 0, 43, 79
2,86900, Note_on_c, 0, 52, 86
2,86942, Control_c, 0, 64, 34
2,86944, Note_on_c, 0, 52, 0
2,86945, Note_on_c, 0, 74, 0
2,86955, Note_on_c, 0, 43, 0
2,87003, Control_c, 0, 64, 34
2,87018, Control_c, 0, 64, 32
2,87034, Control_c, 0, 64, 31
2,87049, Control_c, 0, 64, 29
2,87064, Control_c, 0, 64, 26
2,87079, Control_c, 0, 64, 23
2,87094, Control_c, 0, 64, 20
2,87110, Control_c, 0, 64, 17
2,87125, Control_c, 0, 64, 13
2,87140, Control_c, 0, 64, 10
2,87155, Control_c, 0, 64, 0
2,87163, Note_on_c, 0, 54, 75
2,87163, Note_on_c, 0, 73, 84
2,87172, Note_on_c, 0, 45, 66
2,87282, Note_on_c, 0, 54, 0
2,87291, Note_on_c, 0, 52, 74
2,87405, Note_on_c, 0, 50, 78
2,87416, Note_on_c, 0, 52, 0
2,87535, Note_on_c, 0, 52, 80
2,87618, Note_on_c, 0, 50, 0
2,87635, Note_on_c, 0, 73, 0
2,87663, Note_on_c, 0, 45, 0
2,87664, Note_on_c, 0, 54, 82
2,87665, Note_on_c, 0, 74, 88
2,87676, Note_on_c, 0, 52, 0
2,87718, Note_on_c, 0, 54, 0
2,87732, Note_on_c, 0, 74, 0
2,87924, Note_on_c, 0, 52, 76
2,87925, Note_on_c, 0, 76, 85
2,87929, Note_on_c, 0, 49, 68
2,87969, Note_on_c, 0, 52, 0
2,87991, Note_on_c, 0, 49, 0
2,88043, Note_on_c, 0, 74, 83
2,88070, Note_on_c, 0, 76, 0
2,88145, Note_on_c, 0, 74, 0
2,88168, Note_on_c, 0, 47, 76
2,88170, Note_on_c, 0, 50, 66
2,88174, Note_on_c, 0, 73, 85
2,88183, Control_c, 0, 64, 13
2,88199, Control_c, 0, 64, 20
2,88204, Note_on_c, 0, 50, 0
2,88214, Control_c, 0, 64, 23
2,88236, Control_c, 0, 64, 25
2,88245, Note_on_c, 0, 47, 0
2,88251, Control_c, 0, 64, 26
2,88267, Control_c, 0, 64, 27
2,88275, Note_on_c, 0, 73, 0
2,88281, Control_c, 0, 64, 29
2,88286, Note_on_c, 0, 74, 82
2,88296, Control_c, 0, 64, 29
2,88327, Control_c, 0, 64, 30
2,88404, Control_c, 0, 64, 31
2,88414, Note_on_c, 0, 76, 90
2,88419, Control_c, 0, 64, 32
2,88434, Control_c, 0, 64, 34
2,88434, Note_on_c, 0, 45, 79
2,88437, Note_on_c, 0, 49, 68
2,88449, Control_c, 0, 64, 36
2,88451, Note_on_c, 0, 74, 0
2,88464, Control_c, 0, 64, 37
2,88467, Note_on_c, 0, 76, 0
2,88477, Note_on_c, 0, 49, 0
2,88479, Control_c, 0, 64, 38
2,88494, Control_c, 0, 64, 39
2,88510, Control_c, 0, 64, 40
2,88525, Control_c, 0, 64, 40
2,88555, Control_c, 0, 64, 41
2,88570, Control_c, 0, 64, 42
2,88585, Control_c, 0, 64, 42
2,88685, Note_on_c, 0, 78, 81
2,88691, Control_c, 0, 64, 43
2,88695, Note_on_c, 0, 59, 85
2,88706, Control_c, 0, 64, 43
2,88722, Control_c, 0, 64, 44
2,88752, Control_c, 0, 64, 45
2,88767, Control_c, 0, 64, 45
2,88815, Note_on_c, 0, 76, 69
2,88823, Note_on_c, 0, 78, 0
2,88859, Control_c, 0, 64, 45
2,88875, Control_c, 0, 64, 44
2,88890, Control_c, 0, 64, 43
2,88905, Control_c, 0, 64, 42
2,88920, Control_c, 0, 64, 41
2,88935, Control_c, 0, 64, 40
2,88936, Note_on_c, 0, 74, 76
2,88944, Note_on_c, 0, 76, 0
2,88951, Control_c, 0, 64, 39
2,88966, Control_c, 0, 64, 38
2,88981, Control_c, 0, 64, 37
2,88981, Note_on_c, 0, 59, 0
2,89004, Control_c, 0, 64, 35
2,89019, Control_c, 0, 64, 32
2,89035, Control_c, 0, 64, 30
2,89050, Control_c, 0, 64, 29
2,89059, Note_on_c, 0, 76, 86
2,89065, Control_c, 0, 64, 29
2,89074, Note_on_c, 0, 74, 0
2,89111, Control_c, 0, 64, 29
2,89140, Control_c, 0, 64, 29
2,89156, Control_c, 0, 64, 28
2,89165, Note_on_c, 0, 76, 0
2,89186, Control_c, 0, 64, 27
2,89186, Note_on_c, 0, 57, 71
2,89190, Note_on_c, 0, 78, 92
2,89246, Note_on_c, 0, 57, 0
2,89247, Control_c, 0, 64, 28
2,89262, Control_c, 0, 64, 29
2,89278, Control_c, 0, 64, 30
2,89293, Control_c, 0, 64, 32
2,89309, Control_c, 0, 64, 35
2,89323, Control_c, 0, 64, 38
2,89338, Control_c, 0, 64, 41
2,89354, Control_c, 0, 64, 44
2,89369, Control_c, 0, 64, 46
2,89384, Control_c, 0, 64, 48
2,89399, Control_c, 0, 64, 50
2,89414, Control_c, 0, 64, 50
2,89427, Control_c, 0, 64, 51
2,89434, Note_on_c, 0, 78, 0
2,89443, Note_on_c, 0, 59, 67
2,89453, Note_on_c, 0, 79, 87
2,89472, Control_c, 0, 64, 51
2,89518, Control_c, 0, 64, 51
2,89524, Note_on_c, 0, 59, 0
2,89533, Control_c, 0, 64, 50
2,89569, Note_on_c, 0, 78, 90
2,89578, Control_c, 0, 64, 50
2,89594, Control_c, 0, 64, 48
2,89597, Note_on_c, 0, 57, 63
2,89609, Control_c, 0, 64, 47
2,89624, Control_c, 0, 64, 44
2,89638, Note_on_c, 0, 79, 0
2,89640, Control_c, 0, 64, 41
2,89655, Control_c, 0, 64, 38
2,89670, Control_c, 0, 64, 37
2,89686, Control_c, 0, 64, 36
2,89689, Note_on_c, 0, 57, 0
2,89695, Note_on_c, 0, 55, 74
2,89700, Note_on_c, 0, 76, 86
2,89701, Control_c, 0, 64, 35
2,89712, Note_on_c, 0, 78, 0
2,89716, Control_c, 0, 64, 34
2,89731, Control_c, 0, 64, 32
2,89746, Control_c, 0, 64, 31
2,89769, Control_c, 0, 64, 30
2,89804, Note_on_c, 0, 55, 0
2,89808, Note_on_c, 0, 54, 70
2,89814, Note_on_c, 0, 76, 0
2,89820, Note_on_c, 0, 74, 81
2,89890, Control_c, 0, 64, 32
2,89905, Control_c, 0, 64, 33
2,89915, Note_on_c, 0, 54, 0
2,89921, Control_c, 0, 64, 34
2,89936, Control_c, 0, 64, 35
2,89944, Note_on_c, 0, 52, 75
2,89949, Note_on_c, 0, 73, 85
2,89951, Control_c, 0, 64, 36
2,89959, Note_on_c, 0, 74, 0
2,89967, Control_c, 0, 64, 38
2,89982, Control_c, 0, 64, 40
2,89998, Control_c, 0, 64, 42
2,90007, Note_on_c, 0, 73, 0
2,90013, Control_c, 0, 64, 44
2,90028, Control_c, 0, 64, 46
2,90043, Control_c, 0, 64, 47
2,90103, Control_c, 0, 64, 46
2,90119, Control_c, 0, 64, 46
2,90134, Control_c, 0, 64, 45
2,90149, Control_c, 0, 64, 44
2,90164, Control_c, 0, 64, 44
2,90179, Control_c, 0, 64, 43
2,90195, Control_c, 0, 64, 42
2,90213, Note_on_c, 0, 52, 0
2,90213, Note_on_c, 0, 83, 86
2,90225, Control_c, 0, 64, 42
2,90239, Note_on_c, 0, 55, 53
2,90240, Control_c, 0, 64, 41
2,90255, Control_c, 0, 64, 40
2,90270, Control_c, 0, 64, 39
2,90286, Control_c, 0, 64, 38
2,90300, Control_c, 0, 64, 36
2,90301, Note_on_c, 0, 55, 0
2,90316, Control_c, 0, 64, 35
2,90334, Note_on_c, 0, 54, 62
2,90376, Control_c, 0, 64, 36
2,90430, Note_on_c, 0, 54, 0
2,90453, Note_on_c, 0, 52, 72
2,90468, Control_c, 0, 64, 35
2,90484, Control_c, 0, 64, 34
2,90499, Control_c, 0, 64, 34
2,90537, Control_c, 0, 64, 33
2,90552, Control_c, 0, 64, 32
2,90553, Note_on_c, 0, 52, 0
2,90568, Control_c, 0, 64, 31
2,90572, Note_on_c, 0, 50, 64
2,90583, Control_c, 0, 64, 29
2,90598, Control_c, 0, 64, 28
2,90613, Control_c, 0, 64, 27
2,90628, Control_c, 0, 64, 25
2,90644, Control_c, 0, 64, 24
2,90673, Control_c, 0, 64, 25
2,90694, Note_on_c, 0, 50, 0
2,90698, Note_on_c, 0, 49, 77
2,90704, Control_c, 0, 64, 26
2,90720, Control_c, 0, 64, 27
2,90749, Control_c, 0, 64, 28
2,90773, Note_on_c, 0, 83, 0
2,90780, Control_c, 0, 64, 29
2,90796, Control_c, 0, 64, 31
2,90811, Control_c, 0, 64, 32
2,90814, Note_on_c, 0, 81, 79
2,90826, Control_c, 0, 64, 33
2,90841, Control_c, 0, 64, 34
2,90856, Control_c, 0, 64, 34
2,90887, Control_c, 0, 64, 35
2,90936, Note_on_c, 0, 81, 0
2,90942, Note_on_c, 0, 83, 74
2,90993, Control_c, 0, 64, 34
2,91052, Note_on_c, 0, 81, 77
2,91070, Control_c, 0, 64, 34
2,91077, Note_on_c, 0, 83, 0
2,91131, Control_c, 0, 64, 34
2,91176, Control_c, 0, 64, 35
2,91180, Note_on_c, 0, 79, 73
2,91186, Note_on_c, 0, 50, 76
2,91193, Note_on_c, 0, 49, 0
2,91200, Note_on_c, 0, 81, 0
2,91221, Control_c, 0, 64, 36
2,91291, Control_c, 0, 64, 36
2,91307, Note_on_c, 0, 78, 73
2,91308, Note_on_c, 0, 79, 0
2,91321, Control_c, 0, 64, 37
2,91351, Control_c, 0, 64, 38
2,91382, Control_c, 0, 64, 38
2,91404, Note_on_c, 0, 78, 0
2,91413, Control_c, 0, 64, 39
2,91414, Note_on_c, 0, 76, 66
2,91428, Control_c, 0, 64, 39
2,91428, Note_on_c, 0, 50, 0
2,91443, Control_c, 0, 64, 40
2,91458, Control_c, 0, 64, 40
2,91473, Control_c, 0, 64, 41
2,91487, Note_on_c, 0, 76, 0
2,91489, Control_c, 0, 64, 42
2,91496, Note_on_c, 0, 78, 76
2,91504, Control_c, 0, 64, 44
2,91519, Control_c, 0, 64, 44
2,91536, Note_on_c, 0, 55, 66
2,91566, Note_on_c, 0, 78, 0
2,91575, Note_on_c, 0, 76, 69
2,91603, Note_on_c, 0, 55, 0
2,91606, Note_on_c, 0, 54, 73
2,91625, Control_c, 0, 64, 44
2,91625, Note_on_c, 0, 76, 0
2,91627, Note_on_c, 0, 78, 75
2,91641, Control_c, 0, 64, 43
2,91650, Note_on_c, 0, 52, 79
2,91655, Control_c, 0, 64, 42
2,91668, Note_on_c, 0, 54, 0
2,91670, Control_c, 0, 64, 40
2,91686, Control_c, 0, 64, 38
2,91691, Note_on_c, 0, 78, 0
2,91700, Control_c, 0, 64, 37
2,91701, Note_on_c, 0, 76, 70
2,91750, Note_on_c, 0, 78, 76
2,91756, Note_on_c, 0, 76, 0
2,91762, Control_c, 0, 64, 38
2,91765, Note_on_c, 0, 52, 0
2,91772, Note_on_c, 0, 55, 75
2,91822, Note_on_c, 0, 78, 0
2,91839, Note_on_c, 0, 76, 65
2,91871, Note_on_c, 0, 55, 0
2,91886, Note_on_c, 0, 78, 74
2,91887, Note_on_c, 0, 76, 0
2,91892, Note_on_c, 0, 50, 78
2,91929, Control_c, 0, 64, 37
2,91944, Control_c, 0, 64, 37
2,91955, Note_on_c, 0, 78, 0
2,91960, Control_c, 0, 64, 36
2,91970, Note_on_c, 0, 76, 67
2,91980, Note_on_c, 0, 50, 0
2,91998, Note_on_c, 0, 55, 67
2,92016, Note_on_c, 0, 76, 0
2,92016, Note_on_c, 0, 78, 71
2,92036, Control_c, 0, 64, 37
2,92051, Control_c, 0, 64, 37
2,92089, Control_c, 0, 64, 38
2,92090, Note_on_c, 0, 78, 0
2,92104, Note_on_c, 0, 55, 0
2,92109, Note_on_c, 0, 76, 61
2,92141, Note_on_c, 0, 49, 80
2,92146, Note_on_c, 0, 78, 70
2,92155, Note_on_c, 0, 76, 0
2,92172, Note_on_c, 0, 45, 0
2,92180, Control_c, 0, 64, 38
2,92219, Note_on_c, 0, 78, 0
2,92226, Control_c, 0, 64, 39
2,92227, Note_on_c, 0, 76, 65
2,92252, Note_on_c, 0, 55, 60
2,92257, Control_c, 0, 64, 39
2,92271, Control_c, 0, 64, 40
2,92278, Note_on_c, 0, 49, 0
2,92281, Note_on_c, 0, 78, 61
2,92282, Note_on_c, 0, 76, 0
2,92302, Control_c, 0, 64, 40
2,92318, Control_c, 0, 64, 41
2,92345, Note_on_c, 0, 78, 0
2,92357, Note_on_c, 0, 76, 68
2,92363, Control_c, 0, 64, 41
2,92377, Note_on_c, 0, 55, 0
2,92380, Note_on_c, 0, 47, 79
2,92404, Note_on_c, 0, 78, 63
2,92409, Control_c, 0, 64, 42
2,92410, Note_on_c, 0, 76, 0
2,92439, Control_c, 0, 64, 42
2,92473, Note_on_c, 0, 78, 0
2,92482, Note_on_c, 0, 76, 67
2,92499, Control_c, 0, 64, 43
2,92499, Note_on_c, 0, 55, 73
2,92500, Note_on_c, 0, 47, 0
2,92535, Note_on_c, 0, 78, 67
2,92538, Note_on_c, 0, 76, 0
2,92615, Note_on_c, 0, 78, 0
2,92620, Control_c, 0, 64, 42
2,92623, Note_on_c, 0, 55, 0
2,92629, Note_on_c, 0, 45, 67
2,92629, Note_on_c, 0, 76, 67
2,92666, Control_c, 0, 64, 43
2,92725, Note_on_c, 0, 45, 0
2,92758, Control_c, 0, 64, 43
2,92758, Note_on_c, 0, 55, 66
2,92788, Control_c, 0, 64, 44
2,92804, Control_c, 0, 64, 44
2,92819, Control_c, 0, 64, 45
2,92841, Control_c, 0, 64, 46
2,92856, Control_c, 0, 64, 47
2,92871, Control_c, 0, 64, 47
2,92890, Note_on_c, 0, 54, 78
2,92897, Note_on_c, 0, 55, 0
2,92902, Control_c, 0, 64, 48
2,92919, Control_c, 0, 64, 49
2,92933, Control_c, 0, 64, 49
2,92948, Control_c, 0, 64, 50
2,92964, Control_c, 0, 64, 50
2,92993, Control_c, 0, 64, 51
2,93005, Note_on_c, 0, 76, 0
2,93008, Note_on_c, 0, 81, 69
2,93012, Note_on_c, 0, 55, 86
2,93024, Control_c, 0, 64, 51
2,93024, Note_on_c, 0, 54, 0
2,93070, Control_c, 0, 64, 51
2,93088, Note_on_c, 0, 81, 0
2,93100, Control_c, 0, 64, 50
2,93100, Note_on_c, 0, 79, 66
2,93117, Note_on_c, 0, 78, 72
2,93122, Note_on_c, 0, 55, 0
2,93127, Note_on_c, 0, 57, 80
2,93162, Note_on_c, 0, 79, 0
2,93177, Control_c, 0, 64, 50
2,93207, Control_c, 0, 64, 49
2,93222, Control_c, 0, 64, 48
2,93238, Control_c, 0, 64, 48
2,93253, Control_c, 0, 64, 47
2,93267, Control_c, 0, 64, 46
2,93268, Note_on_c, 0, 81, 75
2,93279, Note_on_c, 0, 52, 62
2,93283, Control_c, 0, 64, 44
2,93283, Note_on_c, 0, 78, 0
2,93298, Control_c, 0, 64, 42
2,93313, Control_c, 0, 64, 40
2,93329, Control_c, 0, 64, 39
2,93343, Control_c, 0, 64, 37
2,93359, Control_c, 0, 64, 37
2,93374, Control_c, 0, 64, 36
2,93389, Note_on_c, 0, 52, 0
2,93404, Control_c, 0, 64, 36
2,93405, Note_on_c, 0, 76, 69
2,93406, Note_on_c, 0, 50, 60
2,93409, Note_on_c, 0, 81, 0
2,93435, Control_c, 0, 64, 35
2,93450, Control_c, 0, 64, 34
2,93464, Control_c, 0, 64, 34
2,93495, Control_c, 0, 64, 33
2,93498, Note_on_c, 0, 50, 0
2,93521, Note_on_c, 0, 76, 0
2,93523, Note_on_c, 0, 49, 56
2,93527, Note_on_c, 0, 81, 77
2,93541, Control_c, 0, 64, 34
2,93637, Note_on_c, 0, 49, 0
2,93653, Note_on_c, 0, 47, 63
2,93664, Note_on_c, 0, 57, 0
2,93671, Note_on_c, 0, 81, 0
2,93672, Note_on_c, 0, 74, 63
2,93761, Note_on_c, 0, 74, 0
2,93777, Control_c, 0, 64, 34
2,93791, Note_on_c, 0, 81, 64
2,93795, Note_on_c, 0, 55, 60
2,93808, Control_c, 0, 64, 35
2,93884, Control_c, 0, 64, 36
2,93889, Note_on_c, 0, 55, 0
2,93913, Note_on_c, 0, 54, 64
2,93920, Note_on_c, 0, 73, 74
2,93929, Control_c, 0, 64, 36
2,93940, Note_on_c, 0, 81, 0
2,94006, Control_c, 0, 64, 36
2,94032, Note_on_c, 0, 54, 0
2,94036, Control_c, 0, 64, 35
2,94039, Note_on_c, 0, 52, 73
2,94043, Note_on_c, 0, 81, 64
2,94050, Note_on_c, 0, 73, 0
2,94066, Control_c, 0, 64, 34
2,94097, Control_c, 0, 64, 34
2,94157, Control_c, 0, 64, 34
2,94159, Note_on_c, 0, 50, 70
2,94170, Note_on_c, 0, 52, 0
2,94179, Note_on_c, 0, 71, 70
2,94187, Control_c, 0, 64, 35
2,94188, Note_on_c, 0, 81, 0
2,94203, Control_c, 0, 64, 36
2,94218, Control_c, 0, 64, 37
2,94232, Control_c, 0, 64, 38
2,94248, Control_c, 0, 64, 39
2,94263, Control_c, 0, 64, 40
2,94279, Control_c, 0, 64, 41
2,94285, Note_on_c, 0, 54, 77
2,94294, Control_c, 0, 64, 42
2,94305, Note_on_c, 0, 81, 83
2,94308, Control_c, 0, 64, 43
2,94309, Note_on_c, 0, 50, 0
2,94311, Note_on_c, 0, 71, 0
2,94324, Control_c, 0, 64, 44
2,94339, Control_c, 0, 64, 44
2,94377, Control_c, 0, 64, 45
2,94392, Control_c, 0, 64, 46
2,94408, Control_c, 0, 64, 46
2,94421, Note_on_c, 0, 52, 86
2,94423, Control_c, 0, 64, 47
2,94427, Note_on_c, 0, 54, 0
2,94432, Note_on_c, 0, 47, 0
2,94439, Control_c, 0, 64, 47
2,94441, Note_on_c, 0, 79, 73
2,94464, Note_on_c, 0, 81, 0
2,94484, Control_c, 0, 64, 47
2,94544, Note_on_c, 0, 54, 81
2,94556, Note_on_c, 0, 52, 0
2,94561, Control_c, 0, 64, 46
2,94561, Note_on_c, 0, 78, 76
2,94565, Note_on_c, 0, 79, 0
2,94576, Control_c, 0, 64, 46
2,94667, Control_c, 0, 64, 46
2,94669, Note_on_c, 0, 54, 0
2,94673, Note_on_c, 0, 55, 77
2,94691, Note_on_c, 0, 78, 0
2,94695, Note_on_c, 0, 76, 70
2,94697, Control_c, 0, 64, 47
2,94788, Control_c, 0, 64, 46
2,94805, Note_on_c, 0, 50, 68
2,94805, Note_on_c, 0, 79, 69
2,94813, Note_on_c, 0, 76, 0
2,94849, Control_c, 0, 64, 46
2,94880, Control_c, 0, 64, 45
2,94895, Control_c, 0, 64, 44
2,94920, Note_on_c, 0, 50, 0
2,94926, Control_c, 0, 64, 44
2,94927, Note_on_c, 0, 49, 71
2,94936, Note_on_c, 0, 79, 0
2,94938, Note_on_c, 0, 74, 63
2,94956, Control_c, 0, 64, 43
2,94971, Control_c, 0, 64, 43
2,95001, Control_c, 0, 64, 42
2,95022, Note_on_c, 0, 74, 0
2,95051, Note_on_c, 0, 49, 0
2,95052, Note_on_c, 0, 79, 68
2,95066, Note_on_c, 0, 47, 65
2,95123, Control_c, 0, 64, 43
2,95161, Control_c, 0, 64, 43
2,95176, Control_c, 0, 64, 44
2,95181, Note_on_c, 0, 55, 0
2,95184, Note_on_c, 0, 47, 0
2,95185, Note_on_c, 0, 45, 72
2,95191, Control_c, 0, 64, 44
2,95191, Note_on_c, 0, 79, 0
2,95193, Note_on_c, 0, 73, 73
2,95206, Control_c, 0, 64, 45
2,95221, Control_c, 0, 64, 45
2,95237, Control_c, 0, 64, 46
2,95293, Note_on_c, 0, 73, 0
2,95311, Note_on_c, 0, 54, 65
2,95312, Note_on_c, 0, 79, 69
2,95343, Control_c, 0, 64, 45
2,95404, Note_on_c, 0, 54, 0
2,95430, Note_on_c, 0, 52, 66
2,95435, Control_c, 0, 64, 45
2,95452, Note_on_c, 0, 71, 56
2,95452, Note_on_c, 0, 79, 0
2,95481, Control_c, 0, 64, 45
2,95539, Note_on_c, 0, 52, 0
2,95546, Note_on_c, 0, 50, 71
2,95570, Note_on_c, 0, 79, 73
2,95574, Note_on_c, 0, 71, 0
2,95587, Control_c, 0, 64, 45
2,95617, Control_c, 0, 64, 45
2,95665, Note_on_c, 0, 49, 77
2,95687, Note_on_c, 0, 69, 76
2,95692, Note_on_c, 0, 79, 0
2,95695, Note_on_c, 0, 50, 0
2,95723, Control_c, 0, 64, 46
2,95753, Control_c, 0, 64, 46
2,95769, Control_c, 0, 64, 47
2,95771, Note_on_c, 0, 45, 0
2,95784, Control_c, 0, 64, 47
2,95793, Note_on_c, 0, 52, 83
2,95805, Note_on_c, 0, 69, 0
2,95806, Note_on_c, 0, 79, 74
2,95808, Note_on_c, 0, 49, 0
2,95814, Control_c, 0, 64, 48
2,95829, Control_c, 0, 64, 48
2,95859, Control_c, 0, 64, 49
2,95885, Note_on_c, 0, 79, 0
2,95913, Control_c, 0, 64, 50
2,95928, Note_on_c, 0, 50, 82
2,95938, Note_on_c, 0, 52, 0
2,95943, Control_c, 0, 64, 50
2,95943, Note_on_c, 0, 78, 76
2,95959, Control_c, 0, 64, 51
2,95974, Control_c, 0, 64, 50
2,95988, Control_c, 0, 64, 50
2,96004, Control_c, 0, 64, 49
2,96019, Control_c, 0, 64, 48
2,96035, Control_c, 0, 64, 47
2,96049, Note_on_c, 0, 52, 85
2,96050, Control_c, 0, 64, 46
2,96054, Note_on_c, 0, 50, 0
2,96062, Note_on_c, 0, 78, 0
2,96064, Control_c, 0, 64, 45
2,96066, Note_on_c, 0, 76, 60
2,96080, Control_c, 0, 64, 44
2,96095, Control_c, 0, 64, 43
2,96110, Control_c, 0, 64, 43
2,96140, Control_c, 0, 64, 42
2,96166, Note_on_c, 0, 52, 0
2,96175, Note_on_c, 0, 54, 70
2,96187, Control_c, 0, 64, 43
2,96190, Note_on_c, 0, 76, 0
2,96200, Note_on_c, 0, 74, 64
2,96203, Control_c, 0, 64, 44
2,96218, Control_c, 0, 64, 44
2,96289, Note_on_c, 0, 74, 0
2,96308, Control_c, 0, 64, 45
2,96309, Note_on_c, 0, 78, 74
2,96322, Note_on_c, 0, 49, 62
2,96324, Control_c, 0, 64, 45
2,96339, Control_c, 0, 64, 46
2,96436, Note_on_c, 0, 73, 75
2,96437, Note_on_c, 0, 49, 0
2,96446, Note_on_c, 0, 47, 63
2,96448, Note_on_c, 0, 78, 0
2,96546, Note_on_c, 0, 47, 0
2,96551, Note_on_c, 0, 78, 76
2,96557, Note_on_c, 0, 73, 0
2,96559, Note_on_c, 0, 45, 62
2,96561, Note_on_c, 0, 54, 0
2,96566, Control_c, 0, 64, 46
2,96611, Control_c, 0, 64, 46
2,96639, Note_on_c, 0, 45, 0
2,96657, Control_c, 0, 64, 45
2,96671, Note_on_c, 0, 43, 67
2,96690, Note_on_c, 0, 71, 71
2,96703, Note_on_c, 0, 78, 0
2,96757, Control_c, 0, 64, 45
2,96801, Note_on_c, 0, 71, 0
2,96811, Note_on_c, 0, 47, 64
2,96812, Note_on_c, 0, 78, 75
2,96813, Note_on_c, 0, 43, 0
2,96831, Control_c, 0, 64, 45
2,96921, Note_on_c, 0, 47, 0
2,96925, Note_on_c, 0, 69, 73
2,96930, Note_on_c, 0, 49, 70
2,96938, Control_c, 0, 64, 46
2,96942, Note_on_c, 0, 78, 0
2,97028, Note_on_c, 0, 49, 0
2,97038, Note_on_c, 0, 69, 0
2,97042, Note_on_c, 0, 50, 68
2,97045, Note_on_c, 0, 78, 81
2,97076, Control_c, 0, 64, 46
2,97106, Control_c, 0, 64, 47
2,97146, Note_on_c, 0, 50, 0
2,97151, Control_c, 0, 64, 47
2,97166, Note_on_c, 0, 67, 72
2,97168, Note_on_c, 0, 52, 69
2,97193, Note_on_c, 0, 78, 0
2,97198, Control_c, 0, 64, 48
2,97213, Control_c, 0, 64, 48
2,97228, Control_c, 0, 64, 49
2,97243, Control_c, 0, 64, 50
2,97258, Control_c, 0, 64, 51
2,97270, Note_on_c, 0, 67, 0
2,97273, Control_c, 0, 64, 51
2,97283, Note_on_c, 0, 52, 0
2,97289, Control_c, 0, 64, 52
2,97289, Note_on_c, 0, 54, 77
2,97304, Control_c, 0, 64, 52
2,97312, Note_on_c, 0, 76, 37
2,97317, Note_on_c, 0, 77, 43
2,97320, Control_c, 0, 64, 53
2,97344, Note_on_c, 0, 77, 0
2,97398, Note_on_c, 0, 76, 0
2,97398, Note_on_c, 0, 76, 33
2,97402, Note_on_c, 0, 54, 0
2,97405, Note_on_c, 0, 55, 71
2,97425, Control_c, 0, 64, 52
2,97448, Control_c, 0, 64, 52
2,97466, Note_on_c, 0, 76, 0
2,97470, Note_on_c, 0, 74, 53
2,97479, Control_c, 0, 64, 51
2,97525, Note_on_c, 0, 55, 0
2,97525, Note_on_c, 0, 57, 69
2,97585, Control_c, 0, 64, 52
2,97587, Note_on_c, 0, 74, 0
2,97588, Note_on_c, 0, 73, 56
2,97619, Note_on_c, 0, 57, 0
2,97647, Note_on_c, 0, 55, 67
2,97691, Control_c, 0, 64, 51
2,97699, Note_on_c, 0, 76, 65
2,97702, Note_on_c, 0, 73, 0
2,97753, Note_on_c, 0, 55, 0
2,97768, Note_on_c, 0, 54, 62
2,97867, Note_on_c, 0, 54, 0
2,97882, Note_on_c, 0, 52, 76
2,97898, Note_on_c, 0, 71, 63
2,97912, Note_on_c, 0, 76, 0
2,97989, Note_on_c, 0, 52, 0
2,98001, Note_on_c, 0, 71, 0
2,98002, Note_on_c, 0, 50, 60
2,98008, Note_on_c, 0, 76, 66
2,98123, Note_on_c, 0, 50, 0
2,98136, Note_on_c, 0, 49, 66
2,98142, Note_on_c, 0, 76, 0
2,98145, Note_on_c, 0, 69, 69
2,98217, Control_c, 0, 64, 51
2,98246, Note_on_c, 0, 49, 0
2,98253, Note_on_c, 0, 69, 0
2,98264, Note_on_c, 0, 45, 59
2,98270, Note_on_c, 0, 76, 73
2,98381, Note_on_c, 0, 67, 74
2,98384, Note_on_c, 0, 45, 0
2,98385, Note_on_c, 0, 47, 65
2,98399, Note_on_c, 0, 76, 0
2,98475, Note_on_c, 0, 67, 0
2,98500, Note_on_c, 0, 76, 72
2,98505, Note_on_c, 0, 47, 0
2,98506, Control_c, 0, 64, 51
2,98506, Note_on_c, 0, 49, 76
2,98582, Control_c, 0, 64, 52
2,98595, Note_on_c, 0, 76, 0
2,98612, Control_c, 0, 64, 53
2,98615, Note_on_c, 0, 49, 0
2,98618, Note_on_c, 0, 66, 79
2,98623, Note_on_c, 0, 50, 72
2,98644, Control_c, 0, 64, 53
2,98673, Control_c, 0, 64, 54
2,98704, Control_c, 0, 64, 53
2,98713, Note_on_c, 0, 50, 0
2,98729, Note_on_c, 0, 66, 0
2,98735, Control_c, 0, 64, 53
2,98735, Note_on_c, 0, 52, 78
2,98739, Note_on_c, 0, 76, 73
2,98811, Control_c, 0, 64, 52
2,98829, Note_on_c, 0, 76, 0
2,98841, Note_on_c, 0, 52, 0
2,98855, Note_on_c, 0, 54, 77
2,98864, Note_on_c, 0, 74, 56
2,98973, Note_on_c, 0, 54, 0
2,98981, Note_on_c, 0, 55, 81
2,98985, Note_on_c, 0, 66, 68
2,98989, Note_on_c, 0, 74, 0
2,99044, Control_c, 0, 64, 53
2,99085, Note_on_c, 0, 55, 0
2,99101, Note_on_c, 0, 57, 88
2,99111, Note_on_c, 0, 64, 68
2,99134, Note_on_c, 0, 66, 0
2,99143, Note_on_c, 0, 57, 0
2,99195, Control_c, 0, 64, 52
2,99217, Note_on_c, 0, 64, 0
2,99226, Note_on_c, 0, 67, 65
2,99240, Control_c, 0, 64, 52
2,99302, Control_c, 0, 64, 51
2,99316, Control_c, 0, 64, 51
2,99326, Note_on_c, 0, 67, 0
2,99338, Note_on_c, 0, 45, 76
2,99347, Control_c, 0, 64, 50
2,99348, Note_on_c, 0, 74, 62
2,99363, Control_c, 0, 64, 50
2,99378, Control_c, 0, 64, 49
2,99393, Control_c, 0, 64, 47
2,99393, Note_on_c, 0, 45, 0
2,99409, Control_c, 0, 64, 46
2,99424, Control_c, 0, 64, 45
2,99427, Note_on_c, 0, 74, 0
2,99438, Control_c, 0, 64, 44
2,99455, Control_c, 0, 64, 42
2,99468, Note_on_c, 0, 73, 62
2,99470, Control_c, 0, 64, 41
2,99485, Control_c, 0, 64, 40
2,99500, Control_c, 0, 64, 39
2,99515, Control_c, 0, 64, 39
2,99546, Control_c, 0, 64, 38
2,99559, Note_on_c, 0, 73, 0
2,99578, Note_on_c, 0, 74, 61
2,99584, Note_on_c, 0, 50, 84
2,99607, Control_c, 0, 64, 39
2,99622, Control_c, 0, 64, 39
2,99625, Note_on_c, 0, 50, 0
2,99656, Note_on_c, 0, 74, 0
2,99663, Note_on_c, 0, 76, 69
2,99667, Control_c, 0, 64, 39
2,99683, Control_c, 0, 64, 38
2,99728, Control_c, 0, 64, 38
2,99748, Note_on_c, 0, 76, 0
2,99770, Note_on_c, 0, 74, 63
2,99796, Control_c, 0, 64, 38
2,99818, Note_on_c, 0, 74, 0
2,99835, Note_on_c, 0, 76, 65
2,99843, Note_on_c, 0, 48, 69
2,99872, Control_c, 0, 64, 39
2,99899, Note_on_c, 0, 76, 0
2,99922, Note_on_c, 0, 74, 63
2,99938, Note_on_c, 0, 48, 0
2,99948, Control_c, 0, 64, 39
2,99953, Note_on_c, 0, 50, 71
2,99964, Note_on_c, 0, 74, 0
2,99976, Note_on_c, 0, 76, 58
2,99993, Control_c, 0, 64, 40
2,100024, Control_c, 0, 64, 40
2,100032, Note_on_c, 0, 76, 0
2,100053, Note_on_c, 0, 74, 62
2,100055, Control_c, 0, 64, 41
2,100065, Note_on_c, 0, 50, 0
2,100071, Note_on_c, 0, 52, 79
2,100085, Control_c, 0, 64, 41
2,100097, Note_on_c, 0, 74, 0
2,100100, Control_c, 0, 64, 42
2,100101, Note_on_c, 0, 76, 63
2,100144, Note_on_c, 0, 52, 0
2,100163, Note_on_c, 0, 76, 0
2,100175, Note_on_c, 0, 50, 75
2,100181, Note_on_c, 0, 74, 59
2,100225, Note_on_c, 0, 74, 0
2,100230, Note_on_c, 0, 76, 61
2,100237, Control_c, 0, 64, 42
2,100268, Control_c, 0, 64, 42
2,100292, Note_on_c, 0, 48, 89
2,100292, Note_on_c, 0, 50, 0
2,100292, Note_on_c, 0, 76, 0
2,100298, Control_c, 0, 64, 42
2,100304, Note_on_c, 0, 74, 64
2,100329, Control_c, 0, 64, 44
2,100333, Note_on_c, 0, 48, 0
2,100344, Control_c, 0, 64, 45
2,100353, Note_on_c, 0, 74, 0
2,100355, Note_on_c, 0, 76, 67
2,100358, Control_c, 0, 64, 45
2,100374, Control_c, 0, 64, 46
2,100415, Note_on_c, 0, 76, 0
2,100420, Control_c, 0, 64, 46
2,100434, Control_c, 0, 64, 47
2,100440, Note_on_c, 0, 74, 61
2,100450, Control_c, 0, 64, 47
2,100477, Note_on_c, 0, 74, 0
2,100479, Note_on_c, 0, 76, 63
2,100548, Note_on_c, 0, 47, 77
2,100548, Note_on_c, 0, 76, 0
2,100572, Note_on_c, 0, 74, 67
2,100594, Control_c, 0, 64, 48
2,100609, Note_on_c, 0, 74, 0
2,100609, Note_on_c, 0, 76, 63
2,100610, Control_c, 0, 64, 48
2,100625, Control_c, 0, 64, 49
2,100659, Note_on_c, 0, 48, 76
2,100665, Note_on_c, 0, 47, 0
2,100665, Note_on_c, 0, 76, 0
2,100670, Control_c, 0, 64, 50
2,100683, Note_on_c, 0, 74, 66
2,100685, Control_c, 0, 64, 50
2,100715, Control_c, 0, 64, 51
2,100718, Note_on_c, 0, 76, 65
2,100723, Note_on_c, 0, 74, 0
2,100781, Note_on_c, 0, 48, 0
2,100784, Note_on_c, 0, 50, 73
2,100784, Note_on_c, 0, 76, 0
2,100792, Note_on_c, 0, 74, 64
2,100822, Control_c, 0, 64, 50
2,100904, Note_on_c, 0, 48, 79
2,100909, Note_on_c, 0, 50, 0
2,100943, Control_c, 0, 64, 50
2,100974, Control_c, 0, 64, 49
2,101005, Note_on_c, 0, 48, 0
2,101034, Note_on_c, 0, 47, 85
2,101090, Note_on_c, 0, 47, 0
2,101097, Control_c, 0, 64, 49
2,101149, Note_on_c, 0, 67, 79
2,101173, Control_c, 0, 64, 48
2,101292, Note_on_c, 0, 67, 0
2,101297, Note_on_c, 0, 65, 75
2,101306, Note_on_c, 0, 48, 81
2,101332, Control_c, 0, 64, 48
2,101347, Control_c, 0, 64, 47
2,101363, Control_c, 0, 64, 47
2,101363, Note_on_c, 0, 48, 0
2,101375, Note_on_c, 0, 65, 0
2,101378, Control_c, 0, 64, 46
2,101393, Control_c, 0, 64, 45
2,101408, Control_c, 0, 64, 45
2,101424, Note_on_c, 0, 64, 77
2,101469, Control_c, 0, 64, 45
2,101485, Control_c, 0, 64, 46
2,101515, Control_c, 0, 64, 46
2,101530, Control_c, 0, 64, 47
2,101545, Control_c, 0, 64, 47
2,101552, Note_on_c, 0, 62, 74
2,101554, Note_on_c, 0, 64, 0
2,101557, Note_on_c, 0, 50, 86
2,101560, Control_c, 0, 64, 48
2,101576, Control_c, 0, 64, 49
2,101606, Control_c, 0, 64, 49
2,101607, Note_on_c, 0, 50, 0
2,101624, Note_on_c, 0, 62, 0
2,101652, Control_c, 0, 64, 50
2,101667, Control_c, 0, 64, 50
2,101677, Note_on_c, 0, 65, 72
2,101682, Control_c, 0, 64, 51
2,101697, Control_c, 0, 64, 52
2,101712, Control_c, 0, 64, 53
2,101742, Control_c, 0, 64, 53
2,101810, Note_on_c, 0, 64, 72
2,101812, Note_on_c, 0, 55, 80
2,101812, Note_on_c, 0, 65, 0
2,101818, Control_c, 0, 64, 54
2,101842, Note_on_c, 0, 55, 0
2,101864, Control_c, 0, 64, 53
2,101879, Control_c, 0, 64, 53
2,101907, Note_on_c, 0, 74, 0
2,101910, Control_c, 0, 64, 52
2,101925, Note_on_c, 0, 64, 0
2,101932, Note_on_c, 0, 65, 70
2,101955, Control_c, 0, 64, 52
2,101971, Control_c, 0, 64, 51
2,101986, Control_c, 0, 64, 50
2,102002, Control_c, 0, 64, 49
2,102017, Control_c, 0, 64, 47
2,102039, Control_c, 0, 64, 45
2,102055, Control_c, 0, 64, 43
2,102068, Note_on_c, 0, 65, 0
2,102070, Control_c, 0, 64, 41
2,102072, Note_on_c, 0, 45, 78
2,102074, Note_on_c, 0, 64, 73
2,102074, Note_on_c, 0, 72, 78
2,102086, Control_c, 0, 64, 39
2,102101, Control_c, 0, 64, 36
2,102116, Control_c, 0, 64, 34
2,102131, Control_c, 0, 64, 31
2,102146, Control_c, 0, 64, 28
2,102148, Note_on_c, 0, 64, 0
2,102162, Control_c, 0, 64, 26
2,102176, Control_c, 0, 64, 24
2,102206, Note_on_c, 0, 62, 66
2,102207, Control_c, 0, 64, 23
2,102298, Control_c, 0, 64, 21
2,102313, Control_c, 0, 64, 20
2,102320, Note_on_c, 0, 62, 0
2,102331, Note_on_c, 0, 60, 66
2,102380, Note_on_c, 0, 60, 0
2,102435, Control_c, 0, 64, 21
2,102450, Control_c, 0, 64, 24
2,102451, Note_on_c, 0, 64, 66
2,102465, Control_c, 0, 64, 26
2,102480, Control_c, 0, 64, 28
2,102496, Control_c, 0, 64, 29
2,102510, Control_c, 0, 64, 31
2,102526, Control_c, 0, 64, 32
2,102532, Note_on_c, 0, 45, 0
2,102541, Control_c, 0, 64, 34
2,102556, Control_c, 0, 64, 36
2,102572, Control_c, 0, 64, 37
2,102575, Note_on_c, 0, 47, 78
2,102577, Note_on_c, 0, 62, 70
2,102582, Note_on_c, 0, 64, 0
2,102586, Control_c, 0, 64, 37
2,102610, Note_on_c, 0, 47, 0
2,102617, Control_c, 0, 64, 38
2,102632, Control_c, 0, 64, 38
2,102671, Note_on_c, 0, 62, 0
2,102672, Note_on_c, 0, 72, 0
2,102698, Note_on_c, 0, 64, 75
2,102817, Note_on_c, 0, 64, 0
2,102828, Note_on_c, 0, 71, 78
2,102830, Note_on_c, 0, 62, 80
2,102833, Note_on_c, 0, 48, 82
2,102888, Note_on_c, 0, 48, 0
2,102888, Note_on_c, 0, 62, 0
2,102914, Control_c, 0, 64, 39
2,102930, Control_c, 0, 64, 39
2,102945, Control_c, 0, 64, 40
2,102957, Note_on_c, 0, 60, 69
2,103020, Control_c, 0, 64, 39
2,103066, Control_c, 0, 64, 40
2,103073, Note_on_c, 0, 60, 0
2,103078, Note_on_c, 0, 59, 67
2,103082, Control_c, 0, 64, 40
2,103084, Note_on_c, 0, 50, 82
2,103096, Control_c, 0, 64, 41
2,103111, Control_c, 0, 64, 41
2,103133, Note_on_c, 0, 50, 0
2,103133, Note_on_c, 0, 59, 0
2,103142, Control_c, 0, 64, 42
2,103156, Control_c, 0, 64, 42
2,103172, Control_c, 0, 64, 43
2,103187, Control_c, 0, 64, 44
2,103203, Control_c, 0, 64, 45
2,103203, Note_on_c, 0, 62, 70
2,103218, Control_c, 0, 64, 46
2,103233, Control_c, 0, 64, 47
2,103249, Control_c, 0, 64, 47
2,103279, Control_c, 0, 64, 48
2,103309, Control_c, 0, 64, 49
2,103328, Note_on_c, 0, 62, 0
2,103334, Note_on_c, 0, 52, 89
2,103340, Control_c, 0, 64, 50
2,103343, Note_on_c, 0, 60, 68
2,103371, Control_c, 0, 64, 50
2,103374, Note_on_c, 0, 52, 0
2,103417, Control_c, 0, 64, 51
2,103426, Note_on_c, 0, 60, 0
2,103447, Control_c, 0, 64, 52
2,103451, Note_on_c, 0, 62, 72
2,103462, Control_c, 0, 64, 52
2,103462, Note_on_c, 0, 71, 0
2,103477, Control_c, 0, 64, 53
2,103588, Note_on_c, 0, 42, 84
2,103590, Note_on_c, 0, 62, 0
2,103594, Note_on_c, 0, 60, 74
2,103598, Note_on_c, 0, 69, 77
2,103664, Note_on_c, 0, 60, 0
2,103683, Control_c, 0, 64, 52
2,103698, Control_c, 0, 64, 52
2,103713, Control_c, 0, 64, 51
2,103729, Control_c, 0, 64, 51
2,103735, Note_on_c, 0, 59, 68
2,103744, Control_c, 0, 64, 50
2,103759, Control_c, 0, 64, 50
2,103775, Control_c, 0, 64, 49
2,103789, Control_c, 0, 64, 47
2,103805, Control_c, 0, 64, 47
2,103820, Control_c, 0, 64, 46
2,103851, Control_c, 0, 64, 45
2,103854, Note_on_c, 0, 59, 0
2,103857, Note_on_c, 0, 57, 67
2,103880, Control_c, 0, 64, 45
2,103903, Note_on_c, 0, 57, 0
2,103911, Control_c, 0, 64, 44
2,103927, Control_c, 0, 64, 43
2,103941, Control_c, 0, 64, 42
2,103973, Note_on_c, 0, 60, 72
2,103986, Control_c, 0, 64, 43
2,104002, Control_c, 0, 64, 43
2,104017, Control_c, 0, 64, 44
2,104032, Control_c, 0, 64, 44
2,104059, Note_on_c, 0, 60, 0
2,104093, Control_c, 0, 64, 45
2,104093, Note_on_c, 0, 59, 77
2,104094, Note_on_c, 0, 43, 75
2,104108, Control_c, 0, 64, 45
2,104122, Note_on_c, 0, 42, 0
2,104124, Control_c, 0, 64, 46
2,104140, Note_on_c, 0, 43, 0
2,104142, Note_on_c, 0, 69, 0
2,104169, Control_c, 0, 64, 45
2,104220, Note_on_c, 0, 67, 73
2,104291, Control_c, 0, 64, 46
2,104352, Note_on_c, 0, 69, 79
2,104353, Note_on_c, 0, 42, 72
2,104372, Note_on_c, 0, 67, 0
2,104375, Control_c, 0, 64, 47
2,104390, Control_c, 0, 64, 47
2,104406, Control_c, 0, 64, 48
2,104421, Control_c, 0, 64, 48
2,104435, Control_c, 0, 64, 49
2,104451, Control_c, 0, 64, 50
2,104456, Note_on_c, 0, 42, 0
2,104466, Control_c, 0, 64, 50
2,104473, Note_on_c, 0, 69, 0
2,104474, Note_on_c, 0, 43, 72
2,104476, Note_on_c, 0, 67, 78
2,104482, Control_c, 0, 64, 51
2,104497, Control_c, 0, 64, 51
2,104567, Note_on_c, 0, 67, 0
2,104578, Note_on_c, 0, 43, 0
2,104579, Note_on_c, 0, 45, 75
2,104590, Note_on_c, 0, 66, 76
2,104594, Note_on_c, 0, 59, 0
2,104603, Control_c, 0, 64, 51
2,104618, Control_c, 0, 64, 50
2,104633, Control_c, 0, 64, 49
2,104649, Control_c, 0, 64, 46
2,104664, Control_c, 0, 64, 42
2,104673, Note_on_c, 0, 45, 0
2,104679, Control_c, 0, 64, 37
2,104683, Note_on_c, 0, 47, 75
2,104695, Control_c, 0, 64, 31
2,104701, Note_on_c, 0, 67, 72
2,104709, Control_c, 0, 64, 23
2,104710, Note_on_c, 0, 66, 0
2,104725, Control_c, 0, 64, 0
2,104797, Note_on_c, 0, 47, 0
2,104819, Note_on_c, 0, 57, 66
2,104820, Note_on_c, 0, 36, 75
2,104834, Note_on_c, 0, 66, 72
2,104857, Note_on_c, 0, 57, 0
2,104861, Control_c, 0, 64, 61
2,104869, Note_on_c, 0, 36, 0
2,104876, Control_c, 0, 64, 67
2,104886, Note_on_c, 0, 67, 0
2,104892, Control_c, 0, 64, 72
2,104906, Control_c, 0, 64, 75
2,104922, Control_c, 0, 64, 77
2,104937, Control_c, 0, 64, 78
2,104942, Note_on_c, 0, 66, 0
2,104944, Note_on_c, 0, 62, 60
2,105009, Note_on_c, 0, 62, 0
2,105013, Control_c, 0, 64, 77
2,105025, Note_on_c, 0, 64, 52
2,105028, Control_c, 0, 64, 76
2,105044, Control_c, 0, 64, 74
2,105059, Control_c, 0, 64, 71
2,105071, Note_on_c, 0, 60, 70
2,105074, Control_c, 0, 64, 66
2,105083, Note_on_c, 0, 64, 0
2,105083, Note_on_c, 0, 66, 75
2,105089, Control_c, 0, 64, 60
2,105104, Control_c, 0, 64, 52
2,105127, Control_c, 0, 64, 47
2,105142, Control_c, 0, 64, 46
2,105147, Note_on_c, 0, 60, 0
2,105157, Control_c, 0, 64, 43
2,105172, Control_c, 0, 64, 37
2,105187, Control_c, 0, 64, 24
2,105202, Note_on_c, 0, 59, 60
2,105203, Note_on_c, 0, 62, 65
2,105205, Control_c, 0, 64, 0
2,105209, Note_on_c, 0, 66, 0
2,105312, Note_on_c, 0, 59, 0
2,105325, Note_on_c, 0, 62, 0
2,105326, Control_c, 0, 64, 10
2,105328, Note_on_c, 0, 67, 77
2,105331, Note_on_c, 0, 57, 65
2,105341, Control_c, 0, 64, 15
2,105355, Control_c, 0, 64, 17
2,105399, Note_on_c, 0, 57, 0
2,105402, Control_c, 0, 64, 18
2,105417, Control_c, 0, 64, 21
2,105431, Control_c, 0, 64, 25
2,105437, Note_on_c, 0, 67, 0
2,105440, Note_on_c, 0, 55, 63
2,105443, Note_on_c, 0, 62, 67
2,105447, Control_c, 0, 64, 28
2,105462, Control_c, 0, 64, 31
2,105477, Control_c, 0, 64, 32
2,105508, Control_c, 0, 64, 33
2,105508, Note_on_c, 0, 55, 0
2,105539, Control_c, 0, 64, 34
2,105553, Control_c, 0, 64, 35
2,105554, Note_on_c, 0, 54, 53
2,105567, Note_on_c, 0, 69, 75
2,105569, Control_c, 0, 64, 37
2,105584, Control_c, 0, 64, 38
2,105587, Note_on_c, 0, 62, 0
2,105598, Control_c, 0, 64, 38
2,105665, Note_on_c, 0, 54, 0
2,105672, Note_on_c, 0, 52, 62
2,105675, Note_on_c, 0, 69, 0
2,105690, Control_c, 0, 64, 39
2,105704, Note_on_c, 0, 62, 61
2,105705, Control_c, 0, 64, 40
2,105720, Control_c, 0, 64, 41
2,105736, Control_c, 0, 64, 41
2,105764, Note_on_c, 0, 52, 0
2,105804, Note_on_c, 0, 50, 58
2,105818, Note_on_c, 0, 71, 67
2,105825, Note_on_c, 0, 62, 0
2,105842, Control_c, 0, 64, 42
2,105857, Control_c, 0, 64, 42
2,105893, Note_on_c, 0, 50, 0
2,105933, Note_on_c, 0, 48, 60
2,105942, Note_on_c, 0, 71, 0
2,105955, Note_on_c, 0, 62, 60
2,105986, Control_c, 0, 64, 43
2,106002, Control_c, 0, 64, 43
2,106032, Note_on_c, 0, 48, 0
2,106048, Control_c, 0, 64, 43
2,106053, Note_on_c, 0, 62, 0
2,106061, Note_on_c, 0, 47, 58
2,106063, Control_c, 0, 64, 42
2,106076, Note_on_c, 0, 72, 67
2,106135, Note_on_c, 0, 72, 0
2,106146, Note_on_c, 0, 47, 0
2,106181, Note_on_c, 0, 62, 58
2,106189, Note_on_c, 0, 45, 50
2,106230, Control_c, 0, 64, 43
2,106266, Note_on_c, 0, 45, 0
2,106275, Control_c, 0, 64, 43
2,106278, Note_on_c, 0, 62, 0
2,106309, Note_on_c, 0, 43, 47
2,106325, Note_on_c, 0, 71, 53
2,106382, Control_c, 0, 64, 44
2,106397, Control_c, 0, 64, 44
2,106412, Note_on_c, 0, 71, 0
2,106428, Control_c, 0, 64, 45
2,106429, Note_on_c, 0, 43, 0
2,106436, Note_on_c, 0, 79, 66
2,106438, Note_on_c, 0, 45, 47
2,106458, Control_c, 0, 64, 46
2,106489, Control_c, 0, 64, 46
2,106504, Control_c, 0, 64, 47
2,106534, Control_c, 0, 64, 47
2,106568, Note_on_c, 0, 45, 0
2,106568, Note_on_c, 0, 79, 0
2,106569, Note_on_c, 0, 77, 70
2,106573, Note_on_c, 0, 47, 56
2,106580, Control_c, 0, 64, 48
2,106610, Control_c, 0, 64, 48
2,106658, Note_on_c, 0, 47, 0
2,106663, Control_c, 0, 64, 49
2,106678, Note_on_c, 0, 77, 0
2,106684, Note_on_c, 0, 43, 50
2,106692, Note_on_c, 0, 76, 72
2,106739, Control_c, 0, 64, 49
2,106770, Control_c, 0, 64, 50
2,106785, Control_c, 0, 64, 50
2,106800, Control_c, 0, 64, 51
2,106806, Note_on_c, 0, 43, 0
2,106806, Note_on_c, 0, 48, 58
2,106816, Note_on_c, 0, 74, 65
2,106817, Note_on_c, 0, 76, 0
2,106862, Control_c, 0, 64, 51
2,106892, Control_c, 0, 64, 52
2,106907, Control_c, 0, 64, 52
2,106911, Note_on_c, 0, 48, 0
2,106917, Note_on_c, 0, 74, 0
2,106923, Control_c, 0, 64, 53
2,106933, Note_on_c, 0, 43, 57
2,106939, Note_on_c, 0, 72, 69
2,106953, Control_c, 0, 64, 53
2,106968, Control_c, 0, 64, 54
2,106998, Control_c, 0, 64, 54
2,107044, Control_c, 0, 64, 55
2,107054, Note_on_c, 0, 43, 0
2,107055, Note_on_c, 0, 50, 58
2,107059, Control_c, 0, 64, 55
2,107064, Note_on_c, 0, 71, 67
2,107064, Note_on_c, 0, 72, 0
2,107074, Control_c, 0, 64, 56
2,107159, Note_on_c, 0, 50, 0
2,107176, Note_on_c, 0, 43, 57
2,107183, Note_on_c, 0, 69, 73
2,107193, Note_on_c, 0, 71, 0
2,107272, Control_c, 0, 64, 55
2,107300, Note_on_c, 0, 69, 0
2,107301, Note_on_c, 0, 43, 0
2,107303, Note_on_c, 0, 67, 71
2,107304, Note_on_c, 0, 52, 67
2,107333, Control_c, 0, 64, 55
2,107396, Note_on_c, 0, 67, 0
2,107400, Note_on_c, 0, 52, 0
2,107426, Note_on_c, 0, 43, 62
2,107427, Note_on_c, 0, 65, 73
2,107431, Control_c, 0, 64, 55
2,107447, Control_c, 0, 64, 56
2,107542, Note_on_c, 0, 64, 75
2,107542, Note_on_c, 0, 65, 0
2,107546, Note_on_c, 0, 43, 0
2,107553, Control_c, 0, 64, 55
2,107553, Note_on_c, 0, 53, 63
2,107569, Control_c, 0, 64, 55
2,107583, Control_c, 0, 64, 53
2,107598, Control_c, 0, 64, 50
2,107614, Control_c, 0, 64, 30
2,107628, Control_c, 0, 64, 0
2,107648, Note_on_c, 0, 53, 0
2,107656, Note_on_c, 0, 64, 0
2,107658, Note_on_c, 0, 62, 78
2,107661, Note_on_c, 0, 43, 64
2,107720, Control_c, 0, 64, 46
2,107736, Control_c, 0, 64, 63
2,107751, Control_c, 0, 64, 66
2,107756, Note_on_c, 0, 43, 0
2,107758, Note_on_c, 0, 62, 0
2,107767, Control_c, 0, 64, 68
2,107774, Note_on_c, 0, 60, 76
2,107782, Control_c, 0, 64, 71
2,107795, Note_on_c, 0, 52, 58
2,107797, Control_c, 0, 64, 73
2,107812, Control_c, 0, 64, 75
2,107831, Note_on_c, 0, 60, 0
2,107887, Note_on_c, 0, 52, 0
2,107888, Control_c, 0, 64, 75
2,107903, Control_c, 0, 64, 74
2,107913, Note_on_c, 0, 76, 77
2,107918, Control_c, 0, 64, 72
2,107922, Note_on_c, 0, 40, 62
2,107933, Control_c, 0, 64, 67
2,107948, Control_c, 0, 64, 63
2,107965, Control_c, 0, 64, 56
2,107980, Control_c, 0, 64, 53
2,107993, Note_on_c, 0, 42, 65
2,107995, Control_c, 0, 64, 52
2,108010, Control_c, 0, 64, 51
2,108025, Control_c, 0, 64, 48
2,108029, Note_on_c, 0, 40, 0
2,108033, Note_on_c, 0, 44, 73
2,108040, Control_c, 0, 64, 44
2,108040, Note_on_c, 0, 74, 73
2,108055, Control_c, 0, 64, 38
2,108070, Control_c, 0, 64, 34
2,108071, Note_on_c, 0, 76, 0
2,108074, Note_on_c, 0, 42, 0
2,108086, Control_c, 0, 64, 33
2,108101, Control_c, 0, 64, 32
2,108116, Control_c, 0, 64, 31
2,108146, Control_c, 0, 64, 32
2,108162, Control_c, 0, 64, 33
2,108162, Note_on_c, 0, 72, 79
2,108167, Note_on_c, 0, 40, 72
2,108177, Control_c, 0, 64, 34
2,108178, Note_on_c, 0, 44, 0
2,108200, Control_c, 0, 64, 34
2,108204, Note_on_c, 0, 74, 0
2,108275, Control_c, 0, 64, 35
2,108286, Note_on_c, 0, 72, 0
2,108287, Note_on_c, 0, 40, 0
2,108287, Note_on_c, 0, 45, 69
2,108291, Control_c, 0, 64, 36
2,108297, Note_on_c, 0, 71, 76
2,108306, Control_c, 0, 64, 37
2,108322, Control_c, 0, 64, 38
2,108337, Control_c, 0, 64, 38
2,108378, Note_on_c, 0, 45, 0
2,108382, Control_c, 0, 64, 38
2,108394, Note_on_c, 0, 71, 0
2,108409, Note_on_c, 0, 40, 67
2,108413, Control_c, 0, 64, 38
2,108415, Note_on_c, 0, 69, 76
2,108428, Control_c, 0, 64, 40
2,108443, Control_c, 0, 64, 41
2,108458, Control_c, 0, 64, 42
2,108535, Control_c, 0, 64, 42
2,108535, Note_on_c, 0, 40, 0
2,108535, Note_on_c, 0, 47, 69
2,108544, Note_on_c, 0, 68, 78
2,108550, Control_c, 0, 64, 44
2,108550, Note_on_c, 0, 69, 0
2,108566, Control_c, 0, 64, 45
2,108581, Control_c, 0, 64, 46
2,108596, Control_c, 0, 64, 46
2,108626, Control_c, 0, 64, 47
2,108655, Note_on_c, 0, 40, 72
2,108655, Note_on_c, 0, 47, 0
2,108658, Note_on_c, 0, 66, 80
2,108672, Control_c, 0, 64, 47
2,108688, Control_c, 0, 64, 48
2,108696, Note_on_c, 0, 68, 0
2,108702, Control_c, 0, 64, 48
2,108717, Control_c, 0, 64, 49
2,108779, Note_on_c, 0, 64, 78
2,108780, Note_on_c, 0, 48, 70
2,108784, Note_on_c, 0, 40, 0
2,108793, Note_on_c, 0, 66, 0
2,108807, Control_c, 0, 64, 50
2,108822, Control_c, 0, 64, 51
2,108837, Control_c, 0, 64, 51
2,108880, Note_on_c, 0, 64, 0
2,108883, Note_on_c, 0, 48, 0
2,108884, Control_c, 0, 64, 52
2,108895, Note_on_c, 0, 62, 78
2,108898, Control_c, 0, 64, 52
2,108905, Note_on_c, 0, 40, 74
2,108913, Control_c, 0, 64, 53
2,108929, Control_c, 0, 64, 54
2,108944, Control_c, 0, 64, 54
2,108967, Control_c, 0, 64, 55
2,109012, Control_c, 0, 64, 55
2,109020, Note_on_c, 0, 60, 78
2,109021, Note_on_c, 0, 62, 0
2,109033, Note_on_c, 0, 50, 73
2,109042, Note_on_c, 0, 40, 0
2,109128, Note_on_c, 0, 60, 0
2,109137, Note_on_c, 0, 59, 80
2,109152, Note_on_c, 0, 50, 0
2,109155, Note_on_c, 0, 40, 79
2,109165, Control_c, 0, 64, 55
2,109248, Note_on_c, 0, 40, 0
2,109259, Note_on_c, 0, 59, 0
2,109265, Note_on_c, 0, 57, 73
2,109268, Note_on_c, 0, 49, 78
2,109270, Control_c, 0, 64, 55
2,109302, Control_c, 0, 64, 56
2,109327, Note_on_c, 0, 57, 0
2,109370, Note_on_c, 0, 49, 0
2,109388, Note_on_c, 0, 57, 78
2,109389, Note_on_c, 0, 59, 71
2,109409, Control_c, 0, 64, 55
2,109423, Control_c, 0, 64, 55
2,109497, Note_on_c, 0, 57, 0
2,109513, Note_on_c, 0, 55, 72
2,109514, Note_on_c, 0, 61, 77
2,109528, Note_on_c, 0, 59, 0
2,109575, Control_c, 0, 64, 54
2,109620, Control_c, 0, 64, 55
2,109629, Note_on_c, 0, 57, 68
2,109632, Note_on_c, 0, 55, 0
2,109638, Note_on_c, 0, 54, 79
2,109638, Note_on_c, 0, 61, 0
2,109666, Control_c, 0, 64, 55
2,109697, Control_c, 0, 64, 55
2,109754, Note_on_c, 0, 54, 0
2,109760, Note_on_c, 0, 52, 83
2,109764, Note_on_c, 0, 62, 79
2,109765, Control_c, 0, 64, 55
2,109785, Note_on_c, 0, 57, 0
2,109874, Note_on_c, 0, 52, 0
2,109877, Note_on_c, 0, 50, 77
2,109887, Note_on_c, 0, 57, 75
2,109907, Note_on_c, 0, 62, 0
2,109978, Control_c, 0, 64, 55
2,110003, Note_on_c, 0, 49, 74
2,110005, Note_on_c, 0, 50, 0
2,110012, Note_on_c, 0, 64, 83
2,110024, Control_c, 0, 64, 55
2,110026, Note_on_c, 0, 57, 0
2,110084, Control_c, 0, 64, 55
2,110109, Note_on_c, 0, 64, 0
2,110125, Note_on_c, 0, 47, 79
2,110129, Note_on_c, 0, 49, 0
2,110132, Note_on_c, 0, 57, 75
2,110198, Note_on_c, 0, 47, 0
2,110222, Control_c, 0, 64, 54
2,110234, Note_on_c, 0, 45, 80
2,110246, Note_on_c, 0, 66, 85
2,110274, Note_on_c, 0, 57, 0
2,110312, Control_c, 0, 64, 54
2,110346, Note_on_c, 0, 45, 0
2,110357, Note_on_c, 0, 43, 70
2,110358, Control_c, 0, 64, 53
2,110364, Note_on_c, 0, 57, 68
2,110374, Control_c, 0, 64, 53
2,110386, Note_on_c, 0, 66, 0
2,110388, Control_c, 0, 64, 52
2,110404, Control_c, 0, 64, 52
2,110419, Control_c, 0, 64, 51
2,110434, Control_c, 0, 64, 50
2,110450, Control_c, 0, 64, 49
2,110464, Control_c, 0, 64, 48
2,110479, Control_c, 0, 64, 46
2,110482, Note_on_c, 0, 42, 81
2,110483, Note_on_c, 0, 43, 0
2,110484, Note_on_c, 0, 67, 79
2,110503, Control_c, 0, 64, 45
2,110517, Control_c, 0, 64, 44
2,110518, Note_on_c, 0, 57, 0
2,110533, Control_c, 0, 64, 44
2,110586, Note_on_c, 0, 42, 0
2,110600, Note_on_c, 0, 40, 79
2,110613, Note_on_c, 0, 57, 70
2,110669, Control_c, 0, 64, 44
2,110677, Note_on_c, 0, 57, 0
2,110682, Note_on_c, 0, 67, 0
2,110700, Control_c, 0, 64, 45
2,110719, Note_on_c, 0, 40, 0
2,110730, Control_c, 0, 64, 45
2,110742, Note_on_c, 0, 38, 79
2,110747, Note_on_c, 0, 62, 84
2,110749, Note_on_c, 0, 66, 87
2,110776, Control_c, 0, 64, 46
2,110822, Control_c, 0, 64, 46
2,110837, Control_c, 0, 64, 47
2,110853, Note_on_c, 0, 66, 0
2,110867, Control_c, 0, 64, 47
2,110900, Note_on_c, 0, 62, 0
2,110913, Control_c, 0, 64, 48
2,110944, Control_c, 0, 64, 48
2,110975, Control_c, 0, 64, 49
2,111005, Note_on_c, 0, 71, 81
2,111008, Note_on_c, 0, 60, 80
2,111035, Control_c, 0, 64, 48
2,111093, Note_on_c, 0, 71, 0
2,111127, Control_c, 0, 64, 49
2,111135, Note_on_c, 0, 62, 83
2,111146, Note_on_c, 0, 60, 0
2,111215, Note_on_c, 0, 62, 0
2,111263, Note_on_c, 0, 67, 78
2,111270, Note_on_c, 0, 64, 80
2,111380, Note_on_c, 0, 62, 86
2,111390, Note_on_c, 0, 67, 0
2,111403, Note_on_c, 0, 64, 0
2,111423, Control_c, 0, 64, 49
2,111470, Note_on_c, 0, 62, 0
2,111512, Note_on_c, 0, 64, 83
2,111522, Note_on_c, 0, 60, 78
2,111529, Control_c, 0, 64, 50
2,111589, Control_c, 0, 64, 49
2,111596, Note_on_c, 0, 64, 0
2,111620, Control_c, 0, 64, 50
2,111633, Note_on_c, 0, 60, 0
2,111650, Control_c, 0, 64, 50
2,111665, Control_c, 0, 64, 51
2,111680, Control_c, 0, 64, 51
2,111770, Note_on_c, 0, 59, 83
2,111771, Note_on_c, 0, 69, 79
2,111788, Control_c, 0, 64, 52
2,111858, Note_on_c, 0, 69, 0
2,111891, Note_on_c, 0, 60, 75
2,111895, Control_c, 0, 64, 52
2,111910, Control_c, 0, 64, 53
2,111917, Note_on_c, 0, 59, 0
2,111926, Control_c, 0, 64, 54
2,111941, Control_c, 0, 64, 54
2,112000, Control_c, 0, 64, 55
2,112009, Note_on_c, 0, 60, 0
2,112012, Note_on_c, 0, 62, 72
2,112013, Note_on_c, 0, 66, 87
2,112088, Note_on_c, 0, 62, 0
2,112100, Control_c, 0, 64, 54
2,112136, Note_on_c, 0, 60, 79
2,112154, Note_on_c, 0, 38, 0
2,112183, Note_on_c, 0, 66, 0
2,112206, Control_c, 0, 64, 54
2,112229, Note_on_c, 0, 60, 0
2,112236, Control_c, 0, 64, 53
2,112252, Control_c, 0, 64, 53
2,112269, Note_on_c, 0, 67, 89
2,112276, Note_on_c, 0, 59, 85
2,112375, Note_on_c, 0, 59, 0
2,112408, Note_on_c, 0, 50, 55
2,112486, Note_on_c, 0, 50, 0
2,112525, Control_c, 0, 64, 53
2,112534, Note_on_c, 0, 60, 87
2,112536, Note_on_c, 0, 48, 59
2,112572, Control_c, 0, 64, 54
2,112579, Note_on_c, 0, 60, 0
2,112586, Control_c, 0, 64, 54
2,112638, Note_on_c, 0, 48, 0
2,112656, Note_on_c, 0, 50, 64
2,112767, Note_on_c, 0, 50, 0
2,112771, Note_on_c, 0, 62, 87
2,112778, Note_on_c, 0, 52, 75
2,112835, Note_on_c, 0, 62, 0
2,112837, Control_c, 0, 64, 55
2,112848, Note_on_c, 0, 52, 0
2,112867, Control_c, 0, 64, 55
2,112880, Note_on_c, 0, 50, 81
2,112913, Control_c, 0, 64, 56
2,112943, Control_c, 0, 64, 56
2,112958, Control_c, 0, 64, 57
2,112970, Note_on_c, 0, 67, 0
2,112974, Control_c, 0, 64, 57
2,112989, Control_c, 0, 64, 58
2,113005, Control_c, 0, 64, 58
2,113005, Note_on_c, 0, 50, 0
2,113005, Note_on_c, 0, 64, 79
2,113017, Note_on_c, 0, 48, 86
2,113020, Control_c, 0, 64, 59
2,113035, Control_c, 0, 64, 59
2,113050, Control_c, 0, 64, 60
2,113065, Control_c, 0, 64, 59
2,113096, Control_c, 0, 64, 59
2,113122, Note_on_c, 0, 69, 83
2,113124, Note_on_c, 0, 64, 0
2,113156, Control_c, 0, 64, 58
2,113172, Control_c, 0, 64, 58
2,113186, Control_c, 0, 64, 57
2,113202, Control_c, 0, 64, 56
2,113217, Control_c, 0, 64, 55
2,113225, Note_on_c, 0, 48, 0
2,113230, Note_on_c, 0, 69, 0
2,113232, Control_c, 0, 64, 54
2,113232, Note_on_c, 0, 47, 76
2,113242, Note_on_c, 0, 71, 72
2,113243, Note_on_c, 0, 54, 74
2,113248, Control_c, 0, 64, 54
2,113262, Control_c, 0, 64, 53
2,113277, Control_c, 0, 64, 53
2,113293, Control_c, 0, 64, 52
2,113304, Note_on_c, 0, 71, 0
2,113307, Note_on_c, 0, 69, 75
2,113308, Control_c, 0, 64, 52
2,113324, Control_c, 0, 64, 51
2,113338, Control_c, 0, 64, 50
2,113353, Control_c, 0, 64, 50
2,113365, Note_on_c, 0, 48, 76
2,113367, Note_on_c, 0, 69, 0
2,113369, Control_c, 0, 64, 50
2,113369, Note_on_c, 0, 47, 0
2,113384, Note_on_c, 0, 71, 76
2,113399, Control_c, 0, 64, 51
2,113415, Control_c, 0, 64, 51
2,113430, Control_c, 0, 64, 52
2,113433, Note_on_c, 0, 69, 72
2,113439, Note_on_c, 0, 54, 0
2,113442, Note_on_c, 0, 71, 0
2,113446, Control_c, 0, 64, 53
2,113461, Control_c, 0, 64, 54
2,113475, Control_c, 0, 64, 54
2,113484, Note_on_c, 0, 50, 79
2,113491, Note_on_c, 0, 48, 0
2,113495, Note_on_c, 0, 69, 0
2,113500, Note_on_c, 0, 71, 69
2,113568, Note_on_c, 0, 69, 67
2,113578, Note_on_c, 0, 71, 0
2,113590, Control_c, 0, 64, 54
2,113606, Control_c, 0, 64, 53
2,113613, Note_on_c, 0, 67, 75
2,113620, Control_c, 0, 64, 53
2,113620, Note_on_c, 0, 48, 78
2,113622, Note_on_c, 0, 69, 0
2,113625, Note_on_c, 0, 50, 0
2,113635, Control_c, 0, 64, 52
2,113686, Note_on_c, 0, 69, 75
2,113709, Note_on_c, 0, 67, 0
2,113711, Control_c, 0, 64, 51
2,113727, Control_c, 0, 64, 50
2,113735, Note_on_c, 0, 48, 0
2,113742, Control_c, 0, 64, 49
2,113744, Note_on_c, 0, 47, 81
2,113744, Note_on_c, 0, 71, 95
2,113747, Note_on_c, 0, 55, 76
2,113753, Note_on_c, 0, 69, 0
2,113757, Control_c, 0, 64, 49
2,113833, Control_c, 0, 64, 48
2,113879, Control_c, 0, 64, 48
2,113891, Note_on_c, 0, 71, 0
2,113894, Control_c, 0, 64, 47
2,113925, Control_c, 0, 64, 47
2,113940, Control_c, 0, 64, 46
2,113974, Note_on_c, 0, 47, 0
2,113989, Note_on_c, 0, 55, 0
2,113998, Note_on_c, 0, 72, 81
2,114003, Note_on_c, 0, 69, 81
2,114024, Note_on_c, 0, 45, 71
2,114092, Control_c, 0, 64, 46
2,114102, Note_on_c, 0, 69, 0
2,114114, Note_on_c, 0, 72, 0
2,114122, Control_c, 0, 64, 46
2,114126, Note_on_c, 0, 71, 74
2,114128, Note_on_c, 0, 67, 77
2,114130, Note_on_c, 0, 45, 0
2,114131, Note_on_c, 0, 47, 69
2,114137, Control_c, 0, 64, 47
2,114190, Note_on_c, 0, 67, 0
2,114223, Note_on_c, 0, 71, 0
2,114236, Note_on_c, 0, 47, 0
2,114244, Control_c, 0, 64, 47
2,114255, Note_on_c, 0, 66, 77
2,114258, Note_on_c, 0, 69, 81
2,114259, Control_c, 0, 64, 48
2,114259, Note_on_c, 0, 48, 77
2,114274, Control_c, 0, 64, 49
2,114306, Note_on_c, 0, 66, 0
2,114343, Control_c, 0, 64, 48
2,114371, Note_on_c, 0, 47, 79
2,114374, Note_on_c, 0, 48, 0
2,114380, Note_on_c, 0, 67, 82
2,114384, Note_on_c, 0, 71, 79
2,114389, Control_c, 0, 64, 49
2,114397, Note_on_c, 0, 69, 0
2,114435, Note_on_c, 0, 67, 0
2,114450, Control_c, 0, 64, 48
2,114457, Note_on_c, 0, 71, 0
2,114464, Control_c, 0, 64, 48
2,114479, Control_c, 0, 64, 47
2,114495, Control_c, 0, 64, 47
2,114524, Note_on_c, 0, 47, 0
2,114524, Note_on_c, 0, 72, 87
2,114527, Note_on_c, 0, 45, 72
2,114528, Note_on_c, 0, 69, 82
2,114571, Control_c, 0, 64, 47
2,114600, Control_c, 0, 64, 48
2,114606, Note_on_c, 0, 45, 0
2,114613, Note_on_c, 0, 69, 0
2,114616, Control_c, 0, 64, 48
2,114633, Note_on_c, 0, 72, 0
2,114647, Control_c, 0, 64, 49
2,114662, Control_c, 0, 64, 50
2,114677, Control_c, 0, 64, 50
2,114692, Control_c, 0, 64, 51
2,114769, Control_c, 0, 64, 50
2,114772, Note_on_c, 0, 74, 83
2,114778, Note_on_c, 0, 71, 81
2,114781, Note_on_c, 0, 43, 64
2,114798, Control_c, 0, 64, 50
2,114814, Control_c, 0, 64, 49
2,114829, Control_c, 0, 64, 49
2,114839, Note_on_c, 0, 71, 0
2,114860, Control_c, 0, 64, 48
2,114877, Note_on_c, 0, 74, 0
2,114889, Note_on_c, 0, 43, 0
2,114896, Note_on_c, 0, 45, 64
2,114896, Note_on_c, 0, 72, 79
2,114897, Note_on_c, 0, 69, 83
2,114922, Control_c, 0, 64, 49
2,114955, Note_on_c, 0, 69, 0
2,114974, Note_on_c, 0, 72, 0
2,115013, Note_on_c, 0, 71, 83
2,115015, Note_on_c, 0, 67, 78
2,115018, Note_on_c, 0, 47, 73
2,115019, Note_on_c, 0, 45, 0
2,115061, Note_on_c, 0, 67, 0
2,115087, Note_on_c, 0, 71, 0
2,115123, Note_on_c, 0, 47, 0
2,115142, Note_on_c, 0, 72, 85
2,115147, Note_on_c, 0, 69, 78
2,115149, Note_on_c, 0, 45, 72
2,115175, Note_on_c, 0, 69, 0
2,115187, Control_c, 0, 64, 48
2,115204, Note_on_c, 0, 72, 0
2,115227, Note_on_c, 0, 45, 0
2,115249, Control_c, 0, 64, 48
2,115253, Note_on_c, 0, 43, 70
2,115264, Control_c, 0, 64, 48
2,115265, Note_on_c, 0, 74, 90
2,115270, Note_on_c, 0, 71, 86
2,115279, Control_c, 0, 64, 49
2,115309, Control_c, 0, 64, 49
2,115311, Note_on_c, 0, 71, 0
2,115325, Control_c, 0, 64, 50
2,115333, Note_on_c, 0, 74, 0
2,115340, Note_on_c, 0, 43, 0
2,115355, Control_c, 0, 64, 50
2,115371, Control_c, 0, 64, 51
2,115380, Note_on_c, 0, 55, 67
2,115385, Control_c, 0, 64, 53
2,115400, Control_c, 0, 64, 54
2,115458, Note_on_c, 0, 55, 0
2,115461, Control_c, 0, 64, 53
2,115473, Note_on_c, 0, 54, 70
2,115476, Control_c, 0, 64, 52
2,115492, Control_c, 0, 64, 52
2,115506, Control_c, 0, 64, 51
2,115516, Note_on_c, 0, 72, 88
2,115517, Note_on_c, 0, 69, 85
2,115559, Note_on_c, 0, 54, 0
2,115566, Note_on_c, 0, 52, 69
2,115568, Control_c, 0, 64, 52
2,115575, Note_on_c, 0, 69, 0
2,115595, Note_on_c, 0, 72, 0
2,115645, Note_on_c, 0, 52, 0
2,115662, Note_on_c, 0, 55, 68
2,115689, Control_c, 0, 64, 52
2,115718, Control_c, 0, 64, 52
2,115749, Control_c, 0, 64, 51
2,115766, Note_on_c, 0, 71, 87
2,115769, Note_on_c, 0, 55, 0
2,115775, Note_on_c, 0, 67, 79
2,115782, Note_on_c, 0, 50, 67
2,115810, Control_c, 0, 64, 52
2,115848, Note_on_c, 0, 50, 0
2,115851, Note_on_c, 0, 71, 0
2,115892, Note_on_c, 0, 55, 68
2,115894, Control_c, 0, 64, 52
2,115909, Control_c, 0, 64, 53
2,115925, Control_c, 0, 64, 53
2,115940, Control_c, 0, 64, 54
2,115970, Control_c, 0, 64, 54
2,116000, Control_c, 0, 64, 55
2,116019, Note_on_c, 0, 55, 0
2,116033, Note_on_c, 0, 69, 89
2,116040, Note_on_c, 0, 49, 65
2,116047, Control_c, 0, 64, 55
2,116062, Control_c, 0, 64, 56
2,116092, Control_c, 0, 64, 56
2,116107, Control_c, 0, 64, 57
2,116108, Note_on_c, 0, 69, 0
2,116141, Note_on_c, 0, 55, 66
2,116145, Note_on_c, 0, 49, 0
2,116259, Control_c, 0, 64, 56
2,116289, Control_c, 0, 64, 56
2,116304, Control_c, 0, 64, 55
2,116306, Note_on_c, 0, 47, 63
2,116308, Note_on_c, 0, 79, 87
2,116312, Note_on_c, 0, 74, 77
2,116319, Control_c, 0, 64, 55
2,116319, Note_on_c, 0, 55, 0
2,116335, Control_c, 0, 64, 54
2,116349, Control_c, 0, 64, 54
2,116365, Control_c, 0, 64, 53
2,116380, Control_c, 0, 64, 52
2,116395, Control_c, 0, 64, 51
2,116411, Control_c, 0, 64, 50
2,116426, Control_c, 0, 64, 50
2,116426, Note_on_c, 0, 47, 0
2,116437, Note_on_c, 0, 55, 67
2,116442, Control_c, 0, 64, 49
2,116456, Control_c, 0, 64, 49
2,116471, Control_c, 0, 64, 48
2,116487, Control_c, 0, 64, 48
2,116502, Control_c, 0, 64, 47
2,116515, Note_on_c, 0, 67, 0
2,116551, Note_on_c, 0, 79, 0
2,116556, Note_on_c, 0, 55, 0
2,116563, Note_on_c, 0, 45, 64
2,116566, Note_on_c, 0, 73, 87
2,116588, Note_on_c, 0, 74, 0
2,116593, Control_c, 0, 64, 48
2,116608, Control_c, 0, 64, 48
2,116623, Control_c, 0, 64, 49
2,116640, Note_on_c, 0, 73, 0
2,116646, Control_c, 0, 64, 50
2,116660, Note_on_c, 0, 45, 0
2,116662, Control_c, 0, 64, 51
2,116677, Control_c, 0, 64, 52
2,116682, Note_on_c, 0, 55, 67
2,116693, Control_c, 0, 64, 53
2,116708, Control_c, 0, 64, 53
2,116738, Control_c, 0, 64, 54
2,116769, Control_c, 0, 64, 54
2,116779, Note_on_c, 0, 55, 0
2,116798, Control_c, 0, 64, 55
2,116808, Note_on_c, 0, 50, 68
2,116814, Control_c, 0, 64, 56
2,116820, Note_on_c, 0, 78, 89
2,116829, Control_c, 0, 64, 56
2,116830, Note_on_c, 0, 74, 68
2,116845, Control_c, 0, 64, 57
2,116854, Note_on_c, 0, 74, 0
2,116860, Control_c, 0, 64, 57
2,116886, Note_on_c, 0, 78, 0
2,116891, Control_c, 0, 64, 58
2,116936, Note_on_c, 0, 50, 0
2,116938, Note_on_c, 0, 48, 76
2,116982, Control_c, 0, 64, 58
2,117012, Control_c, 0, 64, 57
2,117047, Note_on_c, 0, 48, 0
2,117060, Note_on_c, 0, 46, 79
2,117063, Note_on_c, 0, 76, 86
2,117067, Note_on_c, 0, 67, 81
2,117115, Note_on_c, 0, 67, 0
2,117122, Note_on_c, 0, 76, 0
2,117166, Note_on_c, 0, 46, 0
2,117176, Note_on_c, 0, 50, 81
2,117269, Control_c, 0, 64, 57
2,117285, Control_c, 0, 64, 56
2,117312, Note_on_c, 0, 74, 80
2,117314, Note_on_c, 0, 45, 78
2,117315, Note_on_c, 0, 50, 0
2,117319, Note_on_c, 0, 66, 88
2,117362, Control_c, 0, 64, 56
2,117375, Note_on_c, 0, 66, 0
2,117377, Control_c, 0, 64, 56
2,117389, Note_on_c, 0, 74, 0
2,117422, Note_on_c, 0, 45, 0
2,117429, Control_c, 0, 64, 57
2,117433, Note_on_c, 0, 50, 80
2,117459, Control_c, 0, 64, 57
2,117572, Note_on_c, 0, 64, 77
2,117572, Note_on_c, 0, 73, 89
2,117577, Note_on_c, 0, 43, 75
2,117583, Note_on_c, 0, 50, 0
2,117597, Control_c, 0, 64, 57
2,117602, Note_on_c, 0, 64, 0
2,117643, Note_on_c, 0, 73, 0
2,117658, Control_c, 0, 64, 56
2,117683, Note_on_c, 0, 43, 0
2,117689, Control_c, 0, 64, 56
2,117691, Note_on_c, 0, 50, 83
2,117734, Control_c, 0, 64, 55
2,117862, Note_on_c, 0, 82, 90
2,117873, Note_on_c, 0, 73, 72
2,117880, Note_on_c, 0, 50, 0
2,117884, Note_on_c, 0, 42, 79
2,117916, Control_c, 0, 64, 55
2,117963, Control_c, 0, 64, 54
2,117991, Control_c, 0, 64, 54
2,117998, Note_on_c, 0, 50, 77
2,118006, Control_c, 0, 64, 53
2,118022, Control_c, 0, 64, 53
2,118032, Note_on_c, 0, 42, 0
2,118036, Control_c, 0, 64, 52
2,118052, Control_c, 0, 64, 51
2,118067, Control_c, 0, 64, 51
2,118082, Control_c, 0, 64, 50
2,118097, Control_c, 0, 64, 50
2,118112, Control_c, 0, 64, 49
2,118127, Control_c, 0, 64, 49
2,118132, Note_on_c, 0, 40, 79
2,118141, Note_on_c, 0, 50, 0
2,118181, Control_c, 0, 64, 48
2,118196, Control_c, 0, 64, 48
2,118254, Note_on_c, 0, 50, 82
2,118257, Note_on_c, 0, 82, 0
2,118283, Note_on_c, 0, 40, 0
2,118311, Note_on_c, 0, 73, 0
2,118334, Control_c, 0, 64, 48
2,118364, Control_c, 0, 64, 49
2,118369, Note_on_c, 0, 50, 0
2,118395, Control_c, 0, 64, 49
2,118396, Note_on_c, 0, 81, 87
2,118405, Note_on_c, 0, 72, 82
2,118410, Control_c, 0, 64, 50
2,118411, Note_on_c, 0, 42, 74
2,118440, Control_c, 0, 64, 50
2,118456, Control_c, 0, 64, 51
2,118485, Control_c, 0, 64, 51
2,118501, Control_c, 0, 64, 52
2,118516, Control_c, 0, 64, 52
2,118531, Control_c, 0, 64, 53
2,118533, Note_on_c, 0, 79, 85
2,118538, Note_on_c, 0, 81, 0
2,118561, Control_c, 0, 64, 53
2,118573, Note_on_c, 0, 42, 0
2,118577, Control_c, 0, 64, 54
2,118592, Control_c, 0, 64, 55
2,118606, Control_c, 0, 64, 56
2,118622, Control_c, 0, 64, 57
2,118628, Note_on_c, 0, 72, 0
2,118631, Note_on_c, 0, 79, 0
2,118637, Control_c, 0, 64, 57
2,118662, Note_on_c, 0, 38, 79
2,118664, Note_on_c, 0, 78, 89
2,118665, Note_on_c, 0, 72, 25
2,118698, Control_c, 0, 64, 57
2,118713, Control_c, 0, 64, 56
2,118738, Note_on_c, 0, 78, 0
2,118790, Control_c, 0, 64, 56
2,118793, Note_on_c, 0, 76, 86
2,118802, Note_on_c, 0, 38, 0
2,118820, Control_c, 0, 64, 55
2,118835, Control_c, 0, 64, 54
2,118896, Control_c, 0, 64, 54
2,118914, Note_on_c, 0, 72, 0
2,118921, Note_on_c, 0, 43, 83
2,118923, Note_on_c, 0, 74, 75
2,118964, Control_c, 0, 64, 53
2,118980, Control_c, 0, 64, 53
2,118995, Control_c, 0, 64, 52
2,119010, Control_c, 0, 64, 52
2,119075, Note_on_c, 0, 71, 60
2,119076, Note_on_c, 0, 43, 0
2,119085, Control_c, 0, 64, 51
2,119134, Note_on_c, 0, 69, 75
2,119142, Note_on_c, 0, 71, 0
2,119148, Control_c, 0, 64, 51
2,119162, Control_c, 0, 64, 50
2,119162, Note_on_c, 0, 74, 0
2,119187, Note_on_c, 0, 40, 84
2,119193, Control_c, 0, 64, 50
2,119197, Note_on_c, 0, 71, 79
2,119209, Note_on_c, 0, 76, 0
2,119221, Note_on_c, 0, 69, 0
2,119300, Control_c, 0, 64, 51
2,119315, Control_c, 0, 64, 51
2,119316, Note_on_c, 0, 40, 0
2,119336, Note_on_c, 0, 79, 87
2,119352, Note_on_c, 0, 71, 0
2,119375, Control_c, 0, 64, 51
2,119466, Control_c, 0, 64, 51
2,119479, Note_on_c, 0, 69, 87
2,119485, Note_on_c, 0, 36, 83
2,119496, Control_c, 0, 64, 52
2,119540, Note_on_c, 0, 79, 0
2,119542, Control_c, 0, 64, 52
2,119587, Control_c, 0, 64, 53
2,119618, Control_c, 0, 64, 53
2,119622, Note_on_c, 0, 72, 87
2,119647, Control_c, 0, 64, 54
2,119661, Note_on_c, 0, 36, 0
2,119663, Control_c, 0, 64, 54
2,119678, Control_c, 0, 64, 55
2,119694, Control_c, 0, 64, 56
2,119716, Control_c, 0, 64, 57
2,119732, Control_c, 0, 64, 57
2,119771, Note_on_c, 0, 72, 0
2,119781, Note_on_c, 0, 79, 89
2,119792, Note_on_c, 0, 38, 82
2,119887, Note_on_c, 0, 69, 0
2,119915, Note_on_c, 0, 79, 0
2,119930, Control_c, 0, 64, 57
2,119945, Control_c, 0, 64, 57
2,119952, Note_on_c, 0, 78, 92
2,120036, Control_c, 0, 64, 58
2,120052, Control_c, 0, 64, 58
2,120097, Control_c, 0, 64, 58
2,120098, Note_on_c, 0, 78, 0
2,120127, Control_c, 0, 64, 57
2,120157, Control_c, 0, 64, 57
2,120171, Note_on_c, 0, 38, 0
2,120186, Control_c, 0, 64, 56
2,120191, Note_on_c, 0, 79, 92
2,120201, Control_c, 0, 64, 55
2,120203, Note_on_c, 0, 43, 77
2,120203, Note_on_c, 0, 71, 74
2,120206, Note_on_c, 0, 31, 72
2,120216, Control_c, 0, 64, 54
2,120231, Control_c, 0, 64, 54
2,120242, Note_on_c, 0, 71, 0
2,120246, Control_c, 0, 64, 53
2,120277, Control_c, 0, 64, 54
2,120291, Control_c, 0, 64, 54
2,120347, Note_on_c, 0, 78, 69
2,120368, Control_c, 0, 64, 55
2,120377, Note_on_c, 0, 79, 0
2,120384, Control_c, 0, 64, 56
2,120399, Control_c, 0, 64, 56
2,120419, Note_on_c, 0, 76, 69
2,120482, Note_on_c, 0, 78, 0
2,120496, Note_on_c, 0, 74, 79
2,120498, Note_on_c, 0, 71, 70
2,120512, Control_c, 0, 64, 56
2,120521, Note_on_c, 0, 76, 0
2,120543, Control_c, 0, 64, 55
2,120633, Note_on_c, 0, 71, 0
2,120643, Note_on_c, 0, 79, 83
2,120649, Control_c, 0, 64, 56
2,120656, Note_on_c, 0, 74, 0
2,120771, Control_c, 0, 64, 56
2,120784, Note_on_c, 0, 31, 0
2,120784, Note_on_c, 0, 72, 82
2,120790, Note_on_c, 0, 69, 77
2,120813, Note_on_c, 0, 79, 0
2,120818, Control_c, 0, 64, 57
2,120848, Control_c, 0, 64, 57
2,120878, Control_c, 0, 64, 58
2,120909, Control_c, 0, 64, 58
2,120922, Note_on_c, 0, 79, 86
2,120927, Note_on_c, 0, 72, 0
2,120941, Note_on_c, 0, 69, 0
2,120951, Note_on_c, 0, 43, 0
2,121014, Control_c, 0, 64, 58
2,121050, Note_on_c, 0, 79, 0
2,121055, Note_on_c, 0, 71, 81
2,121059, Note_on_c, 0, 67, 86
2,121106, Control_c, 0, 64, 57
2,121198, Note_on_c, 0, 43, 66
2,121228, Control_c, 0, 64, 58
2,121275, Note_on_c, 0, 45, 82
2,121293, Note_on_c, 0, 43, 0
2,121311, Control_c, 0, 64, 57
2,121322, Note_on_c, 0, 79, 80
2,121345, Note_on_c, 0, 47, 86
2,121356, Note_on_c, 0, 45, 0
2,121359, Note_on_c, 0, 71, 0
2,121371, Control_c, 0, 64, 57
2,121379, Note_on_c, 0, 79, 0
2,121447, Control_c, 0, 64, 57
2,121471, Note_on_c, 0, 43, 82
2,121472, Note_on_c, 0, 47, 0
2,121478, Control_c, 0, 64, 58
2,121530, Note_on_c, 0, 67, 0
2,121539, Control_c, 0, 64, 57
2,121606, Note_on_c, 0, 48, 86
2,121608, Note_on_c, 0, 69, 84
2,121609, Note_on_c, 0, 43, 0
2,121626, Note_on_c, 0, 66, 78
2,121662, Control_c, 0, 64, 57
2,121677, Control_c, 0, 64, 56
2,121695, Note_on_c, 0, 69, 0
2,121704, Note_on_c, 0, 66, 0
2,121725, Note_on_c, 0, 43, 79
2,121733, Note_on_c, 0, 48, 0
2,121767, Control_c, 0, 64, 56
2,121782, Control_c, 0, 64, 55
2,121797, Control_c, 0, 64, 54
2,121812, Control_c, 0, 64, 53
2,121827, Control_c, 0, 64, 53
2,121858, Control_c, 0, 64, 52
2,121872, Note_on_c, 0, 71, 81
2,121873, Control_c, 0, 64, 51
2,121873, Note_on_c, 0, 43, 0
2,121878, Note_on_c, 0, 50, 87
2,121880, Note_on_c, 0, 67, 72
2,121888, Control_c, 0, 64, 48
2,121903, Control_c, 0, 64, 45
2,121918, Control_c, 0, 64, 40
2,121933, Control_c, 0, 64, 37
2,121949, Control_c, 0, 64, 36
2,121980, Control_c, 0, 64, 36
2,121995, Control_c, 0, 64, 37
2,121997, Note_on_c, 0, 71, 0
2,122009, Note_on_c, 0, 74, 73
2,122013, Note_on_c, 0, 67, 0
2,122063, Control_c, 0, 64, 36
2,122078, Control_c, 0, 64, 36
2,122091, Note_on_c, 0, 72, 80
2,122091, Note_on_c, 0, 74, 0
2,122108, Control_c, 0, 64, 36
2,122123, Control_c, 0, 64, 37
2,122129, Note_on_c, 0, 67, 74
2,122129, Note_on_c, 0, 71, 79
2,122139, Control_c, 0, 64, 38
2,122154, Control_c, 0, 64, 39
2,122154, Note_on_c, 0, 43, 77
2,122164, Note_on_c, 0, 50, 0
2,122182, Note_on_c, 0, 72, 0
2,122273, Note_on_c, 0, 74, 80
2,122275, Note_on_c, 0, 71, 0
2,122276, Control_c, 0, 64, 39
2,122290, Note_on_c, 0, 67, 0
2,122321, Control_c, 0, 64, 39
2,122382, Control_c, 0, 64, 40
2,122398, Control_c, 0, 64, 41
2,122400, Note_on_c, 0, 69, 80
2,122404, Note_on_c, 0, 65, 76
2,122413, Control_c, 0, 64, 42
2,122413, Note_on_c, 0, 47, 69
2,122423, Note_on_c, 0, 74, 0
2,122429, Control_c, 0, 64, 42
2,122531, Note_on_c, 0, 74, 83
2,122535, Control_c, 0, 64, 44
2,122539, Note_on_c, 0, 69, 0
2,122550, Control_c, 0, 64, 44
2,122550, Note_on_c, 0, 65, 0
2,122595, Control_c, 0, 64, 44
2,122610, Control_c, 0, 64, 43
2,122626, Control_c, 0, 64, 42
2,122638, Note_on_c, 0, 48, 71
2,122641, Note_on_c, 0, 47, 0
2,122657, Control_c, 0, 64, 43
2,122668, Note_on_c, 0, 67, 77
2,122669, Note_on_c, 0, 64, 73
2,122671, Control_c, 0, 64, 43
2,122680, Note_on_c, 0, 74, 0
2,122686, Control_c, 0, 64, 44
2,122702, Control_c, 0, 64, 44
2,122713, Note_on_c, 0, 48, 0
2,122731, Note_on_c, 0, 47, 63
2,122762, Control_c, 0, 64, 45
2,122786, Control_c, 0, 64, 45
2,122797, Note_on_c, 0, 48, 75
2,122800, Control_c, 0, 64, 46
2,122815, Control_c, 0, 64, 47
2,122831, Control_c, 0, 64, 47
2,122837, Note_on_c, 0, 47, 0
2,122859, Note_on_c, 0, 50, 80
2,122876, Control_c, 0, 64, 47
2,122884, Note_on_c, 0, 48, 0
2,122891, Control_c, 0, 64, 46
2,122907, Control_c, 0, 64, 46
2,122922, Control_c, 0, 64, 45
2,122926, Note_on_c, 0, 67, 0
2,122930, Note_on_c, 0, 72, 85
2,122944, Note_on_c, 0, 52, 80
2,122945, Note_on_c, 0, 50, 0
2,122952, Control_c, 0, 64, 45
2,122983, Control_c, 0, 64, 45
2,122998, Control_c, 0, 64, 45
2,123012, Control_c, 0, 64, 44
2,123031, Note_on_c, 0, 52, 0
2,123054, Note_on_c, 0, 48, 79
2,123074, Control_c, 0, 64, 45
2,123089, Control_c, 0, 64, 45
2,123105, Control_c, 0, 64, 46
2,123140, Note_on_c, 0, 64, 0
2,123165, Control_c, 0, 64, 46
2,123181, Control_c, 0, 64, 47
2,123196, Control_c, 0, 64, 47
2,123198, Note_on_c, 0, 54, 81
2,123200, Note_on_c, 0, 48, 0
2,123202, Note_on_c, 0, 63, 79
2,123227, Control_c, 0, 64, 48
2,123242, Control_c, 0, 64, 47
2,123258, Control_c, 0, 64, 47
2,123303, Note_on_c, 0, 54, 0
2,123304, Control_c, 0, 64, 46
2,123310, Note_on_c, 0, 48, 78
2,123333, Control_c, 0, 64, 47
2,123349, Control_c, 0, 64, 47
2,123364, Control_c, 0, 64, 48
2,123380, Control_c, 0, 64, 48
2,123411, Note_on_c, 0, 72, 0
2,123425, Control_c, 0, 64, 49
2,123428, Note_on_c, 0, 63, 0
2,123447, Note_on_c, 0, 62, 76
2,123453, Note_on_c, 0, 48, 0
2,123454, Note_on_c, 0, 55, 73
2,123501, Control_c, 0, 64, 48
2,123523, Note_on_c, 0, 62, 0
2,123530, Control_c, 0, 64, 48
2,123530, Note_on_c, 0, 67, 76
2,123554, Control_c, 0, 64, 47
2,123614, Control_c, 0, 64, 48
2,123617, Note_on_c, 0, 69, 82
2,123620, Note_on_c, 0, 67, 0
2,123644, Control_c, 0, 64, 49
2,123675, Control_c, 0, 64, 49
2,123682, Note_on_c, 0, 71, 73
2,123684, Note_on_c, 0, 69, 0
2,123706, Control_c, 0, 64, 50
2,123720, Control_c, 0, 64, 51
2,123735, Control_c, 0, 64, 51
2,123756, Note_on_c, 0, 64, 75
2,123759, Note_on_c, 0, 72, 86
2,123766, Control_c, 0, 64, 52
2,123771, Note_on_c, 0, 71, 0
2,123796, Control_c, 0, 64, 52
2,123842, Control_c, 0, 64, 53
2,123857, Control_c, 0, 64, 54
2,123881, Note_on_c, 0, 64, 0
2,123887, Control_c, 0, 64, 54
2,123918, Control_c, 0, 64, 54
2,123918, Note_on_c, 0, 72, 0
2,123919, Note_on_c, 0, 67, 85
2,123933, Control_c, 0, 64, 53
2,123949, Control_c, 0, 64, 53
2,123979, Control_c, 0, 64, 52
2,123994, Control_c, 0, 64, 51
2,124009, Control_c, 0, 64, 48
2,124025, Control_c, 0, 64, 38
2,124040, Control_c, 0, 64, 0
2,124051, Note_on_c, 0, 67, 0
2,124068, Note_on_c, 0, 71, 73
2,124073, Note_on_c, 0, 65, 79
2,124077, Note_on_c, 0, 74, 72
2,124147, Control_c, 0, 64, 61
2,124159, Note_on_c, 0, 65, 0
2,124162, Control_c, 0, 64, 67
2,124178, Control_c, 0, 64, 71
2,124193, Control_c, 0, 64, 76
2,124207, Control_c, 0, 64, 79
2,124215, Note_on_c, 0, 67, 80
2,124223, Control_c, 0, 64, 81
2,124236, Note_on_c, 0, 71, 0
2,124238, Control_c, 0, 64, 82
2,124253, Control_c, 0, 64, 83
2,124267, Note_on_c, 0, 67, 0
2,124270, Note_on_c, 0, 74, 0
2,124383, Control_c, 0, 64, 82
2,124389, Note_on_c, 0, 67, 77
2,124389, Note_on_c, 0, 76, 73
2,124395, Note_on_c, 0, 72, 71
2,124398, Control_c, 0, 64, 81
2,124412, Control_c, 0, 64, 79
2,124428, Control_c, 0, 64, 76
2,124443, Control_c, 0, 64, 72
2,124459, Control_c, 0, 64, 67
2,124472, Note_on_c, 0, 72, 0
2,124474, Control_c, 0, 64, 59
2,124478, Note_on_c, 0, 71, 79
2,124488, Control_c, 0, 64, 41
2,124494, Note_on_c, 0, 67, 0
2,124495, Note_on_c, 0, 76, 0
2,124504, Control_c, 0, 64, 36
2,124519, Control_c, 0, 64, 39
2,124557, Note_on_c, 0, 72, 83
2,124564, Control_c, 0, 64, 38
2,124578, Note_on_c, 0, 71, 0
2,124580, Control_c, 0, 64, 38
2,124610, Control_c, 0, 64, 37
2,124625, Control_c, 0, 64, 37
2,124630, Note_on_c, 0, 74, 70
2,124633, Note_on_c, 0, 72, 0
2,124640, Control_c, 0, 64, 36
2,124701, Note_on_c, 0, 67, 63
2,124710, Note_on_c, 0, 76, 84
2,124731, Control_c, 0, 64, 37
2,124741, Note_on_c, 0, 74, 0
2,124747, Control_c, 0, 64, 36
2,124823, Control_c, 0, 64, 37
2,124854, Control_c, 0, 64, 37
2,124892, Note_on_c, 0, 76, 0
2,124893, Note_on_c, 0, 72, 79
2,124897, Note_on_c, 0, 67, 0
2,124930, Control_c, 0, 64, 38
2,124946, Control_c, 0, 64, 38
2,124961, Control_c, 0, 64, 39
2,124977, Control_c, 0, 64, 40
2,125022, Control_c, 0, 64, 39
2,125037, Control_c, 0, 64, 39
2,125052, Control_c, 0, 64, 38
2,125067, Note_on_c, 0, 78, 90
2,125077, Note_on_c, 0, 72, 0
2,125085, Note_on_c, 0, 69, 70
2,125151, Control_c, 0, 64, 38
2,125166, Control_c, 0, 64, 37
2,125284, Note_on_c, 0, 72, 76
2,125288, Note_on_c, 0, 69, 0
2,125364, Control_c, 0, 64, 38
2,125380, Control_c, 0, 64, 39
2,125394, Control_c, 0, 64, 40
2,125430, Note_on_c, 0, 78, 0
2,125501, Control_c, 0, 64, 40
2,125520, Note_on_c, 0, 79, 84
2,125534, Note_on_c, 0, 72, 0
2,125542, Note_on_c, 0, 71, 70
2,125561, Control_c, 0, 64, 40
2,125591, Control_c, 0, 64, 39
2,125669, Control_c, 0, 64, 39
2,125699, Control_c, 0, 64, 38
2,125754, Note_on_c, 0, 74, 80
2,125790, Control_c, 0, 64, 39
2,125948, Note_on_c, 0, 76, 81
2,125958, Note_on_c, 0, 74, 0
2,125995, Control_c, 0, 64, 39
2,126055, Control_c, 0, 64, 40
2,126131, Control_c, 0, 64, 40
2,126141, Note_on_c, 0, 71, 0
2,126152, Note_on_c, 0, 72, 80
2,126162, Control_c, 0, 64, 41
2,126178, Control_c, 0, 64, 41
2,126238, Control_c, 0, 64, 41
2,126253, Control_c, 0, 64, 40
2,126284, Control_c, 0, 64, 40
2,126347, Note_on_c, 0, 76, 0
2,126423, Note_on_c, 0, 69, 78
2,126527, Control_c, 0, 64, 40
2,126572, Control_c, 0, 64, 41
2,126686, Note_on_c, 0, 79, 0
2,126698, Note_on_c, 0, 78, 85
2,126702, Control_c, 0, 64, 41
2,126717, Control_c, 0, 64, 42
2,126732, Control_c, 0, 64, 43
2,126747, Control_c, 0, 64, 45
2,126762, Control_c, 0, 64, 48
2,126778, Control_c, 0, 64, 52
2,126793, Control_c, 0, 64, 56
2,126808, Control_c, 0, 64, 59
2,126821, Note_on_c, 0, 69, 0
2,126823, Control_c, 0, 64, 62
2,126838, Control_c, 0, 64, 64
2,126853, Control_c, 0, 64, 66
2,126868, Control_c, 0, 64, 68
2,126883, Control_c, 0, 64, 71
2,126899, Control_c, 0, 64, 73
2,126914, Control_c, 0, 64, 74
2,126929, Control_c, 0, 64, 76
2,126945, Control_c, 0, 64, 76
2,126960, Control_c, 0, 64, 77
2,127278, Control_c, 0, 64, 76
2,127293, Note_on_c, 0, 78, 0
2,127310, Control_c, 0, 64, 76
2,127323, Note_on_c, 0, 79, 82
2,127330, Note_on_c, 0, 72, 0
2,127334, Note_on_c, 0, 74, 71
2,127336, Control_c, 0, 64, 75
2,127340, Note_on_c, 0, 71, 67
2,127352, Control_c, 0, 64, 73
2,127367, Control_c, 0, 64, 72
2,127389, Control_c, 0, 64, 69
2,127405, Control_c, 0, 64, 67
2,127420, Control_c, 0, 64, 64
2,127436, Control_c, 0, 64, 62
2,127451, Control_c, 0, 64, 61
2,127465, Control_c, 0, 64, 61
2,127481, Control_c, 0, 64, 60
2,127496, Control_c, 0, 64, 58
2,127511, Control_c, 0, 64, 54
2,127526, Control_c, 0, 64, 49
2,127541, Control_c, 0, 64, 44
2,127557, Control_c, 0, 64, 41
2,127572, Control_c, 0, 64, 40
2,127586, Control_c, 0, 64, 39
2,127617, Control_c, 0, 64, 39
2,127860, Control_c, 0, 64, 39
2,127906, Control_c, 0, 64, 40
2,129154, Control_c, 0, 64, 39
2,129276, Control_c, 0, 64, 39
2,129321, Control_c, 0, 64, 38
2,129352, Control_c, 0, 64, 38
2,129412, Control_c, 0, 64, 37
2,129519, Control_c, 0, 64, 37
2,129857, Control_c, 0, 64, 37
2,129872, Note_on_c, 0, 71, 0
2,129873, Note_on_c, 0, 79, 0
2,129880, Note_on_c, 0, 55, 0
2,129887, Note_on_c, 0, 74, 0
2,129903, Control_c, 0, 64, 37
2,129904, Note_on_c, 0, 43, 0
2,129917, Control_c, 0, 64, 36
2,130038, Control_c, 0, 64, 37
2,130054, Control_c, 0, 64, 37
2,130085, Control_c, 0, 64, 38
2,130115, Control_c, 0, 64, 38
2,130487, Control_c, 0, 64, 38
2,130579, Control_c, 0, 64, 38
2,130593, Control_c, 0, 64, 39
2,130609, Control_c, 0, 64, 40
2,130624, Control_c, 0, 64, 40
2,130639, Control_c, 0, 64, 41
2,130655, Control_c, 0, 64, 42
2,130656, End_track
0, 0, End_of_file
