0, 0, Header, 1, 2, 384
1, 0, Start_track
1, 0, Tempo, 500000
1, 0, Time_signature, 4, 2, 24, 8
1, 1, End_track
2, 0, Start_track
2, 0, Title_t, "Nikiforov04-07.MID"
2, 0, Program_c, 0, 0
2, 0, Control_c, 0, 64, 0
2, 768, Note_on_c, 0, 67, 66
2, 788, Note_on_c, 0, 55, 52
2, 841, Note_on_c, 0, 71, 71
2, 848, Note_on_c, 0, 67, 0
2, 924, Note_on_c, 0, 74, 70
2, 929, Note_on_c, 0, 71, 0
2, 991, Note_on_c, 0, 43, 64
2, 995, Note_on_c, 0, 74, 0
2, 999, Note_on_c, 0, 79, 83
2, 1009, Note_on_c, 0, 55, 0
2, 1029, Note_on_c, 0, 43, 0
2, 1077, Note_on_c, 0, 74, 75
2, 1088, Note_on_c, 0, 79, 0
2, 1145, Note_on_c, 0, 74, 0
2, 1151, Note_on_c, 0, 71, 76
2, 1228, Note_on_c, 0, 71, 0
2, 1233, Note_on_c, 0, 74, 71
2, 1288, Note_on_c, 0, 74, 0
2, 1297, Note_on_c, 0, 71, 70
2, 1356, Note_on_c, 0, 71, 0
2, 1375, Note_on_c, 0, 67, 76
2, 1447, Note_on_c, 0, 67, 0
2, 1468, Note_on_c, 0, 71, 72
2, 1471, Note_on_c, 0, 55, 68
2, 1505, Note_on_c, 0, 55, 0
2, 1541, Note_on_c, 0, 67, 80
2, 1543, Note_on_c, 0, 71, 0
2, 1611, Note_on_c, 0, 67, 0
2, 1614, Note_on_c, 0, 62, 74
2, 1680, Note_on_c, 0, 62, 0
2, 1700, Note_on_c, 0, 64, 77
2, 1717, Note_on_c, 0, 55, 74
2, 1770, Note_on_c, 0, 64, 0
2, 1775, Note_on_c, 0, 67, 76
2, 1850, Note_on_c, 0, 67, 0
2, 1857, Note_on_c, 0, 72, 77
2, 1928, Note_on_c, 0, 43, 73
2, 1928, Note_on_c, 0, 72, 0
2, 1937, Note_on_c, 0, 76, 86
2, 1946, Note_on_c, 0, 55, 0
2, 1964, Note_on_c, 0, 43, 0
2, 2016, Note_on_c, 0, 72, 85
2, 2038, Note_on_c, 0, 76, 0
2, 2089, Note_on_c, 0, 72, 0
2, 2092, Note_on_c, 0, 67, 79
2, 2158, Note_on_c, 0, 67, 0
2, 2169, Note_on_c, 0, 72, 80
2, 2240, Note_on_c, 0, 72, 0
2, 2243, Note_on_c, 0, 67, 73
2, 2303, Note_on_c, 0, 67, 0
2, 2318, Note_on_c, 0, 64, 76
2, 2385, Note_on_c, 0, 64, 0
2, 2387, Note_on_c, 0, 55, 75
2, 2398, Note_on_c, 0, 67, 82
2, 2410, Note_on_c, 0, 55, 0
2, 2476, Note_on_c, 0, 64, 70
2, 2477, Note_on_c, 0, 67, 0
2, 2533, Note_on_c, 0, 64, 0
2, 2539, Note_on_c, 0, 60, 77
2, 2612, Note_on_c, 0, 60, 0
2, 2623, Note_on_c, 0, 57, 75
2, 2634, Note_on_c, 0, 55, 76
2, 2707, Note_on_c, 0, 57, 0
2, 2714, Note_on_c, 0, 60, 71
2, 2768, Note_on_c, 0, 60, 0
2, 2791, Note_on_c, 0, 66, 76
2, 2860, Control_c, 0, 64, 10
2, 2875, Note_on_c, 0, 43, 70
2, 2875, Note_on_c, 0, 69, 82
2, 2876, Note_on_c, 0, 66, 0
2, 2890, Control_c, 0, 64, 13
2, 2896, Note_on_c, 0, 55, 0
2, 2919, Note_on_c, 0, 43, 0
2, 2961, Note_on_c, 0, 66, 80
2, 2966, Note_on_c, 0, 69, 0
2, 2991, Control_c, 0, 64, 15
2, 3006, Control_c, 0, 64, 17
2, 3038, Note_on_c, 0, 60, 74
2, 3039, Note_on_c, 0, 66, 0
2, 3051, Control_c, 0, 64, 18
2, 3116, Note_on_c, 0, 60, 0
2, 3117, Note_on_c, 0, 66, 79
2, 3128, Control_c, 0, 64, 20
2, 3174, Control_c, 0, 64, 18
2, 3184, Note_on_c, 0, 60, 74
2, 3189, Control_c, 0, 64, 17
2, 3195, Note_on_c, 0, 66, 0
2, 3204, Control_c, 0, 64, 15
2, 3220, Control_c, 0, 64, 13
2, 3246, Note_on_c, 0, 60, 0
2, 3262, Note_on_c, 0, 57, 72
2, 3265, Control_c, 0, 64, 10
2, 3311, Control_c, 0, 64, 0
2, 3339, Note_on_c, 0, 55, 73
2, 3341, Note_on_c, 0, 57, 0
2, 3345, Note_on_c, 0, 60, 77
2, 3361, Note_on_c, 0, 55, 0
2, 3412, Note_on_c, 0, 60, 0
2, 3414, Note_on_c, 0, 57, 65
2, 3483, Note_on_c, 0, 57, 0
2, 3486, Note_on_c, 0, 54, 77
2, 3539, Control_c, 0, 64, 28
2, 3554, Control_c, 0, 64, 41
2, 3565, Note_on_c, 0, 54, 0
2, 3568, Note_on_c, 0, 55, 84
2, 3569, Control_c, 0, 64, 48
2, 3585, Control_c, 0, 64, 52
2, 3600, Control_c, 0, 64, 55
2, 3614, Control_c, 0, 64, 58
2, 3630, Control_c, 0, 64, 61
2, 3645, Control_c, 0, 64, 62
2, 3654, Note_on_c, 0, 59, 74
2, 3661, Control_c, 0, 64, 63
2, 3690, Control_c, 0, 64, 62
2, 3706, Control_c, 0, 64, 62
2, 3715, Note_on_c, 0, 55, 0
2, 3729, Control_c, 0, 64, 60
2, 3742, Note_on_c, 0, 62, 77
2, 3744, Note_on_c, 0, 59, 0
2, 3745, Control_c, 0, 64, 59
2, 3759, Control_c, 0, 64, 56
2, 3774, Control_c, 0, 64, 53
2, 3790, Control_c, 0, 64, 48
2, 3804, Control_c, 0, 64, 42
2, 3808, Note_on_c, 0, 43, 72
2, 3813, Note_on_c, 0, 62, 0
2, 3816, Note_on_c, 0, 67, 82
2, 3820, Control_c, 0, 64, 37
2, 3835, Control_c, 0, 64, 27
2, 3846, Note_on_c, 0, 43, 0
2, 3850, Control_c, 0, 64, 0
2, 3892, Note_on_c, 0, 62, 73
2, 3899, Note_on_c, 0, 67, 0
2, 3954, Note_on_c, 0, 62, 0
2, 3957, Note_on_c, 0, 59, 76
2, 4027, Note_on_c, 0, 59, 0
2, 4030, Note_on_c, 0, 62, 79
2, 4079, Control_c, 0, 64, 33
2, 4093, Control_c, 0, 64, 47
2, 4098, Note_on_c, 0, 62, 0
2, 4101, Note_on_c, 0, 59, 75
2, 4109, Control_c, 0, 64, 53
2, 4124, Control_c, 0, 64, 57
2, 4140, Control_c, 0, 64, 58
2, 4150, Note_on_c, 0, 59, 0
2, 4155, Control_c, 0, 64, 60
2, 4165, Note_on_c, 0, 55, 69
2, 4169, Control_c, 0, 64, 62
2, 4185, Control_c, 0, 64, 64
2, 4199, Note_on_c, 0, 55, 0
2, 4200, Control_c, 0, 64, 66
2, 4214, Control_c, 0, 64, 67
2, 4230, Control_c, 0, 64, 68
2, 4245, Control_c, 0, 64, 69
2, 4249, Note_on_c, 0, 59, 69
2, 4254, Note_on_c, 0, 55, 65
2, 4283, Note_on_c, 0, 55, 0
2, 4307, Control_c, 0, 64, 68
2, 4321, Control_c, 0, 64, 68
2, 4326, Note_on_c, 0, 55, 68
2, 4329, Note_on_c, 0, 59, 0
2, 4336, Control_c, 0, 64, 67
2, 4352, Control_c, 0, 64, 66
2, 4367, Control_c, 0, 64, 65
2, 4383, Control_c, 0, 64, 64
2, 4391, Note_on_c, 0, 55, 0
2, 4397, Control_c, 0, 64, 63
2, 4397, Note_on_c, 0, 50, 78
2, 4412, Control_c, 0, 64, 62
2, 4428, Control_c, 0, 64, 60
2, 4429, Note_on_c, 0, 50, 0
2, 4443, Control_c, 0, 64, 57
2, 4459, Control_c, 0, 64, 55
2, 4473, Control_c, 0, 64, 53
2, 4496, Control_c, 0, 64, 47
2, 4512, Control_c, 0, 64, 40
2, 4514, Note_on_c, 0, 55, 80
2, 4526, Control_c, 0, 64, 31
2, 4526, Note_on_c, 0, 57, 64
2, 4542, Control_c, 0, 64, 18
2, 4557, Control_c, 0, 64, 0
2, 4603, Note_on_c, 0, 61, 71
2, 4629, Note_on_c, 0, 57, 0
2, 4675, Note_on_c, 0, 61, 0
2, 4678, Note_on_c, 0, 64, 78
2, 4752, Note_on_c, 0, 64, 0
2, 4753, Note_on_c, 0, 43, 68
2, 4761, Note_on_c, 0, 69, 76
2, 4776, Note_on_c, 0, 55, 0
2, 4791, Note_on_c, 0, 43, 0
2, 4820, Note_on_c, 0, 64, 69
2, 4820, Note_on_c, 0, 69, 0
2, 4845, Control_c, 0, 64, 21
2, 4861, Control_c, 0, 64, 29
2, 4876, Control_c, 0, 64, 34
2, 4891, Control_c, 0, 64, 38
2, 4902, Note_on_c, 0, 64, 0
2, 4907, Control_c, 0, 64, 43
2, 4908, Note_on_c, 0, 61, 75
2, 4922, Control_c, 0, 64, 48
2, 4936, Control_c, 0, 64, 51
2, 4952, Control_c, 0, 64, 52
2, 4976, Note_on_c, 0, 64, 72
2, 4981, Note_on_c, 0, 61, 0
2, 4983, Control_c, 0, 64, 51
2, 5012, Control_c, 0, 64, 51
2, 5028, Control_c, 0, 64, 50
2, 5043, Control_c, 0, 64, 50
2, 5050, Note_on_c, 0, 64, 0
2, 5051, Note_on_c, 0, 61, 76
2, 5058, Control_c, 0, 64, 49
2, 5073, Control_c, 0, 64, 48
2, 5089, Control_c, 0, 64, 47
2, 5105, Control_c, 0, 64, 46
2, 5110, Note_on_c, 0, 61, 0
2, 5120, Control_c, 0, 64, 45
2, 5122, Note_on_c, 0, 57, 65
2, 5135, Control_c, 0, 64, 44
2, 5151, Control_c, 0, 64, 44
2, 5181, Control_c, 0, 64, 43
2, 5181, Note_on_c, 0, 55, 62
2, 5204, Note_on_c, 0, 55, 0
2, 5204, Note_on_c, 0, 61, 74
2, 5205, Note_on_c, 0, 57, 0
2, 5211, Control_c, 0, 64, 42
2, 5227, Control_c, 0, 64, 41
2, 5241, Control_c, 0, 64, 39
2, 5265, Control_c, 0, 64, 38
2, 5283, Note_on_c, 0, 57, 62
2, 5310, Control_c, 0, 64, 37
2, 5314, Note_on_c, 0, 61, 0
2, 5325, Control_c, 0, 64, 37
2, 5341, Control_c, 0, 64, 36
2, 5356, Control_c, 0, 64, 34
2, 5356, Note_on_c, 0, 52, 72
2, 5360, Note_on_c, 0, 57, 0
2, 5370, Control_c, 0, 64, 32
2, 5386, Control_c, 0, 64, 30
2, 5401, Control_c, 0, 64, 29
2, 5415, Control_c, 0, 64, 27
2, 5431, Control_c, 0, 64, 24
2, 5439, Note_on_c, 0, 54, 64
2, 5443, Note_on_c, 0, 52, 0
2, 5446, Control_c, 0, 64, 17
2, 5446, Note_on_c, 0, 62, 77
2, 5462, Control_c, 0, 64, 0
2, 5513, Note_on_c, 0, 57, 61
2, 5525, Note_on_c, 0, 54, 0
2, 5564, Note_on_c, 0, 62, 0
2, 5585, Note_on_c, 0, 61, 71
2, 5601, Note_on_c, 0, 57, 0
2, 5647, Note_on_c, 0, 61, 0
2, 5672, Note_on_c, 0, 62, 65
2, 5689, Control_c, 0, 64, 10
2, 5705, Control_c, 0, 64, 13
2, 5709, Note_on_c, 0, 62, 0
2, 5745, Note_on_c, 0, 57, 64
2, 5781, Control_c, 0, 64, 10
2, 5796, Control_c, 0, 64, 0
2, 5811, Note_on_c, 0, 57, 0
2, 5825, Note_on_c, 0, 54, 67
2, 5884, Note_on_c, 0, 54, 0
2, 5905, Note_on_c, 0, 57, 72
2, 5990, Note_on_c, 0, 57, 0
2, 5996, Note_on_c, 0, 54, 67
2, 6063, Note_on_c, 0, 54, 0
2, 6084, Note_on_c, 0, 50, 57
2, 6123, Note_on_c, 0, 62, 75
2, 6128, Note_on_c, 0, 50, 0
2, 6148, Note_on_c, 0, 54, 58
2, 6159, Note_on_c, 0, 62, 0
2, 6202, Note_on_c, 0, 54, 0
2, 6226, Note_on_c, 0, 50, 60
2, 6288, Note_on_c, 0, 50, 0
2, 6306, Note_on_c, 0, 47, 59
2, 6360, Note_on_c, 0, 62, 63
2, 6364, Note_on_c, 0, 47, 0
2, 6379, Note_on_c, 0, 52, 78
2, 6433, Note_on_c, 0, 62, 0
2, 6449, Note_on_c, 0, 61, 61
2, 6528, Note_on_c, 0, 61, 0
2, 6545, Note_on_c, 0, 62, 46
2, 6616, Note_on_c, 0, 64, 55
2, 6627, Note_on_c, 0, 62, 0
2, 6631, Note_on_c, 0, 40, 72
2, 6642, Note_on_c, 0, 52, 0
2, 6665, Note_on_c, 0, 40, 0
2, 6700, Note_on_c, 0, 64, 0
2, 6706, Note_on_c, 0, 61, 61
2, 6772, Note_on_c, 0, 61, 0
2, 6779, Note_on_c, 0, 62, 63
2, 6865, Note_on_c, 0, 66, 73
2, 6885, Note_on_c, 0, 62, 0
2, 6952, Note_on_c, 0, 61, 61
2, 6955, Note_on_c, 0, 66, 0
2, 7005, Note_on_c, 0, 61, 0
2, 7019, Note_on_c, 0, 62, 52
2, 7096, Note_on_c, 0, 67, 69
2, 7106, Note_on_c, 0, 62, 0
2, 7110, Note_on_c, 0, 52, 71
2, 7140, Note_on_c, 0, 52, 0
2, 7191, Note_on_c, 0, 61, 62
2, 7191, Note_on_c, 0, 67, 0
2, 7245, Note_on_c, 0, 61, 0
2, 7262, Note_on_c, 0, 62, 63
2, 7353, Note_on_c, 0, 49, 60
2, 7355, Note_on_c, 0, 69, 66
2, 7371, Note_on_c, 0, 62, 0
2, 7447, Note_on_c, 0, 61, 59
2, 7449, Note_on_c, 0, 69, 0
2, 7509, Note_on_c, 0, 61, 0
2, 7518, Note_on_c, 0, 62, 60
2, 7604, Note_on_c, 0, 49, 0
2, 7610, Note_on_c, 0, 71, 70
2, 7611, Note_on_c, 0, 45, 54
2, 7632, Note_on_c, 0, 62, 0
2, 7641, Note_on_c, 0, 45, 0
2, 7709, Note_on_c, 0, 71, 0
2, 7720, Note_on_c, 0, 61, 50
2, 7759, Note_on_c, 0, 62, 63
2, 7766, Note_on_c, 0, 61, 0
2, 7852, Note_on_c, 0, 69, 75
2, 7856, Note_on_c, 0, 47, 66
2, 7870, Note_on_c, 0, 62, 0
2, 7889, Note_on_c, 0, 47, 0
2, 7951, Note_on_c, 0, 61, 64
2, 7953, Note_on_c, 0, 69, 0
2, 8013, Note_on_c, 0, 61, 0
2, 8019, Note_on_c, 0, 62, 62
2, 8098, Note_on_c, 0, 67, 78
2, 8104, Note_on_c, 0, 49, 69
2, 8115, Note_on_c, 0, 62, 0
2, 8136, Note_on_c, 0, 49, 0
2, 8186, Note_on_c, 0, 61, 65
2, 8206, Control_c, 0, 64, 10
2, 8222, Control_c, 0, 64, 13
2, 8230, Note_on_c, 0, 67, 0
2, 8236, Control_c, 0, 64, 15
2, 8263, Note_on_c, 0, 61, 0
2, 8265, Note_on_c, 0, 62, 54
2, 8312, Control_c, 0, 64, 13
2, 8359, Note_on_c, 0, 50, 63
2, 8360, Note_on_c, 0, 66, 75
2, 8366, Note_on_c, 0, 62, 0
2, 8411, Control_c, 0, 64, 15
2, 8418, Note_on_c, 0, 66, 0
2, 8421, Note_on_c, 0, 50, 0
2, 8456, Note_on_c, 0, 61, 59
2, 8518, Control_c, 0, 64, 10
2, 8532, Note_on_c, 0, 61, 0
2, 8533, Control_c, 0, 64, 0
2, 8544, Note_on_c, 0, 62, 51
2, 8606, Note_on_c, 0, 62, 0
2, 8608, Note_on_c, 0, 67, 85
2, 8609, Note_on_c, 0, 52, 62
2, 8650, Note_on_c, 0, 67, 0
2, 8683, Note_on_c, 0, 52, 0
2, 8708, Note_on_c, 0, 61, 55
2, 8786, Note_on_c, 0, 62, 53
2, 8794, Note_on_c, 0, 61, 0
2, 8822, Control_c, 0, 64, 10
2, 8841, Note_on_c, 0, 62, 0
2, 8852, Control_c, 0, 64, 13
2, 8858, Note_on_c, 0, 69, 87
2, 8861, Note_on_c, 0, 54, 59
2, 8867, Control_c, 0, 64, 15
2, 8882, Control_c, 0, 64, 18
2, 8891, Note_on_c, 0, 69, 0
2, 8898, Control_c, 0, 64, 20
2, 8913, Control_c, 0, 64, 21
2, 8928, Control_c, 0, 64, 24
2, 8938, Note_on_c, 0, 61, 59
2, 8944, Control_c, 0, 64, 26
2, 8947, Note_on_c, 0, 54, 0
2, 8973, Control_c, 0, 64, 27
2, 9020, Control_c, 0, 64, 26
2, 9032, Note_on_c, 0, 61, 0
2, 9032, Note_on_c, 0, 62, 59
2, 9035, Control_c, 0, 64, 25
2, 9050, Control_c, 0, 64, 24
2, 9108, Note_on_c, 0, 71, 80
2, 9114, Note_on_c, 0, 62, 0
2, 9117, Note_on_c, 0, 55, 55
2, 9118, Control_c, 0, 64, 25
2, 9148, Control_c, 0, 64, 26
2, 9150, Note_on_c, 0, 71, 0
2, 9163, Control_c, 0, 64, 28
2, 9180, Control_c, 0, 64, 29
2, 9182, Note_on_c, 0, 55, 0
2, 9195, Control_c, 0, 64, 31
2, 9206, Note_on_c, 0, 61, 58
2, 9210, Control_c, 0, 64, 33
2, 9226, Control_c, 0, 64, 35
2, 9240, Control_c, 0, 64, 37
2, 9254, Note_on_c, 0, 61, 0
2, 9255, Control_c, 0, 64, 38
2, 9271, Control_c, 0, 64, 38
2, 9285, Note_on_c, 0, 62, 54
2, 9301, Control_c, 0, 64, 39
2, 9331, Control_c, 0, 64, 39
2, 9362, Control_c, 0, 64, 40
2, 9362, Note_on_c, 0, 62, 0
2, 9369, Note_on_c, 0, 54, 57
2, 9374, Note_on_c, 0, 69, 71
2, 9393, Control_c, 0, 64, 41
2, 9424, Control_c, 0, 64, 41
2, 9453, Control_c, 0, 64, 41
2, 9462, Note_on_c, 0, 54, 0
2, 9466, Note_on_c, 0, 61, 57
2, 9469, Control_c, 0, 64, 40
2, 9484, Control_c, 0, 64, 40
2, 9514, Control_c, 0, 64, 39
2, 9529, Control_c, 0, 64, 39
2, 9545, Control_c, 0, 64, 38
2, 9546, Note_on_c, 0, 61, 0
2, 9551, Note_on_c, 0, 62, 52
2, 9559, Control_c, 0, 64, 37
2, 9574, Control_c, 0, 64, 37
2, 9590, Control_c, 0, 64, 36
2, 9605, Control_c, 0, 64, 35
2, 9609, Note_on_c, 0, 69, 0
2, 9619, Note_on_c, 0, 67, 76
2, 9623, Note_on_c, 0, 62, 0
2, 9631, Note_on_c, 0, 52, 59
2, 9635, Control_c, 0, 64, 34
2, 9652, Note_on_c, 0, 67, 0
2, 9682, Control_c, 0, 64, 34
2, 9705, Note_on_c, 0, 52, 0
2, 9711, Note_on_c, 0, 61, 53
2, 9727, Control_c, 0, 64, 33
2, 9757, Note_on_c, 0, 61, 0
2, 9758, Control_c, 0, 64, 32
2, 9784, Note_on_c, 0, 62, 56
2, 9803, Control_c, 0, 64, 33
2, 9819, Control_c, 0, 64, 34
2, 9834, Control_c, 0, 64, 35
2, 9848, Control_c, 0, 64, 36
2, 9868, Note_on_c, 0, 62, 0
2, 9872, Control_c, 0, 64, 37
2, 9872, Note_on_c, 0, 66, 82
2, 9881, Note_on_c, 0, 50, 62
2, 9887, Control_c, 0, 64, 37
2, 9902, Control_c, 0, 64, 38
2, 9917, Control_c, 0, 64, 39
2, 9921, Note_on_c, 0, 50, 0
2, 9927, Note_on_c, 0, 66, 0
2, 9948, Control_c, 0, 64, 39
2, 9963, Control_c, 0, 64, 40
2, 9978, Control_c, 0, 64, 41
2, 9978, Note_on_c, 0, 61, 61
2, 9993, Control_c, 0, 64, 42
2, 10009, Control_c, 0, 64, 43
2, 10025, Control_c, 0, 64, 43
2, 10055, Control_c, 0, 64, 44
2, 10061, Note_on_c, 0, 62, 55
2, 10063, Note_on_c, 0, 61, 0
2, 10085, Control_c, 0, 64, 44
2, 10101, Control_c, 0, 64, 45
2, 10114, Note_on_c, 0, 69, 86
2, 10116, Control_c, 0, 64, 46
2, 10119, Note_on_c, 0, 62, 0
2, 10129, Note_on_c, 0, 54, 62
2, 10131, Control_c, 0, 64, 47
2, 10147, Control_c, 0, 64, 49
2, 10158, Note_on_c, 0, 69, 0
2, 10161, Control_c, 0, 64, 50
2, 10176, Control_c, 0, 64, 53
2, 10192, Control_c, 0, 64, 55
2, 10200, Note_on_c, 0, 61, 69
2, 10206, Control_c, 0, 64, 57
2, 10212, Note_on_c, 0, 54, 0
2, 10222, Control_c, 0, 64, 58
2, 10237, Control_c, 0, 64, 59
2, 10252, Control_c, 0, 64, 59
2, 10268, Control_c, 0, 64, 60
2, 10270, Note_on_c, 0, 61, 0
2, 10280, Note_on_c, 0, 62, 68
2, 10308, Note_on_c, 0, 62, 0
2, 10313, Control_c, 0, 64, 59
2, 10328, Control_c, 0, 64, 58
2, 10344, Control_c, 0, 64, 57
2, 10359, Control_c, 0, 64, 56
2, 10374, Control_c, 0, 64, 52
2, 10378, Note_on_c, 0, 68, 83
2, 10389, Control_c, 0, 64, 47
2, 10395, Note_on_c, 0, 47, 74
2, 10404, Control_c, 0, 64, 41
2, 10420, Control_c, 0, 64, 29
2, 10435, Control_c, 0, 64, 0
2, 10459, Note_on_c, 0, 68, 0
2, 10469, Note_on_c, 0, 71, 71
2, 10533, Note_on_c, 0, 71, 0
2, 10536, Note_on_c, 0, 74, 71
2, 10605, Note_on_c, 0, 47, 0
2, 10611, Note_on_c, 0, 74, 0
2, 10611, Note_on_c, 0, 77, 86
2, 10619, Note_on_c, 0, 59, 72
2, 10655, Control_c, 0, 64, 18
2, 10664, Note_on_c, 0, 59, 0
2, 10671, Control_c, 0, 64, 30
2, 10686, Control_c, 0, 64, 34
2, 10701, Control_c, 0, 64, 37
2, 10705, Note_on_c, 0, 74, 72
2, 10713, Note_on_c, 0, 77, 0
2, 10716, Control_c, 0, 64, 39
2, 10731, Control_c, 0, 64, 41
2, 10746, Control_c, 0, 64, 42
2, 10774, Note_on_c, 0, 74, 0
2, 10778, Note_on_c, 0, 71, 77
2, 10807, Control_c, 0, 64, 42
2, 10824, Control_c, 0, 64, 41
2, 10845, Note_on_c, 0, 71, 0
2, 10849, Note_on_c, 0, 74, 69
2, 10853, Control_c, 0, 64, 41
2, 10869, Control_c, 0, 64, 40
2, 10884, Control_c, 0, 64, 39
2, 10900, Control_c, 0, 64, 38
2, 10915, Control_c, 0, 64, 37
2, 10918, Note_on_c, 0, 74, 0
2, 10926, Note_on_c, 0, 71, 72
2, 10929, Control_c, 0, 64, 36
2, 10966, Note_on_c, 0, 71, 0
2, 10974, Control_c, 0, 64, 37
2, 10992, Note_on_c, 0, 68, 84
2, 11005, Control_c, 0, 64, 37
2, 11027, Note_on_c, 0, 68, 0
2, 11036, Control_c, 0, 64, 37
2, 11050, Control_c, 0, 64, 36
2, 11066, Control_c, 0, 64, 34
2, 11077, Note_on_c, 0, 57, 71
2, 11081, Control_c, 0, 64, 32
2, 11083, Note_on_c, 0, 71, 77
2, 11096, Control_c, 0, 64, 30
2, 11101, Note_on_c, 0, 57, 0
2, 11112, Control_c, 0, 64, 27
2, 11126, Control_c, 0, 64, 23
2, 11142, Control_c, 0, 64, 20
2, 11157, Control_c, 0, 64, 18
2, 11165, Note_on_c, 0, 68, 77
2, 11187, Control_c, 0, 64, 20
2, 11191, Note_on_c, 0, 71, 0
2, 11218, Control_c, 0, 64, 21
2, 11238, Note_on_c, 0, 65, 74
2, 11244, Note_on_c, 0, 68, 0
2, 11247, Control_c, 0, 64, 23
2, 11263, Control_c, 0, 64, 24
2, 11278, Control_c, 0, 64, 25
2, 11293, Control_c, 0, 64, 26
2, 11311, Note_on_c, 0, 62, 75
2, 11313, Note_on_c, 0, 56, 73
2, 11313, Note_on_c, 0, 65, 0
2, 11339, Control_c, 0, 64, 25
2, 11394, Note_on_c, 0, 65, 73
2, 11407, Control_c, 0, 64, 26
2, 11420, Note_on_c, 0, 62, 0
2, 11438, Control_c, 0, 64, 27
2, 11452, Control_c, 0, 64, 28
2, 11468, Control_c, 0, 64, 29
2, 11481, Note_on_c, 0, 68, 78
2, 11482, Note_on_c, 0, 65, 0
2, 11483, Control_c, 0, 64, 29
2, 11499, Control_c, 0, 64, 30
2, 11528, Control_c, 0, 64, 31
2, 11544, Control_c, 0, 64, 32
2, 11557, Note_on_c, 0, 44, 70
2, 11559, Control_c, 0, 64, 34
2, 11560, Note_on_c, 0, 68, 0
2, 11563, Note_on_c, 0, 71, 80
2, 11574, Control_c, 0, 64, 36
2, 11584, Note_on_c, 0, 56, 0
2, 11589, Control_c, 0, 64, 37
2, 11594, Note_on_c, 0, 44, 0
2, 11604, Control_c, 0, 64, 38
2, 11620, Control_c, 0, 64, 38
2, 11636, Control_c, 0, 64, 39
2, 11643, Note_on_c, 0, 68, 76
2, 11649, Note_on_c, 0, 71, 0
2, 11651, Control_c, 0, 64, 39
2, 11667, Control_c, 0, 64, 40
2, 11682, Control_c, 0, 64, 40
2, 11716, Note_on_c, 0, 65, 75
2, 11716, Note_on_c, 0, 68, 0
2, 11727, Control_c, 0, 64, 39
2, 11743, Control_c, 0, 64, 38
2, 11758, Control_c, 0, 64, 36
2, 11772, Control_c, 0, 64, 34
2, 11787, Note_on_c, 0, 65, 0
2, 11788, Control_c, 0, 64, 33
2, 11790, Note_on_c, 0, 68, 76
2, 11803, Control_c, 0, 64, 32
2, 11818, Control_c, 0, 64, 29
2, 11833, Control_c, 0, 64, 27
2, 11848, Control_c, 0, 64, 24
2, 11862, Note_on_c, 0, 68, 0
2, 11864, Control_c, 0, 64, 21
2, 11864, Note_on_c, 0, 65, 73
2, 11879, Control_c, 0, 64, 20
2, 11921, Note_on_c, 0, 65, 0
2, 11924, Control_c, 0, 64, 23
2, 11938, Note_on_c, 0, 62, 64
2, 11940, Control_c, 0, 64, 26
2, 11955, Control_c, 0, 64, 27
2, 11970, Control_c, 0, 64, 28
2, 11998, Note_on_c, 0, 56, 63
2, 12004, Note_on_c, 0, 65, 81
2, 12006, Note_on_c, 0, 62, 0
2, 12015, Control_c, 0, 64, 29
2, 12031, Note_on_c, 0, 56, 0
2, 12046, Control_c, 0, 64, 29
2, 12062, Control_c, 0, 64, 30
2, 12075, Note_on_c, 0, 62, 67
2, 12077, Control_c, 0, 64, 31
2, 12092, Control_c, 0, 64, 32
2, 12099, Note_on_c, 0, 65, 0
2, 12107, Control_c, 0, 64, 33
2, 12138, Control_c, 0, 64, 34
2, 12145, Note_on_c, 0, 62, 0
2, 12148, Note_on_c, 0, 59, 76
2, 12153, Control_c, 0, 64, 34
2, 12174, Control_c, 0, 64, 35
2, 12190, Control_c, 0, 64, 36
2, 12205, Control_c, 0, 64, 39
2, 12221, Control_c, 0, 64, 41
2, 12227, Note_on_c, 0, 59, 0
2, 12236, Control_c, 0, 64, 43
2, 12236, Note_on_c, 0, 57, 57
2, 12249, Note_on_c, 0, 60, 83
2, 12251, Control_c, 0, 64, 44
2, 12267, Control_c, 0, 64, 45
2, 12279, Note_on_c, 0, 60, 0
2, 12282, Control_c, 0, 64, 45
2, 12312, Control_c, 0, 64, 44
2, 12320, Note_on_c, 0, 57, 0
2, 12325, Note_on_c, 0, 60, 51
2, 12327, Control_c, 0, 64, 44
2, 12388, Control_c, 0, 64, 44
2, 12390, Note_on_c, 0, 60, 0
2, 12401, Note_on_c, 0, 64, 72
2, 12419, Control_c, 0, 64, 45
2, 12433, Control_c, 0, 64, 46
2, 12465, Control_c, 0, 64, 46
2, 12481, Note_on_c, 0, 64, 0
2, 12494, Note_on_c, 0, 76, 87
2, 12495, Control_c, 0, 64, 46
2, 12511, Control_c, 0, 64, 45
2, 12512, Note_on_c, 0, 69, 73
2, 12526, Control_c, 0, 64, 45
2, 12539, Note_on_c, 0, 76, 0
2, 12541, Control_c, 0, 64, 44
2, 12554, Note_on_c, 0, 69, 0
2, 12594, Note_on_c, 0, 64, 65
2, 12616, Control_c, 0, 64, 43
2, 12632, Control_c, 0, 64, 42
2, 12644, Note_on_c, 0, 64, 0
2, 12647, Control_c, 0, 64, 42
2, 12662, Control_c, 0, 64, 41
2, 12671, Note_on_c, 0, 60, 63
2, 12677, Control_c, 0, 64, 41
2, 12708, Control_c, 0, 64, 40
2, 12736, Note_on_c, 0, 60, 0
2, 12748, Note_on_c, 0, 72, 92
2, 12766, Note_on_c, 0, 64, 72
2, 12769, Control_c, 0, 64, 40
2, 12784, Control_c, 0, 64, 39
2, 12790, Note_on_c, 0, 72, 0
2, 12805, Note_on_c, 0, 64, 0
2, 12814, Control_c, 0, 64, 39
2, 12830, Control_c, 0, 64, 39
2, 12850, Note_on_c, 0, 60, 65
2, 12861, Control_c, 0, 64, 40
2, 12906, Control_c, 0, 64, 39
2, 12912, Note_on_c, 0, 60, 0
2, 12921, Control_c, 0, 64, 39
2, 12927, Note_on_c, 0, 57, 69
2, 12974, Control_c, 0, 64, 39
2, 12990, Control_c, 0, 64, 40
2, 12993, Note_on_c, 0, 57, 0
2, 13004, Control_c, 0, 64, 40
2, 13011, Note_on_c, 0, 69, 92
2, 13020, Control_c, 0, 64, 41
2, 13022, Note_on_c, 0, 60, 76
2, 13035, Control_c, 0, 64, 42
2, 13050, Control_c, 0, 64, 43
2, 13053, Note_on_c, 0, 69, 0
2, 13066, Control_c, 0, 64, 44
2, 13079, Note_on_c, 0, 60, 0
2, 13080, Control_c, 0, 64, 46
2, 13095, Control_c, 0, 64, 47
2, 13095, Note_on_c, 0, 57, 70
2, 13111, Control_c, 0, 64, 48
2, 13126, Control_c, 0, 64, 48
2, 13156, Control_c, 0, 64, 49
2, 13163, Note_on_c, 0, 57, 0
2, 13172, Note_on_c, 0, 52, 69
2, 13202, Control_c, 0, 64, 48
2, 13218, Control_c, 0, 64, 47
2, 13245, Note_on_c, 0, 52, 0
2, 13246, Control_c, 0, 64, 46
2, 13261, Control_c, 0, 64, 46
2, 13270, Note_on_c, 0, 64, 89
2, 13273, Note_on_c, 0, 48, 79
2, 13307, Control_c, 0, 64, 46
2, 13322, Control_c, 0, 64, 47
2, 13337, Control_c, 0, 64, 47
2, 13353, Control_c, 0, 64, 48
2, 13355, Note_on_c, 0, 52, 72
2, 13360, Note_on_c, 0, 48, 0
2, 13383, Control_c, 0, 64, 49
2, 13414, Control_c, 0, 64, 48
2, 13443, Note_on_c, 0, 52, 0
2, 13444, Note_on_c, 0, 57, 63
2, 13446, Note_on_c, 0, 64, 0
2, 13448, Note_on_c, 0, 59, 63
2, 13459, Control_c, 0, 64, 48
2, 13475, Control_c, 0, 64, 47
2, 13490, Control_c, 0, 64, 47
2, 13503, Note_on_c, 0, 59, 0
2, 13505, Control_c, 0, 64, 46
2, 13508, Note_on_c, 0, 57, 0
2, 13520, Control_c, 0, 64, 45
2, 13522, Note_on_c, 0, 76, 90
2, 13531, Note_on_c, 0, 60, 73
2, 13535, Control_c, 0, 64, 45
2, 13566, Control_c, 0, 64, 44
2, 13580, Control_c, 0, 64, 43
2, 13582, Note_on_c, 0, 76, 0
2, 13596, Control_c, 0, 64, 42
2, 13597, Note_on_c, 0, 60, 0
2, 13611, Control_c, 0, 64, 40
2, 13613, Note_on_c, 0, 57, 68
2, 13626, Control_c, 0, 64, 36
2, 13641, Control_c, 0, 64, 32
2, 13656, Control_c, 0, 64, 27
2, 13672, Control_c, 0, 64, 21
2, 13672, Note_on_c, 0, 57, 0
2, 13687, Control_c, 0, 64, 15
2, 13688, Note_on_c, 0, 52, 69
2, 13710, Control_c, 0, 64, 0
2, 13762, Note_on_c, 0, 52, 0
2, 13774, Note_on_c, 0, 72, 91
2, 13783, Note_on_c, 0, 57, 81
2, 13816, Control_c, 0, 64, 10
2, 13830, Note_on_c, 0, 72, 0
2, 13832, Control_c, 0, 64, 17
2, 13839, Note_on_c, 0, 57, 0
2, 13846, Control_c, 0, 64, 21
2, 13861, Control_c, 0, 64, 23
2, 13873, Note_on_c, 0, 52, 75
2, 13908, Control_c, 0, 64, 24
2, 13930, Note_on_c, 0, 52, 0
2, 13937, Control_c, 0, 64, 26
2, 13942, Note_on_c, 0, 48, 73
2, 13953, Control_c, 0, 64, 29
2, 13968, Control_c, 0, 64, 32
2, 13983, Control_c, 0, 64, 34
2, 13998, Control_c, 0, 64, 34
2, 14011, Note_on_c, 0, 48, 0
2, 14013, Control_c, 0, 64, 35
2, 14026, Note_on_c, 0, 69, 88
2, 14038, Note_on_c, 0, 52, 82
2, 14063, Note_on_c, 0, 69, 0
2, 14090, Control_c, 0, 64, 36
2, 14099, Note_on_c, 0, 52, 0
2, 14106, Control_c, 0, 64, 38
2, 14111, Note_on_c, 0, 48, 74
2, 14121, Control_c, 0, 64, 40
2, 14135, Control_c, 0, 64, 41
2, 14151, Control_c, 0, 64, 42
2, 14166, Control_c, 0, 64, 43
2, 14172, Note_on_c, 0, 48, 0
2, 14176, Note_on_c, 0, 45, 72
2, 14181, Control_c, 0, 64, 43
2, 14212, Control_c, 0, 64, 44
2, 14230, Note_on_c, 0, 45, 0
2, 14285, Note_on_c, 0, 75, 87
2, 14309, Note_on_c, 0, 42, 72
2, 14319, Control_c, 0, 64, 44
2, 14374, Note_on_c, 0, 78, 82
2, 14379, Control_c, 0, 64, 45
2, 14395, Note_on_c, 0, 75, 0
2, 14452, Note_on_c, 0, 81, 79
2, 14474, Note_on_c, 0, 78, 0
2, 14478, Control_c, 0, 64, 44
2, 14512, Note_on_c, 0, 42, 0
2, 14536, Note_on_c, 0, 54, 62
2, 14537, Note_on_c, 0, 84, 83
2, 14539, Control_c, 0, 64, 45
2, 14542, Note_on_c, 0, 81, 0
2, 14554, Control_c, 0, 64, 46
2, 14569, Control_c, 0, 64, 47
2, 14583, Note_on_c, 0, 54, 0
2, 14585, Control_c, 0, 64, 47
2, 14600, Control_c, 0, 64, 48
2, 14613, Note_on_c, 0, 81, 73
2, 14615, Control_c, 0, 64, 49
2, 14636, Note_on_c, 0, 84, 0
2, 14645, Control_c, 0, 64, 50
2, 14691, Note_on_c, 0, 78, 81
2, 14701, Note_on_c, 0, 81, 0
2, 14721, Control_c, 0, 64, 49
2, 14752, Control_c, 0, 64, 48
2, 14766, Control_c, 0, 64, 48
2, 14773, Note_on_c, 0, 81, 75
2, 14778, Note_on_c, 0, 78, 0
2, 14781, Control_c, 0, 64, 47
2, 14797, Control_c, 0, 64, 47
2, 14811, Control_c, 0, 64, 46
2, 14845, Note_on_c, 0, 78, 81
2, 14851, Note_on_c, 0, 81, 0
2, 14902, Note_on_c, 0, 78, 0
2, 14915, Note_on_c, 0, 75, 74
2, 14919, Control_c, 0, 64, 46
2, 14934, Control_c, 0, 64, 47
2, 14992, Note_on_c, 0, 75, 0
2, 15004, Note_on_c, 0, 78, 79
2, 15007, Note_on_c, 0, 52, 63
2, 15010, Control_c, 0, 64, 46
2, 15042, Note_on_c, 0, 52, 0
2, 15086, Control_c, 0, 64, 47
2, 15091, Note_on_c, 0, 75, 67
2, 15101, Control_c, 0, 64, 47
2, 15143, Note_on_c, 0, 78, 0
2, 15164, Note_on_c, 0, 72, 75
2, 15190, Note_on_c, 0, 75, 0
2, 15207, Control_c, 0, 64, 47
2, 15257, Note_on_c, 0, 69, 75
2, 15258, Note_on_c, 0, 72, 0
2, 15267, Note_on_c, 0, 51, 54
2, 15276, Control_c, 0, 64, 46
2, 15291, Control_c, 0, 64, 46
2, 15321, Control_c, 0, 64, 45
2, 15336, Control_c, 0, 64, 44
2, 15346, Note_on_c, 0, 72, 74
2, 15357, Note_on_c, 0, 69, 0
2, 15367, Control_c, 0, 64, 44
2, 15419, Note_on_c, 0, 75, 79
2, 15420, Note_on_c, 0, 72, 0
2, 15428, Control_c, 0, 64, 44
2, 15473, Control_c, 0, 64, 45
2, 15488, Control_c, 0, 64, 46
2, 15494, Note_on_c, 0, 39, 60
2, 15502, Note_on_c, 0, 75, 0
2, 15503, Control_c, 0, 64, 47
2, 15508, Note_on_c, 0, 78, 83
2, 15519, Control_c, 0, 64, 47
2, 15532, Note_on_c, 0, 51, 0
2, 15533, Control_c, 0, 64, 48
2, 15554, Note_on_c, 0, 39, 0
2, 15564, Control_c, 0, 64, 49
2, 15581, Note_on_c, 0, 75, 72
2, 15606, Note_on_c, 0, 78, 0
2, 15655, Control_c, 0, 64, 48
2, 15659, Note_on_c, 0, 75, 0
2, 15660, Note_on_c, 0, 72, 74
2, 15670, Control_c, 0, 64, 47
2, 15685, Control_c, 0, 64, 46
2, 15700, Control_c, 0, 64, 45
2, 15716, Control_c, 0, 64, 44
2, 15732, Control_c, 0, 64, 43
2, 15733, Note_on_c, 0, 72, 0
2, 15734, Note_on_c, 0, 75, 70
2, 15748, Control_c, 0, 64, 42
2, 15762, Control_c, 0, 64, 40
2, 15777, Control_c, 0, 64, 38
2, 15794, Control_c, 0, 64, 36
2, 15809, Control_c, 0, 64, 33
2, 15811, Note_on_c, 0, 72, 73
2, 15817, Note_on_c, 0, 75, 0
2, 15825, Control_c, 0, 64, 31
2, 15839, Control_c, 0, 64, 30
2, 15868, Note_on_c, 0, 72, 0
2, 15884, Note_on_c, 0, 69, 65
2, 15957, Note_on_c, 0, 69, 0
2, 15961, Note_on_c, 0, 72, 76
2, 15966, Note_on_c, 0, 51, 47
2, 15991, Control_c, 0, 64, 31
2, 15994, Note_on_c, 0, 51, 0
2, 16030, Control_c, 0, 64, 32
2, 16038, Note_on_c, 0, 72, 0
2, 16041, Note_on_c, 0, 69, 68
2, 16059, Control_c, 0, 64, 32
2, 16111, Note_on_c, 0, 69, 0
2, 16116, Note_on_c, 0, 66, 73
2, 16151, Control_c, 0, 64, 33
2, 16165, Control_c, 0, 64, 34
2, 16180, Control_c, 0, 64, 34
2, 16196, Control_c, 0, 64, 35
2, 16203, Note_on_c, 0, 66, 0
2, 16204, Note_on_c, 0, 52, 55
2, 16208, Note_on_c, 0, 67, 73
2, 16227, Control_c, 0, 64, 36
2, 16239, Note_on_c, 0, 67, 0
2, 16242, Control_c, 0, 64, 36
2, 16248, Note_on_c, 0, 52, 0
2, 16273, Control_c, 0, 64, 37
2, 16287, Control_c, 0, 64, 38
2, 16302, Control_c, 0, 64, 39
2, 16312, Note_on_c, 0, 63, 58
2, 16318, Control_c, 0, 64, 39
2, 16333, Control_c, 0, 64, 40
2, 16364, Note_on_c, 0, 63, 0
2, 16398, Note_on_c, 0, 64, 47
2, 16454, Note_on_c, 0, 64, 0
2, 16471, Note_on_c, 0, 69, 76
2, 16477, Note_on_c, 0, 54, 49
2, 16495, Note_on_c, 0, 69, 0
2, 16547, Control_c, 0, 64, 40
2, 16554, Note_on_c, 0, 54, 0
2, 16562, Control_c, 0, 64, 41
2, 16562, Note_on_c, 0, 63, 56
2, 16639, Note_on_c, 0, 63, 0
2, 16646, Note_on_c, 0, 64, 49
2, 16653, Control_c, 0, 64, 40
2, 16669, Control_c, 0, 64, 40
2, 16714, Note_on_c, 0, 64, 0
2, 16725, Note_on_c, 0, 71, 75
2, 16737, Note_on_c, 0, 55, 54
2, 16743, Control_c, 0, 64, 40
2, 16754, Note_on_c, 0, 71, 0
2, 16759, Control_c, 0, 64, 41
2, 16782, Control_c, 0, 64, 41
2, 16801, Note_on_c, 0, 55, 0
2, 16812, Control_c, 0, 64, 42
2, 16826, Note_on_c, 0, 63, 52
2, 16828, Control_c, 0, 64, 42
2, 16901, Note_on_c, 0, 63, 0
2, 16908, Note_on_c, 0, 64, 50
2, 16964, Control_c, 0, 64, 43
2, 16971, Note_on_c, 0, 64, 0
2, 16979, Control_c, 0, 64, 44
2, 16992, Note_on_c, 0, 72, 73
2, 16995, Control_c, 0, 64, 45
2, 17009, Control_c, 0, 64, 46
2, 17009, Note_on_c, 0, 57, 54
2, 17025, Control_c, 0, 64, 47
2, 17027, Note_on_c, 0, 72, 0
2, 17040, Control_c, 0, 64, 48
2, 17055, Control_c, 0, 64, 49
2, 17066, Note_on_c, 0, 57, 0
2, 17071, Control_c, 0, 64, 50
2, 17086, Control_c, 0, 64, 51
2, 17096, Note_on_c, 0, 63, 55
2, 17101, Control_c, 0, 64, 52
2, 17116, Control_c, 0, 64, 52
2, 17159, Note_on_c, 0, 63, 0
2, 17162, Control_c, 0, 64, 52
2, 17178, Note_on_c, 0, 64, 46
2, 17193, Control_c, 0, 64, 51
2, 17263, Note_on_c, 0, 55, 43
2, 17263, Note_on_c, 0, 71, 69
2, 17269, Note_on_c, 0, 64, 0
2, 17298, Control_c, 0, 64, 51
2, 17331, Note_on_c, 0, 55, 0
2, 17352, Note_on_c, 0, 63, 60
2, 17359, Control_c, 0, 64, 50
2, 17406, Note_on_c, 0, 63, 0
2, 17446, Note_on_c, 0, 64, 54
2, 17497, Note_on_c, 0, 64, 0
2, 17507, Note_on_c, 0, 69, 79
2, 17514, Note_on_c, 0, 54, 57
2, 17514, Note_on_c, 0, 71, 0
2, 17551, Control_c, 0, 64, 50
2, 17551, Note_on_c, 0, 69, 0
2, 17566, Control_c, 0, 64, 49
2, 17580, Control_c, 0, 64, 49
2, 17596, Control_c, 0, 64, 48
2, 17600, Note_on_c, 0, 54, 0
2, 17611, Control_c, 0, 64, 48
2, 17623, Note_on_c, 0, 63, 45
2, 17627, Control_c, 0, 64, 47
2, 17642, Control_c, 0, 64, 46
2, 17651, Note_on_c, 0, 63, 0
2, 17656, Control_c, 0, 64, 46
2, 17672, Control_c, 0, 64, 45
2, 17682, Note_on_c, 0, 64, 50
2, 17687, Control_c, 0, 64, 44
2, 17701, Control_c, 0, 64, 43
2, 17717, Control_c, 0, 64, 42
2, 17763, Control_c, 0, 64, 43
2, 17763, Note_on_c, 0, 64, 0
2, 17775, Note_on_c, 0, 52, 60
2, 17777, Control_c, 0, 64, 43
2, 17777, Note_on_c, 0, 67, 69
2, 17793, Control_c, 0, 64, 44
2, 17808, Control_c, 0, 64, 44
2, 17813, Note_on_c, 0, 67, 0
2, 17823, Control_c, 0, 64, 45
2, 17831, Note_on_c, 0, 52, 0
2, 17853, Control_c, 0, 64, 45
2, 17878, Note_on_c, 0, 63, 61
2, 17899, Control_c, 0, 64, 46
2, 17929, Control_c, 0, 64, 47
2, 17959, Note_on_c, 0, 63, 0
2, 17960, Control_c, 0, 64, 47
2, 17972, Note_on_c, 0, 64, 43
2, 18021, Control_c, 0, 64, 48
2, 18028, Note_on_c, 0, 64, 0
2, 18037, Control_c, 0, 64, 49
2, 18037, Note_on_c, 0, 71, 70
2, 18040, Note_on_c, 0, 55, 59
2, 18051, Control_c, 0, 64, 49
2, 18067, Control_c, 0, 64, 50
2, 18070, Note_on_c, 0, 71, 0
2, 18082, Control_c, 0, 64, 51
2, 18112, Control_c, 0, 64, 51
2, 18112, Note_on_c, 0, 55, 0
2, 18116, Note_on_c, 0, 63, 60
2, 18127, Control_c, 0, 64, 52
2, 18142, Control_c, 0, 64, 53
2, 18173, Control_c, 0, 64, 53
2, 18179, Note_on_c, 0, 63, 0
2, 18195, Note_on_c, 0, 64, 60
2, 18220, Note_on_c, 0, 64, 0
2, 18235, Control_c, 0, 64, 53
2, 18290, Note_on_c, 0, 69, 65
2, 18299, Note_on_c, 0, 49, 71
2, 18349, Control_c, 0, 64, 52
2, 18351, Note_on_c, 0, 49, 0
2, 18362, Note_on_c, 0, 69, 0
2, 18379, Control_c, 0, 64, 52
2, 18388, Note_on_c, 0, 68, 65
2, 18409, Control_c, 0, 64, 51
2, 18440, Control_c, 0, 64, 51
2, 18444, Note_on_c, 0, 68, 0
2, 18465, Note_on_c, 0, 69, 59
2, 18471, Control_c, 0, 64, 50
2, 18531, Control_c, 0, 64, 50
2, 18545, Note_on_c, 0, 71, 63
2, 18549, Note_on_c, 0, 69, 0
2, 18551, Note_on_c, 0, 50, 65
2, 18578, Note_on_c, 0, 50, 0
2, 18607, Control_c, 0, 64, 49
2, 18621, Control_c, 0, 64, 49
2, 18627, Note_on_c, 0, 71, 0
2, 18633, Note_on_c, 0, 68, 66
2, 18697, Control_c, 0, 64, 48
2, 18707, Note_on_c, 0, 68, 0
2, 18712, Note_on_c, 0, 69, 62
2, 18743, Control_c, 0, 64, 47
2, 18758, Control_c, 0, 64, 47
2, 18773, Control_c, 0, 64, 46
2, 18794, Note_on_c, 0, 73, 73
2, 18798, Note_on_c, 0, 52, 79
2, 18804, Control_c, 0, 64, 45
2, 18807, Note_on_c, 0, 69, 0
2, 18835, Control_c, 0, 64, 45
2, 18839, Note_on_c, 0, 52, 0
2, 18884, Note_on_c, 0, 73, 0
2, 18888, Note_on_c, 0, 68, 69
2, 18895, Control_c, 0, 64, 45
2, 18911, Control_c, 0, 64, 46
2, 18948, Note_on_c, 0, 69, 66
2, 18954, Note_on_c, 0, 68, 0
2, 19045, Note_on_c, 0, 74, 69
2, 19052, Note_on_c, 0, 69, 0
2, 19053, Note_on_c, 0, 54, 80
2, 19101, Control_c, 0, 64, 46
2, 19117, Control_c, 0, 64, 47
2, 19127, Note_on_c, 0, 54, 0
2, 19132, Control_c, 0, 64, 47
2, 19143, Note_on_c, 0, 68, 72
2, 19153, Note_on_c, 0, 74, 0
2, 19162, Control_c, 0, 64, 48
2, 19192, Control_c, 0, 64, 49
2, 19216, Note_on_c, 0, 68, 0
2, 19218, Note_on_c, 0, 69, 68
2, 19253, Control_c, 0, 64, 48
2, 19269, Control_c, 0, 64, 48
2, 19284, Control_c, 0, 64, 47
2, 19315, Control_c, 0, 64, 47
2, 19318, Note_on_c, 0, 76, 72
2, 19330, Note_on_c, 0, 49, 73
2, 19333, Note_on_c, 0, 69, 0
2, 19345, Control_c, 0, 64, 46
2, 19360, Control_c, 0, 64, 46
2, 19399, Note_on_c, 0, 76, 0
2, 19405, Control_c, 0, 64, 46
2, 19406, Note_on_c, 0, 68, 69
2, 19420, Control_c, 0, 64, 47
2, 19466, Control_c, 0, 64, 47
2, 19483, Note_on_c, 0, 69, 59
2, 19484, Note_on_c, 0, 68, 0
2, 19541, Control_c, 0, 64, 48
2, 19566, Note_on_c, 0, 47, 72
2, 19566, Note_on_c, 0, 49, 0
2, 19571, Note_on_c, 0, 78, 74
2, 19582, Note_on_c, 0, 69, 0
2, 19611, Note_on_c, 0, 47, 0
2, 19657, Note_on_c, 0, 68, 68
2, 19658, Note_on_c, 0, 78, 0
2, 19663, Control_c, 0, 64, 47
2, 19693, Control_c, 0, 64, 47
2, 19729, Note_on_c, 0, 68, 0
2, 19737, Note_on_c, 0, 69, 64
2, 19739, Control_c, 0, 64, 46
2, 19755, Control_c, 0, 64, 46
2, 19786, Control_c, 0, 64, 45
2, 19800, Control_c, 0, 64, 45
2, 19816, Control_c, 0, 64, 44
2, 19828, Note_on_c, 0, 45, 62
2, 19829, Note_on_c, 0, 79, 75
2, 19832, Control_c, 0, 64, 44
2, 19834, Note_on_c, 0, 69, 0
2, 19854, Control_c, 0, 64, 43
2, 19870, Control_c, 0, 64, 43
2, 19886, Note_on_c, 0, 45, 0
2, 19915, Control_c, 0, 64, 43
2, 19915, Note_on_c, 0, 79, 0
2, 19919, Note_on_c, 0, 76, 68
2, 19946, Control_c, 0, 64, 44
2, 19975, Control_c, 0, 64, 44
2, 19989, Note_on_c, 0, 76, 0
2, 19999, Note_on_c, 0, 73, 69
2, 20021, Control_c, 0, 64, 45
2, 20036, Control_c, 0, 64, 45
2, 20058, Note_on_c, 0, 73, 0
2, 20063, Note_on_c, 0, 49, 60
2, 20067, Control_c, 0, 64, 46
2, 20071, Note_on_c, 0, 69, 70
2, 20097, Control_c, 0, 64, 46
2, 20097, Note_on_c, 0, 49, 0
2, 20143, Control_c, 0, 64, 46
2, 20143, Note_on_c, 0, 73, 64
2, 20150, Note_on_c, 0, 69, 0
2, 20218, Note_on_c, 0, 73, 0
2, 20229, Note_on_c, 0, 76, 67
2, 20265, Control_c, 0, 64, 46
2, 20303, Note_on_c, 0, 50, 52
2, 20306, Note_on_c, 0, 76, 0
2, 20322, Note_on_c, 0, 78, 71
2, 20387, Note_on_c, 0, 50, 0
2, 20399, Note_on_c, 0, 54, 59
2, 20400, Control_c, 0, 64, 47
2, 20431, Control_c, 0, 64, 47
2, 20471, Note_on_c, 0, 57, 62
2, 20474, Note_on_c, 0, 54, 0
2, 20476, Control_c, 0, 64, 48
2, 20517, Note_on_c, 0, 78, 0
2, 20534, Note_on_c, 0, 57, 0
2, 20551, Note_on_c, 0, 62, 63
2, 20598, Control_c, 0, 64, 47
2, 20608, Note_on_c, 0, 62, 0
2, 20609, Note_on_c, 0, 57, 58
2, 20636, Control_c, 0, 64, 47
2, 20668, Control_c, 0, 64, 46
2, 20708, Note_on_c, 0, 54, 67
2, 20708, Note_on_c, 0, 57, 0
2, 20713, Control_c, 0, 64, 47
2, 20758, Control_c, 0, 64, 47
2, 20801, Note_on_c, 0, 54, 0
2, 20805, Note_on_c, 0, 50, 68
2, 20813, Note_on_c, 0, 81, 77
2, 20834, Control_c, 0, 64, 48
2, 20847, Note_on_c, 0, 50, 0
2, 20895, Note_on_c, 0, 78, 82
2, 20901, Note_on_c, 0, 81, 0
2, 20970, Note_on_c, 0, 74, 76
2, 20978, Note_on_c, 0, 78, 0
2, 21016, Control_c, 0, 64, 47
2, 21047, Control_c, 0, 64, 47
2, 21047, Note_on_c, 0, 72, 76
2, 21048, Note_on_c, 0, 74, 0
2, 21061, Note_on_c, 0, 62, 59
2, 21077, Control_c, 0, 64, 46
2, 21092, Control_c, 0, 64, 46
2, 21108, Control_c, 0, 64, 45
2, 21108, Note_on_c, 0, 62, 0
2, 21121, Note_on_c, 0, 74, 72
2, 21123, Control_c, 0, 64, 44
2, 21138, Control_c, 0, 64, 43
2, 21139, Note_on_c, 0, 72, 0
2, 21153, Control_c, 0, 64, 42
2, 21168, Control_c, 0, 64, 40
2, 21183, Control_c, 0, 64, 39
2, 21199, Control_c, 0, 64, 39
2, 21204, Note_on_c, 0, 74, 0
2, 21204, Note_on_c, 0, 78, 78
2, 21213, Control_c, 0, 64, 38
2, 21229, Control_c, 0, 64, 36
2, 21244, Control_c, 0, 64, 35
2, 21259, Control_c, 0, 64, 33
2, 21275, Control_c, 0, 64, 32
2, 21289, Control_c, 0, 64, 31
2, 21299, Note_on_c, 0, 50, 53
2, 21304, Control_c, 0, 64, 30
2, 21311, Note_on_c, 0, 81, 74
2, 21313, Note_on_c, 0, 78, 0
2, 21366, Control_c, 0, 64, 31
2, 21387, Note_on_c, 0, 50, 0
2, 21389, Control_c, 0, 64, 32
2, 21394, Note_on_c, 0, 55, 58
2, 21418, Control_c, 0, 64, 32
2, 21434, Control_c, 0, 64, 33
2, 21449, Control_c, 0, 64, 34
2, 21466, Control_c, 0, 64, 34
2, 21476, Note_on_c, 0, 55, 0
2, 21477, Note_on_c, 0, 59, 63
2, 21496, Control_c, 0, 64, 35
2, 21512, Control_c, 0, 64, 36
2, 21522, Note_on_c, 0, 81, 0
2, 21526, Control_c, 0, 64, 37
2, 21541, Control_c, 0, 64, 38
2, 21548, Note_on_c, 0, 59, 0
2, 21555, Note_on_c, 0, 79, 69
2, 21557, Control_c, 0, 64, 38
2, 21572, Control_c, 0, 64, 39
2, 21574, Note_on_c, 0, 62, 60
2, 21588, Control_c, 0, 64, 40
2, 21597, Note_on_c, 0, 79, 0
2, 21602, Control_c, 0, 64, 40
2, 21617, Control_c, 0, 64, 41
2, 21633, Control_c, 0, 64, 41
2, 21637, Note_on_c, 0, 62, 0
2, 21641, Note_on_c, 0, 59, 58
2, 21678, Control_c, 0, 64, 42
2, 21717, Note_on_c, 0, 59, 0
2, 21724, Control_c, 0, 64, 41
2, 21727, Note_on_c, 0, 55, 61
2, 21754, Control_c, 0, 64, 41
2, 21784, Control_c, 0, 64, 41
2, 21794, Note_on_c, 0, 55, 0
2, 21800, Control_c, 0, 64, 42
2, 21810, Note_on_c, 0, 50, 69
2, 21810, Note_on_c, 0, 79, 75
2, 21815, Control_c, 0, 64, 43
2, 21831, Control_c, 0, 64, 44
2, 21845, Control_c, 0, 64, 44
2, 21860, Control_c, 0, 64, 46
2, 21861, Note_on_c, 0, 50, 0
2, 21876, Control_c, 0, 64, 46
2, 21890, Note_on_c, 0, 76, 79
2, 21891, Control_c, 0, 64, 47
2, 21893, Note_on_c, 0, 79, 0
2, 21907, Control_c, 0, 64, 47
2, 21965, Control_c, 0, 64, 48
2, 21975, Note_on_c, 0, 76, 0
2, 21976, Note_on_c, 0, 73, 81
2, 22041, Note_on_c, 0, 73, 0
2, 22042, Note_on_c, 0, 69, 76
2, 22078, Note_on_c, 0, 62, 60
2, 22102, Control_c, 0, 64, 47
2, 22124, Note_on_c, 0, 73, 76
2, 22131, Note_on_c, 0, 62, 0
2, 22164, Note_on_c, 0, 69, 0
2, 22171, Control_c, 0, 64, 47
2, 22207, Note_on_c, 0, 73, 0
2, 22207, Note_on_c, 0, 76, 76
2, 22216, Control_c, 0, 64, 46
2, 22232, Control_c, 0, 64, 46
2, 22293, Control_c, 0, 64, 46
2, 22296, Note_on_c, 0, 76, 0
2, 22303, Note_on_c, 0, 50, 50
2, 22304, Note_on_c, 0, 79, 78
2, 22324, Control_c, 0, 64, 47
2, 22365, Note_on_c, 0, 50, 0
2, 22369, Control_c, 0, 64, 47
2, 22398, Note_on_c, 0, 57, 52
2, 22414, Control_c, 0, 64, 48
2, 22430, Control_c, 0, 64, 48
2, 22445, Control_c, 0, 64, 49
2, 22460, Control_c, 0, 64, 50
2, 22476, Control_c, 0, 64, 50
2, 22476, Note_on_c, 0, 57, 0
2, 22476, Note_on_c, 0, 61, 58
2, 22507, Control_c, 0, 64, 51
2, 22521, Note_on_c, 0, 61, 0
2, 22543, Note_on_c, 0, 79, 0
2, 22558, Note_on_c, 0, 78, 75
2, 22560, Note_on_c, 0, 62, 56
2, 22582, Control_c, 0, 64, 50
2, 22604, Note_on_c, 0, 78, 0
2, 22621, Note_on_c, 0, 62, 0
2, 22639, Note_on_c, 0, 57, 57
2, 22643, Control_c, 0, 64, 50
2, 22712, Note_on_c, 0, 57, 0
2, 22731, Note_on_c, 0, 54, 61
2, 22735, Control_c, 0, 64, 49
2, 22751, Control_c, 0, 64, 49
2, 22780, Control_c, 0, 64, 48
2, 22803, Note_on_c, 0, 78, 79
2, 22809, Note_on_c, 0, 50, 69
2, 22811, Note_on_c, 0, 54, 0
2, 22826, Control_c, 0, 64, 49
2, 22848, Note_on_c, 0, 50, 0
2, 22856, Control_c, 0, 64, 49
2, 22885, Note_on_c, 0, 74, 70
2, 22901, Control_c, 0, 64, 50
2, 22903, Note_on_c, 0, 78, 0
2, 22974, Note_on_c, 0, 71, 75
2, 22979, Note_on_c, 0, 74, 0
2, 23044, Note_on_c, 0, 67, 77
2, 23046, Control_c, 0, 64, 50
2, 23050, Note_on_c, 0, 71, 0
2, 23067, Note_on_c, 0, 62, 68
2, 23077, Control_c, 0, 64, 50
2, 23120, Note_on_c, 0, 62, 0
2, 23123, Note_on_c, 0, 71, 68
2, 23150, Note_on_c, 0, 67, 0
2, 23169, Control_c, 0, 64, 49
2, 23198, Note_on_c, 0, 74, 73
2, 23210, Note_on_c, 0, 71, 0
2, 23214, Control_c, 0, 64, 48
2, 23259, Control_c, 0, 64, 48
2, 23283, Note_on_c, 0, 74, 0
2, 23290, Control_c, 0, 64, 47
2, 23291, Note_on_c, 0, 78, 74
2, 23307, Note_on_c, 0, 50, 53
2, 23321, Control_c, 0, 64, 47
2, 23335, Control_c, 0, 64, 46
2, 23366, Control_c, 0, 64, 45
2, 23381, Control_c, 0, 64, 44
2, 23382, Note_on_c, 0, 50, 0
2, 23387, Note_on_c, 0, 52, 62
2, 23397, Control_c, 0, 64, 43
2, 23411, Control_c, 0, 64, 42
2, 23427, Control_c, 0, 64, 41
2, 23442, Control_c, 0, 64, 41
2, 23457, Control_c, 0, 64, 40
2, 23463, Note_on_c, 0, 52, 0
2, 23470, Note_on_c, 0, 55, 62
2, 23488, Note_on_c, 0, 78, 0
2, 23532, Note_on_c, 0, 55, 0
2, 23535, Note_on_c, 0, 76, 68
2, 23553, Note_on_c, 0, 59, 57
2, 23567, Note_on_c, 0, 76, 0
2, 23594, Control_c, 0, 64, 40
2, 23609, Note_on_c, 0, 59, 0
2, 23624, Control_c, 0, 64, 39
2, 23626, Note_on_c, 0, 55, 59
2, 23640, Control_c, 0, 64, 38
2, 23655, Control_c, 0, 64, 37
2, 23670, Control_c, 0, 64, 34
2, 23692, Control_c, 0, 64, 32
2, 23698, Note_on_c, 0, 55, 0
2, 23708, Control_c, 0, 64, 28
2, 23712, Note_on_c, 0, 52, 58
2, 23723, Control_c, 0, 64, 24
2, 23738, Control_c, 0, 64, 21
2, 23754, Control_c, 0, 64, 20
2, 23797, Note_on_c, 0, 76, 67
2, 23798, Note_on_c, 0, 52, 0
2, 23799, Control_c, 0, 64, 21
2, 23814, Control_c, 0, 64, 23
2, 23817, Note_on_c, 0, 50, 53
2, 23845, Control_c, 0, 64, 24
2, 23860, Control_c, 0, 64, 26
2, 23867, Note_on_c, 0, 50, 0
2, 23875, Control_c, 0, 64, 28
2, 23878, Note_on_c, 0, 76, 0
2, 23880, Note_on_c, 0, 73, 63
2, 23890, Control_c, 0, 64, 29
2, 23906, Control_c, 0, 64, 30
2, 23922, Control_c, 0, 64, 32
2, 23937, Control_c, 0, 64, 33
2, 23953, Control_c, 0, 64, 35
2, 23957, Note_on_c, 0, 73, 0
2, 23962, Note_on_c, 0, 69, 64
2, 23967, Control_c, 0, 64, 36
2, 23982, Control_c, 0, 64, 38
2, 23998, Control_c, 0, 64, 38
2, 24013, Control_c, 0, 64, 39
2, 24029, Control_c, 0, 64, 40
2, 24032, Note_on_c, 0, 69, 0
2, 24036, Note_on_c, 0, 67, 66
2, 24039, Note_on_c, 0, 62, 56
2, 24044, Control_c, 0, 64, 40
2, 24058, Control_c, 0, 64, 41
2, 24074, Control_c, 0, 64, 41
2, 24079, Note_on_c, 0, 62, 0
2, 24089, Control_c, 0, 64, 42
2, 24103, Control_c, 0, 64, 42
2, 24119, Note_on_c, 0, 67, 0
2, 24124, Note_on_c, 0, 69, 62
2, 24179, Control_c, 0, 64, 42
2, 24200, Note_on_c, 0, 69, 0
2, 24210, Control_c, 0, 64, 41
2, 24213, Note_on_c, 0, 73, 66
2, 24271, Control_c, 0, 64, 41
2, 24298, Note_on_c, 0, 73, 0
2, 24304, Note_on_c, 0, 50, 48
2, 24320, Note_on_c, 0, 76, 59
2, 24331, Control_c, 0, 64, 41
2, 24383, Note_on_c, 0, 50, 0
2, 24405, Note_on_c, 0, 54, 53
2, 24408, Control_c, 0, 64, 42
2, 24476, Control_c, 0, 64, 42
2, 24479, Note_on_c, 0, 54, 0
2, 24502, Note_on_c, 0, 57, 46
2, 24539, Note_on_c, 0, 57, 0
2, 24552, Note_on_c, 0, 76, 0
2, 24567, Note_on_c, 0, 74, 56
2, 24576, Note_on_c, 0, 62, 56
2, 24598, Control_c, 0, 64, 43
2, 24620, Note_on_c, 0, 62, 0
2, 24629, Control_c, 0, 64, 43
2, 24641, Note_on_c, 0, 57, 49
2, 24643, Control_c, 0, 64, 44
2, 24658, Control_c, 0, 64, 44
2, 24689, Control_c, 0, 64, 45
2, 24704, Control_c, 0, 64, 46
2, 24709, Note_on_c, 0, 57, 0
2, 24729, Note_on_c, 0, 54, 61
2, 24735, Control_c, 0, 64, 47
2, 24766, Control_c, 0, 64, 47
2, 24781, Control_c, 0, 64, 48
2, 24788, Note_on_c, 0, 74, 0
2, 24796, Control_c, 0, 64, 48
2, 24802, Note_on_c, 0, 54, 0
2, 24827, Control_c, 0, 64, 49
2, 24827, Note_on_c, 0, 57, 69
2, 24899, Note_on_c, 0, 57, 0
2, 24916, Note_on_c, 0, 54, 59
2, 24918, Control_c, 0, 64, 49
2, 24964, Note_on_c, 0, 54, 0
2, 24978, Control_c, 0, 64, 50
2, 24989, Note_on_c, 0, 50, 55
2, 24994, Control_c, 0, 64, 50
2, 25009, Control_c, 0, 64, 51
2, 25023, Control_c, 0, 64, 51
2, 25038, Note_on_c, 0, 50, 0
2, 25070, Note_on_c, 0, 74, 63
2, 25072, Note_on_c, 0, 54, 57
2, 25084, Control_c, 0, 64, 51
2, 25113, Note_on_c, 0, 74, 0
2, 25138, Note_on_c, 0, 54, 0
2, 25153, Note_on_c, 0, 50, 61
2, 25239, Note_on_c, 0, 50, 0
2, 25249, Note_on_c, 0, 48, 58
2, 25304, Control_c, 0, 64, 51
2, 25323, Note_on_c, 0, 48, 0
2, 25335, Control_c, 0, 64, 52
2, 25337, Note_on_c, 0, 47, 64
2, 25339, Note_on_c, 0, 74, 60
2, 25365, Control_c, 0, 64, 52
2, 25380, Control_c, 0, 64, 53
2, 25396, Control_c, 0, 64, 53
2, 25411, Control_c, 0, 64, 54
2, 25422, Note_on_c, 0, 47, 0
2, 25424, Note_on_c, 0, 72, 64
2, 25437, Note_on_c, 0, 50, 51
2, 25439, Note_on_c, 0, 74, 0
2, 25441, Control_c, 0, 64, 54
2, 25456, Control_c, 0, 64, 55
2, 25481, Note_on_c, 0, 72, 0
2, 25487, Control_c, 0, 64, 55
2, 25489, Note_on_c, 0, 50, 0
2, 25489, Note_on_c, 0, 54, 57
2, 25490, Note_on_c, 0, 71, 66
2, 25521, Note_on_c, 0, 71, 0
2, 25549, Note_on_c, 0, 54, 0
2, 25579, Control_c, 0, 64, 55
2, 25582, Note_on_c, 0, 55, 54
2, 25592, Note_on_c, 0, 71, 60
2, 25595, Control_c, 0, 64, 54
2, 25609, Control_c, 0, 64, 54
2, 25619, Note_on_c, 0, 55, 0
2, 25624, Control_c, 0, 64, 53
2, 25640, Control_c, 0, 64, 52
2, 25653, Note_on_c, 0, 50, 58
2, 25655, Control_c, 0, 64, 51
2, 25655, Note_on_c, 0, 69, 65
2, 25671, Control_c, 0, 64, 50
2, 25686, Control_c, 0, 64, 50
2, 25686, Note_on_c, 0, 71, 0
2, 25719, Note_on_c, 0, 50, 0
2, 25725, Note_on_c, 0, 69, 0
2, 25730, Note_on_c, 0, 67, 67
2, 25733, Note_on_c, 0, 47, 65
2, 25765, Note_on_c, 0, 67, 0
2, 25776, Control_c, 0, 64, 51
2, 25780, Note_on_c, 0, 47, 0
2, 25791, Control_c, 0, 64, 51
2, 25806, Control_c, 0, 64, 52
2, 25821, Note_on_c, 0, 67, 71
2, 25823, Note_on_c, 0, 50, 66
2, 25888, Note_on_c, 0, 50, 0
2, 25903, Note_on_c, 0, 47, 63
2, 25910, Note_on_c, 0, 67, 0
2, 25911, Note_on_c, 0, 71, 68
2, 25927, Control_c, 0, 64, 51
2, 25964, Note_on_c, 0, 47, 0
2, 25973, Control_c, 0, 64, 52
2, 25976, Note_on_c, 0, 71, 0
2, 25982, Note_on_c, 0, 74, 70
2, 25993, Note_on_c, 0, 43, 58
2, 26036, Note_on_c, 0, 43, 0
2, 26059, Note_on_c, 0, 74, 0
2, 26071, Note_on_c, 0, 47, 61
2, 26071, Note_on_c, 0, 77, 77
2, 26125, Note_on_c, 0, 47, 0
2, 26142, Note_on_c, 0, 43, 62
2, 26148, Control_c, 0, 64, 52
2, 26153, Note_on_c, 0, 77, 0
2, 26157, Note_on_c, 0, 76, 68
2, 26215, Note_on_c, 0, 74, 72
2, 26231, Note_on_c, 0, 43, 0
2, 26236, Note_on_c, 0, 76, 0
2, 26239, Note_on_c, 0, 41, 60
2, 26254, Note_on_c, 0, 74, 0
2, 26270, Control_c, 0, 64, 53
2, 26298, Note_on_c, 0, 41, 0
2, 26319, Note_on_c, 0, 40, 68
2, 26334, Note_on_c, 0, 74, 65
2, 26377, Control_c, 0, 64, 52
2, 26392, Note_on_c, 0, 40, 0
2, 26401, Note_on_c, 0, 43, 65
2, 26402, Note_on_c, 0, 74, 0
2, 26407, Control_c, 0, 64, 52
2, 26413, Note_on_c, 0, 76, 77
2, 26469, Control_c, 0, 64, 51
2, 26471, Note_on_c, 0, 43, 0
2, 26479, Note_on_c, 0, 47, 73
2, 26480, Note_on_c, 0, 76, 0
2, 26493, Note_on_c, 0, 77, 76
2, 26498, Control_c, 0, 64, 51
2, 26537, Note_on_c, 0, 47, 0
2, 26562, Note_on_c, 0, 76, 75
2, 26567, Note_on_c, 0, 48, 67
2, 26575, Note_on_c, 0, 77, 0
2, 26605, Note_on_c, 0, 48, 0
2, 26606, Control_c, 0, 64, 51
2, 26636, Control_c, 0, 64, 52
2, 26651, Note_on_c, 0, 52, 68
2, 26667, Control_c, 0, 64, 52
2, 26681, Control_c, 0, 64, 53
2, 26696, Control_c, 0, 64, 54
2, 26712, Control_c, 0, 64, 54
2, 26720, Note_on_c, 0, 55, 74
2, 26727, Control_c, 0, 64, 55
2, 26733, Note_on_c, 0, 76, 0
2, 26734, Note_on_c, 0, 52, 0
2, 26765, Control_c, 0, 64, 56
2, 26794, Note_on_c, 0, 55, 0
2, 26813, Note_on_c, 0, 60, 80
2, 26827, Control_c, 0, 64, 55
2, 26841, Control_c, 0, 64, 55
2, 26856, Control_c, 0, 64, 54
2, 26872, Control_c, 0, 64, 54
2, 26876, Note_on_c, 0, 60, 0
2, 26887, Control_c, 0, 64, 53
2, 26890, Note_on_c, 0, 55, 70
2, 26917, Control_c, 0, 64, 52
2, 26932, Control_c, 0, 64, 51
2, 26948, Control_c, 0, 64, 50
2, 26959, Note_on_c, 0, 55, 0
2, 26963, Control_c, 0, 64, 50
2, 26970, Note_on_c, 0, 52, 68
2, 26977, Control_c, 0, 64, 49
2, 26993, Control_c, 0, 64, 49
2, 27026, Note_on_c, 0, 52, 0
2, 27033, Note_on_c, 0, 76, 72
2, 27057, Note_on_c, 0, 55, 60
2, 27074, Note_on_c, 0, 76, 0
2, 27111, Note_on_c, 0, 55, 0
2, 27131, Note_on_c, 0, 52, 69
2, 27175, Control_c, 0, 64, 49
2, 27191, Control_c, 0, 64, 50
2, 27200, Note_on_c, 0, 52, 0
2, 27219, Note_on_c, 0, 50, 52
2, 27221, Control_c, 0, 64, 50
2, 27237, Control_c, 0, 64, 51
2, 27252, Control_c, 0, 64, 51
2, 27261, Note_on_c, 0, 50, 0
2, 27268, Control_c, 0, 64, 52
2, 27282, Control_c, 0, 64, 53
2, 27290, Note_on_c, 0, 49, 72
2, 27291, Note_on_c, 0, 76, 72
2, 27297, Control_c, 0, 64, 53
2, 27313, Control_c, 0, 64, 54
2, 27328, Control_c, 0, 64, 55
2, 27343, Control_c, 0, 64, 56
2, 27358, Control_c, 0, 64, 56
2, 27365, Note_on_c, 0, 49, 0
2, 27373, Control_c, 0, 64, 57
2, 27376, Note_on_c, 0, 74, 63
2, 27377, Note_on_c, 0, 52, 71
2, 27389, Control_c, 0, 64, 58
2, 27399, Note_on_c, 0, 76, 0
2, 27404, Control_c, 0, 64, 58
2, 27433, Note_on_c, 0, 74, 0
2, 27435, Control_c, 0, 64, 59
2, 27441, Note_on_c, 0, 73, 68
2, 27453, Note_on_c, 0, 55, 70
2, 27459, Note_on_c, 0, 52, 0
2, 27466, Control_c, 0, 64, 59
2, 27475, Note_on_c, 0, 73, 0
2, 27480, Control_c, 0, 64, 59
2, 27506, Note_on_c, 0, 55, 0
2, 27511, Control_c, 0, 64, 58
2, 27536, Note_on_c, 0, 73, 75
2, 27543, Note_on_c, 0, 57, 70
2, 27548, Control_c, 0, 64, 58
2, 27563, Control_c, 0, 64, 57
2, 27578, Control_c, 0, 64, 56
2, 27581, Note_on_c, 0, 57, 0
2, 27594, Control_c, 0, 64, 54
2, 27609, Control_c, 0, 64, 52
2, 27617, Note_on_c, 0, 71, 68
2, 27624, Control_c, 0, 64, 49
2, 27628, Note_on_c, 0, 52, 61
2, 27639, Note_on_c, 0, 73, 0
2, 27640, Control_c, 0, 64, 46
2, 27655, Control_c, 0, 64, 42
2, 27671, Control_c, 0, 64, 40
2, 27681, Note_on_c, 0, 52, 0
2, 27682, Note_on_c, 0, 69, 76
2, 27685, Control_c, 0, 64, 38
2, 27685, Note_on_c, 0, 71, 0
2, 27694, Note_on_c, 0, 49, 68
2, 27700, Control_c, 0, 64, 34
2, 27716, Control_c, 0, 64, 29
2, 27721, Note_on_c, 0, 69, 0
2, 27730, Control_c, 0, 64, 23
2, 27746, Control_c, 0, 64, 15
2, 27755, Note_on_c, 0, 49, 0
2, 27761, Control_c, 0, 64, 0
2, 27779, Note_on_c, 0, 52, 74
2, 27780, Note_on_c, 0, 69, 74
2, 27845, Note_on_c, 0, 52, 0
2, 27855, Note_on_c, 0, 49, 66
2, 27864, Note_on_c, 0, 73, 78
2, 27884, Note_on_c, 0, 69, 0
2, 27915, Note_on_c, 0, 49, 0
2, 27927, Note_on_c, 0, 73, 0
2, 27936, Note_on_c, 0, 45, 59
2, 27937, Note_on_c, 0, 76, 75
2, 27973, Control_c, 0, 64, 13
2, 27979, Note_on_c, 0, 45, 0
2, 27989, Control_c, 0, 64, 20
2, 27998, Note_on_c, 0, 49, 68
2, 28004, Control_c, 0, 64, 26
2, 28004, Note_on_c, 0, 76, 0
2, 28016, Note_on_c, 0, 79, 79
2, 28020, Control_c, 0, 64, 30
2, 28036, Control_c, 0, 64, 32
2, 28050, Control_c, 0, 64, 35
2, 28066, Control_c, 0, 64, 37
2, 28071, Note_on_c, 0, 45, 67
2, 28071, Note_on_c, 0, 49, 0
2, 28081, Control_c, 0, 64, 40
2, 28088, Note_on_c, 0, 78, 84
2, 28095, Note_on_c, 0, 79, 0
2, 28096, Control_c, 0, 64, 42
2, 28112, Control_c, 0, 64, 45
2, 28126, Control_c, 0, 64, 47
2, 28141, Control_c, 0, 64, 47
2, 28148, Note_on_c, 0, 45, 0
2, 28156, Note_on_c, 0, 43, 67
2, 28157, Control_c, 0, 64, 48
2, 28159, Note_on_c, 0, 76, 75
2, 28171, Control_c, 0, 64, 49
2, 28180, Note_on_c, 0, 78, 0
2, 28199, Note_on_c, 0, 76, 0
2, 28202, Control_c, 0, 64, 49
2, 28217, Control_c, 0, 64, 50
2, 28227, Note_on_c, 0, 43, 0
2, 28243, Note_on_c, 0, 42, 71
2, 28248, Control_c, 0, 64, 49
2, 28256, Note_on_c, 0, 76, 72
2, 28263, Control_c, 0, 64, 49
2, 28279, Control_c, 0, 64, 48
2, 28317, Control_c, 0, 64, 48
2, 28323, Note_on_c, 0, 42, 0
2, 28330, Note_on_c, 0, 76, 0
2, 28331, Control_c, 0, 64, 47
2, 28333, Note_on_c, 0, 45, 62
2, 28347, Control_c, 0, 64, 47
2, 28350, Note_on_c, 0, 78, 79
2, 28362, Control_c, 0, 64, 46
2, 28381, Note_on_c, 0, 45, 0
2, 28388, Note_on_c, 0, 49, 65
2, 28392, Control_c, 0, 64, 46
2, 28417, Note_on_c, 0, 79, 81
2, 28418, Note_on_c, 0, 78, 0
2, 28437, Note_on_c, 0, 49, 0
2, 28453, Control_c, 0, 64, 46
2, 28469, Control_c, 0, 64, 47
2, 28473, Note_on_c, 0, 50, 64
2, 28483, Control_c, 0, 64, 47
2, 28495, Note_on_c, 0, 78, 90
2, 28498, Control_c, 0, 64, 48
2, 28507, Note_on_c, 0, 50, 0
2, 28508, Note_on_c, 0, 79, 0
2, 28514, Control_c, 0, 64, 48
2, 28529, Control_c, 0, 64, 49
2, 28544, Control_c, 0, 64, 50
2, 28556, Note_on_c, 0, 54, 71
2, 28560, Control_c, 0, 64, 51
2, 28574, Control_c, 0, 64, 51
2, 28590, Control_c, 0, 64, 52
2, 28605, Control_c, 0, 64, 52
2, 28627, Note_on_c, 0, 57, 70
2, 28636, Control_c, 0, 64, 53
2, 28654, Note_on_c, 0, 54, 0
2, 28666, Control_c, 0, 64, 54
2, 28696, Note_on_c, 0, 78, 0
2, 28701, Note_on_c, 0, 57, 0
2, 28715, Note_on_c, 0, 62, 82
2, 28772, Control_c, 0, 64, 53
2, 28777, Note_on_c, 0, 62, 0
2, 28787, Control_c, 0, 64, 53
2, 28789, Note_on_c, 0, 57, 77
2, 28817, Control_c, 0, 64, 52
2, 28834, Control_c, 0, 64, 51
2, 28849, Control_c, 0, 64, 51
2, 28862, Note_on_c, 0, 57, 0
2, 28864, Control_c, 0, 64, 50
2, 28870, Note_on_c, 0, 54, 68
2, 28880, Control_c, 0, 64, 49
2, 28894, Control_c, 0, 64, 49
2, 28942, Note_on_c, 0, 54, 0
2, 28949, Note_on_c, 0, 81, 80
2, 28959, Note_on_c, 0, 57, 76
2, 28970, Control_c, 0, 64, 48
2, 28986, Control_c, 0, 64, 48
2, 29001, Control_c, 0, 64, 47
2, 29002, Note_on_c, 0, 81, 0
2, 29031, Control_c, 0, 64, 47
2, 29034, Note_on_c, 0, 57, 0
2, 29037, Note_on_c, 0, 54, 62
2, 29046, Control_c, 0, 64, 46
2, 29070, Control_c, 0, 64, 44
2, 29085, Control_c, 0, 64, 42
2, 29092, Note_on_c, 0, 54, 0
2, 29099, Control_c, 0, 64, 40
2, 29115, Control_c, 0, 64, 36
2, 29119, Note_on_c, 0, 50, 54
2, 29130, Control_c, 0, 64, 32
2, 29144, Control_c, 0, 64, 29
2, 29160, Control_c, 0, 64, 23
2, 29162, Note_on_c, 0, 50, 0
2, 29175, Control_c, 0, 64, 10
2, 29178, Note_on_c, 0, 54, 72
2, 29191, Control_c, 0, 64, 0
2, 29196, Note_on_c, 0, 81, 74
2, 29244, Note_on_c, 0, 54, 0
2, 29262, Note_on_c, 0, 50, 66
2, 29267, Control_c, 0, 64, 20
2, 29273, Note_on_c, 0, 79, 66
2, 29282, Control_c, 0, 64, 32
2, 29296, Control_c, 0, 64, 41
2, 29299, Note_on_c, 0, 81, 0
2, 29312, Control_c, 0, 64, 47
2, 29320, Note_on_c, 0, 50, 0
2, 29327, Control_c, 0, 64, 50
2, 29336, Note_on_c, 0, 45, 60
2, 29339, Note_on_c, 0, 79, 0
2, 29342, Control_c, 0, 64, 53
2, 29344, Note_on_c, 0, 78, 68
2, 29358, Control_c, 0, 64, 56
2, 29373, Control_c, 0, 64, 57
2, 29379, Note_on_c, 0, 78, 0
2, 29383, Note_on_c, 0, 45, 0
2, 29389, Control_c, 0, 64, 58
2, 29404, Control_c, 0, 64, 59
2, 29424, Note_on_c, 0, 50, 75
2, 29434, Control_c, 0, 64, 58
2, 29438, Note_on_c, 0, 78, 77
2, 29449, Control_c, 0, 64, 57
2, 29464, Control_c, 0, 64, 56
2, 29480, Control_c, 0, 64, 55
2, 29492, Note_on_c, 0, 50, 0
2, 29495, Control_c, 0, 64, 53
2, 29501, Note_on_c, 0, 45, 70
2, 29510, Control_c, 0, 64, 50
2, 29516, Note_on_c, 0, 76, 76
2, 29525, Control_c, 0, 64, 47
2, 29540, Control_c, 0, 64, 44
2, 29555, Control_c, 0, 64, 39
2, 29563, Note_on_c, 0, 78, 0
2, 29570, Control_c, 0, 64, 35
2, 29575, Note_on_c, 0, 45, 0
2, 29583, Note_on_c, 0, 42, 68
2, 29586, Control_c, 0, 64, 32
2, 29588, Note_on_c, 0, 74, 78
2, 29588, Note_on_c, 0, 76, 0
2, 29601, Control_c, 0, 64, 30
2, 29617, Control_c, 0, 64, 29
2, 29627, Note_on_c, 0, 74, 0
2, 29654, Note_on_c, 0, 42, 0
2, 29660, Note_on_c, 0, 38, 82
2, 29663, Control_c, 0, 64, 30
2, 29679, Control_c, 0, 64, 31
2, 29688, Note_on_c, 0, 74, 74
2, 29694, Control_c, 0, 64, 32
2, 29694, Note_on_c, 0, 38, 0
2, 29710, Control_c, 0, 64, 32
2, 29725, Control_c, 0, 64, 33
2, 29777, Note_on_c, 0, 78, 82
2, 29788, Note_on_c, 0, 74, 0
2, 29858, Note_on_c, 0, 78, 0
2, 29858, Note_on_c, 0, 81, 83
2, 29869, Control_c, 0, 64, 32
2, 29884, Control_c, 0, 64, 32
2, 29899, Control_c, 0, 64, 29
2, 29915, Control_c, 0, 64, 28
2, 29929, Control_c, 0, 64, 25
2, 29938, Note_on_c, 0, 81, 0
2, 29944, Control_c, 0, 64, 23
2, 29944, Note_on_c, 0, 84, 85
2, 29946, Note_on_c, 0, 50, 81
2, 29960, Control_c, 0, 64, 18
2, 29975, Control_c, 0, 64, 10
2, 29980, Note_on_c, 0, 50, 0
2, 29990, Control_c, 0, 64, 0
2, 30028, Note_on_c, 0, 83, 76
2, 30028, Note_on_c, 0, 84, 0
2, 30051, Control_c, 0, 64, 10
2, 30066, Control_c, 0, 64, 20
2, 30081, Control_c, 0, 64, 27
2, 30092, Note_on_c, 0, 81, 82
2, 30096, Control_c, 0, 64, 33
2, 30112, Control_c, 0, 64, 35
2, 30115, Note_on_c, 0, 83, 0
2, 30127, Control_c, 0, 64, 36
2, 30136, Note_on_c, 0, 81, 0
2, 30141, Control_c, 0, 64, 36
2, 30172, Control_c, 0, 64, 36
2, 30182, Note_on_c, 0, 43, 69
2, 30193, Note_on_c, 0, 81, 79
2, 30272, Note_on_c, 0, 83, 83
2, 30276, Note_on_c, 0, 81, 0
2, 30339, Control_c, 0, 64, 37
2, 30347, Note_on_c, 0, 83, 0
2, 30349, Note_on_c, 0, 84, 86
2, 30355, Control_c, 0, 64, 38
2, 30370, Control_c, 0, 64, 38
2, 30384, Control_c, 0, 64, 39
2, 30399, Control_c, 0, 64, 40
2, 30414, Control_c, 0, 64, 40
2, 30430, Control_c, 0, 64, 41
2, 30430, Note_on_c, 0, 83, 89
2, 30445, Control_c, 0, 64, 42
2, 30452, Note_on_c, 0, 43, 0
2, 30457, Note_on_c, 0, 84, 0
2, 30460, Control_c, 0, 64, 44
2, 30471, Note_on_c, 0, 47, 64
2, 30477, Control_c, 0, 64, 46
2, 30491, Control_c, 0, 64, 47
2, 30552, Note_on_c, 0, 50, 66
2, 30555, Note_on_c, 0, 47, 0
2, 30567, Control_c, 0, 64, 46
2, 30605, Control_c, 0, 64, 46
2, 30626, Note_on_c, 0, 50, 0
2, 30642, Note_on_c, 0, 55, 68
2, 30651, Control_c, 0, 64, 45
2, 30667, Control_c, 0, 64, 45
2, 30682, Control_c, 0, 64, 44
2, 30690, Note_on_c, 0, 55, 0
2, 30697, Control_c, 0, 64, 44
2, 30712, Control_c, 0, 64, 43
2, 30725, Note_on_c, 0, 83, 0
2, 30727, Control_c, 0, 64, 43
2, 30731, Note_on_c, 0, 81, 74
2, 30735, Note_on_c, 0, 57, 68
2, 30742, Control_c, 0, 64, 42
2, 30795, Note_on_c, 0, 81, 0
2, 30800, Note_on_c, 0, 57, 0
2, 30803, Control_c, 0, 64, 42
2, 30811, Note_on_c, 0, 59, 63
2, 30820, Note_on_c, 0, 79, 66
2, 30833, Control_c, 0, 64, 41
2, 30844, Note_on_c, 0, 59, 0
2, 30856, Note_on_c, 0, 79, 0
2, 30863, Control_c, 0, 64, 41
2, 30893, Note_on_c, 0, 77, 70
2, 30894, Control_c, 0, 64, 40
2, 30904, Note_on_c, 0, 59, 54
2, 30909, Control_c, 0, 64, 38
2, 30924, Control_c, 0, 64, 36
2, 30939, Control_c, 0, 64, 35
2, 30955, Control_c, 0, 64, 34
2, 30966, Note_on_c, 0, 76, 71
2, 30969, Control_c, 0, 64, 33
2, 30972, Note_on_c, 0, 59, 0
2, 30981, Note_on_c, 0, 60, 62
2, 30984, Control_c, 0, 64, 32
2, 30988, Note_on_c, 0, 77, 0
2, 31000, Control_c, 0, 64, 31
2, 31015, Control_c, 0, 64, 30
2, 31031, Control_c, 0, 64, 29
2, 31032, Note_on_c, 0, 76, 0
2, 31039, Note_on_c, 0, 60, 0
2, 31042, Note_on_c, 0, 74, 63
2, 31045, Control_c, 0, 64, 28
2, 31048, Note_on_c, 0, 62, 66
2, 31060, Control_c, 0, 64, 25
2, 31076, Control_c, 0, 64, 23
2, 31100, Note_on_c, 0, 74, 0
2, 31106, Note_on_c, 0, 62, 0
2, 31122, Control_c, 0, 64, 21
2, 31122, Note_on_c, 0, 72, 69
2, 31135, Note_on_c, 0, 64, 71
2, 31137, Control_c, 0, 64, 20
2, 31153, Control_c, 0, 64, 18
2, 31167, Control_c, 0, 64, 15
2, 31171, Note_on_c, 0, 64, 0
2, 31182, Control_c, 0, 64, 13
2, 31194, Note_on_c, 0, 72, 0
2, 31198, Control_c, 0, 64, 10
2, 31208, Note_on_c, 0, 76, 64
2, 31229, Control_c, 0, 64, 0
2, 31271, Note_on_c, 0, 76, 0
2, 31291, Note_on_c, 0, 79, 63
2, 31306, Control_c, 0, 64, 10
2, 31321, Control_c, 0, 64, 13
2, 31351, Control_c, 0, 64, 15
2, 31373, Control_c, 0, 64, 17
2, 31381, Note_on_c, 0, 79, 0
2, 31382, Note_on_c, 0, 60, 63
2, 31386, Note_on_c, 0, 81, 72
2, 31403, Control_c, 0, 64, 18
2, 31434, Control_c, 0, 64, 20
2, 31448, Note_on_c, 0, 60, 0
2, 31464, Control_c, 0, 64, 21
2, 31464, Note_on_c, 0, 57, 61
2, 31466, Note_on_c, 0, 81, 0
2, 31468, Note_on_c, 0, 78, 70
2, 31525, Control_c, 0, 64, 23
2, 31537, Note_on_c, 0, 78, 0
2, 31538, Note_on_c, 0, 57, 0
2, 31547, Note_on_c, 0, 74, 62
2, 31552, Note_on_c, 0, 54, 64
2, 31614, Note_on_c, 0, 54, 0
2, 31614, Note_on_c, 0, 74, 0
2, 31616, Control_c, 0, 64, 24
2, 31620, Note_on_c, 0, 71, 67
2, 31630, Note_on_c, 0, 62, 73
2, 31647, Control_c, 0, 64, 23
2, 31667, Note_on_c, 0, 62, 0
2, 31706, Note_on_c, 0, 71, 0
2, 31715, Note_on_c, 0, 74, 61
2, 31779, Note_on_c, 0, 74, 0
2, 31795, Note_on_c, 0, 78, 71
2, 31859, Control_c, 0, 64, 21
2, 31873, Note_on_c, 0, 59, 56
2, 31875, Control_c, 0, 64, 20
2, 31883, Note_on_c, 0, 79, 70
2, 31889, Control_c, 0, 64, 18
2, 31890, Note_on_c, 0, 78, 0
2, 31904, Control_c, 0, 64, 17
2, 31920, Control_c, 0, 64, 15
2, 31935, Control_c, 0, 64, 13
2, 31941, Note_on_c, 0, 59, 0
2, 31951, Control_c, 0, 64, 10
2, 31954, Note_on_c, 0, 79, 0
2, 31960, Note_on_c, 0, 55, 63
2, 31960, Note_on_c, 0, 76, 67
2, 31966, Control_c, 0, 64, 0
2, 32023, Note_on_c, 0, 55, 0
2, 32030, Note_on_c, 0, 76, 0
2, 32042, Note_on_c, 0, 52, 62
2, 32045, Note_on_c, 0, 72, 65
2, 32073, Control_c, 0, 64, 10
2, 32087, Control_c, 0, 64, 13
2, 32093, Note_on_c, 0, 52, 0
2, 32103, Note_on_c, 0, 72, 0
2, 32110, Note_on_c, 0, 60, 71
2, 32114, Note_on_c, 0, 69, 68
2, 32141, Control_c, 0, 64, 15
2, 32159, Note_on_c, 0, 60, 0
2, 32202, Control_c, 0, 64, 17
2, 32209, Note_on_c, 0, 72, 65
2, 32210, Note_on_c, 0, 69, 0
2, 32247, Control_c, 0, 64, 18
2, 32272, Note_on_c, 0, 72, 0
2, 32278, Control_c, 0, 64, 20
2, 32287, Note_on_c, 0, 76, 65
2, 32293, Control_c, 0, 64, 23
2, 32309, Control_c, 0, 64, 24
2, 32323, Control_c, 0, 64, 27
2, 32338, Control_c, 0, 64, 29
2, 32354, Control_c, 0, 64, 30
2, 32366, Note_on_c, 0, 57, 57
2, 32379, Note_on_c, 0, 78, 72
2, 32384, Control_c, 0, 64, 31
2, 32384, Note_on_c, 0, 76, 0
2, 32418, Note_on_c, 0, 57, 0
2, 32424, Note_on_c, 0, 78, 0
2, 32431, Control_c, 0, 64, 30
2, 32440, Note_on_c, 0, 54, 57
2, 32445, Control_c, 0, 64, 29
2, 32459, Note_on_c, 0, 74, 62
2, 32460, Control_c, 0, 64, 29
2, 32476, Control_c, 0, 64, 28
2, 32491, Control_c, 0, 64, 27
2, 32521, Control_c, 0, 64, 26
2, 32521, Note_on_c, 0, 54, 0
2, 32524, Note_on_c, 0, 74, 0
2, 32527, Note_on_c, 0, 50, 64
2, 32535, Note_on_c, 0, 71, 66
2, 32552, Control_c, 0, 64, 25
2, 32582, Control_c, 0, 64, 26
2, 32586, Note_on_c, 0, 50, 0
2, 32596, Note_on_c, 0, 59, 70
2, 32605, Note_on_c, 0, 71, 0
2, 32609, Note_on_c, 0, 67, 66
2, 32612, Control_c, 0, 64, 27
2, 32628, Control_c, 0, 64, 28
2, 32641, Note_on_c, 0, 59, 0
2, 32673, Control_c, 0, 64, 29
2, 32687, Control_c, 0, 64, 29
2, 32687, Note_on_c, 0, 67, 0
2, 32696, Note_on_c, 0, 71, 56
2, 32718, Control_c, 0, 64, 30
2, 32761, Note_on_c, 0, 71, 0
2, 32777, Note_on_c, 0, 74, 65
2, 32843, Note_on_c, 0, 55, 59
2, 32861, Note_on_c, 0, 76, 75
2, 32870, Control_c, 0, 64, 31
2, 32873, Note_on_c, 0, 74, 0
2, 32900, Control_c, 0, 64, 30
2, 32925, Note_on_c, 0, 55, 0
2, 32939, Note_on_c, 0, 76, 0
2, 32944, Note_on_c, 0, 52, 66
2, 32947, Note_on_c, 0, 72, 69
2, 32969, Control_c, 0, 64, 29
2, 33007, Note_on_c, 0, 72, 0
2, 33010, Note_on_c, 0, 52, 0
2, 33018, Note_on_c, 0, 69, 71
2, 33026, Note_on_c, 0, 48, 60
2, 33031, Control_c, 0, 64, 30
2, 33045, Control_c, 0, 64, 32
2, 33060, Control_c, 0, 64, 34
2, 33076, Control_c, 0, 64, 36
2, 33078, Note_on_c, 0, 48, 0
2, 33091, Control_c, 0, 64, 37
2, 33093, Note_on_c, 0, 57, 72
2, 33094, Note_on_c, 0, 69, 0
2, 33107, Control_c, 0, 64, 39
2, 33107, Note_on_c, 0, 66, 72
2, 33121, Control_c, 0, 64, 40
2, 33136, Control_c, 0, 64, 40
2, 33139, Note_on_c, 0, 66, 0
2, 33144, Note_on_c, 0, 57, 0
2, 33167, Control_c, 0, 64, 40
2, 33182, Control_c, 0, 64, 39
2, 33198, Control_c, 0, 64, 38
2, 33201, Note_on_c, 0, 69, 65
2, 33212, Control_c, 0, 64, 37
2, 33228, Control_c, 0, 64, 37
2, 33243, Control_c, 0, 64, 36
2, 33254, Note_on_c, 0, 69, 0
2, 33258, Control_c, 0, 64, 36
2, 33275, Note_on_c, 0, 72, 69
2, 33288, Control_c, 0, 64, 35
2, 33303, Control_c, 0, 64, 34
2, 33319, Control_c, 0, 64, 34
2, 33332, Note_on_c, 0, 54, 65
2, 33334, Control_c, 0, 64, 33
2, 33360, Note_on_c, 0, 72, 0
2, 33360, Note_on_c, 0, 74, 65
2, 33395, Control_c, 0, 64, 32
2, 33412, Note_on_c, 0, 54, 0
2, 33421, Note_on_c, 0, 74, 0
2, 33424, Control_c, 0, 64, 31
2, 33424, Note_on_c, 0, 71, 68
2, 33430, Note_on_c, 0, 50, 58
2, 33440, Control_c, 0, 64, 30
2, 33473, Note_on_c, 0, 47, 63
2, 33473, Note_on_c, 0, 50, 0
2, 33487, Note_on_c, 0, 71, 0
2, 33496, Note_on_c, 0, 67, 70
2, 33500, Control_c, 0, 64, 31
2, 33516, Control_c, 0, 64, 32
2, 33547, Control_c, 0, 64, 32
2, 33551, Note_on_c, 0, 47, 0
2, 33562, Note_on_c, 0, 67, 0
2, 33563, Note_on_c, 0, 64, 72
2, 33570, Note_on_c, 0, 55, 74
2, 33607, Control_c, 0, 64, 33
2, 33612, Note_on_c, 0, 55, 0
2, 33648, Note_on_c, 0, 64, 0
2, 33649, Note_on_c, 0, 67, 66
2, 33721, Control_c, 0, 64, 34
2, 33724, Note_on_c, 0, 67, 0
2, 33734, Note_on_c, 0, 71, 70
2, 33753, Control_c, 0, 64, 34
2, 33799, Control_c, 0, 64, 35
2, 33817, Note_on_c, 0, 52, 62
2, 33818, Note_on_c, 0, 72, 73
2, 33830, Note_on_c, 0, 71, 0
2, 33858, Control_c, 0, 64, 34
2, 33887, Note_on_c, 0, 52, 0
2, 33889, Note_on_c, 0, 72, 0
2, 33892, Note_on_c, 0, 69, 70
2, 33901, Note_on_c, 0, 48, 65
2, 33934, Control_c, 0, 64, 35
2, 33950, Control_c, 0, 64, 36
2, 33950, Note_on_c, 0, 48, 0
2, 33956, Note_on_c, 0, 45, 63
2, 33959, Note_on_c, 0, 69, 0
2, 33963, Note_on_c, 0, 66, 78
2, 33965, Control_c, 0, 64, 36
2, 33980, Control_c, 0, 64, 37
2, 33996, Control_c, 0, 64, 37
2, 34011, Control_c, 0, 64, 38
2, 34016, Note_on_c, 0, 45, 0
2, 34027, Control_c, 0, 64, 39
2, 34035, Note_on_c, 0, 54, 82
2, 34035, Note_on_c, 0, 66, 0
2, 34040, Note_on_c, 0, 62, 72
2, 34042, Control_c, 0, 64, 41
2, 34056, Control_c, 0, 64, 42
2, 34072, Control_c, 0, 64, 43
2, 34087, Control_c, 0, 64, 44
2, 34091, Note_on_c, 0, 54, 0
2, 34126, Note_on_c, 0, 62, 0
2, 34126, Note_on_c, 0, 66, 72
2, 34132, Control_c, 0, 64, 44
2, 34148, Control_c, 0, 64, 43
2, 34178, Control_c, 0, 64, 43
2, 34195, Note_on_c, 0, 66, 0
2, 34200, Note_on_c, 0, 69, 68
2, 34208, Control_c, 0, 64, 42
2, 34239, Control_c, 0, 64, 41
2, 34254, Control_c, 0, 64, 41
2, 34269, Control_c, 0, 64, 40
2, 34272, Note_on_c, 0, 50, 62
2, 34281, Note_on_c, 0, 69, 0
2, 34283, Note_on_c, 0, 71, 71
2, 34284, Control_c, 0, 64, 39
2, 34299, Control_c, 0, 64, 38
2, 34315, Control_c, 0, 64, 38
2, 34329, Control_c, 0, 64, 37
2, 34341, Note_on_c, 0, 50, 0
2, 34344, Control_c, 0, 64, 37
2, 34354, Note_on_c, 0, 71, 0
2, 34358, Note_on_c, 0, 67, 71
2, 34360, Control_c, 0, 64, 36
2, 34360, Note_on_c, 0, 47, 68
2, 34375, Control_c, 0, 64, 34
2, 34391, Control_c, 0, 64, 33
2, 34405, Control_c, 0, 64, 32
2, 34417, Note_on_c, 0, 47, 0
2, 34421, Note_on_c, 0, 43, 69
2, 34422, Note_on_c, 0, 67, 0
2, 34432, Note_on_c, 0, 64, 68
2, 34497, Note_on_c, 0, 64, 0
2, 34500, Note_on_c, 0, 60, 74
2, 34507, Note_on_c, 0, 43, 0
2, 34518, Note_on_c, 0, 52, 68
2, 34535, Control_c, 0, 64, 31
2, 34550, Control_c, 0, 64, 30
2, 34556, Note_on_c, 0, 52, 0
2, 34565, Control_c, 0, 64, 28
2, 34581, Control_c, 0, 64, 25
2, 34582, Note_on_c, 0, 60, 0
2, 34582, Note_on_c, 0, 64, 70
2, 34595, Note_on_c, 0, 48, 64
2, 34597, Control_c, 0, 64, 23
2, 34612, Control_c, 0, 64, 21
2, 34628, Control_c, 0, 64, 20
2, 34642, Note_on_c, 0, 48, 0
2, 34651, Note_on_c, 0, 64, 0
2, 34657, Note_on_c, 0, 45, 67
2, 34659, Note_on_c, 0, 67, 76
2, 34670, Control_c, 0, 64, 23
2, 34686, Control_c, 0, 64, 25
2, 34700, Control_c, 0, 64, 27
2, 34714, Note_on_c, 0, 45, 0
2, 34716, Control_c, 0, 64, 29
2, 34731, Control_c, 0, 64, 29
2, 34732, Note_on_c, 0, 54, 73
2, 34737, Note_on_c, 0, 67, 0
2, 34739, Note_on_c, 0, 69, 74
2, 34765, Note_on_c, 0, 54, 0
2, 34776, Control_c, 0, 64, 29
2, 34791, Control_c, 0, 64, 27
2, 34808, Note_on_c, 0, 66, 76
2, 34817, Note_on_c, 0, 69, 0
2, 34819, Note_on_c, 0, 50, 60
2, 34822, Control_c, 0, 64, 26
2, 34838, Control_c, 0, 64, 25
2, 34868, Control_c, 0, 64, 24
2, 34875, Note_on_c, 0, 50, 0
2, 34882, Note_on_c, 0, 47, 68
2, 34883, Note_on_c, 0, 66, 0
2, 34892, Note_on_c, 0, 62, 71
2, 34898, Control_c, 0, 64, 23
2, 34929, Control_c, 0, 64, 21
2, 34951, Note_on_c, 0, 47, 0
2, 34957, Note_on_c, 0, 62, 0
2, 34960, Control_c, 0, 64, 23
2, 34960, Note_on_c, 0, 59, 66
2, 34967, Note_on_c, 0, 55, 78
2, 35003, Note_on_c, 0, 55, 0
2, 35047, Note_on_c, 0, 59, 0
2, 35050, Control_c, 0, 64, 21
2, 35050, Note_on_c, 0, 62, 68
2, 35065, Control_c, 0, 64, 20
2, 35081, Control_c, 0, 64, 18
2, 35125, Note_on_c, 0, 62, 0
2, 35137, Note_on_c, 0, 66, 72
2, 35172, Control_c, 0, 64, 20
2, 35234, Note_on_c, 0, 67, 72
2, 35249, Note_on_c, 0, 52, 69
2, 35250, Note_on_c, 0, 66, 0
2, 35281, Note_on_c, 0, 52, 0
2, 35308, Note_on_c, 0, 67, 0
2, 35316, Note_on_c, 0, 64, 67
2, 35362, Control_c, 0, 64, 21
2, 35377, Control_c, 0, 64, 23
2, 35394, Note_on_c, 0, 64, 0
2, 35409, Control_c, 0, 64, 24
2, 35412, Note_on_c, 0, 60, 69
2, 35454, Control_c, 0, 64, 25
2, 35485, Control_c, 0, 64, 26
2, 35499, Control_c, 0, 64, 27
2, 35504, Note_on_c, 0, 60, 0
2, 35507, Note_on_c, 0, 48, 63
2, 35508, Note_on_c, 0, 57, 67
2, 35544, Control_c, 0, 64, 28
2, 35549, Note_on_c, 0, 48, 0
2, 35616, Note_on_c, 0, 60, 71
2, 35617, Note_on_c, 0, 57, 0
2, 35651, Control_c, 0, 64, 27
2, 35696, Control_c, 0, 64, 28
2, 35703, Note_on_c, 0, 60, 0
2, 35718, Note_on_c, 0, 64, 65
2, 35834, Note_on_c, 0, 66, 73
2, 35840, Note_on_c, 0, 50, 54
2, 35871, Note_on_c, 0, 64, 0
2, 35879, Control_c, 0, 64, 27
2, 35892, Note_on_c, 0, 50, 0
2, 35909, Control_c, 0, 64, 26
2, 35925, Control_c, 0, 64, 25
2, 35940, Control_c, 0, 64, 24
2, 35955, Control_c, 0, 64, 20
2, 35963, Note_on_c, 0, 62, 70
2, 35978, Control_c, 0, 64, 15
2, 35980, Note_on_c, 0, 66, 0
2, 35994, Control_c, 0, 64, 0
2, 36084, Note_on_c, 0, 60, 67
2, 36100, Note_on_c, 0, 62, 0
2, 36223, Note_on_c, 0, 43, 48
2, 36360, Note_on_c, 0, 59, 59
2, 36361, Note_on_c, 0, 60, 0
2, 36446, Note_on_c, 0, 62, 61
2, 36553, Note_on_c, 0, 67, 59
2, 38543, Note_on_c, 0, 59, 0
2, 38582, Note_on_c, 0, 67, 0
2, 38595, Note_on_c, 0, 62, 0
2, 38625, Note_on_c, 0, 43, 0
2, 39143, Note_on_c, 0, 67, 69
2, 39170, Note_on_c, 0, 67, 0
2, 39414, Note_on_c, 0, 69, 54
2, 39507, Note_on_c, 0, 69, 0
2, 39520, Note_on_c, 0, 67, 65
2, 39623, Note_on_c, 0, 67, 0
2, 39629, Note_on_c, 0, 66, 70
2, 39723, Note_on_c, 0, 66, 0
2, 39744, Note_on_c, 0, 67, 72
2, 39884, Note_on_c, 0, 69, 84
2, 39888, Note_on_c, 0, 67, 0
2, 39919, Note_on_c, 0, 69, 0
2, 40134, Note_on_c, 0, 71, 70
2, 40233, Note_on_c, 0, 71, 0
2, 40242, Note_on_c, 0, 69, 75
2, 40356, Note_on_c, 0, 67, 75
2, 40365, Note_on_c, 0, 69, 0
2, 40468, Note_on_c, 0, 69, 77
2, 40474, Note_on_c, 0, 67, 0
2, 40597, Note_on_c, 0, 69, 0
2, 40602, Note_on_c, 0, 71, 78
2, 40627, Note_on_c, 0, 71, 0
2, 40854, Note_on_c, 0, 69, 84
2, 40891, Note_on_c, 0, 69, 0
2, 41106, Note_on_c, 0, 67, 81
2, 41144, Note_on_c, 0, 67, 0
2, 41363, Note_on_c, 0, 62, 80
2, 41401, Note_on_c, 0, 62, 0
2, 41643, Note_on_c, 0, 72, 74
2, 42109, Note_on_c, 0, 72, 0
2, 42144, Note_on_c, 0, 71, 75
2, 42186, Note_on_c, 0, 71, 0
2, 42386, Note_on_c, 0, 69, 82
2, 42436, Note_on_c, 0, 69, 0
2, 42637, Note_on_c, 0, 67, 83
2, 42674, Note_on_c, 0, 67, 0
2, 42897, Note_on_c, 0, 66, 81
2, 42939, Note_on_c, 0, 66, 0
2, 43179, Note_on_c, 0, 76, 79
2, 43685, Note_on_c, 0, 76, 0
2, 43690, Note_on_c, 0, 74, 73
2, 43728, Note_on_c, 0, 74, 0
2, 43934, Note_on_c, 0, 76, 71
2, 44048, Note_on_c, 0, 74, 71
2, 44064, Note_on_c, 0, 76, 0
2, 44168, Note_on_c, 0, 72, 72
2, 44173, Note_on_c, 0, 74, 0
2, 44285, Note_on_c, 0, 72, 0
2, 44286, Note_on_c, 0, 71, 71
2, 44386, Note_on_c, 0, 71, 0
2, 44399, Note_on_c, 0, 69, 76
2, 44474, Note_on_c, 0, 69, 0
2, 44647, Note_on_c, 0, 72, 74
2, 44757, Note_on_c, 0, 71, 76
2, 44783, Note_on_c, 0, 72, 0
2, 44878, Note_on_c, 0, 69, 75
2, 44878, Note_on_c, 0, 71, 0
2, 44964, Note_on_c, 0, 69, 0
2, 44975, Note_on_c, 0, 67, 75
2, 45067, Note_on_c, 0, 67, 0
2, 45111, Note_on_c, 0, 62, 82
2, 45113, Note_on_c, 0, 66, 82
2, 45168, Note_on_c, 0, 66, 0
2, 45207, Note_on_c, 0, 62, 0
2, 45372, Note_on_c, 0, 64, 74
2, 45372, Note_on_c, 0, 67, 77
2, 45443, Note_on_c, 0, 67, 0
2, 45482, Note_on_c, 0, 62, 79
2, 45482, Note_on_c, 0, 64, 0
2, 45583, Note_on_c, 0, 62, 0
2, 45601, Note_on_c, 0, 61, 80
2, 45610, Note_on_c, 0, 69, 83
2, 45671, Note_on_c, 0, 69, 0
2, 45694, Note_on_c, 0, 61, 0
2, 45708, Note_on_c, 0, 62, 82
2, 45810, Note_on_c, 0, 62, 0
2, 45848, Note_on_c, 0, 67, 86
2, 45850, Note_on_c, 0, 64, 78
2, 45905, Note_on_c, 0, 64, 0
2, 45908, Note_on_c, 0, 67, 0
2, 46108, Note_on_c, 0, 69, 86
2, 46111, Note_on_c, 0, 66, 77
2, 46183, Note_on_c, 0, 66, 0
2, 46184, Note_on_c, 0, 69, 0
2, 46217, Note_on_c, 0, 64, 75
2, 46338, Note_on_c, 0, 64, 0
2, 46339, Note_on_c, 0, 62, 80
2, 46343, Note_on_c, 0, 71, 86
2, 46406, Note_on_c, 0, 71, 0
2, 46440, Note_on_c, 0, 62, 0
2, 46446, Note_on_c, 0, 64, 82
2, 46569, Note_on_c, 0, 64, 0
2, 46577, Note_on_c, 0, 66, 89
2, 46582, Note_on_c, 0, 69, 77
2, 46639, Note_on_c, 0, 66, 0
2, 46822, Note_on_c, 0, 69, 0
2, 46835, Note_on_c, 0, 64, 80
2, 46836, Note_on_c, 0, 71, 70
2, 46902, Note_on_c, 0, 64, 0
2, 46944, Note_on_c, 0, 71, 0
2, 46948, Note_on_c, 0, 73, 73
2, 47068, Note_on_c, 0, 62, 84
2, 47068, Note_on_c, 0, 74, 72
2, 47069, Note_on_c, 0, 73, 0
2, 47120, Note_on_c, 0, 62, 0
2, 47147, Note_on_c, 0, 74, 0
2, 47168, Note_on_c, 0, 71, 68
2, 47296, Note_on_c, 0, 71, 0
2, 47302, Note_on_c, 0, 57, 85
2, 47309, Note_on_c, 0, 73, 73
2, 47347, Note_on_c, 0, 57, 0
2, 47412, Note_on_c, 0, 73, 0
2, 47418, Note_on_c, 0, 71, 69
2, 47556, Note_on_c, 0, 71, 0
2, 47556, Note_on_c, 0, 73, 64
2, 47562, Note_on_c, 0, 67, 94
2, 47669, Note_on_c, 0, 73, 0
2, 47676, Note_on_c, 0, 74, 69
2, 47764, Note_on_c, 0, 74, 0
2, 47797, Note_on_c, 0, 76, 69
2, 47910, Note_on_c, 0, 73, 68
2, 47916, Note_on_c, 0, 76, 0
2, 47994, Note_on_c, 0, 67, 0
2, 48017, Note_on_c, 0, 66, 79
2, 48024, Note_on_c, 0, 74, 70
2, 48026, Note_on_c, 0, 73, 0
2, 48081, Note_on_c, 0, 66, 0
2, 48121, Note_on_c, 0, 74, 0
2, 48132, Note_on_c, 0, 73, 76
2, 48240, Note_on_c, 0, 73, 0
2, 48244, Note_on_c, 0, 74, 71
2, 48262, Note_on_c, 0, 64, 80
2, 48316, Note_on_c, 0, 64, 0
2, 48370, Note_on_c, 0, 76, 72
2, 48372, Note_on_c, 0, 74, 0
2, 48484, Note_on_c, 0, 78, 82
2, 48486, Note_on_c, 0, 62, 83
2, 48498, Note_on_c, 0, 76, 0
2, 48535, Note_on_c, 0, 62, 0
2, 48598, Note_on_c, 0, 74, 70
2, 48598, Note_on_c, 0, 78, 0
2, 48710, Note_on_c, 0, 74, 0
2, 48721, Note_on_c, 0, 76, 74
2, 48730, Note_on_c, 0, 61, 84
2, 48774, Note_on_c, 0, 61, 0
2, 48834, Note_on_c, 0, 74, 68
2, 48835, Note_on_c, 0, 76, 0
2, 48941, Note_on_c, 0, 74, 0
2, 48967, Note_on_c, 0, 76, 74
2, 48980, Note_on_c, 0, 71, 85
2, 49085, Note_on_c, 0, 76, 0
2, 49088, Note_on_c, 0, 78, 74
2, 49205, Note_on_c, 0, 79, 74
2, 49208, Note_on_c, 0, 78, 0
2, 49310, Note_on_c, 0, 79, 0
2, 49318, Note_on_c, 0, 76, 74
2, 49388, Note_on_c, 0, 76, 0
2, 49420, Note_on_c, 0, 71, 0
2, 49437, Note_on_c, 0, 78, 82
2, 49448, Note_on_c, 0, 69, 67
2, 49498, Note_on_c, 0, 69, 0
2, 49583, Note_on_c, 0, 78, 0
2, 49684, Note_on_c, 0, 79, 79
2, 49693, Note_on_c, 0, 71, 69
2, 49760, Note_on_c, 0, 71, 0
2, 49806, Note_on_c, 0, 69, 67
2, 49809, Note_on_c, 0, 78, 81
2, 49851, Note_on_c, 0, 79, 0
2, 49910, Note_on_c, 0, 69, 0
2, 49920, Note_on_c, 0, 67, 71
2, 49920, Note_on_c, 0, 76, 79
2, 49930, Note_on_c, 0, 78, 0
2, 50012, Note_on_c, 0, 76, 0
2, 50017, Note_on_c, 0, 67, 0
2, 50018, Note_on_c, 0, 74, 74
2, 50029, Note_on_c, 0, 66, 71
2, 50135, Note_on_c, 0, 66, 0
2, 50143, Note_on_c, 0, 74, 0
2, 50150, Note_on_c, 0, 79, 90
2, 50468, Note_on_c, 0, 67, 77
2, 50528, Note_on_c, 0, 67, 0
2, 50571, Note_on_c, 0, 66, 67
2, 50691, Note_on_c, 0, 66, 0
2, 50700, Note_on_c, 0, 64, 69
2, 50794, Note_on_c, 0, 64, 0
2, 50815, Note_on_c, 0, 62, 64
2, 50925, Note_on_c, 0, 62, 0
2, 50935, Note_on_c, 0, 61, 76
2, 50991, Note_on_c, 0, 61, 0
2, 51015, Note_on_c, 0, 79, 0
2, 51052, Note_on_c, 0, 78, 73
2, 51173, Note_on_c, 0, 67, 67
2, 51175, Note_on_c, 0, 76, 67
2, 51189, Note_on_c, 0, 78, 0
2, 51222, Note_on_c, 0, 67, 0
2, 51281, Note_on_c, 0, 79, 68
2, 51286, Note_on_c, 0, 76, 0
2, 51414, Note_on_c, 0, 66, 66
2, 51414, Note_on_c, 0, 74, 65
2, 51422, Note_on_c, 0, 79, 0
2, 51482, Note_on_c, 0, 66, 0
2, 51522, Note_on_c, 0, 74, 0
2, 51536, Note_on_c, 0, 79, 72
2, 51648, Note_on_c, 0, 64, 64
2, 51650, Note_on_c, 0, 73, 72
2, 51656, Note_on_c, 0, 79, 0
2, 51701, Note_on_c, 0, 64, 0
2, 51768, Note_on_c, 0, 79, 71
2, 51778, Note_on_c, 0, 73, 0
2, 51888, Note_on_c, 0, 71, 69
2, 51889, Note_on_c, 0, 62, 63
2, 51895, Note_on_c, 0, 79, 0
2, 51933, Note_on_c, 0, 62, 0
2, 52003, Note_on_c, 0, 79, 72
2, 52004, Note_on_c, 0, 71, 0
2, 52108, Note_on_c, 0, 79, 0
2, 52121, Note_on_c, 0, 69, 75
2, 52145, Note_on_c, 0, 61, 49
2, 52191, Note_on_c, 0, 61, 0
2, 52238, Note_on_c, 0, 79, 77
2, 52250, Note_on_c, 0, 69, 0
2, 52320, Note_on_c, 0, 79, 0
2, 52364, Note_on_c, 0, 78, 89
2, 52377, Note_on_c, 0, 62, 54
2, 52435, Note_on_c, 0, 78, 0
2, 52479, Note_on_c, 0, 62, 0
2, 52491, Note_on_c, 0, 64, 59
2, 52595, Note_on_c, 0, 64, 0
2, 52605, Note_on_c, 0, 74, 87
2, 52610, Note_on_c, 0, 66, 65
2, 52661, Note_on_c, 0, 74, 0
2, 52715, Note_on_c, 0, 66, 0
2, 52719, Note_on_c, 0, 62, 65
2, 52840, Note_on_c, 0, 62, 0
2, 52846, Note_on_c, 0, 76, 90
2, 52850, Note_on_c, 0, 67, 64
2, 52900, Note_on_c, 0, 76, 0
2, 52941, Note_on_c, 0, 67, 0
2, 52971, Note_on_c, 0, 62, 67
2, 53090, Note_on_c, 0, 62, 0
2, 53091, Note_on_c, 0, 78, 94
2, 53094, Note_on_c, 0, 69, 67
2, 53145, Note_on_c, 0, 78, 0
2, 53194, Note_on_c, 0, 69, 0
2, 53217, Note_on_c, 0, 62, 68
2, 53326, Note_on_c, 0, 62, 0
2, 53326, Note_on_c, 0, 79, 93
2, 53341, Note_on_c, 0, 71, 67
2, 53390, Note_on_c, 0, 79, 0
2, 53431, Note_on_c, 0, 71, 0
2, 53457, Note_on_c, 0, 62, 71
2, 53545, Note_on_c, 0, 62, 0
2, 53568, Note_on_c, 0, 81, 94
2, 53572, Note_on_c, 0, 72, 70
2, 53649, Note_on_c, 0, 72, 0
2, 53677, Note_on_c, 0, 62, 70
2, 53717, Note_on_c, 0, 62, 0
2, 53814, Note_on_c, 0, 81, 0
2, 53834, Note_on_c, 0, 71, 87
2, 53844, Note_on_c, 0, 55, 88
2, 53930, Note_on_c, 0, 55, 0
2, 54079, Note_on_c, 0, 74, 78
2, 54085, Note_on_c, 0, 57, 71
2, 54183, Note_on_c, 0, 57, 0
2, 54191, Note_on_c, 0, 55, 77
2, 54292, Note_on_c, 0, 55, 0
2, 54306, Note_on_c, 0, 54, 77
2, 54326, Note_on_c, 0, 79, 84
2, 54330, Note_on_c, 0, 74, 0
2, 54336, Note_on_c, 0, 71, 0
2, 54373, Note_on_c, 0, 54, 0
2, 54423, Note_on_c, 0, 55, 74
2, 54518, Note_on_c, 0, 55, 0
2, 54555, Note_on_c, 0, 57, 76
2, 54555, Note_on_c, 0, 79, 0
2, 54565, Note_on_c, 0, 72, 87
2, 54616, Note_on_c, 0, 57, 0
2, 54810, Note_on_c, 0, 78, 89
2, 54818, Note_on_c, 0, 59, 67
2, 54882, Note_on_c, 0, 59, 0
2, 54921, Note_on_c, 0, 57, 73
2, 55003, Note_on_c, 0, 78, 0
2, 55025, Note_on_c, 0, 57, 0
2, 55035, Note_on_c, 0, 55, 83
2, 55043, Note_on_c, 0, 76, 83
2, 55138, Note_on_c, 0, 55, 0
2, 55139, Note_on_c, 0, 57, 78
2, 55236, Note_on_c, 0, 72, 0
2, 55252, Note_on_c, 0, 76, 0
2, 55276, Note_on_c, 0, 57, 0
2, 55283, Note_on_c, 0, 74, 80
2, 55286, Note_on_c, 0, 59, 84
2, 55323, Note_on_c, 0, 74, 0
2, 55341, Note_on_c, 0, 59, 0
2, 55528, Note_on_c, 0, 57, 77
2, 55530, Note_on_c, 0, 72, 75
2, 55536, Note_on_c, 0, 66, 82
2, 55582, Note_on_c, 0, 57, 0
2, 55584, Note_on_c, 0, 66, 0
2, 55614, Note_on_c, 0, 72, 0
2, 55777, Note_on_c, 0, 55, 76
2, 55777, Note_on_c, 0, 71, 81
2, 55783, Note_on_c, 0, 67, 72
2, 55819, Note_on_c, 0, 55, 0
2, 56028, Note_on_c, 0, 71, 0
2, 56032, Note_on_c, 0, 50, 80
2, 56039, Note_on_c, 0, 69, 78
2, 56075, Note_on_c, 0, 50, 0
2, 56156, Note_on_c, 0, 67, 0
2, 56217, Control_c, 0, 64, 10
2, 56230, Note_on_c, 0, 69, 0
2, 56247, Control_c, 0, 64, 13
2, 56262, Control_c, 0, 64, 15
2, 56277, Control_c, 0, 64, 18
2, 56279, Note_on_c, 0, 66, 61
2, 56290, Note_on_c, 0, 60, 89
2, 56293, Control_c, 0, 64, 23
2, 56307, Control_c, 0, 64, 25
2, 56323, Control_c, 0, 64, 26
2, 56339, Note_on_c, 0, 66, 0
2, 56383, Control_c, 0, 64, 25
2, 56398, Control_c, 0, 64, 24
2, 56404, Note_on_c, 0, 67, 60
2, 56414, Control_c, 0, 64, 21
2, 56429, Control_c, 0, 64, 18
2, 56445, Control_c, 0, 64, 13
2, 56460, Control_c, 0, 64, 0
2, 56491, Note_on_c, 0, 67, 0
2, 56521, Note_on_c, 0, 69, 71
2, 56620, Note_on_c, 0, 69, 0
2, 56643, Note_on_c, 0, 66, 65
2, 56741, Note_on_c, 0, 60, 0
2, 56753, Note_on_c, 0, 66, 0
2, 56763, Note_on_c, 0, 67, 70
2, 56774, Note_on_c, 0, 59, 67
2, 56816, Note_on_c, 0, 59, 0
2, 56872, Note_on_c, 0, 67, 0
2, 56879, Note_on_c, 0, 66, 74
2, 56983, Note_on_c, 0, 66, 0
2, 56993, Note_on_c, 0, 67, 73
2, 57004, Note_on_c, 0, 57, 74
2, 57068, Note_on_c, 0, 57, 0
2, 57099, Note_on_c, 0, 67, 0
2, 57101, Note_on_c, 0, 69, 72
2, 57156, Note_on_c, 0, 69, 0
2, 57219, Note_on_c, 0, 74, 76
2, 57221, Note_on_c, 0, 71, 78
2, 57230, Note_on_c, 0, 55, 78
2, 57274, Note_on_c, 0, 55, 0
2, 57297, Note_on_c, 0, 71, 0
2, 57332, Note_on_c, 0, 67, 75
2, 57409, Note_on_c, 0, 67, 0
2, 57455, Note_on_c, 0, 54, 77
2, 57460, Note_on_c, 0, 69, 81
2, 57515, Note_on_c, 0, 54, 0
2, 57570, Note_on_c, 0, 69, 0
2, 57575, Note_on_c, 0, 67, 71
2, 57643, Note_on_c, 0, 67, 0
2, 57670, Note_on_c, 0, 74, 0
2, 57698, Note_on_c, 0, 64, 97
2, 57701, Note_on_c, 0, 72, 77
2, 57702, Note_on_c, 0, 69, 76
2, 57757, Note_on_c, 0, 69, 0
2, 57781, Note_on_c, 0, 72, 0
2, 57812, Note_on_c, 0, 71, 75
2, 57867, Note_on_c, 0, 71, 0
2, 57930, Note_on_c, 0, 81, 90
2, 57974, Note_on_c, 0, 72, 45
2, 58044, Note_on_c, 0, 69, 66
2, 58077, Note_on_c, 0, 69, 0
2, 58083, Note_on_c, 0, 64, 0
2, 58104, Note_on_c, 0, 72, 0
2, 58164, Note_on_c, 0, 71, 78
2, 58172, Note_on_c, 0, 62, 70
2, 58203, Note_on_c, 0, 81, 0
2, 58260, Note_on_c, 0, 62, 0
2, 58303, Note_on_c, 0, 71, 0
2, 58412, Note_on_c, 0, 79, 89
2, 58421, Note_on_c, 0, 72, 84
2, 58441, Note_on_c, 0, 64, 61
2, 58495, Note_on_c, 0, 64, 0
2, 58514, Note_on_c, 0, 72, 0
2, 58532, Note_on_c, 0, 71, 71
2, 58533, Note_on_c, 0, 62, 69
2, 58581, Note_on_c, 0, 71, 0
2, 58643, Note_on_c, 0, 62, 0
2, 58649, Note_on_c, 0, 60, 75
2, 58663, Note_on_c, 0, 69, 80
2, 58747, Note_on_c, 0, 60, 0
2, 58754, Note_on_c, 0, 69, 0
2, 58755, Note_on_c, 0, 67, 79
2, 58756, Note_on_c, 0, 59, 72
2, 58802, Note_on_c, 0, 67, 0
2, 58852, Note_on_c, 0, 79, 0
2, 58863, Note_on_c, 0, 59, 0
2, 58878, Note_on_c, 0, 57, 68
2, 58888, Note_on_c, 0, 72, 86
2, 58946, Note_on_c, 0, 57, 0
2, 59129, Note_on_c, 0, 81, 87
2, 59139, Note_on_c, 0, 60, 71
2, 59206, Note_on_c, 0, 60, 0
2, 59230, Note_on_c, 0, 79, 82
2, 59238, Note_on_c, 0, 59, 71
2, 59255, Note_on_c, 0, 81, 0
2, 59345, Note_on_c, 0, 59, 0
2, 59346, Note_on_c, 0, 78, 84
2, 59350, Note_on_c, 0, 57, 76
2, 59385, Note_on_c, 0, 79, 0
2, 59394, Note_on_c, 0, 72, 0
2, 59422, Note_on_c, 0, 57, 0
2, 59435, Note_on_c, 0, 78, 0
2, 59458, Note_on_c, 0, 76, 77
2, 59459, Note_on_c, 0, 55, 76
2, 59503, Note_on_c, 0, 76, 0
2, 59566, Note_on_c, 0, 55, 0
2, 59591, Note_on_c, 0, 74, 84
2, 59595, Note_on_c, 0, 54, 69
2, 59712, Note_on_c, 0, 71, 74
2, 59792, Note_on_c, 0, 54, 0
2, 59827, Note_on_c, 0, 71, 0
2, 59829, Note_on_c, 0, 69, 80
2, 59906, Note_on_c, 0, 69, 0
2, 59944, Note_on_c, 0, 72, 78
2, 60033, Note_on_c, 0, 72, 0
2, 60055, Note_on_c, 0, 67, 77
2, 60070, Note_on_c, 0, 52, 60
2, 60119, Note_on_c, 0, 52, 0
2, 60159, Note_on_c, 0, 67, 0
2, 60171, Note_on_c, 0, 72, 76
2, 60296, Note_on_c, 0, 66, 78
2, 60297, Note_on_c, 0, 50, 61
2, 60312, Note_on_c, 0, 72, 0
2, 60371, Note_on_c, 0, 50, 0
2, 60394, Note_on_c, 0, 66, 0
2, 60397, Note_on_c, 0, 52, 59
2, 60410, Note_on_c, 0, 72, 74
2, 60498, Note_on_c, 0, 52, 0
2, 60502, Note_on_c, 0, 72, 0
2, 60522, Note_on_c, 0, 50, 62
2, 60529, Note_on_c, 0, 64, 73
2, 60612, Note_on_c, 0, 50, 0
2, 60621, Note_on_c, 0, 64, 0
2, 60646, Note_on_c, 0, 48, 61
2, 60652, Note_on_c, 0, 72, 70
2, 60740, Note_on_c, 0, 48, 0
2, 60752, Note_on_c, 0, 72, 0
2, 60758, Note_on_c, 0, 62, 71
2, 60765, Note_on_c, 0, 47, 66
2, 60850, Note_on_c, 0, 47, 0
2, 60850, Note_on_c, 0, 62, 0
2, 60877, Note_on_c, 0, 45, 60
2, 60877, Note_on_c, 0, 72, 72
2, 60955, Note_on_c, 0, 74, 0
2, 60971, Note_on_c, 0, 45, 0
2, 60980, Note_on_c, 0, 72, 0
2, 61001, Note_on_c, 0, 43, 55
2, 61010, Note_on_c, 0, 71, 74
2, 61067, Note_on_c, 0, 71, 0
2, 61105, Note_on_c, 0, 43, 0
2, 61111, Note_on_c, 0, 45, 54
2, 61234, Note_on_c, 0, 45, 0
2, 61245, Note_on_c, 0, 74, 53
2, 61248, Note_on_c, 0, 47, 60
2, 61251, Note_on_c, 0, 65, 62
2, 61269, Note_on_c, 0, 72, 46
2, 61291, Note_on_c, 0, 65, 0
2, 61294, Note_on_c, 0, 72, 0
2, 61306, Note_on_c, 0, 74, 0
2, 61324, Note_on_c, 0, 47, 0
2, 61352, Note_on_c, 0, 43, 59
2, 61479, Note_on_c, 0, 43, 0
2, 61492, Note_on_c, 0, 48, 61
2, 61497, Note_on_c, 0, 72, 72
2, 61502, Note_on_c, 0, 64, 60
2, 61541, Note_on_c, 0, 64, 0
2, 61553, Note_on_c, 0, 72, 0
2, 61593, Note_on_c, 0, 48, 0
2, 61602, Note_on_c, 0, 43, 56
2, 61722, Note_on_c, 0, 43, 0
2, 61737, Note_on_c, 0, 50, 56
2, 61743, Note_on_c, 0, 71, 69
2, 61757, Note_on_c, 0, 62, 54
2, 61788, Note_on_c, 0, 62, 0
2, 61803, Note_on_c, 0, 71, 0
2, 61811, Note_on_c, 0, 50, 0
2, 61846, Note_on_c, 0, 43, 58
2, 61953, Note_on_c, 0, 43, 0
2, 61962, Note_on_c, 0, 52, 64
2, 61975, Note_on_c, 0, 69, 66
2, 61993, Note_on_c, 0, 60, 45
2, 62021, Note_on_c, 0, 60, 0
2, 62027, Note_on_c, 0, 69, 0
2, 62051, Note_on_c, 0, 52, 0
2, 62072, Note_on_c, 0, 43, 55
2, 62192, Note_on_c, 0, 43, 0
2, 62211, Note_on_c, 0, 67, 74
2, 62212, Note_on_c, 0, 53, 62
2, 62229, Note_on_c, 0, 59, 49
2, 62254, Note_on_c, 0, 59, 0
2, 62269, Note_on_c, 0, 67, 0
2, 62306, Note_on_c, 0, 53, 0
2, 62315, Note_on_c, 0, 43, 63
2, 62410, Note_on_c, 0, 43, 0
2, 62422, Control_c, 0, 64, 10
2, 62436, Note_on_c, 0, 72, 81
2, 62437, Control_c, 0, 64, 15
2, 62443, Note_on_c, 0, 52, 61
2, 62452, Control_c, 0, 64, 18
2, 62467, Control_c, 0, 64, 23
2, 62483, Control_c, 0, 64, 26
2, 62491, Note_on_c, 0, 72, 0
2, 62498, Control_c, 0, 64, 27
2, 62513, Control_c, 0, 64, 28
2, 62529, Control_c, 0, 64, 29
2, 62539, Note_on_c, 0, 74, 78
2, 62543, Note_on_c, 0, 52, 0
2, 62557, Note_on_c, 0, 50, 62
2, 62574, Control_c, 0, 64, 27
2, 62605, Control_c, 0, 64, 26
2, 62606, Note_on_c, 0, 74, 0
2, 62620, Control_c, 0, 64, 24
2, 62634, Control_c, 0, 64, 23
2, 62642, Note_on_c, 0, 50, 0
2, 62649, Control_c, 0, 64, 21
2, 62658, Note_on_c, 0, 76, 84
2, 62664, Control_c, 0, 64, 20
2, 62664, Note_on_c, 0, 48, 56
2, 62735, Note_on_c, 0, 48, 0
2, 62740, Control_c, 0, 64, 21
2, 62770, Control_c, 0, 64, 23
2, 62774, Note_on_c, 0, 52, 60
2, 62831, Control_c, 0, 64, 21
2, 62854, Control_c, 0, 64, 20
2, 62869, Control_c, 0, 64, 17
2, 62885, Control_c, 0, 64, 13
2, 62885, Note_on_c, 0, 52, 0
2, 62900, Control_c, 0, 64, 0
2, 62907, Note_on_c, 0, 67, 70
2, 62909, Note_on_c, 0, 47, 60
2, 62964, Note_on_c, 0, 67, 0
2, 63014, Note_on_c, 0, 52, 58
2, 63018, Note_on_c, 0, 47, 0
2, 63123, Note_on_c, 0, 76, 0
2, 63132, Note_on_c, 0, 52, 0
2, 63149, Note_on_c, 0, 66, 73
2, 63150, Note_on_c, 0, 45, 60
2, 63250, Note_on_c, 0, 45, 0
2, 63261, Note_on_c, 0, 52, 64
2, 63262, Note_on_c, 0, 74, 69
2, 63368, Note_on_c, 0, 74, 0
2, 63380, Note_on_c, 0, 52, 0
2, 63381, Note_on_c, 0, 72, 73
2, 63390, Note_on_c, 0, 43, 59
2, 63469, Note_on_c, 0, 43, 0
2, 63498, Note_on_c, 0, 71, 80
2, 63503, Note_on_c, 0, 52, 60
2, 63517, Note_on_c, 0, 66, 0
2, 63537, Note_on_c, 0, 72, 0
2, 63608, Note_on_c, 0, 52, 0
2, 63623, Note_on_c, 0, 69, 81
2, 63629, Note_on_c, 0, 71, 0
2, 63631, Note_on_c, 0, 42, 60
2, 63711, Note_on_c, 0, 42, 0
2, 63739, Note_on_c, 0, 69, 0
2, 63742, Note_on_c, 0, 52, 58
2, 63743, Note_on_c, 0, 72, 83
2, 63810, Note_on_c, 0, 72, 0
2, 63819, Note_on_c, 0, 52, 0
2, 63835, Control_c, 0, 64, 10
2, 63850, Note_on_c, 0, 50, 56
2, 63851, Control_c, 0, 64, 15
2, 63856, Note_on_c, 0, 71, 89
2, 63866, Control_c, 0, 64, 17
2, 63881, Control_c, 0, 64, 18
2, 63896, Control_c, 0, 64, 20
2, 63929, Note_on_c, 0, 71, 0
2, 63952, Note_on_c, 0, 50, 0
2, 63963, Note_on_c, 0, 48, 69
2, 63968, Note_on_c, 0, 72, 87
2, 64032, Control_c, 0, 64, 18
2, 64048, Control_c, 0, 64, 17
2, 64051, Note_on_c, 0, 72, 0
2, 64061, Note_on_c, 0, 48, 0
2, 64082, Note_on_c, 0, 47, 62
2, 64088, Note_on_c, 0, 74, 88
2, 64109, Control_c, 0, 64, 15
2, 64158, Note_on_c, 0, 47, 0
2, 64192, Note_on_c, 0, 50, 63
2, 64247, Control_c, 0, 64, 10
2, 64262, Control_c, 0, 64, 0
2, 64311, Note_on_c, 0, 50, 0
2, 64327, Note_on_c, 0, 45, 62
2, 64329, Note_on_c, 0, 66, 80
2, 64415, Note_on_c, 0, 66, 0
2, 64431, Note_on_c, 0, 45, 0
2, 64451, Note_on_c, 0, 50, 57
2, 64528, Note_on_c, 0, 74, 0
2, 64558, Note_on_c, 0, 50, 0
2, 64571, Note_on_c, 0, 43, 63
2, 64575, Note_on_c, 0, 64, 71
2, 64645, Note_on_c, 0, 43, 0
2, 64686, Note_on_c, 0, 50, 64
2, 64695, Note_on_c, 0, 72, 75
2, 64796, Note_on_c, 0, 50, 0
2, 64811, Note_on_c, 0, 71, 74
2, 64813, Note_on_c, 0, 72, 0
2, 64818, Note_on_c, 0, 42, 58
2, 64912, Note_on_c, 0, 42, 0
2, 64930, Note_on_c, 0, 69, 81
2, 64934, Note_on_c, 0, 50, 56
2, 64953, Note_on_c, 0, 71, 0
2, 65023, Note_on_c, 0, 50, 0
2, 65036, Note_on_c, 0, 40, 63
2, 65047, Note_on_c, 0, 67, 81
2, 65055, Note_on_c, 0, 69, 0
2, 65089, Note_on_c, 0, 64, 0
2, 65108, Note_on_c, 0, 40, 0
2, 65138, Note_on_c, 0, 50, 64
2, 65164, Note_on_c, 0, 71, 87
2, 65173, Note_on_c, 0, 67, 0
2, 65235, Note_on_c, 0, 50, 0
2, 65245, Note_on_c, 0, 71, 0
2, 65258, Note_on_c, 0, 48, 64
2, 65278, Note_on_c, 0, 69, 90
2, 65281, Control_c, 0, 64, 10
2, 65296, Control_c, 0, 64, 15
2, 65310, Control_c, 0, 64, 17
2, 65326, Control_c, 0, 64, 21
2, 65341, Control_c, 0, 64, 26
2, 65351, Note_on_c, 0, 69, 0
2, 65356, Control_c, 0, 64, 28
2, 65358, Note_on_c, 0, 48, 0
2, 65371, Note_on_c, 0, 47, 68
2, 65372, Control_c, 0, 64, 29
2, 65387, Note_on_c, 0, 71, 89
2, 65433, Control_c, 0, 64, 29
2, 65479, Note_on_c, 0, 71, 0
2, 65482, Note_on_c, 0, 47, 0
2, 65494, Note_on_c, 0, 45, 62
2, 65514, Note_on_c, 0, 72, 90
2, 65554, Control_c, 0, 64, 29
2, 65571, Note_on_c, 0, 45, 0
2, 65599, Control_c, 0, 64, 28
2, 65606, Note_on_c, 0, 48, 66
2, 65630, Control_c, 0, 64, 27
2, 65645, Control_c, 0, 64, 25
2, 65660, Control_c, 0, 64, 23
2, 65675, Control_c, 0, 64, 21
2, 65707, Control_c, 0, 64, 20
2, 65721, Note_on_c, 0, 48, 0
2, 65722, Control_c, 0, 64, 18
2, 65743, Note_on_c, 0, 43, 61
2, 65749, Note_on_c, 0, 64, 73
2, 65752, Control_c, 0, 64, 17
2, 65768, Control_c, 0, 64, 13
2, 65783, Control_c, 0, 64, 0
2, 65821, Note_on_c, 0, 43, 0
2, 65824, Note_on_c, 0, 64, 0
2, 65851, Note_on_c, 0, 48, 64
2, 65983, Note_on_c, 0, 72, 0
2, 65985, Note_on_c, 0, 48, 0
2, 65994, Note_on_c, 0, 62, 72
2, 66003, Note_on_c, 0, 42, 60
2, 66097, Note_on_c, 0, 42, 0
2, 66105, Note_on_c, 0, 48, 64
2, 66124, Note_on_c, 0, 71, 64
2, 66214, Note_on_c, 0, 48, 0
2, 66231, Note_on_c, 0, 40, 66
2, 66232, Note_on_c, 0, 69, 71
2, 66247, Note_on_c, 0, 71, 0
2, 66313, Note_on_c, 0, 40, 0
2, 66341, Note_on_c, 0, 48, 66
2, 66347, Note_on_c, 0, 67, 75
2, 66356, Note_on_c, 0, 69, 0
2, 66453, Note_on_c, 0, 48, 0
2, 66463, Note_on_c, 0, 38, 60
2, 66464, Note_on_c, 0, 66, 76
2, 66465, Note_on_c, 0, 67, 0
2, 66517, Note_on_c, 0, 62, 0
2, 66546, Note_on_c, 0, 38, 0
2, 66570, Note_on_c, 0, 48, 70
2, 66574, Note_on_c, 0, 69, 79
2, 66586, Note_on_c, 0, 66, 0
2, 66617, Note_on_c, 0, 48, 0
2, 66632, Note_on_c, 0, 69, 0
2, 66707, Note_on_c, 0, 67, 87
2, 66712, Note_on_c, 0, 62, 82
2, 66727, Note_on_c, 0, 47, 74
2, 66793, Note_on_c, 0, 67, 0
2, 66826, Note_on_c, 0, 47, 0
2, 66828, Note_on_c, 0, 69, 73
2, 66841, Note_on_c, 0, 62, 0
2, 66879, Note_on_c, 0, 69, 0
2, 66951, Note_on_c, 0, 71, 93
2, 66965, Note_on_c, 0, 60, 78
2, 66968, Note_on_c, 0, 45, 67
2, 67011, Note_on_c, 0, 60, 0
2, 67031, Note_on_c, 0, 45, 0
2, 67082, Note_on_c, 0, 62, 79
2, 67176, Note_on_c, 0, 62, 0
2, 67199, Note_on_c, 0, 64, 80
2, 67201, Note_on_c, 0, 43, 75
2, 67261, Note_on_c, 0, 43, 0
2, 67264, Note_on_c, 0, 71, 0
2, 67308, Note_on_c, 0, 62, 83
2, 67322, Note_on_c, 0, 64, 0
2, 67434, Note_on_c, 0, 62, 0
2, 67442, Note_on_c, 0, 60, 83
2, 67443, Note_on_c, 0, 45, 79
2, 67521, Note_on_c, 0, 45, 0
2, 67540, Note_on_c, 0, 60, 0
2, 67687, Note_on_c, 0, 64, 78
2, 67698, Note_on_c, 0, 59, 61
2, 67701, Note_on_c, 0, 43, 79
2, 67732, Note_on_c, 0, 59, 0
2, 67772, Note_on_c, 0, 43, 0
2, 67774, Note_on_c, 0, 64, 0
2, 67818, Note_on_c, 0, 60, 81
2, 67888, Note_on_c, 0, 60, 0
2, 67934, Note_on_c, 0, 42, 68
2, 67940, Note_on_c, 0, 62, 78
2, 67941, Note_on_c, 0, 69, 75
2, 67988, Note_on_c, 0, 42, 0
2, 67989, Note_on_c, 0, 62, 0
2, 68051, Note_on_c, 0, 60, 80
2, 68114, Note_on_c, 0, 60, 0
2, 68176, Note_on_c, 0, 43, 60
2, 68178, Note_on_c, 0, 59, 76
2, 68233, Note_on_c, 0, 69, 0
2, 68239, Note_on_c, 0, 43, 0
2, 68259, Note_on_c, 0, 59, 0
2, 68297, Note_on_c, 0, 55, 52
2, 68313, Note_on_c, 0, 67, 69
2, 68374, Note_on_c, 0, 67, 0
2, 68391, Note_on_c, 0, 55, 0
2, 68434, Note_on_c, 0, 53, 59
2, 68439, Note_on_c, 0, 69, 81
2, 68442, Note_on_c, 0, 60, 80
2, 68502, Note_on_c, 0, 60, 0
2, 68521, Note_on_c, 0, 69, 0
2, 68544, Note_on_c, 0, 53, 0
2, 68553, Note_on_c, 0, 52, 67
2, 68656, Note_on_c, 0, 52, 0
2, 68679, Note_on_c, 0, 50, 66
2, 68682, Note_on_c, 0, 71, 85
2, 68685, Note_on_c, 0, 62, 81
2, 68721, Note_on_c, 0, 62, 0
2, 68744, Note_on_c, 0, 71, 0
2, 68785, Note_on_c, 0, 50, 0
2, 68793, Control_c, 0, 64, 13
2, 68795, Note_on_c, 0, 53, 74
2, 68809, Control_c, 0, 64, 18
2, 68823, Control_c, 0, 64, 21
2, 68838, Control_c, 0, 64, 24
2, 68854, Control_c, 0, 64, 25
2, 68900, Control_c, 0, 64, 26
2, 68908, Note_on_c, 0, 67, 74
2, 68911, Note_on_c, 0, 72, 75
2, 68915, Note_on_c, 0, 53, 0
2, 68918, Note_on_c, 0, 52, 76
2, 68977, Control_c, 0, 64, 25
2, 68999, Control_c, 0, 64, 24
2, 69001, Note_on_c, 0, 72, 0
2, 69032, Note_on_c, 0, 74, 67
2, 69038, Note_on_c, 0, 52, 0
2, 69038, Note_on_c, 0, 67, 0
2, 69038, Note_on_c, 0, 67, 6
2, 69043, Note_on_c, 0, 53, 75
2, 69075, Control_c, 0, 64, 23
2, 69136, Control_c, 0, 64, 21
2, 69151, Control_c, 0, 64, 20
2, 69158, Note_on_c, 0, 72, 77
2, 69159, Note_on_c, 0, 57, 93
2, 69163, Note_on_c, 0, 53, 0
2, 69167, Control_c, 0, 64, 18
2, 69169, Note_on_c, 0, 52, 81
2, 69171, Note_on_c, 0, 74, 0
2, 69181, Control_c, 0, 64, 15
2, 69196, Control_c, 0, 64, 0
2, 69242, Note_on_c, 0, 67, 0
2, 69270, Note_on_c, 0, 72, 0
2, 69276, Note_on_c, 0, 52, 0
2, 69284, Note_on_c, 0, 71, 57
2, 69285, Note_on_c, 0, 50, 66
2, 69384, Note_on_c, 0, 50, 0
2, 69390, Note_on_c, 0, 71, 0
2, 69401, Note_on_c, 0, 69, 70
2, 69403, Note_on_c, 0, 48, 68
2, 69427, Note_on_c, 0, 57, 0
2, 69469, Note_on_c, 0, 69, 0
2, 69488, Note_on_c, 0, 52, 75
2, 69490, Note_on_c, 0, 48, 0
2, 69502, Note_on_c, 0, 67, 64
2, 69576, Note_on_c, 0, 67, 0
2, 69591, Note_on_c, 0, 52, 0
2, 69609, Note_on_c, 0, 66, 72
2, 69623, Note_on_c, 0, 50, 69
2, 69626, Note_on_c, 0, 59, 64
2, 69629, Note_on_c, 0, 48, 62
2, 69667, Note_on_c, 0, 48, 0
2, 69679, Note_on_c, 0, 66, 0
2, 69692, Note_on_c, 0, 67, 75
2, 69715, Note_on_c, 0, 52, 79
2, 69722, Note_on_c, 0, 59, 0
2, 69723, Note_on_c, 0, 50, 0
2, 69757, Note_on_c, 0, 67, 0
2, 69772, Note_on_c, 0, 66, 65
2, 69833, Note_on_c, 0, 66, 0
2, 69838, Note_on_c, 0, 67, 84
2, 69846, Note_on_c, 0, 60, 82
2, 69856, Note_on_c, 0, 50, 79
2, 69856, Note_on_c, 0, 52, 0
2, 69888, Note_on_c, 0, 60, 0
2, 69952, Note_on_c, 0, 64, 71
2, 69953, Note_on_c, 0, 67, 0
2, 69961, Note_on_c, 0, 50, 0
2, 69976, Note_on_c, 0, 48, 65
2, 70021, Note_on_c, 0, 66, 63
2, 70053, Note_on_c, 0, 64, 0
2, 70072, Note_on_c, 0, 48, 0
2, 70090, Note_on_c, 0, 62, 92
2, 70091, Note_on_c, 0, 66, 0
2, 70095, Note_on_c, 0, 67, 85
2, 70098, Note_on_c, 0, 47, 72
2, 70205, Note_on_c, 0, 47, 0
2, 70207, Note_on_c, 0, 50, 74
2, 70224, Note_on_c, 0, 62, 0
2, 70265, Note_on_c, 0, 67, 0
2, 70324, Note_on_c, 0, 50, 0
2, 70325, Note_on_c, 0, 48, 81
2, 70328, Note_on_c, 0, 64, 83
2, 70389, Note_on_c, 0, 64, 0
2, 70446, Note_on_c, 0, 71, 75
2, 70447, Note_on_c, 0, 48, 0
2, 70453, Note_on_c, 0, 50, 71
2, 70512, Control_c, 0, 64, 10
2, 70516, Note_on_c, 0, 71, 0
2, 70575, Note_on_c, 0, 69, 85
2, 70579, Note_on_c, 0, 48, 77
2, 70579, Note_on_c, 0, 50, 0
2, 70592, Note_on_c, 0, 54, 85
2, 70627, Control_c, 0, 64, 0
2, 70668, Note_on_c, 0, 69, 0
2, 70698, Note_on_c, 0, 48, 0
2, 70703, Note_on_c, 0, 47, 64
2, 70712, Note_on_c, 0, 67, 74
2, 70803, Note_on_c, 0, 47, 0
2, 70817, Note_on_c, 0, 45, 63
2, 70817, Note_on_c, 0, 67, 0
2, 70825, Note_on_c, 0, 66, 72
2, 70841, Note_on_c, 0, 54, 0
2, 70899, Note_on_c, 0, 66, 0
2, 70919, Note_on_c, 0, 45, 0
2, 70919, Note_on_c, 0, 48, 66
2, 70938, Note_on_c, 0, 64, 60
2, 70979, Note_on_c, 0, 64, 0
2, 71037, Note_on_c, 0, 48, 0
2, 71049, Note_on_c, 0, 47, 72
2, 71051, Note_on_c, 0, 52, 67
2, 71056, Note_on_c, 0, 62, 71
2, 71121, Note_on_c, 0, 52, 0
2, 71151, Note_on_c, 0, 62, 0
2, 71156, Note_on_c, 0, 47, 0
2, 71161, Note_on_c, 0, 48, 75
2, 71285, Note_on_c, 0, 48, 0
2, 71288, Note_on_c, 0, 55, 73
2, 71291, Note_on_c, 0, 47, 75
2, 71401, Note_on_c, 0, 47, 0
2, 71405, Note_on_c, 0, 55, 0
2, 71411, Note_on_c, 0, 57, 75
2, 71421, Note_on_c, 0, 45, 65
2, 71511, Note_on_c, 0, 45, 0
2, 71522, Note_on_c, 0, 57, 0
2, 71529, Note_on_c, 0, 43, 66
2, 71533, Note_on_c, 0, 59, 78
2, 71630, Note_on_c, 0, 59, 0
2, 71646, Note_on_c, 0, 61, 82
2, 71648, Note_on_c, 0, 45, 68
2, 71650, Note_on_c, 0, 43, 0
2, 71758, Note_on_c, 0, 45, 0
2, 71759, Note_on_c, 0, 47, 76
2, 71761, Note_on_c, 0, 62, 82
2, 71780, Note_on_c, 0, 61, 0
2, 71833, Note_on_c, 0, 62, 0
2, 71857, Note_on_c, 0, 47, 0
2, 71860, Note_on_c, 0, 49, 78
2, 71977, Note_on_c, 0, 49, 0
2, 71984, Note_on_c, 0, 59, 74
2, 71985, Note_on_c, 0, 50, 67
2, 72071, Note_on_c, 0, 50, 0
2, 72101, Note_on_c, 0, 61, 76
2, 72106, Note_on_c, 0, 52, 68
2, 72106, Note_on_c, 0, 59, 0
2, 72196, Note_on_c, 0, 61, 0
2, 72201, Note_on_c, 0, 52, 0
2, 72214, Note_on_c, 0, 62, 79
2, 72215, Note_on_c, 0, 54, 73
2, 72294, Note_on_c, 0, 62, 0
2, 72324, Note_on_c, 0, 64, 74
2, 72325, Note_on_c, 0, 54, 0
2, 72328, Note_on_c, 0, 55, 64
2, 72403, Note_on_c, 0, 55, 0
2, 72449, Note_on_c, 0, 54, 76
2, 72456, Note_on_c, 0, 69, 73
2, 72458, Note_on_c, 0, 64, 0
2, 72466, Note_on_c, 0, 66, 73
2, 72484, Note_on_c, 0, 54, 0
2, 72568, Note_on_c, 0, 66, 0
2, 72577, Note_on_c, 0, 69, 0
2, 72687, Note_on_c, 0, 64, 60
2, 72688, Note_on_c, 0, 67, 68
2, 72693, Note_on_c, 0, 59, 68
2, 72740, Note_on_c, 0, 59, 0
2, 72741, Note_on_c, 0, 64, 0
2, 72755, Note_on_c, 0, 67, 0
2, 72802, Note_on_c, 0, 69, 73
2, 72889, Note_on_c, 0, 69, 0
2, 72936, Note_on_c, 0, 47, 65
2, 72943, Note_on_c, 0, 71, 73
2, 72952, Note_on_c, 0, 63, 66
2, 72987, Note_on_c, 0, 47, 0
2, 72989, Note_on_c, 0, 63, 0
2, 73033, Note_on_c, 0, 71, 0
2, 73048, Note_on_c, 0, 69, 72
2, 73138, Note_on_c, 0, 69, 0
2, 73183, Note_on_c, 0, 67, 78
2, 73187, Note_on_c, 0, 52, 65
2, 73195, Note_on_c, 0, 64, 60
2, 73214, Note_on_c, 0, 52, 0
2, 73232, Note_on_c, 0, 64, 0
2, 73245, Note_on_c, 0, 67, 0
2, 73437, Note_on_c, 0, 62, 60
2, 73437, Note_on_c, 0, 66, 69
2, 73444, Note_on_c, 0, 57, 63
2, 73489, Note_on_c, 0, 57, 0
2, 73492, Note_on_c, 0, 62, 0
2, 73516, Note_on_c, 0, 66, 0
2, 73553, Note_on_c, 0, 67, 62
2, 73638, Note_on_c, 0, 67, 0
2, 73675, Note_on_c, 0, 45, 56
2, 73676, Note_on_c, 0, 69, 70
2, 73691, Note_on_c, 0, 61, 65
2, 73719, Note_on_c, 0, 45, 0
2, 73755, Note_on_c, 0, 61, 0
2, 73765, Note_on_c, 0, 69, 0
2, 73793, Note_on_c, 0, 67, 71
2, 73886, Note_on_c, 0, 67, 0
2, 73918, Note_on_c, 0, 66, 85
2, 73927, Note_on_c, 0, 50, 62
2, 73929, Note_on_c, 0, 62, 59
2, 73957, Note_on_c, 0, 50, 0
2, 73957, Note_on_c, 0, 62, 0
2, 73974, Note_on_c, 0, 66, 0
2, 73987, Control_c, 0, 64, 18
2, 74003, Control_c, 0, 64, 24
2, 74018, Control_c, 0, 64, 28
2, 74033, Control_c, 0, 64, 30
2, 74049, Control_c, 0, 64, 32
2, 74064, Control_c, 0, 64, 32
2, 74139, Control_c, 0, 64, 32
2, 74168, Note_on_c, 0, 67, 86
2, 74183, Note_on_c, 0, 52, 48
2, 74185, Control_c, 0, 64, 31
2, 74186, Note_on_c, 0, 61, 63
2, 74215, Control_c, 0, 64, 30
2, 74220, Note_on_c, 0, 67, 0
2, 74230, Control_c, 0, 64, 29
2, 74238, Note_on_c, 0, 52, 0
2, 74261, Control_c, 0, 64, 29
2, 74284, Note_on_c, 0, 61, 0
2, 74293, Note_on_c, 0, 59, 60
2, 74351, Control_c, 0, 64, 28
2, 74382, Note_on_c, 0, 59, 0
2, 74390, Control_c, 0, 64, 27
2, 74421, Control_c, 0, 64, 26
2, 74421, Note_on_c, 0, 69, 94
2, 74430, Note_on_c, 0, 54, 66
2, 74435, Control_c, 0, 64, 25
2, 74449, Note_on_c, 0, 57, 59
2, 74464, Note_on_c, 0, 69, 0
2, 74511, Control_c, 0, 64, 26
2, 74515, Note_on_c, 0, 57, 0
2, 74542, Control_c, 0, 64, 27
2, 74552, Note_on_c, 0, 61, 57
2, 74628, Note_on_c, 0, 61, 0
2, 74657, Note_on_c, 0, 74, 87
2, 74677, Note_on_c, 0, 59, 66
2, 74694, Control_c, 0, 64, 28
2, 74705, Note_on_c, 0, 74, 0
2, 74709, Control_c, 0, 64, 29
2, 74725, Control_c, 0, 64, 30
2, 74740, Control_c, 0, 64, 32
2, 74753, Note_on_c, 0, 61, 70
2, 74755, Control_c, 0, 64, 34
2, 74761, Note_on_c, 0, 54, 0
2, 74770, Note_on_c, 0, 59, 0
2, 74771, Control_c, 0, 64, 35
2, 74785, Control_c, 0, 64, 36
2, 74801, Control_c, 0, 64, 36
2, 74816, Control_c, 0, 64, 37
2, 74825, Note_on_c, 0, 61, 0
2, 74877, Control_c, 0, 64, 36
2, 74882, Note_on_c, 0, 55, 70
2, 74887, Note_on_c, 0, 64, 85
2, 74893, Control_c, 0, 64, 36
2, 74907, Control_c, 0, 64, 35
2, 74923, Control_c, 0, 64, 34
2, 74947, Note_on_c, 0, 55, 0
2, 74953, Control_c, 0, 64, 34
2, 74972, Note_on_c, 0, 66, 84
2, 74975, Note_on_c, 0, 64, 0
2, 74982, Note_on_c, 0, 57, 67
2, 74983, Control_c, 0, 64, 33
2, 75029, Control_c, 0, 64, 32
2, 75046, Note_on_c, 0, 66, 0
2, 75061, Note_on_c, 0, 64, 70
2, 75064, Note_on_c, 0, 57, 0
2, 75091, Note_on_c, 0, 64, 0
2, 75095, Note_on_c, 0, 49, 60
2, 75113, Note_on_c, 0, 66, 74
2, 75119, Control_c, 0, 64, 32
2, 75132, Note_on_c, 0, 55, 47
2, 75143, Control_c, 0, 64, 29
2, 75158, Control_c, 0, 64, 26
2, 75174, Control_c, 0, 64, 24
2, 75189, Control_c, 0, 64, 23
2, 75190, Note_on_c, 0, 49, 0
2, 75197, Note_on_c, 0, 64, 70
2, 75198, Note_on_c, 0, 66, 0
2, 75204, Control_c, 0, 64, 21
2, 75208, Note_on_c, 0, 55, 0
2, 75225, Note_on_c, 0, 59, 66
2, 75234, Control_c, 0, 64, 20
2, 75243, Note_on_c, 0, 64, 0
2, 75247, Note_on_c, 0, 62, 67
2, 75265, Control_c, 0, 64, 18
2, 75295, Control_c, 0, 64, 17
2, 75311, Note_on_c, 0, 64, 75
2, 75314, Note_on_c, 0, 62, 0
2, 75317, Note_on_c, 0, 59, 0
2, 75325, Control_c, 0, 64, 15
2, 75340, Control_c, 0, 64, 13
2, 75352, Note_on_c, 0, 50, 60
2, 75357, Note_on_c, 0, 57, 57
2, 75357, Note_on_c, 0, 66, 81
2, 75360, Note_on_c, 0, 64, 0
2, 75393, Note_on_c, 0, 66, 0
2, 75416, Control_c, 0, 64, 15
2, 75461, Note_on_c, 0, 57, 0
2, 75471, Note_on_c, 0, 59, 60
2, 75507, Control_c, 0, 64, 13
2, 75524, Control_c, 0, 64, 0
2, 75574, Note_on_c, 0, 59, 0
2, 75589, Note_on_c, 0, 57, 65
2, 75595, Note_on_c, 0, 67, 86
2, 75642, Note_on_c, 0, 67, 0
2, 75691, Control_c, 0, 64, 10
2, 75699, Note_on_c, 0, 57, 0
2, 75715, Note_on_c, 0, 55, 69
2, 75720, Control_c, 0, 64, 13
2, 75769, Note_on_c, 0, 50, 0
2, 75816, Note_on_c, 0, 55, 0
2, 75827, Control_c, 0, 64, 15
2, 75831, Note_on_c, 0, 54, 67
2, 75834, Note_on_c, 0, 69, 93
2, 75843, Control_c, 0, 64, 17
2, 75858, Control_c, 0, 64, 20
2, 75873, Control_c, 0, 64, 24
2, 75885, Note_on_c, 0, 69, 0
2, 75889, Control_c, 0, 64, 27
2, 75910, Control_c, 0, 64, 28
2, 75926, Control_c, 0, 64, 29
2, 75936, Note_on_c, 0, 54, 0
2, 75941, Control_c, 0, 64, 30
2, 75956, Control_c, 0, 64, 31
2, 75956, Note_on_c, 0, 57, 77
2, 76018, Control_c, 0, 64, 30
2, 76032, Control_c, 0, 64, 29
2, 76067, Note_on_c, 0, 57, 0
2, 76075, Note_on_c, 0, 55, 76
2, 76083, Note_on_c, 0, 71, 89
2, 76093, Control_c, 0, 64, 30
2, 76128, Note_on_c, 0, 71, 0
2, 76174, Note_on_c, 0, 55, 0
2, 76179, Note_on_c, 0, 57, 72
2, 76184, Control_c, 0, 64, 31
2, 76289, Note_on_c, 0, 57, 0
2, 76290, Control_c, 0, 64, 30
2, 76296, Note_on_c, 0, 55, 75
2, 76305, Control_c, 0, 64, 29
2, 76308, Note_on_c, 0, 61, 89
2, 76336, Control_c, 0, 64, 29
2, 76352, Control_c, 0, 64, 28
2, 76368, Control_c, 0, 64, 27
2, 76383, Control_c, 0, 64, 26
2, 76399, Note_on_c, 0, 61, 0
2, 76406, Note_on_c, 0, 62, 73
2, 76412, Note_on_c, 0, 55, 0
2, 76413, Control_c, 0, 64, 25
2, 76421, Note_on_c, 0, 54, 63
2, 76444, Control_c, 0, 64, 24
2, 76460, Control_c, 0, 64, 23
2, 76474, Control_c, 0, 64, 20
2, 76483, Note_on_c, 0, 62, 0
2, 76490, Control_c, 0, 64, 17
2, 76494, Note_on_c, 0, 61, 74
2, 76505, Control_c, 0, 64, 15
2, 76518, Note_on_c, 0, 54, 0
2, 76520, Control_c, 0, 64, 13
2, 76532, Note_on_c, 0, 52, 61
2, 76535, Control_c, 0, 64, 10
2, 76541, Note_on_c, 0, 62, 69
2, 76543, Note_on_c, 0, 61, 0
2, 76550, Control_c, 0, 64, 0
2, 76617, Note_on_c, 0, 61, 63
2, 76624, Note_on_c, 0, 62, 0
2, 76631, Note_on_c, 0, 52, 0
2, 76642, Note_on_c, 0, 55, 62
2, 76650, Note_on_c, 0, 59, 69
2, 76665, Note_on_c, 0, 61, 0
2, 76752, Note_on_c, 0, 59, 0
2, 76757, Note_on_c, 0, 61, 65
2, 76767, Note_on_c, 0, 55, 0
2, 76778, Note_on_c, 0, 54, 68
2, 76799, Note_on_c, 0, 62, 81
2, 76823, Note_on_c, 0, 61, 0
2, 76846, Note_on_c, 0, 62, 0
2, 76891, Note_on_c, 0, 54, 0
2, 76901, Note_on_c, 0, 55, 65
2, 77016, Note_on_c, 0, 55, 0
2, 77019, Note_on_c, 0, 54, 71
2, 77020, Note_on_c, 0, 62, 75
2, 77131, Note_on_c, 0, 54, 0
2, 77132, Note_on_c, 0, 62, 0
2, 77140, Note_on_c, 0, 52, 68
2, 77142, Note_on_c, 0, 64, 72
2, 77237, Note_on_c, 0, 52, 0
2, 77256, Note_on_c, 0, 50, 65
2, 77258, Note_on_c, 0, 64, 0
2, 77261, Note_on_c, 0, 66, 82
2, 77349, Note_on_c, 0, 66, 0
2, 77380, Note_on_c, 0, 52, 67
2, 77387, Note_on_c, 0, 67, 81
2, 77407, Note_on_c, 0, 50, 0
2, 77424, Control_c, 0, 64, 10
2, 77477, Control_c, 0, 64, 0
2, 77504, Note_on_c, 0, 54, 72
2, 77506, Note_on_c, 0, 52, 0
2, 77508, Note_on_c, 0, 69, 84
2, 77518, Note_on_c, 0, 67, 0
2, 77538, Control_c, 0, 64, 10
2, 77577, Note_on_c, 0, 69, 0
2, 77621, Note_on_c, 0, 55, 76
2, 77625, Note_on_c, 0, 54, 0
2, 77645, Control_c, 0, 64, 13
2, 77674, Control_c, 0, 64, 15
2, 77738, Note_on_c, 0, 55, 0
2, 77739, Note_on_c, 0, 57, 73
2, 77748, Note_on_c, 0, 66, 85
2, 77767, Control_c, 0, 64, 17
2, 77796, Control_c, 0, 64, 18
2, 77830, Note_on_c, 0, 57, 0
2, 77855, Note_on_c, 0, 67, 83
2, 77860, Note_on_c, 0, 59, 77
2, 77864, Note_on_c, 0, 66, 0
2, 77958, Note_on_c, 0, 67, 0
2, 77968, Note_on_c, 0, 59, 0
2, 77971, Note_on_c, 0, 60, 76
2, 77978, Note_on_c, 0, 69, 90
2, 78040, Control_c, 0, 64, 20
2, 78046, Note_on_c, 0, 60, 0
2, 78064, Note_on_c, 0, 69, 0
2, 78076, Note_on_c, 0, 62, 78
2, 78090, Note_on_c, 0, 71, 85
2, 78101, Control_c, 0, 64, 21
2, 78147, Control_c, 0, 64, 23
2, 78188, Note_on_c, 0, 71, 0
2, 78199, Note_on_c, 0, 62, 0
2, 78233, Note_on_c, 0, 72, 96
2, 78237, Note_on_c, 0, 54, 79
2, 78244, Note_on_c, 0, 50, 78
2, 78246, Control_c, 0, 64, 24
2, 78261, Control_c, 0, 64, 25
2, 78279, Note_on_c, 0, 50, 0
2, 78279, Note_on_c, 0, 54, 0
2, 78322, Control_c, 0, 64, 24
2, 78337, Control_c, 0, 64, 23
2, 78382, Control_c, 0, 64, 24
2, 78397, Control_c, 0, 64, 25
2, 78490, Note_on_c, 0, 48, 80
2, 78497, Note_on_c, 0, 69, 79
2, 78503, Control_c, 0, 64, 26
2, 78580, Control_c, 0, 64, 25
2, 78592, Note_on_c, 0, 48, 0
2, 78599, Note_on_c, 0, 50, 83
2, 78654, Note_on_c, 0, 69, 0
2, 78671, Control_c, 0, 64, 24
2, 78716, Control_c, 0, 64, 23
2, 78727, Note_on_c, 0, 50, 0
2, 78727, Note_on_c, 0, 52, 82
2, 78731, Note_on_c, 0, 67, 79
2, 78734, Note_on_c, 0, 71, 77
2, 78772, Note_on_c, 0, 72, 0
2, 78796, Note_on_c, 0, 52, 0
2, 78839, Note_on_c, 0, 50, 83
2, 78900, Control_c, 0, 64, 21
2, 78915, Control_c, 0, 64, 18
2, 78930, Control_c, 0, 64, 17
2, 78945, Control_c, 0, 64, 15
2, 78951, Note_on_c, 0, 50, 0
2, 78960, Control_c, 0, 64, 10
2, 78965, Note_on_c, 0, 67, 0
2, 78974, Note_on_c, 0, 48, 81
2, 78982, Note_on_c, 0, 69, 88
2, 78998, Control_c, 0, 64, 0
2, 79023, Note_on_c, 0, 71, 0
2, 79048, Note_on_c, 0, 48, 0
2, 79231, Note_on_c, 0, 47, 68
2, 79233, Note_on_c, 0, 67, 77
2, 79310, Note_on_c, 0, 69, 0
2, 79343, Note_on_c, 0, 48, 75
2, 79346, Note_on_c, 0, 47, 0
2, 79463, Note_on_c, 0, 50, 75
2, 79465, Note_on_c, 0, 48, 0
2, 79472, Note_on_c, 0, 67, 0
2, 79480, Note_on_c, 0, 66, 76
2, 79581, Note_on_c, 0, 48, 82
2, 79582, Note_on_c, 0, 50, 0
2, 79673, Note_on_c, 0, 66, 0
2, 79700, Note_on_c, 0, 48, 0
2, 79706, Note_on_c, 0, 47, 78
2, 79713, Note_on_c, 0, 67, 72
2, 79775, Note_on_c, 0, 47, 0
2, 79819, Note_on_c, 0, 67, 0
2, 79843, Note_on_c, 0, 79, 75
2, 79977, Note_on_c, 0, 78, 75
2, 79979, Note_on_c, 0, 48, 65
2, 80014, Note_on_c, 0, 79, 0
2, 80031, Note_on_c, 0, 48, 0
2, 80088, Note_on_c, 0, 76, 73
2, 80139, Note_on_c, 0, 78, 0
2, 80213, Note_on_c, 0, 74, 76
2, 80218, Note_on_c, 0, 50, 76
2, 80220, Note_on_c, 0, 76, 0
2, 80270, Note_on_c, 0, 50, 0
2, 80311, Control_c, 0, 64, 13
2, 80326, Control_c, 0, 64, 18
2, 80326, Note_on_c, 0, 74, 0
2, 80326, Note_on_c, 0, 78, 80
2, 80342, Control_c, 0, 64, 23
2, 80357, Control_c, 0, 64, 24
2, 80372, Control_c, 0, 64, 25
2, 80433, Control_c, 0, 64, 26
2, 80450, Control_c, 0, 64, 28
2, 80461, Note_on_c, 0, 76, 81
2, 80464, Control_c, 0, 64, 29
2, 80470, Note_on_c, 0, 55, 74
2, 80475, Note_on_c, 0, 78, 0
2, 80479, Control_c, 0, 64, 31
2, 80495, Control_c, 0, 64, 32
2, 80496, Note_on_c, 0, 55, 0
2, 80548, Control_c, 0, 64, 32
2, 80574, Note_on_c, 0, 78, 83
2, 80579, Control_c, 0, 64, 33
2, 80579, Note_on_c, 0, 76, 0
2, 80594, Control_c, 0, 64, 34
2, 80610, Control_c, 0, 64, 35
2, 80669, Control_c, 0, 64, 34
2, 80684, Control_c, 0, 64, 34
2, 80713, Note_on_c, 0, 78, 0
2, 80717, Note_on_c, 0, 76, 67
2, 80730, Note_on_c, 0, 45, 74
2, 80745, Control_c, 0, 64, 33
2, 80760, Control_c, 0, 64, 32
2, 80776, Control_c, 0, 64, 32
2, 80791, Control_c, 0, 64, 30
2, 80806, Control_c, 0, 64, 29
2, 80822, Control_c, 0, 64, 28
2, 80839, Note_on_c, 0, 76, 0
2, 80844, Note_on_c, 0, 74, 67
2, 80852, Control_c, 0, 64, 27
2, 80867, Control_c, 0, 64, 26
2, 80882, Control_c, 0, 64, 25
2, 80898, Control_c, 0, 64, 24
2, 80913, Control_c, 0, 64, 23
2, 80929, Control_c, 0, 64, 20
2, 80947, Note_on_c, 0, 74, 0
2, 80951, Note_on_c, 0, 72, 70
2, 80958, Control_c, 0, 64, 18
2, 80974, Control_c, 0, 64, 17
2, 81003, Control_c, 0, 64, 15
2, 81019, Control_c, 0, 64, 13
2, 81034, Control_c, 0, 64, 0
2, 81059, Note_on_c, 0, 72, 0
2, 81070, Note_on_c, 0, 76, 74
2, 81201, Note_on_c, 0, 74, 71
2, 81202, Note_on_c, 0, 45, 0
2, 81210, Note_on_c, 0, 47, 78
2, 81222, Note_on_c, 0, 76, 0
2, 81253, Note_on_c, 0, 47, 0
2, 81333, Note_on_c, 0, 76, 78
2, 81335, Note_on_c, 0, 74, 0
2, 81452, Note_on_c, 0, 76, 0
2, 81453, Note_on_c, 0, 74, 75
2, 81460, Note_on_c, 0, 48, 82
2, 81515, Note_on_c, 0, 48, 0
2, 81572, Note_on_c, 0, 72, 80
2, 81574, Note_on_c, 0, 74, 0
2, 81665, Control_c, 0, 64, 13
2, 81680, Control_c, 0, 64, 17
2, 81682, Note_on_c, 0, 72, 0
2, 81687, Note_on_c, 0, 71, 75
2, 81695, Note_on_c, 0, 50, 85
2, 81696, Control_c, 0, 64, 18
2, 81711, Control_c, 0, 64, 21
2, 81742, Control_c, 0, 64, 23
2, 81748, Note_on_c, 0, 50, 0
2, 81794, Note_on_c, 0, 71, 0
2, 81802, Control_c, 0, 64, 25
2, 81805, Note_on_c, 0, 74, 72
2, 81818, Control_c, 0, 64, 28
2, 81832, Control_c, 0, 64, 29
2, 81846, Control_c, 0, 64, 30
2, 81922, Control_c, 0, 64, 31
2, 81932, Note_on_c, 0, 52, 89
2, 81936, Note_on_c, 0, 72, 77
2, 81937, Note_on_c, 0, 74, 0
2, 81953, Control_c, 0, 64, 32
2, 81969, Control_c, 0, 64, 32
2, 81977, Note_on_c, 0, 52, 0
2, 82069, Note_on_c, 0, 74, 69
2, 82075, Note_on_c, 0, 72, 0
2, 82099, Control_c, 0, 64, 32
2, 82114, Control_c, 0, 64, 31
2, 82130, Control_c, 0, 64, 30
2, 82145, Control_c, 0, 64, 29
2, 82159, Control_c, 0, 64, 29
2, 82182, Note_on_c, 0, 42, 81
2, 82195, Note_on_c, 0, 72, 74
2, 82196, Note_on_c, 0, 74, 0
2, 82205, Control_c, 0, 64, 28
2, 82221, Control_c, 0, 64, 26
2, 82235, Control_c, 0, 64, 25
2, 82251, Control_c, 0, 64, 23
2, 82266, Control_c, 0, 64, 21
2, 82281, Control_c, 0, 64, 18
2, 82296, Control_c, 0, 64, 17
2, 82299, Note_on_c, 0, 72, 0
2, 82307, Note_on_c, 0, 71, 67
2, 82311, Control_c, 0, 64, 15
2, 82326, Control_c, 0, 64, 13
2, 82372, Control_c, 0, 64, 10
2, 82402, Control_c, 0, 64, 0
2, 82415, Note_on_c, 0, 71, 0
2, 82423, Note_on_c, 0, 69, 67
2, 82534, Note_on_c, 0, 72, 74
2, 82542, Note_on_c, 0, 69, 0
2, 82658, Note_on_c, 0, 71, 76
2, 82667, Note_on_c, 0, 43, 78
2, 82668, Note_on_c, 0, 42, 0
2, 82690, Note_on_c, 0, 72, 0
2, 82762, Note_on_c, 0, 43, 0
2, 82762, Note_on_c, 0, 71, 0
2, 82770, Note_on_c, 0, 69, 77
2, 82772, Note_on_c, 0, 45, 78
2, 82883, Note_on_c, 0, 69, 0
2, 82887, Note_on_c, 0, 45, 0
2, 82895, Note_on_c, 0, 47, 83
2, 82898, Note_on_c, 0, 67, 70
2, 82999, Note_on_c, 0, 67, 0
2, 83007, Note_on_c, 0, 71, 71
2, 83127, Note_on_c, 0, 62, 82
2, 83132, Note_on_c, 0, 66, 76
2, 83146, Note_on_c, 0, 71, 0
2, 83233, Note_on_c, 0, 66, 0
2, 83235, Note_on_c, 0, 62, 0
2, 83245, Note_on_c, 0, 71, 68
2, 83370, Note_on_c, 0, 64, 72
2, 83372, Note_on_c, 0, 61, 81
2, 83375, Note_on_c, 0, 71, 0
2, 83457, Note_on_c, 0, 61, 0
2, 83460, Note_on_c, 0, 47, 0
2, 83478, Note_on_c, 0, 64, 0
2, 83486, Note_on_c, 0, 45, 57
2, 83491, Note_on_c, 0, 71, 74
2, 83587, Note_on_c, 0, 71, 0
2, 83599, Note_on_c, 0, 45, 0
2, 83620, Note_on_c, 0, 43, 63
2, 83632, Note_on_c, 0, 62, 68
2, 83707, Note_on_c, 0, 43, 0
2, 83729, Note_on_c, 0, 62, 0
2, 83736, Note_on_c, 0, 42, 59
2, 83752, Note_on_c, 0, 71, 58
2, 83825, Note_on_c, 0, 42, 0
2, 83853, Note_on_c, 0, 40, 61
2, 83872, Note_on_c, 0, 61, 68
2, 83877, Note_on_c, 0, 71, 0
2, 83956, Note_on_c, 0, 61, 0
2, 83967, Note_on_c, 0, 40, 0
2, 83977, Note_on_c, 0, 43, 68
2, 83994, Note_on_c, 0, 71, 71
2, 84095, Note_on_c, 0, 71, 0
2, 84096, Note_on_c, 0, 43, 0
2, 84101, Note_on_c, 0, 42, 73
2, 84118, Note_on_c, 0, 69, 70
2, 84189, Note_on_c, 0, 42, 0
2, 84205, Note_on_c, 0, 43, 74
2, 84205, Note_on_c, 0, 69, 0
2, 84230, Note_on_c, 0, 67, 63
2, 84324, Note_on_c, 0, 43, 0
2, 84324, Note_on_c, 0, 45, 81
2, 84350, Control_c, 0, 64, 10
2, 84364, Note_on_c, 0, 66, 67
2, 84365, Note_on_c, 0, 67, 0
2, 84373, Control_c, 0, 64, 13
2, 84388, Control_c, 0, 64, 15
2, 84459, Note_on_c, 0, 66, 0
2, 84465, Note_on_c, 0, 69, 72
2, 84525, Control_c, 0, 64, 13
2, 84556, Control_c, 0, 64, 10
2, 84572, Control_c, 0, 64, 0
2, 84588, Note_on_c, 0, 61, 82
2, 84590, Note_on_c, 0, 64, 76
2, 84609, Note_on_c, 0, 69, 0
2, 84694, Note_on_c, 0, 64, 0
2, 84701, Note_on_c, 0, 69, 84
2, 84711, Note_on_c, 0, 61, 0
2, 84823, Note_on_c, 0, 59, 80
2, 84827, Note_on_c, 0, 62, 76
2, 84827, Note_on_c, 0, 69, 0
2, 84887, Note_on_c, 0, 45, 0
2, 84908, Note_on_c, 0, 43, 56
2, 84911, Note_on_c, 0, 59, 0
2, 84930, Note_on_c, 0, 62, 0
2, 84944, Note_on_c, 0, 69, 77
2, 85014, Note_on_c, 0, 43, 0
2, 85039, Note_on_c, 0, 42, 53
2, 85063, Note_on_c, 0, 61, 74
2, 85072, Note_on_c, 0, 69, 0
2, 85146, Note_on_c, 0, 42, 0
2, 85167, Note_on_c, 0, 40, 59
2, 85177, Note_on_c, 0, 61, 0
2, 85192, Note_on_c, 0, 69, 74
2, 85262, Note_on_c, 0, 40, 0
2, 85278, Note_on_c, 0, 38, 61
2, 85298, Note_on_c, 0, 59, 73
2, 85314, Note_on_c, 0, 69, 0
2, 85388, Note_on_c, 0, 38, 0
2, 85391, Note_on_c, 0, 42, 63
2, 85408, Note_on_c, 0, 59, 0
2, 85416, Note_on_c, 0, 69, 78
2, 85509, Note_on_c, 0, 69, 0
2, 85519, Note_on_c, 0, 42, 0
2, 85523, Note_on_c, 0, 40, 75
2, 85526, Note_on_c, 0, 67, 73
2, 85627, Note_on_c, 0, 40, 0
2, 85633, Note_on_c, 0, 42, 75
2, 85640, Note_on_c, 0, 66, 70
2, 85642, Note_on_c, 0, 67, 0
2, 85758, Note_on_c, 0, 42, 0
2, 85758, Note_on_c, 0, 64, 60
2, 85759, Note_on_c, 0, 43, 74
2, 85765, Note_on_c, 0, 66, 0
2, 85862, Note_on_c, 0, 64, 0
2, 85873, Note_on_c, 0, 67, 68
2, 85989, Note_on_c, 0, 59, 82
2, 85993, Note_on_c, 0, 62, 79
2, 86018, Note_on_c, 0, 67, 0
2, 86109, Note_on_c, 0, 62, 0
2, 86109, Note_on_c, 0, 67, 78
2, 86110, Note_on_c, 0, 59, 0
2, 86236, Note_on_c, 0, 57, 77
2, 86239, Note_on_c, 0, 61, 76
2, 86240, Note_on_c, 0, 67, 0
2, 86317, Note_on_c, 0, 57, 0
2, 86347, Note_on_c, 0, 61, 0
2, 86348, Note_on_c, 0, 67, 77
2, 86352, Note_on_c, 0, 43, 0
2, 86363, Note_on_c, 0, 42, 58
2, 86466, Note_on_c, 0, 42, 0
2, 86476, Note_on_c, 0, 40, 61
2, 86479, Note_on_c, 0, 59, 69
2, 86493, Note_on_c, 0, 67, 0
2, 86552, Note_on_c, 0, 40, 0
2, 86580, Note_on_c, 0, 38, 58
2, 86581, Note_on_c, 0, 59, 0
2, 86597, Note_on_c, 0, 67, 67
2, 86691, Note_on_c, 0, 38, 0
2, 86703, Note_on_c, 0, 67, 0
2, 86709, Note_on_c, 0, 37, 59
2, 86720, Note_on_c, 0, 57, 67
2, 86797, Note_on_c, 0, 37, 0
2, 86802, Note_on_c, 0, 57, 0
2, 86822, Note_on_c, 0, 40, 64
2, 86825, Note_on_c, 0, 67, 70
2, 86889, Note_on_c, 0, 67, 0
2, 86935, Note_on_c, 0, 40, 0
2, 86956, Note_on_c, 0, 38, 60
2, 86959, Note_on_c, 0, 66, 63
2, 87058, Note_on_c, 0, 38, 0
2, 87058, Note_on_c, 0, 66, 0
2, 87072, Note_on_c, 0, 40, 59
2, 87076, Note_on_c, 0, 74, 64
2, 87171, Note_on_c, 0, 40, 0
2, 87181, Note_on_c, 0, 74, 0
2, 87189, Note_on_c, 0, 42, 58
2, 87195, Note_on_c, 0, 72, 70
2, 87279, Note_on_c, 0, 72, 0
2, 87299, Note_on_c, 0, 42, 0
2, 87305, Note_on_c, 0, 38, 52
2, 87309, Note_on_c, 0, 71, 70
2, 87397, Note_on_c, 0, 71, 0
2, 87415, Note_on_c, 0, 38, 0
2, 87433, Note_on_c, 0, 43, 53
2, 87433, Note_on_c, 0, 69, 64
2, 87512, Note_on_c, 0, 69, 0
2, 87529, Note_on_c, 0, 43, 0
2, 87538, Note_on_c, 0, 67, 61
2, 87565, Note_on_c, 0, 38, 47
2, 87657, Note_on_c, 0, 67, 0
2, 87664, Note_on_c, 0, 38, 0
2, 87664, Note_on_c, 0, 66, 63
2, 87676, Note_on_c, 0, 45, 56
2, 87769, Note_on_c, 0, 66, 0
2, 87771, Note_on_c, 0, 45, 0
2, 87781, Note_on_c, 0, 64, 63
2, 87791, Note_on_c, 0, 38, 58
2, 87898, Note_on_c, 0, 64, 0
2, 87901, Note_on_c, 0, 38, 0
2, 87902, Note_on_c, 0, 47, 62
2, 87903, Note_on_c, 0, 62, 63
2, 87988, Note_on_c, 0, 62, 0
2, 87996, Note_on_c, 0, 47, 0
2, 88015, Note_on_c, 0, 60, 64
2, 88024, Note_on_c, 0, 38, 63
2, 88112, Note_on_c, 0, 38, 0
2, 88114, Note_on_c, 0, 60, 0
2, 88131, Note_on_c, 0, 59, 67
2, 88139, Note_on_c, 0, 48, 64
2, 88224, Note_on_c, 0, 48, 0
2, 88237, Note_on_c, 0, 59, 0
2, 88247, Note_on_c, 0, 57, 71
2, 88248, Note_on_c, 0, 38, 66
2, 88337, Note_on_c, 0, 38, 0
2, 88351, Note_on_c, 0, 57, 0
2, 88366, Note_on_c, 0, 55, 73
2, 88369, Note_on_c, 0, 47, 77
2, 88380, Control_c, 0, 64, 17
2, 88395, Control_c, 0, 64, 24
2, 88409, Note_on_c, 0, 55, 0
2, 88411, Control_c, 0, 64, 29
2, 88426, Control_c, 0, 64, 31
2, 88456, Control_c, 0, 64, 32
2, 88464, Note_on_c, 0, 47, 0
2, 88471, Control_c, 0, 64, 32
2, 88483, Note_on_c, 0, 57, 69
2, 88494, Note_on_c, 0, 55, 80
2, 88547, Control_c, 0, 64, 33
2, 88552, Note_on_c, 0, 57, 0
2, 88592, Control_c, 0, 64, 34
2, 88593, Note_on_c, 0, 55, 0
2, 88605, Note_on_c, 0, 53, 77
2, 88609, Note_on_c, 0, 59, 69
2, 88655, Control_c, 0, 64, 34
2, 88696, Note_on_c, 0, 59, 0
2, 88720, Note_on_c, 0, 52, 82
2, 88724, Note_on_c, 0, 55, 67
2, 88726, Note_on_c, 0, 53, 0
2, 88807, Note_on_c, 0, 55, 0
2, 88822, Control_c, 0, 64, 34
2, 88838, Note_on_c, 0, 52, 0
2, 88848, Note_on_c, 0, 60, 72
2, 88855, Note_on_c, 0, 50, 81
2, 88938, Note_on_c, 0, 60, 0
2, 88952, Note_on_c, 0, 50, 0
2, 88958, Note_on_c, 0, 55, 64
2, 88972, Note_on_c, 0, 48, 77
2, 89072, Control_c, 0, 64, 33
2, 89089, Note_on_c, 0, 62, 76
2, 89092, Note_on_c, 0, 48, 0
2, 89095, Note_on_c, 0, 47, 78
2, 89095, Note_on_c, 0, 55, 0
2, 89118, Control_c, 0, 64, 32
2, 89202, Note_on_c, 0, 62, 0
2, 89204, Note_on_c, 0, 45, 75
2, 89207, Note_on_c, 0, 47, 0
2, 89213, Note_on_c, 0, 55, 68
2, 89270, Control_c, 0, 64, 32
2, 89279, Note_on_c, 0, 45, 0
2, 89300, Control_c, 0, 64, 31
2, 89314, Note_on_c, 0, 43, 74
2, 89332, Note_on_c, 0, 64, 71
2, 89336, Note_on_c, 0, 55, 0
2, 89345, Control_c, 0, 64, 30
2, 89360, Control_c, 0, 64, 29
2, 89407, Control_c, 0, 64, 30
2, 89419, Note_on_c, 0, 64, 0
2, 89426, Note_on_c, 0, 43, 0
2, 89436, Note_on_c, 0, 41, 76
2, 89453, Control_c, 0, 64, 31
2, 89453, Note_on_c, 0, 55, 73
2, 89484, Control_c, 0, 64, 32
2, 89499, Control_c, 0, 64, 32
2, 89544, Note_on_c, 0, 55, 0
2, 89553, Note_on_c, 0, 41, 0
2, 89559, Control_c, 0, 64, 32
2, 89560, Note_on_c, 0, 40, 76
2, 89573, Note_on_c, 0, 65, 72
2, 89590, Control_c, 0, 64, 31
2, 89634, Note_on_c, 0, 65, 0
2, 89665, Control_c, 0, 64, 32
2, 89665, Note_on_c, 0, 40, 0
2, 89677, Note_on_c, 0, 55, 60
2, 89680, Control_c, 0, 64, 32
2, 89680, Note_on_c, 0, 38, 70
2, 89696, Control_c, 0, 64, 33
2, 89711, Control_c, 0, 64, 34
2, 89760, Note_on_c, 0, 55, 0
2, 89765, Control_c, 0, 64, 34
2, 89785, Note_on_c, 0, 38, 0
2, 89807, Note_on_c, 0, 36, 65
2, 89811, Control_c, 0, 64, 34
2, 89826, Control_c, 0, 64, 33
2, 89837, Note_on_c, 0, 64, 39
2, 89871, Control_c, 0, 64, 32
2, 89886, Note_on_c, 0, 64, 0
2, 89887, Control_c, 0, 64, 32
2, 89922, Note_on_c, 0, 36, 0
2, 89929, Note_on_c, 0, 38, 60
2, 89933, Control_c, 0, 64, 31
2, 89955, Note_on_c, 0, 72, 57
2, 90034, Note_on_c, 0, 38, 0
2, 90036, Note_on_c, 0, 40, 69
2, 90054, Note_on_c, 0, 72, 0
2, 90060, Note_on_c, 0, 71, 68
2, 90085, Control_c, 0, 64, 32
2, 90143, Note_on_c, 0, 40, 0
2, 90160, Note_on_c, 0, 42, 64
2, 90166, Note_on_c, 0, 71, 0
2, 90168, Note_on_c, 0, 74, 71
2, 90176, Control_c, 0, 64, 32
2, 90190, Control_c, 0, 64, 33
2, 90221, Control_c, 0, 64, 34
2, 90252, Control_c, 0, 64, 34
2, 90265, Note_on_c, 0, 42, 0
2, 90268, Control_c, 0, 64, 35
2, 90271, Note_on_c, 0, 44, 69
2, 90284, Control_c, 0, 64, 36
2, 90288, Note_on_c, 0, 69, 75
2, 90298, Note_on_c, 0, 74, 0
2, 90313, Control_c, 0, 64, 36
2, 90323, Note_on_c, 0, 44, 0
2, 90359, Control_c, 0, 64, 37
2, 90382, Note_on_c, 0, 69, 0
2, 90386, Note_on_c, 0, 45, 66
2, 90402, Note_on_c, 0, 74, 70
2, 90406, Control_c, 0, 64, 36
2, 90522, Note_on_c, 0, 68, 78
2, 90529, Note_on_c, 0, 45, 0
2, 90530, Note_on_c, 0, 47, 75
2, 90530, Note_on_c, 0, 74, 0
2, 90534, Control_c, 0, 64, 37
2, 90631, Note_on_c, 0, 68, 0
2, 90634, Note_on_c, 0, 47, 0
2, 90639, Note_on_c, 0, 48, 70
2, 90639, Note_on_c, 0, 74, 71
2, 90640, Control_c, 0, 64, 36
2, 90687, Control_c, 0, 64, 37
2, 90733, Note_on_c, 0, 48, 0
2, 90747, Control_c, 0, 64, 37
2, 90747, Note_on_c, 0, 66, 82
2, 90758, Note_on_c, 0, 50, 65
2, 90763, Control_c, 0, 64, 38
2, 90775, Note_on_c, 0, 74, 0
2, 90778, Control_c, 0, 64, 38
2, 90833, Note_on_c, 0, 50, 0
2, 90858, Note_on_c, 0, 52, 66
2, 90863, Note_on_c, 0, 66, 0
2, 90867, Note_on_c, 0, 74, 76
2, 90868, Control_c, 0, 64, 39
2, 90971, Note_on_c, 0, 52, 0
2, 90979, Note_on_c, 0, 74, 0
2, 90981, Note_on_c, 0, 54, 68
2, 90988, Note_on_c, 0, 64, 74
2, 91005, Control_c, 0, 64, 39
2, 91079, Note_on_c, 0, 64, 0
2, 91104, Note_on_c, 0, 74, 73
2, 91106, Note_on_c, 0, 54, 0
2, 91107, Note_on_c, 0, 56, 59
2, 91173, Control_c, 0, 64, 39
2, 91208, Note_on_c, 0, 74, 0
2, 91214, Note_on_c, 0, 56, 0
2, 91226, Note_on_c, 0, 72, 69
2, 91230, Note_on_c, 0, 57, 61
2, 91233, Control_c, 0, 64, 38
2, 91313, Note_on_c, 0, 72, 0
2, 91329, Note_on_c, 0, 57, 0
2, 91342, Note_on_c, 0, 69, 74
2, 91353, Note_on_c, 0, 55, 60
2, 91409, Control_c, 0, 64, 38
2, 91441, Note_on_c, 0, 55, 0
2, 91455, Note_on_c, 0, 69, 0
2, 91455, Note_on_c, 0, 71, 75
2, 91457, Note_on_c, 0, 54, 66
2, 91554, Note_on_c, 0, 54, 0
2, 91555, Note_on_c, 0, 57, 73
2, 91559, Note_on_c, 0, 71, 0
2, 91563, Note_on_c, 0, 73, 76
2, 91676, Note_on_c, 0, 73, 0
2, 91679, Control_c, 0, 64, 38
2, 91680, Note_on_c, 0, 57, 0
2, 91680, Note_on_c, 0, 75, 76
2, 91683, Note_on_c, 0, 52, 78
2, 91725, Control_c, 0, 64, 38
2, 91742, Note_on_c, 0, 75, 0
2, 91760, Note_on_c, 0, 52, 0
2, 91788, Note_on_c, 0, 57, 81
2, 91788, Note_on_c, 0, 76, 75
2, 91862, Control_c, 0, 64, 37
2, 91873, Note_on_c, 0, 76, 0
2, 91899, Note_on_c, 0, 78, 87
2, 91915, Note_on_c, 0, 57, 0
2, 91921, Note_on_c, 0, 51, 78
2, 91923, Control_c, 0, 64, 38
2, 92012, Note_on_c, 0, 79, 82
2, 92014, Note_on_c, 0, 78, 0
2, 92016, Note_on_c, 0, 51, 0
2, 92021, Note_on_c, 0, 57, 75
2, 92038, Control_c, 0, 64, 37
2, 92054, Control_c, 0, 64, 37
2, 92068, Control_c, 0, 64, 36
2, 92099, Control_c, 0, 64, 36
2, 92129, Control_c, 0, 64, 35
2, 92134, Note_on_c, 0, 79, 0
2, 92141, Note_on_c, 0, 81, 92
2, 92143, Note_on_c, 0, 57, 0
2, 92152, Note_on_c, 0, 49, 76
2, 92220, Control_c, 0, 64, 36
2, 92221, Note_on_c, 0, 81, 0
2, 92234, Note_on_c, 0, 49, 0
2, 92250, Control_c, 0, 64, 36
2, 92250, Note_on_c, 0, 83, 85
2, 92251, Note_on_c, 0, 57, 79
2, 92280, Control_c, 0, 64, 37
2, 92326, Control_c, 0, 64, 37
2, 92333, Note_on_c, 0, 83, 0
2, 92342, Control_c, 0, 64, 38
2, 92348, Note_on_c, 0, 57, 0
2, 92356, Control_c, 0, 64, 38
2, 92356, Note_on_c, 0, 84, 85
2, 92362, Note_on_c, 0, 47, 77
2, 92372, Control_c, 0, 64, 39
2, 92387, Control_c, 0, 64, 39
2, 92418, Control_c, 0, 64, 39
2, 92421, Note_on_c, 0, 84, 0
2, 92445, Note_on_c, 0, 47, 0
2, 92473, Note_on_c, 0, 57, 76
2, 92474, Note_on_c, 0, 75, 84
2, 92478, Control_c, 0, 64, 39
2, 92494, Control_c, 0, 64, 40
2, 92532, Note_on_c, 0, 75, 0
2, 92539, Control_c, 0, 64, 39
2, 92541, Note_on_c, 0, 57, 0
2, 92554, Control_c, 0, 64, 39
2, 92570, Control_c, 0, 64, 38
2, 92598, Control_c, 0, 64, 38
2, 92602, Note_on_c, 0, 76, 91
2, 92605, Note_on_c, 0, 55, 92
2, 92614, Control_c, 0, 64, 37
2, 92629, Control_c, 0, 64, 36
2, 92641, Note_on_c, 0, 55, 0
2, 92644, Control_c, 0, 64, 32
2, 92660, Control_c, 0, 64, 29
2, 92674, Control_c, 0, 64, 25
2, 92690, Control_c, 0, 64, 23
2, 92705, Control_c, 0, 64, 21
2, 92727, Note_on_c, 0, 76, 0
2, 92737, Control_c, 0, 64, 23
2, 92851, Control_c, 0, 64, 21
2, 92865, Note_on_c, 0, 78, 88
2, 92872, Note_on_c, 0, 60, 82
2, 92881, Control_c, 0, 64, 20
2, 92896, Control_c, 0, 64, 18
2, 92911, Control_c, 0, 64, 17
2, 92918, Note_on_c, 0, 60, 0
2, 92942, Control_c, 0, 64, 15
2, 92971, Note_on_c, 0, 78, 0
2, 92978, Note_on_c, 0, 76, 84
2, 93002, Control_c, 0, 64, 17
2, 93033, Control_c, 0, 64, 18
2, 93075, Note_on_c, 0, 76, 0
2, 93105, Note_on_c, 0, 75, 89
2, 93109, Control_c, 0, 64, 21
2, 93112, Note_on_c, 0, 59, 81
2, 93124, Control_c, 0, 64, 23
2, 93140, Control_c, 0, 64, 24
2, 93154, Control_c, 0, 64, 25
2, 93163, Note_on_c, 0, 59, 0
2, 93170, Control_c, 0, 64, 26
2, 93185, Note_on_c, 0, 75, 0
2, 93213, Note_on_c, 0, 76, 90
2, 93216, Control_c, 0, 64, 27
2, 93245, Control_c, 0, 64, 28
2, 93276, Control_c, 0, 64, 29
2, 93306, Control_c, 0, 64, 29
2, 93337, Control_c, 0, 64, 30
2, 93341, Note_on_c, 0, 78, 94
2, 93352, Note_on_c, 0, 57, 76
2, 93353, Control_c, 0, 64, 32
2, 93361, Note_on_c, 0, 76, 0
2, 93367, Control_c, 0, 64, 32
2, 93383, Control_c, 0, 64, 34
2, 93393, Note_on_c, 0, 57, 0
2, 93398, Control_c, 0, 64, 35
2, 93414, Control_c, 0, 64, 36
2, 93429, Control_c, 0, 64, 37
2, 93431, Note_on_c, 0, 78, 0
2, 93443, Control_c, 0, 64, 38
2, 93459, Control_c, 0, 64, 39
2, 93474, Control_c, 0, 64, 40
2, 93489, Control_c, 0, 64, 40
2, 93613, Note_on_c, 0, 79, 92
2, 93628, Note_on_c, 0, 59, 73
2, 93634, Control_c, 0, 64, 41
2, 93650, Control_c, 0, 64, 42
2, 93665, Control_c, 0, 64, 42
2, 93673, Note_on_c, 0, 59, 0
2, 93723, Note_on_c, 0, 78, 90
2, 93726, Control_c, 0, 64, 42
2, 93756, Control_c, 0, 64, 41
2, 93760, Note_on_c, 0, 79, 0
2, 93772, Control_c, 0, 64, 41
2, 93787, Control_c, 0, 64, 40
2, 93802, Control_c, 0, 64, 40
2, 93832, Control_c, 0, 64, 39
2, 93838, Note_on_c, 0, 78, 0
2, 93842, Note_on_c, 0, 47, 66
2, 93843, Note_on_c, 0, 76, 89
2, 93878, Control_c, 0, 64, 39
2, 93908, Control_c, 0, 64, 38
2, 93908, Note_on_c, 0, 47, 0
2, 93938, Control_c, 0, 64, 38
2, 93950, Note_on_c, 0, 78, 90
2, 93961, Note_on_c, 0, 76, 0
2, 94038, Note_on_c, 0, 78, 0
2, 94060, Control_c, 0, 64, 38
2, 94075, Control_c, 0, 64, 39
2, 94081, Note_on_c, 0, 79, 97
2, 94090, Note_on_c, 0, 52, 63
2, 94091, Control_c, 0, 64, 40
2, 94106, Control_c, 0, 64, 40
2, 94136, Control_c, 0, 64, 41
2, 94139, Note_on_c, 0, 79, 0
2, 94151, Control_c, 0, 64, 41
2, 94197, Control_c, 0, 64, 42
2, 94197, Note_on_c, 0, 52, 0
2, 94201, Note_on_c, 0, 54, 66
2, 94212, Control_c, 0, 64, 42
2, 94272, Control_c, 0, 64, 42
2, 94330, Note_on_c, 0, 78, 96
2, 94342, Note_on_c, 0, 55, 66
2, 94351, Note_on_c, 0, 54, 0
2, 94372, Control_c, 0, 64, 41
2, 94395, Note_on_c, 0, 78, 0
2, 94420, Note_on_c, 0, 55, 0
2, 94447, Control_c, 0, 64, 42
2, 94465, Note_on_c, 0, 52, 60
2, 94509, Control_c, 0, 64, 41
2, 94524, Control_c, 0, 64, 41
2, 94540, Control_c, 0, 64, 40
2, 94575, Note_on_c, 0, 52, 0
2, 94580, Note_on_c, 0, 57, 70
2, 94583, Note_on_c, 0, 76, 90
2, 94616, Control_c, 0, 64, 41
2, 94630, Note_on_c, 0, 76, 0
2, 94631, Control_c, 0, 64, 41
2, 94661, Control_c, 0, 64, 42
2, 94676, Control_c, 0, 64, 42
2, 94678, Note_on_c, 0, 57, 0
2, 94692, Control_c, 0, 64, 43
2, 94696, Note_on_c, 0, 52, 75
2, 94706, Control_c, 0, 64, 43
2, 94818, Note_on_c, 0, 52, 0
2, 94821, Note_on_c, 0, 71, 89
2, 94823, Note_on_c, 0, 59, 74
2, 94843, Control_c, 0, 64, 44
2, 94882, Note_on_c, 0, 71, 0
2, 94904, Control_c, 0, 64, 44
2, 94910, Note_on_c, 0, 59, 0
2, 94935, Note_on_c, 0, 52, 73
2, 94949, Control_c, 0, 64, 45
2, 94964, Control_c, 0, 64, 45
2, 94995, Control_c, 0, 64, 46
2, 95071, Control_c, 0, 64, 45
2, 95073, Note_on_c, 0, 52, 0
2, 95075, Note_on_c, 0, 81, 92
2, 95081, Note_on_c, 0, 61, 65
2, 95086, Control_c, 0, 64, 45
2, 95108, Control_c, 0, 64, 44
2, 95123, Control_c, 0, 64, 43
2, 95139, Control_c, 0, 64, 42
2, 95154, Control_c, 0, 64, 42
2, 95170, Control_c, 0, 64, 41
2, 95186, Control_c, 0, 64, 40
2, 95188, Note_on_c, 0, 61, 0
2, 95200, Note_on_c, 0, 52, 72
2, 95201, Control_c, 0, 64, 39
2, 95216, Control_c, 0, 64, 38
2, 95231, Control_c, 0, 64, 37
2, 95246, Control_c, 0, 64, 37
2, 95262, Control_c, 0, 64, 36
2, 95323, Note_on_c, 0, 52, 0
2, 95335, Note_on_c, 0, 63, 78
2, 95398, Control_c, 0, 64, 36
2, 95420, Note_on_c, 0, 63, 0
2, 95429, Control_c, 0, 64, 35
2, 95438, Note_on_c, 0, 52, 76
2, 95460, Control_c, 0, 64, 34
2, 95514, Note_on_c, 0, 81, 0
2, 95520, Control_c, 0, 64, 36
2, 95534, Note_on_c, 0, 52, 0
2, 95536, Control_c, 0, 64, 37
2, 95550, Control_c, 0, 64, 38
2, 95565, Control_c, 0, 64, 39
2, 95566, Note_on_c, 0, 79, 91
2, 95580, Note_on_c, 0, 64, 66
2, 95581, Control_c, 0, 64, 40
2, 95596, Control_c, 0, 64, 41
2, 95612, Control_c, 0, 64, 41
2, 95626, Control_c, 0, 64, 42
2, 95638, Note_on_c, 0, 79, 0
2, 95641, Control_c, 0, 64, 42
2, 95657, Control_c, 0, 64, 43
2, 95672, Control_c, 0, 64, 44
2, 95674, Note_on_c, 0, 64, 0
2, 95692, Note_on_c, 0, 63, 66
2, 95702, Control_c, 0, 64, 44
2, 95747, Control_c, 0, 64, 43
2, 95762, Control_c, 0, 64, 43
2, 95778, Control_c, 0, 64, 42
2, 95805, Note_on_c, 0, 78, 93
2, 95812, Note_on_c, 0, 64, 74
2, 95813, Note_on_c, 0, 63, 0
2, 95870, Control_c, 0, 64, 42
2, 95882, Note_on_c, 0, 78, 0
2, 95926, Note_on_c, 0, 64, 0
2, 95934, Note_on_c, 0, 66, 79
2, 95953, Control_c, 0, 64, 41
2, 95967, Control_c, 0, 64, 41
2, 95983, Control_c, 0, 64, 40
2, 95998, Control_c, 0, 64, 38
2, 96015, Control_c, 0, 64, 37
2, 96030, Control_c, 0, 64, 35
2, 96045, Control_c, 0, 64, 34
2, 96046, Note_on_c, 0, 67, 74
2, 96055, Note_on_c, 0, 76, 88
2, 96058, Note_on_c, 0, 66, 0
2, 96060, Control_c, 0, 64, 33
2, 96098, Note_on_c, 0, 76, 0
2, 96106, Control_c, 0, 64, 34
2, 96121, Control_c, 0, 64, 34
2, 96123, Note_on_c, 0, 67, 0
2, 96136, Control_c, 0, 64, 35
2, 96151, Control_c, 0, 64, 36
2, 96157, Note_on_c, 0, 64, 75
2, 96166, Control_c, 0, 64, 36
2, 96182, Control_c, 0, 64, 37
2, 96196, Control_c, 0, 64, 37
2, 96212, Control_c, 0, 64, 38
2, 96242, Control_c, 0, 64, 38
2, 96273, Control_c, 0, 64, 39
2, 96273, Note_on_c, 0, 64, 0
2, 96282, Note_on_c, 0, 66, 77
2, 96284, Note_on_c, 0, 75, 91
2, 96289, Control_c, 0, 64, 39
2, 96304, Control_c, 0, 64, 40
2, 96319, Control_c, 0, 64, 40
2, 96334, Control_c, 0, 64, 41
2, 96364, Control_c, 0, 64, 41
2, 96364, Note_on_c, 0, 75, 0
2, 96380, Note_on_c, 0, 66, 0
2, 96392, Note_on_c, 0, 64, 74
2, 96410, Control_c, 0, 64, 40
2, 96424, Control_c, 0, 64, 40
2, 96439, Control_c, 0, 64, 38
2, 96455, Control_c, 0, 64, 37
2, 96469, Control_c, 0, 64, 36
2, 96484, Control_c, 0, 64, 35
2, 96500, Control_c, 0, 64, 34
2, 96515, Control_c, 0, 64, 34
2, 96524, Note_on_c, 0, 84, 97
2, 96526, Note_on_c, 0, 64, 0
2, 96526, Note_on_c, 0, 66, 74
2, 96576, Control_c, 0, 64, 33
2, 96606, Control_c, 0, 64, 32
2, 96622, Control_c, 0, 64, 32
2, 96637, Control_c, 0, 64, 31
2, 96639, Note_on_c, 0, 66, 0
2, 96647, Note_on_c, 0, 67, 66
2, 96660, Control_c, 0, 64, 29
2, 96674, Control_c, 0, 64, 28
2, 96690, Control_c, 0, 64, 27
2, 96705, Control_c, 0, 64, 26
2, 96742, Note_on_c, 0, 67, 0
2, 96751, Note_on_c, 0, 69, 75
2, 96781, Control_c, 0, 64, 27
2, 96842, Control_c, 0, 64, 26
2, 96861, Note_on_c, 0, 66, 80
2, 96861, Note_on_c, 0, 69, 0
2, 96873, Control_c, 0, 64, 25
2, 96889, Control_c, 0, 64, 24
2, 96903, Control_c, 0, 64, 23
2, 96918, Control_c, 0, 64, 20
2, 96934, Control_c, 0, 64, 18
2, 96985, Note_on_c, 0, 83, 86
2, 96985, Note_on_c, 0, 84, 0
2, 96990, Note_on_c, 0, 67, 82
2, 96994, Control_c, 0, 64, 20
2, 96994, Note_on_c, 0, 66, 0
2, 97010, Control_c, 0, 64, 21
2, 97025, Control_c, 0, 64, 23
2, 97056, Control_c, 0, 64, 24
2, 97059, Note_on_c, 0, 83, 0
2, 97069, Note_on_c, 0, 67, 0
2, 97071, Control_c, 0, 64, 26
2, 97101, Control_c, 0, 64, 27
2, 97192, Control_c, 0, 64, 28
2, 97223, Control_c, 0, 64, 29
2, 97244, Note_on_c, 0, 84, 83
2, 97256, Note_on_c, 0, 69, 73
2, 97268, Control_c, 0, 64, 29
2, 97329, Control_c, 0, 64, 29
2, 97355, Note_on_c, 0, 83, 81
2, 97357, Note_on_c, 0, 84, 0
2, 97358, Control_c, 0, 64, 29
2, 97360, Note_on_c, 0, 67, 76
2, 97362, Note_on_c, 0, 69, 0
2, 97413, Control_c, 0, 64, 30
2, 97458, Control_c, 0, 64, 31
2, 97482, Note_on_c, 0, 81, 82
2, 97486, Note_on_c, 0, 66, 79
2, 97486, Note_on_c, 0, 67, 0
2, 97504, Control_c, 0, 64, 32
2, 97514, Note_on_c, 0, 83, 0
2, 97564, Control_c, 0, 64, 31
2, 97576, Note_on_c, 0, 81, 0
2, 97587, Note_on_c, 0, 79, 83
2, 97588, Note_on_c, 0, 66, 0
2, 97592, Note_on_c, 0, 64, 75
2, 97594, Control_c, 0, 64, 30
2, 97692, Note_on_c, 0, 64, 0
2, 97720, Note_on_c, 0, 69, 89
2, 97724, Note_on_c, 0, 78, 83
2, 97725, Note_on_c, 0, 79, 0
2, 97747, Control_c, 0, 64, 31
2, 97797, Note_on_c, 0, 78, 0
2, 97823, Control_c, 0, 64, 32
2, 97838, Control_c, 0, 64, 32
2, 97854, Control_c, 0, 64, 33
2, 97884, Control_c, 0, 64, 34
2, 97973, Note_on_c, 0, 81, 79
2, 98085, Note_on_c, 0, 81, 0
2, 98089, Note_on_c, 0, 79, 81
2, 98215, Note_on_c, 0, 78, 84
2, 98245, Note_on_c, 0, 79, 0
2, 98322, Note_on_c, 0, 76, 82
2, 98324, Note_on_c, 0, 78, 0
2, 98348, Control_c, 0, 64, 33
2, 98443, Note_on_c, 0, 75, 90
2, 98454, Control_c, 0, 64, 34
2, 98454, Note_on_c, 0, 76, 0
2, 98487, Note_on_c, 0, 75, 0
2, 98515, Control_c, 0, 64, 34
2, 98531, Control_c, 0, 64, 35
2, 98539, Note_on_c, 0, 69, 0
2, 98560, Note_on_c, 0, 67, 66
2, 98606, Control_c, 0, 64, 34
2, 98622, Control_c, 0, 64, 34
2, 98673, Note_on_c, 0, 67, 0
2, 98685, Note_on_c, 0, 81, 89
2, 98689, Note_on_c, 0, 66, 69
2, 98738, Note_on_c, 0, 81, 0
2, 98789, Control_c, 0, 64, 34
2, 98798, Note_on_c, 0, 66, 0
2, 98803, Control_c, 0, 64, 35
2, 98804, Note_on_c, 0, 69, 72
2, 98849, Control_c, 0, 64, 34
2, 98895, Control_c, 0, 64, 34
2, 98923, Note_on_c, 0, 69, 0
2, 98926, Note_on_c, 0, 79, 89
2, 98930, Note_on_c, 0, 64, 72
2, 98948, Control_c, 0, 64, 34
2, 98993, Control_c, 0, 64, 35
2, 98998, Note_on_c, 0, 79, 0
2, 99009, Control_c, 0, 64, 36
2, 99010, Note_on_c, 0, 64, 0
2, 99024, Control_c, 0, 64, 36
2, 99039, Control_c, 0, 64, 37
2, 99047, Note_on_c, 0, 69, 77
2, 99054, Control_c, 0, 64, 38
2, 99069, Control_c, 0, 64, 39
2, 99175, Note_on_c, 0, 69, 0
2, 99184, Note_on_c, 0, 78, 90
2, 99185, Note_on_c, 0, 63, 76
2, 99205, Control_c, 0, 64, 39
2, 99221, Control_c, 0, 64, 40
2, 99236, Control_c, 0, 64, 40
2, 99265, Note_on_c, 0, 78, 0
2, 99291, Note_on_c, 0, 69, 74
2, 99295, Note_on_c, 0, 63, 0
2, 99298, Control_c, 0, 64, 40
2, 99358, Control_c, 0, 64, 39
2, 99426, Note_on_c, 0, 61, 75
2, 99427, Note_on_c, 0, 76, 85
2, 99428, Note_on_c, 0, 69, 0
2, 99496, Control_c, 0, 64, 39
2, 99509, Note_on_c, 0, 76, 0
2, 99526, Control_c, 0, 64, 38
2, 99534, Note_on_c, 0, 69, 77
2, 99537, Note_on_c, 0, 61, 0
2, 99542, Control_c, 0, 64, 38
2, 99572, Control_c, 0, 64, 37
2, 99658, Note_on_c, 0, 59, 71
2, 99662, Note_on_c, 0, 69, 0
2, 99669, Note_on_c, 0, 75, 87
2, 99678, Control_c, 0, 64, 38
2, 99758, Note_on_c, 0, 75, 0
2, 99774, Note_on_c, 0, 59, 0
2, 99786, Note_on_c, 0, 69, 82
2, 99792, Control_c, 0, 64, 37
2, 99807, Control_c, 0, 64, 36
2, 99822, Control_c, 0, 64, 35
2, 99837, Control_c, 0, 64, 34
2, 99853, Control_c, 0, 64, 33
2, 99868, Control_c, 0, 64, 32
2, 99883, Control_c, 0, 64, 31
2, 99886, Note_on_c, 0, 69, 0
2, 99898, Control_c, 0, 64, 30
2, 99914, Note_on_c, 0, 76, 92
2, 99915, Note_on_c, 0, 67, 88
2, 99929, Control_c, 0, 64, 29
2, 99974, Control_c, 0, 64, 30
2, 99984, Note_on_c, 0, 76, 0
2, 99989, Control_c, 0, 64, 31
2, 99996, Note_on_c, 0, 67, 0
2, 100004, Control_c, 0, 64, 32
2, 100019, Control_c, 0, 64, 32
2, 100034, Control_c, 0, 64, 33
2, 100171, Note_on_c, 0, 74, 83
2, 100172, Note_on_c, 0, 66, 83
2, 100243, Note_on_c, 0, 74, 0
2, 100290, Note_on_c, 0, 67, 79
2, 100293, Note_on_c, 0, 66, 0
2, 100401, Control_c, 0, 64, 34
2, 100407, Note_on_c, 0, 72, 89
2, 100409, Note_on_c, 0, 69, 86
2, 100412, Note_on_c, 0, 67, 0
2, 100431, Control_c, 0, 64, 34
2, 100446, Control_c, 0, 64, 35
2, 100468, Note_on_c, 0, 72, 0
2, 100508, Note_on_c, 0, 69, 0
2, 100515, Control_c, 0, 64, 34
2, 100529, Note_on_c, 0, 67, 84
2, 100560, Control_c, 0, 64, 35
2, 100650, Note_on_c, 0, 74, 86
2, 100658, Note_on_c, 0, 66, 91
2, 100663, Note_on_c, 0, 67, 0
2, 100712, Control_c, 0, 64, 36
2, 100718, Note_on_c, 0, 74, 0
2, 100727, Control_c, 0, 64, 36
2, 100739, Note_on_c, 0, 66, 0
2, 100743, Control_c, 0, 64, 37
2, 100758, Control_c, 0, 64, 37
2, 100789, Control_c, 0, 64, 38
2, 100850, Control_c, 0, 64, 37
2, 100900, Note_on_c, 0, 72, 85
2, 100905, Note_on_c, 0, 64, 71
2, 100942, Control_c, 0, 64, 38
2, 100969, Note_on_c, 0, 72, 0
2, 101012, Note_on_c, 0, 64, 0
2, 101013, Note_on_c, 0, 66, 83
2, 101033, Control_c, 0, 64, 38
2, 101047, Control_c, 0, 64, 38
2, 101134, Note_on_c, 0, 67, 82
2, 101136, Note_on_c, 0, 71, 82
2, 101146, Note_on_c, 0, 66, 0
2, 101166, Control_c, 0, 64, 38
2, 101177, Note_on_c, 0, 71, 0
2, 101212, Control_c, 0, 64, 39
2, 101241, Note_on_c, 0, 67, 0
2, 101251, Note_on_c, 0, 66, 90
2, 101281, Control_c, 0, 64, 38
2, 101370, Note_on_c, 0, 64, 77
2, 101370, Note_on_c, 0, 66, 0
2, 101380, Note_on_c, 0, 72, 79
2, 101387, Control_c, 0, 64, 39
2, 101418, Control_c, 0, 64, 39
2, 101447, Note_on_c, 0, 64, 0
2, 101476, Note_on_c, 0, 72, 0
2, 101497, Note_on_c, 0, 84, 81
2, 101585, Control_c, 0, 64, 39
2, 101616, Control_c, 0, 64, 38
2, 101623, Note_on_c, 0, 83, 78
2, 101625, Note_on_c, 0, 84, 0
2, 101627, Note_on_c, 0, 66, 72
2, 101691, Note_on_c, 0, 66, 0
2, 101721, Control_c, 0, 64, 39
2, 101733, Note_on_c, 0, 81, 79
2, 101746, Note_on_c, 0, 83, 0
2, 101825, Note_on_c, 0, 81, 0
2, 101844, Control_c, 0, 64, 39
2, 101860, Control_c, 0, 64, 40
2, 101863, Note_on_c, 0, 67, 77
2, 101863, Note_on_c, 0, 79, 80
2, 101875, Control_c, 0, 64, 41
2, 101889, Control_c, 0, 64, 42
2, 101905, Control_c, 0, 64, 42
2, 101907, Note_on_c, 0, 67, 0
2, 101970, Note_on_c, 0, 83, 77
2, 101981, Control_c, 0, 64, 43
2, 101982, Note_on_c, 0, 79, 0
2, 102064, Note_on_c, 0, 83, 0
2, 102079, Control_c, 0, 64, 43
2, 102094, Control_c, 0, 64, 44
2, 102104, Note_on_c, 0, 81, 80
2, 102110, Control_c, 0, 64, 44
2, 102119, Note_on_c, 0, 72, 82
2, 102153, Note_on_c, 0, 72, 0
2, 102217, Note_on_c, 0, 83, 77
2, 102221, Note_on_c, 0, 81, 0
2, 102231, Control_c, 0, 64, 45
2, 102246, Control_c, 0, 64, 45
2, 102307, Control_c, 0, 64, 45
2, 102322, Control_c, 0, 64, 44
2, 102349, Note_on_c, 0, 63, 78
2, 102357, Note_on_c, 0, 81, 77
2, 102378, Note_on_c, 0, 83, 0
2, 102383, Control_c, 0, 64, 44
2, 102462, Note_on_c, 0, 81, 0
2, 102474, Control_c, 0, 64, 43
2, 102486, Note_on_c, 0, 79, 67
2, 102536, Control_c, 0, 64, 43
2, 102551, Control_c, 0, 64, 42
2, 102582, Control_c, 0, 64, 41
2, 102596, Control_c, 0, 64, 41
2, 102604, Note_on_c, 0, 79, 0
2, 102611, Control_c, 0, 64, 40
2, 102614, Note_on_c, 0, 78, 76
2, 102627, Control_c, 0, 64, 39
2, 102642, Control_c, 0, 64, 39
2, 102658, Control_c, 0, 64, 38
2, 102673, Control_c, 0, 64, 38
2, 102703, Control_c, 0, 64, 37
2, 102709, Note_on_c, 0, 78, 0
2, 102718, Control_c, 0, 64, 37
2, 102725, Note_on_c, 0, 81, 77
2, 102749, Control_c, 0, 64, 36
2, 102801, Control_c, 0, 64, 37
2, 102819, Note_on_c, 0, 81, 0
2, 102820, Note_on_c, 0, 63, 0
2, 102832, Control_c, 0, 64, 37
2, 102853, Note_on_c, 0, 64, 75
2, 102857, Note_on_c, 0, 79, 81
2, 102863, Control_c, 0, 64, 38
2, 102893, Control_c, 0, 64, 38
2, 102904, Note_on_c, 0, 64, 0
2, 102939, Control_c, 0, 64, 39
2, 102970, Note_on_c, 0, 79, 0
2, 102972, Note_on_c, 0, 81, 84
2, 102985, Control_c, 0, 64, 39
2, 103079, Note_on_c, 0, 81, 0
2, 103086, Note_on_c, 0, 79, 75
2, 103093, Note_on_c, 0, 66, 84
2, 103158, Note_on_c, 0, 66, 0
2, 103182, Control_c, 0, 64, 40
2, 103199, Note_on_c, 0, 79, 0
2, 103204, Note_on_c, 0, 78, 78
2, 103303, Control_c, 0, 64, 40
2, 103309, Note_on_c, 0, 78, 0
2, 103318, Control_c, 0, 64, 41
2, 103323, Note_on_c, 0, 76, 71
2, 103330, Note_on_c, 0, 67, 88
2, 103333, Control_c, 0, 64, 41
2, 103349, Control_c, 0, 64, 42
2, 103364, Control_c, 0, 64, 42
2, 103388, Note_on_c, 0, 67, 0
2, 103395, Control_c, 0, 64, 43
2, 103410, Control_c, 0, 64, 43
2, 103425, Control_c, 0, 64, 44
2, 103435, Note_on_c, 0, 79, 76
2, 103440, Control_c, 0, 64, 45
2, 103442, Note_on_c, 0, 76, 0
2, 103456, Control_c, 0, 64, 46
2, 103471, Control_c, 0, 64, 47
2, 103502, Control_c, 0, 64, 47
2, 103548, Control_c, 0, 64, 48
2, 103569, Control_c, 0, 64, 48
2, 103572, Note_on_c, 0, 69, 86
2, 103573, Note_on_c, 0, 78, 74
2, 103586, Note_on_c, 0, 79, 0
2, 103614, Note_on_c, 0, 69, 0
2, 103680, Note_on_c, 0, 78, 0
2, 103682, Note_on_c, 0, 79, 71
2, 103691, Control_c, 0, 64, 49
2, 103767, Control_c, 0, 64, 48
2, 103801, Note_on_c, 0, 78, 74
2, 103804, Note_on_c, 0, 79, 0
2, 103817, Note_on_c, 0, 59, 83
2, 103888, Control_c, 0, 64, 47
2, 103904, Control_c, 0, 64, 47
2, 103907, Note_on_c, 0, 78, 0
2, 103919, Control_c, 0, 64, 46
2, 103923, Note_on_c, 0, 76, 68
2, 103934, Control_c, 0, 64, 46
2, 103964, Control_c, 0, 64, 45
2, 104040, Control_c, 0, 64, 45
2, 104042, Note_on_c, 0, 76, 0
2, 104051, Note_on_c, 0, 75, 72
2, 104071, Control_c, 0, 64, 44
2, 104101, Control_c, 0, 64, 44
2, 104116, Control_c, 0, 64, 43
2, 104163, Note_on_c, 0, 78, 82
2, 104175, Note_on_c, 0, 75, 0
2, 104208, Control_c, 0, 64, 44
2, 104278, Note_on_c, 0, 78, 0
2, 104284, Note_on_c, 0, 76, 86
2, 104288, Note_on_c, 0, 59, 0
2, 104300, Note_on_c, 0, 60, 72
2, 104315, Control_c, 0, 64, 43
2, 104394, Note_on_c, 0, 60, 0
2, 104409, Note_on_c, 0, 59, 73
2, 104444, Control_c, 0, 64, 44
2, 104505, Control_c, 0, 64, 44
2, 104512, Note_on_c, 0, 59, 0
2, 104530, Note_on_c, 0, 57, 66
2, 104534, Note_on_c, 0, 78, 83
2, 104550, Note_on_c, 0, 76, 0
2, 104636, Note_on_c, 0, 59, 67
2, 104639, Note_on_c, 0, 57, 0
2, 104640, Note_on_c, 0, 78, 0
2, 104653, Note_on_c, 0, 79, 88
2, 104673, Control_c, 0, 64, 44
2, 104703, Control_c, 0, 64, 43
2, 104718, Control_c, 0, 64, 43
2, 104738, Note_on_c, 0, 79, 0
2, 104748, Control_c, 0, 64, 42
2, 104761, Note_on_c, 0, 59, 0
2, 104764, Note_on_c, 0, 60, 72
2, 104770, Note_on_c, 0, 81, 89
2, 104881, Note_on_c, 0, 60, 0
2, 104885, Note_on_c, 0, 62, 73
2, 104900, Control_c, 0, 64, 43
2, 104915, Control_c, 0, 64, 43
2, 104945, Control_c, 0, 64, 44
2, 104978, Note_on_c, 0, 62, 0
2, 104992, Note_on_c, 0, 64, 67
2, 105023, Control_c, 0, 64, 44
2, 105037, Control_c, 0, 64, 45
2, 105052, Control_c, 0, 64, 45
2, 105104, Note_on_c, 0, 64, 0
2, 105107, Note_on_c, 0, 63, 74
2, 105182, Control_c, 0, 64, 46
2, 105189, Note_on_c, 0, 81, 0
2, 105197, Control_c, 0, 64, 46
2, 105212, Control_c, 0, 64, 47
2, 105226, Note_on_c, 0, 63, 0
2, 105228, Note_on_c, 0, 64, 70
2, 105235, Note_on_c, 0, 79, 86
2, 105273, Control_c, 0, 64, 47
2, 105320, Note_on_c, 0, 64, 0
2, 105320, Note_on_c, 0, 79, 0
2, 105333, Control_c, 0, 64, 48
2, 105335, Note_on_c, 0, 81, 85
2, 105345, Note_on_c, 0, 66, 75
2, 105364, Control_c, 0, 64, 48
2, 105425, Control_c, 0, 64, 49
2, 105440, Control_c, 0, 64, 50
2, 105449, Note_on_c, 0, 66, 0
2, 105452, Note_on_c, 0, 67, 74
2, 105453, Note_on_c, 0, 83, 90
2, 105455, Control_c, 0, 64, 50
2, 105455, Note_on_c, 0, 81, 0
2, 105471, Control_c, 0, 64, 51
2, 105485, Control_c, 0, 64, 52
2, 105516, Control_c, 0, 64, 52
2, 105544, Note_on_c, 0, 67, 0
2, 105550, Note_on_c, 0, 69, 80
2, 105562, Control_c, 0, 64, 53
2, 105571, Note_on_c, 0, 69, 0
2, 105652, Control_c, 0, 64, 52
2, 105681, Note_on_c, 0, 71, 87
2, 105713, Control_c, 0, 64, 52
2, 105728, Control_c, 0, 64, 51
2, 105743, Note_on_c, 0, 83, 0
2, 105744, Control_c, 0, 64, 51
2, 105759, Control_c, 0, 64, 49
2, 105773, Control_c, 0, 64, 49
2, 105789, Control_c, 0, 64, 48
2, 105797, Note_on_c, 0, 47, 62
2, 105804, Control_c, 0, 64, 47
2, 105859, Control_c, 0, 64, 47
2, 105874, Control_c, 0, 64, 46
2, 105874, Note_on_c, 0, 49, 69
2, 105877, Note_on_c, 0, 47, 0
2, 105905, Control_c, 0, 64, 45
2, 105920, Control_c, 0, 64, 44
2, 105930, Note_on_c, 0, 81, 94
2, 105935, Control_c, 0, 64, 43
2, 105945, Note_on_c, 0, 49, 0
2, 105949, Note_on_c, 0, 51, 67
2, 105951, Control_c, 0, 64, 42
2, 105981, Control_c, 0, 64, 42
2, 106014, Note_on_c, 0, 81, 0
2, 106026, Control_c, 0, 64, 42
2, 106035, Note_on_c, 0, 51, 0
2, 106039, Note_on_c, 0, 47, 67
2, 106041, Control_c, 0, 64, 43
2, 106057, Control_c, 0, 64, 43
2, 106146, Note_on_c, 0, 47, 0
2, 106147, Control_c, 0, 64, 44
2, 106155, Note_on_c, 0, 52, 72
2, 106161, Note_on_c, 0, 79, 89
2, 106162, Control_c, 0, 64, 44
2, 106193, Control_c, 0, 64, 45
2, 106223, Control_c, 0, 64, 46
2, 106224, Note_on_c, 0, 52, 0
2, 106233, Note_on_c, 0, 71, 0
2, 106238, Control_c, 0, 64, 47
2, 106253, Control_c, 0, 64, 47
2, 106266, Note_on_c, 0, 47, 68
2, 106266, Note_on_c, 0, 79, 0
2, 106269, Control_c, 0, 64, 49
2, 106284, Control_c, 0, 64, 50
2, 106299, Control_c, 0, 64, 52
2, 106314, Control_c, 0, 64, 53
2, 106329, Control_c, 0, 64, 54
2, 106380, Note_on_c, 0, 47, 0
2, 106384, Note_on_c, 0, 54, 64
2, 106395, Note_on_c, 0, 78, 89
2, 106421, Control_c, 0, 64, 53
2, 106436, Control_c, 0, 64, 51
2, 106451, Control_c, 0, 64, 45
2, 106461, Note_on_c, 0, 78, 0
2, 106467, Control_c, 0, 64, 32
2, 106482, Control_c, 0, 64, 0
2, 106491, Note_on_c, 0, 54, 0
2, 106504, Note_on_c, 0, 47, 67
2, 106511, Note_on_c, 0, 79, 91
2, 106527, Control_c, 0, 64, 15
2, 106543, Control_c, 0, 64, 42
2, 106557, Control_c, 0, 64, 53
2, 106572, Control_c, 0, 64, 58
2, 106585, Note_on_c, 0, 79, 0
2, 106588, Control_c, 0, 64, 61
2, 106603, Control_c, 0, 64, 62
2, 106626, Control_c, 0, 64, 64
2, 106626, Note_on_c, 0, 47, 0
2, 106633, Note_on_c, 0, 81, 84
2, 106636, Note_on_c, 0, 72, 73
2, 106639, Note_on_c, 0, 55, 62
2, 106641, Control_c, 0, 64, 64
2, 106657, Control_c, 0, 64, 65
2, 106663, Note_on_c, 0, 72, 0
2, 106687, Control_c, 0, 64, 64
2, 106688, Note_on_c, 0, 81, 0
2, 106703, Control_c, 0, 64, 64
2, 106718, Control_c, 0, 64, 62
2, 106720, Note_on_c, 0, 55, 0
2, 106733, Control_c, 0, 64, 61
2, 106748, Note_on_c, 0, 47, 70
2, 106749, Control_c, 0, 64, 58
2, 106763, Control_c, 0, 64, 55
2, 106779, Control_c, 0, 64, 52
2, 106794, Control_c, 0, 64, 47
2, 106809, Control_c, 0, 64, 40
2, 106825, Control_c, 0, 64, 32
2, 106840, Control_c, 0, 64, 20
2, 106845, Note_on_c, 0, 47, 0
2, 106854, Control_c, 0, 64, 0
2, 106862, Note_on_c, 0, 57, 68
2, 106865, Note_on_c, 0, 75, 80
2, 106917, Note_on_c, 0, 66, 44
2, 106967, Note_on_c, 0, 57, 0
2, 106970, Note_on_c, 0, 47, 66
2, 107014, Note_on_c, 0, 66, 0
2, 107018, Note_on_c, 0, 75, 0
2, 107060, Note_on_c, 0, 47, 0
2, 107082, Control_c, 0, 64, 15
2, 107090, Note_on_c, 0, 55, 60
2, 107095, Note_on_c, 0, 76, 80
2, 107098, Control_c, 0, 64, 20
2, 107105, Note_on_c, 0, 64, 68
2, 107113, Control_c, 0, 64, 24
2, 107128, Control_c, 0, 64, 29
2, 107141, Note_on_c, 0, 64, 0
2, 107143, Control_c, 0, 64, 32
2, 107158, Control_c, 0, 64, 34
2, 107173, Control_c, 0, 64, 35
2, 107180, Note_on_c, 0, 55, 0
2, 107189, Control_c, 0, 64, 36
2, 107192, Note_on_c, 0, 54, 63
2, 107204, Control_c, 0, 64, 38
2, 107204, Note_on_c, 0, 66, 82
2, 107220, Control_c, 0, 64, 40
2, 107235, Control_c, 0, 64, 42
2, 107249, Control_c, 0, 64, 44
2, 107265, Control_c, 0, 64, 45
2, 107280, Control_c, 0, 64, 46
2, 107292, Note_on_c, 0, 54, 0
2, 107295, Control_c, 0, 64, 47
2, 107311, Control_c, 0, 64, 48
2, 107318, Note_on_c, 0, 52, 56
2, 107320, Note_on_c, 0, 76, 0
2, 107326, Control_c, 0, 64, 48
2, 107330, Note_on_c, 0, 66, 0
2, 107337, Note_on_c, 0, 67, 75
2, 107399, Note_on_c, 0, 52, 0
2, 107408, Control_c, 0, 64, 49
2, 107439, Note_on_c, 0, 55, 60
2, 107531, Control_c, 0, 64, 48
2, 107550, Note_on_c, 0, 55, 0
2, 107562, Control_c, 0, 64, 48
2, 107568, Note_on_c, 0, 50, 57
2, 107577, Control_c, 0, 64, 47
2, 107589, Note_on_c, 0, 71, 70
2, 107592, Control_c, 0, 64, 47
2, 107607, Control_c, 0, 64, 46
2, 107623, Control_c, 0, 64, 44
2, 107653, Control_c, 0, 64, 44
2, 107657, Note_on_c, 0, 50, 0
2, 107669, Control_c, 0, 64, 43
2, 107671, Note_on_c, 0, 71, 0
2, 107678, Note_on_c, 0, 55, 60
2, 107684, Control_c, 0, 64, 43
2, 107699, Control_c, 0, 64, 42
2, 107714, Control_c, 0, 64, 42
2, 107745, Control_c, 0, 64, 41
2, 107774, Control_c, 0, 64, 41
2, 107795, Note_on_c, 0, 55, 0
2, 107809, Note_on_c, 0, 69, 72
2, 107811, Note_on_c, 0, 49, 56
2, 107819, Note_on_c, 0, 67, 0
2, 107907, Note_on_c, 0, 49, 0
2, 107911, Control_c, 0, 64, 40
2, 107926, Note_on_c, 0, 55, 62
2, 107929, Note_on_c, 0, 66, 64
2, 107942, Control_c, 0, 64, 40
2, 107956, Control_c, 0, 64, 39
2, 107971, Control_c, 0, 64, 39
2, 108002, Control_c, 0, 64, 38
2, 108018, Control_c, 0, 64, 38
2, 108041, Note_on_c, 0, 55, 0
2, 108044, Note_on_c, 0, 64, 66
2, 108045, Note_on_c, 0, 66, 0
2, 108047, Control_c, 0, 64, 37
2, 108062, Note_on_c, 0, 47, 54
2, 108063, Control_c, 0, 64, 37
2, 108140, Note_on_c, 0, 64, 0
2, 108143, Note_on_c, 0, 47, 0
2, 108156, Note_on_c, 0, 62, 65
2, 108177, Note_on_c, 0, 55, 63
2, 108207, Control_c, 0, 64, 37
2, 108287, Note_on_c, 0, 62, 0
2, 108292, Note_on_c, 0, 55, 0
2, 108292, Note_on_c, 0, 61, 72
2, 108300, Note_on_c, 0, 45, 62
2, 108315, Control_c, 0, 64, 38
2, 108330, Control_c, 0, 64, 38
2, 108345, Control_c, 0, 64, 39
2, 108360, Control_c, 0, 64, 41
2, 108375, Control_c, 0, 64, 42
2, 108391, Control_c, 0, 64, 43
2, 108393, Note_on_c, 0, 45, 0
2, 108399, Note_on_c, 0, 61, 0
2, 108404, Note_on_c, 0, 64, 77
2, 108406, Control_c, 0, 64, 44
2, 108411, Note_on_c, 0, 69, 0
2, 108421, Control_c, 0, 64, 45
2, 108421, Note_on_c, 0, 55, 59
2, 108436, Control_c, 0, 64, 45
2, 108467, Control_c, 0, 64, 46
2, 108482, Control_c, 0, 64, 46
2, 108509, Note_on_c, 0, 64, 0
2, 108511, Note_on_c, 0, 55, 0
2, 108513, Control_c, 0, 64, 47
2, 108518, Note_on_c, 0, 62, 83
2, 108519, Note_on_c, 0, 54, 66
2, 108543, Control_c, 0, 64, 47
2, 108558, Control_c, 0, 64, 48
2, 108631, Note_on_c, 0, 54, 0
2, 108631, Note_on_c, 0, 64, 79
2, 108638, Note_on_c, 0, 52, 70
2, 108646, Note_on_c, 0, 62, 0
2, 108649, Control_c, 0, 64, 49
2, 108710, Control_c, 0, 64, 49
2, 108725, Control_c, 0, 64, 50
2, 108733, Note_on_c, 0, 52, 0
2, 108741, Control_c, 0, 64, 51
2, 108753, Note_on_c, 0, 50, 65
2, 108755, Control_c, 0, 64, 51
2, 108766, Note_on_c, 0, 66, 70
2, 108768, Note_on_c, 0, 64, 0
2, 108770, Control_c, 0, 64, 52
2, 108786, Control_c, 0, 64, 53
2, 108828, Note_on_c, 0, 50, 0
2, 108846, Control_c, 0, 64, 53
2, 108875, Note_on_c, 0, 54, 62
2, 108891, Control_c, 0, 64, 53
2, 108960, Control_c, 0, 64, 52
2, 108975, Control_c, 0, 64, 52
2, 108997, Note_on_c, 0, 54, 0
2, 109006, Control_c, 0, 64, 51
2, 109010, Note_on_c, 0, 69, 72
2, 109017, Note_on_c, 0, 49, 58
2, 109021, Control_c, 0, 64, 50
2, 109036, Control_c, 0, 64, 50
2, 109051, Control_c, 0, 64, 49
2, 109067, Control_c, 0, 64, 48
2, 109082, Control_c, 0, 64, 47
2, 109097, Control_c, 0, 64, 46
2, 109106, Note_on_c, 0, 49, 0
2, 109113, Control_c, 0, 64, 46
2, 109115, Note_on_c, 0, 54, 60
2, 109128, Control_c, 0, 64, 45
2, 109130, Note_on_c, 0, 69, 0
2, 109144, Control_c, 0, 64, 45
2, 109154, Note_on_c, 0, 66, 0
2, 109174, Control_c, 0, 64, 44
2, 109231, Note_on_c, 0, 54, 0
2, 109235, Control_c, 0, 64, 44
2, 109238, Note_on_c, 0, 67, 69
2, 109249, Control_c, 0, 64, 43
2, 109251, Note_on_c, 0, 47, 58
2, 109265, Control_c, 0, 64, 43
2, 109280, Control_c, 0, 64, 42
2, 109332, Note_on_c, 0, 47, 0
2, 109362, Note_on_c, 0, 54, 54
2, 109363, Note_on_c, 0, 64, 63
2, 109387, Control_c, 0, 64, 42
2, 109402, Control_c, 0, 64, 41
2, 109449, Note_on_c, 0, 64, 0
2, 109463, Control_c, 0, 64, 42
2, 109470, Note_on_c, 0, 62, 65
2, 109478, Note_on_c, 0, 54, 0
2, 109479, Note_on_c, 0, 45, 54
2, 109546, Note_on_c, 0, 62, 0
2, 109561, Note_on_c, 0, 45, 0
2, 109588, Note_on_c, 0, 61, 66
2, 109601, Note_on_c, 0, 54, 57
2, 109659, Control_c, 0, 64, 42
2, 109699, Control_c, 0, 64, 43
2, 109710, Note_on_c, 0, 54, 0
2, 109712, Note_on_c, 0, 59, 74
2, 109714, Control_c, 0, 64, 44
2, 109716, Note_on_c, 0, 61, 0
2, 109723, Note_on_c, 0, 43, 63
2, 109728, Control_c, 0, 64, 44
2, 109759, Control_c, 0, 64, 45
2, 109775, Control_c, 0, 64, 46
2, 109790, Control_c, 0, 64, 47
2, 109804, Control_c, 0, 64, 48
2, 109805, Note_on_c, 0, 43, 0
2, 109820, Control_c, 0, 64, 48
2, 109829, Note_on_c, 0, 54, 62
2, 109833, Note_on_c, 0, 59, 0
2, 109833, Note_on_c, 0, 62, 74
2, 109835, Control_c, 0, 64, 49
2, 109866, Control_c, 0, 64, 49
2, 109872, Note_on_c, 0, 54, 0
2, 109881, Control_c, 0, 64, 50
2, 109946, Note_on_c, 0, 52, 63
2, 109956, Note_on_c, 0, 61, 76
2, 109967, Note_on_c, 0, 62, 0
2, 109973, Control_c, 0, 64, 49
2, 110024, Note_on_c, 0, 67, 0
2, 110053, Note_on_c, 0, 52, 0
2, 110065, Control_c, 0, 64, 50
2, 110065, Note_on_c, 0, 62, 78
2, 110068, Note_on_c, 0, 61, 0
2, 110069, Note_on_c, 0, 50, 65
2, 110095, Control_c, 0, 64, 49
2, 110110, Control_c, 0, 64, 49
2, 110165, Note_on_c, 0, 50, 0
2, 110178, Note_on_c, 0, 62, 0
2, 110186, Note_on_c, 0, 64, 71
2, 110191, Note_on_c, 0, 49, 61
2, 110285, Note_on_c, 0, 49, 0
2, 110309, Note_on_c, 0, 52, 63
2, 110399, Control_c, 0, 64, 49
2, 110413, Note_on_c, 0, 52, 0
2, 110413, Note_on_c, 0, 67, 72
2, 110429, Control_c, 0, 64, 50
2, 110429, Note_on_c, 0, 47, 59
2, 110468, Control_c, 0, 64, 50
2, 110492, Note_on_c, 0, 67, 0
2, 110503, Note_on_c, 0, 64, 0
2, 110508, Note_on_c, 0, 47, 0
2, 110528, Control_c, 0, 64, 51
2, 110541, Note_on_c, 0, 52, 64
2, 110559, Control_c, 0, 64, 51
2, 110589, Control_c, 0, 64, 52
2, 110648, Note_on_c, 0, 66, 69
2, 110652, Note_on_c, 0, 52, 0
2, 110665, Control_c, 0, 64, 51
2, 110679, Note_on_c, 0, 46, 59
2, 110695, Control_c, 0, 64, 51
2, 110757, Control_c, 0, 64, 50
2, 110777, Note_on_c, 0, 46, 0
2, 110780, Note_on_c, 0, 62, 64
2, 110785, Note_on_c, 0, 52, 60
2, 110833, Control_c, 0, 64, 51
2, 110863, Note_on_c, 0, 62, 0
2, 110880, Note_on_c, 0, 52, 0
2, 110893, Note_on_c, 0, 61, 63
2, 110897, Note_on_c, 0, 44, 55
2, 110970, Control_c, 0, 64, 51
2, 110979, Note_on_c, 0, 44, 0
2, 110991, Note_on_c, 0, 61, 0
2, 111006, Note_on_c, 0, 59, 60
2, 111011, Note_on_c, 0, 52, 62
2, 111046, Control_c, 0, 64, 52
2, 111059, Note_on_c, 0, 66, 0
2, 111076, Control_c, 0, 64, 52
2, 111092, Control_c, 0, 64, 53
2, 111107, Control_c, 0, 64, 54
2, 111116, Note_on_c, 0, 52, 0
2, 111119, Note_on_c, 0, 59, 0
2, 111122, Control_c, 0, 64, 54
2, 111125, Note_on_c, 0, 42, 49
2, 111125, Note_on_c, 0, 58, 68
2, 111137, Control_c, 0, 64, 55
2, 111152, Control_c, 0, 64, 56
2, 111167, Control_c, 0, 64, 56
2, 111183, Control_c, 0, 64, 57
2, 111198, Control_c, 0, 64, 57
2, 111213, Control_c, 0, 64, 58
2, 111214, Note_on_c, 0, 42, 0
2, 111236, Control_c, 0, 64, 58
2, 111247, Note_on_c, 0, 61, 65
2, 111251, Control_c, 0, 64, 59
2, 111251, Note_on_c, 0, 52, 58
2, 111254, Note_on_c, 0, 58, 0
2, 111266, Control_c, 0, 64, 60
2, 111281, Control_c, 0, 64, 60
2, 111312, Control_c, 0, 64, 61
2, 111327, Control_c, 0, 64, 61
2, 111345, Note_on_c, 0, 61, 0
2, 111348, Note_on_c, 0, 52, 0
2, 111360, Note_on_c, 0, 59, 57
2, 111377, Note_on_c, 0, 50, 53
2, 111388, Control_c, 0, 64, 62
2, 111392, Note_on_c, 0, 59, 0
2, 111418, Control_c, 0, 64, 61
2, 111433, Control_c, 0, 64, 61
2, 111448, Control_c, 0, 64, 60
2, 111463, Control_c, 0, 64, 59
2, 111478, Control_c, 0, 64, 58
2, 111479, Note_on_c, 0, 50, 0
2, 111483, Note_on_c, 0, 54, 63
2, 111493, Note_on_c, 0, 71, 66
2, 111509, Control_c, 0, 64, 58
2, 111524, Control_c, 0, 64, 57
2, 111554, Control_c, 0, 64, 57
2, 111571, Control_c, 0, 64, 56
2, 111587, Note_on_c, 0, 71, 0
2, 111588, Note_on_c, 0, 54, 0
2, 111594, Note_on_c, 0, 52, 64
2, 111601, Control_c, 0, 64, 56
2, 111607, Note_on_c, 0, 73, 67
2, 111677, Control_c, 0, 64, 55
2, 111699, Note_on_c, 0, 52, 0
2, 111707, Control_c, 0, 64, 55
2, 111709, Note_on_c, 0, 73, 0
2, 111718, Note_on_c, 0, 71, 70
2, 111724, Note_on_c, 0, 50, 58
2, 111829, Note_on_c, 0, 50, 0
2, 111841, Note_on_c, 0, 71, 0
2, 111844, Note_on_c, 0, 49, 63
2, 111848, Note_on_c, 0, 70, 71
2, 111953, Note_on_c, 0, 70, 0
2, 111956, Note_on_c, 0, 49, 0
2, 111957, Note_on_c, 0, 71, 77
2, 111963, Note_on_c, 0, 47, 63
2, 112073, Note_on_c, 0, 47, 0
2, 112078, Note_on_c, 0, 71, 0
2, 112080, Note_on_c, 0, 73, 79
2, 112085, Note_on_c, 0, 46, 61
2, 112095, Control_c, 0, 64, 55
2, 112167, Note_on_c, 0, 73, 0
2, 112196, Note_on_c, 0, 46, 0
2, 112199, Note_on_c, 0, 49, 71
2, 112262, Control_c, 0, 64, 55
2, 112293, Control_c, 0, 64, 54
2, 112317, Note_on_c, 0, 49, 0
2, 112322, Control_c, 0, 64, 54
2, 112324, Note_on_c, 0, 47, 77
2, 112325, Note_on_c, 0, 74, 79
2, 112338, Control_c, 0, 64, 53
2, 112353, Control_c, 0, 64, 52
2, 112368, Control_c, 0, 64, 51
2, 112385, Control_c, 0, 64, 50
2, 112400, Control_c, 0, 64, 48
2, 112415, Control_c, 0, 64, 46
2, 112430, Control_c, 0, 64, 43
2, 112434, Note_on_c, 0, 73, 80
2, 112435, Note_on_c, 0, 47, 0
2, 112436, Note_on_c, 0, 46, 75
2, 112445, Control_c, 0, 64, 40
2, 112459, Control_c, 0, 64, 36
2, 112473, Note_on_c, 0, 74, 0
2, 112474, Control_c, 0, 64, 32
2, 112488, Control_c, 0, 64, 29
2, 112504, Control_c, 0, 64, 24
2, 112519, Control_c, 0, 64, 15
2, 112533, Control_c, 0, 64, 0
2, 112550, Note_on_c, 0, 71, 80
2, 112551, Note_on_c, 0, 44, 78
2, 112551, Note_on_c, 0, 46, 0
2, 112555, Note_on_c, 0, 73, 0
2, 112662, Note_on_c, 0, 42, 72
2, 112663, Note_on_c, 0, 73, 83
2, 112666, Note_on_c, 0, 71, 0
2, 112671, Note_on_c, 0, 44, 0
2, 112774, Note_on_c, 0, 73, 0
2, 112792, Note_on_c, 0, 42, 0
2, 112792, Note_on_c, 0, 74, 86
2, 112793, Note_on_c, 0, 47, 87
2, 112857, Note_on_c, 0, 47, 0
2, 112857, Note_on_c, 0, 74, 0
2, 112875, Control_c, 0, 64, 10
2, 112890, Control_c, 0, 64, 15
2, 112906, Control_c, 0, 64, 18
2, 112921, Control_c, 0, 64, 21
2, 112937, Control_c, 0, 64, 23
2, 112983, Control_c, 0, 64, 21
2, 112998, Control_c, 0, 64, 20
2, 113028, Control_c, 0, 64, 18
2, 113052, Note_on_c, 0, 73, 87
2, 113067, Note_on_c, 0, 49, 79
2, 113126, Note_on_c, 0, 73, 0
2, 113150, Control_c, 0, 64, 20
2, 113174, Note_on_c, 0, 47, 81
2, 113178, Note_on_c, 0, 49, 0
2, 113180, Control_c, 0, 64, 21
2, 113242, Control_c, 0, 64, 20
2, 113272, Control_c, 0, 64, 18
2, 113285, Note_on_c, 0, 47, 0
2, 113299, Note_on_c, 0, 46, 77
2, 113301, Note_on_c, 0, 71, 85
2, 113302, Control_c, 0, 64, 20
2, 113318, Control_c, 0, 64, 21
2, 113333, Control_c, 0, 64, 24
2, 113349, Control_c, 0, 64, 26
2, 113355, Note_on_c, 0, 71, 0
2, 113364, Control_c, 0, 64, 27
2, 113379, Control_c, 0, 64, 28
2, 113394, Control_c, 0, 64, 29
2, 113395, Note_on_c, 0, 46, 0
2, 113407, Note_on_c, 0, 47, 76
2, 113409, Control_c, 0, 64, 32
2, 113425, Control_c, 0, 64, 35
2, 113440, Control_c, 0, 64, 38
2, 113454, Control_c, 0, 64, 40
2, 113470, Control_c, 0, 64, 40
2, 113502, Note_on_c, 0, 47, 0
2, 113553, Note_on_c, 0, 49, 56
2, 113554, Control_c, 0, 64, 41
2, 113563, Note_on_c, 0, 70, 88
2, 113585, Control_c, 0, 64, 41
2, 113599, Control_c, 0, 64, 42
2, 113630, Control_c, 0, 64, 41
2, 113642, Note_on_c, 0, 49, 0
2, 113645, Control_c, 0, 64, 41
2, 113648, Note_on_c, 0, 70, 0
2, 113661, Control_c, 0, 64, 40
2, 113675, Control_c, 0, 64, 40
2, 113690, Control_c, 0, 64, 39
2, 113720, Control_c, 0, 64, 39
2, 113735, Control_c, 0, 64, 38
2, 113751, Control_c, 0, 64, 38
2, 113766, Control_c, 0, 64, 37
2, 113782, Control_c, 0, 64, 36
2, 113796, Control_c, 0, 64, 35
2, 113799, Note_on_c, 0, 50, 64
2, 113807, Note_on_c, 0, 79, 87
2, 113811, Control_c, 0, 64, 34
2, 113858, Control_c, 0, 64, 34
2, 113887, Control_c, 0, 64, 33
2, 113903, Control_c, 0, 64, 32
2, 113911, Note_on_c, 0, 50, 0
2, 113922, Note_on_c, 0, 49, 65
2, 113933, Control_c, 0, 64, 31
2, 113949, Control_c, 0, 64, 30
2, 113963, Control_c, 0, 64, 29
2, 114037, Note_on_c, 0, 49, 0
2, 114045, Note_on_c, 0, 47, 76
2, 114086, Control_c, 0, 64, 30
2, 114146, Control_c, 0, 64, 29
2, 114155, Note_on_c, 0, 47, 0
2, 114158, Note_on_c, 0, 49, 79
2, 114161, Control_c, 0, 64, 28
2, 114177, Control_c, 0, 64, 25
2, 114192, Control_c, 0, 64, 21
2, 114207, Control_c, 0, 64, 18
2, 114222, Control_c, 0, 64, 15
2, 114237, Control_c, 0, 64, 13
2, 114252, Control_c, 0, 64, 10
2, 114268, Note_on_c, 0, 79, 0
2, 114274, Note_on_c, 0, 78, 85
2, 114286, Note_on_c, 0, 50, 80
2, 114289, Note_on_c, 0, 49, 0
2, 114321, Control_c, 0, 64, 13
2, 114337, Control_c, 0, 64, 15
2, 114350, Note_on_c, 0, 50, 0
2, 114352, Control_c, 0, 64, 17
2, 114364, Note_on_c, 0, 78, 0
2, 114518, Control_c, 0, 64, 18
2, 114549, Control_c, 0, 64, 20
2, 114556, Note_on_c, 0, 49, 77
2, 114556, Note_on_c, 0, 79, 76
2, 114579, Control_c, 0, 64, 21
2, 114624, Note_on_c, 0, 49, 0
2, 114664, Note_on_c, 0, 78, 82
2, 114670, Control_c, 0, 64, 23
2, 114704, Note_on_c, 0, 79, 0
2, 114794, Note_on_c, 0, 76, 76
2, 114805, Note_on_c, 0, 47, 81
2, 114807, Control_c, 0, 64, 24
2, 114838, Control_c, 0, 64, 25
2, 114844, Note_on_c, 0, 78, 0
2, 114853, Control_c, 0, 64, 26
2, 114883, Note_on_c, 0, 47, 0
2, 114897, Note_on_c, 0, 76, 0
2, 114900, Control_c, 0, 64, 27
2, 114905, Note_on_c, 0, 74, 73
2, 114915, Control_c, 0, 64, 28
2, 114929, Control_c, 0, 64, 29
2, 114945, Control_c, 0, 64, 29
2, 114975, Control_c, 0, 64, 30
2, 115009, Note_on_c, 0, 74, 0
2, 115031, Note_on_c, 0, 73, 82
2, 115036, Control_c, 0, 64, 32
2, 115040, Note_on_c, 0, 46, 83
2, 115051, Control_c, 0, 64, 33
2, 115067, Control_c, 0, 64, 35
2, 115088, Control_c, 0, 64, 36
2, 115103, Note_on_c, 0, 46, 0
2, 115104, Control_c, 0, 64, 37
2, 115125, Note_on_c, 0, 73, 0
2, 115181, Control_c, 0, 64, 38
2, 115196, Control_c, 0, 64, 38
2, 115210, Control_c, 0, 64, 39
2, 115257, Control_c, 0, 64, 39
2, 115272, Control_c, 0, 64, 40
2, 115286, Control_c, 0, 64, 41
2, 115302, Control_c, 0, 64, 42
2, 115311, Note_on_c, 0, 76, 79
2, 115317, Control_c, 0, 64, 43
2, 115317, Note_on_c, 0, 55, 86
2, 115331, Control_c, 0, 64, 44
2, 115347, Control_c, 0, 64, 45
2, 115362, Control_c, 0, 64, 45
2, 115393, Control_c, 0, 64, 45
2, 115423, Control_c, 0, 64, 44
2, 115439, Note_on_c, 0, 74, 70
2, 115440, Note_on_c, 0, 76, 0
2, 115453, Control_c, 0, 64, 44
2, 115469, Control_c, 0, 64, 43
2, 115483, Control_c, 0, 64, 42
2, 115499, Control_c, 0, 64, 42
2, 115514, Control_c, 0, 64, 41
2, 115529, Control_c, 0, 64, 40
2, 115545, Control_c, 0, 64, 39
2, 115558, Note_on_c, 0, 74, 0
2, 115560, Control_c, 0, 64, 38
2, 115563, Note_on_c, 0, 73, 73
2, 115574, Control_c, 0, 64, 38
2, 115590, Control_c, 0, 64, 36
2, 115605, Control_c, 0, 64, 36
2, 115621, Control_c, 0, 64, 34
2, 115636, Control_c, 0, 64, 33
2, 115651, Control_c, 0, 64, 32
2, 115667, Control_c, 0, 64, 32
2, 115672, Note_on_c, 0, 73, 0
2, 115680, Note_on_c, 0, 71, 65
2, 115682, Control_c, 0, 64, 31
2, 115727, Control_c, 0, 64, 30
2, 115796, Note_on_c, 0, 71, 0
2, 115801, Note_on_c, 0, 70, 71
2, 115804, Control_c, 0, 64, 29
2, 115809, Note_on_c, 0, 55, 0
2, 115813, Note_on_c, 0, 54, 60
2, 115913, Note_on_c, 0, 70, 0
2, 115924, Note_on_c, 0, 71, 68
2, 115927, Note_on_c, 0, 54, 0
2, 115935, Note_on_c, 0, 56, 58
2, 115979, Control_c, 0, 64, 29
2, 116025, Control_c, 0, 64, 29
2, 116044, Note_on_c, 0, 73, 79
2, 116050, Note_on_c, 0, 56, 0
2, 116050, Note_on_c, 0, 71, 0
2, 116054, Note_on_c, 0, 58, 61
2, 116070, Control_c, 0, 64, 30
2, 116160, Note_on_c, 0, 70, 72
2, 116165, Note_on_c, 0, 73, 0
2, 116172, Note_on_c, 0, 54, 53
2, 116175, Control_c, 0, 64, 31
2, 116180, Note_on_c, 0, 58, 0
2, 116238, Note_on_c, 0, 70, 0
2, 116284, Note_on_c, 0, 74, 73
2, 116292, Note_on_c, 0, 54, 0
2, 116293, Note_on_c, 0, 59, 55
2, 116298, Control_c, 0, 64, 32
2, 116361, Note_on_c, 0, 59, 0
2, 116372, Control_c, 0, 64, 32
2, 116405, Note_on_c, 0, 70, 58
2, 116420, Note_on_c, 0, 54, 58
2, 116426, Note_on_c, 0, 74, 0
2, 116434, Control_c, 0, 64, 33
2, 116494, Note_on_c, 0, 70, 0
2, 116528, Note_on_c, 0, 54, 0
2, 116541, Note_on_c, 0, 76, 78
2, 116547, Note_on_c, 0, 61, 61
2, 116556, Control_c, 0, 64, 34
2, 116637, Note_on_c, 0, 61, 0
2, 116647, Note_on_c, 0, 76, 0
2, 116667, Note_on_c, 0, 54, 62
2, 116676, Note_on_c, 0, 70, 66
2, 116762, Control_c, 0, 64, 34
2, 116777, Control_c, 0, 64, 35
2, 116783, Note_on_c, 0, 62, 60
2, 116787, Note_on_c, 0, 78, 81
2, 116792, Control_c, 0, 64, 36
2, 116795, Note_on_c, 0, 54, 0
2, 116807, Control_c, 0, 64, 36
2, 116827, Note_on_c, 0, 70, 0
2, 116885, Note_on_c, 0, 62, 0
2, 116899, Control_c, 0, 64, 37
2, 116907, Note_on_c, 0, 70, 61
2, 116919, Note_on_c, 0, 54, 58
2, 116932, Note_on_c, 0, 78, 0
2, 117015, Note_on_c, 0, 54, 0
2, 117035, Control_c, 0, 64, 36
2, 117035, Note_on_c, 0, 64, 60
2, 117036, Note_on_c, 0, 79, 81
2, 117066, Control_c, 0, 64, 36
2, 117069, Note_on_c, 0, 70, 0
2, 117114, Note_on_c, 0, 79, 0
2, 117116, Note_on_c, 0, 64, 0
2, 117153, Note_on_c, 0, 70, 72
2, 117155, Note_on_c, 0, 54, 55
2, 117172, Control_c, 0, 64, 36
2, 117203, Control_c, 0, 64, 37
2, 117264, Control_c, 0, 64, 36
2, 117277, Note_on_c, 0, 54, 0
2, 117281, Note_on_c, 0, 62, 58
2, 117284, Note_on_c, 0, 78, 78
2, 117306, Note_on_c, 0, 70, 0
2, 117309, Control_c, 0, 64, 37
2, 117376, Control_c, 0, 64, 36
2, 117384, Note_on_c, 0, 62, 0
2, 117414, Note_on_c, 0, 70, 74
2, 117418, Note_on_c, 0, 54, 58
2, 117438, Control_c, 0, 64, 37
2, 117452, Control_c, 0, 64, 37
2, 117468, Control_c, 0, 64, 38
2, 117494, Note_on_c, 0, 78, 0
2, 117498, Control_c, 0, 64, 38
2, 117523, Note_on_c, 0, 54, 0
2, 117523, Note_on_c, 0, 56, 57
2, 117529, Control_c, 0, 64, 39
2, 117532, Note_on_c, 0, 71, 69
2, 117541, Note_on_c, 0, 70, 0
2, 117544, Control_c, 0, 64, 39
2, 117559, Control_c, 0, 64, 40
2, 117574, Control_c, 0, 64, 41
2, 117589, Control_c, 0, 64, 41
2, 117604, Control_c, 0, 64, 42
2, 117616, Note_on_c, 0, 56, 0
2, 117635, Control_c, 0, 64, 43
2, 117636, Note_on_c, 0, 62, 60
2, 117642, Note_on_c, 0, 78, 72
2, 117650, Control_c, 0, 64, 43
2, 117650, Note_on_c, 0, 71, 0
2, 117680, Control_c, 0, 64, 44
2, 117704, Note_on_c, 0, 78, 0
2, 117708, Note_on_c, 0, 62, 0
2, 117728, Note_on_c, 0, 61, 63
2, 117738, Note_on_c, 0, 76, 68
2, 117740, Control_c, 0, 64, 43
2, 117756, Control_c, 0, 64, 43
2, 117771, Control_c, 0, 64, 42
2, 117786, Note_on_c, 0, 61, 0
2, 117802, Note_on_c, 0, 59, 67
2, 117802, Note_on_c, 0, 76, 0
2, 117804, Note_on_c, 0, 74, 68
2, 117857, Note_on_c, 0, 74, 0
2, 117861, Note_on_c, 0, 73, 72
2, 117878, Control_c, 0, 64, 43
2, 117893, Control_c, 0, 64, 43
2, 117896, Note_on_c, 0, 58, 67
2, 117896, Note_on_c, 0, 59, 0
2, 117923, Control_c, 0, 64, 44
2, 117927, Note_on_c, 0, 74, 75
2, 117945, Note_on_c, 0, 73, 0
2, 117968, Note_on_c, 0, 76, 81
2, 117970, Note_on_c, 0, 58, 0
2, 117970, Note_on_c, 0, 61, 70
2, 117981, Note_on_c, 0, 74, 0
2, 117982, Control_c, 0, 64, 43
2, 117998, Control_c, 0, 64, 43
2, 118013, Control_c, 0, 64, 42
2, 118029, Control_c, 0, 64, 42
2, 118043, Note_on_c, 0, 61, 0
2, 118044, Control_c, 0, 64, 41
2, 118059, Control_c, 0, 64, 41
2, 118087, Note_on_c, 0, 68, 82
2, 118090, Note_on_c, 0, 76, 0
2, 118106, Note_on_c, 0, 52, 70
2, 118202, Note_on_c, 0, 52, 0
2, 118208, Note_on_c, 0, 54, 66
2, 118208, Note_on_c, 0, 68, 0
2, 118209, Note_on_c, 0, 70, 76
2, 118250, Control_c, 0, 64, 41
2, 118281, Control_c, 0, 64, 42
2, 118290, Note_on_c, 0, 54, 0
2, 118295, Control_c, 0, 64, 42
2, 118306, Note_on_c, 0, 61, 71
2, 118309, Note_on_c, 0, 70, 0
2, 118311, Control_c, 0, 64, 43
2, 118311, Note_on_c, 0, 76, 82
2, 118326, Control_c, 0, 64, 43
2, 118341, Control_c, 0, 64, 44
2, 118353, Note_on_c, 0, 61, 0
2, 118391, Note_on_c, 0, 76, 0
2, 118397, Note_on_c, 0, 59, 62
2, 118401, Note_on_c, 0, 74, 70
2, 118432, Control_c, 0, 64, 44
2, 118460, Note_on_c, 0, 73, 63
2, 118468, Note_on_c, 0, 58, 76
2, 118472, Note_on_c, 0, 59, 0
2, 118497, Note_on_c, 0, 74, 0
2, 118525, Note_on_c, 0, 73, 0
2, 118526, Note_on_c, 0, 71, 75
2, 118554, Control_c, 0, 64, 43
2, 118554, Note_on_c, 0, 56, 67
2, 118585, Control_c, 0, 64, 43
2, 118591, Note_on_c, 0, 73, 73
2, 118600, Note_on_c, 0, 71, 0
2, 118607, Note_on_c, 0, 56, 0
2, 118614, Control_c, 0, 64, 42
2, 118630, Control_c, 0, 64, 42
2, 118633, Note_on_c, 0, 58, 0
2, 118645, Control_c, 0, 64, 41
2, 118651, Note_on_c, 0, 59, 63
2, 118656, Note_on_c, 0, 74, 84
2, 118660, Control_c, 0, 64, 40
2, 118664, Note_on_c, 0, 73, 0
2, 118676, Control_c, 0, 64, 40
2, 118706, Control_c, 0, 64, 39
2, 118765, Note_on_c, 0, 59, 0
2, 118799, Note_on_c, 0, 61, 60
2, 118812, Control_c, 0, 64, 39
2, 118842, Control_c, 0, 64, 38
2, 118882, Note_on_c, 0, 61, 0
2, 118888, Control_c, 0, 64, 38
2, 118926, Note_on_c, 0, 62, 77
2, 119009, Note_on_c, 0, 62, 0
2, 119043, Note_on_c, 0, 59, 57
2, 119094, Control_c, 0, 64, 38
2, 119139, Note_on_c, 0, 59, 0
2, 119170, Control_c, 0, 64, 39
2, 119177, Note_on_c, 0, 64, 80
2, 119201, Control_c, 0, 64, 39
2, 119215, Control_c, 0, 64, 40
2, 119258, Note_on_c, 0, 64, 0
2, 119261, Control_c, 0, 64, 40
2, 119291, Control_c, 0, 64, 41
2, 119307, Control_c, 0, 64, 41
2, 119316, Note_on_c, 0, 59, 46
2, 119367, Control_c, 0, 64, 42
2, 119375, Note_on_c, 0, 59, 0
2, 119434, Note_on_c, 0, 66, 83
2, 119489, Control_c, 0, 64, 42
2, 119525, Note_on_c, 0, 66, 0
2, 119565, Control_c, 0, 64, 43
2, 119576, Note_on_c, 0, 59, 45
2, 119626, Control_c, 0, 64, 43
2, 119641, Control_c, 0, 64, 44
2, 119651, Note_on_c, 0, 59, 0
2, 119656, Control_c, 0, 64, 44
2, 119672, Control_c, 0, 64, 45
2, 119688, Note_on_c, 0, 68, 84
2, 119694, Control_c, 0, 64, 46
2, 119710, Control_c, 0, 64, 47
2, 119724, Control_c, 0, 64, 47
2, 119755, Control_c, 0, 64, 48
2, 119771, Control_c, 0, 64, 48
2, 119780, Note_on_c, 0, 68, 0
2, 119816, Control_c, 0, 64, 49
2, 119819, Note_on_c, 0, 59, 51
2, 119947, Note_on_c, 0, 59, 0
2, 119953, Note_on_c, 0, 69, 82
2, 119963, Note_on_c, 0, 47, 59
2, 119984, Control_c, 0, 64, 49
2, 120036, Note_on_c, 0, 47, 0
2, 120075, Control_c, 0, 64, 50
2, 120079, Note_on_c, 0, 69, 0
2, 120082, Note_on_c, 0, 59, 60
2, 120160, Note_on_c, 0, 59, 0
2, 120199, Note_on_c, 0, 74, 0
2, 120203, Note_on_c, 0, 68, 84
2, 120216, Note_on_c, 0, 52, 62
2, 120281, Note_on_c, 0, 68, 0
2, 120288, Control_c, 0, 64, 49
2, 120321, Note_on_c, 0, 52, 0
2, 120341, Note_on_c, 0, 54, 59
2, 120364, Control_c, 0, 64, 49
2, 120394, Control_c, 0, 64, 48
2, 120460, Note_on_c, 0, 64, 81
2, 120478, Note_on_c, 0, 54, 0
2, 120479, Note_on_c, 0, 56, 64
2, 120493, Control_c, 0, 64, 49
2, 120528, Note_on_c, 0, 64, 0
2, 120580, Note_on_c, 0, 56, 0
2, 120596, Note_on_c, 0, 52, 64
2, 120709, Note_on_c, 0, 52, 0
2, 120709, Note_on_c, 0, 66, 87
2, 120720, Note_on_c, 0, 57, 66
2, 120779, Note_on_c, 0, 66, 0
2, 120811, Note_on_c, 0, 57, 0
2, 120832, Note_on_c, 0, 52, 71
2, 120874, Control_c, 0, 64, 48
2, 120889, Control_c, 0, 64, 47
2, 120905, Control_c, 0, 64, 47
2, 120957, Note_on_c, 0, 52, 0
2, 120963, Note_on_c, 0, 68, 91
2, 120964, Note_on_c, 0, 59, 67
2, 121013, Note_on_c, 0, 70, 17
2, 121021, Note_on_c, 0, 70, 0
2, 121035, Note_on_c, 0, 68, 0
2, 121044, Note_on_c, 0, 59, 0
2, 121080, Note_on_c, 0, 52, 73
2, 121104, Control_c, 0, 64, 47
2, 121232, Note_on_c, 0, 69, 91
2, 121234, Note_on_c, 0, 61, 68
2, 121241, Note_on_c, 0, 52, 0
2, 121248, Control_c, 0, 64, 48
2, 121291, Note_on_c, 0, 69, 0
2, 121303, Note_on_c, 0, 61, 0
2, 121340, Control_c, 0, 64, 47
2, 121348, Note_on_c, 0, 52, 69
2, 121385, Control_c, 0, 64, 47
2, 121432, Control_c, 0, 64, 46
2, 121447, Control_c, 0, 64, 46
2, 121458, Note_on_c, 0, 52, 0
2, 121473, Note_on_c, 0, 62, 74
2, 121473, Note_on_c, 0, 71, 85
2, 121477, Control_c, 0, 64, 45
2, 121492, Control_c, 0, 64, 44
2, 121508, Control_c, 0, 64, 44
2, 121533, Note_on_c, 0, 71, 0
2, 121538, Control_c, 0, 64, 43
2, 121553, Control_c, 0, 64, 42
2, 121569, Note_on_c, 0, 62, 0
2, 121583, Note_on_c, 0, 52, 74
2, 121599, Control_c, 0, 64, 42
2, 121687, Note_on_c, 0, 52, 0
2, 121689, Control_c, 0, 64, 41
2, 121703, Note_on_c, 0, 64, 72
2, 121717, Note_on_c, 0, 61, 88
2, 121795, Control_c, 0, 64, 42
2, 121814, Note_on_c, 0, 66, 72
2, 121820, Note_on_c, 0, 64, 0
2, 121854, Control_c, 0, 64, 42
2, 121891, Note_on_c, 0, 68, 71
2, 121899, Note_on_c, 0, 66, 0
2, 121956, Note_on_c, 0, 69, 82
2, 121992, Note_on_c, 0, 68, 0
2, 122030, Control_c, 0, 64, 42
2, 122053, Note_on_c, 0, 69, 0
2, 122063, Note_on_c, 0, 61, 0
2, 122069, Note_on_c, 0, 64, 77
2, 122070, Note_on_c, 0, 62, 69
2, 122090, Control_c, 0, 64, 42
2, 122151, Control_c, 0, 64, 43
2, 122160, Note_on_c, 0, 62, 0
2, 122166, Control_c, 0, 64, 43
2, 122182, Control_c, 0, 64, 44
2, 122194, Note_on_c, 0, 64, 0
2, 122195, Note_on_c, 0, 71, 79
2, 122197, Control_c, 0, 64, 44
2, 122197, Note_on_c, 0, 61, 63
2, 122273, Note_on_c, 0, 71, 0
2, 122276, Control_c, 0, 64, 45
2, 122305, Note_on_c, 0, 61, 0
2, 122307, Control_c, 0, 64, 45
2, 122313, Note_on_c, 0, 64, 75
2, 122322, Note_on_c, 0, 59, 63
2, 122352, Control_c, 0, 64, 45
2, 122383, Control_c, 0, 64, 44
2, 122417, Note_on_c, 0, 59, 0
2, 122437, Note_on_c, 0, 73, 78
2, 122438, Note_on_c, 0, 57, 76
2, 122450, Note_on_c, 0, 64, 0
2, 122459, Control_c, 0, 64, 45
2, 122504, Control_c, 0, 64, 44
2, 122540, Note_on_c, 0, 57, 0
2, 122545, Note_on_c, 0, 59, 71
2, 122550, Note_on_c, 0, 64, 78
2, 122561, Note_on_c, 0, 73, 0
2, 122595, Control_c, 0, 64, 45
2, 122611, Control_c, 0, 64, 45
2, 122641, Control_c, 0, 64, 46
2, 122656, Control_c, 0, 64, 47
2, 122661, Note_on_c, 0, 57, 77
2, 122661, Note_on_c, 0, 59, 0
2, 122667, Note_on_c, 0, 74, 77
2, 122668, Note_on_c, 0, 64, 0
2, 122671, Control_c, 0, 64, 47
2, 122701, Control_c, 0, 64, 48
2, 122732, Control_c, 0, 64, 48
2, 122740, Note_on_c, 0, 57, 0
2, 122747, Control_c, 0, 64, 49
2, 122766, Note_on_c, 0, 74, 0
2, 122771, Control_c, 0, 64, 50
2, 122785, Control_c, 0, 64, 51
2, 122787, Note_on_c, 0, 55, 75
2, 122787, Note_on_c, 0, 66, 79
2, 122800, Control_c, 0, 64, 51
2, 122816, Control_c, 0, 64, 52
2, 122856, Note_on_c, 0, 66, 0
2, 122894, Note_on_c, 0, 55, 0
2, 122911, Note_on_c, 0, 54, 71
2, 122912, Note_on_c, 0, 49, 68
2, 122912, Note_on_c, 0, 76, 89
2, 122921, Control_c, 0, 64, 51
2, 122937, Control_c, 0, 64, 51
2, 122952, Control_c, 0, 64, 50
2, 122967, Control_c, 0, 64, 49
2, 122982, Control_c, 0, 64, 48
2, 122989, Note_on_c, 0, 76, 0
2, 122997, Control_c, 0, 64, 47
2, 123006, Note_on_c, 0, 49, 0
2, 123013, Control_c, 0, 64, 47
2, 123017, Note_on_c, 0, 54, 0
2, 123021, Note_on_c, 0, 67, 83
2, 123022, Note_on_c, 0, 52, 82
2, 123044, Control_c, 0, 64, 46
2, 123075, Control_c, 0, 64, 46
2, 123125, Note_on_c, 0, 52, 0
2, 123142, Note_on_c, 0, 50, 92
2, 123146, Note_on_c, 0, 67, 0
2, 123147, Note_on_c, 0, 66, 73
2, 123181, Control_c, 0, 64, 45
2, 123196, Control_c, 0, 64, 45
2, 123212, Control_c, 0, 64, 44
2, 123227, Control_c, 0, 64, 44
2, 123242, Control_c, 0, 64, 43
2, 123242, Note_on_c, 0, 66, 0
2, 123248, Note_on_c, 0, 67, 73
2, 123315, Note_on_c, 0, 67, 0
2, 123324, Note_on_c, 0, 69, 70
2, 123334, Control_c, 0, 64, 43
2, 123349, Control_c, 0, 64, 42
2, 123373, Note_on_c, 0, 71, 77
2, 123381, Note_on_c, 0, 69, 0
2, 123425, Control_c, 0, 64, 42
2, 123434, Note_on_c, 0, 71, 0
2, 123440, Control_c, 0, 64, 41
2, 123456, Control_c, 0, 64, 40
2, 123464, Note_on_c, 0, 50, 0
2, 123471, Control_c, 0, 64, 40
2, 123479, Note_on_c, 0, 52, 72
2, 123486, Control_c, 0, 64, 39
2, 123486, Note_on_c, 0, 66, 80
2, 123501, Control_c, 0, 64, 39
2, 123516, Control_c, 0, 64, 37
2, 123539, Control_c, 0, 64, 35
2, 123554, Control_c, 0, 64, 32
2, 123570, Control_c, 0, 64, 29
2, 123584, Control_c, 0, 64, 28
2, 123598, Note_on_c, 0, 52, 0
2, 123599, Control_c, 0, 64, 26
2, 123612, Note_on_c, 0, 50, 69
2, 123615, Control_c, 0, 64, 24
2, 123621, Note_on_c, 0, 73, 74
2, 123630, Control_c, 0, 64, 21
2, 123641, Note_on_c, 0, 66, 0
2, 123645, Control_c, 0, 64, 15
2, 123661, Control_c, 0, 64, 10
2, 123706, Control_c, 0, 64, 13
2, 123721, Control_c, 0, 64, 17
2, 123725, Note_on_c, 0, 73, 0
2, 123726, Note_on_c, 0, 50, 0
2, 123734, Note_on_c, 0, 49, 73
2, 123735, Note_on_c, 0, 66, 77
2, 123737, Control_c, 0, 64, 18
2, 123752, Control_c, 0, 64, 20
2, 123766, Control_c, 0, 64, 21
2, 123782, Control_c, 0, 64, 23
2, 123797, Control_c, 0, 64, 24
2, 123851, Note_on_c, 0, 49, 0
2, 123855, Note_on_c, 0, 47, 72
2, 123859, Note_on_c, 0, 74, 75
2, 123890, Control_c, 0, 64, 25
2, 123896, Note_on_c, 0, 66, 0
2, 123954, Note_on_c, 0, 47, 0
2, 123966, Note_on_c, 0, 66, 60
2, 123967, Note_on_c, 0, 49, 77
2, 123980, Control_c, 0, 64, 26
2, 124011, Control_c, 0, 64, 27
2, 124013, Note_on_c, 0, 74, 0
2, 124041, Control_c, 0, 64, 25
2, 124056, Control_c, 0, 64, 24
2, 124071, Control_c, 0, 64, 21
2, 124077, Note_on_c, 0, 49, 0
2, 124082, Note_on_c, 0, 47, 73
2, 124085, Note_on_c, 0, 66, 0
2, 124086, Control_c, 0, 64, 20
2, 124086, Note_on_c, 0, 76, 79
2, 124102, Control_c, 0, 64, 18
2, 124117, Control_c, 0, 64, 17
2, 124147, Control_c, 0, 64, 15
2, 124172, Note_on_c, 0, 47, 0
2, 124172, Note_on_c, 0, 76, 0
2, 124193, Note_on_c, 0, 45, 73
2, 124206, Note_on_c, 0, 67, 74
2, 124208, Control_c, 0, 64, 17
2, 124223, Control_c, 0, 64, 18
2, 124238, Control_c, 0, 64, 20
2, 124254, Control_c, 0, 64, 21
2, 124309, Note_on_c, 0, 45, 0
2, 124320, Note_on_c, 0, 78, 80
2, 124322, Note_on_c, 0, 43, 76
2, 124341, Note_on_c, 0, 67, 0
2, 124352, Control_c, 0, 64, 23
2, 124397, Control_c, 0, 64, 24
2, 124413, Note_on_c, 0, 78, 0
2, 124426, Note_on_c, 0, 43, 0
2, 124428, Control_c, 0, 64, 25
2, 124440, Note_on_c, 0, 42, 70
2, 124440, Note_on_c, 0, 69, 72
2, 124443, Control_c, 0, 64, 26
2, 124459, Control_c, 0, 64, 27
2, 124520, Note_on_c, 0, 42, 0
2, 124535, Control_c, 0, 64, 26
2, 124540, Note_on_c, 0, 69, 0
2, 124565, Control_c, 0, 64, 27
2, 124574, Note_on_c, 0, 67, 76
2, 124581, Control_c, 0, 64, 28
2, 124581, Note_on_c, 0, 40, 80
2, 124596, Control_c, 0, 64, 29
2, 124619, Note_on_c, 0, 40, 0
2, 124626, Control_c, 0, 64, 29
2, 124673, Control_c, 0, 64, 30
2, 124688, Control_c, 0, 64, 31
2, 124695, Note_on_c, 0, 67, 0
2, 124699, Note_on_c, 0, 66, 75
2, 124703, Control_c, 0, 64, 32
2, 124718, Control_c, 0, 64, 34
2, 124734, Control_c, 0, 64, 35
2, 124748, Control_c, 0, 64, 36
2, 124805, Note_on_c, 0, 66, 0
2, 124820, Note_on_c, 0, 67, 77
2, 124824, Control_c, 0, 64, 36
2, 124824, Note_on_c, 0, 50, 78
2, 124854, Control_c, 0, 64, 36
2, 124856, Note_on_c, 0, 48, 44
2, 124857, Note_on_c, 0, 48, 0
2, 124877, Note_on_c, 0, 50, 0
2, 124884, Control_c, 0, 64, 35
2, 124899, Control_c, 0, 64, 34
2, 124914, Control_c, 0, 64, 34
2, 124937, Note_on_c, 0, 71, 73
2, 124951, Note_on_c, 0, 67, 0
2, 125044, Note_on_c, 0, 71, 0
2, 125062, Note_on_c, 0, 76, 75
2, 125067, Note_on_c, 0, 49, 82
2, 125124, Note_on_c, 0, 49, 0
2, 125148, Note_on_c, 0, 76, 0
2, 125150, Control_c, 0, 64, 34
2, 125165, Control_c, 0, 64, 35
2, 125170, Note_on_c, 0, 67, 75
2, 125180, Control_c, 0, 64, 36
2, 125195, Control_c, 0, 64, 36
2, 125211, Control_c, 0, 64, 37
2, 125303, Control_c, 0, 64, 37
2, 125303, Note_on_c, 0, 67, 0
2, 125306, Note_on_c, 0, 66, 74
2, 125324, Note_on_c, 0, 50, 76
2, 125333, Control_c, 0, 64, 38
2, 125348, Control_c, 0, 64, 38
2, 125411, Note_on_c, 0, 66, 0
2, 125426, Note_on_c, 0, 71, 75
2, 125484, Control_c, 0, 64, 38
2, 125501, Control_c, 0, 64, 37
2, 125509, Note_on_c, 0, 71, 0
2, 125516, Control_c, 0, 64, 36
2, 125532, Control_c, 0, 64, 36
2, 125546, Control_c, 0, 64, 34
2, 125548, Note_on_c, 0, 69, 80
2, 125559, Note_on_c, 0, 50, 0
2, 125560, Note_on_c, 0, 52, 71
2, 125561, Control_c, 0, 64, 33
2, 125577, Control_c, 0, 64, 32
2, 125592, Control_c, 0, 64, 31
2, 125606, Control_c, 0, 64, 30
2, 125657, Note_on_c, 0, 52, 0
2, 125660, Note_on_c, 0, 73, 83
2, 125667, Control_c, 0, 64, 31
2, 125669, Note_on_c, 0, 50, 73
2, 125678, Note_on_c, 0, 69, 0
2, 125682, Control_c, 0, 64, 32
2, 125713, Control_c, 0, 64, 32
2, 125758, Control_c, 0, 64, 33
2, 125774, Note_on_c, 0, 74, 87
2, 125788, Note_on_c, 0, 50, 0
2, 125792, Note_on_c, 0, 47, 75
2, 125804, Note_on_c, 0, 49, 63
2, 125805, Note_on_c, 0, 73, 0
2, 125842, Control_c, 0, 64, 34
2, 125858, Control_c, 0, 64, 34
2, 125908, Note_on_c, 0, 50, 86
2, 125914, Note_on_c, 0, 47, 0
2, 125930, Note_on_c, 0, 49, 0
2, 125979, Control_c, 0, 64, 34
2, 126015, Note_on_c, 0, 50, 0
2, 126038, Note_on_c, 0, 43, 79
2, 126043, Note_on_c, 0, 52, 86
2, 126085, Control_c, 0, 64, 34
2, 126087, Note_on_c, 0, 52, 0
2, 126088, Note_on_c, 0, 74, 0
2, 126098, Note_on_c, 0, 43, 0
2, 126146, Control_c, 0, 64, 34
2, 126161, Control_c, 0, 64, 32
2, 126177, Control_c, 0, 64, 31
2, 126192, Control_c, 0, 64, 29
2, 126207, Control_c, 0, 64, 26
2, 126222, Control_c, 0, 64, 23
2, 126237, Control_c, 0, 64, 20
2, 126253, Control_c, 0, 64, 17
2, 126268, Control_c, 0, 64, 13
2, 126283, Control_c, 0, 64, 10
2, 126298, Control_c, 0, 64, 0
2, 126306, Note_on_c, 0, 54, 75
2, 126306, Note_on_c, 0, 73, 84
2, 126315, Note_on_c, 0, 45, 66
2, 126425, Note_on_c, 0, 54, 0
2, 126434, Note_on_c, 0, 52, 74
2, 126548, Note_on_c, 0, 50, 78
2, 126559, Note_on_c, 0, 52, 0
2, 126678, Note_on_c, 0, 52, 80
2, 126761, Note_on_c, 0, 50, 0
2, 126778, Note_on_c, 0, 73, 0
2, 126806, Note_on_c, 0, 45, 0
2, 126807, Note_on_c, 0, 54, 82
2, 126808, Note_on_c, 0, 74, 88
2, 126819, Note_on_c, 0, 52, 0
2, 126861, Note_on_c, 0, 54, 0
2, 126875, Note_on_c, 0, 74, 0
2, 127067, Note_on_c, 0, 52, 76
2, 127068, Note_on_c, 0, 76, 85
2, 127072, Note_on_c, 0, 49, 68
2, 127112, Note_on_c, 0, 52, 0
2, 127134, Note_on_c, 0, 49, 0
2, 127186, Note_on_c, 0, 74, 83
2, 127213, Note_on_c, 0, 76, 0
2, 127288, Note_on_c, 0, 74, 0
2, 127311, Note_on_c, 0, 47, 76
2, 127313, Note_on_c, 0, 50, 66
2, 127317, Note_on_c, 0, 73, 85
2, 127326, Control_c, 0, 64, 13
2, 127342, Control_c, 0, 64, 20
2, 127347, Note_on_c, 0, 50, 0
2, 127357, Control_c, 0, 64, 23
2, 127379, Control_c, 0, 64, 25
2, 127388, Note_on_c, 0, 47, 0
2, 127394, Control_c, 0, 64, 26
2, 127410, Control_c, 0, 64, 27
2, 127418, Note_on_c, 0, 73, 0
2, 127424, Control_c, 0, 64, 29
2, 127429, Note_on_c, 0, 74, 82
2, 127439, Control_c, 0, 64, 29
2, 127470, Control_c, 0, 64, 30
2, 127547, Control_c, 0, 64, 31
2, 127557, Note_on_c, 0, 76, 90
2, 127562, Control_c, 0, 64, 32
2, 127577, Control_c, 0, 64, 34
2, 127577, Note_on_c, 0, 45, 79
2, 127580, Note_on_c, 0, 49, 68
2, 127592, Control_c, 0, 64, 36
2, 127594, Note_on_c, 0, 74, 0
2, 127607, Control_c, 0, 64, 37
2, 127610, Note_on_c, 0, 76, 0
2, 127620, Note_on_c, 0, 49, 0
2, 127622, Control_c, 0, 64, 38
2, 127637, Control_c, 0, 64, 39
2, 127653, Control_c, 0, 64, 40
2, 127668, Control_c, 0, 64, 40
2, 127698, Control_c, 0, 64, 41
2, 127713, Control_c, 0, 64, 42
2, 127728, Control_c, 0, 64, 42
2, 127828, Note_on_c, 0, 78, 81
2, 127834, Control_c, 0, 64, 43
2, 127838, Note_on_c, 0, 59, 85
2, 127849, Control_c, 0, 64, 43
2, 127865, Control_c, 0, 64, 44
2, 127895, Control_c, 0, 64, 45
2, 127910, Control_c, 0, 64, 45
2, 127958, Note_on_c, 0, 76, 69
2, 127966, Note_on_c, 0, 78, 0
2, 128002, Control_c, 0, 64, 45
2, 128018, Control_c, 0, 64, 44
2, 128033, Control_c, 0, 64, 43
2, 128048, Control_c, 0, 64, 42
2, 128063, Control_c, 0, 64, 41
2, 128078, Control_c, 0, 64, 40
2, 128079, Note_on_c, 0, 74, 76
2, 128087, Note_on_c, 0, 76, 0
2, 128094, Control_c, 0, 64, 39
2, 128109, Control_c, 0, 64, 38
2, 128124, Control_c, 0, 64, 37
2, 128124, Note_on_c, 0, 59, 0
2, 128147, Control_c, 0, 64, 35
2, 128162, Control_c, 0, 64, 32
2, 128178, Control_c, 0, 64, 30
2, 128193, Control_c, 0, 64, 29
2, 128202, Note_on_c, 0, 76, 86
2, 128208, Control_c, 0, 64, 29
2, 128217, Note_on_c, 0, 74, 0
2, 128254, Control_c, 0, 64, 29
2, 128283, Control_c, 0, 64, 29
2, 128299, Control_c, 0, 64, 28
2, 128308, Note_on_c, 0, 76, 0
2, 128329, Control_c, 0, 64, 27
2, 128329, Note_on_c, 0, 57, 71
2, 128333, Note_on_c, 0, 78, 92
2, 128389, Note_on_c, 0, 57, 0
2, 128390, Control_c, 0, 64, 28
2, 128405, Control_c, 0, 64, 29
2, 128421, Control_c, 0, 64, 30
2, 128436, Control_c, 0, 64, 32
2, 128452, Control_c, 0, 64, 35
2, 128466, Control_c, 0, 64, 38
2, 128481, Control_c, 0, 64, 41
2, 128497, Control_c, 0, 64, 44
2, 128512, Control_c, 0, 64, 46
2, 128527, Control_c, 0, 64, 48
2, 128542, Control_c, 0, 64, 50
2, 128557, Control_c, 0, 64, 50
2, 128570, Control_c, 0, 64, 51
2, 128577, Note_on_c, 0, 78, 0
2, 128586, Note_on_c, 0, 59, 67
2, 128596, Note_on_c, 0, 79, 87
2, 128615, Control_c, 0, 64, 51
2, 128661, Control_c, 0, 64, 51
2, 128667, Note_on_c, 0, 59, 0
2, 128676, Control_c, 0, 64, 50
2, 128712, Note_on_c, 0, 78, 90
2, 128721, Control_c, 0, 64, 50
2, 128737, Control_c, 0, 64, 48
2, 128740, Note_on_c, 0, 57, 63
2, 128752, Control_c, 0, 64, 47
2, 128767, Control_c, 0, 64, 44
2, 128781, Note_on_c, 0, 79, 0
2, 128783, Control_c, 0, 64, 41
2, 128798, Control_c, 0, 64, 38
2, 128813, Control_c, 0, 64, 37
2, 128829, Control_c, 0, 64, 36
2, 128832, Note_on_c, 0, 57, 0
2, 128838, Note_on_c, 0, 55, 74
2, 128843, Note_on_c, 0, 76, 86
2, 128844, Control_c, 0, 64, 35
2, 128855, Note_on_c, 0, 78, 0
2, 128859, Control_c, 0, 64, 34
2, 128874, Control_c, 0, 64, 32
2, 128889, Control_c, 0, 64, 31
2, 128912, Control_c, 0, 64, 30
2, 128947, Note_on_c, 0, 55, 0
2, 128951, Note_on_c, 0, 54, 70
2, 128957, Note_on_c, 0, 76, 0
2, 128963, Note_on_c, 0, 74, 81
2, 129033, Control_c, 0, 64, 32
2, 129048, Control_c, 0, 64, 33
2, 129058, Note_on_c, 0, 54, 0
2, 129064, Control_c, 0, 64, 34
2, 129079, Control_c, 0, 64, 35
2, 129087, Note_on_c, 0, 52, 75
2, 129092, Note_on_c, 0, 73, 85
2, 129094, Control_c, 0, 64, 36
2, 129102, Note_on_c, 0, 74, 0
2, 129110, Control_c, 0, 64, 38
2, 129125, Control_c, 0, 64, 40
2, 129141, Control_c, 0, 64, 42
2, 129150, Note_on_c, 0, 73, 0
2, 129156, Control_c, 0, 64, 44
2, 129171, Control_c, 0, 64, 46
2, 129186, Control_c, 0, 64, 47
2, 129246, Control_c, 0, 64, 46
2, 129262, Control_c, 0, 64, 46
2, 129277, Control_c, 0, 64, 45
2, 129292, Control_c, 0, 64, 44
2, 129307, Control_c, 0, 64, 44
2, 129322, Control_c, 0, 64, 43
2, 129338, Control_c, 0, 64, 42
2, 129356, Note_on_c, 0, 52, 0
2, 129356, Note_on_c, 0, 83, 86
2, 129368, Control_c, 0, 64, 42
2, 129382, Note_on_c, 0, 55, 53
2, 129383, Control_c, 0, 64, 41
2, 129398, Control_c, 0, 64, 40
2, 129413, Control_c, 0, 64, 39
2, 129429, Control_c, 0, 64, 38
2, 129443, Control_c, 0, 64, 36
2, 129444, Note_on_c, 0, 55, 0
2, 129459, Control_c, 0, 64, 35
2, 129477, Note_on_c, 0, 54, 62
2, 129519, Control_c, 0, 64, 36
2, 129573, Note_on_c, 0, 54, 0
2, 129596, Note_on_c, 0, 52, 72
2, 129611, Control_c, 0, 64, 35
2, 129627, Control_c, 0, 64, 34
2, 129642, Control_c, 0, 64, 34
2, 129680, Control_c, 0, 64, 33
2, 129695, Control_c, 0, 64, 32
2, 129696, Note_on_c, 0, 52, 0
2, 129711, Control_c, 0, 64, 31
2, 129715, Note_on_c, 0, 50, 64
2, 129726, Control_c, 0, 64, 29
2, 129741, Control_c, 0, 64, 28
2, 129756, Control_c, 0, 64, 27
2, 129771, Control_c, 0, 64, 25
2, 129787, Control_c, 0, 64, 24
2, 129816, Control_c, 0, 64, 25
2, 129837, Note_on_c, 0, 50, 0
2, 129841, Note_on_c, 0, 49, 77
2, 129847, Control_c, 0, 64, 26
2, 129863, Control_c, 0, 64, 27
2, 129892, Control_c, 0, 64, 28
2, 129916, Note_on_c, 0, 83, 0
2, 129923, Control_c, 0, 64, 29
2, 129939, Control_c, 0, 64, 31
2, 129954, Control_c, 0, 64, 32
2, 129957, Note_on_c, 0, 81, 79
2, 129969, Control_c, 0, 64, 33
2, 129984, Control_c, 0, 64, 34
2, 129999, Control_c, 0, 64, 34
2, 130030, Control_c, 0, 64, 35
2, 130079, Note_on_c, 0, 81, 0
2, 130085, Note_on_c, 0, 83, 74
2, 130136, Control_c, 0, 64, 34
2, 130195, Note_on_c, 0, 81, 77
2, 130213, Control_c, 0, 64, 34
2, 130220, Note_on_c, 0, 83, 0
2, 130274, Control_c, 0, 64, 34
2, 130319, Control_c, 0, 64, 35
2, 130323, Note_on_c, 0, 79, 73
2, 130329, Note_on_c, 0, 50, 76
2, 130336, Note_on_c, 0, 49, 0
2, 130343, Note_on_c, 0, 81, 0
2, 130364, Control_c, 0, 64, 36
2, 130434, Control_c, 0, 64, 36
2, 130450, Note_on_c, 0, 78, 73
2, 130451, Note_on_c, 0, 79, 0
2, 130464, Control_c, 0, 64, 37
2, 130494, Control_c, 0, 64, 38
2, 130525, Control_c, 0, 64, 38
2, 130547, Note_on_c, 0, 78, 0
2, 130556, Control_c, 0, 64, 39
2, 130557, Note_on_c, 0, 76, 66
2, 130571, Control_c, 0, 64, 39
2, 130571, Note_on_c, 0, 50, 0
2, 130586, Control_c, 0, 64, 40
2, 130601, Control_c, 0, 64, 40
2, 130616, Control_c, 0, 64, 41
2, 130630, Note_on_c, 0, 76, 0
2, 130632, Control_c, 0, 64, 42
2, 130639, Note_on_c, 0, 78, 76
2, 130647, Control_c, 0, 64, 44
2, 130662, Control_c, 0, 64, 44
2, 130679, Note_on_c, 0, 55, 66
2, 130709, Note_on_c, 0, 78, 0
2, 130718, Note_on_c, 0, 76, 69
2, 130746, Note_on_c, 0, 55, 0
2, 130749, Note_on_c, 0, 54, 73
2, 130768, Control_c, 0, 64, 44
2, 130768, Note_on_c, 0, 76, 0
2, 130770, Note_on_c, 0, 78, 75
2, 130784, Control_c, 0, 64, 43
2, 130793, Note_on_c, 0, 52, 79
2, 130798, Control_c, 0, 64, 42
2, 130811, Note_on_c, 0, 54, 0
2, 130813, Control_c, 0, 64, 40
2, 130829, Control_c, 0, 64, 38
2, 130834, Note_on_c, 0, 78, 0
2, 130843, Control_c, 0, 64, 37
2, 130844, Note_on_c, 0, 76, 70
2, 130893, Note_on_c, 0, 78, 76
2, 130899, Note_on_c, 0, 76, 0
2, 130905, Control_c, 0, 64, 38
2, 130908, Note_on_c, 0, 52, 0
2, 130915, Note_on_c, 0, 55, 75
2, 130965, Note_on_c, 0, 78, 0
2, 130982, Note_on_c, 0, 76, 65
2, 131014, Note_on_c, 0, 55, 0
2, 131029, Note_on_c, 0, 78, 74
2, 131030, Note_on_c, 0, 76, 0
2, 131035, Note_on_c, 0, 50, 78
2, 131072, Control_c, 0, 64, 37
2, 131087, Control_c, 0, 64, 37
2, 131098, Note_on_c, 0, 78, 0
2, 131103, Control_c, 0, 64, 36
2, 131113, Note_on_c, 0, 76, 67
2, 131123, Note_on_c, 0, 50, 0
2, 131141, Note_on_c, 0, 55, 67
2, 131159, Note_on_c, 0, 76, 0
2, 131159, Note_on_c, 0, 78, 71
2, 131179, Control_c, 0, 64, 37
2, 131194, Control_c, 0, 64, 37
2, 131232, Control_c, 0, 64, 38
2, 131233, Note_on_c, 0, 78, 0
2, 131247, Note_on_c, 0, 55, 0
2, 131252, Note_on_c, 0, 76, 61
2, 131284, Note_on_c, 0, 49, 80
2, 131289, Note_on_c, 0, 78, 70
2, 131298, Note_on_c, 0, 76, 0
2, 131315, Note_on_c, 0, 45, 0
2, 131323, Control_c, 0, 64, 38
2, 131362, Note_on_c, 0, 78, 0
2, 131369, Control_c, 0, 64, 39
2, 131370, Note_on_c, 0, 76, 65
2, 131395, Note_on_c, 0, 55, 60
2, 131400, Control_c, 0, 64, 39
2, 131414, Control_c, 0, 64, 40
2, 131421, Note_on_c, 0, 49, 0
2, 131424, Note_on_c, 0, 78, 61
2, 131425, Note_on_c, 0, 76, 0
2, 131445, Control_c, 0, 64, 40
2, 131461, Control_c, 0, 64, 41
2, 131488, Note_on_c, 0, 78, 0
2, 131500, Note_on_c, 0, 76, 68
2, 131506, Control_c, 0, 64, 41
2, 131520, Note_on_c, 0, 55, 0
2, 131523, Note_on_c, 0, 47, 79
2, 131547, Note_on_c, 0, 78, 63
2, 131552, Control_c, 0, 64, 42
2, 131553, Note_on_c, 0, 76, 0
2, 131582, Control_c, 0, 64, 42
2, 131616, Note_on_c, 0, 78, 0
2, 131625, Note_on_c, 0, 76, 67
2, 131642, Control_c, 0, 64, 43
2, 131642, Note_on_c, 0, 55, 73
2, 131643, Note_on_c, 0, 47, 0
2, 131678, Note_on_c, 0, 78, 67
2, 131681, Note_on_c, 0, 76, 0
2, 131758, Note_on_c, 0, 78, 0
2, 131763, Control_c, 0, 64, 42
2, 131766, Note_on_c, 0, 55, 0
2, 131772, Note_on_c, 0, 45, 67
2, 131772, Note_on_c, 0, 76, 67
2, 131809, Control_c, 0, 64, 43
2, 131868, Note_on_c, 0, 45, 0
2, 131901, Control_c, 0, 64, 43
2, 131901, Note_on_c, 0, 55, 66
2, 131931, Control_c, 0, 64, 44
2, 131947, Control_c, 0, 64, 44
2, 131962, Control_c, 0, 64, 45
2, 131984, Control_c, 0, 64, 46
2, 131999, Control_c, 0, 64, 47
2, 132014, Control_c, 0, 64, 47
2, 132033, Note_on_c, 0, 54, 78
2, 132040, Note_on_c, 0, 55, 0
2, 132045, Control_c, 0, 64, 48
2, 132062, Control_c, 0, 64, 49
2, 132076, Control_c, 0, 64, 49
2, 132091, Control_c, 0, 64, 50
2, 132107, Control_c, 0, 64, 50
2, 132136, Control_c, 0, 64, 51
2, 132148, Note_on_c, 0, 76, 0
2, 132151, Note_on_c, 0, 81, 69
2, 132155, Note_on_c, 0, 55, 86
2, 132167, Control_c, 0, 64, 51
2, 132167, Note_on_c, 0, 54, 0
2, 132213, Control_c, 0, 64, 51
2, 132231, Note_on_c, 0, 81, 0
2, 132243, Control_c, 0, 64, 50
2, 132243, Note_on_c, 0, 79, 66
2, 132260, Note_on_c, 0, 78, 72
2, 132265, Note_on_c, 0, 55, 0
2, 132270, Note_on_c, 0, 57, 80
2, 132305, Note_on_c, 0, 79, 0
2, 132320, Control_c, 0, 64, 50
2, 132350, Control_c, 0, 64, 49
2, 132365, Control_c, 0, 64, 48
2, 132381, Control_c, 0, 64, 48
2, 132396, Control_c, 0, 64, 47
2, 132410, Control_c, 0, 64, 46
2, 132411, Note_on_c, 0, 81, 75
2, 132422, Note_on_c, 0, 52, 62
2, 132426, Control_c, 0, 64, 44
2, 132426, Note_on_c, 0, 78, 0
2, 132441, Control_c, 0, 64, 42
2, 132456, Control_c, 0, 64, 40
2, 132472, Control_c, 0, 64, 39
2, 132486, Control_c, 0, 64, 37
2, 132502, Control_c, 0, 64, 37
2, 132517, Control_c, 0, 64, 36
2, 132532, Note_on_c, 0, 52, 0
2, 132547, Control_c, 0, 64, 36
2, 132548, Note_on_c, 0, 76, 69
2, 132549, Note_on_c, 0, 50, 60
2, 132552, Note_on_c, 0, 81, 0
2, 132578, Control_c, 0, 64, 35
2, 132593, Control_c, 0, 64, 34
2, 132607, Control_c, 0, 64, 34
2, 132638, Control_c, 0, 64, 33
2, 132641, Note_on_c, 0, 50, 0
2, 132664, Note_on_c, 0, 76, 0
2, 132666, Note_on_c, 0, 49, 56
2, 132670, Note_on_c, 0, 81, 77
2, 132684, Control_c, 0, 64, 34
2, 132780, Note_on_c, 0, 49, 0
2, 132796, Note_on_c, 0, 47, 63
2, 132807, Note_on_c, 0, 57, 0
2, 132814, Note_on_c, 0, 81, 0
2, 132815, Note_on_c, 0, 74, 63
2, 132904, Note_on_c, 0, 74, 0
2, 132920, Control_c, 0, 64, 34
2, 132934, Note_on_c, 0, 81, 64
2, 132938, Note_on_c, 0, 55, 60
2, 132951, Control_c, 0, 64, 35
2, 133027, Control_c, 0, 64, 36
2, 133032, Note_on_c, 0, 55, 0
2, 133056, Note_on_c, 0, 54, 64
2, 133063, Note_on_c, 0, 73, 74
2, 133072, Control_c, 0, 64, 36
2, 133083, Note_on_c, 0, 81, 0
2, 133149, Control_c, 0, 64, 36
2, 133175, Note_on_c, 0, 54, 0
2, 133179, Control_c, 0, 64, 35
2, 133182, Note_on_c, 0, 52, 73
2, 133186, Note_on_c, 0, 81, 64
2, 133193, Note_on_c, 0, 73, 0
2, 133209, Control_c, 0, 64, 34
2, 133240, Control_c, 0, 64, 34
2, 133300, Control_c, 0, 64, 34
2, 133302, Note_on_c, 0, 50, 70
2, 133313, Note_on_c, 0, 52, 0
2, 133322, Note_on_c, 0, 71, 70
2, 133330, Control_c, 0, 64, 35
2, 133331, Note_on_c, 0, 81, 0
2, 133346, Control_c, 0, 64, 36
2, 133361, Control_c, 0, 64, 37
2, 133375, Control_c, 0, 64, 38
2, 133391, Control_c, 0, 64, 39
2, 133406, Control_c, 0, 64, 40
2, 133422, Control_c, 0, 64, 41
2, 133428, Note_on_c, 0, 54, 77
2, 133437, Control_c, 0, 64, 42
2, 133448, Note_on_c, 0, 81, 83
2, 133451, Control_c, 0, 64, 43
2, 133452, Note_on_c, 0, 50, 0
2, 133454, Note_on_c, 0, 71, 0
2, 133467, Control_c, 0, 64, 44
2, 133482, Control_c, 0, 64, 44
2, 133520, Control_c, 0, 64, 45
2, 133535, Control_c, 0, 64, 46
2, 133551, Control_c, 0, 64, 46
2, 133564, Note_on_c, 0, 52, 86
2, 133566, Control_c, 0, 64, 47
2, 133570, Note_on_c, 0, 54, 0
2, 133575, Note_on_c, 0, 47, 0
2, 133582, Control_c, 0, 64, 47
2, 133584, Note_on_c, 0, 79, 73
2, 133607, Note_on_c, 0, 81, 0
2, 133627, Control_c, 0, 64, 47
2, 133687, Note_on_c, 0, 54, 81
2, 133699, Note_on_c, 0, 52, 0
2, 133704, Control_c, 0, 64, 46
2, 133704, Note_on_c, 0, 78, 76
2, 133708, Note_on_c, 0, 79, 0
2, 133719, Control_c, 0, 64, 46
2, 133810, Control_c, 0, 64, 46
2, 133812, Note_on_c, 0, 54, 0
2, 133816, Note_on_c, 0, 55, 77
2, 133834, Note_on_c, 0, 78, 0
2, 133838, Note_on_c, 0, 76, 70
2, 133840, Control_c, 0, 64, 47
2, 133931, Control_c, 0, 64, 46
2, 133948, Note_on_c, 0, 50, 68
2, 133948, Note_on_c, 0, 79, 69
2, 133956, Note_on_c, 0, 76, 0
2, 133992, Control_c, 0, 64, 46
2, 134023, Control_c, 0, 64, 45
2, 134038, Control_c, 0, 64, 44
2, 134063, Note_on_c, 0, 50, 0
2, 134069, Control_c, 0, 64, 44
2, 134070, Note_on_c, 0, 49, 71
2, 134079, Note_on_c, 0, 79, 0
2, 134081, Note_on_c, 0, 74, 63
2, 134099, Control_c, 0, 64, 43
2, 134114, Control_c, 0, 64, 43
2, 134144, Control_c, 0, 64, 42
2, 134165, Note_on_c, 0, 74, 0
2, 134194, Note_on_c, 0, 49, 0
2, 134195, Note_on_c, 0, 79, 68
2, 134209, Note_on_c, 0, 47, 65
2, 134266, Control_c, 0, 64, 43
2, 134304, Control_c, 0, 64, 43
2, 134319, Control_c, 0, 64, 44
2, 134324, Note_on_c, 0, 55, 0
2, 134327, Note_on_c, 0, 47, 0
2, 134328, Note_on_c, 0, 45, 72
2, 134334, Control_c, 0, 64, 44
2, 134334, Note_on_c, 0, 79, 0
2, 134336, Note_on_c, 0, 73, 73
2, 134349, Control_c, 0, 64, 45
2, 134364, Control_c, 0, 64, 45
2, 134380, Control_c, 0, 64, 46
2, 134436, Note_on_c, 0, 73, 0
2, 134454, Note_on_c, 0, 54, 65
2, 134455, Note_on_c, 0, 79, 69
2, 134486, Control_c, 0, 64, 45
2, 134547, Note_on_c, 0, 54, 0
2, 134573, Note_on_c, 0, 52, 66
2, 134578, Control_c, 0, 64, 45
2, 134595, Note_on_c, 0, 71, 56
2, 134595, Note_on_c, 0, 79, 0
2, 134624, Control_c, 0, 64, 45
2, 134682, Note_on_c, 0, 52, 0
2, 134689, Note_on_c, 0, 50, 71
2, 134713, Note_on_c, 0, 79, 73
2, 134717, Note_on_c, 0, 71, 0
2, 134730, Control_c, 0, 64, 45
2, 134760, Control_c, 0, 64, 45
2, 134808, Note_on_c, 0, 49, 77
2, 134830, Note_on_c, 0, 69, 76
2, 134835, Note_on_c, 0, 79, 0
2, 134838, Note_on_c, 0, 50, 0
2, 134866, Control_c, 0, 64, 46
2, 134896, Control_c, 0, 64, 46
2, 134912, Control_c, 0, 64, 47
2, 134914, Note_on_c, 0, 45, 0
2, 134927, Control_c, 0, 64, 47
2, 134936, Note_on_c, 0, 52, 83
2, 134948, Note_on_c, 0, 69, 0
2, 134949, Note_on_c, 0, 79, 74
2, 134951, Note_on_c, 0, 49, 0
2, 134957, Control_c, 0, 64, 48
2, 134972, Control_c, 0, 64, 48
2, 135002, Control_c, 0, 64, 49
2, 135028, Note_on_c, 0, 79, 0
2, 135056, Control_c, 0, 64, 50
2, 135071, Note_on_c, 0, 50, 82
2, 135081, Note_on_c, 0, 52, 0
2, 135086, Control_c, 0, 64, 50
2, 135086, Note_on_c, 0, 78, 76
2, 135102, Control_c, 0, 64, 51
2, 135117, Control_c, 0, 64, 50
2, 135131, Control_c, 0, 64, 50
2, 135147, Control_c, 0, 64, 49
2, 135162, Control_c, 0, 64, 48
2, 135178, Control_c, 0, 64, 47
2, 135192, Note_on_c, 0, 52, 85
2, 135193, Control_c, 0, 64, 46
2, 135197, Note_on_c, 0, 50, 0
2, 135205, Note_on_c, 0, 78, 0
2, 135207, Control_c, 0, 64, 45
2, 135209, Note_on_c, 0, 76, 60
2, 135223, Control_c, 0, 64, 44
2, 135238, Control_c, 0, 64, 43
2, 135253, Control_c, 0, 64, 43
2, 135283, Control_c, 0, 64, 42
2, 135309, Note_on_c, 0, 52, 0
2, 135318, Note_on_c, 0, 54, 70
2, 135330, Control_c, 0, 64, 43
2, 135333, Note_on_c, 0, 76, 0
2, 135343, Note_on_c, 0, 74, 64
2, 135346, Control_c, 0, 64, 44
2, 135361, Control_c, 0, 64, 44
2, 135432, Note_on_c, 0, 74, 0
2, 135451, Control_c, 0, 64, 45
2, 135452, Note_on_c, 0, 78, 74
2, 135465, Note_on_c, 0, 49, 62
2, 135467, Control_c, 0, 64, 45
2, 135482, Control_c, 0, 64, 46
2, 135579, Note_on_c, 0, 73, 75
2, 135580, Note_on_c, 0, 49, 0
2, 135589, Note_on_c, 0, 47, 63
2, 135591, Note_on_c, 0, 78, 0
2, 135689, Note_on_c, 0, 47, 0
2, 135694, Note_on_c, 0, 78, 76
2, 135700, Note_on_c, 0, 73, 0
2, 135702, Note_on_c, 0, 45, 62
2, 135704, Note_on_c, 0, 54, 0
2, 135709, Control_c, 0, 64, 46
2, 135754, Control_c, 0, 64, 46
2, 135782, Note_on_c, 0, 45, 0
2, 135800, Control_c, 0, 64, 45
2, 135814, Note_on_c, 0, 43, 67
2, 135833, Note_on_c, 0, 71, 71
2, 135846, Note_on_c, 0, 78, 0
2, 135900, Control_c, 0, 64, 45
2, 135944, Note_on_c, 0, 71, 0
2, 135954, Note_on_c, 0, 47, 64
2, 135955, Note_on_c, 0, 78, 75
2, 135956, Note_on_c, 0, 43, 0
2, 135974, Control_c, 0, 64, 45
2, 136064, Note_on_c, 0, 47, 0
2, 136068, Note_on_c, 0, 69, 73
2, 136073, Note_on_c, 0, 49, 70
2, 136081, Control_c, 0, 64, 46
2, 136085, Note_on_c, 0, 78, 0
2, 136171, Note_on_c, 0, 49, 0
2, 136181, Note_on_c, 0, 69, 0
2, 136185, Note_on_c, 0, 50, 68
2, 136188, Note_on_c, 0, 78, 81
2, 136219, Control_c, 0, 64, 46
2, 136249, Control_c, 0, 64, 47
2, 136289, Note_on_c, 0, 50, 0
2, 136294, Control_c, 0, 64, 47
2, 136309, Note_on_c, 0, 67, 72
2, 136311, Note_on_c, 0, 52, 69
2, 136336, Note_on_c, 0, 78, 0
2, 136341, Control_c, 0, 64, 48
2, 136356, Control_c, 0, 64, 48
2, 136371, Control_c, 0, 64, 49
2, 136386, Control_c, 0, 64, 50
2, 136401, Control_c, 0, 64, 51
2, 136413, Note_on_c, 0, 67, 0
2, 136416, Control_c, 0, 64, 51
2, 136426, Note_on_c, 0, 52, 0
2, 136432, Control_c, 0, 64, 52
2, 136432, Note_on_c, 0, 54, 77
2, 136447, Control_c, 0, 64, 52
2, 136455, Note_on_c, 0, 76, 37
2, 136460, Note_on_c, 0, 77, 43
2, 136463, Control_c, 0, 64, 53
2, 136487, Note_on_c, 0, 77, 0
2, 136541, Note_on_c, 0, 76, 0
2, 136541, Note_on_c, 0, 76, 33
2, 136545, Note_on_c, 0, 54, 0
2, 136548, Note_on_c, 0, 55, 71
2, 136568, Control_c, 0, 64, 52
2, 136591, Control_c, 0, 64, 52
2, 136609, Note_on_c, 0, 76, 0
2, 136613, Note_on_c, 0, 74, 53
2, 136622, Control_c, 0, 64, 51
2, 136668, Note_on_c, 0, 55, 0
2, 136668, Note_on_c, 0, 57, 69
2, 136728, Control_c, 0, 64, 52
2, 136730, Note_on_c, 0, 74, 0
2, 136731, Note_on_c, 0, 73, 56
2, 136762, Note_on_c, 0, 57, 0
2, 136790, Note_on_c, 0, 55, 67
2, 136834, Control_c, 0, 64, 51
2, 136842, Note_on_c, 0, 76, 65
2, 136845, Note_on_c, 0, 73, 0
2, 136896, Note_on_c, 0, 55, 0
2, 136911, Note_on_c, 0, 54, 62
2, 137010, Note_on_c, 0, 54, 0
2, 137025, Note_on_c, 0, 52, 76
2, 137041, Note_on_c, 0, 71, 63
2, 137055, Note_on_c, 0, 76, 0
2, 137132, Note_on_c, 0, 52, 0
2, 137144, Note_on_c, 0, 71, 0
2, 137145, Note_on_c, 0, 50, 60
2, 137151, Note_on_c, 0, 76, 66
2, 137266, Note_on_c, 0, 50, 0
2, 137279, Note_on_c, 0, 49, 66
2, 137285, Note_on_c, 0, 76, 0
2, 137288, Note_on_c, 0, 69, 69
2, 137360, Control_c, 0, 64, 51
2, 137389, Note_on_c, 0, 49, 0
2, 137396, Note_on_c, 0, 69, 0
2, 137407, Note_on_c, 0, 45, 59
2, 137413, Note_on_c, 0, 76, 73
2, 137524, Note_on_c, 0, 67, 74
2, 137527, Note_on_c, 0, 45, 0
2, 137528, Note_on_c, 0, 47, 65
2, 137542, Note_on_c, 0, 76, 0
2, 137618, Note_on_c, 0, 67, 0
2, 137643, Note_on_c, 0, 76, 72
2, 137648, Note_on_c, 0, 47, 0
2, 137649, Control_c, 0, 64, 51
2, 137649, Note_on_c, 0, 49, 76
2, 137725, Control_c, 0, 64, 52
2, 137738, Note_on_c, 0, 76, 0
2, 137755, Control_c, 0, 64, 53
2, 137758, Note_on_c, 0, 49, 0
2, 137761, Note_on_c, 0, 66, 79
2, 137766, Note_on_c, 0, 50, 72
2, 137787, Control_c, 0, 64, 53
2, 137816, Control_c, 0, 64, 54
2, 137847, Control_c, 0, 64, 53
2, 137856, Note_on_c, 0, 50, 0
2, 137872, Note_on_c, 0, 66, 0
2, 137878, Control_c, 0, 64, 53
2, 137878, Note_on_c, 0, 52, 78
2, 137882, Note_on_c, 0, 76, 73
2, 137954, Control_c, 0, 64, 52
2, 137972, Note_on_c, 0, 76, 0
2, 137984, Note_on_c, 0, 52, 0
2, 137998, Note_on_c, 0, 54, 77
2, 138007, Note_on_c, 0, 74, 56
2, 138116, Note_on_c, 0, 54, 0
2, 138124, Note_on_c, 0, 55, 81
2, 138128, Note_on_c, 0, 66, 68
2, 138132, Note_on_c, 0, 74, 0
2, 138187, Control_c, 0, 64, 53
2, 138228, Note_on_c, 0, 55, 0
2, 138244, Note_on_c, 0, 57, 88
2, 138254, Note_on_c, 0, 64, 68
2, 138277, Note_on_c, 0, 66, 0
2, 138286, Note_on_c, 0, 57, 0
2, 138338, Control_c, 0, 64, 52
2, 138360, Note_on_c, 0, 64, 0
2, 138369, Note_on_c, 0, 67, 65
2, 138383, Control_c, 0, 64, 52
2, 138445, Control_c, 0, 64, 51
2, 138459, Control_c, 0, 64, 51
2, 138469, Note_on_c, 0, 67, 0
2, 138481, Note_on_c, 0, 45, 76
2, 138490, Control_c, 0, 64, 50
2, 138491, Note_on_c, 0, 74, 62
2, 138506, Control_c, 0, 64, 50
2, 138521, Control_c, 0, 64, 49
2, 138536, Control_c, 0, 64, 47
2, 138536, Note_on_c, 0, 45, 0
2, 138552, Control_c, 0, 64, 46
2, 138567, Control_c, 0, 64, 45
2, 138570, Note_on_c, 0, 74, 0
2, 138581, Control_c, 0, 64, 44
2, 138598, Control_c, 0, 64, 42
2, 138611, Note_on_c, 0, 73, 62
2, 138613, Control_c, 0, 64, 41
2, 138628, Control_c, 0, 64, 40
2, 138643, Control_c, 0, 64, 39
2, 138658, Control_c, 0, 64, 39
2, 138689, Control_c, 0, 64, 38
2, 138702, Note_on_c, 0, 73, 0
2, 138721, Note_on_c, 0, 74, 61
2, 138727, Note_on_c, 0, 50, 84
2, 138750, Control_c, 0, 64, 39
2, 138765, Control_c, 0, 64, 39
2, 138768, Note_on_c, 0, 50, 0
2, 138799, Note_on_c, 0, 74, 0
2, 138806, Note_on_c, 0, 76, 69
2, 138810, Control_c, 0, 64, 39
2, 138826, Control_c, 0, 64, 38
2, 138871, Control_c, 0, 64, 38
2, 138891, Note_on_c, 0, 76, 0
2, 138913, Note_on_c, 0, 74, 63
2, 138939, Control_c, 0, 64, 38
2, 138961, Note_on_c, 0, 74, 0
2, 138978, Note_on_c, 0, 76, 65
2, 138986, Note_on_c, 0, 48, 69
2, 139015, Control_c, 0, 64, 39
2, 139042, Note_on_c, 0, 76, 0
2, 139065, Note_on_c, 0, 74, 63
2, 139081, Note_on_c, 0, 48, 0
2, 139091, Control_c, 0, 64, 39
2, 139096, Note_on_c, 0, 50, 71
2, 139107, Note_on_c, 0, 74, 0
2, 139119, Note_on_c, 0, 76, 58
2, 139136, Control_c, 0, 64, 40
2, 139167, Control_c, 0, 64, 40
2, 139175, Note_on_c, 0, 76, 0
2, 139196, Note_on_c, 0, 74, 62
2, 139198, Control_c, 0, 64, 41
2, 139208, Note_on_c, 0, 50, 0
2, 139214, Note_on_c, 0, 52, 79
2, 139228, Control_c, 0, 64, 41
2, 139240, Note_on_c, 0, 74, 0
2, 139243, Control_c, 0, 64, 42
2, 139244, Note_on_c, 0, 76, 63
2, 139287, Note_on_c, 0, 52, 0
2, 139306, Note_on_c, 0, 76, 0
2, 139318, Note_on_c, 0, 50, 75
2, 139324, Note_on_c, 0, 74, 59
2, 139368, Note_on_c, 0, 74, 0
2, 139373, Note_on_c, 0, 76, 61
2, 139380, Control_c, 0, 64, 42
2, 139411, Control_c, 0, 64, 42
2, 139435, Note_on_c, 0, 48, 89
2, 139435, Note_on_c, 0, 50, 0
2, 139435, Note_on_c, 0, 76, 0
2, 139441, Control_c, 0, 64, 42
2, 139447, Note_on_c, 0, 74, 64
2, 139472, Control_c, 0, 64, 44
2, 139476, Note_on_c, 0, 48, 0
2, 139487, Control_c, 0, 64, 45
2, 139496, Note_on_c, 0, 74, 0
2, 139498, Note_on_c, 0, 76, 67
2, 139501, Control_c, 0, 64, 45
2, 139517, Control_c, 0, 64, 46
2, 139558, Note_on_c, 0, 76, 0
2, 139563, Control_c, 0, 64, 46
2, 139577, Control_c, 0, 64, 47
2, 139583, Note_on_c, 0, 74, 61
2, 139593, Control_c, 0, 64, 47
2, 139620, Note_on_c, 0, 74, 0
2, 139622, Note_on_c, 0, 76, 63
2, 139691, Note_on_c, 0, 47, 77
2, 139691, Note_on_c, 0, 76, 0
2, 139715, Note_on_c, 0, 74, 67
2, 139737, Control_c, 0, 64, 48
2, 139752, Note_on_c, 0, 74, 0
2, 139752, Note_on_c, 0, 76, 63
2, 139753, Control_c, 0, 64, 48
2, 139768, Control_c, 0, 64, 49
2, 139802, Note_on_c, 0, 48, 76
2, 139808, Note_on_c, 0, 47, 0
2, 139808, Note_on_c, 0, 76, 0
2, 139813, Control_c, 0, 64, 50
2, 139826, Note_on_c, 0, 74, 66
2, 139828, Control_c, 0, 64, 50
2, 139858, Control_c, 0, 64, 51
2, 139861, Note_on_c, 0, 76, 65
2, 139866, Note_on_c, 0, 74, 0
2, 139924, Note_on_c, 0, 48, 0
2, 139927, Note_on_c, 0, 50, 73
2, 139927, Note_on_c, 0, 76, 0
2, 139935, Note_on_c, 0, 74, 64
2, 139965, Control_c, 0, 64, 50
2, 140047, Note_on_c, 0, 48, 79
2, 140052, Note_on_c, 0, 50, 0
2, 140086, Control_c, 0, 64, 50
2, 140117, Control_c, 0, 64, 49
2, 140148, Note_on_c, 0, 48, 0
2, 140177, Note_on_c, 0, 47, 85
2, 140233, Note_on_c, 0, 47, 0
2, 140240, Control_c, 0, 64, 49
2, 140292, Note_on_c, 0, 67, 79
2, 140316, Control_c, 0, 64, 48
2, 140435, Note_on_c, 0, 67, 0
2, 140440, Note_on_c, 0, 65, 75
2, 140449, Note_on_c, 0, 48, 81
2, 140475, Control_c, 0, 64, 48
2, 140490, Control_c, 0, 64, 47
2, 140506, Control_c, 0, 64, 47
2, 140506, Note_on_c, 0, 48, 0
2, 140518, Note_on_c, 0, 65, 0
2, 140521, Control_c, 0, 64, 46
2, 140536, Control_c, 0, 64, 45
2, 140551, Control_c, 0, 64, 45
2, 140567, Note_on_c, 0, 64, 77
2, 140612, Control_c, 0, 64, 45
2, 140628, Control_c, 0, 64, 46
2, 140658, Control_c, 0, 64, 46
2, 140673, Control_c, 0, 64, 47
2, 140688, Control_c, 0, 64, 47
2, 140695, Note_on_c, 0, 62, 74
2, 140697, Note_on_c, 0, 64, 0
2, 140700, Note_on_c, 0, 50, 86
2, 140703, Control_c, 0, 64, 48
2, 140719, Control_c, 0, 64, 49
2, 140749, Control_c, 0, 64, 49
2, 140750, Note_on_c, 0, 50, 0
2, 140767, Note_on_c, 0, 62, 0
2, 140795, Control_c, 0, 64, 50
2, 140810, Control_c, 0, 64, 50
2, 140820, Note_on_c, 0, 65, 72
2, 140825, Control_c, 0, 64, 51
2, 140840, Control_c, 0, 64, 52
2, 140855, Control_c, 0, 64, 53
2, 140885, Control_c, 0, 64, 53
2, 140953, Note_on_c, 0, 64, 72
2, 140955, Note_on_c, 0, 55, 80
2, 140955, Note_on_c, 0, 65, 0
2, 140961, Control_c, 0, 64, 54
2, 140985, Note_on_c, 0, 55, 0
2, 141007, Control_c, 0, 64, 53
2, 141022, Control_c, 0, 64, 53
2, 141050, Note_on_c, 0, 74, 0
2, 141053, Control_c, 0, 64, 52
2, 141068, Note_on_c, 0, 64, 0
2, 141075, Note_on_c, 0, 65, 70
2, 141098, Control_c, 0, 64, 52
2, 141114, Control_c, 0, 64, 51
2, 141129, Control_c, 0, 64, 50
2, 141145, Control_c, 0, 64, 49
2, 141160, Control_c, 0, 64, 47
2, 141182, Control_c, 0, 64, 45
2, 141198, Control_c, 0, 64, 43
2, 141211, Note_on_c, 0, 65, 0
2, 141213, Control_c, 0, 64, 41
2, 141215, Note_on_c, 0, 45, 78
2, 141217, Note_on_c, 0, 64, 73
2, 141217, Note_on_c, 0, 72, 78
2, 141229, Control_c, 0, 64, 39
2, 141244, Control_c, 0, 64, 36
2, 141259, Control_c, 0, 64, 34
2, 141274, Control_c, 0, 64, 31
2, 141289, Control_c, 0, 64, 28
2, 141291, Note_on_c, 0, 64, 0
2, 141305, Control_c, 0, 64, 26
2, 141319, Control_c, 0, 64, 24
2, 141349, Note_on_c, 0, 62, 66
2, 141350, Control_c, 0, 64, 23
2, 141441, Control_c, 0, 64, 21
2, 141456, Control_c, 0, 64, 20
2, 141463, Note_on_c, 0, 62, 0
2, 141474, Note_on_c, 0, 60, 66
2, 141523, Note_on_c, 0, 60, 0
2, 141578, Control_c, 0, 64, 21
2, 141593, Control_c, 0, 64, 24
2, 141594, Note_on_c, 0, 64, 66
2, 141608, Control_c, 0, 64, 26
2, 141623, Control_c, 0, 64, 28
2, 141639, Control_c, 0, 64, 29
2, 141653, Control_c, 0, 64, 31
2, 141669, Control_c, 0, 64, 32
2, 141675, Note_on_c, 0, 45, 0
2, 141684, Control_c, 0, 64, 34
2, 141699, Control_c, 0, 64, 36
2, 141715, Control_c, 0, 64, 37
2, 141718, Note_on_c, 0, 47, 78
2, 141720, Note_on_c, 0, 62, 70
2, 141725, Note_on_c, 0, 64, 0
2, 141729, Control_c, 0, 64, 37
2, 141753, Note_on_c, 0, 47, 0
2, 141760, Control_c, 0, 64, 38
2, 141775, Control_c, 0, 64, 38
2, 141814, Note_on_c, 0, 62, 0
2, 141815, Note_on_c, 0, 72, 0
2, 141841, Note_on_c, 0, 64, 75
2, 141960, Note_on_c, 0, 64, 0
2, 141971, Note_on_c, 0, 71, 78
2, 141973, Note_on_c, 0, 62, 80
2, 141976, Note_on_c, 0, 48, 82
2, 142031, Note_on_c, 0, 48, 0
2, 142031, Note_on_c, 0, 62, 0
2, 142057, Control_c, 0, 64, 39
2, 142073, Control_c, 0, 64, 39
2, 142088, Control_c, 0, 64, 40
2, 142100, Note_on_c, 0, 60, 69
2, 142163, Control_c, 0, 64, 39
2, 142209, Control_c, 0, 64, 40
2, 142216, Note_on_c, 0, 60, 0
2, 142221, Note_on_c, 0, 59, 67
2, 142225, Control_c, 0, 64, 40
2, 142227, Note_on_c, 0, 50, 82
2, 142239, Control_c, 0, 64, 41
2, 142254, Control_c, 0, 64, 41
2, 142276, Note_on_c, 0, 50, 0
2, 142276, Note_on_c, 0, 59, 0
2, 142285, Control_c, 0, 64, 42
2, 142299, Control_c, 0, 64, 42
2, 142315, Control_c, 0, 64, 43
2, 142330, Control_c, 0, 64, 44
2, 142346, Control_c, 0, 64, 45
2, 142346, Note_on_c, 0, 62, 70
2, 142361, Control_c, 0, 64, 46
2, 142376, Control_c, 0, 64, 47
2, 142392, Control_c, 0, 64, 47
2, 142422, Control_c, 0, 64, 48
2, 142452, Control_c, 0, 64, 49
2, 142471, Note_on_c, 0, 62, 0
2, 142477, Note_on_c, 0, 52, 89
2, 142483, Control_c, 0, 64, 50
2, 142486, Note_on_c, 0, 60, 68
2, 142514, Control_c, 0, 64, 50
2, 142517, Note_on_c, 0, 52, 0
2, 142560, Control_c, 0, 64, 51
2, 142569, Note_on_c, 0, 60, 0
2, 142590, Control_c, 0, 64, 52
2, 142594, Note_on_c, 0, 62, 72
2, 142605, Control_c, 0, 64, 52
2, 142605, Note_on_c, 0, 71, 0
2, 142620, Control_c, 0, 64, 53
2, 142731, Note_on_c, 0, 42, 84
2, 142733, Note_on_c, 0, 62, 0
2, 142737, Note_on_c, 0, 60, 74
2, 142741, Note_on_c, 0, 69, 77
2, 142807, Note_on_c, 0, 60, 0
2, 142826, Control_c, 0, 64, 52
2, 142841, Control_c, 0, 64, 52
2, 142856, Control_c, 0, 64, 51
2, 142872, Control_c, 0, 64, 51
2, 142878, Note_on_c, 0, 59, 68
2, 142887, Control_c, 0, 64, 50
2, 142902, Control_c, 0, 64, 50
2, 142918, Control_c, 0, 64, 49
2, 142932, Control_c, 0, 64, 47
2, 142948, Control_c, 0, 64, 47
2, 142963, Control_c, 0, 64, 46
2, 142994, Control_c, 0, 64, 45
2, 142997, Note_on_c, 0, 59, 0
2, 143000, Note_on_c, 0, 57, 67
2, 143023, Control_c, 0, 64, 45
2, 143046, Note_on_c, 0, 57, 0
2, 143054, Control_c, 0, 64, 44
2, 143070, Control_c, 0, 64, 43
2, 143084, Control_c, 0, 64, 42
2, 143116, Note_on_c, 0, 60, 72
2, 143129, Control_c, 0, 64, 43
2, 143145, Control_c, 0, 64, 43
2, 143160, Control_c, 0, 64, 44
2, 143175, Control_c, 0, 64, 44
2, 143202, Note_on_c, 0, 60, 0
2, 143236, Control_c, 0, 64, 45
2, 143236, Note_on_c, 0, 59, 77
2, 143237, Note_on_c, 0, 43, 75
2, 143251, Control_c, 0, 64, 45
2, 143265, Note_on_c, 0, 42, 0
2, 143267, Control_c, 0, 64, 46
2, 143283, Note_on_c, 0, 43, 0
2, 143285, Note_on_c, 0, 69, 0
2, 143312, Control_c, 0, 64, 45
2, 143363, Note_on_c, 0, 67, 73
2, 143434, Control_c, 0, 64, 46
2, 143495, Note_on_c, 0, 69, 79
2, 143496, Note_on_c, 0, 42, 72
2, 143515, Note_on_c, 0, 67, 0
2, 143518, Control_c, 0, 64, 47
2, 143533, Control_c, 0, 64, 47
2, 143549, Control_c, 0, 64, 48
2, 143564, Control_c, 0, 64, 48
2, 143578, Control_c, 0, 64, 49
2, 143594, Control_c, 0, 64, 50
2, 143599, Note_on_c, 0, 42, 0
2, 143609, Control_c, 0, 64, 50
2, 143616, Note_on_c, 0, 69, 0
2, 143617, Note_on_c, 0, 43, 72
2, 143619, Note_on_c, 0, 67, 78
2, 143625, Control_c, 0, 64, 51
2, 143640, Control_c, 0, 64, 51
2, 143710, Note_on_c, 0, 67, 0
2, 143721, Note_on_c, 0, 43, 0
2, 143722, Note_on_c, 0, 45, 75
2, 143733, Note_on_c, 0, 66, 76
2, 143737, Note_on_c, 0, 59, 0
2, 143746, Control_c, 0, 64, 51
2, 143761, Control_c, 0, 64, 50
2, 143776, Control_c, 0, 64, 49
2, 143792, Control_c, 0, 64, 46
2, 143807, Control_c, 0, 64, 42
2, 143816, Note_on_c, 0, 45, 0
2, 143822, Control_c, 0, 64, 37
2, 143826, Note_on_c, 0, 47, 75
2, 143838, Control_c, 0, 64, 31
2, 143844, Note_on_c, 0, 67, 72
2, 143852, Control_c, 0, 64, 23
2, 143853, Note_on_c, 0, 66, 0
2, 143868, Control_c, 0, 64, 0
2, 143940, Note_on_c, 0, 47, 0
2, 143962, Note_on_c, 0, 57, 66
2, 143963, Note_on_c, 0, 36, 75
2, 143977, Note_on_c, 0, 66, 72
2, 144000, Note_on_c, 0, 57, 0
2, 144004, Control_c, 0, 64, 61
2, 144012, Note_on_c, 0, 36, 0
2, 144019, Control_c, 0, 64, 67
2, 144029, Note_on_c, 0, 67, 0
2, 144035, Control_c, 0, 64, 72
2, 144049, Control_c, 0, 64, 75
2, 144065, Control_c, 0, 64, 77
2, 144080, Control_c, 0, 64, 78
2, 144085, Note_on_c, 0, 66, 0
2, 144087, Note_on_c, 0, 62, 60
2, 144152, Note_on_c, 0, 62, 0
2, 144156, Control_c, 0, 64, 77
2, 144168, Note_on_c, 0, 64, 52
2, 144171, Control_c, 0, 64, 76
2, 144187, Control_c, 0, 64, 74
2, 144202, Control_c, 0, 64, 71
2, 144214, Note_on_c, 0, 60, 70
2, 144217, Control_c, 0, 64, 66
2, 144226, Note_on_c, 0, 64, 0
2, 144226, Note_on_c, 0, 66, 75
2, 144232, Control_c, 0, 64, 60
2, 144247, Control_c, 0, 64, 52
2, 144270, Control_c, 0, 64, 47
2, 144285, Control_c, 0, 64, 46
2, 144290, Note_on_c, 0, 60, 0
2, 144300, Control_c, 0, 64, 43
2, 144315, Control_c, 0, 64, 37
2, 144330, Control_c, 0, 64, 24
2, 144345, Note_on_c, 0, 59, 60
2, 144346, Note_on_c, 0, 62, 65
2, 144348, Control_c, 0, 64, 0
2, 144352, Note_on_c, 0, 66, 0
2, 144455, Note_on_c, 0, 59, 0
2, 144468, Note_on_c, 0, 62, 0
2, 144469, Control_c, 0, 64, 10
2, 144471, Note_on_c, 0, 67, 77
2, 144474, Note_on_c, 0, 57, 65
2, 144484, Control_c, 0, 64, 15
2, 144498, Control_c, 0, 64, 17
2, 144542, Note_on_c, 0, 57, 0
2, 144545, Control_c, 0, 64, 18
2, 144560, Control_c, 0, 64, 21
2, 144574, Control_c, 0, 64, 25
2, 144580, Note_on_c, 0, 67, 0
2, 144583, Note_on_c, 0, 55, 63
2, 144586, Note_on_c, 0, 62, 67
2, 144590, Control_c, 0, 64, 28
2, 144605, Control_c, 0, 64, 31
2, 144620, Control_c, 0, 64, 32
2, 144651, Control_c, 0, 64, 33
2, 144651, Note_on_c, 0, 55, 0
2, 144682, Control_c, 0, 64, 34
2, 144696, Control_c, 0, 64, 35
2, 144697, Note_on_c, 0, 54, 53
2, 144710, Note_on_c, 0, 69, 75
2, 144712, Control_c, 0, 64, 37
2, 144727, Control_c, 0, 64, 38
2, 144730, Note_on_c, 0, 62, 0
2, 144741, Control_c, 0, 64, 38
2, 144808, Note_on_c, 0, 54, 0
2, 144815, Note_on_c, 0, 52, 62
2, 144818, Note_on_c, 0, 69, 0
2, 144833, Control_c, 0, 64, 39
2, 144847, Note_on_c, 0, 62, 61
2, 144848, Control_c, 0, 64, 40
2, 144863, Control_c, 0, 64, 41
2, 144879, Control_c, 0, 64, 41
2, 144907, Note_on_c, 0, 52, 0
2, 144947, Note_on_c, 0, 50, 58
2, 144961, Note_on_c, 0, 71, 67
2, 144968, Note_on_c, 0, 62, 0
2, 144985, Control_c, 0, 64, 42
2, 145000, Control_c, 0, 64, 42
2, 145036, Note_on_c, 0, 50, 0
2, 145076, Note_on_c, 0, 48, 60
2, 145085, Note_on_c, 0, 71, 0
2, 145098, Note_on_c, 0, 62, 60
2, 145129, Control_c, 0, 64, 43
2, 145145, Control_c, 0, 64, 43
2, 145175, Note_on_c, 0, 48, 0
2, 145191, Control_c, 0, 64, 43
2, 145196, Note_on_c, 0, 62, 0
2, 145204, Note_on_c, 0, 47, 58
2, 145206, Control_c, 0, 64, 42
2, 145219, Note_on_c, 0, 72, 67
2, 145278, Note_on_c, 0, 72, 0
2, 145289, Note_on_c, 0, 47, 0
2, 145324, Note_on_c, 0, 62, 58
2, 145332, Note_on_c, 0, 45, 50
2, 145373, Control_c, 0, 64, 43
2, 145409, Note_on_c, 0, 45, 0
2, 145418, Control_c, 0, 64, 43
2, 145421, Note_on_c, 0, 62, 0
2, 145452, Note_on_c, 0, 43, 47
2, 145468, Note_on_c, 0, 71, 53
2, 145525, Control_c, 0, 64, 44
2, 145540, Control_c, 0, 64, 44
2, 145555, Note_on_c, 0, 71, 0
2, 145571, Control_c, 0, 64, 45
2, 145572, Note_on_c, 0, 43, 0
2, 145579, Note_on_c, 0, 79, 66
2, 145581, Note_on_c, 0, 45, 47
2, 145601, Control_c, 0, 64, 46
2, 145632, Control_c, 0, 64, 46
2, 145647, Control_c, 0, 64, 47
2, 145677, Control_c, 0, 64, 47
2, 145711, Note_on_c, 0, 45, 0
2, 145711, Note_on_c, 0, 79, 0
2, 145712, Note_on_c, 0, 77, 70
2, 145716, Note_on_c, 0, 47, 56
2, 145723, Control_c, 0, 64, 48
2, 145753, Control_c, 0, 64, 48
2, 145801, Note_on_c, 0, 47, 0
2, 145806, Control_c, 0, 64, 49
2, 145821, Note_on_c, 0, 77, 0
2, 145827, Note_on_c, 0, 43, 50
2, 145835, Note_on_c, 0, 76, 72
2, 145882, Control_c, 0, 64, 49
2, 145913, Control_c, 0, 64, 50
2, 145928, Control_c, 0, 64, 50
2, 145943, Control_c, 0, 64, 51
2, 145949, Note_on_c, 0, 43, 0
2, 145949, Note_on_c, 0, 48, 58
2, 145959, Note_on_c, 0, 74, 65
2, 145960, Note_on_c, 0, 76, 0
2, 146005, Control_c, 0, 64, 51
2, 146035, Control_c, 0, 64, 52
2, 146050, Control_c, 0, 64, 52
2, 146054, Note_on_c, 0, 48, 0
2, 146060, Note_on_c, 0, 74, 0
2, 146066, Control_c, 0, 64, 53
2, 146076, Note_on_c, 0, 43, 57
2, 146082, Note_on_c, 0, 72, 69
2, 146096, Control_c, 0, 64, 53
2, 146111, Control_c, 0, 64, 54
2, 146141, Control_c, 0, 64, 54
2, 146187, Control_c, 0, 64, 55
2, 146197, Note_on_c, 0, 43, 0
2, 146198, Note_on_c, 0, 50, 58
2, 146202, Control_c, 0, 64, 55
2, 146207, Note_on_c, 0, 71, 67
2, 146207, Note_on_c, 0, 72, 0
2, 146217, Control_c, 0, 64, 56
2, 146302, Note_on_c, 0, 50, 0
2, 146319, Note_on_c, 0, 43, 57
2, 146326, Note_on_c, 0, 69, 73
2, 146336, Note_on_c, 0, 71, 0
2, 146415, Control_c, 0, 64, 55
2, 146443, Note_on_c, 0, 69, 0
2, 146444, Note_on_c, 0, 43, 0
2, 146446, Note_on_c, 0, 67, 71
2, 146447, Note_on_c, 0, 52, 67
2, 146476, Control_c, 0, 64, 55
2, 146539, Note_on_c, 0, 67, 0
2, 146543, Note_on_c, 0, 52, 0
2, 146569, Note_on_c, 0, 43, 62
2, 146570, Note_on_c, 0, 65, 73
2, 146574, Control_c, 0, 64, 55
2, 146590, Control_c, 0, 64, 56
2, 146685, Note_on_c, 0, 64, 75
2, 146685, Note_on_c, 0, 65, 0
2, 146689, Note_on_c, 0, 43, 0
2, 146696, Control_c, 0, 64, 55
2, 146696, Note_on_c, 0, 53, 63
2, 146712, Control_c, 0, 64, 55
2, 146726, Control_c, 0, 64, 53
2, 146741, Control_c, 0, 64, 50
2, 146757, Control_c, 0, 64, 30
2, 146771, Control_c, 0, 64, 0
2, 146791, Note_on_c, 0, 53, 0
2, 146799, Note_on_c, 0, 64, 0
2, 146801, Note_on_c, 0, 62, 78
2, 146804, Note_on_c, 0, 43, 64
2, 146863, Control_c, 0, 64, 46
2, 146879, Control_c, 0, 64, 63
2, 146894, Control_c, 0, 64, 66
2, 146899, Note_on_c, 0, 43, 0
2, 146901, Note_on_c, 0, 62, 0
2, 146910, Control_c, 0, 64, 68
2, 146917, Note_on_c, 0, 60, 76
2, 146925, Control_c, 0, 64, 71
2, 146938, Note_on_c, 0, 52, 58
2, 146940, Control_c, 0, 64, 73
2, 146955, Control_c, 0, 64, 75
2, 146974, Note_on_c, 0, 60, 0
2, 147030, Note_on_c, 0, 52, 0
2, 147031, Control_c, 0, 64, 75
2, 147046, Control_c, 0, 64, 74
2, 147056, Note_on_c, 0, 76, 77
2, 147061, Control_c, 0, 64, 72
2, 147065, Note_on_c, 0, 40, 62
2, 147076, Control_c, 0, 64, 67
2, 147091, Control_c, 0, 64, 63
2, 147108, Control_c, 0, 64, 56
2, 147123, Control_c, 0, 64, 53
2, 147136, Note_on_c, 0, 42, 65
2, 147138, Control_c, 0, 64, 52
2, 147153, Control_c, 0, 64, 51
2, 147168, Control_c, 0, 64, 48
2, 147172, Note_on_c, 0, 40, 0
2, 147176, Note_on_c, 0, 44, 73
2, 147183, Control_c, 0, 64, 44
2, 147183, Note_on_c, 0, 74, 73
2, 147198, Control_c, 0, 64, 38
2, 147213, Control_c, 0, 64, 34
2, 147214, Note_on_c, 0, 76, 0
2, 147217, Note_on_c, 0, 42, 0
2, 147229, Control_c, 0, 64, 33
2, 147244, Control_c, 0, 64, 32
2, 147259, Control_c, 0, 64, 31
2, 147289, Control_c, 0, 64, 32
2, 147305, Control_c, 0, 64, 33
2, 147305, Note_on_c, 0, 72, 79
2, 147310, Note_on_c, 0, 40, 72
2, 147320, Control_c, 0, 64, 34
2, 147321, Note_on_c, 0, 44, 0
2, 147343, Control_c, 0, 64, 34
2, 147347, Note_on_c, 0, 74, 0
2, 147418, Control_c, 0, 64, 35
2, 147429, Note_on_c, 0, 72, 0
2, 147430, Note_on_c, 0, 40, 0
2, 147430, Note_on_c, 0, 45, 69
2, 147434, Control_c, 0, 64, 36
2, 147440, Note_on_c, 0, 71, 76
2, 147449, Control_c, 0, 64, 37
2, 147465, Control_c, 0, 64, 38
2, 147480, Control_c, 0, 64, 38
2, 147521, Note_on_c, 0, 45, 0
2, 147525, Control_c, 0, 64, 38
2, 147537, Note_on_c, 0, 71, 0
2, 147552, Note_on_c, 0, 40, 67
2, 147556, Control_c, 0, 64, 38
2, 147558, Note_on_c, 0, 69, 76
2, 147571, Control_c, 0, 64, 40
2, 147586, Control_c, 0, 64, 41
2, 147601, Control_c, 0, 64, 42
2, 147678, Control_c, 0, 64, 42
2, 147678, Note_on_c, 0, 40, 0
2, 147678, Note_on_c, 0, 47, 69
2, 147687, Note_on_c, 0, 68, 78
2, 147693, Control_c, 0, 64, 44
2, 147693, Note_on_c, 0, 69, 0
2, 147709, Control_c, 0, 64, 45
2, 147724, Control_c, 0, 64, 46
2, 147739, Control_c, 0, 64, 46
2, 147769, Control_c, 0, 64, 47
2, 147798, Note_on_c, 0, 40, 72
2, 147798, Note_on_c, 0, 47, 0
2, 147801, Note_on_c, 0, 66, 80
2, 147815, Control_c, 0, 64, 47
2, 147831, Control_c, 0, 64, 48
2, 147839, Note_on_c, 0, 68, 0
2, 147845, Control_c, 0, 64, 48
2, 147860, Control_c, 0, 64, 49
2, 147922, Note_on_c, 0, 64, 78
2, 147923, Note_on_c, 0, 48, 70
2, 147927, Note_on_c, 0, 40, 0
2, 147936, Note_on_c, 0, 66, 0
2, 147950, Control_c, 0, 64, 50
2, 147965, Control_c, 0, 64, 51
2, 147980, Control_c, 0, 64, 51
2, 148023, Note_on_c, 0, 64, 0
2, 148026, Note_on_c, 0, 48, 0
2, 148027, Control_c, 0, 64, 52
2, 148038, Note_on_c, 0, 62, 78
2, 148041, Control_c, 0, 64, 52
2, 148048, Note_on_c, 0, 40, 74
2, 148056, Control_c, 0, 64, 53
2, 148072, Control_c, 0, 64, 54
2, 148087, Control_c, 0, 64, 54
2, 148110, Control_c, 0, 64, 55
2, 148155, Control_c, 0, 64, 55
2, 148163, Note_on_c, 0, 60, 78
2, 148164, Note_on_c, 0, 62, 0
2, 148176, Note_on_c, 0, 50, 73
2, 148185, Note_on_c, 0, 40, 0
2, 148271, Note_on_c, 0, 60, 0
2, 148280, Note_on_c, 0, 59, 80
2, 148295, Note_on_c, 0, 50, 0
2, 148298, Note_on_c, 0, 40, 79
2, 148308, Control_c, 0, 64, 55
2, 148391, Note_on_c, 0, 40, 0
2, 148402, Note_on_c, 0, 59, 0
2, 148408, Note_on_c, 0, 57, 73
2, 148411, Note_on_c, 0, 49, 78
2, 148413, Control_c, 0, 64, 55
2, 148445, Control_c, 0, 64, 56
2, 148470, Note_on_c, 0, 57, 0
2, 148513, Note_on_c, 0, 49, 0
2, 148531, Note_on_c, 0, 57, 78
2, 148532, Note_on_c, 0, 59, 71
2, 148552, Control_c, 0, 64, 55
2, 148566, Control_c, 0, 64, 55
2, 148640, Note_on_c, 0, 57, 0
2, 148656, Note_on_c, 0, 55, 72
2, 148657, Note_on_c, 0, 61, 77
2, 148671, Note_on_c, 0, 59, 0
2, 148718, Control_c, 0, 64, 54
2, 148763, Control_c, 0, 64, 55
2, 148772, Note_on_c, 0, 57, 68
2, 148775, Note_on_c, 0, 55, 0
2, 148781, Note_on_c, 0, 54, 79
2, 148781, Note_on_c, 0, 61, 0
2, 148809, Control_c, 0, 64, 55
2, 148840, Control_c, 0, 64, 55
2, 148897, Note_on_c, 0, 54, 0
2, 148903, Note_on_c, 0, 52, 83
2, 148907, Note_on_c, 0, 62, 79
2, 148908, Control_c, 0, 64, 55
2, 148928, Note_on_c, 0, 57, 0
2, 149017, Note_on_c, 0, 52, 0
2, 149020, Note_on_c, 0, 50, 77
2, 149030, Note_on_c, 0, 57, 75
2, 149050, Note_on_c, 0, 62, 0
2, 149121, Control_c, 0, 64, 55
2, 149146, Note_on_c, 0, 49, 74
2, 149148, Note_on_c, 0, 50, 0
2, 149155, Note_on_c, 0, 64, 83
2, 149167, Control_c, 0, 64, 55
2, 149169, Note_on_c, 0, 57, 0
2, 149227, Control_c, 0, 64, 55
2, 149252, Note_on_c, 0, 64, 0
2, 149268, Note_on_c, 0, 47, 79
2, 149272, Note_on_c, 0, 49, 0
2, 149275, Note_on_c, 0, 57, 75
2, 149341, Note_on_c, 0, 47, 0
2, 149365, Control_c, 0, 64, 54
2, 149377, Note_on_c, 0, 45, 80
2, 149389, Note_on_c, 0, 66, 85
2, 149417, Note_on_c, 0, 57, 0
2, 149455, Control_c, 0, 64, 54
2, 149489, Note_on_c, 0, 45, 0
2, 149500, Note_on_c, 0, 43, 70
2, 149501, Control_c, 0, 64, 53
2, 149507, Note_on_c, 0, 57, 68
2, 149517, Control_c, 0, 64, 53
2, 149529, Note_on_c, 0, 66, 0
2, 149531, Control_c, 0, 64, 52
2, 149547, Control_c, 0, 64, 52
2, 149562, Control_c, 0, 64, 51
2, 149577, Control_c, 0, 64, 50
2, 149593, Control_c, 0, 64, 49
2, 149607, Control_c, 0, 64, 48
2, 149622, Control_c, 0, 64, 46
2, 149625, Note_on_c, 0, 42, 81
2, 149626, Note_on_c, 0, 43, 0
2, 149627, Note_on_c, 0, 67, 79
2, 149646, Control_c, 0, 64, 45
2, 149660, Control_c, 0, 64, 44
2, 149661, Note_on_c, 0, 57, 0
2, 149676, Control_c, 0, 64, 44
2, 149729, Note_on_c, 0, 42, 0
2, 149743, Note_on_c, 0, 40, 79
2, 149756, Note_on_c, 0, 57, 70
2, 149812, Control_c, 0, 64, 44
2, 149820, Note_on_c, 0, 57, 0
2, 149825, Note_on_c, 0, 67, 0
2, 149843, Control_c, 0, 64, 45
2, 149862, Note_on_c, 0, 40, 0
2, 149873, Control_c, 0, 64, 45
2, 149885, Note_on_c, 0, 38, 79
2, 149890, Note_on_c, 0, 62, 84
2, 149892, Note_on_c, 0, 66, 87
2, 149919, Control_c, 0, 64, 46
2, 149965, Control_c, 0, 64, 46
2, 149980, Control_c, 0, 64, 47
2, 149996, Note_on_c, 0, 66, 0
2, 150010, Control_c, 0, 64, 47
2, 150043, Note_on_c, 0, 62, 0
2, 150056, Control_c, 0, 64, 48
2, 150087, Control_c, 0, 64, 48
2, 150118, Control_c, 0, 64, 49
2, 150148, Note_on_c, 0, 71, 81
2, 150151, Note_on_c, 0, 60, 80
2, 150178, Control_c, 0, 64, 48
2, 150236, Note_on_c, 0, 71, 0
2, 150270, Control_c, 0, 64, 49
2, 150278, Note_on_c, 0, 62, 83
2, 150289, Note_on_c, 0, 60, 0
2, 150358, Note_on_c, 0, 62, 0
2, 150406, Note_on_c, 0, 67, 78
2, 150413, Note_on_c, 0, 64, 80
2, 150523, Note_on_c, 0, 62, 86
2, 150533, Note_on_c, 0, 67, 0
2, 150546, Note_on_c, 0, 64, 0
2, 150566, Control_c, 0, 64, 49
2, 150613, Note_on_c, 0, 62, 0
2, 150655, Note_on_c, 0, 64, 83
2, 150665, Note_on_c, 0, 60, 78
2, 150672, Control_c, 0, 64, 50
2, 150732, Control_c, 0, 64, 49
2, 150739, Note_on_c, 0, 64, 0
2, 150763, Control_c, 0, 64, 50
2, 150776, Note_on_c, 0, 60, 0
2, 150793, Control_c, 0, 64, 50
2, 150808, Control_c, 0, 64, 51
2, 150823, Control_c, 0, 64, 51
2, 150913, Note_on_c, 0, 59, 83
2, 150914, Note_on_c, 0, 69, 79
2, 150931, Control_c, 0, 64, 52
2, 151001, Note_on_c, 0, 69, 0
2, 151034, Note_on_c, 0, 60, 75
2, 151038, Control_c, 0, 64, 52
2, 151053, Control_c, 0, 64, 53
2, 151060, Note_on_c, 0, 59, 0
2, 151069, Control_c, 0, 64, 54
2, 151084, Control_c, 0, 64, 54
2, 151143, Control_c, 0, 64, 55
2, 151152, Note_on_c, 0, 60, 0
2, 151155, Note_on_c, 0, 62, 72
2, 151156, Note_on_c, 0, 66, 87
2, 151231, Note_on_c, 0, 62, 0
2, 151243, Control_c, 0, 64, 54
2, 151279, Note_on_c, 0, 60, 79
2, 151297, Note_on_c, 0, 38, 0
2, 151326, Note_on_c, 0, 66, 0
2, 151349, Control_c, 0, 64, 54
2, 151372, Note_on_c, 0, 60, 0
2, 151379, Control_c, 0, 64, 53
2, 151395, Control_c, 0, 64, 53
2, 151412, Note_on_c, 0, 67, 89
2, 151419, Note_on_c, 0, 59, 85
2, 151518, Note_on_c, 0, 59, 0
2, 151551, Note_on_c, 0, 50, 55
2, 151629, Note_on_c, 0, 50, 0
2, 151668, Control_c, 0, 64, 53
2, 151677, Note_on_c, 0, 60, 87
2, 151679, Note_on_c, 0, 48, 59
2, 151715, Control_c, 0, 64, 54
2, 151722, Note_on_c, 0, 60, 0
2, 151729, Control_c, 0, 64, 54
2, 151781, Note_on_c, 0, 48, 0
2, 151799, Note_on_c, 0, 50, 64
2, 151910, Note_on_c, 0, 50, 0
2, 151914, Note_on_c, 0, 62, 87
2, 151921, Note_on_c, 0, 52, 75
2, 151978, Note_on_c, 0, 62, 0
2, 151980, Control_c, 0, 64, 55
2, 151991, Note_on_c, 0, 52, 0
2, 152010, Control_c, 0, 64, 55
2, 152023, Note_on_c, 0, 50, 81
2, 152056, Control_c, 0, 64, 56
2, 152086, Control_c, 0, 64, 56
2, 152101, Control_c, 0, 64, 57
2, 152113, Note_on_c, 0, 67, 0
2, 152117, Control_c, 0, 64, 57
2, 152132, Control_c, 0, 64, 58
2, 152148, Control_c, 0, 64, 58
2, 152148, Note_on_c, 0, 50, 0
2, 152148, Note_on_c, 0, 64, 79
2, 152160, Note_on_c, 0, 48, 86
2, 152163, Control_c, 0, 64, 59
2, 152178, Control_c, 0, 64, 59
2, 152193, Control_c, 0, 64, 60
2, 152208, Control_c, 0, 64, 59
2, 152239, Control_c, 0, 64, 59
2, 152265, Note_on_c, 0, 69, 83
2, 152267, Note_on_c, 0, 64, 0
2, 152299, Control_c, 0, 64, 58
2, 152315, Control_c, 0, 64, 58
2, 152329, Control_c, 0, 64, 57
2, 152345, Control_c, 0, 64, 56
2, 152360, Control_c, 0, 64, 55
2, 152368, Note_on_c, 0, 48, 0
2, 152373, Note_on_c, 0, 69, 0
2, 152375, Control_c, 0, 64, 54
2, 152375, Note_on_c, 0, 47, 76
2, 152385, Note_on_c, 0, 71, 72
2, 152386, Note_on_c, 0, 54, 74
2, 152391, Control_c, 0, 64, 54
2, 152405, Control_c, 0, 64, 53
2, 152420, Control_c, 0, 64, 53
2, 152436, Control_c, 0, 64, 52
2, 152447, Note_on_c, 0, 71, 0
2, 152450, Note_on_c, 0, 69, 75
2, 152451, Control_c, 0, 64, 52
2, 152467, Control_c, 0, 64, 51
2, 152481, Control_c, 0, 64, 50
2, 152496, Control_c, 0, 64, 50
2, 152508, Note_on_c, 0, 48, 76
2, 152510, Note_on_c, 0, 69, 0
2, 152512, Control_c, 0, 64, 50
2, 152512, Note_on_c, 0, 47, 0
2, 152527, Note_on_c, 0, 71, 76
2, 152542, Control_c, 0, 64, 51
2, 152558, Control_c, 0, 64, 51
2, 152573, Control_c, 0, 64, 52
2, 152576, Note_on_c, 0, 69, 72
2, 152582, Note_on_c, 0, 54, 0
2, 152585, Note_on_c, 0, 71, 0
2, 152589, Control_c, 0, 64, 53
2, 152604, Control_c, 0, 64, 54
2, 152618, Control_c, 0, 64, 54
2, 152627, Note_on_c, 0, 50, 79
2, 152634, Note_on_c, 0, 48, 0
2, 152638, Note_on_c, 0, 69, 0
2, 152643, Note_on_c, 0, 71, 69
2, 152711, Note_on_c, 0, 69, 67
2, 152721, Note_on_c, 0, 71, 0
2, 152733, Control_c, 0, 64, 54
2, 152749, Control_c, 0, 64, 53
2, 152756, Note_on_c, 0, 67, 75
2, 152763, Control_c, 0, 64, 53
2, 152763, Note_on_c, 0, 48, 78
2, 152765, Note_on_c, 0, 69, 0
2, 152768, Note_on_c, 0, 50, 0
2, 152778, Control_c, 0, 64, 52
2, 152829, Note_on_c, 0, 69, 75
2, 152852, Note_on_c, 0, 67, 0
2, 152854, Control_c, 0, 64, 51
2, 152870, Control_c, 0, 64, 50
2, 152878, Note_on_c, 0, 48, 0
2, 152885, Control_c, 0, 64, 49
2, 152887, Note_on_c, 0, 47, 81
2, 152887, Note_on_c, 0, 71, 95
2, 152890, Note_on_c, 0, 55, 76
2, 152896, Note_on_c, 0, 69, 0
2, 152900, Control_c, 0, 64, 49
2, 152976, Control_c, 0, 64, 48
2, 153022, Control_c, 0, 64, 48
2, 153034, Note_on_c, 0, 71, 0
2, 153037, Control_c, 0, 64, 47
2, 153068, Control_c, 0, 64, 47
2, 153083, Control_c, 0, 64, 46
2, 153117, Note_on_c, 0, 47, 0
2, 153132, Note_on_c, 0, 55, 0
2, 153141, Note_on_c, 0, 72, 81
2, 153146, Note_on_c, 0, 69, 81
2, 153167, Note_on_c, 0, 45, 71
2, 153235, Control_c, 0, 64, 46
2, 153245, Note_on_c, 0, 69, 0
2, 153257, Note_on_c, 0, 72, 0
2, 153265, Control_c, 0, 64, 46
2, 153269, Note_on_c, 0, 71, 74
2, 153271, Note_on_c, 0, 67, 77
2, 153273, Note_on_c, 0, 45, 0
2, 153274, Note_on_c, 0, 47, 69
2, 153280, Control_c, 0, 64, 47
2, 153333, Note_on_c, 0, 67, 0
2, 153366, Note_on_c, 0, 71, 0
2, 153379, Note_on_c, 0, 47, 0
2, 153387, Control_c, 0, 64, 47
2, 153398, Note_on_c, 0, 66, 77
2, 153401, Note_on_c, 0, 69, 81
2, 153402, Control_c, 0, 64, 48
2, 153402, Note_on_c, 0, 48, 77
2, 153417, Control_c, 0, 64, 49
2, 153449, Note_on_c, 0, 66, 0
2, 153486, Control_c, 0, 64, 48
2, 153514, Note_on_c, 0, 47, 79
2, 153517, Note_on_c, 0, 48, 0
2, 153523, Note_on_c, 0, 67, 82
2, 153527, Note_on_c, 0, 71, 79
2, 153532, Control_c, 0, 64, 49
2, 153540, Note_on_c, 0, 69, 0
2, 153578, Note_on_c, 0, 67, 0
2, 153593, Control_c, 0, 64, 48
2, 153600, Note_on_c, 0, 71, 0
2, 153607, Control_c, 0, 64, 48
2, 153622, Control_c, 0, 64, 47
2, 153638, Control_c, 0, 64, 47
2, 153667, Note_on_c, 0, 47, 0
2, 153667, Note_on_c, 0, 72, 87
2, 153670, Note_on_c, 0, 45, 72
2, 153671, Note_on_c, 0, 69, 82
2, 153714, Control_c, 0, 64, 47
2, 153743, Control_c, 0, 64, 48
2, 153749, Note_on_c, 0, 45, 0
2, 153756, Note_on_c, 0, 69, 0
2, 153759, Control_c, 0, 64, 48
2, 153776, Note_on_c, 0, 72, 0
2, 153790, Control_c, 0, 64, 49
2, 153805, Control_c, 0, 64, 50
2, 153820, Control_c, 0, 64, 50
2, 153835, Control_c, 0, 64, 51
2, 153912, Control_c, 0, 64, 50
2, 153915, Note_on_c, 0, 74, 83
2, 153921, Note_on_c, 0, 71, 81
2, 153924, Note_on_c, 0, 43, 64
2, 153941, Control_c, 0, 64, 50
2, 153957, Control_c, 0, 64, 49
2, 153972, Control_c, 0, 64, 49
2, 153982, Note_on_c, 0, 71, 0
2, 154003, Control_c, 0, 64, 48
2, 154020, Note_on_c, 0, 74, 0
2, 154032, Note_on_c, 0, 43, 0
2, 154039, Note_on_c, 0, 45, 64
2, 154039, Note_on_c, 0, 72, 79
2, 154040, Note_on_c, 0, 69, 83
2, 154065, Control_c, 0, 64, 49
2, 154098, Note_on_c, 0, 69, 0
2, 154117, Note_on_c, 0, 72, 0
2, 154156, Note_on_c, 0, 71, 83
2, 154158, Note_on_c, 0, 67, 78
2, 154161, Note_on_c, 0, 47, 73
2, 154162, Note_on_c, 0, 45, 0
2, 154204, Note_on_c, 0, 67, 0
2, 154230, Note_on_c, 0, 71, 0
2, 154266, Note_on_c, 0, 47, 0
2, 154285, Note_on_c, 0, 72, 85
2, 154290, Note_on_c, 0, 69, 78
2, 154292, Note_on_c, 0, 45, 72
2, 154318, Note_on_c, 0, 69, 0
2, 154330, Control_c, 0, 64, 48
2, 154347, Note_on_c, 0, 72, 0
2, 154370, Note_on_c, 0, 45, 0
2, 154392, Control_c, 0, 64, 48
2, 154396, Note_on_c, 0, 43, 70
2, 154407, Control_c, 0, 64, 48
2, 154408, Note_on_c, 0, 74, 90
2, 154413, Note_on_c, 0, 71, 86
2, 154422, Control_c, 0, 64, 49
2, 154452, Control_c, 0, 64, 49
2, 154454, Note_on_c, 0, 71, 0
2, 154468, Control_c, 0, 64, 50
2, 154476, Note_on_c, 0, 74, 0
2, 154483, Note_on_c, 0, 43, 0
2, 154498, Control_c, 0, 64, 50
2, 154514, Control_c, 0, 64, 51
2, 154523, Note_on_c, 0, 55, 67
2, 154528, Control_c, 0, 64, 53
2, 154543, Control_c, 0, 64, 54
2, 154601, Note_on_c, 0, 55, 0
2, 154604, Control_c, 0, 64, 53
2, 154616, Note_on_c, 0, 54, 70
2, 154619, Control_c, 0, 64, 52
2, 154635, Control_c, 0, 64, 52
2, 154649, Control_c, 0, 64, 51
2, 154659, Note_on_c, 0, 72, 88
2, 154660, Note_on_c, 0, 69, 85
2, 154702, Note_on_c, 0, 54, 0
2, 154709, Note_on_c, 0, 52, 69
2, 154711, Control_c, 0, 64, 52
2, 154718, Note_on_c, 0, 69, 0
2, 154738, Note_on_c, 0, 72, 0
2, 154788, Note_on_c, 0, 52, 0
2, 154805, Note_on_c, 0, 55, 68
2, 154832, Control_c, 0, 64, 52
2, 154861, Control_c, 0, 64, 52
2, 154892, Control_c, 0, 64, 51
2, 154909, Note_on_c, 0, 71, 87
2, 154912, Note_on_c, 0, 55, 0
2, 154918, Note_on_c, 0, 67, 79
2, 154925, Note_on_c, 0, 50, 67
2, 154953, Control_c, 0, 64, 52
2, 154991, Note_on_c, 0, 50, 0
2, 154994, Note_on_c, 0, 71, 0
2, 155035, Note_on_c, 0, 55, 68
2, 155037, Control_c, 0, 64, 52
2, 155052, Control_c, 0, 64, 53
2, 155068, Control_c, 0, 64, 53
2, 155083, Control_c, 0, 64, 54
2, 155113, Control_c, 0, 64, 54
2, 155143, Control_c, 0, 64, 55
2, 155162, Note_on_c, 0, 55, 0
2, 155176, Note_on_c, 0, 69, 89
2, 155183, Note_on_c, 0, 49, 65
2, 155190, Control_c, 0, 64, 55
2, 155205, Control_c, 0, 64, 56
2, 155235, Control_c, 0, 64, 56
2, 155250, Control_c, 0, 64, 57
2, 155251, Note_on_c, 0, 69, 0
2, 155284, Note_on_c, 0, 55, 66
2, 155288, Note_on_c, 0, 49, 0
2, 155402, Control_c, 0, 64, 56
2, 155432, Control_c, 0, 64, 56
2, 155447, Control_c, 0, 64, 55
2, 155449, Note_on_c, 0, 47, 63
2, 155451, Note_on_c, 0, 79, 87
2, 155455, Note_on_c, 0, 74, 77
2, 155462, Control_c, 0, 64, 55
2, 155462, Note_on_c, 0, 55, 0
2, 155478, Control_c, 0, 64, 54
2, 155492, Control_c, 0, 64, 54
2, 155508, Control_c, 0, 64, 53
2, 155523, Control_c, 0, 64, 52
2, 155538, Control_c, 0, 64, 51
2, 155554, Control_c, 0, 64, 50
2, 155569, Control_c, 0, 64, 50
2, 155569, Note_on_c, 0, 47, 0
2, 155580, Note_on_c, 0, 55, 67
2, 155585, Control_c, 0, 64, 49
2, 155599, Control_c, 0, 64, 49
2, 155614, Control_c, 0, 64, 48
2, 155630, Control_c, 0, 64, 48
2, 155645, Control_c, 0, 64, 47
2, 155658, Note_on_c, 0, 67, 0
2, 155694, Note_on_c, 0, 79, 0
2, 155699, Note_on_c, 0, 55, 0
2, 155706, Note_on_c, 0, 45, 64
2, 155709, Note_on_c, 0, 73, 87
2, 155731, Note_on_c, 0, 74, 0
2, 155736, Control_c, 0, 64, 48
2, 155751, Control_c, 0, 64, 48
2, 155766, Control_c, 0, 64, 49
2, 155783, Note_on_c, 0, 73, 0
2, 155789, Control_c, 0, 64, 50
2, 155803, Note_on_c, 0, 45, 0
2, 155805, Control_c, 0, 64, 51
2, 155820, Control_c, 0, 64, 52
2, 155825, Note_on_c, 0, 55, 67
2, 155836, Control_c, 0, 64, 53
2, 155851, Control_c, 0, 64, 53
2, 155881, Control_c, 0, 64, 54
2, 155912, Control_c, 0, 64, 54
2, 155922, Note_on_c, 0, 55, 0
2, 155941, Control_c, 0, 64, 55
2, 155951, Note_on_c, 0, 50, 68
2, 155957, Control_c, 0, 64, 56
2, 155963, Note_on_c, 0, 78, 89
2, 155972, Control_c, 0, 64, 56
2, 155973, Note_on_c, 0, 74, 68
2, 155988, Control_c, 0, 64, 57
2, 155997, Note_on_c, 0, 74, 0
2, 156003, Control_c, 0, 64, 57
2, 156029, Note_on_c, 0, 78, 0
2, 156034, Control_c, 0, 64, 58
2, 156079, Note_on_c, 0, 50, 0
2, 156081, Note_on_c, 0, 48, 76
2, 156125, Control_c, 0, 64, 58
2, 156155, Control_c, 0, 64, 57
2, 156190, Note_on_c, 0, 48, 0
2, 156203, Note_on_c, 0, 46, 79
2, 156206, Note_on_c, 0, 76, 86
2, 156210, Note_on_c, 0, 67, 81
2, 156258, Note_on_c, 0, 67, 0
2, 156265, Note_on_c, 0, 76, 0
2, 156309, Note_on_c, 0, 46, 0
2, 156319, Note_on_c, 0, 50, 81
2, 156412, Control_c, 0, 64, 57
2, 156428, Control_c, 0, 64, 56
2, 156455, Note_on_c, 0, 74, 80
2, 156457, Note_on_c, 0, 45, 78
2, 156458, Note_on_c, 0, 50, 0
2, 156462, Note_on_c, 0, 66, 88
2, 156505, Control_c, 0, 64, 56
2, 156518, Note_on_c, 0, 66, 0
2, 156520, Control_c, 0, 64, 56
2, 156532, Note_on_c, 0, 74, 0
2, 156565, Note_on_c, 0, 45, 0
2, 156572, Control_c, 0, 64, 57
2, 156576, Note_on_c, 0, 50, 80
2, 156602, Control_c, 0, 64, 57
2, 156715, Note_on_c, 0, 64, 77
2, 156715, Note_on_c, 0, 73, 89
2, 156720, Note_on_c, 0, 43, 75
2, 156726, Note_on_c, 0, 50, 0
2, 156740, Control_c, 0, 64, 57
2, 156745, Note_on_c, 0, 64, 0
2, 156786, Note_on_c, 0, 73, 0
2, 156801, Control_c, 0, 64, 56
2, 156826, Note_on_c, 0, 43, 0
2, 156832, Control_c, 0, 64, 56
2, 156834, Note_on_c, 0, 50, 83
2, 156877, Control_c, 0, 64, 55
2, 157005, Note_on_c, 0, 82, 90
2, 157016, Note_on_c, 0, 73, 72
2, 157023, Note_on_c, 0, 50, 0
2, 157027, Note_on_c, 0, 42, 79
2, 157059, Control_c, 0, 64, 55
2, 157106, Control_c, 0, 64, 54
2, 157134, Control_c, 0, 64, 54
2, 157141, Note_on_c, 0, 50, 77
2, 157149, Control_c, 0, 64, 53
2, 157165, Control_c, 0, 64, 53
2, 157175, Note_on_c, 0, 42, 0
2, 157179, Control_c, 0, 64, 52
2, 157195, Control_c, 0, 64, 51
2, 157210, Control_c, 0, 64, 51
2, 157225, Control_c, 0, 64, 50
2, 157240, Control_c, 0, 64, 50
2, 157255, Control_c, 0, 64, 49
2, 157270, Control_c, 0, 64, 49
2, 157275, Note_on_c, 0, 40, 79
2, 157284, Note_on_c, 0, 50, 0
2, 157324, Control_c, 0, 64, 48
2, 157339, Control_c, 0, 64, 48
2, 157397, Note_on_c, 0, 50, 82
2, 157400, Note_on_c, 0, 82, 0
2, 157426, Note_on_c, 0, 40, 0
2, 157454, Note_on_c, 0, 73, 0
2, 157477, Control_c, 0, 64, 48
2, 157507, Control_c, 0, 64, 49
2, 157512, Note_on_c, 0, 50, 0
2, 157538, Control_c, 0, 64, 49
2, 157539, Note_on_c, 0, 81, 87
2, 157548, Note_on_c, 0, 72, 82
2, 157553, Control_c, 0, 64, 50
2, 157554, Note_on_c, 0, 42, 74
2, 157583, Control_c, 0, 64, 50
2, 157599, Control_c, 0, 64, 51
2, 157628, Control_c, 0, 64, 51
2, 157644, Control_c, 0, 64, 52
2, 157659, Control_c, 0, 64, 52
2, 157674, Control_c, 0, 64, 53
2, 157676, Note_on_c, 0, 79, 85
2, 157681, Note_on_c, 0, 81, 0
2, 157704, Control_c, 0, 64, 53
2, 157716, Note_on_c, 0, 42, 0
2, 157720, Control_c, 0, 64, 54
2, 157735, Control_c, 0, 64, 55
2, 157749, Control_c, 0, 64, 56
2, 157765, Control_c, 0, 64, 57
2, 157771, Note_on_c, 0, 72, 0
2, 157774, Note_on_c, 0, 79, 0
2, 157780, Control_c, 0, 64, 57
2, 157805, Note_on_c, 0, 38, 79
2, 157807, Note_on_c, 0, 78, 89
2, 157808, Note_on_c, 0, 72, 25
2, 157841, Control_c, 0, 64, 57
2, 157856, Control_c, 0, 64, 56
2, 157881, Note_on_c, 0, 78, 0
2, 157933, Control_c, 0, 64, 56
2, 157936, Note_on_c, 0, 76, 86
2, 157945, Note_on_c, 0, 38, 0
2, 157963, Control_c, 0, 64, 55
2, 157978, Control_c, 0, 64, 54
2, 158039, Control_c, 0, 64, 54
2, 158057, Note_on_c, 0, 72, 0
2, 158064, Note_on_c, 0, 43, 83
2, 158066, Note_on_c, 0, 74, 75
2, 158107, Control_c, 0, 64, 53
2, 158123, Control_c, 0, 64, 53
2, 158138, Control_c, 0, 64, 52
2, 158153, Control_c, 0, 64, 52
2, 158218, Note_on_c, 0, 71, 60
2, 158219, Note_on_c, 0, 43, 0
2, 158228, Control_c, 0, 64, 51
2, 158277, Note_on_c, 0, 69, 75
2, 158285, Note_on_c, 0, 71, 0
2, 158291, Control_c, 0, 64, 51
2, 158305, Control_c, 0, 64, 50
2, 158305, Note_on_c, 0, 74, 0
2, 158330, Note_on_c, 0, 40, 84
2, 158336, Control_c, 0, 64, 50
2, 158340, Note_on_c, 0, 71, 79
2, 158352, Note_on_c, 0, 76, 0
2, 158364, Note_on_c, 0, 69, 0
2, 158443, Control_c, 0, 64, 51
2, 158458, Control_c, 0, 64, 51
2, 158459, Note_on_c, 0, 40, 0
2, 158479, Note_on_c, 0, 79, 87
2, 158495, Note_on_c, 0, 71, 0
2, 158518, Control_c, 0, 64, 51
2, 158609, Control_c, 0, 64, 51
2, 158622, Note_on_c, 0, 69, 87
2, 158628, Note_on_c, 0, 36, 83
2, 158639, Control_c, 0, 64, 52
2, 158683, Note_on_c, 0, 79, 0
2, 158685, Control_c, 0, 64, 52
2, 158730, Control_c, 0, 64, 53
2, 158761, Control_c, 0, 64, 53
2, 158765, Note_on_c, 0, 72, 87
2, 158790, Control_c, 0, 64, 54
2, 158804, Note_on_c, 0, 36, 0
2, 158806, Control_c, 0, 64, 54
2, 158821, Control_c, 0, 64, 55
2, 158837, Control_c, 0, 64, 56
2, 158859, Control_c, 0, 64, 57
2, 158875, Control_c, 0, 64, 57
2, 158914, Note_on_c, 0, 72, 0
2, 158924, Note_on_c, 0, 79, 89
2, 158935, Note_on_c, 0, 38, 82
2, 159030, Note_on_c, 0, 69, 0
2, 159058, Note_on_c, 0, 79, 0
2, 159073, Control_c, 0, 64, 57
2, 159088, Control_c, 0, 64, 57
2, 159095, Note_on_c, 0, 78, 92
2, 159179, Control_c, 0, 64, 58
2, 159195, Control_c, 0, 64, 58
2, 159240, Control_c, 0, 64, 58
2, 159241, Note_on_c, 0, 78, 0
2, 159270, Control_c, 0, 64, 57
2, 159300, Control_c, 0, 64, 57
2, 159314, Note_on_c, 0, 38, 0
2, 159329, Control_c, 0, 64, 56
2, 159334, Note_on_c, 0, 79, 92
2, 159344, Control_c, 0, 64, 55
2, 159346, Note_on_c, 0, 43, 77
2, 159346, Note_on_c, 0, 71, 74
2, 159349, Note_on_c, 0, 31, 72
2, 159359, Control_c, 0, 64, 54
2, 159374, Control_c, 0, 64, 54
2, 159385, Note_on_c, 0, 71, 0
2, 159389, Control_c, 0, 64, 53
2, 159420, Control_c, 0, 64, 54
2, 159434, Control_c, 0, 64, 54
2, 159490, Note_on_c, 0, 78, 69
2, 159511, Control_c, 0, 64, 55
2, 159520, Note_on_c, 0, 79, 0
2, 159527, Control_c, 0, 64, 56
2, 159542, Control_c, 0, 64, 56
2, 159562, Note_on_c, 0, 76, 69
2, 159625, Note_on_c, 0, 78, 0
2, 159639, Note_on_c, 0, 74, 79
2, 159641, Note_on_c, 0, 71, 70
2, 159655, Control_c, 0, 64, 56
2, 159664, Note_on_c, 0, 76, 0
2, 159686, Control_c, 0, 64, 55
2, 159776, Note_on_c, 0, 71, 0
2, 159786, Note_on_c, 0, 79, 83
2, 159792, Control_c, 0, 64, 56
2, 159799, Note_on_c, 0, 74, 0
2, 159914, Control_c, 0, 64, 56
2, 159927, Note_on_c, 0, 31, 0
2, 159927, Note_on_c, 0, 72, 82
2, 159933, Note_on_c, 0, 69, 77
2, 159956, Note_on_c, 0, 79, 0
2, 159961, Control_c, 0, 64, 57
2, 159991, Control_c, 0, 64, 57
2, 160021, Control_c, 0, 64, 58
2, 160052, Control_c, 0, 64, 58
2, 160065, Note_on_c, 0, 79, 86
2, 160070, Note_on_c, 0, 72, 0
2, 160084, Note_on_c, 0, 69, 0
2, 160094, Note_on_c, 0, 43, 0
2, 160157, Control_c, 0, 64, 58
2, 160193, Note_on_c, 0, 79, 0
2, 160198, Note_on_c, 0, 71, 81
2, 160202, Note_on_c, 0, 67, 86
2, 160249, Control_c, 0, 64, 57
2, 160341, Note_on_c, 0, 43, 66
2, 160371, Control_c, 0, 64, 58
2, 160418, Note_on_c, 0, 45, 82
2, 160436, Note_on_c, 0, 43, 0
2, 160454, Control_c, 0, 64, 57
2, 160465, Note_on_c, 0, 79, 80
2, 160488, Note_on_c, 0, 47, 86
2, 160499, Note_on_c, 0, 45, 0
2, 160502, Note_on_c, 0, 71, 0
2, 160514, Control_c, 0, 64, 57
2, 160522, Note_on_c, 0, 79, 0
2, 160590, Control_c, 0, 64, 57
2, 160614, Note_on_c, 0, 43, 82
2, 160615, Note_on_c, 0, 47, 0
2, 160621, Control_c, 0, 64, 58
2, 160673, Note_on_c, 0, 67, 0
2, 160682, Control_c, 0, 64, 57
2, 160749, Note_on_c, 0, 48, 86
2, 160751, Note_on_c, 0, 69, 84
2, 160752, Note_on_c, 0, 43, 0
2, 160769, Note_on_c, 0, 66, 78
2, 160805, Control_c, 0, 64, 57
2, 160820, Control_c, 0, 64, 56
2, 160838, Note_on_c, 0, 69, 0
2, 160847, Note_on_c, 0, 66, 0
2, 160868, Note_on_c, 0, 43, 79
2, 160876, Note_on_c, 0, 48, 0
2, 160910, Control_c, 0, 64, 56
2, 160925, Control_c, 0, 64, 55
2, 160940, Control_c, 0, 64, 54
2, 160955, Control_c, 0, 64, 53
2, 160970, Control_c, 0, 64, 53
2, 161001, Control_c, 0, 64, 52
2, 161015, Note_on_c, 0, 71, 81
2, 161016, Control_c, 0, 64, 51
2, 161016, Note_on_c, 0, 43, 0
2, 161021, Note_on_c, 0, 50, 87
2, 161023, Note_on_c, 0, 67, 72
2, 161031, Control_c, 0, 64, 48
2, 161046, Control_c, 0, 64, 45
2, 161061, Control_c, 0, 64, 40
2, 161076, Control_c, 0, 64, 37
2, 161092, Control_c, 0, 64, 36
2, 161123, Control_c, 0, 64, 36
2, 161138, Control_c, 0, 64, 37
2, 161140, Note_on_c, 0, 71, 0
2, 161152, Note_on_c, 0, 74, 73
2, 161156, Note_on_c, 0, 67, 0
2, 161206, Control_c, 0, 64, 36
2, 161221, Control_c, 0, 64, 36
2, 161234, Note_on_c, 0, 72, 80
2, 161234, Note_on_c, 0, 74, 0
2, 161251, Control_c, 0, 64, 36
2, 161266, Control_c, 0, 64, 37
2, 161272, Note_on_c, 0, 67, 74
2, 161272, Note_on_c, 0, 71, 79
2, 161282, Control_c, 0, 64, 38
2, 161297, Control_c, 0, 64, 39
2, 161297, Note_on_c, 0, 43, 77
2, 161307, Note_on_c, 0, 50, 0
2, 161325, Note_on_c, 0, 72, 0
2, 161416, Note_on_c, 0, 74, 80
2, 161418, Note_on_c, 0, 71, 0
2, 161419, Control_c, 0, 64, 39
2, 161433, Note_on_c, 0, 67, 0
2, 161464, Control_c, 0, 64, 39
2, 161525, Control_c, 0, 64, 40
2, 161541, Control_c, 0, 64, 41
2, 161543, Note_on_c, 0, 69, 80
2, 161547, Note_on_c, 0, 65, 76
2, 161556, Control_c, 0, 64, 42
2, 161556, Note_on_c, 0, 47, 69
2, 161566, Note_on_c, 0, 74, 0
2, 161572, Control_c, 0, 64, 42
2, 161674, Note_on_c, 0, 74, 83
2, 161678, Control_c, 0, 64, 44
2, 161682, Note_on_c, 0, 69, 0
2, 161693, Control_c, 0, 64, 44
2, 161693, Note_on_c, 0, 65, 0
2, 161738, Control_c, 0, 64, 44
2, 161753, Control_c, 0, 64, 43
2, 161769, Control_c, 0, 64, 42
2, 161781, Note_on_c, 0, 48, 71
2, 161784, Note_on_c, 0, 47, 0
2, 161800, Control_c, 0, 64, 43
2, 161811, Note_on_c, 0, 67, 77
2, 161812, Note_on_c, 0, 64, 73
2, 161814, Control_c, 0, 64, 43
2, 161823, Note_on_c, 0, 74, 0
2, 161829, Control_c, 0, 64, 44
2, 161845, Control_c, 0, 64, 44
2, 161856, Note_on_c, 0, 48, 0
2, 161874, Note_on_c, 0, 47, 63
2, 161905, Control_c, 0, 64, 45
2, 161929, Control_c, 0, 64, 45
2, 161940, Note_on_c, 0, 48, 75
2, 161943, Control_c, 0, 64, 46
2, 161958, Control_c, 0, 64, 47
2, 161974, Control_c, 0, 64, 47
2, 161980, Note_on_c, 0, 47, 0
2, 162002, Note_on_c, 0, 50, 80
2, 162019, Control_c, 0, 64, 47
2, 162027, Note_on_c, 0, 48, 0
2, 162034, Control_c, 0, 64, 46
2, 162050, Control_c, 0, 64, 46
2, 162065, Control_c, 0, 64, 45
2, 162069, Note_on_c, 0, 67, 0
2, 162073, Note_on_c, 0, 72, 85
2, 162087, Note_on_c, 0, 52, 80
2, 162088, Note_on_c, 0, 50, 0
2, 162095, Control_c, 0, 64, 45
2, 162126, Control_c, 0, 64, 45
2, 162141, Control_c, 0, 64, 45
2, 162155, Control_c, 0, 64, 44
2, 162174, Note_on_c, 0, 52, 0
2, 162197, Note_on_c, 0, 48, 79
2, 162217, Control_c, 0, 64, 45
2, 162232, Control_c, 0, 64, 45
2, 162248, Control_c, 0, 64, 46
2, 162283, Note_on_c, 0, 64, 0
2, 162308, Control_c, 0, 64, 46
2, 162324, Control_c, 0, 64, 47
2, 162339, Control_c, 0, 64, 47
2, 162341, Note_on_c, 0, 54, 81
2, 162343, Note_on_c, 0, 48, 0
2, 162345, Note_on_c, 0, 63, 79
2, 162370, Control_c, 0, 64, 48
2, 162385, Control_c, 0, 64, 47
2, 162401, Control_c, 0, 64, 47
2, 162446, Note_on_c, 0, 54, 0
2, 162447, Control_c, 0, 64, 46
2, 162453, Note_on_c, 0, 48, 78
2, 162476, Control_c, 0, 64, 47
2, 162492, Control_c, 0, 64, 47
2, 162507, Control_c, 0, 64, 48
2, 162523, Control_c, 0, 64, 48
2, 162554, Note_on_c, 0, 72, 0
2, 162568, Control_c, 0, 64, 49
2, 162571, Note_on_c, 0, 63, 0
2, 162590, Note_on_c, 0, 62, 76
2, 162596, Note_on_c, 0, 48, 0
2, 162597, Note_on_c, 0, 55, 73
2, 162644, Control_c, 0, 64, 48
2, 162666, Note_on_c, 0, 62, 0
2, 162673, Control_c, 0, 64, 48
2, 162673, Note_on_c, 0, 67, 76
2, 162697, Control_c, 0, 64, 47
2, 162757, Control_c, 0, 64, 48
2, 162760, Note_on_c, 0, 69, 82
2, 162763, Note_on_c, 0, 67, 0
2, 162787, Control_c, 0, 64, 49
2, 162818, Control_c, 0, 64, 49
2, 162825, Note_on_c, 0, 71, 73
2, 162827, Note_on_c, 0, 69, 0
2, 162849, Control_c, 0, 64, 50
2, 162863, Control_c, 0, 64, 51
2, 162878, Control_c, 0, 64, 51
2, 162899, Note_on_c, 0, 64, 75
2, 162902, Note_on_c, 0, 72, 86
2, 162909, Control_c, 0, 64, 52
2, 162914, Note_on_c, 0, 71, 0
2, 162939, Control_c, 0, 64, 52
2, 162985, Control_c, 0, 64, 53
2, 163000, Control_c, 0, 64, 54
2, 163024, Note_on_c, 0, 64, 0
2, 163030, Control_c, 0, 64, 54
2, 163061, Control_c, 0, 64, 54
2, 163061, Note_on_c, 0, 72, 0
2, 163062, Note_on_c, 0, 67, 85
2, 163076, Control_c, 0, 64, 53
2, 163092, Control_c, 0, 64, 53
2, 163122, Control_c, 0, 64, 52
2, 163137, Control_c, 0, 64, 51
2, 163152, Control_c, 0, 64, 48
2, 163168, Control_c, 0, 64, 38
2, 163183, Control_c, 0, 64, 0
2, 163194, Note_on_c, 0, 67, 0
2, 163211, Note_on_c, 0, 71, 73
2, 163216, Note_on_c, 0, 65, 79
2, 163220, Note_on_c, 0, 74, 72
2, 163290, Control_c, 0, 64, 61
2, 163302, Note_on_c, 0, 65, 0
2, 163305, Control_c, 0, 64, 67
2, 163321, Control_c, 0, 64, 71
2, 163336, Control_c, 0, 64, 76
2, 163350, Control_c, 0, 64, 79
2, 163358, Note_on_c, 0, 67, 80
2, 163366, Control_c, 0, 64, 81
2, 163379, Note_on_c, 0, 71, 0
2, 163381, Control_c, 0, 64, 82
2, 163396, Control_c, 0, 64, 83
2, 163410, Note_on_c, 0, 67, 0
2, 163413, Note_on_c, 0, 74, 0
2, 163526, Control_c, 0, 64, 82
2, 163532, Note_on_c, 0, 67, 77
2, 163532, Note_on_c, 0, 76, 73
2, 163538, Note_on_c, 0, 72, 71
2, 163541, Control_c, 0, 64, 81
2, 163555, Control_c, 0, 64, 79
2, 163571, Control_c, 0, 64, 76
2, 163586, Control_c, 0, 64, 72
2, 163602, Control_c, 0, 64, 67
2, 163615, Note_on_c, 0, 72, 0
2, 163617, Control_c, 0, 64, 59
2, 163621, Note_on_c, 0, 71, 79
2, 163631, Control_c, 0, 64, 41
2, 163637, Note_on_c, 0, 67, 0
2, 163638, Note_on_c, 0, 76, 0
2, 163647, Control_c, 0, 64, 36
2, 163662, Control_c, 0, 64, 39
2, 163700, Note_on_c, 0, 72, 83
2, 163707, Control_c, 0, 64, 38
2, 163721, Note_on_c, 0, 71, 0
2, 163723, Control_c, 0, 64, 38
2, 163753, Control_c, 0, 64, 37
2, 163768, Control_c, 0, 64, 37
2, 163773, Note_on_c, 0, 74, 70
2, 163776, Note_on_c, 0, 72, 0
2, 163783, Control_c, 0, 64, 36
2, 163844, Note_on_c, 0, 67, 63
2, 163853, Note_on_c, 0, 76, 84
2, 163874, Control_c, 0, 64, 37
2, 163884, Note_on_c, 0, 74, 0
2, 163890, Control_c, 0, 64, 36
2, 163966, Control_c, 0, 64, 37
2, 163997, Control_c, 0, 64, 37
2, 164035, Note_on_c, 0, 76, 0
2, 164036, Note_on_c, 0, 72, 79
2, 164040, Note_on_c, 0, 67, 0
2, 164073, Control_c, 0, 64, 38
2, 164089, Control_c, 0, 64, 38
2, 164104, Control_c, 0, 64, 39
2, 164120, Control_c, 0, 64, 40
2, 164165, Control_c, 0, 64, 39
2, 164180, Control_c, 0, 64, 39
2, 164195, Control_c, 0, 64, 38
2, 164210, Note_on_c, 0, 78, 90
2, 164220, Note_on_c, 0, 72, 0
2, 164228, Note_on_c, 0, 69, 70
2, 164294, Control_c, 0, 64, 38
2, 164309, Control_c, 0, 64, 37
2, 164427, Note_on_c, 0, 72, 76
2, 164431, Note_on_c, 0, 69, 0
2, 164507, Control_c, 0, 64, 38
2, 164523, Control_c, 0, 64, 39
2, 164537, Control_c, 0, 64, 40
2, 164573, Note_on_c, 0, 78, 0
2, 164644, Control_c, 0, 64, 40
2, 164663, Note_on_c, 0, 79, 84
2, 164677, Note_on_c, 0, 72, 0
2, 164685, Note_on_c, 0, 71, 70
2, 164704, Control_c, 0, 64, 40
2, 164734, Control_c, 0, 64, 39
2, 164812, Control_c, 0, 64, 39
2, 164842, Control_c, 0, 64, 38
2, 164897, Note_on_c, 0, 74, 80
2, 164933, Control_c, 0, 64, 39
2, 165091, Note_on_c, 0, 76, 81
2, 165101, Note_on_c, 0, 74, 0
2, 165138, Control_c, 0, 64, 39
2, 165198, Control_c, 0, 64, 40
2, 165274, Control_c, 0, 64, 40
2, 165284, Note_on_c, 0, 71, 0
2, 165295, Note_on_c, 0, 72, 80
2, 165305, Control_c, 0, 64, 41
2, 165321, Control_c, 0, 64, 41
2, 165381, Control_c, 0, 64, 41
2, 165396, Control_c, 0, 64, 40
2, 165427, Control_c, 0, 64, 40
2, 165490, Note_on_c, 0, 76, 0
2, 165566, Note_on_c, 0, 69, 78
2, 165670, Control_c, 0, 64, 40
2, 165715, Control_c, 0, 64, 41
2, 165829, Note_on_c, 0, 79, 0
2, 165841, Note_on_c, 0, 78, 85
2, 165845, Control_c, 0, 64, 41
2, 165860, Control_c, 0, 64, 42
2, 165875, Control_c, 0, 64, 43
2, 165890, Control_c, 0, 64, 45
2, 165905, Control_c, 0, 64, 48
2, 165921, Control_c, 0, 64, 52
2, 165936, Control_c, 0, 64, 56
2, 165951, Control_c, 0, 64, 59
2, 165964, Note_on_c, 0, 69, 0
2, 165966, Control_c, 0, 64, 62
2, 165981, Control_c, 0, 64, 64
2, 165996, Control_c, 0, 64, 66
2, 166011, Control_c, 0, 64, 68
2, 166026, Control_c, 0, 64, 71
2, 166042, Control_c, 0, 64, 73
2, 166057, Control_c, 0, 64, 74
2, 166072, Control_c, 0, 64, 76
2, 166088, Control_c, 0, 64, 76
2, 166103, Control_c, 0, 64, 77
2, 166421, Control_c, 0, 64, 76
2, 166436, Note_on_c, 0, 78, 0
2, 166453, Control_c, 0, 64, 76
2, 166466, Note_on_c, 0, 79, 82
2, 166473, Note_on_c, 0, 72, 0
2, 166477, Note_on_c, 0, 74, 71
2, 166479, Control_c, 0, 64, 75
2, 166483, Note_on_c, 0, 71, 67
2, 166495, Control_c, 0, 64, 73
2, 166510, Control_c, 0, 64, 72
2, 166532, Control_c, 0, 64, 69
2, 166548, Control_c, 0, 64, 67
2, 166563, Control_c, 0, 64, 64
2, 166579, Control_c, 0, 64, 62
2, 166594, Control_c, 0, 64, 61
2, 166608, Control_c, 0, 64, 61
2, 166624, Control_c, 0, 64, 60
2, 166639, Control_c, 0, 64, 58
2, 166654, Control_c, 0, 64, 54
2, 166669, Control_c, 0, 64, 49
2, 166684, Control_c, 0, 64, 44
2, 166700, Control_c, 0, 64, 41
2, 166715, Control_c, 0, 64, 40
2, 166729, Control_c, 0, 64, 39
2, 166760, Control_c, 0, 64, 39
2, 167003, Control_c, 0, 64, 39
2, 167049, Control_c, 0, 64, 40
2, 168297, Control_c, 0, 64, 39
2, 168419, Control_c, 0, 64, 39
2, 168464, Control_c, 0, 64, 38
2, 168495, Control_c, 0, 64, 38
2, 168555, Control_c, 0, 64, 37
2, 168662, Control_c, 0, 64, 37
2, 169000, Control_c, 0, 64, 37
2, 169015, Note_on_c, 0, 71, 0
2, 169016, Note_on_c, 0, 79, 0
2, 169023, Note_on_c, 0, 55, 0
2, 169030, Note_on_c, 0, 74, 0
2, 169046, Control_c, 0, 64, 37
2, 169047, Note_on_c, 0, 43, 0
2, 169060, Control_c, 0, 64, 36
2, 169181, Control_c, 0, 64, 37
2, 169197, Control_c, 0, 64, 37
2, 169228, Control_c, 0, 64, 38
2, 169258, Control_c, 0, 64, 38
2, 169630, Control_c, 0, 64, 38
2, 169722, Control_c, 0, 64, 38
2, 169736, Control_c, 0, 64, 39
2, 169752, Control_c, 0, 64, 40
2, 169767, Control_c, 0, 64, 40
2, 169782, Control_c, 0, 64, 41
2, 169798, Control_c, 0, 64, 42
2, 169799, End_track
0, 0, End_of_file
