0, 0, Header, 1, 2, 384
1, 0, Start_track
1, 0, Tempo, 500000
1, 0, Time_signature, 4, 2, 24, 8
1, 1, End_track
2, 0, Start_track
2, 0, Title_t," ""Nikiforov04-07.MID"""
2, 0, Program_c, 0, 0
2, 0, Control_c, 0, 64, 0
2, 768, Note_on_c, 0, 67, 66
2, 788, Note_on_c, 0, 55, 52
2, 841, Note_on_c, 0, 71, 71
2, 848, Note_on_c, 0, 67, 0
2, 924, Note_on_c, 0, 74, 70
2, 929, Note_on_c, 0, 71, 0
2, 991, Note_on_c, 0, 43, 64
2, 995, Note_on_c, 0, 74, 0
2, 999, Note_on_c, 0, 79, 83
2, 1009, Note_on_c, 0, 55, 0
2, 1029, Note_on_c, 0, 43, 0
2, 1077, Note_on_c, 0, 74, 75
2, 1088, Note_on_c, 0, 79, 0
2, 1145, Note_on_c, 0, 74, 0
2, 1151, Note_on_c, 0, 71, 76
2, 1228, Note_on_c, 0, 71, 0
2, 1233, Note_on_c, 0, 74, 71
2, 1288, Note_on_c, 0, 74, 0
2, 1297, Note_on_c, 0, 71, 70
2, 1356, Note_on_c, 0, 71, 0
2, 1375, Note_on_c, 0, 67, 76
2, 1447, Note_on_c, 0, 67, 0
2, 1468, Note_on_c, 0, 71, 72
2, 1471, Note_on_c, 0, 55, 68
2, 1505, Note_on_c, 0, 55, 0
2, 1541, Note_on_c, 0, 67, 80
2, 1543, Note_on_c, 0, 71, 0
2, 1611, Note_on_c, 0, 67, 0
2, 1614, Note_on_c, 0, 62, 74
2, 1680, Note_on_c, 0, 62, 0
2, 1700, Note_on_c, 0, 64, 77
2, 1717, Note_on_c, 0, 55, 74
2, 1770, Note_on_c, 0, 64, 0
2, 1775, Note_on_c, 0, 67, 76
2, 1850, Note_on_c, 0, 67, 0
2, 1857, Note_on_c, 0, 72, 77
2, 1928, Note_on_c, 0, 43, 73
2, 1928, Note_on_c, 0, 72, 0
2, 1937, Note_on_c, 0, 76, 86
2, 1946, Note_on_c, 0, 55, 0
2, 1964, Note_on_c, 0, 43, 0
2, 2016, Note_on_c, 0, 72, 85
2, 2038, Note_on_c, 0, 76, 0
2, 2089, Note_on_c, 0, 72, 0
2, 2092, Note_on_c, 0, 67, 79
2, 2158, Note_on_c, 0, 67, 0
2, 2169, Note_on_c, 0, 72, 80
2, 2240, Note_on_c, 0, 72, 0
2, 2243, Note_on_c, 0, 67, 73
2, 2303, Note_on_c, 0, 67, 0
2, 2318, Note_on_c, 0, 64, 76
2, 2385, Note_on_c, 0, 64, 0
2, 2387, Note_on_c, 0, 55, 75
2, 2398, Note_on_c, 0, 67, 82
2, 2410, Note_on_c, 0, 55, 0
2, 2476, Note_on_c, 0, 64, 70
2, 2477, Note_on_c, 0, 67, 0
2, 2533, Note_on_c, 0, 64, 0
2, 2539, Note_on_c, 0, 60, 77
2, 2612, Note_on_c, 0, 60, 0
2, 2623, Note_on_c, 0, 57, 75
2, 2634, Note_on_c, 0, 55, 76
2, 2707, Note_on_c, 0, 57, 0
2, 2714, Note_on_c, 0, 60, 71
2, 2768, Note_on_c, 0, 60, 0
2, 2791, Note_on_c, 0, 66, 76
2, 2860, Control_c, 0, 64, 10
2, 2875, Note_on_c, 0, 43, 70
2, 2875, Note_on_c, 0, 69, 82
2, 2876, Note_on_c, 0, 66, 0
2, 2890, Control_c, 0, 64, 13
2, 2896, Note_on_c, 0, 55, 0
2, 2919, Note_on_c, 0, 43, 0
2, 2961, Note_on_c, 0, 66, 80
2, 2966, Note_on_c, 0, 69, 0
2, 2991, Control_c, 0, 64, 15
2, 3006, Control_c, 0, 64, 17
2, 3038, Note_on_c, 0, 60, 74
2, 3039, Note_on_c, 0, 66, 0
2, 3051, Control_c, 0, 64, 18
2, 3116, Note_on_c, 0, 60, 0
2, 3117, Note_on_c, 0, 66, 79
2, 3128, Control_c, 0, 64, 20
2, 3174, Control_c, 0, 64, 18
2, 3184, Note_on_c, 0, 60, 74
2, 3189, Control_c, 0, 64, 17
2, 3195, Note_on_c, 0, 66, 0
2, 3204, Control_c, 0, 64, 15
2, 3220, Control_c, 0, 64, 13
2, 3246, Note_on_c, 0, 60, 0
2, 3262, Note_on_c, 0, 57, 72
2, 3265, Control_c, 0, 64, 10
2, 3311, Control_c, 0, 64, 0
2, 3339, Note_on_c, 0, 55, 73
2, 3341, Note_on_c, 0, 57, 0
2, 3345, Note_on_c, 0, 60, 77
2, 3361, Note_on_c, 0, 55, 0
2, 3412, Note_on_c, 0, 60, 0
2, 3414, Note_on_c, 0, 57, 65
2, 3483, Note_on_c, 0, 57, 0
2, 3486, Note_on_c, 0, 54, 77
2, 3539, Control_c, 0, 64, 28
2, 3554, Control_c, 0, 64, 41
2, 3565, Note_on_c, 0, 54, 0
2, 3568, Note_on_c, 0, 55, 84
2, 3569, Control_c, 0, 64, 48
2, 3585, Control_c, 0, 64, 52
2, 3600, Control_c, 0, 64, 55
2, 3614, Control_c, 0, 64, 58
2, 3630, Control_c, 0, 64, 61
2, 3645, Control_c, 0, 64, 62
2, 3654, Note_on_c, 0, 59, 74
2, 3661, Control_c, 0, 64, 63
2, 3690, Control_c, 0, 64, 62
2, 3706, Control_c, 0, 64, 62
2, 3715, Note_on_c, 0, 55, 0
2, 3729, Control_c, 0, 64, 60
2, 3742, Note_on_c, 0, 62, 77
2, 3744, Note_on_c, 0, 59, 0
2, 3745, Control_c, 0, 64, 59
2, 3759, Control_c, 0, 64, 56
2, 3774, Control_c, 0, 64, 53
2, 3790, Control_c, 0, 64, 48
2, 3804, Control_c, 0, 64, 42
2, 3808, Note_on_c, 0, 43, 72
2, 3813, Note_on_c, 0, 62, 0
2, 3816, Note_on_c, 0, 67, 82
2, 3820, Control_c, 0, 64, 37
2, 3835, Control_c, 0, 64, 27
2, 3846, Note_on_c, 0, 43, 0
2, 3850, Control_c, 0, 64, 0
2, 3892, Note_on_c, 0, 62, 73
2, 3899, Note_on_c, 0, 67, 0
2, 3954, Note_on_c, 0, 62, 0
2, 3957, Note_on_c, 0, 59, 76
2, 4027, Note_on_c, 0, 59, 0
2, 4030, Note_on_c, 0, 62, 79
2, 4079, Control_c, 0, 64, 33
2, 4093, Control_c, 0, 64, 47
2, 4098, Note_on_c, 0, 62, 0
2, 4101, Note_on_c, 0, 59, 75
2, 4109, Control_c, 0, 64, 53
2, 4124, Control_c, 0, 64, 57
2, 4140, Control_c, 0, 64, 58
2, 4150, Note_on_c, 0, 59, 0
2, 4155, Control_c, 0, 64, 60
2, 4165, Note_on_c, 0, 55, 69
2, 4169, Control_c, 0, 64, 62
2, 4185, Control_c, 0, 64, 64
2, 4199, Note_on_c, 0, 55, 0
2, 4200, Control_c, 0, 64, 66
2, 4214, Control_c, 0, 64, 67
2, 4230, Control_c, 0, 64, 68
2, 4245, Control_c, 0, 64, 69
2, 4249, Note_on_c, 0, 59, 69
2, 4254, Note_on_c, 0, 55, 65
2, 4283, Note_on_c, 0, 55, 0
2, 4307, Control_c, 0, 64, 68
2, 4321, Control_c, 0, 64, 68
2, 4326, Note_on_c, 0, 55, 68
2, 4329, Note_on_c, 0, 59, 0
2, 4336, Control_c, 0, 64, 67
2, 4352, Control_c, 0, 64, 66
2, 4367, Control_c, 0, 64, 65
2, 4383, Control_c, 0, 64, 64
2, 4391, Note_on_c, 0, 55, 0
2, 4397, Control_c, 0, 64, 63
2, 4397, Note_on_c, 0, 50, 78
2, 4412, Control_c, 0, 64, 62
2, 4428, Control_c, 0, 64, 60
2, 4429, Note_on_c, 0, 50, 0
2, 4443, Control_c, 0, 64, 57
2, 4459, Control_c, 0, 64, 55
2, 4473, Control_c, 0, 64, 53
2, 4496, Control_c, 0, 64, 47
2, 4512, Control_c, 0, 64, 40
2, 4514, Note_on_c, 0, 55, 80
2, 4526, Control_c, 0, 64, 31
2, 4526, Note_on_c, 0, 57, 64
2, 4542, Control_c, 0, 64, 18
2, 4557, Control_c, 0, 64, 0
2, 4603, Note_on_c, 0, 61, 71
2, 4629, Note_on_c, 0, 57, 0
2, 4675, Note_on_c, 0, 61, 0
2, 4678, Note_on_c, 0, 64, 78
2, 4752, Note_on_c, 0, 64, 0
2, 4753, Note_on_c, 0, 43, 68
2, 4761, Note_on_c, 0, 69, 76
2, 4776, Note_on_c, 0, 55, 0
2, 4791, Note_on_c, 0, 43, 0
2, 4820, Note_on_c, 0, 64, 69
2, 4820, Note_on_c, 0, 69, 0
2, 4845, Control_c, 0, 64, 21
2, 4861, Control_c, 0, 64, 29
2, 4876, Control_c, 0, 64, 34
2, 4891, Control_c, 0, 64, 38
2, 4902, Note_on_c, 0, 64, 0
2, 4907, Control_c, 0, 64, 43
2, 4908, Note_on_c, 0, 61, 75
2, 4922, Control_c, 0, 64, 48
2, 4936, Control_c, 0, 64, 51
2, 4952, Control_c, 0, 64, 52
2, 4976, Note_on_c, 0, 64, 72
2, 4981, Note_on_c, 0, 61, 0
2, 4983, Control_c, 0, 64, 51
2, 5012, Control_c, 0, 64, 51
2, 5028, Control_c, 0, 64, 50
2, 5043, Control_c, 0, 64, 50
2, 5050, Note_on_c, 0, 64, 0
2, 5051, Note_on_c, 0, 61, 76
2, 5058, Control_c, 0, 64, 49
2, 5073, Control_c, 0, 64, 48
2, 5089, Control_c, 0, 64, 47
2, 5105, Control_c, 0, 64, 46
2, 5110, Note_on_c, 0, 61, 0
2, 5120, Control_c, 0, 64, 45
2, 5122, Note_on_c, 0, 57, 65
2, 5135, Control_c, 0, 64, 44
2, 5151, Control_c, 0, 64, 44
2, 5181, Control_c, 0, 64, 43
2, 5181, Note_on_c, 0, 55, 62
2, 5204, Note_on_c, 0, 55, 0
2, 5204, Note_on_c, 0, 61, 74
2, 5205, Note_on_c, 0, 57, 0
2, 5211, Control_c, 0, 64, 42
2, 5227, Control_c, 0, 64, 41
2, 5241, Control_c, 0, 64, 39
2, 5265, Control_c, 0, 64, 38
2, 5283, Note_on_c, 0, 57, 62
2, 5310, Control_c, 0, 64, 37
2, 5314, Note_on_c, 0, 61, 0
2, 5325, Control_c, 0, 64, 37
2, 5341, Control_c, 0, 64, 36
2, 5356, Control_c, 0, 64, 34
2, 5356, Note_on_c, 0, 52, 72
2, 5360, Note_on_c, 0, 57, 0
2, 5370, Control_c, 0, 64, 32
2, 5386, Control_c, 0, 64, 30
2, 5401, Control_c, 0, 64, 29
2, 5415, Control_c, 0, 64, 27
2, 5431, Control_c, 0, 64, 24
2, 5439, Note_on_c, 0, 54, 64
2, 5443, Note_on_c, 0, 52, 0
2, 5446, Control_c, 0, 64, 17
2, 5446, Note_on_c, 0, 62, 77
2, 5462, Control_c, 0, 64, 0
2, 5513, Note_on_c, 0, 57, 61
2, 5525, Note_on_c, 0, 54, 0
2, 5564, Note_on_c, 0, 62, 0
2, 5585, Note_on_c, 0, 61, 71
2, 5601, Note_on_c, 0, 57, 0
2, 5647, Note_on_c, 0, 61, 0
2, 5672, Note_on_c, 0, 62, 65
2, 5689, Control_c, 0, 64, 10
2, 5705, Control_c, 0, 64, 13
2, 5709, Note_on_c, 0, 62, 0
2, 5745, Note_on_c, 0, 57, 64
2, 5781, Control_c, 0, 64, 10
2, 5796, Control_c, 0, 64, 0
2, 5811, Note_on_c, 0, 57, 0
2, 5825, Note_on_c, 0, 54, 67
2, 5884, Note_on_c, 0, 54, 0
2, 5905, Note_on_c, 0, 57, 72
2, 5990, Note_on_c, 0, 57, 0
2, 5996, Note_on_c, 0, 54, 67
2, 6063, Note_on_c, 0, 54, 0
2, 6084, Note_on_c, 0, 50, 57
2, 6123, Note_on_c, 0, 62, 75
2, 6128, Note_on_c, 0, 50, 0
2, 6148, Note_on_c, 0, 54, 58
2, 6159, Note_on_c, 0, 62, 0
2, 6202, Note_on_c, 0, 54, 0
2, 6226, Note_on_c, 0, 50, 60
2, 6288, Note_on_c, 0, 50, 0
2, 6306, Note_on_c, 0, 47, 59
2, 6360, Note_on_c, 0, 62, 63
2, 6364, Note_on_c, 0, 47, 0
2, 6379, Note_on_c, 0, 52, 78
2, 6433, Note_on_c, 0, 62, 0
2, 6449, Note_on_c, 0, 61, 61
2, 6528, Note_on_c, 0, 61, 0
2, 6545, Note_on_c, 0, 62, 46
2, 6616, Note_on_c, 0, 64, 55
2, 6627, Note_on_c, 0, 62, 0
2, 6631, Note_on_c, 0, 40, 72
2, 6642, Note_on_c, 0, 52, 0
2, 6665, Note_on_c, 0, 40, 0
2, 6700, Note_on_c, 0, 64, 0
2, 6706, Note_on_c, 0, 61, 61
2, 6772, Note_on_c, 0, 61, 0
2, 6779, Note_on_c, 0, 62, 63
2, 6865, Note_on_c, 0, 66, 73
2, 6885, Note_on_c, 0, 62, 0
2, 6952, Note_on_c, 0, 61, 61
2, 6955, Note_on_c, 0, 66, 0
2, 7005, Note_on_c, 0, 61, 0
2, 7019, Note_on_c, 0, 62, 52
2, 7096, Note_on_c, 0, 67, 69
2, 7106, Note_on_c, 0, 62, 0
2, 7110, Note_on_c, 0, 52, 71
2, 7140, Note_on_c, 0, 52, 0
2, 7191, Note_on_c, 0, 61, 62
2, 7191, Note_on_c, 0, 67, 0
2, 7245, Note_on_c, 0, 61, 0
2, 7262, Note_on_c, 0, 62, 63
2, 7353, Note_on_c, 0, 49, 60
2, 7355, Note_on_c, 0, 69, 66
2, 7371, Note_on_c, 0, 62, 0
2, 7447, Note_on_c, 0, 61, 59
2, 7449, Note_on_c, 0, 69, 0
2, 7509, Note_on_c, 0, 61, 0
2, 7518, Note_on_c, 0, 62, 60
2, 7604, Note_on_c, 0, 49, 0
2, 7610, Note_on_c, 0, 71, 70
2, 7611, Note_on_c, 0, 45, 54
2, 7632, Note_on_c, 0, 62, 0
2, 7641, Note_on_c, 0, 45, 0
2, 7709, Note_on_c, 0, 71, 0
2, 7720, Note_on_c, 0, 61, 50
2, 7759, Note_on_c, 0, 62, 63
2, 7766, Note_on_c, 0, 61, 0
2, 7852, Note_on_c, 0, 69, 75
2, 7856, Note_on_c, 0, 47, 66
2, 7870, Note_on_c, 0, 62, 0
2, 7889, Note_on_c, 0, 47, 0
2, 7951, Note_on_c, 0, 61, 64
2, 7953, Note_on_c, 0, 69, 0
2, 8013, Note_on_c, 0, 61, 0
2, 8019, Note_on_c, 0, 62, 62
2, 8098, Note_on_c, 0, 67, 78
2, 8104, Note_on_c, 0, 49, 69
2, 8115, Note_on_c, 0, 62, 0
2, 8136, Note_on_c, 0, 49, 0
2, 8186, Note_on_c, 0, 61, 65
2, 8206, Control_c, 0, 64, 10
2, 8222, Control_c, 0, 64, 13
2, 8230, Note_on_c, 0, 67, 0
2, 8236, Control_c, 0, 64, 15
2, 8263, Note_on_c, 0, 61, 0
2, 8265, Note_on_c, 0, 62, 54
2, 8312, Control_c, 0, 64, 13
2, 8359, Note_on_c, 0, 50, 63
2, 8360, Note_on_c, 0, 66, 75
2, 8366, Note_on_c, 0, 62, 0
2, 8411, Control_c, 0, 64, 15
2, 8418, Note_on_c, 0, 66, 0
2, 8421, Note_on_c, 0, 50, 0
2, 8456, Note_on_c, 0, 61, 59
2, 8518, Control_c, 0, 64, 10
2, 8532, Note_on_c, 0, 61, 0
2, 8533, Control_c, 0, 64, 0
2, 8544, Note_on_c, 0, 62, 51
2, 8606, Note_on_c, 0, 62, 0
2, 8608, Note_on_c, 0, 67, 85
2, 8609, Note_on_c, 0, 52, 62
2, 8650, Note_on_c, 0, 67, 0
2, 8683, Note_on_c, 0, 52, 0
2, 8708, Note_on_c, 0, 61, 55
2, 8786, Note_on_c, 0, 62, 53
2, 8794, Note_on_c, 0, 61, 0
2, 8822, Control_c, 0, 64, 10
2, 8841, Note_on_c, 0, 62, 0
2, 8852, Control_c, 0, 64, 13
2, 8858, Note_on_c, 0, 69, 87
2, 8861, Note_on_c, 0, 54, 59
2, 8867, Control_c, 0, 64, 15
2, 8882, Control_c, 0, 64, 18
2, 8891, Note_on_c, 0, 69, 0
2, 8898, Control_c, 0, 64, 20
2, 8913, Control_c, 0, 64, 21
2, 8928, Control_c, 0, 64, 24
2, 8938, Note_on_c, 0, 61, 59
2, 8944, Control_c, 0, 64, 26
2, 8947, Note_on_c, 0, 54, 0
2, 8973, Control_c, 0, 64, 27
2, 9020, Control_c, 0, 64, 26
2, 9032, Note_on_c, 0, 61, 0
2, 9032, Note_on_c, 0, 62, 59
2, 9035, Control_c, 0, 64, 25
2, 9050, Control_c, 0, 64, 24
2, 9108, Note_on_c, 0, 71, 80
2, 9114, Note_on_c, 0, 62, 0
2, 9117, Note_on_c, 0, 55, 55
2, 9118, Control_c, 0, 64, 25
2, 9148, Control_c, 0, 64, 26
2, 9150, Note_on_c, 0, 71, 0
2, 9163, Control_c, 0, 64, 28
2, 9180, Control_c, 0, 64, 29
2, 9182, Note_on_c, 0, 55, 0
2, 9195, Control_c, 0, 64, 31
2, 9206, Note_on_c, 0, 61, 58
2, 9210, Control_c, 0, 64, 33
2, 9226, Control_c, 0, 64, 35
2, 9240, Control_c, 0, 64, 37
2, 9254, Note_on_c, 0, 61, 0
2, 9255, Control_c, 0, 64, 38
2, 9271, Control_c, 0, 64, 38
2, 9285, Note_on_c, 0, 62, 54
2, 9301, Control_c, 0, 64, 39
2, 9331, Control_c, 0, 64, 39
2, 9362, Control_c, 0, 64, 40
2, 9362, Note_on_c, 0, 62, 0
2, 9369, Note_on_c, 0, 54, 57
2, 9374, Note_on_c, 0, 69, 71
2, 9393, Control_c, 0, 64, 41
2, 9424, Control_c, 0, 64, 41
2, 9453, Control_c, 0, 64, 41
2, 9462, Note_on_c, 0, 54, 0
2, 9466, Note_on_c, 0, 61, 57
2, 9469, Control_c, 0, 64, 40
2, 9484, Control_c, 0, 64, 40
2, 9514, Control_c, 0, 64, 39
2, 9529, Control_c, 0, 64, 39
2, 9545, Control_c, 0, 64, 38
2, 9546, Note_on_c, 0, 61, 0
2, 9551, Note_on_c, 0, 62, 52
2, 9559, Control_c, 0, 64, 37
2, 9574, Control_c, 0, 64, 37
2, 9590, Control_c, 0, 64, 36
2, 9605, Control_c, 0, 64, 35
2, 9609, Note_on_c, 0, 69, 0
2, 9619, Note_on_c, 0, 67, 76
2, 9623, Note_on_c, 0, 62, 0
2, 9631, Note_on_c, 0, 52, 59
2, 9635, Control_c, 0, 64, 34
2, 9652, Note_on_c, 0, 67, 0
2, 9682, Control_c, 0, 64, 34
2, 9705, Note_on_c, 0, 52, 0
2, 9711, Note_on_c, 0, 61, 53
2, 9727, Control_c, 0, 64, 33
2, 9757, Note_on_c, 0, 61, 0
2, 9758, Control_c, 0, 64, 32
2, 9784, Note_on_c, 0, 62, 56
2, 9803, Control_c, 0, 64, 33
2, 9819, Control_c, 0, 64, 34
2, 9834, Control_c, 0, 64, 35
2, 9848, Control_c, 0, 64, 36
2, 9868, Note_on_c, 0, 62, 0
2, 9872, Control_c, 0, 64, 37
2, 9872, Note_on_c, 0, 66, 82
2, 9881, Note_on_c, 0, 50, 62
2, 9887, Control_c, 0, 64, 37
2, 9902, Control_c, 0, 64, 38
2, 9917, Control_c, 0, 64, 39
2, 9921, Note_on_c, 0, 50, 0
2, 9927, Note_on_c, 0, 66, 0
2, 9948, Control_c, 0, 64, 39
2, 9963, Control_c, 0, 64, 40
2, 9978, Control_c, 0, 64, 41
2, 9978, Note_on_c, 0, 61, 61
2, 9993, Control_c, 0, 64, 42
2, 10009, Control_c, 0, 64, 43
2, 10025, Control_c, 0, 64, 43
2, 10055, Control_c, 0, 64, 44
2, 10061, Note_on_c, 0, 62, 55
2, 10063, Note_on_c, 0, 61, 0
2, 10085, Control_c, 0, 64, 44
2, 10101, Control_c, 0, 64, 45
2, 10114, Note_on_c, 0, 69, 86
2, 10116, Control_c, 0, 64, 46
2, 10119, Note_on_c, 0, 62, 0
2, 10129, Note_on_c, 0, 54, 62
2, 10131, Control_c, 0, 64, 47
2, 10147, Control_c, 0, 64, 49
2, 10158, Note_on_c, 0, 69, 0
2, 10161, Control_c, 0, 64, 50
2, 10176, Control_c, 0, 64, 53
2, 10192, Control_c, 0, 64, 55
2, 10200, Note_on_c, 0, 61, 69
2, 10206, Control_c, 0, 64, 57
2, 10212, Note_on_c, 0, 54, 0
2, 10222, Control_c, 0, 64, 58
2, 10237, Control_c, 0, 64, 59
2, 10252, Control_c, 0, 64, 59
2, 10268, Control_c, 0, 64, 60
2, 10270, Note_on_c, 0, 61, 0
2, 10280, Note_on_c, 0, 62, 68
2, 10308, Note_on_c, 0, 62, 0
2, 10313, Control_c, 0, 64, 59
2, 10328, Control_c, 0, 64, 58
2, 10344, Control_c, 0, 64, 57
2, 10359, Control_c, 0, 64, 56
2, 10374, Control_c, 0, 64, 52
2, 10378, Note_on_c, 0, 68, 83
2, 10389, Control_c, 0, 64, 47
2, 10395, Note_on_c, 0, 47, 74
2, 10404, Control_c, 0, 64, 41
2, 10420, Control_c, 0, 64, 29
2, 10435, Control_c, 0, 64, 0
2, 10459, Note_on_c, 0, 68, 0
2, 10469, Note_on_c, 0, 71, 71
2, 10533, Note_on_c, 0, 71, 0
2, 10536, Note_on_c, 0, 74, 71
2, 10605, Note_on_c, 0, 47, 0
2, 10611, Note_on_c, 0, 74, 0
2, 10611, Note_on_c, 0, 77, 86
2, 10619, Note_on_c, 0, 59, 72
2, 10655, Control_c, 0, 64, 18
2, 10664, Note_on_c, 0, 59, 0
2, 10671, Control_c, 0, 64, 30
2, 10686, Control_c, 0, 64, 34
2, 10701, Control_c, 0, 64, 37
2, 10705, Note_on_c, 0, 74, 72
2, 10713, Note_on_c, 0, 77, 0
2, 10716, Control_c, 0, 64, 39
2, 10731, Control_c, 0, 64, 41
2, 10746, Control_c, 0, 64, 42
2, 10774, Note_on_c, 0, 74, 0
2, 10778, Note_on_c, 0, 71, 77
2, 10807, Control_c, 0, 64, 42
2, 10824, Control_c, 0, 64, 41
2, 10845, Note_on_c, 0, 71, 0
2, 10849, Note_on_c, 0, 74, 69
2, 10853, Control_c, 0, 64, 41
2, 10869, Control_c, 0, 64, 40
2, 10884, Control_c, 0, 64, 39
2, 10900, Control_c, 0, 64, 38
2, 10915, Control_c, 0, 64, 37
2, 10918, Note_on_c, 0, 74, 0
2, 10926, Note_on_c, 0, 71, 72
2, 10929, Control_c, 0, 64, 36
2, 10966, Note_on_c, 0, 71, 0
2, 10974, Control_c, 0, 64, 37
2, 10992, Note_on_c, 0, 68, 84
2, 11005, Control_c, 0, 64, 37
2, 11027, Note_on_c, 0, 68, 0
2, 11036, Control_c, 0, 64, 37
2, 11050, Control_c, 0, 64, 36
2, 11066, Control_c, 0, 64, 34
2, 11077, Note_on_c, 0, 57, 71
2, 11081, Control_c, 0, 64, 32
2, 11083, Note_on_c, 0, 71, 77
2, 11096, Control_c, 0, 64, 30
2, 11101, Note_on_c, 0, 57, 0
2, 11112, Control_c, 0, 64, 27
2, 11126, Control_c, 0, 64, 23
2, 11142, Control_c, 0, 64, 20
2, 11157, Control_c, 0, 64, 18
2, 11165, Note_on_c, 0, 68, 77
2, 11187, Control_c, 0, 64, 20
2, 11191, Note_on_c, 0, 71, 0
2, 11218, Control_c, 0, 64, 21
2, 11238, Note_on_c, 0, 65, 74
2, 11244, Note_on_c, 0, 68, 0
2, 11247, Control_c, 0, 64, 23
2, 11263, Control_c, 0, 64, 24
2, 11278, Control_c, 0, 64, 25
2, 11293, Control_c, 0, 64, 26
2, 11311, Note_on_c, 0, 62, 75
2, 11313, Note_on_c, 0, 56, 73
2, 11313, Note_on_c, 0, 65, 0
2, 11339, Control_c, 0, 64, 25
2, 11394, Note_on_c, 0, 65, 73
2, 11407, Control_c, 0, 64, 26
2, 11420, Note_on_c, 0, 62, 0
2, 11438, Control_c, 0, 64, 27
2, 11452, Control_c, 0, 64, 28
2, 11468, Control_c, 0, 64, 29
2, 11481, Note_on_c, 0, 68, 78
2, 11482, Note_on_c, 0, 65, 0
2, 11483, Control_c, 0, 64, 29
2, 11499, Control_c, 0, 64, 30
2, 11528, Control_c, 0, 64, 31
2, 11544, Control_c, 0, 64, 32
2, 11557, Note_on_c, 0, 44, 70
2, 11559, Control_c, 0, 64, 34
2, 11560, Note_on_c, 0, 68, 0
2, 11563, Note_on_c, 0, 71, 80
2, 11574, Control_c, 0, 64, 36
2, 11584, Note_on_c, 0, 56, 0
2, 11589, Control_c, 0, 64, 37
2, 11594, Note_on_c, 0, 44, 0
2, 11604, Control_c, 0, 64, 38
2, 11620, Control_c, 0, 64, 38
2, 11636, Control_c, 0, 64, 39
2, 11643, Note_on_c, 0, 68, 76
2, 11649, Note_on_c, 0, 71, 0
2, 11651, Control_c, 0, 64, 39
2, 11667, Control_c, 0, 64, 40
2, 11682, Control_c, 0, 64, 40
2, 11716, Note_on_c, 0, 65, 75
2, 11716, Note_on_c, 0, 68, 0
2, 11727, Control_c, 0, 64, 39
2, 11743, Control_c, 0, 64, 38
2, 11758, Control_c, 0, 64, 36
2, 11772, Control_c, 0, 64, 34
2, 11787, Note_on_c, 0, 65, 0
2, 11788, Control_c, 0, 64, 33
2, 11790, Note_on_c, 0, 68, 76
2, 11803, Control_c, 0, 64, 32
2, 11818, Control_c, 0, 64, 29
2, 11833, Control_c, 0, 64, 27
2, 11848, Control_c, 0, 64, 24
2, 11862, Note_on_c, 0, 68, 0
2, 11864, Control_c, 0, 64, 21
2, 11864, Note_on_c, 0, 65, 73
2, 11879, Control_c, 0, 64, 20
2, 11921, Note_on_c, 0, 65, 0
2, 11924, Control_c, 0, 64, 23
2, 11938, Note_on_c, 0, 62, 64
2, 11940, Control_c, 0, 64, 26
2, 11955, Control_c, 0, 64, 27
2, 11970, Control_c, 0, 64, 28
2, 11998, Note_on_c, 0, 56, 63
2, 12004, Note_on_c, 0, 65, 81
2, 12006, Note_on_c, 0, 62, 0
2, 12015, Control_c, 0, 64, 29
2, 12031, Note_on_c, 0, 56, 0
2, 12046, Control_c, 0, 64, 29
2, 12062, Control_c, 0, 64, 30
2, 12075, Note_on_c, 0, 62, 67
2, 12077, Control_c, 0, 64, 31
2, 12092, Control_c, 0, 64, 32
2, 12099, Note_on_c, 0, 65, 0
2, 12107, Control_c, 0, 64, 33
2, 12138, Control_c, 0, 64, 34
2, 12145, Note_on_c, 0, 62, 0
2, 12148, Note_on_c, 0, 59, 76
2, 12153, Control_c, 0, 64, 34
2, 12174, Control_c, 0, 64, 35
2, 12190, Control_c, 0, 64, 36
2, 12205, Control_c, 0, 64, 39
2, 12221, Control_c, 0, 64, 41
2, 12227, Note_on_c, 0, 59, 0
2, 12236, Control_c, 0, 64, 43
2, 12236, Note_on_c, 0, 57, 57
2, 12249, Note_on_c, 0, 60, 83
2, 12251, Control_c, 0, 64, 44
2, 12267, Control_c, 0, 64, 45
2, 12279, Note_on_c, 0, 60, 0
2, 12282, Control_c, 0, 64, 45
2, 12312, Control_c, 0, 64, 44
2, 12320, Note_on_c, 0, 57, 0
2, 12325, Note_on_c, 0, 60, 51
2, 12327, Control_c, 0, 64, 44
2, 12388, Control_c, 0, 64, 44
2, 12390, Note_on_c, 0, 60, 0
2, 12401, Note_on_c, 0, 64, 72
2, 12419, Control_c, 0, 64, 45
2, 12433, Control_c, 0, 64, 46
2, 12465, Control_c, 0, 64, 46
2, 12481, Note_on_c, 0, 64, 0
2, 12494, Note_on_c, 0, 76, 87
2, 12495, Control_c, 0, 64, 46
2, 12511, Control_c, 0, 64, 45
2, 12512, Note_on_c, 0, 69, 73
2, 12526, Control_c, 0, 64, 45
2, 12539, Note_on_c, 0, 76, 0
2, 12541, Control_c, 0, 64, 44
2, 12554, Note_on_c, 0, 69, 0
2, 12594, Note_on_c, 0, 64, 65
2, 12616, Control_c, 0, 64, 43
2, 12632, Control_c, 0, 64, 42
2, 12644, Note_on_c, 0, 64, 0
2, 12647, Control_c, 0, 64, 42
2, 12662, Control_c, 0, 64, 41
2, 12671, Note_on_c, 0, 60, 63
2, 12677, Control_c, 0, 64, 41
2, 12708, Control_c, 0, 64, 40
2, 12736, Note_on_c, 0, 60, 0
2, 12748, Note_on_c, 0, 72, 92
2, 12766, Note_on_c, 0, 64, 72
2, 12769, Control_c, 0, 64, 40
2, 12784, Control_c, 0, 64, 39
2, 12790, Note_on_c, 0, 72, 0
2, 12805, Note_on_c, 0, 64, 0
2, 12814, Control_c, 0, 64, 39
2, 12830, Control_c, 0, 64, 39
2, 12850, Note_on_c, 0, 60, 65
2, 12861, Control_c, 0, 64, 40
2, 12906, Control_c, 0, 64, 39
2, 12912, Note_on_c, 0, 60, 0
2, 12921, Control_c, 0, 64, 39
2, 12927, Note_on_c, 0, 57, 69
2, 12974, Control_c, 0, 64, 39
2, 12990, Control_c, 0, 64, 40
2, 12993, Note_on_c, 0, 57, 0
2, 13004, Control_c, 0, 64, 40
2, 13011, Note_on_c, 0, 69, 92
2, 13020, Control_c, 0, 64, 41
2, 13022, Note_on_c, 0, 60, 76
2, 13035, Control_c, 0, 64, 42
2, 13050, Control_c, 0, 64, 43
2, 13053, Note_on_c, 0, 69, 0
2, 13066, Control_c, 0, 64, 44
2, 13079, Note_on_c, 0, 60, 0
2, 13080, Control_c, 0, 64, 46
2, 13095, Control_c, 0, 64, 47
2, 13095, Note_on_c, 0, 57, 70
2, 13111, Control_c, 0, 64, 48
2, 13126, Control_c, 0, 64, 48
2, 13156, Control_c, 0, 64, 49
2, 13163, Note_on_c, 0, 57, 0
2, 13172, Note_on_c, 0, 52, 69
2, 13202, Control_c, 0, 64, 48
2, 13218, Control_c, 0, 64, 47
2, 13245, Note_on_c, 0, 52, 0
2, 13246, Control_c, 0, 64, 46
2, 13261, Control_c, 0, 64, 46
2, 13270, Note_on_c, 0, 64, 89
2, 13273, Note_on_c, 0, 48, 79
2, 13307, Control_c, 0, 64, 46
2, 13322, Control_c, 0, 64, 47
2, 13337, Control_c, 0, 64, 47
2, 13353, Control_c, 0, 64, 48
2, 13355, Note_on_c, 0, 52, 72
2, 13360, Note_on_c, 0, 48, 0
2, 13383, Control_c, 0, 64, 49
2, 13414, Control_c, 0, 64, 48
2, 13443, Note_on_c, 0, 52, 0
2, 13444, Note_on_c, 0, 57, 63
2, 13446, Note_on_c, 0, 64, 0
2, 13448, Note_on_c, 0, 59, 63
2, 13459, Control_c, 0, 64, 48
2, 13475, Control_c, 0, 64, 47
2, 13490, Control_c, 0, 64, 47
2, 13503, Note_on_c, 0, 59, 0
2, 13505, Control_c, 0, 64, 46
2, 13508, Note_on_c, 0, 57, 0
2, 13520, Control_c, 0, 64, 45
2, 13522, Note_on_c, 0, 76, 90
2, 13531, Note_on_c, 0, 60, 73
2, 13535, Control_c, 0, 64, 45
2, 13566, Control_c, 0, 64, 44
2, 13580, Control_c, 0, 64, 43
2, 13582, Note_on_c, 0, 76, 0
2, 13596, Control_c, 0, 64, 42
2, 13597, Note_on_c, 0, 60, 0
2, 13611, Control_c, 0, 64, 40
2, 13613, Note_on_c, 0, 57, 68
2, 13626, Control_c, 0, 64, 36
2, 13641, Control_c, 0, 64, 32
2, 13656, Control_c, 0, 64, 27
2, 13672, Control_c, 0, 64, 21
2, 13672, Note_on_c, 0, 57, 0
2, 13687, Control_c, 0, 64, 15
2, 13688, Note_on_c, 0, 52, 69
2, 13710, Control_c, 0, 64, 0
2, 13762, Note_on_c, 0, 52, 0
2, 13774, Note_on_c, 0, 72, 91
2, 13783, Note_on_c, 0, 57, 81
2, 13816, Control_c, 0, 64, 10
2, 13830, Note_on_c, 0, 72, 0
2, 13832, Control_c, 0, 64, 17
2, 13839, Note_on_c, 0, 57, 0
2, 13846, Control_c, 0, 64, 21
2, 13861, Control_c, 0, 64, 23
2, 13873, Note_on_c, 0, 52, 75
2, 13908, Control_c, 0, 64, 24
2, 13930, Note_on_c, 0, 52, 0
2, 13937, Control_c, 0, 64, 26
2, 13942, Note_on_c, 0, 48, 73
2, 13953, Control_c, 0, 64, 29
2, 13968, Control_c, 0, 64, 32
2, 13983, Control_c, 0, 64, 34
2, 13998, Control_c, 0, 64, 34
2, 14011, Note_on_c, 0, 48, 0
2, 14013, Control_c, 0, 64, 35
2, 14026, Note_on_c, 0, 69, 88
2, 14038, Note_on_c, 0, 52, 82
2, 14063, Note_on_c, 0, 69, 0
2, 14090, Control_c, 0, 64, 36
2, 14099, Note_on_c, 0, 52, 0
2, 14106, Control_c, 0, 64, 38
2, 14111, Note_on_c, 0, 48, 74
2, 14121, Control_c, 0, 64, 40
2, 14135, Control_c, 0, 64, 41
2, 14151, Control_c, 0, 64, 42
2, 14166, Control_c, 0, 64, 43
2, 14172, Note_on_c, 0, 48, 0
2, 14176, Note_on_c, 0, 45, 72
2, 14181, Control_c, 0, 64, 43
2, 14212, Control_c, 0, 64, 44
2, 14230, Note_on_c, 0, 45, 0
2, 14285, Note_on_c, 0, 75, 87
2, 14309, Note_on_c, 0, 42, 72
2, 14319, Control_c, 0, 64, 44
2, 14374, Note_on_c, 0, 78, 82
2, 14379, Control_c, 0, 64, 45
2, 14395, Note_on_c, 0, 75, 0
2, 14452, Note_on_c, 0, 81, 79
2, 14474, Note_on_c, 0, 78, 0
2, 14478, Control_c, 0, 64, 44
2, 14512, Note_on_c, 0, 42, 0
2, 14536, Note_on_c, 0, 54, 62
2, 14537, Note_on_c, 0, 84, 83
2, 14539, Control_c, 0, 64, 45
2, 14542, Note_on_c, 0, 81, 0
2, 14554, Control_c, 0, 64, 46
2, 14569, Control_c, 0, 64, 47
2, 14583, Note_on_c, 0, 54, 0
2, 14585, Control_c, 0, 64, 47
2, 14600, Control_c, 0, 64, 48
2, 14613, Note_on_c, 0, 81, 73
2, 14615, Control_c, 0, 64, 49
2, 14636, Note_on_c, 0, 84, 0
2, 14645, Control_c, 0, 64, 50
2, 14691, Note_on_c, 0, 78, 81
2, 14701, Note_on_c, 0, 81, 0
2, 14721, Control_c, 0, 64, 49
2, 14752, Control_c, 0, 64, 48
2, 14766, Control_c, 0, 64, 48
2, 14773, Note_on_c, 0, 81, 75
2, 14778, Note_on_c, 0, 78, 0
2, 14781, Control_c, 0, 64, 47
2, 14797, Control_c, 0, 64, 47
2, 14811, Control_c, 0, 64, 46
2, 14845, Note_on_c, 0, 78, 81
2, 14851, Note_on_c, 0, 81, 0
2, 14902, Note_on_c, 0, 78, 0
2, 14915, Note_on_c, 0, 75, 74
2, 14919, Control_c, 0, 64, 46
2, 14934, Control_c, 0, 64, 47
2, 14992, Note_on_c, 0, 75, 0
2, 15004, Note_on_c, 0, 78, 79
2, 15007, Note_on_c, 0, 52, 63
2, 15010, Control_c, 0, 64, 46
2, 15042, Note_on_c, 0, 52, 0
2, 15086, Control_c, 0, 64, 47
2, 15091, Note_on_c, 0, 75, 67
2, 15101, Control_c, 0, 64, 47
2, 15143, Note_on_c, 0, 78, 0
2, 15164, Note_on_c, 0, 72, 75
2, 15190, Note_on_c, 0, 75, 0
2, 15207, Control_c, 0, 64, 47
2, 15257, Note_on_c, 0, 69, 75
2, 15258, Note_on_c, 0, 72, 0
2, 15267, Note_on_c, 0, 51, 54
2, 15276, Control_c, 0, 64, 46
2, 15291, Control_c, 0, 64, 46
2, 15321, Control_c, 0, 64, 45
2, 15336, Control_c, 0, 64, 44
2, 15346, Note_on_c, 0, 72, 74
2, 15357, Note_on_c, 0, 69, 0
2, 15367, Control_c, 0, 64, 44
2, 15419, Note_on_c, 0, 75, 79
2, 15420, Note_on_c, 0, 72, 0
2, 15428, Control_c, 0, 64, 44
2, 15473, Control_c, 0, 64, 45
2, 15488, Control_c, 0, 64, 46
2, 15494, Note_on_c, 0, 39, 60
2, 15502, Note_on_c, 0, 75, 0
2, 15503, Control_c, 0, 64, 47
2, 15508, Note_on_c, 0, 78, 83
2, 15519, Control_c, 0, 64, 47
2, 15532, Note_on_c, 0, 51, 0
2, 15533, Control_c, 0, 64, 48
2, 15554, Note_on_c, 0, 39, 0
2, 15564, Control_c, 0, 64, 49
2, 15581, Note_on_c, 0, 75, 72
2, 15606, Note_on_c, 0, 78, 0
2, 15655, Control_c, 0, 64, 48
2, 15659, Note_on_c, 0, 75, 0
2, 15660, Note_on_c, 0, 72, 74
2, 15670, Control_c, 0, 64, 47
2, 15685, Control_c, 0, 64, 46
2, 15700, Control_c, 0, 64, 45
2, 15716, Control_c, 0, 64, 44
2, 15732, Control_c, 0, 64, 43
2, 15733, Note_on_c, 0, 72, 0
2, 15734, Note_on_c, 0, 75, 70
2, 15748, Control_c, 0, 64, 42
2, 15762, Control_c, 0, 64, 40
2, 15777, Control_c, 0, 64, 38
2, 15794, Control_c, 0, 64, 36
2, 15809, Control_c, 0, 64, 33
2, 15811, Note_on_c, 0, 72, 73
2, 15817, Note_on_c, 0, 75, 0
2, 15825, Control_c, 0, 64, 31
2, 15839, Control_c, 0, 64, 30
2, 15868, Note_on_c, 0, 72, 0
2, 15884, Note_on_c, 0, 69, 65
2, 15957, Note_on_c, 0, 69, 0
2, 15961, Note_on_c, 0, 72, 76
2, 15966, Note_on_c, 0, 51, 47
2, 15991, Control_c, 0, 64, 31
2, 15994, Note_on_c, 0, 51, 0
2, 16030, Control_c, 0, 64, 32
2, 16038, Note_on_c, 0, 72, 0
2, 16041, Note_on_c, 0, 69, 68
2, 16059, Control_c, 0, 64, 32
2, 16111, Note_on_c, 0, 69, 0
2, 16116, Note_on_c, 0, 66, 73
2, 16151, Control_c, 0, 64, 33
2, 16165, Control_c, 0, 64, 34
2, 16180, Control_c, 0, 64, 34
2, 16196, Control_c, 0, 64, 35
2, 16203, Note_on_c, 0, 66, 0
2, 16204, Note_on_c, 0, 52, 55
2, 16208, Note_on_c, 0, 67, 73
2, 16227, Control_c, 0, 64, 36
2, 16239, Note_on_c, 0, 67, 0
2, 16242, Control_c, 0, 64, 36
2, 16248, Note_on_c, 0, 52, 0
2, 16273, Control_c, 0, 64, 37
2, 16287, Control_c, 0, 64, 38
2, 16302, Control_c, 0, 64, 39
2, 16312, Note_on_c, 0, 63, 58
2, 16318, Control_c, 0, 64, 39
2, 16333, Control_c, 0, 64, 40
2, 16364, Note_on_c, 0, 63, 0
2, 16398, Note_on_c, 0, 64, 47
2, 16454, Note_on_c, 0, 64, 0
2, 16471, Note_on_c, 0, 69, 76
2, 16477, Note_on_c, 0, 54, 49
2, 16495, Note_on_c, 0, 69, 0
2, 16547, Control_c, 0, 64, 40
2, 16554, Note_on_c, 0, 54, 0
2, 16562, Control_c, 0, 64, 41
2, 16562, Note_on_c, 0, 63, 56
2, 16639, Note_on_c, 0, 63, 0
2, 16646, Note_on_c, 0, 64, 49
2, 16653, Control_c, 0, 64, 40
2, 16669, Control_c, 0, 64, 40
2, 16714, Note_on_c, 0, 64, 0
2, 16725, Note_on_c, 0, 71, 75
2, 16737, Note_on_c, 0, 55, 54
2, 16743, Control_c, 0, 64, 40
2, 16754, Note_on_c, 0, 71, 0
2, 16759, Control_c, 0, 64, 41
2, 16782, Control_c, 0, 64, 41
2, 16801, Note_on_c, 0, 55, 0
2, 16812, Control_c, 0, 64, 42
2, 16826, Note_on_c, 0, 63, 52
2, 16828, Control_c, 0, 64, 42
2, 16901, Note_on_c, 0, 63, 0
2, 16908, Note_on_c, 0, 64, 50
2, 16964, Control_c, 0, 64, 43
2, 16971, Note_on_c, 0, 64, 0
2, 16979, Control_c, 0, 64, 44
2, 16992, Note_on_c, 0, 72, 73
2, 16995, Control_c, 0, 64, 45
2, 17009, Control_c, 0, 64, 46
2, 17009, Note_on_c, 0, 57, 54
2, 17025, Control_c, 0, 64, 47
2, 17027, Note_on_c, 0, 72, 0
2, 17040, Control_c, 0, 64, 48
2, 17055, Control_c, 0, 64, 49
2, 17066, Note_on_c, 0, 57, 0
2, 17071, Control_c, 0, 64, 50
2, 17086, Control_c, 0, 64, 51
2, 17096, Note_on_c, 0, 63, 55
2, 17101, Control_c, 0, 64, 52
2, 17116, Control_c, 0, 64, 52
2, 17159, Note_on_c, 0, 63, 0
2, 17162, Control_c, 0, 64, 52
2, 17178, Note_on_c, 0, 64, 46
2, 17193, Control_c, 0, 64, 51
2, 17263, Note_on_c, 0, 55, 43
2, 17263, Note_on_c, 0, 71, 69
2, 17269, Note_on_c, 0, 64, 0
2, 17298, Control_c, 0, 64, 51
2, 17331, Note_on_c, 0, 55, 0
2, 17352, Note_on_c, 0, 63, 60
2, 17359, Control_c, 0, 64, 50
2, 17406, Note_on_c, 0, 63, 0
2, 17446, Note_on_c, 0, 64, 54
2, 17497, Note_on_c, 0, 64, 0
2, 17507, Note_on_c, 0, 69, 79
2, 17514, Note_on_c, 0, 54, 57
2, 17514, Note_on_c, 0, 71, 0
2, 17551, Control_c, 0, 64, 50
2, 17551, Note_on_c, 0, 69, 0
2, 17566, Control_c, 0, 64, 49
2, 17580, Control_c, 0, 64, 49
2, 17596, Control_c, 0, 64, 48
2, 17600, Note_on_c, 0, 54, 0
2, 17611, Control_c, 0, 64, 48
2, 17623, Note_on_c, 0, 63, 45
2, 17627, Control_c, 0, 64, 47
2, 17642, Control_c, 0, 64, 46
2, 17651, Note_on_c, 0, 63, 0
2, 17656, Control_c, 0, 64, 46
2, 17672, Control_c, 0, 64, 45
2, 17682, Note_on_c, 0, 64, 50
2, 17687, Control_c, 0, 64, 44
2, 17701, Control_c, 0, 64, 43
2, 17717, Control_c, 0, 64, 42
2, 17763, Control_c, 0, 64, 43
2, 17763, Note_on_c, 0, 64, 0
2, 17775, Note_on_c, 0, 52, 60
2, 17777, Control_c, 0, 64, 43
2, 17777, Note_on_c, 0, 67, 69
2, 17793, Control_c, 0, 64, 44
2, 17808, Control_c, 0, 64, 44
2, 17813, Note_on_c, 0, 67, 0
2, 17823, Control_c, 0, 64, 45
2, 17831, Note_on_c, 0, 52, 0
2, 17853, Control_c, 0, 64, 45
2, 17878, Note_on_c, 0, 63, 61
2, 17899, Control_c, 0, 64, 46
2, 17929, Control_c, 0, 64, 47
2, 17959, Note_on_c, 0, 63, 0
2, 17960, Control_c, 0, 64, 47
2, 17972, Note_on_c, 0, 64, 43
2, 18021, Control_c, 0, 64, 48
2, 18028, Note_on_c, 0, 64, 0
2, 18037, Control_c, 0, 64, 49
2, 18037, Note_on_c, 0, 71, 70
2, 18040, Note_on_c, 0, 55, 59
2, 18051, Control_c, 0, 64, 49
2, 18067, Control_c, 0, 64, 50
2, 18070, Note_on_c, 0, 71, 0
2, 18082, Control_c, 0, 64, 51
2, 18112, Control_c, 0, 64, 51
2, 18112, Note_on_c, 0, 55, 0
2, 18116, Note_on_c, 0, 63, 60
2, 18127, Control_c, 0, 64, 52
2, 18142, Control_c, 0, 64, 53
2, 18173, Control_c, 0, 64, 53
2, 18179, Note_on_c, 0, 63, 0
2, 18195, Note_on_c, 0, 64, 60
2, 18220, Note_on_c, 0, 64, 0
2, 18235, Control_c, 0, 64, 53
2, 18290, Note_on_c, 0, 69, 65
2, 18299, Note_on_c, 0, 49, 71
2, 18349, Control_c, 0, 64, 52
2, 18351, Note_on_c, 0, 49, 0
2, 18362, Note_on_c, 0, 69, 0
2, 18379, Control_c, 0, 64, 52
2, 18388, Note_on_c, 0, 68, 65
2, 18409, Control_c, 0, 64, 51
2, 18440, Control_c, 0, 64, 51
2, 18444, Note_on_c, 0, 68, 0
2, 18465, Note_on_c, 0, 69, 59
2, 18471, Control_c, 0, 64, 50
2, 18531, Control_c, 0, 64, 50
2, 18545, Note_on_c, 0, 71, 63
2, 18549, Note_on_c, 0, 69, 0
2, 18551, Note_on_c, 0, 50, 65
2, 18578, Note_on_c, 0, 50, 0
2, 18607, Control_c, 0, 64, 49
2, 18621, Control_c, 0, 64, 49
2, 18627, Note_on_c, 0, 71, 0
2, 18633, Note_on_c, 0, 68, 66
2, 18697, Control_c, 0, 64, 48
2, 18707, Note_on_c, 0, 68, 0
2, 18712, Note_on_c, 0, 69, 62
2, 18743, Control_c, 0, 64, 47
2, 18758, Control_c, 0, 64, 47
2, 18773, Control_c, 0, 64, 46
2, 18794, Note_on_c, 0, 73, 73
2, 18798, Note_on_c, 0, 52, 79
2, 18804, Control_c, 0, 64, 45
2, 18807, Note_on_c, 0, 69, 0
2, 18835, Control_c, 0, 64, 45
2, 18839, Note_on_c, 0, 52, 0
2, 18884, Note_on_c, 0, 73, 0
2, 18888, Note_on_c, 0, 68, 69
2, 18895, Control_c, 0, 64, 45
2, 18911, Control_c, 0, 64, 46
2, 18948, Note_on_c, 0, 69, 66
2, 18954, Note_on_c, 0, 68, 0
2, 19045, Note_on_c, 0, 74, 69
2, 19052, Note_on_c, 0, 69, 0
2, 19053, Note_on_c, 0, 54, 80
2, 19101, Control_c, 0, 64, 46
2, 19117, Control_c, 0, 64, 47
2, 19127, Note_on_c, 0, 54, 0
2, 19132, Control_c, 0, 64, 47
2, 19143, Note_on_c, 0, 68, 72
2, 19153, Note_on_c, 0, 74, 0
2, 19162, Control_c, 0, 64, 48
2, 19192, Control_c, 0, 64, 49
2, 19216, Note_on_c, 0, 68, 0
2, 19218, Note_on_c, 0, 69, 68
2, 19253, Control_c, 0, 64, 48
2, 19269, Control_c, 0, 64, 48
2, 19284, Control_c, 0, 64, 47
2, 19315, Control_c, 0, 64, 47
2, 19318, Note_on_c, 0, 76, 72
2, 19330, Note_on_c, 0, 49, 73
2, 19333, Note_on_c, 0, 69, 0
2, 19345, Control_c, 0, 64, 46
2, 19360, Control_c, 0, 64, 46
2, 19399, Note_on_c, 0, 76, 0
2, 19405, Control_c, 0, 64, 46
2, 19406, Note_on_c, 0, 68, 69
2, 19420, Control_c, 0, 64, 47
2, 19466, Control_c, 0, 64, 47
2, 19483, Note_on_c, 0, 69, 59
2, 19484, Note_on_c, 0, 68, 0
2, 19541, Control_c, 0, 64, 48
2, 19566, Note_on_c, 0, 47, 72
2, 19566, Note_on_c, 0, 49, 0
2, 19571, Note_on_c, 0, 78, 74
2, 19582, Note_on_c, 0, 69, 0
2, 19611, Note_on_c, 0, 47, 0
2, 19657, Note_on_c, 0, 68, 68
2, 19658, Note_on_c, 0, 78, 0
2, 19663, Control_c, 0, 64, 47
2, 19693, Control_c, 0, 64, 47
2, 19729, Note_on_c, 0, 68, 0
2, 19737, Note_on_c, 0, 69, 64
2, 19739, Control_c, 0, 64, 46
2, 19755, Control_c, 0, 64, 46
2, 19786, Control_c, 0, 64, 45
2, 19800, Control_c, 0, 64, 45
2, 19816, Control_c, 0, 64, 44
2, 19828, Note_on_c, 0, 45, 62
2, 19829, Note_on_c, 0, 79, 75
2, 19832, Control_c, 0, 64, 44
2, 19834, Note_on_c, 0, 69, 0
2, 19854, Control_c, 0, 64, 43
2, 19870, Control_c, 0, 64, 43
2, 19886, Note_on_c, 0, 45, 0
2, 19915, Control_c, 0, 64, 43
2, 19915, Note_on_c, 0, 79, 0
2, 19919, Note_on_c, 0, 76, 68
2, 19946, Control_c, 0, 64, 44
2, 19975, Control_c, 0, 64, 44
2, 19989, Note_on_c, 0, 76, 0
2, 19999, Note_on_c, 0, 73, 69
2, 20021, Control_c, 0, 64, 45
2, 20036, Control_c, 0, 64, 45
2, 20058, Note_on_c, 0, 73, 0
2, 20063, Note_on_c, 0, 49, 60
2, 20067, Control_c, 0, 64, 46
2, 20071, Note_on_c, 0, 69, 70
2, 20097, Control_c, 0, 64, 46
2, 20097, Note_on_c, 0, 49, 0
2, 20143, Control_c, 0, 64, 46
2, 20143, Note_on_c, 0, 73, 64
2, 20150, Note_on_c, 0, 69, 0
2, 20218, Note_on_c, 0, 73, 0
2, 20229, Note_on_c, 0, 76, 67
2, 20265, Control_c, 0, 64, 46
2, 20303, Note_on_c, 0, 50, 52
2, 20306, Note_on_c, 0, 76, 0
2, 20322, Note_on_c, 0, 78, 71
2, 20387, Note_on_c, 0, 50, 0
2, 20399, Note_on_c, 0, 54, 59
2, 20400, Control_c, 0, 64, 47
2, 20431, Control_c, 0, 64, 47
2, 20471, Note_on_c, 0, 57, 62
2, 20474, Note_on_c, 0, 54, 0
2, 20476, Control_c, 0, 64, 48
2, 20517, Note_on_c, 0, 78, 0
2, 20534, Note_on_c, 0, 57, 0
2, 20551, Note_on_c, 0, 62, 63
2, 20598, Control_c, 0, 64, 47
2, 20608, Note_on_c, 0, 62, 0
2, 20609, Note_on_c, 0, 57, 58
2, 20636, Control_c, 0, 64, 47
2, 20668, Control_c, 0, 64, 46
2, 20708, Note_on_c, 0, 54, 67
2, 20708, Note_on_c, 0, 57, 0
2, 20713, Control_c, 0, 64, 47
2, 20758, Control_c, 0, 64, 47
2, 20801, Note_on_c, 0, 54, 0
2, 20805, Note_on_c, 0, 50, 68
2, 20813, Note_on_c, 0, 81, 77
2, 20834, Control_c, 0, 64, 48
2, 20847, Note_on_c, 0, 50, 0
2, 20895, Note_on_c, 0, 78, 82
2, 20901, Note_on_c, 0, 81, 0
2, 20970, Note_on_c, 0, 74, 76
2, 20978, Note_on_c, 0, 78, 0
2, 21016, Control_c, 0, 64, 47
2, 21047, Control_c, 0, 64, 47
2, 21047, Note_on_c, 0, 72, 76
2, 21048, Note_on_c, 0, 74, 0
2, 21061, Note_on_c, 0, 62, 59
2, 21077, Control_c, 0, 64, 46
2, 21092, Control_c, 0, 64, 46
2, 21108, Control_c, 0, 64, 45
2, 21108, Note_on_c, 0, 62, 0
2, 21121, Note_on_c, 0, 74, 72
2, 21123, Control_c, 0, 64, 44
2, 21138, Control_c, 0, 64, 43
2, 21139, Note_on_c, 0, 72, 0
2, 21153, Control_c, 0, 64, 42
2, 21168, Control_c, 0, 64, 40
2, 21183, Control_c, 0, 64, 39
2, 21199, Control_c, 0, 64, 39
2, 21204, Note_on_c, 0, 74, 0
2, 21204, Note_on_c, 0, 78, 78
2, 21213, Control_c, 0, 64, 38
2, 21229, Control_c, 0, 64, 36
2, 21244, Control_c, 0, 64, 35
2, 21259, Control_c, 0, 64, 33
2, 21275, Control_c, 0, 64, 32
2, 21289, Control_c, 0, 64, 31
2, 21299, Note_on_c, 0, 50, 53
2, 21304, Control_c, 0, 64, 30
2, 21311, Note_on_c, 0, 81, 74
2, 21313, Note_on_c, 0, 78, 0
2, 21366, Control_c, 0, 64, 31
2, 21387, Note_on_c, 0, 50, 0
2, 21389, Control_c, 0, 64, 32
2, 21394, Note_on_c, 0, 55, 58
2, 21418, Control_c, 0, 64, 32
2, 21434, Control_c, 0, 64, 33
2, 21449, Control_c, 0, 64, 34
2, 21466, Control_c, 0, 64, 34
2, 21476, Note_on_c, 0, 55, 0
2, 21477, Note_on_c, 0, 59, 63
2, 21496, Control_c, 0, 64, 35
2, 21512, Control_c, 0, 64, 36
2, 21522, Note_on_c, 0, 81, 0
2, 21526, Control_c, 0, 64, 37
2, 21541, Control_c, 0, 64, 38
2, 21548, Note_on_c, 0, 59, 0
2, 21555, Note_on_c, 0, 79, 69
2, 21557, Control_c, 0, 64, 38
2, 21572, Control_c, 0, 64, 39
2, 21574, Note_on_c, 0, 62, 60
2, 21588, Control_c, 0, 64, 40
2, 21597, Note_on_c, 0, 79, 0
2, 21602, Control_c, 0, 64, 40
2, 21617, Control_c, 0, 64, 41
2, 21633, Control_c, 0, 64, 41
2, 21637, Note_on_c, 0, 62, 0
2, 21641, Note_on_c, 0, 59, 58
2, 21678, Control_c, 0, 64, 42
2, 21717, Note_on_c, 0, 59, 0
2, 21724, Control_c, 0, 64, 41
2, 21727, Note_on_c, 0, 55, 61
2, 21754, Control_c, 0, 64, 41
2, 21784, Control_c, 0, 64, 41
2, 21794, Note_on_c, 0, 55, 0
2, 21800, Control_c, 0, 64, 42
2, 21810, Note_on_c, 0, 50, 69
2, 21810, Note_on_c, 0, 79, 75
2, 21815, Control_c, 0, 64, 43
2, 21831, Control_c, 0, 64, 44
2, 21845, Control_c, 0, 64, 44
2, 21860, Control_c, 0, 64, 46
2, 21861, Note_on_c, 0, 50, 0
2, 21876, Control_c, 0, 64, 46
2, 21890, Note_on_c, 0, 76, 79
2, 21891, Control_c, 0, 64, 47
2, 21893, Note_on_c, 0, 79, 0
2, 21907, Control_c, 0, 64, 47
2, 21965, Control_c, 0, 64, 48
2, 21975, Note_on_c, 0, 76, 0
2, 21976, Note_on_c, 0, 73, 81
2, 22041, Note_on_c, 0, 73, 0
2, 22042, Note_on_c, 0, 69, 76
2, 22078, Note_on_c, 0, 62, 60
2, 22102, Control_c, 0, 64, 47
2, 22124, Note_on_c, 0, 73, 76
2, 22131, Note_on_c, 0, 62, 0
2, 22164, Note_on_c, 0, 69, 0
2, 22171, Control_c, 0, 64, 47
2, 22207, Note_on_c, 0, 73, 0
2, 22207, Note_on_c, 0, 76, 76
2, 22216, Control_c, 0, 64, 46
2, 22232, Control_c, 0, 64, 46
2, 22293, Control_c, 0, 64, 46
2, 22296, Note_on_c, 0, 76, 0
2, 22303, Note_on_c, 0, 50, 50
2, 22304, Note_on_c, 0, 79, 78
2, 22324, Control_c, 0, 64, 47
2, 22365, Note_on_c, 0, 50, 0
2, 22369, Control_c, 0, 64, 47
2, 22398, Note_on_c, 0, 57, 52
2, 22414, Control_c, 0, 64, 48
2, 22430, Control_c, 0, 64, 48
2, 22445, Control_c, 0, 64, 49
2, 22460, Control_c, 0, 64, 50
2, 22476, Control_c, 0, 64, 50
2, 22476, Note_on_c, 0, 57, 0
2, 22476, Note_on_c, 0, 61, 58
2, 22507, Control_c, 0, 64, 51
2, 22521, Note_on_c, 0, 61, 0
2, 22543, Note_on_c, 0, 79, 0
2, 22558, Note_on_c, 0, 78, 75
2, 22560, Note_on_c, 0, 62, 56
2, 22582, Control_c, 0, 64, 50
2, 22604, Note_on_c, 0, 78, 0
2, 22621, Note_on_c, 0, 62, 0
2, 22639, Note_on_c, 0, 57, 57
2, 22643, Control_c, 0, 64, 50
2, 22712, Note_on_c, 0, 57, 0
2, 22731, Note_on_c, 0, 54, 61
2, 22735, Control_c, 0, 64, 49
2, 22751, Control_c, 0, 64, 49
2, 22780, Control_c, 0, 64, 48
2, 22803, Note_on_c, 0, 78, 79
2, 22809, Note_on_c, 0, 50, 69
2, 22811, Note_on_c, 0, 54, 0
2, 22826, Control_c, 0, 64, 49
2, 22848, Note_on_c, 0, 50, 0
2, 22856, Control_c, 0, 64, 49
2, 22885, Note_on_c, 0, 74, 70
2, 22901, Control_c, 0, 64, 50
2, 22903, Note_on_c, 0, 78, 0
2, 22974, Note_on_c, 0, 71, 75
2, 22979, Note_on_c, 0, 74, 0
2, 23044, Note_on_c, 0, 67, 77
2, 23046, Control_c, 0, 64, 50
2, 23050, Note_on_c, 0, 71, 0
2, 23067, Note_on_c, 0, 62, 68
2, 23077, Control_c, 0, 64, 50
2, 23120, Note_on_c, 0, 62, 0
2, 23123, Note_on_c, 0, 71, 68
2, 23150, Note_on_c, 0, 67, 0
2, 23169, Control_c, 0, 64, 49
2, 23198, Note_on_c, 0, 74, 73
2, 23210, Note_on_c, 0, 71, 0
2, 23214, Control_c, 0, 64, 48
2, 23259, Control_c, 0, 64, 48
2, 23283, Note_on_c, 0, 74, 0
2, 23290, Control_c, 0, 64, 47
2, 23291, Note_on_c, 0, 78, 74
2, 23307, Note_on_c, 0, 50, 53
2, 23321, Control_c, 0, 64, 47
2, 23335, Control_c, 0, 64, 46
2, 23366, Control_c, 0, 64, 45
2, 23381, Control_c, 0, 64, 44
2, 23382, Note_on_c, 0, 50, 0
2, 23387, Note_on_c, 0, 52, 62
2, 23397, Control_c, 0, 64, 43
2, 23411, Control_c, 0, 64, 42
2, 23427, Control_c, 0, 64, 41
2, 23442, Control_c, 0, 64, 41
2, 23457, Control_c, 0, 64, 40
2, 23463, Note_on_c, 0, 52, 0
2, 23470, Note_on_c, 0, 55, 62
2, 23488, Note_on_c, 0, 78, 0
2, 23532, Note_on_c, 0, 55, 0
2, 23535, Note_on_c, 0, 76, 68
2, 23553, Note_on_c, 0, 59, 57
2, 23567, Note_on_c, 0, 76, 0
2, 23594, Control_c, 0, 64, 40
2, 23609, Note_on_c, 0, 59, 0
2, 23624, Control_c, 0, 64, 39
2, 23626, Note_on_c, 0, 55, 59
2, 23640, Control_c, 0, 64, 38
2, 23655, Control_c, 0, 64, 37
2, 23670, Control_c, 0, 64, 34
2, 23692, Control_c, 0, 64, 32
2, 23698, Note_on_c, 0, 55, 0
2, 23708, Control_c, 0, 64, 28
2, 23712, Note_on_c, 0, 52, 58
2, 23723, Control_c, 0, 64, 24
2, 23738, Control_c, 0, 64, 21
2, 23754, Control_c, 0, 64, 20
2, 23797, Note_on_c, 0, 76, 67
2, 23798, Note_on_c, 0, 52, 0
2, 23799, Control_c, 0, 64, 21
2, 23814, Control_c, 0, 64, 23
2, 23817, Note_on_c, 0, 50, 53
2, 23845, Control_c, 0, 64, 24
2, 23860, Control_c, 0, 64, 26
2, 23867, Note_on_c, 0, 50, 0
2, 23875, Control_c, 0, 64, 28
2, 23878, Note_on_c, 0, 76, 0
2, 23880, Note_on_c, 0, 73, 63
2, 23890, Control_c, 0, 64, 29
2, 23906, Control_c, 0, 64, 30
2, 23922, Control_c, 0, 64, 32
2, 23937, Control_c, 0, 64, 33
2, 23953, Control_c, 0, 64, 35
2, 23957, Note_on_c, 0, 73, 0
2, 23962, Note_on_c, 0, 69, 64
2, 23967, Control_c, 0, 64, 36
2, 23982, Control_c, 0, 64, 38
2, 23998, Control_c, 0, 64, 38
2, 24013, Control_c, 0, 64, 39
2, 24029, Control_c, 0, 64, 40
2, 24032, Note_on_c, 0, 69, 0
2, 24036, Note_on_c, 0, 67, 66
2, 24039, Note_on_c, 0, 62, 56
2, 24044, Control_c, 0, 64, 40
2, 24058, Control_c, 0, 64, 41
2, 24074, Control_c, 0, 64, 41
2, 24079, Note_on_c, 0, 62, 0
2, 24089, Control_c, 0, 64, 42
2, 24103, Control_c, 0, 64, 42
2, 24119, Note_on_c, 0, 67, 0
2, 24124, Note_on_c, 0, 69, 62
2, 24179, Control_c, 0, 64, 42
2, 24200, Note_on_c, 0, 69, 0
2, 24210, Control_c, 0, 64, 41
2, 24213, Note_on_c, 0, 73, 66
2, 24271, Control_c, 0, 64, 41
2, 24298, Note_on_c, 0, 73, 0
2, 24304, Note_on_c, 0, 50, 48
2, 24320, Note_on_c, 0, 76, 59
2, 24331, Control_c, 0, 64, 41
2, 24383, Note_on_c, 0, 50, 0
2, 24405, Note_on_c, 0, 54, 53
2, 24408, Control_c, 0, 64, 42
2, 24476, Control_c, 0, 64, 42
2, 24479, Note_on_c, 0, 54, 0
2, 24502, Note_on_c, 0, 57, 46
2, 24539, Note_on_c, 0, 57, 0
2, 24552, Note_on_c, 0, 76, 0
2, 24567, Note_on_c, 0, 74, 56
2, 24576, Note_on_c, 0, 62, 56
2, 24598, Control_c, 0, 64, 43
2, 24620, Note_on_c, 0, 62, 0
2, 24629, Control_c, 0, 64, 43
2, 24641, Note_on_c, 0, 57, 49
2, 24643, Control_c, 0, 64, 44
2, 24658, Control_c, 0, 64, 44
2, 24689, Control_c, 0, 64, 45
2, 24704, Control_c, 0, 64, 46
2, 24709, Note_on_c, 0, 57, 0
2, 24729, Note_on_c, 0, 54, 61
2, 24735, Control_c, 0, 64, 47
2, 24766, Control_c, 0, 64, 47
2, 24781, Control_c, 0, 64, 48
2, 24788, Note_on_c, 0, 74, 0
2, 24796, Control_c, 0, 64, 48
2, 24802, Note_on_c, 0, 54, 0
2, 24827, Control_c, 0, 64, 49
2, 24827, Note_on_c, 0, 57, 69
2, 24899, Note_on_c, 0, 57, 0
2, 24916, Note_on_c, 0, 54, 59
2, 24918, Control_c, 0, 64, 49
2, 24964, Note_on_c, 0, 54, 0
2, 24978, Control_c, 0, 64, 50
2, 24989, Note_on_c, 0, 50, 55
2, 24994, Control_c, 0, 64, 50
2, 25009, Control_c, 0, 64, 51
2, 25023, Control_c, 0, 64, 51
2, 25038, Note_on_c, 0, 50, 0
2, 25070, Note_on_c, 0, 74, 63
2, 25072, Note_on_c, 0, 54, 57
2, 25084, Control_c, 0, 64, 51
2, 25113, Note_on_c, 0, 74, 0
2, 25138, Note_on_c, 0, 54, 0
2, 25153, Note_on_c, 0, 50, 61
2, 25239, Note_on_c, 0, 50, 0
2, 25249, Note_on_c, 0, 48, 58
2, 25304, Control_c, 0, 64, 51
2, 25323, Note_on_c, 0, 48, 0
2, 25335, Control_c, 0, 64, 52
2, 25337, Note_on_c, 0, 47, 64
2, 25339, Note_on_c, 0, 74, 60
2, 25365, Control_c, 0, 64, 52
2, 25380, Control_c, 0, 64, 53
2, 25396, Control_c, 0, 64, 53
2, 25411, Control_c, 0, 64, 54
2, 25422, Note_on_c, 0, 47, 0
2, 25424, Note_on_c, 0, 72, 64
2, 25437, Note_on_c, 0, 50, 51
2, 25439, Note_on_c, 0, 74, 0
2, 25441, Control_c, 0, 64, 54
2, 25456, Control_c, 0, 64, 55
2, 25481, Note_on_c, 0, 72, 0
2, 25487, Control_c, 0, 64, 55
2, 25489, Note_on_c, 0, 50, 0
2, 25489, Note_on_c, 0, 54, 57
2, 25490, Note_on_c, 0, 71, 66
2, 25521, Note_on_c, 0, 71, 0
2, 25549, Note_on_c, 0, 54, 0
2, 25579, Control_c, 0, 64, 55
2, 25582, Note_on_c, 0, 55, 54
2, 25592, Note_on_c, 0, 71, 60
2, 25595, Control_c, 0, 64, 54
2, 25609, Control_c, 0, 64, 54
2, 25619, Note_on_c, 0, 55, 0
2, 25624, Control_c, 0, 64, 53
2, 25640, Control_c, 0, 64, 52
2, 25653, Note_on_c, 0, 50, 58
2, 25655, Control_c, 0, 64, 51
2, 25655, Note_on_c, 0, 69, 65
2, 25671, Control_c, 0, 64, 50
2, 25686, Control_c, 0, 64, 50
2, 25686, Note_on_c, 0, 71, 0
2, 25719, Note_on_c, 0, 50, 0
2, 25725, Note_on_c, 0, 69, 0
2, 25730, Note_on_c, 0, 67, 67
2, 25733, Note_on_c, 0, 47, 65
2, 25765, Note_on_c, 0, 67, 0
2, 25776, Control_c, 0, 64, 51
2, 25780, Note_on_c, 0, 47, 0
2, 25791, Control_c, 0, 64, 51
2, 25806, Control_c, 0, 64, 52
2, 25821, Note_on_c, 0, 67, 71
2, 25823, Note_on_c, 0, 50, 66
2, 25888, Note_on_c, 0, 50, 0
2, 25903, Note_on_c, 0, 47, 63
2, 25910, Note_on_c, 0, 67, 0
2, 25911, Note_on_c, 0, 71, 68
2, 25927, Control_c, 0, 64, 51
2, 25964, Note_on_c, 0, 47, 0
2, 25973, Control_c, 0, 64, 52
2, 25976, Note_on_c, 0, 71, 0
2, 25982, Note_on_c, 0, 74, 70
2, 25993, Note_on_c, 0, 43, 58
2, 26036, Note_on_c, 0, 43, 0
2, 26059, Note_on_c, 0, 74, 0
2, 26071, Note_on_c, 0, 47, 61
2, 26071, Note_on_c, 0, 77, 77
2, 26125, Note_on_c, 0, 47, 0
2, 26142, Note_on_c, 0, 43, 62
2, 26148, Control_c, 0, 64, 52
2, 26153, Note_on_c, 0, 77, 0
2, 26157, Note_on_c, 0, 76, 68
2, 26215, Note_on_c, 0, 74, 72
2, 26231, Note_on_c, 0, 43, 0
2, 26236, Note_on_c, 0, 76, 0
2, 26239, Note_on_c, 0, 41, 60
2, 26254, Note_on_c, 0, 74, 0
2, 26270, Control_c, 0, 64, 53
2, 26298, Note_on_c, 0, 41, 0
2, 26319, Note_on_c, 0, 40, 68
2, 26334, Note_on_c, 0, 74, 65
2, 26377, Control_c, 0, 64, 52
2, 26392, Note_on_c, 0, 40, 0
2, 26401, Note_on_c, 0, 43, 65
2, 26402, Note_on_c, 0, 74, 0
2, 26407, Control_c, 0, 64, 52
2, 26413, Note_on_c, 0, 76, 77
2, 26469, Control_c, 0, 64, 51
2, 26471, Note_on_c, 0, 43, 0
2, 26479, Note_on_c, 0, 47, 73
2, 26480, Note_on_c, 0, 76, 0
2, 26493, Note_on_c, 0, 77, 76
2, 26498, Control_c, 0, 64, 51
2, 26537, Note_on_c, 0, 47, 0
2, 26562, Note_on_c, 0, 76, 75
2, 26567, Note_on_c, 0, 48, 67
2, 26575, Note_on_c, 0, 77, 0
2, 26605, Note_on_c, 0, 48, 0
2, 26606, Control_c, 0, 64, 51
2, 26636, Control_c, 0, 64, 52
2, 26651, Note_on_c, 0, 52, 68
2, 26667, Control_c, 0, 64, 52
2, 26681, Control_c, 0, 64, 53
2, 26696, Control_c, 0, 64, 54
2, 26712, Control_c, 0, 64, 54
2, 26720, Note_on_c, 0, 55, 74
2, 26727, Control_c, 0, 64, 55
2, 26733, Note_on_c, 0, 76, 0
2, 26734, Note_on_c, 0, 52, 0
2, 26765, Control_c, 0, 64, 56
2, 26794, Note_on_c, 0, 55, 0
2, 26813, Note_on_c, 0, 60, 80
2, 26827, Control_c, 0, 64, 55
2, 26841, Control_c, 0, 64, 55
2, 26856, Control_c, 0, 64, 54
2, 26872, Control_c, 0, 64, 54
2, 26876, Note_on_c, 0, 60, 0
2, 26887, Control_c, 0, 64, 53
2, 26890, Note_on_c, 0, 55, 70
2, 26917, Control_c, 0, 64, 52
2, 26932, Control_c, 0, 64, 51
2, 26948, Control_c, 0, 64, 50
2, 26959, Note_on_c, 0, 55, 0
2, 26963, Control_c, 0, 64, 50
2, 26970, Note_on_c, 0, 52, 68
2, 26977, Control_c, 0, 64, 49
2, 26993, Control_c, 0, 64, 49
2, 27026, Note_on_c, 0, 52, 0
2, 27033, Note_on_c, 0, 76, 72
2, 27057, Note_on_c, 0, 55, 60
2, 27074, Note_on_c, 0, 76, 0
2, 27111, Note_on_c, 0, 55, 0
2, 27131, Note_on_c, 0, 52, 69
2, 27175, Control_c, 0, 64, 49
2, 27191, Control_c, 0, 64, 50
2, 27200, Note_on_c, 0, 52, 0
2, 27219, Note_on_c, 0, 50, 52
2, 27221, Control_c, 0, 64, 50
2, 27237, Control_c, 0, 64, 51
2, 27252, Control_c, 0, 64, 51
2, 27261, Note_on_c, 0, 50, 0
2, 27268, Control_c, 0, 64, 52
2, 27282, Control_c, 0, 64, 53
2, 27290, Note_on_c, 0, 49, 72
2, 27291, Note_on_c, 0, 76, 72
2, 27297, Control_c, 0, 64, 53
2, 27313, Control_c, 0, 64, 54
2, 27328, Control_c, 0, 64, 55
2, 27343, Control_c, 0, 64, 56
2, 27358, Control_c, 0, 64, 56
2, 27365, Note_on_c, 0, 49, 0
2, 27373, Control_c, 0, 64, 57
2, 27376, Note_on_c, 0, 74, 63
2, 27377, Note_on_c, 0, 52, 71
2, 27389, Control_c, 0, 64, 58
2, 27399, Note_on_c, 0, 76, 0
2, 27404, Control_c, 0, 64, 58
2, 27433, Note_on_c, 0, 74, 0
2, 27435, Control_c, 0, 64, 59
2, 27441, Note_on_c, 0, 73, 68
2, 27453, Note_on_c, 0, 55, 70
2, 27459, Note_on_c, 0, 52, 0
2, 27466, Control_c, 0, 64, 59
2, 27475, Note_on_c, 0, 73, 0
2, 27480, Control_c, 0, 64, 59
2, 27506, Note_on_c, 0, 55, 0
2, 27511, Control_c, 0, 64, 58
2, 27536, Note_on_c, 0, 73, 75
2, 27543, Note_on_c, 0, 57, 70
2, 27548, Control_c, 0, 64, 58
2, 27563, Control_c, 0, 64, 57
2, 27578, Control_c, 0, 64, 56
2, 27581, Note_on_c, 0, 57, 0
2, 27594, Control_c, 0, 64, 54
2, 27609, Control_c, 0, 64, 52
2, 27617, Note_on_c, 0, 71, 68
2, 27624, Control_c, 0, 64, 49
2, 27628, Note_on_c, 0, 52, 61
2, 27639, Note_on_c, 0, 73, 0
2, 27640, Control_c, 0, 64, 46
2, 27655, Control_c, 0, 64, 42
2, 27671, Control_c, 0, 64, 40
2, 27681, Note_on_c, 0, 52, 0
2, 27682, Note_on_c, 0, 69, 76
2, 27685, Control_c, 0, 64, 38
2, 27685, Note_on_c, 0, 71, 0
2, 27694, Note_on_c, 0, 49, 68
2, 27700, Control_c, 0, 64, 34
2, 27716, Control_c, 0, 64, 29
2, 27721, Note_on_c, 0, 69, 0
2, 27730, Control_c, 0, 64, 23
2, 27746, Control_c, 0, 64, 15
2, 27755, Note_on_c, 0, 49, 0
2, 27761, Control_c, 0, 64, 0
2, 27779, Note_on_c, 0, 52, 74
2, 27780, Note_on_c, 0, 69, 74
2, 27845, Note_on_c, 0, 52, 0
2, 27855, Note_on_c, 0, 49, 66
2, 27864, Note_on_c, 0, 73, 78
2, 27884, Note_on_c, 0, 69, 0
2, 27915, Note_on_c, 0, 49, 0
2, 27927, Note_on_c, 0, 73, 0
2, 27936, Note_on_c, 0, 45, 59
2, 27937, Note_on_c, 0, 76, 75
2, 27973, Control_c, 0, 64, 13
2, 27979, Note_on_c, 0, 45, 0
2, 27989, Control_c, 0, 64, 20
2, 27998, Note_on_c, 0, 49, 68
2, 28004, Control_c, 0, 64, 26
2, 28004, Note_on_c, 0, 76, 0
2, 28016, Note_on_c, 0, 79, 79
2, 28020, Control_c, 0, 64, 30
2, 28036, Control_c, 0, 64, 32
2, 28050, Control_c, 0, 64, 35
2, 28066, Control_c, 0, 64, 37
2, 28071, Note_on_c, 0, 45, 67
2, 28071, Note_on_c, 0, 49, 0
2, 28081, Control_c, 0, 64, 40
2, 28088, Note_on_c, 0, 78, 84
2, 28095, Note_on_c, 0, 79, 0
2, 28096, Control_c, 0, 64, 42
2, 28112, Control_c, 0, 64, 45
2, 28126, Control_c, 0, 64, 47
2, 28141, Control_c, 0, 64, 47
2, 28148, Note_on_c, 0, 45, 0
2, 28156, Note_on_c, 0, 43, 67
2, 28157, Control_c, 0, 64, 48
2, 28159, Note_on_c, 0, 76, 75
2, 28171, Control_c, 0, 64, 49
2, 28180, Note_on_c, 0, 78, 0
2, 28199, Note_on_c, 0, 76, 0
2, 28202, Control_c, 0, 64, 49
2, 28217, Control_c, 0, 64, 50
2, 28227, Note_on_c, 0, 43, 0
2, 28243, Note_on_c, 0, 42, 71
2, 28248, Control_c, 0, 64, 49
2, 28256, Note_on_c, 0, 76, 72
2, 28263, Control_c, 0, 64, 49
2, 28279, Control_c, 0, 64, 48
2, 28317, Control_c, 0, 64, 48
2, 28323, Note_on_c, 0, 42, 0
2, 28330, Note_on_c, 0, 76, 0
2, 28331, Control_c, 0, 64, 47
2, 28333, Note_on_c, 0, 45, 62
2, 28347, Control_c, 0, 64, 47
2, 28350, Note_on_c, 0, 78, 79
2, 28362, Control_c, 0, 64, 46
2, 28381, Note_on_c, 0, 45, 0
2, 28388, Note_on_c, 0, 49, 65
2, 28392, Control_c, 0, 64, 46
2, 28417, Note_on_c, 0, 79, 81
2, 28418, Note_on_c, 0, 78, 0
2, 28437, Note_on_c, 0, 49, 0
2, 28453, Control_c, 0, 64, 46
2, 28469, Control_c, 0, 64, 47
2, 28473, Note_on_c, 0, 50, 64
2, 28483, Control_c, 0, 64, 47
2, 28495, Note_on_c, 0, 78, 90
2, 28498, Control_c, 0, 64, 48
2, 28507, Note_on_c, 0, 50, 0
2, 28508, Note_on_c, 0, 79, 0
2, 28514, Control_c, 0, 64, 48
2, 28529, Control_c, 0, 64, 49
2, 28544, Control_c, 0, 64, 50
2, 28556, Note_on_c, 0, 54, 71
2, 28560, Control_c, 0, 64, 51
2, 28574, Control_c, 0, 64, 51
2, 28590, Control_c, 0, 64, 52
2, 28605, Control_c, 0, 64, 52
2, 28627, Note_on_c, 0, 57, 70
2, 28636, Control_c, 0, 64, 53
2, 28654, Note_on_c, 0, 54, 0
2, 28666, Control_c, 0, 64, 54
2, 28696, Note_on_c, 0, 78, 0
2, 28701, Note_on_c, 0, 57, 0
2, 28715, Note_on_c, 0, 62, 82
2, 28772, Control_c, 0, 64, 53
2, 28777, Note_on_c, 0, 62, 0
2, 28787, Control_c, 0, 64, 53
2, 28789, Note_on_c, 0, 57, 77
2, 28817, Control_c, 0, 64, 52
2, 28834, Control_c, 0, 64, 51
2, 28849, Control_c, 0, 64, 51
2, 28862, Note_on_c, 0, 57, 0
2, 28864, Control_c, 0, 64, 50
2, 28870, Note_on_c, 0, 54, 68
2, 28880, Control_c, 0, 64, 49
2, 28894, Control_c, 0, 64, 49
2, 28942, Note_on_c, 0, 54, 0
2, 28949, Note_on_c, 0, 81, 80
2, 28959, Note_on_c, 0, 57, 76
2, 28970, Control_c, 0, 64, 48
2, 28986, Control_c, 0, 64, 48
2, 29001, Control_c, 0, 64, 47
2, 29002, Note_on_c, 0, 81, 0
2, 29031, Control_c, 0, 64, 47
2, 29034, Note_on_c, 0, 57, 0
2, 29037, Note_on_c, 0, 54, 62
2, 29046, Control_c, 0, 64, 46
2, 29070, Control_c, 0, 64, 44
2, 29085, Control_c, 0, 64, 42
2, 29092, Note_on_c, 0, 54, 0
2, 29099, Control_c, 0, 64, 40
2, 29115, Control_c, 0, 64, 36
2, 29119, Note_on_c, 0, 50, 54
2, 29130, Control_c, 0, 64, 32
2, 29144, Control_c, 0, 64, 29
2, 29160, Control_c, 0, 64, 23
2, 29162, Note_on_c, 0, 50, 0
2, 29175, Control_c, 0, 64, 10
2, 29178, Note_on_c, 0, 54, 72
2, 29191, Control_c, 0, 64, 0
2, 29196, Note_on_c, 0, 81, 74
2, 29244, Note_on_c, 0, 54, 0
2, 29262, Note_on_c, 0, 50, 66
2, 29267, Control_c, 0, 64, 20
2, 29273, Note_on_c, 0, 79, 66
2, 29282, Control_c, 0, 64, 32
2, 29296, Control_c, 0, 64, 41
2, 29299, Note_on_c, 0, 81, 0
2, 29312, Control_c, 0, 64, 47
2, 29320, Note_on_c, 0, 50, 0
2, 29327, Control_c, 0, 64, 50
2, 29336, Note_on_c, 0, 45, 60
2, 29339, Note_on_c, 0, 79, 0
2, 29342, Control_c, 0, 64, 53
2, 29344, Note_on_c, 0, 78, 68
2, 29358, Control_c, 0, 64, 56
2, 29373, Control_c, 0, 64, 57
2, 29379, Note_on_c, 0, 78, 0
2, 29383, Note_on_c, 0, 45, 0
2, 29389, Control_c, 0, 64, 58
2, 29404, Control_c, 0, 64, 59
2, 29424, Note_on_c, 0, 50, 75
2, 29434, Control_c, 0, 64, 58
2, 29438, Note_on_c, 0, 78, 77
2, 29449, Control_c, 0, 64, 57
2, 29464, Control_c, 0, 64, 56
2, 29480, Control_c, 0, 64, 55
2, 29492, Note_on_c, 0, 50, 0
2, 29495, Control_c, 0, 64, 53
2, 29501, Note_on_c, 0, 45, 70
2, 29510, Control_c, 0, 64, 50
2, 29516, Note_on_c, 0, 76, 76
2, 29525, Control_c, 0, 64, 47
2, 29540, Control_c, 0, 64, 44
2, 29555, Control_c, 0, 64, 39
2, 29563, Note_on_c, 0, 78, 0
2, 29570, Control_c, 0, 64, 35
2, 29575, Note_on_c, 0, 45, 0
2, 29583, Note_on_c, 0, 42, 68
2, 29586, Control_c, 0, 64, 32
2, 29588, Note_on_c, 0, 74, 78
2, 29588, Note_on_c, 0, 76, 0
2, 29601, Control_c, 0, 64, 30
2, 29617, Control_c, 0, 64, 29
2, 29627, Note_on_c, 0, 74, 0
2, 29654, Note_on_c, 0, 42, 0
2, 29660, Note_on_c, 0, 38, 82
2, 29663, Control_c, 0, 64, 30
2, 29679, Control_c, 0, 64, 31
2, 29688, Note_on_c, 0, 74, 74
2, 29694, Control_c, 0, 64, 32
2, 29694, Note_on_c, 0, 38, 0
2, 29710, Control_c, 0, 64, 32
2, 29725, Control_c, 0, 64, 33
2, 29777, Note_on_c, 0, 78, 82
2, 29788, Note_on_c, 0, 74, 0
2, 29858, Note_on_c, 0, 78, 0
2, 29858, Note_on_c, 0, 81, 83
2, 29869, Control_c, 0, 64, 32
2, 29884, Control_c, 0, 64, 32
2, 29899, Control_c, 0, 64, 29
2, 29915, Control_c, 0, 64, 28
2, 29929, Control_c, 0, 64, 25
2, 29938, Note_on_c, 0, 81, 0
2, 29944, Control_c, 0, 64, 23
2, 29944, Note_on_c, 0, 84, 85
2, 29946, Note_on_c, 0, 50, 81
2, 29960, Control_c, 0, 64, 18
2, 29975, Control_c, 0, 64, 10
2, 29980, Note_on_c, 0, 50, 0
2, 29990, Control_c, 0, 64, 0
2, 30028, Note_on_c, 0, 83, 76
2, 30028, Note_on_c, 0, 84, 0
2, 30051, Control_c, 0, 64, 10
2, 30066, Control_c, 0, 64, 20
2, 30081, Control_c, 0, 64, 27
2, 30092, Note_on_c, 0, 81, 82
2, 30096, Control_c, 0, 64, 33
2, 30112, Control_c, 0, 64, 35
2, 30115, Note_on_c, 0, 83, 0
2, 30127, Control_c, 0, 64, 36
2, 30136, Note_on_c, 0, 81, 0
2, 30141, Control_c, 0, 64, 36
2, 30172, Control_c, 0, 64, 36
2, 30182, Note_on_c, 0, 43, 69
2, 30193, Note_on_c, 0, 81, 79
2, 30272, Note_on_c, 0, 83, 83
2, 30276, Note_on_c, 0, 81, 0
2, 30339, Control_c, 0, 64, 37
2, 30347, Note_on_c, 0, 83, 0
2, 30349, Note_on_c, 0, 84, 86
2, 30355, Control_c, 0, 64, 38
2, 30370, Control_c, 0, 64, 38
2, 30384, Control_c, 0, 64, 39
2, 30399, Control_c, 0, 64, 40
2, 30414, Control_c, 0, 64, 40
2, 30430, Control_c, 0, 64, 41
2, 30430, Note_on_c, 0, 83, 89
2, 30445, Control_c, 0, 64, 42
2, 30452, Note_on_c, 0, 43, 0
2, 30457, Note_on_c, 0, 84, 0
2, 30460, Control_c, 0, 64, 44
2, 30471, Note_on_c, 0, 47, 64
2, 30477, Control_c, 0, 64, 46
2, 30491, Control_c, 0, 64, 47
2, 30552, Note_on_c, 0, 50, 66
2, 30555, Note_on_c, 0, 47, 0
2, 30567, Control_c, 0, 64, 46
2, 30605, Control_c, 0, 64, 46
2, 30626, Note_on_c, 0, 50, 0
2, 30642, Note_on_c, 0, 55, 68
2, 30651, Control_c, 0, 64, 45
2, 30667, Control_c, 0, 64, 45
2, 30682, Control_c, 0, 64, 44
2, 30690, Note_on_c, 0, 55, 0
2, 30697, Control_c, 0, 64, 44
2, 30712, Control_c, 0, 64, 43
2, 30725, Note_on_c, 0, 83, 0
2, 30727, Control_c, 0, 64, 43
2, 30731, Note_on_c, 0, 81, 74
2, 30735, Note_on_c, 0, 57, 68
2, 30742, Control_c, 0, 64, 42
2, 30795, Note_on_c, 0, 81, 0
2, 30800, Note_on_c, 0, 57, 0
2, 30803, Control_c, 0, 64, 42
2, 30811, Note_on_c, 0, 59, 63
2, 30820, Note_on_c, 0, 79, 66
2, 30833, Control_c, 0, 64, 41
2, 30844, Note_on_c, 0, 59, 0
2, 30856, Note_on_c, 0, 79, 0
2, 30863, Control_c, 0, 64, 41
2, 30893, Note_on_c, 0, 77, 70
2, 30894, Control_c, 0, 64, 40
2, 30904, Note_on_c, 0, 59, 54
2, 30909, Control_c, 0, 64, 38
2, 30924, Control_c, 0, 64, 36
2, 30939, Control_c, 0, 64, 35
2, 30955, Control_c, 0, 64, 34
2, 30966, Note_on_c, 0, 76, 71
2, 30969, Control_c, 0, 64, 33
2, 30972, Note_on_c, 0, 59, 0
2, 30981, Note_on_c, 0, 60, 62
2, 30984, Control_c, 0, 64, 32
2, 30988, Note_on_c, 0, 77, 0
2, 31000, Control_c, 0, 64, 31
2, 31015, Control_c, 0, 64, 30
2, 31031, Control_c, 0, 64, 29
2, 31032, Note_on_c, 0, 76, 0
2, 31039, Note_on_c, 0, 60, 0
2, 31042, Note_on_c, 0, 74, 63
2, 31045, Control_c, 0, 64, 28
2, 31048, Note_on_c, 0, 62, 66
2, 31060, Control_c, 0, 64, 25
2, 31076, Control_c, 0, 64, 23
2, 31100, Note_on_c, 0, 74, 0
2, 31106, Note_on_c, 0, 62, 0
2, 31122, Control_c, 0, 64, 21
2, 31122, Note_on_c, 0, 72, 69
2, 31135, Note_on_c, 0, 64, 71
2, 31137, Control_c, 0, 64, 20
2, 31153, Control_c, 0, 64, 18
2, 31167, Control_c, 0, 64, 15
2, 31171, Note_on_c, 0, 64, 0
2, 31182, Control_c, 0, 64, 13
2, 31194, Note_on_c, 0, 72, 0
2, 31198, Control_c, 0, 64, 10
2, 31208, Note_on_c, 0, 76, 64
2, 31229, Control_c, 0, 64, 0
2, 31271, Note_on_c, 0, 76, 0
2, 31291, Note_on_c, 0, 79, 63
2, 31306, Control_c, 0, 64, 10
2, 31321, Control_c, 0, 64, 13
2, 31351, Control_c, 0, 64, 15
2, 31373, Control_c, 0, 64, 17
2, 31381, Note_on_c, 0, 79, 0
2, 31382, Note_on_c, 0, 60, 63
2, 31386, Note_on_c, 0, 81, 72
2, 31403, Control_c, 0, 64, 18
2, 31434, Control_c, 0, 64, 20
2, 31448, Note_on_c, 0, 60, 0
2, 31464, Control_c, 0, 64, 21
2, 31464, Note_on_c, 0, 57, 61
2, 31466, Note_on_c, 0, 81, 0
2, 31468, Note_on_c, 0, 78, 70
2, 31525, Control_c, 0, 64, 23
2, 31537, Note_on_c, 0, 78, 0
2, 31538, Note_on_c, 0, 57, 0
2, 31547, Note_on_c, 0, 74, 62
2, 31552, Note_on_c, 0, 54, 64
2, 31614, Note_on_c, 0, 54, 0
2, 31614, Note_on_c, 0, 74, 0
2, 31616, Control_c, 0, 64, 24
2, 31620, Note_on_c, 0, 71, 67
2, 31630, Note_on_c, 0, 62, 73
2, 31647, Control_c, 0, 64, 23
2, 31667, Note_on_c, 0, 62, 0
2, 31706, Note_on_c, 0, 71, 0
2, 31715, Note_on_c, 0, 74, 61
2, 31779, Note_on_c, 0, 74, 0
2, 31795, Note_on_c, 0, 78, 71
2, 31859, Control_c, 0, 64, 21
2, 31873, Note_on_c, 0, 59, 56
2, 31875, Control_c, 0, 64, 20
2, 31883, Note_on_c, 0, 79, 70
2, 31889, Control_c, 0, 64, 18
2, 31890, Note_on_c, 0, 78, 0
2, 31904, Control_c, 0, 64, 17
2, 31920, Control_c, 0, 64, 15
2, 31935, Control_c, 0, 64, 13
2, 31941, Note_on_c, 0, 59, 0
2, 31951, Control_c, 0, 64, 10
2, 31954, Note_on_c, 0, 79, 0
2, 31960, Note_on_c, 0, 55, 63
2, 31960, Note_on_c, 0, 76, 67
2, 31966, Control_c, 0, 64, 0
2, 32023, Note_on_c, 0, 55, 0
2, 32030, Note_on_c, 0, 76, 0
2, 32042, Note_on_c, 0, 52, 62
2, 32045, Note_on_c, 0, 72, 65
2, 32073, Control_c, 0, 64, 10
2, 32087, Control_c, 0, 64, 13
2, 32093, Note_on_c, 0, 52, 0
2, 32103, Note_on_c, 0, 72, 0
2, 32110, Note_on_c, 0, 60, 71
2, 32114, Note_on_c, 0, 69, 68
2, 32141, Control_c, 0, 64, 15
2, 32159, Note_on_c, 0, 60, 0
2, 32202, Control_c, 0, 64, 17
2, 32209, Note_on_c, 0, 72, 65
2, 32210, Note_on_c, 0, 69, 0
2, 32247, Control_c, 0, 64, 18
2, 32272, Note_on_c, 0, 72, 0
2, 32278, Control_c, 0, 64, 20
2, 32287, Note_on_c, 0, 76, 65
2, 32293, Control_c, 0, 64, 23
2, 32309, Control_c, 0, 64, 24
2, 32323, Control_c, 0, 64, 27
2, 32338, Control_c, 0, 64, 29
2, 32354, Control_c, 0, 64, 30
2, 32366, Note_on_c, 0, 57, 57
2, 32379, Note_on_c, 0, 78, 72
2, 32384, Control_c, 0, 64, 31
2, 32384, Note_on_c, 0, 76, 0
2, 32418, Note_on_c, 0, 57, 0
2, 32424, Note_on_c, 0, 78, 0
2, 32431, Control_c, 0, 64, 30
2, 32440, Note_on_c, 0, 54, 57
2, 32445, Control_c, 0, 64, 29
2, 32459, Note_on_c, 0, 74, 62
2, 32460, Control_c, 0, 64, 29
2, 32476, Control_c, 0, 64, 28
2, 32491, Control_c, 0, 64, 27
2, 32521, Control_c, 0, 64, 26
2, 32521, Note_on_c, 0, 54, 0
2, 32524, Note_on_c, 0, 74, 0
2, 32527, Note_on_c, 0, 50, 64
2, 32535, Note_on_c, 0, 71, 66
2, 32552, Control_c, 0, 64, 25
2, 32582, Control_c, 0, 64, 26
2, 32586, Note_on_c, 0, 50, 0
2, 32596, Note_on_c, 0, 59, 70
2, 32605, Note_on_c, 0, 71, 0
2, 32609, Note_on_c, 0, 67, 66
2, 32612, Control_c, 0, 64, 27
2, 32628, Control_c, 0, 64, 28
2, 32641, Note_on_c, 0, 59, 0
2, 32673, Control_c, 0, 64, 29
2, 32687, Control_c, 0, 64, 29
2, 32687, Note_on_c, 0, 67, 0
2, 32696, Note_on_c, 0, 71, 56
2, 32718, Control_c, 0, 64, 30
2, 32761, Note_on_c, 0, 71, 0
2, 32777, Note_on_c, 0, 74, 65
2, 32843, Note_on_c, 0, 55, 59
2, 32861, Note_on_c, 0, 76, 75
2, 32870, Control_c, 0, 64, 31
2, 32873, Note_on_c, 0, 74, 0
2, 32900, Control_c, 0, 64, 30
2, 32925, Note_on_c, 0, 55, 0
2, 32939, Note_on_c, 0, 76, 0
2, 32944, Note_on_c, 0, 52, 66
2, 32947, Note_on_c, 0, 72, 69
2, 32969, Control_c, 0, 64, 29
2, 33007, Note_on_c, 0, 72, 0
2, 33010, Note_on_c, 0, 52, 0
2, 33018, Note_on_c, 0, 69, 71
2, 33026, Note_on_c, 0, 48, 60
2, 33031, Control_c, 0, 64, 30
2, 33045, Control_c, 0, 64, 32
2, 33060, Control_c, 0, 64, 34
2, 33076, Control_c, 0, 64, 36
2, 33078, Note_on_c, 0, 48, 0
2, 33091, Control_c, 0, 64, 37
2, 33093, Note_on_c, 0, 57, 72
2, 33094, Note_on_c, 0, 69, 0
2, 33107, Control_c, 0, 64, 39
2, 33107, Note_on_c, 0, 66, 72
2, 33121, Control_c, 0, 64, 40
2, 33136, Control_c, 0, 64, 40
2, 33139, Note_on_c, 0, 66, 0
2, 33144, Note_on_c, 0, 57, 0
2, 33167, Control_c, 0, 64, 40
2, 33182, Control_c, 0, 64, 39
2, 33198, Control_c, 0, 64, 38
2, 33201, Note_on_c, 0, 69, 65
2, 33212, Control_c, 0, 64, 37
2, 33228, Control_c, 0, 64, 37
2, 33243, Control_c, 0, 64, 36
2, 33254, Note_on_c, 0, 69, 0
2, 33258, Control_c, 0, 64, 36
2, 33275, Note_on_c, 0, 72, 69
2, 33288, Control_c, 0, 64, 35
2, 33303, Control_c, 0, 64, 34
2, 33319, Control_c, 0, 64, 34
2, 33332, Note_on_c, 0, 54, 65
2, 33334, Control_c, 0, 64, 33
2, 33360, Note_on_c, 0, 72, 0
2, 33360, Note_on_c, 0, 74, 65
2, 33395, Control_c, 0, 64, 32
2, 33412, Note_on_c, 0, 54, 0
2, 33421, Note_on_c, 0, 74, 0
2, 33424, Control_c, 0, 64, 31
2, 33424, Note_on_c, 0, 71, 68
2, 33430, Note_on_c, 0, 50, 58
2, 33440, Control_c, 0, 64, 30
2, 33473, Note_on_c, 0, 47, 63
2, 33473, Note_on_c, 0, 50, 0
2, 33487, Note_on_c, 0, 71, 0
2, 33496, Note_on_c, 0, 67, 70
2, 33500, Control_c, 0, 64, 31
2, 33516, Control_c, 0, 64, 32
2, 33547, Control_c, 0, 64, 32
2, 33551, Note_on_c, 0, 47, 0
2, 33562, Note_on_c, 0, 67, 0
2, 33563, Note_on_c, 0, 64, 72
2, 33570, Note_on_c, 0, 55, 74
2, 33607, Control_c, 0, 64, 33
2, 33612, Note_on_c, 0, 55, 0
2, 33648, Note_on_c, 0, 64, 0
2, 33649, Note_on_c, 0, 67, 66
2, 33721, Control_c, 0, 64, 34
2, 33724, Note_on_c, 0, 67, 0
2, 33734, Note_on_c, 0, 71, 70
2, 33753, Control_c, 0, 64, 34
2, 33799, Control_c, 0, 64, 35
2, 33817, Note_on_c, 0, 52, 62
2, 33818, Note_on_c, 0, 72, 73
2, 33830, Note_on_c, 0, 71, 0
2, 33858, Control_c, 0, 64, 34
2, 33887, Note_on_c, 0, 52, 0
2, 33889, Note_on_c, 0, 72, 0
2, 33892, Note_on_c, 0, 69, 70
2, 33901, Note_on_c, 0, 48, 65
2, 33934, Control_c, 0, 64, 35
2, 33950, Control_c, 0, 64, 36
2, 33950, Note_on_c, 0, 48, 0
2, 33956, Note_on_c, 0, 45, 63
2, 33959, Note_on_c, 0, 69, 0
2, 33963, Note_on_c, 0, 66, 78
2, 33965, Control_c, 0, 64, 36
2, 33980, Control_c, 0, 64, 37
2, 33996, Control_c, 0, 64, 37
2, 34011, Control_c, 0, 64, 38
2, 34016, Note_on_c, 0, 45, 0
2, 34027, Control_c, 0, 64, 39
2, 34035, Note_on_c, 0, 54, 82
2, 34035, Note_on_c, 0, 66, 0
2, 34040, Note_on_c, 0, 62, 72
2, 34042, Control_c, 0, 64, 41
2, 34056, Control_c, 0, 64, 42
2, 34072, Control_c, 0, 64, 43
2, 34087, Control_c, 0, 64, 44
2, 34091, Note_on_c, 0, 54, 0
2, 34126, Note_on_c, 0, 62, 0
2, 34126, Note_on_c, 0, 66, 72
2, 34132, Control_c, 0, 64, 44
2, 34148, Control_c, 0, 64, 43
2, 34178, Control_c, 0, 64, 43
2, 34195, Note_on_c, 0, 66, 0
2, 34200, Note_on_c, 0, 69, 68
2, 34208, Control_c, 0, 64, 42
2, 34239, Control_c, 0, 64, 41
2, 34254, Control_c, 0, 64, 41
2, 34269, Control_c, 0, 64, 40
2, 34272, Note_on_c, 0, 50, 62
2, 34281, Note_on_c, 0, 69, 0
2, 34283, Note_on_c, 0, 71, 71
2, 34284, Control_c, 0, 64, 39
2, 34299, Control_c, 0, 64, 38
2, 34315, Control_c, 0, 64, 38
2, 34329, Control_c, 0, 64, 37
2, 34341, Note_on_c, 0, 50, 0
2, 34344, Control_c, 0, 64, 37
2, 34354, Note_on_c, 0, 71, 0
2, 34358, Note_on_c, 0, 67, 71
2, 34360, Control_c, 0, 64, 36
2, 34360, Note_on_c, 0, 47, 68
2, 34375, Control_c, 0, 64, 34
2, 34391, Control_c, 0, 64, 33
2, 34405, Control_c, 0, 64, 32
2, 34417, Note_on_c, 0, 47, 0
2, 34421, Note_on_c, 0, 43, 69
2, 34422, Note_on_c, 0, 67, 0
2, 34432, Note_on_c, 0, 64, 68
2, 34497, Note_on_c, 0, 64, 0
2, 34500, Note_on_c, 0, 60, 74
2, 34507, Note_on_c, 0, 43, 0
2, 34518, Note_on_c, 0, 52, 68
2, 34535, Control_c, 0, 64, 31
2, 34550, Control_c, 0, 64, 30
2, 34556, Note_on_c, 0, 52, 0
2, 34565, Control_c, 0, 64, 28
2, 34581, Control_c, 0, 64, 25
2, 34582, Note_on_c, 0, 60, 0
2, 34582, Note_on_c, 0, 64, 70
2, 34595, Note_on_c, 0, 48, 64
2, 34597, Control_c, 0, 64, 23
2, 34612, Control_c, 0, 64, 21
2, 34628, Control_c, 0, 64, 20
2, 34642, Note_on_c, 0, 48, 0
2, 34651, Note_on_c, 0, 64, 0
2, 34657, Note_on_c, 0, 45, 67
2, 34659, Note_on_c, 0, 67, 76
2, 34670, Control_c, 0, 64, 23
2, 34686, Control_c, 0, 64, 25
2, 34700, Control_c, 0, 64, 27
2, 34714, Note_on_c, 0, 45, 0
2, 34716, Control_c, 0, 64, 29
2, 34731, Control_c, 0, 64, 29
2, 34732, Note_on_c, 0, 54, 73
2, 34737, Note_on_c, 0, 67, 0
2, 34739, Note_on_c, 0, 69, 74
2, 34765, Note_on_c, 0, 54, 0
2, 34776, Control_c, 0, 64, 29
2, 34791, Control_c, 0, 64, 27
2, 34808, Note_on_c, 0, 66, 76
2, 34817, Note_on_c, 0, 69, 0
2, 34819, Note_on_c, 0, 50, 60
2, 34822, Control_c, 0, 64, 26
2, 34838, Control_c, 0, 64, 25
2, 34868, Control_c, 0, 64, 24
2, 34875, Note_on_c, 0, 50, 0
2, 34882, Note_on_c, 0, 47, 68
2, 34883, Note_on_c, 0, 66, 0
2, 34892, Note_on_c, 0, 62, 71
2, 34898, Control_c, 0, 64, 23
2, 34929, Control_c, 0, 64, 21
2, 34951, Note_on_c, 0, 47, 0
2, 34957, Note_on_c, 0, 62, 0
2, 34960, Control_c, 0, 64, 23
2, 34960, Note_on_c, 0, 59, 66
2, 34967, Note_on_c, 0, 55, 78
2, 35003, Note_on_c, 0, 55, 0
2, 35047, Note_on_c, 0, 59, 0
2, 35050, Control_c, 0, 64, 21
2, 35050, Note_on_c, 0, 62, 68
2, 35065, Control_c, 0, 64, 20
2, 35081, Control_c, 0, 64, 18
2, 35125, Note_on_c, 0, 62, 0
2, 35137, Note_on_c, 0, 66, 72
2, 35172, Control_c, 0, 64, 20
2, 35234, Note_on_c, 0, 67, 72
2, 35249, Note_on_c, 0, 52, 69
2, 35250, Note_on_c, 0, 66, 0
2, 35281, Note_on_c, 0, 52, 0
2, 35308, Note_on_c, 0, 67, 0
2, 35316, Note_on_c, 0, 64, 67
2, 35362, Control_c, 0, 64, 21
2, 35377, Control_c, 0, 64, 23
2, 35394, Note_on_c, 0, 64, 0
2, 35409, Control_c, 0, 64, 24
2, 35412, Note_on_c, 0, 60, 69
2, 35454, Control_c, 0, 64, 25
2, 35485, Control_c, 0, 64, 26
2, 35499, Control_c, 0, 64, 27
2, 35504, Note_on_c, 0, 60, 0
2, 35507, Note_on_c, 0, 48, 63
2, 35508, Note_on_c, 0, 57, 67
2, 35544, Control_c, 0, 64, 28
2, 35549, Note_on_c, 0, 48, 0
2, 35616, Note_on_c, 0, 60, 71
2, 35617, Note_on_c, 0, 57, 0
2, 35651, Control_c, 0, 64, 27
2, 35696, Control_c, 0, 64, 28
2, 35703, Note_on_c, 0, 60, 0
2, 35718, Note_on_c, 0, 64, 65
2, 35834, Note_on_c, 0, 66, 73
2, 35840, Note_on_c, 0, 50, 54
2, 35871, Note_on_c, 0, 64, 0
2, 35879, Control_c, 0, 64, 27
2, 35892, Note_on_c, 0, 50, 0
2, 35909, Control_c, 0, 64, 26
2, 35925, Control_c, 0, 64, 25
2, 35940, Control_c, 0, 64, 24
2, 35955, Control_c, 0, 64, 20
2, 35963, Note_on_c, 0, 62, 70
2, 35978, Control_c, 0, 64, 15
2, 35980, Note_on_c, 0, 66, 0
2, 35994, Control_c, 0, 64, 0
2, 36084, Note_on_c, 0, 60, 67
2, 36100, Note_on_c, 0, 62, 0
2, 36223, Note_on_c, 0, 43, 48
2, 36360, Note_on_c, 0, 59, 59
2, 36361, Note_on_c, 0, 60, 0
2, 36446, Note_on_c, 0, 62, 61
2, 36553, Note_on_c, 0, 67, 59
2, 38543, Note_on_c, 0, 59, 0
2, 38582, Note_on_c, 0, 67, 0
2, 38595, Note_on_c, 0, 62, 0
2, 38625, Note_on_c, 0, 43, 0
2, 39143,End_track
0, 0, End_of_file
