0, 0, Header, 1, 2, 384
1, 0, Start_track
1, 0, Tempo, 500000
1, 0, Time_signature, 4, 2, 24, 8
1, 1, End_track
2, 0, Start_track
2, 0, Title_t," ""Tetzloff04-07.MID"""
2, 0, Program_c, 0, 0
2, 0, Control_c, 0, 64, 0
2, 0, Control_c, 0, 67, 0
2, 831, Note_on_c, 0, 55, 90
2, 834, Note_on_c, 0, 67, 85
2, 858, Control_c, 0, 64, 34
2, 874, Control_c, 0, 64, 39
2, 889, Control_c, 0, 64, 0
2, 916, Note_on_c, 0, 71, 85
2, 925, Note_on_c, 0, 67, 0
2, 1011, Note_on_c, 0, 74, 78
2, 1025, Note_on_c, 0, 71, 0
2, 1096, Note_on_c, 0, 43, 78
2, 1097, Note_on_c, 0, 79, 85
2, 1101, Note_on_c, 0, 74, 0
2, 1112, Note_on_c, 0, 55, 0
2, 1133, Control_c, 0, 64, 70
2, 1134, Note_on_c, 0, 43, 0
2, 1149, Control_c, 0, 64, 73
2, 1164, Control_c, 0, 64, 74
2, 1178, Control_c, 0, 64, 73
2, 1184, Note_on_c, 0, 74, 74
2, 1212, Note_on_c, 0, 79, 0
2, 1271, Control_c, 0, 64, 73
2, 1272, Note_on_c, 0, 71, 75
2, 1274, Note_on_c, 0, 74, 0
2, 1286, Control_c, 0, 64, 72
2, 1302, Control_c, 0, 64, 69
2, 1325, Control_c, 0, 64, 65
2, 1340, Control_c, 0, 64, 54
2, 1355, Control_c, 0, 64, 0
2, 1364, Note_on_c, 0, 71, 0
2, 1368, Note_on_c, 0, 74, 73
2, 1441, Note_on_c, 0, 74, 0
2, 1448, Note_on_c, 0, 71, 68
2, 1478, Note_on_c, 0, 71, 0
2, 1541, Note_on_c, 0, 67, 67
2, 1569, Note_on_c, 0, 67, 0
2, 1620, Note_on_c, 0, 55, 67
2, 1631, Note_on_c, 0, 71, 71
2, 1646, Note_on_c, 0, 55, 0
2, 1709, Note_on_c, 0, 67, 69
2, 1710, Note_on_c, 0, 71, 0
2, 1793, Note_on_c, 0, 67, 0
2, 1801, Note_on_c, 0, 62, 75
2, 1839, Note_on_c, 0, 62, 0
2, 1875, Note_on_c, 0, 55, 78
2, 1893, Note_on_c, 0, 64, 70
2, 1958, Note_on_c, 0, 64, 0
2, 1980, Note_on_c, 0, 67, 69
2, 2055, Note_on_c, 0, 67, 0
2, 2060, Note_on_c, 0, 72, 76
2, 2162, Note_on_c, 0, 55, 0
2, 2164, Note_on_c, 0, 72, 0
2, 2165, Note_on_c, 0, 43, 53
2, 2165, Note_on_c, 0, 76, 73
2, 2197, Control_c, 0, 64, 10
2, 2208, Note_on_c, 0, 43, 0
2, 2212, Control_c, 0, 64, 13
2, 2243, Control_c, 0, 64, 16
2, 2244, Note_on_c, 0, 72, 68
2, 2245, Note_on_c, 0, 76, 0
2, 2304, Control_c, 0, 64, 13
2, 2325, Note_on_c, 0, 72, 0
2, 2328, Note_on_c, 0, 67, 72
2, 2350, Control_c, 0, 64, 16
2, 2380, Control_c, 0, 64, 18
2, 2395, Control_c, 0, 64, 19
2, 2407, Note_on_c, 0, 67, 0
2, 2422, Note_on_c, 0, 72, 69
2, 2455, Control_c, 0, 64, 21
2, 2471, Control_c, 0, 64, 22
2, 2486, Control_c, 0, 64, 24
2, 2490, Note_on_c, 0, 72, 0
2, 2502, Control_c, 0, 64, 25
2, 2506, Note_on_c, 0, 67, 71
2, 2516, Control_c, 0, 64, 27
2, 2531, Control_c, 0, 64, 28
2, 2531, Note_on_c, 0, 67, 0
2, 2547, Control_c, 0, 64, 30
2, 2562, Control_c, 0, 64, 31
2, 2577, Control_c, 0, 64, 33
2, 2587, Note_on_c, 0, 64, 63
2, 2592, Control_c, 0, 64, 34
2, 2607, Control_c, 0, 64, 37
2, 2618, Note_on_c, 0, 64, 0
2, 2623, Control_c, 0, 64, 39
2, 2652, Control_c, 0, 64, 37
2, 2668, Control_c, 0, 64, 35
2, 2670, Note_on_c, 0, 55, 66
2, 2670, Note_on_c, 0, 67, 70
2, 2683, Control_c, 0, 64, 34
2, 2694, Note_on_c, 0, 55, 0
2, 2698, Control_c, 0, 64, 34
2, 2744, Control_c, 0, 64, 34
2, 2747, Note_on_c, 0, 64, 61
2, 2747, Note_on_c, 0, 67, 0
2, 2759, Control_c, 0, 64, 35
2, 2774, Control_c, 0, 64, 37
2, 2790, Control_c, 0, 64, 38
2, 2791, Note_on_c, 0, 64, 0
2, 2805, Control_c, 0, 64, 38
2, 2821, Control_c, 0, 64, 39
2, 2826, Note_on_c, 0, 60, 71
2, 2835, Control_c, 0, 64, 40
2, 2857, Control_c, 0, 64, 41
2, 2875, Control_c, 0, 64, 42
2, 2890, Control_c, 0, 64, 43
2, 2890, Note_on_c, 0, 60, 0
2, 2905, Control_c, 0, 64, 44
2, 2920, Control_c, 0, 64, 44
2, 2934, Note_on_c, 0, 55, 79
2, 2936, Note_on_c, 0, 57, 66
2, 2965, Control_c, 0, 64, 44
2, 2977, Note_on_c, 0, 57, 0
2, 2981, Control_c, 0, 64, 43
2, 3006, Note_on_c, 0, 60, 76
2, 3026, Control_c, 0, 64, 44
2, 3056, Control_c, 0, 64, 44
2, 3065, Note_on_c, 0, 60, 0
2, 3105, Note_on_c, 0, 66, 77
2, 3117, Control_c, 0, 64, 45
2, 3162, Control_c, 0, 67, 24
2, 3175, Note_on_c, 0, 55, 0
2, 3177, Control_c, 0, 67, 66
2, 3186, Note_on_c, 0, 66, 0
2, 3193, Control_c, 0, 64, 44
2, 3193, Control_c, 0, 67, 127
2, 3196, Note_on_c, 0, 43, 60
2, 3205, Note_on_c, 0, 69, 64
2, 3235, Note_on_c, 0, 43, 0
2, 3239, Control_c, 0, 64, 44
2, 3273, Note_on_c, 0, 66, 66
2, 3278, Note_on_c, 0, 69, 0
2, 3301, Control_c, 0, 64, 44
2, 3355, Note_on_c, 0, 66, 0
2, 3368, Note_on_c, 0, 60, 65
2, 3407, Control_c, 0, 64, 45
2, 3423, Control_c, 0, 64, 45
2, 3424, Note_on_c, 0, 60, 0
2, 3437, Control_c, 0, 64, 46
2, 3447, Note_on_c, 0, 66, 69
2, 3452, Control_c, 0, 64, 47
2, 3468, Control_c, 0, 64, 48
2, 3482, Control_c, 0, 64, 49
2, 3511, Note_on_c, 0, 66, 0
2, 3528, Control_c, 0, 64, 50
2, 3531, Note_on_c, 0, 60, 61
2, 3544, Control_c, 0, 64, 50
2, 3551, Note_on_c, 0, 60, 0
2, 3558, Control_c, 0, 64, 51
2, 3573, Control_c, 0, 64, 52
2, 3589, Control_c, 0, 64, 52
2, 3615, Note_on_c, 0, 57, 54
2, 3628, Control_c, 0, 64, 52
2, 3640, Note_on_c, 0, 57, 0
2, 3681, Note_on_c, 0, 60, 54
2, 3691, Note_on_c, 0, 55, 61
2, 3713, Note_on_c, 0, 55, 0
2, 3734, Control_c, 0, 64, 51
2, 3762, Note_on_c, 0, 60, 0
2, 3763, Note_on_c, 0, 57, 49
2, 3781, Control_c, 0, 64, 52
2, 3810, Control_c, 0, 64, 52
2, 3826, Control_c, 0, 64, 53
2, 3840, Note_on_c, 0, 57, 0
2, 3841, Control_c, 0, 64, 54
2, 3851, Note_on_c, 0, 54, 65
2, 3856, Control_c, 0, 64, 54
2, 3884, Note_on_c, 0, 54, 0
2, 3917, Control_c, 0, 64, 54
2, 3946, Note_on_c, 0, 55, 71
2, 3962, Control_c, 0, 64, 54
2, 3993, Control_c, 0, 64, 55
2, 4007, Control_c, 0, 64, 54
2, 4026, Note_on_c, 0, 59, 71
2, 4071, Control_c, 0, 64, 56
2, 4082, Note_on_c, 0, 59, 0
2, 4085, Control_c, 0, 64, 58
2, 4101, Control_c, 0, 64, 59
2, 4116, Control_c, 0, 64, 58
2, 4121, Note_on_c, 0, 62, 70
2, 4161, Control_c, 0, 64, 59
2, 4168, Note_on_c, 0, 55, 0
2, 4189, Note_on_c, 0, 62, 0
2, 4192, Control_c, 0, 64, 59
2, 4200, Note_on_c, 0, 43, 57
2, 4202, Note_on_c, 0, 67, 68
2, 4238, Control_c, 0, 64, 59
2, 4253, Note_on_c, 0, 43, 0
2, 4269, Note_on_c, 0, 62, 65
2, 4269, Note_on_c, 0, 67, 0
2, 4349, Note_on_c, 0, 62, 0
2, 4366, Note_on_c, 0, 59, 63
2, 4420, Note_on_c, 0, 59, 0
2, 4442, Control_c, 0, 64, 59
2, 4451, Note_on_c, 0, 62, 67
2, 4509, Note_on_c, 0, 62, 0
2, 4530, Note_on_c, 0, 59, 67
2, 4565, Note_on_c, 0, 59, 0
2, 4609, Note_on_c, 0, 55, 62
2, 4636, Note_on_c, 0, 55, 0
2, 4672, Note_on_c, 0, 59, 69
2, 4691, Note_on_c, 0, 55, 45
2, 4699, Note_on_c, 0, 59, 0
2, 4717, Control_c, 0, 64, 59
2, 4720, Note_on_c, 0, 55, 0
2, 4748, Control_c, 0, 64, 59
2, 4754, Note_on_c, 0, 55, 67
2, 4807, Note_on_c, 0, 55, 0
2, 4808, Control_c, 0, 64, 60
2, 4834, Note_on_c, 0, 52, 72
2, 4902, Note_on_c, 0, 52, 0
2, 4916, Note_on_c, 0, 57, 74
2, 4922, Note_on_c, 0, 55, 84
2, 5004, Note_on_c, 0, 61, 79
2, 5005, Control_c, 0, 64, 60
2, 5017, Note_on_c, 0, 57, 0
2, 5071, Note_on_c, 0, 61, 0
2, 5095, Note_on_c, 0, 64, 74
2, 5097, Control_c, 0, 64, 61
2, 5179, Note_on_c, 0, 55, 0
2, 5186, Note_on_c, 0, 64, 0
2, 5187, Note_on_c, 0, 69, 82
2, 5189, Note_on_c, 0, 43, 73
2, 5226, Note_on_c, 0, 43, 0
2, 5267, Note_on_c, 0, 64, 69
2, 5296, Note_on_c, 0, 69, 0
2, 5348, Note_on_c, 0, 61, 75
2, 5348, Note_on_c, 0, 64, 0
2, 5409, Note_on_c, 0, 61, 0
2, 5433, Note_on_c, 0, 64, 65
2, 5482, Note_on_c, 0, 64, 0
2, 5514, Note_on_c, 0, 61, 65
2, 5530, Control_c, 0, 64, 61
2, 5545, Note_on_c, 0, 61, 0
2, 5576, Control_c, 0, 64, 62
2, 5601, Note_on_c, 0, 57, 56
2, 5634, Note_on_c, 0, 57, 0
2, 5654, Note_on_c, 0, 55, 71
2, 5679, Note_on_c, 0, 55, 0
2, 5681, Note_on_c, 0, 61, 64
2, 5697, Control_c, 0, 64, 61
2, 5742, Control_c, 0, 64, 61
2, 5745, Note_on_c, 0, 57, 58
2, 5790, Note_on_c, 0, 61, 0
2, 5833, Note_on_c, 0, 52, 64
2, 5865, Control_c, 0, 64, 61
2, 5866, Note_on_c, 0, 57, 0
2, 5872, Note_on_c, 0, 52, 0
2, 5912, Note_on_c, 0, 62, 71
2, 5926, Note_on_c, 0, 54, 64
2, 5962, Control_c, 0, 64, 61
2, 5977, Note_on_c, 0, 62, 0
2, 5978, Control_c, 0, 64, 61
2, 5978, Note_on_c, 0, 54, 0
2, 6003, Note_on_c, 0, 57, 57
2, 6024, Control_c, 0, 64, 61
2, 6069, Control_c, 0, 64, 61
2, 6086, Note_on_c, 0, 61, 74
2, 6090, Note_on_c, 0, 57, 0
2, 6125, Note_on_c, 0, 61, 0
2, 6174, Note_on_c, 0, 62, 67
2, 6222, Note_on_c, 0, 62, 0
2, 6253, Control_c, 0, 64, 61
2, 6253, Note_on_c, 0, 57, 63
2, 6291, Note_on_c, 0, 57, 0
2, 6344, Note_on_c, 0, 54, 63
2, 6394, Note_on_c, 0, 54, 0
2, 6420, Note_on_c, 0, 57, 67
2, 6482, Note_on_c, 0, 57, 0
2, 6507, Note_on_c, 0, 54, 68
2, 6564, Note_on_c, 0, 54, 0
2, 6580, Note_on_c, 0, 50, 62
2, 6618, Control_c, 0, 64, 61
2, 6638, Note_on_c, 0, 50, 0
2, 6660, Note_on_c, 0, 54, 70
2, 6675, Note_on_c, 0, 62, 71
2, 6718, Note_on_c, 0, 62, 0
2, 6728, Note_on_c, 0, 54, 0
2, 6751, Note_on_c, 0, 50, 67
2, 6805, Control_c, 0, 64, 62
2, 6816, Note_on_c, 0, 50, 0
2, 6826, Note_on_c, 0, 47, 60
2, 6904, Note_on_c, 0, 47, 0
2, 6920, Note_on_c, 0, 52, 69
2, 6927, Note_on_c, 0, 62, 73
2, 6996, Note_on_c, 0, 62, 0
2, 7011, Note_on_c, 0, 61, 65
2, 7087, Note_on_c, 0, 62, 65
2, 7131, Note_on_c, 0, 61, 0
2, 7164, Note_on_c, 0, 64, 66
2, 7166, Note_on_c, 0, 62, 0
2, 7189, Note_on_c, 0, 52, 0
2, 7198, Note_on_c, 0, 40, 61
2, 7242, Note_on_c, 0, 40, 0
2, 7247, Control_c, 0, 64, 61
2, 7247, Note_on_c, 0, 64, 0
2, 7250, Note_on_c, 0, 61, 71
2, 7292, Control_c, 0, 64, 61
2, 7309, Note_on_c, 0, 61, 0
2, 7336, Note_on_c, 0, 62, 69
2, 7353, Control_c, 0, 64, 60
2, 7399, Note_on_c, 0, 62, 0
2, 7422, Note_on_c, 0, 66, 79
2, 7515, Note_on_c, 0, 61, 70
2, 7528, Note_on_c, 0, 66, 0
2, 7581, Note_on_c, 0, 61, 0
2, 7594, Note_on_c, 0, 62, 69
2, 7650, Note_on_c, 0, 62, 0
2, 7682, Note_on_c, 0, 67, 81
2, 7684, Note_on_c, 0, 52, 69
2, 7710, Control_c, 0, 64, 60
2, 7710, Note_on_c, 0, 52, 0
2, 7756, Control_c, 0, 64, 59
2, 7771, Note_on_c, 0, 61, 72
2, 7785, Note_on_c, 0, 67, 0
2, 7802, Control_c, 0, 64, 60
2, 7843, Note_on_c, 0, 61, 0
2, 7861, Note_on_c, 0, 62, 72
2, 7922, Note_on_c, 0, 62, 0
2, 7938, Control_c, 0, 64, 60
2, 7954, Note_on_c, 0, 69, 85
2, 7955, Note_on_c, 0, 49, 69
2, 7969, Control_c, 0, 64, 62
2, 7985, Control_c, 0, 64, 63
2, 7999, Control_c, 0, 64, 64
2, 8014, Control_c, 0, 64, 65
2, 8030, Control_c, 0, 64, 66
2, 8030, Note_on_c, 0, 61, 59
2, 8045, Control_c, 0, 64, 66
2, 8061, Control_c, 0, 64, 67
2, 8066, Note_on_c, 0, 69, 0
2, 8076, Control_c, 0, 64, 68
2, 8091, Control_c, 0, 64, 68
2, 8107, Control_c, 0, 64, 69
2, 8114, Note_on_c, 0, 61, 0
2, 8121, Control_c, 0, 64, 69
2, 8122, Note_on_c, 0, 62, 66
2, 8152, Control_c, 0, 64, 70
2, 8186, Note_on_c, 0, 62, 0
2, 8225, Note_on_c, 0, 71, 76
2, 8232, Note_on_c, 0, 45, 59
2, 8235, Control_c, 0, 64, 68
2, 8246, Note_on_c, 0, 49, 0
2, 8250, Control_c, 0, 64, 64
2, 8266, Control_c, 0, 64, 51
2, 8275, Note_on_c, 0, 45, 0
2, 8280, Control_c, 0, 64, 0
2, 8308, Note_on_c, 0, 71, 0
2, 8322, Note_on_c, 0, 61, 63
2, 8378, Note_on_c, 0, 61, 0
2, 8403, Note_on_c, 0, 62, 58
2, 8464, Note_on_c, 0, 62, 0
2, 8489, Note_on_c, 0, 69, 70
2, 8490, Note_on_c, 0, 47, 59
2, 8528, Note_on_c, 0, 47, 0
2, 8578, Note_on_c, 0, 61, 57
2, 8620, Note_on_c, 0, 69, 0
2, 8626, Note_on_c, 0, 61, 0
2, 8666, Note_on_c, 0, 62, 56
2, 8742, Note_on_c, 0, 67, 65
2, 8748, Note_on_c, 0, 49, 64
2, 8761, Note_on_c, 0, 62, 0
2, 8788, Note_on_c, 0, 49, 0
2, 8824, Note_on_c, 0, 61, 61
2, 8832, Note_on_c, 0, 67, 0
2, 8879, Note_on_c, 0, 61, 0
2, 8900, Note_on_c, 0, 62, 59
2, 9006, Note_on_c, 0, 62, 0
2, 9006, Note_on_c, 0, 66, 67
2, 9020, Note_on_c, 0, 50, 60
2, 9089, Note_on_c, 0, 61, 66
2, 9094, Control_c, 0, 64, 22
2, 9105, Note_on_c, 0, 66, 0
2, 9110, Control_c, 0, 64, 32
2, 9124, Control_c, 0, 64, 36
2, 9140, Control_c, 0, 64, 40
2, 9153, Note_on_c, 0, 61, 0
2, 9155, Control_c, 0, 64, 44
2, 9170, Control_c, 0, 64, 46
2, 9170, Note_on_c, 0, 62, 60
2, 9186, Control_c, 0, 64, 48
2, 9201, Control_c, 0, 64, 49
2, 9216, Control_c, 0, 64, 49
2, 9246, Control_c, 0, 64, 48
2, 9249, Note_on_c, 0, 50, 0
2, 9249, Note_on_c, 0, 62, 0
2, 9262, Control_c, 0, 64, 46
2, 9263, Note_on_c, 0, 67, 68
2, 9273, Note_on_c, 0, 52, 63
2, 9277, Control_c, 0, 64, 43
2, 9292, Control_c, 0, 64, 39
2, 9305, Note_on_c, 0, 52, 0
2, 9308, Control_c, 0, 64, 36
2, 9322, Control_c, 0, 64, 35
2, 9337, Control_c, 0, 64, 36
2, 9347, Note_on_c, 0, 61, 61
2, 9353, Control_c, 0, 64, 36
2, 9354, Note_on_c, 0, 67, 0
2, 9368, Control_c, 0, 64, 37
2, 9383, Control_c, 0, 64, 38
2, 9398, Control_c, 0, 64, 39
2, 9402, Note_on_c, 0, 61, 0
2, 9410, Note_on_c, 0, 62, 67
2, 9413, Control_c, 0, 64, 39
2, 9430, Control_c, 0, 64, 40
2, 9461, Control_c, 0, 64, 40
2, 9483, Note_on_c, 0, 62, 0
2, 9490, Control_c, 0, 64, 41
2, 9506, Control_c, 0, 64, 41
2, 9519, Note_on_c, 0, 54, 62
2, 9519, Note_on_c, 0, 69, 74
2, 9550, Note_on_c, 0, 54, 0
2, 9551, Control_c, 0, 64, 42
2, 9602, Note_on_c, 0, 61, 69
2, 9605, Note_on_c, 0, 69, 0
2, 9642, Control_c, 0, 64, 43
2, 9657, Control_c, 0, 64, 43
2, 9660, Note_on_c, 0, 61, 0
2, 9673, Control_c, 0, 64, 44
2, 9680, Note_on_c, 0, 62, 69
2, 9687, Control_c, 0, 64, 44
2, 9761, Note_on_c, 0, 62, 0
2, 9771, Control_c, 0, 64, 45
2, 9780, Note_on_c, 0, 55, 69
2, 9780, Note_on_c, 0, 71, 72
2, 9812, Note_on_c, 0, 55, 0
2, 9816, Control_c, 0, 64, 45
2, 9847, Control_c, 0, 64, 46
2, 9855, Note_on_c, 0, 71, 0
2, 9870, Note_on_c, 0, 61, 66
2, 9908, Control_c, 0, 64, 46
2, 9927, Note_on_c, 0, 61, 0
2, 9938, Control_c, 0, 64, 47
2, 9946, Note_on_c, 0, 62, 65
2, 9954, Control_c, 0, 64, 47
2, 10010, Note_on_c, 0, 62, 0
2, 10039, Note_on_c, 0, 69, 73
2, 10047, Note_on_c, 0, 54, 51
2, 10060, Control_c, 0, 64, 48
2, 10075, Note_on_c, 0, 54, 0
2, 10118, Note_on_c, 0, 61, 58
2, 10121, Note_on_c, 0, 69, 0
2, 10136, Control_c, 0, 64, 48
2, 10163, Note_on_c, 0, 61, 0
2, 10182, Control_c, 0, 64, 49
2, 10197, Control_c, 0, 64, 49
2, 10198, Note_on_c, 0, 62, 63
2, 10274, Control_c, 0, 64, 50
2, 10285, Note_on_c, 0, 67, 73
2, 10286, Note_on_c, 0, 52, 60
2, 10292, Note_on_c, 0, 62, 0
2, 10305, Control_c, 0, 64, 50
2, 10319, Control_c, 0, 64, 51
2, 10321, Note_on_c, 0, 52, 0
2, 10334, Control_c, 0, 64, 51
2, 10374, Note_on_c, 0, 61, 58
2, 10374, Note_on_c, 0, 67, 0
2, 10410, Control_c, 0, 64, 52
2, 10426, Control_c, 0, 64, 52
2, 10433, Note_on_c, 0, 61, 0
2, 10438, Note_on_c, 0, 62, 70
2, 10441, Control_c, 0, 64, 53
2, 10455, Control_c, 0, 64, 54
2, 10471, Control_c, 0, 64, 54
2, 10517, Control_c, 0, 64, 54
2, 10529, Note_on_c, 0, 50, 64
2, 10549, Note_on_c, 0, 66, 69
2, 10553, Note_on_c, 0, 62, 0
2, 10555, Control_c, 0, 64, 55
2, 10559, Note_on_c, 0, 50, 0
2, 10570, Control_c, 0, 64, 59
2, 10586, Control_c, 0, 64, 63
2, 10601, Control_c, 0, 64, 65
2, 10607, Note_on_c, 0, 61, 66
2, 10615, Control_c, 0, 64, 68
2, 10618, Note_on_c, 0, 66, 0
2, 10631, Control_c, 0, 64, 72
2, 10646, Control_c, 0, 64, 76
2, 10661, Control_c, 0, 64, 79
2, 10676, Control_c, 0, 64, 81
2, 10676, Note_on_c, 0, 61, 0
2, 10677, Note_on_c, 0, 62, 69
2, 10691, Control_c, 0, 64, 82
2, 10707, Control_c, 0, 64, 82
2, 10722, Control_c, 0, 64, 83
2, 10736, Control_c, 0, 64, 83
2, 10747, Note_on_c, 0, 62, 0
2, 10769, Note_on_c, 0, 54, 60
2, 10773, Note_on_c, 0, 69, 78
2, 10801, Note_on_c, 0, 54, 0
2, 10809, Note_on_c, 0, 69, 0
2, 10842, Note_on_c, 0, 61, 75
2, 10897, Note_on_c, 0, 61, 0
2, 10904, Control_c, 0, 64, 83
2, 10925, Note_on_c, 0, 62, 76
2, 10934, Control_c, 0, 64, 82
2, 10934, Control_c, 0, 67, 109
2, 10950, Control_c, 0, 64, 78
2, 10950, Control_c, 0, 67, 58
2, 10965, Control_c, 0, 64, 66
2, 10965, Control_c, 0, 67, 0
2, 10980, Note_on_c, 0, 62, 0
2, 10981, Control_c, 0, 64, 0
2, 11039, Note_on_c, 0, 47, 95
2, 11048, Note_on_c, 0, 68, 94
2, 11129, Note_on_c, 0, 71, 84
2, 11130, Note_on_c, 0, 68, 0
2, 11215, Note_on_c, 0, 71, 0
2, 11215, Note_on_c, 0, 74, 79
2, 11298, Note_on_c, 0, 59, 88
2, 11302, Note_on_c, 0, 77, 84
2, 11312, Note_on_c, 0, 74, 0
2, 11319, Note_on_c, 0, 47, 0
2, 11322, Control_c, 0, 64, 66
2, 11324, Note_on_c, 0, 59, 0
2, 11337, Control_c, 0, 64, 96
2, 11353, Control_c, 0, 64, 106
2, 11368, Control_c, 0, 64, 106
2, 11385, Note_on_c, 0, 74, 69
2, 11415, Note_on_c, 0, 77, 0
2, 11430, Control_c, 0, 64, 105
2, 11445, Control_c, 0, 64, 98
2, 11460, Control_c, 0, 64, 86
2, 11470, Note_on_c, 0, 71, 76
2, 11471, Note_on_c, 0, 74, 0
2, 11475, Control_c, 0, 64, 70
2, 11490, Control_c, 0, 64, 0
2, 11548, Note_on_c, 0, 71, 0
2, 11554, Note_on_c, 0, 74, 69
2, 11624, Note_on_c, 0, 74, 0
2, 11629, Note_on_c, 0, 71, 66
2, 11668, Note_on_c, 0, 71, 0
2, 11701, Note_on_c, 0, 68, 68
2, 11719, Note_on_c, 0, 68, 0
2, 11733, Control_c, 0, 64, 61
2, 11749, Control_c, 0, 64, 65
2, 11764, Control_c, 0, 64, 0
2, 11783, Note_on_c, 0, 57, 77
2, 11796, Note_on_c, 0, 71, 77
2, 11808, Note_on_c, 0, 57, 0
2, 11888, Note_on_c, 0, 68, 74
2, 11892, Note_on_c, 0, 71, 0
2, 11953, Note_on_c, 0, 64, 71
2, 11961, Note_on_c, 0, 68, 0
2, 12020, Note_on_c, 0, 64, 0
2, 12041, Note_on_c, 0, 62, 81
2, 12052, Note_on_c, 0, 56, 86
2, 12061, Control_c, 0, 64, 53
2, 12076, Control_c, 0, 64, 39
2, 12091, Control_c, 0, 64, 0
2, 12126, Note_on_c, 0, 65, 82
2, 12128, Note_on_c, 0, 62, 0
2, 12222, Note_on_c, 0, 68, 76
2, 12226, Note_on_c, 0, 65, 0
2, 12307, Note_on_c, 0, 68, 0
2, 12312, Note_on_c, 0, 71, 68
2, 12315, Note_on_c, 0, 44, 76
2, 12328, Note_on_c, 0, 56, 0
2, 12334, Control_c, 0, 64, 62
2, 12349, Note_on_c, 0, 44, 0
2, 12350, Control_c, 0, 64, 69
2, 12365, Control_c, 0, 64, 68
2, 12381, Control_c, 0, 64, 64
2, 12384, Note_on_c, 0, 68, 72
2, 12393, Note_on_c, 0, 71, 0
2, 12396, Control_c, 0, 64, 48
2, 12411, Control_c, 0, 64, 13
2, 12426, Control_c, 0, 64, 28
2, 12441, Control_c, 0, 64, 39
2, 12456, Control_c, 0, 64, 38
2, 12471, Control_c, 0, 64, 35
2, 12472, Note_on_c, 0, 65, 69
2, 12473, Note_on_c, 0, 68, 0
2, 12486, Control_c, 0, 64, 32
2, 12502, Control_c, 0, 64, 31
2, 12517, Control_c, 0, 64, 32
2, 12532, Control_c, 0, 64, 32
2, 12543, Note_on_c, 0, 65, 0
2, 12547, Control_c, 0, 64, 25
2, 12551, Note_on_c, 0, 68, 69
2, 12562, Control_c, 0, 64, 0
2, 12608, Control_c, 0, 64, 18
2, 12623, Control_c, 0, 64, 32
2, 12634, Note_on_c, 0, 65, 67
2, 12635, Note_on_c, 0, 68, 0
2, 12638, Control_c, 0, 64, 38
2, 12653, Control_c, 0, 64, 41
2, 12668, Note_on_c, 0, 65, 0
2, 12669, Control_c, 0, 64, 43
2, 12683, Control_c, 0, 64, 46
2, 12700, Control_c, 0, 64, 49
2, 12715, Control_c, 0, 64, 51
2, 12722, Note_on_c, 0, 62, 62
2, 12730, Control_c, 0, 64, 52
2, 12746, Control_c, 0, 64, 52
2, 12754, Note_on_c, 0, 62, 0
2, 12761, Control_c, 0, 64, 53
2, 12772, Note_on_c, 0, 56, 63
2, 12775, Control_c, 0, 64, 53
2, 12804, Note_on_c, 0, 56, 0
2, 12806, Control_c, 0, 64, 54
2, 12808, Note_on_c, 0, 65, 60
2, 12822, Control_c, 0, 64, 54
2, 12845, Control_c, 0, 64, 55
2, 12860, Control_c, 0, 64, 55
2, 12890, Control_c, 0, 64, 56
2, 12901, Note_on_c, 0, 65, 0
2, 12906, Control_c, 0, 64, 57
2, 12909, Note_on_c, 0, 62, 15
2, 12920, Control_c, 0, 64, 57
2, 12951, Control_c, 0, 64, 58
2, 12958, Note_on_c, 0, 59, 71
2, 12961, Note_on_c, 0, 62, 0
2, 12987, Note_on_c, 0, 59, 0
2, 13011, Control_c, 0, 64, 58
2, 13022, Note_on_c, 0, 57, 54
2, 13044, Note_on_c, 0, 60, 66
2, 13072, Control_c, 0, 64, 58
2, 13072, Note_on_c, 0, 60, 0
2, 13091, Note_on_c, 0, 57, 0
2, 13117, Control_c, 0, 64, 57
2, 13163, Control_c, 0, 64, 58
2, 13209, Note_on_c, 0, 64, 72
2, 13240, Control_c, 0, 64, 57
2, 13266, Note_on_c, 0, 64, 0
2, 13288, Note_on_c, 0, 76, 66
2, 13301, Note_on_c, 0, 69, 75
2, 13316, Control_c, 0, 64, 58
2, 13318, Note_on_c, 0, 76, 0
2, 13358, Note_on_c, 0, 69, 0
2, 13372, Note_on_c, 0, 64, 69
2, 13377, Control_c, 0, 64, 58
2, 13407, Control_c, 0, 64, 59
2, 13423, Control_c, 0, 64, 60
2, 13435, Note_on_c, 0, 64, 0
2, 13438, Control_c, 0, 64, 60
2, 13453, Note_on_c, 0, 60, 69
2, 13511, Note_on_c, 0, 60, 0
2, 13535, Note_on_c, 0, 72, 69
2, 13542, Note_on_c, 0, 74, 70
2, 13554, Note_on_c, 0, 64, 74
2, 13564, Note_on_c, 0, 74, 0
2, 13571, Note_on_c, 0, 72, 0
2, 13575, Control_c, 0, 64, 61
2, 13613, Control_c, 0, 64, 61
2, 13624, Note_on_c, 0, 64, 0
2, 13628, Control_c, 0, 64, 62
2, 13634, Note_on_c, 0, 60, 72
2, 13674, Control_c, 0, 64, 62
2, 13694, Note_on_c, 0, 60, 0
2, 13727, Note_on_c, 0, 57, 63
2, 13784, Note_on_c, 0, 69, 88
2, 13790, Note_on_c, 0, 57, 0
2, 13810, Note_on_c, 0, 60, 73
2, 13811, Control_c, 0, 64, 62
2, 13827, Note_on_c, 0, 69, 0
2, 13869, Note_on_c, 0, 60, 0
2, 13885, Note_on_c, 0, 57, 78
2, 13932, Control_c, 0, 64, 62
2, 13950, Note_on_c, 0, 57, 0
2, 13962, Control_c, 0, 64, 63
2, 13971, Note_on_c, 0, 52, 70
2, 13992, Control_c, 0, 64, 62
2, 14007, Control_c, 0, 64, 61
2, 14023, Control_c, 0, 64, 57
2, 14037, Control_c, 0, 64, 54
2, 14042, Note_on_c, 0, 64, 83
2, 14052, Control_c, 0, 64, 50
2, 14066, Note_on_c, 0, 48, 77
2, 14067, Note_on_c, 0, 52, 0
2, 14068, Control_c, 0, 64, 38
2, 14083, Control_c, 0, 64, 0
2, 14129, Note_on_c, 0, 52, 63
2, 14144, Note_on_c, 0, 48, 0
2, 14224, Note_on_c, 0, 52, 0
2, 14233, Note_on_c, 0, 57, 64
2, 14288, Note_on_c, 0, 57, 0
2, 14297, Note_on_c, 0, 76, 74
2, 14307, Note_on_c, 0, 64, 0
2, 14315, Note_on_c, 0, 60, 74
2, 14350, Note_on_c, 0, 76, 0
2, 14383, Note_on_c, 0, 60, 0
2, 14399, Note_on_c, 0, 57, 70
2, 14447, Note_on_c, 0, 57, 0
2, 14478, Note_on_c, 0, 52, 64
2, 14538, Note_on_c, 0, 52, 0
2, 14554, Note_on_c, 0, 72, 71
2, 14573, Note_on_c, 0, 57, 67
2, 14591, Note_on_c, 0, 72, 0
2, 14634, Note_on_c, 0, 57, 0
2, 14646, Note_on_c, 0, 52, 77
2, 14715, Control_c, 0, 64, 56
2, 14719, Note_on_c, 0, 52, 0
2, 14729, Control_c, 0, 64, 0
2, 14740, Note_on_c, 0, 48, 60
2, 14771, Note_on_c, 0, 69, 76
2, 14787, Note_on_c, 0, 48, 0
2, 14795, Note_on_c, 0, 52, 69
2, 14795, Note_on_c, 0, 69, 0
2, 14858, Note_on_c, 0, 52, 0
2, 14863, Note_on_c, 0, 48, 62
2, 14908, Note_on_c, 0, 48, 0
2, 14933, Note_on_c, 0, 45, 64
2, 14986, Note_on_c, 0, 45, 0
2, 15022, Note_on_c, 0, 42, 74
2, 15025, Note_on_c, 0, 75, 76
2, 15040, Note_on_c, 0, 76, 78
2, 15048, Control_c, 0, 64, 37
2, 15064, Control_c, 0, 64, 84
2, 15069, Note_on_c, 0, 77, 49
2, 15070, Note_on_c, 0, 76, 0
2, 15077, Note_on_c, 0, 75, 0
2, 15079, Control_c, 0, 64, 91
2, 15093, Control_c, 0, 64, 92
2, 15095, Note_on_c, 0, 77, 0
2, 15102, Note_on_c, 0, 78, 82
2, 15109, Control_c, 0, 64, 91
2, 15145, Note_on_c, 0, 79, 60
2, 15147, Control_c, 0, 64, 90
2, 15162, Control_c, 0, 64, 88
2, 15164, Note_on_c, 0, 79, 0
2, 15177, Control_c, 0, 64, 80
2, 15193, Control_c, 0, 64, 66
2, 15195, Note_on_c, 0, 78, 0
2, 15201, Note_on_c, 0, 81, 80
2, 15208, Control_c, 0, 64, 0
2, 15276, Note_on_c, 0, 84, 88
2, 15281, Note_on_c, 0, 54, 89
2, 15285, Note_on_c, 0, 81, 0
2, 15307, Note_on_c, 0, 42, 0
2, 15321, Note_on_c, 0, 54, 0
2, 15359, Note_on_c, 0, 81, 71
2, 15361, Control_c, 0, 64, 58
2, 15375, Control_c, 0, 64, 81
2, 15389, Note_on_c, 0, 84, 0
2, 15391, Control_c, 0, 64, 83
2, 15422, Control_c, 0, 64, 81
2, 15427, Note_on_c, 0, 78, 82
2, 15437, Control_c, 0, 64, 81
2, 15438, Note_on_c, 0, 81, 0
2, 15451, Control_c, 0, 64, 79
2, 15467, Control_c, 0, 64, 75
2, 15482, Control_c, 0, 64, 63
2, 15497, Control_c, 0, 64, 0
2, 15513, Note_on_c, 0, 78, 0
2, 15513, Note_on_c, 0, 81, 78
2, 15586, Note_on_c, 0, 81, 0
2, 15591, Note_on_c, 0, 78, 79
2, 15639, Note_on_c, 0, 78, 0
2, 15673, Note_on_c, 0, 75, 78
2, 15705, Note_on_c, 0, 75, 0
2, 15748, Note_on_c, 0, 52, 82
2, 15758, Note_on_c, 0, 78, 78
2, 15770, Control_c, 0, 64, 63
2, 15771, Note_on_c, 0, 52, 0
2, 15786, Control_c, 0, 64, 70
2, 15787, Note_on_c, 0, 78, 0
2, 15801, Control_c, 0, 64, 68
2, 15812, Note_on_c, 0, 77, 56
2, 15816, Control_c, 0, 64, 42
2, 15832, Control_c, 0, 64, 0
2, 15834, Note_on_c, 0, 77, 0
2, 15842, Note_on_c, 0, 75, 71
2, 15926, Note_on_c, 0, 71, 70
2, 15933, Note_on_c, 0, 75, 0
2, 15997, Note_on_c, 0, 71, 0
2, 16011, Note_on_c, 0, 51, 83
2, 16012, Note_on_c, 0, 69, 60
2, 16030, Note_on_c, 0, 67, 52
2, 16052, Note_on_c, 0, 67, 0
2, 16054, Note_on_c, 0, 69, 0
2, 16089, Note_on_c, 0, 72, 72
2, 16187, Note_on_c, 0, 75, 67
2, 16189, Note_on_c, 0, 72, 0
2, 16253, Note_on_c, 0, 75, 0
2, 16254, Note_on_c, 0, 78, 77
2, 16270, Note_on_c, 0, 39, 76
2, 16284, Note_on_c, 0, 51, 0
2, 16312, Note_on_c, 0, 39, 0
2, 16333, Note_on_c, 0, 75, 63
2, 16349, Note_on_c, 0, 78, 0
2, 16407, Note_on_c, 0, 72, 76
2, 16409, Note_on_c, 0, 75, 0
2, 16471, Note_on_c, 0, 72, 0
2, 16498, Note_on_c, 0, 75, 65
2, 16569, Note_on_c, 0, 75, 0
2, 16581, Note_on_c, 0, 72, 63
2, 16602, Note_on_c, 0, 72, 0
2, 16652, Note_on_c, 0, 69, 62
2, 16691, Note_on_c, 0, 69, 0
2, 16728, Note_on_c, 0, 51, 61
2, 16741, Note_on_c, 0, 72, 53
2, 16756, Note_on_c, 0, 51, 0
2, 16807, Note_on_c, 0, 69, 64
2, 16826, Note_on_c, 0, 72, 0
2, 16888, Note_on_c, 0, 66, 61
2, 16908, Note_on_c, 0, 69, 0
2, 16932, Note_on_c, 0, 66, 0
2, 16972, Note_on_c, 0, 52, 47
2, 16982, Note_on_c, 0, 67, 68
2, 17017, Control_c, 0, 64, 10
2, 17033, Control_c, 0, 64, 19
2, 17049, Control_c, 0, 64, 21
2, 17061, Note_on_c, 0, 63, 71
2, 17075, Note_on_c, 0, 67, 0
2, 17079, Control_c, 0, 64, 19
2, 17094, Control_c, 0, 64, 18
2, 17125, Control_c, 0, 64, 19
2, 17134, Note_on_c, 0, 63, 0
2, 17139, Control_c, 0, 64, 22
2, 17141, Note_on_c, 0, 64, 72
2, 17155, Control_c, 0, 64, 25
2, 17170, Control_c, 0, 64, 28
2, 17185, Control_c, 0, 64, 30
2, 17193, Note_on_c, 0, 52, 0
2, 17201, Note_on_c, 0, 54, 67
2, 17214, Note_on_c, 0, 69, 77
2, 17223, Note_on_c, 0, 64, 0
2, 17231, Control_c, 0, 64, 29
2, 17256, Note_on_c, 0, 54, 0
2, 17261, Control_c, 0, 64, 30
2, 17276, Control_c, 0, 64, 31
2, 17291, Control_c, 0, 64, 33
2, 17293, Note_on_c, 0, 63, 74
2, 17307, Control_c, 0, 64, 34
2, 17321, Note_on_c, 0, 69, 0
2, 17322, Control_c, 0, 64, 35
2, 17352, Control_c, 0, 64, 34
2, 17370, Note_on_c, 0, 64, 75
2, 17374, Note_on_c, 0, 63, 0
2, 17398, Control_c, 0, 64, 35
2, 17442, Note_on_c, 0, 64, 0
2, 17466, Note_on_c, 0, 55, 76
2, 17470, Note_on_c, 0, 71, 86
2, 17481, Control_c, 0, 64, 34
2, 17496, Control_c, 0, 64, 33
2, 17496, Note_on_c, 0, 55, 0
2, 17542, Control_c, 0, 64, 32
2, 17559, Note_on_c, 0, 63, 74
2, 17577, Note_on_c, 0, 71, 0
2, 17618, Control_c, 0, 64, 32
2, 17629, Note_on_c, 0, 63, 0
2, 17634, Control_c, 0, 64, 31
2, 17635, Note_on_c, 0, 64, 67
2, 17649, Control_c, 0, 64, 30
2, 17665, Control_c, 0, 64, 29
2, 17680, Control_c, 0, 64, 28
2, 17694, Control_c, 0, 64, 27
2, 17713, Note_on_c, 0, 72, 84
2, 17714, Note_on_c, 0, 57, 67
2, 17725, Control_c, 0, 64, 26
2, 17727, Note_on_c, 0, 64, 0
2, 17741, Control_c, 0, 64, 25
2, 17743, Note_on_c, 0, 57, 0
2, 17756, Control_c, 0, 64, 24
2, 17786, Control_c, 0, 64, 22
2, 17797, Note_on_c, 0, 63, 67
2, 17806, Note_on_c, 0, 72, 0
2, 17832, Control_c, 0, 64, 24
2, 17847, Control_c, 0, 64, 25
2, 17863, Note_on_c, 0, 63, 0
2, 17878, Note_on_c, 0, 64, 63
2, 17941, Note_on_c, 0, 64, 0
2, 17958, Note_on_c, 0, 71, 69
2, 17965, Note_on_c, 0, 55, 54
2, 17984, Control_c, 0, 64, 26
2, 17989, Note_on_c, 0, 55, 0
2, 18035, Note_on_c, 0, 63, 67
2, 18059, Control_c, 0, 64, 27
2, 18097, Note_on_c, 0, 71, 0
2, 18098, Note_on_c, 0, 63, 0
2, 18120, Control_c, 0, 64, 28
2, 18129, Note_on_c, 0, 64, 59
2, 18194, Note_on_c, 0, 64, 0
2, 18196, Note_on_c, 0, 69, 65
2, 18213, Note_on_c, 0, 54, 59
2, 18244, Note_on_c, 0, 54, 0
2, 18249, Control_c, 0, 64, 29
2, 18265, Control_c, 0, 64, 30
2, 18282, Note_on_c, 0, 63, 62
2, 18302, Note_on_c, 0, 69, 0
2, 18342, Note_on_c, 0, 63, 0
2, 18345, Note_on_c, 0, 64, 65
2, 18370, Control_c, 0, 64, 31
2, 18386, Control_c, 0, 64, 32
2, 18440, Note_on_c, 0, 67, 63
2, 18443, Note_on_c, 0, 64, 0
2, 18454, Note_on_c, 0, 52, 60
2, 18485, Note_on_c, 0, 52, 0
2, 18493, Control_c, 0, 64, 32
2, 18509, Control_c, 0, 64, 33
2, 18515, Note_on_c, 0, 63, 64
2, 18523, Note_on_c, 0, 67, 0
2, 18524, Control_c, 0, 64, 34
2, 18538, Control_c, 0, 64, 34
2, 18578, Note_on_c, 0, 63, 0
2, 18591, Note_on_c, 0, 64, 59
2, 18630, Control_c, 0, 64, 35
2, 18663, Note_on_c, 0, 64, 0
2, 18684, Note_on_c, 0, 71, 63
2, 18693, Note_on_c, 0, 55, 56
2, 18723, Note_on_c, 0, 55, 0
2, 18749, Note_on_c, 0, 63, 66
2, 18752, Control_c, 0, 64, 36
2, 18767, Control_c, 0, 64, 37
2, 18783, Control_c, 0, 64, 38
2, 18789, Note_on_c, 0, 71, 0
2, 18792, Note_on_c, 0, 63, 0
2, 18797, Control_c, 0, 64, 39
2, 18844, Note_on_c, 0, 64, 58
2, 18902, Note_on_c, 0, 64, 0
2, 18933, Note_on_c, 0, 69, 65
2, 18948, Note_on_c, 0, 49, 53
2, 19002, Control_c, 0, 64, 40
2, 19010, Note_on_c, 0, 69, 0
2, 19017, Control_c, 0, 64, 41
2, 19018, Note_on_c, 0, 68, 73
2, 19033, Control_c, 0, 64, 42
2, 19048, Control_c, 0, 64, 43
2, 19064, Control_c, 0, 64, 44
2, 19078, Control_c, 0, 64, 45
2, 19088, Note_on_c, 0, 68, 0
2, 19093, Control_c, 0, 64, 45
2, 19099, Note_on_c, 0, 69, 68
2, 19109, Control_c, 0, 64, 46
2, 19139, Control_c, 0, 64, 47
2, 19154, Control_c, 0, 64, 47
2, 19170, Note_on_c, 0, 49, 0
2, 19178, Note_on_c, 0, 69, 0
2, 19185, Note_on_c, 0, 71, 66
2, 19189, Note_on_c, 0, 50, 69
2, 19236, Note_on_c, 0, 50, 0
2, 19253, Note_on_c, 0, 71, 0
2, 19258, Note_on_c, 0, 68, 74
2, 19259, Control_c, 0, 64, 47
2, 19304, Note_on_c, 0, 68, 0
2, 19335, Control_c, 0, 64, 47
2, 19336, Note_on_c, 0, 69, 78
2, 19415, Note_on_c, 0, 73, 78
2, 19425, Note_on_c, 0, 52, 71
2, 19425, Note_on_c, 0, 69, 0
2, 19441, Control_c, 0, 64, 48
2, 19456, Note_on_c, 0, 52, 0
2, 19496, Note_on_c, 0, 68, 77
2, 19502, Control_c, 0, 64, 47
2, 19508, Note_on_c, 0, 73, 0
2, 19566, Note_on_c, 0, 68, 0
2, 19577, Note_on_c, 0, 69, 79
2, 19639, Control_c, 0, 64, 46
2, 19643, Note_on_c, 0, 69, 0
2, 19654, Note_on_c, 0, 54, 79
2, 19668, Note_on_c, 0, 74, 83
2, 19691, Note_on_c, 0, 54, 0
2, 19737, Control_c, 0, 64, 46
2, 19751, Note_on_c, 0, 68, 70
2, 19753, Control_c, 0, 64, 45
2, 19766, Note_on_c, 0, 74, 0
2, 19768, Control_c, 0, 64, 45
2, 19828, Note_on_c, 0, 69, 73
2, 19829, Note_on_c, 0, 68, 0
2, 19859, Control_c, 0, 64, 44
2, 19875, Control_c, 0, 64, 34
2, 19890, Control_c, 0, 64, 0
2, 19892, Note_on_c, 0, 69, 0
2, 19913, Note_on_c, 0, 49, 83
2, 19915, Note_on_c, 0, 76, 85
2, 19957, Note_on_c, 0, 49, 0
2, 19994, Note_on_c, 0, 76, 0
2, 19997, Note_on_c, 0, 68, 70
2, 20058, Note_on_c, 0, 68, 0
2, 20074, Note_on_c, 0, 69, 71
2, 20156, Note_on_c, 0, 47, 83
2, 20157, Note_on_c, 0, 78, 80
2, 20195, Note_on_c, 0, 47, 0
2, 20208, Note_on_c, 0, 69, 0
2, 20237, Note_on_c, 0, 68, 60
2, 20244, Note_on_c, 0, 78, 0
2, 20296, Note_on_c, 0, 68, 0
2, 20321, Note_on_c, 0, 69, 66
2, 20413, Note_on_c, 0, 45, 79
2, 20417, Note_on_c, 0, 79, 86
2, 20497, Note_on_c, 0, 69, 0
2, 20500, Note_on_c, 0, 76, 66
2, 20545, Note_on_c, 0, 79, 0
2, 20583, Note_on_c, 0, 73, 72
2, 20584, Note_on_c, 0, 76, 0
2, 20641, Note_on_c, 0, 45, 0
2, 20657, Note_on_c, 0, 73, 0
2, 20665, Note_on_c, 0, 49, 60
2, 20673, Note_on_c, 0, 69, 77
2, 20700, Note_on_c, 0, 49, 0
2, 20722, Note_on_c, 0, 69, 0
2, 20752, Note_on_c, 0, 73, 75
2, 20814, Note_on_c, 0, 76, 72
2, 20815, Note_on_c, 0, 73, 0
2, 20883, Note_on_c, 0, 76, 0
2, 20910, Note_on_c, 0, 78, 81
2, 20929, Note_on_c, 0, 50, 55
2, 20963, Control_c, 0, 64, 60
2, 20966, Note_on_c, 0, 78, 0
2, 20978, Control_c, 0, 64, 67
2, 20988, Note_on_c, 0, 50, 0
2, 20993, Control_c, 0, 64, 69
2, 20999, Note_on_c, 0, 54, 56
2, 21008, Control_c, 0, 64, 72
2, 21023, Control_c, 0, 64, 77
2, 21039, Control_c, 0, 64, 81
2, 21054, Control_c, 0, 64, 84
2, 21069, Control_c, 0, 64, 85
2, 21082, Note_on_c, 0, 54, 0
2, 21084, Control_c, 0, 64, 86
2, 21093, Note_on_c, 0, 57, 63
2, 21156, Note_on_c, 0, 57, 0
2, 21191, Control_c, 0, 64, 84
2, 21193, Note_on_c, 0, 62, 64
2, 21205, Control_c, 0, 64, 80
2, 21220, Control_c, 0, 64, 71
2, 21236, Control_c, 0, 64, 56
2, 21250, Control_c, 0, 64, 0
2, 21261, Note_on_c, 0, 62, 0
2, 21262, Note_on_c, 0, 57, 68
2, 21340, Note_on_c, 0, 57, 0
2, 21355, Note_on_c, 0, 54, 63
2, 21410, Control_c, 0, 64, 53
2, 21419, Note_on_c, 0, 54, 0
2, 21420, Note_on_c, 0, 50, 68
2, 21425, Control_c, 0, 64, 64
2, 21428, Note_on_c, 0, 81, 85
2, 21441, Control_c, 0, 64, 66
2, 21453, Note_on_c, 0, 50, 0
2, 21455, Control_c, 0, 64, 68
2, 21471, Control_c, 0, 64, 70
2, 21486, Control_c, 0, 64, 72
2, 21501, Control_c, 0, 64, 74
2, 21514, Note_on_c, 0, 78, 84
2, 21517, Control_c, 0, 64, 76
2, 21546, Note_on_c, 0, 81, 0
2, 21577, Control_c, 0, 64, 75
2, 21592, Note_on_c, 0, 74, 78
2, 21593, Control_c, 0, 64, 71
2, 21608, Control_c, 0, 64, 62
2, 21620, Note_on_c, 0, 78, 0
2, 21623, Control_c, 0, 64, 0
2, 21676, Note_on_c, 0, 62, 63
2, 21678, Note_on_c, 0, 72, 86
2, 21682, Note_on_c, 0, 74, 0
2, 21713, Note_on_c, 0, 62, 0
2, 21758, Note_on_c, 0, 74, 84
2, 21767, Note_on_c, 0, 72, 0
2, 21831, Note_on_c, 0, 78, 84
2, 21838, Note_on_c, 0, 74, 0
2, 21911, Note_on_c, 0, 81, 93
2, 21921, Note_on_c, 0, 50, 62
2, 21951, Note_on_c, 0, 78, 0
2, 21979, Note_on_c, 0, 50, 0
2, 21988, Note_on_c, 0, 55, 60
2, 22052, Note_on_c, 0, 55, 0
2, 22075, Note_on_c, 0, 59, 68
2, 22130, Note_on_c, 0, 59, 0
2, 22168, Note_on_c, 0, 79, 72
2, 22173, Note_on_c, 0, 62, 58
2, 22174, Note_on_c, 0, 81, 0
2, 22209, Control_c, 0, 64, 55
2, 22224, Control_c, 0, 64, 61
2, 22231, Note_on_c, 0, 79, 0
2, 22242, Note_on_c, 0, 59, 60
2, 22242, Note_on_c, 0, 62, 0
2, 22254, Control_c, 0, 64, 61
2, 22270, Control_c, 0, 64, 63
2, 22281, Note_on_c, 0, 59, 0
2, 22285, Control_c, 0, 64, 64
2, 22299, Control_c, 0, 64, 65
2, 22315, Control_c, 0, 64, 65
2, 22318, Note_on_c, 0, 55, 61
2, 22330, Control_c, 0, 64, 66
2, 22375, Note_on_c, 0, 55, 0
2, 22399, Note_on_c, 0, 50, 66
2, 22406, Control_c, 0, 64, 64
2, 22420, Note_on_c, 0, 79, 76
2, 22421, Control_c, 0, 64, 61
2, 22434, Note_on_c, 0, 50, 0
2, 22437, Control_c, 0, 64, 48
2, 22452, Control_c, 0, 64, 0
2, 22502, Note_on_c, 0, 76, 68
2, 22508, Note_on_c, 0, 79, 0
2, 22562, Note_on_c, 0, 76, 0
2, 22563, Note_on_c, 0, 73, 74
2, 22625, Note_on_c, 0, 73, 0
2, 22644, Note_on_c, 0, 69, 73
2, 22651, Note_on_c, 0, 62, 54
2, 22688, Note_on_c, 0, 62, 0
2, 22708, Note_on_c, 0, 69, 0
2, 22717, Note_on_c, 0, 73, 76
2, 22788, Note_on_c, 0, 73, 0
2, 22793, Note_on_c, 0, 76, 70
2, 22869, Note_on_c, 0, 76, 0
2, 22880, Note_on_c, 0, 79, 74
2, 22882, Note_on_c, 0, 50, 50
2, 22925, Note_on_c, 0, 50, 0
2, 22957, Note_on_c, 0, 57, 53
2, 23007, Note_on_c, 0, 57, 0
2, 23053, Note_on_c, 0, 61, 65
2, 23093, Note_on_c, 0, 61, 0
2, 23116, Note_on_c, 0, 79, 0
2, 23126, Note_on_c, 0, 78, 68
2, 23138, Note_on_c, 0, 62, 58
2, 23182, Note_on_c, 0, 78, 0
2, 23185, Note_on_c, 0, 62, 0
2, 23211, Note_on_c, 0, 57, 62
2, 23268, Note_on_c, 0, 57, 0
2, 23286, Note_on_c, 0, 54, 63
2, 23350, Note_on_c, 0, 54, 0
2, 23370, Note_on_c, 0, 50, 61
2, 23373, Note_on_c, 0, 78, 72
2, 23400, Note_on_c, 0, 50, 0
2, 23445, Note_on_c, 0, 78, 0
2, 23455, Note_on_c, 0, 74, 59
2, 23522, Note_on_c, 0, 74, 0
2, 23529, Note_on_c, 0, 71, 62
2, 23599, Note_on_c, 0, 71, 0
2, 23620, Note_on_c, 0, 67, 65
2, 23636, Note_on_c, 0, 62, 44
2, 23658, Note_on_c, 0, 67, 0
2, 23660, Note_on_c, 0, 62, 0
2, 23685, Control_c, 0, 67, 8
2, 23700, Control_c, 0, 67, 14
2, 23702, Note_on_c, 0, 71, 63
2, 23715, Control_c, 0, 67, 25
2, 23730, Control_c, 0, 67, 42
2, 23745, Control_c, 0, 67, 58
2, 23754, Note_on_c, 0, 71, 0
2, 23761, Control_c, 0, 67, 74
2, 23771, Note_on_c, 0, 74, 61
2, 23776, Control_c, 0, 67, 93
2, 23792, Control_c, 0, 67, 119
2, 23806, Control_c, 0, 67, 127
2, 23855, Note_on_c, 0, 74, 0
2, 23860, Note_on_c, 0, 78, 73
2, 23870, Note_on_c, 0, 50, 38
2, 23905, Note_on_c, 0, 50, 0
2, 23928, Note_on_c, 0, 52, 50
2, 23977, Note_on_c, 0, 52, 0
2, 24013, Note_on_c, 0, 55, 47
2, 24051, Note_on_c, 0, 55, 0
2, 24100, Note_on_c, 0, 59, 49
2, 24103, Note_on_c, 0, 78, 0
2, 24109, Note_on_c, 0, 76, 64
2, 24141, Note_on_c, 0, 59, 0
2, 24158, Note_on_c, 0, 55, 54
2, 24158, Note_on_c, 0, 76, 0
2, 24216, Note_on_c, 0, 55, 0
2, 24244, Note_on_c, 0, 52, 51
2, 24301, Note_on_c, 0, 52, 0
2, 24330, Note_on_c, 0, 50, 51
2, 24363, Note_on_c, 0, 50, 0
2, 24367, Note_on_c, 0, 76, 61
2, 24437, Note_on_c, 0, 76, 0
2, 24440, Note_on_c, 0, 73, 64
2, 24508, Note_on_c, 0, 73, 0
2, 24515, Note_on_c, 0, 69, 65
2, 24571, Note_on_c, 0, 69, 0
2, 24593, Note_on_c, 0, 67, 62
2, 24595, Note_on_c, 0, 62, 48
2, 24629, Note_on_c, 0, 62, 0
2, 24637, Note_on_c, 0, 67, 0
2, 24661, Note_on_c, 0, 69, 53
2, 24702, Note_on_c, 0, 69, 0
2, 24726, Note_on_c, 0, 73, 60
2, 24803, Note_on_c, 0, 73, 0
2, 24818, Note_on_c, 0, 76, 57
2, 24825, Note_on_c, 0, 50, 44
2, 24868, Note_on_c, 0, 50, 0
2, 24901, Note_on_c, 0, 54, 41
2, 24964, Note_on_c, 0, 54, 0
2, 24988, Note_on_c, 0, 57, 55
2, 25036, Note_on_c, 0, 57, 0
2, 25036, Note_on_c, 0, 76, 0
2, 25081, Note_on_c, 0, 74, 43
2, 25088, Note_on_c, 0, 62, 52
2, 25127, Note_on_c, 0, 62, 0
2, 25164, Note_on_c, 0, 57, 50
2, 25194, Note_on_c, 0, 57, 0
2, 25237, Note_on_c, 0, 54, 53
2, 25283, Note_on_c, 0, 54, 0
2, 25311, Note_on_c, 0, 57, 50
2, 25329, Note_on_c, 0, 74, 0
2, 25356, Note_on_c, 0, 57, 0
2, 25394, Note_on_c, 0, 54, 57
2, 25443, Note_on_c, 0, 54, 0
2, 25472, Note_on_c, 0, 50, 58
2, 25530, Note_on_c, 0, 50, 0
2, 25556, Note_on_c, 0, 54, 69
2, 25565, Note_on_c, 0, 74, 49
2, 25616, Note_on_c, 0, 54, 0
2, 25632, Note_on_c, 0, 74, 0
2, 25638, Note_on_c, 0, 50, 60
2, 25709, Note_on_c, 0, 48, 63
2, 25721, Note_on_c, 0, 50, 0
2, 25793, Note_on_c, 0, 74, 64
2, 25806, Note_on_c, 0, 47, 56
2, 25806, Note_on_c, 0, 48, 0
2, 25839, Note_on_c, 0, 47, 0
2, 25860, Note_on_c, 0, 50, 53
2, 25866, Note_on_c, 0, 72, 65
2, 25892, Note_on_c, 0, 74, 0
2, 25912, Note_on_c, 0, 50, 0
2, 25930, Note_on_c, 0, 72, 0
2, 25940, Note_on_c, 0, 54, 58
2, 25954, Note_on_c, 0, 71, 74
2, 25978, Note_on_c, 0, 71, 0
2, 25984, Note_on_c, 0, 54, 0
2, 26032, Note_on_c, 0, 55, 59
2, 26050, Note_on_c, 0, 71, 61
2, 26069, Note_on_c, 0, 55, 0
2, 26084, Note_on_c, 0, 71, 0
2, 26103, Note_on_c, 0, 69, 75
2, 26123, Note_on_c, 0, 50, 48
2, 26140, Note_on_c, 0, 69, 0
2, 26152, Note_on_c, 0, 50, 0
2, 26195, Note_on_c, 0, 47, 58
2, 26206, Note_on_c, 0, 67, 74
2, 26236, Note_on_c, 0, 47, 0
2, 26237, Note_on_c, 0, 67, 0
2, 26286, Note_on_c, 0, 50, 59
2, 26309, Note_on_c, 0, 67, 71
2, 26329, Note_on_c, 0, 50, 0
2, 26364, Note_on_c, 0, 47, 68
2, 26373, Note_on_c, 0, 67, 0
2, 26377, Note_on_c, 0, 71, 72
2, 26434, Note_on_c, 0, 71, 0
2, 26438, Note_on_c, 0, 47, 0
2, 26455, Note_on_c, 0, 74, 66
2, 26457, Note_on_c, 0, 43, 64
2, 26510, Note_on_c, 0, 74, 0
2, 26533, Note_on_c, 0, 43, 0
2, 26544, Note_on_c, 0, 77, 72
2, 26545, Note_on_c, 0, 47, 71
2, 26600, Note_on_c, 0, 47, 0
2, 26612, Note_on_c, 0, 77, 0
2, 26615, Note_on_c, 0, 43, 52
2, 26616, Note_on_c, 0, 76, 76
2, 26682, Note_on_c, 0, 76, 0
2, 26686, Note_on_c, 0, 41, 57
2, 26686, Note_on_c, 0, 43, 0
2, 26714, Note_on_c, 0, 74, 75
2, 26752, Note_on_c, 0, 74, 0
2, 26760, Note_on_c, 0, 41, 0
2, 26770, Note_on_c, 0, 40, 60
2, 26803, Note_on_c, 0, 74, 65
2, 26818, Note_on_c, 0, 40, 0
2, 26836, Note_on_c, 0, 43, 53
2, 26868, Note_on_c, 0, 74, 0
2, 26877, Note_on_c, 0, 76, 72
2, 26900, Note_on_c, 0, 43, 0
2, 26922, Note_on_c, 0, 47, 64
2, 26951, Note_on_c, 0, 76, 0
2, 26951, Note_on_c, 0, 77, 67
2, 26968, Note_on_c, 0, 47, 0
2, 27015, Note_on_c, 0, 48, 59
2, 27033, Note_on_c, 0, 76, 62
2, 27033, Note_on_c, 0, 77, 0
2, 27046, Note_on_c, 0, 48, 0
2, 27109, Note_on_c, 0, 52, 65
2, 27167, Control_c, 0, 64, 10
2, 27182, Control_c, 0, 64, 16
2, 27183, Note_on_c, 0, 52, 0
2, 27198, Control_c, 0, 64, 21
2, 27199, Note_on_c, 0, 55, 69
2, 27203, Note_on_c, 0, 76, 0
2, 27212, Control_c, 0, 64, 24
2, 27228, Control_c, 0, 64, 26
2, 27243, Control_c, 0, 64, 27
2, 27246, Note_on_c, 0, 55, 0
2, 27274, Control_c, 0, 64, 28
2, 27288, Note_on_c, 0, 60, 73
2, 27289, Control_c, 0, 64, 29
2, 27304, Control_c, 0, 64, 30
2, 27335, Note_on_c, 0, 60, 0
2, 27361, Note_on_c, 0, 55, 72
2, 27365, Control_c, 0, 64, 29
2, 27430, Note_on_c, 0, 55, 0
2, 27449, Control_c, 0, 64, 28
2, 27449, Note_on_c, 0, 52, 67
2, 27480, Control_c, 0, 64, 38
2, 27495, Control_c, 0, 64, 52
2, 27511, Control_c, 0, 64, 62
2, 27525, Control_c, 0, 64, 65
2, 27527, Note_on_c, 0, 52, 0
2, 27534, Note_on_c, 0, 76, 70
2, 27537, Note_on_c, 0, 55, 72
2, 27540, Control_c, 0, 64, 68
2, 27556, Control_c, 0, 64, 72
2, 27571, Control_c, 0, 64, 76
2, 27586, Control_c, 0, 64, 80
2, 27593, Note_on_c, 0, 76, 0
2, 27601, Control_c, 0, 64, 83
2, 27610, Note_on_c, 0, 55, 0
2, 27616, Control_c, 0, 64, 84
2, 27616, Note_on_c, 0, 52, 68
2, 27632, Control_c, 0, 64, 85
2, 27647, Control_c, 0, 64, 86
2, 27661, Control_c, 0, 64, 87
2, 27677, Control_c, 0, 64, 87
2, 27686, Note_on_c, 0, 52, 0
2, 27701, Note_on_c, 0, 50, 62
2, 27708, Control_c, 0, 64, 88
2, 27723, Control_c, 0, 64, 88
2, 27754, Control_c, 0, 64, 89
2, 27765, Note_on_c, 0, 50, 0
2, 27769, Control_c, 0, 64, 88
2, 27774, Note_on_c, 0, 49, 69
2, 27783, Control_c, 0, 64, 86
2, 27795, Note_on_c, 0, 76, 76
2, 27799, Control_c, 0, 64, 77
2, 27812, Control_c, 0, 64, 62
2, 27823, Note_on_c, 0, 49, 0
2, 27828, Control_c, 0, 64, 0
2, 27854, Note_on_c, 0, 52, 48
2, 27863, Note_on_c, 0, 74, 70
2, 27882, Note_on_c, 0, 76, 0
2, 27900, Note_on_c, 0, 52, 0
2, 27913, Note_on_c, 0, 55, 68
2, 27925, Note_on_c, 0, 74, 0
2, 27946, Note_on_c, 0, 55, 0
2, 27951, Note_on_c, 0, 73, 73
2, 27979, Note_on_c, 0, 73, 0
2, 28006, Note_on_c, 0, 57, 62
2, 28026, Note_on_c, 0, 73, 55
2, 28043, Note_on_c, 0, 57, 0
2, 28057, Note_on_c, 0, 73, 0
2, 28087, Note_on_c, 0, 52, 54
2, 28105, Note_on_c, 0, 71, 54
2, 28114, Note_on_c, 0, 52, 0
2, 28148, Note_on_c, 0, 71, 0
2, 28167, Note_on_c, 0, 49, 67
2, 28200, Note_on_c, 0, 69, 41
2, 28219, Note_on_c, 0, 49, 0
2, 28229, Note_on_c, 0, 69, 0
2, 28265, Note_on_c, 0, 52, 63
2, 28269, Note_on_c, 0, 69, 72
2, 28315, Note_on_c, 0, 69, 0
2, 28327, Note_on_c, 0, 52, 0
2, 28340, Note_on_c, 0, 49, 73
2, 28352, Note_on_c, 0, 73, 77
2, 28411, Note_on_c, 0, 49, 0
2, 28418, Note_on_c, 0, 45, 68
2, 28421, Note_on_c, 0, 76, 77
2, 28426, Note_on_c, 0, 73, 0
2, 28487, Note_on_c, 0, 76, 0
2, 28492, Note_on_c, 0, 45, 0
2, 28492, Note_on_c, 0, 79, 70
2, 28500, Note_on_c, 0, 49, 75
2, 28569, Note_on_c, 0, 49, 0
2, 28569, Note_on_c, 0, 78, 86
2, 28571, Note_on_c, 0, 45, 63
2, 28573, Note_on_c, 0, 79, 0
2, 28624, Note_on_c, 0, 78, 0
2, 28643, Note_on_c, 0, 45, 0
2, 28652, Note_on_c, 0, 43, 60
2, 28664, Note_on_c, 0, 76, 89
2, 28706, Note_on_c, 0, 76, 0
2, 28717, Note_on_c, 0, 43, 0
2, 28723, Note_on_c, 0, 42, 63
2, 28754, Note_on_c, 0, 76, 82
2, 28790, Note_on_c, 0, 42, 0
2, 28790, Note_on_c, 0, 45, 53
2, 28808, Control_c, 0, 64, 16
2, 28823, Control_c, 0, 64, 22
2, 28839, Control_c, 0, 64, 26
2, 28841, Note_on_c, 0, 78, 85
2, 28854, Control_c, 0, 64, 28
2, 28854, Note_on_c, 0, 45, 0
2, 28860, Note_on_c, 0, 49, 67
2, 28870, Control_c, 0, 64, 29
2, 28870, Note_on_c, 0, 76, 0
2, 28885, Control_c, 0, 64, 30
2, 28910, Note_on_c, 0, 49, 0
2, 28910, Note_on_c, 0, 79, 74
2, 28922, Note_on_c, 0, 78, 0
2, 28945, Control_c, 0, 64, 31
2, 28968, Control_c, 0, 64, 32
2, 28968, Note_on_c, 0, 50, 46
2, 28990, Note_on_c, 0, 78, 80
2, 28995, Note_on_c, 0, 50, 0
2, 29000, Note_on_c, 0, 79, 0
2, 29029, Control_c, 0, 64, 31
2, 29043, Note_on_c, 0, 54, 64
2, 29059, Control_c, 0, 64, 30
2, 29090, Control_c, 0, 64, 31
2, 29105, Control_c, 0, 64, 32
2, 29121, Control_c, 0, 64, 33
2, 29134, Note_on_c, 0, 54, 0
2, 29136, Control_c, 0, 64, 34
2, 29137, Note_on_c, 0, 57, 75
2, 29151, Control_c, 0, 64, 34
2, 29166, Control_c, 0, 64, 36
2, 29181, Control_c, 0, 64, 38
2, 29191, Note_on_c, 0, 57, 0
2, 29197, Control_c, 0, 64, 40
2, 29197, Control_c, 0, 67, 111
2, 29212, Control_c, 0, 64, 41
2, 29212, Control_c, 0, 67, 68
2, 29218, Note_on_c, 0, 62, 80
2, 29228, Control_c, 0, 64, 41
2, 29228, Control_c, 0, 67, 17
2, 29243, Control_c, 0, 67, 0
2, 29257, Control_c, 0, 64, 41
2, 29266, Note_on_c, 0, 62, 0
2, 29273, Control_c, 0, 64, 39
2, 29288, Control_c, 0, 64, 38
2, 29291, Note_on_c, 0, 57, 71
2, 29303, Control_c, 0, 64, 37
2, 29334, Control_c, 0, 64, 36
2, 29348, Note_on_c, 0, 57, 0
2, 29349, Control_c, 0, 64, 36
2, 29367, Note_on_c, 0, 54, 63
2, 29395, Control_c, 0, 64, 33
2, 29410, Control_c, 0, 64, 0
2, 29435, Note_on_c, 0, 54, 0
2, 29444, Note_on_c, 0, 78, 0
2, 29453, Note_on_c, 0, 57, 71
2, 29454, Note_on_c, 0, 81, 88
2, 29485, Control_c, 0, 64, 50
2, 29500, Control_c, 0, 64, 64
2, 29511, Note_on_c, 0, 57, 0
2, 29516, Control_c, 0, 64, 68
2, 29521, Note_on_c, 0, 81, 0
2, 29528, Note_on_c, 0, 54, 72
2, 29531, Control_c, 0, 64, 72
2, 29545, Control_c, 0, 64, 76
2, 29561, Control_c, 0, 64, 79
2, 29576, Control_c, 0, 64, 80
2, 29592, Control_c, 0, 64, 81
2, 29604, Note_on_c, 0, 54, 0
2, 29607, Control_c, 0, 64, 82
2, 29612, Note_on_c, 0, 50, 74
2, 29621, Control_c, 0, 64, 83
2, 29637, Control_c, 0, 64, 84
2, 29683, Control_c, 0, 64, 81
2, 29688, Note_on_c, 0, 50, 0
2, 29692, Note_on_c, 0, 54, 81
2, 29692, Note_on_c, 0, 81, 85
2, 29698, Control_c, 0, 64, 74
2, 29714, Control_c, 0, 64, 62
2, 29736, Control_c, 0, 64, 0
2, 29770, Note_on_c, 0, 79, 79
2, 29771, Note_on_c, 0, 54, 0
2, 29781, Note_on_c, 0, 50, 63
2, 29792, Note_on_c, 0, 81, 0
2, 29836, Note_on_c, 0, 79, 0
2, 29844, Note_on_c, 0, 50, 0
2, 29848, Note_on_c, 0, 78, 81
2, 29857, Note_on_c, 0, 45, 56
2, 29885, Note_on_c, 0, 78, 0
2, 29910, Note_on_c, 0, 45, 0
2, 29929, Note_on_c, 0, 78, 67
2, 29945, Note_on_c, 0, 50, 65
2, 29985, Note_on_c, 0, 78, 0
2, 29988, Note_on_c, 0, 50, 0
2, 30004, Note_on_c, 0, 76, 84
2, 30005, Note_on_c, 0, 45, 75
2, 30053, Note_on_c, 0, 76, 0
2, 30071, Control_c, 0, 64, 38
2, 30073, Note_on_c, 0, 45, 0
2, 30083, Note_on_c, 0, 42, 72
2, 30086, Control_c, 0, 64, 0
2, 30095, Note_on_c, 0, 74, 85
2, 30141, Note_on_c, 0, 74, 0
2, 30148, Note_on_c, 0, 42, 0
2, 30172, Note_on_c, 0, 38, 93
2, 30200, Note_on_c, 0, 74, 84
2, 30209, Note_on_c, 0, 38, 0
2, 30278, Note_on_c, 0, 78, 80
2, 30313, Note_on_c, 0, 74, 0
2, 30343, Note_on_c, 0, 81, 82
2, 30358, Note_on_c, 0, 78, 0
2, 30412, Note_on_c, 0, 81, 0
2, 30430, Note_on_c, 0, 50, 89
2, 30434, Note_on_c, 0, 84, 83
2, 30465, Note_on_c, 0, 50, 0
2, 30526, Note_on_c, 0, 83, 90
2, 30535, Note_on_c, 0, 84, 0
2, 30592, Note_on_c, 0, 83, 0
2, 30616, Note_on_c, 0, 81, 94
2, 30668, Note_on_c, 0, 81, 0
2, 30696, Note_on_c, 0, 43, 89
2, 30721, Note_on_c, 0, 81, 92
2, 30764, Control_c, 0, 64, 66
2, 30779, Control_c, 0, 64, 71
2, 30795, Control_c, 0, 64, 70
2, 30810, Control_c, 0, 64, 69
2, 30810, Note_on_c, 0, 83, 86
2, 30824, Control_c, 0, 64, 68
2, 30824, Note_on_c, 0, 81, 0
2, 30878, Note_on_c, 0, 84, 84
2, 30890, Note_on_c, 0, 83, 0
2, 30961, Control_c, 0, 64, 68
2, 30967, Note_on_c, 0, 83, 85
2, 30976, Control_c, 0, 64, 65
2, 30992, Control_c, 0, 64, 59
2, 30998, Note_on_c, 0, 84, 0
2, 31007, Control_c, 0, 64, 50
2, 31022, Control_c, 0, 64, 55
2, 31037, Control_c, 0, 64, 63
2, 31052, Control_c, 0, 64, 67
2, 31055, Note_on_c, 0, 47, 73
2, 31068, Control_c, 0, 64, 70
2, 31072, Note_on_c, 0, 43, 0
2, 31083, Control_c, 0, 64, 72
2, 31098, Control_c, 0, 64, 74
2, 31114, Control_c, 0, 64, 76
2, 31117, Note_on_c, 0, 47, 0
2, 31129, Control_c, 0, 64, 77
2, 31142, Note_on_c, 0, 50, 62
2, 31144, Control_c, 0, 64, 78
2, 31159, Control_c, 0, 64, 78
2, 31172, Note_on_c, 0, 50, 0
2, 31174, Control_c, 0, 64, 79
2, 31226, Note_on_c, 0, 55, 75
2, 31285, Note_on_c, 0, 55, 0
2, 31306, Note_on_c, 0, 81, 79
2, 31315, Note_on_c, 0, 83, 0
2, 31319, Control_c, 0, 64, 77
2, 31325, Note_on_c, 0, 57, 79
2, 31333, Control_c, 0, 64, 73
2, 31349, Control_c, 0, 64, 68
2, 31364, Control_c, 0, 64, 57
2, 31367, Note_on_c, 0, 57, 0
2, 31367, Note_on_c, 0, 81, 0
2, 31379, Control_c, 0, 64, 0
2, 31392, Note_on_c, 0, 79, 70
2, 31410, Note_on_c, 0, 59, 48
2, 31416, Note_on_c, 0, 79, 0
2, 31435, Note_on_c, 0, 59, 0
2, 31478, Note_on_c, 0, 77, 82
2, 31482, Note_on_c, 0, 59, 75
2, 31557, Note_on_c, 0, 76, 79
2, 31558, Note_on_c, 0, 77, 0
2, 31560, Note_on_c, 0, 60, 76
2, 31561, Note_on_c, 0, 59, 0
2, 31624, Note_on_c, 0, 60, 0
2, 31624, Note_on_c, 0, 76, 0
2, 31628, Note_on_c, 0, 62, 78
2, 31628, Note_on_c, 0, 74, 79
2, 31685, Note_on_c, 0, 62, 0
2, 31686, Note_on_c, 0, 74, 0
2, 31701, Note_on_c, 0, 64, 91
2, 31708, Note_on_c, 0, 72, 79
2, 31748, Note_on_c, 0, 64, 0
2, 31759, Control_c, 0, 64, 46
2, 31774, Control_c, 0, 64, 53
2, 31777, Note_on_c, 0, 72, 0
2, 31790, Control_c, 0, 64, 56
2, 31796, Note_on_c, 0, 76, 69
2, 31805, Control_c, 0, 64, 58
2, 31819, Control_c, 0, 64, 61
2, 31835, Control_c, 0, 64, 62
2, 31850, Control_c, 0, 64, 63
2, 31865, Control_c, 0, 64, 63
2, 31865, Note_on_c, 0, 76, 0
2, 31882, Note_on_c, 0, 79, 79
2, 31926, Control_c, 0, 64, 62
2, 31941, Control_c, 0, 64, 54
2, 31957, Control_c, 0, 64, 0
2, 31959, Note_on_c, 0, 60, 70
2, 31975, Note_on_c, 0, 81, 82
2, 31978, Note_on_c, 0, 79, 0
2, 32009, Note_on_c, 0, 60, 0
2, 32043, Note_on_c, 0, 57, 64
2, 32050, Note_on_c, 0, 78, 76
2, 32075, Note_on_c, 0, 81, 0
2, 32117, Note_on_c, 0, 57, 0
2, 32122, Note_on_c, 0, 78, 0
2, 32128, Note_on_c, 0, 74, 73
2, 32132, Note_on_c, 0, 54, 67
2, 32193, Note_on_c, 0, 74, 0
2, 32204, Note_on_c, 0, 62, 76
2, 32208, Note_on_c, 0, 54, 0
2, 32211, Note_on_c, 0, 71, 75
2, 32238, Control_c, 0, 64, 46
2, 32244, Note_on_c, 0, 62, 0
2, 32253, Control_c, 0, 64, 56
2, 32268, Control_c, 0, 64, 58
2, 32283, Control_c, 0, 64, 59
2, 32289, Note_on_c, 0, 71, 0
2, 32290, Note_on_c, 0, 74, 71
2, 32298, Control_c, 0, 64, 60
2, 32314, Control_c, 0, 64, 60
2, 32329, Control_c, 0, 64, 61
2, 32354, Note_on_c, 0, 74, 0
2, 32368, Note_on_c, 0, 78, 72
2, 32375, Control_c, 0, 64, 60
2, 32391, Control_c, 0, 64, 57
2, 32406, Control_c, 0, 64, 47
2, 32421, Control_c, 0, 64, 0
2, 32442, Note_on_c, 0, 78, 0
2, 32463, Note_on_c, 0, 79, 73
2, 32471, Note_on_c, 0, 59, 61
2, 32508, Note_on_c, 0, 59, 0
2, 32541, Note_on_c, 0, 79, 0
2, 32543, Note_on_c, 0, 76, 70
2, 32544, Note_on_c, 0, 55, 61
2, 32591, Note_on_c, 0, 55, 0
2, 32605, Note_on_c, 0, 52, 52
2, 32611, Note_on_c, 0, 76, 0
2, 32617, Note_on_c, 0, 72, 73
2, 32660, Note_on_c, 0, 52, 0
2, 32676, Note_on_c, 0, 72, 0
2, 32683, Note_on_c, 0, 60, 72
2, 32697, Note_on_c, 0, 69, 71
2, 32710, Note_on_c, 0, 60, 0
2, 32740, Control_c, 0, 67, 9
2, 32756, Control_c, 0, 67, 19
2, 32762, Note_on_c, 0, 69, 0
2, 32770, Control_c, 0, 67, 39
2, 32772, Note_on_c, 0, 72, 64
2, 32785, Control_c, 0, 67, 69
2, 32808, Control_c, 0, 67, 103
2, 32823, Control_c, 0, 67, 127
2, 32838, Note_on_c, 0, 72, 0
2, 32847, Note_on_c, 0, 76, 65
2, 32928, Note_on_c, 0, 76, 0
2, 32929, Note_on_c, 0, 78, 76
2, 32945, Note_on_c, 0, 57, 61
2, 32977, Note_on_c, 0, 57, 0
2, 32994, Note_on_c, 0, 78, 0
2, 33003, Note_on_c, 0, 54, 61
2, 33010, Note_on_c, 0, 74, 59
2, 33076, Note_on_c, 0, 74, 0
2, 33078, Note_on_c, 0, 54, 0
2, 33083, Note_on_c, 0, 71, 66
2, 33101, Note_on_c, 0, 50, 43
2, 33122, Note_on_c, 0, 71, 0
2, 33143, Note_on_c, 0, 50, 0
2, 33167, Note_on_c, 0, 59, 67
2, 33171, Note_on_c, 0, 67, 67
2, 33199, Note_on_c, 0, 59, 0
2, 33205, Note_on_c, 0, 67, 0
2, 33242, Note_on_c, 0, 71, 69
2, 33304, Note_on_c, 0, 71, 0
2, 33324, Note_on_c, 0, 74, 70
2, 33404, Note_on_c, 0, 74, 0
2, 33405, Note_on_c, 0, 76, 69
2, 33428, Note_on_c, 0, 55, 62
2, 33463, Note_on_c, 0, 72, 68
2, 33466, Note_on_c, 0, 76, 0
2, 33468, Note_on_c, 0, 55, 0
2, 33497, Note_on_c, 0, 52, 59
2, 33523, Control_c, 0, 64, 18
2, 33528, Note_on_c, 0, 72, 0
2, 33536, Note_on_c, 0, 69, 73
2, 33538, Control_c, 0, 64, 24
2, 33554, Control_c, 0, 64, 28
2, 33576, Control_c, 0, 64, 30
2, 33576, Note_on_c, 0, 48, 59
2, 33578, Note_on_c, 0, 52, 0
2, 33592, Control_c, 0, 64, 32
2, 33607, Control_c, 0, 64, 33
2, 33616, Note_on_c, 0, 69, 0
2, 33621, Control_c, 0, 64, 34
2, 33634, Note_on_c, 0, 66, 71
2, 33637, Control_c, 0, 64, 36
2, 33639, Note_on_c, 0, 48, 0
2, 33652, Control_c, 0, 64, 37
2, 33652, Note_on_c, 0, 57, 73
2, 33666, Note_on_c, 0, 66, 0
2, 33687, Note_on_c, 0, 57, 0
2, 33711, Note_on_c, 0, 69, 66
2, 33773, Note_on_c, 0, 69, 0
2, 33799, Note_on_c, 0, 72, 72
2, 33835, Control_c, 0, 64, 38
2, 33875, Note_on_c, 0, 72, 0
2, 33879, Note_on_c, 0, 74, 70
2, 33884, Note_on_c, 0, 54, 65
2, 33911, Control_c, 0, 64, 38
2, 33929, Note_on_c, 0, 54, 0
2, 33958, Note_on_c, 0, 71, 64
2, 33963, Note_on_c, 0, 50, 52
2, 33964, Note_on_c, 0, 74, 0
2, 34003, Control_c, 0, 64, 39
2, 34024, Note_on_c, 0, 50, 0
2, 34028, Note_on_c, 0, 67, 71
2, 34032, Note_on_c, 0, 71, 0
2, 34034, Control_c, 0, 64, 39
2, 34035, Note_on_c, 0, 47, 66
2, 34090, Note_on_c, 0, 67, 0
2, 34103, Note_on_c, 0, 55, 70
2, 34110, Control_c, 0, 64, 40
2, 34110, Note_on_c, 0, 47, 0
2, 34113, Note_on_c, 0, 64, 66
2, 34125, Control_c, 0, 64, 40
2, 34140, Control_c, 0, 64, 42
2, 34146, Note_on_c, 0, 55, 0
2, 34156, Control_c, 0, 64, 43
2, 34171, Control_c, 0, 64, 44
2, 34179, Note_on_c, 0, 64, 0
2, 34191, Note_on_c, 0, 67, 72
2, 34201, Control_c, 0, 64, 45
2, 34247, Control_c, 0, 64, 45
2, 34250, Note_on_c, 0, 67, 0
2, 34261, Control_c, 0, 64, 46
2, 34272, Note_on_c, 0, 71, 71
2, 34277, Control_c, 0, 64, 47
2, 34308, Control_c, 0, 64, 47
2, 34362, Note_on_c, 0, 72, 69
2, 34363, Note_on_c, 0, 52, 61
2, 34364, Note_on_c, 0, 71, 0
2, 34397, Note_on_c, 0, 52, 0
2, 34424, Note_on_c, 0, 69, 66
2, 34425, Note_on_c, 0, 48, 61
2, 34431, Note_on_c, 0, 72, 0
2, 34452, Control_c, 0, 64, 47
2, 34476, Note_on_c, 0, 48, 0
2, 34482, Control_c, 0, 64, 47
2, 34483, Note_on_c, 0, 69, 0
2, 34488, Note_on_c, 0, 45, 53
2, 34490, Note_on_c, 0, 66, 78
2, 34549, Note_on_c, 0, 66, 0
2, 34562, Note_on_c, 0, 45, 0
2, 34573, Control_c, 0, 64, 48
2, 34575, Note_on_c, 0, 62, 76
2, 34585, Note_on_c, 0, 54, 70
2, 34588, Control_c, 0, 64, 48
2, 34603, Control_c, 0, 64, 49
2, 34618, Control_c, 0, 64, 49
2, 34622, Note_on_c, 0, 54, 0
2, 34653, Note_on_c, 0, 66, 81
2, 34655, Note_on_c, 0, 62, 0
2, 34663, Control_c, 0, 64, 50
2, 34715, Note_on_c, 0, 66, 0
2, 34732, Note_on_c, 0, 69, 73
2, 34770, Control_c, 0, 64, 49
2, 34801, Control_c, 0, 64, 49
2, 34814, Note_on_c, 0, 69, 0
2, 34816, Control_c, 0, 64, 48
2, 34816, Note_on_c, 0, 71, 66
2, 34819, Note_on_c, 0, 50, 68
2, 34832, Control_c, 0, 64, 47
2, 34847, Control_c, 0, 64, 47
2, 34862, Control_c, 0, 64, 46
2, 34877, Note_on_c, 0, 50, 0
2, 34884, Note_on_c, 0, 67, 69
2, 34893, Note_on_c, 0, 71, 0
2, 34898, Note_on_c, 0, 47, 64
2, 34954, Note_on_c, 0, 64, 77
2, 34954, Note_on_c, 0, 67, 0
2, 34981, Note_on_c, 0, 47, 0
2, 34982, Note_on_c, 0, 43, 65
2, 34984, Control_c, 0, 64, 47
2, 35000, Control_c, 0, 64, 47
2, 35020, Note_on_c, 0, 64, 0
2, 35033, Note_on_c, 0, 52, 73
2, 35034, Note_on_c, 0, 60, 73
2, 35045, Control_c, 0, 64, 48
2, 35049, Note_on_c, 0, 43, 0
2, 35091, Control_c, 0, 64, 48
2, 35119, Note_on_c, 0, 64, 74
2, 35125, Note_on_c, 0, 60, 0
2, 35126, Note_on_c, 0, 48, 73
2, 35143, Control_c, 0, 64, 49
2, 35143, Note_on_c, 0, 52, 0
2, 35159, Control_c, 0, 64, 49
2, 35173, Control_c, 0, 64, 50
2, 35184, Note_on_c, 0, 67, 72
2, 35188, Note_on_c, 0, 64, 0
2, 35189, Control_c, 0, 64, 51
2, 35190, Note_on_c, 0, 48, 0
2, 35204, Control_c, 0, 64, 52
2, 35210, Note_on_c, 0, 45, 64
2, 35219, Control_c, 0, 64, 53
2, 35235, Control_c, 0, 64, 53
2, 35265, Control_c, 0, 64, 54
2, 35270, Note_on_c, 0, 69, 80
2, 35272, Note_on_c, 0, 67, 0
2, 35279, Note_on_c, 0, 54, 75
2, 35281, Control_c, 0, 64, 54
2, 35296, Control_c, 0, 64, 55
2, 35340, Note_on_c, 0, 54, 0
2, 35340, Note_on_c, 0, 66, 78
2, 35341, Control_c, 0, 64, 54
2, 35346, Note_on_c, 0, 50, 75
2, 35358, Note_on_c, 0, 45, 0
2, 35370, Note_on_c, 0, 69, 0
2, 35371, Control_c, 0, 64, 54
2, 35402, Control_c, 0, 64, 53
2, 35417, Control_c, 0, 64, 53
2, 35418, Note_on_c, 0, 62, 78
2, 35421, Note_on_c, 0, 47, 74
2, 35424, Note_on_c, 0, 66, 0
2, 35432, Control_c, 0, 64, 50
2, 35447, Control_c, 0, 64, 44
2, 35462, Control_c, 0, 64, 38
2, 35466, Note_on_c, 0, 50, 0
2, 35478, Control_c, 0, 64, 37
2, 35492, Control_c, 0, 64, 36
2, 35504, Note_on_c, 0, 62, 0
2, 35506, Control_c, 0, 64, 27
2, 35508, Note_on_c, 0, 59, 78
2, 35511, Note_on_c, 0, 47, 0
2, 35516, Note_on_c, 0, 55, 89
2, 35522, Control_c, 0, 64, 0
2, 35586, Note_on_c, 0, 59, 0
2, 35592, Note_on_c, 0, 62, 74
2, 35656, Note_on_c, 0, 62, 0
2, 35669, Note_on_c, 0, 66, 74
2, 35739, Note_on_c, 0, 55, 0
2, 35758, Note_on_c, 0, 52, 87
2, 35759, Note_on_c, 0, 66, 0
2, 35761, Note_on_c, 0, 67, 74
2, 35793, Note_on_c, 0, 52, 0
2, 35842, Note_on_c, 0, 64, 74
2, 35852, Note_on_c, 0, 67, 0
2, 35924, Note_on_c, 0, 64, 0
2, 35932, Note_on_c, 0, 60, 68
2, 36008, Note_on_c, 0, 60, 0
2, 36016, Note_on_c, 0, 57, 75
2, 36018, Note_on_c, 0, 48, 88
2, 36050, Note_on_c, 0, 48, 0
2, 36082, Note_on_c, 0, 57, 0
2, 36108, Note_on_c, 0, 60, 70
2, 36167, Note_on_c, 0, 60, 0
2, 36180, Note_on_c, 0, 64, 68
2, 36274, Note_on_c, 0, 66, 84
2, 36280, Note_on_c, 0, 50, 89
2, 36301, Note_on_c, 0, 64, 0
2, 36334, Note_on_c, 0, 50, 0
2, 36376, Note_on_c, 0, 62, 76
2, 36394, Note_on_c, 0, 66, 0
2, 36461, Note_on_c, 0, 60, 79
2, 36486, Note_on_c, 0, 62, 0
2, 36522, Note_on_c, 0, 60, 0
2, 36534, Control_c, 0, 64, 16
2, 36550, Control_c, 0, 64, 22
2, 36565, Control_c, 0, 64, 26
2, 36580, Control_c, 0, 64, 28
2, 36596, Control_c, 0, 64, 29
2, 36620, Note_on_c, 0, 43, 65
2, 36670, Note_on_c, 0, 59, 46
2, 36694, Control_c, 0, 64, 28
2, 36698, Note_on_c, 0, 62, 74
2, 36710, Control_c, 0, 64, 26
2, 36739, Control_c, 0, 64, 25
2, 36755, Control_c, 0, 64, 13
2, 36757, Note_on_c, 0, 67, 83
2, 36769, Control_c, 0, 64, 0
2, 37592, Note_on_c, 0, 62, 0
2, 37593, Note_on_c, 0, 43, 0
2, 37595, Note_on_c, 0, 59, 0
2, 37644, Note_on_c, 0, 67, 0
2, 39173,End_track
0, 0, End_of_file
