0, 0, Header, 1, 2, 384
1, 0, Start_track
1, 0, Tempo, 500000
1, 0, Time_signature, 4, 2, 24, 8
1, 1, End_track
2,0,Start_track
2,0, Note_on_c, 0, 67, 67
2,46, Note_on_c, 0, 67, 0
2,257, Note_on_c, 0, 69, 64
2,355, Note_on_c, 0, 69, 0
2,373, Note_on_c, 0, 67, 63
2,456, Note_on_c, 0, 67, 0
2,493, Note_on_c, 0, 66, 71
2,580, Note_on_c, 0, 66, 0
2,618, Note_on_c, 0, 67, 67
2,670, Note_on_c, 0, 67, 0
2,768, Note_on_c, 0, 69, 73
2,835, Note_on_c, 0, 69, 0
2,1030, Note_on_c, 0, 71, 63
2,1124, Note_on_c, 0, 69, 70
2,1128, Note_on_c, 0, 71, 0
2,1199, Note_on_c, 0, 69, 0
2,1242, Note_on_c, 0, 67, 73
2,1319, Note_on_c, 0, 67, 0
2,1358, Note_on_c, 0, 69, 73
2,1414, Note_on_c, 0, 69, 0
2,1505, Note_on_c, 0, 71, 77
2,1752, Note_on_c, 0, 69, 73
2,1775, Note_on_c, 0, 71, 0
2,1807, Note_on_c, 0, 69, 0
2,1994, Note_on_c, 0, 67, 71
2,2051, Note_on_c, 0, 67, 0
2,2262, Note_on_c, 0, 62, 64
2,2536, Note_on_c, 0, 72, 65
2,2565, Note_on_c, 0, 62, 0
2,3088, Note_on_c, 0, 71, 66
2,3094, Note_on_c, 0, 72, 0
2,3326, Note_on_c, 0, 69, 70
2,3337, Note_on_c, 0, 71, 0
2,3365, Note_on_c, 0, 69, 0
2,3567, Note_on_c, 0, 67, 68
2,3623, Note_on_c, 0, 67, 0
2,3824, Note_on_c, 0, 66, 67
2,4117, Note_on_c, 0, 76, 67
2,4153, Note_on_c, 0, 66, 0
2,4588, Note_on_c, 0, 76, 0
2,4620, Note_on_c, 0, 74, 63
2,4673, Note_on_c, 0, 74, 0
2,4894, Note_on_c, 0, 76, 63
2,4980, Note_on_c, 0, 76, 0
2,4996, Note_on_c, 0, 74, 62
2,5075, Note_on_c, 0, 74, 0
2,5110, Note_on_c, 0, 72, 61
2,5164, Note_on_c, 0, 72, 0
2,5222, Note_on_c, 0, 71, 57
2,5259, Note_on_c, 0, 71, 0
2,5342, Note_on_c, 0, 69, 67
2,5390, Note_on_c, 0, 69, 0
2,5601, Note_on_c, 0, 72, 61
2,5689, Note_on_c, 0, 72, 0
2,5709, Note_on_c, 0, 71, 67
2,5785, Note_on_c, 0, 71, 0
2,5826, Note_on_c, 0, 69, 67
2,5874, Note_on_c, 0, 69, 0
2,5943, Note_on_c, 0, 67, 60
2,5999, Note_on_c, 0, 67, 0
2,6067, Note_on_c, 0, 66, 69
2,6069, Note_on_c, 0, 62, 75
2,6134, Note_on_c, 0, 62, 0
2,6298, Note_on_c, 0, 66, 0
2,6310, Note_on_c, 0, 64, 71
2,6317, Note_on_c, 0, 67, 67
2,6359, Note_on_c, 0, 67, 0
2,6385, Note_on_c, 0, 64, 0
2,6414, Note_on_c, 0, 62, 73
2,6480, Note_on_c, 0, 62, 0
2,6519, Note_on_c, 0, 61, 73
2,6540, Note_on_c, 0, 69, 69
2,6574, Note_on_c, 0, 69, 0
2,6591, Note_on_c, 0, 61, 0
2,6620, Note_on_c, 0, 62, 82
2,6694, Note_on_c, 0, 62, 0
2,6757, Note_on_c, 0, 64, 76
2,6765, Note_on_c, 0, 67, 68
2,6817, Note_on_c, 0, 64, 0
2,6994, Note_on_c, 0, 67, 0
2,6996, Note_on_c, 0, 66, 70
2,7002, Note_on_c, 0, 69, 68
2,7030, Note_on_c, 0, 69, 0
2,7063, Note_on_c, 0, 66, 0
2,7092, Note_on_c, 0, 64, 69
2,7175, Note_on_c, 0, 64, 0
2,7209, Note_on_c, 0, 62, 73
2,7230, Note_on_c, 0, 71, 65
2,7258, Note_on_c, 0, 71, 0
2,7305, Note_on_c, 0, 62, 0
2,7316, Note_on_c, 0, 64, 72
2,7411, Note_on_c, 0, 64, 0
2,7448, Note_on_c, 0, 66, 77
2,7454, Note_on_c, 0, 69, 68
2,7503, Note_on_c, 0, 69, 0
2,7688, Note_on_c, 0, 66, 0
2,7696, Note_on_c, 0, 71, 67
2,7707, Note_on_c, 0, 64, 61
2,7735, Note_on_c, 0, 64, 0
2,7750, Note_on_c, 0, 71, 0
2,7814, Note_on_c, 0, 73, 60
2,7928, Note_on_c, 0, 62, 72
2,7930, Note_on_c, 0, 74, 59
2,7931, Note_on_c, 0, 73, 0
2,7968, Note_on_c, 0, 62, 0
2,8008, Note_on_c, 0, 74, 0
2,8026, Note_on_c, 0, 71, 58
2,8103, Note_on_c, 0, 71, 0
2,8143, Note_on_c, 0, 57, 68
2,8146, Note_on_c, 0, 73, 65
2,8225, Note_on_c, 0, 73, 0
2,8264, Note_on_c, 0, 71, 60
2,8369, Note_on_c, 0, 71, 0
2,8384, Note_on_c, 0, 67, 74
2,8389, Note_on_c, 0, 73, 66
2,8399, Note_on_c, 0, 57, 0
2,8454, Note_on_c, 0, 73, 0
2,8499, Note_on_c, 0, 74, 60
2,8572, Note_on_c, 0, 74, 0
2,8613, Note_on_c, 0, 76, 59
2,8696, Note_on_c, 0, 76, 0
2,8723, Note_on_c, 0, 73, 65
2,8816, Note_on_c, 0, 73, 0
2,8832, Note_on_c, 0, 67, 0
2,8838, Note_on_c, 0, 66, 67
2,8854, Note_on_c, 0, 74, 67
2,8960, Note_on_c, 0, 73, 69
2,8964, Note_on_c, 0, 74, 0
2,9043, Note_on_c, 0, 73, 0
2,9060, Note_on_c, 0, 66, 0
2,9086, Note_on_c, 0, 64, 69
2,9089, Note_on_c, 0, 74, 68
2,9118, Note_on_c, 0, 64, 0
2,9160, Note_on_c, 0, 74, 0
2,9196, Note_on_c, 0, 76, 72
2,9263, Note_on_c, 0, 76, 0
2,9312, Note_on_c, 0, 62, 74
2,9315, Note_on_c, 0, 78, 75
2,9353, Note_on_c, 0, 62, 0
2,9393, Note_on_c, 0, 78, 0
2,9412, Note_on_c, 0, 74, 67
2,9532, Note_on_c, 0, 74, 0
2,9544, Note_on_c, 0, 61, 72
2,9561, Note_on_c, 0, 76, 64
2,9640, Note_on_c, 0, 76, 0
2,9680, Note_on_c, 0, 74, 59
2,9825, Note_on_c, 0, 71, 70
2,9829, Note_on_c, 0, 74, 0
2,9835, Note_on_c, 0, 76, 68
2,9850, Note_on_c, 0, 61, 0
2,9920, Note_on_c, 0, 76, 0
2,9947, Note_on_c, 0, 78, 71
2,10048, Note_on_c, 0, 78, 0
2,10059, Note_on_c, 0, 79, 68
2,10148, Note_on_c, 0, 79, 0
2,10157, Note_on_c, 0, 76, 80
2,10212, Note_on_c, 0, 76, 0
2,10250, Note_on_c, 0, 71, 0
2,10282, Note_on_c, 0, 69, 62
2,10282, Note_on_c, 0, 78, 82
2,10353, Note_on_c, 0, 78, 0
2,10366, Note_on_c, 0, 69, 0
2,10461, Control_c, 0, 64, 10
2,10476, Control_c, 0, 64, 19
2,10491, Control_c, 0, 64, 21
2,10545, Control_c, 0, 64, 18
2,10549, Note_on_c, 0, 79, 75
2,10560, Control_c, 0, 64, 10
2,10572, Note_on_c, 0, 71, 56
2,10575, Control_c, 0, 64, 0
2,10637, Note_on_c, 0, 71, 0
2,10649, Note_on_c, 0, 79, 0
2,10656, Note_on_c, 0, 78, 83
2,10660, Note_on_c, 0, 69, 67
2,10714, Note_on_c, 0, 69, 0
2,10745, Note_on_c, 0, 78, 0
2,10779, Note_on_c, 0, 76, 72
2,10787, Note_on_c, 0, 67, 58
2,10827, Note_on_c, 0, 76, 0
2,10857, Note_on_c, 0, 67, 0
2,10873, Note_on_c, 0, 74, 74
2,10887, Note_on_c, 0, 66, 52
2,10943, Note_on_c, 0, 74, 0
2,10955, Note_on_c, 0, 66, 0
2,11007, Note_on_c, 0, 79, 79
2,11019, Note_on_c, 0, 64, 46
2,11061, Control_c, 0, 64, 32
2,11077, Control_c, 0, 64, 48
2,11092, Control_c, 0, 64, 55
2,11108, Control_c, 0, 64, 58
2,11117, Note_on_c, 0, 64, 0
2,11123, Control_c, 0, 64, 59
2,11137, Control_c, 0, 64, 60
2,11153, Control_c, 0, 64, 60
2,11168, Control_c, 0, 64, 61
2,11199, Control_c, 0, 64, 61
2,11245, Control_c, 0, 64, 61
2,11260, Control_c, 0, 64, 60
2,11264, Note_on_c, 0, 67, 64
2,11276, Control_c, 0, 64, 59
2,11298, Control_c, 0, 64, 57
2,11314, Control_c, 0, 64, 53
2,11328, Control_c, 0, 64, 46
2,11344, Control_c, 0, 64, 35
2,11356, Note_on_c, 0, 67, 0
2,11359, Control_c, 0, 64, 22
2,11372, Note_on_c, 0, 66, 66
2,11373, Control_c, 0, 64, 0
2,11456, Note_on_c, 0, 66, 0
2,11503, Note_on_c, 0, 64, 58
2,11580, Note_on_c, 0, 64, 0
2,11618, Note_on_c, 0, 62, 46
2,11677, Control_c, 0, 64, 10
2,11691, Control_c, 0, 64, 13
2,11700, Note_on_c, 0, 62, 0
2,11728, Note_on_c, 0, 61, 52
2,11737, Control_c, 0, 64, 16
2,11784, Control_c, 0, 64, 18
2,11814, Control_c, 0, 64, 19
2,11823, Note_on_c, 0, 78, 65
2,11826, Note_on_c, 0, 79, 0
2,11859, Control_c, 0, 64, 21
2,11905, Control_c, 0, 64, 22
2,11908, Note_on_c, 0, 61, 0
2,11914, Note_on_c, 0, 78, 0
2,11920, Control_c, 0, 64, 24
2,11946, Note_on_c, 0, 67, 58
2,11948, Note_on_c, 0, 76, 65
2,11997, Note_on_c, 0, 67, 0
2,12015, Note_on_c, 0, 76, 0
2,12028, Control_c, 0, 64, 25
2,12068, Note_on_c, 0, 79, 62
2,12095, Control_c, 0, 64, 26
2,12109, Note_on_c, 0, 79, 0
2,12169, Note_on_c, 0, 66, 69
2,12171, Control_c, 0, 64, 27
2,12177, Note_on_c, 0, 74, 70
2,12211, Note_on_c, 0, 66, 0
2,12230, Note_on_c, 0, 74, 0
2,12233, Control_c, 0, 64, 26
2,12279, Control_c, 0, 64, 27
2,12286, Note_on_c, 0, 79, 67
2,12338, Control_c, 0, 64, 28
2,12345, Note_on_c, 0, 79, 0
2,12396, Note_on_c, 0, 73, 79
2,12400, Note_on_c, 0, 64, 63
2,12430, Control_c, 0, 64, 29
2,12529, Note_on_c, 0, 79, 61
2,12584, Note_on_c, 0, 73, 0
2,12606, Note_on_c, 0, 64, 0
2,12612, Control_c, 0, 64, 28
2,12615, Note_on_c, 0, 79, 0
2,12628, Control_c, 0, 64, 27
2,12631, Note_on_c, 0, 62, 51
2,12639, Note_on_c, 0, 71, 69
2,12657, Control_c, 0, 64, 26
2,12680, Note_on_c, 0, 62, 0
2,12688, Control_c, 0, 64, 25
2,12712, Note_on_c, 0, 71, 0
2,12719, Control_c, 0, 64, 24
2,12753, Note_on_c, 0, 79, 66
2,12802, Note_on_c, 0, 79, 0
2,12832, Control_c, 0, 64, 22
2,12878, Note_on_c, 0, 61, 60
2,12879, Control_c, 0, 64, 24
2,12883, Note_on_c, 0, 69, 67
2,12915, Note_on_c, 0, 61, 0
2,12938, Note_on_c, 0, 69, 0
2,12985, Control_c, 0, 64, 25
2,12994, Note_on_c, 0, 79, 57
2,13036, Note_on_c, 0, 79, 0
2,13106, Note_on_c, 0, 78, 72
2,13108, Control_c, 0, 64, 26
2,13108, Note_on_c, 0, 62, 57
2,13153, Control_c, 0, 64, 27
2,13187, Note_on_c, 0, 62, 0
2,13215, Note_on_c, 0, 64, 61
2,13258, Control_c, 0, 64, 28
2,13303, Note_on_c, 0, 64, 0
2,13339, Note_on_c, 0, 74, 76
2,13341, Note_on_c, 0, 78, 0
2,13351, Note_on_c, 0, 66, 61
2,13376, Note_on_c, 0, 74, 0
2,13395, Control_c, 0, 64, 27
2,13410, Control_c, 0, 64, 26
2,13413, Note_on_c, 0, 66, 0
2,13426, Control_c, 0, 64, 25
2,13442, Note_on_c, 0, 62, 61
2,13486, Control_c, 0, 64, 26
2,13501, Control_c, 0, 64, 27
2,13517, Control_c, 0, 64, 30
2,13523, Note_on_c, 0, 62, 0
2,13532, Control_c, 0, 64, 35
2,13548, Control_c, 0, 64, 43
2,13563, Control_c, 0, 64, 47
2,13567, Note_on_c, 0, 76, 86
2,13569, Note_on_c, 0, 67, 68
2,13578, Control_c, 0, 64, 50
2,13600, Control_c, 0, 64, 53
2,13615, Control_c, 0, 64, 54
2,13629, Note_on_c, 0, 76, 0
2,13631, Control_c, 0, 64, 55
2,13646, Control_c, 0, 64, 56
2,13672, Note_on_c, 0, 67, 0
2,13678, Control_c, 0, 64, 57
2,13690, Note_on_c, 0, 62, 54
2,13754, Control_c, 0, 64, 56
2,13784, Control_c, 0, 64, 55
2,13799, Control_c, 0, 64, 53
2,13805, Note_on_c, 0, 62, 0
2,13810, Note_on_c, 0, 78, 94
2,13814, Control_c, 0, 64, 50
2,13819, Note_on_c, 0, 69, 70
2,13829, Control_c, 0, 64, 47
2,13844, Control_c, 0, 64, 44
2,13906, Control_c, 0, 64, 45
2,13921, Control_c, 0, 64, 45
2,13935, Note_on_c, 0, 62, 58
2,13957, Note_on_c, 0, 69, 0
2,13979, Control_c, 0, 64, 45
2,13995, Control_c, 0, 64, 44
2,14006, Note_on_c, 0, 62, 0
2,14025, Control_c, 0, 64, 43
2,14040, Control_c, 0, 64, 43
2,14049, Note_on_c, 0, 79, 84
2,14055, Control_c, 0, 64, 42
2,14056, Note_on_c, 0, 71, 67
2,14058, Note_on_c, 0, 78, 0
2,14071, Control_c, 0, 64, 42
2,14086, Control_c, 0, 64, 41
2,14108, Note_on_c, 0, 79, 0
2,14131, Control_c, 0, 64, 41
2,14137, Note_on_c, 0, 71, 0
2,14147, Control_c, 0, 64, 40
2,14159, Note_on_c, 0, 62, 55
2,14162, Control_c, 0, 64, 39
2,14177, Control_c, 0, 64, 37
2,14193, Control_c, 0, 64, 36
2,14205, Note_on_c, 0, 62, 0
2,14224, Control_c, 0, 64, 42
2,14238, Control_c, 0, 64, 54
2,14253, Control_c, 0, 64, 62
2,14269, Control_c, 0, 64, 66
2,14269, Note_on_c, 0, 81, 93
2,14284, Control_c, 0, 64, 70
2,14296, Note_on_c, 0, 72, 61
2,14299, Control_c, 0, 64, 74
2,14314, Control_c, 0, 64, 81
2,14329, Control_c, 0, 64, 84
2,14337, Note_on_c, 0, 72, 0
2,14345, Control_c, 0, 64, 85
2,14367, Control_c, 0, 64, 87
2,14383, Control_c, 0, 64, 88
2,14398, Control_c, 0, 64, 88
2,14409, Note_on_c, 0, 62, 49
2,14434, Note_on_c, 0, 62, 0
2,14549, Control_c, 0, 64, 88
2,14560, Note_on_c, 0, 55, 91
2,14563, Control_c, 0, 64, 86
2,14576, Note_on_c, 0, 71, 66
2,14578, Control_c, 0, 64, 84
2,14594, Control_c, 0, 64, 81
2,14594, Note_on_c, 0, 55, 0
2,14609, Control_c, 0, 64, 77
2,14624, Control_c, 0, 64, 73
2,14640, Control_c, 0, 64, 70
2,14655, Control_c, 0, 64, 66
2,14670, Control_c, 0, 64, 63
2,14685, Control_c, 0, 64, 59
2,14700, Control_c, 0, 64, 57
2,14731, Control_c, 0, 64, 56
2,14746, Control_c, 0, 64, 53
2,14762, Control_c, 0, 64, 50
2,14777, Control_c, 0, 64, 43
2,14788, Note_on_c, 0, 81, 0
2,14792, Control_c, 0, 64, 0
2,14808, Note_on_c, 0, 57, 81
2,14810, Note_on_c, 0, 74, 75
2,14820, Note_on_c, 0, 71, 0
2,14872, Note_on_c, 0, 57, 0
2,14912, Note_on_c, 0, 55, 86
2,14969, Note_on_c, 0, 55, 0
2,15025, Note_on_c, 0, 54, 79
2,15044, Note_on_c, 0, 79, 77
2,15060, Note_on_c, 0, 74, 0
2,15085, Note_on_c, 0, 54, 0
2,15142, Note_on_c, 0, 55, 81
2,15191, Note_on_c, 0, 55, 0
2,15271, Control_c, 0, 64, 31
2,15273, Note_on_c, 0, 57, 81
2,15285, Control_c, 0, 64, 58
2,15288, Note_on_c, 0, 72, 75
2,15301, Control_c, 0, 64, 61
2,15317, Control_c, 0, 64, 62
2,15326, Note_on_c, 0, 57, 0
2,15347, Control_c, 0, 64, 62
2,15363, Control_c, 0, 64, 63
2,15377, Control_c, 0, 64, 63
2,15393, Control_c, 0, 64, 64
2,15423, Control_c, 0, 64, 64
2,15468, Control_c, 0, 64, 64
2,15484, Control_c, 0, 64, 63
2,15499, Control_c, 0, 64, 58
2,15508, Note_on_c, 0, 59, 81
2,15515, Control_c, 0, 64, 38
2,15517, Note_on_c, 0, 79, 0
2,15524, Note_on_c, 0, 78, 70
2,15529, Control_c, 0, 64, 0
2,15561, Note_on_c, 0, 59, 0
2,15606, Note_on_c, 0, 57, 81
2,15671, Note_on_c, 0, 57, 0
2,15694, Note_on_c, 0, 78, 0
2,15713, Note_on_c, 0, 55, 80
2,15724, Note_on_c, 0, 76, 75
2,15766, Note_on_c, 0, 76, 0
2,15790, Note_on_c, 0, 55, 0
2,15822, Note_on_c, 0, 57, 81
2,15908, Note_on_c, 0, 57, 0
2,15940, Note_on_c, 0, 72, 0
2,15954, Note_on_c, 0, 59, 79
2,15967, Note_on_c, 0, 74, 70
2,16144, Note_on_c, 0, 74, 0
2,16157, Note_on_c, 0, 59, 0
2,16179, Note_on_c, 0, 66, 73
2,16180, Note_on_c, 0, 72, 73
2,16183, Note_on_c, 0, 57, 75
2,16210, Note_on_c, 0, 57, 0
2,16215, Note_on_c, 0, 66, 0
2,16243, Note_on_c, 0, 72, 0
2,16413, Note_on_c, 0, 55, 73
2,16419, Control_c, 0, 64, 53
2,16422, Note_on_c, 0, 67, 64
2,16423, Note_on_c, 0, 71, 59
2,16435, Control_c, 0, 64, 64
2,16450, Control_c, 0, 64, 67
2,16465, Control_c, 0, 64, 70
2,16480, Control_c, 0, 64, 74
2,16481, Note_on_c, 0, 71, 0
2,16495, Control_c, 0, 64, 77
2,16511, Control_c, 0, 64, 78
2,16647, Control_c, 0, 64, 76
2,16652, Note_on_c, 0, 55, 0
2,16663, Note_on_c, 0, 50, 74
2,16670, Control_c, 0, 64, 72
2,16675, Note_on_c, 0, 69, 68
2,16685, Control_c, 0, 64, 59
2,16700, Control_c, 0, 64, 0
2,16776, Control_c, 0, 64, 61
2,16792, Control_c, 0, 64, 65
2,16807, Control_c, 0, 64, 65
2,16883, Control_c, 0, 64, 64
2,16889, Note_on_c, 0, 67, 0
2,16890, Note_on_c, 0, 69, 0
2,16897, Control_c, 0, 64, 62
2,16908, Note_on_c, 0, 50, 0
2,16912, Note_on_c, 0, 60, 77
2,16913, Control_c, 0, 64, 50
2,16927, Note_on_c, 0, 66, 63
2,16928, Control_c, 0, 64, 0
2,16991, Note_on_c, 0, 66, 0
2,17024, Note_on_c, 0, 67, 64
2,17089, Note_on_c, 0, 67, 0
2,17136, Note_on_c, 0, 69, 63
2,17224, Note_on_c, 0, 69, 0
2,17239, Note_on_c, 0, 66, 69
2,17328, Note_on_c, 0, 66, 0
2,17358, Note_on_c, 0, 60, 0
2,17364, Note_on_c, 0, 59, 67
2,17370, Note_on_c, 0, 67, 67
2,17447, Note_on_c, 0, 67, 0
2,17481, Note_on_c, 0, 66, 70
2,17554, Note_on_c, 0, 66, 0
2,17575, Note_on_c, 0, 59, 0
2,17600, Note_on_c, 0, 57, 66
2,17605, Note_on_c, 0, 67, 66
2,17630, Note_on_c, 0, 57, 0
2,17663, Note_on_c, 0, 67, 0
2,17707, Note_on_c, 0, 69, 71
2,17775, Note_on_c, 0, 69, 0
2,17813, Note_on_c, 0, 55, 71
2,17820, Note_on_c, 0, 74, 67
2,17822, Note_on_c, 0, 71, 70
2,17834, Control_c, 0, 64, 16
2,17847, Note_on_c, 0, 55, 0
2,17849, Control_c, 0, 64, 57
2,17864, Control_c, 0, 64, 62
2,17880, Control_c, 0, 64, 63
2,17910, Control_c, 0, 64, 63
2,17915, Note_on_c, 0, 71, 0
2,17928, Note_on_c, 0, 67, 73
2,17940, Control_c, 0, 64, 64
2,17956, Control_c, 0, 64, 64
2,18001, Control_c, 0, 64, 64
2,18016, Control_c, 0, 64, 63
2,18032, Control_c, 0, 64, 55
2,18039, Note_on_c, 0, 54, 71
2,18043, Note_on_c, 0, 67, 0
2,18046, Control_c, 0, 64, 0
2,18052, Note_on_c, 0, 69, 69
2,18110, Note_on_c, 0, 69, 0
2,18116, Note_on_c, 0, 74, 0
2,18150, Note_on_c, 0, 67, 77
2,18153, Control_c, 0, 64, 56
2,18168, Control_c, 0, 64, 62
2,18226, Note_on_c, 0, 67, 0
2,18236, Control_c, 0, 64, 62
2,18251, Control_c, 0, 64, 61
2,18251, Note_on_c, 0, 54, 0
2,18262, Note_on_c, 0, 64, 81
2,18266, Control_c, 0, 64, 56
2,18276, Note_on_c, 0, 69, 64
2,18282, Control_c, 0, 64, 10
2,18287, Note_on_c, 0, 72, 65
2,18296, Control_c, 0, 64, 0
2,18308, Note_on_c, 0, 69, 0
2,18343, Note_on_c, 0, 72, 0
2,18373, Control_c, 0, 64, 53
2,18375, Note_on_c, 0, 71, 74
2,18388, Control_c, 0, 64, 65
2,18404, Control_c, 0, 64, 67
2,18443, Note_on_c, 0, 71, 0
2,18480, Control_c, 0, 64, 66
2,18495, Control_c, 0, 64, 63
2,18501, Note_on_c, 0, 81, 87
2,18507, Note_on_c, 0, 72, 67
2,18510, Control_c, 0, 64, 47
2,18525, Control_c, 0, 64, 0
2,18565, Note_on_c, 0, 72, 0
2,18610, Note_on_c, 0, 69, 68
2,18671, Note_on_c, 0, 69, 0
2,18713, Note_on_c, 0, 64, 0
2,18731, Note_on_c, 0, 62, 68
2,18740, Note_on_c, 0, 81, 0
2,18747, Note_on_c, 0, 71, 73
2,18769, Control_c, 0, 64, 63
2,18784, Control_c, 0, 64, 70
2,18800, Control_c, 0, 64, 75
2,18804, Note_on_c, 0, 62, 0
2,18810, Note_on_c, 0, 71, 0
2,18814, Control_c, 0, 64, 78
2,18830, Control_c, 0, 64, 79
2,18845, Control_c, 0, 64, 79
2,18875, Control_c, 0, 64, 80
2,18890, Control_c, 0, 64, 80
2,18921, Control_c, 0, 64, 81
2,18935, Control_c, 0, 64, 80
2,18974, Control_c, 0, 64, 79
2,18990, Control_c, 0, 64, 76
2,19005, Control_c, 0, 64, 69
2,19006, Note_on_c, 0, 72, 74
2,19006, Note_on_c, 0, 79, 75
2,19010, Note_on_c, 0, 64, 59
2,19019, Control_c, 0, 64, 40
2,19035, Control_c, 0, 64, 0
2,19061, Note_on_c, 0, 64, 0
2,19077, Note_on_c, 0, 72, 0
2,19103, Note_on_c, 0, 71, 74
2,19113, Note_on_c, 0, 62, 60
2,19155, Note_on_c, 0, 62, 0
2,19167, Note_on_c, 0, 71, 0
2,19215, Note_on_c, 0, 60, 59
2,19224, Note_on_c, 0, 69, 73
2,19253, Note_on_c, 0, 60, 0
2,19285, Note_on_c, 0, 69, 0
2,19304, Note_on_c, 0, 59, 68
2,19321, Note_on_c, 0, 67, 77
2,19364, Note_on_c, 0, 59, 0
2,19378, Note_on_c, 0, 67, 0
2,19434, Note_on_c, 0, 57, 71
2,19434, Note_on_c, 0, 72, 76
2,19446, Control_c, 0, 64, 22
2,19446, Note_on_c, 0, 79, 0
2,19461, Control_c, 0, 64, 64
2,19477, Control_c, 0, 64, 70
2,19486, Note_on_c, 0, 57, 0
2,19492, Control_c, 0, 64, 74
2,19506, Control_c, 0, 64, 76
2,19522, Control_c, 0, 64, 77
2,19537, Control_c, 0, 64, 78
2,19553, Control_c, 0, 64, 78
2,19568, Control_c, 0, 64, 79
2,19644, Control_c, 0, 64, 78
2,19658, Control_c, 0, 64, 76
2,19674, Control_c, 0, 64, 71
2,19684, Note_on_c, 0, 81, 78
2,19689, Control_c, 0, 64, 59
2,19689, Note_on_c, 0, 60, 67
2,19703, Control_c, 0, 64, 0
2,19752, Note_on_c, 0, 60, 0
2,19791, Note_on_c, 0, 59, 66
2,19795, Note_on_c, 0, 79, 75
2,19802, Note_on_c, 0, 81, 0
2,19836, Note_on_c, 0, 59, 0
2,19887, Note_on_c, 0, 57, 69
2,19898, Note_on_c, 0, 78, 77
2,19917, Note_on_c, 0, 57, 0
2,19934, Note_on_c, 0, 79, 0
2,19983, Note_on_c, 0, 55, 68
2,19986, Note_on_c, 0, 76, 64
2,19998, Note_on_c, 0, 78, 0
2,20020, Note_on_c, 0, 76, 0
2,20045, Note_on_c, 0, 55, 0
2,20100, Note_on_c, 0, 54, 71
2,20121, Note_on_c, 0, 74, 67
2,20150, Note_on_c, 0, 72, 0
2,20235, Note_on_c, 0, 71, 64
2,20301, Note_on_c, 0, 71, 0
2,20351, Control_c, 0, 64, 13
2,20355, Note_on_c, 0, 69, 63
2,20366, Control_c, 0, 64, 21
2,20381, Control_c, 0, 64, 25
2,20393, Note_on_c, 0, 69, 0
2,20397, Control_c, 0, 64, 27
2,20412, Control_c, 0, 64, 28
2,20442, Control_c, 0, 64, 29
2,20456, Note_on_c, 0, 54, 0
2,20461, Note_on_c, 0, 72, 62
2,20510, Control_c, 0, 64, 28
2,20517, Note_on_c, 0, 72, 0
2,20525, Control_c, 0, 64, 22
2,20540, Control_c, 0, 64, 0
2,20583, Note_on_c, 0, 52, 67
2,20587, Note_on_c, 0, 67, 67
2,20614, Note_on_c, 0, 52, 0
2,20618, Note_on_c, 0, 67, 0
2,20687, Note_on_c, 0, 72, 64
2,20745, Note_on_c, 0, 72, 0
2,20796, Note_on_c, 0, 50, 69
2,20803, Note_on_c, 0, 66, 66
2,20828, Note_on_c, 0, 50, 0
2,20886, Note_on_c, 0, 66, 0
2,20907, Note_on_c, 0, 52, 59
2,20919, Note_on_c, 0, 72, 57
2,20946, Note_on_c, 0, 52, 0
2,20978, Note_on_c, 0, 72, 0
2,21017, Note_on_c, 0, 50, 61
2,21031, Note_on_c, 0, 64, 63
2,21050, Note_on_c, 0, 50, 0
2,21077, Note_on_c, 0, 64, 0
2,21117, Note_on_c, 0, 48, 65
2,21130, Note_on_c, 0, 72, 63
2,21151, Note_on_c, 0, 48, 0
2,21185, Note_on_c, 0, 72, 0
2,21231, Note_on_c, 0, 47, 65
2,21249, Note_on_c, 0, 62, 54
2,21273, Note_on_c, 0, 47, 0
2,21280, Note_on_c, 0, 62, 0
2,21338, Note_on_c, 0, 72, 67
2,21347, Note_on_c, 0, 45, 57
2,21387, Note_on_c, 0, 45, 0
2,21405, Note_on_c, 0, 74, 0
2,21416, Note_on_c, 0, 72, 0
2,21457, Note_on_c, 0, 43, 59
2,21464, Note_on_c, 0, 71, 68
2,21523, Note_on_c, 0, 43, 0
2,21566, Note_on_c, 0, 45, 51
2,21630, Note_on_c, 0, 45, 0
2,21686, Note_on_c, 0, 47, 60
2,21688, Note_on_c, 0, 71, 0
2,21695, Note_on_c, 0, 74, 77
2,21705, Note_on_c, 0, 65, 68
2,21733, Note_on_c, 0, 65, 0
2,21757, Note_on_c, 0, 74, 0
2,21776, Note_on_c, 0, 47, 0
2,21794, Note_on_c, 0, 43, 64
2,21875, Control_c, 0, 64, 16
2,21890, Control_c, 0, 64, 29
2,21905, Control_c, 0, 64, 34
2,21920, Control_c, 0, 64, 41
2,21922, Note_on_c, 0, 43, 0
2,21933, Note_on_c, 0, 48, 74
2,21933, Note_on_c, 0, 72, 82
2,21935, Control_c, 0, 64, 47
2,21940, Note_on_c, 0, 64, 68
2,21951, Control_c, 0, 64, 52
2,21965, Control_c, 0, 64, 54
2,21972, Note_on_c, 0, 64, 0
2,21980, Control_c, 0, 64, 55
2,21989, Note_on_c, 0, 72, 0
2,21996, Control_c, 0, 64, 56
2,22023, Note_on_c, 0, 48, 0
2,22047, Note_on_c, 0, 43, 68
2,22049, Control_c, 0, 64, 56
2,22095, Control_c, 0, 64, 57
2,22125, Control_c, 0, 64, 58
2,22156, Control_c, 0, 64, 57
2,22170, Control_c, 0, 64, 44
2,22171, Note_on_c, 0, 71, 87
2,22177, Note_on_c, 0, 43, 0
2,22181, Note_on_c, 0, 50, 73
2,22186, Control_c, 0, 64, 0
2,22187, Note_on_c, 0, 62, 70
2,22261, Control_c, 0, 64, 48
2,22277, Control_c, 0, 64, 66
2,22285, Note_on_c, 0, 62, 0
2,22291, Control_c, 0, 64, 69
2,22306, Note_on_c, 0, 43, 54
2,22307, Control_c, 0, 64, 72
2,22322, Control_c, 0, 64, 73
2,22368, Control_c, 0, 64, 74
2,22384, Control_c, 0, 64, 73
2,22387, Note_on_c, 0, 71, 0
2,22397, Note_on_c, 0, 50, 0
2,22409, Note_on_c, 0, 69, 77
2,22413, Control_c, 0, 64, 71
2,22423, Note_on_c, 0, 60, 65
2,22427, Note_on_c, 0, 52, 73
2,22429, Control_c, 0, 64, 67
2,22441, Note_on_c, 0, 43, 0
2,22443, Control_c, 0, 64, 48
2,22456, Note_on_c, 0, 60, 0
2,22458, Control_c, 0, 64, 0
2,22476, Note_on_c, 0, 69, 0
2,22518, Note_on_c, 0, 52, 0
2,22530, Note_on_c, 0, 43, 64
2,22625, Note_on_c, 0, 43, 0
2,22647, Note_on_c, 0, 67, 75
2,22650, Note_on_c, 0, 53, 70
2,22666, Note_on_c, 0, 59, 49
2,22687, Control_c, 0, 64, 58
2,22691, Note_on_c, 0, 59, 0
2,22703, Control_c, 0, 64, 66
2,22711, Note_on_c, 0, 67, 0
2,22718, Control_c, 0, 64, 71
2,22733, Control_c, 0, 64, 74
2,22747, Note_on_c, 0, 53, 0
2,22749, Control_c, 0, 64, 77
2,22762, Note_on_c, 0, 43, 64
2,22763, Control_c, 0, 64, 78
2,22778, Control_c, 0, 64, 78
2,22794, Control_c, 0, 64, 79
2,22816, Control_c, 0, 64, 80
2,22847, Control_c, 0, 64, 80
2,22908, Control_c, 0, 64, 80
2,22908, Control_c, 0, 67, 107
2,22923, Control_c, 0, 64, 78
2,22923, Control_c, 0, 67, 72
2,22927, Note_on_c, 0, 72, 83
2,22933, Note_on_c, 0, 52, 75
2,22937, Control_c, 0, 64, 74
2,22937, Control_c, 0, 67, 31
2,22940, Note_on_c, 0, 43, 0
2,22953, Control_c, 0, 64, 68
2,22953, Control_c, 0, 67, 0
2,22968, Control_c, 0, 64, 0
2,23047, Note_on_c, 0, 74, 84
2,23052, Note_on_c, 0, 72, 0
2,23058, Note_on_c, 0, 50, 67
2,23061, Note_on_c, 0, 52, 0
2,23151, Note_on_c, 0, 50, 0
2,23173, Note_on_c, 0, 76, 83
2,23175, Note_on_c, 0, 48, 63
2,23184, Note_on_c, 0, 74, 0
2,23244, Note_on_c, 0, 48, 0
2,23289, Note_on_c, 0, 52, 69
2,23409, Note_on_c, 0, 52, 0
2,23420, Note_on_c, 0, 67, 66
2,23427, Note_on_c, 0, 47, 63
2,23454, Control_c, 0, 64, 51
2,23466, Note_on_c, 0, 67, 0
2,23470, Control_c, 0, 64, 65
2,23485, Control_c, 0, 64, 68
2,23496, Note_on_c, 0, 76, 0
2,23501, Control_c, 0, 64, 70
2,23515, Note_on_c, 0, 47, 0
2,23517, Control_c, 0, 64, 72
2,23531, Control_c, 0, 64, 74
2,23531, Note_on_c, 0, 52, 63
2,23547, Control_c, 0, 64, 75
2,23562, Control_c, 0, 64, 76
2,23585, Control_c, 0, 64, 77
2,23654, Note_on_c, 0, 52, 0
2,23661, Note_on_c, 0, 66, 69
2,23676, Control_c, 0, 64, 76
2,23677, Note_on_c, 0, 45, 60
2,23691, Control_c, 0, 64, 74
2,23707, Control_c, 0, 64, 71
2,23722, Control_c, 0, 64, 67
2,23736, Control_c, 0, 64, 58
2,23752, Control_c, 0, 64, 0
2,23776, Note_on_c, 0, 74, 65
2,23780, Note_on_c, 0, 52, 61
2,23783, Note_on_c, 0, 66, 0
2,23824, Note_on_c, 0, 45, 0
2,23880, Note_on_c, 0, 52, 0
2,23887, Note_on_c, 0, 72, 69
2,23890, Note_on_c, 0, 74, 0
2,23896, Note_on_c, 0, 43, 61
2,23955, Note_on_c, 0, 43, 0
2,23991, Note_on_c, 0, 72, 0
2,23994, Note_on_c, 0, 71, 74
2,24012, Note_on_c, 0, 52, 63
2,24079, Note_on_c, 0, 52, 0
2,24098, Note_on_c, 0, 71, 0
2,24110, Note_on_c, 0, 69, 75
2,24123, Note_on_c, 0, 42, 55
2,24175, Note_on_c, 0, 42, 0
2,24199, Note_on_c, 0, 69, 0
2,24220, Note_on_c, 0, 72, 75
2,24224, Note_on_c, 0, 52, 61
2,24304, Note_on_c, 0, 52, 0
2,24314, Note_on_c, 0, 72, 0
2,24331, Note_on_c, 0, 50, 57
2,24332, Note_on_c, 0, 71, 73
2,24407, Note_on_c, 0, 50, 0
2,24415, Note_on_c, 0, 71, 0
2,24444, Note_on_c, 0, 72, 77
2,24445, Note_on_c, 0, 48, 59
2,24520, Note_on_c, 0, 48, 0
2,24551, Note_on_c, 0, 74, 75
2,24555, Note_on_c, 0, 72, 0
2,24563, Note_on_c, 0, 47, 54
2,24607, Note_on_c, 0, 47, 0
2,24667, Note_on_c, 0, 50, 59
2,24754, Note_on_c, 0, 50, 0
2,24779, Note_on_c, 0, 66, 73
2,24800, Note_on_c, 0, 45, 52
2,24814, Note_on_c, 0, 66, 0
2,24890, Note_on_c, 0, 50, 57
2,24930, Control_c, 0, 64, 31
2,24946, Control_c, 0, 64, 46
2,24961, Control_c, 0, 64, 53
2,24972, Note_on_c, 0, 45, 0
2,24975, Control_c, 0, 64, 57
2,24991, Control_c, 0, 64, 59
2,25006, Control_c, 0, 64, 60
2,25006, Note_on_c, 0, 64, 63
2,25008, Note_on_c, 0, 74, 0
2,25011, Note_on_c, 0, 50, 0
2,25021, Control_c, 0, 64, 61
2,25025, Note_on_c, 0, 43, 50
2,25052, Control_c, 0, 64, 61
2,25068, Control_c, 0, 64, 62
2,25120, Control_c, 0, 64, 61
2,25130, Note_on_c, 0, 43, 0
2,25134, Note_on_c, 0, 72, 65
2,25136, Control_c, 0, 64, 57
2,25149, Note_on_c, 0, 50, 55
2,25152, Control_c, 0, 64, 46
2,25167, Control_c, 0, 64, 0
2,25220, Note_on_c, 0, 72, 0
2,25244, Note_on_c, 0, 50, 0
2,25244, Note_on_c, 0, 71, 68
2,25256, Note_on_c, 0, 42, 56
2,25346, Note_on_c, 0, 69, 68
2,25356, Note_on_c, 0, 71, 0
2,25359, Note_on_c, 0, 42, 0
2,25377, Note_on_c, 0, 50, 60
2,25455, Note_on_c, 0, 67, 74
2,25465, Note_on_c, 0, 69, 0
2,25477, Note_on_c, 0, 50, 0
2,25491, Note_on_c, 0, 40, 61
2,25546, Note_on_c, 0, 40, 0
2,25562, Note_on_c, 0, 71, 68
2,25582, Note_on_c, 0, 67, 0
2,25598, Note_on_c, 0, 50, 51
2,25676, Note_on_c, 0, 69, 75
2,25676, Note_on_c, 0, 71, 0
2,25685, Note_on_c, 0, 50, 0
2,25711, Note_on_c, 0, 48, 52
2,25769, Note_on_c, 0, 48, 0
2,25771, Note_on_c, 0, 69, 0
2,25786, Note_on_c, 0, 71, 78
2,25798, Note_on_c, 0, 47, 56
2,25830, Note_on_c, 0, 64, 0
2,25864, Note_on_c, 0, 47, 0
2,25910, Note_on_c, 0, 72, 71
2,25912, Note_on_c, 0, 71, 0
2,25925, Note_on_c, 0, 45, 55
2,25973, Note_on_c, 0, 45, 0
2,26020, Note_on_c, 0, 48, 61
2,26122, Note_on_c, 0, 64, 68
2,26135, Note_on_c, 0, 48, 0
2,26145, Note_on_c, 0, 43, 52
2,26166, Note_on_c, 0, 64, 0
2,26247, Note_on_c, 0, 48, 51
2,26265, Control_c, 0, 64, 41
2,26281, Control_c, 0, 64, 61
2,26296, Control_c, 0, 64, 65
2,26311, Control_c, 0, 64, 66
2,26326, Control_c, 0, 64, 66
2,26341, Control_c, 0, 64, 68
2,26357, Control_c, 0, 64, 69
2,26364, Note_on_c, 0, 48, 0
2,26371, Note_on_c, 0, 72, 0
2,26372, Control_c, 0, 64, 71
2,26378, Note_on_c, 0, 42, 52
2,26382, Note_on_c, 0, 62, 65
2,26386, Control_c, 0, 64, 72
2,26402, Control_c, 0, 64, 72
2,26404, Note_on_c, 0, 43, 0
2,26490, Note_on_c, 0, 48, 50
2,26493, Control_c, 0, 64, 72
2,26498, Note_on_c, 0, 71, 64
2,26508, Control_c, 0, 64, 70
2,26524, Control_c, 0, 64, 67
2,26539, Control_c, 0, 64, 61
2,26555, Control_c, 0, 64, 0
2,26566, Note_on_c, 0, 42, 0
2,26576, Note_on_c, 0, 71, 0
2,26580, Note_on_c, 0, 48, 0
2,26602, Note_on_c, 0, 69, 68
2,26611, Note_on_c, 0, 40, 54
2,26714, Note_on_c, 0, 40, 0
2,26720, Note_on_c, 0, 67, 66
2,26722, Note_on_c, 0, 69, 0
2,26732, Note_on_c, 0, 48, 51
2,26811, Note_on_c, 0, 67, 0
2,26830, Note_on_c, 0, 48, 0
2,26830, Note_on_c, 0, 66, 66
2,26855, Note_on_c, 0, 38, 47
2,26905, Note_on_c, 0, 38, 0
2,26915, Note_on_c, 0, 62, 0
2,26918, Note_on_c, 0, 66, 0
2,26933, Note_on_c, 0, 69, 70
2,26975, Note_on_c, 0, 48, 33
2,27033, Note_on_c, 0, 69, 0
2,27066, Note_on_c, 0, 67, 67
2,27074, Note_on_c, 0, 48, 0
2,27080, Note_on_c, 0, 62, 58
2,27090, Note_on_c, 0, 47, 53
2,27144, Note_on_c, 0, 67, 0
2,27172, Note_on_c, 0, 69, 69
2,27180, Note_on_c, 0, 62, 0
2,27272, Note_on_c, 0, 69, 0
2,27273, Note_on_c, 0, 47, 0
2,27297, Note_on_c, 0, 45, 54
2,27302, Note_on_c, 0, 71, 63
2,27315, Note_on_c, 0, 60, 64
2,27351, Note_on_c, 0, 45, 0
2,27356, Note_on_c, 0, 60, 0
2,27414, Note_on_c, 0, 62, 70
2,27501, Note_on_c, 0, 62, 0
2,27532, Note_on_c, 0, 64, 71
2,27536, Note_on_c, 0, 43, 53
2,27581, Note_on_c, 0, 43, 0
2,27603, Note_on_c, 0, 64, 0
2,27634, Note_on_c, 0, 62, 77
2,27710, Note_on_c, 0, 62, 0
2,27772, Note_on_c, 0, 60, 77
2,27776, Note_on_c, 0, 45, 52
2,27848, Control_c, 0, 64, 41
2,27851, Note_on_c, 0, 60, 0
2,27862, Control_c, 0, 64, 60
2,27878, Control_c, 0, 64, 62
2,27939, Control_c, 0, 64, 62
2,27962, Note_on_c, 0, 71, 0
2,27983, Note_on_c, 0, 45, 0
2,27998, Note_on_c, 0, 64, 63
2,28008, Note_on_c, 0, 59, 62
2,28018, Note_on_c, 0, 43, 53
2,28031, Control_c, 0, 64, 62
2,28045, Control_c, 0, 64, 60
2,28051, Note_on_c, 0, 59, 0
2,28060, Control_c, 0, 64, 54
2,28076, Control_c, 0, 64, 44
2,28080, Note_on_c, 0, 43, 0
2,28091, Control_c, 0, 64, 22
2,28096, Note_on_c, 0, 60, 71
2,28106, Control_c, 0, 64, 0
2,28190, Note_on_c, 0, 60, 0
2,28200, Note_on_c, 0, 64, 0
2,28220, Note_on_c, 0, 42, 51
2,28231, Note_on_c, 0, 69, 67
2,28237, Note_on_c, 0, 62, 70
2,28256, Note_on_c, 0, 42, 0
2,28285, Note_on_c, 0, 62, 0
2,28327, Control_c, 0, 64, 32
2,28334, Note_on_c, 0, 60, 71
2,28341, Control_c, 0, 64, 40
2,28357, Control_c, 0, 64, 39
2,28372, Control_c, 0, 64, 38
2,28386, Control_c, 0, 64, 38
2,28401, Note_on_c, 0, 60, 0
2,28402, Control_c, 0, 64, 36
2,28419, Control_c, 0, 64, 34
2,28434, Control_c, 0, 64, 25
2,28449, Control_c, 0, 64, 0
2,28450, Note_on_c, 0, 59, 76
2,28462, Note_on_c, 0, 43, 54
2,28505, Note_on_c, 0, 69, 0
2,28510, Note_on_c, 0, 43, 0
2,28540, Control_c, 0, 64, 13
2,28556, Control_c, 0, 64, 21
2,28566, Note_on_c, 0, 67, 73
2,28567, Note_on_c, 0, 55, 55
2,28569, Control_c, 0, 64, 26
2,28572, Note_on_c, 0, 59, 0
2,28584, Control_c, 0, 64, 30
2,28600, Control_c, 0, 64, 31
2,28615, Control_c, 0, 64, 32
2,28646, Control_c, 0, 64, 30
2,28659, Note_on_c, 0, 67, 0
2,28660, Control_c, 0, 64, 0
2,28667, Note_on_c, 0, 55, 0
2,28689, Note_on_c, 0, 69, 75
2,28690, Note_on_c, 0, 60, 72
2,28694, Note_on_c, 0, 53, 62
2,28728, Note_on_c, 0, 60, 0
2,28729, Note_on_c, 0, 69, 0
2,28774, Note_on_c, 0, 53, 0
2,28795, Note_on_c, 0, 52, 64
2,28878, Note_on_c, 0, 52, 0
2,28907, Note_on_c, 0, 50, 66
2,28920, Note_on_c, 0, 71, 79
2,28923, Note_on_c, 0, 62, 74
2,28960, Note_on_c, 0, 62, 0
2,28980, Note_on_c, 0, 71, 0
2,29024, Note_on_c, 0, 50, 0
2,29027, Note_on_c, 0, 53, 69
2,29167, Note_on_c, 0, 52, 66
2,29169, Note_on_c, 0, 72, 76
2,29174, Note_on_c, 0, 67, 66
2,29178, Note_on_c, 0, 53, 0
2,29248, Control_c, 0, 64, 36
2,29263, Control_c, 0, 64, 45
2,29266, Note_on_c, 0, 52, 0
2,29278, Control_c, 0, 64, 47
2,29287, Note_on_c, 0, 53, 70
2,29290, Note_on_c, 0, 74, 71
2,29308, Control_c, 0, 64, 46
2,29310, Note_on_c, 0, 72, 0
2,29364, Note_on_c, 0, 67, 0
2,29376, Note_on_c, 0, 53, 0
2,29392, Note_on_c, 0, 74, 0
2,29403, Note_on_c, 0, 57, 65
2,29408, Note_on_c, 0, 52, 62
2,29411, Note_on_c, 0, 72, 78
2,29430, Control_c, 0, 64, 45
2,29445, Control_c, 0, 64, 45
2,29459, Control_c, 0, 64, 44
2,29515, Note_on_c, 0, 50, 68
2,29517, Note_on_c, 0, 52, 0
2,29519, Note_on_c, 0, 71, 78
2,29523, Note_on_c, 0, 72, 0
2,29566, Control_c, 0, 64, 43
2,29581, Control_c, 0, 64, 40
2,29586, Note_on_c, 0, 50, 0
2,29597, Control_c, 0, 64, 38
2,29612, Control_c, 0, 64, 37
2,29619, Note_on_c, 0, 71, 0
2,29620, Note_on_c, 0, 48, 62
2,29622, Note_on_c, 0, 57, 0
2,29626, Control_c, 0, 64, 40
2,29632, Note_on_c, 0, 69, 73
2,29642, Control_c, 0, 64, 45
2,29657, Control_c, 0, 64, 51
2,29673, Control_c, 0, 64, 59
2,29688, Control_c, 0, 64, 63
2,29693, Note_on_c, 0, 69, 0
2,29703, Control_c, 0, 64, 65
2,29726, Control_c, 0, 64, 66
2,29741, Control_c, 0, 64, 68
2,29741, Note_on_c, 0, 52, 67
2,29747, Note_on_c, 0, 67, 53
2,29756, Control_c, 0, 64, 69
2,29770, Note_on_c, 0, 67, 0
2,29771, Control_c, 0, 64, 71
2,29780, Note_on_c, 0, 48, 0
2,29786, Control_c, 0, 64, 72
2,29802, Control_c, 0, 64, 72
2,29819, Note_on_c, 0, 52, 0
2,29872, Note_on_c, 0, 67, 69
2,29873, Note_on_c, 0, 50, 56
2,29894, Note_on_c, 0, 59, 61
2,29910, Note_on_c, 0, 67, 0
2,29914, Note_on_c, 0, 50, 0
2,29924, Control_c, 0, 64, 72
2,29938, Control_c, 0, 64, 71
2,29954, Control_c, 0, 64, 70
2,29956, Note_on_c, 0, 66, 64
2,29962, Note_on_c, 0, 52, 60
2,29965, Note_on_c, 0, 59, 0
2,29969, Control_c, 0, 64, 68
2,29984, Control_c, 0, 64, 67
2,30000, Control_c, 0, 64, 65
2,30012, Note_on_c, 0, 66, 0
2,30015, Control_c, 0, 64, 62
2,30020, Note_on_c, 0, 67, 68
2,30030, Control_c, 0, 64, 34
2,30046, Control_c, 0, 64, 0
2,30061, Note_on_c, 0, 67, 0
2,30073, Note_on_c, 0, 66, 65
2,30102, Note_on_c, 0, 50, 52
2,30119, Note_on_c, 0, 52, 0
2,30124, Note_on_c, 0, 60, 29
2,30161, Note_on_c, 0, 60, 0
2,30162, Note_on_c, 0, 50, 0
2,30195, Note_on_c, 0, 66, 0
2,30212, Note_on_c, 0, 64, 57
2,30223, Note_on_c, 0, 48, 51
2,30272, Note_on_c, 0, 64, 0
2,30281, Note_on_c, 0, 48, 0
2,30303, Note_on_c, 0, 67, 80
2,30322, Note_on_c, 0, 47, 68
2,30332, Note_on_c, 0, 62, 63
2,30382, Note_on_c, 0, 62, 0
2,30431, Note_on_c, 0, 47, 0
2,30441, Note_on_c, 0, 50, 56
2,30510, Control_c, 0, 64, 21
2,30524, Control_c, 0, 64, 33
2,30529, Note_on_c, 0, 67, 0
2,30539, Control_c, 0, 64, 34
2,30554, Note_on_c, 0, 50, 0
2,30555, Control_c, 0, 64, 36
2,30557, Note_on_c, 0, 64, 77
2,30559, Note_on_c, 0, 48, 62
2,30570, Control_c, 0, 64, 40
2,30585, Control_c, 0, 64, 45
2,30600, Control_c, 0, 64, 49
2,30615, Control_c, 0, 64, 51
2,30626, Note_on_c, 0, 48, 0
2,30631, Control_c, 0, 64, 52
2,30648, Note_on_c, 0, 64, 0
2,30679, Note_on_c, 0, 50, 58
2,30680, Note_on_c, 0, 71, 70
2,30706, Control_c, 0, 64, 51
2,30754, Note_on_c, 0, 50, 0
2,30767, Note_on_c, 0, 71, 0
2,30782, Control_c, 0, 64, 50
2,30791, Note_on_c, 0, 54, 68
2,30798, Control_c, 0, 64, 46
2,30801, Note_on_c, 0, 69, 71
2,30813, Control_c, 0, 64, 43
2,30828, Control_c, 0, 64, 42
2,30830, Note_on_c, 0, 48, 31
2,30858, Control_c, 0, 64, 41
2,30875, Control_c, 0, 64, 36
2,30884, Note_on_c, 0, 54, 0
2,30888, Note_on_c, 0, 69, 0
2,30890, Control_c, 0, 64, 26
2,30904, Control_c, 0, 64, 13
2,30907, Note_on_c, 0, 67, 71
2,30913, Note_on_c, 0, 48, 0
2,30920, Control_c, 0, 64, 18
2,30926, Note_on_c, 0, 47, 62
2,30935, Control_c, 0, 64, 21
2,30951, Control_c, 0, 64, 18
2,30966, Control_c, 0, 64, 0
2,30978, Note_on_c, 0, 47, 0
2,30988, Note_on_c, 0, 67, 0
2,31024, Note_on_c, 0, 66, 73
2,31027, Note_on_c, 0, 45, 55
2,31092, Note_on_c, 0, 66, 0
2,31102, Control_c, 0, 64, 21
2,31115, Note_on_c, 0, 45, 0
2,31118, Control_c, 0, 64, 39
2,31133, Control_c, 0, 64, 43
2,31135, Note_on_c, 0, 48, 57
2,31135, Note_on_c, 0, 64, 64
2,31147, Control_c, 0, 64, 42
2,31163, Control_c, 0, 64, 43
2,31168, Note_on_c, 0, 64, 0
2,31178, Control_c, 0, 64, 46
2,31194, Control_c, 0, 64, 51
2,31205, Note_on_c, 0, 48, 0
2,31209, Control_c, 0, 64, 53
2,31223, Control_c, 0, 64, 53
2,31239, Control_c, 0, 64, 52
2,31244, Note_on_c, 0, 47, 66
2,31278, Control_c, 0, 64, 54
2,31287, Note_on_c, 0, 55, 37
2,31293, Control_c, 0, 64, 57
2,31305, Note_on_c, 0, 57, 21
2,31307, Control_c, 0, 64, 61
2,31323, Control_c, 0, 64, 63
2,31333, Note_on_c, 0, 62, 9
2,31342, Note_on_c, 0, 57, 0
2,31352, Note_on_c, 0, 55, 0
2,31355, Note_on_c, 0, 47, 0
2,31360, Note_on_c, 0, 62, 0
2,31368, Control_c, 0, 67, 10
2,31370, Note_on_c, 0, 48, 65
2,31383, Control_c, 0, 67, 19
2,31399, Control_c, 0, 67, 33
2,31414, Control_c, 0, 67, 56
2,31430, Control_c, 0, 67, 79
2,31444, Control_c, 0, 67, 101
2,31448, Note_on_c, 0, 48, 0
2,31459, Control_c, 0, 67, 120
2,31475, Control_c, 0, 67, 127
2,31481, Note_on_c, 0, 47, 65
2,31489, Control_c, 0, 64, 61
2,31499, Note_on_c, 0, 55, 65
2,31504, Control_c, 0, 64, 58
2,31520, Control_c, 0, 64, 51
2,31535, Control_c, 0, 64, 41
2,31551, Control_c, 0, 64, 18
2,31565, Control_c, 0, 64, 0
2,31569, Note_on_c, 0, 47, 0
2,31581, Note_on_c, 0, 55, 0
2,31602, Note_on_c, 0, 45, 66
2,31608, Note_on_c, 0, 57, 70
2,31690, Note_on_c, 0, 45, 0
2,31691, Note_on_c, 0, 57, 0
2,31719, Note_on_c, 0, 43, 66
2,31732, Note_on_c, 0, 59, 69
2,31793, Note_on_c, 0, 43, 0
2,31797, Note_on_c, 0, 59, 0
2,31813, Note_on_c, 0, 45, 66
2,31830, Note_on_c, 0, 61, 72
2,31893, Note_on_c, 0, 45, 0
2,31897, Note_on_c, 0, 61, 0
2,31929, Note_on_c, 0, 47, 71
2,31941, Note_on_c, 0, 62, 72
2,31978, Control_c, 0, 64, 10
2,31984, Note_on_c, 0, 62, 0
2,31993, Control_c, 0, 64, 18
2,32008, Control_c, 0, 64, 19
2,32027, Note_on_c, 0, 47, 0
2,32031, Control_c, 0, 64, 24
2,32045, Note_on_c, 0, 49, 78
2,32061, Control_c, 0, 64, 25
2,32076, Control_c, 0, 64, 32
2,32091, Control_c, 0, 64, 36
2,32106, Control_c, 0, 64, 37
2,32122, Control_c, 0, 64, 38
2,32128, Note_on_c, 0, 49, 0
2,32137, Control_c, 0, 64, 39
2,32153, Control_c, 0, 64, 40
2,32168, Note_on_c, 0, 50, 65
2,32169, Note_on_c, 0, 59, 79
2,32198, Control_c, 0, 64, 41
2,32213, Control_c, 0, 64, 42
2,32213, Control_c, 0, 67, 106
2,32216, Note_on_c, 0, 50, 0
2,32228, Control_c, 0, 64, 43
2,32228, Control_c, 0, 67, 74
2,32244, Control_c, 0, 64, 44
2,32244, Control_c, 0, 67, 32
2,32247, Note_on_c, 0, 59, 0
2,32259, Control_c, 0, 64, 45
2,32259, Control_c, 0, 67, 0
2,32273, Note_on_c, 0, 52, 58
2,32275, Control_c, 0, 64, 46
2,32278, Note_on_c, 0, 61, 77
2,32289, Control_c, 0, 64, 47
2,32304, Control_c, 0, 64, 48
2,32334, Control_c, 0, 64, 47
2,32350, Control_c, 0, 64, 47
2,32363, Note_on_c, 0, 52, 0
2,32363, Note_on_c, 0, 61, 0
2,32365, Control_c, 0, 64, 45
2,32380, Control_c, 0, 64, 41
2,32394, Note_on_c, 0, 54, 59
2,32396, Control_c, 0, 64, 38
2,32397, Note_on_c, 0, 62, 75
2,32410, Control_c, 0, 64, 35
2,32425, Control_c, 0, 64, 32
2,32441, Control_c, 0, 64, 29
2,32456, Control_c, 0, 64, 22
2,32472, Control_c, 0, 64, 10
2,32473, Note_on_c, 0, 54, 0
2,32483, Note_on_c, 0, 62, 0
2,32486, Control_c, 0, 64, 0
2,32490, Note_on_c, 0, 64, 75
2,32499, Note_on_c, 0, 55, 66
2,32502, Control_c, 0, 64, 10
2,32518, Control_c, 0, 64, 19
2,32533, Control_c, 0, 64, 27
2,32548, Control_c, 0, 64, 28
2,32563, Control_c, 0, 64, 24
2,32568, Note_on_c, 0, 64, 0
2,32578, Control_c, 0, 64, 0
2,32604, Note_on_c, 0, 55, 0
2,32621, Note_on_c, 0, 54, 62
2,32623, Note_on_c, 0, 66, 76
2,32626, Note_on_c, 0, 69, 71
2,32654, Control_c, 0, 64, 21
2,32670, Control_c, 0, 64, 31
2,32685, Control_c, 0, 64, 36
2,32700, Control_c, 0, 64, 39
2,32700, Note_on_c, 0, 69, 0
2,32715, Control_c, 0, 64, 40
2,32730, Control_c, 0, 64, 41
2,32761, Control_c, 0, 64, 41
2,32776, Control_c, 0, 64, 42
2,32799, Control_c, 0, 64, 43
2,32814, Control_c, 0, 64, 44
2,32840, Note_on_c, 0, 66, 0
2,32844, Control_c, 0, 64, 39
2,32859, Control_c, 0, 64, 25
2,32859, Control_c, 0, 67, 13
2,32875, Control_c, 0, 64, 0
2,32875, Control_c, 0, 67, 38
2,32879, Note_on_c, 0, 54, 0
2,32887, Note_on_c, 0, 67, 63
2,32890, Control_c, 0, 67, 76
2,32894, Note_on_c, 0, 59, 53
2,32904, Note_on_c, 0, 64, 40
2,32905, Control_c, 0, 67, 120
2,32920, Control_c, 0, 67, 127
2,32926, Note_on_c, 0, 59, 0
2,32932, Note_on_c, 0, 64, 0
2,32956, Note_on_c, 0, 67, 0
2,32977, Note_on_c, 0, 69, 75
2,33072, Note_on_c, 0, 69, 0
2,33093, Note_on_c, 0, 71, 69
2,33106, Note_on_c, 0, 63, 65
2,33111, Note_on_c, 0, 47, 52
2,33135, Note_on_c, 0, 63, 0
2,33143, Note_on_c, 0, 47, 0
2,33148, Note_on_c, 0, 71, 0
2,33198, Note_on_c, 0, 69, 69
2,33285, Note_on_c, 0, 69, 0
2,33320, Note_on_c, 0, 67, 70
2,33328, Note_on_c, 0, 64, 62
2,33335, Note_on_c, 0, 52, 45
2,33398, Note_on_c, 0, 67, 0
2,33532, Note_on_c, 0, 52, 0
2,33577, Note_on_c, 0, 66, 66
2,33580, Note_on_c, 0, 64, 0
2,33587, Note_on_c, 0, 62, 57
2,33589, Note_on_c, 0, 57, 54
2,33625, Note_on_c, 0, 62, 0
2,33631, Note_on_c, 0, 57, 0
2,33651, Note_on_c, 0, 66, 0
2,33677, Note_on_c, 0, 67, 73
2,33767, Note_on_c, 0, 67, 0
2,33787, Note_on_c, 0, 69, 67
2,33805, Note_on_c, 0, 45, 55
2,33816, Note_on_c, 0, 61, 44
2,33831, Note_on_c, 0, 45, 0
2,33840, Note_on_c, 0, 61, 0
2,33849, Note_on_c, 0, 69, 0
2,33895, Note_on_c, 0, 67, 69
2,33986, Note_on_c, 0, 67, 0
2,34021, Control_c, 0, 64, 48
2,34021, Note_on_c, 0, 66, 73
2,34036, Note_on_c, 0, 50, 56
2,34037, Control_c, 0, 64, 63
2,34052, Control_c, 0, 64, 69
2,34053, Note_on_c, 0, 62, 45
2,34060, Note_on_c, 0, 50, 0
2,34067, Control_c, 0, 64, 73
2,34068, Note_on_c, 0, 66, 0
2,34083, Control_c, 0, 64, 77
2,34083, Note_on_c, 0, 62, 0
2,34097, Control_c, 0, 64, 79
2,34113, Control_c, 0, 64, 80
2,34144, Control_c, 0, 64, 80
2,34250, Control_c, 0, 64, 80
2,34256, Note_on_c, 0, 67, 76
2,34261, Note_on_c, 0, 61, 69
2,34265, Control_c, 0, 64, 77
2,34281, Control_c, 0, 64, 72
2,34296, Control_c, 0, 64, 64
2,34296, Note_on_c, 0, 67, 0
2,34297, Note_on_c, 0, 52, 31
2,34312, Control_c, 0, 64, 0
2,34338, Note_on_c, 0, 52, 0
2,34340, Note_on_c, 0, 61, 0
2,34369, Note_on_c, 0, 59, 72
2,34442, Note_on_c, 0, 59, 0
2,34485, Note_on_c, 0, 69, 73
2,34488, Note_on_c, 0, 54, 61
2,34492, Note_on_c, 0, 57, 55
2,34531, Note_on_c, 0, 69, 0
2,34602, Note_on_c, 0, 60, 59
2,34684, Note_on_c, 0, 60, 0
2,34686, Note_on_c, 0, 57, 0
2,34712, Note_on_c, 0, 74, 73
2,34724, Note_on_c, 0, 59, 47
2,34744, Control_c, 0, 64, 67
2,34758, Note_on_c, 0, 74, 0
2,34760, Control_c, 0, 64, 75
2,34775, Control_c, 0, 64, 79
2,34783, Note_on_c, 0, 59, 0
2,34791, Control_c, 0, 64, 79
2,34821, Control_c, 0, 64, 81
2,34826, Note_on_c, 0, 60, 52
2,34837, Control_c, 0, 64, 82
2,34849, Note_on_c, 0, 54, 0
2,34852, Control_c, 0, 64, 84
2,34866, Control_c, 0, 64, 85
2,34882, Control_c, 0, 64, 85
2,34895, Note_on_c, 0, 60, 0
2,34936, Note_on_c, 0, 59, 41
2,34942, Note_on_c, 0, 66, 76
2,34962, Note_on_c, 0, 55, 56
2,34962, Note_on_c, 0, 59, 0
2,34984, Note_on_c, 0, 66, 0
2,34989, Control_c, 0, 64, 85
2,35005, Control_c, 0, 64, 82
2,35005, Note_on_c, 0, 64, 73
2,35009, Note_on_c, 0, 55, 0
2,35019, Control_c, 0, 64, 77
2,35035, Control_c, 0, 64, 69
2,35046, Note_on_c, 0, 64, 0
2,35050, Control_c, 0, 64, 45
2,35063, Note_on_c, 0, 57, 61
2,35065, Control_c, 0, 64, 0
2,35065, Note_on_c, 0, 66, 68
2,35118, Note_on_c, 0, 57, 0
2,35118, Note_on_c, 0, 66, 0
2,35128, Note_on_c, 0, 64, 68
2,35170, Note_on_c, 0, 64, 0
2,35182, Note_on_c, 0, 55, 58
2,35186, Note_on_c, 0, 66, 59
2,35195, Note_on_c, 0, 49, 48
2,35224, Note_on_c, 0, 49, 0
2,35227, Note_on_c, 0, 64, 58
2,35228, Note_on_c, 0, 66, 0
2,35231, Note_on_c, 0, 55, 0
2,35264, Note_on_c, 0, 64, 0
2,35276, Note_on_c, 0, 62, 64
2,35292, Note_on_c, 0, 59, 56
2,35307, Note_on_c, 0, 62, 0
2,35324, Note_on_c, 0, 64, 49
2,35338, Note_on_c, 0, 59, 0
2,35377, Note_on_c, 0, 66, 68
2,35387, Note_on_c, 0, 64, 0
2,35401, Note_on_c, 0, 57, 61
2,35418, Note_on_c, 0, 50, 43
2,35507, Note_on_c, 0, 57, 0
2,35522, Note_on_c, 0, 59, 60
2,35592, Note_on_c, 0, 59, 0
2,35621, Note_on_c, 0, 67, 79
2,35625, Note_on_c, 0, 66, 0
2,35631, Note_on_c, 0, 57, 63
2,35664, Note_on_c, 0, 67, 0
2,35695, Note_on_c, 0, 57, 0
2,35727, Note_on_c, 0, 55, 61
2,35840, Note_on_c, 0, 55, 0
2,35849, Note_on_c, 0, 69, 78
2,35867, Note_on_c, 0, 54, 51
2,35913, Note_on_c, 0, 69, 0
2,35934, Note_on_c, 0, 54, 0
2,35946, Note_on_c, 0, 57, 57
2,36072, Note_on_c, 0, 57, 0
2,36086, Note_on_c, 0, 71, 75
2,36100, Note_on_c, 0, 55, 42
2,36115, Control_c, 0, 64, 67
2,36130, Control_c, 0, 64, 72
2,36142, Note_on_c, 0, 71, 0
2,36144, Control_c, 0, 64, 75
2,36146, Note_on_c, 0, 55, 0
2,36160, Control_c, 0, 64, 76
2,36175, Control_c, 0, 64, 77
2,36191, Control_c, 0, 64, 79
2,36200, Note_on_c, 0, 57, 49
2,36205, Control_c, 0, 64, 80
2,36220, Control_c, 0, 64, 81
2,36236, Control_c, 0, 64, 82
2,36251, Control_c, 0, 64, 82
2,36303, Note_on_c, 0, 57, 0
2,36312, Control_c, 0, 64, 81
2,36315, Note_on_c, 0, 55, 41
2,36322, Note_on_c, 0, 62, 58
2,36327, Control_c, 0, 64, 78
2,36342, Control_c, 0, 64, 73
2,36344, Note_on_c, 0, 62, 0
2,36357, Control_c, 0, 64, 65
2,36360, Note_on_c, 0, 61, 62
2,36365, Note_on_c, 0, 55, 0
2,36372, Control_c, 0, 64, 0
2,36392, Note_on_c, 0, 54, 47
2,36406, Note_on_c, 0, 61, 0
2,36417, Note_on_c, 0, 62, 62
2,36436, Note_on_c, 0, 50, 0
2,36463, Note_on_c, 0, 54, 0
2,36468, Note_on_c, 0, 62, 0
2,36483, Note_on_c, 0, 61, 66
2,36518, Note_on_c, 0, 52, 47
2,36527, Note_on_c, 0, 61, 0
2,36541, Note_on_c, 0, 62, 63
2,36597, Note_on_c, 0, 61, 61
2,36598, Note_on_c, 0, 62, 0
2,36640, Note_on_c, 0, 52, 0
2,36645, Note_on_c, 0, 61, 0
2,36647, Note_on_c, 0, 55, 53
2,36658, Note_on_c, 0, 59, 63
2,36702, Note_on_c, 0, 61, 70
2,36705, Note_on_c, 0, 59, 0
2,36732, Note_on_c, 0, 61, 0
2,36742, Note_on_c, 0, 55, 0
2,36759, Note_on_c, 0, 62, 74
2,36769, Note_on_c, 0, 54, 47
2,36797, Note_on_c, 0, 62, 0
2,36851, Note_on_c, 0, 54, 0
2,36876, Note_on_c, 0, 55, 53
2,36983, Note_on_c, 0, 55, 0
2,36983, Note_on_c, 0, 62, 69
2,36988, Note_on_c, 0, 54, 52
2,37057, Note_on_c, 0, 62, 0
2,37079, Note_on_c, 0, 54, 0
2,37090, Note_on_c, 0, 52, 57
2,37092, Note_on_c, 0, 64, 73
2,37170, Note_on_c, 0, 64, 0
2,37180, Note_on_c, 0, 52, 0
2,37204, Note_on_c, 0, 50, 64
2,37204, Note_on_c, 0, 66, 72
2,37276, Note_on_c, 0, 66, 0
2,37300, Note_on_c, 0, 52, 69
2,37303, Note_on_c, 0, 67, 75
2,37305, Note_on_c, 0, 50, 0
2,37366, Note_on_c, 0, 67, 0
2,37423, Note_on_c, 0, 52, 0
2,37426, Note_on_c, 0, 54, 70
2,37426, Note_on_c, 0, 69, 73
2,37471, Note_on_c, 0, 69, 0
2,37505, Note_on_c, 0, 54, 0
2,37524, Note_on_c, 0, 55, 76
2,37559, Control_c, 0, 67, 106
2,37574, Control_c, 0, 67, 69
2,37589, Control_c, 0, 67, 27
2,37605, Control_c, 0, 67, 0
2,37614, Note_on_c, 0, 55, 0
2,37646, Note_on_c, 0, 66, 77
2,37651, Note_on_c, 0, 57, 63
2,37696, Note_on_c, 0, 57, 0
2,37717, Note_on_c, 0, 66, 0
2,37745, Note_on_c, 0, 67, 75
2,37747, Note_on_c, 0, 59, 69
2,37803, Note_on_c, 0, 59, 0
2,37822, Note_on_c, 0, 67, 0
2,37855, Note_on_c, 0, 60, 71
2,37864, Note_on_c, 0, 69, 76
2,37892, Note_on_c, 0, 60, 0
2,37929, Note_on_c, 0, 69, 0
2,37948, Note_on_c, 0, 62, 67
2,37964, Note_on_c, 0, 71, 73
2,38028, Note_on_c, 0, 62, 0
2,38038, Note_on_c, 0, 71, 0
2,38081, Note_on_c, 0, 72, 82
2,38093, Note_on_c, 0, 54, 65
2,38096, Note_on_c, 0, 50, 62
2,38117, Note_on_c, 0, 72, 0
2,38291, Note_on_c, 0, 50, 0
2,38300, Note_on_c, 0, 48, 45
2,38334, Note_on_c, 0, 69, 78
2,38360, Note_on_c, 0, 69, 0
2,38420, Note_on_c, 0, 48, 0
2,38421, Note_on_c, 0, 50, 65
2,38486, Note_on_c, 0, 54, 0
2,38545, Note_on_c, 0, 50, 0
2,38548, Note_on_c, 0, 71, 85
2,38551, Note_on_c, 0, 52, 68
2,38561, Note_on_c, 0, 67, 71
2,38652, Note_on_c, 0, 52, 0
2,38661, Note_on_c, 0, 50, 72
2,38757, Note_on_c, 0, 71, 0
2,38759, Note_on_c, 0, 50, 0
2,38777, Note_on_c, 0, 67, 0
2,38780, Note_on_c, 0, 48, 77
2,38789, Note_on_c, 0, 69, 73
2,38829, Control_c, 0, 64, 60
2,38845, Control_c, 0, 64, 67
2,38859, Control_c, 0, 64, 70
2,38863, Note_on_c, 0, 48, 0
2,38875, Control_c, 0, 64, 71
2,38890, Control_c, 0, 64, 72
2,38905, Control_c, 0, 64, 73
2,38921, Control_c, 0, 64, 74
2,38942, Control_c, 0, 64, 74
2,38958, Control_c, 0, 64, 75
2,39010, Note_on_c, 0, 69, 0
2,39019, Control_c, 0, 64, 74
2,39025, Note_on_c, 0, 67, 72
2,39028, Note_on_c, 0, 47, 78
2,39035, Control_c, 0, 64, 73
2,39050, Control_c, 0, 64, 71
2,39065, Control_c, 0, 64, 67
2,39081, Control_c, 0, 64, 61
2,39095, Control_c, 0, 64, 42
2,39111, Control_c, 0, 64, 0
2,39131, Note_on_c, 0, 48, 78
2,39137, Note_on_c, 0, 47, 0
2,39199, Note_on_c, 0, 67, 0
2,39229, Note_on_c, 0, 48, 0
2,39241, Note_on_c, 0, 66, 77
2,39248, Note_on_c, 0, 50, 78
2,39278, Note_on_c, 0, 66, 0
2,39319, Note_on_c, 0, 50, 0
2,39341, Note_on_c, 0, 48, 82
2,39432, Note_on_c, 0, 48, 0
2,39466, Note_on_c, 0, 47, 82
2,39482, Note_on_c, 0, 67, 62
2,39543, Note_on_c, 0, 67, 0
2,39584, Note_on_c, 0, 79, 68
2,39663, Note_on_c, 0, 79, 0
2,39707, Note_on_c, 0, 48, 82
2,39708, Note_on_c, 0, 78, 68
2,39720, Note_on_c, 0, 47, 0
2,39764, Note_on_c, 0, 48, 0
2,39791, Note_on_c, 0, 78, 0
2,39819, Note_on_c, 0, 76, 65
2,39936, Note_on_c, 0, 50, 79
2,39936, Note_on_c, 0, 74, 68
2,39976, Note_on_c, 0, 50, 0
2,39983, Note_on_c, 0, 76, 0
2,40012, Note_on_c, 0, 74, 0
2,40035, Note_on_c, 0, 78, 70
2,40126, Note_on_c, 0, 78, 0
2,40163, Note_on_c, 0, 55, 79
2,40163, Note_on_c, 0, 76, 64
2,40197, Control_c, 0, 67, 12
2,40211, Control_c, 0, 67, 22
2,40226, Control_c, 0, 67, 40
2,40242, Control_c, 0, 67, 65
2,40250, Note_on_c, 0, 76, 0
2,40257, Control_c, 0, 67, 85
2,40273, Control_c, 0, 67, 102
2,40277, Note_on_c, 0, 78, 63
2,40288, Control_c, 0, 67, 116
2,40303, Control_c, 0, 67, 127
2,40378, Note_on_c, 0, 78, 0
2,40410, Note_on_c, 0, 45, 71
2,40417, Note_on_c, 0, 76, 52
2,40439, Note_on_c, 0, 55, 0
2,40507, Note_on_c, 0, 76, 0
2,40544, Note_on_c, 0, 74, 57
2,40624, Note_on_c, 0, 74, 0
2,40674, Note_on_c, 0, 72, 56
2,40719, Note_on_c, 0, 72, 0
2,40775, Note_on_c, 0, 76, 59
2,40889, Note_on_c, 0, 47, 69
2,40892, Note_on_c, 0, 45, 0
2,40898, Note_on_c, 0, 76, 0
2,40899, Note_on_c, 0, 74, 60
2,40981, Note_on_c, 0, 74, 0
2,41015, Note_on_c, 0, 76, 61
2,41095, Note_on_c, 0, 47, 0
2,41109, Note_on_c, 0, 76, 0
2,41134, Note_on_c, 0, 48, 61
2,41139, Note_on_c, 0, 74, 55
2,41179, Note_on_c, 0, 48, 0
2,41211, Note_on_c, 0, 74, 0
2,41250, Note_on_c, 0, 72, 62
2,41300, Note_on_c, 0, 72, 0
2,41366, Note_on_c, 0, 50, 69
2,41371, Note_on_c, 0, 71, 53
2,41400, Note_on_c, 0, 50, 0
2,41410, Note_on_c, 0, 71, 0
2,41471, Note_on_c, 0, 74, 58
2,41568, Note_on_c, 0, 74, 0
2,41594, Note_on_c, 0, 72, 61
2,41597, Note_on_c, 0, 52, 68
2,41673, Note_on_c, 0, 72, 0
2,41709, Note_on_c, 0, 74, 59
2,41816, Note_on_c, 0, 74, 0
2,41818, Note_on_c, 0, 42, 61
2,41841, Note_on_c, 0, 72, 56
2,41875, Note_on_c, 0, 52, 0
2,41920, Note_on_c, 0, 72, 0
2,41947, Note_on_c, 0, 71, 57
2,42015, Note_on_c, 0, 71, 0
2,42079, Note_on_c, 0, 69, 54
2,42120, Note_on_c, 0, 69, 0
2,42184, Note_on_c, 0, 72, 61
2,42256, Note_on_c, 0, 42, 0
2,42279, Note_on_c, 0, 72, 0
2,42303, Note_on_c, 0, 43, 69
2,42306, Note_on_c, 0, 71, 69
2,42401, Note_on_c, 0, 71, 0
2,42404, Note_on_c, 0, 43, 0
2,42414, Note_on_c, 0, 45, 71
2,42414, Note_on_c, 0, 69, 72
2,42479, Note_on_c, 0, 69, 0
2,42514, Note_on_c, 0, 45, 0
2,42530, Note_on_c, 0, 67, 66
2,42532, Note_on_c, 0, 47, 77
2,42573, Note_on_c, 0, 67, 0
2,42645, Note_on_c, 0, 71, 63
2,42692, Note_on_c, 0, 71, 0
2,42756, Note_on_c, 0, 66, 75
2,42780, Note_on_c, 0, 62, 59
2,42805, Note_on_c, 0, 62, 0
2,42809, Note_on_c, 0, 66, 0
2,42879, Note_on_c, 0, 71, 65
2,42909, Note_on_c, 0, 71, 0
2,42994, Note_on_c, 0, 64, 74
2,43011, Note_on_c, 0, 61, 53
2,43042, Note_on_c, 0, 61, 0
2,43054, Control_c, 0, 64, 34
2,43069, Control_c, 0, 64, 44
2,43084, Control_c, 0, 64, 45
2,43099, Control_c, 0, 64, 45
2,43105, Note_on_c, 0, 71, 68
2,43109, Note_on_c, 0, 45, 56
2,43114, Control_c, 0, 64, 46
2,43120, Note_on_c, 0, 47, 0
2,43129, Control_c, 0, 64, 47
2,43144, Control_c, 0, 64, 47
2,43162, Control_c, 0, 64, 47
2,43176, Control_c, 0, 64, 46
2,43184, Note_on_c, 0, 64, 0
2,43191, Control_c, 0, 64, 45
2,43191, Note_on_c, 0, 71, 0
2,43192, Note_on_c, 0, 45, 0
2,43207, Control_c, 0, 64, 43
2,43215, Note_on_c, 0, 43, 58
2,43220, Note_on_c, 0, 62, 73
2,43222, Control_c, 0, 64, 39
2,43236, Control_c, 0, 64, 32
2,43252, Control_c, 0, 64, 18
2,43260, Note_on_c, 0, 62, 0
2,43267, Control_c, 0, 64, 0
2,43270, Note_on_c, 0, 43, 0
2,43326, Note_on_c, 0, 71, 65
2,43327, Note_on_c, 0, 42, 64
2,43366, Note_on_c, 0, 71, 0
2,43377, Note_on_c, 0, 42, 0
2,43432, Note_on_c, 0, 40, 60
2,43434, Control_c, 0, 64, 10
2,43444, Note_on_c, 0, 61, 68
2,43450, Control_c, 0, 64, 13
2,43465, Control_c, 0, 64, 18
2,43481, Control_c, 0, 64, 19
2,43491, Note_on_c, 0, 61, 0
2,43496, Control_c, 0, 64, 22
2,43500, Note_on_c, 0, 40, 0
2,43510, Control_c, 0, 64, 26
2,43526, Control_c, 0, 64, 28
2,43552, Note_on_c, 0, 43, 64
2,43563, Note_on_c, 0, 71, 62
2,43604, Note_on_c, 0, 43, 0
2,43609, Control_c, 0, 64, 29
2,43611, Note_on_c, 0, 71, 0
2,43624, Control_c, 0, 64, 30
2,43656, Note_on_c, 0, 42, 68
2,43674, Note_on_c, 0, 69, 67
2,43725, Note_on_c, 0, 42, 0
2,43731, Control_c, 0, 64, 31
2,43740, Note_on_c, 0, 69, 0
2,43760, Note_on_c, 0, 43, 65
2,43762, Control_c, 0, 64, 32
2,43775, Note_on_c, 0, 67, 70
2,43807, Control_c, 0, 64, 32
2,43844, Note_on_c, 0, 67, 0
2,43865, Note_on_c, 0, 43, 0
2,43867, Control_c, 0, 64, 33
2,43889, Note_on_c, 0, 66, 73
2,43891, Note_on_c, 0, 45, 65
2,43913, Control_c, 0, 64, 34
2,43942, Control_c, 0, 64, 34
2,43958, Control_c, 0, 64, 35
2,43960, Note_on_c, 0, 66, 0
2,43996, Note_on_c, 0, 69, 63
2,44019, Control_c, 0, 64, 36
2,44043, Note_on_c, 0, 69, 0
2,44050, Control_c, 0, 64, 36
2,44111, Note_on_c, 0, 64, 72
2,44135, Note_on_c, 0, 61, 50
2,44156, Note_on_c, 0, 61, 0
2,44177, Note_on_c, 0, 64, 0
2,44202, Control_c, 0, 64, 36
2,44229, Note_on_c, 0, 69, 59
2,44263, Control_c, 0, 64, 35
2,44266, Note_on_c, 0, 69, 0
2,44360, Note_on_c, 0, 62, 64
2,44376, Control_c, 0, 64, 36
2,44384, Note_on_c, 0, 59, 31
2,44422, Control_c, 0, 64, 36
2,44438, Control_c, 0, 64, 37
2,44467, Note_on_c, 0, 62, 0
2,44468, Control_c, 0, 64, 38
2,44471, Note_on_c, 0, 69, 62
2,44474, Note_on_c, 0, 43, 50
2,44480, Note_on_c, 0, 45, 0
2,44498, Control_c, 0, 64, 38
2,44529, Control_c, 0, 64, 39
2,44547, Note_on_c, 0, 43, 0
2,44559, Control_c, 0, 64, 39
2,44570, Note_on_c, 0, 42, 56
2,44578, Note_on_c, 0, 69, 0
2,44590, Note_on_c, 0, 61, 67
2,44621, Note_on_c, 0, 59, 0
2,44630, Note_on_c, 0, 42, 0
2,44649, Note_on_c, 0, 61, 0
2,44681, Control_c, 0, 64, 40
2,44686, Note_on_c, 0, 40, 56
2,44694, Note_on_c, 0, 69, 60
2,44732, Note_on_c, 0, 69, 0
2,44735, Note_on_c, 0, 40, 0
2,44741, Control_c, 0, 64, 40
2,44781, Note_on_c, 0, 38, 61
2,44805, Note_on_c, 0, 59, 55
2,44834, Control_c, 0, 64, 41
2,44846, Note_on_c, 0, 59, 0
2,44857, Note_on_c, 0, 38, 0
2,44908, Note_on_c, 0, 69, 59
2,44914, Note_on_c, 0, 42, 52
2,44948, Note_on_c, 0, 69, 0
2,44975, Note_on_c, 0, 42, 0
2,44986, Control_c, 0, 64, 41
2,45023, Note_on_c, 0, 40, 66
2,45029, Note_on_c, 0, 67, 63
2,45046, Control_c, 0, 64, 42
2,45061, Control_c, 0, 64, 42
2,45085, Control_c, 0, 64, 43
2,45097, Note_on_c, 0, 67, 0
2,45107, Note_on_c, 0, 40, 0
2,45115, Control_c, 0, 64, 43
2,45128, Note_on_c, 0, 42, 65
2,45144, Note_on_c, 0, 66, 67
2,45175, Control_c, 0, 64, 44
2,45214, Note_on_c, 0, 66, 0
2,45234, Note_on_c, 0, 42, 0
2,45255, Note_on_c, 0, 43, 68
2,45258, Note_on_c, 0, 64, 64
2,45266, Control_c, 0, 64, 44
2,45297, Control_c, 0, 64, 45
2,45302, Note_on_c, 0, 64, 0
2,45370, Note_on_c, 0, 67, 62
2,45414, Note_on_c, 0, 67, 0
2,45486, Note_on_c, 0, 62, 60
2,45524, Note_on_c, 0, 62, 0
2,45594, Note_on_c, 0, 67, 56
2,45632, Note_on_c, 0, 67, 0
2,45679, Control_c, 0, 64, 46
2,45693, Control_c, 0, 64, 51
2,45708, Control_c, 0, 64, 54
2,45712, Note_on_c, 0, 61, 64
2,45724, Control_c, 0, 64, 57
2,45739, Control_c, 0, 64, 59
2,45743, Note_on_c, 0, 57, 31
2,45754, Control_c, 0, 64, 61
2,45769, Control_c, 0, 64, 63
2,45780, Note_on_c, 0, 57, 0
2,45784, Control_c, 0, 64, 64
2,45791, Note_on_c, 0, 43, 0
2,45800, Control_c, 0, 64, 64
2,45812, Note_on_c, 0, 42, 57
2,45814, Control_c, 0, 64, 65
2,45818, Note_on_c, 0, 67, 63
2,45831, Note_on_c, 0, 61, 0
2,45885, Note_on_c, 0, 42, 0
2,45886, Note_on_c, 0, 67, 0
2,45898, Control_c, 0, 64, 64
2,45913, Control_c, 0, 64, 63
2,45929, Control_c, 0, 64, 60
2,45944, Control_c, 0, 64, 51
2,45945, Note_on_c, 0, 59, 62
2,45947, Note_on_c, 0, 40, 56
2,45960, Control_c, 0, 64, 22
2,45974, Control_c, 0, 64, 0
2,45995, Note_on_c, 0, 59, 0
2,46004, Note_on_c, 0, 40, 0
2,46058, Note_on_c, 0, 67, 57
2,46060, Note_on_c, 0, 38, 45
2,46094, Note_on_c, 0, 38, 0
2,46098, Note_on_c, 0, 67, 0
2,46153, Note_on_c, 0, 37, 57
2,46163, Note_on_c, 0, 57, 61
2,46195, Note_on_c, 0, 37, 0
2,46208, Note_on_c, 0, 57, 0
2,46260, Control_c, 0, 64, 47
2,46266, Note_on_c, 0, 67, 65
2,46269, Note_on_c, 0, 40, 47
2,46275, Control_c, 0, 64, 60
2,46291, Control_c, 0, 64, 64
2,46303, Note_on_c, 0, 40, 0
2,46304, Note_on_c, 0, 67, 0
2,46306, Control_c, 0, 64, 65
2,46321, Control_c, 0, 64, 66
2,46337, Control_c, 0, 64, 67
2,46352, Control_c, 0, 64, 67
2,46371, Note_on_c, 0, 38, 52
2,46375, Note_on_c, 0, 66, 73
2,46397, Control_c, 0, 64, 67
2,46403, Note_on_c, 0, 66, 0
2,46413, Control_c, 0, 64, 65
2,46428, Control_c, 0, 64, 63
2,46435, Note_on_c, 0, 38, 0
2,46443, Control_c, 0, 64, 56
2,46459, Control_c, 0, 64, 34
2,46474, Control_c, 0, 64, 0
2,46487, Note_on_c, 0, 40, 56
2,46487, Note_on_c, 0, 74, 58
2,46533, Note_on_c, 0, 40, 0
2,46536, Note_on_c, 0, 74, 0
2,46586, Note_on_c, 0, 42, 64
2,46596, Note_on_c, 0, 72, 64
2,46647, Note_on_c, 0, 42, 0
2,46661, Note_on_c, 0, 72, 0
2,46702, Note_on_c, 0, 38, 54
2,46710, Note_on_c, 0, 71, 65
2,46740, Note_on_c, 0, 38, 0
2,46758, Note_on_c, 0, 71, 0
2,46811, Note_on_c, 0, 43, 70
2,46822, Note_on_c, 0, 69, 65
2,46856, Note_on_c, 0, 43, 0
2,46861, Note_on_c, 0, 69, 0
2,46910, Note_on_c, 0, 38, 63
2,46918, Note_on_c, 0, 67, 67
2,46954, Note_on_c, 0, 38, 0
2,46960, Note_on_c, 0, 67, 0
2,47028, Note_on_c, 0, 45, 77
2,47028, Note_on_c, 0, 66, 69
2,47103, Note_on_c, 0, 66, 0
2,47141, Note_on_c, 0, 64, 63
2,47153, Note_on_c, 0, 38, 43
2,47199, Note_on_c, 0, 38, 0
2,47206, Note_on_c, 0, 64, 0
2,47220, Note_on_c, 0, 45, 0
2,47258, Note_on_c, 0, 47, 63
2,47262, Note_on_c, 0, 62, 70
2,47304, Note_on_c, 0, 62, 0
2,47309, Note_on_c, 0, 47, 0
2,47371, Note_on_c, 0, 60, 66
2,47379, Note_on_c, 0, 38, 57
2,47408, Note_on_c, 0, 60, 0
2,47428, Note_on_c, 0, 38, 0
2,47487, Note_on_c, 0, 59, 73
2,47497, Note_on_c, 0, 48, 60
2,47530, Note_on_c, 0, 59, 0
2,47533, Note_on_c, 0, 48, 0
2,47589, Note_on_c, 0, 57, 74
2,47603, Note_on_c, 0, 38, 52
2,47642, Note_on_c, 0, 57, 0
2,47655, Note_on_c, 0, 38, 0
2,47660, Control_c, 0, 64, 56
2,47675, Control_c, 0, 64, 64
2,47691, Control_c, 0, 64, 66
2,47706, Control_c, 0, 64, 67
2,47709, Note_on_c, 0, 55, 69
2,47715, Note_on_c, 0, 47, 62
2,47720, Control_c, 0, 64, 68
2,47736, Control_c, 0, 64, 70
2,47745, Note_on_c, 0, 47, 0
2,47751, Control_c, 0, 64, 72
2,47755, Note_on_c, 0, 55, 0
2,47767, Control_c, 0, 64, 74
2,47782, Control_c, 0, 64, 75
2,47813, Note_on_c, 0, 57, 72
2,47825, Note_on_c, 0, 55, 56
2,47871, Note_on_c, 0, 57, 0
2,47882, Note_on_c, 0, 55, 0
2,47917, Control_c, 0, 64, 73
2,47932, Note_on_c, 0, 59, 79
2,47933, Control_c, 0, 64, 69
2,47942, Note_on_c, 0, 53, 61
2,47948, Control_c, 0, 64, 59
2,47963, Control_c, 0, 64, 0
2,47985, Note_on_c, 0, 53, 0
2,47999, Note_on_c, 0, 59, 0
2,48045, Note_on_c, 0, 52, 69
2,48046, Note_on_c, 0, 55, 76
2,48098, Note_on_c, 0, 52, 0
2,48102, Note_on_c, 0, 55, 0
2,48162, Note_on_c, 0, 50, 68
2,48169, Note_on_c, 0, 60, 82
2,48214, Note_on_c, 0, 50, 0
2,48230, Control_c, 0, 64, 47
2,48246, Control_c, 0, 64, 61
2,48251, Note_on_c, 0, 60, 0
2,48261, Control_c, 0, 64, 62
2,48272, Note_on_c, 0, 48, 69
2,48279, Note_on_c, 0, 55, 69
2,48291, Control_c, 0, 64, 63
2,48323, Note_on_c, 0, 48, 0
2,48333, Note_on_c, 0, 55, 0
2,48351, Control_c, 0, 64, 61
2,48367, Control_c, 0, 64, 45
2,48382, Control_c, 0, 64, 0
2,48391, Note_on_c, 0, 47, 72
2,48394, Note_on_c, 0, 62, 83
2,48443, Control_c, 0, 64, 19
2,48459, Control_c, 0, 64, 65
2,48474, Control_c, 0, 64, 72
2,48475, Note_on_c, 0, 47, 0
2,48483, Note_on_c, 0, 62, 0
2,48489, Control_c, 0, 64, 77
2,48500, Note_on_c, 0, 45, 68
2,48504, Control_c, 0, 64, 79
2,48507, Note_on_c, 0, 55, 71
2,48519, Control_c, 0, 64, 79
2,48535, Control_c, 0, 64, 80
2,48556, Note_on_c, 0, 45, 0
2,48579, Note_on_c, 0, 55, 0
2,48580, Control_c, 0, 67, 111
2,48595, Control_c, 0, 67, 87
2,48611, Control_c, 0, 64, 79
2,48611, Control_c, 0, 67, 59
2,48626, Control_c, 0, 64, 75
2,48626, Control_c, 0, 67, 29
2,48630, Note_on_c, 0, 43, 59
2,48633, Note_on_c, 0, 64, 70
2,48640, Control_c, 0, 64, 68
2,48640, Control_c, 0, 67, 0
2,48656, Control_c, 0, 64, 30
2,48671, Control_c, 0, 64, 0
2,48677, Note_on_c, 0, 43, 0
2,48687, Note_on_c, 0, 64, 0
2,48745, Note_on_c, 0, 41, 69
2,48745, Note_on_c, 0, 55, 63
2,48780, Note_on_c, 0, 41, 0
2,48848, Note_on_c, 0, 40, 75
2,48851, Note_on_c, 0, 55, 0
2,48856, Note_on_c, 0, 65, 67
2,48896, Note_on_c, 0, 40, 0
2,48913, Note_on_c, 0, 65, 0
2,48960, Note_on_c, 0, 38, 70
2,48972, Note_on_c, 0, 55, 62
2,49005, Note_on_c, 0, 55, 0
2,49012, Note_on_c, 0, 38, 0
2,49081, Note_on_c, 0, 36, 68
2,49086, Note_on_c, 0, 64, 66
2,49107, Note_on_c, 0, 64, 0
2,49119, Control_c, 0, 64, 41
2,49135, Control_c, 0, 64, 36
2,49146, Note_on_c, 0, 36, 0
2,49166, Control_c, 0, 64, 39
2,49181, Control_c, 0, 64, 41
2,49187, Note_on_c, 0, 38, 69
2,49195, Note_on_c, 0, 72, 73
2,49211, Control_c, 0, 64, 40
2,49232, Note_on_c, 0, 38, 0
2,49250, Note_on_c, 0, 72, 0
2,49294, Note_on_c, 0, 40, 66
2,49305, Note_on_c, 0, 71, 78
2,49317, Control_c, 0, 64, 39
2,49333, Control_c, 0, 64, 36
2,49336, Note_on_c, 0, 40, 0
2,49348, Control_c, 0, 64, 32
2,49363, Control_c, 0, 64, 28
2,49370, Note_on_c, 0, 71, 0
2,49379, Control_c, 0, 64, 25
2,49394, Control_c, 0, 64, 21
2,49403, Note_on_c, 0, 42, 66
2,49409, Control_c, 0, 64, 0
2,49410, Note_on_c, 0, 74, 79
2,49472, Note_on_c, 0, 74, 0
2,49473, Note_on_c, 0, 42, 0
2,49507, Note_on_c, 0, 44, 76
2,49526, Note_on_c, 0, 69, 85
2,49577, Note_on_c, 0, 44, 0
2,49582, Note_on_c, 0, 69, 0
2,49617, Note_on_c, 0, 45, 74
2,49631, Note_on_c, 0, 74, 77
2,49657, Note_on_c, 0, 45, 0
2,49705, Note_on_c, 0, 74, 0
2,49746, Note_on_c, 0, 47, 81
2,49758, Note_on_c, 0, 68, 89
2,49782, Control_c, 0, 64, 62
2,49797, Control_c, 0, 64, 64
2,49842, Control_c, 0, 64, 65
2,49858, Control_c, 0, 64, 65
2,49864, Note_on_c, 0, 47, 0
2,49866, Note_on_c, 0, 68, 0
2,49868, Note_on_c, 0, 74, 71
2,49872, Note_on_c, 0, 48, 71
2,49873, Control_c, 0, 64, 66
2,49937, Note_on_c, 0, 74, 0
2,49938, Note_on_c, 0, 48, 0
2,49963, Control_c, 0, 64, 63
2,49978, Note_on_c, 0, 50, 73
2,49979, Control_c, 0, 64, 54
2,49985, Note_on_c, 0, 66, 80
2,49994, Control_c, 0, 64, 0
2,50038, Note_on_c, 0, 50, 0
2,50055, Note_on_c, 0, 66, 0
2,50088, Note_on_c, 0, 52, 73
2,50091, Note_on_c, 0, 74, 71
2,50131, Note_on_c, 0, 52, 0
2,50169, Note_on_c, 0, 74, 0
2,50195, Note_on_c, 0, 64, 76
2,50200, Note_on_c, 0, 54, 77
2,50254, Note_on_c, 0, 54, 0
2,50256, Note_on_c, 0, 64, 0
2,50296, Note_on_c, 0, 56, 77
2,50298, Note_on_c, 0, 74, 73
2,50339, Note_on_c, 0, 56, 0
2,50372, Note_on_c, 0, 74, 0
2,50415, Note_on_c, 0, 57, 79
2,50420, Note_on_c, 0, 72, 82
2,50458, Control_c, 0, 64, 63
2,50473, Control_c, 0, 64, 66
2,50489, Control_c, 0, 64, 67
2,50492, Note_on_c, 0, 72, 0
2,50511, Note_on_c, 0, 57, 0
2,50531, Note_on_c, 0, 55, 74
2,50532, Note_on_c, 0, 69, 82
2,50578, Note_on_c, 0, 55, 0
2,50597, Note_on_c, 0, 69, 0
2,50626, Control_c, 0, 64, 64
2,50641, Control_c, 0, 64, 56
2,50641, Note_on_c, 0, 54, 72
2,50649, Note_on_c, 0, 71, 81
2,50657, Control_c, 0, 64, 0
2,50699, Note_on_c, 0, 71, 0
2,50710, Note_on_c, 0, 54, 0
2,50746, Note_on_c, 0, 57, 76
2,50757, Note_on_c, 0, 73, 75
2,50805, Note_on_c, 0, 57, 0
2,50823, Note_on_c, 0, 73, 0
2,50864, Note_on_c, 0, 52, 86
2,50865, Note_on_c, 0, 75, 78
2,50921, Note_on_c, 0, 75, 0
2,50932, Note_on_c, 0, 52, 0
2,50968, Note_on_c, 0, 57, 74
2,50969, Note_on_c, 0, 76, 75
2,51025, Note_on_c, 0, 76, 0
2,51038, Note_on_c, 0, 57, 0
2,51080, Note_on_c, 0, 51, 84
2,51092, Note_on_c, 0, 78, 87
2,51156, Note_on_c, 0, 78, 0
2,51196, Note_on_c, 0, 79, 78
2,51210, Note_on_c, 0, 57, 70
2,51265, Note_on_c, 0, 79, 0
2,51295, Note_on_c, 0, 57, 0
2,51320, Note_on_c, 0, 81, 87
2,51327, Note_on_c, 0, 49, 74
2,51344, Note_on_c, 0, 51, 0
2,51374, Note_on_c, 0, 81, 0
2,51412, Note_on_c, 0, 49, 0
2,51428, Note_on_c, 0, 83, 83
2,51436, Note_on_c, 0, 57, 67
2,51486, Note_on_c, 0, 83, 0
2,51520, Note_on_c, 0, 57, 0
2,51537, Note_on_c, 0, 84, 81
2,51538, Note_on_c, 0, 47, 83
2,51580, Note_on_c, 0, 84, 0
2,51645, Note_on_c, 0, 75, 82
2,51657, Note_on_c, 0, 47, 0
2,51658, Note_on_c, 0, 57, 77
2,51696, Note_on_c, 0, 75, 0
2,51736, Note_on_c, 0, 57, 0
2,51791, Note_on_c, 0, 55, 82
2,51793, Note_on_c, 0, 76, 98
2,51805, Control_c, 0, 64, 65
2,51814, Note_on_c, 0, 55, 0
2,51820, Control_c, 0, 64, 80
2,51835, Control_c, 0, 64, 87
2,51850, Control_c, 0, 64, 88
2,51865, Control_c, 0, 64, 89
2,51867, Note_on_c, 0, 76, 0
2,52025, Control_c, 0, 64, 88
2,52040, Control_c, 0, 64, 81
2,52056, Control_c, 0, 64, 66
2,52061, Note_on_c, 0, 78, 87
2,52068, Note_on_c, 0, 60, 68
2,52070, Control_c, 0, 64, 0
2,52118, Note_on_c, 0, 60, 0
2,52150, Note_on_c, 0, 76, 88
2,52153, Note_on_c, 0, 78, 0
2,52210, Note_on_c, 0, 76, 0
2,52271, Note_on_c, 0, 59, 62
2,52271, Note_on_c, 0, 75, 88
2,52302, Note_on_c, 0, 59, 0
2,52320, Note_on_c, 0, 75, 0
2,52362, Note_on_c, 0, 76, 89
2,52409, Note_on_c, 0, 76, 0
2,52488, Note_on_c, 0, 57, 81
2,52494, Note_on_c, 0, 78, 100
2,52541, Control_c, 0, 64, 66
2,52555, Control_c, 0, 64, 70
2,52571, Control_c, 0, 64, 69
2,52571, Note_on_c, 0, 78, 0
2,52586, Control_c, 0, 64, 68
2,52648, Control_c, 0, 64, 68
2,52693, Control_c, 0, 64, 67
2,52708, Control_c, 0, 64, 59
2,52715, Note_on_c, 0, 57, 0
2,52723, Control_c, 0, 64, 0
2,52732, Note_on_c, 0, 79, 85
2,52739, Note_on_c, 0, 59, 60
2,52789, Note_on_c, 0, 59, 0
2,52833, Note_on_c, 0, 78, 87
2,52842, Note_on_c, 0, 79, 0
2,52904, Note_on_c, 0, 78, 0
2,52944, Note_on_c, 0, 76, 88
2,52956, Note_on_c, 0, 47, 69
2,52989, Note_on_c, 0, 47, 0
2,52996, Note_on_c, 0, 76, 0
2,53046, Note_on_c, 0, 78, 92
2,53137, Note_on_c, 0, 78, 0
2,53169, Note_on_c, 0, 79, 90
2,53174, Note_on_c, 0, 52, 74
2,53276, Note_on_c, 0, 52, 0
2,53280, Note_on_c, 0, 54, 69
2,53352, Note_on_c, 0, 54, 0
2,53368, Note_on_c, 0, 79, 0
2,53395, Note_on_c, 0, 55, 64
2,53395, Note_on_c, 0, 78, 91
2,53440, Note_on_c, 0, 78, 0
2,53468, Note_on_c, 0, 55, 0
2,53499, Note_on_c, 0, 52, 64
2,53619, Note_on_c, 0, 52, 0
2,53622, Note_on_c, 0, 76, 88
2,53627, Note_on_c, 0, 57, 75
2,53667, Note_on_c, 0, 76, 0
2,53729, Note_on_c, 0, 57, 0
2,53732, Note_on_c, 0, 52, 67
2,53827, Note_on_c, 0, 52, 0
2,53851, Note_on_c, 0, 59, 78
2,53851, Note_on_c, 0, 71, 90
2,53897, Control_c, 0, 64, 78
2,53911, Note_on_c, 0, 71, 0
2,53912, Control_c, 0, 64, 92
2,53928, Control_c, 0, 64, 99
2,53929, Note_on_c, 0, 59, 0
2,53943, Control_c, 0, 64, 99
2,53958, Control_c, 0, 64, 101
2,53973, Control_c, 0, 64, 108
2,53973, Note_on_c, 0, 52, 63
2,53988, Control_c, 0, 64, 118
2,54004, Control_c, 0, 64, 127
2,54043, Note_on_c, 0, 52, 0
2,54092, Note_on_c, 0, 81, 79
2,54113, Note_on_c, 0, 61, 77
2,54132, Note_on_c, 0, 79, 83
2,54134, Note_on_c, 0, 81, 0
2,54171, Control_c, 0, 64, 101
2,54185, Control_c, 0, 64, 83
2,54190, Note_on_c, 0, 81, 88
2,54193, Note_on_c, 0, 61, 0
2,54201, Control_c, 0, 64, 63
2,54202, Note_on_c, 0, 79, 0
2,54216, Control_c, 0, 64, 0
2,54216, Note_on_c, 0, 52, 74
2,54329, Note_on_c, 0, 63, 71
2,54373, Note_on_c, 0, 52, 0
2,54418, Note_on_c, 0, 63, 0
2,54449, Note_on_c, 0, 52, 67
2,54508, Note_on_c, 0, 52, 0
2,54554, Note_on_c, 0, 64, 66
2,54560, Note_on_c, 0, 81, 0
2,54565, Note_on_c, 0, 79, 86
2,54646, Note_on_c, 0, 64, 0
2,54667, Note_on_c, 0, 63, 67
2,54763, Note_on_c, 0, 63, 0
2,54784, Note_on_c, 0, 64, 69
2,54788, Note_on_c, 0, 78, 88
2,54800, Note_on_c, 0, 79, 0
2,54842, Note_on_c, 0, 78, 0
2,54860, Note_on_c, 0, 64, 0
2,54879, Note_on_c, 0, 66, 67
2,54981, Note_on_c, 0, 66, 0
2,55004, Note_on_c, 0, 76, 89
2,55005, Note_on_c, 0, 67, 79
2,55060, Note_on_c, 0, 76, 0
2,55079, Note_on_c, 0, 67, 0
2,55102, Note_on_c, 0, 64, 70
2,55224, Note_on_c, 0, 64, 0
2,55232, Note_on_c, 0, 66, 80
2,55232, Note_on_c, 0, 75, 93
2,55265, Control_c, 0, 64, 77
2,55280, Note_on_c, 0, 75, 0
2,55281, Control_c, 0, 64, 109
2,55295, Control_c, 0, 64, 127
2,55297, Note_on_c, 0, 66, 0
2,55340, Note_on_c, 0, 64, 73
2,55449, Note_on_c, 0, 64, 0
2,55472, Note_on_c, 0, 66, 78
2,55478, Note_on_c, 0, 84, 87
2,55509, Control_c, 0, 64, 118
2,55524, Control_c, 0, 64, 85
2,55525, Note_on_c, 0, 83, 85
2,55530, Note_on_c, 0, 84, 0
2,55539, Control_c, 0, 64, 0
2,55554, Note_on_c, 0, 66, 0
2,55580, Note_on_c, 0, 67, 77
2,55583, Note_on_c, 0, 84, 85
2,55590, Note_on_c, 0, 83, 0
2,55657, Note_on_c, 0, 67, 0
2,55676, Note_on_c, 0, 69, 78
2,55760, Note_on_c, 0, 69, 0
2,55777, Note_on_c, 0, 66, 82
2,55867, Note_on_c, 0, 66, 0
2,55887, Note_on_c, 0, 84, 0
2,55914, Note_on_c, 0, 83, 95
2,55918, Note_on_c, 0, 67, 89
2,55951, Note_on_c, 0, 67, 0
2,55958, Control_c, 0, 64, 70
2,55973, Control_c, 0, 64, 81
2,55973, Note_on_c, 0, 83, 0
2,55988, Control_c, 0, 64, 88
2,56003, Control_c, 0, 64, 89
2,56018, Control_c, 0, 64, 90
2,56033, Control_c, 0, 64, 93
2,56049, Control_c, 0, 64, 98
2,56063, Control_c, 0, 64, 103
2,56079, Control_c, 0, 64, 106
2,56094, Control_c, 0, 64, 107
2,56125, Control_c, 0, 64, 106
2,56139, Control_c, 0, 64, 97
2,56154, Control_c, 0, 64, 80
2,56158, Note_on_c, 0, 84, 93
2,56161, Note_on_c, 0, 69, 77
2,56170, Control_c, 0, 64, 19
2,56184, Control_c, 0, 64, 0
2,56232, Note_on_c, 0, 69, 0
2,56254, Note_on_c, 0, 67, 74
2,56266, Note_on_c, 0, 83, 88
2,56282, Note_on_c, 0, 84, 0
2,56322, Note_on_c, 0, 67, 0
2,56343, Note_on_c, 0, 83, 0
2,56354, Note_on_c, 0, 66, 73
2,56373, Note_on_c, 0, 81, 85
2,56422, Note_on_c, 0, 66, 0
2,56423, Note_on_c, 0, 81, 0
2,56447, Note_on_c, 0, 64, 72
2,56454, Note_on_c, 0, 79, 80
2,56505, Control_c, 0, 64, 63
2,56519, Note_on_c, 0, 79, 0
2,56520, Control_c, 0, 64, 67
2,56526, Note_on_c, 0, 64, 0
2,56535, Control_c, 0, 64, 65
2,56550, Control_c, 0, 64, 42
2,56563, Note_on_c, 0, 69, 75
2,56566, Control_c, 0, 64, 0
2,56576, Note_on_c, 0, 78, 92
2,56614, Note_on_c, 0, 67, 85
2,56628, Note_on_c, 0, 69, 0
2,56674, Note_on_c, 0, 67, 0
2,56675, Note_on_c, 0, 69, 66
2,56809, Note_on_c, 0, 78, 0
2,56815, Note_on_c, 0, 81, 80
2,56923, Note_on_c, 0, 79, 77
2,56950, Note_on_c, 0, 81, 0
2,56996, Note_on_c, 0, 79, 0
2,57040, Note_on_c, 0, 78, 77
2,57098, Note_on_c, 0, 78, 0
2,57134, Note_on_c, 0, 76, 79
2,57195, Note_on_c, 0, 76, 0
2,57254, Note_on_c, 0, 75, 86
2,57336, Note_on_c, 0, 69, 0
2,57349, Note_on_c, 0, 67, 56
2,57455, Note_on_c, 0, 67, 0
2,57479, Note_on_c, 0, 81, 82
2,57483, Note_on_c, 0, 66, 55
2,57495, Note_on_c, 0, 75, 0
2,57529, Note_on_c, 0, 81, 0
2,57593, Note_on_c, 0, 69, 55
2,57624, Note_on_c, 0, 66, 0
2,57703, Note_on_c, 0, 69, 0
2,57708, Note_on_c, 0, 79, 86
2,57723, Note_on_c, 0, 64, 57
2,57750, Note_on_c, 0, 79, 0
2,57817, Note_on_c, 0, 64, 0
2,57832, Note_on_c, 0, 69, 57
2,57921, Note_on_c, 0, 69, 0
2,57938, Note_on_c, 0, 78, 81
2,57950, Note_on_c, 0, 63, 55
2,58061, Note_on_c, 0, 69, 53
2,58167, Note_on_c, 0, 69, 0
2,58180, Note_on_c, 0, 63, 0
2,58193, Note_on_c, 0, 76, 67
2,58193, Note_on_c, 0, 78, 0
2,58208, Note_on_c, 0, 61, 46
2,58220, Note_on_c, 0, 76, 0
2,58268, Note_on_c, 0, 61, 0
2,58304, Note_on_c, 0, 69, 59
2,58391, Note_on_c, 0, 69, 0
2,58419, Note_on_c, 0, 75, 70
2,58420, Note_on_c, 0, 59, 52
2,58464, Note_on_c, 0, 75, 0
2,58467, Note_on_c, 0, 59, 0
2,58527, Note_on_c, 0, 69, 54
2,58588, Note_on_c, 0, 69, 0
2,58656, Note_on_c, 0, 76, 78
2,58658, Note_on_c, 0, 67, 76
2,58730, Note_on_c, 0, 67, 0
2,58906, Note_on_c, 0, 76, 0
2,58918, Note_on_c, 0, 74, 68
2,58919, Note_on_c, 0, 66, 60
2,58950, Note_on_c, 0, 74, 0
2,59000, Note_on_c, 0, 66, 0
2,59013, Note_on_c, 0, 67, 66
2,59088, Note_on_c, 0, 67, 0
2,59123, Note_on_c, 0, 69, 71
2,59139, Note_on_c, 0, 72, 78
2,59178, Note_on_c, 0, 72, 0
2,59198, Note_on_c, 0, 69, 0
2,59228, Note_on_c, 0, 67, 71
2,59298, Note_on_c, 0, 67, 0
2,59351, Note_on_c, 0, 66, 81
2,59359, Note_on_c, 0, 74, 76
2,59428, Note_on_c, 0, 66, 0
2,59580, Note_on_c, 0, 74, 0
2,59586, Note_on_c, 0, 72, 78
2,59588, Note_on_c, 0, 64, 66
2,59624, Note_on_c, 0, 72, 0
2,59684, Note_on_c, 0, 64, 0
2,59693, Note_on_c, 0, 66, 70
2,59762, Note_on_c, 0, 66, 0
2,59805, Note_on_c, 0, 71, 67
2,59807, Note_on_c, 0, 67, 70
2,59833, Note_on_c, 0, 71, 0
2,59853, Note_on_c, 0, 67, 0
2,59898, Note_on_c, 0, 66, 74
2,59979, Note_on_c, 0, 66, 0
2,60019, Note_on_c, 0, 64, 77
2,60034, Note_on_c, 0, 72, 74
2,60103, Note_on_c, 0, 72, 0
2,60131, Note_on_c, 0, 84, 81
2,60221, Note_on_c, 0, 84, 0
2,60230, Note_on_c, 0, 64, 0
2,60246, Note_on_c, 0, 66, 85
2,60248, Note_on_c, 0, 83, 78
2,60299, Note_on_c, 0, 66, 0
2,60351, Note_on_c, 0, 81, 89
2,60356, Note_on_c, 0, 83, 0
2,60440, Note_on_c, 0, 81, 0
2,60471, Note_on_c, 0, 79, 88
2,60476, Note_on_c, 0, 67, 87
2,60511, Note_on_c, 0, 67, 0
2,60520, Control_c, 0, 64, 52
2,60535, Control_c, 0, 64, 60
2,60549, Note_on_c, 0, 79, 0
2,60550, Control_c, 0, 64, 0
2,60571, Note_on_c, 0, 83, 84
2,60693, Note_on_c, 0, 81, 91
2,60695, Note_on_c, 0, 72, 85
2,60720, Note_on_c, 0, 83, 0
2,60732, Note_on_c, 0, 72, 0
2,60748, Control_c, 0, 64, 79
2,60763, Control_c, 0, 64, 90
2,60778, Control_c, 0, 64, 93
2,60793, Control_c, 0, 64, 92
2,60806, Note_on_c, 0, 83, 74
2,60809, Control_c, 0, 64, 93
2,60833, Note_on_c, 0, 81, 0
2,60840, Control_c, 0, 64, 93
2,60885, Control_c, 0, 64, 94
2,60904, Note_on_c, 0, 64, 76
2,60920, Note_on_c, 0, 81, 80
2,60930, Control_c, 0, 64, 93
2,60938, Note_on_c, 0, 83, 0
2,60945, Control_c, 0, 64, 91
2,60956, Note_on_c, 0, 64, 0
2,60959, Note_on_c, 0, 63, 72
2,60961, Control_c, 0, 64, 84
2,60973, Note_on_c, 0, 81, 0
2,60975, Control_c, 0, 64, 75
2,60990, Control_c, 0, 64, 61
2,60990, Note_on_c, 0, 79, 79
2,61006, Control_c, 0, 64, 0
2,61017, Note_on_c, 0, 64, 54
2,61044, Note_on_c, 0, 64, 0
2,61057, Note_on_c, 0, 79, 0
2,61097, Note_on_c, 0, 78, 70
2,61189, Note_on_c, 0, 78, 0
2,61225, Note_on_c, 0, 81, 73
2,61321, Note_on_c, 0, 63, 0
2,61331, Note_on_c, 0, 64, 70
2,61333, Note_on_c, 0, 81, 0
2,61339, Note_on_c, 0, 79, 71
2,61430, Note_on_c, 0, 79, 0
2,61451, Note_on_c, 0, 81, 73
2,61525, Note_on_c, 0, 64, 0
2,61539, Note_on_c, 0, 81, 0
2,61556, Note_on_c, 0, 66, 80
2,61563, Note_on_c, 0, 79, 66
2,61591, Note_on_c, 0, 66, 0
2,61632, Note_on_c, 0, 79, 0
2,61665, Note_on_c, 0, 78, 71
2,61723, Note_on_c, 0, 78, 0
2,61771, Note_on_c, 0, 67, 84
2,61779, Note_on_c, 0, 76, 62
2,61807, Note_on_c, 0, 67, 0
2,61826, Note_on_c, 0, 76, 0
2,61880, Note_on_c, 0, 79, 72
2,61962, Note_on_c, 0, 79, 0
2,61994, Note_on_c, 0, 69, 80
2,62001, Note_on_c, 0, 78, 73
2,62009, Control_c, 0, 64, 55
2,62024, Control_c, 0, 64, 68
2,62036, Note_on_c, 0, 69, 0
2,62039, Control_c, 0, 64, 75
2,62055, Control_c, 0, 64, 82
2,62070, Control_c, 0, 64, 85
2,62079, Note_on_c, 0, 78, 0
2,62086, Control_c, 0, 64, 86
2,62101, Control_c, 0, 64, 87
2,62102, Note_on_c, 0, 79, 70
2,62115, Control_c, 0, 64, 88
2,62131, Control_c, 0, 64, 89
2,62146, Control_c, 0, 64, 90
2,62161, Control_c, 0, 64, 90
2,62205, Note_on_c, 0, 60, 74
2,62209, Note_on_c, 0, 79, 0
2,62211, Note_on_c, 0, 78, 72
2,62222, Control_c, 0, 64, 89
2,62237, Control_c, 0, 64, 85
2,62252, Control_c, 0, 64, 79
2,62253, Note_on_c, 0, 60, 0
2,62265, Note_on_c, 0, 78, 0
2,62267, Control_c, 0, 64, 71
2,62270, Note_on_c, 0, 59, 66
2,62282, Control_c, 0, 64, 42
2,62290, Note_on_c, 0, 76, 74
2,62298, Control_c, 0, 64, 0
2,62308, Note_on_c, 0, 59, 0
2,62318, Note_on_c, 0, 60, 64
2,62362, Note_on_c, 0, 76, 0
2,62370, Note_on_c, 0, 60, 0
2,62390, Note_on_c, 0, 59, 39
2,62399, Note_on_c, 0, 75, 66
2,62470, Note_on_c, 0, 75, 0
2,62498, Note_on_c, 0, 78, 67
2,62586, Note_on_c, 0, 78, 0
2,62598, Note_on_c, 0, 59, 0
2,62612, Note_on_c, 0, 76, 65
2,62618, Note_on_c, 0, 60, 56
2,62674, Note_on_c, 0, 76, 0
2,62709, Note_on_c, 0, 60, 0
2,62726, Note_on_c, 0, 59, 58
2,62831, Note_on_c, 0, 59, 0
2,62843, Note_on_c, 0, 78, 77
2,62856, Note_on_c, 0, 57, 58
2,62913, Note_on_c, 0, 78, 0
2,62939, Note_on_c, 0, 57, 0
2,62942, Note_on_c, 0, 79, 83
2,62956, Note_on_c, 0, 59, 64
2,63034, Note_on_c, 0, 59, 0
2,63037, Note_on_c, 0, 79, 0
2,63057, Note_on_c, 0, 81, 92
2,63062, Note_on_c, 0, 60, 71
2,63136, Note_on_c, 0, 60, 0
2,63164, Note_on_c, 0, 62, 80
2,63243, Note_on_c, 0, 62, 0
2,63280, Note_on_c, 0, 64, 77
2,63341, Note_on_c, 0, 64, 0
2,63368, Note_on_c, 0, 63, 74
2,63455, Note_on_c, 0, 81, 0
2,63471, Note_on_c, 0, 63, 0
2,63487, Note_on_c, 0, 79, 90
2,63493, Note_on_c, 0, 64, 75
2,63562, Note_on_c, 0, 64, 0
2,63573, Note_on_c, 0, 79, 0
2,63592, Note_on_c, 0, 66, 79
2,63592, Note_on_c, 0, 81, 91
2,63671, Note_on_c, 0, 66, 0
2,63701, Note_on_c, 0, 67, 84
2,63720, Note_on_c, 0, 81, 0
2,63722, Note_on_c, 0, 83, 85
2,63782, Note_on_c, 0, 67, 0
2,63787, Control_c, 0, 64, 78
2,63802, Control_c, 0, 64, 83
2,63809, Note_on_c, 0, 69, 84
2,63847, Note_on_c, 0, 69, 0
2,63909, Control_c, 0, 64, 83
2,63916, Note_on_c, 0, 71, 94
2,63924, Control_c, 0, 64, 84
2,63939, Control_c, 0, 64, 84
2,63954, Control_c, 0, 64, 86
2,63970, Control_c, 0, 64, 88
2,63985, Control_c, 0, 64, 91
2,63999, Control_c, 0, 64, 93
2,64015, Control_c, 0, 64, 96
2,64030, Control_c, 0, 64, 98
2,64046, Control_c, 0, 64, 99
2,64057, Note_on_c, 0, 47, 58
2,64061, Control_c, 0, 64, 99
2,64083, Note_on_c, 0, 49, 84
2,64106, Control_c, 0, 64, 95
2,64107, Note_on_c, 0, 47, 0
2,64121, Control_c, 0, 64, 84
2,64132, Note_on_c, 0, 51, 83
2,64134, Note_on_c, 0, 81, 78
2,64137, Control_c, 0, 64, 68
2,64149, Note_on_c, 0, 83, 0
2,64152, Control_c, 0, 64, 0
2,64162, Note_on_c, 0, 49, 0
2,64186, Note_on_c, 0, 51, 0
2,64251, Note_on_c, 0, 81, 0
2,64260, Note_on_c, 0, 47, 65
2,64307, Note_on_c, 0, 47, 0
2,64384, Note_on_c, 0, 52, 76
2,64391, Note_on_c, 0, 79, 74
2,64402, Control_c, 0, 64, 59
2,64417, Note_on_c, 0, 52, 0
2,64418, Control_c, 0, 64, 62
2,64457, Note_on_c, 0, 79, 0
2,64464, Control_c, 0, 64, 64
2,64479, Control_c, 0, 64, 65
2,64486, Note_on_c, 0, 47, 66
2,64495, Control_c, 0, 64, 66
2,64509, Control_c, 0, 64, 68
2,64524, Control_c, 0, 64, 69
2,64540, Control_c, 0, 64, 70
2,64543, Note_on_c, 0, 47, 0
2,64598, Note_on_c, 0, 54, 78
2,64601, Control_c, 0, 64, 69
2,64604, Note_on_c, 0, 78, 91
2,64617, Control_c, 0, 64, 63
2,64631, Control_c, 0, 64, 0
2,64641, Note_on_c, 0, 71, 0
2,64663, Note_on_c, 0, 54, 0
2,64681, Note_on_c, 0, 78, 0
2,64708, Note_on_c, 0, 47, 81
2,64708, Note_on_c, 0, 79, 88
2,64785, Note_on_c, 0, 79, 0
2,64808, Note_on_c, 0, 47, 0
2,64821, Note_on_c, 0, 81, 92
2,64823, Note_on_c, 0, 55, 90
2,64826, Note_on_c, 0, 72, 87
2,64859, Control_c, 0, 64, 60
2,64860, Note_on_c, 0, 72, 0
2,64860, Note_on_c, 0, 81, 0
2,64874, Control_c, 0, 64, 78
2,64890, Control_c, 0, 64, 81
2,64905, Control_c, 0, 64, 82
2,64917, Note_on_c, 0, 55, 0
2,64935, Control_c, 0, 64, 83
2,64945, Note_on_c, 0, 47, 81
2,64950, Control_c, 0, 64, 87
2,64966, Control_c, 0, 64, 93
2,64981, Control_c, 0, 64, 99
2,64995, Control_c, 0, 64, 103
2,65011, Control_c, 0, 64, 106
2,65026, Control_c, 0, 64, 106
2,65049, Control_c, 0, 64, 105
2,65064, Control_c, 0, 64, 94
2,65079, Control_c, 0, 64, 72
2,65079, Note_on_c, 0, 75, 101
2,65083, Note_on_c, 0, 47, 0
2,65087, Note_on_c, 0, 66, 90
2,65088, Note_on_c, 0, 57, 89
2,65095, Control_c, 0, 64, 0
2,65124, Note_on_c, 0, 66, 0
2,65124, Note_on_c, 0, 75, 0
2,65140, Control_c, 0, 64, 54
2,65155, Control_c, 0, 64, 76
2,65170, Control_c, 0, 64, 89
2,65185, Control_c, 0, 64, 98
2,65200, Control_c, 0, 64, 101
2,65207, Note_on_c, 0, 57, 0
2,65216, Control_c, 0, 64, 106
2,65230, Note_on_c, 0, 47, 84
2,65231, Control_c, 0, 64, 126
2,65247, Control_c, 0, 64, 127
2,65424, Note_on_c, 0, 76, 96
2,65425, Note_on_c, 0, 55, 76
2,65431, Note_on_c, 0, 64, 91
2,65474, Control_c, 0, 64, 101
2,65490, Control_c, 0, 64, 75
2,65502, Note_on_c, 0, 47, 0
2,65505, Control_c, 0, 64, 0
2,65548, Note_on_c, 0, 64, 0
2,65555, Note_on_c, 0, 66, 86
2,65558, Note_on_c, 0, 54, 72
2,65564, Note_on_c, 0, 55, 0
2,65658, Note_on_c, 0, 54, 0
2,65683, Note_on_c, 0, 52, 67
2,65691, Note_on_c, 0, 67, 82
2,65700, Note_on_c, 0, 66, 0
2,65827, Note_on_c, 0, 55, 63
2,65907, Note_on_c, 0, 52, 0
2,65922, Control_c, 0, 64, 34
2,65931, Note_on_c, 0, 76, 0
2,65936, Note_on_c, 0, 71, 74
2,65938, Control_c, 0, 64, 65
2,65944, Note_on_c, 0, 50, 70
2,65953, Control_c, 0, 64, 70
2,65957, Note_on_c, 0, 55, 0
2,65968, Control_c, 0, 64, 75
2,65983, Control_c, 0, 64, 80
2,65990, Note_on_c, 0, 71, 0
2,65998, Control_c, 0, 64, 83
2,66014, Control_c, 0, 64, 84
2,66029, Control_c, 0, 64, 85
2,66044, Control_c, 0, 64, 86
2,66060, Control_c, 0, 64, 87
2,66075, Control_c, 0, 64, 89
2,66077, Note_on_c, 0, 55, 51
2,66091, Control_c, 0, 64, 90
2,66106, Control_c, 0, 64, 92
2,66120, Control_c, 0, 64, 93
2,66136, Control_c, 0, 64, 93
2,66157, Note_on_c, 0, 50, 0
2,66200, Note_on_c, 0, 69, 80
2,66204, Note_on_c, 0, 49, 63
2,66213, Control_c, 0, 64, 92
2,66213, Note_on_c, 0, 55, 0
2,66228, Control_c, 0, 64, 87
2,66238, Note_on_c, 0, 67, 0
2,66242, Control_c, 0, 64, 78
2,66258, Control_c, 0, 64, 63
2,66273, Control_c, 0, 64, 0
2,66313, Note_on_c, 0, 66, 78
2,66326, Note_on_c, 0, 55, 58
2,66412, Note_on_c, 0, 49, 0
2,66420, Note_on_c, 0, 55, 0
2,66432, Note_on_c, 0, 66, 0
2,66434, Note_on_c, 0, 64, 74
2,66437, Note_on_c, 0, 47, 72
2,66500, Note_on_c, 0, 64, 0
2,66526, Note_on_c, 0, 62, 77
2,66553, Note_on_c, 0, 55, 70
2,66594, Note_on_c, 0, 47, 0
2,66637, Note_on_c, 0, 62, 0
2,66659, Note_on_c, 0, 61, 74
2,66665, Note_on_c, 0, 55, 0
2,66678, Note_on_c, 0, 45, 66
2,66744, Note_on_c, 0, 61, 0
2,66745, Note_on_c, 0, 45, 0
2,66756, Note_on_c, 0, 64, 76
2,66787, Note_on_c, 0, 55, 61
2,66852, Note_on_c, 0, 64, 0
2,66878, Note_on_c, 0, 62, 72
2,66892, Note_on_c, 0, 55, 0
2,66903, Note_on_c, 0, 54, 61
2,66966, Note_on_c, 0, 69, 0
2,66980, Note_on_c, 0, 64, 72
2,66981, Note_on_c, 0, 62, 0
2,66984, Note_on_c, 0, 54, 0
2,67008, Note_on_c, 0, 52, 57
2,67095, Note_on_c, 0, 52, 0
2,67107, Note_on_c, 0, 66, 74
2,67113, Note_on_c, 0, 64, 0
2,67120, Note_on_c, 0, 50, 52
2,67247, Note_on_c, 0, 54, 45
2,67328, Note_on_c, 0, 50, 0
2,67350, Note_on_c, 0, 54, 0
2,67363, Note_on_c, 0, 69, 59
2,67367, Note_on_c, 0, 49, 57
2,67411, Note_on_c, 0, 69, 0
2,67414, Control_c, 0, 67, 8
2,67429, Control_c, 0, 67, 14
2,67444, Control_c, 0, 67, 19
2,67459, Control_c, 0, 67, 24
2,67474, Control_c, 0, 67, 26
2,67491, Note_on_c, 0, 54, 51
2,67504, Control_c, 0, 67, 26
2,67519, Control_c, 0, 67, 25
2,67535, Control_c, 0, 67, 24
2,67571, Note_on_c, 0, 49, 0
2,67580, Control_c, 0, 67, 25
2,67608, Note_on_c, 0, 67, 61
2,67610, Note_on_c, 0, 47, 64
2,67640, Control_c, 0, 67, 25
2,67654, Note_on_c, 0, 54, 0
2,67671, Control_c, 0, 67, 24
2,67681, Note_on_c, 0, 66, 0
2,67702, Control_c, 0, 67, 24
2,67726, Note_on_c, 0, 54, 54
2,67733, Note_on_c, 0, 64, 58
2,67748, Control_c, 0, 67, 23
2,67779, Control_c, 0, 67, 23
2,67780, Note_on_c, 0, 64, 0
2,67794, Control_c, 0, 67, 22
2,67824, Note_on_c, 0, 47, 0
2,67827, Note_on_c, 0, 54, 0
2,67842, Note_on_c, 0, 45, 63
2,67849, Note_on_c, 0, 62, 59
2,67893, Note_on_c, 0, 62, 0
2,67900, Control_c, 0, 67, 23
2,67915, Control_c, 0, 67, 24
2,67931, Control_c, 0, 67, 26
2,67946, Control_c, 0, 67, 31
2,67947, Note_on_c, 0, 61, 62
2,67950, Note_on_c, 0, 45, 0
2,67958, Note_on_c, 0, 54, 51
2,67961, Control_c, 0, 67, 47
2,67977, Control_c, 0, 67, 70
2,67992, Control_c, 0, 67, 93
2,68007, Control_c, 0, 67, 111
2,68022, Control_c, 0, 67, 126
2,68037, Control_c, 0, 67, 127
2,68041, Note_on_c, 0, 61, 0
2,68053, Note_on_c, 0, 54, 0
2,68068, Note_on_c, 0, 59, 61
2,68072, Note_on_c, 0, 43, 58
2,68140, Note_on_c, 0, 59, 0
2,68176, Note_on_c, 0, 62, 62
2,68186, Note_on_c, 0, 43, 0
2,68188, Note_on_c, 0, 54, 54
2,68242, Note_on_c, 0, 54, 0
2,68242, Note_on_c, 0, 67, 0
2,68267, Note_on_c, 0, 62, 0
2,68289, Note_on_c, 0, 61, 67
2,68327, Note_on_c, 0, 52, 48
2,68392, Note_on_c, 0, 52, 0
2,68407, Note_on_c, 0, 61, 0
2,68415, Note_on_c, 0, 62, 65
2,68433, Note_on_c, 0, 50, 37
2,68488, Note_on_c, 0, 62, 0
2,68498, Note_on_c, 0, 50, 0
2,68536, Note_on_c, 0, 64, 63
2,68537, Note_on_c, 0, 49, 49
2,68634, Note_on_c, 0, 52, 46
2,68734, Note_on_c, 0, 52, 0
2,68747, Note_on_c, 0, 49, 0
2,68749, Note_on_c, 0, 67, 53
2,68762, Note_on_c, 0, 47, 51
2,68778, Note_on_c, 0, 67, 0
2,68887, Note_on_c, 0, 52, 46
2,68927, Note_on_c, 0, 47, 0
2,68983, Note_on_c, 0, 52, 0
2,68984, Note_on_c, 0, 64, 0
2,68989, Note_on_c, 0, 66, 68
2,68997, Note_on_c, 0, 46, 59
2,69104, Note_on_c, 0, 62, 59
2,69108, Note_on_c, 0, 52, 50
2,69120, Note_on_c, 0, 46, 0
2,69154, Note_on_c, 0, 62, 0
2,69206, Note_on_c, 0, 52, 0
2,69224, Note_on_c, 0, 61, 63
2,69225, Note_on_c, 0, 44, 52
2,69273, Note_on_c, 0, 61, 0
2,69307, Note_on_c, 0, 44, 0
2,69324, Note_on_c, 0, 59, 57
2,69340, Note_on_c, 0, 52, 55
2,69395, Note_on_c, 0, 59, 0
2,69432, Note_on_c, 0, 52, 0
2,69463, Note_on_c, 0, 58, 57
2,69472, Note_on_c, 0, 42, 48
2,69541, Note_on_c, 0, 42, 0
2,69551, Note_on_c, 0, 58, 0
2,69576, Note_on_c, 0, 61, 57
2,69587, Note_on_c, 0, 52, 41
2,69667, Note_on_c, 0, 52, 0
2,69722, Note_on_c, 0, 61, 0
2,69726, Note_on_c, 0, 66, 0
2,69753, Note_on_c, 0, 59, 59
2,69785, Note_on_c, 0, 50, 33
2,69809, Control_c, 0, 64, 54
2,69824, Control_c, 0, 64, 67
2,69838, Control_c, 0, 64, 73
2,69840, Note_on_c, 0, 50, 0
2,69854, Control_c, 0, 64, 79
2,69869, Control_c, 0, 64, 81
2,69884, Control_c, 0, 64, 81
2,69888, Note_on_c, 0, 59, 0
2,69946, Control_c, 0, 64, 82
2,69950, Note_on_c, 0, 71, 62
2,69954, Note_on_c, 0, 54, 56
2,69994, Note_on_c, 0, 71, 0
2,70022, Control_c, 0, 64, 81
2,70028, Note_on_c, 0, 54, 0
2,70052, Control_c, 0, 64, 80
2,70067, Control_c, 0, 64, 78
2,70068, Note_on_c, 0, 52, 59
2,70075, Note_on_c, 0, 73, 70
2,70081, Control_c, 0, 64, 76
2,70097, Control_c, 0, 64, 71
2,70112, Control_c, 0, 64, 62
2,70118, Note_on_c, 0, 52, 0
2,70128, Control_c, 0, 64, 0
2,70146, Note_on_c, 0, 73, 0
2,70175, Note_on_c, 0, 50, 53
2,70189, Note_on_c, 0, 71, 66
2,70226, Note_on_c, 0, 50, 0
2,70251, Note_on_c, 0, 71, 0
2,70292, Note_on_c, 0, 70, 73
2,70294, Note_on_c, 0, 49, 53
2,70329, Note_on_c, 0, 49, 0
2,70355, Note_on_c, 0, 70, 0
2,70389, Note_on_c, 0, 47, 60
2,70395, Note_on_c, 0, 71, 71
2,70455, Note_on_c, 0, 47, 0
2,70467, Note_on_c, 0, 71, 0
2,70516, Note_on_c, 0, 46, 68
2,70520, Note_on_c, 0, 73, 74
2,70546, Control_c, 0, 64, 45
2,70561, Control_c, 0, 64, 57
2,70563, Note_on_c, 0, 73, 0
2,70577, Control_c, 0, 64, 61
2,70583, Note_on_c, 0, 46, 0
2,70592, Control_c, 0, 64, 62
2,70607, Control_c, 0, 64, 62
2,70622, Control_c, 0, 64, 63
2,70624, Note_on_c, 0, 49, 64
2,70653, Control_c, 0, 64, 63
2,70682, Control_c, 0, 64, 63
2,70695, Note_on_c, 0, 49, 0
2,70698, Control_c, 0, 64, 62
2,70713, Control_c, 0, 64, 61
2,70729, Control_c, 0, 64, 54
2,70740, Note_on_c, 0, 47, 64
2,70744, Control_c, 0, 64, 0
2,70758, Note_on_c, 0, 74, 74
2,70801, Note_on_c, 0, 47, 0
2,70827, Note_on_c, 0, 74, 0
2,70846, Note_on_c, 0, 46, 68
2,70859, Note_on_c, 0, 73, 76
2,70894, Note_on_c, 0, 46, 0
2,70923, Note_on_c, 0, 73, 0
2,70945, Note_on_c, 0, 44, 69
2,70974, Note_on_c, 0, 71, 73
2,71003, Note_on_c, 0, 44, 0
2,71021, Note_on_c, 0, 71, 0
2,71065, Note_on_c, 0, 73, 74
2,71129, Note_on_c, 0, 73, 0
2,71193, Note_on_c, 0, 74, 73
2,71199, Note_on_c, 0, 47, 70
2,71238, Note_on_c, 0, 47, 0
2,71421, Note_on_c, 0, 74, 0
2,71425, Note_on_c, 0, 49, 73
2,71425, Note_on_c, 0, 73, 71
2,71470, Note_on_c, 0, 73, 0
2,71480, Note_on_c, 0, 49, 0
2,71525, Note_on_c, 0, 47, 71
2,71585, Note_on_c, 0, 47, 0
2,71628, Note_on_c, 0, 71, 71
2,71632, Note_on_c, 0, 46, 76
2,71666, Note_on_c, 0, 71, 0
2,71683, Note_on_c, 0, 46, 0
2,71735, Note_on_c, 0, 47, 73
2,71790, Note_on_c, 0, 47, 0
2,71858, Note_on_c, 0, 49, 78
2,71860, Note_on_c, 0, 70, 82
2,71906, Note_on_c, 0, 49, 0
2,72129, Note_on_c, 0, 79, 86
2,72139, Note_on_c, 0, 50, 46
2,72150, Note_on_c, 0, 70, 0
2,72182, Note_on_c, 0, 50, 0
2,72226, Note_on_c, 0, 49, 71
2,72320, Note_on_c, 0, 49, 0
2,72333, Note_on_c, 0, 47, 73
2,72431, Note_on_c, 0, 49, 67
2,72438, Note_on_c, 0, 47, 0
2,72517, Note_on_c, 0, 79, 0
2,72548, Note_on_c, 0, 78, 78
2,72557, Note_on_c, 0, 49, 0
2,72561, Note_on_c, 0, 50, 75
2,72583, Note_on_c, 0, 78, 0
2,72785, Note_on_c, 0, 50, 0
2,72803, Note_on_c, 0, 49, 74
2,72818, Note_on_c, 0, 79, 76
2,72844, Note_on_c, 0, 49, 0
2,72890, Note_on_c, 0, 79, 0
2,72910, Note_on_c, 0, 78, 79
2,72983, Note_on_c, 0, 78, 0
2,73022, Note_on_c, 0, 47, 71
2,73023, Note_on_c, 0, 76, 73
2,73058, Note_on_c, 0, 47, 0
2,73062, Note_on_c, 0, 76, 0
2,73126, Note_on_c, 0, 74, 71
2,73162, Note_on_c, 0, 74, 0
2,73251, Note_on_c, 0, 46, 76
2,73255, Note_on_c, 0, 73, 69
2,73299, Note_on_c, 0, 73, 0
2,73305, Control_c, 0, 64, 60
2,73320, Control_c, 0, 64, 62
2,73335, Control_c, 0, 64, 62
2,73350, Control_c, 0, 64, 64
2,73365, Control_c, 0, 64, 66
2,73380, Control_c, 0, 64, 70
2,73395, Control_c, 0, 64, 72
2,73410, Control_c, 0, 64, 74
2,73511, Control_c, 0, 64, 73
2,73516, Note_on_c, 0, 55, 71
2,73520, Note_on_c, 0, 76, 62
2,73526, Control_c, 0, 64, 69
2,73539, Note_on_c, 0, 46, 0
2,73542, Control_c, 0, 64, 62
2,73557, Control_c, 0, 64, 0
2,73600, Note_on_c, 0, 76, 0
2,73625, Note_on_c, 0, 74, 63
2,73700, Note_on_c, 0, 74, 0
2,73745, Note_on_c, 0, 73, 65
2,73801, Note_on_c, 0, 73, 0
2,73864, Note_on_c, 0, 71, 54
2,73906, Note_on_c, 0, 71, 0
2,73959, Note_on_c, 0, 55, 0
2,73975, Note_on_c, 0, 54, 52
2,73976, Note_on_c, 0, 70, 61
2,74037, Note_on_c, 0, 70, 0
2,74041, Control_c, 0, 64, 36
2,74057, Control_c, 0, 64, 48
2,74072, Control_c, 0, 64, 51
2,74079, Note_on_c, 0, 71, 65
2,74082, Note_on_c, 0, 56, 61
2,74085, Note_on_c, 0, 54, 0
2,74087, Control_c, 0, 64, 51
2,74102, Control_c, 0, 64, 52
2,74117, Control_c, 0, 64, 53
2,74133, Control_c, 0, 64, 54
2,74153, Note_on_c, 0, 71, 0
2,74160, Note_on_c, 0, 56, 0
2,74193, Control_c, 0, 64, 53
2,74195, Note_on_c, 0, 58, 61
2,74197, Note_on_c, 0, 73, 67
2,74208, Control_c, 0, 64, 51
2,74224, Control_c, 0, 64, 44
2,74239, Control_c, 0, 64, 0
2,74258, Note_on_c, 0, 73, 0
2,74270, Note_on_c, 0, 58, 0
2,74309, Note_on_c, 0, 54, 61
2,74312, Note_on_c, 0, 70, 61
2,74367, Note_on_c, 0, 70, 0
2,74374, Note_on_c, 0, 54, 0
2,74423, Note_on_c, 0, 59, 64
2,74425, Note_on_c, 0, 74, 76
2,74500, Note_on_c, 0, 59, 0
2,74508, Note_on_c, 0, 74, 0
2,74515, Note_on_c, 0, 70, 71
2,74529, Note_on_c, 0, 54, 59
2,74588, Note_on_c, 0, 70, 0
2,74620, Note_on_c, 0, 54, 0
2,74643, Note_on_c, 0, 76, 85
2,74647, Note_on_c, 0, 61, 68
2,74688, Control_c, 0, 67, 91
2,74704, Control_c, 0, 67, 47
2,74719, Control_c, 0, 64, 38
2,74719, Control_c, 0, 67, 0
2,74735, Control_c, 0, 64, 55
2,74750, Control_c, 0, 64, 60
2,74753, Note_on_c, 0, 70, 69
2,74763, Note_on_c, 0, 54, 58
2,74764, Control_c, 0, 64, 63
2,74780, Control_c, 0, 64, 64
2,74795, Control_c, 0, 64, 64
2,74810, Control_c, 0, 64, 65
2,74815, Note_on_c, 0, 61, 0
2,74819, Note_on_c, 0, 76, 0
2,74824, Note_on_c, 0, 70, 0
2,74826, Note_on_c, 0, 54, 0
2,74857, Control_c, 0, 64, 64
2,74862, Note_on_c, 0, 62, 72
2,74871, Control_c, 0, 64, 62
2,74877, Note_on_c, 0, 78, 82
2,74886, Control_c, 0, 64, 32
2,74902, Control_c, 0, 64, 0
2,74931, Note_on_c, 0, 62, 0
2,74951, Note_on_c, 0, 78, 0
2,74971, Note_on_c, 0, 70, 74
2,74977, Note_on_c, 0, 54, 65
2,75038, Note_on_c, 0, 70, 0
2,75060, Note_on_c, 0, 54, 0
2,75097, Note_on_c, 0, 79, 80
2,75098, Note_on_c, 0, 64, 70
2,75158, Note_on_c, 0, 79, 0
2,75179, Note_on_c, 0, 64, 0
2,75205, Note_on_c, 0, 54, 72
2,75211, Note_on_c, 0, 70, 81
2,75291, Note_on_c, 0, 54, 0
2,75315, Note_on_c, 0, 70, 0
2,75321, Note_on_c, 0, 78, 78
2,75329, Note_on_c, 0, 62, 73
2,75419, Note_on_c, 0, 78, 0
2,75425, Note_on_c, 0, 70, 81
2,75428, Note_on_c, 0, 62, 0
2,75446, Note_on_c, 0, 54, 69
2,75497, Note_on_c, 0, 70, 0
2,75514, Note_on_c, 0, 54, 0
2,75544, Note_on_c, 0, 71, 70
2,75552, Note_on_c, 0, 55, 62
2,75604, Note_on_c, 0, 71, 0
2,75625, Note_on_c, 0, 55, 0
2,75639, Control_c, 0, 64, 80
2,75643, Note_on_c, 0, 78, 76
2,75647, Note_on_c, 0, 62, 76
2,75655, Control_c, 0, 64, 87
2,75670, Control_c, 0, 64, 87
2,75676, Note_on_c, 0, 62, 0
2,75701, Control_c, 0, 64, 88
2,75707, Note_on_c, 0, 78, 0
2,75746, Control_c, 0, 64, 86
2,75761, Control_c, 0, 64, 79
2,75767, Note_on_c, 0, 76, 57
2,75777, Control_c, 0, 64, 64
2,75777, Note_on_c, 0, 61, 70
2,75798, Control_c, 0, 64, 0
2,75800, Note_on_c, 0, 74, 58
2,75801, Note_on_c, 0, 76, 0
2,75834, Note_on_c, 0, 74, 0
2,75843, Note_on_c, 0, 61, 0
2,75848, Note_on_c, 0, 73, 68
2,75858, Note_on_c, 0, 58, 47
2,75893, Note_on_c, 0, 74, 66
2,75912, Note_on_c, 0, 73, 0
2,75931, Note_on_c, 0, 58, 0
2,75933, Note_on_c, 0, 59, 65
2,75960, Note_on_c, 0, 76, 80
2,75961, Note_on_c, 0, 59, 0
2,75961, Note_on_c, 0, 74, 0
2,75999, Note_on_c, 0, 61, 73
2,76048, Note_on_c, 0, 76, 0
2,76063, Note_on_c, 0, 61, 0
2,76098, Note_on_c, 0, 68, 83
2,76109, Note_on_c, 0, 52, 67
2,76171, Note_on_c, 0, 52, 0
2,76174, Note_on_c, 0, 68, 0
2,76197, Note_on_c, 0, 54, 56
2,76210, Note_on_c, 0, 70, 79
2,76247, Note_on_c, 0, 54, 0
2,76272, Note_on_c, 0, 70, 0
2,76293, Note_on_c, 0, 61, 57
2,76301, Control_c, 0, 64, 71
2,76316, Control_c, 0, 64, 79
2,76320, Note_on_c, 0, 76, 77
2,76329, Note_on_c, 0, 61, 0
2,76331, Control_c, 0, 64, 83
2,76360, Note_on_c, 0, 76, 0
2,76361, Control_c, 0, 64, 84
2,76377, Control_c, 0, 64, 84
2,76398, Note_on_c, 0, 59, 64
2,76407, Control_c, 0, 64, 84
2,76423, Control_c, 0, 64, 81
2,76426, Note_on_c, 0, 74, 75
2,76437, Control_c, 0, 64, 71
2,76453, Control_c, 0, 64, 0
2,76456, Note_on_c, 0, 59, 0
2,76471, Note_on_c, 0, 73, 66
2,76472, Note_on_c, 0, 58, 63
2,76511, Note_on_c, 0, 58, 0
2,76511, Note_on_c, 0, 74, 0
2,76514, Note_on_c, 0, 73, 0
2,76516, Note_on_c, 0, 56, 65
2,76548, Note_on_c, 0, 71, 46
2,76577, Note_on_c, 0, 73, 72
2,76581, Note_on_c, 0, 58, 52
2,76596, Note_on_c, 0, 56, 0
2,76601, Note_on_c, 0, 71, 0
2,76618, Note_on_c, 0, 58, 0
2,76639, Note_on_c, 0, 74, 73
2,76645, Note_on_c, 0, 73, 0
2,76661, Note_on_c, 0, 59, 45
2,76688, Note_on_c, 0, 59, 0
2,76752, Note_on_c, 0, 61, 69
2,76792, Note_on_c, 0, 61, 0
2,76865, Note_on_c, 0, 62, 61
2,76895, Note_on_c, 0, 62, 0
2,76979, Note_on_c, 0, 59, 57
2,77008, Note_on_c, 0, 59, 0
2,77090, Note_on_c, 0, 64, 67
2,77121, Note_on_c, 0, 64, 0
2,77203, Note_on_c, 0, 59, 69
2,77234, Note_on_c, 0, 59, 0
2,77318, Note_on_c, 0, 66, 79
2,77453, Note_on_c, 0, 59, 64
2,77485, Note_on_c, 0, 59, 0
2,77550, Note_on_c, 0, 66, 0
2,77565, Note_on_c, 0, 68, 69
2,77600, Note_on_c, 0, 68, 0
2,77673, Note_on_c, 0, 59, 55
2,77702, Note_on_c, 0, 59, 0
2,77780, Note_on_c, 0, 69, 73
2,77811, Note_on_c, 0, 69, 0
2,77917, Note_on_c, 0, 59, 55
2,77951, Note_on_c, 0, 59, 0
2,78024, Note_on_c, 0, 68, 72
2,78048, Note_on_c, 0, 52, 40
2,78116, Note_on_c, 0, 52, 0
2,78137, Note_on_c, 0, 54, 54
2,78221, Note_on_c, 0, 54, 0
2,78248, Note_on_c, 0, 68, 0
2,78253, Note_on_c, 0, 56, 62
2,78268, Note_on_c, 0, 64, 66
2,78306, Note_on_c, 0, 56, 0
2,78313, Note_on_c, 0, 64, 0
2,78360, Note_on_c, 0, 52, 66
2,78437, Note_on_c, 0, 52, 0
2,78481, Note_on_c, 0, 57, 78
2,78485, Note_on_c, 0, 66, 77
2,78545, Note_on_c, 0, 57, 0
2,78553, Note_on_c, 0, 66, 0
2,78595, Note_on_c, 0, 52, 73
2,78654, Note_on_c, 0, 52, 0
2,78712, Note_on_c, 0, 68, 83
2,78722, Note_on_c, 0, 59, 70
2,78756, Control_c, 0, 64, 25
2,78771, Control_c, 0, 64, 61
2,78787, Control_c, 0, 64, 66
2,78801, Control_c, 0, 64, 67
2,78807, Note_on_c, 0, 59, 0
2,78817, Control_c, 0, 64, 68
2,78832, Control_c, 0, 64, 69
2,78840, Note_on_c, 0, 52, 63
2,78847, Control_c, 0, 64, 70
2,78871, Control_c, 0, 64, 71
2,78886, Control_c, 0, 64, 72
2,78901, Control_c, 0, 64, 72
2,78946, Control_c, 0, 64, 71
2,78950, Note_on_c, 0, 68, 0
2,78957, Note_on_c, 0, 61, 71
2,78957, Note_on_c, 0, 69, 77
2,78961, Control_c, 0, 64, 67
2,78975, Note_on_c, 0, 52, 0
2,78977, Control_c, 0, 64, 50
2,78992, Control_c, 0, 64, 0
2,79002, Note_on_c, 0, 61, 0
2,79007, Note_on_c, 0, 69, 0
2,79073, Note_on_c, 0, 52, 57
2,79140, Note_on_c, 0, 52, 0
2,79188, Note_on_c, 0, 62, 72
2,79192, Note_on_c, 0, 71, 68
2,79243, Note_on_c, 0, 62, 0
2,79251, Note_on_c, 0, 71, 0
2,79301, Note_on_c, 0, 52, 61
2,79363, Note_on_c, 0, 52, 0
2,79430, Note_on_c, 0, 64, 58
2,79435, Note_on_c, 0, 61, 59
2,79464, Control_c, 0, 64, 58
2,79479, Control_c, 0, 64, 65
2,79495, Control_c, 0, 64, 66
2,79509, Control_c, 0, 64, 67
2,79524, Control_c, 0, 64, 68
2,79524, Note_on_c, 0, 74, 0
2,79540, Control_c, 0, 64, 69
2,79555, Control_c, 0, 64, 70
2,79558, Note_on_c, 0, 66, 62
2,79569, Control_c, 0, 64, 71
2,79585, Control_c, 0, 64, 72
2,79596, Note_on_c, 0, 64, 0
2,79602, Note_on_c, 0, 68, 60
2,79638, Control_c, 0, 64, 71
2,79654, Control_c, 0, 64, 71
2,79657, Note_on_c, 0, 66, 0
2,79668, Note_on_c, 0, 69, 69
2,79669, Control_c, 0, 64, 68
2,79684, Control_c, 0, 64, 65
2,79690, Note_on_c, 0, 68, 0
2,79700, Control_c, 0, 64, 56
2,79714, Control_c, 0, 64, 28
2,79729, Control_c, 0, 64, 0
2,79739, Note_on_c, 0, 69, 0
2,79782, Note_on_c, 0, 61, 0
2,79789, Note_on_c, 0, 64, 67
2,79811, Note_on_c, 0, 62, 52
2,79857, Note_on_c, 0, 64, 0
2,79859, Note_on_c, 0, 62, 0
2,79891, Note_on_c, 0, 61, 54
2,79907, Note_on_c, 0, 71, 64
2,79942, Note_on_c, 0, 71, 0
2,79964, Note_on_c, 0, 61, 0
2,80004, Note_on_c, 0, 64, 68
2,80017, Note_on_c, 0, 59, 52
2,80060, Note_on_c, 0, 59, 0
2,80079, Note_on_c, 0, 64, 0
2,80124, Note_on_c, 0, 57, 63
2,80127, Note_on_c, 0, 73, 77
2,80181, Note_on_c, 0, 57, 0
2,80186, Control_c, 0, 64, 59
2,80200, Control_c, 0, 64, 65
2,80216, Control_c, 0, 64, 66
2,80231, Control_c, 0, 64, 67
2,80237, Note_on_c, 0, 59, 67
2,80240, Note_on_c, 0, 64, 66
2,80246, Control_c, 0, 64, 67
2,80262, Control_c, 0, 64, 68
2,80265, Note_on_c, 0, 73, 0
2,80277, Control_c, 0, 64, 68
2,80286, Note_on_c, 0, 59, 0
2,80291, Control_c, 0, 64, 69
2,80293, Note_on_c, 0, 64, 0
2,80338, Control_c, 0, 64, 68
2,80352, Control_c, 0, 64, 66
2,80354, Note_on_c, 0, 57, 68
2,80354, Note_on_c, 0, 74, 73
2,80367, Control_c, 0, 64, 61
2,80383, Control_c, 0, 64, 38
2,80387, Note_on_c, 0, 57, 0
2,80405, Control_c, 0, 64, 0
2,80449, Note_on_c, 0, 74, 0
2,80455, Note_on_c, 0, 66, 77
2,80467, Note_on_c, 0, 55, 70
2,80504, Note_on_c, 0, 66, 0
2,80518, Note_on_c, 0, 55, 0
2,80571, Note_on_c, 0, 54, 63
2,80579, Note_on_c, 0, 76, 76
2,80583, Note_on_c, 0, 49, 57
2,80633, Control_c, 0, 64, 37
2,80639, Note_on_c, 0, 76, 0
2,80647, Note_on_c, 0, 49, 0
2,80648, Control_c, 0, 64, 64
2,80663, Note_on_c, 0, 54, 0
2,80664, Control_c, 0, 64, 65
2,80679, Control_c, 0, 64, 66
2,80680, Note_on_c, 0, 67, 73
2,80693, Note_on_c, 0, 52, 65
2,80715, Note_on_c, 0, 67, 0
2,80724, Control_c, 0, 64, 65
2,80740, Control_c, 0, 64, 64
2,80747, Note_on_c, 0, 52, 0
2,80754, Control_c, 0, 64, 55
2,80769, Control_c, 0, 64, 0
2,80813, Note_on_c, 0, 50, 77
2,80822, Note_on_c, 0, 66, 65
2,80862, Control_c, 0, 64, 54
2,80877, Control_c, 0, 64, 66
2,80893, Control_c, 0, 64, 69
2,80893, Note_on_c, 0, 66, 0
2,80908, Control_c, 0, 64, 71
2,80929, Note_on_c, 0, 67, 65
2,80968, Control_c, 0, 64, 69
2,80978, Note_on_c, 0, 69, 56
2,80984, Control_c, 0, 64, 65
2,80998, Control_c, 0, 64, 34
2,81014, Control_c, 0, 64, 0
2,81016, Note_on_c, 0, 67, 0
2,81018, Note_on_c, 0, 69, 0
2,81026, Note_on_c, 0, 71, 65
2,81086, Note_on_c, 0, 71, 0
2,81113, Note_on_c, 0, 50, 0
2,81134, Note_on_c, 0, 66, 69
2,81136, Control_c, 0, 64, 26
2,81146, Note_on_c, 0, 52, 69
2,81151, Control_c, 0, 64, 33
2,81189, Control_c, 0, 64, 32
2,81198, Note_on_c, 0, 66, 0
2,81203, Control_c, 0, 64, 32
2,81207, Note_on_c, 0, 52, 0
2,81219, Control_c, 0, 64, 31
2,81249, Control_c, 0, 64, 32
2,81259, Note_on_c, 0, 50, 72
2,81260, Note_on_c, 0, 73, 78
2,81265, Control_c, 0, 64, 32
2,81300, Note_on_c, 0, 50, 0
2,81311, Control_c, 0, 64, 32
2,81318, Note_on_c, 0, 73, 0
2,81341, Control_c, 0, 64, 31
2,81359, Note_on_c, 0, 66, 70
2,81366, Note_on_c, 0, 49, 71
2,81401, Control_c, 0, 64, 0
2,81418, Note_on_c, 0, 66, 0
2,81420, Note_on_c, 0, 49, 0
2,81470, Note_on_c, 0, 47, 74
2,81476, Note_on_c, 0, 74, 78
2,81522, Control_c, 0, 64, 63
2,81537, Note_on_c, 0, 74, 0
2,81538, Control_c, 0, 64, 71
2,81554, Control_c, 0, 64, 76
2,81569, Control_c, 0, 64, 78
2,81574, Note_on_c, 0, 49, 75
2,81575, Note_on_c, 0, 66, 75
2,81585, Control_c, 0, 64, 79
2,81589, Note_on_c, 0, 47, 0
2,81615, Control_c, 0, 64, 79
2,81630, Control_c, 0, 64, 80
2,81630, Note_on_c, 0, 66, 0
2,81639, Note_on_c, 0, 49, 0
2,81646, Control_c, 0, 64, 80
2,81677, Control_c, 0, 64, 80
2,81693, Control_c, 0, 64, 78
2,81696, Note_on_c, 0, 47, 74
2,81700, Note_on_c, 0, 76, 79
2,81707, Control_c, 0, 64, 72
2,81722, Control_c, 0, 64, 56
2,81738, Control_c, 0, 64, 0
2,81754, Note_on_c, 0, 47, 0
2,81759, Note_on_c, 0, 76, 0
2,81797, Note_on_c, 0, 67, 75
2,81800, Note_on_c, 0, 45, 73
2,81843, Note_on_c, 0, 45, 0
2,81879, Note_on_c, 0, 67, 0
2,81907, Note_on_c, 0, 43, 83
2,81914, Note_on_c, 0, 78, 85
2,81964, Note_on_c, 0, 43, 0
2,81986, Control_c, 0, 64, 24
2,82001, Control_c, 0, 64, 0
2,82005, Note_on_c, 0, 78, 0
2,82017, Note_on_c, 0, 42, 84
2,82025, Note_on_c, 0, 69, 69
2,82073, Note_on_c, 0, 42, 0
2,82087, Note_on_c, 0, 69, 0
2,82143, Note_on_c, 0, 40, 90
2,82143, Note_on_c, 0, 67, 73
2,82186, Note_on_c, 0, 40, 0
2,82235, Note_on_c, 0, 67, 0
2,82251, Note_on_c, 0, 66, 71
2,82319, Note_on_c, 0, 66, 0
2,82359, Note_on_c, 0, 67, 72
2,82364, Note_on_c, 0, 50, 91
2,82365, Control_c, 0, 64, 41
2,82381, Control_c, 0, 64, 0
2,82399, Note_on_c, 0, 50, 0
2,82440, Note_on_c, 0, 67, 0
2,82466, Note_on_c, 0, 71, 71
2,82553, Note_on_c, 0, 71, 0
2,82577, Note_on_c, 0, 49, 85
2,82580, Control_c, 0, 64, 57
2,82580, Note_on_c, 0, 76, 72
2,82594, Control_c, 0, 64, 54
2,82609, Control_c, 0, 64, 48
2,82617, Note_on_c, 0, 49, 0
2,82625, Control_c, 0, 64, 47
2,82640, Control_c, 0, 64, 49
2,82655, Control_c, 0, 64, 49
2,82657, Note_on_c, 0, 76, 0
2,82670, Control_c, 0, 64, 49
2,82685, Control_c, 0, 64, 48
2,82692, Note_on_c, 0, 67, 74
2,82724, Control_c, 0, 64, 49
2,82740, Control_c, 0, 64, 50
2,82754, Control_c, 0, 64, 51
2,82769, Control_c, 0, 64, 51
2,82784, Note_on_c, 0, 67, 0
2,82811, Note_on_c, 0, 66, 70
2,82814, Control_c, 0, 64, 51
2,82816, Note_on_c, 0, 50, 82
2,82830, Control_c, 0, 64, 49
2,82845, Control_c, 0, 64, 46
2,82857, Note_on_c, 0, 50, 0
2,82861, Control_c, 0, 64, 46
2,82883, Note_on_c, 0, 66, 0
2,82890, Control_c, 0, 64, 46
2,82906, Control_c, 0, 64, 47
2,82921, Control_c, 0, 64, 47
2,82924, Note_on_c, 0, 71, 66
2,82984, Note_on_c, 0, 71, 0
2,82997, Control_c, 0, 64, 48
2,83011, Control_c, 0, 64, 48
2,83027, Control_c, 0, 64, 49
2,83035, Note_on_c, 0, 69, 71
2,83043, Note_on_c, 0, 52, 75
2,83073, Control_c, 0, 64, 49
2,83085, Note_on_c, 0, 52, 0
2,83101, Note_on_c, 0, 69, 0
2,83127, Note_on_c, 0, 50, 75
2,83130, Note_on_c, 0, 73, 79
2,83133, Control_c, 0, 64, 50
2,83189, Note_on_c, 0, 50, 0
2,83216, Note_on_c, 0, 73, 0
2,83239, Note_on_c, 0, 47, 69
2,83240, Control_c, 0, 64, 50
2,83243, Note_on_c, 0, 49, 69
2,83246, Note_on_c, 0, 74, 85
2,83271, Control_c, 0, 64, 51
2,83290, Note_on_c, 0, 49, 0
2,83305, Note_on_c, 0, 47, 0
2,83317, Control_c, 0, 64, 50
2,83343, Note_on_c, 0, 50, 78
2,83363, Control_c, 0, 64, 51
2,83385, Note_on_c, 0, 50, 0
2,83393, Control_c, 0, 64, 45
2,83408, Control_c, 0, 64, 0
2,83481, Note_on_c, 0, 52, 86
2,83486, Note_on_c, 0, 43, 72
2,83518, Note_on_c, 0, 43, 0
2,83522, Control_c, 0, 64, 64
2,83537, Control_c, 0, 64, 72
2,83541, Note_on_c, 0, 74, 0
2,83553, Control_c, 0, 64, 77
2,83567, Control_c, 0, 64, 79
2,83583, Control_c, 0, 64, 81
2,83598, Control_c, 0, 64, 85
2,83613, Control_c, 0, 64, 89
2,83629, Control_c, 0, 64, 94
2,83644, Control_c, 0, 64, 98
2,83658, Control_c, 0, 64, 100
2,83665, Note_on_c, 0, 52, 0
2,83674, Control_c, 0, 64, 102
2,83705, Control_c, 0, 64, 102
2,83719, Note_on_c, 0, 54, 72
2,83719, Note_on_c, 0, 73, 87
2,83720, Control_c, 0, 64, 96
2,83723, Note_on_c, 0, 45, 65
2,83734, Control_c, 0, 64, 80
2,83750, Control_c, 0, 64, 55
2,83765, Control_c, 0, 64, 0
2,83790, Note_on_c, 0, 73, 0
2,83795, Control_c, 0, 64, 61
2,83810, Control_c, 0, 64, 72
2,83815, Note_on_c, 0, 74, 67
2,83826, Control_c, 0, 64, 82
2,83839, Note_on_c, 0, 54, 0
2,83841, Control_c, 0, 64, 87
2,83854, Note_on_c, 0, 52, 62
2,83866, Note_on_c, 0, 74, 0
2,83875, Note_on_c, 0, 73, 70
2,83886, Control_c, 0, 64, 87
2,83917, Control_c, 0, 64, 88
2,83919, Note_on_c, 0, 73, 0
2,83922, Note_on_c, 0, 45, 0
2,83926, Note_on_c, 0, 74, 67
2,83928, Note_on_c, 0, 52, 0
2,83931, Control_c, 0, 64, 88
2,83947, Control_c, 0, 64, 89
2,83965, Note_on_c, 0, 50, 60
2,83977, Control_c, 0, 64, 89
2,83989, Note_on_c, 0, 74, 0
2,83990, Note_on_c, 0, 73, 72
2,84007, Note_on_c, 0, 50, 0
2,84035, Note_on_c, 0, 73, 0
2,84047, Note_on_c, 0, 71, 75
2,84050, Note_on_c, 0, 52, 64
2,84087, Note_on_c, 0, 71, 0
2,84096, Note_on_c, 0, 73, 71
2,84112, Note_on_c, 0, 52, 0
2,84116, Control_c, 0, 64, 89
2,84131, Control_c, 0, 64, 83
2,84147, Control_c, 0, 64, 69
2,84152, Note_on_c, 0, 74, 78
2,84161, Control_c, 0, 64, 0
2,84165, Note_on_c, 0, 73, 0
2,84173, Note_on_c, 0, 54, 73
2,84177, Note_on_c, 0, 50, 67
2,84203, Note_on_c, 0, 74, 0
2,84321, Control_c, 0, 64, 38
2,84336, Control_c, 0, 64, 45
2,84352, Control_c, 0, 64, 44
2,84366, Control_c, 0, 64, 30
2,84380, Note_on_c, 0, 50, 0
2,84382, Control_c, 0, 64, 0
2,84384, Note_on_c, 0, 54, 0
2,84402, Note_on_c, 0, 49, 64
2,84405, Note_on_c, 0, 52, 67
2,84413, Note_on_c, 0, 76, 76
2,84438, Note_on_c, 0, 52, 0
2,84441, Note_on_c, 0, 49, 0
2,84497, Note_on_c, 0, 76, 0
2,84507, Note_on_c, 0, 74, 80
2,84583, Note_on_c, 0, 74, 0
2,84618, Note_on_c, 0, 73, 84
2,84622, Note_on_c, 0, 50, 78
2,84626, Note_on_c, 0, 47, 76
2,84653, Note_on_c, 0, 50, 0
2,84663, Note_on_c, 0, 47, 0
2,84670, Note_on_c, 0, 73, 0
2,84724, Note_on_c, 0, 74, 78
2,84789, Note_on_c, 0, 74, 0
2,84854, Note_on_c, 0, 49, 85
2,84854, Note_on_c, 0, 76, 78
2,84857, Note_on_c, 0, 45, 74
2,84868, Control_c, 0, 64, 66
2,84883, Control_c, 0, 64, 71
2,84897, Control_c, 0, 64, 73
2,84898, Note_on_c, 0, 76, 0
2,84929, Control_c, 0, 64, 74
2,84945, Control_c, 0, 64, 76
2,84960, Control_c, 0, 64, 78
2,84975, Control_c, 0, 64, 80
2,84991, Control_c, 0, 64, 81
2,85013, Control_c, 0, 64, 82
2,85029, Control_c, 0, 64, 83
2,85044, Control_c, 0, 64, 84
2,85058, Control_c, 0, 64, 86
2,85074, Control_c, 0, 64, 88
2,85089, Control_c, 0, 64, 90
2,85105, Control_c, 0, 64, 90
2,85128, Note_on_c, 0, 59, 92
2,85132, Note_on_c, 0, 78, 87
2,85134, Control_c, 0, 64, 90
2,85134, Note_on_c, 0, 49, 0
2,85150, Control_c, 0, 64, 87
2,85165, Control_c, 0, 64, 77
2,85181, Control_c, 0, 64, 59
2,85196, Control_c, 0, 64, 0
2,85211, Note_on_c, 0, 78, 0
2,85239, Note_on_c, 0, 76, 80
2,85305, Note_on_c, 0, 76, 0
2,85342, Note_on_c, 0, 74, 81
2,85404, Note_on_c, 0, 74, 0
2,85453, Note_on_c, 0, 76, 83
2,85514, Note_on_c, 0, 76, 0
2,85533, Note_on_c, 0, 59, 0
2,85576, Note_on_c, 0, 78, 91
2,85586, Note_on_c, 0, 57, 67
2,85621, Control_c, 0, 64, 64
2,85629, Note_on_c, 0, 57, 0
2,85636, Control_c, 0, 64, 76
2,85642, Note_on_c, 0, 78, 0
2,85651, Control_c, 0, 64, 80
2,85666, Control_c, 0, 64, 81
2,85696, Control_c, 0, 64, 82
2,85712, Control_c, 0, 64, 84
2,85727, Control_c, 0, 64, 86
2,85744, Control_c, 0, 64, 88
2,85759, Control_c, 0, 64, 89
2,85833, Note_on_c, 0, 79, 83
2,85842, Control_c, 0, 64, 88
2,85851, Note_on_c, 0, 59, 61
2,85857, Control_c, 0, 64, 83
2,85873, Control_c, 0, 64, 75
2,85888, Control_c, 0, 64, 61
2,85903, Control_c, 0, 64, 0
2,85914, Note_on_c, 0, 59, 0
2,85934, Note_on_c, 0, 78, 85
2,85951, Note_on_c, 0, 57, 55
2,85956, Note_on_c, 0, 79, 0
2,85992, Note_on_c, 0, 57, 0
2,86021, Note_on_c, 0, 78, 0
2,86050, Note_on_c, 0, 76, 80
2,86057, Note_on_c, 0, 55, 64
2,86099, Note_on_c, 0, 76, 0
2,86131, Note_on_c, 0, 55, 0
2,86152, Note_on_c, 0, 74, 74
2,86165, Note_on_c, 0, 54, 51
2,86209, Note_on_c, 0, 74, 0
2,86227, Note_on_c, 0, 54, 0
2,86272, Note_on_c, 0, 73, 80
2,86283, Note_on_c, 0, 52, 57
2,86343, Note_on_c, 0, 73, 0
2,86346, Control_c, 0, 64, 64
2,86361, Control_c, 0, 64, 72
2,86377, Control_c, 0, 64, 78
2,86391, Control_c, 0, 64, 81
2,86406, Control_c, 0, 64, 83
2,86422, Control_c, 0, 64, 85
2,86436, Control_c, 0, 64, 89
2,86451, Control_c, 0, 64, 92
2,86467, Control_c, 0, 64, 95
2,86482, Control_c, 0, 64, 96
2,86498, Control_c, 0, 64, 97
2,86510, Note_on_c, 0, 52, 0
2,86527, Control_c, 0, 64, 98
2,86545, Note_on_c, 0, 83, 90
2,86551, Note_on_c, 0, 55, 66
2,86566, Control_c, 0, 64, 97
2,86597, Control_c, 0, 64, 96
2,86613, Control_c, 0, 64, 92
2,86626, Note_on_c, 0, 55, 0
2,86627, Control_c, 0, 64, 85
2,86642, Control_c, 0, 64, 75
2,86651, Note_on_c, 0, 54, 62
2,86658, Control_c, 0, 64, 64
2,86673, Control_c, 0, 64, 0
2,86737, Note_on_c, 0, 54, 0
2,86766, Note_on_c, 0, 52, 64
2,86860, Note_on_c, 0, 52, 0
2,86878, Note_on_c, 0, 50, 66
2,86980, Note_on_c, 0, 50, 0
2,86994, Note_on_c, 0, 49, 65
2,87100, Note_on_c, 0, 83, 0
2,87115, Note_on_c, 0, 81, 69
2,87229, Note_on_c, 0, 83, 72
2,87233, Note_on_c, 0, 81, 0
2,87315, Note_on_c, 0, 83, 0
2,87351, Note_on_c, 0, 81, 74
2,87403, Note_on_c, 0, 81, 0
2,87458, Note_on_c, 0, 79, 69
2,87468, Note_on_c, 0, 50, 45
2,87489, Note_on_c, 0, 49, 0
2,87526, Note_on_c, 0, 79, 0
2,87533, Control_c, 0, 64, 19
2,87548, Control_c, 0, 64, 63
2,87548, Note_on_c, 0, 78, 69
2,87562, Control_c, 0, 64, 68
2,87578, Control_c, 0, 64, 72
2,87578, Note_on_c, 0, 78, 0
2,87590, Note_on_c, 0, 50, 0
2,87593, Control_c, 0, 64, 75
2,87608, Control_c, 0, 64, 77
2,87624, Control_c, 0, 64, 77
2,87699, Note_on_c, 0, 76, 57
2,87700, Control_c, 0, 64, 77
2,87715, Control_c, 0, 64, 73
2,87725, Note_on_c, 0, 76, 0
2,87729, Control_c, 0, 64, 66
2,87745, Control_c, 0, 64, 0
2,87747, Note_on_c, 0, 78, 55
2,87764, Note_on_c, 0, 55, 47
2,87807, Note_on_c, 0, 78, 0
2,87820, Note_on_c, 0, 76, 58
2,87843, Note_on_c, 0, 55, 0
2,87857, Note_on_c, 0, 54, 52
2,87864, Note_on_c, 0, 76, 0
2,87874, Note_on_c, 0, 78, 70
2,87913, Note_on_c, 0, 52, 55
2,87920, Note_on_c, 0, 54, 0
2,87935, Note_on_c, 0, 78, 0
2,87949, Note_on_c, 0, 76, 63
2,87991, Note_on_c, 0, 52, 0
2,87997, Note_on_c, 0, 76, 0
2,87999, Note_on_c, 0, 78, 69
2,88014, Note_on_c, 0, 55, 59
2,88055, Note_on_c, 0, 78, 0
2,88078, Note_on_c, 0, 76, 62
2,88082, Note_on_c, 0, 55, 0
2,88126, Note_on_c, 0, 76, 0
2,88128, Note_on_c, 0, 78, 68
2,88141, Note_on_c, 0, 50, 67
2,88187, Note_on_c, 0, 78, 0
2,88199, Note_on_c, 0, 76, 62
2,88207, Note_on_c, 0, 50, 0
2,88245, Note_on_c, 0, 55, 59
2,88249, Note_on_c, 0, 76, 0
2,88253, Note_on_c, 0, 78, 72
2,88309, Note_on_c, 0, 55, 0
2,88309, Note_on_c, 0, 78, 0
2,88320, Note_on_c, 0, 76, 62
2,88362, Note_on_c, 0, 49, 78
2,88375, Note_on_c, 0, 78, 72
2,88377, Note_on_c, 0, 76, 0
2,88430, Note_on_c, 0, 78, 0
2,88439, Note_on_c, 0, 76, 58
2,88496, Note_on_c, 0, 76, 0
2,88497, Note_on_c, 0, 55, 42
2,88498, Note_on_c, 0, 78, 64
2,88499, Control_c, 0, 64, 21
2,88513, Control_c, 0, 64, 63
2,88528, Control_c, 0, 64, 67
2,88544, Control_c, 0, 64, 70
2,88549, Note_on_c, 0, 78, 0
2,88555, Note_on_c, 0, 49, 0
2,88559, Control_c, 0, 64, 71
2,88563, Note_on_c, 0, 76, 65
2,88565, Note_on_c, 0, 55, 0
2,88574, Control_c, 0, 64, 72
2,88598, Note_on_c, 0, 45, 0
2,88599, Note_on_c, 0, 47, 71
2,88616, Note_on_c, 0, 78, 67
2,88617, Note_on_c, 0, 76, 0
2,88665, Control_c, 0, 64, 71
2,88667, Note_on_c, 0, 78, 0
2,88672, Note_on_c, 0, 47, 0
2,88680, Control_c, 0, 64, 68
2,88684, Note_on_c, 0, 76, 68
2,88695, Control_c, 0, 64, 62
2,88710, Control_c, 0, 64, 0
2,88730, Note_on_c, 0, 55, 55
2,88736, Note_on_c, 0, 76, 0
2,88740, Note_on_c, 0, 78, 69
2,88784, Note_on_c, 0, 55, 0
2,88790, Note_on_c, 0, 78, 0
2,88803, Note_on_c, 0, 76, 67
2,88834, Note_on_c, 0, 45, 64
2,88859, Note_on_c, 0, 76, 0
2,88865, Note_on_c, 0, 78, 71
2,88870, Control_c, 0, 64, 56
2,88885, Control_c, 0, 64, 64
2,88885, Note_on_c, 0, 45, 0
2,88900, Control_c, 0, 64, 65
2,88915, Control_c, 0, 64, 66
2,88919, Note_on_c, 0, 78, 0
2,88930, Control_c, 0, 64, 66
2,88936, Note_on_c, 0, 76, 64
2,88946, Control_c, 0, 64, 68
2,88956, Note_on_c, 0, 55, 60
2,88961, Control_c, 0, 64, 69
2,88975, Note_on_c, 0, 76, 0
2,88976, Control_c, 0, 64, 71
2,88983, Note_on_c, 0, 78, 63
2,88991, Control_c, 0, 64, 73
2,89001, Note_on_c, 0, 55, 0
2,89006, Control_c, 0, 64, 74
2,89022, Control_c, 0, 64, 74
2,89058, Note_on_c, 0, 76, 72
2,89058, Note_on_c, 0, 78, 0
2,89069, Control_c, 0, 64, 74
2,89083, Control_c, 0, 64, 73
2,89091, Note_on_c, 0, 54, 60
2,89099, Control_c, 0, 64, 67
2,89114, Control_c, 0, 64, 48
2,89128, Control_c, 0, 64, 0
2,89203, Note_on_c, 0, 81, 68
2,89207, Note_on_c, 0, 76, 0
2,89226, Note_on_c, 0, 55, 53
2,89228, Note_on_c, 0, 54, 0
2,89250, Note_on_c, 0, 79, 68
2,89271, Note_on_c, 0, 55, 0
2,89287, Note_on_c, 0, 81, 0
2,89306, Note_on_c, 0, 57, 60
2,89308, Note_on_c, 0, 78, 75
2,89313, Note_on_c, 0, 79, 0
2,89391, Note_on_c, 0, 78, 0
2,89411, Note_on_c, 0, 81, 63
2,89444, Note_on_c, 0, 52, 57
2,89445, Note_on_c, 0, 81, 0
2,89510, Note_on_c, 0, 52, 0
2,89530, Note_on_c, 0, 76, 66
2,89552, Note_on_c, 0, 50, 54
2,89558, Note_on_c, 0, 76, 0
2,89636, Note_on_c, 0, 50, 0
2,89650, Note_on_c, 0, 49, 61
2,89650, Note_on_c, 0, 81, 61
2,89675, Note_on_c, 0, 81, 0
2,89696, Note_on_c, 0, 57, 0
2,89738, Note_on_c, 0, 49, 0
2,89748, Note_on_c, 0, 47, 54
2,89762, Note_on_c, 0, 74, 71
2,89790, Control_c, 0, 64, 64
2,89805, Control_c, 0, 64, 68
2,89820, Control_c, 0, 64, 69
2,89826, Note_on_c, 0, 74, 0
2,89851, Control_c, 0, 64, 70
2,89867, Control_c, 0, 64, 71
2,89874, Note_on_c, 0, 55, 54
2,89880, Note_on_c, 0, 81, 61
2,89882, Control_c, 0, 64, 73
2,89898, Control_c, 0, 64, 74
2,89913, Control_c, 0, 64, 75
2,89936, Note_on_c, 0, 81, 0
2,89972, Control_c, 0, 64, 74
2,89987, Note_on_c, 0, 54, 62
2,89988, Control_c, 0, 64, 71
2,90000, Note_on_c, 0, 73, 60
2,90002, Control_c, 0, 64, 65
2,90018, Control_c, 0, 64, 0
2,90021, Note_on_c, 0, 55, 0
2,90039, Note_on_c, 0, 73, 0
2,90082, Note_on_c, 0, 54, 0
2,90090, Note_on_c, 0, 52, 60
2,90109, Note_on_c, 0, 81, 69
2,90143, Note_on_c, 0, 81, 0
2,90185, Note_on_c, 0, 52, 0
2,90223, Note_on_c, 0, 50, 52
2,90223, Note_on_c, 0, 71, 66
2,90269, Note_on_c, 0, 71, 0
2,90324, Note_on_c, 0, 81, 73
2,90331, Note_on_c, 0, 50, 0
2,90342, Note_on_c, 0, 54, 46
2,90388, Note_on_c, 0, 81, 0
2,90451, Note_on_c, 0, 54, 0
2,90451, Note_on_c, 0, 79, 81
2,90456, Note_on_c, 0, 52, 56
2,90516, Note_on_c, 0, 52, 0
2,90562, Note_on_c, 0, 54, 65
2,90564, Note_on_c, 0, 78, 84
2,90575, Note_on_c, 0, 79, 0
2,90634, Note_on_c, 0, 47, 0
2,90641, Note_on_c, 0, 54, 0
2,90667, Note_on_c, 0, 78, 0
2,90675, Note_on_c, 0, 55, 64
2,90691, Note_on_c, 0, 76, 73
2,90757, Note_on_c, 0, 76, 0
2,90794, Note_on_c, 0, 50, 57
2,90794, Note_on_c, 0, 79, 70
2,90843, Note_on_c, 0, 79, 0
2,90902, Note_on_c, 0, 49, 64
2,90916, Note_on_c, 0, 74, 71
2,90923, Note_on_c, 0, 50, 0
2,90944, Note_on_c, 0, 74, 0
2,90987, Note_on_c, 0, 49, 0
2,91015, Note_on_c, 0, 47, 67
2,91021, Note_on_c, 0, 79, 68
2,91062, Note_on_c, 0, 79, 0
2,91109, Note_on_c, 0, 47, 0
2,91129, Note_on_c, 0, 45, 62
2,91149, Note_on_c, 0, 73, 75
2,91238, Note_on_c, 0, 55, 0
2,91249, Note_on_c, 0, 54, 58
2,91266, Note_on_c, 0, 79, 66
2,91296, Note_on_c, 0, 73, 0
2,91326, Note_on_c, 0, 54, 0
2,91347, Note_on_c, 0, 79, 0
2,91379, Note_on_c, 0, 52, 55
2,91388, Note_on_c, 0, 71, 67
2,91441, Note_on_c, 0, 52, 0
2,91442, Note_on_c, 0, 71, 0
2,91484, Note_on_c, 0, 79, 70
2,91486, Note_on_c, 0, 50, 52
2,91535, Note_on_c, 0, 50, 0
2,91541, Note_on_c, 0, 79, 0
2,91591, Note_on_c, 0, 49, 55
2,91605, Note_on_c, 0, 69, 70
2,91665, Note_on_c, 0, 69, 0
2,91703, Note_on_c, 0, 49, 0
2,91712, Note_on_c, 0, 52, 53
2,91714, Note_on_c, 0, 79, 68
2,91772, Note_on_c, 0, 52, 0
2,91772, Note_on_c, 0, 79, 0
2,91782, Control_c, 0, 64, 39
2,91797, Control_c, 0, 64, 63
2,91812, Control_c, 0, 64, 66
2,91814, Note_on_c, 0, 45, 0
2,91826, Note_on_c, 0, 78, 75
2,91828, Control_c, 0, 64, 67
2,91838, Note_on_c, 0, 50, 61
2,91843, Control_c, 0, 64, 68
2,91859, Control_c, 0, 64, 69
2,91873, Control_c, 0, 64, 70
2,91888, Control_c, 0, 64, 71
2,91904, Control_c, 0, 64, 72
2,91916, Note_on_c, 0, 50, 0
2,91925, Note_on_c, 0, 78, 0
2,91942, Control_c, 0, 64, 72
2,91952, Note_on_c, 0, 76, 63
2,91959, Note_on_c, 0, 52, 70
2,92004, Note_on_c, 0, 52, 0
2,92033, Control_c, 0, 64, 72
2,92054, Note_on_c, 0, 76, 0
2,92063, Control_c, 0, 64, 71
2,92075, Note_on_c, 0, 74, 66
2,92078, Control_c, 0, 64, 69
2,92085, Note_on_c, 0, 54, 69
2,92094, Control_c, 0, 64, 66
2,92109, Control_c, 0, 64, 55
2,92124, Control_c, 0, 64, 0
2,92150, Note_on_c, 0, 74, 0
2,92209, Note_on_c, 0, 78, 67
2,92234, Note_on_c, 0, 48, 68
2,92280, Note_on_c, 0, 78, 0
2,92326, Note_on_c, 0, 48, 0
2,92340, Note_on_c, 0, 47, 71
2,92348, Note_on_c, 0, 72, 67
2,92402, Note_on_c, 0, 72, 0
2,92457, Note_on_c, 0, 45, 63
2,92457, Note_on_c, 0, 47, 0
2,92464, Note_on_c, 0, 78, 73
2,92534, Note_on_c, 0, 78, 0
2,92563, Note_on_c, 0, 54, 0
2,92572, Note_on_c, 0, 45, 0
2,92582, Note_on_c, 0, 43, 68
2,92592, Note_on_c, 0, 71, 69
2,92626, Control_c, 0, 64, 39
2,92641, Control_c, 0, 64, 64
2,92657, Control_c, 0, 64, 67
2,92672, Control_c, 0, 64, 68
2,92678, Note_on_c, 0, 71, 0
2,92710, Control_c, 0, 64, 68
2,92721, Note_on_c, 0, 47, 60
2,92721, Note_on_c, 0, 78, 65
2,92740, Control_c, 0, 64, 69
2,92777, Note_on_c, 0, 43, 0
2,92798, Note_on_c, 0, 78, 0
2,92816, Control_c, 0, 64, 68
2,92823, Note_on_c, 0, 47, 0
2,92831, Control_c, 0, 64, 64
2,92833, Note_on_c, 0, 49, 60
2,92835, Note_on_c, 0, 69, 71
2,92845, Control_c, 0, 64, 45
2,92861, Control_c, 0, 64, 0
2,92907, Note_on_c, 0, 69, 0
2,92911, Note_on_c, 0, 49, 0
2,92927, Note_on_c, 0, 51, 63
2,92944, Note_on_c, 0, 78, 69
2,92989, Note_on_c, 0, 78, 0
2,93007, Note_on_c, 0, 51, 0
2,93050, Note_on_c, 0, 52, 60
2,93062, Note_on_c, 0, 67, 68
2,93091, Note_on_c, 0, 52, 0
2,93123, Note_on_c, 0, 67, 0
2,93164, Note_on_c, 0, 78, 70
2,93172, Note_on_c, 0, 54, 57
2,93222, Note_on_c, 0, 78, 0
2,93226, Note_on_c, 0, 54, 0
2,93242, Control_c, 0, 67, 9
2,93258, Control_c, 0, 67, 22
2,93272, Control_c, 0, 67, 44
2,93286, Note_on_c, 0, 55, 59
2,93287, Control_c, 0, 67, 76
2,93294, Note_on_c, 0, 76, 68
2,93303, Control_c, 0, 67, 110
2,93318, Control_c, 0, 67, 127
2,93370, Note_on_c, 0, 55, 0
2,93377, Note_on_c, 0, 76, 0
2,93398, Note_on_c, 0, 74, 71
2,93406, Note_on_c, 0, 57, 51
2,93476, Note_on_c, 0, 74, 0
2,93483, Note_on_c, 0, 57, 0
2,93514, Note_on_c, 0, 55, 52
2,93525, Note_on_c, 0, 73, 73
2,93575, Note_on_c, 0, 55, 0
2,93584, Note_on_c, 0, 73, 0
2,93633, Note_on_c, 0, 54, 52
2,93639, Note_on_c, 0, 76, 65
2,93674, Note_on_c, 0, 76, 0
2,93689, Note_on_c, 0, 54, 0
2,93749, Note_on_c, 0, 52, 53
2,93757, Note_on_c, 0, 71, 71
2,93789, Note_on_c, 0, 52, 0
2,93827, Note_on_c, 0, 71, 0
2,93861, Note_on_c, 0, 50, 52
2,93864, Note_on_c, 0, 76, 69
2,93912, Note_on_c, 0, 76, 0
2,93921, Note_on_c, 0, 50, 0
2,93978, Note_on_c, 0, 49, 57
2,93985, Note_on_c, 0, 69, 78
2,94090, Note_on_c, 0, 45, 56
2,94100, Note_on_c, 0, 76, 67
2,94103, Note_on_c, 0, 69, 0
2,94121, Note_on_c, 0, 49, 0
2,94171, Note_on_c, 0, 76, 0
2,94193, Note_on_c, 0, 45, 0
2,94203, Note_on_c, 0, 47, 67
2,94215, Note_on_c, 0, 67, 72
2,94276, Note_on_c, 0, 67, 0
2,94286, Note_on_c, 0, 47, 0
2,94324, Note_on_c, 0, 49, 76
2,94327, Note_on_c, 0, 76, 63
2,94370, Note_on_c, 0, 76, 0
2,94377, Note_on_c, 0, 49, 0
2,94439, Note_on_c, 0, 50, 69
2,94452, Note_on_c, 0, 66, 73
2,94482, Note_on_c, 0, 66, 0
2,94499, Note_on_c, 0, 50, 0
2,94555, Note_on_c, 0, 52, 58
2,94563, Note_on_c, 0, 76, 64
2,94591, Note_on_c, 0, 76, 0
2,94592, Note_on_c, 0, 52, 0
2,94661, Note_on_c, 0, 54, 62
2,94682, Note_on_c, 0, 74, 70
2,94722, Note_on_c, 0, 54, 0
2,94744, Note_on_c, 0, 74, 0
2,94778, Note_on_c, 0, 55, 48
2,94791, Note_on_c, 0, 66, 74
2,94832, Note_on_c, 0, 55, 0
2,94862, Note_on_c, 0, 66, 0
2,94908, Note_on_c, 0, 57, 59
2,94919, Note_on_c, 0, 64, 67
2,94943, Note_on_c, 0, 57, 0
2,94958, Note_on_c, 0, 64, 0
2,95023, Note_on_c, 0, 67, 70
2,95063, Note_on_c, 0, 67, 0
2,95138, Note_on_c, 0, 74, 65
2,95153, Note_on_c, 0, 45, 60
2,95181, Control_c, 0, 64, 49
2,95196, Control_c, 0, 64, 61
2,95199, Note_on_c, 0, 45, 0
2,95211, Control_c, 0, 64, 64
2,95223, Note_on_c, 0, 74, 0
2,95226, Control_c, 0, 64, 65
2,95241, Control_c, 0, 64, 65
2,95246, Note_on_c, 0, 73, 63
2,95280, Note_on_c, 0, 73, 0
2,95287, Control_c, 0, 64, 65
2,95302, Control_c, 0, 64, 64
2,95348, Control_c, 0, 64, 64
2,95363, Control_c, 0, 64, 62
2,95378, Control_c, 0, 64, 41
2,95393, Control_c, 0, 64, 0
2,95433, Note_on_c, 0, 74, 58
2,95440, Note_on_c, 0, 50, 59
2,95464, Note_on_c, 0, 74, 0
2,95470, Note_on_c, 0, 50, 0
2,95506, Note_on_c, 0, 76, 46
2,95535, Note_on_c, 0, 76, 0
2,95561, Note_on_c, 0, 74, 56
2,95586, Note_on_c, 0, 74, 0
2,95609, Note_on_c, 0, 76, 55
2,95651, Note_on_c, 0, 76, 0
2,95672, Note_on_c, 0, 74, 55
2,95696, Note_on_c, 0, 48, 57
2,95702, Note_on_c, 0, 74, 0
2,95722, Note_on_c, 0, 76, 47
2,95767, Note_on_c, 0, 48, 0
2,95775, Note_on_c, 0, 76, 0
2,95801, Note_on_c, 0, 74, 49
2,95806, Note_on_c, 0, 50, 49
2,95826, Note_on_c, 0, 74, 0
2,95843, Note_on_c, 0, 76, 52
2,95861, Note_on_c, 0, 50, 0
2,95892, Note_on_c, 0, 76, 0
2,95914, Note_on_c, 0, 52, 34
2,95921, Note_on_c, 0, 74, 48
2,95953, Note_on_c, 0, 74, 0
2,95965, Note_on_c, 0, 76, 48
2,95972, Note_on_c, 0, 52, 0
2,96010, Note_on_c, 0, 50, 43
2,96017, Note_on_c, 0, 76, 0
2,96049, Note_on_c, 0, 74, 40
2,96056, Note_on_c, 0, 50, 0
2,96074, Note_on_c, 0, 74, 0
2,96088, Note_on_c, 0, 76, 49
2,96125, Note_on_c, 0, 48, 55
2,96129, Note_on_c, 0, 76, 0
2,96151, Note_on_c, 0, 48, 0
2,96159, Note_on_c, 0, 74, 53
2,96183, Note_on_c, 0, 74, 0
2,96206, Note_on_c, 0, 76, 50
2,96248, Note_on_c, 0, 76, 0
2,96258, Note_on_c, 0, 74, 65
2,96308, Note_on_c, 0, 74, 0
2,96321, Note_on_c, 0, 76, 53
2,96366, Note_on_c, 0, 76, 0
2,96370, Note_on_c, 0, 74, 48
2,96391, Note_on_c, 0, 47, 51
2,96472, Note_on_c, 0, 47, 0
2,96503, Note_on_c, 0, 48, 47
2,96606, Note_on_c, 0, 48, 0
2,96641, Note_on_c, 0, 50, 45
2,96727, Note_on_c, 0, 50, 0
2,96753, Note_on_c, 0, 48, 55
2,96835, Note_on_c, 0, 48, 0
2,96886, Note_on_c, 0, 47, 59
2,96986, Note_on_c, 0, 67, 56
2,97065, Note_on_c, 0, 67, 0
2,97089, Note_on_c, 0, 74, 0
2,97089, Note_on_c, 0, 74, 15
2,97103, Note_on_c, 0, 47, 0
2,97114, Note_on_c, 0, 48, 69
2,97114, Note_on_c, 0, 65, 57
2,97147, Note_on_c, 0, 65, 0
2,97148, Note_on_c, 0, 48, 0
2,97208, Note_on_c, 0, 64, 61
2,97313, Note_on_c, 0, 64, 0
2,97344, Note_on_c, 0, 50, 61
2,97352, Note_on_c, 0, 62, 54
2,97375, Note_on_c, 0, 50, 0
2,97401, Note_on_c, 0, 62, 0
2,97464, Note_on_c, 0, 65, 54
2,97563, Note_on_c, 0, 65, 0
2,97570, Note_on_c, 0, 74, 0
2,97585, Note_on_c, 0, 55, 62
2,97597, Note_on_c, 0, 64, 49
2,97656, Note_on_c, 0, 64, 0
2,97698, Note_on_c, 0, 65, 58
2,97785, Note_on_c, 0, 65, 0
2,97824, Note_on_c, 0, 45, 57
2,97827, Note_on_c, 0, 64, 53
2,97835, Note_on_c, 0, 72, 49
2,97850, Note_on_c, 0, 55, 0
2,97857, Note_on_c, 0, 64, 0
2,97934, Note_on_c, 0, 62, 52
2,98012, Note_on_c, 0, 62, 0
2,98078, Note_on_c, 0, 60, 41
2,98111, Note_on_c, 0, 60, 0
2,98201, Note_on_c, 0, 64, 42
2,98203, Note_on_c, 0, 72, 0
2,98272, Note_on_c, 0, 64, 0
2,98285, Note_on_c, 0, 45, 0
2,98297, Note_on_c, 0, 47, 62
2,98318, Note_on_c, 0, 62, 49
2,98370, Note_on_c, 0, 62, 0
2,98414, Note_on_c, 0, 64, 53
2,98499, Note_on_c, 0, 64, 0
2,98517, Note_on_c, 0, 47, 0
2,98538, Note_on_c, 0, 48, 69
2,98543, Note_on_c, 0, 62, 54
2,98566, Note_on_c, 0, 62, 0
2,98574, Note_on_c, 0, 48, 0
2,98583, Note_on_c, 0, 71, 38
2,98636, Note_on_c, 0, 60, 60
2,98722, Note_on_c, 0, 60, 0
2,98754, Note_on_c, 0, 50, 70
2,98766, Note_on_c, 0, 59, 57
2,98788, Note_on_c, 0, 50, 0
2,98819, Note_on_c, 0, 59, 0
2,98884, Note_on_c, 0, 62, 56
2,98982, Note_on_c, 0, 62, 0
2,99006, Note_on_c, 0, 52, 65
2,99012, Note_on_c, 0, 60, 56
2,99043, Note_on_c, 0, 71, 0
2,99095, Note_on_c, 0, 60, 0
2,99130, Note_on_c, 0, 62, 57
2,99227, Note_on_c, 0, 62, 0
2,99254, Note_on_c, 0, 52, 0
2,99257, Note_on_c, 0, 42, 58
2,99257, Note_on_c, 0, 60, 57
2,99276, Note_on_c, 0, 69, 48
2,99291, Note_on_c, 0, 60, 0
2,99374, Note_on_c, 0, 59, 52
2,99455, Note_on_c, 0, 59, 0
2,99499, Note_on_c, 0, 57, 50
2,99548, Note_on_c, 0, 57, 0
2,99605, Note_on_c, 0, 60, 52
2,99688, Note_on_c, 0, 60, 0
2,99710, Note_on_c, 0, 42, 0
2,99737, Note_on_c, 0, 43, 61
2,99741, Note_on_c, 0, 59, 55
2,99797, Note_on_c, 0, 43, 0
2,99826, Note_on_c, 0, 69, 0
2,99855, Note_on_c, 0, 67, 64
2,99974, Note_on_c, 0, 67, 0
2,99982, Note_on_c, 0, 42, 56
2,99986, Note_on_c, 0, 69, 64
2,100044, Note_on_c, 0, 42, 0
2,100069, Note_on_c, 0, 69, 0
2,100101, Note_on_c, 0, 67, 63
2,100104, Note_on_c, 0, 43, 46
2,100154, Note_on_c, 0, 43, 0
2,100190, Note_on_c, 0, 67, 0
2,100217, Note_on_c, 0, 45, 46
2,100226, Note_on_c, 0, 66, 62
2,100247, Note_on_c, 0, 45, 0
2,100279, Note_on_c, 0, 66, 0
2,100315, Note_on_c, 0, 59, 0
2,100328, Note_on_c, 0, 67, 58
2,100332, Note_on_c, 0, 47, 44
2,100408, Note_on_c, 0, 47, 0
2,100419, Note_on_c, 0, 67, 0
2,100487, Note_on_c, 0, 36, 59
2,100493, Note_on_c, 0, 66, 62
2,100495, Note_on_c, 0, 57, 52
2,100510, Control_c, 0, 64, 56
2,100518, Note_on_c, 0, 57, 0
2,100519, Note_on_c, 0, 36, 0
2,100524, Control_c, 0, 64, 67
2,100539, Control_c, 0, 64, 72
2,100541, Note_on_c, 0, 66, 0
2,100555, Control_c, 0, 64, 76
2,100569, Control_c, 0, 64, 77
2,100600, Control_c, 0, 64, 78
2,100644, Note_on_c, 0, 62, 60
2,100662, Control_c, 0, 64, 77
2,100677, Control_c, 0, 64, 75
2,100680, Note_on_c, 0, 64, 68
2,100685, Note_on_c, 0, 62, 0
2,100691, Control_c, 0, 64, 70
2,100707, Control_c, 0, 64, 54
2,100722, Control_c, 0, 64, 0
2,100747, Note_on_c, 0, 66, 67
2,100754, Note_on_c, 0, 60, 55
2,100754, Note_on_c, 0, 64, 0
2,100799, Note_on_c, 0, 60, 0
2,100828, Note_on_c, 0, 66, 0
2,100847, Note_on_c, 0, 62, 69
2,100875, Note_on_c, 0, 59, 50
2,100893, Note_on_c, 0, 62, 0
2,100913, Note_on_c, 0, 59, 0
2,100964, Note_on_c, 0, 57, 55
2,100967, Note_on_c, 0, 67, 66
2,100996, Note_on_c, 0, 57, 0
2,101002, Note_on_c, 0, 67, 0
2,101069, Note_on_c, 0, 62, 69
2,101071, Note_on_c, 0, 55, 62
2,101111, Note_on_c, 0, 55, 0
2,101114, Note_on_c, 0, 62, 0
2,101196, Note_on_c, 0, 69, 72
2,101199, Note_on_c, 0, 54, 65
2,101215, Control_c, 0, 64, 59
2,101231, Control_c, 0, 64, 64
2,101246, Control_c, 0, 64, 65
2,101261, Control_c, 0, 64, 66
2,101261, Note_on_c, 0, 69, 0
2,101270, Note_on_c, 0, 54, 0
2,101276, Control_c, 0, 64, 67
2,101291, Control_c, 0, 64, 69
2,101304, Note_on_c, 0, 62, 65
2,101306, Note_on_c, 0, 52, 67
2,101307, Control_c, 0, 64, 71
2,101323, Control_c, 0, 64, 71
2,101338, Control_c, 0, 64, 72
2,101347, Note_on_c, 0, 52, 0
2,101354, Control_c, 0, 64, 71
2,101370, Note_on_c, 0, 62, 0
2,101384, Control_c, 0, 64, 69
2,101399, Control_c, 0, 64, 63
2,101413, Control_c, 0, 64, 0
2,101416, Note_on_c, 0, 50, 74
2,101428, Note_on_c, 0, 71, 62
2,101461, Note_on_c, 0, 71, 0
2,101462, Note_on_c, 0, 50, 0
2,101535, Note_on_c, 0, 48, 57
2,101537, Note_on_c, 0, 62, 61
2,101566, Note_on_c, 0, 48, 0
2,101583, Note_on_c, 0, 62, 0
2,101633, Note_on_c, 0, 47, 68
2,101650, Note_on_c, 0, 72, 55
2,101680, Note_on_c, 0, 47, 0
2,101697, Note_on_c, 0, 72, 0
2,101750, Note_on_c, 0, 45, 64
2,101753, Note_on_c, 0, 62, 53
2,101782, Note_on_c, 0, 62, 0
2,101793, Note_on_c, 0, 45, 0
2,101795, Control_c, 0, 64, 44
2,101810, Control_c, 0, 64, 51
2,101825, Control_c, 0, 64, 50
2,101840, Control_c, 0, 64, 49
2,101853, Note_on_c, 0, 43, 60
2,101863, Note_on_c, 0, 71, 61
2,101871, Control_c, 0, 64, 49
2,101882, Note_on_c, 0, 71, 0
2,101886, Control_c, 0, 64, 48
2,101909, Control_c, 0, 64, 47
2,101924, Control_c, 0, 64, 45
2,101932, Note_on_c, 0, 43, 0
2,101939, Control_c, 0, 64, 44
2,101954, Control_c, 0, 64, 42
2,101961, Note_on_c, 0, 45, 64
2,101969, Control_c, 0, 64, 41
2,101979, Note_on_c, 0, 79, 69
2,101985, Control_c, 0, 64, 40
2,102021, Note_on_c, 0, 45, 0
2,102030, Note_on_c, 0, 79, 0
2,102045, Control_c, 0, 64, 40
2,102067, Note_on_c, 0, 47, 72
2,102088, Note_on_c, 0, 77, 73
2,102119, Note_on_c, 0, 47, 0
2,102121, Control_c, 0, 64, 40
2,102155, Note_on_c, 0, 77, 0
2,102168, Control_c, 0, 64, 40
2,102182, Note_on_c, 0, 43, 65
2,102184, Control_c, 0, 64, 41
2,102190, Note_on_c, 0, 76, 76
2,102231, Note_on_c, 0, 43, 0
2,102244, Control_c, 0, 64, 40
2,102246, Note_on_c, 0, 76, 0
2,102274, Control_c, 0, 64, 41
2,102289, Control_c, 0, 64, 41
2,102297, Note_on_c, 0, 74, 73
2,102298, Note_on_c, 0, 48, 79
2,102320, Control_c, 0, 64, 42
2,102351, Note_on_c, 0, 74, 0
2,102359, Note_on_c, 0, 48, 0
2,102381, Control_c, 0, 64, 41
2,102397, Note_on_c, 0, 72, 73
2,102401, Note_on_c, 0, 43, 73
2,102410, Control_c, 0, 64, 42
2,102426, Control_c, 0, 64, 42
2,102438, Note_on_c, 0, 72, 0
2,102441, Control_c, 0, 64, 43
2,102453, Note_on_c, 0, 43, 0
2,102514, Note_on_c, 0, 50, 83
2,102520, Note_on_c, 0, 71, 76
2,102532, Control_c, 0, 64, 44
2,102548, Control_c, 0, 64, 44
2,102563, Control_c, 0, 64, 45
2,102563, Control_c, 0, 67, 103
2,102578, Control_c, 0, 64, 46
2,102578, Control_c, 0, 67, 74
2,102593, Control_c, 0, 67, 39
2,102608, Control_c, 0, 64, 45
2,102608, Control_c, 0, 67, 15
2,102621, Note_on_c, 0, 71, 0
2,102624, Control_c, 0, 64, 45
2,102624, Control_c, 0, 67, 0
2,102625, Note_on_c, 0, 43, 60
2,102630, Note_on_c, 0, 69, 74
2,102639, Control_c, 0, 64, 42
2,102654, Control_c, 0, 64, 22
2,102676, Control_c, 0, 64, 0
2,102692, Note_on_c, 0, 43, 0
2,102705, Note_on_c, 0, 50, 0
2,102707, Note_on_c, 0, 69, 0
2,102750, Note_on_c, 0, 52, 69
2,102751, Note_on_c, 0, 67, 73
2,102798, Note_on_c, 0, 52, 0
2,102799, Note_on_c, 0, 67, 0
2,102856, Note_on_c, 0, 65, 76
2,102863, Note_on_c, 0, 43, 62
2,102896, Note_on_c, 0, 43, 0
2,102897, Note_on_c, 0, 65, 0
2,102974, Note_on_c, 0, 64, 72
2,102976, Note_on_c, 0, 53, 69
2,103017, Note_on_c, 0, 64, 0
2,103031, Note_on_c, 0, 53, 0
2,103080, Note_on_c, 0, 62, 78
2,103086, Note_on_c, 0, 43, 69
2,103131, Note_on_c, 0, 43, 0
2,103136, Note_on_c, 0, 62, 0
2,103189, Note_on_c, 0, 60, 72
2,103194, Note_on_c, 0, 52, 73
2,103216, Note_on_c, 0, 60, 0
2,103224, Control_c, 0, 64, 63
2,103239, Control_c, 0, 64, 89
2,103253, Control_c, 0, 64, 95
2,103264, Note_on_c, 0, 52, 0
2,103269, Control_c, 0, 64, 95
2,103275, Note_on_c, 0, 40, 78
2,103308, Note_on_c, 0, 76, 69
2,103315, Control_c, 0, 64, 96
2,103330, Control_c, 0, 64, 97
2,103341, Note_on_c, 0, 42, 67
2,103346, Control_c, 0, 64, 97
2,103361, Note_on_c, 0, 40, 0
2,103372, Note_on_c, 0, 76, 0
2,103387, Note_on_c, 0, 41, 43
2,103392, Note_on_c, 0, 44, 87
2,103406, Control_c, 0, 64, 96
2,103411, Note_on_c, 0, 74, 75
2,103422, Control_c, 0, 64, 89
2,103425, Note_on_c, 0, 41, 0
2,103425, Note_on_c, 0, 42, 0
2,103443, Control_c, 0, 64, 78
2,103458, Control_c, 0, 64, 57
2,103458, Note_on_c, 0, 44, 0
2,103474, Control_c, 0, 64, 0
2,103480, Note_on_c, 0, 74, 0
2,103522, Note_on_c, 0, 40, 68
2,103534, Note_on_c, 0, 72, 76
2,103584, Note_on_c, 0, 72, 0
2,103587, Note_on_c, 0, 40, 0
2,103638, Note_on_c, 0, 45, 84
2,103649, Note_on_c, 0, 71, 67
2,103682, Note_on_c, 0, 71, 0
2,103695, Note_on_c, 0, 45, 0
2,103739, Note_on_c, 0, 40, 80
2,103743, Note_on_c, 0, 69, 70
2,103788, Note_on_c, 0, 69, 0
2,103794, Note_on_c, 0, 40, 0
2,103856, Note_on_c, 0, 47, 95
2,103858, Note_on_c, 0, 68, 71
2,103944, Note_on_c, 0, 68, 0
2,103966, Note_on_c, 0, 66, 72
2,103973, Note_on_c, 0, 40, 71
2,104043, Note_on_c, 0, 47, 0
2,104049, Note_on_c, 0, 66, 0
2,104057, Note_on_c, 0, 40, 0
2,104088, Note_on_c, 0, 64, 76
2,104091, Note_on_c, 0, 48, 76
2,104145, Note_on_c, 0, 64, 0
2,104146, Note_on_c, 0, 48, 0
2,104188, Note_on_c, 0, 62, 80
2,104191, Note_on_c, 0, 40, 76
2,104244, Note_on_c, 0, 62, 0
2,104247, Note_on_c, 0, 40, 0
2,104313, Note_on_c, 0, 60, 80
2,104315, Note_on_c, 0, 50, 76
2,104354, Note_on_c, 0, 50, 0
2,104360, Note_on_c, 0, 60, 0
2,104414, Note_on_c, 0, 40, 67
2,104415, Note_on_c, 0, 59, 80
2,104469, Note_on_c, 0, 59, 0
2,104470, Note_on_c, 0, 40, 0
2,104528, Note_on_c, 0, 57, 79
2,104534, Note_on_c, 0, 49, 71
2,104561, Control_c, 0, 64, 50
2,104572, Note_on_c, 0, 49, 0
2,104576, Control_c, 0, 64, 77
2,104578, Note_on_c, 0, 57, 0
2,104593, Control_c, 0, 64, 81
2,104638, Note_on_c, 0, 59, 81
2,104639, Control_c, 0, 64, 81
2,104642, Note_on_c, 0, 57, 69
2,104670, Control_c, 0, 64, 82
2,104691, Note_on_c, 0, 59, 0
2,104703, Note_on_c, 0, 57, 0
2,104746, Control_c, 0, 64, 81
2,104761, Control_c, 0, 64, 78
2,104761, Note_on_c, 0, 61, 83
2,104765, Note_on_c, 0, 55, 76
2,104776, Control_c, 0, 64, 70
2,104791, Control_c, 0, 64, 0
2,104810, Note_on_c, 0, 55, 0
2,104828, Note_on_c, 0, 61, 0
2,104859, Note_on_c, 0, 57, 82
2,104864, Note_on_c, 0, 54, 76
2,104923, Note_on_c, 0, 54, 0
2,104923, Note_on_c, 0, 57, 0
2,104984, Note_on_c, 0, 52, 81
2,104992, Note_on_c, 0, 62, 90
2,105027, Note_on_c, 0, 52, 0
2,105042, Control_c, 0, 64, 63
2,105056, Control_c, 0, 64, 71
2,105070, Note_on_c, 0, 62, 0
2,105072, Control_c, 0, 64, 72
2,105087, Control_c, 0, 64, 72
2,105094, Note_on_c, 0, 50, 75
2,105098, Note_on_c, 0, 57, 78
2,105103, Control_c, 0, 64, 71
2,105131, Note_on_c, 0, 50, 0
2,105132, Control_c, 0, 64, 71
2,105148, Control_c, 0, 64, 68
2,105163, Control_c, 0, 64, 40
2,105170, Note_on_c, 0, 57, 0
2,105178, Control_c, 0, 64, 0
2,105213, Note_on_c, 0, 49, 88
2,105219, Note_on_c, 0, 64, 93
2,105269, Control_c, 0, 64, 65
2,105284, Control_c, 0, 64, 72
2,105298, Note_on_c, 0, 64, 0
2,105299, Control_c, 0, 64, 76
2,105306, Note_on_c, 0, 49, 0
2,105315, Control_c, 0, 64, 78
2,105330, Control_c, 0, 64, 79
2,105330, Note_on_c, 0, 47, 78
2,105336, Note_on_c, 0, 57, 73
2,105345, Control_c, 0, 64, 81
2,105361, Control_c, 0, 64, 83
2,105376, Control_c, 0, 64, 85
2,105384, Note_on_c, 0, 47, 0
2,105392, Control_c, 0, 64, 87
2,105408, Control_c, 0, 64, 88
2,105435, Note_on_c, 0, 57, 0
2,105438, Control_c, 0, 64, 89
2,105450, Note_on_c, 0, 45, 80
2,105454, Note_on_c, 0, 66, 87
2,105469, Control_c, 0, 64, 88
2,105483, Control_c, 0, 64, 84
2,105498, Control_c, 0, 64, 74
2,105502, Note_on_c, 0, 45, 0
2,105514, Control_c, 0, 64, 26
2,105527, Note_on_c, 0, 66, 0
2,105529, Control_c, 0, 64, 0
2,105567, Note_on_c, 0, 57, 78
2,105568, Note_on_c, 0, 43, 84
2,105622, Note_on_c, 0, 43, 0
2,105642, Note_on_c, 0, 57, 0
2,105687, Note_on_c, 0, 42, 90
2,105699, Note_on_c, 0, 67, 85
2,105761, Note_on_c, 0, 42, 0
2,105783, Note_on_c, 0, 67, 0
2,105813, Note_on_c, 0, 40, 90
2,105825, Note_on_c, 0, 57, 72
2,105875, Note_on_c, 0, 40, 0
2,105907, Note_on_c, 0, 57, 0
2,105964, Note_on_c, 0, 38, 95
2,105971, Note_on_c, 0, 66, 85
2,105984, Note_on_c, 0, 62, 71
2,105993, Control_c, 0, 64, 67
2,106008, Control_c, 0, 64, 84
2,106024, Control_c, 0, 64, 89
2,106039, Control_c, 0, 64, 90
2,106084, Control_c, 0, 64, 91
2,106173, Note_on_c, 0, 66, 0
2,106232, Note_on_c, 0, 71, 76
2,106239, Note_on_c, 0, 60, 80
2,106251, Control_c, 0, 64, 90
2,106267, Control_c, 0, 64, 86
2,106281, Control_c, 0, 64, 78
2,106283, Note_on_c, 0, 62, 0
2,106292, Note_on_c, 0, 71, 0
2,106295, Note_on_c, 0, 60, 0
2,106296, Control_c, 0, 64, 63
2,106312, Control_c, 0, 64, 0
2,106348, Note_on_c, 0, 62, 79
2,106422, Note_on_c, 0, 62, 0
2,106459, Note_on_c, 0, 64, 82
2,106467, Note_on_c, 0, 67, 64
2,106523, Note_on_c, 0, 64, 0
2,106524, Note_on_c, 0, 67, 0
2,106578, Note_on_c, 0, 62, 86
2,106645, Note_on_c, 0, 62, 0
2,106706, Note_on_c, 0, 64, 86
2,106717, Note_on_c, 0, 60, 80
2,106745, Control_c, 0, 64, 63
2,106760, Control_c, 0, 64, 72
2,106775, Control_c, 0, 64, 76
2,106791, Control_c, 0, 64, 77
2,106793, Note_on_c, 0, 60, 0
2,106806, Control_c, 0, 64, 77
2,106821, Control_c, 0, 64, 78
2,106836, Control_c, 0, 64, 80
2,106851, Control_c, 0, 64, 82
2,106866, Control_c, 0, 64, 83
2,106881, Control_c, 0, 64, 83
2,106929, Note_on_c, 0, 64, 0
2,106962, Note_on_c, 0, 69, 71
2,106964, Note_on_c, 0, 59, 78
2,106972, Control_c, 0, 64, 83
2,106988, Control_c, 0, 64, 81
2,107003, Control_c, 0, 64, 79
2,107007, Note_on_c, 0, 69, 0
2,107015, Note_on_c, 0, 59, 0
2,107017, Control_c, 0, 64, 74
2,107033, Control_c, 0, 64, 67
2,107049, Control_c, 0, 64, 0
2,107067, Note_on_c, 0, 60, 83
2,107134, Note_on_c, 0, 60, 0
2,107185, Note_on_c, 0, 62, 77
2,107185, Note_on_c, 0, 66, 79
2,107229, Note_on_c, 0, 62, 0
2,107252, Note_on_c, 0, 66, 0
2,107303, Note_on_c, 0, 60, 85
2,107373, Note_on_c, 0, 60, 0
2,107423, Note_on_c, 0, 67, 87
2,107427, Note_on_c, 0, 59, 83
2,107513, Control_c, 0, 64, 22
2,107518, Note_on_c, 0, 38, 0
2,107528, Control_c, 0, 64, 55
2,107539, Note_on_c, 0, 50, 66
2,107544, Control_c, 0, 64, 61
2,107559, Control_c, 0, 64, 62
2,107573, Control_c, 0, 64, 61
2,107574, Note_on_c, 0, 59, 0
2,107589, Control_c, 0, 64, 55
2,107604, Control_c, 0, 64, 16
2,107619, Control_c, 0, 64, 0
2,107627, Note_on_c, 0, 50, 0
2,107667, Note_on_c, 0, 60, 83
2,107671, Note_on_c, 0, 48, 68
2,107715, Note_on_c, 0, 60, 0
2,107745, Note_on_c, 0, 48, 0
2,107768, Note_on_c, 0, 50, 69
2,107858, Note_on_c, 0, 50, 0
2,107895, Note_on_c, 0, 52, 76
2,107901, Note_on_c, 0, 62, 86
2,107971, Note_on_c, 0, 62, 0
2,107978, Note_on_c, 0, 52, 0
2,108012, Note_on_c, 0, 50, 75
2,108119, Note_on_c, 0, 67, 0
2,108125, Note_on_c, 0, 50, 0
2,108148, Note_on_c, 0, 48, 82
2,108148, Note_on_c, 0, 64, 81
2,108190, Control_c, 0, 64, 67
2,108201, Note_on_c, 0, 64, 0
2,108205, Control_c, 0, 64, 93
2,108218, Note_on_c, 0, 48, 0
2,108221, Control_c, 0, 64, 103
2,108266, Control_c, 0, 64, 104
2,108280, Note_on_c, 0, 69, 88
2,108281, Control_c, 0, 64, 107
2,108296, Control_c, 0, 64, 113
2,108313, Control_c, 0, 64, 123
2,108328, Control_c, 0, 64, 127
2,108331, Note_on_c, 0, 69, 0
2,108404, Control_c, 0, 64, 110
2,108417, Note_on_c, 0, 47, 70
2,108420, Control_c, 0, 64, 83
2,108429, Note_on_c, 0, 71, 87
2,108434, Note_on_c, 0, 54, 75
2,108435, Control_c, 0, 64, 46
2,108450, Control_c, 0, 64, 0
2,108481, Control_c, 0, 64, 54
2,108484, Note_on_c, 0, 69, 82
2,108484, Note_on_c, 0, 71, 0
2,108497, Control_c, 0, 64, 72
2,108512, Control_c, 0, 64, 82
2,108527, Control_c, 0, 64, 91
2,108534, Note_on_c, 0, 47, 0
2,108542, Control_c, 0, 64, 91
2,108545, Note_on_c, 0, 69, 0
2,108556, Note_on_c, 0, 48, 66
2,108556, Note_on_c, 0, 71, 66
2,108557, Control_c, 0, 64, 92
2,108588, Control_c, 0, 64, 92
2,108599, Note_on_c, 0, 71, 0
2,108603, Control_c, 0, 64, 93
2,108604, Note_on_c, 0, 69, 74
2,108619, Control_c, 0, 64, 93
2,108633, Note_on_c, 0, 48, 0
2,108634, Note_on_c, 0, 50, 53
2,108655, Note_on_c, 0, 69, 0
2,108664, Note_on_c, 0, 71, 68
2,108668, Note_on_c, 0, 54, 0
2,108695, Control_c, 0, 64, 93
2,108696, Note_on_c, 0, 48, 45
2,108697, Note_on_c, 0, 50, 0
2,108724, Note_on_c, 0, 71, 0
2,108725, Control_c, 0, 64, 92
2,108726, Note_on_c, 0, 69, 56
2,108741, Control_c, 0, 64, 88
2,108750, Note_on_c, 0, 67, 76
2,108750, Note_on_c, 0, 69, 0
2,108756, Control_c, 0, 64, 82
2,108771, Control_c, 0, 64, 72
2,108786, Control_c, 0, 64, 38
2,108799, Note_on_c, 0, 67, 0
2,108801, Control_c, 0, 64, 0
2,108828, Note_on_c, 0, 69, 75
2,108861, Note_on_c, 0, 48, 0
2,108864, Note_on_c, 0, 71, 81
2,108872, Note_on_c, 0, 69, 0
2,108880, Note_on_c, 0, 47, 74
2,108894, Note_on_c, 0, 55, 73
2,108921, Note_on_c, 0, 55, 0
2,108925, Note_on_c, 0, 71, 0
2,108928, Note_on_c, 0, 47, 0
2,108946, Control_c, 0, 64, 76
2,108961, Control_c, 0, 64, 82
2,108977, Control_c, 0, 64, 85
2,108992, Control_c, 0, 64, 85
2,109006, Control_c, 0, 64, 90
2,109022, Control_c, 0, 64, 98
2,109037, Control_c, 0, 64, 106
2,109052, Control_c, 0, 64, 109
2,109068, Control_c, 0, 64, 109
2,109082, Control_c, 0, 64, 103
2,109098, Control_c, 0, 64, 85
2,109113, Control_c, 0, 64, 0
2,109132, Note_on_c, 0, 72, 77
2,109137, Note_on_c, 0, 69, 81
2,109151, Note_on_c, 0, 45, 59
2,109192, Note_on_c, 0, 45, 0
2,109205, Note_on_c, 0, 72, 0
2,109209, Note_on_c, 0, 69, 0
2,109238, Note_on_c, 0, 47, 56
2,109241, Note_on_c, 0, 71, 75
2,109245, Note_on_c, 0, 67, 71
2,109301, Note_on_c, 0, 47, 0
2,109301, Note_on_c, 0, 67, 0
2,109352, Note_on_c, 0, 48, 73
2,109355, Note_on_c, 0, 66, 80
2,109356, Note_on_c, 0, 69, 72
2,109380, Note_on_c, 0, 71, 0
2,109395, Note_on_c, 0, 66, 0
2,109397, Note_on_c, 0, 48, 0
2,109412, Note_on_c, 0, 69, 0
2,109450, Note_on_c, 0, 47, 85
2,109456, Note_on_c, 0, 71, 68
2,109460, Note_on_c, 0, 67, 72
2,109499, Note_on_c, 0, 67, 0
2,109517, Note_on_c, 0, 47, 0
2,109534, Note_on_c, 0, 71, 0
2,109588, Note_on_c, 0, 69, 84
2,109592, Control_c, 0, 64, 62
2,109592, Note_on_c, 0, 72, 86
2,109594, Note_on_c, 0, 45, 85
2,109607, Control_c, 0, 64, 96
2,109623, Control_c, 0, 64, 115
2,109632, Note_on_c, 0, 69, 0
2,109637, Control_c, 0, 64, 123
2,109638, Note_on_c, 0, 72, 0
2,109639, Note_on_c, 0, 45, 0
2,109652, Control_c, 0, 64, 127
2,109790, Control_c, 0, 64, 102
2,109805, Control_c, 0, 64, 67
2,109820, Control_c, 0, 64, 0
2,109835, Note_on_c, 0, 74, 82
2,109838, Note_on_c, 0, 43, 74
2,109841, Note_on_c, 0, 71, 83
2,109909, Note_on_c, 0, 71, 0
2,109919, Note_on_c, 0, 43, 0
2,109934, Note_on_c, 0, 45, 71
2,109940, Note_on_c, 0, 74, 0
2,109944, Note_on_c, 0, 69, 83
2,109951, Note_on_c, 0, 72, 73
2,109999, Note_on_c, 0, 69, 0
2,110000, Note_on_c, 0, 45, 0
2,110025, Note_on_c, 0, 72, 0
2,110044, Note_on_c, 0, 47, 77
2,110062, Note_on_c, 0, 71, 75
2,110064, Note_on_c, 0, 67, 75
2,110106, Note_on_c, 0, 67, 0
2,110108, Note_on_c, 0, 47, 0
2,110121, Note_on_c, 0, 71, 0
2,110140, Note_on_c, 0, 45, 75
2,110145, Note_on_c, 0, 72, 79
2,110156, Note_on_c, 0, 69, 72
2,110193, Note_on_c, 0, 69, 0
2,110207, Note_on_c, 0, 45, 0
2,110208, Note_on_c, 0, 72, 0
2,110263, Note_on_c, 0, 43, 77
2,110269, Note_on_c, 0, 71, 86
2,110270, Note_on_c, 0, 74, 92
2,110275, Control_c, 0, 64, 82
2,110290, Control_c, 0, 64, 96
2,110297, Note_on_c, 0, 43, 0
2,110307, Control_c, 0, 64, 98
2,110323, Control_c, 0, 64, 99
2,110339, Control_c, 0, 64, 101
2,110361, Control_c, 0, 64, 104
2,110377, Control_c, 0, 64, 107
2,110392, Control_c, 0, 64, 111
2,110408, Control_c, 0, 64, 114
2,110413, Note_on_c, 0, 55, 64
2,110422, Control_c, 0, 64, 116
2,110437, Control_c, 0, 64, 117
2,110465, Note_on_c, 0, 55, 0
2,110468, Control_c, 0, 64, 115
2,110469, Note_on_c, 0, 54, 74
2,110482, Control_c, 0, 64, 98
2,110498, Control_c, 0, 64, 79
2,110510, Note_on_c, 0, 69, 77
2,110510, Note_on_c, 0, 72, 82
2,110513, Control_c, 0, 64, 34
2,110513, Note_on_c, 0, 74, 0
2,110516, Note_on_c, 0, 71, 0
2,110519, Note_on_c, 0, 52, 72
2,110529, Control_c, 0, 64, 0
2,110532, Note_on_c, 0, 54, 0
2,110533, Note_on_c, 0, 69, 0
2,110559, Note_on_c, 0, 72, 0
2,110615, Note_on_c, 0, 55, 64
2,110730, Note_on_c, 0, 55, 0
2,110742, Note_on_c, 0, 50, 69
2,110746, Note_on_c, 0, 71, 85
2,110752, Note_on_c, 0, 67, 79
2,110760, Note_on_c, 0, 52, 0
2,110802, Control_c, 0, 64, 63
2,110817, Control_c, 0, 64, 71
2,110830, Note_on_c, 0, 50, 0
2,110832, Control_c, 0, 64, 80
2,110847, Note_on_c, 0, 55, 67
2,110848, Control_c, 0, 64, 88
2,110863, Control_c, 0, 64, 92
2,110878, Control_c, 0, 64, 95
2,110893, Control_c, 0, 64, 98
2,110908, Control_c, 0, 64, 103
2,110923, Control_c, 0, 64, 107
2,110938, Control_c, 0, 64, 110
2,110955, Note_on_c, 0, 71, 0
2,110963, Note_on_c, 0, 55, 0
2,110969, Control_c, 0, 64, 105
2,110982, Note_on_c, 0, 49, 78
2,110982, Note_on_c, 0, 69, 86
2,110984, Control_c, 0, 64, 87
2,110999, Control_c, 0, 64, 59
2,111015, Control_c, 0, 64, 0
2,111042, Note_on_c, 0, 69, 0
2,111061, Control_c, 0, 64, 60
2,111076, Control_c, 0, 64, 73
2,111091, Control_c, 0, 64, 84
2,111106, Control_c, 0, 64, 92
2,111125, Note_on_c, 0, 57, 70
2,111129, Control_c, 0, 64, 95
2,111144, Control_c, 0, 64, 98
2,111160, Control_c, 0, 64, 102
2,111176, Control_c, 0, 64, 107
2,111191, Control_c, 0, 64, 111
2,111205, Control_c, 0, 64, 117
2,111221, Control_c, 0, 64, 123
2,111232, Note_on_c, 0, 49, 0
2,111236, Control_c, 0, 64, 127
2,111244, Note_on_c, 0, 57, 0
2,111260, Note_on_c, 0, 47, 77
2,111260, Note_on_c, 0, 79, 102
2,111266, Control_c, 0, 64, 114
2,111271, Note_on_c, 0, 74, 76
2,111281, Control_c, 0, 64, 91
2,111297, Control_c, 0, 64, 65
2,111312, Control_c, 0, 64, 0
2,111373, Control_c, 0, 64, 65
2,111388, Control_c, 0, 64, 69
2,111403, Control_c, 0, 64, 72
2,111405, Note_on_c, 0, 57, 53
2,111418, Control_c, 0, 64, 75
2,111433, Control_c, 0, 64, 78
2,111449, Control_c, 0, 64, 80
2,111464, Control_c, 0, 64, 82
2,111477, Note_on_c, 0, 79, 0
2,111479, Control_c, 0, 64, 83
2,111479, Note_on_c, 0, 47, 0
2,111494, Note_on_c, 0, 74, 0
2,111495, Control_c, 0, 64, 84
2,111501, Note_on_c, 0, 57, 0
2,111510, Control_c, 0, 64, 86
2,111515, Note_on_c, 0, 45, 62
2,111518, Note_on_c, 0, 73, 69
2,111525, Control_c, 0, 64, 88
2,111541, Control_c, 0, 64, 91
2,111556, Control_c, 0, 64, 93
2,111572, Control_c, 0, 64, 94
2,111580, Note_on_c, 0, 73, 0
2,111586, Control_c, 0, 64, 95
2,111588, Note_on_c, 0, 45, 0
2,111601, Control_c, 0, 64, 96
2,111617, Control_c, 0, 64, 97
2,111621, Note_on_c, 0, 57, 62
2,111632, Control_c, 0, 64, 97
2,111648, Control_c, 0, 64, 98
2,111662, Control_c, 0, 64, 100
2,111677, Control_c, 0, 64, 101
2,111693, Control_c, 0, 64, 103
2,111697, Note_on_c, 0, 57, 0
2,111709, Note_on_c, 0, 67, 0
2,111737, Note_on_c, 0, 78, 91
2,111738, Control_c, 0, 64, 101
2,111743, Note_on_c, 0, 50, 72
2,111747, Note_on_c, 0, 74, 81
2,111753, Control_c, 0, 64, 90
2,111769, Control_c, 0, 64, 69
2,111784, Control_c, 0, 64, 0
2,111814, Control_c, 0, 64, 47
2,111819, Note_on_c, 0, 50, 0
2,111827, Control_c, 0, 64, 70
2,111842, Control_c, 0, 64, 82
2,111847, Note_on_c, 0, 48, 72
2,111857, Control_c, 0, 64, 94
2,111863, Note_on_c, 0, 78, 0
2,111872, Control_c, 0, 64, 96
2,111896, Control_c, 0, 64, 96
2,111911, Control_c, 0, 64, 97
2,111926, Control_c, 0, 64, 99
2,111931, Note_on_c, 0, 74, 0
2,111941, Control_c, 0, 64, 100
2,111972, Control_c, 0, 64, 99
2,111972, Note_on_c, 0, 46, 73
2,111981, Note_on_c, 0, 76, 85
2,111986, Note_on_c, 0, 67, 82
2,111988, Control_c, 0, 64, 88
2,111993, Note_on_c, 0, 48, 0
2,112003, Control_c, 0, 64, 69
2,112018, Control_c, 0, 64, 0
2,112018, Note_on_c, 0, 67, 0
2,112047, Note_on_c, 0, 76, 0
2,112079, Control_c, 0, 64, 49
2,112083, Note_on_c, 0, 46, 0
2,112094, Control_c, 0, 64, 60
2,112098, Note_on_c, 0, 50, 68
2,112109, Control_c, 0, 64, 50
2,112124, Control_c, 0, 64, 0
2,112177, Note_on_c, 0, 50, 0
2,112199, Note_on_c, 0, 74, 88
2,112210, Note_on_c, 0, 66, 76
2,112230, Control_c, 0, 64, 62
2,112238, Note_on_c, 0, 43, 46
2,112243, Note_on_c, 0, 45, 46
2,112245, Control_c, 0, 64, 66
2,112246, Note_on_c, 0, 66, 0
2,112252, Note_on_c, 0, 74, 0
2,112261, Control_c, 0, 64, 67
2,112276, Control_c, 0, 64, 69
2,112281, Note_on_c, 0, 45, 0
2,112283, Note_on_c, 0, 43, 0
2,112291, Control_c, 0, 64, 71
2,112306, Control_c, 0, 64, 75
2,112314, Note_on_c, 0, 50, 61
2,112321, Control_c, 0, 64, 79
2,112337, Control_c, 0, 64, 81
2,112352, Control_c, 0, 64, 82
2,112367, Control_c, 0, 64, 80
2,112378, Note_on_c, 0, 50, 0
2,112382, Control_c, 0, 64, 71
2,112397, Control_c, 0, 64, 0
2,112425, Note_on_c, 0, 73, 83
2,112435, Note_on_c, 0, 64, 72
2,112436, Note_on_c, 0, 43, 65
2,112459, Control_c, 0, 64, 60
2,112462, Note_on_c, 0, 64, 0
2,112474, Control_c, 0, 64, 72
2,112489, Control_c, 0, 64, 82
2,112503, Note_on_c, 0, 73, 0
2,112504, Control_c, 0, 64, 91
2,112519, Control_c, 0, 64, 96
2,112527, Note_on_c, 0, 43, 0
2,112535, Control_c, 0, 64, 101
2,112550, Control_c, 0, 64, 110
2,112559, Note_on_c, 0, 52, 73
2,112565, Control_c, 0, 64, 124
2,112580, Control_c, 0, 64, 127
2,112678, Note_on_c, 0, 52, 0
2,112706, Note_on_c, 0, 42, 79
2,112709, Control_c, 0, 64, 86
2,112720, Note_on_c, 0, 82, 96
2,112724, Control_c, 0, 64, 0
2,112734, Note_on_c, 0, 73, 72
2,112786, Control_c, 0, 64, 64
2,112801, Control_c, 0, 64, 74
2,112817, Control_c, 0, 64, 85
2,112832, Control_c, 0, 64, 91
2,112847, Control_c, 0, 64, 94
2,112862, Control_c, 0, 64, 96
2,112862, Note_on_c, 0, 52, 78
2,112877, Control_c, 0, 64, 100
2,112892, Control_c, 0, 64, 106
2,112908, Control_c, 0, 64, 111
2,112923, Control_c, 0, 64, 117
2,112924, Note_on_c, 0, 73, 0
2,112925, Note_on_c, 0, 42, 0
2,112926, Note_on_c, 0, 82, 0
2,112938, Control_c, 0, 64, 123
2,112953, Control_c, 0, 64, 127
2,112963, Note_on_c, 0, 52, 0
2,112984, Note_on_c, 0, 40, 89
2,113101, Note_on_c, 0, 52, 88
2,113241, Note_on_c, 0, 81, 93
2,113244, Note_on_c, 0, 52, 0
2,113245, Note_on_c, 0, 42, 87
2,113247, Note_on_c, 0, 72, 89
2,113257, Control_c, 0, 64, 115
2,113257, Note_on_c, 0, 40, 0
2,113272, Control_c, 0, 64, 80
2,113287, Control_c, 0, 64, 0
2,113334, Control_c, 0, 64, 63
2,113348, Control_c, 0, 64, 78
2,113363, Control_c, 0, 64, 95
2,113375, Note_on_c, 0, 79, 87
2,113379, Control_c, 0, 64, 105
2,113394, Control_c, 0, 64, 106
2,113403, Note_on_c, 0, 81, 0
2,113408, Control_c, 0, 64, 106
2,113446, Control_c, 0, 64, 107
2,113462, Control_c, 0, 64, 108
2,113477, Control_c, 0, 64, 111
2,113492, Control_c, 0, 64, 113
2,113496, Note_on_c, 0, 78, 90
2,113504, Note_on_c, 0, 79, 0
2,113507, Control_c, 0, 64, 116
2,113516, Note_on_c, 0, 38, 72
2,113522, Control_c, 0, 64, 122
2,113538, Control_c, 0, 64, 127
2,113545, Note_on_c, 0, 78, 0
2,113611, Note_on_c, 0, 76, 90
2,113699, Note_on_c, 0, 72, 0
2,113721, Note_on_c, 0, 42, 0
2,113724, Note_on_c, 0, 74, 85
2,113732, Note_on_c, 0, 43, 86
2,113737, Control_c, 0, 64, 107
2,113743, Note_on_c, 0, 76, 0
2,113752, Control_c, 0, 64, 76
2,113767, Control_c, 0, 64, 0
2,113783, Note_on_c, 0, 74, 0
2,113812, Control_c, 0, 64, 66
2,113828, Control_c, 0, 64, 83
2,113843, Control_c, 0, 64, 103
2,113858, Control_c, 0, 64, 119
2,113873, Control_c, 0, 64, 127
2,113873, Note_on_c, 0, 71, 74
2,113914, Note_on_c, 0, 71, 0
2,113916, Note_on_c, 0, 69, 84
2,113948, Note_on_c, 0, 38, 0
2,113975, Note_on_c, 0, 71, 95
2,113978, Note_on_c, 0, 40, 96
2,113994, Control_c, 0, 64, 95
2,113994, Note_on_c, 0, 69, 0
2,114009, Control_c, 0, 64, 44
2,114025, Control_c, 0, 64, 0
2,114070, Control_c, 0, 64, 46
2,114085, Control_c, 0, 64, 73
2,114101, Control_c, 0, 64, 83
2,114116, Control_c, 0, 64, 94
2,114119, Note_on_c, 0, 79, 88
2,114131, Control_c, 0, 64, 98
2,114146, Control_c, 0, 64, 103
2,114161, Control_c, 0, 64, 111
2,114177, Control_c, 0, 64, 126
2,114199, Control_c, 0, 64, 127
2,114240, Note_on_c, 0, 71, 0
2,114251, Note_on_c, 0, 40, 0
2,114266, Note_on_c, 0, 36, 89
2,114277, Note_on_c, 0, 69, 95
2,114290, Note_on_c, 0, 79, 0
2,114306, Control_c, 0, 64, 110
2,114321, Control_c, 0, 64, 72
2,114336, Control_c, 0, 64, 0
2,114382, Control_c, 0, 64, 56
2,114397, Control_c, 0, 64, 77
2,114412, Control_c, 0, 64, 100
2,114418, Note_on_c, 0, 72, 91
2,114428, Control_c, 0, 64, 127
2,114521, Note_on_c, 0, 36, 0
2,114526, Note_on_c, 0, 72, 0
2,114541, Note_on_c, 0, 43, 0
2,114557, Note_on_c, 0, 38, 96
2,114561, Control_c, 0, 64, 101
2,114564, Note_on_c, 0, 79, 87
2,114575, Control_c, 0, 64, 67
2,114591, Control_c, 0, 64, 0
2,114651, Control_c, 0, 64, 67
2,114666, Control_c, 0, 64, 78
2,114670, Note_on_c, 0, 79, 0
2,114681, Control_c, 0, 64, 90
2,114696, Control_c, 0, 64, 103
2,114704, Note_on_c, 0, 69, 0
2,114708, Note_on_c, 0, 78, 101
2,114712, Control_c, 0, 64, 127
2,114772, Note_on_c, 0, 78, 0
2,114913, Note_on_c, 0, 38, 0
2,114926, Note_on_c, 0, 43, 105
2,114931, Note_on_c, 0, 79, 101
2,114934, Note_on_c, 0, 71, 90
2,114977, Control_c, 0, 64, 89
2,114993, Control_c, 0, 64, 0
2,115084, Control_c, 0, 64, 38
2,115098, Control_c, 0, 64, 71
2,115098, Note_on_c, 0, 79, 0
2,115114, Control_c, 0, 64, 79
2,115129, Control_c, 0, 64, 83
2,115129, Note_on_c, 0, 78, 75
2,115175, Note_on_c, 0, 76, 79
2,115193, Note_on_c, 0, 71, 0
2,115220, Control_c, 0, 64, 81
2,115228, Note_on_c, 0, 78, 0
2,115231, Note_on_c, 0, 74, 76
2,115237, Control_c, 0, 64, 74
2,115252, Control_c, 0, 64, 59
2,115260, Note_on_c, 0, 71, 63
2,115266, Control_c, 0, 64, 0
2,115330, Note_on_c, 0, 76, 0
2,115354, Note_on_c, 0, 74, 0
2,115368, Note_on_c, 0, 79, 81
2,115375, Note_on_c, 0, 71, 0
2,115417, Note_on_c, 0, 79, 0
2,115487, Note_on_c, 0, 72, 86
2,115496, Note_on_c, 0, 69, 75
2,115528, Note_on_c, 0, 69, 0
2,115533, Note_on_c, 0, 72, 0
2,115612, Note_on_c, 0, 79, 82
2,115655, Note_on_c, 0, 79, 0
2,115749, Note_on_c, 0, 71, 97
2,115759, Note_on_c, 0, 67, 82
2,115761, Control_c, 0, 64, 58
2,115771, Note_on_c, 0, 43, 0
2,115776, Control_c, 0, 64, 107
2,115792, Control_c, 0, 64, 127
2,115834, Note_on_c, 0, 67, 0
2,115879, Note_on_c, 0, 43, 70
2,115943, Note_on_c, 0, 45, 62
2,115996, Note_on_c, 0, 47, 83
2,116000, Note_on_c, 0, 43, 0
2,116001, Note_on_c, 0, 79, 93
2,116010, Note_on_c, 0, 71, 0
2,116012, Note_on_c, 0, 45, 0
2,116048, Note_on_c, 0, 79, 0
2,116128, Note_on_c, 0, 47, 0
2,116130, Note_on_c, 0, 43, 76
2,116266, Control_c, 0, 64, 95
2,116273, Note_on_c, 0, 69, 88
2,116276, Note_on_c, 0, 48, 91
2,116276, Note_on_c, 0, 66, 89
2,116281, Control_c, 0, 64, 63
2,116295, Control_c, 0, 64, 0
2,116314, Note_on_c, 0, 43, 0
2,116342, Control_c, 0, 64, 66
2,116357, Control_c, 0, 64, 82
2,116371, Control_c, 0, 64, 108
2,116378, Note_on_c, 0, 66, 0
2,116387, Control_c, 0, 64, 127
2,116418, Note_on_c, 0, 48, 0
2,116421, Note_on_c, 0, 43, 84
2,116425, Note_on_c, 0, 69, 0
2,116603, Note_on_c, 0, 71, 93
2,116605, Note_on_c, 0, 67, 86
2,116606, Note_on_c, 0, 50, 98
2,116638, Control_c, 0, 64, 85
2,116652, Control_c, 0, 64, 0
2,116697, Control_c, 0, 64, 32
2,116712, Note_on_c, 0, 43, 0
2,116713, Control_c, 0, 64, 70
2,116728, Control_c, 0, 64, 82
2,116744, Control_c, 0, 64, 93
2,116759, Control_c, 0, 64, 98
2,116773, Control_c, 0, 64, 100
2,116787, Note_on_c, 0, 71, 0
2,116787, Note_on_c, 0, 74, 75
2,116789, Control_c, 0, 64, 102
2,116804, Control_c, 0, 64, 106
2,116819, Control_c, 0, 64, 112
2,116835, Control_c, 0, 64, 117
2,116850, Control_c, 0, 64, 123
2,116852, Note_on_c, 0, 72, 71
2,116865, Control_c, 0, 64, 127
2,116902, Note_on_c, 0, 71, 82
2,116903, Note_on_c, 0, 43, 100
2,116906, Note_on_c, 0, 74, 0
2,116947, Note_on_c, 0, 72, 0
2,116957, Control_c, 0, 64, 120
2,116972, Control_c, 0, 64, 89
2,116988, Control_c, 0, 64, 60
2,117002, Control_c, 0, 64, 0
2,117048, Control_c, 0, 64, 69
2,117064, Control_c, 0, 64, 81
2,117064, Note_on_c, 0, 67, 0
2,117074, Note_on_c, 0, 71, 0
2,117079, Control_c, 0, 64, 92
2,117079, Note_on_c, 0, 74, 84
2,117093, Control_c, 0, 64, 96
2,117109, Control_c, 0, 64, 98
2,117124, Control_c, 0, 64, 100
2,117138, Control_c, 0, 64, 103
2,117154, Control_c, 0, 64, 107
2,117169, Control_c, 0, 64, 112
2,117185, Control_c, 0, 64, 119
2,117200, Control_c, 0, 64, 127
2,117238, Note_on_c, 0, 47, 91
2,117238, Note_on_c, 0, 69, 90
2,117242, Note_on_c, 0, 50, 0
2,117247, Note_on_c, 0, 65, 82
2,117247, Note_on_c, 0, 74, 0
2,117298, Control_c, 0, 64, 108
2,117314, Control_c, 0, 64, 92
2,117329, Control_c, 0, 64, 75
2,117344, Control_c, 0, 64, 0
2,117459, Note_on_c, 0, 74, 87
2,117483, Note_on_c, 0, 69, 0
2,117495, Control_c, 0, 64, 71
2,117511, Control_c, 0, 64, 83
2,117526, Control_c, 0, 64, 94
2,117528, Note_on_c, 0, 65, 0
2,117540, Control_c, 0, 64, 99
2,117556, Control_c, 0, 64, 103
2,117571, Control_c, 0, 64, 107
2,117587, Control_c, 0, 64, 112
2,117602, Control_c, 0, 64, 117
2,117617, Control_c, 0, 64, 121
2,117627, Note_on_c, 0, 47, 0
2,117633, Control_c, 0, 64, 127
2,117648, Control_c, 0, 64, 127
2,117693, Note_on_c, 0, 74, 0
2,117724, Note_on_c, 0, 67, 89
2,117731, Note_on_c, 0, 48, 75
2,117737, Note_on_c, 0, 64, 76
2,117755, Control_c, 0, 64, 119
2,117770, Control_c, 0, 64, 102
2,117786, Control_c, 0, 64, 88
2,117801, Control_c, 0, 64, 72
2,117807, Note_on_c, 0, 48, 0
2,117816, Control_c, 0, 64, 0
2,117823, Note_on_c, 0, 47, 61
2,117921, Note_on_c, 0, 48, 74
2,117969, Note_on_c, 0, 47, 0
2,117975, Note_on_c, 0, 50, 81
2,118001, Note_on_c, 0, 48, 0
2,118063, Note_on_c, 0, 52, 93
2,118072, Note_on_c, 0, 50, 0
2,118072, Note_on_c, 0, 72, 85
2,118113, Note_on_c, 0, 64, 0
2,118238, Note_on_c, 0, 52, 0
2,118251, Note_on_c, 0, 48, 72
2,118322, Control_c, 0, 64, 50
2,118337, Control_c, 0, 64, 70
2,118353, Control_c, 0, 64, 77
2,118368, Control_c, 0, 64, 83
2,118382, Control_c, 0, 64, 85
2,118397, Note_on_c, 0, 48, 0
2,118398, Control_c, 0, 64, 87
2,118414, Control_c, 0, 64, 91
2,118430, Control_c, 0, 64, 97
2,118436, Note_on_c, 0, 63, 92
2,118437, Note_on_c, 0, 54, 90
2,118445, Control_c, 0, 64, 103
2,118459, Control_c, 0, 64, 109
2,118464, Note_on_c, 0, 67, 0
2,118475, Control_c, 0, 64, 115
2,118490, Control_c, 0, 64, 127
2,118505, Control_c, 0, 64, 127
2,118520, Note_on_c, 0, 63, 0
2,118593, Note_on_c, 0, 54, 0
2,118647, Note_on_c, 0, 48, 87
2,118944, Note_on_c, 0, 48, 0
2,118962, Note_on_c, 0, 55, 92
2,118972, Note_on_c, 0, 62, 81
2,119015, Control_c, 0, 64, 113
2,119031, Control_c, 0, 64, 77
2,119040, Note_on_c, 0, 72, 0
2,119046, Control_c, 0, 64, 0
2,119061, Note_on_c, 0, 67, 68
2,119067, Note_on_c, 0, 62, 0
2,119146, Note_on_c, 0, 69, 62
2,119194, Note_on_c, 0, 67, 0
2,119208, Note_on_c, 0, 71, 75
2,119260, Note_on_c, 0, 69, 0
2,119294, Note_on_c, 0, 72, 85
2,119305, Note_on_c, 0, 64, 69
2,119317, Note_on_c, 0, 71, 0
2,119475, Note_on_c, 0, 72, 0
2,119487, Control_c, 0, 64, 60
2,119491, Note_on_c, 0, 67, 71
2,119502, Control_c, 0, 64, 70
2,119503, Note_on_c, 0, 64, 0
2,119518, Control_c, 0, 64, 79
2,119518, Note_on_c, 0, 67, 0
2,119532, Control_c, 0, 64, 88
2,119547, Control_c, 0, 64, 93
2,119571, Control_c, 0, 64, 96
2,119586, Control_c, 0, 64, 99
2,119601, Control_c, 0, 64, 102
2,119616, Control_c, 0, 64, 105
2,119632, Control_c, 0, 64, 108
2,119647, Control_c, 0, 64, 109
2,119673, Note_on_c, 0, 74, 82
2,119684, Note_on_c, 0, 71, 65
2,119685, Note_on_c, 0, 65, 74
2,119692, Control_c, 0, 64, 106
2,119707, Control_c, 0, 64, 92
2,119723, Control_c, 0, 64, 74
2,119738, Control_c, 0, 64, 0
2,119783, Control_c, 0, 64, 63
2,119798, Control_c, 0, 64, 77
2,119809, Note_on_c, 0, 65, 0
2,119813, Control_c, 0, 64, 89
2,119829, Control_c, 0, 64, 96
2,119844, Control_c, 0, 64, 98
2,119850, Note_on_c, 0, 67, 72
2,119859, Control_c, 0, 64, 99
2,119859, Note_on_c, 0, 74, 0
2,119875, Control_c, 0, 64, 102
2,119876, Note_on_c, 0, 67, 0
2,119876, Note_on_c, 0, 71, 0
2,119890, Control_c, 0, 64, 105
2,119904, Control_c, 0, 64, 110
2,119920, Control_c, 0, 64, 113
2,119935, Control_c, 0, 64, 116
2,119951, Control_c, 0, 64, 119
2,119966, Control_c, 0, 64, 120
2,119981, Control_c, 0, 64, 121
2,120011, Control_c, 0, 64, 119
2,120013, Note_on_c, 0, 76, 79
2,120017, Note_on_c, 0, 67, 77
2,120017, Note_on_c, 0, 72, 80
2,120026, Control_c, 0, 64, 106
2,120042, Control_c, 0, 64, 89
2,120057, Control_c, 0, 64, 68
2,120073, Control_c, 0, 64, 0
2,120102, Control_c, 0, 64, 25
2,120103, Note_on_c, 0, 72, 0
2,120111, Note_on_c, 0, 71, 71
2,120118, Control_c, 0, 64, 68
2,120132, Control_c, 0, 64, 80
2,120150, Control_c, 0, 64, 94
2,120165, Control_c, 0, 64, 102
2,120179, Control_c, 0, 64, 104
2,120180, Note_on_c, 0, 76, 0
2,120189, Note_on_c, 0, 72, 67
2,120195, Control_c, 0, 64, 107
2,120210, Control_c, 0, 64, 109
2,120224, Control_c, 0, 64, 113
2,120233, Note_on_c, 0, 71, 0
2,120240, Control_c, 0, 64, 117
2,120249, Note_on_c, 0, 74, 79
2,120255, Control_c, 0, 64, 121
2,120266, Note_on_c, 0, 67, 0
2,120271, Control_c, 0, 64, 126
2,120282, Note_on_c, 0, 72, 0
2,120286, Control_c, 0, 64, 127
2,120345, Note_on_c, 0, 76, 87
2,120355, Control_c, 0, 64, 120
2,120355, Note_on_c, 0, 74, 0
2,120367, Note_on_c, 0, 67, 67
2,120369, Control_c, 0, 64, 101
2,120384, Control_c, 0, 64, 77
2,120400, Control_c, 0, 64, 0
2,120445, Control_c, 0, 64, 44
2,120460, Control_c, 0, 64, 68
2,120466, Note_on_c, 0, 76, 0
2,120476, Control_c, 0, 64, 79
2,120491, Control_c, 0, 64, 90
2,120506, Control_c, 0, 64, 94
2,120521, Control_c, 0, 64, 95
2,120536, Control_c, 0, 64, 98
2,120552, Control_c, 0, 64, 101
2,120566, Control_c, 0, 64, 105
2,120575, Note_on_c, 0, 72, 65
2,120578, Note_on_c, 0, 67, 0
2,120581, Control_c, 0, 64, 109
2,120597, Control_c, 0, 64, 113
2,120612, Control_c, 0, 64, 117
2,120627, Control_c, 0, 64, 121
2,120642, Control_c, 0, 64, 126
2,120657, Control_c, 0, 64, 127
2,120740, Note_on_c, 0, 78, 94
2,120756, Note_on_c, 0, 69, 73
2,120763, Control_c, 0, 64, 110
2,120773, Note_on_c, 0, 72, 0
2,120778, Control_c, 0, 64, 83
2,120794, Control_c, 0, 64, 54
2,120809, Control_c, 0, 64, 0
2,120854, Control_c, 0, 64, 65
2,120870, Control_c, 0, 64, 75
2,120885, Control_c, 0, 64, 87
2,120900, Control_c, 0, 64, 92
2,120916, Control_c, 0, 64, 93
2,120930, Control_c, 0, 64, 96
2,120945, Control_c, 0, 64, 98
2,120961, Control_c, 0, 64, 102
2,120968, Note_on_c, 0, 72, 58
2,120977, Control_c, 0, 64, 108
2,120992, Control_c, 0, 64, 113
2,121003, Note_on_c, 0, 69, 0
2,121007, Control_c, 0, 64, 119
2,121022, Control_c, 0, 64, 127
2,121075, Note_on_c, 0, 78, 0
2,121216, Note_on_c, 0, 79, 90
2,121220, Note_on_c, 0, 71, 76
2,121225, Note_on_c, 0, 72, 0
2,121274, Control_c, 0, 64, 102
2,121288, Control_c, 0, 64, 75
2,121303, Control_c, 0, 64, 0
2,121364, Control_c, 0, 64, 32
2,121379, Control_c, 0, 64, 67
2,121395, Control_c, 0, 64, 75
2,121409, Control_c, 0, 64, 81
2,121424, Control_c, 0, 64, 83
2,121440, Control_c, 0, 64, 84
2,121455, Control_c, 0, 64, 85
2,121469, Note_on_c, 0, 74, 67
2,121471, Control_c, 0, 64, 86
2,121486, Control_c, 0, 64, 89
2,121500, Control_c, 0, 64, 91
2,121516, Control_c, 0, 64, 94
2,121531, Control_c, 0, 64, 96
2,121546, Control_c, 0, 64, 98
2,121562, Control_c, 0, 64, 101
2,121577, Control_c, 0, 64, 102
2,121593, Control_c, 0, 64, 103
2,121607, Control_c, 0, 64, 104
2,121638, Control_c, 0, 64, 105
2,121653, Control_c, 0, 64, 105
2,121669, Control_c, 0, 64, 106
2,121688, Note_on_c, 0, 74, 0
2,121697, Note_on_c, 0, 76, 76
2,121698, Control_c, 0, 64, 106
2,121729, Note_on_c, 0, 71, 0
2,121791, Control_c, 0, 64, 107
2,121836, Control_c, 0, 64, 107
2,121874, Control_c, 0, 64, 108
2,121889, Control_c, 0, 64, 108
2,121935, Note_on_c, 0, 72, 74
2,121966, Control_c, 0, 64, 105
2,121980, Control_c, 0, 64, 95
2,121996, Control_c, 0, 64, 79
2,122011, Control_c, 0, 64, 49
2,122026, Control_c, 0, 64, 0
2,122072, Control_c, 0, 64, 64
2,122087, Control_c, 0, 64, 72
2,122102, Control_c, 0, 64, 81
2,122118, Control_c, 0, 64, 85
2,122132, Control_c, 0, 64, 86
2,122147, Control_c, 0, 64, 86
2,122163, Control_c, 0, 64, 87
2,122178, Control_c, 0, 64, 88
2,122183, Note_on_c, 0, 76, 0
2,122194, Control_c, 0, 64, 89
2,122208, Control_c, 0, 64, 90
2,122216, Note_on_c, 0, 69, 76
2,122223, Control_c, 0, 64, 90
2,122239, Control_c, 0, 64, 91
2,122245, Note_on_c, 0, 72, 0
2,122254, Control_c, 0, 64, 92
2,122270, Control_c, 0, 64, 92
2,122285, Control_c, 0, 64, 93
2,122316, Control_c, 0, 64, 93
2,122345, Control_c, 0, 64, 94
2,122375, Control_c, 0, 64, 94
2,122406, Control_c, 0, 64, 95
2,122537, Note_on_c, 0, 78, 87
2,122566, Note_on_c, 0, 79, 0
2,122641, Control_c, 0, 64, 95
2,122725, Note_on_c, 0, 69, 0
2,122808, Control_c, 0, 64, 96
2,122899, Control_c, 0, 64, 96
2,122975, Control_c, 0, 64, 97
2,123061, Note_on_c, 0, 79, 78
2,123074, Note_on_c, 0, 74, 52
2,123078, Note_on_c, 0, 78, 0
2,123079, Note_on_c, 0, 71, 50
2,123082, Control_c, 0, 64, 96
2,123096, Control_c, 0, 64, 96
2,123111, Control_c, 0, 64, 93
2,123127, Control_c, 0, 64, 87
2,123142, Control_c, 0, 64, 78
2,123158, Control_c, 0, 64, 64
2,123172, Control_c, 0, 64, 0
2,125116, Note_on_c, 0, 71, 0
2,125144, Note_on_c, 0, 74, 0
2,125174, Note_on_c, 0, 79, 0
2,125202, Note_on_c, 0, 43, 0
2,125205, Note_on_c, 0, 55, 0
2,125206, End_track
0, 0, End_of_file
