0, 0, Header, 1, 2, 384
1, 0, Start_track
1, 0, Tempo, 500000
1, 0, Time_signature, 4, 2, 24, 8
1, 1, End_track
2, 0, Start_track
2, 0, Title_t, "Tetzloff04-07.MID"
2, 0, Program_c, 0, 0
2, 0, Control_c, 0, 64, 0
2, 0, Control_c, 0, 67, 0
2, 831, Note_on_c, 0, 55, 90
2, 834, Note_on_c, 0, 67, 85
2, 858, Control_c, 0, 64, 34
2, 874, Control_c, 0, 64, 39
2, 889, Control_c, 0, 64, 0
2, 916, Note_on_c, 0, 71, 85
2, 925, Note_on_c, 0, 67, 0
2, 1011, Note_on_c, 0, 74, 78
2, 1025, Note_on_c, 0, 71, 0
2, 1096, Note_on_c, 0, 43, 78
2, 1097, Note_on_c, 0, 79, 85
2, 1101, Note_on_c, 0, 74, 0
2, 1112, Note_on_c, 0, 55, 0
2, 1133, Control_c, 0, 64, 70
2, 1134, Note_on_c, 0, 43, 0
2, 1149, Control_c, 0, 64, 73
2, 1164, Control_c, 0, 64, 74
2, 1178, Control_c, 0, 64, 73
2, 1184, Note_on_c, 0, 74, 74
2, 1212, Note_on_c, 0, 79, 0
2, 1271, Control_c, 0, 64, 73
2, 1272, Note_on_c, 0, 71, 75
2, 1274, Note_on_c, 0, 74, 0
2, 1286, Control_c, 0, 64, 72
2, 1302, Control_c, 0, 64, 69
2, 1325, Control_c, 0, 64, 65
2, 1340, Control_c, 0, 64, 54
2, 1355, Control_c, 0, 64, 0
2, 1364, Note_on_c, 0, 71, 0
2, 1368, Note_on_c, 0, 74, 73
2, 1441, Note_on_c, 0, 74, 0
2, 1448, Note_on_c, 0, 71, 68
2, 1478, Note_on_c, 0, 71, 0
2, 1541, Note_on_c, 0, 67, 67
2, 1569, Note_on_c, 0, 67, 0
2, 1620, Note_on_c, 0, 55, 67
2, 1631, Note_on_c, 0, 71, 71
2, 1646, Note_on_c, 0, 55, 0
2, 1709, Note_on_c, 0, 67, 69
2, 1710, Note_on_c, 0, 71, 0
2, 1793, Note_on_c, 0, 67, 0
2, 1801, Note_on_c, 0, 62, 75
2, 1839, Note_on_c, 0, 62, 0
2, 1875, Note_on_c, 0, 55, 78
2, 1893, Note_on_c, 0, 64, 70
2, 1958, Note_on_c, 0, 64, 0
2, 1980, Note_on_c, 0, 67, 69
2, 2055, Note_on_c, 0, 67, 0
2, 2060, Note_on_c, 0, 72, 76
2, 2162, Note_on_c, 0, 55, 0
2, 2164, Note_on_c, 0, 72, 0
2, 2165, Note_on_c, 0, 43, 53
2, 2165, Note_on_c, 0, 76, 73
2, 2197, Control_c, 0, 64, 10
2, 2208, Note_on_c, 0, 43, 0
2, 2212, Control_c, 0, 64, 13
2, 2243, Control_c, 0, 64, 16
2, 2244, Note_on_c, 0, 72, 68
2, 2245, Note_on_c, 0, 76, 0
2, 2304, Control_c, 0, 64, 13
2, 2325, Note_on_c, 0, 72, 0
2, 2328, Note_on_c, 0, 67, 72
2, 2350, Control_c, 0, 64, 16
2, 2380, Control_c, 0, 64, 18
2, 2395, Control_c, 0, 64, 19
2, 2407, Note_on_c, 0, 67, 0
2, 2422, Note_on_c, 0, 72, 69
2, 2455, Control_c, 0, 64, 21
2, 2471, Control_c, 0, 64, 22
2, 2486, Control_c, 0, 64, 24
2, 2490, Note_on_c, 0, 72, 0
2, 2502, Control_c, 0, 64, 25
2, 2506, Note_on_c, 0, 67, 71
2, 2516, Control_c, 0, 64, 27
2, 2531, Control_c, 0, 64, 28
2, 2531, Note_on_c, 0, 67, 0
2, 2547, Control_c, 0, 64, 30
2, 2562, Control_c, 0, 64, 31
2, 2577, Control_c, 0, 64, 33
2, 2587, Note_on_c, 0, 64, 63
2, 2592, Control_c, 0, 64, 34
2, 2607, Control_c, 0, 64, 37
2, 2618, Note_on_c, 0, 64, 0
2, 2623, Control_c, 0, 64, 39
2, 2652, Control_c, 0, 64, 37
2, 2668, Control_c, 0, 64, 35
2, 2670, Note_on_c, 0, 55, 66
2, 2670, Note_on_c, 0, 67, 70
2, 2683, Control_c, 0, 64, 34
2, 2694, Note_on_c, 0, 55, 0
2, 2698, Control_c, 0, 64, 34
2, 2744, Control_c, 0, 64, 34
2, 2747, Note_on_c, 0, 64, 61
2, 2747, Note_on_c, 0, 67, 0
2, 2759, Control_c, 0, 64, 35
2, 2774, Control_c, 0, 64, 37
2, 2790, Control_c, 0, 64, 38
2, 2791, Note_on_c, 0, 64, 0
2, 2805, Control_c, 0, 64, 38
2, 2821, Control_c, 0, 64, 39
2, 2826, Note_on_c, 0, 60, 71
2, 2835, Control_c, 0, 64, 40
2, 2857, Control_c, 0, 64, 41
2, 2875, Control_c, 0, 64, 42
2, 2890, Control_c, 0, 64, 43
2, 2890, Note_on_c, 0, 60, 0
2, 2905, Control_c, 0, 64, 44
2, 2920, Control_c, 0, 64, 44
2, 2934, Note_on_c, 0, 55, 79
2, 2936, Note_on_c, 0, 57, 66
2, 2965, Control_c, 0, 64, 44
2, 2977, Note_on_c, 0, 57, 0
2, 2981, Control_c, 0, 64, 43
2, 3006, Note_on_c, 0, 60, 76
2, 3026, Control_c, 0, 64, 44
2, 3056, Control_c, 0, 64, 44
2, 3065, Note_on_c, 0, 60, 0
2, 3105, Note_on_c, 0, 66, 77
2, 3117, Control_c, 0, 64, 45
2, 3162, Control_c, 0, 67, 24
2, 3175, Note_on_c, 0, 55, 0
2, 3177, Control_c, 0, 67, 66
2, 3186, Note_on_c, 0, 66, 0
2, 3193, Control_c, 0, 64, 44
2, 3193, Control_c, 0, 67, 127
2, 3196, Note_on_c, 0, 43, 60
2, 3205, Note_on_c, 0, 69, 64
2, 3235, Note_on_c, 0, 43, 0
2, 3239, Control_c, 0, 64, 44
2, 3273, Note_on_c, 0, 66, 66
2, 3278, Note_on_c, 0, 69, 0
2, 3301, Control_c, 0, 64, 44
2, 3355, Note_on_c, 0, 66, 0
2, 3368, Note_on_c, 0, 60, 65
2, 3407, Control_c, 0, 64, 45
2, 3423, Control_c, 0, 64, 45
2, 3424, Note_on_c, 0, 60, 0
2, 3437, Control_c, 0, 64, 46
2, 3447, Note_on_c, 0, 66, 69
2, 3452, Control_c, 0, 64, 47
2, 3468, Control_c, 0, 64, 48
2, 3482, Control_c, 0, 64, 49
2, 3511, Note_on_c, 0, 66, 0
2, 3528, Control_c, 0, 64, 50
2, 3531, Note_on_c, 0, 60, 61
2, 3544, Control_c, 0, 64, 50
2, 3551, Note_on_c, 0, 60, 0
2, 3558, Control_c, 0, 64, 51
2, 3573, Control_c, 0, 64, 52
2, 3589, Control_c, 0, 64, 52
2, 3615, Note_on_c, 0, 57, 54
2, 3628, Control_c, 0, 64, 52
2, 3640, Note_on_c, 0, 57, 0
2, 3681, Note_on_c, 0, 60, 54
2, 3691, Note_on_c, 0, 55, 61
2, 3713, Note_on_c, 0, 55, 0
2, 3734, Control_c, 0, 64, 51
2, 3762, Note_on_c, 0, 60, 0
2, 3763, Note_on_c, 0, 57, 49
2, 3781, Control_c, 0, 64, 52
2, 3810, Control_c, 0, 64, 52
2, 3826, Control_c, 0, 64, 53
2, 3840, Note_on_c, 0, 57, 0
2, 3841, Control_c, 0, 64, 54
2, 3851, Note_on_c, 0, 54, 65
2, 3856, Control_c, 0, 64, 54
2, 3884, Note_on_c, 0, 54, 0
2, 3917, Control_c, 0, 64, 54
2, 3946, Note_on_c, 0, 55, 71
2, 3962, Control_c, 0, 64, 54
2, 3993, Control_c, 0, 64, 55
2, 4007, Control_c, 0, 64, 54
2, 4026, Note_on_c, 0, 59, 71
2, 4071, Control_c, 0, 64, 56
2, 4082, Note_on_c, 0, 59, 0
2, 4085, Control_c, 0, 64, 58
2, 4101, Control_c, 0, 64, 59
2, 4116, Control_c, 0, 64, 58
2, 4121, Note_on_c, 0, 62, 70
2, 4161, Control_c, 0, 64, 59
2, 4168, Note_on_c, 0, 55, 0
2, 4189, Note_on_c, 0, 62, 0
2, 4192, Control_c, 0, 64, 59
2, 4200, Note_on_c, 0, 43, 57
2, 4202, Note_on_c, 0, 67, 68
2, 4238, Control_c, 0, 64, 59
2, 4253, Note_on_c, 0, 43, 0
2, 4269, Note_on_c, 0, 62, 65
2, 4269, Note_on_c, 0, 67, 0
2, 4349, Note_on_c, 0, 62, 0
2, 4366, Note_on_c, 0, 59, 63
2, 4420, Note_on_c, 0, 59, 0
2, 4442, Control_c, 0, 64, 59
2, 4451, Note_on_c, 0, 62, 67
2, 4509, Note_on_c, 0, 62, 0
2, 4530, Note_on_c, 0, 59, 67
2, 4565, Note_on_c, 0, 59, 0
2, 4609, Note_on_c, 0, 55, 62
2, 4636, Note_on_c, 0, 55, 0
2, 4672, Note_on_c, 0, 59, 69
2, 4691, Note_on_c, 0, 55, 45
2, 4699, Note_on_c, 0, 59, 0
2, 4717, Control_c, 0, 64, 59
2, 4720, Note_on_c, 0, 55, 0
2, 4748, Control_c, 0, 64, 59
2, 4754, Note_on_c, 0, 55, 67
2, 4807, Note_on_c, 0, 55, 0
2, 4808, Control_c, 0, 64, 60
2, 4834, Note_on_c, 0, 52, 72
2, 4902, Note_on_c, 0, 52, 0
2, 4916, Note_on_c, 0, 57, 74
2, 4922, Note_on_c, 0, 55, 84
2, 5004, Note_on_c, 0, 61, 79
2, 5005, Control_c, 0, 64, 60
2, 5017, Note_on_c, 0, 57, 0
2, 5071, Note_on_c, 0, 61, 0
2, 5095, Note_on_c, 0, 64, 74
2, 5097, Control_c, 0, 64, 61
2, 5179, Note_on_c, 0, 55, 0
2, 5186, Note_on_c, 0, 64, 0
2, 5187, Note_on_c, 0, 69, 82
2, 5189, Note_on_c, 0, 43, 73
2, 5226, Note_on_c, 0, 43, 0
2, 5267, Note_on_c, 0, 64, 69
2, 5296, Note_on_c, 0, 69, 0
2, 5348, Note_on_c, 0, 61, 75
2, 5348, Note_on_c, 0, 64, 0
2, 5409, Note_on_c, 0, 61, 0
2, 5433, Note_on_c, 0, 64, 65
2, 5482, Note_on_c, 0, 64, 0
2, 5514, Note_on_c, 0, 61, 65
2, 5530, Control_c, 0, 64, 61
2, 5545, Note_on_c, 0, 61, 0
2, 5576, Control_c, 0, 64, 62
2, 5601, Note_on_c, 0, 57, 56
2, 5634, Note_on_c, 0, 57, 0
2, 5654, Note_on_c, 0, 55, 71
2, 5679, Note_on_c, 0, 55, 0
2, 5681, Note_on_c, 0, 61, 64
2, 5697, Control_c, 0, 64, 61
2, 5742, Control_c, 0, 64, 61
2, 5745, Note_on_c, 0, 57, 58
2, 5790, Note_on_c, 0, 61, 0
2, 5833, Note_on_c, 0, 52, 64
2, 5865, Control_c, 0, 64, 61
2, 5866, Note_on_c, 0, 57, 0
2, 5872, Note_on_c, 0, 52, 0
2, 5912, Note_on_c, 0, 62, 71
2, 5926, Note_on_c, 0, 54, 64
2, 5962, Control_c, 0, 64, 61
2, 5977, Note_on_c, 0, 62, 0
2, 5978, Control_c, 0, 64, 61
2, 5978, Note_on_c, 0, 54, 0
2, 6003, Note_on_c, 0, 57, 57
2, 6024, Control_c, 0, 64, 61
2, 6069, Control_c, 0, 64, 61
2, 6086, Note_on_c, 0, 61, 74
2, 6090, Note_on_c, 0, 57, 0
2, 6125, Note_on_c, 0, 61, 0
2, 6174, Note_on_c, 0, 62, 67
2, 6222, Note_on_c, 0, 62, 0
2, 6253, Control_c, 0, 64, 61
2, 6253, Note_on_c, 0, 57, 63
2, 6291, Note_on_c, 0, 57, 0
2, 6344, Note_on_c, 0, 54, 63
2, 6394, Note_on_c, 0, 54, 0
2, 6420, Note_on_c, 0, 57, 67
2, 6482, Note_on_c, 0, 57, 0
2, 6507, Note_on_c, 0, 54, 68
2, 6564, Note_on_c, 0, 54, 0
2, 6580, Note_on_c, 0, 50, 62
2, 6618, Control_c, 0, 64, 61
2, 6638, Note_on_c, 0, 50, 0
2, 6660, Note_on_c, 0, 54, 70
2, 6675, Note_on_c, 0, 62, 71
2, 6718, Note_on_c, 0, 62, 0
2, 6728, Note_on_c, 0, 54, 0
2, 6751, Note_on_c, 0, 50, 67
2, 6805, Control_c, 0, 64, 62
2, 6816, Note_on_c, 0, 50, 0
2, 6826, Note_on_c, 0, 47, 60
2, 6904, Note_on_c, 0, 47, 0
2, 6920, Note_on_c, 0, 52, 69
2, 6927, Note_on_c, 0, 62, 73
2, 6996, Note_on_c, 0, 62, 0
2, 7011, Note_on_c, 0, 61, 65
2, 7087, Note_on_c, 0, 62, 65
2, 7131, Note_on_c, 0, 61, 0
2, 7164, Note_on_c, 0, 64, 66
2, 7166, Note_on_c, 0, 62, 0
2, 7189, Note_on_c, 0, 52, 0
2, 7198, Note_on_c, 0, 40, 61
2, 7242, Note_on_c, 0, 40, 0
2, 7247, Control_c, 0, 64, 61
2, 7247, Note_on_c, 0, 64, 0
2, 7250, Note_on_c, 0, 61, 71
2, 7292, Control_c, 0, 64, 61
2, 7309, Note_on_c, 0, 61, 0
2, 7336, Note_on_c, 0, 62, 69
2, 7353, Control_c, 0, 64, 60
2, 7399, Note_on_c, 0, 62, 0
2, 7422, Note_on_c, 0, 66, 79
2, 7515, Note_on_c, 0, 61, 70
2, 7528, Note_on_c, 0, 66, 0
2, 7581, Note_on_c, 0, 61, 0
2, 7594, Note_on_c, 0, 62, 69
2, 7650, Note_on_c, 0, 62, 0
2, 7682, Note_on_c, 0, 67, 81
2, 7684, Note_on_c, 0, 52, 69
2, 7710, Control_c, 0, 64, 60
2, 7710, Note_on_c, 0, 52, 0
2, 7756, Control_c, 0, 64, 59
2, 7771, Note_on_c, 0, 61, 72
2, 7785, Note_on_c, 0, 67, 0
2, 7802, Control_c, 0, 64, 60
2, 7843, Note_on_c, 0, 61, 0
2, 7861, Note_on_c, 0, 62, 72
2, 7922, Note_on_c, 0, 62, 0
2, 7938, Control_c, 0, 64, 60
2, 7954, Note_on_c, 0, 69, 85
2, 7955, Note_on_c, 0, 49, 69
2, 7969, Control_c, 0, 64, 62
2, 7985, Control_c, 0, 64, 63
2, 7999, Control_c, 0, 64, 64
2, 8014, Control_c, 0, 64, 65
2, 8030, Control_c, 0, 64, 66
2, 8030, Note_on_c, 0, 61, 59
2, 8045, Control_c, 0, 64, 66
2, 8061, Control_c, 0, 64, 67
2, 8066, Note_on_c, 0, 69, 0
2, 8076, Control_c, 0, 64, 68
2, 8091, Control_c, 0, 64, 68
2, 8107, Control_c, 0, 64, 69
2, 8114, Note_on_c, 0, 61, 0
2, 8121, Control_c, 0, 64, 69
2, 8122, Note_on_c, 0, 62, 66
2, 8152, Control_c, 0, 64, 70
2, 8186, Note_on_c, 0, 62, 0
2, 8225, Note_on_c, 0, 71, 76
2, 8232, Note_on_c, 0, 45, 59
2, 8235, Control_c, 0, 64, 68
2, 8246, Note_on_c, 0, 49, 0
2, 8250, Control_c, 0, 64, 64
2, 8266, Control_c, 0, 64, 51
2, 8275, Note_on_c, 0, 45, 0
2, 8280, Control_c, 0, 64, 0
2, 8308, Note_on_c, 0, 71, 0
2, 8322, Note_on_c, 0, 61, 63
2, 8378, Note_on_c, 0, 61, 0
2, 8403, Note_on_c, 0, 62, 58
2, 8464, Note_on_c, 0, 62, 0
2, 8489, Note_on_c, 0, 69, 70
2, 8490, Note_on_c, 0, 47, 59
2, 8528, Note_on_c, 0, 47, 0
2, 8578, Note_on_c, 0, 61, 57
2, 8620, Note_on_c, 0, 69, 0
2, 8626, Note_on_c, 0, 61, 0
2, 8666, Note_on_c, 0, 62, 56
2, 8742, Note_on_c, 0, 67, 65
2, 8748, Note_on_c, 0, 49, 64
2, 8761, Note_on_c, 0, 62, 0
2, 8788, Note_on_c, 0, 49, 0
2, 8824, Note_on_c, 0, 61, 61
2, 8832, Note_on_c, 0, 67, 0
2, 8879, Note_on_c, 0, 61, 0
2, 8900, Note_on_c, 0, 62, 59
2, 9006, Note_on_c, 0, 62, 0
2, 9006, Note_on_c, 0, 66, 67
2, 9020, Note_on_c, 0, 50, 60
2, 9089, Note_on_c, 0, 61, 66
2, 9094, Control_c, 0, 64, 22
2, 9105, Note_on_c, 0, 66, 0
2, 9110, Control_c, 0, 64, 32
2, 9124, Control_c, 0, 64, 36
2, 9140, Control_c, 0, 64, 40
2, 9153, Note_on_c, 0, 61, 0
2, 9155, Control_c, 0, 64, 44
2, 9170, Control_c, 0, 64, 46
2, 9170, Note_on_c, 0, 62, 60
2, 9186, Control_c, 0, 64, 48
2, 9201, Control_c, 0, 64, 49
2, 9216, Control_c, 0, 64, 49
2, 9246, Control_c, 0, 64, 48
2, 9249, Note_on_c, 0, 50, 0
2, 9249, Note_on_c, 0, 62, 0
2, 9262, Control_c, 0, 64, 46
2, 9263, Note_on_c, 0, 67, 68
2, 9273, Note_on_c, 0, 52, 63
2, 9277, Control_c, 0, 64, 43
2, 9292, Control_c, 0, 64, 39
2, 9305, Note_on_c, 0, 52, 0
2, 9308, Control_c, 0, 64, 36
2, 9322, Control_c, 0, 64, 35
2, 9337, Control_c, 0, 64, 36
2, 9347, Note_on_c, 0, 61, 61
2, 9353, Control_c, 0, 64, 36
2, 9354, Note_on_c, 0, 67, 0
2, 9368, Control_c, 0, 64, 37
2, 9383, Control_c, 0, 64, 38
2, 9398, Control_c, 0, 64, 39
2, 9402, Note_on_c, 0, 61, 0
2, 9410, Note_on_c, 0, 62, 67
2, 9413, Control_c, 0, 64, 39
2, 9430, Control_c, 0, 64, 40
2, 9461, Control_c, 0, 64, 40
2, 9483, Note_on_c, 0, 62, 0
2, 9490, Control_c, 0, 64, 41
2, 9506, Control_c, 0, 64, 41
2, 9519, Note_on_c, 0, 54, 62
2, 9519, Note_on_c, 0, 69, 74
2, 9550, Note_on_c, 0, 54, 0
2, 9551, Control_c, 0, 64, 42
2, 9602, Note_on_c, 0, 61, 69
2, 9605, Note_on_c, 0, 69, 0
2, 9642, Control_c, 0, 64, 43
2, 9657, Control_c, 0, 64, 43
2, 9660, Note_on_c, 0, 61, 0
2, 9673, Control_c, 0, 64, 44
2, 9680, Note_on_c, 0, 62, 69
2, 9687, Control_c, 0, 64, 44
2, 9761, Note_on_c, 0, 62, 0
2, 9771, Control_c, 0, 64, 45
2, 9780, Note_on_c, 0, 55, 69
2, 9780, Note_on_c, 0, 71, 72
2, 9812, Note_on_c, 0, 55, 0
2, 9816, Control_c, 0, 64, 45
2, 9847, Control_c, 0, 64, 46
2, 9855, Note_on_c, 0, 71, 0
2, 9870, Note_on_c, 0, 61, 66
2, 9908, Control_c, 0, 64, 46
2, 9927, Note_on_c, 0, 61, 0
2, 9938, Control_c, 0, 64, 47
2, 9946, Note_on_c, 0, 62, 65
2, 9954, Control_c, 0, 64, 47
2, 10010, Note_on_c, 0, 62, 0
2, 10039, Note_on_c, 0, 69, 73
2, 10047, Note_on_c, 0, 54, 51
2, 10060, Control_c, 0, 64, 48
2, 10075, Note_on_c, 0, 54, 0
2, 10118, Note_on_c, 0, 61, 58
2, 10121, Note_on_c, 0, 69, 0
2, 10136, Control_c, 0, 64, 48
2, 10163, Note_on_c, 0, 61, 0
2, 10182, Control_c, 0, 64, 49
2, 10197, Control_c, 0, 64, 49
2, 10198, Note_on_c, 0, 62, 63
2, 10274, Control_c, 0, 64, 50
2, 10285, Note_on_c, 0, 67, 73
2, 10286, Note_on_c, 0, 52, 60
2, 10292, Note_on_c, 0, 62, 0
2, 10305, Control_c, 0, 64, 50
2, 10319, Control_c, 0, 64, 51
2, 10321, Note_on_c, 0, 52, 0
2, 10334, Control_c, 0, 64, 51
2, 10374, Note_on_c, 0, 61, 58
2, 10374, Note_on_c, 0, 67, 0
2, 10410, Control_c, 0, 64, 52
2, 10426, Control_c, 0, 64, 52
2, 10433, Note_on_c, 0, 61, 0
2, 10438, Note_on_c, 0, 62, 70
2, 10441, Control_c, 0, 64, 53
2, 10455, Control_c, 0, 64, 54
2, 10471, Control_c, 0, 64, 54
2, 10517, Control_c, 0, 64, 54
2, 10529, Note_on_c, 0, 50, 64
2, 10549, Note_on_c, 0, 66, 69
2, 10553, Note_on_c, 0, 62, 0
2, 10555, Control_c, 0, 64, 55
2, 10559, Note_on_c, 0, 50, 0
2, 10570, Control_c, 0, 64, 59
2, 10586, Control_c, 0, 64, 63
2, 10601, Control_c, 0, 64, 65
2, 10607, Note_on_c, 0, 61, 66
2, 10615, Control_c, 0, 64, 68
2, 10618, Note_on_c, 0, 66, 0
2, 10631, Control_c, 0, 64, 72
2, 10646, Control_c, 0, 64, 76
2, 10661, Control_c, 0, 64, 79
2, 10676, Control_c, 0, 64, 81
2, 10676, Note_on_c, 0, 61, 0
2, 10677, Note_on_c, 0, 62, 69
2, 10691, Control_c, 0, 64, 82
2, 10707, Control_c, 0, 64, 82
2, 10722, Control_c, 0, 64, 83
2, 10736, Control_c, 0, 64, 83
2, 10747, Note_on_c, 0, 62, 0
2, 10769, Note_on_c, 0, 54, 60
2, 10773, Note_on_c, 0, 69, 78
2, 10801, Note_on_c, 0, 54, 0
2, 10809, Note_on_c, 0, 69, 0
2, 10842, Note_on_c, 0, 61, 75
2, 10897, Note_on_c, 0, 61, 0
2, 10904, Control_c, 0, 64, 83
2, 10925, Note_on_c, 0, 62, 76
2, 10934, Control_c, 0, 64, 82
2, 10934, Control_c, 0, 67, 109
2, 10950, Control_c, 0, 64, 78
2, 10950, Control_c, 0, 67, 58
2, 10965, Control_c, 0, 64, 66
2, 10965, Control_c, 0, 67, 0
2, 10980, Note_on_c, 0, 62, 0
2, 10981, Control_c, 0, 64, 0
2, 11039, Note_on_c, 0, 47, 95
2, 11048, Note_on_c, 0, 68, 94
2, 11129, Note_on_c, 0, 71, 84
2, 11130, Note_on_c, 0, 68, 0
2, 11215, Note_on_c, 0, 71, 0
2, 11215, Note_on_c, 0, 74, 79
2, 11298, Note_on_c, 0, 59, 88
2, 11302, Note_on_c, 0, 77, 84
2, 11312, Note_on_c, 0, 74, 0
2, 11319, Note_on_c, 0, 47, 0
2, 11322, Control_c, 0, 64, 66
2, 11324, Note_on_c, 0, 59, 0
2, 11337, Control_c, 0, 64, 96
2, 11353, Control_c, 0, 64, 106
2, 11368, Control_c, 0, 64, 106
2, 11385, Note_on_c, 0, 74, 69
2, 11415, Note_on_c, 0, 77, 0
2, 11430, Control_c, 0, 64, 105
2, 11445, Control_c, 0, 64, 98
2, 11460, Control_c, 0, 64, 86
2, 11470, Note_on_c, 0, 71, 76
2, 11471, Note_on_c, 0, 74, 0
2, 11475, Control_c, 0, 64, 70
2, 11490, Control_c, 0, 64, 0
2, 11548, Note_on_c, 0, 71, 0
2, 11554, Note_on_c, 0, 74, 69
2, 11624, Note_on_c, 0, 74, 0
2, 11629, Note_on_c, 0, 71, 66
2, 11668, Note_on_c, 0, 71, 0
2, 11701, Note_on_c, 0, 68, 68
2, 11719, Note_on_c, 0, 68, 0
2, 11733, Control_c, 0, 64, 61
2, 11749, Control_c, 0, 64, 65
2, 11764, Control_c, 0, 64, 0
2, 11783, Note_on_c, 0, 57, 77
2, 11796, Note_on_c, 0, 71, 77
2, 11808, Note_on_c, 0, 57, 0
2, 11888, Note_on_c, 0, 68, 74
2, 11892, Note_on_c, 0, 71, 0
2, 11953, Note_on_c, 0, 64, 71
2, 11961, Note_on_c, 0, 68, 0
2, 12020, Note_on_c, 0, 64, 0
2, 12041, Note_on_c, 0, 62, 81
2, 12052, Note_on_c, 0, 56, 86
2, 12061, Control_c, 0, 64, 53
2, 12076, Control_c, 0, 64, 39
2, 12091, Control_c, 0, 64, 0
2, 12126, Note_on_c, 0, 65, 82
2, 12128, Note_on_c, 0, 62, 0
2, 12222, Note_on_c, 0, 68, 76
2, 12226, Note_on_c, 0, 65, 0
2, 12307, Note_on_c, 0, 68, 0
2, 12312, Note_on_c, 0, 71, 68
2, 12315, Note_on_c, 0, 44, 76
2, 12328, Note_on_c, 0, 56, 0
2, 12334, Control_c, 0, 64, 62
2, 12349, Note_on_c, 0, 44, 0
2, 12350, Control_c, 0, 64, 69
2, 12365, Control_c, 0, 64, 68
2, 12381, Control_c, 0, 64, 64
2, 12384, Note_on_c, 0, 68, 72
2, 12393, Note_on_c, 0, 71, 0
2, 12396, Control_c, 0, 64, 48
2, 12411, Control_c, 0, 64, 13
2, 12426, Control_c, 0, 64, 28
2, 12441, Control_c, 0, 64, 39
2, 12456, Control_c, 0, 64, 38
2, 12471, Control_c, 0, 64, 35
2, 12472, Note_on_c, 0, 65, 69
2, 12473, Note_on_c, 0, 68, 0
2, 12486, Control_c, 0, 64, 32
2, 12502, Control_c, 0, 64, 31
2, 12517, Control_c, 0, 64, 32
2, 12532, Control_c, 0, 64, 32
2, 12543, Note_on_c, 0, 65, 0
2, 12547, Control_c, 0, 64, 25
2, 12551, Note_on_c, 0, 68, 69
2, 12562, Control_c, 0, 64, 0
2, 12608, Control_c, 0, 64, 18
2, 12623, Control_c, 0, 64, 32
2, 12634, Note_on_c, 0, 65, 67
2, 12635, Note_on_c, 0, 68, 0
2, 12638, Control_c, 0, 64, 38
2, 12653, Control_c, 0, 64, 41
2, 12668, Note_on_c, 0, 65, 0
2, 12669, Control_c, 0, 64, 43
2, 12683, Control_c, 0, 64, 46
2, 12700, Control_c, 0, 64, 49
2, 12715, Control_c, 0, 64, 51
2, 12722, Note_on_c, 0, 62, 62
2, 12730, Control_c, 0, 64, 52
2, 12746, Control_c, 0, 64, 52
2, 12754, Note_on_c, 0, 62, 0
2, 12761, Control_c, 0, 64, 53
2, 12772, Note_on_c, 0, 56, 63
2, 12775, Control_c, 0, 64, 53
2, 12804, Note_on_c, 0, 56, 0
2, 12806, Control_c, 0, 64, 54
2, 12808, Note_on_c, 0, 65, 60
2, 12822, Control_c, 0, 64, 54
2, 12845, Control_c, 0, 64, 55
2, 12860, Control_c, 0, 64, 55
2, 12890, Control_c, 0, 64, 56
2, 12901, Note_on_c, 0, 65, 0
2, 12906, Control_c, 0, 64, 57
2, 12909, Note_on_c, 0, 62, 15
2, 12920, Control_c, 0, 64, 57
2, 12951, Control_c, 0, 64, 58
2, 12958, Note_on_c, 0, 59, 71
2, 12961, Note_on_c, 0, 62, 0
2, 12987, Note_on_c, 0, 59, 0
2, 13011, Control_c, 0, 64, 58
2, 13022, Note_on_c, 0, 57, 54
2, 13044, Note_on_c, 0, 60, 66
2, 13072, Control_c, 0, 64, 58
2, 13072, Note_on_c, 0, 60, 0
2, 13091, Note_on_c, 0, 57, 0
2, 13117, Control_c, 0, 64, 57
2, 13163, Control_c, 0, 64, 58
2, 13209, Note_on_c, 0, 64, 72
2, 13240, Control_c, 0, 64, 57
2, 13266, Note_on_c, 0, 64, 0
2, 13288, Note_on_c, 0, 76, 66
2, 13301, Note_on_c, 0, 69, 75
2, 13316, Control_c, 0, 64, 58
2, 13318, Note_on_c, 0, 76, 0
2, 13358, Note_on_c, 0, 69, 0
2, 13372, Note_on_c, 0, 64, 69
2, 13377, Control_c, 0, 64, 58
2, 13407, Control_c, 0, 64, 59
2, 13423, Control_c, 0, 64, 60
2, 13435, Note_on_c, 0, 64, 0
2, 13438, Control_c, 0, 64, 60
2, 13453, Note_on_c, 0, 60, 69
2, 13511, Note_on_c, 0, 60, 0
2, 13535, Note_on_c, 0, 72, 69
2, 13542, Note_on_c, 0, 74, 70
2, 13554, Note_on_c, 0, 64, 74
2, 13564, Note_on_c, 0, 74, 0
2, 13571, Note_on_c, 0, 72, 0
2, 13575, Control_c, 0, 64, 61
2, 13613, Control_c, 0, 64, 61
2, 13624, Note_on_c, 0, 64, 0
2, 13628, Control_c, 0, 64, 62
2, 13634, Note_on_c, 0, 60, 72
2, 13674, Control_c, 0, 64, 62
2, 13694, Note_on_c, 0, 60, 0
2, 13727, Note_on_c, 0, 57, 63
2, 13784, Note_on_c, 0, 69, 88
2, 13790, Note_on_c, 0, 57, 0
2, 13810, Note_on_c, 0, 60, 73
2, 13811, Control_c, 0, 64, 62
2, 13827, Note_on_c, 0, 69, 0
2, 13869, Note_on_c, 0, 60, 0
2, 13885, Note_on_c, 0, 57, 78
2, 13932, Control_c, 0, 64, 62
2, 13950, Note_on_c, 0, 57, 0
2, 13962, Control_c, 0, 64, 63
2, 13971, Note_on_c, 0, 52, 70
2, 13992, Control_c, 0, 64, 62
2, 14007, Control_c, 0, 64, 61
2, 14023, Control_c, 0, 64, 57
2, 14037, Control_c, 0, 64, 54
2, 14042, Note_on_c, 0, 64, 83
2, 14052, Control_c, 0, 64, 50
2, 14066, Note_on_c, 0, 48, 77
2, 14067, Note_on_c, 0, 52, 0
2, 14068, Control_c, 0, 64, 38
2, 14083, Control_c, 0, 64, 0
2, 14129, Note_on_c, 0, 52, 63
2, 14144, Note_on_c, 0, 48, 0
2, 14224, Note_on_c, 0, 52, 0
2, 14233, Note_on_c, 0, 57, 64
2, 14288, Note_on_c, 0, 57, 0
2, 14297, Note_on_c, 0, 76, 74
2, 14307, Note_on_c, 0, 64, 0
2, 14315, Note_on_c, 0, 60, 74
2, 14350, Note_on_c, 0, 76, 0
2, 14383, Note_on_c, 0, 60, 0
2, 14399, Note_on_c, 0, 57, 70
2, 14447, Note_on_c, 0, 57, 0
2, 14478, Note_on_c, 0, 52, 64
2, 14538, Note_on_c, 0, 52, 0
2, 14554, Note_on_c, 0, 72, 71
2, 14573, Note_on_c, 0, 57, 67
2, 14591, Note_on_c, 0, 72, 0
2, 14634, Note_on_c, 0, 57, 0
2, 14646, Note_on_c, 0, 52, 77
2, 14715, Control_c, 0, 64, 56
2, 14719, Note_on_c, 0, 52, 0
2, 14729, Control_c, 0, 64, 0
2, 14740, Note_on_c, 0, 48, 60
2, 14771, Note_on_c, 0, 69, 76
2, 14787, Note_on_c, 0, 48, 0
2, 14795, Note_on_c, 0, 52, 69
2, 14795, Note_on_c, 0, 69, 0
2, 14858, Note_on_c, 0, 52, 0
2, 14863, Note_on_c, 0, 48, 62
2, 14908, Note_on_c, 0, 48, 0
2, 14933, Note_on_c, 0, 45, 64
2, 14986, Note_on_c, 0, 45, 0
2, 15022, Note_on_c, 0, 42, 74
2, 15025, Note_on_c, 0, 75, 76
2, 15040, Note_on_c, 0, 76, 78
2, 15048, Control_c, 0, 64, 37
2, 15064, Control_c, 0, 64, 84
2, 15069, Note_on_c, 0, 77, 49
2, 15070, Note_on_c, 0, 76, 0
2, 15077, Note_on_c, 0, 75, 0
2, 15079, Control_c, 0, 64, 91
2, 15093, Control_c, 0, 64, 92
2, 15095, Note_on_c, 0, 77, 0
2, 15102, Note_on_c, 0, 78, 82
2, 15109, Control_c, 0, 64, 91
2, 15145, Note_on_c, 0, 79, 60
2, 15147, Control_c, 0, 64, 90
2, 15162, Control_c, 0, 64, 88
2, 15164, Note_on_c, 0, 79, 0
2, 15177, Control_c, 0, 64, 80
2, 15193, Control_c, 0, 64, 66
2, 15195, Note_on_c, 0, 78, 0
2, 15201, Note_on_c, 0, 81, 80
2, 15208, Control_c, 0, 64, 0
2, 15276, Note_on_c, 0, 84, 88
2, 15281, Note_on_c, 0, 54, 89
2, 15285, Note_on_c, 0, 81, 0
2, 15307, Note_on_c, 0, 42, 0
2, 15321, Note_on_c, 0, 54, 0
2, 15359, Note_on_c, 0, 81, 71
2, 15361, Control_c, 0, 64, 58
2, 15375, Control_c, 0, 64, 81
2, 15389, Note_on_c, 0, 84, 0
2, 15391, Control_c, 0, 64, 83
2, 15422, Control_c, 0, 64, 81
2, 15427, Note_on_c, 0, 78, 82
2, 15437, Control_c, 0, 64, 81
2, 15438, Note_on_c, 0, 81, 0
2, 15451, Control_c, 0, 64, 79
2, 15467, Control_c, 0, 64, 75
2, 15482, Control_c, 0, 64, 63
2, 15497, Control_c, 0, 64, 0
2, 15513, Note_on_c, 0, 78, 0
2, 15513, Note_on_c, 0, 81, 78
2, 15586, Note_on_c, 0, 81, 0
2, 15591, Note_on_c, 0, 78, 79
2, 15639, Note_on_c, 0, 78, 0
2, 15673, Note_on_c, 0, 75, 78
2, 15705, Note_on_c, 0, 75, 0
2, 15748, Note_on_c, 0, 52, 82
2, 15758, Note_on_c, 0, 78, 78
2, 15770, Control_c, 0, 64, 63
2, 15771, Note_on_c, 0, 52, 0
2, 15786, Control_c, 0, 64, 70
2, 15787, Note_on_c, 0, 78, 0
2, 15801, Control_c, 0, 64, 68
2, 15812, Note_on_c, 0, 77, 56
2, 15816, Control_c, 0, 64, 42
2, 15832, Control_c, 0, 64, 0
2, 15834, Note_on_c, 0, 77, 0
2, 15842, Note_on_c, 0, 75, 71
2, 15926, Note_on_c, 0, 71, 70
2, 15933, Note_on_c, 0, 75, 0
2, 15997, Note_on_c, 0, 71, 0
2, 16011, Note_on_c, 0, 51, 83
2, 16012, Note_on_c, 0, 69, 60
2, 16030, Note_on_c, 0, 67, 52
2, 16052, Note_on_c, 0, 67, 0
2, 16054, Note_on_c, 0, 69, 0
2, 16089, Note_on_c, 0, 72, 72
2, 16187, Note_on_c, 0, 75, 67
2, 16189, Note_on_c, 0, 72, 0
2, 16253, Note_on_c, 0, 75, 0
2, 16254, Note_on_c, 0, 78, 77
2, 16270, Note_on_c, 0, 39, 76
2, 16284, Note_on_c, 0, 51, 0
2, 16312, Note_on_c, 0, 39, 0
2, 16333, Note_on_c, 0, 75, 63
2, 16349, Note_on_c, 0, 78, 0
2, 16407, Note_on_c, 0, 72, 76
2, 16409, Note_on_c, 0, 75, 0
2, 16471, Note_on_c, 0, 72, 0
2, 16498, Note_on_c, 0, 75, 65
2, 16569, Note_on_c, 0, 75, 0
2, 16581, Note_on_c, 0, 72, 63
2, 16602, Note_on_c, 0, 72, 0
2, 16652, Note_on_c, 0, 69, 62
2, 16691, Note_on_c, 0, 69, 0
2, 16728, Note_on_c, 0, 51, 61
2, 16741, Note_on_c, 0, 72, 53
2, 16756, Note_on_c, 0, 51, 0
2, 16807, Note_on_c, 0, 69, 64
2, 16826, Note_on_c, 0, 72, 0
2, 16888, Note_on_c, 0, 66, 61
2, 16908, Note_on_c, 0, 69, 0
2, 16932, Note_on_c, 0, 66, 0
2, 16972, Note_on_c, 0, 52, 47
2, 16982, Note_on_c, 0, 67, 68
2, 17017, Control_c, 0, 64, 10
2, 17033, Control_c, 0, 64, 19
2, 17049, Control_c, 0, 64, 21
2, 17061, Note_on_c, 0, 63, 71
2, 17075, Note_on_c, 0, 67, 0
2, 17079, Control_c, 0, 64, 19
2, 17094, Control_c, 0, 64, 18
2, 17125, Control_c, 0, 64, 19
2, 17134, Note_on_c, 0, 63, 0
2, 17139, Control_c, 0, 64, 22
2, 17141, Note_on_c, 0, 64, 72
2, 17155, Control_c, 0, 64, 25
2, 17170, Control_c, 0, 64, 28
2, 17185, Control_c, 0, 64, 30
2, 17193, Note_on_c, 0, 52, 0
2, 17201, Note_on_c, 0, 54, 67
2, 17214, Note_on_c, 0, 69, 77
2, 17223, Note_on_c, 0, 64, 0
2, 17231, Control_c, 0, 64, 29
2, 17256, Note_on_c, 0, 54, 0
2, 17261, Control_c, 0, 64, 30
2, 17276, Control_c, 0, 64, 31
2, 17291, Control_c, 0, 64, 33
2, 17293, Note_on_c, 0, 63, 74
2, 17307, Control_c, 0, 64, 34
2, 17321, Note_on_c, 0, 69, 0
2, 17322, Control_c, 0, 64, 35
2, 17352, Control_c, 0, 64, 34
2, 17370, Note_on_c, 0, 64, 75
2, 17374, Note_on_c, 0, 63, 0
2, 17398, Control_c, 0, 64, 35
2, 17442, Note_on_c, 0, 64, 0
2, 17466, Note_on_c, 0, 55, 76
2, 17470, Note_on_c, 0, 71, 86
2, 17481, Control_c, 0, 64, 34
2, 17496, Control_c, 0, 64, 33
2, 17496, Note_on_c, 0, 55, 0
2, 17542, Control_c, 0, 64, 32
2, 17559, Note_on_c, 0, 63, 74
2, 17577, Note_on_c, 0, 71, 0
2, 17618, Control_c, 0, 64, 32
2, 17629, Note_on_c, 0, 63, 0
2, 17634, Control_c, 0, 64, 31
2, 17635, Note_on_c, 0, 64, 67
2, 17649, Control_c, 0, 64, 30
2, 17665, Control_c, 0, 64, 29
2, 17680, Control_c, 0, 64, 28
2, 17694, Control_c, 0, 64, 27
2, 17713, Note_on_c, 0, 72, 84
2, 17714, Note_on_c, 0, 57, 67
2, 17725, Control_c, 0, 64, 26
2, 17727, Note_on_c, 0, 64, 0
2, 17741, Control_c, 0, 64, 25
2, 17743, Note_on_c, 0, 57, 0
2, 17756, Control_c, 0, 64, 24
2, 17786, Control_c, 0, 64, 22
2, 17797, Note_on_c, 0, 63, 67
2, 17806, Note_on_c, 0, 72, 0
2, 17832, Control_c, 0, 64, 24
2, 17847, Control_c, 0, 64, 25
2, 17863, Note_on_c, 0, 63, 0
2, 17878, Note_on_c, 0, 64, 63
2, 17941, Note_on_c, 0, 64, 0
2, 17958, Note_on_c, 0, 71, 69
2, 17965, Note_on_c, 0, 55, 54
2, 17984, Control_c, 0, 64, 26
2, 17989, Note_on_c, 0, 55, 0
2, 18035, Note_on_c, 0, 63, 67
2, 18059, Control_c, 0, 64, 27
2, 18097, Note_on_c, 0, 71, 0
2, 18098, Note_on_c, 0, 63, 0
2, 18120, Control_c, 0, 64, 28
2, 18129, Note_on_c, 0, 64, 59
2, 18194, Note_on_c, 0, 64, 0
2, 18196, Note_on_c, 0, 69, 65
2, 18213, Note_on_c, 0, 54, 59
2, 18244, Note_on_c, 0, 54, 0
2, 18249, Control_c, 0, 64, 29
2, 18265, Control_c, 0, 64, 30
2, 18282, Note_on_c, 0, 63, 62
2, 18302, Note_on_c, 0, 69, 0
2, 18342, Note_on_c, 0, 63, 0
2, 18345, Note_on_c, 0, 64, 65
2, 18370, Control_c, 0, 64, 31
2, 18386, Control_c, 0, 64, 32
2, 18440, Note_on_c, 0, 67, 63
2, 18443, Note_on_c, 0, 64, 0
2, 18454, Note_on_c, 0, 52, 60
2, 18485, Note_on_c, 0, 52, 0
2, 18493, Control_c, 0, 64, 32
2, 18509, Control_c, 0, 64, 33
2, 18515, Note_on_c, 0, 63, 64
2, 18523, Note_on_c, 0, 67, 0
2, 18524, Control_c, 0, 64, 34
2, 18538, Control_c, 0, 64, 34
2, 18578, Note_on_c, 0, 63, 0
2, 18591, Note_on_c, 0, 64, 59
2, 18630, Control_c, 0, 64, 35
2, 18663, Note_on_c, 0, 64, 0
2, 18684, Note_on_c, 0, 71, 63
2, 18693, Note_on_c, 0, 55, 56
2, 18723, Note_on_c, 0, 55, 0
2, 18749, Note_on_c, 0, 63, 66
2, 18752, Control_c, 0, 64, 36
2, 18767, Control_c, 0, 64, 37
2, 18783, Control_c, 0, 64, 38
2, 18789, Note_on_c, 0, 71, 0
2, 18792, Note_on_c, 0, 63, 0
2, 18797, Control_c, 0, 64, 39
2, 18844, Note_on_c, 0, 64, 58
2, 18902, Note_on_c, 0, 64, 0
2, 18933, Note_on_c, 0, 69, 65
2, 18948, Note_on_c, 0, 49, 53
2, 19002, Control_c, 0, 64, 40
2, 19010, Note_on_c, 0, 69, 0
2, 19017, Control_c, 0, 64, 41
2, 19018, Note_on_c, 0, 68, 73
2, 19033, Control_c, 0, 64, 42
2, 19048, Control_c, 0, 64, 43
2, 19064, Control_c, 0, 64, 44
2, 19078, Control_c, 0, 64, 45
2, 19088, Note_on_c, 0, 68, 0
2, 19093, Control_c, 0, 64, 45
2, 19099, Note_on_c, 0, 69, 68
2, 19109, Control_c, 0, 64, 46
2, 19139, Control_c, 0, 64, 47
2, 19154, Control_c, 0, 64, 47
2, 19170, Note_on_c, 0, 49, 0
2, 19178, Note_on_c, 0, 69, 0
2, 19185, Note_on_c, 0, 71, 66
2, 19189, Note_on_c, 0, 50, 69
2, 19236, Note_on_c, 0, 50, 0
2, 19253, Note_on_c, 0, 71, 0
2, 19258, Note_on_c, 0, 68, 74
2, 19259, Control_c, 0, 64, 47
2, 19304, Note_on_c, 0, 68, 0
2, 19335, Control_c, 0, 64, 47
2, 19336, Note_on_c, 0, 69, 78
2, 19415, Note_on_c, 0, 73, 78
2, 19425, Note_on_c, 0, 52, 71
2, 19425, Note_on_c, 0, 69, 0
2, 19441, Control_c, 0, 64, 48
2, 19456, Note_on_c, 0, 52, 0
2, 19496, Note_on_c, 0, 68, 77
2, 19502, Control_c, 0, 64, 47
2, 19508, Note_on_c, 0, 73, 0
2, 19566, Note_on_c, 0, 68, 0
2, 19577, Note_on_c, 0, 69, 79
2, 19639, Control_c, 0, 64, 46
2, 19643, Note_on_c, 0, 69, 0
2, 19654, Note_on_c, 0, 54, 79
2, 19668, Note_on_c, 0, 74, 83
2, 19691, Note_on_c, 0, 54, 0
2, 19737, Control_c, 0, 64, 46
2, 19751, Note_on_c, 0, 68, 70
2, 19753, Control_c, 0, 64, 45
2, 19766, Note_on_c, 0, 74, 0
2, 19768, Control_c, 0, 64, 45
2, 19828, Note_on_c, 0, 69, 73
2, 19829, Note_on_c, 0, 68, 0
2, 19859, Control_c, 0, 64, 44
2, 19875, Control_c, 0, 64, 34
2, 19890, Control_c, 0, 64, 0
2, 19892, Note_on_c, 0, 69, 0
2, 19913, Note_on_c, 0, 49, 83
2, 19915, Note_on_c, 0, 76, 85
2, 19957, Note_on_c, 0, 49, 0
2, 19994, Note_on_c, 0, 76, 0
2, 19997, Note_on_c, 0, 68, 70
2, 20058, Note_on_c, 0, 68, 0
2, 20074, Note_on_c, 0, 69, 71
2, 20156, Note_on_c, 0, 47, 83
2, 20157, Note_on_c, 0, 78, 80
2, 20195, Note_on_c, 0, 47, 0
2, 20208, Note_on_c, 0, 69, 0
2, 20237, Note_on_c, 0, 68, 60
2, 20244, Note_on_c, 0, 78, 0
2, 20296, Note_on_c, 0, 68, 0
2, 20321, Note_on_c, 0, 69, 66
2, 20413, Note_on_c, 0, 45, 79
2, 20417, Note_on_c, 0, 79, 86
2, 20497, Note_on_c, 0, 69, 0
2, 20500, Note_on_c, 0, 76, 66
2, 20545, Note_on_c, 0, 79, 0
2, 20583, Note_on_c, 0, 73, 72
2, 20584, Note_on_c, 0, 76, 0
2, 20641, Note_on_c, 0, 45, 0
2, 20657, Note_on_c, 0, 73, 0
2, 20665, Note_on_c, 0, 49, 60
2, 20673, Note_on_c, 0, 69, 77
2, 20700, Note_on_c, 0, 49, 0
2, 20722, Note_on_c, 0, 69, 0
2, 20752, Note_on_c, 0, 73, 75
2, 20814, Note_on_c, 0, 76, 72
2, 20815, Note_on_c, 0, 73, 0
2, 20883, Note_on_c, 0, 76, 0
2, 20910, Note_on_c, 0, 78, 81
2, 20929, Note_on_c, 0, 50, 55
2, 20963, Control_c, 0, 64, 60
2, 20966, Note_on_c, 0, 78, 0
2, 20978, Control_c, 0, 64, 67
2, 20988, Note_on_c, 0, 50, 0
2, 20993, Control_c, 0, 64, 69
2, 20999, Note_on_c, 0, 54, 56
2, 21008, Control_c, 0, 64, 72
2, 21023, Control_c, 0, 64, 77
2, 21039, Control_c, 0, 64, 81
2, 21054, Control_c, 0, 64, 84
2, 21069, Control_c, 0, 64, 85
2, 21082, Note_on_c, 0, 54, 0
2, 21084, Control_c, 0, 64, 86
2, 21093, Note_on_c, 0, 57, 63
2, 21156, Note_on_c, 0, 57, 0
2, 21191, Control_c, 0, 64, 84
2, 21193, Note_on_c, 0, 62, 64
2, 21205, Control_c, 0, 64, 80
2, 21220, Control_c, 0, 64, 71
2, 21236, Control_c, 0, 64, 56
2, 21250, Control_c, 0, 64, 0
2, 21261, Note_on_c, 0, 62, 0
2, 21262, Note_on_c, 0, 57, 68
2, 21340, Note_on_c, 0, 57, 0
2, 21355, Note_on_c, 0, 54, 63
2, 21410, Control_c, 0, 64, 53
2, 21419, Note_on_c, 0, 54, 0
2, 21420, Note_on_c, 0, 50, 68
2, 21425, Control_c, 0, 64, 64
2, 21428, Note_on_c, 0, 81, 85
2, 21441, Control_c, 0, 64, 66
2, 21453, Note_on_c, 0, 50, 0
2, 21455, Control_c, 0, 64, 68
2, 21471, Control_c, 0, 64, 70
2, 21486, Control_c, 0, 64, 72
2, 21501, Control_c, 0, 64, 74
2, 21514, Note_on_c, 0, 78, 84
2, 21517, Control_c, 0, 64, 76
2, 21546, Note_on_c, 0, 81, 0
2, 21577, Control_c, 0, 64, 75
2, 21592, Note_on_c, 0, 74, 78
2, 21593, Control_c, 0, 64, 71
2, 21608, Control_c, 0, 64, 62
2, 21620, Note_on_c, 0, 78, 0
2, 21623, Control_c, 0, 64, 0
2, 21676, Note_on_c, 0, 62, 63
2, 21678, Note_on_c, 0, 72, 86
2, 21682, Note_on_c, 0, 74, 0
2, 21713, Note_on_c, 0, 62, 0
2, 21758, Note_on_c, 0, 74, 84
2, 21767, Note_on_c, 0, 72, 0
2, 21831, Note_on_c, 0, 78, 84
2, 21838, Note_on_c, 0, 74, 0
2, 21911, Note_on_c, 0, 81, 93
2, 21921, Note_on_c, 0, 50, 62
2, 21951, Note_on_c, 0, 78, 0
2, 21979, Note_on_c, 0, 50, 0
2, 21988, Note_on_c, 0, 55, 60
2, 22052, Note_on_c, 0, 55, 0
2, 22075, Note_on_c, 0, 59, 68
2, 22130, Note_on_c, 0, 59, 0
2, 22168, Note_on_c, 0, 79, 72
2, 22173, Note_on_c, 0, 62, 58
2, 22174, Note_on_c, 0, 81, 0
2, 22209, Control_c, 0, 64, 55
2, 22224, Control_c, 0, 64, 61
2, 22231, Note_on_c, 0, 79, 0
2, 22242, Note_on_c, 0, 59, 60
2, 22242, Note_on_c, 0, 62, 0
2, 22254, Control_c, 0, 64, 61
2, 22270, Control_c, 0, 64, 63
2, 22281, Note_on_c, 0, 59, 0
2, 22285, Control_c, 0, 64, 64
2, 22299, Control_c, 0, 64, 65
2, 22315, Control_c, 0, 64, 65
2, 22318, Note_on_c, 0, 55, 61
2, 22330, Control_c, 0, 64, 66
2, 22375, Note_on_c, 0, 55, 0
2, 22399, Note_on_c, 0, 50, 66
2, 22406, Control_c, 0, 64, 64
2, 22420, Note_on_c, 0, 79, 76
2, 22421, Control_c, 0, 64, 61
2, 22434, Note_on_c, 0, 50, 0
2, 22437, Control_c, 0, 64, 48
2, 22452, Control_c, 0, 64, 0
2, 22502, Note_on_c, 0, 76, 68
2, 22508, Note_on_c, 0, 79, 0
2, 22562, Note_on_c, 0, 76, 0
2, 22563, Note_on_c, 0, 73, 74
2, 22625, Note_on_c, 0, 73, 0
2, 22644, Note_on_c, 0, 69, 73
2, 22651, Note_on_c, 0, 62, 54
2, 22688, Note_on_c, 0, 62, 0
2, 22708, Note_on_c, 0, 69, 0
2, 22717, Note_on_c, 0, 73, 76
2, 22788, Note_on_c, 0, 73, 0
2, 22793, Note_on_c, 0, 76, 70
2, 22869, Note_on_c, 0, 76, 0
2, 22880, Note_on_c, 0, 79, 74
2, 22882, Note_on_c, 0, 50, 50
2, 22925, Note_on_c, 0, 50, 0
2, 22957, Note_on_c, 0, 57, 53
2, 23007, Note_on_c, 0, 57, 0
2, 23053, Note_on_c, 0, 61, 65
2, 23093, Note_on_c, 0, 61, 0
2, 23116, Note_on_c, 0, 79, 0
2, 23126, Note_on_c, 0, 78, 68
2, 23138, Note_on_c, 0, 62, 58
2, 23182, Note_on_c, 0, 78, 0
2, 23185, Note_on_c, 0, 62, 0
2, 23211, Note_on_c, 0, 57, 62
2, 23268, Note_on_c, 0, 57, 0
2, 23286, Note_on_c, 0, 54, 63
2, 23350, Note_on_c, 0, 54, 0
2, 23370, Note_on_c, 0, 50, 61
2, 23373, Note_on_c, 0, 78, 72
2, 23400, Note_on_c, 0, 50, 0
2, 23445, Note_on_c, 0, 78, 0
2, 23455, Note_on_c, 0, 74, 59
2, 23522, Note_on_c, 0, 74, 0
2, 23529, Note_on_c, 0, 71, 62
2, 23599, Note_on_c, 0, 71, 0
2, 23620, Note_on_c, 0, 67, 65
2, 23636, Note_on_c, 0, 62, 44
2, 23658, Note_on_c, 0, 67, 0
2, 23660, Note_on_c, 0, 62, 0
2, 23685, Control_c, 0, 67, 8
2, 23700, Control_c, 0, 67, 14
2, 23702, Note_on_c, 0, 71, 63
2, 23715, Control_c, 0, 67, 25
2, 23730, Control_c, 0, 67, 42
2, 23745, Control_c, 0, 67, 58
2, 23754, Note_on_c, 0, 71, 0
2, 23761, Control_c, 0, 67, 74
2, 23771, Note_on_c, 0, 74, 61
2, 23776, Control_c, 0, 67, 93
2, 23792, Control_c, 0, 67, 119
2, 23806, Control_c, 0, 67, 127
2, 23855, Note_on_c, 0, 74, 0
2, 23860, Note_on_c, 0, 78, 73
2, 23870, Note_on_c, 0, 50, 38
2, 23905, Note_on_c, 0, 50, 0
2, 23928, Note_on_c, 0, 52, 50
2, 23977, Note_on_c, 0, 52, 0
2, 24013, Note_on_c, 0, 55, 47
2, 24051, Note_on_c, 0, 55, 0
2, 24100, Note_on_c, 0, 59, 49
2, 24103, Note_on_c, 0, 78, 0
2, 24109, Note_on_c, 0, 76, 64
2, 24141, Note_on_c, 0, 59, 0
2, 24158, Note_on_c, 0, 55, 54
2, 24158, Note_on_c, 0, 76, 0
2, 24216, Note_on_c, 0, 55, 0
2, 24244, Note_on_c, 0, 52, 51
2, 24301, Note_on_c, 0, 52, 0
2, 24330, Note_on_c, 0, 50, 51
2, 24363, Note_on_c, 0, 50, 0
2, 24367, Note_on_c, 0, 76, 61
2, 24437, Note_on_c, 0, 76, 0
2, 24440, Note_on_c, 0, 73, 64
2, 24508, Note_on_c, 0, 73, 0
2, 24515, Note_on_c, 0, 69, 65
2, 24571, Note_on_c, 0, 69, 0
2, 24593, Note_on_c, 0, 67, 62
2, 24595, Note_on_c, 0, 62, 48
2, 24629, Note_on_c, 0, 62, 0
2, 24637, Note_on_c, 0, 67, 0
2, 24661, Note_on_c, 0, 69, 53
2, 24702, Note_on_c, 0, 69, 0
2, 24726, Note_on_c, 0, 73, 60
2, 24803, Note_on_c, 0, 73, 0
2, 24818, Note_on_c, 0, 76, 57
2, 24825, Note_on_c, 0, 50, 44
2, 24868, Note_on_c, 0, 50, 0
2, 24901, Note_on_c, 0, 54, 41
2, 24964, Note_on_c, 0, 54, 0
2, 24988, Note_on_c, 0, 57, 55
2, 25036, Note_on_c, 0, 57, 0
2, 25036, Note_on_c, 0, 76, 0
2, 25081, Note_on_c, 0, 74, 43
2, 25088, Note_on_c, 0, 62, 52
2, 25127, Note_on_c, 0, 62, 0
2, 25164, Note_on_c, 0, 57, 50
2, 25194, Note_on_c, 0, 57, 0
2, 25237, Note_on_c, 0, 54, 53
2, 25283, Note_on_c, 0, 54, 0
2, 25311, Note_on_c, 0, 57, 50
2, 25329, Note_on_c, 0, 74, 0
2, 25356, Note_on_c, 0, 57, 0
2, 25394, Note_on_c, 0, 54, 57
2, 25443, Note_on_c, 0, 54, 0
2, 25472, Note_on_c, 0, 50, 58
2, 25530, Note_on_c, 0, 50, 0
2, 25556, Note_on_c, 0, 54, 69
2, 25565, Note_on_c, 0, 74, 49
2, 25616, Note_on_c, 0, 54, 0
2, 25632, Note_on_c, 0, 74, 0
2, 25638, Note_on_c, 0, 50, 60
2, 25709, Note_on_c, 0, 48, 63
2, 25721, Note_on_c, 0, 50, 0
2, 25793, Note_on_c, 0, 74, 64
2, 25806, Note_on_c, 0, 47, 56
2, 25806, Note_on_c, 0, 48, 0
2, 25839, Note_on_c, 0, 47, 0
2, 25860, Note_on_c, 0, 50, 53
2, 25866, Note_on_c, 0, 72, 65
2, 25892, Note_on_c, 0, 74, 0
2, 25912, Note_on_c, 0, 50, 0
2, 25930, Note_on_c, 0, 72, 0
2, 25940, Note_on_c, 0, 54, 58
2, 25954, Note_on_c, 0, 71, 74
2, 25978, Note_on_c, 0, 71, 0
2, 25984, Note_on_c, 0, 54, 0
2, 26032, Note_on_c, 0, 55, 59
2, 26050, Note_on_c, 0, 71, 61
2, 26069, Note_on_c, 0, 55, 0
2, 26084, Note_on_c, 0, 71, 0
2, 26103, Note_on_c, 0, 69, 75
2, 26123, Note_on_c, 0, 50, 48
2, 26140, Note_on_c, 0, 69, 0
2, 26152, Note_on_c, 0, 50, 0
2, 26195, Note_on_c, 0, 47, 58
2, 26206, Note_on_c, 0, 67, 74
2, 26236, Note_on_c, 0, 47, 0
2, 26237, Note_on_c, 0, 67, 0
2, 26286, Note_on_c, 0, 50, 59
2, 26309, Note_on_c, 0, 67, 71
2, 26329, Note_on_c, 0, 50, 0
2, 26364, Note_on_c, 0, 47, 68
2, 26373, Note_on_c, 0, 67, 0
2, 26377, Note_on_c, 0, 71, 72
2, 26434, Note_on_c, 0, 71, 0
2, 26438, Note_on_c, 0, 47, 0
2, 26455, Note_on_c, 0, 74, 66
2, 26457, Note_on_c, 0, 43, 64
2, 26510, Note_on_c, 0, 74, 0
2, 26533, Note_on_c, 0, 43, 0
2, 26544, Note_on_c, 0, 77, 72
2, 26545, Note_on_c, 0, 47, 71
2, 26600, Note_on_c, 0, 47, 0
2, 26612, Note_on_c, 0, 77, 0
2, 26615, Note_on_c, 0, 43, 52
2, 26616, Note_on_c, 0, 76, 76
2, 26682, Note_on_c, 0, 76, 0
2, 26686, Note_on_c, 0, 41, 57
2, 26686, Note_on_c, 0, 43, 0
2, 26714, Note_on_c, 0, 74, 75
2, 26752, Note_on_c, 0, 74, 0
2, 26760, Note_on_c, 0, 41, 0
2, 26770, Note_on_c, 0, 40, 60
2, 26803, Note_on_c, 0, 74, 65
2, 26818, Note_on_c, 0, 40, 0
2, 26836, Note_on_c, 0, 43, 53
2, 26868, Note_on_c, 0, 74, 0
2, 26877, Note_on_c, 0, 76, 72
2, 26900, Note_on_c, 0, 43, 0
2, 26922, Note_on_c, 0, 47, 64
2, 26951, Note_on_c, 0, 76, 0
2, 26951, Note_on_c, 0, 77, 67
2, 26968, Note_on_c, 0, 47, 0
2, 27015, Note_on_c, 0, 48, 59
2, 27033, Note_on_c, 0, 76, 62
2, 27033, Note_on_c, 0, 77, 0
2, 27046, Note_on_c, 0, 48, 0
2, 27109, Note_on_c, 0, 52, 65
2, 27167, Control_c, 0, 64, 10
2, 27182, Control_c, 0, 64, 16
2, 27183, Note_on_c, 0, 52, 0
2, 27198, Control_c, 0, 64, 21
2, 27199, Note_on_c, 0, 55, 69
2, 27203, Note_on_c, 0, 76, 0
2, 27212, Control_c, 0, 64, 24
2, 27228, Control_c, 0, 64, 26
2, 27243, Control_c, 0, 64, 27
2, 27246, Note_on_c, 0, 55, 0
2, 27274, Control_c, 0, 64, 28
2, 27288, Note_on_c, 0, 60, 73
2, 27289, Control_c, 0, 64, 29
2, 27304, Control_c, 0, 64, 30
2, 27335, Note_on_c, 0, 60, 0
2, 27361, Note_on_c, 0, 55, 72
2, 27365, Control_c, 0, 64, 29
2, 27430, Note_on_c, 0, 55, 0
2, 27449, Control_c, 0, 64, 28
2, 27449, Note_on_c, 0, 52, 67
2, 27480, Control_c, 0, 64, 38
2, 27495, Control_c, 0, 64, 52
2, 27511, Control_c, 0, 64, 62
2, 27525, Control_c, 0, 64, 65
2, 27527, Note_on_c, 0, 52, 0
2, 27534, Note_on_c, 0, 76, 70
2, 27537, Note_on_c, 0, 55, 72
2, 27540, Control_c, 0, 64, 68
2, 27556, Control_c, 0, 64, 72
2, 27571, Control_c, 0, 64, 76
2, 27586, Control_c, 0, 64, 80
2, 27593, Note_on_c, 0, 76, 0
2, 27601, Control_c, 0, 64, 83
2, 27610, Note_on_c, 0, 55, 0
2, 27616, Control_c, 0, 64, 84
2, 27616, Note_on_c, 0, 52, 68
2, 27632, Control_c, 0, 64, 85
2, 27647, Control_c, 0, 64, 86
2, 27661, Control_c, 0, 64, 87
2, 27677, Control_c, 0, 64, 87
2, 27686, Note_on_c, 0, 52, 0
2, 27701, Note_on_c, 0, 50, 62
2, 27708, Control_c, 0, 64, 88
2, 27723, Control_c, 0, 64, 88
2, 27754, Control_c, 0, 64, 89
2, 27765, Note_on_c, 0, 50, 0
2, 27769, Control_c, 0, 64, 88
2, 27774, Note_on_c, 0, 49, 69
2, 27783, Control_c, 0, 64, 86
2, 27795, Note_on_c, 0, 76, 76
2, 27799, Control_c, 0, 64, 77
2, 27812, Control_c, 0, 64, 62
2, 27823, Note_on_c, 0, 49, 0
2, 27828, Control_c, 0, 64, 0
2, 27854, Note_on_c, 0, 52, 48
2, 27863, Note_on_c, 0, 74, 70
2, 27882, Note_on_c, 0, 76, 0
2, 27900, Note_on_c, 0, 52, 0
2, 27913, Note_on_c, 0, 55, 68
2, 27925, Note_on_c, 0, 74, 0
2, 27946, Note_on_c, 0, 55, 0
2, 27951, Note_on_c, 0, 73, 73
2, 27979, Note_on_c, 0, 73, 0
2, 28006, Note_on_c, 0, 57, 62
2, 28026, Note_on_c, 0, 73, 55
2, 28043, Note_on_c, 0, 57, 0
2, 28057, Note_on_c, 0, 73, 0
2, 28087, Note_on_c, 0, 52, 54
2, 28105, Note_on_c, 0, 71, 54
2, 28114, Note_on_c, 0, 52, 0
2, 28148, Note_on_c, 0, 71, 0
2, 28167, Note_on_c, 0, 49, 67
2, 28200, Note_on_c, 0, 69, 41
2, 28219, Note_on_c, 0, 49, 0
2, 28229, Note_on_c, 0, 69, 0
2, 28265, Note_on_c, 0, 52, 63
2, 28269, Note_on_c, 0, 69, 72
2, 28315, Note_on_c, 0, 69, 0
2, 28327, Note_on_c, 0, 52, 0
2, 28340, Note_on_c, 0, 49, 73
2, 28352, Note_on_c, 0, 73, 77
2, 28411, Note_on_c, 0, 49, 0
2, 28418, Note_on_c, 0, 45, 68
2, 28421, Note_on_c, 0, 76, 77
2, 28426, Note_on_c, 0, 73, 0
2, 28487, Note_on_c, 0, 76, 0
2, 28492, Note_on_c, 0, 45, 0
2, 28492, Note_on_c, 0, 79, 70
2, 28500, Note_on_c, 0, 49, 75
2, 28569, Note_on_c, 0, 49, 0
2, 28569, Note_on_c, 0, 78, 86
2, 28571, Note_on_c, 0, 45, 63
2, 28573, Note_on_c, 0, 79, 0
2, 28624, Note_on_c, 0, 78, 0
2, 28643, Note_on_c, 0, 45, 0
2, 28652, Note_on_c, 0, 43, 60
2, 28664, Note_on_c, 0, 76, 89
2, 28706, Note_on_c, 0, 76, 0
2, 28717, Note_on_c, 0, 43, 0
2, 28723, Note_on_c, 0, 42, 63
2, 28754, Note_on_c, 0, 76, 82
2, 28790, Note_on_c, 0, 42, 0
2, 28790, Note_on_c, 0, 45, 53
2, 28808, Control_c, 0, 64, 16
2, 28823, Control_c, 0, 64, 22
2, 28839, Control_c, 0, 64, 26
2, 28841, Note_on_c, 0, 78, 85
2, 28854, Control_c, 0, 64, 28
2, 28854, Note_on_c, 0, 45, 0
2, 28860, Note_on_c, 0, 49, 67
2, 28870, Control_c, 0, 64, 29
2, 28870, Note_on_c, 0, 76, 0
2, 28885, Control_c, 0, 64, 30
2, 28910, Note_on_c, 0, 49, 0
2, 28910, Note_on_c, 0, 79, 74
2, 28922, Note_on_c, 0, 78, 0
2, 28945, Control_c, 0, 64, 31
2, 28968, Control_c, 0, 64, 32
2, 28968, Note_on_c, 0, 50, 46
2, 28990, Note_on_c, 0, 78, 80
2, 28995, Note_on_c, 0, 50, 0
2, 29000, Note_on_c, 0, 79, 0
2, 29029, Control_c, 0, 64, 31
2, 29043, Note_on_c, 0, 54, 64
2, 29059, Control_c, 0, 64, 30
2, 29090, Control_c, 0, 64, 31
2, 29105, Control_c, 0, 64, 32
2, 29121, Control_c, 0, 64, 33
2, 29134, Note_on_c, 0, 54, 0
2, 29136, Control_c, 0, 64, 34
2, 29137, Note_on_c, 0, 57, 75
2, 29151, Control_c, 0, 64, 34
2, 29166, Control_c, 0, 64, 36
2, 29181, Control_c, 0, 64, 38
2, 29191, Note_on_c, 0, 57, 0
2, 29197, Control_c, 0, 64, 40
2, 29197, Control_c, 0, 67, 111
2, 29212, Control_c, 0, 64, 41
2, 29212, Control_c, 0, 67, 68
2, 29218, Note_on_c, 0, 62, 80
2, 29228, Control_c, 0, 64, 41
2, 29228, Control_c, 0, 67, 17
2, 29243, Control_c, 0, 67, 0
2, 29257, Control_c, 0, 64, 41
2, 29266, Note_on_c, 0, 62, 0
2, 29273, Control_c, 0, 64, 39
2, 29288, Control_c, 0, 64, 38
2, 29291, Note_on_c, 0, 57, 71
2, 29303, Control_c, 0, 64, 37
2, 29334, Control_c, 0, 64, 36
2, 29348, Note_on_c, 0, 57, 0
2, 29349, Control_c, 0, 64, 36
2, 29367, Note_on_c, 0, 54, 63
2, 29395, Control_c, 0, 64, 33
2, 29410, Control_c, 0, 64, 0
2, 29435, Note_on_c, 0, 54, 0
2, 29444, Note_on_c, 0, 78, 0
2, 29453, Note_on_c, 0, 57, 71
2, 29454, Note_on_c, 0, 81, 88
2, 29485, Control_c, 0, 64, 50
2, 29500, Control_c, 0, 64, 64
2, 29511, Note_on_c, 0, 57, 0
2, 29516, Control_c, 0, 64, 68
2, 29521, Note_on_c, 0, 81, 0
2, 29528, Note_on_c, 0, 54, 72
2, 29531, Control_c, 0, 64, 72
2, 29545, Control_c, 0, 64, 76
2, 29561, Control_c, 0, 64, 79
2, 29576, Control_c, 0, 64, 80
2, 29592, Control_c, 0, 64, 81
2, 29604, Note_on_c, 0, 54, 0
2, 29607, Control_c, 0, 64, 82
2, 29612, Note_on_c, 0, 50, 74
2, 29621, Control_c, 0, 64, 83
2, 29637, Control_c, 0, 64, 84
2, 29683, Control_c, 0, 64, 81
2, 29688, Note_on_c, 0, 50, 0
2, 29692, Note_on_c, 0, 54, 81
2, 29692, Note_on_c, 0, 81, 85
2, 29698, Control_c, 0, 64, 74
2, 29714, Control_c, 0, 64, 62
2, 29736, Control_c, 0, 64, 0
2, 29770, Note_on_c, 0, 79, 79
2, 29771, Note_on_c, 0, 54, 0
2, 29781, Note_on_c, 0, 50, 63
2, 29792, Note_on_c, 0, 81, 0
2, 29836, Note_on_c, 0, 79, 0
2, 29844, Note_on_c, 0, 50, 0
2, 29848, Note_on_c, 0, 78, 81
2, 29857, Note_on_c, 0, 45, 56
2, 29885, Note_on_c, 0, 78, 0
2, 29910, Note_on_c, 0, 45, 0
2, 29929, Note_on_c, 0, 78, 67
2, 29945, Note_on_c, 0, 50, 65
2, 29985, Note_on_c, 0, 78, 0
2, 29988, Note_on_c, 0, 50, 0
2, 30004, Note_on_c, 0, 76, 84
2, 30005, Note_on_c, 0, 45, 75
2, 30053, Note_on_c, 0, 76, 0
2, 30071, Control_c, 0, 64, 38
2, 30073, Note_on_c, 0, 45, 0
2, 30083, Note_on_c, 0, 42, 72
2, 30086, Control_c, 0, 64, 0
2, 30095, Note_on_c, 0, 74, 85
2, 30141, Note_on_c, 0, 74, 0
2, 30148, Note_on_c, 0, 42, 0
2, 30172, Note_on_c, 0, 38, 93
2, 30200, Note_on_c, 0, 74, 84
2, 30209, Note_on_c, 0, 38, 0
2, 30278, Note_on_c, 0, 78, 80
2, 30313, Note_on_c, 0, 74, 0
2, 30343, Note_on_c, 0, 81, 82
2, 30358, Note_on_c, 0, 78, 0
2, 30412, Note_on_c, 0, 81, 0
2, 30430, Note_on_c, 0, 50, 89
2, 30434, Note_on_c, 0, 84, 83
2, 30465, Note_on_c, 0, 50, 0
2, 30526, Note_on_c, 0, 83, 90
2, 30535, Note_on_c, 0, 84, 0
2, 30592, Note_on_c, 0, 83, 0
2, 30616, Note_on_c, 0, 81, 94
2, 30668, Note_on_c, 0, 81, 0
2, 30696, Note_on_c, 0, 43, 89
2, 30721, Note_on_c, 0, 81, 92
2, 30764, Control_c, 0, 64, 66
2, 30779, Control_c, 0, 64, 71
2, 30795, Control_c, 0, 64, 70
2, 30810, Control_c, 0, 64, 69
2, 30810, Note_on_c, 0, 83, 86
2, 30824, Control_c, 0, 64, 68
2, 30824, Note_on_c, 0, 81, 0
2, 30878, Note_on_c, 0, 84, 84
2, 30890, Note_on_c, 0, 83, 0
2, 30961, Control_c, 0, 64, 68
2, 30967, Note_on_c, 0, 83, 85
2, 30976, Control_c, 0, 64, 65
2, 30992, Control_c, 0, 64, 59
2, 30998, Note_on_c, 0, 84, 0
2, 31007, Control_c, 0, 64, 50
2, 31022, Control_c, 0, 64, 55
2, 31037, Control_c, 0, 64, 63
2, 31052, Control_c, 0, 64, 67
2, 31055, Note_on_c, 0, 47, 73
2, 31068, Control_c, 0, 64, 70
2, 31072, Note_on_c, 0, 43, 0
2, 31083, Control_c, 0, 64, 72
2, 31098, Control_c, 0, 64, 74
2, 31114, Control_c, 0, 64, 76
2, 31117, Note_on_c, 0, 47, 0
2, 31129, Control_c, 0, 64, 77
2, 31142, Note_on_c, 0, 50, 62
2, 31144, Control_c, 0, 64, 78
2, 31159, Control_c, 0, 64, 78
2, 31172, Note_on_c, 0, 50, 0
2, 31174, Control_c, 0, 64, 79
2, 31226, Note_on_c, 0, 55, 75
2, 31285, Note_on_c, 0, 55, 0
2, 31306, Note_on_c, 0, 81, 79
2, 31315, Note_on_c, 0, 83, 0
2, 31319, Control_c, 0, 64, 77
2, 31325, Note_on_c, 0, 57, 79
2, 31333, Control_c, 0, 64, 73
2, 31349, Control_c, 0, 64, 68
2, 31364, Control_c, 0, 64, 57
2, 31367, Note_on_c, 0, 57, 0
2, 31367, Note_on_c, 0, 81, 0
2, 31379, Control_c, 0, 64, 0
2, 31392, Note_on_c, 0, 79, 70
2, 31410, Note_on_c, 0, 59, 48
2, 31416, Note_on_c, 0, 79, 0
2, 31435, Note_on_c, 0, 59, 0
2, 31478, Note_on_c, 0, 77, 82
2, 31482, Note_on_c, 0, 59, 75
2, 31557, Note_on_c, 0, 76, 79
2, 31558, Note_on_c, 0, 77, 0
2, 31560, Note_on_c, 0, 60, 76
2, 31561, Note_on_c, 0, 59, 0
2, 31624, Note_on_c, 0, 60, 0
2, 31624, Note_on_c, 0, 76, 0
2, 31628, Note_on_c, 0, 62, 78
2, 31628, Note_on_c, 0, 74, 79
2, 31685, Note_on_c, 0, 62, 0
2, 31686, Note_on_c, 0, 74, 0
2, 31701, Note_on_c, 0, 64, 91
2, 31708, Note_on_c, 0, 72, 79
2, 31748, Note_on_c, 0, 64, 0
2, 31759, Control_c, 0, 64, 46
2, 31774, Control_c, 0, 64, 53
2, 31777, Note_on_c, 0, 72, 0
2, 31790, Control_c, 0, 64, 56
2, 31796, Note_on_c, 0, 76, 69
2, 31805, Control_c, 0, 64, 58
2, 31819, Control_c, 0, 64, 61
2, 31835, Control_c, 0, 64, 62
2, 31850, Control_c, 0, 64, 63
2, 31865, Control_c, 0, 64, 63
2, 31865, Note_on_c, 0, 76, 0
2, 31882, Note_on_c, 0, 79, 79
2, 31926, Control_c, 0, 64, 62
2, 31941, Control_c, 0, 64, 54
2, 31957, Control_c, 0, 64, 0
2, 31959, Note_on_c, 0, 60, 70
2, 31975, Note_on_c, 0, 81, 82
2, 31978, Note_on_c, 0, 79, 0
2, 32009, Note_on_c, 0, 60, 0
2, 32043, Note_on_c, 0, 57, 64
2, 32050, Note_on_c, 0, 78, 76
2, 32075, Note_on_c, 0, 81, 0
2, 32117, Note_on_c, 0, 57, 0
2, 32122, Note_on_c, 0, 78, 0
2, 32128, Note_on_c, 0, 74, 73
2, 32132, Note_on_c, 0, 54, 67
2, 32193, Note_on_c, 0, 74, 0
2, 32204, Note_on_c, 0, 62, 76
2, 32208, Note_on_c, 0, 54, 0
2, 32211, Note_on_c, 0, 71, 75
2, 32238, Control_c, 0, 64, 46
2, 32244, Note_on_c, 0, 62, 0
2, 32253, Control_c, 0, 64, 56
2, 32268, Control_c, 0, 64, 58
2, 32283, Control_c, 0, 64, 59
2, 32289, Note_on_c, 0, 71, 0
2, 32290, Note_on_c, 0, 74, 71
2, 32298, Control_c, 0, 64, 60
2, 32314, Control_c, 0, 64, 60
2, 32329, Control_c, 0, 64, 61
2, 32354, Note_on_c, 0, 74, 0
2, 32368, Note_on_c, 0, 78, 72
2, 32375, Control_c, 0, 64, 60
2, 32391, Control_c, 0, 64, 57
2, 32406, Control_c, 0, 64, 47
2, 32421, Control_c, 0, 64, 0
2, 32442, Note_on_c, 0, 78, 0
2, 32463, Note_on_c, 0, 79, 73
2, 32471, Note_on_c, 0, 59, 61
2, 32508, Note_on_c, 0, 59, 0
2, 32541, Note_on_c, 0, 79, 0
2, 32543, Note_on_c, 0, 76, 70
2, 32544, Note_on_c, 0, 55, 61
2, 32591, Note_on_c, 0, 55, 0
2, 32605, Note_on_c, 0, 52, 52
2, 32611, Note_on_c, 0, 76, 0
2, 32617, Note_on_c, 0, 72, 73
2, 32660, Note_on_c, 0, 52, 0
2, 32676, Note_on_c, 0, 72, 0
2, 32683, Note_on_c, 0, 60, 72
2, 32697, Note_on_c, 0, 69, 71
2, 32710, Note_on_c, 0, 60, 0
2, 32740, Control_c, 0, 67, 9
2, 32756, Control_c, 0, 67, 19
2, 32762, Note_on_c, 0, 69, 0
2, 32770, Control_c, 0, 67, 39
2, 32772, Note_on_c, 0, 72, 64
2, 32785, Control_c, 0, 67, 69
2, 32808, Control_c, 0, 67, 103
2, 32823, Control_c, 0, 67, 127
2, 32838, Note_on_c, 0, 72, 0
2, 32847, Note_on_c, 0, 76, 65
2, 32928, Note_on_c, 0, 76, 0
2, 32929, Note_on_c, 0, 78, 76
2, 32945, Note_on_c, 0, 57, 61
2, 32977, Note_on_c, 0, 57, 0
2, 32994, Note_on_c, 0, 78, 0
2, 33003, Note_on_c, 0, 54, 61
2, 33010, Note_on_c, 0, 74, 59
2, 33076, Note_on_c, 0, 74, 0
2, 33078, Note_on_c, 0, 54, 0
2, 33083, Note_on_c, 0, 71, 66
2, 33101, Note_on_c, 0, 50, 43
2, 33122, Note_on_c, 0, 71, 0
2, 33143, Note_on_c, 0, 50, 0
2, 33167, Note_on_c, 0, 59, 67
2, 33171, Note_on_c, 0, 67, 67
2, 33199, Note_on_c, 0, 59, 0
2, 33205, Note_on_c, 0, 67, 0
2, 33242, Note_on_c, 0, 71, 69
2, 33304, Note_on_c, 0, 71, 0
2, 33324, Note_on_c, 0, 74, 70
2, 33404, Note_on_c, 0, 74, 0
2, 33405, Note_on_c, 0, 76, 69
2, 33428, Note_on_c, 0, 55, 62
2, 33463, Note_on_c, 0, 72, 68
2, 33466, Note_on_c, 0, 76, 0
2, 33468, Note_on_c, 0, 55, 0
2, 33497, Note_on_c, 0, 52, 59
2, 33523, Control_c, 0, 64, 18
2, 33528, Note_on_c, 0, 72, 0
2, 33536, Note_on_c, 0, 69, 73
2, 33538, Control_c, 0, 64, 24
2, 33554, Control_c, 0, 64, 28
2, 33576, Control_c, 0, 64, 30
2, 33576, Note_on_c, 0, 48, 59
2, 33578, Note_on_c, 0, 52, 0
2, 33592, Control_c, 0, 64, 32
2, 33607, Control_c, 0, 64, 33
2, 33616, Note_on_c, 0, 69, 0
2, 33621, Control_c, 0, 64, 34
2, 33634, Note_on_c, 0, 66, 71
2, 33637, Control_c, 0, 64, 36
2, 33639, Note_on_c, 0, 48, 0
2, 33652, Control_c, 0, 64, 37
2, 33652, Note_on_c, 0, 57, 73
2, 33666, Note_on_c, 0, 66, 0
2, 33687, Note_on_c, 0, 57, 0
2, 33711, Note_on_c, 0, 69, 66
2, 33773, Note_on_c, 0, 69, 0
2, 33799, Note_on_c, 0, 72, 72
2, 33835, Control_c, 0, 64, 38
2, 33875, Note_on_c, 0, 72, 0
2, 33879, Note_on_c, 0, 74, 70
2, 33884, Note_on_c, 0, 54, 65
2, 33911, Control_c, 0, 64, 38
2, 33929, Note_on_c, 0, 54, 0
2, 33958, Note_on_c, 0, 71, 64
2, 33963, Note_on_c, 0, 50, 52
2, 33964, Note_on_c, 0, 74, 0
2, 34003, Control_c, 0, 64, 39
2, 34024, Note_on_c, 0, 50, 0
2, 34028, Note_on_c, 0, 67, 71
2, 34032, Note_on_c, 0, 71, 0
2, 34034, Control_c, 0, 64, 39
2, 34035, Note_on_c, 0, 47, 66
2, 34090, Note_on_c, 0, 67, 0
2, 34103, Note_on_c, 0, 55, 70
2, 34110, Control_c, 0, 64, 40
2, 34110, Note_on_c, 0, 47, 0
2, 34113, Note_on_c, 0, 64, 66
2, 34125, Control_c, 0, 64, 40
2, 34140, Control_c, 0, 64, 42
2, 34146, Note_on_c, 0, 55, 0
2, 34156, Control_c, 0, 64, 43
2, 34171, Control_c, 0, 64, 44
2, 34179, Note_on_c, 0, 64, 0
2, 34191, Note_on_c, 0, 67, 72
2, 34201, Control_c, 0, 64, 45
2, 34247, Control_c, 0, 64, 45
2, 34250, Note_on_c, 0, 67, 0
2, 34261, Control_c, 0, 64, 46
2, 34272, Note_on_c, 0, 71, 71
2, 34277, Control_c, 0, 64, 47
2, 34308, Control_c, 0, 64, 47
2, 34362, Note_on_c, 0, 72, 69
2, 34363, Note_on_c, 0, 52, 61
2, 34364, Note_on_c, 0, 71, 0
2, 34397, Note_on_c, 0, 52, 0
2, 34424, Note_on_c, 0, 69, 66
2, 34425, Note_on_c, 0, 48, 61
2, 34431, Note_on_c, 0, 72, 0
2, 34452, Control_c, 0, 64, 47
2, 34476, Note_on_c, 0, 48, 0
2, 34482, Control_c, 0, 64, 47
2, 34483, Note_on_c, 0, 69, 0
2, 34488, Note_on_c, 0, 45, 53
2, 34490, Note_on_c, 0, 66, 78
2, 34549, Note_on_c, 0, 66, 0
2, 34562, Note_on_c, 0, 45, 0
2, 34573, Control_c, 0, 64, 48
2, 34575, Note_on_c, 0, 62, 76
2, 34585, Note_on_c, 0, 54, 70
2, 34588, Control_c, 0, 64, 48
2, 34603, Control_c, 0, 64, 49
2, 34618, Control_c, 0, 64, 49
2, 34622, Note_on_c, 0, 54, 0
2, 34653, Note_on_c, 0, 66, 81
2, 34655, Note_on_c, 0, 62, 0
2, 34663, Control_c, 0, 64, 50
2, 34715, Note_on_c, 0, 66, 0
2, 34732, Note_on_c, 0, 69, 73
2, 34770, Control_c, 0, 64, 49
2, 34801, Control_c, 0, 64, 49
2, 34814, Note_on_c, 0, 69, 0
2, 34816, Control_c, 0, 64, 48
2, 34816, Note_on_c, 0, 71, 66
2, 34819, Note_on_c, 0, 50, 68
2, 34832, Control_c, 0, 64, 47
2, 34847, Control_c, 0, 64, 47
2, 34862, Control_c, 0, 64, 46
2, 34877, Note_on_c, 0, 50, 0
2, 34884, Note_on_c, 0, 67, 69
2, 34893, Note_on_c, 0, 71, 0
2, 34898, Note_on_c, 0, 47, 64
2, 34954, Note_on_c, 0, 64, 77
2, 34954, Note_on_c, 0, 67, 0
2, 34981, Note_on_c, 0, 47, 0
2, 34982, Note_on_c, 0, 43, 65
2, 34984, Control_c, 0, 64, 47
2, 35000, Control_c, 0, 64, 47
2, 35020, Note_on_c, 0, 64, 0
2, 35033, Note_on_c, 0, 52, 73
2, 35034, Note_on_c, 0, 60, 73
2, 35045, Control_c, 0, 64, 48
2, 35049, Note_on_c, 0, 43, 0
2, 35091, Control_c, 0, 64, 48
2, 35119, Note_on_c, 0, 64, 74
2, 35125, Note_on_c, 0, 60, 0
2, 35126, Note_on_c, 0, 48, 73
2, 35143, Control_c, 0, 64, 49
2, 35143, Note_on_c, 0, 52, 0
2, 35159, Control_c, 0, 64, 49
2, 35173, Control_c, 0, 64, 50
2, 35184, Note_on_c, 0, 67, 72
2, 35188, Note_on_c, 0, 64, 0
2, 35189, Control_c, 0, 64, 51
2, 35190, Note_on_c, 0, 48, 0
2, 35204, Control_c, 0, 64, 52
2, 35210, Note_on_c, 0, 45, 64
2, 35219, Control_c, 0, 64, 53
2, 35235, Control_c, 0, 64, 53
2, 35265, Control_c, 0, 64, 54
2, 35270, Note_on_c, 0, 69, 80
2, 35272, Note_on_c, 0, 67, 0
2, 35279, Note_on_c, 0, 54, 75
2, 35281, Control_c, 0, 64, 54
2, 35296, Control_c, 0, 64, 55
2, 35340, Note_on_c, 0, 54, 0
2, 35340, Note_on_c, 0, 66, 78
2, 35341, Control_c, 0, 64, 54
2, 35346, Note_on_c, 0, 50, 75
2, 35358, Note_on_c, 0, 45, 0
2, 35370, Note_on_c, 0, 69, 0
2, 35371, Control_c, 0, 64, 54
2, 35402, Control_c, 0, 64, 53
2, 35417, Control_c, 0, 64, 53
2, 35418, Note_on_c, 0, 62, 78
2, 35421, Note_on_c, 0, 47, 74
2, 35424, Note_on_c, 0, 66, 0
2, 35432, Control_c, 0, 64, 50
2, 35447, Control_c, 0, 64, 44
2, 35462, Control_c, 0, 64, 38
2, 35466, Note_on_c, 0, 50, 0
2, 35478, Control_c, 0, 64, 37
2, 35492, Control_c, 0, 64, 36
2, 35504, Note_on_c, 0, 62, 0
2, 35506, Control_c, 0, 64, 27
2, 35508, Note_on_c, 0, 59, 78
2, 35511, Note_on_c, 0, 47, 0
2, 35516, Note_on_c, 0, 55, 89
2, 35522, Control_c, 0, 64, 0
2, 35586, Note_on_c, 0, 59, 0
2, 35592, Note_on_c, 0, 62, 74
2, 35656, Note_on_c, 0, 62, 0
2, 35669, Note_on_c, 0, 66, 74
2, 35739, Note_on_c, 0, 55, 0
2, 35758, Note_on_c, 0, 52, 87
2, 35759, Note_on_c, 0, 66, 0
2, 35761, Note_on_c, 0, 67, 74
2, 35793, Note_on_c, 0, 52, 0
2, 35842, Note_on_c, 0, 64, 74
2, 35852, Note_on_c, 0, 67, 0
2, 35924, Note_on_c, 0, 64, 0
2, 35932, Note_on_c, 0, 60, 68
2, 36008, Note_on_c, 0, 60, 0
2, 36016, Note_on_c, 0, 57, 75
2, 36018, Note_on_c, 0, 48, 88
2, 36050, Note_on_c, 0, 48, 0
2, 36082, Note_on_c, 0, 57, 0
2, 36108, Note_on_c, 0, 60, 70
2, 36167, Note_on_c, 0, 60, 0
2, 36180, Note_on_c, 0, 64, 68
2, 36274, Note_on_c, 0, 66, 84
2, 36280, Note_on_c, 0, 50, 89
2, 36301, Note_on_c, 0, 64, 0
2, 36334, Note_on_c, 0, 50, 0
2, 36376, Note_on_c, 0, 62, 76
2, 36394, Note_on_c, 0, 66, 0
2, 36461, Note_on_c, 0, 60, 79
2, 36486, Note_on_c, 0, 62, 0
2, 36522, Note_on_c, 0, 60, 0
2, 36534, Control_c, 0, 64, 16
2, 36550, Control_c, 0, 64, 22
2, 36565, Control_c, 0, 64, 26
2, 36580, Control_c, 0, 64, 28
2, 36596, Control_c, 0, 64, 29
2, 36620, Note_on_c, 0, 43, 65
2, 36670, Note_on_c, 0, 59, 46
2, 36694, Control_c, 0, 64, 28
2, 36698, Note_on_c, 0, 62, 74
2, 36710, Control_c, 0, 64, 26
2, 36739, Control_c, 0, 64, 25
2, 36755, Control_c, 0, 64, 13
2, 36757, Note_on_c, 0, 67, 83
2, 36769, Control_c, 0, 64, 0
2, 37592, Note_on_c, 0, 62, 0
2, 37593, Note_on_c, 0, 43, 0
2, 37595, Note_on_c, 0, 59, 0
2, 37644, Note_on_c, 0, 67, 0
2, 39173, Note_on_c, 0, 67, 67
2, 39219, Note_on_c, 0, 67, 0
2, 39430, Note_on_c, 0, 69, 64
2, 39528, Note_on_c, 0, 69, 0
2, 39546, Note_on_c, 0, 67, 63
2, 39629, Note_on_c, 0, 67, 0
2, 39666, Note_on_c, 0, 66, 71
2, 39753, Note_on_c, 0, 66, 0
2, 39791, Note_on_c, 0, 67, 67
2, 39843, Note_on_c, 0, 67, 0
2, 39941, Note_on_c, 0, 69, 73
2, 40008, Note_on_c, 0, 69, 0
2, 40203, Note_on_c, 0, 71, 63
2, 40297, Note_on_c, 0, 69, 70
2, 40301, Note_on_c, 0, 71, 0
2, 40372, Note_on_c, 0, 69, 0
2, 40415, Note_on_c, 0, 67, 73
2, 40492, Note_on_c, 0, 67, 0
2, 40531, Note_on_c, 0, 69, 73
2, 40587, Note_on_c, 0, 69, 0
2, 40678, Note_on_c, 0, 71, 77
2, 40925, Note_on_c, 0, 69, 73
2, 40948, Note_on_c, 0, 71, 0
2, 40980, Note_on_c, 0, 69, 0
2, 41167, Note_on_c, 0, 67, 71
2, 41224, Note_on_c, 0, 67, 0
2, 41435, Note_on_c, 0, 62, 64
2, 41709, Note_on_c, 0, 72, 65
2, 41738, Note_on_c, 0, 62, 0
2, 42261, Note_on_c, 0, 71, 66
2, 42267, Note_on_c, 0, 72, 0
2, 42499, Note_on_c, 0, 69, 70
2, 42510, Note_on_c, 0, 71, 0
2, 42538, Note_on_c, 0, 69, 0
2, 42740, Note_on_c, 0, 67, 68
2, 42796, Note_on_c, 0, 67, 0
2, 42997, Note_on_c, 0, 66, 67
2, 43290, Note_on_c, 0, 76, 67
2, 43326, Note_on_c, 0, 66, 0
2, 43761, Note_on_c, 0, 76, 0
2, 43793, Note_on_c, 0, 74, 63
2, 43846, Note_on_c, 0, 74, 0
2, 44067, Note_on_c, 0, 76, 63
2, 44153, Note_on_c, 0, 76, 0
2, 44169, Note_on_c, 0, 74, 62
2, 44248, Note_on_c, 0, 74, 0
2, 44283, Note_on_c, 0, 72, 61
2, 44337, Note_on_c, 0, 72, 0
2, 44395, Note_on_c, 0, 71, 57
2, 44432, Note_on_c, 0, 71, 0
2, 44515, Note_on_c, 0, 69, 67
2, 44563, Note_on_c, 0, 69, 0
2, 44774, Note_on_c, 0, 72, 61
2, 44862, Note_on_c, 0, 72, 0
2, 44882, Note_on_c, 0, 71, 67
2, 44958, Note_on_c, 0, 71, 0
2, 44999, Note_on_c, 0, 69, 67
2, 45047, Note_on_c, 0, 69, 0
2, 45116, Note_on_c, 0, 67, 60
2, 45172, Note_on_c, 0, 67, 0
2, 45240, Note_on_c, 0, 66, 69
2, 45242, Note_on_c, 0, 62, 75
2, 45307, Note_on_c, 0, 62, 0
2, 45471, Note_on_c, 0, 66, 0
2, 45483, Note_on_c, 0, 64, 71
2, 45490, Note_on_c, 0, 67, 67
2, 45532, Note_on_c, 0, 67, 0
2, 45558, Note_on_c, 0, 64, 0
2, 45587, Note_on_c, 0, 62, 73
2, 45653, Note_on_c, 0, 62, 0
2, 45692, Note_on_c, 0, 61, 73
2, 45713, Note_on_c, 0, 69, 69
2, 45747, Note_on_c, 0, 69, 0
2, 45764, Note_on_c, 0, 61, 0
2, 45793, Note_on_c, 0, 62, 82
2, 45867, Note_on_c, 0, 62, 0
2, 45930, Note_on_c, 0, 64, 76
2, 45938, Note_on_c, 0, 67, 68
2, 45990, Note_on_c, 0, 64, 0
2, 46167, Note_on_c, 0, 67, 0
2, 46169, Note_on_c, 0, 66, 70
2, 46175, Note_on_c, 0, 69, 68
2, 46203, Note_on_c, 0, 69, 0
2, 46236, Note_on_c, 0, 66, 0
2, 46265, Note_on_c, 0, 64, 69
2, 46348, Note_on_c, 0, 64, 0
2, 46382, Note_on_c, 0, 62, 73
2, 46403, Note_on_c, 0, 71, 65
2, 46431, Note_on_c, 0, 71, 0
2, 46478, Note_on_c, 0, 62, 0
2, 46489, Note_on_c, 0, 64, 72
2, 46584, Note_on_c, 0, 64, 0
2, 46621, Note_on_c, 0, 66, 77
2, 46627, Note_on_c, 0, 69, 68
2, 46676, Note_on_c, 0, 69, 0
2, 46861, Note_on_c, 0, 66, 0
2, 46869, Note_on_c, 0, 71, 67
2, 46880, Note_on_c, 0, 64, 61
2, 46908, Note_on_c, 0, 64, 0
2, 46923, Note_on_c, 0, 71, 0
2, 46987, Note_on_c, 0, 73, 60
2, 47101, Note_on_c, 0, 62, 72
2, 47103, Note_on_c, 0, 74, 59
2, 47104, Note_on_c, 0, 73, 0
2, 47141, Note_on_c, 0, 62, 0
2, 47181, Note_on_c, 0, 74, 0
2, 47199, Note_on_c, 0, 71, 58
2, 47276, Note_on_c, 0, 71, 0
2, 47316, Note_on_c, 0, 57, 68
2, 47319, Note_on_c, 0, 73, 65
2, 47398, Note_on_c, 0, 73, 0
2, 47437, Note_on_c, 0, 71, 60
2, 47542, Note_on_c, 0, 71, 0
2, 47557, Note_on_c, 0, 67, 74
2, 47562, Note_on_c, 0, 73, 66
2, 47572, Note_on_c, 0, 57, 0
2, 47627, Note_on_c, 0, 73, 0
2, 47672, Note_on_c, 0, 74, 60
2, 47745, Note_on_c, 0, 74, 0
2, 47786, Note_on_c, 0, 76, 59
2, 47869, Note_on_c, 0, 76, 0
2, 47896, Note_on_c, 0, 73, 65
2, 47989, Note_on_c, 0, 73, 0
2, 48005, Note_on_c, 0, 67, 0
2, 48011, Note_on_c, 0, 66, 67
2, 48027, Note_on_c, 0, 74, 67
2, 48133, Note_on_c, 0, 73, 69
2, 48137, Note_on_c, 0, 74, 0
2, 48216, Note_on_c, 0, 73, 0
2, 48233, Note_on_c, 0, 66, 0
2, 48259, Note_on_c, 0, 64, 69
2, 48262, Note_on_c, 0, 74, 68
2, 48291, Note_on_c, 0, 64, 0
2, 48333, Note_on_c, 0, 74, 0
2, 48369, Note_on_c, 0, 76, 72
2, 48436, Note_on_c, 0, 76, 0
2, 48485, Note_on_c, 0, 62, 74
2, 48488, Note_on_c, 0, 78, 75
2, 48526, Note_on_c, 0, 62, 0
2, 48566, Note_on_c, 0, 78, 0
2, 48585, Note_on_c, 0, 74, 67
2, 48705, Note_on_c, 0, 74, 0
2, 48717, Note_on_c, 0, 61, 72
2, 48734, Note_on_c, 0, 76, 64
2, 48813, Note_on_c, 0, 76, 0
2, 48853, Note_on_c, 0, 74, 59
2, 48998, Note_on_c, 0, 71, 70
2, 49002, Note_on_c, 0, 74, 0
2, 49008, Note_on_c, 0, 76, 68
2, 49023, Note_on_c, 0, 61, 0
2, 49093, Note_on_c, 0, 76, 0
2, 49120, Note_on_c, 0, 78, 71
2, 49221, Note_on_c, 0, 78, 0
2, 49232, Note_on_c, 0, 79, 68
2, 49321, Note_on_c, 0, 79, 0
2, 49330, Note_on_c, 0, 76, 80
2, 49385, Note_on_c, 0, 76, 0
2, 49423, Note_on_c, 0, 71, 0
2, 49455, Note_on_c, 0, 69, 62
2, 49455, Note_on_c, 0, 78, 82
2, 49526, Note_on_c, 0, 78, 0
2, 49539, Note_on_c, 0, 69, 0
2, 49634, Control_c, 0, 64, 10
2, 49649, Control_c, 0, 64, 19
2, 49664, Control_c, 0, 64, 21
2, 49718, Control_c, 0, 64, 18
2, 49722, Note_on_c, 0, 79, 75
2, 49733, Control_c, 0, 64, 10
2, 49745, Note_on_c, 0, 71, 56
2, 49748, Control_c, 0, 64, 0
2, 49810, Note_on_c, 0, 71, 0
2, 49822, Note_on_c, 0, 79, 0
2, 49829, Note_on_c, 0, 78, 83
2, 49833, Note_on_c, 0, 69, 67
2, 49887, Note_on_c, 0, 69, 0
2, 49918, Note_on_c, 0, 78, 0
2, 49952, Note_on_c, 0, 76, 72
2, 49960, Note_on_c, 0, 67, 58
2, 50000, Note_on_c, 0, 76, 0
2, 50030, Note_on_c, 0, 67, 0
2, 50046, Note_on_c, 0, 74, 74
2, 50060, Note_on_c, 0, 66, 52
2, 50116, Note_on_c, 0, 74, 0
2, 50128, Note_on_c, 0, 66, 0
2, 50180, Note_on_c, 0, 79, 79
2, 50192, Note_on_c, 0, 64, 46
2, 50234, Control_c, 0, 64, 32
2, 50250, Control_c, 0, 64, 48
2, 50265, Control_c, 0, 64, 55
2, 50281, Control_c, 0, 64, 58
2, 50290, Note_on_c, 0, 64, 0
2, 50296, Control_c, 0, 64, 59
2, 50310, Control_c, 0, 64, 60
2, 50326, Control_c, 0, 64, 60
2, 50341, Control_c, 0, 64, 61
2, 50372, Control_c, 0, 64, 61
2, 50418, Control_c, 0, 64, 61
2, 50433, Control_c, 0, 64, 60
2, 50437, Note_on_c, 0, 67, 64
2, 50449, Control_c, 0, 64, 59
2, 50471, Control_c, 0, 64, 57
2, 50487, Control_c, 0, 64, 53
2, 50501, Control_c, 0, 64, 46
2, 50517, Control_c, 0, 64, 35
2, 50529, Note_on_c, 0, 67, 0
2, 50532, Control_c, 0, 64, 22
2, 50545, Note_on_c, 0, 66, 66
2, 50546, Control_c, 0, 64, 0
2, 50629, Note_on_c, 0, 66, 0
2, 50676, Note_on_c, 0, 64, 58
2, 50753, Note_on_c, 0, 64, 0
2, 50791, Note_on_c, 0, 62, 46
2, 50850, Control_c, 0, 64, 10
2, 50864, Control_c, 0, 64, 13
2, 50873, Note_on_c, 0, 62, 0
2, 50901, Note_on_c, 0, 61, 52
2, 50910, Control_c, 0, 64, 16
2, 50957, Control_c, 0, 64, 18
2, 50987, Control_c, 0, 64, 19
2, 50996, Note_on_c, 0, 78, 65
2, 50999, Note_on_c, 0, 79, 0
2, 51032, Control_c, 0, 64, 21
2, 51078, Control_c, 0, 64, 22
2, 51081, Note_on_c, 0, 61, 0
2, 51087, Note_on_c, 0, 78, 0
2, 51093, Control_c, 0, 64, 24
2, 51119, Note_on_c, 0, 67, 58
2, 51121, Note_on_c, 0, 76, 65
2, 51170, Note_on_c, 0, 67, 0
2, 51188, Note_on_c, 0, 76, 0
2, 51201, Control_c, 0, 64, 25
2, 51241, Note_on_c, 0, 79, 62
2, 51268, Control_c, 0, 64, 26
2, 51282, Note_on_c, 0, 79, 0
2, 51342, Note_on_c, 0, 66, 69
2, 51344, Control_c, 0, 64, 27
2, 51350, Note_on_c, 0, 74, 70
2, 51384, Note_on_c, 0, 66, 0
2, 51403, Note_on_c, 0, 74, 0
2, 51406, Control_c, 0, 64, 26
2, 51452, Control_c, 0, 64, 27
2, 51459, Note_on_c, 0, 79, 67
2, 51511, Control_c, 0, 64, 28
2, 51518, Note_on_c, 0, 79, 0
2, 51569, Note_on_c, 0, 73, 79
2, 51573, Note_on_c, 0, 64, 63
2, 51603, Control_c, 0, 64, 29
2, 51702, Note_on_c, 0, 79, 61
2, 51757, Note_on_c, 0, 73, 0
2, 51779, Note_on_c, 0, 64, 0
2, 51785, Control_c, 0, 64, 28
2, 51788, Note_on_c, 0, 79, 0
2, 51801, Control_c, 0, 64, 27
2, 51804, Note_on_c, 0, 62, 51
2, 51812, Note_on_c, 0, 71, 69
2, 51830, Control_c, 0, 64, 26
2, 51853, Note_on_c, 0, 62, 0
2, 51861, Control_c, 0, 64, 25
2, 51885, Note_on_c, 0, 71, 0
2, 51892, Control_c, 0, 64, 24
2, 51926, Note_on_c, 0, 79, 66
2, 51975, Note_on_c, 0, 79, 0
2, 52005, Control_c, 0, 64, 22
2, 52051, Note_on_c, 0, 61, 60
2, 52052, Control_c, 0, 64, 24
2, 52056, Note_on_c, 0, 69, 67
2, 52088, Note_on_c, 0, 61, 0
2, 52111, Note_on_c, 0, 69, 0
2, 52158, Control_c, 0, 64, 25
2, 52167, Note_on_c, 0, 79, 57
2, 52209, Note_on_c, 0, 79, 0
2, 52279, Note_on_c, 0, 78, 72
2, 52281, Control_c, 0, 64, 26
2, 52281, Note_on_c, 0, 62, 57
2, 52326, Control_c, 0, 64, 27
2, 52360, Note_on_c, 0, 62, 0
2, 52388, Note_on_c, 0, 64, 61
2, 52431, Control_c, 0, 64, 28
2, 52476, Note_on_c, 0, 64, 0
2, 52512, Note_on_c, 0, 74, 76
2, 52514, Note_on_c, 0, 78, 0
2, 52524, Note_on_c, 0, 66, 61
2, 52549, Note_on_c, 0, 74, 0
2, 52568, Control_c, 0, 64, 27
2, 52583, Control_c, 0, 64, 26
2, 52586, Note_on_c, 0, 66, 0
2, 52599, Control_c, 0, 64, 25
2, 52615, Note_on_c, 0, 62, 61
2, 52659, Control_c, 0, 64, 26
2, 52674, Control_c, 0, 64, 27
2, 52690, Control_c, 0, 64, 30
2, 52696, Note_on_c, 0, 62, 0
2, 52705, Control_c, 0, 64, 35
2, 52721, Control_c, 0, 64, 43
2, 52736, Control_c, 0, 64, 47
2, 52740, Note_on_c, 0, 76, 86
2, 52742, Note_on_c, 0, 67, 68
2, 52751, Control_c, 0, 64, 50
2, 52773, Control_c, 0, 64, 53
2, 52788, Control_c, 0, 64, 54
2, 52802, Note_on_c, 0, 76, 0
2, 52804, Control_c, 0, 64, 55
2, 52819, Control_c, 0, 64, 56
2, 52845, Note_on_c, 0, 67, 0
2, 52851, Control_c, 0, 64, 57
2, 52863, Note_on_c, 0, 62, 54
2, 52927, Control_c, 0, 64, 56
2, 52957, Control_c, 0, 64, 55
2, 52972, Control_c, 0, 64, 53
2, 52978, Note_on_c, 0, 62, 0
2, 52983, Note_on_c, 0, 78, 94
2, 52987, Control_c, 0, 64, 50
2, 52992, Note_on_c, 0, 69, 70
2, 53002, Control_c, 0, 64, 47
2, 53017, Control_c, 0, 64, 44
2, 53079, Control_c, 0, 64, 45
2, 53094, Control_c, 0, 64, 45
2, 53108, Note_on_c, 0, 62, 58
2, 53130, Note_on_c, 0, 69, 0
2, 53152, Control_c, 0, 64, 45
2, 53168, Control_c, 0, 64, 44
2, 53179, Note_on_c, 0, 62, 0
2, 53198, Control_c, 0, 64, 43
2, 53213, Control_c, 0, 64, 43
2, 53222, Note_on_c, 0, 79, 84
2, 53228, Control_c, 0, 64, 42
2, 53229, Note_on_c, 0, 71, 67
2, 53231, Note_on_c, 0, 78, 0
2, 53244, Control_c, 0, 64, 42
2, 53259, Control_c, 0, 64, 41
2, 53281, Note_on_c, 0, 79, 0
2, 53304, Control_c, 0, 64, 41
2, 53310, Note_on_c, 0, 71, 0
2, 53320, Control_c, 0, 64, 40
2, 53332, Note_on_c, 0, 62, 55
2, 53335, Control_c, 0, 64, 39
2, 53350, Control_c, 0, 64, 37
2, 53366, Control_c, 0, 64, 36
2, 53378, Note_on_c, 0, 62, 0
2, 53397, Control_c, 0, 64, 42
2, 53411, Control_c, 0, 64, 54
2, 53426, Control_c, 0, 64, 62
2, 53442, Control_c, 0, 64, 66
2, 53442, Note_on_c, 0, 81, 93
2, 53457, Control_c, 0, 64, 70
2, 53469, Note_on_c, 0, 72, 61
2, 53472, Control_c, 0, 64, 74
2, 53487, Control_c, 0, 64, 81
2, 53502, Control_c, 0, 64, 84
2, 53510, Note_on_c, 0, 72, 0
2, 53518, Control_c, 0, 64, 85
2, 53540, Control_c, 0, 64, 87
2, 53556, Control_c, 0, 64, 88
2, 53571, Control_c, 0, 64, 88
2, 53582, Note_on_c, 0, 62, 49
2, 53607, Note_on_c, 0, 62, 0
2, 53722, Control_c, 0, 64, 88
2, 53733, Note_on_c, 0, 55, 91
2, 53736, Control_c, 0, 64, 86
2, 53749, Note_on_c, 0, 71, 66
2, 53751, Control_c, 0, 64, 84
2, 53767, Control_c, 0, 64, 81
2, 53767, Note_on_c, 0, 55, 0
2, 53782, Control_c, 0, 64, 77
2, 53797, Control_c, 0, 64, 73
2, 53813, Control_c, 0, 64, 70
2, 53828, Control_c, 0, 64, 66
2, 53843, Control_c, 0, 64, 63
2, 53858, Control_c, 0, 64, 59
2, 53873, Control_c, 0, 64, 57
2, 53904, Control_c, 0, 64, 56
2, 53919, Control_c, 0, 64, 53
2, 53935, Control_c, 0, 64, 50
2, 53950, Control_c, 0, 64, 43
2, 53961, Note_on_c, 0, 81, 0
2, 53965, Control_c, 0, 64, 0
2, 53981, Note_on_c, 0, 57, 81
2, 53983, Note_on_c, 0, 74, 75
2, 53993, Note_on_c, 0, 71, 0
2, 54045, Note_on_c, 0, 57, 0
2, 54085, Note_on_c, 0, 55, 86
2, 54142, Note_on_c, 0, 55, 0
2, 54198, Note_on_c, 0, 54, 79
2, 54217, Note_on_c, 0, 79, 77
2, 54233, Note_on_c, 0, 74, 0
2, 54258, Note_on_c, 0, 54, 0
2, 54315, Note_on_c, 0, 55, 81
2, 54364, Note_on_c, 0, 55, 0
2, 54444, Control_c, 0, 64, 31
2, 54446, Note_on_c, 0, 57, 81
2, 54458, Control_c, 0, 64, 58
2, 54461, Note_on_c, 0, 72, 75
2, 54474, Control_c, 0, 64, 61
2, 54490, Control_c, 0, 64, 62
2, 54499, Note_on_c, 0, 57, 0
2, 54520, Control_c, 0, 64, 62
2, 54536, Control_c, 0, 64, 63
2, 54550, Control_c, 0, 64, 63
2, 54566, Control_c, 0, 64, 64
2, 54596, Control_c, 0, 64, 64
2, 54641, Control_c, 0, 64, 64
2, 54657, Control_c, 0, 64, 63
2, 54672, Control_c, 0, 64, 58
2, 54681, Note_on_c, 0, 59, 81
2, 54688, Control_c, 0, 64, 38
2, 54690, Note_on_c, 0, 79, 0
2, 54697, Note_on_c, 0, 78, 70
2, 54702, Control_c, 0, 64, 0
2, 54734, Note_on_c, 0, 59, 0
2, 54779, Note_on_c, 0, 57, 81
2, 54844, Note_on_c, 0, 57, 0
2, 54867, Note_on_c, 0, 78, 0
2, 54886, Note_on_c, 0, 55, 80
2, 54897, Note_on_c, 0, 76, 75
2, 54939, Note_on_c, 0, 76, 0
2, 54963, Note_on_c, 0, 55, 0
2, 54995, Note_on_c, 0, 57, 81
2, 55081, Note_on_c, 0, 57, 0
2, 55113, Note_on_c, 0, 72, 0
2, 55127, Note_on_c, 0, 59, 79
2, 55140, Note_on_c, 0, 74, 70
2, 55317, Note_on_c, 0, 74, 0
2, 55330, Note_on_c, 0, 59, 0
2, 55352, Note_on_c, 0, 66, 73
2, 55353, Note_on_c, 0, 72, 73
2, 55356, Note_on_c, 0, 57, 75
2, 55383, Note_on_c, 0, 57, 0
2, 55388, Note_on_c, 0, 66, 0
2, 55416, Note_on_c, 0, 72, 0
2, 55586, Note_on_c, 0, 55, 73
2, 55592, Control_c, 0, 64, 53
2, 55595, Note_on_c, 0, 67, 64
2, 55596, Note_on_c, 0, 71, 59
2, 55608, Control_c, 0, 64, 64
2, 55623, Control_c, 0, 64, 67
2, 55638, Control_c, 0, 64, 70
2, 55653, Control_c, 0, 64, 74
2, 55654, Note_on_c, 0, 71, 0
2, 55668, Control_c, 0, 64, 77
2, 55684, Control_c, 0, 64, 78
2, 55820, Control_c, 0, 64, 76
2, 55825, Note_on_c, 0, 55, 0
2, 55836, Note_on_c, 0, 50, 74
2, 55843, Control_c, 0, 64, 72
2, 55848, Note_on_c, 0, 69, 68
2, 55858, Control_c, 0, 64, 59
2, 55873, Control_c, 0, 64, 0
2, 55949, Control_c, 0, 64, 61
2, 55965, Control_c, 0, 64, 65
2, 55980, Control_c, 0, 64, 65
2, 56056, Control_c, 0, 64, 64
2, 56062, Note_on_c, 0, 67, 0
2, 56063, Note_on_c, 0, 69, 0
2, 56070, Control_c, 0, 64, 62
2, 56081, Note_on_c, 0, 50, 0
2, 56085, Note_on_c, 0, 60, 77
2, 56086, Control_c, 0, 64, 50
2, 56100, Note_on_c, 0, 66, 63
2, 56101, Control_c, 0, 64, 0
2, 56164, Note_on_c, 0, 66, 0
2, 56197, Note_on_c, 0, 67, 64
2, 56262, Note_on_c, 0, 67, 0
2, 56309, Note_on_c, 0, 69, 63
2, 56397, Note_on_c, 0, 69, 0
2, 56412, Note_on_c, 0, 66, 69
2, 56501, Note_on_c, 0, 66, 0
2, 56531, Note_on_c, 0, 60, 0
2, 56537, Note_on_c, 0, 59, 67
2, 56543, Note_on_c, 0, 67, 67
2, 56620, Note_on_c, 0, 67, 0
2, 56654, Note_on_c, 0, 66, 70
2, 56727, Note_on_c, 0, 66, 0
2, 56748, Note_on_c, 0, 59, 0
2, 56773, Note_on_c, 0, 57, 66
2, 56778, Note_on_c, 0, 67, 66
2, 56803, Note_on_c, 0, 57, 0
2, 56836, Note_on_c, 0, 67, 0
2, 56880, Note_on_c, 0, 69, 71
2, 56948, Note_on_c, 0, 69, 0
2, 56986, Note_on_c, 0, 55, 71
2, 56993, Note_on_c, 0, 74, 67
2, 56995, Note_on_c, 0, 71, 70
2, 57007, Control_c, 0, 64, 16
2, 57020, Note_on_c, 0, 55, 0
2, 57022, Control_c, 0, 64, 57
2, 57037, Control_c, 0, 64, 62
2, 57053, Control_c, 0, 64, 63
2, 57083, Control_c, 0, 64, 63
2, 57088, Note_on_c, 0, 71, 0
2, 57101, Note_on_c, 0, 67, 73
2, 57113, Control_c, 0, 64, 64
2, 57129, Control_c, 0, 64, 64
2, 57174, Control_c, 0, 64, 64
2, 57189, Control_c, 0, 64, 63
2, 57205, Control_c, 0, 64, 55
2, 57212, Note_on_c, 0, 54, 71
2, 57216, Note_on_c, 0, 67, 0
2, 57219, Control_c, 0, 64, 0
2, 57225, Note_on_c, 0, 69, 69
2, 57283, Note_on_c, 0, 69, 0
2, 57289, Note_on_c, 0, 74, 0
2, 57323, Note_on_c, 0, 67, 77
2, 57326, Control_c, 0, 64, 56
2, 57341, Control_c, 0, 64, 62
2, 57399, Note_on_c, 0, 67, 0
2, 57409, Control_c, 0, 64, 62
2, 57424, Control_c, 0, 64, 61
2, 57424, Note_on_c, 0, 54, 0
2, 57435, Note_on_c, 0, 64, 81
2, 57439, Control_c, 0, 64, 56
2, 57449, Note_on_c, 0, 69, 64
2, 57455, Control_c, 0, 64, 10
2, 57460, Note_on_c, 0, 72, 65
2, 57469, Control_c, 0, 64, 0
2, 57481, Note_on_c, 0, 69, 0
2, 57516, Note_on_c, 0, 72, 0
2, 57546, Control_c, 0, 64, 53
2, 57548, Note_on_c, 0, 71, 74
2, 57561, Control_c, 0, 64, 65
2, 57577, Control_c, 0, 64, 67
2, 57616, Note_on_c, 0, 71, 0
2, 57653, Control_c, 0, 64, 66
2, 57668, Control_c, 0, 64, 63
2, 57674, Note_on_c, 0, 81, 87
2, 57680, Note_on_c, 0, 72, 67
2, 57683, Control_c, 0, 64, 47
2, 57698, Control_c, 0, 64, 0
2, 57738, Note_on_c, 0, 72, 0
2, 57783, Note_on_c, 0, 69, 68
2, 57844, Note_on_c, 0, 69, 0
2, 57886, Note_on_c, 0, 64, 0
2, 57904, Note_on_c, 0, 62, 68
2, 57913, Note_on_c, 0, 81, 0
2, 57920, Note_on_c, 0, 71, 73
2, 57942, Control_c, 0, 64, 63
2, 57957, Control_c, 0, 64, 70
2, 57973, Control_c, 0, 64, 75
2, 57977, Note_on_c, 0, 62, 0
2, 57983, Note_on_c, 0, 71, 0
2, 57987, Control_c, 0, 64, 78
2, 58003, Control_c, 0, 64, 79
2, 58018, Control_c, 0, 64, 79
2, 58048, Control_c, 0, 64, 80
2, 58063, Control_c, 0, 64, 80
2, 58094, Control_c, 0, 64, 81
2, 58108, Control_c, 0, 64, 80
2, 58147, Control_c, 0, 64, 79
2, 58163, Control_c, 0, 64, 76
2, 58178, Control_c, 0, 64, 69
2, 58179, Note_on_c, 0, 72, 74
2, 58179, Note_on_c, 0, 79, 75
2, 58183, Note_on_c, 0, 64, 59
2, 58192, Control_c, 0, 64, 40
2, 58208, Control_c, 0, 64, 0
2, 58234, Note_on_c, 0, 64, 0
2, 58250, Note_on_c, 0, 72, 0
2, 58276, Note_on_c, 0, 71, 74
2, 58286, Note_on_c, 0, 62, 60
2, 58328, Note_on_c, 0, 62, 0
2, 58340, Note_on_c, 0, 71, 0
2, 58388, Note_on_c, 0, 60, 59
2, 58397, Note_on_c, 0, 69, 73
2, 58426, Note_on_c, 0, 60, 0
2, 58458, Note_on_c, 0, 69, 0
2, 58477, Note_on_c, 0, 59, 68
2, 58494, Note_on_c, 0, 67, 77
2, 58537, Note_on_c, 0, 59, 0
2, 58551, Note_on_c, 0, 67, 0
2, 58607, Note_on_c, 0, 57, 71
2, 58607, Note_on_c, 0, 72, 76
2, 58619, Control_c, 0, 64, 22
2, 58619, Note_on_c, 0, 79, 0
2, 58634, Control_c, 0, 64, 64
2, 58650, Control_c, 0, 64, 70
2, 58659, Note_on_c, 0, 57, 0
2, 58665, Control_c, 0, 64, 74
2, 58679, Control_c, 0, 64, 76
2, 58695, Control_c, 0, 64, 77
2, 58710, Control_c, 0, 64, 78
2, 58726, Control_c, 0, 64, 78
2, 58741, Control_c, 0, 64, 79
2, 58817, Control_c, 0, 64, 78
2, 58831, Control_c, 0, 64, 76
2, 58847, Control_c, 0, 64, 71
2, 58857, Note_on_c, 0, 81, 78
2, 58862, Control_c, 0, 64, 59
2, 58862, Note_on_c, 0, 60, 67
2, 58876, Control_c, 0, 64, 0
2, 58925, Note_on_c, 0, 60, 0
2, 58964, Note_on_c, 0, 59, 66
2, 58968, Note_on_c, 0, 79, 75
2, 58975, Note_on_c, 0, 81, 0
2, 59009, Note_on_c, 0, 59, 0
2, 59060, Note_on_c, 0, 57, 69
2, 59071, Note_on_c, 0, 78, 77
2, 59090, Note_on_c, 0, 57, 0
2, 59107, Note_on_c, 0, 79, 0
2, 59156, Note_on_c, 0, 55, 68
2, 59159, Note_on_c, 0, 76, 64
2, 59171, Note_on_c, 0, 78, 0
2, 59193, Note_on_c, 0, 76, 0
2, 59218, Note_on_c, 0, 55, 0
2, 59273, Note_on_c, 0, 54, 71
2, 59294, Note_on_c, 0, 74, 67
2, 59323, Note_on_c, 0, 72, 0
2, 59408, Note_on_c, 0, 71, 64
2, 59474, Note_on_c, 0, 71, 0
2, 59524, Control_c, 0, 64, 13
2, 59528, Note_on_c, 0, 69, 63
2, 59539, Control_c, 0, 64, 21
2, 59554, Control_c, 0, 64, 25
2, 59566, Note_on_c, 0, 69, 0
2, 59570, Control_c, 0, 64, 27
2, 59585, Control_c, 0, 64, 28
2, 59615, Control_c, 0, 64, 29
2, 59629, Note_on_c, 0, 54, 0
2, 59634, Note_on_c, 0, 72, 62
2, 59683, Control_c, 0, 64, 28
2, 59690, Note_on_c, 0, 72, 0
2, 59698, Control_c, 0, 64, 22
2, 59713, Control_c, 0, 64, 0
2, 59756, Note_on_c, 0, 52, 67
2, 59760, Note_on_c, 0, 67, 67
2, 59787, Note_on_c, 0, 52, 0
2, 59791, Note_on_c, 0, 67, 0
2, 59860, Note_on_c, 0, 72, 64
2, 59918, Note_on_c, 0, 72, 0
2, 59969, Note_on_c, 0, 50, 69
2, 59976, Note_on_c, 0, 66, 66
2, 60001, Note_on_c, 0, 50, 0
2, 60059, Note_on_c, 0, 66, 0
2, 60080, Note_on_c, 0, 52, 59
2, 60092, Note_on_c, 0, 72, 57
2, 60119, Note_on_c, 0, 52, 0
2, 60151, Note_on_c, 0, 72, 0
2, 60190, Note_on_c, 0, 50, 61
2, 60204, Note_on_c, 0, 64, 63
2, 60223, Note_on_c, 0, 50, 0
2, 60250, Note_on_c, 0, 64, 0
2, 60290, Note_on_c, 0, 48, 65
2, 60303, Note_on_c, 0, 72, 63
2, 60324, Note_on_c, 0, 48, 0
2, 60358, Note_on_c, 0, 72, 0
2, 60404, Note_on_c, 0, 47, 65
2, 60422, Note_on_c, 0, 62, 54
2, 60446, Note_on_c, 0, 47, 0
2, 60453, Note_on_c, 0, 62, 0
2, 60511, Note_on_c, 0, 72, 67
2, 60520, Note_on_c, 0, 45, 57
2, 60560, Note_on_c, 0, 45, 0
2, 60578, Note_on_c, 0, 74, 0
2, 60589, Note_on_c, 0, 72, 0
2, 60630, Note_on_c, 0, 43, 59
2, 60637, Note_on_c, 0, 71, 68
2, 60696, Note_on_c, 0, 43, 0
2, 60739, Note_on_c, 0, 45, 51
2, 60803, Note_on_c, 0, 45, 0
2, 60859, Note_on_c, 0, 47, 60
2, 60861, Note_on_c, 0, 71, 0
2, 60868, Note_on_c, 0, 74, 77
2, 60878, Note_on_c, 0, 65, 68
2, 60906, Note_on_c, 0, 65, 0
2, 60930, Note_on_c, 0, 74, 0
2, 60949, Note_on_c, 0, 47, 0
2, 60967, Note_on_c, 0, 43, 64
2, 61048, Control_c, 0, 64, 16
2, 61063, Control_c, 0, 64, 29
2, 61078, Control_c, 0, 64, 34
2, 61093, Control_c, 0, 64, 41
2, 61095, Note_on_c, 0, 43, 0
2, 61106, Note_on_c, 0, 48, 74
2, 61106, Note_on_c, 0, 72, 82
2, 61108, Control_c, 0, 64, 47
2, 61113, Note_on_c, 0, 64, 68
2, 61124, Control_c, 0, 64, 52
2, 61138, Control_c, 0, 64, 54
2, 61145, Note_on_c, 0, 64, 0
2, 61153, Control_c, 0, 64, 55
2, 61162, Note_on_c, 0, 72, 0
2, 61169, Control_c, 0, 64, 56
2, 61196, Note_on_c, 0, 48, 0
2, 61220, Note_on_c, 0, 43, 68
2, 61222, Control_c, 0, 64, 56
2, 61268, Control_c, 0, 64, 57
2, 61298, Control_c, 0, 64, 58
2, 61329, Control_c, 0, 64, 57
2, 61343, Control_c, 0, 64, 44
2, 61344, Note_on_c, 0, 71, 87
2, 61350, Note_on_c, 0, 43, 0
2, 61354, Note_on_c, 0, 50, 73
2, 61359, Control_c, 0, 64, 0
2, 61360, Note_on_c, 0, 62, 70
2, 61434, Control_c, 0, 64, 48
2, 61450, Control_c, 0, 64, 66
2, 61458, Note_on_c, 0, 62, 0
2, 61464, Control_c, 0, 64, 69
2, 61479, Note_on_c, 0, 43, 54
2, 61480, Control_c, 0, 64, 72
2, 61495, Control_c, 0, 64, 73
2, 61541, Control_c, 0, 64, 74
2, 61557, Control_c, 0, 64, 73
2, 61560, Note_on_c, 0, 71, 0
2, 61570, Note_on_c, 0, 50, 0
2, 61582, Note_on_c, 0, 69, 77
2, 61586, Control_c, 0, 64, 71
2, 61596, Note_on_c, 0, 60, 65
2, 61600, Note_on_c, 0, 52, 73
2, 61602, Control_c, 0, 64, 67
2, 61614, Note_on_c, 0, 43, 0
2, 61616, Control_c, 0, 64, 48
2, 61629, Note_on_c, 0, 60, 0
2, 61631, Control_c, 0, 64, 0
2, 61649, Note_on_c, 0, 69, 0
2, 61691, Note_on_c, 0, 52, 0
2, 61703, Note_on_c, 0, 43, 64
2, 61798, Note_on_c, 0, 43, 0
2, 61820, Note_on_c, 0, 67, 75
2, 61823, Note_on_c, 0, 53, 70
2, 61839, Note_on_c, 0, 59, 49
2, 61860, Control_c, 0, 64, 58
2, 61864, Note_on_c, 0, 59, 0
2, 61876, Control_c, 0, 64, 66
2, 61884, Note_on_c, 0, 67, 0
2, 61891, Control_c, 0, 64, 71
2, 61906, Control_c, 0, 64, 74
2, 61920, Note_on_c, 0, 53, 0
2, 61922, Control_c, 0, 64, 77
2, 61935, Note_on_c, 0, 43, 64
2, 61936, Control_c, 0, 64, 78
2, 61951, Control_c, 0, 64, 78
2, 61967, Control_c, 0, 64, 79
2, 61989, Control_c, 0, 64, 80
2, 62020, Control_c, 0, 64, 80
2, 62081, Control_c, 0, 64, 80
2, 62081, Control_c, 0, 67, 107
2, 62096, Control_c, 0, 64, 78
2, 62096, Control_c, 0, 67, 72
2, 62100, Note_on_c, 0, 72, 83
2, 62106, Note_on_c, 0, 52, 75
2, 62110, Control_c, 0, 64, 74
2, 62110, Control_c, 0, 67, 31
2, 62113, Note_on_c, 0, 43, 0
2, 62126, Control_c, 0, 64, 68
2, 62126, Control_c, 0, 67, 0
2, 62141, Control_c, 0, 64, 0
2, 62220, Note_on_c, 0, 74, 84
2, 62225, Note_on_c, 0, 72, 0
2, 62231, Note_on_c, 0, 50, 67
2, 62234, Note_on_c, 0, 52, 0
2, 62324, Note_on_c, 0, 50, 0
2, 62346, Note_on_c, 0, 76, 83
2, 62348, Note_on_c, 0, 48, 63
2, 62357, Note_on_c, 0, 74, 0
2, 62417, Note_on_c, 0, 48, 0
2, 62462, Note_on_c, 0, 52, 69
2, 62582, Note_on_c, 0, 52, 0
2, 62593, Note_on_c, 0, 67, 66
2, 62600, Note_on_c, 0, 47, 63
2, 62627, Control_c, 0, 64, 51
2, 62639, Note_on_c, 0, 67, 0
2, 62643, Control_c, 0, 64, 65
2, 62658, Control_c, 0, 64, 68
2, 62669, Note_on_c, 0, 76, 0
2, 62674, Control_c, 0, 64, 70
2, 62688, Note_on_c, 0, 47, 0
2, 62690, Control_c, 0, 64, 72
2, 62704, Control_c, 0, 64, 74
2, 62704, Note_on_c, 0, 52, 63
2, 62720, Control_c, 0, 64, 75
2, 62735, Control_c, 0, 64, 76
2, 62758, Control_c, 0, 64, 77
2, 62827, Note_on_c, 0, 52, 0
2, 62834, Note_on_c, 0, 66, 69
2, 62849, Control_c, 0, 64, 76
2, 62850, Note_on_c, 0, 45, 60
2, 62864, Control_c, 0, 64, 74
2, 62880, Control_c, 0, 64, 71
2, 62895, Control_c, 0, 64, 67
2, 62909, Control_c, 0, 64, 58
2, 62925, Control_c, 0, 64, 0
2, 62949, Note_on_c, 0, 74, 65
2, 62953, Note_on_c, 0, 52, 61
2, 62956, Note_on_c, 0, 66, 0
2, 62997, Note_on_c, 0, 45, 0
2, 63053, Note_on_c, 0, 52, 0
2, 63060, Note_on_c, 0, 72, 69
2, 63063, Note_on_c, 0, 74, 0
2, 63069, Note_on_c, 0, 43, 61
2, 63128, Note_on_c, 0, 43, 0
2, 63164, Note_on_c, 0, 72, 0
2, 63167, Note_on_c, 0, 71, 74
2, 63185, Note_on_c, 0, 52, 63
2, 63252, Note_on_c, 0, 52, 0
2, 63271, Note_on_c, 0, 71, 0
2, 63283, Note_on_c, 0, 69, 75
2, 63296, Note_on_c, 0, 42, 55
2, 63348, Note_on_c, 0, 42, 0
2, 63372, Note_on_c, 0, 69, 0
2, 63393, Note_on_c, 0, 72, 75
2, 63397, Note_on_c, 0, 52, 61
2, 63477, Note_on_c, 0, 52, 0
2, 63487, Note_on_c, 0, 72, 0
2, 63504, Note_on_c, 0, 50, 57
2, 63505, Note_on_c, 0, 71, 73
2, 63580, Note_on_c, 0, 50, 0
2, 63588, Note_on_c, 0, 71, 0
2, 63617, Note_on_c, 0, 72, 77
2, 63618, Note_on_c, 0, 48, 59
2, 63693, Note_on_c, 0, 48, 0
2, 63724, Note_on_c, 0, 74, 75
2, 63728, Note_on_c, 0, 72, 0
2, 63736, Note_on_c, 0, 47, 54
2, 63780, Note_on_c, 0, 47, 0
2, 63840, Note_on_c, 0, 50, 59
2, 63927, Note_on_c, 0, 50, 0
2, 63952, Note_on_c, 0, 66, 73
2, 63973, Note_on_c, 0, 45, 52
2, 63987, Note_on_c, 0, 66, 0
2, 64063, Note_on_c, 0, 50, 57
2, 64103, Control_c, 0, 64, 31
2, 64119, Control_c, 0, 64, 46
2, 64134, Control_c, 0, 64, 53
2, 64145, Note_on_c, 0, 45, 0
2, 64148, Control_c, 0, 64, 57
2, 64164, Control_c, 0, 64, 59
2, 64179, Control_c, 0, 64, 60
2, 64179, Note_on_c, 0, 64, 63
2, 64181, Note_on_c, 0, 74, 0
2, 64184, Note_on_c, 0, 50, 0
2, 64194, Control_c, 0, 64, 61
2, 64198, Note_on_c, 0, 43, 50
2, 64225, Control_c, 0, 64, 61
2, 64241, Control_c, 0, 64, 62
2, 64293, Control_c, 0, 64, 61
2, 64303, Note_on_c, 0, 43, 0
2, 64307, Note_on_c, 0, 72, 65
2, 64309, Control_c, 0, 64, 57
2, 64322, Note_on_c, 0, 50, 55
2, 64325, Control_c, 0, 64, 46
2, 64340, Control_c, 0, 64, 0
2, 64393, Note_on_c, 0, 72, 0
2, 64417, Note_on_c, 0, 50, 0
2, 64417, Note_on_c, 0, 71, 68
2, 64429, Note_on_c, 0, 42, 56
2, 64519, Note_on_c, 0, 69, 68
2, 64529, Note_on_c, 0, 71, 0
2, 64532, Note_on_c, 0, 42, 0
2, 64550, Note_on_c, 0, 50, 60
2, 64628, Note_on_c, 0, 67, 74
2, 64638, Note_on_c, 0, 69, 0
2, 64650, Note_on_c, 0, 50, 0
2, 64664, Note_on_c, 0, 40, 61
2, 64719, Note_on_c, 0, 40, 0
2, 64735, Note_on_c, 0, 71, 68
2, 64755, Note_on_c, 0, 67, 0
2, 64771, Note_on_c, 0, 50, 51
2, 64849, Note_on_c, 0, 69, 75
2, 64849, Note_on_c, 0, 71, 0
2, 64858, Note_on_c, 0, 50, 0
2, 64884, Note_on_c, 0, 48, 52
2, 64942, Note_on_c, 0, 48, 0
2, 64944, Note_on_c, 0, 69, 0
2, 64959, Note_on_c, 0, 71, 78
2, 64971, Note_on_c, 0, 47, 56
2, 65003, Note_on_c, 0, 64, 0
2, 65037, Note_on_c, 0, 47, 0
2, 65083, Note_on_c, 0, 72, 71
2, 65085, Note_on_c, 0, 71, 0
2, 65098, Note_on_c, 0, 45, 55
2, 65146, Note_on_c, 0, 45, 0
2, 65193, Note_on_c, 0, 48, 61
2, 65295, Note_on_c, 0, 64, 68
2, 65308, Note_on_c, 0, 48, 0
2, 65318, Note_on_c, 0, 43, 52
2, 65339, Note_on_c, 0, 64, 0
2, 65420, Note_on_c, 0, 48, 51
2, 65438, Control_c, 0, 64, 41
2, 65454, Control_c, 0, 64, 61
2, 65469, Control_c, 0, 64, 65
2, 65484, Control_c, 0, 64, 66
2, 65499, Control_c, 0, 64, 66
2, 65514, Control_c, 0, 64, 68
2, 65530, Control_c, 0, 64, 69
2, 65537, Note_on_c, 0, 48, 0
2, 65544, Note_on_c, 0, 72, 0
2, 65545, Control_c, 0, 64, 71
2, 65551, Note_on_c, 0, 42, 52
2, 65555, Note_on_c, 0, 62, 65
2, 65559, Control_c, 0, 64, 72
2, 65575, Control_c, 0, 64, 72
2, 65577, Note_on_c, 0, 43, 0
2, 65663, Note_on_c, 0, 48, 50
2, 65666, Control_c, 0, 64, 72
2, 65671, Note_on_c, 0, 71, 64
2, 65681, Control_c, 0, 64, 70
2, 65697, Control_c, 0, 64, 67
2, 65712, Control_c, 0, 64, 61
2, 65728, Control_c, 0, 64, 0
2, 65739, Note_on_c, 0, 42, 0
2, 65749, Note_on_c, 0, 71, 0
2, 65753, Note_on_c, 0, 48, 0
2, 65775, Note_on_c, 0, 69, 68
2, 65784, Note_on_c, 0, 40, 54
2, 65887, Note_on_c, 0, 40, 0
2, 65893, Note_on_c, 0, 67, 66
2, 65895, Note_on_c, 0, 69, 0
2, 65905, Note_on_c, 0, 48, 51
2, 65984, Note_on_c, 0, 67, 0
2, 66003, Note_on_c, 0, 48, 0
2, 66003, Note_on_c, 0, 66, 66
2, 66028, Note_on_c, 0, 38, 47
2, 66078, Note_on_c, 0, 38, 0
2, 66088, Note_on_c, 0, 62, 0
2, 66091, Note_on_c, 0, 66, 0
2, 66106, Note_on_c, 0, 69, 70
2, 66148, Note_on_c, 0, 48, 33
2, 66206, Note_on_c, 0, 69, 0
2, 66239, Note_on_c, 0, 67, 67
2, 66247, Note_on_c, 0, 48, 0
2, 66253, Note_on_c, 0, 62, 58
2, 66263, Note_on_c, 0, 47, 53
2, 66317, Note_on_c, 0, 67, 0
2, 66345, Note_on_c, 0, 69, 69
2, 66353, Note_on_c, 0, 62, 0
2, 66445, Note_on_c, 0, 69, 0
2, 66446, Note_on_c, 0, 47, 0
2, 66470, Note_on_c, 0, 45, 54
2, 66475, Note_on_c, 0, 71, 63
2, 66488, Note_on_c, 0, 60, 64
2, 66524, Note_on_c, 0, 45, 0
2, 66529, Note_on_c, 0, 60, 0
2, 66587, Note_on_c, 0, 62, 70
2, 66674, Note_on_c, 0, 62, 0
2, 66705, Note_on_c, 0, 64, 71
2, 66709, Note_on_c, 0, 43, 53
2, 66754, Note_on_c, 0, 43, 0
2, 66776, Note_on_c, 0, 64, 0
2, 66807, Note_on_c, 0, 62, 77
2, 66883, Note_on_c, 0, 62, 0
2, 66945, Note_on_c, 0, 60, 77
2, 66949, Note_on_c, 0, 45, 52
2, 67021, Control_c, 0, 64, 41
2, 67024, Note_on_c, 0, 60, 0
2, 67035, Control_c, 0, 64, 60
2, 67051, Control_c, 0, 64, 62
2, 67112, Control_c, 0, 64, 62
2, 67135, Note_on_c, 0, 71, 0
2, 67156, Note_on_c, 0, 45, 0
2, 67171, Note_on_c, 0, 64, 63
2, 67181, Note_on_c, 0, 59, 62
2, 67191, Note_on_c, 0, 43, 53
2, 67204, Control_c, 0, 64, 62
2, 67218, Control_c, 0, 64, 60
2, 67224, Note_on_c, 0, 59, 0
2, 67233, Control_c, 0, 64, 54
2, 67249, Control_c, 0, 64, 44
2, 67253, Note_on_c, 0, 43, 0
2, 67264, Control_c, 0, 64, 22
2, 67269, Note_on_c, 0, 60, 71
2, 67279, Control_c, 0, 64, 0
2, 67363, Note_on_c, 0, 60, 0
2, 67373, Note_on_c, 0, 64, 0
2, 67393, Note_on_c, 0, 42, 51
2, 67404, Note_on_c, 0, 69, 67
2, 67410, Note_on_c, 0, 62, 70
2, 67429, Note_on_c, 0, 42, 0
2, 67458, Note_on_c, 0, 62, 0
2, 67500, Control_c, 0, 64, 32
2, 67507, Note_on_c, 0, 60, 71
2, 67514, Control_c, 0, 64, 40
2, 67530, Control_c, 0, 64, 39
2, 67545, Control_c, 0, 64, 38
2, 67559, Control_c, 0, 64, 38
2, 67574, Note_on_c, 0, 60, 0
2, 67575, Control_c, 0, 64, 36
2, 67592, Control_c, 0, 64, 34
2, 67607, Control_c, 0, 64, 25
2, 67622, Control_c, 0, 64, 0
2, 67623, Note_on_c, 0, 59, 76
2, 67635, Note_on_c, 0, 43, 54
2, 67678, Note_on_c, 0, 69, 0
2, 67683, Note_on_c, 0, 43, 0
2, 67713, Control_c, 0, 64, 13
2, 67729, Control_c, 0, 64, 21
2, 67739, Note_on_c, 0, 67, 73
2, 67740, Note_on_c, 0, 55, 55
2, 67742, Control_c, 0, 64, 26
2, 67745, Note_on_c, 0, 59, 0
2, 67757, Control_c, 0, 64, 30
2, 67773, Control_c, 0, 64, 31
2, 67788, Control_c, 0, 64, 32
2, 67819, Control_c, 0, 64, 30
2, 67832, Note_on_c, 0, 67, 0
2, 67833, Control_c, 0, 64, 0
2, 67840, Note_on_c, 0, 55, 0
2, 67862, Note_on_c, 0, 69, 75
2, 67863, Note_on_c, 0, 60, 72
2, 67867, Note_on_c, 0, 53, 62
2, 67901, Note_on_c, 0, 60, 0
2, 67902, Note_on_c, 0, 69, 0
2, 67947, Note_on_c, 0, 53, 0
2, 67968, Note_on_c, 0, 52, 64
2, 68051, Note_on_c, 0, 52, 0
2, 68080, Note_on_c, 0, 50, 66
2, 68093, Note_on_c, 0, 71, 79
2, 68096, Note_on_c, 0, 62, 74
2, 68133, Note_on_c, 0, 62, 0
2, 68153, Note_on_c, 0, 71, 0
2, 68197, Note_on_c, 0, 50, 0
2, 68200, Note_on_c, 0, 53, 69
2, 68340, Note_on_c, 0, 52, 66
2, 68342, Note_on_c, 0, 72, 76
2, 68347, Note_on_c, 0, 67, 66
2, 68351, Note_on_c, 0, 53, 0
2, 68421, Control_c, 0, 64, 36
2, 68436, Control_c, 0, 64, 45
2, 68439, Note_on_c, 0, 52, 0
2, 68451, Control_c, 0, 64, 47
2, 68460, Note_on_c, 0, 53, 70
2, 68463, Note_on_c, 0, 74, 71
2, 68481, Control_c, 0, 64, 46
2, 68483, Note_on_c, 0, 72, 0
2, 68537, Note_on_c, 0, 67, 0
2, 68549, Note_on_c, 0, 53, 0
2, 68565, Note_on_c, 0, 74, 0
2, 68576, Note_on_c, 0, 57, 65
2, 68581, Note_on_c, 0, 52, 62
2, 68584, Note_on_c, 0, 72, 78
2, 68603, Control_c, 0, 64, 45
2, 68618, Control_c, 0, 64, 45
2, 68632, Control_c, 0, 64, 44
2, 68688, Note_on_c, 0, 50, 68
2, 68690, Note_on_c, 0, 52, 0
2, 68692, Note_on_c, 0, 71, 78
2, 68696, Note_on_c, 0, 72, 0
2, 68739, Control_c, 0, 64, 43
2, 68754, Control_c, 0, 64, 40
2, 68759, Note_on_c, 0, 50, 0
2, 68770, Control_c, 0, 64, 38
2, 68785, Control_c, 0, 64, 37
2, 68792, Note_on_c, 0, 71, 0
2, 68793, Note_on_c, 0, 48, 62
2, 68795, Note_on_c, 0, 57, 0
2, 68799, Control_c, 0, 64, 40
2, 68805, Note_on_c, 0, 69, 73
2, 68815, Control_c, 0, 64, 45
2, 68830, Control_c, 0, 64, 51
2, 68846, Control_c, 0, 64, 59
2, 68861, Control_c, 0, 64, 63
2, 68866, Note_on_c, 0, 69, 0
2, 68876, Control_c, 0, 64, 65
2, 68899, Control_c, 0, 64, 66
2, 68914, Control_c, 0, 64, 68
2, 68914, Note_on_c, 0, 52, 67
2, 68920, Note_on_c, 0, 67, 53
2, 68929, Control_c, 0, 64, 69
2, 68943, Note_on_c, 0, 67, 0
2, 68944, Control_c, 0, 64, 71
2, 68953, Note_on_c, 0, 48, 0
2, 68959, Control_c, 0, 64, 72
2, 68975, Control_c, 0, 64, 72
2, 68992, Note_on_c, 0, 52, 0
2, 69045, Note_on_c, 0, 67, 69
2, 69046, Note_on_c, 0, 50, 56
2, 69067, Note_on_c, 0, 59, 61
2, 69083, Note_on_c, 0, 67, 0
2, 69087, Note_on_c, 0, 50, 0
2, 69097, Control_c, 0, 64, 72
2, 69111, Control_c, 0, 64, 71
2, 69127, Control_c, 0, 64, 70
2, 69129, Note_on_c, 0, 66, 64
2, 69135, Note_on_c, 0, 52, 60
2, 69138, Note_on_c, 0, 59, 0
2, 69142, Control_c, 0, 64, 68
2, 69157, Control_c, 0, 64, 67
2, 69173, Control_c, 0, 64, 65
2, 69185, Note_on_c, 0, 66, 0
2, 69188, Control_c, 0, 64, 62
2, 69193, Note_on_c, 0, 67, 68
2, 69203, Control_c, 0, 64, 34
2, 69219, Control_c, 0, 64, 0
2, 69234, Note_on_c, 0, 67, 0
2, 69246, Note_on_c, 0, 66, 65
2, 69275, Note_on_c, 0, 50, 52
2, 69292, Note_on_c, 0, 52, 0
2, 69297, Note_on_c, 0, 60, 29
2, 69334, Note_on_c, 0, 60, 0
2, 69335, Note_on_c, 0, 50, 0
2, 69368, Note_on_c, 0, 66, 0
2, 69385, Note_on_c, 0, 64, 57
2, 69396, Note_on_c, 0, 48, 51
2, 69445, Note_on_c, 0, 64, 0
2, 69454, Note_on_c, 0, 48, 0
2, 69476, Note_on_c, 0, 67, 80
2, 69495, Note_on_c, 0, 47, 68
2, 69505, Note_on_c, 0, 62, 63
2, 69555, Note_on_c, 0, 62, 0
2, 69604, Note_on_c, 0, 47, 0
2, 69614, Note_on_c, 0, 50, 56
2, 69683, Control_c, 0, 64, 21
2, 69697, Control_c, 0, 64, 33
2, 69702, Note_on_c, 0, 67, 0
2, 69712, Control_c, 0, 64, 34
2, 69727, Note_on_c, 0, 50, 0
2, 69728, Control_c, 0, 64, 36
2, 69730, Note_on_c, 0, 64, 77
2, 69732, Note_on_c, 0, 48, 62
2, 69743, Control_c, 0, 64, 40
2, 69758, Control_c, 0, 64, 45
2, 69773, Control_c, 0, 64, 49
2, 69788, Control_c, 0, 64, 51
2, 69799, Note_on_c, 0, 48, 0
2, 69804, Control_c, 0, 64, 52
2, 69821, Note_on_c, 0, 64, 0
2, 69852, Note_on_c, 0, 50, 58
2, 69853, Note_on_c, 0, 71, 70
2, 69879, Control_c, 0, 64, 51
2, 69927, Note_on_c, 0, 50, 0
2, 69940, Note_on_c, 0, 71, 0
2, 69955, Control_c, 0, 64, 50
2, 69964, Note_on_c, 0, 54, 68
2, 69971, Control_c, 0, 64, 46
2, 69974, Note_on_c, 0, 69, 71
2, 69986, Control_c, 0, 64, 43
2, 70001, Control_c, 0, 64, 42
2, 70003, Note_on_c, 0, 48, 31
2, 70031, Control_c, 0, 64, 41
2, 70048, Control_c, 0, 64, 36
2, 70057, Note_on_c, 0, 54, 0
2, 70061, Note_on_c, 0, 69, 0
2, 70063, Control_c, 0, 64, 26
2, 70077, Control_c, 0, 64, 13
2, 70080, Note_on_c, 0, 67, 71
2, 70086, Note_on_c, 0, 48, 0
2, 70093, Control_c, 0, 64, 18
2, 70099, Note_on_c, 0, 47, 62
2, 70108, Control_c, 0, 64, 21
2, 70124, Control_c, 0, 64, 18
2, 70139, Control_c, 0, 64, 0
2, 70151, Note_on_c, 0, 47, 0
2, 70161, Note_on_c, 0, 67, 0
2, 70197, Note_on_c, 0, 66, 73
2, 70200, Note_on_c, 0, 45, 55
2, 70265, Note_on_c, 0, 66, 0
2, 70275, Control_c, 0, 64, 21
2, 70288, Note_on_c, 0, 45, 0
2, 70291, Control_c, 0, 64, 39
2, 70306, Control_c, 0, 64, 43
2, 70308, Note_on_c, 0, 48, 57
2, 70308, Note_on_c, 0, 64, 64
2, 70320, Control_c, 0, 64, 42
2, 70336, Control_c, 0, 64, 43
2, 70341, Note_on_c, 0, 64, 0
2, 70351, Control_c, 0, 64, 46
2, 70367, Control_c, 0, 64, 51
2, 70378, Note_on_c, 0, 48, 0
2, 70382, Control_c, 0, 64, 53
2, 70396, Control_c, 0, 64, 53
2, 70412, Control_c, 0, 64, 52
2, 70417, Note_on_c, 0, 47, 66
2, 70451, Control_c, 0, 64, 54
2, 70460, Note_on_c, 0, 55, 37
2, 70466, Control_c, 0, 64, 57
2, 70478, Note_on_c, 0, 57, 21
2, 70480, Control_c, 0, 64, 61
2, 70496, Control_c, 0, 64, 63
2, 70506, Note_on_c, 0, 62, 9
2, 70515, Note_on_c, 0, 57, 0
2, 70525, Note_on_c, 0, 55, 0
2, 70528, Note_on_c, 0, 47, 0
2, 70533, Note_on_c, 0, 62, 0
2, 70541, Control_c, 0, 67, 10
2, 70543, Note_on_c, 0, 48, 65
2, 70556, Control_c, 0, 67, 19
2, 70572, Control_c, 0, 67, 33
2, 70587, Control_c, 0, 67, 56
2, 70603, Control_c, 0, 67, 79
2, 70617, Control_c, 0, 67, 101
2, 70621, Note_on_c, 0, 48, 0
2, 70632, Control_c, 0, 67, 120
2, 70648, Control_c, 0, 67, 127
2, 70654, Note_on_c, 0, 47, 65
2, 70662, Control_c, 0, 64, 61
2, 70672, Note_on_c, 0, 55, 65
2, 70677, Control_c, 0, 64, 58
2, 70693, Control_c, 0, 64, 51
2, 70708, Control_c, 0, 64, 41
2, 70724, Control_c, 0, 64, 18
2, 70738, Control_c, 0, 64, 0
2, 70742, Note_on_c, 0, 47, 0
2, 70754, Note_on_c, 0, 55, 0
2, 70775, Note_on_c, 0, 45, 66
2, 70781, Note_on_c, 0, 57, 70
2, 70863, Note_on_c, 0, 45, 0
2, 70864, Note_on_c, 0, 57, 0
2, 70892, Note_on_c, 0, 43, 66
2, 70905, Note_on_c, 0, 59, 69
2, 70966, Note_on_c, 0, 43, 0
2, 70970, Note_on_c, 0, 59, 0
2, 70986, Note_on_c, 0, 45, 66
2, 71003, Note_on_c, 0, 61, 72
2, 71066, Note_on_c, 0, 45, 0
2, 71070, Note_on_c, 0, 61, 0
2, 71102, Note_on_c, 0, 47, 71
2, 71114, Note_on_c, 0, 62, 72
2, 71151, Control_c, 0, 64, 10
2, 71157, Note_on_c, 0, 62, 0
2, 71166, Control_c, 0, 64, 18
2, 71181, Control_c, 0, 64, 19
2, 71200, Note_on_c, 0, 47, 0
2, 71204, Control_c, 0, 64, 24
2, 71218, Note_on_c, 0, 49, 78
2, 71234, Control_c, 0, 64, 25
2, 71249, Control_c, 0, 64, 32
2, 71264, Control_c, 0, 64, 36
2, 71279, Control_c, 0, 64, 37
2, 71295, Control_c, 0, 64, 38
2, 71301, Note_on_c, 0, 49, 0
2, 71310, Control_c, 0, 64, 39
2, 71326, Control_c, 0, 64, 40
2, 71341, Note_on_c, 0, 50, 65
2, 71342, Note_on_c, 0, 59, 79
2, 71371, Control_c, 0, 64, 41
2, 71386, Control_c, 0, 64, 42
2, 71386, Control_c, 0, 67, 106
2, 71389, Note_on_c, 0, 50, 0
2, 71401, Control_c, 0, 64, 43
2, 71401, Control_c, 0, 67, 74
2, 71417, Control_c, 0, 64, 44
2, 71417, Control_c, 0, 67, 32
2, 71420, Note_on_c, 0, 59, 0
2, 71432, Control_c, 0, 64, 45
2, 71432, Control_c, 0, 67, 0
2, 71446, Note_on_c, 0, 52, 58
2, 71448, Control_c, 0, 64, 46
2, 71451, Note_on_c, 0, 61, 77
2, 71462, Control_c, 0, 64, 47
2, 71477, Control_c, 0, 64, 48
2, 71507, Control_c, 0, 64, 47
2, 71523, Control_c, 0, 64, 47
2, 71536, Note_on_c, 0, 52, 0
2, 71536, Note_on_c, 0, 61, 0
2, 71538, Control_c, 0, 64, 45
2, 71553, Control_c, 0, 64, 41
2, 71567, Note_on_c, 0, 54, 59
2, 71569, Control_c, 0, 64, 38
2, 71570, Note_on_c, 0, 62, 75
2, 71583, Control_c, 0, 64, 35
2, 71598, Control_c, 0, 64, 32
2, 71614, Control_c, 0, 64, 29
2, 71629, Control_c, 0, 64, 22
2, 71645, Control_c, 0, 64, 10
2, 71646, Note_on_c, 0, 54, 0
2, 71656, Note_on_c, 0, 62, 0
2, 71659, Control_c, 0, 64, 0
2, 71663, Note_on_c, 0, 64, 75
2, 71672, Note_on_c, 0, 55, 66
2, 71675, Control_c, 0, 64, 10
2, 71691, Control_c, 0, 64, 19
2, 71706, Control_c, 0, 64, 27
2, 71721, Control_c, 0, 64, 28
2, 71736, Control_c, 0, 64, 24
2, 71741, Note_on_c, 0, 64, 0
2, 71751, Control_c, 0, 64, 0
2, 71777, Note_on_c, 0, 55, 0
2, 71794, Note_on_c, 0, 54, 62
2, 71796, Note_on_c, 0, 66, 76
2, 71799, Note_on_c, 0, 69, 71
2, 71827, Control_c, 0, 64, 21
2, 71843, Control_c, 0, 64, 31
2, 71858, Control_c, 0, 64, 36
2, 71873, Control_c, 0, 64, 39
2, 71873, Note_on_c, 0, 69, 0
2, 71888, Control_c, 0, 64, 40
2, 71903, Control_c, 0, 64, 41
2, 71934, Control_c, 0, 64, 41
2, 71949, Control_c, 0, 64, 42
2, 71972, Control_c, 0, 64, 43
2, 71987, Control_c, 0, 64, 44
2, 72013, Note_on_c, 0, 66, 0
2, 72017, Control_c, 0, 64, 39
2, 72032, Control_c, 0, 64, 25
2, 72032, Control_c, 0, 67, 13
2, 72048, Control_c, 0, 64, 0
2, 72048, Control_c, 0, 67, 38
2, 72052, Note_on_c, 0, 54, 0
2, 72060, Note_on_c, 0, 67, 63
2, 72063, Control_c, 0, 67, 76
2, 72067, Note_on_c, 0, 59, 53
2, 72077, Note_on_c, 0, 64, 40
2, 72078, Control_c, 0, 67, 120
2, 72093, Control_c, 0, 67, 127
2, 72099, Note_on_c, 0, 59, 0
2, 72105, Note_on_c, 0, 64, 0
2, 72129, Note_on_c, 0, 67, 0
2, 72150, Note_on_c, 0, 69, 75
2, 72245, Note_on_c, 0, 69, 0
2, 72266, Note_on_c, 0, 71, 69
2, 72279, Note_on_c, 0, 63, 65
2, 72284, Note_on_c, 0, 47, 52
2, 72308, Note_on_c, 0, 63, 0
2, 72316, Note_on_c, 0, 47, 0
2, 72321, Note_on_c, 0, 71, 0
2, 72371, Note_on_c, 0, 69, 69
2, 72458, Note_on_c, 0, 69, 0
2, 72493, Note_on_c, 0, 67, 70
2, 72501, Note_on_c, 0, 64, 62
2, 72508, Note_on_c, 0, 52, 45
2, 72571, Note_on_c, 0, 67, 0
2, 72705, Note_on_c, 0, 52, 0
2, 72750, Note_on_c, 0, 66, 66
2, 72753, Note_on_c, 0, 64, 0
2, 72760, Note_on_c, 0, 62, 57
2, 72762, Note_on_c, 0, 57, 54
2, 72798, Note_on_c, 0, 62, 0
2, 72804, Note_on_c, 0, 57, 0
2, 72824, Note_on_c, 0, 66, 0
2, 72850, Note_on_c, 0, 67, 73
2, 72940, Note_on_c, 0, 67, 0
2, 72960, Note_on_c, 0, 69, 67
2, 72978, Note_on_c, 0, 45, 55
2, 72989, Note_on_c, 0, 61, 44
2, 73004, Note_on_c, 0, 45, 0
2, 73013, Note_on_c, 0, 61, 0
2, 73022, Note_on_c, 0, 69, 0
2, 73068, Note_on_c, 0, 67, 69
2, 73159, Note_on_c, 0, 67, 0
2, 73194, Control_c, 0, 64, 48
2, 73194, Note_on_c, 0, 66, 73
2, 73209, Note_on_c, 0, 50, 56
2, 73210, Control_c, 0, 64, 63
2, 73225, Control_c, 0, 64, 69
2, 73226, Note_on_c, 0, 62, 45
2, 73233, Note_on_c, 0, 50, 0
2, 73240, Control_c, 0, 64, 73
2, 73241, Note_on_c, 0, 66, 0
2, 73256, Control_c, 0, 64, 77
2, 73256, Note_on_c, 0, 62, 0
2, 73270, Control_c, 0, 64, 79
2, 73286, Control_c, 0, 64, 80
2, 73317, Control_c, 0, 64, 80
2, 73423, Control_c, 0, 64, 80
2, 73429, Note_on_c, 0, 67, 76
2, 73434, Note_on_c, 0, 61, 69
2, 73438, Control_c, 0, 64, 77
2, 73454, Control_c, 0, 64, 72
2, 73469, Control_c, 0, 64, 64
2, 73469, Note_on_c, 0, 67, 0
2, 73470, Note_on_c, 0, 52, 31
2, 73485, Control_c, 0, 64, 0
2, 73511, Note_on_c, 0, 52, 0
2, 73513, Note_on_c, 0, 61, 0
2, 73542, Note_on_c, 0, 59, 72
2, 73615, Note_on_c, 0, 59, 0
2, 73658, Note_on_c, 0, 69, 73
2, 73661, Note_on_c, 0, 54, 61
2, 73665, Note_on_c, 0, 57, 55
2, 73704, Note_on_c, 0, 69, 0
2, 73775, Note_on_c, 0, 60, 59
2, 73857, Note_on_c, 0, 60, 0
2, 73859, Note_on_c, 0, 57, 0
2, 73885, Note_on_c, 0, 74, 73
2, 73897, Note_on_c, 0, 59, 47
2, 73917, Control_c, 0, 64, 67
2, 73931, Note_on_c, 0, 74, 0
2, 73933, Control_c, 0, 64, 75
2, 73948, Control_c, 0, 64, 79
2, 73956, Note_on_c, 0, 59, 0
2, 73964, Control_c, 0, 64, 79
2, 73994, Control_c, 0, 64, 81
2, 73999, Note_on_c, 0, 60, 52
2, 74010, Control_c, 0, 64, 82
2, 74022, Note_on_c, 0, 54, 0
2, 74025, Control_c, 0, 64, 84
2, 74039, Control_c, 0, 64, 85
2, 74055, Control_c, 0, 64, 85
2, 74068, Note_on_c, 0, 60, 0
2, 74109, Note_on_c, 0, 59, 41
2, 74115, Note_on_c, 0, 66, 76
2, 74135, Note_on_c, 0, 55, 56
2, 74135, Note_on_c, 0, 59, 0
2, 74157, Note_on_c, 0, 66, 0
2, 74162, Control_c, 0, 64, 85
2, 74178, Control_c, 0, 64, 82
2, 74178, Note_on_c, 0, 64, 73
2, 74182, Note_on_c, 0, 55, 0
2, 74192, Control_c, 0, 64, 77
2, 74208, Control_c, 0, 64, 69
2, 74219, Note_on_c, 0, 64, 0
2, 74223, Control_c, 0, 64, 45
2, 74236, Note_on_c, 0, 57, 61
2, 74238, Control_c, 0, 64, 0
2, 74238, Note_on_c, 0, 66, 68
2, 74291, Note_on_c, 0, 57, 0
2, 74291, Note_on_c, 0, 66, 0
2, 74301, Note_on_c, 0, 64, 68
2, 74343, Note_on_c, 0, 64, 0
2, 74355, Note_on_c, 0, 55, 58
2, 74359, Note_on_c, 0, 66, 59
2, 74368, Note_on_c, 0, 49, 48
2, 74397, Note_on_c, 0, 49, 0
2, 74400, Note_on_c, 0, 64, 58
2, 74401, Note_on_c, 0, 66, 0
2, 74404, Note_on_c, 0, 55, 0
2, 74437, Note_on_c, 0, 64, 0
2, 74449, Note_on_c, 0, 62, 64
2, 74465, Note_on_c, 0, 59, 56
2, 74480, Note_on_c, 0, 62, 0
2, 74497, Note_on_c, 0, 64, 49
2, 74511, Note_on_c, 0, 59, 0
2, 74550, Note_on_c, 0, 66, 68
2, 74560, Note_on_c, 0, 64, 0
2, 74574, Note_on_c, 0, 57, 61
2, 74591, Note_on_c, 0, 50, 43
2, 74680, Note_on_c, 0, 57, 0
2, 74695, Note_on_c, 0, 59, 60
2, 74765, Note_on_c, 0, 59, 0
2, 74794, Note_on_c, 0, 67, 79
2, 74798, Note_on_c, 0, 66, 0
2, 74804, Note_on_c, 0, 57, 63
2, 74837, Note_on_c, 0, 67, 0
2, 74868, Note_on_c, 0, 57, 0
2, 74900, Note_on_c, 0, 55, 61
2, 75013, Note_on_c, 0, 55, 0
2, 75022, Note_on_c, 0, 69, 78
2, 75040, Note_on_c, 0, 54, 51
2, 75086, Note_on_c, 0, 69, 0
2, 75107, Note_on_c, 0, 54, 0
2, 75119, Note_on_c, 0, 57, 57
2, 75245, Note_on_c, 0, 57, 0
2, 75259, Note_on_c, 0, 71, 75
2, 75273, Note_on_c, 0, 55, 42
2, 75288, Control_c, 0, 64, 67
2, 75303, Control_c, 0, 64, 72
2, 75315, Note_on_c, 0, 71, 0
2, 75317, Control_c, 0, 64, 75
2, 75319, Note_on_c, 0, 55, 0
2, 75333, Control_c, 0, 64, 76
2, 75348, Control_c, 0, 64, 77
2, 75364, Control_c, 0, 64, 79
2, 75373, Note_on_c, 0, 57, 49
2, 75378, Control_c, 0, 64, 80
2, 75393, Control_c, 0, 64, 81
2, 75409, Control_c, 0, 64, 82
2, 75424, Control_c, 0, 64, 82
2, 75476, Note_on_c, 0, 57, 0
2, 75485, Control_c, 0, 64, 81
2, 75488, Note_on_c, 0, 55, 41
2, 75495, Note_on_c, 0, 62, 58
2, 75500, Control_c, 0, 64, 78
2, 75515, Control_c, 0, 64, 73
2, 75517, Note_on_c, 0, 62, 0
2, 75530, Control_c, 0, 64, 65
2, 75533, Note_on_c, 0, 61, 62
2, 75538, Note_on_c, 0, 55, 0
2, 75545, Control_c, 0, 64, 0
2, 75565, Note_on_c, 0, 54, 47
2, 75579, Note_on_c, 0, 61, 0
2, 75590, Note_on_c, 0, 62, 62
2, 75609, Note_on_c, 0, 50, 0
2, 75636, Note_on_c, 0, 54, 0
2, 75641, Note_on_c, 0, 62, 0
2, 75656, Note_on_c, 0, 61, 66
2, 75691, Note_on_c, 0, 52, 47
2, 75700, Note_on_c, 0, 61, 0
2, 75714, Note_on_c, 0, 62, 63
2, 75770, Note_on_c, 0, 61, 61
2, 75771, Note_on_c, 0, 62, 0
2, 75813, Note_on_c, 0, 52, 0
2, 75818, Note_on_c, 0, 61, 0
2, 75820, Note_on_c, 0, 55, 53
2, 75831, Note_on_c, 0, 59, 63
2, 75875, Note_on_c, 0, 61, 70
2, 75878, Note_on_c, 0, 59, 0
2, 75905, Note_on_c, 0, 61, 0
2, 75915, Note_on_c, 0, 55, 0
2, 75932, Note_on_c, 0, 62, 74
2, 75942, Note_on_c, 0, 54, 47
2, 75970, Note_on_c, 0, 62, 0
2, 76024, Note_on_c, 0, 54, 0
2, 76049, Note_on_c, 0, 55, 53
2, 76156, Note_on_c, 0, 55, 0
2, 76156, Note_on_c, 0, 62, 69
2, 76161, Note_on_c, 0, 54, 52
2, 76230, Note_on_c, 0, 62, 0
2, 76252, Note_on_c, 0, 54, 0
2, 76263, Note_on_c, 0, 52, 57
2, 76265, Note_on_c, 0, 64, 73
2, 76343, Note_on_c, 0, 64, 0
2, 76353, Note_on_c, 0, 52, 0
2, 76377, Note_on_c, 0, 50, 64
2, 76377, Note_on_c, 0, 66, 72
2, 76449, Note_on_c, 0, 66, 0
2, 76473, Note_on_c, 0, 52, 69
2, 76476, Note_on_c, 0, 67, 75
2, 76478, Note_on_c, 0, 50, 0
2, 76539, Note_on_c, 0, 67, 0
2, 76596, Note_on_c, 0, 52, 0
2, 76599, Note_on_c, 0, 54, 70
2, 76599, Note_on_c, 0, 69, 73
2, 76644, Note_on_c, 0, 69, 0
2, 76678, Note_on_c, 0, 54, 0
2, 76697, Note_on_c, 0, 55, 76
2, 76732, Control_c, 0, 67, 106
2, 76747, Control_c, 0, 67, 69
2, 76762, Control_c, 0, 67, 27
2, 76778, Control_c, 0, 67, 0
2, 76787, Note_on_c, 0, 55, 0
2, 76819, Note_on_c, 0, 66, 77
2, 76824, Note_on_c, 0, 57, 63
2, 76869, Note_on_c, 0, 57, 0
2, 76890, Note_on_c, 0, 66, 0
2, 76918, Note_on_c, 0, 67, 75
2, 76920, Note_on_c, 0, 59, 69
2, 76976, Note_on_c, 0, 59, 0
2, 76995, Note_on_c, 0, 67, 0
2, 77028, Note_on_c, 0, 60, 71
2, 77037, Note_on_c, 0, 69, 76
2, 77065, Note_on_c, 0, 60, 0
2, 77102, Note_on_c, 0, 69, 0
2, 77121, Note_on_c, 0, 62, 67
2, 77137, Note_on_c, 0, 71, 73
2, 77201, Note_on_c, 0, 62, 0
2, 77211, Note_on_c, 0, 71, 0
2, 77254, Note_on_c, 0, 72, 82
2, 77266, Note_on_c, 0, 54, 65
2, 77269, Note_on_c, 0, 50, 62
2, 77290, Note_on_c, 0, 72, 0
2, 77464, Note_on_c, 0, 50, 0
2, 77473, Note_on_c, 0, 48, 45
2, 77507, Note_on_c, 0, 69, 78
2, 77533, Note_on_c, 0, 69, 0
2, 77593, Note_on_c, 0, 48, 0
2, 77594, Note_on_c, 0, 50, 65
2, 77659, Note_on_c, 0, 54, 0
2, 77718, Note_on_c, 0, 50, 0
2, 77721, Note_on_c, 0, 71, 85
2, 77724, Note_on_c, 0, 52, 68
2, 77734, Note_on_c, 0, 67, 71
2, 77825, Note_on_c, 0, 52, 0
2, 77834, Note_on_c, 0, 50, 72
2, 77930, Note_on_c, 0, 71, 0
2, 77932, Note_on_c, 0, 50, 0
2, 77950, Note_on_c, 0, 67, 0
2, 77953, Note_on_c, 0, 48, 77
2, 77962, Note_on_c, 0, 69, 73
2, 78002, Control_c, 0, 64, 60
2, 78018, Control_c, 0, 64, 67
2, 78032, Control_c, 0, 64, 70
2, 78036, Note_on_c, 0, 48, 0
2, 78048, Control_c, 0, 64, 71
2, 78063, Control_c, 0, 64, 72
2, 78078, Control_c, 0, 64, 73
2, 78094, Control_c, 0, 64, 74
2, 78115, Control_c, 0, 64, 74
2, 78131, Control_c, 0, 64, 75
2, 78183, Note_on_c, 0, 69, 0
2, 78192, Control_c, 0, 64, 74
2, 78198, Note_on_c, 0, 67, 72
2, 78201, Note_on_c, 0, 47, 78
2, 78208, Control_c, 0, 64, 73
2, 78223, Control_c, 0, 64, 71
2, 78238, Control_c, 0, 64, 67
2, 78254, Control_c, 0, 64, 61
2, 78268, Control_c, 0, 64, 42
2, 78284, Control_c, 0, 64, 0
2, 78304, Note_on_c, 0, 48, 78
2, 78310, Note_on_c, 0, 47, 0
2, 78372, Note_on_c, 0, 67, 0
2, 78402, Note_on_c, 0, 48, 0
2, 78414, Note_on_c, 0, 66, 77
2, 78421, Note_on_c, 0, 50, 78
2, 78451, Note_on_c, 0, 66, 0
2, 78492, Note_on_c, 0, 50, 0
2, 78514, Note_on_c, 0, 48, 82
2, 78605, Note_on_c, 0, 48, 0
2, 78639, Note_on_c, 0, 47, 82
2, 78655, Note_on_c, 0, 67, 62
2, 78716, Note_on_c, 0, 67, 0
2, 78757, Note_on_c, 0, 79, 68
2, 78836, Note_on_c, 0, 79, 0
2, 78880, Note_on_c, 0, 48, 82
2, 78881, Note_on_c, 0, 78, 68
2, 78893, Note_on_c, 0, 47, 0
2, 78937, Note_on_c, 0, 48, 0
2, 78964, Note_on_c, 0, 78, 0
2, 78992, Note_on_c, 0, 76, 65
2, 79109, Note_on_c, 0, 50, 79
2, 79109, Note_on_c, 0, 74, 68
2, 79149, Note_on_c, 0, 50, 0
2, 79156, Note_on_c, 0, 76, 0
2, 79185, Note_on_c, 0, 74, 0
2, 79208, Note_on_c, 0, 78, 70
2, 79299, Note_on_c, 0, 78, 0
2, 79336, Note_on_c, 0, 55, 79
2, 79336, Note_on_c, 0, 76, 64
2, 79370, Control_c, 0, 67, 12
2, 79384, Control_c, 0, 67, 22
2, 79399, Control_c, 0, 67, 40
2, 79415, Control_c, 0, 67, 65
2, 79423, Note_on_c, 0, 76, 0
2, 79430, Control_c, 0, 67, 85
2, 79446, Control_c, 0, 67, 102
2, 79450, Note_on_c, 0, 78, 63
2, 79461, Control_c, 0, 67, 116
2, 79476, Control_c, 0, 67, 127
2, 79551, Note_on_c, 0, 78, 0
2, 79583, Note_on_c, 0, 45, 71
2, 79590, Note_on_c, 0, 76, 52
2, 79612, Note_on_c, 0, 55, 0
2, 79680, Note_on_c, 0, 76, 0
2, 79717, Note_on_c, 0, 74, 57
2, 79797, Note_on_c, 0, 74, 0
2, 79847, Note_on_c, 0, 72, 56
2, 79892, Note_on_c, 0, 72, 0
2, 79948, Note_on_c, 0, 76, 59
2, 80062, Note_on_c, 0, 47, 69
2, 80065, Note_on_c, 0, 45, 0
2, 80071, Note_on_c, 0, 76, 0
2, 80072, Note_on_c, 0, 74, 60
2, 80154, Note_on_c, 0, 74, 0
2, 80188, Note_on_c, 0, 76, 61
2, 80268, Note_on_c, 0, 47, 0
2, 80282, Note_on_c, 0, 76, 0
2, 80307, Note_on_c, 0, 48, 61
2, 80312, Note_on_c, 0, 74, 55
2, 80352, Note_on_c, 0, 48, 0
2, 80384, Note_on_c, 0, 74, 0
2, 80423, Note_on_c, 0, 72, 62
2, 80473, Note_on_c, 0, 72, 0
2, 80539, Note_on_c, 0, 50, 69
2, 80544, Note_on_c, 0, 71, 53
2, 80573, Note_on_c, 0, 50, 0
2, 80583, Note_on_c, 0, 71, 0
2, 80644, Note_on_c, 0, 74, 58
2, 80741, Note_on_c, 0, 74, 0
2, 80767, Note_on_c, 0, 72, 61
2, 80770, Note_on_c, 0, 52, 68
2, 80846, Note_on_c, 0, 72, 0
2, 80882, Note_on_c, 0, 74, 59
2, 80989, Note_on_c, 0, 74, 0
2, 80991, Note_on_c, 0, 42, 61
2, 81014, Note_on_c, 0, 72, 56
2, 81048, Note_on_c, 0, 52, 0
2, 81093, Note_on_c, 0, 72, 0
2, 81120, Note_on_c, 0, 71, 57
2, 81188, Note_on_c, 0, 71, 0
2, 81252, Note_on_c, 0, 69, 54
2, 81293, Note_on_c, 0, 69, 0
2, 81357, Note_on_c, 0, 72, 61
2, 81429, Note_on_c, 0, 42, 0
2, 81452, Note_on_c, 0, 72, 0
2, 81476, Note_on_c, 0, 43, 69
2, 81479, Note_on_c, 0, 71, 69
2, 81574, Note_on_c, 0, 71, 0
2, 81577, Note_on_c, 0, 43, 0
2, 81587, Note_on_c, 0, 45, 71
2, 81587, Note_on_c, 0, 69, 72
2, 81652, Note_on_c, 0, 69, 0
2, 81687, Note_on_c, 0, 45, 0
2, 81703, Note_on_c, 0, 67, 66
2, 81705, Note_on_c, 0, 47, 77
2, 81746, Note_on_c, 0, 67, 0
2, 81818, Note_on_c, 0, 71, 63
2, 81865, Note_on_c, 0, 71, 0
2, 81929, Note_on_c, 0, 66, 75
2, 81953, Note_on_c, 0, 62, 59
2, 81978, Note_on_c, 0, 62, 0
2, 81982, Note_on_c, 0, 66, 0
2, 82052, Note_on_c, 0, 71, 65
2, 82082, Note_on_c, 0, 71, 0
2, 82167, Note_on_c, 0, 64, 74
2, 82184, Note_on_c, 0, 61, 53
2, 82215, Note_on_c, 0, 61, 0
2, 82227, Control_c, 0, 64, 34
2, 82242, Control_c, 0, 64, 44
2, 82257, Control_c, 0, 64, 45
2, 82272, Control_c, 0, 64, 45
2, 82278, Note_on_c, 0, 71, 68
2, 82282, Note_on_c, 0, 45, 56
2, 82287, Control_c, 0, 64, 46
2, 82293, Note_on_c, 0, 47, 0
2, 82302, Control_c, 0, 64, 47
2, 82317, Control_c, 0, 64, 47
2, 82335, Control_c, 0, 64, 47
2, 82349, Control_c, 0, 64, 46
2, 82357, Note_on_c, 0, 64, 0
2, 82364, Control_c, 0, 64, 45
2, 82364, Note_on_c, 0, 71, 0
2, 82365, Note_on_c, 0, 45, 0
2, 82380, Control_c, 0, 64, 43
2, 82388, Note_on_c, 0, 43, 58
2, 82393, Note_on_c, 0, 62, 73
2, 82395, Control_c, 0, 64, 39
2, 82409, Control_c, 0, 64, 32
2, 82425, Control_c, 0, 64, 18
2, 82433, Note_on_c, 0, 62, 0
2, 82440, Control_c, 0, 64, 0
2, 82443, Note_on_c, 0, 43, 0
2, 82499, Note_on_c, 0, 71, 65
2, 82500, Note_on_c, 0, 42, 64
2, 82539, Note_on_c, 0, 71, 0
2, 82550, Note_on_c, 0, 42, 0
2, 82605, Note_on_c, 0, 40, 60
2, 82607, Control_c, 0, 64, 10
2, 82617, Note_on_c, 0, 61, 68
2, 82623, Control_c, 0, 64, 13
2, 82638, Control_c, 0, 64, 18
2, 82654, Control_c, 0, 64, 19
2, 82664, Note_on_c, 0, 61, 0
2, 82669, Control_c, 0, 64, 22
2, 82673, Note_on_c, 0, 40, 0
2, 82683, Control_c, 0, 64, 26
2, 82699, Control_c, 0, 64, 28
2, 82725, Note_on_c, 0, 43, 64
2, 82736, Note_on_c, 0, 71, 62
2, 82777, Note_on_c, 0, 43, 0
2, 82782, Control_c, 0, 64, 29
2, 82784, Note_on_c, 0, 71, 0
2, 82797, Control_c, 0, 64, 30
2, 82829, Note_on_c, 0, 42, 68
2, 82847, Note_on_c, 0, 69, 67
2, 82898, Note_on_c, 0, 42, 0
2, 82904, Control_c, 0, 64, 31
2, 82913, Note_on_c, 0, 69, 0
2, 82933, Note_on_c, 0, 43, 65
2, 82935, Control_c, 0, 64, 32
2, 82948, Note_on_c, 0, 67, 70
2, 82980, Control_c, 0, 64, 32
2, 83017, Note_on_c, 0, 67, 0
2, 83038, Note_on_c, 0, 43, 0
2, 83040, Control_c, 0, 64, 33
2, 83062, Note_on_c, 0, 66, 73
2, 83064, Note_on_c, 0, 45, 65
2, 83086, Control_c, 0, 64, 34
2, 83115, Control_c, 0, 64, 34
2, 83131, Control_c, 0, 64, 35
2, 83133, Note_on_c, 0, 66, 0
2, 83169, Note_on_c, 0, 69, 63
2, 83192, Control_c, 0, 64, 36
2, 83216, Note_on_c, 0, 69, 0
2, 83223, Control_c, 0, 64, 36
2, 83284, Note_on_c, 0, 64, 72
2, 83308, Note_on_c, 0, 61, 50
2, 83329, Note_on_c, 0, 61, 0
2, 83350, Note_on_c, 0, 64, 0
2, 83375, Control_c, 0, 64, 36
2, 83402, Note_on_c, 0, 69, 59
2, 83436, Control_c, 0, 64, 35
2, 83439, Note_on_c, 0, 69, 0
2, 83533, Note_on_c, 0, 62, 64
2, 83549, Control_c, 0, 64, 36
2, 83557, Note_on_c, 0, 59, 31
2, 83595, Control_c, 0, 64, 36
2, 83611, Control_c, 0, 64, 37
2, 83640, Note_on_c, 0, 62, 0
2, 83641, Control_c, 0, 64, 38
2, 83644, Note_on_c, 0, 69, 62
2, 83647, Note_on_c, 0, 43, 50
2, 83653, Note_on_c, 0, 45, 0
2, 83671, Control_c, 0, 64, 38
2, 83702, Control_c, 0, 64, 39
2, 83720, Note_on_c, 0, 43, 0
2, 83732, Control_c, 0, 64, 39
2, 83743, Note_on_c, 0, 42, 56
2, 83751, Note_on_c, 0, 69, 0
2, 83763, Note_on_c, 0, 61, 67
2, 83794, Note_on_c, 0, 59, 0
2, 83803, Note_on_c, 0, 42, 0
2, 83822, Note_on_c, 0, 61, 0
2, 83854, Control_c, 0, 64, 40
2, 83859, Note_on_c, 0, 40, 56
2, 83867, Note_on_c, 0, 69, 60
2, 83905, Note_on_c, 0, 69, 0
2, 83908, Note_on_c, 0, 40, 0
2, 83914, Control_c, 0, 64, 40
2, 83954, Note_on_c, 0, 38, 61
2, 83978, Note_on_c, 0, 59, 55
2, 84007, Control_c, 0, 64, 41
2, 84019, Note_on_c, 0, 59, 0
2, 84030, Note_on_c, 0, 38, 0
2, 84081, Note_on_c, 0, 69, 59
2, 84087, Note_on_c, 0, 42, 52
2, 84121, Note_on_c, 0, 69, 0
2, 84148, Note_on_c, 0, 42, 0
2, 84159, Control_c, 0, 64, 41
2, 84196, Note_on_c, 0, 40, 66
2, 84202, Note_on_c, 0, 67, 63
2, 84219, Control_c, 0, 64, 42
2, 84234, Control_c, 0, 64, 42
2, 84258, Control_c, 0, 64, 43
2, 84270, Note_on_c, 0, 67, 0
2, 84280, Note_on_c, 0, 40, 0
2, 84288, Control_c, 0, 64, 43
2, 84301, Note_on_c, 0, 42, 65
2, 84317, Note_on_c, 0, 66, 67
2, 84348, Control_c, 0, 64, 44
2, 84387, Note_on_c, 0, 66, 0
2, 84407, Note_on_c, 0, 42, 0
2, 84428, Note_on_c, 0, 43, 68
2, 84431, Note_on_c, 0, 64, 64
2, 84439, Control_c, 0, 64, 44
2, 84470, Control_c, 0, 64, 45
2, 84475, Note_on_c, 0, 64, 0
2, 84543, Note_on_c, 0, 67, 62
2, 84587, Note_on_c, 0, 67, 0
2, 84659, Note_on_c, 0, 62, 60
2, 84697, Note_on_c, 0, 62, 0
2, 84767, Note_on_c, 0, 67, 56
2, 84805, Note_on_c, 0, 67, 0
2, 84852, Control_c, 0, 64, 46
2, 84866, Control_c, 0, 64, 51
2, 84881, Control_c, 0, 64, 54
2, 84885, Note_on_c, 0, 61, 64
2, 84897, Control_c, 0, 64, 57
2, 84912, Control_c, 0, 64, 59
2, 84916, Note_on_c, 0, 57, 31
2, 84927, Control_c, 0, 64, 61
2, 84942, Control_c, 0, 64, 63
2, 84953, Note_on_c, 0, 57, 0
2, 84957, Control_c, 0, 64, 64
2, 84964, Note_on_c, 0, 43, 0
2, 84973, Control_c, 0, 64, 64
2, 84985, Note_on_c, 0, 42, 57
2, 84987, Control_c, 0, 64, 65
2, 84991, Note_on_c, 0, 67, 63
2, 85004, Note_on_c, 0, 61, 0
2, 85058, Note_on_c, 0, 42, 0
2, 85059, Note_on_c, 0, 67, 0
2, 85071, Control_c, 0, 64, 64
2, 85086, Control_c, 0, 64, 63
2, 85102, Control_c, 0, 64, 60
2, 85117, Control_c, 0, 64, 51
2, 85118, Note_on_c, 0, 59, 62
2, 85120, Note_on_c, 0, 40, 56
2, 85133, Control_c, 0, 64, 22
2, 85147, Control_c, 0, 64, 0
2, 85168, Note_on_c, 0, 59, 0
2, 85177, Note_on_c, 0, 40, 0
2, 85231, Note_on_c, 0, 67, 57
2, 85233, Note_on_c, 0, 38, 45
2, 85267, Note_on_c, 0, 38, 0
2, 85271, Note_on_c, 0, 67, 0
2, 85326, Note_on_c, 0, 37, 57
2, 85336, Note_on_c, 0, 57, 61
2, 85368, Note_on_c, 0, 37, 0
2, 85381, Note_on_c, 0, 57, 0
2, 85433, Control_c, 0, 64, 47
2, 85439, Note_on_c, 0, 67, 65
2, 85442, Note_on_c, 0, 40, 47
2, 85448, Control_c, 0, 64, 60
2, 85464, Control_c, 0, 64, 64
2, 85476, Note_on_c, 0, 40, 0
2, 85477, Note_on_c, 0, 67, 0
2, 85479, Control_c, 0, 64, 65
2, 85494, Control_c, 0, 64, 66
2, 85510, Control_c, 0, 64, 67
2, 85525, Control_c, 0, 64, 67
2, 85544, Note_on_c, 0, 38, 52
2, 85548, Note_on_c, 0, 66, 73
2, 85570, Control_c, 0, 64, 67
2, 85576, Note_on_c, 0, 66, 0
2, 85586, Control_c, 0, 64, 65
2, 85601, Control_c, 0, 64, 63
2, 85608, Note_on_c, 0, 38, 0
2, 85616, Control_c, 0, 64, 56
2, 85632, Control_c, 0, 64, 34
2, 85647, Control_c, 0, 64, 0
2, 85660, Note_on_c, 0, 40, 56
2, 85660, Note_on_c, 0, 74, 58
2, 85706, Note_on_c, 0, 40, 0
2, 85709, Note_on_c, 0, 74, 0
2, 85759, Note_on_c, 0, 42, 64
2, 85769, Note_on_c, 0, 72, 64
2, 85820, Note_on_c, 0, 42, 0
2, 85834, Note_on_c, 0, 72, 0
2, 85875, Note_on_c, 0, 38, 54
2, 85883, Note_on_c, 0, 71, 65
2, 85913, Note_on_c, 0, 38, 0
2, 85931, Note_on_c, 0, 71, 0
2, 85984, Note_on_c, 0, 43, 70
2, 85995, Note_on_c, 0, 69, 65
2, 86029, Note_on_c, 0, 43, 0
2, 86034, Note_on_c, 0, 69, 0
2, 86083, Note_on_c, 0, 38, 63
2, 86091, Note_on_c, 0, 67, 67
2, 86127, Note_on_c, 0, 38, 0
2, 86133, Note_on_c, 0, 67, 0
2, 86201, Note_on_c, 0, 45, 77
2, 86201, Note_on_c, 0, 66, 69
2, 86276, Note_on_c, 0, 66, 0
2, 86314, Note_on_c, 0, 64, 63
2, 86326, Note_on_c, 0, 38, 43
2, 86372, Note_on_c, 0, 38, 0
2, 86379, Note_on_c, 0, 64, 0
2, 86393, Note_on_c, 0, 45, 0
2, 86431, Note_on_c, 0, 47, 63
2, 86435, Note_on_c, 0, 62, 70
2, 86477, Note_on_c, 0, 62, 0
2, 86482, Note_on_c, 0, 47, 0
2, 86544, Note_on_c, 0, 60, 66
2, 86552, Note_on_c, 0, 38, 57
2, 86581, Note_on_c, 0, 60, 0
2, 86601, Note_on_c, 0, 38, 0
2, 86660, Note_on_c, 0, 59, 73
2, 86670, Note_on_c, 0, 48, 60
2, 86703, Note_on_c, 0, 59, 0
2, 86706, Note_on_c, 0, 48, 0
2, 86762, Note_on_c, 0, 57, 74
2, 86776, Note_on_c, 0, 38, 52
2, 86815, Note_on_c, 0, 57, 0
2, 86828, Note_on_c, 0, 38, 0
2, 86833, Control_c, 0, 64, 56
2, 86848, Control_c, 0, 64, 64
2, 86864, Control_c, 0, 64, 66
2, 86879, Control_c, 0, 64, 67
2, 86882, Note_on_c, 0, 55, 69
2, 86888, Note_on_c, 0, 47, 62
2, 86893, Control_c, 0, 64, 68
2, 86909, Control_c, 0, 64, 70
2, 86918, Note_on_c, 0, 47, 0
2, 86924, Control_c, 0, 64, 72
2, 86928, Note_on_c, 0, 55, 0
2, 86940, Control_c, 0, 64, 74
2, 86955, Control_c, 0, 64, 75
2, 86986, Note_on_c, 0, 57, 72
2, 86998, Note_on_c, 0, 55, 56
2, 87044, Note_on_c, 0, 57, 0
2, 87055, Note_on_c, 0, 55, 0
2, 87090, Control_c, 0, 64, 73
2, 87105, Note_on_c, 0, 59, 79
2, 87106, Control_c, 0, 64, 69
2, 87115, Note_on_c, 0, 53, 61
2, 87121, Control_c, 0, 64, 59
2, 87136, Control_c, 0, 64, 0
2, 87158, Note_on_c, 0, 53, 0
2, 87172, Note_on_c, 0, 59, 0
2, 87218, Note_on_c, 0, 52, 69
2, 87219, Note_on_c, 0, 55, 76
2, 87271, Note_on_c, 0, 52, 0
2, 87275, Note_on_c, 0, 55, 0
2, 87335, Note_on_c, 0, 50, 68
2, 87342, Note_on_c, 0, 60, 82
2, 87387, Note_on_c, 0, 50, 0
2, 87403, Control_c, 0, 64, 47
2, 87419, Control_c, 0, 64, 61
2, 87424, Note_on_c, 0, 60, 0
2, 87434, Control_c, 0, 64, 62
2, 87445, Note_on_c, 0, 48, 69
2, 87452, Note_on_c, 0, 55, 69
2, 87464, Control_c, 0, 64, 63
2, 87496, Note_on_c, 0, 48, 0
2, 87506, Note_on_c, 0, 55, 0
2, 87524, Control_c, 0, 64, 61
2, 87540, Control_c, 0, 64, 45
2, 87555, Control_c, 0, 64, 0
2, 87564, Note_on_c, 0, 47, 72
2, 87567, Note_on_c, 0, 62, 83
2, 87616, Control_c, 0, 64, 19
2, 87632, Control_c, 0, 64, 65
2, 87647, Control_c, 0, 64, 72
2, 87648, Note_on_c, 0, 47, 0
2, 87656, Note_on_c, 0, 62, 0
2, 87662, Control_c, 0, 64, 77
2, 87673, Note_on_c, 0, 45, 68
2, 87677, Control_c, 0, 64, 79
2, 87680, Note_on_c, 0, 55, 71
2, 87692, Control_c, 0, 64, 79
2, 87708, Control_c, 0, 64, 80
2, 87729, Note_on_c, 0, 45, 0
2, 87752, Note_on_c, 0, 55, 0
2, 87753, Control_c, 0, 67, 111
2, 87768, Control_c, 0, 67, 87
2, 87784, Control_c, 0, 64, 79
2, 87784, Control_c, 0, 67, 59
2, 87799, Control_c, 0, 64, 75
2, 87799, Control_c, 0, 67, 29
2, 87803, Note_on_c, 0, 43, 59
2, 87806, Note_on_c, 0, 64, 70
2, 87813, Control_c, 0, 64, 68
2, 87813, Control_c, 0, 67, 0
2, 87829, Control_c, 0, 64, 30
2, 87844, Control_c, 0, 64, 0
2, 87850, Note_on_c, 0, 43, 0
2, 87860, Note_on_c, 0, 64, 0
2, 87918, Note_on_c, 0, 41, 69
2, 87918, Note_on_c, 0, 55, 63
2, 87953, Note_on_c, 0, 41, 0
2, 88021, Note_on_c, 0, 40, 75
2, 88024, Note_on_c, 0, 55, 0
2, 88029, Note_on_c, 0, 65, 67
2, 88069, Note_on_c, 0, 40, 0
2, 88086, Note_on_c, 0, 65, 0
2, 88133, Note_on_c, 0, 38, 70
2, 88145, Note_on_c, 0, 55, 62
2, 88178, Note_on_c, 0, 55, 0
2, 88185, Note_on_c, 0, 38, 0
2, 88254, Note_on_c, 0, 36, 68
2, 88259, Note_on_c, 0, 64, 66
2, 88280, Note_on_c, 0, 64, 0
2, 88292, Control_c, 0, 64, 41
2, 88308, Control_c, 0, 64, 36
2, 88319, Note_on_c, 0, 36, 0
2, 88339, Control_c, 0, 64, 39
2, 88354, Control_c, 0, 64, 41
2, 88360, Note_on_c, 0, 38, 69
2, 88368, Note_on_c, 0, 72, 73
2, 88384, Control_c, 0, 64, 40
2, 88405, Note_on_c, 0, 38, 0
2, 88423, Note_on_c, 0, 72, 0
2, 88467, Note_on_c, 0, 40, 66
2, 88478, Note_on_c, 0, 71, 78
2, 88490, Control_c, 0, 64, 39
2, 88506, Control_c, 0, 64, 36
2, 88509, Note_on_c, 0, 40, 0
2, 88521, Control_c, 0, 64, 32
2, 88536, Control_c, 0, 64, 28
2, 88543, Note_on_c, 0, 71, 0
2, 88552, Control_c, 0, 64, 25
2, 88567, Control_c, 0, 64, 21
2, 88576, Note_on_c, 0, 42, 66
2, 88582, Control_c, 0, 64, 0
2, 88583, Note_on_c, 0, 74, 79
2, 88645, Note_on_c, 0, 74, 0
2, 88646, Note_on_c, 0, 42, 0
2, 88680, Note_on_c, 0, 44, 76
2, 88699, Note_on_c, 0, 69, 85
2, 88750, Note_on_c, 0, 44, 0
2, 88755, Note_on_c, 0, 69, 0
2, 88790, Note_on_c, 0, 45, 74
2, 88804, Note_on_c, 0, 74, 77
2, 88830, Note_on_c, 0, 45, 0
2, 88878, Note_on_c, 0, 74, 0
2, 88919, Note_on_c, 0, 47, 81
2, 88931, Note_on_c, 0, 68, 89
2, 88955, Control_c, 0, 64, 62
2, 88970, Control_c, 0, 64, 64
2, 89015, Control_c, 0, 64, 65
2, 89031, Control_c, 0, 64, 65
2, 89037, Note_on_c, 0, 47, 0
2, 89039, Note_on_c, 0, 68, 0
2, 89041, Note_on_c, 0, 74, 71
2, 89045, Note_on_c, 0, 48, 71
2, 89046, Control_c, 0, 64, 66
2, 89110, Note_on_c, 0, 74, 0
2, 89111, Note_on_c, 0, 48, 0
2, 89136, Control_c, 0, 64, 63
2, 89151, Note_on_c, 0, 50, 73
2, 89152, Control_c, 0, 64, 54
2, 89158, Note_on_c, 0, 66, 80
2, 89167, Control_c, 0, 64, 0
2, 89211, Note_on_c, 0, 50, 0
2, 89228, Note_on_c, 0, 66, 0
2, 89261, Note_on_c, 0, 52, 73
2, 89264, Note_on_c, 0, 74, 71
2, 89304, Note_on_c, 0, 52, 0
2, 89342, Note_on_c, 0, 74, 0
2, 89368, Note_on_c, 0, 64, 76
2, 89373, Note_on_c, 0, 54, 77
2, 89427, Note_on_c, 0, 54, 0
2, 89429, Note_on_c, 0, 64, 0
2, 89469, Note_on_c, 0, 56, 77
2, 89471, Note_on_c, 0, 74, 73
2, 89512, Note_on_c, 0, 56, 0
2, 89545, Note_on_c, 0, 74, 0
2, 89588, Note_on_c, 0, 57, 79
2, 89593, Note_on_c, 0, 72, 82
2, 89631, Control_c, 0, 64, 63
2, 89646, Control_c, 0, 64, 66
2, 89662, Control_c, 0, 64, 67
2, 89665, Note_on_c, 0, 72, 0
2, 89684, Note_on_c, 0, 57, 0
2, 89704, Note_on_c, 0, 55, 74
2, 89705, Note_on_c, 0, 69, 82
2, 89751, Note_on_c, 0, 55, 0
2, 89770, Note_on_c, 0, 69, 0
2, 89799, Control_c, 0, 64, 64
2, 89814, Control_c, 0, 64, 56
2, 89814, Note_on_c, 0, 54, 72
2, 89822, Note_on_c, 0, 71, 81
2, 89830, Control_c, 0, 64, 0
2, 89872, Note_on_c, 0, 71, 0
2, 89883, Note_on_c, 0, 54, 0
2, 89919, Note_on_c, 0, 57, 76
2, 89930, Note_on_c, 0, 73, 75
2, 89978, Note_on_c, 0, 57, 0
2, 89996, Note_on_c, 0, 73, 0
2, 90037, Note_on_c, 0, 52, 86
2, 90038, Note_on_c, 0, 75, 78
2, 90094, Note_on_c, 0, 75, 0
2, 90105, Note_on_c, 0, 52, 0
2, 90141, Note_on_c, 0, 57, 74
2, 90142, Note_on_c, 0, 76, 75
2, 90198, Note_on_c, 0, 76, 0
2, 90211, Note_on_c, 0, 57, 0
2, 90253, Note_on_c, 0, 51, 84
2, 90265, Note_on_c, 0, 78, 87
2, 90329, Note_on_c, 0, 78, 0
2, 90369, Note_on_c, 0, 79, 78
2, 90383, Note_on_c, 0, 57, 70
2, 90438, Note_on_c, 0, 79, 0
2, 90468, Note_on_c, 0, 57, 0
2, 90493, Note_on_c, 0, 81, 87
2, 90500, Note_on_c, 0, 49, 74
2, 90517, Note_on_c, 0, 51, 0
2, 90547, Note_on_c, 0, 81, 0
2, 90585, Note_on_c, 0, 49, 0
2, 90601, Note_on_c, 0, 83, 83
2, 90609, Note_on_c, 0, 57, 67
2, 90659, Note_on_c, 0, 83, 0
2, 90693, Note_on_c, 0, 57, 0
2, 90710, Note_on_c, 0, 84, 81
2, 90711, Note_on_c, 0, 47, 83
2, 90753, Note_on_c, 0, 84, 0
2, 90818, Note_on_c, 0, 75, 82
2, 90830, Note_on_c, 0, 47, 0
2, 90831, Note_on_c, 0, 57, 77
2, 90869, Note_on_c, 0, 75, 0
2, 90909, Note_on_c, 0, 57, 0
2, 90964, Note_on_c, 0, 55, 82
2, 90966, Note_on_c, 0, 76, 98
2, 90978, Control_c, 0, 64, 65
2, 90987, Note_on_c, 0, 55, 0
2, 90993, Control_c, 0, 64, 80
2, 91008, Control_c, 0, 64, 87
2, 91023, Control_c, 0, 64, 88
2, 91038, Control_c, 0, 64, 89
2, 91040, Note_on_c, 0, 76, 0
2, 91198, Control_c, 0, 64, 88
2, 91213, Control_c, 0, 64, 81
2, 91229, Control_c, 0, 64, 66
2, 91234, Note_on_c, 0, 78, 87
2, 91241, Note_on_c, 0, 60, 68
2, 91243, Control_c, 0, 64, 0
2, 91291, Note_on_c, 0, 60, 0
2, 91323, Note_on_c, 0, 76, 88
2, 91326, Note_on_c, 0, 78, 0
2, 91383, Note_on_c, 0, 76, 0
2, 91444, Note_on_c, 0, 59, 62
2, 91444, Note_on_c, 0, 75, 88
2, 91475, Note_on_c, 0, 59, 0
2, 91493, Note_on_c, 0, 75, 0
2, 91535, Note_on_c, 0, 76, 89
2, 91582, Note_on_c, 0, 76, 0
2, 91661, Note_on_c, 0, 57, 81
2, 91667, Note_on_c, 0, 78, 100
2, 91714, Control_c, 0, 64, 66
2, 91728, Control_c, 0, 64, 70
2, 91744, Control_c, 0, 64, 69
2, 91744, Note_on_c, 0, 78, 0
2, 91759, Control_c, 0, 64, 68
2, 91821, Control_c, 0, 64, 68
2, 91866, Control_c, 0, 64, 67
2, 91881, Control_c, 0, 64, 59
2, 91888, Note_on_c, 0, 57, 0
2, 91896, Control_c, 0, 64, 0
2, 91905, Note_on_c, 0, 79, 85
2, 91912, Note_on_c, 0, 59, 60
2, 91962, Note_on_c, 0, 59, 0
2, 92006, Note_on_c, 0, 78, 87
2, 92015, Note_on_c, 0, 79, 0
2, 92077, Note_on_c, 0, 78, 0
2, 92117, Note_on_c, 0, 76, 88
2, 92129, Note_on_c, 0, 47, 69
2, 92162, Note_on_c, 0, 47, 0
2, 92169, Note_on_c, 0, 76, 0
2, 92219, Note_on_c, 0, 78, 92
2, 92310, Note_on_c, 0, 78, 0
2, 92342, Note_on_c, 0, 79, 90
2, 92347, Note_on_c, 0, 52, 74
2, 92449, Note_on_c, 0, 52, 0
2, 92453, Note_on_c, 0, 54, 69
2, 92525, Note_on_c, 0, 54, 0
2, 92541, Note_on_c, 0, 79, 0
2, 92568, Note_on_c, 0, 55, 64
2, 92568, Note_on_c, 0, 78, 91
2, 92613, Note_on_c, 0, 78, 0
2, 92641, Note_on_c, 0, 55, 0
2, 92672, Note_on_c, 0, 52, 64
2, 92792, Note_on_c, 0, 52, 0
2, 92795, Note_on_c, 0, 76, 88
2, 92800, Note_on_c, 0, 57, 75
2, 92840, Note_on_c, 0, 76, 0
2, 92902, Note_on_c, 0, 57, 0
2, 92905, Note_on_c, 0, 52, 67
2, 93000, Note_on_c, 0, 52, 0
2, 93024, Note_on_c, 0, 59, 78
2, 93024, Note_on_c, 0, 71, 90
2, 93070, Control_c, 0, 64, 78
2, 93084, Note_on_c, 0, 71, 0
2, 93085, Control_c, 0, 64, 92
2, 93101, Control_c, 0, 64, 99
2, 93102, Note_on_c, 0, 59, 0
2, 93116, Control_c, 0, 64, 99
2, 93131, Control_c, 0, 64, 101
2, 93146, Control_c, 0, 64, 108
2, 93146, Note_on_c, 0, 52, 63
2, 93161, Control_c, 0, 64, 118
2, 93177, Control_c, 0, 64, 127
2, 93216, Note_on_c, 0, 52, 0
2, 93265, Note_on_c, 0, 81, 79
2, 93286, Note_on_c, 0, 61, 77
2, 93305, Note_on_c, 0, 79, 83
2, 93307, Note_on_c, 0, 81, 0
2, 93344, Control_c, 0, 64, 101
2, 93358, Control_c, 0, 64, 83
2, 93363, Note_on_c, 0, 81, 88
2, 93366, Note_on_c, 0, 61, 0
2, 93374, Control_c, 0, 64, 63
2, 93375, Note_on_c, 0, 79, 0
2, 93389, Control_c, 0, 64, 0
2, 93389, Note_on_c, 0, 52, 74
2, 93502, Note_on_c, 0, 63, 71
2, 93546, Note_on_c, 0, 52, 0
2, 93591, Note_on_c, 0, 63, 0
2, 93622, Note_on_c, 0, 52, 67
2, 93681, Note_on_c, 0, 52, 0
2, 93727, Note_on_c, 0, 64, 66
2, 93733, Note_on_c, 0, 81, 0
2, 93738, Note_on_c, 0, 79, 86
2, 93819, Note_on_c, 0, 64, 0
2, 93840, Note_on_c, 0, 63, 67
2, 93936, Note_on_c, 0, 63, 0
2, 93957, Note_on_c, 0, 64, 69
2, 93961, Note_on_c, 0, 78, 88
2, 93973, Note_on_c, 0, 79, 0
2, 94015, Note_on_c, 0, 78, 0
2, 94033, Note_on_c, 0, 64, 0
2, 94052, Note_on_c, 0, 66, 67
2, 94154, Note_on_c, 0, 66, 0
2, 94177, Note_on_c, 0, 76, 89
2, 94178, Note_on_c, 0, 67, 79
2, 94233, Note_on_c, 0, 76, 0
2, 94252, Note_on_c, 0, 67, 0
2, 94275, Note_on_c, 0, 64, 70
2, 94397, Note_on_c, 0, 64, 0
2, 94405, Note_on_c, 0, 66, 80
2, 94405, Note_on_c, 0, 75, 93
2, 94438, Control_c, 0, 64, 77
2, 94453, Note_on_c, 0, 75, 0
2, 94454, Control_c, 0, 64, 109
2, 94468, Control_c, 0, 64, 127
2, 94470, Note_on_c, 0, 66, 0
2, 94513, Note_on_c, 0, 64, 73
2, 94622, Note_on_c, 0, 64, 0
2, 94645, Note_on_c, 0, 66, 78
2, 94651, Note_on_c, 0, 84, 87
2, 94682, Control_c, 0, 64, 118
2, 94697, Control_c, 0, 64, 85
2, 94698, Note_on_c, 0, 83, 85
2, 94703, Note_on_c, 0, 84, 0
2, 94712, Control_c, 0, 64, 0
2, 94727, Note_on_c, 0, 66, 0
2, 94753, Note_on_c, 0, 67, 77
2, 94756, Note_on_c, 0, 84, 85
2, 94763, Note_on_c, 0, 83, 0
2, 94830, Note_on_c, 0, 67, 0
2, 94849, Note_on_c, 0, 69, 78
2, 94933, Note_on_c, 0, 69, 0
2, 94950, Note_on_c, 0, 66, 82
2, 95040, Note_on_c, 0, 66, 0
2, 95060, Note_on_c, 0, 84, 0
2, 95087, Note_on_c, 0, 83, 95
2, 95091, Note_on_c, 0, 67, 89
2, 95124, Note_on_c, 0, 67, 0
2, 95131, Control_c, 0, 64, 70
2, 95146, Control_c, 0, 64, 81
2, 95146, Note_on_c, 0, 83, 0
2, 95161, Control_c, 0, 64, 88
2, 95176, Control_c, 0, 64, 89
2, 95191, Control_c, 0, 64, 90
2, 95206, Control_c, 0, 64, 93
2, 95222, Control_c, 0, 64, 98
2, 95236, Control_c, 0, 64, 103
2, 95252, Control_c, 0, 64, 106
2, 95267, Control_c, 0, 64, 107
2, 95298, Control_c, 0, 64, 106
2, 95312, Control_c, 0, 64, 97
2, 95327, Control_c, 0, 64, 80
2, 95331, Note_on_c, 0, 84, 93
2, 95334, Note_on_c, 0, 69, 77
2, 95343, Control_c, 0, 64, 19
2, 95357, Control_c, 0, 64, 0
2, 95405, Note_on_c, 0, 69, 0
2, 95427, Note_on_c, 0, 67, 74
2, 95439, Note_on_c, 0, 83, 88
2, 95455, Note_on_c, 0, 84, 0
2, 95495, Note_on_c, 0, 67, 0
2, 95516, Note_on_c, 0, 83, 0
2, 95527, Note_on_c, 0, 66, 73
2, 95546, Note_on_c, 0, 81, 85
2, 95595, Note_on_c, 0, 66, 0
2, 95596, Note_on_c, 0, 81, 0
2, 95620, Note_on_c, 0, 64, 72
2, 95627, Note_on_c, 0, 79, 80
2, 95678, Control_c, 0, 64, 63
2, 95692, Note_on_c, 0, 79, 0
2, 95693, Control_c, 0, 64, 67
2, 95699, Note_on_c, 0, 64, 0
2, 95708, Control_c, 0, 64, 65
2, 95723, Control_c, 0, 64, 42
2, 95736, Note_on_c, 0, 69, 75
2, 95739, Control_c, 0, 64, 0
2, 95749, Note_on_c, 0, 78, 92
2, 95787, Note_on_c, 0, 67, 85
2, 95801, Note_on_c, 0, 69, 0
2, 95847, Note_on_c, 0, 67, 0
2, 95848, Note_on_c, 0, 69, 66
2, 95982, Note_on_c, 0, 78, 0
2, 95988, Note_on_c, 0, 81, 80
2, 96096, Note_on_c, 0, 79, 77
2, 96123, Note_on_c, 0, 81, 0
2, 96169, Note_on_c, 0, 79, 0
2, 96213, Note_on_c, 0, 78, 77
2, 96271, Note_on_c, 0, 78, 0
2, 96307, Note_on_c, 0, 76, 79
2, 96368, Note_on_c, 0, 76, 0
2, 96427, Note_on_c, 0, 75, 86
2, 96509, Note_on_c, 0, 69, 0
2, 96522, Note_on_c, 0, 67, 56
2, 96628, Note_on_c, 0, 67, 0
2, 96652, Note_on_c, 0, 81, 82
2, 96656, Note_on_c, 0, 66, 55
2, 96668, Note_on_c, 0, 75, 0
2, 96702, Note_on_c, 0, 81, 0
2, 96766, Note_on_c, 0, 69, 55
2, 96797, Note_on_c, 0, 66, 0
2, 96876, Note_on_c, 0, 69, 0
2, 96881, Note_on_c, 0, 79, 86
2, 96896, Note_on_c, 0, 64, 57
2, 96923, Note_on_c, 0, 79, 0
2, 96990, Note_on_c, 0, 64, 0
2, 97005, Note_on_c, 0, 69, 57
2, 97094, Note_on_c, 0, 69, 0
2, 97111, Note_on_c, 0, 78, 81
2, 97123, Note_on_c, 0, 63, 55
2, 97234, Note_on_c, 0, 69, 53
2, 97340, Note_on_c, 0, 69, 0
2, 97353, Note_on_c, 0, 63, 0
2, 97366, Note_on_c, 0, 76, 67
2, 97366, Note_on_c, 0, 78, 0
2, 97381, Note_on_c, 0, 61, 46
2, 97393, Note_on_c, 0, 76, 0
2, 97441, Note_on_c, 0, 61, 0
2, 97477, Note_on_c, 0, 69, 59
2, 97564, Note_on_c, 0, 69, 0
2, 97592, Note_on_c, 0, 75, 70
2, 97593, Note_on_c, 0, 59, 52
2, 97637, Note_on_c, 0, 75, 0
2, 97640, Note_on_c, 0, 59, 0
2, 97700, Note_on_c, 0, 69, 54
2, 97761, Note_on_c, 0, 69, 0
2, 97829, Note_on_c, 0, 76, 78
2, 97831, Note_on_c, 0, 67, 76
2, 97903, Note_on_c, 0, 67, 0
2, 98079, Note_on_c, 0, 76, 0
2, 98091, Note_on_c, 0, 74, 68
2, 98092, Note_on_c, 0, 66, 60
2, 98123, Note_on_c, 0, 74, 0
2, 98173, Note_on_c, 0, 66, 0
2, 98186, Note_on_c, 0, 67, 66
2, 98261, Note_on_c, 0, 67, 0
2, 98296, Note_on_c, 0, 69, 71
2, 98312, Note_on_c, 0, 72, 78
2, 98351, Note_on_c, 0, 72, 0
2, 98371, Note_on_c, 0, 69, 0
2, 98401, Note_on_c, 0, 67, 71
2, 98471, Note_on_c, 0, 67, 0
2, 98524, Note_on_c, 0, 66, 81
2, 98532, Note_on_c, 0, 74, 76
2, 98601, Note_on_c, 0, 66, 0
2, 98753, Note_on_c, 0, 74, 0
2, 98759, Note_on_c, 0, 72, 78
2, 98761, Note_on_c, 0, 64, 66
2, 98797, Note_on_c, 0, 72, 0
2, 98857, Note_on_c, 0, 64, 0
2, 98866, Note_on_c, 0, 66, 70
2, 98935, Note_on_c, 0, 66, 0
2, 98978, Note_on_c, 0, 71, 67
2, 98980, Note_on_c, 0, 67, 70
2, 99006, Note_on_c, 0, 71, 0
2, 99026, Note_on_c, 0, 67, 0
2, 99071, Note_on_c, 0, 66, 74
2, 99152, Note_on_c, 0, 66, 0
2, 99192, Note_on_c, 0, 64, 77
2, 99207, Note_on_c, 0, 72, 74
2, 99276, Note_on_c, 0, 72, 0
2, 99304, Note_on_c, 0, 84, 81
2, 99394, Note_on_c, 0, 84, 0
2, 99403, Note_on_c, 0, 64, 0
2, 99419, Note_on_c, 0, 66, 85
2, 99421, Note_on_c, 0, 83, 78
2, 99472, Note_on_c, 0, 66, 0
2, 99524, Note_on_c, 0, 81, 89
2, 99529, Note_on_c, 0, 83, 0
2, 99613, Note_on_c, 0, 81, 0
2, 99644, Note_on_c, 0, 79, 88
2, 99649, Note_on_c, 0, 67, 87
2, 99684, Note_on_c, 0, 67, 0
2, 99693, Control_c, 0, 64, 52
2, 99708, Control_c, 0, 64, 60
2, 99722, Note_on_c, 0, 79, 0
2, 99723, Control_c, 0, 64, 0
2, 99744, Note_on_c, 0, 83, 84
2, 99866, Note_on_c, 0, 81, 91
2, 99868, Note_on_c, 0, 72, 85
2, 99893, Note_on_c, 0, 83, 0
2, 99905, Note_on_c, 0, 72, 0
2, 99921, Control_c, 0, 64, 79
2, 99936, Control_c, 0, 64, 90
2, 99951, Control_c, 0, 64, 93
2, 99966, Control_c, 0, 64, 92
2, 99979, Note_on_c, 0, 83, 74
2, 99982, Control_c, 0, 64, 93
2, 100006, Note_on_c, 0, 81, 0
2, 100013, Control_c, 0, 64, 93
2, 100058, Control_c, 0, 64, 94
2, 100077, Note_on_c, 0, 64, 76
2, 100093, Note_on_c, 0, 81, 80
2, 100103, Control_c, 0, 64, 93
2, 100111, Note_on_c, 0, 83, 0
2, 100118, Control_c, 0, 64, 91
2, 100129, Note_on_c, 0, 64, 0
2, 100132, Note_on_c, 0, 63, 72
2, 100134, Control_c, 0, 64, 84
2, 100146, Note_on_c, 0, 81, 0
2, 100148, Control_c, 0, 64, 75
2, 100163, Control_c, 0, 64, 61
2, 100163, Note_on_c, 0, 79, 79
2, 100179, Control_c, 0, 64, 0
2, 100190, Note_on_c, 0, 64, 54
2, 100217, Note_on_c, 0, 64, 0
2, 100230, Note_on_c, 0, 79, 0
2, 100270, Note_on_c, 0, 78, 70
2, 100362, Note_on_c, 0, 78, 0
2, 100398, Note_on_c, 0, 81, 73
2, 100494, Note_on_c, 0, 63, 0
2, 100504, Note_on_c, 0, 64, 70
2, 100506, Note_on_c, 0, 81, 0
2, 100512, Note_on_c, 0, 79, 71
2, 100603, Note_on_c, 0, 79, 0
2, 100624, Note_on_c, 0, 81, 73
2, 100698, Note_on_c, 0, 64, 0
2, 100712, Note_on_c, 0, 81, 0
2, 100729, Note_on_c, 0, 66, 80
2, 100736, Note_on_c, 0, 79, 66
2, 100764, Note_on_c, 0, 66, 0
2, 100805, Note_on_c, 0, 79, 0
2, 100838, Note_on_c, 0, 78, 71
2, 100896, Note_on_c, 0, 78, 0
2, 100944, Note_on_c, 0, 67, 84
2, 100952, Note_on_c, 0, 76, 62
2, 100980, Note_on_c, 0, 67, 0
2, 100999, Note_on_c, 0, 76, 0
2, 101053, Note_on_c, 0, 79, 72
2, 101135, Note_on_c, 0, 79, 0
2, 101167, Note_on_c, 0, 69, 80
2, 101174, Note_on_c, 0, 78, 73
2, 101182, Control_c, 0, 64, 55
2, 101197, Control_c, 0, 64, 68
2, 101209, Note_on_c, 0, 69, 0
2, 101212, Control_c, 0, 64, 75
2, 101228, Control_c, 0, 64, 82
2, 101243, Control_c, 0, 64, 85
2, 101252, Note_on_c, 0, 78, 0
2, 101259, Control_c, 0, 64, 86
2, 101274, Control_c, 0, 64, 87
2, 101275, Note_on_c, 0, 79, 70
2, 101288, Control_c, 0, 64, 88
2, 101304, Control_c, 0, 64, 89
2, 101319, Control_c, 0, 64, 90
2, 101334, Control_c, 0, 64, 90
2, 101378, Note_on_c, 0, 60, 74
2, 101382, Note_on_c, 0, 79, 0
2, 101384, Note_on_c, 0, 78, 72
2, 101395, Control_c, 0, 64, 89
2, 101410, Control_c, 0, 64, 85
2, 101425, Control_c, 0, 64, 79
2, 101426, Note_on_c, 0, 60, 0
2, 101438, Note_on_c, 0, 78, 0
2, 101440, Control_c, 0, 64, 71
2, 101443, Note_on_c, 0, 59, 66
2, 101455, Control_c, 0, 64, 42
2, 101463, Note_on_c, 0, 76, 74
2, 101471, Control_c, 0, 64, 0
2, 101481, Note_on_c, 0, 59, 0
2, 101491, Note_on_c, 0, 60, 64
2, 101535, Note_on_c, 0, 76, 0
2, 101543, Note_on_c, 0, 60, 0
2, 101563, Note_on_c, 0, 59, 39
2, 101572, Note_on_c, 0, 75, 66
2, 101643, Note_on_c, 0, 75, 0
2, 101671, Note_on_c, 0, 78, 67
2, 101759, Note_on_c, 0, 78, 0
2, 101771, Note_on_c, 0, 59, 0
2, 101785, Note_on_c, 0, 76, 65
2, 101791, Note_on_c, 0, 60, 56
2, 101847, Note_on_c, 0, 76, 0
2, 101882, Note_on_c, 0, 60, 0
2, 101899, Note_on_c, 0, 59, 58
2, 102004, Note_on_c, 0, 59, 0
2, 102016, Note_on_c, 0, 78, 77
2, 102029, Note_on_c, 0, 57, 58
2, 102086, Note_on_c, 0, 78, 0
2, 102112, Note_on_c, 0, 57, 0
2, 102115, Note_on_c, 0, 79, 83
2, 102129, Note_on_c, 0, 59, 64
2, 102207, Note_on_c, 0, 59, 0
2, 102210, Note_on_c, 0, 79, 0
2, 102230, Note_on_c, 0, 81, 92
2, 102235, Note_on_c, 0, 60, 71
2, 102309, Note_on_c, 0, 60, 0
2, 102337, Note_on_c, 0, 62, 80
2, 102416, Note_on_c, 0, 62, 0
2, 102453, Note_on_c, 0, 64, 77
2, 102514, Note_on_c, 0, 64, 0
2, 102541, Note_on_c, 0, 63, 74
2, 102628, Note_on_c, 0, 81, 0
2, 102644, Note_on_c, 0, 63, 0
2, 102660, Note_on_c, 0, 79, 90
2, 102666, Note_on_c, 0, 64, 75
2, 102735, Note_on_c, 0, 64, 0
2, 102746, Note_on_c, 0, 79, 0
2, 102765, Note_on_c, 0, 66, 79
2, 102765, Note_on_c, 0, 81, 91
2, 102844, Note_on_c, 0, 66, 0
2, 102874, Note_on_c, 0, 67, 84
2, 102893, Note_on_c, 0, 81, 0
2, 102895, Note_on_c, 0, 83, 85
2, 102955, Note_on_c, 0, 67, 0
2, 102960, Control_c, 0, 64, 78
2, 102975, Control_c, 0, 64, 83
2, 102982, Note_on_c, 0, 69, 84
2, 103020, Note_on_c, 0, 69, 0
2, 103082, Control_c, 0, 64, 83
2, 103089, Note_on_c, 0, 71, 94
2, 103097, Control_c, 0, 64, 84
2, 103112, Control_c, 0, 64, 84
2, 103127, Control_c, 0, 64, 86
2, 103143, Control_c, 0, 64, 88
2, 103158, Control_c, 0, 64, 91
2, 103172, Control_c, 0, 64, 93
2, 103188, Control_c, 0, 64, 96
2, 103203, Control_c, 0, 64, 98
2, 103219, Control_c, 0, 64, 99
2, 103230, Note_on_c, 0, 47, 58
2, 103234, Control_c, 0, 64, 99
2, 103256, Note_on_c, 0, 49, 84
2, 103279, Control_c, 0, 64, 95
2, 103280, Note_on_c, 0, 47, 0
2, 103294, Control_c, 0, 64, 84
2, 103305, Note_on_c, 0, 51, 83
2, 103307, Note_on_c, 0, 81, 78
2, 103310, Control_c, 0, 64, 68
2, 103322, Note_on_c, 0, 83, 0
2, 103325, Control_c, 0, 64, 0
2, 103335, Note_on_c, 0, 49, 0
2, 103359, Note_on_c, 0, 51, 0
2, 103424, Note_on_c, 0, 81, 0
2, 103433, Note_on_c, 0, 47, 65
2, 103480, Note_on_c, 0, 47, 0
2, 103557, Note_on_c, 0, 52, 76
2, 103564, Note_on_c, 0, 79, 74
2, 103575, Control_c, 0, 64, 59
2, 103590, Note_on_c, 0, 52, 0
2, 103591, Control_c, 0, 64, 62
2, 103630, Note_on_c, 0, 79, 0
2, 103637, Control_c, 0, 64, 64
2, 103652, Control_c, 0, 64, 65
2, 103659, Note_on_c, 0, 47, 66
2, 103668, Control_c, 0, 64, 66
2, 103682, Control_c, 0, 64, 68
2, 103697, Control_c, 0, 64, 69
2, 103713, Control_c, 0, 64, 70
2, 103716, Note_on_c, 0, 47, 0
2, 103771, Note_on_c, 0, 54, 78
2, 103774, Control_c, 0, 64, 69
2, 103777, Note_on_c, 0, 78, 91
2, 103790, Control_c, 0, 64, 63
2, 103804, Control_c, 0, 64, 0
2, 103814, Note_on_c, 0, 71, 0
2, 103836, Note_on_c, 0, 54, 0
2, 103854, Note_on_c, 0, 78, 0
2, 103881, Note_on_c, 0, 47, 81
2, 103881, Note_on_c, 0, 79, 88
2, 103958, Note_on_c, 0, 79, 0
2, 103981, Note_on_c, 0, 47, 0
2, 103994, Note_on_c, 0, 81, 92
2, 103996, Note_on_c, 0, 55, 90
2, 103999, Note_on_c, 0, 72, 87
2, 104032, Control_c, 0, 64, 60
2, 104033, Note_on_c, 0, 72, 0
2, 104033, Note_on_c, 0, 81, 0
2, 104047, Control_c, 0, 64, 78
2, 104063, Control_c, 0, 64, 81
2, 104078, Control_c, 0, 64, 82
2, 104090, Note_on_c, 0, 55, 0
2, 104108, Control_c, 0, 64, 83
2, 104118, Note_on_c, 0, 47, 81
2, 104123, Control_c, 0, 64, 87
2, 104139, Control_c, 0, 64, 93
2, 104154, Control_c, 0, 64, 99
2, 104168, Control_c, 0, 64, 103
2, 104184, Control_c, 0, 64, 106
2, 104199, Control_c, 0, 64, 106
2, 104222, Control_c, 0, 64, 105
2, 104237, Control_c, 0, 64, 94
2, 104252, Control_c, 0, 64, 72
2, 104252, Note_on_c, 0, 75, 101
2, 104256, Note_on_c, 0, 47, 0
2, 104260, Note_on_c, 0, 66, 90
2, 104261, Note_on_c, 0, 57, 89
2, 104268, Control_c, 0, 64, 0
2, 104297, Note_on_c, 0, 66, 0
2, 104297, Note_on_c, 0, 75, 0
2, 104313, Control_c, 0, 64, 54
2, 104328, Control_c, 0, 64, 76
2, 104343, Control_c, 0, 64, 89
2, 104358, Control_c, 0, 64, 98
2, 104373, Control_c, 0, 64, 101
2, 104380, Note_on_c, 0, 57, 0
2, 104389, Control_c, 0, 64, 106
2, 104403, Note_on_c, 0, 47, 84
2, 104404, Control_c, 0, 64, 126
2, 104420, Control_c, 0, 64, 127
2, 104597, Note_on_c, 0, 76, 96
2, 104598, Note_on_c, 0, 55, 76
2, 104604, Note_on_c, 0, 64, 91
2, 104647, Control_c, 0, 64, 101
2, 104663, Control_c, 0, 64, 75
2, 104675, Note_on_c, 0, 47, 0
2, 104678, Control_c, 0, 64, 0
2, 104721, Note_on_c, 0, 64, 0
2, 104728, Note_on_c, 0, 66, 86
2, 104731, Note_on_c, 0, 54, 72
2, 104737, Note_on_c, 0, 55, 0
2, 104831, Note_on_c, 0, 54, 0
2, 104856, Note_on_c, 0, 52, 67
2, 104864, Note_on_c, 0, 67, 82
2, 104873, Note_on_c, 0, 66, 0
2, 105000, Note_on_c, 0, 55, 63
2, 105080, Note_on_c, 0, 52, 0
2, 105095, Control_c, 0, 64, 34
2, 105104, Note_on_c, 0, 76, 0
2, 105109, Note_on_c, 0, 71, 74
2, 105111, Control_c, 0, 64, 65
2, 105117, Note_on_c, 0, 50, 70
2, 105126, Control_c, 0, 64, 70
2, 105130, Note_on_c, 0, 55, 0
2, 105141, Control_c, 0, 64, 75
2, 105156, Control_c, 0, 64, 80
2, 105163, Note_on_c, 0, 71, 0
2, 105171, Control_c, 0, 64, 83
2, 105187, Control_c, 0, 64, 84
2, 105202, Control_c, 0, 64, 85
2, 105217, Control_c, 0, 64, 86
2, 105233, Control_c, 0, 64, 87
2, 105248, Control_c, 0, 64, 89
2, 105250, Note_on_c, 0, 55, 51
2, 105264, Control_c, 0, 64, 90
2, 105279, Control_c, 0, 64, 92
2, 105293, Control_c, 0, 64, 93
2, 105309, Control_c, 0, 64, 93
2, 105330, Note_on_c, 0, 50, 0
2, 105373, Note_on_c, 0, 69, 80
2, 105377, Note_on_c, 0, 49, 63
2, 105386, Control_c, 0, 64, 92
2, 105386, Note_on_c, 0, 55, 0
2, 105401, Control_c, 0, 64, 87
2, 105411, Note_on_c, 0, 67, 0
2, 105415, Control_c, 0, 64, 78
2, 105431, Control_c, 0, 64, 63
2, 105446, Control_c, 0, 64, 0
2, 105486, Note_on_c, 0, 66, 78
2, 105499, Note_on_c, 0, 55, 58
2, 105585, Note_on_c, 0, 49, 0
2, 105593, Note_on_c, 0, 55, 0
2, 105605, Note_on_c, 0, 66, 0
2, 105607, Note_on_c, 0, 64, 74
2, 105610, Note_on_c, 0, 47, 72
2, 105673, Note_on_c, 0, 64, 0
2, 105699, Note_on_c, 0, 62, 77
2, 105726, Note_on_c, 0, 55, 70
2, 105767, Note_on_c, 0, 47, 0
2, 105810, Note_on_c, 0, 62, 0
2, 105832, Note_on_c, 0, 61, 74
2, 105838, Note_on_c, 0, 55, 0
2, 105851, Note_on_c, 0, 45, 66
2, 105917, Note_on_c, 0, 61, 0
2, 105918, Note_on_c, 0, 45, 0
2, 105929, Note_on_c, 0, 64, 76
2, 105960, Note_on_c, 0, 55, 61
2, 106025, Note_on_c, 0, 64, 0
2, 106051, Note_on_c, 0, 62, 72
2, 106065, Note_on_c, 0, 55, 0
2, 106076, Note_on_c, 0, 54, 61
2, 106139, Note_on_c, 0, 69, 0
2, 106153, Note_on_c, 0, 64, 72
2, 106154, Note_on_c, 0, 62, 0
2, 106157, Note_on_c, 0, 54, 0
2, 106181, Note_on_c, 0, 52, 57
2, 106268, Note_on_c, 0, 52, 0
2, 106280, Note_on_c, 0, 66, 74
2, 106286, Note_on_c, 0, 64, 0
2, 106293, Note_on_c, 0, 50, 52
2, 106420, Note_on_c, 0, 54, 45
2, 106501, Note_on_c, 0, 50, 0
2, 106523, Note_on_c, 0, 54, 0
2, 106536, Note_on_c, 0, 69, 59
2, 106540, Note_on_c, 0, 49, 57
2, 106584, Note_on_c, 0, 69, 0
2, 106587, Control_c, 0, 67, 8
2, 106602, Control_c, 0, 67, 14
2, 106617, Control_c, 0, 67, 19
2, 106632, Control_c, 0, 67, 24
2, 106647, Control_c, 0, 67, 26
2, 106664, Note_on_c, 0, 54, 51
2, 106677, Control_c, 0, 67, 26
2, 106692, Control_c, 0, 67, 25
2, 106708, Control_c, 0, 67, 24
2, 106744, Note_on_c, 0, 49, 0
2, 106753, Control_c, 0, 67, 25
2, 106781, Note_on_c, 0, 67, 61
2, 106783, Note_on_c, 0, 47, 64
2, 106813, Control_c, 0, 67, 25
2, 106827, Note_on_c, 0, 54, 0
2, 106844, Control_c, 0, 67, 24
2, 106854, Note_on_c, 0, 66, 0
2, 106875, Control_c, 0, 67, 24
2, 106899, Note_on_c, 0, 54, 54
2, 106906, Note_on_c, 0, 64, 58
2, 106921, Control_c, 0, 67, 23
2, 106952, Control_c, 0, 67, 23
2, 106953, Note_on_c, 0, 64, 0
2, 106967, Control_c, 0, 67, 22
2, 106997, Note_on_c, 0, 47, 0
2, 107000, Note_on_c, 0, 54, 0
2, 107015, Note_on_c, 0, 45, 63
2, 107022, Note_on_c, 0, 62, 59
2, 107066, Note_on_c, 0, 62, 0
2, 107073, Control_c, 0, 67, 23
2, 107088, Control_c, 0, 67, 24
2, 107104, Control_c, 0, 67, 26
2, 107119, Control_c, 0, 67, 31
2, 107120, Note_on_c, 0, 61, 62
2, 107123, Note_on_c, 0, 45, 0
2, 107131, Note_on_c, 0, 54, 51
2, 107134, Control_c, 0, 67, 47
2, 107150, Control_c, 0, 67, 70
2, 107165, Control_c, 0, 67, 93
2, 107180, Control_c, 0, 67, 111
2, 107195, Control_c, 0, 67, 126
2, 107210, Control_c, 0, 67, 127
2, 107214, Note_on_c, 0, 61, 0
2, 107226, Note_on_c, 0, 54, 0
2, 107241, Note_on_c, 0, 59, 61
2, 107245, Note_on_c, 0, 43, 58
2, 107313, Note_on_c, 0, 59, 0
2, 107349, Note_on_c, 0, 62, 62
2, 107359, Note_on_c, 0, 43, 0
2, 107361, Note_on_c, 0, 54, 54
2, 107415, Note_on_c, 0, 54, 0
2, 107415, Note_on_c, 0, 67, 0
2, 107440, Note_on_c, 0, 62, 0
2, 107462, Note_on_c, 0, 61, 67
2, 107500, Note_on_c, 0, 52, 48
2, 107565, Note_on_c, 0, 52, 0
2, 107580, Note_on_c, 0, 61, 0
2, 107588, Note_on_c, 0, 62, 65
2, 107606, Note_on_c, 0, 50, 37
2, 107661, Note_on_c, 0, 62, 0
2, 107671, Note_on_c, 0, 50, 0
2, 107709, Note_on_c, 0, 64, 63
2, 107710, Note_on_c, 0, 49, 49
2, 107807, Note_on_c, 0, 52, 46
2, 107907, Note_on_c, 0, 52, 0
2, 107920, Note_on_c, 0, 49, 0
2, 107922, Note_on_c, 0, 67, 53
2, 107935, Note_on_c, 0, 47, 51
2, 107951, Note_on_c, 0, 67, 0
2, 108060, Note_on_c, 0, 52, 46
2, 108100, Note_on_c, 0, 47, 0
2, 108156, Note_on_c, 0, 52, 0
2, 108157, Note_on_c, 0, 64, 0
2, 108162, Note_on_c, 0, 66, 68
2, 108170, Note_on_c, 0, 46, 59
2, 108277, Note_on_c, 0, 62, 59
2, 108281, Note_on_c, 0, 52, 50
2, 108293, Note_on_c, 0, 46, 0
2, 108327, Note_on_c, 0, 62, 0
2, 108379, Note_on_c, 0, 52, 0
2, 108397, Note_on_c, 0, 61, 63
2, 108398, Note_on_c, 0, 44, 52
2, 108446, Note_on_c, 0, 61, 0
2, 108480, Note_on_c, 0, 44, 0
2, 108497, Note_on_c, 0, 59, 57
2, 108513, Note_on_c, 0, 52, 55
2, 108568, Note_on_c, 0, 59, 0
2, 108605, Note_on_c, 0, 52, 0
2, 108636, Note_on_c, 0, 58, 57
2, 108645, Note_on_c, 0, 42, 48
2, 108714, Note_on_c, 0, 42, 0
2, 108724, Note_on_c, 0, 58, 0
2, 108749, Note_on_c, 0, 61, 57
2, 108760, Note_on_c, 0, 52, 41
2, 108840, Note_on_c, 0, 52, 0
2, 108895, Note_on_c, 0, 61, 0
2, 108899, Note_on_c, 0, 66, 0
2, 108926, Note_on_c, 0, 59, 59
2, 108958, Note_on_c, 0, 50, 33
2, 108982, Control_c, 0, 64, 54
2, 108997, Control_c, 0, 64, 67
2, 109011, Control_c, 0, 64, 73
2, 109013, Note_on_c, 0, 50, 0
2, 109027, Control_c, 0, 64, 79
2, 109042, Control_c, 0, 64, 81
2, 109057, Control_c, 0, 64, 81
2, 109061, Note_on_c, 0, 59, 0
2, 109119, Control_c, 0, 64, 82
2, 109123, Note_on_c, 0, 71, 62
2, 109127, Note_on_c, 0, 54, 56
2, 109167, Note_on_c, 0, 71, 0
2, 109195, Control_c, 0, 64, 81
2, 109201, Note_on_c, 0, 54, 0
2, 109225, Control_c, 0, 64, 80
2, 109240, Control_c, 0, 64, 78
2, 109241, Note_on_c, 0, 52, 59
2, 109248, Note_on_c, 0, 73, 70
2, 109254, Control_c, 0, 64, 76
2, 109270, Control_c, 0, 64, 71
2, 109285, Control_c, 0, 64, 62
2, 109291, Note_on_c, 0, 52, 0
2, 109301, Control_c, 0, 64, 0
2, 109319, Note_on_c, 0, 73, 0
2, 109348, Note_on_c, 0, 50, 53
2, 109362, Note_on_c, 0, 71, 66
2, 109399, Note_on_c, 0, 50, 0
2, 109424, Note_on_c, 0, 71, 0
2, 109465, Note_on_c, 0, 70, 73
2, 109467, Note_on_c, 0, 49, 53
2, 109502, Note_on_c, 0, 49, 0
2, 109528, Note_on_c, 0, 70, 0
2, 109562, Note_on_c, 0, 47, 60
2, 109568, Note_on_c, 0, 71, 71
2, 109628, Note_on_c, 0, 47, 0
2, 109640, Note_on_c, 0, 71, 0
2, 109689, Note_on_c, 0, 46, 68
2, 109693, Note_on_c, 0, 73, 74
2, 109719, Control_c, 0, 64, 45
2, 109734, Control_c, 0, 64, 57
2, 109736, Note_on_c, 0, 73, 0
2, 109750, Control_c, 0, 64, 61
2, 109756, Note_on_c, 0, 46, 0
2, 109765, Control_c, 0, 64, 62
2, 109780, Control_c, 0, 64, 62
2, 109795, Control_c, 0, 64, 63
2, 109797, Note_on_c, 0, 49, 64
2, 109826, Control_c, 0, 64, 63
2, 109855, Control_c, 0, 64, 63
2, 109868, Note_on_c, 0, 49, 0
2, 109871, Control_c, 0, 64, 62
2, 109886, Control_c, 0, 64, 61
2, 109902, Control_c, 0, 64, 54
2, 109913, Note_on_c, 0, 47, 64
2, 109917, Control_c, 0, 64, 0
2, 109931, Note_on_c, 0, 74, 74
2, 109974, Note_on_c, 0, 47, 0
2, 110000, Note_on_c, 0, 74, 0
2, 110019, Note_on_c, 0, 46, 68
2, 110032, Note_on_c, 0, 73, 76
2, 110067, Note_on_c, 0, 46, 0
2, 110096, Note_on_c, 0, 73, 0
2, 110118, Note_on_c, 0, 44, 69
2, 110147, Note_on_c, 0, 71, 73
2, 110176, Note_on_c, 0, 44, 0
2, 110194, Note_on_c, 0, 71, 0
2, 110238, Note_on_c, 0, 73, 74
2, 110302, Note_on_c, 0, 73, 0
2, 110366, Note_on_c, 0, 74, 73
2, 110372, Note_on_c, 0, 47, 70
2, 110411, Note_on_c, 0, 47, 0
2, 110594, Note_on_c, 0, 74, 0
2, 110598, Note_on_c, 0, 49, 73
2, 110598, Note_on_c, 0, 73, 71
2, 110643, Note_on_c, 0, 73, 0
2, 110653, Note_on_c, 0, 49, 0
2, 110698, Note_on_c, 0, 47, 71
2, 110758, Note_on_c, 0, 47, 0
2, 110801, Note_on_c, 0, 71, 71
2, 110805, Note_on_c, 0, 46, 76
2, 110839, Note_on_c, 0, 71, 0
2, 110856, Note_on_c, 0, 46, 0
2, 110908, Note_on_c, 0, 47, 73
2, 110963, Note_on_c, 0, 47, 0
2, 111031, Note_on_c, 0, 49, 78
2, 111033, Note_on_c, 0, 70, 82
2, 111079, Note_on_c, 0, 49, 0
2, 111302, Note_on_c, 0, 79, 86
2, 111312, Note_on_c, 0, 50, 46
2, 111323, Note_on_c, 0, 70, 0
2, 111355, Note_on_c, 0, 50, 0
2, 111399, Note_on_c, 0, 49, 71
2, 111493, Note_on_c, 0, 49, 0
2, 111506, Note_on_c, 0, 47, 73
2, 111604, Note_on_c, 0, 49, 67
2, 111611, Note_on_c, 0, 47, 0
2, 111690, Note_on_c, 0, 79, 0
2, 111721, Note_on_c, 0, 78, 78
2, 111730, Note_on_c, 0, 49, 0
2, 111734, Note_on_c, 0, 50, 75
2, 111756, Note_on_c, 0, 78, 0
2, 111958, Note_on_c, 0, 50, 0
2, 111976, Note_on_c, 0, 49, 74
2, 111991, Note_on_c, 0, 79, 76
2, 112017, Note_on_c, 0, 49, 0
2, 112063, Note_on_c, 0, 79, 0
2, 112083, Note_on_c, 0, 78, 79
2, 112156, Note_on_c, 0, 78, 0
2, 112195, Note_on_c, 0, 47, 71
2, 112196, Note_on_c, 0, 76, 73
2, 112231, Note_on_c, 0, 47, 0
2, 112235, Note_on_c, 0, 76, 0
2, 112299, Note_on_c, 0, 74, 71
2, 112335, Note_on_c, 0, 74, 0
2, 112424, Note_on_c, 0, 46, 76
2, 112428, Note_on_c, 0, 73, 69
2, 112472, Note_on_c, 0, 73, 0
2, 112478, Control_c, 0, 64, 60
2, 112493, Control_c, 0, 64, 62
2, 112508, Control_c, 0, 64, 62
2, 112523, Control_c, 0, 64, 64
2, 112538, Control_c, 0, 64, 66
2, 112553, Control_c, 0, 64, 70
2, 112568, Control_c, 0, 64, 72
2, 112583, Control_c, 0, 64, 74
2, 112684, Control_c, 0, 64, 73
2, 112689, Note_on_c, 0, 55, 71
2, 112693, Note_on_c, 0, 76, 62
2, 112699, Control_c, 0, 64, 69
2, 112712, Note_on_c, 0, 46, 0
2, 112715, Control_c, 0, 64, 62
2, 112730, Control_c, 0, 64, 0
2, 112773, Note_on_c, 0, 76, 0
2, 112798, Note_on_c, 0, 74, 63
2, 112873, Note_on_c, 0, 74, 0
2, 112918, Note_on_c, 0, 73, 65
2, 112974, Note_on_c, 0, 73, 0
2, 113037, Note_on_c, 0, 71, 54
2, 113079, Note_on_c, 0, 71, 0
2, 113132, Note_on_c, 0, 55, 0
2, 113148, Note_on_c, 0, 54, 52
2, 113149, Note_on_c, 0, 70, 61
2, 113210, Note_on_c, 0, 70, 0
2, 113214, Control_c, 0, 64, 36
2, 113230, Control_c, 0, 64, 48
2, 113245, Control_c, 0, 64, 51
2, 113252, Note_on_c, 0, 71, 65
2, 113255, Note_on_c, 0, 56, 61
2, 113258, Note_on_c, 0, 54, 0
2, 113260, Control_c, 0, 64, 51
2, 113275, Control_c, 0, 64, 52
2, 113290, Control_c, 0, 64, 53
2, 113306, Control_c, 0, 64, 54
2, 113326, Note_on_c, 0, 71, 0
2, 113333, Note_on_c, 0, 56, 0
2, 113366, Control_c, 0, 64, 53
2, 113368, Note_on_c, 0, 58, 61
2, 113370, Note_on_c, 0, 73, 67
2, 113381, Control_c, 0, 64, 51
2, 113397, Control_c, 0, 64, 44
2, 113412, Control_c, 0, 64, 0
2, 113431, Note_on_c, 0, 73, 0
2, 113443, Note_on_c, 0, 58, 0
2, 113482, Note_on_c, 0, 54, 61
2, 113485, Note_on_c, 0, 70, 61
2, 113540, Note_on_c, 0, 70, 0
2, 113547, Note_on_c, 0, 54, 0
2, 113596, Note_on_c, 0, 59, 64
2, 113598, Note_on_c, 0, 74, 76
2, 113673, Note_on_c, 0, 59, 0
2, 113681, Note_on_c, 0, 74, 0
2, 113688, Note_on_c, 0, 70, 71
2, 113702, Note_on_c, 0, 54, 59
2, 113761, Note_on_c, 0, 70, 0
2, 113793, Note_on_c, 0, 54, 0
2, 113816, Note_on_c, 0, 76, 85
2, 113820, Note_on_c, 0, 61, 68
2, 113861, Control_c, 0, 67, 91
2, 113877, Control_c, 0, 67, 47
2, 113892, Control_c, 0, 64, 38
2, 113892, Control_c, 0, 67, 0
2, 113908, Control_c, 0, 64, 55
2, 113923, Control_c, 0, 64, 60
2, 113926, Note_on_c, 0, 70, 69
2, 113936, Note_on_c, 0, 54, 58
2, 113937, Control_c, 0, 64, 63
2, 113953, Control_c, 0, 64, 64
2, 113968, Control_c, 0, 64, 64
2, 113983, Control_c, 0, 64, 65
2, 113988, Note_on_c, 0, 61, 0
2, 113992, Note_on_c, 0, 76, 0
2, 113997, Note_on_c, 0, 70, 0
2, 113999, Note_on_c, 0, 54, 0
2, 114030, Control_c, 0, 64, 64
2, 114035, Note_on_c, 0, 62, 72
2, 114044, Control_c, 0, 64, 62
2, 114050, Note_on_c, 0, 78, 82
2, 114059, Control_c, 0, 64, 32
2, 114075, Control_c, 0, 64, 0
2, 114104, Note_on_c, 0, 62, 0
2, 114124, Note_on_c, 0, 78, 0
2, 114144, Note_on_c, 0, 70, 74
2, 114150, Note_on_c, 0, 54, 65
2, 114211, Note_on_c, 0, 70, 0
2, 114233, Note_on_c, 0, 54, 0
2, 114270, Note_on_c, 0, 79, 80
2, 114271, Note_on_c, 0, 64, 70
2, 114331, Note_on_c, 0, 79, 0
2, 114352, Note_on_c, 0, 64, 0
2, 114378, Note_on_c, 0, 54, 72
2, 114384, Note_on_c, 0, 70, 81
2, 114464, Note_on_c, 0, 54, 0
2, 114488, Note_on_c, 0, 70, 0
2, 114494, Note_on_c, 0, 78, 78
2, 114502, Note_on_c, 0, 62, 73
2, 114592, Note_on_c, 0, 78, 0
2, 114598, Note_on_c, 0, 70, 81
2, 114601, Note_on_c, 0, 62, 0
2, 114619, Note_on_c, 0, 54, 69
2, 114670, Note_on_c, 0, 70, 0
2, 114687, Note_on_c, 0, 54, 0
2, 114717, Note_on_c, 0, 71, 70
2, 114725, Note_on_c, 0, 55, 62
2, 114777, Note_on_c, 0, 71, 0
2, 114798, Note_on_c, 0, 55, 0
2, 114812, Control_c, 0, 64, 80
2, 114816, Note_on_c, 0, 78, 76
2, 114820, Note_on_c, 0, 62, 76
2, 114828, Control_c, 0, 64, 87
2, 114843, Control_c, 0, 64, 87
2, 114849, Note_on_c, 0, 62, 0
2, 114874, Control_c, 0, 64, 88
2, 114880, Note_on_c, 0, 78, 0
2, 114919, Control_c, 0, 64, 86
2, 114934, Control_c, 0, 64, 79
2, 114940, Note_on_c, 0, 76, 57
2, 114950, Control_c, 0, 64, 64
2, 114950, Note_on_c, 0, 61, 70
2, 114971, Control_c, 0, 64, 0
2, 114973, Note_on_c, 0, 74, 58
2, 114974, Note_on_c, 0, 76, 0
2, 115007, Note_on_c, 0, 74, 0
2, 115016, Note_on_c, 0, 61, 0
2, 115021, Note_on_c, 0, 73, 68
2, 115031, Note_on_c, 0, 58, 47
2, 115066, Note_on_c, 0, 74, 66
2, 115085, Note_on_c, 0, 73, 0
2, 115104, Note_on_c, 0, 58, 0
2, 115106, Note_on_c, 0, 59, 65
2, 115133, Note_on_c, 0, 76, 80
2, 115134, Note_on_c, 0, 59, 0
2, 115134, Note_on_c, 0, 74, 0
2, 115172, Note_on_c, 0, 61, 73
2, 115221, Note_on_c, 0, 76, 0
2, 115236, Note_on_c, 0, 61, 0
2, 115271, Note_on_c, 0, 68, 83
2, 115282, Note_on_c, 0, 52, 67
2, 115344, Note_on_c, 0, 52, 0
2, 115347, Note_on_c, 0, 68, 0
2, 115370, Note_on_c, 0, 54, 56
2, 115383, Note_on_c, 0, 70, 79
2, 115420, Note_on_c, 0, 54, 0
2, 115445, Note_on_c, 0, 70, 0
2, 115466, Note_on_c, 0, 61, 57
2, 115474, Control_c, 0, 64, 71
2, 115489, Control_c, 0, 64, 79
2, 115493, Note_on_c, 0, 76, 77
2, 115502, Note_on_c, 0, 61, 0
2, 115504, Control_c, 0, 64, 83
2, 115533, Note_on_c, 0, 76, 0
2, 115534, Control_c, 0, 64, 84
2, 115550, Control_c, 0, 64, 84
2, 115571, Note_on_c, 0, 59, 64
2, 115580, Control_c, 0, 64, 84
2, 115596, Control_c, 0, 64, 81
2, 115599, Note_on_c, 0, 74, 75
2, 115610, Control_c, 0, 64, 71
2, 115626, Control_c, 0, 64, 0
2, 115629, Note_on_c, 0, 59, 0
2, 115644, Note_on_c, 0, 73, 66
2, 115645, Note_on_c, 0, 58, 63
2, 115684, Note_on_c, 0, 58, 0
2, 115684, Note_on_c, 0, 74, 0
2, 115687, Note_on_c, 0, 73, 0
2, 115689, Note_on_c, 0, 56, 65
2, 115721, Note_on_c, 0, 71, 46
2, 115750, Note_on_c, 0, 73, 72
2, 115754, Note_on_c, 0, 58, 52
2, 115769, Note_on_c, 0, 56, 0
2, 115774, Note_on_c, 0, 71, 0
2, 115791, Note_on_c, 0, 58, 0
2, 115812, Note_on_c, 0, 74, 73
2, 115818, Note_on_c, 0, 73, 0
2, 115834, Note_on_c, 0, 59, 45
2, 115861, Note_on_c, 0, 59, 0
2, 115925, Note_on_c, 0, 61, 69
2, 115965, Note_on_c, 0, 61, 0
2, 116038, Note_on_c, 0, 62, 61
2, 116068, Note_on_c, 0, 62, 0
2, 116152, Note_on_c, 0, 59, 57
2, 116181, Note_on_c, 0, 59, 0
2, 116263, Note_on_c, 0, 64, 67
2, 116294, Note_on_c, 0, 64, 0
2, 116376, Note_on_c, 0, 59, 69
2, 116407, Note_on_c, 0, 59, 0
2, 116491, Note_on_c, 0, 66, 79
2, 116626, Note_on_c, 0, 59, 64
2, 116658, Note_on_c, 0, 59, 0
2, 116723, Note_on_c, 0, 66, 0
2, 116738, Note_on_c, 0, 68, 69
2, 116773, Note_on_c, 0, 68, 0
2, 116846, Note_on_c, 0, 59, 55
2, 116875, Note_on_c, 0, 59, 0
2, 116953, Note_on_c, 0, 69, 73
2, 116984, Note_on_c, 0, 69, 0
2, 117090, Note_on_c, 0, 59, 55
2, 117124, Note_on_c, 0, 59, 0
2, 117197, Note_on_c, 0, 68, 72
2, 117221, Note_on_c, 0, 52, 40
2, 117289, Note_on_c, 0, 52, 0
2, 117310, Note_on_c, 0, 54, 54
2, 117394, Note_on_c, 0, 54, 0
2, 117421, Note_on_c, 0, 68, 0
2, 117426, Note_on_c, 0, 56, 62
2, 117441, Note_on_c, 0, 64, 66
2, 117479, Note_on_c, 0, 56, 0
2, 117486, Note_on_c, 0, 64, 0
2, 117533, Note_on_c, 0, 52, 66
2, 117610, Note_on_c, 0, 52, 0
2, 117654, Note_on_c, 0, 57, 78
2, 117658, Note_on_c, 0, 66, 77
2, 117718, Note_on_c, 0, 57, 0
2, 117726, Note_on_c, 0, 66, 0
2, 117768, Note_on_c, 0, 52, 73
2, 117827, Note_on_c, 0, 52, 0
2, 117885, Note_on_c, 0, 68, 83
2, 117895, Note_on_c, 0, 59, 70
2, 117929, Control_c, 0, 64, 25
2, 117944, Control_c, 0, 64, 61
2, 117960, Control_c, 0, 64, 66
2, 117974, Control_c, 0, 64, 67
2, 117980, Note_on_c, 0, 59, 0
2, 117990, Control_c, 0, 64, 68
2, 118005, Control_c, 0, 64, 69
2, 118013, Note_on_c, 0, 52, 63
2, 118020, Control_c, 0, 64, 70
2, 118044, Control_c, 0, 64, 71
2, 118059, Control_c, 0, 64, 72
2, 118074, Control_c, 0, 64, 72
2, 118119, Control_c, 0, 64, 71
2, 118123, Note_on_c, 0, 68, 0
2, 118130, Note_on_c, 0, 61, 71
2, 118130, Note_on_c, 0, 69, 77
2, 118134, Control_c, 0, 64, 67
2, 118148, Note_on_c, 0, 52, 0
2, 118150, Control_c, 0, 64, 50
2, 118165, Control_c, 0, 64, 0
2, 118175, Note_on_c, 0, 61, 0
2, 118180, Note_on_c, 0, 69, 0
2, 118246, Note_on_c, 0, 52, 57
2, 118313, Note_on_c, 0, 52, 0
2, 118361, Note_on_c, 0, 62, 72
2, 118365, Note_on_c, 0, 71, 68
2, 118416, Note_on_c, 0, 62, 0
2, 118424, Note_on_c, 0, 71, 0
2, 118474, Note_on_c, 0, 52, 61
2, 118536, Note_on_c, 0, 52, 0
2, 118603, Note_on_c, 0, 64, 58
2, 118608, Note_on_c, 0, 61, 59
2, 118637, Control_c, 0, 64, 58
2, 118652, Control_c, 0, 64, 65
2, 118668, Control_c, 0, 64, 66
2, 118682, Control_c, 0, 64, 67
2, 118697, Control_c, 0, 64, 68
2, 118697, Note_on_c, 0, 74, 0
2, 118713, Control_c, 0, 64, 69
2, 118728, Control_c, 0, 64, 70
2, 118731, Note_on_c, 0, 66, 62
2, 118742, Control_c, 0, 64, 71
2, 118758, Control_c, 0, 64, 72
2, 118769, Note_on_c, 0, 64, 0
2, 118775, Note_on_c, 0, 68, 60
2, 118811, Control_c, 0, 64, 71
2, 118827, Control_c, 0, 64, 71
2, 118830, Note_on_c, 0, 66, 0
2, 118841, Note_on_c, 0, 69, 69
2, 118842, Control_c, 0, 64, 68
2, 118857, Control_c, 0, 64, 65
2, 118863, Note_on_c, 0, 68, 0
2, 118873, Control_c, 0, 64, 56
2, 118887, Control_c, 0, 64, 28
2, 118902, Control_c, 0, 64, 0
2, 118912, Note_on_c, 0, 69, 0
2, 118955, Note_on_c, 0, 61, 0
2, 118962, Note_on_c, 0, 64, 67
2, 118984, Note_on_c, 0, 62, 52
2, 119030, Note_on_c, 0, 64, 0
2, 119032, Note_on_c, 0, 62, 0
2, 119064, Note_on_c, 0, 61, 54
2, 119080, Note_on_c, 0, 71, 64
2, 119115, Note_on_c, 0, 71, 0
2, 119137, Note_on_c, 0, 61, 0
2, 119177, Note_on_c, 0, 64, 68
2, 119190, Note_on_c, 0, 59, 52
2, 119233, Note_on_c, 0, 59, 0
2, 119252, Note_on_c, 0, 64, 0
2, 119297, Note_on_c, 0, 57, 63
2, 119300, Note_on_c, 0, 73, 77
2, 119354, Note_on_c, 0, 57, 0
2, 119359, Control_c, 0, 64, 59
2, 119373, Control_c, 0, 64, 65
2, 119389, Control_c, 0, 64, 66
2, 119404, Control_c, 0, 64, 67
2, 119410, Note_on_c, 0, 59, 67
2, 119413, Note_on_c, 0, 64, 66
2, 119419, Control_c, 0, 64, 67
2, 119435, Control_c, 0, 64, 68
2, 119438, Note_on_c, 0, 73, 0
2, 119450, Control_c, 0, 64, 68
2, 119459, Note_on_c, 0, 59, 0
2, 119464, Control_c, 0, 64, 69
2, 119466, Note_on_c, 0, 64, 0
2, 119511, Control_c, 0, 64, 68
2, 119525, Control_c, 0, 64, 66
2, 119527, Note_on_c, 0, 57, 68
2, 119527, Note_on_c, 0, 74, 73
2, 119540, Control_c, 0, 64, 61
2, 119556, Control_c, 0, 64, 38
2, 119560, Note_on_c, 0, 57, 0
2, 119578, Control_c, 0, 64, 0
2, 119622, Note_on_c, 0, 74, 0
2, 119628, Note_on_c, 0, 66, 77
2, 119640, Note_on_c, 0, 55, 70
2, 119677, Note_on_c, 0, 66, 0
2, 119691, Note_on_c, 0, 55, 0
2, 119744, Note_on_c, 0, 54, 63
2, 119752, Note_on_c, 0, 76, 76
2, 119756, Note_on_c, 0, 49, 57
2, 119806, Control_c, 0, 64, 37
2, 119812, Note_on_c, 0, 76, 0
2, 119820, Note_on_c, 0, 49, 0
2, 119821, Control_c, 0, 64, 64
2, 119836, Note_on_c, 0, 54, 0
2, 119837, Control_c, 0, 64, 65
2, 119852, Control_c, 0, 64, 66
2, 119853, Note_on_c, 0, 67, 73
2, 119866, Note_on_c, 0, 52, 65
2, 119888, Note_on_c, 0, 67, 0
2, 119897, Control_c, 0, 64, 65
2, 119913, Control_c, 0, 64, 64
2, 119920, Note_on_c, 0, 52, 0
2, 119927, Control_c, 0, 64, 55
2, 119942, Control_c, 0, 64, 0
2, 119986, Note_on_c, 0, 50, 77
2, 119995, Note_on_c, 0, 66, 65
2, 120035, Control_c, 0, 64, 54
2, 120050, Control_c, 0, 64, 66
2, 120066, Control_c, 0, 64, 69
2, 120066, Note_on_c, 0, 66, 0
2, 120081, Control_c, 0, 64, 71
2, 120102, Note_on_c, 0, 67, 65
2, 120141, Control_c, 0, 64, 69
2, 120151, Note_on_c, 0, 69, 56
2, 120157, Control_c, 0, 64, 65
2, 120171, Control_c, 0, 64, 34
2, 120187, Control_c, 0, 64, 0
2, 120189, Note_on_c, 0, 67, 0
2, 120191, Note_on_c, 0, 69, 0
2, 120199, Note_on_c, 0, 71, 65
2, 120259, Note_on_c, 0, 71, 0
2, 120286, Note_on_c, 0, 50, 0
2, 120307, Note_on_c, 0, 66, 69
2, 120309, Control_c, 0, 64, 26
2, 120319, Note_on_c, 0, 52, 69
2, 120324, Control_c, 0, 64, 33
2, 120362, Control_c, 0, 64, 32
2, 120371, Note_on_c, 0, 66, 0
2, 120376, Control_c, 0, 64, 32
2, 120380, Note_on_c, 0, 52, 0
2, 120392, Control_c, 0, 64, 31
2, 120422, Control_c, 0, 64, 32
2, 120432, Note_on_c, 0, 50, 72
2, 120433, Note_on_c, 0, 73, 78
2, 120438, Control_c, 0, 64, 32
2, 120473, Note_on_c, 0, 50, 0
2, 120484, Control_c, 0, 64, 32
2, 120491, Note_on_c, 0, 73, 0
2, 120514, Control_c, 0, 64, 31
2, 120532, Note_on_c, 0, 66, 70
2, 120539, Note_on_c, 0, 49, 71
2, 120574, Control_c, 0, 64, 0
2, 120591, Note_on_c, 0, 66, 0
2, 120593, Note_on_c, 0, 49, 0
2, 120643, Note_on_c, 0, 47, 74
2, 120649, Note_on_c, 0, 74, 78
2, 120695, Control_c, 0, 64, 63
2, 120710, Note_on_c, 0, 74, 0
2, 120711, Control_c, 0, 64, 71
2, 120727, Control_c, 0, 64, 76
2, 120742, Control_c, 0, 64, 78
2, 120747, Note_on_c, 0, 49, 75
2, 120748, Note_on_c, 0, 66, 75
2, 120758, Control_c, 0, 64, 79
2, 120762, Note_on_c, 0, 47, 0
2, 120788, Control_c, 0, 64, 79
2, 120803, Control_c, 0, 64, 80
2, 120803, Note_on_c, 0, 66, 0
2, 120812, Note_on_c, 0, 49, 0
2, 120819, Control_c, 0, 64, 80
2, 120850, Control_c, 0, 64, 80
2, 120866, Control_c, 0, 64, 78
2, 120869, Note_on_c, 0, 47, 74
2, 120873, Note_on_c, 0, 76, 79
2, 120880, Control_c, 0, 64, 72
2, 120895, Control_c, 0, 64, 56
2, 120911, Control_c, 0, 64, 0
2, 120927, Note_on_c, 0, 47, 0
2, 120932, Note_on_c, 0, 76, 0
2, 120970, Note_on_c, 0, 67, 75
2, 120973, Note_on_c, 0, 45, 73
2, 121016, Note_on_c, 0, 45, 0
2, 121052, Note_on_c, 0, 67, 0
2, 121080, Note_on_c, 0, 43, 83
2, 121087, Note_on_c, 0, 78, 85
2, 121137, Note_on_c, 0, 43, 0
2, 121159, Control_c, 0, 64, 24
2, 121174, Control_c, 0, 64, 0
2, 121178, Note_on_c, 0, 78, 0
2, 121190, Note_on_c, 0, 42, 84
2, 121198, Note_on_c, 0, 69, 69
2, 121246, Note_on_c, 0, 42, 0
2, 121260, Note_on_c, 0, 69, 0
2, 121316, Note_on_c, 0, 40, 90
2, 121316, Note_on_c, 0, 67, 73
2, 121359, Note_on_c, 0, 40, 0
2, 121408, Note_on_c, 0, 67, 0
2, 121424, Note_on_c, 0, 66, 71
2, 121492, Note_on_c, 0, 66, 0
2, 121532, Note_on_c, 0, 67, 72
2, 121537, Note_on_c, 0, 50, 91
2, 121538, Control_c, 0, 64, 41
2, 121554, Control_c, 0, 64, 0
2, 121572, Note_on_c, 0, 50, 0
2, 121613, Note_on_c, 0, 67, 0
2, 121639, Note_on_c, 0, 71, 71
2, 121726, Note_on_c, 0, 71, 0
2, 121750, Note_on_c, 0, 49, 85
2, 121753, Control_c, 0, 64, 57
2, 121753, Note_on_c, 0, 76, 72
2, 121767, Control_c, 0, 64, 54
2, 121782, Control_c, 0, 64, 48
2, 121790, Note_on_c, 0, 49, 0
2, 121798, Control_c, 0, 64, 47
2, 121813, Control_c, 0, 64, 49
2, 121828, Control_c, 0, 64, 49
2, 121830, Note_on_c, 0, 76, 0
2, 121843, Control_c, 0, 64, 49
2, 121858, Control_c, 0, 64, 48
2, 121865, Note_on_c, 0, 67, 74
2, 121897, Control_c, 0, 64, 49
2, 121913, Control_c, 0, 64, 50
2, 121927, Control_c, 0, 64, 51
2, 121942, Control_c, 0, 64, 51
2, 121957, Note_on_c, 0, 67, 0
2, 121984, Note_on_c, 0, 66, 70
2, 121987, Control_c, 0, 64, 51
2, 121989, Note_on_c, 0, 50, 82
2, 122003, Control_c, 0, 64, 49
2, 122018, Control_c, 0, 64, 46
2, 122030, Note_on_c, 0, 50, 0
2, 122034, Control_c, 0, 64, 46
2, 122056, Note_on_c, 0, 66, 0
2, 122063, Control_c, 0, 64, 46
2, 122079, Control_c, 0, 64, 47
2, 122094, Control_c, 0, 64, 47
2, 122097, Note_on_c, 0, 71, 66
2, 122157, Note_on_c, 0, 71, 0
2, 122170, Control_c, 0, 64, 48
2, 122184, Control_c, 0, 64, 48
2, 122200, Control_c, 0, 64, 49
2, 122208, Note_on_c, 0, 69, 71
2, 122216, Note_on_c, 0, 52, 75
2, 122246, Control_c, 0, 64, 49
2, 122258, Note_on_c, 0, 52, 0
2, 122274, Note_on_c, 0, 69, 0
2, 122300, Note_on_c, 0, 50, 75
2, 122303, Note_on_c, 0, 73, 79
2, 122306, Control_c, 0, 64, 50
2, 122362, Note_on_c, 0, 50, 0
2, 122389, Note_on_c, 0, 73, 0
2, 122412, Note_on_c, 0, 47, 69
2, 122413, Control_c, 0, 64, 50
2, 122416, Note_on_c, 0, 49, 69
2, 122419, Note_on_c, 0, 74, 85
2, 122444, Control_c, 0, 64, 51
2, 122463, Note_on_c, 0, 49, 0
2, 122478, Note_on_c, 0, 47, 0
2, 122490, Control_c, 0, 64, 50
2, 122516, Note_on_c, 0, 50, 78
2, 122536, Control_c, 0, 64, 51
2, 122558, Note_on_c, 0, 50, 0
2, 122566, Control_c, 0, 64, 45
2, 122581, Control_c, 0, 64, 0
2, 122654, Note_on_c, 0, 52, 86
2, 122659, Note_on_c, 0, 43, 72
2, 122691, Note_on_c, 0, 43, 0
2, 122695, Control_c, 0, 64, 64
2, 122710, Control_c, 0, 64, 72
2, 122714, Note_on_c, 0, 74, 0
2, 122726, Control_c, 0, 64, 77
2, 122740, Control_c, 0, 64, 79
2, 122756, Control_c, 0, 64, 81
2, 122771, Control_c, 0, 64, 85
2, 122786, Control_c, 0, 64, 89
2, 122802, Control_c, 0, 64, 94
2, 122817, Control_c, 0, 64, 98
2, 122831, Control_c, 0, 64, 100
2, 122838, Note_on_c, 0, 52, 0
2, 122847, Control_c, 0, 64, 102
2, 122878, Control_c, 0, 64, 102
2, 122892, Note_on_c, 0, 54, 72
2, 122892, Note_on_c, 0, 73, 87
2, 122893, Control_c, 0, 64, 96
2, 122896, Note_on_c, 0, 45, 65
2, 122907, Control_c, 0, 64, 80
2, 122923, Control_c, 0, 64, 55
2, 122938, Control_c, 0, 64, 0
2, 122963, Note_on_c, 0, 73, 0
2, 122968, Control_c, 0, 64, 61
2, 122983, Control_c, 0, 64, 72
2, 122988, Note_on_c, 0, 74, 67
2, 122999, Control_c, 0, 64, 82
2, 123012, Note_on_c, 0, 54, 0
2, 123014, Control_c, 0, 64, 87
2, 123027, Note_on_c, 0, 52, 62
2, 123039, Note_on_c, 0, 74, 0
2, 123048, Note_on_c, 0, 73, 70
2, 123059, Control_c, 0, 64, 87
2, 123090, Control_c, 0, 64, 88
2, 123092, Note_on_c, 0, 73, 0
2, 123095, Note_on_c, 0, 45, 0
2, 123099, Note_on_c, 0, 74, 67
2, 123101, Note_on_c, 0, 52, 0
2, 123104, Control_c, 0, 64, 88
2, 123120, Control_c, 0, 64, 89
2, 123138, Note_on_c, 0, 50, 60
2, 123150, Control_c, 0, 64, 89
2, 123162, Note_on_c, 0, 74, 0
2, 123163, Note_on_c, 0, 73, 72
2, 123180, Note_on_c, 0, 50, 0
2, 123208, Note_on_c, 0, 73, 0
2, 123220, Note_on_c, 0, 71, 75
2, 123223, Note_on_c, 0, 52, 64
2, 123260, Note_on_c, 0, 71, 0
2, 123269, Note_on_c, 0, 73, 71
2, 123285, Note_on_c, 0, 52, 0
2, 123289, Control_c, 0, 64, 89
2, 123304, Control_c, 0, 64, 83
2, 123320, Control_c, 0, 64, 69
2, 123325, Note_on_c, 0, 74, 78
2, 123334, Control_c, 0, 64, 0
2, 123338, Note_on_c, 0, 73, 0
2, 123346, Note_on_c, 0, 54, 73
2, 123350, Note_on_c, 0, 50, 67
2, 123376, Note_on_c, 0, 74, 0
2, 123494, Control_c, 0, 64, 38
2, 123509, Control_c, 0, 64, 45
2, 123525, Control_c, 0, 64, 44
2, 123539, Control_c, 0, 64, 30
2, 123553, Note_on_c, 0, 50, 0
2, 123555, Control_c, 0, 64, 0
2, 123557, Note_on_c, 0, 54, 0
2, 123575, Note_on_c, 0, 49, 64
2, 123578, Note_on_c, 0, 52, 67
2, 123586, Note_on_c, 0, 76, 76
2, 123611, Note_on_c, 0, 52, 0
2, 123614, Note_on_c, 0, 49, 0
2, 123670, Note_on_c, 0, 76, 0
2, 123680, Note_on_c, 0, 74, 80
2, 123756, Note_on_c, 0, 74, 0
2, 123791, Note_on_c, 0, 73, 84
2, 123795, Note_on_c, 0, 50, 78
2, 123799, Note_on_c, 0, 47, 76
2, 123826, Note_on_c, 0, 50, 0
2, 123836, Note_on_c, 0, 47, 0
2, 123843, Note_on_c, 0, 73, 0
2, 123897, Note_on_c, 0, 74, 78
2, 123962, Note_on_c, 0, 74, 0
2, 124027, Note_on_c, 0, 49, 85
2, 124027, Note_on_c, 0, 76, 78
2, 124030, Note_on_c, 0, 45, 74
2, 124041, Control_c, 0, 64, 66
2, 124056, Control_c, 0, 64, 71
2, 124070, Control_c, 0, 64, 73
2, 124071, Note_on_c, 0, 76, 0
2, 124102, Control_c, 0, 64, 74
2, 124118, Control_c, 0, 64, 76
2, 124133, Control_c, 0, 64, 78
2, 124148, Control_c, 0, 64, 80
2, 124164, Control_c, 0, 64, 81
2, 124186, Control_c, 0, 64, 82
2, 124202, Control_c, 0, 64, 83
2, 124217, Control_c, 0, 64, 84
2, 124231, Control_c, 0, 64, 86
2, 124247, Control_c, 0, 64, 88
2, 124262, Control_c, 0, 64, 90
2, 124278, Control_c, 0, 64, 90
2, 124301, Note_on_c, 0, 59, 92
2, 124305, Note_on_c, 0, 78, 87
2, 124307, Control_c, 0, 64, 90
2, 124307, Note_on_c, 0, 49, 0
2, 124323, Control_c, 0, 64, 87
2, 124338, Control_c, 0, 64, 77
2, 124354, Control_c, 0, 64, 59
2, 124369, Control_c, 0, 64, 0
2, 124384, Note_on_c, 0, 78, 0
2, 124412, Note_on_c, 0, 76, 80
2, 124478, Note_on_c, 0, 76, 0
2, 124515, Note_on_c, 0, 74, 81
2, 124577, Note_on_c, 0, 74, 0
2, 124626, Note_on_c, 0, 76, 83
2, 124687, Note_on_c, 0, 76, 0
2, 124706, Note_on_c, 0, 59, 0
2, 124749, Note_on_c, 0, 78, 91
2, 124759, Note_on_c, 0, 57, 67
2, 124794, Control_c, 0, 64, 64
2, 124802, Note_on_c, 0, 57, 0
2, 124809, Control_c, 0, 64, 76
2, 124815, Note_on_c, 0, 78, 0
2, 124824, Control_c, 0, 64, 80
2, 124839, Control_c, 0, 64, 81
2, 124869, Control_c, 0, 64, 82
2, 124885, Control_c, 0, 64, 84
2, 124900, Control_c, 0, 64, 86
2, 124917, Control_c, 0, 64, 88
2, 124932, Control_c, 0, 64, 89
2, 125006, Note_on_c, 0, 79, 83
2, 125015, Control_c, 0, 64, 88
2, 125024, Note_on_c, 0, 59, 61
2, 125030, Control_c, 0, 64, 83
2, 125046, Control_c, 0, 64, 75
2, 125061, Control_c, 0, 64, 61
2, 125076, Control_c, 0, 64, 0
2, 125087, Note_on_c, 0, 59, 0
2, 125107, Note_on_c, 0, 78, 85
2, 125124, Note_on_c, 0, 57, 55
2, 125129, Note_on_c, 0, 79, 0
2, 125165, Note_on_c, 0, 57, 0
2, 125194, Note_on_c, 0, 78, 0
2, 125223, Note_on_c, 0, 76, 80
2, 125230, Note_on_c, 0, 55, 64
2, 125272, Note_on_c, 0, 76, 0
2, 125304, Note_on_c, 0, 55, 0
2, 125325, Note_on_c, 0, 74, 74
2, 125338, Note_on_c, 0, 54, 51
2, 125382, Note_on_c, 0, 74, 0
2, 125400, Note_on_c, 0, 54, 0
2, 125445, Note_on_c, 0, 73, 80
2, 125456, Note_on_c, 0, 52, 57
2, 125516, Note_on_c, 0, 73, 0
2, 125519, Control_c, 0, 64, 64
2, 125534, Control_c, 0, 64, 72
2, 125550, Control_c, 0, 64, 78
2, 125564, Control_c, 0, 64, 81
2, 125579, Control_c, 0, 64, 83
2, 125595, Control_c, 0, 64, 85
2, 125609, Control_c, 0, 64, 89
2, 125624, Control_c, 0, 64, 92
2, 125640, Control_c, 0, 64, 95
2, 125655, Control_c, 0, 64, 96
2, 125671, Control_c, 0, 64, 97
2, 125683, Note_on_c, 0, 52, 0
2, 125700, Control_c, 0, 64, 98
2, 125718, Note_on_c, 0, 83, 90
2, 125724, Note_on_c, 0, 55, 66
2, 125739, Control_c, 0, 64, 97
2, 125770, Control_c, 0, 64, 96
2, 125786, Control_c, 0, 64, 92
2, 125799, Note_on_c, 0, 55, 0
2, 125800, Control_c, 0, 64, 85
2, 125815, Control_c, 0, 64, 75
2, 125824, Note_on_c, 0, 54, 62
2, 125831, Control_c, 0, 64, 64
2, 125846, Control_c, 0, 64, 0
2, 125910, Note_on_c, 0, 54, 0
2, 125939, Note_on_c, 0, 52, 64
2, 126033, Note_on_c, 0, 52, 0
2, 126051, Note_on_c, 0, 50, 66
2, 126153, Note_on_c, 0, 50, 0
2, 126167, Note_on_c, 0, 49, 65
2, 126273, Note_on_c, 0, 83, 0
2, 126288, Note_on_c, 0, 81, 69
2, 126402, Note_on_c, 0, 83, 72
2, 126406, Note_on_c, 0, 81, 0
2, 126488, Note_on_c, 0, 83, 0
2, 126524, Note_on_c, 0, 81, 74
2, 126576, Note_on_c, 0, 81, 0
2, 126631, Note_on_c, 0, 79, 69
2, 126641, Note_on_c, 0, 50, 45
2, 126662, Note_on_c, 0, 49, 0
2, 126699, Note_on_c, 0, 79, 0
2, 126706, Control_c, 0, 64, 19
2, 126721, Control_c, 0, 64, 63
2, 126721, Note_on_c, 0, 78, 69
2, 126735, Control_c, 0, 64, 68
2, 126751, Control_c, 0, 64, 72
2, 126751, Note_on_c, 0, 78, 0
2, 126763, Note_on_c, 0, 50, 0
2, 126766, Control_c, 0, 64, 75
2, 126781, Control_c, 0, 64, 77
2, 126797, Control_c, 0, 64, 77
2, 126872, Note_on_c, 0, 76, 57
2, 126873, Control_c, 0, 64, 77
2, 126888, Control_c, 0, 64, 73
2, 126898, Note_on_c, 0, 76, 0
2, 126902, Control_c, 0, 64, 66
2, 126918, Control_c, 0, 64, 0
2, 126920, Note_on_c, 0, 78, 55
2, 126937, Note_on_c, 0, 55, 47
2, 126980, Note_on_c, 0, 78, 0
2, 126993, Note_on_c, 0, 76, 58
2, 127016, Note_on_c, 0, 55, 0
2, 127030, Note_on_c, 0, 54, 52
2, 127037, Note_on_c, 0, 76, 0
2, 127047, Note_on_c, 0, 78, 70
2, 127086, Note_on_c, 0, 52, 55
2, 127093, Note_on_c, 0, 54, 0
2, 127108, Note_on_c, 0, 78, 0
2, 127122, Note_on_c, 0, 76, 63
2, 127164, Note_on_c, 0, 52, 0
2, 127170, Note_on_c, 0, 76, 0
2, 127172, Note_on_c, 0, 78, 69
2, 127187, Note_on_c, 0, 55, 59
2, 127228, Note_on_c, 0, 78, 0
2, 127251, Note_on_c, 0, 76, 62
2, 127255, Note_on_c, 0, 55, 0
2, 127299, Note_on_c, 0, 76, 0
2, 127301, Note_on_c, 0, 78, 68
2, 127314, Note_on_c, 0, 50, 67
2, 127360, Note_on_c, 0, 78, 0
2, 127372, Note_on_c, 0, 76, 62
2, 127380, Note_on_c, 0, 50, 0
2, 127418, Note_on_c, 0, 55, 59
2, 127422, Note_on_c, 0, 76, 0
2, 127426, Note_on_c, 0, 78, 72
2, 127482, Note_on_c, 0, 55, 0
2, 127482, Note_on_c, 0, 78, 0
2, 127493, Note_on_c, 0, 76, 62
2, 127535, Note_on_c, 0, 49, 78
2, 127548, Note_on_c, 0, 78, 72
2, 127550, Note_on_c, 0, 76, 0
2, 127603, Note_on_c, 0, 78, 0
2, 127612, Note_on_c, 0, 76, 58
2, 127669, Note_on_c, 0, 76, 0
2, 127670, Note_on_c, 0, 55, 42
2, 127671, Note_on_c, 0, 78, 64
2, 127672, Control_c, 0, 64, 21
2, 127686, Control_c, 0, 64, 63
2, 127701, Control_c, 0, 64, 67
2, 127717, Control_c, 0, 64, 70
2, 127722, Note_on_c, 0, 78, 0
2, 127728, Note_on_c, 0, 49, 0
2, 127732, Control_c, 0, 64, 71
2, 127736, Note_on_c, 0, 76, 65
2, 127738, Note_on_c, 0, 55, 0
2, 127747, Control_c, 0, 64, 72
2, 127771, Note_on_c, 0, 45, 0
2, 127772, Note_on_c, 0, 47, 71
2, 127789, Note_on_c, 0, 78, 67
2, 127790, Note_on_c, 0, 76, 0
2, 127838, Control_c, 0, 64, 71
2, 127840, Note_on_c, 0, 78, 0
2, 127845, Note_on_c, 0, 47, 0
2, 127853, Control_c, 0, 64, 68
2, 127857, Note_on_c, 0, 76, 68
2, 127868, Control_c, 0, 64, 62
2, 127883, Control_c, 0, 64, 0
2, 127903, Note_on_c, 0, 55, 55
2, 127909, Note_on_c, 0, 76, 0
2, 127913, Note_on_c, 0, 78, 69
2, 127957, Note_on_c, 0, 55, 0
2, 127963, Note_on_c, 0, 78, 0
2, 127976, Note_on_c, 0, 76, 67
2, 128007, Note_on_c, 0, 45, 64
2, 128032, Note_on_c, 0, 76, 0
2, 128038, Note_on_c, 0, 78, 71
2, 128043, Control_c, 0, 64, 56
2, 128058, Control_c, 0, 64, 64
2, 128058, Note_on_c, 0, 45, 0
2, 128073, Control_c, 0, 64, 65
2, 128088, Control_c, 0, 64, 66
2, 128092, Note_on_c, 0, 78, 0
2, 128103, Control_c, 0, 64, 66
2, 128109, Note_on_c, 0, 76, 64
2, 128119, Control_c, 0, 64, 68
2, 128129, Note_on_c, 0, 55, 60
2, 128134, Control_c, 0, 64, 69
2, 128148, Note_on_c, 0, 76, 0
2, 128149, Control_c, 0, 64, 71
2, 128156, Note_on_c, 0, 78, 63
2, 128164, Control_c, 0, 64, 73
2, 128174, Note_on_c, 0, 55, 0
2, 128179, Control_c, 0, 64, 74
2, 128195, Control_c, 0, 64, 74
2, 128231, Note_on_c, 0, 76, 72
2, 128231, Note_on_c, 0, 78, 0
2, 128242, Control_c, 0, 64, 74
2, 128256, Control_c, 0, 64, 73
2, 128264, Note_on_c, 0, 54, 60
2, 128272, Control_c, 0, 64, 67
2, 128287, Control_c, 0, 64, 48
2, 128301, Control_c, 0, 64, 0
2, 128376, Note_on_c, 0, 81, 68
2, 128380, Note_on_c, 0, 76, 0
2, 128399, Note_on_c, 0, 55, 53
2, 128401, Note_on_c, 0, 54, 0
2, 128423, Note_on_c, 0, 79, 68
2, 128444, Note_on_c, 0, 55, 0
2, 128460, Note_on_c, 0, 81, 0
2, 128479, Note_on_c, 0, 57, 60
2, 128481, Note_on_c, 0, 78, 75
2, 128486, Note_on_c, 0, 79, 0
2, 128564, Note_on_c, 0, 78, 0
2, 128584, Note_on_c, 0, 81, 63
2, 128617, Note_on_c, 0, 52, 57
2, 128618, Note_on_c, 0, 81, 0
2, 128683, Note_on_c, 0, 52, 0
2, 128703, Note_on_c, 0, 76, 66
2, 128725, Note_on_c, 0, 50, 54
2, 128731, Note_on_c, 0, 76, 0
2, 128809, Note_on_c, 0, 50, 0
2, 128823, Note_on_c, 0, 49, 61
2, 128823, Note_on_c, 0, 81, 61
2, 128848, Note_on_c, 0, 81, 0
2, 128869, Note_on_c, 0, 57, 0
2, 128911, Note_on_c, 0, 49, 0
2, 128921, Note_on_c, 0, 47, 54
2, 128935, Note_on_c, 0, 74, 71
2, 128963, Control_c, 0, 64, 64
2, 128978, Control_c, 0, 64, 68
2, 128993, Control_c, 0, 64, 69
2, 128999, Note_on_c, 0, 74, 0
2, 129024, Control_c, 0, 64, 70
2, 129040, Control_c, 0, 64, 71
2, 129047, Note_on_c, 0, 55, 54
2, 129053, Note_on_c, 0, 81, 61
2, 129055, Control_c, 0, 64, 73
2, 129071, Control_c, 0, 64, 74
2, 129086, Control_c, 0, 64, 75
2, 129109, Note_on_c, 0, 81, 0
2, 129145, Control_c, 0, 64, 74
2, 129160, Note_on_c, 0, 54, 62
2, 129161, Control_c, 0, 64, 71
2, 129173, Note_on_c, 0, 73, 60
2, 129175, Control_c, 0, 64, 65
2, 129191, Control_c, 0, 64, 0
2, 129194, Note_on_c, 0, 55, 0
2, 129212, Note_on_c, 0, 73, 0
2, 129255, Note_on_c, 0, 54, 0
2, 129263, Note_on_c, 0, 52, 60
2, 129282, Note_on_c, 0, 81, 69
2, 129316, Note_on_c, 0, 81, 0
2, 129358, Note_on_c, 0, 52, 0
2, 129396, Note_on_c, 0, 50, 52
2, 129396, Note_on_c, 0, 71, 66
2, 129442, Note_on_c, 0, 71, 0
2, 129497, Note_on_c, 0, 81, 73
2, 129504, Note_on_c, 0, 50, 0
2, 129515, Note_on_c, 0, 54, 46
2, 129561, Note_on_c, 0, 81, 0
2, 129624, Note_on_c, 0, 54, 0
2, 129624, Note_on_c, 0, 79, 81
2, 129629, Note_on_c, 0, 52, 56
2, 129689, Note_on_c, 0, 52, 0
2, 129735, Note_on_c, 0, 54, 65
2, 129737, Note_on_c, 0, 78, 84
2, 129748, Note_on_c, 0, 79, 0
2, 129807, Note_on_c, 0, 47, 0
2, 129814, Note_on_c, 0, 54, 0
2, 129840, Note_on_c, 0, 78, 0
2, 129848, Note_on_c, 0, 55, 64
2, 129864, Note_on_c, 0, 76, 73
2, 129930, Note_on_c, 0, 76, 0
2, 129967, Note_on_c, 0, 50, 57
2, 129967, Note_on_c, 0, 79, 70
2, 130016, Note_on_c, 0, 79, 0
2, 130075, Note_on_c, 0, 49, 64
2, 130089, Note_on_c, 0, 74, 71
2, 130096, Note_on_c, 0, 50, 0
2, 130117, Note_on_c, 0, 74, 0
2, 130160, Note_on_c, 0, 49, 0
2, 130188, Note_on_c, 0, 47, 67
2, 130194, Note_on_c, 0, 79, 68
2, 130235, Note_on_c, 0, 79, 0
2, 130282, Note_on_c, 0, 47, 0
2, 130302, Note_on_c, 0, 45, 62
2, 130322, Note_on_c, 0, 73, 75
2, 130411, Note_on_c, 0, 55, 0
2, 130422, Note_on_c, 0, 54, 58
2, 130439, Note_on_c, 0, 79, 66
2, 130469, Note_on_c, 0, 73, 0
2, 130499, Note_on_c, 0, 54, 0
2, 130520, Note_on_c, 0, 79, 0
2, 130552, Note_on_c, 0, 52, 55
2, 130561, Note_on_c, 0, 71, 67
2, 130614, Note_on_c, 0, 52, 0
2, 130615, Note_on_c, 0, 71, 0
2, 130657, Note_on_c, 0, 79, 70
2, 130659, Note_on_c, 0, 50, 52
2, 130708, Note_on_c, 0, 50, 0
2, 130714, Note_on_c, 0, 79, 0
2, 130764, Note_on_c, 0, 49, 55
2, 130778, Note_on_c, 0, 69, 70
2, 130838, Note_on_c, 0, 69, 0
2, 130876, Note_on_c, 0, 49, 0
2, 130885, Note_on_c, 0, 52, 53
2, 130887, Note_on_c, 0, 79, 68
2, 130945, Note_on_c, 0, 52, 0
2, 130945, Note_on_c, 0, 79, 0
2, 130955, Control_c, 0, 64, 39
2, 130970, Control_c, 0, 64, 63
2, 130985, Control_c, 0, 64, 66
2, 130987, Note_on_c, 0, 45, 0
2, 130999, Note_on_c, 0, 78, 75
2, 131001, Control_c, 0, 64, 67
2, 131011, Note_on_c, 0, 50, 61
2, 131016, Control_c, 0, 64, 68
2, 131032, Control_c, 0, 64, 69
2, 131046, Control_c, 0, 64, 70
2, 131061, Control_c, 0, 64, 71
2, 131077, Control_c, 0, 64, 72
2, 131089, Note_on_c, 0, 50, 0
2, 131098, Note_on_c, 0, 78, 0
2, 131115, Control_c, 0, 64, 72
2, 131125, Note_on_c, 0, 76, 63
2, 131132, Note_on_c, 0, 52, 70
2, 131177, Note_on_c, 0, 52, 0
2, 131206, Control_c, 0, 64, 72
2, 131227, Note_on_c, 0, 76, 0
2, 131236, Control_c, 0, 64, 71
2, 131248, Note_on_c, 0, 74, 66
2, 131251, Control_c, 0, 64, 69
2, 131258, Note_on_c, 0, 54, 69
2, 131267, Control_c, 0, 64, 66
2, 131282, Control_c, 0, 64, 55
2, 131297, Control_c, 0, 64, 0
2, 131323, Note_on_c, 0, 74, 0
2, 131382, Note_on_c, 0, 78, 67
2, 131407, Note_on_c, 0, 48, 68
2, 131453, Note_on_c, 0, 78, 0
2, 131499, Note_on_c, 0, 48, 0
2, 131513, Note_on_c, 0, 47, 71
2, 131521, Note_on_c, 0, 72, 67
2, 131575, Note_on_c, 0, 72, 0
2, 131630, Note_on_c, 0, 45, 63
2, 131630, Note_on_c, 0, 47, 0
2, 131637, Note_on_c, 0, 78, 73
2, 131707, Note_on_c, 0, 78, 0
2, 131736, Note_on_c, 0, 54, 0
2, 131745, Note_on_c, 0, 45, 0
2, 131755, Note_on_c, 0, 43, 68
2, 131765, Note_on_c, 0, 71, 69
2, 131799, Control_c, 0, 64, 39
2, 131814, Control_c, 0, 64, 64
2, 131830, Control_c, 0, 64, 67
2, 131845, Control_c, 0, 64, 68
2, 131851, Note_on_c, 0, 71, 0
2, 131883, Control_c, 0, 64, 68
2, 131894, Note_on_c, 0, 47, 60
2, 131894, Note_on_c, 0, 78, 65
2, 131913, Control_c, 0, 64, 69
2, 131950, Note_on_c, 0, 43, 0
2, 131971, Note_on_c, 0, 78, 0
2, 131989, Control_c, 0, 64, 68
2, 131996, Note_on_c, 0, 47, 0
2, 132004, Control_c, 0, 64, 64
2, 132006, Note_on_c, 0, 49, 60
2, 132008, Note_on_c, 0, 69, 71
2, 132018, Control_c, 0, 64, 45
2, 132034, Control_c, 0, 64, 0
2, 132080, Note_on_c, 0, 69, 0
2, 132084, Note_on_c, 0, 49, 0
2, 132100, Note_on_c, 0, 51, 63
2, 132117, Note_on_c, 0, 78, 69
2, 132162, Note_on_c, 0, 78, 0
2, 132180, Note_on_c, 0, 51, 0
2, 132223, Note_on_c, 0, 52, 60
2, 132235, Note_on_c, 0, 67, 68
2, 132264, Note_on_c, 0, 52, 0
2, 132296, Note_on_c, 0, 67, 0
2, 132337, Note_on_c, 0, 78, 70
2, 132345, Note_on_c, 0, 54, 57
2, 132395, Note_on_c, 0, 78, 0
2, 132399, Note_on_c, 0, 54, 0
2, 132415, Control_c, 0, 67, 9
2, 132431, Control_c, 0, 67, 22
2, 132445, Control_c, 0, 67, 44
2, 132459, Note_on_c, 0, 55, 59
2, 132460, Control_c, 0, 67, 76
2, 132467, Note_on_c, 0, 76, 68
2, 132476, Control_c, 0, 67, 110
2, 132491, Control_c, 0, 67, 127
2, 132543, Note_on_c, 0, 55, 0
2, 132550, Note_on_c, 0, 76, 0
2, 132571, Note_on_c, 0, 74, 71
2, 132579, Note_on_c, 0, 57, 51
2, 132649, Note_on_c, 0, 74, 0
2, 132656, Note_on_c, 0, 57, 0
2, 132687, Note_on_c, 0, 55, 52
2, 132698, Note_on_c, 0, 73, 73
2, 132748, Note_on_c, 0, 55, 0
2, 132757, Note_on_c, 0, 73, 0
2, 132806, Note_on_c, 0, 54, 52
2, 132812, Note_on_c, 0, 76, 65
2, 132847, Note_on_c, 0, 76, 0
2, 132862, Note_on_c, 0, 54, 0
2, 132922, Note_on_c, 0, 52, 53
2, 132930, Note_on_c, 0, 71, 71
2, 132962, Note_on_c, 0, 52, 0
2, 133000, Note_on_c, 0, 71, 0
2, 133034, Note_on_c, 0, 50, 52
2, 133037, Note_on_c, 0, 76, 69
2, 133085, Note_on_c, 0, 76, 0
2, 133094, Note_on_c, 0, 50, 0
2, 133151, Note_on_c, 0, 49, 57
2, 133158, Note_on_c, 0, 69, 78
2, 133263, Note_on_c, 0, 45, 56
2, 133273, Note_on_c, 0, 76, 67
2, 133276, Note_on_c, 0, 69, 0
2, 133294, Note_on_c, 0, 49, 0
2, 133344, Note_on_c, 0, 76, 0
2, 133366, Note_on_c, 0, 45, 0
2, 133376, Note_on_c, 0, 47, 67
2, 133388, Note_on_c, 0, 67, 72
2, 133449, Note_on_c, 0, 67, 0
2, 133459, Note_on_c, 0, 47, 0
2, 133497, Note_on_c, 0, 49, 76
2, 133500, Note_on_c, 0, 76, 63
2, 133543, Note_on_c, 0, 76, 0
2, 133550, Note_on_c, 0, 49, 0
2, 133612, Note_on_c, 0, 50, 69
2, 133625, Note_on_c, 0, 66, 73
2, 133655, Note_on_c, 0, 66, 0
2, 133672, Note_on_c, 0, 50, 0
2, 133728, Note_on_c, 0, 52, 58
2, 133736, Note_on_c, 0, 76, 64
2, 133764, Note_on_c, 0, 76, 0
2, 133765, Note_on_c, 0, 52, 0
2, 133834, Note_on_c, 0, 54, 62
2, 133855, Note_on_c, 0, 74, 70
2, 133895, Note_on_c, 0, 54, 0
2, 133917, Note_on_c, 0, 74, 0
2, 133951, Note_on_c, 0, 55, 48
2, 133964, Note_on_c, 0, 66, 74
2, 134005, Note_on_c, 0, 55, 0
2, 134035, Note_on_c, 0, 66, 0
2, 134081, Note_on_c, 0, 57, 59
2, 134092, Note_on_c, 0, 64, 67
2, 134116, Note_on_c, 0, 57, 0
2, 134131, Note_on_c, 0, 64, 0
2, 134196, Note_on_c, 0, 67, 70
2, 134236, Note_on_c, 0, 67, 0
2, 134311, Note_on_c, 0, 74, 65
2, 134326, Note_on_c, 0, 45, 60
2, 134354, Control_c, 0, 64, 49
2, 134369, Control_c, 0, 64, 61
2, 134372, Note_on_c, 0, 45, 0
2, 134384, Control_c, 0, 64, 64
2, 134396, Note_on_c, 0, 74, 0
2, 134399, Control_c, 0, 64, 65
2, 134414, Control_c, 0, 64, 65
2, 134419, Note_on_c, 0, 73, 63
2, 134453, Note_on_c, 0, 73, 0
2, 134460, Control_c, 0, 64, 65
2, 134475, Control_c, 0, 64, 64
2, 134521, Control_c, 0, 64, 64
2, 134536, Control_c, 0, 64, 62
2, 134551, Control_c, 0, 64, 41
2, 134566, Control_c, 0, 64, 0
2, 134606, Note_on_c, 0, 74, 58
2, 134613, Note_on_c, 0, 50, 59
2, 134637, Note_on_c, 0, 74, 0
2, 134643, Note_on_c, 0, 50, 0
2, 134679, Note_on_c, 0, 76, 46
2, 134708, Note_on_c, 0, 76, 0
2, 134734, Note_on_c, 0, 74, 56
2, 134759, Note_on_c, 0, 74, 0
2, 134782, Note_on_c, 0, 76, 55
2, 134824, Note_on_c, 0, 76, 0
2, 134845, Note_on_c, 0, 74, 55
2, 134869, Note_on_c, 0, 48, 57
2, 134875, Note_on_c, 0, 74, 0
2, 134895, Note_on_c, 0, 76, 47
2, 134940, Note_on_c, 0, 48, 0
2, 134948, Note_on_c, 0, 76, 0
2, 134974, Note_on_c, 0, 74, 49
2, 134979, Note_on_c, 0, 50, 49
2, 134999, Note_on_c, 0, 74, 0
2, 135016, Note_on_c, 0, 76, 52
2, 135034, Note_on_c, 0, 50, 0
2, 135065, Note_on_c, 0, 76, 0
2, 135087, Note_on_c, 0, 52, 34
2, 135094, Note_on_c, 0, 74, 48
2, 135126, Note_on_c, 0, 74, 0
2, 135138, Note_on_c, 0, 76, 48
2, 135145, Note_on_c, 0, 52, 0
2, 135183, Note_on_c, 0, 50, 43
2, 135190, Note_on_c, 0, 76, 0
2, 135222, Note_on_c, 0, 74, 40
2, 135229, Note_on_c, 0, 50, 0
2, 135247, Note_on_c, 0, 74, 0
2, 135261, Note_on_c, 0, 76, 49
2, 135298, Note_on_c, 0, 48, 55
2, 135302, Note_on_c, 0, 76, 0
2, 135324, Note_on_c, 0, 48, 0
2, 135332, Note_on_c, 0, 74, 53
2, 135356, Note_on_c, 0, 74, 0
2, 135379, Note_on_c, 0, 76, 50
2, 135421, Note_on_c, 0, 76, 0
2, 135431, Note_on_c, 0, 74, 65
2, 135481, Note_on_c, 0, 74, 0
2, 135494, Note_on_c, 0, 76, 53
2, 135539, Note_on_c, 0, 76, 0
2, 135543, Note_on_c, 0, 74, 48
2, 135564, Note_on_c, 0, 47, 51
2, 135645, Note_on_c, 0, 47, 0
2, 135676, Note_on_c, 0, 48, 47
2, 135779, Note_on_c, 0, 48, 0
2, 135814, Note_on_c, 0, 50, 45
2, 135900, Note_on_c, 0, 50, 0
2, 135926, Note_on_c, 0, 48, 55
2, 136008, Note_on_c, 0, 48, 0
2, 136059, Note_on_c, 0, 47, 59
2, 136159, Note_on_c, 0, 67, 56
2, 136238, Note_on_c, 0, 67, 0
2, 136262, Note_on_c, 0, 74, 0
2, 136262, Note_on_c, 0, 74, 15
2, 136276, Note_on_c, 0, 47, 0
2, 136287, Note_on_c, 0, 48, 69
2, 136287, Note_on_c, 0, 65, 57
2, 136320, Note_on_c, 0, 65, 0
2, 136321, Note_on_c, 0, 48, 0
2, 136381, Note_on_c, 0, 64, 61
2, 136486, Note_on_c, 0, 64, 0
2, 136517, Note_on_c, 0, 50, 61
2, 136525, Note_on_c, 0, 62, 54
2, 136548, Note_on_c, 0, 50, 0
2, 136574, Note_on_c, 0, 62, 0
2, 136637, Note_on_c, 0, 65, 54
2, 136736, Note_on_c, 0, 65, 0
2, 136743, Note_on_c, 0, 74, 0
2, 136758, Note_on_c, 0, 55, 62
2, 136770, Note_on_c, 0, 64, 49
2, 136829, Note_on_c, 0, 64, 0
2, 136871, Note_on_c, 0, 65, 58
2, 136958, Note_on_c, 0, 65, 0
2, 136997, Note_on_c, 0, 45, 57
2, 137000, Note_on_c, 0, 64, 53
2, 137008, Note_on_c, 0, 72, 49
2, 137023, Note_on_c, 0, 55, 0
2, 137030, Note_on_c, 0, 64, 0
2, 137107, Note_on_c, 0, 62, 52
2, 137185, Note_on_c, 0, 62, 0
2, 137251, Note_on_c, 0, 60, 41
2, 137284, Note_on_c, 0, 60, 0
2, 137374, Note_on_c, 0, 64, 42
2, 137376, Note_on_c, 0, 72, 0
2, 137445, Note_on_c, 0, 64, 0
2, 137458, Note_on_c, 0, 45, 0
2, 137470, Note_on_c, 0, 47, 62
2, 137491, Note_on_c, 0, 62, 49
2, 137543, Note_on_c, 0, 62, 0
2, 137587, Note_on_c, 0, 64, 53
2, 137672, Note_on_c, 0, 64, 0
2, 137690, Note_on_c, 0, 47, 0
2, 137711, Note_on_c, 0, 48, 69
2, 137716, Note_on_c, 0, 62, 54
2, 137739, Note_on_c, 0, 62, 0
2, 137747, Note_on_c, 0, 48, 0
2, 137756, Note_on_c, 0, 71, 38
2, 137809, Note_on_c, 0, 60, 60
2, 137895, Note_on_c, 0, 60, 0
2, 137927, Note_on_c, 0, 50, 70
2, 137939, Note_on_c, 0, 59, 57
2, 137961, Note_on_c, 0, 50, 0
2, 137992, Note_on_c, 0, 59, 0
2, 138057, Note_on_c, 0, 62, 56
2, 138155, Note_on_c, 0, 62, 0
2, 138179, Note_on_c, 0, 52, 65
2, 138185, Note_on_c, 0, 60, 56
2, 138216, Note_on_c, 0, 71, 0
2, 138268, Note_on_c, 0, 60, 0
2, 138303, Note_on_c, 0, 62, 57
2, 138400, Note_on_c, 0, 62, 0
2, 138427, Note_on_c, 0, 52, 0
2, 138430, Note_on_c, 0, 42, 58
2, 138430, Note_on_c, 0, 60, 57
2, 138449, Note_on_c, 0, 69, 48
2, 138464, Note_on_c, 0, 60, 0
2, 138547, Note_on_c, 0, 59, 52
2, 138628, Note_on_c, 0, 59, 0
2, 138672, Note_on_c, 0, 57, 50
2, 138721, Note_on_c, 0, 57, 0
2, 138778, Note_on_c, 0, 60, 52
2, 138861, Note_on_c, 0, 60, 0
2, 138883, Note_on_c, 0, 42, 0
2, 138910, Note_on_c, 0, 43, 61
2, 138914, Note_on_c, 0, 59, 55
2, 138970, Note_on_c, 0, 43, 0
2, 138999, Note_on_c, 0, 69, 0
2, 139028, Note_on_c, 0, 67, 64
2, 139147, Note_on_c, 0, 67, 0
2, 139155, Note_on_c, 0, 42, 56
2, 139159, Note_on_c, 0, 69, 64
2, 139217, Note_on_c, 0, 42, 0
2, 139242, Note_on_c, 0, 69, 0
2, 139274, Note_on_c, 0, 67, 63
2, 139277, Note_on_c, 0, 43, 46
2, 139327, Note_on_c, 0, 43, 0
2, 139363, Note_on_c, 0, 67, 0
2, 139390, Note_on_c, 0, 45, 46
2, 139399, Note_on_c, 0, 66, 62
2, 139420, Note_on_c, 0, 45, 0
2, 139452, Note_on_c, 0, 66, 0
2, 139488, Note_on_c, 0, 59, 0
2, 139501, Note_on_c, 0, 67, 58
2, 139505, Note_on_c, 0, 47, 44
2, 139581, Note_on_c, 0, 47, 0
2, 139592, Note_on_c, 0, 67, 0
2, 139660, Note_on_c, 0, 36, 59
2, 139666, Note_on_c, 0, 66, 62
2, 139668, Note_on_c, 0, 57, 52
2, 139683, Control_c, 0, 64, 56
2, 139691, Note_on_c, 0, 57, 0
2, 139692, Note_on_c, 0, 36, 0
2, 139697, Control_c, 0, 64, 67
2, 139712, Control_c, 0, 64, 72
2, 139714, Note_on_c, 0, 66, 0
2, 139728, Control_c, 0, 64, 76
2, 139742, Control_c, 0, 64, 77
2, 139773, Control_c, 0, 64, 78
2, 139817, Note_on_c, 0, 62, 60
2, 139835, Control_c, 0, 64, 77
2, 139850, Control_c, 0, 64, 75
2, 139853, Note_on_c, 0, 64, 68
2, 139858, Note_on_c, 0, 62, 0
2, 139864, Control_c, 0, 64, 70
2, 139880, Control_c, 0, 64, 54
2, 139895, Control_c, 0, 64, 0
2, 139920, Note_on_c, 0, 66, 67
2, 139927, Note_on_c, 0, 60, 55
2, 139927, Note_on_c, 0, 64, 0
2, 139972, Note_on_c, 0, 60, 0
2, 140001, Note_on_c, 0, 66, 0
2, 140020, Note_on_c, 0, 62, 69
2, 140048, Note_on_c, 0, 59, 50
2, 140066, Note_on_c, 0, 62, 0
2, 140086, Note_on_c, 0, 59, 0
2, 140137, Note_on_c, 0, 57, 55
2, 140140, Note_on_c, 0, 67, 66
2, 140169, Note_on_c, 0, 57, 0
2, 140175, Note_on_c, 0, 67, 0
2, 140242, Note_on_c, 0, 62, 69
2, 140244, Note_on_c, 0, 55, 62
2, 140284, Note_on_c, 0, 55, 0
2, 140287, Note_on_c, 0, 62, 0
2, 140369, Note_on_c, 0, 69, 72
2, 140372, Note_on_c, 0, 54, 65
2, 140388, Control_c, 0, 64, 59
2, 140404, Control_c, 0, 64, 64
2, 140419, Control_c, 0, 64, 65
2, 140434, Control_c, 0, 64, 66
2, 140434, Note_on_c, 0, 69, 0
2, 140443, Note_on_c, 0, 54, 0
2, 140449, Control_c, 0, 64, 67
2, 140464, Control_c, 0, 64, 69
2, 140477, Note_on_c, 0, 62, 65
2, 140479, Note_on_c, 0, 52, 67
2, 140480, Control_c, 0, 64, 71
2, 140496, Control_c, 0, 64, 71
2, 140511, Control_c, 0, 64, 72
2, 140520, Note_on_c, 0, 52, 0
2, 140527, Control_c, 0, 64, 71
2, 140543, Note_on_c, 0, 62, 0
2, 140557, Control_c, 0, 64, 69
2, 140572, Control_c, 0, 64, 63
2, 140586, Control_c, 0, 64, 0
2, 140589, Note_on_c, 0, 50, 74
2, 140601, Note_on_c, 0, 71, 62
2, 140634, Note_on_c, 0, 71, 0
2, 140635, Note_on_c, 0, 50, 0
2, 140708, Note_on_c, 0, 48, 57
2, 140710, Note_on_c, 0, 62, 61
2, 140739, Note_on_c, 0, 48, 0
2, 140756, Note_on_c, 0, 62, 0
2, 140806, Note_on_c, 0, 47, 68
2, 140823, Note_on_c, 0, 72, 55
2, 140853, Note_on_c, 0, 47, 0
2, 140870, Note_on_c, 0, 72, 0
2, 140923, Note_on_c, 0, 45, 64
2, 140926, Note_on_c, 0, 62, 53
2, 140955, Note_on_c, 0, 62, 0
2, 140966, Note_on_c, 0, 45, 0
2, 140968, Control_c, 0, 64, 44
2, 140983, Control_c, 0, 64, 51
2, 140998, Control_c, 0, 64, 50
2, 141013, Control_c, 0, 64, 49
2, 141026, Note_on_c, 0, 43, 60
2, 141036, Note_on_c, 0, 71, 61
2, 141044, Control_c, 0, 64, 49
2, 141055, Note_on_c, 0, 71, 0
2, 141059, Control_c, 0, 64, 48
2, 141082, Control_c, 0, 64, 47
2, 141097, Control_c, 0, 64, 45
2, 141105, Note_on_c, 0, 43, 0
2, 141112, Control_c, 0, 64, 44
2, 141127, Control_c, 0, 64, 42
2, 141134, Note_on_c, 0, 45, 64
2, 141142, Control_c, 0, 64, 41
2, 141152, Note_on_c, 0, 79, 69
2, 141158, Control_c, 0, 64, 40
2, 141194, Note_on_c, 0, 45, 0
2, 141203, Note_on_c, 0, 79, 0
2, 141218, Control_c, 0, 64, 40
2, 141240, Note_on_c, 0, 47, 72
2, 141261, Note_on_c, 0, 77, 73
2, 141292, Note_on_c, 0, 47, 0
2, 141294, Control_c, 0, 64, 40
2, 141328, Note_on_c, 0, 77, 0
2, 141341, Control_c, 0, 64, 40
2, 141355, Note_on_c, 0, 43, 65
2, 141357, Control_c, 0, 64, 41
2, 141363, Note_on_c, 0, 76, 76
2, 141404, Note_on_c, 0, 43, 0
2, 141417, Control_c, 0, 64, 40
2, 141419, Note_on_c, 0, 76, 0
2, 141447, Control_c, 0, 64, 41
2, 141462, Control_c, 0, 64, 41
2, 141470, Note_on_c, 0, 74, 73
2, 141471, Note_on_c, 0, 48, 79
2, 141493, Control_c, 0, 64, 42
2, 141524, Note_on_c, 0, 74, 0
2, 141532, Note_on_c, 0, 48, 0
2, 141554, Control_c, 0, 64, 41
2, 141570, Note_on_c, 0, 72, 73
2, 141574, Note_on_c, 0, 43, 73
2, 141583, Control_c, 0, 64, 42
2, 141599, Control_c, 0, 64, 42
2, 141611, Note_on_c, 0, 72, 0
2, 141614, Control_c, 0, 64, 43
2, 141626, Note_on_c, 0, 43, 0
2, 141687, Note_on_c, 0, 50, 83
2, 141693, Note_on_c, 0, 71, 76
2, 141705, Control_c, 0, 64, 44
2, 141721, Control_c, 0, 64, 44
2, 141736, Control_c, 0, 64, 45
2, 141736, Control_c, 0, 67, 103
2, 141751, Control_c, 0, 64, 46
2, 141751, Control_c, 0, 67, 74
2, 141766, Control_c, 0, 67, 39
2, 141781, Control_c, 0, 64, 45
2, 141781, Control_c, 0, 67, 15
2, 141794, Note_on_c, 0, 71, 0
2, 141797, Control_c, 0, 64, 45
2, 141797, Control_c, 0, 67, 0
2, 141798, Note_on_c, 0, 43, 60
2, 141803, Note_on_c, 0, 69, 74
2, 141812, Control_c, 0, 64, 42
2, 141827, Control_c, 0, 64, 22
2, 141849, Control_c, 0, 64, 0
2, 141865, Note_on_c, 0, 43, 0
2, 141878, Note_on_c, 0, 50, 0
2, 141880, Note_on_c, 0, 69, 0
2, 141923, Note_on_c, 0, 52, 69
2, 141924, Note_on_c, 0, 67, 73
2, 141971, Note_on_c, 0, 52, 0
2, 141972, Note_on_c, 0, 67, 0
2, 142029, Note_on_c, 0, 65, 76
2, 142036, Note_on_c, 0, 43, 62
2, 142069, Note_on_c, 0, 43, 0
2, 142070, Note_on_c, 0, 65, 0
2, 142147, Note_on_c, 0, 64, 72
2, 142149, Note_on_c, 0, 53, 69
2, 142190, Note_on_c, 0, 64, 0
2, 142204, Note_on_c, 0, 53, 0
2, 142253, Note_on_c, 0, 62, 78
2, 142259, Note_on_c, 0, 43, 69
2, 142304, Note_on_c, 0, 43, 0
2, 142309, Note_on_c, 0, 62, 0
2, 142362, Note_on_c, 0, 60, 72
2, 142367, Note_on_c, 0, 52, 73
2, 142389, Note_on_c, 0, 60, 0
2, 142397, Control_c, 0, 64, 63
2, 142412, Control_c, 0, 64, 89
2, 142426, Control_c, 0, 64, 95
2, 142437, Note_on_c, 0, 52, 0
2, 142442, Control_c, 0, 64, 95
2, 142448, Note_on_c, 0, 40, 78
2, 142481, Note_on_c, 0, 76, 69
2, 142488, Control_c, 0, 64, 96
2, 142503, Control_c, 0, 64, 97
2, 142514, Note_on_c, 0, 42, 67
2, 142519, Control_c, 0, 64, 97
2, 142534, Note_on_c, 0, 40, 0
2, 142545, Note_on_c, 0, 76, 0
2, 142560, Note_on_c, 0, 41, 43
2, 142565, Note_on_c, 0, 44, 87
2, 142579, Control_c, 0, 64, 96
2, 142584, Note_on_c, 0, 74, 75
2, 142595, Control_c, 0, 64, 89
2, 142598, Note_on_c, 0, 41, 0
2, 142598, Note_on_c, 0, 42, 0
2, 142616, Control_c, 0, 64, 78
2, 142631, Control_c, 0, 64, 57
2, 142631, Note_on_c, 0, 44, 0
2, 142647, Control_c, 0, 64, 0
2, 142653, Note_on_c, 0, 74, 0
2, 142695, Note_on_c, 0, 40, 68
2, 142707, Note_on_c, 0, 72, 76
2, 142757, Note_on_c, 0, 72, 0
2, 142760, Note_on_c, 0, 40, 0
2, 142811, Note_on_c, 0, 45, 84
2, 142822, Note_on_c, 0, 71, 67
2, 142855, Note_on_c, 0, 71, 0
2, 142868, Note_on_c, 0, 45, 0
2, 142912, Note_on_c, 0, 40, 80
2, 142916, Note_on_c, 0, 69, 70
2, 142961, Note_on_c, 0, 69, 0
2, 142967, Note_on_c, 0, 40, 0
2, 143029, Note_on_c, 0, 47, 95
2, 143031, Note_on_c, 0, 68, 71
2, 143117, Note_on_c, 0, 68, 0
2, 143139, Note_on_c, 0, 66, 72
2, 143146, Note_on_c, 0, 40, 71
2, 143216, Note_on_c, 0, 47, 0
2, 143222, Note_on_c, 0, 66, 0
2, 143230, Note_on_c, 0, 40, 0
2, 143261, Note_on_c, 0, 64, 76
2, 143264, Note_on_c, 0, 48, 76
2, 143318, Note_on_c, 0, 64, 0
2, 143319, Note_on_c, 0, 48, 0
2, 143361, Note_on_c, 0, 62, 80
2, 143364, Note_on_c, 0, 40, 76
2, 143417, Note_on_c, 0, 62, 0
2, 143420, Note_on_c, 0, 40, 0
2, 143486, Note_on_c, 0, 60, 80
2, 143488, Note_on_c, 0, 50, 76
2, 143527, Note_on_c, 0, 50, 0
2, 143533, Note_on_c, 0, 60, 0
2, 143587, Note_on_c, 0, 40, 67
2, 143588, Note_on_c, 0, 59, 80
2, 143642, Note_on_c, 0, 59, 0
2, 143643, Note_on_c, 0, 40, 0
2, 143701, Note_on_c, 0, 57, 79
2, 143707, Note_on_c, 0, 49, 71
2, 143734, Control_c, 0, 64, 50
2, 143745, Note_on_c, 0, 49, 0
2, 143749, Control_c, 0, 64, 77
2, 143751, Note_on_c, 0, 57, 0
2, 143766, Control_c, 0, 64, 81
2, 143811, Note_on_c, 0, 59, 81
2, 143812, Control_c, 0, 64, 81
2, 143815, Note_on_c, 0, 57, 69
2, 143843, Control_c, 0, 64, 82
2, 143864, Note_on_c, 0, 59, 0
2, 143876, Note_on_c, 0, 57, 0
2, 143919, Control_c, 0, 64, 81
2, 143934, Control_c, 0, 64, 78
2, 143934, Note_on_c, 0, 61, 83
2, 143938, Note_on_c, 0, 55, 76
2, 143949, Control_c, 0, 64, 70
2, 143964, Control_c, 0, 64, 0
2, 143983, Note_on_c, 0, 55, 0
2, 144001, Note_on_c, 0, 61, 0
2, 144032, Note_on_c, 0, 57, 82
2, 144037, Note_on_c, 0, 54, 76
2, 144096, Note_on_c, 0, 54, 0
2, 144096, Note_on_c, 0, 57, 0
2, 144157, Note_on_c, 0, 52, 81
2, 144165, Note_on_c, 0, 62, 90
2, 144200, Note_on_c, 0, 52, 0
2, 144215, Control_c, 0, 64, 63
2, 144229, Control_c, 0, 64, 71
2, 144243, Note_on_c, 0, 62, 0
2, 144245, Control_c, 0, 64, 72
2, 144260, Control_c, 0, 64, 72
2, 144267, Note_on_c, 0, 50, 75
2, 144271, Note_on_c, 0, 57, 78
2, 144276, Control_c, 0, 64, 71
2, 144304, Note_on_c, 0, 50, 0
2, 144305, Control_c, 0, 64, 71
2, 144321, Control_c, 0, 64, 68
2, 144336, Control_c, 0, 64, 40
2, 144343, Note_on_c, 0, 57, 0
2, 144351, Control_c, 0, 64, 0
2, 144386, Note_on_c, 0, 49, 88
2, 144392, Note_on_c, 0, 64, 93
2, 144442, Control_c, 0, 64, 65
2, 144457, Control_c, 0, 64, 72
2, 144471, Note_on_c, 0, 64, 0
2, 144472, Control_c, 0, 64, 76
2, 144479, Note_on_c, 0, 49, 0
2, 144488, Control_c, 0, 64, 78
2, 144503, Control_c, 0, 64, 79
2, 144503, Note_on_c, 0, 47, 78
2, 144509, Note_on_c, 0, 57, 73
2, 144518, Control_c, 0, 64, 81
2, 144534, Control_c, 0, 64, 83
2, 144549, Control_c, 0, 64, 85
2, 144557, Note_on_c, 0, 47, 0
2, 144565, Control_c, 0, 64, 87
2, 144581, Control_c, 0, 64, 88
2, 144608, Note_on_c, 0, 57, 0
2, 144611, Control_c, 0, 64, 89
2, 144623, Note_on_c, 0, 45, 80
2, 144627, Note_on_c, 0, 66, 87
2, 144642, Control_c, 0, 64, 88
2, 144656, Control_c, 0, 64, 84
2, 144671, Control_c, 0, 64, 74
2, 144675, Note_on_c, 0, 45, 0
2, 144687, Control_c, 0, 64, 26
2, 144700, Note_on_c, 0, 66, 0
2, 144702, Control_c, 0, 64, 0
2, 144740, Note_on_c, 0, 57, 78
2, 144741, Note_on_c, 0, 43, 84
2, 144795, Note_on_c, 0, 43, 0
2, 144815, Note_on_c, 0, 57, 0
2, 144860, Note_on_c, 0, 42, 90
2, 144872, Note_on_c, 0, 67, 85
2, 144934, Note_on_c, 0, 42, 0
2, 144956, Note_on_c, 0, 67, 0
2, 144986, Note_on_c, 0, 40, 90
2, 144998, Note_on_c, 0, 57, 72
2, 145048, Note_on_c, 0, 40, 0
2, 145080, Note_on_c, 0, 57, 0
2, 145137, Note_on_c, 0, 38, 95
2, 145144, Note_on_c, 0, 66, 85
2, 145157, Note_on_c, 0, 62, 71
2, 145166, Control_c, 0, 64, 67
2, 145181, Control_c, 0, 64, 84
2, 145197, Control_c, 0, 64, 89
2, 145212, Control_c, 0, 64, 90
2, 145257, Control_c, 0, 64, 91
2, 145346, Note_on_c, 0, 66, 0
2, 145405, Note_on_c, 0, 71, 76
2, 145412, Note_on_c, 0, 60, 80
2, 145424, Control_c, 0, 64, 90
2, 145440, Control_c, 0, 64, 86
2, 145454, Control_c, 0, 64, 78
2, 145456, Note_on_c, 0, 62, 0
2, 145465, Note_on_c, 0, 71, 0
2, 145468, Note_on_c, 0, 60, 0
2, 145469, Control_c, 0, 64, 63
2, 145485, Control_c, 0, 64, 0
2, 145521, Note_on_c, 0, 62, 79
2, 145595, Note_on_c, 0, 62, 0
2, 145632, Note_on_c, 0, 64, 82
2, 145640, Note_on_c, 0, 67, 64
2, 145696, Note_on_c, 0, 64, 0
2, 145697, Note_on_c, 0, 67, 0
2, 145751, Note_on_c, 0, 62, 86
2, 145818, Note_on_c, 0, 62, 0
2, 145879, Note_on_c, 0, 64, 86
2, 145890, Note_on_c, 0, 60, 80
2, 145918, Control_c, 0, 64, 63
2, 145933, Control_c, 0, 64, 72
2, 145948, Control_c, 0, 64, 76
2, 145964, Control_c, 0, 64, 77
2, 145966, Note_on_c, 0, 60, 0
2, 145979, Control_c, 0, 64, 77
2, 145994, Control_c, 0, 64, 78
2, 146009, Control_c, 0, 64, 80
2, 146024, Control_c, 0, 64, 82
2, 146039, Control_c, 0, 64, 83
2, 146054, Control_c, 0, 64, 83
2, 146102, Note_on_c, 0, 64, 0
2, 146135, Note_on_c, 0, 69, 71
2, 146137, Note_on_c, 0, 59, 78
2, 146145, Control_c, 0, 64, 83
2, 146161, Control_c, 0, 64, 81
2, 146176, Control_c, 0, 64, 79
2, 146180, Note_on_c, 0, 69, 0
2, 146188, Note_on_c, 0, 59, 0
2, 146190, Control_c, 0, 64, 74
2, 146206, Control_c, 0, 64, 67
2, 146222, Control_c, 0, 64, 0
2, 146240, Note_on_c, 0, 60, 83
2, 146307, Note_on_c, 0, 60, 0
2, 146358, Note_on_c, 0, 62, 77
2, 146358, Note_on_c, 0, 66, 79
2, 146402, Note_on_c, 0, 62, 0
2, 146425, Note_on_c, 0, 66, 0
2, 146476, Note_on_c, 0, 60, 85
2, 146546, Note_on_c, 0, 60, 0
2, 146596, Note_on_c, 0, 67, 87
2, 146600, Note_on_c, 0, 59, 83
2, 146686, Control_c, 0, 64, 22
2, 146691, Note_on_c, 0, 38, 0
2, 146701, Control_c, 0, 64, 55
2, 146712, Note_on_c, 0, 50, 66
2, 146717, Control_c, 0, 64, 61
2, 146732, Control_c, 0, 64, 62
2, 146746, Control_c, 0, 64, 61
2, 146747, Note_on_c, 0, 59, 0
2, 146762, Control_c, 0, 64, 55
2, 146777, Control_c, 0, 64, 16
2, 146792, Control_c, 0, 64, 0
2, 146800, Note_on_c, 0, 50, 0
2, 146840, Note_on_c, 0, 60, 83
2, 146844, Note_on_c, 0, 48, 68
2, 146888, Note_on_c, 0, 60, 0
2, 146918, Note_on_c, 0, 48, 0
2, 146941, Note_on_c, 0, 50, 69
2, 147031, Note_on_c, 0, 50, 0
2, 147068, Note_on_c, 0, 52, 76
2, 147074, Note_on_c, 0, 62, 86
2, 147144, Note_on_c, 0, 62, 0
2, 147151, Note_on_c, 0, 52, 0
2, 147185, Note_on_c, 0, 50, 75
2, 147292, Note_on_c, 0, 67, 0
2, 147298, Note_on_c, 0, 50, 0
2, 147321, Note_on_c, 0, 48, 82
2, 147321, Note_on_c, 0, 64, 81
2, 147363, Control_c, 0, 64, 67
2, 147374, Note_on_c, 0, 64, 0
2, 147378, Control_c, 0, 64, 93
2, 147391, Note_on_c, 0, 48, 0
2, 147394, Control_c, 0, 64, 103
2, 147439, Control_c, 0, 64, 104
2, 147453, Note_on_c, 0, 69, 88
2, 147454, Control_c, 0, 64, 107
2, 147469, Control_c, 0, 64, 113
2, 147486, Control_c, 0, 64, 123
2, 147501, Control_c, 0, 64, 127
2, 147504, Note_on_c, 0, 69, 0
2, 147577, Control_c, 0, 64, 110
2, 147590, Note_on_c, 0, 47, 70
2, 147593, Control_c, 0, 64, 83
2, 147602, Note_on_c, 0, 71, 87
2, 147607, Note_on_c, 0, 54, 75
2, 147608, Control_c, 0, 64, 46
2, 147623, Control_c, 0, 64, 0
2, 147654, Control_c, 0, 64, 54
2, 147657, Note_on_c, 0, 69, 82
2, 147657, Note_on_c, 0, 71, 0
2, 147670, Control_c, 0, 64, 72
2, 147685, Control_c, 0, 64, 82
2, 147700, Control_c, 0, 64, 91
2, 147707, Note_on_c, 0, 47, 0
2, 147715, Control_c, 0, 64, 91
2, 147718, Note_on_c, 0, 69, 0
2, 147729, Note_on_c, 0, 48, 66
2, 147729, Note_on_c, 0, 71, 66
2, 147730, Control_c, 0, 64, 92
2, 147761, Control_c, 0, 64, 92
2, 147772, Note_on_c, 0, 71, 0
2, 147776, Control_c, 0, 64, 93
2, 147777, Note_on_c, 0, 69, 74
2, 147792, Control_c, 0, 64, 93
2, 147806, Note_on_c, 0, 48, 0
2, 147807, Note_on_c, 0, 50, 53
2, 147828, Note_on_c, 0, 69, 0
2, 147837, Note_on_c, 0, 71, 68
2, 147841, Note_on_c, 0, 54, 0
2, 147868, Control_c, 0, 64, 93
2, 147869, Note_on_c, 0, 48, 45
2, 147870, Note_on_c, 0, 50, 0
2, 147897, Note_on_c, 0, 71, 0
2, 147898, Control_c, 0, 64, 92
2, 147899, Note_on_c, 0, 69, 56
2, 147914, Control_c, 0, 64, 88
2, 147923, Note_on_c, 0, 67, 76
2, 147923, Note_on_c, 0, 69, 0
2, 147929, Control_c, 0, 64, 82
2, 147944, Control_c, 0, 64, 72
2, 147959, Control_c, 0, 64, 38
2, 147972, Note_on_c, 0, 67, 0
2, 147974, Control_c, 0, 64, 0
2, 148001, Note_on_c, 0, 69, 75
2, 148034, Note_on_c, 0, 48, 0
2, 148037, Note_on_c, 0, 71, 81
2, 148045, Note_on_c, 0, 69, 0
2, 148053, Note_on_c, 0, 47, 74
2, 148067, Note_on_c, 0, 55, 73
2, 148094, Note_on_c, 0, 55, 0
2, 148098, Note_on_c, 0, 71, 0
2, 148101, Note_on_c, 0, 47, 0
2, 148119, Control_c, 0, 64, 76
2, 148134, Control_c, 0, 64, 82
2, 148150, Control_c, 0, 64, 85
2, 148165, Control_c, 0, 64, 85
2, 148179, Control_c, 0, 64, 90
2, 148195, Control_c, 0, 64, 98
2, 148210, Control_c, 0, 64, 106
2, 148225, Control_c, 0, 64, 109
2, 148241, Control_c, 0, 64, 109
2, 148255, Control_c, 0, 64, 103
2, 148271, Control_c, 0, 64, 85
2, 148286, Control_c, 0, 64, 0
2, 148305, Note_on_c, 0, 72, 77
2, 148310, Note_on_c, 0, 69, 81
2, 148324, Note_on_c, 0, 45, 59
2, 148365, Note_on_c, 0, 45, 0
2, 148378, Note_on_c, 0, 72, 0
2, 148382, Note_on_c, 0, 69, 0
2, 148411, Note_on_c, 0, 47, 56
2, 148414, Note_on_c, 0, 71, 75
2, 148418, Note_on_c, 0, 67, 71
2, 148474, Note_on_c, 0, 47, 0
2, 148474, Note_on_c, 0, 67, 0
2, 148525, Note_on_c, 0, 48, 73
2, 148528, Note_on_c, 0, 66, 80
2, 148529, Note_on_c, 0, 69, 72
2, 148553, Note_on_c, 0, 71, 0
2, 148568, Note_on_c, 0, 66, 0
2, 148570, Note_on_c, 0, 48, 0
2, 148585, Note_on_c, 0, 69, 0
2, 148623, Note_on_c, 0, 47, 85
2, 148629, Note_on_c, 0, 71, 68
2, 148633, Note_on_c, 0, 67, 72
2, 148672, Note_on_c, 0, 67, 0
2, 148690, Note_on_c, 0, 47, 0
2, 148707, Note_on_c, 0, 71, 0
2, 148761, Note_on_c, 0, 69, 84
2, 148765, Control_c, 0, 64, 62
2, 148765, Note_on_c, 0, 72, 86
2, 148767, Note_on_c, 0, 45, 85
2, 148780, Control_c, 0, 64, 96
2, 148796, Control_c, 0, 64, 115
2, 148805, Note_on_c, 0, 69, 0
2, 148810, Control_c, 0, 64, 123
2, 148811, Note_on_c, 0, 72, 0
2, 148812, Note_on_c, 0, 45, 0
2, 148825, Control_c, 0, 64, 127
2, 148963, Control_c, 0, 64, 102
2, 148978, Control_c, 0, 64, 67
2, 148993, Control_c, 0, 64, 0
2, 149008, Note_on_c, 0, 74, 82
2, 149011, Note_on_c, 0, 43, 74
2, 149014, Note_on_c, 0, 71, 83
2, 149082, Note_on_c, 0, 71, 0
2, 149092, Note_on_c, 0, 43, 0
2, 149107, Note_on_c, 0, 45, 71
2, 149113, Note_on_c, 0, 74, 0
2, 149117, Note_on_c, 0, 69, 83
2, 149124, Note_on_c, 0, 72, 73
2, 149172, Note_on_c, 0, 69, 0
2, 149173, Note_on_c, 0, 45, 0
2, 149198, Note_on_c, 0, 72, 0
2, 149217, Note_on_c, 0, 47, 77
2, 149235, Note_on_c, 0, 71, 75
2, 149237, Note_on_c, 0, 67, 75
2, 149279, Note_on_c, 0, 67, 0
2, 149281, Note_on_c, 0, 47, 0
2, 149294, Note_on_c, 0, 71, 0
2, 149313, Note_on_c, 0, 45, 75
2, 149318, Note_on_c, 0, 72, 79
2, 149329, Note_on_c, 0, 69, 72
2, 149366, Note_on_c, 0, 69, 0
2, 149380, Note_on_c, 0, 45, 0
2, 149381, Note_on_c, 0, 72, 0
2, 149436, Note_on_c, 0, 43, 77
2, 149442, Note_on_c, 0, 71, 86
2, 149443, Note_on_c, 0, 74, 92
2, 149448, Control_c, 0, 64, 82
2, 149463, Control_c, 0, 64, 96
2, 149470, Note_on_c, 0, 43, 0
2, 149480, Control_c, 0, 64, 98
2, 149496, Control_c, 0, 64, 99
2, 149512, Control_c, 0, 64, 101
2, 149534, Control_c, 0, 64, 104
2, 149550, Control_c, 0, 64, 107
2, 149565, Control_c, 0, 64, 111
2, 149581, Control_c, 0, 64, 114
2, 149586, Note_on_c, 0, 55, 64
2, 149595, Control_c, 0, 64, 116
2, 149610, Control_c, 0, 64, 117
2, 149638, Note_on_c, 0, 55, 0
2, 149641, Control_c, 0, 64, 115
2, 149642, Note_on_c, 0, 54, 74
2, 149655, Control_c, 0, 64, 98
2, 149671, Control_c, 0, 64, 79
2, 149683, Note_on_c, 0, 69, 77
2, 149683, Note_on_c, 0, 72, 82
2, 149686, Control_c, 0, 64, 34
2, 149686, Note_on_c, 0, 74, 0
2, 149689, Note_on_c, 0, 71, 0
2, 149692, Note_on_c, 0, 52, 72
2, 149702, Control_c, 0, 64, 0
2, 149705, Note_on_c, 0, 54, 0
2, 149706, Note_on_c, 0, 69, 0
2, 149732, Note_on_c, 0, 72, 0
2, 149788, Note_on_c, 0, 55, 64
2, 149903, Note_on_c, 0, 55, 0
2, 149915, Note_on_c, 0, 50, 69
2, 149919, Note_on_c, 0, 71, 85
2, 149925, Note_on_c, 0, 67, 79
2, 149933, Note_on_c, 0, 52, 0
2, 149975, Control_c, 0, 64, 63
2, 149990, Control_c, 0, 64, 71
2, 150003, Note_on_c, 0, 50, 0
2, 150005, Control_c, 0, 64, 80
2, 150020, Note_on_c, 0, 55, 67
2, 150021, Control_c, 0, 64, 88
2, 150036, Control_c, 0, 64, 92
2, 150051, Control_c, 0, 64, 95
2, 150066, Control_c, 0, 64, 98
2, 150081, Control_c, 0, 64, 103
2, 150096, Control_c, 0, 64, 107
2, 150111, Control_c, 0, 64, 110
2, 150128, Note_on_c, 0, 71, 0
2, 150136, Note_on_c, 0, 55, 0
2, 150142, Control_c, 0, 64, 105
2, 150155, Note_on_c, 0, 49, 78
2, 150155, Note_on_c, 0, 69, 86
2, 150157, Control_c, 0, 64, 87
2, 150172, Control_c, 0, 64, 59
2, 150188, Control_c, 0, 64, 0
2, 150215, Note_on_c, 0, 69, 0
2, 150234, Control_c, 0, 64, 60
2, 150249, Control_c, 0, 64, 73
2, 150264, Control_c, 0, 64, 84
2, 150279, Control_c, 0, 64, 92
2, 150298, Note_on_c, 0, 57, 70
2, 150302, Control_c, 0, 64, 95
2, 150317, Control_c, 0, 64, 98
2, 150333, Control_c, 0, 64, 102
2, 150349, Control_c, 0, 64, 107
2, 150364, Control_c, 0, 64, 111
2, 150378, Control_c, 0, 64, 117
2, 150394, Control_c, 0, 64, 123
2, 150405, Note_on_c, 0, 49, 0
2, 150409, Control_c, 0, 64, 127
2, 150417, Note_on_c, 0, 57, 0
2, 150433, Note_on_c, 0, 47, 77
2, 150433, Note_on_c, 0, 79, 102
2, 150439, Control_c, 0, 64, 114
2, 150444, Note_on_c, 0, 74, 76
2, 150454, Control_c, 0, 64, 91
2, 150470, Control_c, 0, 64, 65
2, 150485, Control_c, 0, 64, 0
2, 150546, Control_c, 0, 64, 65
2, 150561, Control_c, 0, 64, 69
2, 150576, Control_c, 0, 64, 72
2, 150578, Note_on_c, 0, 57, 53
2, 150591, Control_c, 0, 64, 75
2, 150606, Control_c, 0, 64, 78
2, 150622, Control_c, 0, 64, 80
2, 150637, Control_c, 0, 64, 82
2, 150650, Note_on_c, 0, 79, 0
2, 150652, Control_c, 0, 64, 83
2, 150652, Note_on_c, 0, 47, 0
2, 150667, Note_on_c, 0, 74, 0
2, 150668, Control_c, 0, 64, 84
2, 150674, Note_on_c, 0, 57, 0
2, 150683, Control_c, 0, 64, 86
2, 150688, Note_on_c, 0, 45, 62
2, 150691, Note_on_c, 0, 73, 69
2, 150698, Control_c, 0, 64, 88
2, 150714, Control_c, 0, 64, 91
2, 150729, Control_c, 0, 64, 93
2, 150745, Control_c, 0, 64, 94
2, 150753, Note_on_c, 0, 73, 0
2, 150759, Control_c, 0, 64, 95
2, 150761, Note_on_c, 0, 45, 0
2, 150774, Control_c, 0, 64, 96
2, 150790, Control_c, 0, 64, 97
2, 150794, Note_on_c, 0, 57, 62
2, 150805, Control_c, 0, 64, 97
2, 150821, Control_c, 0, 64, 98
2, 150835, Control_c, 0, 64, 100
2, 150850, Control_c, 0, 64, 101
2, 150866, Control_c, 0, 64, 103
2, 150870, Note_on_c, 0, 57, 0
2, 150882, Note_on_c, 0, 67, 0
2, 150910, Note_on_c, 0, 78, 91
2, 150911, Control_c, 0, 64, 101
2, 150916, Note_on_c, 0, 50, 72
2, 150920, Note_on_c, 0, 74, 81
2, 150926, Control_c, 0, 64, 90
2, 150942, Control_c, 0, 64, 69
2, 150957, Control_c, 0, 64, 0
2, 150987, Control_c, 0, 64, 47
2, 150992, Note_on_c, 0, 50, 0
2, 151000, Control_c, 0, 64, 70
2, 151015, Control_c, 0, 64, 82
2, 151020, Note_on_c, 0, 48, 72
2, 151030, Control_c, 0, 64, 94
2, 151036, Note_on_c, 0, 78, 0
2, 151045, Control_c, 0, 64, 96
2, 151069, Control_c, 0, 64, 96
2, 151084, Control_c, 0, 64, 97
2, 151099, Control_c, 0, 64, 99
2, 151104, Note_on_c, 0, 74, 0
2, 151114, Control_c, 0, 64, 100
2, 151145, Control_c, 0, 64, 99
2, 151145, Note_on_c, 0, 46, 73
2, 151154, Note_on_c, 0, 76, 85
2, 151159, Note_on_c, 0, 67, 82
2, 151161, Control_c, 0, 64, 88
2, 151166, Note_on_c, 0, 48, 0
2, 151176, Control_c, 0, 64, 69
2, 151191, Control_c, 0, 64, 0
2, 151191, Note_on_c, 0, 67, 0
2, 151220, Note_on_c, 0, 76, 0
2, 151252, Control_c, 0, 64, 49
2, 151256, Note_on_c, 0, 46, 0
2, 151267, Control_c, 0, 64, 60
2, 151271, Note_on_c, 0, 50, 68
2, 151282, Control_c, 0, 64, 50
2, 151297, Control_c, 0, 64, 0
2, 151350, Note_on_c, 0, 50, 0
2, 151372, Note_on_c, 0, 74, 88
2, 151383, Note_on_c, 0, 66, 76
2, 151403, Control_c, 0, 64, 62
2, 151411, Note_on_c, 0, 43, 46
2, 151416, Note_on_c, 0, 45, 46
2, 151418, Control_c, 0, 64, 66
2, 151419, Note_on_c, 0, 66, 0
2, 151425, Note_on_c, 0, 74, 0
2, 151434, Control_c, 0, 64, 67
2, 151449, Control_c, 0, 64, 69
2, 151454, Note_on_c, 0, 45, 0
2, 151456, Note_on_c, 0, 43, 0
2, 151464, Control_c, 0, 64, 71
2, 151479, Control_c, 0, 64, 75
2, 151487, Note_on_c, 0, 50, 61
2, 151494, Control_c, 0, 64, 79
2, 151510, Control_c, 0, 64, 81
2, 151525, Control_c, 0, 64, 82
2, 151540, Control_c, 0, 64, 80
2, 151551, Note_on_c, 0, 50, 0
2, 151555, Control_c, 0, 64, 71
2, 151570, Control_c, 0, 64, 0
2, 151598, Note_on_c, 0, 73, 83
2, 151608, Note_on_c, 0, 64, 72
2, 151609, Note_on_c, 0, 43, 65
2, 151632, Control_c, 0, 64, 60
2, 151635, Note_on_c, 0, 64, 0
2, 151647, Control_c, 0, 64, 72
2, 151662, Control_c, 0, 64, 82
2, 151676, Note_on_c, 0, 73, 0
2, 151677, Control_c, 0, 64, 91
2, 151692, Control_c, 0, 64, 96
2, 151700, Note_on_c, 0, 43, 0
2, 151708, Control_c, 0, 64, 101
2, 151723, Control_c, 0, 64, 110
2, 151732, Note_on_c, 0, 52, 73
2, 151738, Control_c, 0, 64, 124
2, 151753, Control_c, 0, 64, 127
2, 151851, Note_on_c, 0, 52, 0
2, 151879, Note_on_c, 0, 42, 79
2, 151882, Control_c, 0, 64, 86
2, 151893, Note_on_c, 0, 82, 96
2, 151897, Control_c, 0, 64, 0
2, 151907, Note_on_c, 0, 73, 72
2, 151959, Control_c, 0, 64, 64
2, 151974, Control_c, 0, 64, 74
2, 151990, Control_c, 0, 64, 85
2, 152005, Control_c, 0, 64, 91
2, 152020, Control_c, 0, 64, 94
2, 152035, Control_c, 0, 64, 96
2, 152035, Note_on_c, 0, 52, 78
2, 152050, Control_c, 0, 64, 100
2, 152065, Control_c, 0, 64, 106
2, 152081, Control_c, 0, 64, 111
2, 152096, Control_c, 0, 64, 117
2, 152097, Note_on_c, 0, 73, 0
2, 152098, Note_on_c, 0, 42, 0
2, 152099, Note_on_c, 0, 82, 0
2, 152111, Control_c, 0, 64, 123
2, 152126, Control_c, 0, 64, 127
2, 152136, Note_on_c, 0, 52, 0
2, 152157, Note_on_c, 0, 40, 89
2, 152274, Note_on_c, 0, 52, 88
2, 152414, Note_on_c, 0, 81, 93
2, 152417, Note_on_c, 0, 52, 0
2, 152418, Note_on_c, 0, 42, 87
2, 152420, Note_on_c, 0, 72, 89
2, 152430, Control_c, 0, 64, 115
2, 152430, Note_on_c, 0, 40, 0
2, 152445, Control_c, 0, 64, 80
2, 152460, Control_c, 0, 64, 0
2, 152507, Control_c, 0, 64, 63
2, 152521, Control_c, 0, 64, 78
2, 152536, Control_c, 0, 64, 95
2, 152548, Note_on_c, 0, 79, 87
2, 152552, Control_c, 0, 64, 105
2, 152567, Control_c, 0, 64, 106
2, 152576, Note_on_c, 0, 81, 0
2, 152581, Control_c, 0, 64, 106
2, 152619, Control_c, 0, 64, 107
2, 152635, Control_c, 0, 64, 108
2, 152650, Control_c, 0, 64, 111
2, 152665, Control_c, 0, 64, 113
2, 152669, Note_on_c, 0, 78, 90
2, 152677, Note_on_c, 0, 79, 0
2, 152680, Control_c, 0, 64, 116
2, 152689, Note_on_c, 0, 38, 72
2, 152695, Control_c, 0, 64, 122
2, 152711, Control_c, 0, 64, 127
2, 152718, Note_on_c, 0, 78, 0
2, 152784, Note_on_c, 0, 76, 90
2, 152872, Note_on_c, 0, 72, 0
2, 152894, Note_on_c, 0, 42, 0
2, 152897, Note_on_c, 0, 74, 85
2, 152905, Note_on_c, 0, 43, 86
2, 152910, Control_c, 0, 64, 107
2, 152916, Note_on_c, 0, 76, 0
2, 152925, Control_c, 0, 64, 76
2, 152940, Control_c, 0, 64, 0
2, 152956, Note_on_c, 0, 74, 0
2, 152985, Control_c, 0, 64, 66
2, 153001, Control_c, 0, 64, 83
2, 153016, Control_c, 0, 64, 103
2, 153031, Control_c, 0, 64, 119
2, 153046, Control_c, 0, 64, 127
2, 153046, Note_on_c, 0, 71, 74
2, 153087, Note_on_c, 0, 71, 0
2, 153089, Note_on_c, 0, 69, 84
2, 153121, Note_on_c, 0, 38, 0
2, 153148, Note_on_c, 0, 71, 95
2, 153151, Note_on_c, 0, 40, 96
2, 153167, Control_c, 0, 64, 95
2, 153167, Note_on_c, 0, 69, 0
2, 153182, Control_c, 0, 64, 44
2, 153198, Control_c, 0, 64, 0
2, 153243, Control_c, 0, 64, 46
2, 153258, Control_c, 0, 64, 73
2, 153274, Control_c, 0, 64, 83
2, 153289, Control_c, 0, 64, 94
2, 153292, Note_on_c, 0, 79, 88
2, 153304, Control_c, 0, 64, 98
2, 153319, Control_c, 0, 64, 103
2, 153334, Control_c, 0, 64, 111
2, 153350, Control_c, 0, 64, 126
2, 153372, Control_c, 0, 64, 127
2, 153413, Note_on_c, 0, 71, 0
2, 153424, Note_on_c, 0, 40, 0
2, 153439, Note_on_c, 0, 36, 89
2, 153450, Note_on_c, 0, 69, 95
2, 153463, Note_on_c, 0, 79, 0
2, 153479, Control_c, 0, 64, 110
2, 153494, Control_c, 0, 64, 72
2, 153509, Control_c, 0, 64, 0
2, 153555, Control_c, 0, 64, 56
2, 153570, Control_c, 0, 64, 77
2, 153585, Control_c, 0, 64, 100
2, 153591, Note_on_c, 0, 72, 91
2, 153601, Control_c, 0, 64, 127
2, 153694, Note_on_c, 0, 36, 0
2, 153699, Note_on_c, 0, 72, 0
2, 153714, Note_on_c, 0, 43, 0
2, 153730, Note_on_c, 0, 38, 96
2, 153734, Control_c, 0, 64, 101
2, 153737, Note_on_c, 0, 79, 87
2, 153748, Control_c, 0, 64, 67
2, 153764, Control_c, 0, 64, 0
2, 153824, Control_c, 0, 64, 67
2, 153839, Control_c, 0, 64, 78
2, 153843, Note_on_c, 0, 79, 0
2, 153854, Control_c, 0, 64, 90
2, 153869, Control_c, 0, 64, 103
2, 153877, Note_on_c, 0, 69, 0
2, 153881, Note_on_c, 0, 78, 101
2, 153885, Control_c, 0, 64, 127
2, 153945, Note_on_c, 0, 78, 0
2, 154086, Note_on_c, 0, 38, 0
2, 154099, Note_on_c, 0, 43, 105
2, 154104, Note_on_c, 0, 79, 101
2, 154107, Note_on_c, 0, 71, 90
2, 154150, Control_c, 0, 64, 89
2, 154166, Control_c, 0, 64, 0
2, 154257, Control_c, 0, 64, 38
2, 154271, Control_c, 0, 64, 71
2, 154271, Note_on_c, 0, 79, 0
2, 154287, Control_c, 0, 64, 79
2, 154302, Control_c, 0, 64, 83
2, 154302, Note_on_c, 0, 78, 75
2, 154348, Note_on_c, 0, 76, 79
2, 154366, Note_on_c, 0, 71, 0
2, 154393, Control_c, 0, 64, 81
2, 154401, Note_on_c, 0, 78, 0
2, 154404, Note_on_c, 0, 74, 76
2, 154410, Control_c, 0, 64, 74
2, 154425, Control_c, 0, 64, 59
2, 154433, Note_on_c, 0, 71, 63
2, 154439, Control_c, 0, 64, 0
2, 154503, Note_on_c, 0, 76, 0
2, 154527, Note_on_c, 0, 74, 0
2, 154541, Note_on_c, 0, 79, 81
2, 154548, Note_on_c, 0, 71, 0
2, 154590, Note_on_c, 0, 79, 0
2, 154660, Note_on_c, 0, 72, 86
2, 154669, Note_on_c, 0, 69, 75
2, 154701, Note_on_c, 0, 69, 0
2, 154706, Note_on_c, 0, 72, 0
2, 154785, Note_on_c, 0, 79, 82
2, 154828, Note_on_c, 0, 79, 0
2, 154922, Note_on_c, 0, 71, 97
2, 154932, Note_on_c, 0, 67, 82
2, 154934, Control_c, 0, 64, 58
2, 154944, Note_on_c, 0, 43, 0
2, 154949, Control_c, 0, 64, 107
2, 154965, Control_c, 0, 64, 127
2, 155007, Note_on_c, 0, 67, 0
2, 155052, Note_on_c, 0, 43, 70
2, 155116, Note_on_c, 0, 45, 62
2, 155169, Note_on_c, 0, 47, 83
2, 155173, Note_on_c, 0, 43, 0
2, 155174, Note_on_c, 0, 79, 93
2, 155183, Note_on_c, 0, 71, 0
2, 155185, Note_on_c, 0, 45, 0
2, 155221, Note_on_c, 0, 79, 0
2, 155301, Note_on_c, 0, 47, 0
2, 155303, Note_on_c, 0, 43, 76
2, 155439, Control_c, 0, 64, 95
2, 155446, Note_on_c, 0, 69, 88
2, 155449, Note_on_c, 0, 48, 91
2, 155449, Note_on_c, 0, 66, 89
2, 155454, Control_c, 0, 64, 63
2, 155468, Control_c, 0, 64, 0
2, 155487, Note_on_c, 0, 43, 0
2, 155515, Control_c, 0, 64, 66
2, 155530, Control_c, 0, 64, 82
2, 155544, Control_c, 0, 64, 108
2, 155551, Note_on_c, 0, 66, 0
2, 155560, Control_c, 0, 64, 127
2, 155591, Note_on_c, 0, 48, 0
2, 155594, Note_on_c, 0, 43, 84
2, 155598, Note_on_c, 0, 69, 0
2, 155776, Note_on_c, 0, 71, 93
2, 155778, Note_on_c, 0, 67, 86
2, 155779, Note_on_c, 0, 50, 98
2, 155811, Control_c, 0, 64, 85
2, 155825, Control_c, 0, 64, 0
2, 155870, Control_c, 0, 64, 32
2, 155885, Note_on_c, 0, 43, 0
2, 155886, Control_c, 0, 64, 70
2, 155901, Control_c, 0, 64, 82
2, 155917, Control_c, 0, 64, 93
2, 155932, Control_c, 0, 64, 98
2, 155946, Control_c, 0, 64, 100
2, 155960, Note_on_c, 0, 71, 0
2, 155960, Note_on_c, 0, 74, 75
2, 155962, Control_c, 0, 64, 102
2, 155977, Control_c, 0, 64, 106
2, 155992, Control_c, 0, 64, 112
2, 156008, Control_c, 0, 64, 117
2, 156023, Control_c, 0, 64, 123
2, 156025, Note_on_c, 0, 72, 71
2, 156038, Control_c, 0, 64, 127
2, 156075, Note_on_c, 0, 71, 82
2, 156076, Note_on_c, 0, 43, 100
2, 156079, Note_on_c, 0, 74, 0
2, 156120, Note_on_c, 0, 72, 0
2, 156130, Control_c, 0, 64, 120
2, 156145, Control_c, 0, 64, 89
2, 156161, Control_c, 0, 64, 60
2, 156175, Control_c, 0, 64, 0
2, 156221, Control_c, 0, 64, 69
2, 156237, Control_c, 0, 64, 81
2, 156237, Note_on_c, 0, 67, 0
2, 156247, Note_on_c, 0, 71, 0
2, 156252, Control_c, 0, 64, 92
2, 156252, Note_on_c, 0, 74, 84
2, 156266, Control_c, 0, 64, 96
2, 156282, Control_c, 0, 64, 98
2, 156297, Control_c, 0, 64, 100
2, 156311, Control_c, 0, 64, 103
2, 156327, Control_c, 0, 64, 107
2, 156342, Control_c, 0, 64, 112
2, 156358, Control_c, 0, 64, 119
2, 156373, Control_c, 0, 64, 127
2, 156411, Note_on_c, 0, 47, 91
2, 156411, Note_on_c, 0, 69, 90
2, 156415, Note_on_c, 0, 50, 0
2, 156420, Note_on_c, 0, 65, 82
2, 156420, Note_on_c, 0, 74, 0
2, 156471, Control_c, 0, 64, 108
2, 156487, Control_c, 0, 64, 92
2, 156502, Control_c, 0, 64, 75
2, 156517, Control_c, 0, 64, 0
2, 156632, Note_on_c, 0, 74, 87
2, 156656, Note_on_c, 0, 69, 0
2, 156668, Control_c, 0, 64, 71
2, 156684, Control_c, 0, 64, 83
2, 156699, Control_c, 0, 64, 94
2, 156701, Note_on_c, 0, 65, 0
2, 156713, Control_c, 0, 64, 99
2, 156729, Control_c, 0, 64, 103
2, 156744, Control_c, 0, 64, 107
2, 156760, Control_c, 0, 64, 112
2, 156775, Control_c, 0, 64, 117
2, 156790, Control_c, 0, 64, 121
2, 156800, Note_on_c, 0, 47, 0
2, 156806, Control_c, 0, 64, 127
2, 156821, Control_c, 0, 64, 127
2, 156866, Note_on_c, 0, 74, 0
2, 156897, Note_on_c, 0, 67, 89
2, 156904, Note_on_c, 0, 48, 75
2, 156910, Note_on_c, 0, 64, 76
2, 156928, Control_c, 0, 64, 119
2, 156943, Control_c, 0, 64, 102
2, 156959, Control_c, 0, 64, 88
2, 156974, Control_c, 0, 64, 72
2, 156980, Note_on_c, 0, 48, 0
2, 156989, Control_c, 0, 64, 0
2, 156996, Note_on_c, 0, 47, 61
2, 157094, Note_on_c, 0, 48, 74
2, 157142, Note_on_c, 0, 47, 0
2, 157148, Note_on_c, 0, 50, 81
2, 157174, Note_on_c, 0, 48, 0
2, 157236, Note_on_c, 0, 52, 93
2, 157245, Note_on_c, 0, 50, 0
2, 157245, Note_on_c, 0, 72, 85
2, 157286, Note_on_c, 0, 64, 0
2, 157411, Note_on_c, 0, 52, 0
2, 157424, Note_on_c, 0, 48, 72
2, 157495, Control_c, 0, 64, 50
2, 157510, Control_c, 0, 64, 70
2, 157526, Control_c, 0, 64, 77
2, 157541, Control_c, 0, 64, 83
2, 157555, Control_c, 0, 64, 85
2, 157570, Note_on_c, 0, 48, 0
2, 157571, Control_c, 0, 64, 87
2, 157587, Control_c, 0, 64, 91
2, 157603, Control_c, 0, 64, 97
2, 157609, Note_on_c, 0, 63, 92
2, 157610, Note_on_c, 0, 54, 90
2, 157618, Control_c, 0, 64, 103
2, 157632, Control_c, 0, 64, 109
2, 157637, Note_on_c, 0, 67, 0
2, 157648, Control_c, 0, 64, 115
2, 157663, Control_c, 0, 64, 127
2, 157678, Control_c, 0, 64, 127
2, 157693, Note_on_c, 0, 63, 0
2, 157766, Note_on_c, 0, 54, 0
2, 157820, Note_on_c, 0, 48, 87
2, 158117, Note_on_c, 0, 48, 0
2, 158135, Note_on_c, 0, 55, 92
2, 158145, Note_on_c, 0, 62, 81
2, 158188, Control_c, 0, 64, 113
2, 158204, Control_c, 0, 64, 77
2, 158213, Note_on_c, 0, 72, 0
2, 158219, Control_c, 0, 64, 0
2, 158234, Note_on_c, 0, 67, 68
2, 158240, Note_on_c, 0, 62, 0
2, 158319, Note_on_c, 0, 69, 62
2, 158367, Note_on_c, 0, 67, 0
2, 158381, Note_on_c, 0, 71, 75
2, 158433, Note_on_c, 0, 69, 0
2, 158467, Note_on_c, 0, 72, 85
2, 158478, Note_on_c, 0, 64, 69
2, 158490, Note_on_c, 0, 71, 0
2, 158648, Note_on_c, 0, 72, 0
2, 158660, Control_c, 0, 64, 60
2, 158664, Note_on_c, 0, 67, 71
2, 158675, Control_c, 0, 64, 70
2, 158676, Note_on_c, 0, 64, 0
2, 158691, Control_c, 0, 64, 79
2, 158691, Note_on_c, 0, 67, 0
2, 158705, Control_c, 0, 64, 88
2, 158720, Control_c, 0, 64, 93
2, 158744, Control_c, 0, 64, 96
2, 158759, Control_c, 0, 64, 99
2, 158774, Control_c, 0, 64, 102
2, 158789, Control_c, 0, 64, 105
2, 158805, Control_c, 0, 64, 108
2, 158820, Control_c, 0, 64, 109
2, 158846, Note_on_c, 0, 74, 82
2, 158857, Note_on_c, 0, 71, 65
2, 158858, Note_on_c, 0, 65, 74
2, 158865, Control_c, 0, 64, 106
2, 158880, Control_c, 0, 64, 92
2, 158896, Control_c, 0, 64, 74
2, 158911, Control_c, 0, 64, 0
2, 158956, Control_c, 0, 64, 63
2, 158971, Control_c, 0, 64, 77
2, 158982, Note_on_c, 0, 65, 0
2, 158986, Control_c, 0, 64, 89
2, 159002, Control_c, 0, 64, 96
2, 159017, Control_c, 0, 64, 98
2, 159023, Note_on_c, 0, 67, 72
2, 159032, Control_c, 0, 64, 99
2, 159032, Note_on_c, 0, 74, 0
2, 159048, Control_c, 0, 64, 102
2, 159049, Note_on_c, 0, 67, 0
2, 159049, Note_on_c, 0, 71, 0
2, 159063, Control_c, 0, 64, 105
2, 159077, Control_c, 0, 64, 110
2, 159093, Control_c, 0, 64, 113
2, 159108, Control_c, 0, 64, 116
2, 159124, Control_c, 0, 64, 119
2, 159139, Control_c, 0, 64, 120
2, 159154, Control_c, 0, 64, 121
2, 159184, Control_c, 0, 64, 119
2, 159186, Note_on_c, 0, 76, 79
2, 159190, Note_on_c, 0, 67, 77
2, 159190, Note_on_c, 0, 72, 80
2, 159199, Control_c, 0, 64, 106
2, 159215, Control_c, 0, 64, 89
2, 159230, Control_c, 0, 64, 68
2, 159246, Control_c, 0, 64, 0
2, 159275, Control_c, 0, 64, 25
2, 159276, Note_on_c, 0, 72, 0
2, 159284, Note_on_c, 0, 71, 71
2, 159291, Control_c, 0, 64, 68
2, 159305, Control_c, 0, 64, 80
2, 159323, Control_c, 0, 64, 94
2, 159338, Control_c, 0, 64, 102
2, 159352, Control_c, 0, 64, 104
2, 159353, Note_on_c, 0, 76, 0
2, 159362, Note_on_c, 0, 72, 67
2, 159368, Control_c, 0, 64, 107
2, 159383, Control_c, 0, 64, 109
2, 159397, Control_c, 0, 64, 113
2, 159406, Note_on_c, 0, 71, 0
2, 159413, Control_c, 0, 64, 117
2, 159422, Note_on_c, 0, 74, 79
2, 159428, Control_c, 0, 64, 121
2, 159439, Note_on_c, 0, 67, 0
2, 159444, Control_c, 0, 64, 126
2, 159455, Note_on_c, 0, 72, 0
2, 159459, Control_c, 0, 64, 127
2, 159518, Note_on_c, 0, 76, 87
2, 159528, Control_c, 0, 64, 120
2, 159528, Note_on_c, 0, 74, 0
2, 159540, Note_on_c, 0, 67, 67
2, 159542, Control_c, 0, 64, 101
2, 159557, Control_c, 0, 64, 77
2, 159573, Control_c, 0, 64, 0
2, 159618, Control_c, 0, 64, 44
2, 159633, Control_c, 0, 64, 68
2, 159639, Note_on_c, 0, 76, 0
2, 159649, Control_c, 0, 64, 79
2, 159664, Control_c, 0, 64, 90
2, 159679, Control_c, 0, 64, 94
2, 159694, Control_c, 0, 64, 95
2, 159709, Control_c, 0, 64, 98
2, 159725, Control_c, 0, 64, 101
2, 159739, Control_c, 0, 64, 105
2, 159748, Note_on_c, 0, 72, 65
2, 159751, Note_on_c, 0, 67, 0
2, 159754, Control_c, 0, 64, 109
2, 159770, Control_c, 0, 64, 113
2, 159785, Control_c, 0, 64, 117
2, 159800, Control_c, 0, 64, 121
2, 159815, Control_c, 0, 64, 126
2, 159830, Control_c, 0, 64, 127
2, 159913, Note_on_c, 0, 78, 94
2, 159929, Note_on_c, 0, 69, 73
2, 159936, Control_c, 0, 64, 110
2, 159946, Note_on_c, 0, 72, 0
2, 159951, Control_c, 0, 64, 83
2, 159967, Control_c, 0, 64, 54
2, 159982, Control_c, 0, 64, 0
2, 160027, Control_c, 0, 64, 65
2, 160043, Control_c, 0, 64, 75
2, 160058, Control_c, 0, 64, 87
2, 160073, Control_c, 0, 64, 92
2, 160089, Control_c, 0, 64, 93
2, 160103, Control_c, 0, 64, 96
2, 160118, Control_c, 0, 64, 98
2, 160134, Control_c, 0, 64, 102
2, 160141, Note_on_c, 0, 72, 58
2, 160150, Control_c, 0, 64, 108
2, 160165, Control_c, 0, 64, 113
2, 160176, Note_on_c, 0, 69, 0
2, 160180, Control_c, 0, 64, 119
2, 160195, Control_c, 0, 64, 127
2, 160248, Note_on_c, 0, 78, 0
2, 160389, Note_on_c, 0, 79, 90
2, 160393, Note_on_c, 0, 71, 76
2, 160398, Note_on_c, 0, 72, 0
2, 160447, Control_c, 0, 64, 102
2, 160461, Control_c, 0, 64, 75
2, 160476, Control_c, 0, 64, 0
2, 160537, Control_c, 0, 64, 32
2, 160552, Control_c, 0, 64, 67
2, 160568, Control_c, 0, 64, 75
2, 160582, Control_c, 0, 64, 81
2, 160597, Control_c, 0, 64, 83
2, 160613, Control_c, 0, 64, 84
2, 160628, Control_c, 0, 64, 85
2, 160642, Note_on_c, 0, 74, 67
2, 160644, Control_c, 0, 64, 86
2, 160659, Control_c, 0, 64, 89
2, 160673, Control_c, 0, 64, 91
2, 160689, Control_c, 0, 64, 94
2, 160704, Control_c, 0, 64, 96
2, 160719, Control_c, 0, 64, 98
2, 160735, Control_c, 0, 64, 101
2, 160750, Control_c, 0, 64, 102
2, 160766, Control_c, 0, 64, 103
2, 160780, Control_c, 0, 64, 104
2, 160811, Control_c, 0, 64, 105
2, 160826, Control_c, 0, 64, 105
2, 160842, Control_c, 0, 64, 106
2, 160861, Note_on_c, 0, 74, 0
2, 160870, Note_on_c, 0, 76, 76
2, 160871, Control_c, 0, 64, 106
2, 160902, Note_on_c, 0, 71, 0
2, 160964, Control_c, 0, 64, 107
2, 161009, Control_c, 0, 64, 107
2, 161047, Control_c, 0, 64, 108
2, 161062, Control_c, 0, 64, 108
2, 161108, Note_on_c, 0, 72, 74
2, 161139, Control_c, 0, 64, 105
2, 161153, Control_c, 0, 64, 95
2, 161169, Control_c, 0, 64, 79
2, 161184, Control_c, 0, 64, 49
2, 161199, Control_c, 0, 64, 0
2, 161245, Control_c, 0, 64, 64
2, 161260, Control_c, 0, 64, 72
2, 161275, Control_c, 0, 64, 81
2, 161291, Control_c, 0, 64, 85
2, 161305, Control_c, 0, 64, 86
2, 161320, Control_c, 0, 64, 86
2, 161336, Control_c, 0, 64, 87
2, 161351, Control_c, 0, 64, 88
2, 161356, Note_on_c, 0, 76, 0
2, 161367, Control_c, 0, 64, 89
2, 161381, Control_c, 0, 64, 90
2, 161389, Note_on_c, 0, 69, 76
2, 161396, Control_c, 0, 64, 90
2, 161412, Control_c, 0, 64, 91
2, 161418, Note_on_c, 0, 72, 0
2, 161427, Control_c, 0, 64, 92
2, 161443, Control_c, 0, 64, 92
2, 161458, Control_c, 0, 64, 93
2, 161489, Control_c, 0, 64, 93
2, 161518, Control_c, 0, 64, 94
2, 161548, Control_c, 0, 64, 94
2, 161579, Control_c, 0, 64, 95
2, 161710, Note_on_c, 0, 78, 87
2, 161739, Note_on_c, 0, 79, 0
2, 161814, Control_c, 0, 64, 95
2, 161898, Note_on_c, 0, 69, 0
2, 161981, Control_c, 0, 64, 96
2, 162072, Control_c, 0, 64, 96
2, 162148, Control_c, 0, 64, 97
2, 162234, Note_on_c, 0, 79, 78
2, 162247, Note_on_c, 0, 74, 52
2, 162251, Note_on_c, 0, 78, 0
2, 162252, Note_on_c, 0, 71, 50
2, 162255, Control_c, 0, 64, 96
2, 162269, Control_c, 0, 64, 96
2, 162284, Control_c, 0, 64, 93
2, 162300, Control_c, 0, 64, 87
2, 162315, Control_c, 0, 64, 78
2, 162331, Control_c, 0, 64, 64
2, 162345, Control_c, 0, 64, 0
2, 164289, Note_on_c, 0, 71, 0
2, 164317, Note_on_c, 0, 74, 0
2, 164347, Note_on_c, 0, 79, 0
2, 164375, Note_on_c, 0, 43, 0
2, 164378, Note_on_c, 0, 55, 0
2, 164379, End_track
0, 0, End_of_file
