0, 0, Header, 1, 2, 384
1, 0, Start_track
1, 0, Tempo, 500000
1, 0, Time_signature, 4, 2, 24, 8
1, 1, End_track
2,0,Start_track
2,0, Note_on_c, 0, 67, 52
2,44, Note_on_c, 0, 67, 0
2,289, Note_on_c, 0, 69, 47
2,413, Note_on_c, 0, 67, 59
2,423, Note_on_c, 0, 69, 0
2,536, Note_on_c, 0, 67, 0
2,543, Note_on_c, 0, 66, 65
2,639, Note_on_c, 0, 66, 0
2,649, Note_on_c, 0, 67, 64
2,780, Note_on_c, 0, 69, 62
2,799, Note_on_c, 0, 67, 0
2,848, Note_on_c, 0, 69, 0
2,1040, Note_on_c, 0, 71, 66
2,1135, Note_on_c, 0, 69, 68
2,1170, Note_on_c, 0, 71, 0
2,1258, Note_on_c, 0, 67, 70
2,1263, Note_on_c, 0, 69, 0
2,1369, Note_on_c, 0, 69, 68
2,1390, Note_on_c, 0, 67, 0
2,1507, Note_on_c, 0, 71, 66
2,1523, Note_on_c, 0, 69, 0
2,1554, Note_on_c, 0, 71, 0
2,1750, Note_on_c, 0, 69, 58
2,1796, Note_on_c, 0, 69, 0
2,1999, Note_on_c, 0, 67, 63
2,2041, Note_on_c, 0, 67, 0
2,2253, Note_on_c, 0, 62, 52
2,2278, Note_on_c, 0, 62, 0
2,2535, Note_on_c, 0, 72, 60
2,3031, Note_on_c, 0, 72, 0
2,3042, Note_on_c, 0, 71, 57
2,3092, Note_on_c, 0, 71, 0
2,3299, Note_on_c, 0, 69, 70
2,3337, Note_on_c, 0, 69, 0
2,3555, Note_on_c, 0, 67, 69
2,3587, Note_on_c, 0, 67, 0
2,3787, Note_on_c, 0, 66, 72
2,3819, Note_on_c, 0, 66, 0
2,4061, Note_on_c, 0, 76, 74
2,4558, Note_on_c, 0, 76, 0
2,4560, Note_on_c, 0, 74, 58
2,4632, Note_on_c, 0, 74, 0
2,4829, Note_on_c, 0, 76, 59
2,4931, Note_on_c, 0, 76, 0
2,4947, Note_on_c, 0, 74, 55
2,5071, Note_on_c, 0, 72, 60
2,5074, Note_on_c, 0, 74, 0
2,5178, Note_on_c, 0, 72, 0
2,5194, Note_on_c, 0, 71, 54
2,5320, Note_on_c, 0, 71, 0
2,5323, Note_on_c, 0, 69, 50
2,5389, Note_on_c, 0, 69, 0
2,5577, Note_on_c, 0, 72, 56
2,5675, Note_on_c, 0, 72, 0
2,5694, Note_on_c, 0, 71, 51
2,5780, Note_on_c, 0, 71, 0
2,5799, Note_on_c, 0, 69, 49
2,5901, Note_on_c, 0, 69, 0
2,5929, Note_on_c, 0, 67, 47
2,6054, Note_on_c, 0, 67, 0
2,6076, Note_on_c, 0, 66, 56
2,6082, Note_on_c, 0, 62, 47
2,6113, Note_on_c, 0, 66, 0
2,6123, Note_on_c, 0, 62, 0
2,6324, Note_on_c, 0, 64, 48
2,6336, Note_on_c, 0, 67, 57
2,6373, Note_on_c, 0, 67, 0
2,6433, Note_on_c, 0, 64, 0
2,6451, Note_on_c, 0, 62, 51
2,6556, Note_on_c, 0, 62, 0
2,6567, Note_on_c, 0, 61, 57
2,6586, Note_on_c, 0, 69, 62
2,6619, Note_on_c, 0, 69, 0
2,6696, Note_on_c, 0, 61, 0
2,6696, Note_on_c, 0, 62, 52
2,6827, Note_on_c, 0, 64, 56
2,6833, Note_on_c, 0, 62, 0
2,6839, Note_on_c, 0, 67, 57
2,6874, Note_on_c, 0, 64, 0
2,6874, Note_on_c, 0, 67, 0
2,7079, Note_on_c, 0, 69, 64
2,7083, Note_on_c, 0, 66, 63
2,7114, Note_on_c, 0, 69, 0
2,7183, Note_on_c, 0, 64, 58
2,7183, Note_on_c, 0, 66, 0
2,7297, Note_on_c, 0, 64, 0
2,7298, Note_on_c, 0, 62, 63
2,7315, Note_on_c, 0, 71, 65
2,7359, Note_on_c, 0, 71, 0
2,7416, Note_on_c, 0, 64, 65
2,7429, Note_on_c, 0, 62, 0
2,7551, Note_on_c, 0, 66, 69
2,7568, Note_on_c, 0, 64, 0
2,7577, Note_on_c, 0, 69, 65
2,7606, Note_on_c, 0, 69, 0
2,7624, Note_on_c, 0, 66, 0
2,7802, Note_on_c, 0, 64, 67
2,7827, Note_on_c, 0, 71, 48
2,7835, Note_on_c, 0, 64, 0
2,7895, Note_on_c, 0, 71, 0
2,7913, Note_on_c, 0, 73, 55
2,8011, Note_on_c, 0, 73, 0
2,8030, Note_on_c, 0, 74, 55
2,8036, Note_on_c, 0, 62, 60
2,8076, Note_on_c, 0, 62, 0
2,8130, Note_on_c, 0, 74, 0
2,8156, Note_on_c, 0, 71, 44
2,8264, Note_on_c, 0, 71, 0
2,8271, Note_on_c, 0, 57, 57
2,8288, Note_on_c, 0, 73, 55
2,8306, Note_on_c, 0, 57, 0
2,8351, Note_on_c, 0, 73, 0
2,8394, Note_on_c, 0, 71, 54
2,8534, Note_on_c, 0, 67, 64
2,8543, Note_on_c, 0, 73, 57
2,8544, Note_on_c, 0, 71, 0
2,8640, Note_on_c, 0, 73, 0
2,8669, Note_on_c, 0, 74, 53
2,8777, Note_on_c, 0, 74, 0
2,8783, Note_on_c, 0, 76, 57
2,8895, Note_on_c, 0, 76, 0
2,8907, Note_on_c, 0, 73, 57
2,9022, Note_on_c, 0, 66, 65
2,9023, Note_on_c, 0, 73, 0
2,9034, Note_on_c, 0, 74, 64
2,9043, Note_on_c, 0, 67, 0
2,9080, Note_on_c, 0, 66, 0
2,9146, Note_on_c, 0, 74, 0
2,9152, Note_on_c, 0, 73, 67
2,9240, Note_on_c, 0, 73, 0
2,9253, Note_on_c, 0, 64, 71
2,9260, Note_on_c, 0, 74, 73
2,9317, Note_on_c, 0, 64, 0
2,9378, Note_on_c, 0, 76, 67
2,9395, Note_on_c, 0, 74, 0
2,9487, Note_on_c, 0, 62, 75
2,9492, Note_on_c, 0, 78, 73
2,9522, Note_on_c, 0, 76, 0
2,9542, Note_on_c, 0, 62, 0
2,9587, Note_on_c, 0, 78, 0
2,9606, Note_on_c, 0, 74, 64
2,9727, Note_on_c, 0, 61, 76
2,9738, Note_on_c, 0, 76, 69
2,9742, Note_on_c, 0, 74, 0
2,9769, Note_on_c, 0, 61, 0
2,9849, Note_on_c, 0, 76, 0
2,9857, Note_on_c, 0, 74, 69
2,9992, Note_on_c, 0, 76, 71
2,9993, Note_on_c, 0, 71, 74
2,10017, Note_on_c, 0, 74, 0
2,10117, Note_on_c, 0, 78, 71
2,10164, Note_on_c, 0, 76, 0
2,10231, Note_on_c, 0, 79, 65
2,10237, Note_on_c, 0, 78, 0
2,10338, Note_on_c, 0, 79, 0
2,10340, Note_on_c, 0, 76, 62
2,10481, Note_on_c, 0, 78, 70
2,10485, Note_on_c, 0, 69, 60
2,10501, Note_on_c, 0, 71, 0
2,10510, Note_on_c, 0, 76, 0
2,10531, Note_on_c, 0, 69, 0
2,10551, Note_on_c, 0, 78, 0
2,10740, Note_on_c, 0, 71, 51
2,10744, Note_on_c, 0, 79, 63
2,10850, Note_on_c, 0, 71, 0
2,10856, Note_on_c, 0, 78, 66
2,10867, Note_on_c, 0, 69, 54
2,10874, Note_on_c, 0, 79, 0
2,10970, Note_on_c, 0, 76, 58
2,10971, Note_on_c, 0, 78, 0
2,10972, Note_on_c, 0, 69, 0
2,10989, Note_on_c, 0, 67, 42
2,11078, Note_on_c, 0, 76, 0
2,11084, Note_on_c, 0, 74, 56
2,11096, Note_on_c, 0, 66, 46
2,11136, Note_on_c, 0, 67, 0
2,11228, Note_on_c, 0, 79, 64
2,11246, Note_on_c, 0, 64, 54
2,11258, Note_on_c, 0, 74, 0
2,11284, Note_on_c, 0, 66, 0
2,11289, Note_on_c, 0, 64, 0
2,11502, Note_on_c, 0, 67, 54
2,11626, Note_on_c, 0, 66, 57
2,11644, Note_on_c, 0, 67, 0
2,11728, Note_on_c, 0, 66, 0
2,11731, Note_on_c, 0, 64, 54
2,11848, Note_on_c, 0, 64, 0
2,11860, Note_on_c, 0, 62, 48
2,12001, Note_on_c, 0, 61, 56
2,12031, Note_on_c, 0, 62, 0
2,12072, Note_on_c, 0, 61, 0
2,12138, Note_on_c, 0, 78, 58
2,12208, Note_on_c, 0, 79, 0
2,12239, Note_on_c, 0, 67, 63
2,12243, Note_on_c, 0, 76, 69
2,12249, Note_on_c, 0, 78, 0
2,12277, Note_on_c, 0, 67, 0
2,12361, Note_on_c, 0, 79, 63
2,12368, Note_on_c, 0, 76, 0
2,12471, Note_on_c, 0, 79, 0
2,12472, Note_on_c, 0, 66, 63
2,12481, Note_on_c, 0, 74, 67
2,12515, Note_on_c, 0, 66, 0
2,12567, Note_on_c, 0, 74, 0
2,12597, Note_on_c, 0, 79, 62
2,12711, Note_on_c, 0, 79, 0
2,12715, Note_on_c, 0, 64, 52
2,12716, Note_on_c, 0, 73, 66
2,12760, Note_on_c, 0, 64, 0
2,12817, Note_on_c, 0, 73, 0
2,12836, Note_on_c, 0, 79, 58
2,12934, Note_on_c, 0, 79, 0
2,12964, Note_on_c, 0, 71, 55
2,12967, Note_on_c, 0, 62, 51
2,13004, Note_on_c, 0, 62, 0
2,13029, Note_on_c, 0, 71, 0
2,13071, Note_on_c, 0, 79, 52
2,13188, Note_on_c, 0, 61, 51
2,13191, Note_on_c, 0, 69, 52
2,13194, Note_on_c, 0, 79, 0
2,13232, Note_on_c, 0, 61, 0
2,13255, Note_on_c, 0, 69, 0
2,13308, Note_on_c, 0, 79, 50
2,13416, Note_on_c, 0, 79, 0
2,13439, Note_on_c, 0, 78, 58
2,13449, Note_on_c, 0, 62, 48
2,13485, Note_on_c, 0, 78, 0
2,13527, Note_on_c, 0, 62, 0
2,13575, Note_on_c, 0, 64, 36
2,13646, Note_on_c, 0, 64, 0
2,13663, Note_on_c, 0, 66, 56
2,13678, Note_on_c, 0, 74, 60
2,13711, Note_on_c, 0, 74, 0
2,13777, Note_on_c, 0, 66, 0
2,13794, Note_on_c, 0, 62, 46
2,13903, Note_on_c, 0, 62, 0
2,13915, Note_on_c, 0, 76, 71
2,13926, Note_on_c, 0, 67, 54
2,13948, Note_on_c, 0, 76, 0
2,14023, Note_on_c, 0, 67, 0
2,14030, Note_on_c, 0, 62, 61
2,14135, Note_on_c, 0, 62, 0
2,14145, Note_on_c, 0, 69, 71
2,14149, Note_on_c, 0, 78, 81
2,14201, Note_on_c, 0, 78, 0
2,14234, Note_on_c, 0, 69, 0
2,14267, Note_on_c, 0, 62, 61
2,14381, Note_on_c, 0, 71, 66
2,14389, Note_on_c, 0, 79, 86
2,14393, Note_on_c, 0, 62, 0
2,14452, Note_on_c, 0, 79, 0
2,14470, Note_on_c, 0, 71, 0
2,14506, Note_on_c, 0, 62, 64
2,14586, Note_on_c, 0, 62, 0
2,14607, Note_on_c, 0, 72, 69
2,14612, Note_on_c, 0, 81, 81
2,14676, Note_on_c, 0, 72, 0
2,14709, Note_on_c, 0, 62, 61
2,14734, Note_on_c, 0, 62, 0
2,14862, Note_on_c, 0, 55, 81
2,14891, Note_on_c, 0, 71, 60
2,14907, Note_on_c, 0, 55, 0
2,15108, Note_on_c, 0, 57, 71
2,15139, Note_on_c, 0, 74, 66
2,15150, Note_on_c, 0, 81, 0
2,15196, Note_on_c, 0, 74, 0
2,15218, Note_on_c, 0, 55, 70
2,15224, Note_on_c, 0, 57, 0
2,15336, Note_on_c, 0, 54, 69
2,15344, Note_on_c, 0, 55, 0
2,15382, Note_on_c, 0, 79, 71
2,15463, Note_on_c, 0, 55, 69
2,15482, Note_on_c, 0, 54, 0
2,15596, Note_on_c, 0, 57, 69
2,15617, Note_on_c, 0, 72, 70
2,15618, Note_on_c, 0, 55, 0
2,15654, Note_on_c, 0, 71, 0
2,15661, Note_on_c, 0, 57, 0
2,15674, Note_on_c, 0, 79, 0
2,15853, Note_on_c, 0, 59, 65
2,15863, Note_on_c, 0, 78, 72
2,15942, Note_on_c, 0, 78, 0
2,15956, Note_on_c, 0, 57, 67
2,15977, Note_on_c, 0, 59, 0
2,16067, Note_on_c, 0, 57, 0
2,16073, Note_on_c, 0, 55, 68
2,16090, Note_on_c, 0, 76, 65
2,16134, Note_on_c, 0, 76, 0
2,16174, Note_on_c, 0, 57, 72
2,16184, Note_on_c, 0, 55, 0
2,16310, Note_on_c, 0, 59, 71
2,16322, Note_on_c, 0, 57, 0
2,16329, Note_on_c, 0, 74, 67
2,16346, Note_on_c, 0, 72, 0
2,16359, Note_on_c, 0, 59, 0
2,16369, Note_on_c, 0, 74, 0
2,16567, Note_on_c, 0, 57, 64
2,16569, Note_on_c, 0, 66, 67
2,16572, Note_on_c, 0, 72, 69
2,16599, Note_on_c, 0, 66, 0
2,16600, Note_on_c, 0, 57, 0
2,16615, Note_on_c, 0, 72, 0
2,16803, Note_on_c, 0, 55, 59
2,16811, Note_on_c, 0, 67, 61
2,16820, Note_on_c, 0, 71, 54
2,16842, Note_on_c, 0, 55, 0
2,16854, Note_on_c, 0, 71, 0
2,17059, Note_on_c, 0, 50, 54
2,17087, Note_on_c, 0, 69, 57
2,17088, Note_on_c, 0, 50, 0
2,17114, Note_on_c, 0, 67, 0
2,17337, Note_on_c, 0, 60, 64
2,17347, Note_on_c, 0, 69, 0
2,17354, Note_on_c, 0, 66, 58
2,17444, Note_on_c, 0, 66, 0
2,17479, Note_on_c, 0, 67, 51
2,17587, Note_on_c, 0, 67, 0
2,17599, Note_on_c, 0, 69, 52
2,17700, Note_on_c, 0, 69, 0
2,17713, Note_on_c, 0, 66, 55
2,17825, Note_on_c, 0, 59, 62
2,17829, Note_on_c, 0, 66, 0
2,17837, Note_on_c, 0, 67, 62
2,17840, Note_on_c, 0, 60, 0
2,17884, Note_on_c, 0, 59, 0
2,17932, Note_on_c, 0, 67, 0
2,17939, Note_on_c, 0, 66, 70
2,18031, Note_on_c, 0, 66, 0
2,18053, Note_on_c, 0, 67, 71
2,18063, Note_on_c, 0, 57, 73
2,18131, Note_on_c, 0, 57, 0
2,18170, Note_on_c, 0, 69, 73
2,18176, Note_on_c, 0, 67, 0
2,18298, Note_on_c, 0, 55, 81
2,18298, Note_on_c, 0, 74, 68
2,18305, Note_on_c, 0, 71, 69
2,18339, Note_on_c, 0, 69, 0
2,18355, Note_on_c, 0, 55, 0
2,18407, Note_on_c, 0, 71, 0
2,18427, Note_on_c, 0, 67, 70
2,18522, Note_on_c, 0, 54, 72
2,18537, Note_on_c, 0, 69, 74
2,18539, Note_on_c, 0, 67, 0
2,18578, Note_on_c, 0, 54, 0
2,18642, Note_on_c, 0, 69, 0
2,18655, Note_on_c, 0, 67, 74
2,18781, Note_on_c, 0, 64, 79
2,18789, Note_on_c, 0, 69, 74
2,18793, Note_on_c, 0, 67, 0
2,18798, Note_on_c, 0, 74, 0
2,18802, Note_on_c, 0, 72, 74
2,18859, Note_on_c, 0, 69, 0
2,18888, Note_on_c, 0, 72, 0
2,18930, Note_on_c, 0, 71, 73
2,19045, Note_on_c, 0, 71, 0
2,19053, Note_on_c, 0, 81, 76
2,19056, Note_on_c, 0, 72, 71
2,19159, Note_on_c, 0, 81, 0
2,19161, Note_on_c, 0, 72, 0
2,19166, Note_on_c, 0, 69, 70
2,19278, Note_on_c, 0, 71, 69
2,19287, Note_on_c, 0, 69, 0
2,19305, Note_on_c, 0, 62, 60
2,19322, Note_on_c, 0, 64, 0
2,19344, Note_on_c, 0, 62, 0
2,19534, Note_on_c, 0, 72, 73
2,19537, Note_on_c, 0, 79, 78
2,19540, Note_on_c, 0, 71, 0
2,19561, Note_on_c, 0, 64, 52
2,19645, Note_on_c, 0, 72, 0
2,19669, Note_on_c, 0, 64, 0
2,19670, Note_on_c, 0, 71, 61
2,19672, Note_on_c, 0, 62, 54
2,19767, Note_on_c, 0, 60, 47
2,19779, Note_on_c, 0, 71, 0
2,19787, Note_on_c, 0, 69, 65
2,19804, Note_on_c, 0, 62, 0
2,19884, Note_on_c, 0, 59, 47
2,19884, Note_on_c, 0, 69, 0
2,19892, Note_on_c, 0, 60, 0
2,19902, Note_on_c, 0, 67, 72
2,19975, Note_on_c, 0, 67, 0
2,20018, Note_on_c, 0, 57, 52
2,20027, Note_on_c, 0, 72, 69
2,20055, Note_on_c, 0, 59, 0
2,20067, Note_on_c, 0, 57, 0
2,20089, Note_on_c, 0, 79, 0
2,20272, Note_on_c, 0, 60, 60
2,20283, Note_on_c, 0, 81, 70
2,20366, Note_on_c, 0, 60, 0
2,20391, Note_on_c, 0, 79, 66
2,20403, Note_on_c, 0, 59, 61
2,20403, Note_on_c, 0, 81, 0
2,20516, Note_on_c, 0, 59, 0
2,20520, Note_on_c, 0, 57, 60
2,20525, Note_on_c, 0, 78, 69
2,20531, Note_on_c, 0, 79, 0
2,20608, Note_on_c, 0, 78, 0
2,20617, Note_on_c, 0, 76, 63
2,20638, Note_on_c, 0, 55, 51
2,20647, Note_on_c, 0, 57, 0
2,20647, Note_on_c, 0, 76, 0
2,20736, Note_on_c, 0, 54, 63
2,20761, Note_on_c, 0, 55, 0
2,20771, Note_on_c, 0, 74, 53
2,20774, Note_on_c, 0, 72, 0
2,20781, Note_on_c, 0, 76, 36
2,20803, Note_on_c, 0, 76, 0
2,20886, Note_on_c, 0, 71, 52
2,20966, Note_on_c, 0, 71, 0
2,20998, Note_on_c, 0, 69, 52
2,21094, Note_on_c, 0, 69, 0
2,21117, Note_on_c, 0, 72, 53
2,21212, Note_on_c, 0, 54, 0
2,21222, Note_on_c, 0, 72, 0
2,21233, Note_on_c, 0, 52, 53
2,21244, Note_on_c, 0, 67, 63
2,21272, Note_on_c, 0, 52, 0
2,21345, Note_on_c, 0, 67, 0
2,21355, Note_on_c, 0, 72, 59
2,21457, Note_on_c, 0, 72, 0
2,21468, Note_on_c, 0, 66, 58
2,21479, Note_on_c, 0, 50, 45
2,21547, Note_on_c, 0, 50, 0
2,21559, Note_on_c, 0, 66, 0
2,21585, Note_on_c, 0, 52, 52
2,21591, Note_on_c, 0, 72, 56
2,21674, Note_on_c, 0, 72, 0
2,21693, Note_on_c, 0, 50, 49
2,21696, Note_on_c, 0, 52, 0
2,21733, Note_on_c, 0, 64, 42
2,21816, Note_on_c, 0, 50, 0
2,21818, Note_on_c, 0, 64, 0
2,21824, Note_on_c, 0, 72, 45
2,21828, Note_on_c, 0, 48, 48
2,21912, Note_on_c, 0, 72, 0
2,21940, Note_on_c, 0, 47, 54
2,21953, Note_on_c, 0, 62, 48
2,21977, Note_on_c, 0, 48, 0
2,22025, Note_on_c, 0, 62, 0
2,22058, Note_on_c, 0, 72, 55
2,22071, Note_on_c, 0, 45, 54
2,22071, Note_on_c, 0, 47, 0
2,22133, Note_on_c, 0, 45, 0
2,22192, Note_on_c, 0, 72, 0
2,22196, Note_on_c, 0, 43, 54
2,22204, Note_on_c, 0, 71, 54
2,22206, Note_on_c, 0, 74, 0
2,22236, Note_on_c, 0, 71, 0
2,22289, Note_on_c, 0, 43, 0
2,22293, Note_on_c, 0, 45, 54
2,22396, Note_on_c, 0, 45, 0
2,22408, Note_on_c, 0, 47, 54
2,22428, Note_on_c, 0, 74, 60
2,22430, Note_on_c, 0, 65, 51
2,22470, Note_on_c, 0, 65, 0
2,22477, Note_on_c, 0, 74, 0
2,22513, Note_on_c, 0, 47, 0
2,22537, Note_on_c, 0, 43, 44
2,22624, Note_on_c, 0, 43, 0
2,22644, Note_on_c, 0, 48, 61
2,22656, Note_on_c, 0, 72, 67
2,22667, Note_on_c, 0, 64, 59
2,22710, Note_on_c, 0, 64, 0
2,22716, Note_on_c, 0, 72, 0
2,22740, Note_on_c, 0, 48, 0
2,22757, Note_on_c, 0, 43, 52
2,22873, Note_on_c, 0, 43, 0
2,22881, Note_on_c, 0, 50, 60
2,22893, Note_on_c, 0, 71, 73
2,22897, Note_on_c, 0, 62, 72
2,22931, Note_on_c, 0, 62, 0
2,22953, Note_on_c, 0, 71, 0
2,22973, Note_on_c, 0, 50, 0
2,22993, Note_on_c, 0, 43, 57
2,23105, Note_on_c, 0, 52, 67
2,23112, Note_on_c, 0, 43, 0
2,23121, Note_on_c, 0, 69, 80
2,23124, Note_on_c, 0, 60, 77
2,23164, Note_on_c, 0, 60, 0
2,23177, Note_on_c, 0, 52, 0
2,23181, Note_on_c, 0, 69, 0
2,23221, Note_on_c, 0, 43, 65
2,23333, Note_on_c, 0, 43, 0
2,23336, Note_on_c, 0, 53, 62
2,23357, Note_on_c, 0, 67, 76
2,23371, Note_on_c, 0, 59, 64
2,23400, Note_on_c, 0, 59, 0
2,23415, Note_on_c, 0, 67, 0
2,23418, Note_on_c, 0, 53, 0
2,23449, Note_on_c, 0, 43, 62
2,23598, Note_on_c, 0, 43, 0
2,23599, Note_on_c, 0, 72, 84
2,23615, Note_on_c, 0, 52, 62
2,23721, Note_on_c, 0, 74, 72
2,23745, Note_on_c, 0, 72, 0
2,23746, Note_on_c, 0, 50, 54
2,23757, Note_on_c, 0, 52, 0
2,23841, Note_on_c, 0, 50, 0
2,23848, Note_on_c, 0, 48, 54
2,23848, Note_on_c, 0, 76, 83
2,23870, Note_on_c, 0, 74, 0
2,23947, Note_on_c, 0, 48, 0
2,23979, Note_on_c, 0, 52, 58
2,24063, Note_on_c, 0, 52, 0
2,24078, Note_on_c, 0, 67, 66
2,24089, Note_on_c, 0, 47, 55
2,24118, Note_on_c, 0, 67, 0
2,24168, Note_on_c, 0, 47, 0
2,24197, Note_on_c, 0, 52, 61
2,24317, Note_on_c, 0, 52, 0
2,24321, Note_on_c, 0, 76, 0
2,24338, Note_on_c, 0, 45, 50
2,24339, Note_on_c, 0, 66, 65
2,24430, Note_on_c, 0, 45, 0
2,24455, Note_on_c, 0, 52, 54
2,24463, Note_on_c, 0, 74, 65
2,24537, Note_on_c, 0, 66, 0
2,24563, Note_on_c, 0, 52, 0
2,24567, Note_on_c, 0, 72, 73
2,24574, Note_on_c, 0, 43, 53
2,24589, Note_on_c, 0, 74, 0
2,24639, Note_on_c, 0, 43, 0
2,24684, Note_on_c, 0, 71, 74
2,24692, Note_on_c, 0, 52, 58
2,24696, Note_on_c, 0, 72, 0
2,24760, Note_on_c, 0, 52, 0
2,24784, Note_on_c, 0, 42, 55
2,24799, Note_on_c, 0, 69, 79
2,24827, Note_on_c, 0, 71, 0
2,24871, Note_on_c, 0, 42, 0
2,24901, Note_on_c, 0, 52, 57
2,24917, Note_on_c, 0, 72, 80
2,24941, Note_on_c, 0, 69, 0
2,25030, Note_on_c, 0, 52, 0
2,25046, Note_on_c, 0, 50, 58
2,25046, Note_on_c, 0, 71, 78
2,25069, Note_on_c, 0, 72, 0
2,25152, Note_on_c, 0, 48, 56
2,25168, Note_on_c, 0, 50, 0
2,25169, Note_on_c, 0, 72, 79
2,25182, Note_on_c, 0, 71, 0
2,25270, Note_on_c, 0, 47, 54
2,25282, Note_on_c, 0, 74, 77
2,25287, Note_on_c, 0, 48, 0
2,25304, Note_on_c, 0, 72, 0
2,25372, Note_on_c, 0, 47, 0
2,25406, Note_on_c, 0, 50, 52
2,25515, Note_on_c, 0, 50, 0
2,25520, Note_on_c, 0, 66, 75
2,25531, Note_on_c, 0, 45, 55
2,25564, Note_on_c, 0, 66, 0
2,25612, Note_on_c, 0, 45, 0
2,25641, Note_on_c, 0, 50, 55
2,25741, Note_on_c, 0, 50, 0
2,25750, Note_on_c, 0, 43, 51
2,25754, Note_on_c, 0, 74, 0
2,25760, Note_on_c, 0, 64, 66
2,25837, Note_on_c, 0, 43, 0
2,25886, Note_on_c, 0, 50, 53
2,25898, Note_on_c, 0, 72, 62
2,25965, Note_on_c, 0, 50, 0
2,25980, Note_on_c, 0, 42, 51
2,26010, Note_on_c, 0, 71, 68
2,26015, Note_on_c, 0, 72, 0
2,26062, Note_on_c, 0, 42, 0
2,26105, Note_on_c, 0, 50, 56
2,26133, Note_on_c, 0, 69, 67
2,26138, Note_on_c, 0, 71, 0
2,26186, Note_on_c, 0, 50, 0
2,26218, Note_on_c, 0, 40, 45
2,26243, Note_on_c, 0, 67, 69
2,26249, Note_on_c, 0, 69, 0
2,26298, Note_on_c, 0, 40, 0
2,26338, Note_on_c, 0, 50, 52
2,26339, Note_on_c, 0, 64, 0
2,26343, Note_on_c, 0, 67, 0
2,26354, Note_on_c, 0, 71, 58
2,26465, Note_on_c, 0, 50, 0
2,26474, Note_on_c, 0, 71, 0
2,26479, Note_on_c, 0, 48, 52
2,26481, Note_on_c, 0, 69, 67
2,26582, Note_on_c, 0, 48, 0
2,26588, Note_on_c, 0, 47, 48
2,26599, Note_on_c, 0, 69, 0
2,26607, Note_on_c, 0, 71, 58
2,26697, Note_on_c, 0, 47, 0
2,26704, Note_on_c, 0, 45, 48
2,26723, Note_on_c, 0, 71, 0
2,26731, Note_on_c, 0, 72, 65
2,26784, Note_on_c, 0, 45, 0
2,26806, Note_on_c, 0, 48, 55
2,26943, Note_on_c, 0, 43, 52
2,26944, Note_on_c, 0, 48, 0
2,26945, Note_on_c, 0, 64, 60
2,26989, Note_on_c, 0, 64, 0
2,27011, Note_on_c, 0, 43, 0
2,27074, Note_on_c, 0, 48, 51
2,27132, Note_on_c, 0, 48, 0
2,27172, Note_on_c, 0, 42, 53
2,27194, Note_on_c, 0, 62, 53
2,27202, Note_on_c, 0, 72, 0
2,27260, Note_on_c, 0, 42, 0
2,27295, Note_on_c, 0, 48, 52
2,27359, Note_on_c, 0, 71, 52
2,27406, Note_on_c, 0, 48, 0
2,27418, Note_on_c, 0, 40, 52
2,27440, Note_on_c, 0, 71, 0
2,27463, Note_on_c, 0, 69, 57
2,27503, Note_on_c, 0, 40, 0
2,27541, Note_on_c, 0, 48, 55
2,27578, Note_on_c, 0, 69, 0
2,27579, Note_on_c, 0, 67, 59
2,27628, Note_on_c, 0, 62, 0
2,27632, Note_on_c, 0, 48, 0
2,27669, Note_on_c, 0, 38, 45
2,27671, Note_on_c, 0, 67, 0
2,27687, Note_on_c, 0, 66, 57
2,27747, Note_on_c, 0, 38, 0
2,27780, Note_on_c, 0, 48, 46
2,27781, Note_on_c, 0, 66, 0
2,27799, Note_on_c, 0, 69, 55
2,27851, Note_on_c, 0, 48, 0
2,27882, Note_on_c, 0, 69, 0
2,27919, Note_on_c, 0, 47, 63
2,27922, Note_on_c, 0, 62, 72
2,27924, Note_on_c, 0, 67, 67
2,27949, Note_on_c, 0, 47, 0
2,27982, Note_on_c, 0, 62, 0
2,28015, Note_on_c, 0, 67, 0
2,28022, Note_on_c, 0, 69, 60
2,28138, Note_on_c, 0, 69, 0
2,28163, Note_on_c, 0, 71, 68
2,28169, Note_on_c, 0, 45, 58
2,28176, Note_on_c, 0, 60, 68
2,28206, Note_on_c, 0, 45, 0
2,28278, Note_on_c, 0, 60, 0
2,28285, Note_on_c, 0, 62, 63
2,28377, Note_on_c, 0, 62, 0
2,28398, Note_on_c, 0, 64, 58
2,28420, Note_on_c, 0, 43, 54
2,28456, Note_on_c, 0, 43, 0
2,28503, Note_on_c, 0, 62, 62
2,28504, Note_on_c, 0, 64, 0
2,28628, Note_on_c, 0, 71, 0
2,28637, Note_on_c, 0, 62, 0
2,28646, Note_on_c, 0, 60, 58
2,28650, Note_on_c, 0, 45, 54
2,28680, Note_on_c, 0, 60, 0
2,28685, Note_on_c, 0, 45, 0
2,28891, Note_on_c, 0, 43, 56
2,28891, Note_on_c, 0, 64, 55
2,28894, Note_on_c, 0, 59, 65
2,28923, Note_on_c, 0, 43, 0
2,28938, Note_on_c, 0, 59, 0
2,28987, Note_on_c, 0, 64, 0
2,29001, Note_on_c, 0, 60, 63
2,29111, Note_on_c, 0, 60, 0
2,29127, Note_on_c, 0, 42, 54
2,29127, Note_on_c, 0, 69, 60
2,29130, Note_on_c, 0, 62, 65
2,29160, Note_on_c, 0, 42, 0
2,29204, Note_on_c, 0, 62, 0
2,29240, Note_on_c, 0, 60, 60
2,29368, Note_on_c, 0, 60, 0
2,29370, Note_on_c, 0, 43, 46
2,29385, Note_on_c, 0, 59, 61
2,29422, Note_on_c, 0, 43, 0
2,29428, Note_on_c, 0, 59, 0
2,29472, Note_on_c, 0, 69, 0
2,29490, Note_on_c, 0, 67, 65
2,29502, Note_on_c, 0, 55, 49
2,29579, Note_on_c, 0, 55, 0
2,29608, Note_on_c, 0, 67, 0
2,29611, Note_on_c, 0, 69, 70
2,29624, Note_on_c, 0, 60, 80
2,29628, Note_on_c, 0, 53, 58
2,29656, Note_on_c, 0, 60, 0
2,29667, Note_on_c, 0, 69, 0
2,29723, Note_on_c, 0, 52, 61
2,29724, Note_on_c, 0, 53, 0
2,29813, Note_on_c, 0, 52, 0
2,29836, Note_on_c, 0, 50, 60
2,29845, Note_on_c, 0, 62, 83
2,29845, Note_on_c, 0, 71, 73
2,29878, Note_on_c, 0, 62, 0
2,29896, Note_on_c, 0, 71, 0
2,29947, Note_on_c, 0, 50, 0
2,29959, Note_on_c, 0, 53, 60
2,30067, Note_on_c, 0, 53, 0
2,30079, Note_on_c, 0, 72, 76
2,30086, Note_on_c, 0, 52, 61
2,30087, Note_on_c, 0, 67, 72
2,30120, Note_on_c, 0, 67, 0
2,30186, Note_on_c, 0, 52, 0
2,30189, Note_on_c, 0, 74, 67
2,30194, Note_on_c, 0, 72, 0
2,30201, Note_on_c, 0, 53, 55
2,30315, Note_on_c, 0, 53, 0
2,30327, Note_on_c, 0, 74, 0
2,30328, Note_on_c, 0, 57, 70
2,30328, Note_on_c, 0, 72, 63
2,30329, Note_on_c, 0, 52, 61
2,30448, Note_on_c, 0, 72, 0
2,30454, Note_on_c, 0, 52, 0
2,30462, Note_on_c, 0, 71, 56
2,30466, Note_on_c, 0, 50, 55
2,30545, Note_on_c, 0, 50, 0
2,30547, Note_on_c, 0, 71, 0
2,30566, Note_on_c, 0, 48, 50
2,30571, Note_on_c, 0, 69, 55
2,30644, Note_on_c, 0, 48, 0
2,30646, Note_on_c, 0, 69, 0
2,30648, Note_on_c, 0, 57, 0
2,30669, Note_on_c, 0, 52, 56
2,30670, Note_on_c, 0, 67, 56
2,30716, Note_on_c, 0, 67, 0
2,30730, Note_on_c, 0, 52, 0
2,30790, Note_on_c, 0, 59, 60
2,30806, Note_on_c, 0, 67, 64
2,30813, Note_on_c, 0, 50, 41
2,30863, Note_on_c, 0, 67, 0
2,30868, Note_on_c, 0, 66, 65
2,30880, Note_on_c, 0, 50, 0
2,30907, Note_on_c, 0, 59, 0
2,30908, Note_on_c, 0, 52, 50
2,30924, Note_on_c, 0, 66, 0
2,30932, Note_on_c, 0, 67, 65
2,30998, Note_on_c, 0, 66, 57
2,30998, Note_on_c, 0, 67, 0
2,31028, Note_on_c, 0, 60, 80
2,31034, Note_on_c, 0, 50, 53
2,31039, Note_on_c, 0, 66, 0
2,31063, Note_on_c, 0, 52, 0
2,31123, Note_on_c, 0, 60, 0
2,31138, Note_on_c, 0, 64, 57
2,31181, Note_on_c, 0, 48, 56
2,31189, Note_on_c, 0, 50, 0
2,31197, Note_on_c, 0, 66, 65
2,31232, Note_on_c, 0, 64, 0
2,31265, Note_on_c, 0, 62, 76
2,31271, Note_on_c, 0, 67, 73
2,31274, Note_on_c, 0, 66, 0
2,31282, Note_on_c, 0, 47, 59
2,31292, Note_on_c, 0, 48, 0
2,31307, Note_on_c, 0, 62, 0
2,31387, Note_on_c, 0, 47, 0
2,31398, Note_on_c, 0, 50, 56
2,31488, Note_on_c, 0, 67, 0
2,31493, Note_on_c, 0, 50, 0
2,31504, Note_on_c, 0, 64, 73
2,31506, Note_on_c, 0, 48, 61
2,31582, Note_on_c, 0, 64, 0
2,31617, Note_on_c, 0, 48, 0
2,31629, Note_on_c, 0, 71, 58
2,31634, Note_on_c, 0, 50, 53
2,31742, Note_on_c, 0, 71, 0
2,31743, Note_on_c, 0, 48, 65
2,31749, Note_on_c, 0, 50, 0
2,31752, Note_on_c, 0, 54, 64
2,31757, Note_on_c, 0, 69, 66
2,31870, Note_on_c, 0, 69, 0
2,31877, Note_on_c, 0, 67, 55
2,31883, Note_on_c, 0, 47, 62
2,31973, Note_on_c, 0, 48, 0
2,31995, Note_on_c, 0, 67, 0
2,31999, Note_on_c, 0, 66, 60
2,32004, Note_on_c, 0, 47, 0
2,32017, Note_on_c, 0, 45, 51
2,32071, Note_on_c, 0, 45, 0
2,32087, Note_on_c, 0, 66, 0
2,32112, Note_on_c, 0, 48, 54
2,32117, Note_on_c, 0, 54, 0
2,32117, Note_on_c, 0, 64, 50
2,32217, Note_on_c, 0, 48, 0
2,32236, Note_on_c, 0, 64, 0
2,32238, Note_on_c, 0, 55, 56
2,32239, Note_on_c, 0, 62, 63
2,32249, Note_on_c, 0, 47, 52
2,32276, Note_on_c, 0, 62, 0
2,32300, Note_on_c, 0, 55, 0
2,32302, Note_on_c, 0, 47, 0
2,32350, Note_on_c, 0, 48, 58
2,32471, Note_on_c, 0, 48, 0
2,32481, Note_on_c, 0, 47, 46
2,32504, Note_on_c, 0, 55, 51
2,32606, Note_on_c, 0, 55, 0
2,32614, Note_on_c, 0, 45, 42
2,32618, Note_on_c, 0, 57, 49
2,32626, Note_on_c, 0, 47, 0
2,32716, Note_on_c, 0, 45, 0
2,32752, Note_on_c, 0, 43, 44
2,32762, Note_on_c, 0, 59, 47
2,32831, Note_on_c, 0, 57, 0
2,32867, Note_on_c, 0, 45, 44
2,32885, Note_on_c, 0, 61, 61
2,32914, Note_on_c, 0, 59, 0
2,32939, Note_on_c, 0, 43, 0
2,32983, Note_on_c, 0, 47, 62
2,33006, Note_on_c, 0, 62, 66
2,33027, Note_on_c, 0, 45, 0
2,33035, Note_on_c, 0, 61, 0
2,33079, Note_on_c, 0, 62, 0
2,33111, Note_on_c, 0, 49, 62
2,33124, Note_on_c, 0, 47, 0
2,33211, Note_on_c, 0, 49, 0
2,33227, Note_on_c, 0, 59, 74
2,33228, Note_on_c, 0, 50, 65
2,33333, Note_on_c, 0, 61, 72
2,33342, Note_on_c, 0, 50, 0
2,33342, Note_on_c, 0, 52, 66
2,33370, Note_on_c, 0, 59, 0
2,33423, Note_on_c, 0, 61, 0
2,33449, Note_on_c, 0, 62, 81
2,33453, Note_on_c, 0, 54, 70
2,33484, Note_on_c, 0, 52, 0
2,33578, Note_on_c, 0, 55, 72
2,33582, Note_on_c, 0, 64, 70
2,33587, Note_on_c, 0, 54, 0
2,33596, Note_on_c, 0, 62, 0
2,33704, Note_on_c, 0, 54, 76
2,33716, Note_on_c, 0, 66, 83
2,33717, Note_on_c, 0, 55, 0
2,33721, Note_on_c, 0, 69, 83
2,33756, Note_on_c, 0, 64, 0
2,33778, Note_on_c, 0, 66, 0
2,33779, Note_on_c, 0, 54, 0
2,33800, Note_on_c, 0, 69, 0
2,33960, Note_on_c, 0, 67, 76
2,33962, Note_on_c, 0, 64, 71
2,33975, Note_on_c, 0, 59, 65
2,34019, Note_on_c, 0, 59, 0
2,34027, Note_on_c, 0, 64, 0
2,34067, Note_on_c, 0, 69, 81
2,34099, Note_on_c, 0, 67, 0
2,34118, Note_on_c, 0, 69, 0
2,34192, Note_on_c, 0, 63, 78
2,34196, Note_on_c, 0, 71, 72
2,34207, Note_on_c, 0, 47, 60
2,34247, Note_on_c, 0, 47, 0
2,34293, Note_on_c, 0, 63, 0
2,34310, Note_on_c, 0, 69, 72
2,34350, Note_on_c, 0, 71, 0
2,34450, Note_on_c, 0, 67, 67
2,34461, Note_on_c, 0, 52, 57
2,34467, Note_on_c, 0, 64, 63
2,34470, Note_on_c, 0, 69, 0
2,34500, Note_on_c, 0, 64, 0
2,34507, Note_on_c, 0, 52, 0
2,34556, Note_on_c, 0, 67, 0
2,34691, Note_on_c, 0, 66, 71
2,34700, Note_on_c, 0, 57, 54
2,34700, Note_on_c, 0, 62, 64
2,34733, Note_on_c, 0, 57, 0
2,34788, Note_on_c, 0, 62, 0
2,34797, Note_on_c, 0, 67, 66
2,34832, Note_on_c, 0, 66, 0
2,34921, Note_on_c, 0, 69, 71
2,34923, Note_on_c, 0, 61, 64
2,34926, Note_on_c, 0, 45, 41
2,34931, Note_on_c, 0, 67, 0
2,34958, Note_on_c, 0, 45, 0
2,34994, Note_on_c, 0, 61, 0
2,35039, Note_on_c, 0, 67, 65
2,35060, Note_on_c, 0, 69, 0
2,35181, Note_on_c, 0, 66, 68
2,35195, Note_on_c, 0, 50, 52
2,35198, Note_on_c, 0, 67, 0
2,35199, Note_on_c, 0, 62, 53
2,35234, Note_on_c, 0, 50, 0
2,35249, Note_on_c, 0, 62, 0
2,35268, Note_on_c, 0, 66, 0
2,35438, Note_on_c, 0, 52, 39
2,35440, Note_on_c, 0, 67, 81
2,35443, Note_on_c, 0, 61, 53
2,35495, Note_on_c, 0, 67, 0
2,35537, Note_on_c, 0, 61, 0
2,35541, Note_on_c, 0, 52, 0
2,35557, Note_on_c, 0, 59, 65
2,35665, Note_on_c, 0, 59, 0
2,35675, Note_on_c, 0, 69, 85
2,35679, Note_on_c, 0, 57, 60
2,35681, Note_on_c, 0, 54, 55
2,35728, Note_on_c, 0, 69, 0
2,35802, Note_on_c, 0, 57, 0
2,35809, Note_on_c, 0, 60, 58
2,35813, Note_on_c, 0, 54, 0
2,35918, Note_on_c, 0, 60, 0
2,35922, Note_on_c, 0, 74, 83
2,35934, Note_on_c, 0, 59, 61
2,35973, Note_on_c, 0, 74, 0
2,36019, Note_on_c, 0, 59, 0
2,36055, Note_on_c, 0, 60, 65
2,36163, Note_on_c, 0, 66, 76
2,36168, Note_on_c, 0, 60, 0
2,36180, Note_on_c, 0, 59, 61
2,36198, Note_on_c, 0, 55, 50
2,36231, Note_on_c, 0, 66, 0
2,36234, Note_on_c, 0, 59, 0
2,36240, Note_on_c, 0, 64, 74
2,36245, Note_on_c, 0, 55, 0
2,36290, Note_on_c, 0, 66, 77
2,36294, Note_on_c, 0, 57, 61
2,36296, Note_on_c, 0, 64, 0
2,36355, Note_on_c, 0, 66, 0
2,36360, Note_on_c, 0, 64, 71
2,36374, Note_on_c, 0, 57, 0
2,36397, Note_on_c, 0, 49, 49
2,36399, Note_on_c, 0, 66, 75
2,36406, Note_on_c, 0, 55, 53
2,36408, Note_on_c, 0, 64, 0
2,36455, Note_on_c, 0, 55, 0
2,36459, Note_on_c, 0, 64, 66
2,36466, Note_on_c, 0, 66, 0
2,36469, Note_on_c, 0, 49, 0
2,36506, Note_on_c, 0, 59, 61
2,36520, Note_on_c, 0, 64, 0
2,36522, Note_on_c, 0, 62, 79
2,36586, Note_on_c, 0, 62, 0
2,36586, Note_on_c, 0, 64, 65
2,36638, Note_on_c, 0, 59, 0
2,36647, Note_on_c, 0, 57, 54
2,36647, Note_on_c, 0, 66, 84
2,36656, Note_on_c, 0, 50, 48
2,36659, Note_on_c, 0, 64, 0
2,36694, Note_on_c, 0, 66, 0
2,36738, Note_on_c, 0, 57, 0
2,36768, Note_on_c, 0, 59, 59
2,36770, Note_on_c, 0, 50, 0
2,36871, Note_on_c, 0, 57, 58
2,36887, Note_on_c, 0, 67, 83
2,36893, Note_on_c, 0, 59, 0
2,36940, Note_on_c, 0, 67, 0
2,37006, Note_on_c, 0, 57, 0
2,37011, Note_on_c, 0, 55, 48
2,37118, Note_on_c, 0, 69, 77
2,37120, Note_on_c, 0, 55, 0
2,37124, Note_on_c, 0, 54, 49
2,37172, Note_on_c, 0, 69, 0
2,37201, Note_on_c, 0, 54, 0
2,37228, Note_on_c, 0, 57, 58
2,37347, Note_on_c, 0, 57, 0
2,37357, Note_on_c, 0, 55, 57
2,37378, Note_on_c, 0, 71, 67
2,37432, Note_on_c, 0, 71, 0
2,37447, Note_on_c, 0, 55, 0
2,37469, Note_on_c, 0, 57, 55
2,37580, Note_on_c, 0, 57, 0
2,37586, Note_on_c, 0, 55, 50
2,37601, Note_on_c, 0, 62, 55
2,37651, Note_on_c, 0, 62, 0
2,37659, Note_on_c, 0, 61, 66
2,37682, Note_on_c, 0, 54, 57
2,37687, Note_on_c, 0, 55, 0
2,37695, Note_on_c, 0, 61, 0
2,37716, Note_on_c, 0, 62, 57
2,37769, Note_on_c, 0, 62, 0
2,37783, Note_on_c, 0, 54, 0
2,37784, Note_on_c, 0, 61, 55
2,37794, Note_on_c, 0, 52, 58
2,37808, Note_on_c, 0, 61, 0
2,37808, Note_on_c, 0, 62, 58
2,37869, Note_on_c, 0, 62, 0
2,37875, Note_on_c, 0, 61, 71
2,37879, Note_on_c, 0, 52, 0
2,37899, Note_on_c, 0, 55, 62
2,37920, Note_on_c, 0, 61, 0
2,37944, Note_on_c, 0, 59, 51
2,37975, Note_on_c, 0, 59, 0
2,37997, Note_on_c, 0, 61, 57
2,38023, Note_on_c, 0, 55, 0
2,38024, Note_on_c, 0, 54, 52
2,38053, Note_on_c, 0, 61, 0
2,38084, Note_on_c, 0, 62, 65
2,38116, Note_on_c, 0, 62, 0
2,38137, Note_on_c, 0, 54, 0
2,38164, Note_on_c, 0, 55, 56
2,38303, Note_on_c, 0, 62, 55
2,38309, Note_on_c, 0, 54, 50
2,38312, Note_on_c, 0, 55, 0
2,38417, Note_on_c, 0, 54, 0
2,38429, Note_on_c, 0, 62, 0
2,38432, Note_on_c, 0, 52, 49
2,38436, Note_on_c, 0, 64, 55
2,38542, Note_on_c, 0, 52, 0
2,38556, Note_on_c, 0, 50, 53
2,38556, Note_on_c, 0, 66, 59
2,38601, Note_on_c, 0, 64, 0
2,38665, Note_on_c, 0, 50, 0
2,38668, Note_on_c, 0, 52, 64
2,38689, Note_on_c, 0, 67, 61
2,38699, Note_on_c, 0, 66, 0
2,38781, Note_on_c, 0, 54, 62
2,38802, Note_on_c, 0, 69, 73
2,38818, Note_on_c, 0, 67, 0
2,38820, Note_on_c, 0, 52, 0
2,38868, Note_on_c, 0, 69, 0
2,38909, Note_on_c, 0, 54, 0
2,38917, Note_on_c, 0, 55, 67
2,39032, Note_on_c, 0, 57, 68
2,39038, Note_on_c, 0, 55, 0
2,39044, Note_on_c, 0, 66, 81
2,39164, Note_on_c, 0, 66, 0
2,39164, Note_on_c, 0, 67, 79
2,39169, Note_on_c, 0, 59, 74
2,39198, Note_on_c, 0, 57, 0
2,39255, Note_on_c, 0, 59, 0
2,39268, Note_on_c, 0, 60, 75
2,39286, Note_on_c, 0, 69, 84
2,39314, Note_on_c, 0, 67, 0
2,39379, Note_on_c, 0, 60, 0
2,39385, Note_on_c, 0, 62, 76
2,39403, Note_on_c, 0, 71, 80
2,39423, Note_on_c, 0, 62, 0
2,39431, Note_on_c, 0, 69, 0
2,39524, Note_on_c, 0, 54, 82
2,39529, Note_on_c, 0, 72, 86
2,39536, Note_on_c, 0, 50, 68
2,39562, Note_on_c, 0, 71, 0
2,39566, Note_on_c, 0, 50, 0
2,39573, Note_on_c, 0, 54, 0
2,39800, Note_on_c, 0, 69, 86
2,39819, Note_on_c, 0, 48, 58
2,39851, Note_on_c, 0, 72, 0
2,39934, Note_on_c, 0, 48, 0
2,39937, Note_on_c, 0, 50, 53
2,40030, Note_on_c, 0, 50, 0
2,40045, Note_on_c, 0, 71, 80
2,40051, Note_on_c, 0, 67, 72
2,40060, Note_on_c, 0, 52, 60
2,40066, Note_on_c, 0, 69, 0
2,40150, Note_on_c, 0, 71, 0
2,40163, Note_on_c, 0, 50, 59
2,40179, Note_on_c, 0, 52, 0
2,40288, Note_on_c, 0, 50, 0
2,40289, Note_on_c, 0, 48, 64
2,40296, Note_on_c, 0, 69, 73
2,40318, Note_on_c, 0, 67, 0
2,40340, Note_on_c, 0, 48, 0
2,40547, Note_on_c, 0, 47, 62
2,40558, Note_on_c, 0, 67, 64
2,40605, Note_on_c, 0, 67, 0
2,40632, Note_on_c, 0, 47, 0
2,40643, Note_on_c, 0, 48, 62
2,40772, Note_on_c, 0, 48, 0
2,40789, Note_on_c, 0, 50, 58
2,40792, Note_on_c, 0, 66, 63
2,40830, Note_on_c, 0, 66, 0
2,40899, Note_on_c, 0, 48, 58
2,40914, Note_on_c, 0, 50, 0
2,40989, Note_on_c, 0, 69, 0
2,41016, Note_on_c, 0, 48, 0
2,41031, Note_on_c, 0, 47, 63
2,41049, Note_on_c, 0, 67, 55
2,41069, Note_on_c, 0, 47, 0
2,41184, Note_on_c, 0, 79, 63
2,41206, Note_on_c, 0, 67, 0
2,41283, Note_on_c, 0, 48, 72
2,41304, Note_on_c, 0, 78, 70
2,41323, Note_on_c, 0, 48, 0
2,41351, Note_on_c, 0, 79, 0
2,41429, Note_on_c, 0, 76, 64
2,41435, Note_on_c, 0, 78, 0
2,41525, Note_on_c, 0, 50, 71
2,41538, Note_on_c, 0, 76, 0
2,41550, Note_on_c, 0, 74, 64
2,41558, Note_on_c, 0, 50, 0
2,41650, Note_on_c, 0, 78, 63
2,41657, Note_on_c, 0, 74, 0
2,41768, Note_on_c, 0, 78, 0
2,41769, Note_on_c, 0, 55, 74
2,41790, Note_on_c, 0, 76, 58
2,41799, Note_on_c, 0, 55, 0
2,41887, Note_on_c, 0, 76, 0
2,41898, Note_on_c, 0, 78, 62
2,42036, Note_on_c, 0, 45, 65
2,42038, Note_on_c, 0, 78, 0
2,42047, Note_on_c, 0, 76, 55
2,42150, Note_on_c, 0, 76, 0
2,42163, Note_on_c, 0, 74, 54
2,42260, Note_on_c, 0, 74, 0
2,42280, Note_on_c, 0, 72, 57
2,42414, Note_on_c, 0, 72, 0
2,42424, Note_on_c, 0, 76, 52
2,42484, Note_on_c, 0, 45, 0
2,42515, Note_on_c, 0, 47, 72
2,42527, Note_on_c, 0, 76, 0
2,42530, Note_on_c, 0, 74, 61
2,42572, Note_on_c, 0, 47, 0
2,42625, Note_on_c, 0, 74, 0
2,42645, Note_on_c, 0, 76, 60
2,42761, Note_on_c, 0, 48, 81
2,42768, Note_on_c, 0, 74, 61
2,42774, Note_on_c, 0, 76, 0
2,42801, Note_on_c, 0, 48, 0
2,42869, Note_on_c, 0, 74, 0
2,42879, Note_on_c, 0, 72, 63
2,43006, Note_on_c, 0, 50, 75
2,43010, Note_on_c, 0, 72, 0
2,43016, Note_on_c, 0, 71, 61
2,43051, Note_on_c, 0, 50, 0
2,43126, Note_on_c, 0, 71, 0
2,43130, Note_on_c, 0, 74, 52
2,43247, Note_on_c, 0, 74, 0
2,43254, Note_on_c, 0, 72, 64
2,43266, Note_on_c, 0, 52, 72
2,43300, Note_on_c, 0, 52, 0
2,43340, Note_on_c, 0, 72, 0
2,43369, Note_on_c, 0, 74, 56
2,43518, Note_on_c, 0, 72, 56
2,43522, Note_on_c, 0, 74, 0
2,43529, Note_on_c, 0, 42, 58
2,43624, Note_on_c, 0, 72, 0
2,43644, Note_on_c, 0, 71, 49
2,43744, Note_on_c, 0, 71, 0
2,43774, Note_on_c, 0, 69, 46
2,43873, Note_on_c, 0, 69, 0
2,43906, Note_on_c, 0, 72, 52
2,44026, Note_on_c, 0, 43, 60
2,44027, Note_on_c, 0, 72, 0
2,44040, Note_on_c, 0, 71, 55
2,44073, Note_on_c, 0, 42, 0
2,44139, Note_on_c, 0, 71, 0
2,44150, Note_on_c, 0, 69, 58
2,44156, Note_on_c, 0, 45, 67
2,44189, Note_on_c, 0, 43, 0
2,44272, Note_on_c, 0, 69, 0
2,44291, Note_on_c, 0, 67, 62
2,44293, Note_on_c, 0, 47, 79
2,44385, Note_on_c, 0, 45, 0
2,44387, Note_on_c, 0, 67, 0
2,44413, Note_on_c, 0, 71, 60
2,44529, Note_on_c, 0, 71, 0
2,44532, Note_on_c, 0, 66, 69
2,44555, Note_on_c, 0, 62, 57
2,44636, Note_on_c, 0, 66, 0
2,44655, Note_on_c, 0, 71, 70
2,44663, Note_on_c, 0, 62, 0
2,44774, Note_on_c, 0, 71, 0
2,44783, Note_on_c, 0, 61, 62
2,44783, Note_on_c, 0, 64, 66
2,44841, Note_on_c, 0, 61, 0
2,44887, Note_on_c, 0, 64, 0
2,44908, Note_on_c, 0, 45, 63
2,44908, Note_on_c, 0, 71, 63
2,44911, Note_on_c, 0, 47, 0
2,45014, Note_on_c, 0, 43, 59
2,45018, Note_on_c, 0, 71, 0
2,45023, Note_on_c, 0, 45, 0
2,45027, Note_on_c, 0, 62, 62
2,45110, Note_on_c, 0, 62, 0
2,45138, Note_on_c, 0, 42, 58
2,45157, Note_on_c, 0, 71, 61
2,45185, Note_on_c, 0, 43, 0
2,45251, Note_on_c, 0, 40, 62
2,45260, Note_on_c, 0, 71, 0
2,45264, Note_on_c, 0, 61, 68
2,45289, Note_on_c, 0, 42, 0
2,45350, Note_on_c, 0, 61, 0
2,45375, Note_on_c, 0, 40, 0
2,45376, Note_on_c, 0, 43, 70
2,45381, Note_on_c, 0, 71, 64
2,45412, Note_on_c, 0, 71, 0
2,45490, Note_on_c, 0, 42, 67
2,45506, Note_on_c, 0, 69, 73
2,45510, Note_on_c, 0, 43, 0
2,45617, Note_on_c, 0, 69, 0
2,45623, Note_on_c, 0, 43, 69
2,45632, Note_on_c, 0, 67, 62
2,45633, Note_on_c, 0, 42, 0
2,45764, Note_on_c, 0, 67, 0
2,45765, Note_on_c, 0, 45, 74
2,45769, Note_on_c, 0, 66, 66
2,45823, Note_on_c, 0, 43, 0
2,45872, Note_on_c, 0, 66, 0
2,45889, Note_on_c, 0, 69, 64
2,46008, Note_on_c, 0, 69, 0
2,46014, Note_on_c, 0, 61, 64
2,46026, Note_on_c, 0, 64, 58
2,46083, Note_on_c, 0, 61, 0
2,46119, Note_on_c, 0, 64, 0
2,46142, Note_on_c, 0, 69, 60
2,46261, Note_on_c, 0, 69, 0
2,46273, Note_on_c, 0, 62, 58
2,46282, Note_on_c, 0, 59, 54
2,46346, Note_on_c, 0, 59, 0
2,46356, Note_on_c, 0, 62, 0
2,46384, Note_on_c, 0, 45, 0
2,46396, Note_on_c, 0, 43, 52
2,46396, Note_on_c, 0, 69, 57
2,46498, Note_on_c, 0, 42, 59
2,46502, Note_on_c, 0, 43, 0
2,46524, Note_on_c, 0, 61, 58
2,46527, Note_on_c, 0, 69, 0
2,46604, Note_on_c, 0, 61, 0
2,46615, Note_on_c, 0, 42, 0
2,46621, Note_on_c, 0, 40, 55
2,46655, Note_on_c, 0, 69, 57
2,46722, Note_on_c, 0, 40, 0
2,46738, Note_on_c, 0, 38, 52
2,46767, Note_on_c, 0, 69, 0
2,46773, Note_on_c, 0, 59, 60
2,46818, Note_on_c, 0, 38, 0
2,46855, Note_on_c, 0, 42, 56
2,46893, Note_on_c, 0, 69, 56
2,46970, Note_on_c, 0, 69, 0
2,46975, Note_on_c, 0, 42, 0
2,46988, Note_on_c, 0, 40, 61
2,46998, Note_on_c, 0, 67, 54
2,47005, Note_on_c, 0, 59, 0
2,47101, Note_on_c, 0, 40, 0
2,47111, Note_on_c, 0, 42, 54
2,47123, Note_on_c, 0, 67, 0
2,47128, Note_on_c, 0, 66, 57
2,47238, Note_on_c, 0, 66, 0
2,47254, Note_on_c, 0, 43, 64
2,47254, Note_on_c, 0, 64, 52
2,47270, Note_on_c, 0, 42, 0
2,47361, Note_on_c, 0, 64, 0
2,47385, Note_on_c, 0, 67, 57
2,47493, Note_on_c, 0, 67, 0
2,47514, Note_on_c, 0, 62, 53
2,47523, Note_on_c, 0, 59, 50
2,47592, Note_on_c, 0, 62, 0
2,47618, Note_on_c, 0, 59, 0
2,47629, Note_on_c, 0, 67, 54
2,47751, Note_on_c, 0, 67, 0
2,47761, Note_on_c, 0, 61, 56
2,47853, Note_on_c, 0, 61, 0
2,47878, Note_on_c, 0, 67, 61
2,47888, Note_on_c, 0, 42, 45
2,47959, Note_on_c, 0, 43, 0
2,47966, Note_on_c, 0, 42, 0
2,47973, Note_on_c, 0, 40, 57
2,47988, Note_on_c, 0, 67, 0
2,48001, Note_on_c, 0, 59, 60
2,48082, Note_on_c, 0, 59, 0
2,48094, Note_on_c, 0, 38, 45
2,48095, Note_on_c, 0, 40, 0
2,48119, Note_on_c, 0, 67, 60
2,48192, Note_on_c, 0, 38, 0
2,48202, Note_on_c, 0, 37, 46
2,48214, Note_on_c, 0, 67, 0
2,48229, Note_on_c, 0, 57, 57
2,48293, Note_on_c, 0, 37, 0
2,48320, Note_on_c, 0, 57, 0
2,48338, Note_on_c, 0, 40, 51
2,48345, Note_on_c, 0, 67, 58
2,48444, Note_on_c, 0, 40, 0
2,48458, Note_on_c, 0, 67, 0
2,48459, Note_on_c, 0, 66, 68
2,48462, Note_on_c, 0, 38, 50
2,48490, Note_on_c, 0, 66, 0
2,48562, Note_on_c, 0, 38, 0
2,48581, Note_on_c, 0, 40, 60
2,48596, Note_on_c, 0, 74, 68
2,48669, Note_on_c, 0, 40, 0
2,48691, Note_on_c, 0, 42, 53
2,48715, Note_on_c, 0, 72, 69
2,48720, Note_on_c, 0, 74, 0
2,48797, Note_on_c, 0, 42, 0
2,48817, Note_on_c, 0, 38, 50
2,48834, Note_on_c, 0, 71, 72
2,48840, Note_on_c, 0, 72, 0
2,48920, Note_on_c, 0, 38, 0
2,48948, Note_on_c, 0, 69, 73
2,48951, Note_on_c, 0, 71, 0
2,48957, Note_on_c, 0, 43, 60
2,49060, Note_on_c, 0, 43, 0
2,49060, Note_on_c, 0, 69, 0
2,49065, Note_on_c, 0, 38, 56
2,49073, Note_on_c, 0, 67, 69
2,49168, Note_on_c, 0, 38, 0
2,49195, Note_on_c, 0, 45, 58
2,49199, Note_on_c, 0, 66, 74
2,49225, Note_on_c, 0, 67, 0
2,49267, Note_on_c, 0, 45, 0
2,49301, Note_on_c, 0, 38, 55
2,49324, Note_on_c, 0, 64, 68
2,49338, Note_on_c, 0, 66, 0
2,49385, Note_on_c, 0, 38, 0
2,49413, Note_on_c, 0, 47, 52
2,49436, Note_on_c, 0, 64, 0
2,49440, Note_on_c, 0, 62, 70
2,49492, Note_on_c, 0, 47, 0
2,49531, Note_on_c, 0, 38, 48
2,49544, Note_on_c, 0, 62, 0
2,49562, Note_on_c, 0, 60, 62
2,49638, Note_on_c, 0, 38, 0
2,49654, Note_on_c, 0, 48, 50
2,49688, Note_on_c, 0, 60, 0
2,49691, Note_on_c, 0, 59, 62
2,49720, Note_on_c, 0, 48, 0
2,49780, Note_on_c, 0, 59, 0
2,49786, Note_on_c, 0, 38, 40
2,49807, Note_on_c, 0, 57, 58
2,49846, Note_on_c, 0, 38, 0
2,49923, Note_on_c, 0, 57, 0
2,49936, Note_on_c, 0, 55, 67
2,49965, Note_on_c, 0, 47, 43
2,49978, Note_on_c, 0, 55, 0
2,50006, Note_on_c, 0, 47, 0
2,50045, Note_on_c, 0, 57, 63
2,50067, Note_on_c, 0, 55, 39
2,50136, Note_on_c, 0, 57, 0
2,50146, Note_on_c, 0, 55, 0
2,50168, Note_on_c, 0, 59, 55
2,50178, Note_on_c, 0, 53, 52
2,50248, Note_on_c, 0, 53, 0
2,50250, Note_on_c, 0, 59, 0
2,50277, Note_on_c, 0, 55, 61
2,50285, Note_on_c, 0, 52, 55
2,50342, Note_on_c, 0, 52, 0
2,50407, Note_on_c, 0, 60, 57
2,50412, Note_on_c, 0, 55, 0
2,50420, Note_on_c, 0, 50, 52
2,50504, Note_on_c, 0, 50, 0
2,50509, Note_on_c, 0, 60, 0
2,50519, Note_on_c, 0, 48, 56
2,50529, Note_on_c, 0, 55, 70
2,50633, Note_on_c, 0, 48, 0
2,50635, Note_on_c, 0, 47, 62
2,50637, Note_on_c, 0, 62, 75
2,50651, Note_on_c, 0, 55, 0
2,50726, Note_on_c, 0, 47, 0
2,50746, Note_on_c, 0, 62, 0
2,50757, Note_on_c, 0, 55, 71
2,50762, Note_on_c, 0, 45, 64
2,50859, Note_on_c, 0, 45, 0
2,50868, Note_on_c, 0, 43, 68
2,50872, Note_on_c, 0, 64, 77
2,50888, Note_on_c, 0, 55, 0
2,50985, Note_on_c, 0, 41, 67
2,50989, Note_on_c, 0, 55, 68
2,50991, Note_on_c, 0, 64, 0
2,51003, Note_on_c, 0, 43, 0
2,51080, Note_on_c, 0, 41, 0
2,51108, Note_on_c, 0, 65, 78
2,51109, Note_on_c, 0, 55, 0
2,51119, Note_on_c, 0, 40, 69
2,51233, Note_on_c, 0, 40, 0
2,51236, Note_on_c, 0, 38, 62
2,51240, Note_on_c, 0, 55, 66
2,51295, Note_on_c, 0, 55, 0
2,51345, Note_on_c, 0, 38, 0
2,51348, Note_on_c, 0, 36, 61
2,51349, Note_on_c, 0, 64, 65
2,51358, Note_on_c, 0, 65, 0
2,51378, Note_on_c, 0, 64, 0
2,51462, Note_on_c, 0, 36, 0
2,51472, Note_on_c, 0, 38, 63
2,51480, Note_on_c, 0, 72, 74
2,51546, Note_on_c, 0, 38, 0
2,51592, Note_on_c, 0, 40, 65
2,51594, Note_on_c, 0, 72, 0
2,51599, Note_on_c, 0, 71, 59
2,51698, Note_on_c, 0, 40, 0
2,51709, Note_on_c, 0, 42, 62
2,51725, Note_on_c, 0, 71, 0
2,51727, Note_on_c, 0, 74, 61
2,51823, Note_on_c, 0, 44, 60
2,51826, Note_on_c, 0, 42, 0
2,51828, Note_on_c, 0, 74, 0
2,51831, Note_on_c, 0, 69, 61
2,51914, Note_on_c, 0, 44, 0
2,51942, Note_on_c, 0, 45, 65
2,51950, Note_on_c, 0, 69, 0
2,51958, Note_on_c, 0, 74, 63
2,52063, Note_on_c, 0, 68, 69
2,52066, Note_on_c, 0, 47, 61
2,52076, Note_on_c, 0, 74, 0
2,52089, Note_on_c, 0, 45, 0
2,52170, Note_on_c, 0, 48, 61
2,52176, Note_on_c, 0, 47, 0
2,52179, Note_on_c, 0, 68, 0
2,52191, Note_on_c, 0, 74, 67
2,52280, Note_on_c, 0, 48, 0
2,52288, Note_on_c, 0, 66, 68
2,52290, Note_on_c, 0, 50, 61
2,52304, Note_on_c, 0, 74, 0
2,52363, Note_on_c, 0, 50, 0
2,52398, Note_on_c, 0, 66, 0
2,52422, Note_on_c, 0, 52, 59
2,52429, Note_on_c, 0, 74, 58
2,52513, Note_on_c, 0, 52, 0
2,52531, Note_on_c, 0, 74, 0
2,52535, Note_on_c, 0, 64, 56
2,52541, Note_on_c, 0, 54, 44
2,52659, Note_on_c, 0, 54, 0
2,52661, Note_on_c, 0, 64, 0
2,52669, Note_on_c, 0, 74, 56
2,52685, Note_on_c, 0, 56, 47
2,52763, Note_on_c, 0, 56, 0
2,52785, Note_on_c, 0, 72, 60
2,52791, Note_on_c, 0, 74, 0
2,52804, Note_on_c, 0, 57, 49
2,52870, Note_on_c, 0, 72, 0
2,52887, Note_on_c, 0, 69, 61
2,52906, Note_on_c, 0, 57, 0
2,52926, Note_on_c, 0, 55, 40
2,52979, Note_on_c, 0, 69, 0
2,53008, Note_on_c, 0, 71, 64
2,53012, Note_on_c, 0, 55, 0
2,53028, Note_on_c, 0, 54, 45
2,53103, Note_on_c, 0, 54, 0
2,53119, Note_on_c, 0, 71, 0
2,53130, Note_on_c, 0, 73, 65
2,53133, Note_on_c, 0, 57, 43
2,53233, Note_on_c, 0, 57, 0
2,53239, Note_on_c, 0, 75, 68
2,53244, Note_on_c, 0, 73, 0
2,53252, Note_on_c, 0, 52, 45
2,53309, Note_on_c, 0, 52, 0
2,53316, Note_on_c, 0, 75, 0
2,53344, Note_on_c, 0, 76, 70
2,53363, Note_on_c, 0, 57, 54
2,53450, Note_on_c, 0, 57, 0
2,53453, Note_on_c, 0, 76, 0
2,53466, Note_on_c, 0, 78, 72
2,53472, Note_on_c, 0, 51, 45
2,53536, Note_on_c, 0, 51, 0
2,53560, Note_on_c, 0, 78, 0
2,53577, Note_on_c, 0, 79, 71
2,53583, Note_on_c, 0, 57, 52
2,53645, Note_on_c, 0, 57, 0
2,53682, Note_on_c, 0, 79, 0
2,53687, Note_on_c, 0, 81, 72
2,53690, Note_on_c, 0, 49, 40
2,53747, Note_on_c, 0, 49, 0
2,53784, Note_on_c, 0, 81, 0
2,53792, Note_on_c, 0, 57, 45
2,53793, Note_on_c, 0, 83, 61
2,53889, Note_on_c, 0, 57, 0
2,53893, Note_on_c, 0, 83, 0
2,53910, Note_on_c, 0, 84, 63
2,53915, Note_on_c, 0, 47, 45
2,53984, Note_on_c, 0, 47, 0
2,54029, Note_on_c, 0, 57, 41
2,54045, Note_on_c, 0, 75, 55
2,54051, Note_on_c, 0, 84, 0
2,54112, Note_on_c, 0, 57, 0
2,54157, Note_on_c, 0, 55, 49
2,54158, Note_on_c, 0, 75, 0
2,54176, Note_on_c, 0, 76, 60
2,54216, Note_on_c, 0, 55, 0
2,54232, Note_on_c, 0, 76, 0
2,54423, Note_on_c, 0, 78, 67
2,54445, Note_on_c, 0, 60, 33
2,54474, Note_on_c, 0, 60, 0
2,54522, Note_on_c, 0, 78, 0
2,54542, Note_on_c, 0, 76, 59
2,54634, Note_on_c, 0, 76, 0
2,54651, Note_on_c, 0, 75, 62
2,54677, Note_on_c, 0, 59, 50
2,54708, Note_on_c, 0, 59, 0
2,54753, Note_on_c, 0, 75, 0
2,54760, Note_on_c, 0, 76, 64
2,54891, Note_on_c, 0, 78, 68
2,54898, Note_on_c, 0, 76, 0
2,54915, Note_on_c, 0, 57, 47
2,54960, Note_on_c, 0, 78, 0
2,54966, Note_on_c, 0, 57, 0
2,55145, Note_on_c, 0, 79, 65
2,55155, Note_on_c, 0, 59, 49
2,55186, Note_on_c, 0, 59, 0
2,55255, Note_on_c, 0, 78, 70
2,55255, Note_on_c, 0, 79, 0
2,55367, Note_on_c, 0, 78, 0
2,55374, Note_on_c, 0, 76, 66
2,55381, Note_on_c, 0, 47, 52
2,55408, Note_on_c, 0, 47, 0
2,55491, Note_on_c, 0, 78, 66
2,55492, Note_on_c, 0, 76, 0
2,55625, Note_on_c, 0, 78, 0
2,55626, Note_on_c, 0, 79, 63
2,55628, Note_on_c, 0, 52, 48
2,55674, Note_on_c, 0, 79, 0
2,55707, Note_on_c, 0, 52, 0
2,55734, Note_on_c, 0, 54, 57
2,55820, Note_on_c, 0, 54, 0
2,55866, Note_on_c, 0, 55, 52
2,55866, Note_on_c, 0, 78, 73
2,55915, Note_on_c, 0, 78, 0
2,55952, Note_on_c, 0, 55, 0
2,55971, Note_on_c, 0, 52, 53
2,56076, Note_on_c, 0, 52, 0
2,56090, Note_on_c, 0, 76, 67
2,56096, Note_on_c, 0, 57, 55
2,56120, Note_on_c, 0, 76, 0
2,56182, Note_on_c, 0, 57, 0
2,56212, Note_on_c, 0, 52, 52
2,56308, Note_on_c, 0, 52, 0
2,56318, Note_on_c, 0, 71, 68
2,56331, Note_on_c, 0, 59, 54
2,56349, Note_on_c, 0, 71, 0
2,56384, Note_on_c, 0, 59, 0
2,56445, Note_on_c, 0, 52, 54
2,56538, Note_on_c, 0, 52, 0
2,56553, Note_on_c, 0, 81, 73
2,56571, Note_on_c, 0, 61, 54
2,56639, Note_on_c, 0, 61, 0
2,56679, Note_on_c, 0, 52, 54
2,56755, Note_on_c, 0, 52, 0
2,56794, Note_on_c, 0, 63, 53
2,56847, Note_on_c, 0, 63, 0
2,56895, Note_on_c, 0, 52, 59
2,56946, Note_on_c, 0, 52, 0
2,57034, Note_on_c, 0, 64, 50
2,57044, Note_on_c, 0, 81, 0
2,57046, Note_on_c, 0, 79, 70
2,57087, Note_on_c, 0, 79, 0
2,57120, Note_on_c, 0, 64, 0
2,57145, Note_on_c, 0, 63, 50
2,57225, Note_on_c, 0, 63, 0
2,57267, Note_on_c, 0, 64, 59
2,57276, Note_on_c, 0, 78, 75
2,57330, Note_on_c, 0, 78, 0
2,57360, Note_on_c, 0, 64, 0
2,57360, Note_on_c, 0, 66, 63
2,57480, Note_on_c, 0, 66, 0
2,57495, Note_on_c, 0, 67, 61
2,57499, Note_on_c, 0, 76, 76
2,57535, Note_on_c, 0, 76, 0
2,57581, Note_on_c, 0, 67, 0
2,57598, Note_on_c, 0, 64, 60
2,57719, Note_on_c, 0, 64, 0
2,57726, Note_on_c, 0, 66, 62
2,57740, Note_on_c, 0, 75, 74
2,57774, Note_on_c, 0, 75, 0
2,57833, Note_on_c, 0, 66, 0
2,57851, Note_on_c, 0, 64, 59
2,57960, Note_on_c, 0, 64, 0
2,57962, Note_on_c, 0, 66, 64
2,57989, Note_on_c, 0, 84, 79
2,58096, Note_on_c, 0, 67, 62
2,58098, Note_on_c, 0, 66, 0
2,58182, Note_on_c, 0, 67, 0
2,58215, Note_on_c, 0, 69, 58
2,58330, Note_on_c, 0, 66, 53
2,58330, Note_on_c, 0, 69, 0
2,58449, Note_on_c, 0, 66, 0
2,58453, Note_on_c, 0, 83, 62
2,58468, Note_on_c, 0, 67, 52
2,58468, Note_on_c, 0, 84, 0
2,58515, Note_on_c, 0, 67, 0
2,58528, Note_on_c, 0, 83, 0
2,58700, Note_on_c, 0, 69, 55
2,58704, Note_on_c, 0, 84, 71
2,58813, Note_on_c, 0, 69, 0
2,58816, Note_on_c, 0, 67, 54
2,58821, Note_on_c, 0, 83, 71
2,58863, Note_on_c, 0, 84, 0
2,58935, Note_on_c, 0, 66, 60
2,58938, Note_on_c, 0, 81, 81
2,58948, Note_on_c, 0, 67, 0
2,58976, Note_on_c, 0, 83, 0
2,59040, Note_on_c, 0, 81, 0
2,59049, Note_on_c, 0, 79, 77
2,59064, Note_on_c, 0, 64, 50
2,59068, Note_on_c, 0, 66, 0
2,59164, Note_on_c, 0, 69, 68
2,59167, Note_on_c, 0, 78, 79
2,59177, Note_on_c, 0, 79, 0
2,59220, Note_on_c, 0, 78, 0
2,59225, Note_on_c, 0, 64, 0
2,59423, Note_on_c, 0, 81, 85
2,59544, Note_on_c, 0, 79, 74
2,59599, Note_on_c, 0, 81, 0
2,59667, Note_on_c, 0, 78, 78
2,59690, Note_on_c, 0, 79, 0
2,59777, Note_on_c, 0, 76, 72
2,59778, Note_on_c, 0, 78, 0
2,59890, Note_on_c, 0, 75, 73
2,59890, Note_on_c, 0, 76, 0
2,59946, Note_on_c, 0, 75, 0
2,60010, Note_on_c, 0, 67, 47
2,60024, Note_on_c, 0, 69, 0
2,60112, Note_on_c, 0, 66, 55
2,60112, Note_on_c, 0, 67, 0
2,60128, Note_on_c, 0, 81, 75
2,60196, Note_on_c, 0, 81, 0
2,60217, Note_on_c, 0, 66, 0
2,60236, Note_on_c, 0, 69, 60
2,60368, Note_on_c, 0, 64, 53
2,60369, Note_on_c, 0, 79, 71
2,60370, Note_on_c, 0, 69, 0
2,60423, Note_on_c, 0, 79, 0
2,60439, Note_on_c, 0, 64, 0
2,60486, Note_on_c, 0, 69, 63
2,60570, Note_on_c, 0, 69, 0
2,60591, Note_on_c, 0, 78, 76
2,60593, Note_on_c, 0, 63, 51
2,60652, Note_on_c, 0, 78, 0
2,60667, Note_on_c, 0, 63, 0
2,60703, Note_on_c, 0, 69, 56
2,60790, Note_on_c, 0, 69, 0
2,60807, Note_on_c, 0, 61, 53
2,60813, Note_on_c, 0, 76, 71
2,60859, Note_on_c, 0, 76, 0
2,60883, Note_on_c, 0, 61, 0
2,60919, Note_on_c, 0, 69, 59
2,61005, Note_on_c, 0, 69, 0
2,61045, Note_on_c, 0, 59, 39
2,61045, Note_on_c, 0, 75, 65
2,61095, Note_on_c, 0, 75, 0
2,61133, Note_on_c, 0, 59, 0
2,61139, Note_on_c, 0, 69, 60
2,61256, Note_on_c, 0, 69, 0
2,61282, Note_on_c, 0, 67, 58
2,61291, Note_on_c, 0, 76, 63
2,61330, Note_on_c, 0, 76, 0
2,61334, Note_on_c, 0, 67, 0
2,61536, Note_on_c, 0, 74, 59
2,61545, Note_on_c, 0, 66, 54
2,61571, Note_on_c, 0, 74, 0
2,61617, Note_on_c, 0, 66, 0
2,61640, Note_on_c, 0, 67, 54
2,61728, Note_on_c, 0, 67, 0
2,61758, Note_on_c, 0, 69, 58
2,61765, Note_on_c, 0, 72, 60
2,61796, Note_on_c, 0, 72, 0
2,61873, Note_on_c, 0, 69, 0
2,61877, Note_on_c, 0, 67, 46
2,61975, Note_on_c, 0, 67, 0
2,61996, Note_on_c, 0, 66, 48
2,62009, Note_on_c, 0, 74, 57
2,62046, Note_on_c, 0, 74, 0
2,62075, Note_on_c, 0, 66, 0
2,62238, Note_on_c, 0, 72, 57
2,62255, Note_on_c, 0, 64, 46
2,62277, Note_on_c, 0, 72, 0
2,62324, Note_on_c, 0, 64, 0
2,62351, Note_on_c, 0, 66, 53
2,62411, Note_on_c, 0, 66, 0
2,62469, Note_on_c, 0, 67, 52
2,62474, Note_on_c, 0, 71, 57
2,62498, Note_on_c, 0, 71, 0
2,62582, Note_on_c, 0, 66, 51
2,62618, Note_on_c, 0, 67, 0
2,62708, Note_on_c, 0, 66, 0
2,62716, Note_on_c, 0, 72, 58
2,62720, Note_on_c, 0, 64, 53
2,62760, Note_on_c, 0, 64, 0
2,62776, Note_on_c, 0, 72, 0
2,62830, Note_on_c, 0, 84, 62
2,62934, Note_on_c, 0, 84, 0
2,62945, Note_on_c, 0, 83, 59
2,62955, Note_on_c, 0, 66, 66
2,62996, Note_on_c, 0, 66, 0
2,63054, Note_on_c, 0, 83, 0
2,63055, Note_on_c, 0, 81, 59
2,63149, Note_on_c, 0, 81, 0
2,63163, Note_on_c, 0, 79, 60
2,63173, Note_on_c, 0, 67, 66
2,63203, Note_on_c, 0, 67, 0
2,63251, Note_on_c, 0, 79, 0
2,63277, Note_on_c, 0, 83, 57
2,63391, Note_on_c, 0, 83, 0
2,63402, Note_on_c, 0, 72, 66
2,63419, Note_on_c, 0, 81, 62
2,63435, Note_on_c, 0, 72, 0
2,63486, Note_on_c, 0, 81, 0
2,63520, Note_on_c, 0, 83, 55
2,63643, Note_on_c, 0, 83, 0
2,63645, Note_on_c, 0, 81, 49
2,63647, Note_on_c, 0, 63, 60
2,63752, Note_on_c, 0, 81, 0
2,63781, Note_on_c, 0, 79, 57
2,63892, Note_on_c, 0, 78, 62
2,63893, Note_on_c, 0, 79, 0
2,63978, Note_on_c, 0, 78, 0
2,63998, Note_on_c, 0, 81, 63
2,64109, Note_on_c, 0, 81, 0
2,64115, Note_on_c, 0, 79, 60
2,64131, Note_on_c, 0, 64, 65
2,64156, Note_on_c, 0, 63, 0
2,64180, Note_on_c, 0, 64, 0
2,64213, Note_on_c, 0, 79, 0
2,64234, Note_on_c, 0, 81, 65
2,64347, Note_on_c, 0, 79, 64
2,64350, Note_on_c, 0, 66, 77
2,64357, Note_on_c, 0, 81, 0
2,64403, Note_on_c, 0, 66, 0
2,64461, Note_on_c, 0, 78, 63
2,64464, Note_on_c, 0, 79, 0
2,64552, Note_on_c, 0, 78, 0
2,64579, Note_on_c, 0, 76, 66
2,64580, Note_on_c, 0, 67, 72
2,64616, Note_on_c, 0, 67, 0
2,64688, Note_on_c, 0, 76, 0
2,64690, Note_on_c, 0, 79, 63
2,64800, Note_on_c, 0, 79, 0
2,64812, Note_on_c, 0, 78, 63
2,64827, Note_on_c, 0, 69, 66
2,64854, Note_on_c, 0, 69, 0
2,64897, Note_on_c, 0, 78, 0
2,64923, Note_on_c, 0, 79, 61
2,65051, Note_on_c, 0, 79, 0
2,65054, Note_on_c, 0, 78, 60
2,65069, Note_on_c, 0, 59, 52
2,65157, Note_on_c, 0, 78, 0
2,65188, Note_on_c, 0, 76, 55
2,65275, Note_on_c, 0, 76, 0
2,65297, Note_on_c, 0, 75, 48
2,65403, Note_on_c, 0, 75, 0
2,65414, Note_on_c, 0, 78, 51
2,65512, Note_on_c, 0, 59, 0
2,65536, Note_on_c, 0, 76, 48
2,65542, Note_on_c, 0, 78, 0
2,65553, Note_on_c, 0, 60, 48
2,65577, Note_on_c, 0, 76, 0
2,65668, Note_on_c, 0, 60, 0
2,65680, Note_on_c, 0, 59, 42
2,65766, Note_on_c, 0, 59, 0
2,65781, Note_on_c, 0, 78, 64
2,65803, Note_on_c, 0, 57, 46
2,65902, Note_on_c, 0, 79, 65
2,65905, Note_on_c, 0, 59, 58
2,65908, Note_on_c, 0, 57, 0
2,65910, Note_on_c, 0, 78, 0
2,66006, Note_on_c, 0, 81, 67
2,66012, Note_on_c, 0, 60, 60
2,66024, Note_on_c, 0, 59, 0
2,66029, Note_on_c, 0, 79, 0
2,66113, Note_on_c, 0, 62, 59
2,66114, Note_on_c, 0, 60, 0
2,66213, Note_on_c, 0, 62, 0
2,66233, Note_on_c, 0, 64, 70
2,66341, Note_on_c, 0, 63, 70
2,66345, Note_on_c, 0, 64, 0
2,66457, Note_on_c, 0, 63, 0
2,66463, Note_on_c, 0, 64, 77
2,66483, Note_on_c, 0, 79, 78
2,66500, Note_on_c, 0, 81, 0
2,66571, Note_on_c, 0, 66, 81
2,66587, Note_on_c, 0, 81, 77
2,66588, Note_on_c, 0, 64, 0
2,66625, Note_on_c, 0, 79, 0
2,66693, Note_on_c, 0, 83, 75
2,66696, Note_on_c, 0, 67, 72
2,66696, Note_on_c, 0, 81, 0
2,66731, Note_on_c, 0, 66, 0
2,66769, Note_on_c, 0, 67, 0
2,66794, Note_on_c, 0, 69, 73
2,66818, Note_on_c, 0, 69, 0
2,66939, Note_on_c, 0, 71, 72
2,67027, Note_on_c, 0, 47, 50
2,67032, Note_on_c, 0, 83, 0
2,67099, Note_on_c, 0, 49, 69
2,67100, Note_on_c, 0, 47, 0
2,67167, Note_on_c, 0, 51, 71
2,67167, Note_on_c, 0, 81, 82
2,67169, Note_on_c, 0, 49, 0
2,67227, Note_on_c, 0, 81, 0
2,67298, Note_on_c, 0, 51, 0
2,67303, Note_on_c, 0, 47, 57
2,67390, Note_on_c, 0, 47, 0
2,67405, Note_on_c, 0, 52, 68
2,67408, Note_on_c, 0, 79, 82
2,67463, Note_on_c, 0, 79, 0
2,67480, Note_on_c, 0, 52, 0
2,67509, Note_on_c, 0, 47, 66
2,67623, Note_on_c, 0, 47, 0
2,67626, Note_on_c, 0, 54, 70
2,67634, Note_on_c, 0, 78, 88
2,67706, Note_on_c, 0, 71, 0
2,67729, Note_on_c, 0, 54, 0
2,67733, Note_on_c, 0, 79, 82
2,67737, Note_on_c, 0, 47, 66
2,67759, Note_on_c, 0, 78, 0
2,67849, Note_on_c, 0, 47, 0
2,67851, Note_on_c, 0, 81, 85
2,67857, Note_on_c, 0, 72, 86
2,67858, Note_on_c, 0, 55, 76
2,67875, Note_on_c, 0, 79, 0
2,67893, Note_on_c, 0, 72, 0
2,67900, Note_on_c, 0, 81, 0
2,67941, Note_on_c, 0, 55, 0
2,67962, Note_on_c, 0, 47, 70
2,68084, Note_on_c, 0, 47, 0
2,68086, Note_on_c, 0, 75, 84
2,68087, Note_on_c, 0, 66, 83
2,68089, Note_on_c, 0, 57, 69
2,68114, Note_on_c, 0, 66, 0
2,68146, Note_on_c, 0, 75, 0
2,68154, Note_on_c, 0, 57, 0
2,68195, Note_on_c, 0, 47, 67
2,68316, Note_on_c, 0, 76, 87
2,68324, Note_on_c, 0, 64, 80
2,68336, Note_on_c, 0, 55, 66
2,68380, Note_on_c, 0, 47, 0
2,68413, Note_on_c, 0, 64, 0
2,68430, Note_on_c, 0, 66, 78
2,68455, Note_on_c, 0, 54, 58
2,68475, Note_on_c, 0, 55, 0
2,68546, Note_on_c, 0, 67, 81
2,68553, Note_on_c, 0, 66, 0
2,68567, Note_on_c, 0, 52, 59
2,68570, Note_on_c, 0, 54, 0
2,68652, Note_on_c, 0, 52, 0
2,68687, Note_on_c, 0, 55, 62
2,68753, Note_on_c, 0, 76, 0
2,68790, Note_on_c, 0, 71, 78
2,68810, Note_on_c, 0, 50, 66
2,68817, Note_on_c, 0, 55, 0
2,68838, Note_on_c, 0, 71, 0
2,68888, Note_on_c, 0, 50, 0
2,68922, Note_on_c, 0, 55, 60
2,69030, Note_on_c, 0, 55, 0
2,69031, Note_on_c, 0, 49, 57
2,69044, Note_on_c, 0, 69, 82
2,69096, Note_on_c, 0, 67, 0
2,69139, Note_on_c, 0, 49, 0
2,69156, Note_on_c, 0, 55, 62
2,69162, Note_on_c, 0, 66, 71
2,69254, Note_on_c, 0, 55, 0
2,69261, Note_on_c, 0, 47, 60
2,69268, Note_on_c, 0, 64, 71
2,69292, Note_on_c, 0, 66, 0
2,69343, Note_on_c, 0, 47, 0
2,69373, Note_on_c, 0, 64, 0
2,69375, Note_on_c, 0, 62, 76
2,69379, Note_on_c, 0, 55, 61
2,69470, Note_on_c, 0, 55, 0
2,69484, Note_on_c, 0, 61, 79
2,69492, Note_on_c, 0, 45, 57
2,69511, Note_on_c, 0, 62, 0
2,69568, Note_on_c, 0, 45, 0
2,69600, Note_on_c, 0, 64, 73
2,69606, Note_on_c, 0, 55, 60
2,69633, Note_on_c, 0, 61, 0
2,69716, Note_on_c, 0, 55, 0
2,69716, Note_on_c, 0, 62, 87
2,69719, Note_on_c, 0, 54, 58
2,69723, Note_on_c, 0, 64, 0
2,69829, Note_on_c, 0, 54, 0
2,69831, Note_on_c, 0, 52, 55
2,69842, Note_on_c, 0, 64, 77
2,69845, Note_on_c, 0, 62, 0
2,69952, Note_on_c, 0, 66, 84
2,69955, Note_on_c, 0, 52, 0
2,69955, Note_on_c, 0, 69, 0
2,69964, Note_on_c, 0, 50, 57
2,69990, Note_on_c, 0, 64, 0
2,70046, Note_on_c, 0, 50, 0
2,70085, Note_on_c, 0, 54, 52
2,70179, Note_on_c, 0, 69, 74
2,70185, Note_on_c, 0, 54, 0
2,70187, Note_on_c, 0, 49, 62
2,70224, Note_on_c, 0, 69, 0
2,70292, Note_on_c, 0, 49, 0
2,70306, Note_on_c, 0, 54, 62
2,70421, Note_on_c, 0, 54, 0
2,70437, Note_on_c, 0, 47, 56
2,70447, Note_on_c, 0, 67, 75
2,70456, Note_on_c, 0, 66, 0
2,70551, Note_on_c, 0, 47, 0
2,70565, Note_on_c, 0, 64, 60
2,70566, Note_on_c, 0, 54, 57
2,70649, Note_on_c, 0, 64, 0
2,70667, Note_on_c, 0, 54, 0
2,70667, Note_on_c, 0, 62, 68
2,70690, Note_on_c, 0, 45, 54
2,70753, Note_on_c, 0, 45, 0
2,70766, Note_on_c, 0, 62, 0
2,70774, Note_on_c, 0, 61, 65
2,70797, Note_on_c, 0, 54, 61
2,70849, Note_on_c, 0, 54, 0
2,70892, Note_on_c, 0, 59, 72
2,70892, Note_on_c, 0, 61, 0
2,70902, Note_on_c, 0, 43, 52
2,70964, Note_on_c, 0, 43, 0
2,71003, Note_on_c, 0, 54, 57
2,71007, Note_on_c, 0, 59, 0
2,71008, Note_on_c, 0, 62, 68
2,71053, Note_on_c, 0, 54, 0
2,71114, Note_on_c, 0, 62, 0
2,71116, Note_on_c, 0, 61, 74
2,71141, Note_on_c, 0, 52, 62
2,71223, Note_on_c, 0, 61, 0
2,71234, Note_on_c, 0, 62, 73
2,71236, Note_on_c, 0, 52, 0
2,71261, Note_on_c, 0, 50, 47
2,71328, Note_on_c, 0, 62, 0
2,71355, Note_on_c, 0, 49, 49
2,71355, Note_on_c, 0, 67, 0
2,71356, Note_on_c, 0, 64, 64
2,71385, Note_on_c, 0, 50, 0
2,71455, Note_on_c, 0, 49, 0
2,71481, Note_on_c, 0, 52, 54
2,71584, Note_on_c, 0, 67, 61
2,71585, Note_on_c, 0, 52, 0
2,71596, Note_on_c, 0, 47, 57
2,71625, Note_on_c, 0, 67, 0
2,71660, Note_on_c, 0, 47, 0
2,71717, Note_on_c, 0, 52, 57
2,71775, Note_on_c, 0, 52, 0
2,71780, Note_on_c, 0, 64, 0
2,71815, Note_on_c, 0, 46, 50
2,71822, Note_on_c, 0, 66, 60
2,71893, Note_on_c, 0, 46, 0
2,71933, Note_on_c, 0, 52, 50
2,71945, Note_on_c, 0, 62, 55
2,72036, Note_on_c, 0, 61, 57
2,72036, Note_on_c, 0, 62, 0
2,72038, Note_on_c, 0, 52, 0
2,72046, Note_on_c, 0, 44, 47
2,72114, Note_on_c, 0, 61, 0
2,72125, Note_on_c, 0, 44, 0
2,72135, Note_on_c, 0, 59, 60
2,72163, Note_on_c, 0, 52, 58
2,72225, Note_on_c, 0, 52, 0
2,72254, Note_on_c, 0, 58, 56
2,72257, Note_on_c, 0, 42, 55
2,72269, Note_on_c, 0, 66, 0
2,72307, Note_on_c, 0, 59, 0
2,72329, Note_on_c, 0, 42, 0
2,72365, Note_on_c, 0, 61, 56
2,72366, Note_on_c, 0, 52, 59
2,72389, Note_on_c, 0, 58, 0
2,72443, Note_on_c, 0, 61, 0
2,72465, Note_on_c, 0, 52, 0
2,72493, Note_on_c, 0, 59, 54
2,72495, Note_on_c, 0, 50, 43
2,72572, Note_on_c, 0, 59, 0
2,72580, Note_on_c, 0, 50, 0
2,72603, Note_on_c, 0, 54, 54
2,72628, Note_on_c, 0, 71, 61
2,72686, Note_on_c, 0, 54, 0
2,72723, Note_on_c, 0, 52, 59
2,72738, Note_on_c, 0, 71, 0
2,72743, Note_on_c, 0, 73, 68
2,72819, Note_on_c, 0, 52, 0
2,72841, Note_on_c, 0, 50, 54
2,72850, Note_on_c, 0, 71, 68
2,72852, Note_on_c, 0, 73, 0
2,72951, Note_on_c, 0, 49, 55
2,72952, Note_on_c, 0, 50, 0
2,72960, Note_on_c, 0, 70, 68
2,72980, Note_on_c, 0, 71, 0
2,73060, Note_on_c, 0, 49, 0
2,73068, Note_on_c, 0, 70, 0
2,73073, Note_on_c, 0, 47, 58
2,73073, Note_on_c, 0, 71, 56
2,73182, Note_on_c, 0, 47, 0
2,73183, Note_on_c, 0, 73, 70
2,73189, Note_on_c, 0, 71, 0
2,73197, Note_on_c, 0, 46, 56
2,73240, Note_on_c, 0, 73, 0
2,73290, Note_on_c, 0, 46, 0
2,73307, Note_on_c, 0, 49, 54
2,73391, Note_on_c, 0, 49, 0
2,73426, Note_on_c, 0, 47, 58
2,73432, Note_on_c, 0, 74, 54
2,73532, Note_on_c, 0, 74, 0
2,73533, Note_on_c, 0, 47, 0
2,73533, Note_on_c, 0, 73, 61
2,73554, Note_on_c, 0, 46, 53
2,73613, Note_on_c, 0, 73, 0
2,73634, Note_on_c, 0, 46, 0
2,73644, Note_on_c, 0, 71, 55
2,73650, Note_on_c, 0, 44, 51
2,73728, Note_on_c, 0, 44, 0
2,73760, Note_on_c, 0, 71, 0
2,73763, Note_on_c, 0, 73, 51
2,73770, Note_on_c, 0, 42, 45
2,73896, Note_on_c, 0, 47, 52
2,73914, Note_on_c, 0, 73, 0
2,73917, Note_on_c, 0, 42, 0
2,73917, Note_on_c, 0, 74, 52
2,73983, Note_on_c, 0, 74, 0
2,73985, Note_on_c, 0, 47, 0
2,74160, Note_on_c, 0, 49, 58
2,74163, Note_on_c, 0, 73, 63
2,74204, Note_on_c, 0, 73, 0
2,74256, Note_on_c, 0, 49, 0
2,74260, Note_on_c, 0, 47, 67
2,74372, Note_on_c, 0, 46, 72
2,74379, Note_on_c, 0, 47, 0
2,74390, Note_on_c, 0, 71, 71
2,74434, Note_on_c, 0, 71, 0
2,74491, Note_on_c, 0, 47, 75
2,74515, Note_on_c, 0, 46, 0
2,74615, Note_on_c, 0, 49, 75
2,74626, Note_on_c, 0, 70, 78
2,74645, Note_on_c, 0, 47, 0
2,74663, Note_on_c, 0, 70, 0
2,74694, Note_on_c, 0, 49, 0
2,74861, Note_on_c, 0, 79, 84
2,74871, Note_on_c, 0, 50, 70
2,74987, Note_on_c, 0, 49, 72
2,75003, Note_on_c, 0, 50, 0
2,75098, Note_on_c, 0, 47, 70
2,75108, Note_on_c, 0, 49, 0
2,75216, Note_on_c, 0, 49, 79
2,75249, Note_on_c, 0, 47, 0
2,75338, Note_on_c, 0, 50, 78
2,75354, Note_on_c, 0, 78, 77
2,75366, Note_on_c, 0, 49, 0
2,75384, Note_on_c, 0, 79, 0
2,75389, Note_on_c, 0, 50, 0
2,75394, Note_on_c, 0, 78, 0
2,75578, Note_on_c, 0, 49, 71
2,75585, Note_on_c, 0, 79, 80
2,75626, Note_on_c, 0, 49, 0
2,75700, Note_on_c, 0, 78, 75
2,75804, Note_on_c, 0, 79, 0
2,75808, Note_on_c, 0, 47, 67
2,75816, Note_on_c, 0, 76, 76
2,75851, Note_on_c, 0, 78, 0
2,75855, Note_on_c, 0, 47, 0
2,75915, Note_on_c, 0, 76, 0
2,75923, Note_on_c, 0, 74, 76
2,76035, Note_on_c, 0, 46, 67
2,76050, Note_on_c, 0, 73, 79
2,76067, Note_on_c, 0, 74, 0
2,76078, Note_on_c, 0, 46, 0
2,76091, Note_on_c, 0, 73, 0
2,76290, Note_on_c, 0, 55, 62
2,76295, Note_on_c, 0, 76, 68
2,76409, Note_on_c, 0, 74, 65
2,76446, Note_on_c, 0, 76, 0
2,76520, Note_on_c, 0, 74, 0
2,76531, Note_on_c, 0, 73, 65
2,76634, Note_on_c, 0, 73, 0
2,76656, Note_on_c, 0, 71, 58
2,76760, Note_on_c, 0, 71, 0
2,76773, Note_on_c, 0, 70, 58
2,76788, Note_on_c, 0, 54, 42
2,76818, Note_on_c, 0, 55, 0
2,76867, Note_on_c, 0, 70, 0
2,76887, Note_on_c, 0, 71, 59
2,76903, Note_on_c, 0, 54, 0
2,76907, Note_on_c, 0, 56, 52
2,76993, Note_on_c, 0, 71, 0
2,77003, Note_on_c, 0, 73, 62
2,77017, Note_on_c, 0, 58, 59
2,77026, Note_on_c, 0, 56, 0
2,77099, Note_on_c, 0, 73, 0
2,77105, Note_on_c, 0, 58, 0
2,77117, Note_on_c, 0, 54, 58
2,77118, Note_on_c, 0, 70, 70
2,77217, Note_on_c, 0, 54, 0
2,77247, Note_on_c, 0, 70, 0
2,77250, Note_on_c, 0, 74, 69
2,77256, Note_on_c, 0, 59, 61
2,77346, Note_on_c, 0, 59, 0
2,77347, Note_on_c, 0, 54, 61
2,77352, Note_on_c, 0, 74, 0
2,77353, Note_on_c, 0, 70, 75
2,77469, Note_on_c, 0, 54, 0
2,77469, Note_on_c, 0, 61, 67
2,77472, Note_on_c, 0, 76, 85
2,77486, Note_on_c, 0, 70, 0
2,77567, Note_on_c, 0, 61, 0
2,77584, Note_on_c, 0, 54, 60
2,77586, Note_on_c, 0, 76, 0
2,77593, Note_on_c, 0, 70, 74
2,77681, Note_on_c, 0, 54, 0
2,77697, Note_on_c, 0, 62, 67
2,77703, Note_on_c, 0, 78, 86
2,77711, Note_on_c, 0, 70, 0
2,77779, Note_on_c, 0, 62, 0
2,77803, Note_on_c, 0, 54, 63
2,77821, Note_on_c, 0, 70, 76
2,77831, Note_on_c, 0, 78, 0
2,77894, Note_on_c, 0, 54, 0
2,77913, Note_on_c, 0, 70, 0
2,77919, Note_on_c, 0, 64, 58
2,77929, Note_on_c, 0, 79, 76
2,78007, Note_on_c, 0, 64, 0
2,78037, Note_on_c, 0, 54, 56
2,78037, Note_on_c, 0, 79, 0
2,78041, Note_on_c, 0, 70, 66
2,78134, Note_on_c, 0, 54, 0
2,78179, Note_on_c, 0, 62, 61
2,78181, Note_on_c, 0, 78, 82
2,78206, Note_on_c, 0, 70, 0
2,78283, Note_on_c, 0, 54, 57
2,78295, Note_on_c, 0, 70, 69
2,78302, Note_on_c, 0, 62, 0
2,78327, Note_on_c, 0, 78, 0
2,78413, Note_on_c, 0, 71, 72
2,78419, Note_on_c, 0, 54, 0
2,78419, Note_on_c, 0, 55, 59
2,78427, Note_on_c, 0, 70, 0
2,78506, Note_on_c, 0, 71, 0
2,78527, Note_on_c, 0, 55, 0
2,78531, Note_on_c, 0, 78, 74
2,78534, Note_on_c, 0, 62, 47
2,78560, Note_on_c, 0, 62, 0
2,78590, Note_on_c, 0, 78, 0
2,78647, Note_on_c, 0, 61, 77
2,78647, Note_on_c, 0, 76, 79
2,78708, Note_on_c, 0, 61, 0
2,78713, Note_on_c, 0, 74, 71
2,78725, Note_on_c, 0, 76, 0
2,78726, Note_on_c, 0, 59, 56
2,78760, Note_on_c, 0, 74, 0
2,78775, Note_on_c, 0, 58, 62
2,78775, Note_on_c, 0, 73, 75
2,78788, Note_on_c, 0, 59, 0
2,78836, Note_on_c, 0, 74, 63
2,78846, Note_on_c, 0, 59, 62
2,78861, Note_on_c, 0, 58, 0
2,78870, Note_on_c, 0, 73, 0
2,78888, Note_on_c, 0, 76, 83
2,78905, Note_on_c, 0, 74, 0
2,78912, Note_on_c, 0, 59, 0
2,78912, Note_on_c, 0, 61, 69
2,79008, Note_on_c, 0, 61, 0
2,79009, Note_on_c, 0, 68, 84
2,79020, Note_on_c, 0, 52, 69
2,79056, Note_on_c, 0, 76, 0
2,79124, Note_on_c, 0, 70, 77
2,79127, Note_on_c, 0, 52, 0
2,79129, Note_on_c, 0, 54, 70
2,79165, Note_on_c, 0, 68, 0
2,79239, Note_on_c, 0, 61, 75
2,79239, Note_on_c, 0, 70, 0
2,79239, Note_on_c, 0, 76, 80
2,79257, Note_on_c, 0, 54, 0
2,79275, Note_on_c, 0, 61, 0
2,79323, Note_on_c, 0, 76, 0
2,79343, Note_on_c, 0, 74, 75
2,79350, Note_on_c, 0, 59, 75
2,79401, Note_on_c, 0, 73, 77
2,79410, Note_on_c, 0, 59, 0
2,79416, Note_on_c, 0, 74, 0
2,79420, Note_on_c, 0, 58, 66
2,79460, Note_on_c, 0, 73, 0
2,79468, Note_on_c, 0, 71, 72
2,79478, Note_on_c, 0, 58, 0
2,79481, Note_on_c, 0, 56, 70
2,79517, Note_on_c, 0, 73, 64
2,79528, Note_on_c, 0, 71, 0
2,79567, Note_on_c, 0, 58, 59
2,79569, Note_on_c, 0, 56, 0
2,79594, Note_on_c, 0, 73, 0
2,79600, Note_on_c, 0, 74, 68
2,79609, Note_on_c, 0, 58, 0
2,79636, Note_on_c, 0, 59, 66
2,79750, Note_on_c, 0, 59, 0
2,79752, Note_on_c, 0, 61, 66
2,79860, Note_on_c, 0, 62, 74
2,79869, Note_on_c, 0, 61, 0
2,79972, Note_on_c, 0, 59, 62
2,79978, Note_on_c, 0, 62, 0
2,80071, Note_on_c, 0, 59, 0
2,80084, Note_on_c, 0, 64, 71
2,80193, Note_on_c, 0, 59, 66
2,80206, Note_on_c, 0, 64, 0
2,80315, Note_on_c, 0, 66, 71
2,80343, Note_on_c, 0, 59, 0
2,80445, Note_on_c, 0, 59, 61
2,80457, Note_on_c, 0, 66, 0
2,80496, Note_on_c, 0, 59, 0
2,80545, Note_on_c, 0, 68, 73
2,80604, Note_on_c, 0, 68, 0
2,80683, Note_on_c, 0, 59, 58
2,80738, Note_on_c, 0, 59, 0
2,80769, Note_on_c, 0, 69, 68
2,80783, Note_on_c, 0, 47, 58
2,80816, Note_on_c, 0, 69, 0
2,80860, Note_on_c, 0, 47, 0
2,80886, Note_on_c, 0, 59, 58
2,80986, Note_on_c, 0, 59, 0
2,81007, Note_on_c, 0, 52, 54
2,81019, Note_on_c, 0, 68, 68
2,81059, Note_on_c, 0, 68, 0
2,81128, Note_on_c, 0, 52, 0
2,81139, Note_on_c, 0, 54, 54
2,81260, Note_on_c, 0, 56, 59
2,81260, Note_on_c, 0, 64, 64
2,81263, Note_on_c, 0, 54, 0
2,81301, Note_on_c, 0, 64, 0
2,81352, Note_on_c, 0, 56, 0
2,81370, Note_on_c, 0, 52, 52
2,81463, Note_on_c, 0, 52, 0
2,81476, Note_on_c, 0, 57, 65
2,81480, Note_on_c, 0, 66, 68
2,81518, Note_on_c, 0, 66, 0
2,81558, Note_on_c, 0, 57, 0
2,81591, Note_on_c, 0, 52, 61
2,81692, Note_on_c, 0, 52, 0
2,81721, Note_on_c, 0, 59, 50
2,81727, Note_on_c, 0, 68, 66
2,81761, Note_on_c, 0, 68, 0
2,81795, Note_on_c, 0, 59, 0
2,81824, Note_on_c, 0, 52, 56
2,81936, Note_on_c, 0, 52, 0
2,81958, Note_on_c, 0, 61, 59
2,81965, Note_on_c, 0, 69, 66
2,82010, Note_on_c, 0, 69, 0
2,82022, Note_on_c, 0, 61, 0
2,82071, Note_on_c, 0, 52, 57
2,82156, Note_on_c, 0, 52, 0
2,82185, Note_on_c, 0, 62, 55
2,82197, Note_on_c, 0, 71, 61
2,82206, Note_on_c, 0, 74, 0
2,82235, Note_on_c, 0, 71, 0
2,82238, Note_on_c, 0, 62, 0
2,82294, Note_on_c, 0, 52, 56
2,82351, Note_on_c, 0, 52, 0
2,82444, Note_on_c, 0, 61, 53
2,82452, Note_on_c, 0, 64, 51
2,82564, Note_on_c, 0, 66, 58
2,82619, Note_on_c, 0, 64, 0
2,82621, Note_on_c, 0, 68, 53
2,82639, Note_on_c, 0, 66, 0
2,82661, Note_on_c, 0, 68, 0
2,82676, Note_on_c, 0, 69, 74
2,82792, Note_on_c, 0, 69, 0
2,82795, Note_on_c, 0, 61, 0
2,82823, Note_on_c, 0, 64, 57
2,82824, Note_on_c, 0, 62, 62
2,82930, Note_on_c, 0, 61, 54
2,82940, Note_on_c, 0, 62, 0
2,82940, Note_on_c, 0, 71, 63
2,82947, Note_on_c, 0, 64, 0
2,83019, Note_on_c, 0, 71, 0
2,83034, Note_on_c, 0, 61, 0
2,83049, Note_on_c, 0, 59, 57
2,83060, Note_on_c, 0, 64, 58
2,83165, Note_on_c, 0, 73, 71
2,83171, Note_on_c, 0, 64, 0
2,83174, Note_on_c, 0, 57, 60
2,83181, Note_on_c, 0, 59, 0
2,83257, Note_on_c, 0, 57, 0
2,83281, Note_on_c, 0, 73, 0
2,83290, Note_on_c, 0, 64, 65
2,83294, Note_on_c, 0, 59, 69
2,83387, Note_on_c, 0, 59, 0
2,83404, Note_on_c, 0, 57, 66
2,83404, Note_on_c, 0, 74, 78
2,83477, Note_on_c, 0, 57, 0
2,83521, Note_on_c, 0, 55, 67
2,83527, Note_on_c, 0, 66, 74
2,83542, Note_on_c, 0, 74, 0
2,83545, Note_on_c, 0, 64, 0
2,83601, Note_on_c, 0, 55, 0
2,83621, Note_on_c, 0, 54, 63
2,83628, Note_on_c, 0, 66, 0
2,83646, Note_on_c, 0, 76, 81
2,83661, Note_on_c, 0, 49, 50
2,83725, Note_on_c, 0, 49, 0
2,83728, Note_on_c, 0, 54, 0
2,83753, Note_on_c, 0, 52, 70
2,83755, Note_on_c, 0, 76, 0
2,83764, Note_on_c, 0, 67, 71
2,83870, Note_on_c, 0, 52, 0
2,83871, Note_on_c, 0, 50, 74
2,83874, Note_on_c, 0, 67, 0
2,83876, Note_on_c, 0, 66, 76
2,83963, Note_on_c, 0, 66, 0
2,83991, Note_on_c, 0, 67, 60
2,84052, Note_on_c, 0, 69, 75
2,84054, Note_on_c, 0, 67, 0
2,84114, Note_on_c, 0, 71, 71
2,84128, Note_on_c, 0, 69, 0
2,84212, Note_on_c, 0, 71, 0
2,84226, Note_on_c, 0, 52, 66
2,84235, Note_on_c, 0, 50, 0
2,84235, Note_on_c, 0, 66, 82
2,84342, Note_on_c, 0, 50, 76
2,84342, Note_on_c, 0, 52, 0
2,84346, Note_on_c, 0, 73, 81
2,84358, Note_on_c, 0, 66, 0
2,84447, Note_on_c, 0, 49, 73
2,84448, Note_on_c, 0, 73, 0
2,84450, Note_on_c, 0, 50, 0
2,84461, Note_on_c, 0, 66, 86
2,84539, Note_on_c, 0, 66, 0
2,84572, Note_on_c, 0, 47, 85
2,84572, Note_on_c, 0, 49, 0
2,84573, Note_on_c, 0, 74, 82
2,84679, Note_on_c, 0, 47, 0
2,84679, Note_on_c, 0, 49, 76
2,84681, Note_on_c, 0, 74, 0
2,84691, Note_on_c, 0, 66, 78
2,84773, Note_on_c, 0, 66, 0
2,84776, Note_on_c, 0, 49, 0
2,84783, Note_on_c, 0, 47, 83
2,84798, Note_on_c, 0, 76, 82
2,84881, Note_on_c, 0, 47, 0
2,84884, Note_on_c, 0, 45, 76
2,84898, Note_on_c, 0, 76, 0
2,84914, Note_on_c, 0, 67, 70
2,84993, Note_on_c, 0, 67, 0
2,84997, Note_on_c, 0, 43, 75
2,85024, Note_on_c, 0, 78, 84
2,85026, Note_on_c, 0, 45, 0
2,85117, Note_on_c, 0, 42, 66
2,85119, Note_on_c, 0, 78, 0
2,85144, Note_on_c, 0, 69, 75
2,85169, Note_on_c, 0, 43, 0
2,85217, Note_on_c, 0, 69, 0
2,85257, Note_on_c, 0, 40, 82
2,85260, Note_on_c, 0, 67, 84
2,85287, Note_on_c, 0, 42, 0
2,85305, Note_on_c, 0, 40, 0
2,85389, Note_on_c, 0, 66, 70
2,85410, Note_on_c, 0, 67, 0
2,85483, Note_on_c, 0, 66, 0
2,85500, Note_on_c, 0, 50, 84
2,85504, Note_on_c, 0, 67, 82
2,85531, Note_on_c, 0, 50, 0
2,85616, Note_on_c, 0, 71, 66
2,85640, Note_on_c, 0, 67, 0
2,85731, Note_on_c, 0, 49, 83
2,85740, Note_on_c, 0, 76, 80
2,85755, Note_on_c, 0, 71, 0
2,85782, Note_on_c, 0, 49, 0
2,85862, Note_on_c, 0, 67, 63
2,85924, Note_on_c, 0, 76, 0
2,85975, Note_on_c, 0, 50, 87
2,85987, Note_on_c, 0, 66, 75
2,86000, Note_on_c, 0, 67, 0
2,86012, Note_on_c, 0, 50, 0
2,86101, Note_on_c, 0, 71, 63
2,86102, Note_on_c, 0, 66, 0
2,86198, Note_on_c, 0, 71, 0
2,86214, Note_on_c, 0, 52, 87
2,86221, Note_on_c, 0, 69, 72
2,86340, Note_on_c, 0, 73, 69
2,86347, Note_on_c, 0, 50, 66
2,86374, Note_on_c, 0, 52, 0
2,86376, Note_on_c, 0, 69, 0
2,86459, Note_on_c, 0, 74, 79
2,86474, Note_on_c, 0, 49, 78
2,86476, Note_on_c, 0, 73, 0
2,86493, Note_on_c, 0, 50, 0
2,86578, Note_on_c, 0, 50, 73
2,86604, Note_on_c, 0, 49, 0
2,86712, Note_on_c, 0, 52, 85
2,86715, Note_on_c, 0, 43, 70
2,86734, Note_on_c, 0, 50, 0
2,86758, Note_on_c, 0, 43, 0
2,86767, Note_on_c, 0, 52, 0
2,86948, Note_on_c, 0, 54, 75
2,86965, Note_on_c, 0, 73, 81
2,86968, Note_on_c, 0, 45, 67
2,87027, Note_on_c, 0, 74, 0
2,87043, Note_on_c, 0, 54, 0
2,87084, Note_on_c, 0, 52, 78
2,87156, Note_on_c, 0, 52, 0
2,87181, Note_on_c, 0, 50, 67
2,87289, Note_on_c, 0, 50, 0
2,87292, Note_on_c, 0, 52, 76
2,87417, Note_on_c, 0, 50, 64
2,87419, Note_on_c, 0, 54, 69
2,87428, Note_on_c, 0, 52, 0
2,87436, Note_on_c, 0, 74, 70
2,87459, Note_on_c, 0, 73, 0
2,87462, Note_on_c, 0, 54, 0
2,87468, Note_on_c, 0, 50, 0
2,87480, Note_on_c, 0, 45, 0
2,87480, Note_on_c, 0, 74, 0
2,87670, Note_on_c, 0, 52, 69
2,87679, Note_on_c, 0, 76, 77
2,87685, Note_on_c, 0, 49, 54
2,87702, Note_on_c, 0, 52, 0
2,87717, Note_on_c, 0, 49, 0
2,87777, Note_on_c, 0, 74, 73
2,87798, Note_on_c, 0, 76, 0
2,87894, Note_on_c, 0, 73, 81
2,87897, Note_on_c, 0, 50, 65
2,87901, Note_on_c, 0, 47, 61
2,87910, Note_on_c, 0, 74, 0
2,87935, Note_on_c, 0, 50, 0
2,87951, Note_on_c, 0, 47, 0
2,88020, Note_on_c, 0, 73, 0
2,88020, Note_on_c, 0, 74, 75
2,88136, Note_on_c, 0, 45, 59
2,88143, Note_on_c, 0, 76, 82
2,88144, Note_on_c, 0, 49, 72
2,88150, Note_on_c, 0, 74, 0
2,88191, Note_on_c, 0, 76, 0
2,88206, Note_on_c, 0, 49, 0
2,88411, Note_on_c, 0, 59, 78
2,88421, Note_on_c, 0, 78, 80
2,88532, Note_on_c, 0, 76, 77
2,88564, Note_on_c, 0, 78, 0
2,88642, Note_on_c, 0, 74, 81
2,88645, Note_on_c, 0, 76, 0
2,88756, Note_on_c, 0, 76, 82
2,88797, Note_on_c, 0, 74, 0
2,88841, Note_on_c, 0, 59, 0
2,88887, Note_on_c, 0, 78, 88
2,88891, Note_on_c, 0, 57, 67
2,88919, Note_on_c, 0, 76, 0
2,88961, Note_on_c, 0, 57, 0
2,88982, Note_on_c, 0, 78, 0
2,89132, Note_on_c, 0, 79, 78
2,89138, Note_on_c, 0, 59, 65
2,89203, Note_on_c, 0, 59, 0
2,89247, Note_on_c, 0, 78, 88
2,89251, Note_on_c, 0, 57, 71
2,89281, Note_on_c, 0, 79, 0
2,89323, Note_on_c, 0, 57, 0
2,89348, Note_on_c, 0, 76, 84
2,89361, Note_on_c, 0, 55, 64
2,89370, Note_on_c, 0, 78, 0
2,89446, Note_on_c, 0, 74, 81
2,89446, Note_on_c, 0, 76, 0
2,89492, Note_on_c, 0, 54, 67
2,89530, Note_on_c, 0, 55, 0
2,89546, Note_on_c, 0, 74, 0
2,89575, Note_on_c, 0, 73, 83
2,89601, Note_on_c, 0, 52, 66
2,89626, Note_on_c, 0, 73, 0
2,89632, Note_on_c, 0, 54, 0
2,89833, Note_on_c, 0, 83, 86
2,89835, Note_on_c, 0, 55, 65
2,89894, Note_on_c, 0, 52, 0
2,89943, Note_on_c, 0, 54, 64
2,89947, Note_on_c, 0, 55, 0
2,90028, Note_on_c, 0, 54, 0
2,90059, Note_on_c, 0, 52, 69
2,90161, Note_on_c, 0, 50, 74
2,90167, Note_on_c, 0, 52, 0
2,90273, Note_on_c, 0, 49, 70
2,90297, Note_on_c, 0, 50, 0
2,90413, Note_on_c, 0, 81, 78
2,90421, Note_on_c, 0, 83, 0
2,90528, Note_on_c, 0, 83, 77
2,90534, Note_on_c, 0, 81, 0
2,90639, Note_on_c, 0, 81, 78
2,90662, Note_on_c, 0, 83, 0
2,90760, Note_on_c, 0, 79, 69
2,90766, Note_on_c, 0, 50, 60
2,90777, Note_on_c, 0, 81, 0
2,90847, Note_on_c, 0, 49, 0
2,90869, Note_on_c, 0, 78, 75
2,90870, Note_on_c, 0, 79, 0
2,90896, Note_on_c, 0, 78, 0
2,90951, Note_on_c, 0, 50, 0
2,90999, Note_on_c, 0, 78, 71
2,91042, Note_on_c, 0, 78, 0
2,91097, Note_on_c, 0, 76, 61
2,91121, Note_on_c, 0, 76, 0
2,91146, Note_on_c, 0, 55, 62
2,91158, Note_on_c, 0, 78, 57
2,91183, Note_on_c, 0, 78, 0
2,91192, Note_on_c, 0, 55, 0
2,91215, Note_on_c, 0, 54, 57
2,91217, Note_on_c, 0, 76, 55
2,91244, Note_on_c, 0, 76, 0
2,91257, Note_on_c, 0, 78, 71
2,91272, Note_on_c, 0, 54, 0
2,91280, Note_on_c, 0, 52, 60
2,91296, Note_on_c, 0, 78, 0
2,91324, Note_on_c, 0, 76, 72
2,91354, Note_on_c, 0, 52, 0
2,91359, Note_on_c, 0, 76, 0
2,91376, Note_on_c, 0, 55, 56
2,91377, Note_on_c, 0, 78, 62
2,91416, Note_on_c, 0, 78, 0
2,91437, Note_on_c, 0, 76, 63
2,91461, Note_on_c, 0, 76, 0
2,91466, Note_on_c, 0, 55, 0
2,91471, Note_on_c, 0, 50, 59
2,91478, Note_on_c, 0, 78, 59
2,91511, Note_on_c, 0, 78, 0
2,91531, Note_on_c, 0, 76, 76
2,91558, Note_on_c, 0, 50, 0
2,91574, Note_on_c, 0, 76, 0
2,91574, Note_on_c, 0, 78, 74
2,91589, Note_on_c, 0, 55, 72
2,91623, Note_on_c, 0, 78, 0
2,91632, Note_on_c, 0, 76, 68
2,91670, Note_on_c, 0, 76, 0
2,91675, Note_on_c, 0, 78, 66
2,91688, Note_on_c, 0, 49, 65
2,91719, Note_on_c, 0, 55, 0
2,91733, Note_on_c, 0, 78, 0
2,91737, Note_on_c, 0, 76, 73
2,91779, Note_on_c, 0, 76, 0
2,91779, Note_on_c, 0, 78, 67
2,91790, Note_on_c, 0, 49, 0
2,91803, Note_on_c, 0, 55, 66
2,91838, Note_on_c, 0, 78, 0
2,91842, Note_on_c, 0, 76, 72
2,91885, Note_on_c, 0, 78, 71
2,91893, Note_on_c, 0, 76, 0
2,91922, Note_on_c, 0, 47, 62
2,91935, Note_on_c, 0, 76, 59
2,91938, Note_on_c, 0, 78, 0
2,91941, Note_on_c, 0, 55, 0
2,91951, Note_on_c, 0, 45, 0
2,91981, Note_on_c, 0, 78, 67
2,91990, Note_on_c, 0, 76, 0
2,92026, Note_on_c, 0, 76, 64
2,92041, Note_on_c, 0, 47, 0
2,92042, Note_on_c, 0, 78, 0
2,92066, Note_on_c, 0, 55, 58
2,92176, Note_on_c, 0, 55, 0
2,92188, Note_on_c, 0, 45, 55
2,92297, Note_on_c, 0, 45, 0
2,92314, Note_on_c, 0, 55, 54
2,92452, Note_on_c, 0, 54, 60
2,92454, Note_on_c, 0, 55, 0
2,92593, Note_on_c, 0, 55, 47
2,92622, Note_on_c, 0, 81, 61
2,92623, Note_on_c, 0, 54, 0
2,92665, Note_on_c, 0, 76, 0
2,92673, Note_on_c, 0, 79, 65
2,92687, Note_on_c, 0, 55, 0
2,92695, Note_on_c, 0, 81, 0
2,92722, Note_on_c, 0, 57, 54
2,92732, Note_on_c, 0, 78, 68
2,92751, Note_on_c, 0, 79, 0
2,92861, Note_on_c, 0, 52, 52
2,92868, Note_on_c, 0, 81, 65
2,92869, Note_on_c, 0, 78, 0
2,92880, Note_on_c, 0, 57, 0
2,92971, Note_on_c, 0, 76, 69
2,92974, Note_on_c, 0, 50, 60
2,92981, Note_on_c, 0, 81, 0
2,92995, Note_on_c, 0, 52, 0
2,93093, Note_on_c, 0, 81, 76
2,93097, Note_on_c, 0, 49, 58
2,93106, Note_on_c, 0, 76, 0
2,93148, Note_on_c, 0, 50, 0
2,93212, Note_on_c, 0, 74, 70
2,93223, Note_on_c, 0, 81, 0
2,93228, Note_on_c, 0, 47, 62
2,93278, Note_on_c, 0, 49, 0
2,93331, Note_on_c, 0, 55, 73
2,93339, Note_on_c, 0, 81, 77
2,93356, Note_on_c, 0, 74, 0
2,93463, Note_on_c, 0, 73, 74
2,93474, Note_on_c, 0, 54, 72
2,93494, Note_on_c, 0, 81, 0
2,93507, Note_on_c, 0, 55, 0
2,93592, Note_on_c, 0, 81, 73
2,93604, Note_on_c, 0, 52, 66
2,93610, Note_on_c, 0, 73, 0
2,93622, Note_on_c, 0, 54, 0
2,93705, Note_on_c, 0, 50, 58
2,93708, Note_on_c, 0, 71, 72
2,93717, Note_on_c, 0, 52, 0
2,93717, Note_on_c, 0, 81, 0
2,93811, Note_on_c, 0, 54, 74
2,93821, Note_on_c, 0, 50, 0
2,93835, Note_on_c, 0, 81, 74
2,93841, Note_on_c, 0, 47, 0
2,93942, Note_on_c, 0, 52, 71
2,93951, Note_on_c, 0, 79, 76
2,93958, Note_on_c, 0, 81, 0
2,93967, Note_on_c, 0, 54, 0
2,94078, Note_on_c, 0, 78, 80
2,94081, Note_on_c, 0, 54, 74
2,94110, Note_on_c, 0, 52, 0
2,94118, Note_on_c, 0, 79, 0
2,94194, Note_on_c, 0, 54, 0
2,94200, Note_on_c, 0, 76, 77
2,94207, Note_on_c, 0, 55, 70
2,94220, Note_on_c, 0, 78, 0
2,94313, Note_on_c, 0, 76, 0
2,94317, Note_on_c, 0, 50, 70
2,94320, Note_on_c, 0, 55, 0
2,94320, Note_on_c, 0, 79, 78
2,94381, Note_on_c, 0, 71, 0
2,94423, Note_on_c, 0, 49, 72
2,94440, Note_on_c, 0, 74, 72
2,94447, Note_on_c, 0, 79, 0
2,94458, Note_on_c, 0, 50, 0
2,94542, Note_on_c, 0, 47, 70
2,94543, Note_on_c, 0, 49, 0
2,94546, Note_on_c, 0, 74, 0
2,94562, Note_on_c, 0, 79, 74
2,94660, Note_on_c, 0, 47, 0
2,94665, Note_on_c, 0, 45, 65
2,94670, Note_on_c, 0, 73, 73
2,94677, Note_on_c, 0, 79, 0
2,94772, Note_on_c, 0, 73, 0
2,94787, Note_on_c, 0, 54, 68
2,94788, Note_on_c, 0, 79, 72
2,94900, Note_on_c, 0, 52, 65
2,94903, Note_on_c, 0, 54, 0
2,94921, Note_on_c, 0, 71, 66
2,94925, Note_on_c, 0, 79, 0
2,94937, Note_on_c, 0, 45, 0
2,95016, Note_on_c, 0, 71, 0
2,95018, Note_on_c, 0, 50, 55
2,95033, Note_on_c, 0, 52, 0
2,95050, Note_on_c, 0, 79, 67
2,95133, Note_on_c, 0, 50, 0
2,95142, Note_on_c, 0, 49, 61
2,95158, Note_on_c, 0, 69, 68
2,95159, Note_on_c, 0, 79, 0
2,95247, Note_on_c, 0, 49, 0
2,95258, Note_on_c, 0, 52, 68
2,95264, Note_on_c, 0, 69, 0
2,95276, Note_on_c, 0, 79, 67
2,95374, Note_on_c, 0, 78, 74
2,95379, Note_on_c, 0, 52, 0
2,95383, Note_on_c, 0, 50, 63
2,95385, Note_on_c, 0, 79, 0
2,95499, Note_on_c, 0, 50, 0
2,95503, Note_on_c, 0, 52, 61
2,95503, Note_on_c, 0, 76, 62
2,95511, Note_on_c, 0, 78, 0
2,95582, Note_on_c, 0, 52, 0
2,95606, Note_on_c, 0, 54, 65
2,95606, Note_on_c, 0, 76, 0
2,95621, Note_on_c, 0, 74, 62
2,95693, Note_on_c, 0, 54, 0
2,95727, Note_on_c, 0, 48, 65
2,95732, Note_on_c, 0, 78, 73
2,95733, Note_on_c, 0, 74, 0
2,95845, Note_on_c, 0, 78, 0
2,95859, Note_on_c, 0, 47, 67
2,95863, Note_on_c, 0, 72, 67
2,95877, Note_on_c, 0, 48, 0
2,95944, Note_on_c, 0, 72, 0
2,95971, Note_on_c, 0, 78, 61
2,95990, Note_on_c, 0, 45, 56
2,96013, Note_on_c, 0, 47, 0
2,96072, Note_on_c, 0, 78, 0
2,96096, Note_on_c, 0, 45, 0
2,96096, Note_on_c, 0, 71, 63
2,96099, Note_on_c, 0, 43, 57
2,96184, Note_on_c, 0, 71, 0
2,96191, Note_on_c, 0, 47, 59
2,96196, Note_on_c, 0, 43, 0
2,96203, Note_on_c, 0, 78, 61
2,96318, Note_on_c, 0, 78, 0
2,96319, Note_on_c, 0, 49, 56
2,96328, Note_on_c, 0, 69, 62
2,96342, Note_on_c, 0, 47, 0
2,96412, Note_on_c, 0, 49, 0
2,96418, Note_on_c, 0, 69, 0
2,96450, Note_on_c, 0, 50, 62
2,96451, Note_on_c, 0, 78, 62
2,96555, Note_on_c, 0, 50, 0
2,96558, Note_on_c, 0, 78, 0
2,96567, Note_on_c, 0, 52, 57
2,96574, Note_on_c, 0, 67, 55
2,96656, Note_on_c, 0, 67, 0
2,96670, Note_on_c, 0, 54, 59
2,96676, Note_on_c, 0, 52, 0
2,96682, Note_on_c, 0, 78, 63
2,96770, Note_on_c, 0, 78, 0
2,96787, Note_on_c, 0, 55, 59
2,96791, Note_on_c, 0, 54, 0
2,96813, Note_on_c, 0, 76, 60
2,96906, Note_on_c, 0, 55, 0
2,96927, Note_on_c, 0, 57, 53
2,96930, Note_on_c, 0, 74, 63
2,96945, Note_on_c, 0, 76, 0
2,97030, Note_on_c, 0, 57, 0
2,97032, Note_on_c, 0, 55, 65
2,97045, Note_on_c, 0, 73, 70
2,97053, Note_on_c, 0, 74, 0
2,97141, Note_on_c, 0, 73, 0
2,97144, Note_on_c, 0, 54, 67
2,97156, Note_on_c, 0, 76, 70
2,97158, Note_on_c, 0, 55, 0
2,97251, Note_on_c, 0, 54, 0
2,97269, Note_on_c, 0, 52, 78
2,97285, Note_on_c, 0, 71, 72
2,97292, Note_on_c, 0, 76, 0
2,97378, Note_on_c, 0, 50, 75
2,97388, Note_on_c, 0, 52, 0
2,97398, Note_on_c, 0, 76, 73
2,97406, Note_on_c, 0, 71, 0
2,97495, Note_on_c, 0, 49, 76
2,97506, Note_on_c, 0, 69, 81
2,97518, Note_on_c, 0, 50, 0
2,97531, Note_on_c, 0, 76, 0
2,97595, Note_on_c, 0, 69, 0
2,97596, Note_on_c, 0, 45, 75
2,97601, Note_on_c, 0, 49, 0
2,97634, Note_on_c, 0, 76, 73
2,97707, Note_on_c, 0, 47, 73
2,97740, Note_on_c, 0, 67, 79
2,97747, Note_on_c, 0, 45, 0
2,97759, Note_on_c, 0, 76, 0
2,97829, Note_on_c, 0, 49, 74
2,97842, Note_on_c, 0, 67, 0
2,97862, Note_on_c, 0, 76, 76
2,97866, Note_on_c, 0, 47, 0
2,97959, Note_on_c, 0, 50, 76
2,97961, Note_on_c, 0, 66, 83
2,97970, Note_on_c, 0, 76, 0
2,97976, Note_on_c, 0, 49, 0
2,98064, Note_on_c, 0, 66, 0
2,98067, Note_on_c, 0, 50, 0
2,98073, Note_on_c, 0, 76, 82
2,98076, Note_on_c, 0, 52, 75
2,98123, Note_on_c, 0, 76, 0
2,98178, Note_on_c, 0, 54, 77
2,98183, Note_on_c, 0, 52, 0
2,98191, Note_on_c, 0, 74, 88
2,98285, Note_on_c, 0, 55, 72
2,98299, Note_on_c, 0, 54, 0
2,98302, Note_on_c, 0, 66, 77
2,98331, Note_on_c, 0, 74, 0
2,98371, Note_on_c, 0, 55, 0
2,98409, Note_on_c, 0, 57, 74
2,98411, Note_on_c, 0, 66, 0
2,98420, Note_on_c, 0, 64, 76
2,98443, Note_on_c, 0, 57, 0
2,98529, Note_on_c, 0, 67, 72
2,98537, Note_on_c, 0, 64, 0
2,98635, Note_on_c, 0, 67, 0
2,98649, Note_on_c, 0, 45, 71
2,98649, Note_on_c, 0, 74, 77
2,98679, Note_on_c, 0, 45, 0
2,98764, Note_on_c, 0, 73, 74
2,98771, Note_on_c, 0, 74, 0
2,98873, Note_on_c, 0, 73, 0
2,98893, Note_on_c, 0, 76, 72
2,98900, Note_on_c, 0, 50, 88
2,98946, Note_on_c, 0, 50, 0
2,98967, Note_on_c, 0, 76, 0
2,98971, Note_on_c, 0, 74, 65
2,99040, Note_on_c, 0, 74, 0
2,99041, Note_on_c, 0, 76, 70
2,99108, Note_on_c, 0, 74, 61
2,99108, Note_on_c, 0, 76, 0
2,99160, Note_on_c, 0, 74, 0
2,99167, Note_on_c, 0, 76, 61
2,99172, Note_on_c, 0, 48, 72
2,99227, Note_on_c, 0, 74, 60
2,99230, Note_on_c, 0, 76, 0
2,99268, Note_on_c, 0, 50, 72
2,99270, Note_on_c, 0, 48, 0
2,99281, Note_on_c, 0, 74, 0
2,99287, Note_on_c, 0, 76, 59
2,99344, Note_on_c, 0, 74, 61
2,99348, Note_on_c, 0, 76, 0
2,99368, Note_on_c, 0, 50, 0
2,99369, Note_on_c, 0, 52, 72
2,99399, Note_on_c, 0, 74, 0
2,99405, Note_on_c, 0, 76, 62
2,99454, Note_on_c, 0, 74, 54
2,99464, Note_on_c, 0, 76, 0
2,99475, Note_on_c, 0, 50, 68
2,99504, Note_on_c, 0, 52, 0
2,99514, Note_on_c, 0, 74, 0
2,99515, Note_on_c, 0, 76, 57
2,99572, Note_on_c, 0, 74, 56
2,99581, Note_on_c, 0, 76, 0
2,99597, Note_on_c, 0, 48, 79
2,99606, Note_on_c, 0, 50, 0
2,99627, Note_on_c, 0, 76, 63
2,99637, Note_on_c, 0, 74, 0
2,99646, Note_on_c, 0, 48, 0
2,99654, Note_on_c, 0, 74, 37
2,99689, Note_on_c, 0, 76, 0
2,99836, Note_on_c, 0, 47, 66
2,99940, Note_on_c, 0, 47, 0
2,99947, Note_on_c, 0, 48, 60
2,100049, Note_on_c, 0, 48, 0
2,100071, Note_on_c, 0, 50, 56
2,100191, Note_on_c, 0, 48, 51
2,100228, Note_on_c, 0, 50, 0
2,100331, Note_on_c, 0, 48, 0
2,100336, Note_on_c, 0, 47, 63
2,100381, Note_on_c, 0, 47, 0
2,100434, Note_on_c, 0, 67, 49
2,100543, Note_on_c, 0, 67, 0
2,100557, Note_on_c, 0, 65, 57
2,100565, Note_on_c, 0, 48, 68
2,100601, Note_on_c, 0, 48, 0
2,100663, Note_on_c, 0, 65, 0
2,100682, Note_on_c, 0, 64, 60
2,100795, Note_on_c, 0, 64, 0
2,100803, Note_on_c, 0, 50, 73
2,100806, Note_on_c, 0, 62, 63
2,100843, Note_on_c, 0, 50, 0
2,100904, Note_on_c, 0, 62, 0
2,100927, Note_on_c, 0, 65, 59
2,101046, Note_on_c, 0, 55, 77
2,101058, Note_on_c, 0, 65, 0
2,101068, Note_on_c, 0, 64, 67
2,101077, Note_on_c, 0, 55, 0
2,101127, Note_on_c, 0, 64, 0
2,101178, Note_on_c, 0, 65, 60
2,101218, Note_on_c, 0, 74, 0
2,101300, Note_on_c, 0, 65, 0
2,101307, Note_on_c, 0, 45, 60
2,101312, Note_on_c, 0, 64, 66
2,101321, Note_on_c, 0, 72, 71
2,101431, Note_on_c, 0, 64, 0
2,101435, Note_on_c, 0, 62, 71
2,101527, Note_on_c, 0, 62, 0
2,101560, Note_on_c, 0, 60, 57
2,101634, Note_on_c, 0, 60, 0
2,101689, Note_on_c, 0, 64, 45
2,101756, Note_on_c, 0, 47, 72
2,101763, Note_on_c, 0, 45, 0
2,101782, Note_on_c, 0, 64, 0
2,101805, Note_on_c, 0, 62, 59
2,101809, Note_on_c, 0, 47, 0
2,101863, Note_on_c, 0, 62, 0
2,101885, Note_on_c, 0, 72, 0
2,101893, Note_on_c, 0, 64, 54
2,101993, Note_on_c, 0, 48, 74
2,101998, Note_on_c, 0, 64, 0
2,102006, Note_on_c, 0, 62, 69
2,102009, Note_on_c, 0, 71, 73
2,102032, Note_on_c, 0, 48, 0
2,102101, Note_on_c, 0, 62, 0
2,102114, Note_on_c, 0, 60, 66
2,102220, Note_on_c, 0, 60, 0
2,102233, Note_on_c, 0, 59, 55
2,102236, Note_on_c, 0, 50, 60
2,102269, Note_on_c, 0, 50, 0
2,102298, Note_on_c, 0, 59, 0
2,102342, Note_on_c, 0, 62, 58
2,102449, Note_on_c, 0, 62, 0
2,102468, Note_on_c, 0, 52, 63
2,102472, Note_on_c, 0, 60, 65
2,102499, Note_on_c, 0, 52, 0
2,102533, Note_on_c, 0, 60, 0
2,102548, Note_on_c, 0, 71, 0
2,102585, Note_on_c, 0, 62, 59
2,102698, Note_on_c, 0, 62, 0
2,102703, Note_on_c, 0, 42, 53
2,102714, Note_on_c, 0, 60, 63
2,102718, Note_on_c, 0, 69, 67
2,102815, Note_on_c, 0, 60, 0
2,102829, Note_on_c, 0, 59, 61
2,102929, Note_on_c, 0, 59, 0
2,102951, Note_on_c, 0, 57, 58
2,103041, Note_on_c, 0, 57, 0
2,103062, Note_on_c, 0, 60, 56
2,103154, Note_on_c, 0, 60, 0
2,103170, Note_on_c, 0, 43, 57
2,103188, Note_on_c, 0, 59, 55
2,103202, Note_on_c, 0, 42, 0
2,103213, Note_on_c, 0, 43, 0
2,103302, Note_on_c, 0, 69, 0
2,103303, Note_on_c, 0, 67, 53
2,103415, Note_on_c, 0, 42, 55
2,103422, Note_on_c, 0, 67, 0
2,103438, Note_on_c, 0, 69, 57
2,103526, Note_on_c, 0, 42, 0
2,103529, Note_on_c, 0, 43, 50
2,103541, Note_on_c, 0, 69, 0
2,103558, Note_on_c, 0, 67, 56
2,103606, Note_on_c, 0, 43, 0
2,103618, Note_on_c, 0, 45, 56
2,103648, Note_on_c, 0, 67, 0
2,103654, Note_on_c, 0, 66, 57
2,103673, Note_on_c, 0, 45, 0
2,103721, Note_on_c, 0, 59, 0
2,103731, Note_on_c, 0, 47, 44
2,103742, Note_on_c, 0, 66, 0
2,103769, Note_on_c, 0, 67, 56
2,103862, Note_on_c, 0, 36, 46
2,103862, Note_on_c, 0, 47, 0
2,103865, Note_on_c, 0, 67, 0
2,103877, Note_on_c, 0, 66, 67
2,103895, Note_on_c, 0, 57, 40
2,103901, Note_on_c, 0, 36, 0
2,103926, Note_on_c, 0, 57, 0
2,103969, Note_on_c, 0, 66, 0
2,103997, Note_on_c, 0, 62, 52
2,104067, Note_on_c, 0, 64, 52
2,104076, Note_on_c, 0, 62, 0
2,104117, Note_on_c, 0, 66, 62
2,104127, Note_on_c, 0, 64, 0
2,104142, Note_on_c, 0, 60, 59
2,104216, Note_on_c, 0, 66, 0
2,104238, Note_on_c, 0, 60, 0
2,104244, Note_on_c, 0, 59, 61
2,104244, Note_on_c, 0, 62, 61
2,104349, Note_on_c, 0, 67, 70
2,104350, Note_on_c, 0, 57, 57
2,104354, Note_on_c, 0, 59, 0
2,104354, Note_on_c, 0, 62, 0
2,104425, Note_on_c, 0, 57, 0
2,104445, Note_on_c, 0, 67, 0
2,104458, Note_on_c, 0, 55, 73
2,104458, Note_on_c, 0, 62, 80
2,104556, Note_on_c, 0, 54, 70
2,104556, Note_on_c, 0, 55, 0
2,104563, Note_on_c, 0, 69, 79
2,104569, Note_on_c, 0, 62, 0
2,104655, Note_on_c, 0, 69, 0
2,104675, Note_on_c, 0, 62, 82
2,104677, Note_on_c, 0, 54, 0
2,104680, Note_on_c, 0, 52, 77
2,104787, Note_on_c, 0, 71, 78
2,104789, Note_on_c, 0, 50, 72
2,104795, Note_on_c, 0, 52, 0
2,104807, Note_on_c, 0, 62, 0
2,104899, Note_on_c, 0, 48, 68
2,104902, Note_on_c, 0, 71, 0
2,104905, Note_on_c, 0, 62, 68
2,104926, Note_on_c, 0, 50, 0
2,105010, Note_on_c, 0, 47, 66
2,105019, Note_on_c, 0, 72, 74
2,105030, Note_on_c, 0, 62, 0
2,105036, Note_on_c, 0, 48, 0
2,105126, Note_on_c, 0, 47, 0
2,105135, Note_on_c, 0, 45, 53
2,105148, Note_on_c, 0, 62, 59
2,105176, Note_on_c, 0, 45, 0
2,105226, Note_on_c, 0, 62, 0
2,105252, Note_on_c, 0, 43, 45
2,105256, Note_on_c, 0, 71, 67
2,105266, Note_on_c, 0, 72, 0
2,105284, Note_on_c, 0, 71, 0
2,105359, Note_on_c, 0, 43, 0
2,105365, Note_on_c, 0, 45, 60
2,105383, Note_on_c, 0, 79, 76
2,105472, Note_on_c, 0, 45, 0
2,105498, Note_on_c, 0, 47, 48
2,105498, Note_on_c, 0, 77, 75
2,105499, Note_on_c, 0, 79, 0
2,105593, Note_on_c, 0, 47, 0
2,105603, Note_on_c, 0, 43, 56
2,105609, Note_on_c, 0, 77, 0
2,105610, Note_on_c, 0, 76, 71
2,105710, Note_on_c, 0, 43, 0
2,105729, Note_on_c, 0, 76, 0
2,105732, Note_on_c, 0, 74, 71
2,105734, Note_on_c, 0, 48, 64
2,105825, Note_on_c, 0, 48, 0
2,105837, Note_on_c, 0, 74, 0
2,105843, Note_on_c, 0, 43, 55
2,105848, Note_on_c, 0, 72, 75
2,105943, Note_on_c, 0, 43, 0
2,105959, Note_on_c, 0, 71, 74
2,105960, Note_on_c, 0, 50, 58
2,105968, Note_on_c, 0, 72, 0
2,106050, Note_on_c, 0, 50, 0
2,106070, Note_on_c, 0, 43, 55
2,106078, Note_on_c, 0, 69, 70
2,106096, Note_on_c, 0, 71, 0
2,106155, Note_on_c, 0, 43, 0
2,106184, Note_on_c, 0, 52, 55
2,106187, Note_on_c, 0, 67, 70
2,106187, Note_on_c, 0, 69, 0
2,106255, Note_on_c, 0, 52, 0
2,106283, Note_on_c, 0, 67, 0
2,106288, Note_on_c, 0, 43, 50
2,106307, Note_on_c, 0, 65, 64
2,106375, Note_on_c, 0, 43, 0
2,106424, Note_on_c, 0, 53, 51
2,106424, Note_on_c, 0, 64, 61
2,106424, Note_on_c, 0, 65, 0
2,106490, Note_on_c, 0, 53, 0
2,106516, Note_on_c, 0, 64, 0
2,106522, Note_on_c, 0, 43, 48
2,106534, Note_on_c, 0, 62, 57
2,106606, Note_on_c, 0, 43, 0
2,106612, Note_on_c, 0, 62, 0
2,106653, Note_on_c, 0, 60, 56
2,106663, Note_on_c, 0, 52, 50
2,106690, Note_on_c, 0, 60, 0
2,106753, Note_on_c, 0, 52, 0
2,106758, Note_on_c, 0, 40, 51
2,106801, Note_on_c, 0, 42, 53
2,106806, Note_on_c, 0, 76, 62
2,106852, Note_on_c, 0, 40, 0
2,106889, Note_on_c, 0, 44, 53
2,106902, Note_on_c, 0, 42, 0
2,106909, Note_on_c, 0, 76, 0
2,106913, Note_on_c, 0, 74, 62
2,107002, Note_on_c, 0, 44, 0
2,107010, Note_on_c, 0, 40, 50
2,107030, Note_on_c, 0, 72, 64
2,107033, Note_on_c, 0, 74, 0
2,107112, Note_on_c, 0, 40, 0
2,107127, Note_on_c, 0, 72, 0
2,107129, Note_on_c, 0, 45, 52
2,107136, Note_on_c, 0, 71, 66
2,107232, Note_on_c, 0, 45, 0
2,107252, Note_on_c, 0, 71, 0
2,107262, Note_on_c, 0, 69, 70
2,107265, Note_on_c, 0, 40, 52
2,107350, Note_on_c, 0, 40, 0
2,107368, Note_on_c, 0, 68, 74
2,107371, Note_on_c, 0, 47, 54
2,107383, Note_on_c, 0, 69, 0
2,107455, Note_on_c, 0, 47, 0
2,107482, Note_on_c, 0, 40, 57
2,107487, Note_on_c, 0, 66, 69
2,107491, Note_on_c, 0, 68, 0
2,107546, Note_on_c, 0, 40, 0
2,107586, Note_on_c, 0, 48, 56
2,107602, Note_on_c, 0, 64, 71
2,107602, Note_on_c, 0, 66, 0
2,107644, Note_on_c, 0, 48, 0
2,107692, Note_on_c, 0, 40, 55
2,107703, Note_on_c, 0, 64, 0
2,107712, Note_on_c, 0, 62, 63
2,107774, Note_on_c, 0, 40, 0
2,107803, Note_on_c, 0, 50, 54
2,107830, Note_on_c, 0, 60, 63
2,107832, Note_on_c, 0, 62, 0
2,107865, Note_on_c, 0, 50, 0
2,107910, Note_on_c, 0, 40, 57
2,107910, Note_on_c, 0, 60, 0
2,107933, Note_on_c, 0, 59, 60
2,107979, Note_on_c, 0, 40, 0
2,108060, Note_on_c, 0, 49, 59
2,108064, Note_on_c, 0, 59, 0
2,108078, Note_on_c, 0, 57, 63
2,108127, Note_on_c, 0, 57, 0
2,108131, Note_on_c, 0, 49, 0
2,108189, Note_on_c, 0, 59, 67
2,108194, Note_on_c, 0, 57, 41
2,108294, Note_on_c, 0, 57, 0
2,108307, Note_on_c, 0, 55, 57
2,108310, Note_on_c, 0, 61, 63
2,108317, Note_on_c, 0, 59, 0
2,108401, Note_on_c, 0, 55, 0
2,108414, Note_on_c, 0, 57, 73
2,108415, Note_on_c, 0, 54, 54
2,108418, Note_on_c, 0, 61, 0
2,108506, Note_on_c, 0, 54, 0
2,108526, Note_on_c, 0, 62, 75
2,108534, Note_on_c, 0, 52, 75
2,108538, Note_on_c, 0, 57, 0
2,108629, Note_on_c, 0, 62, 0
2,108631, Note_on_c, 0, 52, 0
2,108637, Note_on_c, 0, 50, 69
2,108643, Note_on_c, 0, 57, 80
2,108756, Note_on_c, 0, 49, 69
2,108761, Note_on_c, 0, 50, 0
2,108768, Note_on_c, 0, 64, 76
2,108786, Note_on_c, 0, 57, 0
2,108862, Note_on_c, 0, 49, 0
2,108872, Note_on_c, 0, 64, 0
2,108875, Note_on_c, 0, 47, 80
2,108882, Note_on_c, 0, 57, 76
2,108986, Note_on_c, 0, 47, 0
2,108988, Note_on_c, 0, 45, 73
2,108989, Note_on_c, 0, 66, 88
2,109026, Note_on_c, 0, 57, 0
2,109079, Note_on_c, 0, 45, 0
2,109102, Note_on_c, 0, 43, 77
2,109111, Note_on_c, 0, 57, 79
2,109118, Note_on_c, 0, 66, 0
2,109219, Note_on_c, 0, 67, 84
2,109222, Note_on_c, 0, 42, 71
2,109225, Note_on_c, 0, 57, 0
2,109249, Note_on_c, 0, 43, 0
2,109318, Note_on_c, 0, 40, 72
2,109334, Note_on_c, 0, 42, 0
2,109334, Note_on_c, 0, 57, 71
2,109423, Note_on_c, 0, 57, 0
2,109451, Note_on_c, 0, 67, 0
2,109469, Note_on_c, 0, 38, 71
2,109475, Note_on_c, 0, 66, 71
2,109477, Note_on_c, 0, 40, 0
2,109478, Note_on_c, 0, 62, 70
2,109522, Note_on_c, 0, 62, 0
2,109549, Note_on_c, 0, 66, 0
2,109718, Note_on_c, 0, 71, 80
2,109725, Note_on_c, 0, 60, 82
2,109807, Note_on_c, 0, 71, 0
2,109836, Note_on_c, 0, 62, 75
2,109854, Note_on_c, 0, 60, 0
2,109943, Note_on_c, 0, 67, 67
2,109957, Note_on_c, 0, 64, 60
2,109960, Note_on_c, 0, 62, 0
2,110040, Note_on_c, 0, 64, 0
2,110043, Note_on_c, 0, 62, 67
2,110056, Note_on_c, 0, 67, 0
2,110169, Note_on_c, 0, 62, 0
2,110181, Note_on_c, 0, 64, 66
2,110184, Note_on_c, 0, 60, 77
2,110229, Note_on_c, 0, 60, 0
2,110259, Note_on_c, 0, 64, 0
2,110420, Note_on_c, 0, 69, 69
2,110427, Note_on_c, 0, 59, 66
2,110496, Note_on_c, 0, 69, 0
2,110531, Note_on_c, 0, 60, 63
2,110564, Note_on_c, 0, 59, 0
2,110641, Note_on_c, 0, 60, 0
2,110645, Note_on_c, 0, 62, 67
2,110652, Note_on_c, 0, 66, 69
2,110745, Note_on_c, 0, 62, 0
2,110754, Note_on_c, 0, 66, 0
2,110759, Note_on_c, 0, 60, 66
2,110898, Note_on_c, 0, 60, 0
2,110903, Note_on_c, 0, 67, 66
2,110911, Note_on_c, 0, 59, 56
2,111005, Note_on_c, 0, 59, 0
2,111012, Note_on_c, 0, 38, 0
2,111020, Note_on_c, 0, 50, 58
2,111127, Note_on_c, 0, 50, 0
2,111130, Note_on_c, 0, 48, 73
2,111145, Note_on_c, 0, 60, 73
2,111197, Note_on_c, 0, 60, 0
2,111228, Note_on_c, 0, 48, 0
2,111251, Note_on_c, 0, 50, 72
2,111349, Note_on_c, 0, 52, 80
2,111363, Note_on_c, 0, 50, 0
2,111370, Note_on_c, 0, 62, 71
2,111426, Note_on_c, 0, 62, 0
2,111448, Note_on_c, 0, 50, 74
2,111488, Note_on_c, 0, 52, 0
2,111549, Note_on_c, 0, 67, 0
2,111574, Note_on_c, 0, 48, 77
2,111576, Note_on_c, 0, 64, 79
2,111604, Note_on_c, 0, 50, 0
2,111647, Note_on_c, 0, 48, 0
2,111652, Note_on_c, 0, 64, 0
2,111693, Note_on_c, 0, 69, 73
2,111763, Note_on_c, 0, 69, 0
2,111803, Note_on_c, 0, 71, 69
2,111833, Note_on_c, 0, 54, 69
2,111834, Note_on_c, 0, 47, 67
2,111861, Note_on_c, 0, 69, 77
2,111861, Note_on_c, 0, 71, 0
2,111910, Note_on_c, 0, 47, 0
2,111916, Note_on_c, 0, 48, 62
2,111919, Note_on_c, 0, 69, 0
2,111923, Note_on_c, 0, 54, 0
2,111925, Note_on_c, 0, 71, 66
2,111971, Note_on_c, 0, 69, 75
2,111982, Note_on_c, 0, 71, 0
2,111987, Note_on_c, 0, 50, 67
2,111998, Note_on_c, 0, 48, 0
2,112035, Note_on_c, 0, 71, 76
2,112036, Note_on_c, 0, 69, 0
2,112077, Note_on_c, 0, 69, 59
2,112093, Note_on_c, 0, 48, 56
2,112094, Note_on_c, 0, 71, 0
2,112133, Note_on_c, 0, 69, 0
2,112136, Note_on_c, 0, 50, 0
2,112145, Note_on_c, 0, 67, 73
2,112209, Note_on_c, 0, 67, 0
2,112227, Note_on_c, 0, 69, 49
2,112260, Note_on_c, 0, 47, 59
2,112274, Note_on_c, 0, 69, 0
2,112275, Note_on_c, 0, 71, 68
2,112282, Note_on_c, 0, 48, 0
2,112345, Note_on_c, 0, 71, 0
2,112363, Note_on_c, 0, 47, 0
2,112522, Note_on_c, 0, 69, 74
2,112524, Note_on_c, 0, 45, 61
2,112527, Note_on_c, 0, 72, 71
2,112609, Note_on_c, 0, 69, 0
2,112629, Note_on_c, 0, 47, 67
2,112630, Note_on_c, 0, 72, 0
2,112640, Note_on_c, 0, 71, 68
2,112641, Note_on_c, 0, 67, 73
2,112659, Note_on_c, 0, 45, 0
2,112709, Note_on_c, 0, 67, 0
2,112718, Note_on_c, 0, 71, 0
2,112739, Note_on_c, 0, 47, 0
2,112741, Note_on_c, 0, 48, 75
2,112753, Note_on_c, 0, 69, 75
2,112757, Note_on_c, 0, 66, 81
2,112792, Note_on_c, 0, 66, 0
2,112805, Note_on_c, 0, 65, 37
2,112837, Note_on_c, 0, 65, 0
2,112851, Note_on_c, 0, 47, 72
2,112851, Note_on_c, 0, 71, 74
2,112857, Note_on_c, 0, 67, 76
2,112863, Note_on_c, 0, 69, 0
2,112900, Note_on_c, 0, 48, 0
2,112925, Note_on_c, 0, 67, 0
2,112973, Note_on_c, 0, 69, 89
2,112974, Note_on_c, 0, 45, 78
2,112983, Note_on_c, 0, 72, 84
2,113014, Note_on_c, 0, 47, 0
2,113019, Note_on_c, 0, 71, 0
2,113036, Note_on_c, 0, 69, 0
2,113062, Note_on_c, 0, 45, 0
2,113065, Note_on_c, 0, 72, 0
2,113215, Note_on_c, 0, 71, 91
2,113226, Note_on_c, 0, 74, 78
2,113239, Note_on_c, 0, 43, 66
2,113305, Note_on_c, 0, 71, 0
2,113336, Note_on_c, 0, 45, 65
2,113340, Note_on_c, 0, 69, 82
2,113343, Note_on_c, 0, 74, 0
2,113350, Note_on_c, 0, 72, 80
2,113390, Note_on_c, 0, 43, 0
2,113410, Note_on_c, 0, 69, 0
2,113443, Note_on_c, 0, 45, 0
2,113448, Note_on_c, 0, 47, 74
2,113465, Note_on_c, 0, 71, 89
2,113466, Note_on_c, 0, 67, 80
2,113478, Note_on_c, 0, 72, 0
2,113502, Note_on_c, 0, 67, 0
2,113559, Note_on_c, 0, 69, 78
2,113560, Note_on_c, 0, 45, 65
2,113576, Note_on_c, 0, 72, 82
2,113578, Note_on_c, 0, 71, 0
2,113589, Note_on_c, 0, 47, 0
2,113654, Note_on_c, 0, 69, 0
2,113678, Note_on_c, 0, 45, 0
2,113692, Note_on_c, 0, 43, 71
2,113693, Note_on_c, 0, 71, 88
2,113701, Note_on_c, 0, 74, 88
2,113726, Note_on_c, 0, 72, 0
2,113735, Note_on_c, 0, 71, 0
2,113750, Note_on_c, 0, 74, 0
2,113757, Note_on_c, 0, 43, 0
2,113801, Note_on_c, 0, 55, 71
2,113868, Note_on_c, 0, 55, 0
2,113873, Note_on_c, 0, 54, 68
2,113933, Note_on_c, 0, 69, 89
2,113934, Note_on_c, 0, 72, 88
2,113939, Note_on_c, 0, 52, 76
2,113940, Note_on_c, 0, 54, 0
2,113958, Note_on_c, 0, 69, 0
2,113974, Note_on_c, 0, 72, 0
2,114021, Note_on_c, 0, 52, 0
2,114037, Note_on_c, 0, 55, 65
2,114140, Note_on_c, 0, 55, 0
2,114145, Note_on_c, 0, 50, 60
2,114160, Note_on_c, 0, 67, 80
2,114163, Note_on_c, 0, 71, 82
2,114207, Note_on_c, 0, 71, 0
2,114239, Note_on_c, 0, 50, 0
2,114268, Note_on_c, 0, 55, 71
2,114359, Note_on_c, 0, 55, 0
2,114365, Note_on_c, 0, 49, 61
2,114390, Note_on_c, 0, 69, 79
2,114445, Note_on_c, 0, 69, 0
2,114467, Note_on_c, 0, 49, 0
2,114474, Note_on_c, 0, 55, 70
2,114588, Note_on_c, 0, 55, 0
2,114589, Note_on_c, 0, 47, 62
2,114615, Note_on_c, 0, 74, 81
2,114616, Note_on_c, 0, 79, 88
2,114682, Note_on_c, 0, 47, 0
2,114720, Note_on_c, 0, 74, 0
2,114726, Note_on_c, 0, 57, 63
2,114823, Note_on_c, 0, 57, 0
2,114843, Note_on_c, 0, 45, 67
2,114847, Note_on_c, 0, 73, 83
2,114906, Note_on_c, 0, 73, 0
2,114985, Note_on_c, 0, 57, 61
2,115092, Note_on_c, 0, 57, 0
2,115095, Note_on_c, 0, 50, 68
2,115096, Note_on_c, 0, 74, 74
2,115097, Note_on_c, 0, 78, 87
2,115113, Note_on_c, 0, 79, 0
2,115115, Note_on_c, 0, 45, 0
2,115132, Note_on_c, 0, 74, 0
2,115138, Note_on_c, 0, 67, 0
2,115147, Note_on_c, 0, 78, 0
2,115203, Note_on_c, 0, 48, 66
2,115230, Note_on_c, 0, 50, 0
2,115322, Note_on_c, 0, 46, 71
2,115322, Note_on_c, 0, 76, 87
2,115329, Note_on_c, 0, 67, 88
2,115349, Note_on_c, 0, 48, 0
2,115365, Note_on_c, 0, 67, 0
2,115387, Note_on_c, 0, 76, 0
2,115430, Note_on_c, 0, 46, 0
2,115437, Note_on_c, 0, 50, 73
2,115552, Note_on_c, 0, 50, 0
2,115552, Note_on_c, 0, 74, 81
2,115554, Note_on_c, 0, 66, 92
2,115557, Note_on_c, 0, 45, 75
2,115603, Note_on_c, 0, 66, 0
2,115609, Note_on_c, 0, 74, 0
2,115651, Note_on_c, 0, 45, 0
2,115677, Note_on_c, 0, 50, 73
2,115793, Note_on_c, 0, 43, 74
2,115793, Note_on_c, 0, 73, 91
2,115795, Note_on_c, 0, 50, 0
2,115796, Note_on_c, 0, 64, 82
2,115817, Note_on_c, 0, 64, 0
2,115848, Note_on_c, 0, 73, 0
2,115910, Note_on_c, 0, 43, 0
2,115929, Note_on_c, 0, 52, 67
2,116043, Note_on_c, 0, 52, 0
2,116043, Note_on_c, 0, 82, 93
2,116046, Note_on_c, 0, 73, 98
2,116054, Note_on_c, 0, 42, 68
2,116187, Note_on_c, 0, 52, 71
2,116189, Note_on_c, 0, 42, 0
2,116273, Note_on_c, 0, 52, 0
2,116303, Note_on_c, 0, 40, 67
2,116434, Note_on_c, 0, 52, 68
2,116477, Note_on_c, 0, 82, 0
2,116496, Note_on_c, 0, 73, 0
2,116581, Note_on_c, 0, 42, 76
2,116586, Note_on_c, 0, 52, 0
2,116588, Note_on_c, 0, 40, 0
2,116594, Note_on_c, 0, 81, 95
2,116599, Note_on_c, 0, 72, 89
2,116645, Note_on_c, 0, 42, 0
2,116703, Note_on_c, 0, 79, 83
2,116730, Note_on_c, 0, 81, 0
2,116821, Note_on_c, 0, 78, 81
2,116831, Note_on_c, 0, 38, 63
2,116853, Note_on_c, 0, 79, 0
2,116859, Note_on_c, 0, 38, 0
2,116924, Note_on_c, 0, 76, 75
2,116932, Note_on_c, 0, 78, 0
2,116968, Note_on_c, 0, 76, 0
2,117016, Note_on_c, 0, 72, 0
2,117050, Note_on_c, 0, 74, 85
2,117055, Note_on_c, 0, 43, 75
2,117093, Note_on_c, 0, 43, 0
2,117189, Note_on_c, 0, 74, 0
2,117190, Note_on_c, 0, 71, 71
2,117235, Note_on_c, 0, 71, 0
2,117254, Note_on_c, 0, 69, 77
2,117284, Note_on_c, 0, 40, 74
2,117296, Note_on_c, 0, 71, 83
2,117317, Note_on_c, 0, 69, 0
2,117318, Note_on_c, 0, 40, 0
2,117434, Note_on_c, 0, 79, 88
2,117451, Note_on_c, 0, 71, 0
2,117531, Note_on_c, 0, 69, 83
2,117547, Note_on_c, 0, 36, 60
2,117584, Note_on_c, 0, 36, 0
2,117670, Note_on_c, 0, 72, 80
2,117696, Note_on_c, 0, 79, 0
2,117776, Note_on_c, 0, 38, 70
2,117789, Note_on_c, 0, 69, 0
2,117798, Note_on_c, 0, 79, 84
2,117807, Note_on_c, 0, 72, 0
2,117816, Note_on_c, 0, 38, 0
2,117924, Note_on_c, 0, 78, 77
2,117972, Note_on_c, 0, 79, 0
2,118106, Note_on_c, 0, 43, 62
2,118114, Note_on_c, 0, 79, 80
2,118117, Note_on_c, 0, 71, 72
2,118143, Note_on_c, 0, 78, 0
2,118266, Note_on_c, 0, 78, 75
2,118305, Note_on_c, 0, 79, 0
2,118320, Note_on_c, 0, 76, 72
2,118358, Note_on_c, 0, 78, 0
2,118363, Note_on_c, 0, 74, 76
2,118383, Note_on_c, 0, 76, 0
2,118464, Note_on_c, 0, 74, 0
2,118475, Note_on_c, 0, 71, 0
2,118488, Note_on_c, 0, 79, 73
2,118602, Note_on_c, 0, 72, 73
2,118605, Note_on_c, 0, 69, 75
2,118606, Note_on_c, 0, 79, 0
2,118663, Note_on_c, 0, 69, 0
2,118691, Note_on_c, 0, 72, 0
2,118715, Note_on_c, 0, 79, 71
2,118834, Note_on_c, 0, 67, 75
2,118835, Note_on_c, 0, 71, 69
2,118840, Note_on_c, 0, 79, 0
2,118846, Note_on_c, 0, 43, 0
2,118969, Note_on_c, 0, 43, 60
2,119012, Note_on_c, 0, 45, 63
2,119018, Note_on_c, 0, 43, 0
2,119043, Note_on_c, 0, 79, 80
2,119062, Note_on_c, 0, 71, 0
2,119065, Note_on_c, 0, 47, 74
2,119076, Note_on_c, 0, 79, 0
2,119078, Note_on_c, 0, 45, 0
2,119171, Note_on_c, 0, 43, 66
2,119174, Note_on_c, 0, 47, 0
2,119236, Note_on_c, 0, 67, 0
2,119273, Note_on_c, 0, 66, 78
2,119273, Note_on_c, 0, 69, 77
2,119290, Note_on_c, 0, 43, 0
2,119295, Note_on_c, 0, 48, 75
2,119316, Note_on_c, 0, 66, 0
2,119319, Note_on_c, 0, 69, 0
2,119413, Note_on_c, 0, 43, 63
2,119425, Note_on_c, 0, 48, 0
2,119519, Note_on_c, 0, 71, 79
2,119522, Note_on_c, 0, 67, 76
2,119528, Note_on_c, 0, 50, 72
2,119545, Note_on_c, 0, 43, 0
2,119666, Note_on_c, 0, 74, 71
2,119675, Note_on_c, 0, 67, 0
2,119679, Note_on_c, 0, 71, 0
2,119700, Note_on_c, 0, 72, 67
2,119750, Note_on_c, 0, 50, 0
2,119752, Note_on_c, 0, 43, 67
2,119761, Note_on_c, 0, 67, 71
2,119765, Note_on_c, 0, 74, 0
2,119768, Note_on_c, 0, 71, 78
2,119795, Note_on_c, 0, 72, 0
2,119872, Note_on_c, 0, 71, 0
2,119883, Note_on_c, 0, 67, 0
2,119887, Note_on_c, 0, 74, 66
2,119993, Note_on_c, 0, 47, 68
2,120001, Note_on_c, 0, 69, 75
2,120004, Note_on_c, 0, 65, 74
2,120007, Note_on_c, 0, 74, 0
2,120029, Note_on_c, 0, 47, 0
2,120107, Note_on_c, 0, 65, 0
2,120112, Note_on_c, 0, 69, 0
2,120116, Note_on_c, 0, 74, 75
2,120233, Note_on_c, 0, 48, 66
2,120250, Note_on_c, 0, 67, 74
2,120256, Note_on_c, 0, 64, 70
2,120279, Note_on_c, 0, 74, 0
2,120306, Note_on_c, 0, 48, 0
2,120315, Note_on_c, 0, 47, 70
2,120386, Note_on_c, 0, 48, 65
2,120387, Note_on_c, 0, 47, 0
2,120434, Note_on_c, 0, 48, 0
2,120452, Note_on_c, 0, 50, 64
2,120528, Note_on_c, 0, 50, 0
2,120531, Note_on_c, 0, 52, 74
2,120537, Note_on_c, 0, 72, 79
2,120565, Note_on_c, 0, 67, 0
2,120654, Note_on_c, 0, 52, 0
2,120660, Note_on_c, 0, 48, 69
2,120808, Note_on_c, 0, 54, 71
2,120821, Note_on_c, 0, 63, 69
2,120827, Note_on_c, 0, 48, 0
2,120901, Note_on_c, 0, 64, 0
2,120917, Note_on_c, 0, 54, 0
2,120937, Note_on_c, 0, 72, 0
2,120941, Note_on_c, 0, 48, 63
2,121131, Note_on_c, 0, 55, 57
2,121152, Note_on_c, 0, 63, 0
2,121170, Note_on_c, 0, 62, 60
2,121216, Note_on_c, 0, 48, 0
2,121254, Note_on_c, 0, 67, 64
2,121268, Note_on_c, 0, 62, 0
2,121328, Note_on_c, 0, 69, 66
2,121335, Note_on_c, 0, 67, 0
2,121383, Note_on_c, 0, 71, 50
2,121388, Note_on_c, 0, 69, 0
2,121409, Note_on_c, 0, 71, 0
2,121482, Note_on_c, 0, 71, 58
2,121486, Note_on_c, 0, 64, 62
2,121513, Note_on_c, 0, 72, 37
2,121541, Note_on_c, 0, 72, 0
2,121556, Note_on_c, 0, 71, 0
2,121602, Note_on_c, 0, 67, 74
2,121617, Note_on_c, 0, 64, 0
2,121699, Note_on_c, 0, 67, 0
2,121772, Note_on_c, 0, 65, 77
2,121775, Note_on_c, 0, 74, 77
2,121900, Note_on_c, 0, 65, 0
2,121901, Note_on_c, 0, 67, 78
2,121926, Note_on_c, 0, 74, 0
2,121949, Note_on_c, 0, 67, 0
2,122036, Note_on_c, 0, 76, 79
2,122051, Note_on_c, 0, 67, 76
2,122131, Note_on_c, 0, 71, 73
2,122167, Note_on_c, 0, 76, 0
2,122189, Note_on_c, 0, 72, 75
2,122200, Note_on_c, 0, 67, 0
2,122232, Note_on_c, 0, 71, 0
2,122254, Note_on_c, 0, 74, 75
2,122285, Note_on_c, 0, 72, 0
2,122338, Note_on_c, 0, 76, 88
2,122342, Note_on_c, 0, 67, 54
2,122376, Note_on_c, 0, 74, 0
2,122494, Note_on_c, 0, 72, 68
2,122521, Note_on_c, 0, 67, 0
2,122539, Note_on_c, 0, 76, 0
2,122666, Note_on_c, 0, 78, 77
2,122675, Note_on_c, 0, 69, 56
2,122701, Note_on_c, 0, 72, 0
2,122826, Note_on_c, 0, 69, 0
2,122829, Note_on_c, 0, 72, 72
2,122921, Note_on_c, 0, 78, 0
2,123039, Note_on_c, 0, 79, 70
2,123050, Note_on_c, 0, 71, 55
2,123086, Note_on_c, 0, 72, 0
2,123227, Note_on_c, 0, 74, 62
2,123396, Note_on_c, 0, 76, 60
2,123405, Note_on_c, 0, 74, 0
2,123542, Note_on_c, 0, 71, 0
2,123568, Note_on_c, 0, 72, 62
2,123626, Note_on_c, 0, 76, 0
2,123781, Note_on_c, 0, 69, 56
2,123787, Note_on_c, 0, 72, 0
2,123999, Note_on_c, 0, 78, 52
2,124057, Note_on_c, 0, 69, 0
2,124091, Note_on_c, 0, 79, 0
2,124408, Note_on_c, 0, 71, 50
2,124453, Note_on_c, 0, 78, 0
2,124530, Note_on_c, 0, 74, 56
2,124614, Note_on_c, 0, 79, 52
2,124659, Note_on_c, 0, 79, 0
2,124669, Note_on_c, 0, 78, 62
2,124747, Note_on_c, 0, 78, 0
2,124775, Note_on_c, 0, 79, 54
2,126244, Note_on_c, 0, 71, 0
2,126297, Note_on_c, 0, 79, 0
2,126317, Note_on_c, 0, 74, 0
2,126340, Note_on_c, 0, 55, 0
2,126405, Note_on_c, 0, 43, 0
2,126406, End_track
0, 0, End_of_file
