0, 0, Header, 1, 2, 384
1, 0, Start_track
1, 0, Tempo, 500000
1, 0, Time_signature, 4, 2, 24, 8
1, 1, End_track
2, 0, Start_track
2, 0, Title_t, "Zhang04-07.mid"
2, 0, Program_c, 0, 0
2, 782, Note_on_c, 0, 67, 66
2, 788, Note_on_c, 0, 55, 51
2, 830, Note_on_c, 0, 55, 0
2, 869, Note_on_c, 0, 71, 65
2, 873, Note_on_c, 0, 67, 0
2, 940, Note_on_c, 0, 74, 71
2, 946, Note_on_c, 0, 71, 0
2, 1016, Note_on_c, 0, 79, 75
2, 1017, Note_on_c, 0, 74, 0
2, 1020, Note_on_c, 0, 43, 47
2, 1062, Note_on_c, 0, 43, 0
2, 1078, Note_on_c, 0, 74, 63
2, 1089, Note_on_c, 0, 79, 0
2, 1150, Note_on_c, 0, 74, 0
2, 1152, Note_on_c, 0, 71, 71
2, 1221, Note_on_c, 0, 71, 0
2, 1224, Note_on_c, 0, 74, 73
2, 1309, Note_on_c, 0, 74, 0
2, 1311, Note_on_c, 0, 71, 71
2, 1371, Note_on_c, 0, 71, 0
2, 1389, Note_on_c, 0, 67, 63
2, 1442, Note_on_c, 0, 67, 0
2, 1478, Note_on_c, 0, 55, 74
2, 1486, Note_on_c, 0, 71, 76
2, 1506, Note_on_c, 0, 55, 0
2, 1551, Note_on_c, 0, 71, 0
2, 1556, Note_on_c, 0, 67, 80
2, 1631, Note_on_c, 0, 67, 0
2, 1637, Note_on_c, 0, 62, 71
2, 1697, Note_on_c, 0, 62, 0
2, 1707, Note_on_c, 0, 55, 77
2, 1723, Note_on_c, 0, 64, 83
2, 1736, Note_on_c, 0, 55, 0
2, 1807, Note_on_c, 0, 64, 0
2, 1808, Note_on_c, 0, 67, 80
2, 1878, Note_on_c, 0, 67, 0
2, 1879, Note_on_c, 0, 72, 72
2, 1961, Note_on_c, 0, 43, 67
2, 1962, Note_on_c, 0, 76, 78
2, 1970, Note_on_c, 0, 72, 0
2, 2007, Note_on_c, 0, 43, 0
2, 2037, Note_on_c, 0, 72, 81
2, 2045, Note_on_c, 0, 76, 0
2, 2114, Note_on_c, 0, 72, 0
2, 2123, Note_on_c, 0, 67, 74
2, 2188, Note_on_c, 0, 67, 0
2, 2201, Note_on_c, 0, 72, 74
2, 2286, Note_on_c, 0, 67, 65
2, 2295, Note_on_c, 0, 72, 0
2, 2358, Note_on_c, 0, 67, 0
2, 2364, Note_on_c, 0, 64, 68
2, 2410, Note_on_c, 0, 64, 0
2, 2460, Note_on_c, 0, 55, 72
2, 2460, Note_on_c, 0, 67, 72
2, 2487, Note_on_c, 0, 55, 0
2, 2536, Note_on_c, 0, 64, 61
2, 2539, Note_on_c, 0, 67, 0
2, 2603, Note_on_c, 0, 64, 0
2, 2615, Note_on_c, 0, 60, 69
2, 2685, Note_on_c, 0, 60, 0
2, 2703, Note_on_c, 0, 55, 77
2, 2704, Note_on_c, 0, 57, 74
2, 2740, Note_on_c, 0, 55, 0
2, 2778, Note_on_c, 0, 57, 0
2, 2790, Note_on_c, 0, 60, 73
2, 2850, Note_on_c, 0, 60, 0
2, 2863, Note_on_c, 0, 66, 66
2, 2957, Note_on_c, 0, 66, 0
2, 2957, Note_on_c, 0, 69, 75
2, 2958, Note_on_c, 0, 43, 64
2, 3003, Note_on_c, 0, 43, 0
2, 3036, Note_on_c, 0, 66, 77
2, 3043, Note_on_c, 0, 69, 0
2, 3117, Note_on_c, 0, 66, 0
2, 3120, Note_on_c, 0, 60, 68
2, 3165, Note_on_c, 0, 60, 0
2, 3191, Note_on_c, 0, 66, 71
2, 3269, Note_on_c, 0, 66, 0
2, 3272, Note_on_c, 0, 60, 70
2, 3333, Note_on_c, 0, 60, 0
2, 3358, Note_on_c, 0, 57, 55
2, 3398, Note_on_c, 0, 57, 0
2, 3436, Note_on_c, 0, 55, 71
2, 3450, Note_on_c, 0, 60, 66
2, 3463, Note_on_c, 0, 55, 0
2, 3515, Note_on_c, 0, 57, 54
2, 3521, Note_on_c, 0, 60, 0
2, 3582, Note_on_c, 0, 57, 0
2, 3585, Note_on_c, 0, 54, 63
2, 3632, Note_on_c, 0, 54, 0
2, 3683, Note_on_c, 0, 55, 62
2, 3750, Note_on_c, 0, 55, 0
2, 3765, Note_on_c, 0, 59, 60
2, 3845, Note_on_c, 0, 59, 0
2, 3862, Note_on_c, 0, 62, 53
2, 3920, Note_on_c, 0, 62, 0
2, 3937, Note_on_c, 0, 67, 63
2, 3947, Note_on_c, 0, 43, 53
2, 3990, Note_on_c, 0, 43, 0
2, 3999, Note_on_c, 0, 67, 0
2, 4016, Note_on_c, 0, 62, 61
2, 4066, Note_on_c, 0, 62, 0
2, 4089, Note_on_c, 0, 59, 62
2, 4141, Note_on_c, 0, 59, 0
2, 4178, Note_on_c, 0, 62, 58
2, 4233, Note_on_c, 0, 62, 0
2, 4245, Note_on_c, 0, 59, 61
2, 4287, Note_on_c, 0, 59, 0
2, 4318, Note_on_c, 0, 55, 53
2, 4355, Note_on_c, 0, 55, 0
2, 4407, Note_on_c, 0, 55, 73
2, 4411, Note_on_c, 0, 59, 61
2, 4431, Note_on_c, 0, 55, 0
2, 4489, Note_on_c, 0, 59, 0
2, 4502, Note_on_c, 0, 55, 66
2, 4548, Note_on_c, 0, 55, 0
2, 4563, Note_on_c, 0, 52, 67
2, 4595, Note_on_c, 0, 52, 0
2, 4666, Note_on_c, 0, 57, 60
2, 4667, Note_on_c, 0, 55, 67
2, 4704, Note_on_c, 0, 55, 0
2, 4749, Note_on_c, 0, 57, 0
2, 4755, Note_on_c, 0, 61, 66
2, 4833, Note_on_c, 0, 64, 64
2, 4834, Note_on_c, 0, 61, 0
2, 4911, Note_on_c, 0, 43, 54
2, 4911, Note_on_c, 0, 64, 0
2, 4918, Note_on_c, 0, 69, 73
2, 4964, Note_on_c, 0, 43, 0
2, 4988, Note_on_c, 0, 69, 0
2, 4989, Note_on_c, 0, 64, 68
2, 5066, Note_on_c, 0, 64, 0
2, 5074, Note_on_c, 0, 61, 72
2, 5140, Note_on_c, 0, 61, 0
2, 5143, Note_on_c, 0, 64, 62
2, 5224, Note_on_c, 0, 61, 73
2, 5230, Note_on_c, 0, 64, 0
2, 5300, Note_on_c, 0, 61, 0
2, 5315, Note_on_c, 0, 57, 62
2, 5363, Note_on_c, 0, 57, 0
2, 5390, Note_on_c, 0, 55, 61
2, 5400, Note_on_c, 0, 61, 70
2, 5420, Note_on_c, 0, 55, 0
2, 5477, Note_on_c, 0, 57, 61
2, 5511, Note_on_c, 0, 61, 0
2, 5560, Note_on_c, 0, 52, 60
2, 5598, Note_on_c, 0, 57, 0
2, 5601, Note_on_c, 0, 52, 0
2, 5643, Note_on_c, 0, 54, 50
2, 5655, Note_on_c, 0, 62, 61
2, 5699, Note_on_c, 0, 62, 0
2, 5731, Note_on_c, 0, 57, 53
2, 5734, Note_on_c, 0, 54, 0
2, 5804, Note_on_c, 0, 57, 0
2, 5804, Note_on_c, 0, 61, 66
2, 5862, Note_on_c, 0, 61, 0
2, 5895, Note_on_c, 0, 62, 68
2, 5958, Note_on_c, 0, 62, 0
2, 5980, Note_on_c, 0, 57, 65
2, 6045, Note_on_c, 0, 57, 0
2, 6055, Note_on_c, 0, 54, 68
2, 6128, Note_on_c, 0, 54, 0
2, 6144, Note_on_c, 0, 57, 74
2, 6211, Note_on_c, 0, 57, 0
2, 6220, Note_on_c, 0, 54, 72
2, 6290, Note_on_c, 0, 50, 63
2, 6296, Note_on_c, 0, 54, 0
2, 6375, Note_on_c, 0, 50, 0
2, 6379, Note_on_c, 0, 54, 67
2, 6384, Note_on_c, 0, 62, 68
2, 6419, Note_on_c, 0, 62, 0
2, 6451, Note_on_c, 0, 54, 0
2, 6467, Note_on_c, 0, 50, 52
2, 6549, Note_on_c, 0, 50, 0
2, 6555, Note_on_c, 0, 47, 53
2, 6624, Note_on_c, 0, 47, 0
2, 6641, Note_on_c, 0, 62, 56
2, 6647, Note_on_c, 0, 52, 62
2, 6677, Note_on_c, 0, 52, 0
2, 6708, Note_on_c, 0, 62, 0
2, 6716, Note_on_c, 0, 61, 55
2, 6770, Note_on_c, 0, 61, 0
2, 6802, Note_on_c, 0, 62, 52
2, 6873, Note_on_c, 0, 62, 0
2, 6891, Note_on_c, 0, 64, 59
2, 6907, Note_on_c, 0, 40, 53
2, 6938, Note_on_c, 0, 40, 0
2, 6962, Note_on_c, 0, 64, 0
2, 6972, Note_on_c, 0, 61, 55
2, 7030, Note_on_c, 0, 61, 0
2, 7054, Note_on_c, 0, 62, 52
2, 7118, Note_on_c, 0, 62, 0
2, 7138, Note_on_c, 0, 66, 61
2, 7219, Note_on_c, 0, 66, 0
2, 7233, Note_on_c, 0, 61, 52
2, 7288, Note_on_c, 0, 61, 0
2, 7297, Note_on_c, 0, 62, 45
2, 7393, Note_on_c, 0, 52, 65
2, 7393, Note_on_c, 0, 62, 0
2, 7403, Note_on_c, 0, 67, 60
2, 7426, Note_on_c, 0, 52, 0
2, 7496, Note_on_c, 0, 61, 48
2, 7497, Note_on_c, 0, 67, 0
2, 7562, Note_on_c, 0, 62, 52
2, 7567, Note_on_c, 0, 61, 0
2, 7662, Note_on_c, 0, 49, 57
2, 7666, Note_on_c, 0, 62, 0
2, 7667, Note_on_c, 0, 69, 63
2, 7703, Note_on_c, 0, 49, 0
2, 7746, Note_on_c, 0, 61, 50
2, 7757, Note_on_c, 0, 69, 0
2, 7820, Note_on_c, 0, 62, 47
2, 7822, Note_on_c, 0, 61, 0
2, 7901, Note_on_c, 0, 62, 0
2, 7910, Note_on_c, 0, 45, 58
2, 7916, Note_on_c, 0, 71, 62
2, 7941, Note_on_c, 0, 45, 0
2, 7984, Note_on_c, 0, 61, 55
2, 7997, Note_on_c, 0, 71, 0
2, 8054, Note_on_c, 0, 62, 57
2, 8072, Note_on_c, 0, 61, 0
2, 8129, Note_on_c, 0, 62, 0
2, 8151, Note_on_c, 0, 69, 67
2, 8153, Note_on_c, 0, 47, 64
2, 8183, Note_on_c, 0, 47, 0
2, 8234, Note_on_c, 0, 61, 51
2, 8239, Note_on_c, 0, 69, 0
2, 8291, Note_on_c, 0, 62, 41
2, 8299, Note_on_c, 0, 61, 0
2, 8395, Note_on_c, 0, 62, 0
2, 8406, Note_on_c, 0, 67, 58
2, 8409, Note_on_c, 0, 49, 53
2, 8438, Note_on_c, 0, 49, 0
2, 8493, Note_on_c, 0, 61, 52
2, 8495, Note_on_c, 0, 67, 0
2, 8539, Note_on_c, 0, 61, 0
2, 8545, Note_on_c, 0, 62, 49
2, 8640, Note_on_c, 0, 62, 0
2, 8651, Note_on_c, 0, 50, 51
2, 8665, Note_on_c, 0, 66, 60
2, 8687, Note_on_c, 0, 50, 0
2, 8710, Note_on_c, 0, 66, 0
2, 8754, Note_on_c, 0, 61, 48
2, 8814, Note_on_c, 0, 61, 0
2, 8831, Note_on_c, 0, 62, 44
2, 8867, Note_on_c, 0, 62, 0
2, 8910, Note_on_c, 0, 52, 56
2, 8917, Note_on_c, 0, 67, 66
2, 8960, Note_on_c, 0, 67, 0
2, 8973, Note_on_c, 0, 52, 0
2, 9005, Note_on_c, 0, 61, 49
2, 9081, Note_on_c, 0, 62, 47
2, 9087, Note_on_c, 0, 61, 0
2, 9126, Note_on_c, 0, 62, 0
2, 9174, Note_on_c, 0, 69, 66
2, 9175, Note_on_c, 0, 54, 48
2, 9213, Note_on_c, 0, 69, 0
2, 9253, Note_on_c, 0, 61, 51
2, 9254, Note_on_c, 0, 54, 0
2, 9319, Note_on_c, 0, 61, 0
2, 9335, Note_on_c, 0, 62, 47
2, 9391, Note_on_c, 0, 62, 0
2, 9424, Note_on_c, 0, 71, 64
2, 9427, Note_on_c, 0, 55, 53
2, 9470, Note_on_c, 0, 71, 0
2, 9489, Note_on_c, 0, 55, 0
2, 9509, Note_on_c, 0, 61, 52
2, 9588, Note_on_c, 0, 62, 42
2, 9591, Note_on_c, 0, 61, 0
2, 9645, Note_on_c, 0, 62, 0
2, 9672, Note_on_c, 0, 69, 63
2, 9680, Note_on_c, 0, 54, 52
2, 9707, Note_on_c, 0, 69, 0
2, 9737, Note_on_c, 0, 54, 0
2, 9755, Note_on_c, 0, 61, 41
2, 9823, Note_on_c, 0, 61, 0
2, 9835, Note_on_c, 0, 62, 46
2, 9880, Note_on_c, 0, 62, 0
2, 9931, Note_on_c, 0, 52, 62
2, 9933, Note_on_c, 0, 67, 62
2, 9966, Note_on_c, 0, 67, 0
2, 9982, Note_on_c, 0, 52, 0
2, 10011, Note_on_c, 0, 61, 52
2, 10053, Note_on_c, 0, 61, 0
2, 10080, Note_on_c, 0, 62, 50
2, 10121, Note_on_c, 0, 62, 0
2, 10174, Note_on_c, 0, 66, 67
2, 10177, Note_on_c, 0, 50, 36
2, 10205, Note_on_c, 0, 66, 0
2, 10210, Note_on_c, 0, 50, 0
2, 10256, Note_on_c, 0, 61, 52
2, 10306, Note_on_c, 0, 61, 0
2, 10327, Note_on_c, 0, 62, 49
2, 10368, Note_on_c, 0, 62, 0
2, 10411, Note_on_c, 0, 54, 48
2, 10422, Note_on_c, 0, 69, 63
2, 10450, Note_on_c, 0, 69, 0
2, 10461, Note_on_c, 0, 54, 0
2, 10471, Note_on_c, 0, 61, 47
2, 10507, Note_on_c, 0, 61, 0
2, 10555, Note_on_c, 0, 62, 55
2, 10579, Note_on_c, 0, 62, 0
2, 10669, Note_on_c, 0, 47, 68
2, 10677, Note_on_c, 0, 68, 73
2, 10714, Note_on_c, 0, 47, 0
2, 10736, Note_on_c, 0, 68, 0
2, 10759, Note_on_c, 0, 71, 71
2, 10816, Note_on_c, 0, 71, 0
2, 10839, Note_on_c, 0, 74, 68
2, 10916, Note_on_c, 0, 74, 0
2, 10917, Note_on_c, 0, 77, 82
2, 10921, Note_on_c, 0, 59, 86
2, 10981, Note_on_c, 0, 59, 0
2, 10987, Note_on_c, 0, 74, 78
2, 11028, Note_on_c, 0, 77, 0
2, 11069, Note_on_c, 0, 71, 80
2, 11069, Note_on_c, 0, 74, 0
2, 11127, Note_on_c, 0, 71, 0
2, 11158, Note_on_c, 0, 74, 81
2, 11233, Note_on_c, 0, 71, 80
2, 11253, Note_on_c, 0, 74, 0
2, 11308, Note_on_c, 0, 71, 0
2, 11311, Note_on_c, 0, 68, 75
2, 11387, Note_on_c, 0, 68, 0
2, 11413, Note_on_c, 0, 57, 82
2, 11416, Note_on_c, 0, 71, 80
2, 11445, Note_on_c, 0, 57, 0
2, 11488, Note_on_c, 0, 68, 84
2, 11515, Note_on_c, 0, 71, 0
2, 11576, Note_on_c, 0, 65, 73
2, 11592, Note_on_c, 0, 68, 0
2, 11649, Note_on_c, 0, 65, 0
2, 11656, Note_on_c, 0, 62, 79
2, 11661, Note_on_c, 0, 56, 79
2, 11699, Note_on_c, 0, 56, 0
2, 11731, Note_on_c, 0, 65, 74
2, 11748, Note_on_c, 0, 62, 0
2, 11806, Note_on_c, 0, 68, 73
2, 11815, Note_on_c, 0, 65, 0
2, 11895, Note_on_c, 0, 71, 70
2, 11897, Note_on_c, 0, 68, 0
2, 11906, Note_on_c, 0, 44, 61
2, 11961, Note_on_c, 0, 44, 0
2, 11971, Note_on_c, 0, 68, 65
2, 11998, Note_on_c, 0, 71, 0
2, 12049, Note_on_c, 0, 65, 69
2, 12051, Note_on_c, 0, 68, 0
2, 12111, Note_on_c, 0, 65, 0
2, 12120, Note_on_c, 0, 68, 69
2, 12209, Note_on_c, 0, 65, 70
2, 12209, Note_on_c, 0, 68, 0
2, 12282, Note_on_c, 0, 65, 0
2, 12298, Note_on_c, 0, 62, 64
2, 12341, Note_on_c, 0, 62, 0
2, 12387, Note_on_c, 0, 56, 61
2, 12396, Note_on_c, 0, 65, 68
2, 12416, Note_on_c, 0, 56, 0
2, 12463, Note_on_c, 0, 62, 65
2, 12472, Note_on_c, 0, 65, 0
2, 12537, Note_on_c, 0, 59, 60
2, 12540, Note_on_c, 0, 62, 0
2, 12600, Note_on_c, 0, 59, 0
2, 12637, Note_on_c, 0, 60, 66
2, 12642, Note_on_c, 0, 57, 57
2, 12673, Note_on_c, 0, 60, 0
2, 12700, Note_on_c, 0, 57, 0
2, 12808, Note_on_c, 0, 64, 50
2, 12879, Note_on_c, 0, 64, 0
2, 12882, Note_on_c, 0, 76, 71
2, 12894, Note_on_c, 0, 69, 58
2, 12926, Note_on_c, 0, 76, 0
2, 12955, Note_on_c, 0, 69, 0
2, 12984, Note_on_c, 0, 64, 49
2, 13030, Note_on_c, 0, 64, 0
2, 13058, Note_on_c, 0, 60, 61
2, 13101, Note_on_c, 0, 60, 0
2, 13129, Note_on_c, 0, 72, 70
2, 13154, Note_on_c, 0, 64, 63
2, 13167, Note_on_c, 0, 72, 0
2, 13200, Note_on_c, 0, 64, 0
2, 13222, Note_on_c, 0, 60, 67
2, 13283, Note_on_c, 0, 60, 0
2, 13301, Note_on_c, 0, 57, 56
2, 13342, Note_on_c, 0, 57, 0
2, 13379, Note_on_c, 0, 60, 64
2, 13395, Note_on_c, 0, 69, 62
2, 13423, Note_on_c, 0, 60, 0
2, 13425, Note_on_c, 0, 69, 0
2, 13457, Note_on_c, 0, 57, 66
2, 13519, Note_on_c, 0, 57, 0
2, 13538, Note_on_c, 0, 52, 55
2, 13594, Note_on_c, 0, 52, 0
2, 13609, Note_on_c, 0, 48, 62
2, 13631, Note_on_c, 0, 64, 56
2, 13651, Note_on_c, 0, 64, 0
2, 13665, Note_on_c, 0, 48, 0
2, 13715, Note_on_c, 0, 52, 51
2, 13769, Note_on_c, 0, 52, 0
2, 13781, Note_on_c, 0, 57, 57
2, 13845, Note_on_c, 0, 57, 0
2, 13880, Note_on_c, 0, 60, 59
2, 13880, Note_on_c, 0, 76, 57
2, 13923, Note_on_c, 0, 76, 0
2, 13929, Note_on_c, 0, 60, 0
2, 13964, Note_on_c, 0, 57, 61
2, 14003, Note_on_c, 0, 57, 0
2, 14036, Note_on_c, 0, 52, 58
2, 14078, Note_on_c, 0, 52, 0
2, 14112, Note_on_c, 0, 72, 66
2, 14114, Note_on_c, 0, 57, 69
2, 14142, Note_on_c, 0, 72, 0
2, 14174, Note_on_c, 0, 57, 0
2, 14190, Note_on_c, 0, 52, 68
2, 14248, Note_on_c, 0, 52, 0
2, 14258, Note_on_c, 0, 48, 59
2, 14306, Note_on_c, 0, 48, 0
2, 14347, Note_on_c, 0, 52, 73
2, 14350, Note_on_c, 0, 69, 75
2, 14373, Note_on_c, 0, 69, 0
2, 14407, Note_on_c, 0, 52, 0
2, 14427, Note_on_c, 0, 48, 69
2, 14487, Note_on_c, 0, 48, 0
2, 14510, Note_on_c, 0, 45, 57
2, 14596, Note_on_c, 0, 42, 67
2, 14598, Note_on_c, 0, 45, 0
2, 14616, Note_on_c, 0, 75, 74
2, 14632, Note_on_c, 0, 42, 0
2, 14667, Note_on_c, 0, 75, 0
2, 14695, Note_on_c, 0, 78, 76
2, 14779, Note_on_c, 0, 81, 77
2, 14793, Note_on_c, 0, 78, 0
2, 14849, Note_on_c, 0, 54, 77
2, 14867, Note_on_c, 0, 84, 85
2, 14875, Note_on_c, 0, 81, 0
2, 14912, Note_on_c, 0, 54, 0
2, 14938, Note_on_c, 0, 81, 78
2, 14970, Note_on_c, 0, 84, 0
2, 15006, Note_on_c, 0, 78, 85
2, 15010, Note_on_c, 0, 81, 0
2, 15069, Note_on_c, 0, 78, 0
2, 15096, Note_on_c, 0, 81, 91
2, 15168, Note_on_c, 0, 78, 89
2, 15199, Note_on_c, 0, 81, 0
2, 15261, Note_on_c, 0, 78, 0
2, 15267, Note_on_c, 0, 75, 74
2, 15321, Note_on_c, 0, 75, 0
2, 15353, Note_on_c, 0, 78, 87
2, 15358, Note_on_c, 0, 52, 80
2, 15394, Note_on_c, 0, 52, 0
2, 15426, Note_on_c, 0, 75, 78
2, 15459, Note_on_c, 0, 78, 0
2, 15503, Note_on_c, 0, 72, 77
2, 15528, Note_on_c, 0, 75, 0
2, 15597, Note_on_c, 0, 72, 0
2, 15605, Note_on_c, 0, 69, 80
2, 15628, Note_on_c, 0, 51, 73
2, 15657, Note_on_c, 0, 51, 0
2, 15682, Note_on_c, 0, 72, 72
2, 15688, Note_on_c, 0, 69, 0
2, 15770, Note_on_c, 0, 75, 69
2, 15789, Note_on_c, 0, 72, 0
2, 15857, Note_on_c, 0, 78, 77
2, 15860, Note_on_c, 0, 75, 0
2, 15881, Note_on_c, 0, 39, 60
2, 15914, Note_on_c, 0, 39, 0
2, 15930, Note_on_c, 0, 75, 70
2, 15961, Note_on_c, 0, 78, 0
2, 16030, Note_on_c, 0, 75, 0
2, 16031, Note_on_c, 0, 72, 69
2, 16108, Note_on_c, 0, 72, 0
2, 16108, Note_on_c, 0, 75, 74
2, 16193, Note_on_c, 0, 72, 66
2, 16199, Note_on_c, 0, 75, 0
2, 16264, Note_on_c, 0, 72, 0
2, 16279, Note_on_c, 0, 69, 64
2, 16329, Note_on_c, 0, 69, 0
2, 16368, Note_on_c, 0, 51, 52
2, 16377, Note_on_c, 0, 72, 68
2, 16398, Note_on_c, 0, 51, 0
2, 16456, Note_on_c, 0, 72, 0
2, 16464, Note_on_c, 0, 69, 60
2, 16528, Note_on_c, 0, 69, 0
2, 16533, Note_on_c, 0, 66, 65
2, 16615, Note_on_c, 0, 66, 0
2, 16621, Note_on_c, 0, 52, 54
2, 16624, Note_on_c, 0, 67, 69
2, 16655, Note_on_c, 0, 67, 0
2, 16658, Note_on_c, 0, 52, 0
2, 16718, Note_on_c, 0, 63, 57
2, 16764, Note_on_c, 0, 63, 0
2, 16803, Note_on_c, 0, 64, 46
2, 16833, Note_on_c, 0, 64, 0
2, 16877, Note_on_c, 0, 54, 54
2, 16890, Note_on_c, 0, 69, 67
2, 16918, Note_on_c, 0, 69, 0
2, 16927, Note_on_c, 0, 54, 0
2, 16960, Note_on_c, 0, 63, 48
2, 17025, Note_on_c, 0, 63, 0
2, 17031, Note_on_c, 0, 64, 47
2, 17070, Note_on_c, 0, 64, 0
2, 17133, Note_on_c, 0, 55, 55
2, 17137, Note_on_c, 0, 71, 63
2, 17167, Note_on_c, 0, 71, 0
2, 17202, Note_on_c, 0, 55, 0
2, 17215, Note_on_c, 0, 63, 53
2, 17295, Note_on_c, 0, 63, 0
2, 17299, Note_on_c, 0, 64, 43
2, 17340, Note_on_c, 0, 64, 0
2, 17376, Note_on_c, 0, 72, 70
2, 17384, Note_on_c, 0, 57, 43
2, 17422, Note_on_c, 0, 72, 0
2, 17447, Note_on_c, 0, 57, 0
2, 17453, Note_on_c, 0, 63, 48
2, 17545, Note_on_c, 0, 64, 38
2, 17546, Note_on_c, 0, 63, 0
2, 17578, Note_on_c, 0, 64, 0
2, 17621, Note_on_c, 0, 55, 53
2, 17635, Note_on_c, 0, 71, 61
2, 17672, Note_on_c, 0, 71, 0
2, 17673, Note_on_c, 0, 55, 0
2, 17699, Note_on_c, 0, 63, 57
2, 17783, Note_on_c, 0, 63, 0
2, 17792, Note_on_c, 0, 64, 41
2, 17825, Note_on_c, 0, 64, 0
2, 17863, Note_on_c, 0, 54, 56
2, 17869, Note_on_c, 0, 69, 67
2, 17907, Note_on_c, 0, 69, 0
2, 17933, Note_on_c, 0, 54, 0
2, 17950, Note_on_c, 0, 63, 49
2, 17988, Note_on_c, 0, 63, 0
2, 18019, Note_on_c, 0, 64, 53
2, 18054, Note_on_c, 0, 64, 0
2, 18110, Note_on_c, 0, 52, 63
2, 18122, Note_on_c, 0, 67, 69
2, 18146, Note_on_c, 0, 52, 0
2, 18152, Note_on_c, 0, 67, 0
2, 18207, Note_on_c, 0, 63, 51
2, 18266, Note_on_c, 0, 63, 0
2, 18266, Note_on_c, 0, 64, 53
2, 18306, Note_on_c, 0, 64, 0
2, 18350, Note_on_c, 0, 55, 55
2, 18368, Note_on_c, 0, 71, 60
2, 18400, Note_on_c, 0, 71, 0
2, 18414, Note_on_c, 0, 63, 42
2, 18425, Note_on_c, 0, 55, 0
2, 18459, Note_on_c, 0, 63, 0
2, 18498, Note_on_c, 0, 64, 39
2, 18522, Note_on_c, 0, 64, 0
2, 18610, Note_on_c, 0, 49, 55
2, 18626, Note_on_c, 0, 69, 57
2, 18666, Note_on_c, 0, 49, 0
2, 18697, Note_on_c, 0, 69, 0
2, 18715, Note_on_c, 0, 68, 53
2, 18786, Note_on_c, 0, 68, 0
2, 18796, Note_on_c, 0, 69, 56
2, 18867, Note_on_c, 0, 69, 0
2, 18877, Note_on_c, 0, 71, 59
2, 18880, Note_on_c, 0, 50, 39
2, 18939, Note_on_c, 0, 71, 0
2, 18942, Note_on_c, 0, 50, 0
2, 18956, Note_on_c, 0, 68, 59
2, 19018, Note_on_c, 0, 68, 0
2, 19033, Note_on_c, 0, 69, 62
2, 19118, Note_on_c, 0, 52, 59
2, 19122, Note_on_c, 0, 73, 71
2, 19142, Note_on_c, 0, 69, 0
2, 19150, Note_on_c, 0, 52, 0
2, 19202, Note_on_c, 0, 68, 65
2, 19214, Note_on_c, 0, 73, 0
2, 19272, Note_on_c, 0, 69, 68
2, 19287, Note_on_c, 0, 68, 0
2, 19354, Note_on_c, 0, 74, 78
2, 19355, Note_on_c, 0, 54, 60
2, 19382, Note_on_c, 0, 69, 0
2, 19388, Note_on_c, 0, 54, 0
2, 19433, Note_on_c, 0, 68, 66
2, 19467, Note_on_c, 0, 74, 0
2, 19512, Note_on_c, 0, 69, 65
2, 19528, Note_on_c, 0, 68, 0
2, 19581, Note_on_c, 0, 76, 79
2, 19588, Note_on_c, 0, 49, 68
2, 19597, Note_on_c, 0, 69, 0
2, 19627, Note_on_c, 0, 49, 0
2, 19661, Note_on_c, 0, 68, 75
2, 19672, Note_on_c, 0, 76, 0
2, 19751, Note_on_c, 0, 69, 65
2, 19758, Note_on_c, 0, 68, 0
2, 19816, Note_on_c, 0, 78, 84
2, 19818, Note_on_c, 0, 47, 74
2, 19850, Note_on_c, 0, 69, 0
2, 19874, Note_on_c, 0, 47, 0
2, 19886, Note_on_c, 0, 77, 51
2, 19896, Note_on_c, 0, 78, 0
2, 19905, Note_on_c, 0, 68, 82
2, 19914, Note_on_c, 0, 77, 0
2, 19986, Note_on_c, 0, 68, 0
2, 20002, Note_on_c, 0, 69, 67
2, 20058, Note_on_c, 0, 45, 66
2, 20070, Note_on_c, 0, 79, 86
2, 20089, Note_on_c, 0, 69, 0
2, 20106, Note_on_c, 0, 45, 0
2, 20154, Note_on_c, 0, 76, 74
2, 20184, Note_on_c, 0, 79, 0
2, 20223, Note_on_c, 0, 73, 76
2, 20244, Note_on_c, 0, 76, 0
2, 20289, Note_on_c, 0, 73, 0
2, 20290, Note_on_c, 0, 49, 64
2, 20293, Note_on_c, 0, 69, 80
2, 20326, Note_on_c, 0, 49, 0
2, 20375, Note_on_c, 0, 73, 78
2, 20385, Note_on_c, 0, 69, 0
2, 20458, Note_on_c, 0, 76, 69
2, 20499, Note_on_c, 0, 73, 0
2, 20550, Note_on_c, 0, 50, 49
2, 20550, Note_on_c, 0, 78, 77
2, 20606, Note_on_c, 0, 76, 0
2, 20655, Note_on_c, 0, 54, 50
2, 20683, Note_on_c, 0, 78, 0
2, 20724, Note_on_c, 0, 57, 63
2, 20742, Note_on_c, 0, 50, 0
2, 20745, Note_on_c, 0, 54, 0
2, 20791, Note_on_c, 0, 62, 73
2, 20794, Note_on_c, 0, 57, 0
2, 20862, Note_on_c, 0, 62, 0
2, 20871, Note_on_c, 0, 57, 72
2, 20944, Note_on_c, 0, 54, 63
2, 20947, Note_on_c, 0, 57, 0
2, 21001, Note_on_c, 0, 81, 82
2, 21015, Note_on_c, 0, 54, 0
2, 21030, Note_on_c, 0, 50, 67
2, 21068, Note_on_c, 0, 50, 0
2, 21088, Note_on_c, 0, 78, 80
2, 21125, Note_on_c, 0, 81, 0
2, 21166, Note_on_c, 0, 74, 76
2, 21185, Note_on_c, 0, 78, 0
2, 21234, Note_on_c, 0, 62, 70
2, 21236, Note_on_c, 0, 72, 82
2, 21236, Note_on_c, 0, 74, 0
2, 21265, Note_on_c, 0, 62, 0
2, 21317, Note_on_c, 0, 74, 81
2, 21326, Note_on_c, 0, 72, 0
2, 21409, Note_on_c, 0, 78, 81
2, 21440, Note_on_c, 0, 74, 0
2, 21497, Note_on_c, 0, 50, 55
2, 21506, Note_on_c, 0, 81, 87
2, 21530, Note_on_c, 0, 78, 0
2, 21592, Note_on_c, 0, 50, 0
2, 21597, Note_on_c, 0, 55, 53
2, 21677, Note_on_c, 0, 59, 61
2, 21700, Note_on_c, 0, 55, 0
2, 21726, Note_on_c, 0, 59, 0
2, 21757, Note_on_c, 0, 79, 77
2, 21768, Note_on_c, 0, 62, 61
2, 21779, Note_on_c, 0, 81, 0
2, 21806, Note_on_c, 0, 79, 0
2, 21828, Note_on_c, 0, 62, 0
2, 21831, Note_on_c, 0, 59, 68
2, 21907, Note_on_c, 0, 55, 60
2, 21911, Note_on_c, 0, 59, 0
2, 21992, Note_on_c, 0, 79, 82
2, 21996, Note_on_c, 0, 55, 0
2, 21997, Note_on_c, 0, 50, 70
2, 22027, Note_on_c, 0, 50, 0
2, 22082, Note_on_c, 0, 76, 73
2, 22109, Note_on_c, 0, 79, 0
2, 22159, Note_on_c, 0, 73, 77
2, 22174, Note_on_c, 0, 76, 0
2, 22221, Note_on_c, 0, 73, 0
2, 22232, Note_on_c, 0, 69, 79
2, 22234, Note_on_c, 0, 62, 63
2, 22266, Note_on_c, 0, 62, 0
2, 22310, Note_on_c, 0, 73, 79
2, 22322, Note_on_c, 0, 69, 0
2, 22391, Note_on_c, 0, 76, 80
2, 22409, Note_on_c, 0, 73, 0
2, 22482, Note_on_c, 0, 50, 52
2, 22486, Note_on_c, 0, 79, 82
2, 22489, Note_on_c, 0, 76, 0
2, 22548, Note_on_c, 0, 50, 0
2, 22568, Note_on_c, 0, 57, 49
2, 22653, Note_on_c, 0, 61, 56
2, 22676, Note_on_c, 0, 57, 0
2, 22698, Note_on_c, 0, 61, 0
2, 22742, Note_on_c, 0, 78, 79
2, 22747, Note_on_c, 0, 62, 54
2, 22752, Note_on_c, 0, 79, 0
2, 22792, Note_on_c, 0, 78, 0
2, 22807, Note_on_c, 0, 57, 59
2, 22816, Note_on_c, 0, 62, 0
2, 22885, Note_on_c, 0, 54, 53
2, 22925, Note_on_c, 0, 57, 0
2, 22989, Note_on_c, 0, 54, 0
2, 22992, Note_on_c, 0, 50, 61
2, 22998, Note_on_c, 0, 78, 77
2, 23024, Note_on_c, 0, 50, 0
2, 23082, Note_on_c, 0, 74, 63
2, 23090, Note_on_c, 0, 78, 0
2, 23161, Note_on_c, 0, 71, 61
2, 23170, Note_on_c, 0, 74, 0
2, 23220, Note_on_c, 0, 71, 0
2, 23238, Note_on_c, 0, 67, 67
2, 23256, Note_on_c, 0, 62, 37
2, 23290, Note_on_c, 0, 62, 0
2, 23306, Note_on_c, 0, 67, 0
2, 23313, Note_on_c, 0, 71, 60
2, 23402, Note_on_c, 0, 74, 54
2, 23423, Note_on_c, 0, 71, 0
2, 23487, Note_on_c, 0, 50, 38
2, 23494, Note_on_c, 0, 74, 0
2, 23494, Note_on_c, 0, 78, 72
2, 23535, Note_on_c, 0, 50, 0
2, 23559, Note_on_c, 0, 52, 48
2, 23628, Note_on_c, 0, 52, 0
2, 23637, Note_on_c, 0, 55, 45
2, 23701, Note_on_c, 0, 55, 0
2, 23736, Note_on_c, 0, 59, 56
2, 23747, Note_on_c, 0, 76, 63
2, 23760, Note_on_c, 0, 78, 0
2, 23790, Note_on_c, 0, 76, 0
2, 23818, Note_on_c, 0, 59, 0
2, 23822, Note_on_c, 0, 55, 54
2, 23890, Note_on_c, 0, 52, 51
2, 23924, Note_on_c, 0, 55, 0
2, 23992, Note_on_c, 0, 52, 0
2, 23995, Note_on_c, 0, 50, 59
2, 23996, Note_on_c, 0, 76, 67
2, 24029, Note_on_c, 0, 50, 0
2, 24076, Note_on_c, 0, 76, 0
2, 24078, Note_on_c, 0, 73, 63
2, 24148, Note_on_c, 0, 69, 62
2, 24152, Note_on_c, 0, 73, 0
2, 24204, Note_on_c, 0, 69, 0
2, 24231, Note_on_c, 0, 67, 64
2, 24232, Note_on_c, 0, 62, 51
2, 24255, Note_on_c, 0, 62, 0
2, 24282, Note_on_c, 0, 67, 0
2, 24311, Note_on_c, 0, 69, 59
2, 24390, Note_on_c, 0, 69, 0
2, 24391, Note_on_c, 0, 73, 57
2, 24479, Note_on_c, 0, 50, 41
2, 24482, Note_on_c, 0, 73, 0
2, 24508, Note_on_c, 0, 76, 59
2, 24590, Note_on_c, 0, 54, 42
2, 24630, Note_on_c, 0, 50, 0
2, 24674, Note_on_c, 0, 57, 48
2, 24686, Note_on_c, 0, 54, 0
2, 24747, Note_on_c, 0, 57, 0
2, 24755, Note_on_c, 0, 74, 61
2, 24762, Note_on_c, 0, 76, 0
2, 24767, Note_on_c, 0, 62, 54
2, 24823, Note_on_c, 0, 74, 0
2, 24824, Note_on_c, 0, 62, 0
2, 24858, Note_on_c, 0, 57, 56
2, 24902, Note_on_c, 0, 57, 0
2, 24916, Note_on_c, 0, 54, 51
2, 24968, Note_on_c, 0, 54, 0
2, 24993, Note_on_c, 0, 57, 64
2, 25068, Note_on_c, 0, 57, 0
2, 25072, Note_on_c, 0, 54, 69
2, 25143, Note_on_c, 0, 54, 0
2, 25146, Note_on_c, 0, 50, 59
2, 25231, Note_on_c, 0, 50, 0
2, 25241, Note_on_c, 0, 54, 68
2, 25252, Note_on_c, 0, 74, 65
2, 25292, Note_on_c, 0, 74, 0
2, 25307, Note_on_c, 0, 54, 0
2, 25316, Note_on_c, 0, 50, 60
2, 25417, Note_on_c, 0, 48, 55
2, 25421, Note_on_c, 0, 50, 0
2, 25487, Note_on_c, 0, 48, 0
2, 25488, Note_on_c, 0, 47, 63
2, 25538, Note_on_c, 0, 74, 58
2, 25573, Note_on_c, 0, 47, 0
2, 25576, Note_on_c, 0, 50, 52
2, 25626, Note_on_c, 0, 72, 64
2, 25641, Note_on_c, 0, 74, 0
2, 25658, Note_on_c, 0, 54, 57
2, 25664, Note_on_c, 0, 50, 0
2, 25680, Note_on_c, 0, 72, 0
2, 25691, Note_on_c, 0, 71, 60
2, 25712, Note_on_c, 0, 71, 0
2, 25719, Note_on_c, 0, 54, 0
2, 25755, Note_on_c, 0, 55, 61
2, 25778, Note_on_c, 0, 71, 78
2, 25817, Note_on_c, 0, 55, 0
2, 25835, Note_on_c, 0, 50, 63
2, 25842, Note_on_c, 0, 69, 72
2, 25855, Note_on_c, 0, 71, 0
2, 25909, Note_on_c, 0, 69, 0
2, 25916, Note_on_c, 0, 50, 0
2, 25916, Note_on_c, 0, 67, 77
2, 25925, Note_on_c, 0, 47, 60
2, 25950, Note_on_c, 0, 67, 0
2, 25981, Note_on_c, 0, 47, 0
2, 26011, Note_on_c, 0, 67, 73
2, 26014, Note_on_c, 0, 50, 71
2, 26080, Note_on_c, 0, 50, 0
2, 26083, Note_on_c, 0, 67, 0
2, 26092, Note_on_c, 0, 47, 70
2, 26097, Note_on_c, 0, 71, 72
2, 26165, Note_on_c, 0, 47, 0
2, 26171, Note_on_c, 0, 43, 62
2, 26176, Note_on_c, 0, 74, 74
2, 26195, Note_on_c, 0, 71, 0
2, 26237, Note_on_c, 0, 43, 0
2, 26257, Note_on_c, 0, 47, 74
2, 26260, Note_on_c, 0, 74, 0
2, 26270, Note_on_c, 0, 77, 77
2, 26327, Note_on_c, 0, 47, 0
2, 26340, Note_on_c, 0, 43, 68
2, 26343, Note_on_c, 0, 76, 71
2, 26353, Note_on_c, 0, 77, 0
2, 26420, Note_on_c, 0, 43, 0
2, 26426, Note_on_c, 0, 41, 64
2, 26427, Note_on_c, 0, 74, 67
2, 26433, Note_on_c, 0, 76, 0
2, 26454, Note_on_c, 0, 74, 0
2, 26489, Note_on_c, 0, 41, 0
2, 26496, Note_on_c, 0, 40, 65
2, 26513, Note_on_c, 0, 74, 70
2, 26562, Note_on_c, 0, 40, 0
2, 26571, Note_on_c, 0, 43, 58
2, 26591, Note_on_c, 0, 76, 68
2, 26604, Note_on_c, 0, 74, 0
2, 26652, Note_on_c, 0, 43, 0
2, 26660, Note_on_c, 0, 47, 61
2, 26660, Note_on_c, 0, 76, 0
2, 26667, Note_on_c, 0, 77, 69
2, 26710, Note_on_c, 0, 47, 0
2, 26755, Note_on_c, 0, 48, 64
2, 26760, Note_on_c, 0, 76, 68
2, 26770, Note_on_c, 0, 77, 0
2, 26794, Note_on_c, 0, 48, 0
2, 26851, Note_on_c, 0, 52, 65
2, 26876, Note_on_c, 0, 76, 0
2, 26931, Note_on_c, 0, 55, 70
2, 26934, Note_on_c, 0, 52, 0
2, 26985, Note_on_c, 0, 55, 0
2, 27010, Note_on_c, 0, 60, 76
2, 27075, Note_on_c, 0, 60, 0
2, 27094, Note_on_c, 0, 55, 72
2, 27162, Note_on_c, 0, 55, 0
2, 27165, Note_on_c, 0, 52, 62
2, 27228, Note_on_c, 0, 52, 0
2, 27255, Note_on_c, 0, 55, 72
2, 27267, Note_on_c, 0, 76, 73
2, 27307, Note_on_c, 0, 55, 0
2, 27310, Note_on_c, 0, 76, 0
2, 27317, Note_on_c, 0, 52, 63
2, 27411, Note_on_c, 0, 50, 54
2, 27433, Note_on_c, 0, 52, 0
2, 27515, Note_on_c, 0, 50, 0
2, 27517, Note_on_c, 0, 49, 63
2, 27545, Note_on_c, 0, 76, 68
2, 27593, Note_on_c, 0, 49, 0
2, 27604, Note_on_c, 0, 52, 62
2, 27626, Note_on_c, 0, 74, 69
2, 27638, Note_on_c, 0, 76, 0
2, 27687, Note_on_c, 0, 55, 61
2, 27688, Note_on_c, 0, 74, 0
2, 27689, Note_on_c, 0, 52, 0
2, 27693, Note_on_c, 0, 73, 74
2, 27720, Note_on_c, 0, 73, 0
2, 27732, Note_on_c, 0, 55, 0
2, 27765, Note_on_c, 0, 57, 70
2, 27775, Note_on_c, 0, 73, 78
2, 27833, Note_on_c, 0, 57, 0
2, 27836, Note_on_c, 0, 52, 69
2, 27852, Note_on_c, 0, 71, 73
2, 27869, Note_on_c, 0, 73, 0
2, 27900, Note_on_c, 0, 52, 0
2, 27907, Note_on_c, 0, 49, 65
2, 27920, Note_on_c, 0, 71, 0
2, 27928, Note_on_c, 0, 69, 82
2, 27953, Note_on_c, 0, 69, 0
2, 27974, Note_on_c, 0, 49, 0
2, 28000, Note_on_c, 0, 52, 75
2, 28003, Note_on_c, 0, 69, 82
2, 28060, Note_on_c, 0, 52, 0
2, 28069, Note_on_c, 0, 49, 72
2, 28090, Note_on_c, 0, 69, 0
2, 28093, Note_on_c, 0, 73, 77
2, 28136, Note_on_c, 0, 45, 64
2, 28136, Note_on_c, 0, 49, 0
2, 28168, Note_on_c, 0, 76, 71
2, 28172, Note_on_c, 0, 73, 0
2, 28227, Note_on_c, 0, 45, 0
2, 28234, Note_on_c, 0, 49, 75
2, 28245, Note_on_c, 0, 76, 0
2, 28247, Note_on_c, 0, 79, 81
2, 28304, Note_on_c, 0, 45, 61
2, 28310, Note_on_c, 0, 49, 0
2, 28343, Note_on_c, 0, 78, 80
2, 28353, Note_on_c, 0, 79, 0
2, 28411, Note_on_c, 0, 43, 63
2, 28412, Note_on_c, 0, 45, 0
2, 28423, Note_on_c, 0, 76, 62
2, 28429, Note_on_c, 0, 78, 0
2, 28449, Note_on_c, 0, 77, 27
2, 28450, Note_on_c, 0, 76, 0
2, 28474, Note_on_c, 0, 77, 0
2, 28489, Note_on_c, 0, 42, 69
2, 28496, Note_on_c, 0, 76, 83
2, 28497, Note_on_c, 0, 43, 0
2, 28562, Note_on_c, 0, 45, 55
2, 28579, Note_on_c, 0, 78, 80
2, 28589, Note_on_c, 0, 76, 0
2, 28595, Note_on_c, 0, 42, 0
2, 28640, Note_on_c, 0, 49, 69
2, 28652, Note_on_c, 0, 45, 0
2, 28655, Note_on_c, 0, 79, 76
2, 28662, Note_on_c, 0, 78, 0
2, 28708, Note_on_c, 0, 49, 0
2, 28738, Note_on_c, 0, 78, 85
2, 28739, Note_on_c, 0, 50, 76
2, 28763, Note_on_c, 0, 79, 0
2, 28787, Note_on_c, 0, 50, 0
2, 28811, Note_on_c, 0, 78, 0
2, 28821, Note_on_c, 0, 54, 67
2, 28902, Note_on_c, 0, 57, 77
2, 28917, Note_on_c, 0, 54, 0
2, 28970, Note_on_c, 0, 57, 0
2, 28987, Note_on_c, 0, 62, 77
2, 29058, Note_on_c, 0, 62, 0
2, 29075, Note_on_c, 0, 57, 73
2, 29135, Note_on_c, 0, 54, 67
2, 29135, Note_on_c, 0, 57, 0
2, 29204, Note_on_c, 0, 54, 0
2, 29229, Note_on_c, 0, 57, 74
2, 29234, Note_on_c, 0, 81, 84
2, 29286, Note_on_c, 0, 81, 0
2, 29294, Note_on_c, 0, 57, 0
2, 29301, Note_on_c, 0, 54, 75
2, 29371, Note_on_c, 0, 50, 66
2, 29384, Note_on_c, 0, 54, 0
2, 29472, Note_on_c, 0, 50, 0
2, 29479, Note_on_c, 0, 54, 75
2, 29484, Note_on_c, 0, 81, 80
2, 29552, Note_on_c, 0, 54, 0
2, 29559, Note_on_c, 0, 50, 58
2, 29564, Note_on_c, 0, 79, 74
2, 29583, Note_on_c, 0, 81, 0
2, 29630, Note_on_c, 0, 79, 0
2, 29633, Note_on_c, 0, 78, 81
2, 29640, Note_on_c, 0, 50, 0
2, 29645, Note_on_c, 0, 45, 61
2, 29654, Note_on_c, 0, 78, 0
2, 29692, Note_on_c, 0, 45, 0
2, 29711, Note_on_c, 0, 78, 77
2, 29717, Note_on_c, 0, 50, 75
2, 29782, Note_on_c, 0, 76, 79
2, 29796, Note_on_c, 0, 50, 0
2, 29799, Note_on_c, 0, 45, 78
2, 29808, Note_on_c, 0, 78, 0
2, 29876, Note_on_c, 0, 74, 85
2, 29876, Note_on_c, 0, 76, 0
2, 29884, Note_on_c, 0, 42, 68
2, 29902, Note_on_c, 0, 45, 0
2, 29915, Note_on_c, 0, 74, 0
2, 29955, Note_on_c, 0, 74, 72
2, 29961, Note_on_c, 0, 38, 78
2, 29975, Note_on_c, 0, 42, 0
2, 29996, Note_on_c, 0, 38, 0
2, 30043, Note_on_c, 0, 78, 89
2, 30056, Note_on_c, 0, 74, 0
2, 30120, Note_on_c, 0, 81, 76
2, 30128, Note_on_c, 0, 78, 0
2, 30194, Note_on_c, 0, 50, 85
2, 30205, Note_on_c, 0, 84, 84
2, 30209, Note_on_c, 0, 81, 0
2, 30231, Note_on_c, 0, 50, 0
2, 30289, Note_on_c, 0, 83, 82
2, 30313, Note_on_c, 0, 84, 0
2, 30364, Note_on_c, 0, 81, 86
2, 30377, Note_on_c, 0, 83, 0
2, 30404, Note_on_c, 0, 81, 0
2, 30464, Note_on_c, 0, 43, 71
2, 30468, Note_on_c, 0, 81, 89
2, 30551, Note_on_c, 0, 83, 83
2, 30589, Note_on_c, 0, 81, 0
2, 30638, Note_on_c, 0, 84, 83
2, 30645, Note_on_c, 0, 83, 0
2, 30723, Note_on_c, 0, 83, 88
2, 30748, Note_on_c, 0, 84, 0
2, 30812, Note_on_c, 0, 47, 67
2, 30842, Note_on_c, 0, 43, 0
2, 30890, Note_on_c, 0, 50, 62
2, 30903, Note_on_c, 0, 47, 0
2, 30943, Note_on_c, 0, 50, 0
2, 30958, Note_on_c, 0, 55, 70
2, 31035, Note_on_c, 0, 83, 0
2, 31040, Note_on_c, 0, 55, 0
2, 31041, Note_on_c, 0, 57, 76
2, 31045, Note_on_c, 0, 81, 73
2, 31098, Note_on_c, 0, 57, 0
2, 31114, Note_on_c, 0, 81, 0
2, 31116, Note_on_c, 0, 59, 74
2, 31117, Note_on_c, 0, 79, 85
2, 31144, Note_on_c, 0, 59, 0
2, 31167, Note_on_c, 0, 79, 0
2, 31199, Note_on_c, 0, 77, 86
2, 31201, Note_on_c, 0, 59, 64
2, 31268, Note_on_c, 0, 76, 77
2, 31270, Note_on_c, 0, 60, 77
2, 31286, Note_on_c, 0, 77, 0
2, 31288, Note_on_c, 0, 59, 0
2, 31356, Note_on_c, 0, 74, 81
2, 31361, Note_on_c, 0, 62, 74
2, 31364, Note_on_c, 0, 60, 0
2, 31367, Note_on_c, 0, 76, 0
2, 31426, Note_on_c, 0, 62, 0
2, 31428, Note_on_c, 0, 74, 0
2, 31431, Note_on_c, 0, 64, 73
2, 31444, Note_on_c, 0, 72, 84
2, 31483, Note_on_c, 0, 64, 0
2, 31529, Note_on_c, 0, 72, 0
2, 31534, Note_on_c, 0, 76, 77
2, 31603, Note_on_c, 0, 79, 75
2, 31606, Note_on_c, 0, 76, 0
2, 31685, Note_on_c, 0, 81, 81
2, 31686, Note_on_c, 0, 79, 0
2, 31691, Note_on_c, 0, 60, 67
2, 31758, Note_on_c, 0, 57, 63
2, 31762, Note_on_c, 0, 60, 0
2, 31767, Note_on_c, 0, 78, 83
2, 31796, Note_on_c, 0, 81, 0
2, 31850, Note_on_c, 0, 74, 74
2, 31853, Note_on_c, 0, 54, 53
2, 31861, Note_on_c, 0, 78, 0
2, 31915, Note_on_c, 0, 62, 72
2, 31920, Note_on_c, 0, 57, 0
2, 31936, Note_on_c, 0, 71, 81
2, 31936, Note_on_c, 0, 74, 0
2, 31949, Note_on_c, 0, 54, 0
2, 31964, Note_on_c, 0, 62, 0
2, 32024, Note_on_c, 0, 74, 78
2, 32028, Note_on_c, 0, 71, 0
2, 32102, Note_on_c, 0, 78, 83
2, 32103, Note_on_c, 0, 74, 0
2, 32191, Note_on_c, 0, 79, 74
2, 32192, Note_on_c, 0, 59, 64
2, 32196, Note_on_c, 0, 78, 0
2, 32251, Note_on_c, 0, 55, 68
2, 32258, Note_on_c, 0, 59, 0
2, 32269, Note_on_c, 0, 76, 82
2, 32276, Note_on_c, 0, 79, 0
2, 32343, Note_on_c, 0, 52, 62
2, 32347, Note_on_c, 0, 72, 78
2, 32367, Note_on_c, 0, 76, 0
2, 32390, Note_on_c, 0, 55, 0
2, 32415, Note_on_c, 0, 60, 73
2, 32425, Note_on_c, 0, 72, 0
2, 32427, Note_on_c, 0, 69, 79
2, 32456, Note_on_c, 0, 52, 0
2, 32465, Note_on_c, 0, 60, 0
2, 32506, Note_on_c, 0, 72, 78
2, 32517, Note_on_c, 0, 69, 0
2, 32590, Note_on_c, 0, 72, 0
2, 32590, Note_on_c, 0, 76, 67
2, 32673, Note_on_c, 0, 78, 79
2, 32678, Note_on_c, 0, 57, 69
2, 32751, Note_on_c, 0, 78, 0
2, 32752, Note_on_c, 0, 76, 0
2, 32753, Note_on_c, 0, 54, 66
2, 32754, Note_on_c, 0, 57, 0
2, 32759, Note_on_c, 0, 74, 64
2, 32838, Note_on_c, 0, 50, 56
2, 32841, Note_on_c, 0, 71, 75
2, 32856, Note_on_c, 0, 74, 0
2, 32909, Note_on_c, 0, 59, 71
2, 32919, Note_on_c, 0, 54, 0
2, 32925, Note_on_c, 0, 71, 0
2, 32928, Note_on_c, 0, 67, 76
2, 32957, Note_on_c, 0, 50, 0
2, 32964, Note_on_c, 0, 59, 0
2, 32988, Note_on_c, 0, 67, 0
2, 33010, Note_on_c, 0, 71, 74
2, 33080, Note_on_c, 0, 71, 0
2, 33086, Note_on_c, 0, 74, 72
2, 33163, Note_on_c, 0, 55, 60
2, 33165, Note_on_c, 0, 74, 0
2, 33168, Note_on_c, 0, 76, 71
2, 33230, Note_on_c, 0, 55, 0
2, 33241, Note_on_c, 0, 72, 75
2, 33245, Note_on_c, 0, 76, 0
2, 33250, Note_on_c, 0, 52, 61
2, 33316, Note_on_c, 0, 72, 0
2, 33318, Note_on_c, 0, 69, 68
2, 33327, Note_on_c, 0, 48, 50
2, 33362, Note_on_c, 0, 52, 0
2, 33384, Note_on_c, 0, 57, 67
2, 33406, Note_on_c, 0, 66, 76
2, 33408, Note_on_c, 0, 69, 0
2, 33443, Note_on_c, 0, 48, 0
2, 33443, Note_on_c, 0, 57, 0
2, 33474, Note_on_c, 0, 66, 0
2, 33486, Note_on_c, 0, 69, 62
2, 33564, Note_on_c, 0, 72, 64
2, 33571, Note_on_c, 0, 69, 0
2, 33632, Note_on_c, 0, 54, 58
2, 33648, Note_on_c, 0, 72, 0
2, 33649, Note_on_c, 0, 74, 73
2, 33698, Note_on_c, 0, 54, 0
2, 33717, Note_on_c, 0, 50, 60
2, 33731, Note_on_c, 0, 74, 0
2, 33733, Note_on_c, 0, 71, 73
2, 33798, Note_on_c, 0, 47, 51
2, 33810, Note_on_c, 0, 67, 72
2, 33821, Note_on_c, 0, 50, 0
2, 33827, Note_on_c, 0, 71, 0
2, 33875, Note_on_c, 0, 55, 65
2, 33879, Note_on_c, 0, 67, 0
2, 33886, Note_on_c, 0, 64, 74
2, 33911, Note_on_c, 0, 55, 0
2, 33917, Note_on_c, 0, 47, 0
2, 33955, Note_on_c, 0, 64, 0
2, 33968, Note_on_c, 0, 67, 69
2, 34034, Note_on_c, 0, 67, 0
2, 34036, Note_on_c, 0, 71, 67
2, 34119, Note_on_c, 0, 52, 66
2, 34119, Note_on_c, 0, 71, 0
2, 34125, Note_on_c, 0, 72, 72
2, 34179, Note_on_c, 0, 52, 0
2, 34199, Note_on_c, 0, 48, 48
2, 34200, Note_on_c, 0, 72, 0
2, 34205, Note_on_c, 0, 69, 70
2, 34275, Note_on_c, 0, 45, 50
2, 34277, Note_on_c, 0, 66, 69
2, 34283, Note_on_c, 0, 69, 0
2, 34287, Note_on_c, 0, 48, 0
2, 34337, Note_on_c, 0, 66, 0
2, 34339, Note_on_c, 0, 45, 0
2, 34356, Note_on_c, 0, 54, 67
2, 34359, Note_on_c, 0, 62, 71
2, 34393, Note_on_c, 0, 54, 0
2, 34441, Note_on_c, 0, 62, 0
2, 34450, Note_on_c, 0, 66, 71
2, 34519, Note_on_c, 0, 66, 0
2, 34524, Note_on_c, 0, 69, 68
2, 34597, Note_on_c, 0, 69, 0
2, 34611, Note_on_c, 0, 50, 50
2, 34613, Note_on_c, 0, 71, 64
2, 34673, Note_on_c, 0, 50, 0
2, 34680, Note_on_c, 0, 71, 0
2, 34684, Note_on_c, 0, 67, 76
2, 34685, Note_on_c, 0, 47, 64
2, 34768, Note_on_c, 0, 64, 71
2, 34772, Note_on_c, 0, 67, 0
2, 34778, Note_on_c, 0, 47, 0
2, 34780, Note_on_c, 0, 43, 51
2, 34839, Note_on_c, 0, 64, 0
2, 34844, Note_on_c, 0, 52, 73
2, 34845, Note_on_c, 0, 60, 78
2, 34859, Note_on_c, 0, 43, 0
2, 34912, Note_on_c, 0, 52, 0
2, 34917, Note_on_c, 0, 60, 0
2, 34918, Note_on_c, 0, 64, 76
2, 34924, Note_on_c, 0, 48, 63
2, 34988, Note_on_c, 0, 67, 79
2, 35003, Note_on_c, 0, 45, 67
2, 35003, Note_on_c, 0, 64, 0
2, 35013, Note_on_c, 0, 48, 0
2, 35072, Note_on_c, 0, 67, 0
2, 35072, Note_on_c, 0, 69, 79
2, 35084, Note_on_c, 0, 54, 76
2, 35141, Note_on_c, 0, 45, 0
2, 35144, Note_on_c, 0, 50, 66
2, 35156, Note_on_c, 0, 66, 86
2, 35164, Note_on_c, 0, 54, 0
2, 35168, Note_on_c, 0, 69, 0
2, 35242, Note_on_c, 0, 47, 66
2, 35249, Note_on_c, 0, 62, 77
2, 35272, Note_on_c, 0, 50, 0
2, 35276, Note_on_c, 0, 66, 0
2, 35320, Note_on_c, 0, 59, 82
2, 35327, Note_on_c, 0, 62, 0
2, 35330, Note_on_c, 0, 55, 72
2, 35345, Note_on_c, 0, 47, 0
2, 35367, Note_on_c, 0, 55, 0
2, 35404, Note_on_c, 0, 62, 83
2, 35407, Note_on_c, 0, 59, 0
2, 35478, Note_on_c, 0, 66, 80
2, 35492, Note_on_c, 0, 62, 0
2, 35562, Note_on_c, 0, 67, 77
2, 35566, Note_on_c, 0, 52, 65
2, 35568, Note_on_c, 0, 66, 0
2, 35594, Note_on_c, 0, 52, 0
2, 35639, Note_on_c, 0, 64, 81
2, 35646, Note_on_c, 0, 67, 0
2, 35725, Note_on_c, 0, 60, 80
2, 35746, Note_on_c, 0, 64, 0
2, 35790, Note_on_c, 0, 48, 64
2, 35797, Note_on_c, 0, 57, 82
2, 35807, Note_on_c, 0, 60, 0
2, 35832, Note_on_c, 0, 48, 0
2, 35875, Note_on_c, 0, 60, 78
2, 35891, Note_on_c, 0, 57, 0
2, 35968, Note_on_c, 0, 64, 65
2, 35978, Note_on_c, 0, 60, 0
2, 36046, Note_on_c, 0, 50, 60
2, 36057, Note_on_c, 0, 66, 80
2, 36078, Note_on_c, 0, 50, 0
2, 36084, Note_on_c, 0, 64, 0
2, 36145, Note_on_c, 0, 62, 71
2, 36172, Note_on_c, 0, 66, 0
2, 36238, Note_on_c, 0, 60, 70
2, 36248, Note_on_c, 0, 62, 0
2, 36384, Note_on_c, 0, 62, 69
2, 36391, Note_on_c, 0, 60, 0
2, 36392, Note_on_c, 0, 59, 64
2, 36398, Note_on_c, 0, 43, 53
2, 36399, Note_on_c, 0, 67, 79
2, 37970, Note_on_c, 0, 59, 0
2, 37984, Note_on_c, 0, 43, 0
2, 37986, Note_on_c, 0, 67, 0
2, 38039, Note_on_c, 0, 62, 0
2, 39362, Note_on_c, 0, 67, 52
2, 39406, Note_on_c, 0, 67, 0
2, 39651, Note_on_c, 0, 69, 47
2, 39775, Note_on_c, 0, 67, 59
2, 39785, Note_on_c, 0, 69, 0
2, 39898, Note_on_c, 0, 67, 0
2, 39905, Note_on_c, 0, 66, 65
2, 40001, Note_on_c, 0, 66, 0
2, 40011, Note_on_c, 0, 67, 64
2, 40142, Note_on_c, 0, 69, 62
2, 40161, Note_on_c, 0, 67, 0
2, 40210, Note_on_c, 0, 69, 0
2, 40402, Note_on_c, 0, 71, 66
2, 40497, Note_on_c, 0, 69, 68
2, 40532, Note_on_c, 0, 71, 0
2, 40620, Note_on_c, 0, 67, 70
2, 40625, Note_on_c, 0, 69, 0
2, 40731, Note_on_c, 0, 69, 68
2, 40752, Note_on_c, 0, 67, 0
2, 40869, Note_on_c, 0, 71, 66
2, 40885, Note_on_c, 0, 69, 0
2, 40916, Note_on_c, 0, 71, 0
2, 41112, Note_on_c, 0, 69, 58
2, 41158, Note_on_c, 0, 69, 0
2, 41361, Note_on_c, 0, 67, 63
2, 41403, Note_on_c, 0, 67, 0
2, 41615, Note_on_c, 0, 62, 52
2, 41640, Note_on_c, 0, 62, 0
2, 41897, Note_on_c, 0, 72, 60
2, 42393, Note_on_c, 0, 72, 0
2, 42404, Note_on_c, 0, 71, 57
2, 42454, Note_on_c, 0, 71, 0
2, 42661, Note_on_c, 0, 69, 70
2, 42699, Note_on_c, 0, 69, 0
2, 42917, Note_on_c, 0, 67, 69
2, 42949, Note_on_c, 0, 67, 0
2, 43149, Note_on_c, 0, 66, 72
2, 43181, Note_on_c, 0, 66, 0
2, 43423, Note_on_c, 0, 76, 74
2, 43920, Note_on_c, 0, 76, 0
2, 43922, Note_on_c, 0, 74, 58
2, 43994, Note_on_c, 0, 74, 0
2, 44191, Note_on_c, 0, 76, 59
2, 44293, Note_on_c, 0, 76, 0
2, 44309, Note_on_c, 0, 74, 55
2, 44433, Note_on_c, 0, 72, 60
2, 44436, Note_on_c, 0, 74, 0
2, 44540, Note_on_c, 0, 72, 0
2, 44556, Note_on_c, 0, 71, 54
2, 44682, Note_on_c, 0, 71, 0
2, 44685, Note_on_c, 0, 69, 50
2, 44751, Note_on_c, 0, 69, 0
2, 44939, Note_on_c, 0, 72, 56
2, 45037, Note_on_c, 0, 72, 0
2, 45056, Note_on_c, 0, 71, 51
2, 45142, Note_on_c, 0, 71, 0
2, 45161, Note_on_c, 0, 69, 49
2, 45263, Note_on_c, 0, 69, 0
2, 45291, Note_on_c, 0, 67, 47
2, 45416, Note_on_c, 0, 67, 0
2, 45438, Note_on_c, 0, 66, 56
2, 45444, Note_on_c, 0, 62, 47
2, 45475, Note_on_c, 0, 66, 0
2, 45485, Note_on_c, 0, 62, 0
2, 45686, Note_on_c, 0, 64, 48
2, 45698, Note_on_c, 0, 67, 57
2, 45735, Note_on_c, 0, 67, 0
2, 45795, Note_on_c, 0, 64, 0
2, 45813, Note_on_c, 0, 62, 51
2, 45918, Note_on_c, 0, 62, 0
2, 45929, Note_on_c, 0, 61, 57
2, 45948, Note_on_c, 0, 69, 62
2, 45981, Note_on_c, 0, 69, 0
2, 46058, Note_on_c, 0, 61, 0
2, 46058, Note_on_c, 0, 62, 52
2, 46189, Note_on_c, 0, 64, 56
2, 46195, Note_on_c, 0, 62, 0
2, 46201, Note_on_c, 0, 67, 57
2, 46236, Note_on_c, 0, 64, 0
2, 46236, Note_on_c, 0, 67, 0
2, 46441, Note_on_c, 0, 69, 64
2, 46445, Note_on_c, 0, 66, 63
2, 46476, Note_on_c, 0, 69, 0
2, 46545, Note_on_c, 0, 64, 58
2, 46545, Note_on_c, 0, 66, 0
2, 46659, Note_on_c, 0, 64, 0
2, 46660, Note_on_c, 0, 62, 63
2, 46677, Note_on_c, 0, 71, 65
2, 46721, Note_on_c, 0, 71, 0
2, 46778, Note_on_c, 0, 64, 65
2, 46791, Note_on_c, 0, 62, 0
2, 46913, Note_on_c, 0, 66, 69
2, 46930, Note_on_c, 0, 64, 0
2, 46939, Note_on_c, 0, 69, 65
2, 46968, Note_on_c, 0, 69, 0
2, 46986, Note_on_c, 0, 66, 0
2, 47164, Note_on_c, 0, 64, 67
2, 47189, Note_on_c, 0, 71, 48
2, 47197, Note_on_c, 0, 64, 0
2, 47257, Note_on_c, 0, 71, 0
2, 47275, Note_on_c, 0, 73, 55
2, 47373, Note_on_c, 0, 73, 0
2, 47392, Note_on_c, 0, 74, 55
2, 47398, Note_on_c, 0, 62, 60
2, 47438, Note_on_c, 0, 62, 0
2, 47492, Note_on_c, 0, 74, 0
2, 47518, Note_on_c, 0, 71, 44
2, 47626, Note_on_c, 0, 71, 0
2, 47633, Note_on_c, 0, 57, 57
2, 47650, Note_on_c, 0, 73, 55
2, 47668, Note_on_c, 0, 57, 0
2, 47713, Note_on_c, 0, 73, 0
2, 47756, Note_on_c, 0, 71, 54
2, 47896, Note_on_c, 0, 67, 64
2, 47905, Note_on_c, 0, 73, 57
2, 47906, Note_on_c, 0, 71, 0
2, 48002, Note_on_c, 0, 73, 0
2, 48031, Note_on_c, 0, 74, 53
2, 48139, Note_on_c, 0, 74, 0
2, 48145, Note_on_c, 0, 76, 57
2, 48257, Note_on_c, 0, 76, 0
2, 48269, Note_on_c, 0, 73, 57
2, 48384, Note_on_c, 0, 66, 65
2, 48385, Note_on_c, 0, 73, 0
2, 48396, Note_on_c, 0, 74, 64
2, 48405, Note_on_c, 0, 67, 0
2, 48442, Note_on_c, 0, 66, 0
2, 48508, Note_on_c, 0, 74, 0
2, 48514, Note_on_c, 0, 73, 67
2, 48602, Note_on_c, 0, 73, 0
2, 48615, Note_on_c, 0, 64, 71
2, 48622, Note_on_c, 0, 74, 73
2, 48679, Note_on_c, 0, 64, 0
2, 48740, Note_on_c, 0, 76, 67
2, 48757, Note_on_c, 0, 74, 0
2, 48849, Note_on_c, 0, 62, 75
2, 48854, Note_on_c, 0, 78, 73
2, 48884, Note_on_c, 0, 76, 0
2, 48904, Note_on_c, 0, 62, 0
2, 48949, Note_on_c, 0, 78, 0
2, 48968, Note_on_c, 0, 74, 64
2, 49089, Note_on_c, 0, 61, 76
2, 49100, Note_on_c, 0, 76, 69
2, 49104, Note_on_c, 0, 74, 0
2, 49131, Note_on_c, 0, 61, 0
2, 49211, Note_on_c, 0, 76, 0
2, 49219, Note_on_c, 0, 74, 69
2, 49354, Note_on_c, 0, 76, 71
2, 49355, Note_on_c, 0, 71, 74
2, 49379, Note_on_c, 0, 74, 0
2, 49479, Note_on_c, 0, 78, 71
2, 49526, Note_on_c, 0, 76, 0
2, 49593, Note_on_c, 0, 79, 65
2, 49599, Note_on_c, 0, 78, 0
2, 49700, Note_on_c, 0, 79, 0
2, 49702, Note_on_c, 0, 76, 62
2, 49843, Note_on_c, 0, 78, 70
2, 49847, Note_on_c, 0, 69, 60
2, 49863, Note_on_c, 0, 71, 0
2, 49872, Note_on_c, 0, 76, 0
2, 49893, Note_on_c, 0, 69, 0
2, 49913, Note_on_c, 0, 78, 0
2, 50102, Note_on_c, 0, 71, 51
2, 50106, Note_on_c, 0, 79, 63
2, 50212, Note_on_c, 0, 71, 0
2, 50218, Note_on_c, 0, 78, 66
2, 50229, Note_on_c, 0, 69, 54
2, 50236, Note_on_c, 0, 79, 0
2, 50332, Note_on_c, 0, 76, 58
2, 50333, Note_on_c, 0, 78, 0
2, 50334, Note_on_c, 0, 69, 0
2, 50351, Note_on_c, 0, 67, 42
2, 50440, Note_on_c, 0, 76, 0
2, 50446, Note_on_c, 0, 74, 56
2, 50458, Note_on_c, 0, 66, 46
2, 50498, Note_on_c, 0, 67, 0
2, 50590, Note_on_c, 0, 79, 64
2, 50608, Note_on_c, 0, 64, 54
2, 50620, Note_on_c, 0, 74, 0
2, 50646, Note_on_c, 0, 66, 0
2, 50651, Note_on_c, 0, 64, 0
2, 50864, Note_on_c, 0, 67, 54
2, 50988, Note_on_c, 0, 66, 57
2, 51006, Note_on_c, 0, 67, 0
2, 51090, Note_on_c, 0, 66, 0
2, 51093, Note_on_c, 0, 64, 54
2, 51210, Note_on_c, 0, 64, 0
2, 51222, Note_on_c, 0, 62, 48
2, 51363, Note_on_c, 0, 61, 56
2, 51393, Note_on_c, 0, 62, 0
2, 51434, Note_on_c, 0, 61, 0
2, 51500, Note_on_c, 0, 78, 58
2, 51570, Note_on_c, 0, 79, 0
2, 51601, Note_on_c, 0, 67, 63
2, 51605, Note_on_c, 0, 76, 69
2, 51611, Note_on_c, 0, 78, 0
2, 51639, Note_on_c, 0, 67, 0
2, 51723, Note_on_c, 0, 79, 63
2, 51730, Note_on_c, 0, 76, 0
2, 51833, Note_on_c, 0, 79, 0
2, 51834, Note_on_c, 0, 66, 63
2, 51843, Note_on_c, 0, 74, 67
2, 51877, Note_on_c, 0, 66, 0
2, 51929, Note_on_c, 0, 74, 0
2, 51959, Note_on_c, 0, 79, 62
2, 52073, Note_on_c, 0, 79, 0
2, 52077, Note_on_c, 0, 64, 52
2, 52078, Note_on_c, 0, 73, 66
2, 52122, Note_on_c, 0, 64, 0
2, 52179, Note_on_c, 0, 73, 0
2, 52198, Note_on_c, 0, 79, 58
2, 52296, Note_on_c, 0, 79, 0
2, 52326, Note_on_c, 0, 71, 55
2, 52329, Note_on_c, 0, 62, 51
2, 52366, Note_on_c, 0, 62, 0
2, 52391, Note_on_c, 0, 71, 0
2, 52433, Note_on_c, 0, 79, 52
2, 52550, Note_on_c, 0, 61, 51
2, 52553, Note_on_c, 0, 69, 52
2, 52556, Note_on_c, 0, 79, 0
2, 52594, Note_on_c, 0, 61, 0
2, 52617, Note_on_c, 0, 69, 0
2, 52670, Note_on_c, 0, 79, 50
2, 52778, Note_on_c, 0, 79, 0
2, 52801, Note_on_c, 0, 78, 58
2, 52811, Note_on_c, 0, 62, 48
2, 52847, Note_on_c, 0, 78, 0
2, 52889, Note_on_c, 0, 62, 0
2, 52937, Note_on_c, 0, 64, 36
2, 53008, Note_on_c, 0, 64, 0
2, 53025, Note_on_c, 0, 66, 56
2, 53040, Note_on_c, 0, 74, 60
2, 53073, Note_on_c, 0, 74, 0
2, 53139, Note_on_c, 0, 66, 0
2, 53156, Note_on_c, 0, 62, 46
2, 53265, Note_on_c, 0, 62, 0
2, 53277, Note_on_c, 0, 76, 71
2, 53288, Note_on_c, 0, 67, 54
2, 53310, Note_on_c, 0, 76, 0
2, 53385, Note_on_c, 0, 67, 0
2, 53392, Note_on_c, 0, 62, 61
2, 53497, Note_on_c, 0, 62, 0
2, 53507, Note_on_c, 0, 69, 71
2, 53511, Note_on_c, 0, 78, 81
2, 53563, Note_on_c, 0, 78, 0
2, 53596, Note_on_c, 0, 69, 0
2, 53629, Note_on_c, 0, 62, 61
2, 53743, Note_on_c, 0, 71, 66
2, 53751, Note_on_c, 0, 79, 86
2, 53755, Note_on_c, 0, 62, 0
2, 53814, Note_on_c, 0, 79, 0
2, 53832, Note_on_c, 0, 71, 0
2, 53868, Note_on_c, 0, 62, 64
2, 53948, Note_on_c, 0, 62, 0
2, 53969, Note_on_c, 0, 72, 69
2, 53974, Note_on_c, 0, 81, 81
2, 54038, Note_on_c, 0, 72, 0
2, 54071, Note_on_c, 0, 62, 61
2, 54096, Note_on_c, 0, 62, 0
2, 54224, Note_on_c, 0, 55, 81
2, 54253, Note_on_c, 0, 71, 60
2, 54269, Note_on_c, 0, 55, 0
2, 54470, Note_on_c, 0, 57, 71
2, 54501, Note_on_c, 0, 74, 66
2, 54512, Note_on_c, 0, 81, 0
2, 54558, Note_on_c, 0, 74, 0
2, 54580, Note_on_c, 0, 55, 70
2, 54586, Note_on_c, 0, 57, 0
2, 54698, Note_on_c, 0, 54, 69
2, 54706, Note_on_c, 0, 55, 0
2, 54744, Note_on_c, 0, 79, 71
2, 54825, Note_on_c, 0, 55, 69
2, 54844, Note_on_c, 0, 54, 0
2, 54958, Note_on_c, 0, 57, 69
2, 54979, Note_on_c, 0, 72, 70
2, 54980, Note_on_c, 0, 55, 0
2, 55016, Note_on_c, 0, 71, 0
2, 55023, Note_on_c, 0, 57, 0
2, 55036, Note_on_c, 0, 79, 0
2, 55215, Note_on_c, 0, 59, 65
2, 55225, Note_on_c, 0, 78, 72
2, 55304, Note_on_c, 0, 78, 0
2, 55318, Note_on_c, 0, 57, 67
2, 55339, Note_on_c, 0, 59, 0
2, 55429, Note_on_c, 0, 57, 0
2, 55435, Note_on_c, 0, 55, 68
2, 55452, Note_on_c, 0, 76, 65
2, 55496, Note_on_c, 0, 76, 0
2, 55536, Note_on_c, 0, 57, 72
2, 55546, Note_on_c, 0, 55, 0
2, 55672, Note_on_c, 0, 59, 71
2, 55684, Note_on_c, 0, 57, 0
2, 55691, Note_on_c, 0, 74, 67
2, 55708, Note_on_c, 0, 72, 0
2, 55721, Note_on_c, 0, 59, 0
2, 55731, Note_on_c, 0, 74, 0
2, 55929, Note_on_c, 0, 57, 64
2, 55931, Note_on_c, 0, 66, 67
2, 55934, Note_on_c, 0, 72, 69
2, 55961, Note_on_c, 0, 66, 0
2, 55962, Note_on_c, 0, 57, 0
2, 55977, Note_on_c, 0, 72, 0
2, 56165, Note_on_c, 0, 55, 59
2, 56173, Note_on_c, 0, 67, 61
2, 56182, Note_on_c, 0, 71, 54
2, 56204, Note_on_c, 0, 55, 0
2, 56216, Note_on_c, 0, 71, 0
2, 56421, Note_on_c, 0, 50, 54
2, 56449, Note_on_c, 0, 69, 57
2, 56450, Note_on_c, 0, 50, 0
2, 56476, Note_on_c, 0, 67, 0
2, 56699, Note_on_c, 0, 60, 64
2, 56709, Note_on_c, 0, 69, 0
2, 56716, Note_on_c, 0, 66, 58
2, 56806, Note_on_c, 0, 66, 0
2, 56841, Note_on_c, 0, 67, 51
2, 56949, Note_on_c, 0, 67, 0
2, 56961, Note_on_c, 0, 69, 52
2, 57062, Note_on_c, 0, 69, 0
2, 57075, Note_on_c, 0, 66, 55
2, 57187, Note_on_c, 0, 59, 62
2, 57191, Note_on_c, 0, 66, 0
2, 57199, Note_on_c, 0, 67, 62
2, 57202, Note_on_c, 0, 60, 0
2, 57246, Note_on_c, 0, 59, 0
2, 57294, Note_on_c, 0, 67, 0
2, 57301, Note_on_c, 0, 66, 70
2, 57393, Note_on_c, 0, 66, 0
2, 57415, Note_on_c, 0, 67, 71
2, 57425, Note_on_c, 0, 57, 73
2, 57493, Note_on_c, 0, 57, 0
2, 57532, Note_on_c, 0, 69, 73
2, 57538, Note_on_c, 0, 67, 0
2, 57660, Note_on_c, 0, 55, 81
2, 57660, Note_on_c, 0, 74, 68
2, 57667, Note_on_c, 0, 71, 69
2, 57701, Note_on_c, 0, 69, 0
2, 57717, Note_on_c, 0, 55, 0
2, 57769, Note_on_c, 0, 71, 0
2, 57789, Note_on_c, 0, 67, 70
2, 57884, Note_on_c, 0, 54, 72
2, 57899, Note_on_c, 0, 69, 74
2, 57901, Note_on_c, 0, 67, 0
2, 57940, Note_on_c, 0, 54, 0
2, 58004, Note_on_c, 0, 69, 0
2, 58017, Note_on_c, 0, 67, 74
2, 58143, Note_on_c, 0, 64, 79
2, 58151, Note_on_c, 0, 69, 74
2, 58155, Note_on_c, 0, 67, 0
2, 58160, Note_on_c, 0, 74, 0
2, 58164, Note_on_c, 0, 72, 74
2, 58221, Note_on_c, 0, 69, 0
2, 58250, Note_on_c, 0, 72, 0
2, 58292, Note_on_c, 0, 71, 73
2, 58407, Note_on_c, 0, 71, 0
2, 58415, Note_on_c, 0, 81, 76
2, 58418, Note_on_c, 0, 72, 71
2, 58521, Note_on_c, 0, 81, 0
2, 58523, Note_on_c, 0, 72, 0
2, 58528, Note_on_c, 0, 69, 70
2, 58640, Note_on_c, 0, 71, 69
2, 58649, Note_on_c, 0, 69, 0
2, 58667, Note_on_c, 0, 62, 60
2, 58684, Note_on_c, 0, 64, 0
2, 58706, Note_on_c, 0, 62, 0
2, 58896, Note_on_c, 0, 72, 73
2, 58899, Note_on_c, 0, 79, 78
2, 58902, Note_on_c, 0, 71, 0
2, 58923, Note_on_c, 0, 64, 52
2, 59007, Note_on_c, 0, 72, 0
2, 59031, Note_on_c, 0, 64, 0
2, 59032, Note_on_c, 0, 71, 61
2, 59034, Note_on_c, 0, 62, 54
2, 59129, Note_on_c, 0, 60, 47
2, 59141, Note_on_c, 0, 71, 0
2, 59149, Note_on_c, 0, 69, 65
2, 59166, Note_on_c, 0, 62, 0
2, 59246, Note_on_c, 0, 59, 47
2, 59246, Note_on_c, 0, 69, 0
2, 59254, Note_on_c, 0, 60, 0
2, 59264, Note_on_c, 0, 67, 72
2, 59337, Note_on_c, 0, 67, 0
2, 59380, Note_on_c, 0, 57, 52
2, 59389, Note_on_c, 0, 72, 69
2, 59417, Note_on_c, 0, 59, 0
2, 59429, Note_on_c, 0, 57, 0
2, 59451, Note_on_c, 0, 79, 0
2, 59634, Note_on_c, 0, 60, 60
2, 59645, Note_on_c, 0, 81, 70
2, 59728, Note_on_c, 0, 60, 0
2, 59753, Note_on_c, 0, 79, 66
2, 59765, Note_on_c, 0, 59, 61
2, 59765, Note_on_c, 0, 81, 0
2, 59878, Note_on_c, 0, 59, 0
2, 59882, Note_on_c, 0, 57, 60
2, 59887, Note_on_c, 0, 78, 69
2, 59893, Note_on_c, 0, 79, 0
2, 59970, Note_on_c, 0, 78, 0
2, 59979, Note_on_c, 0, 76, 63
2, 60000, Note_on_c, 0, 55, 51
2, 60009, Note_on_c, 0, 57, 0
2, 60009, Note_on_c, 0, 76, 0
2, 60098, Note_on_c, 0, 54, 63
2, 60123, Note_on_c, 0, 55, 0
2, 60133, Note_on_c, 0, 74, 53
2, 60136, Note_on_c, 0, 72, 0
2, 60143, Note_on_c, 0, 76, 36
2, 60165, Note_on_c, 0, 76, 0
2, 60248, Note_on_c, 0, 71, 52
2, 60328, Note_on_c, 0, 71, 0
2, 60360, Note_on_c, 0, 69, 52
2, 60456, Note_on_c, 0, 69, 0
2, 60479, Note_on_c, 0, 72, 53
2, 60574, Note_on_c, 0, 54, 0
2, 60584, Note_on_c, 0, 72, 0
2, 60595, Note_on_c, 0, 52, 53
2, 60606, Note_on_c, 0, 67, 63
2, 60634, Note_on_c, 0, 52, 0
2, 60707, Note_on_c, 0, 67, 0
2, 60717, Note_on_c, 0, 72, 59
2, 60819, Note_on_c, 0, 72, 0
2, 60830, Note_on_c, 0, 66, 58
2, 60841, Note_on_c, 0, 50, 45
2, 60909, Note_on_c, 0, 50, 0
2, 60921, Note_on_c, 0, 66, 0
2, 60947, Note_on_c, 0, 52, 52
2, 60953, Note_on_c, 0, 72, 56
2, 61036, Note_on_c, 0, 72, 0
2, 61055, Note_on_c, 0, 50, 49
2, 61058, Note_on_c, 0, 52, 0
2, 61095, Note_on_c, 0, 64, 42
2, 61178, Note_on_c, 0, 50, 0
2, 61180, Note_on_c, 0, 64, 0
2, 61186, Note_on_c, 0, 72, 45
2, 61190, Note_on_c, 0, 48, 48
2, 61274, Note_on_c, 0, 72, 0
2, 61302, Note_on_c, 0, 47, 54
2, 61315, Note_on_c, 0, 62, 48
2, 61339, Note_on_c, 0, 48, 0
2, 61387, Note_on_c, 0, 62, 0
2, 61420, Note_on_c, 0, 72, 55
2, 61433, Note_on_c, 0, 45, 54
2, 61433, Note_on_c, 0, 47, 0
2, 61495, Note_on_c, 0, 45, 0
2, 61554, Note_on_c, 0, 72, 0
2, 61558, Note_on_c, 0, 43, 54
2, 61566, Note_on_c, 0, 71, 54
2, 61568, Note_on_c, 0, 74, 0
2, 61598, Note_on_c, 0, 71, 0
2, 61651, Note_on_c, 0, 43, 0
2, 61655, Note_on_c, 0, 45, 54
2, 61758, Note_on_c, 0, 45, 0
2, 61770, Note_on_c, 0, 47, 54
2, 61790, Note_on_c, 0, 74, 60
2, 61792, Note_on_c, 0, 65, 51
2, 61832, Note_on_c, 0, 65, 0
2, 61839, Note_on_c, 0, 74, 0
2, 61875, Note_on_c, 0, 47, 0
2, 61899, Note_on_c, 0, 43, 44
2, 61986, Note_on_c, 0, 43, 0
2, 62006, Note_on_c, 0, 48, 61
2, 62018, Note_on_c, 0, 72, 67
2, 62029, Note_on_c, 0, 64, 59
2, 62072, Note_on_c, 0, 64, 0
2, 62078, Note_on_c, 0, 72, 0
2, 62102, Note_on_c, 0, 48, 0
2, 62119, Note_on_c, 0, 43, 52
2, 62235, Note_on_c, 0, 43, 0
2, 62243, Note_on_c, 0, 50, 60
2, 62255, Note_on_c, 0, 71, 73
2, 62259, Note_on_c, 0, 62, 72
2, 62293, Note_on_c, 0, 62, 0
2, 62315, Note_on_c, 0, 71, 0
2, 62335, Note_on_c, 0, 50, 0
2, 62355, Note_on_c, 0, 43, 57
2, 62467, Note_on_c, 0, 52, 67
2, 62474, Note_on_c, 0, 43, 0
2, 62483, Note_on_c, 0, 69, 80
2, 62486, Note_on_c, 0, 60, 77
2, 62526, Note_on_c, 0, 60, 0
2, 62539, Note_on_c, 0, 52, 0
2, 62543, Note_on_c, 0, 69, 0
2, 62583, Note_on_c, 0, 43, 65
2, 62695, Note_on_c, 0, 43, 0
2, 62698, Note_on_c, 0, 53, 62
2, 62719, Note_on_c, 0, 67, 76
2, 62733, Note_on_c, 0, 59, 64
2, 62762, Note_on_c, 0, 59, 0
2, 62777, Note_on_c, 0, 67, 0
2, 62780, Note_on_c, 0, 53, 0
2, 62811, Note_on_c, 0, 43, 62
2, 62960, Note_on_c, 0, 43, 0
2, 62961, Note_on_c, 0, 72, 84
2, 62977, Note_on_c, 0, 52, 62
2, 63083, Note_on_c, 0, 74, 72
2, 63107, Note_on_c, 0, 72, 0
2, 63108, Note_on_c, 0, 50, 54
2, 63119, Note_on_c, 0, 52, 0
2, 63203, Note_on_c, 0, 50, 0
2, 63210, Note_on_c, 0, 48, 54
2, 63210, Note_on_c, 0, 76, 83
2, 63232, Note_on_c, 0, 74, 0
2, 63309, Note_on_c, 0, 48, 0
2, 63341, Note_on_c, 0, 52, 58
2, 63425, Note_on_c, 0, 52, 0
2, 63440, Note_on_c, 0, 67, 66
2, 63451, Note_on_c, 0, 47, 55
2, 63480, Note_on_c, 0, 67, 0
2, 63530, Note_on_c, 0, 47, 0
2, 63559, Note_on_c, 0, 52, 61
2, 63679, Note_on_c, 0, 52, 0
2, 63683, Note_on_c, 0, 76, 0
2, 63700, Note_on_c, 0, 45, 50
2, 63701, Note_on_c, 0, 66, 65
2, 63792, Note_on_c, 0, 45, 0
2, 63817, Note_on_c, 0, 52, 54
2, 63825, Note_on_c, 0, 74, 65
2, 63899, Note_on_c, 0, 66, 0
2, 63925, Note_on_c, 0, 52, 0
2, 63929, Note_on_c, 0, 72, 73
2, 63936, Note_on_c, 0, 43, 53
2, 63951, Note_on_c, 0, 74, 0
2, 64001, Note_on_c, 0, 43, 0
2, 64046, Note_on_c, 0, 71, 74
2, 64054, Note_on_c, 0, 52, 58
2, 64058, Note_on_c, 0, 72, 0
2, 64122, Note_on_c, 0, 52, 0
2, 64146, Note_on_c, 0, 42, 55
2, 64161, Note_on_c, 0, 69, 79
2, 64189, Note_on_c, 0, 71, 0
2, 64233, Note_on_c, 0, 42, 0
2, 64263, Note_on_c, 0, 52, 57
2, 64279, Note_on_c, 0, 72, 80
2, 64303, Note_on_c, 0, 69, 0
2, 64392, Note_on_c, 0, 52, 0
2, 64408, Note_on_c, 0, 50, 58
2, 64408, Note_on_c, 0, 71, 78
2, 64431, Note_on_c, 0, 72, 0
2, 64514, Note_on_c, 0, 48, 56
2, 64530, Note_on_c, 0, 50, 0
2, 64531, Note_on_c, 0, 72, 79
2, 64544, Note_on_c, 0, 71, 0
2, 64632, Note_on_c, 0, 47, 54
2, 64644, Note_on_c, 0, 74, 77
2, 64649, Note_on_c, 0, 48, 0
2, 64666, Note_on_c, 0, 72, 0
2, 64734, Note_on_c, 0, 47, 0
2, 64768, Note_on_c, 0, 50, 52
2, 64877, Note_on_c, 0, 50, 0
2, 64882, Note_on_c, 0, 66, 75
2, 64893, Note_on_c, 0, 45, 55
2, 64926, Note_on_c, 0, 66, 0
2, 64974, Note_on_c, 0, 45, 0
2, 65003, Note_on_c, 0, 50, 55
2, 65103, Note_on_c, 0, 50, 0
2, 65112, Note_on_c, 0, 43, 51
2, 65116, Note_on_c, 0, 74, 0
2, 65122, Note_on_c, 0, 64, 66
2, 65199, Note_on_c, 0, 43, 0
2, 65248, Note_on_c, 0, 50, 53
2, 65260, Note_on_c, 0, 72, 62
2, 65327, Note_on_c, 0, 50, 0
2, 65342, Note_on_c, 0, 42, 51
2, 65372, Note_on_c, 0, 71, 68
2, 65377, Note_on_c, 0, 72, 0
2, 65424, Note_on_c, 0, 42, 0
2, 65467, Note_on_c, 0, 50, 56
2, 65495, Note_on_c, 0, 69, 67
2, 65500, Note_on_c, 0, 71, 0
2, 65548, Note_on_c, 0, 50, 0
2, 65580, Note_on_c, 0, 40, 45
2, 65605, Note_on_c, 0, 67, 69
2, 65611, Note_on_c, 0, 69, 0
2, 65660, Note_on_c, 0, 40, 0
2, 65700, Note_on_c, 0, 50, 52
2, 65701, Note_on_c, 0, 64, 0
2, 65705, Note_on_c, 0, 67, 0
2, 65716, Note_on_c, 0, 71, 58
2, 65827, Note_on_c, 0, 50, 0
2, 65836, Note_on_c, 0, 71, 0
2, 65841, Note_on_c, 0, 48, 52
2, 65843, Note_on_c, 0, 69, 67
2, 65944, Note_on_c, 0, 48, 0
2, 65950, Note_on_c, 0, 47, 48
2, 65961, Note_on_c, 0, 69, 0
2, 65969, Note_on_c, 0, 71, 58
2, 66059, Note_on_c, 0, 47, 0
2, 66066, Note_on_c, 0, 45, 48
2, 66085, Note_on_c, 0, 71, 0
2, 66093, Note_on_c, 0, 72, 65
2, 66146, Note_on_c, 0, 45, 0
2, 66168, Note_on_c, 0, 48, 55
2, 66305, Note_on_c, 0, 43, 52
2, 66306, Note_on_c, 0, 48, 0
2, 66307, Note_on_c, 0, 64, 60
2, 66351, Note_on_c, 0, 64, 0
2, 66373, Note_on_c, 0, 43, 0
2, 66436, Note_on_c, 0, 48, 51
2, 66494, Note_on_c, 0, 48, 0
2, 66534, Note_on_c, 0, 42, 53
2, 66556, Note_on_c, 0, 62, 53
2, 66564, Note_on_c, 0, 72, 0
2, 66622, Note_on_c, 0, 42, 0
2, 66657, Note_on_c, 0, 48, 52
2, 66721, Note_on_c, 0, 71, 52
2, 66768, Note_on_c, 0, 48, 0
2, 66780, Note_on_c, 0, 40, 52
2, 66802, Note_on_c, 0, 71, 0
2, 66825, Note_on_c, 0, 69, 57
2, 66865, Note_on_c, 0, 40, 0
2, 66903, Note_on_c, 0, 48, 55
2, 66940, Note_on_c, 0, 69, 0
2, 66941, Note_on_c, 0, 67, 59
2, 66990, Note_on_c, 0, 62, 0
2, 66994, Note_on_c, 0, 48, 0
2, 67031, Note_on_c, 0, 38, 45
2, 67033, Note_on_c, 0, 67, 0
2, 67049, Note_on_c, 0, 66, 57
2, 67109, Note_on_c, 0, 38, 0
2, 67142, Note_on_c, 0, 48, 46
2, 67143, Note_on_c, 0, 66, 0
2, 67161, Note_on_c, 0, 69, 55
2, 67213, Note_on_c, 0, 48, 0
2, 67244, Note_on_c, 0, 69, 0
2, 67281, Note_on_c, 0, 47, 63
2, 67284, Note_on_c, 0, 62, 72
2, 67286, Note_on_c, 0, 67, 67
2, 67311, Note_on_c, 0, 47, 0
2, 67344, Note_on_c, 0, 62, 0
2, 67377, Note_on_c, 0, 67, 0
2, 67384, Note_on_c, 0, 69, 60
2, 67500, Note_on_c, 0, 69, 0
2, 67525, Note_on_c, 0, 71, 68
2, 67531, Note_on_c, 0, 45, 58
2, 67538, Note_on_c, 0, 60, 68
2, 67568, Note_on_c, 0, 45, 0
2, 67640, Note_on_c, 0, 60, 0
2, 67647, Note_on_c, 0, 62, 63
2, 67739, Note_on_c, 0, 62, 0
2, 67760, Note_on_c, 0, 64, 58
2, 67782, Note_on_c, 0, 43, 54
2, 67818, Note_on_c, 0, 43, 0
2, 67865, Note_on_c, 0, 62, 62
2, 67866, Note_on_c, 0, 64, 0
2, 67990, Note_on_c, 0, 71, 0
2, 67999, Note_on_c, 0, 62, 0
2, 68008, Note_on_c, 0, 60, 58
2, 68012, Note_on_c, 0, 45, 54
2, 68042, Note_on_c, 0, 60, 0
2, 68047, Note_on_c, 0, 45, 0
2, 68253, Note_on_c, 0, 43, 56
2, 68253, Note_on_c, 0, 64, 55
2, 68256, Note_on_c, 0, 59, 65
2, 68285, Note_on_c, 0, 43, 0
2, 68300, Note_on_c, 0, 59, 0
2, 68349, Note_on_c, 0, 64, 0
2, 68363, Note_on_c, 0, 60, 63
2, 68473, Note_on_c, 0, 60, 0
2, 68489, Note_on_c, 0, 42, 54
2, 68489, Note_on_c, 0, 69, 60
2, 68492, Note_on_c, 0, 62, 65
2, 68522, Note_on_c, 0, 42, 0
2, 68566, Note_on_c, 0, 62, 0
2, 68602, Note_on_c, 0, 60, 60
2, 68730, Note_on_c, 0, 60, 0
2, 68732, Note_on_c, 0, 43, 46
2, 68747, Note_on_c, 0, 59, 61
2, 68784, Note_on_c, 0, 43, 0
2, 68790, Note_on_c, 0, 59, 0
2, 68834, Note_on_c, 0, 69, 0
2, 68852, Note_on_c, 0, 67, 65
2, 68864, Note_on_c, 0, 55, 49
2, 68941, Note_on_c, 0, 55, 0
2, 68970, Note_on_c, 0, 67, 0
2, 68973, Note_on_c, 0, 69, 70
2, 68986, Note_on_c, 0, 60, 80
2, 68990, Note_on_c, 0, 53, 58
2, 69018, Note_on_c, 0, 60, 0
2, 69029, Note_on_c, 0, 69, 0
2, 69085, Note_on_c, 0, 52, 61
2, 69086, Note_on_c, 0, 53, 0
2, 69175, Note_on_c, 0, 52, 0
2, 69198, Note_on_c, 0, 50, 60
2, 69207, Note_on_c, 0, 62, 83
2, 69207, Note_on_c, 0, 71, 73
2, 69240, Note_on_c, 0, 62, 0
2, 69258, Note_on_c, 0, 71, 0
2, 69309, Note_on_c, 0, 50, 0
2, 69321, Note_on_c, 0, 53, 60
2, 69429, Note_on_c, 0, 53, 0
2, 69441, Note_on_c, 0, 72, 76
2, 69448, Note_on_c, 0, 52, 61
2, 69449, Note_on_c, 0, 67, 72
2, 69482, Note_on_c, 0, 67, 0
2, 69548, Note_on_c, 0, 52, 0
2, 69551, Note_on_c, 0, 74, 67
2, 69556, Note_on_c, 0, 72, 0
2, 69563, Note_on_c, 0, 53, 55
2, 69677, Note_on_c, 0, 53, 0
2, 69689, Note_on_c, 0, 74, 0
2, 69690, Note_on_c, 0, 57, 70
2, 69690, Note_on_c, 0, 72, 63
2, 69691, Note_on_c, 0, 52, 61
2, 69810, Note_on_c, 0, 72, 0
2, 69816, Note_on_c, 0, 52, 0
2, 69824, Note_on_c, 0, 71, 56
2, 69828, Note_on_c, 0, 50, 55
2, 69907, Note_on_c, 0, 50, 0
2, 69909, Note_on_c, 0, 71, 0
2, 69928, Note_on_c, 0, 48, 50
2, 69933, Note_on_c, 0, 69, 55
2, 70006, Note_on_c, 0, 48, 0
2, 70008, Note_on_c, 0, 69, 0
2, 70010, Note_on_c, 0, 57, 0
2, 70031, Note_on_c, 0, 52, 56
2, 70032, Note_on_c, 0, 67, 56
2, 70078, Note_on_c, 0, 67, 0
2, 70092, Note_on_c, 0, 52, 0
2, 70152, Note_on_c, 0, 59, 60
2, 70168, Note_on_c, 0, 67, 64
2, 70175, Note_on_c, 0, 50, 41
2, 70225, Note_on_c, 0, 67, 0
2, 70230, Note_on_c, 0, 66, 65
2, 70242, Note_on_c, 0, 50, 0
2, 70269, Note_on_c, 0, 59, 0
2, 70270, Note_on_c, 0, 52, 50
2, 70286, Note_on_c, 0, 66, 0
2, 70294, Note_on_c, 0, 67, 65
2, 70360, Note_on_c, 0, 66, 57
2, 70360, Note_on_c, 0, 67, 0
2, 70390, Note_on_c, 0, 60, 80
2, 70396, Note_on_c, 0, 50, 53
2, 70401, Note_on_c, 0, 66, 0
2, 70425, Note_on_c, 0, 52, 0
2, 70485, Note_on_c, 0, 60, 0
2, 70500, Note_on_c, 0, 64, 57
2, 70543, Note_on_c, 0, 48, 56
2, 70551, Note_on_c, 0, 50, 0
2, 70559, Note_on_c, 0, 66, 65
2, 70594, Note_on_c, 0, 64, 0
2, 70627, Note_on_c, 0, 62, 76
2, 70633, Note_on_c, 0, 67, 73
2, 70636, Note_on_c, 0, 66, 0
2, 70644, Note_on_c, 0, 47, 59
2, 70654, Note_on_c, 0, 48, 0
2, 70669, Note_on_c, 0, 62, 0
2, 70749, Note_on_c, 0, 47, 0
2, 70760, Note_on_c, 0, 50, 56
2, 70850, Note_on_c, 0, 67, 0
2, 70855, Note_on_c, 0, 50, 0
2, 70866, Note_on_c, 0, 64, 73
2, 70868, Note_on_c, 0, 48, 61
2, 70944, Note_on_c, 0, 64, 0
2, 70979, Note_on_c, 0, 48, 0
2, 70991, Note_on_c, 0, 71, 58
2, 70996, Note_on_c, 0, 50, 53
2, 71104, Note_on_c, 0, 71, 0
2, 71105, Note_on_c, 0, 48, 65
2, 71111, Note_on_c, 0, 50, 0
2, 71114, Note_on_c, 0, 54, 64
2, 71119, Note_on_c, 0, 69, 66
2, 71232, Note_on_c, 0, 69, 0
2, 71239, Note_on_c, 0, 67, 55
2, 71245, Note_on_c, 0, 47, 62
2, 71335, Note_on_c, 0, 48, 0
2, 71357, Note_on_c, 0, 67, 0
2, 71361, Note_on_c, 0, 66, 60
2, 71366, Note_on_c, 0, 47, 0
2, 71379, Note_on_c, 0, 45, 51
2, 71433, Note_on_c, 0, 45, 0
2, 71449, Note_on_c, 0, 66, 0
2, 71474, Note_on_c, 0, 48, 54
2, 71479, Note_on_c, 0, 54, 0
2, 71479, Note_on_c, 0, 64, 50
2, 71579, Note_on_c, 0, 48, 0
2, 71598, Note_on_c, 0, 64, 0
2, 71600, Note_on_c, 0, 55, 56
2, 71601, Note_on_c, 0, 62, 63
2, 71611, Note_on_c, 0, 47, 52
2, 71638, Note_on_c, 0, 62, 0
2, 71662, Note_on_c, 0, 55, 0
2, 71664, Note_on_c, 0, 47, 0
2, 71712, Note_on_c, 0, 48, 58
2, 71833, Note_on_c, 0, 48, 0
2, 71843, Note_on_c, 0, 47, 46
2, 71866, Note_on_c, 0, 55, 51
2, 71968, Note_on_c, 0, 55, 0
2, 71976, Note_on_c, 0, 45, 42
2, 71980, Note_on_c, 0, 57, 49
2, 71988, Note_on_c, 0, 47, 0
2, 72078, Note_on_c, 0, 45, 0
2, 72114, Note_on_c, 0, 43, 44
2, 72124, Note_on_c, 0, 59, 47
2, 72193, Note_on_c, 0, 57, 0
2, 72229, Note_on_c, 0, 45, 44
2, 72247, Note_on_c, 0, 61, 61
2, 72276, Note_on_c, 0, 59, 0
2, 72301, Note_on_c, 0, 43, 0
2, 72345, Note_on_c, 0, 47, 62
2, 72368, Note_on_c, 0, 62, 66
2, 72389, Note_on_c, 0, 45, 0
2, 72397, Note_on_c, 0, 61, 0
2, 72441, Note_on_c, 0, 62, 0
2, 72473, Note_on_c, 0, 49, 62
2, 72486, Note_on_c, 0, 47, 0
2, 72573, Note_on_c, 0, 49, 0
2, 72589, Note_on_c, 0, 59, 74
2, 72590, Note_on_c, 0, 50, 65
2, 72695, Note_on_c, 0, 61, 72
2, 72704, Note_on_c, 0, 50, 0
2, 72704, Note_on_c, 0, 52, 66
2, 72732, Note_on_c, 0, 59, 0
2, 72785, Note_on_c, 0, 61, 0
2, 72811, Note_on_c, 0, 62, 81
2, 72815, Note_on_c, 0, 54, 70
2, 72846, Note_on_c, 0, 52, 0
2, 72940, Note_on_c, 0, 55, 72
2, 72944, Note_on_c, 0, 64, 70
2, 72949, Note_on_c, 0, 54, 0
2, 72958, Note_on_c, 0, 62, 0
2, 73066, Note_on_c, 0, 54, 76
2, 73078, Note_on_c, 0, 66, 83
2, 73079, Note_on_c, 0, 55, 0
2, 73083, Note_on_c, 0, 69, 83
2, 73118, Note_on_c, 0, 64, 0
2, 73140, Note_on_c, 0, 66, 0
2, 73141, Note_on_c, 0, 54, 0
2, 73162, Note_on_c, 0, 69, 0
2, 73322, Note_on_c, 0, 67, 76
2, 73324, Note_on_c, 0, 64, 71
2, 73337, Note_on_c, 0, 59, 65
2, 73381, Note_on_c, 0, 59, 0
2, 73389, Note_on_c, 0, 64, 0
2, 73429, Note_on_c, 0, 69, 81
2, 73461, Note_on_c, 0, 67, 0
2, 73480, Note_on_c, 0, 69, 0
2, 73554, Note_on_c, 0, 63, 78
2, 73558, Note_on_c, 0, 71, 72
2, 73569, Note_on_c, 0, 47, 60
2, 73609, Note_on_c, 0, 47, 0
2, 73655, Note_on_c, 0, 63, 0
2, 73672, Note_on_c, 0, 69, 72
2, 73712, Note_on_c, 0, 71, 0
2, 73812, Note_on_c, 0, 67, 67
2, 73823, Note_on_c, 0, 52, 57
2, 73829, Note_on_c, 0, 64, 63
2, 73832, Note_on_c, 0, 69, 0
2, 73862, Note_on_c, 0, 64, 0
2, 73869, Note_on_c, 0, 52, 0
2, 73918, Note_on_c, 0, 67, 0
2, 74053, Note_on_c, 0, 66, 71
2, 74062, Note_on_c, 0, 57, 54
2, 74062, Note_on_c, 0, 62, 64
2, 74095, Note_on_c, 0, 57, 0
2, 74150, Note_on_c, 0, 62, 0
2, 74159, Note_on_c, 0, 67, 66
2, 74194, Note_on_c, 0, 66, 0
2, 74283, Note_on_c, 0, 69, 71
2, 74285, Note_on_c, 0, 61, 64
2, 74288, Note_on_c, 0, 45, 41
2, 74293, Note_on_c, 0, 67, 0
2, 74320, Note_on_c, 0, 45, 0
2, 74356, Note_on_c, 0, 61, 0
2, 74401, Note_on_c, 0, 67, 65
2, 74422, Note_on_c, 0, 69, 0
2, 74543, Note_on_c, 0, 66, 68
2, 74557, Note_on_c, 0, 50, 52
2, 74560, Note_on_c, 0, 67, 0
2, 74561, Note_on_c, 0, 62, 53
2, 74596, Note_on_c, 0, 50, 0
2, 74611, Note_on_c, 0, 62, 0
2, 74630, Note_on_c, 0, 66, 0
2, 74800, Note_on_c, 0, 52, 39
2, 74802, Note_on_c, 0, 67, 81
2, 74805, Note_on_c, 0, 61, 53
2, 74857, Note_on_c, 0, 67, 0
2, 74899, Note_on_c, 0, 61, 0
2, 74903, Note_on_c, 0, 52, 0
2, 74919, Note_on_c, 0, 59, 65
2, 75027, Note_on_c, 0, 59, 0
2, 75037, Note_on_c, 0, 69, 85
2, 75041, Note_on_c, 0, 57, 60
2, 75043, Note_on_c, 0, 54, 55
2, 75090, Note_on_c, 0, 69, 0
2, 75164, Note_on_c, 0, 57, 0
2, 75171, Note_on_c, 0, 60, 58
2, 75175, Note_on_c, 0, 54, 0
2, 75280, Note_on_c, 0, 60, 0
2, 75284, Note_on_c, 0, 74, 83
2, 75296, Note_on_c, 0, 59, 61
2, 75335, Note_on_c, 0, 74, 0
2, 75381, Note_on_c, 0, 59, 0
2, 75417, Note_on_c, 0, 60, 65
2, 75525, Note_on_c, 0, 66, 76
2, 75530, Note_on_c, 0, 60, 0
2, 75542, Note_on_c, 0, 59, 61
2, 75560, Note_on_c, 0, 55, 50
2, 75593, Note_on_c, 0, 66, 0
2, 75596, Note_on_c, 0, 59, 0
2, 75602, Note_on_c, 0, 64, 74
2, 75607, Note_on_c, 0, 55, 0
2, 75652, Note_on_c, 0, 66, 77
2, 75656, Note_on_c, 0, 57, 61
2, 75658, Note_on_c, 0, 64, 0
2, 75717, Note_on_c, 0, 66, 0
2, 75722, Note_on_c, 0, 64, 71
2, 75736, Note_on_c, 0, 57, 0
2, 75759, Note_on_c, 0, 49, 49
2, 75761, Note_on_c, 0, 66, 75
2, 75768, Note_on_c, 0, 55, 53
2, 75770, Note_on_c, 0, 64, 0
2, 75817, Note_on_c, 0, 55, 0
2, 75821, Note_on_c, 0, 64, 66
2, 75828, Note_on_c, 0, 66, 0
2, 75831, Note_on_c, 0, 49, 0
2, 75868, Note_on_c, 0, 59, 61
2, 75882, Note_on_c, 0, 64, 0
2, 75884, Note_on_c, 0, 62, 79
2, 75948, Note_on_c, 0, 62, 0
2, 75948, Note_on_c, 0, 64, 65
2, 76000, Note_on_c, 0, 59, 0
2, 76009, Note_on_c, 0, 57, 54
2, 76009, Note_on_c, 0, 66, 84
2, 76018, Note_on_c, 0, 50, 48
2, 76021, Note_on_c, 0, 64, 0
2, 76056, Note_on_c, 0, 66, 0
2, 76100, Note_on_c, 0, 57, 0
2, 76130, Note_on_c, 0, 59, 59
2, 76132, Note_on_c, 0, 50, 0
2, 76233, Note_on_c, 0, 57, 58
2, 76249, Note_on_c, 0, 67, 83
2, 76255, Note_on_c, 0, 59, 0
2, 76302, Note_on_c, 0, 67, 0
2, 76368, Note_on_c, 0, 57, 0
2, 76373, Note_on_c, 0, 55, 48
2, 76480, Note_on_c, 0, 69, 77
2, 76482, Note_on_c, 0, 55, 0
2, 76486, Note_on_c, 0, 54, 49
2, 76534, Note_on_c, 0, 69, 0
2, 76563, Note_on_c, 0, 54, 0
2, 76590, Note_on_c, 0, 57, 58
2, 76709, Note_on_c, 0, 57, 0
2, 76719, Note_on_c, 0, 55, 57
2, 76740, Note_on_c, 0, 71, 67
2, 76794, Note_on_c, 0, 71, 0
2, 76809, Note_on_c, 0, 55, 0
2, 76831, Note_on_c, 0, 57, 55
2, 76942, Note_on_c, 0, 57, 0
2, 76948, Note_on_c, 0, 55, 50
2, 76963, Note_on_c, 0, 62, 55
2, 77013, Note_on_c, 0, 62, 0
2, 77021, Note_on_c, 0, 61, 66
2, 77044, Note_on_c, 0, 54, 57
2, 77049, Note_on_c, 0, 55, 0
2, 77057, Note_on_c, 0, 61, 0
2, 77078, Note_on_c, 0, 62, 57
2, 77131, Note_on_c, 0, 62, 0
2, 77145, Note_on_c, 0, 54, 0
2, 77146, Note_on_c, 0, 61, 55
2, 77156, Note_on_c, 0, 52, 58
2, 77170, Note_on_c, 0, 61, 0
2, 77170, Note_on_c, 0, 62, 58
2, 77231, Note_on_c, 0, 62, 0
2, 77237, Note_on_c, 0, 61, 71
2, 77241, Note_on_c, 0, 52, 0
2, 77261, Note_on_c, 0, 55, 62
2, 77282, Note_on_c, 0, 61, 0
2, 77306, Note_on_c, 0, 59, 51
2, 77337, Note_on_c, 0, 59, 0
2, 77359, Note_on_c, 0, 61, 57
2, 77385, Note_on_c, 0, 55, 0
2, 77386, Note_on_c, 0, 54, 52
2, 77415, Note_on_c, 0, 61, 0
2, 77446, Note_on_c, 0, 62, 65
2, 77478, Note_on_c, 0, 62, 0
2, 77499, Note_on_c, 0, 54, 0
2, 77526, Note_on_c, 0, 55, 56
2, 77665, Note_on_c, 0, 62, 55
2, 77671, Note_on_c, 0, 54, 50
2, 77674, Note_on_c, 0, 55, 0
2, 77779, Note_on_c, 0, 54, 0
2, 77791, Note_on_c, 0, 62, 0
2, 77794, Note_on_c, 0, 52, 49
2, 77798, Note_on_c, 0, 64, 55
2, 77904, Note_on_c, 0, 52, 0
2, 77918, Note_on_c, 0, 50, 53
2, 77918, Note_on_c, 0, 66, 59
2, 77963, Note_on_c, 0, 64, 0
2, 78027, Note_on_c, 0, 50, 0
2, 78030, Note_on_c, 0, 52, 64
2, 78051, Note_on_c, 0, 67, 61
2, 78061, Note_on_c, 0, 66, 0
2, 78143, Note_on_c, 0, 54, 62
2, 78164, Note_on_c, 0, 69, 73
2, 78180, Note_on_c, 0, 67, 0
2, 78182, Note_on_c, 0, 52, 0
2, 78230, Note_on_c, 0, 69, 0
2, 78271, Note_on_c, 0, 54, 0
2, 78279, Note_on_c, 0, 55, 67
2, 78394, Note_on_c, 0, 57, 68
2, 78400, Note_on_c, 0, 55, 0
2, 78406, Note_on_c, 0, 66, 81
2, 78526, Note_on_c, 0, 66, 0
2, 78526, Note_on_c, 0, 67, 79
2, 78531, Note_on_c, 0, 59, 74
2, 78560, Note_on_c, 0, 57, 0
2, 78617, Note_on_c, 0, 59, 0
2, 78630, Note_on_c, 0, 60, 75
2, 78648, Note_on_c, 0, 69, 84
2, 78676, Note_on_c, 0, 67, 0
2, 78741, Note_on_c, 0, 60, 0
2, 78747, Note_on_c, 0, 62, 76
2, 78765, Note_on_c, 0, 71, 80
2, 78785, Note_on_c, 0, 62, 0
2, 78793, Note_on_c, 0, 69, 0
2, 78886, Note_on_c, 0, 54, 82
2, 78891, Note_on_c, 0, 72, 86
2, 78898, Note_on_c, 0, 50, 68
2, 78924, Note_on_c, 0, 71, 0
2, 78928, Note_on_c, 0, 50, 0
2, 78935, Note_on_c, 0, 54, 0
2, 79162, Note_on_c, 0, 69, 86
2, 79181, Note_on_c, 0, 48, 58
2, 79213, Note_on_c, 0, 72, 0
2, 79296, Note_on_c, 0, 48, 0
2, 79299, Note_on_c, 0, 50, 53
2, 79392, Note_on_c, 0, 50, 0
2, 79407, Note_on_c, 0, 71, 80
2, 79413, Note_on_c, 0, 67, 72
2, 79422, Note_on_c, 0, 52, 60
2, 79428, Note_on_c, 0, 69, 0
2, 79512, Note_on_c, 0, 71, 0
2, 79525, Note_on_c, 0, 50, 59
2, 79541, Note_on_c, 0, 52, 0
2, 79650, Note_on_c, 0, 50, 0
2, 79651, Note_on_c, 0, 48, 64
2, 79658, Note_on_c, 0, 69, 73
2, 79680, Note_on_c, 0, 67, 0
2, 79702, Note_on_c, 0, 48, 0
2, 79909, Note_on_c, 0, 47, 62
2, 79920, Note_on_c, 0, 67, 64
2, 79967, Note_on_c, 0, 67, 0
2, 79994, Note_on_c, 0, 47, 0
2, 80005, Note_on_c, 0, 48, 62
2, 80134, Note_on_c, 0, 48, 0
2, 80151, Note_on_c, 0, 50, 58
2, 80154, Note_on_c, 0, 66, 63
2, 80192, Note_on_c, 0, 66, 0
2, 80261, Note_on_c, 0, 48, 58
2, 80276, Note_on_c, 0, 50, 0
2, 80351, Note_on_c, 0, 69, 0
2, 80378, Note_on_c, 0, 48, 0
2, 80393, Note_on_c, 0, 47, 63
2, 80411, Note_on_c, 0, 67, 55
2, 80431, Note_on_c, 0, 47, 0
2, 80546, Note_on_c, 0, 79, 63
2, 80568, Note_on_c, 0, 67, 0
2, 80645, Note_on_c, 0, 48, 72
2, 80666, Note_on_c, 0, 78, 70
2, 80685, Note_on_c, 0, 48, 0
2, 80713, Note_on_c, 0, 79, 0
2, 80791, Note_on_c, 0, 76, 64
2, 80797, Note_on_c, 0, 78, 0
2, 80887, Note_on_c, 0, 50, 71
2, 80900, Note_on_c, 0, 76, 0
2, 80912, Note_on_c, 0, 74, 64
2, 80920, Note_on_c, 0, 50, 0
2, 81012, Note_on_c, 0, 78, 63
2, 81019, Note_on_c, 0, 74, 0
2, 81130, Note_on_c, 0, 78, 0
2, 81131, Note_on_c, 0, 55, 74
2, 81152, Note_on_c, 0, 76, 58
2, 81161, Note_on_c, 0, 55, 0
2, 81249, Note_on_c, 0, 76, 0
2, 81260, Note_on_c, 0, 78, 62
2, 81398, Note_on_c, 0, 45, 65
2, 81400, Note_on_c, 0, 78, 0
2, 81409, Note_on_c, 0, 76, 55
2, 81512, Note_on_c, 0, 76, 0
2, 81525, Note_on_c, 0, 74, 54
2, 81622, Note_on_c, 0, 74, 0
2, 81642, Note_on_c, 0, 72, 57
2, 81776, Note_on_c, 0, 72, 0
2, 81786, Note_on_c, 0, 76, 52
2, 81846, Note_on_c, 0, 45, 0
2, 81877, Note_on_c, 0, 47, 72
2, 81889, Note_on_c, 0, 76, 0
2, 81892, Note_on_c, 0, 74, 61
2, 81934, Note_on_c, 0, 47, 0
2, 81987, Note_on_c, 0, 74, 0
2, 82007, Note_on_c, 0, 76, 60
2, 82123, Note_on_c, 0, 48, 81
2, 82130, Note_on_c, 0, 74, 61
2, 82136, Note_on_c, 0, 76, 0
2, 82163, Note_on_c, 0, 48, 0
2, 82231, Note_on_c, 0, 74, 0
2, 82241, Note_on_c, 0, 72, 63
2, 82368, Note_on_c, 0, 50, 75
2, 82372, Note_on_c, 0, 72, 0
2, 82378, Note_on_c, 0, 71, 61
2, 82413, Note_on_c, 0, 50, 0
2, 82488, Note_on_c, 0, 71, 0
2, 82492, Note_on_c, 0, 74, 52
2, 82609, Note_on_c, 0, 74, 0
2, 82616, Note_on_c, 0, 72, 64
2, 82628, Note_on_c, 0, 52, 72
2, 82662, Note_on_c, 0, 52, 0
2, 82702, Note_on_c, 0, 72, 0
2, 82731, Note_on_c, 0, 74, 56
2, 82880, Note_on_c, 0, 72, 56
2, 82884, Note_on_c, 0, 74, 0
2, 82891, Note_on_c, 0, 42, 58
2, 82986, Note_on_c, 0, 72, 0
2, 83006, Note_on_c, 0, 71, 49
2, 83106, Note_on_c, 0, 71, 0
2, 83136, Note_on_c, 0, 69, 46
2, 83235, Note_on_c, 0, 69, 0
2, 83268, Note_on_c, 0, 72, 52
2, 83388, Note_on_c, 0, 43, 60
2, 83389, Note_on_c, 0, 72, 0
2, 83402, Note_on_c, 0, 71, 55
2, 83435, Note_on_c, 0, 42, 0
2, 83501, Note_on_c, 0, 71, 0
2, 83512, Note_on_c, 0, 69, 58
2, 83518, Note_on_c, 0, 45, 67
2, 83551, Note_on_c, 0, 43, 0
2, 83634, Note_on_c, 0, 69, 0
2, 83653, Note_on_c, 0, 67, 62
2, 83655, Note_on_c, 0, 47, 79
2, 83747, Note_on_c, 0, 45, 0
2, 83749, Note_on_c, 0, 67, 0
2, 83775, Note_on_c, 0, 71, 60
2, 83891, Note_on_c, 0, 71, 0
2, 83894, Note_on_c, 0, 66, 69
2, 83917, Note_on_c, 0, 62, 57
2, 83998, Note_on_c, 0, 66, 0
2, 84017, Note_on_c, 0, 71, 70
2, 84025, Note_on_c, 0, 62, 0
2, 84136, Note_on_c, 0, 71, 0
2, 84145, Note_on_c, 0, 61, 62
2, 84145, Note_on_c, 0, 64, 66
2, 84203, Note_on_c, 0, 61, 0
2, 84249, Note_on_c, 0, 64, 0
2, 84270, Note_on_c, 0, 45, 63
2, 84270, Note_on_c, 0, 71, 63
2, 84273, Note_on_c, 0, 47, 0
2, 84376, Note_on_c, 0, 43, 59
2, 84380, Note_on_c, 0, 71, 0
2, 84385, Note_on_c, 0, 45, 0
2, 84389, Note_on_c, 0, 62, 62
2, 84472, Note_on_c, 0, 62, 0
2, 84500, Note_on_c, 0, 42, 58
2, 84519, Note_on_c, 0, 71, 61
2, 84547, Note_on_c, 0, 43, 0
2, 84613, Note_on_c, 0, 40, 62
2, 84622, Note_on_c, 0, 71, 0
2, 84626, Note_on_c, 0, 61, 68
2, 84651, Note_on_c, 0, 42, 0
2, 84712, Note_on_c, 0, 61, 0
2, 84737, Note_on_c, 0, 40, 0
2, 84738, Note_on_c, 0, 43, 70
2, 84743, Note_on_c, 0, 71, 64
2, 84774, Note_on_c, 0, 71, 0
2, 84852, Note_on_c, 0, 42, 67
2, 84868, Note_on_c, 0, 69, 73
2, 84872, Note_on_c, 0, 43, 0
2, 84979, Note_on_c, 0, 69, 0
2, 84985, Note_on_c, 0, 43, 69
2, 84994, Note_on_c, 0, 67, 62
2, 84995, Note_on_c, 0, 42, 0
2, 85126, Note_on_c, 0, 67, 0
2, 85127, Note_on_c, 0, 45, 74
2, 85131, Note_on_c, 0, 66, 66
2, 85185, Note_on_c, 0, 43, 0
2, 85234, Note_on_c, 0, 66, 0
2, 85251, Note_on_c, 0, 69, 64
2, 85370, Note_on_c, 0, 69, 0
2, 85376, Note_on_c, 0, 61, 64
2, 85388, Note_on_c, 0, 64, 58
2, 85445, Note_on_c, 0, 61, 0
2, 85481, Note_on_c, 0, 64, 0
2, 85504, Note_on_c, 0, 69, 60
2, 85623, Note_on_c, 0, 69, 0
2, 85635, Note_on_c, 0, 62, 58
2, 85644, Note_on_c, 0, 59, 54
2, 85708, Note_on_c, 0, 59, 0
2, 85718, Note_on_c, 0, 62, 0
2, 85746, Note_on_c, 0, 45, 0
2, 85758, Note_on_c, 0, 43, 52
2, 85758, Note_on_c, 0, 69, 57
2, 85860, Note_on_c, 0, 42, 59
2, 85864, Note_on_c, 0, 43, 0
2, 85886, Note_on_c, 0, 61, 58
2, 85889, Note_on_c, 0, 69, 0
2, 85966, Note_on_c, 0, 61, 0
2, 85977, Note_on_c, 0, 42, 0
2, 85983, Note_on_c, 0, 40, 55
2, 86017, Note_on_c, 0, 69, 57
2, 86084, Note_on_c, 0, 40, 0
2, 86100, Note_on_c, 0, 38, 52
2, 86129, Note_on_c, 0, 69, 0
2, 86135, Note_on_c, 0, 59, 60
2, 86180, Note_on_c, 0, 38, 0
2, 86217, Note_on_c, 0, 42, 56
2, 86255, Note_on_c, 0, 69, 56
2, 86332, Note_on_c, 0, 69, 0
2, 86337, Note_on_c, 0, 42, 0
2, 86350, Note_on_c, 0, 40, 61
2, 86360, Note_on_c, 0, 67, 54
2, 86367, Note_on_c, 0, 59, 0
2, 86463, Note_on_c, 0, 40, 0
2, 86473, Note_on_c, 0, 42, 54
2, 86485, Note_on_c, 0, 67, 0
2, 86490, Note_on_c, 0, 66, 57
2, 86600, Note_on_c, 0, 66, 0
2, 86616, Note_on_c, 0, 43, 64
2, 86616, Note_on_c, 0, 64, 52
2, 86632, Note_on_c, 0, 42, 0
2, 86723, Note_on_c, 0, 64, 0
2, 86747, Note_on_c, 0, 67, 57
2, 86855, Note_on_c, 0, 67, 0
2, 86876, Note_on_c, 0, 62, 53
2, 86885, Note_on_c, 0, 59, 50
2, 86954, Note_on_c, 0, 62, 0
2, 86980, Note_on_c, 0, 59, 0
2, 86991, Note_on_c, 0, 67, 54
2, 87113, Note_on_c, 0, 67, 0
2, 87123, Note_on_c, 0, 61, 56
2, 87215, Note_on_c, 0, 61, 0
2, 87240, Note_on_c, 0, 67, 61
2, 87250, Note_on_c, 0, 42, 45
2, 87321, Note_on_c, 0, 43, 0
2, 87328, Note_on_c, 0, 42, 0
2, 87335, Note_on_c, 0, 40, 57
2, 87350, Note_on_c, 0, 67, 0
2, 87363, Note_on_c, 0, 59, 60
2, 87444, Note_on_c, 0, 59, 0
2, 87456, Note_on_c, 0, 38, 45
2, 87457, Note_on_c, 0, 40, 0
2, 87481, Note_on_c, 0, 67, 60
2, 87554, Note_on_c, 0, 38, 0
2, 87564, Note_on_c, 0, 37, 46
2, 87576, Note_on_c, 0, 67, 0
2, 87591, Note_on_c, 0, 57, 57
2, 87655, Note_on_c, 0, 37, 0
2, 87682, Note_on_c, 0, 57, 0
2, 87700, Note_on_c, 0, 40, 51
2, 87707, Note_on_c, 0, 67, 58
2, 87806, Note_on_c, 0, 40, 0
2, 87820, Note_on_c, 0, 67, 0
2, 87821, Note_on_c, 0, 66, 68
2, 87824, Note_on_c, 0, 38, 50
2, 87852, Note_on_c, 0, 66, 0
2, 87924, Note_on_c, 0, 38, 0
2, 87943, Note_on_c, 0, 40, 60
2, 87958, Note_on_c, 0, 74, 68
2, 88031, Note_on_c, 0, 40, 0
2, 88053, Note_on_c, 0, 42, 53
2, 88077, Note_on_c, 0, 72, 69
2, 88082, Note_on_c, 0, 74, 0
2, 88159, Note_on_c, 0, 42, 0
2, 88179, Note_on_c, 0, 38, 50
2, 88196, Note_on_c, 0, 71, 72
2, 88202, Note_on_c, 0, 72, 0
2, 88282, Note_on_c, 0, 38, 0
2, 88310, Note_on_c, 0, 69, 73
2, 88313, Note_on_c, 0, 71, 0
2, 88319, Note_on_c, 0, 43, 60
2, 88422, Note_on_c, 0, 43, 0
2, 88422, Note_on_c, 0, 69, 0
2, 88427, Note_on_c, 0, 38, 56
2, 88435, Note_on_c, 0, 67, 69
2, 88530, Note_on_c, 0, 38, 0
2, 88557, Note_on_c, 0, 45, 58
2, 88561, Note_on_c, 0, 66, 74
2, 88587, Note_on_c, 0, 67, 0
2, 88629, Note_on_c, 0, 45, 0
2, 88663, Note_on_c, 0, 38, 55
2, 88686, Note_on_c, 0, 64, 68
2, 88700, Note_on_c, 0, 66, 0
2, 88747, Note_on_c, 0, 38, 0
2, 88775, Note_on_c, 0, 47, 52
2, 88798, Note_on_c, 0, 64, 0
2, 88802, Note_on_c, 0, 62, 70
2, 88854, Note_on_c, 0, 47, 0
2, 88893, Note_on_c, 0, 38, 48
2, 88906, Note_on_c, 0, 62, 0
2, 88924, Note_on_c, 0, 60, 62
2, 89000, Note_on_c, 0, 38, 0
2, 89016, Note_on_c, 0, 48, 50
2, 89050, Note_on_c, 0, 60, 0
2, 89053, Note_on_c, 0, 59, 62
2, 89082, Note_on_c, 0, 48, 0
2, 89142, Note_on_c, 0, 59, 0
2, 89148, Note_on_c, 0, 38, 40
2, 89169, Note_on_c, 0, 57, 58
2, 89208, Note_on_c, 0, 38, 0
2, 89285, Note_on_c, 0, 57, 0
2, 89298, Note_on_c, 0, 55, 67
2, 89327, Note_on_c, 0, 47, 43
2, 89340, Note_on_c, 0, 55, 0
2, 89368, Note_on_c, 0, 47, 0
2, 89407, Note_on_c, 0, 57, 63
2, 89429, Note_on_c, 0, 55, 39
2, 89498, Note_on_c, 0, 57, 0
2, 89508, Note_on_c, 0, 55, 0
2, 89530, Note_on_c, 0, 59, 55
2, 89540, Note_on_c, 0, 53, 52
2, 89610, Note_on_c, 0, 53, 0
2, 89612, Note_on_c, 0, 59, 0
2, 89639, Note_on_c, 0, 55, 61
2, 89647, Note_on_c, 0, 52, 55
2, 89704, Note_on_c, 0, 52, 0
2, 89769, Note_on_c, 0, 60, 57
2, 89774, Note_on_c, 0, 55, 0
2, 89782, Note_on_c, 0, 50, 52
2, 89866, Note_on_c, 0, 50, 0
2, 89871, Note_on_c, 0, 60, 0
2, 89881, Note_on_c, 0, 48, 56
2, 89891, Note_on_c, 0, 55, 70
2, 89995, Note_on_c, 0, 48, 0
2, 89997, Note_on_c, 0, 47, 62
2, 89999, Note_on_c, 0, 62, 75
2, 90013, Note_on_c, 0, 55, 0
2, 90088, Note_on_c, 0, 47, 0
2, 90108, Note_on_c, 0, 62, 0
2, 90119, Note_on_c, 0, 55, 71
2, 90124, Note_on_c, 0, 45, 64
2, 90221, Note_on_c, 0, 45, 0
2, 90230, Note_on_c, 0, 43, 68
2, 90234, Note_on_c, 0, 64, 77
2, 90250, Note_on_c, 0, 55, 0
2, 90347, Note_on_c, 0, 41, 67
2, 90351, Note_on_c, 0, 55, 68
2, 90353, Note_on_c, 0, 64, 0
2, 90365, Note_on_c, 0, 43, 0
2, 90442, Note_on_c, 0, 41, 0
2, 90470, Note_on_c, 0, 65, 78
2, 90471, Note_on_c, 0, 55, 0
2, 90481, Note_on_c, 0, 40, 69
2, 90595, Note_on_c, 0, 40, 0
2, 90598, Note_on_c, 0, 38, 62
2, 90602, Note_on_c, 0, 55, 66
2, 90657, Note_on_c, 0, 55, 0
2, 90707, Note_on_c, 0, 38, 0
2, 90710, Note_on_c, 0, 36, 61
2, 90711, Note_on_c, 0, 64, 65
2, 90720, Note_on_c, 0, 65, 0
2, 90740, Note_on_c, 0, 64, 0
2, 90824, Note_on_c, 0, 36, 0
2, 90834, Note_on_c, 0, 38, 63
2, 90842, Note_on_c, 0, 72, 74
2, 90908, Note_on_c, 0, 38, 0
2, 90954, Note_on_c, 0, 40, 65
2, 90956, Note_on_c, 0, 72, 0
2, 90961, Note_on_c, 0, 71, 59
2, 91060, Note_on_c, 0, 40, 0
2, 91071, Note_on_c, 0, 42, 62
2, 91087, Note_on_c, 0, 71, 0
2, 91089, Note_on_c, 0, 74, 61
2, 91185, Note_on_c, 0, 44, 60
2, 91188, Note_on_c, 0, 42, 0
2, 91190, Note_on_c, 0, 74, 0
2, 91193, Note_on_c, 0, 69, 61
2, 91276, Note_on_c, 0, 44, 0
2, 91304, Note_on_c, 0, 45, 65
2, 91312, Note_on_c, 0, 69, 0
2, 91320, Note_on_c, 0, 74, 63
2, 91425, Note_on_c, 0, 68, 69
2, 91428, Note_on_c, 0, 47, 61
2, 91438, Note_on_c, 0, 74, 0
2, 91451, Note_on_c, 0, 45, 0
2, 91532, Note_on_c, 0, 48, 61
2, 91538, Note_on_c, 0, 47, 0
2, 91541, Note_on_c, 0, 68, 0
2, 91553, Note_on_c, 0, 74, 67
2, 91642, Note_on_c, 0, 48, 0
2, 91650, Note_on_c, 0, 66, 68
2, 91652, Note_on_c, 0, 50, 61
2, 91666, Note_on_c, 0, 74, 0
2, 91725, Note_on_c, 0, 50, 0
2, 91760, Note_on_c, 0, 66, 0
2, 91784, Note_on_c, 0, 52, 59
2, 91791, Note_on_c, 0, 74, 58
2, 91875, Note_on_c, 0, 52, 0
2, 91893, Note_on_c, 0, 74, 0
2, 91897, Note_on_c, 0, 64, 56
2, 91903, Note_on_c, 0, 54, 44
2, 92021, Note_on_c, 0, 54, 0
2, 92023, Note_on_c, 0, 64, 0
2, 92031, Note_on_c, 0, 74, 56
2, 92047, Note_on_c, 0, 56, 47
2, 92125, Note_on_c, 0, 56, 0
2, 92147, Note_on_c, 0, 72, 60
2, 92153, Note_on_c, 0, 74, 0
2, 92166, Note_on_c, 0, 57, 49
2, 92232, Note_on_c, 0, 72, 0
2, 92249, Note_on_c, 0, 69, 61
2, 92268, Note_on_c, 0, 57, 0
2, 92288, Note_on_c, 0, 55, 40
2, 92341, Note_on_c, 0, 69, 0
2, 92370, Note_on_c, 0, 71, 64
2, 92374, Note_on_c, 0, 55, 0
2, 92390, Note_on_c, 0, 54, 45
2, 92465, Note_on_c, 0, 54, 0
2, 92481, Note_on_c, 0, 71, 0
2, 92492, Note_on_c, 0, 73, 65
2, 92495, Note_on_c, 0, 57, 43
2, 92595, Note_on_c, 0, 57, 0
2, 92601, Note_on_c, 0, 75, 68
2, 92606, Note_on_c, 0, 73, 0
2, 92614, Note_on_c, 0, 52, 45
2, 92671, Note_on_c, 0, 52, 0
2, 92678, Note_on_c, 0, 75, 0
2, 92706, Note_on_c, 0, 76, 70
2, 92725, Note_on_c, 0, 57, 54
2, 92812, Note_on_c, 0, 57, 0
2, 92815, Note_on_c, 0, 76, 0
2, 92828, Note_on_c, 0, 78, 72
2, 92834, Note_on_c, 0, 51, 45
2, 92898, Note_on_c, 0, 51, 0
2, 92922, Note_on_c, 0, 78, 0
2, 92939, Note_on_c, 0, 79, 71
2, 92945, Note_on_c, 0, 57, 52
2, 93007, Note_on_c, 0, 57, 0
2, 93044, Note_on_c, 0, 79, 0
2, 93049, Note_on_c, 0, 81, 72
2, 93052, Note_on_c, 0, 49, 40
2, 93109, Note_on_c, 0, 49, 0
2, 93146, Note_on_c, 0, 81, 0
2, 93154, Note_on_c, 0, 57, 45
2, 93155, Note_on_c, 0, 83, 61
2, 93251, Note_on_c, 0, 57, 0
2, 93255, Note_on_c, 0, 83, 0
2, 93272, Note_on_c, 0, 84, 63
2, 93277, Note_on_c, 0, 47, 45
2, 93346, Note_on_c, 0, 47, 0
2, 93391, Note_on_c, 0, 57, 41
2, 93407, Note_on_c, 0, 75, 55
2, 93413, Note_on_c, 0, 84, 0
2, 93474, Note_on_c, 0, 57, 0
2, 93519, Note_on_c, 0, 55, 49
2, 93520, Note_on_c, 0, 75, 0
2, 93538, Note_on_c, 0, 76, 60
2, 93578, Note_on_c, 0, 55, 0
2, 93594, Note_on_c, 0, 76, 0
2, 93785, Note_on_c, 0, 78, 67
2, 93807, Note_on_c, 0, 60, 33
2, 93836, Note_on_c, 0, 60, 0
2, 93884, Note_on_c, 0, 78, 0
2, 93904, Note_on_c, 0, 76, 59
2, 93996, Note_on_c, 0, 76, 0
2, 94013, Note_on_c, 0, 75, 62
2, 94039, Note_on_c, 0, 59, 50
2, 94070, Note_on_c, 0, 59, 0
2, 94115, Note_on_c, 0, 75, 0
2, 94122, Note_on_c, 0, 76, 64
2, 94253, Note_on_c, 0, 78, 68
2, 94260, Note_on_c, 0, 76, 0
2, 94277, Note_on_c, 0, 57, 47
2, 94322, Note_on_c, 0, 78, 0
2, 94328, Note_on_c, 0, 57, 0
2, 94507, Note_on_c, 0, 79, 65
2, 94517, Note_on_c, 0, 59, 49
2, 94548, Note_on_c, 0, 59, 0
2, 94617, Note_on_c, 0, 78, 70
2, 94617, Note_on_c, 0, 79, 0
2, 94729, Note_on_c, 0, 78, 0
2, 94736, Note_on_c, 0, 76, 66
2, 94743, Note_on_c, 0, 47, 52
2, 94770, Note_on_c, 0, 47, 0
2, 94853, Note_on_c, 0, 78, 66
2, 94854, Note_on_c, 0, 76, 0
2, 94987, Note_on_c, 0, 78, 0
2, 94988, Note_on_c, 0, 79, 63
2, 94990, Note_on_c, 0, 52, 48
2, 95036, Note_on_c, 0, 79, 0
2, 95069, Note_on_c, 0, 52, 0
2, 95096, Note_on_c, 0, 54, 57
2, 95182, Note_on_c, 0, 54, 0
2, 95228, Note_on_c, 0, 55, 52
2, 95228, Note_on_c, 0, 78, 73
2, 95277, Note_on_c, 0, 78, 0
2, 95314, Note_on_c, 0, 55, 0
2, 95333, Note_on_c, 0, 52, 53
2, 95438, Note_on_c, 0, 52, 0
2, 95452, Note_on_c, 0, 76, 67
2, 95458, Note_on_c, 0, 57, 55
2, 95482, Note_on_c, 0, 76, 0
2, 95544, Note_on_c, 0, 57, 0
2, 95574, Note_on_c, 0, 52, 52
2, 95670, Note_on_c, 0, 52, 0
2, 95680, Note_on_c, 0, 71, 68
2, 95693, Note_on_c, 0, 59, 54
2, 95711, Note_on_c, 0, 71, 0
2, 95746, Note_on_c, 0, 59, 0
2, 95807, Note_on_c, 0, 52, 54
2, 95900, Note_on_c, 0, 52, 0
2, 95915, Note_on_c, 0, 81, 73
2, 95933, Note_on_c, 0, 61, 54
2, 96001, Note_on_c, 0, 61, 0
2, 96041, Note_on_c, 0, 52, 54
2, 96117, Note_on_c, 0, 52, 0
2, 96156, Note_on_c, 0, 63, 53
2, 96209, Note_on_c, 0, 63, 0
2, 96257, Note_on_c, 0, 52, 59
2, 96308, Note_on_c, 0, 52, 0
2, 96396, Note_on_c, 0, 64, 50
2, 96406, Note_on_c, 0, 81, 0
2, 96408, Note_on_c, 0, 79, 70
2, 96449, Note_on_c, 0, 79, 0
2, 96482, Note_on_c, 0, 64, 0
2, 96507, Note_on_c, 0, 63, 50
2, 96587, Note_on_c, 0, 63, 0
2, 96629, Note_on_c, 0, 64, 59
2, 96638, Note_on_c, 0, 78, 75
2, 96692, Note_on_c, 0, 78, 0
2, 96722, Note_on_c, 0, 64, 0
2, 96722, Note_on_c, 0, 66, 63
2, 96842, Note_on_c, 0, 66, 0
2, 96857, Note_on_c, 0, 67, 61
2, 96861, Note_on_c, 0, 76, 76
2, 96897, Note_on_c, 0, 76, 0
2, 96943, Note_on_c, 0, 67, 0
2, 96960, Note_on_c, 0, 64, 60
2, 97081, Note_on_c, 0, 64, 0
2, 97088, Note_on_c, 0, 66, 62
2, 97102, Note_on_c, 0, 75, 74
2, 97136, Note_on_c, 0, 75, 0
2, 97195, Note_on_c, 0, 66, 0
2, 97213, Note_on_c, 0, 64, 59
2, 97322, Note_on_c, 0, 64, 0
2, 97324, Note_on_c, 0, 66, 64
2, 97351, Note_on_c, 0, 84, 79
2, 97458, Note_on_c, 0, 67, 62
2, 97460, Note_on_c, 0, 66, 0
2, 97544, Note_on_c, 0, 67, 0
2, 97577, Note_on_c, 0, 69, 58
2, 97692, Note_on_c, 0, 66, 53
2, 97692, Note_on_c, 0, 69, 0
2, 97811, Note_on_c, 0, 66, 0
2, 97815, Note_on_c, 0, 83, 62
2, 97830, Note_on_c, 0, 67, 52
2, 97830, Note_on_c, 0, 84, 0
2, 97877, Note_on_c, 0, 67, 0
2, 97890, Note_on_c, 0, 83, 0
2, 98062, Note_on_c, 0, 69, 55
2, 98066, Note_on_c, 0, 84, 71
2, 98175, Note_on_c, 0, 69, 0
2, 98178, Note_on_c, 0, 67, 54
2, 98183, Note_on_c, 0, 83, 71
2, 98225, Note_on_c, 0, 84, 0
2, 98297, Note_on_c, 0, 66, 60
2, 98300, Note_on_c, 0, 81, 81
2, 98310, Note_on_c, 0, 67, 0
2, 98338, Note_on_c, 0, 83, 0
2, 98402, Note_on_c, 0, 81, 0
2, 98411, Note_on_c, 0, 79, 77
2, 98426, Note_on_c, 0, 64, 50
2, 98430, Note_on_c, 0, 66, 0
2, 98526, Note_on_c, 0, 69, 68
2, 98529, Note_on_c, 0, 78, 79
2, 98539, Note_on_c, 0, 79, 0
2, 98582, Note_on_c, 0, 78, 0
2, 98587, Note_on_c, 0, 64, 0
2, 98785, Note_on_c, 0, 81, 85
2, 98906, Note_on_c, 0, 79, 74
2, 98961, Note_on_c, 0, 81, 0
2, 99029, Note_on_c, 0, 78, 78
2, 99052, Note_on_c, 0, 79, 0
2, 99139, Note_on_c, 0, 76, 72
2, 99140, Note_on_c, 0, 78, 0
2, 99252, Note_on_c, 0, 75, 73
2, 99252, Note_on_c, 0, 76, 0
2, 99308, Note_on_c, 0, 75, 0
2, 99372, Note_on_c, 0, 67, 47
2, 99386, Note_on_c, 0, 69, 0
2, 99474, Note_on_c, 0, 66, 55
2, 99474, Note_on_c, 0, 67, 0
2, 99490, Note_on_c, 0, 81, 75
2, 99558, Note_on_c, 0, 81, 0
2, 99579, Note_on_c, 0, 66, 0
2, 99598, Note_on_c, 0, 69, 60
2, 99730, Note_on_c, 0, 64, 53
2, 99731, Note_on_c, 0, 79, 71
2, 99732, Note_on_c, 0, 69, 0
2, 99785, Note_on_c, 0, 79, 0
2, 99801, Note_on_c, 0, 64, 0
2, 99848, Note_on_c, 0, 69, 63
2, 99932, Note_on_c, 0, 69, 0
2, 99953, Note_on_c, 0, 78, 76
2, 99955, Note_on_c, 0, 63, 51
2, 100014, Note_on_c, 0, 78, 0
2, 100029, Note_on_c, 0, 63, 0
2, 100065, Note_on_c, 0, 69, 56
2, 100152, Note_on_c, 0, 69, 0
2, 100169, Note_on_c, 0, 61, 53
2, 100175, Note_on_c, 0, 76, 71
2, 100221, Note_on_c, 0, 76, 0
2, 100245, Note_on_c, 0, 61, 0
2, 100281, Note_on_c, 0, 69, 59
2, 100367, Note_on_c, 0, 69, 0
2, 100407, Note_on_c, 0, 59, 39
2, 100407, Note_on_c, 0, 75, 65
2, 100457, Note_on_c, 0, 75, 0
2, 100495, Note_on_c, 0, 59, 0
2, 100501, Note_on_c, 0, 69, 60
2, 100618, Note_on_c, 0, 69, 0
2, 100644, Note_on_c, 0, 67, 58
2, 100653, Note_on_c, 0, 76, 63
2, 100692, Note_on_c, 0, 76, 0
2, 100696, Note_on_c, 0, 67, 0
2, 100898, Note_on_c, 0, 74, 59
2, 100907, Note_on_c, 0, 66, 54
2, 100933, Note_on_c, 0, 74, 0
2, 100979, Note_on_c, 0, 66, 0
2, 101002, Note_on_c, 0, 67, 54
2, 101090, Note_on_c, 0, 67, 0
2, 101120, Note_on_c, 0, 69, 58
2, 101127, Note_on_c, 0, 72, 60
2, 101158, Note_on_c, 0, 72, 0
2, 101235, Note_on_c, 0, 69, 0
2, 101239, Note_on_c, 0, 67, 46
2, 101337, Note_on_c, 0, 67, 0
2, 101358, Note_on_c, 0, 66, 48
2, 101371, Note_on_c, 0, 74, 57
2, 101408, Note_on_c, 0, 74, 0
2, 101437, Note_on_c, 0, 66, 0
2, 101600, Note_on_c, 0, 72, 57
2, 101617, Note_on_c, 0, 64, 46
2, 101639, Note_on_c, 0, 72, 0
2, 101686, Note_on_c, 0, 64, 0
2, 101713, Note_on_c, 0, 66, 53
2, 101773, Note_on_c, 0, 66, 0
2, 101831, Note_on_c, 0, 67, 52
2, 101836, Note_on_c, 0, 71, 57
2, 101860, Note_on_c, 0, 71, 0
2, 101944, Note_on_c, 0, 66, 51
2, 101980, Note_on_c, 0, 67, 0
2, 102070, Note_on_c, 0, 66, 0
2, 102078, Note_on_c, 0, 72, 58
2, 102082, Note_on_c, 0, 64, 53
2, 102122, Note_on_c, 0, 64, 0
2, 102138, Note_on_c, 0, 72, 0
2, 102192, Note_on_c, 0, 84, 62
2, 102296, Note_on_c, 0, 84, 0
2, 102307, Note_on_c, 0, 83, 59
2, 102317, Note_on_c, 0, 66, 66
2, 102358, Note_on_c, 0, 66, 0
2, 102416, Note_on_c, 0, 83, 0
2, 102417, Note_on_c, 0, 81, 59
2, 102511, Note_on_c, 0, 81, 0
2, 102525, Note_on_c, 0, 79, 60
2, 102535, Note_on_c, 0, 67, 66
2, 102565, Note_on_c, 0, 67, 0
2, 102613, Note_on_c, 0, 79, 0
2, 102639, Note_on_c, 0, 83, 57
2, 102753, Note_on_c, 0, 83, 0
2, 102764, Note_on_c, 0, 72, 66
2, 102781, Note_on_c, 0, 81, 62
2, 102797, Note_on_c, 0, 72, 0
2, 102848, Note_on_c, 0, 81, 0
2, 102882, Note_on_c, 0, 83, 55
2, 103005, Note_on_c, 0, 83, 0
2, 103007, Note_on_c, 0, 81, 49
2, 103009, Note_on_c, 0, 63, 60
2, 103114, Note_on_c, 0, 81, 0
2, 103143, Note_on_c, 0, 79, 57
2, 103254, Note_on_c, 0, 78, 62
2, 103255, Note_on_c, 0, 79, 0
2, 103340, Note_on_c, 0, 78, 0
2, 103360, Note_on_c, 0, 81, 63
2, 103471, Note_on_c, 0, 81, 0
2, 103477, Note_on_c, 0, 79, 60
2, 103493, Note_on_c, 0, 64, 65
2, 103518, Note_on_c, 0, 63, 0
2, 103542, Note_on_c, 0, 64, 0
2, 103575, Note_on_c, 0, 79, 0
2, 103596, Note_on_c, 0, 81, 65
2, 103709, Note_on_c, 0, 79, 64
2, 103712, Note_on_c, 0, 66, 77
2, 103719, Note_on_c, 0, 81, 0
2, 103765, Note_on_c, 0, 66, 0
2, 103823, Note_on_c, 0, 78, 63
2, 103826, Note_on_c, 0, 79, 0
2, 103914, Note_on_c, 0, 78, 0
2, 103941, Note_on_c, 0, 76, 66
2, 103942, Note_on_c, 0, 67, 72
2, 103978, Note_on_c, 0, 67, 0
2, 104050, Note_on_c, 0, 76, 0
2, 104052, Note_on_c, 0, 79, 63
2, 104162, Note_on_c, 0, 79, 0
2, 104174, Note_on_c, 0, 78, 63
2, 104189, Note_on_c, 0, 69, 66
2, 104216, Note_on_c, 0, 69, 0
2, 104259, Note_on_c, 0, 78, 0
2, 104285, Note_on_c, 0, 79, 61
2, 104413, Note_on_c, 0, 79, 0
2, 104416, Note_on_c, 0, 78, 60
2, 104431, Note_on_c, 0, 59, 52
2, 104519, Note_on_c, 0, 78, 0
2, 104550, Note_on_c, 0, 76, 55
2, 104637, Note_on_c, 0, 76, 0
2, 104659, Note_on_c, 0, 75, 48
2, 104765, Note_on_c, 0, 75, 0
2, 104776, Note_on_c, 0, 78, 51
2, 104874, Note_on_c, 0, 59, 0
2, 104898, Note_on_c, 0, 76, 48
2, 104904, Note_on_c, 0, 78, 0
2, 104915, Note_on_c, 0, 60, 48
2, 104939, Note_on_c, 0, 76, 0
2, 105030, Note_on_c, 0, 60, 0
2, 105042, Note_on_c, 0, 59, 42
2, 105128, Note_on_c, 0, 59, 0
2, 105143, Note_on_c, 0, 78, 64
2, 105165, Note_on_c, 0, 57, 46
2, 105264, Note_on_c, 0, 79, 65
2, 105267, Note_on_c, 0, 59, 58
2, 105270, Note_on_c, 0, 57, 0
2, 105272, Note_on_c, 0, 78, 0
2, 105368, Note_on_c, 0, 81, 67
2, 105374, Note_on_c, 0, 60, 60
2, 105386, Note_on_c, 0, 59, 0
2, 105391, Note_on_c, 0, 79, 0
2, 105475, Note_on_c, 0, 62, 59
2, 105476, Note_on_c, 0, 60, 0
2, 105575, Note_on_c, 0, 62, 0
2, 105595, Note_on_c, 0, 64, 70
2, 105703, Note_on_c, 0, 63, 70
2, 105707, Note_on_c, 0, 64, 0
2, 105819, Note_on_c, 0, 63, 0
2, 105825, Note_on_c, 0, 64, 77
2, 105845, Note_on_c, 0, 79, 78
2, 105862, Note_on_c, 0, 81, 0
2, 105933, Note_on_c, 0, 66, 81
2, 105949, Note_on_c, 0, 81, 77
2, 105950, Note_on_c, 0, 64, 0
2, 105987, Note_on_c, 0, 79, 0
2, 106055, Note_on_c, 0, 83, 75
2, 106058, Note_on_c, 0, 67, 72
2, 106058, Note_on_c, 0, 81, 0
2, 106093, Note_on_c, 0, 66, 0
2, 106131, Note_on_c, 0, 67, 0
2, 106156, Note_on_c, 0, 69, 73
2, 106180, Note_on_c, 0, 69, 0
2, 106301, Note_on_c, 0, 71, 72
2, 106389, Note_on_c, 0, 47, 50
2, 106394, Note_on_c, 0, 83, 0
2, 106461, Note_on_c, 0, 49, 69
2, 106462, Note_on_c, 0, 47, 0
2, 106529, Note_on_c, 0, 51, 71
2, 106529, Note_on_c, 0, 81, 82
2, 106531, Note_on_c, 0, 49, 0
2, 106589, Note_on_c, 0, 81, 0
2, 106660, Note_on_c, 0, 51, 0
2, 106665, Note_on_c, 0, 47, 57
2, 106752, Note_on_c, 0, 47, 0
2, 106767, Note_on_c, 0, 52, 68
2, 106770, Note_on_c, 0, 79, 82
2, 106825, Note_on_c, 0, 79, 0
2, 106842, Note_on_c, 0, 52, 0
2, 106871, Note_on_c, 0, 47, 66
2, 106985, Note_on_c, 0, 47, 0
2, 106988, Note_on_c, 0, 54, 70
2, 106996, Note_on_c, 0, 78, 88
2, 107068, Note_on_c, 0, 71, 0
2, 107091, Note_on_c, 0, 54, 0
2, 107095, Note_on_c, 0, 79, 82
2, 107099, Note_on_c, 0, 47, 66
2, 107121, Note_on_c, 0, 78, 0
2, 107211, Note_on_c, 0, 47, 0
2, 107213, Note_on_c, 0, 81, 85
2, 107219, Note_on_c, 0, 72, 86
2, 107220, Note_on_c, 0, 55, 76
2, 107237, Note_on_c, 0, 79, 0
2, 107255, Note_on_c, 0, 72, 0
2, 107262, Note_on_c, 0, 81, 0
2, 107303, Note_on_c, 0, 55, 0
2, 107324, Note_on_c, 0, 47, 70
2, 107446, Note_on_c, 0, 47, 0
2, 107448, Note_on_c, 0, 75, 84
2, 107449, Note_on_c, 0, 66, 83
2, 107451, Note_on_c, 0, 57, 69
2, 107476, Note_on_c, 0, 66, 0
2, 107508, Note_on_c, 0, 75, 0
2, 107516, Note_on_c, 0, 57, 0
2, 107557, Note_on_c, 0, 47, 67
2, 107678, Note_on_c, 0, 76, 87
2, 107686, Note_on_c, 0, 64, 80
2, 107698, Note_on_c, 0, 55, 66
2, 107742, Note_on_c, 0, 47, 0
2, 107775, Note_on_c, 0, 64, 0
2, 107792, Note_on_c, 0, 66, 78
2, 107817, Note_on_c, 0, 54, 58
2, 107837, Note_on_c, 0, 55, 0
2, 107908, Note_on_c, 0, 67, 81
2, 107915, Note_on_c, 0, 66, 0
2, 107929, Note_on_c, 0, 52, 59
2, 107932, Note_on_c, 0, 54, 0
2, 108014, Note_on_c, 0, 52, 0
2, 108049, Note_on_c, 0, 55, 62
2, 108115, Note_on_c, 0, 76, 0
2, 108152, Note_on_c, 0, 71, 78
2, 108172, Note_on_c, 0, 50, 66
2, 108179, Note_on_c, 0, 55, 0
2, 108200, Note_on_c, 0, 71, 0
2, 108250, Note_on_c, 0, 50, 0
2, 108284, Note_on_c, 0, 55, 60
2, 108392, Note_on_c, 0, 55, 0
2, 108393, Note_on_c, 0, 49, 57
2, 108406, Note_on_c, 0, 69, 82
2, 108458, Note_on_c, 0, 67, 0
2, 108501, Note_on_c, 0, 49, 0
2, 108518, Note_on_c, 0, 55, 62
2, 108524, Note_on_c, 0, 66, 71
2, 108616, Note_on_c, 0, 55, 0
2, 108623, Note_on_c, 0, 47, 60
2, 108630, Note_on_c, 0, 64, 71
2, 108654, Note_on_c, 0, 66, 0
2, 108705, Note_on_c, 0, 47, 0
2, 108735, Note_on_c, 0, 64, 0
2, 108737, Note_on_c, 0, 62, 76
2, 108741, Note_on_c, 0, 55, 61
2, 108832, Note_on_c, 0, 55, 0
2, 108846, Note_on_c, 0, 61, 79
2, 108854, Note_on_c, 0, 45, 57
2, 108873, Note_on_c, 0, 62, 0
2, 108930, Note_on_c, 0, 45, 0
2, 108962, Note_on_c, 0, 64, 73
2, 108968, Note_on_c, 0, 55, 60
2, 108995, Note_on_c, 0, 61, 0
2, 109078, Note_on_c, 0, 55, 0
2, 109078, Note_on_c, 0, 62, 87
2, 109081, Note_on_c, 0, 54, 58
2, 109085, Note_on_c, 0, 64, 0
2, 109191, Note_on_c, 0, 54, 0
2, 109193, Note_on_c, 0, 52, 55
2, 109204, Note_on_c, 0, 64, 77
2, 109207, Note_on_c, 0, 62, 0
2, 109314, Note_on_c, 0, 66, 84
2, 109317, Note_on_c, 0, 52, 0
2, 109317, Note_on_c, 0, 69, 0
2, 109326, Note_on_c, 0, 50, 57
2, 109352, Note_on_c, 0, 64, 0
2, 109408, Note_on_c, 0, 50, 0
2, 109447, Note_on_c, 0, 54, 52
2, 109541, Note_on_c, 0, 69, 74
2, 109547, Note_on_c, 0, 54, 0
2, 109549, Note_on_c, 0, 49, 62
2, 109586, Note_on_c, 0, 69, 0
2, 109654, Note_on_c, 0, 49, 0
2, 109668, Note_on_c, 0, 54, 62
2, 109783, Note_on_c, 0, 54, 0
2, 109799, Note_on_c, 0, 47, 56
2, 109809, Note_on_c, 0, 67, 75
2, 109818, Note_on_c, 0, 66, 0
2, 109913, Note_on_c, 0, 47, 0
2, 109927, Note_on_c, 0, 64, 60
2, 109928, Note_on_c, 0, 54, 57
2, 110011, Note_on_c, 0, 64, 0
2, 110029, Note_on_c, 0, 54, 0
2, 110029, Note_on_c, 0, 62, 68
2, 110052, Note_on_c, 0, 45, 54
2, 110115, Note_on_c, 0, 45, 0
2, 110128, Note_on_c, 0, 62, 0
2, 110136, Note_on_c, 0, 61, 65
2, 110159, Note_on_c, 0, 54, 61
2, 110211, Note_on_c, 0, 54, 0
2, 110254, Note_on_c, 0, 59, 72
2, 110254, Note_on_c, 0, 61, 0
2, 110264, Note_on_c, 0, 43, 52
2, 110326, Note_on_c, 0, 43, 0
2, 110365, Note_on_c, 0, 54, 57
2, 110369, Note_on_c, 0, 59, 0
2, 110370, Note_on_c, 0, 62, 68
2, 110415, Note_on_c, 0, 54, 0
2, 110476, Note_on_c, 0, 62, 0
2, 110478, Note_on_c, 0, 61, 74
2, 110503, Note_on_c, 0, 52, 62
2, 110585, Note_on_c, 0, 61, 0
2, 110596, Note_on_c, 0, 62, 73
2, 110598, Note_on_c, 0, 52, 0
2, 110623, Note_on_c, 0, 50, 47
2, 110690, Note_on_c, 0, 62, 0
2, 110717, Note_on_c, 0, 49, 49
2, 110717, Note_on_c, 0, 67, 0
2, 110718, Note_on_c, 0, 64, 64
2, 110747, Note_on_c, 0, 50, 0
2, 110817, Note_on_c, 0, 49, 0
2, 110843, Note_on_c, 0, 52, 54
2, 110946, Note_on_c, 0, 67, 61
2, 110947, Note_on_c, 0, 52, 0
2, 110958, Note_on_c, 0, 47, 57
2, 110987, Note_on_c, 0, 67, 0
2, 111022, Note_on_c, 0, 47, 0
2, 111079, Note_on_c, 0, 52, 57
2, 111137, Note_on_c, 0, 52, 0
2, 111142, Note_on_c, 0, 64, 0
2, 111177, Note_on_c, 0, 46, 50
2, 111184, Note_on_c, 0, 66, 60
2, 111255, Note_on_c, 0, 46, 0
2, 111295, Note_on_c, 0, 52, 50
2, 111307, Note_on_c, 0, 62, 55
2, 111398, Note_on_c, 0, 61, 57
2, 111398, Note_on_c, 0, 62, 0
2, 111400, Note_on_c, 0, 52, 0
2, 111408, Note_on_c, 0, 44, 47
2, 111476, Note_on_c, 0, 61, 0
2, 111487, Note_on_c, 0, 44, 0
2, 111497, Note_on_c, 0, 59, 60
2, 111525, Note_on_c, 0, 52, 58
2, 111587, Note_on_c, 0, 52, 0
2, 111616, Note_on_c, 0, 58, 56
2, 111619, Note_on_c, 0, 42, 55
2, 111631, Note_on_c, 0, 66, 0
2, 111669, Note_on_c, 0, 59, 0
2, 111691, Note_on_c, 0, 42, 0
2, 111727, Note_on_c, 0, 61, 56
2, 111728, Note_on_c, 0, 52, 59
2, 111751, Note_on_c, 0, 58, 0
2, 111805, Note_on_c, 0, 61, 0
2, 111827, Note_on_c, 0, 52, 0
2, 111855, Note_on_c, 0, 59, 54
2, 111857, Note_on_c, 0, 50, 43
2, 111934, Note_on_c, 0, 59, 0
2, 111942, Note_on_c, 0, 50, 0
2, 111965, Note_on_c, 0, 54, 54
2, 111990, Note_on_c, 0, 71, 61
2, 112048, Note_on_c, 0, 54, 0
2, 112085, Note_on_c, 0, 52, 59
2, 112100, Note_on_c, 0, 71, 0
2, 112105, Note_on_c, 0, 73, 68
2, 112181, Note_on_c, 0, 52, 0
2, 112203, Note_on_c, 0, 50, 54
2, 112212, Note_on_c, 0, 71, 68
2, 112214, Note_on_c, 0, 73, 0
2, 112313, Note_on_c, 0, 49, 55
2, 112314, Note_on_c, 0, 50, 0
2, 112322, Note_on_c, 0, 70, 68
2, 112342, Note_on_c, 0, 71, 0
2, 112422, Note_on_c, 0, 49, 0
2, 112430, Note_on_c, 0, 70, 0
2, 112435, Note_on_c, 0, 47, 58
2, 112435, Note_on_c, 0, 71, 56
2, 112544, Note_on_c, 0, 47, 0
2, 112545, Note_on_c, 0, 73, 70
2, 112551, Note_on_c, 0, 71, 0
2, 112559, Note_on_c, 0, 46, 56
2, 112602, Note_on_c, 0, 73, 0
2, 112652, Note_on_c, 0, 46, 0
2, 112669, Note_on_c, 0, 49, 54
2, 112753, Note_on_c, 0, 49, 0
2, 112788, Note_on_c, 0, 47, 58
2, 112794, Note_on_c, 0, 74, 54
2, 112894, Note_on_c, 0, 74, 0
2, 112895, Note_on_c, 0, 47, 0
2, 112895, Note_on_c, 0, 73, 61
2, 112916, Note_on_c, 0, 46, 53
2, 112975, Note_on_c, 0, 73, 0
2, 112996, Note_on_c, 0, 46, 0
2, 113006, Note_on_c, 0, 71, 55
2, 113012, Note_on_c, 0, 44, 51
2, 113090, Note_on_c, 0, 44, 0
2, 113122, Note_on_c, 0, 71, 0
2, 113125, Note_on_c, 0, 73, 51
2, 113132, Note_on_c, 0, 42, 45
2, 113258, Note_on_c, 0, 47, 52
2, 113276, Note_on_c, 0, 73, 0
2, 113279, Note_on_c, 0, 42, 0
2, 113279, Note_on_c, 0, 74, 52
2, 113345, Note_on_c, 0, 74, 0
2, 113347, Note_on_c, 0, 47, 0
2, 113522, Note_on_c, 0, 49, 58
2, 113525, Note_on_c, 0, 73, 63
2, 113566, Note_on_c, 0, 73, 0
2, 113618, Note_on_c, 0, 49, 0
2, 113622, Note_on_c, 0, 47, 67
2, 113734, Note_on_c, 0, 46, 72
2, 113741, Note_on_c, 0, 47, 0
2, 113752, Note_on_c, 0, 71, 71
2, 113796, Note_on_c, 0, 71, 0
2, 113853, Note_on_c, 0, 47, 75
2, 113877, Note_on_c, 0, 46, 0
2, 113977, Note_on_c, 0, 49, 75
2, 113988, Note_on_c, 0, 70, 78
2, 114007, Note_on_c, 0, 47, 0
2, 114025, Note_on_c, 0, 70, 0
2, 114056, Note_on_c, 0, 49, 0
2, 114223, Note_on_c, 0, 79, 84
2, 114233, Note_on_c, 0, 50, 70
2, 114349, Note_on_c, 0, 49, 72
2, 114365, Note_on_c, 0, 50, 0
2, 114460, Note_on_c, 0, 47, 70
2, 114470, Note_on_c, 0, 49, 0
2, 114578, Note_on_c, 0, 49, 79
2, 114611, Note_on_c, 0, 47, 0
2, 114700, Note_on_c, 0, 50, 78
2, 114716, Note_on_c, 0, 78, 77
2, 114728, Note_on_c, 0, 49, 0
2, 114746, Note_on_c, 0, 79, 0
2, 114751, Note_on_c, 0, 50, 0
2, 114756, Note_on_c, 0, 78, 0
2, 114940, Note_on_c, 0, 49, 71
2, 114947, Note_on_c, 0, 79, 80
2, 114988, Note_on_c, 0, 49, 0
2, 115062, Note_on_c, 0, 78, 75
2, 115166, Note_on_c, 0, 79, 0
2, 115170, Note_on_c, 0, 47, 67
2, 115178, Note_on_c, 0, 76, 76
2, 115213, Note_on_c, 0, 78, 0
2, 115217, Note_on_c, 0, 47, 0
2, 115277, Note_on_c, 0, 76, 0
2, 115285, Note_on_c, 0, 74, 76
2, 115397, Note_on_c, 0, 46, 67
2, 115412, Note_on_c, 0, 73, 79
2, 115429, Note_on_c, 0, 74, 0
2, 115440, Note_on_c, 0, 46, 0
2, 115453, Note_on_c, 0, 73, 0
2, 115652, Note_on_c, 0, 55, 62
2, 115657, Note_on_c, 0, 76, 68
2, 115771, Note_on_c, 0, 74, 65
2, 115808, Note_on_c, 0, 76, 0
2, 115882, Note_on_c, 0, 74, 0
2, 115893, Note_on_c, 0, 73, 65
2, 115996, Note_on_c, 0, 73, 0
2, 116018, Note_on_c, 0, 71, 58
2, 116122, Note_on_c, 0, 71, 0
2, 116135, Note_on_c, 0, 70, 58
2, 116150, Note_on_c, 0, 54, 42
2, 116180, Note_on_c, 0, 55, 0
2, 116229, Note_on_c, 0, 70, 0
2, 116249, Note_on_c, 0, 71, 59
2, 116265, Note_on_c, 0, 54, 0
2, 116269, Note_on_c, 0, 56, 52
2, 116355, Note_on_c, 0, 71, 0
2, 116365, Note_on_c, 0, 73, 62
2, 116379, Note_on_c, 0, 58, 59
2, 116388, Note_on_c, 0, 56, 0
2, 116461, Note_on_c, 0, 73, 0
2, 116467, Note_on_c, 0, 58, 0
2, 116479, Note_on_c, 0, 54, 58
2, 116480, Note_on_c, 0, 70, 70
2, 116579, Note_on_c, 0, 54, 0
2, 116609, Note_on_c, 0, 70, 0
2, 116612, Note_on_c, 0, 74, 69
2, 116618, Note_on_c, 0, 59, 61
2, 116708, Note_on_c, 0, 59, 0
2, 116709, Note_on_c, 0, 54, 61
2, 116714, Note_on_c, 0, 74, 0
2, 116715, Note_on_c, 0, 70, 75
2, 116831, Note_on_c, 0, 54, 0
2, 116831, Note_on_c, 0, 61, 67
2, 116834, Note_on_c, 0, 76, 85
2, 116848, Note_on_c, 0, 70, 0
2, 116929, Note_on_c, 0, 61, 0
2, 116946, Note_on_c, 0, 54, 60
2, 116948, Note_on_c, 0, 76, 0
2, 116955, Note_on_c, 0, 70, 74
2, 117043, Note_on_c, 0, 54, 0
2, 117059, Note_on_c, 0, 62, 67
2, 117065, Note_on_c, 0, 78, 86
2, 117073, Note_on_c, 0, 70, 0
2, 117141, Note_on_c, 0, 62, 0
2, 117165, Note_on_c, 0, 54, 63
2, 117183, Note_on_c, 0, 70, 76
2, 117193, Note_on_c, 0, 78, 0
2, 117256, Note_on_c, 0, 54, 0
2, 117275, Note_on_c, 0, 70, 0
2, 117281, Note_on_c, 0, 64, 58
2, 117291, Note_on_c, 0, 79, 76
2, 117369, Note_on_c, 0, 64, 0
2, 117399, Note_on_c, 0, 54, 56
2, 117399, Note_on_c, 0, 79, 0
2, 117403, Note_on_c, 0, 70, 66
2, 117496, Note_on_c, 0, 54, 0
2, 117541, Note_on_c, 0, 62, 61
2, 117543, Note_on_c, 0, 78, 82
2, 117568, Note_on_c, 0, 70, 0
2, 117645, Note_on_c, 0, 54, 57
2, 117657, Note_on_c, 0, 70, 69
2, 117664, Note_on_c, 0, 62, 0
2, 117689, Note_on_c, 0, 78, 0
2, 117775, Note_on_c, 0, 71, 72
2, 117781, Note_on_c, 0, 54, 0
2, 117781, Note_on_c, 0, 55, 59
2, 117789, Note_on_c, 0, 70, 0
2, 117868, Note_on_c, 0, 71, 0
2, 117889, Note_on_c, 0, 55, 0
2, 117893, Note_on_c, 0, 78, 74
2, 117896, Note_on_c, 0, 62, 47
2, 117922, Note_on_c, 0, 62, 0
2, 117952, Note_on_c, 0, 78, 0
2, 118009, Note_on_c, 0, 61, 77
2, 118009, Note_on_c, 0, 76, 79
2, 118070, Note_on_c, 0, 61, 0
2, 118075, Note_on_c, 0, 74, 71
2, 118087, Note_on_c, 0, 76, 0
2, 118088, Note_on_c, 0, 59, 56
2, 118122, Note_on_c, 0, 74, 0
2, 118137, Note_on_c, 0, 58, 62
2, 118137, Note_on_c, 0, 73, 75
2, 118150, Note_on_c, 0, 59, 0
2, 118198, Note_on_c, 0, 74, 63
2, 118208, Note_on_c, 0, 59, 62
2, 118223, Note_on_c, 0, 58, 0
2, 118232, Note_on_c, 0, 73, 0
2, 118250, Note_on_c, 0, 76, 83
2, 118267, Note_on_c, 0, 74, 0
2, 118274, Note_on_c, 0, 59, 0
2, 118274, Note_on_c, 0, 61, 69
2, 118370, Note_on_c, 0, 61, 0
2, 118371, Note_on_c, 0, 68, 84
2, 118382, Note_on_c, 0, 52, 69
2, 118418, Note_on_c, 0, 76, 0
2, 118486, Note_on_c, 0, 70, 77
2, 118489, Note_on_c, 0, 52, 0
2, 118491, Note_on_c, 0, 54, 70
2, 118527, Note_on_c, 0, 68, 0
2, 118601, Note_on_c, 0, 61, 75
2, 118601, Note_on_c, 0, 70, 0
2, 118601, Note_on_c, 0, 76, 80
2, 118619, Note_on_c, 0, 54, 0
2, 118637, Note_on_c, 0, 61, 0
2, 118685, Note_on_c, 0, 76, 0
2, 118705, Note_on_c, 0, 74, 75
2, 118712, Note_on_c, 0, 59, 75
2, 118763, Note_on_c, 0, 73, 77
2, 118772, Note_on_c, 0, 59, 0
2, 118778, Note_on_c, 0, 74, 0
2, 118782, Note_on_c, 0, 58, 66
2, 118822, Note_on_c, 0, 73, 0
2, 118830, Note_on_c, 0, 71, 72
2, 118840, Note_on_c, 0, 58, 0
2, 118843, Note_on_c, 0, 56, 70
2, 118879, Note_on_c, 0, 73, 64
2, 118890, Note_on_c, 0, 71, 0
2, 118929, Note_on_c, 0, 58, 59
2, 118931, Note_on_c, 0, 56, 0
2, 118956, Note_on_c, 0, 73, 0
2, 118962, Note_on_c, 0, 74, 68
2, 118971, Note_on_c, 0, 58, 0
2, 118998, Note_on_c, 0, 59, 66
2, 119112, Note_on_c, 0, 59, 0
2, 119114, Note_on_c, 0, 61, 66
2, 119222, Note_on_c, 0, 62, 74
2, 119231, Note_on_c, 0, 61, 0
2, 119334, Note_on_c, 0, 59, 62
2, 119340, Note_on_c, 0, 62, 0
2, 119433, Note_on_c, 0, 59, 0
2, 119446, Note_on_c, 0, 64, 71
2, 119555, Note_on_c, 0, 59, 66
2, 119568, Note_on_c, 0, 64, 0
2, 119677, Note_on_c, 0, 66, 71
2, 119705, Note_on_c, 0, 59, 0
2, 119807, Note_on_c, 0, 59, 61
2, 119819, Note_on_c, 0, 66, 0
2, 119858, Note_on_c, 0, 59, 0
2, 119907, Note_on_c, 0, 68, 73
2, 119966, Note_on_c, 0, 68, 0
2, 120045, Note_on_c, 0, 59, 58
2, 120100, Note_on_c, 0, 59, 0
2, 120131, Note_on_c, 0, 69, 68
2, 120145, Note_on_c, 0, 47, 58
2, 120178, Note_on_c, 0, 69, 0
2, 120222, Note_on_c, 0, 47, 0
2, 120248, Note_on_c, 0, 59, 58
2, 120348, Note_on_c, 0, 59, 0
2, 120369, Note_on_c, 0, 52, 54
2, 120381, Note_on_c, 0, 68, 68
2, 120421, Note_on_c, 0, 68, 0
2, 120490, Note_on_c, 0, 52, 0
2, 120501, Note_on_c, 0, 54, 54
2, 120622, Note_on_c, 0, 56, 59
2, 120622, Note_on_c, 0, 64, 64
2, 120625, Note_on_c, 0, 54, 0
2, 120663, Note_on_c, 0, 64, 0
2, 120714, Note_on_c, 0, 56, 0
2, 120732, Note_on_c, 0, 52, 52
2, 120825, Note_on_c, 0, 52, 0
2, 120838, Note_on_c, 0, 57, 65
2, 120842, Note_on_c, 0, 66, 68
2, 120880, Note_on_c, 0, 66, 0
2, 120920, Note_on_c, 0, 57, 0
2, 120953, Note_on_c, 0, 52, 61
2, 121054, Note_on_c, 0, 52, 0
2, 121083, Note_on_c, 0, 59, 50
2, 121089, Note_on_c, 0, 68, 66
2, 121123, Note_on_c, 0, 68, 0
2, 121157, Note_on_c, 0, 59, 0
2, 121186, Note_on_c, 0, 52, 56
2, 121298, Note_on_c, 0, 52, 0
2, 121320, Note_on_c, 0, 61, 59
2, 121327, Note_on_c, 0, 69, 66
2, 121372, Note_on_c, 0, 69, 0
2, 121384, Note_on_c, 0, 61, 0
2, 121433, Note_on_c, 0, 52, 57
2, 121518, Note_on_c, 0, 52, 0
2, 121547, Note_on_c, 0, 62, 55
2, 121559, Note_on_c, 0, 71, 61
2, 121568, Note_on_c, 0, 74, 0
2, 121597, Note_on_c, 0, 71, 0
2, 121600, Note_on_c, 0, 62, 0
2, 121656, Note_on_c, 0, 52, 56
2, 121713, Note_on_c, 0, 52, 0
2, 121806, Note_on_c, 0, 61, 53
2, 121814, Note_on_c, 0, 64, 51
2, 121926, Note_on_c, 0, 66, 58
2, 121981, Note_on_c, 0, 64, 0
2, 121983, Note_on_c, 0, 68, 53
2, 122001, Note_on_c, 0, 66, 0
2, 122023, Note_on_c, 0, 68, 0
2, 122038, Note_on_c, 0, 69, 74
2, 122154, Note_on_c, 0, 69, 0
2, 122157, Note_on_c, 0, 61, 0
2, 122185, Note_on_c, 0, 64, 57
2, 122186, Note_on_c, 0, 62, 62
2, 122292, Note_on_c, 0, 61, 54
2, 122302, Note_on_c, 0, 62, 0
2, 122302, Note_on_c, 0, 71, 63
2, 122309, Note_on_c, 0, 64, 0
2, 122381, Note_on_c, 0, 71, 0
2, 122396, Note_on_c, 0, 61, 0
2, 122411, Note_on_c, 0, 59, 57
2, 122422, Note_on_c, 0, 64, 58
2, 122527, Note_on_c, 0, 73, 71
2, 122533, Note_on_c, 0, 64, 0
2, 122536, Note_on_c, 0, 57, 60
2, 122543, Note_on_c, 0, 59, 0
2, 122619, Note_on_c, 0, 57, 0
2, 122643, Note_on_c, 0, 73, 0
2, 122652, Note_on_c, 0, 64, 65
2, 122656, Note_on_c, 0, 59, 69
2, 122749, Note_on_c, 0, 59, 0
2, 122766, Note_on_c, 0, 57, 66
2, 122766, Note_on_c, 0, 74, 78
2, 122839, Note_on_c, 0, 57, 0
2, 122883, Note_on_c, 0, 55, 67
2, 122889, Note_on_c, 0, 66, 74
2, 122904, Note_on_c, 0, 74, 0
2, 122907, Note_on_c, 0, 64, 0
2, 122963, Note_on_c, 0, 55, 0
2, 122983, Note_on_c, 0, 54, 63
2, 122990, Note_on_c, 0, 66, 0
2, 123008, Note_on_c, 0, 76, 81
2, 123023, Note_on_c, 0, 49, 50
2, 123087, Note_on_c, 0, 49, 0
2, 123090, Note_on_c, 0, 54, 0
2, 123115, Note_on_c, 0, 52, 70
2, 123117, Note_on_c, 0, 76, 0
2, 123126, Note_on_c, 0, 67, 71
2, 123232, Note_on_c, 0, 52, 0
2, 123233, Note_on_c, 0, 50, 74
2, 123236, Note_on_c, 0, 67, 0
2, 123238, Note_on_c, 0, 66, 76
2, 123325, Note_on_c, 0, 66, 0
2, 123353, Note_on_c, 0, 67, 60
2, 123414, Note_on_c, 0, 69, 75
2, 123416, Note_on_c, 0, 67, 0
2, 123476, Note_on_c, 0, 71, 71
2, 123490, Note_on_c, 0, 69, 0
2, 123574, Note_on_c, 0, 71, 0
2, 123588, Note_on_c, 0, 52, 66
2, 123597, Note_on_c, 0, 50, 0
2, 123597, Note_on_c, 0, 66, 82
2, 123704, Note_on_c, 0, 50, 76
2, 123704, Note_on_c, 0, 52, 0
2, 123708, Note_on_c, 0, 73, 81
2, 123720, Note_on_c, 0, 66, 0
2, 123809, Note_on_c, 0, 49, 73
2, 123810, Note_on_c, 0, 73, 0
2, 123812, Note_on_c, 0, 50, 0
2, 123823, Note_on_c, 0, 66, 86
2, 123901, Note_on_c, 0, 66, 0
2, 123934, Note_on_c, 0, 47, 85
2, 123934, Note_on_c, 0, 49, 0
2, 123935, Note_on_c, 0, 74, 82
2, 124041, Note_on_c, 0, 47, 0
2, 124041, Note_on_c, 0, 49, 76
2, 124043, Note_on_c, 0, 74, 0
2, 124053, Note_on_c, 0, 66, 78
2, 124135, Note_on_c, 0, 66, 0
2, 124138, Note_on_c, 0, 49, 0
2, 124145, Note_on_c, 0, 47, 83
2, 124160, Note_on_c, 0, 76, 82
2, 124243, Note_on_c, 0, 47, 0
2, 124246, Note_on_c, 0, 45, 76
2, 124260, Note_on_c, 0, 76, 0
2, 124276, Note_on_c, 0, 67, 70
2, 124355, Note_on_c, 0, 67, 0
2, 124359, Note_on_c, 0, 43, 75
2, 124386, Note_on_c, 0, 78, 84
2, 124388, Note_on_c, 0, 45, 0
2, 124479, Note_on_c, 0, 42, 66
2, 124481, Note_on_c, 0, 78, 0
2, 124506, Note_on_c, 0, 69, 75
2, 124531, Note_on_c, 0, 43, 0
2, 124579, Note_on_c, 0, 69, 0
2, 124619, Note_on_c, 0, 40, 82
2, 124622, Note_on_c, 0, 67, 84
2, 124649, Note_on_c, 0, 42, 0
2, 124667, Note_on_c, 0, 40, 0
2, 124751, Note_on_c, 0, 66, 70
2, 124772, Note_on_c, 0, 67, 0
2, 124845, Note_on_c, 0, 66, 0
2, 124862, Note_on_c, 0, 50, 84
2, 124866, Note_on_c, 0, 67, 82
2, 124893, Note_on_c, 0, 50, 0
2, 124978, Note_on_c, 0, 71, 66
2, 125002, Note_on_c, 0, 67, 0
2, 125093, Note_on_c, 0, 49, 83
2, 125102, Note_on_c, 0, 76, 80
2, 125117, Note_on_c, 0, 71, 0
2, 125144, Note_on_c, 0, 49, 0
2, 125224, Note_on_c, 0, 67, 63
2, 125286, Note_on_c, 0, 76, 0
2, 125337, Note_on_c, 0, 50, 87
2, 125349, Note_on_c, 0, 66, 75
2, 125362, Note_on_c, 0, 67, 0
2, 125374, Note_on_c, 0, 50, 0
2, 125463, Note_on_c, 0, 71, 63
2, 125464, Note_on_c, 0, 66, 0
2, 125560, Note_on_c, 0, 71, 0
2, 125576, Note_on_c, 0, 52, 87
2, 125583, Note_on_c, 0, 69, 72
2, 125702, Note_on_c, 0, 73, 69
2, 125709, Note_on_c, 0, 50, 66
2, 125736, Note_on_c, 0, 52, 0
2, 125738, Note_on_c, 0, 69, 0
2, 125821, Note_on_c, 0, 74, 79
2, 125836, Note_on_c, 0, 49, 78
2, 125838, Note_on_c, 0, 73, 0
2, 125855, Note_on_c, 0, 50, 0
2, 125940, Note_on_c, 0, 50, 73
2, 125966, Note_on_c, 0, 49, 0
2, 126074, Note_on_c, 0, 52, 85
2, 126077, Note_on_c, 0, 43, 70
2, 126096, Note_on_c, 0, 50, 0
2, 126120, Note_on_c, 0, 43, 0
2, 126129, Note_on_c, 0, 52, 0
2, 126310, Note_on_c, 0, 54, 75
2, 126327, Note_on_c, 0, 73, 81
2, 126330, Note_on_c, 0, 45, 67
2, 126389, Note_on_c, 0, 74, 0
2, 126405, Note_on_c, 0, 54, 0
2, 126446, Note_on_c, 0, 52, 78
2, 126518, Note_on_c, 0, 52, 0
2, 126543, Note_on_c, 0, 50, 67
2, 126651, Note_on_c, 0, 50, 0
2, 126654, Note_on_c, 0, 52, 76
2, 126779, Note_on_c, 0, 50, 64
2, 126781, Note_on_c, 0, 54, 69
2, 126790, Note_on_c, 0, 52, 0
2, 126798, Note_on_c, 0, 74, 70
2, 126821, Note_on_c, 0, 73, 0
2, 126824, Note_on_c, 0, 54, 0
2, 126830, Note_on_c, 0, 50, 0
2, 126842, Note_on_c, 0, 45, 0
2, 126842, Note_on_c, 0, 74, 0
2, 127032, Note_on_c, 0, 52, 69
2, 127041, Note_on_c, 0, 76, 77
2, 127047, Note_on_c, 0, 49, 54
2, 127064, Note_on_c, 0, 52, 0
2, 127079, Note_on_c, 0, 49, 0
2, 127139, Note_on_c, 0, 74, 73
2, 127160, Note_on_c, 0, 76, 0
2, 127256, Note_on_c, 0, 73, 81
2, 127259, Note_on_c, 0, 50, 65
2, 127263, Note_on_c, 0, 47, 61
2, 127272, Note_on_c, 0, 74, 0
2, 127297, Note_on_c, 0, 50, 0
2, 127313, Note_on_c, 0, 47, 0
2, 127382, Note_on_c, 0, 73, 0
2, 127382, Note_on_c, 0, 74, 75
2, 127498, Note_on_c, 0, 45, 59
2, 127505, Note_on_c, 0, 76, 82
2, 127506, Note_on_c, 0, 49, 72
2, 127512, Note_on_c, 0, 74, 0
2, 127553, Note_on_c, 0, 76, 0
2, 127568, Note_on_c, 0, 49, 0
2, 127773, Note_on_c, 0, 59, 78
2, 127783, Note_on_c, 0, 78, 80
2, 127894, Note_on_c, 0, 76, 77
2, 127926, Note_on_c, 0, 78, 0
2, 128004, Note_on_c, 0, 74, 81
2, 128007, Note_on_c, 0, 76, 0
2, 128118, Note_on_c, 0, 76, 82
2, 128159, Note_on_c, 0, 74, 0
2, 128203, Note_on_c, 0, 59, 0
2, 128249, Note_on_c, 0, 78, 88
2, 128253, Note_on_c, 0, 57, 67
2, 128281, Note_on_c, 0, 76, 0
2, 128323, Note_on_c, 0, 57, 0
2, 128344, Note_on_c, 0, 78, 0
2, 128494, Note_on_c, 0, 79, 78
2, 128500, Note_on_c, 0, 59, 65
2, 128565, Note_on_c, 0, 59, 0
2, 128609, Note_on_c, 0, 78, 88
2, 128613, Note_on_c, 0, 57, 71
2, 128643, Note_on_c, 0, 79, 0
2, 128685, Note_on_c, 0, 57, 0
2, 128710, Note_on_c, 0, 76, 84
2, 128723, Note_on_c, 0, 55, 64
2, 128732, Note_on_c, 0, 78, 0
2, 128808, Note_on_c, 0, 74, 81
2, 128808, Note_on_c, 0, 76, 0
2, 128854, Note_on_c, 0, 54, 67
2, 128892, Note_on_c, 0, 55, 0
2, 128908, Note_on_c, 0, 74, 0
2, 128937, Note_on_c, 0, 73, 83
2, 128963, Note_on_c, 0, 52, 66
2, 128988, Note_on_c, 0, 73, 0
2, 128994, Note_on_c, 0, 54, 0
2, 129195, Note_on_c, 0, 83, 86
2, 129197, Note_on_c, 0, 55, 65
2, 129256, Note_on_c, 0, 52, 0
2, 129305, Note_on_c, 0, 54, 64
2, 129309, Note_on_c, 0, 55, 0
2, 129390, Note_on_c, 0, 54, 0
2, 129421, Note_on_c, 0, 52, 69
2, 129523, Note_on_c, 0, 50, 74
2, 129529, Note_on_c, 0, 52, 0
2, 129635, Note_on_c, 0, 49, 70
2, 129659, Note_on_c, 0, 50, 0
2, 129775, Note_on_c, 0, 81, 78
2, 129783, Note_on_c, 0, 83, 0
2, 129890, Note_on_c, 0, 83, 77
2, 129896, Note_on_c, 0, 81, 0
2, 130001, Note_on_c, 0, 81, 78
2, 130024, Note_on_c, 0, 83, 0
2, 130122, Note_on_c, 0, 79, 69
2, 130128, Note_on_c, 0, 50, 60
2, 130139, Note_on_c, 0, 81, 0
2, 130209, Note_on_c, 0, 49, 0
2, 130231, Note_on_c, 0, 78, 75
2, 130232, Note_on_c, 0, 79, 0
2, 130258, Note_on_c, 0, 78, 0
2, 130313, Note_on_c, 0, 50, 0
2, 130361, Note_on_c, 0, 78, 71
2, 130404, Note_on_c, 0, 78, 0
2, 130459, Note_on_c, 0, 76, 61
2, 130483, Note_on_c, 0, 76, 0
2, 130508, Note_on_c, 0, 55, 62
2, 130520, Note_on_c, 0, 78, 57
2, 130545, Note_on_c, 0, 78, 0
2, 130554, Note_on_c, 0, 55, 0
2, 130577, Note_on_c, 0, 54, 57
2, 130579, Note_on_c, 0, 76, 55
2, 130606, Note_on_c, 0, 76, 0
2, 130619, Note_on_c, 0, 78, 71
2, 130634, Note_on_c, 0, 54, 0
2, 130642, Note_on_c, 0, 52, 60
2, 130658, Note_on_c, 0, 78, 0
2, 130686, Note_on_c, 0, 76, 72
2, 130716, Note_on_c, 0, 52, 0
2, 130721, Note_on_c, 0, 76, 0
2, 130738, Note_on_c, 0, 55, 56
2, 130739, Note_on_c, 0, 78, 62
2, 130778, Note_on_c, 0, 78, 0
2, 130799, Note_on_c, 0, 76, 63
2, 130823, Note_on_c, 0, 76, 0
2, 130828, Note_on_c, 0, 55, 0
2, 130833, Note_on_c, 0, 50, 59
2, 130840, Note_on_c, 0, 78, 59
2, 130873, Note_on_c, 0, 78, 0
2, 130893, Note_on_c, 0, 76, 76
2, 130920, Note_on_c, 0, 50, 0
2, 130936, Note_on_c, 0, 76, 0
2, 130936, Note_on_c, 0, 78, 74
2, 130951, Note_on_c, 0, 55, 72
2, 130985, Note_on_c, 0, 78, 0
2, 130994, Note_on_c, 0, 76, 68
2, 131032, Note_on_c, 0, 76, 0
2, 131037, Note_on_c, 0, 78, 66
2, 131050, Note_on_c, 0, 49, 65
2, 131081, Note_on_c, 0, 55, 0
2, 131095, Note_on_c, 0, 78, 0
2, 131099, Note_on_c, 0, 76, 73
2, 131141, Note_on_c, 0, 76, 0
2, 131141, Note_on_c, 0, 78, 67
2, 131152, Note_on_c, 0, 49, 0
2, 131165, Note_on_c, 0, 55, 66
2, 131200, Note_on_c, 0, 78, 0
2, 131204, Note_on_c, 0, 76, 72
2, 131247, Note_on_c, 0, 78, 71
2, 131255, Note_on_c, 0, 76, 0
2, 131284, Note_on_c, 0, 47, 62
2, 131297, Note_on_c, 0, 76, 59
2, 131300, Note_on_c, 0, 78, 0
2, 131303, Note_on_c, 0, 55, 0
2, 131313, Note_on_c, 0, 45, 0
2, 131343, Note_on_c, 0, 78, 67
2, 131352, Note_on_c, 0, 76, 0
2, 131388, Note_on_c, 0, 76, 64
2, 131403, Note_on_c, 0, 47, 0
2, 131404, Note_on_c, 0, 78, 0
2, 131428, Note_on_c, 0, 55, 58
2, 131538, Note_on_c, 0, 55, 0
2, 131550, Note_on_c, 0, 45, 55
2, 131659, Note_on_c, 0, 45, 0
2, 131676, Note_on_c, 0, 55, 54
2, 131814, Note_on_c, 0, 54, 60
2, 131816, Note_on_c, 0, 55, 0
2, 131955, Note_on_c, 0, 55, 47
2, 131984, Note_on_c, 0, 81, 61
2, 131985, Note_on_c, 0, 54, 0
2, 132027, Note_on_c, 0, 76, 0
2, 132035, Note_on_c, 0, 79, 65
2, 132049, Note_on_c, 0, 55, 0
2, 132057, Note_on_c, 0, 81, 0
2, 132084, Note_on_c, 0, 57, 54
2, 132094, Note_on_c, 0, 78, 68
2, 132113, Note_on_c, 0, 79, 0
2, 132223, Note_on_c, 0, 52, 52
2, 132230, Note_on_c, 0, 81, 65
2, 132231, Note_on_c, 0, 78, 0
2, 132242, Note_on_c, 0, 57, 0
2, 132333, Note_on_c, 0, 76, 69
2, 132336, Note_on_c, 0, 50, 60
2, 132343, Note_on_c, 0, 81, 0
2, 132357, Note_on_c, 0, 52, 0
2, 132455, Note_on_c, 0, 81, 76
2, 132459, Note_on_c, 0, 49, 58
2, 132468, Note_on_c, 0, 76, 0
2, 132510, Note_on_c, 0, 50, 0
2, 132574, Note_on_c, 0, 74, 70
2, 132585, Note_on_c, 0, 81, 0
2, 132590, Note_on_c, 0, 47, 62
2, 132640, Note_on_c, 0, 49, 0
2, 132693, Note_on_c, 0, 55, 73
2, 132701, Note_on_c, 0, 81, 77
2, 132718, Note_on_c, 0, 74, 0
2, 132825, Note_on_c, 0, 73, 74
2, 132836, Note_on_c, 0, 54, 72
2, 132856, Note_on_c, 0, 81, 0
2, 132869, Note_on_c, 0, 55, 0
2, 132954, Note_on_c, 0, 81, 73
2, 132966, Note_on_c, 0, 52, 66
2, 132972, Note_on_c, 0, 73, 0
2, 132984, Note_on_c, 0, 54, 0
2, 133067, Note_on_c, 0, 50, 58
2, 133070, Note_on_c, 0, 71, 72
2, 133079, Note_on_c, 0, 52, 0
2, 133079, Note_on_c, 0, 81, 0
2, 133173, Note_on_c, 0, 54, 74
2, 133183, Note_on_c, 0, 50, 0
2, 133197, Note_on_c, 0, 81, 74
2, 133203, Note_on_c, 0, 47, 0
2, 133304, Note_on_c, 0, 52, 71
2, 133313, Note_on_c, 0, 79, 76
2, 133320, Note_on_c, 0, 81, 0
2, 133329, Note_on_c, 0, 54, 0
2, 133440, Note_on_c, 0, 78, 80
2, 133443, Note_on_c, 0, 54, 74
2, 133472, Note_on_c, 0, 52, 0
2, 133480, Note_on_c, 0, 79, 0
2, 133556, Note_on_c, 0, 54, 0
2, 133562, Note_on_c, 0, 76, 77
2, 133569, Note_on_c, 0, 55, 70
2, 133582, Note_on_c, 0, 78, 0
2, 133675, Note_on_c, 0, 76, 0
2, 133679, Note_on_c, 0, 50, 70
2, 133682, Note_on_c, 0, 55, 0
2, 133682, Note_on_c, 0, 79, 78
2, 133743, Note_on_c, 0, 71, 0
2, 133785, Note_on_c, 0, 49, 72
2, 133802, Note_on_c, 0, 74, 72
2, 133809, Note_on_c, 0, 79, 0
2, 133820, Note_on_c, 0, 50, 0
2, 133904, Note_on_c, 0, 47, 70
2, 133905, Note_on_c, 0, 49, 0
2, 133908, Note_on_c, 0, 74, 0
2, 133924, Note_on_c, 0, 79, 74
2, 134022, Note_on_c, 0, 47, 0
2, 134027, Note_on_c, 0, 45, 65
2, 134032, Note_on_c, 0, 73, 73
2, 134039, Note_on_c, 0, 79, 0
2, 134134, Note_on_c, 0, 73, 0
2, 134149, Note_on_c, 0, 54, 68
2, 134150, Note_on_c, 0, 79, 72
2, 134262, Note_on_c, 0, 52, 65
2, 134265, Note_on_c, 0, 54, 0
2, 134283, Note_on_c, 0, 71, 66
2, 134287, Note_on_c, 0, 79, 0
2, 134299, Note_on_c, 0, 45, 0
2, 134378, Note_on_c, 0, 71, 0
2, 134380, Note_on_c, 0, 50, 55
2, 134395, Note_on_c, 0, 52, 0
2, 134412, Note_on_c, 0, 79, 67
2, 134495, Note_on_c, 0, 50, 0
2, 134504, Note_on_c, 0, 49, 61
2, 134520, Note_on_c, 0, 69, 68
2, 134521, Note_on_c, 0, 79, 0
2, 134609, Note_on_c, 0, 49, 0
2, 134620, Note_on_c, 0, 52, 68
2, 134626, Note_on_c, 0, 69, 0
2, 134638, Note_on_c, 0, 79, 67
2, 134736, Note_on_c, 0, 78, 74
2, 134741, Note_on_c, 0, 52, 0
2, 134745, Note_on_c, 0, 50, 63
2, 134747, Note_on_c, 0, 79, 0
2, 134861, Note_on_c, 0, 50, 0
2, 134865, Note_on_c, 0, 52, 61
2, 134865, Note_on_c, 0, 76, 62
2, 134873, Note_on_c, 0, 78, 0
2, 134944, Note_on_c, 0, 52, 0
2, 134968, Note_on_c, 0, 54, 65
2, 134968, Note_on_c, 0, 76, 0
2, 134983, Note_on_c, 0, 74, 62
2, 135055, Note_on_c, 0, 54, 0
2, 135089, Note_on_c, 0, 48, 65
2, 135094, Note_on_c, 0, 78, 73
2, 135095, Note_on_c, 0, 74, 0
2, 135207, Note_on_c, 0, 78, 0
2, 135221, Note_on_c, 0, 47, 67
2, 135225, Note_on_c, 0, 72, 67
2, 135239, Note_on_c, 0, 48, 0
2, 135306, Note_on_c, 0, 72, 0
2, 135333, Note_on_c, 0, 78, 61
2, 135352, Note_on_c, 0, 45, 56
2, 135375, Note_on_c, 0, 47, 0
2, 135434, Note_on_c, 0, 78, 0
2, 135458, Note_on_c, 0, 45, 0
2, 135458, Note_on_c, 0, 71, 63
2, 135461, Note_on_c, 0, 43, 57
2, 135546, Note_on_c, 0, 71, 0
2, 135553, Note_on_c, 0, 47, 59
2, 135558, Note_on_c, 0, 43, 0
2, 135565, Note_on_c, 0, 78, 61
2, 135680, Note_on_c, 0, 78, 0
2, 135681, Note_on_c, 0, 49, 56
2, 135690, Note_on_c, 0, 69, 62
2, 135704, Note_on_c, 0, 47, 0
2, 135774, Note_on_c, 0, 49, 0
2, 135780, Note_on_c, 0, 69, 0
2, 135812, Note_on_c, 0, 50, 62
2, 135813, Note_on_c, 0, 78, 62
2, 135917, Note_on_c, 0, 50, 0
2, 135920, Note_on_c, 0, 78, 0
2, 135929, Note_on_c, 0, 52, 57
2, 135936, Note_on_c, 0, 67, 55
2, 136018, Note_on_c, 0, 67, 0
2, 136032, Note_on_c, 0, 54, 59
2, 136038, Note_on_c, 0, 52, 0
2, 136044, Note_on_c, 0, 78, 63
2, 136132, Note_on_c, 0, 78, 0
2, 136149, Note_on_c, 0, 55, 59
2, 136153, Note_on_c, 0, 54, 0
2, 136175, Note_on_c, 0, 76, 60
2, 136268, Note_on_c, 0, 55, 0
2, 136289, Note_on_c, 0, 57, 53
2, 136292, Note_on_c, 0, 74, 63
2, 136307, Note_on_c, 0, 76, 0
2, 136392, Note_on_c, 0, 57, 0
2, 136394, Note_on_c, 0, 55, 65
2, 136407, Note_on_c, 0, 73, 70
2, 136415, Note_on_c, 0, 74, 0
2, 136503, Note_on_c, 0, 73, 0
2, 136506, Note_on_c, 0, 54, 67
2, 136518, Note_on_c, 0, 76, 70
2, 136520, Note_on_c, 0, 55, 0
2, 136613, Note_on_c, 0, 54, 0
2, 136631, Note_on_c, 0, 52, 78
2, 136647, Note_on_c, 0, 71, 72
2, 136654, Note_on_c, 0, 76, 0
2, 136740, Note_on_c, 0, 50, 75
2, 136750, Note_on_c, 0, 52, 0
2, 136760, Note_on_c, 0, 76, 73
2, 136768, Note_on_c, 0, 71, 0
2, 136857, Note_on_c, 0, 49, 76
2, 136868, Note_on_c, 0, 69, 81
2, 136880, Note_on_c, 0, 50, 0
2, 136893, Note_on_c, 0, 76, 0
2, 136957, Note_on_c, 0, 69, 0
2, 136958, Note_on_c, 0, 45, 75
2, 136963, Note_on_c, 0, 49, 0
2, 136996, Note_on_c, 0, 76, 73
2, 137069, Note_on_c, 0, 47, 73
2, 137102, Note_on_c, 0, 67, 79
2, 137109, Note_on_c, 0, 45, 0
2, 137121, Note_on_c, 0, 76, 0
2, 137191, Note_on_c, 0, 49, 74
2, 137204, Note_on_c, 0, 67, 0
2, 137224, Note_on_c, 0, 76, 76
2, 137228, Note_on_c, 0, 47, 0
2, 137321, Note_on_c, 0, 50, 76
2, 137323, Note_on_c, 0, 66, 83
2, 137332, Note_on_c, 0, 76, 0
2, 137338, Note_on_c, 0, 49, 0
2, 137426, Note_on_c, 0, 66, 0
2, 137429, Note_on_c, 0, 50, 0
2, 137435, Note_on_c, 0, 76, 82
2, 137438, Note_on_c, 0, 52, 75
2, 137485, Note_on_c, 0, 76, 0
2, 137540, Note_on_c, 0, 54, 77
2, 137545, Note_on_c, 0, 52, 0
2, 137553, Note_on_c, 0, 74, 88
2, 137647, Note_on_c, 0, 55, 72
2, 137661, Note_on_c, 0, 54, 0
2, 137664, Note_on_c, 0, 66, 77
2, 137693, Note_on_c, 0, 74, 0
2, 137733, Note_on_c, 0, 55, 0
2, 137771, Note_on_c, 0, 57, 74
2, 137773, Note_on_c, 0, 66, 0
2, 137782, Note_on_c, 0, 64, 76
2, 137805, Note_on_c, 0, 57, 0
2, 137891, Note_on_c, 0, 67, 72
2, 137899, Note_on_c, 0, 64, 0
2, 137997, Note_on_c, 0, 67, 0
2, 138011, Note_on_c, 0, 45, 71
2, 138011, Note_on_c, 0, 74, 77
2, 138041, Note_on_c, 0, 45, 0
2, 138126, Note_on_c, 0, 73, 74
2, 138133, Note_on_c, 0, 74, 0
2, 138235, Note_on_c, 0, 73, 0
2, 138255, Note_on_c, 0, 76, 72
2, 138262, Note_on_c, 0, 50, 88
2, 138308, Note_on_c, 0, 50, 0
2, 138329, Note_on_c, 0, 76, 0
2, 138333, Note_on_c, 0, 74, 65
2, 138402, Note_on_c, 0, 74, 0
2, 138403, Note_on_c, 0, 76, 70
2, 138470, Note_on_c, 0, 74, 61
2, 138470, Note_on_c, 0, 76, 0
2, 138522, Note_on_c, 0, 74, 0
2, 138529, Note_on_c, 0, 76, 61
2, 138534, Note_on_c, 0, 48, 72
2, 138589, Note_on_c, 0, 74, 60
2, 138592, Note_on_c, 0, 76, 0
2, 138630, Note_on_c, 0, 50, 72
2, 138632, Note_on_c, 0, 48, 0
2, 138643, Note_on_c, 0, 74, 0
2, 138649, Note_on_c, 0, 76, 59
2, 138706, Note_on_c, 0, 74, 61
2, 138710, Note_on_c, 0, 76, 0
2, 138730, Note_on_c, 0, 50, 0
2, 138731, Note_on_c, 0, 52, 72
2, 138761, Note_on_c, 0, 74, 0
2, 138767, Note_on_c, 0, 76, 62
2, 138816, Note_on_c, 0, 74, 54
2, 138826, Note_on_c, 0, 76, 0
2, 138837, Note_on_c, 0, 50, 68
2, 138866, Note_on_c, 0, 52, 0
2, 138876, Note_on_c, 0, 74, 0
2, 138877, Note_on_c, 0, 76, 57
2, 138934, Note_on_c, 0, 74, 56
2, 138943, Note_on_c, 0, 76, 0
2, 138959, Note_on_c, 0, 48, 79
2, 138968, Note_on_c, 0, 50, 0
2, 138989, Note_on_c, 0, 76, 63
2, 138999, Note_on_c, 0, 74, 0
2, 139008, Note_on_c, 0, 48, 0
2, 139016, Note_on_c, 0, 74, 37
2, 139051, Note_on_c, 0, 76, 0
2, 139198, Note_on_c, 0, 47, 66
2, 139302, Note_on_c, 0, 47, 0
2, 139309, Note_on_c, 0, 48, 60
2, 139411, Note_on_c, 0, 48, 0
2, 139433, Note_on_c, 0, 50, 56
2, 139553, Note_on_c, 0, 48, 51
2, 139590, Note_on_c, 0, 50, 0
2, 139693, Note_on_c, 0, 48, 0
2, 139698, Note_on_c, 0, 47, 63
2, 139743, Note_on_c, 0, 47, 0
2, 139796, Note_on_c, 0, 67, 49
2, 139905, Note_on_c, 0, 67, 0
2, 139919, Note_on_c, 0, 65, 57
2, 139927, Note_on_c, 0, 48, 68
2, 139963, Note_on_c, 0, 48, 0
2, 140025, Note_on_c, 0, 65, 0
2, 140044, Note_on_c, 0, 64, 60
2, 140157, Note_on_c, 0, 64, 0
2, 140165, Note_on_c, 0, 50, 73
2, 140168, Note_on_c, 0, 62, 63
2, 140205, Note_on_c, 0, 50, 0
2, 140266, Note_on_c, 0, 62, 0
2, 140289, Note_on_c, 0, 65, 59
2, 140408, Note_on_c, 0, 55, 77
2, 140420, Note_on_c, 0, 65, 0
2, 140430, Note_on_c, 0, 64, 67
2, 140439, Note_on_c, 0, 55, 0
2, 140489, Note_on_c, 0, 64, 0
2, 140540, Note_on_c, 0, 65, 60
2, 140580, Note_on_c, 0, 74, 0
2, 140662, Note_on_c, 0, 65, 0
2, 140669, Note_on_c, 0, 45, 60
2, 140674, Note_on_c, 0, 64, 66
2, 140683, Note_on_c, 0, 72, 71
2, 140793, Note_on_c, 0, 64, 0
2, 140797, Note_on_c, 0, 62, 71
2, 140889, Note_on_c, 0, 62, 0
2, 140922, Note_on_c, 0, 60, 57
2, 140996, Note_on_c, 0, 60, 0
2, 141051, Note_on_c, 0, 64, 45
2, 141118, Note_on_c, 0, 47, 72
2, 141125, Note_on_c, 0, 45, 0
2, 141144, Note_on_c, 0, 64, 0
2, 141167, Note_on_c, 0, 62, 59
2, 141171, Note_on_c, 0, 47, 0
2, 141225, Note_on_c, 0, 62, 0
2, 141247, Note_on_c, 0, 72, 0
2, 141255, Note_on_c, 0, 64, 54
2, 141355, Note_on_c, 0, 48, 74
2, 141360, Note_on_c, 0, 64, 0
2, 141368, Note_on_c, 0, 62, 69
2, 141371, Note_on_c, 0, 71, 73
2, 141394, Note_on_c, 0, 48, 0
2, 141463, Note_on_c, 0, 62, 0
2, 141476, Note_on_c, 0, 60, 66
2, 141582, Note_on_c, 0, 60, 0
2, 141595, Note_on_c, 0, 59, 55
2, 141598, Note_on_c, 0, 50, 60
2, 141631, Note_on_c, 0, 50, 0
2, 141660, Note_on_c, 0, 59, 0
2, 141704, Note_on_c, 0, 62, 58
2, 141811, Note_on_c, 0, 62, 0
2, 141830, Note_on_c, 0, 52, 63
2, 141834, Note_on_c, 0, 60, 65
2, 141861, Note_on_c, 0, 52, 0
2, 141895, Note_on_c, 0, 60, 0
2, 141910, Note_on_c, 0, 71, 0
2, 141947, Note_on_c, 0, 62, 59
2, 142060, Note_on_c, 0, 62, 0
2, 142065, Note_on_c, 0, 42, 53
2, 142076, Note_on_c, 0, 60, 63
2, 142080, Note_on_c, 0, 69, 67
2, 142177, Note_on_c, 0, 60, 0
2, 142191, Note_on_c, 0, 59, 61
2, 142291, Note_on_c, 0, 59, 0
2, 142313, Note_on_c, 0, 57, 58
2, 142403, Note_on_c, 0, 57, 0
2, 142424, Note_on_c, 0, 60, 56
2, 142516, Note_on_c, 0, 60, 0
2, 142532, Note_on_c, 0, 43, 57
2, 142550, Note_on_c, 0, 59, 55
2, 142564, Note_on_c, 0, 42, 0
2, 142575, Note_on_c, 0, 43, 0
2, 142664, Note_on_c, 0, 69, 0
2, 142665, Note_on_c, 0, 67, 53
2, 142777, Note_on_c, 0, 42, 55
2, 142784, Note_on_c, 0, 67, 0
2, 142800, Note_on_c, 0, 69, 57
2, 142888, Note_on_c, 0, 42, 0
2, 142891, Note_on_c, 0, 43, 50
2, 142903, Note_on_c, 0, 69, 0
2, 142920, Note_on_c, 0, 67, 56
2, 142968, Note_on_c, 0, 43, 0
2, 142980, Note_on_c, 0, 45, 56
2, 143010, Note_on_c, 0, 67, 0
2, 143016, Note_on_c, 0, 66, 57
2, 143035, Note_on_c, 0, 45, 0
2, 143083, Note_on_c, 0, 59, 0
2, 143093, Note_on_c, 0, 47, 44
2, 143104, Note_on_c, 0, 66, 0
2, 143131, Note_on_c, 0, 67, 56
2, 143224, Note_on_c, 0, 36, 46
2, 143224, Note_on_c, 0, 47, 0
2, 143227, Note_on_c, 0, 67, 0
2, 143239, Note_on_c, 0, 66, 67
2, 143257, Note_on_c, 0, 57, 40
2, 143263, Note_on_c, 0, 36, 0
2, 143288, Note_on_c, 0, 57, 0
2, 143331, Note_on_c, 0, 66, 0
2, 143359, Note_on_c, 0, 62, 52
2, 143429, Note_on_c, 0, 64, 52
2, 143438, Note_on_c, 0, 62, 0
2, 143479, Note_on_c, 0, 66, 62
2, 143489, Note_on_c, 0, 64, 0
2, 143504, Note_on_c, 0, 60, 59
2, 143578, Note_on_c, 0, 66, 0
2, 143600, Note_on_c, 0, 60, 0
2, 143606, Note_on_c, 0, 59, 61
2, 143606, Note_on_c, 0, 62, 61
2, 143711, Note_on_c, 0, 67, 70
2, 143712, Note_on_c, 0, 57, 57
2, 143716, Note_on_c, 0, 59, 0
2, 143716, Note_on_c, 0, 62, 0
2, 143787, Note_on_c, 0, 57, 0
2, 143807, Note_on_c, 0, 67, 0
2, 143820, Note_on_c, 0, 55, 73
2, 143820, Note_on_c, 0, 62, 80
2, 143918, Note_on_c, 0, 54, 70
2, 143918, Note_on_c, 0, 55, 0
2, 143925, Note_on_c, 0, 69, 79
2, 143931, Note_on_c, 0, 62, 0
2, 144017, Note_on_c, 0, 69, 0
2, 144037, Note_on_c, 0, 62, 82
2, 144039, Note_on_c, 0, 54, 0
2, 144042, Note_on_c, 0, 52, 77
2, 144149, Note_on_c, 0, 71, 78
2, 144151, Note_on_c, 0, 50, 72
2, 144157, Note_on_c, 0, 52, 0
2, 144169, Note_on_c, 0, 62, 0
2, 144261, Note_on_c, 0, 48, 68
2, 144264, Note_on_c, 0, 71, 0
2, 144267, Note_on_c, 0, 62, 68
2, 144288, Note_on_c, 0, 50, 0
2, 144372, Note_on_c, 0, 47, 66
2, 144381, Note_on_c, 0, 72, 74
2, 144392, Note_on_c, 0, 62, 0
2, 144398, Note_on_c, 0, 48, 0
2, 144488, Note_on_c, 0, 47, 0
2, 144497, Note_on_c, 0, 45, 53
2, 144510, Note_on_c, 0, 62, 59
2, 144538, Note_on_c, 0, 45, 0
2, 144588, Note_on_c, 0, 62, 0
2, 144614, Note_on_c, 0, 43, 45
2, 144618, Note_on_c, 0, 71, 67
2, 144628, Note_on_c, 0, 72, 0
2, 144646, Note_on_c, 0, 71, 0
2, 144721, Note_on_c, 0, 43, 0
2, 144727, Note_on_c, 0, 45, 60
2, 144745, Note_on_c, 0, 79, 76
2, 144834, Note_on_c, 0, 45, 0
2, 144860, Note_on_c, 0, 47, 48
2, 144860, Note_on_c, 0, 77, 75
2, 144861, Note_on_c, 0, 79, 0
2, 144955, Note_on_c, 0, 47, 0
2, 144965, Note_on_c, 0, 43, 56
2, 144971, Note_on_c, 0, 77, 0
2, 144972, Note_on_c, 0, 76, 71
2, 145072, Note_on_c, 0, 43, 0
2, 145091, Note_on_c, 0, 76, 0
2, 145094, Note_on_c, 0, 74, 71
2, 145096, Note_on_c, 0, 48, 64
2, 145187, Note_on_c, 0, 48, 0
2, 145199, Note_on_c, 0, 74, 0
2, 145205, Note_on_c, 0, 43, 55
2, 145210, Note_on_c, 0, 72, 75
2, 145305, Note_on_c, 0, 43, 0
2, 145321, Note_on_c, 0, 71, 74
2, 145322, Note_on_c, 0, 50, 58
2, 145330, Note_on_c, 0, 72, 0
2, 145412, Note_on_c, 0, 50, 0
2, 145432, Note_on_c, 0, 43, 55
2, 145440, Note_on_c, 0, 69, 70
2, 145458, Note_on_c, 0, 71, 0
2, 145517, Note_on_c, 0, 43, 0
2, 145546, Note_on_c, 0, 52, 55
2, 145549, Note_on_c, 0, 67, 70
2, 145549, Note_on_c, 0, 69, 0
2, 145617, Note_on_c, 0, 52, 0
2, 145645, Note_on_c, 0, 67, 0
2, 145650, Note_on_c, 0, 43, 50
2, 145669, Note_on_c, 0, 65, 64
2, 145737, Note_on_c, 0, 43, 0
2, 145786, Note_on_c, 0, 53, 51
2, 145786, Note_on_c, 0, 64, 61
2, 145786, Note_on_c, 0, 65, 0
2, 145852, Note_on_c, 0, 53, 0
2, 145878, Note_on_c, 0, 64, 0
2, 145884, Note_on_c, 0, 43, 48
2, 145896, Note_on_c, 0, 62, 57
2, 145968, Note_on_c, 0, 43, 0
2, 145974, Note_on_c, 0, 62, 0
2, 146015, Note_on_c, 0, 60, 56
2, 146025, Note_on_c, 0, 52, 50
2, 146052, Note_on_c, 0, 60, 0
2, 146115, Note_on_c, 0, 52, 0
2, 146120, Note_on_c, 0, 40, 51
2, 146163, Note_on_c, 0, 42, 53
2, 146168, Note_on_c, 0, 76, 62
2, 146214, Note_on_c, 0, 40, 0
2, 146251, Note_on_c, 0, 44, 53
2, 146264, Note_on_c, 0, 42, 0
2, 146271, Note_on_c, 0, 76, 0
2, 146275, Note_on_c, 0, 74, 62
2, 146364, Note_on_c, 0, 44, 0
2, 146372, Note_on_c, 0, 40, 50
2, 146392, Note_on_c, 0, 72, 64
2, 146395, Note_on_c, 0, 74, 0
2, 146474, Note_on_c, 0, 40, 0
2, 146489, Note_on_c, 0, 72, 0
2, 146491, Note_on_c, 0, 45, 52
2, 146498, Note_on_c, 0, 71, 66
2, 146594, Note_on_c, 0, 45, 0
2, 146614, Note_on_c, 0, 71, 0
2, 146624, Note_on_c, 0, 69, 70
2, 146627, Note_on_c, 0, 40, 52
2, 146712, Note_on_c, 0, 40, 0
2, 146730, Note_on_c, 0, 68, 74
2, 146733, Note_on_c, 0, 47, 54
2, 146745, Note_on_c, 0, 69, 0
2, 146817, Note_on_c, 0, 47, 0
2, 146844, Note_on_c, 0, 40, 57
2, 146849, Note_on_c, 0, 66, 69
2, 146853, Note_on_c, 0, 68, 0
2, 146908, Note_on_c, 0, 40, 0
2, 146948, Note_on_c, 0, 48, 56
2, 146964, Note_on_c, 0, 64, 71
2, 146964, Note_on_c, 0, 66, 0
2, 147006, Note_on_c, 0, 48, 0
2, 147054, Note_on_c, 0, 40, 55
2, 147065, Note_on_c, 0, 64, 0
2, 147074, Note_on_c, 0, 62, 63
2, 147136, Note_on_c, 0, 40, 0
2, 147165, Note_on_c, 0, 50, 54
2, 147192, Note_on_c, 0, 60, 63
2, 147194, Note_on_c, 0, 62, 0
2, 147227, Note_on_c, 0, 50, 0
2, 147272, Note_on_c, 0, 40, 57
2, 147272, Note_on_c, 0, 60, 0
2, 147295, Note_on_c, 0, 59, 60
2, 147341, Note_on_c, 0, 40, 0
2, 147422, Note_on_c, 0, 49, 59
2, 147426, Note_on_c, 0, 59, 0
2, 147440, Note_on_c, 0, 57, 63
2, 147489, Note_on_c, 0, 57, 0
2, 147493, Note_on_c, 0, 49, 0
2, 147551, Note_on_c, 0, 59, 67
2, 147556, Note_on_c, 0, 57, 41
2, 147656, Note_on_c, 0, 57, 0
2, 147669, Note_on_c, 0, 55, 57
2, 147672, Note_on_c, 0, 61, 63
2, 147679, Note_on_c, 0, 59, 0
2, 147763, Note_on_c, 0, 55, 0
2, 147776, Note_on_c, 0, 57, 73
2, 147777, Note_on_c, 0, 54, 54
2, 147780, Note_on_c, 0, 61, 0
2, 147868, Note_on_c, 0, 54, 0
2, 147888, Note_on_c, 0, 62, 75
2, 147896, Note_on_c, 0, 52, 75
2, 147900, Note_on_c, 0, 57, 0
2, 147991, Note_on_c, 0, 62, 0
2, 147993, Note_on_c, 0, 52, 0
2, 147999, Note_on_c, 0, 50, 69
2, 148005, Note_on_c, 0, 57, 80
2, 148118, Note_on_c, 0, 49, 69
2, 148123, Note_on_c, 0, 50, 0
2, 148130, Note_on_c, 0, 64, 76
2, 148148, Note_on_c, 0, 57, 0
2, 148224, Note_on_c, 0, 49, 0
2, 148234, Note_on_c, 0, 64, 0
2, 148237, Note_on_c, 0, 47, 80
2, 148244, Note_on_c, 0, 57, 76
2, 148348, Note_on_c, 0, 47, 0
2, 148350, Note_on_c, 0, 45, 73
2, 148351, Note_on_c, 0, 66, 88
2, 148388, Note_on_c, 0, 57, 0
2, 148441, Note_on_c, 0, 45, 0
2, 148464, Note_on_c, 0, 43, 77
2, 148473, Note_on_c, 0, 57, 79
2, 148480, Note_on_c, 0, 66, 0
2, 148581, Note_on_c, 0, 67, 84
2, 148584, Note_on_c, 0, 42, 71
2, 148587, Note_on_c, 0, 57, 0
2, 148611, Note_on_c, 0, 43, 0
2, 148680, Note_on_c, 0, 40, 72
2, 148696, Note_on_c, 0, 42, 0
2, 148696, Note_on_c, 0, 57, 71
2, 148785, Note_on_c, 0, 57, 0
2, 148813, Note_on_c, 0, 67, 0
2, 148831, Note_on_c, 0, 38, 71
2, 148837, Note_on_c, 0, 66, 71
2, 148839, Note_on_c, 0, 40, 0
2, 148840, Note_on_c, 0, 62, 70
2, 148884, Note_on_c, 0, 62, 0
2, 148911, Note_on_c, 0, 66, 0
2, 149080, Note_on_c, 0, 71, 80
2, 149087, Note_on_c, 0, 60, 82
2, 149169, Note_on_c, 0, 71, 0
2, 149198, Note_on_c, 0, 62, 75
2, 149216, Note_on_c, 0, 60, 0
2, 149305, Note_on_c, 0, 67, 67
2, 149319, Note_on_c, 0, 64, 60
2, 149322, Note_on_c, 0, 62, 0
2, 149402, Note_on_c, 0, 64, 0
2, 149405, Note_on_c, 0, 62, 67
2, 149418, Note_on_c, 0, 67, 0
2, 149531, Note_on_c, 0, 62, 0
2, 149543, Note_on_c, 0, 64, 66
2, 149546, Note_on_c, 0, 60, 77
2, 149591, Note_on_c, 0, 60, 0
2, 149621, Note_on_c, 0, 64, 0
2, 149782, Note_on_c, 0, 69, 69
2, 149789, Note_on_c, 0, 59, 66
2, 149858, Note_on_c, 0, 69, 0
2, 149893, Note_on_c, 0, 60, 63
2, 149926, Note_on_c, 0, 59, 0
2, 150003, Note_on_c, 0, 60, 0
2, 150007, Note_on_c, 0, 62, 67
2, 150014, Note_on_c, 0, 66, 69
2, 150107, Note_on_c, 0, 62, 0
2, 150116, Note_on_c, 0, 66, 0
2, 150121, Note_on_c, 0, 60, 66
2, 150260, Note_on_c, 0, 60, 0
2, 150265, Note_on_c, 0, 67, 66
2, 150273, Note_on_c, 0, 59, 56
2, 150367, Note_on_c, 0, 59, 0
2, 150374, Note_on_c, 0, 38, 0
2, 150382, Note_on_c, 0, 50, 58
2, 150489, Note_on_c, 0, 50, 0
2, 150492, Note_on_c, 0, 48, 73
2, 150507, Note_on_c, 0, 60, 73
2, 150559, Note_on_c, 0, 60, 0
2, 150590, Note_on_c, 0, 48, 0
2, 150613, Note_on_c, 0, 50, 72
2, 150711, Note_on_c, 0, 52, 80
2, 150725, Note_on_c, 0, 50, 0
2, 150732, Note_on_c, 0, 62, 71
2, 150788, Note_on_c, 0, 62, 0
2, 150810, Note_on_c, 0, 50, 74
2, 150850, Note_on_c, 0, 52, 0
2, 150911, Note_on_c, 0, 67, 0
2, 150936, Note_on_c, 0, 48, 77
2, 150938, Note_on_c, 0, 64, 79
2, 150966, Note_on_c, 0, 50, 0
2, 151009, Note_on_c, 0, 48, 0
2, 151014, Note_on_c, 0, 64, 0
2, 151055, Note_on_c, 0, 69, 73
2, 151125, Note_on_c, 0, 69, 0
2, 151165, Note_on_c, 0, 71, 69
2, 151195, Note_on_c, 0, 54, 69
2, 151196, Note_on_c, 0, 47, 67
2, 151223, Note_on_c, 0, 69, 77
2, 151223, Note_on_c, 0, 71, 0
2, 151272, Note_on_c, 0, 47, 0
2, 151278, Note_on_c, 0, 48, 62
2, 151281, Note_on_c, 0, 69, 0
2, 151285, Note_on_c, 0, 54, 0
2, 151287, Note_on_c, 0, 71, 66
2, 151333, Note_on_c, 0, 69, 75
2, 151344, Note_on_c, 0, 71, 0
2, 151349, Note_on_c, 0, 50, 67
2, 151360, Note_on_c, 0, 48, 0
2, 151397, Note_on_c, 0, 71, 76
2, 151398, Note_on_c, 0, 69, 0
2, 151439, Note_on_c, 0, 69, 59
2, 151455, Note_on_c, 0, 48, 56
2, 151456, Note_on_c, 0, 71, 0
2, 151495, Note_on_c, 0, 69, 0
2, 151498, Note_on_c, 0, 50, 0
2, 151507, Note_on_c, 0, 67, 73
2, 151571, Note_on_c, 0, 67, 0
2, 151589, Note_on_c, 0, 69, 49
2, 151622, Note_on_c, 0, 47, 59
2, 151636, Note_on_c, 0, 69, 0
2, 151637, Note_on_c, 0, 71, 68
2, 151644, Note_on_c, 0, 48, 0
2, 151707, Note_on_c, 0, 71, 0
2, 151725, Note_on_c, 0, 47, 0
2, 151884, Note_on_c, 0, 69, 74
2, 151886, Note_on_c, 0, 45, 61
2, 151889, Note_on_c, 0, 72, 71
2, 151971, Note_on_c, 0, 69, 0
2, 151991, Note_on_c, 0, 47, 67
2, 151992, Note_on_c, 0, 72, 0
2, 152002, Note_on_c, 0, 71, 68
2, 152003, Note_on_c, 0, 67, 73
2, 152021, Note_on_c, 0, 45, 0
2, 152071, Note_on_c, 0, 67, 0
2, 152080, Note_on_c, 0, 71, 0
2, 152101, Note_on_c, 0, 47, 0
2, 152103, Note_on_c, 0, 48, 75
2, 152115, Note_on_c, 0, 69, 75
2, 152119, Note_on_c, 0, 66, 81
2, 152154, Note_on_c, 0, 66, 0
2, 152167, Note_on_c, 0, 65, 37
2, 152199, Note_on_c, 0, 65, 0
2, 152213, Note_on_c, 0, 47, 72
2, 152213, Note_on_c, 0, 71, 74
2, 152219, Note_on_c, 0, 67, 76
2, 152225, Note_on_c, 0, 69, 0
2, 152262, Note_on_c, 0, 48, 0
2, 152287, Note_on_c, 0, 67, 0
2, 152335, Note_on_c, 0, 69, 89
2, 152336, Note_on_c, 0, 45, 78
2, 152345, Note_on_c, 0, 72, 84
2, 152376, Note_on_c, 0, 47, 0
2, 152381, Note_on_c, 0, 71, 0
2, 152398, Note_on_c, 0, 69, 0
2, 152424, Note_on_c, 0, 45, 0
2, 152427, Note_on_c, 0, 72, 0
2, 152577, Note_on_c, 0, 71, 91
2, 152588, Note_on_c, 0, 74, 78
2, 152601, Note_on_c, 0, 43, 66
2, 152667, Note_on_c, 0, 71, 0
2, 152698, Note_on_c, 0, 45, 65
2, 152702, Note_on_c, 0, 69, 82
2, 152705, Note_on_c, 0, 74, 0
2, 152712, Note_on_c, 0, 72, 80
2, 152752, Note_on_c, 0, 43, 0
2, 152772, Note_on_c, 0, 69, 0
2, 152805, Note_on_c, 0, 45, 0
2, 152810, Note_on_c, 0, 47, 74
2, 152827, Note_on_c, 0, 71, 89
2, 152828, Note_on_c, 0, 67, 80
2, 152840, Note_on_c, 0, 72, 0
2, 152864, Note_on_c, 0, 67, 0
2, 152921, Note_on_c, 0, 69, 78
2, 152922, Note_on_c, 0, 45, 65
2, 152938, Note_on_c, 0, 72, 82
2, 152940, Note_on_c, 0, 71, 0
2, 152951, Note_on_c, 0, 47, 0
2, 153016, Note_on_c, 0, 69, 0
2, 153040, Note_on_c, 0, 45, 0
2, 153054, Note_on_c, 0, 43, 71
2, 153055, Note_on_c, 0, 71, 88
2, 153063, Note_on_c, 0, 74, 88
2, 153088, Note_on_c, 0, 72, 0
2, 153097, Note_on_c, 0, 71, 0
2, 153112, Note_on_c, 0, 74, 0
2, 153119, Note_on_c, 0, 43, 0
2, 153163, Note_on_c, 0, 55, 71
2, 153230, Note_on_c, 0, 55, 0
2, 153235, Note_on_c, 0, 54, 68
2, 153295, Note_on_c, 0, 69, 89
2, 153296, Note_on_c, 0, 72, 88
2, 153301, Note_on_c, 0, 52, 76
2, 153302, Note_on_c, 0, 54, 0
2, 153320, Note_on_c, 0, 69, 0
2, 153336, Note_on_c, 0, 72, 0
2, 153383, Note_on_c, 0, 52, 0
2, 153399, Note_on_c, 0, 55, 65
2, 153502, Note_on_c, 0, 55, 0
2, 153507, Note_on_c, 0, 50, 60
2, 153522, Note_on_c, 0, 67, 80
2, 153525, Note_on_c, 0, 71, 82
2, 153569, Note_on_c, 0, 71, 0
2, 153601, Note_on_c, 0, 50, 0
2, 153630, Note_on_c, 0, 55, 71
2, 153721, Note_on_c, 0, 55, 0
2, 153727, Note_on_c, 0, 49, 61
2, 153752, Note_on_c, 0, 69, 79
2, 153807, Note_on_c, 0, 69, 0
2, 153829, Note_on_c, 0, 49, 0
2, 153836, Note_on_c, 0, 55, 70
2, 153950, Note_on_c, 0, 55, 0
2, 153951, Note_on_c, 0, 47, 62
2, 153977, Note_on_c, 0, 74, 81
2, 153978, Note_on_c, 0, 79, 88
2, 154044, Note_on_c, 0, 47, 0
2, 154082, Note_on_c, 0, 74, 0
2, 154088, Note_on_c, 0, 57, 63
2, 154185, Note_on_c, 0, 57, 0
2, 154205, Note_on_c, 0, 45, 67
2, 154209, Note_on_c, 0, 73, 83
2, 154268, Note_on_c, 0, 73, 0
2, 154347, Note_on_c, 0, 57, 61
2, 154454, Note_on_c, 0, 57, 0
2, 154457, Note_on_c, 0, 50, 68
2, 154458, Note_on_c, 0, 74, 74
2, 154459, Note_on_c, 0, 78, 87
2, 154475, Note_on_c, 0, 79, 0
2, 154477, Note_on_c, 0, 45, 0
2, 154494, Note_on_c, 0, 74, 0
2, 154500, Note_on_c, 0, 67, 0
2, 154509, Note_on_c, 0, 78, 0
2, 154565, Note_on_c, 0, 48, 66
2, 154592, Note_on_c, 0, 50, 0
2, 154684, Note_on_c, 0, 46, 71
2, 154684, Note_on_c, 0, 76, 87
2, 154691, Note_on_c, 0, 67, 88
2, 154711, Note_on_c, 0, 48, 0
2, 154727, Note_on_c, 0, 67, 0
2, 154749, Note_on_c, 0, 76, 0
2, 154792, Note_on_c, 0, 46, 0
2, 154799, Note_on_c, 0, 50, 73
2, 154914, Note_on_c, 0, 50, 0
2, 154914, Note_on_c, 0, 74, 81
2, 154916, Note_on_c, 0, 66, 92
2, 154919, Note_on_c, 0, 45, 75
2, 154965, Note_on_c, 0, 66, 0
2, 154971, Note_on_c, 0, 74, 0
2, 155013, Note_on_c, 0, 45, 0
2, 155039, Note_on_c, 0, 50, 73
2, 155155, Note_on_c, 0, 43, 74
2, 155155, Note_on_c, 0, 73, 91
2, 155157, Note_on_c, 0, 50, 0
2, 155158, Note_on_c, 0, 64, 82
2, 155179, Note_on_c, 0, 64, 0
2, 155210, Note_on_c, 0, 73, 0
2, 155272, Note_on_c, 0, 43, 0
2, 155291, Note_on_c, 0, 52, 67
2, 155405, Note_on_c, 0, 52, 0
2, 155405, Note_on_c, 0, 82, 93
2, 155408, Note_on_c, 0, 73, 98
2, 155416, Note_on_c, 0, 42, 68
2, 155549, Note_on_c, 0, 52, 71
2, 155551, Note_on_c, 0, 42, 0
2, 155635, Note_on_c, 0, 52, 0
2, 155665, Note_on_c, 0, 40, 67
2, 155796, Note_on_c, 0, 52, 68
2, 155839, Note_on_c, 0, 82, 0
2, 155858, Note_on_c, 0, 73, 0
2, 155943, Note_on_c, 0, 42, 76
2, 155948, Note_on_c, 0, 52, 0
2, 155950, Note_on_c, 0, 40, 0
2, 155956, Note_on_c, 0, 81, 95
2, 155961, Note_on_c, 0, 72, 89
2, 156007, Note_on_c, 0, 42, 0
2, 156065, Note_on_c, 0, 79, 83
2, 156092, Note_on_c, 0, 81, 0
2, 156183, Note_on_c, 0, 78, 81
2, 156193, Note_on_c, 0, 38, 63
2, 156215, Note_on_c, 0, 79, 0
2, 156221, Note_on_c, 0, 38, 0
2, 156286, Note_on_c, 0, 76, 75
2, 156294, Note_on_c, 0, 78, 0
2, 156330, Note_on_c, 0, 76, 0
2, 156378, Note_on_c, 0, 72, 0
2, 156412, Note_on_c, 0, 74, 85
2, 156417, Note_on_c, 0, 43, 75
2, 156455, Note_on_c, 0, 43, 0
2, 156551, Note_on_c, 0, 74, 0
2, 156552, Note_on_c, 0, 71, 71
2, 156597, Note_on_c, 0, 71, 0
2, 156616, Note_on_c, 0, 69, 77
2, 156646, Note_on_c, 0, 40, 74
2, 156658, Note_on_c, 0, 71, 83
2, 156679, Note_on_c, 0, 69, 0
2, 156680, Note_on_c, 0, 40, 0
2, 156796, Note_on_c, 0, 79, 88
2, 156813, Note_on_c, 0, 71, 0
2, 156893, Note_on_c, 0, 69, 83
2, 156909, Note_on_c, 0, 36, 60
2, 156946, Note_on_c, 0, 36, 0
2, 157032, Note_on_c, 0, 72, 80
2, 157058, Note_on_c, 0, 79, 0
2, 157138, Note_on_c, 0, 38, 70
2, 157151, Note_on_c, 0, 69, 0
2, 157160, Note_on_c, 0, 79, 84
2, 157169, Note_on_c, 0, 72, 0
2, 157178, Note_on_c, 0, 38, 0
2, 157286, Note_on_c, 0, 78, 77
2, 157334, Note_on_c, 0, 79, 0
2, 157468, Note_on_c, 0, 43, 62
2, 157476, Note_on_c, 0, 79, 80
2, 157479, Note_on_c, 0, 71, 72
2, 157505, Note_on_c, 0, 78, 0
2, 157628, Note_on_c, 0, 78, 75
2, 157667, Note_on_c, 0, 79, 0
2, 157682, Note_on_c, 0, 76, 72
2, 157720, Note_on_c, 0, 78, 0
2, 157725, Note_on_c, 0, 74, 76
2, 157745, Note_on_c, 0, 76, 0
2, 157826, Note_on_c, 0, 74, 0
2, 157837, Note_on_c, 0, 71, 0
2, 157850, Note_on_c, 0, 79, 73
2, 157964, Note_on_c, 0, 72, 73
2, 157967, Note_on_c, 0, 69, 75
2, 157968, Note_on_c, 0, 79, 0
2, 158025, Note_on_c, 0, 69, 0
2, 158053, Note_on_c, 0, 72, 0
2, 158077, Note_on_c, 0, 79, 71
2, 158196, Note_on_c, 0, 67, 75
2, 158197, Note_on_c, 0, 71, 69
2, 158202, Note_on_c, 0, 79, 0
2, 158208, Note_on_c, 0, 43, 0
2, 158331, Note_on_c, 0, 43, 60
2, 158374, Note_on_c, 0, 45, 63
2, 158380, Note_on_c, 0, 43, 0
2, 158405, Note_on_c, 0, 79, 80
2, 158424, Note_on_c, 0, 71, 0
2, 158427, Note_on_c, 0, 47, 74
2, 158438, Note_on_c, 0, 79, 0
2, 158440, Note_on_c, 0, 45, 0
2, 158533, Note_on_c, 0, 43, 66
2, 158536, Note_on_c, 0, 47, 0
2, 158598, Note_on_c, 0, 67, 0
2, 158635, Note_on_c, 0, 66, 78
2, 158635, Note_on_c, 0, 69, 77
2, 158652, Note_on_c, 0, 43, 0
2, 158657, Note_on_c, 0, 48, 75
2, 158678, Note_on_c, 0, 66, 0
2, 158681, Note_on_c, 0, 69, 0
2, 158775, Note_on_c, 0, 43, 63
2, 158787, Note_on_c, 0, 48, 0
2, 158881, Note_on_c, 0, 71, 79
2, 158884, Note_on_c, 0, 67, 76
2, 158890, Note_on_c, 0, 50, 72
2, 158907, Note_on_c, 0, 43, 0
2, 159028, Note_on_c, 0, 74, 71
2, 159037, Note_on_c, 0, 67, 0
2, 159041, Note_on_c, 0, 71, 0
2, 159062, Note_on_c, 0, 72, 67
2, 159112, Note_on_c, 0, 50, 0
2, 159114, Note_on_c, 0, 43, 67
2, 159123, Note_on_c, 0, 67, 71
2, 159127, Note_on_c, 0, 74, 0
2, 159130, Note_on_c, 0, 71, 78
2, 159157, Note_on_c, 0, 72, 0
2, 159234, Note_on_c, 0, 71, 0
2, 159245, Note_on_c, 0, 67, 0
2, 159249, Note_on_c, 0, 74, 66
2, 159355, Note_on_c, 0, 47, 68
2, 159363, Note_on_c, 0, 69, 75
2, 159366, Note_on_c, 0, 65, 74
2, 159369, Note_on_c, 0, 74, 0
2, 159391, Note_on_c, 0, 47, 0
2, 159469, Note_on_c, 0, 65, 0
2, 159474, Note_on_c, 0, 69, 0
2, 159478, Note_on_c, 0, 74, 75
2, 159595, Note_on_c, 0, 48, 66
2, 159612, Note_on_c, 0, 67, 74
2, 159618, Note_on_c, 0, 64, 70
2, 159641, Note_on_c, 0, 74, 0
2, 159668, Note_on_c, 0, 48, 0
2, 159677, Note_on_c, 0, 47, 70
2, 159748, Note_on_c, 0, 48, 65
2, 159749, Note_on_c, 0, 47, 0
2, 159796, Note_on_c, 0, 48, 0
2, 159814, Note_on_c, 0, 50, 64
2, 159890, Note_on_c, 0, 50, 0
2, 159893, Note_on_c, 0, 52, 74
2, 159899, Note_on_c, 0, 72, 79
2, 159927, Note_on_c, 0, 67, 0
2, 160016, Note_on_c, 0, 52, 0
2, 160022, Note_on_c, 0, 48, 69
2, 160170, Note_on_c, 0, 54, 71
2, 160183, Note_on_c, 0, 63, 69
2, 160189, Note_on_c, 0, 48, 0
2, 160263, Note_on_c, 0, 64, 0
2, 160279, Note_on_c, 0, 54, 0
2, 160299, Note_on_c, 0, 72, 0
2, 160303, Note_on_c, 0, 48, 63
2, 160493, Note_on_c, 0, 55, 57
2, 160514, Note_on_c, 0, 63, 0
2, 160532, Note_on_c, 0, 62, 60
2, 160578, Note_on_c, 0, 48, 0
2, 160616, Note_on_c, 0, 67, 64
2, 160630, Note_on_c, 0, 62, 0
2, 160690, Note_on_c, 0, 69, 66
2, 160697, Note_on_c, 0, 67, 0
2, 160745, Note_on_c, 0, 71, 50
2, 160750, Note_on_c, 0, 69, 0
2, 160771, Note_on_c, 0, 71, 0
2, 160844, Note_on_c, 0, 71, 58
2, 160848, Note_on_c, 0, 64, 62
2, 160875, Note_on_c, 0, 72, 37
2, 160903, Note_on_c, 0, 72, 0
2, 160918, Note_on_c, 0, 71, 0
2, 160964, Note_on_c, 0, 67, 74
2, 160979, Note_on_c, 0, 64, 0
2, 161061, Note_on_c, 0, 67, 0
2, 161134, Note_on_c, 0, 65, 77
2, 161137, Note_on_c, 0, 74, 77
2, 161262, Note_on_c, 0, 65, 0
2, 161263, Note_on_c, 0, 67, 78
2, 161288, Note_on_c, 0, 74, 0
2, 161311, Note_on_c, 0, 67, 0
2, 161398, Note_on_c, 0, 76, 79
2, 161413, Note_on_c, 0, 67, 76
2, 161493, Note_on_c, 0, 71, 73
2, 161529, Note_on_c, 0, 76, 0
2, 161551, Note_on_c, 0, 72, 75
2, 161562, Note_on_c, 0, 67, 0
2, 161594, Note_on_c, 0, 71, 0
2, 161616, Note_on_c, 0, 74, 75
2, 161647, Note_on_c, 0, 72, 0
2, 161700, Note_on_c, 0, 76, 88
2, 161704, Note_on_c, 0, 67, 54
2, 161738, Note_on_c, 0, 74, 0
2, 161856, Note_on_c, 0, 72, 68
2, 161883, Note_on_c, 0, 67, 0
2, 161901, Note_on_c, 0, 76, 0
2, 162028, Note_on_c, 0, 78, 77
2, 162037, Note_on_c, 0, 69, 56
2, 162063, Note_on_c, 0, 72, 0
2, 162188, Note_on_c, 0, 69, 0
2, 162191, Note_on_c, 0, 72, 72
2, 162283, Note_on_c, 0, 78, 0
2, 162401, Note_on_c, 0, 79, 70
2, 162412, Note_on_c, 0, 71, 55
2, 162448, Note_on_c, 0, 72, 0
2, 162589, Note_on_c, 0, 74, 62
2, 162758, Note_on_c, 0, 76, 60
2, 162767, Note_on_c, 0, 74, 0
2, 162904, Note_on_c, 0, 71, 0
2, 162930, Note_on_c, 0, 72, 62
2, 162988, Note_on_c, 0, 76, 0
2, 163143, Note_on_c, 0, 69, 56
2, 163149, Note_on_c, 0, 72, 0
2, 163361, Note_on_c, 0, 78, 52
2, 163419, Note_on_c, 0, 69, 0
2, 163453, Note_on_c, 0, 79, 0
2, 163770, Note_on_c, 0, 71, 50
2, 163815, Note_on_c, 0, 78, 0
2, 163892, Note_on_c, 0, 74, 56
2, 163976, Note_on_c, 0, 79, 52
2, 164021, Note_on_c, 0, 79, 0
2, 164031, Note_on_c, 0, 78, 62
2, 164109, Note_on_c, 0, 78, 0
2, 164137, Note_on_c, 0, 79, 54
2, 165606, Note_on_c, 0, 71, 0
2, 165659, Note_on_c, 0, 79, 0
2, 165679, Note_on_c, 0, 74, 0
2, 165702, Note_on_c, 0, 55, 0
2, 165767, Note_on_c, 0, 43, 0
2, 165768, End_track
0, 0, End_of_file
