0, 0, Header, 1, 2, 384
1, 0, Start_track
1, 0, Tempo, 500000
1, 0, Time_signature, 4, 2, 24, 8
1, 1, End_track
2, 0, Start_track
2, 0, Title_t," ""Zhang04-07.mid"""
2, 0, Program_c, 0, 0
2, 782, Note_on_c, 0, 67, 66
2, 788, Note_on_c, 0, 55, 51
2, 830, Note_on_c, 0, 55, 0
2, 869, Note_on_c, 0, 71, 65
2, 873, Note_on_c, 0, 67, 0
2, 940, Note_on_c, 0, 74, 71
2, 946, Note_on_c, 0, 71, 0
2, 1016, Note_on_c, 0, 79, 75
2, 1017, Note_on_c, 0, 74, 0
2, 1020, Note_on_c, 0, 43, 47
2, 1062, Note_on_c, 0, 43, 0
2, 1078, Note_on_c, 0, 74, 63
2, 1089, Note_on_c, 0, 79, 0
2, 1150, Note_on_c, 0, 74, 0
2, 1152, Note_on_c, 0, 71, 71
2, 1221, Note_on_c, 0, 71, 0
2, 1224, Note_on_c, 0, 74, 73
2, 1309, Note_on_c, 0, 74, 0
2, 1311, Note_on_c, 0, 71, 71
2, 1371, Note_on_c, 0, 71, 0
2, 1389, Note_on_c, 0, 67, 63
2, 1442, Note_on_c, 0, 67, 0
2, 1478, Note_on_c, 0, 55, 74
2, 1486, Note_on_c, 0, 71, 76
2, 1506, Note_on_c, 0, 55, 0
2, 1551, Note_on_c, 0, 71, 0
2, 1556, Note_on_c, 0, 67, 80
2, 1631, Note_on_c, 0, 67, 0
2, 1637, Note_on_c, 0, 62, 71
2, 1697, Note_on_c, 0, 62, 0
2, 1707, Note_on_c, 0, 55, 77
2, 1723, Note_on_c, 0, 64, 83
2, 1736, Note_on_c, 0, 55, 0
2, 1807, Note_on_c, 0, 64, 0
2, 1808, Note_on_c, 0, 67, 80
2, 1878, Note_on_c, 0, 67, 0
2, 1879, Note_on_c, 0, 72, 72
2, 1961, Note_on_c, 0, 43, 67
2, 1962, Note_on_c, 0, 76, 78
2, 1970, Note_on_c, 0, 72, 0
2, 2007, Note_on_c, 0, 43, 0
2, 2037, Note_on_c, 0, 72, 81
2, 2045, Note_on_c, 0, 76, 0
2, 2114, Note_on_c, 0, 72, 0
2, 2123, Note_on_c, 0, 67, 74
2, 2188, Note_on_c, 0, 67, 0
2, 2201, Note_on_c, 0, 72, 74
2, 2286, Note_on_c, 0, 67, 65
2, 2295, Note_on_c, 0, 72, 0
2, 2358, Note_on_c, 0, 67, 0
2, 2364, Note_on_c, 0, 64, 68
2, 2410, Note_on_c, 0, 64, 0
2, 2460, Note_on_c, 0, 55, 72
2, 2460, Note_on_c, 0, 67, 72
2, 2487, Note_on_c, 0, 55, 0
2, 2536, Note_on_c, 0, 64, 61
2, 2539, Note_on_c, 0, 67, 0
2, 2603, Note_on_c, 0, 64, 0
2, 2615, Note_on_c, 0, 60, 69
2, 2685, Note_on_c, 0, 60, 0
2, 2703, Note_on_c, 0, 55, 77
2, 2704, Note_on_c, 0, 57, 74
2, 2740, Note_on_c, 0, 55, 0
2, 2778, Note_on_c, 0, 57, 0
2, 2790, Note_on_c, 0, 60, 73
2, 2850, Note_on_c, 0, 60, 0
2, 2863, Note_on_c, 0, 66, 66
2, 2957, Note_on_c, 0, 66, 0
2, 2957, Note_on_c, 0, 69, 75
2, 2958, Note_on_c, 0, 43, 64
2, 3003, Note_on_c, 0, 43, 0
2, 3036, Note_on_c, 0, 66, 77
2, 3043, Note_on_c, 0, 69, 0
2, 3117, Note_on_c, 0, 66, 0
2, 3120, Note_on_c, 0, 60, 68
2, 3165, Note_on_c, 0, 60, 0
2, 3191, Note_on_c, 0, 66, 71
2, 3269, Note_on_c, 0, 66, 0
2, 3272, Note_on_c, 0, 60, 70
2, 3333, Note_on_c, 0, 60, 0
2, 3358, Note_on_c, 0, 57, 55
2, 3398, Note_on_c, 0, 57, 0
2, 3436, Note_on_c, 0, 55, 71
2, 3450, Note_on_c, 0, 60, 66
2, 3463, Note_on_c, 0, 55, 0
2, 3515, Note_on_c, 0, 57, 54
2, 3521, Note_on_c, 0, 60, 0
2, 3582, Note_on_c, 0, 57, 0
2, 3585, Note_on_c, 0, 54, 63
2, 3632, Note_on_c, 0, 54, 0
2, 3683, Note_on_c, 0, 55, 62
2, 3750, Note_on_c, 0, 55, 0
2, 3765, Note_on_c, 0, 59, 60
2, 3845, Note_on_c, 0, 59, 0
2, 3862, Note_on_c, 0, 62, 53
2, 3920, Note_on_c, 0, 62, 0
2, 3937, Note_on_c, 0, 67, 63
2, 3947, Note_on_c, 0, 43, 53
2, 3990, Note_on_c, 0, 43, 0
2, 3999, Note_on_c, 0, 67, 0
2, 4016, Note_on_c, 0, 62, 61
2, 4066, Note_on_c, 0, 62, 0
2, 4089, Note_on_c, 0, 59, 62
2, 4141, Note_on_c, 0, 59, 0
2, 4178, Note_on_c, 0, 62, 58
2, 4233, Note_on_c, 0, 62, 0
2, 4245, Note_on_c, 0, 59, 61
2, 4287, Note_on_c, 0, 59, 0
2, 4318, Note_on_c, 0, 55, 53
2, 4355, Note_on_c, 0, 55, 0
2, 4407, Note_on_c, 0, 55, 73
2, 4411, Note_on_c, 0, 59, 61
2, 4431, Note_on_c, 0, 55, 0
2, 4489, Note_on_c, 0, 59, 0
2, 4502, Note_on_c, 0, 55, 66
2, 4548, Note_on_c, 0, 55, 0
2, 4563, Note_on_c, 0, 52, 67
2, 4595, Note_on_c, 0, 52, 0
2, 4666, Note_on_c, 0, 57, 60
2, 4667, Note_on_c, 0, 55, 67
2, 4704, Note_on_c, 0, 55, 0
2, 4749, Note_on_c, 0, 57, 0
2, 4755, Note_on_c, 0, 61, 66
2, 4833, Note_on_c, 0, 64, 64
2, 4834, Note_on_c, 0, 61, 0
2, 4911, Note_on_c, 0, 43, 54
2, 4911, Note_on_c, 0, 64, 0
2, 4918, Note_on_c, 0, 69, 73
2, 4964, Note_on_c, 0, 43, 0
2, 4988, Note_on_c, 0, 69, 0
2, 4989, Note_on_c, 0, 64, 68
2, 5066, Note_on_c, 0, 64, 0
2, 5074, Note_on_c, 0, 61, 72
2, 5140, Note_on_c, 0, 61, 0
2, 5143, Note_on_c, 0, 64, 62
2, 5224, Note_on_c, 0, 61, 73
2, 5230, Note_on_c, 0, 64, 0
2, 5300, Note_on_c, 0, 61, 0
2, 5315, Note_on_c, 0, 57, 62
2, 5363, Note_on_c, 0, 57, 0
2, 5390, Note_on_c, 0, 55, 61
2, 5400, Note_on_c, 0, 61, 70
2, 5420, Note_on_c, 0, 55, 0
2, 5477, Note_on_c, 0, 57, 61
2, 5511, Note_on_c, 0, 61, 0
2, 5560, Note_on_c, 0, 52, 60
2, 5598, Note_on_c, 0, 57, 0
2, 5601, Note_on_c, 0, 52, 0
2, 5643, Note_on_c, 0, 54, 50
2, 5655, Note_on_c, 0, 62, 61
2, 5699, Note_on_c, 0, 62, 0
2, 5731, Note_on_c, 0, 57, 53
2, 5734, Note_on_c, 0, 54, 0
2, 5804, Note_on_c, 0, 57, 0
2, 5804, Note_on_c, 0, 61, 66
2, 5862, Note_on_c, 0, 61, 0
2, 5895, Note_on_c, 0, 62, 68
2, 5958, Note_on_c, 0, 62, 0
2, 5980, Note_on_c, 0, 57, 65
2, 6045, Note_on_c, 0, 57, 0
2, 6055, Note_on_c, 0, 54, 68
2, 6128, Note_on_c, 0, 54, 0
2, 6144, Note_on_c, 0, 57, 74
2, 6211, Note_on_c, 0, 57, 0
2, 6220, Note_on_c, 0, 54, 72
2, 6290, Note_on_c, 0, 50, 63
2, 6296, Note_on_c, 0, 54, 0
2, 6375, Note_on_c, 0, 50, 0
2, 6379, Note_on_c, 0, 54, 67
2, 6384, Note_on_c, 0, 62, 68
2, 6419, Note_on_c, 0, 62, 0
2, 6451, Note_on_c, 0, 54, 0
2, 6467, Note_on_c, 0, 50, 52
2, 6549, Note_on_c, 0, 50, 0
2, 6555, Note_on_c, 0, 47, 53
2, 6624, Note_on_c, 0, 47, 0
2, 6641, Note_on_c, 0, 62, 56
2, 6647, Note_on_c, 0, 52, 62
2, 6677, Note_on_c, 0, 52, 0
2, 6708, Note_on_c, 0, 62, 0
2, 6716, Note_on_c, 0, 61, 55
2, 6770, Note_on_c, 0, 61, 0
2, 6802, Note_on_c, 0, 62, 52
2, 6873, Note_on_c, 0, 62, 0
2, 6891, Note_on_c, 0, 64, 59
2, 6907, Note_on_c, 0, 40, 53
2, 6938, Note_on_c, 0, 40, 0
2, 6962, Note_on_c, 0, 64, 0
2, 6972, Note_on_c, 0, 61, 55
2, 7030, Note_on_c, 0, 61, 0
2, 7054, Note_on_c, 0, 62, 52
2, 7118, Note_on_c, 0, 62, 0
2, 7138, Note_on_c, 0, 66, 61
2, 7219, Note_on_c, 0, 66, 0
2, 7233, Note_on_c, 0, 61, 52
2, 7288, Note_on_c, 0, 61, 0
2, 7297, Note_on_c, 0, 62, 45
2, 7393, Note_on_c, 0, 52, 65
2, 7393, Note_on_c, 0, 62, 0
2, 7403, Note_on_c, 0, 67, 60
2, 7426, Note_on_c, 0, 52, 0
2, 7496, Note_on_c, 0, 61, 48
2, 7497, Note_on_c, 0, 67, 0
2, 7562, Note_on_c, 0, 62, 52
2, 7567, Note_on_c, 0, 61, 0
2, 7662, Note_on_c, 0, 49, 57
2, 7666, Note_on_c, 0, 62, 0
2, 7667, Note_on_c, 0, 69, 63
2, 7703, Note_on_c, 0, 49, 0
2, 7746, Note_on_c, 0, 61, 50
2, 7757, Note_on_c, 0, 69, 0
2, 7820, Note_on_c, 0, 62, 47
2, 7822, Note_on_c, 0, 61, 0
2, 7901, Note_on_c, 0, 62, 0
2, 7910, Note_on_c, 0, 45, 58
2, 7916, Note_on_c, 0, 71, 62
2, 7941, Note_on_c, 0, 45, 0
2, 7984, Note_on_c, 0, 61, 55
2, 7997, Note_on_c, 0, 71, 0
2, 8054, Note_on_c, 0, 62, 57
2, 8072, Note_on_c, 0, 61, 0
2, 8129, Note_on_c, 0, 62, 0
2, 8151, Note_on_c, 0, 69, 67
2, 8153, Note_on_c, 0, 47, 64
2, 8183, Note_on_c, 0, 47, 0
2, 8234, Note_on_c, 0, 61, 51
2, 8239, Note_on_c, 0, 69, 0
2, 8291, Note_on_c, 0, 62, 41
2, 8299, Note_on_c, 0, 61, 0
2, 8395, Note_on_c, 0, 62, 0
2, 8406, Note_on_c, 0, 67, 58
2, 8409, Note_on_c, 0, 49, 53
2, 8438, Note_on_c, 0, 49, 0
2, 8493, Note_on_c, 0, 61, 52
2, 8495, Note_on_c, 0, 67, 0
2, 8539, Note_on_c, 0, 61, 0
2, 8545, Note_on_c, 0, 62, 49
2, 8640, Note_on_c, 0, 62, 0
2, 8651, Note_on_c, 0, 50, 51
2, 8665, Note_on_c, 0, 66, 60
2, 8687, Note_on_c, 0, 50, 0
2, 8710, Note_on_c, 0, 66, 0
2, 8754, Note_on_c, 0, 61, 48
2, 8814, Note_on_c, 0, 61, 0
2, 8831, Note_on_c, 0, 62, 44
2, 8867, Note_on_c, 0, 62, 0
2, 8910, Note_on_c, 0, 52, 56
2, 8917, Note_on_c, 0, 67, 66
2, 8960, Note_on_c, 0, 67, 0
2, 8973, Note_on_c, 0, 52, 0
2, 9005, Note_on_c, 0, 61, 49
2, 9081, Note_on_c, 0, 62, 47
2, 9087, Note_on_c, 0, 61, 0
2, 9126, Note_on_c, 0, 62, 0
2, 9174, Note_on_c, 0, 69, 66
2, 9175, Note_on_c, 0, 54, 48
2, 9213, Note_on_c, 0, 69, 0
2, 9253, Note_on_c, 0, 61, 51
2, 9254, Note_on_c, 0, 54, 0
2, 9319, Note_on_c, 0, 61, 0
2, 9335, Note_on_c, 0, 62, 47
2, 9391, Note_on_c, 0, 62, 0
2, 9424, Note_on_c, 0, 71, 64
2, 9427, Note_on_c, 0, 55, 53
2, 9470, Note_on_c, 0, 71, 0
2, 9489, Note_on_c, 0, 55, 0
2, 9509, Note_on_c, 0, 61, 52
2, 9588, Note_on_c, 0, 62, 42
2, 9591, Note_on_c, 0, 61, 0
2, 9645, Note_on_c, 0, 62, 0
2, 9672, Note_on_c, 0, 69, 63
2, 9680, Note_on_c, 0, 54, 52
2, 9707, Note_on_c, 0, 69, 0
2, 9737, Note_on_c, 0, 54, 0
2, 9755, Note_on_c, 0, 61, 41
2, 9823, Note_on_c, 0, 61, 0
2, 9835, Note_on_c, 0, 62, 46
2, 9880, Note_on_c, 0, 62, 0
2, 9931, Note_on_c, 0, 52, 62
2, 9933, Note_on_c, 0, 67, 62
2, 9966, Note_on_c, 0, 67, 0
2, 9982, Note_on_c, 0, 52, 0
2, 10011, Note_on_c, 0, 61, 52
2, 10053, Note_on_c, 0, 61, 0
2, 10080, Note_on_c, 0, 62, 50
2, 10121, Note_on_c, 0, 62, 0
2, 10174, Note_on_c, 0, 66, 67
2, 10177, Note_on_c, 0, 50, 36
2, 10205, Note_on_c, 0, 66, 0
2, 10210, Note_on_c, 0, 50, 0
2, 10256, Note_on_c, 0, 61, 52
2, 10306, Note_on_c, 0, 61, 0
2, 10327, Note_on_c, 0, 62, 49
2, 10368, Note_on_c, 0, 62, 0
2, 10411, Note_on_c, 0, 54, 48
2, 10422, Note_on_c, 0, 69, 63
2, 10450, Note_on_c, 0, 69, 0
2, 10461, Note_on_c, 0, 54, 0
2, 10471, Note_on_c, 0, 61, 47
2, 10507, Note_on_c, 0, 61, 0
2, 10555, Note_on_c, 0, 62, 55
2, 10579, Note_on_c, 0, 62, 0
2, 10669, Note_on_c, 0, 47, 68
2, 10677, Note_on_c, 0, 68, 73
2, 10714, Note_on_c, 0, 47, 0
2, 10736, Note_on_c, 0, 68, 0
2, 10759, Note_on_c, 0, 71, 71
2, 10816, Note_on_c, 0, 71, 0
2, 10839, Note_on_c, 0, 74, 68
2, 10916, Note_on_c, 0, 74, 0
2, 10917, Note_on_c, 0, 77, 82
2, 10921, Note_on_c, 0, 59, 86
2, 10981, Note_on_c, 0, 59, 0
2, 10987, Note_on_c, 0, 74, 78
2, 11028, Note_on_c, 0, 77, 0
2, 11069, Note_on_c, 0, 71, 80
2, 11069, Note_on_c, 0, 74, 0
2, 11127, Note_on_c, 0, 71, 0
2, 11158, Note_on_c, 0, 74, 81
2, 11233, Note_on_c, 0, 71, 80
2, 11253, Note_on_c, 0, 74, 0
2, 11308, Note_on_c, 0, 71, 0
2, 11311, Note_on_c, 0, 68, 75
2, 11387, Note_on_c, 0, 68, 0
2, 11413, Note_on_c, 0, 57, 82
2, 11416, Note_on_c, 0, 71, 80
2, 11445, Note_on_c, 0, 57, 0
2, 11488, Note_on_c, 0, 68, 84
2, 11515, Note_on_c, 0, 71, 0
2, 11576, Note_on_c, 0, 65, 73
2, 11592, Note_on_c, 0, 68, 0
2, 11649, Note_on_c, 0, 65, 0
2, 11656, Note_on_c, 0, 62, 79
2, 11661, Note_on_c, 0, 56, 79
2, 11699, Note_on_c, 0, 56, 0
2, 11731, Note_on_c, 0, 65, 74
2, 11748, Note_on_c, 0, 62, 0
2, 11806, Note_on_c, 0, 68, 73
2, 11815, Note_on_c, 0, 65, 0
2, 11895, Note_on_c, 0, 71, 70
2, 11897, Note_on_c, 0, 68, 0
2, 11906, Note_on_c, 0, 44, 61
2, 11961, Note_on_c, 0, 44, 0
2, 11971, Note_on_c, 0, 68, 65
2, 11998, Note_on_c, 0, 71, 0
2, 12049, Note_on_c, 0, 65, 69
2, 12051, Note_on_c, 0, 68, 0
2, 12111, Note_on_c, 0, 65, 0
2, 12120, Note_on_c, 0, 68, 69
2, 12209, Note_on_c, 0, 65, 70
2, 12209, Note_on_c, 0, 68, 0
2, 12282, Note_on_c, 0, 65, 0
2, 12298, Note_on_c, 0, 62, 64
2, 12341, Note_on_c, 0, 62, 0
2, 12387, Note_on_c, 0, 56, 61
2, 12396, Note_on_c, 0, 65, 68
2, 12416, Note_on_c, 0, 56, 0
2, 12463, Note_on_c, 0, 62, 65
2, 12472, Note_on_c, 0, 65, 0
2, 12537, Note_on_c, 0, 59, 60
2, 12540, Note_on_c, 0, 62, 0
2, 12600, Note_on_c, 0, 59, 0
2, 12637, Note_on_c, 0, 60, 66
2, 12642, Note_on_c, 0, 57, 57
2, 12673, Note_on_c, 0, 60, 0
2, 12700, Note_on_c, 0, 57, 0
2, 12808, Note_on_c, 0, 64, 50
2, 12879, Note_on_c, 0, 64, 0
2, 12882, Note_on_c, 0, 76, 71
2, 12894, Note_on_c, 0, 69, 58
2, 12926, Note_on_c, 0, 76, 0
2, 12955, Note_on_c, 0, 69, 0
2, 12984, Note_on_c, 0, 64, 49
2, 13030, Note_on_c, 0, 64, 0
2, 13058, Note_on_c, 0, 60, 61
2, 13101, Note_on_c, 0, 60, 0
2, 13129, Note_on_c, 0, 72, 70
2, 13154, Note_on_c, 0, 64, 63
2, 13167, Note_on_c, 0, 72, 0
2, 13200, Note_on_c, 0, 64, 0
2, 13222, Note_on_c, 0, 60, 67
2, 13283, Note_on_c, 0, 60, 0
2, 13301, Note_on_c, 0, 57, 56
2, 13342, Note_on_c, 0, 57, 0
2, 13379, Note_on_c, 0, 60, 64
2, 13395, Note_on_c, 0, 69, 62
2, 13423, Note_on_c, 0, 60, 0
2, 13425, Note_on_c, 0, 69, 0
2, 13457, Note_on_c, 0, 57, 66
2, 13519, Note_on_c, 0, 57, 0
2, 13538, Note_on_c, 0, 52, 55
2, 13594, Note_on_c, 0, 52, 0
2, 13609, Note_on_c, 0, 48, 62
2, 13631, Note_on_c, 0, 64, 56
2, 13651, Note_on_c, 0, 64, 0
2, 13665, Note_on_c, 0, 48, 0
2, 13715, Note_on_c, 0, 52, 51
2, 13769, Note_on_c, 0, 52, 0
2, 13781, Note_on_c, 0, 57, 57
2, 13845, Note_on_c, 0, 57, 0
2, 13880, Note_on_c, 0, 60, 59
2, 13880, Note_on_c, 0, 76, 57
2, 13923, Note_on_c, 0, 76, 0
2, 13929, Note_on_c, 0, 60, 0
2, 13964, Note_on_c, 0, 57, 61
2, 14003, Note_on_c, 0, 57, 0
2, 14036, Note_on_c, 0, 52, 58
2, 14078, Note_on_c, 0, 52, 0
2, 14112, Note_on_c, 0, 72, 66
2, 14114, Note_on_c, 0, 57, 69
2, 14142, Note_on_c, 0, 72, 0
2, 14174, Note_on_c, 0, 57, 0
2, 14190, Note_on_c, 0, 52, 68
2, 14248, Note_on_c, 0, 52, 0
2, 14258, Note_on_c, 0, 48, 59
2, 14306, Note_on_c, 0, 48, 0
2, 14347, Note_on_c, 0, 52, 73
2, 14350, Note_on_c, 0, 69, 75
2, 14373, Note_on_c, 0, 69, 0
2, 14407, Note_on_c, 0, 52, 0
2, 14427, Note_on_c, 0, 48, 69
2, 14487, Note_on_c, 0, 48, 0
2, 14510, Note_on_c, 0, 45, 57
2, 14596, Note_on_c, 0, 42, 67
2, 14598, Note_on_c, 0, 45, 0
2, 14616, Note_on_c, 0, 75, 74
2, 14632, Note_on_c, 0, 42, 0
2, 14667, Note_on_c, 0, 75, 0
2, 14695, Note_on_c, 0, 78, 76
2, 14779, Note_on_c, 0, 81, 77
2, 14793, Note_on_c, 0, 78, 0
2, 14849, Note_on_c, 0, 54, 77
2, 14867, Note_on_c, 0, 84, 85
2, 14875, Note_on_c, 0, 81, 0
2, 14912, Note_on_c, 0, 54, 0
2, 14938, Note_on_c, 0, 81, 78
2, 14970, Note_on_c, 0, 84, 0
2, 15006, Note_on_c, 0, 78, 85
2, 15010, Note_on_c, 0, 81, 0
2, 15069, Note_on_c, 0, 78, 0
2, 15096, Note_on_c, 0, 81, 91
2, 15168, Note_on_c, 0, 78, 89
2, 15199, Note_on_c, 0, 81, 0
2, 15261, Note_on_c, 0, 78, 0
2, 15267, Note_on_c, 0, 75, 74
2, 15321, Note_on_c, 0, 75, 0
2, 15353, Note_on_c, 0, 78, 87
2, 15358, Note_on_c, 0, 52, 80
2, 15394, Note_on_c, 0, 52, 0
2, 15426, Note_on_c, 0, 75, 78
2, 15459, Note_on_c, 0, 78, 0
2, 15503, Note_on_c, 0, 72, 77
2, 15528, Note_on_c, 0, 75, 0
2, 15597, Note_on_c, 0, 72, 0
2, 15605, Note_on_c, 0, 69, 80
2, 15628, Note_on_c, 0, 51, 73
2, 15657, Note_on_c, 0, 51, 0
2, 15682, Note_on_c, 0, 72, 72
2, 15688, Note_on_c, 0, 69, 0
2, 15770, Note_on_c, 0, 75, 69
2, 15789, Note_on_c, 0, 72, 0
2, 15857, Note_on_c, 0, 78, 77
2, 15860, Note_on_c, 0, 75, 0
2, 15881, Note_on_c, 0, 39, 60
2, 15914, Note_on_c, 0, 39, 0
2, 15930, Note_on_c, 0, 75, 70
2, 15961, Note_on_c, 0, 78, 0
2, 16030, Note_on_c, 0, 75, 0
2, 16031, Note_on_c, 0, 72, 69
2, 16108, Note_on_c, 0, 72, 0
2, 16108, Note_on_c, 0, 75, 74
2, 16193, Note_on_c, 0, 72, 66
2, 16199, Note_on_c, 0, 75, 0
2, 16264, Note_on_c, 0, 72, 0
2, 16279, Note_on_c, 0, 69, 64
2, 16329, Note_on_c, 0, 69, 0
2, 16368, Note_on_c, 0, 51, 52
2, 16377, Note_on_c, 0, 72, 68
2, 16398, Note_on_c, 0, 51, 0
2, 16456, Note_on_c, 0, 72, 0
2, 16464, Note_on_c, 0, 69, 60
2, 16528, Note_on_c, 0, 69, 0
2, 16533, Note_on_c, 0, 66, 65
2, 16615, Note_on_c, 0, 66, 0
2, 16621, Note_on_c, 0, 52, 54
2, 16624, Note_on_c, 0, 67, 69
2, 16655, Note_on_c, 0, 67, 0
2, 16658, Note_on_c, 0, 52, 0
2, 16718, Note_on_c, 0, 63, 57
2, 16764, Note_on_c, 0, 63, 0
2, 16803, Note_on_c, 0, 64, 46
2, 16833, Note_on_c, 0, 64, 0
2, 16877, Note_on_c, 0, 54, 54
2, 16890, Note_on_c, 0, 69, 67
2, 16918, Note_on_c, 0, 69, 0
2, 16927, Note_on_c, 0, 54, 0
2, 16960, Note_on_c, 0, 63, 48
2, 17025, Note_on_c, 0, 63, 0
2, 17031, Note_on_c, 0, 64, 47
2, 17070, Note_on_c, 0, 64, 0
2, 17133, Note_on_c, 0, 55, 55
2, 17137, Note_on_c, 0, 71, 63
2, 17167, Note_on_c, 0, 71, 0
2, 17202, Note_on_c, 0, 55, 0
2, 17215, Note_on_c, 0, 63, 53
2, 17295, Note_on_c, 0, 63, 0
2, 17299, Note_on_c, 0, 64, 43
2, 17340, Note_on_c, 0, 64, 0
2, 17376, Note_on_c, 0, 72, 70
2, 17384, Note_on_c, 0, 57, 43
2, 17422, Note_on_c, 0, 72, 0
2, 17447, Note_on_c, 0, 57, 0
2, 17453, Note_on_c, 0, 63, 48
2, 17545, Note_on_c, 0, 64, 38
2, 17546, Note_on_c, 0, 63, 0
2, 17578, Note_on_c, 0, 64, 0
2, 17621, Note_on_c, 0, 55, 53
2, 17635, Note_on_c, 0, 71, 61
2, 17672, Note_on_c, 0, 71, 0
2, 17673, Note_on_c, 0, 55, 0
2, 17699, Note_on_c, 0, 63, 57
2, 17783, Note_on_c, 0, 63, 0
2, 17792, Note_on_c, 0, 64, 41
2, 17825, Note_on_c, 0, 64, 0
2, 17863, Note_on_c, 0, 54, 56
2, 17869, Note_on_c, 0, 69, 67
2, 17907, Note_on_c, 0, 69, 0
2, 17933, Note_on_c, 0, 54, 0
2, 17950, Note_on_c, 0, 63, 49
2, 17988, Note_on_c, 0, 63, 0
2, 18019, Note_on_c, 0, 64, 53
2, 18054, Note_on_c, 0, 64, 0
2, 18110, Note_on_c, 0, 52, 63
2, 18122, Note_on_c, 0, 67, 69
2, 18146, Note_on_c, 0, 52, 0
2, 18152, Note_on_c, 0, 67, 0
2, 18207, Note_on_c, 0, 63, 51
2, 18266, Note_on_c, 0, 63, 0
2, 18266, Note_on_c, 0, 64, 53
2, 18306, Note_on_c, 0, 64, 0
2, 18350, Note_on_c, 0, 55, 55
2, 18368, Note_on_c, 0, 71, 60
2, 18400, Note_on_c, 0, 71, 0
2, 18414, Note_on_c, 0, 63, 42
2, 18425, Note_on_c, 0, 55, 0
2, 18459, Note_on_c, 0, 63, 0
2, 18498, Note_on_c, 0, 64, 39
2, 18522, Note_on_c, 0, 64, 0
2, 18610, Note_on_c, 0, 49, 55
2, 18626, Note_on_c, 0, 69, 57
2, 18666, Note_on_c, 0, 49, 0
2, 18697, Note_on_c, 0, 69, 0
2, 18715, Note_on_c, 0, 68, 53
2, 18786, Note_on_c, 0, 68, 0
2, 18796, Note_on_c, 0, 69, 56
2, 18867, Note_on_c, 0, 69, 0
2, 18877, Note_on_c, 0, 71, 59
2, 18880, Note_on_c, 0, 50, 39
2, 18939, Note_on_c, 0, 71, 0
2, 18942, Note_on_c, 0, 50, 0
2, 18956, Note_on_c, 0, 68, 59
2, 19018, Note_on_c, 0, 68, 0
2, 19033, Note_on_c, 0, 69, 62
2, 19118, Note_on_c, 0, 52, 59
2, 19122, Note_on_c, 0, 73, 71
2, 19142, Note_on_c, 0, 69, 0
2, 19150, Note_on_c, 0, 52, 0
2, 19202, Note_on_c, 0, 68, 65
2, 19214, Note_on_c, 0, 73, 0
2, 19272, Note_on_c, 0, 69, 68
2, 19287, Note_on_c, 0, 68, 0
2, 19354, Note_on_c, 0, 74, 78
2, 19355, Note_on_c, 0, 54, 60
2, 19382, Note_on_c, 0, 69, 0
2, 19388, Note_on_c, 0, 54, 0
2, 19433, Note_on_c, 0, 68, 66
2, 19467, Note_on_c, 0, 74, 0
2, 19512, Note_on_c, 0, 69, 65
2, 19528, Note_on_c, 0, 68, 0
2, 19581, Note_on_c, 0, 76, 79
2, 19588, Note_on_c, 0, 49, 68
2, 19597, Note_on_c, 0, 69, 0
2, 19627, Note_on_c, 0, 49, 0
2, 19661, Note_on_c, 0, 68, 75
2, 19672, Note_on_c, 0, 76, 0
2, 19751, Note_on_c, 0, 69, 65
2, 19758, Note_on_c, 0, 68, 0
2, 19816, Note_on_c, 0, 78, 84
2, 19818, Note_on_c, 0, 47, 74
2, 19850, Note_on_c, 0, 69, 0
2, 19874, Note_on_c, 0, 47, 0
2, 19886, Note_on_c, 0, 77, 51
2, 19896, Note_on_c, 0, 78, 0
2, 19905, Note_on_c, 0, 68, 82
2, 19914, Note_on_c, 0, 77, 0
2, 19986, Note_on_c, 0, 68, 0
2, 20002, Note_on_c, 0, 69, 67
2, 20058, Note_on_c, 0, 45, 66
2, 20070, Note_on_c, 0, 79, 86
2, 20089, Note_on_c, 0, 69, 0
2, 20106, Note_on_c, 0, 45, 0
2, 20154, Note_on_c, 0, 76, 74
2, 20184, Note_on_c, 0, 79, 0
2, 20223, Note_on_c, 0, 73, 76
2, 20244, Note_on_c, 0, 76, 0
2, 20289, Note_on_c, 0, 73, 0
2, 20290, Note_on_c, 0, 49, 64
2, 20293, Note_on_c, 0, 69, 80
2, 20326, Note_on_c, 0, 49, 0
2, 20375, Note_on_c, 0, 73, 78
2, 20385, Note_on_c, 0, 69, 0
2, 20458, Note_on_c, 0, 76, 69
2, 20499, Note_on_c, 0, 73, 0
2, 20550, Note_on_c, 0, 50, 49
2, 20550, Note_on_c, 0, 78, 77
2, 20606, Note_on_c, 0, 76, 0
2, 20655, Note_on_c, 0, 54, 50
2, 20683, Note_on_c, 0, 78, 0
2, 20724, Note_on_c, 0, 57, 63
2, 20742, Note_on_c, 0, 50, 0
2, 20745, Note_on_c, 0, 54, 0
2, 20791, Note_on_c, 0, 62, 73
2, 20794, Note_on_c, 0, 57, 0
2, 20862, Note_on_c, 0, 62, 0
2, 20871, Note_on_c, 0, 57, 72
2, 20944, Note_on_c, 0, 54, 63
2, 20947, Note_on_c, 0, 57, 0
2, 21001, Note_on_c, 0, 81, 82
2, 21015, Note_on_c, 0, 54, 0
2, 21030, Note_on_c, 0, 50, 67
2, 21068, Note_on_c, 0, 50, 0
2, 21088, Note_on_c, 0, 78, 80
2, 21125, Note_on_c, 0, 81, 0
2, 21166, Note_on_c, 0, 74, 76
2, 21185, Note_on_c, 0, 78, 0
2, 21234, Note_on_c, 0, 62, 70
2, 21236, Note_on_c, 0, 72, 82
2, 21236, Note_on_c, 0, 74, 0
2, 21265, Note_on_c, 0, 62, 0
2, 21317, Note_on_c, 0, 74, 81
2, 21326, Note_on_c, 0, 72, 0
2, 21409, Note_on_c, 0, 78, 81
2, 21440, Note_on_c, 0, 74, 0
2, 21497, Note_on_c, 0, 50, 55
2, 21506, Note_on_c, 0, 81, 87
2, 21530, Note_on_c, 0, 78, 0
2, 21592, Note_on_c, 0, 50, 0
2, 21597, Note_on_c, 0, 55, 53
2, 21677, Note_on_c, 0, 59, 61
2, 21700, Note_on_c, 0, 55, 0
2, 21726, Note_on_c, 0, 59, 0
2, 21757, Note_on_c, 0, 79, 77
2, 21768, Note_on_c, 0, 62, 61
2, 21779, Note_on_c, 0, 81, 0
2, 21806, Note_on_c, 0, 79, 0
2, 21828, Note_on_c, 0, 62, 0
2, 21831, Note_on_c, 0, 59, 68
2, 21907, Note_on_c, 0, 55, 60
2, 21911, Note_on_c, 0, 59, 0
2, 21992, Note_on_c, 0, 79, 82
2, 21996, Note_on_c, 0, 55, 0
2, 21997, Note_on_c, 0, 50, 70
2, 22027, Note_on_c, 0, 50, 0
2, 22082, Note_on_c, 0, 76, 73
2, 22109, Note_on_c, 0, 79, 0
2, 22159, Note_on_c, 0, 73, 77
2, 22174, Note_on_c, 0, 76, 0
2, 22221, Note_on_c, 0, 73, 0
2, 22232, Note_on_c, 0, 69, 79
2, 22234, Note_on_c, 0, 62, 63
2, 22266, Note_on_c, 0, 62, 0
2, 22310, Note_on_c, 0, 73, 79
2, 22322, Note_on_c, 0, 69, 0
2, 22391, Note_on_c, 0, 76, 80
2, 22409, Note_on_c, 0, 73, 0
2, 22482, Note_on_c, 0, 50, 52
2, 22486, Note_on_c, 0, 79, 82
2, 22489, Note_on_c, 0, 76, 0
2, 22548, Note_on_c, 0, 50, 0
2, 22568, Note_on_c, 0, 57, 49
2, 22653, Note_on_c, 0, 61, 56
2, 22676, Note_on_c, 0, 57, 0
2, 22698, Note_on_c, 0, 61, 0
2, 22742, Note_on_c, 0, 78, 79
2, 22747, Note_on_c, 0, 62, 54
2, 22752, Note_on_c, 0, 79, 0
2, 22792, Note_on_c, 0, 78, 0
2, 22807, Note_on_c, 0, 57, 59
2, 22816, Note_on_c, 0, 62, 0
2, 22885, Note_on_c, 0, 54, 53
2, 22925, Note_on_c, 0, 57, 0
2, 22989, Note_on_c, 0, 54, 0
2, 22992, Note_on_c, 0, 50, 61
2, 22998, Note_on_c, 0, 78, 77
2, 23024, Note_on_c, 0, 50, 0
2, 23082, Note_on_c, 0, 74, 63
2, 23090, Note_on_c, 0, 78, 0
2, 23161, Note_on_c, 0, 71, 61
2, 23170, Note_on_c, 0, 74, 0
2, 23220, Note_on_c, 0, 71, 0
2, 23238, Note_on_c, 0, 67, 67
2, 23256, Note_on_c, 0, 62, 37
2, 23290, Note_on_c, 0, 62, 0
2, 23306, Note_on_c, 0, 67, 0
2, 23313, Note_on_c, 0, 71, 60
2, 23402, Note_on_c, 0, 74, 54
2, 23423, Note_on_c, 0, 71, 0
2, 23487, Note_on_c, 0, 50, 38
2, 23494, Note_on_c, 0, 74, 0
2, 23494, Note_on_c, 0, 78, 72
2, 23535, Note_on_c, 0, 50, 0
2, 23559, Note_on_c, 0, 52, 48
2, 23628, Note_on_c, 0, 52, 0
2, 23637, Note_on_c, 0, 55, 45
2, 23701, Note_on_c, 0, 55, 0
2, 23736, Note_on_c, 0, 59, 56
2, 23747, Note_on_c, 0, 76, 63
2, 23760, Note_on_c, 0, 78, 0
2, 23790, Note_on_c, 0, 76, 0
2, 23818, Note_on_c, 0, 59, 0
2, 23822, Note_on_c, 0, 55, 54
2, 23890, Note_on_c, 0, 52, 51
2, 23924, Note_on_c, 0, 55, 0
2, 23992, Note_on_c, 0, 52, 0
2, 23995, Note_on_c, 0, 50, 59
2, 23996, Note_on_c, 0, 76, 67
2, 24029, Note_on_c, 0, 50, 0
2, 24076, Note_on_c, 0, 76, 0
2, 24078, Note_on_c, 0, 73, 63
2, 24148, Note_on_c, 0, 69, 62
2, 24152, Note_on_c, 0, 73, 0
2, 24204, Note_on_c, 0, 69, 0
2, 24231, Note_on_c, 0, 67, 64
2, 24232, Note_on_c, 0, 62, 51
2, 24255, Note_on_c, 0, 62, 0
2, 24282, Note_on_c, 0, 67, 0
2, 24311, Note_on_c, 0, 69, 59
2, 24390, Note_on_c, 0, 69, 0
2, 24391, Note_on_c, 0, 73, 57
2, 24479, Note_on_c, 0, 50, 41
2, 24482, Note_on_c, 0, 73, 0
2, 24508, Note_on_c, 0, 76, 59
2, 24590, Note_on_c, 0, 54, 42
2, 24630, Note_on_c, 0, 50, 0
2, 24674, Note_on_c, 0, 57, 48
2, 24686, Note_on_c, 0, 54, 0
2, 24747, Note_on_c, 0, 57, 0
2, 24755, Note_on_c, 0, 74, 61
2, 24762, Note_on_c, 0, 76, 0
2, 24767, Note_on_c, 0, 62, 54
2, 24823, Note_on_c, 0, 74, 0
2, 24824, Note_on_c, 0, 62, 0
2, 24858, Note_on_c, 0, 57, 56
2, 24902, Note_on_c, 0, 57, 0
2, 24916, Note_on_c, 0, 54, 51
2, 24968, Note_on_c, 0, 54, 0
2, 24993, Note_on_c, 0, 57, 64
2, 25068, Note_on_c, 0, 57, 0
2, 25072, Note_on_c, 0, 54, 69
2, 25143, Note_on_c, 0, 54, 0
2, 25146, Note_on_c, 0, 50, 59
2, 25231, Note_on_c, 0, 50, 0
2, 25241, Note_on_c, 0, 54, 68
2, 25252, Note_on_c, 0, 74, 65
2, 25292, Note_on_c, 0, 74, 0
2, 25307, Note_on_c, 0, 54, 0
2, 25316, Note_on_c, 0, 50, 60
2, 25417, Note_on_c, 0, 48, 55
2, 25421, Note_on_c, 0, 50, 0
2, 25487, Note_on_c, 0, 48, 0
2, 25488, Note_on_c, 0, 47, 63
2, 25538, Note_on_c, 0, 74, 58
2, 25573, Note_on_c, 0, 47, 0
2, 25576, Note_on_c, 0, 50, 52
2, 25626, Note_on_c, 0, 72, 64
2, 25641, Note_on_c, 0, 74, 0
2, 25658, Note_on_c, 0, 54, 57
2, 25664, Note_on_c, 0, 50, 0
2, 25680, Note_on_c, 0, 72, 0
2, 25691, Note_on_c, 0, 71, 60
2, 25712, Note_on_c, 0, 71, 0
2, 25719, Note_on_c, 0, 54, 0
2, 25755, Note_on_c, 0, 55, 61
2, 25778, Note_on_c, 0, 71, 78
2, 25817, Note_on_c, 0, 55, 0
2, 25835, Note_on_c, 0, 50, 63
2, 25842, Note_on_c, 0, 69, 72
2, 25855, Note_on_c, 0, 71, 0
2, 25909, Note_on_c, 0, 69, 0
2, 25916, Note_on_c, 0, 50, 0
2, 25916, Note_on_c, 0, 67, 77
2, 25925, Note_on_c, 0, 47, 60
2, 25950, Note_on_c, 0, 67, 0
2, 25981, Note_on_c, 0, 47, 0
2, 26011, Note_on_c, 0, 67, 73
2, 26014, Note_on_c, 0, 50, 71
2, 26080, Note_on_c, 0, 50, 0
2, 26083, Note_on_c, 0, 67, 0
2, 26092, Note_on_c, 0, 47, 70
2, 26097, Note_on_c, 0, 71, 72
2, 26165, Note_on_c, 0, 47, 0
2, 26171, Note_on_c, 0, 43, 62
2, 26176, Note_on_c, 0, 74, 74
2, 26195, Note_on_c, 0, 71, 0
2, 26237, Note_on_c, 0, 43, 0
2, 26257, Note_on_c, 0, 47, 74
2, 26260, Note_on_c, 0, 74, 0
2, 26270, Note_on_c, 0, 77, 77
2, 26327, Note_on_c, 0, 47, 0
2, 26340, Note_on_c, 0, 43, 68
2, 26343, Note_on_c, 0, 76, 71
2, 26353, Note_on_c, 0, 77, 0
2, 26420, Note_on_c, 0, 43, 0
2, 26426, Note_on_c, 0, 41, 64
2, 26427, Note_on_c, 0, 74, 67
2, 26433, Note_on_c, 0, 76, 0
2, 26454, Note_on_c, 0, 74, 0
2, 26489, Note_on_c, 0, 41, 0
2, 26496, Note_on_c, 0, 40, 65
2, 26513, Note_on_c, 0, 74, 70
2, 26562, Note_on_c, 0, 40, 0
2, 26571, Note_on_c, 0, 43, 58
2, 26591, Note_on_c, 0, 76, 68
2, 26604, Note_on_c, 0, 74, 0
2, 26652, Note_on_c, 0, 43, 0
2, 26660, Note_on_c, 0, 47, 61
2, 26660, Note_on_c, 0, 76, 0
2, 26667, Note_on_c, 0, 77, 69
2, 26710, Note_on_c, 0, 47, 0
2, 26755, Note_on_c, 0, 48, 64
2, 26760, Note_on_c, 0, 76, 68
2, 26770, Note_on_c, 0, 77, 0
2, 26794, Note_on_c, 0, 48, 0
2, 26851, Note_on_c, 0, 52, 65
2, 26876, Note_on_c, 0, 76, 0
2, 26931, Note_on_c, 0, 55, 70
2, 26934, Note_on_c, 0, 52, 0
2, 26985, Note_on_c, 0, 55, 0
2, 27010, Note_on_c, 0, 60, 76
2, 27075, Note_on_c, 0, 60, 0
2, 27094, Note_on_c, 0, 55, 72
2, 27162, Note_on_c, 0, 55, 0
2, 27165, Note_on_c, 0, 52, 62
2, 27228, Note_on_c, 0, 52, 0
2, 27255, Note_on_c, 0, 55, 72
2, 27267, Note_on_c, 0, 76, 73
2, 27307, Note_on_c, 0, 55, 0
2, 27310, Note_on_c, 0, 76, 0
2, 27317, Note_on_c, 0, 52, 63
2, 27411, Note_on_c, 0, 50, 54
2, 27433, Note_on_c, 0, 52, 0
2, 27515, Note_on_c, 0, 50, 0
2, 27517, Note_on_c, 0, 49, 63
2, 27545, Note_on_c, 0, 76, 68
2, 27593, Note_on_c, 0, 49, 0
2, 27604, Note_on_c, 0, 52, 62
2, 27626, Note_on_c, 0, 74, 69
2, 27638, Note_on_c, 0, 76, 0
2, 27687, Note_on_c, 0, 55, 61
2, 27688, Note_on_c, 0, 74, 0
2, 27689, Note_on_c, 0, 52, 0
2, 27693, Note_on_c, 0, 73, 74
2, 27720, Note_on_c, 0, 73, 0
2, 27732, Note_on_c, 0, 55, 0
2, 27765, Note_on_c, 0, 57, 70
2, 27775, Note_on_c, 0, 73, 78
2, 27833, Note_on_c, 0, 57, 0
2, 27836, Note_on_c, 0, 52, 69
2, 27852, Note_on_c, 0, 71, 73
2, 27869, Note_on_c, 0, 73, 0
2, 27900, Note_on_c, 0, 52, 0
2, 27907, Note_on_c, 0, 49, 65
2, 27920, Note_on_c, 0, 71, 0
2, 27928, Note_on_c, 0, 69, 82
2, 27953, Note_on_c, 0, 69, 0
2, 27974, Note_on_c, 0, 49, 0
2, 28000, Note_on_c, 0, 52, 75
2, 28003, Note_on_c, 0, 69, 82
2, 28060, Note_on_c, 0, 52, 0
2, 28069, Note_on_c, 0, 49, 72
2, 28090, Note_on_c, 0, 69, 0
2, 28093, Note_on_c, 0, 73, 77
2, 28136, Note_on_c, 0, 45, 64
2, 28136, Note_on_c, 0, 49, 0
2, 28168, Note_on_c, 0, 76, 71
2, 28172, Note_on_c, 0, 73, 0
2, 28227, Note_on_c, 0, 45, 0
2, 28234, Note_on_c, 0, 49, 75
2, 28245, Note_on_c, 0, 76, 0
2, 28247, Note_on_c, 0, 79, 81
2, 28304, Note_on_c, 0, 45, 61
2, 28310, Note_on_c, 0, 49, 0
2, 28343, Note_on_c, 0, 78, 80
2, 28353, Note_on_c, 0, 79, 0
2, 28411, Note_on_c, 0, 43, 63
2, 28412, Note_on_c, 0, 45, 0
2, 28423, Note_on_c, 0, 76, 62
2, 28429, Note_on_c, 0, 78, 0
2, 28449, Note_on_c, 0, 77, 27
2, 28450, Note_on_c, 0, 76, 0
2, 28474, Note_on_c, 0, 77, 0
2, 28489, Note_on_c, 0, 42, 69
2, 28496, Note_on_c, 0, 76, 83
2, 28497, Note_on_c, 0, 43, 0
2, 28562, Note_on_c, 0, 45, 55
2, 28579, Note_on_c, 0, 78, 80
2, 28589, Note_on_c, 0, 76, 0
2, 28595, Note_on_c, 0, 42, 0
2, 28640, Note_on_c, 0, 49, 69
2, 28652, Note_on_c, 0, 45, 0
2, 28655, Note_on_c, 0, 79, 76
2, 28662, Note_on_c, 0, 78, 0
2, 28708, Note_on_c, 0, 49, 0
2, 28738, Note_on_c, 0, 78, 85
2, 28739, Note_on_c, 0, 50, 76
2, 28763, Note_on_c, 0, 79, 0
2, 28787, Note_on_c, 0, 50, 0
2, 28811, Note_on_c, 0, 78, 0
2, 28821, Note_on_c, 0, 54, 67
2, 28902, Note_on_c, 0, 57, 77
2, 28917, Note_on_c, 0, 54, 0
2, 28970, Note_on_c, 0, 57, 0
2, 28987, Note_on_c, 0, 62, 77
2, 29058, Note_on_c, 0, 62, 0
2, 29075, Note_on_c, 0, 57, 73
2, 29135, Note_on_c, 0, 54, 67
2, 29135, Note_on_c, 0, 57, 0
2, 29204, Note_on_c, 0, 54, 0
2, 29229, Note_on_c, 0, 57, 74
2, 29234, Note_on_c, 0, 81, 84
2, 29286, Note_on_c, 0, 81, 0
2, 29294, Note_on_c, 0, 57, 0
2, 29301, Note_on_c, 0, 54, 75
2, 29371, Note_on_c, 0, 50, 66
2, 29384, Note_on_c, 0, 54, 0
2, 29472, Note_on_c, 0, 50, 0
2, 29479, Note_on_c, 0, 54, 75
2, 29484, Note_on_c, 0, 81, 80
2, 29552, Note_on_c, 0, 54, 0
2, 29559, Note_on_c, 0, 50, 58
2, 29564, Note_on_c, 0, 79, 74
2, 29583, Note_on_c, 0, 81, 0
2, 29630, Note_on_c, 0, 79, 0
2, 29633, Note_on_c, 0, 78, 81
2, 29640, Note_on_c, 0, 50, 0
2, 29645, Note_on_c, 0, 45, 61
2, 29654, Note_on_c, 0, 78, 0
2, 29692, Note_on_c, 0, 45, 0
2, 29711, Note_on_c, 0, 78, 77
2, 29717, Note_on_c, 0, 50, 75
2, 29782, Note_on_c, 0, 76, 79
2, 29796, Note_on_c, 0, 50, 0
2, 29799, Note_on_c, 0, 45, 78
2, 29808, Note_on_c, 0, 78, 0
2, 29876, Note_on_c, 0, 74, 85
2, 29876, Note_on_c, 0, 76, 0
2, 29884, Note_on_c, 0, 42, 68
2, 29902, Note_on_c, 0, 45, 0
2, 29915, Note_on_c, 0, 74, 0
2, 29955, Note_on_c, 0, 74, 72
2, 29961, Note_on_c, 0, 38, 78
2, 29975, Note_on_c, 0, 42, 0
2, 29996, Note_on_c, 0, 38, 0
2, 30043, Note_on_c, 0, 78, 89
2, 30056, Note_on_c, 0, 74, 0
2, 30120, Note_on_c, 0, 81, 76
2, 30128, Note_on_c, 0, 78, 0
2, 30194, Note_on_c, 0, 50, 85
2, 30205, Note_on_c, 0, 84, 84
2, 30209, Note_on_c, 0, 81, 0
2, 30231, Note_on_c, 0, 50, 0
2, 30289, Note_on_c, 0, 83, 82
2, 30313, Note_on_c, 0, 84, 0
2, 30364, Note_on_c, 0, 81, 86
2, 30377, Note_on_c, 0, 83, 0
2, 30404, Note_on_c, 0, 81, 0
2, 30464, Note_on_c, 0, 43, 71
2, 30468, Note_on_c, 0, 81, 89
2, 30551, Note_on_c, 0, 83, 83
2, 30589, Note_on_c, 0, 81, 0
2, 30638, Note_on_c, 0, 84, 83
2, 30645, Note_on_c, 0, 83, 0
2, 30723, Note_on_c, 0, 83, 88
2, 30748, Note_on_c, 0, 84, 0
2, 30812, Note_on_c, 0, 47, 67
2, 30842, Note_on_c, 0, 43, 0
2, 30890, Note_on_c, 0, 50, 62
2, 30903, Note_on_c, 0, 47, 0
2, 30943, Note_on_c, 0, 50, 0
2, 30958, Note_on_c, 0, 55, 70
2, 31035, Note_on_c, 0, 83, 0
2, 31040, Note_on_c, 0, 55, 0
2, 31041, Note_on_c, 0, 57, 76
2, 31045, Note_on_c, 0, 81, 73
2, 31098, Note_on_c, 0, 57, 0
2, 31114, Note_on_c, 0, 81, 0
2, 31116, Note_on_c, 0, 59, 74
2, 31117, Note_on_c, 0, 79, 85
2, 31144, Note_on_c, 0, 59, 0
2, 31167, Note_on_c, 0, 79, 0
2, 31199, Note_on_c, 0, 77, 86
2, 31201, Note_on_c, 0, 59, 64
2, 31268, Note_on_c, 0, 76, 77
2, 31270, Note_on_c, 0, 60, 77
2, 31286, Note_on_c, 0, 77, 0
2, 31288, Note_on_c, 0, 59, 0
2, 31356, Note_on_c, 0, 74, 81
2, 31361, Note_on_c, 0, 62, 74
2, 31364, Note_on_c, 0, 60, 0
2, 31367, Note_on_c, 0, 76, 0
2, 31426, Note_on_c, 0, 62, 0
2, 31428, Note_on_c, 0, 74, 0
2, 31431, Note_on_c, 0, 64, 73
2, 31444, Note_on_c, 0, 72, 84
2, 31483, Note_on_c, 0, 64, 0
2, 31529, Note_on_c, 0, 72, 0
2, 31534, Note_on_c, 0, 76, 77
2, 31603, Note_on_c, 0, 79, 75
2, 31606, Note_on_c, 0, 76, 0
2, 31685, Note_on_c, 0, 81, 81
2, 31686, Note_on_c, 0, 79, 0
2, 31691, Note_on_c, 0, 60, 67
2, 31758, Note_on_c, 0, 57, 63
2, 31762, Note_on_c, 0, 60, 0
2, 31767, Note_on_c, 0, 78, 83
2, 31796, Note_on_c, 0, 81, 0
2, 31850, Note_on_c, 0, 74, 74
2, 31853, Note_on_c, 0, 54, 53
2, 31861, Note_on_c, 0, 78, 0
2, 31915, Note_on_c, 0, 62, 72
2, 31920, Note_on_c, 0, 57, 0
2, 31936, Note_on_c, 0, 71, 81
2, 31936, Note_on_c, 0, 74, 0
2, 31949, Note_on_c, 0, 54, 0
2, 31964, Note_on_c, 0, 62, 0
2, 32024, Note_on_c, 0, 74, 78
2, 32028, Note_on_c, 0, 71, 0
2, 32102, Note_on_c, 0, 78, 83
2, 32103, Note_on_c, 0, 74, 0
2, 32191, Note_on_c, 0, 79, 74
2, 32192, Note_on_c, 0, 59, 64
2, 32196, Note_on_c, 0, 78, 0
2, 32251, Note_on_c, 0, 55, 68
2, 32258, Note_on_c, 0, 59, 0
2, 32269, Note_on_c, 0, 76, 82
2, 32276, Note_on_c, 0, 79, 0
2, 32343, Note_on_c, 0, 52, 62
2, 32347, Note_on_c, 0, 72, 78
2, 32367, Note_on_c, 0, 76, 0
2, 32390, Note_on_c, 0, 55, 0
2, 32415, Note_on_c, 0, 60, 73
2, 32425, Note_on_c, 0, 72, 0
2, 32427, Note_on_c, 0, 69, 79
2, 32456, Note_on_c, 0, 52, 0
2, 32465, Note_on_c, 0, 60, 0
2, 32506, Note_on_c, 0, 72, 78
2, 32517, Note_on_c, 0, 69, 0
2, 32590, Note_on_c, 0, 72, 0
2, 32590, Note_on_c, 0, 76, 67
2, 32673, Note_on_c, 0, 78, 79
2, 32678, Note_on_c, 0, 57, 69
2, 32751, Note_on_c, 0, 78, 0
2, 32752, Note_on_c, 0, 76, 0
2, 32753, Note_on_c, 0, 54, 66
2, 32754, Note_on_c, 0, 57, 0
2, 32759, Note_on_c, 0, 74, 64
2, 32838, Note_on_c, 0, 50, 56
2, 32841, Note_on_c, 0, 71, 75
2, 32856, Note_on_c, 0, 74, 0
2, 32909, Note_on_c, 0, 59, 71
2, 32919, Note_on_c, 0, 54, 0
2, 32925, Note_on_c, 0, 71, 0
2, 32928, Note_on_c, 0, 67, 76
2, 32957, Note_on_c, 0, 50, 0
2, 32964, Note_on_c, 0, 59, 0
2, 32988, Note_on_c, 0, 67, 0
2, 33010, Note_on_c, 0, 71, 74
2, 33080, Note_on_c, 0, 71, 0
2, 33086, Note_on_c, 0, 74, 72
2, 33163, Note_on_c, 0, 55, 60
2, 33165, Note_on_c, 0, 74, 0
2, 33168, Note_on_c, 0, 76, 71
2, 33230, Note_on_c, 0, 55, 0
2, 33241, Note_on_c, 0, 72, 75
2, 33245, Note_on_c, 0, 76, 0
2, 33250, Note_on_c, 0, 52, 61
2, 33316, Note_on_c, 0, 72, 0
2, 33318, Note_on_c, 0, 69, 68
2, 33327, Note_on_c, 0, 48, 50
2, 33362, Note_on_c, 0, 52, 0
2, 33384, Note_on_c, 0, 57, 67
2, 33406, Note_on_c, 0, 66, 76
2, 33408, Note_on_c, 0, 69, 0
2, 33443, Note_on_c, 0, 48, 0
2, 33443, Note_on_c, 0, 57, 0
2, 33474, Note_on_c, 0, 66, 0
2, 33486, Note_on_c, 0, 69, 62
2, 33564, Note_on_c, 0, 72, 64
2, 33571, Note_on_c, 0, 69, 0
2, 33632, Note_on_c, 0, 54, 58
2, 33648, Note_on_c, 0, 72, 0
2, 33649, Note_on_c, 0, 74, 73
2, 33698, Note_on_c, 0, 54, 0
2, 33717, Note_on_c, 0, 50, 60
2, 33731, Note_on_c, 0, 74, 0
2, 33733, Note_on_c, 0, 71, 73
2, 33798, Note_on_c, 0, 47, 51
2, 33810, Note_on_c, 0, 67, 72
2, 33821, Note_on_c, 0, 50, 0
2, 33827, Note_on_c, 0, 71, 0
2, 33875, Note_on_c, 0, 55, 65
2, 33879, Note_on_c, 0, 67, 0
2, 33886, Note_on_c, 0, 64, 74
2, 33911, Note_on_c, 0, 55, 0
2, 33917, Note_on_c, 0, 47, 0
2, 33955, Note_on_c, 0, 64, 0
2, 33968, Note_on_c, 0, 67, 69
2, 34034, Note_on_c, 0, 67, 0
2, 34036, Note_on_c, 0, 71, 67
2, 34119, Note_on_c, 0, 52, 66
2, 34119, Note_on_c, 0, 71, 0
2, 34125, Note_on_c, 0, 72, 72
2, 34179, Note_on_c, 0, 52, 0
2, 34199, Note_on_c, 0, 48, 48
2, 34200, Note_on_c, 0, 72, 0
2, 34205, Note_on_c, 0, 69, 70
2, 34275, Note_on_c, 0, 45, 50
2, 34277, Note_on_c, 0, 66, 69
2, 34283, Note_on_c, 0, 69, 0
2, 34287, Note_on_c, 0, 48, 0
2, 34337, Note_on_c, 0, 66, 0
2, 34339, Note_on_c, 0, 45, 0
2, 34356, Note_on_c, 0, 54, 67
2, 34359, Note_on_c, 0, 62, 71
2, 34393, Note_on_c, 0, 54, 0
2, 34441, Note_on_c, 0, 62, 0
2, 34450, Note_on_c, 0, 66, 71
2, 34519, Note_on_c, 0, 66, 0
2, 34524, Note_on_c, 0, 69, 68
2, 34597, Note_on_c, 0, 69, 0
2, 34611, Note_on_c, 0, 50, 50
2, 34613, Note_on_c, 0, 71, 64
2, 34673, Note_on_c, 0, 50, 0
2, 34680, Note_on_c, 0, 71, 0
2, 34684, Note_on_c, 0, 67, 76
2, 34685, Note_on_c, 0, 47, 64
2, 34768, Note_on_c, 0, 64, 71
2, 34772, Note_on_c, 0, 67, 0
2, 34778, Note_on_c, 0, 47, 0
2, 34780, Note_on_c, 0, 43, 51
2, 34839, Note_on_c, 0, 64, 0
2, 34844, Note_on_c, 0, 52, 73
2, 34845, Note_on_c, 0, 60, 78
2, 34859, Note_on_c, 0, 43, 0
2, 34912, Note_on_c, 0, 52, 0
2, 34917, Note_on_c, 0, 60, 0
2, 34918, Note_on_c, 0, 64, 76
2, 34924, Note_on_c, 0, 48, 63
2, 34988, Note_on_c, 0, 67, 79
2, 35003, Note_on_c, 0, 45, 67
2, 35003, Note_on_c, 0, 64, 0
2, 35013, Note_on_c, 0, 48, 0
2, 35072, Note_on_c, 0, 67, 0
2, 35072, Note_on_c, 0, 69, 79
2, 35084, Note_on_c, 0, 54, 76
2, 35141, Note_on_c, 0, 45, 0
2, 35144, Note_on_c, 0, 50, 66
2, 35156, Note_on_c, 0, 66, 86
2, 35164, Note_on_c, 0, 54, 0
2, 35168, Note_on_c, 0, 69, 0
2, 35242, Note_on_c, 0, 47, 66
2, 35249, Note_on_c, 0, 62, 77
2, 35272, Note_on_c, 0, 50, 0
2, 35276, Note_on_c, 0, 66, 0
2, 35320, Note_on_c, 0, 59, 82
2, 35327, Note_on_c, 0, 62, 0
2, 35330, Note_on_c, 0, 55, 72
2, 35345, Note_on_c, 0, 47, 0
2, 35367, Note_on_c, 0, 55, 0
2, 35404, Note_on_c, 0, 62, 83
2, 35407, Note_on_c, 0, 59, 0
2, 35478, Note_on_c, 0, 66, 80
2, 35492, Note_on_c, 0, 62, 0
2, 35562, Note_on_c, 0, 67, 77
2, 35566, Note_on_c, 0, 52, 65
2, 35568, Note_on_c, 0, 66, 0
2, 35594, Note_on_c, 0, 52, 0
2, 35639, Note_on_c, 0, 64, 81
2, 35646, Note_on_c, 0, 67, 0
2, 35725, Note_on_c, 0, 60, 80
2, 35746, Note_on_c, 0, 64, 0
2, 35790, Note_on_c, 0, 48, 64
2, 35797, Note_on_c, 0, 57, 82
2, 35807, Note_on_c, 0, 60, 0
2, 35832, Note_on_c, 0, 48, 0
2, 35875, Note_on_c, 0, 60, 78
2, 35891, Note_on_c, 0, 57, 0
2, 35968, Note_on_c, 0, 64, 65
2, 35978, Note_on_c, 0, 60, 0
2, 36046, Note_on_c, 0, 50, 60
2, 36057, Note_on_c, 0, 66, 80
2, 36078, Note_on_c, 0, 50, 0
2, 36084, Note_on_c, 0, 64, 0
2, 36145, Note_on_c, 0, 62, 71
2, 36172, Note_on_c, 0, 66, 0
2, 36238, Note_on_c, 0, 60, 70
2, 36248, Note_on_c, 0, 62, 0
2, 36384, Note_on_c, 0, 62, 69
2, 36391, Note_on_c, 0, 60, 0
2, 36392, Note_on_c, 0, 59, 64
2, 36398, Note_on_c, 0, 43, 53
2, 36399, Note_on_c, 0, 67, 79
2, 37970, Note_on_c, 0, 59, 0
2, 37984, Note_on_c, 0, 43, 0
2, 37986, Note_on_c, 0, 67, 0
2, 38039, Note_on_c, 0, 62, 0
2, 39362,End_track
0, 0, End_of_file
