0, 0, Header, 1, 2, 480
1, 0, Start_track
1, 0, Tempo, 500000
1, 0, Time_signature, 4, 2, 24, 8
1, 1, End_track
2, 0, Start_track
2, 0, Program_c, 0, 0
2, 0, Control_c, 0, 64, 54
2, 0, Control_c, 0, 67, 0
2, 159, Control_c, 0, 64, 53
2, 239, Control_c, 0, 64, 52
2, 258, Control_c, 0, 64, 51
2, 276, Control_c, 0, 64, 50
2, 296, Control_c, 0, 64, 47
2, 316, Control_c, 0, 64, 43
2, 336, Control_c, 0, 64, 39
2, 353, Control_c, 0, 64, 36
2, 374, Control_c, 0, 64, 35
2, 392, Control_c, 0, 64, 32
2, 410, Control_c, 0, 64, 29
2, 430, Control_c, 0, 64, 24
2, 450, Control_c, 0, 64, 22
2, 470, Control_c, 0, 64, 20
2, 487, Control_c, 0, 64, 16
2, 505, Control_c, 0, 64, 0
2, 952, Note_on_c, 0, 67, 80
2, 973, Note_on_c, 0, 55, 72
2, 1008, Note_on_c, 0, 55, 0
2, 1019, Note_on_c, 0, 67, 0
2, 1045, Note_on_c, 0, 71, 82
2, 1139, Note_on_c, 0, 71, 0
2, 1143, Note_on_c, 0, 74, 82
2, 1232, Note_on_c, 0, 74, 0
2, 1242, Note_on_c, 0, 43, 72
2, 1242, Note_on_c, 0, 79, 91
2, 1273, Note_on_c, 0, 43, 0
2, 1328, Note_on_c, 0, 74, 81
2, 1335, Note_on_c, 0, 79, 0
2, 1409, Note_on_c, 0, 74, 0
2, 1433, Note_on_c, 0, 71, 77
2, 1516, Note_on_c, 0, 71, 0
2, 1521, Note_on_c, 0, 74, 81
2, 1585, Note_on_c, 0, 74, 0
2, 1613, Note_on_c, 0, 71, 77
2, 1675, Note_on_c, 0, 71, 0
2, 1706, Note_on_c, 0, 67, 72
2, 1764, Note_on_c, 0, 67, 0
2, 1794, Note_on_c, 0, 55, 73
2, 1798, Note_on_c, 0, 71, 84
2, 1831, Note_on_c, 0, 55, 0
2, 1888, Note_on_c, 0, 67, 75
2, 1892, Note_on_c, 0, 71, 0
2, 1973, Note_on_c, 0, 67, 0
2, 1993, Note_on_c, 0, 62, 67
2, 2040, Note_on_c, 0, 62, 0
2, 2078, Note_on_c, 0, 55, 80
2, 2082, Note_on_c, 0, 64, 67
2, 2133, Note_on_c, 0, 55, 0
2, 2161, Note_on_c, 0, 64, 0
2, 2193, Note_on_c, 0, 67, 77
2, 2273, Note_on_c, 0, 67, 0
2, 2280, Note_on_c, 0, 72, 82
2, 2371, Note_on_c, 0, 43, 72
2, 2391, Note_on_c, 0, 76, 84
2, 2395, Note_on_c, 0, 72, 0
2, 2417, Note_on_c, 0, 43, 0
2, 2476, Note_on_c, 0, 72, 79
2, 2492, Note_on_c, 0, 76, 0
2, 2567, Note_on_c, 0, 72, 0
2, 2584, Note_on_c, 0, 67, 76
2, 2662, Note_on_c, 0, 67, 0
2, 2668, Note_on_c, 0, 72, 80
2, 2753, Note_on_c, 0, 72, 0
2, 2759, Note_on_c, 0, 67, 75
2, 2831, Note_on_c, 0, 67, 0
2, 2846, Note_on_c, 0, 64, 75
2, 2915, Note_on_c, 0, 64, 0
2, 2933, Note_on_c, 0, 55, 73
2, 2949, Note_on_c, 0, 67, 77
2, 2969, Note_on_c, 0, 55, 0
2, 3031, Note_on_c, 0, 67, 0
2, 3036, Note_on_c, 0, 64, 72
2, 3097, Note_on_c, 0, 64, 0
2, 3128, Note_on_c, 0, 60, 71
2, 3192, Note_on_c, 0, 60, 0
2, 3212, Note_on_c, 0, 55, 76
2, 3223, Note_on_c, 0, 57, 71
2, 3259, Note_on_c, 0, 55, 0
2, 3281, Note_on_c, 0, 57, 0
2, 3327, Note_on_c, 0, 60, 66
2, 3368, Note_on_c, 0, 60, 0
2, 3406, Note_on_c, 0, 66, 67
2, 3503, Note_on_c, 0, 43, 59
2, 3508, Note_on_c, 0, 66, 0
2, 3512, Note_on_c, 0, 69, 64
2, 3541, Note_on_c, 0, 43, 0
2, 3583, Note_on_c, 0, 69, 0
2, 3592, Note_on_c, 0, 66, 67
2, 3675, Note_on_c, 0, 66, 0
2, 3689, Note_on_c, 0, 60, 66
2, 3756, Note_on_c, 0, 60, 0
2, 3776, Note_on_c, 0, 66, 66
2, 3856, Note_on_c, 0, 66, 0
2, 3869, Note_on_c, 0, 60, 70
2, 3924, Note_on_c, 0, 60, 0
2, 3971, Note_on_c, 0, 57, 56
2, 4024, Note_on_c, 0, 57, 0
2, 4056, Note_on_c, 0, 55, 61
2, 4061, Note_on_c, 0, 60, 68
2, 4099, Note_on_c, 0, 55, 0
2, 4139, Note_on_c, 0, 60, 0
2, 4147, Note_on_c, 0, 57, 64
2, 4206, Note_on_c, 0, 57, 0
2, 4250, Note_on_c, 0, 54, 62
2, 4288, Note_on_c, 0, 54, 0
2, 4331, Note_on_c, 0, 55, 72
2, 4391, Note_on_c, 0, 55, 0
2, 4428, Note_on_c, 0, 59, 69
2, 4493, Note_on_c, 0, 59, 0
2, 4522, Note_on_c, 0, 62, 70
2, 4596, Note_on_c, 0, 62, 0
2, 4621, Note_on_c, 0, 43, 51
2, 4625, Note_on_c, 0, 67, 62
2, 4669, Note_on_c, 0, 43, 0
2, 4687, Note_on_c, 0, 67, 0
2, 4723, Note_on_c, 0, 62, 61
2, 4781, Note_on_c, 0, 62, 0
2, 4827, Note_on_c, 0, 59, 56
2, 4865, Note_on_c, 0, 59, 0
2, 4904, Note_on_c, 0, 62, 64
2, 4957, Note_on_c, 0, 62, 0
2, 4982, Note_on_c, 0, 59, 61
2, 5038, Note_on_c, 0, 59, 0
2, 5082, Note_on_c, 0, 55, 56
2, 5127, Note_on_c, 0, 55, 0
2, 5169, Note_on_c, 0, 59, 68
2, 5246, Note_on_c, 0, 59, 0
2, 5345, Note_on_c, 0, 52, 53
2, 5382, Note_on_c, 0, 52, 0
2, 5445, Note_on_c, 0, 57, 75
2, 5452, Note_on_c, 0, 55, 62
2, 5496, Note_on_c, 0, 57, 0
2, 5500, Note_on_c, 0, 55, 0
2, 5549, Note_on_c, 0, 61, 70
2, 5629, Note_on_c, 0, 61, 0
2, 5648, Note_on_c, 0, 64, 73
2, 5722, Note_on_c, 0, 43, 57
2, 5726, Note_on_c, 0, 64, 0
2, 5731, Note_on_c, 0, 69, 73
2, 5763, Note_on_c, 0, 43, 0
2, 5813, Note_on_c, 0, 69, 0
2, 5818, Note_on_c, 0, 64, 72
2, 5907, Note_on_c, 0, 64, 0
2, 5923, Note_on_c, 0, 61, 72
2, 5998, Note_on_c, 0, 61, 0
2, 6005, Note_on_c, 0, 64, 73
2, 6094, Note_on_c, 0, 61, 66
2, 6094, Note_on_c, 0, 64, 0
2, 6156, Note_on_c, 0, 61, 0
2, 6184, Note_on_c, 0, 57, 67
2, 6246, Note_on_c, 0, 57, 0
2, 6255, Note_on_c, 0, 55, 61
2, 6291, Note_on_c, 0, 61, 63
2, 6300, Note_on_c, 0, 55, 0
2, 6355, Note_on_c, 0, 61, 0
2, 6386, Note_on_c, 0, 57, 56
2, 6434, Note_on_c, 0, 57, 0
2, 6462, Note_on_c, 0, 52, 60
2, 6540, Note_on_c, 0, 52, 0
2, 6558, Note_on_c, 0, 54, 63
2, 6591, Note_on_c, 0, 62, 54
2, 6629, Note_on_c, 0, 60, 29
2, 6640, Note_on_c, 0, 54, 0
2, 6650, Note_on_c, 0, 62, 0
2, 6666, Note_on_c, 0, 57, 67
2, 6679, Note_on_c, 0, 60, 0
2, 6760, Note_on_c, 0, 61, 78
2, 6765, Note_on_c, 0, 57, 0
2, 6800, Note_on_c, 0, 61, 0
2, 6871, Note_on_c, 0, 62, 46
2, 6885, Note_on_c, 0, 60, 49
2, 6907, Note_on_c, 0, 62, 0
2, 6922, Note_on_c, 0, 60, 0
2, 6944, Note_on_c, 0, 57, 71
2, 7008, Note_on_c, 0, 57, 0
2, 7019, Note_on_c, 0, 54, 75
2, 7057, Note_on_c, 0, 54, 0
2, 7129, Note_on_c, 0, 57, 61
2, 7169, Note_on_c, 0, 57, 0
2, 7221, Note_on_c, 0, 54, 51
2, 7271, Note_on_c, 0, 54, 0
2, 7317, Note_on_c, 0, 50, 49
2, 7362, Note_on_c, 0, 50, 0
2, 7403, Note_on_c, 0, 62, 68
2, 7405, Note_on_c, 0, 54, 57
2, 7442, Note_on_c, 0, 62, 0
2, 7454, Note_on_c, 0, 54, 0
2, 7488, Note_on_c, 0, 50, 46
2, 7558, Note_on_c, 0, 50, 0
2, 7590, Note_on_c, 0, 47, 46
2, 7634, Note_on_c, 0, 47, 0
2, 7676, Note_on_c, 0, 52, 64
2, 7694, Note_on_c, 0, 62, 59
2, 7721, Note_on_c, 0, 52, 0
2, 7740, Note_on_c, 0, 62, 0
2, 7778, Note_on_c, 0, 61, 51
2, 7831, Note_on_c, 0, 61, 0
2, 7854, Note_on_c, 0, 62, 56
2, 7951, Note_on_c, 0, 62, 0
2, 7967, Note_on_c, 0, 40, 41
2, 7967, Note_on_c, 0, 64, 68
2, 8005, Note_on_c, 0, 40, 0
2, 8023, Note_on_c, 0, 64, 0
2, 8065, Note_on_c, 0, 61, 54
2, 8115, Note_on_c, 0, 61, 0
2, 8150, Note_on_c, 0, 62, 51
2, 8238, Note_on_c, 0, 62, 0
2, 8246, Note_on_c, 0, 66, 68
2, 8306, Note_on_c, 0, 66, 0
2, 8346, Note_on_c, 0, 61, 59
2, 8400, Note_on_c, 0, 61, 0
2, 8444, Note_on_c, 0, 62, 52
2, 8541, Note_on_c, 0, 62, 0
2, 8552, Note_on_c, 0, 52, 60
2, 8552, Note_on_c, 0, 67, 73
2, 8593, Note_on_c, 0, 52, 0
2, 8637, Note_on_c, 0, 67, 0
2, 8657, Note_on_c, 0, 61, 55
2, 8706, Note_on_c, 0, 61, 0
2, 8744, Note_on_c, 0, 62, 62
2, 8846, Note_on_c, 0, 62, 0
2, 8846, Note_on_c, 0, 69, 81
2, 8860, Note_on_c, 0, 49, 60
2, 8909, Note_on_c, 0, 49, 0
2, 8938, Note_on_c, 0, 61, 72
2, 8943, Note_on_c, 0, 69, 0
2, 9010, Note_on_c, 0, 61, 0
2, 9023, Note_on_c, 0, 62, 63
2, 9128, Note_on_c, 0, 62, 0
2, 9137, Note_on_c, 0, 71, 79
2, 9163, Note_on_c, 0, 45, 55
2, 9208, Note_on_c, 0, 45, 0
2, 9218, Note_on_c, 0, 71, 0
2, 9230, Note_on_c, 0, 61, 65
2, 9293, Note_on_c, 0, 61, 0
2, 9331, Note_on_c, 0, 62, 59
2, 9439, Note_on_c, 0, 47, 57
2, 9443, Note_on_c, 0, 69, 68
2, 9451, Note_on_c, 0, 62, 0
2, 9482, Note_on_c, 0, 47, 0
2, 9524, Note_on_c, 0, 69, 0
2, 9540, Note_on_c, 0, 61, 58
2, 9596, Note_on_c, 0, 61, 0
2, 9650, Note_on_c, 0, 62, 55
2, 9730, Note_on_c, 0, 49, 52
2, 9748, Note_on_c, 0, 67, 63
2, 9752, Note_on_c, 0, 62, 0
2, 9772, Note_on_c, 0, 49, 0
2, 9812, Note_on_c, 0, 67, 0
2, 9847, Note_on_c, 0, 61, 58
2, 9902, Note_on_c, 0, 61, 0
2, 9939, Note_on_c, 0, 62, 61
2, 10024, Note_on_c, 0, 50, 63
2, 10035, Note_on_c, 0, 62, 0
2, 10046, Note_on_c, 0, 66, 70
2, 10073, Note_on_c, 0, 50, 0
2, 10095, Note_on_c, 0, 66, 0
2, 10144, Note_on_c, 0, 61, 62
2, 10185, Note_on_c, 0, 61, 0
2, 10229, Note_on_c, 0, 62, 64
2, 10282, Note_on_c, 0, 62, 0
2, 10334, Note_on_c, 0, 52, 73
2, 10334, Note_on_c, 0, 67, 69
2, 10371, Note_on_c, 0, 67, 0
2, 10392, Note_on_c, 0, 52, 0
2, 10427, Note_on_c, 0, 61, 67
2, 10470, Note_on_c, 0, 61, 0
2, 10526, Note_on_c, 0, 62, 71
2, 10586, Note_on_c, 0, 62, 0
2, 10614, Note_on_c, 0, 69, 79
2, 10616, Note_on_c, 0, 54, 80
2, 10669, Note_on_c, 0, 69, 0
2, 10718, Note_on_c, 0, 61, 73
2, 10723, Note_on_c, 0, 54, 0
2, 10776, Note_on_c, 0, 61, 0
2, 10817, Note_on_c, 0, 62, 69
2, 10870, Note_on_c, 0, 62, 0
2, 10907, Note_on_c, 0, 71, 87
2, 10911, Note_on_c, 0, 55, 74
2, 10962, Note_on_c, 0, 71, 0
2, 10978, Note_on_c, 0, 55, 0
2, 11016, Note_on_c, 0, 61, 68
2, 11054, Note_on_c, 0, 61, 0
2, 11116, Note_on_c, 0, 62, 66
2, 11165, Note_on_c, 0, 62, 0
2, 11210, Note_on_c, 0, 54, 67
2, 11214, Note_on_c, 0, 69, 66
2, 11259, Note_on_c, 0, 69, 0
2, 11279, Note_on_c, 0, 54, 0
2, 11313, Note_on_c, 0, 61, 55
2, 11355, Note_on_c, 0, 61, 0
2, 11412, Note_on_c, 0, 62, 61
2, 11452, Note_on_c, 0, 62, 0
2, 11505, Note_on_c, 0, 52, 69
2, 11505, Note_on_c, 0, 67, 66
2, 11544, Note_on_c, 0, 67, 0
2, 11553, Note_on_c, 0, 52, 0
2, 11604, Note_on_c, 0, 61, 59
2, 11644, Note_on_c, 0, 61, 0
2, 11691, Note_on_c, 0, 62, 58
2, 11720, Note_on_c, 0, 62, 0
2, 11779, Note_on_c, 0, 50, 69
2, 11797, Note_on_c, 0, 66, 69
2, 11816, Note_on_c, 0, 50, 0
2, 11849, Note_on_c, 0, 66, 0
2, 11890, Note_on_c, 0, 61, 62
2, 11938, Note_on_c, 0, 61, 0
2, 11980, Note_on_c, 0, 62, 69
2, 12037, Note_on_c, 0, 62, 0
2, 12085, Note_on_c, 0, 69, 66
2, 12090, Note_on_c, 0, 54, 63
2, 12125, Note_on_c, 0, 69, 0
2, 12144, Note_on_c, 0, 54, 0
2, 12164, Note_on_c, 0, 61, 73
2, 12202, Note_on_c, 0, 61, 0
2, 12372, Note_on_c, 0, 68, 81
2, 12401, Note_on_c, 0, 47, 75
2, 12436, Note_on_c, 0, 68, 0
2, 12440, Note_on_c, 0, 47, 0
2, 12468, Note_on_c, 0, 71, 80
2, 12572, Note_on_c, 0, 74, 85
2, 12583, Note_on_c, 0, 71, 0
2, 12669, Note_on_c, 0, 59, 91
2, 12677, Note_on_c, 0, 77, 97
2, 12688, Note_on_c, 0, 74, 0
2, 12722, Note_on_c, 0, 59, 0
2, 12775, Note_on_c, 0, 74, 82
2, 12795, Note_on_c, 0, 77, 0
2, 12871, Note_on_c, 0, 74, 0
2, 12875, Note_on_c, 0, 71, 83
2, 12933, Note_on_c, 0, 71, 0
2, 12982, Note_on_c, 0, 74, 83
2, 13058, Note_on_c, 0, 71, 75
2, 13091, Note_on_c, 0, 74, 0
2, 13154, Note_on_c, 0, 68, 81
2, 13154, Note_on_c, 0, 71, 0
2, 13234, Note_on_c, 0, 68, 0
2, 13252, Note_on_c, 0, 71, 80
2, 13270, Note_on_c, 0, 57, 78
2, 13318, Note_on_c, 0, 57, 0
2, 13334, Note_on_c, 0, 71, 0
2, 13344, Note_on_c, 0, 68, 85
2, 13419, Note_on_c, 0, 68, 0
2, 13433, Note_on_c, 0, 64, 80
2, 13498, Note_on_c, 0, 64, 0
2, 13535, Note_on_c, 0, 56, 76
2, 13544, Note_on_c, 0, 62, 76
2, 13590, Note_on_c, 0, 56, 0
2, 13594, Note_on_c, 0, 62, 0
2, 13638, Note_on_c, 0, 65, 74
2, 13720, Note_on_c, 0, 65, 0
2, 13731, Note_on_c, 0, 68, 78
2, 13838, Note_on_c, 0, 44, 70
2, 13838, Note_on_c, 0, 68, 0
2, 13843, Note_on_c, 0, 71, 77
2, 13885, Note_on_c, 0, 44, 0
2, 13920, Note_on_c, 0, 71, 0
2, 13938, Note_on_c, 0, 68, 75
2, 14030, Note_on_c, 0, 68, 0
2, 14034, Note_on_c, 0, 65, 72
2, 14121, Note_on_c, 0, 65, 0
2, 14132, Note_on_c, 0, 68, 80
2, 14222, Note_on_c, 0, 68, 0
2, 14226, Note_on_c, 0, 65, 68
2, 14298, Note_on_c, 0, 65, 0
2, 14329, Note_on_c, 0, 62, 65
2, 14395, Note_on_c, 0, 62, 0
2, 14412, Note_on_c, 0, 56, 58
2, 14439, Note_on_c, 0, 65, 50
2, 14453, Note_on_c, 0, 67, 45
2, 14457, Note_on_c, 0, 56, 0
2, 14490, Note_on_c, 0, 67, 0
2, 14495, Note_on_c, 0, 65, 0
2, 14553, Note_on_c, 0, 62, 44
2, 14590, Note_on_c, 0, 62, 0
2, 14611, Note_on_c, 0, 59, 51
2, 14646, Note_on_c, 0, 59, 0
2, 14686, Note_on_c, 0, 60, 64
2, 14690, Note_on_c, 0, 57, 60
2, 14724, Note_on_c, 0, 60, 0
2, 14770, Note_on_c, 0, 57, 0
2, 14806, Note_on_c, 0, 60, 63
2, 14860, Note_on_c, 0, 60, 0
2, 14900, Note_on_c, 0, 64, 64
2, 14939, Note_on_c, 0, 64, 0
2, 14977, Note_on_c, 0, 76, 83
2, 14988, Note_on_c, 0, 69, 72
2, 15014, Note_on_c, 0, 76, 0
2, 15023, Note_on_c, 0, 69, 0
2, 15071, Note_on_c, 0, 64, 68
2, 15151, Note_on_c, 0, 64, 0
2, 15182, Note_on_c, 0, 60, 60
2, 15215, Note_on_c, 0, 60, 0
2, 15242, Note_on_c, 0, 72, 73
2, 15279, Note_on_c, 0, 72, 0
2, 15282, Note_on_c, 0, 64, 66
2, 15323, Note_on_c, 0, 64, 0
2, 15345, Note_on_c, 0, 60, 50
2, 15411, Note_on_c, 0, 60, 0
2, 15444, Note_on_c, 0, 57, 57
2, 15487, Note_on_c, 0, 57, 0
2, 15530, Note_on_c, 0, 69, 58
2, 15535, Note_on_c, 0, 60, 65
2, 15575, Note_on_c, 0, 60, 0
2, 15575, Note_on_c, 0, 69, 0
2, 15608, Note_on_c, 0, 57, 55
2, 15663, Note_on_c, 0, 57, 0
2, 15711, Note_on_c, 0, 52, 55
2, 15769, Note_on_c, 0, 52, 0
2, 15811, Note_on_c, 0, 48, 64
2, 15811, Note_on_c, 0, 64, 59
2, 15842, Note_on_c, 0, 64, 0
2, 15859, Note_on_c, 0, 48, 0
2, 15893, Note_on_c, 0, 52, 60
2, 15968, Note_on_c, 0, 52, 0
2, 16005, Note_on_c, 0, 57, 64
2, 16048, Note_on_c, 0, 57, 0
2, 16082, Note_on_c, 0, 76, 72
2, 16106, Note_on_c, 0, 60, 59
2, 16123, Note_on_c, 0, 76, 0
2, 16147, Note_on_c, 0, 60, 0
2, 16188, Note_on_c, 0, 57, 59
2, 16245, Note_on_c, 0, 57, 0
2, 16273, Note_on_c, 0, 52, 63
2, 16321, Note_on_c, 0, 52, 0
2, 16364, Note_on_c, 0, 72, 68
2, 16413, Note_on_c, 0, 72, 0
2, 16417, Note_on_c, 0, 55, 31
2, 16468, Note_on_c, 0, 55, 0
2, 16531, Note_on_c, 0, 52, 4
2, 16601, Note_on_c, 0, 52, 0
2, 16632, Note_on_c, 0, 69, 65
2, 16652, Note_on_c, 0, 52, 56
2, 16663, Note_on_c, 0, 69, 0
2, 16694, Note_on_c, 0, 52, 0
2, 16738, Note_on_c, 0, 48, 61
2, 16802, Note_on_c, 0, 48, 0
2, 16820, Note_on_c, 0, 45, 64
2, 16878, Note_on_c, 0, 45, 0
2, 16920, Note_on_c, 0, 75, 83
2, 16942, Note_on_c, 0, 42, 81
2, 16986, Note_on_c, 0, 42, 0
2, 16999, Note_on_c, 0, 75, 0
2, 17021, Note_on_c, 0, 78, 89
2, 17120, Note_on_c, 0, 81, 82
2, 17137, Note_on_c, 0, 78, 0
2, 17226, Note_on_c, 0, 54, 88
2, 17226, Note_on_c, 0, 84, 89
2, 17234, Note_on_c, 0, 81, 0
2, 17265, Note_on_c, 0, 54, 0
2, 17326, Note_on_c, 0, 81, 75
2, 17346, Note_on_c, 0, 84, 0
2, 17414, Note_on_c, 0, 81, 0
2, 17436, Note_on_c, 0, 78, 85
2, 17499, Note_on_c, 0, 78, 0
2, 17532, Note_on_c, 0, 81, 84
2, 17619, Note_on_c, 0, 78, 83
2, 17629, Note_on_c, 0, 81, 0
2, 17708, Note_on_c, 0, 75, 82
2, 17719, Note_on_c, 0, 78, 0
2, 17810, Note_on_c, 0, 78, 88
2, 17819, Note_on_c, 0, 75, 0
2, 17828, Note_on_c, 0, 52, 78
2, 17874, Note_on_c, 0, 52, 0
2, 17905, Note_on_c, 0, 75, 78
2, 17933, Note_on_c, 0, 78, 0
2, 17990, Note_on_c, 0, 75, 0
2, 18017, Note_on_c, 0, 71, 75
2, 18064, Note_on_c, 0, 71, 0
2, 18105, Note_on_c, 0, 51, 80
2, 18114, Note_on_c, 0, 69, 70
2, 18159, Note_on_c, 0, 69, 0
2, 18163, Note_on_c, 0, 51, 0
2, 18200, Note_on_c, 0, 72, 81
2, 18278, Note_on_c, 0, 72, 0
2, 18306, Note_on_c, 0, 75, 80
2, 18408, Note_on_c, 0, 75, 0
2, 18408, Note_on_c, 0, 78, 87
2, 18413, Note_on_c, 0, 39, 67
2, 18461, Note_on_c, 0, 39, 0
2, 18515, Note_on_c, 0, 75, 74
2, 18515, Note_on_c, 0, 78, 0
2, 18590, Note_on_c, 0, 75, 0
2, 18599, Note_on_c, 0, 72, 78
2, 18701, Note_on_c, 0, 72, 0
2, 18701, Note_on_c, 0, 75, 83
2, 18791, Note_on_c, 0, 75, 0
2, 18800, Note_on_c, 0, 72, 76
2, 18878, Note_on_c, 0, 72, 0
2, 18899, Note_on_c, 0, 69, 60
2, 18959, Note_on_c, 0, 69, 0
2, 19005, Note_on_c, 0, 51, 60
2, 19007, Note_on_c, 0, 72, 72
2, 19043, Note_on_c, 0, 51, 0
2, 19081, Note_on_c, 0, 72, 0
2, 19090, Note_on_c, 0, 69, 63
2, 19143, Note_on_c, 0, 69, 0
2, 19191, Note_on_c, 0, 66, 61
2, 19236, Note_on_c, 0, 66, 0
2, 19251, Note_on_c, 0, 52, 64
2, 19281, Note_on_c, 0, 67, 63
2, 19288, Note_on_c, 0, 52, 0
2, 19323, Note_on_c, 0, 67, 0
2, 19366, Note_on_c, 0, 63, 64
2, 19415, Note_on_c, 0, 63, 0
2, 19464, Note_on_c, 0, 64, 59
2, 19511, Note_on_c, 0, 64, 0
2, 19551, Note_on_c, 0, 54, 64
2, 19556, Note_on_c, 0, 69, 62
2, 19596, Note_on_c, 0, 69, 0
2, 19605, Note_on_c, 0, 54, 0
2, 19649, Note_on_c, 0, 63, 63
2, 19689, Note_on_c, 0, 63, 0
2, 19743, Note_on_c, 0, 64, 68
2, 19795, Note_on_c, 0, 64, 0
2, 19834, Note_on_c, 0, 55, 75
2, 19838, Note_on_c, 0, 71, 80
2, 19881, Note_on_c, 0, 71, 0
2, 19892, Note_on_c, 0, 55, 0
2, 19932, Note_on_c, 0, 63, 71
2, 19983, Note_on_c, 0, 63, 0
2, 20027, Note_on_c, 0, 64, 73
2, 20079, Note_on_c, 0, 64, 0
2, 20126, Note_on_c, 0, 57, 74
2, 20129, Note_on_c, 0, 72, 86
2, 20178, Note_on_c, 0, 72, 0
2, 20198, Note_on_c, 0, 57, 0
2, 20232, Note_on_c, 0, 63, 63
2, 20278, Note_on_c, 0, 63, 0
2, 20334, Note_on_c, 0, 64, 65
2, 20378, Note_on_c, 0, 64, 0
2, 20424, Note_on_c, 0, 71, 69
2, 20433, Note_on_c, 0, 55, 57
2, 20471, Note_on_c, 0, 71, 0
2, 20489, Note_on_c, 0, 55, 0
2, 20538, Note_on_c, 0, 63, 57
2, 20579, Note_on_c, 0, 63, 0
2, 20637, Note_on_c, 0, 64, 52
2, 20684, Note_on_c, 0, 64, 0
2, 20718, Note_on_c, 0, 54, 65
2, 20727, Note_on_c, 0, 69, 56
2, 20769, Note_on_c, 0, 54, 0
2, 20773, Note_on_c, 0, 69, 0
2, 20814, Note_on_c, 0, 63, 62
2, 20852, Note_on_c, 0, 63, 0
2, 20916, Note_on_c, 0, 64, 60
2, 20951, Note_on_c, 0, 64, 0
2, 21002, Note_on_c, 0, 52, 66
2, 21007, Note_on_c, 0, 67, 63
2, 21046, Note_on_c, 0, 52, 0
2, 21053, Note_on_c, 0, 67, 0
2, 21112, Note_on_c, 0, 63, 63
2, 21151, Note_on_c, 0, 63, 0
2, 21214, Note_on_c, 0, 64, 66
2, 21262, Note_on_c, 0, 64, 0
2, 21298, Note_on_c, 0, 55, 61
2, 21309, Note_on_c, 0, 71, 70
2, 21350, Note_on_c, 0, 55, 0
2, 21355, Note_on_c, 0, 71, 0
2, 21388, Note_on_c, 0, 63, 64
2, 21428, Note_on_c, 0, 63, 0
2, 21488, Note_on_c, 0, 64, 55
2, 21520, Note_on_c, 0, 64, 0
2, 21606, Note_on_c, 0, 49, 62
2, 21622, Note_on_c, 0, 69, 65
2, 21640, Note_on_c, 0, 49, 0
2, 21664, Note_on_c, 0, 69, 0
2, 21723, Note_on_c, 0, 68, 63
2, 21780, Note_on_c, 0, 68, 0
2, 21804, Note_on_c, 0, 69, 49
2, 21893, Note_on_c, 0, 50, 62
2, 21910, Note_on_c, 0, 69, 0
2, 21912, Note_on_c, 0, 71, 78
2, 21943, Note_on_c, 0, 50, 0
2, 21966, Note_on_c, 0, 71, 0
2, 22014, Note_on_c, 0, 68, 64
2, 22064, Note_on_c, 0, 68, 0
2, 22104, Note_on_c, 0, 69, 50
2, 22195, Note_on_c, 0, 73, 80
2, 22199, Note_on_c, 0, 52, 63
2, 22208, Note_on_c, 0, 69, 0
2, 22242, Note_on_c, 0, 52, 0
2, 22266, Note_on_c, 0, 73, 0
2, 22295, Note_on_c, 0, 68, 69
2, 22356, Note_on_c, 0, 68, 0
2, 22382, Note_on_c, 0, 69, 58
2, 22495, Note_on_c, 0, 74, 85
2, 22499, Note_on_c, 0, 69, 0
2, 22510, Note_on_c, 0, 54, 57
2, 22555, Note_on_c, 0, 54, 0
2, 22595, Note_on_c, 0, 68, 77
2, 22600, Note_on_c, 0, 74, 0
2, 22667, Note_on_c, 0, 68, 0
2, 22673, Note_on_c, 0, 69, 68
2, 22783, Note_on_c, 0, 69, 0
2, 22788, Note_on_c, 0, 76, 91
2, 22799, Note_on_c, 0, 49, 60
2, 22846, Note_on_c, 0, 49, 0
2, 22884, Note_on_c, 0, 68, 86
2, 22888, Note_on_c, 0, 76, 0
2, 22962, Note_on_c, 0, 68, 0
2, 22971, Note_on_c, 0, 69, 75
2, 23081, Note_on_c, 0, 78, 89
2, 23092, Note_on_c, 0, 69, 0
2, 23097, Note_on_c, 0, 47, 64
2, 23146, Note_on_c, 0, 47, 0
2, 23186, Note_on_c, 0, 68, 80
2, 23210, Note_on_c, 0, 78, 0
2, 23250, Note_on_c, 0, 68, 0
2, 23284, Note_on_c, 0, 69, 69
2, 23395, Note_on_c, 0, 69, 0
2, 23400, Note_on_c, 0, 45, 54
2, 23404, Note_on_c, 0, 79, 85
2, 23454, Note_on_c, 0, 45, 0
2, 23509, Note_on_c, 0, 76, 80
2, 23527, Note_on_c, 0, 79, 0
2, 23603, Note_on_c, 0, 76, 0
2, 23607, Note_on_c, 0, 73, 79
2, 23691, Note_on_c, 0, 49, 60
2, 23691, Note_on_c, 0, 73, 0
2, 23698, Note_on_c, 0, 69, 76
2, 23726, Note_on_c, 0, 49, 0
2, 23784, Note_on_c, 0, 69, 0
2, 23798, Note_on_c, 0, 73, 82
2, 23874, Note_on_c, 0, 73, 0
2, 23886, Note_on_c, 0, 76, 80
2, 23992, Note_on_c, 0, 50, 65
2, 23998, Note_on_c, 0, 78, 78
2, 24007, Note_on_c, 0, 76, 0
2, 24066, Note_on_c, 0, 50, 0
2, 24102, Note_on_c, 0, 54, 67
2, 24106, Note_on_c, 0, 78, 0
2, 24202, Note_on_c, 0, 57, 80
2, 24206, Note_on_c, 0, 54, 0
2, 24268, Note_on_c, 0, 57, 0
2, 24286, Note_on_c, 0, 62, 78
2, 24355, Note_on_c, 0, 62, 0
2, 24368, Note_on_c, 0, 57, 74
2, 24452, Note_on_c, 0, 54, 78
2, 24452, Note_on_c, 0, 57, 0
2, 24498, Note_on_c, 0, 54, 0
2, 24570, Note_on_c, 0, 50, 78
2, 24588, Note_on_c, 0, 81, 75
2, 24610, Note_on_c, 0, 50, 0
2, 24683, Note_on_c, 0, 78, 86
2, 24701, Note_on_c, 0, 81, 0
2, 24769, Note_on_c, 0, 78, 0
2, 24784, Note_on_c, 0, 74, 80
2, 24866, Note_on_c, 0, 62, 66
2, 24871, Note_on_c, 0, 74, 0
2, 24875, Note_on_c, 0, 72, 85
2, 24919, Note_on_c, 0, 62, 0
2, 24957, Note_on_c, 0, 72, 0
2, 24957, Note_on_c, 0, 74, 79
2, 25061, Note_on_c, 0, 74, 0
2, 25061, Note_on_c, 0, 78, 82
2, 25157, Note_on_c, 0, 78, 0
2, 25173, Note_on_c, 0, 50, 69
2, 25173, Note_on_c, 0, 81, 83
2, 25247, Note_on_c, 0, 50, 0
2, 25281, Note_on_c, 0, 55, 72
2, 25341, Note_on_c, 0, 55, 0
2, 25375, Note_on_c, 0, 59, 76
2, 25428, Note_on_c, 0, 59, 0
2, 25468, Note_on_c, 0, 62, 73
2, 25475, Note_on_c, 0, 81, 0
2, 25484, Note_on_c, 0, 79, 81
2, 25512, Note_on_c, 0, 62, 0
2, 25527, Note_on_c, 0, 79, 0
2, 25565, Note_on_c, 0, 59, 70
2, 25619, Note_on_c, 0, 59, 0
2, 25653, Note_on_c, 0, 55, 67
2, 25696, Note_on_c, 0, 55, 0
2, 25768, Note_on_c, 0, 50, 63
2, 25784, Note_on_c, 0, 79, 78
2, 25802, Note_on_c, 0, 50, 0
2, 25872, Note_on_c, 0, 79, 0
2, 25886, Note_on_c, 0, 76, 74
2, 25958, Note_on_c, 0, 76, 0
2, 25977, Note_on_c, 0, 73, 75
2, 26054, Note_on_c, 0, 73, 0
2, 26068, Note_on_c, 0, 69, 74
2, 26080, Note_on_c, 0, 62, 64
2, 26117, Note_on_c, 0, 62, 0
2, 26138, Note_on_c, 0, 69, 0
2, 26172, Note_on_c, 0, 73, 79
2, 26252, Note_on_c, 0, 73, 0
2, 26273, Note_on_c, 0, 76, 74
2, 26359, Note_on_c, 0, 50, 64
2, 26359, Note_on_c, 0, 76, 0
2, 26363, Note_on_c, 0, 79, 81
2, 26414, Note_on_c, 0, 50, 0
2, 26466, Note_on_c, 0, 57, 63
2, 26520, Note_on_c, 0, 57, 0
2, 26553, Note_on_c, 0, 61, 63
2, 26557, Note_on_c, 0, 79, 0
2, 26589, Note_on_c, 0, 61, 0
2, 26647, Note_on_c, 0, 78, 69
2, 26650, Note_on_c, 0, 62, 61
2, 26687, Note_on_c, 0, 78, 0
2, 26696, Note_on_c, 0, 62, 0
2, 26730, Note_on_c, 0, 57, 65
2, 26795, Note_on_c, 0, 57, 0
2, 26826, Note_on_c, 0, 54, 59
2, 26888, Note_on_c, 0, 54, 0
2, 26940, Note_on_c, 0, 50, 63
2, 26940, Note_on_c, 0, 78, 72
2, 26974, Note_on_c, 0, 50, 0
2, 27022, Note_on_c, 0, 78, 0
2, 27051, Note_on_c, 0, 74, 62
2, 27123, Note_on_c, 0, 74, 0
2, 27140, Note_on_c, 0, 71, 64
2, 27229, Note_on_c, 0, 62, 62
2, 27233, Note_on_c, 0, 71, 0
2, 27242, Note_on_c, 0, 67, 64
2, 27266, Note_on_c, 0, 62, 0
2, 27303, Note_on_c, 0, 67, 0
2, 27324, Note_on_c, 0, 71, 59
2, 27388, Note_on_c, 0, 71, 0
2, 27416, Note_on_c, 0, 74, 61
2, 27513, Note_on_c, 0, 74, 0
2, 27524, Note_on_c, 0, 78, 70
2, 27528, Note_on_c, 0, 50, 45
2, 27578, Note_on_c, 0, 50, 0
2, 27613, Note_on_c, 0, 52, 60
2, 27617, Note_on_c, 0, 78, 0
2, 27681, Note_on_c, 0, 52, 0
2, 27722, Note_on_c, 0, 55, 54
2, 27760, Note_on_c, 0, 55, 0
2, 27807, Note_on_c, 0, 59, 59
2, 27816, Note_on_c, 0, 76, 68
2, 27846, Note_on_c, 0, 59, 0
2, 27856, Note_on_c, 0, 76, 0
2, 27885, Note_on_c, 0, 55, 48
2, 27942, Note_on_c, 0, 55, 0
2, 27976, Note_on_c, 0, 52, 55
2, 28043, Note_on_c, 0, 52, 0
2, 28090, Note_on_c, 0, 50, 60
2, 28105, Note_on_c, 0, 76, 62
2, 28130, Note_on_c, 0, 50, 0
2, 28177, Note_on_c, 0, 76, 0
2, 28199, Note_on_c, 0, 73, 64
2, 28259, Note_on_c, 0, 73, 0
2, 28307, Note_on_c, 0, 69, 48
2, 28361, Note_on_c, 0, 69, 0
2, 28385, Note_on_c, 0, 62, 52
2, 28390, Note_on_c, 0, 67, 58
2, 28417, Note_on_c, 0, 62, 0
2, 28444, Note_on_c, 0, 67, 0
2, 28473, Note_on_c, 0, 69, 49
2, 28538, Note_on_c, 0, 69, 0
2, 28594, Note_on_c, 0, 73, 51
2, 28656, Note_on_c, 0, 73, 0
2, 28665, Note_on_c, 0, 50, 54
2, 28667, Note_on_c, 0, 76, 65
2, 28705, Note_on_c, 0, 76, 0
2, 28723, Note_on_c, 0, 50, 0
2, 28794, Note_on_c, 0, 54, 48
2, 28856, Note_on_c, 0, 54, 0
2, 28891, Note_on_c, 0, 57, 56
2, 28934, Note_on_c, 0, 57, 0
2, 28957, Note_on_c, 0, 74, 66
2, 28972, Note_on_c, 0, 62, 62
2, 28990, Note_on_c, 0, 74, 0
2, 29019, Note_on_c, 0, 62, 0
2, 29055, Note_on_c, 0, 57, 54
2, 29122, Note_on_c, 0, 57, 0
2, 29157, Note_on_c, 0, 54, 58
2, 29195, Note_on_c, 0, 54, 0
2, 29248, Note_on_c, 0, 57, 70
2, 29303, Note_on_c, 0, 57, 0
2, 29326, Note_on_c, 0, 54, 57
2, 29384, Note_on_c, 0, 54, 0
2, 29424, Note_on_c, 0, 50, 61
2, 29480, Note_on_c, 0, 50, 0
2, 29523, Note_on_c, 0, 74, 78
2, 29538, Note_on_c, 0, 54, 64
2, 29561, Note_on_c, 0, 74, 0
2, 29581, Note_on_c, 0, 54, 0
2, 29613, Note_on_c, 0, 50, 57
2, 29690, Note_on_c, 0, 50, 0
2, 29721, Note_on_c, 0, 48, 58
2, 29782, Note_on_c, 0, 48, 0
2, 29798, Note_on_c, 0, 47, 68
2, 29805, Note_on_c, 0, 74, 80
2, 29849, Note_on_c, 0, 47, 0
2, 29855, Note_on_c, 0, 74, 0
2, 29866, Note_on_c, 0, 50, 61
2, 29906, Note_on_c, 0, 72, 80
2, 29930, Note_on_c, 0, 50, 0
2, 29953, Note_on_c, 0, 72, 0
2, 29972, Note_on_c, 0, 54, 73
2, 29997, Note_on_c, 0, 71, 72
2, 30023, Note_on_c, 0, 54, 0
2, 30031, Note_on_c, 0, 71, 0
2, 30091, Note_on_c, 0, 71, 81
2, 30113, Note_on_c, 0, 53, 53
2, 30117, Note_on_c, 0, 55, 41
2, 30147, Note_on_c, 0, 53, 0
2, 30159, Note_on_c, 0, 55, 0
2, 30159, Note_on_c, 0, 71, 0
2, 30189, Note_on_c, 0, 50, 55
2, 30189, Note_on_c, 0, 69, 74
2, 30229, Note_on_c, 0, 69, 0
2, 30233, Note_on_c, 0, 50, 0
2, 30272, Note_on_c, 0, 47, 65
2, 30283, Note_on_c, 0, 67, 72
2, 30314, Note_on_c, 0, 47, 0
2, 30318, Note_on_c, 0, 67, 0
2, 30359, Note_on_c, 0, 50, 70
2, 30367, Note_on_c, 0, 67, 75
2, 30425, Note_on_c, 0, 50, 0
2, 30437, Note_on_c, 0, 67, 0
2, 30451, Note_on_c, 0, 47, 60
2, 30464, Note_on_c, 0, 71, 80
2, 30521, Note_on_c, 0, 47, 0
2, 30545, Note_on_c, 0, 43, 69
2, 30558, Note_on_c, 0, 74, 85
2, 30560, Note_on_c, 0, 71, 0
2, 30604, Note_on_c, 0, 43, 0
2, 30638, Note_on_c, 0, 74, 0
2, 30646, Note_on_c, 0, 77, 85
2, 30651, Note_on_c, 0, 47, 69
2, 30709, Note_on_c, 0, 47, 0
2, 30725, Note_on_c, 0, 43, 73
2, 30743, Note_on_c, 0, 76, 85
2, 30743, Note_on_c, 0, 77, 0
2, 30817, Note_on_c, 0, 43, 0
2, 30828, Note_on_c, 0, 41, 71
2, 30840, Note_on_c, 0, 74, 83
2, 30840, Note_on_c, 0, 76, 0
2, 30899, Note_on_c, 0, 74, 0
2, 30908, Note_on_c, 0, 41, 0
2, 30924, Note_on_c, 0, 40, 69
2, 30940, Note_on_c, 0, 74, 80
2, 31010, Note_on_c, 0, 43, 67
2, 31015, Note_on_c, 0, 40, 0
2, 31029, Note_on_c, 0, 74, 0
2, 31038, Note_on_c, 0, 76, 87
2, 31101, Note_on_c, 0, 43, 0
2, 31105, Note_on_c, 0, 47, 73
2, 31120, Note_on_c, 0, 77, 86
2, 31131, Note_on_c, 0, 76, 0
2, 31170, Note_on_c, 0, 47, 0
2, 31202, Note_on_c, 0, 48, 73
2, 31230, Note_on_c, 0, 76, 94
2, 31239, Note_on_c, 0, 77, 0
2, 31265, Note_on_c, 0, 48, 0
2, 31313, Note_on_c, 0, 52, 76
2, 31387, Note_on_c, 0, 52, 0
2, 31400, Note_on_c, 0, 55, 75
2, 31448, Note_on_c, 0, 76, 0
2, 31472, Note_on_c, 0, 55, 0
2, 31506, Note_on_c, 0, 60, 79
2, 31564, Note_on_c, 0, 60, 0
2, 31603, Note_on_c, 0, 55, 72
2, 31665, Note_on_c, 0, 55, 0
2, 31685, Note_on_c, 0, 52, 72
2, 31730, Note_on_c, 0, 52, 0
2, 31795, Note_on_c, 0, 55, 76
2, 31795, Note_on_c, 0, 76, 89
2, 31849, Note_on_c, 0, 76, 0
2, 31860, Note_on_c, 0, 55, 0
2, 31884, Note_on_c, 0, 52, 72
2, 31980, Note_on_c, 0, 52, 0
2, 32053, Note_on_c, 0, 50, 18
2, 32069, Note_on_c, 0, 49, 71
2, 32089, Note_on_c, 0, 76, 90
2, 32107, Note_on_c, 0, 50, 0
2, 32141, Note_on_c, 0, 49, 0
2, 32161, Note_on_c, 0, 52, 63
2, 32188, Note_on_c, 0, 74, 83
2, 32197, Note_on_c, 0, 76, 0
2, 32234, Note_on_c, 0, 52, 0
2, 32245, Note_on_c, 0, 74, 0
2, 32263, Note_on_c, 0, 55, 66
2, 32277, Note_on_c, 0, 73, 79
2, 32307, Note_on_c, 0, 73, 0
2, 32315, Note_on_c, 0, 55, 0
2, 32343, Note_on_c, 0, 57, 79
2, 32369, Note_on_c, 0, 73, 87
2, 32406, Note_on_c, 0, 57, 0
2, 32426, Note_on_c, 0, 73, 0
2, 32467, Note_on_c, 0, 52, 62
2, 32472, Note_on_c, 0, 71, 71
2, 32481, Note_on_c, 0, 72, 60
2, 32507, Note_on_c, 0, 72, 0
2, 32517, Note_on_c, 0, 71, 0
2, 32533, Note_on_c, 0, 52, 0
2, 32538, Note_on_c, 0, 49, 71
2, 32551, Note_on_c, 0, 69, 74
2, 32586, Note_on_c, 0, 49, 0
2, 32592, Note_on_c, 0, 69, 0
2, 32640, Note_on_c, 0, 69, 70
2, 32645, Note_on_c, 0, 52, 75
2, 32708, Note_on_c, 0, 69, 0
2, 32719, Note_on_c, 0, 52, 0
2, 32728, Note_on_c, 0, 49, 71
2, 32744, Note_on_c, 0, 73, 73
2, 32771, Note_on_c, 0, 72, 66
2, 32771, Note_on_c, 0, 73, 0
2, 32800, Note_on_c, 0, 72, 0
2, 32804, Note_on_c, 0, 49, 0
2, 32813, Note_on_c, 0, 45, 68
2, 32829, Note_on_c, 0, 75, 81
2, 32869, Note_on_c, 0, 76, 76
2, 32882, Note_on_c, 0, 45, 0
2, 32928, Note_on_c, 0, 79, 87
2, 32932, Note_on_c, 0, 49, 66
2, 32932, Note_on_c, 0, 76, 0
2, 32939, Note_on_c, 0, 75, 0
2, 32996, Note_on_c, 0, 49, 0
2, 33010, Note_on_c, 0, 45, 69
2, 33028, Note_on_c, 0, 78, 89
2, 33044, Note_on_c, 0, 79, 0
2, 33112, Note_on_c, 0, 78, 0
2, 33116, Note_on_c, 0, 45, 0
2, 33131, Note_on_c, 0, 77, 61
2, 33140, Note_on_c, 0, 43, 72
2, 33151, Note_on_c, 0, 76, 65
2, 33174, Note_on_c, 0, 76, 0
2, 33179, Note_on_c, 0, 77, 0
2, 33237, Note_on_c, 0, 76, 93
2, 33259, Note_on_c, 0, 42, 76
2, 33282, Note_on_c, 0, 43, 0
2, 33294, Note_on_c, 0, 76, 0
2, 33323, Note_on_c, 0, 42, 0
2, 33336, Note_on_c, 0, 78, 86
2, 33345, Note_on_c, 0, 45, 62
2, 33412, Note_on_c, 0, 45, 0
2, 33418, Note_on_c, 0, 79, 84
2, 33428, Note_on_c, 0, 49, 73
2, 33432, Note_on_c, 0, 78, 0
2, 33494, Note_on_c, 0, 49, 0
2, 33517, Note_on_c, 0, 50, 73
2, 33537, Note_on_c, 0, 78, 95
2, 33555, Note_on_c, 0, 79, 0
2, 33566, Note_on_c, 0, 50, 0
2, 33632, Note_on_c, 0, 54, 72
2, 33717, Note_on_c, 0, 57, 85
2, 33728, Note_on_c, 0, 54, 0
2, 33777, Note_on_c, 0, 78, 0
2, 33800, Note_on_c, 0, 57, 0
2, 33826, Note_on_c, 0, 62, 87
2, 33892, Note_on_c, 0, 62, 0
2, 33920, Note_on_c, 0, 57, 77
2, 34006, Note_on_c, 0, 57, 0
2, 34016, Note_on_c, 0, 54, 72
2, 34060, Note_on_c, 0, 54, 0
2, 34099, Note_on_c, 0, 81, 91
2, 34116, Note_on_c, 0, 57, 72
2, 34157, Note_on_c, 0, 81, 0
2, 34186, Note_on_c, 0, 57, 0
2, 34201, Note_on_c, 0, 54, 68
2, 34257, Note_on_c, 0, 54, 0
2, 34297, Note_on_c, 0, 50, 64
2, 34349, Note_on_c, 0, 50, 0
2, 34391, Note_on_c, 0, 54, 73
2, 34391, Note_on_c, 0, 81, 88
2, 34447, Note_on_c, 0, 81, 0
2, 34462, Note_on_c, 0, 54, 0
2, 34471, Note_on_c, 0, 50, 68
2, 34496, Note_on_c, 0, 79, 80
2, 34570, Note_on_c, 0, 50, 0
2, 34570, Note_on_c, 0, 79, 0
2, 34587, Note_on_c, 0, 78, 69
2, 34599, Note_on_c, 0, 45, 57
2, 34623, Note_on_c, 0, 78, 0
2, 34640, Note_on_c, 0, 45, 0
2, 34676, Note_on_c, 0, 78, 90
2, 34699, Note_on_c, 0, 50, 72
2, 34724, Note_on_c, 0, 78, 0
2, 34753, Note_on_c, 0, 50, 0
2, 34757, Note_on_c, 0, 76, 86
2, 34783, Note_on_c, 0, 45, 62
2, 34825, Note_on_c, 0, 76, 0
2, 34857, Note_on_c, 0, 74, 82
2, 34864, Note_on_c, 0, 45, 0
2, 34877, Note_on_c, 0, 42, 71
2, 34914, Note_on_c, 0, 74, 0
2, 34951, Note_on_c, 0, 38, 70
2, 34955, Note_on_c, 0, 42, 0
2, 34960, Note_on_c, 0, 74, 76
2, 34988, Note_on_c, 0, 38, 0
2, 35016, Note_on_c, 0, 74, 0
2, 35061, Note_on_c, 0, 78, 87
2, 35143, Note_on_c, 0, 78, 0
2, 35154, Note_on_c, 0, 81, 86
2, 35250, Note_on_c, 0, 84, 88
2, 35254, Note_on_c, 0, 81, 0
2, 35263, Note_on_c, 0, 50, 72
2, 35316, Note_on_c, 0, 50, 0
2, 35345, Note_on_c, 0, 84, 0
2, 35363, Note_on_c, 0, 83, 85
2, 35455, Note_on_c, 0, 81, 85
2, 35480, Note_on_c, 0, 83, 0
2, 35525, Note_on_c, 0, 81, 0
2, 35574, Note_on_c, 0, 43, 65
2, 35581, Note_on_c, 0, 81, 78
2, 35683, Note_on_c, 0, 81, 0
2, 35690, Note_on_c, 0, 83, 83
2, 35775, Note_on_c, 0, 84, 80
2, 35793, Note_on_c, 0, 83, 0
2, 35892, Note_on_c, 0, 83, 90
2, 35897, Note_on_c, 0, 84, 0
2, 35950, Note_on_c, 0, 43, 0
2, 35998, Note_on_c, 0, 47, 68
2, 36057, Note_on_c, 0, 47, 0
2, 36102, Note_on_c, 0, 50, 70
2, 36136, Note_on_c, 0, 50, 0
2, 36194, Note_on_c, 0, 55, 74
2, 36250, Note_on_c, 0, 55, 0
2, 36294, Note_on_c, 0, 57, 75
2, 36294, Note_on_c, 0, 83, 0
2, 36304, Note_on_c, 0, 81, 69
2, 36346, Note_on_c, 0, 57, 0
2, 36369, Note_on_c, 0, 59, 79
2, 36386, Note_on_c, 0, 81, 0
2, 36399, Note_on_c, 0, 79, 81
2, 36404, Note_on_c, 0, 59, 0
2, 36448, Note_on_c, 0, 79, 0
2, 36501, Note_on_c, 0, 59, 81
2, 36505, Note_on_c, 0, 77, 89
2, 36578, Note_on_c, 0, 77, 0
2, 36591, Note_on_c, 0, 59, 0
2, 36591, Note_on_c, 0, 60, 75
2, 36596, Note_on_c, 0, 76, 84
2, 36655, Note_on_c, 0, 76, 0
2, 36678, Note_on_c, 0, 62, 83
2, 36687, Note_on_c, 0, 60, 0
2, 36699, Note_on_c, 0, 74, 79
2, 36739, Note_on_c, 0, 62, 0
2, 36761, Note_on_c, 0, 74, 0
2, 36788, Note_on_c, 0, 72, 87
2, 36797, Note_on_c, 0, 64, 84
2, 36851, Note_on_c, 0, 64, 0
2, 36858, Note_on_c, 0, 72, 0
2, 36893, Note_on_c, 0, 76, 83
2, 36967, Note_on_c, 0, 76, 0
2, 36992, Note_on_c, 0, 79, 85
2, 37088, Note_on_c, 0, 60, 69
2, 37088, Note_on_c, 0, 79, 0
2, 37088, Note_on_c, 0, 81, 80
2, 37157, Note_on_c, 0, 60, 0
2, 37168, Note_on_c, 0, 57, 72
2, 37186, Note_on_c, 0, 78, 84
2, 37195, Note_on_c, 0, 81, 0
2, 37267, Note_on_c, 0, 78, 0
2, 37276, Note_on_c, 0, 57, 0
2, 37282, Note_on_c, 0, 74, 80
2, 37291, Note_on_c, 0, 54, 71
2, 37342, Note_on_c, 0, 54, 0
2, 37360, Note_on_c, 0, 74, 0
2, 37376, Note_on_c, 0, 71, 82
2, 37387, Note_on_c, 0, 62, 78
2, 37432, Note_on_c, 0, 62, 0
2, 37446, Note_on_c, 0, 71, 0
2, 37482, Note_on_c, 0, 74, 78
2, 37562, Note_on_c, 0, 74, 0
2, 37574, Note_on_c, 0, 78, 86
2, 37667, Note_on_c, 0, 78, 0
2, 37673, Note_on_c, 0, 79, 85
2, 37689, Note_on_c, 0, 59, 73
2, 37741, Note_on_c, 0, 59, 0
2, 37777, Note_on_c, 0, 76, 74
2, 37790, Note_on_c, 0, 55, 64
2, 37790, Note_on_c, 0, 79, 0
2, 37850, Note_on_c, 0, 76, 0
2, 37859, Note_on_c, 0, 55, 0
2, 37871, Note_on_c, 0, 72, 80
2, 37884, Note_on_c, 0, 52, 66
2, 37939, Note_on_c, 0, 52, 0
2, 37946, Note_on_c, 0, 72, 0
2, 37975, Note_on_c, 0, 69, 78
2, 37980, Note_on_c, 0, 60, 76
2, 38027, Note_on_c, 0, 60, 0
2, 38060, Note_on_c, 0, 69, 0
2, 38082, Note_on_c, 0, 72, 80
2, 38159, Note_on_c, 0, 72, 0
2, 38195, Note_on_c, 0, 76, 67
2, 38284, Note_on_c, 0, 57, 64
2, 38289, Note_on_c, 0, 78, 81
2, 38329, Note_on_c, 0, 76, 0
2, 38340, Note_on_c, 0, 57, 0
2, 38366, Note_on_c, 0, 78, 0
2, 38384, Note_on_c, 0, 54, 64
2, 38392, Note_on_c, 0, 74, 69
2, 38443, Note_on_c, 0, 54, 0
2, 38468, Note_on_c, 0, 74, 0
2, 38484, Note_on_c, 0, 50, 63
2, 38489, Note_on_c, 0, 71, 75
2, 38540, Note_on_c, 0, 50, 0
2, 38555, Note_on_c, 0, 71, 0
2, 38580, Note_on_c, 0, 59, 69
2, 38583, Note_on_c, 0, 67, 75
2, 38631, Note_on_c, 0, 59, 0
2, 38654, Note_on_c, 0, 67, 0
2, 38684, Note_on_c, 0, 71, 77
2, 38760, Note_on_c, 0, 71, 0
2, 38784, Note_on_c, 0, 74, 72
2, 38868, Note_on_c, 0, 55, 60
2, 38877, Note_on_c, 0, 76, 76
2, 38883, Note_on_c, 0, 74, 0
2, 38914, Note_on_c, 0, 55, 0
2, 38968, Note_on_c, 0, 52, 61
2, 38975, Note_on_c, 0, 72, 65
2, 38975, Note_on_c, 0, 76, 0
2, 39022, Note_on_c, 0, 52, 0
2, 39045, Note_on_c, 0, 72, 0
2, 39068, Note_on_c, 0, 48, 54
2, 39068, Note_on_c, 0, 69, 64
2, 39120, Note_on_c, 0, 48, 0
2, 39125, Note_on_c, 0, 69, 0
2, 39158, Note_on_c, 0, 57, 68
2, 39166, Note_on_c, 0, 66, 73
2, 39208, Note_on_c, 0, 57, 0
2, 39214, Note_on_c, 0, 66, 0
2, 39261, Note_on_c, 0, 69, 65
2, 39343, Note_on_c, 0, 69, 0
2, 39354, Note_on_c, 0, 72, 74
2, 39439, Note_on_c, 0, 54, 61
2, 39461, Note_on_c, 0, 74, 69
2, 39466, Note_on_c, 0, 72, 0
2, 39497, Note_on_c, 0, 54, 0
2, 39541, Note_on_c, 0, 74, 0
2, 39552, Note_on_c, 0, 50, 60
2, 39563, Note_on_c, 0, 71, 60
2, 39619, Note_on_c, 0, 50, 0
2, 39623, Note_on_c, 0, 71, 0
2, 39645, Note_on_c, 0, 67, 63
2, 39653, Note_on_c, 0, 47, 52
2, 39709, Note_on_c, 0, 47, 0
2, 39709, Note_on_c, 0, 67, 0
2, 39738, Note_on_c, 0, 64, 71
2, 39743, Note_on_c, 0, 55, 63
2, 39787, Note_on_c, 0, 55, 0
2, 39821, Note_on_c, 0, 64, 0
2, 39832, Note_on_c, 0, 67, 67
2, 39916, Note_on_c, 0, 67, 0
2, 39935, Note_on_c, 0, 71, 66
2, 40035, Note_on_c, 0, 52, 54
2, 40042, Note_on_c, 0, 71, 0
2, 40042, Note_on_c, 0, 72, 71
2, 40082, Note_on_c, 0, 52, 0
2, 40133, Note_on_c, 0, 48, 58
2, 40133, Note_on_c, 0, 72, 0
2, 40137, Note_on_c, 0, 69, 57
2, 40202, Note_on_c, 0, 48, 0
2, 40209, Note_on_c, 0, 69, 0
2, 40220, Note_on_c, 0, 45, 57
2, 40246, Note_on_c, 0, 66, 62
2, 40281, Note_on_c, 0, 45, 0
2, 40303, Note_on_c, 0, 66, 0
2, 40345, Note_on_c, 0, 54, 63
2, 40349, Note_on_c, 0, 62, 67
2, 40391, Note_on_c, 0, 54, 0
2, 40423, Note_on_c, 0, 62, 0
2, 40437, Note_on_c, 0, 66, 67
2, 40516, Note_on_c, 0, 66, 0
2, 40527, Note_on_c, 0, 69, 66
2, 40634, Note_on_c, 0, 71, 72
2, 40643, Note_on_c, 0, 69, 0
2, 40647, Note_on_c, 0, 50, 59
2, 40721, Note_on_c, 0, 50, 0
2, 40737, Note_on_c, 0, 67, 69
2, 40737, Note_on_c, 0, 71, 0
2, 40741, Note_on_c, 0, 47, 68
2, 40830, Note_on_c, 0, 47, 0
2, 40839, Note_on_c, 0, 67, 0
2, 40846, Note_on_c, 0, 43, 70
2, 40846, Note_on_c, 0, 64, 80
2, 40900, Note_on_c, 0, 43, 0
2, 40924, Note_on_c, 0, 64, 0
2, 40940, Note_on_c, 0, 52, 77
2, 40944, Note_on_c, 0, 60, 79
2, 41005, Note_on_c, 0, 52, 0
2, 41047, Note_on_c, 0, 60, 0
2, 41051, Note_on_c, 0, 48, 74
2, 41053, Note_on_c, 0, 64, 81
2, 41135, Note_on_c, 0, 48, 0
2, 41140, Note_on_c, 0, 45, 80
2, 41140, Note_on_c, 0, 64, 0
2, 41151, Note_on_c, 0, 67, 80
2, 41196, Note_on_c, 0, 45, 0
2, 41251, Note_on_c, 0, 69, 80
2, 41257, Note_on_c, 0, 67, 0
2, 41266, Note_on_c, 0, 54, 79
2, 41347, Note_on_c, 0, 54, 0
2, 41355, Note_on_c, 0, 66, 84
2, 41369, Note_on_c, 0, 69, 0
2, 41380, Note_on_c, 0, 50, 70
2, 41450, Note_on_c, 0, 47, 71
2, 41454, Note_on_c, 0, 66, 0
2, 41459, Note_on_c, 0, 50, 0
2, 41467, Note_on_c, 0, 62, 83
2, 41537, Note_on_c, 0, 47, 0
2, 41559, Note_on_c, 0, 62, 0
2, 41564, Note_on_c, 0, 59, 84
2, 41570, Note_on_c, 0, 55, 80
2, 41621, Note_on_c, 0, 55, 0
2, 41662, Note_on_c, 0, 59, 0
2, 41679, Note_on_c, 0, 62, 85
2, 41792, Note_on_c, 0, 66, 84
2, 41797, Note_on_c, 0, 62, 0
2, 41918, Note_on_c, 0, 67, 81
2, 41927, Note_on_c, 0, 52, 76
2, 41948, Note_on_c, 0, 66, 0
2, 42008, Note_on_c, 0, 52, 0
2, 42066, Note_on_c, 0, 64, 81
2, 42088, Note_on_c, 0, 67, 0
2, 42185, Note_on_c, 0, 64, 0
2, 42199, Note_on_c, 0, 60, 76
2, 42350, Note_on_c, 0, 57, 76
2, 42356, Note_on_c, 0, 48, 67
2, 42360, Note_on_c, 0, 60, 0
2, 42472, Note_on_c, 0, 48, 0
2, 42506, Note_on_c, 0, 60, 74
2, 42543, Note_on_c, 0, 57, 0
2, 42690, Note_on_c, 0, 64, 79
2, 42721, Note_on_c, 0, 60, 0
2, 42928, Note_on_c, 0, 66, 71
2, 42939, Note_on_c, 0, 50, 59
2, 42949, Note_on_c, 0, 64, 0
2, 43154, Note_on_c, 0, 50, 0
2, 43219, Note_on_c, 0, 62, 67
2, 43246, Note_on_c, 0, 66, 0
2, 43613, Note_on_c, 0, 60, 58
2, 43641, Note_on_c, 0, 62, 0
2, 44210, Note_on_c, 0, 62, 56
2, 44214, Note_on_c, 0, 60, 0
2, 44219, Note_on_c, 0, 43, 37
2, 44219, Note_on_c, 0, 67, 59
2, 44223, Note_on_c, 0, 59, 48
2, 44426, Control_c, 0, 64, 23
2, 44442, Control_c, 0, 64, 33
2, 44464, Control_c, 0, 64, 39
2, 44480, Control_c, 0, 64, 44
2, 44500, Control_c, 0, 64, 49
2, 44519, Control_c, 0, 64, 53
2, 44540, Control_c, 0, 64, 55
2, 44558, Control_c, 0, 64, 57
2, 44577, Control_c, 0, 64, 59
2, 44595, Control_c, 0, 64, 61
2, 44615, Control_c, 0, 64, 62
2, 44637, Control_c, 0, 64, 64
2, 44655, Control_c, 0, 64, 65
2, 44674, Control_c, 0, 64, 69
2, 44693, Control_c, 0, 64, 76
2, 44715, Control_c, 0, 64, 86
2, 44731, Control_c, 0, 64, 105
2, 44750, Control_c, 0, 64, 127
2, 45799, Note_on_c, 0, 62, 0
2, 45842, Note_on_c, 0, 59, 0
2, 45842, Note_on_c, 0, 67, 0
2, 45940, Note_on_c, 0, 43, 0
2, 46055, Control_c, 0, 64, 104
2, 46075, Control_c, 0, 64, 78
2, 46093, Control_c, 0, 64, 64
2, 46114, Control_c, 0, 64, 55
2, 46134, Control_c, 0, 64, 47
2, 46150, Control_c, 0, 64, 39
2, 46170, Control_c, 0, 64, 34
2, 46190, Control_c, 0, 64, 33
2, 46209, Control_c, 0, 64, 32
2, 46227, Control_c, 0, 64, 29
2, 46247, Control_c, 0, 64, 25
2, 46269, Control_c, 0, 64, 23
2, 46288, Control_c, 0, 64, 22
2, 46305, Control_c, 0, 64, 20
2, 46325, Control_c, 0, 64, 18
2, 46365, Control_c, 0, 64, 17
2, 46403, Control_c, 0, 64, 16
2, 46480, Control_c, 0, 64, 15
2, 46496, Control_c, 0, 64, 11
2, 46517, Control_c, 0, 64, 10
2, 46633, Control_c, 0, 64, 11
2, 46650, Control_c, 0, 64, 13
2, 46689, Control_c, 0, 64, 15
2, 46709, Control_c, 0, 64, 17
2, 46728, Control_c, 0, 64, 20
2, 46748, Control_c, 0, 64, 21
2, 46823, Control_c, 0, 64, 22
2, 47037, Control_c, 0, 64, 21
2, 47053, Control_c, 0, 64, 20
2, 47076, Control_c, 0, 64, 18
2, 47091, Control_c, 0, 64, 17
2, 47112, Control_c, 0, 64, 15
2, 47132, Control_c, 0, 64, 13
2, 47150, Control_c, 0, 64, 8
2, 47170, Control_c, 0, 64, 0
2, 47399, Control_c, 0, 64, 11
2, 47419, Control_c, 0, 64, 13
2, 48880, Control_c, 0, 64, 12
2, 48900, Control_c, 0, 64, 11
2, 48919, Control_c, 0, 64, 8
2, 48940, Control_c, 0, 64, 0
2, 49766,End_track
0, 0, End_of_file
