0, 0, Header, 1, 2, 480
1, 0, Start_track
1, 0, Tempo, 500000
1, 0, Time_signature, 4, 2, 24, 8
1, 1, End_track
2, 0, Start_track
2, 0, Program_c, 0, 0
2, 0, Control_c, 0, 64, 54
2, 0, Control_c, 0, 67, 0
2, 159, Control_c, 0, 64, 53
2, 239, Control_c, 0, 64, 52
2, 258, Control_c, 0, 64, 51
2, 276, Control_c, 0, 64, 50
2, 296, Control_c, 0, 64, 47
2, 316, Control_c, 0, 64, 43
2, 336, Control_c, 0, 64, 39
2, 353, Control_c, 0, 64, 36
2, 374, Control_c, 0, 64, 35
2, 392, Control_c, 0, 64, 32
2, 410, Control_c, 0, 64, 29
2, 430, Control_c, 0, 64, 24
2, 450, Control_c, 0, 64, 22
2, 470, Control_c, 0, 64, 20
2, 487, Control_c, 0, 64, 16
2, 505, Control_c, 0, 64, 0
2, 952, Note_on_c, 0, 67, 80
2, 973, Note_on_c, 0, 55, 72
2, 1008, Note_on_c, 0, 55, 0
2, 1019, Note_on_c, 0, 67, 0
2, 1045, Note_on_c, 0, 71, 82
2, 1139, Note_on_c, 0, 71, 0
2, 1143, Note_on_c, 0, 74, 82
2, 1232, Note_on_c, 0, 74, 0
2, 1242, Note_on_c, 0, 43, 72
2, 1242, Note_on_c, 0, 79, 91
2, 1273, Note_on_c, 0, 43, 0
2, 1328, Note_on_c, 0, 74, 81
2, 1335, Note_on_c, 0, 79, 0
2, 1409, Note_on_c, 0, 74, 0
2, 1433, Note_on_c, 0, 71, 77
2, 1516, Note_on_c, 0, 71, 0
2, 1521, Note_on_c, 0, 74, 81
2, 1585, Note_on_c, 0, 74, 0
2, 1613, Note_on_c, 0, 71, 77
2, 1675, Note_on_c, 0, 71, 0
2, 1706, Note_on_c, 0, 67, 72
2, 1764, Note_on_c, 0, 67, 0
2, 1794, Note_on_c, 0, 55, 73
2, 1798, Note_on_c, 0, 71, 84
2, 1831, Note_on_c, 0, 55, 0
2, 1888, Note_on_c, 0, 67, 75
2, 1892, Note_on_c, 0, 71, 0
2, 1973, Note_on_c, 0, 67, 0
2, 1993, Note_on_c, 0, 62, 67
2, 2040, Note_on_c, 0, 62, 0
2, 2078, Note_on_c, 0, 55, 80
2, 2082, Note_on_c, 0, 64, 67
2, 2133, Note_on_c, 0, 55, 0
2, 2161, Note_on_c, 0, 64, 0
2, 2193, Note_on_c, 0, 67, 77
2, 2273, Note_on_c, 0, 67, 0
2, 2280, Note_on_c, 0, 72, 82
2, 2371, Note_on_c, 0, 43, 72
2, 2391, Note_on_c, 0, 76, 84
2, 2395, Note_on_c, 0, 72, 0
2, 2417, Note_on_c, 0, 43, 0
2, 2476, Note_on_c, 0, 72, 79
2, 2492, Note_on_c, 0, 76, 0
2, 2567, Note_on_c, 0, 72, 0
2, 2584, Note_on_c, 0, 67, 76
2, 2662, Note_on_c, 0, 67, 0
2, 2668, Note_on_c, 0, 72, 80
2, 2753, Note_on_c, 0, 72, 0
2, 2759, Note_on_c, 0, 67, 75
2, 2831, Note_on_c, 0, 67, 0
2, 2846, Note_on_c, 0, 64, 75
2, 2915, Note_on_c, 0, 64, 0
2, 2933, Note_on_c, 0, 55, 73
2, 2949, Note_on_c, 0, 67, 77
2, 2969, Note_on_c, 0, 55, 0
2, 3031, Note_on_c, 0, 67, 0
2, 3036, Note_on_c, 0, 64, 72
2, 3097, Note_on_c, 0, 64, 0
2, 3128, Note_on_c, 0, 60, 71
2, 3192, Note_on_c, 0, 60, 0
2, 3212, Note_on_c, 0, 55, 76
2, 3223, Note_on_c, 0, 57, 71
2, 3259, Note_on_c, 0, 55, 0
2, 3281, Note_on_c, 0, 57, 0
2, 3327, Note_on_c, 0, 60, 66
2, 3368, Note_on_c, 0, 60, 0
2, 3406, Note_on_c, 0, 66, 67
2, 3503, Note_on_c, 0, 43, 59
2, 3508, Note_on_c, 0, 66, 0
2, 3512, Note_on_c, 0, 69, 64
2, 3541, Note_on_c, 0, 43, 0
2, 3583, Note_on_c, 0, 69, 0
2, 3592, Note_on_c, 0, 66, 67
2, 3675, Note_on_c, 0, 66, 0
2, 3689, Note_on_c, 0, 60, 66
2, 3756, Note_on_c, 0, 60, 0
2, 3776, Note_on_c, 0, 66, 66
2, 3856, Note_on_c, 0, 66, 0
2, 3869, Note_on_c, 0, 60, 70
2, 3924, Note_on_c, 0, 60, 0
2, 3971, Note_on_c, 0, 57, 56
2, 4024, Note_on_c, 0, 57, 0
2, 4056, Note_on_c, 0, 55, 61
2, 4061, Note_on_c, 0, 60, 68
2, 4099, Note_on_c, 0, 55, 0
2, 4139, Note_on_c, 0, 60, 0
2, 4147, Note_on_c, 0, 57, 64
2, 4206, Note_on_c, 0, 57, 0
2, 4250, Note_on_c, 0, 54, 62
2, 4288, Note_on_c, 0, 54, 0
2, 4331, Note_on_c, 0, 55, 72
2, 4391, Note_on_c, 0, 55, 0
2, 4428, Note_on_c, 0, 59, 69
2, 4493, Note_on_c, 0, 59, 0
2, 4522, Note_on_c, 0, 62, 70
2, 4596, Note_on_c, 0, 62, 0
2, 4621, Note_on_c, 0, 43, 51
2, 4625, Note_on_c, 0, 67, 62
2, 4669, Note_on_c, 0, 43, 0
2, 4687, Note_on_c, 0, 67, 0
2, 4723, Note_on_c, 0, 62, 61
2, 4781, Note_on_c, 0, 62, 0
2, 4827, Note_on_c, 0, 59, 56
2, 4865, Note_on_c, 0, 59, 0
2, 4904, Note_on_c, 0, 62, 64
2, 4957, Note_on_c, 0, 62, 0
2, 4982, Note_on_c, 0, 59, 61
2, 5038, Note_on_c, 0, 59, 0
2, 5082, Note_on_c, 0, 55, 56
2, 5127, Note_on_c, 0, 55, 0
2, 5169, Note_on_c, 0, 59, 68
2, 5246, Note_on_c, 0, 59, 0
2, 5345, Note_on_c, 0, 52, 53
2, 5382, Note_on_c, 0, 52, 0
2, 5445, Note_on_c, 0, 57, 75
2, 5452, Note_on_c, 0, 55, 62
2, 5496, Note_on_c, 0, 57, 0
2, 5500, Note_on_c, 0, 55, 0
2, 5549, Note_on_c, 0, 61, 70
2, 5629, Note_on_c, 0, 61, 0
2, 5648, Note_on_c, 0, 64, 73
2, 5722, Note_on_c, 0, 43, 57
2, 5726, Note_on_c, 0, 64, 0
2, 5731, Note_on_c, 0, 69, 73
2, 5763, Note_on_c, 0, 43, 0
2, 5813, Note_on_c, 0, 69, 0
2, 5818, Note_on_c, 0, 64, 72
2, 5907, Note_on_c, 0, 64, 0
2, 5923, Note_on_c, 0, 61, 72
2, 5998, Note_on_c, 0, 61, 0
2, 6005, Note_on_c, 0, 64, 73
2, 6094, Note_on_c, 0, 61, 66
2, 6094, Note_on_c, 0, 64, 0
2, 6156, Note_on_c, 0, 61, 0
2, 6184, Note_on_c, 0, 57, 67
2, 6246, Note_on_c, 0, 57, 0
2, 6255, Note_on_c, 0, 55, 61
2, 6291, Note_on_c, 0, 61, 63
2, 6300, Note_on_c, 0, 55, 0
2, 6355, Note_on_c, 0, 61, 0
2, 6386, Note_on_c, 0, 57, 56
2, 6434, Note_on_c, 0, 57, 0
2, 6462, Note_on_c, 0, 52, 60
2, 6540, Note_on_c, 0, 52, 0
2, 6558, Note_on_c, 0, 54, 63
2, 6591, Note_on_c, 0, 62, 54
2, 6629, Note_on_c, 0, 60, 29
2, 6640, Note_on_c, 0, 54, 0
2, 6650, Note_on_c, 0, 62, 0
2, 6666, Note_on_c, 0, 57, 67
2, 6679, Note_on_c, 0, 60, 0
2, 6760, Note_on_c, 0, 61, 78
2, 6765, Note_on_c, 0, 57, 0
2, 6800, Note_on_c, 0, 61, 0
2, 6871, Note_on_c, 0, 62, 46
2, 6885, Note_on_c, 0, 60, 49
2, 6907, Note_on_c, 0, 62, 0
2, 6922, Note_on_c, 0, 60, 0
2, 6944, Note_on_c, 0, 57, 71
2, 7008, Note_on_c, 0, 57, 0
2, 7019, Note_on_c, 0, 54, 75
2, 7057, Note_on_c, 0, 54, 0
2, 7129, Note_on_c, 0, 57, 61
2, 7169, Note_on_c, 0, 57, 0
2, 7221, Note_on_c, 0, 54, 51
2, 7271, Note_on_c, 0, 54, 0
2, 7317, Note_on_c, 0, 50, 49
2, 7362, Note_on_c, 0, 50, 0
2, 7403, Note_on_c, 0, 62, 68
2, 7405, Note_on_c, 0, 54, 57
2, 7442, Note_on_c, 0, 62, 0
2, 7454, Note_on_c, 0, 54, 0
2, 7488, Note_on_c, 0, 50, 46
2, 7558, Note_on_c, 0, 50, 0
2, 7590, Note_on_c, 0, 47, 46
2, 7634, Note_on_c, 0, 47, 0
2, 7676, Note_on_c, 0, 52, 64
2, 7694, Note_on_c, 0, 62, 59
2, 7721, Note_on_c, 0, 52, 0
2, 7740, Note_on_c, 0, 62, 0
2, 7778, Note_on_c, 0, 61, 51
2, 7831, Note_on_c, 0, 61, 0
2, 7854, Note_on_c, 0, 62, 56
2, 7951, Note_on_c, 0, 62, 0
2, 7967, Note_on_c, 0, 40, 41
2, 7967, Note_on_c, 0, 64, 68
2, 8005, Note_on_c, 0, 40, 0
2, 8023, Note_on_c, 0, 64, 0
2, 8065, Note_on_c, 0, 61, 54
2, 8115, Note_on_c, 0, 61, 0
2, 8150, Note_on_c, 0, 62, 51
2, 8238, Note_on_c, 0, 62, 0
2, 8246, Note_on_c, 0, 66, 68
2, 8306, Note_on_c, 0, 66, 0
2, 8346, Note_on_c, 0, 61, 59
2, 8400, Note_on_c, 0, 61, 0
2, 8444, Note_on_c, 0, 62, 52
2, 8541, Note_on_c, 0, 62, 0
2, 8552, Note_on_c, 0, 52, 60
2, 8552, Note_on_c, 0, 67, 73
2, 8593, Note_on_c, 0, 52, 0
2, 8637, Note_on_c, 0, 67, 0
2, 8657, Note_on_c, 0, 61, 55
2, 8706, Note_on_c, 0, 61, 0
2, 8744, Note_on_c, 0, 62, 62
2, 8846, Note_on_c, 0, 62, 0
2, 8846, Note_on_c, 0, 69, 81
2, 8860, Note_on_c, 0, 49, 60
2, 8909, Note_on_c, 0, 49, 0
2, 8938, Note_on_c, 0, 61, 72
2, 8943, Note_on_c, 0, 69, 0
2, 9010, Note_on_c, 0, 61, 0
2, 9023, Note_on_c, 0, 62, 63
2, 9128, Note_on_c, 0, 62, 0
2, 9137, Note_on_c, 0, 71, 79
2, 9163, Note_on_c, 0, 45, 55
2, 9208, Note_on_c, 0, 45, 0
2, 9218, Note_on_c, 0, 71, 0
2, 9230, Note_on_c, 0, 61, 65
2, 9293, Note_on_c, 0, 61, 0
2, 9331, Note_on_c, 0, 62, 59
2, 9439, Note_on_c, 0, 47, 57
2, 9443, Note_on_c, 0, 69, 68
2, 9451, Note_on_c, 0, 62, 0
2, 9482, Note_on_c, 0, 47, 0
2, 9524, Note_on_c, 0, 69, 0
2, 9540, Note_on_c, 0, 61, 58
2, 9596, Note_on_c, 0, 61, 0
2, 9650, Note_on_c, 0, 62, 55
2, 9730, Note_on_c, 0, 49, 52
2, 9748, Note_on_c, 0, 67, 63
2, 9752, Note_on_c, 0, 62, 0
2, 9772, Note_on_c, 0, 49, 0
2, 9812, Note_on_c, 0, 67, 0
2, 9847, Note_on_c, 0, 61, 58
2, 9902, Note_on_c, 0, 61, 0
2, 9939, Note_on_c, 0, 62, 61
2, 10024, Note_on_c, 0, 50, 63
2, 10035, Note_on_c, 0, 62, 0
2, 10046, Note_on_c, 0, 66, 70
2, 10073, Note_on_c, 0, 50, 0
2, 10095, Note_on_c, 0, 66, 0
2, 10144, Note_on_c, 0, 61, 62
2, 10185, Note_on_c, 0, 61, 0
2, 10229, Note_on_c, 0, 62, 64
2, 10282, Note_on_c, 0, 62, 0
2, 10334, Note_on_c, 0, 52, 73
2, 10334, Note_on_c, 0, 67, 69
2, 10371, Note_on_c, 0, 67, 0
2, 10392, Note_on_c, 0, 52, 0
2, 10427, Note_on_c, 0, 61, 67
2, 10470, Note_on_c, 0, 61, 0
2, 10526, Note_on_c, 0, 62, 71
2, 10586, Note_on_c, 0, 62, 0
2, 10614, Note_on_c, 0, 69, 79
2, 10616, Note_on_c, 0, 54, 80
2, 10669, Note_on_c, 0, 69, 0
2, 10718, Note_on_c, 0, 61, 73
2, 10723, Note_on_c, 0, 54, 0
2, 10776, Note_on_c, 0, 61, 0
2, 10817, Note_on_c, 0, 62, 69
2, 10870, Note_on_c, 0, 62, 0
2, 10907, Note_on_c, 0, 71, 87
2, 10911, Note_on_c, 0, 55, 74
2, 10962, Note_on_c, 0, 71, 0
2, 10978, Note_on_c, 0, 55, 0
2, 11016, Note_on_c, 0, 61, 68
2, 11054, Note_on_c, 0, 61, 0
2, 11116, Note_on_c, 0, 62, 66
2, 11165, Note_on_c, 0, 62, 0
2, 11210, Note_on_c, 0, 54, 67
2, 11214, Note_on_c, 0, 69, 66
2, 11259, Note_on_c, 0, 69, 0
2, 11279, Note_on_c, 0, 54, 0
2, 11313, Note_on_c, 0, 61, 55
2, 11355, Note_on_c, 0, 61, 0
2, 11412, Note_on_c, 0, 62, 61
2, 11452, Note_on_c, 0, 62, 0
2, 11505, Note_on_c, 0, 52, 69
2, 11505, Note_on_c, 0, 67, 66
2, 11544, Note_on_c, 0, 67, 0
2, 11553, Note_on_c, 0, 52, 0
2, 11604, Note_on_c, 0, 61, 59
2, 11644, Note_on_c, 0, 61, 0
2, 11691, Note_on_c, 0, 62, 58
2, 11720, Note_on_c, 0, 62, 0
2, 11779, Note_on_c, 0, 50, 69
2, 11797, Note_on_c, 0, 66, 69
2, 11816, Note_on_c, 0, 50, 0
2, 11849, Note_on_c, 0, 66, 0
2, 11890, Note_on_c, 0, 61, 62
2, 11938, Note_on_c, 0, 61, 0
2, 11980, Note_on_c, 0, 62, 69
2, 12037, Note_on_c, 0, 62, 0
2, 12085, Note_on_c, 0, 69, 66
2, 12090, Note_on_c, 0, 54, 63
2, 12125, Note_on_c, 0, 69, 0
2, 12144, Note_on_c, 0, 54, 0
2, 12164, Note_on_c, 0, 61, 73
2, 12202, Note_on_c, 0, 61, 0
2, 12372, Note_on_c, 0, 68, 81
2, 12401, Note_on_c, 0, 47, 75
2, 12436, Note_on_c, 0, 68, 0
2, 12440, Note_on_c, 0, 47, 0
2, 12468, Note_on_c, 0, 71, 80
2, 12572, Note_on_c, 0, 74, 85
2, 12583, Note_on_c, 0, 71, 0
2, 12669, Note_on_c, 0, 59, 91
2, 12677, Note_on_c, 0, 77, 97
2, 12688, Note_on_c, 0, 74, 0
2, 12722, Note_on_c, 0, 59, 0
2, 12775, Note_on_c, 0, 74, 82
2, 12795, Note_on_c, 0, 77, 0
2, 12871, Note_on_c, 0, 74, 0
2, 12875, Note_on_c, 0, 71, 83
2, 12933, Note_on_c, 0, 71, 0
2, 12982, Note_on_c, 0, 74, 83
2, 13058, Note_on_c, 0, 71, 75
2, 13091, Note_on_c, 0, 74, 0
2, 13154, Note_on_c, 0, 68, 81
2, 13154, Note_on_c, 0, 71, 0
2, 13234, Note_on_c, 0, 68, 0
2, 13252, Note_on_c, 0, 71, 80
2, 13270, Note_on_c, 0, 57, 78
2, 13318, Note_on_c, 0, 57, 0
2, 13334, Note_on_c, 0, 71, 0
2, 13344, Note_on_c, 0, 68, 85
2, 13419, Note_on_c, 0, 68, 0
2, 13433, Note_on_c, 0, 64, 80
2, 13498, Note_on_c, 0, 64, 0
2, 13535, Note_on_c, 0, 56, 76
2, 13544, Note_on_c, 0, 62, 76
2, 13590, Note_on_c, 0, 56, 0
2, 13594, Note_on_c, 0, 62, 0
2, 13638, Note_on_c, 0, 65, 74
2, 13720, Note_on_c, 0, 65, 0
2, 13731, Note_on_c, 0, 68, 78
2, 13838, Note_on_c, 0, 44, 70
2, 13838, Note_on_c, 0, 68, 0
2, 13843, Note_on_c, 0, 71, 77
2, 13885, Note_on_c, 0, 44, 0
2, 13920, Note_on_c, 0, 71, 0
2, 13938, Note_on_c, 0, 68, 75
2, 14030, Note_on_c, 0, 68, 0
2, 14034, Note_on_c, 0, 65, 72
2, 14121, Note_on_c, 0, 65, 0
2, 14132, Note_on_c, 0, 68, 80
2, 14222, Note_on_c, 0, 68, 0
2, 14226, Note_on_c, 0, 65, 68
2, 14298, Note_on_c, 0, 65, 0
2, 14329, Note_on_c, 0, 62, 65
2, 14395, Note_on_c, 0, 62, 0
2, 14412, Note_on_c, 0, 56, 58
2, 14439, Note_on_c, 0, 65, 50
2, 14453, Note_on_c, 0, 67, 45
2, 14457, Note_on_c, 0, 56, 0
2, 14490, Note_on_c, 0, 67, 0
2, 14495, Note_on_c, 0, 65, 0
2, 14553, Note_on_c, 0, 62, 44
2, 14590, Note_on_c, 0, 62, 0
2, 14611, Note_on_c, 0, 59, 51
2, 14646, Note_on_c, 0, 59, 0
2, 14686, Note_on_c, 0, 60, 64
2, 14690, Note_on_c, 0, 57, 60
2, 14724, Note_on_c, 0, 60, 0
2, 14770, Note_on_c, 0, 57, 0
2, 14806, Note_on_c, 0, 60, 63
2, 14860, Note_on_c, 0, 60, 0
2, 14900, Note_on_c, 0, 64, 64
2, 14939, Note_on_c, 0, 64, 0
2, 14977, Note_on_c, 0, 76, 83
2, 14988, Note_on_c, 0, 69, 72
2, 15014, Note_on_c, 0, 76, 0
2, 15023, Note_on_c, 0, 69, 0
2, 15071, Note_on_c, 0, 64, 68
2, 15151, Note_on_c, 0, 64, 0
2, 15182, Note_on_c, 0, 60, 60
2, 15215, Note_on_c, 0, 60, 0
2, 15242, Note_on_c, 0, 72, 73
2, 15279, Note_on_c, 0, 72, 0
2, 15282, Note_on_c, 0, 64, 66
2, 15323, Note_on_c, 0, 64, 0
2, 15345, Note_on_c, 0, 60, 50
2, 15411, Note_on_c, 0, 60, 0
2, 15444, Note_on_c, 0, 57, 57
2, 15487, Note_on_c, 0, 57, 0
2, 15530, Note_on_c, 0, 69, 58
2, 15535, Note_on_c, 0, 60, 65
2, 15575, Note_on_c, 0, 60, 0
2, 15575, Note_on_c, 0, 69, 0
2, 15608, Note_on_c, 0, 57, 55
2, 15663, Note_on_c, 0, 57, 0
2, 15711, Note_on_c, 0, 52, 55
2, 15769, Note_on_c, 0, 52, 0
2, 15811, Note_on_c, 0, 48, 64
2, 15811, Note_on_c, 0, 64, 59
2, 15842, Note_on_c, 0, 64, 0
2, 15859, Note_on_c, 0, 48, 0
2, 15893, Note_on_c, 0, 52, 60
2, 15968, Note_on_c, 0, 52, 0
2, 16005, Note_on_c, 0, 57, 64
2, 16048, Note_on_c, 0, 57, 0
2, 16082, Note_on_c, 0, 76, 72
2, 16106, Note_on_c, 0, 60, 59
2, 16123, Note_on_c, 0, 76, 0
2, 16147, Note_on_c, 0, 60, 0
2, 16188, Note_on_c, 0, 57, 59
2, 16245, Note_on_c, 0, 57, 0
2, 16273, Note_on_c, 0, 52, 63
2, 16321, Note_on_c, 0, 52, 0
2, 16364, Note_on_c, 0, 72, 68
2, 16413, Note_on_c, 0, 72, 0
2, 16417, Note_on_c, 0, 55, 31
2, 16468, Note_on_c, 0, 55, 0
2, 16531, Note_on_c, 0, 52, 4
2, 16601, Note_on_c, 0, 52, 0
2, 16632, Note_on_c, 0, 69, 65
2, 16652, Note_on_c, 0, 52, 56
2, 16663, Note_on_c, 0, 69, 0
2, 16694, Note_on_c, 0, 52, 0
2, 16738, Note_on_c, 0, 48, 61
2, 16802, Note_on_c, 0, 48, 0
2, 16820, Note_on_c, 0, 45, 64
2, 16878, Note_on_c, 0, 45, 0
2, 16920, Note_on_c, 0, 75, 83
2, 16942, Note_on_c, 0, 42, 81
2, 16986, Note_on_c, 0, 42, 0
2, 16999, Note_on_c, 0, 75, 0
2, 17021, Note_on_c, 0, 78, 89
2, 17120, Note_on_c, 0, 81, 82
2, 17137, Note_on_c, 0, 78, 0
2, 17226, Note_on_c, 0, 54, 88
2, 17226, Note_on_c, 0, 84, 89
2, 17234, Note_on_c, 0, 81, 0
2, 17265, Note_on_c, 0, 54, 0
2, 17326, Note_on_c, 0, 81, 75
2, 17346, Note_on_c, 0, 84, 0
2, 17414, Note_on_c, 0, 81, 0
2, 17436, Note_on_c, 0, 78, 85
2, 17499, Note_on_c, 0, 78, 0
2, 17532, Note_on_c, 0, 81, 84
2, 17619, Note_on_c, 0, 78, 83
2, 17629, Note_on_c, 0, 81, 0
2, 17708, Note_on_c, 0, 75, 82
2, 17719, Note_on_c, 0, 78, 0
2, 17810, Note_on_c, 0, 78, 88
2, 17819, Note_on_c, 0, 75, 0
2, 17828, Note_on_c, 0, 52, 78
2, 17874, Note_on_c, 0, 52, 0
2, 17905, Note_on_c, 0, 75, 78
2, 17933, Note_on_c, 0, 78, 0
2, 17990, Note_on_c, 0, 75, 0
2, 18017, Note_on_c, 0, 71, 75
2, 18064, Note_on_c, 0, 71, 0
2, 18105, Note_on_c, 0, 51, 80
2, 18114, Note_on_c, 0, 69, 70
2, 18159, Note_on_c, 0, 69, 0
2, 18163, Note_on_c, 0, 51, 0
2, 18200, Note_on_c, 0, 72, 81
2, 18278, Note_on_c, 0, 72, 0
2, 18306, Note_on_c, 0, 75, 80
2, 18408, Note_on_c, 0, 75, 0
2, 18408, Note_on_c, 0, 78, 87
2, 18413, Note_on_c, 0, 39, 67
2, 18461, Note_on_c, 0, 39, 0
2, 18515, Note_on_c, 0, 75, 74
2, 18515, Note_on_c, 0, 78, 0
2, 18590, Note_on_c, 0, 75, 0
2, 18599, Note_on_c, 0, 72, 78
2, 18701, Note_on_c, 0, 72, 0
2, 18701, Note_on_c, 0, 75, 83
2, 18791, Note_on_c, 0, 75, 0
2, 18800, Note_on_c, 0, 72, 76
2, 18878, Note_on_c, 0, 72, 0
2, 18899, Note_on_c, 0, 69, 60
2, 18959, Note_on_c, 0, 69, 0
2, 19005, Note_on_c, 0, 51, 60
2, 19007, Note_on_c, 0, 72, 72
2, 19043, Note_on_c, 0, 51, 0
2, 19081, Note_on_c, 0, 72, 0
2, 19090, Note_on_c, 0, 69, 63
2, 19143, Note_on_c, 0, 69, 0
2, 19191, Note_on_c, 0, 66, 61
2, 19236, Note_on_c, 0, 66, 0
2, 19251, Note_on_c, 0, 52, 64
2, 19281, Note_on_c, 0, 67, 63
2, 19288, Note_on_c, 0, 52, 0
2, 19323, Note_on_c, 0, 67, 0
2, 19366, Note_on_c, 0, 63, 64
2, 19415, Note_on_c, 0, 63, 0
2, 19464, Note_on_c, 0, 64, 59
2, 19511, Note_on_c, 0, 64, 0
2, 19551, Note_on_c, 0, 54, 64
2, 19556, Note_on_c, 0, 69, 62
2, 19596, Note_on_c, 0, 69, 0
2, 19605, Note_on_c, 0, 54, 0
2, 19649, Note_on_c, 0, 63, 63
2, 19689, Note_on_c, 0, 63, 0
2, 19743, Note_on_c, 0, 64, 68
2, 19795, Note_on_c, 0, 64, 0
2, 19834, Note_on_c, 0, 55, 75
2, 19838, Note_on_c, 0, 71, 80
2, 19881, Note_on_c, 0, 71, 0
2, 19892, Note_on_c, 0, 55, 0
2, 19932, Note_on_c, 0, 63, 71
2, 19983, Note_on_c, 0, 63, 0
2, 20027, Note_on_c, 0, 64, 73
2, 20079, Note_on_c, 0, 64, 0
2, 20126, Note_on_c, 0, 57, 74
2, 20129, Note_on_c, 0, 72, 86
2, 20178, Note_on_c, 0, 72, 0
2, 20198, Note_on_c, 0, 57, 0
2, 20232, Note_on_c, 0, 63, 63
2, 20278, Note_on_c, 0, 63, 0
2, 20334, Note_on_c, 0, 64, 65
2, 20378, Note_on_c, 0, 64, 0
2, 20424, Note_on_c, 0, 71, 69
2, 20433, Note_on_c, 0, 55, 57
2, 20471, Note_on_c, 0, 71, 0
2, 20489, Note_on_c, 0, 55, 0
2, 20538, Note_on_c, 0, 63, 57
2, 20579, Note_on_c, 0, 63, 0
2, 20637, Note_on_c, 0, 64, 52
2, 20684, Note_on_c, 0, 64, 0
2, 20718, Note_on_c, 0, 54, 65
2, 20727, Note_on_c, 0, 69, 56
2, 20769, Note_on_c, 0, 54, 0
2, 20773, Note_on_c, 0, 69, 0
2, 20814, Note_on_c, 0, 63, 62
2, 20852, Note_on_c, 0, 63, 0
2, 20916, Note_on_c, 0, 64, 60
2, 20951, Note_on_c, 0, 64, 0
2, 21002, Note_on_c, 0, 52, 66
2, 21007, Note_on_c, 0, 67, 63
2, 21046, Note_on_c, 0, 52, 0
2, 21053, Note_on_c, 0, 67, 0
2, 21112, Note_on_c, 0, 63, 63
2, 21151, Note_on_c, 0, 63, 0
2, 21214, Note_on_c, 0, 64, 66
2, 21262, Note_on_c, 0, 64, 0
2, 21298, Note_on_c, 0, 55, 61
2, 21309, Note_on_c, 0, 71, 70
2, 21350, Note_on_c, 0, 55, 0
2, 21355, Note_on_c, 0, 71, 0
2, 21388, Note_on_c, 0, 63, 64
2, 21428, Note_on_c, 0, 63, 0
2, 21488, Note_on_c, 0, 64, 55
2, 21520, Note_on_c, 0, 64, 0
2, 21606, Note_on_c, 0, 49, 62
2, 21622, Note_on_c, 0, 69, 65
2, 21640, Note_on_c, 0, 49, 0
2, 21664, Note_on_c, 0, 69, 0
2, 21723, Note_on_c, 0, 68, 63
2, 21780, Note_on_c, 0, 68, 0
2, 21804, Note_on_c, 0, 69, 49
2, 21893, Note_on_c, 0, 50, 62
2, 21910, Note_on_c, 0, 69, 0
2, 21912, Note_on_c, 0, 71, 78
2, 21943, Note_on_c, 0, 50, 0
2, 21966, Note_on_c, 0, 71, 0
2, 22014, Note_on_c, 0, 68, 64
2, 22064, Note_on_c, 0, 68, 0
2, 22104, Note_on_c, 0, 69, 50
2, 22195, Note_on_c, 0, 73, 80
2, 22199, Note_on_c, 0, 52, 63
2, 22208, Note_on_c, 0, 69, 0
2, 22242, Note_on_c, 0, 52, 0
2, 22266, Note_on_c, 0, 73, 0
2, 22295, Note_on_c, 0, 68, 69
2, 22356, Note_on_c, 0, 68, 0
2, 22382, Note_on_c, 0, 69, 58
2, 22495, Note_on_c, 0, 74, 85
2, 22499, Note_on_c, 0, 69, 0
2, 22510, Note_on_c, 0, 54, 57
2, 22555, Note_on_c, 0, 54, 0
2, 22595, Note_on_c, 0, 68, 77
2, 22600, Note_on_c, 0, 74, 0
2, 22667, Note_on_c, 0, 68, 0
2, 22673, Note_on_c, 0, 69, 68
2, 22783, Note_on_c, 0, 69, 0
2, 22788, Note_on_c, 0, 76, 91
2, 22799, Note_on_c, 0, 49, 60
2, 22846, Note_on_c, 0, 49, 0
2, 22884, Note_on_c, 0, 68, 86
2, 22888, Note_on_c, 0, 76, 0
2, 22962, Note_on_c, 0, 68, 0
2, 22971, Note_on_c, 0, 69, 75
2, 23081, Note_on_c, 0, 78, 89
2, 23092, Note_on_c, 0, 69, 0
2, 23097, Note_on_c, 0, 47, 64
2, 23146, Note_on_c, 0, 47, 0
2, 23186, Note_on_c, 0, 68, 80
2, 23210, Note_on_c, 0, 78, 0
2, 23250, Note_on_c, 0, 68, 0
2, 23284, Note_on_c, 0, 69, 69
2, 23395, Note_on_c, 0, 69, 0
2, 23400, Note_on_c, 0, 45, 54
2, 23404, Note_on_c, 0, 79, 85
2, 23454, Note_on_c, 0, 45, 0
2, 23509, Note_on_c, 0, 76, 80
2, 23527, Note_on_c, 0, 79, 0
2, 23603, Note_on_c, 0, 76, 0
2, 23607, Note_on_c, 0, 73, 79
2, 23691, Note_on_c, 0, 49, 60
2, 23691, Note_on_c, 0, 73, 0
2, 23698, Note_on_c, 0, 69, 76
2, 23726, Note_on_c, 0, 49, 0
2, 23784, Note_on_c, 0, 69, 0
2, 23798, Note_on_c, 0, 73, 82
2, 23874, Note_on_c, 0, 73, 0
2, 23886, Note_on_c, 0, 76, 80
2, 23992, Note_on_c, 0, 50, 65
2, 23998, Note_on_c, 0, 78, 78
2, 24007, Note_on_c, 0, 76, 0
2, 24066, Note_on_c, 0, 50, 0
2, 24102, Note_on_c, 0, 54, 67
2, 24106, Note_on_c, 0, 78, 0
2, 24202, Note_on_c, 0, 57, 80
2, 24206, Note_on_c, 0, 54, 0
2, 24268, Note_on_c, 0, 57, 0
2, 24286, Note_on_c, 0, 62, 78
2, 24355, Note_on_c, 0, 62, 0
2, 24368, Note_on_c, 0, 57, 74
2, 24452, Note_on_c, 0, 54, 78
2, 24452, Note_on_c, 0, 57, 0
2, 24498, Note_on_c, 0, 54, 0
2, 24570, Note_on_c, 0, 50, 78
2, 24588, Note_on_c, 0, 81, 75
2, 24610, Note_on_c, 0, 50, 0
2, 24683, Note_on_c, 0, 78, 86
2, 24701, Note_on_c, 0, 81, 0
2, 24769, Note_on_c, 0, 78, 0
2, 24784, Note_on_c, 0, 74, 80
2, 24866, Note_on_c, 0, 62, 66
2, 24871, Note_on_c, 0, 74, 0
2, 24875, Note_on_c, 0, 72, 85
2, 24919, Note_on_c, 0, 62, 0
2, 24957, Note_on_c, 0, 72, 0
2, 24957, Note_on_c, 0, 74, 79
2, 25061, Note_on_c, 0, 74, 0
2, 25061, Note_on_c, 0, 78, 82
2, 25157, Note_on_c, 0, 78, 0
2, 25173, Note_on_c, 0, 50, 69
2, 25173, Note_on_c, 0, 81, 83
2, 25247, Note_on_c, 0, 50, 0
2, 25281, Note_on_c, 0, 55, 72
2, 25341, Note_on_c, 0, 55, 0
2, 25375, Note_on_c, 0, 59, 76
2, 25428, Note_on_c, 0, 59, 0
2, 25468, Note_on_c, 0, 62, 73
2, 25475, Note_on_c, 0, 81, 0
2, 25484, Note_on_c, 0, 79, 81
2, 25512, Note_on_c, 0, 62, 0
2, 25527, Note_on_c, 0, 79, 0
2, 25565, Note_on_c, 0, 59, 70
2, 25619, Note_on_c, 0, 59, 0
2, 25653, Note_on_c, 0, 55, 67
2, 25696, Note_on_c, 0, 55, 0
2, 25768, Note_on_c, 0, 50, 63
2, 25784, Note_on_c, 0, 79, 78
2, 25802, Note_on_c, 0, 50, 0
2, 25872, Note_on_c, 0, 79, 0
2, 25886, Note_on_c, 0, 76, 74
2, 25958, Note_on_c, 0, 76, 0
2, 25977, Note_on_c, 0, 73, 75
2, 26054, Note_on_c, 0, 73, 0
2, 26068, Note_on_c, 0, 69, 74
2, 26080, Note_on_c, 0, 62, 64
2, 26117, Note_on_c, 0, 62, 0
2, 26138, Note_on_c, 0, 69, 0
2, 26172, Note_on_c, 0, 73, 79
2, 26252, Note_on_c, 0, 73, 0
2, 26273, Note_on_c, 0, 76, 74
2, 26359, Note_on_c, 0, 50, 64
2, 26359, Note_on_c, 0, 76, 0
2, 26363, Note_on_c, 0, 79, 81
2, 26414, Note_on_c, 0, 50, 0
2, 26466, Note_on_c, 0, 57, 63
2, 26520, Note_on_c, 0, 57, 0
2, 26553, Note_on_c, 0, 61, 63
2, 26557, Note_on_c, 0, 79, 0
2, 26589, Note_on_c, 0, 61, 0
2, 26647, Note_on_c, 0, 78, 69
2, 26650, Note_on_c, 0, 62, 61
2, 26687, Note_on_c, 0, 78, 0
2, 26696, Note_on_c, 0, 62, 0
2, 26730, Note_on_c, 0, 57, 65
2, 26795, Note_on_c, 0, 57, 0
2, 26826, Note_on_c, 0, 54, 59
2, 26888, Note_on_c, 0, 54, 0
2, 26940, Note_on_c, 0, 50, 63
2, 26940, Note_on_c, 0, 78, 72
2, 26974, Note_on_c, 0, 50, 0
2, 27022, Note_on_c, 0, 78, 0
2, 27051, Note_on_c, 0, 74, 62
2, 27123, Note_on_c, 0, 74, 0
2, 27140, Note_on_c, 0, 71, 64
2, 27229, Note_on_c, 0, 62, 62
2, 27233, Note_on_c, 0, 71, 0
2, 27242, Note_on_c, 0, 67, 64
2, 27266, Note_on_c, 0, 62, 0
2, 27303, Note_on_c, 0, 67, 0
2, 27324, Note_on_c, 0, 71, 59
2, 27388, Note_on_c, 0, 71, 0
2, 27416, Note_on_c, 0, 74, 61
2, 27513, Note_on_c, 0, 74, 0
2, 27524, Note_on_c, 0, 78, 70
2, 27528, Note_on_c, 0, 50, 45
2, 27578, Note_on_c, 0, 50, 0
2, 27613, Note_on_c, 0, 52, 60
2, 27617, Note_on_c, 0, 78, 0
2, 27681, Note_on_c, 0, 52, 0
2, 27722, Note_on_c, 0, 55, 54
2, 27760, Note_on_c, 0, 55, 0
2, 27807, Note_on_c, 0, 59, 59
2, 27816, Note_on_c, 0, 76, 68
2, 27846, Note_on_c, 0, 59, 0
2, 27856, Note_on_c, 0, 76, 0
2, 27885, Note_on_c, 0, 55, 48
2, 27942, Note_on_c, 0, 55, 0
2, 27976, Note_on_c, 0, 52, 55
2, 28043, Note_on_c, 0, 52, 0
2, 28090, Note_on_c, 0, 50, 60
2, 28105, Note_on_c, 0, 76, 62
2, 28130, Note_on_c, 0, 50, 0
2, 28177, Note_on_c, 0, 76, 0
2, 28199, Note_on_c, 0, 73, 64
2, 28259, Note_on_c, 0, 73, 0
2, 28307, Note_on_c, 0, 69, 48
2, 28361, Note_on_c, 0, 69, 0
2, 28385, Note_on_c, 0, 62, 52
2, 28390, Note_on_c, 0, 67, 58
2, 28417, Note_on_c, 0, 62, 0
2, 28444, Note_on_c, 0, 67, 0
2, 28473, Note_on_c, 0, 69, 49
2, 28538, Note_on_c, 0, 69, 0
2, 28594, Note_on_c, 0, 73, 51
2, 28656, Note_on_c, 0, 73, 0
2, 28665, Note_on_c, 0, 50, 54
2, 28667, Note_on_c, 0, 76, 65
2, 28705, Note_on_c, 0, 76, 0
2, 28723, Note_on_c, 0, 50, 0
2, 28794, Note_on_c, 0, 54, 48
2, 28856, Note_on_c, 0, 54, 0
2, 28891, Note_on_c, 0, 57, 56
2, 28934, Note_on_c, 0, 57, 0
2, 28957, Note_on_c, 0, 74, 66
2, 28972, Note_on_c, 0, 62, 62
2, 28990, Note_on_c, 0, 74, 0
2, 29019, Note_on_c, 0, 62, 0
2, 29055, Note_on_c, 0, 57, 54
2, 29122, Note_on_c, 0, 57, 0
2, 29157, Note_on_c, 0, 54, 58
2, 29195, Note_on_c, 0, 54, 0
2, 29248, Note_on_c, 0, 57, 70
2, 29303, Note_on_c, 0, 57, 0
2, 29326, Note_on_c, 0, 54, 57
2, 29384, Note_on_c, 0, 54, 0
2, 29424, Note_on_c, 0, 50, 61
2, 29480, Note_on_c, 0, 50, 0
2, 29523, Note_on_c, 0, 74, 78
2, 29538, Note_on_c, 0, 54, 64
2, 29561, Note_on_c, 0, 74, 0
2, 29581, Note_on_c, 0, 54, 0
2, 29613, Note_on_c, 0, 50, 57
2, 29690, Note_on_c, 0, 50, 0
2, 29721, Note_on_c, 0, 48, 58
2, 29782, Note_on_c, 0, 48, 0
2, 29798, Note_on_c, 0, 47, 68
2, 29805, Note_on_c, 0, 74, 80
2, 29849, Note_on_c, 0, 47, 0
2, 29855, Note_on_c, 0, 74, 0
2, 29866, Note_on_c, 0, 50, 61
2, 29906, Note_on_c, 0, 72, 80
2, 29930, Note_on_c, 0, 50, 0
2, 29953, Note_on_c, 0, 72, 0
2, 29972, Note_on_c, 0, 54, 73
2, 29997, Note_on_c, 0, 71, 72
2, 30023, Note_on_c, 0, 54, 0
2, 30031, Note_on_c, 0, 71, 0
2, 30091, Note_on_c, 0, 71, 81
2, 30113, Note_on_c, 0, 53, 53
2, 30117, Note_on_c, 0, 55, 41
2, 30147, Note_on_c, 0, 53, 0
2, 30159, Note_on_c, 0, 55, 0
2, 30159, Note_on_c, 0, 71, 0
2, 30189, Note_on_c, 0, 50, 55
2, 30189, Note_on_c, 0, 69, 74
2, 30229, Note_on_c, 0, 69, 0
2, 30233, Note_on_c, 0, 50, 0
2, 30272, Note_on_c, 0, 47, 65
2, 30283, Note_on_c, 0, 67, 72
2, 30314, Note_on_c, 0, 47, 0
2, 30318, Note_on_c, 0, 67, 0
2, 30359, Note_on_c, 0, 50, 70
2, 30367, Note_on_c, 0, 67, 75
2, 30425, Note_on_c, 0, 50, 0
2, 30437, Note_on_c, 0, 67, 0
2, 30451, Note_on_c, 0, 47, 60
2, 30464, Note_on_c, 0, 71, 80
2, 30521, Note_on_c, 0, 47, 0
2, 30545, Note_on_c, 0, 43, 69
2, 30558, Note_on_c, 0, 74, 85
2, 30560, Note_on_c, 0, 71, 0
2, 30604, Note_on_c, 0, 43, 0
2, 30638, Note_on_c, 0, 74, 0
2, 30646, Note_on_c, 0, 77, 85
2, 30651, Note_on_c, 0, 47, 69
2, 30709, Note_on_c, 0, 47, 0
2, 30725, Note_on_c, 0, 43, 73
2, 30743, Note_on_c, 0, 76, 85
2, 30743, Note_on_c, 0, 77, 0
2, 30817, Note_on_c, 0, 43, 0
2, 30828, Note_on_c, 0, 41, 71
2, 30840, Note_on_c, 0, 74, 83
2, 30840, Note_on_c, 0, 76, 0
2, 30899, Note_on_c, 0, 74, 0
2, 30908, Note_on_c, 0, 41, 0
2, 30924, Note_on_c, 0, 40, 69
2, 30940, Note_on_c, 0, 74, 80
2, 31010, Note_on_c, 0, 43, 67
2, 31015, Note_on_c, 0, 40, 0
2, 31029, Note_on_c, 0, 74, 0
2, 31038, Note_on_c, 0, 76, 87
2, 31101, Note_on_c, 0, 43, 0
2, 31105, Note_on_c, 0, 47, 73
2, 31120, Note_on_c, 0, 77, 86
2, 31131, Note_on_c, 0, 76, 0
2, 31170, Note_on_c, 0, 47, 0
2, 31202, Note_on_c, 0, 48, 73
2, 31230, Note_on_c, 0, 76, 94
2, 31239, Note_on_c, 0, 77, 0
2, 31265, Note_on_c, 0, 48, 0
2, 31313, Note_on_c, 0, 52, 76
2, 31387, Note_on_c, 0, 52, 0
2, 31400, Note_on_c, 0, 55, 75
2, 31448, Note_on_c, 0, 76, 0
2, 31472, Note_on_c, 0, 55, 0
2, 31506, Note_on_c, 0, 60, 79
2, 31564, Note_on_c, 0, 60, 0
2, 31603, Note_on_c, 0, 55, 72
2, 31665, Note_on_c, 0, 55, 0
2, 31685, Note_on_c, 0, 52, 72
2, 31730, Note_on_c, 0, 52, 0
2, 31795, Note_on_c, 0, 55, 76
2, 31795, Note_on_c, 0, 76, 89
2, 31849, Note_on_c, 0, 76, 0
2, 31860, Note_on_c, 0, 55, 0
2, 31884, Note_on_c, 0, 52, 72
2, 31980, Note_on_c, 0, 52, 0
2, 32053, Note_on_c, 0, 50, 18
2, 32069, Note_on_c, 0, 49, 71
2, 32089, Note_on_c, 0, 76, 90
2, 32107, Note_on_c, 0, 50, 0
2, 32141, Note_on_c, 0, 49, 0
2, 32161, Note_on_c, 0, 52, 63
2, 32188, Note_on_c, 0, 74, 83
2, 32197, Note_on_c, 0, 76, 0
2, 32234, Note_on_c, 0, 52, 0
2, 32245, Note_on_c, 0, 74, 0
2, 32263, Note_on_c, 0, 55, 66
2, 32277, Note_on_c, 0, 73, 79
2, 32307, Note_on_c, 0, 73, 0
2, 32315, Note_on_c, 0, 55, 0
2, 32343, Note_on_c, 0, 57, 79
2, 32369, Note_on_c, 0, 73, 87
2, 32406, Note_on_c, 0, 57, 0
2, 32426, Note_on_c, 0, 73, 0
2, 32467, Note_on_c, 0, 52, 62
2, 32472, Note_on_c, 0, 71, 71
2, 32481, Note_on_c, 0, 72, 60
2, 32507, Note_on_c, 0, 72, 0
2, 32517, Note_on_c, 0, 71, 0
2, 32533, Note_on_c, 0, 52, 0
2, 32538, Note_on_c, 0, 49, 71
2, 32551, Note_on_c, 0, 69, 74
2, 32586, Note_on_c, 0, 49, 0
2, 32592, Note_on_c, 0, 69, 0
2, 32640, Note_on_c, 0, 69, 70
2, 32645, Note_on_c, 0, 52, 75
2, 32708, Note_on_c, 0, 69, 0
2, 32719, Note_on_c, 0, 52, 0
2, 32728, Note_on_c, 0, 49, 71
2, 32744, Note_on_c, 0, 73, 73
2, 32771, Note_on_c, 0, 72, 66
2, 32771, Note_on_c, 0, 73, 0
2, 32800, Note_on_c, 0, 72, 0
2, 32804, Note_on_c, 0, 49, 0
2, 32813, Note_on_c, 0, 45, 68
2, 32829, Note_on_c, 0, 75, 81
2, 32869, Note_on_c, 0, 76, 76
2, 32882, Note_on_c, 0, 45, 0
2, 32928, Note_on_c, 0, 79, 87
2, 32932, Note_on_c, 0, 49, 66
2, 32932, Note_on_c, 0, 76, 0
2, 32939, Note_on_c, 0, 75, 0
2, 32996, Note_on_c, 0, 49, 0
2, 33010, Note_on_c, 0, 45, 69
2, 33028, Note_on_c, 0, 78, 89
2, 33044, Note_on_c, 0, 79, 0
2, 33112, Note_on_c, 0, 78, 0
2, 33116, Note_on_c, 0, 45, 0
2, 33131, Note_on_c, 0, 77, 61
2, 33140, Note_on_c, 0, 43, 72
2, 33151, Note_on_c, 0, 76, 65
2, 33174, Note_on_c, 0, 76, 0
2, 33179, Note_on_c, 0, 77, 0
2, 33237, Note_on_c, 0, 76, 93
2, 33259, Note_on_c, 0, 42, 76
2, 33282, Note_on_c, 0, 43, 0
2, 33294, Note_on_c, 0, 76, 0
2, 33323, Note_on_c, 0, 42, 0
2, 33336, Note_on_c, 0, 78, 86
2, 33345, Note_on_c, 0, 45, 62
2, 33412, Note_on_c, 0, 45, 0
2, 33418, Note_on_c, 0, 79, 84
2, 33428, Note_on_c, 0, 49, 73
2, 33432, Note_on_c, 0, 78, 0
2, 33494, Note_on_c, 0, 49, 0
2, 33517, Note_on_c, 0, 50, 73
2, 33537, Note_on_c, 0, 78, 95
2, 33555, Note_on_c, 0, 79, 0
2, 33566, Note_on_c, 0, 50, 0
2, 33632, Note_on_c, 0, 54, 72
2, 33717, Note_on_c, 0, 57, 85
2, 33728, Note_on_c, 0, 54, 0
2, 33777, Note_on_c, 0, 78, 0
2, 33800, Note_on_c, 0, 57, 0
2, 33826, Note_on_c, 0, 62, 87
2, 33892, Note_on_c, 0, 62, 0
2, 33920, Note_on_c, 0, 57, 77
2, 34006, Note_on_c, 0, 57, 0
2, 34016, Note_on_c, 0, 54, 72
2, 34060, Note_on_c, 0, 54, 0
2, 34099, Note_on_c, 0, 81, 91
2, 34116, Note_on_c, 0, 57, 72
2, 34157, Note_on_c, 0, 81, 0
2, 34186, Note_on_c, 0, 57, 0
2, 34201, Note_on_c, 0, 54, 68
2, 34257, Note_on_c, 0, 54, 0
2, 34297, Note_on_c, 0, 50, 64
2, 34349, Note_on_c, 0, 50, 0
2, 34391, Note_on_c, 0, 54, 73
2, 34391, Note_on_c, 0, 81, 88
2, 34447, Note_on_c, 0, 81, 0
2, 34462, Note_on_c, 0, 54, 0
2, 34471, Note_on_c, 0, 50, 68
2, 34496, Note_on_c, 0, 79, 80
2, 34570, Note_on_c, 0, 50, 0
2, 34570, Note_on_c, 0, 79, 0
2, 34587, Note_on_c, 0, 78, 69
2, 34599, Note_on_c, 0, 45, 57
2, 34623, Note_on_c, 0, 78, 0
2, 34640, Note_on_c, 0, 45, 0
2, 34676, Note_on_c, 0, 78, 90
2, 34699, Note_on_c, 0, 50, 72
2, 34724, Note_on_c, 0, 78, 0
2, 34753, Note_on_c, 0, 50, 0
2, 34757, Note_on_c, 0, 76, 86
2, 34783, Note_on_c, 0, 45, 62
2, 34825, Note_on_c, 0, 76, 0
2, 34857, Note_on_c, 0, 74, 82
2, 34864, Note_on_c, 0, 45, 0
2, 34877, Note_on_c, 0, 42, 71
2, 34914, Note_on_c, 0, 74, 0
2, 34951, Note_on_c, 0, 38, 70
2, 34955, Note_on_c, 0, 42, 0
2, 34960, Note_on_c, 0, 74, 76
2, 34988, Note_on_c, 0, 38, 0
2, 35016, Note_on_c, 0, 74, 0
2, 35061, Note_on_c, 0, 78, 87
2, 35143, Note_on_c, 0, 78, 0
2, 35154, Note_on_c, 0, 81, 86
2, 35250, Note_on_c, 0, 84, 88
2, 35254, Note_on_c, 0, 81, 0
2, 35263, Note_on_c, 0, 50, 72
2, 35316, Note_on_c, 0, 50, 0
2, 35345, Note_on_c, 0, 84, 0
2, 35363, Note_on_c, 0, 83, 85
2, 35455, Note_on_c, 0, 81, 85
2, 35480, Note_on_c, 0, 83, 0
2, 35525, Note_on_c, 0, 81, 0
2, 35574, Note_on_c, 0, 43, 65
2, 35581, Note_on_c, 0, 81, 78
2, 35683, Note_on_c, 0, 81, 0
2, 35690, Note_on_c, 0, 83, 83
2, 35775, Note_on_c, 0, 84, 80
2, 35793, Note_on_c, 0, 83, 0
2, 35892, Note_on_c, 0, 83, 90
2, 35897, Note_on_c, 0, 84, 0
2, 35950, Note_on_c, 0, 43, 0
2, 35998, Note_on_c, 0, 47, 68
2, 36057, Note_on_c, 0, 47, 0
2, 36102, Note_on_c, 0, 50, 70
2, 36136, Note_on_c, 0, 50, 0
2, 36194, Note_on_c, 0, 55, 74
2, 36250, Note_on_c, 0, 55, 0
2, 36294, Note_on_c, 0, 57, 75
2, 36294, Note_on_c, 0, 83, 0
2, 36304, Note_on_c, 0, 81, 69
2, 36346, Note_on_c, 0, 57, 0
2, 36369, Note_on_c, 0, 59, 79
2, 36386, Note_on_c, 0, 81, 0
2, 36399, Note_on_c, 0, 79, 81
2, 36404, Note_on_c, 0, 59, 0
2, 36448, Note_on_c, 0, 79, 0
2, 36501, Note_on_c, 0, 59, 81
2, 36505, Note_on_c, 0, 77, 89
2, 36578, Note_on_c, 0, 77, 0
2, 36591, Note_on_c, 0, 59, 0
2, 36591, Note_on_c, 0, 60, 75
2, 36596, Note_on_c, 0, 76, 84
2, 36655, Note_on_c, 0, 76, 0
2, 36678, Note_on_c, 0, 62, 83
2, 36687, Note_on_c, 0, 60, 0
2, 36699, Note_on_c, 0, 74, 79
2, 36739, Note_on_c, 0, 62, 0
2, 36761, Note_on_c, 0, 74, 0
2, 36788, Note_on_c, 0, 72, 87
2, 36797, Note_on_c, 0, 64, 84
2, 36851, Note_on_c, 0, 64, 0
2, 36858, Note_on_c, 0, 72, 0
2, 36893, Note_on_c, 0, 76, 83
2, 36967, Note_on_c, 0, 76, 0
2, 36992, Note_on_c, 0, 79, 85
2, 37088, Note_on_c, 0, 60, 69
2, 37088, Note_on_c, 0, 79, 0
2, 37088, Note_on_c, 0, 81, 80
2, 37157, Note_on_c, 0, 60, 0
2, 37168, Note_on_c, 0, 57, 72
2, 37186, Note_on_c, 0, 78, 84
2, 37195, Note_on_c, 0, 81, 0
2, 37267, Note_on_c, 0, 78, 0
2, 37276, Note_on_c, 0, 57, 0
2, 37282, Note_on_c, 0, 74, 80
2, 37291, Note_on_c, 0, 54, 71
2, 37342, Note_on_c, 0, 54, 0
2, 37360, Note_on_c, 0, 74, 0
2, 37376, Note_on_c, 0, 71, 82
2, 37387, Note_on_c, 0, 62, 78
2, 37432, Note_on_c, 0, 62, 0
2, 37446, Note_on_c, 0, 71, 0
2, 37482, Note_on_c, 0, 74, 78
2, 37562, Note_on_c, 0, 74, 0
2, 37574, Note_on_c, 0, 78, 86
2, 37667, Note_on_c, 0, 78, 0
2, 37673, Note_on_c, 0, 79, 85
2, 37689, Note_on_c, 0, 59, 73
2, 37741, Note_on_c, 0, 59, 0
2, 37777, Note_on_c, 0, 76, 74
2, 37790, Note_on_c, 0, 55, 64
2, 37790, Note_on_c, 0, 79, 0
2, 37850, Note_on_c, 0, 76, 0
2, 37859, Note_on_c, 0, 55, 0
2, 37871, Note_on_c, 0, 72, 80
2, 37884, Note_on_c, 0, 52, 66
2, 37939, Note_on_c, 0, 52, 0
2, 37946, Note_on_c, 0, 72, 0
2, 37975, Note_on_c, 0, 69, 78
2, 37980, Note_on_c, 0, 60, 76
2, 38027, Note_on_c, 0, 60, 0
2, 38060, Note_on_c, 0, 69, 0
2, 38082, Note_on_c, 0, 72, 80
2, 38159, Note_on_c, 0, 72, 0
2, 38195, Note_on_c, 0, 76, 67
2, 38284, Note_on_c, 0, 57, 64
2, 38289, Note_on_c, 0, 78, 81
2, 38329, Note_on_c, 0, 76, 0
2, 38340, Note_on_c, 0, 57, 0
2, 38366, Note_on_c, 0, 78, 0
2, 38384, Note_on_c, 0, 54, 64
2, 38392, Note_on_c, 0, 74, 69
2, 38443, Note_on_c, 0, 54, 0
2, 38468, Note_on_c, 0, 74, 0
2, 38484, Note_on_c, 0, 50, 63
2, 38489, Note_on_c, 0, 71, 75
2, 38540, Note_on_c, 0, 50, 0
2, 38555, Note_on_c, 0, 71, 0
2, 38580, Note_on_c, 0, 59, 69
2, 38583, Note_on_c, 0, 67, 75
2, 38631, Note_on_c, 0, 59, 0
2, 38654, Note_on_c, 0, 67, 0
2, 38684, Note_on_c, 0, 71, 77
2, 38760, Note_on_c, 0, 71, 0
2, 38784, Note_on_c, 0, 74, 72
2, 38868, Note_on_c, 0, 55, 60
2, 38877, Note_on_c, 0, 76, 76
2, 38883, Note_on_c, 0, 74, 0
2, 38914, Note_on_c, 0, 55, 0
2, 38968, Note_on_c, 0, 52, 61
2, 38975, Note_on_c, 0, 72, 65
2, 38975, Note_on_c, 0, 76, 0
2, 39022, Note_on_c, 0, 52, 0
2, 39045, Note_on_c, 0, 72, 0
2, 39068, Note_on_c, 0, 48, 54
2, 39068, Note_on_c, 0, 69, 64
2, 39120, Note_on_c, 0, 48, 0
2, 39125, Note_on_c, 0, 69, 0
2, 39158, Note_on_c, 0, 57, 68
2, 39166, Note_on_c, 0, 66, 73
2, 39208, Note_on_c, 0, 57, 0
2, 39214, Note_on_c, 0, 66, 0
2, 39261, Note_on_c, 0, 69, 65
2, 39343, Note_on_c, 0, 69, 0
2, 39354, Note_on_c, 0, 72, 74
2, 39439, Note_on_c, 0, 54, 61
2, 39461, Note_on_c, 0, 74, 69
2, 39466, Note_on_c, 0, 72, 0
2, 39497, Note_on_c, 0, 54, 0
2, 39541, Note_on_c, 0, 74, 0
2, 39552, Note_on_c, 0, 50, 60
2, 39563, Note_on_c, 0, 71, 60
2, 39619, Note_on_c, 0, 50, 0
2, 39623, Note_on_c, 0, 71, 0
2, 39645, Note_on_c, 0, 67, 63
2, 39653, Note_on_c, 0, 47, 52
2, 39709, Note_on_c, 0, 47, 0
2, 39709, Note_on_c, 0, 67, 0
2, 39738, Note_on_c, 0, 64, 71
2, 39743, Note_on_c, 0, 55, 63
2, 39787, Note_on_c, 0, 55, 0
2, 39821, Note_on_c, 0, 64, 0
2, 39832, Note_on_c, 0, 67, 67
2, 39916, Note_on_c, 0, 67, 0
2, 39935, Note_on_c, 0, 71, 66
2, 40035, Note_on_c, 0, 52, 54
2, 40042, Note_on_c, 0, 71, 0
2, 40042, Note_on_c, 0, 72, 71
2, 40082, Note_on_c, 0, 52, 0
2, 40133, Note_on_c, 0, 48, 58
2, 40133, Note_on_c, 0, 72, 0
2, 40137, Note_on_c, 0, 69, 57
2, 40202, Note_on_c, 0, 48, 0
2, 40209, Note_on_c, 0, 69, 0
2, 40220, Note_on_c, 0, 45, 57
2, 40246, Note_on_c, 0, 66, 62
2, 40281, Note_on_c, 0, 45, 0
2, 40303, Note_on_c, 0, 66, 0
2, 40345, Note_on_c, 0, 54, 63
2, 40349, Note_on_c, 0, 62, 67
2, 40391, Note_on_c, 0, 54, 0
2, 40423, Note_on_c, 0, 62, 0
2, 40437, Note_on_c, 0, 66, 67
2, 40516, Note_on_c, 0, 66, 0
2, 40527, Note_on_c, 0, 69, 66
2, 40634, Note_on_c, 0, 71, 72
2, 40643, Note_on_c, 0, 69, 0
2, 40647, Note_on_c, 0, 50, 59
2, 40721, Note_on_c, 0, 50, 0
2, 40737, Note_on_c, 0, 67, 69
2, 40737, Note_on_c, 0, 71, 0
2, 40741, Note_on_c, 0, 47, 68
2, 40830, Note_on_c, 0, 47, 0
2, 40839, Note_on_c, 0, 67, 0
2, 40846, Note_on_c, 0, 43, 70
2, 40846, Note_on_c, 0, 64, 80
2, 40900, Note_on_c, 0, 43, 0
2, 40924, Note_on_c, 0, 64, 0
2, 40940, Note_on_c, 0, 52, 77
2, 40944, Note_on_c, 0, 60, 79
2, 41005, Note_on_c, 0, 52, 0
2, 41047, Note_on_c, 0, 60, 0
2, 41051, Note_on_c, 0, 48, 74
2, 41053, Note_on_c, 0, 64, 81
2, 41135, Note_on_c, 0, 48, 0
2, 41140, Note_on_c, 0, 45, 80
2, 41140, Note_on_c, 0, 64, 0
2, 41151, Note_on_c, 0, 67, 80
2, 41196, Note_on_c, 0, 45, 0
2, 41251, Note_on_c, 0, 69, 80
2, 41257, Note_on_c, 0, 67, 0
2, 41266, Note_on_c, 0, 54, 79
2, 41347, Note_on_c, 0, 54, 0
2, 41355, Note_on_c, 0, 66, 84
2, 41369, Note_on_c, 0, 69, 0
2, 41380, Note_on_c, 0, 50, 70
2, 41450, Note_on_c, 0, 47, 71
2, 41454, Note_on_c, 0, 66, 0
2, 41459, Note_on_c, 0, 50, 0
2, 41467, Note_on_c, 0, 62, 83
2, 41537, Note_on_c, 0, 47, 0
2, 41559, Note_on_c, 0, 62, 0
2, 41564, Note_on_c, 0, 59, 84
2, 41570, Note_on_c, 0, 55, 80
2, 41621, Note_on_c, 0, 55, 0
2, 41662, Note_on_c, 0, 59, 0
2, 41679, Note_on_c, 0, 62, 85
2, 41792, Note_on_c, 0, 66, 84
2, 41797, Note_on_c, 0, 62, 0
2, 41918, Note_on_c, 0, 67, 81
2, 41927, Note_on_c, 0, 52, 76
2, 41948, Note_on_c, 0, 66, 0
2, 42008, Note_on_c, 0, 52, 0
2, 42066, Note_on_c, 0, 64, 81
2, 42088, Note_on_c, 0, 67, 0
2, 42185, Note_on_c, 0, 64, 0
2, 42199, Note_on_c, 0, 60, 76
2, 42350, Note_on_c, 0, 57, 76
2, 42356, Note_on_c, 0, 48, 67
2, 42360, Note_on_c, 0, 60, 0
2, 42472, Note_on_c, 0, 48, 0
2, 42506, Note_on_c, 0, 60, 74
2, 42543, Note_on_c, 0, 57, 0
2, 42690, Note_on_c, 0, 64, 79
2, 42721, Note_on_c, 0, 60, 0
2, 42928, Note_on_c, 0, 66, 71
2, 42939, Note_on_c, 0, 50, 59
2, 42949, Note_on_c, 0, 64, 0
2, 43154, Note_on_c, 0, 50, 0
2, 43219, Note_on_c, 0, 62, 67
2, 43246, Note_on_c, 0, 66, 0
2, 43613, Note_on_c, 0, 60, 58
2, 43641, Note_on_c, 0, 62, 0
2, 44210, Note_on_c, 0, 62, 56
2, 44214, Note_on_c, 0, 60, 0
2, 44219, Note_on_c, 0, 43, 37
2, 44219, Note_on_c, 0, 67, 59
2, 44223, Note_on_c, 0, 59, 48
2, 44426, Control_c, 0, 64, 23
2, 44442, Control_c, 0, 64, 33
2, 44464, Control_c, 0, 64, 39
2, 44480, Control_c, 0, 64, 44
2, 44500, Control_c, 0, 64, 49
2, 44519, Control_c, 0, 64, 53
2, 44540, Control_c, 0, 64, 55
2, 44558, Control_c, 0, 64, 57
2, 44577, Control_c, 0, 64, 59
2, 44595, Control_c, 0, 64, 61
2, 44615, Control_c, 0, 64, 62
2, 44637, Control_c, 0, 64, 64
2, 44655, Control_c, 0, 64, 65
2, 44674, Control_c, 0, 64, 69
2, 44693, Control_c, 0, 64, 76
2, 44715, Control_c, 0, 64, 86
2, 44731, Control_c, 0, 64, 105
2, 44750, Control_c, 0, 64, 127
2, 45799, Note_on_c, 0, 62, 0
2, 45842, Note_on_c, 0, 59, 0
2, 45842, Note_on_c, 0, 67, 0
2, 45940, Note_on_c, 0, 43, 0
2, 46055, Control_c, 0, 64, 104
2, 46075, Control_c, 0, 64, 78
2, 46093, Control_c, 0, 64, 64
2, 46114, Control_c, 0, 64, 55
2, 46134, Control_c, 0, 64, 47
2, 46150, Control_c, 0, 64, 39
2, 46170, Control_c, 0, 64, 34
2, 46190, Control_c, 0, 64, 33
2, 46209, Control_c, 0, 64, 32
2, 46227, Control_c, 0, 64, 29
2, 46247, Control_c, 0, 64, 25
2, 46269, Control_c, 0, 64, 23
2, 46288, Control_c, 0, 64, 22
2, 46305, Control_c, 0, 64, 20
2, 46325, Control_c, 0, 64, 18
2, 46365, Control_c, 0, 64, 17
2, 46403, Control_c, 0, 64, 16
2, 46480, Control_c, 0, 64, 15
2, 46496, Control_c, 0, 64, 11
2, 46517, Control_c, 0, 64, 10
2, 46633, Control_c, 0, 64, 11
2, 46650, Control_c, 0, 64, 13
2, 46689, Control_c, 0, 64, 15
2, 46709, Control_c, 0, 64, 17
2, 46728, Control_c, 0, 64, 20
2, 46748, Control_c, 0, 64, 21
2, 46823, Control_c, 0, 64, 22
2, 47037, Control_c, 0, 64, 21
2, 47053, Control_c, 0, 64, 20
2, 47076, Control_c, 0, 64, 18
2, 47091, Control_c, 0, 64, 17
2, 47112, Control_c, 0, 64, 15
2, 47132, Control_c, 0, 64, 13
2, 47150, Control_c, 0, 64, 8
2, 47170, Control_c, 0, 64, 0
2, 47399, Control_c, 0, 64, 11
2, 47419, Control_c, 0, 64, 13
2, 48880, Control_c, 0, 64, 12
2, 48900, Control_c, 0, 64, 11
2, 48919, Control_c, 0, 64, 8
2, 48940, Control_c, 0, 64, 0
2, 49766, Note_on_c, 0, 67, 71
2, 49823, Note_on_c, 0, 67, 0
2, 50054, Note_on_c, 0, 69, 70
2, 50153, Note_on_c, 0, 69, 0
2, 50164, Note_on_c, 0, 67, 76
2, 50236, Note_on_c, 0, 67, 0
2, 50285, Note_on_c, 0, 66, 73
2, 50367, Note_on_c, 0, 66, 0
2, 50406, Note_on_c, 0, 67, 72
2, 50495, Note_on_c, 0, 67, 0
2, 50552, Note_on_c, 0, 69, 82
2, 50606, Note_on_c, 0, 69, 0
2, 50842, Note_on_c, 0, 71, 83
2, 50915, Note_on_c, 0, 71, 0
2, 50963, Note_on_c, 0, 69, 77
2, 51063, Note_on_c, 0, 69, 0
2, 51100, Note_on_c, 0, 67, 75
2, 51167, Note_on_c, 0, 67, 0
2, 51208, Note_on_c, 0, 69, 73
2, 51283, Note_on_c, 0, 69, 0
2, 51355, Note_on_c, 0, 71, 84
2, 51392, Note_on_c, 0, 71, 0
2, 51649, Note_on_c, 0, 69, 74
2, 51693, Note_on_c, 0, 69, 0
2, 51923, Note_on_c, 0, 67, 72
2, 51974, Note_on_c, 0, 67, 0
2, 52216, Note_on_c, 0, 62, 76
2, 52280, Note_on_c, 0, 62, 0
2, 52543, Note_on_c, 0, 72, 85
2, 52975, Note_on_c, 0, 72, 0
2, 53136, Note_on_c, 0, 71, 79
2, 53205, Note_on_c, 0, 71, 0
2, 53416, Note_on_c, 0, 69, 74
2, 53480, Note_on_c, 0, 69, 0
2, 53704, Note_on_c, 0, 67, 82
2, 53766, Note_on_c, 0, 67, 0
2, 53995, Note_on_c, 0, 66, 81
2, 54075, Note_on_c, 0, 66, 0
2, 54305, Note_on_c, 0, 76, 88
2, 54703, Note_on_c, 0, 76, 0
2, 54858, Note_on_c, 0, 74, 78
2, 54935, Note_on_c, 0, 74, 0
2, 55151, Note_on_c, 0, 76, 83
2, 55272, Note_on_c, 0, 74, 78
2, 55287, Note_on_c, 0, 76, 0
2, 55409, Note_on_c, 0, 72, 82
2, 55409, Note_on_c, 0, 74, 0
2, 55500, Note_on_c, 0, 72, 0
2, 55527, Note_on_c, 0, 71, 80
2, 55621, Note_on_c, 0, 71, 0
2, 55672, Note_on_c, 0, 69, 72
2, 55755, Note_on_c, 0, 69, 0
2, 55957, Note_on_c, 0, 72, 80
2, 56054, Note_on_c, 0, 72, 0
2, 56085, Note_on_c, 0, 71, 76
2, 56162, Note_on_c, 0, 71, 0
2, 56217, Note_on_c, 0, 69, 68
2, 56290, Note_on_c, 0, 69, 0
2, 56343, Note_on_c, 0, 67, 63
2, 56464, Note_on_c, 0, 67, 0
2, 56475, Note_on_c, 0, 62, 72
2, 56477, Note_on_c, 0, 66, 72
2, 56519, Note_on_c, 0, 62, 0
2, 56542, Note_on_c, 0, 66, 0
2, 56756, Note_on_c, 0, 64, 71
2, 56767, Note_on_c, 0, 67, 72
2, 56822, Note_on_c, 0, 67, 0
2, 56841, Note_on_c, 0, 64, 0
2, 56876, Note_on_c, 0, 62, 73
2, 56976, Note_on_c, 0, 62, 0
2, 57002, Note_on_c, 0, 61, 72
2, 57035, Note_on_c, 0, 69, 75
2, 57091, Note_on_c, 0, 69, 0
2, 57122, Note_on_c, 0, 62, 76
2, 57134, Note_on_c, 0, 61, 0
2, 57249, Note_on_c, 0, 62, 0
2, 57266, Note_on_c, 0, 67, 77
2, 57281, Note_on_c, 0, 64, 87
2, 57330, Note_on_c, 0, 67, 0
2, 57345, Note_on_c, 0, 64, 0
2, 57552, Note_on_c, 0, 66, 80
2, 57557, Note_on_c, 0, 69, 78
2, 57609, Note_on_c, 0, 69, 0
2, 57623, Note_on_c, 0, 66, 0
2, 57674, Note_on_c, 0, 64, 82
2, 57772, Note_on_c, 0, 64, 0
2, 57808, Note_on_c, 0, 62, 79
2, 57828, Note_on_c, 0, 71, 83
2, 57870, Note_on_c, 0, 71, 0
2, 57892, Note_on_c, 0, 62, 0
2, 57943, Note_on_c, 0, 64, 80
2, 58026, Note_on_c, 0, 64, 0
2, 58080, Note_on_c, 0, 69, 77
2, 58085, Note_on_c, 0, 66, 82
2, 58126, Note_on_c, 0, 66, 0
2, 58145, Note_on_c, 0, 69, 0
2, 58365, Note_on_c, 0, 64, 78
2, 58366, Note_on_c, 0, 71, 79
2, 58415, Note_on_c, 0, 64, 0
2, 58474, Note_on_c, 0, 71, 0
2, 58494, Note_on_c, 0, 73, 80
2, 58632, Note_on_c, 0, 74, 81
2, 58635, Note_on_c, 0, 62, 72
2, 58646, Note_on_c, 0, 73, 0
2, 58674, Note_on_c, 0, 62, 0
2, 58736, Note_on_c, 0, 74, 0
2, 58757, Note_on_c, 0, 71, 77
2, 58883, Note_on_c, 0, 71, 0
2, 58893, Note_on_c, 0, 57, 79
2, 58906, Note_on_c, 0, 73, 80
2, 58940, Note_on_c, 0, 57, 0
2, 59016, Note_on_c, 0, 73, 0
2, 59020, Note_on_c, 0, 71, 73
2, 59166, Note_on_c, 0, 67, 85
2, 59170, Note_on_c, 0, 71, 0
2, 59181, Note_on_c, 0, 73, 76
2, 59324, Note_on_c, 0, 73, 0
2, 59331, Note_on_c, 0, 74, 74
2, 59470, Note_on_c, 0, 74, 0
2, 59470, Note_on_c, 0, 76, 81
2, 59559, Note_on_c, 0, 67, 0
2, 59601, Note_on_c, 0, 73, 78
2, 59601, Note_on_c, 0, 76, 0
2, 59696, Note_on_c, 0, 73, 0
2, 59745, Note_on_c, 0, 66, 75
2, 59745, Note_on_c, 0, 74, 78
2, 59802, Note_on_c, 0, 66, 0
2, 59846, Note_on_c, 0, 74, 0
2, 59875, Note_on_c, 0, 73, 77
2, 59972, Note_on_c, 0, 73, 0
2, 60008, Note_on_c, 0, 74, 81
2, 60010, Note_on_c, 0, 64, 79
2, 60070, Note_on_c, 0, 64, 0
2, 60097, Note_on_c, 0, 74, 0
2, 60142, Note_on_c, 0, 76, 80
2, 60267, Note_on_c, 0, 76, 0
2, 60272, Note_on_c, 0, 62, 80
2, 60281, Note_on_c, 0, 78, 86
2, 60318, Note_on_c, 0, 62, 0
2, 60384, Note_on_c, 0, 78, 0
2, 60405, Note_on_c, 0, 74, 73
2, 60520, Note_on_c, 0, 74, 0
2, 60543, Note_on_c, 0, 61, 83
2, 60553, Note_on_c, 0, 76, 86
2, 60610, Note_on_c, 0, 61, 0
2, 60654, Note_on_c, 0, 76, 0
2, 60675, Note_on_c, 0, 74, 70
2, 60793, Note_on_c, 0, 74, 0
2, 60825, Note_on_c, 0, 71, 92
2, 60836, Note_on_c, 0, 76, 83
2, 60964, Note_on_c, 0, 78, 81
2, 60973, Note_on_c, 0, 76, 0
2, 61102, Note_on_c, 0, 79, 86
2, 61111, Note_on_c, 0, 78, 0
2, 61180, Note_on_c, 0, 71, 0
2, 61216, Note_on_c, 0, 79, 0
2, 61220, Note_on_c, 0, 76, 83
2, 61361, Note_on_c, 0, 69, 73
2, 61367, Note_on_c, 0, 78, 87
2, 61376, Note_on_c, 0, 76, 0
2, 61416, Note_on_c, 0, 69, 0
2, 61452, Note_on_c, 0, 78, 0
2, 61633, Note_on_c, 0, 71, 76
2, 61638, Note_on_c, 0, 79, 87
2, 61721, Note_on_c, 0, 71, 0
2, 61762, Note_on_c, 0, 78, 89
2, 61766, Note_on_c, 0, 69, 71
2, 61778, Note_on_c, 0, 79, 0
2, 61871, Note_on_c, 0, 69, 0
2, 61895, Note_on_c, 0, 67, 73
2, 61895, Note_on_c, 0, 76, 86
2, 61924, Note_on_c, 0, 78, 0
2, 61989, Note_on_c, 0, 67, 0
2, 62023, Note_on_c, 0, 66, 69
2, 62023, Note_on_c, 0, 74, 82
2, 62023, Note_on_c, 0, 76, 0
2, 62125, Note_on_c, 0, 66, 0
2, 62165, Note_on_c, 0, 64, 69
2, 62184, Note_on_c, 0, 79, 93
2, 62203, Note_on_c, 0, 74, 0
2, 62236, Note_on_c, 0, 64, 0
2, 62446, Note_on_c, 0, 67, 76
2, 62567, Note_on_c, 0, 67, 0
2, 62576, Note_on_c, 0, 66, 75
2, 62664, Note_on_c, 0, 66, 0
2, 62696, Note_on_c, 0, 64, 77
2, 62804, Note_on_c, 0, 64, 0
2, 62825, Note_on_c, 0, 62, 78
2, 62935, Note_on_c, 0, 62, 0
2, 62954, Note_on_c, 0, 61, 76
2, 63005, Note_on_c, 0, 61, 0
2, 63097, Note_on_c, 0, 78, 78
2, 63108, Note_on_c, 0, 79, 0
2, 63224, Note_on_c, 0, 78, 0
2, 63232, Note_on_c, 0, 67, 68
2, 63232, Note_on_c, 0, 76, 77
2, 63284, Note_on_c, 0, 67, 0
2, 63310, Note_on_c, 0, 76, 0
2, 63364, Note_on_c, 0, 79, 73
2, 63456, Note_on_c, 0, 79, 0
2, 63496, Note_on_c, 0, 66, 64
2, 63496, Note_on_c, 0, 74, 73
2, 63541, Note_on_c, 0, 66, 0
2, 63581, Note_on_c, 0, 74, 0
2, 63615, Note_on_c, 0, 79, 70
2, 63731, Note_on_c, 0, 79, 0
2, 63755, Note_on_c, 0, 64, 65
2, 63763, Note_on_c, 0, 73, 70
2, 63810, Note_on_c, 0, 64, 0
2, 63855, Note_on_c, 0, 73, 0
2, 63884, Note_on_c, 0, 79, 65
2, 63984, Note_on_c, 0, 79, 0
2, 64013, Note_on_c, 0, 71, 63
2, 64020, Note_on_c, 0, 62, 57
2, 64069, Note_on_c, 0, 62, 0
2, 64113, Note_on_c, 0, 71, 0
2, 64149, Note_on_c, 0, 79, 60
2, 64256, Note_on_c, 0, 79, 0
2, 64285, Note_on_c, 0, 61, 54
2, 64287, Note_on_c, 0, 69, 58
2, 64323, Note_on_c, 0, 61, 0
2, 64369, Note_on_c, 0, 69, 0
2, 64411, Note_on_c, 0, 79, 60
2, 64484, Note_on_c, 0, 79, 0
2, 64534, Note_on_c, 0, 62, 61
2, 64544, Note_on_c, 0, 78, 68
2, 64590, Note_on_c, 0, 78, 0
2, 64630, Note_on_c, 0, 62, 0
2, 64670, Note_on_c, 0, 64, 65
2, 64757, Note_on_c, 0, 64, 0
2, 64798, Note_on_c, 0, 66, 71
2, 64805, Note_on_c, 0, 74, 70
2, 64857, Note_on_c, 0, 74, 0
2, 64875, Note_on_c, 0, 66, 0
2, 64918, Note_on_c, 0, 62, 70
2, 65029, Note_on_c, 0, 62, 0
2, 65061, Note_on_c, 0, 67, 73
2, 65061, Note_on_c, 0, 76, 80
2, 65112, Note_on_c, 0, 76, 0
2, 65143, Note_on_c, 0, 67, 0
2, 65184, Note_on_c, 0, 62, 74
2, 65283, Note_on_c, 0, 62, 0
2, 65321, Note_on_c, 0, 69, 77
2, 65325, Note_on_c, 0, 78, 88
2, 65399, Note_on_c, 0, 78, 0
2, 65409, Note_on_c, 0, 69, 0
2, 65442, Note_on_c, 0, 62, 79
2, 65551, Note_on_c, 0, 62, 0
2, 65580, Note_on_c, 0, 71, 80
2, 65580, Note_on_c, 0, 79, 94
2, 65660, Note_on_c, 0, 79, 0
2, 65677, Note_on_c, 0, 71, 0
2, 65696, Note_on_c, 0, 62, 79
2, 65768, Note_on_c, 0, 62, 0
2, 65846, Note_on_c, 0, 81, 89
2, 65852, Note_on_c, 0, 72, 79
2, 65943, Note_on_c, 0, 72, 0
2, 65986, Note_on_c, 0, 62, 68
2, 66035, Note_on_c, 0, 62, 0
2, 66120, Note_on_c, 0, 71, 87
2, 66127, Note_on_c, 0, 55, 79
2, 66171, Note_on_c, 0, 81, 0
2, 66226, Note_on_c, 0, 55, 0
2, 66399, Note_on_c, 0, 57, 79
2, 66407, Note_on_c, 0, 74, 84
2, 66483, Note_on_c, 0, 57, 0
2, 66487, Note_on_c, 0, 74, 0
2, 66528, Note_on_c, 0, 55, 72
2, 66624, Note_on_c, 0, 55, 0
2, 66656, Note_on_c, 0, 54, 78
2, 66669, Note_on_c, 0, 79, 93
2, 66695, Note_on_c, 0, 71, 0
2, 66730, Note_on_c, 0, 54, 0
2, 66777, Note_on_c, 0, 55, 75
2, 66902, Note_on_c, 0, 55, 0
2, 66929, Note_on_c, 0, 57, 83
2, 66933, Note_on_c, 0, 72, 91
2, 66933, Note_on_c, 0, 79, 0
2, 67007, Note_on_c, 0, 57, 0
2, 67218, Note_on_c, 0, 59, 80
2, 67229, Note_on_c, 0, 78, 87
2, 67297, Note_on_c, 0, 59, 0
2, 67343, Note_on_c, 0, 57, 78
2, 67347, Note_on_c, 0, 78, 0
2, 67434, Note_on_c, 0, 57, 0
2, 67469, Note_on_c, 0, 55, 74
2, 67487, Note_on_c, 0, 76, 89
2, 67542, Note_on_c, 0, 76, 0
2, 67564, Note_on_c, 0, 55, 0
2, 67618, Note_on_c, 0, 57, 73
2, 67700, Note_on_c, 0, 57, 0
2, 67757, Note_on_c, 0, 59, 77
2, 67762, Note_on_c, 0, 74, 80
2, 67766, Note_on_c, 0, 72, 0
2, 67799, Note_on_c, 0, 59, 0
2, 67815, Note_on_c, 0, 74, 0
2, 68033, Note_on_c, 0, 57, 64
2, 68037, Note_on_c, 0, 66, 65
2, 68037, Note_on_c, 0, 72, 72
2, 68079, Note_on_c, 0, 57, 0
2, 68099, Note_on_c, 0, 66, 0
2, 68112, Note_on_c, 0, 72, 0
2, 68318, Note_on_c, 0, 55, 53
2, 68318, Note_on_c, 0, 71, 68
2, 68333, Note_on_c, 0, 67, 49
2, 68353, Note_on_c, 0, 55, 0
2, 68386, Note_on_c, 0, 71, 0
2, 68600, Note_on_c, 0, 50, 67
2, 68607, Note_on_c, 0, 69, 66
2, 68652, Note_on_c, 0, 50, 0
2, 68878, Note_on_c, 0, 60, 81
2, 68878, Note_on_c, 0, 67, 0
2, 68887, Note_on_c, 0, 69, 0
2, 68900, Note_on_c, 0, 66, 68
2, 68991, Note_on_c, 0, 66, 0
2, 69022, Note_on_c, 0, 67, 66
2, 69104, Note_on_c, 0, 67, 0
2, 69153, Note_on_c, 0, 69, 72
2, 69237, Note_on_c, 0, 60, 0
2, 69254, Note_on_c, 0, 69, 0
2, 69270, Note_on_c, 0, 66, 71
2, 69365, Note_on_c, 0, 66, 0
2, 69404, Note_on_c, 0, 59, 69
2, 69421, Note_on_c, 0, 67, 74
2, 69454, Note_on_c, 0, 59, 0
2, 69493, Note_on_c, 0, 67, 0
2, 69552, Note_on_c, 0, 66, 75
2, 69638, Note_on_c, 0, 66, 0
2, 69671, Note_on_c, 0, 57, 70
2, 69671, Note_on_c, 0, 67, 77
2, 69720, Note_on_c, 0, 57, 0
2, 69758, Note_on_c, 0, 67, 0
2, 69802, Note_on_c, 0, 69, 74
2, 69874, Note_on_c, 0, 69, 0
2, 69936, Note_on_c, 0, 55, 70
2, 69936, Note_on_c, 0, 74, 91
2, 69941, Note_on_c, 0, 71, 83
2, 69985, Note_on_c, 0, 55, 0
2, 70016, Note_on_c, 0, 71, 0
2, 70068, Note_on_c, 0, 67, 65
2, 70132, Note_on_c, 0, 67, 0
2, 70210, Note_on_c, 0, 69, 79
2, 70214, Note_on_c, 0, 54, 77
2, 70254, Note_on_c, 0, 54, 0
2, 70287, Note_on_c, 0, 69, 0
2, 70330, Note_on_c, 0, 67, 67
2, 70415, Note_on_c, 0, 67, 0
2, 70462, Note_on_c, 0, 64, 88
2, 70467, Note_on_c, 0, 74, 0
2, 70471, Note_on_c, 0, 69, 83
2, 70478, Note_on_c, 0, 72, 86
2, 70521, Note_on_c, 0, 69, 0
2, 70549, Note_on_c, 0, 72, 0
2, 70594, Note_on_c, 0, 71, 81
2, 70667, Note_on_c, 0, 71, 0
2, 70730, Note_on_c, 0, 81, 92
2, 70734, Note_on_c, 0, 72, 85
2, 70796, Note_on_c, 0, 64, 0
2, 70796, Note_on_c, 0, 72, 0
2, 70845, Note_on_c, 0, 69, 79
2, 70925, Note_on_c, 0, 69, 0
2, 70992, Note_on_c, 0, 71, 85
2, 70994, Note_on_c, 0, 62, 73
2, 71055, Control_c, 0, 64, 10
2, 71073, Control_c, 0, 64, 39
2, 71077, Note_on_c, 0, 62, 0
2, 71091, Control_c, 0, 64, 51
2, 71110, Control_c, 0, 64, 55
2, 71131, Control_c, 0, 64, 56
2, 71135, Note_on_c, 0, 71, 0
2, 71151, Control_c, 0, 64, 57
2, 71166, Note_on_c, 0, 81, 0
2, 71207, Control_c, 0, 64, 58
2, 71247, Control_c, 0, 64, 57
2, 71266, Control_c, 0, 64, 55
2, 71268, Note_on_c, 0, 64, 68
2, 71272, Note_on_c, 0, 72, 84
2, 71284, Control_c, 0, 64, 51
2, 71284, Note_on_c, 0, 79, 82
2, 71306, Control_c, 0, 64, 43
2, 71322, Control_c, 0, 64, 35
2, 71340, Control_c, 0, 64, 32
2, 71353, Note_on_c, 0, 64, 0
2, 71360, Control_c, 0, 64, 31
2, 71364, Note_on_c, 0, 72, 0
2, 71385, Note_on_c, 0, 71, 80
2, 71398, Note_on_c, 0, 62, 71
2, 71436, Control_c, 0, 64, 30
2, 71457, Control_c, 0, 64, 29
2, 71480, Note_on_c, 0, 71, 0
2, 71521, Note_on_c, 0, 62, 0
2, 71528, Note_on_c, 0, 60, 72
2, 71532, Note_on_c, 0, 69, 81
2, 71604, Note_on_c, 0, 69, 0
2, 71627, Note_on_c, 0, 60, 0
2, 71642, Note_on_c, 0, 67, 86
2, 71658, Note_on_c, 0, 59, 73
2, 71719, Note_on_c, 0, 67, 0
2, 71750, Note_on_c, 0, 59, 0
2, 71788, Note_on_c, 0, 72, 92
2, 71804, Note_on_c, 0, 57, 79
2, 71810, Note_on_c, 0, 79, 0
2, 71887, Note_on_c, 0, 57, 0
2, 72033, Control_c, 0, 64, 19
2, 72053, Control_c, 0, 64, 0
2, 72053, Note_on_c, 0, 60, 69
2, 72072, Note_on_c, 0, 81, 84
2, 72142, Note_on_c, 0, 60, 0
2, 72180, Note_on_c, 0, 59, 71
2, 72193, Note_on_c, 0, 79, 91
2, 72206, Note_on_c, 0, 81, 0
2, 72263, Note_on_c, 0, 59, 0
2, 72305, Note_on_c, 0, 79, 0
2, 72310, Note_on_c, 0, 57, 78
2, 72323, Note_on_c, 0, 78, 85
2, 72408, Note_on_c, 0, 57, 0
2, 72436, Note_on_c, 0, 76, 83
2, 72443, Note_on_c, 0, 78, 0
2, 72452, Note_on_c, 0, 55, 71
2, 72495, Note_on_c, 0, 76, 0
2, 72559, Note_on_c, 0, 55, 0
2, 72579, Note_on_c, 0, 54, 74
2, 72581, Note_on_c, 0, 72, 0
2, 72581, Note_on_c, 0, 74, 89
2, 72719, Note_on_c, 0, 71, 80
2, 72807, Note_on_c, 0, 54, 0
2, 72823, Note_on_c, 0, 71, 0
2, 72844, Note_on_c, 0, 69, 68
2, 72963, Note_on_c, 0, 69, 0
2, 72976, Note_on_c, 0, 72, 74
2, 73077, Note_on_c, 0, 72, 0
2, 73090, Note_on_c, 0, 52, 70
2, 73114, Note_on_c, 0, 67, 69
2, 73142, Note_on_c, 0, 52, 0
2, 73196, Note_on_c, 0, 67, 0
2, 73227, Note_on_c, 0, 72, 69
2, 73315, Note_on_c, 0, 72, 0
2, 73357, Note_on_c, 0, 50, 69
2, 73359, Note_on_c, 0, 66, 66
2, 73427, Note_on_c, 0, 50, 0
2, 73451, Note_on_c, 0, 66, 0
2, 73476, Note_on_c, 0, 72, 63
2, 73487, Note_on_c, 0, 52, 67
2, 73553, Note_on_c, 0, 52, 0
2, 73577, Note_on_c, 0, 72, 0
2, 73609, Note_on_c, 0, 50, 65
2, 73618, Note_on_c, 0, 64, 72
2, 73694, Note_on_c, 0, 50, 0
2, 73716, Note_on_c, 0, 64, 0
2, 73740, Note_on_c, 0, 48, 56
2, 73749, Note_on_c, 0, 72, 73
2, 73801, Note_on_c, 0, 48, 0
2, 73805, Note_on_c, 0, 74, 0
2, 73834, Note_on_c, 0, 72, 0
2, 73868, Note_on_c, 0, 47, 63
2, 73878, Note_on_c, 0, 62, 61
2, 73932, Note_on_c, 0, 47, 0
2, 73945, Note_on_c, 0, 62, 0
2, 73983, Note_on_c, 0, 72, 66
2, 74010, Note_on_c, 0, 45, 52
2, 74060, Note_on_c, 0, 72, 0
2, 74086, Note_on_c, 0, 45, 0
2, 74125, Note_on_c, 0, 71, 61
2, 74138, Note_on_c, 0, 43, 58
2, 74175, Note_on_c, 0, 71, 0
2, 74214, Note_on_c, 0, 43, 0
2, 74269, Note_on_c, 0, 45, 52
2, 74342, Note_on_c, 0, 45, 0
2, 74378, Note_on_c, 0, 74, 72
2, 74386, Note_on_c, 0, 47, 62
2, 74400, Note_on_c, 0, 65, 50
2, 74433, Note_on_c, 0, 74, 0
2, 74437, Note_on_c, 0, 65, 0
2, 74448, Note_on_c, 0, 47, 0
2, 74514, Note_on_c, 0, 43, 63
2, 74621, Note_on_c, 0, 43, 0
2, 74644, Note_on_c, 0, 48, 69
2, 74655, Note_on_c, 0, 72, 79
2, 74677, Note_on_c, 0, 64, 55
2, 74712, Note_on_c, 0, 64, 0
2, 74712, Note_on_c, 0, 72, 0
2, 74714, Note_on_c, 0, 48, 0
2, 74765, Note_on_c, 0, 43, 67
2, 74876, Note_on_c, 0, 43, 0
2, 74909, Note_on_c, 0, 50, 76
2, 74914, Note_on_c, 0, 71, 76
2, 74927, Note_on_c, 0, 62, 59
2, 74969, Note_on_c, 0, 62, 0
2, 74969, Note_on_c, 0, 71, 0
2, 74980, Note_on_c, 0, 50, 0
2, 75038, Note_on_c, 0, 43, 64
2, 75109, Note_on_c, 0, 43, 0
2, 75184, Note_on_c, 0, 52, 70
2, 75184, Note_on_c, 0, 69, 63
2, 75196, Note_on_c, 0, 60, 55
2, 75228, Note_on_c, 0, 69, 0
2, 75232, Note_on_c, 0, 60, 0
2, 75250, Note_on_c, 0, 52, 0
2, 75304, Note_on_c, 0, 43, 57
2, 75385, Note_on_c, 0, 43, 0
2, 75454, Note_on_c, 0, 67, 62
2, 75462, Note_on_c, 0, 53, 57
2, 75466, Note_on_c, 0, 59, 49
2, 75499, Note_on_c, 0, 59, 0
2, 75508, Note_on_c, 0, 53, 0
2, 75508, Note_on_c, 0, 67, 0
2, 75586, Note_on_c, 0, 43, 44
2, 75722, Note_on_c, 0, 43, 0
2, 75726, Note_on_c, 0, 72, 71
2, 75740, Note_on_c, 0, 52, 53
2, 75857, Note_on_c, 0, 52, 0
2, 75862, Note_on_c, 0, 74, 76
2, 75873, Note_on_c, 0, 50, 58
2, 75883, Note_on_c, 0, 72, 0
2, 75976, Note_on_c, 0, 50, 0
2, 75996, Note_on_c, 0, 48, 60
2, 76015, Note_on_c, 0, 76, 82
2, 76027, Note_on_c, 0, 74, 0
2, 76077, Note_on_c, 0, 48, 0
2, 76140, Note_on_c, 0, 52, 62
2, 76254, Note_on_c, 0, 52, 0
2, 76285, Note_on_c, 0, 47, 60
2, 76285, Note_on_c, 0, 67, 63
2, 76338, Note_on_c, 0, 67, 0
2, 76344, Note_on_c, 0, 47, 0
2, 76416, Note_on_c, 0, 52, 51
2, 76560, Note_on_c, 0, 52, 0
2, 76574, Note_on_c, 0, 45, 52
2, 76594, Note_on_c, 0, 66, 59
2, 76617, Note_on_c, 0, 76, 0
2, 76686, Note_on_c, 0, 45, 0
2, 76728, Note_on_c, 0, 52, 51
2, 76756, Note_on_c, 0, 74, 66
2, 76872, Note_on_c, 0, 43, 55
2, 76877, Note_on_c, 0, 52, 0
2, 76877, Note_on_c, 0, 72, 76
2, 76906, Note_on_c, 0, 74, 0
2, 76976, Note_on_c, 0, 43, 0
2, 77009, Note_on_c, 0, 71, 68
2, 77009, Note_on_c, 0, 72, 0
2, 77020, Note_on_c, 0, 52, 58
2, 77135, Note_on_c, 0, 52, 0
2, 77141, Note_on_c, 0, 42, 63
2, 77148, Note_on_c, 0, 69, 68
2, 77150, Note_on_c, 0, 71, 0
2, 77255, Note_on_c, 0, 42, 0
2, 77284, Note_on_c, 0, 72, 72
2, 77288, Note_on_c, 0, 52, 52
2, 77301, Note_on_c, 0, 69, 0
2, 77346, Note_on_c, 0, 66, 0
2, 77370, Note_on_c, 0, 52, 0
2, 77399, Note_on_c, 0, 72, 0
2, 77408, Note_on_c, 0, 50, 60
2, 77417, Note_on_c, 0, 71, 74
2, 77523, Note_on_c, 0, 50, 0
2, 77543, Note_on_c, 0, 71, 0
2, 77545, Note_on_c, 0, 72, 73
2, 77552, Note_on_c, 0, 48, 55
2, 77632, Note_on_c, 0, 48, 0
2, 77663, Note_on_c, 0, 72, 0
2, 77681, Note_on_c, 0, 74, 67
2, 77695, Note_on_c, 0, 47, 55
2, 77755, Note_on_c, 0, 47, 0
2, 77818, Note_on_c, 0, 50, 53
2, 77933, Note_on_c, 0, 66, 66
2, 77938, Note_on_c, 0, 50, 0
2, 77953, Note_on_c, 0, 45, 54
2, 78009, Note_on_c, 0, 45, 0
2, 78019, Note_on_c, 0, 66, 0
2, 78097, Note_on_c, 0, 50, 46
2, 78209, Note_on_c, 0, 50, 0
2, 78209, Note_on_c, 0, 74, 0
2, 78218, Note_on_c, 0, 64, 60
2, 78222, Note_on_c, 0, 43, 52
2, 78306, Note_on_c, 0, 43, 0
2, 78354, Note_on_c, 0, 72, 64
2, 78367, Note_on_c, 0, 50, 51
2, 78465, Note_on_c, 0, 72, 0
2, 78487, Note_on_c, 0, 71, 72
2, 78491, Note_on_c, 0, 50, 0
2, 78495, Note_on_c, 0, 42, 60
2, 78587, Note_on_c, 0, 42, 0
2, 78607, Note_on_c, 0, 71, 0
2, 78613, Note_on_c, 0, 69, 70
2, 78649, Note_on_c, 0, 50, 53
2, 78718, Note_on_c, 0, 50, 0
2, 78756, Note_on_c, 0, 67, 69
2, 78756, Note_on_c, 0, 69, 0
2, 78760, Note_on_c, 0, 40, 51
2, 78806, Note_on_c, 0, 40, 0
2, 78864, Note_on_c, 0, 50, 53
2, 78879, Note_on_c, 0, 67, 0
2, 78887, Note_on_c, 0, 71, 67
2, 78941, Note_on_c, 0, 50, 0
2, 78986, Note_on_c, 0, 71, 0
2, 79012, Note_on_c, 0, 48, 56
2, 79021, Note_on_c, 0, 69, 62
2, 79052, Note_on_c, 0, 64, 0
2, 79099, Note_on_c, 0, 48, 0
2, 79119, Note_on_c, 0, 69, 0
2, 79139, Note_on_c, 0, 71, 65
2, 79170, Note_on_c, 0, 47, 45
2, 79229, Note_on_c, 0, 47, 0
2, 79251, Note_on_c, 0, 71, 0
2, 79284, Note_on_c, 0, 72, 63
2, 79306, Note_on_c, 0, 45, 46
2, 79353, Note_on_c, 0, 45, 0
2, 79424, Note_on_c, 0, 48, 47
2, 79518, Note_on_c, 0, 48, 0
2, 79534, Note_on_c, 0, 64, 59
2, 79553, Note_on_c, 0, 43, 50
2, 79584, Note_on_c, 0, 64, 0
2, 79598, Note_on_c, 0, 43, 0
2, 79670, Note_on_c, 0, 48, 40
2, 79767, Note_on_c, 0, 48, 0
2, 79809, Note_on_c, 0, 42, 55
2, 79825, Note_on_c, 0, 62, 60
2, 79825, Note_on_c, 0, 72, 0
2, 79872, Note_on_c, 0, 42, 0
2, 79935, Note_on_c, 0, 48, 42
2, 79964, Note_on_c, 0, 71, 60
2, 80021, Note_on_c, 0, 71, 0
2, 80053, Note_on_c, 0, 48, 0
2, 80089, Note_on_c, 0, 40, 52
2, 80089, Note_on_c, 0, 69, 64
2, 80144, Note_on_c, 0, 40, 0
2, 80198, Note_on_c, 0, 69, 0
2, 80210, Note_on_c, 0, 48, 54
2, 80223, Note_on_c, 0, 67, 71
2, 80323, Note_on_c, 0, 48, 0
2, 80332, Note_on_c, 0, 67, 0
2, 80354, Note_on_c, 0, 38, 60
2, 80359, Note_on_c, 0, 66, 75
2, 80403, Note_on_c, 0, 62, 0
2, 80418, Note_on_c, 0, 38, 0
2, 80455, Note_on_c, 0, 66, 0
2, 80475, Note_on_c, 0, 48, 55
2, 80482, Note_on_c, 0, 69, 69
2, 80533, Note_on_c, 0, 48, 0
2, 80565, Note_on_c, 0, 69, 0
2, 80613, Note_on_c, 0, 47, 76
2, 80617, Note_on_c, 0, 67, 84
2, 80630, Note_on_c, 0, 62, 78
2, 80660, Note_on_c, 0, 47, 0
2, 80673, Note_on_c, 0, 62, 0
2, 80677, Note_on_c, 0, 67, 0
2, 80728, Note_on_c, 0, 69, 74
2, 80826, Note_on_c, 0, 69, 0
2, 80878, Note_on_c, 0, 71, 83
2, 80882, Note_on_c, 0, 45, 71
2, 80886, Note_on_c, 0, 60, 81
2, 80926, Note_on_c, 0, 45, 0
2, 80942, Note_on_c, 0, 60, 0
2, 80997, Note_on_c, 0, 62, 84
2, 81087, Note_on_c, 0, 62, 0
2, 81137, Note_on_c, 0, 64, 90
2, 81150, Note_on_c, 0, 43, 74
2, 81195, Note_on_c, 0, 43, 0
2, 81213, Note_on_c, 0, 64, 0
2, 81254, Note_on_c, 0, 62, 85
2, 81272, Note_on_c, 0, 71, 0
2, 81335, Note_on_c, 0, 62, 0
2, 81402, Note_on_c, 0, 60, 91
2, 81422, Note_on_c, 0, 45, 73
2, 81468, Note_on_c, 0, 60, 0
2, 81472, Note_on_c, 0, 45, 0
2, 81679, Note_on_c, 0, 64, 89
2, 81684, Note_on_c, 0, 43, 72
2, 81690, Note_on_c, 0, 59, 81
2, 81733, Note_on_c, 0, 59, 0
2, 81739, Note_on_c, 0, 43, 0
2, 81806, Note_on_c, 0, 60, 84
2, 81832, Note_on_c, 0, 64, 0
2, 81885, Note_on_c, 0, 60, 0
2, 81929, Note_on_c, 0, 69, 81
2, 81942, Note_on_c, 0, 62, 72
2, 81944, Note_on_c, 0, 42, 70
2, 81976, Note_on_c, 0, 62, 0
2, 81980, Note_on_c, 0, 42, 0
2, 82052, Note_on_c, 0, 60, 80
2, 82104, Note_on_c, 0, 60, 0
2, 82184, Note_on_c, 0, 59, 82
2, 82197, Note_on_c, 0, 43, 70
2, 82202, Note_on_c, 0, 69, 0
2, 82238, Note_on_c, 0, 59, 0
2, 82256, Note_on_c, 0, 43, 0
2, 82304, Note_on_c, 0, 67, 72
2, 82322, Note_on_c, 0, 55, 67
2, 82335, Note_on_c, 0, 67, 0
2, 82383, Note_on_c, 0, 55, 0
2, 82443, Note_on_c, 0, 53, 75
2, 82459, Note_on_c, 0, 60, 78
2, 82459, Note_on_c, 0, 69, 81
2, 82492, Note_on_c, 0, 60, 0
2, 82510, Note_on_c, 0, 69, 0
2, 82519, Note_on_c, 0, 53, 0
2, 82580, Note_on_c, 0, 52, 70
2, 82643, Note_on_c, 0, 52, 0
2, 82709, Note_on_c, 0, 50, 70
2, 82711, Note_on_c, 0, 62, 89
2, 82713, Note_on_c, 0, 71, 91
2, 82754, Note_on_c, 0, 62, 0
2, 82781, Note_on_c, 0, 71, 0
2, 82808, Note_on_c, 0, 50, 0
2, 82854, Note_on_c, 0, 53, 67
2, 82914, Note_on_c, 0, 53, 0
2, 82983, Note_on_c, 0, 52, 81
2, 82983, Note_on_c, 0, 72, 85
2, 82987, Note_on_c, 0, 67, 69
2, 82999, Note_on_c, 0, 69, 57
2, 83026, Note_on_c, 0, 69, 0
2, 83039, Note_on_c, 0, 67, 0
2, 83050, Note_on_c, 0, 52, 0
2, 83092, Note_on_c, 0, 74, 78
2, 83097, Note_on_c, 0, 72, 0
2, 83110, Note_on_c, 0, 53, 72
2, 83177, Note_on_c, 0, 53, 0
2, 83177, Note_on_c, 0, 74, 0
2, 83226, Note_on_c, 0, 72, 86
2, 83242, Note_on_c, 0, 52, 82
2, 83248, Note_on_c, 0, 57, 81
2, 83306, Note_on_c, 0, 72, 0
2, 83313, Note_on_c, 0, 52, 0
2, 83359, Note_on_c, 0, 71, 78
2, 83374, Note_on_c, 0, 50, 75
2, 83440, Note_on_c, 0, 71, 0
2, 83451, Note_on_c, 0, 50, 0
2, 83496, Note_on_c, 0, 69, 71
2, 83509, Note_on_c, 0, 48, 69
2, 83572, Note_on_c, 0, 69, 0
2, 83597, Note_on_c, 0, 48, 0
2, 83623, Note_on_c, 0, 67, 65
2, 83643, Note_on_c, 0, 57, 0
2, 83645, Note_on_c, 0, 52, 64
2, 83685, Note_on_c, 0, 67, 0
2, 83705, Note_on_c, 0, 52, 0
2, 83757, Note_on_c, 0, 59, 83
2, 83757, Note_on_c, 0, 66, 76
2, 83774, Note_on_c, 0, 50, 69
2, 83800, Note_on_c, 0, 66, 0
2, 83813, Note_on_c, 0, 59, 0
2, 83824, Note_on_c, 0, 50, 0
2, 83829, Note_on_c, 0, 67, 64
2, 83887, Note_on_c, 0, 52, 69
2, 83901, Note_on_c, 0, 67, 0
2, 83914, Note_on_c, 0, 66, 72
2, 83951, Note_on_c, 0, 52, 0
2, 83974, Note_on_c, 0, 66, 0
2, 84017, Note_on_c, 0, 50, 79
2, 84022, Note_on_c, 0, 60, 84
2, 84074, Note_on_c, 0, 60, 0
2, 84092, Note_on_c, 0, 50, 0
2, 84116, Note_on_c, 0, 64, 72
2, 84145, Note_on_c, 0, 48, 69
2, 84203, Note_on_c, 0, 66, 78
2, 84216, Note_on_c, 0, 64, 0
2, 84227, Note_on_c, 0, 48, 0
2, 84258, Note_on_c, 0, 66, 0
2, 84288, Note_on_c, 0, 47, 79
2, 84288, Note_on_c, 0, 67, 92
2, 84294, Note_on_c, 0, 62, 88
2, 84345, Note_on_c, 0, 62, 0
2, 84362, Note_on_c, 0, 47, 0
2, 84418, Note_on_c, 0, 50, 70
2, 84500, Note_on_c, 0, 50, 0
2, 84508, Note_on_c, 0, 67, 0
2, 84551, Note_on_c, 0, 48, 82
2, 84551, Note_on_c, 0, 64, 88
2, 84623, Note_on_c, 0, 48, 0
2, 84640, Note_on_c, 0, 64, 0
2, 84660, Note_on_c, 0, 71, 82
2, 84682, Note_on_c, 0, 50, 71
2, 84746, Note_on_c, 0, 50, 0
2, 84750, Note_on_c, 0, 71, 0
2, 84799, Note_on_c, 0, 48, 81
2, 84799, Note_on_c, 0, 69, 84
2, 84809, Note_on_c, 0, 54, 77
2, 84869, Note_on_c, 0, 69, 0
2, 84905, Note_on_c, 0, 48, 0
2, 84928, Note_on_c, 0, 67, 80
2, 84933, Note_on_c, 0, 47, 70
2, 85008, Note_on_c, 0, 67, 0
2, 85047, Note_on_c, 0, 47, 0
2, 85056, Note_on_c, 0, 66, 74
2, 85068, Note_on_c, 0, 45, 65
2, 85139, Note_on_c, 0, 66, 0
2, 85150, Note_on_c, 0, 45, 0
2, 85180, Note_on_c, 0, 54, 0
2, 85180, Note_on_c, 0, 64, 61
2, 85184, Note_on_c, 0, 48, 66
2, 85223, Note_on_c, 0, 64, 0
2, 85284, Note_on_c, 0, 48, 0
2, 85316, Note_on_c, 0, 55, 70
2, 85325, Note_on_c, 0, 62, 77
2, 85336, Note_on_c, 0, 47, 60
2, 85375, Note_on_c, 0, 55, 0
2, 85400, Note_on_c, 0, 47, 0
2, 85450, Note_on_c, 0, 48, 61
2, 85455, Note_on_c, 0, 62, 0
2, 85529, Note_on_c, 0, 48, 0
2, 85586, Note_on_c, 0, 55, 80
2, 85590, Note_on_c, 0, 47, 74
2, 85669, Note_on_c, 0, 55, 0
2, 85687, Note_on_c, 0, 47, 0
2, 85716, Note_on_c, 0, 57, 85
2, 85722, Note_on_c, 0, 45, 73
2, 85797, Note_on_c, 0, 57, 0
2, 85807, Note_on_c, 0, 45, 0
2, 85844, Note_on_c, 0, 59, 86
2, 85857, Note_on_c, 0, 43, 74
2, 85926, Note_on_c, 0, 59, 0
2, 85943, Note_on_c, 0, 43, 0
2, 85973, Note_on_c, 0, 61, 81
2, 85981, Note_on_c, 0, 45, 77
2, 86072, Note_on_c, 0, 45, 0
2, 86078, Note_on_c, 0, 61, 0
2, 86114, Note_on_c, 0, 62, 89
2, 86123, Note_on_c, 0, 47, 79
2, 86214, Note_on_c, 0, 62, 0
2, 86242, Note_on_c, 0, 49, 75
2, 86251, Note_on_c, 0, 47, 0
2, 86376, Note_on_c, 0, 50, 81
2, 86379, Note_on_c, 0, 49, 0
2, 86383, Note_on_c, 0, 59, 91
2, 86456, Note_on_c, 0, 50, 0
2, 86479, Note_on_c, 0, 59, 0
2, 86501, Note_on_c, 0, 52, 76
2, 86514, Note_on_c, 0, 61, 83
2, 86599, Note_on_c, 0, 61, 0
2, 86622, Note_on_c, 0, 52, 0
2, 86622, Note_on_c, 0, 54, 79
2, 86631, Note_on_c, 0, 62, 88
2, 86707, Note_on_c, 0, 54, 0
2, 86707, Note_on_c, 0, 62, 0
2, 86749, Note_on_c, 0, 64, 89
2, 86757, Note_on_c, 0, 55, 75
2, 86830, Note_on_c, 0, 55, 0
2, 86830, Note_on_c, 0, 64, 0
2, 86887, Note_on_c, 0, 69, 87
2, 86891, Note_on_c, 0, 54, 84
2, 86891, Note_on_c, 0, 66, 89
2, 86933, Note_on_c, 0, 54, 0
2, 86951, Note_on_c, 0, 66, 0
2, 86955, Note_on_c, 0, 69, 0
2, 87168, Note_on_c, 0, 59, 75
2, 87168, Note_on_c, 0, 67, 85
2, 87176, Note_on_c, 0, 64, 73
2, 87210, Note_on_c, 0, 59, 0
2, 87214, Note_on_c, 0, 64, 0
2, 87263, Note_on_c, 0, 67, 0
2, 87297, Note_on_c, 0, 69, 77
2, 87393, Note_on_c, 0, 69, 0
2, 87435, Note_on_c, 0, 47, 70
2, 87440, Note_on_c, 0, 71, 81
2, 87445, Note_on_c, 0, 63, 73
2, 87483, Note_on_c, 0, 47, 0
2, 87483, Note_on_c, 0, 63, 0
2, 87537, Note_on_c, 0, 69, 72
2, 87563, Note_on_c, 0, 71, 0
2, 87624, Note_on_c, 0, 69, 0
2, 87690, Note_on_c, 0, 67, 83
2, 87694, Note_on_c, 0, 52, 75
2, 87699, Note_on_c, 0, 64, 76
2, 87737, Note_on_c, 0, 52, 0
2, 87746, Note_on_c, 0, 64, 0
2, 87760, Note_on_c, 0, 67, 0
2, 87984, Note_on_c, 0, 57, 74
2, 87991, Note_on_c, 0, 66, 74
2, 88000, Note_on_c, 0, 62, 58
2, 88035, Note_on_c, 0, 57, 0
2, 88044, Note_on_c, 0, 62, 0
2, 88081, Note_on_c, 0, 66, 0
2, 88114, Note_on_c, 0, 67, 72
2, 88232, Note_on_c, 0, 67, 0
2, 88265, Note_on_c, 0, 45, 54
2, 88265, Note_on_c, 0, 69, 71
2, 88269, Note_on_c, 0, 61, 65
2, 88304, Note_on_c, 0, 45, 0
2, 88310, Note_on_c, 0, 61, 0
2, 88345, Note_on_c, 0, 69, 0
2, 88371, Note_on_c, 0, 67, 69
2, 88462, Note_on_c, 0, 67, 0
2, 88513, Note_on_c, 0, 50, 65
2, 88519, Note_on_c, 0, 66, 74
2, 88544, Note_on_c, 0, 62, 63
2, 88552, Note_on_c, 0, 50, 0
2, 88578, Note_on_c, 0, 66, 0
2, 88587, Note_on_c, 0, 62, 0
2, 88798, Note_on_c, 0, 52, 65
2, 88803, Note_on_c, 0, 67, 76
2, 88807, Note_on_c, 0, 61, 58
2, 88844, Note_on_c, 0, 61, 0
2, 88862, Note_on_c, 0, 52, 0
2, 88862, Note_on_c, 0, 67, 0
2, 88922, Note_on_c, 0, 59, 77
2, 89005, Note_on_c, 0, 59, 0
2, 89060, Note_on_c, 0, 54, 64
2, 89063, Note_on_c, 0, 57, 68
2, 89063, Note_on_c, 0, 69, 80
2, 89114, Note_on_c, 0, 69, 0
2, 89129, Note_on_c, 0, 57, 0
2, 89206, Note_on_c, 0, 60, 65
2, 89288, Note_on_c, 0, 60, 0
2, 89306, Note_on_c, 0, 74, 88
2, 89316, Note_on_c, 0, 59, 70
2, 89371, Note_on_c, 0, 74, 0
2, 89380, Note_on_c, 0, 54, 0
2, 89382, Note_on_c, 0, 59, 0
2, 89430, Note_on_c, 0, 60, 64
2, 89499, Note_on_c, 0, 60, 0
2, 89563, Note_on_c, 0, 64, 82
2, 89572, Note_on_c, 0, 55, 53
2, 89577, Note_on_c, 0, 57, 65
2, 89607, Note_on_c, 0, 64, 0
2, 89613, Note_on_c, 0, 66, 76
2, 89620, Note_on_c, 0, 57, 0
2, 89624, Note_on_c, 0, 55, 0
2, 89664, Note_on_c, 0, 66, 0
2, 89684, Note_on_c, 0, 64, 66
2, 89768, Note_on_c, 0, 66, 71
2, 89805, Note_on_c, 0, 49, 68
2, 89807, Note_on_c, 0, 66, 0
2, 89827, Note_on_c, 0, 55, 43
2, 89891, Note_on_c, 0, 66, 75
2, 89900, Note_on_c, 0, 64, 0
2, 89908, Note_on_c, 0, 49, 0
2, 89925, Note_on_c, 0, 55, 0
2, 89932, Note_on_c, 0, 66, 0
2, 89943, Note_on_c, 0, 62, 66
2, 89961, Note_on_c, 0, 59, 64
2, 89991, Note_on_c, 0, 62, 0
2, 90000, Note_on_c, 0, 64, 73
2, 90012, Note_on_c, 0, 59, 0
2, 90068, Note_on_c, 0, 50, 65
2, 90073, Note_on_c, 0, 57, 69
2, 90081, Note_on_c, 0, 66, 82
2, 90101, Note_on_c, 0, 64, 0
2, 90120, Note_on_c, 0, 66, 0
2, 90160, Note_on_c, 0, 57, 0
2, 90164, Note_on_c, 0, 50, 0
2, 90213, Note_on_c, 0, 59, 69
2, 90285, Note_on_c, 0, 59, 0
2, 90324, Note_on_c, 0, 57, 74
2, 90339, Note_on_c, 0, 67, 85
2, 90401, Note_on_c, 0, 67, 0
2, 90403, Note_on_c, 0, 57, 0
2, 90461, Note_on_c, 0, 55, 69
2, 90530, Note_on_c, 0, 55, 0
2, 90594, Note_on_c, 0, 54, 68
2, 90598, Note_on_c, 0, 69, 81
2, 90652, Note_on_c, 0, 54, 0
2, 90656, Note_on_c, 0, 69, 0
2, 90716, Note_on_c, 0, 57, 64
2, 90799, Note_on_c, 0, 57, 0
2, 90845, Note_on_c, 0, 55, 67
2, 90856, Note_on_c, 0, 71, 85
2, 90905, Note_on_c, 0, 71, 0
2, 90918, Note_on_c, 0, 55, 0
2, 90964, Note_on_c, 0, 57, 60
2, 91042, Note_on_c, 0, 57, 0
2, 91109, Note_on_c, 0, 55, 59
2, 91119, Note_on_c, 0, 61, 75
2, 91161, Note_on_c, 0, 61, 0
2, 91161, Note_on_c, 0, 62, 71
2, 91184, Note_on_c, 0, 55, 0
2, 91220, Note_on_c, 0, 54, 67
2, 91238, Note_on_c, 0, 62, 0
2, 91252, Note_on_c, 0, 61, 68
2, 91303, Note_on_c, 0, 61, 0
2, 91318, Note_on_c, 0, 62, 72
2, 91330, Note_on_c, 0, 54, 0
2, 91354, Note_on_c, 0, 52, 59
2, 91370, Note_on_c, 0, 62, 0
2, 91394, Note_on_c, 0, 61, 63
2, 91443, Note_on_c, 0, 61, 0
2, 91453, Note_on_c, 0, 52, 0
2, 91469, Note_on_c, 0, 59, 65
2, 91502, Note_on_c, 0, 55, 58
2, 91519, Note_on_c, 0, 59, 0
2, 91546, Note_on_c, 0, 61, 55
2, 91577, Note_on_c, 0, 55, 0
2, 91641, Note_on_c, 0, 61, 0
2, 91648, Note_on_c, 0, 62, 63
2, 91657, Note_on_c, 0, 54, 61
2, 91744, Note_on_c, 0, 54, 0
2, 91764, Note_on_c, 0, 62, 0
2, 91804, Note_on_c, 0, 55, 53
2, 91881, Note_on_c, 0, 55, 0
2, 91910, Note_on_c, 0, 62, 76
2, 91931, Note_on_c, 0, 54, 67
2, 91995, Note_on_c, 0, 62, 0
2, 92008, Note_on_c, 0, 54, 0
2, 92039, Note_on_c, 0, 64, 76
2, 92053, Note_on_c, 0, 52, 73
2, 92124, Note_on_c, 0, 64, 0
2, 92141, Note_on_c, 0, 52, 0
2, 92163, Note_on_c, 0, 66, 83
2, 92192, Note_on_c, 0, 50, 66
2, 92241, Note_on_c, 0, 66, 0
2, 92258, Note_on_c, 0, 50, 0
2, 92297, Note_on_c, 0, 52, 73
2, 92297, Note_on_c, 0, 67, 88
2, 92391, Note_on_c, 0, 52, 0
2, 92400, Note_on_c, 0, 67, 0
2, 92437, Note_on_c, 0, 54, 80
2, 92437, Note_on_c, 0, 69, 84
2, 92492, Note_on_c, 0, 69, 0
2, 92509, Note_on_c, 0, 54, 0
2, 92556, Note_on_c, 0, 55, 82
2, 92631, Note_on_c, 0, 55, 0
2, 92678, Note_on_c, 0, 57, 83
2, 92703, Note_on_c, 0, 66, 91
2, 92765, Note_on_c, 0, 57, 0
2, 92776, Note_on_c, 0, 66, 0
2, 92803, Note_on_c, 0, 59, 85
2, 92818, Note_on_c, 0, 67, 84
2, 92894, Note_on_c, 0, 59, 0
2, 92901, Note_on_c, 0, 67, 0
2, 92932, Note_on_c, 0, 60, 82
2, 92945, Note_on_c, 0, 69, 85
2, 93005, Note_on_c, 0, 60, 0
2, 93053, Note_on_c, 0, 69, 0
2, 93064, Note_on_c, 0, 62, 75
2, 93064, Note_on_c, 0, 71, 91
2, 93139, Note_on_c, 0, 71, 0
2, 93187, Note_on_c, 0, 62, 0
2, 93205, Note_on_c, 0, 50, 72
2, 93212, Note_on_c, 0, 72, 97
2, 93219, Note_on_c, 0, 54, 72
2, 93282, Note_on_c, 0, 54, 0
2, 93291, Note_on_c, 0, 50, 0
2, 93492, Note_on_c, 0, 48, 70
2, 93496, Note_on_c, 0, 69, 73
2, 93536, Note_on_c, 0, 69, 0
2, 93547, Note_on_c, 0, 48, 0
2, 93612, Note_on_c, 0, 50, 74
2, 93681, Note_on_c, 0, 50, 0
2, 93751, Note_on_c, 0, 71, 86
2, 93756, Note_on_c, 0, 52, 76
2, 93756, Note_on_c, 0, 67, 80
2, 93756, Note_on_c, 0, 72, 0
2, 93808, Note_on_c, 0, 71, 0
2, 93819, Note_on_c, 0, 52, 0
2, 93880, Note_on_c, 0, 50, 70
2, 93969, Note_on_c, 0, 50, 0
2, 94018, Note_on_c, 0, 69, 85
2, 94025, Note_on_c, 0, 48, 77
2, 94046, Note_on_c, 0, 67, 0
2, 94075, Note_on_c, 0, 48, 0
2, 94299, Note_on_c, 0, 67, 78
2, 94306, Note_on_c, 0, 47, 75
2, 94342, Note_on_c, 0, 67, 0
2, 94368, Note_on_c, 0, 47, 0
2, 94422, Note_on_c, 0, 48, 74
2, 94507, Note_on_c, 0, 48, 0
2, 94557, Note_on_c, 0, 50, 78
2, 94564, Note_on_c, 0, 66, 68
2, 94614, Note_on_c, 0, 66, 0
2, 94630, Note_on_c, 0, 50, 0
2, 94687, Note_on_c, 0, 48, 70
2, 94752, Note_on_c, 0, 48, 0
2, 94781, Note_on_c, 0, 69, 0
2, 94828, Note_on_c, 0, 47, 76
2, 94832, Note_on_c, 0, 67, 77
2, 94870, Note_on_c, 0, 47, 0
2, 94941, Note_on_c, 0, 67, 0
2, 94971, Note_on_c, 0, 79, 80
2, 95085, Note_on_c, 0, 48, 80
2, 95097, Note_on_c, 0, 78, 85
2, 95101, Note_on_c, 0, 79, 0
2, 95128, Note_on_c, 0, 48, 0
2, 95195, Note_on_c, 0, 78, 0
2, 95239, Note_on_c, 0, 76, 81
2, 95327, Note_on_c, 0, 76, 0
2, 95354, Note_on_c, 0, 50, 89
2, 95366, Note_on_c, 0, 74, 82
2, 95392, Note_on_c, 0, 50, 0
2, 95462, Note_on_c, 0, 74, 0
2, 95491, Note_on_c, 0, 78, 78
2, 95587, Note_on_c, 0, 78, 0
2, 95626, Note_on_c, 0, 76, 81
2, 95630, Note_on_c, 0, 55, 82
2, 95695, Note_on_c, 0, 55, 0
2, 95731, Note_on_c, 0, 76, 0
2, 95751, Note_on_c, 0, 78, 78
2, 95855, Note_on_c, 0, 78, 0
2, 95907, Note_on_c, 0, 45, 85
2, 95907, Note_on_c, 0, 76, 78
2, 96028, Note_on_c, 0, 76, 0
2, 96037, Note_on_c, 0, 74, 75
2, 96169, Note_on_c, 0, 72, 79
2, 96174, Note_on_c, 0, 74, 0
2, 96209, Note_on_c, 0, 45, 0
2, 96296, Note_on_c, 0, 76, 78
2, 96302, Note_on_c, 0, 72, 0
2, 96410, Note_on_c, 0, 76, 0
2, 96423, Note_on_c, 0, 47, 74
2, 96436, Note_on_c, 0, 74, 78
2, 96473, Note_on_c, 0, 47, 0
2, 96516, Note_on_c, 0, 74, 0
2, 96553, Note_on_c, 0, 76, 73
2, 96672, Note_on_c, 0, 76, 0
2, 96689, Note_on_c, 0, 48, 84
2, 96693, Note_on_c, 0, 74, 78
2, 96729, Note_on_c, 0, 48, 0
2, 96776, Note_on_c, 0, 74, 0
2, 96823, Note_on_c, 0, 72, 75
2, 96914, Note_on_c, 0, 72, 0
2, 96963, Note_on_c, 0, 50, 89
2, 96963, Note_on_c, 0, 71, 79
2, 97003, Note_on_c, 0, 50, 0
2, 97074, Note_on_c, 0, 71, 0
2, 97098, Note_on_c, 0, 74, 74
2, 97212, Note_on_c, 0, 74, 0
2, 97237, Note_on_c, 0, 52, 82
2, 97237, Note_on_c, 0, 72, 82
2, 97302, Note_on_c, 0, 52, 0
2, 97318, Note_on_c, 0, 72, 0
2, 97369, Note_on_c, 0, 74, 73
2, 97470, Note_on_c, 0, 74, 0
2, 97492, Note_on_c, 0, 42, 76
2, 97501, Note_on_c, 0, 72, 74
2, 97615, Note_on_c, 0, 72, 0
2, 97635, Note_on_c, 0, 71, 62
2, 97755, Note_on_c, 0, 71, 0
2, 97777, Note_on_c, 0, 69, 60
2, 97823, Note_on_c, 0, 42, 0
2, 97892, Note_on_c, 0, 69, 0
2, 97913, Note_on_c, 0, 72, 60
2, 98033, Note_on_c, 0, 43, 60
2, 98047, Note_on_c, 0, 72, 0
2, 98056, Note_on_c, 0, 71, 64
2, 98171, Note_on_c, 0, 43, 0
2, 98180, Note_on_c, 0, 45, 69
2, 98188, Note_on_c, 0, 69, 62
2, 98192, Note_on_c, 0, 71, 0
2, 98315, Note_on_c, 0, 69, 0
2, 98323, Note_on_c, 0, 45, 0
2, 98325, Note_on_c, 0, 47, 69
2, 98337, Note_on_c, 0, 67, 63
2, 98433, Note_on_c, 0, 67, 0
2, 98469, Note_on_c, 0, 71, 61
2, 98593, Note_on_c, 0, 71, 0
2, 98600, Note_on_c, 0, 66, 66
2, 98614, Note_on_c, 0, 62, 64
2, 98658, Note_on_c, 0, 62, 0
2, 98669, Note_on_c, 0, 66, 0
2, 98740, Note_on_c, 0, 71, 42
2, 98845, Note_on_c, 0, 71, 0
2, 98872, Note_on_c, 0, 64, 57
2, 98896, Note_on_c, 0, 61, 48
2, 98956, Note_on_c, 0, 61, 0
2, 98981, Note_on_c, 0, 47, 0
2, 98981, Note_on_c, 0, 64, 0
2, 98998, Note_on_c, 0, 71, 59
2, 99014, Note_on_c, 0, 45, 49
2, 99115, Note_on_c, 0, 45, 0
2, 99120, Note_on_c, 0, 71, 0
2, 99125, Note_on_c, 0, 43, 67
2, 99147, Note_on_c, 0, 62, 66
2, 99218, Note_on_c, 0, 62, 0
2, 99237, Note_on_c, 0, 43, 0
2, 99257, Note_on_c, 0, 42, 67
2, 99277, Note_on_c, 0, 71, 57
2, 99352, Note_on_c, 0, 42, 0
2, 99399, Note_on_c, 0, 40, 60
2, 99412, Note_on_c, 0, 71, 0
2, 99423, Note_on_c, 0, 61, 67
2, 99524, Note_on_c, 0, 40, 0
2, 99532, Note_on_c, 0, 61, 0
2, 99540, Note_on_c, 0, 43, 67
2, 99559, Note_on_c, 0, 71, 56
2, 99675, Note_on_c, 0, 43, 0
2, 99683, Note_on_c, 0, 71, 0
2, 99684, Note_on_c, 0, 42, 69
2, 99691, Note_on_c, 0, 69, 69
2, 99785, Note_on_c, 0, 42, 0
2, 99802, Note_on_c, 0, 43, 64
2, 99810, Note_on_c, 0, 69, 0
2, 99837, Note_on_c, 0, 67, 64
2, 99937, Note_on_c, 0, 43, 0
2, 99953, Note_on_c, 0, 67, 0
2, 99957, Note_on_c, 0, 45, 66
2, 99973, Note_on_c, 0, 66, 68
2, 100087, Note_on_c, 0, 66, 0
2, 100114, Note_on_c, 0, 69, 58
2, 100209, Note_on_c, 0, 69, 0
2, 100246, Note_on_c, 0, 61, 61
2, 100246, Note_on_c, 0, 64, 60
2, 100319, Note_on_c, 0, 61, 0
2, 100319, Note_on_c, 0, 64, 0
2, 100363, Note_on_c, 0, 69, 60
2, 100504, Note_on_c, 0, 69, 0
2, 100511, Note_on_c, 0, 59, 57
2, 100524, Note_on_c, 0, 62, 59
2, 100578, Note_on_c, 0, 62, 0
2, 100652, Note_on_c, 0, 45, 0
2, 100652, Note_on_c, 0, 59, 0
2, 100659, Note_on_c, 0, 43, 58
2, 100659, Note_on_c, 0, 69, 53
2, 100749, Note_on_c, 0, 43, 0
2, 100758, Note_on_c, 0, 69, 0
2, 100769, Note_on_c, 0, 42, 68
2, 100780, Note_on_c, 0, 61, 55
2, 100862, Note_on_c, 0, 42, 0
2, 100862, Note_on_c, 0, 61, 0
2, 100902, Note_on_c, 0, 69, 62
2, 100913, Note_on_c, 0, 40, 57
2, 100998, Note_on_c, 0, 69, 0
2, 101013, Note_on_c, 0, 40, 0
2, 101040, Note_on_c, 0, 59, 68
2, 101044, Note_on_c, 0, 38, 66
2, 101151, Note_on_c, 0, 38, 0
2, 101160, Note_on_c, 0, 69, 62
2, 101168, Note_on_c, 0, 59, 0
2, 101184, Note_on_c, 0, 42, 64
2, 101268, Note_on_c, 0, 42, 0
2, 101277, Note_on_c, 0, 69, 0
2, 101305, Note_on_c, 0, 67, 67
2, 101320, Note_on_c, 0, 40, 58
2, 101396, Note_on_c, 0, 40, 0
2, 101435, Note_on_c, 0, 42, 60
2, 101435, Note_on_c, 0, 67, 0
2, 101444, Note_on_c, 0, 66, 63
2, 101551, Note_on_c, 0, 42, 0
2, 101583, Note_on_c, 0, 43, 60
2, 101596, Note_on_c, 0, 64, 65
2, 101598, Note_on_c, 0, 66, 0
2, 101695, Note_on_c, 0, 64, 0
2, 101713, Note_on_c, 0, 67, 61
2, 101847, Note_on_c, 0, 67, 0
2, 101869, Note_on_c, 0, 62, 60
2, 101877, Note_on_c, 0, 59, 54
2, 101937, Note_on_c, 0, 62, 0
2, 101956, Note_on_c, 0, 59, 0
2, 101990, Note_on_c, 0, 67, 56
2, 102122, Note_on_c, 0, 67, 0
2, 102146, Note_on_c, 0, 61, 48
2, 102173, Note_on_c, 0, 57, 38
2, 102215, Note_on_c, 0, 57, 0
2, 102226, Note_on_c, 0, 61, 0
2, 102243, Note_on_c, 0, 43, 0
2, 102259, Note_on_c, 0, 42, 58
2, 102270, Note_on_c, 0, 67, 55
2, 102327, Note_on_c, 0, 42, 0
2, 102387, Note_on_c, 0, 67, 0
2, 102398, Note_on_c, 0, 40, 55
2, 102402, Note_on_c, 0, 59, 63
2, 102463, Note_on_c, 0, 59, 0
2, 102505, Note_on_c, 0, 40, 0
2, 102530, Note_on_c, 0, 67, 58
2, 102535, Note_on_c, 0, 38, 58
2, 102621, Note_on_c, 0, 67, 0
2, 102649, Note_on_c, 0, 38, 0
2, 102671, Note_on_c, 0, 57, 65
2, 102676, Note_on_c, 0, 37, 58
2, 102733, Note_on_c, 0, 57, 0
2, 102742, Note_on_c, 0, 37, 0
2, 102776, Note_on_c, 0, 67, 58
2, 102793, Note_on_c, 0, 40, 50
2, 102859, Note_on_c, 0, 67, 0
2, 102909, Note_on_c, 0, 40, 0
2, 102929, Note_on_c, 0, 66, 70
2, 102932, Note_on_c, 0, 38, 56
2, 103007, Note_on_c, 0, 38, 0
2, 103029, Note_on_c, 0, 66, 0
2, 103055, Note_on_c, 0, 74, 70
2, 103068, Note_on_c, 0, 40, 51
2, 103147, Note_on_c, 0, 40, 0
2, 103158, Note_on_c, 0, 74, 0
2, 103174, Note_on_c, 0, 42, 66
2, 103178, Note_on_c, 0, 72, 79
2, 103254, Note_on_c, 0, 42, 0
2, 103254, Note_on_c, 0, 72, 0
2, 103306, Note_on_c, 0, 71, 79
2, 103313, Note_on_c, 0, 38, 62
2, 103380, Note_on_c, 0, 71, 0
2, 103402, Note_on_c, 0, 38, 0
2, 103431, Note_on_c, 0, 69, 74
2, 103436, Note_on_c, 0, 43, 69
2, 103506, Note_on_c, 0, 43, 0
2, 103506, Note_on_c, 0, 69, 0
2, 103555, Note_on_c, 0, 67, 75
2, 103564, Note_on_c, 0, 38, 62
2, 103639, Note_on_c, 0, 67, 0
2, 103650, Note_on_c, 0, 38, 0
2, 103693, Note_on_c, 0, 66, 80
2, 103701, Note_on_c, 0, 45, 70
2, 103781, Note_on_c, 0, 45, 0
2, 103789, Note_on_c, 0, 66, 0
2, 103822, Note_on_c, 0, 64, 81
2, 103835, Note_on_c, 0, 38, 62
2, 103906, Note_on_c, 0, 64, 0
2, 103930, Note_on_c, 0, 38, 0
2, 103950, Note_on_c, 0, 62, 78
2, 103965, Note_on_c, 0, 47, 74
2, 104030, Note_on_c, 0, 62, 0
2, 104053, Note_on_c, 0, 47, 0
2, 104077, Note_on_c, 0, 60, 76
2, 104092, Note_on_c, 0, 38, 70
2, 104159, Note_on_c, 0, 38, 0
2, 104166, Note_on_c, 0, 60, 0
2, 104216, Note_on_c, 0, 48, 71
2, 104216, Note_on_c, 0, 59, 76
2, 104288, Note_on_c, 0, 48, 0
2, 104301, Note_on_c, 0, 59, 0
2, 104331, Note_on_c, 0, 38, 67
2, 104346, Note_on_c, 0, 57, 74
2, 104431, Note_on_c, 0, 57, 0
2, 104435, Note_on_c, 0, 38, 0
2, 104467, Note_on_c, 0, 47, 70
2, 104476, Note_on_c, 0, 55, 70
2, 104527, Note_on_c, 0, 47, 0
2, 104550, Note_on_c, 0, 55, 0
2, 104601, Note_on_c, 0, 57, 75
2, 104605, Note_on_c, 0, 55, 59
2, 104678, Note_on_c, 0, 57, 0
2, 104688, Note_on_c, 0, 55, 0
2, 104734, Note_on_c, 0, 53, 74
2, 104746, Note_on_c, 0, 59, 76
2, 104808, Note_on_c, 0, 59, 0
2, 104814, Note_on_c, 0, 53, 0
2, 104857, Note_on_c, 0, 55, 73
2, 104871, Note_on_c, 0, 52, 65
2, 104933, Note_on_c, 0, 52, 0
2, 104956, Note_on_c, 0, 55, 0
2, 104991, Note_on_c, 0, 60, 82
2, 105000, Note_on_c, 0, 50, 70
2, 105064, Note_on_c, 0, 60, 0
2, 105077, Note_on_c, 0, 50, 0
2, 105114, Note_on_c, 0, 55, 73
2, 105131, Note_on_c, 0, 48, 63
2, 105201, Note_on_c, 0, 48, 0
2, 105205, Note_on_c, 0, 55, 0
2, 105251, Note_on_c, 0, 62, 87
2, 105261, Note_on_c, 0, 47, 74
2, 105337, Note_on_c, 0, 62, 0
2, 105347, Note_on_c, 0, 47, 0
2, 105370, Note_on_c, 0, 55, 74
2, 105401, Note_on_c, 0, 45, 70
2, 105467, Note_on_c, 0, 45, 0
2, 105473, Note_on_c, 0, 55, 0
2, 105516, Note_on_c, 0, 64, 89
2, 105524, Note_on_c, 0, 43, 76
2, 105600, Note_on_c, 0, 64, 0
2, 105616, Note_on_c, 0, 43, 0
2, 105629, Note_on_c, 0, 55, 73
2, 105645, Note_on_c, 0, 41, 68
2, 105728, Note_on_c, 0, 41, 0
2, 105778, Note_on_c, 0, 40, 70
2, 105778, Note_on_c, 0, 65, 82
2, 105783, Note_on_c, 0, 55, 0
2, 105836, Note_on_c, 0, 40, 0
2, 105861, Note_on_c, 0, 65, 0
2, 105890, Note_on_c, 0, 55, 75
2, 105895, Note_on_c, 0, 38, 68
2, 105951, Note_on_c, 0, 38, 0
2, 105965, Note_on_c, 0, 55, 0
2, 106024, Note_on_c, 0, 36, 76
2, 106024, Note_on_c, 0, 64, 84
2, 106115, Note_on_c, 0, 64, 0
2, 106126, Note_on_c, 0, 36, 0
2, 106163, Note_on_c, 0, 38, 73
2, 106163, Note_on_c, 0, 72, 83
2, 106240, Note_on_c, 0, 72, 0
2, 106245, Note_on_c, 0, 38, 0
2, 106287, Note_on_c, 0, 71, 87
2, 106298, Note_on_c, 0, 40, 68
2, 106410, Note_on_c, 0, 71, 0
2, 106417, Note_on_c, 0, 42, 74
2, 106421, Note_on_c, 0, 40, 0
2, 106421, Note_on_c, 0, 74, 83
2, 106512, Note_on_c, 0, 42, 0
2, 106512, Note_on_c, 0, 74, 0
2, 106546, Note_on_c, 0, 44, 77
2, 106550, Note_on_c, 0, 69, 85
2, 106648, Note_on_c, 0, 44, 0
2, 106648, Note_on_c, 0, 69, 0
2, 106678, Note_on_c, 0, 45, 72
2, 106682, Note_on_c, 0, 74, 83
2, 106773, Note_on_c, 0, 45, 0
2, 106791, Note_on_c, 0, 74, 0
2, 106814, Note_on_c, 0, 68, 90
2, 106818, Note_on_c, 0, 47, 78
2, 106891, Note_on_c, 0, 47, 0
2, 106925, Note_on_c, 0, 68, 0
2, 106942, Note_on_c, 0, 74, 80
2, 106947, Note_on_c, 0, 48, 73
2, 107009, Note_on_c, 0, 48, 0
2, 107047, Note_on_c, 0, 74, 0
2, 107072, Note_on_c, 0, 50, 79
2, 107072, Note_on_c, 0, 66, 83
2, 107126, Note_on_c, 0, 50, 0
2, 107161, Note_on_c, 0, 66, 0
2, 107201, Note_on_c, 0, 52, 69
2, 107205, Note_on_c, 0, 74, 71
2, 107290, Note_on_c, 0, 74, 0
2, 107313, Note_on_c, 0, 52, 0
2, 107325, Note_on_c, 0, 54, 64
2, 107330, Note_on_c, 0, 64, 74
2, 107393, Note_on_c, 0, 54, 0
2, 107422, Note_on_c, 0, 64, 0
2, 107443, Note_on_c, 0, 56, 71
2, 107456, Note_on_c, 0, 74, 75
2, 107535, Note_on_c, 0, 56, 0
2, 107561, Note_on_c, 0, 74, 0
2, 107589, Note_on_c, 0, 57, 72
2, 107596, Note_on_c, 0, 72, 83
2, 107686, Note_on_c, 0, 72, 0
2, 107696, Note_on_c, 0, 57, 0
2, 107723, Note_on_c, 0, 55, 69
2, 107732, Note_on_c, 0, 69, 75
2, 107806, Note_on_c, 0, 69, 0
2, 107810, Note_on_c, 0, 55, 0
2, 107850, Note_on_c, 0, 71, 86
2, 107864, Note_on_c, 0, 54, 69
2, 107924, Note_on_c, 0, 54, 0
2, 107943, Note_on_c, 0, 71, 0
2, 107985, Note_on_c, 0, 73, 86
2, 108001, Note_on_c, 0, 57, 66
2, 108068, Note_on_c, 0, 73, 0
2, 108113, Note_on_c, 0, 75, 88
2, 108119, Note_on_c, 0, 57, 0
2, 108129, Note_on_c, 0, 52, 75
2, 108191, Note_on_c, 0, 52, 0
2, 108212, Note_on_c, 0, 75, 0
2, 108243, Note_on_c, 0, 74, 82
2, 108258, Note_on_c, 0, 57, 77
2, 108336, Note_on_c, 0, 74, 0
2, 108367, Note_on_c, 0, 57, 0
2, 108391, Note_on_c, 0, 51, 79
2, 108391, Note_on_c, 0, 77, 80
2, 108437, Note_on_c, 0, 79, 38
2, 108446, Note_on_c, 0, 51, 0
2, 108459, Note_on_c, 0, 77, 0
2, 108504, Note_on_c, 0, 57, 79
2, 108508, Note_on_c, 0, 79, 0
2, 108508, Note_on_c, 0, 79, 81
2, 108580, Note_on_c, 0, 79, 0
2, 108605, Note_on_c, 0, 57, 0
2, 108636, Note_on_c, 0, 49, 76
2, 108636, Note_on_c, 0, 81, 90
2, 108711, Note_on_c, 0, 49, 0
2, 108731, Note_on_c, 0, 81, 0
2, 108768, Note_on_c, 0, 57, 72
2, 108768, Note_on_c, 0, 83, 90
2, 108851, Note_on_c, 0, 83, 0
2, 108864, Note_on_c, 0, 57, 0
2, 108901, Note_on_c, 0, 47, 72
2, 108901, Note_on_c, 0, 84, 89
2, 108967, Note_on_c, 0, 84, 0
2, 108978, Note_on_c, 0, 47, 0
2, 109007, Note_on_c, 0, 57, 67
2, 109021, Note_on_c, 0, 75, 83
2, 109070, Note_on_c, 0, 57, 0
2, 109090, Note_on_c, 0, 75, 0
2, 109156, Note_on_c, 0, 55, 85
2, 109156, Note_on_c, 0, 76, 92
2, 109187, Note_on_c, 0, 55, 0
2, 109209, Note_on_c, 0, 76, 0
2, 109437, Note_on_c, 0, 78, 92
2, 109442, Note_on_c, 0, 60, 78
2, 109482, Note_on_c, 0, 60, 0
2, 109521, Note_on_c, 0, 78, 0
2, 109555, Note_on_c, 0, 76, 90
2, 109636, Note_on_c, 0, 76, 0
2, 109680, Note_on_c, 0, 75, 86
2, 109698, Note_on_c, 0, 59, 74
2, 109746, Note_on_c, 0, 59, 0
2, 109757, Note_on_c, 0, 75, 0
2, 109805, Note_on_c, 0, 76, 88
2, 109883, Note_on_c, 0, 76, 0
2, 109941, Note_on_c, 0, 78, 96
2, 109949, Note_on_c, 0, 57, 81
2, 109994, Note_on_c, 0, 57, 0
2, 110004, Note_on_c, 0, 78, 0
2, 110225, Note_on_c, 0, 59, 74
2, 110225, Note_on_c, 0, 79, 96
2, 110281, Note_on_c, 0, 59, 0
2, 110345, Note_on_c, 0, 78, 91
2, 110367, Note_on_c, 0, 79, 0
2, 110442, Note_on_c, 0, 78, 0
2, 110472, Note_on_c, 0, 47, 63
2, 110480, Note_on_c, 0, 76, 90
2, 110508, Note_on_c, 0, 47, 0
2, 110556, Note_on_c, 0, 76, 0
2, 110599, Note_on_c, 0, 78, 88
2, 110678, Note_on_c, 0, 78, 0
2, 110729, Note_on_c, 0, 52, 69
2, 110733, Note_on_c, 0, 79, 92
2, 110773, Note_on_c, 0, 53, 36
2, 110777, Note_on_c, 0, 53, 0
2, 110777, Note_on_c, 0, 79, 0
2, 110790, Note_on_c, 0, 52, 0
2, 110850, Note_on_c, 0, 54, 72
2, 110928, Note_on_c, 0, 54, 0
2, 110984, Note_on_c, 0, 55, 76
2, 111002, Note_on_c, 0, 78, 82
2, 111033, Note_on_c, 0, 78, 0
2, 111042, Note_on_c, 0, 55, 0
2, 111114, Note_on_c, 0, 52, 73
2, 111208, Note_on_c, 0, 52, 0
2, 111241, Note_on_c, 0, 76, 85
2, 111250, Note_on_c, 0, 57, 79
2, 111279, Note_on_c, 0, 76, 0
2, 111323, Note_on_c, 0, 57, 0
2, 111376, Note_on_c, 0, 52, 67
2, 111452, Note_on_c, 0, 52, 0
2, 111505, Note_on_c, 0, 71, 85
2, 111510, Note_on_c, 0, 59, 76
2, 111566, Note_on_c, 0, 71, 0
2, 111588, Note_on_c, 0, 59, 0
2, 111636, Note_on_c, 0, 52, 66
2, 111750, Note_on_c, 0, 52, 0
2, 111776, Note_on_c, 0, 81, 90
2, 111785, Note_on_c, 0, 61, 73
2, 111867, Note_on_c, 0, 61, 0
2, 111912, Note_on_c, 0, 52, 65
2, 112006, Note_on_c, 0, 52, 0
2, 112046, Note_on_c, 0, 63, 79
2, 112102, Note_on_c, 0, 63, 0
2, 112157, Note_on_c, 0, 52, 73
2, 112204, Note_on_c, 0, 81, 0
2, 112246, Note_on_c, 0, 52, 0
2, 112308, Note_on_c, 0, 64, 72
2, 112314, Note_on_c, 0, 79, 77
2, 112356, Note_on_c, 0, 79, 0
2, 112398, Note_on_c, 0, 64, 0
2, 112438, Note_on_c, 0, 63, 70
2, 112541, Note_on_c, 0, 63, 0
2, 112548, Note_on_c, 0, 78, 89
2, 112559, Note_on_c, 0, 64, 82
2, 112618, Note_on_c, 0, 78, 0
2, 112675, Note_on_c, 0, 64, 0
2, 112699, Note_on_c, 0, 66, 76
2, 112799, Note_on_c, 0, 76, 91
2, 112833, Note_on_c, 0, 67, 81
2, 112856, Note_on_c, 0, 66, 0
2, 112866, Note_on_c, 0, 76, 0
2, 112910, Note_on_c, 0, 67, 0
2, 112966, Note_on_c, 0, 64, 79
2, 113056, Note_on_c, 0, 64, 0
2, 113074, Note_on_c, 0, 75, 94
2, 113098, Note_on_c, 0, 66, 82
2, 113138, Note_on_c, 0, 75, 0
2, 113177, Note_on_c, 0, 66, 0
2, 113216, Note_on_c, 0, 64, 75
2, 113313, Note_on_c, 0, 64, 0
2, 113349, Note_on_c, 0, 66, 76
2, 113356, Note_on_c, 0, 84, 91
2, 113437, Note_on_c, 0, 66, 0
2, 113486, Note_on_c, 0, 67, 70
2, 113580, Note_on_c, 0, 67, 0
2, 113625, Note_on_c, 0, 69, 66
2, 113718, Note_on_c, 0, 69, 0
2, 113745, Note_on_c, 0, 66, 68
2, 113823, Note_on_c, 0, 66, 0
2, 113861, Note_on_c, 0, 84, 0
2, 113883, Note_on_c, 0, 83, 84
2, 113893, Note_on_c, 0, 67, 76
2, 113938, Note_on_c, 0, 67, 0
2, 113957, Note_on_c, 0, 83, 0
2, 114168, Note_on_c, 0, 84, 85
2, 114173, Note_on_c, 0, 69, 68
2, 114284, Note_on_c, 0, 69, 0
2, 114301, Note_on_c, 0, 67, 68
2, 114301, Note_on_c, 0, 83, 81
2, 114335, Note_on_c, 0, 84, 0
2, 114405, Note_on_c, 0, 67, 0
2, 114420, Note_on_c, 0, 66, 75
2, 114424, Note_on_c, 0, 81, 84
2, 114468, Note_on_c, 0, 83, 0
2, 114516, Note_on_c, 0, 81, 0
2, 114524, Note_on_c, 0, 66, 0
2, 114555, Note_on_c, 0, 64, 74
2, 114555, Note_on_c, 0, 79, 84
2, 114659, Note_on_c, 0, 79, 0
2, 114683, Note_on_c, 0, 64, 0
2, 114702, Note_on_c, 0, 69, 80
2, 114707, Note_on_c, 0, 78, 76
2, 114798, Note_on_c, 0, 78, 0
2, 115017, Note_on_c, 0, 81, 75
2, 115136, Note_on_c, 0, 81, 0
2, 115147, Note_on_c, 0, 79, 76
2, 115279, Note_on_c, 0, 79, 0
2, 115288, Note_on_c, 0, 78, 81
2, 115390, Note_on_c, 0, 78, 0
2, 115405, Note_on_c, 0, 76, 78
2, 115525, Note_on_c, 0, 76, 0
2, 115552, Note_on_c, 0, 75, 70
2, 115607, Note_on_c, 0, 75, 0
2, 115659, Note_on_c, 0, 69, 0
2, 115682, Note_on_c, 0, 67, 61
2, 115780, Note_on_c, 0, 67, 0
2, 115800, Note_on_c, 0, 66, 69
2, 115803, Note_on_c, 0, 81, 75
2, 115869, Note_on_c, 0, 81, 0
2, 115876, Note_on_c, 0, 66, 0
2, 115950, Note_on_c, 0, 69, 58
2, 116032, Note_on_c, 0, 69, 0
2, 116061, Note_on_c, 0, 79, 72
2, 116065, Note_on_c, 0, 64, 66
2, 116101, Note_on_c, 0, 79, 0
2, 116105, Note_on_c, 0, 64, 0
2, 116174, Note_on_c, 0, 69, 51
2, 116269, Note_on_c, 0, 69, 0
2, 116308, Note_on_c, 0, 63, 58
2, 116320, Note_on_c, 0, 78, 70
2, 116366, Note_on_c, 0, 63, 0
2, 116366, Note_on_c, 0, 78, 0
2, 116425, Note_on_c, 0, 69, 47
2, 116552, Note_on_c, 0, 69, 0
2, 116577, Note_on_c, 0, 61, 52
2, 116577, Note_on_c, 0, 76, 68
2, 116620, Note_on_c, 0, 76, 0
2, 116647, Note_on_c, 0, 61, 0
2, 116725, Note_on_c, 0, 69, 32
2, 116800, Note_on_c, 0, 69, 0
2, 116838, Note_on_c, 0, 59, 54
2, 116848, Note_on_c, 0, 75, 63
2, 116887, Note_on_c, 0, 75, 0
2, 116920, Note_on_c, 0, 59, 0
2, 116975, Note_on_c, 0, 69, 45
2, 117048, Note_on_c, 0, 69, 0
2, 117110, Note_on_c, 0, 67, 73
2, 117110, Note_on_c, 0, 76, 84
2, 117157, Note_on_c, 0, 67, 0
2, 117178, Note_on_c, 0, 76, 0
2, 117397, Note_on_c, 0, 66, 74
2, 117404, Note_on_c, 0, 74, 79
2, 117445, Note_on_c, 0, 74, 0
2, 117477, Note_on_c, 0, 66, 0
2, 117521, Note_on_c, 0, 67, 76
2, 117625, Note_on_c, 0, 67, 0
2, 117650, Note_on_c, 0, 69, 76
2, 117663, Note_on_c, 0, 72, 86
2, 117705, Note_on_c, 0, 72, 0
2, 117743, Note_on_c, 0, 69, 0
2, 117770, Note_on_c, 0, 67, 79
2, 117861, Note_on_c, 0, 67, 0
2, 117921, Note_on_c, 0, 74, 81
2, 117926, Note_on_c, 0, 66, 78
2, 117988, Note_on_c, 0, 74, 0
2, 117993, Note_on_c, 0, 66, 0
2, 118200, Note_on_c, 0, 64, 80
2, 118221, Note_on_c, 0, 72, 85
2, 118268, Note_on_c, 0, 72, 0
2, 118281, Note_on_c, 0, 64, 0
2, 118327, Note_on_c, 0, 66, 77
2, 118408, Note_on_c, 0, 66, 0
2, 118450, Note_on_c, 0, 67, 77
2, 118470, Note_on_c, 0, 71, 81
2, 118512, Note_on_c, 0, 71, 0
2, 118526, Note_on_c, 0, 67, 0
2, 118566, Note_on_c, 0, 66, 80
2, 118646, Note_on_c, 0, 66, 0
2, 118698, Note_on_c, 0, 72, 81
2, 118709, Note_on_c, 0, 64, 79
2, 118755, Note_on_c, 0, 64, 0
2, 118817, Note_on_c, 0, 72, 0
2, 118831, Note_on_c, 0, 84, 79
2, 118960, Note_on_c, 0, 84, 0
2, 118964, Note_on_c, 0, 66, 82
2, 118964, Note_on_c, 0, 83, 84
2, 119011, Note_on_c, 0, 66, 0
2, 119049, Note_on_c, 0, 83, 0
2, 119085, Note_on_c, 0, 81, 82
2, 119174, Note_on_c, 0, 81, 0
2, 119216, Note_on_c, 0, 79, 90
2, 119221, Note_on_c, 0, 67, 86
2, 119268, Note_on_c, 0, 67, 0
2, 119311, Note_on_c, 0, 79, 0
2, 119341, Note_on_c, 0, 83, 79
2, 119430, Note_on_c, 0, 83, 0
2, 119483, Note_on_c, 0, 81, 82
2, 119487, Note_on_c, 0, 72, 89
2, 119549, Note_on_c, 0, 81, 0
2, 119554, Note_on_c, 0, 72, 0
2, 119600, Note_on_c, 0, 83, 75
2, 119733, Note_on_c, 0, 81, 77
2, 119748, Note_on_c, 0, 83, 0
2, 119762, Note_on_c, 0, 63, 84
2, 119854, Note_on_c, 0, 81, 0
2, 119870, Note_on_c, 0, 79, 77
2, 119990, Note_on_c, 0, 79, 0
2, 120002, Note_on_c, 0, 78, 79
2, 120042, Note_on_c, 0, 63, 0
2, 120063, Note_on_c, 0, 78, 0
2, 120135, Note_on_c, 0, 81, 73
2, 120240, Note_on_c, 0, 81, 0
2, 120255, Note_on_c, 0, 64, 77
2, 120273, Note_on_c, 0, 79, 81
2, 120304, Note_on_c, 0, 64, 0
2, 120348, Note_on_c, 0, 79, 0
2, 120391, Note_on_c, 0, 81, 70
2, 120495, Note_on_c, 0, 81, 0
2, 120529, Note_on_c, 0, 79, 83
2, 120539, Note_on_c, 0, 66, 83
2, 120580, Note_on_c, 0, 66, 0
2, 120618, Note_on_c, 0, 79, 0
2, 120661, Note_on_c, 0, 78, 82
2, 120780, Note_on_c, 0, 78, 0
2, 120797, Note_on_c, 0, 76, 81
2, 120802, Note_on_c, 0, 67, 83
2, 120848, Note_on_c, 0, 67, 0
2, 120909, Note_on_c, 0, 76, 0
2, 120938, Note_on_c, 0, 79, 73
2, 121047, Note_on_c, 0, 79, 0
2, 121071, Note_on_c, 0, 69, 76
2, 121076, Note_on_c, 0, 78, 76
2, 121139, Note_on_c, 0, 69, 0
2, 121162, Note_on_c, 0, 78, 0
2, 121195, Note_on_c, 0, 79, 73
2, 121330, Note_on_c, 0, 79, 0
2, 121343, Note_on_c, 0, 59, 74
2, 121343, Note_on_c, 0, 78, 64
2, 121450, Note_on_c, 0, 78, 0
2, 121465, Note_on_c, 0, 76, 70
2, 121577, Note_on_c, 0, 76, 0
2, 121603, Note_on_c, 0, 75, 64
2, 121665, Note_on_c, 0, 59, 0
2, 121711, Note_on_c, 0, 78, 69
2, 121716, Note_on_c, 0, 75, 0
2, 121795, Note_on_c, 0, 78, 0
2, 121860, Note_on_c, 0, 76, 68
2, 121869, Note_on_c, 0, 60, 60
2, 121936, Note_on_c, 0, 60, 0
2, 121958, Note_on_c, 0, 76, 0
2, 121987, Note_on_c, 0, 59, 66
2, 122058, Note_on_c, 0, 59, 0
2, 122106, Note_on_c, 0, 57, 67
2, 122128, Note_on_c, 0, 78, 74
2, 122171, Note_on_c, 0, 57, 0
2, 122197, Note_on_c, 0, 78, 0
2, 122223, Note_on_c, 0, 59, 72
2, 122237, Note_on_c, 0, 79, 83
2, 122320, Note_on_c, 0, 59, 0
2, 122340, Note_on_c, 0, 79, 0
2, 122378, Note_on_c, 0, 60, 73
2, 122378, Note_on_c, 0, 81, 87
2, 122471, Note_on_c, 0, 60, 0
2, 122491, Note_on_c, 0, 62, 79
2, 122583, Note_on_c, 0, 62, 0
2, 122624, Note_on_c, 0, 64, 90
2, 122719, Note_on_c, 0, 64, 0
2, 122748, Note_on_c, 0, 63, 83
2, 122848, Note_on_c, 0, 81, 0
2, 122857, Note_on_c, 0, 63, 0
2, 122877, Note_on_c, 0, 64, 85
2, 122877, Note_on_c, 0, 79, 91
2, 122957, Note_on_c, 0, 79, 0
2, 122999, Note_on_c, 0, 64, 0
2, 123004, Note_on_c, 0, 81, 90
2, 123009, Note_on_c, 0, 66, 79
2, 123103, Note_on_c, 0, 81, 0
2, 123144, Note_on_c, 0, 67, 81
2, 123153, Note_on_c, 0, 83, 91
2, 123178, Note_on_c, 0, 66, 0
2, 123256, Note_on_c, 0, 67, 0
2, 123269, Note_on_c, 0, 69, 74
2, 123307, Note_on_c, 0, 69, 0
2, 123424, Note_on_c, 0, 71, 83
2, 123435, Note_on_c, 0, 83, 0
2, 123565, Note_on_c, 0, 47, 71
2, 123654, Note_on_c, 0, 49, 74
2, 123667, Note_on_c, 0, 47, 0
2, 123676, Note_on_c, 0, 81, 89
2, 123716, Note_on_c, 0, 51, 75
2, 123731, Note_on_c, 0, 49, 0
2, 123756, Note_on_c, 0, 81, 0
2, 123760, Note_on_c, 0, 51, 0
2, 123810, Note_on_c, 0, 47, 75
2, 123897, Note_on_c, 0, 47, 0
2, 123942, Note_on_c, 0, 52, 73
2, 123965, Note_on_c, 0, 79, 83
2, 124003, Note_on_c, 0, 52, 0
2, 124025, Note_on_c, 0, 79, 0
2, 124053, Note_on_c, 0, 47, 63
2, 124134, Note_on_c, 0, 47, 0
2, 124193, Note_on_c, 0, 54, 61
2, 124209, Note_on_c, 0, 71, 0
2, 124209, Note_on_c, 0, 78, 78
2, 124268, Note_on_c, 0, 54, 0
2, 124284, Note_on_c, 0, 78, 0
2, 124318, Note_on_c, 0, 79, 78
2, 124329, Note_on_c, 0, 47, 51
2, 124412, Note_on_c, 0, 79, 0
2, 124438, Note_on_c, 0, 47, 0
2, 124482, Note_on_c, 0, 72, 71
2, 124482, Note_on_c, 0, 81, 67
2, 124491, Note_on_c, 0, 55, 58
2, 124522, Note_on_c, 0, 81, 0
2, 124528, Note_on_c, 0, 72, 0
2, 124542, Note_on_c, 0, 55, 0
2, 124599, Note_on_c, 0, 47, 51
2, 124722, Note_on_c, 0, 47, 0
2, 124775, Note_on_c, 0, 57, 55
2, 124779, Note_on_c, 0, 75, 64
2, 124788, Note_on_c, 0, 66, 55
2, 124825, Note_on_c, 0, 75, 0
2, 124837, Note_on_c, 0, 66, 0
2, 124844, Note_on_c, 0, 57, 0
2, 124915, Note_on_c, 0, 47, 40
2, 125077, Note_on_c, 0, 76, 59
2, 125090, Note_on_c, 0, 64, 50
2, 125095, Note_on_c, 0, 47, 0
2, 125108, Note_on_c, 0, 55, 45
2, 125179, Note_on_c, 0, 64, 0
2, 125233, Note_on_c, 0, 55, 0
2, 125233, Note_on_c, 0, 66, 64
2, 125247, Note_on_c, 0, 54, 57
2, 125344, Note_on_c, 0, 54, 0
2, 125388, Note_on_c, 0, 76, 0
2, 125392, Note_on_c, 0, 52, 55
2, 125392, Note_on_c, 0, 66, 0
2, 125399, Note_on_c, 0, 67, 65
2, 125478, Note_on_c, 0, 52, 0
2, 125545, Note_on_c, 0, 55, 46
2, 125630, Note_on_c, 0, 55, 0
2, 125661, Note_on_c, 0, 71, 71
2, 125670, Note_on_c, 0, 50, 55
2, 125714, Note_on_c, 0, 50, 0
2, 125718, Note_on_c, 0, 71, 0
2, 125797, Note_on_c, 0, 55, 45
2, 125905, Note_on_c, 0, 55, 0
2, 125938, Note_on_c, 0, 49, 51
2, 125938, Note_on_c, 0, 69, 61
2, 125968, Note_on_c, 0, 67, 0
2, 126008, Note_on_c, 0, 49, 0
2, 126058, Note_on_c, 0, 55, 51
2, 126073, Note_on_c, 0, 66, 62
2, 126196, Note_on_c, 0, 55, 0
2, 126196, Note_on_c, 0, 66, 0
2, 126209, Note_on_c, 0, 64, 74
2, 126218, Note_on_c, 0, 47, 58
2, 126274, Note_on_c, 0, 47, 0
2, 126326, Note_on_c, 0, 64, 0
2, 126346, Note_on_c, 0, 55, 59
2, 126353, Note_on_c, 0, 62, 71
2, 126450, Note_on_c, 0, 55, 0
2, 126478, Note_on_c, 0, 45, 57
2, 126482, Note_on_c, 0, 62, 0
2, 126487, Note_on_c, 0, 61, 67
2, 126555, Note_on_c, 0, 45, 0
2, 126594, Note_on_c, 0, 61, 0
2, 126604, Note_on_c, 0, 64, 72
2, 126617, Note_on_c, 0, 55, 49
2, 126641, Note_on_c, 0, 69, 0
2, 126707, Note_on_c, 0, 55, 0
2, 126733, Note_on_c, 0, 64, 0
2, 126749, Note_on_c, 0, 54, 58
2, 126757, Note_on_c, 0, 62, 67
2, 126843, Note_on_c, 0, 54, 0
2, 126852, Note_on_c, 0, 62, 0
2, 126881, Note_on_c, 0, 52, 61
2, 126881, Note_on_c, 0, 64, 69
2, 126976, Note_on_c, 0, 52, 0
2, 127005, Note_on_c, 0, 64, 0
2, 127027, Note_on_c, 0, 50, 58
2, 127037, Note_on_c, 0, 66, 59
2, 127094, Note_on_c, 0, 50, 0
2, 127180, Note_on_c, 0, 54, 47
2, 127261, Note_on_c, 0, 54, 0
2, 127295, Note_on_c, 0, 69, 60
2, 127303, Note_on_c, 0, 49, 54
2, 127353, Note_on_c, 0, 69, 0
2, 127357, Note_on_c, 0, 49, 0
2, 127415, Note_on_c, 0, 54, 49
2, 127500, Note_on_c, 0, 54, 0
2, 127581, Note_on_c, 0, 47, 49
2, 127590, Note_on_c, 0, 67, 60
2, 127641, Note_on_c, 0, 47, 0
2, 127658, Note_on_c, 0, 66, 0
2, 127717, Note_on_c, 0, 54, 46
2, 127731, Note_on_c, 0, 64, 64
2, 127812, Note_on_c, 0, 54, 0
2, 127838, Note_on_c, 0, 64, 0
2, 127861, Note_on_c, 0, 62, 67
2, 127874, Note_on_c, 0, 45, 53
2, 127931, Note_on_c, 0, 45, 0
2, 127969, Note_on_c, 0, 62, 0
2, 127995, Note_on_c, 0, 54, 50
2, 127995, Note_on_c, 0, 61, 64
2, 128075, Note_on_c, 0, 54, 0
2, 128108, Note_on_c, 0, 61, 0
2, 128130, Note_on_c, 0, 59, 68
2, 128134, Note_on_c, 0, 43, 55
2, 128205, Note_on_c, 0, 43, 0
2, 128251, Note_on_c, 0, 54, 55
2, 128262, Note_on_c, 0, 62, 67
2, 128275, Note_on_c, 0, 67, 0
2, 128351, Note_on_c, 0, 59, 0
2, 128355, Note_on_c, 0, 54, 0
2, 128375, Note_on_c, 0, 62, 0
2, 128382, Note_on_c, 0, 52, 62
2, 128401, Note_on_c, 0, 61, 62
2, 128493, Note_on_c, 0, 52, 0
2, 128530, Note_on_c, 0, 50, 55
2, 128530, Note_on_c, 0, 61, 0
2, 128534, Note_on_c, 0, 62, 68
2, 128652, Note_on_c, 0, 50, 0
2, 128681, Note_on_c, 0, 49, 53
2, 128691, Note_on_c, 0, 64, 65
2, 128721, Note_on_c, 0, 62, 0
2, 128756, Note_on_c, 0, 49, 0
2, 128837, Note_on_c, 0, 52, 52
2, 128936, Note_on_c, 0, 52, 0
2, 128968, Note_on_c, 0, 47, 50
2, 128991, Note_on_c, 0, 67, 59
2, 129022, Note_on_c, 0, 47, 0
2, 129039, Note_on_c, 0, 67, 0
2, 129091, Note_on_c, 0, 52, 50
2, 129192, Note_on_c, 0, 52, 0
2, 129239, Note_on_c, 0, 64, 0
2, 129257, Note_on_c, 0, 46, 51
2, 129257, Note_on_c, 0, 66, 63
2, 129335, Note_on_c, 0, 46, 0
2, 129391, Note_on_c, 0, 62, 64
2, 129405, Note_on_c, 0, 52, 48
2, 129469, Note_on_c, 0, 62, 0
2, 129510, Note_on_c, 0, 52, 0
2, 129533, Note_on_c, 0, 61, 64
2, 129541, Note_on_c, 0, 44, 57
2, 129598, Note_on_c, 0, 44, 0
2, 129633, Note_on_c, 0, 61, 0
2, 129665, Note_on_c, 0, 59, 70
2, 129673, Note_on_c, 0, 52, 53
2, 129733, Note_on_c, 0, 59, 0
2, 129762, Note_on_c, 0, 52, 0
2, 129792, Note_on_c, 0, 42, 62
2, 129800, Note_on_c, 0, 58, 64
2, 129873, Note_on_c, 0, 66, 0
2, 129900, Note_on_c, 0, 42, 0
2, 129904, Note_on_c, 0, 58, 0
2, 129925, Note_on_c, 0, 61, 67
2, 129934, Note_on_c, 0, 52, 55
2, 129974, Control_c, 0, 64, 41
2, 129992, Control_c, 0, 64, 56
2, 130003, Note_on_c, 0, 52, 0
2, 130003, Note_on_c, 0, 61, 0
2, 130012, Control_c, 0, 64, 61
2, 130031, Control_c, 0, 64, 62
2, 130051, Control_c, 0, 64, 64
2, 130066, Note_on_c, 0, 59, 75
2, 130070, Control_c, 0, 64, 65
2, 130070, Note_on_c, 0, 50, 58
2, 130088, Control_c, 0, 64, 66
2, 130104, Note_on_c, 0, 59, 0
2, 130109, Control_c, 0, 64, 67
2, 130147, Control_c, 0, 64, 66
2, 130159, Note_on_c, 0, 50, 0
2, 130166, Control_c, 0, 64, 64
2, 130184, Control_c, 0, 64, 61
2, 130204, Control_c, 0, 64, 55
2, 130208, Note_on_c, 0, 54, 73
2, 130223, Note_on_c, 0, 71, 80
2, 130226, Control_c, 0, 64, 48
2, 130243, Control_c, 0, 64, 39
2, 130261, Control_c, 0, 64, 30
2, 130281, Control_c, 0, 64, 20
2, 130300, Control_c, 0, 64, 0
2, 130313, Note_on_c, 0, 54, 0
2, 130337, Note_on_c, 0, 71, 0
2, 130346, Note_on_c, 0, 73, 83
2, 130351, Note_on_c, 0, 52, 79
2, 130444, Note_on_c, 0, 73, 0
2, 130469, Note_on_c, 0, 71, 89
2, 130473, Note_on_c, 0, 52, 0
2, 130474, Note_on_c, 0, 50, 74
2, 130543, Note_on_c, 0, 71, 0
2, 130554, Note_on_c, 0, 50, 0
2, 130589, Note_on_c, 0, 49, 79
2, 130605, Note_on_c, 0, 70, 91
2, 130675, Note_on_c, 0, 70, 0
2, 130680, Note_on_c, 0, 49, 0
2, 130718, Note_on_c, 0, 71, 85
2, 130729, Note_on_c, 0, 47, 72
2, 130801, Note_on_c, 0, 71, 0
2, 130817, Note_on_c, 0, 47, 0
2, 130855, Note_on_c, 0, 73, 99
2, 130862, Note_on_c, 0, 46, 75
2, 130922, Note_on_c, 0, 73, 0
2, 130950, Note_on_c, 0, 46, 0
2, 130987, Note_on_c, 0, 49, 74
2, 131089, Note_on_c, 0, 49, 0
2, 131121, Note_on_c, 0, 74, 92
2, 131127, Note_on_c, 0, 47, 78
2, 131190, Note_on_c, 0, 74, 0
2, 131247, Note_on_c, 0, 47, 0
2, 131247, Note_on_c, 0, 73, 91
2, 131252, Note_on_c, 0, 46, 73
2, 131323, Note_on_c, 0, 73, 0
2, 131358, Note_on_c, 0, 46, 0
2, 131363, Note_on_c, 0, 44, 78
2, 131377, Note_on_c, 0, 71, 85
2, 131448, Note_on_c, 0, 71, 0
2, 131452, Note_on_c, 0, 44, 0
2, 131491, Note_on_c, 0, 42, 80
2, 131495, Note_on_c, 0, 73, 91
2, 131568, Note_on_c, 0, 73, 0
2, 131573, Note_on_c, 0, 42, 0
2, 131639, Note_on_c, 0, 47, 85
2, 131648, Note_on_c, 0, 74, 91
2, 131706, Note_on_c, 0, 47, 0
2, 131706, Note_on_c, 0, 74, 0
2, 131921, Note_on_c, 0, 49, 75
2, 131925, Note_on_c, 0, 73, 93
2, 131988, Note_on_c, 0, 73, 0
2, 131997, Note_on_c, 0, 49, 0
2, 132031, Note_on_c, 0, 47, 78
2, 132134, Note_on_c, 0, 47, 0
2, 132178, Note_on_c, 0, 46, 79
2, 132178, Note_on_c, 0, 71, 93
2, 132227, Note_on_c, 0, 71, 0
2, 132289, Note_on_c, 0, 47, 75
2, 132363, Note_on_c, 0, 46, 0
2, 132395, Note_on_c, 0, 47, 0
2, 132436, Note_on_c, 0, 49, 87
2, 132447, Note_on_c, 0, 70, 89
2, 132503, Note_on_c, 0, 49, 0
2, 132508, Note_on_c, 0, 70, 0
2, 132727, Note_on_c, 0, 50, 78
2, 132727, Note_on_c, 0, 79, 97
2, 132816, Note_on_c, 0, 50, 0
2, 132851, Note_on_c, 0, 49, 75
2, 132930, Note_on_c, 0, 49, 0
2, 132983, Note_on_c, 0, 47, 76
2, 133073, Note_on_c, 0, 47, 0
2, 133098, Note_on_c, 0, 49, 75
2, 133179, Note_on_c, 0, 49, 0
2, 133238, Note_on_c, 0, 50, 79
2, 133243, Note_on_c, 0, 79, 0
2, 133247, Note_on_c, 0, 78, 90
2, 133290, Note_on_c, 0, 50, 0
2, 133318, Note_on_c, 0, 78, 0
2, 133524, Note_on_c, 0, 49, 76
2, 133528, Note_on_c, 0, 79, 89
2, 133577, Note_on_c, 0, 49, 0
2, 133646, Note_on_c, 0, 78, 88
2, 133670, Note_on_c, 0, 79, 0
2, 133747, Note_on_c, 0, 78, 0
2, 133778, Note_on_c, 0, 47, 73
2, 133785, Note_on_c, 0, 76, 89
2, 133829, Note_on_c, 0, 47, 0
2, 133860, Note_on_c, 0, 76, 0
2, 133902, Note_on_c, 0, 74, 82
2, 134002, Note_on_c, 0, 74, 0
2, 134047, Note_on_c, 0, 46, 78
2, 134051, Note_on_c, 0, 73, 75
2, 134091, Note_on_c, 0, 46, 0
2, 134119, Note_on_c, 0, 73, 0
2, 134315, Note_on_c, 0, 55, 84
2, 134328, Note_on_c, 0, 76, 80
2, 134445, Note_on_c, 0, 76, 0
2, 134452, Note_on_c, 0, 74, 76
2, 134575, Note_on_c, 0, 74, 0
2, 134595, Note_on_c, 0, 73, 75
2, 134686, Note_on_c, 0, 73, 0
2, 134715, Note_on_c, 0, 71, 70
2, 134833, Note_on_c, 0, 71, 0
2, 134846, Note_on_c, 0, 55, 0
2, 134857, Note_on_c, 0, 54, 66
2, 134861, Note_on_c, 0, 70, 61
2, 134990, Note_on_c, 0, 56, 67
2, 134990, Note_on_c, 0, 71, 63
2, 134991, Note_on_c, 0, 54, 0
2, 135076, Note_on_c, 0, 70, 0
2, 135085, Note_on_c, 0, 56, 0
2, 135095, Note_on_c, 0, 58, 68
2, 135106, Note_on_c, 0, 71, 0
2, 135122, Note_on_c, 0, 73, 79
2, 135199, Note_on_c, 0, 58, 0
2, 135203, Note_on_c, 0, 73, 0
2, 135226, Note_on_c, 0, 54, 66
2, 135226, Note_on_c, 0, 70, 71
2, 135324, Note_on_c, 0, 70, 0
2, 135330, Note_on_c, 0, 54, 0
2, 135358, Note_on_c, 0, 59, 76
2, 135371, Note_on_c, 0, 74, 85
2, 135440, Note_on_c, 0, 59, 0
2, 135469, Note_on_c, 0, 74, 0
2, 135491, Note_on_c, 0, 70, 77
2, 135496, Note_on_c, 0, 54, 74
2, 135608, Note_on_c, 0, 54, 0
2, 135608, Note_on_c, 0, 70, 0
2, 135624, Note_on_c, 0, 76, 92
2, 135632, Note_on_c, 0, 61, 68
2, 135714, Note_on_c, 0, 61, 0
2, 135718, Note_on_c, 0, 76, 0
2, 135752, Note_on_c, 0, 70, 77
2, 135759, Note_on_c, 0, 54, 63
2, 135856, Note_on_c, 0, 54, 0
2, 135883, Note_on_c, 0, 70, 0
2, 135883, Note_on_c, 0, 78, 91
2, 135888, Note_on_c, 0, 62, 72
2, 135973, Note_on_c, 0, 62, 0
2, 136004, Note_on_c, 0, 78, 0
2, 136007, Note_on_c, 0, 54, 68
2, 136014, Note_on_c, 0, 70, 73
2, 136116, Note_on_c, 0, 54, 0
2, 136122, Note_on_c, 0, 70, 0
2, 136155, Note_on_c, 0, 64, 71
2, 136155, Note_on_c, 0, 79, 83
2, 136227, Note_on_c, 0, 64, 0
2, 136251, Note_on_c, 0, 79, 0
2, 136274, Note_on_c, 0, 70, 69
2, 136283, Note_on_c, 0, 54, 64
2, 136389, Note_on_c, 0, 54, 0
2, 136421, Note_on_c, 0, 78, 78
2, 136427, Note_on_c, 0, 62, 62
2, 136438, Note_on_c, 0, 70, 0
2, 136535, Note_on_c, 0, 78, 0
2, 136553, Note_on_c, 0, 70, 74
2, 136561, Note_on_c, 0, 54, 63
2, 136577, Note_on_c, 0, 62, 0
2, 136666, Note_on_c, 0, 70, 0
2, 136671, Note_on_c, 0, 54, 0
2, 136680, Note_on_c, 0, 71, 74
2, 136691, Note_on_c, 0, 55, 62
2, 136773, Note_on_c, 0, 55, 0
2, 136802, Note_on_c, 0, 78, 84
2, 136818, Note_on_c, 0, 62, 70
2, 136824, Note_on_c, 0, 71, 0
2, 136869, Note_on_c, 0, 62, 0
2, 136902, Note_on_c, 0, 78, 0
2, 136909, Note_on_c, 0, 61, 68
2, 136935, Note_on_c, 0, 76, 78
2, 136971, Note_on_c, 0, 76, 0
2, 136986, Note_on_c, 0, 61, 0
2, 136990, Note_on_c, 0, 59, 64
2, 137006, Note_on_c, 0, 74, 72
2, 137035, Note_on_c, 0, 59, 0
2, 137052, Note_on_c, 0, 58, 70
2, 137052, Note_on_c, 0, 74, 0
2, 137063, Note_on_c, 0, 73, 77
2, 137111, Note_on_c, 0, 73, 0
2, 137115, Note_on_c, 0, 74, 74
2, 137133, Note_on_c, 0, 58, 0
2, 137140, Note_on_c, 0, 59, 58
2, 137183, Note_on_c, 0, 59, 0
2, 137188, Note_on_c, 0, 76, 85
2, 137192, Note_on_c, 0, 61, 77
2, 137192, Note_on_c, 0, 74, 0
2, 137264, Note_on_c, 0, 61, 0
2, 137299, Note_on_c, 0, 76, 0
2, 137324, Note_on_c, 0, 52, 67
2, 137328, Note_on_c, 0, 68, 76
2, 137435, Note_on_c, 0, 52, 0
2, 137435, Note_on_c, 0, 54, 67
2, 137447, Note_on_c, 0, 70, 78
2, 137465, Note_on_c, 0, 68, 0
2, 137515, Note_on_c, 0, 54, 0
2, 137541, Note_on_c, 0, 61, 69
2, 137564, Note_on_c, 0, 76, 81
2, 137574, Note_on_c, 0, 70, 0
2, 137614, Note_on_c, 0, 61, 0
2, 137660, Note_on_c, 0, 59, 63
2, 137660, Note_on_c, 0, 76, 0
2, 137678, Note_on_c, 0, 74, 74
2, 137716, Note_on_c, 0, 59, 0
2, 137718, Note_on_c, 0, 74, 0
2, 137725, Note_on_c, 0, 58, 67
2, 137729, Note_on_c, 0, 73, 75
2, 137776, Note_on_c, 0, 73, 0
2, 137783, Note_on_c, 0, 58, 0
2, 137795, Note_on_c, 0, 56, 67
2, 137800, Note_on_c, 0, 71, 71
2, 137837, Note_on_c, 0, 58, 52
2, 137841, Note_on_c, 0, 56, 0
2, 137861, Note_on_c, 0, 71, 0
2, 137861, Note_on_c, 0, 73, 76
2, 137892, Note_on_c, 0, 58, 0
2, 137920, Note_on_c, 0, 59, 73
2, 137941, Note_on_c, 0, 73, 0
2, 137941, Note_on_c, 0, 74, 78
2, 137995, Note_on_c, 0, 59, 0
2, 138049, Note_on_c, 0, 61, 62
2, 138173, Note_on_c, 0, 61, 0
2, 138191, Note_on_c, 0, 62, 74
2, 138281, Note_on_c, 0, 62, 0
2, 138320, Note_on_c, 0, 59, 79
2, 138434, Note_on_c, 0, 59, 0
2, 138452, Note_on_c, 0, 64, 84
2, 138575, Note_on_c, 0, 64, 0
2, 138585, Note_on_c, 0, 59, 77
2, 138658, Note_on_c, 0, 59, 0
2, 138692, Note_on_c, 0, 66, 78
2, 138788, Note_on_c, 0, 66, 0
2, 138848, Note_on_c, 0, 59, 60
2, 138895, Note_on_c, 0, 59, 0
2, 138958, Note_on_c, 0, 68, 69
2, 139038, Note_on_c, 0, 68, 0
2, 139096, Note_on_c, 0, 59, 60
2, 139160, Note_on_c, 0, 59, 0
2, 139219, Note_on_c, 0, 69, 59
2, 139230, Note_on_c, 0, 47, 58
2, 139282, Note_on_c, 0, 47, 0
2, 139289, Note_on_c, 0, 69, 0
2, 139381, Note_on_c, 0, 59, 47
2, 139441, Note_on_c, 0, 59, 0
2, 139487, Note_on_c, 0, 52, 59
2, 139491, Note_on_c, 0, 68, 57
2, 139539, Note_on_c, 0, 68, 0
2, 139587, Note_on_c, 0, 52, 0
2, 139622, Note_on_c, 0, 54, 60
2, 139710, Note_on_c, 0, 54, 0
2, 139753, Note_on_c, 0, 56, 64
2, 139758, Note_on_c, 0, 74, 0
2, 139784, Note_on_c, 0, 64, 49
2, 139788, Note_on_c, 0, 62, 46
2, 139821, Note_on_c, 0, 56, 0
2, 139821, Note_on_c, 0, 62, 0
2, 139821, Note_on_c, 0, 64, 0
2, 139876, Note_on_c, 0, 52, 60
2, 139971, Note_on_c, 0, 52, 0
2, 140009, Note_on_c, 0, 57, 74
2, 140013, Note_on_c, 0, 66, 70
2, 140065, Note_on_c, 0, 66, 0
2, 140074, Note_on_c, 0, 57, 0
2, 140129, Note_on_c, 0, 52, 66
2, 140211, Note_on_c, 0, 52, 0
2, 140268, Note_on_c, 0, 59, 77
2, 140273, Note_on_c, 0, 68, 81
2, 140344, Note_on_c, 0, 59, 0
2, 140349, Note_on_c, 0, 68, 0
2, 140401, Note_on_c, 0, 52, 67
2, 140511, Note_on_c, 0, 52, 0
2, 140543, Note_on_c, 0, 69, 80
2, 140547, Note_on_c, 0, 61, 73
2, 140608, Note_on_c, 0, 69, 0
2, 140621, Note_on_c, 0, 61, 0
2, 140674, Note_on_c, 0, 52, 64
2, 140784, Note_on_c, 0, 52, 0
2, 140825, Note_on_c, 0, 62, 66
2, 140825, Note_on_c, 0, 71, 72
2, 140869, Note_on_c, 0, 71, 0
2, 140883, Note_on_c, 0, 62, 0
2, 140934, Note_on_c, 0, 52, 61
2, 141099, Note_on_c, 0, 64, 54
2, 141119, Note_on_c, 0, 61, 51
2, 141137, Note_on_c, 0, 52, 0
2, 141214, Note_on_c, 0, 64, 0
2, 141228, Note_on_c, 0, 66, 58
2, 141287, Note_on_c, 0, 68, 78
2, 141296, Note_on_c, 0, 66, 0
2, 141317, Note_on_c, 0, 68, 0
2, 141351, Note_on_c, 0, 69, 78
2, 141450, Note_on_c, 0, 69, 0
2, 141497, Note_on_c, 0, 64, 81
2, 141530, Note_on_c, 0, 62, 75
2, 141539, Note_on_c, 0, 61, 0
2, 141579, Note_on_c, 0, 64, 0
2, 141603, Note_on_c, 0, 62, 0
2, 141620, Note_on_c, 0, 71, 81
2, 141640, Note_on_c, 0, 61, 75
2, 141688, Note_on_c, 0, 71, 0
2, 141713, Note_on_c, 0, 61, 0
2, 141742, Note_on_c, 0, 64, 71
2, 141766, Note_on_c, 0, 59, 77
2, 141817, Note_on_c, 0, 59, 0
2, 141837, Note_on_c, 0, 64, 0
2, 141859, Note_on_c, 0, 73, 87
2, 141877, Note_on_c, 0, 57, 77
2, 141926, Note_on_c, 0, 57, 0
2, 141959, Note_on_c, 0, 73, 0
2, 141979, Note_on_c, 0, 59, 79
2, 141993, Note_on_c, 0, 64, 75
2, 142043, Note_on_c, 0, 59, 0
2, 142072, Note_on_c, 0, 64, 0
2, 142105, Note_on_c, 0, 57, 73
2, 142121, Note_on_c, 0, 74, 88
2, 142182, Note_on_c, 0, 57, 0
2, 142214, Note_on_c, 0, 55, 74
2, 142235, Note_on_c, 0, 74, 0
2, 142245, Note_on_c, 0, 66, 78
2, 142294, Note_on_c, 0, 55, 0
2, 142305, Note_on_c, 0, 66, 0
2, 142360, Note_on_c, 0, 54, 79
2, 142371, Note_on_c, 0, 76, 91
2, 142384, Note_on_c, 0, 49, 61
2, 142441, Note_on_c, 0, 49, 0
2, 142448, Note_on_c, 0, 54, 0
2, 142463, Note_on_c, 0, 76, 0
2, 142492, Note_on_c, 0, 67, 76
2, 142508, Note_on_c, 0, 52, 64
2, 142615, Note_on_c, 0, 52, 0
2, 142624, Note_on_c, 0, 50, 71
2, 142643, Note_on_c, 0, 66, 76
2, 142648, Note_on_c, 0, 67, 0
2, 142781, Note_on_c, 0, 67, 72
2, 142789, Note_on_c, 0, 66, 0
2, 142844, Note_on_c, 0, 69, 75
2, 142857, Note_on_c, 0, 67, 0
2, 142901, Note_on_c, 0, 71, 80
2, 142926, Note_on_c, 0, 69, 0
2, 142962, Note_on_c, 0, 50, 0
2, 143000, Note_on_c, 0, 71, 0
2, 143009, Note_on_c, 0, 52, 77
2, 143031, Note_on_c, 0, 66, 80
2, 143078, Note_on_c, 0, 52, 0
2, 143132, Note_on_c, 0, 50, 77
2, 143136, Note_on_c, 0, 66, 0
2, 143154, Note_on_c, 0, 73, 88
2, 143188, Note_on_c, 0, 50, 0
2, 143246, Note_on_c, 0, 73, 0
2, 143263, Note_on_c, 0, 49, 76
2, 143270, Note_on_c, 0, 66, 80
2, 143335, Note_on_c, 0, 49, 0
2, 143360, Note_on_c, 0, 66, 0
2, 143392, Note_on_c, 0, 47, 71
2, 143411, Note_on_c, 0, 74, 89
2, 143475, Note_on_c, 0, 47, 0
2, 143504, Note_on_c, 0, 74, 0
2, 143527, Note_on_c, 0, 66, 80
2, 143529, Note_on_c, 0, 49, 73
2, 143607, Note_on_c, 0, 49, 0
2, 143621, Note_on_c, 0, 66, 0
2, 143657, Note_on_c, 0, 47, 78
2, 143663, Note_on_c, 0, 76, 97
2, 143756, Note_on_c, 0, 47, 0
2, 143760, Note_on_c, 0, 76, 0
2, 143780, Note_on_c, 0, 67, 84
2, 143792, Note_on_c, 0, 45, 59
2, 143818, Note_on_c, 0, 43, 44
2, 143853, Note_on_c, 0, 45, 0
2, 143884, Note_on_c, 0, 67, 0
2, 143908, Note_on_c, 0, 43, 0
2, 143908, Note_on_c, 0, 43, 59
2, 143919, Note_on_c, 0, 78, 94
2, 143998, Note_on_c, 0, 42, 76
2, 144007, Note_on_c, 0, 43, 0
2, 144023, Note_on_c, 0, 78, 0
2, 144037, Note_on_c, 0, 69, 76
2, 144081, Note_on_c, 0, 42, 0
2, 144117, Note_on_c, 0, 69, 0
2, 144159, Note_on_c, 0, 40, 82
2, 144174, Note_on_c, 0, 67, 89
2, 144210, Note_on_c, 0, 40, 0
2, 144242, Note_on_c, 0, 67, 0
2, 144302, Note_on_c, 0, 66, 82
2, 144384, Note_on_c, 0, 66, 0
2, 144431, Note_on_c, 0, 50, 80
2, 144431, Note_on_c, 0, 67, 82
2, 144477, Note_on_c, 0, 50, 0
2, 144519, Note_on_c, 0, 67, 0
2, 144554, Note_on_c, 0, 71, 87
2, 144647, Note_on_c, 0, 71, 0
2, 144684, Note_on_c, 0, 49, 74
2, 144684, Note_on_c, 0, 76, 95
2, 144737, Note_on_c, 0, 49, 0
2, 144782, Note_on_c, 0, 76, 0
2, 144815, Note_on_c, 0, 67, 78
2, 144894, Note_on_c, 0, 67, 0
2, 144941, Note_on_c, 0, 50, 87
2, 144950, Note_on_c, 0, 66, 86
2, 144969, Control_c, 0, 64, 26
2, 144988, Control_c, 0, 64, 41
2, 145026, Note_on_c, 0, 50, 0
2, 145030, Control_c, 0, 64, 37
2, 145035, Note_on_c, 0, 66, 0
2, 145045, Control_c, 0, 64, 30
2, 145063, Control_c, 0, 64, 25
2, 145081, Note_on_c, 0, 71, 79
2, 145101, Control_c, 0, 64, 24
2, 145121, Control_c, 0, 64, 15
2, 145139, Control_c, 0, 64, 0
2, 145161, Note_on_c, 0, 71, 0
2, 145199, Note_on_c, 0, 52, 86
2, 145212, Note_on_c, 0, 69, 83
2, 145261, Note_on_c, 0, 52, 0
2, 145285, Note_on_c, 0, 69, 0
2, 145319, Note_on_c, 0, 50, 82
2, 145324, Note_on_c, 0, 73, 88
2, 145391, Note_on_c, 0, 50, 0
2, 145407, Note_on_c, 0, 73, 0
2, 145447, Note_on_c, 0, 47, 88
2, 145451, Note_on_c, 0, 74, 90
2, 145455, Note_on_c, 0, 49, 80
2, 145518, Note_on_c, 0, 47, 0
2, 145564, Note_on_c, 0, 50, 88
2, 145601, Note_on_c, 0, 49, 0
2, 145633, Note_on_c, 0, 50, 0
2, 145732, Note_on_c, 0, 52, 93
2, 145734, Note_on_c, 0, 43, 88
2, 145784, Note_on_c, 0, 43, 0
2, 145784, Note_on_c, 0, 52, 0
2, 145993, Note_on_c, 0, 54, 82
2, 146002, Note_on_c, 0, 45, 83
2, 146017, Note_on_c, 0, 73, 90
2, 146030, Note_on_c, 0, 54, 0
2, 146031, Note_on_c, 0, 55, 61
2, 146054, Note_on_c, 0, 74, 0
2, 146058, Note_on_c, 0, 55, 0
2, 146153, Note_on_c, 0, 52, 77
2, 146178, Note_on_c, 0, 51, 17
2, 146211, Note_on_c, 0, 51, 0
2, 146229, Note_on_c, 0, 52, 0
2, 146246, Note_on_c, 0, 50, 82
2, 146313, Note_on_c, 0, 73, 0
2, 146360, Note_on_c, 0, 45, 0
2, 146360, Note_on_c, 0, 52, 84
2, 146382, Note_on_c, 0, 50, 0
2, 146460, Note_on_c, 0, 52, 0
2, 146509, Note_on_c, 0, 54, 90
2, 146518, Note_on_c, 0, 50, 84
2, 146522, Note_on_c, 0, 74, 93
2, 146567, Note_on_c, 0, 50, 0
2, 146574, Note_on_c, 0, 54, 0
2, 146574, Note_on_c, 0, 74, 0
2, 146794, Note_on_c, 0, 49, 71
2, 146798, Note_on_c, 0, 52, 79
2, 146802, Note_on_c, 0, 76, 92
2, 146847, Note_on_c, 0, 52, 0
2, 146863, Note_on_c, 0, 49, 0
2, 146887, Note_on_c, 0, 76, 0
2, 146931, Note_on_c, 0, 74, 84
2, 147000, Note_on_c, 0, 74, 0
2, 147057, Note_on_c, 0, 73, 96
2, 147062, Note_on_c, 0, 50, 82
2, 147066, Note_on_c, 0, 47, 72
2, 147125, Note_on_c, 0, 50, 0
2, 147129, Note_on_c, 0, 47, 0
2, 147151, Note_on_c, 0, 73, 0
2, 147177, Note_on_c, 0, 74, 86
2, 147271, Note_on_c, 0, 74, 0
2, 147313, Note_on_c, 0, 49, 83
2, 147319, Note_on_c, 0, 45, 76
2, 147319, Note_on_c, 0, 76, 91
2, 147380, Note_on_c, 0, 76, 0
2, 147389, Note_on_c, 0, 49, 0
2, 147590, Note_on_c, 0, 59, 91
2, 147597, Note_on_c, 0, 78, 92
2, 147686, Note_on_c, 0, 78, 0
2, 147731, Note_on_c, 0, 76, 90
2, 147811, Note_on_c, 0, 76, 0
2, 147851, Note_on_c, 0, 74, 87
2, 147936, Note_on_c, 0, 74, 0
2, 147977, Note_on_c, 0, 76, 86
2, 148004, Note_on_c, 0, 59, 0
2, 148071, Note_on_c, 0, 76, 0
2, 148105, Note_on_c, 0, 57, 79
2, 148118, Note_on_c, 0, 78, 89
2, 148171, Note_on_c, 0, 57, 0
2, 148216, Note_on_c, 0, 78, 0
2, 148387, Note_on_c, 0, 59, 73
2, 148396, Note_on_c, 0, 79, 91
2, 148473, Note_on_c, 0, 59, 0
2, 148526, Note_on_c, 0, 78, 88
2, 148530, Note_on_c, 0, 57, 71
2, 148555, Note_on_c, 0, 79, 0
2, 148575, Note_on_c, 0, 55, 42
2, 148589, Note_on_c, 0, 57, 0
2, 148618, Note_on_c, 0, 78, 0
2, 148639, Note_on_c, 0, 55, 0
2, 148639, Note_on_c, 0, 55, 63
2, 148650, Note_on_c, 0, 76, 90
2, 148752, Note_on_c, 0, 76, 0
2, 148767, Note_on_c, 0, 74, 86
2, 148789, Note_on_c, 0, 54, 72
2, 148793, Note_on_c, 0, 55, 0
2, 148831, Note_on_c, 0, 54, 0
2, 148860, Note_on_c, 0, 74, 0
2, 148909, Note_on_c, 0, 52, 76
2, 148917, Note_on_c, 0, 73, 91
2, 149004, Note_on_c, 0, 73, 0
2, 149101, Note_on_c, 0, 52, 0
2, 149217, Note_on_c, 0, 55, 66
2, 149217, Note_on_c, 0, 83, 92
2, 149331, Note_on_c, 0, 55, 0
2, 149345, Note_on_c, 0, 54, 77
2, 149420, Note_on_c, 0, 54, 0
2, 149492, Note_on_c, 0, 52, 71
2, 149623, Note_on_c, 0, 52, 0
2, 149636, Note_on_c, 0, 50, 70
2, 149799, Note_on_c, 0, 49, 64
2, 149873, Note_on_c, 0, 50, 0
2, 149883, Control_c, 0, 64, 23
2, 149900, Control_c, 0, 64, 35
2, 149920, Control_c, 0, 64, 42
2, 149943, Control_c, 0, 64, 49
2, 149963, Control_c, 0, 64, 55
2, 149978, Control_c, 0, 64, 58
2, 149992, Note_on_c, 0, 81, 82
2, 149997, Control_c, 0, 64, 59
2, 150002, Note_on_c, 0, 83, 0
2, 150037, Control_c, 0, 64, 60
2, 150076, Control_c, 0, 64, 61
2, 150132, Control_c, 0, 64, 60
2, 150137, Note_on_c, 0, 83, 81
2, 150169, Note_on_c, 0, 81, 0
2, 150247, Control_c, 0, 64, 59
2, 150274, Note_on_c, 0, 81, 84
2, 150331, Note_on_c, 0, 49, 0
2, 150351, Note_on_c, 0, 83, 0
2, 150381, Control_c, 0, 64, 57
2, 150397, Note_on_c, 0, 50, 61
2, 150402, Control_c, 0, 64, 47
2, 150408, Note_on_c, 0, 79, 87
2, 150420, Control_c, 0, 64, 29
2, 150424, Note_on_c, 0, 81, 0
2, 150440, Control_c, 0, 64, 0
2, 150516, Control_c, 0, 64, 18
2, 150520, Note_on_c, 0, 79, 0
2, 150535, Control_c, 0, 64, 43
2, 150542, Note_on_c, 0, 78, 79
2, 150554, Control_c, 0, 64, 55
2, 150575, Control_c, 0, 64, 59
2, 150593, Control_c, 0, 64, 60
2, 150633, Control_c, 0, 64, 62
2, 150633, Note_on_c, 0, 45, 0
2, 150641, Note_on_c, 0, 78, 0
2, 150669, Note_on_c, 0, 76, 74
2, 150673, Control_c, 0, 64, 63
2, 150678, Note_on_c, 0, 50, 0
2, 150746, Control_c, 0, 64, 62
2, 150751, Note_on_c, 0, 76, 0
2, 150778, Note_on_c, 0, 78, 79
2, 150782, Note_on_c, 0, 55, 63
2, 150787, Control_c, 0, 64, 61
2, 150803, Control_c, 0, 64, 55
2, 150821, Note_on_c, 0, 78, 0
2, 150823, Control_c, 0, 64, 43
2, 150837, Note_on_c, 0, 55, 0
2, 150844, Control_c, 0, 64, 26
2, 150860, Control_c, 0, 64, 17
2, 150869, Note_on_c, 0, 54, 70
2, 150883, Control_c, 0, 64, 16
2, 150883, Note_on_c, 0, 76, 63
2, 150903, Control_c, 0, 64, 15
2, 150917, Note_on_c, 0, 76, 0
2, 150921, Note_on_c, 0, 78, 80
2, 150928, Note_on_c, 0, 54, 0
2, 150941, Control_c, 0, 64, 11
2, 150950, Note_on_c, 0, 52, 64
2, 150954, Note_on_c, 0, 78, 0
2, 150957, Control_c, 0, 64, 9
2, 150978, Control_c, 0, 64, 0
2, 150989, Note_on_c, 0, 52, 0
2, 150991, Note_on_c, 0, 76, 76
2, 151041, Note_on_c, 0, 55, 58
2, 151051, Note_on_c, 0, 76, 0
2, 151060, Note_on_c, 0, 78, 56
2, 151064, Note_on_c, 0, 78, 0
2, 151095, Note_on_c, 0, 55, 0
2, 151126, Note_on_c, 0, 74, 59
2, 151148, Note_on_c, 0, 50, 74
2, 151155, Note_on_c, 0, 74, 0
2, 151161, Note_on_c, 0, 76, 24
2, 151200, Note_on_c, 0, 50, 0
2, 151204, Note_on_c, 0, 77, 37
2, 151215, Note_on_c, 0, 76, 0
2, 151239, Note_on_c, 0, 77, 0
2, 151271, Note_on_c, 0, 76, 66
2, 151283, Note_on_c, 0, 55, 51
2, 151308, Note_on_c, 0, 76, 0
2, 151321, Note_on_c, 0, 78, 74
2, 151339, Note_on_c, 0, 55, 0
2, 151357, Note_on_c, 0, 78, 0
2, 151396, Note_on_c, 0, 49, 65
2, 151396, Note_on_c, 0, 76, 70
2, 151438, Note_on_c, 0, 76, 0
2, 151442, Note_on_c, 0, 78, 77
2, 151458, Note_on_c, 0, 49, 0
2, 151497, Note_on_c, 0, 78, 0
2, 151512, Note_on_c, 0, 55, 53
2, 151534, Note_on_c, 0, 76, 66
2, 151576, Note_on_c, 0, 76, 0
2, 151587, Note_on_c, 0, 78, 74
2, 151596, Note_on_c, 0, 55, 0
2, 151625, Note_on_c, 0, 78, 0
2, 151656, Note_on_c, 0, 76, 70
2, 151660, Note_on_c, 0, 47, 67
2, 151705, Note_on_c, 0, 47, 0
2, 151709, Note_on_c, 0, 76, 0
2, 151714, Note_on_c, 0, 78, 75
2, 151766, Note_on_c, 0, 55, 50
2, 151766, Note_on_c, 0, 78, 0
2, 151798, Note_on_c, 0, 76, 63
2, 151836, Note_on_c, 0, 55, 0
2, 151844, Note_on_c, 0, 76, 0
2, 151859, Note_on_c, 0, 78, 73
2, 151907, Note_on_c, 0, 78, 0
2, 151911, Note_on_c, 0, 45, 31
2, 151939, Note_on_c, 0, 76, 59
2, 151960, Note_on_c, 0, 45, 0
2, 151991, Note_on_c, 0, 76, 0
2, 151996, Note_on_c, 0, 55, 48
2, 152012, Note_on_c, 0, 78, 66
2, 152049, Note_on_c, 0, 78, 0
2, 152127, Note_on_c, 0, 78, 72
2, 152180, Note_on_c, 0, 55, 0
2, 152185, Note_on_c, 0, 78, 0
2, 152200, Note_on_c, 0, 54, 55
2, 152226, Note_on_c, 0, 76, 58
2, 152312, Note_on_c, 0, 54, 0
2, 152323, Note_on_c, 0, 76, 0
2, 152348, Note_on_c, 0, 81, 69
2, 152357, Note_on_c, 0, 55, 57
2, 152418, Note_on_c, 0, 81, 0
2, 152429, Note_on_c, 0, 79, 71
2, 152445, Note_on_c, 0, 55, 0
2, 152471, Note_on_c, 0, 57, 70
2, 152489, Note_on_c, 0, 79, 0
2, 152504, Note_on_c, 0, 78, 75
2, 152613, Note_on_c, 0, 52, 67
2, 152649, Note_on_c, 0, 78, 0
2, 152664, Note_on_c, 0, 81, 65
2, 152726, Note_on_c, 0, 81, 0
2, 152735, Note_on_c, 0, 52, 0
2, 152758, Note_on_c, 0, 50, 58
2, 152776, Note_on_c, 0, 76, 67
2, 152867, Note_on_c, 0, 76, 0
2, 152885, Note_on_c, 0, 49, 64
2, 152898, Note_on_c, 0, 57, 0
2, 152902, Note_on_c, 0, 81, 59
2, 152951, Note_on_c, 0, 50, 0
2, 152984, Note_on_c, 0, 81, 0
2, 153006, Note_on_c, 0, 49, 0
2, 153034, Note_on_c, 0, 47, 69
2, 153034, Note_on_c, 0, 74, 65
2, 153114, Note_on_c, 0, 47, 0
2, 153118, Note_on_c, 0, 74, 0
2, 153161, Note_on_c, 0, 55, 65
2, 153168, Note_on_c, 0, 81, 61
2, 153262, Note_on_c, 0, 81, 0
2, 153283, Note_on_c, 0, 54, 77
2, 153287, Note_on_c, 0, 55, 0
2, 153300, Note_on_c, 0, 73, 72
2, 153362, Note_on_c, 0, 54, 0
2, 153389, Note_on_c, 0, 73, 0
2, 153408, Note_on_c, 0, 52, 78
2, 153426, Note_on_c, 0, 81, 71
2, 153488, Note_on_c, 0, 52, 0
2, 153530, Note_on_c, 0, 81, 0
2, 153539, Note_on_c, 0, 50, 75
2, 153559, Note_on_c, 0, 71, 78
2, 153653, Note_on_c, 0, 50, 0
2, 153674, Note_on_c, 0, 81, 75
2, 153678, Note_on_c, 0, 71, 0
2, 153696, Note_on_c, 0, 54, 71
2, 153765, Note_on_c, 0, 54, 0
2, 153792, Note_on_c, 0, 81, 0
2, 153812, Note_on_c, 0, 79, 80
2, 153817, Note_on_c, 0, 52, 72
2, 153905, Note_on_c, 0, 52, 0
2, 153941, Note_on_c, 0, 54, 70
2, 153941, Note_on_c, 0, 79, 0
2, 153947, Note_on_c, 0, 78, 76
2, 154040, Note_on_c, 0, 54, 0
2, 154069, Note_on_c, 0, 78, 0
2, 154073, Note_on_c, 0, 76, 75
2, 154082, Note_on_c, 0, 55, 69
2, 154213, Note_on_c, 0, 79, 75
2, 154218, Note_on_c, 0, 50, 64
2, 154222, Note_on_c, 0, 76, 0
2, 154313, Note_on_c, 0, 50, 0
2, 154351, Note_on_c, 0, 49, 61
2, 154351, Note_on_c, 0, 79, 0
2, 154356, Note_on_c, 0, 74, 67
2, 154444, Note_on_c, 0, 49, 0
2, 154475, Note_on_c, 0, 74, 0
2, 154495, Note_on_c, 0, 79, 72
2, 154502, Note_on_c, 0, 47, 58
2, 154611, Note_on_c, 0, 47, 0
2, 154622, Note_on_c, 0, 73, 71
2, 154624, Note_on_c, 0, 79, 0
2, 154638, Note_on_c, 0, 45, 60
2, 154693, Note_on_c, 0, 55, 0
2, 154767, Note_on_c, 0, 79, 72
2, 154773, Note_on_c, 0, 45, 0
2, 154773, Note_on_c, 0, 73, 0
2, 154798, Note_on_c, 0, 54, 72
2, 154869, Note_on_c, 0, 54, 0
2, 154889, Note_on_c, 0, 79, 0
2, 154898, Note_on_c, 0, 71, 69
2, 154908, Note_on_c, 0, 52, 77
2, 155006, Note_on_c, 0, 71, 0
2, 155033, Note_on_c, 0, 50, 80
2, 155033, Note_on_c, 0, 52, 0
2, 155041, Note_on_c, 0, 79, 74
2, 155133, Note_on_c, 0, 50, 0
2, 155163, Note_on_c, 0, 49, 78
2, 155163, Note_on_c, 0, 79, 0
2, 155189, Note_on_c, 0, 69, 72
2, 155245, Note_on_c, 0, 49, 0
2, 155287, Note_on_c, 0, 52, 76
2, 155305, Note_on_c, 0, 79, 79
2, 155315, Note_on_c, 0, 69, 0
2, 155409, Note_on_c, 0, 52, 0
2, 155431, Note_on_c, 0, 50, 70
2, 155448, Note_on_c, 0, 78, 84
2, 155464, Note_on_c, 0, 79, 0
2, 155527, Note_on_c, 0, 50, 0
2, 155547, Note_on_c, 0, 52, 74
2, 155547, Note_on_c, 0, 78, 0
2, 155580, Note_on_c, 0, 76, 81
2, 155643, Note_on_c, 0, 52, 0
2, 155693, Note_on_c, 0, 54, 73
2, 155693, Note_on_c, 0, 76, 0
2, 155713, Note_on_c, 0, 74, 79
2, 155811, Note_on_c, 0, 74, 0
2, 155816, Note_on_c, 0, 48, 66
2, 155847, Note_on_c, 0, 78, 80
2, 155893, Note_on_c, 0, 48, 0
2, 155946, Note_on_c, 0, 78, 0
2, 155953, Note_on_c, 0, 47, 52
2, 155990, Note_on_c, 0, 72, 73
2, 155995, Note_on_c, 0, 48, 28
2, 156003, Note_on_c, 0, 47, 0
2, 156003, Note_on_c, 0, 47, 19
2, 156048, Note_on_c, 0, 48, 0
2, 156075, Note_on_c, 0, 45, 63
2, 156081, Note_on_c, 0, 47, 0
2, 156086, Note_on_c, 0, 72, 0
2, 156103, Note_on_c, 0, 54, 0
2, 156103, Note_on_c, 0, 78, 69
2, 156185, Note_on_c, 0, 45, 0
2, 156205, Note_on_c, 0, 43, 72
2, 156210, Note_on_c, 0, 78, 0
2, 156237, Note_on_c, 0, 71, 71
2, 156294, Note_on_c, 0, 43, 0
2, 156330, Note_on_c, 0, 71, 0
2, 156334, Note_on_c, 0, 47, 74
2, 156359, Note_on_c, 0, 78, 76
2, 156427, Note_on_c, 0, 47, 0
2, 156467, Note_on_c, 0, 49, 77
2, 156471, Note_on_c, 0, 78, 0
2, 156493, Note_on_c, 0, 69, 68
2, 156541, Note_on_c, 0, 49, 0
2, 156564, Note_on_c, 0, 69, 0
2, 156603, Note_on_c, 0, 50, 77
2, 156619, Note_on_c, 0, 78, 74
2, 156685, Note_on_c, 0, 50, 0
2, 156727, Note_on_c, 0, 78, 0
2, 156740, Note_on_c, 0, 52, 82
2, 156752, Note_on_c, 0, 67, 78
2, 156871, Note_on_c, 0, 54, 77
2, 156875, Note_on_c, 0, 52, 0
2, 156880, Note_on_c, 0, 67, 0
2, 156880, Note_on_c, 0, 78, 80
2, 157010, Note_on_c, 0, 54, 0
2, 157015, Note_on_c, 0, 55, 80
2, 157015, Note_on_c, 0, 78, 0
2, 157019, Note_on_c, 0, 76, 85
2, 157126, Note_on_c, 0, 55, 0
2, 157152, Note_on_c, 0, 74, 85
2, 157156, Note_on_c, 0, 57, 78
2, 157165, Note_on_c, 0, 76, 0
2, 157230, Note_on_c, 0, 57, 0
2, 157230, Note_on_c, 0, 74, 0
2, 157268, Note_on_c, 0, 55, 71
2, 157276, Note_on_c, 0, 73, 86
2, 157365, Note_on_c, 0, 55, 0
2, 157365, Note_on_c, 0, 73, 0
2, 157406, Note_on_c, 0, 54, 72
2, 157406, Note_on_c, 0, 76, 86
2, 157463, Note_on_c, 0, 54, 0
2, 157489, Note_on_c, 0, 76, 0
2, 157531, Note_on_c, 0, 52, 73
2, 157542, Note_on_c, 0, 71, 81
2, 157620, Note_on_c, 0, 52, 0
2, 157625, Note_on_c, 0, 71, 0
2, 157655, Note_on_c, 0, 50, 69
2, 157662, Note_on_c, 0, 76, 78
2, 157722, Note_on_c, 0, 50, 0
2, 157741, Note_on_c, 0, 76, 0
2, 157789, Note_on_c, 0, 49, 74
2, 157793, Note_on_c, 0, 69, 76
2, 157874, Note_on_c, 0, 49, 0
2, 157874, Note_on_c, 0, 69, 0
2, 157920, Note_on_c, 0, 76, 80
2, 157929, Note_on_c, 0, 45, 70
2, 157976, Note_on_c, 0, 45, 0
2, 158028, Note_on_c, 0, 76, 0
2, 158043, Note_on_c, 0, 47, 82
2, 158056, Note_on_c, 0, 67, 84
2, 158118, Control_c, 0, 64, 17
2, 158118, Note_on_c, 0, 47, 0
2, 158134, Control_c, 0, 64, 0
2, 158139, Note_on_c, 0, 67, 0
2, 158170, Note_on_c, 0, 49, 82
2, 158178, Note_on_c, 0, 76, 80
2, 158244, Note_on_c, 0, 49, 0
2, 158300, Note_on_c, 0, 50, 83
2, 158304, Note_on_c, 0, 76, 0
2, 158310, Note_on_c, 0, 66, 86
2, 158386, Note_on_c, 0, 50, 0
2, 158386, Note_on_c, 0, 66, 0
2, 158428, Note_on_c, 0, 76, 95
2, 158435, Note_on_c, 0, 52, 82
2, 158526, Note_on_c, 0, 76, 0
2, 158555, Note_on_c, 0, 52, 0
2, 158565, Note_on_c, 0, 74, 92
2, 158572, Note_on_c, 0, 54, 82
2, 158646, Note_on_c, 0, 74, 0
2, 158659, Note_on_c, 0, 54, 0
2, 158693, Note_on_c, 0, 55, 82
2, 158713, Note_on_c, 0, 66, 87
2, 158767, Note_on_c, 0, 55, 0
2, 158807, Note_on_c, 0, 66, 0
2, 158830, Note_on_c, 0, 57, 86
2, 158855, Note_on_c, 0, 64, 73
2, 158859, Note_on_c, 0, 62, 76
2, 158891, Note_on_c, 0, 62, 0
2, 158900, Note_on_c, 0, 57, 0
2, 158909, Note_on_c, 0, 64, 0
2, 158973, Note_on_c, 0, 67, 82
2, 159045, Note_on_c, 0, 67, 0
2, 159092, Note_on_c, 0, 45, 76
2, 159108, Note_on_c, 0, 74, 86
2, 159130, Note_on_c, 0, 45, 0
2, 159176, Note_on_c, 0, 74, 0
2, 159239, Note_on_c, 0, 73, 84
2, 159320, Note_on_c, 0, 73, 0
2, 159363, Control_c, 0, 64, 19
2, 159379, Note_on_c, 0, 50, 76
2, 159379, Note_on_c, 0, 74, 84
2, 159383, Control_c, 0, 64, 48
2, 159402, Control_c, 0, 64, 58
2, 159420, Note_on_c, 0, 50, 0
2, 159424, Control_c, 0, 64, 61
2, 159440, Control_c, 0, 64, 63
2, 159451, Note_on_c, 0, 74, 0
2, 159462, Control_c, 0, 64, 64
2, 159477, Note_on_c, 0, 76, 78
2, 159481, Control_c, 0, 64, 65
2, 159535, Note_on_c, 0, 76, 0
2, 159539, Control_c, 0, 64, 64
2, 159557, Control_c, 0, 64, 63
2, 159577, Control_c, 0, 64, 61
2, 159577, Note_on_c, 0, 74, 72
2, 159595, Control_c, 0, 64, 57
2, 159611, Note_on_c, 0, 74, 0
2, 159611, Note_on_c, 0, 76, 74
2, 159616, Control_c, 0, 64, 46
2, 159633, Control_c, 0, 64, 32
2, 159648, Note_on_c, 0, 48, 73
2, 159653, Control_c, 0, 64, 20
2, 159670, Control_c, 0, 64, 0
2, 159670, Note_on_c, 0, 76, 0
2, 159680, Note_on_c, 0, 74, 79
2, 159734, Note_on_c, 0, 48, 0
2, 159739, Note_on_c, 0, 74, 0
2, 159739, Note_on_c, 0, 76, 80
2, 159756, Note_on_c, 0, 50, 75
2, 159795, Note_on_c, 0, 76, 0
2, 159806, Note_on_c, 0, 74, 83
2, 159854, Note_on_c, 0, 50, 0
2, 159872, Note_on_c, 0, 74, 0
2, 159876, Note_on_c, 0, 52, 72
2, 159880, Note_on_c, 0, 76, 84
2, 159931, Note_on_c, 0, 76, 0
2, 159940, Note_on_c, 0, 74, 76
2, 159957, Note_on_c, 0, 52, 0
2, 159993, Note_on_c, 0, 50, 63
2, 160019, Note_on_c, 0, 74, 0
2, 160019, Note_on_c, 0, 76, 88
2, 160074, Note_on_c, 0, 50, 0
2, 160081, Note_on_c, 0, 76, 0
2, 160110, Note_on_c, 0, 74, 72
2, 160119, Note_on_c, 0, 48, 78
2, 160183, Note_on_c, 0, 48, 0
2, 160394, Note_on_c, 0, 47, 72
2, 160461, Note_on_c, 0, 47, 0
2, 160514, Note_on_c, 0, 48, 73
2, 160604, Note_on_c, 0, 48, 0
2, 160644, Note_on_c, 0, 50, 73
2, 160720, Note_on_c, 0, 50, 0
2, 160767, Note_on_c, 0, 48, 67
2, 160831, Note_on_c, 0, 48, 0
2, 160911, Note_on_c, 0, 47, 74
2, 160949, Note_on_c, 0, 47, 0
2, 161028, Note_on_c, 0, 67, 66
2, 161117, Note_on_c, 0, 67, 0
2, 161154, Note_on_c, 0, 65, 65
2, 161172, Note_on_c, 0, 48, 72
2, 161207, Note_on_c, 0, 48, 0
2, 161211, Note_on_c, 0, 65, 0
2, 161283, Note_on_c, 0, 64, 69
2, 161375, Note_on_c, 0, 64, 0
2, 161422, Note_on_c, 0, 50, 84
2, 161422, Note_on_c, 0, 62, 78
2, 161464, Note_on_c, 0, 50, 0
2, 161497, Note_on_c, 0, 62, 0
2, 161542, Note_on_c, 0, 65, 66
2, 161653, Note_on_c, 0, 65, 0
2, 161684, Note_on_c, 0, 64, 83
2, 161694, Note_on_c, 0, 55, 79
2, 161761, Note_on_c, 0, 55, 0
2, 161761, Note_on_c, 0, 64, 0
2, 161765, Note_on_c, 0, 74, 0
2, 161808, Note_on_c, 0, 65, 62
2, 161940, Note_on_c, 0, 65, 0
2, 161960, Note_on_c, 0, 72, 90
2, 161969, Note_on_c, 0, 45, 80
2, 161969, Note_on_c, 0, 64, 76
2, 162019, Note_on_c, 0, 64, 0
2, 162108, Note_on_c, 0, 62, 76
2, 162198, Note_on_c, 0, 62, 0
2, 162232, Note_on_c, 0, 60, 70
2, 162248, Note_on_c, 0, 45, 0
2, 162327, Note_on_c, 0, 60, 0
2, 162366, Note_on_c, 0, 64, 72
2, 162472, Note_on_c, 0, 64, 0
2, 162496, Note_on_c, 0, 47, 76
2, 162496, Note_on_c, 0, 62, 84
2, 162558, Note_on_c, 0, 47, 0
2, 162566, Note_on_c, 0, 62, 0
2, 162573, Note_on_c, 0, 72, 0
2, 162622, Note_on_c, 0, 64, 74
2, 162717, Note_on_c, 0, 64, 0
2, 162748, Note_on_c, 0, 48, 81
2, 162754, Note_on_c, 0, 62, 86
2, 162754, Note_on_c, 0, 71, 91
2, 162806, Note_on_c, 0, 48, 0
2, 162845, Note_on_c, 0, 62, 0
2, 162888, Note_on_c, 0, 60, 73
2, 162978, Note_on_c, 0, 60, 0
2, 163027, Note_on_c, 0, 50, 82
2, 163031, Note_on_c, 0, 59, 85
2, 163080, Note_on_c, 0, 50, 0
2, 163098, Note_on_c, 0, 59, 0
2, 163152, Note_on_c, 0, 62, 79
2, 163265, Note_on_c, 0, 62, 0
2, 163294, Note_on_c, 0, 52, 85
2, 163294, Note_on_c, 0, 60, 87
2, 163365, Note_on_c, 0, 52, 0
2, 163370, Note_on_c, 0, 60, 0
2, 163414, Note_on_c, 0, 62, 78
2, 163425, Note_on_c, 0, 71, 0
2, 163515, Note_on_c, 0, 62, 0
2, 163564, Note_on_c, 0, 42, 74
2, 163564, Note_on_c, 0, 60, 80
2, 163565, Note_on_c, 0, 69, 89
2, 163620, Note_on_c, 0, 60, 0
2, 163698, Note_on_c, 0, 59, 84
2, 163779, Note_on_c, 0, 42, 0
2, 163788, Note_on_c, 0, 59, 0
2, 163820, Note_on_c, 0, 57, 87
2, 163945, Note_on_c, 0, 60, 84
2, 163949, Note_on_c, 0, 57, 0
2, 163958, Note_on_c, 0, 69, 0
2, 164057, Note_on_c, 0, 60, 0
2, 164100, Note_on_c, 0, 59, 82
2, 164109, Control_c, 0, 64, 30
2, 164113, Note_on_c, 0, 43, 71
2, 164125, Control_c, 0, 64, 48
2, 164145, Control_c, 0, 64, 56
2, 164163, Control_c, 0, 64, 60
2, 164183, Control_c, 0, 64, 63
2, 164201, Control_c, 0, 64, 66
2, 164214, Note_on_c, 0, 43, 0
2, 164223, Control_c, 0, 64, 70
2, 164234, Note_on_c, 0, 67, 84
2, 164241, Control_c, 0, 64, 76
2, 164259, Control_c, 0, 64, 79
2, 164278, Control_c, 0, 64, 81
2, 164320, Control_c, 0, 64, 78
2, 164335, Control_c, 0, 64, 76
2, 164356, Control_c, 0, 64, 73
2, 164361, Note_on_c, 0, 67, 0
2, 164378, Control_c, 0, 64, 72
2, 164383, Note_on_c, 0, 69, 86
2, 164398, Control_c, 0, 64, 70
2, 164398, Note_on_c, 0, 42, 76
2, 164412, Control_c, 0, 64, 68
2, 164432, Control_c, 0, 64, 66
2, 164452, Control_c, 0, 64, 64
2, 164452, Note_on_c, 0, 42, 0
2, 164473, Control_c, 0, 64, 63
2, 164515, Control_c, 0, 64, 62
2, 164519, Note_on_c, 0, 43, 73
2, 164519, Note_on_c, 0, 67, 87
2, 164530, Note_on_c, 0, 69, 0
2, 164548, Control_c, 0, 64, 61
2, 164568, Control_c, 0, 64, 60
2, 164597, Note_on_c, 0, 67, 0
2, 164606, Control_c, 0, 64, 59
2, 164627, Control_c, 0, 64, 58
2, 164627, Note_on_c, 0, 43, 0
2, 164636, Note_on_c, 0, 45, 72
2, 164649, Note_on_c, 0, 66, 91
2, 164664, Control_c, 0, 64, 57
2, 164687, Note_on_c, 0, 45, 0
2, 164701, Control_c, 0, 64, 55
2, 164724, Control_c, 0, 64, 51
2, 164726, Note_on_c, 0, 59, 0
2, 164737, Note_on_c, 0, 66, 0
2, 164742, Control_c, 0, 64, 43
2, 164747, Note_on_c, 0, 47, 66
2, 164755, Note_on_c, 0, 67, 77
2, 164760, Control_c, 0, 64, 24
2, 164780, Control_c, 0, 64, 0
2, 164830, Note_on_c, 0, 67, 0
2, 164859, Note_on_c, 0, 47, 0
2, 164908, Note_on_c, 0, 36, 73
2, 164913, Control_c, 0, 64, 41
2, 164919, Note_on_c, 0, 66, 83
2, 164935, Control_c, 0, 64, 56
2, 164951, Control_c, 0, 64, 61
2, 164951, Note_on_c, 0, 57, 59
2, 164955, Note_on_c, 0, 36, 0
2, 164971, Control_c, 0, 64, 63
2, 164981, Note_on_c, 0, 57, 0
2, 164991, Control_c, 0, 64, 65
2, 165011, Control_c, 0, 64, 67
2, 165029, Control_c, 0, 64, 71
2, 165038, Note_on_c, 0, 66, 0
2, 165046, Control_c, 0, 64, 74
2, 165055, Note_on_c, 0, 62, 80
2, 165066, Control_c, 0, 64, 75
2, 165086, Control_c, 0, 64, 74
2, 165105, Control_c, 0, 64, 71
2, 165124, Control_c, 0, 64, 69
2, 165138, Note_on_c, 0, 62, 0
2, 165147, Control_c, 0, 64, 66
2, 165147, Note_on_c, 0, 64, 74
2, 165162, Control_c, 0, 64, 60
2, 165181, Control_c, 0, 64, 50
2, 165192, Note_on_c, 0, 60, 81
2, 165203, Control_c, 0, 64, 35
2, 165203, Note_on_c, 0, 66, 79
2, 165219, Control_c, 0, 64, 24
2, 165229, Note_on_c, 0, 64, 0
2, 165240, Control_c, 0, 64, 18
2, 165258, Control_c, 0, 64, 8
2, 165276, Control_c, 0, 64, 0
2, 165308, Note_on_c, 0, 60, 0
2, 165308, Note_on_c, 0, 66, 0
2, 165322, Note_on_c, 0, 59, 77
2, 165331, Note_on_c, 0, 62, 77
2, 165399, Note_on_c, 0, 59, 0
2, 165452, Note_on_c, 0, 57, 79
2, 165459, Note_on_c, 0, 67, 86
2, 165479, Note_on_c, 0, 62, 0
2, 165531, Note_on_c, 0, 57, 0
2, 165552, Note_on_c, 0, 67, 0
2, 165579, Note_on_c, 0, 55, 72
2, 165598, Note_on_c, 0, 62, 73
2, 165646, Note_on_c, 0, 55, 0
2, 165707, Note_on_c, 0, 62, 0
2, 165711, Note_on_c, 0, 54, 72
2, 165722, Note_on_c, 0, 69, 75
2, 165779, Note_on_c, 0, 54, 0
2, 165811, Note_on_c, 0, 69, 0
2, 165830, Note_on_c, 0, 52, 65
2, 165849, Note_on_c, 0, 62, 71
2, 165891, Note_on_c, 0, 52, 0
2, 165944, Note_on_c, 0, 50, 68
2, 165953, Note_on_c, 0, 62, 0
2, 165973, Note_on_c, 0, 71, 77
2, 166012, Note_on_c, 0, 50, 0
2, 166056, Note_on_c, 0, 71, 0
2, 166080, Note_on_c, 0, 48, 52
2, 166103, Note_on_c, 0, 62, 70
2, 166141, Note_on_c, 0, 48, 0
2, 166203, Note_on_c, 0, 62, 0
2, 166230, Note_on_c, 0, 47, 55
2, 166230, Note_on_c, 0, 72, 74
2, 166278, Note_on_c, 0, 47, 0
2, 166307, Note_on_c, 0, 72, 0
2, 166344, Note_on_c, 0, 62, 67
2, 166367, Note_on_c, 0, 45, 54
2, 166415, Note_on_c, 0, 62, 0
2, 166425, Note_on_c, 0, 45, 0
2, 166483, Note_on_c, 0, 71, 68
2, 166498, Note_on_c, 0, 43, 57
2, 166564, Note_on_c, 0, 43, 0
2, 166588, Note_on_c, 0, 71, 0
2, 166622, Note_on_c, 0, 45, 61
2, 166622, Note_on_c, 0, 79, 74
2, 166680, Note_on_c, 0, 45, 0
2, 166713, Note_on_c, 0, 79, 0
2, 166747, Note_on_c, 0, 47, 73
2, 166747, Note_on_c, 0, 77, 85
2, 166809, Note_on_c, 0, 47, 0
2, 166827, Note_on_c, 0, 77, 0
2, 166863, Note_on_c, 0, 43, 74
2, 166879, Note_on_c, 0, 76, 79
2, 166963, Note_on_c, 0, 76, 0
2, 166967, Note_on_c, 0, 43, 0
2, 167001, Note_on_c, 0, 48, 78
2, 167005, Note_on_c, 0, 74, 79
2, 167075, Note_on_c, 0, 48, 0
2, 167110, Note_on_c, 0, 74, 0
2, 167136, Note_on_c, 0, 43, 70
2, 167136, Note_on_c, 0, 72, 79
2, 167215, Note_on_c, 0, 72, 0
2, 167247, Note_on_c, 0, 43, 0
2, 167267, Note_on_c, 0, 71, 78
2, 167280, Note_on_c, 0, 50, 71
2, 167347, Note_on_c, 0, 50, 0
2, 167360, Note_on_c, 0, 71, 0
2, 167404, Note_on_c, 0, 43, 68
2, 167415, Note_on_c, 0, 69, 65
2, 167494, Note_on_c, 0, 43, 0
2, 167503, Note_on_c, 0, 69, 0
2, 167535, Note_on_c, 0, 52, 69
2, 167539, Note_on_c, 0, 67, 73
2, 167624, Note_on_c, 0, 52, 0
2, 167626, Note_on_c, 0, 67, 0
2, 167667, Note_on_c, 0, 43, 66
2, 167667, Note_on_c, 0, 65, 64
2, 167756, Note_on_c, 0, 65, 0
2, 167768, Note_on_c, 0, 43, 0
2, 167803, Note_on_c, 0, 64, 73
2, 167809, Note_on_c, 0, 53, 69
2, 167877, Note_on_c, 0, 64, 0
2, 167881, Note_on_c, 0, 53, 0
2, 167924, Note_on_c, 0, 43, 67
2, 167929, Note_on_c, 0, 62, 73
2, 167997, Note_on_c, 0, 62, 0
2, 168022, Control_c, 0, 64, 36
2, 168033, Note_on_c, 0, 43, 0
2, 168042, Control_c, 0, 64, 48
2, 168053, Note_on_c, 0, 60, 71
2, 168063, Control_c, 0, 64, 57
2, 168063, Note_on_c, 0, 52, 75
2, 168080, Control_c, 0, 64, 61
2, 168096, Note_on_c, 0, 60, 0
2, 168099, Control_c, 0, 64, 63
2, 168119, Control_c, 0, 64, 64
2, 168137, Control_c, 0, 64, 66
2, 168155, Note_on_c, 0, 52, 0
2, 168159, Control_c, 0, 64, 69
2, 168178, Control_c, 0, 64, 70
2, 168198, Control_c, 0, 64, 69
2, 168207, Note_on_c, 0, 40, 71
2, 168215, Control_c, 0, 64, 63
2, 168237, Control_c, 0, 64, 52
2, 168237, Note_on_c, 0, 76, 86
2, 168253, Control_c, 0, 64, 34
2, 168274, Control_c, 0, 64, 17
2, 168279, Note_on_c, 0, 42, 49
2, 168295, Control_c, 0, 64, 0
2, 168295, Note_on_c, 0, 43, 75
2, 168312, Note_on_c, 0, 40, 0
2, 168328, Note_on_c, 0, 44, 75
2, 168332, Note_on_c, 0, 43, 0
2, 168337, Note_on_c, 0, 42, 0
2, 168348, Note_on_c, 0, 76, 0
2, 168359, Note_on_c, 0, 74, 82
2, 168448, Note_on_c, 0, 40, 69
2, 168448, Note_on_c, 0, 74, 0
2, 168471, Note_on_c, 0, 44, 0
2, 168486, Note_on_c, 0, 72, 84
2, 168562, Note_on_c, 0, 72, 0
2, 168564, Note_on_c, 0, 40, 0
2, 168582, Note_on_c, 0, 45, 76
2, 168605, Note_on_c, 0, 71, 81
2, 168675, Note_on_c, 0, 45, 0
2, 168682, Note_on_c, 0, 71, 0
2, 168723, Note_on_c, 0, 40, 67
2, 168730, Note_on_c, 0, 69, 74
2, 168810, Note_on_c, 0, 69, 0
2, 168838, Note_on_c, 0, 40, 0
2, 168862, Note_on_c, 0, 68, 82
2, 168867, Note_on_c, 0, 47, 74
2, 168943, Note_on_c, 0, 47, 0
2, 168976, Note_on_c, 0, 68, 0
2, 168991, Note_on_c, 0, 66, 77
2, 169003, Note_on_c, 0, 40, 63
2, 169078, Note_on_c, 0, 66, 0
2, 169096, Note_on_c, 0, 40, 0
2, 169123, Note_on_c, 0, 64, 77
2, 169139, Note_on_c, 0, 48, 71
2, 169209, Note_on_c, 0, 64, 0
2, 169212, Note_on_c, 0, 48, 0
2, 169245, Note_on_c, 0, 62, 73
2, 169270, Note_on_c, 0, 40, 63
2, 169339, Note_on_c, 0, 62, 0
2, 169343, Note_on_c, 0, 40, 0
2, 169396, Note_on_c, 0, 60, 67
2, 169404, Note_on_c, 0, 50, 65
2, 169455, Note_on_c, 0, 60, 0
2, 169466, Note_on_c, 0, 50, 0
2, 169520, Note_on_c, 0, 59, 71
2, 169524, Note_on_c, 0, 40, 60
2, 169607, Note_on_c, 0, 59, 0
2, 169619, Note_on_c, 0, 40, 0
2, 169654, Note_on_c, 0, 49, 73
2, 169663, Note_on_c, 0, 57, 67
2, 169721, Note_on_c, 0, 57, 0
2, 169732, Note_on_c, 0, 49, 0
2, 169781, Note_on_c, 0, 57, 70
2, 169786, Note_on_c, 0, 59, 70
2, 169863, Note_on_c, 0, 57, 0
2, 169871, Note_on_c, 0, 59, 0
2, 169918, Note_on_c, 0, 55, 80
2, 169934, Note_on_c, 0, 61, 78
2, 169999, Note_on_c, 0, 55, 0
2, 170003, Note_on_c, 0, 61, 0
2, 170037, Note_on_c, 0, 57, 75
2, 170056, Note_on_c, 0, 54, 74
2, 170110, Note_on_c, 0, 54, 0
2, 170121, Note_on_c, 0, 57, 0
2, 170180, Note_on_c, 0, 52, 76
2, 170180, Note_on_c, 0, 62, 84
2, 170249, Note_on_c, 0, 62, 0
2, 170267, Note_on_c, 0, 52, 0
2, 170292, Note_on_c, 0, 57, 75
2, 170312, Note_on_c, 0, 50, 72
2, 170387, Note_on_c, 0, 57, 0
2, 170389, Note_on_c, 0, 50, 0
2, 170430, Note_on_c, 0, 64, 91
2, 170443, Note_on_c, 0, 49, 75
2, 170511, Note_on_c, 0, 64, 0
2, 170538, Note_on_c, 0, 49, 0
2, 170549, Note_on_c, 0, 57, 80
2, 170573, Note_on_c, 0, 47, 68
2, 170648, Note_on_c, 0, 47, 0
2, 170659, Note_on_c, 0, 57, 0
2, 170695, Note_on_c, 0, 66, 98
2, 170701, Note_on_c, 0, 45, 78
2, 170779, Note_on_c, 0, 66, 0
2, 170791, Note_on_c, 0, 45, 0
2, 170810, Note_on_c, 0, 57, 80
2, 170835, Note_on_c, 0, 43, 68
2, 170899, Note_on_c, 0, 57, 0
2, 170910, Note_on_c, 0, 43, 0
2, 170955, Note_on_c, 0, 67, 92
2, 170964, Note_on_c, 0, 42, 77
2, 171059, Note_on_c, 0, 57, 82
2, 171059, Note_on_c, 0, 67, 0
2, 171062, Note_on_c, 0, 42, 0
2, 171109, Note_on_c, 0, 40, 64
2, 171132, Note_on_c, 0, 57, 0
2, 171175, Note_on_c, 0, 40, 0
2, 171231, Note_on_c, 0, 38, 82
2, 171235, Note_on_c, 0, 62, 86
2, 171235, Note_on_c, 0, 66, 92
2, 171290, Note_on_c, 0, 62, 0
2, 171323, Note_on_c, 0, 66, 0
2, 171546, Note_on_c, 0, 60, 88
2, 171546, Note_on_c, 0, 71, 98
2, 171602, Note_on_c, 0, 60, 0
2, 171615, Note_on_c, 0, 71, 0
2, 171668, Note_on_c, 0, 62, 85
2, 171736, Note_on_c, 0, 62, 0
2, 171794, Note_on_c, 0, 64, 91
2, 171801, Note_on_c, 0, 67, 72
2, 171804, Note_on_c, 0, 69, 66
2, 171840, Note_on_c, 0, 69, 0
2, 171857, Note_on_c, 0, 67, 0
2, 171862, Note_on_c, 0, 64, 0
2, 171911, Note_on_c, 0, 62, 89
2, 171978, Note_on_c, 0, 62, 0
2, 172059, Note_on_c, 0, 64, 99
2, 172064, Note_on_c, 0, 60, 86
2, 172126, Note_on_c, 0, 60, 0
2, 172126, Note_on_c, 0, 64, 0
2, 172342, Note_on_c, 0, 69, 93
2, 172360, Note_on_c, 0, 59, 59
2, 172364, Control_c, 0, 64, 17
2, 172366, Note_on_c, 0, 60, 57
2, 172380, Control_c, 0, 64, 0
2, 172394, Note_on_c, 0, 59, 0
2, 172398, Note_on_c, 0, 60, 0
2, 172422, Note_on_c, 0, 69, 0
2, 172466, Note_on_c, 0, 60, 76
2, 172504, Note_on_c, 0, 60, 0
2, 172601, Note_on_c, 0, 62, 79
2, 172601, Note_on_c, 0, 66, 86
2, 172632, Note_on_c, 0, 62, 0
2, 172686, Note_on_c, 0, 66, 0
2, 172716, Note_on_c, 0, 60, 76
2, 172758, Note_on_c, 0, 60, 0
2, 172862, Note_on_c, 0, 67, 83
2, 172868, Note_on_c, 0, 59, 78
2, 172903, Note_on_c, 0, 59, 0
2, 172968, Note_on_c, 0, 38, 0
2, 173008, Note_on_c, 0, 50, 65
2, 173078, Note_on_c, 0, 50, 0
2, 173124, Note_on_c, 0, 48, 80
2, 173133, Note_on_c, 0, 60, 83
2, 173180, Note_on_c, 0, 60, 0
2, 173196, Note_on_c, 0, 48, 0
2, 173249, Note_on_c, 0, 50, 74
2, 173310, Note_on_c, 0, 50, 0
2, 173372, Note_on_c, 0, 52, 79
2, 173387, Note_on_c, 0, 62, 86
2, 173441, Note_on_c, 0, 62, 0
2, 173446, Note_on_c, 0, 52, 0
2, 173497, Note_on_c, 0, 50, 75
2, 173568, Note_on_c, 0, 50, 0
2, 173579, Note_on_c, 0, 67, 0
2, 173631, Note_on_c, 0, 48, 79
2, 173635, Note_on_c, 0, 64, 88
2, 173646, Control_c, 0, 64, 42
2, 173666, Control_c, 0, 64, 60
2, 173674, Note_on_c, 0, 48, 0
2, 173687, Control_c, 0, 64, 63
2, 173702, Note_on_c, 0, 64, 0
2, 173704, Control_c, 0, 64, 64
2, 173724, Control_c, 0, 64, 65
2, 173742, Control_c, 0, 64, 67
2, 173753, Note_on_c, 0, 69, 75
2, 173762, Control_c, 0, 64, 69
2, 173781, Control_c, 0, 64, 71
2, 173789, Note_on_c, 0, 69, 0
2, 173801, Control_c, 0, 64, 72
2, 173818, Control_c, 0, 64, 71
2, 173838, Control_c, 0, 64, 68
2, 173857, Control_c, 0, 64, 61
2, 173875, Control_c, 0, 64, 38
2, 173891, Note_on_c, 0, 69, 89
2, 173896, Control_c, 0, 64, 0
2, 173901, Note_on_c, 0, 47, 76
2, 173905, Note_on_c, 0, 54, 79
2, 173947, Note_on_c, 0, 69, 0
2, 173983, Note_on_c, 0, 47, 0
2, 173996, Control_c, 0, 64, 42
2, 173996, Note_on_c, 0, 48, 75
2, 173996, Note_on_c, 0, 71, 88
2, 174009, Control_c, 0, 64, 46
2, 174032, Control_c, 0, 64, 34
2, 174050, Control_c, 0, 64, 17
2, 174070, Control_c, 0, 64, 15
2, 174079, Note_on_c, 0, 69, 79
2, 174081, Note_on_c, 0, 71, 0
2, 174088, Control_c, 0, 64, 18
2, 174108, Control_c, 0, 64, 21
2, 174128, Control_c, 0, 64, 18
2, 174128, Note_on_c, 0, 48, 0
2, 174133, Note_on_c, 0, 50, 73
2, 174147, Control_c, 0, 64, 14
2, 174157, Note_on_c, 0, 69, 0
2, 174157, Note_on_c, 0, 71, 76
2, 174223, Control_c, 0, 64, 15
2, 174228, Note_on_c, 0, 71, 0
2, 174244, Control_c, 0, 64, 16
2, 174244, Note_on_c, 0, 69, 67
2, 174265, Note_on_c, 0, 50, 0
2, 174277, Note_on_c, 0, 48, 62
2, 174281, Control_c, 0, 64, 17
2, 174286, Note_on_c, 0, 69, 0
2, 174295, Note_on_c, 0, 54, 0
2, 174299, Control_c, 0, 64, 15
2, 174304, Note_on_c, 0, 67, 79
2, 174319, Control_c, 0, 64, 0
2, 174364, Note_on_c, 0, 69, 72
2, 174373, Note_on_c, 0, 67, 0
2, 174409, Note_on_c, 0, 48, 0
2, 174429, Note_on_c, 0, 71, 98
2, 174436, Note_on_c, 0, 55, 80
2, 174440, Note_on_c, 0, 47, 78
2, 174463, Note_on_c, 0, 69, 0
2, 174482, Note_on_c, 0, 55, 0
2, 174501, Note_on_c, 0, 71, 0
2, 174512, Note_on_c, 0, 47, 0
2, 174721, Note_on_c, 0, 72, 93
2, 174728, Note_on_c, 0, 69, 83
2, 174732, Note_on_c, 0, 45, 77
2, 174763, Note_on_c, 0, 69, 0
2, 174774, Note_on_c, 0, 71, 37
2, 174790, Note_on_c, 0, 45, 0
2, 174828, Note_on_c, 0, 71, 0
2, 174828, Note_on_c, 0, 71, 69
2, 174832, Note_on_c, 0, 67, 84
2, 174843, Note_on_c, 0, 47, 79
2, 174848, Note_on_c, 0, 72, 0
2, 174868, Note_on_c, 0, 67, 0
2, 174922, Note_on_c, 0, 71, 0
2, 174926, Note_on_c, 0, 47, 0
2, 174966, Note_on_c, 0, 48, 76
2, 174972, Note_on_c, 0, 66, 87
2, 174977, Note_on_c, 0, 69, 76
2, 175008, Note_on_c, 0, 66, 0
2, 175012, Note_on_c, 0, 69, 0
2, 175020, Note_on_c, 0, 68, 20
2, 175027, Note_on_c, 0, 48, 0
2, 175071, Note_on_c, 0, 71, 86
2, 175075, Note_on_c, 0, 47, 79
2, 175075, Note_on_c, 0, 68, 0
2, 175089, Note_on_c, 0, 67, 72
2, 175131, Note_on_c, 0, 67, 0
2, 175158, Note_on_c, 0, 47, 0
2, 175158, Note_on_c, 0, 71, 0
2, 175229, Note_on_c, 0, 45, 83
2, 175229, Note_on_c, 0, 69, 91
2, 175229, Note_on_c, 0, 72, 100
2, 175290, Note_on_c, 0, 45, 0
2, 175292, Note_on_c, 0, 69, 0
2, 175301, Note_on_c, 0, 72, 0
2, 175517, Note_on_c, 0, 43, 77
2, 175522, Note_on_c, 0, 74, 92
2, 175527, Note_on_c, 0, 71, 87
2, 175568, Note_on_c, 0, 71, 0
2, 175597, Note_on_c, 0, 43, 0
2, 175635, Note_on_c, 0, 72, 77
2, 175646, Note_on_c, 0, 45, 74
2, 175646, Note_on_c, 0, 69, 81
2, 175655, Note_on_c, 0, 74, 0
2, 175693, Note_on_c, 0, 69, 0
2, 175704, Note_on_c, 0, 45, 0
2, 175733, Note_on_c, 0, 72, 0
2, 175762, Note_on_c, 0, 47, 83
2, 175773, Note_on_c, 0, 67, 84
2, 175778, Note_on_c, 0, 71, 92
2, 175815, Note_on_c, 0, 67, 0
2, 175829, Note_on_c, 0, 71, 0
2, 175839, Note_on_c, 0, 47, 0
2, 175880, Note_on_c, 0, 45, 78
2, 175898, Note_on_c, 0, 72, 89
2, 175904, Note_on_c, 0, 69, 82
2, 175932, Note_on_c, 0, 45, 0
2, 175972, Note_on_c, 0, 69, 0
2, 175972, Note_on_c, 0, 72, 0
2, 175989, Control_c, 0, 64, 17
2, 176009, Note_on_c, 0, 43, 86
2, 176011, Control_c, 0, 64, 44
2, 176025, Control_c, 0, 64, 48
2, 176035, Note_on_c, 0, 74, 96
2, 176046, Control_c, 0, 64, 42
2, 176046, Note_on_c, 0, 71, 84
2, 176051, Note_on_c, 0, 43, 0
2, 176069, Control_c, 0, 64, 29
2, 176073, Note_on_c, 0, 71, 0
2, 176084, Control_c, 0, 64, 12
2, 176105, Control_c, 0, 64, 0
2, 176105, Note_on_c, 0, 74, 0
2, 176140, Note_on_c, 0, 55, 80
2, 176221, Note_on_c, 0, 55, 0
2, 176242, Note_on_c, 0, 54, 72
2, 176297, Note_on_c, 0, 54, 0
2, 176310, Note_on_c, 0, 72, 90
2, 176317, Note_on_c, 0, 52, 77
2, 176317, Note_on_c, 0, 69, 77
2, 176342, Note_on_c, 0, 69, 0
2, 176364, Note_on_c, 0, 72, 0
2, 176375, Note_on_c, 0, 52, 0
2, 176441, Note_on_c, 0, 55, 68
2, 176505, Note_on_c, 0, 55, 0
2, 176545, Note_on_c, 0, 50, 74
2, 176576, Note_on_c, 0, 71, 87
2, 176586, Note_on_c, 0, 67, 69
2, 176607, Note_on_c, 0, 50, 0
2, 176613, Note_on_c, 0, 71, 0
2, 176622, Note_on_c, 0, 67, 0
2, 176685, Note_on_c, 0, 55, 65
2, 176790, Note_on_c, 0, 55, 0
2, 176836, Note_on_c, 0, 69, 82
2, 176847, Note_on_c, 0, 49, 44
2, 176847, Note_on_c, 0, 67, 73
2, 176877, Note_on_c, 0, 67, 0
2, 176881, Note_on_c, 0, 69, 0
2, 176901, Note_on_c, 0, 49, 0
2, 177017, Note_on_c, 0, 59, 40
2, 177022, Note_on_c, 0, 57, 49
2, 177059, Note_on_c, 0, 59, 0
2, 177084, Note_on_c, 0, 57, 0
2, 177115, Note_on_c, 0, 79, 97
2, 177126, Note_on_c, 0, 74, 83
2, 177131, Note_on_c, 0, 47, 70
2, 177188, Note_on_c, 0, 47, 0
2, 177272, Note_on_c, 0, 57, 68
2, 177322, Note_on_c, 0, 74, 0
2, 177329, Note_on_c, 0, 57, 0
2, 177400, Note_on_c, 0, 45, 71
2, 177405, Note_on_c, 0, 73, 79
2, 177449, Note_on_c, 0, 73, 0
2, 177454, Note_on_c, 0, 45, 0
2, 177526, Note_on_c, 0, 57, 75
2, 177565, Note_on_c, 0, 57, 0
2, 177574, Note_on_c, 0, 79, 0
2, 177664, Note_on_c, 0, 74, 80
2, 177664, Note_on_c, 0, 78, 85
2, 177684, Note_on_c, 0, 50, 75
2, 177700, Note_on_c, 0, 74, 0
2, 177730, Note_on_c, 0, 78, 0
2, 177772, Note_on_c, 0, 50, 0
2, 177790, Note_on_c, 0, 48, 72
2, 177919, Note_on_c, 0, 76, 91
2, 177927, Note_on_c, 0, 46, 75
2, 177927, Note_on_c, 0, 48, 0
2, 177927, Note_on_c, 0, 67, 79
2, 177957, Note_on_c, 0, 67, 0
2, 177984, Note_on_c, 0, 76, 0
2, 178034, Note_on_c, 0, 46, 0
2, 178062, Note_on_c, 0, 50, 73
2, 178135, Note_on_c, 0, 75, 7
2, 178168, Note_on_c, 0, 75, 0
2, 178173, Note_on_c, 0, 50, 0
2, 178202, Note_on_c, 0, 45, 76
2, 178206, Note_on_c, 0, 74, 96
2, 178210, Note_on_c, 0, 66, 85
2, 178246, Note_on_c, 0, 66, 0
2, 178274, Note_on_c, 0, 74, 0
2, 178296, Note_on_c, 0, 45, 0
2, 178338, Note_on_c, 0, 50, 73
2, 178450, Note_on_c, 0, 50, 0
2, 178485, Note_on_c, 0, 43, 79
2, 178489, Note_on_c, 0, 64, 83
2, 178493, Note_on_c, 0, 73, 95
2, 178517, Note_on_c, 0, 64, 0
2, 178571, Note_on_c, 0, 73, 0
2, 178593, Note_on_c, 0, 43, 0
2, 178637, Note_on_c, 0, 52, 72
2, 178781, Note_on_c, 0, 52, 0
2, 178790, Note_on_c, 0, 42, 69
2, 178810, Note_on_c, 0, 82, 95
2, 178815, Note_on_c, 0, 73, 90
2, 178852, Control_c, 0, 64, 22
2, 178867, Control_c, 0, 64, 40
2, 178887, Control_c, 0, 64, 51
2, 178909, Control_c, 0, 64, 57
2, 178927, Note_on_c, 0, 42, 0
2, 178931, Control_c, 0, 64, 59
2, 178942, Note_on_c, 0, 52, 70
2, 178947, Control_c, 0, 64, 60
2, 178964, Control_c, 0, 64, 61
2, 178985, Control_c, 0, 64, 62
2, 179003, Control_c, 0, 64, 63
2, 179054, Note_on_c, 0, 52, 0
2, 179095, Note_on_c, 0, 40, 65
2, 179138, Control_c, 0, 64, 62
2, 179158, Control_c, 0, 64, 61
2, 179177, Control_c, 0, 64, 60
2, 179184, Note_on_c, 0, 40, 0
2, 179195, Control_c, 0, 64, 59
2, 179203, Note_on_c, 0, 52, 73
2, 179233, Control_c, 0, 64, 57
2, 179242, Note_on_c, 0, 82, 0
2, 179254, Control_c, 0, 64, 54
2, 179256, Note_on_c, 0, 73, 0
2, 179273, Control_c, 0, 64, 50
2, 179293, Control_c, 0, 64, 48
2, 179312, Control_c, 0, 64, 47
2, 179319, Note_on_c, 0, 52, 0
2, 179332, Control_c, 0, 64, 44
2, 179351, Control_c, 0, 64, 38
2, 179355, Note_on_c, 0, 42, 72
2, 179364, Note_on_c, 0, 81, 85
2, 179370, Control_c, 0, 64, 33
2, 179377, Note_on_c, 0, 72, 79
2, 179391, Control_c, 0, 64, 30
2, 179408, Control_c, 0, 64, 27
2, 179424, Note_on_c, 0, 42, 0
2, 179429, Control_c, 0, 64, 21
2, 179446, Control_c, 0, 64, 10
2, 179464, Control_c, 0, 64, 0
2, 179504, Note_on_c, 0, 79, 92
2, 179533, Note_on_c, 0, 81, 0
2, 179644, Note_on_c, 0, 78, 93
2, 179660, Note_on_c, 0, 38, 68
2, 179664, Note_on_c, 0, 79, 0
2, 179727, Note_on_c, 0, 38, 0
2, 179740, Note_on_c, 0, 78, 0
2, 179765, Note_on_c, 0, 76, 91
2, 179848, Note_on_c, 0, 76, 0
2, 179894, Note_on_c, 0, 72, 0
2, 179914, Note_on_c, 0, 74, 87
2, 179920, Note_on_c, 0, 43, 71
2, 179986, Note_on_c, 0, 43, 0
2, 180054, Note_on_c, 0, 71, 83
2, 180123, Note_on_c, 0, 71, 0
2, 180136, Note_on_c, 0, 69, 76
2, 180164, Note_on_c, 0, 74, 0
2, 180188, Note_on_c, 0, 40, 66
2, 180207, Note_on_c, 0, 71, 87
2, 180226, Note_on_c, 0, 69, 0
2, 180254, Note_on_c, 0, 40, 0
2, 180351, Note_on_c, 0, 79, 94
2, 180362, Note_on_c, 0, 71, 0
2, 180498, Note_on_c, 0, 69, 84
2, 180502, Note_on_c, 0, 36, 72
2, 180535, Note_on_c, 0, 79, 0
2, 180563, Note_on_c, 0, 36, 0
2, 180635, Note_on_c, 0, 72, 91
2, 180750, Note_on_c, 0, 72, 0
2, 180779, Note_on_c, 0, 79, 93
2, 180784, Note_on_c, 0, 38, 70
2, 180837, Note_on_c, 0, 38, 0
2, 180893, Note_on_c, 0, 69, 0
2, 180920, Note_on_c, 0, 78, 88
2, 180928, Note_on_c, 0, 79, 0
2, 181069, Note_on_c, 0, 78, 0
2, 181097, Note_on_c, 0, 79, 88
2, 181101, Note_on_c, 0, 43, 74
2, 181106, Note_on_c, 0, 71, 81
2, 181272, Note_on_c, 0, 78, 85
2, 181272, Note_on_c, 0, 79, 0
2, 181285, Note_on_c, 0, 71, 0
2, 181307, Note_on_c, 0, 78, 0
2, 181321, Note_on_c, 0, 76, 81
2, 181408, Note_on_c, 0, 74, 79
2, 181432, Note_on_c, 0, 71, 65
2, 181432, Note_on_c, 0, 76, 0
2, 181514, Note_on_c, 0, 74, 0
2, 181532, Note_on_c, 0, 71, 0
2, 181555, Note_on_c, 0, 79, 84
2, 181681, Note_on_c, 0, 79, 0
2, 181696, Note_on_c, 0, 72, 80
2, 181703, Note_on_c, 0, 69, 74
2, 181781, Note_on_c, 0, 69, 0
2, 181798, Note_on_c, 0, 72, 0
2, 181825, Note_on_c, 0, 79, 79
2, 181922, Note_on_c, 0, 79, 0
2, 181951, Note_on_c, 0, 43, 0
2, 181973, Note_on_c, 0, 71, 78
2, 181977, Note_on_c, 0, 67, 73
2, 182099, Note_on_c, 0, 43, 76
2, 182185, Note_on_c, 0, 45, 74
2, 182185, Note_on_c, 0, 71, 0
2, 182189, Note_on_c, 0, 43, 0
2, 182249, Note_on_c, 0, 47, 78
2, 182253, Note_on_c, 0, 79, 93
2, 182258, Note_on_c, 0, 45, 0
2, 182299, Note_on_c, 0, 47, 0
2, 182308, Note_on_c, 0, 79, 0
2, 182313, Note_on_c, 0, 67, 0
2, 182371, Note_on_c, 0, 43, 84
2, 182479, Note_on_c, 0, 43, 0
2, 182521, Note_on_c, 0, 48, 82
2, 182525, Note_on_c, 0, 69, 83
2, 182537, Note_on_c, 0, 66, 74
2, 182578, Note_on_c, 0, 66, 0
2, 182588, Note_on_c, 0, 48, 0
2, 182592, Note_on_c, 0, 69, 0
2, 182645, Note_on_c, 0, 43, 77
2, 182801, Note_on_c, 0, 50, 79
2, 182810, Note_on_c, 0, 67, 79
2, 182814, Note_on_c, 0, 71, 86
2, 182851, Control_c, 0, 64, 15
2, 182866, Control_c, 0, 64, 44
2, 182885, Control_c, 0, 64, 57
2, 182904, Control_c, 0, 64, 62
2, 182926, Control_c, 0, 64, 64
2, 182935, Note_on_c, 0, 43, 0
2, 182940, Note_on_c, 0, 71, 0
2, 182944, Control_c, 0, 64, 65
2, 182962, Note_on_c, 0, 74, 81
2, 182967, Control_c, 0, 64, 66
2, 182971, Note_on_c, 0, 67, 0
2, 182985, Control_c, 0, 64, 68
2, 183001, Control_c, 0, 64, 69
2, 183042, Control_c, 0, 64, 68
2, 183042, Note_on_c, 0, 74, 0
2, 183056, Note_on_c, 0, 72, 81
2, 183062, Control_c, 0, 64, 67
2, 183079, Control_c, 0, 64, 65
2, 183095, Control_c, 0, 64, 56
2, 183117, Note_on_c, 0, 71, 87
2, 183121, Control_c, 0, 64, 30
2, 183121, Note_on_c, 0, 50, 0
2, 183126, Note_on_c, 0, 43, 77
2, 183136, Control_c, 0, 64, 0
2, 183143, Note_on_c, 0, 72, 0
2, 183149, Note_on_c, 0, 67, 65
2, 183231, Control_c, 0, 64, 35
2, 183251, Control_c, 0, 64, 49
2, 183264, Note_on_c, 0, 71, 0
2, 183270, Control_c, 0, 64, 55
2, 183275, Note_on_c, 0, 74, 80
2, 183284, Note_on_c, 0, 67, 0
2, 183290, Control_c, 0, 64, 56
2, 183349, Control_c, 0, 64, 55
2, 183367, Control_c, 0, 64, 51
2, 183385, Control_c, 0, 64, 45
2, 183403, Control_c, 0, 64, 38
2, 183414, Note_on_c, 0, 47, 81
2, 183414, Note_on_c, 0, 69, 73
2, 183425, Control_c, 0, 64, 36
2, 183425, Note_on_c, 0, 74, 0
2, 183430, Note_on_c, 0, 65, 66
2, 183507, Note_on_c, 0, 47, 0
2, 183525, Note_on_c, 0, 69, 0
2, 183547, Note_on_c, 0, 65, 0
2, 183547, Note_on_c, 0, 74, 72
2, 183577, Control_c, 0, 64, 35
2, 183615, Control_c, 0, 64, 34
2, 183663, Note_on_c, 0, 74, 0
2, 183685, Note_on_c, 0, 48, 73
2, 183689, Note_on_c, 0, 67, 71
2, 183693, Note_on_c, 0, 64, 72
2, 183697, Control_c, 0, 64, 33
2, 183713, Control_c, 0, 64, 32
2, 183731, Control_c, 0, 64, 31
2, 183748, Note_on_c, 0, 48, 0
2, 183775, Note_on_c, 0, 47, 77
2, 183831, Note_on_c, 0, 48, 74
2, 183846, Control_c, 0, 64, 30
2, 183899, Note_on_c, 0, 47, 0
2, 183908, Note_on_c, 0, 50, 80
2, 183923, Control_c, 0, 64, 29
2, 183945, Control_c, 0, 64, 18
2, 183945, Note_on_c, 0, 48, 0
2, 183962, Control_c, 0, 64, 0
2, 183971, Note_on_c, 0, 72, 90
2, 183989, Note_on_c, 0, 50, 0
2, 183994, Note_on_c, 0, 52, 85
2, 184117, Control_c, 0, 64, 21
2, 184117, Note_on_c, 0, 48, 78
2, 184122, Note_on_c, 0, 52, 0
2, 184139, Control_c, 0, 64, 46
2, 184148, Note_on_c, 0, 64, 0
2, 184155, Control_c, 0, 64, 56
2, 184172, Control_c, 0, 64, 60
2, 184191, Control_c, 0, 64, 62
2, 184211, Control_c, 0, 64, 63
2, 184233, Control_c, 0, 64, 65
2, 184251, Control_c, 0, 64, 67
2, 184271, Control_c, 0, 64, 69
2, 184284, Note_on_c, 0, 54, 85
2, 184287, Control_c, 0, 64, 70
2, 184304, Note_on_c, 0, 48, 0
2, 184304, Note_on_c, 0, 63, 77
2, 184308, Control_c, 0, 64, 66
2, 184326, Control_c, 0, 64, 55
2, 184345, Control_c, 0, 64, 16
2, 184347, Note_on_c, 0, 67, 0
2, 184363, Control_c, 0, 64, 0
2, 184428, Note_on_c, 0, 48, 84
2, 184437, Note_on_c, 0, 54, 0
2, 184441, Control_c, 0, 64, 43
2, 184461, Control_c, 0, 64, 60
2, 184479, Control_c, 0, 64, 67
2, 184503, Control_c, 0, 64, 75
2, 184503, Note_on_c, 0, 63, 0
2, 184519, Control_c, 0, 64, 86
2, 184537, Control_c, 0, 64, 100
2, 184558, Control_c, 0, 64, 127
2, 184563, Note_on_c, 0, 72, 0
2, 184620, Note_on_c, 0, 55, 86
2, 184633, Control_c, 0, 64, 113
2, 184638, Note_on_c, 0, 48, 0
2, 184653, Control_c, 0, 64, 79
2, 184662, Note_on_c, 0, 62, 78
2, 184672, Control_c, 0, 64, 59
2, 184691, Control_c, 0, 64, 13
2, 184710, Control_c, 0, 64, 0
2, 184755, Note_on_c, 0, 67, 71
2, 184759, Note_on_c, 0, 62, 0
2, 184786, Control_c, 0, 64, 43
2, 184808, Control_c, 0, 64, 59
2, 184827, Control_c, 0, 64, 64
2, 184827, Note_on_c, 0, 69, 69
2, 184837, Note_on_c, 0, 67, 0
2, 184842, Control_c, 0, 64, 67
2, 184862, Control_c, 0, 64, 70
2, 184884, Control_c, 0, 64, 74
2, 184884, Note_on_c, 0, 71, 79
2, 184905, Control_c, 0, 64, 78
2, 184921, Note_on_c, 0, 69, 0
2, 184925, Control_c, 0, 64, 82
2, 184943, Control_c, 0, 64, 81
2, 184961, Control_c, 0, 64, 68
2, 184970, Note_on_c, 0, 72, 91
2, 184978, Control_c, 0, 64, 52
2, 184983, Note_on_c, 0, 64, 83
2, 184991, Note_on_c, 0, 71, 0
2, 184998, Control_c, 0, 64, 11
2, 185018, Control_c, 0, 64, 0
2, 185056, Control_c, 0, 64, 41
2, 185075, Control_c, 0, 64, 61
2, 185080, Note_on_c, 0, 64, 0
2, 185093, Control_c, 0, 64, 69
2, 185105, Note_on_c, 0, 72, 0
2, 185114, Control_c, 0, 64, 85
2, 185123, Note_on_c, 0, 67, 72
2, 185132, Control_c, 0, 64, 127
2, 185181, Note_on_c, 0, 65, 13
2, 185183, Note_on_c, 0, 67, 0
2, 185237, Note_on_c, 0, 65, 0
2, 185266, Control_c, 0, 64, 103
2, 185287, Control_c, 0, 64, 66
2, 185287, Note_on_c, 0, 74, 92
2, 185292, Note_on_c, 0, 65, 76
2, 185292, Note_on_c, 0, 71, 82
2, 185309, Control_c, 0, 64, 41
2, 185324, Control_c, 0, 64, 0
2, 185342, Control_c, 0, 64, 17
2, 185362, Control_c, 0, 64, 44
2, 185385, Control_c, 0, 64, 64
2, 185402, Control_c, 0, 64, 74
2, 185417, Note_on_c, 0, 71, 0
2, 185419, Control_c, 0, 64, 108
2, 185423, Note_on_c, 0, 74, 0
2, 185430, Note_on_c, 0, 67, 79
2, 185441, Control_c, 0, 64, 127
2, 185441, Note_on_c, 0, 65, 0
2, 185484, Note_on_c, 0, 67, 0
2, 185595, Control_c, 0, 64, 92
2, 185595, Note_on_c, 0, 76, 89
2, 185599, Note_on_c, 0, 72, 85
2, 185601, Note_on_c, 0, 67, 76
2, 185614, Control_c, 0, 64, 61
2, 185634, Control_c, 0, 64, 32
2, 185649, Control_c, 0, 64, 36
2, 185672, Control_c, 0, 64, 54
2, 185672, Note_on_c, 0, 76, 0
2, 185676, Note_on_c, 0, 72, 0
2, 185688, Note_on_c, 0, 71, 79
2, 185693, Control_c, 0, 64, 66
2, 185700, Note_on_c, 0, 67, 0
2, 185708, Control_c, 0, 64, 79
2, 185727, Control_c, 0, 64, 127
2, 185758, Note_on_c, 0, 71, 0
2, 185758, Note_on_c, 0, 72, 81
2, 185804, Control_c, 0, 64, 120
2, 185818, Note_on_c, 0, 74, 89
2, 185825, Control_c, 0, 64, 95
2, 185846, Control_c, 0, 64, 77
2, 185854, Note_on_c, 0, 72, 0
2, 185863, Control_c, 0, 64, 63
2, 185883, Control_c, 0, 64, 49
2, 185900, Control_c, 0, 64, 35
2, 185914, Note_on_c, 0, 76, 95
2, 185921, Control_c, 0, 64, 0
2, 185933, Note_on_c, 0, 67, 84
2, 185947, Note_on_c, 0, 74, 0
2, 186015, Control_c, 0, 64, 17
2, 186035, Control_c, 0, 64, 49
2, 186053, Control_c, 0, 64, 60
2, 186075, Control_c, 0, 64, 65
2, 186092, Control_c, 0, 64, 69
2, 186092, Note_on_c, 0, 72, 85
2, 186114, Control_c, 0, 64, 79
2, 186114, Note_on_c, 0, 67, 0
2, 186114, Note_on_c, 0, 76, 0
2, 186132, Control_c, 0, 64, 110
2, 186136, Note_on_c, 0, 72, 0
2, 186150, Control_c, 0, 64, 127
2, 186293, Note_on_c, 0, 78, 96
2, 186298, Note_on_c, 0, 69, 71
2, 186304, Control_c, 0, 64, 103
2, 186322, Control_c, 0, 64, 65
2, 186342, Control_c, 0, 64, 35
2, 186360, Control_c, 0, 64, 0
2, 186418, Control_c, 0, 64, 38
2, 186438, Control_c, 0, 64, 58
2, 186456, Control_c, 0, 64, 65
2, 186475, Control_c, 0, 64, 70
2, 186497, Control_c, 0, 64, 77
2, 186512, Note_on_c, 0, 69, 0
2, 186517, Control_c, 0, 64, 86
2, 186517, Note_on_c, 0, 72, 86
2, 186532, Control_c, 0, 64, 104
2, 186553, Control_c, 0, 64, 127
2, 186585, Note_on_c, 0, 72, 0
2, 186802, Control_c, 0, 64, 92
2, 186822, Control_c, 0, 64, 71
2, 186822, Note_on_c, 0, 78, 0
2, 186840, Note_on_c, 0, 79, 88
2, 186842, Control_c, 0, 64, 60
2, 186858, Note_on_c, 0, 71, 76
2, 186861, Control_c, 0, 64, 51
2, 186878, Control_c, 0, 64, 46
2, 186899, Control_c, 0, 64, 40
2, 186919, Control_c, 0, 64, 35
2, 186936, Control_c, 0, 64, 28
2, 186956, Control_c, 0, 64, 23
2, 186976, Control_c, 0, 64, 22
2, 187032, Control_c, 0, 64, 19
2, 187052, Control_c, 0, 64, 18
2, 187072, Control_c, 0, 64, 17
2, 187090, Control_c, 0, 64, 16
2, 187110, Control_c, 0, 64, 15
2, 187130, Control_c, 0, 64, 13
2, 187207, Control_c, 0, 64, 14
2, 187255, Note_on_c, 0, 74, 82
2, 187264, Control_c, 0, 64, 15
2, 187285, Control_c, 0, 64, 16
2, 187303, Control_c, 0, 64, 17
2, 187396, Control_c, 0, 64, 18
2, 187533, Note_on_c, 0, 76, 85
2, 187553, Note_on_c, 0, 74, 0
2, 187590, Control_c, 0, 64, 19
2, 187612, Note_on_c, 0, 71, 0
2, 187628, Control_c, 0, 64, 20
2, 187781, Note_on_c, 0, 72, 81
2, 188107, Control_c, 0, 64, 21
2, 188129, Control_c, 0, 64, 24
2, 188147, Control_c, 0, 64, 30
2, 188158, Note_on_c, 0, 69, 73
2, 188167, Control_c, 0, 64, 36
2, 188185, Control_c, 0, 64, 37
2, 188227, Note_on_c, 0, 76, 0
2, 188263, Control_c, 0, 64, 39
2, 188281, Control_c, 0, 64, 41
2, 188301, Control_c, 0, 64, 39
2, 188319, Control_c, 0, 64, 37
2, 188357, Control_c, 0, 64, 39
2, 188378, Control_c, 0, 64, 43
2, 188395, Control_c, 0, 64, 49
2, 188415, Control_c, 0, 64, 54
2, 188435, Control_c, 0, 64, 58
2, 188455, Control_c, 0, 64, 60
2, 188472, Control_c, 0, 64, 62
2, 188493, Control_c, 0, 64, 64
2, 188512, Control_c, 0, 64, 67
2, 188534, Control_c, 0, 64, 72
2, 188548, Note_on_c, 0, 79, 0
2, 188552, Control_c, 0, 64, 84
2, 188568, Control_c, 0, 64, 99
2, 188589, Control_c, 0, 64, 127
2, 188618, Note_on_c, 0, 78, 90
2, 188656, Note_on_c, 0, 72, 0
2, 188856, Note_on_c, 0, 69, 0
2, 189438, Note_on_c, 0, 71, 61
2, 189494, Note_on_c, 0, 78, 0
2, 189521, Note_on_c, 0, 74, 72
2, 189550, Control_c, 0, 64, 95
2, 189569, Control_c, 0, 64, 67
2, 189587, Control_c, 0, 64, 54
2, 189598, Note_on_c, 0, 79, 81
2, 189607, Control_c, 0, 64, 47
2, 189625, Control_c, 0, 64, 45
2, 189645, Control_c, 0, 64, 41
2, 189662, Control_c, 0, 64, 39
2, 189685, Control_c, 0, 64, 38
2, 189704, Control_c, 0, 64, 36
2, 189704, Note_on_c, 0, 79, 0
2, 189708, Note_on_c, 0, 78, 83
2, 189722, Control_c, 0, 64, 32
2, 189739, Control_c, 0, 64, 29
2, 189760, Control_c, 0, 64, 27
2, 189778, Control_c, 0, 64, 25
2, 189794, Note_on_c, 0, 78, 0
2, 189799, Control_c, 0, 64, 22
2, 189803, Note_on_c, 0, 79, 80
2, 189817, Control_c, 0, 64, 18
2, 189837, Control_c, 0, 64, 14
2, 189858, Control_c, 0, 64, 12
2, 189873, Control_c, 0, 64, 11
2, 189893, Control_c, 0, 64, 0
2, 190224, Control_c, 0, 64, 11
2, 190242, Control_c, 0, 64, 28
2, 190264, Control_c, 0, 64, 40
2, 190284, Control_c, 0, 64, 49
2, 190302, Control_c, 0, 64, 54
2, 190319, Control_c, 0, 64, 56
2, 190339, Control_c, 0, 64, 57
2, 190359, Control_c, 0, 64, 59
2, 190377, Control_c, 0, 64, 60
2, 190398, Control_c, 0, 64, 61
2, 190414, Control_c, 0, 64, 63
2, 190434, Control_c, 0, 64, 64
2, 190453, Control_c, 0, 64, 67
2, 190473, Control_c, 0, 64, 72
2, 190492, Control_c, 0, 64, 78
2, 190510, Control_c, 0, 64, 85
2, 190528, Control_c, 0, 64, 92
2, 190548, Control_c, 0, 64, 102
2, 190569, Control_c, 0, 64, 127
2, 191392, Note_on_c, 0, 71, 0
2, 191402, Note_on_c, 0, 43, 0
2, 191410, Note_on_c, 0, 55, 0
2, 191415, Note_on_c, 0, 79, 0
2, 191419, Note_on_c, 0, 74, 0
2, 191453, Control_c, 0, 64, 118
2, 191471, Control_c, 0, 64, 80
2, 191491, Control_c, 0, 64, 63
2, 191512, Control_c, 0, 64, 50
2, 191528, Control_c, 0, 64, 42
2, 191548, Control_c, 0, 64, 38
2, 191568, Control_c, 0, 64, 37
2, 191586, Control_c, 0, 64, 36
2, 191605, Control_c, 0, 64, 30
2, 191625, Control_c, 0, 64, 13
2, 191646, Control_c, 0, 64, 0
2, 192028, Control_c, 0, 64, 11
2, 192050, Control_c, 0, 64, 16
2, 192065, Control_c, 0, 64, 17
2, 192142, Control_c, 0, 64, 18
2, 192163, Control_c, 0, 64, 20
2, 192181, Control_c, 0, 64, 23
2, 192200, Control_c, 0, 64, 26
2, 192220, Control_c, 0, 64, 28
2, 192238, Control_c, 0, 64, 29
2, 192257, Control_c, 0, 64, 30
2, 192276, Control_c, 0, 64, 33
2, 192296, Control_c, 0, 64, 35
2, 192317, Control_c, 0, 64, 36
2, 192335, Control_c, 0, 64, 37
2, 192374, Control_c, 0, 64, 38
2, 192395, Control_c, 0, 64, 39
2, 192414, Control_c, 0, 64, 40
2, 192434, Control_c, 0, 64, 41
2, 192452, Control_c, 0, 64, 42
2, 192453, End_track
0, 0, End_of_file
