0, 0, Header, 1, 2, 480
1, 0, Start_track
1, 0, Tempo, 500000
1, 0, Time_signature, 4, 2, 24, 8
1, 1, End_track
2,0,Start_track
2,0, Note_on_c, 0, 67, 71
2,57, Note_on_c, 0, 67, 0
2,288, Note_on_c, 0, 69, 70
2,387, Note_on_c, 0, 69, 0
2,398, Note_on_c, 0, 67, 76
2,470, Note_on_c, 0, 67, 0
2,519, Note_on_c, 0, 66, 73
2,601, Note_on_c, 0, 66, 0
2,640, Note_on_c, 0, 67, 72
2,729, Note_on_c, 0, 67, 0
2,786, Note_on_c, 0, 69, 82
2,840, Note_on_c, 0, 69, 0
2,1076, Note_on_c, 0, 71, 83
2,1149, Note_on_c, 0, 71, 0
2,1197, Note_on_c, 0, 69, 77
2,1297, Note_on_c, 0, 69, 0
2,1334, Note_on_c, 0, 67, 75
2,1401, Note_on_c, 0, 67, 0
2,1442, Note_on_c, 0, 69, 73
2,1517, Note_on_c, 0, 69, 0
2,1589, Note_on_c, 0, 71, 84
2,1626, Note_on_c, 0, 71, 0
2,1883, Note_on_c, 0, 69, 74
2,1927, Note_on_c, 0, 69, 0
2,2157, Note_on_c, 0, 67, 72
2,2208, Note_on_c, 0, 67, 0
2,2450, Note_on_c, 0, 62, 76
2,2514, Note_on_c, 0, 62, 0
2,2777, Note_on_c, 0, 72, 85
2,3209, Note_on_c, 0, 72, 0
2,3370, Note_on_c, 0, 71, 79
2,3439, Note_on_c, 0, 71, 0
2,3650, Note_on_c, 0, 69, 74
2,3714, Note_on_c, 0, 69, 0
2,3938, Note_on_c, 0, 67, 82
2,4000, Note_on_c, 0, 67, 0
2,4229, Note_on_c, 0, 66, 81
2,4309, Note_on_c, 0, 66, 0
2,4539, Note_on_c, 0, 76, 88
2,4937, Note_on_c, 0, 76, 0
2,5092, Note_on_c, 0, 74, 78
2,5169, Note_on_c, 0, 74, 0
2,5385, Note_on_c, 0, 76, 83
2,5506, Note_on_c, 0, 74, 78
2,5521, Note_on_c, 0, 76, 0
2,5643, Note_on_c, 0, 72, 82
2,5643, Note_on_c, 0, 74, 0
2,5734, Note_on_c, 0, 72, 0
2,5761, Note_on_c, 0, 71, 80
2,5855, Note_on_c, 0, 71, 0
2,5906, Note_on_c, 0, 69, 72
2,5989, Note_on_c, 0, 69, 0
2,6191, Note_on_c, 0, 72, 80
2,6288, Note_on_c, 0, 72, 0
2,6319, Note_on_c, 0, 71, 76
2,6396, Note_on_c, 0, 71, 0
2,6451, Note_on_c, 0, 69, 68
2,6524, Note_on_c, 0, 69, 0
2,6577, Note_on_c, 0, 67, 63
2,6698, Note_on_c, 0, 67, 0
2,6709, Note_on_c, 0, 62, 72
2,6711, Note_on_c, 0, 66, 72
2,6753, Note_on_c, 0, 62, 0
2,6776, Note_on_c, 0, 66, 0
2,6990, Note_on_c, 0, 64, 71
2,7001, Note_on_c, 0, 67, 72
2,7056, Note_on_c, 0, 67, 0
2,7075, Note_on_c, 0, 64, 0
2,7110, Note_on_c, 0, 62, 73
2,7210, Note_on_c, 0, 62, 0
2,7236, Note_on_c, 0, 61, 72
2,7269, Note_on_c, 0, 69, 75
2,7325, Note_on_c, 0, 69, 0
2,7356, Note_on_c, 0, 62, 76
2,7368, Note_on_c, 0, 61, 0
2,7483, Note_on_c, 0, 62, 0
2,7500, Note_on_c, 0, 67, 77
2,7515, Note_on_c, 0, 64, 87
2,7564, Note_on_c, 0, 67, 0
2,7579, Note_on_c, 0, 64, 0
2,7786, Note_on_c, 0, 66, 80
2,7791, Note_on_c, 0, 69, 78
2,7843, Note_on_c, 0, 69, 0
2,7857, Note_on_c, 0, 66, 0
2,7908, Note_on_c, 0, 64, 82
2,8006, Note_on_c, 0, 64, 0
2,8042, Note_on_c, 0, 62, 79
2,8062, Note_on_c, 0, 71, 83
2,8104, Note_on_c, 0, 71, 0
2,8126, Note_on_c, 0, 62, 0
2,8177, Note_on_c, 0, 64, 80
2,8260, Note_on_c, 0, 64, 0
2,8314, Note_on_c, 0, 69, 77
2,8319, Note_on_c, 0, 66, 82
2,8360, Note_on_c, 0, 66, 0
2,8379, Note_on_c, 0, 69, 0
2,8599, Note_on_c, 0, 64, 78
2,8600, Note_on_c, 0, 71, 79
2,8649, Note_on_c, 0, 64, 0
2,8708, Note_on_c, 0, 71, 0
2,8728, Note_on_c, 0, 73, 80
2,8866, Note_on_c, 0, 74, 81
2,8869, Note_on_c, 0, 62, 72
2,8880, Note_on_c, 0, 73, 0
2,8908, Note_on_c, 0, 62, 0
2,8970, Note_on_c, 0, 74, 0
2,8991, Note_on_c, 0, 71, 77
2,9117, Note_on_c, 0, 71, 0
2,9127, Note_on_c, 0, 57, 79
2,9140, Note_on_c, 0, 73, 80
2,9174, Note_on_c, 0, 57, 0
2,9250, Note_on_c, 0, 73, 0
2,9254, Note_on_c, 0, 71, 73
2,9400, Note_on_c, 0, 67, 85
2,9404, Note_on_c, 0, 71, 0
2,9415, Note_on_c, 0, 73, 76
2,9558, Note_on_c, 0, 73, 0
2,9565, Note_on_c, 0, 74, 74
2,9704, Note_on_c, 0, 74, 0
2,9704, Note_on_c, 0, 76, 81
2,9793, Note_on_c, 0, 67, 0
2,9835, Note_on_c, 0, 73, 78
2,9835, Note_on_c, 0, 76, 0
2,9930, Note_on_c, 0, 73, 0
2,9979, Note_on_c, 0, 66, 75
2,9979, Note_on_c, 0, 74, 78
2,10036, Note_on_c, 0, 66, 0
2,10080, Note_on_c, 0, 74, 0
2,10109, Note_on_c, 0, 73, 77
2,10206, Note_on_c, 0, 73, 0
2,10242, Note_on_c, 0, 74, 81
2,10244, Note_on_c, 0, 64, 79
2,10304, Note_on_c, 0, 64, 0
2,10331, Note_on_c, 0, 74, 0
2,10376, Note_on_c, 0, 76, 80
2,10501, Note_on_c, 0, 76, 0
2,10506, Note_on_c, 0, 62, 80
2,10515, Note_on_c, 0, 78, 86
2,10552, Note_on_c, 0, 62, 0
2,10618, Note_on_c, 0, 78, 0
2,10639, Note_on_c, 0, 74, 73
2,10754, Note_on_c, 0, 74, 0
2,10777, Note_on_c, 0, 61, 83
2,10787, Note_on_c, 0, 76, 86
2,10844, Note_on_c, 0, 61, 0
2,10888, Note_on_c, 0, 76, 0
2,10909, Note_on_c, 0, 74, 70
2,11027, Note_on_c, 0, 74, 0
2,11059, Note_on_c, 0, 71, 92
2,11070, Note_on_c, 0, 76, 83
2,11198, Note_on_c, 0, 78, 81
2,11207, Note_on_c, 0, 76, 0
2,11336, Note_on_c, 0, 79, 86
2,11345, Note_on_c, 0, 78, 0
2,11414, Note_on_c, 0, 71, 0
2,11450, Note_on_c, 0, 79, 0
2,11454, Note_on_c, 0, 76, 83
2,11595, Note_on_c, 0, 69, 73
2,11601, Note_on_c, 0, 78, 87
2,11610, Note_on_c, 0, 76, 0
2,11650, Note_on_c, 0, 69, 0
2,11686, Note_on_c, 0, 78, 0
2,11867, Note_on_c, 0, 71, 76
2,11872, Note_on_c, 0, 79, 87
2,11955, Note_on_c, 0, 71, 0
2,11996, Note_on_c, 0, 78, 89
2,12000, Note_on_c, 0, 69, 71
2,12012, Note_on_c, 0, 79, 0
2,12105, Note_on_c, 0, 69, 0
2,12129, Note_on_c, 0, 67, 73
2,12129, Note_on_c, 0, 76, 86
2,12158, Note_on_c, 0, 78, 0
2,12223, Note_on_c, 0, 67, 0
2,12257, Note_on_c, 0, 66, 69
2,12257, Note_on_c, 0, 74, 82
2,12257, Note_on_c, 0, 76, 0
2,12359, Note_on_c, 0, 66, 0
2,12399, Note_on_c, 0, 64, 69
2,12418, Note_on_c, 0, 79, 93
2,12437, Note_on_c, 0, 74, 0
2,12470, Note_on_c, 0, 64, 0
2,12680, Note_on_c, 0, 67, 76
2,12801, Note_on_c, 0, 67, 0
2,12810, Note_on_c, 0, 66, 75
2,12898, Note_on_c, 0, 66, 0
2,12930, Note_on_c, 0, 64, 77
2,13038, Note_on_c, 0, 64, 0
2,13059, Note_on_c, 0, 62, 78
2,13169, Note_on_c, 0, 62, 0
2,13188, Note_on_c, 0, 61, 76
2,13239, Note_on_c, 0, 61, 0
2,13331, Note_on_c, 0, 78, 78
2,13342, Note_on_c, 0, 79, 0
2,13458, Note_on_c, 0, 78, 0
2,13466, Note_on_c, 0, 67, 68
2,13466, Note_on_c, 0, 76, 77
2,13518, Note_on_c, 0, 67, 0
2,13544, Note_on_c, 0, 76, 0
2,13598, Note_on_c, 0, 79, 73
2,13690, Note_on_c, 0, 79, 0
2,13730, Note_on_c, 0, 66, 64
2,13730, Note_on_c, 0, 74, 73
2,13775, Note_on_c, 0, 66, 0
2,13815, Note_on_c, 0, 74, 0
2,13849, Note_on_c, 0, 79, 70
2,13965, Note_on_c, 0, 79, 0
2,13989, Note_on_c, 0, 64, 65
2,13997, Note_on_c, 0, 73, 70
2,14044, Note_on_c, 0, 64, 0
2,14089, Note_on_c, 0, 73, 0
2,14118, Note_on_c, 0, 79, 65
2,14218, Note_on_c, 0, 79, 0
2,14247, Note_on_c, 0, 71, 63
2,14254, Note_on_c, 0, 62, 57
2,14303, Note_on_c, 0, 62, 0
2,14347, Note_on_c, 0, 71, 0
2,14383, Note_on_c, 0, 79, 60
2,14490, Note_on_c, 0, 79, 0
2,14519, Note_on_c, 0, 61, 54
2,14521, Note_on_c, 0, 69, 58
2,14557, Note_on_c, 0, 61, 0
2,14603, Note_on_c, 0, 69, 0
2,14645, Note_on_c, 0, 79, 60
2,14718, Note_on_c, 0, 79, 0
2,14768, Note_on_c, 0, 62, 61
2,14778, Note_on_c, 0, 78, 68
2,14824, Note_on_c, 0, 78, 0
2,14864, Note_on_c, 0, 62, 0
2,14904, Note_on_c, 0, 64, 65
2,14991, Note_on_c, 0, 64, 0
2,15032, Note_on_c, 0, 66, 71
2,15039, Note_on_c, 0, 74, 70
2,15091, Note_on_c, 0, 74, 0
2,15109, Note_on_c, 0, 66, 0
2,15152, Note_on_c, 0, 62, 70
2,15263, Note_on_c, 0, 62, 0
2,15295, Note_on_c, 0, 67, 73
2,15295, Note_on_c, 0, 76, 80
2,15346, Note_on_c, 0, 76, 0
2,15377, Note_on_c, 0, 67, 0
2,15418, Note_on_c, 0, 62, 74
2,15517, Note_on_c, 0, 62, 0
2,15555, Note_on_c, 0, 69, 77
2,15559, Note_on_c, 0, 78, 88
2,15633, Note_on_c, 0, 78, 0
2,15643, Note_on_c, 0, 69, 0
2,15676, Note_on_c, 0, 62, 79
2,15785, Note_on_c, 0, 62, 0
2,15814, Note_on_c, 0, 71, 80
2,15814, Note_on_c, 0, 79, 94
2,15894, Note_on_c, 0, 79, 0
2,15911, Note_on_c, 0, 71, 0
2,15930, Note_on_c, 0, 62, 79
2,16002, Note_on_c, 0, 62, 0
2,16080, Note_on_c, 0, 81, 89
2,16086, Note_on_c, 0, 72, 79
2,16177, Note_on_c, 0, 72, 0
2,16220, Note_on_c, 0, 62, 68
2,16269, Note_on_c, 0, 62, 0
2,16354, Note_on_c, 0, 71, 87
2,16361, Note_on_c, 0, 55, 79
2,16405, Note_on_c, 0, 81, 0
2,16460, Note_on_c, 0, 55, 0
2,16633, Note_on_c, 0, 57, 79
2,16641, Note_on_c, 0, 74, 84
2,16717, Note_on_c, 0, 57, 0
2,16721, Note_on_c, 0, 74, 0
2,16762, Note_on_c, 0, 55, 72
2,16858, Note_on_c, 0, 55, 0
2,16890, Note_on_c, 0, 54, 78
2,16903, Note_on_c, 0, 79, 93
2,16929, Note_on_c, 0, 71, 0
2,16964, Note_on_c, 0, 54, 0
2,17011, Note_on_c, 0, 55, 75
2,17136, Note_on_c, 0, 55, 0
2,17163, Note_on_c, 0, 57, 83
2,17167, Note_on_c, 0, 72, 91
2,17167, Note_on_c, 0, 79, 0
2,17241, Note_on_c, 0, 57, 0
2,17452, Note_on_c, 0, 59, 80
2,17463, Note_on_c, 0, 78, 87
2,17531, Note_on_c, 0, 59, 0
2,17577, Note_on_c, 0, 57, 78
2,17581, Note_on_c, 0, 78, 0
2,17668, Note_on_c, 0, 57, 0
2,17703, Note_on_c, 0, 55, 74
2,17721, Note_on_c, 0, 76, 89
2,17776, Note_on_c, 0, 76, 0
2,17798, Note_on_c, 0, 55, 0
2,17852, Note_on_c, 0, 57, 73
2,17934, Note_on_c, 0, 57, 0
2,17991, Note_on_c, 0, 59, 77
2,17996, Note_on_c, 0, 74, 80
2,18000, Note_on_c, 0, 72, 0
2,18033, Note_on_c, 0, 59, 0
2,18049, Note_on_c, 0, 74, 0
2,18267, Note_on_c, 0, 57, 64
2,18271, Note_on_c, 0, 66, 65
2,18271, Note_on_c, 0, 72, 72
2,18313, Note_on_c, 0, 57, 0
2,18333, Note_on_c, 0, 66, 0
2,18346, Note_on_c, 0, 72, 0
2,18552, Note_on_c, 0, 55, 53
2,18552, Note_on_c, 0, 71, 68
2,18567, Note_on_c, 0, 67, 49
2,18587, Note_on_c, 0, 55, 0
2,18620, Note_on_c, 0, 71, 0
2,18834, Note_on_c, 0, 50, 67
2,18841, Note_on_c, 0, 69, 66
2,18886, Note_on_c, 0, 50, 0
2,19112, Note_on_c, 0, 60, 81
2,19112, Note_on_c, 0, 67, 0
2,19121, Note_on_c, 0, 69, 0
2,19134, Note_on_c, 0, 66, 68
2,19225, Note_on_c, 0, 66, 0
2,19256, Note_on_c, 0, 67, 66
2,19338, Note_on_c, 0, 67, 0
2,19387, Note_on_c, 0, 69, 72
2,19471, Note_on_c, 0, 60, 0
2,19488, Note_on_c, 0, 69, 0
2,19504, Note_on_c, 0, 66, 71
2,19599, Note_on_c, 0, 66, 0
2,19638, Note_on_c, 0, 59, 69
2,19655, Note_on_c, 0, 67, 74
2,19688, Note_on_c, 0, 59, 0
2,19727, Note_on_c, 0, 67, 0
2,19786, Note_on_c, 0, 66, 75
2,19872, Note_on_c, 0, 66, 0
2,19905, Note_on_c, 0, 57, 70
2,19905, Note_on_c, 0, 67, 77
2,19954, Note_on_c, 0, 57, 0
2,19992, Note_on_c, 0, 67, 0
2,20036, Note_on_c, 0, 69, 74
2,20108, Note_on_c, 0, 69, 0
2,20170, Note_on_c, 0, 55, 70
2,20170, Note_on_c, 0, 74, 91
2,20175, Note_on_c, 0, 71, 83
2,20219, Note_on_c, 0, 55, 0
2,20250, Note_on_c, 0, 71, 0
2,20302, Note_on_c, 0, 67, 65
2,20366, Note_on_c, 0, 67, 0
2,20444, Note_on_c, 0, 69, 79
2,20448, Note_on_c, 0, 54, 77
2,20488, Note_on_c, 0, 54, 0
2,20521, Note_on_c, 0, 69, 0
2,20564, Note_on_c, 0, 67, 67
2,20649, Note_on_c, 0, 67, 0
2,20696, Note_on_c, 0, 64, 88
2,20701, Note_on_c, 0, 74, 0
2,20705, Note_on_c, 0, 69, 83
2,20712, Note_on_c, 0, 72, 86
2,20755, Note_on_c, 0, 69, 0
2,20783, Note_on_c, 0, 72, 0
2,20828, Note_on_c, 0, 71, 81
2,20901, Note_on_c, 0, 71, 0
2,20964, Note_on_c, 0, 81, 92
2,20968, Note_on_c, 0, 72, 85
2,21030, Note_on_c, 0, 64, 0
2,21030, Note_on_c, 0, 72, 0
2,21079, Note_on_c, 0, 69, 79
2,21159, Note_on_c, 0, 69, 0
2,21226, Note_on_c, 0, 71, 85
2,21228, Note_on_c, 0, 62, 73
2,21289, Control_c, 0, 64, 10
2,21307, Control_c, 0, 64, 39
2,21311, Note_on_c, 0, 62, 0
2,21325, Control_c, 0, 64, 51
2,21344, Control_c, 0, 64, 55
2,21365, Control_c, 0, 64, 56
2,21369, Note_on_c, 0, 71, 0
2,21385, Control_c, 0, 64, 57
2,21400, Note_on_c, 0, 81, 0
2,21441, Control_c, 0, 64, 58
2,21481, Control_c, 0, 64, 57
2,21500, Control_c, 0, 64, 55
2,21502, Note_on_c, 0, 64, 68
2,21506, Note_on_c, 0, 72, 84
2,21518, Control_c, 0, 64, 51
2,21518, Note_on_c, 0, 79, 82
2,21540, Control_c, 0, 64, 43
2,21556, Control_c, 0, 64, 35
2,21574, Control_c, 0, 64, 32
2,21587, Note_on_c, 0, 64, 0
2,21594, Control_c, 0, 64, 31
2,21598, Note_on_c, 0, 72, 0
2,21619, Note_on_c, 0, 71, 80
2,21632, Note_on_c, 0, 62, 71
2,21670, Control_c, 0, 64, 30
2,21691, Control_c, 0, 64, 29
2,21714, Note_on_c, 0, 71, 0
2,21755, Note_on_c, 0, 62, 0
2,21762, Note_on_c, 0, 60, 72
2,21766, Note_on_c, 0, 69, 81
2,21838, Note_on_c, 0, 69, 0
2,21861, Note_on_c, 0, 60, 0
2,21876, Note_on_c, 0, 67, 86
2,21892, Note_on_c, 0, 59, 73
2,21953, Note_on_c, 0, 67, 0
2,21984, Note_on_c, 0, 59, 0
2,22022, Note_on_c, 0, 72, 92
2,22038, Note_on_c, 0, 57, 79
2,22044, Note_on_c, 0, 79, 0
2,22121, Note_on_c, 0, 57, 0
2,22267, Control_c, 0, 64, 19
2,22287, Control_c, 0, 64, 0
2,22287, Note_on_c, 0, 60, 69
2,22306, Note_on_c, 0, 81, 84
2,22376, Note_on_c, 0, 60, 0
2,22414, Note_on_c, 0, 59, 71
2,22427, Note_on_c, 0, 79, 91
2,22440, Note_on_c, 0, 81, 0
2,22497, Note_on_c, 0, 59, 0
2,22539, Note_on_c, 0, 79, 0
2,22544, Note_on_c, 0, 57, 78
2,22557, Note_on_c, 0, 78, 85
2,22642, Note_on_c, 0, 57, 0
2,22670, Note_on_c, 0, 76, 83
2,22677, Note_on_c, 0, 78, 0
2,22686, Note_on_c, 0, 55, 71
2,22729, Note_on_c, 0, 76, 0
2,22793, Note_on_c, 0, 55, 0
2,22813, Note_on_c, 0, 54, 74
2,22815, Note_on_c, 0, 72, 0
2,22815, Note_on_c, 0, 74, 89
2,22953, Note_on_c, 0, 71, 80
2,23041, Note_on_c, 0, 54, 0
2,23057, Note_on_c, 0, 71, 0
2,23078, Note_on_c, 0, 69, 68
2,23197, Note_on_c, 0, 69, 0
2,23210, Note_on_c, 0, 72, 74
2,23311, Note_on_c, 0, 72, 0
2,23324, Note_on_c, 0, 52, 70
2,23348, Note_on_c, 0, 67, 69
2,23376, Note_on_c, 0, 52, 0
2,23430, Note_on_c, 0, 67, 0
2,23461, Note_on_c, 0, 72, 69
2,23549, Note_on_c, 0, 72, 0
2,23591, Note_on_c, 0, 50, 69
2,23593, Note_on_c, 0, 66, 66
2,23661, Note_on_c, 0, 50, 0
2,23685, Note_on_c, 0, 66, 0
2,23710, Note_on_c, 0, 72, 63
2,23721, Note_on_c, 0, 52, 67
2,23787, Note_on_c, 0, 52, 0
2,23811, Note_on_c, 0, 72, 0
2,23843, Note_on_c, 0, 50, 65
2,23852, Note_on_c, 0, 64, 72
2,23928, Note_on_c, 0, 50, 0
2,23950, Note_on_c, 0, 64, 0
2,23974, Note_on_c, 0, 48, 56
2,23983, Note_on_c, 0, 72, 73
2,24035, Note_on_c, 0, 48, 0
2,24039, Note_on_c, 0, 74, 0
2,24068, Note_on_c, 0, 72, 0
2,24102, Note_on_c, 0, 47, 63
2,24112, Note_on_c, 0, 62, 61
2,24166, Note_on_c, 0, 47, 0
2,24179, Note_on_c, 0, 62, 0
2,24217, Note_on_c, 0, 72, 66
2,24244, Note_on_c, 0, 45, 52
2,24294, Note_on_c, 0, 72, 0
2,24320, Note_on_c, 0, 45, 0
2,24359, Note_on_c, 0, 71, 61
2,24372, Note_on_c, 0, 43, 58
2,24409, Note_on_c, 0, 71, 0
2,24448, Note_on_c, 0, 43, 0
2,24503, Note_on_c, 0, 45, 52
2,24576, Note_on_c, 0, 45, 0
2,24612, Note_on_c, 0, 74, 72
2,24620, Note_on_c, 0, 47, 62
2,24634, Note_on_c, 0, 65, 50
2,24667, Note_on_c, 0, 74, 0
2,24671, Note_on_c, 0, 65, 0
2,24682, Note_on_c, 0, 47, 0
2,24748, Note_on_c, 0, 43, 63
2,24855, Note_on_c, 0, 43, 0
2,24878, Note_on_c, 0, 48, 69
2,24889, Note_on_c, 0, 72, 79
2,24911, Note_on_c, 0, 64, 55
2,24946, Note_on_c, 0, 64, 0
2,24946, Note_on_c, 0, 72, 0
2,24948, Note_on_c, 0, 48, 0
2,24999, Note_on_c, 0, 43, 67
2,25110, Note_on_c, 0, 43, 0
2,25143, Note_on_c, 0, 50, 76
2,25148, Note_on_c, 0, 71, 76
2,25161, Note_on_c, 0, 62, 59
2,25203, Note_on_c, 0, 62, 0
2,25203, Note_on_c, 0, 71, 0
2,25214, Note_on_c, 0, 50, 0
2,25272, Note_on_c, 0, 43, 64
2,25343, Note_on_c, 0, 43, 0
2,25418, Note_on_c, 0, 52, 70
2,25418, Note_on_c, 0, 69, 63
2,25430, Note_on_c, 0, 60, 55
2,25462, Note_on_c, 0, 69, 0
2,25466, Note_on_c, 0, 60, 0
2,25484, Note_on_c, 0, 52, 0
2,25538, Note_on_c, 0, 43, 57
2,25619, Note_on_c, 0, 43, 0
2,25688, Note_on_c, 0, 67, 62
2,25696, Note_on_c, 0, 53, 57
2,25700, Note_on_c, 0, 59, 49
2,25733, Note_on_c, 0, 59, 0
2,25742, Note_on_c, 0, 53, 0
2,25742, Note_on_c, 0, 67, 0
2,25820, Note_on_c, 0, 43, 44
2,25956, Note_on_c, 0, 43, 0
2,25960, Note_on_c, 0, 72, 71
2,25974, Note_on_c, 0, 52, 53
2,26091, Note_on_c, 0, 52, 0
2,26096, Note_on_c, 0, 74, 76
2,26107, Note_on_c, 0, 50, 58
2,26117, Note_on_c, 0, 72, 0
2,26210, Note_on_c, 0, 50, 0
2,26230, Note_on_c, 0, 48, 60
2,26249, Note_on_c, 0, 76, 82
2,26261, Note_on_c, 0, 74, 0
2,26311, Note_on_c, 0, 48, 0
2,26374, Note_on_c, 0, 52, 62
2,26488, Note_on_c, 0, 52, 0
2,26519, Note_on_c, 0, 47, 60
2,26519, Note_on_c, 0, 67, 63
2,26572, Note_on_c, 0, 67, 0
2,26578, Note_on_c, 0, 47, 0
2,26650, Note_on_c, 0, 52, 51
2,26794, Note_on_c, 0, 52, 0
2,26808, Note_on_c, 0, 45, 52
2,26828, Note_on_c, 0, 66, 59
2,26851, Note_on_c, 0, 76, 0
2,26920, Note_on_c, 0, 45, 0
2,26962, Note_on_c, 0, 52, 51
2,26990, Note_on_c, 0, 74, 66
2,27106, Note_on_c, 0, 43, 55
2,27111, Note_on_c, 0, 52, 0
2,27111, Note_on_c, 0, 72, 76
2,27140, Note_on_c, 0, 74, 0
2,27210, Note_on_c, 0, 43, 0
2,27243, Note_on_c, 0, 71, 68
2,27243, Note_on_c, 0, 72, 0
2,27254, Note_on_c, 0, 52, 58
2,27369, Note_on_c, 0, 52, 0
2,27375, Note_on_c, 0, 42, 63
2,27382, Note_on_c, 0, 69, 68
2,27384, Note_on_c, 0, 71, 0
2,27489, Note_on_c, 0, 42, 0
2,27518, Note_on_c, 0, 72, 72
2,27522, Note_on_c, 0, 52, 52
2,27535, Note_on_c, 0, 69, 0
2,27580, Note_on_c, 0, 66, 0
2,27604, Note_on_c, 0, 52, 0
2,27633, Note_on_c, 0, 72, 0
2,27642, Note_on_c, 0, 50, 60
2,27651, Note_on_c, 0, 71, 74
2,27757, Note_on_c, 0, 50, 0
2,27777, Note_on_c, 0, 71, 0
2,27779, Note_on_c, 0, 72, 73
2,27786, Note_on_c, 0, 48, 55
2,27866, Note_on_c, 0, 48, 0
2,27897, Note_on_c, 0, 72, 0
2,27915, Note_on_c, 0, 74, 67
2,27929, Note_on_c, 0, 47, 55
2,27989, Note_on_c, 0, 47, 0
2,28052, Note_on_c, 0, 50, 53
2,28167, Note_on_c, 0, 66, 66
2,28172, Note_on_c, 0, 50, 0
2,28187, Note_on_c, 0, 45, 54
2,28243, Note_on_c, 0, 45, 0
2,28253, Note_on_c, 0, 66, 0
2,28331, Note_on_c, 0, 50, 46
2,28443, Note_on_c, 0, 50, 0
2,28443, Note_on_c, 0, 74, 0
2,28452, Note_on_c, 0, 64, 60
2,28456, Note_on_c, 0, 43, 52
2,28540, Note_on_c, 0, 43, 0
2,28588, Note_on_c, 0, 72, 64
2,28601, Note_on_c, 0, 50, 51
2,28699, Note_on_c, 0, 72, 0
2,28721, Note_on_c, 0, 71, 72
2,28725, Note_on_c, 0, 50, 0
2,28729, Note_on_c, 0, 42, 60
2,28821, Note_on_c, 0, 42, 0
2,28841, Note_on_c, 0, 71, 0
2,28847, Note_on_c, 0, 69, 70
2,28883, Note_on_c, 0, 50, 53
2,28952, Note_on_c, 0, 50, 0
2,28990, Note_on_c, 0, 67, 69
2,28990, Note_on_c, 0, 69, 0
2,28994, Note_on_c, 0, 40, 51
2,29040, Note_on_c, 0, 40, 0
2,29098, Note_on_c, 0, 50, 53
2,29113, Note_on_c, 0, 67, 0
2,29121, Note_on_c, 0, 71, 67
2,29175, Note_on_c, 0, 50, 0
2,29220, Note_on_c, 0, 71, 0
2,29246, Note_on_c, 0, 48, 56
2,29255, Note_on_c, 0, 69, 62
2,29286, Note_on_c, 0, 64, 0
2,29333, Note_on_c, 0, 48, 0
2,29353, Note_on_c, 0, 69, 0
2,29373, Note_on_c, 0, 71, 65
2,29404, Note_on_c, 0, 47, 45
2,29463, Note_on_c, 0, 47, 0
2,29485, Note_on_c, 0, 71, 0
2,29518, Note_on_c, 0, 72, 63
2,29540, Note_on_c, 0, 45, 46
2,29587, Note_on_c, 0, 45, 0
2,29658, Note_on_c, 0, 48, 47
2,29752, Note_on_c, 0, 48, 0
2,29768, Note_on_c, 0, 64, 59
2,29787, Note_on_c, 0, 43, 50
2,29818, Note_on_c, 0, 64, 0
2,29832, Note_on_c, 0, 43, 0
2,29904, Note_on_c, 0, 48, 40
2,30001, Note_on_c, 0, 48, 0
2,30043, Note_on_c, 0, 42, 55
2,30059, Note_on_c, 0, 62, 60
2,30059, Note_on_c, 0, 72, 0
2,30106, Note_on_c, 0, 42, 0
2,30169, Note_on_c, 0, 48, 42
2,30198, Note_on_c, 0, 71, 60
2,30255, Note_on_c, 0, 71, 0
2,30287, Note_on_c, 0, 48, 0
2,30323, Note_on_c, 0, 40, 52
2,30323, Note_on_c, 0, 69, 64
2,30378, Note_on_c, 0, 40, 0
2,30432, Note_on_c, 0, 69, 0
2,30444, Note_on_c, 0, 48, 54
2,30457, Note_on_c, 0, 67, 71
2,30557, Note_on_c, 0, 48, 0
2,30566, Note_on_c, 0, 67, 0
2,30588, Note_on_c, 0, 38, 60
2,30593, Note_on_c, 0, 66, 75
2,30637, Note_on_c, 0, 62, 0
2,30652, Note_on_c, 0, 38, 0
2,30689, Note_on_c, 0, 66, 0
2,30709, Note_on_c, 0, 48, 55
2,30716, Note_on_c, 0, 69, 69
2,30767, Note_on_c, 0, 48, 0
2,30799, Note_on_c, 0, 69, 0
2,30847, Note_on_c, 0, 47, 76
2,30851, Note_on_c, 0, 67, 84
2,30864, Note_on_c, 0, 62, 78
2,30894, Note_on_c, 0, 47, 0
2,30907, Note_on_c, 0, 62, 0
2,30911, Note_on_c, 0, 67, 0
2,30962, Note_on_c, 0, 69, 74
2,31060, Note_on_c, 0, 69, 0
2,31112, Note_on_c, 0, 71, 83
2,31116, Note_on_c, 0, 45, 71
2,31120, Note_on_c, 0, 60, 81
2,31160, Note_on_c, 0, 45, 0
2,31176, Note_on_c, 0, 60, 0
2,31231, Note_on_c, 0, 62, 84
2,31321, Note_on_c, 0, 62, 0
2,31371, Note_on_c, 0, 64, 90
2,31384, Note_on_c, 0, 43, 74
2,31429, Note_on_c, 0, 43, 0
2,31447, Note_on_c, 0, 64, 0
2,31488, Note_on_c, 0, 62, 85
2,31506, Note_on_c, 0, 71, 0
2,31569, Note_on_c, 0, 62, 0
2,31636, Note_on_c, 0, 60, 91
2,31656, Note_on_c, 0, 45, 73
2,31702, Note_on_c, 0, 60, 0
2,31706, Note_on_c, 0, 45, 0
2,31913, Note_on_c, 0, 64, 89
2,31918, Note_on_c, 0, 43, 72
2,31924, Note_on_c, 0, 59, 81
2,31967, Note_on_c, 0, 59, 0
2,31973, Note_on_c, 0, 43, 0
2,32040, Note_on_c, 0, 60, 84
2,32066, Note_on_c, 0, 64, 0
2,32119, Note_on_c, 0, 60, 0
2,32163, Note_on_c, 0, 69, 81
2,32176, Note_on_c, 0, 62, 72
2,32178, Note_on_c, 0, 42, 70
2,32210, Note_on_c, 0, 62, 0
2,32214, Note_on_c, 0, 42, 0
2,32286, Note_on_c, 0, 60, 80
2,32338, Note_on_c, 0, 60, 0
2,32418, Note_on_c, 0, 59, 82
2,32431, Note_on_c, 0, 43, 70
2,32436, Note_on_c, 0, 69, 0
2,32472, Note_on_c, 0, 59, 0
2,32490, Note_on_c, 0, 43, 0
2,32538, Note_on_c, 0, 67, 72
2,32556, Note_on_c, 0, 55, 67
2,32569, Note_on_c, 0, 67, 0
2,32617, Note_on_c, 0, 55, 0
2,32677, Note_on_c, 0, 53, 75
2,32693, Note_on_c, 0, 60, 78
2,32693, Note_on_c, 0, 69, 81
2,32726, Note_on_c, 0, 60, 0
2,32744, Note_on_c, 0, 69, 0
2,32753, Note_on_c, 0, 53, 0
2,32814, Note_on_c, 0, 52, 70
2,32877, Note_on_c, 0, 52, 0
2,32943, Note_on_c, 0, 50, 70
2,32945, Note_on_c, 0, 62, 89
2,32947, Note_on_c, 0, 71, 91
2,32988, Note_on_c, 0, 62, 0
2,33015, Note_on_c, 0, 71, 0
2,33042, Note_on_c, 0, 50, 0
2,33088, Note_on_c, 0, 53, 67
2,33148, Note_on_c, 0, 53, 0
2,33217, Note_on_c, 0, 52, 81
2,33217, Note_on_c, 0, 72, 85
2,33221, Note_on_c, 0, 67, 69
2,33233, Note_on_c, 0, 69, 57
2,33260, Note_on_c, 0, 69, 0
2,33273, Note_on_c, 0, 67, 0
2,33284, Note_on_c, 0, 52, 0
2,33326, Note_on_c, 0, 74, 78
2,33331, Note_on_c, 0, 72, 0
2,33344, Note_on_c, 0, 53, 72
2,33411, Note_on_c, 0, 53, 0
2,33411, Note_on_c, 0, 74, 0
2,33460, Note_on_c, 0, 72, 86
2,33476, Note_on_c, 0, 52, 82
2,33482, Note_on_c, 0, 57, 81
2,33540, Note_on_c, 0, 72, 0
2,33547, Note_on_c, 0, 52, 0
2,33593, Note_on_c, 0, 71, 78
2,33608, Note_on_c, 0, 50, 75
2,33674, Note_on_c, 0, 71, 0
2,33685, Note_on_c, 0, 50, 0
2,33730, Note_on_c, 0, 69, 71
2,33743, Note_on_c, 0, 48, 69
2,33806, Note_on_c, 0, 69, 0
2,33831, Note_on_c, 0, 48, 0
2,33857, Note_on_c, 0, 67, 65
2,33877, Note_on_c, 0, 57, 0
2,33879, Note_on_c, 0, 52, 64
2,33919, Note_on_c, 0, 67, 0
2,33939, Note_on_c, 0, 52, 0
2,33991, Note_on_c, 0, 59, 83
2,33991, Note_on_c, 0, 66, 76
2,34008, Note_on_c, 0, 50, 69
2,34034, Note_on_c, 0, 66, 0
2,34047, Note_on_c, 0, 59, 0
2,34058, Note_on_c, 0, 50, 0
2,34063, Note_on_c, 0, 67, 64
2,34121, Note_on_c, 0, 52, 69
2,34135, Note_on_c, 0, 67, 0
2,34148, Note_on_c, 0, 66, 72
2,34185, Note_on_c, 0, 52, 0
2,34208, Note_on_c, 0, 66, 0
2,34251, Note_on_c, 0, 50, 79
2,34256, Note_on_c, 0, 60, 84
2,34308, Note_on_c, 0, 60, 0
2,34326, Note_on_c, 0, 50, 0
2,34350, Note_on_c, 0, 64, 72
2,34379, Note_on_c, 0, 48, 69
2,34437, Note_on_c, 0, 66, 78
2,34450, Note_on_c, 0, 64, 0
2,34461, Note_on_c, 0, 48, 0
2,34492, Note_on_c, 0, 66, 0
2,34522, Note_on_c, 0, 47, 79
2,34522, Note_on_c, 0, 67, 92
2,34528, Note_on_c, 0, 62, 88
2,34579, Note_on_c, 0, 62, 0
2,34596, Note_on_c, 0, 47, 0
2,34652, Note_on_c, 0, 50, 70
2,34734, Note_on_c, 0, 50, 0
2,34742, Note_on_c, 0, 67, 0
2,34785, Note_on_c, 0, 48, 82
2,34785, Note_on_c, 0, 64, 88
2,34857, Note_on_c, 0, 48, 0
2,34874, Note_on_c, 0, 64, 0
2,34894, Note_on_c, 0, 71, 82
2,34916, Note_on_c, 0, 50, 71
2,34980, Note_on_c, 0, 50, 0
2,34984, Note_on_c, 0, 71, 0
2,35033, Note_on_c, 0, 48, 81
2,35033, Note_on_c, 0, 69, 84
2,35043, Note_on_c, 0, 54, 77
2,35103, Note_on_c, 0, 69, 0
2,35139, Note_on_c, 0, 48, 0
2,35162, Note_on_c, 0, 67, 80
2,35167, Note_on_c, 0, 47, 70
2,35242, Note_on_c, 0, 67, 0
2,35281, Note_on_c, 0, 47, 0
2,35290, Note_on_c, 0, 66, 74
2,35302, Note_on_c, 0, 45, 65
2,35373, Note_on_c, 0, 66, 0
2,35384, Note_on_c, 0, 45, 0
2,35414, Note_on_c, 0, 54, 0
2,35414, Note_on_c, 0, 64, 61
2,35418, Note_on_c, 0, 48, 66
2,35457, Note_on_c, 0, 64, 0
2,35518, Note_on_c, 0, 48, 0
2,35550, Note_on_c, 0, 55, 70
2,35559, Note_on_c, 0, 62, 77
2,35570, Note_on_c, 0, 47, 60
2,35609, Note_on_c, 0, 55, 0
2,35634, Note_on_c, 0, 47, 0
2,35684, Note_on_c, 0, 48, 61
2,35689, Note_on_c, 0, 62, 0
2,35763, Note_on_c, 0, 48, 0
2,35820, Note_on_c, 0, 55, 80
2,35824, Note_on_c, 0, 47, 74
2,35903, Note_on_c, 0, 55, 0
2,35921, Note_on_c, 0, 47, 0
2,35950, Note_on_c, 0, 57, 85
2,35956, Note_on_c, 0, 45, 73
2,36031, Note_on_c, 0, 57, 0
2,36041, Note_on_c, 0, 45, 0
2,36078, Note_on_c, 0, 59, 86
2,36091, Note_on_c, 0, 43, 74
2,36160, Note_on_c, 0, 59, 0
2,36177, Note_on_c, 0, 43, 0
2,36207, Note_on_c, 0, 61, 81
2,36215, Note_on_c, 0, 45, 77
2,36306, Note_on_c, 0, 45, 0
2,36312, Note_on_c, 0, 61, 0
2,36348, Note_on_c, 0, 62, 89
2,36357, Note_on_c, 0, 47, 79
2,36448, Note_on_c, 0, 62, 0
2,36476, Note_on_c, 0, 49, 75
2,36485, Note_on_c, 0, 47, 0
2,36610, Note_on_c, 0, 50, 81
2,36613, Note_on_c, 0, 49, 0
2,36617, Note_on_c, 0, 59, 91
2,36690, Note_on_c, 0, 50, 0
2,36713, Note_on_c, 0, 59, 0
2,36735, Note_on_c, 0, 52, 76
2,36748, Note_on_c, 0, 61, 83
2,36833, Note_on_c, 0, 61, 0
2,36856, Note_on_c, 0, 52, 0
2,36856, Note_on_c, 0, 54, 79
2,36865, Note_on_c, 0, 62, 88
2,36941, Note_on_c, 0, 54, 0
2,36941, Note_on_c, 0, 62, 0
2,36983, Note_on_c, 0, 64, 89
2,36991, Note_on_c, 0, 55, 75
2,37064, Note_on_c, 0, 55, 0
2,37064, Note_on_c, 0, 64, 0
2,37121, Note_on_c, 0, 69, 87
2,37125, Note_on_c, 0, 54, 84
2,37125, Note_on_c, 0, 66, 89
2,37167, Note_on_c, 0, 54, 0
2,37185, Note_on_c, 0, 66, 0
2,37189, Note_on_c, 0, 69, 0
2,37402, Note_on_c, 0, 59, 75
2,37402, Note_on_c, 0, 67, 85
2,37410, Note_on_c, 0, 64, 73
2,37444, Note_on_c, 0, 59, 0
2,37448, Note_on_c, 0, 64, 0
2,37497, Note_on_c, 0, 67, 0
2,37531, Note_on_c, 0, 69, 77
2,37627, Note_on_c, 0, 69, 0
2,37669, Note_on_c, 0, 47, 70
2,37674, Note_on_c, 0, 71, 81
2,37679, Note_on_c, 0, 63, 73
2,37717, Note_on_c, 0, 47, 0
2,37717, Note_on_c, 0, 63, 0
2,37771, Note_on_c, 0, 69, 72
2,37797, Note_on_c, 0, 71, 0
2,37858, Note_on_c, 0, 69, 0
2,37924, Note_on_c, 0, 67, 83
2,37928, Note_on_c, 0, 52, 75
2,37933, Note_on_c, 0, 64, 76
2,37971, Note_on_c, 0, 52, 0
2,37980, Note_on_c, 0, 64, 0
2,37994, Note_on_c, 0, 67, 0
2,38218, Note_on_c, 0, 57, 74
2,38225, Note_on_c, 0, 66, 74
2,38234, Note_on_c, 0, 62, 58
2,38269, Note_on_c, 0, 57, 0
2,38278, Note_on_c, 0, 62, 0
2,38315, Note_on_c, 0, 66, 0
2,38348, Note_on_c, 0, 67, 72
2,38466, Note_on_c, 0, 67, 0
2,38499, Note_on_c, 0, 45, 54
2,38499, Note_on_c, 0, 69, 71
2,38503, Note_on_c, 0, 61, 65
2,38538, Note_on_c, 0, 45, 0
2,38544, Note_on_c, 0, 61, 0
2,38579, Note_on_c, 0, 69, 0
2,38605, Note_on_c, 0, 67, 69
2,38696, Note_on_c, 0, 67, 0
2,38747, Note_on_c, 0, 50, 65
2,38753, Note_on_c, 0, 66, 74
2,38778, Note_on_c, 0, 62, 63
2,38786, Note_on_c, 0, 50, 0
2,38812, Note_on_c, 0, 66, 0
2,38821, Note_on_c, 0, 62, 0
2,39032, Note_on_c, 0, 52, 65
2,39037, Note_on_c, 0, 67, 76
2,39041, Note_on_c, 0, 61, 58
2,39078, Note_on_c, 0, 61, 0
2,39096, Note_on_c, 0, 52, 0
2,39096, Note_on_c, 0, 67, 0
2,39156, Note_on_c, 0, 59, 77
2,39239, Note_on_c, 0, 59, 0
2,39294, Note_on_c, 0, 54, 64
2,39297, Note_on_c, 0, 57, 68
2,39297, Note_on_c, 0, 69, 80
2,39348, Note_on_c, 0, 69, 0
2,39363, Note_on_c, 0, 57, 0
2,39440, Note_on_c, 0, 60, 65
2,39522, Note_on_c, 0, 60, 0
2,39540, Note_on_c, 0, 74, 88
2,39550, Note_on_c, 0, 59, 70
2,39605, Note_on_c, 0, 74, 0
2,39614, Note_on_c, 0, 54, 0
2,39616, Note_on_c, 0, 59, 0
2,39664, Note_on_c, 0, 60, 64
2,39733, Note_on_c, 0, 60, 0
2,39797, Note_on_c, 0, 64, 82
2,39806, Note_on_c, 0, 55, 53
2,39811, Note_on_c, 0, 57, 65
2,39841, Note_on_c, 0, 64, 0
2,39847, Note_on_c, 0, 66, 76
2,39854, Note_on_c, 0, 57, 0
2,39858, Note_on_c, 0, 55, 0
2,39898, Note_on_c, 0, 66, 0
2,39918, Note_on_c, 0, 64, 66
2,40002, Note_on_c, 0, 66, 71
2,40039, Note_on_c, 0, 49, 68
2,40041, Note_on_c, 0, 66, 0
2,40061, Note_on_c, 0, 55, 43
2,40125, Note_on_c, 0, 66, 75
2,40134, Note_on_c, 0, 64, 0
2,40142, Note_on_c, 0, 49, 0
2,40159, Note_on_c, 0, 55, 0
2,40166, Note_on_c, 0, 66, 0
2,40177, Note_on_c, 0, 62, 66
2,40195, Note_on_c, 0, 59, 64
2,40225, Note_on_c, 0, 62, 0
2,40234, Note_on_c, 0, 64, 73
2,40246, Note_on_c, 0, 59, 0
2,40302, Note_on_c, 0, 50, 65
2,40307, Note_on_c, 0, 57, 69
2,40315, Note_on_c, 0, 66, 82
2,40335, Note_on_c, 0, 64, 0
2,40354, Note_on_c, 0, 66, 0
2,40394, Note_on_c, 0, 57, 0
2,40398, Note_on_c, 0, 50, 0
2,40447, Note_on_c, 0, 59, 69
2,40519, Note_on_c, 0, 59, 0
2,40558, Note_on_c, 0, 57, 74
2,40573, Note_on_c, 0, 67, 85
2,40635, Note_on_c, 0, 67, 0
2,40637, Note_on_c, 0, 57, 0
2,40695, Note_on_c, 0, 55, 69
2,40764, Note_on_c, 0, 55, 0
2,40828, Note_on_c, 0, 54, 68
2,40832, Note_on_c, 0, 69, 81
2,40886, Note_on_c, 0, 54, 0
2,40890, Note_on_c, 0, 69, 0
2,40950, Note_on_c, 0, 57, 64
2,41033, Note_on_c, 0, 57, 0
2,41079, Note_on_c, 0, 55, 67
2,41090, Note_on_c, 0, 71, 85
2,41139, Note_on_c, 0, 71, 0
2,41152, Note_on_c, 0, 55, 0
2,41198, Note_on_c, 0, 57, 60
2,41276, Note_on_c, 0, 57, 0
2,41343, Note_on_c, 0, 55, 59
2,41353, Note_on_c, 0, 61, 75
2,41395, Note_on_c, 0, 61, 0
2,41395, Note_on_c, 0, 62, 71
2,41418, Note_on_c, 0, 55, 0
2,41454, Note_on_c, 0, 54, 67
2,41472, Note_on_c, 0, 62, 0
2,41486, Note_on_c, 0, 61, 68
2,41537, Note_on_c, 0, 61, 0
2,41552, Note_on_c, 0, 62, 72
2,41564, Note_on_c, 0, 54, 0
2,41588, Note_on_c, 0, 52, 59
2,41604, Note_on_c, 0, 62, 0
2,41628, Note_on_c, 0, 61, 63
2,41677, Note_on_c, 0, 61, 0
2,41687, Note_on_c, 0, 52, 0
2,41703, Note_on_c, 0, 59, 65
2,41736, Note_on_c, 0, 55, 58
2,41753, Note_on_c, 0, 59, 0
2,41780, Note_on_c, 0, 61, 55
2,41811, Note_on_c, 0, 55, 0
2,41875, Note_on_c, 0, 61, 0
2,41882, Note_on_c, 0, 62, 63
2,41891, Note_on_c, 0, 54, 61
2,41978, Note_on_c, 0, 54, 0
2,41998, Note_on_c, 0, 62, 0
2,42038, Note_on_c, 0, 55, 53
2,42115, Note_on_c, 0, 55, 0
2,42144, Note_on_c, 0, 62, 76
2,42165, Note_on_c, 0, 54, 67
2,42229, Note_on_c, 0, 62, 0
2,42242, Note_on_c, 0, 54, 0
2,42273, Note_on_c, 0, 64, 76
2,42287, Note_on_c, 0, 52, 73
2,42358, Note_on_c, 0, 64, 0
2,42375, Note_on_c, 0, 52, 0
2,42397, Note_on_c, 0, 66, 83
2,42426, Note_on_c, 0, 50, 66
2,42475, Note_on_c, 0, 66, 0
2,42492, Note_on_c, 0, 50, 0
2,42531, Note_on_c, 0, 52, 73
2,42531, Note_on_c, 0, 67, 88
2,42625, Note_on_c, 0, 52, 0
2,42634, Note_on_c, 0, 67, 0
2,42671, Note_on_c, 0, 54, 80
2,42671, Note_on_c, 0, 69, 84
2,42726, Note_on_c, 0, 69, 0
2,42743, Note_on_c, 0, 54, 0
2,42790, Note_on_c, 0, 55, 82
2,42865, Note_on_c, 0, 55, 0
2,42912, Note_on_c, 0, 57, 83
2,42937, Note_on_c, 0, 66, 91
2,42999, Note_on_c, 0, 57, 0
2,43010, Note_on_c, 0, 66, 0
2,43037, Note_on_c, 0, 59, 85
2,43052, Note_on_c, 0, 67, 84
2,43128, Note_on_c, 0, 59, 0
2,43135, Note_on_c, 0, 67, 0
2,43166, Note_on_c, 0, 60, 82
2,43179, Note_on_c, 0, 69, 85
2,43239, Note_on_c, 0, 60, 0
2,43287, Note_on_c, 0, 69, 0
2,43298, Note_on_c, 0, 62, 75
2,43298, Note_on_c, 0, 71, 91
2,43373, Note_on_c, 0, 71, 0
2,43421, Note_on_c, 0, 62, 0
2,43439, Note_on_c, 0, 50, 72
2,43446, Note_on_c, 0, 72, 97
2,43453, Note_on_c, 0, 54, 72
2,43516, Note_on_c, 0, 54, 0
2,43525, Note_on_c, 0, 50, 0
2,43726, Note_on_c, 0, 48, 70
2,43730, Note_on_c, 0, 69, 73
2,43770, Note_on_c, 0, 69, 0
2,43781, Note_on_c, 0, 48, 0
2,43846, Note_on_c, 0, 50, 74
2,43915, Note_on_c, 0, 50, 0
2,43985, Note_on_c, 0, 71, 86
2,43990, Note_on_c, 0, 52, 76
2,43990, Note_on_c, 0, 67, 80
2,43990, Note_on_c, 0, 72, 0
2,44042, Note_on_c, 0, 71, 0
2,44053, Note_on_c, 0, 52, 0
2,44114, Note_on_c, 0, 50, 70
2,44203, Note_on_c, 0, 50, 0
2,44252, Note_on_c, 0, 69, 85
2,44259, Note_on_c, 0, 48, 77
2,44280, Note_on_c, 0, 67, 0
2,44309, Note_on_c, 0, 48, 0
2,44533, Note_on_c, 0, 67, 78
2,44540, Note_on_c, 0, 47, 75
2,44576, Note_on_c, 0, 67, 0
2,44602, Note_on_c, 0, 47, 0
2,44656, Note_on_c, 0, 48, 74
2,44741, Note_on_c, 0, 48, 0
2,44791, Note_on_c, 0, 50, 78
2,44798, Note_on_c, 0, 66, 68
2,44848, Note_on_c, 0, 66, 0
2,44864, Note_on_c, 0, 50, 0
2,44921, Note_on_c, 0, 48, 70
2,44986, Note_on_c, 0, 48, 0
2,45015, Note_on_c, 0, 69, 0
2,45062, Note_on_c, 0, 47, 76
2,45066, Note_on_c, 0, 67, 77
2,45104, Note_on_c, 0, 47, 0
2,45175, Note_on_c, 0, 67, 0
2,45205, Note_on_c, 0, 79, 80
2,45319, Note_on_c, 0, 48, 80
2,45331, Note_on_c, 0, 78, 85
2,45335, Note_on_c, 0, 79, 0
2,45362, Note_on_c, 0, 48, 0
2,45429, Note_on_c, 0, 78, 0
2,45473, Note_on_c, 0, 76, 81
2,45561, Note_on_c, 0, 76, 0
2,45588, Note_on_c, 0, 50, 89
2,45600, Note_on_c, 0, 74, 82
2,45626, Note_on_c, 0, 50, 0
2,45696, Note_on_c, 0, 74, 0
2,45725, Note_on_c, 0, 78, 78
2,45821, Note_on_c, 0, 78, 0
2,45860, Note_on_c, 0, 76, 81
2,45864, Note_on_c, 0, 55, 82
2,45929, Note_on_c, 0, 55, 0
2,45965, Note_on_c, 0, 76, 0
2,45985, Note_on_c, 0, 78, 78
2,46089, Note_on_c, 0, 78, 0
2,46141, Note_on_c, 0, 45, 85
2,46141, Note_on_c, 0, 76, 78
2,46262, Note_on_c, 0, 76, 0
2,46271, Note_on_c, 0, 74, 75
2,46403, Note_on_c, 0, 72, 79
2,46408, Note_on_c, 0, 74, 0
2,46443, Note_on_c, 0, 45, 0
2,46530, Note_on_c, 0, 76, 78
2,46536, Note_on_c, 0, 72, 0
2,46644, Note_on_c, 0, 76, 0
2,46657, Note_on_c, 0, 47, 74
2,46670, Note_on_c, 0, 74, 78
2,46707, Note_on_c, 0, 47, 0
2,46750, Note_on_c, 0, 74, 0
2,46787, Note_on_c, 0, 76, 73
2,46906, Note_on_c, 0, 76, 0
2,46923, Note_on_c, 0, 48, 84
2,46927, Note_on_c, 0, 74, 78
2,46963, Note_on_c, 0, 48, 0
2,47010, Note_on_c, 0, 74, 0
2,47057, Note_on_c, 0, 72, 75
2,47148, Note_on_c, 0, 72, 0
2,47197, Note_on_c, 0, 50, 89
2,47197, Note_on_c, 0, 71, 79
2,47237, Note_on_c, 0, 50, 0
2,47308, Note_on_c, 0, 71, 0
2,47332, Note_on_c, 0, 74, 74
2,47446, Note_on_c, 0, 74, 0
2,47471, Note_on_c, 0, 52, 82
2,47471, Note_on_c, 0, 72, 82
2,47536, Note_on_c, 0, 52, 0
2,47552, Note_on_c, 0, 72, 0
2,47603, Note_on_c, 0, 74, 73
2,47704, Note_on_c, 0, 74, 0
2,47726, Note_on_c, 0, 42, 76
2,47735, Note_on_c, 0, 72, 74
2,47849, Note_on_c, 0, 72, 0
2,47869, Note_on_c, 0, 71, 62
2,47989, Note_on_c, 0, 71, 0
2,48011, Note_on_c, 0, 69, 60
2,48057, Note_on_c, 0, 42, 0
2,48126, Note_on_c, 0, 69, 0
2,48147, Note_on_c, 0, 72, 60
2,48267, Note_on_c, 0, 43, 60
2,48281, Note_on_c, 0, 72, 0
2,48290, Note_on_c, 0, 71, 64
2,48405, Note_on_c, 0, 43, 0
2,48414, Note_on_c, 0, 45, 69
2,48422, Note_on_c, 0, 69, 62
2,48426, Note_on_c, 0, 71, 0
2,48549, Note_on_c, 0, 69, 0
2,48557, Note_on_c, 0, 45, 0
2,48559, Note_on_c, 0, 47, 69
2,48571, Note_on_c, 0, 67, 63
2,48667, Note_on_c, 0, 67, 0
2,48703, Note_on_c, 0, 71, 61
2,48827, Note_on_c, 0, 71, 0
2,48834, Note_on_c, 0, 66, 66
2,48848, Note_on_c, 0, 62, 64
2,48892, Note_on_c, 0, 62, 0
2,48903, Note_on_c, 0, 66, 0
2,48974, Note_on_c, 0, 71, 42
2,49079, Note_on_c, 0, 71, 0
2,49106, Note_on_c, 0, 64, 57
2,49130, Note_on_c, 0, 61, 48
2,49190, Note_on_c, 0, 61, 0
2,49215, Note_on_c, 0, 47, 0
2,49215, Note_on_c, 0, 64, 0
2,49232, Note_on_c, 0, 71, 59
2,49248, Note_on_c, 0, 45, 49
2,49349, Note_on_c, 0, 45, 0
2,49354, Note_on_c, 0, 71, 0
2,49359, Note_on_c, 0, 43, 67
2,49381, Note_on_c, 0, 62, 66
2,49452, Note_on_c, 0, 62, 0
2,49471, Note_on_c, 0, 43, 0
2,49491, Note_on_c, 0, 42, 67
2,49511, Note_on_c, 0, 71, 57
2,49586, Note_on_c, 0, 42, 0
2,49633, Note_on_c, 0, 40, 60
2,49646, Note_on_c, 0, 71, 0
2,49657, Note_on_c, 0, 61, 67
2,49758, Note_on_c, 0, 40, 0
2,49766, Note_on_c, 0, 61, 0
2,49774, Note_on_c, 0, 43, 67
2,49793, Note_on_c, 0, 71, 56
2,49909, Note_on_c, 0, 43, 0
2,49917, Note_on_c, 0, 71, 0
2,49918, Note_on_c, 0, 42, 69
2,49925, Note_on_c, 0, 69, 69
2,50019, Note_on_c, 0, 42, 0
2,50036, Note_on_c, 0, 43, 64
2,50044, Note_on_c, 0, 69, 0
2,50071, Note_on_c, 0, 67, 64
2,50171, Note_on_c, 0, 43, 0
2,50187, Note_on_c, 0, 67, 0
2,50191, Note_on_c, 0, 45, 66
2,50207, Note_on_c, 0, 66, 68
2,50321, Note_on_c, 0, 66, 0
2,50348, Note_on_c, 0, 69, 58
2,50443, Note_on_c, 0, 69, 0
2,50480, Note_on_c, 0, 61, 61
2,50480, Note_on_c, 0, 64, 60
2,50553, Note_on_c, 0, 61, 0
2,50553, Note_on_c, 0, 64, 0
2,50597, Note_on_c, 0, 69, 60
2,50738, Note_on_c, 0, 69, 0
2,50745, Note_on_c, 0, 59, 57
2,50758, Note_on_c, 0, 62, 59
2,50812, Note_on_c, 0, 62, 0
2,50886, Note_on_c, 0, 45, 0
2,50886, Note_on_c, 0, 59, 0
2,50893, Note_on_c, 0, 43, 58
2,50893, Note_on_c, 0, 69, 53
2,50983, Note_on_c, 0, 43, 0
2,50992, Note_on_c, 0, 69, 0
2,51003, Note_on_c, 0, 42, 68
2,51014, Note_on_c, 0, 61, 55
2,51096, Note_on_c, 0, 42, 0
2,51096, Note_on_c, 0, 61, 0
2,51136, Note_on_c, 0, 69, 62
2,51147, Note_on_c, 0, 40, 57
2,51232, Note_on_c, 0, 69, 0
2,51247, Note_on_c, 0, 40, 0
2,51274, Note_on_c, 0, 59, 68
2,51278, Note_on_c, 0, 38, 66
2,51385, Note_on_c, 0, 38, 0
2,51394, Note_on_c, 0, 69, 62
2,51402, Note_on_c, 0, 59, 0
2,51418, Note_on_c, 0, 42, 64
2,51502, Note_on_c, 0, 42, 0
2,51511, Note_on_c, 0, 69, 0
2,51539, Note_on_c, 0, 67, 67
2,51554, Note_on_c, 0, 40, 58
2,51630, Note_on_c, 0, 40, 0
2,51669, Note_on_c, 0, 42, 60
2,51669, Note_on_c, 0, 67, 0
2,51678, Note_on_c, 0, 66, 63
2,51785, Note_on_c, 0, 42, 0
2,51817, Note_on_c, 0, 43, 60
2,51830, Note_on_c, 0, 64, 65
2,51832, Note_on_c, 0, 66, 0
2,51929, Note_on_c, 0, 64, 0
2,51947, Note_on_c, 0, 67, 61
2,52081, Note_on_c, 0, 67, 0
2,52103, Note_on_c, 0, 62, 60
2,52111, Note_on_c, 0, 59, 54
2,52171, Note_on_c, 0, 62, 0
2,52190, Note_on_c, 0, 59, 0
2,52224, Note_on_c, 0, 67, 56
2,52356, Note_on_c, 0, 67, 0
2,52380, Note_on_c, 0, 61, 48
2,52407, Note_on_c, 0, 57, 38
2,52449, Note_on_c, 0, 57, 0
2,52460, Note_on_c, 0, 61, 0
2,52477, Note_on_c, 0, 43, 0
2,52493, Note_on_c, 0, 42, 58
2,52504, Note_on_c, 0, 67, 55
2,52561, Note_on_c, 0, 42, 0
2,52621, Note_on_c, 0, 67, 0
2,52632, Note_on_c, 0, 40, 55
2,52636, Note_on_c, 0, 59, 63
2,52697, Note_on_c, 0, 59, 0
2,52739, Note_on_c, 0, 40, 0
2,52764, Note_on_c, 0, 67, 58
2,52769, Note_on_c, 0, 38, 58
2,52855, Note_on_c, 0, 67, 0
2,52883, Note_on_c, 0, 38, 0
2,52905, Note_on_c, 0, 57, 65
2,52910, Note_on_c, 0, 37, 58
2,52967, Note_on_c, 0, 57, 0
2,52976, Note_on_c, 0, 37, 0
2,53010, Note_on_c, 0, 67, 58
2,53027, Note_on_c, 0, 40, 50
2,53093, Note_on_c, 0, 67, 0
2,53143, Note_on_c, 0, 40, 0
2,53163, Note_on_c, 0, 66, 70
2,53166, Note_on_c, 0, 38, 56
2,53241, Note_on_c, 0, 38, 0
2,53263, Note_on_c, 0, 66, 0
2,53289, Note_on_c, 0, 74, 70
2,53302, Note_on_c, 0, 40, 51
2,53381, Note_on_c, 0, 40, 0
2,53392, Note_on_c, 0, 74, 0
2,53408, Note_on_c, 0, 42, 66
2,53412, Note_on_c, 0, 72, 79
2,53488, Note_on_c, 0, 42, 0
2,53488, Note_on_c, 0, 72, 0
2,53540, Note_on_c, 0, 71, 79
2,53547, Note_on_c, 0, 38, 62
2,53614, Note_on_c, 0, 71, 0
2,53636, Note_on_c, 0, 38, 0
2,53665, Note_on_c, 0, 69, 74
2,53670, Note_on_c, 0, 43, 69
2,53740, Note_on_c, 0, 43, 0
2,53740, Note_on_c, 0, 69, 0
2,53789, Note_on_c, 0, 67, 75
2,53798, Note_on_c, 0, 38, 62
2,53873, Note_on_c, 0, 67, 0
2,53884, Note_on_c, 0, 38, 0
2,53927, Note_on_c, 0, 66, 80
2,53935, Note_on_c, 0, 45, 70
2,54015, Note_on_c, 0, 45, 0
2,54023, Note_on_c, 0, 66, 0
2,54056, Note_on_c, 0, 64, 81
2,54069, Note_on_c, 0, 38, 62
2,54140, Note_on_c, 0, 64, 0
2,54164, Note_on_c, 0, 38, 0
2,54184, Note_on_c, 0, 62, 78
2,54199, Note_on_c, 0, 47, 74
2,54264, Note_on_c, 0, 62, 0
2,54287, Note_on_c, 0, 47, 0
2,54311, Note_on_c, 0, 60, 76
2,54326, Note_on_c, 0, 38, 70
2,54393, Note_on_c, 0, 38, 0
2,54400, Note_on_c, 0, 60, 0
2,54450, Note_on_c, 0, 48, 71
2,54450, Note_on_c, 0, 59, 76
2,54522, Note_on_c, 0, 48, 0
2,54535, Note_on_c, 0, 59, 0
2,54565, Note_on_c, 0, 38, 67
2,54580, Note_on_c, 0, 57, 74
2,54665, Note_on_c, 0, 57, 0
2,54669, Note_on_c, 0, 38, 0
2,54701, Note_on_c, 0, 47, 70
2,54710, Note_on_c, 0, 55, 70
2,54761, Note_on_c, 0, 47, 0
2,54784, Note_on_c, 0, 55, 0
2,54835, Note_on_c, 0, 57, 75
2,54839, Note_on_c, 0, 55, 59
2,54912, Note_on_c, 0, 57, 0
2,54922, Note_on_c, 0, 55, 0
2,54968, Note_on_c, 0, 53, 74
2,54980, Note_on_c, 0, 59, 76
2,55042, Note_on_c, 0, 59, 0
2,55048, Note_on_c, 0, 53, 0
2,55091, Note_on_c, 0, 55, 73
2,55105, Note_on_c, 0, 52, 65
2,55167, Note_on_c, 0, 52, 0
2,55190, Note_on_c, 0, 55, 0
2,55225, Note_on_c, 0, 60, 82
2,55234, Note_on_c, 0, 50, 70
2,55298, Note_on_c, 0, 60, 0
2,55311, Note_on_c, 0, 50, 0
2,55348, Note_on_c, 0, 55, 73
2,55365, Note_on_c, 0, 48, 63
2,55435, Note_on_c, 0, 48, 0
2,55439, Note_on_c, 0, 55, 0
2,55485, Note_on_c, 0, 62, 87
2,55495, Note_on_c, 0, 47, 74
2,55571, Note_on_c, 0, 62, 0
2,55581, Note_on_c, 0, 47, 0
2,55604, Note_on_c, 0, 55, 74
2,55635, Note_on_c, 0, 45, 70
2,55701, Note_on_c, 0, 45, 0
2,55707, Note_on_c, 0, 55, 0
2,55750, Note_on_c, 0, 64, 89
2,55758, Note_on_c, 0, 43, 76
2,55834, Note_on_c, 0, 64, 0
2,55850, Note_on_c, 0, 43, 0
2,55863, Note_on_c, 0, 55, 73
2,55879, Note_on_c, 0, 41, 68
2,55962, Note_on_c, 0, 41, 0
2,56012, Note_on_c, 0, 40, 70
2,56012, Note_on_c, 0, 65, 82
2,56017, Note_on_c, 0, 55, 0
2,56070, Note_on_c, 0, 40, 0
2,56095, Note_on_c, 0, 65, 0
2,56124, Note_on_c, 0, 55, 75
2,56129, Note_on_c, 0, 38, 68
2,56185, Note_on_c, 0, 38, 0
2,56199, Note_on_c, 0, 55, 0
2,56258, Note_on_c, 0, 36, 76
2,56258, Note_on_c, 0, 64, 84
2,56349, Note_on_c, 0, 64, 0
2,56360, Note_on_c, 0, 36, 0
2,56397, Note_on_c, 0, 38, 73
2,56397, Note_on_c, 0, 72, 83
2,56474, Note_on_c, 0, 72, 0
2,56479, Note_on_c, 0, 38, 0
2,56521, Note_on_c, 0, 71, 87
2,56532, Note_on_c, 0, 40, 68
2,56644, Note_on_c, 0, 71, 0
2,56651, Note_on_c, 0, 42, 74
2,56655, Note_on_c, 0, 40, 0
2,56655, Note_on_c, 0, 74, 83
2,56746, Note_on_c, 0, 42, 0
2,56746, Note_on_c, 0, 74, 0
2,56780, Note_on_c, 0, 44, 77
2,56784, Note_on_c, 0, 69, 85
2,56882, Note_on_c, 0, 44, 0
2,56882, Note_on_c, 0, 69, 0
2,56912, Note_on_c, 0, 45, 72
2,56916, Note_on_c, 0, 74, 83
2,57007, Note_on_c, 0, 45, 0
2,57025, Note_on_c, 0, 74, 0
2,57048, Note_on_c, 0, 68, 90
2,57052, Note_on_c, 0, 47, 78
2,57125, Note_on_c, 0, 47, 0
2,57159, Note_on_c, 0, 68, 0
2,57176, Note_on_c, 0, 74, 80
2,57181, Note_on_c, 0, 48, 73
2,57243, Note_on_c, 0, 48, 0
2,57281, Note_on_c, 0, 74, 0
2,57306, Note_on_c, 0, 50, 79
2,57306, Note_on_c, 0, 66, 83
2,57360, Note_on_c, 0, 50, 0
2,57395, Note_on_c, 0, 66, 0
2,57435, Note_on_c, 0, 52, 69
2,57439, Note_on_c, 0, 74, 71
2,57524, Note_on_c, 0, 74, 0
2,57547, Note_on_c, 0, 52, 0
2,57559, Note_on_c, 0, 54, 64
2,57564, Note_on_c, 0, 64, 74
2,57627, Note_on_c, 0, 54, 0
2,57656, Note_on_c, 0, 64, 0
2,57677, Note_on_c, 0, 56, 71
2,57690, Note_on_c, 0, 74, 75
2,57769, Note_on_c, 0, 56, 0
2,57795, Note_on_c, 0, 74, 0
2,57823, Note_on_c, 0, 57, 72
2,57830, Note_on_c, 0, 72, 83
2,57920, Note_on_c, 0, 72, 0
2,57930, Note_on_c, 0, 57, 0
2,57957, Note_on_c, 0, 55, 69
2,57966, Note_on_c, 0, 69, 75
2,58040, Note_on_c, 0, 69, 0
2,58044, Note_on_c, 0, 55, 0
2,58084, Note_on_c, 0, 71, 86
2,58098, Note_on_c, 0, 54, 69
2,58158, Note_on_c, 0, 54, 0
2,58177, Note_on_c, 0, 71, 0
2,58219, Note_on_c, 0, 73, 86
2,58235, Note_on_c, 0, 57, 66
2,58302, Note_on_c, 0, 73, 0
2,58347, Note_on_c, 0, 75, 88
2,58353, Note_on_c, 0, 57, 0
2,58363, Note_on_c, 0, 52, 75
2,58425, Note_on_c, 0, 52, 0
2,58446, Note_on_c, 0, 75, 0
2,58477, Note_on_c, 0, 74, 82
2,58492, Note_on_c, 0, 57, 77
2,58570, Note_on_c, 0, 74, 0
2,58601, Note_on_c, 0, 57, 0
2,58625, Note_on_c, 0, 51, 79
2,58625, Note_on_c, 0, 77, 80
2,58671, Note_on_c, 0, 79, 38
2,58680, Note_on_c, 0, 51, 0
2,58693, Note_on_c, 0, 77, 0
2,58738, Note_on_c, 0, 57, 79
2,58742, Note_on_c, 0, 79, 0
2,58742, Note_on_c, 0, 79, 81
2,58814, Note_on_c, 0, 79, 0
2,58839, Note_on_c, 0, 57, 0
2,58870, Note_on_c, 0, 49, 76
2,58870, Note_on_c, 0, 81, 90
2,58945, Note_on_c, 0, 49, 0
2,58965, Note_on_c, 0, 81, 0
2,59002, Note_on_c, 0, 57, 72
2,59002, Note_on_c, 0, 83, 90
2,59085, Note_on_c, 0, 83, 0
2,59098, Note_on_c, 0, 57, 0
2,59135, Note_on_c, 0, 47, 72
2,59135, Note_on_c, 0, 84, 89
2,59201, Note_on_c, 0, 84, 0
2,59212, Note_on_c, 0, 47, 0
2,59241, Note_on_c, 0, 57, 67
2,59255, Note_on_c, 0, 75, 83
2,59304, Note_on_c, 0, 57, 0
2,59324, Note_on_c, 0, 75, 0
2,59390, Note_on_c, 0, 55, 85
2,59390, Note_on_c, 0, 76, 92
2,59421, Note_on_c, 0, 55, 0
2,59443, Note_on_c, 0, 76, 0
2,59671, Note_on_c, 0, 78, 92
2,59676, Note_on_c, 0, 60, 78
2,59716, Note_on_c, 0, 60, 0
2,59755, Note_on_c, 0, 78, 0
2,59789, Note_on_c, 0, 76, 90
2,59870, Note_on_c, 0, 76, 0
2,59914, Note_on_c, 0, 75, 86
2,59932, Note_on_c, 0, 59, 74
2,59980, Note_on_c, 0, 59, 0
2,59991, Note_on_c, 0, 75, 0
2,60039, Note_on_c, 0, 76, 88
2,60117, Note_on_c, 0, 76, 0
2,60175, Note_on_c, 0, 78, 96
2,60183, Note_on_c, 0, 57, 81
2,60228, Note_on_c, 0, 57, 0
2,60238, Note_on_c, 0, 78, 0
2,60459, Note_on_c, 0, 59, 74
2,60459, Note_on_c, 0, 79, 96
2,60515, Note_on_c, 0, 59, 0
2,60579, Note_on_c, 0, 78, 91
2,60601, Note_on_c, 0, 79, 0
2,60676, Note_on_c, 0, 78, 0
2,60706, Note_on_c, 0, 47, 63
2,60714, Note_on_c, 0, 76, 90
2,60742, Note_on_c, 0, 47, 0
2,60790, Note_on_c, 0, 76, 0
2,60833, Note_on_c, 0, 78, 88
2,60912, Note_on_c, 0, 78, 0
2,60963, Note_on_c, 0, 52, 69
2,60967, Note_on_c, 0, 79, 92
2,61007, Note_on_c, 0, 53, 36
2,61011, Note_on_c, 0, 53, 0
2,61011, Note_on_c, 0, 79, 0
2,61024, Note_on_c, 0, 52, 0
2,61084, Note_on_c, 0, 54, 72
2,61162, Note_on_c, 0, 54, 0
2,61218, Note_on_c, 0, 55, 76
2,61236, Note_on_c, 0, 78, 82
2,61267, Note_on_c, 0, 78, 0
2,61276, Note_on_c, 0, 55, 0
2,61348, Note_on_c, 0, 52, 73
2,61442, Note_on_c, 0, 52, 0
2,61475, Note_on_c, 0, 76, 85
2,61484, Note_on_c, 0, 57, 79
2,61513, Note_on_c, 0, 76, 0
2,61557, Note_on_c, 0, 57, 0
2,61610, Note_on_c, 0, 52, 67
2,61686, Note_on_c, 0, 52, 0
2,61739, Note_on_c, 0, 71, 85
2,61744, Note_on_c, 0, 59, 76
2,61800, Note_on_c, 0, 71, 0
2,61822, Note_on_c, 0, 59, 0
2,61870, Note_on_c, 0, 52, 66
2,61984, Note_on_c, 0, 52, 0
2,62010, Note_on_c, 0, 81, 90
2,62019, Note_on_c, 0, 61, 73
2,62101, Note_on_c, 0, 61, 0
2,62146, Note_on_c, 0, 52, 65
2,62240, Note_on_c, 0, 52, 0
2,62280, Note_on_c, 0, 63, 79
2,62336, Note_on_c, 0, 63, 0
2,62391, Note_on_c, 0, 52, 73
2,62438, Note_on_c, 0, 81, 0
2,62480, Note_on_c, 0, 52, 0
2,62542, Note_on_c, 0, 64, 72
2,62548, Note_on_c, 0, 79, 77
2,62590, Note_on_c, 0, 79, 0
2,62632, Note_on_c, 0, 64, 0
2,62672, Note_on_c, 0, 63, 70
2,62775, Note_on_c, 0, 63, 0
2,62782, Note_on_c, 0, 78, 89
2,62793, Note_on_c, 0, 64, 82
2,62852, Note_on_c, 0, 78, 0
2,62909, Note_on_c, 0, 64, 0
2,62933, Note_on_c, 0, 66, 76
2,63033, Note_on_c, 0, 76, 91
2,63067, Note_on_c, 0, 67, 81
2,63090, Note_on_c, 0, 66, 0
2,63100, Note_on_c, 0, 76, 0
2,63144, Note_on_c, 0, 67, 0
2,63200, Note_on_c, 0, 64, 79
2,63290, Note_on_c, 0, 64, 0
2,63308, Note_on_c, 0, 75, 94
2,63332, Note_on_c, 0, 66, 82
2,63372, Note_on_c, 0, 75, 0
2,63411, Note_on_c, 0, 66, 0
2,63450, Note_on_c, 0, 64, 75
2,63547, Note_on_c, 0, 64, 0
2,63583, Note_on_c, 0, 66, 76
2,63590, Note_on_c, 0, 84, 91
2,63671, Note_on_c, 0, 66, 0
2,63720, Note_on_c, 0, 67, 70
2,63814, Note_on_c, 0, 67, 0
2,63859, Note_on_c, 0, 69, 66
2,63952, Note_on_c, 0, 69, 0
2,63979, Note_on_c, 0, 66, 68
2,64057, Note_on_c, 0, 66, 0
2,64095, Note_on_c, 0, 84, 0
2,64117, Note_on_c, 0, 83, 84
2,64127, Note_on_c, 0, 67, 76
2,64172, Note_on_c, 0, 67, 0
2,64191, Note_on_c, 0, 83, 0
2,64402, Note_on_c, 0, 84, 85
2,64407, Note_on_c, 0, 69, 68
2,64518, Note_on_c, 0, 69, 0
2,64535, Note_on_c, 0, 67, 68
2,64535, Note_on_c, 0, 83, 81
2,64569, Note_on_c, 0, 84, 0
2,64639, Note_on_c, 0, 67, 0
2,64654, Note_on_c, 0, 66, 75
2,64658, Note_on_c, 0, 81, 84
2,64702, Note_on_c, 0, 83, 0
2,64750, Note_on_c, 0, 81, 0
2,64758, Note_on_c, 0, 66, 0
2,64789, Note_on_c, 0, 64, 74
2,64789, Note_on_c, 0, 79, 84
2,64893, Note_on_c, 0, 79, 0
2,64917, Note_on_c, 0, 64, 0
2,64936, Note_on_c, 0, 69, 80
2,64941, Note_on_c, 0, 78, 76
2,65032, Note_on_c, 0, 78, 0
2,65251, Note_on_c, 0, 81, 75
2,65370, Note_on_c, 0, 81, 0
2,65381, Note_on_c, 0, 79, 76
2,65513, Note_on_c, 0, 79, 0
2,65522, Note_on_c, 0, 78, 81
2,65624, Note_on_c, 0, 78, 0
2,65639, Note_on_c, 0, 76, 78
2,65759, Note_on_c, 0, 76, 0
2,65786, Note_on_c, 0, 75, 70
2,65841, Note_on_c, 0, 75, 0
2,65893, Note_on_c, 0, 69, 0
2,65916, Note_on_c, 0, 67, 61
2,66014, Note_on_c, 0, 67, 0
2,66034, Note_on_c, 0, 66, 69
2,66037, Note_on_c, 0, 81, 75
2,66103, Note_on_c, 0, 81, 0
2,66110, Note_on_c, 0, 66, 0
2,66184, Note_on_c, 0, 69, 58
2,66266, Note_on_c, 0, 69, 0
2,66295, Note_on_c, 0, 79, 72
2,66299, Note_on_c, 0, 64, 66
2,66335, Note_on_c, 0, 79, 0
2,66339, Note_on_c, 0, 64, 0
2,66408, Note_on_c, 0, 69, 51
2,66503, Note_on_c, 0, 69, 0
2,66542, Note_on_c, 0, 63, 58
2,66554, Note_on_c, 0, 78, 70
2,66600, Note_on_c, 0, 63, 0
2,66600, Note_on_c, 0, 78, 0
2,66659, Note_on_c, 0, 69, 47
2,66786, Note_on_c, 0, 69, 0
2,66811, Note_on_c, 0, 61, 52
2,66811, Note_on_c, 0, 76, 68
2,66854, Note_on_c, 0, 76, 0
2,66881, Note_on_c, 0, 61, 0
2,66959, Note_on_c, 0, 69, 32
2,67034, Note_on_c, 0, 69, 0
2,67072, Note_on_c, 0, 59, 54
2,67082, Note_on_c, 0, 75, 63
2,67121, Note_on_c, 0, 75, 0
2,67154, Note_on_c, 0, 59, 0
2,67209, Note_on_c, 0, 69, 45
2,67282, Note_on_c, 0, 69, 0
2,67344, Note_on_c, 0, 67, 73
2,67344, Note_on_c, 0, 76, 84
2,67391, Note_on_c, 0, 67, 0
2,67412, Note_on_c, 0, 76, 0
2,67631, Note_on_c, 0, 66, 74
2,67638, Note_on_c, 0, 74, 79
2,67679, Note_on_c, 0, 74, 0
2,67711, Note_on_c, 0, 66, 0
2,67755, Note_on_c, 0, 67, 76
2,67859, Note_on_c, 0, 67, 0
2,67884, Note_on_c, 0, 69, 76
2,67897, Note_on_c, 0, 72, 86
2,67939, Note_on_c, 0, 72, 0
2,67977, Note_on_c, 0, 69, 0
2,68004, Note_on_c, 0, 67, 79
2,68095, Note_on_c, 0, 67, 0
2,68155, Note_on_c, 0, 74, 81
2,68160, Note_on_c, 0, 66, 78
2,68222, Note_on_c, 0, 74, 0
2,68227, Note_on_c, 0, 66, 0
2,68434, Note_on_c, 0, 64, 80
2,68455, Note_on_c, 0, 72, 85
2,68502, Note_on_c, 0, 72, 0
2,68515, Note_on_c, 0, 64, 0
2,68561, Note_on_c, 0, 66, 77
2,68642, Note_on_c, 0, 66, 0
2,68684, Note_on_c, 0, 67, 77
2,68704, Note_on_c, 0, 71, 81
2,68746, Note_on_c, 0, 71, 0
2,68760, Note_on_c, 0, 67, 0
2,68800, Note_on_c, 0, 66, 80
2,68880, Note_on_c, 0, 66, 0
2,68932, Note_on_c, 0, 72, 81
2,68943, Note_on_c, 0, 64, 79
2,68989, Note_on_c, 0, 64, 0
2,69051, Note_on_c, 0, 72, 0
2,69065, Note_on_c, 0, 84, 79
2,69194, Note_on_c, 0, 84, 0
2,69198, Note_on_c, 0, 66, 82
2,69198, Note_on_c, 0, 83, 84
2,69245, Note_on_c, 0, 66, 0
2,69283, Note_on_c, 0, 83, 0
2,69319, Note_on_c, 0, 81, 82
2,69408, Note_on_c, 0, 81, 0
2,69450, Note_on_c, 0, 79, 90
2,69455, Note_on_c, 0, 67, 86
2,69502, Note_on_c, 0, 67, 0
2,69545, Note_on_c, 0, 79, 0
2,69575, Note_on_c, 0, 83, 79
2,69664, Note_on_c, 0, 83, 0
2,69717, Note_on_c, 0, 81, 82
2,69721, Note_on_c, 0, 72, 89
2,69783, Note_on_c, 0, 81, 0
2,69788, Note_on_c, 0, 72, 0
2,69834, Note_on_c, 0, 83, 75
2,69967, Note_on_c, 0, 81, 77
2,69982, Note_on_c, 0, 83, 0
2,69996, Note_on_c, 0, 63, 84
2,70088, Note_on_c, 0, 81, 0
2,70104, Note_on_c, 0, 79, 77
2,70224, Note_on_c, 0, 79, 0
2,70236, Note_on_c, 0, 78, 79
2,70276, Note_on_c, 0, 63, 0
2,70297, Note_on_c, 0, 78, 0
2,70369, Note_on_c, 0, 81, 73
2,70474, Note_on_c, 0, 81, 0
2,70489, Note_on_c, 0, 64, 77
2,70507, Note_on_c, 0, 79, 81
2,70538, Note_on_c, 0, 64, 0
2,70582, Note_on_c, 0, 79, 0
2,70625, Note_on_c, 0, 81, 70
2,70729, Note_on_c, 0, 81, 0
2,70763, Note_on_c, 0, 79, 83
2,70773, Note_on_c, 0, 66, 83
2,70814, Note_on_c, 0, 66, 0
2,70852, Note_on_c, 0, 79, 0
2,70895, Note_on_c, 0, 78, 82
2,71014, Note_on_c, 0, 78, 0
2,71031, Note_on_c, 0, 76, 81
2,71036, Note_on_c, 0, 67, 83
2,71082, Note_on_c, 0, 67, 0
2,71143, Note_on_c, 0, 76, 0
2,71172, Note_on_c, 0, 79, 73
2,71281, Note_on_c, 0, 79, 0
2,71305, Note_on_c, 0, 69, 76
2,71310, Note_on_c, 0, 78, 76
2,71373, Note_on_c, 0, 69, 0
2,71396, Note_on_c, 0, 78, 0
2,71429, Note_on_c, 0, 79, 73
2,71564, Note_on_c, 0, 79, 0
2,71577, Note_on_c, 0, 59, 74
2,71577, Note_on_c, 0, 78, 64
2,71684, Note_on_c, 0, 78, 0
2,71699, Note_on_c, 0, 76, 70
2,71811, Note_on_c, 0, 76, 0
2,71837, Note_on_c, 0, 75, 64
2,71899, Note_on_c, 0, 59, 0
2,71945, Note_on_c, 0, 78, 69
2,71950, Note_on_c, 0, 75, 0
2,72029, Note_on_c, 0, 78, 0
2,72094, Note_on_c, 0, 76, 68
2,72103, Note_on_c, 0, 60, 60
2,72170, Note_on_c, 0, 60, 0
2,72192, Note_on_c, 0, 76, 0
2,72221, Note_on_c, 0, 59, 66
2,72292, Note_on_c, 0, 59, 0
2,72340, Note_on_c, 0, 57, 67
2,72362, Note_on_c, 0, 78, 74
2,72405, Note_on_c, 0, 57, 0
2,72431, Note_on_c, 0, 78, 0
2,72457, Note_on_c, 0, 59, 72
2,72471, Note_on_c, 0, 79, 83
2,72554, Note_on_c, 0, 59, 0
2,72574, Note_on_c, 0, 79, 0
2,72612, Note_on_c, 0, 60, 73
2,72612, Note_on_c, 0, 81, 87
2,72705, Note_on_c, 0, 60, 0
2,72725, Note_on_c, 0, 62, 79
2,72817, Note_on_c, 0, 62, 0
2,72858, Note_on_c, 0, 64, 90
2,72953, Note_on_c, 0, 64, 0
2,72982, Note_on_c, 0, 63, 83
2,73082, Note_on_c, 0, 81, 0
2,73091, Note_on_c, 0, 63, 0
2,73111, Note_on_c, 0, 64, 85
2,73111, Note_on_c, 0, 79, 91
2,73191, Note_on_c, 0, 79, 0
2,73233, Note_on_c, 0, 64, 0
2,73238, Note_on_c, 0, 81, 90
2,73243, Note_on_c, 0, 66, 79
2,73337, Note_on_c, 0, 81, 0
2,73378, Note_on_c, 0, 67, 81
2,73387, Note_on_c, 0, 83, 91
2,73412, Note_on_c, 0, 66, 0
2,73490, Note_on_c, 0, 67, 0
2,73503, Note_on_c, 0, 69, 74
2,73541, Note_on_c, 0, 69, 0
2,73658, Note_on_c, 0, 71, 83
2,73669, Note_on_c, 0, 83, 0
2,73799, Note_on_c, 0, 47, 71
2,73888, Note_on_c, 0, 49, 74
2,73901, Note_on_c, 0, 47, 0
2,73910, Note_on_c, 0, 81, 89
2,73950, Note_on_c, 0, 51, 75
2,73965, Note_on_c, 0, 49, 0
2,73990, Note_on_c, 0, 81, 0
2,73994, Note_on_c, 0, 51, 0
2,74044, Note_on_c, 0, 47, 75
2,74131, Note_on_c, 0, 47, 0
2,74176, Note_on_c, 0, 52, 73
2,74199, Note_on_c, 0, 79, 83
2,74237, Note_on_c, 0, 52, 0
2,74259, Note_on_c, 0, 79, 0
2,74287, Note_on_c, 0, 47, 63
2,74368, Note_on_c, 0, 47, 0
2,74427, Note_on_c, 0, 54, 61
2,74443, Note_on_c, 0, 71, 0
2,74443, Note_on_c, 0, 78, 78
2,74502, Note_on_c, 0, 54, 0
2,74518, Note_on_c, 0, 78, 0
2,74552, Note_on_c, 0, 79, 78
2,74563, Note_on_c, 0, 47, 51
2,74646, Note_on_c, 0, 79, 0
2,74672, Note_on_c, 0, 47, 0
2,74716, Note_on_c, 0, 72, 71
2,74716, Note_on_c, 0, 81, 67
2,74725, Note_on_c, 0, 55, 58
2,74756, Note_on_c, 0, 81, 0
2,74762, Note_on_c, 0, 72, 0
2,74776, Note_on_c, 0, 55, 0
2,74833, Note_on_c, 0, 47, 51
2,74956, Note_on_c, 0, 47, 0
2,75009, Note_on_c, 0, 57, 55
2,75013, Note_on_c, 0, 75, 64
2,75022, Note_on_c, 0, 66, 55
2,75059, Note_on_c, 0, 75, 0
2,75071, Note_on_c, 0, 66, 0
2,75078, Note_on_c, 0, 57, 0
2,75149, Note_on_c, 0, 47, 40
2,75311, Note_on_c, 0, 76, 59
2,75324, Note_on_c, 0, 64, 50
2,75329, Note_on_c, 0, 47, 0
2,75342, Note_on_c, 0, 55, 45
2,75413, Note_on_c, 0, 64, 0
2,75467, Note_on_c, 0, 55, 0
2,75467, Note_on_c, 0, 66, 64
2,75481, Note_on_c, 0, 54, 57
2,75578, Note_on_c, 0, 54, 0
2,75622, Note_on_c, 0, 76, 0
2,75626, Note_on_c, 0, 52, 55
2,75626, Note_on_c, 0, 66, 0
2,75633, Note_on_c, 0, 67, 65
2,75712, Note_on_c, 0, 52, 0
2,75779, Note_on_c, 0, 55, 46
2,75864, Note_on_c, 0, 55, 0
2,75895, Note_on_c, 0, 71, 71
2,75904, Note_on_c, 0, 50, 55
2,75948, Note_on_c, 0, 50, 0
2,75952, Note_on_c, 0, 71, 0
2,76031, Note_on_c, 0, 55, 45
2,76139, Note_on_c, 0, 55, 0
2,76172, Note_on_c, 0, 49, 51
2,76172, Note_on_c, 0, 69, 61
2,76202, Note_on_c, 0, 67, 0
2,76242, Note_on_c, 0, 49, 0
2,76292, Note_on_c, 0, 55, 51
2,76307, Note_on_c, 0, 66, 62
2,76430, Note_on_c, 0, 55, 0
2,76430, Note_on_c, 0, 66, 0
2,76443, Note_on_c, 0, 64, 74
2,76452, Note_on_c, 0, 47, 58
2,76508, Note_on_c, 0, 47, 0
2,76560, Note_on_c, 0, 64, 0
2,76580, Note_on_c, 0, 55, 59
2,76587, Note_on_c, 0, 62, 71
2,76684, Note_on_c, 0, 55, 0
2,76712, Note_on_c, 0, 45, 57
2,76716, Note_on_c, 0, 62, 0
2,76721, Note_on_c, 0, 61, 67
2,76789, Note_on_c, 0, 45, 0
2,76828, Note_on_c, 0, 61, 0
2,76838, Note_on_c, 0, 64, 72
2,76851, Note_on_c, 0, 55, 49
2,76875, Note_on_c, 0, 69, 0
2,76941, Note_on_c, 0, 55, 0
2,76967, Note_on_c, 0, 64, 0
2,76983, Note_on_c, 0, 54, 58
2,76991, Note_on_c, 0, 62, 67
2,77077, Note_on_c, 0, 54, 0
2,77086, Note_on_c, 0, 62, 0
2,77115, Note_on_c, 0, 52, 61
2,77115, Note_on_c, 0, 64, 69
2,77210, Note_on_c, 0, 52, 0
2,77239, Note_on_c, 0, 64, 0
2,77261, Note_on_c, 0, 50, 58
2,77271, Note_on_c, 0, 66, 59
2,77328, Note_on_c, 0, 50, 0
2,77414, Note_on_c, 0, 54, 47
2,77495, Note_on_c, 0, 54, 0
2,77529, Note_on_c, 0, 69, 60
2,77537, Note_on_c, 0, 49, 54
2,77587, Note_on_c, 0, 69, 0
2,77591, Note_on_c, 0, 49, 0
2,77649, Note_on_c, 0, 54, 49
2,77734, Note_on_c, 0, 54, 0
2,77815, Note_on_c, 0, 47, 49
2,77824, Note_on_c, 0, 67, 60
2,77875, Note_on_c, 0, 47, 0
2,77892, Note_on_c, 0, 66, 0
2,77951, Note_on_c, 0, 54, 46
2,77965, Note_on_c, 0, 64, 64
2,78046, Note_on_c, 0, 54, 0
2,78072, Note_on_c, 0, 64, 0
2,78095, Note_on_c, 0, 62, 67
2,78108, Note_on_c, 0, 45, 53
2,78165, Note_on_c, 0, 45, 0
2,78203, Note_on_c, 0, 62, 0
2,78229, Note_on_c, 0, 54, 50
2,78229, Note_on_c, 0, 61, 64
2,78309, Note_on_c, 0, 54, 0
2,78342, Note_on_c, 0, 61, 0
2,78364, Note_on_c, 0, 59, 68
2,78368, Note_on_c, 0, 43, 55
2,78439, Note_on_c, 0, 43, 0
2,78485, Note_on_c, 0, 54, 55
2,78496, Note_on_c, 0, 62, 67
2,78509, Note_on_c, 0, 67, 0
2,78585, Note_on_c, 0, 59, 0
2,78589, Note_on_c, 0, 54, 0
2,78609, Note_on_c, 0, 62, 0
2,78616, Note_on_c, 0, 52, 62
2,78635, Note_on_c, 0, 61, 62
2,78727, Note_on_c, 0, 52, 0
2,78764, Note_on_c, 0, 50, 55
2,78764, Note_on_c, 0, 61, 0
2,78768, Note_on_c, 0, 62, 68
2,78886, Note_on_c, 0, 50, 0
2,78915, Note_on_c, 0, 49, 53
2,78925, Note_on_c, 0, 64, 65
2,78955, Note_on_c, 0, 62, 0
2,78990, Note_on_c, 0, 49, 0
2,79071, Note_on_c, 0, 52, 52
2,79170, Note_on_c, 0, 52, 0
2,79202, Note_on_c, 0, 47, 50
2,79225, Note_on_c, 0, 67, 59
2,79256, Note_on_c, 0, 47, 0
2,79273, Note_on_c, 0, 67, 0
2,79325, Note_on_c, 0, 52, 50
2,79426, Note_on_c, 0, 52, 0
2,79473, Note_on_c, 0, 64, 0
2,79491, Note_on_c, 0, 46, 51
2,79491, Note_on_c, 0, 66, 63
2,79569, Note_on_c, 0, 46, 0
2,79625, Note_on_c, 0, 62, 64
2,79639, Note_on_c, 0, 52, 48
2,79703, Note_on_c, 0, 62, 0
2,79744, Note_on_c, 0, 52, 0
2,79767, Note_on_c, 0, 61, 64
2,79775, Note_on_c, 0, 44, 57
2,79832, Note_on_c, 0, 44, 0
2,79867, Note_on_c, 0, 61, 0
2,79899, Note_on_c, 0, 59, 70
2,79907, Note_on_c, 0, 52, 53
2,79967, Note_on_c, 0, 59, 0
2,79996, Note_on_c, 0, 52, 0
2,80026, Note_on_c, 0, 42, 62
2,80034, Note_on_c, 0, 58, 64
2,80107, Note_on_c, 0, 66, 0
2,80134, Note_on_c, 0, 42, 0
2,80138, Note_on_c, 0, 58, 0
2,80159, Note_on_c, 0, 61, 67
2,80168, Note_on_c, 0, 52, 55
2,80208, Control_c, 0, 64, 41
2,80226, Control_c, 0, 64, 56
2,80237, Note_on_c, 0, 52, 0
2,80237, Note_on_c, 0, 61, 0
2,80246, Control_c, 0, 64, 61
2,80265, Control_c, 0, 64, 62
2,80285, Control_c, 0, 64, 64
2,80300, Note_on_c, 0, 59, 75
2,80304, Control_c, 0, 64, 65
2,80304, Note_on_c, 0, 50, 58
2,80322, Control_c, 0, 64, 66
2,80338, Note_on_c, 0, 59, 0
2,80343, Control_c, 0, 64, 67
2,80381, Control_c, 0, 64, 66
2,80393, Note_on_c, 0, 50, 0
2,80400, Control_c, 0, 64, 64
2,80418, Control_c, 0, 64, 61
2,80438, Control_c, 0, 64, 55
2,80442, Note_on_c, 0, 54, 73
2,80457, Note_on_c, 0, 71, 80
2,80460, Control_c, 0, 64, 48
2,80477, Control_c, 0, 64, 39
2,80495, Control_c, 0, 64, 30
2,80515, Control_c, 0, 64, 20
2,80534, Control_c, 0, 64, 0
2,80547, Note_on_c, 0, 54, 0
2,80571, Note_on_c, 0, 71, 0
2,80580, Note_on_c, 0, 73, 83
2,80585, Note_on_c, 0, 52, 79
2,80678, Note_on_c, 0, 73, 0
2,80703, Note_on_c, 0, 71, 89
2,80707, Note_on_c, 0, 52, 0
2,80708, Note_on_c, 0, 50, 74
2,80777, Note_on_c, 0, 71, 0
2,80788, Note_on_c, 0, 50, 0
2,80823, Note_on_c, 0, 49, 79
2,80839, Note_on_c, 0, 70, 91
2,80909, Note_on_c, 0, 70, 0
2,80914, Note_on_c, 0, 49, 0
2,80952, Note_on_c, 0, 71, 85
2,80963, Note_on_c, 0, 47, 72
2,81035, Note_on_c, 0, 71, 0
2,81051, Note_on_c, 0, 47, 0
2,81089, Note_on_c, 0, 73, 99
2,81096, Note_on_c, 0, 46, 75
2,81156, Note_on_c, 0, 73, 0
2,81184, Note_on_c, 0, 46, 0
2,81221, Note_on_c, 0, 49, 74
2,81323, Note_on_c, 0, 49, 0
2,81355, Note_on_c, 0, 74, 92
2,81361, Note_on_c, 0, 47, 78
2,81424, Note_on_c, 0, 74, 0
2,81481, Note_on_c, 0, 47, 0
2,81481, Note_on_c, 0, 73, 91
2,81486, Note_on_c, 0, 46, 73
2,81557, Note_on_c, 0, 73, 0
2,81592, Note_on_c, 0, 46, 0
2,81597, Note_on_c, 0, 44, 78
2,81611, Note_on_c, 0, 71, 85
2,81682, Note_on_c, 0, 71, 0
2,81686, Note_on_c, 0, 44, 0
2,81725, Note_on_c, 0, 42, 80
2,81729, Note_on_c, 0, 73, 91
2,81802, Note_on_c, 0, 73, 0
2,81807, Note_on_c, 0, 42, 0
2,81873, Note_on_c, 0, 47, 85
2,81882, Note_on_c, 0, 74, 91
2,81940, Note_on_c, 0, 47, 0
2,81940, Note_on_c, 0, 74, 0
2,82155, Note_on_c, 0, 49, 75
2,82159, Note_on_c, 0, 73, 93
2,82222, Note_on_c, 0, 73, 0
2,82231, Note_on_c, 0, 49, 0
2,82265, Note_on_c, 0, 47, 78
2,82368, Note_on_c, 0, 47, 0
2,82412, Note_on_c, 0, 46, 79
2,82412, Note_on_c, 0, 71, 93
2,82461, Note_on_c, 0, 71, 0
2,82523, Note_on_c, 0, 47, 75
2,82597, Note_on_c, 0, 46, 0
2,82629, Note_on_c, 0, 47, 0
2,82670, Note_on_c, 0, 49, 87
2,82681, Note_on_c, 0, 70, 89
2,82737, Note_on_c, 0, 49, 0
2,82742, Note_on_c, 0, 70, 0
2,82961, Note_on_c, 0, 50, 78
2,82961, Note_on_c, 0, 79, 97
2,83050, Note_on_c, 0, 50, 0
2,83085, Note_on_c, 0, 49, 75
2,83164, Note_on_c, 0, 49, 0
2,83217, Note_on_c, 0, 47, 76
2,83307, Note_on_c, 0, 47, 0
2,83332, Note_on_c, 0, 49, 75
2,83413, Note_on_c, 0, 49, 0
2,83472, Note_on_c, 0, 50, 79
2,83477, Note_on_c, 0, 79, 0
2,83481, Note_on_c, 0, 78, 90
2,83524, Note_on_c, 0, 50, 0
2,83552, Note_on_c, 0, 78, 0
2,83758, Note_on_c, 0, 49, 76
2,83762, Note_on_c, 0, 79, 89
2,83811, Note_on_c, 0, 49, 0
2,83880, Note_on_c, 0, 78, 88
2,83904, Note_on_c, 0, 79, 0
2,83981, Note_on_c, 0, 78, 0
2,84012, Note_on_c, 0, 47, 73
2,84019, Note_on_c, 0, 76, 89
2,84063, Note_on_c, 0, 47, 0
2,84094, Note_on_c, 0, 76, 0
2,84136, Note_on_c, 0, 74, 82
2,84236, Note_on_c, 0, 74, 0
2,84281, Note_on_c, 0, 46, 78
2,84285, Note_on_c, 0, 73, 75
2,84325, Note_on_c, 0, 46, 0
2,84353, Note_on_c, 0, 73, 0
2,84549, Note_on_c, 0, 55, 84
2,84562, Note_on_c, 0, 76, 80
2,84679, Note_on_c, 0, 76, 0
2,84686, Note_on_c, 0, 74, 76
2,84809, Note_on_c, 0, 74, 0
2,84829, Note_on_c, 0, 73, 75
2,84920, Note_on_c, 0, 73, 0
2,84949, Note_on_c, 0, 71, 70
2,85067, Note_on_c, 0, 71, 0
2,85080, Note_on_c, 0, 55, 0
2,85091, Note_on_c, 0, 54, 66
2,85095, Note_on_c, 0, 70, 61
2,85224, Note_on_c, 0, 56, 67
2,85224, Note_on_c, 0, 71, 63
2,85225, Note_on_c, 0, 54, 0
2,85310, Note_on_c, 0, 70, 0
2,85319, Note_on_c, 0, 56, 0
2,85329, Note_on_c, 0, 58, 68
2,85340, Note_on_c, 0, 71, 0
2,85356, Note_on_c, 0, 73, 79
2,85433, Note_on_c, 0, 58, 0
2,85437, Note_on_c, 0, 73, 0
2,85460, Note_on_c, 0, 54, 66
2,85460, Note_on_c, 0, 70, 71
2,85558, Note_on_c, 0, 70, 0
2,85564, Note_on_c, 0, 54, 0
2,85592, Note_on_c, 0, 59, 76
2,85605, Note_on_c, 0, 74, 85
2,85674, Note_on_c, 0, 59, 0
2,85703, Note_on_c, 0, 74, 0
2,85725, Note_on_c, 0, 70, 77
2,85730, Note_on_c, 0, 54, 74
2,85842, Note_on_c, 0, 54, 0
2,85842, Note_on_c, 0, 70, 0
2,85858, Note_on_c, 0, 76, 92
2,85866, Note_on_c, 0, 61, 68
2,85948, Note_on_c, 0, 61, 0
2,85952, Note_on_c, 0, 76, 0
2,85986, Note_on_c, 0, 70, 77
2,85993, Note_on_c, 0, 54, 63
2,86090, Note_on_c, 0, 54, 0
2,86117, Note_on_c, 0, 70, 0
2,86117, Note_on_c, 0, 78, 91
2,86122, Note_on_c, 0, 62, 72
2,86207, Note_on_c, 0, 62, 0
2,86238, Note_on_c, 0, 78, 0
2,86241, Note_on_c, 0, 54, 68
2,86248, Note_on_c, 0, 70, 73
2,86350, Note_on_c, 0, 54, 0
2,86356, Note_on_c, 0, 70, 0
2,86389, Note_on_c, 0, 64, 71
2,86389, Note_on_c, 0, 79, 83
2,86461, Note_on_c, 0, 64, 0
2,86485, Note_on_c, 0, 79, 0
2,86508, Note_on_c, 0, 70, 69
2,86517, Note_on_c, 0, 54, 64
2,86623, Note_on_c, 0, 54, 0
2,86655, Note_on_c, 0, 78, 78
2,86661, Note_on_c, 0, 62, 62
2,86672, Note_on_c, 0, 70, 0
2,86769, Note_on_c, 0, 78, 0
2,86787, Note_on_c, 0, 70, 74
2,86795, Note_on_c, 0, 54, 63
2,86811, Note_on_c, 0, 62, 0
2,86900, Note_on_c, 0, 70, 0
2,86905, Note_on_c, 0, 54, 0
2,86914, Note_on_c, 0, 71, 74
2,86925, Note_on_c, 0, 55, 62
2,87007, Note_on_c, 0, 55, 0
2,87036, Note_on_c, 0, 78, 84
2,87052, Note_on_c, 0, 62, 70
2,87058, Note_on_c, 0, 71, 0
2,87103, Note_on_c, 0, 62, 0
2,87136, Note_on_c, 0, 78, 0
2,87143, Note_on_c, 0, 61, 68
2,87169, Note_on_c, 0, 76, 78
2,87205, Note_on_c, 0, 76, 0
2,87220, Note_on_c, 0, 61, 0
2,87224, Note_on_c, 0, 59, 64
2,87240, Note_on_c, 0, 74, 72
2,87269, Note_on_c, 0, 59, 0
2,87286, Note_on_c, 0, 58, 70
2,87286, Note_on_c, 0, 74, 0
2,87297, Note_on_c, 0, 73, 77
2,87345, Note_on_c, 0, 73, 0
2,87349, Note_on_c, 0, 74, 74
2,87367, Note_on_c, 0, 58, 0
2,87374, Note_on_c, 0, 59, 58
2,87417, Note_on_c, 0, 59, 0
2,87422, Note_on_c, 0, 76, 85
2,87426, Note_on_c, 0, 61, 77
2,87426, Note_on_c, 0, 74, 0
2,87498, Note_on_c, 0, 61, 0
2,87533, Note_on_c, 0, 76, 0
2,87558, Note_on_c, 0, 52, 67
2,87562, Note_on_c, 0, 68, 76
2,87669, Note_on_c, 0, 52, 0
2,87669, Note_on_c, 0, 54, 67
2,87681, Note_on_c, 0, 70, 78
2,87699, Note_on_c, 0, 68, 0
2,87749, Note_on_c, 0, 54, 0
2,87775, Note_on_c, 0, 61, 69
2,87798, Note_on_c, 0, 76, 81
2,87808, Note_on_c, 0, 70, 0
2,87848, Note_on_c, 0, 61, 0
2,87894, Note_on_c, 0, 59, 63
2,87894, Note_on_c, 0, 76, 0
2,87912, Note_on_c, 0, 74, 74
2,87950, Note_on_c, 0, 59, 0
2,87952, Note_on_c, 0, 74, 0
2,87959, Note_on_c, 0, 58, 67
2,87963, Note_on_c, 0, 73, 75
2,88010, Note_on_c, 0, 73, 0
2,88017, Note_on_c, 0, 58, 0
2,88029, Note_on_c, 0, 56, 67
2,88034, Note_on_c, 0, 71, 71
2,88071, Note_on_c, 0, 58, 52
2,88075, Note_on_c, 0, 56, 0
2,88095, Note_on_c, 0, 71, 0
2,88095, Note_on_c, 0, 73, 76
2,88126, Note_on_c, 0, 58, 0
2,88154, Note_on_c, 0, 59, 73
2,88175, Note_on_c, 0, 73, 0
2,88175, Note_on_c, 0, 74, 78
2,88229, Note_on_c, 0, 59, 0
2,88283, Note_on_c, 0, 61, 62
2,88407, Note_on_c, 0, 61, 0
2,88425, Note_on_c, 0, 62, 74
2,88515, Note_on_c, 0, 62, 0
2,88554, Note_on_c, 0, 59, 79
2,88668, Note_on_c, 0, 59, 0
2,88686, Note_on_c, 0, 64, 84
2,88809, Note_on_c, 0, 64, 0
2,88819, Note_on_c, 0, 59, 77
2,88892, Note_on_c, 0, 59, 0
2,88926, Note_on_c, 0, 66, 78
2,89022, Note_on_c, 0, 66, 0
2,89082, Note_on_c, 0, 59, 60
2,89129, Note_on_c, 0, 59, 0
2,89192, Note_on_c, 0, 68, 69
2,89272, Note_on_c, 0, 68, 0
2,89330, Note_on_c, 0, 59, 60
2,89394, Note_on_c, 0, 59, 0
2,89453, Note_on_c, 0, 69, 59
2,89464, Note_on_c, 0, 47, 58
2,89516, Note_on_c, 0, 47, 0
2,89523, Note_on_c, 0, 69, 0
2,89615, Note_on_c, 0, 59, 47
2,89675, Note_on_c, 0, 59, 0
2,89721, Note_on_c, 0, 52, 59
2,89725, Note_on_c, 0, 68, 57
2,89773, Note_on_c, 0, 68, 0
2,89821, Note_on_c, 0, 52, 0
2,89856, Note_on_c, 0, 54, 60
2,89944, Note_on_c, 0, 54, 0
2,89987, Note_on_c, 0, 56, 64
2,89992, Note_on_c, 0, 74, 0
2,90018, Note_on_c, 0, 64, 49
2,90022, Note_on_c, 0, 62, 46
2,90055, Note_on_c, 0, 56, 0
2,90055, Note_on_c, 0, 62, 0
2,90055, Note_on_c, 0, 64, 0
2,90110, Note_on_c, 0, 52, 60
2,90205, Note_on_c, 0, 52, 0
2,90243, Note_on_c, 0, 57, 74
2,90247, Note_on_c, 0, 66, 70
2,90299, Note_on_c, 0, 66, 0
2,90308, Note_on_c, 0, 57, 0
2,90363, Note_on_c, 0, 52, 66
2,90445, Note_on_c, 0, 52, 0
2,90502, Note_on_c, 0, 59, 77
2,90507, Note_on_c, 0, 68, 81
2,90578, Note_on_c, 0, 59, 0
2,90583, Note_on_c, 0, 68, 0
2,90635, Note_on_c, 0, 52, 67
2,90745, Note_on_c, 0, 52, 0
2,90777, Note_on_c, 0, 69, 80
2,90781, Note_on_c, 0, 61, 73
2,90842, Note_on_c, 0, 69, 0
2,90855, Note_on_c, 0, 61, 0
2,90908, Note_on_c, 0, 52, 64
2,91018, Note_on_c, 0, 52, 0
2,91059, Note_on_c, 0, 62, 66
2,91059, Note_on_c, 0, 71, 72
2,91103, Note_on_c, 0, 71, 0
2,91117, Note_on_c, 0, 62, 0
2,91168, Note_on_c, 0, 52, 61
2,91333, Note_on_c, 0, 64, 54
2,91353, Note_on_c, 0, 61, 51
2,91371, Note_on_c, 0, 52, 0
2,91448, Note_on_c, 0, 64, 0
2,91462, Note_on_c, 0, 66, 58
2,91521, Note_on_c, 0, 68, 78
2,91530, Note_on_c, 0, 66, 0
2,91551, Note_on_c, 0, 68, 0
2,91585, Note_on_c, 0, 69, 78
2,91684, Note_on_c, 0, 69, 0
2,91731, Note_on_c, 0, 64, 81
2,91764, Note_on_c, 0, 62, 75
2,91773, Note_on_c, 0, 61, 0
2,91813, Note_on_c, 0, 64, 0
2,91837, Note_on_c, 0, 62, 0
2,91854, Note_on_c, 0, 71, 81
2,91874, Note_on_c, 0, 61, 75
2,91922, Note_on_c, 0, 71, 0
2,91947, Note_on_c, 0, 61, 0
2,91976, Note_on_c, 0, 64, 71
2,92000, Note_on_c, 0, 59, 77
2,92051, Note_on_c, 0, 59, 0
2,92071, Note_on_c, 0, 64, 0
2,92093, Note_on_c, 0, 73, 87
2,92111, Note_on_c, 0, 57, 77
2,92160, Note_on_c, 0, 57, 0
2,92193, Note_on_c, 0, 73, 0
2,92213, Note_on_c, 0, 59, 79
2,92227, Note_on_c, 0, 64, 75
2,92277, Note_on_c, 0, 59, 0
2,92306, Note_on_c, 0, 64, 0
2,92339, Note_on_c, 0, 57, 73
2,92355, Note_on_c, 0, 74, 88
2,92416, Note_on_c, 0, 57, 0
2,92448, Note_on_c, 0, 55, 74
2,92469, Note_on_c, 0, 74, 0
2,92479, Note_on_c, 0, 66, 78
2,92528, Note_on_c, 0, 55, 0
2,92539, Note_on_c, 0, 66, 0
2,92594, Note_on_c, 0, 54, 79
2,92605, Note_on_c, 0, 76, 91
2,92618, Note_on_c, 0, 49, 61
2,92675, Note_on_c, 0, 49, 0
2,92682, Note_on_c, 0, 54, 0
2,92697, Note_on_c, 0, 76, 0
2,92726, Note_on_c, 0, 67, 76
2,92742, Note_on_c, 0, 52, 64
2,92849, Note_on_c, 0, 52, 0
2,92858, Note_on_c, 0, 50, 71
2,92877, Note_on_c, 0, 66, 76
2,92882, Note_on_c, 0, 67, 0
2,93015, Note_on_c, 0, 67, 72
2,93023, Note_on_c, 0, 66, 0
2,93078, Note_on_c, 0, 69, 75
2,93091, Note_on_c, 0, 67, 0
2,93135, Note_on_c, 0, 71, 80
2,93160, Note_on_c, 0, 69, 0
2,93196, Note_on_c, 0, 50, 0
2,93234, Note_on_c, 0, 71, 0
2,93243, Note_on_c, 0, 52, 77
2,93265, Note_on_c, 0, 66, 80
2,93312, Note_on_c, 0, 52, 0
2,93366, Note_on_c, 0, 50, 77
2,93370, Note_on_c, 0, 66, 0
2,93388, Note_on_c, 0, 73, 88
2,93422, Note_on_c, 0, 50, 0
2,93480, Note_on_c, 0, 73, 0
2,93497, Note_on_c, 0, 49, 76
2,93504, Note_on_c, 0, 66, 80
2,93569, Note_on_c, 0, 49, 0
2,93594, Note_on_c, 0, 66, 0
2,93626, Note_on_c, 0, 47, 71
2,93645, Note_on_c, 0, 74, 89
2,93709, Note_on_c, 0, 47, 0
2,93738, Note_on_c, 0, 74, 0
2,93761, Note_on_c, 0, 66, 80
2,93763, Note_on_c, 0, 49, 73
2,93841, Note_on_c, 0, 49, 0
2,93855, Note_on_c, 0, 66, 0
2,93891, Note_on_c, 0, 47, 78
2,93897, Note_on_c, 0, 76, 97
2,93990, Note_on_c, 0, 47, 0
2,93994, Note_on_c, 0, 76, 0
2,94014, Note_on_c, 0, 67, 84
2,94026, Note_on_c, 0, 45, 59
2,94052, Note_on_c, 0, 43, 44
2,94087, Note_on_c, 0, 45, 0
2,94118, Note_on_c, 0, 67, 0
2,94142, Note_on_c, 0, 43, 0
2,94142, Note_on_c, 0, 43, 59
2,94153, Note_on_c, 0, 78, 94
2,94232, Note_on_c, 0, 42, 76
2,94241, Note_on_c, 0, 43, 0
2,94257, Note_on_c, 0, 78, 0
2,94271, Note_on_c, 0, 69, 76
2,94315, Note_on_c, 0, 42, 0
2,94351, Note_on_c, 0, 69, 0
2,94393, Note_on_c, 0, 40, 82
2,94408, Note_on_c, 0, 67, 89
2,94444, Note_on_c, 0, 40, 0
2,94476, Note_on_c, 0, 67, 0
2,94536, Note_on_c, 0, 66, 82
2,94618, Note_on_c, 0, 66, 0
2,94665, Note_on_c, 0, 50, 80
2,94665, Note_on_c, 0, 67, 82
2,94711, Note_on_c, 0, 50, 0
2,94753, Note_on_c, 0, 67, 0
2,94788, Note_on_c, 0, 71, 87
2,94881, Note_on_c, 0, 71, 0
2,94918, Note_on_c, 0, 49, 74
2,94918, Note_on_c, 0, 76, 95
2,94971, Note_on_c, 0, 49, 0
2,95016, Note_on_c, 0, 76, 0
2,95049, Note_on_c, 0, 67, 78
2,95128, Note_on_c, 0, 67, 0
2,95175, Note_on_c, 0, 50, 87
2,95184, Note_on_c, 0, 66, 86
2,95203, Control_c, 0, 64, 26
2,95222, Control_c, 0, 64, 41
2,95260, Note_on_c, 0, 50, 0
2,95264, Control_c, 0, 64, 37
2,95269, Note_on_c, 0, 66, 0
2,95279, Control_c, 0, 64, 30
2,95297, Control_c, 0, 64, 25
2,95315, Note_on_c, 0, 71, 79
2,95335, Control_c, 0, 64, 24
2,95355, Control_c, 0, 64, 15
2,95373, Control_c, 0, 64, 0
2,95395, Note_on_c, 0, 71, 0
2,95433, Note_on_c, 0, 52, 86
2,95446, Note_on_c, 0, 69, 83
2,95495, Note_on_c, 0, 52, 0
2,95519, Note_on_c, 0, 69, 0
2,95553, Note_on_c, 0, 50, 82
2,95558, Note_on_c, 0, 73, 88
2,95625, Note_on_c, 0, 50, 0
2,95641, Note_on_c, 0, 73, 0
2,95681, Note_on_c, 0, 47, 88
2,95685, Note_on_c, 0, 74, 90
2,95689, Note_on_c, 0, 49, 80
2,95752, Note_on_c, 0, 47, 0
2,95798, Note_on_c, 0, 50, 88
2,95835, Note_on_c, 0, 49, 0
2,95867, Note_on_c, 0, 50, 0
2,95966, Note_on_c, 0, 52, 93
2,95968, Note_on_c, 0, 43, 88
2,96018, Note_on_c, 0, 43, 0
2,96018, Note_on_c, 0, 52, 0
2,96227, Note_on_c, 0, 54, 82
2,96236, Note_on_c, 0, 45, 83
2,96251, Note_on_c, 0, 73, 90
2,96264, Note_on_c, 0, 54, 0
2,96265, Note_on_c, 0, 55, 61
2,96288, Note_on_c, 0, 74, 0
2,96292, Note_on_c, 0, 55, 0
2,96387, Note_on_c, 0, 52, 77
2,96412, Note_on_c, 0, 51, 17
2,96445, Note_on_c, 0, 51, 0
2,96463, Note_on_c, 0, 52, 0
2,96480, Note_on_c, 0, 50, 82
2,96547, Note_on_c, 0, 73, 0
2,96594, Note_on_c, 0, 45, 0
2,96594, Note_on_c, 0, 52, 84
2,96616, Note_on_c, 0, 50, 0
2,96694, Note_on_c, 0, 52, 0
2,96743, Note_on_c, 0, 54, 90
2,96752, Note_on_c, 0, 50, 84
2,96756, Note_on_c, 0, 74, 93
2,96801, Note_on_c, 0, 50, 0
2,96808, Note_on_c, 0, 54, 0
2,96808, Note_on_c, 0, 74, 0
2,97028, Note_on_c, 0, 49, 71
2,97032, Note_on_c, 0, 52, 79
2,97036, Note_on_c, 0, 76, 92
2,97081, Note_on_c, 0, 52, 0
2,97097, Note_on_c, 0, 49, 0
2,97121, Note_on_c, 0, 76, 0
2,97165, Note_on_c, 0, 74, 84
2,97234, Note_on_c, 0, 74, 0
2,97291, Note_on_c, 0, 73, 96
2,97296, Note_on_c, 0, 50, 82
2,97300, Note_on_c, 0, 47, 72
2,97359, Note_on_c, 0, 50, 0
2,97363, Note_on_c, 0, 47, 0
2,97385, Note_on_c, 0, 73, 0
2,97411, Note_on_c, 0, 74, 86
2,97505, Note_on_c, 0, 74, 0
2,97547, Note_on_c, 0, 49, 83
2,97553, Note_on_c, 0, 45, 76
2,97553, Note_on_c, 0, 76, 91
2,97614, Note_on_c, 0, 76, 0
2,97623, Note_on_c, 0, 49, 0
2,97824, Note_on_c, 0, 59, 91
2,97831, Note_on_c, 0, 78, 92
2,97920, Note_on_c, 0, 78, 0
2,97965, Note_on_c, 0, 76, 90
2,98045, Note_on_c, 0, 76, 0
2,98085, Note_on_c, 0, 74, 87
2,98170, Note_on_c, 0, 74, 0
2,98211, Note_on_c, 0, 76, 86
2,98238, Note_on_c, 0, 59, 0
2,98305, Note_on_c, 0, 76, 0
2,98339, Note_on_c, 0, 57, 79
2,98352, Note_on_c, 0, 78, 89
2,98405, Note_on_c, 0, 57, 0
2,98450, Note_on_c, 0, 78, 0
2,98621, Note_on_c, 0, 59, 73
2,98630, Note_on_c, 0, 79, 91
2,98707, Note_on_c, 0, 59, 0
2,98760, Note_on_c, 0, 78, 88
2,98764, Note_on_c, 0, 57, 71
2,98789, Note_on_c, 0, 79, 0
2,98809, Note_on_c, 0, 55, 42
2,98823, Note_on_c, 0, 57, 0
2,98852, Note_on_c, 0, 78, 0
2,98873, Note_on_c, 0, 55, 0
2,98873, Note_on_c, 0, 55, 63
2,98884, Note_on_c, 0, 76, 90
2,98986, Note_on_c, 0, 76, 0
2,99001, Note_on_c, 0, 74, 86
2,99023, Note_on_c, 0, 54, 72
2,99027, Note_on_c, 0, 55, 0
2,99065, Note_on_c, 0, 54, 0
2,99094, Note_on_c, 0, 74, 0
2,99143, Note_on_c, 0, 52, 76
2,99151, Note_on_c, 0, 73, 91
2,99238, Note_on_c, 0, 73, 0
2,99335, Note_on_c, 0, 52, 0
2,99451, Note_on_c, 0, 55, 66
2,99451, Note_on_c, 0, 83, 92
2,99565, Note_on_c, 0, 55, 0
2,99579, Note_on_c, 0, 54, 77
2,99654, Note_on_c, 0, 54, 0
2,99726, Note_on_c, 0, 52, 71
2,99857, Note_on_c, 0, 52, 0
2,99870, Note_on_c, 0, 50, 70
2,100033, Note_on_c, 0, 49, 64
2,100107, Note_on_c, 0, 50, 0
2,100117, Control_c, 0, 64, 23
2,100134, Control_c, 0, 64, 35
2,100154, Control_c, 0, 64, 42
2,100177, Control_c, 0, 64, 49
2,100197, Control_c, 0, 64, 55
2,100212, Control_c, 0, 64, 58
2,100226, Note_on_c, 0, 81, 82
2,100231, Control_c, 0, 64, 59
2,100236, Note_on_c, 0, 83, 0
2,100271, Control_c, 0, 64, 60
2,100310, Control_c, 0, 64, 61
2,100366, Control_c, 0, 64, 60
2,100371, Note_on_c, 0, 83, 81
2,100403, Note_on_c, 0, 81, 0
2,100481, Control_c, 0, 64, 59
2,100508, Note_on_c, 0, 81, 84
2,100565, Note_on_c, 0, 49, 0
2,100585, Note_on_c, 0, 83, 0
2,100615, Control_c, 0, 64, 57
2,100631, Note_on_c, 0, 50, 61
2,100636, Control_c, 0, 64, 47
2,100642, Note_on_c, 0, 79, 87
2,100654, Control_c, 0, 64, 29
2,100658, Note_on_c, 0, 81, 0
2,100674, Control_c, 0, 64, 0
2,100750, Control_c, 0, 64, 18
2,100754, Note_on_c, 0, 79, 0
2,100769, Control_c, 0, 64, 43
2,100776, Note_on_c, 0, 78, 79
2,100788, Control_c, 0, 64, 55
2,100809, Control_c, 0, 64, 59
2,100827, Control_c, 0, 64, 60
2,100867, Control_c, 0, 64, 62
2,100867, Note_on_c, 0, 45, 0
2,100875, Note_on_c, 0, 78, 0
2,100903, Note_on_c, 0, 76, 74
2,100907, Control_c, 0, 64, 63
2,100912, Note_on_c, 0, 50, 0
2,100980, Control_c, 0, 64, 62
2,100985, Note_on_c, 0, 76, 0
2,101012, Note_on_c, 0, 78, 79
2,101016, Note_on_c, 0, 55, 63
2,101021, Control_c, 0, 64, 61
2,101037, Control_c, 0, 64, 55
2,101055, Note_on_c, 0, 78, 0
2,101057, Control_c, 0, 64, 43
2,101071, Note_on_c, 0, 55, 0
2,101078, Control_c, 0, 64, 26
2,101094, Control_c, 0, 64, 17
2,101103, Note_on_c, 0, 54, 70
2,101117, Control_c, 0, 64, 16
2,101117, Note_on_c, 0, 76, 63
2,101137, Control_c, 0, 64, 15
2,101151, Note_on_c, 0, 76, 0
2,101155, Note_on_c, 0, 78, 80
2,101162, Note_on_c, 0, 54, 0
2,101175, Control_c, 0, 64, 11
2,101184, Note_on_c, 0, 52, 64
2,101188, Note_on_c, 0, 78, 0
2,101191, Control_c, 0, 64, 9
2,101212, Control_c, 0, 64, 0
2,101223, Note_on_c, 0, 52, 0
2,101225, Note_on_c, 0, 76, 76
2,101275, Note_on_c, 0, 55, 58
2,101285, Note_on_c, 0, 76, 0
2,101294, Note_on_c, 0, 78, 56
2,101298, Note_on_c, 0, 78, 0
2,101329, Note_on_c, 0, 55, 0
2,101360, Note_on_c, 0, 74, 59
2,101382, Note_on_c, 0, 50, 74
2,101389, Note_on_c, 0, 74, 0
2,101395, Note_on_c, 0, 76, 24
2,101434, Note_on_c, 0, 50, 0
2,101438, Note_on_c, 0, 77, 37
2,101449, Note_on_c, 0, 76, 0
2,101473, Note_on_c, 0, 77, 0
2,101505, Note_on_c, 0, 76, 66
2,101517, Note_on_c, 0, 55, 51
2,101542, Note_on_c, 0, 76, 0
2,101555, Note_on_c, 0, 78, 74
2,101573, Note_on_c, 0, 55, 0
2,101591, Note_on_c, 0, 78, 0
2,101630, Note_on_c, 0, 49, 65
2,101630, Note_on_c, 0, 76, 70
2,101672, Note_on_c, 0, 76, 0
2,101676, Note_on_c, 0, 78, 77
2,101692, Note_on_c, 0, 49, 0
2,101731, Note_on_c, 0, 78, 0
2,101746, Note_on_c, 0, 55, 53
2,101768, Note_on_c, 0, 76, 66
2,101810, Note_on_c, 0, 76, 0
2,101821, Note_on_c, 0, 78, 74
2,101830, Note_on_c, 0, 55, 0
2,101859, Note_on_c, 0, 78, 0
2,101890, Note_on_c, 0, 76, 70
2,101894, Note_on_c, 0, 47, 67
2,101939, Note_on_c, 0, 47, 0
2,101943, Note_on_c, 0, 76, 0
2,101948, Note_on_c, 0, 78, 75
2,102000, Note_on_c, 0, 55, 50
2,102000, Note_on_c, 0, 78, 0
2,102032, Note_on_c, 0, 76, 63
2,102070, Note_on_c, 0, 55, 0
2,102078, Note_on_c, 0, 76, 0
2,102093, Note_on_c, 0, 78, 73
2,102141, Note_on_c, 0, 78, 0
2,102145, Note_on_c, 0, 45, 31
2,102173, Note_on_c, 0, 76, 59
2,102194, Note_on_c, 0, 45, 0
2,102225, Note_on_c, 0, 76, 0
2,102230, Note_on_c, 0, 55, 48
2,102246, Note_on_c, 0, 78, 66
2,102283, Note_on_c, 0, 78, 0
2,102361, Note_on_c, 0, 78, 72
2,102414, Note_on_c, 0, 55, 0
2,102419, Note_on_c, 0, 78, 0
2,102434, Note_on_c, 0, 54, 55
2,102460, Note_on_c, 0, 76, 58
2,102546, Note_on_c, 0, 54, 0
2,102557, Note_on_c, 0, 76, 0
2,102582, Note_on_c, 0, 81, 69
2,102591, Note_on_c, 0, 55, 57
2,102652, Note_on_c, 0, 81, 0
2,102663, Note_on_c, 0, 79, 71
2,102679, Note_on_c, 0, 55, 0
2,102705, Note_on_c, 0, 57, 70
2,102723, Note_on_c, 0, 79, 0
2,102738, Note_on_c, 0, 78, 75
2,102847, Note_on_c, 0, 52, 67
2,102883, Note_on_c, 0, 78, 0
2,102898, Note_on_c, 0, 81, 65
2,102960, Note_on_c, 0, 81, 0
2,102969, Note_on_c, 0, 52, 0
2,102992, Note_on_c, 0, 50, 58
2,103010, Note_on_c, 0, 76, 67
2,103101, Note_on_c, 0, 76, 0
2,103119, Note_on_c, 0, 49, 64
2,103132, Note_on_c, 0, 57, 0
2,103136, Note_on_c, 0, 81, 59
2,103185, Note_on_c, 0, 50, 0
2,103218, Note_on_c, 0, 81, 0
2,103240, Note_on_c, 0, 49, 0
2,103268, Note_on_c, 0, 47, 69
2,103268, Note_on_c, 0, 74, 65
2,103348, Note_on_c, 0, 47, 0
2,103352, Note_on_c, 0, 74, 0
2,103395, Note_on_c, 0, 55, 65
2,103402, Note_on_c, 0, 81, 61
2,103496, Note_on_c, 0, 81, 0
2,103517, Note_on_c, 0, 54, 77
2,103521, Note_on_c, 0, 55, 0
2,103534, Note_on_c, 0, 73, 72
2,103596, Note_on_c, 0, 54, 0
2,103623, Note_on_c, 0, 73, 0
2,103642, Note_on_c, 0, 52, 78
2,103660, Note_on_c, 0, 81, 71
2,103722, Note_on_c, 0, 52, 0
2,103764, Note_on_c, 0, 81, 0
2,103773, Note_on_c, 0, 50, 75
2,103793, Note_on_c, 0, 71, 78
2,103887, Note_on_c, 0, 50, 0
2,103908, Note_on_c, 0, 81, 75
2,103912, Note_on_c, 0, 71, 0
2,103930, Note_on_c, 0, 54, 71
2,103999, Note_on_c, 0, 54, 0
2,104026, Note_on_c, 0, 81, 0
2,104046, Note_on_c, 0, 79, 80
2,104051, Note_on_c, 0, 52, 72
2,104139, Note_on_c, 0, 52, 0
2,104175, Note_on_c, 0, 54, 70
2,104175, Note_on_c, 0, 79, 0
2,104181, Note_on_c, 0, 78, 76
2,104274, Note_on_c, 0, 54, 0
2,104303, Note_on_c, 0, 78, 0
2,104307, Note_on_c, 0, 76, 75
2,104316, Note_on_c, 0, 55, 69
2,104447, Note_on_c, 0, 79, 75
2,104452, Note_on_c, 0, 50, 64
2,104456, Note_on_c, 0, 76, 0
2,104547, Note_on_c, 0, 50, 0
2,104585, Note_on_c, 0, 49, 61
2,104585, Note_on_c, 0, 79, 0
2,104590, Note_on_c, 0, 74, 67
2,104678, Note_on_c, 0, 49, 0
2,104709, Note_on_c, 0, 74, 0
2,104729, Note_on_c, 0, 79, 72
2,104736, Note_on_c, 0, 47, 58
2,104845, Note_on_c, 0, 47, 0
2,104856, Note_on_c, 0, 73, 71
2,104858, Note_on_c, 0, 79, 0
2,104872, Note_on_c, 0, 45, 60
2,104927, Note_on_c, 0, 55, 0
2,105001, Note_on_c, 0, 79, 72
2,105007, Note_on_c, 0, 45, 0
2,105007, Note_on_c, 0, 73, 0
2,105032, Note_on_c, 0, 54, 72
2,105103, Note_on_c, 0, 54, 0
2,105123, Note_on_c, 0, 79, 0
2,105132, Note_on_c, 0, 71, 69
2,105142, Note_on_c, 0, 52, 77
2,105240, Note_on_c, 0, 71, 0
2,105267, Note_on_c, 0, 50, 80
2,105267, Note_on_c, 0, 52, 0
2,105275, Note_on_c, 0, 79, 74
2,105367, Note_on_c, 0, 50, 0
2,105397, Note_on_c, 0, 49, 78
2,105397, Note_on_c, 0, 79, 0
2,105423, Note_on_c, 0, 69, 72
2,105479, Note_on_c, 0, 49, 0
2,105521, Note_on_c, 0, 52, 76
2,105539, Note_on_c, 0, 79, 79
2,105549, Note_on_c, 0, 69, 0
2,105643, Note_on_c, 0, 52, 0
2,105665, Note_on_c, 0, 50, 70
2,105682, Note_on_c, 0, 78, 84
2,105698, Note_on_c, 0, 79, 0
2,105761, Note_on_c, 0, 50, 0
2,105781, Note_on_c, 0, 52, 74
2,105781, Note_on_c, 0, 78, 0
2,105814, Note_on_c, 0, 76, 81
2,105877, Note_on_c, 0, 52, 0
2,105927, Note_on_c, 0, 54, 73
2,105927, Note_on_c, 0, 76, 0
2,105947, Note_on_c, 0, 74, 79
2,106045, Note_on_c, 0, 74, 0
2,106050, Note_on_c, 0, 48, 66
2,106081, Note_on_c, 0, 78, 80
2,106127, Note_on_c, 0, 48, 0
2,106180, Note_on_c, 0, 78, 0
2,106187, Note_on_c, 0, 47, 52
2,106224, Note_on_c, 0, 72, 73
2,106229, Note_on_c, 0, 48, 28
2,106237, Note_on_c, 0, 47, 0
2,106237, Note_on_c, 0, 47, 19
2,106282, Note_on_c, 0, 48, 0
2,106309, Note_on_c, 0, 45, 63
2,106315, Note_on_c, 0, 47, 0
2,106320, Note_on_c, 0, 72, 0
2,106337, Note_on_c, 0, 54, 0
2,106337, Note_on_c, 0, 78, 69
2,106419, Note_on_c, 0, 45, 0
2,106439, Note_on_c, 0, 43, 72
2,106444, Note_on_c, 0, 78, 0
2,106471, Note_on_c, 0, 71, 71
2,106528, Note_on_c, 0, 43, 0
2,106564, Note_on_c, 0, 71, 0
2,106568, Note_on_c, 0, 47, 74
2,106593, Note_on_c, 0, 78, 76
2,106661, Note_on_c, 0, 47, 0
2,106701, Note_on_c, 0, 49, 77
2,106705, Note_on_c, 0, 78, 0
2,106727, Note_on_c, 0, 69, 68
2,106775, Note_on_c, 0, 49, 0
2,106798, Note_on_c, 0, 69, 0
2,106837, Note_on_c, 0, 50, 77
2,106853, Note_on_c, 0, 78, 74
2,106919, Note_on_c, 0, 50, 0
2,106961, Note_on_c, 0, 78, 0
2,106974, Note_on_c, 0, 52, 82
2,106986, Note_on_c, 0, 67, 78
2,107105, Note_on_c, 0, 54, 77
2,107109, Note_on_c, 0, 52, 0
2,107114, Note_on_c, 0, 67, 0
2,107114, Note_on_c, 0, 78, 80
2,107244, Note_on_c, 0, 54, 0
2,107249, Note_on_c, 0, 55, 80
2,107249, Note_on_c, 0, 78, 0
2,107253, Note_on_c, 0, 76, 85
2,107360, Note_on_c, 0, 55, 0
2,107386, Note_on_c, 0, 74, 85
2,107390, Note_on_c, 0, 57, 78
2,107399, Note_on_c, 0, 76, 0
2,107464, Note_on_c, 0, 57, 0
2,107464, Note_on_c, 0, 74, 0
2,107502, Note_on_c, 0, 55, 71
2,107510, Note_on_c, 0, 73, 86
2,107599, Note_on_c, 0, 55, 0
2,107599, Note_on_c, 0, 73, 0
2,107640, Note_on_c, 0, 54, 72
2,107640, Note_on_c, 0, 76, 86
2,107697, Note_on_c, 0, 54, 0
2,107723, Note_on_c, 0, 76, 0
2,107765, Note_on_c, 0, 52, 73
2,107776, Note_on_c, 0, 71, 81
2,107854, Note_on_c, 0, 52, 0
2,107859, Note_on_c, 0, 71, 0
2,107889, Note_on_c, 0, 50, 69
2,107896, Note_on_c, 0, 76, 78
2,107956, Note_on_c, 0, 50, 0
2,107975, Note_on_c, 0, 76, 0
2,108023, Note_on_c, 0, 49, 74
2,108027, Note_on_c, 0, 69, 76
2,108108, Note_on_c, 0, 49, 0
2,108108, Note_on_c, 0, 69, 0
2,108154, Note_on_c, 0, 76, 80
2,108163, Note_on_c, 0, 45, 70
2,108210, Note_on_c, 0, 45, 0
2,108262, Note_on_c, 0, 76, 0
2,108277, Note_on_c, 0, 47, 82
2,108290, Note_on_c, 0, 67, 84
2,108352, Control_c, 0, 64, 17
2,108352, Note_on_c, 0, 47, 0
2,108368, Control_c, 0, 64, 0
2,108373, Note_on_c, 0, 67, 0
2,108404, Note_on_c, 0, 49, 82
2,108412, Note_on_c, 0, 76, 80
2,108478, Note_on_c, 0, 49, 0
2,108534, Note_on_c, 0, 50, 83
2,108538, Note_on_c, 0, 76, 0
2,108544, Note_on_c, 0, 66, 86
2,108620, Note_on_c, 0, 50, 0
2,108620, Note_on_c, 0, 66, 0
2,108662, Note_on_c, 0, 76, 95
2,108669, Note_on_c, 0, 52, 82
2,108760, Note_on_c, 0, 76, 0
2,108789, Note_on_c, 0, 52, 0
2,108799, Note_on_c, 0, 74, 92
2,108806, Note_on_c, 0, 54, 82
2,108880, Note_on_c, 0, 74, 0
2,108893, Note_on_c, 0, 54, 0
2,108927, Note_on_c, 0, 55, 82
2,108947, Note_on_c, 0, 66, 87
2,109001, Note_on_c, 0, 55, 0
2,109041, Note_on_c, 0, 66, 0
2,109064, Note_on_c, 0, 57, 86
2,109089, Note_on_c, 0, 64, 73
2,109093, Note_on_c, 0, 62, 76
2,109125, Note_on_c, 0, 62, 0
2,109134, Note_on_c, 0, 57, 0
2,109143, Note_on_c, 0, 64, 0
2,109207, Note_on_c, 0, 67, 82
2,109279, Note_on_c, 0, 67, 0
2,109326, Note_on_c, 0, 45, 76
2,109342, Note_on_c, 0, 74, 86
2,109364, Note_on_c, 0, 45, 0
2,109410, Note_on_c, 0, 74, 0
2,109473, Note_on_c, 0, 73, 84
2,109554, Note_on_c, 0, 73, 0
2,109597, Control_c, 0, 64, 19
2,109613, Note_on_c, 0, 50, 76
2,109613, Note_on_c, 0, 74, 84
2,109617, Control_c, 0, 64, 48
2,109636, Control_c, 0, 64, 58
2,109654, Note_on_c, 0, 50, 0
2,109658, Control_c, 0, 64, 61
2,109674, Control_c, 0, 64, 63
2,109685, Note_on_c, 0, 74, 0
2,109696, Control_c, 0, 64, 64
2,109711, Note_on_c, 0, 76, 78
2,109715, Control_c, 0, 64, 65
2,109769, Note_on_c, 0, 76, 0
2,109773, Control_c, 0, 64, 64
2,109791, Control_c, 0, 64, 63
2,109811, Control_c, 0, 64, 61
2,109811, Note_on_c, 0, 74, 72
2,109829, Control_c, 0, 64, 57
2,109845, Note_on_c, 0, 74, 0
2,109845, Note_on_c, 0, 76, 74
2,109850, Control_c, 0, 64, 46
2,109867, Control_c, 0, 64, 32
2,109882, Note_on_c, 0, 48, 73
2,109887, Control_c, 0, 64, 20
2,109904, Control_c, 0, 64, 0
2,109904, Note_on_c, 0, 76, 0
2,109914, Note_on_c, 0, 74, 79
2,109968, Note_on_c, 0, 48, 0
2,109973, Note_on_c, 0, 74, 0
2,109973, Note_on_c, 0, 76, 80
2,109990, Note_on_c, 0, 50, 75
2,110029, Note_on_c, 0, 76, 0
2,110040, Note_on_c, 0, 74, 83
2,110088, Note_on_c, 0, 50, 0
2,110106, Note_on_c, 0, 74, 0
2,110110, Note_on_c, 0, 52, 72
2,110114, Note_on_c, 0, 76, 84
2,110165, Note_on_c, 0, 76, 0
2,110174, Note_on_c, 0, 74, 76
2,110191, Note_on_c, 0, 52, 0
2,110227, Note_on_c, 0, 50, 63
2,110253, Note_on_c, 0, 74, 0
2,110253, Note_on_c, 0, 76, 88
2,110308, Note_on_c, 0, 50, 0
2,110315, Note_on_c, 0, 76, 0
2,110344, Note_on_c, 0, 74, 72
2,110353, Note_on_c, 0, 48, 78
2,110417, Note_on_c, 0, 48, 0
2,110628, Note_on_c, 0, 47, 72
2,110695, Note_on_c, 0, 47, 0
2,110748, Note_on_c, 0, 48, 73
2,110838, Note_on_c, 0, 48, 0
2,110878, Note_on_c, 0, 50, 73
2,110954, Note_on_c, 0, 50, 0
2,111001, Note_on_c, 0, 48, 67
2,111065, Note_on_c, 0, 48, 0
2,111145, Note_on_c, 0, 47, 74
2,111183, Note_on_c, 0, 47, 0
2,111262, Note_on_c, 0, 67, 66
2,111351, Note_on_c, 0, 67, 0
2,111388, Note_on_c, 0, 65, 65
2,111406, Note_on_c, 0, 48, 72
2,111441, Note_on_c, 0, 48, 0
2,111445, Note_on_c, 0, 65, 0
2,111517, Note_on_c, 0, 64, 69
2,111609, Note_on_c, 0, 64, 0
2,111656, Note_on_c, 0, 50, 84
2,111656, Note_on_c, 0, 62, 78
2,111698, Note_on_c, 0, 50, 0
2,111731, Note_on_c, 0, 62, 0
2,111776, Note_on_c, 0, 65, 66
2,111887, Note_on_c, 0, 65, 0
2,111918, Note_on_c, 0, 64, 83
2,111928, Note_on_c, 0, 55, 79
2,111995, Note_on_c, 0, 55, 0
2,111995, Note_on_c, 0, 64, 0
2,111999, Note_on_c, 0, 74, 0
2,112042, Note_on_c, 0, 65, 62
2,112174, Note_on_c, 0, 65, 0
2,112194, Note_on_c, 0, 72, 90
2,112203, Note_on_c, 0, 45, 80
2,112203, Note_on_c, 0, 64, 76
2,112253, Note_on_c, 0, 64, 0
2,112342, Note_on_c, 0, 62, 76
2,112432, Note_on_c, 0, 62, 0
2,112466, Note_on_c, 0, 60, 70
2,112482, Note_on_c, 0, 45, 0
2,112561, Note_on_c, 0, 60, 0
2,112600, Note_on_c, 0, 64, 72
2,112706, Note_on_c, 0, 64, 0
2,112730, Note_on_c, 0, 47, 76
2,112730, Note_on_c, 0, 62, 84
2,112792, Note_on_c, 0, 47, 0
2,112800, Note_on_c, 0, 62, 0
2,112807, Note_on_c, 0, 72, 0
2,112856, Note_on_c, 0, 64, 74
2,112951, Note_on_c, 0, 64, 0
2,112982, Note_on_c, 0, 48, 81
2,112988, Note_on_c, 0, 62, 86
2,112988, Note_on_c, 0, 71, 91
2,113040, Note_on_c, 0, 48, 0
2,113079, Note_on_c, 0, 62, 0
2,113122, Note_on_c, 0, 60, 73
2,113212, Note_on_c, 0, 60, 0
2,113261, Note_on_c, 0, 50, 82
2,113265, Note_on_c, 0, 59, 85
2,113314, Note_on_c, 0, 50, 0
2,113332, Note_on_c, 0, 59, 0
2,113386, Note_on_c, 0, 62, 79
2,113499, Note_on_c, 0, 62, 0
2,113528, Note_on_c, 0, 52, 85
2,113528, Note_on_c, 0, 60, 87
2,113599, Note_on_c, 0, 52, 0
2,113604, Note_on_c, 0, 60, 0
2,113648, Note_on_c, 0, 62, 78
2,113659, Note_on_c, 0, 71, 0
2,113749, Note_on_c, 0, 62, 0
2,113798, Note_on_c, 0, 42, 74
2,113798, Note_on_c, 0, 60, 80
2,113799, Note_on_c, 0, 69, 89
2,113854, Note_on_c, 0, 60, 0
2,113932, Note_on_c, 0, 59, 84
2,114013, Note_on_c, 0, 42, 0
2,114022, Note_on_c, 0, 59, 0
2,114054, Note_on_c, 0, 57, 87
2,114179, Note_on_c, 0, 60, 84
2,114183, Note_on_c, 0, 57, 0
2,114192, Note_on_c, 0, 69, 0
2,114291, Note_on_c, 0, 60, 0
2,114334, Note_on_c, 0, 59, 82
2,114343, Control_c, 0, 64, 30
2,114347, Note_on_c, 0, 43, 71
2,114359, Control_c, 0, 64, 48
2,114379, Control_c, 0, 64, 56
2,114397, Control_c, 0, 64, 60
2,114417, Control_c, 0, 64, 63
2,114435, Control_c, 0, 64, 66
2,114448, Note_on_c, 0, 43, 0
2,114457, Control_c, 0, 64, 70
2,114468, Note_on_c, 0, 67, 84
2,114475, Control_c, 0, 64, 76
2,114493, Control_c, 0, 64, 79
2,114512, Control_c, 0, 64, 81
2,114554, Control_c, 0, 64, 78
2,114569, Control_c, 0, 64, 76
2,114590, Control_c, 0, 64, 73
2,114595, Note_on_c, 0, 67, 0
2,114612, Control_c, 0, 64, 72
2,114617, Note_on_c, 0, 69, 86
2,114632, Control_c, 0, 64, 70
2,114632, Note_on_c, 0, 42, 76
2,114646, Control_c, 0, 64, 68
2,114666, Control_c, 0, 64, 66
2,114686, Control_c, 0, 64, 64
2,114686, Note_on_c, 0, 42, 0
2,114707, Control_c, 0, 64, 63
2,114749, Control_c, 0, 64, 62
2,114753, Note_on_c, 0, 43, 73
2,114753, Note_on_c, 0, 67, 87
2,114764, Note_on_c, 0, 69, 0
2,114782, Control_c, 0, 64, 61
2,114802, Control_c, 0, 64, 60
2,114831, Note_on_c, 0, 67, 0
2,114840, Control_c, 0, 64, 59
2,114861, Control_c, 0, 64, 58
2,114861, Note_on_c, 0, 43, 0
2,114870, Note_on_c, 0, 45, 72
2,114883, Note_on_c, 0, 66, 91
2,114898, Control_c, 0, 64, 57
2,114921, Note_on_c, 0, 45, 0
2,114935, Control_c, 0, 64, 55
2,114958, Control_c, 0, 64, 51
2,114960, Note_on_c, 0, 59, 0
2,114971, Note_on_c, 0, 66, 0
2,114976, Control_c, 0, 64, 43
2,114981, Note_on_c, 0, 47, 66
2,114989, Note_on_c, 0, 67, 77
2,114994, Control_c, 0, 64, 24
2,115014, Control_c, 0, 64, 0
2,115064, Note_on_c, 0, 67, 0
2,115093, Note_on_c, 0, 47, 0
2,115142, Note_on_c, 0, 36, 73
2,115147, Control_c, 0, 64, 41
2,115153, Note_on_c, 0, 66, 83
2,115169, Control_c, 0, 64, 56
2,115185, Control_c, 0, 64, 61
2,115185, Note_on_c, 0, 57, 59
2,115189, Note_on_c, 0, 36, 0
2,115205, Control_c, 0, 64, 63
2,115215, Note_on_c, 0, 57, 0
2,115225, Control_c, 0, 64, 65
2,115245, Control_c, 0, 64, 67
2,115263, Control_c, 0, 64, 71
2,115272, Note_on_c, 0, 66, 0
2,115280, Control_c, 0, 64, 74
2,115289, Note_on_c, 0, 62, 80
2,115300, Control_c, 0, 64, 75
2,115320, Control_c, 0, 64, 74
2,115339, Control_c, 0, 64, 71
2,115358, Control_c, 0, 64, 69
2,115372, Note_on_c, 0, 62, 0
2,115381, Control_c, 0, 64, 66
2,115381, Note_on_c, 0, 64, 74
2,115396, Control_c, 0, 64, 60
2,115415, Control_c, 0, 64, 50
2,115426, Note_on_c, 0, 60, 81
2,115437, Control_c, 0, 64, 35
2,115437, Note_on_c, 0, 66, 79
2,115453, Control_c, 0, 64, 24
2,115463, Note_on_c, 0, 64, 0
2,115474, Control_c, 0, 64, 18
2,115492, Control_c, 0, 64, 8
2,115510, Control_c, 0, 64, 0
2,115542, Note_on_c, 0, 60, 0
2,115542, Note_on_c, 0, 66, 0
2,115556, Note_on_c, 0, 59, 77
2,115565, Note_on_c, 0, 62, 77
2,115633, Note_on_c, 0, 59, 0
2,115686, Note_on_c, 0, 57, 79
2,115693, Note_on_c, 0, 67, 86
2,115713, Note_on_c, 0, 62, 0
2,115765, Note_on_c, 0, 57, 0
2,115786, Note_on_c, 0, 67, 0
2,115813, Note_on_c, 0, 55, 72
2,115832, Note_on_c, 0, 62, 73
2,115880, Note_on_c, 0, 55, 0
2,115941, Note_on_c, 0, 62, 0
2,115945, Note_on_c, 0, 54, 72
2,115956, Note_on_c, 0, 69, 75
2,116013, Note_on_c, 0, 54, 0
2,116045, Note_on_c, 0, 69, 0
2,116064, Note_on_c, 0, 52, 65
2,116083, Note_on_c, 0, 62, 71
2,116125, Note_on_c, 0, 52, 0
2,116178, Note_on_c, 0, 50, 68
2,116187, Note_on_c, 0, 62, 0
2,116207, Note_on_c, 0, 71, 77
2,116246, Note_on_c, 0, 50, 0
2,116290, Note_on_c, 0, 71, 0
2,116314, Note_on_c, 0, 48, 52
2,116337, Note_on_c, 0, 62, 70
2,116375, Note_on_c, 0, 48, 0
2,116437, Note_on_c, 0, 62, 0
2,116464, Note_on_c, 0, 47, 55
2,116464, Note_on_c, 0, 72, 74
2,116512, Note_on_c, 0, 47, 0
2,116541, Note_on_c, 0, 72, 0
2,116578, Note_on_c, 0, 62, 67
2,116601, Note_on_c, 0, 45, 54
2,116649, Note_on_c, 0, 62, 0
2,116659, Note_on_c, 0, 45, 0
2,116717, Note_on_c, 0, 71, 68
2,116732, Note_on_c, 0, 43, 57
2,116798, Note_on_c, 0, 43, 0
2,116822, Note_on_c, 0, 71, 0
2,116856, Note_on_c, 0, 45, 61
2,116856, Note_on_c, 0, 79, 74
2,116914, Note_on_c, 0, 45, 0
2,116947, Note_on_c, 0, 79, 0
2,116981, Note_on_c, 0, 47, 73
2,116981, Note_on_c, 0, 77, 85
2,117043, Note_on_c, 0, 47, 0
2,117061, Note_on_c, 0, 77, 0
2,117097, Note_on_c, 0, 43, 74
2,117113, Note_on_c, 0, 76, 79
2,117197, Note_on_c, 0, 76, 0
2,117201, Note_on_c, 0, 43, 0
2,117235, Note_on_c, 0, 48, 78
2,117239, Note_on_c, 0, 74, 79
2,117309, Note_on_c, 0, 48, 0
2,117344, Note_on_c, 0, 74, 0
2,117370, Note_on_c, 0, 43, 70
2,117370, Note_on_c, 0, 72, 79
2,117449, Note_on_c, 0, 72, 0
2,117481, Note_on_c, 0, 43, 0
2,117501, Note_on_c, 0, 71, 78
2,117514, Note_on_c, 0, 50, 71
2,117581, Note_on_c, 0, 50, 0
2,117594, Note_on_c, 0, 71, 0
2,117638, Note_on_c, 0, 43, 68
2,117649, Note_on_c, 0, 69, 65
2,117728, Note_on_c, 0, 43, 0
2,117737, Note_on_c, 0, 69, 0
2,117769, Note_on_c, 0, 52, 69
2,117773, Note_on_c, 0, 67, 73
2,117858, Note_on_c, 0, 52, 0
2,117860, Note_on_c, 0, 67, 0
2,117901, Note_on_c, 0, 43, 66
2,117901, Note_on_c, 0, 65, 64
2,117990, Note_on_c, 0, 65, 0
2,118002, Note_on_c, 0, 43, 0
2,118037, Note_on_c, 0, 64, 73
2,118043, Note_on_c, 0, 53, 69
2,118111, Note_on_c, 0, 64, 0
2,118115, Note_on_c, 0, 53, 0
2,118158, Note_on_c, 0, 43, 67
2,118163, Note_on_c, 0, 62, 73
2,118231, Note_on_c, 0, 62, 0
2,118256, Control_c, 0, 64, 36
2,118267, Note_on_c, 0, 43, 0
2,118276, Control_c, 0, 64, 48
2,118287, Note_on_c, 0, 60, 71
2,118297, Control_c, 0, 64, 57
2,118297, Note_on_c, 0, 52, 75
2,118314, Control_c, 0, 64, 61
2,118330, Note_on_c, 0, 60, 0
2,118333, Control_c, 0, 64, 63
2,118353, Control_c, 0, 64, 64
2,118371, Control_c, 0, 64, 66
2,118389, Note_on_c, 0, 52, 0
2,118393, Control_c, 0, 64, 69
2,118412, Control_c, 0, 64, 70
2,118432, Control_c, 0, 64, 69
2,118441, Note_on_c, 0, 40, 71
2,118449, Control_c, 0, 64, 63
2,118471, Control_c, 0, 64, 52
2,118471, Note_on_c, 0, 76, 86
2,118487, Control_c, 0, 64, 34
2,118508, Control_c, 0, 64, 17
2,118513, Note_on_c, 0, 42, 49
2,118529, Control_c, 0, 64, 0
2,118529, Note_on_c, 0, 43, 75
2,118546, Note_on_c, 0, 40, 0
2,118562, Note_on_c, 0, 44, 75
2,118566, Note_on_c, 0, 43, 0
2,118571, Note_on_c, 0, 42, 0
2,118582, Note_on_c, 0, 76, 0
2,118593, Note_on_c, 0, 74, 82
2,118682, Note_on_c, 0, 40, 69
2,118682, Note_on_c, 0, 74, 0
2,118705, Note_on_c, 0, 44, 0
2,118720, Note_on_c, 0, 72, 84
2,118796, Note_on_c, 0, 72, 0
2,118798, Note_on_c, 0, 40, 0
2,118816, Note_on_c, 0, 45, 76
2,118839, Note_on_c, 0, 71, 81
2,118909, Note_on_c, 0, 45, 0
2,118916, Note_on_c, 0, 71, 0
2,118957, Note_on_c, 0, 40, 67
2,118964, Note_on_c, 0, 69, 74
2,119044, Note_on_c, 0, 69, 0
2,119072, Note_on_c, 0, 40, 0
2,119096, Note_on_c, 0, 68, 82
2,119101, Note_on_c, 0, 47, 74
2,119177, Note_on_c, 0, 47, 0
2,119210, Note_on_c, 0, 68, 0
2,119225, Note_on_c, 0, 66, 77
2,119237, Note_on_c, 0, 40, 63
2,119312, Note_on_c, 0, 66, 0
2,119330, Note_on_c, 0, 40, 0
2,119357, Note_on_c, 0, 64, 77
2,119373, Note_on_c, 0, 48, 71
2,119443, Note_on_c, 0, 64, 0
2,119446, Note_on_c, 0, 48, 0
2,119479, Note_on_c, 0, 62, 73
2,119504, Note_on_c, 0, 40, 63
2,119573, Note_on_c, 0, 62, 0
2,119577, Note_on_c, 0, 40, 0
2,119630, Note_on_c, 0, 60, 67
2,119638, Note_on_c, 0, 50, 65
2,119689, Note_on_c, 0, 60, 0
2,119700, Note_on_c, 0, 50, 0
2,119754, Note_on_c, 0, 59, 71
2,119758, Note_on_c, 0, 40, 60
2,119841, Note_on_c, 0, 59, 0
2,119853, Note_on_c, 0, 40, 0
2,119888, Note_on_c, 0, 49, 73
2,119897, Note_on_c, 0, 57, 67
2,119955, Note_on_c, 0, 57, 0
2,119966, Note_on_c, 0, 49, 0
2,120015, Note_on_c, 0, 57, 70
2,120020, Note_on_c, 0, 59, 70
2,120097, Note_on_c, 0, 57, 0
2,120105, Note_on_c, 0, 59, 0
2,120152, Note_on_c, 0, 55, 80
2,120168, Note_on_c, 0, 61, 78
2,120233, Note_on_c, 0, 55, 0
2,120237, Note_on_c, 0, 61, 0
2,120271, Note_on_c, 0, 57, 75
2,120290, Note_on_c, 0, 54, 74
2,120344, Note_on_c, 0, 54, 0
2,120355, Note_on_c, 0, 57, 0
2,120414, Note_on_c, 0, 52, 76
2,120414, Note_on_c, 0, 62, 84
2,120483, Note_on_c, 0, 62, 0
2,120501, Note_on_c, 0, 52, 0
2,120526, Note_on_c, 0, 57, 75
2,120546, Note_on_c, 0, 50, 72
2,120621, Note_on_c, 0, 57, 0
2,120623, Note_on_c, 0, 50, 0
2,120664, Note_on_c, 0, 64, 91
2,120677, Note_on_c, 0, 49, 75
2,120745, Note_on_c, 0, 64, 0
2,120772, Note_on_c, 0, 49, 0
2,120783, Note_on_c, 0, 57, 80
2,120807, Note_on_c, 0, 47, 68
2,120882, Note_on_c, 0, 47, 0
2,120893, Note_on_c, 0, 57, 0
2,120929, Note_on_c, 0, 66, 98
2,120935, Note_on_c, 0, 45, 78
2,121013, Note_on_c, 0, 66, 0
2,121025, Note_on_c, 0, 45, 0
2,121044, Note_on_c, 0, 57, 80
2,121069, Note_on_c, 0, 43, 68
2,121133, Note_on_c, 0, 57, 0
2,121144, Note_on_c, 0, 43, 0
2,121189, Note_on_c, 0, 67, 92
2,121198, Note_on_c, 0, 42, 77
2,121293, Note_on_c, 0, 57, 82
2,121293, Note_on_c, 0, 67, 0
2,121296, Note_on_c, 0, 42, 0
2,121343, Note_on_c, 0, 40, 64
2,121366, Note_on_c, 0, 57, 0
2,121409, Note_on_c, 0, 40, 0
2,121465, Note_on_c, 0, 38, 82
2,121469, Note_on_c, 0, 62, 86
2,121469, Note_on_c, 0, 66, 92
2,121524, Note_on_c, 0, 62, 0
2,121557, Note_on_c, 0, 66, 0
2,121780, Note_on_c, 0, 60, 88
2,121780, Note_on_c, 0, 71, 98
2,121836, Note_on_c, 0, 60, 0
2,121849, Note_on_c, 0, 71, 0
2,121902, Note_on_c, 0, 62, 85
2,121970, Note_on_c, 0, 62, 0
2,122028, Note_on_c, 0, 64, 91
2,122035, Note_on_c, 0, 67, 72
2,122038, Note_on_c, 0, 69, 66
2,122074, Note_on_c, 0, 69, 0
2,122091, Note_on_c, 0, 67, 0
2,122096, Note_on_c, 0, 64, 0
2,122145, Note_on_c, 0, 62, 89
2,122212, Note_on_c, 0, 62, 0
2,122293, Note_on_c, 0, 64, 99
2,122298, Note_on_c, 0, 60, 86
2,122360, Note_on_c, 0, 60, 0
2,122360, Note_on_c, 0, 64, 0
2,122576, Note_on_c, 0, 69, 93
2,122594, Note_on_c, 0, 59, 59
2,122598, Control_c, 0, 64, 17
2,122600, Note_on_c, 0, 60, 57
2,122614, Control_c, 0, 64, 0
2,122628, Note_on_c, 0, 59, 0
2,122632, Note_on_c, 0, 60, 0
2,122656, Note_on_c, 0, 69, 0
2,122700, Note_on_c, 0, 60, 76
2,122738, Note_on_c, 0, 60, 0
2,122835, Note_on_c, 0, 62, 79
2,122835, Note_on_c, 0, 66, 86
2,122866, Note_on_c, 0, 62, 0
2,122920, Note_on_c, 0, 66, 0
2,122950, Note_on_c, 0, 60, 76
2,122992, Note_on_c, 0, 60, 0
2,123096, Note_on_c, 0, 67, 83
2,123102, Note_on_c, 0, 59, 78
2,123137, Note_on_c, 0, 59, 0
2,123202, Note_on_c, 0, 38, 0
2,123242, Note_on_c, 0, 50, 65
2,123312, Note_on_c, 0, 50, 0
2,123358, Note_on_c, 0, 48, 80
2,123367, Note_on_c, 0, 60, 83
2,123414, Note_on_c, 0, 60, 0
2,123430, Note_on_c, 0, 48, 0
2,123483, Note_on_c, 0, 50, 74
2,123544, Note_on_c, 0, 50, 0
2,123606, Note_on_c, 0, 52, 79
2,123621, Note_on_c, 0, 62, 86
2,123675, Note_on_c, 0, 62, 0
2,123680, Note_on_c, 0, 52, 0
2,123731, Note_on_c, 0, 50, 75
2,123802, Note_on_c, 0, 50, 0
2,123813, Note_on_c, 0, 67, 0
2,123865, Note_on_c, 0, 48, 79
2,123869, Note_on_c, 0, 64, 88
2,123880, Control_c, 0, 64, 42
2,123900, Control_c, 0, 64, 60
2,123908, Note_on_c, 0, 48, 0
2,123921, Control_c, 0, 64, 63
2,123936, Note_on_c, 0, 64, 0
2,123938, Control_c, 0, 64, 64
2,123958, Control_c, 0, 64, 65
2,123976, Control_c, 0, 64, 67
2,123987, Note_on_c, 0, 69, 75
2,123996, Control_c, 0, 64, 69
2,124015, Control_c, 0, 64, 71
2,124023, Note_on_c, 0, 69, 0
2,124035, Control_c, 0, 64, 72
2,124052, Control_c, 0, 64, 71
2,124072, Control_c, 0, 64, 68
2,124091, Control_c, 0, 64, 61
2,124109, Control_c, 0, 64, 38
2,124125, Note_on_c, 0, 69, 89
2,124130, Control_c, 0, 64, 0
2,124135, Note_on_c, 0, 47, 76
2,124139, Note_on_c, 0, 54, 79
2,124181, Note_on_c, 0, 69, 0
2,124217, Note_on_c, 0, 47, 0
2,124230, Control_c, 0, 64, 42
2,124230, Note_on_c, 0, 48, 75
2,124230, Note_on_c, 0, 71, 88
2,124243, Control_c, 0, 64, 46
2,124266, Control_c, 0, 64, 34
2,124284, Control_c, 0, 64, 17
2,124304, Control_c, 0, 64, 15
2,124313, Note_on_c, 0, 69, 79
2,124315, Note_on_c, 0, 71, 0
2,124322, Control_c, 0, 64, 18
2,124342, Control_c, 0, 64, 21
2,124362, Control_c, 0, 64, 18
2,124362, Note_on_c, 0, 48, 0
2,124367, Note_on_c, 0, 50, 73
2,124381, Control_c, 0, 64, 14
2,124391, Note_on_c, 0, 69, 0
2,124391, Note_on_c, 0, 71, 76
2,124457, Control_c, 0, 64, 15
2,124462, Note_on_c, 0, 71, 0
2,124478, Control_c, 0, 64, 16
2,124478, Note_on_c, 0, 69, 67
2,124499, Note_on_c, 0, 50, 0
2,124511, Note_on_c, 0, 48, 62
2,124515, Control_c, 0, 64, 17
2,124520, Note_on_c, 0, 69, 0
2,124529, Note_on_c, 0, 54, 0
2,124533, Control_c, 0, 64, 15
2,124538, Note_on_c, 0, 67, 79
2,124553, Control_c, 0, 64, 0
2,124598, Note_on_c, 0, 69, 72
2,124607, Note_on_c, 0, 67, 0
2,124643, Note_on_c, 0, 48, 0
2,124663, Note_on_c, 0, 71, 98
2,124670, Note_on_c, 0, 55, 80
2,124674, Note_on_c, 0, 47, 78
2,124697, Note_on_c, 0, 69, 0
2,124716, Note_on_c, 0, 55, 0
2,124735, Note_on_c, 0, 71, 0
2,124746, Note_on_c, 0, 47, 0
2,124955, Note_on_c, 0, 72, 93
2,124962, Note_on_c, 0, 69, 83
2,124966, Note_on_c, 0, 45, 77
2,124997, Note_on_c, 0, 69, 0
2,125008, Note_on_c, 0, 71, 37
2,125024, Note_on_c, 0, 45, 0
2,125062, Note_on_c, 0, 71, 0
2,125062, Note_on_c, 0, 71, 69
2,125066, Note_on_c, 0, 67, 84
2,125077, Note_on_c, 0, 47, 79
2,125082, Note_on_c, 0, 72, 0
2,125102, Note_on_c, 0, 67, 0
2,125156, Note_on_c, 0, 71, 0
2,125160, Note_on_c, 0, 47, 0
2,125200, Note_on_c, 0, 48, 76
2,125206, Note_on_c, 0, 66, 87
2,125211, Note_on_c, 0, 69, 76
2,125242, Note_on_c, 0, 66, 0
2,125246, Note_on_c, 0, 69, 0
2,125254, Note_on_c, 0, 68, 20
2,125261, Note_on_c, 0, 48, 0
2,125305, Note_on_c, 0, 71, 86
2,125309, Note_on_c, 0, 47, 79
2,125309, Note_on_c, 0, 68, 0
2,125323, Note_on_c, 0, 67, 72
2,125365, Note_on_c, 0, 67, 0
2,125392, Note_on_c, 0, 47, 0
2,125392, Note_on_c, 0, 71, 0
2,125463, Note_on_c, 0, 45, 83
2,125463, Note_on_c, 0, 69, 91
2,125463, Note_on_c, 0, 72, 100
2,125524, Note_on_c, 0, 45, 0
2,125526, Note_on_c, 0, 69, 0
2,125535, Note_on_c, 0, 72, 0
2,125751, Note_on_c, 0, 43, 77
2,125756, Note_on_c, 0, 74, 92
2,125761, Note_on_c, 0, 71, 87
2,125802, Note_on_c, 0, 71, 0
2,125831, Note_on_c, 0, 43, 0
2,125869, Note_on_c, 0, 72, 77
2,125880, Note_on_c, 0, 45, 74
2,125880, Note_on_c, 0, 69, 81
2,125889, Note_on_c, 0, 74, 0
2,125927, Note_on_c, 0, 69, 0
2,125938, Note_on_c, 0, 45, 0
2,125967, Note_on_c, 0, 72, 0
2,125996, Note_on_c, 0, 47, 83
2,126007, Note_on_c, 0, 67, 84
2,126012, Note_on_c, 0, 71, 92
2,126049, Note_on_c, 0, 67, 0
2,126063, Note_on_c, 0, 71, 0
2,126073, Note_on_c, 0, 47, 0
2,126114, Note_on_c, 0, 45, 78
2,126132, Note_on_c, 0, 72, 89
2,126138, Note_on_c, 0, 69, 82
2,126166, Note_on_c, 0, 45, 0
2,126206, Note_on_c, 0, 69, 0
2,126206, Note_on_c, 0, 72, 0
2,126223, Control_c, 0, 64, 17
2,126243, Note_on_c, 0, 43, 86
2,126245, Control_c, 0, 64, 44
2,126259, Control_c, 0, 64, 48
2,126269, Note_on_c, 0, 74, 96
2,126280, Control_c, 0, 64, 42
2,126280, Note_on_c, 0, 71, 84
2,126285, Note_on_c, 0, 43, 0
2,126303, Control_c, 0, 64, 29
2,126307, Note_on_c, 0, 71, 0
2,126318, Control_c, 0, 64, 12
2,126339, Control_c, 0, 64, 0
2,126339, Note_on_c, 0, 74, 0
2,126374, Note_on_c, 0, 55, 80
2,126455, Note_on_c, 0, 55, 0
2,126476, Note_on_c, 0, 54, 72
2,126531, Note_on_c, 0, 54, 0
2,126544, Note_on_c, 0, 72, 90
2,126551, Note_on_c, 0, 52, 77
2,126551, Note_on_c, 0, 69, 77
2,126576, Note_on_c, 0, 69, 0
2,126598, Note_on_c, 0, 72, 0
2,126609, Note_on_c, 0, 52, 0
2,126675, Note_on_c, 0, 55, 68
2,126739, Note_on_c, 0, 55, 0
2,126779, Note_on_c, 0, 50, 74
2,126810, Note_on_c, 0, 71, 87
2,126820, Note_on_c, 0, 67, 69
2,126841, Note_on_c, 0, 50, 0
2,126847, Note_on_c, 0, 71, 0
2,126856, Note_on_c, 0, 67, 0
2,126919, Note_on_c, 0, 55, 65
2,127024, Note_on_c, 0, 55, 0
2,127070, Note_on_c, 0, 69, 82
2,127081, Note_on_c, 0, 49, 44
2,127081, Note_on_c, 0, 67, 73
2,127111, Note_on_c, 0, 67, 0
2,127115, Note_on_c, 0, 69, 0
2,127135, Note_on_c, 0, 49, 0
2,127251, Note_on_c, 0, 59, 40
2,127256, Note_on_c, 0, 57, 49
2,127293, Note_on_c, 0, 59, 0
2,127318, Note_on_c, 0, 57, 0
2,127349, Note_on_c, 0, 79, 97
2,127360, Note_on_c, 0, 74, 83
2,127365, Note_on_c, 0, 47, 70
2,127422, Note_on_c, 0, 47, 0
2,127506, Note_on_c, 0, 57, 68
2,127556, Note_on_c, 0, 74, 0
2,127563, Note_on_c, 0, 57, 0
2,127634, Note_on_c, 0, 45, 71
2,127639, Note_on_c, 0, 73, 79
2,127683, Note_on_c, 0, 73, 0
2,127688, Note_on_c, 0, 45, 0
2,127760, Note_on_c, 0, 57, 75
2,127799, Note_on_c, 0, 57, 0
2,127808, Note_on_c, 0, 79, 0
2,127898, Note_on_c, 0, 74, 80
2,127898, Note_on_c, 0, 78, 85
2,127918, Note_on_c, 0, 50, 75
2,127934, Note_on_c, 0, 74, 0
2,127964, Note_on_c, 0, 78, 0
2,128006, Note_on_c, 0, 50, 0
2,128024, Note_on_c, 0, 48, 72
2,128153, Note_on_c, 0, 76, 91
2,128161, Note_on_c, 0, 46, 75
2,128161, Note_on_c, 0, 48, 0
2,128161, Note_on_c, 0, 67, 79
2,128191, Note_on_c, 0, 67, 0
2,128218, Note_on_c, 0, 76, 0
2,128268, Note_on_c, 0, 46, 0
2,128296, Note_on_c, 0, 50, 73
2,128369, Note_on_c, 0, 75, 7
2,128402, Note_on_c, 0, 75, 0
2,128407, Note_on_c, 0, 50, 0
2,128436, Note_on_c, 0, 45, 76
2,128440, Note_on_c, 0, 74, 96
2,128444, Note_on_c, 0, 66, 85
2,128480, Note_on_c, 0, 66, 0
2,128508, Note_on_c, 0, 74, 0
2,128530, Note_on_c, 0, 45, 0
2,128572, Note_on_c, 0, 50, 73
2,128684, Note_on_c, 0, 50, 0
2,128719, Note_on_c, 0, 43, 79
2,128723, Note_on_c, 0, 64, 83
2,128727, Note_on_c, 0, 73, 95
2,128751, Note_on_c, 0, 64, 0
2,128805, Note_on_c, 0, 73, 0
2,128827, Note_on_c, 0, 43, 0
2,128871, Note_on_c, 0, 52, 72
2,129015, Note_on_c, 0, 52, 0
2,129024, Note_on_c, 0, 42, 69
2,129044, Note_on_c, 0, 82, 95
2,129049, Note_on_c, 0, 73, 90
2,129086, Control_c, 0, 64, 22
2,129101, Control_c, 0, 64, 40
2,129121, Control_c, 0, 64, 51
2,129143, Control_c, 0, 64, 57
2,129161, Note_on_c, 0, 42, 0
2,129165, Control_c, 0, 64, 59
2,129176, Note_on_c, 0, 52, 70
2,129181, Control_c, 0, 64, 60
2,129198, Control_c, 0, 64, 61
2,129219, Control_c, 0, 64, 62
2,129237, Control_c, 0, 64, 63
2,129288, Note_on_c, 0, 52, 0
2,129329, Note_on_c, 0, 40, 65
2,129372, Control_c, 0, 64, 62
2,129392, Control_c, 0, 64, 61
2,129411, Control_c, 0, 64, 60
2,129418, Note_on_c, 0, 40, 0
2,129429, Control_c, 0, 64, 59
2,129437, Note_on_c, 0, 52, 73
2,129467, Control_c, 0, 64, 57
2,129476, Note_on_c, 0, 82, 0
2,129488, Control_c, 0, 64, 54
2,129490, Note_on_c, 0, 73, 0
2,129507, Control_c, 0, 64, 50
2,129527, Control_c, 0, 64, 48
2,129546, Control_c, 0, 64, 47
2,129553, Note_on_c, 0, 52, 0
2,129566, Control_c, 0, 64, 44
2,129585, Control_c, 0, 64, 38
2,129589, Note_on_c, 0, 42, 72
2,129598, Note_on_c, 0, 81, 85
2,129604, Control_c, 0, 64, 33
2,129611, Note_on_c, 0, 72, 79
2,129625, Control_c, 0, 64, 30
2,129642, Control_c, 0, 64, 27
2,129658, Note_on_c, 0, 42, 0
2,129663, Control_c, 0, 64, 21
2,129680, Control_c, 0, 64, 10
2,129698, Control_c, 0, 64, 0
2,129738, Note_on_c, 0, 79, 92
2,129767, Note_on_c, 0, 81, 0
2,129878, Note_on_c, 0, 78, 93
2,129894, Note_on_c, 0, 38, 68
2,129898, Note_on_c, 0, 79, 0
2,129961, Note_on_c, 0, 38, 0
2,129974, Note_on_c, 0, 78, 0
2,129999, Note_on_c, 0, 76, 91
2,130082, Note_on_c, 0, 76, 0
2,130128, Note_on_c, 0, 72, 0
2,130148, Note_on_c, 0, 74, 87
2,130154, Note_on_c, 0, 43, 71
2,130220, Note_on_c, 0, 43, 0
2,130288, Note_on_c, 0, 71, 83
2,130357, Note_on_c, 0, 71, 0
2,130370, Note_on_c, 0, 69, 76
2,130398, Note_on_c, 0, 74, 0
2,130422, Note_on_c, 0, 40, 66
2,130441, Note_on_c, 0, 71, 87
2,130460, Note_on_c, 0, 69, 0
2,130488, Note_on_c, 0, 40, 0
2,130585, Note_on_c, 0, 79, 94
2,130596, Note_on_c, 0, 71, 0
2,130732, Note_on_c, 0, 69, 84
2,130736, Note_on_c, 0, 36, 72
2,130769, Note_on_c, 0, 79, 0
2,130797, Note_on_c, 0, 36, 0
2,130869, Note_on_c, 0, 72, 91
2,130984, Note_on_c, 0, 72, 0
2,131013, Note_on_c, 0, 79, 93
2,131018, Note_on_c, 0, 38, 70
2,131071, Note_on_c, 0, 38, 0
2,131127, Note_on_c, 0, 69, 0
2,131154, Note_on_c, 0, 78, 88
2,131162, Note_on_c, 0, 79, 0
2,131303, Note_on_c, 0, 78, 0
2,131331, Note_on_c, 0, 79, 88
2,131335, Note_on_c, 0, 43, 74
2,131340, Note_on_c, 0, 71, 81
2,131506, Note_on_c, 0, 78, 85
2,131506, Note_on_c, 0, 79, 0
2,131519, Note_on_c, 0, 71, 0
2,131541, Note_on_c, 0, 78, 0
2,131555, Note_on_c, 0, 76, 81
2,131642, Note_on_c, 0, 74, 79
2,131666, Note_on_c, 0, 71, 65
2,131666, Note_on_c, 0, 76, 0
2,131748, Note_on_c, 0, 74, 0
2,131766, Note_on_c, 0, 71, 0
2,131789, Note_on_c, 0, 79, 84
2,131915, Note_on_c, 0, 79, 0
2,131930, Note_on_c, 0, 72, 80
2,131937, Note_on_c, 0, 69, 74
2,132015, Note_on_c, 0, 69, 0
2,132032, Note_on_c, 0, 72, 0
2,132059, Note_on_c, 0, 79, 79
2,132156, Note_on_c, 0, 79, 0
2,132185, Note_on_c, 0, 43, 0
2,132207, Note_on_c, 0, 71, 78
2,132211, Note_on_c, 0, 67, 73
2,132333, Note_on_c, 0, 43, 76
2,132419, Note_on_c, 0, 45, 74
2,132419, Note_on_c, 0, 71, 0
2,132423, Note_on_c, 0, 43, 0
2,132483, Note_on_c, 0, 47, 78
2,132487, Note_on_c, 0, 79, 93
2,132492, Note_on_c, 0, 45, 0
2,132533, Note_on_c, 0, 47, 0
2,132542, Note_on_c, 0, 79, 0
2,132547, Note_on_c, 0, 67, 0
2,132605, Note_on_c, 0, 43, 84
2,132713, Note_on_c, 0, 43, 0
2,132755, Note_on_c, 0, 48, 82
2,132759, Note_on_c, 0, 69, 83
2,132771, Note_on_c, 0, 66, 74
2,132812, Note_on_c, 0, 66, 0
2,132822, Note_on_c, 0, 48, 0
2,132826, Note_on_c, 0, 69, 0
2,132879, Note_on_c, 0, 43, 77
2,133035, Note_on_c, 0, 50, 79
2,133044, Note_on_c, 0, 67, 79
2,133048, Note_on_c, 0, 71, 86
2,133085, Control_c, 0, 64, 15
2,133100, Control_c, 0, 64, 44
2,133119, Control_c, 0, 64, 57
2,133138, Control_c, 0, 64, 62
2,133160, Control_c, 0, 64, 64
2,133169, Note_on_c, 0, 43, 0
2,133174, Note_on_c, 0, 71, 0
2,133178, Control_c, 0, 64, 65
2,133196, Note_on_c, 0, 74, 81
2,133201, Control_c, 0, 64, 66
2,133205, Note_on_c, 0, 67, 0
2,133219, Control_c, 0, 64, 68
2,133235, Control_c, 0, 64, 69
2,133276, Control_c, 0, 64, 68
2,133276, Note_on_c, 0, 74, 0
2,133290, Note_on_c, 0, 72, 81
2,133296, Control_c, 0, 64, 67
2,133313, Control_c, 0, 64, 65
2,133329, Control_c, 0, 64, 56
2,133351, Note_on_c, 0, 71, 87
2,133355, Control_c, 0, 64, 30
2,133355, Note_on_c, 0, 50, 0
2,133360, Note_on_c, 0, 43, 77
2,133370, Control_c, 0, 64, 0
2,133377, Note_on_c, 0, 72, 0
2,133383, Note_on_c, 0, 67, 65
2,133465, Control_c, 0, 64, 35
2,133485, Control_c, 0, 64, 49
2,133498, Note_on_c, 0, 71, 0
2,133504, Control_c, 0, 64, 55
2,133509, Note_on_c, 0, 74, 80
2,133518, Note_on_c, 0, 67, 0
2,133524, Control_c, 0, 64, 56
2,133583, Control_c, 0, 64, 55
2,133601, Control_c, 0, 64, 51
2,133619, Control_c, 0, 64, 45
2,133637, Control_c, 0, 64, 38
2,133648, Note_on_c, 0, 47, 81
2,133648, Note_on_c, 0, 69, 73
2,133659, Control_c, 0, 64, 36
2,133659, Note_on_c, 0, 74, 0
2,133664, Note_on_c, 0, 65, 66
2,133741, Note_on_c, 0, 47, 0
2,133759, Note_on_c, 0, 69, 0
2,133781, Note_on_c, 0, 65, 0
2,133781, Note_on_c, 0, 74, 72
2,133811, Control_c, 0, 64, 35
2,133849, Control_c, 0, 64, 34
2,133897, Note_on_c, 0, 74, 0
2,133919, Note_on_c, 0, 48, 73
2,133923, Note_on_c, 0, 67, 71
2,133927, Note_on_c, 0, 64, 72
2,133931, Control_c, 0, 64, 33
2,133947, Control_c, 0, 64, 32
2,133965, Control_c, 0, 64, 31
2,133982, Note_on_c, 0, 48, 0
2,134009, Note_on_c, 0, 47, 77
2,134065, Note_on_c, 0, 48, 74
2,134080, Control_c, 0, 64, 30
2,134133, Note_on_c, 0, 47, 0
2,134142, Note_on_c, 0, 50, 80
2,134157, Control_c, 0, 64, 29
2,134179, Control_c, 0, 64, 18
2,134179, Note_on_c, 0, 48, 0
2,134196, Control_c, 0, 64, 0
2,134205, Note_on_c, 0, 72, 90
2,134223, Note_on_c, 0, 50, 0
2,134228, Note_on_c, 0, 52, 85
2,134351, Control_c, 0, 64, 21
2,134351, Note_on_c, 0, 48, 78
2,134356, Note_on_c, 0, 52, 0
2,134373, Control_c, 0, 64, 46
2,134382, Note_on_c, 0, 64, 0
2,134389, Control_c, 0, 64, 56
2,134406, Control_c, 0, 64, 60
2,134425, Control_c, 0, 64, 62
2,134445, Control_c, 0, 64, 63
2,134467, Control_c, 0, 64, 65
2,134485, Control_c, 0, 64, 67
2,134505, Control_c, 0, 64, 69
2,134518, Note_on_c, 0, 54, 85
2,134521, Control_c, 0, 64, 70
2,134538, Note_on_c, 0, 48, 0
2,134538, Note_on_c, 0, 63, 77
2,134542, Control_c, 0, 64, 66
2,134560, Control_c, 0, 64, 55
2,134579, Control_c, 0, 64, 16
2,134581, Note_on_c, 0, 67, 0
2,134597, Control_c, 0, 64, 0
2,134662, Note_on_c, 0, 48, 84
2,134671, Note_on_c, 0, 54, 0
2,134675, Control_c, 0, 64, 43
2,134695, Control_c, 0, 64, 60
2,134713, Control_c, 0, 64, 67
2,134737, Control_c, 0, 64, 75
2,134737, Note_on_c, 0, 63, 0
2,134753, Control_c, 0, 64, 86
2,134771, Control_c, 0, 64, 100
2,134792, Control_c, 0, 64, 127
2,134797, Note_on_c, 0, 72, 0
2,134854, Note_on_c, 0, 55, 86
2,134867, Control_c, 0, 64, 113
2,134872, Note_on_c, 0, 48, 0
2,134887, Control_c, 0, 64, 79
2,134896, Note_on_c, 0, 62, 78
2,134906, Control_c, 0, 64, 59
2,134925, Control_c, 0, 64, 13
2,134944, Control_c, 0, 64, 0
2,134989, Note_on_c, 0, 67, 71
2,134993, Note_on_c, 0, 62, 0
2,135020, Control_c, 0, 64, 43
2,135042, Control_c, 0, 64, 59
2,135061, Control_c, 0, 64, 64
2,135061, Note_on_c, 0, 69, 69
2,135071, Note_on_c, 0, 67, 0
2,135076, Control_c, 0, 64, 67
2,135096, Control_c, 0, 64, 70
2,135118, Control_c, 0, 64, 74
2,135118, Note_on_c, 0, 71, 79
2,135139, Control_c, 0, 64, 78
2,135155, Note_on_c, 0, 69, 0
2,135159, Control_c, 0, 64, 82
2,135177, Control_c, 0, 64, 81
2,135195, Control_c, 0, 64, 68
2,135204, Note_on_c, 0, 72, 91
2,135212, Control_c, 0, 64, 52
2,135217, Note_on_c, 0, 64, 83
2,135225, Note_on_c, 0, 71, 0
2,135232, Control_c, 0, 64, 11
2,135252, Control_c, 0, 64, 0
2,135290, Control_c, 0, 64, 41
2,135309, Control_c, 0, 64, 61
2,135314, Note_on_c, 0, 64, 0
2,135327, Control_c, 0, 64, 69
2,135339, Note_on_c, 0, 72, 0
2,135348, Control_c, 0, 64, 85
2,135357, Note_on_c, 0, 67, 72
2,135366, Control_c, 0, 64, 127
2,135415, Note_on_c, 0, 65, 13
2,135417, Note_on_c, 0, 67, 0
2,135471, Note_on_c, 0, 65, 0
2,135500, Control_c, 0, 64, 103
2,135521, Control_c, 0, 64, 66
2,135521, Note_on_c, 0, 74, 92
2,135526, Note_on_c, 0, 65, 76
2,135526, Note_on_c, 0, 71, 82
2,135543, Control_c, 0, 64, 41
2,135558, Control_c, 0, 64, 0
2,135576, Control_c, 0, 64, 17
2,135596, Control_c, 0, 64, 44
2,135619, Control_c, 0, 64, 64
2,135636, Control_c, 0, 64, 74
2,135651, Note_on_c, 0, 71, 0
2,135653, Control_c, 0, 64, 108
2,135657, Note_on_c, 0, 74, 0
2,135664, Note_on_c, 0, 67, 79
2,135675, Control_c, 0, 64, 127
2,135675, Note_on_c, 0, 65, 0
2,135718, Note_on_c, 0, 67, 0
2,135829, Control_c, 0, 64, 92
2,135829, Note_on_c, 0, 76, 89
2,135833, Note_on_c, 0, 72, 85
2,135835, Note_on_c, 0, 67, 76
2,135848, Control_c, 0, 64, 61
2,135868, Control_c, 0, 64, 32
2,135883, Control_c, 0, 64, 36
2,135906, Control_c, 0, 64, 54
2,135906, Note_on_c, 0, 76, 0
2,135910, Note_on_c, 0, 72, 0
2,135922, Note_on_c, 0, 71, 79
2,135927, Control_c, 0, 64, 66
2,135934, Note_on_c, 0, 67, 0
2,135942, Control_c, 0, 64, 79
2,135961, Control_c, 0, 64, 127
2,135992, Note_on_c, 0, 71, 0
2,135992, Note_on_c, 0, 72, 81
2,136038, Control_c, 0, 64, 120
2,136052, Note_on_c, 0, 74, 89
2,136059, Control_c, 0, 64, 95
2,136080, Control_c, 0, 64, 77
2,136088, Note_on_c, 0, 72, 0
2,136097, Control_c, 0, 64, 63
2,136117, Control_c, 0, 64, 49
2,136134, Control_c, 0, 64, 35
2,136148, Note_on_c, 0, 76, 95
2,136155, Control_c, 0, 64, 0
2,136167, Note_on_c, 0, 67, 84
2,136181, Note_on_c, 0, 74, 0
2,136249, Control_c, 0, 64, 17
2,136269, Control_c, 0, 64, 49
2,136287, Control_c, 0, 64, 60
2,136309, Control_c, 0, 64, 65
2,136326, Control_c, 0, 64, 69
2,136326, Note_on_c, 0, 72, 85
2,136348, Control_c, 0, 64, 79
2,136348, Note_on_c, 0, 67, 0
2,136348, Note_on_c, 0, 76, 0
2,136366, Control_c, 0, 64, 110
2,136370, Note_on_c, 0, 72, 0
2,136384, Control_c, 0, 64, 127
2,136527, Note_on_c, 0, 78, 96
2,136532, Note_on_c, 0, 69, 71
2,136538, Control_c, 0, 64, 103
2,136556, Control_c, 0, 64, 65
2,136576, Control_c, 0, 64, 35
2,136594, Control_c, 0, 64, 0
2,136652, Control_c, 0, 64, 38
2,136672, Control_c, 0, 64, 58
2,136690, Control_c, 0, 64, 65
2,136709, Control_c, 0, 64, 70
2,136731, Control_c, 0, 64, 77
2,136746, Note_on_c, 0, 69, 0
2,136751, Control_c, 0, 64, 86
2,136751, Note_on_c, 0, 72, 86
2,136766, Control_c, 0, 64, 104
2,136787, Control_c, 0, 64, 127
2,136819, Note_on_c, 0, 72, 0
2,137036, Control_c, 0, 64, 92
2,137056, Control_c, 0, 64, 71
2,137056, Note_on_c, 0, 78, 0
2,137074, Note_on_c, 0, 79, 88
2,137076, Control_c, 0, 64, 60
2,137092, Note_on_c, 0, 71, 76
2,137095, Control_c, 0, 64, 51
2,137112, Control_c, 0, 64, 46
2,137133, Control_c, 0, 64, 40
2,137153, Control_c, 0, 64, 35
2,137170, Control_c, 0, 64, 28
2,137190, Control_c, 0, 64, 23
2,137210, Control_c, 0, 64, 22
2,137266, Control_c, 0, 64, 19
2,137286, Control_c, 0, 64, 18
2,137306, Control_c, 0, 64, 17
2,137324, Control_c, 0, 64, 16
2,137344, Control_c, 0, 64, 15
2,137364, Control_c, 0, 64, 13
2,137441, Control_c, 0, 64, 14
2,137489, Note_on_c, 0, 74, 82
2,137498, Control_c, 0, 64, 15
2,137519, Control_c, 0, 64, 16
2,137537, Control_c, 0, 64, 17
2,137630, Control_c, 0, 64, 18
2,137767, Note_on_c, 0, 76, 85
2,137787, Note_on_c, 0, 74, 0
2,137824, Control_c, 0, 64, 19
2,137846, Note_on_c, 0, 71, 0
2,137862, Control_c, 0, 64, 20
2,138015, Note_on_c, 0, 72, 81
2,138341, Control_c, 0, 64, 21
2,138363, Control_c, 0, 64, 24
2,138381, Control_c, 0, 64, 30
2,138392, Note_on_c, 0, 69, 73
2,138401, Control_c, 0, 64, 36
2,138419, Control_c, 0, 64, 37
2,138461, Note_on_c, 0, 76, 0
2,138497, Control_c, 0, 64, 39
2,138515, Control_c, 0, 64, 41
2,138535, Control_c, 0, 64, 39
2,138553, Control_c, 0, 64, 37
2,138591, Control_c, 0, 64, 39
2,138612, Control_c, 0, 64, 43
2,138629, Control_c, 0, 64, 49
2,138649, Control_c, 0, 64, 54
2,138669, Control_c, 0, 64, 58
2,138689, Control_c, 0, 64, 60
2,138706, Control_c, 0, 64, 62
2,138727, Control_c, 0, 64, 64
2,138746, Control_c, 0, 64, 67
2,138768, Control_c, 0, 64, 72
2,138782, Note_on_c, 0, 79, 0
2,138786, Control_c, 0, 64, 84
2,138802, Control_c, 0, 64, 99
2,138823, Control_c, 0, 64, 127
2,138852, Note_on_c, 0, 78, 90
2,138890, Note_on_c, 0, 72, 0
2,139090, Note_on_c, 0, 69, 0
2,139672, Note_on_c, 0, 71, 61
2,139728, Note_on_c, 0, 78, 0
2,139755, Note_on_c, 0, 74, 72
2,139784, Control_c, 0, 64, 95
2,139803, Control_c, 0, 64, 67
2,139821, Control_c, 0, 64, 54
2,139832, Note_on_c, 0, 79, 81
2,139841, Control_c, 0, 64, 47
2,139859, Control_c, 0, 64, 45
2,139879, Control_c, 0, 64, 41
2,139896, Control_c, 0, 64, 39
2,139919, Control_c, 0, 64, 38
2,139938, Control_c, 0, 64, 36
2,139938, Note_on_c, 0, 79, 0
2,139942, Note_on_c, 0, 78, 83
2,139956, Control_c, 0, 64, 32
2,139973, Control_c, 0, 64, 29
2,139994, Control_c, 0, 64, 27
2,140012, Control_c, 0, 64, 25
2,140028, Note_on_c, 0, 78, 0
2,140033, Control_c, 0, 64, 22
2,140037, Note_on_c, 0, 79, 80
2,140051, Control_c, 0, 64, 18
2,140071, Control_c, 0, 64, 14
2,140092, Control_c, 0, 64, 12
2,140107, Control_c, 0, 64, 11
2,140127, Control_c, 0, 64, 0
2,140458, Control_c, 0, 64, 11
2,140476, Control_c, 0, 64, 28
2,140498, Control_c, 0, 64, 40
2,140518, Control_c, 0, 64, 49
2,140536, Control_c, 0, 64, 54
2,140553, Control_c, 0, 64, 56
2,140573, Control_c, 0, 64, 57
2,140593, Control_c, 0, 64, 59
2,140611, Control_c, 0, 64, 60
2,140632, Control_c, 0, 64, 61
2,140648, Control_c, 0, 64, 63
2,140668, Control_c, 0, 64, 64
2,140687, Control_c, 0, 64, 67
2,140707, Control_c, 0, 64, 72
2,140726, Control_c, 0, 64, 78
2,140744, Control_c, 0, 64, 85
2,140762, Control_c, 0, 64, 92
2,140782, Control_c, 0, 64, 102
2,140803, Control_c, 0, 64, 127
2,141626, Note_on_c, 0, 71, 0
2,141636, Note_on_c, 0, 43, 0
2,141644, Note_on_c, 0, 55, 0
2,141649, Note_on_c, 0, 79, 0
2,141653, Note_on_c, 0, 74, 0
2,141687, Control_c, 0, 64, 118
2,141705, Control_c, 0, 64, 80
2,141725, Control_c, 0, 64, 63
2,141746, Control_c, 0, 64, 50
2,141762, Control_c, 0, 64, 42
2,141782, Control_c, 0, 64, 38
2,141802, Control_c, 0, 64, 37
2,141820, Control_c, 0, 64, 36
2,141839, Control_c, 0, 64, 30
2,141859, Control_c, 0, 64, 13
2,141880, Control_c, 0, 64, 0
2,142262, Control_c, 0, 64, 11
2,142284, Control_c, 0, 64, 16
2,142299, Control_c, 0, 64, 17
2,142376, Control_c, 0, 64, 18
2,142397, Control_c, 0, 64, 20
2,142415, Control_c, 0, 64, 23
2,142434, Control_c, 0, 64, 26
2,142454, Control_c, 0, 64, 28
2,142472, Control_c, 0, 64, 29
2,142491, Control_c, 0, 64, 30
2,142510, Control_c, 0, 64, 33
2,142530, Control_c, 0, 64, 35
2,142551, Control_c, 0, 64, 36
2,142569, Control_c, 0, 64, 37
2,142608, Control_c, 0, 64, 38
2,142629, Control_c, 0, 64, 39
2,142648, Control_c, 0, 64, 40
2,142668, Control_c, 0, 64, 41
2,142686, Control_c, 0, 64, 42
2,142687, End_track
0, 0, End_of_file
