0, 0, Header, 1, 2, 384
1, 0, Start_track
1, 0, Tempo, 500000
1, 0, Time_signature, 4, 2, 24, 8
1, 1, End_track
2, 0, Start_track
2, 0, Title_t, "7.6.13 Group 2"
2, 0, Program_c, 0, 0
2, 0, Control_c, 0, 64, 0
2, 0, Control_c, 0, 66, 0
2, 0, Control_c, 0, 67, 0
2, 813, Note_on_c, 0, 55, 75
2, 817, Note_on_c, 0, 67, 75
2, 844, Note_on_c, 0, 55, 0
2, 877, Note_on_c, 0, 71, 78
2, 883, Note_on_c, 0, 67, 0
2, 943, Note_on_c, 0, 74, 81
2, 955, Note_on_c, 0, 71, 0
2, 1030, Note_on_c, 0, 74, 0
2, 1034, Note_on_c, 0, 79, 80
2, 1040, Note_on_c, 0, 43, 63
2, 1070, Note_on_c, 0, 43, 0
2, 1104, Note_on_c, 0, 74, 71
2, 1126, Note_on_c, 0, 79, 0
2, 1183, Note_on_c, 0, 74, 0
2, 1186, Note_on_c, 0, 71, 79
2, 1257, Note_on_c, 0, 71, 0
2, 1261, Note_on_c, 0, 74, 81
2, 1333, Note_on_c, 0, 71, 82
2, 1348, Note_on_c, 0, 74, 0
2, 1389, Note_on_c, 0, 71, 0
2, 1410, Note_on_c, 0, 67, 77
2, 1453, Note_on_c, 0, 67, 0
2, 1484, Note_on_c, 0, 55, 75
2, 1492, Note_on_c, 0, 71, 84
2, 1508, Note_on_c, 0, 55, 0
2, 1566, Note_on_c, 0, 67, 78
2, 1579, Note_on_c, 0, 71, 0
2, 1648, Note_on_c, 0, 62, 78
2, 1651, Note_on_c, 0, 67, 0
2, 1725, Note_on_c, 0, 55, 84
2, 1727, Note_on_c, 0, 62, 0
2, 1734, Note_on_c, 0, 64, 90
2, 1773, Note_on_c, 0, 55, 0
2, 1807, Note_on_c, 0, 64, 0
2, 1819, Note_on_c, 0, 67, 80
2, 1891, Note_on_c, 0, 72, 74
2, 1893, Note_on_c, 0, 67, 0
2, 1972, Note_on_c, 0, 72, 0
2, 1972, Note_on_c, 0, 76, 78
2, 1986, Note_on_c, 0, 43, 56
2, 2012, Note_on_c, 0, 43, 0
2, 2044, Note_on_c, 0, 72, 76
2, 2063, Note_on_c, 0, 76, 0
2, 2116, Note_on_c, 0, 72, 0
2, 2125, Note_on_c, 0, 67, 78
2, 2191, Note_on_c, 0, 67, 0
2, 2198, Note_on_c, 0, 72, 82
2, 2268, Note_on_c, 0, 72, 0
2, 2271, Note_on_c, 0, 67, 78
2, 2333, Note_on_c, 0, 67, 0
2, 2346, Note_on_c, 0, 64, 79
2, 2390, Note_on_c, 0, 64, 0
2, 2418, Note_on_c, 0, 55, 73
2, 2439, Note_on_c, 0, 55, 0
2, 2439, Note_on_c, 0, 67, 67
2, 2446, Note_on_c, 0, 69, 55
2, 2485, Note_on_c, 0, 69, 0
2, 2501, Note_on_c, 0, 64, 87
2, 2509, Note_on_c, 0, 67, 0
2, 2591, Note_on_c, 0, 60, 81
2, 2604, Note_on_c, 0, 64, 0
2, 2659, Note_on_c, 0, 60, 0
2, 2663, Note_on_c, 0, 55, 83
2, 2669, Note_on_c, 0, 57, 79
2, 2701, Note_on_c, 0, 55, 0
2, 2742, Note_on_c, 0, 57, 0
2, 2751, Note_on_c, 0, 60, 81
2, 2823, Note_on_c, 0, 60, 0
2, 2826, Note_on_c, 0, 66, 70
2, 2907, Note_on_c, 0, 43, 65
2, 2911, Note_on_c, 0, 69, 77
2, 2919, Note_on_c, 0, 66, 0
2, 2937, Note_on_c, 0, 43, 0
2, 2990, Note_on_c, 0, 66, 76
2, 3000, Note_on_c, 0, 69, 0
2, 3080, Note_on_c, 0, 66, 0
2, 3083, Note_on_c, 0, 60, 78
2, 3152, Note_on_c, 0, 60, 0
2, 3156, Note_on_c, 0, 66, 82
2, 3226, Note_on_c, 0, 60, 77
2, 3234, Note_on_c, 0, 66, 0
2, 3305, Note_on_c, 0, 60, 0
2, 3314, Note_on_c, 0, 57, 74
2, 3358, Note_on_c, 0, 57, 0
2, 3384, Note_on_c, 0, 55, 77
2, 3404, Note_on_c, 0, 60, 75
2, 3408, Note_on_c, 0, 55, 0
2, 3475, Note_on_c, 0, 57, 74
2, 3483, Note_on_c, 0, 60, 0
2, 3550, Note_on_c, 0, 57, 0
2, 3555, Note_on_c, 0, 54, 72
2, 3618, Note_on_c, 0, 54, 0
2, 3630, Note_on_c, 0, 55, 78
2, 3693, Note_on_c, 0, 55, 0
2, 3714, Note_on_c, 0, 59, 70
2, 3785, Note_on_c, 0, 62, 71
2, 3792, Note_on_c, 0, 59, 0
2, 3863, Note_on_c, 0, 43, 59
2, 3866, Note_on_c, 0, 62, 0
2, 3872, Note_on_c, 0, 67, 74
2, 3892, Note_on_c, 0, 43, 0
2, 3945, Note_on_c, 0, 62, 69
2, 3947, Note_on_c, 0, 67, 0
2, 4026, Note_on_c, 0, 59, 75
2, 4026, Note_on_c, 0, 62, 0
2, 4102, Note_on_c, 0, 59, 0
2, 4108, Note_on_c, 0, 62, 77
2, 4173, Note_on_c, 0, 59, 71
2, 4191, Note_on_c, 0, 62, 0
2, 4230, Note_on_c, 0, 59, 0
2, 4256, Note_on_c, 0, 55, 72
2, 4297, Note_on_c, 0, 55, 0
2, 4342, Note_on_c, 0, 59, 78
2, 4416, Note_on_c, 0, 55, 75
2, 4429, Note_on_c, 0, 59, 0
2, 4479, Note_on_c, 0, 55, 0
2, 4484, Note_on_c, 0, 52, 75
2, 4536, Note_on_c, 0, 52, 0
2, 4578, Note_on_c, 0, 55, 74
2, 4579, Note_on_c, 0, 57, 76
2, 4605, Note_on_c, 0, 55, 0
2, 4635, Note_on_c, 0, 57, 0
2, 4651, Note_on_c, 0, 61, 80
2, 4727, Note_on_c, 0, 64, 80
2, 4738, Note_on_c, 0, 61, 0
2, 4808, Note_on_c, 0, 43, 64
2, 4812, Note_on_c, 0, 64, 0
2, 4814, Note_on_c, 0, 69, 75
2, 4846, Note_on_c, 0, 43, 0
2, 4892, Note_on_c, 0, 69, 0
2, 4896, Note_on_c, 0, 64, 81
2, 4977, Note_on_c, 0, 61, 77
2, 4980, Note_on_c, 0, 64, 0
2, 5044, Note_on_c, 0, 61, 0
2, 5045, Note_on_c, 0, 64, 80
2, 5120, Note_on_c, 0, 61, 76
2, 5120, Note_on_c, 0, 64, 0
2, 5181, Note_on_c, 0, 61, 0
2, 5204, Note_on_c, 0, 57, 63
2, 5249, Note_on_c, 0, 57, 0
2, 5257, Note_on_c, 0, 55, 69
2, 5278, Note_on_c, 0, 61, 73
2, 5282, Note_on_c, 0, 55, 0
2, 5342, Note_on_c, 0, 61, 0
2, 5353, Note_on_c, 0, 57, 64
2, 5396, Note_on_c, 0, 57, 0
2, 5426, Note_on_c, 0, 52, 63
2, 5467, Note_on_c, 0, 52, 0
2, 5489, Note_on_c, 0, 54, 61
2, 5506, Note_on_c, 0, 62, 55
2, 5550, Note_on_c, 0, 62, 0
2, 5579, Note_on_c, 0, 54, 0
2, 5582, Note_on_c, 0, 57, 70
2, 5657, Note_on_c, 0, 61, 75
2, 5665, Note_on_c, 0, 57, 0
2, 5721, Note_on_c, 0, 61, 0
2, 5737, Note_on_c, 0, 62, 74
2, 5788, Note_on_c, 0, 62, 0
2, 5822, Note_on_c, 0, 57, 72
2, 5890, Note_on_c, 0, 54, 69
2, 5901, Note_on_c, 0, 57, 0
2, 5958, Note_on_c, 0, 54, 0
2, 5972, Note_on_c, 0, 57, 70
2, 6046, Note_on_c, 0, 57, 0
2, 6052, Note_on_c, 0, 54, 80
2, 6127, Note_on_c, 0, 50, 72
2, 6131, Note_on_c, 0, 54, 0
2, 6200, Note_on_c, 0, 50, 0
2, 6207, Note_on_c, 0, 54, 76
2, 6211, Note_on_c, 0, 62, 68
2, 6239, Note_on_c, 0, 62, 0
2, 6274, Note_on_c, 0, 54, 0
2, 6278, Note_on_c, 0, 50, 72
2, 6348, Note_on_c, 0, 50, 0
2, 6370, Note_on_c, 0, 47, 61
2, 6462, Note_on_c, 0, 47, 0
2, 6463, Note_on_c, 0, 62, 62
2, 6472, Note_on_c, 0, 52, 67
2, 6509, Note_on_c, 0, 52, 0
2, 6547, Note_on_c, 0, 61, 63
2, 6550, Note_on_c, 0, 62, 0
2, 6621, Note_on_c, 0, 61, 0
2, 6623, Note_on_c, 0, 62, 56
2, 6699, Note_on_c, 0, 62, 0
2, 6705, Note_on_c, 0, 64, 61
2, 6718, Note_on_c, 0, 40, 54
2, 6745, Note_on_c, 0, 40, 0
2, 6767, Note_on_c, 0, 61, 59
2, 6774, Note_on_c, 0, 64, 0
2, 6846, Note_on_c, 0, 62, 57
2, 6855, Note_on_c, 0, 61, 0
2, 6949, Note_on_c, 0, 62, 0
2, 6953, Note_on_c, 0, 66, 61
2, 7032, Note_on_c, 0, 66, 0
2, 7034, Note_on_c, 0, 61, 61
2, 7104, Note_on_c, 0, 62, 60
2, 7131, Note_on_c, 0, 61, 0
2, 7195, Note_on_c, 0, 62, 0
2, 7203, Note_on_c, 0, 67, 69
2, 7207, Note_on_c, 0, 52, 50
2, 7232, Note_on_c, 0, 52, 0
2, 7280, Note_on_c, 0, 61, 55
2, 7290, Note_on_c, 0, 67, 0
2, 7363, Note_on_c, 0, 61, 0
2, 7364, Note_on_c, 0, 62, 53
2, 7442, Note_on_c, 0, 62, 0
2, 7452, Note_on_c, 0, 69, 67
2, 7457, Note_on_c, 0, 49, 51
2, 7492, Note_on_c, 0, 49, 0
2, 7527, Note_on_c, 0, 69, 0
2, 7531, Note_on_c, 0, 61, 53
2, 7593, Note_on_c, 0, 61, 0
2, 7602, Note_on_c, 0, 62, 49
2, 7698, Note_on_c, 0, 62, 0
2, 7714, Note_on_c, 0, 45, 56
2, 7714, Note_on_c, 0, 71, 62
2, 7748, Note_on_c, 0, 45, 0
2, 7784, Note_on_c, 0, 71, 0
2, 7803, Note_on_c, 0, 61, 48
2, 7852, Note_on_c, 0, 61, 0
2, 7868, Note_on_c, 0, 62, 44
2, 7956, Note_on_c, 0, 62, 0
2, 7980, Note_on_c, 0, 69, 62
2, 7989, Note_on_c, 0, 47, 52
2, 8014, Note_on_c, 0, 47, 0
2, 8035, Note_on_c, 0, 69, 0
2, 8069, Note_on_c, 0, 61, 54
2, 8124, Note_on_c, 0, 61, 0
2, 8149, Note_on_c, 0, 62, 49
2, 8225, Note_on_c, 0, 62, 0
2, 8240, Note_on_c, 0, 49, 43
2, 8240, Note_on_c, 0, 67, 62
2, 8272, Note_on_c, 0, 49, 0
2, 8306, Note_on_c, 0, 67, 0
2, 8315, Note_on_c, 0, 61, 52
2, 8360, Note_on_c, 0, 61, 0
2, 8397, Note_on_c, 0, 62, 50
2, 8478, Note_on_c, 0, 62, 0
2, 8497, Note_on_c, 0, 66, 63
2, 8513, Note_on_c, 0, 50, 38
2, 8531, Note_on_c, 0, 66, 0
2, 8563, Note_on_c, 0, 50, 0
2, 8584, Note_on_c, 0, 61, 53
2, 8637, Note_on_c, 0, 62, 57
2, 8664, Note_on_c, 0, 61, 0
2, 8743, Note_on_c, 0, 62, 0
2, 8748, Note_on_c, 0, 67, 70
2, 8751, Note_on_c, 0, 52, 63
2, 8787, Note_on_c, 0, 67, 0
2, 8828, Note_on_c, 0, 52, 0
2, 8833, Note_on_c, 0, 61, 70
2, 8904, Note_on_c, 0, 61, 0
2, 8926, Note_on_c, 0, 62, 63
2, 9005, Note_on_c, 0, 62, 0
2, 9006, Note_on_c, 0, 69, 74
2, 9008, Note_on_c, 0, 54, 63
2, 9040, Note_on_c, 0, 69, 0
2, 9078, Note_on_c, 0, 54, 0
2, 9081, Note_on_c, 0, 61, 64
2, 9154, Note_on_c, 0, 61, 0
2, 9163, Note_on_c, 0, 62, 59
2, 9269, Note_on_c, 0, 55, 53
2, 9269, Note_on_c, 0, 71, 73
2, 9271, Note_on_c, 0, 62, 0
2, 9302, Note_on_c, 0, 71, 0
2, 9316, Note_on_c, 0, 55, 0
2, 9341, Note_on_c, 0, 61, 62
2, 9422, Note_on_c, 0, 61, 0
2, 9454, Note_on_c, 0, 62, 49
2, 9534, Note_on_c, 0, 54, 52
2, 9534, Note_on_c, 0, 69, 67
2, 9540, Note_on_c, 0, 62, 0
2, 9572, Note_on_c, 0, 69, 0
2, 9587, Note_on_c, 0, 54, 0
2, 9607, Note_on_c, 0, 61, 56
2, 9675, Note_on_c, 0, 61, 0
2, 9698, Note_on_c, 0, 62, 50
2, 9775, Note_on_c, 0, 62, 0
2, 9787, Note_on_c, 0, 52, 54
2, 9794, Note_on_c, 0, 67, 64
2, 9830, Note_on_c, 0, 67, 0
2, 9853, Note_on_c, 0, 52, 0
2, 9879, Note_on_c, 0, 61, 59
2, 9935, Note_on_c, 0, 61, 0
2, 9963, Note_on_c, 0, 62, 59
2, 10021, Note_on_c, 0, 62, 0
2, 10036, Note_on_c, 0, 66, 71
2, 10038, Note_on_c, 0, 50, 57
2, 10069, Note_on_c, 0, 50, 0
2, 10073, Note_on_c, 0, 66, 0
2, 10125, Note_on_c, 0, 61, 61
2, 10174, Note_on_c, 0, 61, 0
2, 10216, Note_on_c, 0, 62, 53
2, 10267, Note_on_c, 0, 62, 0
2, 10292, Note_on_c, 0, 54, 54
2, 10295, Note_on_c, 0, 69, 66
2, 10319, Note_on_c, 0, 69, 0
2, 10350, Note_on_c, 0, 54, 0
2, 10368, Note_on_c, 0, 61, 64
2, 10421, Note_on_c, 0, 61, 0
2, 10464, Note_on_c, 0, 62, 53
2, 10487, Note_on_c, 0, 62, 0
2, 10552, Note_on_c, 0, 68, 71
2, 10580, Note_on_c, 0, 47, 48
2, 10631, Note_on_c, 0, 47, 0
2, 10640, Note_on_c, 0, 68, 0
2, 10640, Note_on_c, 0, 71, 82
2, 10725, Note_on_c, 0, 74, 81
2, 10726, Note_on_c, 0, 71, 0
2, 10805, Note_on_c, 0, 77, 90
2, 10808, Note_on_c, 0, 59, 67
2, 10812, Note_on_c, 0, 74, 0
2, 10838, Note_on_c, 0, 59, 0
2, 10884, Note_on_c, 0, 74, 83
2, 10916, Note_on_c, 0, 77, 0
2, 10970, Note_on_c, 0, 74, 0
2, 10975, Note_on_c, 0, 71, 85
2, 11031, Note_on_c, 0, 71, 0
2, 11053, Note_on_c, 0, 74, 78
2, 11133, Note_on_c, 0, 71, 83
2, 11139, Note_on_c, 0, 74, 0
2, 11210, Note_on_c, 0, 71, 0
2, 11225, Note_on_c, 0, 68, 66
2, 11292, Note_on_c, 0, 68, 0
2, 11298, Note_on_c, 0, 57, 69
2, 11304, Note_on_c, 0, 71, 70
2, 11322, Note_on_c, 0, 57, 0
2, 11363, Note_on_c, 0, 71, 0
2, 11380, Note_on_c, 0, 68, 64
2, 11446, Note_on_c, 0, 68, 0
2, 11477, Note_on_c, 0, 64, 60
2, 11516, Note_on_c, 0, 64, 0
2, 11549, Note_on_c, 0, 62, 59
2, 11554, Note_on_c, 0, 56, 60
2, 11589, Note_on_c, 0, 56, 0
2, 11598, Note_on_c, 0, 62, 0
2, 11637, Note_on_c, 0, 65, 63
2, 11676, Note_on_c, 0, 65, 0
2, 11709, Note_on_c, 0, 68, 60
2, 11797, Note_on_c, 0, 68, 0
2, 11799, Note_on_c, 0, 44, 55
2, 11804, Note_on_c, 0, 71, 66
2, 11832, Note_on_c, 0, 44, 0
2, 11868, Note_on_c, 0, 71, 0
2, 11883, Note_on_c, 0, 68, 54
2, 11961, Note_on_c, 0, 68, 0
2, 11977, Note_on_c, 0, 65, 61
2, 12051, Note_on_c, 0, 65, 0
2, 12062, Note_on_c, 0, 68, 70
2, 12137, Note_on_c, 0, 65, 65
2, 12139, Note_on_c, 0, 68, 0
2, 12210, Note_on_c, 0, 65, 0
2, 12222, Note_on_c, 0, 62, 65
2, 12263, Note_on_c, 0, 62, 0
2, 12300, Note_on_c, 0, 56, 59
2, 12315, Note_on_c, 0, 65, 72
2, 12327, Note_on_c, 0, 56, 0
2, 12375, Note_on_c, 0, 62, 66
2, 12388, Note_on_c, 0, 65, 0
2, 12462, Note_on_c, 0, 59, 69
2, 12483, Note_on_c, 0, 62, 0
2, 12552, Note_on_c, 0, 59, 0
2, 12565, Note_on_c, 0, 60, 74
2, 12568, Note_on_c, 0, 57, 57
2, 12590, Note_on_c, 0, 60, 0
2, 12644, Note_on_c, 0, 57, 0
2, 12645, Note_on_c, 0, 60, 83
2, 12730, Note_on_c, 0, 64, 89
2, 12732, Note_on_c, 0, 60, 0
2, 12797, Note_on_c, 0, 64, 0
2, 12811, Note_on_c, 0, 69, 79
2, 12821, Note_on_c, 0, 76, 79
2, 12860, Note_on_c, 0, 76, 0
2, 12875, Note_on_c, 0, 69, 0
2, 12887, Note_on_c, 0, 64, 84
2, 12975, Note_on_c, 0, 60, 82
2, 12979, Note_on_c, 0, 64, 0
2, 13044, Note_on_c, 0, 60, 0
2, 13067, Note_on_c, 0, 64, 88
2, 13067, Note_on_c, 0, 72, 81
2, 13095, Note_on_c, 0, 72, 0
2, 13132, Note_on_c, 0, 64, 0
2, 13147, Note_on_c, 0, 60, 84
2, 13223, Note_on_c, 0, 57, 75
2, 13230, Note_on_c, 0, 60, 0
2, 13293, Note_on_c, 0, 57, 0
2, 13309, Note_on_c, 0, 69, 79
2, 13321, Note_on_c, 0, 60, 83
2, 13337, Note_on_c, 0, 69, 0
2, 13380, Note_on_c, 0, 60, 0
2, 13404, Note_on_c, 0, 57, 73
2, 13482, Note_on_c, 0, 57, 0
2, 13483, Note_on_c, 0, 52, 71
2, 13560, Note_on_c, 0, 64, 86
2, 13563, Note_on_c, 0, 52, 0
2, 13567, Note_on_c, 0, 48, 74
2, 13592, Note_on_c, 0, 64, 0
2, 13642, Note_on_c, 0, 48, 0
2, 13645, Note_on_c, 0, 52, 75
2, 13734, Note_on_c, 0, 57, 80
2, 13741, Note_on_c, 0, 52, 0
2, 13795, Note_on_c, 0, 57, 0
2, 13811, Note_on_c, 0, 76, 80
2, 13815, Note_on_c, 0, 60, 83
2, 13841, Note_on_c, 0, 76, 0
2, 13879, Note_on_c, 0, 60, 0
2, 13888, Note_on_c, 0, 57, 82
2, 13955, Note_on_c, 0, 52, 78
2, 13963, Note_on_c, 0, 57, 0
2, 14028, Note_on_c, 0, 52, 0
2, 14061, Note_on_c, 0, 72, 90
2, 14063, Note_on_c, 0, 57, 81
2, 14102, Note_on_c, 0, 72, 0
2, 14131, Note_on_c, 0, 57, 0
2, 14138, Note_on_c, 0, 52, 83
2, 14211, Note_on_c, 0, 48, 81
2, 14230, Note_on_c, 0, 52, 0
2, 14286, Note_on_c, 0, 48, 0
2, 14296, Note_on_c, 0, 52, 76
2, 14298, Note_on_c, 0, 69, 85
2, 14321, Note_on_c, 0, 69, 0
2, 14385, Note_on_c, 0, 48, 77
2, 14388, Note_on_c, 0, 52, 0
2, 14453, Note_on_c, 0, 45, 69
2, 14462, Note_on_c, 0, 48, 0
2, 14559, Note_on_c, 0, 42, 84
2, 14561, Note_on_c, 0, 45, 0
2, 14566, Note_on_c, 0, 75, 93
2, 14615, Note_on_c, 0, 42, 0
2, 14639, Note_on_c, 0, 78, 86
2, 14664, Note_on_c, 0, 75, 0
2, 14717, Note_on_c, 0, 81, 83
2, 14747, Note_on_c, 0, 78, 0
2, 14814, Note_on_c, 0, 84, 85
2, 14820, Note_on_c, 0, 54, 78
2, 14820, Note_on_c, 0, 81, 0
2, 14852, Note_on_c, 0, 54, 0
2, 14892, Note_on_c, 0, 81, 84
2, 14912, Note_on_c, 0, 84, 0
2, 14977, Note_on_c, 0, 78, 84
2, 14985, Note_on_c, 0, 81, 0
2, 15054, Note_on_c, 0, 78, 0
2, 15059, Note_on_c, 0, 81, 80
2, 15136, Note_on_c, 0, 81, 0
2, 15139, Note_on_c, 0, 78, 74
2, 15219, Note_on_c, 0, 78, 0
2, 15232, Note_on_c, 0, 75, 66
2, 15296, Note_on_c, 0, 75, 0
2, 15305, Note_on_c, 0, 52, 71
2, 15313, Note_on_c, 0, 78, 65
2, 15336, Note_on_c, 0, 52, 0
2, 15386, Note_on_c, 0, 78, 0
2, 15401, Note_on_c, 0, 75, 67
2, 15441, Note_on_c, 0, 75, 0
2, 15498, Note_on_c, 0, 71, 54
2, 15552, Note_on_c, 0, 71, 0
2, 15561, Note_on_c, 0, 51, 65
2, 15583, Note_on_c, 0, 69, 58
2, 15605, Note_on_c, 0, 51, 0
2, 15622, Note_on_c, 0, 69, 0
2, 15662, Note_on_c, 0, 72, 60
2, 15699, Note_on_c, 0, 72, 0
2, 15743, Note_on_c, 0, 75, 60
2, 15810, Note_on_c, 0, 75, 0
2, 15819, Note_on_c, 0, 78, 69
2, 15834, Note_on_c, 0, 39, 41
2, 15864, Note_on_c, 0, 39, 0
2, 15904, Note_on_c, 0, 78, 0
2, 15907, Note_on_c, 0, 75, 63
2, 15964, Note_on_c, 0, 75, 0
2, 15986, Note_on_c, 0, 72, 59
2, 16029, Note_on_c, 0, 72, 0
2, 16145, Note_on_c, 0, 72, 56
2, 16200, Note_on_c, 0, 72, 0
2, 16229, Note_on_c, 0, 69, 67
2, 16268, Note_on_c, 0, 69, 0
2, 16316, Note_on_c, 0, 51, 56
2, 16325, Note_on_c, 0, 72, 61
2, 16359, Note_on_c, 0, 51, 0
2, 16396, Note_on_c, 0, 69, 64
2, 16409, Note_on_c, 0, 72, 0
2, 16468, Note_on_c, 0, 69, 0
2, 16478, Note_on_c, 0, 66, 59
2, 16548, Note_on_c, 0, 66, 0
2, 16568, Note_on_c, 0, 67, 56
2, 16576, Note_on_c, 0, 52, 54
2, 16601, Note_on_c, 0, 67, 0
2, 16605, Note_on_c, 0, 52, 0
2, 16659, Note_on_c, 0, 63, 50
2, 16716, Note_on_c, 0, 63, 0
2, 16733, Note_on_c, 0, 64, 61
2, 16812, Note_on_c, 0, 64, 0
2, 16813, Note_on_c, 0, 69, 65
2, 16815, Note_on_c, 0, 54, 59
2, 16849, Note_on_c, 0, 69, 0
2, 16893, Note_on_c, 0, 54, 0
2, 16899, Note_on_c, 0, 63, 55
2, 16966, Note_on_c, 0, 63, 0
2, 16976, Note_on_c, 0, 64, 60
2, 17057, Note_on_c, 0, 64, 0
2, 17063, Note_on_c, 0, 71, 73
2, 17073, Note_on_c, 0, 55, 55
2, 17097, Note_on_c, 0, 71, 0
2, 17135, Note_on_c, 0, 55, 0
2, 17163, Note_on_c, 0, 63, 64
2, 17231, Note_on_c, 0, 63, 0
2, 17248, Note_on_c, 0, 64, 55
2, 17335, Note_on_c, 0, 72, 72
2, 17340, Note_on_c, 0, 57, 56
2, 17347, Note_on_c, 0, 64, 0
2, 17377, Note_on_c, 0, 72, 0
2, 17393, Note_on_c, 0, 57, 0
2, 17430, Note_on_c, 0, 63, 53
2, 17485, Note_on_c, 0, 63, 0
2, 17501, Note_on_c, 0, 64, 52
2, 17600, Note_on_c, 0, 64, 0
2, 17604, Note_on_c, 0, 55, 52
2, 17611, Note_on_c, 0, 71, 66
2, 17647, Note_on_c, 0, 71, 0
2, 17662, Note_on_c, 0, 55, 0
2, 17696, Note_on_c, 0, 63, 54
2, 17773, Note_on_c, 0, 63, 0
2, 17785, Note_on_c, 0, 64, 52
2, 17863, Note_on_c, 0, 64, 0
2, 17864, Note_on_c, 0, 54, 54
2, 17864, Note_on_c, 0, 69, 59
2, 17909, Note_on_c, 0, 69, 0
2, 17941, Note_on_c, 0, 54, 0
2, 17954, Note_on_c, 0, 63, 52
2, 18026, Note_on_c, 0, 63, 0
2, 18041, Note_on_c, 0, 64, 50
2, 18102, Note_on_c, 0, 64, 0
2, 18106, Note_on_c, 0, 67, 69
2, 18127, Note_on_c, 0, 52, 46
2, 18139, Note_on_c, 0, 67, 0
2, 18155, Note_on_c, 0, 52, 0
2, 18213, Note_on_c, 0, 63, 56
2, 18269, Note_on_c, 0, 63, 0
2, 18291, Note_on_c, 0, 64, 48
2, 18356, Note_on_c, 0, 71, 69
2, 18357, Note_on_c, 0, 64, 0
2, 18359, Note_on_c, 0, 55, 58
2, 18389, Note_on_c, 0, 71, 0
2, 18409, Note_on_c, 0, 55, 0
2, 18441, Note_on_c, 0, 63, 56
2, 18488, Note_on_c, 0, 63, 0
2, 18529, Note_on_c, 0, 64, 50
2, 18554, Note_on_c, 0, 64, 0
2, 18617, Note_on_c, 0, 49, 68
2, 18632, Note_on_c, 0, 69, 65
2, 18673, Note_on_c, 0, 49, 0
2, 18709, Note_on_c, 0, 69, 0
2, 18723, Note_on_c, 0, 68, 62
2, 18790, Note_on_c, 0, 68, 0
2, 18806, Note_on_c, 0, 69, 57
2, 18884, Note_on_c, 0, 69, 0
2, 18884, Note_on_c, 0, 71, 72
2, 18893, Note_on_c, 0, 50, 49
2, 18918, Note_on_c, 0, 50, 0
2, 18958, Note_on_c, 0, 71, 0
2, 18961, Note_on_c, 0, 68, 63
2, 19040, Note_on_c, 0, 68, 0
2, 19045, Note_on_c, 0, 69, 57
2, 19136, Note_on_c, 0, 69, 0
2, 19139, Note_on_c, 0, 73, 70
2, 19145, Note_on_c, 0, 52, 52
2, 19169, Note_on_c, 0, 52, 0
2, 19225, Note_on_c, 0, 73, 0
2, 19229, Note_on_c, 0, 68, 65
2, 19299, Note_on_c, 0, 68, 0
2, 19307, Note_on_c, 0, 69, 63
2, 19403, Note_on_c, 0, 69, 0
2, 19403, Note_on_c, 0, 74, 76
2, 19424, Note_on_c, 0, 54, 49
2, 19451, Note_on_c, 0, 54, 0
2, 19496, Note_on_c, 0, 68, 64
2, 19496, Note_on_c, 0, 74, 0
2, 19574, Note_on_c, 0, 69, 68
2, 19575, Note_on_c, 0, 68, 0
2, 19665, Note_on_c, 0, 49, 58
2, 19665, Note_on_c, 0, 76, 78
2, 19668, Note_on_c, 0, 69, 0
2, 19701, Note_on_c, 0, 49, 0
2, 19711, Note_on_c, 0, 73, 28
2, 19741, Note_on_c, 0, 73, 0
2, 19749, Note_on_c, 0, 68, 72
2, 19754, Note_on_c, 0, 76, 0
2, 19818, Note_on_c, 0, 68, 0
2, 19829, Note_on_c, 0, 69, 74
2, 19909, Note_on_c, 0, 69, 0
2, 19918, Note_on_c, 0, 78, 84
2, 19921, Note_on_c, 0, 47, 64
2, 19961, Note_on_c, 0, 47, 0
2, 20000, Note_on_c, 0, 68, 80
2, 20038, Note_on_c, 0, 78, 0
2, 20083, Note_on_c, 0, 68, 0
2, 20084, Note_on_c, 0, 69, 84
2, 20170, Note_on_c, 0, 69, 0
2, 20186, Note_on_c, 0, 79, 88
2, 20198, Note_on_c, 0, 45, 57
2, 20238, Note_on_c, 0, 45, 0
2, 20264, Note_on_c, 0, 76, 86
2, 20292, Note_on_c, 0, 79, 0
2, 20343, Note_on_c, 0, 73, 87
2, 20374, Note_on_c, 0, 76, 0
2, 20414, Note_on_c, 0, 73, 0
2, 20417, Note_on_c, 0, 69, 81
2, 20434, Note_on_c, 0, 49, 63
2, 20463, Note_on_c, 0, 49, 0
2, 20494, Note_on_c, 0, 73, 85
2, 20505, Note_on_c, 0, 69, 0
2, 20571, Note_on_c, 0, 76, 79
2, 20634, Note_on_c, 0, 73, 0
2, 20659, Note_on_c, 0, 78, 78
2, 20665, Note_on_c, 0, 50, 56
2, 20692, Note_on_c, 0, 76, 0
2, 20740, Control_c, 0, 64, 28
2, 20754, Control_c, 0, 64, 47
2, 20763, Note_on_c, 0, 54, 69
2, 20770, Control_c, 0, 64, 54
2, 20774, Note_on_c, 0, 50, 0
2, 20785, Control_c, 0, 64, 58
2, 20800, Control_c, 0, 64, 60
2, 20816, Control_c, 0, 64, 63
2, 20830, Control_c, 0, 64, 65
2, 20840, Note_on_c, 0, 57, 76
2, 20846, Control_c, 0, 64, 67
2, 20861, Control_c, 0, 64, 71
2, 20871, Note_on_c, 0, 54, 0
2, 20876, Control_c, 0, 64, 75
2, 20892, Control_c, 0, 64, 78
2, 20906, Control_c, 0, 64, 82
2, 20921, Control_c, 0, 64, 85
2, 20928, Note_on_c, 0, 57, 0
2, 20935, Note_on_c, 0, 78, 0
2, 20936, Note_on_c, 0, 62, 79
2, 20937, Control_c, 0, 64, 88
2, 20959, Control_c, 0, 64, 91
2, 20975, Control_c, 0, 64, 93
2, 20990, Control_c, 0, 64, 94
2, 21017, Note_on_c, 0, 57, 76
2, 21031, Note_on_c, 0, 62, 0
2, 21091, Note_on_c, 0, 54, 77
2, 21106, Note_on_c, 0, 57, 0
2, 21156, Control_c, 0, 64, 94
2, 21172, Control_c, 0, 64, 93
2, 21172, Note_on_c, 0, 54, 0
2, 21187, Control_c, 0, 64, 91
2, 21191, Note_on_c, 0, 81, 79
2, 21194, Note_on_c, 0, 50, 58
2, 21204, Control_c, 0, 64, 87
2, 21219, Control_c, 0, 64, 84
2, 21229, Note_on_c, 0, 50, 0
2, 21234, Control_c, 0, 64, 80
2, 21250, Control_c, 0, 64, 77
2, 21264, Control_c, 0, 64, 73
2, 21278, Note_on_c, 0, 78, 81
2, 21279, Control_c, 0, 64, 69
2, 21295, Control_c, 0, 64, 64
2, 21310, Control_c, 0, 64, 57
2, 21320, Note_on_c, 0, 81, 0
2, 21326, Control_c, 0, 64, 45
2, 21340, Control_c, 0, 64, 36
2, 21355, Control_c, 0, 64, 34
2, 21359, Note_on_c, 0, 74, 78
2, 21371, Control_c, 0, 64, 32
2, 21386, Control_c, 0, 64, 28
2, 21401, Control_c, 0, 64, 15
2, 21417, Control_c, 0, 64, 0
2, 21417, Note_on_c, 0, 78, 0
2, 21438, Note_on_c, 0, 72, 86
2, 21439, Note_on_c, 0, 74, 0
2, 21449, Note_on_c, 0, 62, 54
2, 21477, Note_on_c, 0, 62, 0
2, 21520, Note_on_c, 0, 74, 85
2, 21536, Note_on_c, 0, 72, 0
2, 21597, Note_on_c, 0, 78, 86
2, 21638, Note_on_c, 0, 74, 0
2, 21687, Note_on_c, 0, 81, 86
2, 21696, Note_on_c, 0, 50, 58
2, 21723, Note_on_c, 0, 78, 0
2, 21743, Control_c, 0, 64, 44
2, 21757, Control_c, 0, 64, 55
2, 21773, Control_c, 0, 64, 59
2, 21786, Note_on_c, 0, 50, 0
2, 21788, Control_c, 0, 64, 62
2, 21790, Note_on_c, 0, 55, 62
2, 21803, Control_c, 0, 64, 64
2, 21818, Control_c, 0, 64, 67
2, 21833, Control_c, 0, 64, 71
2, 21849, Control_c, 0, 64, 75
2, 21864, Control_c, 0, 64, 78
2, 21878, Control_c, 0, 64, 83
2, 21893, Note_on_c, 0, 59, 67
2, 21894, Control_c, 0, 64, 88
2, 21899, Note_on_c, 0, 55, 0
2, 21909, Control_c, 0, 64, 93
2, 21925, Control_c, 0, 64, 97
2, 21940, Control_c, 0, 64, 100
2, 21954, Control_c, 0, 64, 101
2, 21968, Note_on_c, 0, 79, 82
2, 21970, Control_c, 0, 64, 102
2, 21973, Note_on_c, 0, 59, 0
2, 21985, Control_c, 0, 64, 103
2, 21988, Note_on_c, 0, 62, 73
2, 21997, Note_on_c, 0, 81, 0
2, 22000, Control_c, 0, 64, 104
2, 22016, Control_c, 0, 64, 104
2, 22053, Note_on_c, 0, 79, 0
2, 22060, Note_on_c, 0, 62, 0
2, 22065, Note_on_c, 0, 59, 72
2, 22138, Note_on_c, 0, 55, 71
2, 22139, Note_on_c, 0, 59, 0
2, 22221, Note_on_c, 0, 55, 0
2, 22248, Note_on_c, 0, 79, 79
2, 22250, Note_on_c, 0, 50, 59
2, 22272, Note_on_c, 0, 50, 0
2, 22275, Control_c, 0, 64, 102
2, 22291, Control_c, 0, 64, 92
2, 22305, Control_c, 0, 64, 77
2, 22320, Control_c, 0, 64, 62
2, 22336, Control_c, 0, 64, 0
2, 22342, Note_on_c, 0, 76, 81
2, 22359, Note_on_c, 0, 79, 0
2, 22422, Note_on_c, 0, 73, 82
2, 22468, Note_on_c, 0, 76, 0
2, 22511, Note_on_c, 0, 69, 79
2, 22511, Note_on_c, 0, 73, 0
2, 22525, Note_on_c, 0, 62, 36
2, 22535, Note_on_c, 0, 62, 0
2, 22588, Note_on_c, 0, 73, 85
2, 22599, Note_on_c, 0, 69, 0
2, 22663, Note_on_c, 0, 76, 82
2, 22704, Note_on_c, 0, 73, 0
2, 22758, Note_on_c, 0, 50, 56
2, 22761, Note_on_c, 0, 79, 83
2, 22784, Control_c, 0, 64, 15
2, 22792, Note_on_c, 0, 76, 0
2, 22798, Control_c, 0, 64, 49
2, 22814, Control_c, 0, 64, 59
2, 22829, Control_c, 0, 64, 63
2, 22846, Control_c, 0, 64, 65
2, 22860, Note_on_c, 0, 50, 0
2, 22861, Control_c, 0, 64, 68
2, 22866, Note_on_c, 0, 57, 62
2, 22875, Control_c, 0, 64, 72
2, 22891, Control_c, 0, 64, 79
2, 22906, Control_c, 0, 64, 86
2, 22921, Control_c, 0, 64, 94
2, 22937, Control_c, 0, 64, 105
2, 22949, Note_on_c, 0, 61, 76
2, 22951, Control_c, 0, 64, 127
2, 22951, Note_on_c, 0, 57, 0
2, 23021, Note_on_c, 0, 61, 0
2, 23033, Note_on_c, 0, 62, 77
2, 23036, Note_on_c, 0, 78, 80
2, 23064, Note_on_c, 0, 79, 0
2, 23109, Note_on_c, 0, 78, 0
2, 23117, Note_on_c, 0, 62, 0
2, 23124, Note_on_c, 0, 57, 76
2, 23208, Note_on_c, 0, 54, 74
2, 23219, Note_on_c, 0, 57, 0
2, 23296, Note_on_c, 0, 78, 78
2, 23301, Note_on_c, 0, 54, 0
2, 23309, Control_c, 0, 64, 109
2, 23314, Note_on_c, 0, 50, 62
2, 23325, Control_c, 0, 64, 89
2, 23340, Control_c, 0, 64, 76
2, 23346, Note_on_c, 0, 50, 0
2, 23354, Control_c, 0, 64, 65
2, 23370, Control_c, 0, 64, 45
2, 23379, Note_on_c, 0, 74, 74
2, 23385, Control_c, 0, 64, 0
2, 23398, Note_on_c, 0, 78, 0
2, 23453, Note_on_c, 0, 71, 81
2, 23498, Note_on_c, 0, 74, 0
2, 23532, Note_on_c, 0, 62, 68
2, 23541, Note_on_c, 0, 67, 82
2, 23541, Note_on_c, 0, 71, 0
2, 23567, Note_on_c, 0, 62, 0
2, 23616, Note_on_c, 0, 71, 81
2, 23623, Note_on_c, 0, 67, 0
2, 23703, Note_on_c, 0, 74, 75
2, 23750, Note_on_c, 0, 71, 0
2, 23778, Note_on_c, 0, 50, 61
2, 23793, Note_on_c, 0, 78, 80
2, 23795, Control_c, 0, 64, 43
2, 23811, Control_c, 0, 64, 56
2, 23818, Note_on_c, 0, 74, 0
2, 23826, Control_c, 0, 64, 61
2, 23840, Control_c, 0, 64, 63
2, 23856, Control_c, 0, 64, 66
2, 23868, Note_on_c, 0, 50, 0
2, 23871, Control_c, 0, 64, 69
2, 23877, Note_on_c, 0, 52, 61
2, 23887, Control_c, 0, 64, 73
2, 23902, Control_c, 0, 64, 82
2, 23916, Control_c, 0, 64, 92
2, 23932, Control_c, 0, 64, 108
2, 23947, Control_c, 0, 64, 127
2, 23960, Note_on_c, 0, 52, 0
2, 23960, Note_on_c, 0, 55, 65
2, 24034, Note_on_c, 0, 55, 0
2, 24053, Note_on_c, 0, 59, 65
2, 24061, Note_on_c, 0, 76, 70
2, 24092, Note_on_c, 0, 78, 0
2, 24117, Note_on_c, 0, 59, 0
2, 24117, Note_on_c, 0, 76, 0
2, 24136, Note_on_c, 0, 55, 60
2, 24208, Note_on_c, 0, 55, 0
2, 24223, Note_on_c, 0, 52, 57
2, 24314, Note_on_c, 0, 52, 0
2, 24330, Note_on_c, 0, 76, 65
2, 24334, Control_c, 0, 64, 103
2, 24348, Note_on_c, 0, 50, 43
2, 24349, Control_c, 0, 64, 73
2, 24365, Control_c, 0, 64, 0
2, 24378, Note_on_c, 0, 50, 0
2, 24400, Note_on_c, 0, 76, 0
2, 24404, Note_on_c, 0, 73, 66
2, 24480, Note_on_c, 0, 69, 62
2, 24491, Note_on_c, 0, 73, 0
2, 24542, Note_on_c, 0, 69, 0
2, 24566, Note_on_c, 0, 67, 60
2, 24572, Note_on_c, 0, 62, 58
2, 24607, Note_on_c, 0, 62, 0
2, 24620, Note_on_c, 0, 67, 0
2, 24650, Note_on_c, 0, 69, 52
2, 24723, Note_on_c, 0, 69, 0
2, 24731, Note_on_c, 0, 73, 55
2, 24833, Note_on_c, 0, 50, 44
2, 24838, Note_on_c, 0, 76, 57
2, 24839, Note_on_c, 0, 73, 0
2, 24887, Note_on_c, 0, 50, 0
2, 24918, Note_on_c, 0, 54, 49
2, 24978, Note_on_c, 0, 54, 0
2, 24981, Control_c, 0, 64, 36
2, 24996, Control_c, 0, 64, 47
2, 25012, Control_c, 0, 64, 52
2, 25018, Note_on_c, 0, 57, 43
2, 25027, Control_c, 0, 64, 55
2, 25043, Control_c, 0, 64, 57
2, 25057, Control_c, 0, 64, 59
2, 25064, Note_on_c, 0, 57, 0
2, 25072, Control_c, 0, 64, 60
2, 25088, Control_c, 0, 64, 62
2, 25103, Control_c, 0, 64, 62
2, 25109, Note_on_c, 0, 62, 49
2, 25111, Note_on_c, 0, 74, 53
2, 25117, Control_c, 0, 64, 63
2, 25148, Control_c, 0, 64, 63
2, 25149, Note_on_c, 0, 76, 0
2, 25177, Note_on_c, 0, 62, 0
2, 25178, Control_c, 0, 64, 64
2, 25193, Note_on_c, 0, 57, 39
2, 25209, Control_c, 0, 64, 64
2, 25257, Note_on_c, 0, 57, 0
2, 25271, Note_on_c, 0, 54, 57
2, 25327, Note_on_c, 0, 54, 0
2, 25345, Note_on_c, 0, 74, 0
2, 25363, Note_on_c, 0, 57, 70
2, 25392, Control_c, 0, 64, 64
2, 25407, Control_c, 0, 64, 63
2, 25422, Control_c, 0, 64, 63
2, 25434, Note_on_c, 0, 57, 0
2, 25440, Note_on_c, 0, 54, 62
2, 25468, Control_c, 0, 64, 62
2, 25483, Control_c, 0, 64, 62
2, 25507, Note_on_c, 0, 54, 0
2, 25516, Note_on_c, 0, 50, 59
2, 25592, Note_on_c, 0, 50, 0
2, 25611, Note_on_c, 0, 74, 63
2, 25623, Note_on_c, 0, 54, 66
2, 25657, Note_on_c, 0, 74, 0
2, 25690, Note_on_c, 0, 54, 0
2, 25709, Note_on_c, 0, 50, 59
2, 25759, Note_on_c, 0, 50, 0
2, 25790, Note_on_c, 0, 48, 55
2, 25840, Control_c, 0, 64, 60
2, 25853, Note_on_c, 0, 48, 0
2, 25856, Control_c, 0, 64, 56
2, 25871, Control_c, 0, 64, 47
2, 25871, Note_on_c, 0, 47, 60
2, 25875, Note_on_c, 0, 74, 68
2, 25887, Control_c, 0, 64, 29
2, 25901, Control_c, 0, 64, 0
2, 25930, Note_on_c, 0, 47, 0
2, 25956, Note_on_c, 0, 72, 68
2, 25956, Note_on_c, 0, 74, 0
2, 25964, Note_on_c, 0, 50, 46
2, 26012, Note_on_c, 0, 50, 0
2, 26027, Note_on_c, 0, 54, 66
2, 26035, Note_on_c, 0, 72, 0
2, 26038, Note_on_c, 0, 71, 77
2, 26069, Note_on_c, 0, 71, 0
2, 26072, Note_on_c, 0, 54, 0
2, 26115, Note_on_c, 0, 55, 60
2, 26138, Note_on_c, 0, 71, 65
2, 26156, Note_on_c, 0, 55, 0
2, 26180, Note_on_c, 0, 71, 0
2, 26197, Note_on_c, 0, 69, 68
2, 26200, Note_on_c, 0, 50, 57
2, 26253, Note_on_c, 0, 69, 0
2, 26259, Note_on_c, 0, 50, 0
2, 26265, Note_on_c, 0, 47, 62
2, 26274, Note_on_c, 0, 67, 75
2, 26310, Note_on_c, 0, 67, 0
2, 26318, Note_on_c, 0, 47, 0
2, 26356, Note_on_c, 0, 50, 72
2, 26356, Note_on_c, 0, 67, 70
2, 26408, Note_on_c, 0, 50, 0
2, 26421, Note_on_c, 0, 67, 0
2, 26437, Note_on_c, 0, 47, 67
2, 26439, Note_on_c, 0, 71, 73
2, 26502, Note_on_c, 0, 47, 0
2, 26510, Note_on_c, 0, 43, 65
2, 26513, Note_on_c, 0, 71, 0
2, 26514, Note_on_c, 0, 74, 74
2, 26571, Note_on_c, 0, 43, 0
2, 26588, Note_on_c, 0, 74, 0
2, 26591, Note_on_c, 0, 77, 80
2, 26595, Note_on_c, 0, 47, 68
2, 26663, Note_on_c, 0, 47, 0
2, 26666, Note_on_c, 0, 43, 72
2, 26669, Note_on_c, 0, 77, 0
2, 26675, Note_on_c, 0, 76, 66
2, 26737, Note_on_c, 0, 43, 0
2, 26742, Note_on_c, 0, 74, 72
2, 26742, Note_on_c, 0, 76, 0
2, 26751, Note_on_c, 0, 41, 60
2, 26775, Note_on_c, 0, 74, 0
2, 26809, Note_on_c, 0, 41, 0
2, 26819, Note_on_c, 0, 40, 66
2, 26828, Note_on_c, 0, 74, 71
2, 26895, Note_on_c, 0, 40, 0
2, 26901, Note_on_c, 0, 43, 64
2, 26905, Note_on_c, 0, 74, 0
2, 26913, Note_on_c, 0, 76, 73
2, 26979, Note_on_c, 0, 43, 0
2, 26987, Note_on_c, 0, 76, 0
2, 26993, Note_on_c, 0, 77, 72
2, 27005, Note_on_c, 0, 47, 61
2, 27044, Note_on_c, 0, 47, 0
2, 27072, Note_on_c, 0, 48, 67
2, 27074, Note_on_c, 0, 76, 75
2, 27086, Note_on_c, 0, 77, 0
2, 27127, Note_on_c, 0, 48, 0
2, 27170, Note_on_c, 0, 52, 63
2, 27254, Note_on_c, 0, 55, 74
2, 27256, Note_on_c, 0, 52, 0
2, 27312, Note_on_c, 0, 76, 0
2, 27317, Note_on_c, 0, 55, 0
2, 27346, Note_on_c, 0, 60, 81
2, 27415, Note_on_c, 0, 60, 0
2, 27419, Note_on_c, 0, 55, 70
2, 27494, Note_on_c, 0, 55, 0
2, 27499, Note_on_c, 0, 52, 64
2, 27566, Note_on_c, 0, 52, 0
2, 27574, Note_on_c, 0, 76, 76
2, 27592, Note_on_c, 0, 55, 66
2, 27652, Note_on_c, 0, 76, 0
2, 27663, Note_on_c, 0, 55, 0
2, 27670, Note_on_c, 0, 52, 71
2, 27739, Note_on_c, 0, 52, 0
2, 27767, Note_on_c, 0, 50, 66
2, 27834, Note_on_c, 0, 50, 0
2, 27841, Note_on_c, 0, 49, 70
2, 27844, Note_on_c, 0, 76, 75
2, 27920, Note_on_c, 0, 74, 68
2, 27923, Note_on_c, 0, 49, 0
2, 27929, Note_on_c, 0, 76, 0
2, 27935, Note_on_c, 0, 52, 52
2, 27992, Note_on_c, 0, 52, 0
2, 27996, Note_on_c, 0, 73, 82
2, 27998, Note_on_c, 0, 55, 74
2, 28007, Note_on_c, 0, 74, 0
2, 28029, Note_on_c, 0, 73, 0
2, 28054, Note_on_c, 0, 55, 0
2, 28080, Note_on_c, 0, 57, 77
2, 28081, Note_on_c, 0, 73, 71
2, 28147, Note_on_c, 0, 57, 0
2, 28157, Note_on_c, 0, 71, 86
2, 28163, Note_on_c, 0, 52, 73
2, 28167, Note_on_c, 0, 73, 0
2, 28228, Note_on_c, 0, 69, 82
2, 28237, Note_on_c, 0, 49, 68
2, 28239, Note_on_c, 0, 52, 0
2, 28243, Note_on_c, 0, 71, 0
2, 28267, Note_on_c, 0, 69, 0
2, 28280, Note_on_c, 0, 49, 0
2, 28312, Note_on_c, 0, 52, 69
2, 28313, Note_on_c, 0, 69, 76
2, 28387, Note_on_c, 0, 52, 0
2, 28389, Note_on_c, 0, 49, 74
2, 28394, Note_on_c, 0, 69, 0
2, 28399, Note_on_c, 0, 73, 82
2, 28464, Note_on_c, 0, 49, 0
2, 28466, Note_on_c, 0, 45, 65
2, 28477, Note_on_c, 0, 76, 77
2, 28479, Note_on_c, 0, 73, 0
2, 28534, Note_on_c, 0, 45, 0
2, 28543, Note_on_c, 0, 49, 80
2, 28547, Note_on_c, 0, 76, 0
2, 28551, Note_on_c, 0, 79, 77
2, 28615, Note_on_c, 0, 45, 72
2, 28620, Note_on_c, 0, 49, 0
2, 28636, Note_on_c, 0, 78, 77
2, 28644, Note_on_c, 0, 79, 0
2, 28699, Note_on_c, 0, 45, 0
2, 28708, Note_on_c, 0, 43, 72
2, 28721, Note_on_c, 0, 76, 72
2, 28722, Note_on_c, 0, 78, 0
2, 28748, Note_on_c, 0, 76, 0
2, 28787, Note_on_c, 0, 42, 77
2, 28797, Note_on_c, 0, 43, 0
2, 28802, Note_on_c, 0, 76, 84
2, 28855, Note_on_c, 0, 45, 73
2, 28861, Note_on_c, 0, 42, 0
2, 28882, Note_on_c, 0, 78, 85
2, 28884, Note_on_c, 0, 76, 0
2, 28948, Note_on_c, 0, 49, 70
2, 28949, Note_on_c, 0, 45, 0
2, 28957, Note_on_c, 0, 79, 81
2, 28974, Note_on_c, 0, 78, 0
2, 29018, Note_on_c, 0, 49, 0
2, 29035, Note_on_c, 0, 50, 76
2, 29040, Note_on_c, 0, 78, 88
2, 29070, Note_on_c, 0, 79, 0
2, 29113, Note_on_c, 0, 50, 0
2, 29123, Note_on_c, 0, 54, 77
2, 29198, Note_on_c, 0, 54, 0
2, 29204, Note_on_c, 0, 57, 82
2, 29274, Note_on_c, 0, 57, 0
2, 29275, Note_on_c, 0, 78, 0
2, 29300, Note_on_c, 0, 62, 76
2, 29373, Note_on_c, 0, 62, 0
2, 29376, Note_on_c, 0, 57, 81
2, 29460, Note_on_c, 0, 54, 80
2, 29480, Note_on_c, 0, 57, 0
2, 29538, Note_on_c, 0, 54, 0
2, 29547, Note_on_c, 0, 81, 92
2, 29550, Note_on_c, 0, 57, 73
2, 29620, Note_on_c, 0, 81, 0
2, 29632, Note_on_c, 0, 54, 82
2, 29632, Note_on_c, 0, 57, 0
2, 29712, Note_on_c, 0, 50, 77
2, 29723, Note_on_c, 0, 54, 0
2, 29787, Note_on_c, 0, 50, 0
2, 29800, Note_on_c, 0, 54, 86
2, 29800, Note_on_c, 0, 81, 87
2, 29882, Note_on_c, 0, 79, 85
2, 29883, Note_on_c, 0, 50, 73
2, 29890, Note_on_c, 0, 54, 0
2, 29911, Note_on_c, 0, 81, 0
2, 29955, Note_on_c, 0, 45, 74
2, 29958, Note_on_c, 0, 78, 84
2, 29963, Note_on_c, 0, 50, 0
2, 29971, Note_on_c, 0, 79, 0
2, 29991, Note_on_c, 0, 78, 0
2, 29992, Note_on_c, 0, 45, 0
2, 30033, Note_on_c, 0, 50, 73
2, 30048, Note_on_c, 0, 78, 81
2, 30102, Note_on_c, 0, 78, 0
2, 30103, Note_on_c, 0, 45, 76
2, 30114, Note_on_c, 0, 50, 0
2, 30124, Note_on_c, 0, 76, 90
2, 30201, Note_on_c, 0, 42, 78
2, 30207, Note_on_c, 0, 74, 84
2, 30225, Note_on_c, 0, 76, 0
2, 30237, Note_on_c, 0, 45, 0
2, 30253, Note_on_c, 0, 74, 0
2, 30290, Note_on_c, 0, 74, 84
2, 30293, Note_on_c, 0, 38, 79
2, 30303, Note_on_c, 0, 42, 0
2, 30323, Note_on_c, 0, 38, 0
2, 30376, Note_on_c, 0, 78, 88
2, 30390, Note_on_c, 0, 74, 0
2, 30464, Note_on_c, 0, 81, 75
2, 30485, Note_on_c, 0, 78, 0
2, 30535, Note_on_c, 0, 50, 93
2, 30544, Note_on_c, 0, 84, 91
2, 30555, Note_on_c, 0, 81, 0
2, 30563, Note_on_c, 0, 50, 0
2, 30627, Note_on_c, 0, 83, 83
2, 30660, Note_on_c, 0, 84, 0
2, 30722, Note_on_c, 0, 81, 73
2, 30725, Note_on_c, 0, 83, 0
2, 30758, Note_on_c, 0, 81, 0
2, 30824, Note_on_c, 0, 43, 81
2, 30828, Note_on_c, 0, 81, 89
2, 30909, Note_on_c, 0, 83, 83
2, 30914, Note_on_c, 0, 81, 0
2, 31003, Note_on_c, 0, 84, 81
2, 31007, Note_on_c, 0, 83, 0
2, 31082, Note_on_c, 0, 83, 92
2, 31099, Note_on_c, 0, 84, 0
2, 31177, Note_on_c, 0, 43, 0
2, 31180, Note_on_c, 0, 47, 77
2, 31251, Note_on_c, 0, 50, 79
2, 31253, Note_on_c, 0, 47, 0
2, 31315, Note_on_c, 0, 50, 0
2, 31336, Note_on_c, 0, 55, 76
2, 31371, Note_on_c, 0, 55, 0
2, 31405, Note_on_c, 0, 81, 78
2, 31418, Note_on_c, 0, 57, 81
2, 31436, Note_on_c, 0, 83, 0
2, 31473, Note_on_c, 0, 81, 0
2, 31484, Note_on_c, 0, 79, 86
2, 31488, Note_on_c, 0, 57, 0
2, 31496, Note_on_c, 0, 59, 79
2, 31524, Note_on_c, 0, 59, 0
2, 31530, Note_on_c, 0, 79, 0
2, 31564, Note_on_c, 0, 77, 83
2, 31577, Note_on_c, 0, 59, 76
2, 31637, Note_on_c, 0, 76, 79
2, 31644, Note_on_c, 0, 60, 78
2, 31654, Note_on_c, 0, 59, 0
2, 31656, Note_on_c, 0, 77, 0
2, 31714, Note_on_c, 0, 74, 81
2, 31723, Note_on_c, 0, 60, 0
2, 31724, Note_on_c, 0, 62, 77
2, 31740, Note_on_c, 0, 76, 0
2, 31785, Note_on_c, 0, 62, 0
2, 31789, Note_on_c, 0, 74, 0
2, 31793, Note_on_c, 0, 72, 92
2, 31798, Note_on_c, 0, 64, 89
2, 31873, Note_on_c, 0, 72, 0
2, 31875, Note_on_c, 0, 76, 83
2, 31913, Note_on_c, 0, 64, 0
2, 31955, Note_on_c, 0, 76, 0
2, 31958, Note_on_c, 0, 79, 80
2, 32036, Note_on_c, 0, 60, 78
2, 32036, Note_on_c, 0, 79, 0
2, 32037, Note_on_c, 0, 81, 81
2, 32097, Note_on_c, 0, 60, 0
2, 32106, Note_on_c, 0, 57, 62
2, 32118, Note_on_c, 0, 78, 82
2, 32143, Note_on_c, 0, 81, 0
2, 32165, Note_on_c, 0, 57, 0
2, 32200, Note_on_c, 0, 74, 71
2, 32206, Note_on_c, 0, 78, 0
2, 32256, Note_on_c, 0, 62, 72
2, 32273, Note_on_c, 0, 74, 0
2, 32276, Note_on_c, 0, 71, 81
2, 32349, Note_on_c, 0, 74, 74
2, 32351, Note_on_c, 0, 71, 0
2, 32355, Note_on_c, 0, 62, 0
2, 32425, Note_on_c, 0, 78, 75
2, 32444, Note_on_c, 0, 74, 0
2, 32520, Note_on_c, 0, 79, 81
2, 32523, Note_on_c, 0, 59, 71
2, 32540, Note_on_c, 0, 78, 0
2, 32596, Note_on_c, 0, 59, 0
2, 32598, Note_on_c, 0, 76, 77
2, 32600, Note_on_c, 0, 55, 63
2, 32606, Note_on_c, 0, 79, 0
2, 32645, Note_on_c, 0, 55, 0
2, 32657, Note_on_c, 0, 52, 62
2, 32674, Note_on_c, 0, 72, 75
2, 32704, Note_on_c, 0, 76, 0
2, 32733, Note_on_c, 0, 52, 0
2, 32750, Note_on_c, 0, 72, 0
2, 32751, Note_on_c, 0, 60, 72
2, 32756, Note_on_c, 0, 69, 73
2, 32821, Note_on_c, 0, 69, 0
2, 32825, Note_on_c, 0, 72, 76
2, 32835, Note_on_c, 0, 60, 0
2, 32911, Note_on_c, 0, 72, 0
2, 32913, Note_on_c, 0, 76, 73
2, 33002, Note_on_c, 0, 57, 69
2, 33004, Note_on_c, 0, 78, 80
2, 33026, Note_on_c, 0, 76, 0
2, 33073, Note_on_c, 0, 57, 0
2, 33075, Note_on_c, 0, 74, 73
2, 33088, Note_on_c, 0, 54, 59
2, 33092, Note_on_c, 0, 78, 0
2, 33138, Note_on_c, 0, 54, 0
2, 33152, Note_on_c, 0, 50, 53
2, 33160, Note_on_c, 0, 71, 75
2, 33197, Note_on_c, 0, 74, 0
2, 33240, Note_on_c, 0, 50, 0
2, 33248, Note_on_c, 0, 71, 0
2, 33253, Note_on_c, 0, 59, 62
2, 33259, Note_on_c, 0, 67, 73
2, 33322, Note_on_c, 0, 67, 0
2, 33328, Note_on_c, 0, 71, 72
2, 33339, Note_on_c, 0, 59, 0
2, 33412, Note_on_c, 0, 71, 0
2, 33413, Note_on_c, 0, 74, 70
2, 33486, Note_on_c, 0, 55, 68
2, 33495, Note_on_c, 0, 76, 79
2, 33497, Note_on_c, 0, 74, 0
2, 33556, Note_on_c, 0, 55, 0
2, 33567, Note_on_c, 0, 76, 0
2, 33574, Note_on_c, 0, 52, 54
2, 33576, Note_on_c, 0, 72, 74
2, 33613, Note_on_c, 0, 52, 0
2, 33626, Note_on_c, 0, 48, 53
2, 33646, Note_on_c, 0, 69, 71
2, 33652, Note_on_c, 0, 72, 0
2, 33702, Note_on_c, 0, 48, 0
2, 33718, Note_on_c, 0, 69, 0
2, 33726, Note_on_c, 0, 57, 61
2, 33728, Note_on_c, 0, 66, 72
2, 33796, Note_on_c, 0, 66, 0
2, 33800, Note_on_c, 0, 69, 67
2, 33813, Note_on_c, 0, 57, 0
2, 33882, Note_on_c, 0, 69, 0
2, 33886, Note_on_c, 0, 72, 66
2, 33964, Note_on_c, 0, 54, 60
2, 33968, Note_on_c, 0, 74, 72
2, 33980, Note_on_c, 0, 72, 0
2, 34011, Note_on_c, 0, 54, 0
2, 34044, Note_on_c, 0, 50, 54
2, 34051, Note_on_c, 0, 74, 0
2, 34057, Note_on_c, 0, 71, 66
2, 34089, Note_on_c, 0, 50, 0
2, 34104, Note_on_c, 0, 47, 55
2, 34139, Note_on_c, 0, 67, 62
2, 34149, Note_on_c, 0, 71, 0
2, 34186, Note_on_c, 0, 47, 0
2, 34203, Note_on_c, 0, 67, 0
2, 34212, Note_on_c, 0, 55, 59
2, 34219, Note_on_c, 0, 64, 58
2, 34272, Note_on_c, 0, 55, 0
2, 34279, Note_on_c, 0, 64, 0
2, 34298, Note_on_c, 0, 67, 64
2, 34364, Note_on_c, 0, 67, 0
2, 34376, Note_on_c, 0, 71, 72
2, 34458, Note_on_c, 0, 52, 59
2, 34459, Note_on_c, 0, 71, 0
2, 34462, Note_on_c, 0, 72, 70
2, 34512, Note_on_c, 0, 52, 0
2, 34526, Note_on_c, 0, 69, 66
2, 34526, Note_on_c, 0, 72, 0
2, 34529, Note_on_c, 0, 48, 59
2, 34576, Note_on_c, 0, 48, 0
2, 34604, Note_on_c, 0, 45, 58
2, 34611, Note_on_c, 0, 66, 67
2, 34614, Note_on_c, 0, 69, 0
2, 34677, Note_on_c, 0, 66, 0
2, 34689, Note_on_c, 0, 54, 60
2, 34693, Note_on_c, 0, 62, 62
2, 34709, Note_on_c, 0, 45, 0
2, 34753, Note_on_c, 0, 62, 0
2, 34756, Note_on_c, 0, 54, 0
2, 34777, Note_on_c, 0, 66, 64
2, 34848, Note_on_c, 0, 66, 0
2, 34858, Note_on_c, 0, 69, 60
2, 34940, Note_on_c, 0, 50, 75
2, 34943, Note_on_c, 0, 71, 69
2, 34949, Note_on_c, 0, 69, 0
2, 35015, Note_on_c, 0, 50, 0
2, 35029, Note_on_c, 0, 67, 73
2, 35032, Note_on_c, 0, 47, 74
2, 35037, Note_on_c, 0, 71, 0
2, 35103, Note_on_c, 0, 47, 0
2, 35108, Note_on_c, 0, 43, 71
2, 35114, Note_on_c, 0, 64, 80
2, 35148, Note_on_c, 0, 67, 0
2, 35180, Note_on_c, 0, 64, 0
2, 35181, Note_on_c, 0, 43, 0
2, 35187, Note_on_c, 0, 60, 88
2, 35189, Note_on_c, 0, 52, 76
2, 35249, Note_on_c, 0, 52, 0
2, 35264, Note_on_c, 0, 48, 76
2, 35266, Note_on_c, 0, 64, 89
2, 35267, Note_on_c, 0, 60, 0
2, 35337, Note_on_c, 0, 48, 0
2, 35340, Note_on_c, 0, 67, 83
2, 35342, Note_on_c, 0, 45, 74
2, 35345, Note_on_c, 0, 64, 0
2, 35420, Note_on_c, 0, 69, 83
2, 35430, Note_on_c, 0, 67, 0
2, 35431, Note_on_c, 0, 54, 85
2, 35432, Note_on_c, 0, 45, 0
2, 35497, Note_on_c, 0, 50, 76
2, 35500, Note_on_c, 0, 54, 0
2, 35507, Note_on_c, 0, 66, 84
2, 35523, Note_on_c, 0, 69, 0
2, 35580, Note_on_c, 0, 47, 66
2, 35592, Note_on_c, 0, 62, 82
2, 35606, Note_on_c, 0, 50, 0
2, 35613, Note_on_c, 0, 66, 0
2, 35669, Note_on_c, 0, 55, 83
2, 35674, Note_on_c, 0, 47, 0
2, 35678, Note_on_c, 0, 59, 86
2, 35679, Note_on_c, 0, 62, 0
2, 35715, Note_on_c, 0, 55, 0
2, 35765, Note_on_c, 0, 62, 87
2, 35773, Note_on_c, 0, 59, 0
2, 35844, Note_on_c, 0, 66, 78
2, 35856, Note_on_c, 0, 62, 0
2, 35932, Note_on_c, 0, 52, 77
2, 35933, Note_on_c, 0, 67, 83
2, 35969, Note_on_c, 0, 52, 0
2, 35971, Note_on_c, 0, 66, 0
2, 36028, Note_on_c, 0, 64, 91
2, 36046, Note_on_c, 0, 67, 0
2, 36128, Note_on_c, 0, 60, 87
2, 36168, Note_on_c, 0, 64, 0
2, 36242, Note_on_c, 0, 60, 0
2, 36247, Note_on_c, 0, 57, 85
2, 36252, Note_on_c, 0, 48, 77
2, 36309, Note_on_c, 0, 48, 0
2, 36381, Note_on_c, 0, 60, 91
2, 36393, Note_on_c, 0, 57, 0
2, 36499, Note_on_c, 0, 64, 89
2, 36514, Note_on_c, 0, 60, 0
2, 36665, Note_on_c, 0, 66, 84
2, 36676, Note_on_c, 0, 50, 76
2, 36688, Note_on_c, 0, 64, 0
2, 36756, Note_on_c, 0, 50, 0
2, 36875, Note_on_c, 0, 62, 87
2, 36911, Note_on_c, 0, 66, 0
2, 37119, Note_on_c, 0, 60, 90
2, 37119, Note_on_c, 0, 62, 0
2, 37616, Note_on_c, 0, 59, 81
2, 37631, Note_on_c, 0, 62, 68
2, 37633, Note_on_c, 0, 43, 53
2, 37634, Note_on_c, 0, 60, 0
2, 37636, Note_on_c, 0, 67, 72
2, 39727, Note_on_c, 0, 59, 0
2, 39741, Note_on_c, 0, 43, 0
2, 39748, Note_on_c, 0, 67, 0
2, 39752, Note_on_c, 0, 62, 0
2, 41056, Note_on_c, 0, 67, 65
2, 41095, Note_on_c, 0, 67, 0
2, 41326, Note_on_c, 0, 69, 59
2, 41419, Note_on_c, 0, 69, 0
2, 41422, Note_on_c, 0, 67, 64
2, 41525, Note_on_c, 0, 67, 0
2, 41532, Note_on_c, 0, 66, 70
2, 41633, Note_on_c, 0, 66, 0
2, 41648, Note_on_c, 0, 67, 69
2, 41785, Note_on_c, 0, 69, 70
2, 41787, Note_on_c, 0, 67, 0
2, 41822, Note_on_c, 0, 69, 0
2, 42027, Note_on_c, 0, 71, 68
2, 42131, Note_on_c, 0, 69, 62
2, 42133, Note_on_c, 0, 71, 0
2, 42259, Note_on_c, 0, 69, 0
2, 42260, Note_on_c, 0, 67, 68
2, 42366, Note_on_c, 0, 67, 0
2, 42373, Note_on_c, 0, 69, 64
2, 42497, Note_on_c, 0, 71, 72
2, 42505, Note_on_c, 0, 69, 0
2, 42536, Note_on_c, 0, 71, 0
2, 42733, Note_on_c, 0, 69, 66
2, 42766, Note_on_c, 0, 69, 0
2, 42968, Note_on_c, 0, 67, 70
2, 43004, Note_on_c, 0, 67, 0
2, 43234, Note_on_c, 0, 62, 61
2, 43266, Note_on_c, 0, 62, 0
2, 43506, Note_on_c, 0, 72, 73
2, 44017, Note_on_c, 0, 71, 65
2, 44038, Note_on_c, 0, 72, 0
2, 44063, Note_on_c, 0, 71, 0
2, 44259, Note_on_c, 0, 69, 73
2, 44304, Note_on_c, 0, 69, 0
2, 44506, Note_on_c, 0, 67, 75
2, 44546, Note_on_c, 0, 67, 0
2, 44772, Note_on_c, 0, 66, 75
2, 44813, Note_on_c, 0, 66, 0
2, 45093, Note_on_c, 0, 76, 74
2, 45653, Note_on_c, 0, 74, 56
2, 45682, Note_on_c, 0, 76, 0
2, 45717, Note_on_c, 0, 74, 0
2, 45911, Note_on_c, 0, 76, 55
2, 46020, Note_on_c, 0, 74, 58
2, 46069, Note_on_c, 0, 76, 0
2, 46136, Note_on_c, 0, 72, 66
2, 46152, Note_on_c, 0, 74, 0
2, 46222, Note_on_c, 0, 72, 0
2, 46242, Note_on_c, 0, 71, 57
2, 46366, Note_on_c, 0, 71, 0
2, 46381, Note_on_c, 0, 69, 56
2, 46428, Note_on_c, 0, 69, 0
2, 46622, Note_on_c, 0, 72, 60
2, 46720, Note_on_c, 0, 72, 0
2, 46725, Note_on_c, 0, 71, 59
2, 46848, Note_on_c, 0, 69, 65
2, 46858, Note_on_c, 0, 71, 0
2, 46927, Note_on_c, 0, 69, 0
2, 46969, Note_on_c, 0, 67, 52
2, 47068, Note_on_c, 0, 67, 0
2, 47093, Note_on_c, 0, 62, 67
2, 47101, Note_on_c, 0, 66, 58
2, 47141, Note_on_c, 0, 62, 0
2, 47142, Note_on_c, 0, 66, 0
2, 47354, Note_on_c, 0, 64, 66
2, 47360, Note_on_c, 0, 67, 58
2, 47400, Note_on_c, 0, 67, 0
2, 47463, Note_on_c, 0, 62, 68
2, 47480, Note_on_c, 0, 64, 0
2, 47578, Note_on_c, 0, 62, 0
2, 47582, Note_on_c, 0, 61, 73
2, 47596, Note_on_c, 0, 69, 60
2, 47646, Note_on_c, 0, 69, 0
2, 47701, Note_on_c, 0, 62, 71
2, 47707, Note_on_c, 0, 61, 0
2, 47834, Note_on_c, 0, 64, 77
2, 47836, Note_on_c, 0, 62, 0
2, 47837, Note_on_c, 0, 67, 61
2, 47884, Note_on_c, 0, 67, 0
2, 47900, Note_on_c, 0, 64, 0
2, 48074, Note_on_c, 0, 69, 59
2, 48077, Note_on_c, 0, 66, 71
2, 48114, Note_on_c, 0, 69, 0
2, 48184, Note_on_c, 0, 66, 0
2, 48189, Note_on_c, 0, 64, 73
2, 48300, Note_on_c, 0, 64, 0
2, 48301, Note_on_c, 0, 62, 73
2, 48307, Note_on_c, 0, 71, 74
2, 48349, Note_on_c, 0, 71, 0
2, 48414, Note_on_c, 0, 64, 78
2, 48421, Note_on_c, 0, 62, 0
2, 48536, Note_on_c, 0, 66, 81
2, 48536, Note_on_c, 0, 69, 69
2, 48551, Note_on_c, 0, 64, 0
2, 48581, Note_on_c, 0, 69, 0
2, 48603, Note_on_c, 0, 66, 0
2, 48793, Note_on_c, 0, 71, 68
2, 48795, Note_on_c, 0, 64, 80
2, 48834, Note_on_c, 0, 64, 0
2, 48887, Note_on_c, 0, 73, 73
2, 48893, Note_on_c, 0, 71, 0
2, 49017, Note_on_c, 0, 74, 72
2, 49023, Note_on_c, 0, 62, 75
2, 49029, Note_on_c, 0, 73, 0
2, 49079, Note_on_c, 0, 62, 0
2, 49135, Note_on_c, 0, 71, 64
2, 49135, Note_on_c, 0, 74, 0
2, 49264, Note_on_c, 0, 57, 68
2, 49265, Note_on_c, 0, 71, 0
2, 49269, Note_on_c, 0, 73, 69
2, 49312, Note_on_c, 0, 57, 0
2, 49389, Note_on_c, 0, 73, 0
2, 49402, Note_on_c, 0, 71, 62
2, 49517, Note_on_c, 0, 71, 0
2, 49542, Note_on_c, 0, 67, 77
2, 49544, Note_on_c, 0, 73, 60
2, 49670, Note_on_c, 0, 74, 58
2, 49701, Note_on_c, 0, 73, 0
2, 49791, Note_on_c, 0, 74, 0
2, 49795, Note_on_c, 0, 76, 55
2, 49878, Note_on_c, 0, 76, 0
2, 49891, Note_on_c, 0, 73, 60
2, 49994, Note_on_c, 0, 73, 0
2, 50009, Note_on_c, 0, 74, 64
2, 50011, Note_on_c, 0, 66, 77
2, 50016, Note_on_c, 0, 67, 0
2, 50082, Note_on_c, 0, 66, 0
2, 50112, Note_on_c, 0, 74, 0
2, 50123, Note_on_c, 0, 73, 65
2, 50242, Note_on_c, 0, 73, 0
2, 50249, Note_on_c, 0, 74, 65
2, 50267, Note_on_c, 0, 64, 81
2, 50312, Note_on_c, 0, 64, 0
2, 50377, Note_on_c, 0, 74, 0
2, 50380, Note_on_c, 0, 76, 71
2, 50505, Note_on_c, 0, 62, 74
2, 50505, Note_on_c, 0, 76, 0
2, 50505, Note_on_c, 0, 78, 73
2, 50549, Note_on_c, 0, 62, 0
2, 50612, Note_on_c, 0, 78, 0
2, 50624, Note_on_c, 0, 74, 66
2, 50747, Note_on_c, 0, 74, 0
2, 50753, Note_on_c, 0, 61, 76
2, 50760, Note_on_c, 0, 76, 70
2, 50796, Note_on_c, 0, 61, 0
2, 50883, Note_on_c, 0, 76, 0
2, 50904, Note_on_c, 0, 74, 51
2, 51028, Note_on_c, 0, 71, 80
2, 51040, Note_on_c, 0, 76, 65
2, 51045, Note_on_c, 0, 74, 0
2, 51155, Note_on_c, 0, 78, 61
2, 51159, Note_on_c, 0, 76, 0
2, 51261, Note_on_c, 0, 79, 63
2, 51274, Note_on_c, 0, 78, 0
2, 51349, Note_on_c, 0, 79, 0
2, 51375, Note_on_c, 0, 76, 55
2, 51494, Note_on_c, 0, 71, 0
2, 51511, Note_on_c, 0, 69, 43
2, 51514, Note_on_c, 0, 78, 56
2, 51564, Note_on_c, 0, 69, 0
2, 51587, Note_on_c, 0, 76, 0
2, 51624, Note_on_c, 0, 78, 0
2, 51774, Note_on_c, 0, 71, 67
2, 51774, Note_on_c, 0, 79, 69
2, 51841, Note_on_c, 0, 71, 0
2, 51875, Note_on_c, 0, 69, 67
2, 51883, Note_on_c, 0, 78, 70
2, 51908, Note_on_c, 0, 79, 0
2, 51985, Note_on_c, 0, 69, 0
2, 51999, Note_on_c, 0, 76, 73
2, 52000, Note_on_c, 0, 67, 66
2, 52031, Note_on_c, 0, 78, 0
2, 52088, Note_on_c, 0, 67, 0
2, 52095, Note_on_c, 0, 76, 0
2, 52104, Note_on_c, 0, 74, 70
2, 52110, Note_on_c, 0, 66, 54
2, 52202, Note_on_c, 0, 66, 0
2, 52229, Note_on_c, 0, 79, 76
2, 52237, Note_on_c, 0, 64, 53
2, 52243, Note_on_c, 0, 74, 0
2, 52275, Note_on_c, 0, 64, 0
2, 52495, Note_on_c, 0, 67, 62
2, 52589, Note_on_c, 0, 67, 0
2, 52592, Note_on_c, 0, 66, 70
2, 52680, Note_on_c, 0, 66, 0
2, 52711, Note_on_c, 0, 64, 68
2, 52800, Note_on_c, 0, 64, 0
2, 52832, Note_on_c, 0, 62, 55
2, 52933, Note_on_c, 0, 62, 0
2, 52960, Note_on_c, 0, 61, 53
2, 52993, Note_on_c, 0, 61, 0
2, 53076, Note_on_c, 0, 78, 56
2, 53119, Note_on_c, 0, 79, 0
2, 53185, Note_on_c, 0, 78, 0
2, 53192, Note_on_c, 0, 67, 54
2, 53193, Note_on_c, 0, 76, 56
2, 53229, Note_on_c, 0, 67, 0
2, 53281, Note_on_c, 0, 76, 0
2, 53316, Note_on_c, 0, 79, 46
2, 53411, Note_on_c, 0, 79, 0
2, 53424, Note_on_c, 0, 66, 52
2, 53431, Note_on_c, 0, 74, 57
2, 53446, Note_on_c, 0, 66, 0
2, 53486, Note_on_c, 0, 74, 0
2, 53551, Note_on_c, 0, 79, 50
2, 53647, Note_on_c, 0, 79, 0
2, 53662, Note_on_c, 0, 64, 58
2, 53666, Note_on_c, 0, 73, 61
2, 53694, Note_on_c, 0, 64, 0
2, 53740, Note_on_c, 0, 73, 0
2, 53777, Note_on_c, 0, 79, 57
2, 53876, Note_on_c, 0, 79, 0
2, 53896, Note_on_c, 0, 71, 65
2, 53901, Note_on_c, 0, 62, 49
2, 53925, Note_on_c, 0, 62, 0
2, 53951, Note_on_c, 0, 71, 0
2, 54021, Note_on_c, 0, 79, 55
2, 54094, Note_on_c, 0, 79, 0
2, 54129, Note_on_c, 0, 61, 58
2, 54140, Note_on_c, 0, 69, 57
2, 54160, Note_on_c, 0, 61, 0
2, 54190, Note_on_c, 0, 69, 0
2, 54239, Note_on_c, 0, 79, 52
2, 54347, Note_on_c, 0, 79, 0
2, 54358, Note_on_c, 0, 78, 53
2, 54367, Note_on_c, 0, 62, 45
2, 54406, Note_on_c, 0, 78, 0
2, 54414, Note_on_c, 0, 62, 0
2, 54489, Note_on_c, 0, 64, 43
2, 54573, Note_on_c, 0, 64, 0
2, 54588, Note_on_c, 0, 66, 52
2, 54602, Note_on_c, 0, 74, 62
2, 54639, Note_on_c, 0, 74, 0
2, 54672, Note_on_c, 0, 66, 0
2, 54716, Note_on_c, 0, 62, 53
2, 54820, Note_on_c, 0, 62, 0
2, 54844, Note_on_c, 0, 76, 70
2, 54856, Note_on_c, 0, 67, 54
2, 54877, Note_on_c, 0, 76, 0
2, 54925, Note_on_c, 0, 67, 0
2, 54959, Note_on_c, 0, 62, 58
2, 55051, Note_on_c, 0, 62, 0
2, 55078, Note_on_c, 0, 78, 68
2, 55082, Note_on_c, 0, 69, 63
2, 55109, Note_on_c, 0, 78, 0
2, 55178, Note_on_c, 0, 69, 0
2, 55187, Note_on_c, 0, 62, 64
2, 55299, Note_on_c, 0, 62, 0
2, 55314, Note_on_c, 0, 71, 77
2, 55314, Note_on_c, 0, 79, 67
2, 55353, Note_on_c, 0, 79, 0
2, 55430, Note_on_c, 0, 62, 71
2, 55439, Note_on_c, 0, 71, 0
2, 55546, Note_on_c, 0, 62, 0
2, 55563, Note_on_c, 0, 72, 71
2, 55568, Note_on_c, 0, 81, 72
2, 55617, Note_on_c, 0, 72, 0
2, 55678, Note_on_c, 0, 62, 72
2, 55805, Note_on_c, 0, 55, 71
2, 55813, Note_on_c, 0, 71, 68
2, 55822, Note_on_c, 0, 62, 0
2, 55946, Note_on_c, 0, 55, 0
2, 56054, Note_on_c, 0, 74, 60
2, 56069, Note_on_c, 0, 57, 73
2, 56097, Note_on_c, 0, 74, 0
2, 56173, Note_on_c, 0, 55, 69
2, 56197, Note_on_c, 0, 57, 0
2, 56202, Note_on_c, 0, 81, 0
2, 56287, Note_on_c, 0, 55, 0
2, 56293, Note_on_c, 0, 54, 73
2, 56311, Note_on_c, 0, 71, 0
2, 56311, Note_on_c, 0, 79, 75
2, 56408, Note_on_c, 0, 55, 79
2, 56426, Note_on_c, 0, 54, 0
2, 56538, Note_on_c, 0, 57, 73
2, 56547, Note_on_c, 0, 72, 68
2, 56548, Note_on_c, 0, 55, 0
2, 56614, Note_on_c, 0, 79, 0
2, 56635, Note_on_c, 0, 57, 0
2, 56797, Note_on_c, 0, 59, 71
2, 56800, Note_on_c, 0, 78, 66
2, 56868, Note_on_c, 0, 78, 0
2, 56910, Note_on_c, 0, 57, 73
2, 56919, Note_on_c, 0, 59, 0
2, 57025, Note_on_c, 0, 55, 76
2, 57027, Note_on_c, 0, 57, 0
2, 57027, Note_on_c, 0, 76, 70
2, 57072, Note_on_c, 0, 76, 0
2, 57139, Note_on_c, 0, 57, 81
2, 57147, Note_on_c, 0, 55, 0
2, 57258, Note_on_c, 0, 59, 82
2, 57262, Note_on_c, 0, 57, 0
2, 57268, Note_on_c, 0, 74, 68
2, 57278, Note_on_c, 0, 72, 0
2, 57315, Note_on_c, 0, 59, 0
2, 57328, Note_on_c, 0, 74, 0
2, 57508, Note_on_c, 0, 66, 72
2, 57509, Note_on_c, 0, 57, 75
2, 57514, Note_on_c, 0, 72, 67
2, 57542, Note_on_c, 0, 66, 0
2, 57551, Note_on_c, 0, 72, 0
2, 57555, Note_on_c, 0, 57, 0
2, 57751, Note_on_c, 0, 55, 76
2, 57757, Note_on_c, 0, 71, 77
2, 57763, Note_on_c, 0, 67, 64
2, 57819, Note_on_c, 0, 55, 0
2, 57839, Note_on_c, 0, 71, 0
2, 58014, Note_on_c, 0, 69, 73
2, 58019, Note_on_c, 0, 50, 65
2, 58052, Note_on_c, 0, 67, 0
2, 58073, Note_on_c, 0, 50, 0
2, 58275, Note_on_c, 0, 60, 83
2, 58279, Note_on_c, 0, 66, 65
2, 58295, Note_on_c, 0, 69, 0
2, 58393, Note_on_c, 0, 67, 66
2, 58399, Note_on_c, 0, 66, 0
2, 58515, Note_on_c, 0, 67, 0
2, 58515, Note_on_c, 0, 69, 66
2, 58619, Note_on_c, 0, 66, 61
2, 58632, Note_on_c, 0, 69, 0
2, 58729, Note_on_c, 0, 66, 0
2, 58746, Note_on_c, 0, 67, 70
2, 58747, Note_on_c, 0, 59, 73
2, 58747, Note_on_c, 0, 60, 0
2, 58796, Note_on_c, 0, 59, 0
2, 58855, Note_on_c, 0, 66, 73
2, 58871, Note_on_c, 0, 67, 0
2, 58976, Note_on_c, 0, 66, 0
2, 58982, Note_on_c, 0, 57, 72
2, 58983, Note_on_c, 0, 67, 79
2, 59024, Note_on_c, 0, 57, 0
2, 59092, Note_on_c, 0, 69, 77
2, 59093, Note_on_c, 0, 67, 0
2, 59205, Note_on_c, 0, 55, 76
2, 59212, Note_on_c, 0, 69, 0
2, 59214, Note_on_c, 0, 71, 81
2, 59214, Note_on_c, 0, 74, 76
2, 59252, Note_on_c, 0, 55, 0
2, 59313, Note_on_c, 0, 71, 0
2, 59337, Note_on_c, 0, 67, 72
2, 59452, Note_on_c, 0, 67, 0
2, 59457, Note_on_c, 0, 54, 76
2, 59464, Note_on_c, 0, 69, 74
2, 59490, Note_on_c, 0, 54, 0
2, 59563, Note_on_c, 0, 69, 0
2, 59578, Note_on_c, 0, 67, 70
2, 59694, Note_on_c, 0, 67, 0
2, 59706, Note_on_c, 0, 64, 81
2, 59713, Note_on_c, 0, 69, 73
2, 59719, Note_on_c, 0, 72, 70
2, 59736, Note_on_c, 0, 74, 0
2, 59794, Note_on_c, 0, 72, 0
2, 59815, Note_on_c, 0, 69, 0
2, 59831, Note_on_c, 0, 71, 78
2, 59930, Note_on_c, 0, 71, 0
2, 59956, Note_on_c, 0, 81, 73
2, 59966, Note_on_c, 0, 72, 68
2, 60022, Note_on_c, 0, 72, 0
2, 60070, Note_on_c, 0, 69, 64
2, 60202, Note_on_c, 0, 69, 0
2, 60205, Note_on_c, 0, 71, 60
2, 60218, Note_on_c, 0, 64, 0
2, 60222, Note_on_c, 0, 62, 49
2, 60280, Note_on_c, 0, 62, 0
2, 60289, Note_on_c, 0, 71, 0
2, 60292, Note_on_c, 0, 81, 0
2, 60457, Note_on_c, 0, 72, 72
2, 60466, Note_on_c, 0, 64, 68
2, 60471, Note_on_c, 0, 79, 66
2, 60551, Note_on_c, 0, 72, 0
2, 60569, Note_on_c, 0, 71, 79
2, 60576, Note_on_c, 0, 62, 71
2, 60582, Note_on_c, 0, 64, 0
2, 60648, Note_on_c, 0, 62, 0
2, 60680, Note_on_c, 0, 60, 75
2, 60694, Note_on_c, 0, 71, 0
2, 60697, Note_on_c, 0, 69, 81
2, 60779, Note_on_c, 0, 69, 0
2, 60784, Note_on_c, 0, 60, 0
2, 60796, Note_on_c, 0, 59, 64
2, 60798, Note_on_c, 0, 67, 77
2, 60901, Note_on_c, 0, 67, 0
2, 60918, Note_on_c, 0, 57, 59
2, 60918, Note_on_c, 0, 72, 71
2, 60919, Note_on_c, 0, 59, 0
2, 60961, Note_on_c, 0, 57, 0
2, 60970, Note_on_c, 0, 79, 0
2, 61167, Note_on_c, 0, 81, 71
2, 61180, Note_on_c, 0, 60, 68
2, 61279, Note_on_c, 0, 79, 76
2, 61288, Note_on_c, 0, 59, 68
2, 61290, Note_on_c, 0, 81, 0
2, 61306, Note_on_c, 0, 60, 0
2, 61366, Note_on_c, 0, 59, 0
2, 61398, Note_on_c, 0, 57, 73
2, 61400, Note_on_c, 0, 78, 77
2, 61443, Note_on_c, 0, 79, 0
2, 61508, Note_on_c, 0, 57, 0
2, 61515, Note_on_c, 0, 55, 71
2, 61516, Note_on_c, 0, 76, 75
2, 61527, Note_on_c, 0, 78, 0
2, 61559, Note_on_c, 0, 76, 0
2, 61633, Note_on_c, 0, 54, 77
2, 61636, Note_on_c, 0, 74, 76
2, 61642, Note_on_c, 0, 72, 0
2, 61663, Note_on_c, 0, 55, 0
2, 61759, Note_on_c, 0, 71, 73
2, 61860, Note_on_c, 0, 71, 0
2, 61875, Note_on_c, 0, 69, 69
2, 61881, Note_on_c, 0, 54, 0
2, 61956, Note_on_c, 0, 69, 0
2, 61987, Note_on_c, 0, 72, 65
2, 62077, Note_on_c, 0, 72, 0
2, 62114, Note_on_c, 0, 67, 61
2, 62120, Note_on_c, 0, 52, 63
2, 62191, Note_on_c, 0, 52, 0
2, 62206, Note_on_c, 0, 67, 0
2, 62227, Note_on_c, 0, 72, 61
2, 62348, Note_on_c, 0, 72, 0
2, 62363, Note_on_c, 0, 66, 71
2, 62367, Note_on_c, 0, 50, 72
2, 62481, Note_on_c, 0, 72, 68
2, 62483, Note_on_c, 0, 66, 0
2, 62485, Note_on_c, 0, 52, 75
2, 62486, Note_on_c, 0, 50, 0
2, 62584, Note_on_c, 0, 52, 0
2, 62587, Note_on_c, 0, 72, 0
2, 62599, Note_on_c, 0, 50, 80
2, 62605, Note_on_c, 0, 64, 77
2, 62695, Note_on_c, 0, 64, 0
2, 62706, Note_on_c, 0, 50, 0
2, 62711, Note_on_c, 0, 72, 65
2, 62713, Note_on_c, 0, 48, 67
2, 62791, Note_on_c, 0, 72, 0
2, 62810, Note_on_c, 0, 48, 0
2, 62826, Note_on_c, 0, 47, 57
2, 62828, Note_on_c, 0, 62, 55
2, 62910, Note_on_c, 0, 62, 0
2, 62914, Note_on_c, 0, 47, 0
2, 62930, Note_on_c, 0, 72, 62
2, 62948, Note_on_c, 0, 45, 57
2, 62999, Note_on_c, 0, 74, 0
2, 63028, Note_on_c, 0, 45, 0
2, 63048, Note_on_c, 0, 72, 0
2, 63060, Note_on_c, 0, 71, 60
2, 63073, Note_on_c, 0, 43, 42
2, 63101, Note_on_c, 0, 71, 0
2, 63125, Note_on_c, 0, 43, 0
2, 63159, Note_on_c, 0, 45, 58
2, 63226, Note_on_c, 0, 45, 0
2, 63280, Note_on_c, 0, 47, 44
2, 63297, Note_on_c, 0, 74, 57
2, 63306, Note_on_c, 0, 65, 55
2, 63324, Note_on_c, 0, 47, 0
2, 63334, Note_on_c, 0, 74, 0
2, 63337, Note_on_c, 0, 65, 0
2, 63382, Note_on_c, 0, 43, 41
2, 63467, Note_on_c, 0, 43, 0
2, 63513, Note_on_c, 0, 48, 52
2, 63519, Note_on_c, 0, 72, 65
2, 63535, Note_on_c, 0, 64, 48
2, 63550, Note_on_c, 0, 72, 0
2, 63559, Note_on_c, 0, 64, 0
2, 63578, Note_on_c, 0, 48, 0
2, 63626, Note_on_c, 0, 43, 40
2, 63723, Note_on_c, 0, 43, 0
2, 63748, Note_on_c, 0, 71, 69
2, 63754, Note_on_c, 0, 50, 55
2, 63760, Note_on_c, 0, 62, 52
2, 63783, Note_on_c, 0, 71, 0
2, 63784, Note_on_c, 0, 62, 0
2, 63827, Note_on_c, 0, 50, 0
2, 63863, Note_on_c, 0, 43, 48
2, 63945, Note_on_c, 0, 43, 0
2, 63987, Note_on_c, 0, 69, 57
2, 63993, Note_on_c, 0, 52, 54
2, 63994, Note_on_c, 0, 60, 54
2, 64016, Note_on_c, 0, 69, 0
2, 64019, Note_on_c, 0, 60, 0
2, 64072, Note_on_c, 0, 52, 0
2, 64100, Note_on_c, 0, 43, 49
2, 64187, Note_on_c, 0, 43, 0
2, 64217, Note_on_c, 0, 67, 70
2, 64222, Note_on_c, 0, 53, 60
2, 64229, Note_on_c, 0, 59, 38
2, 64246, Note_on_c, 0, 59, 0
2, 64246, Note_on_c, 0, 67, 0
2, 64275, Note_on_c, 0, 53, 0
2, 64318, Note_on_c, 0, 43, 55
2, 64422, Note_on_c, 0, 43, 0
2, 64438, Note_on_c, 0, 52, 54
2, 64459, Note_on_c, 0, 72, 73
2, 64554, Note_on_c, 0, 74, 79
2, 64561, Note_on_c, 0, 52, 0
2, 64573, Note_on_c, 0, 50, 62
2, 64589, Note_on_c, 0, 72, 0
2, 64671, Note_on_c, 0, 76, 82
2, 64673, Note_on_c, 0, 50, 0
2, 64677, Note_on_c, 0, 74, 0
2, 64684, Note_on_c, 0, 48, 57
2, 64746, Note_on_c, 0, 48, 0
2, 64799, Note_on_c, 0, 52, 57
2, 64901, Note_on_c, 0, 52, 0
2, 64911, Note_on_c, 0, 67, 71
2, 64914, Note_on_c, 0, 47, 57
2, 64934, Note_on_c, 0, 67, 0
2, 64957, Note_on_c, 0, 47, 0
2, 65027, Note_on_c, 0, 52, 46
2, 65123, Note_on_c, 0, 52, 0
2, 65131, Note_on_c, 0, 66, 73
2, 65139, Note_on_c, 0, 45, 62
2, 65140, Note_on_c, 0, 76, 0
2, 65193, Note_on_c, 0, 45, 0
2, 65245, Note_on_c, 0, 74, 65
2, 65248, Note_on_c, 0, 52, 54
2, 65352, Note_on_c, 0, 52, 0
2, 65364, Note_on_c, 0, 72, 76
2, 65367, Note_on_c, 0, 43, 53
2, 65409, Note_on_c, 0, 66, 0
2, 65429, Note_on_c, 0, 43, 0
2, 65444, Note_on_c, 0, 74, 0
2, 65477, Note_on_c, 0, 71, 78
2, 65482, Note_on_c, 0, 52, 49
2, 65509, Note_on_c, 0, 72, 0
2, 65597, Note_on_c, 0, 52, 0
2, 65600, Note_on_c, 0, 42, 58
2, 65607, Note_on_c, 0, 69, 79
2, 65653, Note_on_c, 0, 71, 0
2, 65670, Note_on_c, 0, 42, 0
2, 65715, Note_on_c, 0, 69, 0
2, 65716, Note_on_c, 0, 72, 79
2, 65717, Note_on_c, 0, 52, 63
2, 65812, Note_on_c, 0, 52, 0
2, 65831, Note_on_c, 0, 50, 63
2, 65839, Note_on_c, 0, 71, 73
2, 65855, Note_on_c, 0, 72, 0
2, 65930, Note_on_c, 0, 50, 0
2, 65937, Note_on_c, 0, 48, 58
2, 65945, Note_on_c, 0, 72, 77
2, 65951, Note_on_c, 0, 71, 0
2, 66031, Note_on_c, 0, 48, 0
2, 66056, Note_on_c, 0, 47, 62
2, 66062, Note_on_c, 0, 72, 0
2, 66063, Note_on_c, 0, 74, 80
2, 66111, Note_on_c, 0, 47, 0
2, 66187, Note_on_c, 0, 50, 39
2, 66290, Note_on_c, 0, 50, 0
2, 66300, Note_on_c, 0, 66, 72
2, 66301, Note_on_c, 0, 45, 60
2, 66327, Note_on_c, 0, 66, 0
2, 66353, Note_on_c, 0, 45, 0
2, 66434, Note_on_c, 0, 50, 31
2, 66517, Note_on_c, 0, 50, 0
2, 66521, Note_on_c, 0, 74, 0
2, 66529, Note_on_c, 0, 43, 59
2, 66530, Note_on_c, 0, 64, 74
2, 66581, Note_on_c, 0, 43, 0
2, 66635, Note_on_c, 0, 72, 72
2, 66640, Note_on_c, 0, 50, 55
2, 66743, Note_on_c, 0, 50, 0
2, 66749, Note_on_c, 0, 42, 61
2, 66749, Note_on_c, 0, 71, 79
2, 66774, Note_on_c, 0, 72, 0
2, 66826, Note_on_c, 0, 42, 0
2, 66865, Note_on_c, 0, 50, 61
2, 66866, Note_on_c, 0, 69, 77
2, 66886, Note_on_c, 0, 71, 0
2, 66957, Note_on_c, 0, 50, 0
2, 66985, Note_on_c, 0, 40, 51
2, 66990, Note_on_c, 0, 67, 79
2, 67037, Note_on_c, 0, 69, 0
2, 67051, Note_on_c, 0, 40, 0
2, 67092, Note_on_c, 0, 50, 62
2, 67102, Note_on_c, 0, 71, 78
2, 67103, Note_on_c, 0, 67, 0
2, 67199, Note_on_c, 0, 50, 0
2, 67208, Note_on_c, 0, 48, 64
2, 67220, Note_on_c, 0, 69, 76
2, 67226, Note_on_c, 0, 71, 0
2, 67276, Note_on_c, 0, 64, 0
2, 67317, Note_on_c, 0, 48, 0
2, 67319, Note_on_c, 0, 47, 61
2, 67323, Note_on_c, 0, 71, 86
2, 67335, Note_on_c, 0, 69, 0
2, 67422, Note_on_c, 0, 47, 0
2, 67439, Note_on_c, 0, 72, 83
2, 67440, Note_on_c, 0, 71, 0
2, 67446, Note_on_c, 0, 45, 66
2, 67514, Note_on_c, 0, 45, 0
2, 67559, Note_on_c, 0, 48, 62
2, 67662, Note_on_c, 0, 48, 0
2, 67668, Note_on_c, 0, 64, 80
2, 67677, Note_on_c, 0, 43, 59
2, 67694, Note_on_c, 0, 64, 0
2, 67724, Note_on_c, 0, 43, 0
2, 67786, Note_on_c, 0, 48, 56
2, 67895, Note_on_c, 0, 48, 0
2, 67895, Note_on_c, 0, 72, 0
2, 67905, Note_on_c, 0, 62, 83
2, 67911, Note_on_c, 0, 42, 60
2, 67980, Note_on_c, 0, 42, 0
2, 68009, Note_on_c, 0, 71, 77
2, 68023, Note_on_c, 0, 48, 59
2, 68118, Note_on_c, 0, 48, 0
2, 68128, Note_on_c, 0, 69, 73
2, 68140, Note_on_c, 0, 71, 0
2, 68141, Note_on_c, 0, 40, 63
2, 68210, Note_on_c, 0, 40, 0
2, 68247, Note_on_c, 0, 67, 74
2, 68249, Note_on_c, 0, 48, 62
2, 68265, Note_on_c, 0, 69, 0
2, 68353, Note_on_c, 0, 48, 0
2, 68360, Note_on_c, 0, 66, 76
2, 68375, Note_on_c, 0, 38, 54
2, 68385, Note_on_c, 0, 67, 0
2, 68431, Note_on_c, 0, 38, 0
2, 68455, Note_on_c, 0, 66, 0
2, 68460, Note_on_c, 0, 62, 0
2, 68467, Note_on_c, 0, 69, 71
2, 68480, Note_on_c, 0, 48, 63
2, 68583, Note_on_c, 0, 48, 0
2, 68596, Note_on_c, 0, 62, 78
2, 68599, Note_on_c, 0, 47, 66
2, 68607, Note_on_c, 0, 69, 0
2, 68608, Note_on_c, 0, 67, 73
2, 68670, Note_on_c, 0, 47, 0
2, 68715, Note_on_c, 0, 62, 0
2, 68721, Note_on_c, 0, 69, 78
2, 68750, Note_on_c, 0, 67, 0
2, 68823, Note_on_c, 0, 69, 0
2, 68837, Note_on_c, 0, 60, 78
2, 68840, Note_on_c, 0, 71, 73
2, 68841, Note_on_c, 0, 45, 56
2, 68904, Note_on_c, 0, 45, 0
2, 68949, Note_on_c, 0, 62, 79
2, 68966, Note_on_c, 0, 60, 0
2, 68984, Note_on_c, 0, 71, 0
2, 69068, Note_on_c, 0, 64, 86
2, 69076, Note_on_c, 0, 43, 59
2, 69085, Note_on_c, 0, 62, 0
2, 69135, Note_on_c, 0, 43, 0
2, 69177, Note_on_c, 0, 62, 81
2, 69229, Note_on_c, 0, 64, 0
2, 69293, Note_on_c, 0, 62, 0
2, 69309, Note_on_c, 0, 60, 84
2, 69318, Note_on_c, 0, 45, 57
2, 69397, Note_on_c, 0, 45, 0
2, 69419, Note_on_c, 0, 60, 0
2, 69561, Note_on_c, 0, 59, 77
2, 69565, Note_on_c, 0, 43, 60
2, 69567, Note_on_c, 0, 64, 74
2, 69603, Note_on_c, 0, 43, 0
2, 69661, Note_on_c, 0, 59, 0
2, 69669, Note_on_c, 0, 60, 77
2, 69776, Note_on_c, 0, 64, 0
2, 69783, Note_on_c, 0, 42, 53
2, 69794, Note_on_c, 0, 60, 0
2, 69794, Note_on_c, 0, 69, 69
2, 69795, Note_on_c, 0, 62, 76
2, 69825, Note_on_c, 0, 42, 0
2, 69910, Note_on_c, 0, 60, 80
2, 69914, Note_on_c, 0, 62, 0
2, 69947, Note_on_c, 0, 69, 0
2, 70010, Note_on_c, 0, 60, 0
2, 70021, Note_on_c, 0, 43, 57
2, 70027, Note_on_c, 0, 59, 80
2, 70090, Note_on_c, 0, 43, 0
2, 70134, Note_on_c, 0, 59, 0
2, 70141, Note_on_c, 0, 55, 62
2, 70146, Note_on_c, 0, 67, 68
2, 70254, Note_on_c, 0, 55, 0
2, 70263, Note_on_c, 0, 53, 66
2, 70268, Note_on_c, 0, 60, 84
2, 70279, Note_on_c, 0, 69, 74
2, 70327, Note_on_c, 0, 67, 0
2, 70346, Note_on_c, 0, 60, 0
2, 70365, Note_on_c, 0, 69, 0
2, 70386, Note_on_c, 0, 52, 68
2, 70405, Note_on_c, 0, 53, 0
2, 70497, Note_on_c, 0, 52, 0
2, 70505, Note_on_c, 0, 62, 82
2, 70508, Note_on_c, 0, 50, 68
2, 70510, Note_on_c, 0, 71, 80
2, 70564, Note_on_c, 0, 62, 0
2, 70593, Note_on_c, 0, 71, 0
2, 70619, Note_on_c, 0, 50, 0
2, 70619, Note_on_c, 0, 53, 71
2, 70735, Note_on_c, 0, 52, 67
2, 70745, Note_on_c, 0, 53, 0
2, 70747, Note_on_c, 0, 67, 75
2, 70749, Note_on_c, 0, 72, 72
2, 70829, Note_on_c, 0, 67, 0
2, 70857, Note_on_c, 0, 74, 67
2, 70859, Note_on_c, 0, 72, 0
2, 70868, Note_on_c, 0, 52, 0
2, 70871, Note_on_c, 0, 53, 72
2, 70985, Note_on_c, 0, 72, 73
2, 70985, Note_on_c, 0, 74, 0
2, 70993, Note_on_c, 0, 52, 75
2, 70993, Note_on_c, 0, 57, 75
2, 71008, Note_on_c, 0, 53, 0
2, 71094, Note_on_c, 0, 71, 74
2, 71102, Note_on_c, 0, 52, 0
2, 71106, Note_on_c, 0, 72, 0
2, 71118, Note_on_c, 0, 50, 62
2, 71223, Note_on_c, 0, 69, 67
2, 71226, Note_on_c, 0, 48, 70
2, 71228, Note_on_c, 0, 57, 0
2, 71230, Note_on_c, 0, 50, 0
2, 71257, Note_on_c, 0, 71, 0
2, 71301, Note_on_c, 0, 69, 0
2, 71322, Note_on_c, 0, 67, 68
2, 71328, Note_on_c, 0, 52, 69
2, 71330, Note_on_c, 0, 48, 0
2, 71363, Note_on_c, 0, 67, 0
2, 71447, Note_on_c, 0, 52, 0
2, 71449, Note_on_c, 0, 67, 69
2, 71451, Note_on_c, 0, 59, 76
2, 71454, Note_on_c, 0, 50, 70
2, 71483, Note_on_c, 0, 67, 0
2, 71492, Note_on_c, 0, 66, 62
2, 71535, Note_on_c, 0, 66, 0
2, 71558, Note_on_c, 0, 59, 0
2, 71561, Note_on_c, 0, 67, 58
2, 71564, Note_on_c, 0, 52, 73
2, 71567, Note_on_c, 0, 50, 0
2, 71595, Note_on_c, 0, 66, 63
2, 71597, Note_on_c, 0, 67, 0
2, 71685, Note_on_c, 0, 50, 81
2, 71690, Note_on_c, 0, 60, 83
2, 71699, Note_on_c, 0, 52, 0
2, 71725, Note_on_c, 0, 66, 0
2, 71779, Note_on_c, 0, 60, 0
2, 71782, Note_on_c, 0, 64, 77
2, 71792, Note_on_c, 0, 50, 0
2, 71810, Note_on_c, 0, 48, 70
2, 71856, Note_on_c, 0, 66, 70
2, 71902, Note_on_c, 0, 48, 0
2, 71903, Note_on_c, 0, 64, 0
2, 71905, Note_on_c, 0, 47, 70
2, 71915, Note_on_c, 0, 62, 86
2, 71926, Note_on_c, 0, 67, 62
2, 71962, Note_on_c, 0, 66, 0
2, 72014, Note_on_c, 0, 67, 0
2, 72029, Note_on_c, 0, 50, 77
2, 72030, Note_on_c, 0, 47, 0
2, 72035, Note_on_c, 0, 62, 0
2, 72148, Note_on_c, 0, 48, 74
2, 72155, Note_on_c, 0, 64, 86
2, 72156, Note_on_c, 0, 50, 0
2, 72256, Note_on_c, 0, 64, 0
2, 72256, Note_on_c, 0, 71, 77
2, 72264, Note_on_c, 0, 48, 0
2, 72272, Note_on_c, 0, 50, 70
2, 72381, Note_on_c, 0, 71, 0
2, 72384, Note_on_c, 0, 69, 75
2, 72387, Note_on_c, 0, 48, 70
2, 72388, Note_on_c, 0, 50, 0
2, 72393, Note_on_c, 0, 54, 73
2, 72499, Note_on_c, 0, 67, 69
2, 72500, Note_on_c, 0, 69, 0
2, 72520, Note_on_c, 0, 54, 0
2, 72521, Note_on_c, 0, 47, 55
2, 72521, Note_on_c, 0, 48, 0
2, 72609, Note_on_c, 0, 67, 0
2, 72617, Note_on_c, 0, 47, 0
2, 72626, Note_on_c, 0, 66, 65
2, 72631, Note_on_c, 0, 45, 58
2, 72699, Note_on_c, 0, 45, 0
2, 72704, Note_on_c, 0, 66, 0
2, 72745, Note_on_c, 0, 64, 44
2, 72751, Note_on_c, 0, 48, 54
2, 72815, Note_on_c, 0, 48, 0
2, 72842, Note_on_c, 0, 64, 0
2, 72855, Note_on_c, 0, 47, 47
2, 72869, Note_on_c, 0, 62, 53
2, 72873, Note_on_c, 0, 55, 47
2, 72922, Note_on_c, 0, 62, 0
2, 72923, Note_on_c, 0, 47, 0
2, 72968, Note_on_c, 0, 55, 0
2, 73003, Note_on_c, 0, 48, 49
2, 73089, Note_on_c, 0, 48, 0
2, 73107, Note_on_c, 0, 55, 56
2, 73135, Note_on_c, 0, 47, 36
2, 73197, Note_on_c, 0, 47, 0
2, 73203, Note_on_c, 0, 55, 0
2, 73224, Note_on_c, 0, 57, 62
2, 73243, Note_on_c, 0, 45, 44
2, 73331, Note_on_c, 0, 45, 0
2, 73334, Note_on_c, 0, 59, 65
2, 73350, Note_on_c, 0, 57, 0
2, 73360, Note_on_c, 0, 43, 52
2, 73430, Note_on_c, 0, 43, 0
2, 73442, Note_on_c, 0, 61, 68
2, 73461, Note_on_c, 0, 45, 62
2, 73528, Note_on_c, 0, 59, 0
2, 73559, Note_on_c, 0, 62, 75
2, 73577, Note_on_c, 0, 45, 0
2, 73582, Note_on_c, 0, 47, 68
2, 73588, Note_on_c, 0, 61, 0
2, 73619, Note_on_c, 0, 62, 0
2, 73692, Note_on_c, 0, 49, 76
2, 73703, Note_on_c, 0, 47, 0
2, 73795, Note_on_c, 0, 49, 0
2, 73795, Note_on_c, 0, 59, 78
2, 73811, Note_on_c, 0, 50, 74
2, 73906, Note_on_c, 0, 61, 75
2, 73913, Note_on_c, 0, 52, 65
2, 73917, Note_on_c, 0, 50, 0
2, 73940, Note_on_c, 0, 59, 0
2, 74023, Note_on_c, 0, 52, 0
2, 74030, Note_on_c, 0, 62, 85
2, 74031, Note_on_c, 0, 61, 0
2, 74041, Note_on_c, 0, 54, 71
2, 74123, Note_on_c, 0, 54, 0
2, 74144, Note_on_c, 0, 55, 62
2, 74144, Note_on_c, 0, 64, 80
2, 74154, Note_on_c, 0, 62, 0
2, 74246, Note_on_c, 0, 55, 0
2, 74271, Note_on_c, 0, 66, 68
2, 74274, Note_on_c, 0, 54, 63
2, 74274, Note_on_c, 0, 69, 74
2, 74288, Note_on_c, 0, 64, 0
2, 74315, Note_on_c, 0, 54, 0
2, 74341, Note_on_c, 0, 69, 0
2, 74347, Note_on_c, 0, 66, 0
2, 74524, Note_on_c, 0, 67, 72
2, 74527, Note_on_c, 0, 64, 63
2, 74534, Note_on_c, 0, 59, 52
2, 74570, Note_on_c, 0, 59, 0
2, 74586, Note_on_c, 0, 64, 0
2, 74631, Note_on_c, 0, 69, 76
2, 74656, Note_on_c, 0, 67, 0
2, 74759, Note_on_c, 0, 47, 52
2, 74761, Note_on_c, 0, 69, 0
2, 74767, Note_on_c, 0, 63, 75
2, 74768, Note_on_c, 0, 71, 74
2, 74804, Note_on_c, 0, 47, 0
2, 74866, Note_on_c, 0, 63, 0
2, 74877, Note_on_c, 0, 69, 76
2, 74912, Note_on_c, 0, 71, 0
2, 75004, Note_on_c, 0, 67, 73
2, 75009, Note_on_c, 0, 52, 40
2, 75009, Note_on_c, 0, 69, 0
2, 75011, Note_on_c, 0, 64, 62
2, 75048, Note_on_c, 0, 52, 0
2, 75057, Note_on_c, 0, 64, 0
2, 75071, Note_on_c, 0, 67, 0
2, 75252, Note_on_c, 0, 66, 69
2, 75261, Note_on_c, 0, 57, 55
2, 75268, Note_on_c, 0, 62, 54
2, 75305, Note_on_c, 0, 57, 0
2, 75327, Note_on_c, 0, 62, 0
2, 75353, Note_on_c, 0, 66, 0
2, 75360, Note_on_c, 0, 67, 76
2, 75473, Note_on_c, 0, 67, 0
2, 75483, Note_on_c, 0, 45, 60
2, 75492, Note_on_c, 0, 69, 71
2, 75496, Note_on_c, 0, 61, 79
2, 75536, Note_on_c, 0, 45, 0
2, 75565, Note_on_c, 0, 61, 0
2, 75597, Note_on_c, 0, 67, 76
2, 75628, Note_on_c, 0, 69, 0
2, 75722, Note_on_c, 0, 50, 50
2, 75722, Note_on_c, 0, 66, 70
2, 75734, Note_on_c, 0, 62, 64
2, 75737, Note_on_c, 0, 67, 0
2, 75755, Note_on_c, 0, 50, 0
2, 75783, Note_on_c, 0, 62, 0
2, 75817, Note_on_c, 0, 66, 0
2, 75982, Note_on_c, 0, 52, 55
2, 75984, Note_on_c, 0, 61, 63
2, 75988, Note_on_c, 0, 67, 76
2, 76057, Note_on_c, 0, 67, 0
2, 76087, Note_on_c, 0, 61, 0
2, 76097, Note_on_c, 0, 59, 77
2, 76205, Note_on_c, 0, 52, 0
2, 76212, Note_on_c, 0, 54, 69
2, 76216, Note_on_c, 0, 59, 0
2, 76220, Note_on_c, 0, 69, 82
2, 76226, Note_on_c, 0, 57, 71
2, 76293, Note_on_c, 0, 69, 0
2, 76330, Note_on_c, 0, 57, 0
2, 76351, Note_on_c, 0, 60, 75
2, 76456, Note_on_c, 0, 60, 0
2, 76456, Note_on_c, 0, 74, 76
2, 76468, Note_on_c, 0, 59, 71
2, 76516, Note_on_c, 0, 74, 0
2, 76518, Note_on_c, 0, 54, 0
2, 76552, Note_on_c, 0, 59, 0
2, 76575, Note_on_c, 0, 60, 72
2, 76677, Note_on_c, 0, 60, 0
2, 76693, Note_on_c, 0, 59, 62
2, 76700, Note_on_c, 0, 55, 52
2, 76703, Note_on_c, 0, 64, 71
2, 76733, Note_on_c, 0, 64, 0
2, 76733, Note_on_c, 0, 66, 76
2, 76746, Note_on_c, 0, 59, 0
2, 76747, Note_on_c, 0, 55, 0
2, 76795, Note_on_c, 0, 64, 78
2, 76807, Note_on_c, 0, 66, 0
2, 76810, Note_on_c, 0, 57, 58
2, 76846, Note_on_c, 0, 62, 75
2, 76848, Note_on_c, 0, 64, 0
2, 76902, Note_on_c, 0, 57, 0
2, 76919, Note_on_c, 0, 49, 54
2, 76920, Note_on_c, 0, 64, 80
2, 76926, Note_on_c, 0, 55, 65
2, 76928, Note_on_c, 0, 62, 0
2, 76979, Note_on_c, 0, 49, 0
2, 77015, Note_on_c, 0, 55, 0
2, 77052, Note_on_c, 0, 59, 66
2, 77164, Note_on_c, 0, 66, 70
2, 77166, Note_on_c, 0, 59, 0
2, 77177, Note_on_c, 0, 50, 53
2, 77180, Note_on_c, 0, 57, 68
2, 77200, Note_on_c, 0, 64, 0
2, 77246, Note_on_c, 0, 66, 0
2, 77284, Note_on_c, 0, 57, 0
2, 77290, Note_on_c, 0, 59, 75
2, 77404, Note_on_c, 0, 57, 77
2, 77404, Note_on_c, 0, 67, 88
2, 77412, Note_on_c, 0, 59, 0
2, 77473, Note_on_c, 0, 67, 0
2, 77505, Note_on_c, 0, 55, 73
2, 77525, Note_on_c, 0, 57, 0
2, 77629, Note_on_c, 0, 69, 83
2, 77631, Note_on_c, 0, 54, 72
2, 77636, Note_on_c, 0, 55, 0
2, 77697, Note_on_c, 0, 69, 0
2, 77715, Note_on_c, 0, 54, 0
2, 77736, Note_on_c, 0, 57, 71
2, 77743, Note_on_c, 0, 50, 0
2, 77856, Note_on_c, 0, 57, 0
2, 77874, Note_on_c, 0, 71, 81
2, 77875, Note_on_c, 0, 55, 62
2, 77927, Note_on_c, 0, 71, 0
2, 77953, Note_on_c, 0, 55, 0
2, 77986, Note_on_c, 0, 57, 62
2, 78088, Note_on_c, 0, 57, 0
2, 78106, Note_on_c, 0, 55, 56
2, 78116, Note_on_c, 0, 61, 67
2, 78167, Note_on_c, 0, 61, 0
2, 78167, Note_on_c, 0, 62, 69
2, 78192, Note_on_c, 0, 55, 0
2, 78217, Note_on_c, 0, 62, 0
2, 78219, Note_on_c, 0, 54, 56
2, 78220, Note_on_c, 0, 61, 61
2, 78258, Note_on_c, 0, 61, 0
2, 78262, Note_on_c, 0, 59, 69
2, 78308, Note_on_c, 0, 54, 0
2, 78316, Note_on_c, 0, 59, 0
2, 78336, Note_on_c, 0, 61, 73
2, 78346, Note_on_c, 0, 52, 51
2, 78391, Note_on_c, 0, 52, 0
2, 78452, Note_on_c, 0, 55, 51
2, 78532, Note_on_c, 0, 55, 0
2, 78577, Note_on_c, 0, 62, 58
2, 78578, Note_on_c, 0, 54, 50
2, 78598, Note_on_c, 0, 61, 0
2, 78657, Note_on_c, 0, 62, 0
2, 78669, Note_on_c, 0, 54, 0
2, 78718, Note_on_c, 0, 55, 43
2, 78803, Note_on_c, 0, 55, 0
2, 78820, Note_on_c, 0, 62, 50
2, 78831, Note_on_c, 0, 54, 45
2, 78911, Note_on_c, 0, 54, 0
2, 78911, Note_on_c, 0, 62, 0
2, 78938, Note_on_c, 0, 64, 59
2, 78962, Note_on_c, 0, 52, 50
2, 79055, Note_on_c, 0, 52, 0
2, 79057, Note_on_c, 0, 66, 61
2, 79090, Note_on_c, 0, 50, 55
2, 79113, Note_on_c, 0, 64, 0
2, 79153, Note_on_c, 0, 50, 0
2, 79180, Note_on_c, 0, 67, 62
2, 79186, Note_on_c, 0, 52, 61
2, 79223, Note_on_c, 0, 66, 0
2, 79293, Note_on_c, 0, 67, 0
2, 79308, Note_on_c, 0, 54, 73
2, 79318, Note_on_c, 0, 52, 0
2, 79323, Note_on_c, 0, 69, 44
2, 79386, Note_on_c, 0, 69, 0
2, 79431, Note_on_c, 0, 55, 74
2, 79436, Note_on_c, 0, 54, 0
2, 79523, Note_on_c, 0, 66, 74
2, 79543, Note_on_c, 0, 55, 0
2, 79554, Note_on_c, 0, 57, 74
2, 79655, Note_on_c, 0, 66, 0
2, 79657, Note_on_c, 0, 59, 76
2, 79661, Note_on_c, 0, 67, 77
2, 79667, Note_on_c, 0, 57, 0
2, 79751, Note_on_c, 0, 59, 0
2, 79766, Note_on_c, 0, 69, 80
2, 79769, Note_on_c, 0, 67, 0
2, 79772, Note_on_c, 0, 60, 78
2, 79841, Note_on_c, 0, 60, 0
2, 79868, Note_on_c, 0, 71, 79
2, 79878, Note_on_c, 0, 62, 69
2, 79892, Note_on_c, 0, 69, 0
2, 80000, Note_on_c, 0, 72, 75
2, 80011, Note_on_c, 0, 54, 69
2, 80015, Note_on_c, 0, 62, 0
2, 80020, Note_on_c, 0, 50, 61
2, 80039, Note_on_c, 0, 71, 0
2, 80068, Note_on_c, 0, 72, 0
2, 80083, Note_on_c, 0, 54, 0
2, 80103, Note_on_c, 0, 50, 0
2, 80261, Note_on_c, 0, 69, 73
2, 80263, Note_on_c, 0, 48, 63
2, 80300, Note_on_c, 0, 50, 30
2, 80301, Note_on_c, 0, 50, 0
2, 80320, Note_on_c, 0, 69, 0
2, 80369, Note_on_c, 0, 50, 67
2, 80381, Note_on_c, 0, 48, 0
2, 80489, Note_on_c, 0, 50, 0
2, 80494, Note_on_c, 0, 52, 78
2, 80495, Note_on_c, 0, 71, 77
2, 80501, Note_on_c, 0, 67, 74
2, 80597, Note_on_c, 0, 71, 0
2, 80612, Note_on_c, 0, 50, 80
2, 80627, Note_on_c, 0, 52, 0
2, 80730, Note_on_c, 0, 48, 73
2, 80749, Note_on_c, 0, 69, 75
2, 80764, Note_on_c, 0, 50, 0
2, 80809, Note_on_c, 0, 67, 0
2, 80831, Note_on_c, 0, 48, 0
2, 81008, Note_on_c, 0, 47, 76
2, 81009, Note_on_c, 0, 67, 67
2, 81075, Note_on_c, 0, 67, 0
2, 81116, Note_on_c, 0, 48, 80
2, 81134, Note_on_c, 0, 47, 0
2, 81233, Note_on_c, 0, 48, 0
2, 81235, Note_on_c, 0, 50, 80
2, 81244, Note_on_c, 0, 66, 76
2, 81311, Note_on_c, 0, 66, 0
2, 81360, Note_on_c, 0, 48, 79
2, 81370, Note_on_c, 0, 50, 0
2, 81460, Note_on_c, 0, 69, 0
2, 81476, Note_on_c, 0, 67, 80
2, 81491, Note_on_c, 0, 47, 70
2, 81497, Note_on_c, 0, 48, 0
2, 81551, Note_on_c, 0, 47, 0
2, 81599, Note_on_c, 0, 67, 0
2, 81599, Note_on_c, 0, 79, 74
2, 81718, Note_on_c, 0, 48, 76
2, 81730, Note_on_c, 0, 78, 81
2, 81739, Note_on_c, 0, 79, 0
2, 81785, Note_on_c, 0, 48, 0
2, 81852, Note_on_c, 0, 76, 75
2, 81878, Note_on_c, 0, 78, 0
2, 81950, Note_on_c, 0, 50, 83
2, 81971, Note_on_c, 0, 74, 79
2, 82005, Note_on_c, 0, 76, 0
2, 82011, Note_on_c, 0, 50, 0
2, 82086, Note_on_c, 0, 74, 0
2, 82087, Note_on_c, 0, 78, 74
2, 82192, Note_on_c, 0, 55, 80
2, 82210, Note_on_c, 0, 76, 80
2, 82228, Note_on_c, 0, 78, 0
2, 82271, Note_on_c, 0, 55, 0
2, 82317, Note_on_c, 0, 76, 0
2, 82328, Note_on_c, 0, 78, 77
2, 82450, Note_on_c, 0, 45, 76
2, 82453, Note_on_c, 0, 76, 74
2, 82483, Note_on_c, 0, 78, 0
2, 82565, Note_on_c, 0, 74, 70
2, 82572, Note_on_c, 0, 76, 0
2, 82699, Note_on_c, 0, 74, 0
2, 82703, Note_on_c, 0, 72, 74
2, 82758, Note_on_c, 0, 45, 0
2, 82820, Note_on_c, 0, 76, 74
2, 82823, Note_on_c, 0, 72, 0
2, 82939, Note_on_c, 0, 47, 76
2, 82944, Note_on_c, 0, 74, 71
2, 82945, Note_on_c, 0, 76, 0
2, 83007, Note_on_c, 0, 47, 0
2, 83051, Note_on_c, 0, 74, 0
2, 83059, Note_on_c, 0, 76, 70
2, 83183, Note_on_c, 0, 74, 73
2, 83185, Note_on_c, 0, 48, 83
2, 83222, Note_on_c, 0, 76, 0
2, 83255, Note_on_c, 0, 48, 0
2, 83306, Note_on_c, 0, 72, 72
2, 83343, Note_on_c, 0, 74, 0
2, 83433, Note_on_c, 0, 50, 81
2, 83433, Note_on_c, 0, 72, 0
2, 83438, Note_on_c, 0, 71, 74
2, 83496, Note_on_c, 0, 50, 0
2, 83551, Note_on_c, 0, 71, 0
2, 83559, Note_on_c, 0, 74, 74
2, 83671, Note_on_c, 0, 52, 76
2, 83678, Note_on_c, 0, 72, 74
2, 83683, Note_on_c, 0, 74, 0
2, 83742, Note_on_c, 0, 52, 0
2, 83787, Note_on_c, 0, 72, 0
2, 83805, Note_on_c, 0, 74, 65
2, 83930, Note_on_c, 0, 42, 80
2, 83933, Note_on_c, 0, 72, 64
2, 83975, Note_on_c, 0, 74, 0
2, 84043, Note_on_c, 0, 71, 69
2, 84046, Note_on_c, 0, 72, 0
2, 84152, Note_on_c, 0, 71, 0
2, 84168, Note_on_c, 0, 69, 63
2, 84271, Note_on_c, 0, 69, 0
2, 84290, Note_on_c, 0, 72, 59
2, 84407, Note_on_c, 0, 71, 65
2, 84408, Note_on_c, 0, 42, 0
2, 84409, Note_on_c, 0, 72, 0
2, 84413, Note_on_c, 0, 43, 67
2, 84522, Note_on_c, 0, 43, 0
2, 84524, Note_on_c, 0, 45, 72
2, 84535, Note_on_c, 0, 69, 61
2, 84543, Note_on_c, 0, 71, 0
2, 84629, Note_on_c, 0, 69, 0
2, 84632, Note_on_c, 0, 45, 0
2, 84638, Note_on_c, 0, 47, 82
2, 84646, Note_on_c, 0, 67, 62
2, 84712, Note_on_c, 0, 67, 0
2, 84769, Note_on_c, 0, 71, 58
2, 84865, Note_on_c, 0, 71, 0
2, 84881, Note_on_c, 0, 66, 72
2, 84889, Note_on_c, 0, 62, 67
2, 84924, Note_on_c, 0, 62, 0
2, 84959, Note_on_c, 0, 66, 0
2, 85001, Note_on_c, 0, 71, 61
2, 85100, Note_on_c, 0, 71, 0
2, 85130, Note_on_c, 0, 64, 73
2, 85135, Note_on_c, 0, 61, 72
2, 85210, Note_on_c, 0, 61, 0
2, 85240, Note_on_c, 0, 45, 72
2, 85240, Note_on_c, 0, 47, 0
2, 85252, Note_on_c, 0, 71, 65
2, 85260, Note_on_c, 0, 64, 0
2, 85339, Note_on_c, 0, 71, 0
2, 85347, Note_on_c, 0, 43, 72
2, 85366, Note_on_c, 0, 45, 0
2, 85374, Note_on_c, 0, 62, 68
2, 85421, Note_on_c, 0, 62, 0
2, 85463, Note_on_c, 0, 43, 0
2, 85469, Note_on_c, 0, 42, 76
2, 85487, Note_on_c, 0, 71, 53
2, 85585, Note_on_c, 0, 71, 0
2, 85592, Note_on_c, 0, 42, 0
2, 85593, Note_on_c, 0, 40, 69
2, 85605, Note_on_c, 0, 61, 70
2, 85681, Note_on_c, 0, 61, 0
2, 85708, Note_on_c, 0, 43, 66
2, 85714, Note_on_c, 0, 71, 72
2, 85720, Note_on_c, 0, 40, 0
2, 85805, Note_on_c, 0, 71, 0
2, 85821, Note_on_c, 0, 42, 78
2, 85826, Note_on_c, 0, 43, 0
2, 85828, Note_on_c, 0, 69, 63
2, 85922, Note_on_c, 0, 69, 0
2, 85936, Note_on_c, 0, 42, 0
2, 85940, Note_on_c, 0, 43, 77
2, 85942, Note_on_c, 0, 67, 64
2, 86038, Note_on_c, 0, 67, 0
2, 86053, Note_on_c, 0, 43, 0
2, 86062, Note_on_c, 0, 45, 83
2, 86063, Note_on_c, 0, 66, 62
2, 86141, Note_on_c, 0, 66, 0
2, 86169, Note_on_c, 0, 69, 56
2, 86280, Note_on_c, 0, 69, 0
2, 86306, Note_on_c, 0, 61, 67
2, 86309, Note_on_c, 0, 64, 67
2, 86353, Note_on_c, 0, 61, 0
2, 86356, Note_on_c, 0, 64, 0
2, 86422, Note_on_c, 0, 69, 59
2, 86515, Note_on_c, 0, 69, 0
2, 86561, Note_on_c, 0, 62, 57
2, 86572, Note_on_c, 0, 59, 49
2, 86609, Note_on_c, 0, 59, 0
2, 86623, Note_on_c, 0, 62, 0
2, 86667, Note_on_c, 0, 43, 64
2, 86667, Note_on_c, 0, 69, 56
2, 86668, Note_on_c, 0, 45, 0
2, 86764, Note_on_c, 0, 69, 0
2, 86771, Note_on_c, 0, 42, 74
2, 86790, Note_on_c, 0, 61, 60
2, 86792, Note_on_c, 0, 43, 0
2, 86872, Note_on_c, 0, 42, 0
2, 86889, Note_on_c, 0, 61, 0
2, 86891, Note_on_c, 0, 40, 72
2, 86909, Note_on_c, 0, 69, 54
2, 87004, Note_on_c, 0, 69, 0
2, 87014, Note_on_c, 0, 38, 69
2, 87021, Note_on_c, 0, 40, 0
2, 87021, Note_on_c, 0, 59, 69
2, 87096, Note_on_c, 0, 59, 0
2, 87124, Note_on_c, 0, 42, 73
2, 87135, Note_on_c, 0, 69, 65
2, 87136, Note_on_c, 0, 38, 0
2, 87236, Note_on_c, 0, 69, 0
2, 87243, Note_on_c, 0, 40, 75
2, 87243, Note_on_c, 0, 42, 0
2, 87245, Note_on_c, 0, 67, 66
2, 87344, Note_on_c, 0, 67, 0
2, 87350, Note_on_c, 0, 40, 0
2, 87353, Note_on_c, 0, 42, 80
2, 87354, Note_on_c, 0, 66, 65
2, 87462, Note_on_c, 0, 42, 0
2, 87466, Note_on_c, 0, 66, 0
2, 87472, Note_on_c, 0, 64, 69
2, 87475, Note_on_c, 0, 43, 83
2, 87553, Note_on_c, 0, 64, 0
2, 87582, Note_on_c, 0, 67, 61
2, 87681, Note_on_c, 0, 67, 0
2, 87714, Note_on_c, 0, 59, 62
2, 87717, Note_on_c, 0, 62, 55
2, 87768, Note_on_c, 0, 59, 0
2, 87791, Note_on_c, 0, 62, 0
2, 87829, Note_on_c, 0, 67, 59
2, 87943, Note_on_c, 0, 67, 0
2, 87964, Note_on_c, 0, 61, 58
2, 87974, Note_on_c, 0, 57, 57
2, 88022, Note_on_c, 0, 57, 0
2, 88040, Note_on_c, 0, 61, 0
2, 88075, Note_on_c, 0, 67, 61
2, 88080, Note_on_c, 0, 43, 0
2, 88083, Note_on_c, 0, 42, 73
2, 88171, Note_on_c, 0, 67, 0
2, 88190, Note_on_c, 0, 40, 66
2, 88192, Note_on_c, 0, 42, 0
2, 88200, Note_on_c, 0, 59, 58
2, 88254, Note_on_c, 0, 59, 0
2, 88268, Note_on_c, 0, 40, 0
2, 88304, Note_on_c, 0, 38, 57
2, 88319, Note_on_c, 0, 67, 53
2, 88375, Note_on_c, 0, 38, 0
2, 88382, Note_on_c, 0, 67, 0
2, 88410, Note_on_c, 0, 37, 54
2, 88437, Note_on_c, 0, 57, 52
2, 88477, Note_on_c, 0, 37, 0
2, 88493, Note_on_c, 0, 57, 0
2, 88500, Control_c, 0, 67, 16
2, 88514, Control_c, 0, 67, 95
2, 88537, Control_c, 0, 67, 127
2, 88543, Note_on_c, 0, 67, 48
2, 88632, Note_on_c, 0, 67, 0
2, 88669, Note_on_c, 0, 66, 52
2, 88675, Note_on_c, 0, 38, 44
2, 88736, Note_on_c, 0, 38, 0
2, 88750, Note_on_c, 0, 66, 0
2, 88778, Note_on_c, 0, 40, 47
2, 88784, Note_on_c, 0, 74, 54
2, 88875, Note_on_c, 0, 40, 0
2, 88882, Note_on_c, 0, 74, 0
2, 88902, Note_on_c, 0, 72, 57
2, 88906, Note_on_c, 0, 42, 55
2, 88968, Note_on_c, 0, 42, 0
2, 88980, Note_on_c, 0, 72, 0
2, 89015, Note_on_c, 0, 38, 44
2, 89022, Note_on_c, 0, 71, 52
2, 89079, Note_on_c, 0, 38, 0
2, 89114, Note_on_c, 0, 71, 0
2, 89130, Note_on_c, 0, 69, 57
2, 89137, Note_on_c, 0, 43, 47
2, 89201, Note_on_c, 0, 43, 0
2, 89208, Note_on_c, 0, 69, 0
2, 89246, Note_on_c, 0, 67, 55
2, 89257, Note_on_c, 0, 38, 36
2, 89321, Note_on_c, 0, 38, 0
2, 89337, Note_on_c, 0, 67, 0
2, 89363, Note_on_c, 0, 45, 54
2, 89363, Note_on_c, 0, 66, 60
2, 89441, Note_on_c, 0, 45, 0
2, 89463, Note_on_c, 0, 66, 0
2, 89476, Note_on_c, 0, 64, 59
2, 89486, Note_on_c, 0, 38, 36
2, 89557, Note_on_c, 0, 38, 0
2, 89585, Note_on_c, 0, 64, 0
2, 89599, Note_on_c, 0, 62, 58
2, 89609, Note_on_c, 0, 47, 54
2, 89658, Note_on_c, 0, 47, 0
2, 89681, Note_on_c, 0, 62, 0
2, 89710, Note_on_c, 0, 60, 55
2, 89719, Note_on_c, 0, 38, 44
2, 89769, Note_on_c, 0, 38, 0
2, 89827, Note_on_c, 0, 60, 0
2, 89828, Note_on_c, 0, 48, 53
2, 89832, Note_on_c, 0, 59, 54
2, 89888, Note_on_c, 0, 48, 0
2, 89921, Note_on_c, 0, 59, 0
2, 89944, Note_on_c, 0, 57, 55
2, 89946, Note_on_c, 0, 38, 41
2, 90035, Note_on_c, 0, 38, 0
2, 90036, Note_on_c, 0, 57, 0
2, 90054, Note_on_c, 0, 47, 58
2, 90056, Note_on_c, 0, 55, 56
2, 90104, Note_on_c, 0, 55, 0
2, 90116, Note_on_c, 0, 47, 0
2, 90174, Note_on_c, 0, 57, 60
2, 90189, Note_on_c, 0, 55, 60
2, 90248, Note_on_c, 0, 57, 0
2, 90272, Note_on_c, 0, 55, 0
2, 90296, Note_on_c, 0, 59, 59
2, 90310, Note_on_c, 0, 53, 57
2, 90355, Note_on_c, 0, 59, 0
2, 90395, Note_on_c, 0, 53, 0
2, 90401, Note_on_c, 0, 55, 55
2, 90425, Note_on_c, 0, 52, 44
2, 90480, Note_on_c, 0, 52, 0
2, 90501, Note_on_c, 0, 55, 0
2, 90520, Note_on_c, 0, 60, 63
2, 90524, Note_on_c, 0, 50, 56
2, 90585, Note_on_c, 0, 60, 0
2, 90603, Note_on_c, 0, 50, 0
2, 90631, Note_on_c, 0, 55, 57
2, 90648, Note_on_c, 0, 48, 46
2, 90722, Note_on_c, 0, 55, 0
2, 90741, Note_on_c, 0, 48, 0
2, 90747, Note_on_c, 0, 62, 62
2, 90758, Note_on_c, 0, 47, 54
2, 90821, Note_on_c, 0, 62, 0
2, 90850, Note_on_c, 0, 47, 0
2, 90870, Note_on_c, 0, 55, 57
2, 90887, Note_on_c, 0, 45, 49
2, 90946, Note_on_c, 0, 45, 0
2, 90957, Note_on_c, 0, 55, 0
2, 90986, Note_on_c, 0, 64, 64
2, 91003, Note_on_c, 0, 43, 39
2, 91043, Note_on_c, 0, 64, 0
2, 91081, Note_on_c, 0, 43, 0
2, 91098, Note_on_c, 0, 55, 55
2, 91125, Note_on_c, 0, 41, 45
2, 91182, Note_on_c, 0, 55, 0
2, 91202, Note_on_c, 0, 41, 0
2, 91208, Note_on_c, 0, 65, 63
2, 91224, Note_on_c, 0, 40, 54
2, 91278, Note_on_c, 0, 65, 0
2, 91298, Note_on_c, 0, 40, 0
2, 91321, Note_on_c, 0, 55, 60
2, 91338, Note_on_c, 0, 38, 47
2, 91394, Note_on_c, 0, 55, 0
2, 91397, Note_on_c, 0, 38, 0
2, 91426, Note_on_c, 0, 36, 51
2, 91450, Note_on_c, 0, 64, 59
2, 91528, Note_on_c, 0, 36, 0
2, 91531, Note_on_c, 0, 64, 0
2, 91544, Note_on_c, 0, 38, 51
2, 91571, Note_on_c, 0, 72, 39
2, 91609, Note_on_c, 0, 38, 0
2, 91656, Note_on_c, 0, 72, 0
2, 91674, Note_on_c, 0, 40, 53
2, 91684, Note_on_c, 0, 71, 55
2, 91756, Note_on_c, 0, 40, 0
2, 91770, Note_on_c, 0, 71, 0
2, 91783, Note_on_c, 0, 42, 56
2, 91787, Note_on_c, 0, 74, 56
2, 91852, Note_on_c, 0, 42, 0
2, 91888, Note_on_c, 0, 74, 0
2, 91894, Note_on_c, 0, 44, 55
2, 91908, Note_on_c, 0, 69, 61
2, 91974, Note_on_c, 0, 44, 0
2, 91978, Note_on_c, 0, 69, 0
2, 92008, Note_on_c, 0, 45, 54
2, 92013, Note_on_c, 0, 74, 63
2, 92073, Note_on_c, 0, 45, 0
2, 92121, Note_on_c, 0, 74, 0
2, 92125, Note_on_c, 0, 47, 50
2, 92133, Note_on_c, 0, 68, 70
2, 92203, Note_on_c, 0, 68, 0
2, 92223, Note_on_c, 0, 47, 0
2, 92244, Note_on_c, 0, 48, 51
2, 92245, Note_on_c, 0, 74, 62
2, 92333, Note_on_c, 0, 48, 0
2, 92349, Note_on_c, 0, 74, 0
2, 92373, Note_on_c, 0, 66, 68
2, 92386, Note_on_c, 0, 50, 53
2, 92428, Note_on_c, 0, 50, 0
2, 92443, Note_on_c, 0, 66, 0
2, 92481, Note_on_c, 0, 74, 63
2, 92485, Note_on_c, 0, 52, 49
2, 92568, Note_on_c, 0, 52, 0
2, 92570, Note_on_c, 0, 74, 0
2, 92596, Note_on_c, 0, 54, 53
2, 92602, Note_on_c, 0, 64, 69
2, 92664, Note_on_c, 0, 64, 0
2, 92667, Note_on_c, 0, 54, 0
2, 92705, Note_on_c, 0, 56, 52
2, 92706, Note_on_c, 0, 74, 62
2, 92770, Note_on_c, 0, 56, 0
2, 92803, Note_on_c, 0, 74, 0
2, 92816, Note_on_c, 0, 57, 53
2, 92826, Note_on_c, 0, 72, 61
2, 92902, Note_on_c, 0, 72, 0
2, 92911, Note_on_c, 0, 57, 0
2, 92934, Note_on_c, 0, 69, 61
2, 92937, Note_on_c, 0, 55, 54
2, 93031, Note_on_c, 0, 55, 0
2, 93036, Note_on_c, 0, 69, 0
2, 93050, Note_on_c, 0, 54, 57
2, 93054, Note_on_c, 0, 71, 70
2, 93128, Note_on_c, 0, 54, 0
2, 93167, Note_on_c, 0, 73, 72
2, 93172, Note_on_c, 0, 57, 55
2, 93183, Note_on_c, 0, 71, 0
2, 93280, Note_on_c, 0, 57, 0
2, 93293, Note_on_c, 0, 52, 55
2, 93293, Note_on_c, 0, 73, 0
2, 93293, Note_on_c, 0, 75, 79
2, 93364, Note_on_c, 0, 52, 0
2, 93382, Note_on_c, 0, 75, 0
2, 93404, Note_on_c, 0, 57, 61
2, 93409, Note_on_c, 0, 76, 65
2, 93418, Control_c, 0, 67, 109
2, 93434, Control_c, 0, 67, 89
2, 93449, Control_c, 0, 67, 64
2, 93465, Control_c, 0, 67, 31
2, 93479, Control_c, 0, 67, 0
2, 93519, Note_on_c, 0, 57, 0
2, 93525, Note_on_c, 0, 76, 0
2, 93530, Note_on_c, 0, 51, 61
2, 93531, Note_on_c, 0, 78, 57
2, 93547, Note_on_c, 0, 79, 77
2, 93615, Note_on_c, 0, 51, 0
2, 93626, Note_on_c, 0, 78, 0
2, 93641, Note_on_c, 0, 57, 66
2, 93760, Note_on_c, 0, 57, 0
2, 93762, Note_on_c, 0, 49, 66
2, 93764, Note_on_c, 0, 81, 77
2, 93782, Note_on_c, 0, 79, 0
2, 93855, Note_on_c, 0, 49, 0
2, 93866, Note_on_c, 0, 83, 81
2, 93879, Note_on_c, 0, 57, 63
2, 93886, Note_on_c, 0, 81, 0
2, 93983, Note_on_c, 0, 57, 0
2, 93998, Note_on_c, 0, 83, 0
2, 94000, Note_on_c, 0, 47, 59
2, 94000, Note_on_c, 0, 84, 81
2, 94062, Note_on_c, 0, 47, 0
2, 94107, Note_on_c, 0, 57, 62
2, 94113, Note_on_c, 0, 75, 80
2, 94146, Note_on_c, 0, 84, 0
2, 94204, Note_on_c, 0, 57, 0
2, 94234, Note_on_c, 0, 55, 57
2, 94242, Note_on_c, 0, 76, 81
2, 94276, Note_on_c, 0, 75, 0
2, 94278, Note_on_c, 0, 55, 0
2, 94328, Note_on_c, 0, 76, 0
2, 94489, Note_on_c, 0, 60, 59
2, 94494, Note_on_c, 0, 78, 75
2, 94525, Note_on_c, 0, 60, 0
2, 94606, Note_on_c, 0, 76, 79
2, 94649, Note_on_c, 0, 78, 0
2, 94734, Note_on_c, 0, 75, 85
2, 94742, Note_on_c, 0, 59, 58
2, 94766, Note_on_c, 0, 76, 0
2, 94787, Note_on_c, 0, 59, 0
2, 94836, Note_on_c, 0, 76, 82
2, 94842, Note_on_c, 0, 75, 0
2, 94965, Note_on_c, 0, 78, 75
2, 94967, Note_on_c, 0, 57, 55
2, 94989, Note_on_c, 0, 76, 0
2, 95010, Note_on_c, 0, 57, 0
2, 95069, Note_on_c, 0, 78, 0
2, 95219, Note_on_c, 0, 79, 77
2, 95324, Note_on_c, 0, 78, 81
2, 95360, Note_on_c, 0, 79, 0
2, 95457, Note_on_c, 0, 47, 51
2, 95460, Note_on_c, 0, 76, 79
2, 95476, Note_on_c, 0, 78, 0
2, 95498, Note_on_c, 0, 47, 0
2, 95566, Note_on_c, 0, 78, 79
2, 95582, Note_on_c, 0, 76, 0
2, 95685, Note_on_c, 0, 52, 55
2, 95685, Note_on_c, 0, 79, 79
2, 95717, Note_on_c, 0, 78, 0
2, 95762, Note_on_c, 0, 79, 0
2, 95780, Note_on_c, 0, 52, 0
2, 95794, Note_on_c, 0, 54, 60
2, 95900, Note_on_c, 0, 54, 0
2, 95923, Note_on_c, 0, 78, 81
2, 95926, Note_on_c, 0, 55, 56
2, 95988, Note_on_c, 0, 78, 0
2, 96030, Note_on_c, 0, 55, 0
2, 96043, Note_on_c, 0, 52, 60
2, 96126, Note_on_c, 0, 52, 0
2, 96162, Note_on_c, 0, 76, 78
2, 96163, Note_on_c, 0, 57, 62
2, 96222, Note_on_c, 0, 76, 0
2, 96263, Note_on_c, 0, 57, 0
2, 96274, Note_on_c, 0, 52, 63
2, 96380, Note_on_c, 0, 52, 0
2, 96399, Note_on_c, 0, 59, 56
2, 96407, Note_on_c, 0, 71, 75
2, 96458, Note_on_c, 0, 71, 0
2, 96478, Note_on_c, 0, 59, 0
2, 96516, Note_on_c, 0, 52, 59
2, 96637, Note_on_c, 0, 52, 0
2, 96653, Note_on_c, 0, 81, 81
2, 96660, Note_on_c, 0, 61, 62
2, 96765, Note_on_c, 0, 61, 0
2, 96777, Note_on_c, 0, 52, 59
2, 96878, Note_on_c, 0, 52, 0
2, 96894, Note_on_c, 0, 63, 66
2, 97008, Note_on_c, 0, 52, 60
2, 97021, Note_on_c, 0, 63, 0
2, 97083, Note_on_c, 0, 52, 0
2, 97135, Note_on_c, 0, 79, 77
2, 97143, Note_on_c, 0, 64, 61
2, 97164, Note_on_c, 0, 81, 0
2, 97207, Note_on_c, 0, 79, 0
2, 97230, Note_on_c, 0, 64, 0
2, 97276, Note_on_c, 0, 62, 37
2, 97316, Note_on_c, 0, 62, 0
2, 97376, Note_on_c, 0, 64, 69
2, 97377, Note_on_c, 0, 78, 83
2, 97453, Note_on_c, 0, 78, 0
2, 97481, Note_on_c, 0, 64, 0
2, 97483, Note_on_c, 0, 66, 68
2, 97594, Note_on_c, 0, 66, 0
2, 97603, Note_on_c, 0, 67, 82
2, 97606, Note_on_c, 0, 76, 89
2, 97686, Note_on_c, 0, 76, 0
2, 97712, Note_on_c, 0, 67, 0
2, 97717, Note_on_c, 0, 64, 75
2, 97836, Note_on_c, 0, 64, 0
2, 97842, Note_on_c, 0, 66, 70
2, 97846, Note_on_c, 0, 75, 84
2, 97900, Note_on_c, 0, 75, 0
2, 97936, Note_on_c, 0, 66, 0
2, 97957, Note_on_c, 0, 64, 67
2, 98094, Note_on_c, 0, 64, 0
2, 98114, Note_on_c, 0, 66, 65
2, 98116, Note_on_c, 0, 84, 83
2, 98225, Note_on_c, 0, 66, 0
2, 98248, Note_on_c, 0, 67, 60
2, 98313, Note_on_c, 0, 67, 0
2, 98361, Note_on_c, 0, 69, 50
2, 98449, Note_on_c, 0, 69, 0
2, 98476, Note_on_c, 0, 66, 42
2, 98579, Note_on_c, 0, 66, 0
2, 98622, Note_on_c, 0, 83, 50
2, 98635, Note_on_c, 0, 67, 40
2, 98664, Note_on_c, 0, 84, 0
2, 98676, Note_on_c, 0, 67, 0
2, 98712, Note_on_c, 0, 83, 0
2, 98910, Note_on_c, 0, 84, 53
2, 98934, Note_on_c, 0, 69, 17
2, 98991, Note_on_c, 0, 69, 0
2, 99018, Note_on_c, 0, 83, 60
2, 99029, Note_on_c, 0, 84, 0
2, 99042, Note_on_c, 0, 67, 39
2, 99107, Note_on_c, 0, 67, 0
2, 99137, Note_on_c, 0, 81, 67
2, 99149, Note_on_c, 0, 66, 43
2, 99170, Note_on_c, 0, 83, 0
2, 99221, Note_on_c, 0, 66, 0
2, 99224, Note_on_c, 0, 81, 0
2, 99245, Note_on_c, 0, 79, 58
2, 99265, Note_on_c, 0, 64, 44
2, 99366, Note_on_c, 0, 64, 0
2, 99381, Note_on_c, 0, 79, 0
2, 99383, Note_on_c, 0, 78, 58
2, 99392, Note_on_c, 0, 69, 52
2, 99488, Note_on_c, 0, 78, 0
2, 99676, Note_on_c, 0, 81, 65
2, 99783, Note_on_c, 0, 79, 75
2, 99899, Note_on_c, 0, 81, 0
2, 99905, Note_on_c, 0, 78, 77
2, 99944, Note_on_c, 0, 79, 0
2, 100009, Note_on_c, 0, 76, 69
2, 100009, Note_on_c, 0, 78, 0
2, 100150, Note_on_c, 0, 75, 68
2, 100152, Note_on_c, 0, 76, 0
2, 100218, Note_on_c, 0, 75, 0
2, 100262, Note_on_c, 0, 69, 0
2, 100278, Note_on_c, 0, 67, 56
2, 100385, Note_on_c, 0, 81, 64
2, 100386, Note_on_c, 0, 67, 0
2, 100397, Note_on_c, 0, 66, 56
2, 100442, Note_on_c, 0, 81, 0
2, 100464, Note_on_c, 0, 66, 0
2, 100516, Note_on_c, 0, 69, 52
2, 100622, Note_on_c, 0, 69, 0
2, 100632, Note_on_c, 0, 79, 71
2, 100638, Note_on_c, 0, 64, 60
2, 100670, Note_on_c, 0, 79, 0
2, 100710, Note_on_c, 0, 64, 0
2, 100762, Note_on_c, 0, 69, 60
2, 100863, Note_on_c, 0, 69, 0
2, 100874, Note_on_c, 0, 63, 62
2, 100874, Note_on_c, 0, 78, 68
2, 100909, Note_on_c, 0, 78, 0
2, 100945, Note_on_c, 0, 63, 0
2, 100996, Note_on_c, 0, 69, 56
2, 101093, Note_on_c, 0, 69, 0
2, 101106, Note_on_c, 0, 61, 62
2, 101108, Note_on_c, 0, 76, 66
2, 101148, Note_on_c, 0, 76, 0
2, 101195, Note_on_c, 0, 61, 0
2, 101231, Note_on_c, 0, 69, 56
2, 101338, Note_on_c, 0, 69, 0
2, 101343, Note_on_c, 0, 75, 68
2, 101351, Note_on_c, 0, 59, 59
2, 101397, Note_on_c, 0, 75, 0
2, 101411, Note_on_c, 0, 59, 0
2, 101462, Note_on_c, 0, 69, 70
2, 101602, Note_on_c, 0, 67, 72
2, 101602, Note_on_c, 0, 76, 60
2, 101629, Note_on_c, 0, 69, 0
2, 101712, Note_on_c, 0, 76, 0
2, 101736, Note_on_c, 0, 67, 0
2, 101857, Note_on_c, 0, 66, 68
2, 101858, Note_on_c, 0, 74, 61
2, 101916, Note_on_c, 0, 74, 0
2, 101971, Note_on_c, 0, 67, 75
2, 101981, Note_on_c, 0, 66, 0
2, 102077, Note_on_c, 0, 67, 0
2, 102091, Note_on_c, 0, 69, 76
2, 102095, Note_on_c, 0, 72, 65
2, 102140, Note_on_c, 0, 72, 0
2, 102210, Note_on_c, 0, 67, 76
2, 102221, Note_on_c, 0, 69, 0
2, 102326, Note_on_c, 0, 66, 72
2, 102334, Note_on_c, 0, 74, 64
2, 102371, Note_on_c, 0, 67, 0
2, 102434, Note_on_c, 0, 74, 0
2, 102445, Note_on_c, 0, 66, 0
2, 102591, Note_on_c, 0, 64, 74
2, 102596, Note_on_c, 0, 72, 72
2, 102661, Note_on_c, 0, 72, 0
2, 102706, Note_on_c, 0, 66, 74
2, 102718, Note_on_c, 0, 64, 0
2, 102816, Note_on_c, 0, 66, 0
2, 102828, Note_on_c, 0, 67, 72
2, 102828, Note_on_c, 0, 71, 77
2, 102880, Note_on_c, 0, 71, 0
2, 102937, Note_on_c, 0, 66, 81
2, 102941, Note_on_c, 0, 67, 0
2, 103050, Note_on_c, 0, 64, 74
2, 103064, Note_on_c, 0, 72, 67
2, 103082, Note_on_c, 0, 66, 0
2, 103137, Note_on_c, 0, 64, 0
2, 103176, Note_on_c, 0, 72, 0
2, 103188, Note_on_c, 0, 84, 76
2, 103299, Note_on_c, 0, 66, 76
2, 103302, Note_on_c, 0, 83, 81
2, 103325, Note_on_c, 0, 84, 0
2, 103369, Note_on_c, 0, 66, 0
2, 103424, Note_on_c, 0, 81, 79
2, 103462, Note_on_c, 0, 83, 0
2, 103543, Note_on_c, 0, 67, 84
2, 103543, Note_on_c, 0, 79, 80
2, 103578, Note_on_c, 0, 81, 0
2, 103611, Note_on_c, 0, 67, 0
2, 103650, Note_on_c, 0, 79, 0
2, 103660, Note_on_c, 0, 83, 73
2, 103785, Note_on_c, 0, 72, 81
2, 103792, Note_on_c, 0, 81, 75
2, 103801, Note_on_c, 0, 83, 0
2, 103861, Note_on_c, 0, 72, 0
2, 103901, Note_on_c, 0, 81, 0
2, 103919, Note_on_c, 0, 83, 70
2, 104043, Note_on_c, 0, 81, 69
2, 104053, Note_on_c, 0, 63, 79
2, 104062, Note_on_c, 0, 83, 0
2, 104140, Note_on_c, 0, 81, 0
2, 104163, Note_on_c, 0, 79, 65
2, 104269, Note_on_c, 0, 79, 0
2, 104287, Note_on_c, 0, 78, 65
2, 104387, Note_on_c, 0, 78, 0
2, 104396, Note_on_c, 0, 81, 68
2, 104445, Note_on_c, 0, 63, 0
2, 104522, Note_on_c, 0, 81, 0
2, 104524, Note_on_c, 0, 64, 76
2, 104533, Note_on_c, 0, 79, 72
2, 104589, Note_on_c, 0, 64, 0
2, 104632, Note_on_c, 0, 79, 0
2, 104642, Note_on_c, 0, 81, 70
2, 104766, Note_on_c, 0, 66, 78
2, 104766, Note_on_c, 0, 79, 73
2, 104819, Note_on_c, 0, 81, 0
2, 104860, Note_on_c, 0, 66, 0
2, 104888, Note_on_c, 0, 78, 76
2, 104907, Note_on_c, 0, 79, 0
2, 104993, Note_on_c, 0, 78, 0
2, 105004, Note_on_c, 0, 76, 73
2, 105006, Note_on_c, 0, 67, 79
2, 105062, Note_on_c, 0, 67, 0
2, 105114, Note_on_c, 0, 76, 0
2, 105125, Note_on_c, 0, 79, 72
2, 105228, Note_on_c, 0, 79, 0
2, 105230, Note_on_c, 0, 78, 66
2, 105239, Note_on_c, 0, 69, 75
2, 105302, Note_on_c, 0, 69, 0
2, 105350, Note_on_c, 0, 78, 0
2, 105359, Note_on_c, 0, 79, 61
2, 105487, Note_on_c, 0, 79, 0
2, 105489, Note_on_c, 0, 59, 68
2, 105489, Note_on_c, 0, 78, 62
2, 105583, Note_on_c, 0, 78, 0
2, 105608, Note_on_c, 0, 76, 56
2, 105705, Note_on_c, 0, 76, 0
2, 105731, Note_on_c, 0, 75, 57
2, 105748, Note_on_c, 0, 59, 0
2, 105816, Note_on_c, 0, 75, 0
2, 105827, Note_on_c, 0, 78, 49
2, 105953, Note_on_c, 0, 60, 48
2, 105958, Note_on_c, 0, 78, 0
2, 105969, Note_on_c, 0, 76, 46
2, 106051, Note_on_c, 0, 60, 0
2, 106069, Note_on_c, 0, 59, 55
2, 106109, Note_on_c, 0, 76, 0
2, 106169, Note_on_c, 0, 59, 0
2, 106200, Note_on_c, 0, 78, 71
2, 106206, Note_on_c, 0, 57, 50
2, 106281, Note_on_c, 0, 57, 0
2, 106310, Note_on_c, 0, 79, 76
2, 106313, Note_on_c, 0, 59, 60
2, 106316, Note_on_c, 0, 78, 0
2, 106418, Note_on_c, 0, 59, 0
2, 106424, Note_on_c, 0, 81, 77
2, 106426, Note_on_c, 0, 60, 67
2, 106474, Note_on_c, 0, 79, 0
2, 106537, Note_on_c, 0, 60, 0
2, 106537, Note_on_c, 0, 62, 75
2, 106637, Note_on_c, 0, 62, 0
2, 106659, Note_on_c, 0, 64, 81
2, 106775, Note_on_c, 0, 63, 77
2, 106787, Note_on_c, 0, 64, 0
2, 106820, Note_on_c, 0, 81, 0
2, 106881, Note_on_c, 0, 63, 0
2, 106891, Note_on_c, 0, 64, 75
2, 106893, Note_on_c, 0, 79, 86
2, 107001, Note_on_c, 0, 64, 0
2, 107003, Note_on_c, 0, 66, 75
2, 107006, Note_on_c, 0, 81, 81
2, 107029, Note_on_c, 0, 79, 0
2, 107121, Note_on_c, 0, 66, 0
2, 107123, Note_on_c, 0, 67, 76
2, 107129, Note_on_c, 0, 83, 85
2, 107145, Note_on_c, 0, 81, 0
2, 107228, Note_on_c, 0, 67, 0
2, 107247, Note_on_c, 0, 69, 78
2, 107278, Note_on_c, 0, 69, 0
2, 107378, Note_on_c, 0, 71, 77
2, 107420, Note_on_c, 0, 83, 0
2, 107509, Note_on_c, 0, 47, 63
2, 107555, Note_on_c, 0, 49, 69
2, 107585, Note_on_c, 0, 47, 0
2, 107598, Note_on_c, 0, 81, 75
2, 107602, Note_on_c, 0, 51, 76
2, 107625, Note_on_c, 0, 49, 0
2, 107668, Note_on_c, 0, 81, 0
2, 107714, Note_on_c, 0, 47, 72
2, 107717, Note_on_c, 0, 51, 0
2, 107823, Note_on_c, 0, 47, 0
2, 107830, Note_on_c, 0, 79, 81
2, 107839, Note_on_c, 0, 52, 72
2, 107887, Note_on_c, 0, 79, 0
2, 107947, Note_on_c, 0, 47, 71
2, 107949, Note_on_c, 0, 52, 0
2, 108065, Note_on_c, 0, 47, 0
2, 108069, Note_on_c, 0, 54, 74
2, 108071, Note_on_c, 0, 78, 80
2, 108114, Note_on_c, 0, 71, 0
2, 108169, Note_on_c, 0, 54, 0
2, 108179, Note_on_c, 0, 47, 73
2, 108179, Note_on_c, 0, 79, 84
2, 108215, Note_on_c, 0, 78, 0
2, 108294, Note_on_c, 0, 47, 0
2, 108298, Note_on_c, 0, 55, 77
2, 108299, Note_on_c, 0, 72, 89
2, 108300, Note_on_c, 0, 81, 79
2, 108311, Note_on_c, 0, 79, 0
2, 108347, Note_on_c, 0, 81, 0
2, 108349, Note_on_c, 0, 72, 0
2, 108395, Note_on_c, 0, 55, 0
2, 108413, Note_on_c, 0, 47, 69
2, 108510, Note_on_c, 0, 47, 0
2, 108542, Note_on_c, 0, 66, 87
2, 108543, Note_on_c, 0, 57, 69
2, 108544, Note_on_c, 0, 75, 85
2, 108579, Note_on_c, 0, 66, 0
2, 108597, Note_on_c, 0, 75, 0
2, 108635, Note_on_c, 0, 57, 0
2, 108644, Note_on_c, 0, 47, 67
2, 108773, Note_on_c, 0, 55, 68
2, 108784, Note_on_c, 0, 64, 89
2, 108791, Note_on_c, 0, 47, 0
2, 108794, Note_on_c, 0, 76, 78
2, 108887, Note_on_c, 0, 66, 85
2, 108897, Note_on_c, 0, 54, 74
2, 108897, Note_on_c, 0, 55, 0
2, 108900, Note_on_c, 0, 64, 0
2, 108988, Note_on_c, 0, 76, 0
2, 109016, Note_on_c, 0, 67, 90
2, 109017, Note_on_c, 0, 66, 0
2, 109019, Note_on_c, 0, 52, 68
2, 109028, Note_on_c, 0, 54, 0
2, 109105, Note_on_c, 0, 52, 0
2, 109153, Note_on_c, 0, 55, 56
2, 109236, Note_on_c, 0, 71, 83
2, 109248, Note_on_c, 0, 55, 0
2, 109251, Note_on_c, 0, 50, 65
2, 109291, Note_on_c, 0, 71, 0
2, 109306, Note_on_c, 0, 50, 0
2, 109369, Note_on_c, 0, 55, 53
2, 109475, Note_on_c, 0, 55, 0
2, 109482, Note_on_c, 0, 69, 77
2, 109483, Note_on_c, 0, 49, 61
2, 109503, Note_on_c, 0, 67, 0
2, 109560, Note_on_c, 0, 49, 0
2, 109591, Note_on_c, 0, 55, 66
2, 109594, Note_on_c, 0, 66, 72
2, 109699, Note_on_c, 0, 55, 0
2, 109707, Note_on_c, 0, 47, 66
2, 109708, Note_on_c, 0, 64, 80
2, 109742, Note_on_c, 0, 66, 0
2, 109790, Note_on_c, 0, 47, 0
2, 109803, Note_on_c, 0, 64, 0
2, 109810, Note_on_c, 0, 62, 80
2, 109817, Note_on_c, 0, 55, 70
2, 109916, Note_on_c, 0, 55, 0
2, 109935, Note_on_c, 0, 45, 70
2, 109942, Note_on_c, 0, 62, 0
2, 109943, Note_on_c, 0, 61, 77
2, 110018, Note_on_c, 0, 45, 0
2, 110048, Note_on_c, 0, 55, 63
2, 110049, Note_on_c, 0, 64, 73
2, 110060, Note_on_c, 0, 61, 0
2, 110164, Note_on_c, 0, 55, 0
2, 110175, Note_on_c, 0, 64, 0
2, 110181, Note_on_c, 0, 62, 78
2, 110182, Note_on_c, 0, 69, 0
2, 110184, Note_on_c, 0, 54, 69
2, 110291, Note_on_c, 0, 64, 84
2, 110295, Note_on_c, 0, 54, 0
2, 110302, Note_on_c, 0, 52, 64
2, 110304, Note_on_c, 0, 62, 0
2, 110399, Note_on_c, 0, 52, 0
2, 110400, Note_on_c, 0, 66, 79
2, 110417, Note_on_c, 0, 50, 70
2, 110420, Note_on_c, 0, 64, 0
2, 110491, Note_on_c, 0, 50, 0
2, 110537, Note_on_c, 0, 54, 67
2, 110631, Note_on_c, 0, 69, 72
2, 110633, Note_on_c, 0, 54, 0
2, 110647, Note_on_c, 0, 49, 62
2, 110691, Note_on_c, 0, 69, 0
2, 110719, Note_on_c, 0, 49, 0
2, 110748, Note_on_c, 0, 54, 62
2, 110863, Note_on_c, 0, 54, 0
2, 110876, Note_on_c, 0, 47, 61
2, 110881, Note_on_c, 0, 67, 78
2, 110894, Note_on_c, 0, 66, 0
2, 110963, Note_on_c, 0, 47, 0
2, 110988, Note_on_c, 0, 54, 63
2, 111000, Note_on_c, 0, 64, 66
2, 111090, Note_on_c, 0, 54, 0
2, 111109, Note_on_c, 0, 64, 0
2, 111112, Note_on_c, 0, 45, 60
2, 111113, Note_on_c, 0, 62, 76
2, 111184, Note_on_c, 0, 45, 0
2, 111211, Note_on_c, 0, 54, 72
2, 111224, Note_on_c, 0, 62, 0
2, 111231, Note_on_c, 0, 61, 73
2, 111326, Note_on_c, 0, 54, 0
2, 111352, Note_on_c, 0, 59, 73
2, 111352, Note_on_c, 0, 61, 0
2, 111361, Note_on_c, 0, 43, 53
2, 111416, Note_on_c, 0, 43, 0
2, 111454, Note_on_c, 0, 54, 61
2, 111467, Note_on_c, 0, 59, 0
2, 111469, Note_on_c, 0, 62, 72
2, 111486, Note_on_c, 0, 67, 0
2, 111532, Note_on_c, 0, 54, 0
2, 111594, Note_on_c, 0, 52, 61
2, 111596, Note_on_c, 0, 61, 81
2, 111620, Note_on_c, 0, 62, 0
2, 111700, Note_on_c, 0, 61, 0
2, 111701, Note_on_c, 0, 52, 0
2, 111707, Note_on_c, 0, 62, 75
2, 111714, Note_on_c, 0, 50, 60
2, 111814, Note_on_c, 0, 50, 0
2, 111825, Note_on_c, 0, 64, 86
2, 111826, Note_on_c, 0, 49, 68
2, 111835, Note_on_c, 0, 62, 0
2, 111895, Note_on_c, 0, 49, 0
2, 111943, Note_on_c, 0, 52, 55
2, 112048, Note_on_c, 0, 52, 0
2, 112062, Note_on_c, 0, 47, 58
2, 112062, Note_on_c, 0, 67, 69
2, 112090, Note_on_c, 0, 67, 0
2, 112117, Note_on_c, 0, 47, 0
2, 112181, Note_on_c, 0, 52, 51
2, 112291, Note_on_c, 0, 52, 0
2, 112303, Note_on_c, 0, 46, 62
2, 112306, Note_on_c, 0, 66, 73
2, 112326, Note_on_c, 0, 64, 0
2, 112379, Note_on_c, 0, 46, 0
2, 112422, Note_on_c, 0, 52, 60
2, 112428, Note_on_c, 0, 62, 76
2, 112521, Note_on_c, 0, 52, 0
2, 112535, Note_on_c, 0, 62, 0
2, 112538, Note_on_c, 0, 44, 61
2, 112547, Note_on_c, 0, 61, 71
2, 112611, Note_on_c, 0, 44, 0
2, 112637, Note_on_c, 0, 61, 0
2, 112648, Note_on_c, 0, 52, 56
2, 112655, Note_on_c, 0, 59, 71
2, 112755, Note_on_c, 0, 59, 0
2, 112758, Note_on_c, 0, 52, 0
2, 112764, Note_on_c, 0, 42, 64
2, 112772, Note_on_c, 0, 58, 69
2, 112836, Note_on_c, 0, 42, 0
2, 112872, Note_on_c, 0, 66, 0
2, 112874, Note_on_c, 0, 61, 66
2, 112883, Note_on_c, 0, 58, 0
2, 112887, Note_on_c, 0, 52, 58
2, 112982, Note_on_c, 0, 52, 0
2, 112985, Note_on_c, 0, 61, 0
2, 113002, Note_on_c, 0, 50, 60
2, 113005, Note_on_c, 0, 59, 56
2, 113027, Note_on_c, 0, 59, 0
2, 113089, Note_on_c, 0, 50, 0
2, 113113, Note_on_c, 0, 54, 71
2, 113138, Note_on_c, 0, 71, 73
2, 113235, Note_on_c, 0, 54, 0
2, 113247, Note_on_c, 0, 52, 68
2, 113247, Note_on_c, 0, 71, 0
2, 113247, Note_on_c, 0, 73, 75
2, 113355, Note_on_c, 0, 52, 0
2, 113356, Note_on_c, 0, 71, 86
2, 113358, Note_on_c, 0, 50, 73
2, 113383, Note_on_c, 0, 73, 0
2, 113469, Note_on_c, 0, 49, 78
2, 113471, Note_on_c, 0, 70, 80
2, 113484, Note_on_c, 0, 50, 0
2, 113508, Note_on_c, 0, 71, 0
2, 113558, Note_on_c, 0, 49, 0
2, 113574, Note_on_c, 0, 71, 86
2, 113575, Note_on_c, 0, 70, 0
2, 113580, Note_on_c, 0, 47, 70
2, 113690, Note_on_c, 0, 47, 0
2, 113700, Note_on_c, 0, 46, 66
2, 113704, Note_on_c, 0, 73, 81
2, 113712, Note_on_c, 0, 71, 0
2, 113770, Note_on_c, 0, 73, 0
2, 113799, Note_on_c, 0, 46, 0
2, 113814, Note_on_c, 0, 49, 80
2, 113936, Note_on_c, 0, 74, 78
2, 113937, Note_on_c, 0, 49, 0
2, 113938, Note_on_c, 0, 47, 74
2, 114050, Note_on_c, 0, 73, 85
2, 114052, Note_on_c, 0, 46, 77
2, 114076, Note_on_c, 0, 47, 0
2, 114089, Note_on_c, 0, 74, 0
2, 114163, Note_on_c, 0, 46, 0
2, 114171, Note_on_c, 0, 71, 89
2, 114174, Note_on_c, 0, 44, 78
2, 114204, Note_on_c, 0, 73, 0
2, 114278, Note_on_c, 0, 73, 76
2, 114285, Note_on_c, 0, 42, 75
2, 114287, Note_on_c, 0, 44, 0
2, 114290, Note_on_c, 0, 71, 0
2, 114401, Note_on_c, 0, 74, 77
2, 114411, Note_on_c, 0, 47, 76
2, 114414, Note_on_c, 0, 42, 0
2, 114452, Note_on_c, 0, 73, 0
2, 114489, Note_on_c, 0, 74, 0
2, 114492, Note_on_c, 0, 47, 0
2, 114663, Note_on_c, 0, 73, 80
2, 114674, Note_on_c, 0, 49, 76
2, 114735, Note_on_c, 0, 73, 0
2, 114774, Note_on_c, 0, 47, 73
2, 114789, Note_on_c, 0, 49, 0
2, 114891, Note_on_c, 0, 47, 0
2, 114899, Note_on_c, 0, 46, 77
2, 114905, Note_on_c, 0, 71, 86
2, 114951, Note_on_c, 0, 71, 0
2, 115011, Note_on_c, 0, 47, 78
2, 115085, Note_on_c, 0, 46, 0
2, 115131, Note_on_c, 0, 47, 0
2, 115135, Note_on_c, 0, 49, 77
2, 115137, Note_on_c, 0, 70, 78
2, 115198, Note_on_c, 0, 70, 0
2, 115221, Note_on_c, 0, 49, 0
2, 115389, Note_on_c, 0, 79, 91
2, 115401, Note_on_c, 0, 50, 73
2, 115512, Note_on_c, 0, 49, 76
2, 115524, Note_on_c, 0, 50, 0
2, 115630, Note_on_c, 0, 47, 80
2, 115647, Note_on_c, 0, 49, 0
2, 115752, Note_on_c, 0, 49, 80
2, 115764, Note_on_c, 0, 47, 0
2, 115857, Note_on_c, 0, 78, 82
2, 115872, Note_on_c, 0, 49, 0
2, 115873, Note_on_c, 0, 50, 83
2, 115890, Note_on_c, 0, 79, 0
2, 115927, Note_on_c, 0, 50, 0
2, 115935, Note_on_c, 0, 78, 0
2, 116110, Note_on_c, 0, 79, 88
2, 116113, Note_on_c, 0, 49, 79
2, 116171, Note_on_c, 0, 49, 0
2, 116226, Note_on_c, 0, 78, 84
2, 116271, Note_on_c, 0, 79, 0
2, 116357, Note_on_c, 0, 47, 73
2, 116360, Note_on_c, 0, 76, 84
2, 116405, Note_on_c, 0, 47, 0
2, 116418, Note_on_c, 0, 78, 0
2, 116449, Note_on_c, 0, 76, 0
2, 116455, Note_on_c, 0, 74, 89
2, 116589, Note_on_c, 0, 46, 71
2, 116589, Note_on_c, 0, 73, 81
2, 116624, Note_on_c, 0, 74, 0
2, 116626, Note_on_c, 0, 46, 0
2, 116684, Note_on_c, 0, 73, 0
2, 116879, Note_on_c, 0, 76, 70
2, 116881, Note_on_c, 0, 55, 83
2, 117002, Note_on_c, 0, 74, 68
2, 117127, Note_on_c, 0, 76, 0
2, 117130, Note_on_c, 0, 73, 71
2, 117169, Note_on_c, 0, 74, 0
2, 117229, Note_on_c, 0, 73, 0
2, 117237, Note_on_c, 0, 71, 75
2, 117359, Note_on_c, 0, 70, 71
2, 117360, Note_on_c, 0, 54, 61
2, 117365, Note_on_c, 0, 71, 0
2, 117370, Note_on_c, 0, 55, 0
2, 117456, Note_on_c, 0, 70, 0
2, 117476, Note_on_c, 0, 71, 68
2, 117478, Note_on_c, 0, 54, 0
2, 117483, Note_on_c, 0, 56, 62
2, 117583, Note_on_c, 0, 56, 0
2, 117589, Note_on_c, 0, 71, 0
2, 117596, Note_on_c, 0, 73, 72
2, 117611, Note_on_c, 0, 58, 60
2, 117697, Note_on_c, 0, 58, 0
2, 117705, Note_on_c, 0, 73, 0
2, 117723, Note_on_c, 0, 54, 62
2, 117723, Note_on_c, 0, 70, 62
2, 117804, Note_on_c, 0, 54, 0
2, 117829, Note_on_c, 0, 70, 0
2, 117846, Note_on_c, 0, 74, 68
2, 117855, Note_on_c, 0, 59, 60
2, 117935, Note_on_c, 0, 74, 0
2, 117939, Note_on_c, 0, 59, 0
2, 117957, Note_on_c, 0, 70, 61
2, 117962, Note_on_c, 0, 54, 52
2, 118056, Note_on_c, 0, 54, 0
2, 118068, Note_on_c, 0, 70, 0
2, 118075, Note_on_c, 0, 76, 74
2, 118081, Note_on_c, 0, 61, 64
2, 118158, Note_on_c, 0, 76, 0
2, 118164, Note_on_c, 0, 61, 0
2, 118192, Note_on_c, 0, 54, 52
2, 118193, Note_on_c, 0, 70, 61
2, 118277, Note_on_c, 0, 54, 0
2, 118297, Note_on_c, 0, 70, 0
2, 118308, Note_on_c, 0, 78, 73
2, 118314, Note_on_c, 0, 62, 63
2, 118397, Note_on_c, 0, 62, 0
2, 118400, Note_on_c, 0, 78, 0
2, 118421, Note_on_c, 0, 70, 65
2, 118425, Note_on_c, 0, 54, 51
2, 118524, Note_on_c, 0, 54, 0
2, 118534, Note_on_c, 0, 70, 0
2, 118550, Note_on_c, 0, 79, 68
2, 118558, Note_on_c, 0, 64, 66
2, 118632, Note_on_c, 0, 64, 0
2, 118646, Note_on_c, 0, 79, 0
2, 118660, Note_on_c, 0, 54, 62
2, 118662, Note_on_c, 0, 70, 60
2, 118741, Note_on_c, 0, 54, 0
2, 118768, Note_on_c, 0, 70, 0
2, 118784, Note_on_c, 0, 78, 73
2, 118788, Note_on_c, 0, 62, 58
2, 118875, Note_on_c, 0, 62, 0
2, 118891, Note_on_c, 0, 78, 0
2, 118895, Note_on_c, 0, 70, 65
2, 118898, Note_on_c, 0, 54, 56
2, 118997, Note_on_c, 0, 70, 0
2, 119001, Note_on_c, 0, 54, 0
2, 119014, Note_on_c, 0, 71, 67
2, 119017, Note_on_c, 0, 56, 56
2, 119071, Note_on_c, 0, 56, 0
2, 119082, Note_on_c, 0, 71, 0
2, 119120, Note_on_c, 0, 62, 62
2, 119124, Note_on_c, 0, 78, 64
2, 119209, Note_on_c, 0, 62, 0
2, 119229, Note_on_c, 0, 78, 0
2, 119236, Note_on_c, 0, 61, 65
2, 119242, Note_on_c, 0, 76, 63
2, 119282, Note_on_c, 0, 61, 0
2, 119288, Note_on_c, 0, 59, 62
2, 119288, Note_on_c, 0, 74, 72
2, 119294, Note_on_c, 0, 76, 0
2, 119326, Note_on_c, 0, 59, 0
2, 119341, Note_on_c, 0, 74, 0
2, 119344, Note_on_c, 0, 58, 62
2, 119352, Note_on_c, 0, 73, 71
2, 119393, Note_on_c, 0, 59, 65
2, 119394, Note_on_c, 0, 58, 0
2, 119402, Note_on_c, 0, 74, 65
2, 119406, Note_on_c, 0, 73, 0
2, 119425, Note_on_c, 0, 59, 0
2, 119454, Note_on_c, 0, 74, 0
2, 119463, Note_on_c, 0, 61, 72
2, 119469, Note_on_c, 0, 76, 72
2, 119547, Note_on_c, 0, 61, 0
2, 119571, Note_on_c, 0, 76, 0
2, 119582, Note_on_c, 0, 52, 54
2, 119583, Note_on_c, 0, 68, 66
2, 119683, Note_on_c, 0, 68, 0
2, 119689, Note_on_c, 0, 52, 0
2, 119694, Note_on_c, 0, 70, 66
2, 119700, Note_on_c, 0, 54, 66
2, 119767, Note_on_c, 0, 54, 0
2, 119790, Note_on_c, 0, 70, 0
2, 119810, Note_on_c, 0, 76, 59
2, 119811, Note_on_c, 0, 61, 57
2, 119888, Note_on_c, 0, 61, 0
2, 119908, Note_on_c, 0, 76, 0
2, 119918, Note_on_c, 0, 74, 69
2, 119919, Note_on_c, 0, 59, 64
2, 119956, Note_on_c, 0, 58, 73
2, 119956, Note_on_c, 0, 59, 0
2, 119964, Note_on_c, 0, 73, 65
2, 119972, Note_on_c, 0, 74, 0
2, 120023, Note_on_c, 0, 58, 0
2, 120030, Note_on_c, 0, 56, 66
2, 120036, Note_on_c, 0, 73, 0
2, 120038, Note_on_c, 0, 71, 64
2, 120077, Note_on_c, 0, 73, 66
2, 120078, Note_on_c, 0, 58, 59
2, 120095, Note_on_c, 0, 71, 0
2, 120099, Note_on_c, 0, 56, 0
2, 120136, Note_on_c, 0, 58, 0
2, 120158, Note_on_c, 0, 73, 0
2, 120159, Note_on_c, 0, 74, 78
2, 120171, Note_on_c, 0, 59, 67
2, 120260, Note_on_c, 0, 59, 0
2, 120273, Note_on_c, 0, 61, 65
2, 120368, Note_on_c, 0, 61, 0
2, 120397, Note_on_c, 0, 62, 66
2, 120499, Note_on_c, 0, 62, 0
2, 120507, Note_on_c, 0, 59, 62
2, 120594, Note_on_c, 0, 59, 0
2, 120632, Note_on_c, 0, 64, 70
2, 120743, Note_on_c, 0, 59, 65
2, 120747, Note_on_c, 0, 64, 0
2, 120854, Note_on_c, 0, 59, 0
2, 120878, Note_on_c, 0, 66, 66
2, 120980, Note_on_c, 0, 66, 0
2, 120994, Note_on_c, 0, 59, 65
2, 121090, Note_on_c, 0, 59, 0
2, 121114, Note_on_c, 0, 68, 64
2, 121194, Note_on_c, 0, 68, 0
2, 121239, Note_on_c, 0, 59, 56
2, 121344, Note_on_c, 0, 59, 0
2, 121353, Note_on_c, 0, 69, 58
2, 121370, Note_on_c, 0, 47, 48
2, 121439, Note_on_c, 0, 69, 0
2, 121446, Note_on_c, 0, 47, 0
2, 121483, Note_on_c, 0, 59, 55
2, 121594, Note_on_c, 0, 59, 0
2, 121600, Note_on_c, 0, 68, 62
2, 121621, Note_on_c, 0, 52, 51
2, 121690, Note_on_c, 0, 68, 0
2, 121717, Note_on_c, 0, 54, 65
2, 121718, Note_on_c, 0, 52, 0
2, 121836, Note_on_c, 0, 54, 0
2, 121837, Note_on_c, 0, 64, 78
2, 121838, Note_on_c, 0, 56, 67
2, 121927, Note_on_c, 0, 64, 0
2, 121957, Note_on_c, 0, 56, 0
2, 121961, Note_on_c, 0, 52, 68
2, 122052, Note_on_c, 0, 52, 0
2, 122070, Note_on_c, 0, 66, 79
2, 122073, Note_on_c, 0, 57, 75
2, 122159, Note_on_c, 0, 66, 0
2, 122189, Note_on_c, 0, 52, 70
2, 122192, Note_on_c, 0, 57, 0
2, 122302, Note_on_c, 0, 52, 0
2, 122307, Note_on_c, 0, 68, 80
2, 122310, Note_on_c, 0, 59, 74
2, 122404, Note_on_c, 0, 68, 0
2, 122438, Note_on_c, 0, 52, 65
2, 122448, Note_on_c, 0, 59, 0
2, 122557, Note_on_c, 0, 69, 88
2, 122558, Note_on_c, 0, 61, 76
2, 122565, Note_on_c, 0, 52, 0
2, 122645, Note_on_c, 0, 69, 0
2, 122670, Note_on_c, 0, 61, 0
2, 122680, Note_on_c, 0, 52, 69
2, 122770, Note_on_c, 0, 52, 0
2, 122791, Note_on_c, 0, 62, 81
2, 122796, Note_on_c, 0, 71, 81
2, 122861, Note_on_c, 0, 71, 0
2, 122914, Note_on_c, 0, 52, 68
2, 122924, Note_on_c, 0, 62, 0
2, 123043, Note_on_c, 0, 52, 0
2, 123043, Note_on_c, 0, 61, 85
2, 123052, Note_on_c, 0, 64, 71
2, 123165, Note_on_c, 0, 64, 0
2, 123166, Note_on_c, 0, 74, 0
2, 123184, Note_on_c, 0, 66, 59
2, 123227, Note_on_c, 0, 68, 65
2, 123265, Note_on_c, 0, 66, 0
2, 123294, Note_on_c, 0, 69, 64
2, 123313, Note_on_c, 0, 68, 0
2, 123402, Note_on_c, 0, 69, 0
2, 123414, Note_on_c, 0, 61, 0
2, 123431, Note_on_c, 0, 64, 72
2, 123434, Note_on_c, 0, 62, 68
2, 123553, Note_on_c, 0, 61, 79
2, 123554, Note_on_c, 0, 71, 70
2, 123557, Note_on_c, 0, 64, 0
2, 123559, Note_on_c, 0, 62, 0
2, 123650, Note_on_c, 0, 71, 0
2, 123670, Note_on_c, 0, 59, 75
2, 123678, Note_on_c, 0, 64, 70
2, 123698, Note_on_c, 0, 61, 0
2, 123792, Note_on_c, 0, 57, 77
2, 123792, Note_on_c, 0, 73, 71
2, 123793, Note_on_c, 0, 59, 0
2, 123800, Note_on_c, 0, 64, 0
2, 123905, Note_on_c, 0, 57, 0
2, 123911, Note_on_c, 0, 59, 80
2, 123923, Note_on_c, 0, 64, 77
2, 123924, Note_on_c, 0, 73, 0
2, 124012, Note_on_c, 0, 59, 0
2, 124025, Note_on_c, 0, 57, 80
2, 124034, Note_on_c, 0, 64, 0
2, 124041, Note_on_c, 0, 74, 74
2, 124141, Note_on_c, 0, 57, 0
2, 124144, Note_on_c, 0, 55, 77
2, 124147, Note_on_c, 0, 66, 72
2, 124161, Note_on_c, 0, 74, 0
2, 124261, Note_on_c, 0, 54, 74
2, 124263, Note_on_c, 0, 49, 70
2, 124266, Note_on_c, 0, 66, 0
2, 124270, Note_on_c, 0, 76, 78
2, 124272, Note_on_c, 0, 55, 0
2, 124347, Note_on_c, 0, 54, 0
2, 124352, Note_on_c, 0, 49, 0
2, 124366, Note_on_c, 0, 76, 0
2, 124382, Note_on_c, 0, 52, 78
2, 124382, Note_on_c, 0, 67, 75
2, 124497, Note_on_c, 0, 67, 0
2, 124508, Note_on_c, 0, 66, 74
2, 124513, Note_on_c, 0, 50, 85
2, 124517, Note_on_c, 0, 52, 0
2, 124611, Note_on_c, 0, 66, 0
2, 124644, Note_on_c, 0, 67, 64
2, 124682, Note_on_c, 0, 67, 0
2, 124714, Note_on_c, 0, 69, 61
2, 124759, Note_on_c, 0, 71, 82
2, 124772, Note_on_c, 0, 69, 0
2, 124838, Note_on_c, 0, 71, 0
2, 124872, Note_on_c, 0, 50, 0
2, 124883, Note_on_c, 0, 52, 75
2, 124886, Note_on_c, 0, 66, 86
2, 124999, Note_on_c, 0, 50, 81
2, 125004, Note_on_c, 0, 73, 84
2, 125016, Note_on_c, 0, 66, 0
2, 125023, Note_on_c, 0, 52, 0
2, 125107, Note_on_c, 0, 73, 0
2, 125115, Note_on_c, 0, 49, 79
2, 125115, Note_on_c, 0, 66, 86
2, 125143, Note_on_c, 0, 50, 0
2, 125224, Note_on_c, 0, 74, 80
2, 125234, Note_on_c, 0, 47, 79
2, 125234, Note_on_c, 0, 49, 0
2, 125238, Note_on_c, 0, 66, 0
2, 125342, Note_on_c, 0, 47, 0
2, 125344, Note_on_c, 0, 66, 87
2, 125347, Note_on_c, 0, 74, 0
2, 125348, Note_on_c, 0, 49, 79
2, 125456, Note_on_c, 0, 49, 0
2, 125465, Note_on_c, 0, 76, 80
2, 125468, Note_on_c, 0, 66, 0
2, 125469, Note_on_c, 0, 47, 79
2, 125555, Note_on_c, 0, 76, 0
2, 125578, Note_on_c, 0, 45, 79
2, 125580, Note_on_c, 0, 67, 80
2, 125581, Note_on_c, 0, 47, 0
2, 125682, Note_on_c, 0, 67, 0
2, 125685, Note_on_c, 0, 43, 78
2, 125700, Note_on_c, 0, 78, 85
2, 125710, Note_on_c, 0, 45, 0
2, 125789, Note_on_c, 0, 78, 0
2, 125794, Note_on_c, 0, 43, 0
2, 125796, Note_on_c, 0, 42, 77
2, 125809, Note_on_c, 0, 69, 78
2, 125926, Note_on_c, 0, 40, 70
2, 125926, Note_on_c, 0, 42, 0
2, 125929, Note_on_c, 0, 69, 0
2, 125932, Note_on_c, 0, 67, 79
2, 125984, Note_on_c, 0, 40, 0
2, 126037, Note_on_c, 0, 66, 84
2, 126059, Note_on_c, 0, 67, 0
2, 126154, Note_on_c, 0, 66, 0
2, 126172, Note_on_c, 0, 67, 87
2, 126178, Note_on_c, 0, 50, 87
2, 126236, Note_on_c, 0, 50, 0
2, 126289, Note_on_c, 0, 71, 81
2, 126292, Note_on_c, 0, 67, 0
2, 126408, Note_on_c, 0, 49, 80
2, 126408, Note_on_c, 0, 71, 0
2, 126416, Note_on_c, 0, 76, 77
2, 126495, Note_on_c, 0, 49, 0
2, 126531, Note_on_c, 0, 67, 81
2, 126535, Note_on_c, 0, 76, 0
2, 126648, Note_on_c, 0, 50, 84
2, 126648, Note_on_c, 0, 66, 78
2, 126657, Note_on_c, 0, 67, 0
2, 126759, Note_on_c, 0, 71, 79
2, 126760, Note_on_c, 0, 50, 0
2, 126767, Note_on_c, 0, 66, 0
2, 126887, Note_on_c, 0, 71, 0
2, 126896, Note_on_c, 0, 52, 78
2, 126899, Note_on_c, 0, 69, 79
2, 127013, Note_on_c, 0, 50, 83
2, 127013, Note_on_c, 0, 52, 0
2, 127016, Note_on_c, 0, 73, 84
2, 127024, Note_on_c, 0, 69, 0
2, 127137, Note_on_c, 0, 49, 74
2, 127137, Note_on_c, 0, 74, 84
2, 127142, Note_on_c, 0, 47, 73
2, 127151, Note_on_c, 0, 50, 0
2, 127175, Note_on_c, 0, 73, 0
2, 127246, Note_on_c, 0, 47, 0
2, 127261, Note_on_c, 0, 50, 86
2, 127275, Note_on_c, 0, 49, 0
2, 127391, Note_on_c, 0, 50, 0
2, 127392, Note_on_c, 0, 52, 81
2, 127393, Note_on_c, 0, 43, 76
2, 127495, Note_on_c, 0, 43, 0
2, 127499, Note_on_c, 0, 52, 0
2, 127502, Note_on_c, 0, 74, 0
2, 127657, Note_on_c, 0, 54, 82
2, 127658, Note_on_c, 0, 73, 85
2, 127669, Note_on_c, 0, 45, 67
2, 127778, Note_on_c, 0, 52, 77
2, 127784, Note_on_c, 0, 54, 0
2, 127895, Note_on_c, 0, 50, 79
2, 127911, Note_on_c, 0, 52, 0
2, 128011, Note_on_c, 0, 50, 0
2, 128011, Note_on_c, 0, 52, 80
2, 128131, Note_on_c, 0, 74, 76
2, 128134, Note_on_c, 0, 45, 0
2, 128136, Note_on_c, 0, 50, 73
2, 128136, Note_on_c, 0, 54, 84
2, 128141, Note_on_c, 0, 52, 0
2, 128194, Note_on_c, 0, 73, 0
2, 128208, Note_on_c, 0, 50, 0
2, 128211, Note_on_c, 0, 54, 0
2, 128216, Note_on_c, 0, 74, 0
2, 128384, Note_on_c, 0, 52, 80
2, 128391, Note_on_c, 0, 49, 69
2, 128392, Note_on_c, 0, 76, 85
2, 128434, Note_on_c, 0, 49, 0
2, 128435, Note_on_c, 0, 52, 0
2, 128511, Note_on_c, 0, 74, 84
2, 128550, Note_on_c, 0, 76, 0
2, 128633, Note_on_c, 0, 73, 93
2, 128635, Note_on_c, 0, 47, 69
2, 128635, Note_on_c, 0, 50, 77
2, 128666, Note_on_c, 0, 74, 0
2, 128699, Note_on_c, 0, 47, 0
2, 128699, Note_on_c, 0, 50, 0
2, 128749, Note_on_c, 0, 74, 84
2, 128768, Note_on_c, 0, 73, 0
2, 128874, Note_on_c, 0, 49, 71
2, 128876, Note_on_c, 0, 76, 81
2, 128889, Note_on_c, 0, 45, 71
2, 128915, Note_on_c, 0, 74, 0
2, 128946, Note_on_c, 0, 76, 0
2, 128956, Note_on_c, 0, 49, 0
2, 129166, Note_on_c, 0, 59, 84
2, 129166, Note_on_c, 0, 78, 82
2, 129297, Note_on_c, 0, 76, 80
2, 129364, Note_on_c, 0, 78, 0
2, 129421, Note_on_c, 0, 74, 80
2, 129424, Note_on_c, 0, 76, 0
2, 129534, Note_on_c, 0, 76, 80
2, 129561, Note_on_c, 0, 74, 0
2, 129656, Note_on_c, 0, 78, 81
2, 129658, Note_on_c, 0, 59, 0
2, 129671, Note_on_c, 0, 57, 66
2, 129691, Note_on_c, 0, 76, 0
2, 129754, Note_on_c, 0, 57, 0
2, 129778, Note_on_c, 0, 78, 0
2, 129922, Note_on_c, 0, 59, 66
2, 129922, Note_on_c, 0, 79, 86
2, 130041, Note_on_c, 0, 78, 86
2, 130046, Note_on_c, 0, 59, 0
2, 130052, Note_on_c, 0, 57, 74
2, 130084, Note_on_c, 0, 79, 0
2, 130127, Note_on_c, 0, 57, 0
2, 130162, Note_on_c, 0, 76, 88
2, 130166, Note_on_c, 0, 55, 78
2, 130212, Note_on_c, 0, 78, 0
2, 130265, Note_on_c, 0, 76, 0
2, 130271, Note_on_c, 0, 54, 75
2, 130271, Note_on_c, 0, 55, 0
2, 130271, Note_on_c, 0, 74, 82
2, 130396, Note_on_c, 0, 54, 0
2, 130399, Note_on_c, 0, 73, 84
2, 130404, Note_on_c, 0, 52, 62
2, 130431, Note_on_c, 0, 74, 0
2, 130445, Note_on_c, 0, 52, 0
2, 130471, Note_on_c, 0, 73, 0
2, 130662, Note_on_c, 0, 83, 90
2, 130671, Note_on_c, 0, 55, 62
2, 130776, Note_on_c, 0, 54, 78
2, 130783, Note_on_c, 0, 55, 0
2, 130881, Note_on_c, 0, 54, 0
2, 130903, Note_on_c, 0, 52, 79
2, 131026, Note_on_c, 0, 50, 76
2, 131026, Note_on_c, 0, 52, 0
2, 131145, Note_on_c, 0, 49, 74
2, 131166, Note_on_c, 0, 50, 0
2, 131250, Note_on_c, 0, 83, 0
2, 131255, Note_on_c, 0, 81, 79
2, 131386, Note_on_c, 0, 83, 78
2, 131398, Note_on_c, 0, 81, 0
2, 131502, Note_on_c, 0, 81, 82
2, 131512, Note_on_c, 0, 83, 0
2, 131633, Note_on_c, 0, 79, 80
2, 131638, Note_on_c, 0, 49, 0
2, 131642, Note_on_c, 0, 50, 67
2, 131656, Note_on_c, 0, 81, 0
2, 131747, Note_on_c, 0, 78, 78
2, 131759, Note_on_c, 0, 79, 0
2, 131805, Note_on_c, 0, 78, 0
2, 131815, Note_on_c, 0, 50, 0
2, 131888, Note_on_c, 0, 78, 68
2, 131924, Note_on_c, 0, 78, 0
2, 131943, Note_on_c, 0, 76, 70
2, 131976, Note_on_c, 0, 76, 0
2, 131999, Note_on_c, 0, 78, 69
2, 132026, Note_on_c, 0, 55, 53
2, 132036, Note_on_c, 0, 78, 0
2, 132047, Note_on_c, 0, 54, 78
2, 132056, Note_on_c, 0, 76, 71
2, 132057, Note_on_c, 0, 55, 0
2, 132085, Note_on_c, 0, 76, 0
2, 132102, Note_on_c, 0, 78, 70
2, 132126, Note_on_c, 0, 52, 61
2, 132126, Note_on_c, 0, 54, 0
2, 132140, Note_on_c, 0, 78, 0
2, 132157, Note_on_c, 0, 76, 68
2, 132185, Note_on_c, 0, 52, 0
2, 132194, Note_on_c, 0, 76, 0
2, 132207, Note_on_c, 0, 78, 70
2, 132218, Note_on_c, 0, 55, 64
2, 132244, Note_on_c, 0, 78, 0
2, 132279, Note_on_c, 0, 76, 58
2, 132309, Note_on_c, 0, 76, 0
2, 132316, Note_on_c, 0, 55, 0
2, 132324, Note_on_c, 0, 78, 55
2, 132325, Note_on_c, 0, 50, 65
2, 132350, Note_on_c, 0, 78, 0
2, 132384, Note_on_c, 0, 76, 58
2, 132392, Note_on_c, 0, 50, 0
2, 132404, Note_on_c, 0, 76, 0
2, 132431, Note_on_c, 0, 78, 53
2, 132444, Note_on_c, 0, 55, 53
2, 132455, Note_on_c, 0, 78, 0
2, 132483, Note_on_c, 0, 76, 52
2, 132506, Note_on_c, 0, 76, 0
2, 132526, Note_on_c, 0, 78, 49
2, 132548, Note_on_c, 0, 55, 0
2, 132550, Note_on_c, 0, 49, 66
2, 132550, Note_on_c, 0, 78, 0
2, 132585, Note_on_c, 0, 76, 45
2, 132591, Note_on_c, 0, 45, 0
2, 132610, Note_on_c, 0, 76, 0
2, 132622, Note_on_c, 0, 78, 63
2, 132623, Note_on_c, 0, 49, 0
2, 132645, Note_on_c, 0, 78, 0
2, 132669, Note_on_c, 0, 55, 58
2, 132680, Note_on_c, 0, 76, 50
2, 132703, Note_on_c, 0, 76, 0
2, 132718, Note_on_c, 0, 78, 59
2, 132741, Note_on_c, 0, 78, 0
2, 132768, Note_on_c, 0, 55, 0
2, 132775, Note_on_c, 0, 76, 60
2, 132782, Note_on_c, 0, 47, 75
2, 132794, Note_on_c, 0, 76, 0
2, 132809, Note_on_c, 0, 78, 64
2, 132834, Note_on_c, 0, 78, 0
2, 132854, Note_on_c, 0, 47, 0
2, 132862, Note_on_c, 0, 76, 65
2, 132890, Note_on_c, 0, 55, 63
2, 132892, Note_on_c, 0, 76, 0
2, 132908, Note_on_c, 0, 78, 64
2, 132929, Note_on_c, 0, 78, 0
2, 132955, Note_on_c, 0, 76, 67
2, 132989, Note_on_c, 0, 76, 0
2, 132999, Note_on_c, 0, 78, 71
2, 133006, Note_on_c, 0, 55, 0
2, 133019, Note_on_c, 0, 45, 75
2, 133030, Note_on_c, 0, 78, 0
2, 133046, Note_on_c, 0, 76, 65
2, 133089, Note_on_c, 0, 76, 0
2, 133098, Note_on_c, 0, 45, 0
2, 133108, Note_on_c, 0, 78, 69
2, 133129, Note_on_c, 0, 55, 67
2, 133148, Note_on_c, 0, 78, 0
2, 133163, Note_on_c, 0, 76, 64
2, 133197, Note_on_c, 0, 78, 64
2, 133202, Note_on_c, 0, 76, 0
2, 133252, Note_on_c, 0, 55, 0
2, 133258, Note_on_c, 0, 54, 77
2, 133258, Note_on_c, 0, 78, 0
2, 133380, Note_on_c, 0, 54, 0
2, 133380, Note_on_c, 0, 55, 81
2, 133383, Note_on_c, 0, 81, 72
2, 133423, Note_on_c, 0, 79, 77
2, 133461, Note_on_c, 0, 81, 0
2, 133478, Note_on_c, 0, 55, 0
2, 133486, Note_on_c, 0, 57, 83
2, 133495, Note_on_c, 0, 78, 75
2, 133510, Note_on_c, 0, 79, 0
2, 133620, Note_on_c, 0, 81, 71
2, 133622, Note_on_c, 0, 52, 71
2, 133625, Note_on_c, 0, 78, 0
2, 133738, Note_on_c, 0, 50, 78
2, 133744, Note_on_c, 0, 76, 76
2, 133753, Note_on_c, 0, 81, 0
2, 133756, Note_on_c, 0, 52, 0
2, 133777, Note_on_c, 0, 57, 0
2, 133861, Note_on_c, 0, 76, 0
2, 133863, Note_on_c, 0, 49, 80
2, 133864, Note_on_c, 0, 50, 0
2, 133869, Note_on_c, 0, 81, 72
2, 133982, Note_on_c, 0, 47, 78
2, 133995, Note_on_c, 0, 49, 0
2, 133997, Note_on_c, 0, 81, 0
2, 133999, Note_on_c, 0, 74, 73
2, 134097, Note_on_c, 0, 55, 69
2, 134102, Note_on_c, 0, 74, 0
2, 134122, Note_on_c, 0, 81, 59
2, 134217, Note_on_c, 0, 54, 75
2, 134218, Note_on_c, 0, 55, 0
2, 134221, Note_on_c, 0, 81, 0
2, 134230, Note_on_c, 0, 73, 69
2, 134324, Note_on_c, 0, 73, 0
2, 134334, Note_on_c, 0, 52, 74
2, 134344, Note_on_c, 0, 81, 65
2, 134352, Note_on_c, 0, 54, 0
2, 134452, Note_on_c, 0, 52, 0
2, 134459, Note_on_c, 0, 50, 73
2, 134459, Note_on_c, 0, 81, 0
2, 134469, Note_on_c, 0, 71, 75
2, 134569, Note_on_c, 0, 54, 78
2, 134569, Note_on_c, 0, 71, 0
2, 134580, Note_on_c, 0, 81, 70
2, 134585, Note_on_c, 0, 50, 0
2, 134704, Note_on_c, 0, 52, 80
2, 134707, Note_on_c, 0, 79, 73
2, 134710, Note_on_c, 0, 54, 0
2, 134721, Note_on_c, 0, 81, 0
2, 134734, Note_on_c, 0, 47, 0
2, 134817, Note_on_c, 0, 78, 68
2, 134819, Note_on_c, 0, 52, 0
2, 134819, Note_on_c, 0, 54, 84
2, 134829, Note_on_c, 0, 79, 0
2, 134928, Note_on_c, 0, 54, 0
2, 134935, Note_on_c, 0, 55, 79
2, 134936, Note_on_c, 0, 76, 70
2, 134965, Note_on_c, 0, 78, 0
2, 135041, Note_on_c, 0, 76, 0
2, 135044, Note_on_c, 0, 79, 64
2, 135063, Note_on_c, 0, 50, 74
2, 135163, Note_on_c, 0, 79, 0
2, 135170, Note_on_c, 0, 74, 63
2, 135182, Note_on_c, 0, 49, 71
2, 135213, Note_on_c, 0, 50, 0
2, 135240, Note_on_c, 0, 55, 0
2, 135289, Note_on_c, 0, 74, 0
2, 135289, Note_on_c, 0, 79, 69
2, 135297, Note_on_c, 0, 49, 0
2, 135305, Note_on_c, 0, 47, 72
2, 135424, Note_on_c, 0, 45, 75
2, 135425, Note_on_c, 0, 47, 0
2, 135430, Note_on_c, 0, 73, 74
2, 135432, Note_on_c, 0, 79, 0
2, 135548, Note_on_c, 0, 79, 72
2, 135549, Note_on_c, 0, 54, 76
2, 135549, Note_on_c, 0, 73, 0
2, 135663, Note_on_c, 0, 79, 0
2, 135664, Note_on_c, 0, 71, 73
2, 135668, Note_on_c, 0, 52, 78
2, 135670, Note_on_c, 0, 54, 0
2, 135760, Note_on_c, 0, 71, 0
2, 135779, Note_on_c, 0, 79, 71
2, 135784, Note_on_c, 0, 50, 78
2, 135790, Note_on_c, 0, 52, 0
2, 135884, Note_on_c, 0, 79, 0
2, 135897, Note_on_c, 0, 49, 78
2, 135906, Note_on_c, 0, 69, 65
2, 135918, Note_on_c, 0, 50, 0
2, 135984, Note_on_c, 0, 69, 0
2, 136004, Note_on_c, 0, 49, 0
2, 136010, Note_on_c, 0, 79, 64
2, 136012, Note_on_c, 0, 52, 75
2, 136117, Note_on_c, 0, 79, 0
2, 136124, Note_on_c, 0, 50, 77
2, 136129, Note_on_c, 0, 78, 65
2, 136133, Note_on_c, 0, 45, 0
2, 136133, Note_on_c, 0, 52, 0
2, 136244, Note_on_c, 0, 78, 0
2, 136245, Note_on_c, 0, 76, 69
2, 136249, Note_on_c, 0, 50, 0
2, 136254, Note_on_c, 0, 52, 79
2, 136352, Note_on_c, 0, 52, 0
2, 136365, Note_on_c, 0, 54, 82
2, 136372, Note_on_c, 0, 74, 66
2, 136374, Note_on_c, 0, 76, 0
2, 136487, Note_on_c, 0, 48, 74
2, 136491, Note_on_c, 0, 78, 65
2, 136492, Note_on_c, 0, 74, 0
2, 136604, Note_on_c, 0, 78, 0
2, 136610, Note_on_c, 0, 47, 71
2, 136619, Note_on_c, 0, 72, 65
2, 136647, Note_on_c, 0, 48, 0
2, 136701, Note_on_c, 0, 54, 0
2, 136724, Note_on_c, 0, 72, 0
2, 136732, Note_on_c, 0, 45, 73
2, 136735, Note_on_c, 0, 78, 68
2, 136757, Note_on_c, 0, 47, 0
2, 136831, Note_on_c, 0, 78, 0
2, 136854, Note_on_c, 0, 43, 74
2, 136856, Note_on_c, 0, 45, 0
2, 136861, Note_on_c, 0, 71, 73
2, 136946, Note_on_c, 0, 71, 0
2, 136976, Note_on_c, 0, 78, 67
2, 136980, Note_on_c, 0, 47, 72
2, 137094, Note_on_c, 0, 78, 0
2, 137101, Note_on_c, 0, 49, 75
2, 137111, Note_on_c, 0, 69, 64
2, 137196, Note_on_c, 0, 69, 0
2, 137212, Note_on_c, 0, 50, 83
2, 137215, Note_on_c, 0, 47, 0
2, 137219, Note_on_c, 0, 78, 70
2, 137237, Note_on_c, 0, 49, 0
2, 137274, Note_on_c, 0, 43, 0
2, 137320, Note_on_c, 0, 50, 0
2, 137334, Note_on_c, 0, 52, 73
2, 137342, Note_on_c, 0, 67, 66
2, 137344, Note_on_c, 0, 78, 0
2, 137433, Note_on_c, 0, 67, 0
2, 137442, Note_on_c, 0, 54, 79
2, 137450, Note_on_c, 0, 78, 71
2, 137453, Note_on_c, 0, 52, 0
2, 137555, Note_on_c, 0, 54, 0
2, 137561, Note_on_c, 0, 55, 80
2, 137561, Note_on_c, 0, 78, 0
2, 137565, Note_on_c, 0, 76, 71
2, 137669, Note_on_c, 0, 55, 0
2, 137674, Note_on_c, 0, 76, 0
2, 137677, Note_on_c, 0, 74, 71
2, 137678, Note_on_c, 0, 57, 77
2, 137809, Note_on_c, 0, 73, 75
2, 137813, Note_on_c, 0, 55, 77
2, 137816, Note_on_c, 0, 57, 0
2, 137823, Note_on_c, 0, 74, 0
2, 137916, Note_on_c, 0, 73, 0
2, 137919, Note_on_c, 0, 76, 67
2, 137924, Note_on_c, 0, 54, 78
2, 137950, Note_on_c, 0, 55, 0
2, 138023, Note_on_c, 0, 54, 0
2, 138042, Note_on_c, 0, 76, 0
2, 138048, Note_on_c, 0, 52, 74
2, 138057, Note_on_c, 0, 71, 70
2, 138146, Note_on_c, 0, 71, 0
2, 138161, Note_on_c, 0, 76, 71
2, 138163, Note_on_c, 0, 52, 0
2, 138164, Note_on_c, 0, 50, 73
2, 138257, Note_on_c, 0, 76, 0
2, 138274, Note_on_c, 0, 50, 0
2, 138277, Note_on_c, 0, 49, 71
2, 138283, Note_on_c, 0, 69, 60
2, 138365, Note_on_c, 0, 69, 0
2, 138389, Note_on_c, 0, 49, 0
2, 138393, Note_on_c, 0, 76, 63
2, 138403, Note_on_c, 0, 45, 72
2, 138500, Note_on_c, 0, 76, 0
2, 138521, Note_on_c, 0, 47, 75
2, 138523, Note_on_c, 0, 67, 66
2, 138528, Note_on_c, 0, 45, 0
2, 138609, Note_on_c, 0, 67, 0
2, 138643, Note_on_c, 0, 76, 57
2, 138651, Note_on_c, 0, 49, 77
2, 138670, Note_on_c, 0, 47, 0
2, 138739, Note_on_c, 0, 76, 0
2, 138756, Note_on_c, 0, 49, 0
2, 138760, Note_on_c, 0, 66, 73
2, 138763, Note_on_c, 0, 50, 78
2, 138852, Note_on_c, 0, 50, 0
2, 138857, Note_on_c, 0, 66, 0
2, 138873, Note_on_c, 0, 52, 75
2, 138873, Note_on_c, 0, 76, 66
2, 138981, Note_on_c, 0, 74, 74
2, 138990, Note_on_c, 0, 54, 84
2, 139003, Note_on_c, 0, 76, 0
2, 139009, Note_on_c, 0, 52, 0
2, 139103, Note_on_c, 0, 74, 0
2, 139106, Note_on_c, 0, 66, 76
2, 139112, Note_on_c, 0, 54, 0
2, 139114, Note_on_c, 0, 55, 82
2, 139234, Note_on_c, 0, 66, 0
2, 139237, Note_on_c, 0, 55, 0
2, 139237, Note_on_c, 0, 64, 79
2, 139241, Note_on_c, 0, 57, 85
2, 139364, Note_on_c, 0, 67, 78
2, 139367, Note_on_c, 0, 64, 0
2, 139374, Note_on_c, 0, 57, 0
2, 139488, Note_on_c, 0, 45, 67
2, 139494, Note_on_c, 0, 74, 66
2, 139497, Note_on_c, 0, 67, 0
2, 139602, Note_on_c, 0, 74, 0
2, 139611, Note_on_c, 0, 45, 0
2, 139616, Note_on_c, 0, 73, 63
2, 139704, Note_on_c, 0, 73, 0
2, 139760, Note_on_c, 0, 50, 61
2, 139762, Note_on_c, 0, 74, 51
2, 139805, Note_on_c, 0, 74, 0
2, 139822, Note_on_c, 0, 76, 64
2, 139872, Note_on_c, 0, 76, 0
2, 139896, Note_on_c, 0, 74, 61
2, 139924, Note_on_c, 0, 50, 0
2, 139936, Note_on_c, 0, 74, 0
2, 139951, Note_on_c, 0, 76, 63
2, 140007, Note_on_c, 0, 76, 0
2, 140016, Note_on_c, 0, 48, 77
2, 140020, Note_on_c, 0, 74, 64
2, 140064, Note_on_c, 0, 74, 0
2, 140083, Note_on_c, 0, 76, 63
2, 140127, Note_on_c, 0, 50, 78
2, 140129, Note_on_c, 0, 48, 0
2, 140129, Note_on_c, 0, 76, 0
2, 140140, Note_on_c, 0, 74, 60
2, 140184, Note_on_c, 0, 74, 0
2, 140193, Note_on_c, 0, 76, 64
2, 140226, Note_on_c, 0, 50, 0
2, 140236, Note_on_c, 0, 52, 80
2, 140240, Note_on_c, 0, 76, 0
2, 140253, Note_on_c, 0, 74, 64
2, 140294, Note_on_c, 0, 74, 0
2, 140303, Note_on_c, 0, 76, 63
2, 140345, Note_on_c, 0, 76, 0
2, 140359, Note_on_c, 0, 74, 62
2, 140360, Note_on_c, 0, 50, 77
2, 140370, Note_on_c, 0, 52, 0
2, 140405, Note_on_c, 0, 74, 0
2, 140411, Note_on_c, 0, 76, 62
2, 140449, Note_on_c, 0, 76, 0
2, 140462, Note_on_c, 0, 74, 61
2, 140491, Note_on_c, 0, 48, 80
2, 140504, Note_on_c, 0, 74, 0
2, 140518, Note_on_c, 0, 50, 0
2, 140521, Note_on_c, 0, 76, 65
2, 140552, Note_on_c, 0, 76, 0
2, 140566, Note_on_c, 0, 74, 61
2, 140606, Note_on_c, 0, 74, 0
2, 140616, Note_on_c, 0, 76, 72
2, 140618, Note_on_c, 0, 48, 0
2, 140652, Note_on_c, 0, 76, 0
2, 140674, Note_on_c, 0, 74, 55
2, 140705, Note_on_c, 0, 74, 0
2, 140723, Note_on_c, 0, 76, 50
2, 140759, Note_on_c, 0, 76, 0
2, 140762, Note_on_c, 0, 47, 74
2, 140768, Note_on_c, 0, 74, 67
2, 140877, Note_on_c, 0, 48, 77
2, 140887, Note_on_c, 0, 47, 0
2, 140980, Note_on_c, 0, 48, 0
2, 140987, Note_on_c, 0, 50, 76
2, 141114, Note_on_c, 0, 48, 76
2, 141123, Note_on_c, 0, 50, 0
2, 141242, Note_on_c, 0, 47, 75
2, 141257, Note_on_c, 0, 48, 0
2, 141331, Note_on_c, 0, 47, 0
2, 141334, Note_on_c, 0, 67, 70
2, 141453, Note_on_c, 0, 67, 0
2, 141465, Note_on_c, 0, 48, 76
2, 141465, Note_on_c, 0, 65, 69
2, 141560, Note_on_c, 0, 48, 0
2, 141587, Note_on_c, 0, 64, 78
2, 141603, Note_on_c, 0, 65, 0
2, 141717, Note_on_c, 0, 50, 85
2, 141717, Note_on_c, 0, 64, 0
2, 141727, Note_on_c, 0, 62, 76
2, 141809, Note_on_c, 0, 50, 0
2, 141838, Note_on_c, 0, 62, 0
2, 141845, Note_on_c, 0, 65, 73
2, 141969, Note_on_c, 0, 65, 0
2, 141974, Note_on_c, 0, 55, 81
2, 141978, Note_on_c, 0, 64, 76
2, 142076, Note_on_c, 0, 55, 0
2, 142095, Note_on_c, 0, 65, 72
2, 142102, Note_on_c, 0, 64, 0
2, 142119, Note_on_c, 0, 74, 0
2, 142224, Note_on_c, 0, 65, 0
2, 142231, Note_on_c, 0, 64, 79
2, 142236, Note_on_c, 0, 45, 77
2, 142242, Note_on_c, 0, 72, 64
2, 142352, Note_on_c, 0, 64, 0
2, 142355, Note_on_c, 0, 62, 70
2, 142485, Note_on_c, 0, 62, 0
2, 142492, Note_on_c, 0, 60, 80
2, 142535, Note_on_c, 0, 45, 0
2, 142601, Note_on_c, 0, 60, 0
2, 142606, Note_on_c, 0, 64, 74
2, 142717, Note_on_c, 0, 47, 79
2, 142737, Note_on_c, 0, 64, 0
2, 142744, Note_on_c, 0, 62, 72
2, 142815, Note_on_c, 0, 47, 0
2, 142854, Note_on_c, 0, 64, 78
2, 142855, Note_on_c, 0, 62, 0
2, 142859, Note_on_c, 0, 72, 0
2, 142960, Note_on_c, 0, 48, 83
2, 142969, Note_on_c, 0, 64, 0
2, 142975, Note_on_c, 0, 62, 76
2, 142986, Note_on_c, 0, 71, 64
2, 143059, Note_on_c, 0, 48, 0
2, 143090, Note_on_c, 0, 62, 0
2, 143099, Note_on_c, 0, 60, 74
2, 143221, Note_on_c, 0, 50, 82
2, 143224, Note_on_c, 0, 60, 0
2, 143237, Note_on_c, 0, 59, 74
2, 143305, Note_on_c, 0, 50, 0
2, 143343, Note_on_c, 0, 59, 0
2, 143352, Note_on_c, 0, 62, 71
2, 143478, Note_on_c, 0, 52, 78
2, 143486, Note_on_c, 0, 62, 0
2, 143492, Note_on_c, 0, 60, 77
2, 143592, Note_on_c, 0, 52, 0
2, 143602, Note_on_c, 0, 60, 0
2, 143603, Note_on_c, 0, 62, 75
2, 143617, Note_on_c, 0, 71, 0
2, 143726, Note_on_c, 0, 62, 0
2, 143731, Note_on_c, 0, 42, 84
2, 143733, Note_on_c, 0, 60, 76
2, 143742, Note_on_c, 0, 69, 65
2, 143848, Note_on_c, 0, 60, 0
2, 143858, Note_on_c, 0, 59, 70
2, 143978, Note_on_c, 0, 59, 0
2, 143994, Note_on_c, 0, 57, 71
2, 144009, Note_on_c, 0, 42, 0
2, 144095, Note_on_c, 0, 57, 0
2, 144110, Note_on_c, 0, 60, 62
2, 144232, Note_on_c, 0, 60, 0
2, 144238, Note_on_c, 0, 43, 62
2, 144240, Note_on_c, 0, 69, 0
2, 144250, Note_on_c, 0, 59, 65
2, 144359, Note_on_c, 0, 43, 0
2, 144359, Note_on_c, 0, 67, 61
2, 144475, Note_on_c, 0, 67, 0
2, 144485, Note_on_c, 0, 69, 58
2, 144489, Note_on_c, 0, 42, 54
2, 144580, Note_on_c, 0, 69, 0
2, 144603, Note_on_c, 0, 42, 0
2, 144620, Note_on_c, 0, 43, 55
2, 144626, Note_on_c, 0, 67, 57
2, 144630, Control_c, 0, 67, 30
2, 144639, Note_on_c, 0, 59, 0
2, 144645, Control_c, 0, 67, 55
2, 144659, Control_c, 0, 67, 71
2, 144675, Control_c, 0, 67, 88
2, 144690, Control_c, 0, 67, 112
2, 144704, Control_c, 0, 67, 127
2, 144705, Note_on_c, 0, 43, 0
2, 144736, Note_on_c, 0, 67, 0
2, 144742, Note_on_c, 0, 45, 48
2, 144749, Note_on_c, 0, 66, 56
2, 144777, Note_on_c, 0, 45, 0
2, 144821, Note_on_c, 0, 66, 0
2, 144833, Note_on_c, 0, 47, 49
2, 144900, Note_on_c, 0, 67, 24
2, 144933, Note_on_c, 0, 67, 0
2, 144942, Note_on_c, 0, 47, 0
2, 144961, Note_on_c, 0, 36, 46
2, 144968, Note_on_c, 0, 66, 52
2, 144986, Note_on_c, 0, 57, 30
2, 145026, Note_on_c, 0, 36, 0
2, 145030, Note_on_c, 0, 57, 0
2, 145062, Note_on_c, 0, 66, 0
2, 145105, Note_on_c, 0, 62, 49
2, 145157, Note_on_c, 0, 62, 0
2, 145162, Note_on_c, 0, 64, 57
2, 145219, Note_on_c, 0, 64, 0
2, 145225, Note_on_c, 0, 66, 49
2, 145311, Note_on_c, 0, 66, 0
2, 145349, Note_on_c, 0, 59, 55
2, 145356, Note_on_c, 0, 62, 51
2, 145401, Note_on_c, 0, 59, 0
2, 145453, Note_on_c, 0, 62, 0
2, 145471, Note_on_c, 0, 57, 49
2, 145479, Note_on_c, 0, 67, 58
2, 145544, Note_on_c, 0, 67, 0
2, 145556, Note_on_c, 0, 57, 0
2, 145592, Note_on_c, 0, 62, 55
2, 145596, Note_on_c, 0, 55, 44
2, 145681, Note_on_c, 0, 55, 0
2, 145681, Note_on_c, 0, 62, 0
2, 145696, Note_on_c, 0, 54, 57
2, 145703, Note_on_c, 0, 69, 61
2, 145776, Note_on_c, 0, 69, 0
2, 145777, Note_on_c, 0, 54, 0
2, 145812, Note_on_c, 0, 52, 53
2, 145817, Note_on_c, 0, 62, 54
2, 145887, Note_on_c, 0, 52, 0
2, 145907, Note_on_c, 0, 62, 0
2, 145935, Note_on_c, 0, 71, 62
2, 145942, Note_on_c, 0, 50, 52
2, 145999, Note_on_c, 0, 71, 0
2, 146011, Note_on_c, 0, 50, 0
2, 146048, Note_on_c, 0, 62, 57
2, 146062, Note_on_c, 0, 48, 44
2, 146145, Note_on_c, 0, 48, 0
2, 146147, Note_on_c, 0, 62, 0
2, 146172, Note_on_c, 0, 72, 63
2, 146182, Note_on_c, 0, 47, 46
2, 146242, Note_on_c, 0, 47, 0
2, 146245, Note_on_c, 0, 72, 0
2, 146285, Note_on_c, 0, 45, 47
2, 146289, Note_on_c, 0, 62, 59
2, 146363, Note_on_c, 0, 45, 0
2, 146374, Note_on_c, 0, 62, 0
2, 146412, Note_on_c, 0, 43, 45
2, 146416, Note_on_c, 0, 71, 60
2, 146479, Note_on_c, 0, 43, 0
2, 146505, Note_on_c, 0, 45, 50
2, 146505, Note_on_c, 0, 71, 0
2, 146534, Note_on_c, 0, 79, 56
2, 146575, Note_on_c, 0, 45, 0
2, 146633, Note_on_c, 0, 79, 0
2, 146636, Note_on_c, 0, 47, 40
2, 146645, Note_on_c, 0, 77, 66
2, 146684, Note_on_c, 0, 47, 0
2, 146727, Note_on_c, 0, 77, 0
2, 146740, Note_on_c, 0, 43, 43
2, 146754, Note_on_c, 0, 76, 58
2, 146842, Note_on_c, 0, 43, 0
2, 146863, Note_on_c, 0, 76, 0
2, 146874, Note_on_c, 0, 74, 59
2, 146878, Note_on_c, 0, 48, 49
2, 146941, Note_on_c, 0, 48, 0
2, 146966, Note_on_c, 0, 74, 0
2, 146986, Note_on_c, 0, 43, 44
2, 146993, Note_on_c, 0, 72, 54
2, 147064, Note_on_c, 0, 43, 0
2, 147099, Note_on_c, 0, 72, 0
2, 147113, Note_on_c, 0, 50, 48
2, 147117, Note_on_c, 0, 71, 55
2, 147182, Note_on_c, 0, 50, 0
2, 147209, Note_on_c, 0, 71, 0
2, 147222, Note_on_c, 0, 43, 42
2, 147229, Note_on_c, 0, 69, 57
2, 147299, Note_on_c, 0, 43, 0
2, 147341, Note_on_c, 0, 69, 0
2, 147353, Note_on_c, 0, 67, 61
2, 147354, Note_on_c, 0, 52, 48
2, 147409, Note_on_c, 0, 52, 0
2, 147433, Note_on_c, 0, 67, 0
2, 147450, Note_on_c, 0, 43, 43
2, 147459, Note_on_c, 0, 65, 56
2, 147528, Note_on_c, 0, 43, 0
2, 147563, Note_on_c, 0, 65, 0
2, 147570, Note_on_c, 0, 53, 53
2, 147581, Note_on_c, 0, 64, 63
2, 147630, Note_on_c, 0, 53, 0
2, 147675, Note_on_c, 0, 43, 51
2, 147683, Note_on_c, 0, 64, 0
2, 147705, Note_on_c, 0, 62, 57
2, 147754, Note_on_c, 0, 43, 0
2, 147783, Note_on_c, 0, 62, 0
2, 147800, Note_on_c, 0, 52, 50
2, 147815, Note_on_c, 0, 60, 63
2, 147849, Note_on_c, 0, 52, 0
2, 147857, Note_on_c, 0, 60, 0
2, 147943, Note_on_c, 0, 76, 58
2, 147950, Note_on_c, 0, 40, 44
2, 147992, Note_on_c, 0, 40, 0
2, 148043, Note_on_c, 0, 76, 0
2, 148064, Note_on_c, 0, 74, 60
2, 148074, Note_on_c, 0, 43, 42
2, 148151, Note_on_c, 0, 43, 0
2, 148158, Note_on_c, 0, 72, 68
2, 148159, Note_on_c, 0, 74, 0
2, 148206, Note_on_c, 0, 40, 49
2, 148279, Note_on_c, 0, 72, 0
2, 148281, Note_on_c, 0, 40, 0
2, 148291, Note_on_c, 0, 71, 69
2, 148305, Note_on_c, 0, 45, 56
2, 148367, Note_on_c, 0, 45, 0
2, 148380, Note_on_c, 0, 71, 0
2, 148405, Note_on_c, 0, 69, 59
2, 148414, Note_on_c, 0, 40, 56
2, 148490, Note_on_c, 0, 40, 0
2, 148515, Note_on_c, 0, 69, 0
2, 148530, Note_on_c, 0, 68, 61
2, 148535, Note_on_c, 0, 47, 54
2, 148603, Note_on_c, 0, 47, 0
2, 148635, Note_on_c, 0, 68, 0
2, 148638, Note_on_c, 0, 40, 47
2, 148639, Note_on_c, 0, 66, 67
2, 148718, Note_on_c, 0, 40, 0
2, 148768, Note_on_c, 0, 64, 65
2, 148771, Note_on_c, 0, 66, 0
2, 148775, Note_on_c, 0, 48, 52
2, 148833, Note_on_c, 0, 48, 0
2, 148841, Note_on_c, 0, 64, 0
2, 148869, Note_on_c, 0, 62, 55
2, 148873, Note_on_c, 0, 40, 49
2, 148944, Note_on_c, 0, 40, 0
2, 148979, Note_on_c, 0, 62, 0
2, 148996, Note_on_c, 0, 50, 53
2, 148999, Note_on_c, 0, 60, 65
2, 149064, Note_on_c, 0, 50, 0
2, 149099, Note_on_c, 0, 40, 47
2, 149099, Note_on_c, 0, 60, 0
2, 149116, Note_on_c, 0, 59, 58
2, 149171, Note_on_c, 0, 40, 0
2, 149198, Note_on_c, 0, 59, 0
2, 149213, Note_on_c, 0, 49, 59
2, 149238, Note_on_c, 0, 57, 56
2, 149266, Note_on_c, 0, 49, 0
2, 149272, Note_on_c, 0, 57, 0
2, 149342, Note_on_c, 0, 59, 68
2, 149370, Note_on_c, 0, 57, 42
2, 149455, Note_on_c, 0, 57, 0
2, 149465, Note_on_c, 0, 61, 67
2, 149468, Note_on_c, 0, 59, 0
2, 149473, Note_on_c, 0, 55, 59
2, 149564, Note_on_c, 0, 61, 0
2, 149568, Note_on_c, 0, 55, 0
2, 149579, Note_on_c, 0, 54, 69
2, 149581, Note_on_c, 0, 57, 59
2, 149644, Note_on_c, 0, 54, 0
2, 149691, Note_on_c, 0, 57, 0
2, 149698, Note_on_c, 0, 52, 48
2, 149705, Note_on_c, 0, 62, 64
2, 149784, Note_on_c, 0, 52, 0
2, 149797, Note_on_c, 0, 50, 61
2, 149819, Note_on_c, 0, 57, 68
2, 149825, Note_on_c, 0, 62, 0
2, 149908, Note_on_c, 0, 49, 70
2, 149926, Note_on_c, 0, 64, 78
2, 149930, Note_on_c, 0, 50, 0
2, 149937, Note_on_c, 0, 57, 0
2, 150026, Note_on_c, 0, 64, 0
2, 150028, Note_on_c, 0, 49, 0
2, 150033, Note_on_c, 0, 47, 71
2, 150049, Note_on_c, 0, 57, 74
2, 150055, Control_c, 0, 67, 124
2, 150070, Control_c, 0, 67, 113
2, 150085, Control_c, 0, 67, 110
2, 150101, Control_c, 0, 67, 107
2, 150116, Control_c, 0, 67, 101
2, 150129, Note_on_c, 0, 47, 0
2, 150130, Control_c, 0, 67, 81
2, 150146, Control_c, 0, 67, 58
2, 150161, Control_c, 0, 67, 38
2, 150161, Note_on_c, 0, 45, 72
2, 150164, Note_on_c, 0, 66, 78
2, 150177, Control_c, 0, 67, 28
2, 150183, Note_on_c, 0, 57, 0
2, 150192, Control_c, 0, 67, 24
2, 150206, Control_c, 0, 67, 16
2, 150222, Control_c, 0, 67, 0
2, 150278, Note_on_c, 0, 57, 81
2, 150286, Note_on_c, 0, 43, 79
2, 150292, Note_on_c, 0, 45, 0
2, 150297, Note_on_c, 0, 66, 0
2, 150400, Note_on_c, 0, 67, 84
2, 150403, Note_on_c, 0, 42, 77
2, 150408, Note_on_c, 0, 57, 0
2, 150437, Note_on_c, 0, 43, 0
2, 150507, Note_on_c, 0, 42, 0
2, 150510, Note_on_c, 0, 57, 85
2, 150515, Note_on_c, 0, 40, 75
2, 150546, Note_on_c, 0, 67, 0
2, 150644, Note_on_c, 0, 38, 83
2, 150647, Note_on_c, 0, 62, 81
2, 150647, Note_on_c, 0, 66, 79
2, 150661, Note_on_c, 0, 40, 0
2, 150668, Note_on_c, 0, 57, 0
2, 150777, Note_on_c, 0, 62, 0
2, 150791, Note_on_c, 0, 66, 0
2, 150926, Note_on_c, 0, 60, 80
2, 150928, Note_on_c, 0, 71, 82
2, 151034, Note_on_c, 0, 71, 0
2, 151037, Note_on_c, 0, 62, 83
2, 151062, Note_on_c, 0, 60, 0
2, 151161, Note_on_c, 0, 67, 81
2, 151169, Note_on_c, 0, 64, 80
2, 151175, Note_on_c, 0, 62, 0
2, 151282, Note_on_c, 0, 62, 85
2, 151283, Note_on_c, 0, 67, 0
2, 151302, Note_on_c, 0, 64, 0
2, 151416, Note_on_c, 0, 62, 0
2, 151416, Note_on_c, 0, 64, 81
2, 151419, Note_on_c, 0, 60, 82
2, 151535, Note_on_c, 0, 60, 0
2, 151544, Note_on_c, 0, 64, 0
2, 151694, Note_on_c, 0, 59, 84
2, 151710, Note_on_c, 0, 69, 68
2, 151789, Note_on_c, 0, 59, 0
2, 151804, Note_on_c, 0, 60, 87
2, 151930, Note_on_c, 0, 62, 80
2, 151932, Note_on_c, 0, 66, 77
2, 151934, Note_on_c, 0, 69, 0
2, 151946, Note_on_c, 0, 60, 0
2, 152026, Note_on_c, 0, 62, 0
2, 152037, Note_on_c, 0, 66, 0
2, 152050, Note_on_c, 0, 60, 85
2, 152143, Note_on_c, 0, 38, 0
2, 152175, Note_on_c, 0, 67, 76
2, 152177, Note_on_c, 0, 59, 75
2, 152196, Note_on_c, 0, 60, 0
2, 152254, Note_on_c, 0, 59, 0
2, 152312, Note_on_c, 0, 50, 80
2, 152428, Note_on_c, 0, 60, 86
2, 152431, Note_on_c, 0, 48, 67
2, 152440, Note_on_c, 0, 50, 0
2, 152514, Note_on_c, 0, 60, 0
2, 152547, Note_on_c, 0, 50, 83
2, 152551, Note_on_c, 0, 48, 0
2, 152665, Note_on_c, 0, 62, 86
2, 152670, Note_on_c, 0, 50, 0
2, 152675, Note_on_c, 0, 52, 77
2, 152749, Note_on_c, 0, 62, 0
2, 152786, Note_on_c, 0, 50, 83
2, 152792, Note_on_c, 0, 52, 0
2, 152891, Note_on_c, 0, 67, 0
2, 152898, Note_on_c, 0, 48, 78
2, 152906, Note_on_c, 0, 64, 84
2, 152935, Note_on_c, 0, 50, 0
2, 152974, Note_on_c, 0, 48, 0
2, 153016, Note_on_c, 0, 69, 71
2, 153022, Note_on_c, 0, 64, 0
2, 153141, Note_on_c, 0, 71, 82
2, 153144, Note_on_c, 0, 69, 0
2, 153147, Note_on_c, 0, 47, 72
2, 153150, Note_on_c, 0, 54, 79
2, 153207, Note_on_c, 0, 71, 0
2, 153214, Note_on_c, 0, 69, 64
2, 153270, Note_on_c, 0, 47, 0
2, 153270, Note_on_c, 0, 69, 0
2, 153270, Note_on_c, 0, 71, 73
2, 153273, Note_on_c, 0, 48, 75
2, 153321, Note_on_c, 0, 71, 0
2, 153336, Note_on_c, 0, 69, 56
2, 153374, Note_on_c, 0, 69, 0
2, 153376, Note_on_c, 0, 48, 0
2, 153377, Note_on_c, 0, 71, 69
2, 153382, Note_on_c, 0, 50, 76
2, 153401, Note_on_c, 0, 54, 0
2, 153438, Note_on_c, 0, 69, 72
2, 153441, Note_on_c, 0, 71, 0
2, 153493, Note_on_c, 0, 69, 0
2, 153498, Note_on_c, 0, 48, 71
2, 153506, Note_on_c, 0, 50, 0
2, 153514, Note_on_c, 0, 67, 72
2, 153545, Note_on_c, 0, 67, 0
2, 153569, Note_on_c, 0, 69, 62
2, 153613, Note_on_c, 0, 48, 0
2, 153624, Note_on_c, 0, 67, 71
2, 153627, Note_on_c, 0, 69, 0
2, 153629, Note_on_c, 0, 71, 73
2, 153634, Note_on_c, 0, 47, 63
2, 153636, Note_on_c, 0, 55, 65
2, 153723, Note_on_c, 0, 55, 0
2, 153731, Note_on_c, 0, 67, 0
2, 153756, Note_on_c, 0, 47, 0
2, 153757, Note_on_c, 0, 71, 0
2, 153892, Note_on_c, 0, 72, 76
2, 153896, Note_on_c, 0, 69, 75
2, 153909, Note_on_c, 0, 45, 71
2, 154010, Note_on_c, 0, 72, 0
2, 154012, Note_on_c, 0, 71, 84
2, 154015, Note_on_c, 0, 69, 0
2, 154016, Note_on_c, 0, 47, 77
2, 154018, Note_on_c, 0, 45, 0
2, 154018, Note_on_c, 0, 67, 85
2, 154104, Note_on_c, 0, 67, 0
2, 154126, Note_on_c, 0, 47, 0
2, 154135, Note_on_c, 0, 48, 77
2, 154136, Note_on_c, 0, 69, 80
2, 154138, Note_on_c, 0, 66, 83
2, 154153, Note_on_c, 0, 71, 0
2, 154223, Note_on_c, 0, 66, 0
2, 154250, Note_on_c, 0, 47, 76
2, 154250, Note_on_c, 0, 67, 79
2, 154253, Note_on_c, 0, 48, 0
2, 154259, Note_on_c, 0, 71, 82
2, 154266, Note_on_c, 0, 69, 0
2, 154367, Note_on_c, 0, 67, 0
2, 154373, Note_on_c, 0, 72, 78
2, 154374, Note_on_c, 0, 45, 73
2, 154377, Note_on_c, 0, 69, 83
2, 154404, Note_on_c, 0, 47, 0
2, 154410, Note_on_c, 0, 71, 0
2, 154448, Note_on_c, 0, 69, 0
2, 154459, Note_on_c, 0, 45, 0
2, 154461, Note_on_c, 0, 72, 0
2, 154627, Note_on_c, 0, 71, 76
2, 154627, Note_on_c, 0, 74, 77
2, 154633, Note_on_c, 0, 43, 68
2, 154741, Note_on_c, 0, 69, 78
2, 154742, Note_on_c, 0, 43, 0
2, 154743, Note_on_c, 0, 45, 70
2, 154744, Note_on_c, 0, 72, 78
2, 154749, Note_on_c, 0, 74, 0
2, 154762, Note_on_c, 0, 71, 0
2, 154836, Note_on_c, 0, 72, 0
2, 154862, Note_on_c, 0, 67, 87
2, 154862, Note_on_c, 0, 71, 86
2, 154863, Note_on_c, 0, 69, 0
2, 154865, Note_on_c, 0, 47, 77
2, 154880, Note_on_c, 0, 45, 0
2, 154939, Note_on_c, 0, 67, 0
2, 154969, Note_on_c, 0, 72, 79
2, 154976, Note_on_c, 0, 69, 79
2, 154979, Note_on_c, 0, 47, 0
2, 154981, Note_on_c, 0, 45, 74
2, 154993, Note_on_c, 0, 71, 0
2, 155084, Note_on_c, 0, 45, 0
2, 155092, Note_on_c, 0, 43, 66
2, 155092, Note_on_c, 0, 71, 75
2, 155092, Note_on_c, 0, 74, 82
2, 155116, Note_on_c, 0, 69, 0
2, 155119, Note_on_c, 0, 72, 0
2, 155126, Note_on_c, 0, 43, 0
2, 155185, Note_on_c, 0, 71, 0
2, 155193, Note_on_c, 0, 74, 0
2, 155236, Note_on_c, 0, 55, 70
2, 155276, Note_on_c, 0, 54, 75
2, 155293, Note_on_c, 0, 55, 0
2, 155351, Note_on_c, 0, 72, 85
2, 155357, Note_on_c, 0, 69, 83
2, 155365, Note_on_c, 0, 52, 69
2, 155392, Note_on_c, 0, 54, 0
2, 155429, Note_on_c, 0, 69, 0
2, 155447, Note_on_c, 0, 72, 0
2, 155454, Note_on_c, 0, 52, 0
2, 155469, Note_on_c, 0, 55, 81
2, 155593, Note_on_c, 0, 50, 76
2, 155593, Note_on_c, 0, 55, 0
2, 155594, Note_on_c, 0, 67, 81
2, 155596, Note_on_c, 0, 71, 89
2, 155685, Note_on_c, 0, 50, 0
2, 155685, Note_on_c, 0, 71, 0
2, 155710, Note_on_c, 0, 55, 79
2, 155834, Note_on_c, 0, 49, 69
2, 155838, Note_on_c, 0, 69, 84
2, 155839, Note_on_c, 0, 55, 0
2, 155891, Note_on_c, 0, 67, 0
2, 155924, Note_on_c, 0, 69, 0
2, 155958, Note_on_c, 0, 49, 0
2, 155965, Note_on_c, 0, 57, 79
2, 156096, Note_on_c, 0, 47, 73
2, 156100, Note_on_c, 0, 74, 84
2, 156100, Note_on_c, 0, 79, 87
2, 156112, Note_on_c, 0, 57, 0
2, 156186, Note_on_c, 0, 74, 0
2, 156224, Note_on_c, 0, 47, 0
2, 156225, Note_on_c, 0, 57, 80
2, 156347, Note_on_c, 0, 73, 85
2, 156350, Note_on_c, 0, 45, 68
2, 156354, Note_on_c, 0, 57, 0
2, 156422, Note_on_c, 0, 73, 0
2, 156448, Note_on_c, 0, 45, 0
2, 156465, Note_on_c, 0, 57, 80
2, 156586, Note_on_c, 0, 74, 85
2, 156588, Note_on_c, 0, 78, 83
2, 156592, Note_on_c, 0, 57, 0
2, 156596, Note_on_c, 0, 50, 76
2, 156620, Note_on_c, 0, 79, 0
2, 156649, Note_on_c, 0, 74, 0
2, 156671, Note_on_c, 0, 78, 0
2, 156712, Note_on_c, 0, 48, 76
2, 156746, Note_on_c, 0, 50, 0
2, 156832, Note_on_c, 0, 76, 90
2, 156834, Note_on_c, 0, 46, 79
2, 156837, Note_on_c, 0, 67, 87
2, 156840, Note_on_c, 0, 48, 0
2, 156899, Note_on_c, 0, 67, 0
2, 156914, Note_on_c, 0, 76, 0
2, 156951, Note_on_c, 0, 46, 0
2, 156962, Note_on_c, 0, 50, 84
2, 157088, Note_on_c, 0, 74, 91
2, 157089, Note_on_c, 0, 45, 84
2, 157089, Note_on_c, 0, 66, 94
2, 157098, Note_on_c, 0, 50, 0
2, 157144, Note_on_c, 0, 66, 0
2, 157166, Note_on_c, 0, 74, 0
2, 157203, Note_on_c, 0, 45, 0
2, 157215, Note_on_c, 0, 50, 84
2, 157360, Note_on_c, 0, 73, 99
2, 157362, Note_on_c, 0, 43, 82
2, 157362, Note_on_c, 0, 64, 90
2, 157378, Note_on_c, 0, 50, 0
2, 157401, Note_on_c, 0, 64, 0
2, 157441, Note_on_c, 0, 73, 0
2, 157506, Note_on_c, 0, 43, 0
2, 157528, Note_on_c, 0, 52, 82
2, 157754, Note_on_c, 0, 82, 91
2, 157757, Note_on_c, 0, 42, 85
2, 157757, Note_on_c, 0, 73, 96
2, 157780, Note_on_c, 0, 52, 0
2, 157939, Note_on_c, 0, 42, 0
2, 157950, Note_on_c, 0, 52, 86
2, 158052, Note_on_c, 0, 73, 0
2, 158064, Note_on_c, 0, 82, 0
2, 158077, Note_on_c, 0, 40, 81
2, 158091, Note_on_c, 0, 52, 0
2, 158197, Note_on_c, 0, 52, 80
2, 158217, Note_on_c, 0, 40, 0
2, 158305, Note_on_c, 0, 81, 88
2, 158308, Note_on_c, 0, 72, 93
2, 158314, Note_on_c, 0, 42, 83
2, 158319, Note_on_c, 0, 52, 0
2, 158362, Note_on_c, 0, 42, 0
2, 158438, Note_on_c, 0, 79, 85
2, 158466, Note_on_c, 0, 81, 0
2, 158560, Note_on_c, 0, 38, 82
2, 158569, Note_on_c, 0, 78, 91
2, 158600, Note_on_c, 0, 38, 0
2, 158604, Note_on_c, 0, 79, 0
2, 158682, Note_on_c, 0, 76, 84
2, 158716, Note_on_c, 0, 78, 0
2, 158736, Note_on_c, 0, 76, 0
2, 158800, Note_on_c, 0, 72, 0
2, 158808, Note_on_c, 0, 74, 91
2, 158810, Note_on_c, 0, 43, 88
2, 158849, Note_on_c, 0, 43, 0
2, 158923, Note_on_c, 0, 71, 79
2, 158975, Note_on_c, 0, 71, 0
2, 158982, Note_on_c, 0, 69, 82
2, 159033, Note_on_c, 0, 40, 86
2, 159040, Note_on_c, 0, 71, 89
2, 159064, Note_on_c, 0, 40, 0
2, 159085, Note_on_c, 0, 74, 0
2, 159165, Note_on_c, 0, 69, 0
2, 159168, Note_on_c, 0, 79, 94
2, 159173, Note_on_c, 0, 71, 0
2, 159320, Note_on_c, 0, 69, 91
2, 159325, Note_on_c, 0, 36, 83
2, 159360, Note_on_c, 0, 79, 0
2, 159363, Note_on_c, 0, 36, 0
2, 159463, Note_on_c, 0, 72, 89
2, 159631, Note_on_c, 0, 79, 94
2, 159632, Note_on_c, 0, 38, 81
2, 159639, Note_on_c, 0, 72, 0
2, 159666, Note_on_c, 0, 38, 0
2, 159818, Note_on_c, 0, 78, 93
2, 159840, Note_on_c, 0, 79, 0
2, 159844, Note_on_c, 0, 69, 0
2, 160066, Note_on_c, 0, 71, 92
2, 160066, Note_on_c, 0, 79, 89
2, 160069, Note_on_c, 0, 43, 86
2, 160102, Note_on_c, 0, 78, 0
2, 160208, Note_on_c, 0, 71, 0
2, 160217, Note_on_c, 0, 78, 83
2, 160248, Note_on_c, 0, 76, 80
2, 160250, Note_on_c, 0, 79, 0
2, 160300, Note_on_c, 0, 74, 82
2, 160306, Note_on_c, 0, 78, 0
2, 160318, Note_on_c, 0, 71, 78
2, 160334, Note_on_c, 0, 76, 0
2, 160407, Note_on_c, 0, 71, 0
2, 160418, Note_on_c, 0, 74, 0
2, 160424, Note_on_c, 0, 79, 87
2, 160559, Note_on_c, 0, 72, 88
2, 160562, Note_on_c, 0, 69, 86
2, 160571, Note_on_c, 0, 79, 0
2, 160665, Note_on_c, 0, 69, 0
2, 160680, Note_on_c, 0, 72, 0
2, 160683, Note_on_c, 0, 79, 84
2, 160821, Note_on_c, 0, 67, 89
2, 160821, Note_on_c, 0, 71, 86
2, 160828, Note_on_c, 0, 79, 0
2, 160836, Note_on_c, 0, 43, 0
2, 160960, Note_on_c, 0, 43, 75
2, 161015, Note_on_c, 0, 45, 75
2, 161044, Note_on_c, 0, 43, 0
2, 161047, Note_on_c, 0, 79, 87
2, 161053, Note_on_c, 0, 71, 0
2, 161060, Note_on_c, 0, 47, 78
2, 161076, Note_on_c, 0, 45, 0
2, 161162, Note_on_c, 0, 79, 0
2, 161184, Note_on_c, 0, 43, 85
2, 161184, Note_on_c, 0, 47, 0
2, 161191, Note_on_c, 0, 67, 0
2, 161287, Note_on_c, 0, 43, 0
2, 161303, Note_on_c, 0, 48, 84
2, 161320, Note_on_c, 0, 69, 81
2, 161322, Note_on_c, 0, 66, 84
2, 161423, Note_on_c, 0, 69, 0
2, 161426, Note_on_c, 0, 66, 0
2, 161430, Note_on_c, 0, 43, 72
2, 161433, Note_on_c, 0, 48, 0
2, 161556, Note_on_c, 0, 50, 75
2, 161571, Note_on_c, 0, 71, 84
2, 161577, Note_on_c, 0, 67, 78
2, 161629, Note_on_c, 0, 43, 0
2, 161663, Note_on_c, 0, 50, 0
2, 161678, Note_on_c, 0, 67, 0
2, 161693, Note_on_c, 0, 74, 72
2, 161694, Note_on_c, 0, 71, 0
2, 161754, Note_on_c, 0, 72, 66
2, 161782, Note_on_c, 0, 74, 0
2, 161799, Note_on_c, 0, 43, 79
2, 161804, Note_on_c, 0, 71, 86
2, 161816, Note_on_c, 0, 67, 74
2, 161838, Note_on_c, 0, 72, 0
2, 161908, Note_on_c, 0, 67, 0
2, 161932, Note_on_c, 0, 74, 77
2, 161934, Note_on_c, 0, 71, 0
2, 162042, Note_on_c, 0, 47, 72
2, 162050, Note_on_c, 0, 69, 77
2, 162053, Note_on_c, 0, 65, 79
2, 162066, Note_on_c, 0, 74, 0
2, 162137, Note_on_c, 0, 47, 0
2, 162149, Note_on_c, 0, 65, 0
2, 162167, Note_on_c, 0, 74, 83
2, 162168, Note_on_c, 0, 69, 0
2, 162299, Note_on_c, 0, 48, 75
2, 162310, Note_on_c, 0, 64, 84
2, 162310, Note_on_c, 0, 67, 77
2, 162332, Note_on_c, 0, 74, 0
2, 162363, Note_on_c, 0, 47, 66
2, 162366, Note_on_c, 0, 48, 0
2, 162424, Note_on_c, 0, 48, 76
2, 162448, Note_on_c, 0, 67, 0
2, 162481, Note_on_c, 0, 50, 72
2, 162492, Note_on_c, 0, 47, 0
2, 162520, Note_on_c, 0, 48, 0
2, 162552, Note_on_c, 0, 50, 0
2, 162552, Note_on_c, 0, 52, 83
2, 162554, Note_on_c, 0, 72, 86
2, 162572, Note_on_c, 0, 64, 0
2, 162672, Note_on_c, 0, 52, 0
2, 162673, Note_on_c, 0, 48, 77
2, 162800, Note_on_c, 0, 48, 0
2, 162802, Note_on_c, 0, 54, 84
2, 162808, Note_on_c, 0, 63, 84
2, 162898, Note_on_c, 0, 63, 0
2, 162920, Note_on_c, 0, 48, 78
2, 162934, Note_on_c, 0, 54, 0
2, 163072, Note_on_c, 0, 62, 84
2, 163078, Note_on_c, 0, 55, 74
2, 163089, Note_on_c, 0, 48, 0
2, 163090, Note_on_c, 0, 72, 0
2, 163134, Note_on_c, 0, 67, 82
2, 163152, Note_on_c, 0, 62, 0
2, 163207, Note_on_c, 0, 69, 81
2, 163231, Note_on_c, 0, 67, 0
2, 163250, Note_on_c, 0, 71, 82
2, 163292, Note_on_c, 0, 69, 0
2, 163334, Note_on_c, 0, 72, 84
2, 163340, Note_on_c, 0, 64, 86
2, 163352, Note_on_c, 0, 71, 0
2, 163469, Note_on_c, 0, 67, 86
2, 163472, Note_on_c, 0, 72, 0
2, 163484, Note_on_c, 0, 64, 0
2, 163599, Note_on_c, 0, 74, 81
2, 163600, Note_on_c, 0, 71, 76
2, 163606, Note_on_c, 0, 67, 0
2, 163612, Note_on_c, 0, 65, 75
2, 163725, Note_on_c, 0, 67, 83
2, 163728, Note_on_c, 0, 65, 0
2, 163746, Note_on_c, 0, 71, 0
2, 163765, Note_on_c, 0, 74, 0
2, 163767, Note_on_c, 0, 67, 0
2, 163875, Note_on_c, 0, 76, 81
2, 163879, Note_on_c, 0, 67, 80
2, 163882, Note_on_c, 0, 72, 72
2, 163947, Note_on_c, 0, 71, 85
2, 163949, Note_on_c, 0, 67, 0
2, 163956, Note_on_c, 0, 76, 0
2, 163971, Note_on_c, 0, 72, 0
2, 164007, Note_on_c, 0, 72, 64
2, 164032, Note_on_c, 0, 71, 0
2, 164073, Note_on_c, 0, 74, 86
2, 164096, Note_on_c, 0, 72, 0
2, 164168, Note_on_c, 0, 76, 90
2, 164179, Note_on_c, 0, 67, 78
2, 164181, Note_on_c, 0, 74, 0
2, 164341, Note_on_c, 0, 72, 87
2, 164353, Note_on_c, 0, 67, 0
2, 164378, Note_on_c, 0, 76, 0
2, 164527, Note_on_c, 0, 78, 91
2, 164534, Note_on_c, 0, 69, 83
2, 164536, Note_on_c, 0, 72, 0
2, 164752, Note_on_c, 0, 72, 81
2, 164763, Note_on_c, 0, 69, 0
2, 165064, Note_on_c, 0, 79, 89
2, 165071, Note_on_c, 0, 71, 81
2, 165086, Note_on_c, 0, 72, 0
2, 165104, Note_on_c, 0, 78, 0
2, 165358, Note_on_c, 0, 74, 74
2, 165556, Note_on_c, 0, 76, 66
2, 165557, Note_on_c, 0, 74, 0
2, 165819, Note_on_c, 0, 71, 0
2, 165823, Note_on_c, 0, 72, 74
2, 165824, Note_on_c, 0, 76, 0
2, 166120, Note_on_c, 0, 69, 60
2, 166554, Note_on_c, 0, 78, 70
2, 166565, Note_on_c, 0, 79, 0
2, 166566, Note_on_c, 0, 69, 0
2, 167352, Note_on_c, 0, 78, 0
2, 167376, Note_on_c, 0, 79, 68
2, 167386, Note_on_c, 0, 72, 0
2, 167389, Note_on_c, 0, 71, 57
2, 167391, Note_on_c, 0, 74, 54
2, 168440, Control_c, 0, 64, 8
2, 168455, Control_c, 0, 64, 25
2, 168470, Control_c, 0, 64, 34
2, 168485, Control_c, 0, 64, 41
2, 168500, Control_c, 0, 64, 45
2, 168516, Control_c, 0, 64, 48
2, 168531, Control_c, 0, 64, 50
2, 168545, Control_c, 0, 64, 52
2, 168561, Control_c, 0, 64, 54
2, 168570, Control_c, 0, 64, 56
2, 168585, Control_c, 0, 64, 58
2, 168599, Control_c, 0, 64, 60
2, 168615, Control_c, 0, 64, 61
2, 168631, Control_c, 0, 64, 62
2, 168646, Control_c, 0, 64, 63
2, 168662, Control_c, 0, 64, 64
2, 168677, Control_c, 0, 64, 64
2, 168692, Control_c, 0, 64, 65
2, 168707, Control_c, 0, 64, 67
2, 168722, Control_c, 0, 64, 68
2, 168738, Control_c, 0, 64, 69
2, 168752, Control_c, 0, 64, 71
2, 168767, Control_c, 0, 64, 72
2, 168783, Control_c, 0, 64, 73
2, 168798, Control_c, 0, 64, 74
2, 168814, Control_c, 0, 64, 76
2, 168829, Control_c, 0, 64, 77
2, 168843, Control_c, 0, 64, 78
2, 168859, Control_c, 0, 64, 79
2, 168874, Control_c, 0, 64, 80
2, 168889, Control_c, 0, 64, 82
2, 168905, Control_c, 0, 64, 84
2, 168920, Control_c, 0, 64, 86
2, 168934, Control_c, 0, 64, 87
2, 168946, Control_c, 0, 64, 88
2, 168961, Control_c, 0, 64, 89
2, 168976, Control_c, 0, 64, 90
2, 168992, Control_c, 0, 64, 90
2, 169007, Control_c, 0, 64, 91
2, 169022, Control_c, 0, 64, 92
2, 169052, Control_c, 0, 64, 93
2, 169068, Control_c, 0, 64, 93
2, 169083, Control_c, 0, 64, 94
2, 169098, Control_c, 0, 64, 95
2, 169113, Control_c, 0, 64, 95
2, 169136, Control_c, 0, 64, 96
2, 169152, Control_c, 0, 64, 96
2, 169166, Control_c, 0, 64, 97
2, 169181, Control_c, 0, 64, 97
2, 169242, Control_c, 0, 64, 98
2, 169288, Control_c, 0, 64, 98
2, 169333, Control_c, 0, 64, 99
2, 169377, Note_on_c, 0, 79, 0
2, 169395, Note_on_c, 0, 43, 0
2, 169438, Note_on_c, 0, 74, 0
2, 169460, Note_on_c, 0, 71, 0
2, 169487, Note_on_c, 0, 55, 0
2, 170207, Control_c, 0, 64, 98
2, 170238, Control_c, 0, 64, 98
2, 170253, Control_c, 0, 64, 97
2, 170270, Control_c, 0, 64, 97
2, 170285, Control_c, 0, 64, 96
2, 170300, Control_c, 0, 64, 95
2, 170315, Control_c, 0, 64, 95
2, 170330, Control_c, 0, 64, 94
2, 170345, Control_c, 0, 64, 94
2, 170361, Control_c, 0, 64, 93
2, 170376, Control_c, 0, 64, 92
2, 170391, Control_c, 0, 64, 91
2, 170407, Control_c, 0, 64, 90
2, 170422, Control_c, 0, 64, 90
2, 170437, Control_c, 0, 64, 89
2, 170452, Control_c, 0, 64, 88
2, 170468, Control_c, 0, 64, 88
2, 170483, Control_c, 0, 64, 87
2, 170498, Control_c, 0, 64, 86
2, 170513, Control_c, 0, 64, 85
2, 170528, Control_c, 0, 64, 84
2, 170543, Control_c, 0, 64, 83
2, 170559, Control_c, 0, 64, 82
2, 170574, Control_c, 0, 64, 81
2, 170589, Control_c, 0, 64, 80
2, 170604, Control_c, 0, 64, 79
2, 170619, Control_c, 0, 64, 78
2, 170635, Control_c, 0, 64, 78
2, 170649, Control_c, 0, 64, 77
2, 170673, Control_c, 0, 64, 76
2, 170688, Control_c, 0, 64, 74
2, 170703, Control_c, 0, 64, 72
2, 170719, Control_c, 0, 64, 70
2, 170733, Control_c, 0, 64, 69
2, 170749, Control_c, 0, 64, 69
2, 170764, Control_c, 0, 64, 68
2, 170779, Control_c, 0, 64, 67
2, 170795, Control_c, 0, 64, 66
2, 170809, Control_c, 0, 64, 65
2, 170824, Control_c, 0, 64, 63
2, 170840, Control_c, 0, 64, 62
2, 170854, Control_c, 0, 64, 61
2, 170870, Control_c, 0, 64, 61
2, 170885, Control_c, 0, 64, 60
2, 170900, Control_c, 0, 64, 59
2, 170916, Control_c, 0, 64, 57
2, 170930, Control_c, 0, 64, 55
2, 170945, Control_c, 0, 64, 51
2, 170961, Control_c, 0, 64, 48
2, 170976, Control_c, 0, 64, 44
2, 170992, Control_c, 0, 64, 41
2, 171007, Control_c, 0, 64, 38
2, 171022, Control_c, 0, 64, 35
2, 171038, Control_c, 0, 64, 33
2, 171052, Control_c, 0, 64, 30
2, 171068, Control_c, 0, 64, 27
2, 171083, Control_c, 0, 64, 23
2, 171098, Control_c, 0, 64, 19
2, 171114, Control_c, 0, 64, 16
2, 171129, Control_c, 0, 64, 10
2, 171144, Control_c, 0, 64, 0
2, 171145, End_track
0, 0, End_of_file
