0, 0, Header, 1, 2, 384
1, 0, Start_track
1, 0, Tempo, 500000
1, 0, Time_signature, 4, 2, 24, 8
1, 1, End_track
2, 0, Start_track
2, 0, Title_t," ""7.6.13 Group 2"""
2, 0, Program_c, 0, 0
2, 0, Control_c, 0, 64, 0
2, 0, Control_c, 0, 66, 0
2, 0, Control_c, 0, 67, 0
2, 813, Note_on_c, 0, 55, 75
2, 817, Note_on_c, 0, 67, 75
2, 844, Note_on_c, 0, 55, 0
2, 877, Note_on_c, 0, 71, 78
2, 883, Note_on_c, 0, 67, 0
2, 943, Note_on_c, 0, 74, 81
2, 955, Note_on_c, 0, 71, 0
2, 1030, Note_on_c, 0, 74, 0
2, 1034, Note_on_c, 0, 79, 80
2, 1040, Note_on_c, 0, 43, 63
2, 1070, Note_on_c, 0, 43, 0
2, 1104, Note_on_c, 0, 74, 71
2, 1126, Note_on_c, 0, 79, 0
2, 1183, Note_on_c, 0, 74, 0
2, 1186, Note_on_c, 0, 71, 79
2, 1257, Note_on_c, 0, 71, 0
2, 1261, Note_on_c, 0, 74, 81
2, 1333, Note_on_c, 0, 71, 82
2, 1348, Note_on_c, 0, 74, 0
2, 1389, Note_on_c, 0, 71, 0
2, 1410, Note_on_c, 0, 67, 77
2, 1453, Note_on_c, 0, 67, 0
2, 1484, Note_on_c, 0, 55, 75
2, 1492, Note_on_c, 0, 71, 84
2, 1508, Note_on_c, 0, 55, 0
2, 1566, Note_on_c, 0, 67, 78
2, 1579, Note_on_c, 0, 71, 0
2, 1648, Note_on_c, 0, 62, 78
2, 1651, Note_on_c, 0, 67, 0
2, 1725, Note_on_c, 0, 55, 84
2, 1727, Note_on_c, 0, 62, 0
2, 1734, Note_on_c, 0, 64, 90
2, 1773, Note_on_c, 0, 55, 0
2, 1807, Note_on_c, 0, 64, 0
2, 1819, Note_on_c, 0, 67, 80
2, 1891, Note_on_c, 0, 72, 74
2, 1893, Note_on_c, 0, 67, 0
2, 1972, Note_on_c, 0, 72, 0
2, 1972, Note_on_c, 0, 76, 78
2, 1986, Note_on_c, 0, 43, 56
2, 2012, Note_on_c, 0, 43, 0
2, 2044, Note_on_c, 0, 72, 76
2, 2063, Note_on_c, 0, 76, 0
2, 2116, Note_on_c, 0, 72, 0
2, 2125, Note_on_c, 0, 67, 78
2, 2191, Note_on_c, 0, 67, 0
2, 2198, Note_on_c, 0, 72, 82
2, 2268, Note_on_c, 0, 72, 0
2, 2271, Note_on_c, 0, 67, 78
2, 2333, Note_on_c, 0, 67, 0
2, 2346, Note_on_c, 0, 64, 79
2, 2390, Note_on_c, 0, 64, 0
2, 2418, Note_on_c, 0, 55, 73
2, 2439, Note_on_c, 0, 55, 0
2, 2439, Note_on_c, 0, 67, 67
2, 2446, Note_on_c, 0, 69, 55
2, 2485, Note_on_c, 0, 69, 0
2, 2501, Note_on_c, 0, 64, 87
2, 2509, Note_on_c, 0, 67, 0
2, 2591, Note_on_c, 0, 60, 81
2, 2604, Note_on_c, 0, 64, 0
2, 2659, Note_on_c, 0, 60, 0
2, 2663, Note_on_c, 0, 55, 83
2, 2669, Note_on_c, 0, 57, 79
2, 2701, Note_on_c, 0, 55, 0
2, 2742, Note_on_c, 0, 57, 0
2, 2751, Note_on_c, 0, 60, 81
2, 2823, Note_on_c, 0, 60, 0
2, 2826, Note_on_c, 0, 66, 70
2, 2907, Note_on_c, 0, 43, 65
2, 2911, Note_on_c, 0, 69, 77
2, 2919, Note_on_c, 0, 66, 0
2, 2937, Note_on_c, 0, 43, 0
2, 2990, Note_on_c, 0, 66, 76
2, 3000, Note_on_c, 0, 69, 0
2, 3080, Note_on_c, 0, 66, 0
2, 3083, Note_on_c, 0, 60, 78
2, 3152, Note_on_c, 0, 60, 0
2, 3156, Note_on_c, 0, 66, 82
2, 3226, Note_on_c, 0, 60, 77
2, 3234, Note_on_c, 0, 66, 0
2, 3305, Note_on_c, 0, 60, 0
2, 3314, Note_on_c, 0, 57, 74
2, 3358, Note_on_c, 0, 57, 0
2, 3384, Note_on_c, 0, 55, 77
2, 3404, Note_on_c, 0, 60, 75
2, 3408, Note_on_c, 0, 55, 0
2, 3475, Note_on_c, 0, 57, 74
2, 3483, Note_on_c, 0, 60, 0
2, 3550, Note_on_c, 0, 57, 0
2, 3555, Note_on_c, 0, 54, 72
2, 3618, Note_on_c, 0, 54, 0
2, 3630, Note_on_c, 0, 55, 78
2, 3693, Note_on_c, 0, 55, 0
2, 3714, Note_on_c, 0, 59, 70
2, 3785, Note_on_c, 0, 62, 71
2, 3792, Note_on_c, 0, 59, 0
2, 3863, Note_on_c, 0, 43, 59
2, 3866, Note_on_c, 0, 62, 0
2, 3872, Note_on_c, 0, 67, 74
2, 3892, Note_on_c, 0, 43, 0
2, 3945, Note_on_c, 0, 62, 69
2, 3947, Note_on_c, 0, 67, 0
2, 4026, Note_on_c, 0, 59, 75
2, 4026, Note_on_c, 0, 62, 0
2, 4102, Note_on_c, 0, 59, 0
2, 4108, Note_on_c, 0, 62, 77
2, 4173, Note_on_c, 0, 59, 71
2, 4191, Note_on_c, 0, 62, 0
2, 4230, Note_on_c, 0, 59, 0
2, 4256, Note_on_c, 0, 55, 72
2, 4297, Note_on_c, 0, 55, 0
2, 4342, Note_on_c, 0, 59, 78
2, 4416, Note_on_c, 0, 55, 75
2, 4429, Note_on_c, 0, 59, 0
2, 4479, Note_on_c, 0, 55, 0
2, 4484, Note_on_c, 0, 52, 75
2, 4536, Note_on_c, 0, 52, 0
2, 4578, Note_on_c, 0, 55, 74
2, 4579, Note_on_c, 0, 57, 76
2, 4605, Note_on_c, 0, 55, 0
2, 4635, Note_on_c, 0, 57, 0
2, 4651, Note_on_c, 0, 61, 80
2, 4727, Note_on_c, 0, 64, 80
2, 4738, Note_on_c, 0, 61, 0
2, 4808, Note_on_c, 0, 43, 64
2, 4812, Note_on_c, 0, 64, 0
2, 4814, Note_on_c, 0, 69, 75
2, 4846, Note_on_c, 0, 43, 0
2, 4892, Note_on_c, 0, 69, 0
2, 4896, Note_on_c, 0, 64, 81
2, 4977, Note_on_c, 0, 61, 77
2, 4980, Note_on_c, 0, 64, 0
2, 5044, Note_on_c, 0, 61, 0
2, 5045, Note_on_c, 0, 64, 80
2, 5120, Note_on_c, 0, 61, 76
2, 5120, Note_on_c, 0, 64, 0
2, 5181, Note_on_c, 0, 61, 0
2, 5204, Note_on_c, 0, 57, 63
2, 5249, Note_on_c, 0, 57, 0
2, 5257, Note_on_c, 0, 55, 69
2, 5278, Note_on_c, 0, 61, 73
2, 5282, Note_on_c, 0, 55, 0
2, 5342, Note_on_c, 0, 61, 0
2, 5353, Note_on_c, 0, 57, 64
2, 5396, Note_on_c, 0, 57, 0
2, 5426, Note_on_c, 0, 52, 63
2, 5467, Note_on_c, 0, 52, 0
2, 5489, Note_on_c, 0, 54, 61
2, 5506, Note_on_c, 0, 62, 55
2, 5550, Note_on_c, 0, 62, 0
2, 5579, Note_on_c, 0, 54, 0
2, 5582, Note_on_c, 0, 57, 70
2, 5657, Note_on_c, 0, 61, 75
2, 5665, Note_on_c, 0, 57, 0
2, 5721, Note_on_c, 0, 61, 0
2, 5737, Note_on_c, 0, 62, 74
2, 5788, Note_on_c, 0, 62, 0
2, 5822, Note_on_c, 0, 57, 72
2, 5890, Note_on_c, 0, 54, 69
2, 5901, Note_on_c, 0, 57, 0
2, 5958, Note_on_c, 0, 54, 0
2, 5972, Note_on_c, 0, 57, 70
2, 6046, Note_on_c, 0, 57, 0
2, 6052, Note_on_c, 0, 54, 80
2, 6127, Note_on_c, 0, 50, 72
2, 6131, Note_on_c, 0, 54, 0
2, 6200, Note_on_c, 0, 50, 0
2, 6207, Note_on_c, 0, 54, 76
2, 6211, Note_on_c, 0, 62, 68
2, 6239, Note_on_c, 0, 62, 0
2, 6274, Note_on_c, 0, 54, 0
2, 6278, Note_on_c, 0, 50, 72
2, 6348, Note_on_c, 0, 50, 0
2, 6370, Note_on_c, 0, 47, 61
2, 6462, Note_on_c, 0, 47, 0
2, 6463, Note_on_c, 0, 62, 62
2, 6472, Note_on_c, 0, 52, 67
2, 6509, Note_on_c, 0, 52, 0
2, 6547, Note_on_c, 0, 61, 63
2, 6550, Note_on_c, 0, 62, 0
2, 6621, Note_on_c, 0, 61, 0
2, 6623, Note_on_c, 0, 62, 56
2, 6699, Note_on_c, 0, 62, 0
2, 6705, Note_on_c, 0, 64, 61
2, 6718, Note_on_c, 0, 40, 54
2, 6745, Note_on_c, 0, 40, 0
2, 6767, Note_on_c, 0, 61, 59
2, 6774, Note_on_c, 0, 64, 0
2, 6846, Note_on_c, 0, 62, 57
2, 6855, Note_on_c, 0, 61, 0
2, 6949, Note_on_c, 0, 62, 0
2, 6953, Note_on_c, 0, 66, 61
2, 7032, Note_on_c, 0, 66, 0
2, 7034, Note_on_c, 0, 61, 61
2, 7104, Note_on_c, 0, 62, 60
2, 7131, Note_on_c, 0, 61, 0
2, 7195, Note_on_c, 0, 62, 0
2, 7203, Note_on_c, 0, 67, 69
2, 7207, Note_on_c, 0, 52, 50
2, 7232, Note_on_c, 0, 52, 0
2, 7280, Note_on_c, 0, 61, 55
2, 7290, Note_on_c, 0, 67, 0
2, 7363, Note_on_c, 0, 61, 0
2, 7364, Note_on_c, 0, 62, 53
2, 7442, Note_on_c, 0, 62, 0
2, 7452, Note_on_c, 0, 69, 67
2, 7457, Note_on_c, 0, 49, 51
2, 7492, Note_on_c, 0, 49, 0
2, 7527, Note_on_c, 0, 69, 0
2, 7531, Note_on_c, 0, 61, 53
2, 7593, Note_on_c, 0, 61, 0
2, 7602, Note_on_c, 0, 62, 49
2, 7698, Note_on_c, 0, 62, 0
2, 7714, Note_on_c, 0, 45, 56
2, 7714, Note_on_c, 0, 71, 62
2, 7748, Note_on_c, 0, 45, 0
2, 7784, Note_on_c, 0, 71, 0
2, 7803, Note_on_c, 0, 61, 48
2, 7852, Note_on_c, 0, 61, 0
2, 7868, Note_on_c, 0, 62, 44
2, 7956, Note_on_c, 0, 62, 0
2, 7980, Note_on_c, 0, 69, 62
2, 7989, Note_on_c, 0, 47, 52
2, 8014, Note_on_c, 0, 47, 0
2, 8035, Note_on_c, 0, 69, 0
2, 8069, Note_on_c, 0, 61, 54
2, 8124, Note_on_c, 0, 61, 0
2, 8149, Note_on_c, 0, 62, 49
2, 8225, Note_on_c, 0, 62, 0
2, 8240, Note_on_c, 0, 49, 43
2, 8240, Note_on_c, 0, 67, 62
2, 8272, Note_on_c, 0, 49, 0
2, 8306, Note_on_c, 0, 67, 0
2, 8315, Note_on_c, 0, 61, 52
2, 8360, Note_on_c, 0, 61, 0
2, 8397, Note_on_c, 0, 62, 50
2, 8478, Note_on_c, 0, 62, 0
2, 8497, Note_on_c, 0, 66, 63
2, 8513, Note_on_c, 0, 50, 38
2, 8531, Note_on_c, 0, 66, 0
2, 8563, Note_on_c, 0, 50, 0
2, 8584, Note_on_c, 0, 61, 53
2, 8637, Note_on_c, 0, 62, 57
2, 8664, Note_on_c, 0, 61, 0
2, 8743, Note_on_c, 0, 62, 0
2, 8748, Note_on_c, 0, 67, 70
2, 8751, Note_on_c, 0, 52, 63
2, 8787, Note_on_c, 0, 67, 0
2, 8828, Note_on_c, 0, 52, 0
2, 8833, Note_on_c, 0, 61, 70
2, 8904, Note_on_c, 0, 61, 0
2, 8926, Note_on_c, 0, 62, 63
2, 9005, Note_on_c, 0, 62, 0
2, 9006, Note_on_c, 0, 69, 74
2, 9008, Note_on_c, 0, 54, 63
2, 9040, Note_on_c, 0, 69, 0
2, 9078, Note_on_c, 0, 54, 0
2, 9081, Note_on_c, 0, 61, 64
2, 9154, Note_on_c, 0, 61, 0
2, 9163, Note_on_c, 0, 62, 59
2, 9269, Note_on_c, 0, 55, 53
2, 9269, Note_on_c, 0, 71, 73
2, 9271, Note_on_c, 0, 62, 0
2, 9302, Note_on_c, 0, 71, 0
2, 9316, Note_on_c, 0, 55, 0
2, 9341, Note_on_c, 0, 61, 62
2, 9422, Note_on_c, 0, 61, 0
2, 9454, Note_on_c, 0, 62, 49
2, 9534, Note_on_c, 0, 54, 52
2, 9534, Note_on_c, 0, 69, 67
2, 9540, Note_on_c, 0, 62, 0
2, 9572, Note_on_c, 0, 69, 0
2, 9587, Note_on_c, 0, 54, 0
2, 9607, Note_on_c, 0, 61, 56
2, 9675, Note_on_c, 0, 61, 0
2, 9698, Note_on_c, 0, 62, 50
2, 9775, Note_on_c, 0, 62, 0
2, 9787, Note_on_c, 0, 52, 54
2, 9794, Note_on_c, 0, 67, 64
2, 9830, Note_on_c, 0, 67, 0
2, 9853, Note_on_c, 0, 52, 0
2, 9879, Note_on_c, 0, 61, 59
2, 9935, Note_on_c, 0, 61, 0
2, 9963, Note_on_c, 0, 62, 59
2, 10021, Note_on_c, 0, 62, 0
2, 10036, Note_on_c, 0, 66, 71
2, 10038, Note_on_c, 0, 50, 57
2, 10069, Note_on_c, 0, 50, 0
2, 10073, Note_on_c, 0, 66, 0
2, 10125, Note_on_c, 0, 61, 61
2, 10174, Note_on_c, 0, 61, 0
2, 10216, Note_on_c, 0, 62, 53
2, 10267, Note_on_c, 0, 62, 0
2, 10292, Note_on_c, 0, 54, 54
2, 10295, Note_on_c, 0, 69, 66
2, 10319, Note_on_c, 0, 69, 0
2, 10350, Note_on_c, 0, 54, 0
2, 10368, Note_on_c, 0, 61, 64
2, 10421, Note_on_c, 0, 61, 0
2, 10464, Note_on_c, 0, 62, 53
2, 10487, Note_on_c, 0, 62, 0
2, 10552, Note_on_c, 0, 68, 71
2, 10580, Note_on_c, 0, 47, 48
2, 10631, Note_on_c, 0, 47, 0
2, 10640, Note_on_c, 0, 68, 0
2, 10640, Note_on_c, 0, 71, 82
2, 10725, Note_on_c, 0, 74, 81
2, 10726, Note_on_c, 0, 71, 0
2, 10805, Note_on_c, 0, 77, 90
2, 10808, Note_on_c, 0, 59, 67
2, 10812, Note_on_c, 0, 74, 0
2, 10838, Note_on_c, 0, 59, 0
2, 10884, Note_on_c, 0, 74, 83
2, 10916, Note_on_c, 0, 77, 0
2, 10970, Note_on_c, 0, 74, 0
2, 10975, Note_on_c, 0, 71, 85
2, 11031, Note_on_c, 0, 71, 0
2, 11053, Note_on_c, 0, 74, 78
2, 11133, Note_on_c, 0, 71, 83
2, 11139, Note_on_c, 0, 74, 0
2, 11210, Note_on_c, 0, 71, 0
2, 11225, Note_on_c, 0, 68, 66
2, 11292, Note_on_c, 0, 68, 0
2, 11298, Note_on_c, 0, 57, 69
2, 11304, Note_on_c, 0, 71, 70
2, 11322, Note_on_c, 0, 57, 0
2, 11363, Note_on_c, 0, 71, 0
2, 11380, Note_on_c, 0, 68, 64
2, 11446, Note_on_c, 0, 68, 0
2, 11477, Note_on_c, 0, 64, 60
2, 11516, Note_on_c, 0, 64, 0
2, 11549, Note_on_c, 0, 62, 59
2, 11554, Note_on_c, 0, 56, 60
2, 11589, Note_on_c, 0, 56, 0
2, 11598, Note_on_c, 0, 62, 0
2, 11637, Note_on_c, 0, 65, 63
2, 11676, Note_on_c, 0, 65, 0
2, 11709, Note_on_c, 0, 68, 60
2, 11797, Note_on_c, 0, 68, 0
2, 11799, Note_on_c, 0, 44, 55
2, 11804, Note_on_c, 0, 71, 66
2, 11832, Note_on_c, 0, 44, 0
2, 11868, Note_on_c, 0, 71, 0
2, 11883, Note_on_c, 0, 68, 54
2, 11961, Note_on_c, 0, 68, 0
2, 11977, Note_on_c, 0, 65, 61
2, 12051, Note_on_c, 0, 65, 0
2, 12062, Note_on_c, 0, 68, 70
2, 12137, Note_on_c, 0, 65, 65
2, 12139, Note_on_c, 0, 68, 0
2, 12210, Note_on_c, 0, 65, 0
2, 12222, Note_on_c, 0, 62, 65
2, 12263, Note_on_c, 0, 62, 0
2, 12300, Note_on_c, 0, 56, 59
2, 12315, Note_on_c, 0, 65, 72
2, 12327, Note_on_c, 0, 56, 0
2, 12375, Note_on_c, 0, 62, 66
2, 12388, Note_on_c, 0, 65, 0
2, 12462, Note_on_c, 0, 59, 69
2, 12483, Note_on_c, 0, 62, 0
2, 12552, Note_on_c, 0, 59, 0
2, 12565, Note_on_c, 0, 60, 74
2, 12568, Note_on_c, 0, 57, 57
2, 12590, Note_on_c, 0, 60, 0
2, 12644, Note_on_c, 0, 57, 0
2, 12645, Note_on_c, 0, 60, 83
2, 12730, Note_on_c, 0, 64, 89
2, 12732, Note_on_c, 0, 60, 0
2, 12797, Note_on_c, 0, 64, 0
2, 12811, Note_on_c, 0, 69, 79
2, 12821, Note_on_c, 0, 76, 79
2, 12860, Note_on_c, 0, 76, 0
2, 12875, Note_on_c, 0, 69, 0
2, 12887, Note_on_c, 0, 64, 84
2, 12975, Note_on_c, 0, 60, 82
2, 12979, Note_on_c, 0, 64, 0
2, 13044, Note_on_c, 0, 60, 0
2, 13067, Note_on_c, 0, 64, 88
2, 13067, Note_on_c, 0, 72, 81
2, 13095, Note_on_c, 0, 72, 0
2, 13132, Note_on_c, 0, 64, 0
2, 13147, Note_on_c, 0, 60, 84
2, 13223, Note_on_c, 0, 57, 75
2, 13230, Note_on_c, 0, 60, 0
2, 13293, Note_on_c, 0, 57, 0
2, 13309, Note_on_c, 0, 69, 79
2, 13321, Note_on_c, 0, 60, 83
2, 13337, Note_on_c, 0, 69, 0
2, 13380, Note_on_c, 0, 60, 0
2, 13404, Note_on_c, 0, 57, 73
2, 13482, Note_on_c, 0, 57, 0
2, 13483, Note_on_c, 0, 52, 71
2, 13560, Note_on_c, 0, 64, 86
2, 13563, Note_on_c, 0, 52, 0
2, 13567, Note_on_c, 0, 48, 74
2, 13592, Note_on_c, 0, 64, 0
2, 13642, Note_on_c, 0, 48, 0
2, 13645, Note_on_c, 0, 52, 75
2, 13734, Note_on_c, 0, 57, 80
2, 13741, Note_on_c, 0, 52, 0
2, 13795, Note_on_c, 0, 57, 0
2, 13811, Note_on_c, 0, 76, 80
2, 13815, Note_on_c, 0, 60, 83
2, 13841, Note_on_c, 0, 76, 0
2, 13879, Note_on_c, 0, 60, 0
2, 13888, Note_on_c, 0, 57, 82
2, 13955, Note_on_c, 0, 52, 78
2, 13963, Note_on_c, 0, 57, 0
2, 14028, Note_on_c, 0, 52, 0
2, 14061, Note_on_c, 0, 72, 90
2, 14063, Note_on_c, 0, 57, 81
2, 14102, Note_on_c, 0, 72, 0
2, 14131, Note_on_c, 0, 57, 0
2, 14138, Note_on_c, 0, 52, 83
2, 14211, Note_on_c, 0, 48, 81
2, 14230, Note_on_c, 0, 52, 0
2, 14286, Note_on_c, 0, 48, 0
2, 14296, Note_on_c, 0, 52, 76
2, 14298, Note_on_c, 0, 69, 85
2, 14321, Note_on_c, 0, 69, 0
2, 14385, Note_on_c, 0, 48, 77
2, 14388, Note_on_c, 0, 52, 0
2, 14453, Note_on_c, 0, 45, 69
2, 14462, Note_on_c, 0, 48, 0
2, 14559, Note_on_c, 0, 42, 84
2, 14561, Note_on_c, 0, 45, 0
2, 14566, Note_on_c, 0, 75, 93
2, 14615, Note_on_c, 0, 42, 0
2, 14639, Note_on_c, 0, 78, 86
2, 14664, Note_on_c, 0, 75, 0
2, 14717, Note_on_c, 0, 81, 83
2, 14747, Note_on_c, 0, 78, 0
2, 14814, Note_on_c, 0, 84, 85
2, 14820, Note_on_c, 0, 54, 78
2, 14820, Note_on_c, 0, 81, 0
2, 14852, Note_on_c, 0, 54, 0
2, 14892, Note_on_c, 0, 81, 84
2, 14912, Note_on_c, 0, 84, 0
2, 14977, Note_on_c, 0, 78, 84
2, 14985, Note_on_c, 0, 81, 0
2, 15054, Note_on_c, 0, 78, 0
2, 15059, Note_on_c, 0, 81, 80
2, 15136, Note_on_c, 0, 81, 0
2, 15139, Note_on_c, 0, 78, 74
2, 15219, Note_on_c, 0, 78, 0
2, 15232, Note_on_c, 0, 75, 66
2, 15296, Note_on_c, 0, 75, 0
2, 15305, Note_on_c, 0, 52, 71
2, 15313, Note_on_c, 0, 78, 65
2, 15336, Note_on_c, 0, 52, 0
2, 15386, Note_on_c, 0, 78, 0
2, 15401, Note_on_c, 0, 75, 67
2, 15441, Note_on_c, 0, 75, 0
2, 15498, Note_on_c, 0, 71, 54
2, 15552, Note_on_c, 0, 71, 0
2, 15561, Note_on_c, 0, 51, 65
2, 15583, Note_on_c, 0, 69, 58
2, 15605, Note_on_c, 0, 51, 0
2, 15622, Note_on_c, 0, 69, 0
2, 15662, Note_on_c, 0, 72, 60
2, 15699, Note_on_c, 0, 72, 0
2, 15743, Note_on_c, 0, 75, 60
2, 15810, Note_on_c, 0, 75, 0
2, 15819, Note_on_c, 0, 78, 69
2, 15834, Note_on_c, 0, 39, 41
2, 15864, Note_on_c, 0, 39, 0
2, 15904, Note_on_c, 0, 78, 0
2, 15907, Note_on_c, 0, 75, 63
2, 15964, Note_on_c, 0, 75, 0
2, 15986, Note_on_c, 0, 72, 59
2, 16029, Note_on_c, 0, 72, 0
2, 16145, Note_on_c, 0, 72, 56
2, 16200, Note_on_c, 0, 72, 0
2, 16229, Note_on_c, 0, 69, 67
2, 16268, Note_on_c, 0, 69, 0
2, 16316, Note_on_c, 0, 51, 56
2, 16325, Note_on_c, 0, 72, 61
2, 16359, Note_on_c, 0, 51, 0
2, 16396, Note_on_c, 0, 69, 64
2, 16409, Note_on_c, 0, 72, 0
2, 16468, Note_on_c, 0, 69, 0
2, 16478, Note_on_c, 0, 66, 59
2, 16548, Note_on_c, 0, 66, 0
2, 16568, Note_on_c, 0, 67, 56
2, 16576, Note_on_c, 0, 52, 54
2, 16601, Note_on_c, 0, 67, 0
2, 16605, Note_on_c, 0, 52, 0
2, 16659, Note_on_c, 0, 63, 50
2, 16716, Note_on_c, 0, 63, 0
2, 16733, Note_on_c, 0, 64, 61
2, 16812, Note_on_c, 0, 64, 0
2, 16813, Note_on_c, 0, 69, 65
2, 16815, Note_on_c, 0, 54, 59
2, 16849, Note_on_c, 0, 69, 0
2, 16893, Note_on_c, 0, 54, 0
2, 16899, Note_on_c, 0, 63, 55
2, 16966, Note_on_c, 0, 63, 0
2, 16976, Note_on_c, 0, 64, 60
2, 17057, Note_on_c, 0, 64, 0
2, 17063, Note_on_c, 0, 71, 73
2, 17073, Note_on_c, 0, 55, 55
2, 17097, Note_on_c, 0, 71, 0
2, 17135, Note_on_c, 0, 55, 0
2, 17163, Note_on_c, 0, 63, 64
2, 17231, Note_on_c, 0, 63, 0
2, 17248, Note_on_c, 0, 64, 55
2, 17335, Note_on_c, 0, 72, 72
2, 17340, Note_on_c, 0, 57, 56
2, 17347, Note_on_c, 0, 64, 0
2, 17377, Note_on_c, 0, 72, 0
2, 17393, Note_on_c, 0, 57, 0
2, 17430, Note_on_c, 0, 63, 53
2, 17485, Note_on_c, 0, 63, 0
2, 17501, Note_on_c, 0, 64, 52
2, 17600, Note_on_c, 0, 64, 0
2, 17604, Note_on_c, 0, 55, 52
2, 17611, Note_on_c, 0, 71, 66
2, 17647, Note_on_c, 0, 71, 0
2, 17662, Note_on_c, 0, 55, 0
2, 17696, Note_on_c, 0, 63, 54
2, 17773, Note_on_c, 0, 63, 0
2, 17785, Note_on_c, 0, 64, 52
2, 17863, Note_on_c, 0, 64, 0
2, 17864, Note_on_c, 0, 54, 54
2, 17864, Note_on_c, 0, 69, 59
2, 17909, Note_on_c, 0, 69, 0
2, 17941, Note_on_c, 0, 54, 0
2, 17954, Note_on_c, 0, 63, 52
2, 18026, Note_on_c, 0, 63, 0
2, 18041, Note_on_c, 0, 64, 50
2, 18102, Note_on_c, 0, 64, 0
2, 18106, Note_on_c, 0, 67, 69
2, 18127, Note_on_c, 0, 52, 46
2, 18139, Note_on_c, 0, 67, 0
2, 18155, Note_on_c, 0, 52, 0
2, 18213, Note_on_c, 0, 63, 56
2, 18269, Note_on_c, 0, 63, 0
2, 18291, Note_on_c, 0, 64, 48
2, 18356, Note_on_c, 0, 71, 69
2, 18357, Note_on_c, 0, 64, 0
2, 18359, Note_on_c, 0, 55, 58
2, 18389, Note_on_c, 0, 71, 0
2, 18409, Note_on_c, 0, 55, 0
2, 18441, Note_on_c, 0, 63, 56
2, 18488, Note_on_c, 0, 63, 0
2, 18529, Note_on_c, 0, 64, 50
2, 18554, Note_on_c, 0, 64, 0
2, 18617, Note_on_c, 0, 49, 68
2, 18632, Note_on_c, 0, 69, 65
2, 18673, Note_on_c, 0, 49, 0
2, 18709, Note_on_c, 0, 69, 0
2, 18723, Note_on_c, 0, 68, 62
2, 18790, Note_on_c, 0, 68, 0
2, 18806, Note_on_c, 0, 69, 57
2, 18884, Note_on_c, 0, 69, 0
2, 18884, Note_on_c, 0, 71, 72
2, 18893, Note_on_c, 0, 50, 49
2, 18918, Note_on_c, 0, 50, 0
2, 18958, Note_on_c, 0, 71, 0
2, 18961, Note_on_c, 0, 68, 63
2, 19040, Note_on_c, 0, 68, 0
2, 19045, Note_on_c, 0, 69, 57
2, 19136, Note_on_c, 0, 69, 0
2, 19139, Note_on_c, 0, 73, 70
2, 19145, Note_on_c, 0, 52, 52
2, 19169, Note_on_c, 0, 52, 0
2, 19225, Note_on_c, 0, 73, 0
2, 19229, Note_on_c, 0, 68, 65
2, 19299, Note_on_c, 0, 68, 0
2, 19307, Note_on_c, 0, 69, 63
2, 19403, Note_on_c, 0, 69, 0
2, 19403, Note_on_c, 0, 74, 76
2, 19424, Note_on_c, 0, 54, 49
2, 19451, Note_on_c, 0, 54, 0
2, 19496, Note_on_c, 0, 68, 64
2, 19496, Note_on_c, 0, 74, 0
2, 19574, Note_on_c, 0, 69, 68
2, 19575, Note_on_c, 0, 68, 0
2, 19665, Note_on_c, 0, 49, 58
2, 19665, Note_on_c, 0, 76, 78
2, 19668, Note_on_c, 0, 69, 0
2, 19701, Note_on_c, 0, 49, 0
2, 19711, Note_on_c, 0, 73, 28
2, 19741, Note_on_c, 0, 73, 0
2, 19749, Note_on_c, 0, 68, 72
2, 19754, Note_on_c, 0, 76, 0
2, 19818, Note_on_c, 0, 68, 0
2, 19829, Note_on_c, 0, 69, 74
2, 19909, Note_on_c, 0, 69, 0
2, 19918, Note_on_c, 0, 78, 84
2, 19921, Note_on_c, 0, 47, 64
2, 19961, Note_on_c, 0, 47, 0
2, 20000, Note_on_c, 0, 68, 80
2, 20038, Note_on_c, 0, 78, 0
2, 20083, Note_on_c, 0, 68, 0
2, 20084, Note_on_c, 0, 69, 84
2, 20170, Note_on_c, 0, 69, 0
2, 20186, Note_on_c, 0, 79, 88
2, 20198, Note_on_c, 0, 45, 57
2, 20238, Note_on_c, 0, 45, 0
2, 20264, Note_on_c, 0, 76, 86
2, 20292, Note_on_c, 0, 79, 0
2, 20343, Note_on_c, 0, 73, 87
2, 20374, Note_on_c, 0, 76, 0
2, 20414, Note_on_c, 0, 73, 0
2, 20417, Note_on_c, 0, 69, 81
2, 20434, Note_on_c, 0, 49, 63
2, 20463, Note_on_c, 0, 49, 0
2, 20494, Note_on_c, 0, 73, 85
2, 20505, Note_on_c, 0, 69, 0
2, 20571, Note_on_c, 0, 76, 79
2, 20634, Note_on_c, 0, 73, 0
2, 20659, Note_on_c, 0, 78, 78
2, 20665, Note_on_c, 0, 50, 56
2, 20692, Note_on_c, 0, 76, 0
2, 20740, Control_c, 0, 64, 28
2, 20754, Control_c, 0, 64, 47
2, 20763, Note_on_c, 0, 54, 69
2, 20770, Control_c, 0, 64, 54
2, 20774, Note_on_c, 0, 50, 0
2, 20785, Control_c, 0, 64, 58
2, 20800, Control_c, 0, 64, 60
2, 20816, Control_c, 0, 64, 63
2, 20830, Control_c, 0, 64, 65
2, 20840, Note_on_c, 0, 57, 76
2, 20846, Control_c, 0, 64, 67
2, 20861, Control_c, 0, 64, 71
2, 20871, Note_on_c, 0, 54, 0
2, 20876, Control_c, 0, 64, 75
2, 20892, Control_c, 0, 64, 78
2, 20906, Control_c, 0, 64, 82
2, 20921, Control_c, 0, 64, 85
2, 20928, Note_on_c, 0, 57, 0
2, 20935, Note_on_c, 0, 78, 0
2, 20936, Note_on_c, 0, 62, 79
2, 20937, Control_c, 0, 64, 88
2, 20959, Control_c, 0, 64, 91
2, 20975, Control_c, 0, 64, 93
2, 20990, Control_c, 0, 64, 94
2, 21017, Note_on_c, 0, 57, 76
2, 21031, Note_on_c, 0, 62, 0
2, 21091, Note_on_c, 0, 54, 77
2, 21106, Note_on_c, 0, 57, 0
2, 21156, Control_c, 0, 64, 94
2, 21172, Control_c, 0, 64, 93
2, 21172, Note_on_c, 0, 54, 0
2, 21187, Control_c, 0, 64, 91
2, 21191, Note_on_c, 0, 81, 79
2, 21194, Note_on_c, 0, 50, 58
2, 21204, Control_c, 0, 64, 87
2, 21219, Control_c, 0, 64, 84
2, 21229, Note_on_c, 0, 50, 0
2, 21234, Control_c, 0, 64, 80
2, 21250, Control_c, 0, 64, 77
2, 21264, Control_c, 0, 64, 73
2, 21278, Note_on_c, 0, 78, 81
2, 21279, Control_c, 0, 64, 69
2, 21295, Control_c, 0, 64, 64
2, 21310, Control_c, 0, 64, 57
2, 21320, Note_on_c, 0, 81, 0
2, 21326, Control_c, 0, 64, 45
2, 21340, Control_c, 0, 64, 36
2, 21355, Control_c, 0, 64, 34
2, 21359, Note_on_c, 0, 74, 78
2, 21371, Control_c, 0, 64, 32
2, 21386, Control_c, 0, 64, 28
2, 21401, Control_c, 0, 64, 15
2, 21417, Control_c, 0, 64, 0
2, 21417, Note_on_c, 0, 78, 0
2, 21438, Note_on_c, 0, 72, 86
2, 21439, Note_on_c, 0, 74, 0
2, 21449, Note_on_c, 0, 62, 54
2, 21477, Note_on_c, 0, 62, 0
2, 21520, Note_on_c, 0, 74, 85
2, 21536, Note_on_c, 0, 72, 0
2, 21597, Note_on_c, 0, 78, 86
2, 21638, Note_on_c, 0, 74, 0
2, 21687, Note_on_c, 0, 81, 86
2, 21696, Note_on_c, 0, 50, 58
2, 21723, Note_on_c, 0, 78, 0
2, 21743, Control_c, 0, 64, 44
2, 21757, Control_c, 0, 64, 55
2, 21773, Control_c, 0, 64, 59
2, 21786, Note_on_c, 0, 50, 0
2, 21788, Control_c, 0, 64, 62
2, 21790, Note_on_c, 0, 55, 62
2, 21803, Control_c, 0, 64, 64
2, 21818, Control_c, 0, 64, 67
2, 21833, Control_c, 0, 64, 71
2, 21849, Control_c, 0, 64, 75
2, 21864, Control_c, 0, 64, 78
2, 21878, Control_c, 0, 64, 83
2, 21893, Note_on_c, 0, 59, 67
2, 21894, Control_c, 0, 64, 88
2, 21899, Note_on_c, 0, 55, 0
2, 21909, Control_c, 0, 64, 93
2, 21925, Control_c, 0, 64, 97
2, 21940, Control_c, 0, 64, 100
2, 21954, Control_c, 0, 64, 101
2, 21968, Note_on_c, 0, 79, 82
2, 21970, Control_c, 0, 64, 102
2, 21973, Note_on_c, 0, 59, 0
2, 21985, Control_c, 0, 64, 103
2, 21988, Note_on_c, 0, 62, 73
2, 21997, Note_on_c, 0, 81, 0
2, 22000, Control_c, 0, 64, 104
2, 22016, Control_c, 0, 64, 104
2, 22053, Note_on_c, 0, 79, 0
2, 22060, Note_on_c, 0, 62, 0
2, 22065, Note_on_c, 0, 59, 72
2, 22138, Note_on_c, 0, 55, 71
2, 22139, Note_on_c, 0, 59, 0
2, 22221, Note_on_c, 0, 55, 0
2, 22248, Note_on_c, 0, 79, 79
2, 22250, Note_on_c, 0, 50, 59
2, 22272, Note_on_c, 0, 50, 0
2, 22275, Control_c, 0, 64, 102
2, 22291, Control_c, 0, 64, 92
2, 22305, Control_c, 0, 64, 77
2, 22320, Control_c, 0, 64, 62
2, 22336, Control_c, 0, 64, 0
2, 22342, Note_on_c, 0, 76, 81
2, 22359, Note_on_c, 0, 79, 0
2, 22422, Note_on_c, 0, 73, 82
2, 22468, Note_on_c, 0, 76, 0
2, 22511, Note_on_c, 0, 69, 79
2, 22511, Note_on_c, 0, 73, 0
2, 22525, Note_on_c, 0, 62, 36
2, 22535, Note_on_c, 0, 62, 0
2, 22588, Note_on_c, 0, 73, 85
2, 22599, Note_on_c, 0, 69, 0
2, 22663, Note_on_c, 0, 76, 82
2, 22704, Note_on_c, 0, 73, 0
2, 22758, Note_on_c, 0, 50, 56
2, 22761, Note_on_c, 0, 79, 83
2, 22784, Control_c, 0, 64, 15
2, 22792, Note_on_c, 0, 76, 0
2, 22798, Control_c, 0, 64, 49
2, 22814, Control_c, 0, 64, 59
2, 22829, Control_c, 0, 64, 63
2, 22846, Control_c, 0, 64, 65
2, 22860, Note_on_c, 0, 50, 0
2, 22861, Control_c, 0, 64, 68
2, 22866, Note_on_c, 0, 57, 62
2, 22875, Control_c, 0, 64, 72
2, 22891, Control_c, 0, 64, 79
2, 22906, Control_c, 0, 64, 86
2, 22921, Control_c, 0, 64, 94
2, 22937, Control_c, 0, 64, 105
2, 22949, Note_on_c, 0, 61, 76
2, 22951, Control_c, 0, 64, 127
2, 22951, Note_on_c, 0, 57, 0
2, 23021, Note_on_c, 0, 61, 0
2, 23033, Note_on_c, 0, 62, 77
2, 23036, Note_on_c, 0, 78, 80
2, 23064, Note_on_c, 0, 79, 0
2, 23109, Note_on_c, 0, 78, 0
2, 23117, Note_on_c, 0, 62, 0
2, 23124, Note_on_c, 0, 57, 76
2, 23208, Note_on_c, 0, 54, 74
2, 23219, Note_on_c, 0, 57, 0
2, 23296, Note_on_c, 0, 78, 78
2, 23301, Note_on_c, 0, 54, 0
2, 23309, Control_c, 0, 64, 109
2, 23314, Note_on_c, 0, 50, 62
2, 23325, Control_c, 0, 64, 89
2, 23340, Control_c, 0, 64, 76
2, 23346, Note_on_c, 0, 50, 0
2, 23354, Control_c, 0, 64, 65
2, 23370, Control_c, 0, 64, 45
2, 23379, Note_on_c, 0, 74, 74
2, 23385, Control_c, 0, 64, 0
2, 23398, Note_on_c, 0, 78, 0
2, 23453, Note_on_c, 0, 71, 81
2, 23498, Note_on_c, 0, 74, 0
2, 23532, Note_on_c, 0, 62, 68
2, 23541, Note_on_c, 0, 67, 82
2, 23541, Note_on_c, 0, 71, 0
2, 23567, Note_on_c, 0, 62, 0
2, 23616, Note_on_c, 0, 71, 81
2, 23623, Note_on_c, 0, 67, 0
2, 23703, Note_on_c, 0, 74, 75
2, 23750, Note_on_c, 0, 71, 0
2, 23778, Note_on_c, 0, 50, 61
2, 23793, Note_on_c, 0, 78, 80
2, 23795, Control_c, 0, 64, 43
2, 23811, Control_c, 0, 64, 56
2, 23818, Note_on_c, 0, 74, 0
2, 23826, Control_c, 0, 64, 61
2, 23840, Control_c, 0, 64, 63
2, 23856, Control_c, 0, 64, 66
2, 23868, Note_on_c, 0, 50, 0
2, 23871, Control_c, 0, 64, 69
2, 23877, Note_on_c, 0, 52, 61
2, 23887, Control_c, 0, 64, 73
2, 23902, Control_c, 0, 64, 82
2, 23916, Control_c, 0, 64, 92
2, 23932, Control_c, 0, 64, 108
2, 23947, Control_c, 0, 64, 127
2, 23960, Note_on_c, 0, 52, 0
2, 23960, Note_on_c, 0, 55, 65
2, 24034, Note_on_c, 0, 55, 0
2, 24053, Note_on_c, 0, 59, 65
2, 24061, Note_on_c, 0, 76, 70
2, 24092, Note_on_c, 0, 78, 0
2, 24117, Note_on_c, 0, 59, 0
2, 24117, Note_on_c, 0, 76, 0
2, 24136, Note_on_c, 0, 55, 60
2, 24208, Note_on_c, 0, 55, 0
2, 24223, Note_on_c, 0, 52, 57
2, 24314, Note_on_c, 0, 52, 0
2, 24330, Note_on_c, 0, 76, 65
2, 24334, Control_c, 0, 64, 103
2, 24348, Note_on_c, 0, 50, 43
2, 24349, Control_c, 0, 64, 73
2, 24365, Control_c, 0, 64, 0
2, 24378, Note_on_c, 0, 50, 0
2, 24400, Note_on_c, 0, 76, 0
2, 24404, Note_on_c, 0, 73, 66
2, 24480, Note_on_c, 0, 69, 62
2, 24491, Note_on_c, 0, 73, 0
2, 24542, Note_on_c, 0, 69, 0
2, 24566, Note_on_c, 0, 67, 60
2, 24572, Note_on_c, 0, 62, 58
2, 24607, Note_on_c, 0, 62, 0
2, 24620, Note_on_c, 0, 67, 0
2, 24650, Note_on_c, 0, 69, 52
2, 24723, Note_on_c, 0, 69, 0
2, 24731, Note_on_c, 0, 73, 55
2, 24833, Note_on_c, 0, 50, 44
2, 24838, Note_on_c, 0, 76, 57
2, 24839, Note_on_c, 0, 73, 0
2, 24887, Note_on_c, 0, 50, 0
2, 24918, Note_on_c, 0, 54, 49
2, 24978, Note_on_c, 0, 54, 0
2, 24981, Control_c, 0, 64, 36
2, 24996, Control_c, 0, 64, 47
2, 25012, Control_c, 0, 64, 52
2, 25018, Note_on_c, 0, 57, 43
2, 25027, Control_c, 0, 64, 55
2, 25043, Control_c, 0, 64, 57
2, 25057, Control_c, 0, 64, 59
2, 25064, Note_on_c, 0, 57, 0
2, 25072, Control_c, 0, 64, 60
2, 25088, Control_c, 0, 64, 62
2, 25103, Control_c, 0, 64, 62
2, 25109, Note_on_c, 0, 62, 49
2, 25111, Note_on_c, 0, 74, 53
2, 25117, Control_c, 0, 64, 63
2, 25148, Control_c, 0, 64, 63
2, 25149, Note_on_c, 0, 76, 0
2, 25177, Note_on_c, 0, 62, 0
2, 25178, Control_c, 0, 64, 64
2, 25193, Note_on_c, 0, 57, 39
2, 25209, Control_c, 0, 64, 64
2, 25257, Note_on_c, 0, 57, 0
2, 25271, Note_on_c, 0, 54, 57
2, 25327, Note_on_c, 0, 54, 0
2, 25345, Note_on_c, 0, 74, 0
2, 25363, Note_on_c, 0, 57, 70
2, 25392, Control_c, 0, 64, 64
2, 25407, Control_c, 0, 64, 63
2, 25422, Control_c, 0, 64, 63
2, 25434, Note_on_c, 0, 57, 0
2, 25440, Note_on_c, 0, 54, 62
2, 25468, Control_c, 0, 64, 62
2, 25483, Control_c, 0, 64, 62
2, 25507, Note_on_c, 0, 54, 0
2, 25516, Note_on_c, 0, 50, 59
2, 25592, Note_on_c, 0, 50, 0
2, 25611, Note_on_c, 0, 74, 63
2, 25623, Note_on_c, 0, 54, 66
2, 25657, Note_on_c, 0, 74, 0
2, 25690, Note_on_c, 0, 54, 0
2, 25709, Note_on_c, 0, 50, 59
2, 25759, Note_on_c, 0, 50, 0
2, 25790, Note_on_c, 0, 48, 55
2, 25840, Control_c, 0, 64, 60
2, 25853, Note_on_c, 0, 48, 0
2, 25856, Control_c, 0, 64, 56
2, 25871, Control_c, 0, 64, 47
2, 25871, Note_on_c, 0, 47, 60
2, 25875, Note_on_c, 0, 74, 68
2, 25887, Control_c, 0, 64, 29
2, 25901, Control_c, 0, 64, 0
2, 25930, Note_on_c, 0, 47, 0
2, 25956, Note_on_c, 0, 72, 68
2, 25956, Note_on_c, 0, 74, 0
2, 25964, Note_on_c, 0, 50, 46
2, 26012, Note_on_c, 0, 50, 0
2, 26027, Note_on_c, 0, 54, 66
2, 26035, Note_on_c, 0, 72, 0
2, 26038, Note_on_c, 0, 71, 77
2, 26069, Note_on_c, 0, 71, 0
2, 26072, Note_on_c, 0, 54, 0
2, 26115, Note_on_c, 0, 55, 60
2, 26138, Note_on_c, 0, 71, 65
2, 26156, Note_on_c, 0, 55, 0
2, 26180, Note_on_c, 0, 71, 0
2, 26197, Note_on_c, 0, 69, 68
2, 26200, Note_on_c, 0, 50, 57
2, 26253, Note_on_c, 0, 69, 0
2, 26259, Note_on_c, 0, 50, 0
2, 26265, Note_on_c, 0, 47, 62
2, 26274, Note_on_c, 0, 67, 75
2, 26310, Note_on_c, 0, 67, 0
2, 26318, Note_on_c, 0, 47, 0
2, 26356, Note_on_c, 0, 50, 72
2, 26356, Note_on_c, 0, 67, 70
2, 26408, Note_on_c, 0, 50, 0
2, 26421, Note_on_c, 0, 67, 0
2, 26437, Note_on_c, 0, 47, 67
2, 26439, Note_on_c, 0, 71, 73
2, 26502, Note_on_c, 0, 47, 0
2, 26510, Note_on_c, 0, 43, 65
2, 26513, Note_on_c, 0, 71, 0
2, 26514, Note_on_c, 0, 74, 74
2, 26571, Note_on_c, 0, 43, 0
2, 26588, Note_on_c, 0, 74, 0
2, 26591, Note_on_c, 0, 77, 80
2, 26595, Note_on_c, 0, 47, 68
2, 26663, Note_on_c, 0, 47, 0
2, 26666, Note_on_c, 0, 43, 72
2, 26669, Note_on_c, 0, 77, 0
2, 26675, Note_on_c, 0, 76, 66
2, 26737, Note_on_c, 0, 43, 0
2, 26742, Note_on_c, 0, 74, 72
2, 26742, Note_on_c, 0, 76, 0
2, 26751, Note_on_c, 0, 41, 60
2, 26775, Note_on_c, 0, 74, 0
2, 26809, Note_on_c, 0, 41, 0
2, 26819, Note_on_c, 0, 40, 66
2, 26828, Note_on_c, 0, 74, 71
2, 26895, Note_on_c, 0, 40, 0
2, 26901, Note_on_c, 0, 43, 64
2, 26905, Note_on_c, 0, 74, 0
2, 26913, Note_on_c, 0, 76, 73
2, 26979, Note_on_c, 0, 43, 0
2, 26987, Note_on_c, 0, 76, 0
2, 26993, Note_on_c, 0, 77, 72
2, 27005, Note_on_c, 0, 47, 61
2, 27044, Note_on_c, 0, 47, 0
2, 27072, Note_on_c, 0, 48, 67
2, 27074, Note_on_c, 0, 76, 75
2, 27086, Note_on_c, 0, 77, 0
2, 27127, Note_on_c, 0, 48, 0
2, 27170, Note_on_c, 0, 52, 63
2, 27254, Note_on_c, 0, 55, 74
2, 27256, Note_on_c, 0, 52, 0
2, 27312, Note_on_c, 0, 76, 0
2, 27317, Note_on_c, 0, 55, 0
2, 27346, Note_on_c, 0, 60, 81
2, 27415, Note_on_c, 0, 60, 0
2, 27419, Note_on_c, 0, 55, 70
2, 27494, Note_on_c, 0, 55, 0
2, 27499, Note_on_c, 0, 52, 64
2, 27566, Note_on_c, 0, 52, 0
2, 27574, Note_on_c, 0, 76, 76
2, 27592, Note_on_c, 0, 55, 66
2, 27652, Note_on_c, 0, 76, 0
2, 27663, Note_on_c, 0, 55, 0
2, 27670, Note_on_c, 0, 52, 71
2, 27739, Note_on_c, 0, 52, 0
2, 27767, Note_on_c, 0, 50, 66
2, 27834, Note_on_c, 0, 50, 0
2, 27841, Note_on_c, 0, 49, 70
2, 27844, Note_on_c, 0, 76, 75
2, 27920, Note_on_c, 0, 74, 68
2, 27923, Note_on_c, 0, 49, 0
2, 27929, Note_on_c, 0, 76, 0
2, 27935, Note_on_c, 0, 52, 52
2, 27992, Note_on_c, 0, 52, 0
2, 27996, Note_on_c, 0, 73, 82
2, 27998, Note_on_c, 0, 55, 74
2, 28007, Note_on_c, 0, 74, 0
2, 28029, Note_on_c, 0, 73, 0
2, 28054, Note_on_c, 0, 55, 0
2, 28080, Note_on_c, 0, 57, 77
2, 28081, Note_on_c, 0, 73, 71
2, 28147, Note_on_c, 0, 57, 0
2, 28157, Note_on_c, 0, 71, 86
2, 28163, Note_on_c, 0, 52, 73
2, 28167, Note_on_c, 0, 73, 0
2, 28228, Note_on_c, 0, 69, 82
2, 28237, Note_on_c, 0, 49, 68
2, 28239, Note_on_c, 0, 52, 0
2, 28243, Note_on_c, 0, 71, 0
2, 28267, Note_on_c, 0, 69, 0
2, 28280, Note_on_c, 0, 49, 0
2, 28312, Note_on_c, 0, 52, 69
2, 28313, Note_on_c, 0, 69, 76
2, 28387, Note_on_c, 0, 52, 0
2, 28389, Note_on_c, 0, 49, 74
2, 28394, Note_on_c, 0, 69, 0
2, 28399, Note_on_c, 0, 73, 82
2, 28464, Note_on_c, 0, 49, 0
2, 28466, Note_on_c, 0, 45, 65
2, 28477, Note_on_c, 0, 76, 77
2, 28479, Note_on_c, 0, 73, 0
2, 28534, Note_on_c, 0, 45, 0
2, 28543, Note_on_c, 0, 49, 80
2, 28547, Note_on_c, 0, 76, 0
2, 28551, Note_on_c, 0, 79, 77
2, 28615, Note_on_c, 0, 45, 72
2, 28620, Note_on_c, 0, 49, 0
2, 28636, Note_on_c, 0, 78, 77
2, 28644, Note_on_c, 0, 79, 0
2, 28699, Note_on_c, 0, 45, 0
2, 28708, Note_on_c, 0, 43, 72
2, 28721, Note_on_c, 0, 76, 72
2, 28722, Note_on_c, 0, 78, 0
2, 28748, Note_on_c, 0, 76, 0
2, 28787, Note_on_c, 0, 42, 77
2, 28797, Note_on_c, 0, 43, 0
2, 28802, Note_on_c, 0, 76, 84
2, 28855, Note_on_c, 0, 45, 73
2, 28861, Note_on_c, 0, 42, 0
2, 28882, Note_on_c, 0, 78, 85
2, 28884, Note_on_c, 0, 76, 0
2, 28948, Note_on_c, 0, 49, 70
2, 28949, Note_on_c, 0, 45, 0
2, 28957, Note_on_c, 0, 79, 81
2, 28974, Note_on_c, 0, 78, 0
2, 29018, Note_on_c, 0, 49, 0
2, 29035, Note_on_c, 0, 50, 76
2, 29040, Note_on_c, 0, 78, 88
2, 29070, Note_on_c, 0, 79, 0
2, 29113, Note_on_c, 0, 50, 0
2, 29123, Note_on_c, 0, 54, 77
2, 29198, Note_on_c, 0, 54, 0
2, 29204, Note_on_c, 0, 57, 82
2, 29274, Note_on_c, 0, 57, 0
2, 29275, Note_on_c, 0, 78, 0
2, 29300, Note_on_c, 0, 62, 76
2, 29373, Note_on_c, 0, 62, 0
2, 29376, Note_on_c, 0, 57, 81
2, 29460, Note_on_c, 0, 54, 80
2, 29480, Note_on_c, 0, 57, 0
2, 29538, Note_on_c, 0, 54, 0
2, 29547, Note_on_c, 0, 81, 92
2, 29550, Note_on_c, 0, 57, 73
2, 29620, Note_on_c, 0, 81, 0
2, 29632, Note_on_c, 0, 54, 82
2, 29632, Note_on_c, 0, 57, 0
2, 29712, Note_on_c, 0, 50, 77
2, 29723, Note_on_c, 0, 54, 0
2, 29787, Note_on_c, 0, 50, 0
2, 29800, Note_on_c, 0, 54, 86
2, 29800, Note_on_c, 0, 81, 87
2, 29882, Note_on_c, 0, 79, 85
2, 29883, Note_on_c, 0, 50, 73
2, 29890, Note_on_c, 0, 54, 0
2, 29911, Note_on_c, 0, 81, 0
2, 29955, Note_on_c, 0, 45, 74
2, 29958, Note_on_c, 0, 78, 84
2, 29963, Note_on_c, 0, 50, 0
2, 29971, Note_on_c, 0, 79, 0
2, 29991, Note_on_c, 0, 78, 0
2, 29992, Note_on_c, 0, 45, 0
2, 30033, Note_on_c, 0, 50, 73
2, 30048, Note_on_c, 0, 78, 81
2, 30102, Note_on_c, 0, 78, 0
2, 30103, Note_on_c, 0, 45, 76
2, 30114, Note_on_c, 0, 50, 0
2, 30124, Note_on_c, 0, 76, 90
2, 30201, Note_on_c, 0, 42, 78
2, 30207, Note_on_c, 0, 74, 84
2, 30225, Note_on_c, 0, 76, 0
2, 30237, Note_on_c, 0, 45, 0
2, 30253, Note_on_c, 0, 74, 0
2, 30290, Note_on_c, 0, 74, 84
2, 30293, Note_on_c, 0, 38, 79
2, 30303, Note_on_c, 0, 42, 0
2, 30323, Note_on_c, 0, 38, 0
2, 30376, Note_on_c, 0, 78, 88
2, 30390, Note_on_c, 0, 74, 0
2, 30464, Note_on_c, 0, 81, 75
2, 30485, Note_on_c, 0, 78, 0
2, 30535, Note_on_c, 0, 50, 93
2, 30544, Note_on_c, 0, 84, 91
2, 30555, Note_on_c, 0, 81, 0
2, 30563, Note_on_c, 0, 50, 0
2, 30627, Note_on_c, 0, 83, 83
2, 30660, Note_on_c, 0, 84, 0
2, 30722, Note_on_c, 0, 81, 73
2, 30725, Note_on_c, 0, 83, 0
2, 30758, Note_on_c, 0, 81, 0
2, 30824, Note_on_c, 0, 43, 81
2, 30828, Note_on_c, 0, 81, 89
2, 30909, Note_on_c, 0, 83, 83
2, 30914, Note_on_c, 0, 81, 0
2, 31003, Note_on_c, 0, 84, 81
2, 31007, Note_on_c, 0, 83, 0
2, 31082, Note_on_c, 0, 83, 92
2, 31099, Note_on_c, 0, 84, 0
2, 31177, Note_on_c, 0, 43, 0
2, 31180, Note_on_c, 0, 47, 77
2, 31251, Note_on_c, 0, 50, 79
2, 31253, Note_on_c, 0, 47, 0
2, 31315, Note_on_c, 0, 50, 0
2, 31336, Note_on_c, 0, 55, 76
2, 31371, Note_on_c, 0, 55, 0
2, 31405, Note_on_c, 0, 81, 78
2, 31418, Note_on_c, 0, 57, 81
2, 31436, Note_on_c, 0, 83, 0
2, 31473, Note_on_c, 0, 81, 0
2, 31484, Note_on_c, 0, 79, 86
2, 31488, Note_on_c, 0, 57, 0
2, 31496, Note_on_c, 0, 59, 79
2, 31524, Note_on_c, 0, 59, 0
2, 31530, Note_on_c, 0, 79, 0
2, 31564, Note_on_c, 0, 77, 83
2, 31577, Note_on_c, 0, 59, 76
2, 31637, Note_on_c, 0, 76, 79
2, 31644, Note_on_c, 0, 60, 78
2, 31654, Note_on_c, 0, 59, 0
2, 31656, Note_on_c, 0, 77, 0
2, 31714, Note_on_c, 0, 74, 81
2, 31723, Note_on_c, 0, 60, 0
2, 31724, Note_on_c, 0, 62, 77
2, 31740, Note_on_c, 0, 76, 0
2, 31785, Note_on_c, 0, 62, 0
2, 31789, Note_on_c, 0, 74, 0
2, 31793, Note_on_c, 0, 72, 92
2, 31798, Note_on_c, 0, 64, 89
2, 31873, Note_on_c, 0, 72, 0
2, 31875, Note_on_c, 0, 76, 83
2, 31913, Note_on_c, 0, 64, 0
2, 31955, Note_on_c, 0, 76, 0
2, 31958, Note_on_c, 0, 79, 80
2, 32036, Note_on_c, 0, 60, 78
2, 32036, Note_on_c, 0, 79, 0
2, 32037, Note_on_c, 0, 81, 81
2, 32097, Note_on_c, 0, 60, 0
2, 32106, Note_on_c, 0, 57, 62
2, 32118, Note_on_c, 0, 78, 82
2, 32143, Note_on_c, 0, 81, 0
2, 32165, Note_on_c, 0, 57, 0
2, 32200, Note_on_c, 0, 74, 71
2, 32206, Note_on_c, 0, 78, 0
2, 32256, Note_on_c, 0, 62, 72
2, 32273, Note_on_c, 0, 74, 0
2, 32276, Note_on_c, 0, 71, 81
2, 32349, Note_on_c, 0, 74, 74
2, 32351, Note_on_c, 0, 71, 0
2, 32355, Note_on_c, 0, 62, 0
2, 32425, Note_on_c, 0, 78, 75
2, 32444, Note_on_c, 0, 74, 0
2, 32520, Note_on_c, 0, 79, 81
2, 32523, Note_on_c, 0, 59, 71
2, 32540, Note_on_c, 0, 78, 0
2, 32596, Note_on_c, 0, 59, 0
2, 32598, Note_on_c, 0, 76, 77
2, 32600, Note_on_c, 0, 55, 63
2, 32606, Note_on_c, 0, 79, 0
2, 32645, Note_on_c, 0, 55, 0
2, 32657, Note_on_c, 0, 52, 62
2, 32674, Note_on_c, 0, 72, 75
2, 32704, Note_on_c, 0, 76, 0
2, 32733, Note_on_c, 0, 52, 0
2, 32750, Note_on_c, 0, 72, 0
2, 32751, Note_on_c, 0, 60, 72
2, 32756, Note_on_c, 0, 69, 73
2, 32821, Note_on_c, 0, 69, 0
2, 32825, Note_on_c, 0, 72, 76
2, 32835, Note_on_c, 0, 60, 0
2, 32911, Note_on_c, 0, 72, 0
2, 32913, Note_on_c, 0, 76, 73
2, 33002, Note_on_c, 0, 57, 69
2, 33004, Note_on_c, 0, 78, 80
2, 33026, Note_on_c, 0, 76, 0
2, 33073, Note_on_c, 0, 57, 0
2, 33075, Note_on_c, 0, 74, 73
2, 33088, Note_on_c, 0, 54, 59
2, 33092, Note_on_c, 0, 78, 0
2, 33138, Note_on_c, 0, 54, 0
2, 33152, Note_on_c, 0, 50, 53
2, 33160, Note_on_c, 0, 71, 75
2, 33197, Note_on_c, 0, 74, 0
2, 33240, Note_on_c, 0, 50, 0
2, 33248, Note_on_c, 0, 71, 0
2, 33253, Note_on_c, 0, 59, 62
2, 33259, Note_on_c, 0, 67, 73
2, 33322, Note_on_c, 0, 67, 0
2, 33328, Note_on_c, 0, 71, 72
2, 33339, Note_on_c, 0, 59, 0
2, 33412, Note_on_c, 0, 71, 0
2, 33413, Note_on_c, 0, 74, 70
2, 33486, Note_on_c, 0, 55, 68
2, 33495, Note_on_c, 0, 76, 79
2, 33497, Note_on_c, 0, 74, 0
2, 33556, Note_on_c, 0, 55, 0
2, 33567, Note_on_c, 0, 76, 0
2, 33574, Note_on_c, 0, 52, 54
2, 33576, Note_on_c, 0, 72, 74
2, 33613, Note_on_c, 0, 52, 0
2, 33626, Note_on_c, 0, 48, 53
2, 33646, Note_on_c, 0, 69, 71
2, 33652, Note_on_c, 0, 72, 0
2, 33702, Note_on_c, 0, 48, 0
2, 33718, Note_on_c, 0, 69, 0
2, 33726, Note_on_c, 0, 57, 61
2, 33728, Note_on_c, 0, 66, 72
2, 33796, Note_on_c, 0, 66, 0
2, 33800, Note_on_c, 0, 69, 67
2, 33813, Note_on_c, 0, 57, 0
2, 33882, Note_on_c, 0, 69, 0
2, 33886, Note_on_c, 0, 72, 66
2, 33964, Note_on_c, 0, 54, 60
2, 33968, Note_on_c, 0, 74, 72
2, 33980, Note_on_c, 0, 72, 0
2, 34011, Note_on_c, 0, 54, 0
2, 34044, Note_on_c, 0, 50, 54
2, 34051, Note_on_c, 0, 74, 0
2, 34057, Note_on_c, 0, 71, 66
2, 34089, Note_on_c, 0, 50, 0
2, 34104, Note_on_c, 0, 47, 55
2, 34139, Note_on_c, 0, 67, 62
2, 34149, Note_on_c, 0, 71, 0
2, 34186, Note_on_c, 0, 47, 0
2, 34203, Note_on_c, 0, 67, 0
2, 34212, Note_on_c, 0, 55, 59
2, 34219, Note_on_c, 0, 64, 58
2, 34272, Note_on_c, 0, 55, 0
2, 34279, Note_on_c, 0, 64, 0
2, 34298, Note_on_c, 0, 67, 64
2, 34364, Note_on_c, 0, 67, 0
2, 34376, Note_on_c, 0, 71, 72
2, 34458, Note_on_c, 0, 52, 59
2, 34459, Note_on_c, 0, 71, 0
2, 34462, Note_on_c, 0, 72, 70
2, 34512, Note_on_c, 0, 52, 0
2, 34526, Note_on_c, 0, 69, 66
2, 34526, Note_on_c, 0, 72, 0
2, 34529, Note_on_c, 0, 48, 59
2, 34576, Note_on_c, 0, 48, 0
2, 34604, Note_on_c, 0, 45, 58
2, 34611, Note_on_c, 0, 66, 67
2, 34614, Note_on_c, 0, 69, 0
2, 34677, Note_on_c, 0, 66, 0
2, 34689, Note_on_c, 0, 54, 60
2, 34693, Note_on_c, 0, 62, 62
2, 34709, Note_on_c, 0, 45, 0
2, 34753, Note_on_c, 0, 62, 0
2, 34756, Note_on_c, 0, 54, 0
2, 34777, Note_on_c, 0, 66, 64
2, 34848, Note_on_c, 0, 66, 0
2, 34858, Note_on_c, 0, 69, 60
2, 34940, Note_on_c, 0, 50, 75
2, 34943, Note_on_c, 0, 71, 69
2, 34949, Note_on_c, 0, 69, 0
2, 35015, Note_on_c, 0, 50, 0
2, 35029, Note_on_c, 0, 67, 73
2, 35032, Note_on_c, 0, 47, 74
2, 35037, Note_on_c, 0, 71, 0
2, 35103, Note_on_c, 0, 47, 0
2, 35108, Note_on_c, 0, 43, 71
2, 35114, Note_on_c, 0, 64, 80
2, 35148, Note_on_c, 0, 67, 0
2, 35180, Note_on_c, 0, 64, 0
2, 35181, Note_on_c, 0, 43, 0
2, 35187, Note_on_c, 0, 60, 88
2, 35189, Note_on_c, 0, 52, 76
2, 35249, Note_on_c, 0, 52, 0
2, 35264, Note_on_c, 0, 48, 76
2, 35266, Note_on_c, 0, 64, 89
2, 35267, Note_on_c, 0, 60, 0
2, 35337, Note_on_c, 0, 48, 0
2, 35340, Note_on_c, 0, 67, 83
2, 35342, Note_on_c, 0, 45, 74
2, 35345, Note_on_c, 0, 64, 0
2, 35420, Note_on_c, 0, 69, 83
2, 35430, Note_on_c, 0, 67, 0
2, 35431, Note_on_c, 0, 54, 85
2, 35432, Note_on_c, 0, 45, 0
2, 35497, Note_on_c, 0, 50, 76
2, 35500, Note_on_c, 0, 54, 0
2, 35507, Note_on_c, 0, 66, 84
2, 35523, Note_on_c, 0, 69, 0
2, 35580, Note_on_c, 0, 47, 66
2, 35592, Note_on_c, 0, 62, 82
2, 35606, Note_on_c, 0, 50, 0
2, 35613, Note_on_c, 0, 66, 0
2, 35669, Note_on_c, 0, 55, 83
2, 35674, Note_on_c, 0, 47, 0
2, 35678, Note_on_c, 0, 59, 86
2, 35679, Note_on_c, 0, 62, 0
2, 35715, Note_on_c, 0, 55, 0
2, 35765, Note_on_c, 0, 62, 87
2, 35773, Note_on_c, 0, 59, 0
2, 35844, Note_on_c, 0, 66, 78
2, 35856, Note_on_c, 0, 62, 0
2, 35932, Note_on_c, 0, 52, 77
2, 35933, Note_on_c, 0, 67, 83
2, 35969, Note_on_c, 0, 52, 0
2, 35971, Note_on_c, 0, 66, 0
2, 36028, Note_on_c, 0, 64, 91
2, 36046, Note_on_c, 0, 67, 0
2, 36128, Note_on_c, 0, 60, 87
2, 36168, Note_on_c, 0, 64, 0
2, 36242, Note_on_c, 0, 60, 0
2, 36247, Note_on_c, 0, 57, 85
2, 36252, Note_on_c, 0, 48, 77
2, 36309, Note_on_c, 0, 48, 0
2, 36381, Note_on_c, 0, 60, 91
2, 36393, Note_on_c, 0, 57, 0
2, 36499, Note_on_c, 0, 64, 89
2, 36514, Note_on_c, 0, 60, 0
2, 36665, Note_on_c, 0, 66, 84
2, 36676, Note_on_c, 0, 50, 76
2, 36688, Note_on_c, 0, 64, 0
2, 36756, Note_on_c, 0, 50, 0
2, 36875, Note_on_c, 0, 62, 87
2, 36911, Note_on_c, 0, 66, 0
2, 37119, Note_on_c, 0, 60, 90
2, 37119, Note_on_c, 0, 62, 0
2, 37616, Note_on_c, 0, 59, 81
2, 37631, Note_on_c, 0, 62, 68
2, 37633, Note_on_c, 0, 43, 53
2, 37634, Note_on_c, 0, 60, 0
2, 37636, Note_on_c, 0, 67, 72
2, 39727, Note_on_c, 0, 59, 0
2, 39741, Note_on_c, 0, 43, 0
2, 39748, Note_on_c, 0, 67, 0
2, 39752, Note_on_c, 0, 62, 0
2, 41056,End_track
0, 0, End_of_file
