0, 0, Header, 1, 2, 384
1, 0, Start_track
1, 0, Tempo, 500000
1, 0, Time_signature, 4, 2, 24, 8
1, 1, End_track
2,0,Start_track
2,0, Note_on_c, 0, 67, 65
2,39, Note_on_c, 0, 67, 0
2,270, Note_on_c, 0, 69, 59
2,363, Note_on_c, 0, 69, 0
2,366, Note_on_c, 0, 67, 64
2,469, Note_on_c, 0, 67, 0
2,476, Note_on_c, 0, 66, 70
2,577, Note_on_c, 0, 66, 0
2,592, Note_on_c, 0, 67, 69
2,729, Note_on_c, 0, 69, 70
2,731, Note_on_c, 0, 67, 0
2,766, Note_on_c, 0, 69, 0
2,971, Note_on_c, 0, 71, 68
2,1075, Note_on_c, 0, 69, 62
2,1077, Note_on_c, 0, 71, 0
2,1203, Note_on_c, 0, 69, 0
2,1204, Note_on_c, 0, 67, 68
2,1310, Note_on_c, 0, 67, 0
2,1317, Note_on_c, 0, 69, 64
2,1441, Note_on_c, 0, 71, 72
2,1449, Note_on_c, 0, 69, 0
2,1480, Note_on_c, 0, 71, 0
2,1677, Note_on_c, 0, 69, 66
2,1710, Note_on_c, 0, 69, 0
2,1912, Note_on_c, 0, 67, 70
2,1948, Note_on_c, 0, 67, 0
2,2178, Note_on_c, 0, 62, 61
2,2210, Note_on_c, 0, 62, 0
2,2450, Note_on_c, 0, 72, 73
2,2961, Note_on_c, 0, 71, 65
2,2982, Note_on_c, 0, 72, 0
2,3007, Note_on_c, 0, 71, 0
2,3203, Note_on_c, 0, 69, 73
2,3248, Note_on_c, 0, 69, 0
2,3450, Note_on_c, 0, 67, 75
2,3490, Note_on_c, 0, 67, 0
2,3716, Note_on_c, 0, 66, 75
2,3757, Note_on_c, 0, 66, 0
2,4037, Note_on_c, 0, 76, 74
2,4597, Note_on_c, 0, 74, 56
2,4626, Note_on_c, 0, 76, 0
2,4661, Note_on_c, 0, 74, 0
2,4855, Note_on_c, 0, 76, 55
2,4964, Note_on_c, 0, 74, 58
2,5013, Note_on_c, 0, 76, 0
2,5080, Note_on_c, 0, 72, 66
2,5096, Note_on_c, 0, 74, 0
2,5166, Note_on_c, 0, 72, 0
2,5186, Note_on_c, 0, 71, 57
2,5310, Note_on_c, 0, 71, 0
2,5325, Note_on_c, 0, 69, 56
2,5372, Note_on_c, 0, 69, 0
2,5566, Note_on_c, 0, 72, 60
2,5664, Note_on_c, 0, 72, 0
2,5669, Note_on_c, 0, 71, 59
2,5792, Note_on_c, 0, 69, 65
2,5802, Note_on_c, 0, 71, 0
2,5871, Note_on_c, 0, 69, 0
2,5913, Note_on_c, 0, 67, 52
2,6012, Note_on_c, 0, 67, 0
2,6037, Note_on_c, 0, 62, 67
2,6045, Note_on_c, 0, 66, 58
2,6085, Note_on_c, 0, 62, 0
2,6086, Note_on_c, 0, 66, 0
2,6298, Note_on_c, 0, 64, 66
2,6304, Note_on_c, 0, 67, 58
2,6344, Note_on_c, 0, 67, 0
2,6407, Note_on_c, 0, 62, 68
2,6424, Note_on_c, 0, 64, 0
2,6522, Note_on_c, 0, 62, 0
2,6526, Note_on_c, 0, 61, 73
2,6540, Note_on_c, 0, 69, 60
2,6590, Note_on_c, 0, 69, 0
2,6645, Note_on_c, 0, 62, 71
2,6651, Note_on_c, 0, 61, 0
2,6778, Note_on_c, 0, 64, 77
2,6780, Note_on_c, 0, 62, 0
2,6781, Note_on_c, 0, 67, 61
2,6828, Note_on_c, 0, 67, 0
2,6844, Note_on_c, 0, 64, 0
2,7018, Note_on_c, 0, 69, 59
2,7021, Note_on_c, 0, 66, 71
2,7058, Note_on_c, 0, 69, 0
2,7128, Note_on_c, 0, 66, 0
2,7133, Note_on_c, 0, 64, 73
2,7244, Note_on_c, 0, 64, 0
2,7245, Note_on_c, 0, 62, 73
2,7251, Note_on_c, 0, 71, 74
2,7293, Note_on_c, 0, 71, 0
2,7358, Note_on_c, 0, 64, 78
2,7365, Note_on_c, 0, 62, 0
2,7480, Note_on_c, 0, 66, 81
2,7480, Note_on_c, 0, 69, 69
2,7495, Note_on_c, 0, 64, 0
2,7525, Note_on_c, 0, 69, 0
2,7547, Note_on_c, 0, 66, 0
2,7737, Note_on_c, 0, 71, 68
2,7739, Note_on_c, 0, 64, 80
2,7778, Note_on_c, 0, 64, 0
2,7831, Note_on_c, 0, 73, 73
2,7837, Note_on_c, 0, 71, 0
2,7961, Note_on_c, 0, 74, 72
2,7967, Note_on_c, 0, 62, 75
2,7973, Note_on_c, 0, 73, 0
2,8023, Note_on_c, 0, 62, 0
2,8079, Note_on_c, 0, 71, 64
2,8079, Note_on_c, 0, 74, 0
2,8208, Note_on_c, 0, 57, 68
2,8209, Note_on_c, 0, 71, 0
2,8213, Note_on_c, 0, 73, 69
2,8256, Note_on_c, 0, 57, 0
2,8333, Note_on_c, 0, 73, 0
2,8346, Note_on_c, 0, 71, 62
2,8461, Note_on_c, 0, 71, 0
2,8486, Note_on_c, 0, 67, 77
2,8488, Note_on_c, 0, 73, 60
2,8614, Note_on_c, 0, 74, 58
2,8645, Note_on_c, 0, 73, 0
2,8735, Note_on_c, 0, 74, 0
2,8739, Note_on_c, 0, 76, 55
2,8822, Note_on_c, 0, 76, 0
2,8835, Note_on_c, 0, 73, 60
2,8938, Note_on_c, 0, 73, 0
2,8953, Note_on_c, 0, 74, 64
2,8955, Note_on_c, 0, 66, 77
2,8960, Note_on_c, 0, 67, 0
2,9026, Note_on_c, 0, 66, 0
2,9056, Note_on_c, 0, 74, 0
2,9067, Note_on_c, 0, 73, 65
2,9186, Note_on_c, 0, 73, 0
2,9193, Note_on_c, 0, 74, 65
2,9211, Note_on_c, 0, 64, 81
2,9256, Note_on_c, 0, 64, 0
2,9321, Note_on_c, 0, 74, 0
2,9324, Note_on_c, 0, 76, 71
2,9449, Note_on_c, 0, 62, 74
2,9449, Note_on_c, 0, 76, 0
2,9449, Note_on_c, 0, 78, 73
2,9493, Note_on_c, 0, 62, 0
2,9556, Note_on_c, 0, 78, 0
2,9568, Note_on_c, 0, 74, 66
2,9691, Note_on_c, 0, 74, 0
2,9697, Note_on_c, 0, 61, 76
2,9704, Note_on_c, 0, 76, 70
2,9740, Note_on_c, 0, 61, 0
2,9827, Note_on_c, 0, 76, 0
2,9848, Note_on_c, 0, 74, 51
2,9972, Note_on_c, 0, 71, 80
2,9984, Note_on_c, 0, 76, 65
2,9989, Note_on_c, 0, 74, 0
2,10099, Note_on_c, 0, 78, 61
2,10103, Note_on_c, 0, 76, 0
2,10205, Note_on_c, 0, 79, 63
2,10218, Note_on_c, 0, 78, 0
2,10293, Note_on_c, 0, 79, 0
2,10319, Note_on_c, 0, 76, 55
2,10438, Note_on_c, 0, 71, 0
2,10455, Note_on_c, 0, 69, 43
2,10458, Note_on_c, 0, 78, 56
2,10508, Note_on_c, 0, 69, 0
2,10531, Note_on_c, 0, 76, 0
2,10568, Note_on_c, 0, 78, 0
2,10718, Note_on_c, 0, 71, 67
2,10718, Note_on_c, 0, 79, 69
2,10785, Note_on_c, 0, 71, 0
2,10819, Note_on_c, 0, 69, 67
2,10827, Note_on_c, 0, 78, 70
2,10852, Note_on_c, 0, 79, 0
2,10929, Note_on_c, 0, 69, 0
2,10943, Note_on_c, 0, 76, 73
2,10944, Note_on_c, 0, 67, 66
2,10975, Note_on_c, 0, 78, 0
2,11032, Note_on_c, 0, 67, 0
2,11039, Note_on_c, 0, 76, 0
2,11048, Note_on_c, 0, 74, 70
2,11054, Note_on_c, 0, 66, 54
2,11146, Note_on_c, 0, 66, 0
2,11173, Note_on_c, 0, 79, 76
2,11181, Note_on_c, 0, 64, 53
2,11187, Note_on_c, 0, 74, 0
2,11219, Note_on_c, 0, 64, 0
2,11439, Note_on_c, 0, 67, 62
2,11533, Note_on_c, 0, 67, 0
2,11536, Note_on_c, 0, 66, 70
2,11624, Note_on_c, 0, 66, 0
2,11655, Note_on_c, 0, 64, 68
2,11744, Note_on_c, 0, 64, 0
2,11776, Note_on_c, 0, 62, 55
2,11877, Note_on_c, 0, 62, 0
2,11904, Note_on_c, 0, 61, 53
2,11937, Note_on_c, 0, 61, 0
2,12020, Note_on_c, 0, 78, 56
2,12063, Note_on_c, 0, 79, 0
2,12129, Note_on_c, 0, 78, 0
2,12136, Note_on_c, 0, 67, 54
2,12137, Note_on_c, 0, 76, 56
2,12173, Note_on_c, 0, 67, 0
2,12225, Note_on_c, 0, 76, 0
2,12260, Note_on_c, 0, 79, 46
2,12355, Note_on_c, 0, 79, 0
2,12368, Note_on_c, 0, 66, 52
2,12375, Note_on_c, 0, 74, 57
2,12390, Note_on_c, 0, 66, 0
2,12430, Note_on_c, 0, 74, 0
2,12495, Note_on_c, 0, 79, 50
2,12591, Note_on_c, 0, 79, 0
2,12606, Note_on_c, 0, 64, 58
2,12610, Note_on_c, 0, 73, 61
2,12638, Note_on_c, 0, 64, 0
2,12684, Note_on_c, 0, 73, 0
2,12721, Note_on_c, 0, 79, 57
2,12820, Note_on_c, 0, 79, 0
2,12840, Note_on_c, 0, 71, 65
2,12845, Note_on_c, 0, 62, 49
2,12869, Note_on_c, 0, 62, 0
2,12895, Note_on_c, 0, 71, 0
2,12965, Note_on_c, 0, 79, 55
2,13038, Note_on_c, 0, 79, 0
2,13073, Note_on_c, 0, 61, 58
2,13084, Note_on_c, 0, 69, 57
2,13104, Note_on_c, 0, 61, 0
2,13134, Note_on_c, 0, 69, 0
2,13183, Note_on_c, 0, 79, 52
2,13291, Note_on_c, 0, 79, 0
2,13302, Note_on_c, 0, 78, 53
2,13311, Note_on_c, 0, 62, 45
2,13350, Note_on_c, 0, 78, 0
2,13358, Note_on_c, 0, 62, 0
2,13433, Note_on_c, 0, 64, 43
2,13517, Note_on_c, 0, 64, 0
2,13532, Note_on_c, 0, 66, 52
2,13546, Note_on_c, 0, 74, 62
2,13583, Note_on_c, 0, 74, 0
2,13616, Note_on_c, 0, 66, 0
2,13660, Note_on_c, 0, 62, 53
2,13764, Note_on_c, 0, 62, 0
2,13788, Note_on_c, 0, 76, 70
2,13800, Note_on_c, 0, 67, 54
2,13821, Note_on_c, 0, 76, 0
2,13869, Note_on_c, 0, 67, 0
2,13903, Note_on_c, 0, 62, 58
2,13995, Note_on_c, 0, 62, 0
2,14022, Note_on_c, 0, 78, 68
2,14026, Note_on_c, 0, 69, 63
2,14053, Note_on_c, 0, 78, 0
2,14122, Note_on_c, 0, 69, 0
2,14131, Note_on_c, 0, 62, 64
2,14243, Note_on_c, 0, 62, 0
2,14258, Note_on_c, 0, 71, 77
2,14258, Note_on_c, 0, 79, 67
2,14297, Note_on_c, 0, 79, 0
2,14374, Note_on_c, 0, 62, 71
2,14383, Note_on_c, 0, 71, 0
2,14490, Note_on_c, 0, 62, 0
2,14507, Note_on_c, 0, 72, 71
2,14512, Note_on_c, 0, 81, 72
2,14561, Note_on_c, 0, 72, 0
2,14622, Note_on_c, 0, 62, 72
2,14749, Note_on_c, 0, 55, 71
2,14757, Note_on_c, 0, 71, 68
2,14766, Note_on_c, 0, 62, 0
2,14890, Note_on_c, 0, 55, 0
2,14998, Note_on_c, 0, 74, 60
2,15013, Note_on_c, 0, 57, 73
2,15041, Note_on_c, 0, 74, 0
2,15117, Note_on_c, 0, 55, 69
2,15141, Note_on_c, 0, 57, 0
2,15146, Note_on_c, 0, 81, 0
2,15231, Note_on_c, 0, 55, 0
2,15237, Note_on_c, 0, 54, 73
2,15255, Note_on_c, 0, 71, 0
2,15255, Note_on_c, 0, 79, 75
2,15352, Note_on_c, 0, 55, 79
2,15370, Note_on_c, 0, 54, 0
2,15482, Note_on_c, 0, 57, 73
2,15491, Note_on_c, 0, 72, 68
2,15492, Note_on_c, 0, 55, 0
2,15558, Note_on_c, 0, 79, 0
2,15579, Note_on_c, 0, 57, 0
2,15741, Note_on_c, 0, 59, 71
2,15744, Note_on_c, 0, 78, 66
2,15812, Note_on_c, 0, 78, 0
2,15854, Note_on_c, 0, 57, 73
2,15863, Note_on_c, 0, 59, 0
2,15969, Note_on_c, 0, 55, 76
2,15971, Note_on_c, 0, 57, 0
2,15971, Note_on_c, 0, 76, 70
2,16016, Note_on_c, 0, 76, 0
2,16083, Note_on_c, 0, 57, 81
2,16091, Note_on_c, 0, 55, 0
2,16202, Note_on_c, 0, 59, 82
2,16206, Note_on_c, 0, 57, 0
2,16212, Note_on_c, 0, 74, 68
2,16222, Note_on_c, 0, 72, 0
2,16259, Note_on_c, 0, 59, 0
2,16272, Note_on_c, 0, 74, 0
2,16452, Note_on_c, 0, 66, 72
2,16453, Note_on_c, 0, 57, 75
2,16458, Note_on_c, 0, 72, 67
2,16486, Note_on_c, 0, 66, 0
2,16495, Note_on_c, 0, 72, 0
2,16499, Note_on_c, 0, 57, 0
2,16695, Note_on_c, 0, 55, 76
2,16701, Note_on_c, 0, 71, 77
2,16707, Note_on_c, 0, 67, 64
2,16763, Note_on_c, 0, 55, 0
2,16783, Note_on_c, 0, 71, 0
2,16958, Note_on_c, 0, 69, 73
2,16963, Note_on_c, 0, 50, 65
2,16996, Note_on_c, 0, 67, 0
2,17017, Note_on_c, 0, 50, 0
2,17219, Note_on_c, 0, 60, 83
2,17223, Note_on_c, 0, 66, 65
2,17239, Note_on_c, 0, 69, 0
2,17337, Note_on_c, 0, 67, 66
2,17343, Note_on_c, 0, 66, 0
2,17459, Note_on_c, 0, 67, 0
2,17459, Note_on_c, 0, 69, 66
2,17563, Note_on_c, 0, 66, 61
2,17576, Note_on_c, 0, 69, 0
2,17673, Note_on_c, 0, 66, 0
2,17690, Note_on_c, 0, 67, 70
2,17691, Note_on_c, 0, 59, 73
2,17691, Note_on_c, 0, 60, 0
2,17740, Note_on_c, 0, 59, 0
2,17799, Note_on_c, 0, 66, 73
2,17815, Note_on_c, 0, 67, 0
2,17920, Note_on_c, 0, 66, 0
2,17926, Note_on_c, 0, 57, 72
2,17927, Note_on_c, 0, 67, 79
2,17968, Note_on_c, 0, 57, 0
2,18036, Note_on_c, 0, 69, 77
2,18037, Note_on_c, 0, 67, 0
2,18149, Note_on_c, 0, 55, 76
2,18156, Note_on_c, 0, 69, 0
2,18158, Note_on_c, 0, 71, 81
2,18158, Note_on_c, 0, 74, 76
2,18196, Note_on_c, 0, 55, 0
2,18257, Note_on_c, 0, 71, 0
2,18281, Note_on_c, 0, 67, 72
2,18396, Note_on_c, 0, 67, 0
2,18401, Note_on_c, 0, 54, 76
2,18408, Note_on_c, 0, 69, 74
2,18434, Note_on_c, 0, 54, 0
2,18507, Note_on_c, 0, 69, 0
2,18522, Note_on_c, 0, 67, 70
2,18638, Note_on_c, 0, 67, 0
2,18650, Note_on_c, 0, 64, 81
2,18657, Note_on_c, 0, 69, 73
2,18663, Note_on_c, 0, 72, 70
2,18680, Note_on_c, 0, 74, 0
2,18738, Note_on_c, 0, 72, 0
2,18759, Note_on_c, 0, 69, 0
2,18775, Note_on_c, 0, 71, 78
2,18874, Note_on_c, 0, 71, 0
2,18900, Note_on_c, 0, 81, 73
2,18910, Note_on_c, 0, 72, 68
2,18966, Note_on_c, 0, 72, 0
2,19014, Note_on_c, 0, 69, 64
2,19146, Note_on_c, 0, 69, 0
2,19149, Note_on_c, 0, 71, 60
2,19162, Note_on_c, 0, 64, 0
2,19166, Note_on_c, 0, 62, 49
2,19224, Note_on_c, 0, 62, 0
2,19233, Note_on_c, 0, 71, 0
2,19236, Note_on_c, 0, 81, 0
2,19401, Note_on_c, 0, 72, 72
2,19410, Note_on_c, 0, 64, 68
2,19415, Note_on_c, 0, 79, 66
2,19495, Note_on_c, 0, 72, 0
2,19513, Note_on_c, 0, 71, 79
2,19520, Note_on_c, 0, 62, 71
2,19526, Note_on_c, 0, 64, 0
2,19592, Note_on_c, 0, 62, 0
2,19624, Note_on_c, 0, 60, 75
2,19638, Note_on_c, 0, 71, 0
2,19641, Note_on_c, 0, 69, 81
2,19723, Note_on_c, 0, 69, 0
2,19728, Note_on_c, 0, 60, 0
2,19740, Note_on_c, 0, 59, 64
2,19742, Note_on_c, 0, 67, 77
2,19845, Note_on_c, 0, 67, 0
2,19862, Note_on_c, 0, 57, 59
2,19862, Note_on_c, 0, 72, 71
2,19863, Note_on_c, 0, 59, 0
2,19905, Note_on_c, 0, 57, 0
2,19914, Note_on_c, 0, 79, 0
2,20111, Note_on_c, 0, 81, 71
2,20124, Note_on_c, 0, 60, 68
2,20223, Note_on_c, 0, 79, 76
2,20232, Note_on_c, 0, 59, 68
2,20234, Note_on_c, 0, 81, 0
2,20250, Note_on_c, 0, 60, 0
2,20310, Note_on_c, 0, 59, 0
2,20342, Note_on_c, 0, 57, 73
2,20344, Note_on_c, 0, 78, 77
2,20387, Note_on_c, 0, 79, 0
2,20452, Note_on_c, 0, 57, 0
2,20459, Note_on_c, 0, 55, 71
2,20460, Note_on_c, 0, 76, 75
2,20471, Note_on_c, 0, 78, 0
2,20503, Note_on_c, 0, 76, 0
2,20577, Note_on_c, 0, 54, 77
2,20580, Note_on_c, 0, 74, 76
2,20586, Note_on_c, 0, 72, 0
2,20607, Note_on_c, 0, 55, 0
2,20703, Note_on_c, 0, 71, 73
2,20804, Note_on_c, 0, 71, 0
2,20819, Note_on_c, 0, 69, 69
2,20825, Note_on_c, 0, 54, 0
2,20900, Note_on_c, 0, 69, 0
2,20931, Note_on_c, 0, 72, 65
2,21021, Note_on_c, 0, 72, 0
2,21058, Note_on_c, 0, 67, 61
2,21064, Note_on_c, 0, 52, 63
2,21135, Note_on_c, 0, 52, 0
2,21150, Note_on_c, 0, 67, 0
2,21171, Note_on_c, 0, 72, 61
2,21292, Note_on_c, 0, 72, 0
2,21307, Note_on_c, 0, 66, 71
2,21311, Note_on_c, 0, 50, 72
2,21425, Note_on_c, 0, 72, 68
2,21427, Note_on_c, 0, 66, 0
2,21429, Note_on_c, 0, 52, 75
2,21430, Note_on_c, 0, 50, 0
2,21528, Note_on_c, 0, 52, 0
2,21531, Note_on_c, 0, 72, 0
2,21543, Note_on_c, 0, 50, 80
2,21549, Note_on_c, 0, 64, 77
2,21639, Note_on_c, 0, 64, 0
2,21650, Note_on_c, 0, 50, 0
2,21655, Note_on_c, 0, 72, 65
2,21657, Note_on_c, 0, 48, 67
2,21735, Note_on_c, 0, 72, 0
2,21754, Note_on_c, 0, 48, 0
2,21770, Note_on_c, 0, 47, 57
2,21772, Note_on_c, 0, 62, 55
2,21854, Note_on_c, 0, 62, 0
2,21858, Note_on_c, 0, 47, 0
2,21874, Note_on_c, 0, 72, 62
2,21892, Note_on_c, 0, 45, 57
2,21943, Note_on_c, 0, 74, 0
2,21972, Note_on_c, 0, 45, 0
2,21992, Note_on_c, 0, 72, 0
2,22004, Note_on_c, 0, 71, 60
2,22017, Note_on_c, 0, 43, 42
2,22045, Note_on_c, 0, 71, 0
2,22069, Note_on_c, 0, 43, 0
2,22103, Note_on_c, 0, 45, 58
2,22170, Note_on_c, 0, 45, 0
2,22224, Note_on_c, 0, 47, 44
2,22241, Note_on_c, 0, 74, 57
2,22250, Note_on_c, 0, 65, 55
2,22268, Note_on_c, 0, 47, 0
2,22278, Note_on_c, 0, 74, 0
2,22281, Note_on_c, 0, 65, 0
2,22326, Note_on_c, 0, 43, 41
2,22411, Note_on_c, 0, 43, 0
2,22457, Note_on_c, 0, 48, 52
2,22463, Note_on_c, 0, 72, 65
2,22479, Note_on_c, 0, 64, 48
2,22494, Note_on_c, 0, 72, 0
2,22503, Note_on_c, 0, 64, 0
2,22522, Note_on_c, 0, 48, 0
2,22570, Note_on_c, 0, 43, 40
2,22667, Note_on_c, 0, 43, 0
2,22692, Note_on_c, 0, 71, 69
2,22698, Note_on_c, 0, 50, 55
2,22704, Note_on_c, 0, 62, 52
2,22727, Note_on_c, 0, 71, 0
2,22728, Note_on_c, 0, 62, 0
2,22771, Note_on_c, 0, 50, 0
2,22807, Note_on_c, 0, 43, 48
2,22889, Note_on_c, 0, 43, 0
2,22931, Note_on_c, 0, 69, 57
2,22937, Note_on_c, 0, 52, 54
2,22938, Note_on_c, 0, 60, 54
2,22960, Note_on_c, 0, 69, 0
2,22963, Note_on_c, 0, 60, 0
2,23016, Note_on_c, 0, 52, 0
2,23044, Note_on_c, 0, 43, 49
2,23131, Note_on_c, 0, 43, 0
2,23161, Note_on_c, 0, 67, 70
2,23166, Note_on_c, 0, 53, 60
2,23173, Note_on_c, 0, 59, 38
2,23190, Note_on_c, 0, 59, 0
2,23190, Note_on_c, 0, 67, 0
2,23219, Note_on_c, 0, 53, 0
2,23262, Note_on_c, 0, 43, 55
2,23366, Note_on_c, 0, 43, 0
2,23382, Note_on_c, 0, 52, 54
2,23403, Note_on_c, 0, 72, 73
2,23498, Note_on_c, 0, 74, 79
2,23505, Note_on_c, 0, 52, 0
2,23517, Note_on_c, 0, 50, 62
2,23533, Note_on_c, 0, 72, 0
2,23615, Note_on_c, 0, 76, 82
2,23617, Note_on_c, 0, 50, 0
2,23621, Note_on_c, 0, 74, 0
2,23628, Note_on_c, 0, 48, 57
2,23690, Note_on_c, 0, 48, 0
2,23743, Note_on_c, 0, 52, 57
2,23845, Note_on_c, 0, 52, 0
2,23855, Note_on_c, 0, 67, 71
2,23858, Note_on_c, 0, 47, 57
2,23878, Note_on_c, 0, 67, 0
2,23901, Note_on_c, 0, 47, 0
2,23971, Note_on_c, 0, 52, 46
2,24067, Note_on_c, 0, 52, 0
2,24075, Note_on_c, 0, 66, 73
2,24083, Note_on_c, 0, 45, 62
2,24084, Note_on_c, 0, 76, 0
2,24137, Note_on_c, 0, 45, 0
2,24189, Note_on_c, 0, 74, 65
2,24192, Note_on_c, 0, 52, 54
2,24296, Note_on_c, 0, 52, 0
2,24308, Note_on_c, 0, 72, 76
2,24311, Note_on_c, 0, 43, 53
2,24353, Note_on_c, 0, 66, 0
2,24373, Note_on_c, 0, 43, 0
2,24388, Note_on_c, 0, 74, 0
2,24421, Note_on_c, 0, 71, 78
2,24426, Note_on_c, 0, 52, 49
2,24453, Note_on_c, 0, 72, 0
2,24541, Note_on_c, 0, 52, 0
2,24544, Note_on_c, 0, 42, 58
2,24551, Note_on_c, 0, 69, 79
2,24597, Note_on_c, 0, 71, 0
2,24614, Note_on_c, 0, 42, 0
2,24659, Note_on_c, 0, 69, 0
2,24660, Note_on_c, 0, 72, 79
2,24661, Note_on_c, 0, 52, 63
2,24756, Note_on_c, 0, 52, 0
2,24775, Note_on_c, 0, 50, 63
2,24783, Note_on_c, 0, 71, 73
2,24799, Note_on_c, 0, 72, 0
2,24874, Note_on_c, 0, 50, 0
2,24881, Note_on_c, 0, 48, 58
2,24889, Note_on_c, 0, 72, 77
2,24895, Note_on_c, 0, 71, 0
2,24975, Note_on_c, 0, 48, 0
2,25000, Note_on_c, 0, 47, 62
2,25006, Note_on_c, 0, 72, 0
2,25007, Note_on_c, 0, 74, 80
2,25055, Note_on_c, 0, 47, 0
2,25131, Note_on_c, 0, 50, 39
2,25234, Note_on_c, 0, 50, 0
2,25244, Note_on_c, 0, 66, 72
2,25245, Note_on_c, 0, 45, 60
2,25271, Note_on_c, 0, 66, 0
2,25297, Note_on_c, 0, 45, 0
2,25378, Note_on_c, 0, 50, 31
2,25461, Note_on_c, 0, 50, 0
2,25465, Note_on_c, 0, 74, 0
2,25473, Note_on_c, 0, 43, 59
2,25474, Note_on_c, 0, 64, 74
2,25525, Note_on_c, 0, 43, 0
2,25579, Note_on_c, 0, 72, 72
2,25584, Note_on_c, 0, 50, 55
2,25687, Note_on_c, 0, 50, 0
2,25693, Note_on_c, 0, 42, 61
2,25693, Note_on_c, 0, 71, 79
2,25718, Note_on_c, 0, 72, 0
2,25770, Note_on_c, 0, 42, 0
2,25809, Note_on_c, 0, 50, 61
2,25810, Note_on_c, 0, 69, 77
2,25830, Note_on_c, 0, 71, 0
2,25901, Note_on_c, 0, 50, 0
2,25929, Note_on_c, 0, 40, 51
2,25934, Note_on_c, 0, 67, 79
2,25981, Note_on_c, 0, 69, 0
2,25995, Note_on_c, 0, 40, 0
2,26036, Note_on_c, 0, 50, 62
2,26046, Note_on_c, 0, 71, 78
2,26047, Note_on_c, 0, 67, 0
2,26143, Note_on_c, 0, 50, 0
2,26152, Note_on_c, 0, 48, 64
2,26164, Note_on_c, 0, 69, 76
2,26170, Note_on_c, 0, 71, 0
2,26220, Note_on_c, 0, 64, 0
2,26261, Note_on_c, 0, 48, 0
2,26263, Note_on_c, 0, 47, 61
2,26267, Note_on_c, 0, 71, 86
2,26279, Note_on_c, 0, 69, 0
2,26366, Note_on_c, 0, 47, 0
2,26383, Note_on_c, 0, 72, 83
2,26384, Note_on_c, 0, 71, 0
2,26390, Note_on_c, 0, 45, 66
2,26458, Note_on_c, 0, 45, 0
2,26503, Note_on_c, 0, 48, 62
2,26606, Note_on_c, 0, 48, 0
2,26612, Note_on_c, 0, 64, 80
2,26621, Note_on_c, 0, 43, 59
2,26638, Note_on_c, 0, 64, 0
2,26668, Note_on_c, 0, 43, 0
2,26730, Note_on_c, 0, 48, 56
2,26839, Note_on_c, 0, 48, 0
2,26839, Note_on_c, 0, 72, 0
2,26849, Note_on_c, 0, 62, 83
2,26855, Note_on_c, 0, 42, 60
2,26924, Note_on_c, 0, 42, 0
2,26953, Note_on_c, 0, 71, 77
2,26967, Note_on_c, 0, 48, 59
2,27062, Note_on_c, 0, 48, 0
2,27072, Note_on_c, 0, 69, 73
2,27084, Note_on_c, 0, 71, 0
2,27085, Note_on_c, 0, 40, 63
2,27154, Note_on_c, 0, 40, 0
2,27191, Note_on_c, 0, 67, 74
2,27193, Note_on_c, 0, 48, 62
2,27209, Note_on_c, 0, 69, 0
2,27297, Note_on_c, 0, 48, 0
2,27304, Note_on_c, 0, 66, 76
2,27319, Note_on_c, 0, 38, 54
2,27329, Note_on_c, 0, 67, 0
2,27375, Note_on_c, 0, 38, 0
2,27399, Note_on_c, 0, 66, 0
2,27404, Note_on_c, 0, 62, 0
2,27411, Note_on_c, 0, 69, 71
2,27424, Note_on_c, 0, 48, 63
2,27527, Note_on_c, 0, 48, 0
2,27540, Note_on_c, 0, 62, 78
2,27543, Note_on_c, 0, 47, 66
2,27551, Note_on_c, 0, 69, 0
2,27552, Note_on_c, 0, 67, 73
2,27614, Note_on_c, 0, 47, 0
2,27659, Note_on_c, 0, 62, 0
2,27665, Note_on_c, 0, 69, 78
2,27694, Note_on_c, 0, 67, 0
2,27767, Note_on_c, 0, 69, 0
2,27781, Note_on_c, 0, 60, 78
2,27784, Note_on_c, 0, 71, 73
2,27785, Note_on_c, 0, 45, 56
2,27848, Note_on_c, 0, 45, 0
2,27893, Note_on_c, 0, 62, 79
2,27910, Note_on_c, 0, 60, 0
2,27928, Note_on_c, 0, 71, 0
2,28012, Note_on_c, 0, 64, 86
2,28020, Note_on_c, 0, 43, 59
2,28029, Note_on_c, 0, 62, 0
2,28079, Note_on_c, 0, 43, 0
2,28121, Note_on_c, 0, 62, 81
2,28173, Note_on_c, 0, 64, 0
2,28237, Note_on_c, 0, 62, 0
2,28253, Note_on_c, 0, 60, 84
2,28262, Note_on_c, 0, 45, 57
2,28341, Note_on_c, 0, 45, 0
2,28363, Note_on_c, 0, 60, 0
2,28505, Note_on_c, 0, 59, 77
2,28509, Note_on_c, 0, 43, 60
2,28511, Note_on_c, 0, 64, 74
2,28547, Note_on_c, 0, 43, 0
2,28605, Note_on_c, 0, 59, 0
2,28613, Note_on_c, 0, 60, 77
2,28720, Note_on_c, 0, 64, 0
2,28727, Note_on_c, 0, 42, 53
2,28738, Note_on_c, 0, 60, 0
2,28738, Note_on_c, 0, 69, 69
2,28739, Note_on_c, 0, 62, 76
2,28769, Note_on_c, 0, 42, 0
2,28854, Note_on_c, 0, 60, 80
2,28858, Note_on_c, 0, 62, 0
2,28891, Note_on_c, 0, 69, 0
2,28954, Note_on_c, 0, 60, 0
2,28965, Note_on_c, 0, 43, 57
2,28971, Note_on_c, 0, 59, 80
2,29034, Note_on_c, 0, 43, 0
2,29078, Note_on_c, 0, 59, 0
2,29085, Note_on_c, 0, 55, 62
2,29090, Note_on_c, 0, 67, 68
2,29198, Note_on_c, 0, 55, 0
2,29207, Note_on_c, 0, 53, 66
2,29212, Note_on_c, 0, 60, 84
2,29223, Note_on_c, 0, 69, 74
2,29271, Note_on_c, 0, 67, 0
2,29290, Note_on_c, 0, 60, 0
2,29309, Note_on_c, 0, 69, 0
2,29330, Note_on_c, 0, 52, 68
2,29349, Note_on_c, 0, 53, 0
2,29441, Note_on_c, 0, 52, 0
2,29449, Note_on_c, 0, 62, 82
2,29452, Note_on_c, 0, 50, 68
2,29454, Note_on_c, 0, 71, 80
2,29508, Note_on_c, 0, 62, 0
2,29537, Note_on_c, 0, 71, 0
2,29563, Note_on_c, 0, 50, 0
2,29563, Note_on_c, 0, 53, 71
2,29679, Note_on_c, 0, 52, 67
2,29689, Note_on_c, 0, 53, 0
2,29691, Note_on_c, 0, 67, 75
2,29693, Note_on_c, 0, 72, 72
2,29773, Note_on_c, 0, 67, 0
2,29801, Note_on_c, 0, 74, 67
2,29803, Note_on_c, 0, 72, 0
2,29812, Note_on_c, 0, 52, 0
2,29815, Note_on_c, 0, 53, 72
2,29929, Note_on_c, 0, 72, 73
2,29929, Note_on_c, 0, 74, 0
2,29937, Note_on_c, 0, 52, 75
2,29937, Note_on_c, 0, 57, 75
2,29952, Note_on_c, 0, 53, 0
2,30038, Note_on_c, 0, 71, 74
2,30046, Note_on_c, 0, 52, 0
2,30050, Note_on_c, 0, 72, 0
2,30062, Note_on_c, 0, 50, 62
2,30167, Note_on_c, 0, 69, 67
2,30170, Note_on_c, 0, 48, 70
2,30172, Note_on_c, 0, 57, 0
2,30174, Note_on_c, 0, 50, 0
2,30201, Note_on_c, 0, 71, 0
2,30245, Note_on_c, 0, 69, 0
2,30266, Note_on_c, 0, 67, 68
2,30272, Note_on_c, 0, 52, 69
2,30274, Note_on_c, 0, 48, 0
2,30307, Note_on_c, 0, 67, 0
2,30391, Note_on_c, 0, 52, 0
2,30393, Note_on_c, 0, 67, 69
2,30395, Note_on_c, 0, 59, 76
2,30398, Note_on_c, 0, 50, 70
2,30427, Note_on_c, 0, 67, 0
2,30436, Note_on_c, 0, 66, 62
2,30479, Note_on_c, 0, 66, 0
2,30502, Note_on_c, 0, 59, 0
2,30505, Note_on_c, 0, 67, 58
2,30508, Note_on_c, 0, 52, 73
2,30511, Note_on_c, 0, 50, 0
2,30539, Note_on_c, 0, 66, 63
2,30541, Note_on_c, 0, 67, 0
2,30629, Note_on_c, 0, 50, 81
2,30634, Note_on_c, 0, 60, 83
2,30643, Note_on_c, 0, 52, 0
2,30669, Note_on_c, 0, 66, 0
2,30723, Note_on_c, 0, 60, 0
2,30726, Note_on_c, 0, 64, 77
2,30736, Note_on_c, 0, 50, 0
2,30754, Note_on_c, 0, 48, 70
2,30800, Note_on_c, 0, 66, 70
2,30846, Note_on_c, 0, 48, 0
2,30847, Note_on_c, 0, 64, 0
2,30849, Note_on_c, 0, 47, 70
2,30859, Note_on_c, 0, 62, 86
2,30870, Note_on_c, 0, 67, 62
2,30906, Note_on_c, 0, 66, 0
2,30958, Note_on_c, 0, 67, 0
2,30973, Note_on_c, 0, 50, 77
2,30974, Note_on_c, 0, 47, 0
2,30979, Note_on_c, 0, 62, 0
2,31092, Note_on_c, 0, 48, 74
2,31099, Note_on_c, 0, 64, 86
2,31100, Note_on_c, 0, 50, 0
2,31200, Note_on_c, 0, 64, 0
2,31200, Note_on_c, 0, 71, 77
2,31208, Note_on_c, 0, 48, 0
2,31216, Note_on_c, 0, 50, 70
2,31325, Note_on_c, 0, 71, 0
2,31328, Note_on_c, 0, 69, 75
2,31331, Note_on_c, 0, 48, 70
2,31332, Note_on_c, 0, 50, 0
2,31337, Note_on_c, 0, 54, 73
2,31443, Note_on_c, 0, 67, 69
2,31444, Note_on_c, 0, 69, 0
2,31464, Note_on_c, 0, 54, 0
2,31465, Note_on_c, 0, 47, 55
2,31465, Note_on_c, 0, 48, 0
2,31553, Note_on_c, 0, 67, 0
2,31561, Note_on_c, 0, 47, 0
2,31570, Note_on_c, 0, 66, 65
2,31575, Note_on_c, 0, 45, 58
2,31643, Note_on_c, 0, 45, 0
2,31648, Note_on_c, 0, 66, 0
2,31689, Note_on_c, 0, 64, 44
2,31695, Note_on_c, 0, 48, 54
2,31759, Note_on_c, 0, 48, 0
2,31786, Note_on_c, 0, 64, 0
2,31799, Note_on_c, 0, 47, 47
2,31813, Note_on_c, 0, 62, 53
2,31817, Note_on_c, 0, 55, 47
2,31866, Note_on_c, 0, 62, 0
2,31867, Note_on_c, 0, 47, 0
2,31912, Note_on_c, 0, 55, 0
2,31947, Note_on_c, 0, 48, 49
2,32033, Note_on_c, 0, 48, 0
2,32051, Note_on_c, 0, 55, 56
2,32079, Note_on_c, 0, 47, 36
2,32141, Note_on_c, 0, 47, 0
2,32147, Note_on_c, 0, 55, 0
2,32168, Note_on_c, 0, 57, 62
2,32187, Note_on_c, 0, 45, 44
2,32275, Note_on_c, 0, 45, 0
2,32278, Note_on_c, 0, 59, 65
2,32294, Note_on_c, 0, 57, 0
2,32304, Note_on_c, 0, 43, 52
2,32374, Note_on_c, 0, 43, 0
2,32386, Note_on_c, 0, 61, 68
2,32405, Note_on_c, 0, 45, 62
2,32472, Note_on_c, 0, 59, 0
2,32503, Note_on_c, 0, 62, 75
2,32521, Note_on_c, 0, 45, 0
2,32526, Note_on_c, 0, 47, 68
2,32532, Note_on_c, 0, 61, 0
2,32563, Note_on_c, 0, 62, 0
2,32636, Note_on_c, 0, 49, 76
2,32647, Note_on_c, 0, 47, 0
2,32739, Note_on_c, 0, 49, 0
2,32739, Note_on_c, 0, 59, 78
2,32755, Note_on_c, 0, 50, 74
2,32850, Note_on_c, 0, 61, 75
2,32857, Note_on_c, 0, 52, 65
2,32861, Note_on_c, 0, 50, 0
2,32884, Note_on_c, 0, 59, 0
2,32967, Note_on_c, 0, 52, 0
2,32974, Note_on_c, 0, 62, 85
2,32975, Note_on_c, 0, 61, 0
2,32985, Note_on_c, 0, 54, 71
2,33067, Note_on_c, 0, 54, 0
2,33088, Note_on_c, 0, 55, 62
2,33088, Note_on_c, 0, 64, 80
2,33098, Note_on_c, 0, 62, 0
2,33190, Note_on_c, 0, 55, 0
2,33215, Note_on_c, 0, 66, 68
2,33218, Note_on_c, 0, 54, 63
2,33218, Note_on_c, 0, 69, 74
2,33232, Note_on_c, 0, 64, 0
2,33259, Note_on_c, 0, 54, 0
2,33285, Note_on_c, 0, 69, 0
2,33291, Note_on_c, 0, 66, 0
2,33468, Note_on_c, 0, 67, 72
2,33471, Note_on_c, 0, 64, 63
2,33478, Note_on_c, 0, 59, 52
2,33514, Note_on_c, 0, 59, 0
2,33530, Note_on_c, 0, 64, 0
2,33575, Note_on_c, 0, 69, 76
2,33600, Note_on_c, 0, 67, 0
2,33703, Note_on_c, 0, 47, 52
2,33705, Note_on_c, 0, 69, 0
2,33711, Note_on_c, 0, 63, 75
2,33712, Note_on_c, 0, 71, 74
2,33748, Note_on_c, 0, 47, 0
2,33810, Note_on_c, 0, 63, 0
2,33821, Note_on_c, 0, 69, 76
2,33856, Note_on_c, 0, 71, 0
2,33948, Note_on_c, 0, 67, 73
2,33953, Note_on_c, 0, 52, 40
2,33953, Note_on_c, 0, 69, 0
2,33955, Note_on_c, 0, 64, 62
2,33992, Note_on_c, 0, 52, 0
2,34001, Note_on_c, 0, 64, 0
2,34015, Note_on_c, 0, 67, 0
2,34196, Note_on_c, 0, 66, 69
2,34205, Note_on_c, 0, 57, 55
2,34212, Note_on_c, 0, 62, 54
2,34249, Note_on_c, 0, 57, 0
2,34271, Note_on_c, 0, 62, 0
2,34297, Note_on_c, 0, 66, 0
2,34304, Note_on_c, 0, 67, 76
2,34417, Note_on_c, 0, 67, 0
2,34427, Note_on_c, 0, 45, 60
2,34436, Note_on_c, 0, 69, 71
2,34440, Note_on_c, 0, 61, 79
2,34480, Note_on_c, 0, 45, 0
2,34509, Note_on_c, 0, 61, 0
2,34541, Note_on_c, 0, 67, 76
2,34572, Note_on_c, 0, 69, 0
2,34666, Note_on_c, 0, 50, 50
2,34666, Note_on_c, 0, 66, 70
2,34678, Note_on_c, 0, 62, 64
2,34681, Note_on_c, 0, 67, 0
2,34699, Note_on_c, 0, 50, 0
2,34727, Note_on_c, 0, 62, 0
2,34761, Note_on_c, 0, 66, 0
2,34926, Note_on_c, 0, 52, 55
2,34928, Note_on_c, 0, 61, 63
2,34932, Note_on_c, 0, 67, 76
2,35001, Note_on_c, 0, 67, 0
2,35031, Note_on_c, 0, 61, 0
2,35041, Note_on_c, 0, 59, 77
2,35149, Note_on_c, 0, 52, 0
2,35156, Note_on_c, 0, 54, 69
2,35160, Note_on_c, 0, 59, 0
2,35164, Note_on_c, 0, 69, 82
2,35170, Note_on_c, 0, 57, 71
2,35237, Note_on_c, 0, 69, 0
2,35274, Note_on_c, 0, 57, 0
2,35295, Note_on_c, 0, 60, 75
2,35400, Note_on_c, 0, 60, 0
2,35400, Note_on_c, 0, 74, 76
2,35412, Note_on_c, 0, 59, 71
2,35460, Note_on_c, 0, 74, 0
2,35462, Note_on_c, 0, 54, 0
2,35496, Note_on_c, 0, 59, 0
2,35519, Note_on_c, 0, 60, 72
2,35621, Note_on_c, 0, 60, 0
2,35637, Note_on_c, 0, 59, 62
2,35644, Note_on_c, 0, 55, 52
2,35647, Note_on_c, 0, 64, 71
2,35677, Note_on_c, 0, 64, 0
2,35677, Note_on_c, 0, 66, 76
2,35690, Note_on_c, 0, 59, 0
2,35691, Note_on_c, 0, 55, 0
2,35739, Note_on_c, 0, 64, 78
2,35751, Note_on_c, 0, 66, 0
2,35754, Note_on_c, 0, 57, 58
2,35790, Note_on_c, 0, 62, 75
2,35792, Note_on_c, 0, 64, 0
2,35846, Note_on_c, 0, 57, 0
2,35863, Note_on_c, 0, 49, 54
2,35864, Note_on_c, 0, 64, 80
2,35870, Note_on_c, 0, 55, 65
2,35872, Note_on_c, 0, 62, 0
2,35923, Note_on_c, 0, 49, 0
2,35959, Note_on_c, 0, 55, 0
2,35996, Note_on_c, 0, 59, 66
2,36108, Note_on_c, 0, 66, 70
2,36110, Note_on_c, 0, 59, 0
2,36121, Note_on_c, 0, 50, 53
2,36124, Note_on_c, 0, 57, 68
2,36144, Note_on_c, 0, 64, 0
2,36190, Note_on_c, 0, 66, 0
2,36228, Note_on_c, 0, 57, 0
2,36234, Note_on_c, 0, 59, 75
2,36348, Note_on_c, 0, 57, 77
2,36348, Note_on_c, 0, 67, 88
2,36356, Note_on_c, 0, 59, 0
2,36417, Note_on_c, 0, 67, 0
2,36449, Note_on_c, 0, 55, 73
2,36469, Note_on_c, 0, 57, 0
2,36573, Note_on_c, 0, 69, 83
2,36575, Note_on_c, 0, 54, 72
2,36580, Note_on_c, 0, 55, 0
2,36641, Note_on_c, 0, 69, 0
2,36659, Note_on_c, 0, 54, 0
2,36680, Note_on_c, 0, 57, 71
2,36687, Note_on_c, 0, 50, 0
2,36800, Note_on_c, 0, 57, 0
2,36818, Note_on_c, 0, 71, 81
2,36819, Note_on_c, 0, 55, 62
2,36871, Note_on_c, 0, 71, 0
2,36897, Note_on_c, 0, 55, 0
2,36930, Note_on_c, 0, 57, 62
2,37032, Note_on_c, 0, 57, 0
2,37050, Note_on_c, 0, 55, 56
2,37060, Note_on_c, 0, 61, 67
2,37111, Note_on_c, 0, 61, 0
2,37111, Note_on_c, 0, 62, 69
2,37136, Note_on_c, 0, 55, 0
2,37161, Note_on_c, 0, 62, 0
2,37163, Note_on_c, 0, 54, 56
2,37164, Note_on_c, 0, 61, 61
2,37202, Note_on_c, 0, 61, 0
2,37206, Note_on_c, 0, 59, 69
2,37252, Note_on_c, 0, 54, 0
2,37260, Note_on_c, 0, 59, 0
2,37280, Note_on_c, 0, 61, 73
2,37290, Note_on_c, 0, 52, 51
2,37335, Note_on_c, 0, 52, 0
2,37396, Note_on_c, 0, 55, 51
2,37476, Note_on_c, 0, 55, 0
2,37521, Note_on_c, 0, 62, 58
2,37522, Note_on_c, 0, 54, 50
2,37542, Note_on_c, 0, 61, 0
2,37601, Note_on_c, 0, 62, 0
2,37613, Note_on_c, 0, 54, 0
2,37662, Note_on_c, 0, 55, 43
2,37747, Note_on_c, 0, 55, 0
2,37764, Note_on_c, 0, 62, 50
2,37775, Note_on_c, 0, 54, 45
2,37855, Note_on_c, 0, 54, 0
2,37855, Note_on_c, 0, 62, 0
2,37882, Note_on_c, 0, 64, 59
2,37906, Note_on_c, 0, 52, 50
2,37999, Note_on_c, 0, 52, 0
2,38001, Note_on_c, 0, 66, 61
2,38034, Note_on_c, 0, 50, 55
2,38057, Note_on_c, 0, 64, 0
2,38097, Note_on_c, 0, 50, 0
2,38124, Note_on_c, 0, 67, 62
2,38130, Note_on_c, 0, 52, 61
2,38167, Note_on_c, 0, 66, 0
2,38237, Note_on_c, 0, 67, 0
2,38252, Note_on_c, 0, 54, 73
2,38262, Note_on_c, 0, 52, 0
2,38267, Note_on_c, 0, 69, 44
2,38330, Note_on_c, 0, 69, 0
2,38375, Note_on_c, 0, 55, 74
2,38380, Note_on_c, 0, 54, 0
2,38467, Note_on_c, 0, 66, 74
2,38487, Note_on_c, 0, 55, 0
2,38498, Note_on_c, 0, 57, 74
2,38599, Note_on_c, 0, 66, 0
2,38601, Note_on_c, 0, 59, 76
2,38605, Note_on_c, 0, 67, 77
2,38611, Note_on_c, 0, 57, 0
2,38695, Note_on_c, 0, 59, 0
2,38710, Note_on_c, 0, 69, 80
2,38713, Note_on_c, 0, 67, 0
2,38716, Note_on_c, 0, 60, 78
2,38785, Note_on_c, 0, 60, 0
2,38812, Note_on_c, 0, 71, 79
2,38822, Note_on_c, 0, 62, 69
2,38836, Note_on_c, 0, 69, 0
2,38944, Note_on_c, 0, 72, 75
2,38955, Note_on_c, 0, 54, 69
2,38959, Note_on_c, 0, 62, 0
2,38964, Note_on_c, 0, 50, 61
2,38983, Note_on_c, 0, 71, 0
2,39012, Note_on_c, 0, 72, 0
2,39027, Note_on_c, 0, 54, 0
2,39047, Note_on_c, 0, 50, 0
2,39205, Note_on_c, 0, 69, 73
2,39207, Note_on_c, 0, 48, 63
2,39244, Note_on_c, 0, 50, 30
2,39245, Note_on_c, 0, 50, 0
2,39264, Note_on_c, 0, 69, 0
2,39313, Note_on_c, 0, 50, 67
2,39325, Note_on_c, 0, 48, 0
2,39433, Note_on_c, 0, 50, 0
2,39438, Note_on_c, 0, 52, 78
2,39439, Note_on_c, 0, 71, 77
2,39445, Note_on_c, 0, 67, 74
2,39541, Note_on_c, 0, 71, 0
2,39556, Note_on_c, 0, 50, 80
2,39571, Note_on_c, 0, 52, 0
2,39674, Note_on_c, 0, 48, 73
2,39693, Note_on_c, 0, 69, 75
2,39708, Note_on_c, 0, 50, 0
2,39753, Note_on_c, 0, 67, 0
2,39775, Note_on_c, 0, 48, 0
2,39952, Note_on_c, 0, 47, 76
2,39953, Note_on_c, 0, 67, 67
2,40019, Note_on_c, 0, 67, 0
2,40060, Note_on_c, 0, 48, 80
2,40078, Note_on_c, 0, 47, 0
2,40177, Note_on_c, 0, 48, 0
2,40179, Note_on_c, 0, 50, 80
2,40188, Note_on_c, 0, 66, 76
2,40255, Note_on_c, 0, 66, 0
2,40304, Note_on_c, 0, 48, 79
2,40314, Note_on_c, 0, 50, 0
2,40404, Note_on_c, 0, 69, 0
2,40420, Note_on_c, 0, 67, 80
2,40435, Note_on_c, 0, 47, 70
2,40441, Note_on_c, 0, 48, 0
2,40495, Note_on_c, 0, 47, 0
2,40543, Note_on_c, 0, 67, 0
2,40543, Note_on_c, 0, 79, 74
2,40662, Note_on_c, 0, 48, 76
2,40674, Note_on_c, 0, 78, 81
2,40683, Note_on_c, 0, 79, 0
2,40729, Note_on_c, 0, 48, 0
2,40796, Note_on_c, 0, 76, 75
2,40822, Note_on_c, 0, 78, 0
2,40894, Note_on_c, 0, 50, 83
2,40915, Note_on_c, 0, 74, 79
2,40949, Note_on_c, 0, 76, 0
2,40955, Note_on_c, 0, 50, 0
2,41030, Note_on_c, 0, 74, 0
2,41031, Note_on_c, 0, 78, 74
2,41136, Note_on_c, 0, 55, 80
2,41154, Note_on_c, 0, 76, 80
2,41172, Note_on_c, 0, 78, 0
2,41215, Note_on_c, 0, 55, 0
2,41261, Note_on_c, 0, 76, 0
2,41272, Note_on_c, 0, 78, 77
2,41394, Note_on_c, 0, 45, 76
2,41397, Note_on_c, 0, 76, 74
2,41427, Note_on_c, 0, 78, 0
2,41509, Note_on_c, 0, 74, 70
2,41516, Note_on_c, 0, 76, 0
2,41643, Note_on_c, 0, 74, 0
2,41647, Note_on_c, 0, 72, 74
2,41702, Note_on_c, 0, 45, 0
2,41764, Note_on_c, 0, 76, 74
2,41767, Note_on_c, 0, 72, 0
2,41883, Note_on_c, 0, 47, 76
2,41888, Note_on_c, 0, 74, 71
2,41889, Note_on_c, 0, 76, 0
2,41951, Note_on_c, 0, 47, 0
2,41995, Note_on_c, 0, 74, 0
2,42003, Note_on_c, 0, 76, 70
2,42127, Note_on_c, 0, 74, 73
2,42129, Note_on_c, 0, 48, 83
2,42166, Note_on_c, 0, 76, 0
2,42199, Note_on_c, 0, 48, 0
2,42250, Note_on_c, 0, 72, 72
2,42287, Note_on_c, 0, 74, 0
2,42377, Note_on_c, 0, 50, 81
2,42377, Note_on_c, 0, 72, 0
2,42382, Note_on_c, 0, 71, 74
2,42440, Note_on_c, 0, 50, 0
2,42495, Note_on_c, 0, 71, 0
2,42503, Note_on_c, 0, 74, 74
2,42615, Note_on_c, 0, 52, 76
2,42622, Note_on_c, 0, 72, 74
2,42627, Note_on_c, 0, 74, 0
2,42686, Note_on_c, 0, 52, 0
2,42731, Note_on_c, 0, 72, 0
2,42749, Note_on_c, 0, 74, 65
2,42874, Note_on_c, 0, 42, 80
2,42877, Note_on_c, 0, 72, 64
2,42919, Note_on_c, 0, 74, 0
2,42987, Note_on_c, 0, 71, 69
2,42990, Note_on_c, 0, 72, 0
2,43096, Note_on_c, 0, 71, 0
2,43112, Note_on_c, 0, 69, 63
2,43215, Note_on_c, 0, 69, 0
2,43234, Note_on_c, 0, 72, 59
2,43351, Note_on_c, 0, 71, 65
2,43352, Note_on_c, 0, 42, 0
2,43353, Note_on_c, 0, 72, 0
2,43357, Note_on_c, 0, 43, 67
2,43466, Note_on_c, 0, 43, 0
2,43468, Note_on_c, 0, 45, 72
2,43479, Note_on_c, 0, 69, 61
2,43487, Note_on_c, 0, 71, 0
2,43573, Note_on_c, 0, 69, 0
2,43576, Note_on_c, 0, 45, 0
2,43582, Note_on_c, 0, 47, 82
2,43590, Note_on_c, 0, 67, 62
2,43656, Note_on_c, 0, 67, 0
2,43713, Note_on_c, 0, 71, 58
2,43809, Note_on_c, 0, 71, 0
2,43825, Note_on_c, 0, 66, 72
2,43833, Note_on_c, 0, 62, 67
2,43868, Note_on_c, 0, 62, 0
2,43903, Note_on_c, 0, 66, 0
2,43945, Note_on_c, 0, 71, 61
2,44044, Note_on_c, 0, 71, 0
2,44074, Note_on_c, 0, 64, 73
2,44079, Note_on_c, 0, 61, 72
2,44154, Note_on_c, 0, 61, 0
2,44184, Note_on_c, 0, 45, 72
2,44184, Note_on_c, 0, 47, 0
2,44196, Note_on_c, 0, 71, 65
2,44204, Note_on_c, 0, 64, 0
2,44283, Note_on_c, 0, 71, 0
2,44291, Note_on_c, 0, 43, 72
2,44310, Note_on_c, 0, 45, 0
2,44318, Note_on_c, 0, 62, 68
2,44365, Note_on_c, 0, 62, 0
2,44407, Note_on_c, 0, 43, 0
2,44413, Note_on_c, 0, 42, 76
2,44431, Note_on_c, 0, 71, 53
2,44529, Note_on_c, 0, 71, 0
2,44536, Note_on_c, 0, 42, 0
2,44537, Note_on_c, 0, 40, 69
2,44549, Note_on_c, 0, 61, 70
2,44625, Note_on_c, 0, 61, 0
2,44652, Note_on_c, 0, 43, 66
2,44658, Note_on_c, 0, 71, 72
2,44664, Note_on_c, 0, 40, 0
2,44749, Note_on_c, 0, 71, 0
2,44765, Note_on_c, 0, 42, 78
2,44770, Note_on_c, 0, 43, 0
2,44772, Note_on_c, 0, 69, 63
2,44866, Note_on_c, 0, 69, 0
2,44880, Note_on_c, 0, 42, 0
2,44884, Note_on_c, 0, 43, 77
2,44886, Note_on_c, 0, 67, 64
2,44982, Note_on_c, 0, 67, 0
2,44997, Note_on_c, 0, 43, 0
2,45006, Note_on_c, 0, 45, 83
2,45007, Note_on_c, 0, 66, 62
2,45085, Note_on_c, 0, 66, 0
2,45113, Note_on_c, 0, 69, 56
2,45224, Note_on_c, 0, 69, 0
2,45250, Note_on_c, 0, 61, 67
2,45253, Note_on_c, 0, 64, 67
2,45297, Note_on_c, 0, 61, 0
2,45300, Note_on_c, 0, 64, 0
2,45366, Note_on_c, 0, 69, 59
2,45459, Note_on_c, 0, 69, 0
2,45505, Note_on_c, 0, 62, 57
2,45516, Note_on_c, 0, 59, 49
2,45553, Note_on_c, 0, 59, 0
2,45567, Note_on_c, 0, 62, 0
2,45611, Note_on_c, 0, 43, 64
2,45611, Note_on_c, 0, 69, 56
2,45612, Note_on_c, 0, 45, 0
2,45708, Note_on_c, 0, 69, 0
2,45715, Note_on_c, 0, 42, 74
2,45734, Note_on_c, 0, 61, 60
2,45736, Note_on_c, 0, 43, 0
2,45816, Note_on_c, 0, 42, 0
2,45833, Note_on_c, 0, 61, 0
2,45835, Note_on_c, 0, 40, 72
2,45853, Note_on_c, 0, 69, 54
2,45948, Note_on_c, 0, 69, 0
2,45958, Note_on_c, 0, 38, 69
2,45965, Note_on_c, 0, 40, 0
2,45965, Note_on_c, 0, 59, 69
2,46040, Note_on_c, 0, 59, 0
2,46068, Note_on_c, 0, 42, 73
2,46079, Note_on_c, 0, 69, 65
2,46080, Note_on_c, 0, 38, 0
2,46180, Note_on_c, 0, 69, 0
2,46187, Note_on_c, 0, 40, 75
2,46187, Note_on_c, 0, 42, 0
2,46189, Note_on_c, 0, 67, 66
2,46288, Note_on_c, 0, 67, 0
2,46294, Note_on_c, 0, 40, 0
2,46297, Note_on_c, 0, 42, 80
2,46298, Note_on_c, 0, 66, 65
2,46406, Note_on_c, 0, 42, 0
2,46410, Note_on_c, 0, 66, 0
2,46416, Note_on_c, 0, 64, 69
2,46419, Note_on_c, 0, 43, 83
2,46497, Note_on_c, 0, 64, 0
2,46526, Note_on_c, 0, 67, 61
2,46625, Note_on_c, 0, 67, 0
2,46658, Note_on_c, 0, 59, 62
2,46661, Note_on_c, 0, 62, 55
2,46712, Note_on_c, 0, 59, 0
2,46735, Note_on_c, 0, 62, 0
2,46773, Note_on_c, 0, 67, 59
2,46887, Note_on_c, 0, 67, 0
2,46908, Note_on_c, 0, 61, 58
2,46918, Note_on_c, 0, 57, 57
2,46966, Note_on_c, 0, 57, 0
2,46984, Note_on_c, 0, 61, 0
2,47019, Note_on_c, 0, 67, 61
2,47024, Note_on_c, 0, 43, 0
2,47027, Note_on_c, 0, 42, 73
2,47115, Note_on_c, 0, 67, 0
2,47134, Note_on_c, 0, 40, 66
2,47136, Note_on_c, 0, 42, 0
2,47144, Note_on_c, 0, 59, 58
2,47198, Note_on_c, 0, 59, 0
2,47212, Note_on_c, 0, 40, 0
2,47248, Note_on_c, 0, 38, 57
2,47263, Note_on_c, 0, 67, 53
2,47319, Note_on_c, 0, 38, 0
2,47326, Note_on_c, 0, 67, 0
2,47354, Note_on_c, 0, 37, 54
2,47381, Note_on_c, 0, 57, 52
2,47421, Note_on_c, 0, 37, 0
2,47437, Note_on_c, 0, 57, 0
2,47444, Control_c, 0, 67, 16
2,47458, Control_c, 0, 67, 95
2,47481, Control_c, 0, 67, 127
2,47487, Note_on_c, 0, 67, 48
2,47576, Note_on_c, 0, 67, 0
2,47613, Note_on_c, 0, 66, 52
2,47619, Note_on_c, 0, 38, 44
2,47680, Note_on_c, 0, 38, 0
2,47694, Note_on_c, 0, 66, 0
2,47722, Note_on_c, 0, 40, 47
2,47728, Note_on_c, 0, 74, 54
2,47819, Note_on_c, 0, 40, 0
2,47826, Note_on_c, 0, 74, 0
2,47846, Note_on_c, 0, 72, 57
2,47850, Note_on_c, 0, 42, 55
2,47912, Note_on_c, 0, 42, 0
2,47924, Note_on_c, 0, 72, 0
2,47959, Note_on_c, 0, 38, 44
2,47966, Note_on_c, 0, 71, 52
2,48023, Note_on_c, 0, 38, 0
2,48058, Note_on_c, 0, 71, 0
2,48074, Note_on_c, 0, 69, 57
2,48081, Note_on_c, 0, 43, 47
2,48145, Note_on_c, 0, 43, 0
2,48152, Note_on_c, 0, 69, 0
2,48190, Note_on_c, 0, 67, 55
2,48201, Note_on_c, 0, 38, 36
2,48265, Note_on_c, 0, 38, 0
2,48281, Note_on_c, 0, 67, 0
2,48307, Note_on_c, 0, 45, 54
2,48307, Note_on_c, 0, 66, 60
2,48385, Note_on_c, 0, 45, 0
2,48407, Note_on_c, 0, 66, 0
2,48420, Note_on_c, 0, 64, 59
2,48430, Note_on_c, 0, 38, 36
2,48501, Note_on_c, 0, 38, 0
2,48529, Note_on_c, 0, 64, 0
2,48543, Note_on_c, 0, 62, 58
2,48553, Note_on_c, 0, 47, 54
2,48602, Note_on_c, 0, 47, 0
2,48625, Note_on_c, 0, 62, 0
2,48654, Note_on_c, 0, 60, 55
2,48663, Note_on_c, 0, 38, 44
2,48713, Note_on_c, 0, 38, 0
2,48771, Note_on_c, 0, 60, 0
2,48772, Note_on_c, 0, 48, 53
2,48776, Note_on_c, 0, 59, 54
2,48832, Note_on_c, 0, 48, 0
2,48865, Note_on_c, 0, 59, 0
2,48888, Note_on_c, 0, 57, 55
2,48890, Note_on_c, 0, 38, 41
2,48979, Note_on_c, 0, 38, 0
2,48980, Note_on_c, 0, 57, 0
2,48998, Note_on_c, 0, 47, 58
2,49000, Note_on_c, 0, 55, 56
2,49048, Note_on_c, 0, 55, 0
2,49060, Note_on_c, 0, 47, 0
2,49118, Note_on_c, 0, 57, 60
2,49133, Note_on_c, 0, 55, 60
2,49192, Note_on_c, 0, 57, 0
2,49216, Note_on_c, 0, 55, 0
2,49240, Note_on_c, 0, 59, 59
2,49254, Note_on_c, 0, 53, 57
2,49299, Note_on_c, 0, 59, 0
2,49339, Note_on_c, 0, 53, 0
2,49345, Note_on_c, 0, 55, 55
2,49369, Note_on_c, 0, 52, 44
2,49424, Note_on_c, 0, 52, 0
2,49445, Note_on_c, 0, 55, 0
2,49464, Note_on_c, 0, 60, 63
2,49468, Note_on_c, 0, 50, 56
2,49529, Note_on_c, 0, 60, 0
2,49547, Note_on_c, 0, 50, 0
2,49575, Note_on_c, 0, 55, 57
2,49592, Note_on_c, 0, 48, 46
2,49666, Note_on_c, 0, 55, 0
2,49685, Note_on_c, 0, 48, 0
2,49691, Note_on_c, 0, 62, 62
2,49702, Note_on_c, 0, 47, 54
2,49765, Note_on_c, 0, 62, 0
2,49794, Note_on_c, 0, 47, 0
2,49814, Note_on_c, 0, 55, 57
2,49831, Note_on_c, 0, 45, 49
2,49890, Note_on_c, 0, 45, 0
2,49901, Note_on_c, 0, 55, 0
2,49930, Note_on_c, 0, 64, 64
2,49947, Note_on_c, 0, 43, 39
2,49987, Note_on_c, 0, 64, 0
2,50025, Note_on_c, 0, 43, 0
2,50042, Note_on_c, 0, 55, 55
2,50069, Note_on_c, 0, 41, 45
2,50126, Note_on_c, 0, 55, 0
2,50146, Note_on_c, 0, 41, 0
2,50152, Note_on_c, 0, 65, 63
2,50168, Note_on_c, 0, 40, 54
2,50222, Note_on_c, 0, 65, 0
2,50242, Note_on_c, 0, 40, 0
2,50265, Note_on_c, 0, 55, 60
2,50282, Note_on_c, 0, 38, 47
2,50338, Note_on_c, 0, 55, 0
2,50341, Note_on_c, 0, 38, 0
2,50370, Note_on_c, 0, 36, 51
2,50394, Note_on_c, 0, 64, 59
2,50472, Note_on_c, 0, 36, 0
2,50475, Note_on_c, 0, 64, 0
2,50488, Note_on_c, 0, 38, 51
2,50515, Note_on_c, 0, 72, 39
2,50553, Note_on_c, 0, 38, 0
2,50600, Note_on_c, 0, 72, 0
2,50618, Note_on_c, 0, 40, 53
2,50628, Note_on_c, 0, 71, 55
2,50700, Note_on_c, 0, 40, 0
2,50714, Note_on_c, 0, 71, 0
2,50727, Note_on_c, 0, 42, 56
2,50731, Note_on_c, 0, 74, 56
2,50796, Note_on_c, 0, 42, 0
2,50832, Note_on_c, 0, 74, 0
2,50838, Note_on_c, 0, 44, 55
2,50852, Note_on_c, 0, 69, 61
2,50918, Note_on_c, 0, 44, 0
2,50922, Note_on_c, 0, 69, 0
2,50952, Note_on_c, 0, 45, 54
2,50957, Note_on_c, 0, 74, 63
2,51017, Note_on_c, 0, 45, 0
2,51065, Note_on_c, 0, 74, 0
2,51069, Note_on_c, 0, 47, 50
2,51077, Note_on_c, 0, 68, 70
2,51147, Note_on_c, 0, 68, 0
2,51167, Note_on_c, 0, 47, 0
2,51188, Note_on_c, 0, 48, 51
2,51189, Note_on_c, 0, 74, 62
2,51277, Note_on_c, 0, 48, 0
2,51293, Note_on_c, 0, 74, 0
2,51317, Note_on_c, 0, 66, 68
2,51330, Note_on_c, 0, 50, 53
2,51372, Note_on_c, 0, 50, 0
2,51387, Note_on_c, 0, 66, 0
2,51425, Note_on_c, 0, 74, 63
2,51429, Note_on_c, 0, 52, 49
2,51512, Note_on_c, 0, 52, 0
2,51514, Note_on_c, 0, 74, 0
2,51540, Note_on_c, 0, 54, 53
2,51546, Note_on_c, 0, 64, 69
2,51608, Note_on_c, 0, 64, 0
2,51611, Note_on_c, 0, 54, 0
2,51649, Note_on_c, 0, 56, 52
2,51650, Note_on_c, 0, 74, 62
2,51714, Note_on_c, 0, 56, 0
2,51747, Note_on_c, 0, 74, 0
2,51760, Note_on_c, 0, 57, 53
2,51770, Note_on_c, 0, 72, 61
2,51846, Note_on_c, 0, 72, 0
2,51855, Note_on_c, 0, 57, 0
2,51878, Note_on_c, 0, 69, 61
2,51881, Note_on_c, 0, 55, 54
2,51975, Note_on_c, 0, 55, 0
2,51980, Note_on_c, 0, 69, 0
2,51994, Note_on_c, 0, 54, 57
2,51998, Note_on_c, 0, 71, 70
2,52072, Note_on_c, 0, 54, 0
2,52111, Note_on_c, 0, 73, 72
2,52116, Note_on_c, 0, 57, 55
2,52127, Note_on_c, 0, 71, 0
2,52224, Note_on_c, 0, 57, 0
2,52237, Note_on_c, 0, 52, 55
2,52237, Note_on_c, 0, 73, 0
2,52237, Note_on_c, 0, 75, 79
2,52308, Note_on_c, 0, 52, 0
2,52326, Note_on_c, 0, 75, 0
2,52348, Note_on_c, 0, 57, 61
2,52353, Note_on_c, 0, 76, 65
2,52362, Control_c, 0, 67, 109
2,52378, Control_c, 0, 67, 89
2,52393, Control_c, 0, 67, 64
2,52409, Control_c, 0, 67, 31
2,52423, Control_c, 0, 67, 0
2,52463, Note_on_c, 0, 57, 0
2,52469, Note_on_c, 0, 76, 0
2,52474, Note_on_c, 0, 51, 61
2,52475, Note_on_c, 0, 78, 57
2,52491, Note_on_c, 0, 79, 77
2,52559, Note_on_c, 0, 51, 0
2,52570, Note_on_c, 0, 78, 0
2,52585, Note_on_c, 0, 57, 66
2,52704, Note_on_c, 0, 57, 0
2,52706, Note_on_c, 0, 49, 66
2,52708, Note_on_c, 0, 81, 77
2,52726, Note_on_c, 0, 79, 0
2,52799, Note_on_c, 0, 49, 0
2,52810, Note_on_c, 0, 83, 81
2,52823, Note_on_c, 0, 57, 63
2,52830, Note_on_c, 0, 81, 0
2,52927, Note_on_c, 0, 57, 0
2,52942, Note_on_c, 0, 83, 0
2,52944, Note_on_c, 0, 47, 59
2,52944, Note_on_c, 0, 84, 81
2,53006, Note_on_c, 0, 47, 0
2,53051, Note_on_c, 0, 57, 62
2,53057, Note_on_c, 0, 75, 80
2,53090, Note_on_c, 0, 84, 0
2,53148, Note_on_c, 0, 57, 0
2,53178, Note_on_c, 0, 55, 57
2,53186, Note_on_c, 0, 76, 81
2,53220, Note_on_c, 0, 75, 0
2,53222, Note_on_c, 0, 55, 0
2,53272, Note_on_c, 0, 76, 0
2,53433, Note_on_c, 0, 60, 59
2,53438, Note_on_c, 0, 78, 75
2,53469, Note_on_c, 0, 60, 0
2,53550, Note_on_c, 0, 76, 79
2,53593, Note_on_c, 0, 78, 0
2,53678, Note_on_c, 0, 75, 85
2,53686, Note_on_c, 0, 59, 58
2,53710, Note_on_c, 0, 76, 0
2,53731, Note_on_c, 0, 59, 0
2,53780, Note_on_c, 0, 76, 82
2,53786, Note_on_c, 0, 75, 0
2,53909, Note_on_c, 0, 78, 75
2,53911, Note_on_c, 0, 57, 55
2,53933, Note_on_c, 0, 76, 0
2,53954, Note_on_c, 0, 57, 0
2,54013, Note_on_c, 0, 78, 0
2,54163, Note_on_c, 0, 79, 77
2,54268, Note_on_c, 0, 78, 81
2,54304, Note_on_c, 0, 79, 0
2,54401, Note_on_c, 0, 47, 51
2,54404, Note_on_c, 0, 76, 79
2,54420, Note_on_c, 0, 78, 0
2,54442, Note_on_c, 0, 47, 0
2,54510, Note_on_c, 0, 78, 79
2,54526, Note_on_c, 0, 76, 0
2,54629, Note_on_c, 0, 52, 55
2,54629, Note_on_c, 0, 79, 79
2,54661, Note_on_c, 0, 78, 0
2,54706, Note_on_c, 0, 79, 0
2,54724, Note_on_c, 0, 52, 0
2,54738, Note_on_c, 0, 54, 60
2,54844, Note_on_c, 0, 54, 0
2,54867, Note_on_c, 0, 78, 81
2,54870, Note_on_c, 0, 55, 56
2,54932, Note_on_c, 0, 78, 0
2,54974, Note_on_c, 0, 55, 0
2,54987, Note_on_c, 0, 52, 60
2,55070, Note_on_c, 0, 52, 0
2,55106, Note_on_c, 0, 76, 78
2,55107, Note_on_c, 0, 57, 62
2,55166, Note_on_c, 0, 76, 0
2,55207, Note_on_c, 0, 57, 0
2,55218, Note_on_c, 0, 52, 63
2,55324, Note_on_c, 0, 52, 0
2,55343, Note_on_c, 0, 59, 56
2,55351, Note_on_c, 0, 71, 75
2,55402, Note_on_c, 0, 71, 0
2,55422, Note_on_c, 0, 59, 0
2,55460, Note_on_c, 0, 52, 59
2,55581, Note_on_c, 0, 52, 0
2,55597, Note_on_c, 0, 81, 81
2,55604, Note_on_c, 0, 61, 62
2,55709, Note_on_c, 0, 61, 0
2,55721, Note_on_c, 0, 52, 59
2,55822, Note_on_c, 0, 52, 0
2,55838, Note_on_c, 0, 63, 66
2,55952, Note_on_c, 0, 52, 60
2,55965, Note_on_c, 0, 63, 0
2,56027, Note_on_c, 0, 52, 0
2,56079, Note_on_c, 0, 79, 77
2,56087, Note_on_c, 0, 64, 61
2,56108, Note_on_c, 0, 81, 0
2,56151, Note_on_c, 0, 79, 0
2,56174, Note_on_c, 0, 64, 0
2,56220, Note_on_c, 0, 62, 37
2,56260, Note_on_c, 0, 62, 0
2,56320, Note_on_c, 0, 64, 69
2,56321, Note_on_c, 0, 78, 83
2,56397, Note_on_c, 0, 78, 0
2,56425, Note_on_c, 0, 64, 0
2,56427, Note_on_c, 0, 66, 68
2,56538, Note_on_c, 0, 66, 0
2,56547, Note_on_c, 0, 67, 82
2,56550, Note_on_c, 0, 76, 89
2,56630, Note_on_c, 0, 76, 0
2,56656, Note_on_c, 0, 67, 0
2,56661, Note_on_c, 0, 64, 75
2,56780, Note_on_c, 0, 64, 0
2,56786, Note_on_c, 0, 66, 70
2,56790, Note_on_c, 0, 75, 84
2,56844, Note_on_c, 0, 75, 0
2,56880, Note_on_c, 0, 66, 0
2,56901, Note_on_c, 0, 64, 67
2,57038, Note_on_c, 0, 64, 0
2,57058, Note_on_c, 0, 66, 65
2,57060, Note_on_c, 0, 84, 83
2,57169, Note_on_c, 0, 66, 0
2,57192, Note_on_c, 0, 67, 60
2,57257, Note_on_c, 0, 67, 0
2,57305, Note_on_c, 0, 69, 50
2,57393, Note_on_c, 0, 69, 0
2,57420, Note_on_c, 0, 66, 42
2,57523, Note_on_c, 0, 66, 0
2,57566, Note_on_c, 0, 83, 50
2,57579, Note_on_c, 0, 67, 40
2,57608, Note_on_c, 0, 84, 0
2,57620, Note_on_c, 0, 67, 0
2,57656, Note_on_c, 0, 83, 0
2,57854, Note_on_c, 0, 84, 53
2,57878, Note_on_c, 0, 69, 17
2,57935, Note_on_c, 0, 69, 0
2,57962, Note_on_c, 0, 83, 60
2,57973, Note_on_c, 0, 84, 0
2,57986, Note_on_c, 0, 67, 39
2,58051, Note_on_c, 0, 67, 0
2,58081, Note_on_c, 0, 81, 67
2,58093, Note_on_c, 0, 66, 43
2,58114, Note_on_c, 0, 83, 0
2,58165, Note_on_c, 0, 66, 0
2,58168, Note_on_c, 0, 81, 0
2,58189, Note_on_c, 0, 79, 58
2,58209, Note_on_c, 0, 64, 44
2,58310, Note_on_c, 0, 64, 0
2,58325, Note_on_c, 0, 79, 0
2,58327, Note_on_c, 0, 78, 58
2,58336, Note_on_c, 0, 69, 52
2,58432, Note_on_c, 0, 78, 0
2,58620, Note_on_c, 0, 81, 65
2,58727, Note_on_c, 0, 79, 75
2,58843, Note_on_c, 0, 81, 0
2,58849, Note_on_c, 0, 78, 77
2,58888, Note_on_c, 0, 79, 0
2,58953, Note_on_c, 0, 76, 69
2,58953, Note_on_c, 0, 78, 0
2,59094, Note_on_c, 0, 75, 68
2,59096, Note_on_c, 0, 76, 0
2,59162, Note_on_c, 0, 75, 0
2,59206, Note_on_c, 0, 69, 0
2,59222, Note_on_c, 0, 67, 56
2,59329, Note_on_c, 0, 81, 64
2,59330, Note_on_c, 0, 67, 0
2,59341, Note_on_c, 0, 66, 56
2,59386, Note_on_c, 0, 81, 0
2,59408, Note_on_c, 0, 66, 0
2,59460, Note_on_c, 0, 69, 52
2,59566, Note_on_c, 0, 69, 0
2,59576, Note_on_c, 0, 79, 71
2,59582, Note_on_c, 0, 64, 60
2,59614, Note_on_c, 0, 79, 0
2,59654, Note_on_c, 0, 64, 0
2,59706, Note_on_c, 0, 69, 60
2,59807, Note_on_c, 0, 69, 0
2,59818, Note_on_c, 0, 63, 62
2,59818, Note_on_c, 0, 78, 68
2,59853, Note_on_c, 0, 78, 0
2,59889, Note_on_c, 0, 63, 0
2,59940, Note_on_c, 0, 69, 56
2,60037, Note_on_c, 0, 69, 0
2,60050, Note_on_c, 0, 61, 62
2,60052, Note_on_c, 0, 76, 66
2,60092, Note_on_c, 0, 76, 0
2,60139, Note_on_c, 0, 61, 0
2,60175, Note_on_c, 0, 69, 56
2,60282, Note_on_c, 0, 69, 0
2,60287, Note_on_c, 0, 75, 68
2,60295, Note_on_c, 0, 59, 59
2,60341, Note_on_c, 0, 75, 0
2,60355, Note_on_c, 0, 59, 0
2,60406, Note_on_c, 0, 69, 70
2,60546, Note_on_c, 0, 67, 72
2,60546, Note_on_c, 0, 76, 60
2,60573, Note_on_c, 0, 69, 0
2,60656, Note_on_c, 0, 76, 0
2,60680, Note_on_c, 0, 67, 0
2,60801, Note_on_c, 0, 66, 68
2,60802, Note_on_c, 0, 74, 61
2,60860, Note_on_c, 0, 74, 0
2,60915, Note_on_c, 0, 67, 75
2,60925, Note_on_c, 0, 66, 0
2,61021, Note_on_c, 0, 67, 0
2,61035, Note_on_c, 0, 69, 76
2,61039, Note_on_c, 0, 72, 65
2,61084, Note_on_c, 0, 72, 0
2,61154, Note_on_c, 0, 67, 76
2,61165, Note_on_c, 0, 69, 0
2,61270, Note_on_c, 0, 66, 72
2,61278, Note_on_c, 0, 74, 64
2,61315, Note_on_c, 0, 67, 0
2,61378, Note_on_c, 0, 74, 0
2,61389, Note_on_c, 0, 66, 0
2,61535, Note_on_c, 0, 64, 74
2,61540, Note_on_c, 0, 72, 72
2,61605, Note_on_c, 0, 72, 0
2,61650, Note_on_c, 0, 66, 74
2,61662, Note_on_c, 0, 64, 0
2,61760, Note_on_c, 0, 66, 0
2,61772, Note_on_c, 0, 67, 72
2,61772, Note_on_c, 0, 71, 77
2,61824, Note_on_c, 0, 71, 0
2,61881, Note_on_c, 0, 66, 81
2,61885, Note_on_c, 0, 67, 0
2,61994, Note_on_c, 0, 64, 74
2,62008, Note_on_c, 0, 72, 67
2,62026, Note_on_c, 0, 66, 0
2,62081, Note_on_c, 0, 64, 0
2,62120, Note_on_c, 0, 72, 0
2,62132, Note_on_c, 0, 84, 76
2,62243, Note_on_c, 0, 66, 76
2,62246, Note_on_c, 0, 83, 81
2,62269, Note_on_c, 0, 84, 0
2,62313, Note_on_c, 0, 66, 0
2,62368, Note_on_c, 0, 81, 79
2,62406, Note_on_c, 0, 83, 0
2,62487, Note_on_c, 0, 67, 84
2,62487, Note_on_c, 0, 79, 80
2,62522, Note_on_c, 0, 81, 0
2,62555, Note_on_c, 0, 67, 0
2,62594, Note_on_c, 0, 79, 0
2,62604, Note_on_c, 0, 83, 73
2,62729, Note_on_c, 0, 72, 81
2,62736, Note_on_c, 0, 81, 75
2,62745, Note_on_c, 0, 83, 0
2,62805, Note_on_c, 0, 72, 0
2,62845, Note_on_c, 0, 81, 0
2,62863, Note_on_c, 0, 83, 70
2,62987, Note_on_c, 0, 81, 69
2,62997, Note_on_c, 0, 63, 79
2,63006, Note_on_c, 0, 83, 0
2,63084, Note_on_c, 0, 81, 0
2,63107, Note_on_c, 0, 79, 65
2,63213, Note_on_c, 0, 79, 0
2,63231, Note_on_c, 0, 78, 65
2,63331, Note_on_c, 0, 78, 0
2,63340, Note_on_c, 0, 81, 68
2,63389, Note_on_c, 0, 63, 0
2,63466, Note_on_c, 0, 81, 0
2,63468, Note_on_c, 0, 64, 76
2,63477, Note_on_c, 0, 79, 72
2,63533, Note_on_c, 0, 64, 0
2,63576, Note_on_c, 0, 79, 0
2,63586, Note_on_c, 0, 81, 70
2,63710, Note_on_c, 0, 66, 78
2,63710, Note_on_c, 0, 79, 73
2,63763, Note_on_c, 0, 81, 0
2,63804, Note_on_c, 0, 66, 0
2,63832, Note_on_c, 0, 78, 76
2,63851, Note_on_c, 0, 79, 0
2,63937, Note_on_c, 0, 78, 0
2,63948, Note_on_c, 0, 76, 73
2,63950, Note_on_c, 0, 67, 79
2,64006, Note_on_c, 0, 67, 0
2,64058, Note_on_c, 0, 76, 0
2,64069, Note_on_c, 0, 79, 72
2,64172, Note_on_c, 0, 79, 0
2,64174, Note_on_c, 0, 78, 66
2,64183, Note_on_c, 0, 69, 75
2,64246, Note_on_c, 0, 69, 0
2,64294, Note_on_c, 0, 78, 0
2,64303, Note_on_c, 0, 79, 61
2,64431, Note_on_c, 0, 79, 0
2,64433, Note_on_c, 0, 59, 68
2,64433, Note_on_c, 0, 78, 62
2,64527, Note_on_c, 0, 78, 0
2,64552, Note_on_c, 0, 76, 56
2,64649, Note_on_c, 0, 76, 0
2,64675, Note_on_c, 0, 75, 57
2,64692, Note_on_c, 0, 59, 0
2,64760, Note_on_c, 0, 75, 0
2,64771, Note_on_c, 0, 78, 49
2,64897, Note_on_c, 0, 60, 48
2,64902, Note_on_c, 0, 78, 0
2,64913, Note_on_c, 0, 76, 46
2,64995, Note_on_c, 0, 60, 0
2,65013, Note_on_c, 0, 59, 55
2,65053, Note_on_c, 0, 76, 0
2,65113, Note_on_c, 0, 59, 0
2,65144, Note_on_c, 0, 78, 71
2,65150, Note_on_c, 0, 57, 50
2,65225, Note_on_c, 0, 57, 0
2,65254, Note_on_c, 0, 79, 76
2,65257, Note_on_c, 0, 59, 60
2,65260, Note_on_c, 0, 78, 0
2,65362, Note_on_c, 0, 59, 0
2,65368, Note_on_c, 0, 81, 77
2,65370, Note_on_c, 0, 60, 67
2,65418, Note_on_c, 0, 79, 0
2,65481, Note_on_c, 0, 60, 0
2,65481, Note_on_c, 0, 62, 75
2,65581, Note_on_c, 0, 62, 0
2,65603, Note_on_c, 0, 64, 81
2,65719, Note_on_c, 0, 63, 77
2,65731, Note_on_c, 0, 64, 0
2,65764, Note_on_c, 0, 81, 0
2,65825, Note_on_c, 0, 63, 0
2,65835, Note_on_c, 0, 64, 75
2,65837, Note_on_c, 0, 79, 86
2,65945, Note_on_c, 0, 64, 0
2,65947, Note_on_c, 0, 66, 75
2,65950, Note_on_c, 0, 81, 81
2,65973, Note_on_c, 0, 79, 0
2,66065, Note_on_c, 0, 66, 0
2,66067, Note_on_c, 0, 67, 76
2,66073, Note_on_c, 0, 83, 85
2,66089, Note_on_c, 0, 81, 0
2,66172, Note_on_c, 0, 67, 0
2,66191, Note_on_c, 0, 69, 78
2,66222, Note_on_c, 0, 69, 0
2,66322, Note_on_c, 0, 71, 77
2,66364, Note_on_c, 0, 83, 0
2,66453, Note_on_c, 0, 47, 63
2,66499, Note_on_c, 0, 49, 69
2,66529, Note_on_c, 0, 47, 0
2,66542, Note_on_c, 0, 81, 75
2,66546, Note_on_c, 0, 51, 76
2,66569, Note_on_c, 0, 49, 0
2,66612, Note_on_c, 0, 81, 0
2,66658, Note_on_c, 0, 47, 72
2,66661, Note_on_c, 0, 51, 0
2,66767, Note_on_c, 0, 47, 0
2,66774, Note_on_c, 0, 79, 81
2,66783, Note_on_c, 0, 52, 72
2,66831, Note_on_c, 0, 79, 0
2,66891, Note_on_c, 0, 47, 71
2,66893, Note_on_c, 0, 52, 0
2,67009, Note_on_c, 0, 47, 0
2,67013, Note_on_c, 0, 54, 74
2,67015, Note_on_c, 0, 78, 80
2,67058, Note_on_c, 0, 71, 0
2,67113, Note_on_c, 0, 54, 0
2,67123, Note_on_c, 0, 47, 73
2,67123, Note_on_c, 0, 79, 84
2,67159, Note_on_c, 0, 78, 0
2,67238, Note_on_c, 0, 47, 0
2,67242, Note_on_c, 0, 55, 77
2,67243, Note_on_c, 0, 72, 89
2,67244, Note_on_c, 0, 81, 79
2,67255, Note_on_c, 0, 79, 0
2,67291, Note_on_c, 0, 81, 0
2,67293, Note_on_c, 0, 72, 0
2,67339, Note_on_c, 0, 55, 0
2,67357, Note_on_c, 0, 47, 69
2,67454, Note_on_c, 0, 47, 0
2,67486, Note_on_c, 0, 66, 87
2,67487, Note_on_c, 0, 57, 69
2,67488, Note_on_c, 0, 75, 85
2,67523, Note_on_c, 0, 66, 0
2,67541, Note_on_c, 0, 75, 0
2,67579, Note_on_c, 0, 57, 0
2,67588, Note_on_c, 0, 47, 67
2,67717, Note_on_c, 0, 55, 68
2,67728, Note_on_c, 0, 64, 89
2,67735, Note_on_c, 0, 47, 0
2,67738, Note_on_c, 0, 76, 78
2,67831, Note_on_c, 0, 66, 85
2,67841, Note_on_c, 0, 54, 74
2,67841, Note_on_c, 0, 55, 0
2,67844, Note_on_c, 0, 64, 0
2,67932, Note_on_c, 0, 76, 0
2,67960, Note_on_c, 0, 67, 90
2,67961, Note_on_c, 0, 66, 0
2,67963, Note_on_c, 0, 52, 68
2,67972, Note_on_c, 0, 54, 0
2,68049, Note_on_c, 0, 52, 0
2,68097, Note_on_c, 0, 55, 56
2,68180, Note_on_c, 0, 71, 83
2,68192, Note_on_c, 0, 55, 0
2,68195, Note_on_c, 0, 50, 65
2,68235, Note_on_c, 0, 71, 0
2,68250, Note_on_c, 0, 50, 0
2,68313, Note_on_c, 0, 55, 53
2,68419, Note_on_c, 0, 55, 0
2,68426, Note_on_c, 0, 69, 77
2,68427, Note_on_c, 0, 49, 61
2,68447, Note_on_c, 0, 67, 0
2,68504, Note_on_c, 0, 49, 0
2,68535, Note_on_c, 0, 55, 66
2,68538, Note_on_c, 0, 66, 72
2,68643, Note_on_c, 0, 55, 0
2,68651, Note_on_c, 0, 47, 66
2,68652, Note_on_c, 0, 64, 80
2,68686, Note_on_c, 0, 66, 0
2,68734, Note_on_c, 0, 47, 0
2,68747, Note_on_c, 0, 64, 0
2,68754, Note_on_c, 0, 62, 80
2,68761, Note_on_c, 0, 55, 70
2,68860, Note_on_c, 0, 55, 0
2,68879, Note_on_c, 0, 45, 70
2,68886, Note_on_c, 0, 62, 0
2,68887, Note_on_c, 0, 61, 77
2,68962, Note_on_c, 0, 45, 0
2,68992, Note_on_c, 0, 55, 63
2,68993, Note_on_c, 0, 64, 73
2,69004, Note_on_c, 0, 61, 0
2,69108, Note_on_c, 0, 55, 0
2,69119, Note_on_c, 0, 64, 0
2,69125, Note_on_c, 0, 62, 78
2,69126, Note_on_c, 0, 69, 0
2,69128, Note_on_c, 0, 54, 69
2,69235, Note_on_c, 0, 64, 84
2,69239, Note_on_c, 0, 54, 0
2,69246, Note_on_c, 0, 52, 64
2,69248, Note_on_c, 0, 62, 0
2,69343, Note_on_c, 0, 52, 0
2,69344, Note_on_c, 0, 66, 79
2,69361, Note_on_c, 0, 50, 70
2,69364, Note_on_c, 0, 64, 0
2,69435, Note_on_c, 0, 50, 0
2,69481, Note_on_c, 0, 54, 67
2,69575, Note_on_c, 0, 69, 72
2,69577, Note_on_c, 0, 54, 0
2,69591, Note_on_c, 0, 49, 62
2,69635, Note_on_c, 0, 69, 0
2,69663, Note_on_c, 0, 49, 0
2,69692, Note_on_c, 0, 54, 62
2,69807, Note_on_c, 0, 54, 0
2,69820, Note_on_c, 0, 47, 61
2,69825, Note_on_c, 0, 67, 78
2,69838, Note_on_c, 0, 66, 0
2,69907, Note_on_c, 0, 47, 0
2,69932, Note_on_c, 0, 54, 63
2,69944, Note_on_c, 0, 64, 66
2,70034, Note_on_c, 0, 54, 0
2,70053, Note_on_c, 0, 64, 0
2,70056, Note_on_c, 0, 45, 60
2,70057, Note_on_c, 0, 62, 76
2,70128, Note_on_c, 0, 45, 0
2,70155, Note_on_c, 0, 54, 72
2,70168, Note_on_c, 0, 62, 0
2,70175, Note_on_c, 0, 61, 73
2,70270, Note_on_c, 0, 54, 0
2,70296, Note_on_c, 0, 59, 73
2,70296, Note_on_c, 0, 61, 0
2,70305, Note_on_c, 0, 43, 53
2,70360, Note_on_c, 0, 43, 0
2,70398, Note_on_c, 0, 54, 61
2,70411, Note_on_c, 0, 59, 0
2,70413, Note_on_c, 0, 62, 72
2,70430, Note_on_c, 0, 67, 0
2,70476, Note_on_c, 0, 54, 0
2,70538, Note_on_c, 0, 52, 61
2,70540, Note_on_c, 0, 61, 81
2,70564, Note_on_c, 0, 62, 0
2,70644, Note_on_c, 0, 61, 0
2,70645, Note_on_c, 0, 52, 0
2,70651, Note_on_c, 0, 62, 75
2,70658, Note_on_c, 0, 50, 60
2,70758, Note_on_c, 0, 50, 0
2,70769, Note_on_c, 0, 64, 86
2,70770, Note_on_c, 0, 49, 68
2,70779, Note_on_c, 0, 62, 0
2,70839, Note_on_c, 0, 49, 0
2,70887, Note_on_c, 0, 52, 55
2,70992, Note_on_c, 0, 52, 0
2,71006, Note_on_c, 0, 47, 58
2,71006, Note_on_c, 0, 67, 69
2,71034, Note_on_c, 0, 67, 0
2,71061, Note_on_c, 0, 47, 0
2,71125, Note_on_c, 0, 52, 51
2,71235, Note_on_c, 0, 52, 0
2,71247, Note_on_c, 0, 46, 62
2,71250, Note_on_c, 0, 66, 73
2,71270, Note_on_c, 0, 64, 0
2,71323, Note_on_c, 0, 46, 0
2,71366, Note_on_c, 0, 52, 60
2,71372, Note_on_c, 0, 62, 76
2,71465, Note_on_c, 0, 52, 0
2,71479, Note_on_c, 0, 62, 0
2,71482, Note_on_c, 0, 44, 61
2,71491, Note_on_c, 0, 61, 71
2,71555, Note_on_c, 0, 44, 0
2,71581, Note_on_c, 0, 61, 0
2,71592, Note_on_c, 0, 52, 56
2,71599, Note_on_c, 0, 59, 71
2,71699, Note_on_c, 0, 59, 0
2,71702, Note_on_c, 0, 52, 0
2,71708, Note_on_c, 0, 42, 64
2,71716, Note_on_c, 0, 58, 69
2,71780, Note_on_c, 0, 42, 0
2,71816, Note_on_c, 0, 66, 0
2,71818, Note_on_c, 0, 61, 66
2,71827, Note_on_c, 0, 58, 0
2,71831, Note_on_c, 0, 52, 58
2,71926, Note_on_c, 0, 52, 0
2,71929, Note_on_c, 0, 61, 0
2,71946, Note_on_c, 0, 50, 60
2,71949, Note_on_c, 0, 59, 56
2,71971, Note_on_c, 0, 59, 0
2,72033, Note_on_c, 0, 50, 0
2,72057, Note_on_c, 0, 54, 71
2,72082, Note_on_c, 0, 71, 73
2,72179, Note_on_c, 0, 54, 0
2,72191, Note_on_c, 0, 52, 68
2,72191, Note_on_c, 0, 71, 0
2,72191, Note_on_c, 0, 73, 75
2,72299, Note_on_c, 0, 52, 0
2,72300, Note_on_c, 0, 71, 86
2,72302, Note_on_c, 0, 50, 73
2,72327, Note_on_c, 0, 73, 0
2,72413, Note_on_c, 0, 49, 78
2,72415, Note_on_c, 0, 70, 80
2,72428, Note_on_c, 0, 50, 0
2,72452, Note_on_c, 0, 71, 0
2,72502, Note_on_c, 0, 49, 0
2,72518, Note_on_c, 0, 71, 86
2,72519, Note_on_c, 0, 70, 0
2,72524, Note_on_c, 0, 47, 70
2,72634, Note_on_c, 0, 47, 0
2,72644, Note_on_c, 0, 46, 66
2,72648, Note_on_c, 0, 73, 81
2,72656, Note_on_c, 0, 71, 0
2,72714, Note_on_c, 0, 73, 0
2,72743, Note_on_c, 0, 46, 0
2,72758, Note_on_c, 0, 49, 80
2,72880, Note_on_c, 0, 74, 78
2,72881, Note_on_c, 0, 49, 0
2,72882, Note_on_c, 0, 47, 74
2,72994, Note_on_c, 0, 73, 85
2,72996, Note_on_c, 0, 46, 77
2,73020, Note_on_c, 0, 47, 0
2,73033, Note_on_c, 0, 74, 0
2,73107, Note_on_c, 0, 46, 0
2,73115, Note_on_c, 0, 71, 89
2,73118, Note_on_c, 0, 44, 78
2,73148, Note_on_c, 0, 73, 0
2,73222, Note_on_c, 0, 73, 76
2,73229, Note_on_c, 0, 42, 75
2,73231, Note_on_c, 0, 44, 0
2,73234, Note_on_c, 0, 71, 0
2,73345, Note_on_c, 0, 74, 77
2,73355, Note_on_c, 0, 47, 76
2,73358, Note_on_c, 0, 42, 0
2,73396, Note_on_c, 0, 73, 0
2,73433, Note_on_c, 0, 74, 0
2,73436, Note_on_c, 0, 47, 0
2,73607, Note_on_c, 0, 73, 80
2,73618, Note_on_c, 0, 49, 76
2,73679, Note_on_c, 0, 73, 0
2,73718, Note_on_c, 0, 47, 73
2,73733, Note_on_c, 0, 49, 0
2,73835, Note_on_c, 0, 47, 0
2,73843, Note_on_c, 0, 46, 77
2,73849, Note_on_c, 0, 71, 86
2,73895, Note_on_c, 0, 71, 0
2,73955, Note_on_c, 0, 47, 78
2,74029, Note_on_c, 0, 46, 0
2,74075, Note_on_c, 0, 47, 0
2,74079, Note_on_c, 0, 49, 77
2,74081, Note_on_c, 0, 70, 78
2,74142, Note_on_c, 0, 70, 0
2,74165, Note_on_c, 0, 49, 0
2,74333, Note_on_c, 0, 79, 91
2,74345, Note_on_c, 0, 50, 73
2,74456, Note_on_c, 0, 49, 76
2,74468, Note_on_c, 0, 50, 0
2,74574, Note_on_c, 0, 47, 80
2,74591, Note_on_c, 0, 49, 0
2,74696, Note_on_c, 0, 49, 80
2,74708, Note_on_c, 0, 47, 0
2,74801, Note_on_c, 0, 78, 82
2,74816, Note_on_c, 0, 49, 0
2,74817, Note_on_c, 0, 50, 83
2,74834, Note_on_c, 0, 79, 0
2,74871, Note_on_c, 0, 50, 0
2,74879, Note_on_c, 0, 78, 0
2,75054, Note_on_c, 0, 79, 88
2,75057, Note_on_c, 0, 49, 79
2,75115, Note_on_c, 0, 49, 0
2,75170, Note_on_c, 0, 78, 84
2,75215, Note_on_c, 0, 79, 0
2,75301, Note_on_c, 0, 47, 73
2,75304, Note_on_c, 0, 76, 84
2,75349, Note_on_c, 0, 47, 0
2,75362, Note_on_c, 0, 78, 0
2,75393, Note_on_c, 0, 76, 0
2,75399, Note_on_c, 0, 74, 89
2,75533, Note_on_c, 0, 46, 71
2,75533, Note_on_c, 0, 73, 81
2,75568, Note_on_c, 0, 74, 0
2,75570, Note_on_c, 0, 46, 0
2,75628, Note_on_c, 0, 73, 0
2,75823, Note_on_c, 0, 76, 70
2,75825, Note_on_c, 0, 55, 83
2,75946, Note_on_c, 0, 74, 68
2,76071, Note_on_c, 0, 76, 0
2,76074, Note_on_c, 0, 73, 71
2,76113, Note_on_c, 0, 74, 0
2,76173, Note_on_c, 0, 73, 0
2,76181, Note_on_c, 0, 71, 75
2,76303, Note_on_c, 0, 70, 71
2,76304, Note_on_c, 0, 54, 61
2,76309, Note_on_c, 0, 71, 0
2,76314, Note_on_c, 0, 55, 0
2,76400, Note_on_c, 0, 70, 0
2,76420, Note_on_c, 0, 71, 68
2,76422, Note_on_c, 0, 54, 0
2,76427, Note_on_c, 0, 56, 62
2,76527, Note_on_c, 0, 56, 0
2,76533, Note_on_c, 0, 71, 0
2,76540, Note_on_c, 0, 73, 72
2,76555, Note_on_c, 0, 58, 60
2,76641, Note_on_c, 0, 58, 0
2,76649, Note_on_c, 0, 73, 0
2,76667, Note_on_c, 0, 54, 62
2,76667, Note_on_c, 0, 70, 62
2,76748, Note_on_c, 0, 54, 0
2,76773, Note_on_c, 0, 70, 0
2,76790, Note_on_c, 0, 74, 68
2,76799, Note_on_c, 0, 59, 60
2,76879, Note_on_c, 0, 74, 0
2,76883, Note_on_c, 0, 59, 0
2,76901, Note_on_c, 0, 70, 61
2,76906, Note_on_c, 0, 54, 52
2,77000, Note_on_c, 0, 54, 0
2,77012, Note_on_c, 0, 70, 0
2,77019, Note_on_c, 0, 76, 74
2,77025, Note_on_c, 0, 61, 64
2,77102, Note_on_c, 0, 76, 0
2,77108, Note_on_c, 0, 61, 0
2,77136, Note_on_c, 0, 54, 52
2,77137, Note_on_c, 0, 70, 61
2,77221, Note_on_c, 0, 54, 0
2,77241, Note_on_c, 0, 70, 0
2,77252, Note_on_c, 0, 78, 73
2,77258, Note_on_c, 0, 62, 63
2,77341, Note_on_c, 0, 62, 0
2,77344, Note_on_c, 0, 78, 0
2,77365, Note_on_c, 0, 70, 65
2,77369, Note_on_c, 0, 54, 51
2,77468, Note_on_c, 0, 54, 0
2,77478, Note_on_c, 0, 70, 0
2,77494, Note_on_c, 0, 79, 68
2,77502, Note_on_c, 0, 64, 66
2,77576, Note_on_c, 0, 64, 0
2,77590, Note_on_c, 0, 79, 0
2,77604, Note_on_c, 0, 54, 62
2,77606, Note_on_c, 0, 70, 60
2,77685, Note_on_c, 0, 54, 0
2,77712, Note_on_c, 0, 70, 0
2,77728, Note_on_c, 0, 78, 73
2,77732, Note_on_c, 0, 62, 58
2,77819, Note_on_c, 0, 62, 0
2,77835, Note_on_c, 0, 78, 0
2,77839, Note_on_c, 0, 70, 65
2,77842, Note_on_c, 0, 54, 56
2,77941, Note_on_c, 0, 70, 0
2,77945, Note_on_c, 0, 54, 0
2,77958, Note_on_c, 0, 71, 67
2,77961, Note_on_c, 0, 56, 56
2,78015, Note_on_c, 0, 56, 0
2,78026, Note_on_c, 0, 71, 0
2,78064, Note_on_c, 0, 62, 62
2,78068, Note_on_c, 0, 78, 64
2,78153, Note_on_c, 0, 62, 0
2,78173, Note_on_c, 0, 78, 0
2,78180, Note_on_c, 0, 61, 65
2,78186, Note_on_c, 0, 76, 63
2,78226, Note_on_c, 0, 61, 0
2,78232, Note_on_c, 0, 59, 62
2,78232, Note_on_c, 0, 74, 72
2,78238, Note_on_c, 0, 76, 0
2,78270, Note_on_c, 0, 59, 0
2,78285, Note_on_c, 0, 74, 0
2,78288, Note_on_c, 0, 58, 62
2,78296, Note_on_c, 0, 73, 71
2,78337, Note_on_c, 0, 59, 65
2,78338, Note_on_c, 0, 58, 0
2,78346, Note_on_c, 0, 74, 65
2,78350, Note_on_c, 0, 73, 0
2,78369, Note_on_c, 0, 59, 0
2,78398, Note_on_c, 0, 74, 0
2,78407, Note_on_c, 0, 61, 72
2,78413, Note_on_c, 0, 76, 72
2,78491, Note_on_c, 0, 61, 0
2,78515, Note_on_c, 0, 76, 0
2,78526, Note_on_c, 0, 52, 54
2,78527, Note_on_c, 0, 68, 66
2,78627, Note_on_c, 0, 68, 0
2,78633, Note_on_c, 0, 52, 0
2,78638, Note_on_c, 0, 70, 66
2,78644, Note_on_c, 0, 54, 66
2,78711, Note_on_c, 0, 54, 0
2,78734, Note_on_c, 0, 70, 0
2,78754, Note_on_c, 0, 76, 59
2,78755, Note_on_c, 0, 61, 57
2,78832, Note_on_c, 0, 61, 0
2,78852, Note_on_c, 0, 76, 0
2,78862, Note_on_c, 0, 74, 69
2,78863, Note_on_c, 0, 59, 64
2,78900, Note_on_c, 0, 58, 73
2,78900, Note_on_c, 0, 59, 0
2,78908, Note_on_c, 0, 73, 65
2,78916, Note_on_c, 0, 74, 0
2,78967, Note_on_c, 0, 58, 0
2,78974, Note_on_c, 0, 56, 66
2,78980, Note_on_c, 0, 73, 0
2,78982, Note_on_c, 0, 71, 64
2,79021, Note_on_c, 0, 73, 66
2,79022, Note_on_c, 0, 58, 59
2,79039, Note_on_c, 0, 71, 0
2,79043, Note_on_c, 0, 56, 0
2,79080, Note_on_c, 0, 58, 0
2,79102, Note_on_c, 0, 73, 0
2,79103, Note_on_c, 0, 74, 78
2,79115, Note_on_c, 0, 59, 67
2,79204, Note_on_c, 0, 59, 0
2,79217, Note_on_c, 0, 61, 65
2,79312, Note_on_c, 0, 61, 0
2,79341, Note_on_c, 0, 62, 66
2,79443, Note_on_c, 0, 62, 0
2,79451, Note_on_c, 0, 59, 62
2,79538, Note_on_c, 0, 59, 0
2,79576, Note_on_c, 0, 64, 70
2,79687, Note_on_c, 0, 59, 65
2,79691, Note_on_c, 0, 64, 0
2,79798, Note_on_c, 0, 59, 0
2,79822, Note_on_c, 0, 66, 66
2,79924, Note_on_c, 0, 66, 0
2,79938, Note_on_c, 0, 59, 65
2,80034, Note_on_c, 0, 59, 0
2,80058, Note_on_c, 0, 68, 64
2,80138, Note_on_c, 0, 68, 0
2,80183, Note_on_c, 0, 59, 56
2,80288, Note_on_c, 0, 59, 0
2,80297, Note_on_c, 0, 69, 58
2,80314, Note_on_c, 0, 47, 48
2,80383, Note_on_c, 0, 69, 0
2,80390, Note_on_c, 0, 47, 0
2,80427, Note_on_c, 0, 59, 55
2,80538, Note_on_c, 0, 59, 0
2,80544, Note_on_c, 0, 68, 62
2,80565, Note_on_c, 0, 52, 51
2,80634, Note_on_c, 0, 68, 0
2,80661, Note_on_c, 0, 54, 65
2,80662, Note_on_c, 0, 52, 0
2,80780, Note_on_c, 0, 54, 0
2,80781, Note_on_c, 0, 64, 78
2,80782, Note_on_c, 0, 56, 67
2,80871, Note_on_c, 0, 64, 0
2,80901, Note_on_c, 0, 56, 0
2,80905, Note_on_c, 0, 52, 68
2,80996, Note_on_c, 0, 52, 0
2,81014, Note_on_c, 0, 66, 79
2,81017, Note_on_c, 0, 57, 75
2,81103, Note_on_c, 0, 66, 0
2,81133, Note_on_c, 0, 52, 70
2,81136, Note_on_c, 0, 57, 0
2,81246, Note_on_c, 0, 52, 0
2,81251, Note_on_c, 0, 68, 80
2,81254, Note_on_c, 0, 59, 74
2,81348, Note_on_c, 0, 68, 0
2,81382, Note_on_c, 0, 52, 65
2,81392, Note_on_c, 0, 59, 0
2,81501, Note_on_c, 0, 69, 88
2,81502, Note_on_c, 0, 61, 76
2,81509, Note_on_c, 0, 52, 0
2,81589, Note_on_c, 0, 69, 0
2,81614, Note_on_c, 0, 61, 0
2,81624, Note_on_c, 0, 52, 69
2,81714, Note_on_c, 0, 52, 0
2,81735, Note_on_c, 0, 62, 81
2,81740, Note_on_c, 0, 71, 81
2,81805, Note_on_c, 0, 71, 0
2,81858, Note_on_c, 0, 52, 68
2,81868, Note_on_c, 0, 62, 0
2,81987, Note_on_c, 0, 52, 0
2,81987, Note_on_c, 0, 61, 85
2,81996, Note_on_c, 0, 64, 71
2,82109, Note_on_c, 0, 64, 0
2,82110, Note_on_c, 0, 74, 0
2,82128, Note_on_c, 0, 66, 59
2,82171, Note_on_c, 0, 68, 65
2,82209, Note_on_c, 0, 66, 0
2,82238, Note_on_c, 0, 69, 64
2,82257, Note_on_c, 0, 68, 0
2,82346, Note_on_c, 0, 69, 0
2,82358, Note_on_c, 0, 61, 0
2,82375, Note_on_c, 0, 64, 72
2,82378, Note_on_c, 0, 62, 68
2,82497, Note_on_c, 0, 61, 79
2,82498, Note_on_c, 0, 71, 70
2,82501, Note_on_c, 0, 64, 0
2,82503, Note_on_c, 0, 62, 0
2,82594, Note_on_c, 0, 71, 0
2,82614, Note_on_c, 0, 59, 75
2,82622, Note_on_c, 0, 64, 70
2,82642, Note_on_c, 0, 61, 0
2,82736, Note_on_c, 0, 57, 77
2,82736, Note_on_c, 0, 73, 71
2,82737, Note_on_c, 0, 59, 0
2,82744, Note_on_c, 0, 64, 0
2,82849, Note_on_c, 0, 57, 0
2,82855, Note_on_c, 0, 59, 80
2,82867, Note_on_c, 0, 64, 77
2,82868, Note_on_c, 0, 73, 0
2,82956, Note_on_c, 0, 59, 0
2,82969, Note_on_c, 0, 57, 80
2,82978, Note_on_c, 0, 64, 0
2,82985, Note_on_c, 0, 74, 74
2,83085, Note_on_c, 0, 57, 0
2,83088, Note_on_c, 0, 55, 77
2,83091, Note_on_c, 0, 66, 72
2,83105, Note_on_c, 0, 74, 0
2,83205, Note_on_c, 0, 54, 74
2,83207, Note_on_c, 0, 49, 70
2,83210, Note_on_c, 0, 66, 0
2,83214, Note_on_c, 0, 76, 78
2,83216, Note_on_c, 0, 55, 0
2,83291, Note_on_c, 0, 54, 0
2,83296, Note_on_c, 0, 49, 0
2,83310, Note_on_c, 0, 76, 0
2,83326, Note_on_c, 0, 52, 78
2,83326, Note_on_c, 0, 67, 75
2,83441, Note_on_c, 0, 67, 0
2,83452, Note_on_c, 0, 66, 74
2,83457, Note_on_c, 0, 50, 85
2,83461, Note_on_c, 0, 52, 0
2,83555, Note_on_c, 0, 66, 0
2,83588, Note_on_c, 0, 67, 64
2,83626, Note_on_c, 0, 67, 0
2,83658, Note_on_c, 0, 69, 61
2,83703, Note_on_c, 0, 71, 82
2,83716, Note_on_c, 0, 69, 0
2,83782, Note_on_c, 0, 71, 0
2,83816, Note_on_c, 0, 50, 0
2,83827, Note_on_c, 0, 52, 75
2,83830, Note_on_c, 0, 66, 86
2,83943, Note_on_c, 0, 50, 81
2,83948, Note_on_c, 0, 73, 84
2,83960, Note_on_c, 0, 66, 0
2,83967, Note_on_c, 0, 52, 0
2,84051, Note_on_c, 0, 73, 0
2,84059, Note_on_c, 0, 49, 79
2,84059, Note_on_c, 0, 66, 86
2,84087, Note_on_c, 0, 50, 0
2,84168, Note_on_c, 0, 74, 80
2,84178, Note_on_c, 0, 47, 79
2,84178, Note_on_c, 0, 49, 0
2,84182, Note_on_c, 0, 66, 0
2,84286, Note_on_c, 0, 47, 0
2,84288, Note_on_c, 0, 66, 87
2,84291, Note_on_c, 0, 74, 0
2,84292, Note_on_c, 0, 49, 79
2,84400, Note_on_c, 0, 49, 0
2,84409, Note_on_c, 0, 76, 80
2,84412, Note_on_c, 0, 66, 0
2,84413, Note_on_c, 0, 47, 79
2,84499, Note_on_c, 0, 76, 0
2,84522, Note_on_c, 0, 45, 79
2,84524, Note_on_c, 0, 67, 80
2,84525, Note_on_c, 0, 47, 0
2,84626, Note_on_c, 0, 67, 0
2,84629, Note_on_c, 0, 43, 78
2,84644, Note_on_c, 0, 78, 85
2,84654, Note_on_c, 0, 45, 0
2,84733, Note_on_c, 0, 78, 0
2,84738, Note_on_c, 0, 43, 0
2,84740, Note_on_c, 0, 42, 77
2,84753, Note_on_c, 0, 69, 78
2,84870, Note_on_c, 0, 40, 70
2,84870, Note_on_c, 0, 42, 0
2,84873, Note_on_c, 0, 69, 0
2,84876, Note_on_c, 0, 67, 79
2,84928, Note_on_c, 0, 40, 0
2,84981, Note_on_c, 0, 66, 84
2,85003, Note_on_c, 0, 67, 0
2,85098, Note_on_c, 0, 66, 0
2,85116, Note_on_c, 0, 67, 87
2,85122, Note_on_c, 0, 50, 87
2,85180, Note_on_c, 0, 50, 0
2,85233, Note_on_c, 0, 71, 81
2,85236, Note_on_c, 0, 67, 0
2,85352, Note_on_c, 0, 49, 80
2,85352, Note_on_c, 0, 71, 0
2,85360, Note_on_c, 0, 76, 77
2,85439, Note_on_c, 0, 49, 0
2,85475, Note_on_c, 0, 67, 81
2,85479, Note_on_c, 0, 76, 0
2,85592, Note_on_c, 0, 50, 84
2,85592, Note_on_c, 0, 66, 78
2,85601, Note_on_c, 0, 67, 0
2,85703, Note_on_c, 0, 71, 79
2,85704, Note_on_c, 0, 50, 0
2,85711, Note_on_c, 0, 66, 0
2,85831, Note_on_c, 0, 71, 0
2,85840, Note_on_c, 0, 52, 78
2,85843, Note_on_c, 0, 69, 79
2,85957, Note_on_c, 0, 50, 83
2,85957, Note_on_c, 0, 52, 0
2,85960, Note_on_c, 0, 73, 84
2,85968, Note_on_c, 0, 69, 0
2,86081, Note_on_c, 0, 49, 74
2,86081, Note_on_c, 0, 74, 84
2,86086, Note_on_c, 0, 47, 73
2,86095, Note_on_c, 0, 50, 0
2,86119, Note_on_c, 0, 73, 0
2,86190, Note_on_c, 0, 47, 0
2,86205, Note_on_c, 0, 50, 86
2,86219, Note_on_c, 0, 49, 0
2,86335, Note_on_c, 0, 50, 0
2,86336, Note_on_c, 0, 52, 81
2,86337, Note_on_c, 0, 43, 76
2,86439, Note_on_c, 0, 43, 0
2,86443, Note_on_c, 0, 52, 0
2,86446, Note_on_c, 0, 74, 0
2,86601, Note_on_c, 0, 54, 82
2,86602, Note_on_c, 0, 73, 85
2,86613, Note_on_c, 0, 45, 67
2,86722, Note_on_c, 0, 52, 77
2,86728, Note_on_c, 0, 54, 0
2,86839, Note_on_c, 0, 50, 79
2,86855, Note_on_c, 0, 52, 0
2,86955, Note_on_c, 0, 50, 0
2,86955, Note_on_c, 0, 52, 80
2,87075, Note_on_c, 0, 74, 76
2,87078, Note_on_c, 0, 45, 0
2,87080, Note_on_c, 0, 50, 73
2,87080, Note_on_c, 0, 54, 84
2,87085, Note_on_c, 0, 52, 0
2,87138, Note_on_c, 0, 73, 0
2,87152, Note_on_c, 0, 50, 0
2,87155, Note_on_c, 0, 54, 0
2,87160, Note_on_c, 0, 74, 0
2,87328, Note_on_c, 0, 52, 80
2,87335, Note_on_c, 0, 49, 69
2,87336, Note_on_c, 0, 76, 85
2,87378, Note_on_c, 0, 49, 0
2,87379, Note_on_c, 0, 52, 0
2,87455, Note_on_c, 0, 74, 84
2,87494, Note_on_c, 0, 76, 0
2,87577, Note_on_c, 0, 73, 93
2,87579, Note_on_c, 0, 47, 69
2,87579, Note_on_c, 0, 50, 77
2,87610, Note_on_c, 0, 74, 0
2,87643, Note_on_c, 0, 47, 0
2,87643, Note_on_c, 0, 50, 0
2,87693, Note_on_c, 0, 74, 84
2,87712, Note_on_c, 0, 73, 0
2,87818, Note_on_c, 0, 49, 71
2,87820, Note_on_c, 0, 76, 81
2,87833, Note_on_c, 0, 45, 71
2,87859, Note_on_c, 0, 74, 0
2,87890, Note_on_c, 0, 76, 0
2,87900, Note_on_c, 0, 49, 0
2,88110, Note_on_c, 0, 59, 84
2,88110, Note_on_c, 0, 78, 82
2,88241, Note_on_c, 0, 76, 80
2,88308, Note_on_c, 0, 78, 0
2,88365, Note_on_c, 0, 74, 80
2,88368, Note_on_c, 0, 76, 0
2,88478, Note_on_c, 0, 76, 80
2,88505, Note_on_c, 0, 74, 0
2,88600, Note_on_c, 0, 78, 81
2,88602, Note_on_c, 0, 59, 0
2,88615, Note_on_c, 0, 57, 66
2,88635, Note_on_c, 0, 76, 0
2,88698, Note_on_c, 0, 57, 0
2,88722, Note_on_c, 0, 78, 0
2,88866, Note_on_c, 0, 59, 66
2,88866, Note_on_c, 0, 79, 86
2,88985, Note_on_c, 0, 78, 86
2,88990, Note_on_c, 0, 59, 0
2,88996, Note_on_c, 0, 57, 74
2,89028, Note_on_c, 0, 79, 0
2,89071, Note_on_c, 0, 57, 0
2,89106, Note_on_c, 0, 76, 88
2,89110, Note_on_c, 0, 55, 78
2,89156, Note_on_c, 0, 78, 0
2,89209, Note_on_c, 0, 76, 0
2,89215, Note_on_c, 0, 54, 75
2,89215, Note_on_c, 0, 55, 0
2,89215, Note_on_c, 0, 74, 82
2,89340, Note_on_c, 0, 54, 0
2,89343, Note_on_c, 0, 73, 84
2,89348, Note_on_c, 0, 52, 62
2,89375, Note_on_c, 0, 74, 0
2,89389, Note_on_c, 0, 52, 0
2,89415, Note_on_c, 0, 73, 0
2,89606, Note_on_c, 0, 83, 90
2,89615, Note_on_c, 0, 55, 62
2,89720, Note_on_c, 0, 54, 78
2,89727, Note_on_c, 0, 55, 0
2,89825, Note_on_c, 0, 54, 0
2,89847, Note_on_c, 0, 52, 79
2,89970, Note_on_c, 0, 50, 76
2,89970, Note_on_c, 0, 52, 0
2,90089, Note_on_c, 0, 49, 74
2,90110, Note_on_c, 0, 50, 0
2,90194, Note_on_c, 0, 83, 0
2,90199, Note_on_c, 0, 81, 79
2,90330, Note_on_c, 0, 83, 78
2,90342, Note_on_c, 0, 81, 0
2,90446, Note_on_c, 0, 81, 82
2,90456, Note_on_c, 0, 83, 0
2,90577, Note_on_c, 0, 79, 80
2,90582, Note_on_c, 0, 49, 0
2,90586, Note_on_c, 0, 50, 67
2,90600, Note_on_c, 0, 81, 0
2,90691, Note_on_c, 0, 78, 78
2,90703, Note_on_c, 0, 79, 0
2,90749, Note_on_c, 0, 78, 0
2,90759, Note_on_c, 0, 50, 0
2,90832, Note_on_c, 0, 78, 68
2,90868, Note_on_c, 0, 78, 0
2,90887, Note_on_c, 0, 76, 70
2,90920, Note_on_c, 0, 76, 0
2,90943, Note_on_c, 0, 78, 69
2,90970, Note_on_c, 0, 55, 53
2,90980, Note_on_c, 0, 78, 0
2,90991, Note_on_c, 0, 54, 78
2,91000, Note_on_c, 0, 76, 71
2,91001, Note_on_c, 0, 55, 0
2,91029, Note_on_c, 0, 76, 0
2,91046, Note_on_c, 0, 78, 70
2,91070, Note_on_c, 0, 52, 61
2,91070, Note_on_c, 0, 54, 0
2,91084, Note_on_c, 0, 78, 0
2,91101, Note_on_c, 0, 76, 68
2,91129, Note_on_c, 0, 52, 0
2,91138, Note_on_c, 0, 76, 0
2,91151, Note_on_c, 0, 78, 70
2,91162, Note_on_c, 0, 55, 64
2,91188, Note_on_c, 0, 78, 0
2,91223, Note_on_c, 0, 76, 58
2,91253, Note_on_c, 0, 76, 0
2,91260, Note_on_c, 0, 55, 0
2,91268, Note_on_c, 0, 78, 55
2,91269, Note_on_c, 0, 50, 65
2,91294, Note_on_c, 0, 78, 0
2,91328, Note_on_c, 0, 76, 58
2,91336, Note_on_c, 0, 50, 0
2,91348, Note_on_c, 0, 76, 0
2,91375, Note_on_c, 0, 78, 53
2,91388, Note_on_c, 0, 55, 53
2,91399, Note_on_c, 0, 78, 0
2,91427, Note_on_c, 0, 76, 52
2,91450, Note_on_c, 0, 76, 0
2,91470, Note_on_c, 0, 78, 49
2,91492, Note_on_c, 0, 55, 0
2,91494, Note_on_c, 0, 49, 66
2,91494, Note_on_c, 0, 78, 0
2,91529, Note_on_c, 0, 76, 45
2,91535, Note_on_c, 0, 45, 0
2,91554, Note_on_c, 0, 76, 0
2,91566, Note_on_c, 0, 78, 63
2,91567, Note_on_c, 0, 49, 0
2,91589, Note_on_c, 0, 78, 0
2,91613, Note_on_c, 0, 55, 58
2,91624, Note_on_c, 0, 76, 50
2,91647, Note_on_c, 0, 76, 0
2,91662, Note_on_c, 0, 78, 59
2,91685, Note_on_c, 0, 78, 0
2,91712, Note_on_c, 0, 55, 0
2,91719, Note_on_c, 0, 76, 60
2,91726, Note_on_c, 0, 47, 75
2,91738, Note_on_c, 0, 76, 0
2,91753, Note_on_c, 0, 78, 64
2,91778, Note_on_c, 0, 78, 0
2,91798, Note_on_c, 0, 47, 0
2,91806, Note_on_c, 0, 76, 65
2,91834, Note_on_c, 0, 55, 63
2,91836, Note_on_c, 0, 76, 0
2,91852, Note_on_c, 0, 78, 64
2,91873, Note_on_c, 0, 78, 0
2,91899, Note_on_c, 0, 76, 67
2,91933, Note_on_c, 0, 76, 0
2,91943, Note_on_c, 0, 78, 71
2,91950, Note_on_c, 0, 55, 0
2,91963, Note_on_c, 0, 45, 75
2,91974, Note_on_c, 0, 78, 0
2,91990, Note_on_c, 0, 76, 65
2,92033, Note_on_c, 0, 76, 0
2,92042, Note_on_c, 0, 45, 0
2,92052, Note_on_c, 0, 78, 69
2,92073, Note_on_c, 0, 55, 67
2,92092, Note_on_c, 0, 78, 0
2,92107, Note_on_c, 0, 76, 64
2,92141, Note_on_c, 0, 78, 64
2,92146, Note_on_c, 0, 76, 0
2,92196, Note_on_c, 0, 55, 0
2,92202, Note_on_c, 0, 54, 77
2,92202, Note_on_c, 0, 78, 0
2,92324, Note_on_c, 0, 54, 0
2,92324, Note_on_c, 0, 55, 81
2,92327, Note_on_c, 0, 81, 72
2,92367, Note_on_c, 0, 79, 77
2,92405, Note_on_c, 0, 81, 0
2,92422, Note_on_c, 0, 55, 0
2,92430, Note_on_c, 0, 57, 83
2,92439, Note_on_c, 0, 78, 75
2,92454, Note_on_c, 0, 79, 0
2,92564, Note_on_c, 0, 81, 71
2,92566, Note_on_c, 0, 52, 71
2,92569, Note_on_c, 0, 78, 0
2,92682, Note_on_c, 0, 50, 78
2,92688, Note_on_c, 0, 76, 76
2,92697, Note_on_c, 0, 81, 0
2,92700, Note_on_c, 0, 52, 0
2,92721, Note_on_c, 0, 57, 0
2,92805, Note_on_c, 0, 76, 0
2,92807, Note_on_c, 0, 49, 80
2,92808, Note_on_c, 0, 50, 0
2,92813, Note_on_c, 0, 81, 72
2,92926, Note_on_c, 0, 47, 78
2,92939, Note_on_c, 0, 49, 0
2,92941, Note_on_c, 0, 81, 0
2,92943, Note_on_c, 0, 74, 73
2,93041, Note_on_c, 0, 55, 69
2,93046, Note_on_c, 0, 74, 0
2,93066, Note_on_c, 0, 81, 59
2,93161, Note_on_c, 0, 54, 75
2,93162, Note_on_c, 0, 55, 0
2,93165, Note_on_c, 0, 81, 0
2,93174, Note_on_c, 0, 73, 69
2,93268, Note_on_c, 0, 73, 0
2,93278, Note_on_c, 0, 52, 74
2,93288, Note_on_c, 0, 81, 65
2,93296, Note_on_c, 0, 54, 0
2,93396, Note_on_c, 0, 52, 0
2,93403, Note_on_c, 0, 50, 73
2,93403, Note_on_c, 0, 81, 0
2,93413, Note_on_c, 0, 71, 75
2,93513, Note_on_c, 0, 54, 78
2,93513, Note_on_c, 0, 71, 0
2,93524, Note_on_c, 0, 81, 70
2,93529, Note_on_c, 0, 50, 0
2,93648, Note_on_c, 0, 52, 80
2,93651, Note_on_c, 0, 79, 73
2,93654, Note_on_c, 0, 54, 0
2,93665, Note_on_c, 0, 81, 0
2,93678, Note_on_c, 0, 47, 0
2,93761, Note_on_c, 0, 78, 68
2,93763, Note_on_c, 0, 52, 0
2,93763, Note_on_c, 0, 54, 84
2,93773, Note_on_c, 0, 79, 0
2,93872, Note_on_c, 0, 54, 0
2,93879, Note_on_c, 0, 55, 79
2,93880, Note_on_c, 0, 76, 70
2,93909, Note_on_c, 0, 78, 0
2,93985, Note_on_c, 0, 76, 0
2,93988, Note_on_c, 0, 79, 64
2,94007, Note_on_c, 0, 50, 74
2,94107, Note_on_c, 0, 79, 0
2,94114, Note_on_c, 0, 74, 63
2,94126, Note_on_c, 0, 49, 71
2,94157, Note_on_c, 0, 50, 0
2,94184, Note_on_c, 0, 55, 0
2,94233, Note_on_c, 0, 74, 0
2,94233, Note_on_c, 0, 79, 69
2,94241, Note_on_c, 0, 49, 0
2,94249, Note_on_c, 0, 47, 72
2,94368, Note_on_c, 0, 45, 75
2,94369, Note_on_c, 0, 47, 0
2,94374, Note_on_c, 0, 73, 74
2,94376, Note_on_c, 0, 79, 0
2,94492, Note_on_c, 0, 79, 72
2,94493, Note_on_c, 0, 54, 76
2,94493, Note_on_c, 0, 73, 0
2,94607, Note_on_c, 0, 79, 0
2,94608, Note_on_c, 0, 71, 73
2,94612, Note_on_c, 0, 52, 78
2,94614, Note_on_c, 0, 54, 0
2,94704, Note_on_c, 0, 71, 0
2,94723, Note_on_c, 0, 79, 71
2,94728, Note_on_c, 0, 50, 78
2,94734, Note_on_c, 0, 52, 0
2,94828, Note_on_c, 0, 79, 0
2,94841, Note_on_c, 0, 49, 78
2,94850, Note_on_c, 0, 69, 65
2,94862, Note_on_c, 0, 50, 0
2,94928, Note_on_c, 0, 69, 0
2,94948, Note_on_c, 0, 49, 0
2,94954, Note_on_c, 0, 79, 64
2,94956, Note_on_c, 0, 52, 75
2,95061, Note_on_c, 0, 79, 0
2,95068, Note_on_c, 0, 50, 77
2,95073, Note_on_c, 0, 78, 65
2,95077, Note_on_c, 0, 45, 0
2,95077, Note_on_c, 0, 52, 0
2,95188, Note_on_c, 0, 78, 0
2,95189, Note_on_c, 0, 76, 69
2,95193, Note_on_c, 0, 50, 0
2,95198, Note_on_c, 0, 52, 79
2,95296, Note_on_c, 0, 52, 0
2,95309, Note_on_c, 0, 54, 82
2,95316, Note_on_c, 0, 74, 66
2,95318, Note_on_c, 0, 76, 0
2,95431, Note_on_c, 0, 48, 74
2,95435, Note_on_c, 0, 78, 65
2,95436, Note_on_c, 0, 74, 0
2,95548, Note_on_c, 0, 78, 0
2,95554, Note_on_c, 0, 47, 71
2,95563, Note_on_c, 0, 72, 65
2,95591, Note_on_c, 0, 48, 0
2,95645, Note_on_c, 0, 54, 0
2,95668, Note_on_c, 0, 72, 0
2,95676, Note_on_c, 0, 45, 73
2,95679, Note_on_c, 0, 78, 68
2,95701, Note_on_c, 0, 47, 0
2,95775, Note_on_c, 0, 78, 0
2,95798, Note_on_c, 0, 43, 74
2,95800, Note_on_c, 0, 45, 0
2,95805, Note_on_c, 0, 71, 73
2,95890, Note_on_c, 0, 71, 0
2,95920, Note_on_c, 0, 78, 67
2,95924, Note_on_c, 0, 47, 72
2,96038, Note_on_c, 0, 78, 0
2,96045, Note_on_c, 0, 49, 75
2,96055, Note_on_c, 0, 69, 64
2,96140, Note_on_c, 0, 69, 0
2,96156, Note_on_c, 0, 50, 83
2,96159, Note_on_c, 0, 47, 0
2,96163, Note_on_c, 0, 78, 70
2,96181, Note_on_c, 0, 49, 0
2,96218, Note_on_c, 0, 43, 0
2,96264, Note_on_c, 0, 50, 0
2,96278, Note_on_c, 0, 52, 73
2,96286, Note_on_c, 0, 67, 66
2,96288, Note_on_c, 0, 78, 0
2,96377, Note_on_c, 0, 67, 0
2,96386, Note_on_c, 0, 54, 79
2,96394, Note_on_c, 0, 78, 71
2,96397, Note_on_c, 0, 52, 0
2,96499, Note_on_c, 0, 54, 0
2,96505, Note_on_c, 0, 55, 80
2,96505, Note_on_c, 0, 78, 0
2,96509, Note_on_c, 0, 76, 71
2,96613, Note_on_c, 0, 55, 0
2,96618, Note_on_c, 0, 76, 0
2,96621, Note_on_c, 0, 74, 71
2,96622, Note_on_c, 0, 57, 77
2,96753, Note_on_c, 0, 73, 75
2,96757, Note_on_c, 0, 55, 77
2,96760, Note_on_c, 0, 57, 0
2,96767, Note_on_c, 0, 74, 0
2,96860, Note_on_c, 0, 73, 0
2,96863, Note_on_c, 0, 76, 67
2,96868, Note_on_c, 0, 54, 78
2,96894, Note_on_c, 0, 55, 0
2,96967, Note_on_c, 0, 54, 0
2,96986, Note_on_c, 0, 76, 0
2,96992, Note_on_c, 0, 52, 74
2,97001, Note_on_c, 0, 71, 70
2,97090, Note_on_c, 0, 71, 0
2,97105, Note_on_c, 0, 76, 71
2,97107, Note_on_c, 0, 52, 0
2,97108, Note_on_c, 0, 50, 73
2,97201, Note_on_c, 0, 76, 0
2,97218, Note_on_c, 0, 50, 0
2,97221, Note_on_c, 0, 49, 71
2,97227, Note_on_c, 0, 69, 60
2,97309, Note_on_c, 0, 69, 0
2,97333, Note_on_c, 0, 49, 0
2,97337, Note_on_c, 0, 76, 63
2,97347, Note_on_c, 0, 45, 72
2,97444, Note_on_c, 0, 76, 0
2,97465, Note_on_c, 0, 47, 75
2,97467, Note_on_c, 0, 67, 66
2,97472, Note_on_c, 0, 45, 0
2,97553, Note_on_c, 0, 67, 0
2,97587, Note_on_c, 0, 76, 57
2,97595, Note_on_c, 0, 49, 77
2,97614, Note_on_c, 0, 47, 0
2,97683, Note_on_c, 0, 76, 0
2,97700, Note_on_c, 0, 49, 0
2,97704, Note_on_c, 0, 66, 73
2,97707, Note_on_c, 0, 50, 78
2,97796, Note_on_c, 0, 50, 0
2,97801, Note_on_c, 0, 66, 0
2,97817, Note_on_c, 0, 52, 75
2,97817, Note_on_c, 0, 76, 66
2,97925, Note_on_c, 0, 74, 74
2,97934, Note_on_c, 0, 54, 84
2,97947, Note_on_c, 0, 76, 0
2,97953, Note_on_c, 0, 52, 0
2,98047, Note_on_c, 0, 74, 0
2,98050, Note_on_c, 0, 66, 76
2,98056, Note_on_c, 0, 54, 0
2,98058, Note_on_c, 0, 55, 82
2,98178, Note_on_c, 0, 66, 0
2,98181, Note_on_c, 0, 55, 0
2,98181, Note_on_c, 0, 64, 79
2,98185, Note_on_c, 0, 57, 85
2,98308, Note_on_c, 0, 67, 78
2,98311, Note_on_c, 0, 64, 0
2,98318, Note_on_c, 0, 57, 0
2,98432, Note_on_c, 0, 45, 67
2,98438, Note_on_c, 0, 74, 66
2,98441, Note_on_c, 0, 67, 0
2,98546, Note_on_c, 0, 74, 0
2,98555, Note_on_c, 0, 45, 0
2,98560, Note_on_c, 0, 73, 63
2,98648, Note_on_c, 0, 73, 0
2,98704, Note_on_c, 0, 50, 61
2,98706, Note_on_c, 0, 74, 51
2,98749, Note_on_c, 0, 74, 0
2,98766, Note_on_c, 0, 76, 64
2,98816, Note_on_c, 0, 76, 0
2,98840, Note_on_c, 0, 74, 61
2,98868, Note_on_c, 0, 50, 0
2,98880, Note_on_c, 0, 74, 0
2,98895, Note_on_c, 0, 76, 63
2,98951, Note_on_c, 0, 76, 0
2,98960, Note_on_c, 0, 48, 77
2,98964, Note_on_c, 0, 74, 64
2,99008, Note_on_c, 0, 74, 0
2,99027, Note_on_c, 0, 76, 63
2,99071, Note_on_c, 0, 50, 78
2,99073, Note_on_c, 0, 48, 0
2,99073, Note_on_c, 0, 76, 0
2,99084, Note_on_c, 0, 74, 60
2,99128, Note_on_c, 0, 74, 0
2,99137, Note_on_c, 0, 76, 64
2,99170, Note_on_c, 0, 50, 0
2,99180, Note_on_c, 0, 52, 80
2,99184, Note_on_c, 0, 76, 0
2,99197, Note_on_c, 0, 74, 64
2,99238, Note_on_c, 0, 74, 0
2,99247, Note_on_c, 0, 76, 63
2,99289, Note_on_c, 0, 76, 0
2,99303, Note_on_c, 0, 74, 62
2,99304, Note_on_c, 0, 50, 77
2,99314, Note_on_c, 0, 52, 0
2,99349, Note_on_c, 0, 74, 0
2,99355, Note_on_c, 0, 76, 62
2,99393, Note_on_c, 0, 76, 0
2,99406, Note_on_c, 0, 74, 61
2,99435, Note_on_c, 0, 48, 80
2,99448, Note_on_c, 0, 74, 0
2,99462, Note_on_c, 0, 50, 0
2,99465, Note_on_c, 0, 76, 65
2,99496, Note_on_c, 0, 76, 0
2,99510, Note_on_c, 0, 74, 61
2,99550, Note_on_c, 0, 74, 0
2,99560, Note_on_c, 0, 76, 72
2,99562, Note_on_c, 0, 48, 0
2,99596, Note_on_c, 0, 76, 0
2,99618, Note_on_c, 0, 74, 55
2,99649, Note_on_c, 0, 74, 0
2,99667, Note_on_c, 0, 76, 50
2,99703, Note_on_c, 0, 76, 0
2,99706, Note_on_c, 0, 47, 74
2,99712, Note_on_c, 0, 74, 67
2,99821, Note_on_c, 0, 48, 77
2,99831, Note_on_c, 0, 47, 0
2,99924, Note_on_c, 0, 48, 0
2,99931, Note_on_c, 0, 50, 76
2,100058, Note_on_c, 0, 48, 76
2,100067, Note_on_c, 0, 50, 0
2,100186, Note_on_c, 0, 47, 75
2,100201, Note_on_c, 0, 48, 0
2,100275, Note_on_c, 0, 47, 0
2,100278, Note_on_c, 0, 67, 70
2,100397, Note_on_c, 0, 67, 0
2,100409, Note_on_c, 0, 48, 76
2,100409, Note_on_c, 0, 65, 69
2,100504, Note_on_c, 0, 48, 0
2,100531, Note_on_c, 0, 64, 78
2,100547, Note_on_c, 0, 65, 0
2,100661, Note_on_c, 0, 50, 85
2,100661, Note_on_c, 0, 64, 0
2,100671, Note_on_c, 0, 62, 76
2,100753, Note_on_c, 0, 50, 0
2,100782, Note_on_c, 0, 62, 0
2,100789, Note_on_c, 0, 65, 73
2,100913, Note_on_c, 0, 65, 0
2,100918, Note_on_c, 0, 55, 81
2,100922, Note_on_c, 0, 64, 76
2,101020, Note_on_c, 0, 55, 0
2,101039, Note_on_c, 0, 65, 72
2,101046, Note_on_c, 0, 64, 0
2,101063, Note_on_c, 0, 74, 0
2,101168, Note_on_c, 0, 65, 0
2,101175, Note_on_c, 0, 64, 79
2,101180, Note_on_c, 0, 45, 77
2,101186, Note_on_c, 0, 72, 64
2,101296, Note_on_c, 0, 64, 0
2,101299, Note_on_c, 0, 62, 70
2,101429, Note_on_c, 0, 62, 0
2,101436, Note_on_c, 0, 60, 80
2,101479, Note_on_c, 0, 45, 0
2,101545, Note_on_c, 0, 60, 0
2,101550, Note_on_c, 0, 64, 74
2,101661, Note_on_c, 0, 47, 79
2,101681, Note_on_c, 0, 64, 0
2,101688, Note_on_c, 0, 62, 72
2,101759, Note_on_c, 0, 47, 0
2,101798, Note_on_c, 0, 64, 78
2,101799, Note_on_c, 0, 62, 0
2,101803, Note_on_c, 0, 72, 0
2,101904, Note_on_c, 0, 48, 83
2,101913, Note_on_c, 0, 64, 0
2,101919, Note_on_c, 0, 62, 76
2,101930, Note_on_c, 0, 71, 64
2,102003, Note_on_c, 0, 48, 0
2,102034, Note_on_c, 0, 62, 0
2,102043, Note_on_c, 0, 60, 74
2,102165, Note_on_c, 0, 50, 82
2,102168, Note_on_c, 0, 60, 0
2,102181, Note_on_c, 0, 59, 74
2,102249, Note_on_c, 0, 50, 0
2,102287, Note_on_c, 0, 59, 0
2,102296, Note_on_c, 0, 62, 71
2,102422, Note_on_c, 0, 52, 78
2,102430, Note_on_c, 0, 62, 0
2,102436, Note_on_c, 0, 60, 77
2,102536, Note_on_c, 0, 52, 0
2,102546, Note_on_c, 0, 60, 0
2,102547, Note_on_c, 0, 62, 75
2,102561, Note_on_c, 0, 71, 0
2,102670, Note_on_c, 0, 62, 0
2,102675, Note_on_c, 0, 42, 84
2,102677, Note_on_c, 0, 60, 76
2,102686, Note_on_c, 0, 69, 65
2,102792, Note_on_c, 0, 60, 0
2,102802, Note_on_c, 0, 59, 70
2,102922, Note_on_c, 0, 59, 0
2,102938, Note_on_c, 0, 57, 71
2,102953, Note_on_c, 0, 42, 0
2,103039, Note_on_c, 0, 57, 0
2,103054, Note_on_c, 0, 60, 62
2,103176, Note_on_c, 0, 60, 0
2,103182, Note_on_c, 0, 43, 62
2,103184, Note_on_c, 0, 69, 0
2,103194, Note_on_c, 0, 59, 65
2,103303, Note_on_c, 0, 43, 0
2,103303, Note_on_c, 0, 67, 61
2,103419, Note_on_c, 0, 67, 0
2,103429, Note_on_c, 0, 69, 58
2,103433, Note_on_c, 0, 42, 54
2,103524, Note_on_c, 0, 69, 0
2,103547, Note_on_c, 0, 42, 0
2,103564, Note_on_c, 0, 43, 55
2,103570, Note_on_c, 0, 67, 57
2,103574, Control_c, 0, 67, 30
2,103583, Note_on_c, 0, 59, 0
2,103589, Control_c, 0, 67, 55
2,103603, Control_c, 0, 67, 71
2,103619, Control_c, 0, 67, 88
2,103634, Control_c, 0, 67, 112
2,103648, Control_c, 0, 67, 127
2,103649, Note_on_c, 0, 43, 0
2,103680, Note_on_c, 0, 67, 0
2,103686, Note_on_c, 0, 45, 48
2,103693, Note_on_c, 0, 66, 56
2,103721, Note_on_c, 0, 45, 0
2,103765, Note_on_c, 0, 66, 0
2,103777, Note_on_c, 0, 47, 49
2,103844, Note_on_c, 0, 67, 24
2,103877, Note_on_c, 0, 67, 0
2,103886, Note_on_c, 0, 47, 0
2,103905, Note_on_c, 0, 36, 46
2,103912, Note_on_c, 0, 66, 52
2,103930, Note_on_c, 0, 57, 30
2,103970, Note_on_c, 0, 36, 0
2,103974, Note_on_c, 0, 57, 0
2,104006, Note_on_c, 0, 66, 0
2,104049, Note_on_c, 0, 62, 49
2,104101, Note_on_c, 0, 62, 0
2,104106, Note_on_c, 0, 64, 57
2,104163, Note_on_c, 0, 64, 0
2,104169, Note_on_c, 0, 66, 49
2,104255, Note_on_c, 0, 66, 0
2,104293, Note_on_c, 0, 59, 55
2,104300, Note_on_c, 0, 62, 51
2,104345, Note_on_c, 0, 59, 0
2,104397, Note_on_c, 0, 62, 0
2,104415, Note_on_c, 0, 57, 49
2,104423, Note_on_c, 0, 67, 58
2,104488, Note_on_c, 0, 67, 0
2,104500, Note_on_c, 0, 57, 0
2,104536, Note_on_c, 0, 62, 55
2,104540, Note_on_c, 0, 55, 44
2,104625, Note_on_c, 0, 55, 0
2,104625, Note_on_c, 0, 62, 0
2,104640, Note_on_c, 0, 54, 57
2,104647, Note_on_c, 0, 69, 61
2,104720, Note_on_c, 0, 69, 0
2,104721, Note_on_c, 0, 54, 0
2,104756, Note_on_c, 0, 52, 53
2,104761, Note_on_c, 0, 62, 54
2,104831, Note_on_c, 0, 52, 0
2,104851, Note_on_c, 0, 62, 0
2,104879, Note_on_c, 0, 71, 62
2,104886, Note_on_c, 0, 50, 52
2,104943, Note_on_c, 0, 71, 0
2,104955, Note_on_c, 0, 50, 0
2,104992, Note_on_c, 0, 62, 57
2,105006, Note_on_c, 0, 48, 44
2,105089, Note_on_c, 0, 48, 0
2,105091, Note_on_c, 0, 62, 0
2,105116, Note_on_c, 0, 72, 63
2,105126, Note_on_c, 0, 47, 46
2,105186, Note_on_c, 0, 47, 0
2,105189, Note_on_c, 0, 72, 0
2,105229, Note_on_c, 0, 45, 47
2,105233, Note_on_c, 0, 62, 59
2,105307, Note_on_c, 0, 45, 0
2,105318, Note_on_c, 0, 62, 0
2,105356, Note_on_c, 0, 43, 45
2,105360, Note_on_c, 0, 71, 60
2,105423, Note_on_c, 0, 43, 0
2,105449, Note_on_c, 0, 45, 50
2,105449, Note_on_c, 0, 71, 0
2,105478, Note_on_c, 0, 79, 56
2,105519, Note_on_c, 0, 45, 0
2,105577, Note_on_c, 0, 79, 0
2,105580, Note_on_c, 0, 47, 40
2,105589, Note_on_c, 0, 77, 66
2,105628, Note_on_c, 0, 47, 0
2,105671, Note_on_c, 0, 77, 0
2,105684, Note_on_c, 0, 43, 43
2,105698, Note_on_c, 0, 76, 58
2,105786, Note_on_c, 0, 43, 0
2,105807, Note_on_c, 0, 76, 0
2,105818, Note_on_c, 0, 74, 59
2,105822, Note_on_c, 0, 48, 49
2,105885, Note_on_c, 0, 48, 0
2,105910, Note_on_c, 0, 74, 0
2,105930, Note_on_c, 0, 43, 44
2,105937, Note_on_c, 0, 72, 54
2,106008, Note_on_c, 0, 43, 0
2,106043, Note_on_c, 0, 72, 0
2,106057, Note_on_c, 0, 50, 48
2,106061, Note_on_c, 0, 71, 55
2,106126, Note_on_c, 0, 50, 0
2,106153, Note_on_c, 0, 71, 0
2,106166, Note_on_c, 0, 43, 42
2,106173, Note_on_c, 0, 69, 57
2,106243, Note_on_c, 0, 43, 0
2,106285, Note_on_c, 0, 69, 0
2,106297, Note_on_c, 0, 67, 61
2,106298, Note_on_c, 0, 52, 48
2,106353, Note_on_c, 0, 52, 0
2,106377, Note_on_c, 0, 67, 0
2,106394, Note_on_c, 0, 43, 43
2,106403, Note_on_c, 0, 65, 56
2,106472, Note_on_c, 0, 43, 0
2,106507, Note_on_c, 0, 65, 0
2,106514, Note_on_c, 0, 53, 53
2,106525, Note_on_c, 0, 64, 63
2,106574, Note_on_c, 0, 53, 0
2,106619, Note_on_c, 0, 43, 51
2,106627, Note_on_c, 0, 64, 0
2,106649, Note_on_c, 0, 62, 57
2,106698, Note_on_c, 0, 43, 0
2,106727, Note_on_c, 0, 62, 0
2,106744, Note_on_c, 0, 52, 50
2,106759, Note_on_c, 0, 60, 63
2,106793, Note_on_c, 0, 52, 0
2,106801, Note_on_c, 0, 60, 0
2,106887, Note_on_c, 0, 76, 58
2,106894, Note_on_c, 0, 40, 44
2,106936, Note_on_c, 0, 40, 0
2,106987, Note_on_c, 0, 76, 0
2,107008, Note_on_c, 0, 74, 60
2,107018, Note_on_c, 0, 43, 42
2,107095, Note_on_c, 0, 43, 0
2,107102, Note_on_c, 0, 72, 68
2,107103, Note_on_c, 0, 74, 0
2,107150, Note_on_c, 0, 40, 49
2,107223, Note_on_c, 0, 72, 0
2,107225, Note_on_c, 0, 40, 0
2,107235, Note_on_c, 0, 71, 69
2,107249, Note_on_c, 0, 45, 56
2,107311, Note_on_c, 0, 45, 0
2,107324, Note_on_c, 0, 71, 0
2,107349, Note_on_c, 0, 69, 59
2,107358, Note_on_c, 0, 40, 56
2,107434, Note_on_c, 0, 40, 0
2,107459, Note_on_c, 0, 69, 0
2,107474, Note_on_c, 0, 68, 61
2,107479, Note_on_c, 0, 47, 54
2,107547, Note_on_c, 0, 47, 0
2,107579, Note_on_c, 0, 68, 0
2,107582, Note_on_c, 0, 40, 47
2,107583, Note_on_c, 0, 66, 67
2,107662, Note_on_c, 0, 40, 0
2,107712, Note_on_c, 0, 64, 65
2,107715, Note_on_c, 0, 66, 0
2,107719, Note_on_c, 0, 48, 52
2,107777, Note_on_c, 0, 48, 0
2,107785, Note_on_c, 0, 64, 0
2,107813, Note_on_c, 0, 62, 55
2,107817, Note_on_c, 0, 40, 49
2,107888, Note_on_c, 0, 40, 0
2,107923, Note_on_c, 0, 62, 0
2,107940, Note_on_c, 0, 50, 53
2,107943, Note_on_c, 0, 60, 65
2,108008, Note_on_c, 0, 50, 0
2,108043, Note_on_c, 0, 40, 47
2,108043, Note_on_c, 0, 60, 0
2,108060, Note_on_c, 0, 59, 58
2,108115, Note_on_c, 0, 40, 0
2,108142, Note_on_c, 0, 59, 0
2,108157, Note_on_c, 0, 49, 59
2,108182, Note_on_c, 0, 57, 56
2,108210, Note_on_c, 0, 49, 0
2,108216, Note_on_c, 0, 57, 0
2,108286, Note_on_c, 0, 59, 68
2,108314, Note_on_c, 0, 57, 42
2,108399, Note_on_c, 0, 57, 0
2,108409, Note_on_c, 0, 61, 67
2,108412, Note_on_c, 0, 59, 0
2,108417, Note_on_c, 0, 55, 59
2,108508, Note_on_c, 0, 61, 0
2,108512, Note_on_c, 0, 55, 0
2,108523, Note_on_c, 0, 54, 69
2,108525, Note_on_c, 0, 57, 59
2,108588, Note_on_c, 0, 54, 0
2,108635, Note_on_c, 0, 57, 0
2,108642, Note_on_c, 0, 52, 48
2,108649, Note_on_c, 0, 62, 64
2,108728, Note_on_c, 0, 52, 0
2,108741, Note_on_c, 0, 50, 61
2,108763, Note_on_c, 0, 57, 68
2,108769, Note_on_c, 0, 62, 0
2,108852, Note_on_c, 0, 49, 70
2,108870, Note_on_c, 0, 64, 78
2,108874, Note_on_c, 0, 50, 0
2,108881, Note_on_c, 0, 57, 0
2,108970, Note_on_c, 0, 64, 0
2,108972, Note_on_c, 0, 49, 0
2,108977, Note_on_c, 0, 47, 71
2,108993, Note_on_c, 0, 57, 74
2,108999, Control_c, 0, 67, 124
2,109014, Control_c, 0, 67, 113
2,109029, Control_c, 0, 67, 110
2,109045, Control_c, 0, 67, 107
2,109060, Control_c, 0, 67, 101
2,109073, Note_on_c, 0, 47, 0
2,109074, Control_c, 0, 67, 81
2,109090, Control_c, 0, 67, 58
2,109105, Control_c, 0, 67, 38
2,109105, Note_on_c, 0, 45, 72
2,109108, Note_on_c, 0, 66, 78
2,109121, Control_c, 0, 67, 28
2,109127, Note_on_c, 0, 57, 0
2,109136, Control_c, 0, 67, 24
2,109150, Control_c, 0, 67, 16
2,109166, Control_c, 0, 67, 0
2,109222, Note_on_c, 0, 57, 81
2,109230, Note_on_c, 0, 43, 79
2,109236, Note_on_c, 0, 45, 0
2,109241, Note_on_c, 0, 66, 0
2,109344, Note_on_c, 0, 67, 84
2,109347, Note_on_c, 0, 42, 77
2,109352, Note_on_c, 0, 57, 0
2,109381, Note_on_c, 0, 43, 0
2,109451, Note_on_c, 0, 42, 0
2,109454, Note_on_c, 0, 57, 85
2,109459, Note_on_c, 0, 40, 75
2,109490, Note_on_c, 0, 67, 0
2,109588, Note_on_c, 0, 38, 83
2,109591, Note_on_c, 0, 62, 81
2,109591, Note_on_c, 0, 66, 79
2,109605, Note_on_c, 0, 40, 0
2,109612, Note_on_c, 0, 57, 0
2,109721, Note_on_c, 0, 62, 0
2,109735, Note_on_c, 0, 66, 0
2,109870, Note_on_c, 0, 60, 80
2,109872, Note_on_c, 0, 71, 82
2,109978, Note_on_c, 0, 71, 0
2,109981, Note_on_c, 0, 62, 83
2,110006, Note_on_c, 0, 60, 0
2,110105, Note_on_c, 0, 67, 81
2,110113, Note_on_c, 0, 64, 80
2,110119, Note_on_c, 0, 62, 0
2,110226, Note_on_c, 0, 62, 85
2,110227, Note_on_c, 0, 67, 0
2,110246, Note_on_c, 0, 64, 0
2,110360, Note_on_c, 0, 62, 0
2,110360, Note_on_c, 0, 64, 81
2,110363, Note_on_c, 0, 60, 82
2,110479, Note_on_c, 0, 60, 0
2,110488, Note_on_c, 0, 64, 0
2,110638, Note_on_c, 0, 59, 84
2,110654, Note_on_c, 0, 69, 68
2,110733, Note_on_c, 0, 59, 0
2,110748, Note_on_c, 0, 60, 87
2,110874, Note_on_c, 0, 62, 80
2,110876, Note_on_c, 0, 66, 77
2,110878, Note_on_c, 0, 69, 0
2,110890, Note_on_c, 0, 60, 0
2,110970, Note_on_c, 0, 62, 0
2,110981, Note_on_c, 0, 66, 0
2,110994, Note_on_c, 0, 60, 85
2,111087, Note_on_c, 0, 38, 0
2,111119, Note_on_c, 0, 67, 76
2,111121, Note_on_c, 0, 59, 75
2,111140, Note_on_c, 0, 60, 0
2,111198, Note_on_c, 0, 59, 0
2,111256, Note_on_c, 0, 50, 80
2,111372, Note_on_c, 0, 60, 86
2,111375, Note_on_c, 0, 48, 67
2,111384, Note_on_c, 0, 50, 0
2,111458, Note_on_c, 0, 60, 0
2,111491, Note_on_c, 0, 50, 83
2,111495, Note_on_c, 0, 48, 0
2,111609, Note_on_c, 0, 62, 86
2,111614, Note_on_c, 0, 50, 0
2,111619, Note_on_c, 0, 52, 77
2,111693, Note_on_c, 0, 62, 0
2,111730, Note_on_c, 0, 50, 83
2,111736, Note_on_c, 0, 52, 0
2,111835, Note_on_c, 0, 67, 0
2,111842, Note_on_c, 0, 48, 78
2,111850, Note_on_c, 0, 64, 84
2,111879, Note_on_c, 0, 50, 0
2,111918, Note_on_c, 0, 48, 0
2,111960, Note_on_c, 0, 69, 71
2,111966, Note_on_c, 0, 64, 0
2,112085, Note_on_c, 0, 71, 82
2,112088, Note_on_c, 0, 69, 0
2,112091, Note_on_c, 0, 47, 72
2,112094, Note_on_c, 0, 54, 79
2,112151, Note_on_c, 0, 71, 0
2,112158, Note_on_c, 0, 69, 64
2,112214, Note_on_c, 0, 47, 0
2,112214, Note_on_c, 0, 69, 0
2,112214, Note_on_c, 0, 71, 73
2,112217, Note_on_c, 0, 48, 75
2,112265, Note_on_c, 0, 71, 0
2,112280, Note_on_c, 0, 69, 56
2,112318, Note_on_c, 0, 69, 0
2,112320, Note_on_c, 0, 48, 0
2,112321, Note_on_c, 0, 71, 69
2,112326, Note_on_c, 0, 50, 76
2,112345, Note_on_c, 0, 54, 0
2,112382, Note_on_c, 0, 69, 72
2,112385, Note_on_c, 0, 71, 0
2,112437, Note_on_c, 0, 69, 0
2,112442, Note_on_c, 0, 48, 71
2,112450, Note_on_c, 0, 50, 0
2,112458, Note_on_c, 0, 67, 72
2,112489, Note_on_c, 0, 67, 0
2,112513, Note_on_c, 0, 69, 62
2,112557, Note_on_c, 0, 48, 0
2,112568, Note_on_c, 0, 67, 71
2,112571, Note_on_c, 0, 69, 0
2,112573, Note_on_c, 0, 71, 73
2,112578, Note_on_c, 0, 47, 63
2,112580, Note_on_c, 0, 55, 65
2,112667, Note_on_c, 0, 55, 0
2,112675, Note_on_c, 0, 67, 0
2,112700, Note_on_c, 0, 47, 0
2,112701, Note_on_c, 0, 71, 0
2,112836, Note_on_c, 0, 72, 76
2,112840, Note_on_c, 0, 69, 75
2,112853, Note_on_c, 0, 45, 71
2,112954, Note_on_c, 0, 72, 0
2,112956, Note_on_c, 0, 71, 84
2,112959, Note_on_c, 0, 69, 0
2,112960, Note_on_c, 0, 47, 77
2,112962, Note_on_c, 0, 45, 0
2,112962, Note_on_c, 0, 67, 85
2,113048, Note_on_c, 0, 67, 0
2,113070, Note_on_c, 0, 47, 0
2,113079, Note_on_c, 0, 48, 77
2,113080, Note_on_c, 0, 69, 80
2,113082, Note_on_c, 0, 66, 83
2,113097, Note_on_c, 0, 71, 0
2,113167, Note_on_c, 0, 66, 0
2,113194, Note_on_c, 0, 47, 76
2,113194, Note_on_c, 0, 67, 79
2,113197, Note_on_c, 0, 48, 0
2,113203, Note_on_c, 0, 71, 82
2,113210, Note_on_c, 0, 69, 0
2,113311, Note_on_c, 0, 67, 0
2,113317, Note_on_c, 0, 72, 78
2,113318, Note_on_c, 0, 45, 73
2,113321, Note_on_c, 0, 69, 83
2,113348, Note_on_c, 0, 47, 0
2,113354, Note_on_c, 0, 71, 0
2,113392, Note_on_c, 0, 69, 0
2,113403, Note_on_c, 0, 45, 0
2,113405, Note_on_c, 0, 72, 0
2,113571, Note_on_c, 0, 71, 76
2,113571, Note_on_c, 0, 74, 77
2,113577, Note_on_c, 0, 43, 68
2,113685, Note_on_c, 0, 69, 78
2,113686, Note_on_c, 0, 43, 0
2,113687, Note_on_c, 0, 45, 70
2,113688, Note_on_c, 0, 72, 78
2,113693, Note_on_c, 0, 74, 0
2,113706, Note_on_c, 0, 71, 0
2,113780, Note_on_c, 0, 72, 0
2,113806, Note_on_c, 0, 67, 87
2,113806, Note_on_c, 0, 71, 86
2,113807, Note_on_c, 0, 69, 0
2,113809, Note_on_c, 0, 47, 77
2,113824, Note_on_c, 0, 45, 0
2,113883, Note_on_c, 0, 67, 0
2,113913, Note_on_c, 0, 72, 79
2,113920, Note_on_c, 0, 69, 79
2,113923, Note_on_c, 0, 47, 0
2,113925, Note_on_c, 0, 45, 74
2,113937, Note_on_c, 0, 71, 0
2,114028, Note_on_c, 0, 45, 0
2,114036, Note_on_c, 0, 43, 66
2,114036, Note_on_c, 0, 71, 75
2,114036, Note_on_c, 0, 74, 82
2,114060, Note_on_c, 0, 69, 0
2,114063, Note_on_c, 0, 72, 0
2,114070, Note_on_c, 0, 43, 0
2,114129, Note_on_c, 0, 71, 0
2,114137, Note_on_c, 0, 74, 0
2,114180, Note_on_c, 0, 55, 70
2,114220, Note_on_c, 0, 54, 75
2,114237, Note_on_c, 0, 55, 0
2,114295, Note_on_c, 0, 72, 85
2,114301, Note_on_c, 0, 69, 83
2,114309, Note_on_c, 0, 52, 69
2,114336, Note_on_c, 0, 54, 0
2,114373, Note_on_c, 0, 69, 0
2,114391, Note_on_c, 0, 72, 0
2,114398, Note_on_c, 0, 52, 0
2,114413, Note_on_c, 0, 55, 81
2,114537, Note_on_c, 0, 50, 76
2,114537, Note_on_c, 0, 55, 0
2,114538, Note_on_c, 0, 67, 81
2,114540, Note_on_c, 0, 71, 89
2,114629, Note_on_c, 0, 50, 0
2,114629, Note_on_c, 0, 71, 0
2,114654, Note_on_c, 0, 55, 79
2,114778, Note_on_c, 0, 49, 69
2,114782, Note_on_c, 0, 69, 84
2,114783, Note_on_c, 0, 55, 0
2,114835, Note_on_c, 0, 67, 0
2,114868, Note_on_c, 0, 69, 0
2,114902, Note_on_c, 0, 49, 0
2,114909, Note_on_c, 0, 57, 79
2,115040, Note_on_c, 0, 47, 73
2,115044, Note_on_c, 0, 74, 84
2,115044, Note_on_c, 0, 79, 87
2,115056, Note_on_c, 0, 57, 0
2,115130, Note_on_c, 0, 74, 0
2,115168, Note_on_c, 0, 47, 0
2,115169, Note_on_c, 0, 57, 80
2,115291, Note_on_c, 0, 73, 85
2,115294, Note_on_c, 0, 45, 68
2,115298, Note_on_c, 0, 57, 0
2,115366, Note_on_c, 0, 73, 0
2,115392, Note_on_c, 0, 45, 0
2,115409, Note_on_c, 0, 57, 80
2,115530, Note_on_c, 0, 74, 85
2,115532, Note_on_c, 0, 78, 83
2,115536, Note_on_c, 0, 57, 0
2,115540, Note_on_c, 0, 50, 76
2,115564, Note_on_c, 0, 79, 0
2,115593, Note_on_c, 0, 74, 0
2,115615, Note_on_c, 0, 78, 0
2,115656, Note_on_c, 0, 48, 76
2,115690, Note_on_c, 0, 50, 0
2,115776, Note_on_c, 0, 76, 90
2,115778, Note_on_c, 0, 46, 79
2,115781, Note_on_c, 0, 67, 87
2,115784, Note_on_c, 0, 48, 0
2,115843, Note_on_c, 0, 67, 0
2,115858, Note_on_c, 0, 76, 0
2,115895, Note_on_c, 0, 46, 0
2,115906, Note_on_c, 0, 50, 84
2,116032, Note_on_c, 0, 74, 91
2,116033, Note_on_c, 0, 45, 84
2,116033, Note_on_c, 0, 66, 94
2,116042, Note_on_c, 0, 50, 0
2,116088, Note_on_c, 0, 66, 0
2,116110, Note_on_c, 0, 74, 0
2,116147, Note_on_c, 0, 45, 0
2,116159, Note_on_c, 0, 50, 84
2,116304, Note_on_c, 0, 73, 99
2,116306, Note_on_c, 0, 43, 82
2,116306, Note_on_c, 0, 64, 90
2,116322, Note_on_c, 0, 50, 0
2,116345, Note_on_c, 0, 64, 0
2,116385, Note_on_c, 0, 73, 0
2,116450, Note_on_c, 0, 43, 0
2,116472, Note_on_c, 0, 52, 82
2,116698, Note_on_c, 0, 82, 91
2,116701, Note_on_c, 0, 42, 85
2,116701, Note_on_c, 0, 73, 96
2,116724, Note_on_c, 0, 52, 0
2,116883, Note_on_c, 0, 42, 0
2,116894, Note_on_c, 0, 52, 86
2,116996, Note_on_c, 0, 73, 0
2,117008, Note_on_c, 0, 82, 0
2,117021, Note_on_c, 0, 40, 81
2,117035, Note_on_c, 0, 52, 0
2,117141, Note_on_c, 0, 52, 80
2,117161, Note_on_c, 0, 40, 0
2,117249, Note_on_c, 0, 81, 88
2,117252, Note_on_c, 0, 72, 93
2,117258, Note_on_c, 0, 42, 83
2,117263, Note_on_c, 0, 52, 0
2,117306, Note_on_c, 0, 42, 0
2,117382, Note_on_c, 0, 79, 85
2,117410, Note_on_c, 0, 81, 0
2,117504, Note_on_c, 0, 38, 82
2,117513, Note_on_c, 0, 78, 91
2,117544, Note_on_c, 0, 38, 0
2,117548, Note_on_c, 0, 79, 0
2,117626, Note_on_c, 0, 76, 84
2,117660, Note_on_c, 0, 78, 0
2,117680, Note_on_c, 0, 76, 0
2,117744, Note_on_c, 0, 72, 0
2,117752, Note_on_c, 0, 74, 91
2,117754, Note_on_c, 0, 43, 88
2,117793, Note_on_c, 0, 43, 0
2,117867, Note_on_c, 0, 71, 79
2,117919, Note_on_c, 0, 71, 0
2,117926, Note_on_c, 0, 69, 82
2,117977, Note_on_c, 0, 40, 86
2,117984, Note_on_c, 0, 71, 89
2,118008, Note_on_c, 0, 40, 0
2,118029, Note_on_c, 0, 74, 0
2,118109, Note_on_c, 0, 69, 0
2,118112, Note_on_c, 0, 79, 94
2,118117, Note_on_c, 0, 71, 0
2,118264, Note_on_c, 0, 69, 91
2,118269, Note_on_c, 0, 36, 83
2,118304, Note_on_c, 0, 79, 0
2,118307, Note_on_c, 0, 36, 0
2,118407, Note_on_c, 0, 72, 89
2,118575, Note_on_c, 0, 79, 94
2,118576, Note_on_c, 0, 38, 81
2,118583, Note_on_c, 0, 72, 0
2,118610, Note_on_c, 0, 38, 0
2,118762, Note_on_c, 0, 78, 93
2,118784, Note_on_c, 0, 79, 0
2,118788, Note_on_c, 0, 69, 0
2,119010, Note_on_c, 0, 71, 92
2,119010, Note_on_c, 0, 79, 89
2,119013, Note_on_c, 0, 43, 86
2,119046, Note_on_c, 0, 78, 0
2,119152, Note_on_c, 0, 71, 0
2,119161, Note_on_c, 0, 78, 83
2,119192, Note_on_c, 0, 76, 80
2,119194, Note_on_c, 0, 79, 0
2,119244, Note_on_c, 0, 74, 82
2,119250, Note_on_c, 0, 78, 0
2,119262, Note_on_c, 0, 71, 78
2,119278, Note_on_c, 0, 76, 0
2,119351, Note_on_c, 0, 71, 0
2,119362, Note_on_c, 0, 74, 0
2,119368, Note_on_c, 0, 79, 87
2,119503, Note_on_c, 0, 72, 88
2,119506, Note_on_c, 0, 69, 86
2,119515, Note_on_c, 0, 79, 0
2,119609, Note_on_c, 0, 69, 0
2,119624, Note_on_c, 0, 72, 0
2,119627, Note_on_c, 0, 79, 84
2,119765, Note_on_c, 0, 67, 89
2,119765, Note_on_c, 0, 71, 86
2,119772, Note_on_c, 0, 79, 0
2,119780, Note_on_c, 0, 43, 0
2,119904, Note_on_c, 0, 43, 75
2,119959, Note_on_c, 0, 45, 75
2,119988, Note_on_c, 0, 43, 0
2,119991, Note_on_c, 0, 79, 87
2,119997, Note_on_c, 0, 71, 0
2,120004, Note_on_c, 0, 47, 78
2,120020, Note_on_c, 0, 45, 0
2,120106, Note_on_c, 0, 79, 0
2,120128, Note_on_c, 0, 43, 85
2,120128, Note_on_c, 0, 47, 0
2,120135, Note_on_c, 0, 67, 0
2,120231, Note_on_c, 0, 43, 0
2,120247, Note_on_c, 0, 48, 84
2,120264, Note_on_c, 0, 69, 81
2,120266, Note_on_c, 0, 66, 84
2,120367, Note_on_c, 0, 69, 0
2,120370, Note_on_c, 0, 66, 0
2,120374, Note_on_c, 0, 43, 72
2,120377, Note_on_c, 0, 48, 0
2,120500, Note_on_c, 0, 50, 75
2,120515, Note_on_c, 0, 71, 84
2,120521, Note_on_c, 0, 67, 78
2,120573, Note_on_c, 0, 43, 0
2,120607, Note_on_c, 0, 50, 0
2,120622, Note_on_c, 0, 67, 0
2,120637, Note_on_c, 0, 74, 72
2,120638, Note_on_c, 0, 71, 0
2,120698, Note_on_c, 0, 72, 66
2,120726, Note_on_c, 0, 74, 0
2,120743, Note_on_c, 0, 43, 79
2,120748, Note_on_c, 0, 71, 86
2,120760, Note_on_c, 0, 67, 74
2,120782, Note_on_c, 0, 72, 0
2,120852, Note_on_c, 0, 67, 0
2,120876, Note_on_c, 0, 74, 77
2,120878, Note_on_c, 0, 71, 0
2,120986, Note_on_c, 0, 47, 72
2,120994, Note_on_c, 0, 69, 77
2,120997, Note_on_c, 0, 65, 79
2,121010, Note_on_c, 0, 74, 0
2,121081, Note_on_c, 0, 47, 0
2,121093, Note_on_c, 0, 65, 0
2,121111, Note_on_c, 0, 74, 83
2,121112, Note_on_c, 0, 69, 0
2,121243, Note_on_c, 0, 48, 75
2,121254, Note_on_c, 0, 64, 84
2,121254, Note_on_c, 0, 67, 77
2,121276, Note_on_c, 0, 74, 0
2,121307, Note_on_c, 0, 47, 66
2,121310, Note_on_c, 0, 48, 0
2,121368, Note_on_c, 0, 48, 76
2,121392, Note_on_c, 0, 67, 0
2,121425, Note_on_c, 0, 50, 72
2,121436, Note_on_c, 0, 47, 0
2,121464, Note_on_c, 0, 48, 0
2,121496, Note_on_c, 0, 50, 0
2,121496, Note_on_c, 0, 52, 83
2,121498, Note_on_c, 0, 72, 86
2,121516, Note_on_c, 0, 64, 0
2,121616, Note_on_c, 0, 52, 0
2,121617, Note_on_c, 0, 48, 77
2,121744, Note_on_c, 0, 48, 0
2,121746, Note_on_c, 0, 54, 84
2,121752, Note_on_c, 0, 63, 84
2,121842, Note_on_c, 0, 63, 0
2,121864, Note_on_c, 0, 48, 78
2,121878, Note_on_c, 0, 54, 0
2,122016, Note_on_c, 0, 62, 84
2,122022, Note_on_c, 0, 55, 74
2,122033, Note_on_c, 0, 48, 0
2,122034, Note_on_c, 0, 72, 0
2,122078, Note_on_c, 0, 67, 82
2,122096, Note_on_c, 0, 62, 0
2,122151, Note_on_c, 0, 69, 81
2,122175, Note_on_c, 0, 67, 0
2,122194, Note_on_c, 0, 71, 82
2,122236, Note_on_c, 0, 69, 0
2,122278, Note_on_c, 0, 72, 84
2,122284, Note_on_c, 0, 64, 86
2,122296, Note_on_c, 0, 71, 0
2,122413, Note_on_c, 0, 67, 86
2,122416, Note_on_c, 0, 72, 0
2,122428, Note_on_c, 0, 64, 0
2,122543, Note_on_c, 0, 74, 81
2,122544, Note_on_c, 0, 71, 76
2,122550, Note_on_c, 0, 67, 0
2,122556, Note_on_c, 0, 65, 75
2,122669, Note_on_c, 0, 67, 83
2,122672, Note_on_c, 0, 65, 0
2,122690, Note_on_c, 0, 71, 0
2,122709, Note_on_c, 0, 74, 0
2,122711, Note_on_c, 0, 67, 0
2,122819, Note_on_c, 0, 76, 81
2,122823, Note_on_c, 0, 67, 80
2,122826, Note_on_c, 0, 72, 72
2,122891, Note_on_c, 0, 71, 85
2,122893, Note_on_c, 0, 67, 0
2,122900, Note_on_c, 0, 76, 0
2,122915, Note_on_c, 0, 72, 0
2,122951, Note_on_c, 0, 72, 64
2,122976, Note_on_c, 0, 71, 0
2,123017, Note_on_c, 0, 74, 86
2,123040, Note_on_c, 0, 72, 0
2,123112, Note_on_c, 0, 76, 90
2,123123, Note_on_c, 0, 67, 78
2,123125, Note_on_c, 0, 74, 0
2,123285, Note_on_c, 0, 72, 87
2,123297, Note_on_c, 0, 67, 0
2,123322, Note_on_c, 0, 76, 0
2,123471, Note_on_c, 0, 78, 91
2,123478, Note_on_c, 0, 69, 83
2,123480, Note_on_c, 0, 72, 0
2,123696, Note_on_c, 0, 72, 81
2,123707, Note_on_c, 0, 69, 0
2,124008, Note_on_c, 0, 79, 89
2,124015, Note_on_c, 0, 71, 81
2,124030, Note_on_c, 0, 72, 0
2,124048, Note_on_c, 0, 78, 0
2,124302, Note_on_c, 0, 74, 74
2,124500, Note_on_c, 0, 76, 66
2,124501, Note_on_c, 0, 74, 0
2,124763, Note_on_c, 0, 71, 0
2,124767, Note_on_c, 0, 72, 74
2,124768, Note_on_c, 0, 76, 0
2,125064, Note_on_c, 0, 69, 60
2,125498, Note_on_c, 0, 78, 70
2,125509, Note_on_c, 0, 79, 0
2,125510, Note_on_c, 0, 69, 0
2,126296, Note_on_c, 0, 78, 0
2,126320, Note_on_c, 0, 79, 68
2,126330, Note_on_c, 0, 72, 0
2,126333, Note_on_c, 0, 71, 57
2,126335, Note_on_c, 0, 74, 54
2,127384, Control_c, 0, 64, 8
2,127399, Control_c, 0, 64, 25
2,127414, Control_c, 0, 64, 34
2,127429, Control_c, 0, 64, 41
2,127444, Control_c, 0, 64, 45
2,127460, Control_c, 0, 64, 48
2,127475, Control_c, 0, 64, 50
2,127489, Control_c, 0, 64, 52
2,127505, Control_c, 0, 64, 54
2,127514, Control_c, 0, 64, 56
2,127529, Control_c, 0, 64, 58
2,127543, Control_c, 0, 64, 60
2,127559, Control_c, 0, 64, 61
2,127575, Control_c, 0, 64, 62
2,127590, Control_c, 0, 64, 63
2,127606, Control_c, 0, 64, 64
2,127621, Control_c, 0, 64, 64
2,127636, Control_c, 0, 64, 65
2,127651, Control_c, 0, 64, 67
2,127666, Control_c, 0, 64, 68
2,127682, Control_c, 0, 64, 69
2,127696, Control_c, 0, 64, 71
2,127711, Control_c, 0, 64, 72
2,127727, Control_c, 0, 64, 73
2,127742, Control_c, 0, 64, 74
2,127758, Control_c, 0, 64, 76
2,127773, Control_c, 0, 64, 77
2,127787, Control_c, 0, 64, 78
2,127803, Control_c, 0, 64, 79
2,127818, Control_c, 0, 64, 80
2,127833, Control_c, 0, 64, 82
2,127849, Control_c, 0, 64, 84
2,127864, Control_c, 0, 64, 86
2,127878, Control_c, 0, 64, 87
2,127890, Control_c, 0, 64, 88
2,127905, Control_c, 0, 64, 89
2,127920, Control_c, 0, 64, 90
2,127936, Control_c, 0, 64, 90
2,127951, Control_c, 0, 64, 91
2,127966, Control_c, 0, 64, 92
2,127996, Control_c, 0, 64, 93
2,128012, Control_c, 0, 64, 93
2,128027, Control_c, 0, 64, 94
2,128042, Control_c, 0, 64, 95
2,128057, Control_c, 0, 64, 95
2,128080, Control_c, 0, 64, 96
2,128096, Control_c, 0, 64, 96
2,128110, Control_c, 0, 64, 97
2,128125, Control_c, 0, 64, 97
2,128186, Control_c, 0, 64, 98
2,128232, Control_c, 0, 64, 98
2,128277, Control_c, 0, 64, 99
2,128321, Note_on_c, 0, 79, 0
2,128339, Note_on_c, 0, 43, 0
2,128382, Note_on_c, 0, 74, 0
2,128404, Note_on_c, 0, 71, 0
2,128431, Note_on_c, 0, 55, 0
2,129151, Control_c, 0, 64, 98
2,129182, Control_c, 0, 64, 98
2,129197, Control_c, 0, 64, 97
2,129214, Control_c, 0, 64, 97
2,129229, Control_c, 0, 64, 96
2,129244, Control_c, 0, 64, 95
2,129259, Control_c, 0, 64, 95
2,129274, Control_c, 0, 64, 94
2,129289, Control_c, 0, 64, 94
2,129305, Control_c, 0, 64, 93
2,129320, Control_c, 0, 64, 92
2,129335, Control_c, 0, 64, 91
2,129351, Control_c, 0, 64, 90
2,129366, Control_c, 0, 64, 90
2,129381, Control_c, 0, 64, 89
2,129396, Control_c, 0, 64, 88
2,129412, Control_c, 0, 64, 88
2,129427, Control_c, 0, 64, 87
2,129442, Control_c, 0, 64, 86
2,129457, Control_c, 0, 64, 85
2,129472, Control_c, 0, 64, 84
2,129487, Control_c, 0, 64, 83
2,129503, Control_c, 0, 64, 82
2,129518, Control_c, 0, 64, 81
2,129533, Control_c, 0, 64, 80
2,129548, Control_c, 0, 64, 79
2,129563, Control_c, 0, 64, 78
2,129579, Control_c, 0, 64, 78
2,129593, Control_c, 0, 64, 77
2,129617, Control_c, 0, 64, 76
2,129632, Control_c, 0, 64, 74
2,129647, Control_c, 0, 64, 72
2,129663, Control_c, 0, 64, 70
2,129677, Control_c, 0, 64, 69
2,129693, Control_c, 0, 64, 69
2,129708, Control_c, 0, 64, 68
2,129723, Control_c, 0, 64, 67
2,129739, Control_c, 0, 64, 66
2,129753, Control_c, 0, 64, 65
2,129768, Control_c, 0, 64, 63
2,129784, Control_c, 0, 64, 62
2,129798, Control_c, 0, 64, 61
2,129814, Control_c, 0, 64, 61
2,129829, Control_c, 0, 64, 60
2,129844, Control_c, 0, 64, 59
2,129860, Control_c, 0, 64, 57
2,129874, Control_c, 0, 64, 55
2,129889, Control_c, 0, 64, 51
2,129905, Control_c, 0, 64, 48
2,129920, Control_c, 0, 64, 44
2,129936, Control_c, 0, 64, 41
2,129951, Control_c, 0, 64, 38
2,129966, Control_c, 0, 64, 35
2,129982, Control_c, 0, 64, 33
2,129996, Control_c, 0, 64, 30
2,130012, Control_c, 0, 64, 27
2,130027, Control_c, 0, 64, 23
2,130042, Control_c, 0, 64, 19
2,130058, Control_c, 0, 64, 16
2,130073, Control_c, 0, 64, 10
2,130088, Control_c, 0, 64, 0
2,130089, End_track
0, 0, End_of_file
