0, 0, Header, 1, 2, 480
1, 0, Start_track
1, 0, Tempo, 500000
1, 0, Time_signature, 4, 2, 24, 8
1, 1, End_track
2, 0, Start_track
2, 0, Program_c, 0, 0
2, 0, Control_c, 0, 64, 0
2, 907, Note_on_c, 0, 55, 69
2, 914, Note_on_c, 0, 67, 66
2, 947, Note_on_c, 0, 55, 0
2, 981, Note_on_c, 0, 67, 0
2, 1019, Note_on_c, 0, 71, 66
2, 1109, Note_on_c, 0, 71, 0
2, 1114, Note_on_c, 0, 74, 69
2, 1207, Note_on_c, 0, 74, 0
2, 1223, Note_on_c, 0, 79, 65
2, 1232, Note_on_c, 0, 43, 61
2, 1270, Note_on_c, 0, 43, 0
2, 1316, Note_on_c, 0, 79, 0
2, 1338, Note_on_c, 0, 74, 62
2, 1408, Note_on_c, 0, 74, 0
2, 1436, Note_on_c, 0, 71, 60
2, 1522, Note_on_c, 0, 71, 0
2, 1543, Note_on_c, 0, 74, 66
2, 1631, Note_on_c, 0, 74, 0
2, 1652, Note_on_c, 0, 71, 63
2, 1703, Note_on_c, 0, 71, 0
2, 1738, Note_on_c, 0, 67, 65
2, 1785, Note_on_c, 0, 67, 0
2, 1834, Note_on_c, 0, 71, 77
2, 1839, Note_on_c, 0, 55, 70
2, 1875, Note_on_c, 0, 55, 0
2, 1935, Note_on_c, 0, 71, 0
2, 1943, Note_on_c, 0, 67, 69
2, 2032, Note_on_c, 0, 67, 0
2, 2048, Note_on_c, 0, 62, 74
2, 2121, Note_on_c, 0, 62, 0
2, 2153, Note_on_c, 0, 57, 60
2, 2156, Note_on_c, 0, 64, 76
2, 2188, Note_on_c, 0, 55, 39
2, 2192, Note_on_c, 0, 57, 0
2, 2206, Note_on_c, 0, 64, 0
2, 2233, Note_on_c, 0, 55, 0
2, 2253, Note_on_c, 0, 67, 74
2, 2337, Note_on_c, 0, 67, 0
2, 2349, Note_on_c, 0, 72, 74
2, 2443, Note_on_c, 0, 72, 0
2, 2448, Note_on_c, 0, 76, 76
2, 2453, Note_on_c, 0, 43, 75
2, 2484, Note_on_c, 0, 43, 0
2, 2553, Note_on_c, 0, 76, 0
2, 2559, Note_on_c, 0, 72, 77
2, 2622, Note_on_c, 0, 72, 0
2, 2650, Note_on_c, 0, 67, 67
2, 2724, Note_on_c, 0, 67, 0
2, 2748, Note_on_c, 0, 72, 68
2, 2829, Note_on_c, 0, 72, 0
2, 2854, Note_on_c, 0, 67, 68
2, 2902, Note_on_c, 0, 67, 0
2, 2933, Note_on_c, 0, 64, 70
2, 2996, Note_on_c, 0, 64, 0
2, 3037, Note_on_c, 0, 67, 72
2, 3045, Note_on_c, 0, 55, 73
2, 3077, Note_on_c, 0, 55, 0
2, 3127, Note_on_c, 0, 67, 0
2, 3151, Note_on_c, 0, 64, 66
2, 3233, Note_on_c, 0, 64, 0
2, 3244, Note_on_c, 0, 60, 70
2, 3331, Note_on_c, 0, 60, 0
2, 3343, Note_on_c, 0, 55, 77
2, 3351, Note_on_c, 0, 57, 73
2, 3388, Note_on_c, 0, 55, 0
2, 3423, Note_on_c, 0, 57, 0
2, 3449, Note_on_c, 0, 60, 71
2, 3532, Note_on_c, 0, 60, 0
2, 3542, Note_on_c, 0, 66, 70
2, 3649, Note_on_c, 0, 66, 0
2, 3652, Note_on_c, 0, 69, 73
2, 3655, Note_on_c, 0, 43, 69
2, 3689, Note_on_c, 0, 43, 0
2, 3762, Note_on_c, 0, 69, 0
2, 3773, Note_on_c, 0, 66, 63
2, 3834, Note_on_c, 0, 66, 0
2, 3853, Note_on_c, 0, 60, 68
2, 3929, Note_on_c, 0, 60, 0
2, 3962, Note_on_c, 0, 66, 64
2, 4034, Note_on_c, 0, 66, 0
2, 4058, Note_on_c, 0, 60, 58
2, 4105, Note_on_c, 0, 60, 0
2, 4141, Note_on_c, 0, 57, 62
2, 4222, Note_on_c, 0, 57, 0
2, 4255, Note_on_c, 0, 55, 59
2, 4259, Note_on_c, 0, 60, 50
2, 4284, Note_on_c, 0, 55, 0
2, 4328, Note_on_c, 0, 60, 0
2, 4367, Note_on_c, 0, 57, 54
2, 4430, Note_on_c, 0, 57, 0
2, 4461, Note_on_c, 0, 54, 61
2, 4511, Note_on_c, 0, 54, 0
2, 4555, Note_on_c, 0, 55, 70
2, 4595, Note_on_c, 0, 55, 0
2, 4676, Note_on_c, 0, 59, 60
2, 4733, Note_on_c, 0, 59, 0
2, 4772, Note_on_c, 0, 62, 53
2, 4840, Note_on_c, 0, 62, 0
2, 4864, Note_on_c, 0, 43, 58
2, 4869, Note_on_c, 0, 67, 54
2, 4905, Note_on_c, 0, 43, 0
2, 4958, Note_on_c, 0, 67, 0
2, 4986, Note_on_c, 0, 62, 56
2, 5044, Note_on_c, 0, 62, 0
2, 5074, Note_on_c, 0, 59, 64
2, 5155, Note_on_c, 0, 59, 0
2, 5182, Note_on_c, 0, 62, 62
2, 5242, Note_on_c, 0, 62, 0
2, 5266, Note_on_c, 0, 59, 66
2, 5318, Note_on_c, 0, 59, 0
2, 5361, Note_on_c, 0, 55, 68
2, 5406, Note_on_c, 0, 55, 0
2, 5458, Note_on_c, 0, 55, 79
2, 5465, Note_on_c, 0, 59, 74
2, 5494, Note_on_c, 0, 55, 0
2, 5562, Note_on_c, 0, 59, 0
2, 5564, Note_on_c, 0, 55, 71
2, 5661, Note_on_c, 0, 55, 0
2, 5663, Note_on_c, 0, 52, 73
2, 5701, Note_on_c, 0, 52, 0
2, 5770, Note_on_c, 0, 55, 79
2, 5780, Note_on_c, 0, 57, 72
2, 5813, Note_on_c, 0, 55, 0
2, 5885, Note_on_c, 0, 61, 76
2, 5888, Note_on_c, 0, 57, 0
2, 5991, Note_on_c, 0, 64, 74
2, 6002, Note_on_c, 0, 61, 0
2, 6069, Note_on_c, 0, 43, 74
2, 6075, Note_on_c, 0, 64, 0
2, 6081, Note_on_c, 0, 69, 80
2, 6099, Note_on_c, 0, 43, 0
2, 6187, Note_on_c, 0, 69, 0
2, 6189, Note_on_c, 0, 64, 76
2, 6264, Note_on_c, 0, 64, 0
2, 6278, Note_on_c, 0, 61, 76
2, 6363, Note_on_c, 0, 61, 0
2, 6380, Note_on_c, 0, 64, 72
2, 6459, Note_on_c, 0, 64, 0
2, 6464, Note_on_c, 0, 61, 70
2, 6536, Note_on_c, 0, 61, 0
2, 6561, Note_on_c, 0, 57, 67
2, 6642, Note_on_c, 0, 57, 0
2, 6655, Note_on_c, 0, 55, 66
2, 6667, Note_on_c, 0, 61, 68
2, 6686, Note_on_c, 0, 55, 0
2, 6736, Note_on_c, 0, 61, 0
2, 6756, Note_on_c, 0, 57, 63
2, 6826, Note_on_c, 0, 57, 0
2, 6848, Note_on_c, 0, 52, 63
2, 6923, Note_on_c, 0, 52, 0
2, 6964, Note_on_c, 0, 54, 60
2, 7001, Note_on_c, 0, 62, 20
2, 7054, Note_on_c, 0, 62, 0
2, 7084, Note_on_c, 0, 57, 58
2, 7087, Note_on_c, 0, 54, 0
2, 7174, Note_on_c, 0, 57, 0
2, 7176, Note_on_c, 0, 61, 70
2, 7256, Note_on_c, 0, 61, 0
2, 7271, Note_on_c, 0, 62, 67
2, 7344, Note_on_c, 0, 62, 0
2, 7359, Note_on_c, 0, 57, 69
2, 7455, Note_on_c, 0, 57, 0
2, 7464, Note_on_c, 0, 54, 77
2, 7554, Note_on_c, 0, 54, 0
2, 7565, Note_on_c, 0, 57, 67
2, 7645, Note_on_c, 0, 57, 0
2, 7648, Note_on_c, 0, 54, 72
2, 7733, Note_on_c, 0, 54, 0
2, 7737, Note_on_c, 0, 50, 72
2, 7826, Note_on_c, 0, 50, 0
2, 7851, Note_on_c, 0, 62, 86
2, 7852, Note_on_c, 0, 54, 74
2, 7877, Note_on_c, 0, 62, 0
2, 7928, Note_on_c, 0, 54, 0
2, 7933, Note_on_c, 0, 50, 69
2, 8021, Note_on_c, 0, 50, 0
2, 8042, Note_on_c, 0, 47, 64
2, 8133, Note_on_c, 0, 47, 0
2, 8169, Note_on_c, 0, 52, 64
2, 8174, Note_on_c, 0, 62, 66
2, 8208, Note_on_c, 0, 52, 0
2, 8231, Note_on_c, 0, 62, 0
2, 8280, Note_on_c, 0, 61, 58
2, 8349, Note_on_c, 0, 61, 0
2, 8384, Note_on_c, 0, 62, 50
2, 8429, Note_on_c, 0, 62, 0
2, 8475, Note_on_c, 0, 40, 57
2, 8483, Note_on_c, 0, 64, 59
2, 8515, Note_on_c, 0, 40, 0
2, 8535, Note_on_c, 0, 64, 0
2, 8593, Note_on_c, 0, 61, 52
2, 8643, Note_on_c, 0, 61, 0
2, 8689, Note_on_c, 0, 62, 50
2, 8754, Note_on_c, 0, 62, 0
2, 8784, Note_on_c, 0, 66, 59
2, 8839, Note_on_c, 0, 66, 0
2, 8885, Note_on_c, 0, 61, 56
2, 8940, Note_on_c, 0, 61, 0
2, 8977, Note_on_c, 0, 62, 60
2, 9024, Note_on_c, 0, 62, 0
2, 9079, Note_on_c, 0, 52, 64
2, 9094, Note_on_c, 0, 67, 64
2, 9118, Note_on_c, 0, 52, 0
2, 9161, Note_on_c, 0, 67, 0
2, 9189, Note_on_c, 0, 61, 63
2, 9243, Note_on_c, 0, 61, 0
2, 9288, Note_on_c, 0, 62, 63
2, 9399, Note_on_c, 0, 69, 81
2, 9407, Note_on_c, 0, 49, 65
2, 9410, Note_on_c, 0, 62, 0
2, 9447, Note_on_c, 0, 49, 0
2, 9502, Note_on_c, 0, 69, 0
2, 9504, Note_on_c, 0, 61, 69
2, 9581, Note_on_c, 0, 61, 0
2, 9593, Note_on_c, 0, 62, 70
2, 9686, Note_on_c, 0, 62, 0
2, 9714, Note_on_c, 0, 71, 82
2, 9722, Note_on_c, 0, 45, 68
2, 9761, Note_on_c, 0, 45, 0
2, 9788, Note_on_c, 0, 71, 0
2, 9827, Note_on_c, 0, 61, 74
2, 9911, Note_on_c, 0, 61, 0
2, 9948, Note_on_c, 0, 62, 58
2, 10048, Note_on_c, 0, 69, 71
2, 10055, Note_on_c, 0, 62, 0
2, 10059, Note_on_c, 0, 47, 58
2, 10094, Note_on_c, 0, 47, 0
2, 10113, Note_on_c, 0, 69, 0
2, 10149, Note_on_c, 0, 61, 62
2, 10204, Note_on_c, 0, 61, 0
2, 10242, Note_on_c, 0, 62, 55
2, 10358, Note_on_c, 0, 67, 59
2, 10361, Note_on_c, 0, 62, 0
2, 10376, Note_on_c, 0, 49, 63
2, 10408, Note_on_c, 0, 49, 0
2, 10413, Note_on_c, 0, 67, 0
2, 10457, Note_on_c, 0, 61, 50
2, 10503, Note_on_c, 0, 61, 0
2, 10544, Note_on_c, 0, 62, 50
2, 10633, Note_on_c, 0, 62, 0
2, 10671, Note_on_c, 0, 50, 68
2, 10676, Note_on_c, 0, 66, 61
2, 10705, Note_on_c, 0, 50, 0
2, 10718, Note_on_c, 0, 66, 0
2, 10809, Note_on_c, 0, 61, 52
2, 10863, Note_on_c, 0, 61, 0
2, 10902, Note_on_c, 0, 62, 54
2, 10956, Note_on_c, 0, 62, 0
2, 10996, Note_on_c, 0, 52, 63
2, 11007, Note_on_c, 0, 67, 64
2, 11041, Note_on_c, 0, 52, 0
2, 11044, Note_on_c, 0, 67, 0
2, 11101, Note_on_c, 0, 61, 63
2, 11158, Note_on_c, 0, 61, 0
2, 11208, Note_on_c, 0, 62, 59
2, 11270, Note_on_c, 0, 62, 0
2, 11312, Note_on_c, 0, 69, 84
2, 11321, Note_on_c, 0, 54, 62
2, 11352, Note_on_c, 0, 69, 0
2, 11415, Note_on_c, 0, 54, 0
2, 11427, Note_on_c, 0, 61, 62
2, 11499, Note_on_c, 0, 61, 0
2, 11526, Note_on_c, 0, 62, 63
2, 11603, Note_on_c, 0, 62, 0
2, 11636, Note_on_c, 0, 71, 86
2, 11645, Note_on_c, 0, 55, 65
2, 11686, Note_on_c, 0, 71, 0
2, 11719, Note_on_c, 0, 55, 0
2, 11754, Note_on_c, 0, 61, 65
2, 11817, Note_on_c, 0, 61, 0
2, 11867, Note_on_c, 0, 62, 64
2, 11927, Note_on_c, 0, 62, 0
2, 11965, Note_on_c, 0, 69, 89
2, 11972, Note_on_c, 0, 54, 68
2, 12008, Note_on_c, 0, 69, 0
2, 12052, Note_on_c, 0, 54, 0
2, 12080, Note_on_c, 0, 61, 64
2, 12132, Note_on_c, 0, 61, 0
2, 12185, Note_on_c, 0, 62, 65
2, 12265, Note_on_c, 0, 62, 0
2, 12303, Note_on_c, 0, 67, 79
2, 12309, Note_on_c, 0, 52, 63
2, 12341, Note_on_c, 0, 67, 0
2, 12360, Note_on_c, 0, 52, 0
2, 12414, Note_on_c, 0, 61, 68
2, 12459, Note_on_c, 0, 61, 0
2, 12506, Note_on_c, 0, 62, 67
2, 12569, Note_on_c, 0, 62, 0
2, 12614, Note_on_c, 0, 66, 85
2, 12622, Note_on_c, 0, 50, 66
2, 12661, Note_on_c, 0, 66, 0
2, 12663, Note_on_c, 0, 50, 0
2, 12726, Note_on_c, 0, 61, 65
2, 12788, Note_on_c, 0, 61, 0
2, 12822, Note_on_c, 0, 62, 67
2, 12906, Note_on_c, 0, 62, 0
2, 12926, Note_on_c, 0, 54, 74
2, 12938, Note_on_c, 0, 69, 89
2, 12978, Note_on_c, 0, 69, 0
2, 13015, Note_on_c, 0, 54, 0
2, 13034, Note_on_c, 0, 61, 71
2, 13114, Note_on_c, 0, 61, 0
2, 13133, Note_on_c, 0, 62, 70
2, 13169, Note_on_c, 0, 62, 0
2, 13249, Note_on_c, 0, 68, 88
2, 13262, Note_on_c, 0, 47, 83
2, 13340, Note_on_c, 0, 68, 0
2, 13357, Note_on_c, 0, 71, 84
2, 13467, Note_on_c, 0, 74, 81
2, 13498, Note_on_c, 0, 71, 0
2, 13551, Note_on_c, 0, 47, 0
2, 13569, Note_on_c, 0, 77, 85
2, 13571, Note_on_c, 0, 59, 93
2, 13578, Note_on_c, 0, 74, 0
2, 13605, Note_on_c, 0, 59, 0
2, 13686, Note_on_c, 0, 74, 73
2, 13688, Note_on_c, 0, 77, 0
2, 13766, Note_on_c, 0, 74, 0
2, 13790, Note_on_c, 0, 71, 75
2, 13834, Note_on_c, 0, 71, 0
2, 13889, Note_on_c, 0, 74, 74
2, 13980, Note_on_c, 0, 74, 0
2, 13981, Note_on_c, 0, 71, 75
2, 14072, Note_on_c, 0, 71, 0
2, 14085, Note_on_c, 0, 68, 78
2, 14166, Note_on_c, 0, 57, 75
2, 14168, Note_on_c, 0, 68, 0
2, 14185, Note_on_c, 0, 71, 76
2, 14200, Note_on_c, 0, 57, 0
2, 14278, Note_on_c, 0, 71, 0
2, 14280, Note_on_c, 0, 68, 81
2, 14355, Note_on_c, 0, 68, 0
2, 14382, Note_on_c, 0, 64, 70
2, 14481, Note_on_c, 0, 56, 88
2, 14481, Note_on_c, 0, 64, 0
2, 14483, Note_on_c, 0, 62, 80
2, 14563, Note_on_c, 0, 62, 0
2, 14592, Note_on_c, 0, 65, 76
2, 14686, Note_on_c, 0, 68, 81
2, 14707, Note_on_c, 0, 65, 0
2, 14778, Note_on_c, 0, 44, 80
2, 14784, Note_on_c, 0, 68, 0
2, 14786, Note_on_c, 0, 71, 78
2, 14791, Note_on_c, 0, 56, 0
2, 14813, Note_on_c, 0, 44, 0
2, 14894, Note_on_c, 0, 68, 78
2, 14898, Note_on_c, 0, 71, 0
2, 14977, Note_on_c, 0, 68, 0
2, 14997, Note_on_c, 0, 65, 71
2, 15083, Note_on_c, 0, 65, 0
2, 15095, Note_on_c, 0, 68, 81
2, 15181, Note_on_c, 0, 68, 0
2, 15201, Note_on_c, 0, 65, 66
2, 15260, Note_on_c, 0, 65, 0
2, 15281, Note_on_c, 0, 62, 65
2, 15337, Note_on_c, 0, 62, 0
2, 15376, Note_on_c, 0, 56, 68
2, 15385, Note_on_c, 0, 65, 60
2, 15414, Note_on_c, 0, 56, 0
2, 15443, Note_on_c, 0, 65, 0
2, 15491, Note_on_c, 0, 62, 54
2, 15551, Note_on_c, 0, 62, 0
2, 15567, Note_on_c, 0, 59, 63
2, 15639, Note_on_c, 0, 59, 0
2, 15682, Note_on_c, 0, 60, 61
2, 15696, Note_on_c, 0, 57, 54
2, 15726, Note_on_c, 0, 60, 0
2, 15758, Note_on_c, 0, 57, 0
2, 15879, Note_on_c, 0, 64, 68
2, 15952, Note_on_c, 0, 64, 0
2, 15980, Note_on_c, 0, 69, 68
2, 15984, Note_on_c, 0, 77, 71
2, 16014, Note_on_c, 0, 77, 0
2, 16032, Note_on_c, 0, 69, 0
2, 16081, Note_on_c, 0, 64, 70
2, 16136, Note_on_c, 0, 64, 0
2, 16186, Note_on_c, 0, 60, 61
2, 16251, Note_on_c, 0, 60, 0
2, 16281, Note_on_c, 0, 72, 77
2, 16283, Note_on_c, 0, 64, 67
2, 16318, Note_on_c, 0, 72, 0
2, 16341, Note_on_c, 0, 64, 0
2, 16387, Note_on_c, 0, 60, 69
2, 16461, Note_on_c, 0, 60, 0
2, 16489, Note_on_c, 0, 57, 65
2, 16568, Note_on_c, 0, 57, 0
2, 16599, Note_on_c, 0, 69, 83
2, 16602, Note_on_c, 0, 60, 71
2, 16630, Note_on_c, 0, 69, 0
2, 16661, Note_on_c, 0, 60, 0
2, 16697, Note_on_c, 0, 57, 70
2, 16767, Note_on_c, 0, 57, 0
2, 16789, Note_on_c, 0, 52, 66
2, 16901, Note_on_c, 0, 52, 0
2, 16914, Note_on_c, 0, 64, 80
2, 16915, Note_on_c, 0, 48, 67
2, 16957, Note_on_c, 0, 64, 0
2, 17003, Note_on_c, 0, 48, 0
2, 17024, Note_on_c, 0, 52, 47
2, 17040, Note_on_c, 0, 53, 57
2, 17079, Note_on_c, 0, 53, 0
2, 17085, Note_on_c, 0, 52, 0
2, 17109, Note_on_c, 0, 57, 75
2, 17196, Note_on_c, 0, 57, 0
2, 17218, Note_on_c, 0, 60, 71
2, 17223, Note_on_c, 0, 76, 87
2, 17271, Note_on_c, 0, 76, 0
2, 17284, Note_on_c, 0, 60, 0
2, 17317, Note_on_c, 0, 57, 77
2, 17395, Note_on_c, 0, 57, 0
2, 17423, Note_on_c, 0, 52, 68
2, 17511, Note_on_c, 0, 52, 0
2, 17532, Note_on_c, 0, 72, 90
2, 17538, Note_on_c, 0, 57, 67
2, 17580, Note_on_c, 0, 72, 0
2, 17612, Note_on_c, 0, 57, 0
2, 17633, Note_on_c, 0, 52, 81
2, 17725, Note_on_c, 0, 52, 0
2, 17734, Note_on_c, 0, 48, 72
2, 17822, Note_on_c, 0, 48, 0
2, 17845, Note_on_c, 0, 52, 76
2, 17853, Note_on_c, 0, 69, 91
2, 17888, Note_on_c, 0, 69, 0
2, 17931, Note_on_c, 0, 52, 0
2, 17936, Note_on_c, 0, 48, 74
2, 18027, Note_on_c, 0, 45, 74
2, 18030, Note_on_c, 0, 48, 0
2, 18149, Note_on_c, 0, 45, 0
2, 18159, Note_on_c, 0, 42, 83
2, 18159, Note_on_c, 0, 75, 89
2, 18258, Note_on_c, 0, 78, 84
2, 18264, Note_on_c, 0, 75, 0
2, 18369, Note_on_c, 0, 81, 82
2, 18387, Note_on_c, 0, 78, 0
2, 18458, Note_on_c, 0, 42, 0
2, 18466, Note_on_c, 0, 54, 92
2, 18468, Note_on_c, 0, 84, 82
2, 18470, Note_on_c, 0, 81, 0
2, 18510, Note_on_c, 0, 54, 0
2, 18571, Note_on_c, 0, 81, 84
2, 18579, Note_on_c, 0, 84, 0
2, 18670, Note_on_c, 0, 78, 82
2, 18672, Note_on_c, 0, 81, 0
2, 18784, Note_on_c, 0, 81, 75
2, 18786, Note_on_c, 0, 78, 0
2, 18875, Note_on_c, 0, 78, 71
2, 18895, Note_on_c, 0, 81, 0
2, 18960, Note_on_c, 0, 75, 79
2, 18970, Note_on_c, 0, 78, 0
2, 19055, Note_on_c, 0, 75, 0
2, 19056, Note_on_c, 0, 52, 82
2, 19056, Note_on_c, 0, 78, 81
2, 19087, Note_on_c, 0, 52, 0
2, 19159, Note_on_c, 0, 75, 81
2, 19186, Note_on_c, 0, 78, 0
2, 19243, Note_on_c, 0, 75, 0
2, 19253, Note_on_c, 0, 71, 80
2, 19359, Note_on_c, 0, 71, 0
2, 19363, Note_on_c, 0, 69, 82
2, 19366, Note_on_c, 0, 51, 89
2, 19430, Note_on_c, 0, 69, 0
2, 19466, Note_on_c, 0, 72, 88
2, 19572, Note_on_c, 0, 75, 83
2, 19596, Note_on_c, 0, 72, 0
2, 19668, Note_on_c, 0, 39, 77
2, 19674, Note_on_c, 0, 75, 0
2, 19674, Note_on_c, 0, 78, 84
2, 19677, Note_on_c, 0, 51, 0
2, 19709, Note_on_c, 0, 39, 0
2, 19778, Note_on_c, 0, 75, 78
2, 19809, Note_on_c, 0, 78, 0
2, 19864, Note_on_c, 0, 72, 82
2, 19870, Note_on_c, 0, 75, 0
2, 19965, Note_on_c, 0, 75, 82
2, 19967, Note_on_c, 0, 72, 0
2, 20036, Note_on_c, 0, 76, 10
2, 20050, Note_on_c, 0, 76, 0
2, 20062, Note_on_c, 0, 72, 79
2, 20096, Note_on_c, 0, 75, 0
2, 20144, Note_on_c, 0, 72, 0
2, 20152, Note_on_c, 0, 69, 76
2, 20223, Note_on_c, 0, 69, 0
2, 20252, Note_on_c, 0, 72, 76
2, 20259, Note_on_c, 0, 51, 70
2, 20296, Note_on_c, 0, 51, 0
2, 20329, Note_on_c, 0, 72, 0
2, 20357, Note_on_c, 0, 69, 64
2, 20414, Note_on_c, 0, 69, 0
2, 20429, Note_on_c, 0, 66, 63
2, 20513, Note_on_c, 0, 66, 0
2, 20543, Note_on_c, 0, 67, 63
2, 20546, Note_on_c, 0, 52, 60
2, 20581, Note_on_c, 0, 67, 0
2, 20589, Note_on_c, 0, 52, 0
2, 20759, Note_on_c, 0, 64, 58
2, 20807, Note_on_c, 0, 64, 0
2, 20850, Note_on_c, 0, 54, 62
2, 20864, Note_on_c, 0, 69, 67
2, 20899, Note_on_c, 0, 69, 0
2, 20964, Note_on_c, 0, 63, 55
2, 20974, Note_on_c, 0, 54, 0
2, 21026, Note_on_c, 0, 63, 0
2, 21062, Note_on_c, 0, 64, 56
2, 21118, Note_on_c, 0, 64, 0
2, 21164, Note_on_c, 0, 71, 70
2, 21172, Note_on_c, 0, 55, 59
2, 21197, Note_on_c, 0, 71, 0
2, 21245, Note_on_c, 0, 55, 0
2, 21290, Note_on_c, 0, 63, 45
2, 21338, Note_on_c, 0, 63, 0
2, 21370, Note_on_c, 0, 64, 54
2, 21431, Note_on_c, 0, 64, 0
2, 21493, Note_on_c, 0, 72, 76
2, 21503, Note_on_c, 0, 57, 48
2, 21528, Note_on_c, 0, 72, 0
2, 21549, Note_on_c, 0, 57, 0
2, 21605, Note_on_c, 0, 63, 56
2, 21667, Note_on_c, 0, 63, 0
2, 21704, Note_on_c, 0, 64, 54
2, 21771, Note_on_c, 0, 64, 0
2, 21812, Note_on_c, 0, 55, 61
2, 21812, Note_on_c, 0, 71, 78
2, 21844, Note_on_c, 0, 71, 0
2, 21866, Note_on_c, 0, 55, 0
2, 21914, Note_on_c, 0, 63, 65
2, 21969, Note_on_c, 0, 63, 0
2, 22031, Note_on_c, 0, 64, 57
2, 22088, Note_on_c, 0, 64, 0
2, 22128, Note_on_c, 0, 69, 86
2, 22131, Note_on_c, 0, 54, 68
2, 22167, Note_on_c, 0, 69, 0
2, 22195, Note_on_c, 0, 54, 0
2, 22242, Note_on_c, 0, 63, 66
2, 22301, Note_on_c, 0, 63, 0
2, 22337, Note_on_c, 0, 64, 68
2, 22390, Note_on_c, 0, 64, 0
2, 22443, Note_on_c, 0, 67, 81
2, 22448, Note_on_c, 0, 52, 59
2, 22481, Note_on_c, 0, 52, 0
2, 22495, Note_on_c, 0, 67, 0
2, 22555, Note_on_c, 0, 63, 70
2, 22655, Note_on_c, 0, 64, 61
2, 22671, Note_on_c, 0, 63, 0
2, 22707, Note_on_c, 0, 64, 0
2, 22748, Note_on_c, 0, 55, 71
2, 22753, Note_on_c, 0, 71, 86
2, 22799, Note_on_c, 0, 71, 0
2, 22800, Note_on_c, 0, 55, 0
2, 22842, Note_on_c, 0, 63, 70
2, 22888, Note_on_c, 0, 63, 0
2, 22945, Note_on_c, 0, 64, 70
2, 22974, Note_on_c, 0, 64, 0
2, 23049, Note_on_c, 0, 49, 73
2, 23079, Note_on_c, 0, 69, 62
2, 23084, Note_on_c, 0, 49, 0
2, 23126, Note_on_c, 0, 69, 0
2, 23164, Note_on_c, 0, 68, 57
2, 23217, Note_on_c, 0, 68, 0
2, 23261, Note_on_c, 0, 69, 53
2, 23314, Note_on_c, 0, 69, 0
2, 23351, Note_on_c, 0, 71, 58
2, 23374, Note_on_c, 0, 50, 52
2, 23400, Note_on_c, 0, 71, 0
2, 23409, Note_on_c, 0, 50, 0
2, 23452, Note_on_c, 0, 68, 58
2, 23498, Note_on_c, 0, 68, 0
2, 23546, Note_on_c, 0, 69, 59
2, 23629, Note_on_c, 0, 69, 0
2, 23657, Note_on_c, 0, 73, 61
2, 23669, Note_on_c, 0, 52, 59
2, 23707, Note_on_c, 0, 52, 0
2, 23721, Note_on_c, 0, 73, 0
2, 23759, Note_on_c, 0, 68, 63
2, 23821, Note_on_c, 0, 68, 0
2, 23861, Note_on_c, 0, 69, 67
2, 23920, Note_on_c, 0, 69, 0
2, 23975, Note_on_c, 0, 54, 72
2, 23975, Note_on_c, 0, 74, 75
2, 24017, Note_on_c, 0, 54, 0
2, 24068, Note_on_c, 0, 74, 0
2, 24078, Note_on_c, 0, 68, 76
2, 24164, Note_on_c, 0, 68, 0
2, 24182, Note_on_c, 0, 69, 80
2, 24286, Note_on_c, 0, 49, 77
2, 24294, Note_on_c, 0, 76, 81
2, 24308, Note_on_c, 0, 69, 0
2, 24336, Note_on_c, 0, 49, 0
2, 24399, Note_on_c, 0, 68, 79
2, 24405, Note_on_c, 0, 76, 0
2, 24477, Note_on_c, 0, 68, 0
2, 24491, Note_on_c, 0, 69, 81
2, 24596, Note_on_c, 0, 47, 78
2, 24602, Note_on_c, 0, 78, 83
2, 24612, Note_on_c, 0, 69, 0
2, 24644, Note_on_c, 0, 47, 0
2, 24691, Note_on_c, 0, 68, 80
2, 24713, Note_on_c, 0, 78, 0
2, 24734, Note_on_c, 0, 68, 0
2, 24795, Note_on_c, 0, 69, 80
2, 24890, Note_on_c, 0, 69, 0
2, 24919, Note_on_c, 0, 79, 85
2, 24920, Note_on_c, 0, 45, 60
2, 24974, Note_on_c, 0, 45, 0
2, 25019, Note_on_c, 0, 76, 78
2, 25037, Note_on_c, 0, 79, 0
2, 25115, Note_on_c, 0, 73, 83
2, 25148, Note_on_c, 0, 76, 0
2, 25211, Note_on_c, 0, 49, 76
2, 25219, Note_on_c, 0, 73, 0
2, 25220, Note_on_c, 0, 69, 79
2, 25247, Note_on_c, 0, 49, 0
2, 25324, Note_on_c, 0, 73, 84
2, 25331, Note_on_c, 0, 69, 0
2, 25422, Note_on_c, 0, 76, 78
2, 25490, Note_on_c, 0, 73, 0
2, 25538, Note_on_c, 0, 50, 63
2, 25540, Note_on_c, 0, 78, 85
2, 25558, Note_on_c, 0, 76, 0
2, 25636, Note_on_c, 0, 54, 75
2, 25639, Note_on_c, 0, 50, 0
2, 25698, Control_c, 0, 64, 42
2, 25718, Control_c, 0, 64, 62
2, 25737, Control_c, 0, 64, 66
2, 25742, Note_on_c, 0, 57, 76
2, 25745, Note_on_c, 0, 54, 0
2, 25757, Control_c, 0, 64, 69
2, 25776, Control_c, 0, 64, 72
2, 25796, Control_c, 0, 64, 78
2, 25814, Control_c, 0, 64, 83
2, 25834, Control_c, 0, 64, 88
2, 25834, Note_on_c, 0, 62, 77
2, 25839, Note_on_c, 0, 57, 0
2, 25853, Control_c, 0, 64, 89
2, 25865, Note_on_c, 0, 78, 0
2, 25871, Control_c, 0, 64, 90
2, 25910, Control_c, 0, 64, 90
2, 25930, Control_c, 0, 64, 89
2, 25930, Note_on_c, 0, 57, 80
2, 25944, Note_on_c, 0, 62, 0
2, 25948, Control_c, 0, 64, 88
2, 25968, Control_c, 0, 64, 87
2, 25987, Control_c, 0, 64, 86
2, 26007, Control_c, 0, 64, 84
2, 26017, Note_on_c, 0, 54, 81
2, 26025, Control_c, 0, 64, 82
2, 26045, Control_c, 0, 64, 77
2, 26059, Note_on_c, 0, 57, 0
2, 26064, Control_c, 0, 64, 69
2, 26083, Control_c, 0, 64, 57
2, 26102, Control_c, 0, 64, 0
2, 26124, Note_on_c, 0, 50, 70
2, 26125, Note_on_c, 0, 54, 0
2, 26138, Note_on_c, 0, 81, 81
2, 26172, Note_on_c, 0, 50, 0
2, 26238, Note_on_c, 0, 78, 76
2, 26241, Note_on_c, 0, 81, 0
2, 26344, Note_on_c, 0, 74, 72
2, 26397, Note_on_c, 0, 78, 0
2, 26433, Note_on_c, 0, 62, 70
2, 26437, Note_on_c, 0, 72, 81
2, 26439, Note_on_c, 0, 74, 0
2, 26467, Note_on_c, 0, 62, 0
2, 26546, Note_on_c, 0, 74, 82
2, 26575, Note_on_c, 0, 72, 0
2, 26649, Note_on_c, 0, 78, 85
2, 26694, Note_on_c, 0, 74, 0
2, 26754, Note_on_c, 0, 50, 64
2, 26768, Note_on_c, 0, 81, 84
2, 26805, Note_on_c, 0, 78, 0
2, 26858, Note_on_c, 0, 55, 74
2, 26861, Note_on_c, 0, 50, 0
2, 26964, Note_on_c, 0, 55, 0
2, 26967, Note_on_c, 0, 59, 78
2, 27062, Note_on_c, 0, 59, 0
2, 27070, Note_on_c, 0, 62, 72
2, 27076, Note_on_c, 0, 79, 84
2, 27099, Note_on_c, 0, 81, 0
2, 27130, Note_on_c, 0, 79, 0
2, 27165, Note_on_c, 0, 59, 79
2, 27170, Note_on_c, 0, 62, 0
2, 27264, Note_on_c, 0, 55, 69
2, 27264, Note_on_c, 0, 59, 0
2, 27358, Note_on_c, 0, 55, 0
2, 27376, Note_on_c, 0, 50, 68
2, 27394, Note_on_c, 0, 79, 73
2, 27428, Note_on_c, 0, 50, 0
2, 27474, Note_on_c, 0, 79, 0
2, 27496, Note_on_c, 0, 76, 66
2, 27578, Note_on_c, 0, 76, 0
2, 27600, Note_on_c, 0, 73, 69
2, 27680, Note_on_c, 0, 73, 0
2, 27699, Note_on_c, 0, 62, 62
2, 27709, Note_on_c, 0, 69, 62
2, 27737, Note_on_c, 0, 62, 0
2, 27801, Note_on_c, 0, 69, 0
2, 27813, Note_on_c, 0, 73, 67
2, 27900, Note_on_c, 0, 76, 68
2, 27919, Note_on_c, 0, 73, 0
2, 28001, Note_on_c, 0, 50, 61
2, 28023, Note_on_c, 0, 76, 0
2, 28023, Note_on_c, 0, 79, 70
2, 28053, Note_on_c, 0, 50, 0
2, 28096, Note_on_c, 0, 57, 63
2, 28181, Note_on_c, 0, 57, 0
2, 28198, Note_on_c, 0, 61, 61
2, 28274, Note_on_c, 0, 61, 0
2, 28307, Note_on_c, 0, 62, 59
2, 28310, Note_on_c, 0, 79, 0
2, 28317, Note_on_c, 0, 78, 61
2, 28360, Note_on_c, 0, 78, 0
2, 28363, Note_on_c, 0, 62, 0
2, 28402, Note_on_c, 0, 57, 66
2, 28498, Note_on_c, 0, 57, 0
2, 28503, Note_on_c, 0, 54, 65
2, 28591, Note_on_c, 0, 54, 0
2, 28620, Note_on_c, 0, 50, 49
2, 28626, Note_on_c, 0, 78, 60
2, 28662, Note_on_c, 0, 50, 0
2, 28684, Note_on_c, 0, 78, 0
2, 28724, Note_on_c, 0, 74, 56
2, 28802, Note_on_c, 0, 74, 0
2, 28831, Note_on_c, 0, 71, 60
2, 28893, Note_on_c, 0, 71, 0
2, 28931, Note_on_c, 0, 62, 51
2, 28935, Note_on_c, 0, 67, 53
2, 28963, Note_on_c, 0, 62, 0
2, 28997, Note_on_c, 0, 67, 0
2, 29028, Note_on_c, 0, 71, 64
2, 29122, Note_on_c, 0, 71, 0
2, 29126, Note_on_c, 0, 74, 61
2, 29224, Note_on_c, 0, 74, 0
2, 29225, Note_on_c, 0, 50, 51
2, 29248, Note_on_c, 0, 78, 61
2, 29303, Note_on_c, 0, 50, 0
2, 29324, Note_on_c, 0, 52, 54
2, 29405, Note_on_c, 0, 52, 0
2, 29443, Note_on_c, 0, 55, 52
2, 29506, Note_on_c, 0, 55, 0
2, 29535, Note_on_c, 0, 59, 58
2, 29537, Note_on_c, 0, 76, 59
2, 29545, Note_on_c, 0, 78, 0
2, 29577, Note_on_c, 0, 76, 0
2, 29593, Note_on_c, 0, 59, 0
2, 29624, Note_on_c, 0, 55, 60
2, 29693, Note_on_c, 0, 55, 0
2, 29739, Note_on_c, 0, 52, 42
2, 29799, Note_on_c, 0, 52, 0
2, 29820, Note_on_c, 0, 50, 61
2, 29830, Note_on_c, 0, 76, 62
2, 29872, Note_on_c, 0, 50, 0
2, 29916, Note_on_c, 0, 76, 0
2, 29939, Note_on_c, 0, 73, 55
2, 30043, Note_on_c, 0, 69, 63
2, 30053, Note_on_c, 0, 73, 0
2, 30095, Note_on_c, 0, 69, 0
2, 30132, Note_on_c, 0, 62, 58
2, 30139, Note_on_c, 0, 67, 61
2, 30172, Note_on_c, 0, 62, 0
2, 30207, Note_on_c, 0, 67, 0
2, 30234, Note_on_c, 0, 69, 64
2, 30320, Note_on_c, 0, 69, 0
2, 30335, Note_on_c, 0, 73, 61
2, 30435, Note_on_c, 0, 50, 52
2, 30444, Note_on_c, 0, 73, 0
2, 30463, Note_on_c, 0, 76, 58
2, 30525, Note_on_c, 0, 50, 0
2, 30551, Note_on_c, 0, 54, 56
2, 30625, Note_on_c, 0, 54, 0
2, 30661, Note_on_c, 0, 57, 55
2, 30723, Note_on_c, 0, 57, 0
2, 30729, Note_on_c, 0, 76, 0
2, 30759, Note_on_c, 0, 74, 51
2, 30765, Note_on_c, 0, 62, 54
2, 30825, Note_on_c, 0, 62, 0
2, 30856, Note_on_c, 0, 74, 0
2, 30864, Note_on_c, 0, 57, 61
2, 30918, Note_on_c, 0, 57, 0
2, 30954, Note_on_c, 0, 54, 68
2, 31040, Note_on_c, 0, 54, 0
2, 31052, Note_on_c, 0, 57, 70
2, 31137, Note_on_c, 0, 57, 0
2, 31148, Note_on_c, 0, 54, 67
2, 31239, Note_on_c, 0, 54, 0
2, 31244, Note_on_c, 0, 50, 70
2, 31332, Note_on_c, 0, 50, 0
2, 31355, Note_on_c, 0, 54, 72
2, 31359, Note_on_c, 0, 74, 68
2, 31394, Note_on_c, 0, 74, 0
2, 31435, Note_on_c, 0, 50, 64
2, 31435, Note_on_c, 0, 54, 0
2, 31531, Note_on_c, 0, 50, 0
2, 31536, Note_on_c, 0, 48, 59
2, 31654, Note_on_c, 0, 48, 0
2, 31679, Note_on_c, 0, 47, 57
2, 31681, Note_on_c, 0, 74, 62
2, 31786, Note_on_c, 0, 72, 66
2, 31790, Note_on_c, 0, 50, 55
2, 31794, Note_on_c, 0, 47, 0
2, 31859, Note_on_c, 0, 74, 0
2, 31860, Note_on_c, 0, 50, 0
2, 31875, Note_on_c, 0, 71, 75
2, 31882, Note_on_c, 0, 54, 69
2, 31884, Note_on_c, 0, 72, 0
2, 31914, Note_on_c, 0, 71, 0
2, 31958, Note_on_c, 0, 54, 0
2, 31984, Note_on_c, 0, 55, 64
2, 31993, Note_on_c, 0, 71, 78
2, 32064, Note_on_c, 0, 55, 0
2, 32072, Note_on_c, 0, 50, 72
2, 32079, Note_on_c, 0, 69, 80
2, 32139, Note_on_c, 0, 71, 0
2, 32155, Note_on_c, 0, 50, 0
2, 32170, Note_on_c, 0, 67, 73
2, 32174, Note_on_c, 0, 47, 70
2, 32177, Note_on_c, 0, 69, 0
2, 32204, Note_on_c, 0, 67, 0
2, 32252, Note_on_c, 0, 47, 0
2, 32274, Note_on_c, 0, 50, 73
2, 32275, Note_on_c, 0, 67, 74
2, 32358, Note_on_c, 0, 50, 0
2, 32367, Note_on_c, 0, 71, 80
2, 32369, Note_on_c, 0, 47, 75
2, 32373, Note_on_c, 0, 67, 0
2, 32470, Note_on_c, 0, 47, 0
2, 32473, Note_on_c, 0, 74, 77
2, 32474, Note_on_c, 0, 43, 74
2, 32493, Note_on_c, 0, 71, 0
2, 32564, Note_on_c, 0, 43, 0
2, 32571, Note_on_c, 0, 74, 0
2, 32573, Note_on_c, 0, 77, 77
2, 32575, Note_on_c, 0, 47, 75
2, 32658, Note_on_c, 0, 43, 71
2, 32665, Note_on_c, 0, 76, 80
2, 32666, Note_on_c, 0, 47, 0
2, 32700, Note_on_c, 0, 77, 0
2, 32761, Note_on_c, 0, 74, 76
2, 32763, Note_on_c, 0, 43, 0
2, 32764, Note_on_c, 0, 41, 72
2, 32772, Note_on_c, 0, 76, 0
2, 32795, Note_on_c, 0, 74, 0
2, 32851, Note_on_c, 0, 41, 0
2, 32863, Note_on_c, 0, 40, 76
2, 32865, Note_on_c, 0, 74, 87
2, 32949, Note_on_c, 0, 43, 71
2, 32951, Note_on_c, 0, 40, 0
2, 32967, Note_on_c, 0, 76, 87
2, 32984, Note_on_c, 0, 74, 0
2, 33045, Note_on_c, 0, 43, 0
2, 33061, Note_on_c, 0, 47, 68
2, 33073, Note_on_c, 0, 76, 0
2, 33077, Note_on_c, 0, 77, 76
2, 33138, Note_on_c, 0, 47, 0
2, 33157, Note_on_c, 0, 48, 69
2, 33172, Note_on_c, 0, 77, 0
2, 33173, Note_on_c, 0, 76, 75
2, 33213, Note_on_c, 0, 48, 0
2, 33268, Note_on_c, 0, 52, 72
2, 33347, Note_on_c, 0, 76, 0
2, 33375, Note_on_c, 0, 55, 75
2, 33376, Note_on_c, 0, 52, 0
2, 33469, Note_on_c, 0, 55, 0
2, 33474, Note_on_c, 0, 60, 76
2, 33556, Note_on_c, 0, 60, 0
2, 33562, Note_on_c, 0, 55, 78
2, 33655, Note_on_c, 0, 52, 74
2, 33655, Note_on_c, 0, 55, 0
2, 33744, Note_on_c, 0, 52, 0
2, 33766, Note_on_c, 0, 55, 77
2, 33770, Note_on_c, 0, 76, 85
2, 33815, Note_on_c, 0, 76, 0
2, 33845, Note_on_c, 0, 52, 72
2, 33845, Note_on_c, 0, 55, 0
2, 33944, Note_on_c, 0, 52, 0
2, 33954, Note_on_c, 0, 50, 68
2, 34073, Note_on_c, 0, 50, 0
2, 34074, Note_on_c, 0, 76, 72
2, 34076, Note_on_c, 0, 49, 70
2, 34161, Note_on_c, 0, 49, 0
2, 34166, Note_on_c, 0, 52, 71
2, 34182, Note_on_c, 0, 74, 72
2, 34224, Note_on_c, 0, 76, 0
2, 34256, Note_on_c, 0, 73, 80
2, 34265, Note_on_c, 0, 74, 0
2, 34271, Note_on_c, 0, 55, 71
2, 34284, Note_on_c, 0, 52, 0
2, 34323, Note_on_c, 0, 73, 0
2, 34349, Note_on_c, 0, 55, 0
2, 34367, Note_on_c, 0, 57, 67
2, 34373, Note_on_c, 0, 73, 70
2, 34440, Note_on_c, 0, 57, 0
2, 34455, Note_on_c, 0, 71, 74
2, 34457, Note_on_c, 0, 52, 75
2, 34549, Note_on_c, 0, 69, 80
2, 34557, Note_on_c, 0, 49, 72
2, 34559, Note_on_c, 0, 52, 0
2, 34566, Note_on_c, 0, 73, 0
2, 34572, Note_on_c, 0, 71, 0
2, 34584, Note_on_c, 0, 69, 0
2, 34613, Note_on_c, 0, 49, 0
2, 34639, Note_on_c, 0, 52, 68
2, 34652, Note_on_c, 0, 69, 78
2, 34749, Note_on_c, 0, 52, 0
2, 34759, Note_on_c, 0, 73, 76
2, 34764, Note_on_c, 0, 50, 64
2, 34781, Note_on_c, 0, 69, 0
2, 34807, Note_on_c, 0, 50, 0
2, 34828, Note_on_c, 0, 46, 69
2, 34848, Note_on_c, 0, 76, 78
2, 34871, Note_on_c, 0, 73, 0
2, 34912, Note_on_c, 0, 46, 0
2, 34938, Note_on_c, 0, 49, 81
2, 34944, Note_on_c, 0, 76, 0
2, 34947, Note_on_c, 0, 79, 79
2, 35032, Note_on_c, 0, 45, 68
2, 35035, Note_on_c, 0, 78, 82
2, 35040, Note_on_c, 0, 49, 0
2, 35069, Note_on_c, 0, 79, 0
2, 35126, Note_on_c, 0, 43, 60
2, 35128, Note_on_c, 0, 45, 0
2, 35128, Note_on_c, 0, 76, 77
2, 35155, Note_on_c, 0, 78, 0
2, 35162, Note_on_c, 0, 76, 0
2, 35218, Note_on_c, 0, 42, 75
2, 35233, Note_on_c, 0, 76, 83
2, 35240, Note_on_c, 0, 43, 0
2, 35308, Note_on_c, 0, 42, 0
2, 35326, Note_on_c, 0, 78, 76
2, 35327, Note_on_c, 0, 45, 56
2, 35347, Note_on_c, 0, 76, 0
2, 35402, Note_on_c, 0, 45, 0
2, 35419, Note_on_c, 0, 79, 76
2, 35421, Note_on_c, 0, 49, 70
2, 35422, Note_on_c, 0, 78, 0
2, 35487, Note_on_c, 0, 49, 0
2, 35527, Note_on_c, 0, 79, 0
2, 35533, Note_on_c, 0, 78, 79
2, 35535, Note_on_c, 0, 50, 69
2, 35589, Note_on_c, 0, 50, 0
2, 35639, Note_on_c, 0, 54, 74
2, 35678, Note_on_c, 0, 78, 0
2, 35748, Note_on_c, 0, 54, 0
2, 35748, Note_on_c, 0, 57, 76
2, 35836, Note_on_c, 0, 57, 0
2, 35847, Note_on_c, 0, 62, 73
2, 35935, Note_on_c, 0, 57, 78
2, 35936, Note_on_c, 0, 62, 0
2, 36021, Note_on_c, 0, 54, 78
2, 36024, Note_on_c, 0, 57, 0
2, 36123, Note_on_c, 0, 54, 0
2, 36129, Note_on_c, 0, 81, 94
2, 36150, Note_on_c, 0, 57, 62
2, 36190, Note_on_c, 0, 81, 0
2, 36192, Note_on_c, 0, 55, 32
2, 36233, Note_on_c, 0, 57, 0
2, 36236, Note_on_c, 0, 54, 79
2, 36240, Note_on_c, 0, 55, 0
2, 36328, Note_on_c, 0, 49, 77
2, 36332, Note_on_c, 0, 54, 0
2, 36389, Note_on_c, 0, 50, 59
2, 36390, Note_on_c, 0, 49, 0
2, 36440, Note_on_c, 0, 81, 91
2, 36449, Note_on_c, 0, 50, 0
2, 36490, Note_on_c, 0, 53, 62
2, 36541, Note_on_c, 0, 53, 0
2, 36545, Note_on_c, 0, 79, 80
2, 36546, Note_on_c, 0, 50, 77
2, 36590, Note_on_c, 0, 81, 0
2, 36627, Note_on_c, 0, 78, 79
2, 36627, Note_on_c, 0, 79, 0
2, 36636, Note_on_c, 0, 50, 0
2, 36641, Note_on_c, 0, 45, 68
2, 36676, Note_on_c, 0, 78, 0
2, 36701, Note_on_c, 0, 45, 0
2, 36727, Note_on_c, 0, 78, 71
2, 36743, Note_on_c, 0, 50, 74
2, 36812, Note_on_c, 0, 50, 0
2, 36813, Note_on_c, 0, 76, 78
2, 36820, Note_on_c, 0, 45, 73
2, 36870, Note_on_c, 0, 78, 0
2, 36897, Note_on_c, 0, 42, 73
2, 36903, Note_on_c, 0, 74, 71
2, 36911, Note_on_c, 0, 45, 0
2, 36925, Note_on_c, 0, 76, 0
2, 36938, Note_on_c, 0, 74, 0
2, 36978, Note_on_c, 0, 38, 85
2, 36985, Note_on_c, 0, 42, 0
2, 37004, Note_on_c, 0, 74, 81
2, 37013, Note_on_c, 0, 38, 0
2, 37110, Note_on_c, 0, 78, 80
2, 37126, Note_on_c, 0, 74, 0
2, 37204, Note_on_c, 0, 81, 84
2, 37228, Note_on_c, 0, 78, 0
2, 37299, Note_on_c, 0, 50, 89
2, 37300, Note_on_c, 0, 84, 81
2, 37302, Note_on_c, 0, 81, 0
2, 37332, Note_on_c, 0, 50, 0
2, 37397, Note_on_c, 0, 83, 87
2, 37423, Note_on_c, 0, 84, 0
2, 37496, Note_on_c, 0, 81, 90
2, 37522, Note_on_c, 0, 83, 0
2, 37562, Note_on_c, 0, 81, 0
2, 37607, Note_on_c, 0, 43, 82
2, 37622, Note_on_c, 0, 81, 87
2, 37687, Note_on_c, 0, 81, 0
2, 37734, Note_on_c, 0, 83, 93
2, 37840, Note_on_c, 0, 84, 84
2, 37849, Note_on_c, 0, 83, 0
2, 37945, Note_on_c, 0, 83, 95
2, 37974, Note_on_c, 0, 84, 0
2, 38042, Note_on_c, 0, 47, 79
2, 38071, Note_on_c, 0, 43, 0
2, 38153, Note_on_c, 0, 50, 77
2, 38154, Note_on_c, 0, 47, 0
2, 38237, Note_on_c, 0, 50, 0
2, 38249, Note_on_c, 0, 55, 78
2, 38307, Note_on_c, 0, 55, 0
2, 38351, Note_on_c, 0, 81, 84
2, 38367, Note_on_c, 0, 57, 84
2, 38370, Note_on_c, 0, 83, 0
2, 38446, Note_on_c, 0, 81, 0
2, 38450, Note_on_c, 0, 57, 0
2, 38460, Note_on_c, 0, 79, 78
2, 38464, Note_on_c, 0, 59, 76
2, 38498, Note_on_c, 0, 59, 0
2, 38562, Note_on_c, 0, 77, 79
2, 38563, Note_on_c, 0, 59, 86
2, 38582, Note_on_c, 0, 79, 0
2, 38655, Note_on_c, 0, 60, 70
2, 38657, Note_on_c, 0, 76, 76
2, 38658, Note_on_c, 0, 59, 0
2, 38695, Note_on_c, 0, 77, 0
2, 38730, Note_on_c, 0, 60, 0
2, 38744, Note_on_c, 0, 62, 73
2, 38765, Note_on_c, 0, 74, 73
2, 38768, Note_on_c, 0, 76, 0
2, 38819, Note_on_c, 0, 62, 0
2, 38834, Note_on_c, 0, 74, 0
2, 38858, Note_on_c, 0, 72, 74
2, 38864, Note_on_c, 0, 64, 68
2, 38897, Note_on_c, 0, 64, 0
2, 38937, Note_on_c, 0, 72, 0
2, 38958, Note_on_c, 0, 76, 69
2, 39045, Note_on_c, 0, 76, 0
2, 39056, Note_on_c, 0, 79, 65
2, 39152, Note_on_c, 0, 79, 0
2, 39167, Note_on_c, 0, 60, 59
2, 39168, Note_on_c, 0, 81, 62
2, 39228, Note_on_c, 0, 60, 0
2, 39254, Note_on_c, 0, 81, 0
2, 39264, Note_on_c, 0, 57, 55
2, 39271, Note_on_c, 0, 78, 60
2, 39341, Note_on_c, 0, 54, 57
2, 39378, Note_on_c, 0, 78, 0
2, 39382, Note_on_c, 0, 74, 57
2, 39386, Note_on_c, 0, 57, 0
2, 39425, Note_on_c, 0, 54, 0
2, 39432, Note_on_c, 0, 74, 0
2, 39468, Note_on_c, 0, 62, 55
2, 39489, Note_on_c, 0, 71, 55
2, 39508, Note_on_c, 0, 62, 0
2, 39554, Note_on_c, 0, 71, 0
2, 39577, Note_on_c, 0, 74, 59
2, 39663, Note_on_c, 0, 74, 0
2, 39679, Note_on_c, 0, 78, 60
2, 39775, Note_on_c, 0, 59, 62
2, 39791, Note_on_c, 0, 79, 60
2, 39799, Note_on_c, 0, 78, 0
2, 39864, Note_on_c, 0, 59, 0
2, 39880, Note_on_c, 0, 55, 61
2, 39885, Note_on_c, 0, 79, 0
2, 39891, Note_on_c, 0, 76, 64
2, 39978, Note_on_c, 0, 76, 0
2, 39989, Note_on_c, 0, 52, 59
2, 40001, Note_on_c, 0, 72, 68
2, 40017, Note_on_c, 0, 55, 0
2, 40078, Note_on_c, 0, 72, 0
2, 40087, Note_on_c, 0, 52, 0
2, 40093, Note_on_c, 0, 60, 66
2, 40106, Note_on_c, 0, 69, 67
2, 40127, Note_on_c, 0, 60, 0
2, 40189, Note_on_c, 0, 72, 77
2, 40192, Note_on_c, 0, 69, 0
2, 40296, Note_on_c, 0, 76, 65
2, 40318, Note_on_c, 0, 72, 0
2, 40404, Note_on_c, 0, 78, 72
2, 40412, Note_on_c, 0, 57, 63
2, 40422, Note_on_c, 0, 76, 0
2, 40486, Note_on_c, 0, 78, 0
2, 40493, Note_on_c, 0, 54, 76
2, 40501, Note_on_c, 0, 57, 0
2, 40506, Note_on_c, 0, 74, 71
2, 40605, Note_on_c, 0, 50, 68
2, 40609, Note_on_c, 0, 71, 79
2, 40634, Note_on_c, 0, 54, 0
2, 40651, Note_on_c, 0, 74, 0
2, 40688, Note_on_c, 0, 50, 0
2, 40694, Note_on_c, 0, 59, 77
2, 40711, Note_on_c, 0, 71, 0
2, 40719, Note_on_c, 0, 67, 71
2, 40733, Note_on_c, 0, 59, 0
2, 40816, Note_on_c, 0, 71, 80
2, 40830, Note_on_c, 0, 67, 0
2, 40914, Note_on_c, 0, 74, 74
2, 40924, Note_on_c, 0, 71, 0
2, 41007, Note_on_c, 0, 55, 73
2, 41025, Note_on_c, 0, 76, 77
2, 41037, Note_on_c, 0, 74, 0
2, 41105, Note_on_c, 0, 52, 74
2, 41113, Note_on_c, 0, 55, 0
2, 41118, Note_on_c, 0, 72, 77
2, 41165, Note_on_c, 0, 76, 0
2, 41210, Note_on_c, 0, 48, 68
2, 41227, Note_on_c, 0, 69, 78
2, 41228, Note_on_c, 0, 52, 0
2, 41234, Note_on_c, 0, 72, 0
2, 41317, Note_on_c, 0, 57, 73
2, 41318, Note_on_c, 0, 48, 0
2, 41327, Note_on_c, 0, 69, 0
2, 41331, Note_on_c, 0, 66, 76
2, 41358, Note_on_c, 0, 57, 0
2, 41398, Note_on_c, 0, 66, 0
2, 41442, Note_on_c, 0, 69, 65
2, 41517, Note_on_c, 0, 69, 0
2, 41517, Note_on_c, 0, 72, 72
2, 41628, Note_on_c, 0, 54, 69
2, 41630, Note_on_c, 0, 74, 68
2, 41642, Note_on_c, 0, 72, 0
2, 41721, Note_on_c, 0, 50, 71
2, 41727, Note_on_c, 0, 54, 0
2, 41732, Note_on_c, 0, 71, 73
2, 41741, Note_on_c, 0, 74, 0
2, 41840, Note_on_c, 0, 47, 61
2, 41840, Note_on_c, 0, 67, 73
2, 41843, Note_on_c, 0, 50, 0
2, 41885, Note_on_c, 0, 71, 0
2, 41907, Note_on_c, 0, 47, 0
2, 41934, Note_on_c, 0, 67, 0
2, 41938, Note_on_c, 0, 55, 65
2, 41945, Note_on_c, 0, 64, 74
2, 41972, Note_on_c, 0, 55, 0
2, 42045, Note_on_c, 0, 64, 0
2, 42053, Note_on_c, 0, 67, 69
2, 42143, Note_on_c, 0, 67, 0
2, 42147, Note_on_c, 0, 71, 70
2, 42244, Note_on_c, 0, 52, 56
2, 42257, Note_on_c, 0, 71, 0
2, 42260, Note_on_c, 0, 72, 67
2, 42324, Note_on_c, 0, 52, 0
2, 42342, Note_on_c, 0, 48, 61
2, 42343, Note_on_c, 0, 72, 0
2, 42356, Note_on_c, 0, 69, 68
2, 42444, Note_on_c, 0, 69, 0
2, 42452, Note_on_c, 0, 48, 0
2, 42457, Note_on_c, 0, 66, 66
2, 42460, Note_on_c, 0, 45, 62
2, 42518, Note_on_c, 0, 45, 0
2, 42530, Note_on_c, 0, 66, 0
2, 42569, Note_on_c, 0, 54, 62
2, 42571, Note_on_c, 0, 62, 58
2, 42610, Note_on_c, 0, 54, 0
2, 42667, Note_on_c, 0, 66, 63
2, 42671, Note_on_c, 0, 62, 0
2, 42761, Note_on_c, 0, 66, 0
2, 42762, Note_on_c, 0, 69, 58
2, 42868, Note_on_c, 0, 69, 0
2, 42868, Note_on_c, 0, 71, 61
2, 42869, Note_on_c, 0, 50, 61
2, 42960, Note_on_c, 0, 71, 0
2, 42972, Note_on_c, 0, 67, 63
2, 42976, Note_on_c, 0, 50, 0
2, 42980, Note_on_c, 0, 47, 65
2, 43061, Note_on_c, 0, 43, 67
2, 43061, Note_on_c, 0, 47, 0
2, 43077, Note_on_c, 0, 64, 74
2, 43093, Note_on_c, 0, 67, 0
2, 43165, Note_on_c, 0, 64, 0
2, 43172, Note_on_c, 0, 52, 77
2, 43180, Note_on_c, 0, 60, 71
2, 43207, Note_on_c, 0, 43, 0
2, 43275, Note_on_c, 0, 48, 79
2, 43275, Note_on_c, 0, 64, 80
2, 43283, Note_on_c, 0, 52, 0
2, 43298, Note_on_c, 0, 60, 0
2, 43368, Note_on_c, 0, 45, 73
2, 43368, Note_on_c, 0, 48, 0
2, 43371, Note_on_c, 0, 67, 77
2, 43394, Note_on_c, 0, 64, 0
2, 43428, Note_on_c, 0, 45, 0
2, 43466, Note_on_c, 0, 54, 75
2, 43473, Note_on_c, 0, 67, 0
2, 43474, Note_on_c, 0, 69, 76
2, 43506, Note_on_c, 0, 54, 0
2, 43564, Note_on_c, 0, 50, 84
2, 43568, Note_on_c, 0, 66, 69
2, 43582, Note_on_c, 0, 69, 0
2, 43658, Note_on_c, 0, 47, 72
2, 43672, Note_on_c, 0, 66, 0
2, 43674, Note_on_c, 0, 62, 72
2, 43677, Note_on_c, 0, 50, 0
2, 43746, Note_on_c, 0, 47, 0
2, 43762, Note_on_c, 0, 62, 0
2, 43774, Note_on_c, 0, 55, 79
2, 43777, Note_on_c, 0, 59, 72
2, 43816, Note_on_c, 0, 55, 0
2, 43878, Note_on_c, 0, 59, 0
2, 43883, Note_on_c, 0, 62, 66
2, 43966, Note_on_c, 0, 62, 0
2, 43977, Note_on_c, 0, 66, 64
2, 44102, Note_on_c, 0, 67, 55
2, 44109, Note_on_c, 0, 52, 51
2, 44111, Note_on_c, 0, 66, 0
2, 44145, Note_on_c, 0, 52, 0
2, 44191, Note_on_c, 0, 67, 0
2, 44216, Note_on_c, 0, 64, 53
2, 44311, Note_on_c, 0, 64, 0
2, 44337, Note_on_c, 0, 60, 53
2, 44431, Note_on_c, 0, 60, 0
2, 44463, Note_on_c, 0, 48, 45
2, 44470, Note_on_c, 0, 57, 54
2, 44514, Note_on_c, 0, 48, 0
2, 44553, Note_on_c, 0, 57, 0
2, 44590, Note_on_c, 0, 60, 57
2, 44695, Note_on_c, 0, 60, 0
2, 44709, Note_on_c, 0, 64, 54
2, 44874, Note_on_c, 0, 50, 50
2, 44883, Note_on_c, 0, 66, 50
2, 44935, Note_on_c, 0, 50, 0
2, 44947, Note_on_c, 0, 64, 0
2, 45038, Note_on_c, 0, 66, 0
2, 45066, Note_on_c, 0, 62, 46
2, 45266, Note_on_c, 0, 60, 44
2, 45304, Note_on_c, 0, 62, 0
2, 45439, Note_on_c, 0, 43, 42
2, 45570, Note_on_c, 0, 50, 52
2, 45671, Note_on_c, 0, 55, 46
2, 45714, Note_on_c, 0, 60, 0
2, 45749, Note_on_c, 0, 57, 54
2, 45861, Note_on_c, 0, 59, 64
2, 45896, Note_on_c, 0, 57, 0
2, 45966, Note_on_c, 0, 62, 60
2, 46059, Note_on_c, 0, 67, 62
2, 48970, Note_on_c, 0, 43, 0
2, 48981, Note_on_c, 0, 55, 0
2, 49002, Note_on_c, 0, 59, 0
2, 49004, Note_on_c, 0, 50, 0
2, 49021, Note_on_c, 0, 67, 0
2, 49091, Note_on_c, 0, 62, 0
2, 50208, Note_on_c, 0, 67, 39
2, 50416, Note_on_c, 0, 67, 0
2, 50512, Note_on_c, 0, 69, 61
2, 50663, Note_on_c, 0, 67, 63
2, 50704, Note_on_c, 0, 69, 0
2, 50802, Note_on_c, 0, 67, 0
2, 50810, Note_on_c, 0, 66, 68
2, 50906, Note_on_c, 0, 66, 0
2, 50937, Note_on_c, 0, 67, 65
2, 51106, Note_on_c, 0, 67, 0
2, 51107, Note_on_c, 0, 69, 64
2, 51326, Note_on_c, 0, 69, 0
2, 51439, Note_on_c, 0, 71, 69
2, 51577, Note_on_c, 0, 69, 76
2, 51633, Note_on_c, 0, 71, 0
2, 51721, Note_on_c, 0, 67, 73
2, 51726, Note_on_c, 0, 69, 0
2, 51840, Note_on_c, 0, 67, 0
2, 51849, Note_on_c, 0, 69, 77
2, 51903, Note_on_c, 0, 69, 0
2, 51999, Note_on_c, 0, 71, 77
2, 52030, Note_on_c, 0, 71, 0
2, 52311, Note_on_c, 0, 69, 67
2, 52344, Note_on_c, 0, 69, 0
2, 52619, Note_on_c, 0, 67, 59
2, 52660, Note_on_c, 0, 67, 0
2, 52934, Note_on_c, 0, 62, 57
2, 52974, Note_on_c, 0, 62, 0
2, 53281, Note_on_c, 0, 72, 68
2, 53927, Note_on_c, 0, 71, 70
2, 53942, Note_on_c, 0, 72, 0
2, 53969, Note_on_c, 0, 71, 0
2, 54243, Note_on_c, 0, 69, 74
2, 54297, Note_on_c, 0, 69, 0
2, 54544, Note_on_c, 0, 67, 69
2, 54593, Note_on_c, 0, 67, 0
2, 54873, Note_on_c, 0, 66, 70
2, 54908, Note_on_c, 0, 66, 0
2, 55219, Note_on_c, 0, 76, 69
2, 55851, Note_on_c, 0, 74, 54
2, 55851, Note_on_c, 0, 76, 0
2, 55922, Note_on_c, 0, 74, 0
2, 56200, Note_on_c, 0, 76, 63
2, 56337, Note_on_c, 0, 74, 69
2, 56474, Note_on_c, 0, 72, 72
2, 56555, Note_on_c, 0, 76, 0
2, 56615, Note_on_c, 0, 71, 76
2, 56642, Note_on_c, 0, 74, 0
2, 56720, Note_on_c, 0, 72, 0
2, 56787, Note_on_c, 0, 69, 66
2, 56828, Note_on_c, 0, 71, 0
2, 57093, Note_on_c, 0, 72, 70
2, 57107, Note_on_c, 0, 69, 0
2, 57232, Note_on_c, 0, 71, 74
2, 57384, Note_on_c, 0, 69, 74
2, 57396, Note_on_c, 0, 72, 0
2, 57429, Note_on_c, 0, 71, 0
2, 57486, Note_on_c, 0, 69, 0
2, 57506, Note_on_c, 0, 67, 60
2, 57676, Note_on_c, 0, 66, 58
2, 57677, Note_on_c, 0, 62, 53
2, 57692, Note_on_c, 0, 67, 0
2, 57740, Note_on_c, 0, 66, 0
2, 57810, Note_on_c, 0, 62, 0
2, 57994, Note_on_c, 0, 67, 54
2, 57995, Note_on_c, 0, 64, 60
2, 58047, Note_on_c, 0, 67, 0
2, 58127, Note_on_c, 0, 64, 0
2, 58134, Note_on_c, 0, 62, 59
2, 58265, Note_on_c, 0, 61, 68
2, 58271, Note_on_c, 0, 62, 0
2, 58281, Note_on_c, 0, 69, 70
2, 58328, Note_on_c, 0, 69, 0
2, 58402, Note_on_c, 0, 62, 74
2, 58430, Note_on_c, 0, 61, 0
2, 58570, Note_on_c, 0, 64, 74
2, 58572, Note_on_c, 0, 62, 0
2, 58583, Note_on_c, 0, 67, 62
2, 58782, Note_on_c, 0, 64, 0
2, 58786, Note_on_c, 0, 67, 0
2, 58894, Note_on_c, 0, 69, 78
2, 58896, Note_on_c, 0, 66, 69
2, 58949, Note_on_c, 0, 69, 0
2, 59027, Note_on_c, 0, 64, 70
2, 59036, Note_on_c, 0, 66, 0
2, 59171, Note_on_c, 0, 62, 63
2, 59174, Note_on_c, 0, 64, 0
2, 59179, Note_on_c, 0, 71, 74
2, 59212, Note_on_c, 0, 71, 0
2, 59297, Note_on_c, 0, 62, 0
2, 59315, Note_on_c, 0, 64, 71
2, 59484, Note_on_c, 0, 66, 72
2, 59488, Note_on_c, 0, 64, 0
2, 59490, Note_on_c, 0, 69, 69
2, 59516, Note_on_c, 0, 66, 0
2, 59793, Note_on_c, 0, 64, 75
2, 59802, Note_on_c, 0, 71, 66
2, 59849, Note_on_c, 0, 64, 0
2, 59933, Note_on_c, 0, 73, 73
2, 59998, Note_on_c, 0, 69, 0
2, 60080, Note_on_c, 0, 71, 0
2, 60094, Note_on_c, 0, 74, 72
2, 60099, Note_on_c, 0, 62, 76
2, 60140, Note_on_c, 0, 62, 0
2, 60143, Note_on_c, 0, 73, 0
2, 60207, Note_on_c, 0, 74, 0
2, 60221, Note_on_c, 0, 71, 81
2, 60382, Note_on_c, 0, 57, 83
2, 60386, Note_on_c, 0, 73, 78
2, 60406, Note_on_c, 0, 71, 0
2, 60412, Note_on_c, 0, 57, 0
2, 60537, Note_on_c, 0, 71, 77
2, 60550, Note_on_c, 0, 73, 0
2, 60686, Note_on_c, 0, 67, 81
2, 60703, Note_on_c, 0, 73, 68
2, 60848, Note_on_c, 0, 74, 70
2, 60913, Note_on_c, 0, 71, 0
2, 60923, Note_on_c, 0, 73, 0
2, 60990, Note_on_c, 0, 76, 68
2, 60991, Note_on_c, 0, 74, 0
2, 61115, Note_on_c, 0, 76, 0
2, 61130, Note_on_c, 0, 73, 59
2, 61283, Note_on_c, 0, 66, 71
2, 61286, Note_on_c, 0, 67, 0
2, 61288, Note_on_c, 0, 73, 0
2, 61298, Note_on_c, 0, 74, 66
2, 61316, Note_on_c, 0, 66, 0
2, 61420, Note_on_c, 0, 74, 0
2, 61426, Note_on_c, 0, 73, 75
2, 61574, Note_on_c, 0, 74, 77
2, 61576, Note_on_c, 0, 64, 78
2, 61582, Note_on_c, 0, 73, 0
2, 61613, Note_on_c, 0, 64, 0
2, 61705, Note_on_c, 0, 76, 83
2, 61733, Note_on_c, 0, 74, 0
2, 61855, Note_on_c, 0, 62, 80
2, 61863, Note_on_c, 0, 78, 80
2, 61889, Note_on_c, 0, 62, 0
2, 61900, Note_on_c, 0, 76, 0
2, 61989, Note_on_c, 0, 74, 77
2, 62022, Note_on_c, 0, 78, 0
2, 62142, Note_on_c, 0, 61, 89
2, 62143, Note_on_c, 0, 76, 79
2, 62163, Note_on_c, 0, 74, 0
2, 62170, Note_on_c, 0, 61, 0
2, 62280, Note_on_c, 0, 74, 77
2, 62289, Note_on_c, 0, 76, 0
2, 62442, Note_on_c, 0, 71, 82
2, 62442, Note_on_c, 0, 76, 77
2, 62508, Note_on_c, 0, 74, 0
2, 62580, Note_on_c, 0, 78, 78
2, 62685, Note_on_c, 0, 76, 0
2, 62723, Note_on_c, 0, 79, 80
2, 62752, Note_on_c, 0, 78, 0
2, 62838, Note_on_c, 0, 79, 0
2, 62845, Note_on_c, 0, 76, 75
2, 63028, Note_on_c, 0, 71, 0
2, 63033, Note_on_c, 0, 69, 68
2, 63035, Note_on_c, 0, 78, 80
2, 63057, Note_on_c, 0, 76, 0
2, 63280, Note_on_c, 0, 78, 0
2, 63342, Note_on_c, 0, 69, 0
2, 63343, Note_on_c, 0, 79, 81
2, 63344, Note_on_c, 0, 71, 74
2, 63475, Note_on_c, 0, 71, 0
2, 63476, Note_on_c, 0, 69, 78
2, 63482, Note_on_c, 0, 78, 82
2, 63603, Note_on_c, 0, 79, 0
2, 63607, Note_on_c, 0, 67, 70
2, 63612, Note_on_c, 0, 76, 76
2, 63616, Note_on_c, 0, 69, 0
2, 63687, Note_on_c, 0, 78, 0
2, 63727, Note_on_c, 0, 74, 75
2, 63742, Note_on_c, 0, 66, 76
2, 63758, Note_on_c, 0, 76, 0
2, 63767, Note_on_c, 0, 67, 0
2, 63864, Note_on_c, 0, 79, 77
2, 63872, Note_on_c, 0, 66, 0
2, 63883, Note_on_c, 0, 64, 67
2, 63912, Note_on_c, 0, 79, 0
2, 63917, Note_on_c, 0, 78, 80
2, 63921, Note_on_c, 0, 74, 0
2, 63944, Note_on_c, 0, 64, 0
2, 63989, Note_on_c, 0, 79, 87
2, 64008, Note_on_c, 0, 78, 0
2, 64247, Note_on_c, 0, 67, 71
2, 64386, Note_on_c, 0, 66, 79
2, 64464, Note_on_c, 0, 67, 0
2, 64539, Note_on_c, 0, 64, 79
2, 64611, Note_on_c, 0, 66, 0
2, 64666, Note_on_c, 0, 62, 72
2, 64750, Note_on_c, 0, 64, 0
2, 64809, Note_on_c, 0, 62, 0
2, 64821, Note_on_c, 0, 61, 73
2, 64864, Note_on_c, 0, 61, 0
2, 64969, Note_on_c, 0, 78, 63
2, 64970, Note_on_c, 0, 79, 0
2, 65116, Note_on_c, 0, 67, 63
2, 65121, Note_on_c, 0, 76, 62
2, 65133, Note_on_c, 0, 78, 0
2, 65156, Note_on_c, 0, 67, 0
2, 65236, Note_on_c, 0, 76, 0
2, 65259, Note_on_c, 0, 79, 55
2, 65402, Note_on_c, 0, 79, 0
2, 65418, Note_on_c, 0, 66, 65
2, 65427, Note_on_c, 0, 74, 54
2, 65461, Note_on_c, 0, 66, 0
2, 65544, Note_on_c, 0, 74, 0
2, 65572, Note_on_c, 0, 79, 52
2, 65692, Note_on_c, 0, 79, 0
2, 65726, Note_on_c, 0, 64, 54
2, 65727, Note_on_c, 0, 73, 56
2, 65756, Note_on_c, 0, 64, 0
2, 65844, Note_on_c, 0, 73, 0
2, 65866, Note_on_c, 0, 79, 53
2, 65986, Note_on_c, 0, 79, 0
2, 66027, Note_on_c, 0, 71, 49
2, 66041, Note_on_c, 0, 62, 48
2, 66078, Note_on_c, 0, 62, 0
2, 66143, Note_on_c, 0, 71, 0
2, 66172, Note_on_c, 0, 79, 46
2, 66300, Note_on_c, 0, 79, 0
2, 66327, Note_on_c, 0, 61, 53
2, 66355, Note_on_c, 0, 69, 55
2, 66372, Note_on_c, 0, 61, 0
2, 66418, Note_on_c, 0, 69, 0
2, 66486, Note_on_c, 0, 79, 52
2, 66646, Note_on_c, 0, 78, 62
2, 66646, Note_on_c, 0, 79, 0
2, 66647, Note_on_c, 0, 62, 53
2, 66700, Note_on_c, 0, 78, 0
2, 66703, Note_on_c, 0, 62, 0
2, 66778, Note_on_c, 0, 64, 57
2, 66914, Note_on_c, 0, 64, 0
2, 66939, Note_on_c, 0, 66, 55
2, 66942, Note_on_c, 0, 74, 63
2, 66989, Note_on_c, 0, 74, 0
2, 67054, Note_on_c, 0, 66, 0
2, 67074, Note_on_c, 0, 62, 52
2, 67223, Note_on_c, 0, 62, 0
2, 67228, Note_on_c, 0, 76, 74
2, 67241, Note_on_c, 0, 67, 59
2, 67278, Note_on_c, 0, 76, 0
2, 67358, Note_on_c, 0, 67, 0
2, 67381, Note_on_c, 0, 62, 60
2, 67525, Note_on_c, 0, 62, 0
2, 67532, Note_on_c, 0, 78, 85
2, 67542, Note_on_c, 0, 69, 72
2, 67599, Note_on_c, 0, 78, 0
2, 67673, Note_on_c, 0, 62, 66
2, 67682, Note_on_c, 0, 69, 0
2, 67831, Note_on_c, 0, 62, 0
2, 67832, Note_on_c, 0, 71, 71
2, 67832, Note_on_c, 0, 79, 91
2, 67897, Note_on_c, 0, 79, 0
2, 67965, Note_on_c, 0, 71, 0
2, 67972, Note_on_c, 0, 62, 70
2, 68125, Note_on_c, 0, 81, 89
2, 68128, Note_on_c, 0, 62, 0
2, 68137, Note_on_c, 0, 72, 75
2, 68245, Note_on_c, 0, 72, 0
2, 68254, Note_on_c, 0, 62, 74
2, 68298, Note_on_c, 0, 62, 0
2, 68439, Note_on_c, 0, 71, 80
2, 68448, Note_on_c, 0, 55, 83
2, 68596, Note_on_c, 0, 55, 0
2, 68705, Note_on_c, 0, 81, 0
2, 68770, Note_on_c, 0, 57, 80
2, 68778, Note_on_c, 0, 74, 76
2, 68900, Note_on_c, 0, 55, 78
2, 68913, Note_on_c, 0, 57, 0
2, 69047, Note_on_c, 0, 54, 82
2, 69062, Note_on_c, 0, 79, 87
2, 69066, Note_on_c, 0, 55, 0
2, 69074, Note_on_c, 0, 74, 0
2, 69184, Note_on_c, 0, 55, 87
2, 69205, Note_on_c, 0, 54, 0
2, 69355, Note_on_c, 0, 57, 81
2, 69369, Note_on_c, 0, 55, 0
2, 69369, Note_on_c, 0, 72, 83
2, 69412, Note_on_c, 0, 79, 0
2, 69435, Note_on_c, 0, 71, 0
2, 69510, Note_on_c, 0, 57, 0
2, 69675, Note_on_c, 0, 59, 82
2, 69691, Note_on_c, 0, 78, 76
2, 69814, Note_on_c, 0, 57, 79
2, 69840, Note_on_c, 0, 59, 0
2, 69954, Note_on_c, 0, 55, 77
2, 69968, Note_on_c, 0, 57, 0
2, 69975, Note_on_c, 0, 76, 73
2, 70090, Note_on_c, 0, 57, 85
2, 70105, Note_on_c, 0, 55, 0
2, 70251, Note_on_c, 0, 59, 96
2, 70255, Note_on_c, 0, 74, 79
2, 70258, Note_on_c, 0, 57, 0
2, 70268, Note_on_c, 0, 78, 0
2, 70277, Note_on_c, 0, 76, 0
2, 70298, Note_on_c, 0, 74, 0
2, 70299, Note_on_c, 0, 72, 0
2, 70315, Note_on_c, 0, 59, 0
2, 70565, Note_on_c, 0, 72, 84
2, 70567, Note_on_c, 0, 57, 86
2, 70570, Note_on_c, 0, 66, 73
2, 70610, Note_on_c, 0, 66, 0
2, 70622, Note_on_c, 0, 57, 0
2, 70628, Note_on_c, 0, 72, 0
2, 70876, Note_on_c, 0, 55, 81
2, 70883, Note_on_c, 0, 71, 80
2, 70885, Note_on_c, 0, 67, 76
2, 70934, Note_on_c, 0, 55, 0
2, 70949, Note_on_c, 0, 71, 0
2, 71196, Note_on_c, 0, 69, 83
2, 71198, Note_on_c, 0, 50, 83
2, 71227, Note_on_c, 0, 67, 0
2, 71232, Note_on_c, 0, 50, 0
2, 71519, Note_on_c, 0, 60, 83
2, 71546, Note_on_c, 0, 66, 67
2, 71603, Note_on_c, 0, 69, 0
2, 71696, Note_on_c, 0, 67, 66
2, 71729, Note_on_c, 0, 66, 0
2, 71830, Note_on_c, 0, 67, 0
2, 71846, Note_on_c, 0, 69, 66
2, 71954, Note_on_c, 0, 69, 0
2, 71971, Note_on_c, 0, 66, 54
2, 72112, Note_on_c, 0, 66, 0
2, 72118, Note_on_c, 0, 60, 0
2, 72126, Note_on_c, 0, 59, 68
2, 72136, Note_on_c, 0, 67, 55
2, 72171, Note_on_c, 0, 59, 0
2, 72234, Note_on_c, 0, 67, 0
2, 72273, Note_on_c, 0, 66, 62
2, 72401, Note_on_c, 0, 66, 0
2, 72416, Note_on_c, 0, 67, 71
2, 72418, Note_on_c, 0, 57, 67
2, 72468, Note_on_c, 0, 57, 0
2, 72543, Note_on_c, 0, 69, 76
2, 72594, Note_on_c, 0, 67, 0
2, 72690, Note_on_c, 0, 71, 72
2, 72691, Note_on_c, 0, 74, 67
2, 72702, Note_on_c, 0, 69, 0
2, 72704, Note_on_c, 0, 55, 72
2, 72748, Note_on_c, 0, 55, 0
2, 72836, Note_on_c, 0, 71, 0
2, 72840, Note_on_c, 0, 67, 70
2, 72992, Note_on_c, 0, 54, 90
2, 72993, Note_on_c, 0, 69, 81
2, 73011, Note_on_c, 0, 67, 0
2, 73025, Note_on_c, 0, 54, 0
2, 73129, Note_on_c, 0, 67, 77
2, 73139, Note_on_c, 0, 69, 0
2, 73295, Note_on_c, 0, 69, 78
2, 73299, Note_on_c, 0, 64, 89
2, 73304, Note_on_c, 0, 72, 74
2, 73308, Note_on_c, 0, 67, 0
2, 73310, Note_on_c, 0, 74, 0
2, 73392, Note_on_c, 0, 69, 0
2, 73412, Note_on_c, 0, 72, 0
2, 73436, Note_on_c, 0, 71, 84
2, 73581, Note_on_c, 0, 81, 81
2, 73588, Note_on_c, 0, 72, 76
2, 73590, Note_on_c, 0, 71, 0
2, 73690, Note_on_c, 0, 72, 0
2, 73722, Note_on_c, 0, 69, 78
2, 73897, Note_on_c, 0, 62, 77
2, 73897, Note_on_c, 0, 71, 85
2, 73907, Note_on_c, 0, 69, 0
2, 73916, Note_on_c, 0, 64, 0
2, 73923, Note_on_c, 0, 81, 0
2, 73927, Control_c, 0, 64, 55
2, 73936, Note_on_c, 0, 62, 0
2, 73941, Note_on_c, 0, 71, 0
2, 73947, Control_c, 0, 64, 65
2, 73965, Control_c, 0, 64, 67
2, 73985, Control_c, 0, 64, 70
2, 74004, Control_c, 0, 64, 75
2, 74023, Control_c, 0, 64, 83
2, 74042, Control_c, 0, 64, 87
2, 74062, Control_c, 0, 64, 90
2, 74081, Control_c, 0, 64, 94
2, 74100, Control_c, 0, 64, 96
2, 74158, Control_c, 0, 64, 95
2, 74177, Control_c, 0, 64, 93
2, 74196, Control_c, 0, 64, 89
2, 74207, Note_on_c, 0, 79, 74
2, 74216, Control_c, 0, 64, 84
2, 74216, Note_on_c, 0, 72, 79
2, 74227, Note_on_c, 0, 64, 69
2, 74234, Control_c, 0, 64, 78
2, 74254, Control_c, 0, 64, 68
2, 74273, Control_c, 0, 64, 57
2, 74292, Control_c, 0, 64, 0
2, 74342, Note_on_c, 0, 71, 80
2, 74343, Note_on_c, 0, 72, 0
2, 74351, Note_on_c, 0, 62, 72
2, 74357, Note_on_c, 0, 64, 0
2, 74495, Note_on_c, 0, 60, 74
2, 74497, Note_on_c, 0, 69, 82
2, 74509, Note_on_c, 0, 62, 0
2, 74601, Note_on_c, 0, 71, 0
2, 74618, Note_on_c, 0, 59, 71
2, 74618, Note_on_c, 0, 60, 0
2, 74623, Note_on_c, 0, 67, 69
2, 74650, Note_on_c, 0, 67, 0
2, 74746, Note_on_c, 0, 69, 0
2, 74772, Note_on_c, 0, 59, 0
2, 74775, Note_on_c, 0, 57, 70
2, 74776, Note_on_c, 0, 72, 81
2, 74799, Note_on_c, 0, 79, 0
2, 75086, Note_on_c, 0, 81, 80
2, 75105, Note_on_c, 0, 60, 69
2, 75182, Note_on_c, 0, 57, 0
2, 75228, Note_on_c, 0, 59, 76
2, 75229, Note_on_c, 0, 60, 0
2, 75229, Note_on_c, 0, 79, 81
2, 75273, Note_on_c, 0, 81, 0
2, 75313, Note_on_c, 0, 72, 0
2, 75350, Note_on_c, 0, 59, 0
2, 75362, Note_on_c, 0, 57, 73
2, 75372, Note_on_c, 0, 78, 80
2, 75372, Note_on_c, 0, 79, 0
2, 75488, Note_on_c, 0, 78, 0
2, 75491, Note_on_c, 0, 55, 79
2, 75507, Note_on_c, 0, 76, 76
2, 75529, Note_on_c, 0, 57, 0
2, 75662, Note_on_c, 0, 54, 83
2, 75664, Note_on_c, 0, 76, 0
2, 75667, Note_on_c, 0, 74, 78
2, 75707, Note_on_c, 0, 55, 0
2, 75799, Note_on_c, 0, 71, 79
2, 75954, Note_on_c, 0, 69, 78
2, 75962, Note_on_c, 0, 71, 0
2, 76082, Note_on_c, 0, 72, 78
2, 76090, Note_on_c, 0, 69, 0
2, 76228, Note_on_c, 0, 54, 0
2, 76229, Note_on_c, 0, 72, 0
2, 76245, Note_on_c, 0, 52, 74
2, 76252, Note_on_c, 0, 67, 68
2, 76287, Note_on_c, 0, 52, 0
2, 76362, Note_on_c, 0, 67, 0
2, 76385, Note_on_c, 0, 72, 64
2, 76534, Note_on_c, 0, 72, 0
2, 76546, Note_on_c, 0, 50, 57
2, 76565, Note_on_c, 0, 66, 62
2, 76642, Note_on_c, 0, 50, 0
2, 76663, Note_on_c, 0, 66, 0
2, 76678, Note_on_c, 0, 52, 59
2, 76695, Note_on_c, 0, 72, 59
2, 76768, Note_on_c, 0, 74, 0
2, 76796, Note_on_c, 0, 52, 0
2, 76818, Note_on_c, 0, 72, 0
2, 76842, Note_on_c, 0, 50, 55
2, 76850, Note_on_c, 0, 64, 58
2, 76922, Note_on_c, 0, 50, 0
2, 76952, Note_on_c, 0, 64, 0
2, 76969, Note_on_c, 0, 48, 54
2, 76985, Note_on_c, 0, 72, 55
2, 77087, Note_on_c, 0, 48, 0
2, 77087, Note_on_c, 0, 72, 0
2, 77126, Note_on_c, 0, 47, 52
2, 77142, Note_on_c, 0, 62, 53
2, 77195, Note_on_c, 0, 47, 0
2, 77212, Note_on_c, 0, 62, 0
2, 77257, Note_on_c, 0, 45, 50
2, 77261, Note_on_c, 0, 72, 54
2, 77382, Note_on_c, 0, 45, 0
2, 77383, Note_on_c, 0, 72, 0
2, 77427, Note_on_c, 0, 71, 57
2, 77428, Note_on_c, 0, 43, 49
2, 77433, Note_on_c, 0, 67, 48
2, 77471, Note_on_c, 0, 67, 0
2, 77475, Note_on_c, 0, 71, 0
2, 77563, Note_on_c, 0, 43, 0
2, 77577, Note_on_c, 0, 45, 46
2, 77709, Note_on_c, 0, 45, 0
2, 77740, Note_on_c, 0, 47, 56
2, 77742, Note_on_c, 0, 74, 63
2, 77746, Note_on_c, 0, 65, 52
2, 77788, Note_on_c, 0, 74, 0
2, 77789, Note_on_c, 0, 65, 0
2, 77817, Note_on_c, 0, 47, 0
2, 77863, Note_on_c, 0, 43, 53
2, 77993, Note_on_c, 0, 43, 0
2, 78030, Note_on_c, 0, 48, 57
2, 78034, Note_on_c, 0, 72, 69
2, 78044, Note_on_c, 0, 64, 54
2, 78078, Note_on_c, 0, 72, 0
2, 78087, Note_on_c, 0, 64, 0
2, 78141, Note_on_c, 0, 48, 0
2, 78164, Note_on_c, 0, 43, 54
2, 78298, Note_on_c, 0, 43, 0
2, 78330, Note_on_c, 0, 71, 66
2, 78337, Note_on_c, 0, 50, 57
2, 78342, Note_on_c, 0, 62, 55
2, 78376, Note_on_c, 0, 71, 0
2, 78388, Note_on_c, 0, 62, 0
2, 78455, Note_on_c, 0, 50, 0
2, 78461, Note_on_c, 0, 43, 52
2, 78612, Note_on_c, 0, 43, 0
2, 78634, Note_on_c, 0, 69, 65
2, 78639, Note_on_c, 0, 52, 55
2, 78645, Note_on_c, 0, 60, 54
2, 78676, Note_on_c, 0, 69, 0
2, 78687, Note_on_c, 0, 60, 0
2, 78729, Note_on_c, 0, 52, 0
2, 78777, Note_on_c, 0, 43, 52
2, 78913, Note_on_c, 0, 43, 0
2, 78938, Note_on_c, 0, 59, 58
2, 78938, Note_on_c, 0, 67, 58
2, 78952, Note_on_c, 0, 53, 48
2, 78967, Note_on_c, 0, 59, 0
2, 78972, Note_on_c, 0, 67, 0
2, 79012, Note_on_c, 0, 53, 0
2, 79065, Note_on_c, 0, 43, 61
2, 79219, Note_on_c, 0, 52, 58
2, 79229, Note_on_c, 0, 72, 81
2, 79249, Note_on_c, 0, 43, 0
2, 79350, Note_on_c, 0, 50, 65
2, 79368, Note_on_c, 0, 74, 85
2, 79395, Note_on_c, 0, 52, 0
2, 79401, Note_on_c, 0, 72, 0
2, 79493, Note_on_c, 0, 48, 61
2, 79502, Note_on_c, 0, 50, 0
2, 79511, Note_on_c, 0, 76, 89
2, 79551, Note_on_c, 0, 74, 0
2, 79615, Note_on_c, 0, 48, 0
2, 79644, Note_on_c, 0, 52, 66
2, 79797, Note_on_c, 0, 52, 0
2, 79809, Note_on_c, 0, 67, 79
2, 79823, Note_on_c, 0, 47, 60
2, 79855, Note_on_c, 0, 67, 0
2, 79883, Note_on_c, 0, 47, 0
2, 79948, Note_on_c, 0, 52, 61
2, 80090, Note_on_c, 0, 76, 0
2, 80121, Note_on_c, 0, 66, 71
2, 80124, Note_on_c, 0, 52, 0
2, 80127, Note_on_c, 0, 45, 53
2, 80213, Note_on_c, 0, 45, 0
2, 80260, Note_on_c, 0, 52, 69
2, 80263, Note_on_c, 0, 74, 66
2, 80404, Note_on_c, 0, 72, 78
2, 80412, Note_on_c, 0, 43, 72
2, 80429, Note_on_c, 0, 52, 0
2, 80475, Note_on_c, 0, 74, 0
2, 80516, Note_on_c, 0, 43, 0
2, 80541, Note_on_c, 0, 71, 77
2, 80551, Note_on_c, 0, 52, 76
2, 80630, Note_on_c, 0, 72, 0
2, 80689, Note_on_c, 0, 69, 72
2, 80693, Note_on_c, 0, 42, 65
2, 80699, Note_on_c, 0, 52, 0
2, 80701, Note_on_c, 0, 71, 0
2, 80799, Note_on_c, 0, 42, 0
2, 80828, Note_on_c, 0, 69, 0
2, 80828, Note_on_c, 0, 72, 60
2, 80842, Note_on_c, 0, 52, 60
2, 80950, Note_on_c, 0, 52, 0
2, 80985, Note_on_c, 0, 50, 56
2, 80991, Note_on_c, 0, 72, 0
2, 81005, Note_on_c, 0, 71, 63
2, 81075, Note_on_c, 0, 66, 0
2, 81097, Note_on_c, 0, 50, 0
2, 81120, Note_on_c, 0, 48, 57
2, 81133, Note_on_c, 0, 71, 0
2, 81145, Note_on_c, 0, 72, 69
2, 81207, Note_on_c, 0, 48, 0
2, 81275, Note_on_c, 0, 47, 52
2, 81300, Note_on_c, 0, 72, 0
2, 81312, Note_on_c, 0, 74, 59
2, 81367, Note_on_c, 0, 47, 0
2, 81437, Note_on_c, 0, 50, 58
2, 81582, Note_on_c, 0, 50, 0
2, 81589, Note_on_c, 0, 66, 62
2, 81617, Note_on_c, 0, 45, 48
2, 81642, Note_on_c, 0, 66, 0
2, 81672, Note_on_c, 0, 45, 0
2, 81745, Note_on_c, 0, 50, 54
2, 81854, Note_on_c, 0, 74, 0
2, 81871, Note_on_c, 0, 50, 0
2, 81891, Note_on_c, 0, 64, 57
2, 81902, Note_on_c, 0, 43, 49
2, 81964, Note_on_c, 0, 43, 0
2, 82022, Note_on_c, 0, 72, 57
2, 82030, Note_on_c, 0, 50, 58
2, 82168, Note_on_c, 0, 50, 0
2, 82179, Note_on_c, 0, 71, 61
2, 82186, Note_on_c, 0, 42, 47
2, 82288, Note_on_c, 0, 42, 0
2, 82294, Note_on_c, 0, 72, 0
2, 82322, Note_on_c, 0, 69, 58
2, 82326, Note_on_c, 0, 50, 56
2, 82326, Note_on_c, 0, 71, 0
2, 82454, Note_on_c, 0, 50, 0
2, 82471, Note_on_c, 0, 69, 0
2, 82476, Note_on_c, 0, 67, 52
2, 82502, Note_on_c, 0, 40, 38
2, 82552, Note_on_c, 0, 40, 0
2, 82596, Note_on_c, 0, 67, 0
2, 82608, Note_on_c, 0, 71, 58
2, 82620, Note_on_c, 0, 50, 52
2, 82703, Note_on_c, 0, 50, 0
2, 82744, Note_on_c, 0, 71, 0
2, 82764, Note_on_c, 0, 48, 49
2, 82764, Note_on_c, 0, 69, 62
2, 82862, Note_on_c, 0, 48, 0
2, 82892, Note_on_c, 0, 47, 56
2, 82901, Note_on_c, 0, 71, 64
2, 82909, Note_on_c, 0, 69, 0
2, 82995, Note_on_c, 0, 47, 0
2, 83059, Note_on_c, 0, 45, 48
2, 83078, Note_on_c, 0, 72, 61
2, 83080, Note_on_c, 0, 71, 0
2, 83085, Note_on_c, 0, 64, 0
2, 83158, Note_on_c, 0, 45, 0
2, 83214, Note_on_c, 0, 48, 47
2, 83332, Note_on_c, 0, 48, 0
2, 83357, Note_on_c, 0, 64, 63
2, 83373, Note_on_c, 0, 43, 48
2, 83402, Note_on_c, 0, 64, 0
2, 83430, Note_on_c, 0, 43, 0
2, 83493, Note_on_c, 0, 48, 55
2, 83623, Note_on_c, 0, 48, 0
2, 83635, Note_on_c, 0, 72, 0
2, 83661, Note_on_c, 0, 42, 51
2, 83669, Note_on_c, 0, 62, 57
2, 83753, Note_on_c, 0, 42, 0
2, 83795, Note_on_c, 0, 48, 47
2, 83800, Note_on_c, 0, 71, 67
2, 83938, Note_on_c, 0, 69, 78
2, 83943, Note_on_c, 0, 48, 0
2, 83953, Note_on_c, 0, 40, 49
2, 84069, Note_on_c, 0, 67, 75
2, 84107, Note_on_c, 0, 71, 0
2, 84147, Note_on_c, 0, 40, 0
2, 84157, Note_on_c, 0, 38, 55
2, 84173, Note_on_c, 0, 69, 0
2, 84176, Note_on_c, 0, 62, 0
2, 84219, Note_on_c, 0, 66, 75
2, 84233, Note_on_c, 0, 38, 0
2, 84234, Note_on_c, 0, 67, 0
2, 84273, Note_on_c, 0, 48, 41
2, 84314, Note_on_c, 0, 48, 0
2, 84347, Note_on_c, 0, 69, 75
2, 84363, Note_on_c, 0, 66, 0
2, 84451, Note_on_c, 0, 69, 0
2, 84479, Note_on_c, 0, 47, 65
2, 84492, Note_on_c, 0, 67, 69
2, 84517, Note_on_c, 0, 47, 0
2, 84525, Note_on_c, 0, 62, 49
2, 84613, Note_on_c, 0, 62, 0
2, 84625, Note_on_c, 0, 67, 0
2, 84636, Note_on_c, 0, 69, 64
2, 84781, Note_on_c, 0, 69, 0
2, 84797, Note_on_c, 0, 71, 64
2, 84799, Note_on_c, 0, 45, 54
2, 84812, Note_on_c, 0, 60, 58
2, 84839, Note_on_c, 0, 45, 0
2, 84921, Note_on_c, 0, 60, 0
2, 84931, Note_on_c, 0, 62, 72
2, 85090, Note_on_c, 0, 43, 68
2, 85090, Note_on_c, 0, 64, 75
2, 85097, Note_on_c, 0, 62, 0
2, 85125, Note_on_c, 0, 43, 0
2, 85224, Note_on_c, 0, 62, 74
2, 85225, Note_on_c, 0, 64, 0
2, 85413, Note_on_c, 0, 60, 72
2, 85421, Note_on_c, 0, 45, 67
2, 85446, Note_on_c, 0, 71, 0
2, 85470, Note_on_c, 0, 62, 0
2, 85472, Note_on_c, 0, 45, 0
2, 85490, Note_on_c, 0, 60, 0
2, 85728, Note_on_c, 0, 64, 75
2, 85731, Note_on_c, 0, 43, 62
2, 85744, Note_on_c, 0, 59, 68
2, 85780, Note_on_c, 0, 43, 0
2, 85799, Note_on_c, 0, 59, 0
2, 85877, Note_on_c, 0, 60, 69
2, 86016, Note_on_c, 0, 60, 0
2, 86028, Note_on_c, 0, 42, 58
2, 86031, Note_on_c, 0, 69, 61
2, 86035, Note_on_c, 0, 62, 58
2, 86068, Note_on_c, 0, 42, 0
2, 86085, Note_on_c, 0, 62, 0
2, 86125, Note_on_c, 0, 64, 0
2, 86167, Note_on_c, 0, 60, 65
2, 86292, Note_on_c, 0, 60, 0
2, 86320, Note_on_c, 0, 59, 82
2, 86328, Note_on_c, 0, 43, 55
2, 86375, Note_on_c, 0, 69, 0
2, 86402, Note_on_c, 0, 43, 0
2, 86462, Note_on_c, 0, 55, 55
2, 86480, Note_on_c, 0, 67, 66
2, 86502, Note_on_c, 0, 59, 0
2, 86548, Note_on_c, 0, 55, 0
2, 86625, Note_on_c, 0, 69, 79
2, 86628, Note_on_c, 0, 53, 67
2, 86631, Note_on_c, 0, 60, 78
2, 86667, Note_on_c, 0, 67, 0
2, 86723, Note_on_c, 0, 60, 0
2, 86765, Note_on_c, 0, 53, 0
2, 86769, Note_on_c, 0, 52, 69
2, 86894, Note_on_c, 0, 52, 0
2, 86920, Note_on_c, 0, 50, 67
2, 86938, Note_on_c, 0, 62, 86
2, 86943, Note_on_c, 0, 71, 83
2, 86973, Note_on_c, 0, 69, 0
2, 87001, Note_on_c, 0, 62, 0
2, 87007, Note_on_c, 0, 71, 0
2, 87053, Note_on_c, 0, 50, 0
2, 87071, Note_on_c, 0, 53, 70
2, 87242, Note_on_c, 0, 72, 86
2, 87243, Note_on_c, 0, 53, 0
2, 87243, Note_on_c, 0, 67, 79
2, 87245, Note_on_c, 0, 52, 73
2, 87307, Note_on_c, 0, 67, 0
2, 87355, Note_on_c, 0, 52, 0
2, 87383, Note_on_c, 0, 53, 76
2, 87407, Note_on_c, 0, 74, 63
2, 87411, Note_on_c, 0, 72, 0
2, 87523, Note_on_c, 0, 53, 0
2, 87551, Note_on_c, 0, 57, 81
2, 87558, Note_on_c, 0, 52, 68
2, 87560, Note_on_c, 0, 72, 78
2, 87574, Note_on_c, 0, 74, 0
2, 87686, Note_on_c, 0, 52, 0
2, 87697, Note_on_c, 0, 50, 64
2, 87701, Note_on_c, 0, 71, 67
2, 87741, Note_on_c, 0, 72, 0
2, 87822, Note_on_c, 0, 50, 0
2, 87848, Note_on_c, 0, 48, 60
2, 87857, Note_on_c, 0, 69, 68
2, 87895, Note_on_c, 0, 71, 0
2, 87967, Note_on_c, 0, 69, 0
2, 87985, Note_on_c, 0, 52, 66
2, 87995, Note_on_c, 0, 57, 0
2, 87998, Note_on_c, 0, 48, 0
2, 87999, Note_on_c, 0, 67, 60
2, 88138, Note_on_c, 0, 66, 77
2, 88143, Note_on_c, 0, 67, 0
2, 88151, Note_on_c, 0, 59, 85
2, 88161, Note_on_c, 0, 50, 68
2, 88166, Note_on_c, 0, 52, 0
2, 88208, Note_on_c, 0, 66, 0
2, 88231, Note_on_c, 0, 67, 44
2, 88300, Note_on_c, 0, 50, 0
2, 88300, Note_on_c, 0, 52, 77
2, 88303, Note_on_c, 0, 66, 73
2, 88331, Note_on_c, 0, 59, 0
2, 88349, Note_on_c, 0, 67, 0
2, 88443, Note_on_c, 0, 50, 78
2, 88447, Note_on_c, 0, 60, 81
2, 88457, Note_on_c, 0, 52, 0
2, 88477, Note_on_c, 0, 66, 0
2, 88571, Note_on_c, 0, 50, 0
2, 88579, Note_on_c, 0, 64, 78
2, 88581, Note_on_c, 0, 60, 0
2, 88594, Note_on_c, 0, 48, 67
2, 88650, Note_on_c, 0, 66, 73
2, 88703, Note_on_c, 0, 64, 0
2, 88725, Note_on_c, 0, 47, 74
2, 88731, Note_on_c, 0, 62, 75
2, 88733, Note_on_c, 0, 48, 0
2, 88735, Note_on_c, 0, 67, 75
2, 88740, Note_on_c, 0, 66, 0
2, 88858, Note_on_c, 0, 50, 73
2, 88860, Note_on_c, 0, 47, 0
2, 88975, Note_on_c, 0, 62, 0
2, 89022, Note_on_c, 0, 48, 72
2, 89023, Note_on_c, 0, 50, 0
2, 89032, Note_on_c, 0, 64, 81
2, 89033, Note_on_c, 0, 67, 0
2, 89156, Note_on_c, 0, 48, 0
2, 89166, Note_on_c, 0, 50, 74
2, 89177, Note_on_c, 0, 71, 75
2, 89189, Note_on_c, 0, 64, 0
2, 89335, Note_on_c, 0, 50, 0
2, 89336, Note_on_c, 0, 69, 78
2, 89341, Note_on_c, 0, 48, 56
2, 89345, Note_on_c, 0, 54, 64
2, 89421, Note_on_c, 0, 71, 0
2, 89455, Note_on_c, 0, 48, 0
2, 89486, Note_on_c, 0, 47, 55
2, 89490, Note_on_c, 0, 67, 66
2, 89500, Note_on_c, 0, 69, 0
2, 89602, Note_on_c, 0, 47, 0
2, 89624, Note_on_c, 0, 45, 58
2, 89655, Note_on_c, 0, 66, 66
2, 89667, Note_on_c, 0, 67, 0
2, 89707, Note_on_c, 0, 54, 0
2, 89740, Note_on_c, 0, 45, 0
2, 89756, Note_on_c, 0, 48, 60
2, 89777, Note_on_c, 0, 66, 0
2, 89792, Note_on_c, 0, 64, 62
2, 89912, Note_on_c, 0, 48, 0
2, 89947, Note_on_c, 0, 64, 0
2, 89955, Note_on_c, 0, 47, 55
2, 89959, Note_on_c, 0, 62, 64
2, 89970, Note_on_c, 0, 55, 50
2, 90029, Note_on_c, 0, 55, 0
2, 90060, Note_on_c, 0, 47, 0
2, 90086, Note_on_c, 0, 48, 56
2, 90247, Note_on_c, 0, 48, 0
2, 90272, Note_on_c, 0, 55, 62
2, 90273, Note_on_c, 0, 47, 55
2, 90383, Note_on_c, 0, 47, 0
2, 90398, Note_on_c, 0, 62, 0
2, 90417, Note_on_c, 0, 57, 71
2, 90419, Note_on_c, 0, 55, 0
2, 90423, Note_on_c, 0, 45, 54
2, 90544, Note_on_c, 0, 45, 0
2, 90573, Note_on_c, 0, 59, 74
2, 90577, Note_on_c, 0, 43, 55
2, 90597, Note_on_c, 0, 57, 0
2, 90686, Note_on_c, 0, 59, 0
2, 90702, Note_on_c, 0, 43, 0
2, 90706, Note_on_c, 0, 61, 63
2, 90719, Note_on_c, 0, 45, 55
2, 90843, Note_on_c, 0, 45, 0
2, 90875, Note_on_c, 0, 47, 60
2, 90880, Note_on_c, 0, 61, 0
2, 90890, Note_on_c, 0, 62, 58
2, 90959, Note_on_c, 0, 62, 0
2, 91016, Note_on_c, 0, 47, 0
2, 91020, Note_on_c, 0, 49, 70
2, 91167, Note_on_c, 0, 49, 0
2, 91182, Note_on_c, 0, 50, 65
2, 91191, Note_on_c, 0, 59, 82
2, 91327, Note_on_c, 0, 50, 0
2, 91330, Note_on_c, 0, 61, 73
2, 91331, Note_on_c, 0, 59, 0
2, 91332, Note_on_c, 0, 52, 60
2, 91465, Note_on_c, 0, 61, 0
2, 91468, Note_on_c, 0, 52, 0
2, 91482, Note_on_c, 0, 62, 69
2, 91487, Note_on_c, 0, 54, 60
2, 91588, Note_on_c, 0, 54, 0
2, 91596, Note_on_c, 0, 62, 0
2, 91618, Note_on_c, 0, 64, 66
2, 91620, Note_on_c, 0, 55, 52
2, 91750, Note_on_c, 0, 55, 0
2, 91793, Note_on_c, 0, 64, 0
2, 91810, Note_on_c, 0, 54, 47
2, 91811, Note_on_c, 0, 66, 50
2, 91811, Note_on_c, 0, 69, 59
2, 91877, Note_on_c, 0, 69, 0
2, 91882, Note_on_c, 0, 66, 0
2, 91898, Note_on_c, 0, 54, 0
2, 92121, Note_on_c, 0, 67, 69
2, 92135, Note_on_c, 0, 64, 66
2, 92143, Note_on_c, 0, 59, 55
2, 92192, Note_on_c, 0, 59, 0
2, 92262, Note_on_c, 0, 69, 79
2, 92286, Note_on_c, 0, 67, 0
2, 92409, Note_on_c, 0, 47, 57
2, 92412, Note_on_c, 0, 71, 73
2, 92432, Note_on_c, 0, 69, 0
2, 92437, Note_on_c, 0, 63, 64
2, 92456, Note_on_c, 0, 47, 0
2, 92457, Note_on_c, 0, 64, 0
2, 92559, Note_on_c, 0, 71, 0
2, 92570, Note_on_c, 0, 69, 64
2, 92742, Note_on_c, 0, 52, 51
2, 92751, Note_on_c, 0, 64, 46
2, 92755, Note_on_c, 0, 67, 57
2, 92802, Note_on_c, 0, 63, 0
2, 92812, Note_on_c, 0, 69, 0
2, 92838, Note_on_c, 0, 64, 0
2, 92856, Note_on_c, 0, 67, 0
2, 92897, Note_on_c, 0, 52, 0
2, 93072, Note_on_c, 0, 66, 74
2, 93078, Note_on_c, 0, 57, 54
2, 93089, Note_on_c, 0, 62, 64
2, 93136, Note_on_c, 0, 57, 0
2, 93208, Note_on_c, 0, 67, 70
2, 93215, Note_on_c, 0, 66, 0
2, 93284, Note_on_c, 0, 62, 0
2, 93367, Note_on_c, 0, 69, 70
2, 93370, Note_on_c, 0, 45, 56
2, 93377, Note_on_c, 0, 67, 0
2, 93385, Note_on_c, 0, 61, 49
2, 93413, Note_on_c, 0, 45, 0
2, 93428, Note_on_c, 0, 61, 0
2, 93489, Note_on_c, 0, 69, 0
2, 93507, Note_on_c, 0, 67, 60
2, 93664, Note_on_c, 0, 66, 64
2, 93665, Note_on_c, 0, 62, 53
2, 93669, Note_on_c, 0, 67, 0
2, 93673, Note_on_c, 0, 50, 58
2, 93709, Note_on_c, 0, 62, 0
2, 93715, Note_on_c, 0, 50, 0
2, 93715, Note_on_c, 0, 66, 0
2, 93980, Note_on_c, 0, 52, 46
2, 93983, Note_on_c, 0, 67, 67
2, 93987, Note_on_c, 0, 61, 60
2, 94025, Note_on_c, 0, 67, 0
2, 94081, Note_on_c, 0, 52, 0
2, 94132, Note_on_c, 0, 59, 73
2, 94176, Note_on_c, 0, 61, 0
2, 94243, Note_on_c, 0, 59, 0
2, 94269, Note_on_c, 0, 54, 65
2, 94275, Note_on_c, 0, 69, 85
2, 94295, Note_on_c, 0, 57, 51
2, 94319, Note_on_c, 0, 69, 0
2, 94401, Note_on_c, 0, 57, 0
2, 94424, Note_on_c, 0, 60, 68
2, 94555, Note_on_c, 0, 60, 0
2, 94573, Note_on_c, 0, 59, 70
2, 94579, Note_on_c, 0, 74, 86
2, 94585, Note_on_c, 0, 55, 59
2, 94617, Note_on_c, 0, 54, 0
2, 94623, Note_on_c, 0, 74, 0
2, 94710, Note_on_c, 0, 59, 0
2, 94715, Note_on_c, 0, 60, 64
2, 94811, Note_on_c, 0, 60, 0
2, 94864, Note_on_c, 0, 59, 68
2, 94873, Note_on_c, 0, 64, 64
2, 94914, Note_on_c, 0, 59, 0
2, 94915, Note_on_c, 0, 64, 0
2, 94919, Note_on_c, 0, 55, 0
2, 94922, Note_on_c, 0, 66, 71
2, 94964, Note_on_c, 0, 66, 0
2, 94969, Note_on_c, 0, 64, 67
2, 94973, Note_on_c, 0, 57, 71
2, 95011, Note_on_c, 0, 66, 69
2, 95017, Note_on_c, 0, 64, 0
2, 95090, Note_on_c, 0, 57, 0
2, 95103, Note_on_c, 0, 49, 60
2, 95104, Note_on_c, 0, 64, 82
2, 95110, Note_on_c, 0, 55, 63
2, 95123, Note_on_c, 0, 66, 0
2, 95210, Note_on_c, 0, 55, 0
2, 95255, Note_on_c, 0, 59, 71
2, 95276, Note_on_c, 0, 49, 0
2, 95401, Note_on_c, 0, 59, 0
2, 95425, Note_on_c, 0, 57, 60
2, 95425, Note_on_c, 0, 66, 81
2, 95432, Note_on_c, 0, 50, 53
2, 95435, Note_on_c, 0, 64, 0
2, 95460, Note_on_c, 0, 66, 0
2, 95545, Note_on_c, 0, 57, 0
2, 95574, Note_on_c, 0, 59, 64
2, 95705, Note_on_c, 0, 59, 0
2, 95729, Note_on_c, 0, 67, 80
2, 95730, Note_on_c, 0, 57, 61
2, 95771, Note_on_c, 0, 67, 0
2, 95852, Note_on_c, 0, 57, 0
2, 95872, Note_on_c, 0, 55, 65
2, 96001, Note_on_c, 0, 55, 0
2, 96031, Note_on_c, 0, 54, 64
2, 96035, Note_on_c, 0, 69, 86
2, 96065, Note_on_c, 0, 69, 0
2, 96128, Note_on_c, 0, 54, 0
2, 96158, Note_on_c, 0, 57, 68
2, 96313, Note_on_c, 0, 57, 0
2, 96335, Note_on_c, 0, 55, 63
2, 96341, Note_on_c, 0, 71, 82
2, 96372, Note_on_c, 0, 71, 0
2, 96472, Note_on_c, 0, 55, 0
2, 96474, Note_on_c, 0, 57, 61
2, 96594, Note_on_c, 0, 57, 0
2, 96631, Note_on_c, 0, 55, 62
2, 96634, Note_on_c, 0, 61, 71
2, 96673, Note_on_c, 0, 50, 0
2, 96678, Note_on_c, 0, 61, 0
2, 96710, Note_on_c, 0, 62, 68
2, 96757, Note_on_c, 0, 54, 56
2, 96762, Note_on_c, 0, 62, 0
2, 96775, Note_on_c, 0, 55, 0
2, 96775, Note_on_c, 0, 61, 66
2, 96817, Note_on_c, 0, 61, 0
2, 96821, Note_on_c, 0, 62, 62
2, 96853, Note_on_c, 0, 54, 0
2, 96863, Note_on_c, 0, 52, 58
2, 96895, Note_on_c, 0, 61, 71
2, 96896, Note_on_c, 0, 62, 0
2, 96974, Note_on_c, 0, 52, 0
2, 97025, Note_on_c, 0, 55, 60
2, 97177, Note_on_c, 0, 55, 0
2, 97201, Note_on_c, 0, 62, 68
2, 97209, Note_on_c, 0, 54, 55
2, 97216, Note_on_c, 0, 61, 0
2, 97236, Note_on_c, 0, 62, 0
2, 97321, Note_on_c, 0, 54, 0
2, 97343, Note_on_c, 0, 55, 57
2, 97499, Note_on_c, 0, 55, 0
2, 97507, Note_on_c, 0, 62, 55
2, 97518, Note_on_c, 0, 54, 56
2, 97632, Note_on_c, 0, 54, 0
2, 97647, Note_on_c, 0, 64, 67
2, 97654, Note_on_c, 0, 52, 55
2, 97668, Note_on_c, 0, 62, 0
2, 97779, Note_on_c, 0, 52, 0
2, 97802, Note_on_c, 0, 66, 62
2, 97805, Note_on_c, 0, 64, 0
2, 97820, Note_on_c, 0, 50, 52
2, 97933, Note_on_c, 0, 66, 0
2, 97947, Note_on_c, 0, 50, 0
2, 97948, Note_on_c, 0, 67, 59
2, 97950, Note_on_c, 0, 52, 53
2, 98120, Note_on_c, 0, 67, 0
2, 98121, Note_on_c, 0, 69, 57
2, 98123, Note_on_c, 0, 54, 64
2, 98128, Note_on_c, 0, 52, 0
2, 98162, Note_on_c, 0, 69, 0
2, 98255, Note_on_c, 0, 55, 66
2, 98259, Note_on_c, 0, 54, 0
2, 98413, Note_on_c, 0, 57, 69
2, 98415, Note_on_c, 0, 66, 77
2, 98417, Note_on_c, 0, 55, 0
2, 98548, Note_on_c, 0, 67, 80
2, 98557, Note_on_c, 0, 59, 77
2, 98567, Note_on_c, 0, 66, 0
2, 98568, Note_on_c, 0, 57, 0
2, 98699, Note_on_c, 0, 59, 0
2, 98702, Note_on_c, 0, 60, 78
2, 98703, Note_on_c, 0, 69, 88
2, 98754, Note_on_c, 0, 67, 0
2, 98804, Note_on_c, 0, 60, 0
2, 98834, Note_on_c, 0, 71, 90
2, 98840, Note_on_c, 0, 62, 73
2, 98903, Note_on_c, 0, 69, 0
2, 99002, Note_on_c, 0, 72, 88
2, 99011, Note_on_c, 0, 54, 75
2, 99013, Note_on_c, 0, 50, 76
2, 99026, Note_on_c, 0, 71, 0
2, 99031, Note_on_c, 0, 62, 0
2, 99082, Note_on_c, 0, 54, 0
2, 99088, Note_on_c, 0, 50, 0
2, 99322, Note_on_c, 0, 48, 81
2, 99337, Note_on_c, 0, 69, 75
2, 99449, Note_on_c, 0, 50, 84
2, 99479, Note_on_c, 0, 48, 0
2, 99614, Note_on_c, 0, 52, 80
2, 99628, Note_on_c, 0, 71, 73
2, 99633, Note_on_c, 0, 67, 67
2, 99648, Note_on_c, 0, 50, 0
2, 99694, Note_on_c, 0, 69, 0
2, 99701, Note_on_c, 0, 72, 0
2, 99766, Note_on_c, 0, 50, 89
2, 99802, Note_on_c, 0, 71, 0
2, 99804, Note_on_c, 0, 52, 0
2, 99926, Note_on_c, 0, 48, 81
2, 99939, Note_on_c, 0, 50, 0
2, 99943, Note_on_c, 0, 69, 75
2, 99965, Note_on_c, 0, 67, 0
2, 100008, Note_on_c, 0, 48, 0
2, 100257, Note_on_c, 0, 47, 61
2, 100272, Note_on_c, 0, 67, 57
2, 100366, Note_on_c, 0, 47, 0
2, 100392, Note_on_c, 0, 69, 0
2, 100399, Note_on_c, 0, 48, 58
2, 100562, Note_on_c, 0, 48, 0
2, 100579, Note_on_c, 0, 50, 57
2, 100582, Note_on_c, 0, 67, 0
2, 100586, Note_on_c, 0, 66, 55
2, 100678, Note_on_c, 0, 50, 0
2, 100713, Note_on_c, 0, 48, 57
2, 100784, Note_on_c, 0, 48, 0
2, 100821, Note_on_c, 0, 66, 0
2, 100872, Note_on_c, 0, 47, 57
2, 100889, Note_on_c, 0, 67, 51
2, 100920, Note_on_c, 0, 47, 0
2, 100993, Note_on_c, 0, 67, 0
2, 101022, Note_on_c, 0, 79, 55
2, 101176, Note_on_c, 0, 79, 0
2, 101187, Note_on_c, 0, 48, 62
2, 101197, Note_on_c, 0, 78, 56
2, 101235, Note_on_c, 0, 48, 0
2, 101335, Note_on_c, 0, 78, 0
2, 101342, Note_on_c, 0, 76, 55
2, 101475, Note_on_c, 0, 76, 0
2, 101483, Note_on_c, 0, 50, 78
2, 101506, Note_on_c, 0, 74, 54
2, 101529, Note_on_c, 0, 50, 0
2, 101650, Note_on_c, 0, 78, 59
2, 101659, Note_on_c, 0, 74, 0
2, 101803, Note_on_c, 0, 55, 82
2, 101814, Note_on_c, 0, 78, 0
2, 101817, Note_on_c, 0, 76, 61
2, 101839, Note_on_c, 0, 55, 0
2, 101947, Note_on_c, 0, 76, 0
2, 101962, Note_on_c, 0, 78, 67
2, 102131, Note_on_c, 0, 76, 55
2, 102135, Note_on_c, 0, 45, 76
2, 102262, Note_on_c, 0, 78, 0
2, 102282, Note_on_c, 0, 74, 61
2, 102292, Note_on_c, 0, 76, 0
2, 102422, Note_on_c, 0, 74, 0
2, 102438, Note_on_c, 0, 72, 59
2, 102552, Note_on_c, 0, 72, 0
2, 102575, Note_on_c, 0, 76, 55
2, 102746, Note_on_c, 0, 47, 81
2, 102760, Note_on_c, 0, 74, 58
2, 102763, Note_on_c, 0, 76, 0
2, 102794, Note_on_c, 0, 45, 0
2, 102838, Note_on_c, 0, 47, 0
2, 102891, Note_on_c, 0, 74, 0
2, 102914, Note_on_c, 0, 76, 59
2, 103070, Note_on_c, 0, 48, 82
2, 103078, Note_on_c, 0, 74, 49
2, 103111, Note_on_c, 0, 76, 0
2, 103146, Note_on_c, 0, 48, 0
2, 103225, Note_on_c, 0, 72, 62
2, 103240, Note_on_c, 0, 74, 0
2, 103378, Note_on_c, 0, 50, 83
2, 103388, Note_on_c, 0, 72, 0
2, 103394, Note_on_c, 0, 71, 59
2, 103451, Note_on_c, 0, 50, 0
2, 103536, Note_on_c, 0, 71, 0
2, 103547, Note_on_c, 0, 74, 51
2, 103703, Note_on_c, 0, 52, 69
2, 103704, Note_on_c, 0, 74, 0
2, 103717, Note_on_c, 0, 72, 55
2, 103746, Note_on_c, 0, 52, 0
2, 103826, Note_on_c, 0, 72, 0
2, 103867, Note_on_c, 0, 74, 49
2, 103999, Note_on_c, 0, 42, 56
2, 104008, Note_on_c, 0, 72, 46
2, 104051, Note_on_c, 0, 74, 0
2, 104161, Note_on_c, 0, 71, 57
2, 104193, Note_on_c, 0, 72, 0
2, 104318, Note_on_c, 0, 71, 0
2, 104319, Note_on_c, 0, 69, 58
2, 104444, Note_on_c, 0, 42, 0
2, 104459, Note_on_c, 0, 69, 0
2, 104468, Note_on_c, 0, 72, 59
2, 104601, Note_on_c, 0, 43, 53
2, 104611, Note_on_c, 0, 71, 59
2, 104651, Note_on_c, 0, 72, 0
2, 104723, Note_on_c, 0, 43, 0
2, 104738, Note_on_c, 0, 45, 63
2, 104750, Note_on_c, 0, 69, 63
2, 104808, Note_on_c, 0, 45, 0
2, 104814, Note_on_c, 0, 71, 0
2, 104911, Note_on_c, 0, 69, 0
2, 104912, Note_on_c, 0, 47, 69
2, 104917, Note_on_c, 0, 67, 59
2, 105030, Note_on_c, 0, 67, 0
2, 105065, Note_on_c, 0, 71, 59
2, 105219, Note_on_c, 0, 71, 0
2, 105228, Note_on_c, 0, 66, 59
2, 105239, Note_on_c, 0, 62, 50
2, 105317, Note_on_c, 0, 62, 0
2, 105349, Note_on_c, 0, 66, 0
2, 105369, Note_on_c, 0, 71, 68
2, 105514, Note_on_c, 0, 71, 0
2, 105532, Note_on_c, 0, 64, 66
2, 105540, Note_on_c, 0, 61, 64
2, 105644, Note_on_c, 0, 61, 0
2, 105659, Note_on_c, 0, 47, 0
2, 105666, Note_on_c, 0, 71, 67
2, 105678, Note_on_c, 0, 45, 66
2, 105695, Note_on_c, 0, 64, 0
2, 105819, Note_on_c, 0, 71, 0
2, 105825, Note_on_c, 0, 62, 74
2, 105828, Note_on_c, 0, 43, 73
2, 105854, Note_on_c, 0, 45, 0
2, 105943, Note_on_c, 0, 42, 73
2, 105961, Note_on_c, 0, 43, 0
2, 105962, Note_on_c, 0, 71, 69
2, 105973, Note_on_c, 0, 62, 0
2, 106096, Note_on_c, 0, 42, 0
2, 106111, Note_on_c, 0, 40, 71
2, 106125, Note_on_c, 0, 61, 71
2, 106130, Note_on_c, 0, 71, 0
2, 106233, Note_on_c, 0, 61, 0
2, 106238, Note_on_c, 0, 40, 0
2, 106251, Note_on_c, 0, 43, 77
2, 106270, Note_on_c, 0, 71, 70
2, 106334, Note_on_c, 0, 43, 0
2, 106428, Note_on_c, 0, 42, 78
2, 106433, Note_on_c, 0, 69, 68
2, 106547, Note_on_c, 0, 71, 0
2, 106570, Note_on_c, 0, 43, 81
2, 106575, Note_on_c, 0, 67, 67
2, 106579, Note_on_c, 0, 42, 0
2, 106703, Note_on_c, 0, 69, 0
2, 106721, Note_on_c, 0, 45, 78
2, 106737, Note_on_c, 0, 66, 72
2, 106747, Note_on_c, 0, 43, 0
2, 106772, Note_on_c, 0, 67, 0
2, 106862, Note_on_c, 0, 66, 0
2, 106873, Note_on_c, 0, 69, 69
2, 107026, Note_on_c, 0, 69, 0
2, 107040, Note_on_c, 0, 61, 68
2, 107040, Note_on_c, 0, 64, 68
2, 107140, Note_on_c, 0, 61, 0
2, 107149, Note_on_c, 0, 64, 0
2, 107176, Note_on_c, 0, 69, 67
2, 107314, Note_on_c, 0, 69, 0
2, 107340, Note_on_c, 0, 62, 68
2, 107346, Note_on_c, 0, 59, 67
2, 107416, Note_on_c, 0, 59, 0
2, 107430, Note_on_c, 0, 45, 0
2, 107469, Note_on_c, 0, 62, 0
2, 107474, Note_on_c, 0, 69, 64
2, 107477, Note_on_c, 0, 43, 59
2, 107615, Note_on_c, 0, 43, 0
2, 107624, Note_on_c, 0, 69, 0
2, 107635, Note_on_c, 0, 42, 63
2, 107646, Note_on_c, 0, 61, 68
2, 107740, Note_on_c, 0, 42, 0
2, 107750, Note_on_c, 0, 61, 0
2, 107770, Note_on_c, 0, 40, 60
2, 107783, Note_on_c, 0, 69, 59
2, 107884, Note_on_c, 0, 40, 0
2, 107923, Note_on_c, 0, 69, 0
2, 107940, Note_on_c, 0, 38, 61
2, 107955, Note_on_c, 0, 59, 64
2, 108046, Note_on_c, 0, 59, 0
2, 108068, Note_on_c, 0, 38, 0
2, 108087, Note_on_c, 0, 69, 58
2, 108099, Note_on_c, 0, 42, 61
2, 108167, Note_on_c, 0, 42, 0
2, 108244, Note_on_c, 0, 69, 0
2, 108256, Note_on_c, 0, 67, 58
2, 108275, Note_on_c, 0, 40, 59
2, 108381, Note_on_c, 0, 67, 0
2, 108406, Note_on_c, 0, 66, 57
2, 108409, Note_on_c, 0, 42, 69
2, 108414, Note_on_c, 0, 40, 0
2, 108548, Note_on_c, 0, 42, 0
2, 108553, Note_on_c, 0, 43, 68
2, 108564, Note_on_c, 0, 66, 0
2, 108565, Note_on_c, 0, 64, 61
2, 108673, Note_on_c, 0, 64, 0
2, 108708, Note_on_c, 0, 67, 52
2, 108842, Note_on_c, 0, 67, 0
2, 108877, Note_on_c, 0, 62, 51
2, 108882, Note_on_c, 0, 59, 52
2, 108937, Note_on_c, 0, 59, 0
2, 108958, Note_on_c, 0, 62, 0
2, 109006, Note_on_c, 0, 67, 48
2, 109136, Note_on_c, 0, 67, 0
2, 109167, Note_on_c, 0, 61, 58
2, 109289, Note_on_c, 0, 61, 0
2, 109290, Note_on_c, 0, 43, 0
2, 109302, Note_on_c, 0, 67, 49
2, 109307, Note_on_c, 0, 42, 57
2, 109428, Note_on_c, 0, 67, 0
2, 109439, Note_on_c, 0, 42, 0
2, 109465, Note_on_c, 0, 59, 63
2, 109467, Note_on_c, 0, 40, 55
2, 109541, Note_on_c, 0, 40, 0
2, 109563, Note_on_c, 0, 59, 0
2, 109591, Note_on_c, 0, 38, 59
2, 109598, Note_on_c, 0, 67, 49
2, 109705, Note_on_c, 0, 38, 0
2, 109717, Note_on_c, 0, 67, 0
2, 109739, Note_on_c, 0, 37, 59
2, 109762, Note_on_c, 0, 57, 59
2, 109835, Note_on_c, 0, 57, 0
2, 109885, Note_on_c, 0, 67, 51
2, 109903, Note_on_c, 0, 40, 55
2, 109907, Note_on_c, 0, 37, 0
2, 109987, Note_on_c, 0, 67, 0
2, 110000, Note_on_c, 0, 40, 0
2, 110052, Note_on_c, 0, 66, 56
2, 110063, Note_on_c, 0, 38, 61
2, 110086, Note_on_c, 0, 66, 0
2, 110161, Note_on_c, 0, 38, 0
2, 110200, Note_on_c, 0, 74, 59
2, 110201, Note_on_c, 0, 40, 55
2, 110318, Note_on_c, 0, 40, 0
2, 110320, Note_on_c, 0, 74, 0
2, 110346, Note_on_c, 0, 72, 64
2, 110350, Note_on_c, 0, 42, 60
2, 110465, Note_on_c, 0, 42, 0
2, 110489, Note_on_c, 0, 71, 72
2, 110495, Note_on_c, 0, 72, 0
2, 110498, Note_on_c, 0, 38, 58
2, 110626, Note_on_c, 0, 38, 0
2, 110650, Note_on_c, 0, 43, 59
2, 110652, Note_on_c, 0, 69, 73
2, 110688, Note_on_c, 0, 71, 0
2, 110776, Note_on_c, 0, 69, 0
2, 110782, Note_on_c, 0, 43, 0
2, 110783, Note_on_c, 0, 67, 69
2, 110792, Note_on_c, 0, 38, 64
2, 110927, Note_on_c, 0, 38, 0
2, 110935, Note_on_c, 0, 66, 76
2, 110949, Note_on_c, 0, 45, 59
2, 110968, Note_on_c, 0, 67, 0
2, 111083, Note_on_c, 0, 64, 78
2, 111084, Note_on_c, 0, 45, 0
2, 111089, Note_on_c, 0, 38, 65
2, 111149, Note_on_c, 0, 66, 0
2, 111221, Note_on_c, 0, 38, 0
2, 111235, Note_on_c, 0, 47, 58
2, 111241, Note_on_c, 0, 62, 71
2, 111282, Note_on_c, 0, 64, 0
2, 111362, Note_on_c, 0, 62, 0
2, 111363, Note_on_c, 0, 47, 0
2, 111381, Note_on_c, 0, 60, 65
2, 111388, Note_on_c, 0, 38, 59
2, 111513, Note_on_c, 0, 60, 0
2, 111520, Note_on_c, 0, 38, 0
2, 111531, Note_on_c, 0, 59, 62
2, 111546, Note_on_c, 0, 48, 53
2, 111635, Note_on_c, 0, 59, 0
2, 111662, Note_on_c, 0, 57, 57
2, 111673, Note_on_c, 0, 48, 0
2, 111706, Note_on_c, 0, 38, 34
2, 111763, Note_on_c, 0, 38, 0
2, 111780, Note_on_c, 0, 57, 0
2, 111798, Note_on_c, 0, 47, 67
2, 111823, Note_on_c, 0, 55, 50
2, 111848, Note_on_c, 0, 47, 0
2, 111866, Note_on_c, 0, 55, 0
2, 111950, Note_on_c, 0, 57, 56
2, 111960, Note_on_c, 0, 55, 73
2, 112098, Note_on_c, 0, 53, 76
2, 112102, Note_on_c, 0, 55, 0
2, 112110, Note_on_c, 0, 57, 0
2, 112115, Note_on_c, 0, 59, 62
2, 112220, Note_on_c, 0, 59, 0
2, 112245, Note_on_c, 0, 52, 80
2, 112261, Note_on_c, 0, 53, 0
2, 112261, Note_on_c, 0, 55, 65
2, 112384, Note_on_c, 0, 50, 75
2, 112393, Note_on_c, 0, 52, 0
2, 112411, Note_on_c, 0, 60, 71
2, 112418, Note_on_c, 0, 55, 0
2, 112477, Note_on_c, 0, 60, 0
2, 112512, Note_on_c, 0, 50, 0
2, 112519, Note_on_c, 0, 48, 79
2, 112547, Note_on_c, 0, 55, 62
2, 112684, Note_on_c, 0, 47, 81
2, 112689, Note_on_c, 0, 48, 0
2, 112693, Note_on_c, 0, 55, 0
2, 112699, Note_on_c, 0, 62, 70
2, 112780, Note_on_c, 0, 62, 0
2, 112833, Note_on_c, 0, 45, 75
2, 112837, Note_on_c, 0, 55, 68
2, 112846, Note_on_c, 0, 47, 0
2, 112973, Note_on_c, 0, 45, 0
2, 112984, Note_on_c, 0, 43, 81
2, 112990, Note_on_c, 0, 64, 74
2, 112995, Note_on_c, 0, 55, 0
2, 113069, Note_on_c, 0, 64, 0
2, 113127, Note_on_c, 0, 41, 78
2, 113127, Note_on_c, 0, 43, 0
2, 113136, Note_on_c, 0, 55, 69
2, 113253, Note_on_c, 0, 41, 0
2, 113264, Note_on_c, 0, 55, 0
2, 113269, Note_on_c, 0, 40, 76
2, 113278, Note_on_c, 0, 65, 65
2, 113374, Note_on_c, 0, 65, 0
2, 113390, Note_on_c, 0, 40, 0
2, 113394, Note_on_c, 0, 38, 77
2, 113416, Note_on_c, 0, 55, 66
2, 113474, Note_on_c, 0, 55, 0
2, 113540, Note_on_c, 0, 38, 0
2, 113555, Note_on_c, 0, 64, 64
2, 113561, Note_on_c, 0, 36, 77
2, 113588, Note_on_c, 0, 64, 0
2, 113704, Note_on_c, 0, 38, 78
2, 113711, Note_on_c, 0, 72, 66
2, 113717, Note_on_c, 0, 36, 0
2, 113837, Note_on_c, 0, 72, 0
2, 113851, Note_on_c, 0, 38, 0
2, 113854, Note_on_c, 0, 40, 76
2, 113857, Note_on_c, 0, 71, 71
2, 113998, Note_on_c, 0, 42, 76
2, 113998, Note_on_c, 0, 71, 0
2, 113999, Note_on_c, 0, 74, 66
2, 114020, Note_on_c, 0, 40, 0
2, 114147, Note_on_c, 0, 69, 73
2, 114153, Note_on_c, 0, 44, 83
2, 114159, Note_on_c, 0, 74, 0
2, 114172, Note_on_c, 0, 42, 0
2, 114303, Note_on_c, 0, 74, 67
2, 114304, Note_on_c, 0, 45, 81
2, 114305, Note_on_c, 0, 69, 0
2, 114324, Note_on_c, 0, 44, 0
2, 114452, Note_on_c, 0, 47, 82
2, 114473, Note_on_c, 0, 45, 0
2, 114473, Note_on_c, 0, 68, 73
2, 114482, Note_on_c, 0, 74, 0
2, 114599, Note_on_c, 0, 48, 82
2, 114601, Note_on_c, 0, 68, 0
2, 114629, Note_on_c, 0, 74, 64
2, 114631, Note_on_c, 0, 47, 0
2, 114751, Note_on_c, 0, 50, 81
2, 114760, Note_on_c, 0, 74, 0
2, 114769, Note_on_c, 0, 66, 73
2, 114782, Note_on_c, 0, 48, 0
2, 114890, Note_on_c, 0, 50, 0
2, 114897, Note_on_c, 0, 52, 78
2, 114901, Note_on_c, 0, 66, 0
2, 114911, Note_on_c, 0, 74, 63
2, 115044, Note_on_c, 0, 74, 0
2, 115054, Note_on_c, 0, 54, 70
2, 115057, Note_on_c, 0, 52, 0
2, 115074, Note_on_c, 0, 64, 61
2, 115161, Note_on_c, 0, 64, 0
2, 115199, Note_on_c, 0, 54, 0
2, 115199, Note_on_c, 0, 74, 56
2, 115206, Note_on_c, 0, 56, 70
2, 115321, Note_on_c, 0, 74, 0
2, 115339, Note_on_c, 0, 56, 0
2, 115353, Note_on_c, 0, 57, 64
2, 115360, Note_on_c, 0, 72, 63
2, 115413, Note_on_c, 0, 72, 0
2, 115495, Note_on_c, 0, 55, 61
2, 115496, Note_on_c, 0, 69, 67
2, 115552, Note_on_c, 0, 57, 0
2, 115561, Note_on_c, 0, 69, 0
2, 115640, Note_on_c, 0, 71, 74
2, 115653, Note_on_c, 0, 54, 66
2, 115686, Note_on_c, 0, 55, 0
2, 115785, Note_on_c, 0, 73, 82
2, 115793, Note_on_c, 0, 57, 67
2, 115826, Note_on_c, 0, 71, 0
2, 115879, Note_on_c, 0, 54, 0
2, 115943, Note_on_c, 0, 52, 69
2, 115944, Note_on_c, 0, 75, 85
2, 115960, Note_on_c, 0, 57, 0
2, 115985, Note_on_c, 0, 73, 0
2, 116058, Note_on_c, 0, 75, 0
2, 116066, Note_on_c, 0, 76, 84
2, 116075, Note_on_c, 0, 57, 72
2, 116182, Note_on_c, 0, 52, 0
2, 116217, Note_on_c, 0, 51, 65
2, 116219, Note_on_c, 0, 78, 85
2, 116245, Note_on_c, 0, 76, 0
2, 116251, Note_on_c, 0, 57, 0
2, 116357, Note_on_c, 0, 79, 91
2, 116383, Note_on_c, 0, 57, 68
2, 116396, Note_on_c, 0, 78, 0
2, 116449, Note_on_c, 0, 51, 0
2, 116506, Note_on_c, 0, 81, 92
2, 116511, Note_on_c, 0, 49, 65
2, 116547, Note_on_c, 0, 79, 0
2, 116554, Note_on_c, 0, 57, 0
2, 116645, Note_on_c, 0, 83, 85
2, 116669, Note_on_c, 0, 81, 0
2, 116673, Note_on_c, 0, 57, 63
2, 116685, Note_on_c, 0, 49, 0
2, 116799, Note_on_c, 0, 84, 79
2, 116807, Note_on_c, 0, 83, 0
2, 116816, Note_on_c, 0, 47, 61
2, 116820, Note_on_c, 0, 57, 0
2, 116907, Note_on_c, 0, 47, 0
2, 116945, Note_on_c, 0, 84, 0
2, 116950, Note_on_c, 0, 75, 65
2, 116971, Note_on_c, 0, 57, 54
2, 117032, Note_on_c, 0, 57, 0
2, 117116, Note_on_c, 0, 75, 0
2, 117121, Note_on_c, 0, 76, 63
2, 117137, Note_on_c, 0, 55, 52
2, 117183, Note_on_c, 0, 55, 0
2, 117194, Note_on_c, 0, 76, 0
2, 117439, Note_on_c, 0, 78, 60
2, 117440, Note_on_c, 0, 60, 48
2, 117493, Note_on_c, 0, 60, 0
2, 117571, Note_on_c, 0, 76, 76
2, 117611, Note_on_c, 0, 78, 0
2, 117722, Note_on_c, 0, 75, 78
2, 117728, Note_on_c, 0, 59, 57
2, 117742, Note_on_c, 0, 76, 0
2, 117780, Note_on_c, 0, 59, 0
2, 117828, Note_on_c, 0, 75, 0
2, 117852, Note_on_c, 0, 76, 74
2, 118025, Note_on_c, 0, 78, 63
2, 118030, Note_on_c, 0, 57, 48
2, 118030, Note_on_c, 0, 76, 0
2, 118065, Note_on_c, 0, 78, 0
2, 118076, Note_on_c, 0, 57, 0
2, 118342, Note_on_c, 0, 79, 70
2, 118343, Note_on_c, 0, 59, 53
2, 118391, Note_on_c, 0, 59, 0
2, 118481, Note_on_c, 0, 78, 77
2, 118551, Note_on_c, 0, 79, 0
2, 118625, Note_on_c, 0, 76, 79
2, 118628, Note_on_c, 0, 47, 53
2, 118646, Note_on_c, 0, 78, 0
2, 118685, Note_on_c, 0, 47, 0
2, 118761, Note_on_c, 0, 78, 80
2, 118797, Note_on_c, 0, 76, 0
2, 118921, Note_on_c, 0, 79, 79
2, 118938, Note_on_c, 0, 78, 0
2, 118939, Note_on_c, 0, 52, 55
2, 118960, Note_on_c, 0, 79, 0
2, 119078, Note_on_c, 0, 52, 0
2, 119089, Note_on_c, 0, 54, 58
2, 119226, Note_on_c, 0, 54, 0
2, 119236, Note_on_c, 0, 78, 73
2, 119244, Note_on_c, 0, 55, 61
2, 119275, Note_on_c, 0, 78, 0
2, 119323, Note_on_c, 0, 55, 0
2, 119365, Note_on_c, 0, 52, 58
2, 119524, Note_on_c, 0, 52, 0
2, 119527, Note_on_c, 0, 76, 82
2, 119543, Note_on_c, 0, 57, 53
2, 119573, Note_on_c, 0, 76, 0
2, 119668, Note_on_c, 0, 57, 0
2, 119671, Note_on_c, 0, 52, 61
2, 119818, Note_on_c, 0, 52, 0
2, 119827, Note_on_c, 0, 71, 82
2, 119840, Note_on_c, 0, 59, 66
2, 119864, Note_on_c, 0, 71, 0
2, 119908, Note_on_c, 0, 59, 0
2, 119958, Note_on_c, 0, 52, 64
2, 120130, Note_on_c, 0, 81, 89
2, 120131, Note_on_c, 0, 52, 0
2, 120137, Note_on_c, 0, 61, 63
2, 120277, Note_on_c, 0, 52, 65
2, 120282, Note_on_c, 0, 61, 0
2, 120408, Note_on_c, 0, 52, 0
2, 120436, Note_on_c, 0, 63, 67
2, 120534, Note_on_c, 0, 63, 0
2, 120568, Note_on_c, 0, 52, 60
2, 120671, Note_on_c, 0, 52, 0
2, 120740, Note_on_c, 0, 79, 77
2, 120744, Note_on_c, 0, 64, 64
2, 120756, Note_on_c, 0, 81, 0
2, 120783, Note_on_c, 0, 79, 0
2, 120826, Note_on_c, 0, 64, 0
2, 120875, Note_on_c, 0, 63, 64
2, 121028, Note_on_c, 0, 64, 72
2, 121037, Note_on_c, 0, 78, 83
2, 121048, Note_on_c, 0, 63, 0
2, 121095, Note_on_c, 0, 78, 0
2, 121158, Note_on_c, 0, 66, 73
2, 121186, Note_on_c, 0, 64, 0
2, 121327, Note_on_c, 0, 67, 71
2, 121335, Note_on_c, 0, 76, 83
2, 121360, Note_on_c, 0, 66, 0
2, 121394, Note_on_c, 0, 76, 0
2, 121458, Note_on_c, 0, 67, 0
2, 121463, Note_on_c, 0, 64, 74
2, 121634, Note_on_c, 0, 75, 89
2, 121637, Note_on_c, 0, 64, 0
2, 121639, Note_on_c, 0, 66, 70
2, 121669, Note_on_c, 0, 75, 0
2, 121784, Note_on_c, 0, 64, 69
2, 121788, Note_on_c, 0, 66, 0
2, 121937, Note_on_c, 0, 84, 92
2, 121945, Note_on_c, 0, 66, 70
2, 121955, Note_on_c, 0, 64, 0
2, 122089, Note_on_c, 0, 67, 71
2, 122105, Note_on_c, 0, 66, 0
2, 122245, Note_on_c, 0, 69, 70
2, 122269, Note_on_c, 0, 67, 0
2, 122383, Note_on_c, 0, 66, 74
2, 122399, Note_on_c, 0, 69, 0
2, 122553, Note_on_c, 0, 67, 74
2, 122554, Note_on_c, 0, 83, 81
2, 122569, Note_on_c, 0, 66, 0
2, 122579, Note_on_c, 0, 84, 0
2, 122865, Note_on_c, 0, 84, 81
2, 122871, Note_on_c, 0, 69, 74
2, 122885, Note_on_c, 0, 67, 0
2, 122891, Note_on_c, 0, 83, 0
2, 123003, Note_on_c, 0, 83, 88
2, 123011, Note_on_c, 0, 67, 75
2, 123027, Note_on_c, 0, 69, 0
2, 123157, Note_on_c, 0, 81, 87
2, 123160, Note_on_c, 0, 66, 72
2, 123171, Note_on_c, 0, 84, 0
2, 123197, Note_on_c, 0, 67, 0
2, 123214, Note_on_c, 0, 83, 0
2, 123280, Note_on_c, 0, 81, 0
2, 123281, Note_on_c, 0, 64, 70
2, 123282, Note_on_c, 0, 66, 0
2, 123283, Note_on_c, 0, 79, 84
2, 123460, Note_on_c, 0, 78, 78
2, 123463, Note_on_c, 0, 69, 77
2, 123496, Note_on_c, 0, 79, 0
2, 123499, Note_on_c, 0, 64, 0
2, 123547, Note_on_c, 0, 78, 0
2, 123778, Note_on_c, 0, 81, 85
2, 123925, Note_on_c, 0, 79, 84
2, 124081, Note_on_c, 0, 78, 84
2, 124084, Note_on_c, 0, 81, 0
2, 124159, Note_on_c, 0, 79, 0
2, 124212, Note_on_c, 0, 76, 81
2, 124233, Note_on_c, 0, 78, 0
2, 124376, Note_on_c, 0, 75, 82
2, 124380, Note_on_c, 0, 76, 0
2, 124407, Note_on_c, 0, 75, 0
2, 124494, Note_on_c, 0, 69, 0
2, 124513, Note_on_c, 0, 67, 59
2, 124667, Note_on_c, 0, 67, 0
2, 124671, Note_on_c, 0, 81, 75
2, 124677, Note_on_c, 0, 66, 59
2, 124706, Note_on_c, 0, 81, 0
2, 124788, Note_on_c, 0, 66, 0
2, 124819, Note_on_c, 0, 69, 58
2, 124949, Note_on_c, 0, 69, 0
2, 124972, Note_on_c, 0, 79, 71
2, 124978, Note_on_c, 0, 64, 50
2, 125007, Note_on_c, 0, 79, 0
2, 125049, Note_on_c, 0, 64, 0
2, 125119, Note_on_c, 0, 69, 53
2, 125249, Note_on_c, 0, 69, 0
2, 125277, Note_on_c, 0, 78, 69
2, 125285, Note_on_c, 0, 63, 61
2, 125318, Note_on_c, 0, 78, 0
2, 125353, Note_on_c, 0, 63, 0
2, 125406, Note_on_c, 0, 69, 63
2, 125542, Note_on_c, 0, 69, 0
2, 125577, Note_on_c, 0, 61, 51
2, 125581, Note_on_c, 0, 76, 66
2, 125619, Note_on_c, 0, 76, 0
2, 125657, Note_on_c, 0, 61, 0
2, 125708, Note_on_c, 0, 69, 56
2, 125840, Note_on_c, 0, 69, 0
2, 125866, Note_on_c, 0, 59, 51
2, 125874, Note_on_c, 0, 75, 69
2, 125912, Note_on_c, 0, 75, 0
2, 125929, Note_on_c, 0, 59, 0
2, 126004, Note_on_c, 0, 69, 50
2, 126149, Note_on_c, 0, 69, 0
2, 126165, Note_on_c, 0, 67, 58
2, 126169, Note_on_c, 0, 76, 61
2, 126328, Note_on_c, 0, 76, 0
2, 126385, Note_on_c, 0, 67, 0
2, 126487, Note_on_c, 0, 74, 67
2, 126489, Note_on_c, 0, 66, 61
2, 126538, Note_on_c, 0, 74, 0
2, 126608, Note_on_c, 0, 67, 69
2, 126630, Note_on_c, 0, 66, 0
2, 126773, Note_on_c, 0, 72, 76
2, 126774, Note_on_c, 0, 69, 71
2, 126789, Note_on_c, 0, 67, 0
2, 126812, Note_on_c, 0, 72, 0
2, 126897, Note_on_c, 0, 67, 66
2, 126901, Note_on_c, 0, 69, 0
2, 127086, Note_on_c, 0, 74, 65
2, 127088, Note_on_c, 0, 66, 70
2, 127126, Note_on_c, 0, 67, 0
2, 127174, Note_on_c, 0, 74, 0
2, 127286, Note_on_c, 0, 66, 0
2, 127403, Note_on_c, 0, 72, 77
2, 127408, Note_on_c, 0, 64, 64
2, 127442, Note_on_c, 0, 72, 0
2, 127520, Note_on_c, 0, 64, 0
2, 127530, Note_on_c, 0, 66, 67
2, 127701, Note_on_c, 0, 66, 0
2, 127702, Note_on_c, 0, 71, 65
2, 127708, Note_on_c, 0, 67, 58
2, 127742, Note_on_c, 0, 71, 0
2, 127815, Note_on_c, 0, 67, 0
2, 127842, Note_on_c, 0, 66, 63
2, 127979, Note_on_c, 0, 66, 0
2, 127985, Note_on_c, 0, 72, 66
2, 127994, Note_on_c, 0, 64, 61
2, 128038, Note_on_c, 0, 64, 0
2, 128072, Note_on_c, 0, 72, 0
2, 128129, Note_on_c, 0, 84, 66
2, 128270, Note_on_c, 0, 66, 78
2, 128290, Note_on_c, 0, 83, 70
2, 128294, Note_on_c, 0, 84, 0
2, 128325, Note_on_c, 0, 66, 0
2, 128422, Note_on_c, 0, 81, 80
2, 128462, Note_on_c, 0, 83, 0
2, 128574, Note_on_c, 0, 67, 85
2, 128578, Note_on_c, 0, 79, 77
2, 128603, Note_on_c, 0, 81, 0
2, 128621, Note_on_c, 0, 67, 0
2, 128714, Note_on_c, 0, 83, 80
2, 128770, Note_on_c, 0, 79, 0
2, 128878, Note_on_c, 0, 72, 88
2, 128883, Note_on_c, 0, 81, 79
2, 128919, Note_on_c, 0, 83, 0
2, 128930, Note_on_c, 0, 72, 0
2, 129029, Note_on_c, 0, 83, 74
2, 129036, Note_on_c, 0, 81, 0
2, 129179, Note_on_c, 0, 63, 79
2, 129198, Note_on_c, 0, 81, 65
2, 129244, Note_on_c, 0, 83, 0
2, 129326, Note_on_c, 0, 81, 0
2, 129349, Note_on_c, 0, 79, 70
2, 129478, Note_on_c, 0, 79, 0
2, 129502, Note_on_c, 0, 78, 65
2, 129637, Note_on_c, 0, 78, 0
2, 129646, Note_on_c, 0, 81, 59
2, 129794, Note_on_c, 0, 81, 0
2, 129809, Note_on_c, 0, 64, 68
2, 129815, Note_on_c, 0, 79, 58
2, 129832, Note_on_c, 0, 63, 0
2, 129847, Note_on_c, 0, 64, 0
2, 129931, Note_on_c, 0, 79, 0
2, 129955, Note_on_c, 0, 81, 59
2, 130115, Note_on_c, 0, 66, 63
2, 130139, Note_on_c, 0, 81, 0
2, 130151, Note_on_c, 0, 79, 56
2, 130160, Note_on_c, 0, 66, 0
2, 130270, Note_on_c, 0, 79, 0
2, 130277, Note_on_c, 0, 78, 60
2, 130395, Note_on_c, 0, 78, 0
2, 130410, Note_on_c, 0, 67, 52
2, 130416, Note_on_c, 0, 76, 55
2, 130449, Note_on_c, 0, 67, 0
2, 130516, Note_on_c, 0, 76, 0
2, 130548, Note_on_c, 0, 79, 56
2, 130689, Note_on_c, 0, 79, 0
2, 130716, Note_on_c, 0, 78, 58
2, 130721, Note_on_c, 0, 69, 38
2, 130758, Note_on_c, 0, 69, 0
2, 130837, Note_on_c, 0, 78, 0
2, 130857, Note_on_c, 0, 79, 54
2, 131002, Note_on_c, 0, 59, 60
2, 131008, Note_on_c, 0, 79, 0
2, 131015, Note_on_c, 0, 78, 52
2, 131126, Note_on_c, 0, 78, 0
2, 131157, Note_on_c, 0, 76, 58
2, 131306, Note_on_c, 0, 75, 64
2, 131318, Note_on_c, 0, 76, 0
2, 131351, Note_on_c, 0, 59, 0
2, 131439, Note_on_c, 0, 78, 61
2, 131456, Note_on_c, 0, 75, 0
2, 131590, Note_on_c, 0, 78, 0
2, 131614, Note_on_c, 0, 76, 60
2, 131630, Note_on_c, 0, 60, 55
2, 131720, Note_on_c, 0, 60, 0
2, 131764, Note_on_c, 0, 59, 56
2, 131889, Note_on_c, 0, 59, 0
2, 131923, Note_on_c, 0, 57, 55
2, 131929, Note_on_c, 0, 78, 69
2, 131996, Note_on_c, 0, 76, 0
2, 132056, Note_on_c, 0, 59, 62
2, 132063, Note_on_c, 0, 79, 79
2, 132126, Note_on_c, 0, 78, 0
2, 132219, Note_on_c, 0, 81, 83
2, 132220, Note_on_c, 0, 60, 65
2, 132268, Note_on_c, 0, 79, 0
2, 132299, Note_on_c, 0, 59, 0
2, 132330, Note_on_c, 0, 57, 0
2, 132356, Note_on_c, 0, 62, 77
2, 132408, Note_on_c, 0, 60, 0
2, 132510, Note_on_c, 0, 64, 81
2, 132512, Note_on_c, 0, 62, 0
2, 132645, Note_on_c, 0, 63, 78
2, 132663, Note_on_c, 0, 64, 0
2, 132752, Note_on_c, 0, 81, 0
2, 132794, Note_on_c, 0, 64, 74
2, 132802, Note_on_c, 0, 63, 0
2, 132804, Note_on_c, 0, 79, 88
2, 132946, Note_on_c, 0, 66, 76
2, 132947, Note_on_c, 0, 81, 93
2, 132989, Note_on_c, 0, 64, 0
2, 133093, Note_on_c, 0, 83, 90
2, 133094, Note_on_c, 0, 67, 80
2, 133102, Note_on_c, 0, 81, 0
2, 133110, Note_on_c, 0, 79, 0
2, 133195, Control_c, 0, 64, 35
2, 133213, Control_c, 0, 64, 50
2, 133233, Control_c, 0, 64, 55
2, 133243, Note_on_c, 0, 69, 91
2, 133252, Control_c, 0, 64, 57
2, 133272, Control_c, 0, 64, 58
2, 133288, Note_on_c, 0, 67, 0
2, 133290, Control_c, 0, 64, 59
2, 133325, Note_on_c, 0, 66, 0
2, 133329, Control_c, 0, 64, 58
2, 133337, Note_on_c, 0, 69, 0
2, 133349, Control_c, 0, 64, 57
2, 133367, Control_c, 0, 64, 55
2, 133387, Control_c, 0, 64, 51
2, 133395, Note_on_c, 0, 71, 91
2, 133401, Note_on_c, 0, 83, 0
2, 133406, Control_c, 0, 64, 42
2, 133425, Control_c, 0, 64, 0
2, 133537, Note_on_c, 0, 47, 68
2, 133623, Note_on_c, 0, 49, 74
2, 133646, Note_on_c, 0, 47, 0
2, 133694, Note_on_c, 0, 51, 81
2, 133710, Note_on_c, 0, 81, 89
2, 133728, Note_on_c, 0, 49, 0
2, 133783, Note_on_c, 0, 81, 0
2, 133833, Note_on_c, 0, 47, 79
2, 133852, Note_on_c, 0, 51, 0
2, 133998, Note_on_c, 0, 79, 94
2, 134008, Note_on_c, 0, 52, 80
2, 134026, Note_on_c, 0, 47, 0
2, 134074, Note_on_c, 0, 79, 0
2, 134141, Note_on_c, 0, 47, 73
2, 134180, Note_on_c, 0, 52, 0
2, 134307, Note_on_c, 0, 54, 81
2, 134315, Note_on_c, 0, 78, 89
2, 134322, Note_on_c, 0, 47, 0
2, 134444, Note_on_c, 0, 79, 90
2, 134445, Note_on_c, 0, 47, 76
2, 134448, Note_on_c, 0, 54, 0
2, 134462, Note_on_c, 0, 71, 0
2, 134488, Note_on_c, 0, 78, 0
2, 134600, Note_on_c, 0, 72, 81
2, 134600, Note_on_c, 0, 81, 89
2, 134610, Note_on_c, 0, 47, 0
2, 134611, Note_on_c, 0, 55, 79
2, 134625, Note_on_c, 0, 79, 0
2, 134648, Note_on_c, 0, 72, 0
2, 134653, Note_on_c, 0, 81, 0
2, 134742, Note_on_c, 0, 47, 78
2, 134764, Note_on_c, 0, 55, 0
2, 134909, Note_on_c, 0, 75, 92
2, 134917, Note_on_c, 0, 47, 0
2, 134917, Note_on_c, 0, 66, 83
2, 134927, Note_on_c, 0, 57, 69
2, 134971, Note_on_c, 0, 66, 0
2, 134978, Note_on_c, 0, 75, 0
2, 135062, Note_on_c, 0, 47, 71
2, 135134, Note_on_c, 0, 57, 0
2, 135257, Note_on_c, 0, 76, 86
2, 135266, Note_on_c, 0, 64, 79
2, 135273, Note_on_c, 0, 55, 67
2, 135335, Note_on_c, 0, 47, 0
2, 135407, Note_on_c, 0, 54, 68
2, 135410, Note_on_c, 0, 66, 84
2, 135412, Note_on_c, 0, 64, 0
2, 135488, Note_on_c, 0, 55, 0
2, 135569, Note_on_c, 0, 67, 83
2, 135575, Note_on_c, 0, 52, 63
2, 135579, Note_on_c, 0, 54, 0
2, 135609, Note_on_c, 0, 66, 0
2, 135737, Note_on_c, 0, 55, 58
2, 135803, Note_on_c, 0, 52, 0
2, 135884, Note_on_c, 0, 71, 83
2, 135889, Note_on_c, 0, 55, 0
2, 135891, Note_on_c, 0, 76, 0
2, 135898, Note_on_c, 0, 50, 61
2, 136021, Note_on_c, 0, 50, 0
2, 136049, Note_on_c, 0, 55, 60
2, 136233, Note_on_c, 0, 67, 0
2, 136244, Note_on_c, 0, 71, 0
2, 136254, Note_on_c, 0, 55, 0
2, 136260, Note_on_c, 0, 49, 55
2, 136263, Note_on_c, 0, 69, 69
2, 136372, Note_on_c, 0, 49, 0
2, 136421, Note_on_c, 0, 55, 52
2, 136432, Note_on_c, 0, 66, 51
2, 136559, Note_on_c, 0, 55, 0
2, 136565, Note_on_c, 0, 66, 0
2, 136578, Note_on_c, 0, 47, 56
2, 136593, Note_on_c, 0, 64, 52
2, 136679, Note_on_c, 0, 64, 0
2, 136694, Note_on_c, 0, 47, 0
2, 136735, Note_on_c, 0, 62, 53
2, 136738, Note_on_c, 0, 55, 52
2, 136878, Note_on_c, 0, 62, 0
2, 136888, Note_on_c, 0, 61, 56
2, 136890, Note_on_c, 0, 55, 0
2, 136898, Note_on_c, 0, 45, 48
2, 137005, Note_on_c, 0, 61, 0
2, 137007, Note_on_c, 0, 45, 0
2, 137039, Note_on_c, 0, 64, 51
2, 137054, Note_on_c, 0, 55, 51
2, 137156, Note_on_c, 0, 64, 0
2, 137158, Note_on_c, 0, 55, 0
2, 137193, Note_on_c, 0, 62, 56
2, 137204, Note_on_c, 0, 54, 50
2, 137322, Note_on_c, 0, 54, 0
2, 137331, Note_on_c, 0, 64, 63
2, 137335, Note_on_c, 0, 52, 56
2, 137430, Note_on_c, 0, 69, 0
2, 137438, Note_on_c, 0, 52, 0
2, 137462, Note_on_c, 0, 62, 0
2, 137487, Note_on_c, 0, 50, 57
2, 137488, Note_on_c, 0, 66, 65
2, 137547, Note_on_c, 0, 64, 0
2, 137613, Note_on_c, 0, 50, 0
2, 137631, Note_on_c, 0, 54, 57
2, 137769, Note_on_c, 0, 54, 0
2, 137781, Note_on_c, 0, 69, 65
2, 137786, Note_on_c, 0, 49, 53
2, 137877, Note_on_c, 0, 49, 0
2, 137935, Note_on_c, 0, 54, 53
2, 138056, Note_on_c, 0, 54, 0
2, 138080, Note_on_c, 0, 47, 48
2, 138082, Note_on_c, 0, 67, 54
2, 138088, Note_on_c, 0, 69, 0
2, 138191, Note_on_c, 0, 47, 0
2, 138223, Note_on_c, 0, 54, 51
2, 138237, Note_on_c, 0, 64, 52
2, 138277, Note_on_c, 0, 66, 0
2, 138369, Note_on_c, 0, 54, 0
2, 138373, Note_on_c, 0, 64, 0
2, 138386, Note_on_c, 0, 45, 50
2, 138405, Note_on_c, 0, 62, 55
2, 138489, Note_on_c, 0, 62, 0
2, 138504, Note_on_c, 0, 45, 0
2, 138541, Note_on_c, 0, 54, 53
2, 138544, Note_on_c, 0, 61, 56
2, 138678, Note_on_c, 0, 59, 64
2, 138688, Note_on_c, 0, 43, 51
2, 138692, Note_on_c, 0, 54, 0
2, 138706, Note_on_c, 0, 61, 0
2, 138774, Note_on_c, 0, 43, 0
2, 138839, Note_on_c, 0, 54, 54
2, 138839, Note_on_c, 0, 59, 0
2, 138843, Note_on_c, 0, 62, 58
2, 138957, Note_on_c, 0, 54, 0
2, 138980, Note_on_c, 0, 62, 0
2, 138996, Note_on_c, 0, 61, 60
2, 139009, Note_on_c, 0, 52, 54
2, 139123, Note_on_c, 0, 52, 0
2, 139149, Note_on_c, 0, 62, 58
2, 139156, Note_on_c, 0, 50, 54
2, 139168, Note_on_c, 0, 61, 0
2, 139241, Note_on_c, 0, 67, 0
2, 139254, Note_on_c, 0, 50, 0
2, 139310, Note_on_c, 0, 49, 52
2, 139318, Note_on_c, 0, 64, 61
2, 139331, Note_on_c, 0, 62, 0
2, 139395, Note_on_c, 0, 49, 0
2, 139437, Note_on_c, 0, 52, 52
2, 139578, Note_on_c, 0, 52, 0
2, 139620, Note_on_c, 0, 47, 46
2, 139624, Note_on_c, 0, 67, 52
2, 139717, Note_on_c, 0, 47, 0
2, 139756, Note_on_c, 0, 52, 48
2, 139893, Note_on_c, 0, 52, 0
2, 139910, Note_on_c, 0, 64, 0
2, 139920, Note_on_c, 0, 67, 0
2, 139923, Note_on_c, 0, 46, 54
2, 139929, Note_on_c, 0, 66, 61
2, 140022, Note_on_c, 0, 46, 0
2, 140061, Note_on_c, 0, 52, 57
2, 140069, Note_on_c, 0, 62, 65
2, 140175, Note_on_c, 0, 62, 0
2, 140209, Note_on_c, 0, 52, 0
2, 140229, Note_on_c, 0, 61, 60
2, 140231, Note_on_c, 0, 44, 52
2, 140321, Note_on_c, 0, 44, 0
2, 140338, Note_on_c, 0, 61, 0
2, 140358, Note_on_c, 0, 59, 68
2, 140360, Note_on_c, 0, 52, 57
2, 140488, Note_on_c, 0, 52, 0
2, 140520, Note_on_c, 0, 42, 48
2, 140526, Note_on_c, 0, 58, 59
2, 140528, Note_on_c, 0, 59, 0
2, 140608, Note_on_c, 0, 42, 0
2, 140644, Note_on_c, 0, 66, 0
2, 140661, Note_on_c, 0, 61, 59
2, 140663, Note_on_c, 0, 52, 48
2, 140703, Note_on_c, 0, 58, 0
2, 140745, Note_on_c, 0, 52, 0
2, 140781, Note_on_c, 0, 61, 0
2, 140830, Note_on_c, 0, 50, 57
2, 140830, Note_on_c, 0, 59, 51
2, 140863, Note_on_c, 0, 59, 0
2, 140929, Note_on_c, 0, 50, 0
2, 140967, Note_on_c, 0, 54, 60
2, 140971, Note_on_c, 0, 71, 71
2, 141077, Note_on_c, 0, 54, 0
2, 141111, Note_on_c, 0, 52, 58
2, 141122, Note_on_c, 0, 73, 77
2, 141145, Note_on_c, 0, 71, 0
2, 141244, Note_on_c, 0, 52, 0
2, 141247, Note_on_c, 0, 50, 64
2, 141268, Note_on_c, 0, 71, 84
2, 141390, Note_on_c, 0, 50, 0
2, 141400, Note_on_c, 0, 49, 67
2, 141408, Note_on_c, 0, 73, 0
2, 141409, Note_on_c, 0, 70, 83
2, 141442, Note_on_c, 0, 71, 0
2, 141527, Note_on_c, 0, 70, 0
2, 141538, Note_on_c, 0, 47, 63
2, 141538, Note_on_c, 0, 49, 0
2, 141543, Note_on_c, 0, 71, 80
2, 141703, Note_on_c, 0, 46, 68
2, 141705, Note_on_c, 0, 73, 78
2, 141712, Note_on_c, 0, 47, 0
2, 141747, Note_on_c, 0, 71, 0
2, 141823, Note_on_c, 0, 73, 0
2, 141842, Note_on_c, 0, 49, 76
2, 141859, Note_on_c, 0, 46, 0
2, 142008, Note_on_c, 0, 47, 73
2, 142012, Note_on_c, 0, 49, 0
2, 142015, Note_on_c, 0, 74, 81
2, 142145, Note_on_c, 0, 46, 74
2, 142145, Note_on_c, 0, 47, 0
2, 142145, Note_on_c, 0, 73, 83
2, 142288, Note_on_c, 0, 74, 0
2, 142290, Note_on_c, 0, 44, 72
2, 142293, Note_on_c, 0, 71, 87
2, 142297, Note_on_c, 0, 46, 0
2, 142321, Note_on_c, 0, 73, 0
2, 142417, Note_on_c, 0, 42, 69
2, 142417, Note_on_c, 0, 44, 0
2, 142434, Note_on_c, 0, 73, 87
2, 142482, Note_on_c, 0, 71, 0
2, 142587, Note_on_c, 0, 42, 0
2, 142600, Note_on_c, 0, 74, 84
2, 142610, Note_on_c, 0, 47, 74
2, 142634, Note_on_c, 0, 73, 0
2, 142660, Note_on_c, 0, 74, 0
2, 142672, Note_on_c, 0, 47, 0
2, 142920, Note_on_c, 0, 73, 86
2, 142934, Note_on_c, 0, 49, 70
2, 142987, Note_on_c, 0, 73, 0
2, 143080, Note_on_c, 0, 47, 74
2, 143095, Note_on_c, 0, 49, 0
2, 143220, Note_on_c, 0, 46, 78
2, 143220, Note_on_c, 0, 71, 84
2, 143225, Note_on_c, 0, 47, 0
2, 143281, Note_on_c, 0, 71, 0
2, 143351, Note_on_c, 0, 47, 81
2, 143373, Note_on_c, 0, 46, 0
2, 143527, Note_on_c, 0, 49, 89
2, 143539, Note_on_c, 0, 70, 89
2, 143560, Note_on_c, 0, 47, 0
2, 143581, Note_on_c, 0, 70, 0
2, 143685, Note_on_c, 0, 49, 0
2, 143855, Note_on_c, 0, 79, 84
2, 143858, Note_on_c, 0, 50, 79
2, 143990, Note_on_c, 0, 49, 83
2, 144015, Note_on_c, 0, 50, 0
2, 144148, Note_on_c, 0, 47, 75
2, 144163, Note_on_c, 0, 49, 0
2, 144283, Note_on_c, 0, 49, 89
2, 144307, Note_on_c, 0, 47, 0
2, 144458, Note_on_c, 0, 50, 87
2, 144463, Note_on_c, 0, 78, 80
2, 144483, Note_on_c, 0, 49, 0
2, 144491, Note_on_c, 0, 79, 0
2, 144518, Note_on_c, 0, 50, 0
2, 144776, Note_on_c, 0, 49, 91
2, 144778, Note_on_c, 0, 79, 75
2, 144816, Note_on_c, 0, 78, 0
2, 144836, Note_on_c, 0, 49, 0
2, 144929, Note_on_c, 0, 78, 81
2, 145080, Note_on_c, 0, 47, 91
2, 145093, Note_on_c, 0, 76, 79
2, 145116, Note_on_c, 0, 47, 0
2, 145116, Note_on_c, 0, 79, 0
2, 145166, Note_on_c, 0, 78, 0
2, 145204, Note_on_c, 0, 76, 0
2, 145220, Note_on_c, 0, 74, 70
2, 145385, Note_on_c, 0, 46, 92
2, 145399, Note_on_c, 0, 73, 77
2, 145422, Note_on_c, 0, 46, 0
2, 145430, Note_on_c, 0, 74, 0
2, 145730, Note_on_c, 0, 55, 85
2, 145735, Note_on_c, 0, 76, 75
2, 145764, Note_on_c, 0, 73, 0
2, 145881, Note_on_c, 0, 74, 67
2, 145969, Note_on_c, 0, 76, 0
2, 146035, Note_on_c, 0, 74, 0
2, 146037, Note_on_c, 0, 73, 69
2, 146145, Note_on_c, 0, 73, 0
2, 146182, Note_on_c, 0, 71, 57
2, 146306, Note_on_c, 0, 55, 0
2, 146325, Note_on_c, 0, 71, 0
2, 146338, Note_on_c, 0, 54, 58
2, 146358, Note_on_c, 0, 70, 59
2, 146458, Note_on_c, 0, 70, 0
2, 146460, Note_on_c, 0, 54, 0
2, 146481, Note_on_c, 0, 56, 60
2, 146490, Note_on_c, 0, 71, 58
2, 146606, Note_on_c, 0, 71, 0
2, 146616, Note_on_c, 0, 56, 0
2, 146638, Note_on_c, 0, 58, 57
2, 146654, Note_on_c, 0, 73, 59
2, 146755, Note_on_c, 0, 58, 0
2, 146774, Note_on_c, 0, 54, 58
2, 146779, Note_on_c, 0, 73, 0
2, 146799, Note_on_c, 0, 70, 65
2, 146926, Note_on_c, 0, 54, 0
2, 146933, Note_on_c, 0, 74, 79
2, 146938, Note_on_c, 0, 59, 76
2, 146948, Note_on_c, 0, 70, 0
2, 147073, Note_on_c, 0, 54, 66
2, 147079, Note_on_c, 0, 70, 79
2, 147109, Note_on_c, 0, 59, 0
2, 147113, Note_on_c, 0, 74, 0
2, 147235, Note_on_c, 0, 61, 72
2, 147236, Note_on_c, 0, 76, 85
2, 147239, Note_on_c, 0, 54, 0
2, 147256, Note_on_c, 0, 70, 0
2, 147379, Note_on_c, 0, 76, 0
2, 147383, Note_on_c, 0, 70, 77
2, 147391, Note_on_c, 0, 54, 61
2, 147399, Note_on_c, 0, 61, 0
2, 147518, Note_on_c, 0, 54, 0
2, 147535, Note_on_c, 0, 78, 76
2, 147543, Note_on_c, 0, 62, 49
2, 147565, Note_on_c, 0, 70, 0
2, 147640, Note_on_c, 0, 78, 0
2, 147659, Note_on_c, 0, 62, 0
2, 147669, Note_on_c, 0, 54, 58
2, 147686, Note_on_c, 0, 70, 65
2, 147802, Note_on_c, 0, 54, 0
2, 147839, Note_on_c, 0, 70, 0
2, 147841, Note_on_c, 0, 79, 67
2, 147847, Note_on_c, 0, 64, 53
2, 147924, Note_on_c, 0, 64, 0
2, 147940, Note_on_c, 0, 79, 0
2, 147973, Note_on_c, 0, 54, 51
2, 147991, Note_on_c, 0, 70, 63
2, 148105, Note_on_c, 0, 54, 0
2, 148151, Note_on_c, 0, 62, 51
2, 148157, Note_on_c, 0, 78, 46
2, 148240, Note_on_c, 0, 70, 0
2, 148279, Note_on_c, 0, 62, 0
2, 148282, Note_on_c, 0, 54, 53
2, 148312, Note_on_c, 0, 78, 0
2, 148429, Note_on_c, 0, 54, 0
2, 148460, Note_on_c, 0, 55, 48
2, 148466, Note_on_c, 0, 71, 53
2, 148526, Note_on_c, 0, 55, 0
2, 148591, Note_on_c, 0, 62, 52
2, 148597, Note_on_c, 0, 78, 58
2, 148641, Note_on_c, 0, 71, 0
2, 148713, Note_on_c, 0, 78, 0
2, 148714, Note_on_c, 0, 62, 0
2, 148744, Note_on_c, 0, 61, 62
2, 148752, Note_on_c, 0, 76, 61
2, 148803, Note_on_c, 0, 74, 63
2, 148811, Note_on_c, 0, 76, 0
2, 148837, Note_on_c, 0, 61, 0
2, 148851, Note_on_c, 0, 74, 0
2, 148865, Note_on_c, 0, 73, 71
2, 148870, Note_on_c, 0, 58, 55
2, 148929, Note_on_c, 0, 59, 34
2, 148942, Note_on_c, 0, 74, 71
2, 148943, Note_on_c, 0, 58, 0
2, 148955, Note_on_c, 0, 73, 0
2, 149009, Note_on_c, 0, 59, 0
2, 149022, Note_on_c, 0, 61, 59
2, 149042, Note_on_c, 0, 76, 76
2, 149050, Note_on_c, 0, 74, 0
2, 149158, Note_on_c, 0, 61, 0
2, 149189, Note_on_c, 0, 52, 61
2, 149190, Note_on_c, 0, 68, 75
2, 149341, Note_on_c, 0, 52, 0
2, 149346, Note_on_c, 0, 54, 70
2, 149348, Note_on_c, 0, 70, 81
2, 149352, Note_on_c, 0, 76, 0
2, 149372, Note_on_c, 0, 68, 0
2, 149475, Note_on_c, 0, 54, 0
2, 149492, Note_on_c, 0, 61, 73
2, 149492, Note_on_c, 0, 76, 72
2, 149517, Note_on_c, 0, 70, 0
2, 149597, Note_on_c, 0, 61, 0
2, 149626, Note_on_c, 0, 74, 69
2, 149633, Note_on_c, 0, 76, 0
2, 149635, Note_on_c, 0, 59, 56
2, 149676, Note_on_c, 0, 73, 65
2, 149691, Note_on_c, 0, 58, 55
2, 149702, Note_on_c, 0, 59, 0
2, 149716, Note_on_c, 0, 74, 0
2, 149737, Note_on_c, 0, 58, 0
2, 149746, Note_on_c, 0, 73, 0
2, 149750, Note_on_c, 0, 71, 74
2, 149769, Note_on_c, 0, 56, 63
2, 149821, Note_on_c, 0, 73, 66
2, 149826, Note_on_c, 0, 56, 0
2, 149836, Note_on_c, 0, 71, 0
2, 149838, Note_on_c, 0, 58, 62
2, 149894, Note_on_c, 0, 58, 0
2, 149938, Note_on_c, 0, 73, 0
2, 149941, Note_on_c, 0, 74, 61
2, 149942, Note_on_c, 0, 59, 63
2, 150092, Note_on_c, 0, 59, 0
2, 150094, Note_on_c, 0, 61, 56
2, 150259, Note_on_c, 0, 62, 60
2, 150338, Note_on_c, 0, 61, 0
2, 150407, Note_on_c, 0, 59, 76
2, 150413, Note_on_c, 0, 62, 0
2, 150564, Note_on_c, 0, 64, 76
2, 150591, Note_on_c, 0, 59, 0
2, 150713, Note_on_c, 0, 59, 81
2, 150781, Note_on_c, 0, 64, 0
2, 150867, Note_on_c, 0, 66, 80
2, 150890, Note_on_c, 0, 59, 0
2, 151021, Note_on_c, 0, 59, 76
2, 151077, Note_on_c, 0, 66, 0
2, 151157, Note_on_c, 0, 59, 0
2, 151173, Note_on_c, 0, 68, 72
2, 151307, Note_on_c, 0, 68, 0
2, 151319, Note_on_c, 0, 59, 58
2, 151415, Note_on_c, 0, 59, 0
2, 151484, Note_on_c, 0, 47, 54
2, 151484, Note_on_c, 0, 69, 58
2, 151523, Note_on_c, 0, 47, 0
2, 151584, Note_on_c, 0, 69, 0
2, 151633, Note_on_c, 0, 59, 42
2, 151753, Note_on_c, 0, 59, 0
2, 151791, Note_on_c, 0, 68, 58
2, 151805, Note_on_c, 0, 52, 49
2, 151839, Note_on_c, 0, 68, 0
2, 151895, Note_on_c, 0, 52, 0
2, 151934, Note_on_c, 0, 54, 56
2, 152072, Note_on_c, 0, 54, 0
2, 152095, Note_on_c, 0, 56, 56
2, 152106, Note_on_c, 0, 64, 65
2, 152154, Note_on_c, 0, 64, 0
2, 152209, Note_on_c, 0, 56, 0
2, 152240, Note_on_c, 0, 52, 51
2, 152379, Note_on_c, 0, 52, 0
2, 152399, Note_on_c, 0, 57, 66
2, 152406, Note_on_c, 0, 66, 75
2, 152466, Note_on_c, 0, 66, 0
2, 152483, Note_on_c, 0, 57, 0
2, 152539, Note_on_c, 0, 52, 60
2, 152703, Note_on_c, 0, 52, 0
2, 152707, Note_on_c, 0, 68, 81
2, 152718, Note_on_c, 0, 59, 63
2, 152779, Note_on_c, 0, 68, 0
2, 152838, Note_on_c, 0, 59, 0
2, 152843, Note_on_c, 0, 52, 69
2, 153010, Note_on_c, 0, 69, 86
2, 153017, Note_on_c, 0, 61, 72
2, 153039, Note_on_c, 0, 52, 0
2, 153080, Note_on_c, 0, 69, 0
2, 153154, Note_on_c, 0, 52, 67
2, 153156, Note_on_c, 0, 61, 0
2, 153298, Note_on_c, 0, 52, 0
2, 153307, Note_on_c, 0, 71, 83
2, 153332, Note_on_c, 0, 62, 70
2, 153387, Note_on_c, 0, 71, 0
2, 153448, Note_on_c, 0, 52, 70
2, 153510, Note_on_c, 0, 62, 0
2, 153606, Note_on_c, 0, 52, 0
2, 153620, Note_on_c, 0, 61, 76
2, 153627, Note_on_c, 0, 64, 76
2, 153636, Note_on_c, 0, 74, 0
2, 153791, Note_on_c, 0, 66, 68
2, 153800, Note_on_c, 0, 64, 0
2, 153846, Note_on_c, 0, 68, 79
2, 153900, Note_on_c, 0, 66, 0
2, 153942, Note_on_c, 0, 69, 70
2, 153967, Note_on_c, 0, 68, 0
2, 154076, Note_on_c, 0, 61, 0
2, 154092, Note_on_c, 0, 64, 69
2, 154096, Note_on_c, 0, 62, 65
2, 154162, Note_on_c, 0, 69, 0
2, 154220, Note_on_c, 0, 62, 0
2, 154235, Note_on_c, 0, 61, 64
2, 154253, Note_on_c, 0, 71, 73
2, 154273, Note_on_c, 0, 64, 0
2, 154351, Note_on_c, 0, 71, 0
2, 154397, Note_on_c, 0, 59, 72
2, 154399, Note_on_c, 0, 64, 75
2, 154413, Note_on_c, 0, 61, 0
2, 154553, Note_on_c, 0, 57, 71
2, 154553, Note_on_c, 0, 59, 0
2, 154554, Note_on_c, 0, 73, 79
2, 154590, Note_on_c, 0, 64, 0
2, 154698, Note_on_c, 0, 59, 80
2, 154705, Note_on_c, 0, 64, 83
2, 154719, Note_on_c, 0, 57, 0
2, 154747, Note_on_c, 0, 73, 0
2, 154849, Note_on_c, 0, 59, 0
2, 154852, Note_on_c, 0, 57, 83
2, 154855, Note_on_c, 0, 74, 80
2, 154922, Note_on_c, 0, 64, 0
2, 154991, Note_on_c, 0, 57, 0
2, 154994, Note_on_c, 0, 55, 79
2, 154994, Note_on_c, 0, 66, 80
2, 155008, Note_on_c, 0, 74, 0
2, 155106, Note_on_c, 0, 66, 0
2, 155153, Note_on_c, 0, 49, 74
2, 155153, Note_on_c, 0, 76, 80
2, 155158, Note_on_c, 0, 54, 77
2, 155163, Note_on_c, 0, 55, 0
2, 155274, Note_on_c, 0, 76, 0
2, 155290, Note_on_c, 0, 52, 81
2, 155290, Note_on_c, 0, 54, 0
2, 155293, Note_on_c, 0, 67, 75
2, 155296, Note_on_c, 0, 49, 0
2, 155458, Note_on_c, 0, 50, 87
2, 155458, Note_on_c, 0, 66, 78
2, 155473, Note_on_c, 0, 67, 0
2, 155474, Note_on_c, 0, 52, 0
2, 155576, Note_on_c, 0, 66, 0
2, 155610, Note_on_c, 0, 67, 65
2, 155678, Note_on_c, 0, 67, 0
2, 155690, Note_on_c, 0, 69, 78
2, 155767, Note_on_c, 0, 69, 0
2, 155774, Note_on_c, 0, 71, 77
2, 155887, Note_on_c, 0, 71, 0
2, 155918, Note_on_c, 0, 50, 0
2, 155925, Note_on_c, 0, 66, 70
2, 155931, Note_on_c, 0, 52, 72
2, 156065, Note_on_c, 0, 73, 81
2, 156074, Note_on_c, 0, 50, 79
2, 156074, Note_on_c, 0, 52, 0
2, 156096, Note_on_c, 0, 66, 0
2, 156215, Note_on_c, 0, 66, 79
2, 156217, Note_on_c, 0, 49, 83
2, 156243, Note_on_c, 0, 50, 0
2, 156268, Note_on_c, 0, 73, 0
2, 156370, Note_on_c, 0, 74, 83
2, 156371, Note_on_c, 0, 47, 77
2, 156402, Note_on_c, 0, 49, 0
2, 156419, Note_on_c, 0, 66, 0
2, 156517, Note_on_c, 0, 49, 84
2, 156518, Note_on_c, 0, 66, 77
2, 156526, Note_on_c, 0, 47, 0
2, 156558, Note_on_c, 0, 74, 0
2, 156658, Note_on_c, 0, 66, 0
2, 156672, Note_on_c, 0, 47, 86
2, 156675, Note_on_c, 0, 76, 81
2, 156686, Note_on_c, 0, 49, 0
2, 156794, Note_on_c, 0, 76, 0
2, 156807, Note_on_c, 0, 67, 77
2, 156811, Note_on_c, 0, 45, 77
2, 156825, Note_on_c, 0, 47, 0
2, 156975, Note_on_c, 0, 43, 79
2, 156978, Note_on_c, 0, 67, 0
2, 156979, Note_on_c, 0, 45, 0
2, 156979, Note_on_c, 0, 78, 81
2, 157099, Note_on_c, 0, 43, 0
2, 157102, Note_on_c, 0, 42, 82
2, 157111, Note_on_c, 0, 69, 81
2, 157117, Note_on_c, 0, 78, 0
2, 157206, Note_on_c, 0, 42, 0
2, 157213, Note_on_c, 0, 69, 0
2, 157270, Note_on_c, 0, 40, 87
2, 157270, Note_on_c, 0, 67, 84
2, 157314, Note_on_c, 0, 40, 0
2, 157413, Note_on_c, 0, 67, 0
2, 157418, Note_on_c, 0, 66, 75
2, 157574, Note_on_c, 0, 50, 95
2, 157576, Note_on_c, 0, 66, 0
2, 157579, Note_on_c, 0, 67, 79
2, 157616, Note_on_c, 0, 50, 0
2, 157723, Note_on_c, 0, 71, 78
2, 157807, Note_on_c, 0, 67, 0
2, 157891, Note_on_c, 0, 49, 99
2, 157902, Note_on_c, 0, 76, 83
2, 157920, Note_on_c, 0, 49, 0
2, 157938, Note_on_c, 0, 71, 0
2, 157998, Note_on_c, 0, 76, 0
2, 158049, Note_on_c, 0, 67, 64
2, 158238, Note_on_c, 0, 66, 80
2, 158241, Note_on_c, 0, 50, 99
2, 158279, Note_on_c, 0, 67, 0
2, 158387, Note_on_c, 0, 71, 72
2, 158395, Note_on_c, 0, 66, 0
2, 158546, Note_on_c, 0, 71, 0
2, 158571, Note_on_c, 0, 69, 81
2, 158572, Note_on_c, 0, 52, 79
2, 158579, Note_on_c, 0, 50, 0
2, 158706, Note_on_c, 0, 50, 82
2, 158711, Note_on_c, 0, 73, 82
2, 158733, Note_on_c, 0, 52, 0
2, 158780, Note_on_c, 0, 69, 0
2, 158855, Note_on_c, 0, 49, 72
2, 158856, Note_on_c, 0, 74, 84
2, 158861, Note_on_c, 0, 47, 74
2, 158878, Note_on_c, 0, 50, 0
2, 158911, Note_on_c, 0, 73, 0
2, 158978, Note_on_c, 0, 50, 80
2, 159013, Note_on_c, 0, 49, 0
2, 159178, Note_on_c, 0, 47, 0
2, 159196, Note_on_c, 0, 52, 85
2, 159197, Note_on_c, 0, 43, 71
2, 159210, Note_on_c, 0, 50, 0
2, 159359, Note_on_c, 0, 43, 0
2, 159498, Note_on_c, 0, 54, 80
2, 159507, Note_on_c, 0, 73, 84
2, 159524, Note_on_c, 0, 45, 41
2, 159526, Note_on_c, 0, 52, 0
2, 159562, Note_on_c, 0, 74, 0
2, 159648, Note_on_c, 0, 52, 84
2, 159660, Note_on_c, 0, 54, 0
2, 159813, Note_on_c, 0, 50, 77
2, 159823, Note_on_c, 0, 52, 0
2, 159827, Note_on_c, 0, 45, 0
2, 159927, Note_on_c, 0, 50, 0
2, 159944, Note_on_c, 0, 52, 77
2, 160105, Note_on_c, 0, 54, 83
2, 160108, Note_on_c, 0, 50, 73
2, 160117, Note_on_c, 0, 74, 79
2, 160122, Note_on_c, 0, 52, 0
2, 160151, Note_on_c, 0, 54, 0
2, 160152, Note_on_c, 0, 50, 0
2, 160168, Note_on_c, 0, 73, 0
2, 160444, Note_on_c, 0, 52, 81
2, 160447, Note_on_c, 0, 49, 83
2, 160448, Note_on_c, 0, 76, 78
2, 160449, Note_on_c, 0, 74, 0
2, 160488, Note_on_c, 0, 52, 0
2, 160505, Note_on_c, 0, 49, 0
2, 160580, Note_on_c, 0, 74, 82
2, 160650, Note_on_c, 0, 76, 0
2, 160730, Note_on_c, 0, 50, 88
2, 160738, Note_on_c, 0, 47, 77
2, 160740, Note_on_c, 0, 73, 84
2, 160768, Note_on_c, 0, 50, 0
2, 160771, Note_on_c, 0, 47, 0
2, 160780, Note_on_c, 0, 74, 0
2, 160874, Note_on_c, 0, 74, 85
2, 160876, Note_on_c, 0, 73, 0
2, 161052, Note_on_c, 0, 45, 74
2, 161052, Note_on_c, 0, 76, 90
2, 161055, Note_on_c, 0, 49, 77
2, 161093, Note_on_c, 0, 74, 0
2, 161134, Note_on_c, 0, 76, 0
2, 161383, Note_on_c, 0, 59, 75
2, 161385, Note_on_c, 0, 78, 92
2, 161485, Note_on_c, 0, 49, 0
2, 161536, Note_on_c, 0, 76, 87
2, 161589, Note_on_c, 0, 78, 0
2, 161678, Note_on_c, 0, 74, 81
2, 161685, Note_on_c, 0, 76, 0
2, 161812, Note_on_c, 0, 76, 88
2, 161854, Note_on_c, 0, 74, 0
2, 161984, Note_on_c, 0, 59, 0
2, 161985, Note_on_c, 0, 57, 75
2, 161995, Note_on_c, 0, 78, 88
2, 162033, Note_on_c, 0, 76, 0
2, 162296, Note_on_c, 0, 59, 72
2, 162305, Note_on_c, 0, 79, 85
2, 162311, Note_on_c, 0, 57, 0
2, 162327, Note_on_c, 0, 78, 0
2, 162431, Note_on_c, 0, 59, 0
2, 162443, Note_on_c, 0, 57, 74
2, 162445, Note_on_c, 0, 78, 87
2, 162545, Note_on_c, 0, 57, 0
2, 162585, Note_on_c, 0, 79, 0
2, 162591, Note_on_c, 0, 55, 56
2, 162591, Note_on_c, 0, 76, 88
2, 162636, Note_on_c, 0, 78, 0
2, 162707, Note_on_c, 0, 74, 84
2, 162709, Note_on_c, 0, 76, 0
2, 162725, Note_on_c, 0, 54, 72
2, 162783, Note_on_c, 0, 55, 0
2, 162871, Note_on_c, 0, 73, 88
2, 162887, Note_on_c, 0, 52, 74
2, 162895, Note_on_c, 0, 74, 0
2, 162915, Note_on_c, 0, 54, 0
2, 162938, Note_on_c, 0, 73, 0
2, 163211, Note_on_c, 0, 83, 94
2, 163226, Note_on_c, 0, 55, 60
2, 163268, Note_on_c, 0, 52, 0
2, 163346, Note_on_c, 0, 55, 0
2, 163371, Note_on_c, 0, 54, 70
2, 163527, Note_on_c, 0, 54, 0
2, 163530, Note_on_c, 0, 52, 75
2, 163668, Note_on_c, 0, 50, 80
2, 163688, Note_on_c, 0, 52, 0
2, 163825, Note_on_c, 0, 49, 84
2, 163852, Note_on_c, 0, 50, 0
2, 163958, Note_on_c, 0, 81, 88
2, 163969, Note_on_c, 0, 83, 0
2, 164117, Note_on_c, 0, 83, 84
2, 164156, Note_on_c, 0, 81, 0
2, 164265, Note_on_c, 0, 81, 88
2, 164386, Note_on_c, 0, 83, 0
2, 164414, Note_on_c, 0, 50, 74
2, 164419, Note_on_c, 0, 79, 89
2, 164449, Note_on_c, 0, 49, 0
2, 164484, Note_on_c, 0, 81, 0
2, 164558, Note_on_c, 0, 78, 89
2, 164587, Note_on_c, 0, 79, 0
2, 164707, Note_on_c, 0, 76, 89
2, 164749, Note_on_c, 0, 78, 0
2, 164800, Note_on_c, 0, 50, 0
2, 164826, Note_on_c, 0, 76, 0
2, 164844, Note_on_c, 0, 78, 79
2, 164849, Note_on_c, 0, 55, 68
2, 164915, Note_on_c, 0, 78, 0
2, 164935, Note_on_c, 0, 76, 76
2, 164953, Note_on_c, 0, 54, 58
2, 164968, Note_on_c, 0, 55, 0
2, 164968, Note_on_c, 0, 76, 0
2, 165005, Note_on_c, 0, 78, 77
2, 165035, Note_on_c, 0, 52, 65
2, 165050, Note_on_c, 0, 54, 0
2, 165060, Note_on_c, 0, 78, 0
2, 165082, Note_on_c, 0, 76, 77
2, 165127, Note_on_c, 0, 76, 0
2, 165160, Note_on_c, 0, 78, 83
2, 165171, Note_on_c, 0, 52, 0
2, 165181, Note_on_c, 0, 55, 60
2, 165219, Note_on_c, 0, 78, 0
2, 165233, Note_on_c, 0, 76, 83
2, 165275, Note_on_c, 0, 76, 0
2, 165307, Note_on_c, 0, 55, 0
2, 165307, Note_on_c, 0, 78, 77
2, 165328, Note_on_c, 0, 50, 69
2, 165364, Note_on_c, 0, 78, 0
2, 165381, Note_on_c, 0, 76, 83
2, 165428, Note_on_c, 0, 76, 0
2, 165457, Note_on_c, 0, 50, 0
2, 165466, Note_on_c, 0, 78, 80
2, 165474, Note_on_c, 0, 55, 68
2, 165524, Note_on_c, 0, 78, 0
2, 165533, Note_on_c, 0, 76, 83
2, 165579, Note_on_c, 0, 76, 0
2, 165622, Note_on_c, 0, 78, 81
2, 165628, Note_on_c, 0, 55, 0
2, 165631, Note_on_c, 0, 49, 73
2, 165664, Note_on_c, 0, 80, 32
2, 165692, Note_on_c, 0, 78, 0
2, 165696, Note_on_c, 0, 76, 85
2, 165708, Note_on_c, 0, 80, 0
2, 165747, Note_on_c, 0, 76, 0
2, 165779, Note_on_c, 0, 78, 74
2, 165788, Note_on_c, 0, 55, 68
2, 165812, Note_on_c, 0, 49, 0
2, 165823, Note_on_c, 0, 80, 32
2, 165832, Note_on_c, 0, 78, 0
2, 165839, Note_on_c, 0, 76, 81
2, 165848, Note_on_c, 0, 80, 0
2, 165891, Note_on_c, 0, 76, 0
2, 165895, Note_on_c, 0, 78, 73
2, 165911, Note_on_c, 0, 47, 71
2, 165912, Note_on_c, 0, 55, 0
2, 165942, Note_on_c, 0, 76, 58
2, 165961, Note_on_c, 0, 45, 0
2, 165966, Note_on_c, 0, 78, 0
2, 165982, Note_on_c, 0, 78, 66
2, 165986, Note_on_c, 0, 76, 0
2, 166043, Note_on_c, 0, 78, 0
2, 166049, Note_on_c, 0, 55, 66
2, 166057, Note_on_c, 0, 76, 68
2, 166088, Note_on_c, 0, 78, 74
2, 166091, Note_on_c, 0, 76, 0
2, 166123, Note_on_c, 0, 47, 0
2, 166156, Note_on_c, 0, 78, 0
2, 166160, Note_on_c, 0, 76, 78
2, 166172, Note_on_c, 0, 45, 60
2, 166189, Note_on_c, 0, 55, 0
2, 166299, Note_on_c, 0, 45, 0
2, 166326, Note_on_c, 0, 55, 78
2, 166466, Note_on_c, 0, 54, 75
2, 166485, Note_on_c, 0, 55, 0
2, 166616, Note_on_c, 0, 81, 86
2, 166619, Note_on_c, 0, 55, 73
2, 166636, Note_on_c, 0, 54, 0
2, 166652, Note_on_c, 0, 76, 0
2, 166684, Note_on_c, 0, 79, 85
2, 166746, Note_on_c, 0, 81, 0
2, 166757, Note_on_c, 0, 78, 90
2, 166774, Note_on_c, 0, 55, 0
2, 166783, Note_on_c, 0, 57, 69
2, 166790, Note_on_c, 0, 79, 0
2, 166913, Note_on_c, 0, 81, 76
2, 166926, Note_on_c, 0, 78, 0
2, 166931, Note_on_c, 0, 52, 58
2, 167056, Note_on_c, 0, 52, 0
2, 167086, Note_on_c, 0, 81, 0
2, 167089, Note_on_c, 0, 50, 53
2, 167089, Note_on_c, 0, 76, 66
2, 167180, Note_on_c, 0, 50, 0
2, 167210, Note_on_c, 0, 76, 0
2, 167218, Note_on_c, 0, 49, 59
2, 167237, Note_on_c, 0, 81, 62
2, 167364, Note_on_c, 0, 81, 0
2, 167367, Note_on_c, 0, 49, 0
2, 167398, Note_on_c, 0, 47, 54
2, 167410, Note_on_c, 0, 74, 53
2, 167457, Note_on_c, 0, 57, 0
2, 167529, Note_on_c, 0, 74, 0
2, 167543, Note_on_c, 0, 81, 50
2, 167548, Note_on_c, 0, 55, 55
2, 167680, Note_on_c, 0, 55, 0
2, 167694, Note_on_c, 0, 81, 0
2, 167708, Note_on_c, 0, 54, 58
2, 167724, Note_on_c, 0, 73, 56
2, 167844, Note_on_c, 0, 54, 0
2, 167853, Note_on_c, 0, 73, 0
2, 167862, Note_on_c, 0, 81, 56
2, 167863, Note_on_c, 0, 52, 57
2, 168003, Note_on_c, 0, 52, 0
2, 168004, Note_on_c, 0, 81, 0
2, 168029, Note_on_c, 0, 50, 59
2, 168040, Note_on_c, 0, 71, 55
2, 168164, Note_on_c, 0, 81, 62
2, 168174, Note_on_c, 0, 54, 69
2, 168188, Note_on_c, 0, 50, 0
2, 168257, Note_on_c, 0, 71, 0
2, 168342, Note_on_c, 0, 79, 76
2, 168354, Note_on_c, 0, 52, 71
2, 168368, Note_on_c, 0, 54, 0
2, 168396, Note_on_c, 0, 47, 0
2, 168488, Note_on_c, 0, 78, 80
2, 168495, Note_on_c, 0, 54, 80
2, 168508, Note_on_c, 0, 52, 0
2, 168525, Note_on_c, 0, 81, 0
2, 168631, Note_on_c, 0, 79, 0
2, 168643, Note_on_c, 0, 76, 77
2, 168645, Note_on_c, 0, 54, 0
2, 168645, Note_on_c, 0, 55, 75
2, 168699, Note_on_c, 0, 78, 0
2, 168789, Note_on_c, 0, 76, 0
2, 168797, Note_on_c, 0, 50, 61
2, 168807, Note_on_c, 0, 79, 64
2, 168934, Note_on_c, 0, 50, 0
2, 168948, Note_on_c, 0, 79, 0
2, 168961, Note_on_c, 0, 49, 61
2, 168979, Note_on_c, 0, 74, 59
2, 169070, Note_on_c, 0, 49, 0
2, 169071, Note_on_c, 0, 74, 0
2, 169118, Note_on_c, 0, 47, 49
2, 169119, Note_on_c, 0, 79, 51
2, 169226, Note_on_c, 0, 47, 0
2, 169253, Note_on_c, 0, 79, 0
2, 169291, Note_on_c, 0, 45, 44
2, 169295, Note_on_c, 0, 73, 53
2, 169404, Note_on_c, 0, 55, 0
2, 169430, Note_on_c, 0, 73, 0
2, 169433, Note_on_c, 0, 79, 49
2, 169464, Note_on_c, 0, 54, 54
2, 169573, Note_on_c, 0, 79, 0
2, 169614, Note_on_c, 0, 71, 56
2, 169617, Note_on_c, 0, 54, 0
2, 169620, Note_on_c, 0, 52, 55
2, 169729, Note_on_c, 0, 52, 0
2, 169739, Note_on_c, 0, 71, 0
2, 169750, Note_on_c, 0, 50, 51
2, 169761, Note_on_c, 0, 79, 46
2, 169873, Note_on_c, 0, 79, 0
2, 169876, Note_on_c, 0, 45, 0
2, 169888, Note_on_c, 0, 50, 0
2, 169925, Note_on_c, 0, 49, 54
2, 169931, Note_on_c, 0, 69, 58
2, 170034, Note_on_c, 0, 69, 0
2, 170049, Note_on_c, 0, 49, 0
2, 170063, Note_on_c, 0, 79, 52
2, 170087, Note_on_c, 0, 52, 51
2, 170226, Note_on_c, 0, 79, 0
2, 170233, Note_on_c, 0, 52, 0
2, 170242, Note_on_c, 0, 78, 56
2, 170254, Note_on_c, 0, 50, 56
2, 170373, Note_on_c, 0, 50, 0
2, 170389, Note_on_c, 0, 52, 57
2, 170389, Note_on_c, 0, 76, 52
2, 170395, Note_on_c, 0, 78, 0
2, 170505, Note_on_c, 0, 52, 0
2, 170548, Note_on_c, 0, 74, 57
2, 170552, Note_on_c, 0, 54, 59
2, 170559, Note_on_c, 0, 76, 0
2, 170657, Note_on_c, 0, 74, 0
2, 170697, Note_on_c, 0, 78, 56
2, 170710, Note_on_c, 0, 48, 54
2, 170840, Note_on_c, 0, 78, 0
2, 170850, Note_on_c, 0, 72, 61
2, 170852, Note_on_c, 0, 48, 0
2, 170854, Note_on_c, 0, 47, 56
2, 170941, Note_on_c, 0, 47, 0
2, 170971, Note_on_c, 0, 72, 0
2, 170991, Note_on_c, 0, 45, 52
2, 171000, Note_on_c, 0, 78, 56
2, 171100, Note_on_c, 0, 54, 0
2, 171128, Note_on_c, 0, 45, 0
2, 171137, Note_on_c, 0, 78, 0
2, 171158, Note_on_c, 0, 43, 55
2, 171172, Note_on_c, 0, 71, 61
2, 171285, Note_on_c, 0, 71, 0
2, 171309, Note_on_c, 0, 78, 49
2, 171319, Note_on_c, 0, 47, 60
2, 171465, Note_on_c, 0, 78, 0
2, 171474, Note_on_c, 0, 49, 67
2, 171479, Note_on_c, 0, 69, 64
2, 171497, Note_on_c, 0, 47, 0
2, 171575, Note_on_c, 0, 43, 0
2, 171619, Note_on_c, 0, 69, 0
2, 171619, Note_on_c, 0, 78, 61
2, 171628, Note_on_c, 0, 50, 65
2, 171632, Note_on_c, 0, 49, 0
2, 171794, Note_on_c, 0, 67, 65
2, 171795, Note_on_c, 0, 78, 0
2, 171797, Note_on_c, 0, 50, 0
2, 171797, Note_on_c, 0, 52, 66
2, 171918, Note_on_c, 0, 67, 0
2, 171934, Note_on_c, 0, 54, 76
2, 171940, Note_on_c, 0, 78, 73
2, 171954, Note_on_c, 0, 52, 0
2, 172091, Note_on_c, 0, 55, 72
2, 172095, Note_on_c, 0, 76, 72
2, 172122, Note_on_c, 0, 54, 0
2, 172231, Note_on_c, 0, 74, 76
2, 172236, Note_on_c, 0, 57, 71
2, 172255, Note_on_c, 0, 78, 0
2, 172276, Note_on_c, 0, 55, 0
2, 172386, Note_on_c, 0, 55, 70
2, 172394, Note_on_c, 0, 73, 77
2, 172415, Note_on_c, 0, 76, 0
2, 172423, Note_on_c, 0, 57, 0
2, 172525, Note_on_c, 0, 54, 72
2, 172537, Note_on_c, 0, 74, 0
2, 172545, Note_on_c, 0, 76, 82
2, 172551, Note_on_c, 0, 55, 0
2, 172583, Note_on_c, 0, 73, 0
2, 172675, Note_on_c, 0, 54, 0
2, 172682, Note_on_c, 0, 52, 70
2, 172701, Note_on_c, 0, 71, 76
2, 172737, Note_on_c, 0, 76, 0
2, 172822, Note_on_c, 0, 50, 63
2, 172827, Note_on_c, 0, 52, 0
2, 172847, Note_on_c, 0, 71, 0
2, 172849, Note_on_c, 0, 76, 69
2, 172984, Note_on_c, 0, 49, 68
2, 173002, Note_on_c, 0, 69, 70
2, 173004, Note_on_c, 0, 50, 0
2, 173018, Note_on_c, 0, 76, 0
2, 173137, Note_on_c, 0, 45, 63
2, 173155, Note_on_c, 0, 76, 72
2, 173168, Note_on_c, 0, 69, 0
2, 173169, Note_on_c, 0, 49, 0
2, 173306, Note_on_c, 0, 47, 68
2, 173315, Note_on_c, 0, 67, 72
2, 173337, Note_on_c, 0, 76, 0
2, 173353, Note_on_c, 0, 45, 0
2, 173460, Note_on_c, 0, 49, 83
2, 173461, Note_on_c, 0, 76, 76
2, 173462, Note_on_c, 0, 67, 0
2, 173480, Note_on_c, 0, 47, 0
2, 173625, Note_on_c, 0, 50, 81
2, 173627, Note_on_c, 0, 66, 80
2, 173642, Note_on_c, 0, 76, 0
2, 173646, Note_on_c, 0, 49, 0
2, 173759, Note_on_c, 0, 52, 82
2, 173763, Note_on_c, 0, 66, 0
2, 173765, Note_on_c, 0, 76, 78
2, 173780, Note_on_c, 0, 50, 0
2, 173914, Note_on_c, 0, 74, 74
2, 173927, Note_on_c, 0, 54, 83
2, 173946, Note_on_c, 0, 52, 0
2, 173966, Note_on_c, 0, 76, 0
2, 174059, Note_on_c, 0, 66, 80
2, 174068, Note_on_c, 0, 55, 81
2, 174079, Note_on_c, 0, 74, 0
2, 174183, Note_on_c, 0, 54, 0
2, 174212, Note_on_c, 0, 55, 0
2, 174233, Note_on_c, 0, 57, 85
2, 174233, Note_on_c, 0, 64, 85
2, 174253, Note_on_c, 0, 66, 0
2, 174268, Note_on_c, 0, 57, 0
2, 174362, Note_on_c, 0, 64, 0
2, 174373, Note_on_c, 0, 67, 74
2, 174534, Note_on_c, 0, 74, 79
2, 174536, Note_on_c, 0, 45, 87
2, 174551, Note_on_c, 0, 67, 0
2, 174569, Note_on_c, 0, 45, 0
2, 174674, Note_on_c, 0, 74, 0
2, 174682, Note_on_c, 0, 73, 75
2, 174803, Note_on_c, 0, 73, 0
2, 174866, Note_on_c, 0, 50, 95
2, 174884, Note_on_c, 0, 74, 84
2, 174932, Control_c, 0, 64, 36
2, 174951, Control_c, 0, 64, 61
2, 174971, Control_c, 0, 64, 67
2, 174986, Note_on_c, 0, 50, 0
2, 174989, Control_c, 0, 64, 73
2, 175009, Control_c, 0, 64, 85
2, 175028, Control_c, 0, 64, 114
2, 175048, Control_c, 0, 64, 127
2, 175212, Note_on_c, 0, 74, 0
2, 175213, Note_on_c, 0, 48, 85
2, 175221, Note_on_c, 0, 76, 77
2, 175259, Control_c, 0, 64, 109
2, 175278, Control_c, 0, 64, 80
2, 175297, Control_c, 0, 64, 63
2, 175303, Note_on_c, 0, 76, 0
2, 175309, Note_on_c, 0, 74, 69
2, 175317, Control_c, 0, 64, 0
2, 175345, Note_on_c, 0, 48, 0
2, 175351, Note_on_c, 0, 50, 81
2, 175391, Note_on_c, 0, 74, 0
2, 175397, Note_on_c, 0, 76, 80
2, 175474, Note_on_c, 0, 76, 0
2, 175478, Note_on_c, 0, 74, 71
2, 175504, Note_on_c, 0, 52, 74
2, 175523, Note_on_c, 0, 50, 0
2, 175544, Note_on_c, 0, 74, 0
2, 175546, Note_on_c, 0, 76, 69
2, 175593, Note_on_c, 0, 74, 60
2, 175604, Note_on_c, 0, 76, 0
2, 175622, Note_on_c, 0, 52, 0
2, 175650, Note_on_c, 0, 76, 67
2, 175651, Note_on_c, 0, 50, 77
2, 175663, Note_on_c, 0, 74, 0
2, 175708, Note_on_c, 0, 74, 63
2, 175726, Note_on_c, 0, 76, 0
2, 175795, Note_on_c, 0, 48, 83
2, 175833, Note_on_c, 0, 50, 0
2, 175963, Note_on_c, 0, 48, 0
2, 176158, Note_on_c, 0, 47, 79
2, 176301, Note_on_c, 0, 48, 76
2, 176316, Note_on_c, 0, 47, 0
2, 176463, Note_on_c, 0, 50, 72
2, 176465, Note_on_c, 0, 48, 0
2, 176577, Note_on_c, 0, 50, 0
2, 176624, Note_on_c, 0, 48, 64
2, 176705, Note_on_c, 0, 48, 0
2, 176789, Note_on_c, 0, 47, 63
2, 176830, Note_on_c, 0, 47, 0
2, 176933, Note_on_c, 0, 67, 42
2, 177065, Note_on_c, 0, 67, 0
2, 177106, Note_on_c, 0, 48, 52
2, 177114, Note_on_c, 0, 65, 50
2, 177149, Note_on_c, 0, 48, 0
2, 177219, Note_on_c, 0, 65, 0
2, 177267, Note_on_c, 0, 64, 48
2, 177396, Note_on_c, 0, 64, 0
2, 177425, Note_on_c, 0, 50, 58
2, 177443, Note_on_c, 0, 62, 54
2, 177463, Note_on_c, 0, 50, 0
2, 177517, Note_on_c, 0, 62, 0
2, 177581, Note_on_c, 0, 65, 53
2, 177734, Note_on_c, 0, 65, 0
2, 177745, Note_on_c, 0, 55, 67
2, 177755, Note_on_c, 0, 64, 57
2, 177778, Note_on_c, 0, 55, 0
2, 177853, Note_on_c, 0, 74, 0
2, 177857, Note_on_c, 0, 64, 0
2, 177884, Note_on_c, 0, 65, 61
2, 178046, Note_on_c, 0, 65, 0
2, 178059, Note_on_c, 0, 72, 62
2, 178068, Note_on_c, 0, 45, 69
2, 178071, Note_on_c, 0, 64, 56
2, 178192, Note_on_c, 0, 64, 0
2, 178222, Note_on_c, 0, 62, 58
2, 178346, Note_on_c, 0, 62, 0
2, 178376, Note_on_c, 0, 60, 56
2, 178469, Note_on_c, 0, 60, 0
2, 178535, Note_on_c, 0, 64, 47
2, 178674, Note_on_c, 0, 64, 0
2, 178698, Note_on_c, 0, 47, 67
2, 178699, Note_on_c, 0, 45, 0
2, 178708, Note_on_c, 0, 62, 49
2, 178743, Note_on_c, 0, 47, 0
2, 178820, Note_on_c, 0, 62, 0
2, 178836, Note_on_c, 0, 72, 0
2, 178844, Note_on_c, 0, 64, 60
2, 178996, Note_on_c, 0, 64, 0
2, 179011, Note_on_c, 0, 71, 59
2, 179012, Note_on_c, 0, 48, 71
2, 179013, Note_on_c, 0, 62, 57
2, 179066, Note_on_c, 0, 48, 0
2, 179149, Note_on_c, 0, 62, 0
2, 179168, Note_on_c, 0, 60, 58
2, 179312, Note_on_c, 0, 60, 0
2, 179335, Note_on_c, 0, 50, 67
2, 179335, Note_on_c, 0, 59, 62
2, 179381, Note_on_c, 0, 50, 0
2, 179413, Note_on_c, 0, 59, 0
2, 179484, Note_on_c, 0, 62, 47
2, 179629, Note_on_c, 0, 62, 0
2, 179650, Note_on_c, 0, 52, 53
2, 179658, Note_on_c, 0, 60, 54
2, 179695, Note_on_c, 0, 52, 0
2, 179774, Note_on_c, 0, 60, 0
2, 179795, Note_on_c, 0, 71, 0
2, 179801, Note_on_c, 0, 62, 53
2, 179956, Note_on_c, 0, 42, 56
2, 179960, Note_on_c, 0, 62, 0
2, 179983, Note_on_c, 0, 60, 52
2, 179984, Note_on_c, 0, 69, 56
2, 180103, Note_on_c, 0, 60, 0
2, 180126, Note_on_c, 0, 59, 63
2, 180282, Note_on_c, 0, 59, 0
2, 180297, Note_on_c, 0, 57, 56
2, 180314, Note_on_c, 0, 42, 0
2, 180390, Note_on_c, 0, 57, 0
2, 180428, Note_on_c, 0, 60, 61
2, 180561, Note_on_c, 0, 60, 0
2, 180594, Note_on_c, 0, 59, 64
2, 180606, Note_on_c, 0, 43, 54
2, 180648, Note_on_c, 0, 43, 0
2, 180698, Note_on_c, 0, 69, 0
2, 180741, Note_on_c, 0, 67, 63
2, 180893, Note_on_c, 0, 42, 62
2, 180907, Note_on_c, 0, 69, 78
2, 180925, Note_on_c, 0, 67, 0
2, 181032, Note_on_c, 0, 42, 0
2, 181049, Note_on_c, 0, 67, 77
2, 181053, Note_on_c, 0, 43, 62
2, 181121, Note_on_c, 0, 69, 0
2, 181206, Note_on_c, 0, 43, 0
2, 181207, Note_on_c, 0, 66, 75
2, 181213, Note_on_c, 0, 45, 63
2, 181226, Note_on_c, 0, 67, 0
2, 181276, Note_on_c, 0, 45, 0
2, 181297, Note_on_c, 0, 59, 0
2, 181341, Note_on_c, 0, 66, 0
2, 181342, Note_on_c, 0, 47, 64
2, 181352, Note_on_c, 0, 67, 70
2, 181476, Note_on_c, 0, 47, 0
2, 181499, Note_on_c, 0, 36, 67
2, 181511, Note_on_c, 0, 66, 62
2, 181514, Note_on_c, 0, 57, 62
2, 181532, Note_on_c, 0, 36, 0
2, 181563, Note_on_c, 0, 67, 0
2, 181581, Note_on_c, 0, 57, 0
2, 181650, Note_on_c, 0, 66, 0
2, 181674, Note_on_c, 0, 62, 64
2, 181744, Note_on_c, 0, 64, 63
2, 181766, Note_on_c, 0, 62, 0
2, 181801, Note_on_c, 0, 60, 59
2, 181818, Note_on_c, 0, 66, 63
2, 181828, Note_on_c, 0, 64, 0
2, 181951, Note_on_c, 0, 60, 0
2, 181955, Note_on_c, 0, 66, 0
2, 181957, Note_on_c, 0, 62, 65
2, 181972, Note_on_c, 0, 59, 70
2, 182097, Note_on_c, 0, 59, 0
2, 182108, Note_on_c, 0, 67, 76
2, 182122, Note_on_c, 0, 57, 66
2, 182148, Note_on_c, 0, 62, 0
2, 182227, Note_on_c, 0, 57, 0
2, 182253, Note_on_c, 0, 55, 75
2, 182269, Note_on_c, 0, 62, 77
2, 182300, Note_on_c, 0, 67, 0
2, 182409, Note_on_c, 0, 69, 82
2, 182410, Note_on_c, 0, 54, 75
2, 182414, Note_on_c, 0, 55, 0
2, 182451, Note_on_c, 0, 62, 0
2, 182551, Note_on_c, 0, 52, 71
2, 182566, Note_on_c, 0, 54, 0
2, 182574, Note_on_c, 0, 62, 79
2, 182593, Note_on_c, 0, 69, 0
2, 182705, Note_on_c, 0, 52, 0
2, 182719, Note_on_c, 0, 50, 72
2, 182730, Note_on_c, 0, 71, 74
2, 182763, Note_on_c, 0, 62, 0
2, 182853, Note_on_c, 0, 50, 0
2, 182859, Note_on_c, 0, 71, 0
2, 182867, Note_on_c, 0, 48, 64
2, 182895, Note_on_c, 0, 62, 62
2, 183011, Note_on_c, 0, 62, 0
2, 183026, Note_on_c, 0, 48, 0
2, 183035, Note_on_c, 0, 47, 62
2, 183047, Note_on_c, 0, 72, 60
2, 183110, Note_on_c, 0, 72, 0
2, 183119, Note_on_c, 0, 47, 0
2, 183169, Note_on_c, 0, 45, 57
2, 183184, Note_on_c, 0, 62, 52
2, 183247, Note_on_c, 0, 62, 0
2, 183303, Note_on_c, 0, 45, 0
2, 183342, Note_on_c, 0, 43, 58
2, 183345, Note_on_c, 0, 71, 56
2, 183372, Note_on_c, 0, 71, 0
2, 183478, Note_on_c, 0, 43, 0
2, 183490, Note_on_c, 0, 45, 52
2, 183500, Note_on_c, 0, 79, 63
2, 183625, Note_on_c, 0, 45, 0
2, 183649, Note_on_c, 0, 77, 73
2, 183651, Note_on_c, 0, 47, 59
2, 183777, Note_on_c, 0, 47, 0
2, 183782, Note_on_c, 0, 79, 0
2, 183804, Note_on_c, 0, 43, 57
2, 183804, Note_on_c, 0, 76, 77
2, 183958, Note_on_c, 0, 43, 0
2, 183966, Note_on_c, 0, 74, 77
2, 183974, Note_on_c, 0, 48, 55
2, 183976, Note_on_c, 0, 77, 0
2, 184061, Note_on_c, 0, 76, 0
2, 184105, Note_on_c, 0, 72, 77
2, 184113, Note_on_c, 0, 48, 0
2, 184122, Note_on_c, 0, 43, 59
2, 184128, Note_on_c, 0, 74, 0
2, 184266, Note_on_c, 0, 71, 78
2, 184269, Note_on_c, 0, 43, 0
2, 184288, Note_on_c, 0, 50, 63
2, 184309, Note_on_c, 0, 72, 0
2, 184418, Note_on_c, 0, 69, 83
2, 184428, Note_on_c, 0, 43, 59
2, 184440, Note_on_c, 0, 50, 0
2, 184576, Note_on_c, 0, 67, 75
2, 184579, Note_on_c, 0, 43, 0
2, 184587, Note_on_c, 0, 52, 58
2, 184616, Note_on_c, 0, 71, 0
2, 184682, Note_on_c, 0, 69, 0
2, 184714, Note_on_c, 0, 52, 0
2, 184722, Note_on_c, 0, 65, 75
2, 184735, Note_on_c, 0, 43, 59
2, 184755, Note_on_c, 0, 67, 0
2, 184875, Note_on_c, 0, 43, 0
2, 184876, Note_on_c, 0, 64, 76
2, 184892, Note_on_c, 0, 53, 58
2, 184892, Note_on_c, 0, 65, 0
2, 184981, Note_on_c, 0, 53, 0
2, 185022, Note_on_c, 0, 62, 68
2, 185032, Note_on_c, 0, 43, 56
2, 185041, Note_on_c, 0, 64, 0
2, 185132, Note_on_c, 0, 62, 0
2, 185147, Note_on_c, 0, 43, 0
2, 185173, Note_on_c, 0, 60, 64
2, 185184, Note_on_c, 0, 52, 62
2, 185210, Note_on_c, 0, 60, 0
2, 185293, Note_on_c, 0, 52, 0
2, 185322, Note_on_c, 0, 40, 49
2, 185336, Note_on_c, 0, 76, 79
2, 185402, Note_on_c, 0, 40, 0
2, 185408, Note_on_c, 0, 42, 60
2, 185489, Note_on_c, 0, 74, 77
2, 185507, Note_on_c, 0, 44, 59
2, 185513, Note_on_c, 0, 42, 0
2, 185637, Note_on_c, 0, 72, 88
2, 185657, Note_on_c, 0, 44, 0
2, 185664, Note_on_c, 0, 40, 60
2, 185703, Note_on_c, 0, 76, 0
2, 185792, Note_on_c, 0, 40, 0
2, 185801, Note_on_c, 0, 45, 62
2, 185803, Note_on_c, 0, 71, 82
2, 185837, Note_on_c, 0, 74, 0
2, 185881, Note_on_c, 0, 72, 0
2, 185927, Note_on_c, 0, 45, 0
2, 185949, Note_on_c, 0, 69, 76
2, 185953, Note_on_c, 0, 71, 0
2, 185956, Note_on_c, 0, 40, 58
2, 186075, Note_on_c, 0, 40, 0
2, 186108, Note_on_c, 0, 47, 56
2, 186111, Note_on_c, 0, 68, 73
2, 186139, Note_on_c, 0, 69, 0
2, 186209, Note_on_c, 0, 47, 0
2, 186251, Note_on_c, 0, 40, 53
2, 186257, Note_on_c, 0, 66, 71
2, 186359, Note_on_c, 0, 68, 0
2, 186396, Note_on_c, 0, 40, 0
2, 186421, Note_on_c, 0, 48, 50
2, 186428, Note_on_c, 0, 64, 63
2, 186507, Note_on_c, 0, 66, 0
2, 186523, Note_on_c, 0, 48, 0
2, 186556, Note_on_c, 0, 64, 0
2, 186564, Note_on_c, 0, 62, 64
2, 186579, Note_on_c, 0, 40, 52
2, 186702, Note_on_c, 0, 40, 0
2, 186711, Note_on_c, 0, 62, 0
2, 186720, Note_on_c, 0, 60, 63
2, 186730, Note_on_c, 0, 50, 49
2, 186859, Note_on_c, 0, 60, 0
2, 186867, Note_on_c, 0, 40, 54
2, 186870, Note_on_c, 0, 59, 63
2, 186904, Note_on_c, 0, 50, 0
2, 186990, Note_on_c, 0, 40, 0
2, 187005, Note_on_c, 0, 59, 0
2, 187031, Note_on_c, 0, 57, 62
2, 187036, Note_on_c, 0, 49, 48
2, 187078, Note_on_c, 0, 49, 0
2, 187078, Note_on_c, 0, 57, 0
2, 187172, Note_on_c, 0, 59, 68
2, 187175, Note_on_c, 0, 57, 74
2, 187332, Note_on_c, 0, 55, 79
2, 187335, Note_on_c, 0, 57, 0
2, 187344, Note_on_c, 0, 61, 68
2, 187384, Note_on_c, 0, 59, 0
2, 187480, Note_on_c, 0, 57, 69
2, 187485, Note_on_c, 0, 54, 84
2, 187527, Note_on_c, 0, 61, 0
2, 187537, Note_on_c, 0, 55, 0
2, 187633, Note_on_c, 0, 52, 79
2, 187639, Note_on_c, 0, 54, 0
2, 187640, Note_on_c, 0, 62, 76
2, 187677, Note_on_c, 0, 57, 0
2, 187781, Note_on_c, 0, 50, 89
2, 187783, Note_on_c, 0, 52, 0
2, 187795, Note_on_c, 0, 57, 78
2, 187815, Note_on_c, 0, 62, 0
2, 187941, Note_on_c, 0, 49, 92
2, 187949, Note_on_c, 0, 64, 72
2, 187971, Note_on_c, 0, 50, 0
2, 187984, Note_on_c, 0, 57, 0
2, 188042, Note_on_c, 0, 64, 0
2, 188077, Note_on_c, 0, 47, 78
2, 188092, Note_on_c, 0, 57, 73
2, 188103, Note_on_c, 0, 49, 0
2, 188236, Note_on_c, 0, 45, 86
2, 188242, Note_on_c, 0, 66, 75
2, 188250, Note_on_c, 0, 47, 0
2, 188291, Note_on_c, 0, 57, 0
2, 188384, Note_on_c, 0, 43, 84
2, 188399, Note_on_c, 0, 57, 80
2, 188414, Note_on_c, 0, 45, 0
2, 188428, Note_on_c, 0, 66, 0
2, 188550, Note_on_c, 0, 42, 87
2, 188551, Note_on_c, 0, 67, 81
2, 188600, Note_on_c, 0, 43, 0
2, 188601, Note_on_c, 0, 57, 0
2, 188682, Note_on_c, 0, 42, 0
2, 188685, Note_on_c, 0, 40, 80
2, 188695, Note_on_c, 0, 57, 80
2, 188742, Note_on_c, 0, 67, 0
2, 188871, Note_on_c, 0, 38, 97
2, 188877, Note_on_c, 0, 62, 75
2, 188877, Note_on_c, 0, 66, 83
2, 188905, Note_on_c, 0, 40, 0
2, 188914, Note_on_c, 0, 57, 0
2, 188975, Note_on_c, 0, 62, 0
2, 189001, Note_on_c, 0, 66, 0
2, 189237, Note_on_c, 0, 71, 85
2, 189243, Note_on_c, 0, 60, 84
2, 189343, Note_on_c, 0, 60, 0
2, 189373, Note_on_c, 0, 62, 82
2, 189522, Note_on_c, 0, 67, 79
2, 189525, Note_on_c, 0, 64, 82
2, 189540, Note_on_c, 0, 62, 0
2, 189557, Note_on_c, 0, 71, 0
2, 189592, Note_on_c, 0, 64, 0
2, 189664, Note_on_c, 0, 62, 86
2, 189841, Note_on_c, 0, 64, 87
2, 189847, Note_on_c, 0, 60, 85
2, 189876, Note_on_c, 0, 62, 0
2, 189888, Control_c, 0, 64, 30
2, 189900, Note_on_c, 0, 67, 0
2, 189907, Control_c, 0, 64, 60
2, 189912, Note_on_c, 0, 60, 0
2, 189921, Note_on_c, 0, 64, 0
2, 189927, Control_c, 0, 64, 67
2, 189945, Control_c, 0, 64, 73
2, 189965, Control_c, 0, 64, 84
2, 189984, Control_c, 0, 64, 94
2, 190004, Control_c, 0, 64, 102
2, 190022, Control_c, 0, 64, 110
2, 190042, Control_c, 0, 64, 127
2, 190176, Control_c, 0, 64, 109
2, 190179, Note_on_c, 0, 59, 86
2, 190196, Control_c, 0, 64, 92
2, 190196, Note_on_c, 0, 67, 65
2, 190197, Note_on_c, 0, 69, 61
2, 190214, Control_c, 0, 64, 76
2, 190229, Note_on_c, 0, 69, 0
2, 190233, Control_c, 0, 64, 61
2, 190253, Control_c, 0, 64, 0
2, 190306, Note_on_c, 0, 60, 81
2, 190313, Note_on_c, 0, 59, 0
2, 190390, Note_on_c, 0, 67, 0
2, 190455, Note_on_c, 0, 66, 76
2, 190465, Note_on_c, 0, 62, 75
2, 190488, Note_on_c, 0, 60, 0
2, 190523, Note_on_c, 0, 62, 0
2, 190597, Note_on_c, 0, 61, 77
2, 190737, Note_on_c, 0, 61, 0
2, 190769, Note_on_c, 0, 66, 0
2, 190784, Note_on_c, 0, 59, 83
2, 190784, Note_on_c, 0, 67, 78
2, 190809, Note_on_c, 0, 38, 0
2, 190961, Note_on_c, 0, 50, 77
2, 191051, Note_on_c, 0, 59, 0
2, 191091, Note_on_c, 0, 50, 0
2, 191094, Note_on_c, 0, 48, 67
2, 191108, Note_on_c, 0, 60, 86
2, 191184, Note_on_c, 0, 60, 0
2, 191229, Note_on_c, 0, 50, 86
2, 191242, Note_on_c, 0, 48, 0
2, 191411, Note_on_c, 0, 52, 77
2, 191423, Note_on_c, 0, 62, 88
2, 191445, Note_on_c, 0, 50, 0
2, 191494, Note_on_c, 0, 62, 0
2, 191563, Note_on_c, 0, 50, 82
2, 191574, Note_on_c, 0, 52, 0
2, 191669, Note_on_c, 0, 67, 0
2, 191722, Note_on_c, 0, 64, 86
2, 191733, Note_on_c, 0, 48, 73
2, 191740, Note_on_c, 0, 50, 0
2, 191771, Control_c, 0, 64, 31
2, 191789, Control_c, 0, 64, 54
2, 191808, Control_c, 0, 64, 62
2, 191827, Control_c, 0, 64, 65
2, 191847, Control_c, 0, 64, 67
2, 191855, Note_on_c, 0, 69, 86
2, 191865, Control_c, 0, 64, 71
2, 191885, Control_c, 0, 64, 79
2, 191904, Control_c, 0, 64, 87
2, 191924, Control_c, 0, 64, 93
2, 191942, Control_c, 0, 64, 96
2, 191951, Note_on_c, 0, 69, 0
2, 191981, Control_c, 0, 64, 91
2, 191999, Note_on_c, 0, 48, 0
2, 192000, Control_c, 0, 64, 78
2, 192017, Note_on_c, 0, 71, 82
2, 192019, Control_c, 0, 64, 63
2, 192030, Note_on_c, 0, 54, 73
2, 192039, Control_c, 0, 64, 0
2, 192043, Note_on_c, 0, 47, 58
2, 192092, Note_on_c, 0, 71, 0
2, 192093, Note_on_c, 0, 69, 80
2, 192116, Control_c, 0, 64, 50
2, 192134, Control_c, 0, 64, 65
2, 192152, Note_on_c, 0, 71, 71
2, 192153, Control_c, 0, 64, 73
2, 192153, Note_on_c, 0, 47, 0
2, 192164, Note_on_c, 0, 48, 67
2, 192173, Control_c, 0, 64, 83
2, 192181, Note_on_c, 0, 69, 0
2, 192192, Control_c, 0, 64, 91
2, 192200, Note_on_c, 0, 69, 51
2, 192211, Control_c, 0, 64, 93
2, 192230, Control_c, 0, 64, 93
2, 192250, Control_c, 0, 64, 92
2, 192255, Note_on_c, 0, 69, 0
2, 192269, Control_c, 0, 64, 88
2, 192288, Control_c, 0, 64, 83
2, 192291, Note_on_c, 0, 64, 0
2, 192303, Note_on_c, 0, 48, 0
2, 192303, Note_on_c, 0, 50, 76
2, 192307, Control_c, 0, 64, 76
2, 192314, Note_on_c, 0, 69, 68
2, 192316, Note_on_c, 0, 54, 0
2, 192316, Note_on_c, 0, 71, 0
2, 192327, Control_c, 0, 64, 71
2, 192345, Control_c, 0, 64, 65
2, 192365, Control_c, 0, 64, 55
2, 192384, Control_c, 0, 64, 22
2, 192392, Note_on_c, 0, 67, 77
2, 192394, Note_on_c, 0, 69, 0
2, 192404, Control_c, 0, 64, 0
2, 192447, Note_on_c, 0, 48, 71
2, 192459, Note_on_c, 0, 50, 0
2, 192482, Note_on_c, 0, 69, 83
2, 192512, Note_on_c, 0, 67, 0
2, 192592, Note_on_c, 0, 48, 0
2, 192595, Note_on_c, 0, 71, 88
2, 192601, Note_on_c, 0, 47, 75
2, 192606, Note_on_c, 0, 55, 74
2, 192607, Note_on_c, 0, 67, 77
2, 192610, Note_on_c, 0, 69, 0
2, 192724, Note_on_c, 0, 47, 0
2, 192727, Note_on_c, 0, 67, 0
2, 192734, Note_on_c, 0, 55, 0
2, 192869, Note_on_c, 0, 71, 0
2, 192941, Note_on_c, 0, 72, 82
2, 192948, Note_on_c, 0, 69, 82
2, 192949, Note_on_c, 0, 45, 73
2, 193088, Note_on_c, 0, 47, 80
2, 193088, Note_on_c, 0, 67, 81
2, 193088, Note_on_c, 0, 71, 82
2, 193110, Note_on_c, 0, 45, 0
2, 193123, Note_on_c, 0, 69, 0
2, 193128, Note_on_c, 0, 72, 0
2, 193244, Note_on_c, 0, 66, 73
2, 193246, Note_on_c, 0, 48, 73
2, 193248, Note_on_c, 0, 69, 80
2, 193257, Note_on_c, 0, 67, 0
2, 193259, Note_on_c, 0, 71, 0
2, 193260, Note_on_c, 0, 47, 0
2, 193376, Note_on_c, 0, 48, 0
2, 193383, Note_on_c, 0, 69, 0
2, 193390, Note_on_c, 0, 67, 68
2, 193392, Note_on_c, 0, 47, 63
2, 193398, Note_on_c, 0, 71, 72
2, 193400, Note_on_c, 0, 66, 0
2, 193496, Note_on_c, 0, 67, 0
2, 193545, Note_on_c, 0, 47, 0
2, 193570, Note_on_c, 0, 45, 50
2, 193571, Note_on_c, 0, 69, 55
2, 193571, Note_on_c, 0, 71, 0
2, 193581, Note_on_c, 0, 72, 67
2, 193694, Note_on_c, 0, 69, 0
2, 193712, Note_on_c, 0, 72, 0
2, 193785, Note_on_c, 0, 45, 0
2, 193911, Note_on_c, 0, 74, 79
2, 193918, Note_on_c, 0, 71, 83
2, 193922, Note_on_c, 0, 43, 68
2, 194048, Note_on_c, 0, 72, 81
2, 194049, Note_on_c, 0, 45, 71
2, 194057, Note_on_c, 0, 69, 86
2, 194059, Note_on_c, 0, 43, 0
2, 194086, Note_on_c, 0, 71, 0
2, 194153, Note_on_c, 0, 74, 0
2, 194204, Note_on_c, 0, 47, 71
2, 194204, Note_on_c, 0, 71, 86
2, 194206, Note_on_c, 0, 45, 0
2, 194209, Note_on_c, 0, 67, 71
2, 194209, Note_on_c, 0, 69, 0
2, 194230, Note_on_c, 0, 72, 0
2, 194327, Note_on_c, 0, 71, 0
2, 194331, Note_on_c, 0, 47, 0
2, 194340, Note_on_c, 0, 72, 81
2, 194342, Note_on_c, 0, 69, 76
2, 194347, Note_on_c, 0, 45, 65
2, 194353, Note_on_c, 0, 67, 0
2, 194464, Note_on_c, 0, 45, 0
2, 194499, Note_on_c, 0, 74, 70
2, 194502, Note_on_c, 0, 43, 64
2, 194502, Note_on_c, 0, 72, 0
2, 194513, Note_on_c, 0, 71, 68
2, 194532, Note_on_c, 0, 69, 0
2, 194577, Note_on_c, 0, 43, 0
2, 194620, Note_on_c, 0, 74, 0
2, 194631, Note_on_c, 0, 55, 74
2, 194633, Note_on_c, 0, 71, 0
2, 194703, Note_on_c, 0, 54, 78
2, 194713, Note_on_c, 0, 55, 0
2, 194792, Note_on_c, 0, 72, 86
2, 194798, Note_on_c, 0, 52, 74
2, 194801, Note_on_c, 0, 69, 85
2, 194854, Note_on_c, 0, 54, 0
2, 194900, Note_on_c, 0, 69, 0
2, 194914, Note_on_c, 0, 72, 0
2, 194942, Note_on_c, 0, 55, 81
2, 195060, Note_on_c, 0, 52, 0
2, 195108, Note_on_c, 0, 71, 93
2, 195110, Note_on_c, 0, 50, 73
2, 195120, Note_on_c, 0, 67, 77
2, 195138, Note_on_c, 0, 55, 0
2, 195194, Note_on_c, 0, 67, 0
2, 195205, Note_on_c, 0, 71, 0
2, 195268, Note_on_c, 0, 55, 77
2, 195394, Note_on_c, 0, 50, 0
2, 195421, Note_on_c, 0, 49, 76
2, 195435, Note_on_c, 0, 69, 94
2, 195441, Note_on_c, 0, 67, 83
2, 195458, Note_on_c, 0, 55, 0
2, 195482, Note_on_c, 0, 69, 0
2, 195587, Note_on_c, 0, 57, 76
2, 195684, Note_on_c, 0, 49, 0
2, 195763, Note_on_c, 0, 79, 97
2, 195769, Note_on_c, 0, 47, 72
2, 195776, Note_on_c, 0, 74, 78
2, 195807, Note_on_c, 0, 57, 0
2, 195934, Note_on_c, 0, 57, 73
2, 195993, Note_on_c, 0, 47, 0
2, 196063, Note_on_c, 0, 45, 73
2, 196079, Note_on_c, 0, 73, 78
2, 196081, Note_on_c, 0, 57, 0
2, 196101, Note_on_c, 0, 79, 0
2, 196109, Note_on_c, 0, 74, 0
2, 196216, Note_on_c, 0, 57, 76
2, 196324, Note_on_c, 0, 45, 0
2, 196377, Note_on_c, 0, 57, 0
2, 196378, Note_on_c, 0, 50, 77
2, 196379, Note_on_c, 0, 78, 86
2, 196387, Note_on_c, 0, 74, 74
2, 196449, Note_on_c, 0, 73, 0
2, 196454, Note_on_c, 0, 67, 0
2, 196477, Note_on_c, 0, 74, 0
2, 196490, Note_on_c, 0, 78, 0
2, 196531, Note_on_c, 0, 48, 81
2, 196562, Note_on_c, 0, 50, 0
2, 196687, Note_on_c, 0, 46, 74
2, 196694, Note_on_c, 0, 76, 91
2, 196699, Note_on_c, 0, 67, 84
2, 196715, Note_on_c, 0, 48, 0
2, 196780, Note_on_c, 0, 67, 0
2, 196804, Note_on_c, 0, 76, 0
2, 196845, Note_on_c, 0, 50, 81
2, 196901, Note_on_c, 0, 46, 0
2, 197013, Note_on_c, 0, 74, 90
2, 197022, Note_on_c, 0, 66, 85
2, 197024, Note_on_c, 0, 45, 71
2, 197052, Note_on_c, 0, 50, 0
2, 197119, Note_on_c, 0, 66, 0
2, 197143, Note_on_c, 0, 74, 0
2, 197173, Note_on_c, 0, 50, 79
2, 197186, Note_on_c, 0, 45, 0
2, 197339, Note_on_c, 0, 73, 97
2, 197347, Note_on_c, 0, 64, 89
2, 197354, Note_on_c, 0, 43, 71
2, 197375, Note_on_c, 0, 50, 0
2, 197383, Note_on_c, 0, 64, 0
2, 197429, Note_on_c, 0, 73, 0
2, 197504, Note_on_c, 0, 43, 0
2, 197530, Note_on_c, 0, 52, 74
2, 197715, Note_on_c, 0, 42, 79
2, 197716, Note_on_c, 0, 82, 103
2, 197723, Note_on_c, 0, 73, 93
2, 197740, Note_on_c, 0, 52, 0
2, 197836, Control_c, 0, 64, 11
2, 197856, Control_c, 0, 64, 55
2, 197864, Note_on_c, 0, 42, 0
2, 197875, Control_c, 0, 64, 65
2, 197883, Note_on_c, 0, 52, 75
2, 197894, Control_c, 0, 64, 70
2, 197913, Control_c, 0, 64, 79
2, 197933, Control_c, 0, 64, 94
2, 197947, Note_on_c, 0, 73, 0
2, 197952, Control_c, 0, 64, 127
2, 197959, Note_on_c, 0, 82, 0
2, 198055, Note_on_c, 0, 40, 79
2, 198089, Note_on_c, 0, 52, 0
2, 198218, Note_on_c, 0, 40, 0
2, 198218, Note_on_c, 0, 52, 80
2, 198412, Control_c, 0, 64, 84
2, 198424, Note_on_c, 0, 81, 89
2, 198429, Note_on_c, 0, 42, 83
2, 198431, Control_c, 0, 64, 63
2, 198431, Note_on_c, 0, 72, 88
2, 198450, Control_c, 0, 64, 0
2, 198459, Note_on_c, 0, 52, 0
2, 198566, Control_c, 0, 64, 36
2, 198584, Control_c, 0, 64, 61
2, 198604, Control_c, 0, 64, 68
2, 198607, Note_on_c, 0, 42, 0
2, 198623, Control_c, 0, 64, 79
2, 198627, Note_on_c, 0, 79, 88
2, 198643, Control_c, 0, 64, 115
2, 198661, Control_c, 0, 64, 127
2, 198697, Note_on_c, 0, 81, 0
2, 198750, Note_on_c, 0, 72, 0
2, 198798, Note_on_c, 0, 38, 85
2, 198807, Note_on_c, 0, 78, 90
2, 198812, Note_on_c, 0, 79, 0
2, 198815, Control_c, 0, 64, 79
2, 198834, Control_c, 0, 64, 56
2, 198854, Control_c, 0, 64, 0
2, 198908, Note_on_c, 0, 78, 0
2, 198911, Control_c, 0, 64, 53
2, 198930, Control_c, 0, 64, 67
2, 198949, Control_c, 0, 64, 76
2, 198954, Note_on_c, 0, 76, 85
2, 198969, Control_c, 0, 64, 95
2, 198984, Note_on_c, 0, 38, 0
2, 198988, Control_c, 0, 64, 127
2, 199112, Note_on_c, 0, 74, 83
2, 199118, Note_on_c, 0, 76, 0
2, 199122, Note_on_c, 0, 43, 85
2, 199123, Control_c, 0, 64, 102
2, 199141, Control_c, 0, 64, 80
2, 199161, Control_c, 0, 64, 65
2, 199180, Control_c, 0, 64, 0
2, 199287, Note_on_c, 0, 71, 76
2, 199355, Note_on_c, 0, 69, 84
2, 199355, Note_on_c, 0, 71, 0
2, 199358, Note_on_c, 0, 74, 0
2, 199363, Note_on_c, 0, 43, 0
2, 199438, Note_on_c, 0, 40, 89
2, 199439, Note_on_c, 0, 71, 87
2, 199498, Note_on_c, 0, 69, 0
2, 199564, Control_c, 0, 64, 49
2, 199583, Control_c, 0, 64, 64
2, 199603, Control_c, 0, 64, 69
2, 199614, Note_on_c, 0, 79, 90
2, 199621, Control_c, 0, 64, 78
2, 199641, Control_c, 0, 64, 89
2, 199653, Note_on_c, 0, 40, 0
2, 199660, Control_c, 0, 64, 102
2, 199679, Control_c, 0, 64, 116
2, 199698, Control_c, 0, 64, 127
2, 199705, Note_on_c, 0, 71, 0
2, 199794, Control_c, 0, 64, 86
2, 199802, Note_on_c, 0, 69, 96
2, 199814, Control_c, 0, 64, 64
2, 199814, Note_on_c, 0, 36, 89
2, 199832, Control_c, 0, 64, 0
2, 199909, Control_c, 0, 64, 36
2, 199920, Note_on_c, 0, 79, 0
2, 199929, Control_c, 0, 64, 64
2, 199948, Control_c, 0, 64, 74
2, 199967, Control_c, 0, 64, 96
2, 199969, Note_on_c, 0, 36, 0
2, 199986, Control_c, 0, 64, 127
2, 199991, Note_on_c, 0, 72, 94
2, 200143, Control_c, 0, 64, 101
2, 200161, Control_c, 0, 64, 68
2, 200172, Note_on_c, 0, 72, 0
2, 200181, Control_c, 0, 64, 0
2, 200200, Note_on_c, 0, 38, 100
2, 200214, Note_on_c, 0, 79, 91
2, 200238, Control_c, 0, 64, 53
2, 200258, Control_c, 0, 64, 69
2, 200260, Note_on_c, 0, 38, 0
2, 200277, Control_c, 0, 64, 93
2, 200297, Control_c, 0, 64, 127
2, 200425, Note_on_c, 0, 78, 90
2, 200455, Note_on_c, 0, 69, 0
2, 200462, Note_on_c, 0, 79, 0
2, 200686, Note_on_c, 0, 79, 88
2, 200687, Note_on_c, 0, 71, 87
2, 200694, Note_on_c, 0, 43, 104
2, 200730, Note_on_c, 0, 78, 0
2, 200738, Control_c, 0, 64, 95
2, 200757, Control_c, 0, 64, 67
2, 200777, Control_c, 0, 64, 0
2, 200936, Note_on_c, 0, 78, 80
2, 200959, Note_on_c, 0, 71, 0
2, 200991, Note_on_c, 0, 76, 76
2, 200997, Note_on_c, 0, 79, 0
2, 201045, Control_c, 0, 64, 27
2, 201064, Control_c, 0, 64, 56
2, 201068, Note_on_c, 0, 74, 85
2, 201073, Note_on_c, 0, 78, 0
2, 201080, Note_on_c, 0, 71, 78
2, 201083, Control_c, 0, 64, 64
2, 201103, Control_c, 0, 64, 68
2, 201122, Control_c, 0, 64, 74
2, 201122, Note_on_c, 0, 76, 0
2, 201141, Control_c, 0, 64, 85
2, 201159, Control_c, 0, 64, 94
2, 201179, Control_c, 0, 64, 97
2, 201217, Control_c, 0, 64, 95
2, 201236, Control_c, 0, 64, 91
2, 201250, Note_on_c, 0, 79, 93
2, 201256, Control_c, 0, 64, 86
2, 201268, Note_on_c, 0, 74, 0
2, 201274, Control_c, 0, 64, 80
2, 201281, Note_on_c, 0, 71, 0
2, 201294, Control_c, 0, 64, 71
2, 201313, Control_c, 0, 64, 64
2, 201332, Control_c, 0, 64, 50
2, 201351, Control_c, 0, 64, 0
2, 201422, Note_on_c, 0, 72, 87
2, 201423, Note_on_c, 0, 69, 85
2, 201472, Note_on_c, 0, 79, 0
2, 201506, Control_c, 0, 64, 37
2, 201525, Control_c, 0, 64, 61
2, 201544, Control_c, 0, 64, 67
2, 201563, Control_c, 0, 64, 73
2, 201583, Control_c, 0, 64, 83
2, 201587, Note_on_c, 0, 79, 86
2, 201594, Note_on_c, 0, 72, 0
2, 201602, Control_c, 0, 64, 96
2, 201605, Note_on_c, 0, 69, 0
2, 201621, Control_c, 0, 64, 115
2, 201640, Control_c, 0, 64, 127
2, 201688, Note_on_c, 0, 43, 0
2, 201737, Control_c, 0, 64, 106
2, 201755, Control_c, 0, 64, 77
2, 201758, Note_on_c, 0, 71, 90
2, 201759, Note_on_c, 0, 79, 0
2, 201766, Note_on_c, 0, 67, 79
2, 201775, Control_c, 0, 64, 61
2, 201794, Control_c, 0, 64, 0
2, 201813, Control_c, 0, 64, 15
2, 201832, Control_c, 0, 64, 56
2, 201852, Control_c, 0, 64, 68
2, 201871, Control_c, 0, 64, 81
2, 201890, Control_c, 0, 64, 127
2, 201923, Note_on_c, 0, 43, 73
2, 202011, Note_on_c, 0, 45, 74
2, 202024, Control_c, 0, 64, 98
2, 202028, Note_on_c, 0, 43, 0
2, 202043, Control_c, 0, 64, 73
2, 202063, Control_c, 0, 64, 43
2, 202081, Note_on_c, 0, 79, 93
2, 202082, Control_c, 0, 64, 0
2, 202085, Note_on_c, 0, 47, 75
2, 202126, Note_on_c, 0, 45, 0
2, 202140, Control_c, 0, 64, 18
2, 202140, Note_on_c, 0, 67, 0
2, 202158, Control_c, 0, 64, 57
2, 202159, Note_on_c, 0, 71, 0
2, 202178, Control_c, 0, 64, 67
2, 202180, Note_on_c, 0, 79, 0
2, 202197, Control_c, 0, 64, 76
2, 202217, Control_c, 0, 64, 91
2, 202235, Control_c, 0, 64, 127
2, 202251, Note_on_c, 0, 43, 80
2, 202256, Note_on_c, 0, 47, 0
2, 202427, Control_c, 0, 64, 110
2, 202434, Note_on_c, 0, 69, 90
2, 202441, Note_on_c, 0, 66, 81
2, 202446, Control_c, 0, 64, 75
2, 202453, Note_on_c, 0, 48, 78
2, 202472, Control_c, 0, 64, 53
2, 202491, Control_c, 0, 64, 0
2, 202496, Note_on_c, 0, 43, 0
2, 202568, Control_c, 0, 64, 50
2, 202586, Control_c, 0, 64, 66
2, 202606, Control_c, 0, 64, 79
2, 202617, Note_on_c, 0, 43, 77
2, 202625, Control_c, 0, 64, 109
2, 202628, Note_on_c, 0, 66, 0
2, 202633, Note_on_c, 0, 48, 0
2, 202644, Control_c, 0, 64, 127
2, 202736, Note_on_c, 0, 69, 0
2, 202778, Control_c, 0, 64, 91
2, 202796, Note_on_c, 0, 71, 84
2, 202798, Control_c, 0, 64, 68
2, 202807, Note_on_c, 0, 50, 83
2, 202807, Note_on_c, 0, 67, 74
2, 202817, Control_c, 0, 64, 28
2, 202837, Control_c, 0, 64, 0
2, 202851, Note_on_c, 0, 43, 0
2, 202932, Control_c, 0, 64, 36
2, 202952, Control_c, 0, 64, 63
2, 202971, Control_c, 0, 64, 70
2, 202974, Note_on_c, 0, 71, 0
2, 202984, Note_on_c, 0, 74, 77
2, 202989, Control_c, 0, 64, 81
2, 203009, Control_c, 0, 64, 98
2, 203017, Note_on_c, 0, 67, 0
2, 203028, Control_c, 0, 64, 127
2, 203041, Note_on_c, 0, 72, 78
2, 203083, Control_c, 0, 64, 112
2, 203102, Control_c, 0, 64, 89
2, 203118, Note_on_c, 0, 71, 89
2, 203118, Note_on_c, 0, 74, 0
2, 203122, Control_c, 0, 64, 71
2, 203140, Control_c, 0, 64, 48
2, 203142, Note_on_c, 0, 43, 76
2, 203149, Note_on_c, 0, 67, 67
2, 203160, Control_c, 0, 64, 0
2, 203176, Note_on_c, 0, 72, 0
2, 203294, Control_c, 0, 64, 36
2, 203302, Note_on_c, 0, 74, 83
2, 203314, Control_c, 0, 64, 61
2, 203330, Note_on_c, 0, 71, 0
2, 203335, Control_c, 0, 64, 67
2, 203343, Note_on_c, 0, 67, 0
2, 203355, Control_c, 0, 64, 75
2, 203374, Control_c, 0, 64, 87
2, 203393, Control_c, 0, 64, 103
2, 203412, Control_c, 0, 64, 127
2, 203451, Control_c, 0, 64, 96
2, 203464, Control_c, 0, 64, 74
2, 203483, Control_c, 0, 64, 56
2, 203492, Note_on_c, 0, 47, 74
2, 203493, Note_on_c, 0, 69, 82
2, 203503, Control_c, 0, 64, 0
2, 203503, Note_on_c, 0, 65, 75
2, 203509, Note_on_c, 0, 50, 0
2, 203511, Note_on_c, 0, 74, 0
2, 203598, Control_c, 0, 64, 57
2, 203618, Control_c, 0, 64, 67
2, 203637, Control_c, 0, 64, 78
2, 203650, Note_on_c, 0, 74, 84
2, 203657, Control_c, 0, 64, 98
2, 203666, Note_on_c, 0, 69, 0
2, 203675, Control_c, 0, 64, 127
2, 203679, Note_on_c, 0, 65, 0
2, 203752, Control_c, 0, 64, 99
2, 203772, Control_c, 0, 64, 78
2, 203791, Control_c, 0, 64, 63
2, 203799, Note_on_c, 0, 47, 0
2, 203810, Control_c, 0, 64, 0
2, 203817, Note_on_c, 0, 48, 79
2, 203832, Note_on_c, 0, 67, 79
2, 203843, Note_on_c, 0, 64, 75
2, 203894, Note_on_c, 0, 74, 0
2, 203911, Note_on_c, 0, 48, 0
2, 203912, Note_on_c, 0, 47, 73
2, 203996, Note_on_c, 0, 48, 72
2, 204036, Note_on_c, 0, 47, 0
2, 204084, Note_on_c, 0, 50, 81
2, 204111, Note_on_c, 0, 48, 0
2, 204187, Note_on_c, 0, 72, 93
2, 204205, Note_on_c, 0, 52, 82
2, 204210, Note_on_c, 0, 67, 0
2, 204229, Note_on_c, 0, 50, 0
2, 204291, Control_c, 0, 64, 45
2, 204310, Control_c, 0, 64, 62
2, 204330, Control_c, 0, 64, 67
2, 204348, Control_c, 0, 64, 74
2, 204367, Control_c, 0, 64, 90
2, 204387, Control_c, 0, 64, 119
2, 204390, Note_on_c, 0, 48, 86
2, 204397, Note_on_c, 0, 52, 0
2, 204406, Control_c, 0, 64, 127
2, 204562, Note_on_c, 0, 64, 0
2, 204617, Control_c, 0, 64, 88
2, 204623, Note_on_c, 0, 63, 91
2, 204627, Note_on_c, 0, 54, 89
2, 204636, Control_c, 0, 64, 65
2, 204647, Note_on_c, 0, 48, 0
2, 204656, Control_c, 0, 64, 0
2, 204752, Control_c, 0, 64, 44
2, 204771, Control_c, 0, 64, 62
2, 204790, Control_c, 0, 64, 67
2, 204810, Control_c, 0, 64, 73
2, 204828, Control_c, 0, 64, 84
2, 204847, Control_c, 0, 64, 106
2, 204854, Note_on_c, 0, 54, 0
2, 204855, Note_on_c, 0, 48, 83
2, 204867, Control_c, 0, 64, 127
2, 204878, Note_on_c, 0, 63, 0
2, 204895, Note_on_c, 0, 72, 0
2, 204908, Note_on_c, 0, 43, 0
2, 205137, Note_on_c, 0, 48, 0
2, 205142, Note_on_c, 0, 43, 73
2, 205142, Note_on_c, 0, 55, 84
2, 205144, Note_on_c, 0, 62, 85
2, 205174, Control_c, 0, 64, 91
2, 205193, Control_c, 0, 64, 68
2, 205213, Control_c, 0, 64, 35
2, 205232, Control_c, 0, 64, 0
2, 205244, Note_on_c, 0, 67, 77
2, 205323, Control_c, 0, 64, 54
2, 205343, Control_c, 0, 64, 67
2, 205354, Note_on_c, 0, 69, 81
2, 205356, Note_on_c, 0, 62, 0
2, 205362, Control_c, 0, 64, 82
2, 205382, Control_c, 0, 64, 127
2, 205440, Note_on_c, 0, 71, 83
2, 205450, Note_on_c, 0, 67, 0
2, 205486, Note_on_c, 0, 69, 0
2, 205550, Note_on_c, 0, 72, 90
2, 205558, Note_on_c, 0, 64, 84
2, 205574, Control_c, 0, 64, 82
2, 205587, Note_on_c, 0, 71, 0
2, 205592, Control_c, 0, 64, 63
2, 205612, Control_c, 0, 64, 0
2, 205688, Control_c, 0, 64, 44
2, 205708, Control_c, 0, 64, 62
2, 205726, Control_c, 0, 64, 67
2, 205746, Control_c, 0, 64, 74
2, 205765, Control_c, 0, 64, 92
2, 205778, Note_on_c, 0, 67, 83
2, 205785, Control_c, 0, 64, 127
2, 205786, Note_on_c, 0, 72, 0
2, 205804, Note_on_c, 0, 64, 0
2, 205900, Note_on_c, 0, 67, 0
2, 205984, Note_on_c, 0, 74, 83
2, 205997, Note_on_c, 0, 71, 73
2, 206008, Note_on_c, 0, 65, 74
2, 206014, Control_c, 0, 64, 86
2, 206033, Control_c, 0, 64, 66
2, 206053, Control_c, 0, 64, 23
2, 206072, Control_c, 0, 64, 0
2, 206110, Control_c, 0, 64, 29
2, 206130, Control_c, 0, 64, 57
2, 206148, Control_c, 0, 64, 66
2, 206167, Control_c, 0, 64, 73
2, 206187, Control_c, 0, 64, 90
2, 206190, Note_on_c, 0, 67, 77
2, 206210, Note_on_c, 0, 65, 0
2, 206211, Control_c, 0, 64, 127
2, 206221, Note_on_c, 0, 71, 0
2, 206232, Note_on_c, 0, 74, 0
2, 206247, Note_on_c, 0, 67, 0
2, 206411, Note_on_c, 0, 76, 82
2, 206414, Note_on_c, 0, 67, 74
2, 206417, Note_on_c, 0, 72, 77
2, 206422, Control_c, 0, 64, 96
2, 206441, Control_c, 0, 64, 70
2, 206461, Control_c, 0, 64, 20
2, 206479, Control_c, 0, 64, 0
2, 206527, Note_on_c, 0, 71, 80
2, 206527, Note_on_c, 0, 72, 0
2, 206556, Control_c, 0, 64, 48
2, 206576, Control_c, 0, 64, 63
2, 206595, Control_c, 0, 64, 70
2, 206614, Control_c, 0, 64, 80
2, 206620, Note_on_c, 0, 76, 0
2, 206633, Control_c, 0, 64, 99
2, 206634, Note_on_c, 0, 72, 83
2, 206653, Control_c, 0, 64, 127
2, 206668, Note_on_c, 0, 67, 0
2, 206691, Note_on_c, 0, 71, 0
2, 206717, Note_on_c, 0, 74, 78
2, 206750, Note_on_c, 0, 72, 0
2, 206806, Control_c, 0, 64, 94
2, 206809, Note_on_c, 0, 76, 90
2, 206814, Note_on_c, 0, 67, 74
2, 206825, Control_c, 0, 64, 68
2, 206842, Note_on_c, 0, 74, 0
2, 206844, Control_c, 0, 64, 27
2, 206864, Control_c, 0, 64, 0
2, 206938, Control_c, 0, 64, 34
2, 206957, Control_c, 0, 64, 57
2, 206976, Control_c, 0, 64, 64
2, 206995, Control_c, 0, 64, 67
2, 207015, Control_c, 0, 64, 72
2, 207033, Control_c, 0, 64, 84
2, 207053, Control_c, 0, 64, 127
2, 207079, Note_on_c, 0, 72, 81
2, 207092, Note_on_c, 0, 67, 0
2, 207109, Note_on_c, 0, 76, 0
2, 207354, Note_on_c, 0, 78, 89
2, 207362, Control_c, 0, 64, 91
2, 207365, Note_on_c, 0, 69, 77
2, 207369, Note_on_c, 0, 72, 0
2, 207382, Control_c, 0, 64, 69
2, 207401, Control_c, 0, 64, 41
2, 207421, Control_c, 0, 64, 0
2, 207516, Control_c, 0, 64, 46
2, 207536, Control_c, 0, 64, 62
2, 207555, Control_c, 0, 64, 68
2, 207574, Control_c, 0, 64, 76
2, 207593, Control_c, 0, 64, 90
2, 207613, Control_c, 0, 64, 127
2, 207629, Note_on_c, 0, 72, 83
2, 207667, Note_on_c, 0, 69, 0
2, 207707, Note_on_c, 0, 78, 0
2, 207954, Note_on_c, 0, 72, 0
2, 207971, Note_on_c, 0, 79, 84
2, 207984, Note_on_c, 0, 71, 72
2, 208033, Control_c, 0, 64, 101
2, 208052, Control_c, 0, 64, 79
2, 208071, Control_c, 0, 64, 64
2, 208091, Control_c, 0, 64, 32
2, 208110, Control_c, 0, 64, 0
2, 208280, Note_on_c, 0, 74, 72
2, 208559, Note_on_c, 0, 76, 76
2, 208582, Note_on_c, 0, 74, 0
2, 208878, Note_on_c, 0, 72, 77
2, 208884, Note_on_c, 0, 71, 0
2, 208966, Note_on_c, 0, 76, 0
2, 209266, Note_on_c, 0, 69, 72
2, 209297, Note_on_c, 0, 72, 0
2, 209666, Control_c, 0, 64, 36
2, 209685, Control_c, 0, 64, 54
2, 209704, Control_c, 0, 64, 61
2, 209723, Control_c, 0, 64, 63
2, 209743, Control_c, 0, 64, 65
2, 209746, Note_on_c, 0, 78, 77
2, 209765, Control_c, 0, 64, 67
2, 209771, Note_on_c, 0, 79, 0
2, 209773, Note_on_c, 0, 69, 0
2, 209784, Control_c, 0, 64, 71
2, 209803, Control_c, 0, 64, 78
2, 209823, Control_c, 0, 64, 90
2, 209841, Control_c, 0, 64, 110
2, 209850, Note_on_c, 0, 78, 0
2, 209860, Control_c, 0, 64, 127
2, 210657, Note_on_c, 0, 79, 70
2, 210677, Note_on_c, 0, 74, 52
2, 210680, Note_on_c, 0, 71, 56
2, 210744, Control_c, 0, 64, 95
2, 210760, Note_on_c, 0, 79, 0
2, 210763, Control_c, 0, 64, 74
2, 210763, Note_on_c, 0, 78, 76
2, 210783, Control_c, 0, 64, 60
2, 210801, Control_c, 0, 64, 0
2, 210858, Note_on_c, 0, 78, 0
2, 210859, Note_on_c, 0, 79, 73
2, 214256, Note_on_c, 0, 79, 0
2, 214308, Note_on_c, 0, 71, 0
2, 214323, Note_on_c, 0, 55, 0
2, 214324, Note_on_c, 0, 43, 0
2, 214334, Note_on_c, 0, 74, 0
2, 214335, End_track
0, 0, End_of_file
