0, 0, Header, 1, 2, 480
1, 0, Start_track
1, 0, Tempo, 500000
1, 0, Time_signature, 4, 2, 24, 8
1, 1, End_track
2,0,Start_track
2,0, Note_on_c, 0, 67, 39
2,208, Note_on_c, 0, 67, 0
2,304, Note_on_c, 0, 69, 61
2,455, Note_on_c, 0, 67, 63
2,496, Note_on_c, 0, 69, 0
2,594, Note_on_c, 0, 67, 0
2,602, Note_on_c, 0, 66, 68
2,698, Note_on_c, 0, 66, 0
2,729, Note_on_c, 0, 67, 65
2,898, Note_on_c, 0, 67, 0
2,899, Note_on_c, 0, 69, 64
2,1118, Note_on_c, 0, 69, 0
2,1231, Note_on_c, 0, 71, 69
2,1369, Note_on_c, 0, 69, 76
2,1425, Note_on_c, 0, 71, 0
2,1513, Note_on_c, 0, 67, 73
2,1518, Note_on_c, 0, 69, 0
2,1632, Note_on_c, 0, 67, 0
2,1641, Note_on_c, 0, 69, 77
2,1695, Note_on_c, 0, 69, 0
2,1791, Note_on_c, 0, 71, 77
2,1822, Note_on_c, 0, 71, 0
2,2103, Note_on_c, 0, 69, 67
2,2136, Note_on_c, 0, 69, 0
2,2411, Note_on_c, 0, 67, 59
2,2452, Note_on_c, 0, 67, 0
2,2726, Note_on_c, 0, 62, 57
2,2766, Note_on_c, 0, 62, 0
2,3073, Note_on_c, 0, 72, 68
2,3719, Note_on_c, 0, 71, 70
2,3734, Note_on_c, 0, 72, 0
2,3761, Note_on_c, 0, 71, 0
2,4035, Note_on_c, 0, 69, 74
2,4089, Note_on_c, 0, 69, 0
2,4336, Note_on_c, 0, 67, 69
2,4385, Note_on_c, 0, 67, 0
2,4665, Note_on_c, 0, 66, 70
2,4700, Note_on_c, 0, 66, 0
2,5011, Note_on_c, 0, 76, 69
2,5643, Note_on_c, 0, 74, 54
2,5643, Note_on_c, 0, 76, 0
2,5714, Note_on_c, 0, 74, 0
2,5992, Note_on_c, 0, 76, 63
2,6129, Note_on_c, 0, 74, 69
2,6266, Note_on_c, 0, 72, 72
2,6347, Note_on_c, 0, 76, 0
2,6407, Note_on_c, 0, 71, 76
2,6434, Note_on_c, 0, 74, 0
2,6512, Note_on_c, 0, 72, 0
2,6579, Note_on_c, 0, 69, 66
2,6620, Note_on_c, 0, 71, 0
2,6885, Note_on_c, 0, 72, 70
2,6899, Note_on_c, 0, 69, 0
2,7024, Note_on_c, 0, 71, 74
2,7176, Note_on_c, 0, 69, 74
2,7188, Note_on_c, 0, 72, 0
2,7221, Note_on_c, 0, 71, 0
2,7278, Note_on_c, 0, 69, 0
2,7298, Note_on_c, 0, 67, 60
2,7468, Note_on_c, 0, 66, 58
2,7469, Note_on_c, 0, 62, 53
2,7484, Note_on_c, 0, 67, 0
2,7532, Note_on_c, 0, 66, 0
2,7602, Note_on_c, 0, 62, 0
2,7786, Note_on_c, 0, 67, 54
2,7787, Note_on_c, 0, 64, 60
2,7839, Note_on_c, 0, 67, 0
2,7919, Note_on_c, 0, 64, 0
2,7926, Note_on_c, 0, 62, 59
2,8057, Note_on_c, 0, 61, 68
2,8063, Note_on_c, 0, 62, 0
2,8073, Note_on_c, 0, 69, 70
2,8120, Note_on_c, 0, 69, 0
2,8194, Note_on_c, 0, 62, 74
2,8222, Note_on_c, 0, 61, 0
2,8362, Note_on_c, 0, 64, 74
2,8364, Note_on_c, 0, 62, 0
2,8375, Note_on_c, 0, 67, 62
2,8574, Note_on_c, 0, 64, 0
2,8578, Note_on_c, 0, 67, 0
2,8686, Note_on_c, 0, 69, 78
2,8688, Note_on_c, 0, 66, 69
2,8741, Note_on_c, 0, 69, 0
2,8819, Note_on_c, 0, 64, 70
2,8828, Note_on_c, 0, 66, 0
2,8963, Note_on_c, 0, 62, 63
2,8966, Note_on_c, 0, 64, 0
2,8971, Note_on_c, 0, 71, 74
2,9004, Note_on_c, 0, 71, 0
2,9089, Note_on_c, 0, 62, 0
2,9107, Note_on_c, 0, 64, 71
2,9276, Note_on_c, 0, 66, 72
2,9280, Note_on_c, 0, 64, 0
2,9282, Note_on_c, 0, 69, 69
2,9308, Note_on_c, 0, 66, 0
2,9585, Note_on_c, 0, 64, 75
2,9594, Note_on_c, 0, 71, 66
2,9641, Note_on_c, 0, 64, 0
2,9725, Note_on_c, 0, 73, 73
2,9790, Note_on_c, 0, 69, 0
2,9872, Note_on_c, 0, 71, 0
2,9886, Note_on_c, 0, 74, 72
2,9891, Note_on_c, 0, 62, 76
2,9932, Note_on_c, 0, 62, 0
2,9935, Note_on_c, 0, 73, 0
2,9999, Note_on_c, 0, 74, 0
2,10013, Note_on_c, 0, 71, 81
2,10174, Note_on_c, 0, 57, 83
2,10178, Note_on_c, 0, 73, 78
2,10198, Note_on_c, 0, 71, 0
2,10204, Note_on_c, 0, 57, 0
2,10329, Note_on_c, 0, 71, 77
2,10342, Note_on_c, 0, 73, 0
2,10478, Note_on_c, 0, 67, 81
2,10495, Note_on_c, 0, 73, 68
2,10640, Note_on_c, 0, 74, 70
2,10705, Note_on_c, 0, 71, 0
2,10715, Note_on_c, 0, 73, 0
2,10782, Note_on_c, 0, 76, 68
2,10783, Note_on_c, 0, 74, 0
2,10907, Note_on_c, 0, 76, 0
2,10922, Note_on_c, 0, 73, 59
2,11075, Note_on_c, 0, 66, 71
2,11078, Note_on_c, 0, 67, 0
2,11080, Note_on_c, 0, 73, 0
2,11090, Note_on_c, 0, 74, 66
2,11108, Note_on_c, 0, 66, 0
2,11212, Note_on_c, 0, 74, 0
2,11218, Note_on_c, 0, 73, 75
2,11366, Note_on_c, 0, 74, 77
2,11368, Note_on_c, 0, 64, 78
2,11374, Note_on_c, 0, 73, 0
2,11405, Note_on_c, 0, 64, 0
2,11497, Note_on_c, 0, 76, 83
2,11525, Note_on_c, 0, 74, 0
2,11647, Note_on_c, 0, 62, 80
2,11655, Note_on_c, 0, 78, 80
2,11681, Note_on_c, 0, 62, 0
2,11692, Note_on_c, 0, 76, 0
2,11781, Note_on_c, 0, 74, 77
2,11814, Note_on_c, 0, 78, 0
2,11934, Note_on_c, 0, 61, 89
2,11935, Note_on_c, 0, 76, 79
2,11955, Note_on_c, 0, 74, 0
2,11962, Note_on_c, 0, 61, 0
2,12072, Note_on_c, 0, 74, 77
2,12081, Note_on_c, 0, 76, 0
2,12234, Note_on_c, 0, 71, 82
2,12234, Note_on_c, 0, 76, 77
2,12300, Note_on_c, 0, 74, 0
2,12372, Note_on_c, 0, 78, 78
2,12477, Note_on_c, 0, 76, 0
2,12515, Note_on_c, 0, 79, 80
2,12544, Note_on_c, 0, 78, 0
2,12630, Note_on_c, 0, 79, 0
2,12637, Note_on_c, 0, 76, 75
2,12820, Note_on_c, 0, 71, 0
2,12825, Note_on_c, 0, 69, 68
2,12827, Note_on_c, 0, 78, 80
2,12849, Note_on_c, 0, 76, 0
2,13072, Note_on_c, 0, 78, 0
2,13134, Note_on_c, 0, 69, 0
2,13135, Note_on_c, 0, 79, 81
2,13136, Note_on_c, 0, 71, 74
2,13267, Note_on_c, 0, 71, 0
2,13268, Note_on_c, 0, 69, 78
2,13274, Note_on_c, 0, 78, 82
2,13395, Note_on_c, 0, 79, 0
2,13399, Note_on_c, 0, 67, 70
2,13404, Note_on_c, 0, 76, 76
2,13408, Note_on_c, 0, 69, 0
2,13479, Note_on_c, 0, 78, 0
2,13519, Note_on_c, 0, 74, 75
2,13534, Note_on_c, 0, 66, 76
2,13550, Note_on_c, 0, 76, 0
2,13559, Note_on_c, 0, 67, 0
2,13656, Note_on_c, 0, 79, 77
2,13664, Note_on_c, 0, 66, 0
2,13675, Note_on_c, 0, 64, 67
2,13704, Note_on_c, 0, 79, 0
2,13709, Note_on_c, 0, 78, 80
2,13713, Note_on_c, 0, 74, 0
2,13736, Note_on_c, 0, 64, 0
2,13781, Note_on_c, 0, 79, 87
2,13800, Note_on_c, 0, 78, 0
2,14039, Note_on_c, 0, 67, 71
2,14178, Note_on_c, 0, 66, 79
2,14256, Note_on_c, 0, 67, 0
2,14331, Note_on_c, 0, 64, 79
2,14403, Note_on_c, 0, 66, 0
2,14458, Note_on_c, 0, 62, 72
2,14542, Note_on_c, 0, 64, 0
2,14601, Note_on_c, 0, 62, 0
2,14613, Note_on_c, 0, 61, 73
2,14656, Note_on_c, 0, 61, 0
2,14761, Note_on_c, 0, 78, 63
2,14762, Note_on_c, 0, 79, 0
2,14908, Note_on_c, 0, 67, 63
2,14913, Note_on_c, 0, 76, 62
2,14925, Note_on_c, 0, 78, 0
2,14948, Note_on_c, 0, 67, 0
2,15028, Note_on_c, 0, 76, 0
2,15051, Note_on_c, 0, 79, 55
2,15194, Note_on_c, 0, 79, 0
2,15210, Note_on_c, 0, 66, 65
2,15219, Note_on_c, 0, 74, 54
2,15253, Note_on_c, 0, 66, 0
2,15336, Note_on_c, 0, 74, 0
2,15364, Note_on_c, 0, 79, 52
2,15484, Note_on_c, 0, 79, 0
2,15518, Note_on_c, 0, 64, 54
2,15519, Note_on_c, 0, 73, 56
2,15548, Note_on_c, 0, 64, 0
2,15636, Note_on_c, 0, 73, 0
2,15658, Note_on_c, 0, 79, 53
2,15778, Note_on_c, 0, 79, 0
2,15819, Note_on_c, 0, 71, 49
2,15833, Note_on_c, 0, 62, 48
2,15870, Note_on_c, 0, 62, 0
2,15935, Note_on_c, 0, 71, 0
2,15964, Note_on_c, 0, 79, 46
2,16092, Note_on_c, 0, 79, 0
2,16119, Note_on_c, 0, 61, 53
2,16147, Note_on_c, 0, 69, 55
2,16164, Note_on_c, 0, 61, 0
2,16210, Note_on_c, 0, 69, 0
2,16278, Note_on_c, 0, 79, 52
2,16438, Note_on_c, 0, 78, 62
2,16438, Note_on_c, 0, 79, 0
2,16439, Note_on_c, 0, 62, 53
2,16492, Note_on_c, 0, 78, 0
2,16495, Note_on_c, 0, 62, 0
2,16570, Note_on_c, 0, 64, 57
2,16706, Note_on_c, 0, 64, 0
2,16731, Note_on_c, 0, 66, 55
2,16734, Note_on_c, 0, 74, 63
2,16781, Note_on_c, 0, 74, 0
2,16846, Note_on_c, 0, 66, 0
2,16866, Note_on_c, 0, 62, 52
2,17015, Note_on_c, 0, 62, 0
2,17020, Note_on_c, 0, 76, 74
2,17033, Note_on_c, 0, 67, 59
2,17070, Note_on_c, 0, 76, 0
2,17150, Note_on_c, 0, 67, 0
2,17173, Note_on_c, 0, 62, 60
2,17317, Note_on_c, 0, 62, 0
2,17324, Note_on_c, 0, 78, 85
2,17334, Note_on_c, 0, 69, 72
2,17391, Note_on_c, 0, 78, 0
2,17465, Note_on_c, 0, 62, 66
2,17474, Note_on_c, 0, 69, 0
2,17623, Note_on_c, 0, 62, 0
2,17624, Note_on_c, 0, 71, 71
2,17624, Note_on_c, 0, 79, 91
2,17689, Note_on_c, 0, 79, 0
2,17757, Note_on_c, 0, 71, 0
2,17764, Note_on_c, 0, 62, 70
2,17917, Note_on_c, 0, 81, 89
2,17920, Note_on_c, 0, 62, 0
2,17929, Note_on_c, 0, 72, 75
2,18037, Note_on_c, 0, 72, 0
2,18046, Note_on_c, 0, 62, 74
2,18090, Note_on_c, 0, 62, 0
2,18231, Note_on_c, 0, 71, 80
2,18240, Note_on_c, 0, 55, 83
2,18388, Note_on_c, 0, 55, 0
2,18497, Note_on_c, 0, 81, 0
2,18562, Note_on_c, 0, 57, 80
2,18570, Note_on_c, 0, 74, 76
2,18692, Note_on_c, 0, 55, 78
2,18705, Note_on_c, 0, 57, 0
2,18839, Note_on_c, 0, 54, 82
2,18854, Note_on_c, 0, 79, 87
2,18858, Note_on_c, 0, 55, 0
2,18866, Note_on_c, 0, 74, 0
2,18976, Note_on_c, 0, 55, 87
2,18997, Note_on_c, 0, 54, 0
2,19147, Note_on_c, 0, 57, 81
2,19161, Note_on_c, 0, 55, 0
2,19161, Note_on_c, 0, 72, 83
2,19204, Note_on_c, 0, 79, 0
2,19227, Note_on_c, 0, 71, 0
2,19302, Note_on_c, 0, 57, 0
2,19467, Note_on_c, 0, 59, 82
2,19483, Note_on_c, 0, 78, 76
2,19606, Note_on_c, 0, 57, 79
2,19632, Note_on_c, 0, 59, 0
2,19746, Note_on_c, 0, 55, 77
2,19760, Note_on_c, 0, 57, 0
2,19767, Note_on_c, 0, 76, 73
2,19882, Note_on_c, 0, 57, 85
2,19897, Note_on_c, 0, 55, 0
2,20043, Note_on_c, 0, 59, 96
2,20047, Note_on_c, 0, 74, 79
2,20050, Note_on_c, 0, 57, 0
2,20060, Note_on_c, 0, 78, 0
2,20069, Note_on_c, 0, 76, 0
2,20090, Note_on_c, 0, 74, 0
2,20091, Note_on_c, 0, 72, 0
2,20107, Note_on_c, 0, 59, 0
2,20357, Note_on_c, 0, 72, 84
2,20359, Note_on_c, 0, 57, 86
2,20362, Note_on_c, 0, 66, 73
2,20402, Note_on_c, 0, 66, 0
2,20414, Note_on_c, 0, 57, 0
2,20420, Note_on_c, 0, 72, 0
2,20668, Note_on_c, 0, 55, 81
2,20675, Note_on_c, 0, 71, 80
2,20677, Note_on_c, 0, 67, 76
2,20726, Note_on_c, 0, 55, 0
2,20741, Note_on_c, 0, 71, 0
2,20988, Note_on_c, 0, 69, 83
2,20990, Note_on_c, 0, 50, 83
2,21019, Note_on_c, 0, 67, 0
2,21024, Note_on_c, 0, 50, 0
2,21311, Note_on_c, 0, 60, 83
2,21338, Note_on_c, 0, 66, 67
2,21395, Note_on_c, 0, 69, 0
2,21488, Note_on_c, 0, 67, 66
2,21521, Note_on_c, 0, 66, 0
2,21622, Note_on_c, 0, 67, 0
2,21638, Note_on_c, 0, 69, 66
2,21746, Note_on_c, 0, 69, 0
2,21763, Note_on_c, 0, 66, 54
2,21904, Note_on_c, 0, 66, 0
2,21910, Note_on_c, 0, 60, 0
2,21918, Note_on_c, 0, 59, 68
2,21928, Note_on_c, 0, 67, 55
2,21963, Note_on_c, 0, 59, 0
2,22026, Note_on_c, 0, 67, 0
2,22065, Note_on_c, 0, 66, 62
2,22193, Note_on_c, 0, 66, 0
2,22208, Note_on_c, 0, 67, 71
2,22210, Note_on_c, 0, 57, 67
2,22260, Note_on_c, 0, 57, 0
2,22335, Note_on_c, 0, 69, 76
2,22386, Note_on_c, 0, 67, 0
2,22482, Note_on_c, 0, 71, 72
2,22483, Note_on_c, 0, 74, 67
2,22494, Note_on_c, 0, 69, 0
2,22496, Note_on_c, 0, 55, 72
2,22540, Note_on_c, 0, 55, 0
2,22628, Note_on_c, 0, 71, 0
2,22632, Note_on_c, 0, 67, 70
2,22784, Note_on_c, 0, 54, 90
2,22785, Note_on_c, 0, 69, 81
2,22803, Note_on_c, 0, 67, 0
2,22817, Note_on_c, 0, 54, 0
2,22921, Note_on_c, 0, 67, 77
2,22931, Note_on_c, 0, 69, 0
2,23087, Note_on_c, 0, 69, 78
2,23091, Note_on_c, 0, 64, 89
2,23096, Note_on_c, 0, 72, 74
2,23100, Note_on_c, 0, 67, 0
2,23102, Note_on_c, 0, 74, 0
2,23184, Note_on_c, 0, 69, 0
2,23204, Note_on_c, 0, 72, 0
2,23228, Note_on_c, 0, 71, 84
2,23373, Note_on_c, 0, 81, 81
2,23380, Note_on_c, 0, 72, 76
2,23382, Note_on_c, 0, 71, 0
2,23482, Note_on_c, 0, 72, 0
2,23514, Note_on_c, 0, 69, 78
2,23689, Note_on_c, 0, 62, 77
2,23689, Note_on_c, 0, 71, 85
2,23699, Note_on_c, 0, 69, 0
2,23708, Note_on_c, 0, 64, 0
2,23715, Note_on_c, 0, 81, 0
2,23719, Control_c, 0, 64, 55
2,23728, Note_on_c, 0, 62, 0
2,23733, Note_on_c, 0, 71, 0
2,23739, Control_c, 0, 64, 65
2,23757, Control_c, 0, 64, 67
2,23777, Control_c, 0, 64, 70
2,23796, Control_c, 0, 64, 75
2,23815, Control_c, 0, 64, 83
2,23834, Control_c, 0, 64, 87
2,23854, Control_c, 0, 64, 90
2,23873, Control_c, 0, 64, 94
2,23892, Control_c, 0, 64, 96
2,23950, Control_c, 0, 64, 95
2,23969, Control_c, 0, 64, 93
2,23988, Control_c, 0, 64, 89
2,23999, Note_on_c, 0, 79, 74
2,24008, Control_c, 0, 64, 84
2,24008, Note_on_c, 0, 72, 79
2,24019, Note_on_c, 0, 64, 69
2,24026, Control_c, 0, 64, 78
2,24046, Control_c, 0, 64, 68
2,24065, Control_c, 0, 64, 57
2,24084, Control_c, 0, 64, 0
2,24134, Note_on_c, 0, 71, 80
2,24135, Note_on_c, 0, 72, 0
2,24143, Note_on_c, 0, 62, 72
2,24149, Note_on_c, 0, 64, 0
2,24287, Note_on_c, 0, 60, 74
2,24289, Note_on_c, 0, 69, 82
2,24301, Note_on_c, 0, 62, 0
2,24393, Note_on_c, 0, 71, 0
2,24410, Note_on_c, 0, 59, 71
2,24410, Note_on_c, 0, 60, 0
2,24415, Note_on_c, 0, 67, 69
2,24442, Note_on_c, 0, 67, 0
2,24538, Note_on_c, 0, 69, 0
2,24564, Note_on_c, 0, 59, 0
2,24567, Note_on_c, 0, 57, 70
2,24568, Note_on_c, 0, 72, 81
2,24591, Note_on_c, 0, 79, 0
2,24878, Note_on_c, 0, 81, 80
2,24897, Note_on_c, 0, 60, 69
2,24974, Note_on_c, 0, 57, 0
2,25020, Note_on_c, 0, 59, 76
2,25021, Note_on_c, 0, 60, 0
2,25021, Note_on_c, 0, 79, 81
2,25065, Note_on_c, 0, 81, 0
2,25105, Note_on_c, 0, 72, 0
2,25142, Note_on_c, 0, 59, 0
2,25154, Note_on_c, 0, 57, 73
2,25164, Note_on_c, 0, 78, 80
2,25164, Note_on_c, 0, 79, 0
2,25280, Note_on_c, 0, 78, 0
2,25283, Note_on_c, 0, 55, 79
2,25299, Note_on_c, 0, 76, 76
2,25321, Note_on_c, 0, 57, 0
2,25454, Note_on_c, 0, 54, 83
2,25456, Note_on_c, 0, 76, 0
2,25459, Note_on_c, 0, 74, 78
2,25499, Note_on_c, 0, 55, 0
2,25591, Note_on_c, 0, 71, 79
2,25746, Note_on_c, 0, 69, 78
2,25754, Note_on_c, 0, 71, 0
2,25874, Note_on_c, 0, 72, 78
2,25882, Note_on_c, 0, 69, 0
2,26020, Note_on_c, 0, 54, 0
2,26021, Note_on_c, 0, 72, 0
2,26037, Note_on_c, 0, 52, 74
2,26044, Note_on_c, 0, 67, 68
2,26079, Note_on_c, 0, 52, 0
2,26154, Note_on_c, 0, 67, 0
2,26177, Note_on_c, 0, 72, 64
2,26326, Note_on_c, 0, 72, 0
2,26338, Note_on_c, 0, 50, 57
2,26357, Note_on_c, 0, 66, 62
2,26434, Note_on_c, 0, 50, 0
2,26455, Note_on_c, 0, 66, 0
2,26470, Note_on_c, 0, 52, 59
2,26487, Note_on_c, 0, 72, 59
2,26560, Note_on_c, 0, 74, 0
2,26588, Note_on_c, 0, 52, 0
2,26610, Note_on_c, 0, 72, 0
2,26634, Note_on_c, 0, 50, 55
2,26642, Note_on_c, 0, 64, 58
2,26714, Note_on_c, 0, 50, 0
2,26744, Note_on_c, 0, 64, 0
2,26761, Note_on_c, 0, 48, 54
2,26777, Note_on_c, 0, 72, 55
2,26879, Note_on_c, 0, 48, 0
2,26879, Note_on_c, 0, 72, 0
2,26918, Note_on_c, 0, 47, 52
2,26934, Note_on_c, 0, 62, 53
2,26987, Note_on_c, 0, 47, 0
2,27004, Note_on_c, 0, 62, 0
2,27049, Note_on_c, 0, 45, 50
2,27053, Note_on_c, 0, 72, 54
2,27174, Note_on_c, 0, 45, 0
2,27175, Note_on_c, 0, 72, 0
2,27219, Note_on_c, 0, 71, 57
2,27220, Note_on_c, 0, 43, 49
2,27225, Note_on_c, 0, 67, 48
2,27263, Note_on_c, 0, 67, 0
2,27267, Note_on_c, 0, 71, 0
2,27355, Note_on_c, 0, 43, 0
2,27369, Note_on_c, 0, 45, 46
2,27501, Note_on_c, 0, 45, 0
2,27532, Note_on_c, 0, 47, 56
2,27534, Note_on_c, 0, 74, 63
2,27538, Note_on_c, 0, 65, 52
2,27580, Note_on_c, 0, 74, 0
2,27581, Note_on_c, 0, 65, 0
2,27609, Note_on_c, 0, 47, 0
2,27655, Note_on_c, 0, 43, 53
2,27785, Note_on_c, 0, 43, 0
2,27822, Note_on_c, 0, 48, 57
2,27826, Note_on_c, 0, 72, 69
2,27836, Note_on_c, 0, 64, 54
2,27870, Note_on_c, 0, 72, 0
2,27879, Note_on_c, 0, 64, 0
2,27933, Note_on_c, 0, 48, 0
2,27956, Note_on_c, 0, 43, 54
2,28090, Note_on_c, 0, 43, 0
2,28122, Note_on_c, 0, 71, 66
2,28129, Note_on_c, 0, 50, 57
2,28134, Note_on_c, 0, 62, 55
2,28168, Note_on_c, 0, 71, 0
2,28180, Note_on_c, 0, 62, 0
2,28247, Note_on_c, 0, 50, 0
2,28253, Note_on_c, 0, 43, 52
2,28404, Note_on_c, 0, 43, 0
2,28426, Note_on_c, 0, 69, 65
2,28431, Note_on_c, 0, 52, 55
2,28437, Note_on_c, 0, 60, 54
2,28468, Note_on_c, 0, 69, 0
2,28479, Note_on_c, 0, 60, 0
2,28521, Note_on_c, 0, 52, 0
2,28569, Note_on_c, 0, 43, 52
2,28705, Note_on_c, 0, 43, 0
2,28730, Note_on_c, 0, 59, 58
2,28730, Note_on_c, 0, 67, 58
2,28744, Note_on_c, 0, 53, 48
2,28759, Note_on_c, 0, 59, 0
2,28764, Note_on_c, 0, 67, 0
2,28804, Note_on_c, 0, 53, 0
2,28857, Note_on_c, 0, 43, 61
2,29011, Note_on_c, 0, 52, 58
2,29021, Note_on_c, 0, 72, 81
2,29041, Note_on_c, 0, 43, 0
2,29142, Note_on_c, 0, 50, 65
2,29160, Note_on_c, 0, 74, 85
2,29187, Note_on_c, 0, 52, 0
2,29193, Note_on_c, 0, 72, 0
2,29285, Note_on_c, 0, 48, 61
2,29294, Note_on_c, 0, 50, 0
2,29303, Note_on_c, 0, 76, 89
2,29343, Note_on_c, 0, 74, 0
2,29407, Note_on_c, 0, 48, 0
2,29436, Note_on_c, 0, 52, 66
2,29589, Note_on_c, 0, 52, 0
2,29601, Note_on_c, 0, 67, 79
2,29615, Note_on_c, 0, 47, 60
2,29647, Note_on_c, 0, 67, 0
2,29675, Note_on_c, 0, 47, 0
2,29740, Note_on_c, 0, 52, 61
2,29882, Note_on_c, 0, 76, 0
2,29913, Note_on_c, 0, 66, 71
2,29916, Note_on_c, 0, 52, 0
2,29919, Note_on_c, 0, 45, 53
2,30005, Note_on_c, 0, 45, 0
2,30052, Note_on_c, 0, 52, 69
2,30055, Note_on_c, 0, 74, 66
2,30196, Note_on_c, 0, 72, 78
2,30204, Note_on_c, 0, 43, 72
2,30221, Note_on_c, 0, 52, 0
2,30267, Note_on_c, 0, 74, 0
2,30308, Note_on_c, 0, 43, 0
2,30333, Note_on_c, 0, 71, 77
2,30343, Note_on_c, 0, 52, 76
2,30422, Note_on_c, 0, 72, 0
2,30481, Note_on_c, 0, 69, 72
2,30485, Note_on_c, 0, 42, 65
2,30491, Note_on_c, 0, 52, 0
2,30493, Note_on_c, 0, 71, 0
2,30591, Note_on_c, 0, 42, 0
2,30620, Note_on_c, 0, 69, 0
2,30620, Note_on_c, 0, 72, 60
2,30634, Note_on_c, 0, 52, 60
2,30742, Note_on_c, 0, 52, 0
2,30777, Note_on_c, 0, 50, 56
2,30783, Note_on_c, 0, 72, 0
2,30797, Note_on_c, 0, 71, 63
2,30867, Note_on_c, 0, 66, 0
2,30889, Note_on_c, 0, 50, 0
2,30912, Note_on_c, 0, 48, 57
2,30925, Note_on_c, 0, 71, 0
2,30937, Note_on_c, 0, 72, 69
2,30999, Note_on_c, 0, 48, 0
2,31067, Note_on_c, 0, 47, 52
2,31092, Note_on_c, 0, 72, 0
2,31104, Note_on_c, 0, 74, 59
2,31159, Note_on_c, 0, 47, 0
2,31229, Note_on_c, 0, 50, 58
2,31374, Note_on_c, 0, 50, 0
2,31381, Note_on_c, 0, 66, 62
2,31409, Note_on_c, 0, 45, 48
2,31434, Note_on_c, 0, 66, 0
2,31464, Note_on_c, 0, 45, 0
2,31537, Note_on_c, 0, 50, 54
2,31646, Note_on_c, 0, 74, 0
2,31663, Note_on_c, 0, 50, 0
2,31683, Note_on_c, 0, 64, 57
2,31694, Note_on_c, 0, 43, 49
2,31756, Note_on_c, 0, 43, 0
2,31814, Note_on_c, 0, 72, 57
2,31822, Note_on_c, 0, 50, 58
2,31960, Note_on_c, 0, 50, 0
2,31971, Note_on_c, 0, 71, 61
2,31978, Note_on_c, 0, 42, 47
2,32080, Note_on_c, 0, 42, 0
2,32086, Note_on_c, 0, 72, 0
2,32114, Note_on_c, 0, 69, 58
2,32118, Note_on_c, 0, 50, 56
2,32118, Note_on_c, 0, 71, 0
2,32246, Note_on_c, 0, 50, 0
2,32263, Note_on_c, 0, 69, 0
2,32268, Note_on_c, 0, 67, 52
2,32294, Note_on_c, 0, 40, 38
2,32344, Note_on_c, 0, 40, 0
2,32388, Note_on_c, 0, 67, 0
2,32400, Note_on_c, 0, 71, 58
2,32412, Note_on_c, 0, 50, 52
2,32495, Note_on_c, 0, 50, 0
2,32536, Note_on_c, 0, 71, 0
2,32556, Note_on_c, 0, 48, 49
2,32556, Note_on_c, 0, 69, 62
2,32654, Note_on_c, 0, 48, 0
2,32684, Note_on_c, 0, 47, 56
2,32693, Note_on_c, 0, 71, 64
2,32701, Note_on_c, 0, 69, 0
2,32787, Note_on_c, 0, 47, 0
2,32851, Note_on_c, 0, 45, 48
2,32870, Note_on_c, 0, 72, 61
2,32872, Note_on_c, 0, 71, 0
2,32877, Note_on_c, 0, 64, 0
2,32950, Note_on_c, 0, 45, 0
2,33006, Note_on_c, 0, 48, 47
2,33124, Note_on_c, 0, 48, 0
2,33149, Note_on_c, 0, 64, 63
2,33165, Note_on_c, 0, 43, 48
2,33194, Note_on_c, 0, 64, 0
2,33222, Note_on_c, 0, 43, 0
2,33285, Note_on_c, 0, 48, 55
2,33415, Note_on_c, 0, 48, 0
2,33427, Note_on_c, 0, 72, 0
2,33453, Note_on_c, 0, 42, 51
2,33461, Note_on_c, 0, 62, 57
2,33545, Note_on_c, 0, 42, 0
2,33587, Note_on_c, 0, 48, 47
2,33592, Note_on_c, 0, 71, 67
2,33730, Note_on_c, 0, 69, 78
2,33735, Note_on_c, 0, 48, 0
2,33745, Note_on_c, 0, 40, 49
2,33861, Note_on_c, 0, 67, 75
2,33899, Note_on_c, 0, 71, 0
2,33939, Note_on_c, 0, 40, 0
2,33949, Note_on_c, 0, 38, 55
2,33965, Note_on_c, 0, 69, 0
2,33968, Note_on_c, 0, 62, 0
2,34011, Note_on_c, 0, 66, 75
2,34025, Note_on_c, 0, 38, 0
2,34026, Note_on_c, 0, 67, 0
2,34065, Note_on_c, 0, 48, 41
2,34106, Note_on_c, 0, 48, 0
2,34139, Note_on_c, 0, 69, 75
2,34155, Note_on_c, 0, 66, 0
2,34243, Note_on_c, 0, 69, 0
2,34271, Note_on_c, 0, 47, 65
2,34284, Note_on_c, 0, 67, 69
2,34309, Note_on_c, 0, 47, 0
2,34317, Note_on_c, 0, 62, 49
2,34405, Note_on_c, 0, 62, 0
2,34417, Note_on_c, 0, 67, 0
2,34428, Note_on_c, 0, 69, 64
2,34573, Note_on_c, 0, 69, 0
2,34589, Note_on_c, 0, 71, 64
2,34591, Note_on_c, 0, 45, 54
2,34604, Note_on_c, 0, 60, 58
2,34631, Note_on_c, 0, 45, 0
2,34713, Note_on_c, 0, 60, 0
2,34723, Note_on_c, 0, 62, 72
2,34882, Note_on_c, 0, 43, 68
2,34882, Note_on_c, 0, 64, 75
2,34889, Note_on_c, 0, 62, 0
2,34917, Note_on_c, 0, 43, 0
2,35016, Note_on_c, 0, 62, 74
2,35017, Note_on_c, 0, 64, 0
2,35205, Note_on_c, 0, 60, 72
2,35213, Note_on_c, 0, 45, 67
2,35238, Note_on_c, 0, 71, 0
2,35262, Note_on_c, 0, 62, 0
2,35264, Note_on_c, 0, 45, 0
2,35282, Note_on_c, 0, 60, 0
2,35520, Note_on_c, 0, 64, 75
2,35523, Note_on_c, 0, 43, 62
2,35536, Note_on_c, 0, 59, 68
2,35572, Note_on_c, 0, 43, 0
2,35591, Note_on_c, 0, 59, 0
2,35669, Note_on_c, 0, 60, 69
2,35808, Note_on_c, 0, 60, 0
2,35820, Note_on_c, 0, 42, 58
2,35823, Note_on_c, 0, 69, 61
2,35827, Note_on_c, 0, 62, 58
2,35860, Note_on_c, 0, 42, 0
2,35877, Note_on_c, 0, 62, 0
2,35917, Note_on_c, 0, 64, 0
2,35959, Note_on_c, 0, 60, 65
2,36084, Note_on_c, 0, 60, 0
2,36112, Note_on_c, 0, 59, 82
2,36120, Note_on_c, 0, 43, 55
2,36167, Note_on_c, 0, 69, 0
2,36194, Note_on_c, 0, 43, 0
2,36254, Note_on_c, 0, 55, 55
2,36272, Note_on_c, 0, 67, 66
2,36294, Note_on_c, 0, 59, 0
2,36340, Note_on_c, 0, 55, 0
2,36417, Note_on_c, 0, 69, 79
2,36420, Note_on_c, 0, 53, 67
2,36423, Note_on_c, 0, 60, 78
2,36459, Note_on_c, 0, 67, 0
2,36515, Note_on_c, 0, 60, 0
2,36557, Note_on_c, 0, 53, 0
2,36561, Note_on_c, 0, 52, 69
2,36686, Note_on_c, 0, 52, 0
2,36712, Note_on_c, 0, 50, 67
2,36730, Note_on_c, 0, 62, 86
2,36735, Note_on_c, 0, 71, 83
2,36765, Note_on_c, 0, 69, 0
2,36793, Note_on_c, 0, 62, 0
2,36799, Note_on_c, 0, 71, 0
2,36845, Note_on_c, 0, 50, 0
2,36863, Note_on_c, 0, 53, 70
2,37034, Note_on_c, 0, 72, 86
2,37035, Note_on_c, 0, 53, 0
2,37035, Note_on_c, 0, 67, 79
2,37037, Note_on_c, 0, 52, 73
2,37099, Note_on_c, 0, 67, 0
2,37147, Note_on_c, 0, 52, 0
2,37175, Note_on_c, 0, 53, 76
2,37199, Note_on_c, 0, 74, 63
2,37203, Note_on_c, 0, 72, 0
2,37315, Note_on_c, 0, 53, 0
2,37343, Note_on_c, 0, 57, 81
2,37350, Note_on_c, 0, 52, 68
2,37352, Note_on_c, 0, 72, 78
2,37366, Note_on_c, 0, 74, 0
2,37478, Note_on_c, 0, 52, 0
2,37489, Note_on_c, 0, 50, 64
2,37493, Note_on_c, 0, 71, 67
2,37533, Note_on_c, 0, 72, 0
2,37614, Note_on_c, 0, 50, 0
2,37640, Note_on_c, 0, 48, 60
2,37649, Note_on_c, 0, 69, 68
2,37687, Note_on_c, 0, 71, 0
2,37759, Note_on_c, 0, 69, 0
2,37777, Note_on_c, 0, 52, 66
2,37787, Note_on_c, 0, 57, 0
2,37790, Note_on_c, 0, 48, 0
2,37791, Note_on_c, 0, 67, 60
2,37930, Note_on_c, 0, 66, 77
2,37935, Note_on_c, 0, 67, 0
2,37943, Note_on_c, 0, 59, 85
2,37953, Note_on_c, 0, 50, 68
2,37958, Note_on_c, 0, 52, 0
2,38000, Note_on_c, 0, 66, 0
2,38023, Note_on_c, 0, 67, 44
2,38092, Note_on_c, 0, 50, 0
2,38092, Note_on_c, 0, 52, 77
2,38095, Note_on_c, 0, 66, 73
2,38123, Note_on_c, 0, 59, 0
2,38141, Note_on_c, 0, 67, 0
2,38235, Note_on_c, 0, 50, 78
2,38239, Note_on_c, 0, 60, 81
2,38249, Note_on_c, 0, 52, 0
2,38269, Note_on_c, 0, 66, 0
2,38363, Note_on_c, 0, 50, 0
2,38371, Note_on_c, 0, 64, 78
2,38373, Note_on_c, 0, 60, 0
2,38386, Note_on_c, 0, 48, 67
2,38442, Note_on_c, 0, 66, 73
2,38495, Note_on_c, 0, 64, 0
2,38517, Note_on_c, 0, 47, 74
2,38523, Note_on_c, 0, 62, 75
2,38525, Note_on_c, 0, 48, 0
2,38527, Note_on_c, 0, 67, 75
2,38532, Note_on_c, 0, 66, 0
2,38650, Note_on_c, 0, 50, 73
2,38652, Note_on_c, 0, 47, 0
2,38767, Note_on_c, 0, 62, 0
2,38814, Note_on_c, 0, 48, 72
2,38815, Note_on_c, 0, 50, 0
2,38824, Note_on_c, 0, 64, 81
2,38825, Note_on_c, 0, 67, 0
2,38948, Note_on_c, 0, 48, 0
2,38958, Note_on_c, 0, 50, 74
2,38969, Note_on_c, 0, 71, 75
2,38981, Note_on_c, 0, 64, 0
2,39127, Note_on_c, 0, 50, 0
2,39128, Note_on_c, 0, 69, 78
2,39133, Note_on_c, 0, 48, 56
2,39137, Note_on_c, 0, 54, 64
2,39213, Note_on_c, 0, 71, 0
2,39247, Note_on_c, 0, 48, 0
2,39278, Note_on_c, 0, 47, 55
2,39282, Note_on_c, 0, 67, 66
2,39292, Note_on_c, 0, 69, 0
2,39394, Note_on_c, 0, 47, 0
2,39416, Note_on_c, 0, 45, 58
2,39447, Note_on_c, 0, 66, 66
2,39459, Note_on_c, 0, 67, 0
2,39499, Note_on_c, 0, 54, 0
2,39532, Note_on_c, 0, 45, 0
2,39548, Note_on_c, 0, 48, 60
2,39569, Note_on_c, 0, 66, 0
2,39584, Note_on_c, 0, 64, 62
2,39704, Note_on_c, 0, 48, 0
2,39739, Note_on_c, 0, 64, 0
2,39747, Note_on_c, 0, 47, 55
2,39751, Note_on_c, 0, 62, 64
2,39762, Note_on_c, 0, 55, 50
2,39821, Note_on_c, 0, 55, 0
2,39852, Note_on_c, 0, 47, 0
2,39878, Note_on_c, 0, 48, 56
2,40039, Note_on_c, 0, 48, 0
2,40064, Note_on_c, 0, 55, 62
2,40065, Note_on_c, 0, 47, 55
2,40175, Note_on_c, 0, 47, 0
2,40190, Note_on_c, 0, 62, 0
2,40209, Note_on_c, 0, 57, 71
2,40211, Note_on_c, 0, 55, 0
2,40215, Note_on_c, 0, 45, 54
2,40336, Note_on_c, 0, 45, 0
2,40365, Note_on_c, 0, 59, 74
2,40369, Note_on_c, 0, 43, 55
2,40389, Note_on_c, 0, 57, 0
2,40478, Note_on_c, 0, 59, 0
2,40494, Note_on_c, 0, 43, 0
2,40498, Note_on_c, 0, 61, 63
2,40511, Note_on_c, 0, 45, 55
2,40635, Note_on_c, 0, 45, 0
2,40667, Note_on_c, 0, 47, 60
2,40672, Note_on_c, 0, 61, 0
2,40682, Note_on_c, 0, 62, 58
2,40751, Note_on_c, 0, 62, 0
2,40808, Note_on_c, 0, 47, 0
2,40812, Note_on_c, 0, 49, 70
2,40959, Note_on_c, 0, 49, 0
2,40974, Note_on_c, 0, 50, 65
2,40983, Note_on_c, 0, 59, 82
2,41119, Note_on_c, 0, 50, 0
2,41122, Note_on_c, 0, 61, 73
2,41123, Note_on_c, 0, 59, 0
2,41124, Note_on_c, 0, 52, 60
2,41257, Note_on_c, 0, 61, 0
2,41260, Note_on_c, 0, 52, 0
2,41274, Note_on_c, 0, 62, 69
2,41279, Note_on_c, 0, 54, 60
2,41380, Note_on_c, 0, 54, 0
2,41388, Note_on_c, 0, 62, 0
2,41410, Note_on_c, 0, 64, 66
2,41412, Note_on_c, 0, 55, 52
2,41542, Note_on_c, 0, 55, 0
2,41585, Note_on_c, 0, 64, 0
2,41602, Note_on_c, 0, 54, 47
2,41603, Note_on_c, 0, 66, 50
2,41603, Note_on_c, 0, 69, 59
2,41669, Note_on_c, 0, 69, 0
2,41674, Note_on_c, 0, 66, 0
2,41690, Note_on_c, 0, 54, 0
2,41913, Note_on_c, 0, 67, 69
2,41927, Note_on_c, 0, 64, 66
2,41935, Note_on_c, 0, 59, 55
2,41984, Note_on_c, 0, 59, 0
2,42054, Note_on_c, 0, 69, 79
2,42078, Note_on_c, 0, 67, 0
2,42201, Note_on_c, 0, 47, 57
2,42204, Note_on_c, 0, 71, 73
2,42224, Note_on_c, 0, 69, 0
2,42229, Note_on_c, 0, 63, 64
2,42248, Note_on_c, 0, 47, 0
2,42249, Note_on_c, 0, 64, 0
2,42351, Note_on_c, 0, 71, 0
2,42362, Note_on_c, 0, 69, 64
2,42534, Note_on_c, 0, 52, 51
2,42543, Note_on_c, 0, 64, 46
2,42547, Note_on_c, 0, 67, 57
2,42594, Note_on_c, 0, 63, 0
2,42604, Note_on_c, 0, 69, 0
2,42630, Note_on_c, 0, 64, 0
2,42648, Note_on_c, 0, 67, 0
2,42689, Note_on_c, 0, 52, 0
2,42864, Note_on_c, 0, 66, 74
2,42870, Note_on_c, 0, 57, 54
2,42881, Note_on_c, 0, 62, 64
2,42928, Note_on_c, 0, 57, 0
2,43000, Note_on_c, 0, 67, 70
2,43007, Note_on_c, 0, 66, 0
2,43076, Note_on_c, 0, 62, 0
2,43159, Note_on_c, 0, 69, 70
2,43162, Note_on_c, 0, 45, 56
2,43169, Note_on_c, 0, 67, 0
2,43177, Note_on_c, 0, 61, 49
2,43205, Note_on_c, 0, 45, 0
2,43220, Note_on_c, 0, 61, 0
2,43281, Note_on_c, 0, 69, 0
2,43299, Note_on_c, 0, 67, 60
2,43456, Note_on_c, 0, 66, 64
2,43457, Note_on_c, 0, 62, 53
2,43461, Note_on_c, 0, 67, 0
2,43465, Note_on_c, 0, 50, 58
2,43501, Note_on_c, 0, 62, 0
2,43507, Note_on_c, 0, 50, 0
2,43507, Note_on_c, 0, 66, 0
2,43772, Note_on_c, 0, 52, 46
2,43775, Note_on_c, 0, 67, 67
2,43779, Note_on_c, 0, 61, 60
2,43817, Note_on_c, 0, 67, 0
2,43873, Note_on_c, 0, 52, 0
2,43924, Note_on_c, 0, 59, 73
2,43968, Note_on_c, 0, 61, 0
2,44035, Note_on_c, 0, 59, 0
2,44061, Note_on_c, 0, 54, 65
2,44067, Note_on_c, 0, 69, 85
2,44087, Note_on_c, 0, 57, 51
2,44111, Note_on_c, 0, 69, 0
2,44193, Note_on_c, 0, 57, 0
2,44216, Note_on_c, 0, 60, 68
2,44347, Note_on_c, 0, 60, 0
2,44365, Note_on_c, 0, 59, 70
2,44371, Note_on_c, 0, 74, 86
2,44377, Note_on_c, 0, 55, 59
2,44409, Note_on_c, 0, 54, 0
2,44415, Note_on_c, 0, 74, 0
2,44502, Note_on_c, 0, 59, 0
2,44507, Note_on_c, 0, 60, 64
2,44603, Note_on_c, 0, 60, 0
2,44656, Note_on_c, 0, 59, 68
2,44665, Note_on_c, 0, 64, 64
2,44706, Note_on_c, 0, 59, 0
2,44707, Note_on_c, 0, 64, 0
2,44711, Note_on_c, 0, 55, 0
2,44714, Note_on_c, 0, 66, 71
2,44756, Note_on_c, 0, 66, 0
2,44761, Note_on_c, 0, 64, 67
2,44765, Note_on_c, 0, 57, 71
2,44803, Note_on_c, 0, 66, 69
2,44809, Note_on_c, 0, 64, 0
2,44882, Note_on_c, 0, 57, 0
2,44895, Note_on_c, 0, 49, 60
2,44896, Note_on_c, 0, 64, 82
2,44902, Note_on_c, 0, 55, 63
2,44915, Note_on_c, 0, 66, 0
2,45002, Note_on_c, 0, 55, 0
2,45047, Note_on_c, 0, 59, 71
2,45068, Note_on_c, 0, 49, 0
2,45193, Note_on_c, 0, 59, 0
2,45217, Note_on_c, 0, 57, 60
2,45217, Note_on_c, 0, 66, 81
2,45224, Note_on_c, 0, 50, 53
2,45227, Note_on_c, 0, 64, 0
2,45252, Note_on_c, 0, 66, 0
2,45337, Note_on_c, 0, 57, 0
2,45366, Note_on_c, 0, 59, 64
2,45497, Note_on_c, 0, 59, 0
2,45521, Note_on_c, 0, 67, 80
2,45522, Note_on_c, 0, 57, 61
2,45563, Note_on_c, 0, 67, 0
2,45644, Note_on_c, 0, 57, 0
2,45664, Note_on_c, 0, 55, 65
2,45793, Note_on_c, 0, 55, 0
2,45823, Note_on_c, 0, 54, 64
2,45827, Note_on_c, 0, 69, 86
2,45857, Note_on_c, 0, 69, 0
2,45920, Note_on_c, 0, 54, 0
2,45950, Note_on_c, 0, 57, 68
2,46105, Note_on_c, 0, 57, 0
2,46127, Note_on_c, 0, 55, 63
2,46133, Note_on_c, 0, 71, 82
2,46164, Note_on_c, 0, 71, 0
2,46264, Note_on_c, 0, 55, 0
2,46266, Note_on_c, 0, 57, 61
2,46386, Note_on_c, 0, 57, 0
2,46423, Note_on_c, 0, 55, 62
2,46426, Note_on_c, 0, 61, 71
2,46465, Note_on_c, 0, 50, 0
2,46470, Note_on_c, 0, 61, 0
2,46502, Note_on_c, 0, 62, 68
2,46549, Note_on_c, 0, 54, 56
2,46554, Note_on_c, 0, 62, 0
2,46567, Note_on_c, 0, 55, 0
2,46567, Note_on_c, 0, 61, 66
2,46609, Note_on_c, 0, 61, 0
2,46613, Note_on_c, 0, 62, 62
2,46645, Note_on_c, 0, 54, 0
2,46655, Note_on_c, 0, 52, 58
2,46687, Note_on_c, 0, 61, 71
2,46688, Note_on_c, 0, 62, 0
2,46766, Note_on_c, 0, 52, 0
2,46817, Note_on_c, 0, 55, 60
2,46969, Note_on_c, 0, 55, 0
2,46993, Note_on_c, 0, 62, 68
2,47001, Note_on_c, 0, 54, 55
2,47008, Note_on_c, 0, 61, 0
2,47028, Note_on_c, 0, 62, 0
2,47113, Note_on_c, 0, 54, 0
2,47135, Note_on_c, 0, 55, 57
2,47291, Note_on_c, 0, 55, 0
2,47299, Note_on_c, 0, 62, 55
2,47310, Note_on_c, 0, 54, 56
2,47424, Note_on_c, 0, 54, 0
2,47439, Note_on_c, 0, 64, 67
2,47446, Note_on_c, 0, 52, 55
2,47460, Note_on_c, 0, 62, 0
2,47571, Note_on_c, 0, 52, 0
2,47594, Note_on_c, 0, 66, 62
2,47597, Note_on_c, 0, 64, 0
2,47612, Note_on_c, 0, 50, 52
2,47725, Note_on_c, 0, 66, 0
2,47739, Note_on_c, 0, 50, 0
2,47740, Note_on_c, 0, 67, 59
2,47742, Note_on_c, 0, 52, 53
2,47912, Note_on_c, 0, 67, 0
2,47913, Note_on_c, 0, 69, 57
2,47915, Note_on_c, 0, 54, 64
2,47920, Note_on_c, 0, 52, 0
2,47954, Note_on_c, 0, 69, 0
2,48047, Note_on_c, 0, 55, 66
2,48051, Note_on_c, 0, 54, 0
2,48205, Note_on_c, 0, 57, 69
2,48207, Note_on_c, 0, 66, 77
2,48209, Note_on_c, 0, 55, 0
2,48340, Note_on_c, 0, 67, 80
2,48349, Note_on_c, 0, 59, 77
2,48359, Note_on_c, 0, 66, 0
2,48360, Note_on_c, 0, 57, 0
2,48491, Note_on_c, 0, 59, 0
2,48494, Note_on_c, 0, 60, 78
2,48495, Note_on_c, 0, 69, 88
2,48546, Note_on_c, 0, 67, 0
2,48596, Note_on_c, 0, 60, 0
2,48626, Note_on_c, 0, 71, 90
2,48632, Note_on_c, 0, 62, 73
2,48695, Note_on_c, 0, 69, 0
2,48794, Note_on_c, 0, 72, 88
2,48803, Note_on_c, 0, 54, 75
2,48805, Note_on_c, 0, 50, 76
2,48818, Note_on_c, 0, 71, 0
2,48823, Note_on_c, 0, 62, 0
2,48874, Note_on_c, 0, 54, 0
2,48880, Note_on_c, 0, 50, 0
2,49114, Note_on_c, 0, 48, 81
2,49129, Note_on_c, 0, 69, 75
2,49241, Note_on_c, 0, 50, 84
2,49271, Note_on_c, 0, 48, 0
2,49406, Note_on_c, 0, 52, 80
2,49420, Note_on_c, 0, 71, 73
2,49425, Note_on_c, 0, 67, 67
2,49440, Note_on_c, 0, 50, 0
2,49486, Note_on_c, 0, 69, 0
2,49493, Note_on_c, 0, 72, 0
2,49558, Note_on_c, 0, 50, 89
2,49594, Note_on_c, 0, 71, 0
2,49596, Note_on_c, 0, 52, 0
2,49718, Note_on_c, 0, 48, 81
2,49731, Note_on_c, 0, 50, 0
2,49735, Note_on_c, 0, 69, 75
2,49757, Note_on_c, 0, 67, 0
2,49800, Note_on_c, 0, 48, 0
2,50049, Note_on_c, 0, 47, 61
2,50064, Note_on_c, 0, 67, 57
2,50158, Note_on_c, 0, 47, 0
2,50184, Note_on_c, 0, 69, 0
2,50191, Note_on_c, 0, 48, 58
2,50354, Note_on_c, 0, 48, 0
2,50371, Note_on_c, 0, 50, 57
2,50374, Note_on_c, 0, 67, 0
2,50378, Note_on_c, 0, 66, 55
2,50470, Note_on_c, 0, 50, 0
2,50505, Note_on_c, 0, 48, 57
2,50576, Note_on_c, 0, 48, 0
2,50613, Note_on_c, 0, 66, 0
2,50664, Note_on_c, 0, 47, 57
2,50681, Note_on_c, 0, 67, 51
2,50712, Note_on_c, 0, 47, 0
2,50785, Note_on_c, 0, 67, 0
2,50814, Note_on_c, 0, 79, 55
2,50968, Note_on_c, 0, 79, 0
2,50979, Note_on_c, 0, 48, 62
2,50989, Note_on_c, 0, 78, 56
2,51027, Note_on_c, 0, 48, 0
2,51127, Note_on_c, 0, 78, 0
2,51134, Note_on_c, 0, 76, 55
2,51267, Note_on_c, 0, 76, 0
2,51275, Note_on_c, 0, 50, 78
2,51298, Note_on_c, 0, 74, 54
2,51321, Note_on_c, 0, 50, 0
2,51442, Note_on_c, 0, 78, 59
2,51451, Note_on_c, 0, 74, 0
2,51595, Note_on_c, 0, 55, 82
2,51606, Note_on_c, 0, 78, 0
2,51609, Note_on_c, 0, 76, 61
2,51631, Note_on_c, 0, 55, 0
2,51739, Note_on_c, 0, 76, 0
2,51754, Note_on_c, 0, 78, 67
2,51923, Note_on_c, 0, 76, 55
2,51927, Note_on_c, 0, 45, 76
2,52054, Note_on_c, 0, 78, 0
2,52074, Note_on_c, 0, 74, 61
2,52084, Note_on_c, 0, 76, 0
2,52214, Note_on_c, 0, 74, 0
2,52230, Note_on_c, 0, 72, 59
2,52344, Note_on_c, 0, 72, 0
2,52367, Note_on_c, 0, 76, 55
2,52538, Note_on_c, 0, 47, 81
2,52552, Note_on_c, 0, 74, 58
2,52555, Note_on_c, 0, 76, 0
2,52586, Note_on_c, 0, 45, 0
2,52630, Note_on_c, 0, 47, 0
2,52683, Note_on_c, 0, 74, 0
2,52706, Note_on_c, 0, 76, 59
2,52862, Note_on_c, 0, 48, 82
2,52870, Note_on_c, 0, 74, 49
2,52903, Note_on_c, 0, 76, 0
2,52938, Note_on_c, 0, 48, 0
2,53017, Note_on_c, 0, 72, 62
2,53032, Note_on_c, 0, 74, 0
2,53170, Note_on_c, 0, 50, 83
2,53180, Note_on_c, 0, 72, 0
2,53186, Note_on_c, 0, 71, 59
2,53243, Note_on_c, 0, 50, 0
2,53328, Note_on_c, 0, 71, 0
2,53339, Note_on_c, 0, 74, 51
2,53495, Note_on_c, 0, 52, 69
2,53496, Note_on_c, 0, 74, 0
2,53509, Note_on_c, 0, 72, 55
2,53538, Note_on_c, 0, 52, 0
2,53618, Note_on_c, 0, 72, 0
2,53659, Note_on_c, 0, 74, 49
2,53791, Note_on_c, 0, 42, 56
2,53800, Note_on_c, 0, 72, 46
2,53843, Note_on_c, 0, 74, 0
2,53953, Note_on_c, 0, 71, 57
2,53985, Note_on_c, 0, 72, 0
2,54110, Note_on_c, 0, 71, 0
2,54111, Note_on_c, 0, 69, 58
2,54236, Note_on_c, 0, 42, 0
2,54251, Note_on_c, 0, 69, 0
2,54260, Note_on_c, 0, 72, 59
2,54393, Note_on_c, 0, 43, 53
2,54403, Note_on_c, 0, 71, 59
2,54443, Note_on_c, 0, 72, 0
2,54515, Note_on_c, 0, 43, 0
2,54530, Note_on_c, 0, 45, 63
2,54542, Note_on_c, 0, 69, 63
2,54600, Note_on_c, 0, 45, 0
2,54606, Note_on_c, 0, 71, 0
2,54703, Note_on_c, 0, 69, 0
2,54704, Note_on_c, 0, 47, 69
2,54709, Note_on_c, 0, 67, 59
2,54822, Note_on_c, 0, 67, 0
2,54857, Note_on_c, 0, 71, 59
2,55011, Note_on_c, 0, 71, 0
2,55020, Note_on_c, 0, 66, 59
2,55031, Note_on_c, 0, 62, 50
2,55109, Note_on_c, 0, 62, 0
2,55141, Note_on_c, 0, 66, 0
2,55161, Note_on_c, 0, 71, 68
2,55306, Note_on_c, 0, 71, 0
2,55324, Note_on_c, 0, 64, 66
2,55332, Note_on_c, 0, 61, 64
2,55436, Note_on_c, 0, 61, 0
2,55451, Note_on_c, 0, 47, 0
2,55458, Note_on_c, 0, 71, 67
2,55470, Note_on_c, 0, 45, 66
2,55487, Note_on_c, 0, 64, 0
2,55611, Note_on_c, 0, 71, 0
2,55617, Note_on_c, 0, 62, 74
2,55620, Note_on_c, 0, 43, 73
2,55646, Note_on_c, 0, 45, 0
2,55735, Note_on_c, 0, 42, 73
2,55753, Note_on_c, 0, 43, 0
2,55754, Note_on_c, 0, 71, 69
2,55765, Note_on_c, 0, 62, 0
2,55888, Note_on_c, 0, 42, 0
2,55903, Note_on_c, 0, 40, 71
2,55917, Note_on_c, 0, 61, 71
2,55922, Note_on_c, 0, 71, 0
2,56025, Note_on_c, 0, 61, 0
2,56030, Note_on_c, 0, 40, 0
2,56043, Note_on_c, 0, 43, 77
2,56062, Note_on_c, 0, 71, 70
2,56126, Note_on_c, 0, 43, 0
2,56220, Note_on_c, 0, 42, 78
2,56225, Note_on_c, 0, 69, 68
2,56339, Note_on_c, 0, 71, 0
2,56362, Note_on_c, 0, 43, 81
2,56367, Note_on_c, 0, 67, 67
2,56371, Note_on_c, 0, 42, 0
2,56495, Note_on_c, 0, 69, 0
2,56513, Note_on_c, 0, 45, 78
2,56529, Note_on_c, 0, 66, 72
2,56539, Note_on_c, 0, 43, 0
2,56564, Note_on_c, 0, 67, 0
2,56654, Note_on_c, 0, 66, 0
2,56665, Note_on_c, 0, 69, 69
2,56818, Note_on_c, 0, 69, 0
2,56832, Note_on_c, 0, 61, 68
2,56832, Note_on_c, 0, 64, 68
2,56932, Note_on_c, 0, 61, 0
2,56941, Note_on_c, 0, 64, 0
2,56968, Note_on_c, 0, 69, 67
2,57106, Note_on_c, 0, 69, 0
2,57132, Note_on_c, 0, 62, 68
2,57138, Note_on_c, 0, 59, 67
2,57208, Note_on_c, 0, 59, 0
2,57222, Note_on_c, 0, 45, 0
2,57261, Note_on_c, 0, 62, 0
2,57266, Note_on_c, 0, 69, 64
2,57269, Note_on_c, 0, 43, 59
2,57407, Note_on_c, 0, 43, 0
2,57416, Note_on_c, 0, 69, 0
2,57427, Note_on_c, 0, 42, 63
2,57438, Note_on_c, 0, 61, 68
2,57532, Note_on_c, 0, 42, 0
2,57542, Note_on_c, 0, 61, 0
2,57562, Note_on_c, 0, 40, 60
2,57575, Note_on_c, 0, 69, 59
2,57676, Note_on_c, 0, 40, 0
2,57715, Note_on_c, 0, 69, 0
2,57732, Note_on_c, 0, 38, 61
2,57747, Note_on_c, 0, 59, 64
2,57838, Note_on_c, 0, 59, 0
2,57860, Note_on_c, 0, 38, 0
2,57879, Note_on_c, 0, 69, 58
2,57891, Note_on_c, 0, 42, 61
2,57959, Note_on_c, 0, 42, 0
2,58036, Note_on_c, 0, 69, 0
2,58048, Note_on_c, 0, 67, 58
2,58067, Note_on_c, 0, 40, 59
2,58173, Note_on_c, 0, 67, 0
2,58198, Note_on_c, 0, 66, 57
2,58201, Note_on_c, 0, 42, 69
2,58206, Note_on_c, 0, 40, 0
2,58340, Note_on_c, 0, 42, 0
2,58345, Note_on_c, 0, 43, 68
2,58356, Note_on_c, 0, 66, 0
2,58357, Note_on_c, 0, 64, 61
2,58465, Note_on_c, 0, 64, 0
2,58500, Note_on_c, 0, 67, 52
2,58634, Note_on_c, 0, 67, 0
2,58669, Note_on_c, 0, 62, 51
2,58674, Note_on_c, 0, 59, 52
2,58729, Note_on_c, 0, 59, 0
2,58750, Note_on_c, 0, 62, 0
2,58798, Note_on_c, 0, 67, 48
2,58928, Note_on_c, 0, 67, 0
2,58959, Note_on_c, 0, 61, 58
2,59081, Note_on_c, 0, 61, 0
2,59082, Note_on_c, 0, 43, 0
2,59094, Note_on_c, 0, 67, 49
2,59099, Note_on_c, 0, 42, 57
2,59220, Note_on_c, 0, 67, 0
2,59231, Note_on_c, 0, 42, 0
2,59257, Note_on_c, 0, 59, 63
2,59259, Note_on_c, 0, 40, 55
2,59333, Note_on_c, 0, 40, 0
2,59355, Note_on_c, 0, 59, 0
2,59383, Note_on_c, 0, 38, 59
2,59390, Note_on_c, 0, 67, 49
2,59497, Note_on_c, 0, 38, 0
2,59509, Note_on_c, 0, 67, 0
2,59531, Note_on_c, 0, 37, 59
2,59554, Note_on_c, 0, 57, 59
2,59627, Note_on_c, 0, 57, 0
2,59677, Note_on_c, 0, 67, 51
2,59695, Note_on_c, 0, 40, 55
2,59699, Note_on_c, 0, 37, 0
2,59779, Note_on_c, 0, 67, 0
2,59792, Note_on_c, 0, 40, 0
2,59844, Note_on_c, 0, 66, 56
2,59855, Note_on_c, 0, 38, 61
2,59878, Note_on_c, 0, 66, 0
2,59953, Note_on_c, 0, 38, 0
2,59992, Note_on_c, 0, 74, 59
2,59993, Note_on_c, 0, 40, 55
2,60110, Note_on_c, 0, 40, 0
2,60112, Note_on_c, 0, 74, 0
2,60138, Note_on_c, 0, 72, 64
2,60142, Note_on_c, 0, 42, 60
2,60257, Note_on_c, 0, 42, 0
2,60281, Note_on_c, 0, 71, 72
2,60287, Note_on_c, 0, 72, 0
2,60290, Note_on_c, 0, 38, 58
2,60418, Note_on_c, 0, 38, 0
2,60442, Note_on_c, 0, 43, 59
2,60444, Note_on_c, 0, 69, 73
2,60480, Note_on_c, 0, 71, 0
2,60568, Note_on_c, 0, 69, 0
2,60574, Note_on_c, 0, 43, 0
2,60575, Note_on_c, 0, 67, 69
2,60584, Note_on_c, 0, 38, 64
2,60719, Note_on_c, 0, 38, 0
2,60727, Note_on_c, 0, 66, 76
2,60741, Note_on_c, 0, 45, 59
2,60760, Note_on_c, 0, 67, 0
2,60875, Note_on_c, 0, 64, 78
2,60876, Note_on_c, 0, 45, 0
2,60881, Note_on_c, 0, 38, 65
2,60941, Note_on_c, 0, 66, 0
2,61013, Note_on_c, 0, 38, 0
2,61027, Note_on_c, 0, 47, 58
2,61033, Note_on_c, 0, 62, 71
2,61074, Note_on_c, 0, 64, 0
2,61154, Note_on_c, 0, 62, 0
2,61155, Note_on_c, 0, 47, 0
2,61173, Note_on_c, 0, 60, 65
2,61180, Note_on_c, 0, 38, 59
2,61305, Note_on_c, 0, 60, 0
2,61312, Note_on_c, 0, 38, 0
2,61323, Note_on_c, 0, 59, 62
2,61338, Note_on_c, 0, 48, 53
2,61427, Note_on_c, 0, 59, 0
2,61454, Note_on_c, 0, 57, 57
2,61465, Note_on_c, 0, 48, 0
2,61498, Note_on_c, 0, 38, 34
2,61555, Note_on_c, 0, 38, 0
2,61572, Note_on_c, 0, 57, 0
2,61590, Note_on_c, 0, 47, 67
2,61615, Note_on_c, 0, 55, 50
2,61640, Note_on_c, 0, 47, 0
2,61658, Note_on_c, 0, 55, 0
2,61742, Note_on_c, 0, 57, 56
2,61752, Note_on_c, 0, 55, 73
2,61890, Note_on_c, 0, 53, 76
2,61894, Note_on_c, 0, 55, 0
2,61902, Note_on_c, 0, 57, 0
2,61907, Note_on_c, 0, 59, 62
2,62012, Note_on_c, 0, 59, 0
2,62037, Note_on_c, 0, 52, 80
2,62053, Note_on_c, 0, 53, 0
2,62053, Note_on_c, 0, 55, 65
2,62176, Note_on_c, 0, 50, 75
2,62185, Note_on_c, 0, 52, 0
2,62203, Note_on_c, 0, 60, 71
2,62210, Note_on_c, 0, 55, 0
2,62269, Note_on_c, 0, 60, 0
2,62304, Note_on_c, 0, 50, 0
2,62311, Note_on_c, 0, 48, 79
2,62339, Note_on_c, 0, 55, 62
2,62476, Note_on_c, 0, 47, 81
2,62481, Note_on_c, 0, 48, 0
2,62485, Note_on_c, 0, 55, 0
2,62491, Note_on_c, 0, 62, 70
2,62572, Note_on_c, 0, 62, 0
2,62625, Note_on_c, 0, 45, 75
2,62629, Note_on_c, 0, 55, 68
2,62638, Note_on_c, 0, 47, 0
2,62765, Note_on_c, 0, 45, 0
2,62776, Note_on_c, 0, 43, 81
2,62782, Note_on_c, 0, 64, 74
2,62787, Note_on_c, 0, 55, 0
2,62861, Note_on_c, 0, 64, 0
2,62919, Note_on_c, 0, 41, 78
2,62919, Note_on_c, 0, 43, 0
2,62928, Note_on_c, 0, 55, 69
2,63045, Note_on_c, 0, 41, 0
2,63056, Note_on_c, 0, 55, 0
2,63061, Note_on_c, 0, 40, 76
2,63070, Note_on_c, 0, 65, 65
2,63166, Note_on_c, 0, 65, 0
2,63182, Note_on_c, 0, 40, 0
2,63186, Note_on_c, 0, 38, 77
2,63208, Note_on_c, 0, 55, 66
2,63266, Note_on_c, 0, 55, 0
2,63332, Note_on_c, 0, 38, 0
2,63347, Note_on_c, 0, 64, 64
2,63353, Note_on_c, 0, 36, 77
2,63380, Note_on_c, 0, 64, 0
2,63496, Note_on_c, 0, 38, 78
2,63503, Note_on_c, 0, 72, 66
2,63509, Note_on_c, 0, 36, 0
2,63629, Note_on_c, 0, 72, 0
2,63643, Note_on_c, 0, 38, 0
2,63646, Note_on_c, 0, 40, 76
2,63649, Note_on_c, 0, 71, 71
2,63790, Note_on_c, 0, 42, 76
2,63790, Note_on_c, 0, 71, 0
2,63791, Note_on_c, 0, 74, 66
2,63812, Note_on_c, 0, 40, 0
2,63939, Note_on_c, 0, 69, 73
2,63945, Note_on_c, 0, 44, 83
2,63951, Note_on_c, 0, 74, 0
2,63964, Note_on_c, 0, 42, 0
2,64095, Note_on_c, 0, 74, 67
2,64096, Note_on_c, 0, 45, 81
2,64097, Note_on_c, 0, 69, 0
2,64116, Note_on_c, 0, 44, 0
2,64244, Note_on_c, 0, 47, 82
2,64265, Note_on_c, 0, 45, 0
2,64265, Note_on_c, 0, 68, 73
2,64274, Note_on_c, 0, 74, 0
2,64391, Note_on_c, 0, 48, 82
2,64393, Note_on_c, 0, 68, 0
2,64421, Note_on_c, 0, 74, 64
2,64423, Note_on_c, 0, 47, 0
2,64543, Note_on_c, 0, 50, 81
2,64552, Note_on_c, 0, 74, 0
2,64561, Note_on_c, 0, 66, 73
2,64574, Note_on_c, 0, 48, 0
2,64682, Note_on_c, 0, 50, 0
2,64689, Note_on_c, 0, 52, 78
2,64693, Note_on_c, 0, 66, 0
2,64703, Note_on_c, 0, 74, 63
2,64836, Note_on_c, 0, 74, 0
2,64846, Note_on_c, 0, 54, 70
2,64849, Note_on_c, 0, 52, 0
2,64866, Note_on_c, 0, 64, 61
2,64953, Note_on_c, 0, 64, 0
2,64991, Note_on_c, 0, 54, 0
2,64991, Note_on_c, 0, 74, 56
2,64998, Note_on_c, 0, 56, 70
2,65113, Note_on_c, 0, 74, 0
2,65131, Note_on_c, 0, 56, 0
2,65145, Note_on_c, 0, 57, 64
2,65152, Note_on_c, 0, 72, 63
2,65205, Note_on_c, 0, 72, 0
2,65287, Note_on_c, 0, 55, 61
2,65288, Note_on_c, 0, 69, 67
2,65344, Note_on_c, 0, 57, 0
2,65353, Note_on_c, 0, 69, 0
2,65432, Note_on_c, 0, 71, 74
2,65445, Note_on_c, 0, 54, 66
2,65478, Note_on_c, 0, 55, 0
2,65577, Note_on_c, 0, 73, 82
2,65585, Note_on_c, 0, 57, 67
2,65618, Note_on_c, 0, 71, 0
2,65671, Note_on_c, 0, 54, 0
2,65735, Note_on_c, 0, 52, 69
2,65736, Note_on_c, 0, 75, 85
2,65752, Note_on_c, 0, 57, 0
2,65777, Note_on_c, 0, 73, 0
2,65850, Note_on_c, 0, 75, 0
2,65858, Note_on_c, 0, 76, 84
2,65867, Note_on_c, 0, 57, 72
2,65974, Note_on_c, 0, 52, 0
2,66009, Note_on_c, 0, 51, 65
2,66011, Note_on_c, 0, 78, 85
2,66037, Note_on_c, 0, 76, 0
2,66043, Note_on_c, 0, 57, 0
2,66149, Note_on_c, 0, 79, 91
2,66175, Note_on_c, 0, 57, 68
2,66188, Note_on_c, 0, 78, 0
2,66241, Note_on_c, 0, 51, 0
2,66298, Note_on_c, 0, 81, 92
2,66303, Note_on_c, 0, 49, 65
2,66339, Note_on_c, 0, 79, 0
2,66346, Note_on_c, 0, 57, 0
2,66437, Note_on_c, 0, 83, 85
2,66461, Note_on_c, 0, 81, 0
2,66465, Note_on_c, 0, 57, 63
2,66477, Note_on_c, 0, 49, 0
2,66591, Note_on_c, 0, 84, 79
2,66599, Note_on_c, 0, 83, 0
2,66608, Note_on_c, 0, 47, 61
2,66612, Note_on_c, 0, 57, 0
2,66699, Note_on_c, 0, 47, 0
2,66737, Note_on_c, 0, 84, 0
2,66742, Note_on_c, 0, 75, 65
2,66763, Note_on_c, 0, 57, 54
2,66824, Note_on_c, 0, 57, 0
2,66908, Note_on_c, 0, 75, 0
2,66913, Note_on_c, 0, 76, 63
2,66929, Note_on_c, 0, 55, 52
2,66975, Note_on_c, 0, 55, 0
2,66986, Note_on_c, 0, 76, 0
2,67231, Note_on_c, 0, 78, 60
2,67232, Note_on_c, 0, 60, 48
2,67285, Note_on_c, 0, 60, 0
2,67363, Note_on_c, 0, 76, 76
2,67403, Note_on_c, 0, 78, 0
2,67514, Note_on_c, 0, 75, 78
2,67520, Note_on_c, 0, 59, 57
2,67534, Note_on_c, 0, 76, 0
2,67572, Note_on_c, 0, 59, 0
2,67620, Note_on_c, 0, 75, 0
2,67644, Note_on_c, 0, 76, 74
2,67817, Note_on_c, 0, 78, 63
2,67822, Note_on_c, 0, 57, 48
2,67822, Note_on_c, 0, 76, 0
2,67857, Note_on_c, 0, 78, 0
2,67868, Note_on_c, 0, 57, 0
2,68134, Note_on_c, 0, 79, 70
2,68135, Note_on_c, 0, 59, 53
2,68183, Note_on_c, 0, 59, 0
2,68273, Note_on_c, 0, 78, 77
2,68343, Note_on_c, 0, 79, 0
2,68417, Note_on_c, 0, 76, 79
2,68420, Note_on_c, 0, 47, 53
2,68438, Note_on_c, 0, 78, 0
2,68477, Note_on_c, 0, 47, 0
2,68553, Note_on_c, 0, 78, 80
2,68589, Note_on_c, 0, 76, 0
2,68713, Note_on_c, 0, 79, 79
2,68730, Note_on_c, 0, 78, 0
2,68731, Note_on_c, 0, 52, 55
2,68752, Note_on_c, 0, 79, 0
2,68870, Note_on_c, 0, 52, 0
2,68881, Note_on_c, 0, 54, 58
2,69018, Note_on_c, 0, 54, 0
2,69028, Note_on_c, 0, 78, 73
2,69036, Note_on_c, 0, 55, 61
2,69067, Note_on_c, 0, 78, 0
2,69115, Note_on_c, 0, 55, 0
2,69157, Note_on_c, 0, 52, 58
2,69316, Note_on_c, 0, 52, 0
2,69319, Note_on_c, 0, 76, 82
2,69335, Note_on_c, 0, 57, 53
2,69365, Note_on_c, 0, 76, 0
2,69460, Note_on_c, 0, 57, 0
2,69463, Note_on_c, 0, 52, 61
2,69610, Note_on_c, 0, 52, 0
2,69619, Note_on_c, 0, 71, 82
2,69632, Note_on_c, 0, 59, 66
2,69656, Note_on_c, 0, 71, 0
2,69700, Note_on_c, 0, 59, 0
2,69750, Note_on_c, 0, 52, 64
2,69922, Note_on_c, 0, 81, 89
2,69923, Note_on_c, 0, 52, 0
2,69929, Note_on_c, 0, 61, 63
2,70069, Note_on_c, 0, 52, 65
2,70074, Note_on_c, 0, 61, 0
2,70200, Note_on_c, 0, 52, 0
2,70228, Note_on_c, 0, 63, 67
2,70326, Note_on_c, 0, 63, 0
2,70360, Note_on_c, 0, 52, 60
2,70463, Note_on_c, 0, 52, 0
2,70532, Note_on_c, 0, 79, 77
2,70536, Note_on_c, 0, 64, 64
2,70548, Note_on_c, 0, 81, 0
2,70575, Note_on_c, 0, 79, 0
2,70618, Note_on_c, 0, 64, 0
2,70667, Note_on_c, 0, 63, 64
2,70820, Note_on_c, 0, 64, 72
2,70829, Note_on_c, 0, 78, 83
2,70840, Note_on_c, 0, 63, 0
2,70887, Note_on_c, 0, 78, 0
2,70950, Note_on_c, 0, 66, 73
2,70978, Note_on_c, 0, 64, 0
2,71119, Note_on_c, 0, 67, 71
2,71127, Note_on_c, 0, 76, 83
2,71152, Note_on_c, 0, 66, 0
2,71186, Note_on_c, 0, 76, 0
2,71250, Note_on_c, 0, 67, 0
2,71255, Note_on_c, 0, 64, 74
2,71426, Note_on_c, 0, 75, 89
2,71429, Note_on_c, 0, 64, 0
2,71431, Note_on_c, 0, 66, 70
2,71461, Note_on_c, 0, 75, 0
2,71576, Note_on_c, 0, 64, 69
2,71580, Note_on_c, 0, 66, 0
2,71729, Note_on_c, 0, 84, 92
2,71737, Note_on_c, 0, 66, 70
2,71747, Note_on_c, 0, 64, 0
2,71881, Note_on_c, 0, 67, 71
2,71897, Note_on_c, 0, 66, 0
2,72037, Note_on_c, 0, 69, 70
2,72061, Note_on_c, 0, 67, 0
2,72175, Note_on_c, 0, 66, 74
2,72191, Note_on_c, 0, 69, 0
2,72345, Note_on_c, 0, 67, 74
2,72346, Note_on_c, 0, 83, 81
2,72361, Note_on_c, 0, 66, 0
2,72371, Note_on_c, 0, 84, 0
2,72657, Note_on_c, 0, 84, 81
2,72663, Note_on_c, 0, 69, 74
2,72677, Note_on_c, 0, 67, 0
2,72683, Note_on_c, 0, 83, 0
2,72795, Note_on_c, 0, 83, 88
2,72803, Note_on_c, 0, 67, 75
2,72819, Note_on_c, 0, 69, 0
2,72949, Note_on_c, 0, 81, 87
2,72952, Note_on_c, 0, 66, 72
2,72963, Note_on_c, 0, 84, 0
2,72989, Note_on_c, 0, 67, 0
2,73006, Note_on_c, 0, 83, 0
2,73072, Note_on_c, 0, 81, 0
2,73073, Note_on_c, 0, 64, 70
2,73074, Note_on_c, 0, 66, 0
2,73075, Note_on_c, 0, 79, 84
2,73252, Note_on_c, 0, 78, 78
2,73255, Note_on_c, 0, 69, 77
2,73288, Note_on_c, 0, 79, 0
2,73291, Note_on_c, 0, 64, 0
2,73339, Note_on_c, 0, 78, 0
2,73570, Note_on_c, 0, 81, 85
2,73717, Note_on_c, 0, 79, 84
2,73873, Note_on_c, 0, 78, 84
2,73876, Note_on_c, 0, 81, 0
2,73951, Note_on_c, 0, 79, 0
2,74004, Note_on_c, 0, 76, 81
2,74025, Note_on_c, 0, 78, 0
2,74168, Note_on_c, 0, 75, 82
2,74172, Note_on_c, 0, 76, 0
2,74199, Note_on_c, 0, 75, 0
2,74286, Note_on_c, 0, 69, 0
2,74305, Note_on_c, 0, 67, 59
2,74459, Note_on_c, 0, 67, 0
2,74463, Note_on_c, 0, 81, 75
2,74469, Note_on_c, 0, 66, 59
2,74498, Note_on_c, 0, 81, 0
2,74580, Note_on_c, 0, 66, 0
2,74611, Note_on_c, 0, 69, 58
2,74741, Note_on_c, 0, 69, 0
2,74764, Note_on_c, 0, 79, 71
2,74770, Note_on_c, 0, 64, 50
2,74799, Note_on_c, 0, 79, 0
2,74841, Note_on_c, 0, 64, 0
2,74911, Note_on_c, 0, 69, 53
2,75041, Note_on_c, 0, 69, 0
2,75069, Note_on_c, 0, 78, 69
2,75077, Note_on_c, 0, 63, 61
2,75110, Note_on_c, 0, 78, 0
2,75145, Note_on_c, 0, 63, 0
2,75198, Note_on_c, 0, 69, 63
2,75334, Note_on_c, 0, 69, 0
2,75369, Note_on_c, 0, 61, 51
2,75373, Note_on_c, 0, 76, 66
2,75411, Note_on_c, 0, 76, 0
2,75449, Note_on_c, 0, 61, 0
2,75500, Note_on_c, 0, 69, 56
2,75632, Note_on_c, 0, 69, 0
2,75658, Note_on_c, 0, 59, 51
2,75666, Note_on_c, 0, 75, 69
2,75704, Note_on_c, 0, 75, 0
2,75721, Note_on_c, 0, 59, 0
2,75796, Note_on_c, 0, 69, 50
2,75941, Note_on_c, 0, 69, 0
2,75957, Note_on_c, 0, 67, 58
2,75961, Note_on_c, 0, 76, 61
2,76120, Note_on_c, 0, 76, 0
2,76177, Note_on_c, 0, 67, 0
2,76279, Note_on_c, 0, 74, 67
2,76281, Note_on_c, 0, 66, 61
2,76330, Note_on_c, 0, 74, 0
2,76400, Note_on_c, 0, 67, 69
2,76422, Note_on_c, 0, 66, 0
2,76565, Note_on_c, 0, 72, 76
2,76566, Note_on_c, 0, 69, 71
2,76581, Note_on_c, 0, 67, 0
2,76604, Note_on_c, 0, 72, 0
2,76689, Note_on_c, 0, 67, 66
2,76693, Note_on_c, 0, 69, 0
2,76878, Note_on_c, 0, 74, 65
2,76880, Note_on_c, 0, 66, 70
2,76918, Note_on_c, 0, 67, 0
2,76966, Note_on_c, 0, 74, 0
2,77078, Note_on_c, 0, 66, 0
2,77195, Note_on_c, 0, 72, 77
2,77200, Note_on_c, 0, 64, 64
2,77234, Note_on_c, 0, 72, 0
2,77312, Note_on_c, 0, 64, 0
2,77322, Note_on_c, 0, 66, 67
2,77493, Note_on_c, 0, 66, 0
2,77494, Note_on_c, 0, 71, 65
2,77500, Note_on_c, 0, 67, 58
2,77534, Note_on_c, 0, 71, 0
2,77607, Note_on_c, 0, 67, 0
2,77634, Note_on_c, 0, 66, 63
2,77771, Note_on_c, 0, 66, 0
2,77777, Note_on_c, 0, 72, 66
2,77786, Note_on_c, 0, 64, 61
2,77830, Note_on_c, 0, 64, 0
2,77864, Note_on_c, 0, 72, 0
2,77921, Note_on_c, 0, 84, 66
2,78062, Note_on_c, 0, 66, 78
2,78082, Note_on_c, 0, 83, 70
2,78086, Note_on_c, 0, 84, 0
2,78117, Note_on_c, 0, 66, 0
2,78214, Note_on_c, 0, 81, 80
2,78254, Note_on_c, 0, 83, 0
2,78366, Note_on_c, 0, 67, 85
2,78370, Note_on_c, 0, 79, 77
2,78395, Note_on_c, 0, 81, 0
2,78413, Note_on_c, 0, 67, 0
2,78506, Note_on_c, 0, 83, 80
2,78562, Note_on_c, 0, 79, 0
2,78670, Note_on_c, 0, 72, 88
2,78675, Note_on_c, 0, 81, 79
2,78711, Note_on_c, 0, 83, 0
2,78722, Note_on_c, 0, 72, 0
2,78821, Note_on_c, 0, 83, 74
2,78828, Note_on_c, 0, 81, 0
2,78971, Note_on_c, 0, 63, 79
2,78990, Note_on_c, 0, 81, 65
2,79036, Note_on_c, 0, 83, 0
2,79118, Note_on_c, 0, 81, 0
2,79141, Note_on_c, 0, 79, 70
2,79270, Note_on_c, 0, 79, 0
2,79294, Note_on_c, 0, 78, 65
2,79429, Note_on_c, 0, 78, 0
2,79438, Note_on_c, 0, 81, 59
2,79586, Note_on_c, 0, 81, 0
2,79601, Note_on_c, 0, 64, 68
2,79607, Note_on_c, 0, 79, 58
2,79624, Note_on_c, 0, 63, 0
2,79639, Note_on_c, 0, 64, 0
2,79723, Note_on_c, 0, 79, 0
2,79747, Note_on_c, 0, 81, 59
2,79907, Note_on_c, 0, 66, 63
2,79931, Note_on_c, 0, 81, 0
2,79943, Note_on_c, 0, 79, 56
2,79952, Note_on_c, 0, 66, 0
2,80062, Note_on_c, 0, 79, 0
2,80069, Note_on_c, 0, 78, 60
2,80187, Note_on_c, 0, 78, 0
2,80202, Note_on_c, 0, 67, 52
2,80208, Note_on_c, 0, 76, 55
2,80241, Note_on_c, 0, 67, 0
2,80308, Note_on_c, 0, 76, 0
2,80340, Note_on_c, 0, 79, 56
2,80481, Note_on_c, 0, 79, 0
2,80508, Note_on_c, 0, 78, 58
2,80513, Note_on_c, 0, 69, 38
2,80550, Note_on_c, 0, 69, 0
2,80629, Note_on_c, 0, 78, 0
2,80649, Note_on_c, 0, 79, 54
2,80794, Note_on_c, 0, 59, 60
2,80800, Note_on_c, 0, 79, 0
2,80807, Note_on_c, 0, 78, 52
2,80918, Note_on_c, 0, 78, 0
2,80949, Note_on_c, 0, 76, 58
2,81098, Note_on_c, 0, 75, 64
2,81110, Note_on_c, 0, 76, 0
2,81143, Note_on_c, 0, 59, 0
2,81231, Note_on_c, 0, 78, 61
2,81248, Note_on_c, 0, 75, 0
2,81382, Note_on_c, 0, 78, 0
2,81406, Note_on_c, 0, 76, 60
2,81422, Note_on_c, 0, 60, 55
2,81512, Note_on_c, 0, 60, 0
2,81556, Note_on_c, 0, 59, 56
2,81681, Note_on_c, 0, 59, 0
2,81715, Note_on_c, 0, 57, 55
2,81721, Note_on_c, 0, 78, 69
2,81788, Note_on_c, 0, 76, 0
2,81848, Note_on_c, 0, 59, 62
2,81855, Note_on_c, 0, 79, 79
2,81918, Note_on_c, 0, 78, 0
2,82011, Note_on_c, 0, 81, 83
2,82012, Note_on_c, 0, 60, 65
2,82060, Note_on_c, 0, 79, 0
2,82091, Note_on_c, 0, 59, 0
2,82122, Note_on_c, 0, 57, 0
2,82148, Note_on_c, 0, 62, 77
2,82200, Note_on_c, 0, 60, 0
2,82302, Note_on_c, 0, 64, 81
2,82304, Note_on_c, 0, 62, 0
2,82437, Note_on_c, 0, 63, 78
2,82455, Note_on_c, 0, 64, 0
2,82544, Note_on_c, 0, 81, 0
2,82586, Note_on_c, 0, 64, 74
2,82594, Note_on_c, 0, 63, 0
2,82596, Note_on_c, 0, 79, 88
2,82738, Note_on_c, 0, 66, 76
2,82739, Note_on_c, 0, 81, 93
2,82781, Note_on_c, 0, 64, 0
2,82885, Note_on_c, 0, 83, 90
2,82886, Note_on_c, 0, 67, 80
2,82894, Note_on_c, 0, 81, 0
2,82902, Note_on_c, 0, 79, 0
2,82987, Control_c, 0, 64, 35
2,83005, Control_c, 0, 64, 50
2,83025, Control_c, 0, 64, 55
2,83035, Note_on_c, 0, 69, 91
2,83044, Control_c, 0, 64, 57
2,83064, Control_c, 0, 64, 58
2,83080, Note_on_c, 0, 67, 0
2,83082, Control_c, 0, 64, 59
2,83117, Note_on_c, 0, 66, 0
2,83121, Control_c, 0, 64, 58
2,83129, Note_on_c, 0, 69, 0
2,83141, Control_c, 0, 64, 57
2,83159, Control_c, 0, 64, 55
2,83179, Control_c, 0, 64, 51
2,83187, Note_on_c, 0, 71, 91
2,83193, Note_on_c, 0, 83, 0
2,83198, Control_c, 0, 64, 42
2,83217, Control_c, 0, 64, 0
2,83329, Note_on_c, 0, 47, 68
2,83415, Note_on_c, 0, 49, 74
2,83438, Note_on_c, 0, 47, 0
2,83486, Note_on_c, 0, 51, 81
2,83502, Note_on_c, 0, 81, 89
2,83520, Note_on_c, 0, 49, 0
2,83575, Note_on_c, 0, 81, 0
2,83625, Note_on_c, 0, 47, 79
2,83644, Note_on_c, 0, 51, 0
2,83790, Note_on_c, 0, 79, 94
2,83800, Note_on_c, 0, 52, 80
2,83818, Note_on_c, 0, 47, 0
2,83866, Note_on_c, 0, 79, 0
2,83933, Note_on_c, 0, 47, 73
2,83972, Note_on_c, 0, 52, 0
2,84099, Note_on_c, 0, 54, 81
2,84107, Note_on_c, 0, 78, 89
2,84114, Note_on_c, 0, 47, 0
2,84236, Note_on_c, 0, 79, 90
2,84237, Note_on_c, 0, 47, 76
2,84240, Note_on_c, 0, 54, 0
2,84254, Note_on_c, 0, 71, 0
2,84280, Note_on_c, 0, 78, 0
2,84392, Note_on_c, 0, 72, 81
2,84392, Note_on_c, 0, 81, 89
2,84402, Note_on_c, 0, 47, 0
2,84403, Note_on_c, 0, 55, 79
2,84417, Note_on_c, 0, 79, 0
2,84440, Note_on_c, 0, 72, 0
2,84445, Note_on_c, 0, 81, 0
2,84534, Note_on_c, 0, 47, 78
2,84556, Note_on_c, 0, 55, 0
2,84701, Note_on_c, 0, 75, 92
2,84709, Note_on_c, 0, 47, 0
2,84709, Note_on_c, 0, 66, 83
2,84719, Note_on_c, 0, 57, 69
2,84763, Note_on_c, 0, 66, 0
2,84770, Note_on_c, 0, 75, 0
2,84854, Note_on_c, 0, 47, 71
2,84926, Note_on_c, 0, 57, 0
2,85049, Note_on_c, 0, 76, 86
2,85058, Note_on_c, 0, 64, 79
2,85065, Note_on_c, 0, 55, 67
2,85127, Note_on_c, 0, 47, 0
2,85199, Note_on_c, 0, 54, 68
2,85202, Note_on_c, 0, 66, 84
2,85204, Note_on_c, 0, 64, 0
2,85280, Note_on_c, 0, 55, 0
2,85361, Note_on_c, 0, 67, 83
2,85367, Note_on_c, 0, 52, 63
2,85371, Note_on_c, 0, 54, 0
2,85401, Note_on_c, 0, 66, 0
2,85529, Note_on_c, 0, 55, 58
2,85595, Note_on_c, 0, 52, 0
2,85676, Note_on_c, 0, 71, 83
2,85681, Note_on_c, 0, 55, 0
2,85683, Note_on_c, 0, 76, 0
2,85690, Note_on_c, 0, 50, 61
2,85813, Note_on_c, 0, 50, 0
2,85841, Note_on_c, 0, 55, 60
2,86025, Note_on_c, 0, 67, 0
2,86036, Note_on_c, 0, 71, 0
2,86046, Note_on_c, 0, 55, 0
2,86052, Note_on_c, 0, 49, 55
2,86055, Note_on_c, 0, 69, 69
2,86164, Note_on_c, 0, 49, 0
2,86213, Note_on_c, 0, 55, 52
2,86224, Note_on_c, 0, 66, 51
2,86351, Note_on_c, 0, 55, 0
2,86357, Note_on_c, 0, 66, 0
2,86370, Note_on_c, 0, 47, 56
2,86385, Note_on_c, 0, 64, 52
2,86471, Note_on_c, 0, 64, 0
2,86486, Note_on_c, 0, 47, 0
2,86527, Note_on_c, 0, 62, 53
2,86530, Note_on_c, 0, 55, 52
2,86670, Note_on_c, 0, 62, 0
2,86680, Note_on_c, 0, 61, 56
2,86682, Note_on_c, 0, 55, 0
2,86690, Note_on_c, 0, 45, 48
2,86797, Note_on_c, 0, 61, 0
2,86799, Note_on_c, 0, 45, 0
2,86831, Note_on_c, 0, 64, 51
2,86846, Note_on_c, 0, 55, 51
2,86948, Note_on_c, 0, 64, 0
2,86950, Note_on_c, 0, 55, 0
2,86985, Note_on_c, 0, 62, 56
2,86996, Note_on_c, 0, 54, 50
2,87114, Note_on_c, 0, 54, 0
2,87123, Note_on_c, 0, 64, 63
2,87127, Note_on_c, 0, 52, 56
2,87222, Note_on_c, 0, 69, 0
2,87230, Note_on_c, 0, 52, 0
2,87254, Note_on_c, 0, 62, 0
2,87279, Note_on_c, 0, 50, 57
2,87280, Note_on_c, 0, 66, 65
2,87339, Note_on_c, 0, 64, 0
2,87405, Note_on_c, 0, 50, 0
2,87423, Note_on_c, 0, 54, 57
2,87561, Note_on_c, 0, 54, 0
2,87573, Note_on_c, 0, 69, 65
2,87578, Note_on_c, 0, 49, 53
2,87669, Note_on_c, 0, 49, 0
2,87727, Note_on_c, 0, 54, 53
2,87848, Note_on_c, 0, 54, 0
2,87872, Note_on_c, 0, 47, 48
2,87874, Note_on_c, 0, 67, 54
2,87880, Note_on_c, 0, 69, 0
2,87983, Note_on_c, 0, 47, 0
2,88015, Note_on_c, 0, 54, 51
2,88029, Note_on_c, 0, 64, 52
2,88069, Note_on_c, 0, 66, 0
2,88161, Note_on_c, 0, 54, 0
2,88165, Note_on_c, 0, 64, 0
2,88178, Note_on_c, 0, 45, 50
2,88197, Note_on_c, 0, 62, 55
2,88281, Note_on_c, 0, 62, 0
2,88296, Note_on_c, 0, 45, 0
2,88333, Note_on_c, 0, 54, 53
2,88336, Note_on_c, 0, 61, 56
2,88470, Note_on_c, 0, 59, 64
2,88480, Note_on_c, 0, 43, 51
2,88484, Note_on_c, 0, 54, 0
2,88498, Note_on_c, 0, 61, 0
2,88566, Note_on_c, 0, 43, 0
2,88631, Note_on_c, 0, 54, 54
2,88631, Note_on_c, 0, 59, 0
2,88635, Note_on_c, 0, 62, 58
2,88749, Note_on_c, 0, 54, 0
2,88772, Note_on_c, 0, 62, 0
2,88788, Note_on_c, 0, 61, 60
2,88801, Note_on_c, 0, 52, 54
2,88915, Note_on_c, 0, 52, 0
2,88941, Note_on_c, 0, 62, 58
2,88948, Note_on_c, 0, 50, 54
2,88960, Note_on_c, 0, 61, 0
2,89033, Note_on_c, 0, 67, 0
2,89046, Note_on_c, 0, 50, 0
2,89102, Note_on_c, 0, 49, 52
2,89110, Note_on_c, 0, 64, 61
2,89123, Note_on_c, 0, 62, 0
2,89187, Note_on_c, 0, 49, 0
2,89229, Note_on_c, 0, 52, 52
2,89370, Note_on_c, 0, 52, 0
2,89412, Note_on_c, 0, 47, 46
2,89416, Note_on_c, 0, 67, 52
2,89509, Note_on_c, 0, 47, 0
2,89548, Note_on_c, 0, 52, 48
2,89685, Note_on_c, 0, 52, 0
2,89702, Note_on_c, 0, 64, 0
2,89712, Note_on_c, 0, 67, 0
2,89715, Note_on_c, 0, 46, 54
2,89721, Note_on_c, 0, 66, 61
2,89814, Note_on_c, 0, 46, 0
2,89853, Note_on_c, 0, 52, 57
2,89861, Note_on_c, 0, 62, 65
2,89967, Note_on_c, 0, 62, 0
2,90001, Note_on_c, 0, 52, 0
2,90021, Note_on_c, 0, 61, 60
2,90023, Note_on_c, 0, 44, 52
2,90113, Note_on_c, 0, 44, 0
2,90130, Note_on_c, 0, 61, 0
2,90150, Note_on_c, 0, 59, 68
2,90152, Note_on_c, 0, 52, 57
2,90280, Note_on_c, 0, 52, 0
2,90312, Note_on_c, 0, 42, 48
2,90318, Note_on_c, 0, 58, 59
2,90320, Note_on_c, 0, 59, 0
2,90400, Note_on_c, 0, 42, 0
2,90436, Note_on_c, 0, 66, 0
2,90453, Note_on_c, 0, 61, 59
2,90455, Note_on_c, 0, 52, 48
2,90495, Note_on_c, 0, 58, 0
2,90537, Note_on_c, 0, 52, 0
2,90573, Note_on_c, 0, 61, 0
2,90622, Note_on_c, 0, 50, 57
2,90622, Note_on_c, 0, 59, 51
2,90655, Note_on_c, 0, 59, 0
2,90721, Note_on_c, 0, 50, 0
2,90759, Note_on_c, 0, 54, 60
2,90763, Note_on_c, 0, 71, 71
2,90869, Note_on_c, 0, 54, 0
2,90903, Note_on_c, 0, 52, 58
2,90914, Note_on_c, 0, 73, 77
2,90937, Note_on_c, 0, 71, 0
2,91036, Note_on_c, 0, 52, 0
2,91039, Note_on_c, 0, 50, 64
2,91060, Note_on_c, 0, 71, 84
2,91182, Note_on_c, 0, 50, 0
2,91192, Note_on_c, 0, 49, 67
2,91200, Note_on_c, 0, 73, 0
2,91201, Note_on_c, 0, 70, 83
2,91234, Note_on_c, 0, 71, 0
2,91319, Note_on_c, 0, 70, 0
2,91330, Note_on_c, 0, 47, 63
2,91330, Note_on_c, 0, 49, 0
2,91335, Note_on_c, 0, 71, 80
2,91495, Note_on_c, 0, 46, 68
2,91497, Note_on_c, 0, 73, 78
2,91504, Note_on_c, 0, 47, 0
2,91539, Note_on_c, 0, 71, 0
2,91615, Note_on_c, 0, 73, 0
2,91634, Note_on_c, 0, 49, 76
2,91651, Note_on_c, 0, 46, 0
2,91800, Note_on_c, 0, 47, 73
2,91804, Note_on_c, 0, 49, 0
2,91807, Note_on_c, 0, 74, 81
2,91937, Note_on_c, 0, 46, 74
2,91937, Note_on_c, 0, 47, 0
2,91937, Note_on_c, 0, 73, 83
2,92080, Note_on_c, 0, 74, 0
2,92082, Note_on_c, 0, 44, 72
2,92085, Note_on_c, 0, 71, 87
2,92089, Note_on_c, 0, 46, 0
2,92113, Note_on_c, 0, 73, 0
2,92209, Note_on_c, 0, 42, 69
2,92209, Note_on_c, 0, 44, 0
2,92226, Note_on_c, 0, 73, 87
2,92274, Note_on_c, 0, 71, 0
2,92379, Note_on_c, 0, 42, 0
2,92392, Note_on_c, 0, 74, 84
2,92402, Note_on_c, 0, 47, 74
2,92426, Note_on_c, 0, 73, 0
2,92452, Note_on_c, 0, 74, 0
2,92464, Note_on_c, 0, 47, 0
2,92712, Note_on_c, 0, 73, 86
2,92726, Note_on_c, 0, 49, 70
2,92779, Note_on_c, 0, 73, 0
2,92872, Note_on_c, 0, 47, 74
2,92887, Note_on_c, 0, 49, 0
2,93012, Note_on_c, 0, 46, 78
2,93012, Note_on_c, 0, 71, 84
2,93017, Note_on_c, 0, 47, 0
2,93073, Note_on_c, 0, 71, 0
2,93143, Note_on_c, 0, 47, 81
2,93165, Note_on_c, 0, 46, 0
2,93319, Note_on_c, 0, 49, 89
2,93331, Note_on_c, 0, 70, 89
2,93352, Note_on_c, 0, 47, 0
2,93373, Note_on_c, 0, 70, 0
2,93477, Note_on_c, 0, 49, 0
2,93647, Note_on_c, 0, 79, 84
2,93650, Note_on_c, 0, 50, 79
2,93782, Note_on_c, 0, 49, 83
2,93807, Note_on_c, 0, 50, 0
2,93940, Note_on_c, 0, 47, 75
2,93955, Note_on_c, 0, 49, 0
2,94075, Note_on_c, 0, 49, 89
2,94099, Note_on_c, 0, 47, 0
2,94250, Note_on_c, 0, 50, 87
2,94255, Note_on_c, 0, 78, 80
2,94275, Note_on_c, 0, 49, 0
2,94283, Note_on_c, 0, 79, 0
2,94310, Note_on_c, 0, 50, 0
2,94568, Note_on_c, 0, 49, 91
2,94570, Note_on_c, 0, 79, 75
2,94608, Note_on_c, 0, 78, 0
2,94628, Note_on_c, 0, 49, 0
2,94721, Note_on_c, 0, 78, 81
2,94872, Note_on_c, 0, 47, 91
2,94885, Note_on_c, 0, 76, 79
2,94908, Note_on_c, 0, 47, 0
2,94908, Note_on_c, 0, 79, 0
2,94958, Note_on_c, 0, 78, 0
2,94996, Note_on_c, 0, 76, 0
2,95012, Note_on_c, 0, 74, 70
2,95177, Note_on_c, 0, 46, 92
2,95191, Note_on_c, 0, 73, 77
2,95214, Note_on_c, 0, 46, 0
2,95222, Note_on_c, 0, 74, 0
2,95522, Note_on_c, 0, 55, 85
2,95527, Note_on_c, 0, 76, 75
2,95556, Note_on_c, 0, 73, 0
2,95673, Note_on_c, 0, 74, 67
2,95761, Note_on_c, 0, 76, 0
2,95827, Note_on_c, 0, 74, 0
2,95829, Note_on_c, 0, 73, 69
2,95937, Note_on_c, 0, 73, 0
2,95974, Note_on_c, 0, 71, 57
2,96098, Note_on_c, 0, 55, 0
2,96117, Note_on_c, 0, 71, 0
2,96130, Note_on_c, 0, 54, 58
2,96150, Note_on_c, 0, 70, 59
2,96250, Note_on_c, 0, 70, 0
2,96252, Note_on_c, 0, 54, 0
2,96273, Note_on_c, 0, 56, 60
2,96282, Note_on_c, 0, 71, 58
2,96398, Note_on_c, 0, 71, 0
2,96408, Note_on_c, 0, 56, 0
2,96430, Note_on_c, 0, 58, 57
2,96446, Note_on_c, 0, 73, 59
2,96547, Note_on_c, 0, 58, 0
2,96566, Note_on_c, 0, 54, 58
2,96571, Note_on_c, 0, 73, 0
2,96591, Note_on_c, 0, 70, 65
2,96718, Note_on_c, 0, 54, 0
2,96725, Note_on_c, 0, 74, 79
2,96730, Note_on_c, 0, 59, 76
2,96740, Note_on_c, 0, 70, 0
2,96865, Note_on_c, 0, 54, 66
2,96871, Note_on_c, 0, 70, 79
2,96901, Note_on_c, 0, 59, 0
2,96905, Note_on_c, 0, 74, 0
2,97027, Note_on_c, 0, 61, 72
2,97028, Note_on_c, 0, 76, 85
2,97031, Note_on_c, 0, 54, 0
2,97048, Note_on_c, 0, 70, 0
2,97171, Note_on_c, 0, 76, 0
2,97175, Note_on_c, 0, 70, 77
2,97183, Note_on_c, 0, 54, 61
2,97191, Note_on_c, 0, 61, 0
2,97310, Note_on_c, 0, 54, 0
2,97327, Note_on_c, 0, 78, 76
2,97335, Note_on_c, 0, 62, 49
2,97357, Note_on_c, 0, 70, 0
2,97432, Note_on_c, 0, 78, 0
2,97451, Note_on_c, 0, 62, 0
2,97461, Note_on_c, 0, 54, 58
2,97478, Note_on_c, 0, 70, 65
2,97594, Note_on_c, 0, 54, 0
2,97631, Note_on_c, 0, 70, 0
2,97633, Note_on_c, 0, 79, 67
2,97639, Note_on_c, 0, 64, 53
2,97716, Note_on_c, 0, 64, 0
2,97732, Note_on_c, 0, 79, 0
2,97765, Note_on_c, 0, 54, 51
2,97783, Note_on_c, 0, 70, 63
2,97897, Note_on_c, 0, 54, 0
2,97943, Note_on_c, 0, 62, 51
2,97949, Note_on_c, 0, 78, 46
2,98032, Note_on_c, 0, 70, 0
2,98071, Note_on_c, 0, 62, 0
2,98074, Note_on_c, 0, 54, 53
2,98104, Note_on_c, 0, 78, 0
2,98221, Note_on_c, 0, 54, 0
2,98252, Note_on_c, 0, 55, 48
2,98258, Note_on_c, 0, 71, 53
2,98318, Note_on_c, 0, 55, 0
2,98383, Note_on_c, 0, 62, 52
2,98389, Note_on_c, 0, 78, 58
2,98433, Note_on_c, 0, 71, 0
2,98505, Note_on_c, 0, 78, 0
2,98506, Note_on_c, 0, 62, 0
2,98536, Note_on_c, 0, 61, 62
2,98544, Note_on_c, 0, 76, 61
2,98595, Note_on_c, 0, 74, 63
2,98603, Note_on_c, 0, 76, 0
2,98629, Note_on_c, 0, 61, 0
2,98643, Note_on_c, 0, 74, 0
2,98657, Note_on_c, 0, 73, 71
2,98662, Note_on_c, 0, 58, 55
2,98721, Note_on_c, 0, 59, 34
2,98734, Note_on_c, 0, 74, 71
2,98735, Note_on_c, 0, 58, 0
2,98747, Note_on_c, 0, 73, 0
2,98801, Note_on_c, 0, 59, 0
2,98814, Note_on_c, 0, 61, 59
2,98834, Note_on_c, 0, 76, 76
2,98842, Note_on_c, 0, 74, 0
2,98950, Note_on_c, 0, 61, 0
2,98981, Note_on_c, 0, 52, 61
2,98982, Note_on_c, 0, 68, 75
2,99133, Note_on_c, 0, 52, 0
2,99138, Note_on_c, 0, 54, 70
2,99140, Note_on_c, 0, 70, 81
2,99144, Note_on_c, 0, 76, 0
2,99164, Note_on_c, 0, 68, 0
2,99267, Note_on_c, 0, 54, 0
2,99284, Note_on_c, 0, 61, 73
2,99284, Note_on_c, 0, 76, 72
2,99309, Note_on_c, 0, 70, 0
2,99389, Note_on_c, 0, 61, 0
2,99418, Note_on_c, 0, 74, 69
2,99425, Note_on_c, 0, 76, 0
2,99427, Note_on_c, 0, 59, 56
2,99468, Note_on_c, 0, 73, 65
2,99483, Note_on_c, 0, 58, 55
2,99494, Note_on_c, 0, 59, 0
2,99508, Note_on_c, 0, 74, 0
2,99529, Note_on_c, 0, 58, 0
2,99538, Note_on_c, 0, 73, 0
2,99542, Note_on_c, 0, 71, 74
2,99561, Note_on_c, 0, 56, 63
2,99613, Note_on_c, 0, 73, 66
2,99618, Note_on_c, 0, 56, 0
2,99628, Note_on_c, 0, 71, 0
2,99630, Note_on_c, 0, 58, 62
2,99686, Note_on_c, 0, 58, 0
2,99730, Note_on_c, 0, 73, 0
2,99733, Note_on_c, 0, 74, 61
2,99734, Note_on_c, 0, 59, 63
2,99884, Note_on_c, 0, 59, 0
2,99886, Note_on_c, 0, 61, 56
2,100051, Note_on_c, 0, 62, 60
2,100130, Note_on_c, 0, 61, 0
2,100199, Note_on_c, 0, 59, 76
2,100205, Note_on_c, 0, 62, 0
2,100356, Note_on_c, 0, 64, 76
2,100383, Note_on_c, 0, 59, 0
2,100505, Note_on_c, 0, 59, 81
2,100573, Note_on_c, 0, 64, 0
2,100659, Note_on_c, 0, 66, 80
2,100682, Note_on_c, 0, 59, 0
2,100813, Note_on_c, 0, 59, 76
2,100869, Note_on_c, 0, 66, 0
2,100949, Note_on_c, 0, 59, 0
2,100965, Note_on_c, 0, 68, 72
2,101099, Note_on_c, 0, 68, 0
2,101111, Note_on_c, 0, 59, 58
2,101207, Note_on_c, 0, 59, 0
2,101276, Note_on_c, 0, 47, 54
2,101276, Note_on_c, 0, 69, 58
2,101315, Note_on_c, 0, 47, 0
2,101376, Note_on_c, 0, 69, 0
2,101425, Note_on_c, 0, 59, 42
2,101545, Note_on_c, 0, 59, 0
2,101583, Note_on_c, 0, 68, 58
2,101597, Note_on_c, 0, 52, 49
2,101631, Note_on_c, 0, 68, 0
2,101687, Note_on_c, 0, 52, 0
2,101726, Note_on_c, 0, 54, 56
2,101864, Note_on_c, 0, 54, 0
2,101887, Note_on_c, 0, 56, 56
2,101898, Note_on_c, 0, 64, 65
2,101946, Note_on_c, 0, 64, 0
2,102001, Note_on_c, 0, 56, 0
2,102032, Note_on_c, 0, 52, 51
2,102171, Note_on_c, 0, 52, 0
2,102191, Note_on_c, 0, 57, 66
2,102198, Note_on_c, 0, 66, 75
2,102258, Note_on_c, 0, 66, 0
2,102275, Note_on_c, 0, 57, 0
2,102331, Note_on_c, 0, 52, 60
2,102495, Note_on_c, 0, 52, 0
2,102499, Note_on_c, 0, 68, 81
2,102510, Note_on_c, 0, 59, 63
2,102571, Note_on_c, 0, 68, 0
2,102630, Note_on_c, 0, 59, 0
2,102635, Note_on_c, 0, 52, 69
2,102802, Note_on_c, 0, 69, 86
2,102809, Note_on_c, 0, 61, 72
2,102831, Note_on_c, 0, 52, 0
2,102872, Note_on_c, 0, 69, 0
2,102946, Note_on_c, 0, 52, 67
2,102948, Note_on_c, 0, 61, 0
2,103090, Note_on_c, 0, 52, 0
2,103099, Note_on_c, 0, 71, 83
2,103124, Note_on_c, 0, 62, 70
2,103179, Note_on_c, 0, 71, 0
2,103240, Note_on_c, 0, 52, 70
2,103302, Note_on_c, 0, 62, 0
2,103398, Note_on_c, 0, 52, 0
2,103412, Note_on_c, 0, 61, 76
2,103419, Note_on_c, 0, 64, 76
2,103428, Note_on_c, 0, 74, 0
2,103583, Note_on_c, 0, 66, 68
2,103592, Note_on_c, 0, 64, 0
2,103638, Note_on_c, 0, 68, 79
2,103692, Note_on_c, 0, 66, 0
2,103734, Note_on_c, 0, 69, 70
2,103759, Note_on_c, 0, 68, 0
2,103868, Note_on_c, 0, 61, 0
2,103884, Note_on_c, 0, 64, 69
2,103888, Note_on_c, 0, 62, 65
2,103954, Note_on_c, 0, 69, 0
2,104012, Note_on_c, 0, 62, 0
2,104027, Note_on_c, 0, 61, 64
2,104045, Note_on_c, 0, 71, 73
2,104065, Note_on_c, 0, 64, 0
2,104143, Note_on_c, 0, 71, 0
2,104189, Note_on_c, 0, 59, 72
2,104191, Note_on_c, 0, 64, 75
2,104205, Note_on_c, 0, 61, 0
2,104345, Note_on_c, 0, 57, 71
2,104345, Note_on_c, 0, 59, 0
2,104346, Note_on_c, 0, 73, 79
2,104382, Note_on_c, 0, 64, 0
2,104490, Note_on_c, 0, 59, 80
2,104497, Note_on_c, 0, 64, 83
2,104511, Note_on_c, 0, 57, 0
2,104539, Note_on_c, 0, 73, 0
2,104641, Note_on_c, 0, 59, 0
2,104644, Note_on_c, 0, 57, 83
2,104647, Note_on_c, 0, 74, 80
2,104714, Note_on_c, 0, 64, 0
2,104783, Note_on_c, 0, 57, 0
2,104786, Note_on_c, 0, 55, 79
2,104786, Note_on_c, 0, 66, 80
2,104800, Note_on_c, 0, 74, 0
2,104898, Note_on_c, 0, 66, 0
2,104945, Note_on_c, 0, 49, 74
2,104945, Note_on_c, 0, 76, 80
2,104950, Note_on_c, 0, 54, 77
2,104955, Note_on_c, 0, 55, 0
2,105066, Note_on_c, 0, 76, 0
2,105082, Note_on_c, 0, 52, 81
2,105082, Note_on_c, 0, 54, 0
2,105085, Note_on_c, 0, 67, 75
2,105088, Note_on_c, 0, 49, 0
2,105250, Note_on_c, 0, 50, 87
2,105250, Note_on_c, 0, 66, 78
2,105265, Note_on_c, 0, 67, 0
2,105266, Note_on_c, 0, 52, 0
2,105368, Note_on_c, 0, 66, 0
2,105402, Note_on_c, 0, 67, 65
2,105470, Note_on_c, 0, 67, 0
2,105482, Note_on_c, 0, 69, 78
2,105559, Note_on_c, 0, 69, 0
2,105566, Note_on_c, 0, 71, 77
2,105679, Note_on_c, 0, 71, 0
2,105710, Note_on_c, 0, 50, 0
2,105717, Note_on_c, 0, 66, 70
2,105723, Note_on_c, 0, 52, 72
2,105857, Note_on_c, 0, 73, 81
2,105866, Note_on_c, 0, 50, 79
2,105866, Note_on_c, 0, 52, 0
2,105888, Note_on_c, 0, 66, 0
2,106007, Note_on_c, 0, 66, 79
2,106009, Note_on_c, 0, 49, 83
2,106035, Note_on_c, 0, 50, 0
2,106060, Note_on_c, 0, 73, 0
2,106162, Note_on_c, 0, 74, 83
2,106163, Note_on_c, 0, 47, 77
2,106194, Note_on_c, 0, 49, 0
2,106211, Note_on_c, 0, 66, 0
2,106309, Note_on_c, 0, 49, 84
2,106310, Note_on_c, 0, 66, 77
2,106318, Note_on_c, 0, 47, 0
2,106350, Note_on_c, 0, 74, 0
2,106450, Note_on_c, 0, 66, 0
2,106464, Note_on_c, 0, 47, 86
2,106467, Note_on_c, 0, 76, 81
2,106478, Note_on_c, 0, 49, 0
2,106586, Note_on_c, 0, 76, 0
2,106599, Note_on_c, 0, 67, 77
2,106603, Note_on_c, 0, 45, 77
2,106617, Note_on_c, 0, 47, 0
2,106767, Note_on_c, 0, 43, 79
2,106770, Note_on_c, 0, 67, 0
2,106771, Note_on_c, 0, 45, 0
2,106771, Note_on_c, 0, 78, 81
2,106891, Note_on_c, 0, 43, 0
2,106894, Note_on_c, 0, 42, 82
2,106903, Note_on_c, 0, 69, 81
2,106909, Note_on_c, 0, 78, 0
2,106998, Note_on_c, 0, 42, 0
2,107005, Note_on_c, 0, 69, 0
2,107062, Note_on_c, 0, 40, 87
2,107062, Note_on_c, 0, 67, 84
2,107106, Note_on_c, 0, 40, 0
2,107205, Note_on_c, 0, 67, 0
2,107210, Note_on_c, 0, 66, 75
2,107366, Note_on_c, 0, 50, 95
2,107368, Note_on_c, 0, 66, 0
2,107371, Note_on_c, 0, 67, 79
2,107408, Note_on_c, 0, 50, 0
2,107515, Note_on_c, 0, 71, 78
2,107599, Note_on_c, 0, 67, 0
2,107683, Note_on_c, 0, 49, 99
2,107694, Note_on_c, 0, 76, 83
2,107712, Note_on_c, 0, 49, 0
2,107730, Note_on_c, 0, 71, 0
2,107790, Note_on_c, 0, 76, 0
2,107841, Note_on_c, 0, 67, 64
2,108030, Note_on_c, 0, 66, 80
2,108033, Note_on_c, 0, 50, 99
2,108071, Note_on_c, 0, 67, 0
2,108179, Note_on_c, 0, 71, 72
2,108187, Note_on_c, 0, 66, 0
2,108338, Note_on_c, 0, 71, 0
2,108363, Note_on_c, 0, 69, 81
2,108364, Note_on_c, 0, 52, 79
2,108371, Note_on_c, 0, 50, 0
2,108498, Note_on_c, 0, 50, 82
2,108503, Note_on_c, 0, 73, 82
2,108525, Note_on_c, 0, 52, 0
2,108572, Note_on_c, 0, 69, 0
2,108647, Note_on_c, 0, 49, 72
2,108648, Note_on_c, 0, 74, 84
2,108653, Note_on_c, 0, 47, 74
2,108670, Note_on_c, 0, 50, 0
2,108703, Note_on_c, 0, 73, 0
2,108770, Note_on_c, 0, 50, 80
2,108805, Note_on_c, 0, 49, 0
2,108970, Note_on_c, 0, 47, 0
2,108988, Note_on_c, 0, 52, 85
2,108989, Note_on_c, 0, 43, 71
2,109002, Note_on_c, 0, 50, 0
2,109151, Note_on_c, 0, 43, 0
2,109290, Note_on_c, 0, 54, 80
2,109299, Note_on_c, 0, 73, 84
2,109316, Note_on_c, 0, 45, 41
2,109318, Note_on_c, 0, 52, 0
2,109354, Note_on_c, 0, 74, 0
2,109440, Note_on_c, 0, 52, 84
2,109452, Note_on_c, 0, 54, 0
2,109605, Note_on_c, 0, 50, 77
2,109615, Note_on_c, 0, 52, 0
2,109619, Note_on_c, 0, 45, 0
2,109719, Note_on_c, 0, 50, 0
2,109736, Note_on_c, 0, 52, 77
2,109897, Note_on_c, 0, 54, 83
2,109900, Note_on_c, 0, 50, 73
2,109909, Note_on_c, 0, 74, 79
2,109914, Note_on_c, 0, 52, 0
2,109943, Note_on_c, 0, 54, 0
2,109944, Note_on_c, 0, 50, 0
2,109960, Note_on_c, 0, 73, 0
2,110236, Note_on_c, 0, 52, 81
2,110239, Note_on_c, 0, 49, 83
2,110240, Note_on_c, 0, 76, 78
2,110241, Note_on_c, 0, 74, 0
2,110280, Note_on_c, 0, 52, 0
2,110297, Note_on_c, 0, 49, 0
2,110372, Note_on_c, 0, 74, 82
2,110442, Note_on_c, 0, 76, 0
2,110522, Note_on_c, 0, 50, 88
2,110530, Note_on_c, 0, 47, 77
2,110532, Note_on_c, 0, 73, 84
2,110560, Note_on_c, 0, 50, 0
2,110563, Note_on_c, 0, 47, 0
2,110572, Note_on_c, 0, 74, 0
2,110666, Note_on_c, 0, 74, 85
2,110668, Note_on_c, 0, 73, 0
2,110844, Note_on_c, 0, 45, 74
2,110844, Note_on_c, 0, 76, 90
2,110847, Note_on_c, 0, 49, 77
2,110885, Note_on_c, 0, 74, 0
2,110926, Note_on_c, 0, 76, 0
2,111175, Note_on_c, 0, 59, 75
2,111177, Note_on_c, 0, 78, 92
2,111277, Note_on_c, 0, 49, 0
2,111328, Note_on_c, 0, 76, 87
2,111381, Note_on_c, 0, 78, 0
2,111470, Note_on_c, 0, 74, 81
2,111477, Note_on_c, 0, 76, 0
2,111604, Note_on_c, 0, 76, 88
2,111646, Note_on_c, 0, 74, 0
2,111776, Note_on_c, 0, 59, 0
2,111777, Note_on_c, 0, 57, 75
2,111787, Note_on_c, 0, 78, 88
2,111825, Note_on_c, 0, 76, 0
2,112088, Note_on_c, 0, 59, 72
2,112097, Note_on_c, 0, 79, 85
2,112103, Note_on_c, 0, 57, 0
2,112119, Note_on_c, 0, 78, 0
2,112223, Note_on_c, 0, 59, 0
2,112235, Note_on_c, 0, 57, 74
2,112237, Note_on_c, 0, 78, 87
2,112337, Note_on_c, 0, 57, 0
2,112377, Note_on_c, 0, 79, 0
2,112383, Note_on_c, 0, 55, 56
2,112383, Note_on_c, 0, 76, 88
2,112428, Note_on_c, 0, 78, 0
2,112499, Note_on_c, 0, 74, 84
2,112501, Note_on_c, 0, 76, 0
2,112517, Note_on_c, 0, 54, 72
2,112575, Note_on_c, 0, 55, 0
2,112663, Note_on_c, 0, 73, 88
2,112679, Note_on_c, 0, 52, 74
2,112687, Note_on_c, 0, 74, 0
2,112707, Note_on_c, 0, 54, 0
2,112730, Note_on_c, 0, 73, 0
2,113003, Note_on_c, 0, 83, 94
2,113018, Note_on_c, 0, 55, 60
2,113060, Note_on_c, 0, 52, 0
2,113138, Note_on_c, 0, 55, 0
2,113163, Note_on_c, 0, 54, 70
2,113319, Note_on_c, 0, 54, 0
2,113322, Note_on_c, 0, 52, 75
2,113460, Note_on_c, 0, 50, 80
2,113480, Note_on_c, 0, 52, 0
2,113617, Note_on_c, 0, 49, 84
2,113644, Note_on_c, 0, 50, 0
2,113750, Note_on_c, 0, 81, 88
2,113761, Note_on_c, 0, 83, 0
2,113909, Note_on_c, 0, 83, 84
2,113948, Note_on_c, 0, 81, 0
2,114057, Note_on_c, 0, 81, 88
2,114178, Note_on_c, 0, 83, 0
2,114206, Note_on_c, 0, 50, 74
2,114211, Note_on_c, 0, 79, 89
2,114241, Note_on_c, 0, 49, 0
2,114276, Note_on_c, 0, 81, 0
2,114350, Note_on_c, 0, 78, 89
2,114379, Note_on_c, 0, 79, 0
2,114499, Note_on_c, 0, 76, 89
2,114541, Note_on_c, 0, 78, 0
2,114592, Note_on_c, 0, 50, 0
2,114618, Note_on_c, 0, 76, 0
2,114636, Note_on_c, 0, 78, 79
2,114641, Note_on_c, 0, 55, 68
2,114707, Note_on_c, 0, 78, 0
2,114727, Note_on_c, 0, 76, 76
2,114745, Note_on_c, 0, 54, 58
2,114760, Note_on_c, 0, 55, 0
2,114760, Note_on_c, 0, 76, 0
2,114797, Note_on_c, 0, 78, 77
2,114827, Note_on_c, 0, 52, 65
2,114842, Note_on_c, 0, 54, 0
2,114852, Note_on_c, 0, 78, 0
2,114874, Note_on_c, 0, 76, 77
2,114919, Note_on_c, 0, 76, 0
2,114952, Note_on_c, 0, 78, 83
2,114963, Note_on_c, 0, 52, 0
2,114973, Note_on_c, 0, 55, 60
2,115011, Note_on_c, 0, 78, 0
2,115025, Note_on_c, 0, 76, 83
2,115067, Note_on_c, 0, 76, 0
2,115099, Note_on_c, 0, 55, 0
2,115099, Note_on_c, 0, 78, 77
2,115120, Note_on_c, 0, 50, 69
2,115156, Note_on_c, 0, 78, 0
2,115173, Note_on_c, 0, 76, 83
2,115220, Note_on_c, 0, 76, 0
2,115249, Note_on_c, 0, 50, 0
2,115258, Note_on_c, 0, 78, 80
2,115266, Note_on_c, 0, 55, 68
2,115316, Note_on_c, 0, 78, 0
2,115325, Note_on_c, 0, 76, 83
2,115371, Note_on_c, 0, 76, 0
2,115414, Note_on_c, 0, 78, 81
2,115420, Note_on_c, 0, 55, 0
2,115423, Note_on_c, 0, 49, 73
2,115456, Note_on_c, 0, 80, 32
2,115484, Note_on_c, 0, 78, 0
2,115488, Note_on_c, 0, 76, 85
2,115500, Note_on_c, 0, 80, 0
2,115539, Note_on_c, 0, 76, 0
2,115571, Note_on_c, 0, 78, 74
2,115580, Note_on_c, 0, 55, 68
2,115604, Note_on_c, 0, 49, 0
2,115615, Note_on_c, 0, 80, 32
2,115624, Note_on_c, 0, 78, 0
2,115631, Note_on_c, 0, 76, 81
2,115640, Note_on_c, 0, 80, 0
2,115683, Note_on_c, 0, 76, 0
2,115687, Note_on_c, 0, 78, 73
2,115703, Note_on_c, 0, 47, 71
2,115704, Note_on_c, 0, 55, 0
2,115734, Note_on_c, 0, 76, 58
2,115753, Note_on_c, 0, 45, 0
2,115758, Note_on_c, 0, 78, 0
2,115774, Note_on_c, 0, 78, 66
2,115778, Note_on_c, 0, 76, 0
2,115835, Note_on_c, 0, 78, 0
2,115841, Note_on_c, 0, 55, 66
2,115849, Note_on_c, 0, 76, 68
2,115880, Note_on_c, 0, 78, 74
2,115883, Note_on_c, 0, 76, 0
2,115915, Note_on_c, 0, 47, 0
2,115948, Note_on_c, 0, 78, 0
2,115952, Note_on_c, 0, 76, 78
2,115964, Note_on_c, 0, 45, 60
2,115981, Note_on_c, 0, 55, 0
2,116091, Note_on_c, 0, 45, 0
2,116118, Note_on_c, 0, 55, 78
2,116258, Note_on_c, 0, 54, 75
2,116277, Note_on_c, 0, 55, 0
2,116408, Note_on_c, 0, 81, 86
2,116411, Note_on_c, 0, 55, 73
2,116428, Note_on_c, 0, 54, 0
2,116444, Note_on_c, 0, 76, 0
2,116476, Note_on_c, 0, 79, 85
2,116538, Note_on_c, 0, 81, 0
2,116549, Note_on_c, 0, 78, 90
2,116566, Note_on_c, 0, 55, 0
2,116575, Note_on_c, 0, 57, 69
2,116582, Note_on_c, 0, 79, 0
2,116705, Note_on_c, 0, 81, 76
2,116718, Note_on_c, 0, 78, 0
2,116723, Note_on_c, 0, 52, 58
2,116848, Note_on_c, 0, 52, 0
2,116878, Note_on_c, 0, 81, 0
2,116881, Note_on_c, 0, 50, 53
2,116881, Note_on_c, 0, 76, 66
2,116972, Note_on_c, 0, 50, 0
2,117002, Note_on_c, 0, 76, 0
2,117010, Note_on_c, 0, 49, 59
2,117029, Note_on_c, 0, 81, 62
2,117156, Note_on_c, 0, 81, 0
2,117159, Note_on_c, 0, 49, 0
2,117190, Note_on_c, 0, 47, 54
2,117202, Note_on_c, 0, 74, 53
2,117249, Note_on_c, 0, 57, 0
2,117321, Note_on_c, 0, 74, 0
2,117335, Note_on_c, 0, 81, 50
2,117340, Note_on_c, 0, 55, 55
2,117472, Note_on_c, 0, 55, 0
2,117486, Note_on_c, 0, 81, 0
2,117500, Note_on_c, 0, 54, 58
2,117516, Note_on_c, 0, 73, 56
2,117636, Note_on_c, 0, 54, 0
2,117645, Note_on_c, 0, 73, 0
2,117654, Note_on_c, 0, 81, 56
2,117655, Note_on_c, 0, 52, 57
2,117795, Note_on_c, 0, 52, 0
2,117796, Note_on_c, 0, 81, 0
2,117821, Note_on_c, 0, 50, 59
2,117832, Note_on_c, 0, 71, 55
2,117956, Note_on_c, 0, 81, 62
2,117966, Note_on_c, 0, 54, 69
2,117980, Note_on_c, 0, 50, 0
2,118049, Note_on_c, 0, 71, 0
2,118134, Note_on_c, 0, 79, 76
2,118146, Note_on_c, 0, 52, 71
2,118160, Note_on_c, 0, 54, 0
2,118188, Note_on_c, 0, 47, 0
2,118280, Note_on_c, 0, 78, 80
2,118287, Note_on_c, 0, 54, 80
2,118300, Note_on_c, 0, 52, 0
2,118317, Note_on_c, 0, 81, 0
2,118423, Note_on_c, 0, 79, 0
2,118435, Note_on_c, 0, 76, 77
2,118437, Note_on_c, 0, 54, 0
2,118437, Note_on_c, 0, 55, 75
2,118491, Note_on_c, 0, 78, 0
2,118581, Note_on_c, 0, 76, 0
2,118589, Note_on_c, 0, 50, 61
2,118599, Note_on_c, 0, 79, 64
2,118726, Note_on_c, 0, 50, 0
2,118740, Note_on_c, 0, 79, 0
2,118753, Note_on_c, 0, 49, 61
2,118771, Note_on_c, 0, 74, 59
2,118862, Note_on_c, 0, 49, 0
2,118863, Note_on_c, 0, 74, 0
2,118910, Note_on_c, 0, 47, 49
2,118911, Note_on_c, 0, 79, 51
2,119018, Note_on_c, 0, 47, 0
2,119045, Note_on_c, 0, 79, 0
2,119083, Note_on_c, 0, 45, 44
2,119087, Note_on_c, 0, 73, 53
2,119196, Note_on_c, 0, 55, 0
2,119222, Note_on_c, 0, 73, 0
2,119225, Note_on_c, 0, 79, 49
2,119256, Note_on_c, 0, 54, 54
2,119365, Note_on_c, 0, 79, 0
2,119406, Note_on_c, 0, 71, 56
2,119409, Note_on_c, 0, 54, 0
2,119412, Note_on_c, 0, 52, 55
2,119521, Note_on_c, 0, 52, 0
2,119531, Note_on_c, 0, 71, 0
2,119542, Note_on_c, 0, 50, 51
2,119553, Note_on_c, 0, 79, 46
2,119665, Note_on_c, 0, 79, 0
2,119668, Note_on_c, 0, 45, 0
2,119680, Note_on_c, 0, 50, 0
2,119717, Note_on_c, 0, 49, 54
2,119723, Note_on_c, 0, 69, 58
2,119826, Note_on_c, 0, 69, 0
2,119841, Note_on_c, 0, 49, 0
2,119855, Note_on_c, 0, 79, 52
2,119879, Note_on_c, 0, 52, 51
2,120018, Note_on_c, 0, 79, 0
2,120025, Note_on_c, 0, 52, 0
2,120034, Note_on_c, 0, 78, 56
2,120046, Note_on_c, 0, 50, 56
2,120165, Note_on_c, 0, 50, 0
2,120181, Note_on_c, 0, 52, 57
2,120181, Note_on_c, 0, 76, 52
2,120187, Note_on_c, 0, 78, 0
2,120297, Note_on_c, 0, 52, 0
2,120340, Note_on_c, 0, 74, 57
2,120344, Note_on_c, 0, 54, 59
2,120351, Note_on_c, 0, 76, 0
2,120449, Note_on_c, 0, 74, 0
2,120489, Note_on_c, 0, 78, 56
2,120502, Note_on_c, 0, 48, 54
2,120632, Note_on_c, 0, 78, 0
2,120642, Note_on_c, 0, 72, 61
2,120644, Note_on_c, 0, 48, 0
2,120646, Note_on_c, 0, 47, 56
2,120733, Note_on_c, 0, 47, 0
2,120763, Note_on_c, 0, 72, 0
2,120783, Note_on_c, 0, 45, 52
2,120792, Note_on_c, 0, 78, 56
2,120892, Note_on_c, 0, 54, 0
2,120920, Note_on_c, 0, 45, 0
2,120929, Note_on_c, 0, 78, 0
2,120950, Note_on_c, 0, 43, 55
2,120964, Note_on_c, 0, 71, 61
2,121077, Note_on_c, 0, 71, 0
2,121101, Note_on_c, 0, 78, 49
2,121111, Note_on_c, 0, 47, 60
2,121257, Note_on_c, 0, 78, 0
2,121266, Note_on_c, 0, 49, 67
2,121271, Note_on_c, 0, 69, 64
2,121289, Note_on_c, 0, 47, 0
2,121367, Note_on_c, 0, 43, 0
2,121411, Note_on_c, 0, 69, 0
2,121411, Note_on_c, 0, 78, 61
2,121420, Note_on_c, 0, 50, 65
2,121424, Note_on_c, 0, 49, 0
2,121586, Note_on_c, 0, 67, 65
2,121587, Note_on_c, 0, 78, 0
2,121589, Note_on_c, 0, 50, 0
2,121589, Note_on_c, 0, 52, 66
2,121710, Note_on_c, 0, 67, 0
2,121726, Note_on_c, 0, 54, 76
2,121732, Note_on_c, 0, 78, 73
2,121746, Note_on_c, 0, 52, 0
2,121883, Note_on_c, 0, 55, 72
2,121887, Note_on_c, 0, 76, 72
2,121914, Note_on_c, 0, 54, 0
2,122023, Note_on_c, 0, 74, 76
2,122028, Note_on_c, 0, 57, 71
2,122047, Note_on_c, 0, 78, 0
2,122068, Note_on_c, 0, 55, 0
2,122178, Note_on_c, 0, 55, 70
2,122186, Note_on_c, 0, 73, 77
2,122207, Note_on_c, 0, 76, 0
2,122215, Note_on_c, 0, 57, 0
2,122317, Note_on_c, 0, 54, 72
2,122329, Note_on_c, 0, 74, 0
2,122337, Note_on_c, 0, 76, 82
2,122343, Note_on_c, 0, 55, 0
2,122375, Note_on_c, 0, 73, 0
2,122467, Note_on_c, 0, 54, 0
2,122474, Note_on_c, 0, 52, 70
2,122493, Note_on_c, 0, 71, 76
2,122529, Note_on_c, 0, 76, 0
2,122614, Note_on_c, 0, 50, 63
2,122619, Note_on_c, 0, 52, 0
2,122639, Note_on_c, 0, 71, 0
2,122641, Note_on_c, 0, 76, 69
2,122776, Note_on_c, 0, 49, 68
2,122794, Note_on_c, 0, 69, 70
2,122796, Note_on_c, 0, 50, 0
2,122810, Note_on_c, 0, 76, 0
2,122929, Note_on_c, 0, 45, 63
2,122947, Note_on_c, 0, 76, 72
2,122960, Note_on_c, 0, 69, 0
2,122961, Note_on_c, 0, 49, 0
2,123098, Note_on_c, 0, 47, 68
2,123107, Note_on_c, 0, 67, 72
2,123129, Note_on_c, 0, 76, 0
2,123145, Note_on_c, 0, 45, 0
2,123252, Note_on_c, 0, 49, 83
2,123253, Note_on_c, 0, 76, 76
2,123254, Note_on_c, 0, 67, 0
2,123272, Note_on_c, 0, 47, 0
2,123417, Note_on_c, 0, 50, 81
2,123419, Note_on_c, 0, 66, 80
2,123434, Note_on_c, 0, 76, 0
2,123438, Note_on_c, 0, 49, 0
2,123551, Note_on_c, 0, 52, 82
2,123555, Note_on_c, 0, 66, 0
2,123557, Note_on_c, 0, 76, 78
2,123572, Note_on_c, 0, 50, 0
2,123706, Note_on_c, 0, 74, 74
2,123719, Note_on_c, 0, 54, 83
2,123738, Note_on_c, 0, 52, 0
2,123758, Note_on_c, 0, 76, 0
2,123851, Note_on_c, 0, 66, 80
2,123860, Note_on_c, 0, 55, 81
2,123871, Note_on_c, 0, 74, 0
2,123975, Note_on_c, 0, 54, 0
2,124004, Note_on_c, 0, 55, 0
2,124025, Note_on_c, 0, 57, 85
2,124025, Note_on_c, 0, 64, 85
2,124045, Note_on_c, 0, 66, 0
2,124060, Note_on_c, 0, 57, 0
2,124154, Note_on_c, 0, 64, 0
2,124165, Note_on_c, 0, 67, 74
2,124326, Note_on_c, 0, 74, 79
2,124328, Note_on_c, 0, 45, 87
2,124343, Note_on_c, 0, 67, 0
2,124361, Note_on_c, 0, 45, 0
2,124466, Note_on_c, 0, 74, 0
2,124474, Note_on_c, 0, 73, 75
2,124595, Note_on_c, 0, 73, 0
2,124658, Note_on_c, 0, 50, 95
2,124676, Note_on_c, 0, 74, 84
2,124724, Control_c, 0, 64, 36
2,124743, Control_c, 0, 64, 61
2,124763, Control_c, 0, 64, 67
2,124778, Note_on_c, 0, 50, 0
2,124781, Control_c, 0, 64, 73
2,124801, Control_c, 0, 64, 85
2,124820, Control_c, 0, 64, 114
2,124840, Control_c, 0, 64, 127
2,125004, Note_on_c, 0, 74, 0
2,125005, Note_on_c, 0, 48, 85
2,125013, Note_on_c, 0, 76, 77
2,125051, Control_c, 0, 64, 109
2,125070, Control_c, 0, 64, 80
2,125089, Control_c, 0, 64, 63
2,125095, Note_on_c, 0, 76, 0
2,125101, Note_on_c, 0, 74, 69
2,125109, Control_c, 0, 64, 0
2,125137, Note_on_c, 0, 48, 0
2,125143, Note_on_c, 0, 50, 81
2,125183, Note_on_c, 0, 74, 0
2,125189, Note_on_c, 0, 76, 80
2,125266, Note_on_c, 0, 76, 0
2,125270, Note_on_c, 0, 74, 71
2,125296, Note_on_c, 0, 52, 74
2,125315, Note_on_c, 0, 50, 0
2,125336, Note_on_c, 0, 74, 0
2,125338, Note_on_c, 0, 76, 69
2,125385, Note_on_c, 0, 74, 60
2,125396, Note_on_c, 0, 76, 0
2,125414, Note_on_c, 0, 52, 0
2,125442, Note_on_c, 0, 76, 67
2,125443, Note_on_c, 0, 50, 77
2,125455, Note_on_c, 0, 74, 0
2,125500, Note_on_c, 0, 74, 63
2,125518, Note_on_c, 0, 76, 0
2,125587, Note_on_c, 0, 48, 83
2,125625, Note_on_c, 0, 50, 0
2,125755, Note_on_c, 0, 48, 0
2,125950, Note_on_c, 0, 47, 79
2,126093, Note_on_c, 0, 48, 76
2,126108, Note_on_c, 0, 47, 0
2,126255, Note_on_c, 0, 50, 72
2,126257, Note_on_c, 0, 48, 0
2,126369, Note_on_c, 0, 50, 0
2,126416, Note_on_c, 0, 48, 64
2,126497, Note_on_c, 0, 48, 0
2,126581, Note_on_c, 0, 47, 63
2,126622, Note_on_c, 0, 47, 0
2,126725, Note_on_c, 0, 67, 42
2,126857, Note_on_c, 0, 67, 0
2,126898, Note_on_c, 0, 48, 52
2,126906, Note_on_c, 0, 65, 50
2,126941, Note_on_c, 0, 48, 0
2,127011, Note_on_c, 0, 65, 0
2,127059, Note_on_c, 0, 64, 48
2,127188, Note_on_c, 0, 64, 0
2,127217, Note_on_c, 0, 50, 58
2,127235, Note_on_c, 0, 62, 54
2,127255, Note_on_c, 0, 50, 0
2,127309, Note_on_c, 0, 62, 0
2,127373, Note_on_c, 0, 65, 53
2,127526, Note_on_c, 0, 65, 0
2,127537, Note_on_c, 0, 55, 67
2,127547, Note_on_c, 0, 64, 57
2,127570, Note_on_c, 0, 55, 0
2,127645, Note_on_c, 0, 74, 0
2,127649, Note_on_c, 0, 64, 0
2,127676, Note_on_c, 0, 65, 61
2,127838, Note_on_c, 0, 65, 0
2,127851, Note_on_c, 0, 72, 62
2,127860, Note_on_c, 0, 45, 69
2,127863, Note_on_c, 0, 64, 56
2,127984, Note_on_c, 0, 64, 0
2,128014, Note_on_c, 0, 62, 58
2,128138, Note_on_c, 0, 62, 0
2,128168, Note_on_c, 0, 60, 56
2,128261, Note_on_c, 0, 60, 0
2,128327, Note_on_c, 0, 64, 47
2,128466, Note_on_c, 0, 64, 0
2,128490, Note_on_c, 0, 47, 67
2,128491, Note_on_c, 0, 45, 0
2,128500, Note_on_c, 0, 62, 49
2,128535, Note_on_c, 0, 47, 0
2,128612, Note_on_c, 0, 62, 0
2,128628, Note_on_c, 0, 72, 0
2,128636, Note_on_c, 0, 64, 60
2,128788, Note_on_c, 0, 64, 0
2,128803, Note_on_c, 0, 71, 59
2,128804, Note_on_c, 0, 48, 71
2,128805, Note_on_c, 0, 62, 57
2,128858, Note_on_c, 0, 48, 0
2,128941, Note_on_c, 0, 62, 0
2,128960, Note_on_c, 0, 60, 58
2,129104, Note_on_c, 0, 60, 0
2,129127, Note_on_c, 0, 50, 67
2,129127, Note_on_c, 0, 59, 62
2,129173, Note_on_c, 0, 50, 0
2,129205, Note_on_c, 0, 59, 0
2,129276, Note_on_c, 0, 62, 47
2,129421, Note_on_c, 0, 62, 0
2,129442, Note_on_c, 0, 52, 53
2,129450, Note_on_c, 0, 60, 54
2,129487, Note_on_c, 0, 52, 0
2,129566, Note_on_c, 0, 60, 0
2,129587, Note_on_c, 0, 71, 0
2,129593, Note_on_c, 0, 62, 53
2,129748, Note_on_c, 0, 42, 56
2,129752, Note_on_c, 0, 62, 0
2,129775, Note_on_c, 0, 60, 52
2,129776, Note_on_c, 0, 69, 56
2,129895, Note_on_c, 0, 60, 0
2,129918, Note_on_c, 0, 59, 63
2,130074, Note_on_c, 0, 59, 0
2,130089, Note_on_c, 0, 57, 56
2,130106, Note_on_c, 0, 42, 0
2,130182, Note_on_c, 0, 57, 0
2,130220, Note_on_c, 0, 60, 61
2,130353, Note_on_c, 0, 60, 0
2,130386, Note_on_c, 0, 59, 64
2,130398, Note_on_c, 0, 43, 54
2,130440, Note_on_c, 0, 43, 0
2,130490, Note_on_c, 0, 69, 0
2,130533, Note_on_c, 0, 67, 63
2,130685, Note_on_c, 0, 42, 62
2,130699, Note_on_c, 0, 69, 78
2,130717, Note_on_c, 0, 67, 0
2,130824, Note_on_c, 0, 42, 0
2,130841, Note_on_c, 0, 67, 77
2,130845, Note_on_c, 0, 43, 62
2,130913, Note_on_c, 0, 69, 0
2,130998, Note_on_c, 0, 43, 0
2,130999, Note_on_c, 0, 66, 75
2,131005, Note_on_c, 0, 45, 63
2,131018, Note_on_c, 0, 67, 0
2,131068, Note_on_c, 0, 45, 0
2,131089, Note_on_c, 0, 59, 0
2,131133, Note_on_c, 0, 66, 0
2,131134, Note_on_c, 0, 47, 64
2,131144, Note_on_c, 0, 67, 70
2,131268, Note_on_c, 0, 47, 0
2,131291, Note_on_c, 0, 36, 67
2,131303, Note_on_c, 0, 66, 62
2,131306, Note_on_c, 0, 57, 62
2,131324, Note_on_c, 0, 36, 0
2,131355, Note_on_c, 0, 67, 0
2,131373, Note_on_c, 0, 57, 0
2,131442, Note_on_c, 0, 66, 0
2,131466, Note_on_c, 0, 62, 64
2,131536, Note_on_c, 0, 64, 63
2,131558, Note_on_c, 0, 62, 0
2,131593, Note_on_c, 0, 60, 59
2,131610, Note_on_c, 0, 66, 63
2,131620, Note_on_c, 0, 64, 0
2,131743, Note_on_c, 0, 60, 0
2,131747, Note_on_c, 0, 66, 0
2,131749, Note_on_c, 0, 62, 65
2,131764, Note_on_c, 0, 59, 70
2,131889, Note_on_c, 0, 59, 0
2,131900, Note_on_c, 0, 67, 76
2,131914, Note_on_c, 0, 57, 66
2,131940, Note_on_c, 0, 62, 0
2,132019, Note_on_c, 0, 57, 0
2,132045, Note_on_c, 0, 55, 75
2,132061, Note_on_c, 0, 62, 77
2,132092, Note_on_c, 0, 67, 0
2,132201, Note_on_c, 0, 69, 82
2,132202, Note_on_c, 0, 54, 75
2,132206, Note_on_c, 0, 55, 0
2,132243, Note_on_c, 0, 62, 0
2,132343, Note_on_c, 0, 52, 71
2,132358, Note_on_c, 0, 54, 0
2,132366, Note_on_c, 0, 62, 79
2,132385, Note_on_c, 0, 69, 0
2,132497, Note_on_c, 0, 52, 0
2,132511, Note_on_c, 0, 50, 72
2,132522, Note_on_c, 0, 71, 74
2,132555, Note_on_c, 0, 62, 0
2,132645, Note_on_c, 0, 50, 0
2,132651, Note_on_c, 0, 71, 0
2,132659, Note_on_c, 0, 48, 64
2,132687, Note_on_c, 0, 62, 62
2,132803, Note_on_c, 0, 62, 0
2,132818, Note_on_c, 0, 48, 0
2,132827, Note_on_c, 0, 47, 62
2,132839, Note_on_c, 0, 72, 60
2,132902, Note_on_c, 0, 72, 0
2,132911, Note_on_c, 0, 47, 0
2,132961, Note_on_c, 0, 45, 57
2,132976, Note_on_c, 0, 62, 52
2,133039, Note_on_c, 0, 62, 0
2,133095, Note_on_c, 0, 45, 0
2,133134, Note_on_c, 0, 43, 58
2,133137, Note_on_c, 0, 71, 56
2,133164, Note_on_c, 0, 71, 0
2,133270, Note_on_c, 0, 43, 0
2,133282, Note_on_c, 0, 45, 52
2,133292, Note_on_c, 0, 79, 63
2,133417, Note_on_c, 0, 45, 0
2,133441, Note_on_c, 0, 77, 73
2,133443, Note_on_c, 0, 47, 59
2,133569, Note_on_c, 0, 47, 0
2,133574, Note_on_c, 0, 79, 0
2,133596, Note_on_c, 0, 43, 57
2,133596, Note_on_c, 0, 76, 77
2,133750, Note_on_c, 0, 43, 0
2,133758, Note_on_c, 0, 74, 77
2,133766, Note_on_c, 0, 48, 55
2,133768, Note_on_c, 0, 77, 0
2,133853, Note_on_c, 0, 76, 0
2,133897, Note_on_c, 0, 72, 77
2,133905, Note_on_c, 0, 48, 0
2,133914, Note_on_c, 0, 43, 59
2,133920, Note_on_c, 0, 74, 0
2,134058, Note_on_c, 0, 71, 78
2,134061, Note_on_c, 0, 43, 0
2,134080, Note_on_c, 0, 50, 63
2,134101, Note_on_c, 0, 72, 0
2,134210, Note_on_c, 0, 69, 83
2,134220, Note_on_c, 0, 43, 59
2,134232, Note_on_c, 0, 50, 0
2,134368, Note_on_c, 0, 67, 75
2,134371, Note_on_c, 0, 43, 0
2,134379, Note_on_c, 0, 52, 58
2,134408, Note_on_c, 0, 71, 0
2,134474, Note_on_c, 0, 69, 0
2,134506, Note_on_c, 0, 52, 0
2,134514, Note_on_c, 0, 65, 75
2,134527, Note_on_c, 0, 43, 59
2,134547, Note_on_c, 0, 67, 0
2,134667, Note_on_c, 0, 43, 0
2,134668, Note_on_c, 0, 64, 76
2,134684, Note_on_c, 0, 53, 58
2,134684, Note_on_c, 0, 65, 0
2,134773, Note_on_c, 0, 53, 0
2,134814, Note_on_c, 0, 62, 68
2,134824, Note_on_c, 0, 43, 56
2,134833, Note_on_c, 0, 64, 0
2,134924, Note_on_c, 0, 62, 0
2,134939, Note_on_c, 0, 43, 0
2,134965, Note_on_c, 0, 60, 64
2,134976, Note_on_c, 0, 52, 62
2,135002, Note_on_c, 0, 60, 0
2,135085, Note_on_c, 0, 52, 0
2,135114, Note_on_c, 0, 40, 49
2,135128, Note_on_c, 0, 76, 79
2,135194, Note_on_c, 0, 40, 0
2,135200, Note_on_c, 0, 42, 60
2,135281, Note_on_c, 0, 74, 77
2,135299, Note_on_c, 0, 44, 59
2,135305, Note_on_c, 0, 42, 0
2,135429, Note_on_c, 0, 72, 88
2,135449, Note_on_c, 0, 44, 0
2,135456, Note_on_c, 0, 40, 60
2,135495, Note_on_c, 0, 76, 0
2,135584, Note_on_c, 0, 40, 0
2,135593, Note_on_c, 0, 45, 62
2,135595, Note_on_c, 0, 71, 82
2,135629, Note_on_c, 0, 74, 0
2,135673, Note_on_c, 0, 72, 0
2,135719, Note_on_c, 0, 45, 0
2,135741, Note_on_c, 0, 69, 76
2,135745, Note_on_c, 0, 71, 0
2,135748, Note_on_c, 0, 40, 58
2,135867, Note_on_c, 0, 40, 0
2,135900, Note_on_c, 0, 47, 56
2,135903, Note_on_c, 0, 68, 73
2,135931, Note_on_c, 0, 69, 0
2,136001, Note_on_c, 0, 47, 0
2,136043, Note_on_c, 0, 40, 53
2,136049, Note_on_c, 0, 66, 71
2,136151, Note_on_c, 0, 68, 0
2,136188, Note_on_c, 0, 40, 0
2,136213, Note_on_c, 0, 48, 50
2,136220, Note_on_c, 0, 64, 63
2,136299, Note_on_c, 0, 66, 0
2,136315, Note_on_c, 0, 48, 0
2,136348, Note_on_c, 0, 64, 0
2,136356, Note_on_c, 0, 62, 64
2,136371, Note_on_c, 0, 40, 52
2,136494, Note_on_c, 0, 40, 0
2,136503, Note_on_c, 0, 62, 0
2,136512, Note_on_c, 0, 60, 63
2,136522, Note_on_c, 0, 50, 49
2,136651, Note_on_c, 0, 60, 0
2,136659, Note_on_c, 0, 40, 54
2,136662, Note_on_c, 0, 59, 63
2,136696, Note_on_c, 0, 50, 0
2,136782, Note_on_c, 0, 40, 0
2,136797, Note_on_c, 0, 59, 0
2,136823, Note_on_c, 0, 57, 62
2,136828, Note_on_c, 0, 49, 48
2,136870, Note_on_c, 0, 49, 0
2,136870, Note_on_c, 0, 57, 0
2,136964, Note_on_c, 0, 59, 68
2,136967, Note_on_c, 0, 57, 74
2,137124, Note_on_c, 0, 55, 79
2,137127, Note_on_c, 0, 57, 0
2,137136, Note_on_c, 0, 61, 68
2,137176, Note_on_c, 0, 59, 0
2,137272, Note_on_c, 0, 57, 69
2,137277, Note_on_c, 0, 54, 84
2,137319, Note_on_c, 0, 61, 0
2,137329, Note_on_c, 0, 55, 0
2,137425, Note_on_c, 0, 52, 79
2,137431, Note_on_c, 0, 54, 0
2,137432, Note_on_c, 0, 62, 76
2,137469, Note_on_c, 0, 57, 0
2,137573, Note_on_c, 0, 50, 89
2,137575, Note_on_c, 0, 52, 0
2,137587, Note_on_c, 0, 57, 78
2,137607, Note_on_c, 0, 62, 0
2,137733, Note_on_c, 0, 49, 92
2,137741, Note_on_c, 0, 64, 72
2,137763, Note_on_c, 0, 50, 0
2,137776, Note_on_c, 0, 57, 0
2,137834, Note_on_c, 0, 64, 0
2,137869, Note_on_c, 0, 47, 78
2,137884, Note_on_c, 0, 57, 73
2,137895, Note_on_c, 0, 49, 0
2,138028, Note_on_c, 0, 45, 86
2,138034, Note_on_c, 0, 66, 75
2,138042, Note_on_c, 0, 47, 0
2,138083, Note_on_c, 0, 57, 0
2,138176, Note_on_c, 0, 43, 84
2,138191, Note_on_c, 0, 57, 80
2,138206, Note_on_c, 0, 45, 0
2,138220, Note_on_c, 0, 66, 0
2,138342, Note_on_c, 0, 42, 87
2,138343, Note_on_c, 0, 67, 81
2,138392, Note_on_c, 0, 43, 0
2,138393, Note_on_c, 0, 57, 0
2,138474, Note_on_c, 0, 42, 0
2,138477, Note_on_c, 0, 40, 80
2,138487, Note_on_c, 0, 57, 80
2,138534, Note_on_c, 0, 67, 0
2,138663, Note_on_c, 0, 38, 97
2,138669, Note_on_c, 0, 62, 75
2,138669, Note_on_c, 0, 66, 83
2,138697, Note_on_c, 0, 40, 0
2,138706, Note_on_c, 0, 57, 0
2,138767, Note_on_c, 0, 62, 0
2,138793, Note_on_c, 0, 66, 0
2,139029, Note_on_c, 0, 71, 85
2,139035, Note_on_c, 0, 60, 84
2,139135, Note_on_c, 0, 60, 0
2,139165, Note_on_c, 0, 62, 82
2,139314, Note_on_c, 0, 67, 79
2,139317, Note_on_c, 0, 64, 82
2,139332, Note_on_c, 0, 62, 0
2,139349, Note_on_c, 0, 71, 0
2,139384, Note_on_c, 0, 64, 0
2,139456, Note_on_c, 0, 62, 86
2,139633, Note_on_c, 0, 64, 87
2,139639, Note_on_c, 0, 60, 85
2,139668, Note_on_c, 0, 62, 0
2,139680, Control_c, 0, 64, 30
2,139692, Note_on_c, 0, 67, 0
2,139699, Control_c, 0, 64, 60
2,139704, Note_on_c, 0, 60, 0
2,139713, Note_on_c, 0, 64, 0
2,139719, Control_c, 0, 64, 67
2,139737, Control_c, 0, 64, 73
2,139757, Control_c, 0, 64, 84
2,139776, Control_c, 0, 64, 94
2,139796, Control_c, 0, 64, 102
2,139814, Control_c, 0, 64, 110
2,139834, Control_c, 0, 64, 127
2,139968, Control_c, 0, 64, 109
2,139971, Note_on_c, 0, 59, 86
2,139988, Control_c, 0, 64, 92
2,139988, Note_on_c, 0, 67, 65
2,139989, Note_on_c, 0, 69, 61
2,140006, Control_c, 0, 64, 76
2,140021, Note_on_c, 0, 69, 0
2,140025, Control_c, 0, 64, 61
2,140045, Control_c, 0, 64, 0
2,140098, Note_on_c, 0, 60, 81
2,140105, Note_on_c, 0, 59, 0
2,140182, Note_on_c, 0, 67, 0
2,140247, Note_on_c, 0, 66, 76
2,140257, Note_on_c, 0, 62, 75
2,140280, Note_on_c, 0, 60, 0
2,140315, Note_on_c, 0, 62, 0
2,140389, Note_on_c, 0, 61, 77
2,140529, Note_on_c, 0, 61, 0
2,140561, Note_on_c, 0, 66, 0
2,140576, Note_on_c, 0, 59, 83
2,140576, Note_on_c, 0, 67, 78
2,140601, Note_on_c, 0, 38, 0
2,140753, Note_on_c, 0, 50, 77
2,140843, Note_on_c, 0, 59, 0
2,140883, Note_on_c, 0, 50, 0
2,140886, Note_on_c, 0, 48, 67
2,140900, Note_on_c, 0, 60, 86
2,140976, Note_on_c, 0, 60, 0
2,141021, Note_on_c, 0, 50, 86
2,141034, Note_on_c, 0, 48, 0
2,141203, Note_on_c, 0, 52, 77
2,141215, Note_on_c, 0, 62, 88
2,141237, Note_on_c, 0, 50, 0
2,141286, Note_on_c, 0, 62, 0
2,141355, Note_on_c, 0, 50, 82
2,141366, Note_on_c, 0, 52, 0
2,141461, Note_on_c, 0, 67, 0
2,141514, Note_on_c, 0, 64, 86
2,141525, Note_on_c, 0, 48, 73
2,141532, Note_on_c, 0, 50, 0
2,141563, Control_c, 0, 64, 31
2,141581, Control_c, 0, 64, 54
2,141600, Control_c, 0, 64, 62
2,141619, Control_c, 0, 64, 65
2,141639, Control_c, 0, 64, 67
2,141647, Note_on_c, 0, 69, 86
2,141657, Control_c, 0, 64, 71
2,141677, Control_c, 0, 64, 79
2,141696, Control_c, 0, 64, 87
2,141716, Control_c, 0, 64, 93
2,141734, Control_c, 0, 64, 96
2,141743, Note_on_c, 0, 69, 0
2,141773, Control_c, 0, 64, 91
2,141791, Note_on_c, 0, 48, 0
2,141792, Control_c, 0, 64, 78
2,141809, Note_on_c, 0, 71, 82
2,141811, Control_c, 0, 64, 63
2,141822, Note_on_c, 0, 54, 73
2,141831, Control_c, 0, 64, 0
2,141835, Note_on_c, 0, 47, 58
2,141884, Note_on_c, 0, 71, 0
2,141885, Note_on_c, 0, 69, 80
2,141908, Control_c, 0, 64, 50
2,141926, Control_c, 0, 64, 65
2,141944, Note_on_c, 0, 71, 71
2,141945, Control_c, 0, 64, 73
2,141945, Note_on_c, 0, 47, 0
2,141956, Note_on_c, 0, 48, 67
2,141965, Control_c, 0, 64, 83
2,141973, Note_on_c, 0, 69, 0
2,141984, Control_c, 0, 64, 91
2,141992, Note_on_c, 0, 69, 51
2,142003, Control_c, 0, 64, 93
2,142022, Control_c, 0, 64, 93
2,142042, Control_c, 0, 64, 92
2,142047, Note_on_c, 0, 69, 0
2,142061, Control_c, 0, 64, 88
2,142080, Control_c, 0, 64, 83
2,142083, Note_on_c, 0, 64, 0
2,142095, Note_on_c, 0, 48, 0
2,142095, Note_on_c, 0, 50, 76
2,142099, Control_c, 0, 64, 76
2,142106, Note_on_c, 0, 69, 68
2,142108, Note_on_c, 0, 54, 0
2,142108, Note_on_c, 0, 71, 0
2,142119, Control_c, 0, 64, 71
2,142137, Control_c, 0, 64, 65
2,142157, Control_c, 0, 64, 55
2,142176, Control_c, 0, 64, 22
2,142184, Note_on_c, 0, 67, 77
2,142186, Note_on_c, 0, 69, 0
2,142196, Control_c, 0, 64, 0
2,142239, Note_on_c, 0, 48, 71
2,142251, Note_on_c, 0, 50, 0
2,142274, Note_on_c, 0, 69, 83
2,142304, Note_on_c, 0, 67, 0
2,142384, Note_on_c, 0, 48, 0
2,142387, Note_on_c, 0, 71, 88
2,142393, Note_on_c, 0, 47, 75
2,142398, Note_on_c, 0, 55, 74
2,142399, Note_on_c, 0, 67, 77
2,142402, Note_on_c, 0, 69, 0
2,142516, Note_on_c, 0, 47, 0
2,142519, Note_on_c, 0, 67, 0
2,142526, Note_on_c, 0, 55, 0
2,142661, Note_on_c, 0, 71, 0
2,142733, Note_on_c, 0, 72, 82
2,142740, Note_on_c, 0, 69, 82
2,142741, Note_on_c, 0, 45, 73
2,142880, Note_on_c, 0, 47, 80
2,142880, Note_on_c, 0, 67, 81
2,142880, Note_on_c, 0, 71, 82
2,142902, Note_on_c, 0, 45, 0
2,142915, Note_on_c, 0, 69, 0
2,142920, Note_on_c, 0, 72, 0
2,143036, Note_on_c, 0, 66, 73
2,143038, Note_on_c, 0, 48, 73
2,143040, Note_on_c, 0, 69, 80
2,143049, Note_on_c, 0, 67, 0
2,143051, Note_on_c, 0, 71, 0
2,143052, Note_on_c, 0, 47, 0
2,143168, Note_on_c, 0, 48, 0
2,143175, Note_on_c, 0, 69, 0
2,143182, Note_on_c, 0, 67, 68
2,143184, Note_on_c, 0, 47, 63
2,143190, Note_on_c, 0, 71, 72
2,143192, Note_on_c, 0, 66, 0
2,143288, Note_on_c, 0, 67, 0
2,143337, Note_on_c, 0, 47, 0
2,143362, Note_on_c, 0, 45, 50
2,143363, Note_on_c, 0, 69, 55
2,143363, Note_on_c, 0, 71, 0
2,143373, Note_on_c, 0, 72, 67
2,143486, Note_on_c, 0, 69, 0
2,143504, Note_on_c, 0, 72, 0
2,143577, Note_on_c, 0, 45, 0
2,143703, Note_on_c, 0, 74, 79
2,143710, Note_on_c, 0, 71, 83
2,143714, Note_on_c, 0, 43, 68
2,143840, Note_on_c, 0, 72, 81
2,143841, Note_on_c, 0, 45, 71
2,143849, Note_on_c, 0, 69, 86
2,143851, Note_on_c, 0, 43, 0
2,143878, Note_on_c, 0, 71, 0
2,143945, Note_on_c, 0, 74, 0
2,143996, Note_on_c, 0, 47, 71
2,143996, Note_on_c, 0, 71, 86
2,143998, Note_on_c, 0, 45, 0
2,144001, Note_on_c, 0, 67, 71
2,144001, Note_on_c, 0, 69, 0
2,144022, Note_on_c, 0, 72, 0
2,144119, Note_on_c, 0, 71, 0
2,144123, Note_on_c, 0, 47, 0
2,144132, Note_on_c, 0, 72, 81
2,144134, Note_on_c, 0, 69, 76
2,144139, Note_on_c, 0, 45, 65
2,144145, Note_on_c, 0, 67, 0
2,144256, Note_on_c, 0, 45, 0
2,144291, Note_on_c, 0, 74, 70
2,144294, Note_on_c, 0, 43, 64
2,144294, Note_on_c, 0, 72, 0
2,144305, Note_on_c, 0, 71, 68
2,144324, Note_on_c, 0, 69, 0
2,144369, Note_on_c, 0, 43, 0
2,144412, Note_on_c, 0, 74, 0
2,144423, Note_on_c, 0, 55, 74
2,144425, Note_on_c, 0, 71, 0
2,144495, Note_on_c, 0, 54, 78
2,144505, Note_on_c, 0, 55, 0
2,144584, Note_on_c, 0, 72, 86
2,144590, Note_on_c, 0, 52, 74
2,144593, Note_on_c, 0, 69, 85
2,144646, Note_on_c, 0, 54, 0
2,144692, Note_on_c, 0, 69, 0
2,144706, Note_on_c, 0, 72, 0
2,144734, Note_on_c, 0, 55, 81
2,144852, Note_on_c, 0, 52, 0
2,144900, Note_on_c, 0, 71, 93
2,144902, Note_on_c, 0, 50, 73
2,144912, Note_on_c, 0, 67, 77
2,144930, Note_on_c, 0, 55, 0
2,144986, Note_on_c, 0, 67, 0
2,144997, Note_on_c, 0, 71, 0
2,145060, Note_on_c, 0, 55, 77
2,145186, Note_on_c, 0, 50, 0
2,145213, Note_on_c, 0, 49, 76
2,145227, Note_on_c, 0, 69, 94
2,145233, Note_on_c, 0, 67, 83
2,145250, Note_on_c, 0, 55, 0
2,145274, Note_on_c, 0, 69, 0
2,145379, Note_on_c, 0, 57, 76
2,145476, Note_on_c, 0, 49, 0
2,145555, Note_on_c, 0, 79, 97
2,145561, Note_on_c, 0, 47, 72
2,145568, Note_on_c, 0, 74, 78
2,145599, Note_on_c, 0, 57, 0
2,145726, Note_on_c, 0, 57, 73
2,145785, Note_on_c, 0, 47, 0
2,145855, Note_on_c, 0, 45, 73
2,145871, Note_on_c, 0, 73, 78
2,145873, Note_on_c, 0, 57, 0
2,145893, Note_on_c, 0, 79, 0
2,145901, Note_on_c, 0, 74, 0
2,146008, Note_on_c, 0, 57, 76
2,146116, Note_on_c, 0, 45, 0
2,146169, Note_on_c, 0, 57, 0
2,146170, Note_on_c, 0, 50, 77
2,146171, Note_on_c, 0, 78, 86
2,146179, Note_on_c, 0, 74, 74
2,146241, Note_on_c, 0, 73, 0
2,146246, Note_on_c, 0, 67, 0
2,146269, Note_on_c, 0, 74, 0
2,146282, Note_on_c, 0, 78, 0
2,146323, Note_on_c, 0, 48, 81
2,146354, Note_on_c, 0, 50, 0
2,146479, Note_on_c, 0, 46, 74
2,146486, Note_on_c, 0, 76, 91
2,146491, Note_on_c, 0, 67, 84
2,146507, Note_on_c, 0, 48, 0
2,146572, Note_on_c, 0, 67, 0
2,146596, Note_on_c, 0, 76, 0
2,146637, Note_on_c, 0, 50, 81
2,146693, Note_on_c, 0, 46, 0
2,146805, Note_on_c, 0, 74, 90
2,146814, Note_on_c, 0, 66, 85
2,146816, Note_on_c, 0, 45, 71
2,146844, Note_on_c, 0, 50, 0
2,146911, Note_on_c, 0, 66, 0
2,146935, Note_on_c, 0, 74, 0
2,146965, Note_on_c, 0, 50, 79
2,146978, Note_on_c, 0, 45, 0
2,147131, Note_on_c, 0, 73, 97
2,147139, Note_on_c, 0, 64, 89
2,147146, Note_on_c, 0, 43, 71
2,147167, Note_on_c, 0, 50, 0
2,147175, Note_on_c, 0, 64, 0
2,147221, Note_on_c, 0, 73, 0
2,147296, Note_on_c, 0, 43, 0
2,147322, Note_on_c, 0, 52, 74
2,147507, Note_on_c, 0, 42, 79
2,147508, Note_on_c, 0, 82, 103
2,147515, Note_on_c, 0, 73, 93
2,147532, Note_on_c, 0, 52, 0
2,147628, Control_c, 0, 64, 11
2,147648, Control_c, 0, 64, 55
2,147656, Note_on_c, 0, 42, 0
2,147667, Control_c, 0, 64, 65
2,147675, Note_on_c, 0, 52, 75
2,147686, Control_c, 0, 64, 70
2,147705, Control_c, 0, 64, 79
2,147725, Control_c, 0, 64, 94
2,147739, Note_on_c, 0, 73, 0
2,147744, Control_c, 0, 64, 127
2,147751, Note_on_c, 0, 82, 0
2,147847, Note_on_c, 0, 40, 79
2,147881, Note_on_c, 0, 52, 0
2,148010, Note_on_c, 0, 40, 0
2,148010, Note_on_c, 0, 52, 80
2,148204, Control_c, 0, 64, 84
2,148216, Note_on_c, 0, 81, 89
2,148221, Note_on_c, 0, 42, 83
2,148223, Control_c, 0, 64, 63
2,148223, Note_on_c, 0, 72, 88
2,148242, Control_c, 0, 64, 0
2,148251, Note_on_c, 0, 52, 0
2,148358, Control_c, 0, 64, 36
2,148376, Control_c, 0, 64, 61
2,148396, Control_c, 0, 64, 68
2,148399, Note_on_c, 0, 42, 0
2,148415, Control_c, 0, 64, 79
2,148419, Note_on_c, 0, 79, 88
2,148435, Control_c, 0, 64, 115
2,148453, Control_c, 0, 64, 127
2,148489, Note_on_c, 0, 81, 0
2,148542, Note_on_c, 0, 72, 0
2,148590, Note_on_c, 0, 38, 85
2,148599, Note_on_c, 0, 78, 90
2,148604, Note_on_c, 0, 79, 0
2,148607, Control_c, 0, 64, 79
2,148626, Control_c, 0, 64, 56
2,148646, Control_c, 0, 64, 0
2,148700, Note_on_c, 0, 78, 0
2,148703, Control_c, 0, 64, 53
2,148722, Control_c, 0, 64, 67
2,148741, Control_c, 0, 64, 76
2,148746, Note_on_c, 0, 76, 85
2,148761, Control_c, 0, 64, 95
2,148776, Note_on_c, 0, 38, 0
2,148780, Control_c, 0, 64, 127
2,148904, Note_on_c, 0, 74, 83
2,148910, Note_on_c, 0, 76, 0
2,148914, Note_on_c, 0, 43, 85
2,148915, Control_c, 0, 64, 102
2,148933, Control_c, 0, 64, 80
2,148953, Control_c, 0, 64, 65
2,148972, Control_c, 0, 64, 0
2,149079, Note_on_c, 0, 71, 76
2,149147, Note_on_c, 0, 69, 84
2,149147, Note_on_c, 0, 71, 0
2,149150, Note_on_c, 0, 74, 0
2,149155, Note_on_c, 0, 43, 0
2,149230, Note_on_c, 0, 40, 89
2,149231, Note_on_c, 0, 71, 87
2,149290, Note_on_c, 0, 69, 0
2,149356, Control_c, 0, 64, 49
2,149375, Control_c, 0, 64, 64
2,149395, Control_c, 0, 64, 69
2,149406, Note_on_c, 0, 79, 90
2,149413, Control_c, 0, 64, 78
2,149433, Control_c, 0, 64, 89
2,149445, Note_on_c, 0, 40, 0
2,149452, Control_c, 0, 64, 102
2,149471, Control_c, 0, 64, 116
2,149490, Control_c, 0, 64, 127
2,149497, Note_on_c, 0, 71, 0
2,149586, Control_c, 0, 64, 86
2,149594, Note_on_c, 0, 69, 96
2,149606, Control_c, 0, 64, 64
2,149606, Note_on_c, 0, 36, 89
2,149624, Control_c, 0, 64, 0
2,149701, Control_c, 0, 64, 36
2,149712, Note_on_c, 0, 79, 0
2,149721, Control_c, 0, 64, 64
2,149740, Control_c, 0, 64, 74
2,149759, Control_c, 0, 64, 96
2,149761, Note_on_c, 0, 36, 0
2,149778, Control_c, 0, 64, 127
2,149783, Note_on_c, 0, 72, 94
2,149935, Control_c, 0, 64, 101
2,149953, Control_c, 0, 64, 68
2,149964, Note_on_c, 0, 72, 0
2,149973, Control_c, 0, 64, 0
2,149992, Note_on_c, 0, 38, 100
2,150006, Note_on_c, 0, 79, 91
2,150030, Control_c, 0, 64, 53
2,150050, Control_c, 0, 64, 69
2,150052, Note_on_c, 0, 38, 0
2,150069, Control_c, 0, 64, 93
2,150089, Control_c, 0, 64, 127
2,150217, Note_on_c, 0, 78, 90
2,150247, Note_on_c, 0, 69, 0
2,150254, Note_on_c, 0, 79, 0
2,150478, Note_on_c, 0, 79, 88
2,150479, Note_on_c, 0, 71, 87
2,150486, Note_on_c, 0, 43, 104
2,150522, Note_on_c, 0, 78, 0
2,150530, Control_c, 0, 64, 95
2,150549, Control_c, 0, 64, 67
2,150569, Control_c, 0, 64, 0
2,150728, Note_on_c, 0, 78, 80
2,150751, Note_on_c, 0, 71, 0
2,150783, Note_on_c, 0, 76, 76
2,150789, Note_on_c, 0, 79, 0
2,150837, Control_c, 0, 64, 27
2,150856, Control_c, 0, 64, 56
2,150860, Note_on_c, 0, 74, 85
2,150865, Note_on_c, 0, 78, 0
2,150872, Note_on_c, 0, 71, 78
2,150875, Control_c, 0, 64, 64
2,150895, Control_c, 0, 64, 68
2,150914, Control_c, 0, 64, 74
2,150914, Note_on_c, 0, 76, 0
2,150933, Control_c, 0, 64, 85
2,150951, Control_c, 0, 64, 94
2,150971, Control_c, 0, 64, 97
2,151009, Control_c, 0, 64, 95
2,151028, Control_c, 0, 64, 91
2,151042, Note_on_c, 0, 79, 93
2,151048, Control_c, 0, 64, 86
2,151060, Note_on_c, 0, 74, 0
2,151066, Control_c, 0, 64, 80
2,151073, Note_on_c, 0, 71, 0
2,151086, Control_c, 0, 64, 71
2,151105, Control_c, 0, 64, 64
2,151124, Control_c, 0, 64, 50
2,151143, Control_c, 0, 64, 0
2,151214, Note_on_c, 0, 72, 87
2,151215, Note_on_c, 0, 69, 85
2,151264, Note_on_c, 0, 79, 0
2,151298, Control_c, 0, 64, 37
2,151317, Control_c, 0, 64, 61
2,151336, Control_c, 0, 64, 67
2,151355, Control_c, 0, 64, 73
2,151375, Control_c, 0, 64, 83
2,151379, Note_on_c, 0, 79, 86
2,151386, Note_on_c, 0, 72, 0
2,151394, Control_c, 0, 64, 96
2,151397, Note_on_c, 0, 69, 0
2,151413, Control_c, 0, 64, 115
2,151432, Control_c, 0, 64, 127
2,151480, Note_on_c, 0, 43, 0
2,151529, Control_c, 0, 64, 106
2,151547, Control_c, 0, 64, 77
2,151550, Note_on_c, 0, 71, 90
2,151551, Note_on_c, 0, 79, 0
2,151558, Note_on_c, 0, 67, 79
2,151567, Control_c, 0, 64, 61
2,151586, Control_c, 0, 64, 0
2,151605, Control_c, 0, 64, 15
2,151624, Control_c, 0, 64, 56
2,151644, Control_c, 0, 64, 68
2,151663, Control_c, 0, 64, 81
2,151682, Control_c, 0, 64, 127
2,151715, Note_on_c, 0, 43, 73
2,151803, Note_on_c, 0, 45, 74
2,151816, Control_c, 0, 64, 98
2,151820, Note_on_c, 0, 43, 0
2,151835, Control_c, 0, 64, 73
2,151855, Control_c, 0, 64, 43
2,151873, Note_on_c, 0, 79, 93
2,151874, Control_c, 0, 64, 0
2,151877, Note_on_c, 0, 47, 75
2,151918, Note_on_c, 0, 45, 0
2,151932, Control_c, 0, 64, 18
2,151932, Note_on_c, 0, 67, 0
2,151950, Control_c, 0, 64, 57
2,151951, Note_on_c, 0, 71, 0
2,151970, Control_c, 0, 64, 67
2,151972, Note_on_c, 0, 79, 0
2,151989, Control_c, 0, 64, 76
2,152009, Control_c, 0, 64, 91
2,152027, Control_c, 0, 64, 127
2,152043, Note_on_c, 0, 43, 80
2,152048, Note_on_c, 0, 47, 0
2,152219, Control_c, 0, 64, 110
2,152226, Note_on_c, 0, 69, 90
2,152233, Note_on_c, 0, 66, 81
2,152238, Control_c, 0, 64, 75
2,152245, Note_on_c, 0, 48, 78
2,152264, Control_c, 0, 64, 53
2,152283, Control_c, 0, 64, 0
2,152288, Note_on_c, 0, 43, 0
2,152360, Control_c, 0, 64, 50
2,152378, Control_c, 0, 64, 66
2,152398, Control_c, 0, 64, 79
2,152409, Note_on_c, 0, 43, 77
2,152417, Control_c, 0, 64, 109
2,152420, Note_on_c, 0, 66, 0
2,152425, Note_on_c, 0, 48, 0
2,152436, Control_c, 0, 64, 127
2,152528, Note_on_c, 0, 69, 0
2,152570, Control_c, 0, 64, 91
2,152588, Note_on_c, 0, 71, 84
2,152590, Control_c, 0, 64, 68
2,152599, Note_on_c, 0, 50, 83
2,152599, Note_on_c, 0, 67, 74
2,152609, Control_c, 0, 64, 28
2,152629, Control_c, 0, 64, 0
2,152643, Note_on_c, 0, 43, 0
2,152724, Control_c, 0, 64, 36
2,152744, Control_c, 0, 64, 63
2,152763, Control_c, 0, 64, 70
2,152766, Note_on_c, 0, 71, 0
2,152776, Note_on_c, 0, 74, 77
2,152781, Control_c, 0, 64, 81
2,152801, Control_c, 0, 64, 98
2,152809, Note_on_c, 0, 67, 0
2,152820, Control_c, 0, 64, 127
2,152833, Note_on_c, 0, 72, 78
2,152875, Control_c, 0, 64, 112
2,152894, Control_c, 0, 64, 89
2,152910, Note_on_c, 0, 71, 89
2,152910, Note_on_c, 0, 74, 0
2,152914, Control_c, 0, 64, 71
2,152932, Control_c, 0, 64, 48
2,152934, Note_on_c, 0, 43, 76
2,152941, Note_on_c, 0, 67, 67
2,152952, Control_c, 0, 64, 0
2,152968, Note_on_c, 0, 72, 0
2,153086, Control_c, 0, 64, 36
2,153094, Note_on_c, 0, 74, 83
2,153106, Control_c, 0, 64, 61
2,153122, Note_on_c, 0, 71, 0
2,153127, Control_c, 0, 64, 67
2,153135, Note_on_c, 0, 67, 0
2,153147, Control_c, 0, 64, 75
2,153166, Control_c, 0, 64, 87
2,153185, Control_c, 0, 64, 103
2,153204, Control_c, 0, 64, 127
2,153243, Control_c, 0, 64, 96
2,153256, Control_c, 0, 64, 74
2,153275, Control_c, 0, 64, 56
2,153284, Note_on_c, 0, 47, 74
2,153285, Note_on_c, 0, 69, 82
2,153295, Control_c, 0, 64, 0
2,153295, Note_on_c, 0, 65, 75
2,153301, Note_on_c, 0, 50, 0
2,153303, Note_on_c, 0, 74, 0
2,153390, Control_c, 0, 64, 57
2,153410, Control_c, 0, 64, 67
2,153429, Control_c, 0, 64, 78
2,153442, Note_on_c, 0, 74, 84
2,153449, Control_c, 0, 64, 98
2,153458, Note_on_c, 0, 69, 0
2,153467, Control_c, 0, 64, 127
2,153471, Note_on_c, 0, 65, 0
2,153544, Control_c, 0, 64, 99
2,153564, Control_c, 0, 64, 78
2,153583, Control_c, 0, 64, 63
2,153591, Note_on_c, 0, 47, 0
2,153602, Control_c, 0, 64, 0
2,153609, Note_on_c, 0, 48, 79
2,153624, Note_on_c, 0, 67, 79
2,153635, Note_on_c, 0, 64, 75
2,153686, Note_on_c, 0, 74, 0
2,153703, Note_on_c, 0, 48, 0
2,153704, Note_on_c, 0, 47, 73
2,153788, Note_on_c, 0, 48, 72
2,153828, Note_on_c, 0, 47, 0
2,153876, Note_on_c, 0, 50, 81
2,153903, Note_on_c, 0, 48, 0
2,153979, Note_on_c, 0, 72, 93
2,153997, Note_on_c, 0, 52, 82
2,154002, Note_on_c, 0, 67, 0
2,154021, Note_on_c, 0, 50, 0
2,154083, Control_c, 0, 64, 45
2,154102, Control_c, 0, 64, 62
2,154122, Control_c, 0, 64, 67
2,154140, Control_c, 0, 64, 74
2,154159, Control_c, 0, 64, 90
2,154179, Control_c, 0, 64, 119
2,154182, Note_on_c, 0, 48, 86
2,154189, Note_on_c, 0, 52, 0
2,154198, Control_c, 0, 64, 127
2,154354, Note_on_c, 0, 64, 0
2,154409, Control_c, 0, 64, 88
2,154415, Note_on_c, 0, 63, 91
2,154419, Note_on_c, 0, 54, 89
2,154428, Control_c, 0, 64, 65
2,154439, Note_on_c, 0, 48, 0
2,154448, Control_c, 0, 64, 0
2,154544, Control_c, 0, 64, 44
2,154563, Control_c, 0, 64, 62
2,154582, Control_c, 0, 64, 67
2,154602, Control_c, 0, 64, 73
2,154620, Control_c, 0, 64, 84
2,154639, Control_c, 0, 64, 106
2,154646, Note_on_c, 0, 54, 0
2,154647, Note_on_c, 0, 48, 83
2,154659, Control_c, 0, 64, 127
2,154670, Note_on_c, 0, 63, 0
2,154687, Note_on_c, 0, 72, 0
2,154700, Note_on_c, 0, 43, 0
2,154929, Note_on_c, 0, 48, 0
2,154934, Note_on_c, 0, 43, 73
2,154934, Note_on_c, 0, 55, 84
2,154936, Note_on_c, 0, 62, 85
2,154966, Control_c, 0, 64, 91
2,154985, Control_c, 0, 64, 68
2,155005, Control_c, 0, 64, 35
2,155024, Control_c, 0, 64, 0
2,155036, Note_on_c, 0, 67, 77
2,155115, Control_c, 0, 64, 54
2,155135, Control_c, 0, 64, 67
2,155146, Note_on_c, 0, 69, 81
2,155148, Note_on_c, 0, 62, 0
2,155154, Control_c, 0, 64, 82
2,155174, Control_c, 0, 64, 127
2,155232, Note_on_c, 0, 71, 83
2,155242, Note_on_c, 0, 67, 0
2,155278, Note_on_c, 0, 69, 0
2,155342, Note_on_c, 0, 72, 90
2,155350, Note_on_c, 0, 64, 84
2,155366, Control_c, 0, 64, 82
2,155379, Note_on_c, 0, 71, 0
2,155384, Control_c, 0, 64, 63
2,155404, Control_c, 0, 64, 0
2,155480, Control_c, 0, 64, 44
2,155500, Control_c, 0, 64, 62
2,155518, Control_c, 0, 64, 67
2,155538, Control_c, 0, 64, 74
2,155557, Control_c, 0, 64, 92
2,155570, Note_on_c, 0, 67, 83
2,155577, Control_c, 0, 64, 127
2,155578, Note_on_c, 0, 72, 0
2,155596, Note_on_c, 0, 64, 0
2,155692, Note_on_c, 0, 67, 0
2,155776, Note_on_c, 0, 74, 83
2,155789, Note_on_c, 0, 71, 73
2,155800, Note_on_c, 0, 65, 74
2,155806, Control_c, 0, 64, 86
2,155825, Control_c, 0, 64, 66
2,155845, Control_c, 0, 64, 23
2,155864, Control_c, 0, 64, 0
2,155902, Control_c, 0, 64, 29
2,155922, Control_c, 0, 64, 57
2,155940, Control_c, 0, 64, 66
2,155959, Control_c, 0, 64, 73
2,155979, Control_c, 0, 64, 90
2,155982, Note_on_c, 0, 67, 77
2,156002, Note_on_c, 0, 65, 0
2,156003, Control_c, 0, 64, 127
2,156013, Note_on_c, 0, 71, 0
2,156024, Note_on_c, 0, 74, 0
2,156039, Note_on_c, 0, 67, 0
2,156203, Note_on_c, 0, 76, 82
2,156206, Note_on_c, 0, 67, 74
2,156209, Note_on_c, 0, 72, 77
2,156214, Control_c, 0, 64, 96
2,156233, Control_c, 0, 64, 70
2,156253, Control_c, 0, 64, 20
2,156271, Control_c, 0, 64, 0
2,156319, Note_on_c, 0, 71, 80
2,156319, Note_on_c, 0, 72, 0
2,156348, Control_c, 0, 64, 48
2,156368, Control_c, 0, 64, 63
2,156387, Control_c, 0, 64, 70
2,156406, Control_c, 0, 64, 80
2,156412, Note_on_c, 0, 76, 0
2,156425, Control_c, 0, 64, 99
2,156426, Note_on_c, 0, 72, 83
2,156445, Control_c, 0, 64, 127
2,156460, Note_on_c, 0, 67, 0
2,156483, Note_on_c, 0, 71, 0
2,156509, Note_on_c, 0, 74, 78
2,156542, Note_on_c, 0, 72, 0
2,156598, Control_c, 0, 64, 94
2,156601, Note_on_c, 0, 76, 90
2,156606, Note_on_c, 0, 67, 74
2,156617, Control_c, 0, 64, 68
2,156634, Note_on_c, 0, 74, 0
2,156636, Control_c, 0, 64, 27
2,156656, Control_c, 0, 64, 0
2,156730, Control_c, 0, 64, 34
2,156749, Control_c, 0, 64, 57
2,156768, Control_c, 0, 64, 64
2,156787, Control_c, 0, 64, 67
2,156807, Control_c, 0, 64, 72
2,156825, Control_c, 0, 64, 84
2,156845, Control_c, 0, 64, 127
2,156871, Note_on_c, 0, 72, 81
2,156884, Note_on_c, 0, 67, 0
2,156901, Note_on_c, 0, 76, 0
2,157146, Note_on_c, 0, 78, 89
2,157154, Control_c, 0, 64, 91
2,157157, Note_on_c, 0, 69, 77
2,157161, Note_on_c, 0, 72, 0
2,157174, Control_c, 0, 64, 69
2,157193, Control_c, 0, 64, 41
2,157213, Control_c, 0, 64, 0
2,157308, Control_c, 0, 64, 46
2,157328, Control_c, 0, 64, 62
2,157347, Control_c, 0, 64, 68
2,157366, Control_c, 0, 64, 76
2,157385, Control_c, 0, 64, 90
2,157405, Control_c, 0, 64, 127
2,157421, Note_on_c, 0, 72, 83
2,157459, Note_on_c, 0, 69, 0
2,157499, Note_on_c, 0, 78, 0
2,157746, Note_on_c, 0, 72, 0
2,157763, Note_on_c, 0, 79, 84
2,157776, Note_on_c, 0, 71, 72
2,157825, Control_c, 0, 64, 101
2,157844, Control_c, 0, 64, 79
2,157863, Control_c, 0, 64, 64
2,157883, Control_c, 0, 64, 32
2,157902, Control_c, 0, 64, 0
2,158072, Note_on_c, 0, 74, 72
2,158351, Note_on_c, 0, 76, 76
2,158374, Note_on_c, 0, 74, 0
2,158670, Note_on_c, 0, 72, 77
2,158676, Note_on_c, 0, 71, 0
2,158758, Note_on_c, 0, 76, 0
2,159058, Note_on_c, 0, 69, 72
2,159089, Note_on_c, 0, 72, 0
2,159458, Control_c, 0, 64, 36
2,159477, Control_c, 0, 64, 54
2,159496, Control_c, 0, 64, 61
2,159515, Control_c, 0, 64, 63
2,159535, Control_c, 0, 64, 65
2,159538, Note_on_c, 0, 78, 77
2,159557, Control_c, 0, 64, 67
2,159563, Note_on_c, 0, 79, 0
2,159565, Note_on_c, 0, 69, 0
2,159576, Control_c, 0, 64, 71
2,159595, Control_c, 0, 64, 78
2,159615, Control_c, 0, 64, 90
2,159633, Control_c, 0, 64, 110
2,159642, Note_on_c, 0, 78, 0
2,159652, Control_c, 0, 64, 127
2,160449, Note_on_c, 0, 79, 70
2,160469, Note_on_c, 0, 74, 52
2,160472, Note_on_c, 0, 71, 56
2,160536, Control_c, 0, 64, 95
2,160552, Note_on_c, 0, 79, 0
2,160555, Control_c, 0, 64, 74
2,160555, Note_on_c, 0, 78, 76
2,160575, Control_c, 0, 64, 60
2,160593, Control_c, 0, 64, 0
2,160650, Note_on_c, 0, 78, 0
2,160651, Note_on_c, 0, 79, 73
2,164048, Note_on_c, 0, 79, 0
2,164100, Note_on_c, 0, 71, 0
2,164115, Note_on_c, 0, 55, 0
2,164116, Note_on_c, 0, 43, 0
2,164126, Note_on_c, 0, 74, 0
2,164127, End_track
0, 0, End_of_file
