0, 0, Header, 1, 2, 480
1, 0, Start_track
1, 0, Tempo, 500000
1, 0, Time_signature, 4, 2, 24, 8
1, 1, End_track
2, 0, Start_track
2, 0, Program_c, 0, 0
2, 0, Control_c, 0, 64, 0
2, 907, Note_on_c, 0, 55, 69
2, 914, Note_on_c, 0, 67, 66
2, 947, Note_on_c, 0, 55, 0
2, 981, Note_on_c, 0, 67, 0
2, 1019, Note_on_c, 0, 71, 66
2, 1109, Note_on_c, 0, 71, 0
2, 1114, Note_on_c, 0, 74, 69
2, 1207, Note_on_c, 0, 74, 0
2, 1223, Note_on_c, 0, 79, 65
2, 1232, Note_on_c, 0, 43, 61
2, 1270, Note_on_c, 0, 43, 0
2, 1316, Note_on_c, 0, 79, 0
2, 1338, Note_on_c, 0, 74, 62
2, 1408, Note_on_c, 0, 74, 0
2, 1436, Note_on_c, 0, 71, 60
2, 1522, Note_on_c, 0, 71, 0
2, 1543, Note_on_c, 0, 74, 66
2, 1631, Note_on_c, 0, 74, 0
2, 1652, Note_on_c, 0, 71, 63
2, 1703, Note_on_c, 0, 71, 0
2, 1738, Note_on_c, 0, 67, 65
2, 1785, Note_on_c, 0, 67, 0
2, 1834, Note_on_c, 0, 71, 77
2, 1839, Note_on_c, 0, 55, 70
2, 1875, Note_on_c, 0, 55, 0
2, 1935, Note_on_c, 0, 71, 0
2, 1943, Note_on_c, 0, 67, 69
2, 2032, Note_on_c, 0, 67, 0
2, 2048, Note_on_c, 0, 62, 74
2, 2121, Note_on_c, 0, 62, 0
2, 2153, Note_on_c, 0, 57, 60
2, 2156, Note_on_c, 0, 64, 76
2, 2188, Note_on_c, 0, 55, 39
2, 2192, Note_on_c, 0, 57, 0
2, 2206, Note_on_c, 0, 64, 0
2, 2233, Note_on_c, 0, 55, 0
2, 2253, Note_on_c, 0, 67, 74
2, 2337, Note_on_c, 0, 67, 0
2, 2349, Note_on_c, 0, 72, 74
2, 2443, Note_on_c, 0, 72, 0
2, 2448, Note_on_c, 0, 76, 76
2, 2453, Note_on_c, 0, 43, 75
2, 2484, Note_on_c, 0, 43, 0
2, 2553, Note_on_c, 0, 76, 0
2, 2559, Note_on_c, 0, 72, 77
2, 2622, Note_on_c, 0, 72, 0
2, 2650, Note_on_c, 0, 67, 67
2, 2724, Note_on_c, 0, 67, 0
2, 2748, Note_on_c, 0, 72, 68
2, 2829, Note_on_c, 0, 72, 0
2, 2854, Note_on_c, 0, 67, 68
2, 2902, Note_on_c, 0, 67, 0
2, 2933, Note_on_c, 0, 64, 70
2, 2996, Note_on_c, 0, 64, 0
2, 3037, Note_on_c, 0, 67, 72
2, 3045, Note_on_c, 0, 55, 73
2, 3077, Note_on_c, 0, 55, 0
2, 3127, Note_on_c, 0, 67, 0
2, 3151, Note_on_c, 0, 64, 66
2, 3233, Note_on_c, 0, 64, 0
2, 3244, Note_on_c, 0, 60, 70
2, 3331, Note_on_c, 0, 60, 0
2, 3343, Note_on_c, 0, 55, 77
2, 3351, Note_on_c, 0, 57, 73
2, 3388, Note_on_c, 0, 55, 0
2, 3423, Note_on_c, 0, 57, 0
2, 3449, Note_on_c, 0, 60, 71
2, 3532, Note_on_c, 0, 60, 0
2, 3542, Note_on_c, 0, 66, 70
2, 3649, Note_on_c, 0, 66, 0
2, 3652, Note_on_c, 0, 69, 73
2, 3655, Note_on_c, 0, 43, 69
2, 3689, Note_on_c, 0, 43, 0
2, 3762, Note_on_c, 0, 69, 0
2, 3773, Note_on_c, 0, 66, 63
2, 3834, Note_on_c, 0, 66, 0
2, 3853, Note_on_c, 0, 60, 68
2, 3929, Note_on_c, 0, 60, 0
2, 3962, Note_on_c, 0, 66, 64
2, 4034, Note_on_c, 0, 66, 0
2, 4058, Note_on_c, 0, 60, 58
2, 4105, Note_on_c, 0, 60, 0
2, 4141, Note_on_c, 0, 57, 62
2, 4222, Note_on_c, 0, 57, 0
2, 4255, Note_on_c, 0, 55, 59
2, 4259, Note_on_c, 0, 60, 50
2, 4284, Note_on_c, 0, 55, 0
2, 4328, Note_on_c, 0, 60, 0
2, 4367, Note_on_c, 0, 57, 54
2, 4430, Note_on_c, 0, 57, 0
2, 4461, Note_on_c, 0, 54, 61
2, 4511, Note_on_c, 0, 54, 0
2, 4555, Note_on_c, 0, 55, 70
2, 4595, Note_on_c, 0, 55, 0
2, 4676, Note_on_c, 0, 59, 60
2, 4733, Note_on_c, 0, 59, 0
2, 4772, Note_on_c, 0, 62, 53
2, 4840, Note_on_c, 0, 62, 0
2, 4864, Note_on_c, 0, 43, 58
2, 4869, Note_on_c, 0, 67, 54
2, 4905, Note_on_c, 0, 43, 0
2, 4958, Note_on_c, 0, 67, 0
2, 4986, Note_on_c, 0, 62, 56
2, 5044, Note_on_c, 0, 62, 0
2, 5074, Note_on_c, 0, 59, 64
2, 5155, Note_on_c, 0, 59, 0
2, 5182, Note_on_c, 0, 62, 62
2, 5242, Note_on_c, 0, 62, 0
2, 5266, Note_on_c, 0, 59, 66
2, 5318, Note_on_c, 0, 59, 0
2, 5361, Note_on_c, 0, 55, 68
2, 5406, Note_on_c, 0, 55, 0
2, 5458, Note_on_c, 0, 55, 79
2, 5465, Note_on_c, 0, 59, 74
2, 5494, Note_on_c, 0, 55, 0
2, 5562, Note_on_c, 0, 59, 0
2, 5564, Note_on_c, 0, 55, 71
2, 5661, Note_on_c, 0, 55, 0
2, 5663, Note_on_c, 0, 52, 73
2, 5701, Note_on_c, 0, 52, 0
2, 5770, Note_on_c, 0, 55, 79
2, 5780, Note_on_c, 0, 57, 72
2, 5813, Note_on_c, 0, 55, 0
2, 5885, Note_on_c, 0, 61, 76
2, 5888, Note_on_c, 0, 57, 0
2, 5991, Note_on_c, 0, 64, 74
2, 6002, Note_on_c, 0, 61, 0
2, 6069, Note_on_c, 0, 43, 74
2, 6075, Note_on_c, 0, 64, 0
2, 6081, Note_on_c, 0, 69, 80
2, 6099, Note_on_c, 0, 43, 0
2, 6187, Note_on_c, 0, 69, 0
2, 6189, Note_on_c, 0, 64, 76
2, 6264, Note_on_c, 0, 64, 0
2, 6278, Note_on_c, 0, 61, 76
2, 6363, Note_on_c, 0, 61, 0
2, 6380, Note_on_c, 0, 64, 72
2, 6459, Note_on_c, 0, 64, 0
2, 6464, Note_on_c, 0, 61, 70
2, 6536, Note_on_c, 0, 61, 0
2, 6561, Note_on_c, 0, 57, 67
2, 6642, Note_on_c, 0, 57, 0
2, 6655, Note_on_c, 0, 55, 66
2, 6667, Note_on_c, 0, 61, 68
2, 6686, Note_on_c, 0, 55, 0
2, 6736, Note_on_c, 0, 61, 0
2, 6756, Note_on_c, 0, 57, 63
2, 6826, Note_on_c, 0, 57, 0
2, 6848, Note_on_c, 0, 52, 63
2, 6923, Note_on_c, 0, 52, 0
2, 6964, Note_on_c, 0, 54, 60
2, 7001, Note_on_c, 0, 62, 20
2, 7054, Note_on_c, 0, 62, 0
2, 7084, Note_on_c, 0, 57, 58
2, 7087, Note_on_c, 0, 54, 0
2, 7174, Note_on_c, 0, 57, 0
2, 7176, Note_on_c, 0, 61, 70
2, 7256, Note_on_c, 0, 61, 0
2, 7271, Note_on_c, 0, 62, 67
2, 7344, Note_on_c, 0, 62, 0
2, 7359, Note_on_c, 0, 57, 69
2, 7455, Note_on_c, 0, 57, 0
2, 7464, Note_on_c, 0, 54, 77
2, 7554, Note_on_c, 0, 54, 0
2, 7565, Note_on_c, 0, 57, 67
2, 7645, Note_on_c, 0, 57, 0
2, 7648, Note_on_c, 0, 54, 72
2, 7733, Note_on_c, 0, 54, 0
2, 7737, Note_on_c, 0, 50, 72
2, 7826, Note_on_c, 0, 50, 0
2, 7851, Note_on_c, 0, 62, 86
2, 7852, Note_on_c, 0, 54, 74
2, 7877, Note_on_c, 0, 62, 0
2, 7928, Note_on_c, 0, 54, 0
2, 7933, Note_on_c, 0, 50, 69
2, 8021, Note_on_c, 0, 50, 0
2, 8042, Note_on_c, 0, 47, 64
2, 8133, Note_on_c, 0, 47, 0
2, 8169, Note_on_c, 0, 52, 64
2, 8174, Note_on_c, 0, 62, 66
2, 8208, Note_on_c, 0, 52, 0
2, 8231, Note_on_c, 0, 62, 0
2, 8280, Note_on_c, 0, 61, 58
2, 8349, Note_on_c, 0, 61, 0
2, 8384, Note_on_c, 0, 62, 50
2, 8429, Note_on_c, 0, 62, 0
2, 8475, Note_on_c, 0, 40, 57
2, 8483, Note_on_c, 0, 64, 59
2, 8515, Note_on_c, 0, 40, 0
2, 8535, Note_on_c, 0, 64, 0
2, 8593, Note_on_c, 0, 61, 52
2, 8643, Note_on_c, 0, 61, 0
2, 8689, Note_on_c, 0, 62, 50
2, 8754, Note_on_c, 0, 62, 0
2, 8784, Note_on_c, 0, 66, 59
2, 8839, Note_on_c, 0, 66, 0
2, 8885, Note_on_c, 0, 61, 56
2, 8940, Note_on_c, 0, 61, 0
2, 8977, Note_on_c, 0, 62, 60
2, 9024, Note_on_c, 0, 62, 0
2, 9079, Note_on_c, 0, 52, 64
2, 9094, Note_on_c, 0, 67, 64
2, 9118, Note_on_c, 0, 52, 0
2, 9161, Note_on_c, 0, 67, 0
2, 9189, Note_on_c, 0, 61, 63
2, 9243, Note_on_c, 0, 61, 0
2, 9288, Note_on_c, 0, 62, 63
2, 9399, Note_on_c, 0, 69, 81
2, 9407, Note_on_c, 0, 49, 65
2, 9410, Note_on_c, 0, 62, 0
2, 9447, Note_on_c, 0, 49, 0
2, 9502, Note_on_c, 0, 69, 0
2, 9504, Note_on_c, 0, 61, 69
2, 9581, Note_on_c, 0, 61, 0
2, 9593, Note_on_c, 0, 62, 70
2, 9686, Note_on_c, 0, 62, 0
2, 9714, Note_on_c, 0, 71, 82
2, 9722, Note_on_c, 0, 45, 68
2, 9761, Note_on_c, 0, 45, 0
2, 9788, Note_on_c, 0, 71, 0
2, 9827, Note_on_c, 0, 61, 74
2, 9911, Note_on_c, 0, 61, 0
2, 9948, Note_on_c, 0, 62, 58
2, 10048, Note_on_c, 0, 69, 71
2, 10055, Note_on_c, 0, 62, 0
2, 10059, Note_on_c, 0, 47, 58
2, 10094, Note_on_c, 0, 47, 0
2, 10113, Note_on_c, 0, 69, 0
2, 10149, Note_on_c, 0, 61, 62
2, 10204, Note_on_c, 0, 61, 0
2, 10242, Note_on_c, 0, 62, 55
2, 10358, Note_on_c, 0, 67, 59
2, 10361, Note_on_c, 0, 62, 0
2, 10376, Note_on_c, 0, 49, 63
2, 10408, Note_on_c, 0, 49, 0
2, 10413, Note_on_c, 0, 67, 0
2, 10457, Note_on_c, 0, 61, 50
2, 10503, Note_on_c, 0, 61, 0
2, 10544, Note_on_c, 0, 62, 50
2, 10633, Note_on_c, 0, 62, 0
2, 10671, Note_on_c, 0, 50, 68
2, 10676, Note_on_c, 0, 66, 61
2, 10705, Note_on_c, 0, 50, 0
2, 10718, Note_on_c, 0, 66, 0
2, 10809, Note_on_c, 0, 61, 52
2, 10863, Note_on_c, 0, 61, 0
2, 10902, Note_on_c, 0, 62, 54
2, 10956, Note_on_c, 0, 62, 0
2, 10996, Note_on_c, 0, 52, 63
2, 11007, Note_on_c, 0, 67, 64
2, 11041, Note_on_c, 0, 52, 0
2, 11044, Note_on_c, 0, 67, 0
2, 11101, Note_on_c, 0, 61, 63
2, 11158, Note_on_c, 0, 61, 0
2, 11208, Note_on_c, 0, 62, 59
2, 11270, Note_on_c, 0, 62, 0
2, 11312, Note_on_c, 0, 69, 84
2, 11321, Note_on_c, 0, 54, 62
2, 11352, Note_on_c, 0, 69, 0
2, 11415, Note_on_c, 0, 54, 0
2, 11427, Note_on_c, 0, 61, 62
2, 11499, Note_on_c, 0, 61, 0
2, 11526, Note_on_c, 0, 62, 63
2, 11603, Note_on_c, 0, 62, 0
2, 11636, Note_on_c, 0, 71, 86
2, 11645, Note_on_c, 0, 55, 65
2, 11686, Note_on_c, 0, 71, 0
2, 11719, Note_on_c, 0, 55, 0
2, 11754, Note_on_c, 0, 61, 65
2, 11817, Note_on_c, 0, 61, 0
2, 11867, Note_on_c, 0, 62, 64
2, 11927, Note_on_c, 0, 62, 0
2, 11965, Note_on_c, 0, 69, 89
2, 11972, Note_on_c, 0, 54, 68
2, 12008, Note_on_c, 0, 69, 0
2, 12052, Note_on_c, 0, 54, 0
2, 12080, Note_on_c, 0, 61, 64
2, 12132, Note_on_c, 0, 61, 0
2, 12185, Note_on_c, 0, 62, 65
2, 12265, Note_on_c, 0, 62, 0
2, 12303, Note_on_c, 0, 67, 79
2, 12309, Note_on_c, 0, 52, 63
2, 12341, Note_on_c, 0, 67, 0
2, 12360, Note_on_c, 0, 52, 0
2, 12414, Note_on_c, 0, 61, 68
2, 12459, Note_on_c, 0, 61, 0
2, 12506, Note_on_c, 0, 62, 67
2, 12569, Note_on_c, 0, 62, 0
2, 12614, Note_on_c, 0, 66, 85
2, 12622, Note_on_c, 0, 50, 66
2, 12661, Note_on_c, 0, 66, 0
2, 12663, Note_on_c, 0, 50, 0
2, 12726, Note_on_c, 0, 61, 65
2, 12788, Note_on_c, 0, 61, 0
2, 12822, Note_on_c, 0, 62, 67
2, 12906, Note_on_c, 0, 62, 0
2, 12926, Note_on_c, 0, 54, 74
2, 12938, Note_on_c, 0, 69, 89
2, 12978, Note_on_c, 0, 69, 0
2, 13015, Note_on_c, 0, 54, 0
2, 13034, Note_on_c, 0, 61, 71
2, 13114, Note_on_c, 0, 61, 0
2, 13133, Note_on_c, 0, 62, 70
2, 13169, Note_on_c, 0, 62, 0
2, 13249, Note_on_c, 0, 68, 88
2, 13262, Note_on_c, 0, 47, 83
2, 13340, Note_on_c, 0, 68, 0
2, 13357, Note_on_c, 0, 71, 84
2, 13467, Note_on_c, 0, 74, 81
2, 13498, Note_on_c, 0, 71, 0
2, 13551, Note_on_c, 0, 47, 0
2, 13569, Note_on_c, 0, 77, 85
2, 13571, Note_on_c, 0, 59, 93
2, 13578, Note_on_c, 0, 74, 0
2, 13605, Note_on_c, 0, 59, 0
2, 13686, Note_on_c, 0, 74, 73
2, 13688, Note_on_c, 0, 77, 0
2, 13766, Note_on_c, 0, 74, 0
2, 13790, Note_on_c, 0, 71, 75
2, 13834, Note_on_c, 0, 71, 0
2, 13889, Note_on_c, 0, 74, 74
2, 13980, Note_on_c, 0, 74, 0
2, 13981, Note_on_c, 0, 71, 75
2, 14072, Note_on_c, 0, 71, 0
2, 14085, Note_on_c, 0, 68, 78
2, 14166, Note_on_c, 0, 57, 75
2, 14168, Note_on_c, 0, 68, 0
2, 14185, Note_on_c, 0, 71, 76
2, 14200, Note_on_c, 0, 57, 0
2, 14278, Note_on_c, 0, 71, 0
2, 14280, Note_on_c, 0, 68, 81
2, 14355, Note_on_c, 0, 68, 0
2, 14382, Note_on_c, 0, 64, 70
2, 14481, Note_on_c, 0, 56, 88
2, 14481, Note_on_c, 0, 64, 0
2, 14483, Note_on_c, 0, 62, 80
2, 14563, Note_on_c, 0, 62, 0
2, 14592, Note_on_c, 0, 65, 76
2, 14686, Note_on_c, 0, 68, 81
2, 14707, Note_on_c, 0, 65, 0
2, 14778, Note_on_c, 0, 44, 80
2, 14784, Note_on_c, 0, 68, 0
2, 14786, Note_on_c, 0, 71, 78
2, 14791, Note_on_c, 0, 56, 0
2, 14813, Note_on_c, 0, 44, 0
2, 14894, Note_on_c, 0, 68, 78
2, 14898, Note_on_c, 0, 71, 0
2, 14977, Note_on_c, 0, 68, 0
2, 14997, Note_on_c, 0, 65, 71
2, 15083, Note_on_c, 0, 65, 0
2, 15095, Note_on_c, 0, 68, 81
2, 15181, Note_on_c, 0, 68, 0
2, 15201, Note_on_c, 0, 65, 66
2, 15260, Note_on_c, 0, 65, 0
2, 15281, Note_on_c, 0, 62, 65
2, 15337, Note_on_c, 0, 62, 0
2, 15376, Note_on_c, 0, 56, 68
2, 15385, Note_on_c, 0, 65, 60
2, 15414, Note_on_c, 0, 56, 0
2, 15443, Note_on_c, 0, 65, 0
2, 15491, Note_on_c, 0, 62, 54
2, 15551, Note_on_c, 0, 62, 0
2, 15567, Note_on_c, 0, 59, 63
2, 15639, Note_on_c, 0, 59, 0
2, 15682, Note_on_c, 0, 60, 61
2, 15696, Note_on_c, 0, 57, 54
2, 15726, Note_on_c, 0, 60, 0
2, 15758, Note_on_c, 0, 57, 0
2, 15879, Note_on_c, 0, 64, 68
2, 15952, Note_on_c, 0, 64, 0
2, 15980, Note_on_c, 0, 69, 68
2, 15984, Note_on_c, 0, 77, 71
2, 16014, Note_on_c, 0, 77, 0
2, 16032, Note_on_c, 0, 69, 0
2, 16081, Note_on_c, 0, 64, 70
2, 16136, Note_on_c, 0, 64, 0
2, 16186, Note_on_c, 0, 60, 61
2, 16251, Note_on_c, 0, 60, 0
2, 16281, Note_on_c, 0, 72, 77
2, 16283, Note_on_c, 0, 64, 67
2, 16318, Note_on_c, 0, 72, 0
2, 16341, Note_on_c, 0, 64, 0
2, 16387, Note_on_c, 0, 60, 69
2, 16461, Note_on_c, 0, 60, 0
2, 16489, Note_on_c, 0, 57, 65
2, 16568, Note_on_c, 0, 57, 0
2, 16599, Note_on_c, 0, 69, 83
2, 16602, Note_on_c, 0, 60, 71
2, 16630, Note_on_c, 0, 69, 0
2, 16661, Note_on_c, 0, 60, 0
2, 16697, Note_on_c, 0, 57, 70
2, 16767, Note_on_c, 0, 57, 0
2, 16789, Note_on_c, 0, 52, 66
2, 16901, Note_on_c, 0, 52, 0
2, 16914, Note_on_c, 0, 64, 80
2, 16915, Note_on_c, 0, 48, 67
2, 16957, Note_on_c, 0, 64, 0
2, 17003, Note_on_c, 0, 48, 0
2, 17024, Note_on_c, 0, 52, 47
2, 17040, Note_on_c, 0, 53, 57
2, 17079, Note_on_c, 0, 53, 0
2, 17085, Note_on_c, 0, 52, 0
2, 17109, Note_on_c, 0, 57, 75
2, 17196, Note_on_c, 0, 57, 0
2, 17218, Note_on_c, 0, 60, 71
2, 17223, Note_on_c, 0, 76, 87
2, 17271, Note_on_c, 0, 76, 0
2, 17284, Note_on_c, 0, 60, 0
2, 17317, Note_on_c, 0, 57, 77
2, 17395, Note_on_c, 0, 57, 0
2, 17423, Note_on_c, 0, 52, 68
2, 17511, Note_on_c, 0, 52, 0
2, 17532, Note_on_c, 0, 72, 90
2, 17538, Note_on_c, 0, 57, 67
2, 17580, Note_on_c, 0, 72, 0
2, 17612, Note_on_c, 0, 57, 0
2, 17633, Note_on_c, 0, 52, 81
2, 17725, Note_on_c, 0, 52, 0
2, 17734, Note_on_c, 0, 48, 72
2, 17822, Note_on_c, 0, 48, 0
2, 17845, Note_on_c, 0, 52, 76
2, 17853, Note_on_c, 0, 69, 91
2, 17888, Note_on_c, 0, 69, 0
2, 17931, Note_on_c, 0, 52, 0
2, 17936, Note_on_c, 0, 48, 74
2, 18027, Note_on_c, 0, 45, 74
2, 18030, Note_on_c, 0, 48, 0
2, 18149, Note_on_c, 0, 45, 0
2, 18159, Note_on_c, 0, 42, 83
2, 18159, Note_on_c, 0, 75, 89
2, 18258, Note_on_c, 0, 78, 84
2, 18264, Note_on_c, 0, 75, 0
2, 18369, Note_on_c, 0, 81, 82
2, 18387, Note_on_c, 0, 78, 0
2, 18458, Note_on_c, 0, 42, 0
2, 18466, Note_on_c, 0, 54, 92
2, 18468, Note_on_c, 0, 84, 82
2, 18470, Note_on_c, 0, 81, 0
2, 18510, Note_on_c, 0, 54, 0
2, 18571, Note_on_c, 0, 81, 84
2, 18579, Note_on_c, 0, 84, 0
2, 18670, Note_on_c, 0, 78, 82
2, 18672, Note_on_c, 0, 81, 0
2, 18784, Note_on_c, 0, 81, 75
2, 18786, Note_on_c, 0, 78, 0
2, 18875, Note_on_c, 0, 78, 71
2, 18895, Note_on_c, 0, 81, 0
2, 18960, Note_on_c, 0, 75, 79
2, 18970, Note_on_c, 0, 78, 0
2, 19055, Note_on_c, 0, 75, 0
2, 19056, Note_on_c, 0, 52, 82
2, 19056, Note_on_c, 0, 78, 81
2, 19087, Note_on_c, 0, 52, 0
2, 19159, Note_on_c, 0, 75, 81
2, 19186, Note_on_c, 0, 78, 0
2, 19243, Note_on_c, 0, 75, 0
2, 19253, Note_on_c, 0, 71, 80
2, 19359, Note_on_c, 0, 71, 0
2, 19363, Note_on_c, 0, 69, 82
2, 19366, Note_on_c, 0, 51, 89
2, 19430, Note_on_c, 0, 69, 0
2, 19466, Note_on_c, 0, 72, 88
2, 19572, Note_on_c, 0, 75, 83
2, 19596, Note_on_c, 0, 72, 0
2, 19668, Note_on_c, 0, 39, 77
2, 19674, Note_on_c, 0, 75, 0
2, 19674, Note_on_c, 0, 78, 84
2, 19677, Note_on_c, 0, 51, 0
2, 19709, Note_on_c, 0, 39, 0
2, 19778, Note_on_c, 0, 75, 78
2, 19809, Note_on_c, 0, 78, 0
2, 19864, Note_on_c, 0, 72, 82
2, 19870, Note_on_c, 0, 75, 0
2, 19965, Note_on_c, 0, 75, 82
2, 19967, Note_on_c, 0, 72, 0
2, 20036, Note_on_c, 0, 76, 10
2, 20050, Note_on_c, 0, 76, 0
2, 20062, Note_on_c, 0, 72, 79
2, 20096, Note_on_c, 0, 75, 0
2, 20144, Note_on_c, 0, 72, 0
2, 20152, Note_on_c, 0, 69, 76
2, 20223, Note_on_c, 0, 69, 0
2, 20252, Note_on_c, 0, 72, 76
2, 20259, Note_on_c, 0, 51, 70
2, 20296, Note_on_c, 0, 51, 0
2, 20329, Note_on_c, 0, 72, 0
2, 20357, Note_on_c, 0, 69, 64
2, 20414, Note_on_c, 0, 69, 0
2, 20429, Note_on_c, 0, 66, 63
2, 20513, Note_on_c, 0, 66, 0
2, 20543, Note_on_c, 0, 67, 63
2, 20546, Note_on_c, 0, 52, 60
2, 20581, Note_on_c, 0, 67, 0
2, 20589, Note_on_c, 0, 52, 0
2, 20759, Note_on_c, 0, 64, 58
2, 20807, Note_on_c, 0, 64, 0
2, 20850, Note_on_c, 0, 54, 62
2, 20864, Note_on_c, 0, 69, 67
2, 20899, Note_on_c, 0, 69, 0
2, 20964, Note_on_c, 0, 63, 55
2, 20974, Note_on_c, 0, 54, 0
2, 21026, Note_on_c, 0, 63, 0
2, 21062, Note_on_c, 0, 64, 56
2, 21118, Note_on_c, 0, 64, 0
2, 21164, Note_on_c, 0, 71, 70
2, 21172, Note_on_c, 0, 55, 59
2, 21197, Note_on_c, 0, 71, 0
2, 21245, Note_on_c, 0, 55, 0
2, 21290, Note_on_c, 0, 63, 45
2, 21338, Note_on_c, 0, 63, 0
2, 21370, Note_on_c, 0, 64, 54
2, 21431, Note_on_c, 0, 64, 0
2, 21493, Note_on_c, 0, 72, 76
2, 21503, Note_on_c, 0, 57, 48
2, 21528, Note_on_c, 0, 72, 0
2, 21549, Note_on_c, 0, 57, 0
2, 21605, Note_on_c, 0, 63, 56
2, 21667, Note_on_c, 0, 63, 0
2, 21704, Note_on_c, 0, 64, 54
2, 21771, Note_on_c, 0, 64, 0
2, 21812, Note_on_c, 0, 55, 61
2, 21812, Note_on_c, 0, 71, 78
2, 21844, Note_on_c, 0, 71, 0
2, 21866, Note_on_c, 0, 55, 0
2, 21914, Note_on_c, 0, 63, 65
2, 21969, Note_on_c, 0, 63, 0
2, 22031, Note_on_c, 0, 64, 57
2, 22088, Note_on_c, 0, 64, 0
2, 22128, Note_on_c, 0, 69, 86
2, 22131, Note_on_c, 0, 54, 68
2, 22167, Note_on_c, 0, 69, 0
2, 22195, Note_on_c, 0, 54, 0
2, 22242, Note_on_c, 0, 63, 66
2, 22301, Note_on_c, 0, 63, 0
2, 22337, Note_on_c, 0, 64, 68
2, 22390, Note_on_c, 0, 64, 0
2, 22443, Note_on_c, 0, 67, 81
2, 22448, Note_on_c, 0, 52, 59
2, 22481, Note_on_c, 0, 52, 0
2, 22495, Note_on_c, 0, 67, 0
2, 22555, Note_on_c, 0, 63, 70
2, 22655, Note_on_c, 0, 64, 61
2, 22671, Note_on_c, 0, 63, 0
2, 22707, Note_on_c, 0, 64, 0
2, 22748, Note_on_c, 0, 55, 71
2, 22753, Note_on_c, 0, 71, 86
2, 22799, Note_on_c, 0, 71, 0
2, 22800, Note_on_c, 0, 55, 0
2, 22842, Note_on_c, 0, 63, 70
2, 22888, Note_on_c, 0, 63, 0
2, 22945, Note_on_c, 0, 64, 70
2, 22974, Note_on_c, 0, 64, 0
2, 23049, Note_on_c, 0, 49, 73
2, 23079, Note_on_c, 0, 69, 62
2, 23084, Note_on_c, 0, 49, 0
2, 23126, Note_on_c, 0, 69, 0
2, 23164, Note_on_c, 0, 68, 57
2, 23217, Note_on_c, 0, 68, 0
2, 23261, Note_on_c, 0, 69, 53
2, 23314, Note_on_c, 0, 69, 0
2, 23351, Note_on_c, 0, 71, 58
2, 23374, Note_on_c, 0, 50, 52
2, 23400, Note_on_c, 0, 71, 0
2, 23409, Note_on_c, 0, 50, 0
2, 23452, Note_on_c, 0, 68, 58
2, 23498, Note_on_c, 0, 68, 0
2, 23546, Note_on_c, 0, 69, 59
2, 23629, Note_on_c, 0, 69, 0
2, 23657, Note_on_c, 0, 73, 61
2, 23669, Note_on_c, 0, 52, 59
2, 23707, Note_on_c, 0, 52, 0
2, 23721, Note_on_c, 0, 73, 0
2, 23759, Note_on_c, 0, 68, 63
2, 23821, Note_on_c, 0, 68, 0
2, 23861, Note_on_c, 0, 69, 67
2, 23920, Note_on_c, 0, 69, 0
2, 23975, Note_on_c, 0, 54, 72
2, 23975, Note_on_c, 0, 74, 75
2, 24017, Note_on_c, 0, 54, 0
2, 24068, Note_on_c, 0, 74, 0
2, 24078, Note_on_c, 0, 68, 76
2, 24164, Note_on_c, 0, 68, 0
2, 24182, Note_on_c, 0, 69, 80
2, 24286, Note_on_c, 0, 49, 77
2, 24294, Note_on_c, 0, 76, 81
2, 24308, Note_on_c, 0, 69, 0
2, 24336, Note_on_c, 0, 49, 0
2, 24399, Note_on_c, 0, 68, 79
2, 24405, Note_on_c, 0, 76, 0
2, 24477, Note_on_c, 0, 68, 0
2, 24491, Note_on_c, 0, 69, 81
2, 24596, Note_on_c, 0, 47, 78
2, 24602, Note_on_c, 0, 78, 83
2, 24612, Note_on_c, 0, 69, 0
2, 24644, Note_on_c, 0, 47, 0
2, 24691, Note_on_c, 0, 68, 80
2, 24713, Note_on_c, 0, 78, 0
2, 24734, Note_on_c, 0, 68, 0
2, 24795, Note_on_c, 0, 69, 80
2, 24890, Note_on_c, 0, 69, 0
2, 24919, Note_on_c, 0, 79, 85
2, 24920, Note_on_c, 0, 45, 60
2, 24974, Note_on_c, 0, 45, 0
2, 25019, Note_on_c, 0, 76, 78
2, 25037, Note_on_c, 0, 79, 0
2, 25115, Note_on_c, 0, 73, 83
2, 25148, Note_on_c, 0, 76, 0
2, 25211, Note_on_c, 0, 49, 76
2, 25219, Note_on_c, 0, 73, 0
2, 25220, Note_on_c, 0, 69, 79
2, 25247, Note_on_c, 0, 49, 0
2, 25324, Note_on_c, 0, 73, 84
2, 25331, Note_on_c, 0, 69, 0
2, 25422, Note_on_c, 0, 76, 78
2, 25490, Note_on_c, 0, 73, 0
2, 25538, Note_on_c, 0, 50, 63
2, 25540, Note_on_c, 0, 78, 85
2, 25558, Note_on_c, 0, 76, 0
2, 25636, Note_on_c, 0, 54, 75
2, 25639, Note_on_c, 0, 50, 0
2, 25698, Control_c, 0, 64, 42
2, 25718, Control_c, 0, 64, 62
2, 25737, Control_c, 0, 64, 66
2, 25742, Note_on_c, 0, 57, 76
2, 25745, Note_on_c, 0, 54, 0
2, 25757, Control_c, 0, 64, 69
2, 25776, Control_c, 0, 64, 72
2, 25796, Control_c, 0, 64, 78
2, 25814, Control_c, 0, 64, 83
2, 25834, Control_c, 0, 64, 88
2, 25834, Note_on_c, 0, 62, 77
2, 25839, Note_on_c, 0, 57, 0
2, 25853, Control_c, 0, 64, 89
2, 25865, Note_on_c, 0, 78, 0
2, 25871, Control_c, 0, 64, 90
2, 25910, Control_c, 0, 64, 90
2, 25930, Control_c, 0, 64, 89
2, 25930, Note_on_c, 0, 57, 80
2, 25944, Note_on_c, 0, 62, 0
2, 25948, Control_c, 0, 64, 88
2, 25968, Control_c, 0, 64, 87
2, 25987, Control_c, 0, 64, 86
2, 26007, Control_c, 0, 64, 84
2, 26017, Note_on_c, 0, 54, 81
2, 26025, Control_c, 0, 64, 82
2, 26045, Control_c, 0, 64, 77
2, 26059, Note_on_c, 0, 57, 0
2, 26064, Control_c, 0, 64, 69
2, 26083, Control_c, 0, 64, 57
2, 26102, Control_c, 0, 64, 0
2, 26124, Note_on_c, 0, 50, 70
2, 26125, Note_on_c, 0, 54, 0
2, 26138, Note_on_c, 0, 81, 81
2, 26172, Note_on_c, 0, 50, 0
2, 26238, Note_on_c, 0, 78, 76
2, 26241, Note_on_c, 0, 81, 0
2, 26344, Note_on_c, 0, 74, 72
2, 26397, Note_on_c, 0, 78, 0
2, 26433, Note_on_c, 0, 62, 70
2, 26437, Note_on_c, 0, 72, 81
2, 26439, Note_on_c, 0, 74, 0
2, 26467, Note_on_c, 0, 62, 0
2, 26546, Note_on_c, 0, 74, 82
2, 26575, Note_on_c, 0, 72, 0
2, 26649, Note_on_c, 0, 78, 85
2, 26694, Note_on_c, 0, 74, 0
2, 26754, Note_on_c, 0, 50, 64
2, 26768, Note_on_c, 0, 81, 84
2, 26805, Note_on_c, 0, 78, 0
2, 26858, Note_on_c, 0, 55, 74
2, 26861, Note_on_c, 0, 50, 0
2, 26964, Note_on_c, 0, 55, 0
2, 26967, Note_on_c, 0, 59, 78
2, 27062, Note_on_c, 0, 59, 0
2, 27070, Note_on_c, 0, 62, 72
2, 27076, Note_on_c, 0, 79, 84
2, 27099, Note_on_c, 0, 81, 0
2, 27130, Note_on_c, 0, 79, 0
2, 27165, Note_on_c, 0, 59, 79
2, 27170, Note_on_c, 0, 62, 0
2, 27264, Note_on_c, 0, 55, 69
2, 27264, Note_on_c, 0, 59, 0
2, 27358, Note_on_c, 0, 55, 0
2, 27376, Note_on_c, 0, 50, 68
2, 27394, Note_on_c, 0, 79, 73
2, 27428, Note_on_c, 0, 50, 0
2, 27474, Note_on_c, 0, 79, 0
2, 27496, Note_on_c, 0, 76, 66
2, 27578, Note_on_c, 0, 76, 0
2, 27600, Note_on_c, 0, 73, 69
2, 27680, Note_on_c, 0, 73, 0
2, 27699, Note_on_c, 0, 62, 62
2, 27709, Note_on_c, 0, 69, 62
2, 27737, Note_on_c, 0, 62, 0
2, 27801, Note_on_c, 0, 69, 0
2, 27813, Note_on_c, 0, 73, 67
2, 27900, Note_on_c, 0, 76, 68
2, 27919, Note_on_c, 0, 73, 0
2, 28001, Note_on_c, 0, 50, 61
2, 28023, Note_on_c, 0, 76, 0
2, 28023, Note_on_c, 0, 79, 70
2, 28053, Note_on_c, 0, 50, 0
2, 28096, Note_on_c, 0, 57, 63
2, 28181, Note_on_c, 0, 57, 0
2, 28198, Note_on_c, 0, 61, 61
2, 28274, Note_on_c, 0, 61, 0
2, 28307, Note_on_c, 0, 62, 59
2, 28310, Note_on_c, 0, 79, 0
2, 28317, Note_on_c, 0, 78, 61
2, 28360, Note_on_c, 0, 78, 0
2, 28363, Note_on_c, 0, 62, 0
2, 28402, Note_on_c, 0, 57, 66
2, 28498, Note_on_c, 0, 57, 0
2, 28503, Note_on_c, 0, 54, 65
2, 28591, Note_on_c, 0, 54, 0
2, 28620, Note_on_c, 0, 50, 49
2, 28626, Note_on_c, 0, 78, 60
2, 28662, Note_on_c, 0, 50, 0
2, 28684, Note_on_c, 0, 78, 0
2, 28724, Note_on_c, 0, 74, 56
2, 28802, Note_on_c, 0, 74, 0
2, 28831, Note_on_c, 0, 71, 60
2, 28893, Note_on_c, 0, 71, 0
2, 28931, Note_on_c, 0, 62, 51
2, 28935, Note_on_c, 0, 67, 53
2, 28963, Note_on_c, 0, 62, 0
2, 28997, Note_on_c, 0, 67, 0
2, 29028, Note_on_c, 0, 71, 64
2, 29122, Note_on_c, 0, 71, 0
2, 29126, Note_on_c, 0, 74, 61
2, 29224, Note_on_c, 0, 74, 0
2, 29225, Note_on_c, 0, 50, 51
2, 29248, Note_on_c, 0, 78, 61
2, 29303, Note_on_c, 0, 50, 0
2, 29324, Note_on_c, 0, 52, 54
2, 29405, Note_on_c, 0, 52, 0
2, 29443, Note_on_c, 0, 55, 52
2, 29506, Note_on_c, 0, 55, 0
2, 29535, Note_on_c, 0, 59, 58
2, 29537, Note_on_c, 0, 76, 59
2, 29545, Note_on_c, 0, 78, 0
2, 29577, Note_on_c, 0, 76, 0
2, 29593, Note_on_c, 0, 59, 0
2, 29624, Note_on_c, 0, 55, 60
2, 29693, Note_on_c, 0, 55, 0
2, 29739, Note_on_c, 0, 52, 42
2, 29799, Note_on_c, 0, 52, 0
2, 29820, Note_on_c, 0, 50, 61
2, 29830, Note_on_c, 0, 76, 62
2, 29872, Note_on_c, 0, 50, 0
2, 29916, Note_on_c, 0, 76, 0
2, 29939, Note_on_c, 0, 73, 55
2, 30043, Note_on_c, 0, 69, 63
2, 30053, Note_on_c, 0, 73, 0
2, 30095, Note_on_c, 0, 69, 0
2, 30132, Note_on_c, 0, 62, 58
2, 30139, Note_on_c, 0, 67, 61
2, 30172, Note_on_c, 0, 62, 0
2, 30207, Note_on_c, 0, 67, 0
2, 30234, Note_on_c, 0, 69, 64
2, 30320, Note_on_c, 0, 69, 0
2, 30335, Note_on_c, 0, 73, 61
2, 30435, Note_on_c, 0, 50, 52
2, 30444, Note_on_c, 0, 73, 0
2, 30463, Note_on_c, 0, 76, 58
2, 30525, Note_on_c, 0, 50, 0
2, 30551, Note_on_c, 0, 54, 56
2, 30625, Note_on_c, 0, 54, 0
2, 30661, Note_on_c, 0, 57, 55
2, 30723, Note_on_c, 0, 57, 0
2, 30729, Note_on_c, 0, 76, 0
2, 30759, Note_on_c, 0, 74, 51
2, 30765, Note_on_c, 0, 62, 54
2, 30825, Note_on_c, 0, 62, 0
2, 30856, Note_on_c, 0, 74, 0
2, 30864, Note_on_c, 0, 57, 61
2, 30918, Note_on_c, 0, 57, 0
2, 30954, Note_on_c, 0, 54, 68
2, 31040, Note_on_c, 0, 54, 0
2, 31052, Note_on_c, 0, 57, 70
2, 31137, Note_on_c, 0, 57, 0
2, 31148, Note_on_c, 0, 54, 67
2, 31239, Note_on_c, 0, 54, 0
2, 31244, Note_on_c, 0, 50, 70
2, 31332, Note_on_c, 0, 50, 0
2, 31355, Note_on_c, 0, 54, 72
2, 31359, Note_on_c, 0, 74, 68
2, 31394, Note_on_c, 0, 74, 0
2, 31435, Note_on_c, 0, 50, 64
2, 31435, Note_on_c, 0, 54, 0
2, 31531, Note_on_c, 0, 50, 0
2, 31536, Note_on_c, 0, 48, 59
2, 31654, Note_on_c, 0, 48, 0
2, 31679, Note_on_c, 0, 47, 57
2, 31681, Note_on_c, 0, 74, 62
2, 31786, Note_on_c, 0, 72, 66
2, 31790, Note_on_c, 0, 50, 55
2, 31794, Note_on_c, 0, 47, 0
2, 31859, Note_on_c, 0, 74, 0
2, 31860, Note_on_c, 0, 50, 0
2, 31875, Note_on_c, 0, 71, 75
2, 31882, Note_on_c, 0, 54, 69
2, 31884, Note_on_c, 0, 72, 0
2, 31914, Note_on_c, 0, 71, 0
2, 31958, Note_on_c, 0, 54, 0
2, 31984, Note_on_c, 0, 55, 64
2, 31993, Note_on_c, 0, 71, 78
2, 32064, Note_on_c, 0, 55, 0
2, 32072, Note_on_c, 0, 50, 72
2, 32079, Note_on_c, 0, 69, 80
2, 32139, Note_on_c, 0, 71, 0
2, 32155, Note_on_c, 0, 50, 0
2, 32170, Note_on_c, 0, 67, 73
2, 32174, Note_on_c, 0, 47, 70
2, 32177, Note_on_c, 0, 69, 0
2, 32204, Note_on_c, 0, 67, 0
2, 32252, Note_on_c, 0, 47, 0
2, 32274, Note_on_c, 0, 50, 73
2, 32275, Note_on_c, 0, 67, 74
2, 32358, Note_on_c, 0, 50, 0
2, 32367, Note_on_c, 0, 71, 80
2, 32369, Note_on_c, 0, 47, 75
2, 32373, Note_on_c, 0, 67, 0
2, 32470, Note_on_c, 0, 47, 0
2, 32473, Note_on_c, 0, 74, 77
2, 32474, Note_on_c, 0, 43, 74
2, 32493, Note_on_c, 0, 71, 0
2, 32564, Note_on_c, 0, 43, 0
2, 32571, Note_on_c, 0, 74, 0
2, 32573, Note_on_c, 0, 77, 77
2, 32575, Note_on_c, 0, 47, 75
2, 32658, Note_on_c, 0, 43, 71
2, 32665, Note_on_c, 0, 76, 80
2, 32666, Note_on_c, 0, 47, 0
2, 32700, Note_on_c, 0, 77, 0
2, 32761, Note_on_c, 0, 74, 76
2, 32763, Note_on_c, 0, 43, 0
2, 32764, Note_on_c, 0, 41, 72
2, 32772, Note_on_c, 0, 76, 0
2, 32795, Note_on_c, 0, 74, 0
2, 32851, Note_on_c, 0, 41, 0
2, 32863, Note_on_c, 0, 40, 76
2, 32865, Note_on_c, 0, 74, 87
2, 32949, Note_on_c, 0, 43, 71
2, 32951, Note_on_c, 0, 40, 0
2, 32967, Note_on_c, 0, 76, 87
2, 32984, Note_on_c, 0, 74, 0
2, 33045, Note_on_c, 0, 43, 0
2, 33061, Note_on_c, 0, 47, 68
2, 33073, Note_on_c, 0, 76, 0
2, 33077, Note_on_c, 0, 77, 76
2, 33138, Note_on_c, 0, 47, 0
2, 33157, Note_on_c, 0, 48, 69
2, 33172, Note_on_c, 0, 77, 0
2, 33173, Note_on_c, 0, 76, 75
2, 33213, Note_on_c, 0, 48, 0
2, 33268, Note_on_c, 0, 52, 72
2, 33347, Note_on_c, 0, 76, 0
2, 33375, Note_on_c, 0, 55, 75
2, 33376, Note_on_c, 0, 52, 0
2, 33469, Note_on_c, 0, 55, 0
2, 33474, Note_on_c, 0, 60, 76
2, 33556, Note_on_c, 0, 60, 0
2, 33562, Note_on_c, 0, 55, 78
2, 33655, Note_on_c, 0, 52, 74
2, 33655, Note_on_c, 0, 55, 0
2, 33744, Note_on_c, 0, 52, 0
2, 33766, Note_on_c, 0, 55, 77
2, 33770, Note_on_c, 0, 76, 85
2, 33815, Note_on_c, 0, 76, 0
2, 33845, Note_on_c, 0, 52, 72
2, 33845, Note_on_c, 0, 55, 0
2, 33944, Note_on_c, 0, 52, 0
2, 33954, Note_on_c, 0, 50, 68
2, 34073, Note_on_c, 0, 50, 0
2, 34074, Note_on_c, 0, 76, 72
2, 34076, Note_on_c, 0, 49, 70
2, 34161, Note_on_c, 0, 49, 0
2, 34166, Note_on_c, 0, 52, 71
2, 34182, Note_on_c, 0, 74, 72
2, 34224, Note_on_c, 0, 76, 0
2, 34256, Note_on_c, 0, 73, 80
2, 34265, Note_on_c, 0, 74, 0
2, 34271, Note_on_c, 0, 55, 71
2, 34284, Note_on_c, 0, 52, 0
2, 34323, Note_on_c, 0, 73, 0
2, 34349, Note_on_c, 0, 55, 0
2, 34367, Note_on_c, 0, 57, 67
2, 34373, Note_on_c, 0, 73, 70
2, 34440, Note_on_c, 0, 57, 0
2, 34455, Note_on_c, 0, 71, 74
2, 34457, Note_on_c, 0, 52, 75
2, 34549, Note_on_c, 0, 69, 80
2, 34557, Note_on_c, 0, 49, 72
2, 34559, Note_on_c, 0, 52, 0
2, 34566, Note_on_c, 0, 73, 0
2, 34572, Note_on_c, 0, 71, 0
2, 34584, Note_on_c, 0, 69, 0
2, 34613, Note_on_c, 0, 49, 0
2, 34639, Note_on_c, 0, 52, 68
2, 34652, Note_on_c, 0, 69, 78
2, 34749, Note_on_c, 0, 52, 0
2, 34759, Note_on_c, 0, 73, 76
2, 34764, Note_on_c, 0, 50, 64
2, 34781, Note_on_c, 0, 69, 0
2, 34807, Note_on_c, 0, 50, 0
2, 34828, Note_on_c, 0, 46, 69
2, 34848, Note_on_c, 0, 76, 78
2, 34871, Note_on_c, 0, 73, 0
2, 34912, Note_on_c, 0, 46, 0
2, 34938, Note_on_c, 0, 49, 81
2, 34944, Note_on_c, 0, 76, 0
2, 34947, Note_on_c, 0, 79, 79
2, 35032, Note_on_c, 0, 45, 68
2, 35035, Note_on_c, 0, 78, 82
2, 35040, Note_on_c, 0, 49, 0
2, 35069, Note_on_c, 0, 79, 0
2, 35126, Note_on_c, 0, 43, 60
2, 35128, Note_on_c, 0, 45, 0
2, 35128, Note_on_c, 0, 76, 77
2, 35155, Note_on_c, 0, 78, 0
2, 35162, Note_on_c, 0, 76, 0
2, 35218, Note_on_c, 0, 42, 75
2, 35233, Note_on_c, 0, 76, 83
2, 35240, Note_on_c, 0, 43, 0
2, 35308, Note_on_c, 0, 42, 0
2, 35326, Note_on_c, 0, 78, 76
2, 35327, Note_on_c, 0, 45, 56
2, 35347, Note_on_c, 0, 76, 0
2, 35402, Note_on_c, 0, 45, 0
2, 35419, Note_on_c, 0, 79, 76
2, 35421, Note_on_c, 0, 49, 70
2, 35422, Note_on_c, 0, 78, 0
2, 35487, Note_on_c, 0, 49, 0
2, 35527, Note_on_c, 0, 79, 0
2, 35533, Note_on_c, 0, 78, 79
2, 35535, Note_on_c, 0, 50, 69
2, 35589, Note_on_c, 0, 50, 0
2, 35639, Note_on_c, 0, 54, 74
2, 35678, Note_on_c, 0, 78, 0
2, 35748, Note_on_c, 0, 54, 0
2, 35748, Note_on_c, 0, 57, 76
2, 35836, Note_on_c, 0, 57, 0
2, 35847, Note_on_c, 0, 62, 73
2, 35935, Note_on_c, 0, 57, 78
2, 35936, Note_on_c, 0, 62, 0
2, 36021, Note_on_c, 0, 54, 78
2, 36024, Note_on_c, 0, 57, 0
2, 36123, Note_on_c, 0, 54, 0
2, 36129, Note_on_c, 0, 81, 94
2, 36150, Note_on_c, 0, 57, 62
2, 36190, Note_on_c, 0, 81, 0
2, 36192, Note_on_c, 0, 55, 32
2, 36233, Note_on_c, 0, 57, 0
2, 36236, Note_on_c, 0, 54, 79
2, 36240, Note_on_c, 0, 55, 0
2, 36328, Note_on_c, 0, 49, 77
2, 36332, Note_on_c, 0, 54, 0
2, 36389, Note_on_c, 0, 50, 59
2, 36390, Note_on_c, 0, 49, 0
2, 36440, Note_on_c, 0, 81, 91
2, 36449, Note_on_c, 0, 50, 0
2, 36490, Note_on_c, 0, 53, 62
2, 36541, Note_on_c, 0, 53, 0
2, 36545, Note_on_c, 0, 79, 80
2, 36546, Note_on_c, 0, 50, 77
2, 36590, Note_on_c, 0, 81, 0
2, 36627, Note_on_c, 0, 78, 79
2, 36627, Note_on_c, 0, 79, 0
2, 36636, Note_on_c, 0, 50, 0
2, 36641, Note_on_c, 0, 45, 68
2, 36676, Note_on_c, 0, 78, 0
2, 36701, Note_on_c, 0, 45, 0
2, 36727, Note_on_c, 0, 78, 71
2, 36743, Note_on_c, 0, 50, 74
2, 36812, Note_on_c, 0, 50, 0
2, 36813, Note_on_c, 0, 76, 78
2, 36820, Note_on_c, 0, 45, 73
2, 36870, Note_on_c, 0, 78, 0
2, 36897, Note_on_c, 0, 42, 73
2, 36903, Note_on_c, 0, 74, 71
2, 36911, Note_on_c, 0, 45, 0
2, 36925, Note_on_c, 0, 76, 0
2, 36938, Note_on_c, 0, 74, 0
2, 36978, Note_on_c, 0, 38, 85
2, 36985, Note_on_c, 0, 42, 0
2, 37004, Note_on_c, 0, 74, 81
2, 37013, Note_on_c, 0, 38, 0
2, 37110, Note_on_c, 0, 78, 80
2, 37126, Note_on_c, 0, 74, 0
2, 37204, Note_on_c, 0, 81, 84
2, 37228, Note_on_c, 0, 78, 0
2, 37299, Note_on_c, 0, 50, 89
2, 37300, Note_on_c, 0, 84, 81
2, 37302, Note_on_c, 0, 81, 0
2, 37332, Note_on_c, 0, 50, 0
2, 37397, Note_on_c, 0, 83, 87
2, 37423, Note_on_c, 0, 84, 0
2, 37496, Note_on_c, 0, 81, 90
2, 37522, Note_on_c, 0, 83, 0
2, 37562, Note_on_c, 0, 81, 0
2, 37607, Note_on_c, 0, 43, 82
2, 37622, Note_on_c, 0, 81, 87
2, 37687, Note_on_c, 0, 81, 0
2, 37734, Note_on_c, 0, 83, 93
2, 37840, Note_on_c, 0, 84, 84
2, 37849, Note_on_c, 0, 83, 0
2, 37945, Note_on_c, 0, 83, 95
2, 37974, Note_on_c, 0, 84, 0
2, 38042, Note_on_c, 0, 47, 79
2, 38071, Note_on_c, 0, 43, 0
2, 38153, Note_on_c, 0, 50, 77
2, 38154, Note_on_c, 0, 47, 0
2, 38237, Note_on_c, 0, 50, 0
2, 38249, Note_on_c, 0, 55, 78
2, 38307, Note_on_c, 0, 55, 0
2, 38351, Note_on_c, 0, 81, 84
2, 38367, Note_on_c, 0, 57, 84
2, 38370, Note_on_c, 0, 83, 0
2, 38446, Note_on_c, 0, 81, 0
2, 38450, Note_on_c, 0, 57, 0
2, 38460, Note_on_c, 0, 79, 78
2, 38464, Note_on_c, 0, 59, 76
2, 38498, Note_on_c, 0, 59, 0
2, 38562, Note_on_c, 0, 77, 79
2, 38563, Note_on_c, 0, 59, 86
2, 38582, Note_on_c, 0, 79, 0
2, 38655, Note_on_c, 0, 60, 70
2, 38657, Note_on_c, 0, 76, 76
2, 38658, Note_on_c, 0, 59, 0
2, 38695, Note_on_c, 0, 77, 0
2, 38730, Note_on_c, 0, 60, 0
2, 38744, Note_on_c, 0, 62, 73
2, 38765, Note_on_c, 0, 74, 73
2, 38768, Note_on_c, 0, 76, 0
2, 38819, Note_on_c, 0, 62, 0
2, 38834, Note_on_c, 0, 74, 0
2, 38858, Note_on_c, 0, 72, 74
2, 38864, Note_on_c, 0, 64, 68
2, 38897, Note_on_c, 0, 64, 0
2, 38937, Note_on_c, 0, 72, 0
2, 38958, Note_on_c, 0, 76, 69
2, 39045, Note_on_c, 0, 76, 0
2, 39056, Note_on_c, 0, 79, 65
2, 39152, Note_on_c, 0, 79, 0
2, 39167, Note_on_c, 0, 60, 59
2, 39168, Note_on_c, 0, 81, 62
2, 39228, Note_on_c, 0, 60, 0
2, 39254, Note_on_c, 0, 81, 0
2, 39264, Note_on_c, 0, 57, 55
2, 39271, Note_on_c, 0, 78, 60
2, 39341, Note_on_c, 0, 54, 57
2, 39378, Note_on_c, 0, 78, 0
2, 39382, Note_on_c, 0, 74, 57
2, 39386, Note_on_c, 0, 57, 0
2, 39425, Note_on_c, 0, 54, 0
2, 39432, Note_on_c, 0, 74, 0
2, 39468, Note_on_c, 0, 62, 55
2, 39489, Note_on_c, 0, 71, 55
2, 39508, Note_on_c, 0, 62, 0
2, 39554, Note_on_c, 0, 71, 0
2, 39577, Note_on_c, 0, 74, 59
2, 39663, Note_on_c, 0, 74, 0
2, 39679, Note_on_c, 0, 78, 60
2, 39775, Note_on_c, 0, 59, 62
2, 39791, Note_on_c, 0, 79, 60
2, 39799, Note_on_c, 0, 78, 0
2, 39864, Note_on_c, 0, 59, 0
2, 39880, Note_on_c, 0, 55, 61
2, 39885, Note_on_c, 0, 79, 0
2, 39891, Note_on_c, 0, 76, 64
2, 39978, Note_on_c, 0, 76, 0
2, 39989, Note_on_c, 0, 52, 59
2, 40001, Note_on_c, 0, 72, 68
2, 40017, Note_on_c, 0, 55, 0
2, 40078, Note_on_c, 0, 72, 0
2, 40087, Note_on_c, 0, 52, 0
2, 40093, Note_on_c, 0, 60, 66
2, 40106, Note_on_c, 0, 69, 67
2, 40127, Note_on_c, 0, 60, 0
2, 40189, Note_on_c, 0, 72, 77
2, 40192, Note_on_c, 0, 69, 0
2, 40296, Note_on_c, 0, 76, 65
2, 40318, Note_on_c, 0, 72, 0
2, 40404, Note_on_c, 0, 78, 72
2, 40412, Note_on_c, 0, 57, 63
2, 40422, Note_on_c, 0, 76, 0
2, 40486, Note_on_c, 0, 78, 0
2, 40493, Note_on_c, 0, 54, 76
2, 40501, Note_on_c, 0, 57, 0
2, 40506, Note_on_c, 0, 74, 71
2, 40605, Note_on_c, 0, 50, 68
2, 40609, Note_on_c, 0, 71, 79
2, 40634, Note_on_c, 0, 54, 0
2, 40651, Note_on_c, 0, 74, 0
2, 40688, Note_on_c, 0, 50, 0
2, 40694, Note_on_c, 0, 59, 77
2, 40711, Note_on_c, 0, 71, 0
2, 40719, Note_on_c, 0, 67, 71
2, 40733, Note_on_c, 0, 59, 0
2, 40816, Note_on_c, 0, 71, 80
2, 40830, Note_on_c, 0, 67, 0
2, 40914, Note_on_c, 0, 74, 74
2, 40924, Note_on_c, 0, 71, 0
2, 41007, Note_on_c, 0, 55, 73
2, 41025, Note_on_c, 0, 76, 77
2, 41037, Note_on_c, 0, 74, 0
2, 41105, Note_on_c, 0, 52, 74
2, 41113, Note_on_c, 0, 55, 0
2, 41118, Note_on_c, 0, 72, 77
2, 41165, Note_on_c, 0, 76, 0
2, 41210, Note_on_c, 0, 48, 68
2, 41227, Note_on_c, 0, 69, 78
2, 41228, Note_on_c, 0, 52, 0
2, 41234, Note_on_c, 0, 72, 0
2, 41317, Note_on_c, 0, 57, 73
2, 41318, Note_on_c, 0, 48, 0
2, 41327, Note_on_c, 0, 69, 0
2, 41331, Note_on_c, 0, 66, 76
2, 41358, Note_on_c, 0, 57, 0
2, 41398, Note_on_c, 0, 66, 0
2, 41442, Note_on_c, 0, 69, 65
2, 41517, Note_on_c, 0, 69, 0
2, 41517, Note_on_c, 0, 72, 72
2, 41628, Note_on_c, 0, 54, 69
2, 41630, Note_on_c, 0, 74, 68
2, 41642, Note_on_c, 0, 72, 0
2, 41721, Note_on_c, 0, 50, 71
2, 41727, Note_on_c, 0, 54, 0
2, 41732, Note_on_c, 0, 71, 73
2, 41741, Note_on_c, 0, 74, 0
2, 41840, Note_on_c, 0, 47, 61
2, 41840, Note_on_c, 0, 67, 73
2, 41843, Note_on_c, 0, 50, 0
2, 41885, Note_on_c, 0, 71, 0
2, 41907, Note_on_c, 0, 47, 0
2, 41934, Note_on_c, 0, 67, 0
2, 41938, Note_on_c, 0, 55, 65
2, 41945, Note_on_c, 0, 64, 74
2, 41972, Note_on_c, 0, 55, 0
2, 42045, Note_on_c, 0, 64, 0
2, 42053, Note_on_c, 0, 67, 69
2, 42143, Note_on_c, 0, 67, 0
2, 42147, Note_on_c, 0, 71, 70
2, 42244, Note_on_c, 0, 52, 56
2, 42257, Note_on_c, 0, 71, 0
2, 42260, Note_on_c, 0, 72, 67
2, 42324, Note_on_c, 0, 52, 0
2, 42342, Note_on_c, 0, 48, 61
2, 42343, Note_on_c, 0, 72, 0
2, 42356, Note_on_c, 0, 69, 68
2, 42444, Note_on_c, 0, 69, 0
2, 42452, Note_on_c, 0, 48, 0
2, 42457, Note_on_c, 0, 66, 66
2, 42460, Note_on_c, 0, 45, 62
2, 42518, Note_on_c, 0, 45, 0
2, 42530, Note_on_c, 0, 66, 0
2, 42569, Note_on_c, 0, 54, 62
2, 42571, Note_on_c, 0, 62, 58
2, 42610, Note_on_c, 0, 54, 0
2, 42667, Note_on_c, 0, 66, 63
2, 42671, Note_on_c, 0, 62, 0
2, 42761, Note_on_c, 0, 66, 0
2, 42762, Note_on_c, 0, 69, 58
2, 42868, Note_on_c, 0, 69, 0
2, 42868, Note_on_c, 0, 71, 61
2, 42869, Note_on_c, 0, 50, 61
2, 42960, Note_on_c, 0, 71, 0
2, 42972, Note_on_c, 0, 67, 63
2, 42976, Note_on_c, 0, 50, 0
2, 42980, Note_on_c, 0, 47, 65
2, 43061, Note_on_c, 0, 43, 67
2, 43061, Note_on_c, 0, 47, 0
2, 43077, Note_on_c, 0, 64, 74
2, 43093, Note_on_c, 0, 67, 0
2, 43165, Note_on_c, 0, 64, 0
2, 43172, Note_on_c, 0, 52, 77
2, 43180, Note_on_c, 0, 60, 71
2, 43207, Note_on_c, 0, 43, 0
2, 43275, Note_on_c, 0, 48, 79
2, 43275, Note_on_c, 0, 64, 80
2, 43283, Note_on_c, 0, 52, 0
2, 43298, Note_on_c, 0, 60, 0
2, 43368, Note_on_c, 0, 45, 73
2, 43368, Note_on_c, 0, 48, 0
2, 43371, Note_on_c, 0, 67, 77
2, 43394, Note_on_c, 0, 64, 0
2, 43428, Note_on_c, 0, 45, 0
2, 43466, Note_on_c, 0, 54, 75
2, 43473, Note_on_c, 0, 67, 0
2, 43474, Note_on_c, 0, 69, 76
2, 43506, Note_on_c, 0, 54, 0
2, 43564, Note_on_c, 0, 50, 84
2, 43568, Note_on_c, 0, 66, 69
2, 43582, Note_on_c, 0, 69, 0
2, 43658, Note_on_c, 0, 47, 72
2, 43672, Note_on_c, 0, 66, 0
2, 43674, Note_on_c, 0, 62, 72
2, 43677, Note_on_c, 0, 50, 0
2, 43746, Note_on_c, 0, 47, 0
2, 43762, Note_on_c, 0, 62, 0
2, 43774, Note_on_c, 0, 55, 79
2, 43777, Note_on_c, 0, 59, 72
2, 43816, Note_on_c, 0, 55, 0
2, 43878, Note_on_c, 0, 59, 0
2, 43883, Note_on_c, 0, 62, 66
2, 43966, Note_on_c, 0, 62, 0
2, 43977, Note_on_c, 0, 66, 64
2, 44102, Note_on_c, 0, 67, 55
2, 44109, Note_on_c, 0, 52, 51
2, 44111, Note_on_c, 0, 66, 0
2, 44145, Note_on_c, 0, 52, 0
2, 44191, Note_on_c, 0, 67, 0
2, 44216, Note_on_c, 0, 64, 53
2, 44311, Note_on_c, 0, 64, 0
2, 44337, Note_on_c, 0, 60, 53
2, 44431, Note_on_c, 0, 60, 0
2, 44463, Note_on_c, 0, 48, 45
2, 44470, Note_on_c, 0, 57, 54
2, 44514, Note_on_c, 0, 48, 0
2, 44553, Note_on_c, 0, 57, 0
2, 44590, Note_on_c, 0, 60, 57
2, 44695, Note_on_c, 0, 60, 0
2, 44709, Note_on_c, 0, 64, 54
2, 44874, Note_on_c, 0, 50, 50
2, 44883, Note_on_c, 0, 66, 50
2, 44935, Note_on_c, 0, 50, 0
2, 44947, Note_on_c, 0, 64, 0
2, 45038, Note_on_c, 0, 66, 0
2, 45066, Note_on_c, 0, 62, 46
2, 45266, Note_on_c, 0, 60, 44
2, 45304, Note_on_c, 0, 62, 0
2, 45439, Note_on_c, 0, 43, 42
2, 45570, Note_on_c, 0, 50, 52
2, 45671, Note_on_c, 0, 55, 46
2, 45714, Note_on_c, 0, 60, 0
2, 45749, Note_on_c, 0, 57, 54
2, 45861, Note_on_c, 0, 59, 64
2, 45896, Note_on_c, 0, 57, 0
2, 45966, Note_on_c, 0, 62, 60
2, 46059, Note_on_c, 0, 67, 62
2, 48970, Note_on_c, 0, 43, 0
2, 48981, Note_on_c, 0, 55, 0
2, 49002, Note_on_c, 0, 59, 0
2, 49004, Note_on_c, 0, 50, 0
2, 49021, Note_on_c, 0, 67, 0
2, 49091, Note_on_c, 0, 62, 0
2, 50208,End_track
0, 0, End_of_file
