0, 0, Header, 1, 2, 480
1, 0, Start_track
1, 0, Tempo, 500000
1, 0, Time_signature, 4, 2, 24, 8
1, 1, End_track
2, 0, Start_track
2, 0, Program_c, 0, 0
2, 480, Control_c, 0, 64, 9
2, 499, Control_c, 0, 64, 41
2, 518, Control_c, 0, 64, 53
2, 538, Control_c, 0, 64, 58
2, 557, Control_c, 0, 64, 62
2, 576, Control_c, 0, 64, 63
2, 595, Control_c, 0, 64, 64
2, 615, Control_c, 0, 64, 65
2, 634, Control_c, 0, 64, 67
2, 653, Control_c, 0, 64, 70
2, 672, Control_c, 0, 64, 76
2, 692, Control_c, 0, 64, 85
2, 710, Control_c, 0, 64, 94
2, 730, Control_c, 0, 64, 104
2, 749, Control_c, 0, 64, 127
2, 864, Control_c, 0, 64, 113
2, 883, Control_c, 0, 64, 106
2, 903, Control_c, 0, 64, 101
2, 914, Control_c, 0, 64, 96
2, 927, Control_c, 0, 64, 90
2, 940, Note_on_c, 0, 59, 52
2, 944, Control_c, 0, 64, 84
2, 953, Note_on_c, 0, 67, 51
2, 958, Note_on_c, 0, 55, 40
2, 962, Control_c, 0, 64, 77
2, 982, Control_c, 0, 64, 71
2, 1001, Control_c, 0, 64, 65
2, 1020, Control_c, 0, 64, 60
2, 1037, Note_on_c, 0, 67, 0
2, 1039, Control_c, 0, 64, 53
2, 1058, Control_c, 0, 64, 41
2, 1067, Note_on_c, 0, 74, 58
2, 1078, Control_c, 0, 64, 0
2, 1159, Note_on_c, 0, 74, 0
2, 1169, Note_on_c, 0, 57, 49
2, 1172, Note_on_c, 0, 66, 63
2, 1177, Note_on_c, 0, 59, 0
2, 1226, Note_on_c, 0, 66, 0
2, 1236, Note_on_c, 0, 57, 0
2, 1284, Note_on_c, 0, 74, 48
2, 1340, Note_on_c, 0, 74, 0
2, 1382, Note_on_c, 0, 59, 55
2, 1383, Note_on_c, 0, 67, 58
2, 1426, Note_on_c, 0, 59, 0
2, 1437, Note_on_c, 0, 67, 0
2, 1485, Note_on_c, 0, 74, 48
2, 1574, Note_on_c, 0, 74, 0
2, 1593, Note_on_c, 0, 69, 67
2, 1605, Note_on_c, 0, 60, 51
2, 1641, Note_on_c, 0, 60, 0
2, 1663, Note_on_c, 0, 69, 0
2, 1712, Note_on_c, 0, 74, 63
2, 1762, Note_on_c, 0, 74, 0
2, 1805, Note_on_c, 0, 62, 61
2, 1809, Note_on_c, 0, 71, 69
2, 1847, Note_on_c, 0, 62, 0
2, 1867, Note_on_c, 0, 71, 0
2, 1906, Note_on_c, 0, 74, 66
2, 1996, Note_on_c, 0, 74, 0
2, 2023, Note_on_c, 0, 72, 66
2, 2024, Note_on_c, 0, 64, 61
2, 2059, Note_on_c, 0, 64, 0
2, 2100, Note_on_c, 0, 72, 0
2, 2125, Note_on_c, 0, 74, 42
2, 2227, Note_on_c, 0, 74, 0
2, 2241, Note_on_c, 0, 62, 53
2, 2241, Note_on_c, 0, 71, 68
2, 2278, Note_on_c, 0, 62, 0
2, 2335, Note_on_c, 0, 71, 0
2, 2361, Note_on_c, 0, 74, 64
2, 2423, Note_on_c, 0, 74, 0
2, 2447, Note_on_c, 0, 60, 49
2, 2461, Note_on_c, 0, 69, 63
2, 2480, Note_on_c, 0, 60, 0
2, 2523, Note_on_c, 0, 69, 0
2, 2565, Note_on_c, 0, 74, 61
2, 2623, Note_on_c, 0, 74, 0
2, 2660, Note_on_c, 0, 67, 63
2, 2676, Note_on_c, 0, 59, 38
2, 2712, Note_on_c, 0, 59, 0
2, 2740, Note_on_c, 0, 67, 0
2, 2781, Note_on_c, 0, 74, 58
2, 2865, Note_on_c, 0, 74, 0
2, 2871, Note_on_c, 0, 64, 59
2, 2877, Note_on_c, 0, 72, 65
2, 2906, Note_on_c, 0, 64, 0
2, 2965, Note_on_c, 0, 72, 0
2, 2971, Note_on_c, 0, 74, 54
2, 3041, Note_on_c, 0, 74, 0
2, 3082, Note_on_c, 0, 71, 64
2, 3091, Note_on_c, 0, 62, 59
2, 3128, Note_on_c, 0, 62, 0
2, 3171, Note_on_c, 0, 71, 0
2, 3189, Note_on_c, 0, 74, 59
2, 3249, Note_on_c, 0, 74, 0
2, 3293, Note_on_c, 0, 60, 65
2, 3295, Note_on_c, 0, 69, 65
2, 3329, Note_on_c, 0, 60, 0
2, 3362, Note_on_c, 0, 69, 0
2, 3396, Note_on_c, 0, 74, 63
2, 3489, Note_on_c, 0, 74, 0
2, 3509, Note_on_c, 0, 71, 67
2, 3515, Note_on_c, 0, 62, 56
2, 3556, Note_on_c, 0, 62, 0
2, 3597, Note_on_c, 0, 71, 0
2, 3612, Note_on_c, 0, 74, 56
2, 3681, Note_on_c, 0, 74, 0
2, 3711, Note_on_c, 0, 69, 65
2, 3719, Note_on_c, 0, 60, 57
2, 3749, Note_on_c, 0, 60, 0
2, 3772, Note_on_c, 0, 69, 0
2, 3812, Note_on_c, 0, 74, 57
2, 3871, Note_on_c, 0, 74, 0
2, 3915, Note_on_c, 0, 67, 59
2, 3927, Note_on_c, 0, 59, 62
2, 3960, Note_on_c, 0, 59, 0
2, 3995, Note_on_c, 0, 67, 0
2, 4032, Note_on_c, 0, 74, 58
2, 4110, Note_on_c, 0, 74, 0
2, 4132, Note_on_c, 0, 71, 67
2, 4147, Note_on_c, 0, 62, 45
2, 4182, Note_on_c, 0, 62, 0
2, 4230, Note_on_c, 0, 71, 0
2, 4254, Note_on_c, 0, 74, 51
2, 4310, Note_on_c, 0, 74, 0
2, 4327, Note_on_c, 0, 69, 65
2, 4342, Note_on_c, 0, 60, 53
2, 4391, Note_on_c, 0, 60, 0
2, 4407, Note_on_c, 0, 69, 0
2, 4440, Note_on_c, 0, 74, 53
2, 4514, Note_on_c, 0, 74, 0
2, 4523, Note_on_c, 0, 55, 0
2, 4546, Note_on_c, 0, 67, 65
2, 4547, Note_on_c, 0, 59, 62
2, 4584, Note_on_c, 0, 59, 0
2, 4616, Note_on_c, 0, 67, 0
2, 4654, Note_on_c, 0, 74, 57
2, 4784, Note_on_c, 0, 50, 60
2, 4788, Note_on_c, 0, 66, 51
2, 4841, Note_on_c, 0, 50, 0
2, 4895, Note_on_c, 0, 57, 64
2, 4949, Note_on_c, 0, 66, 0
2, 4962, Note_on_c, 0, 57, 0
2, 4996, Note_on_c, 0, 64, 68
2, 5003, Note_on_c, 0, 49, 68
2, 5051, Note_on_c, 0, 64, 0
2, 5060, Note_on_c, 0, 49, 0
2, 5096, Note_on_c, 0, 57, 69
2, 5155, Note_on_c, 0, 57, 0
2, 5204, Note_on_c, 0, 66, 70
2, 5226, Note_on_c, 0, 50, 58
2, 5258, Note_on_c, 0, 66, 0
2, 5282, Note_on_c, 0, 50, 0
2, 5309, Note_on_c, 0, 57, 62
2, 5369, Note_on_c, 0, 57, 0
2, 5414, Note_on_c, 0, 67, 67
2, 5425, Note_on_c, 0, 52, 61
2, 5465, Note_on_c, 0, 52, 0
2, 5475, Note_on_c, 0, 67, 0
2, 5509, Note_on_c, 0, 57, 63
2, 5564, Note_on_c, 0, 57, 0
2, 5627, Note_on_c, 0, 69, 71
2, 5628, Note_on_c, 0, 54, 62
2, 5672, Note_on_c, 0, 54, 0
2, 5674, Note_on_c, 0, 69, 0
2, 5718, Note_on_c, 0, 57, 59
2, 5774, Note_on_c, 0, 57, 0
2, 5822, Note_on_c, 0, 55, 58
2, 5826, Note_on_c, 0, 71, 70
2, 5867, Note_on_c, 0, 55, 0
2, 5917, Note_on_c, 0, 71, 0
2, 5924, Note_on_c, 0, 57, 55
2, 5994, Note_on_c, 0, 57, 0
2, 6036, Note_on_c, 0, 54, 61
2, 6050, Note_on_c, 0, 69, 66
2, 6083, Note_on_c, 0, 54, 0
2, 6139, Note_on_c, 0, 57, 56
2, 6195, Note_on_c, 0, 57, 0
2, 6254, Note_on_c, 0, 52, 58
2, 6259, Note_on_c, 0, 69, 0
2, 6277, Note_on_c, 0, 67, 57
2, 6310, Note_on_c, 0, 52, 0
2, 6362, Note_on_c, 0, 57, 59
2, 6422, Note_on_c, 0, 57, 0
2, 6465, Note_on_c, 0, 67, 0
2, 6476, Note_on_c, 0, 50, 57
2, 6481, Note_on_c, 0, 66, 65
2, 6522, Note_on_c, 0, 50, 0
2, 6543, Note_on_c, 0, 66, 0
2, 6569, Note_on_c, 0, 57, 58
2, 6630, Note_on_c, 0, 57, 0
2, 6690, Note_on_c, 0, 55, 58
2, 6693, Note_on_c, 0, 71, 70
2, 6736, Note_on_c, 0, 55, 0
2, 6769, Note_on_c, 0, 71, 0
2, 6783, Note_on_c, 0, 57, 62
2, 6836, Note_on_c, 0, 57, 0
2, 6900, Note_on_c, 0, 69, 67
2, 6903, Note_on_c, 0, 54, 53
2, 6946, Note_on_c, 0, 54, 0
2, 6953, Note_on_c, 0, 69, 0
2, 6991, Note_on_c, 0, 57, 51
2, 7040, Note_on_c, 0, 57, 0
2, 7115, Note_on_c, 0, 67, 66
2, 7121, Note_on_c, 0, 52, 55
2, 7157, Note_on_c, 0, 67, 0
2, 7167, Note_on_c, 0, 52, 0
2, 7228, Note_on_c, 0, 57, 57
2, 7274, Note_on_c, 0, 57, 0
2, 7327, Note_on_c, 0, 69, 70
2, 7341, Note_on_c, 0, 54, 61
2, 7392, Note_on_c, 0, 54, 0
2, 7453, Note_on_c, 0, 57, 58
2, 7504, Note_on_c, 0, 57, 0
2, 7527, Note_on_c, 0, 69, 0
2, 7552, Note_on_c, 0, 52, 61
2, 7554, Note_on_c, 0, 67, 66
2, 7589, Note_on_c, 0, 52, 0
2, 7658, Note_on_c, 0, 57, 57
2, 7711, Note_on_c, 0, 57, 0
2, 7757, Note_on_c, 0, 66, 62
2, 7769, Note_on_c, 0, 50, 68
2, 7775, Note_on_c, 0, 67, 0
2, 7812, Note_on_c, 0, 50, 0
2, 7861, Note_on_c, 0, 57, 61
2, 7921, Note_on_c, 0, 57, 0
2, 7925, Note_on_c, 0, 66, 0
2, 7978, Note_on_c, 0, 69, 68
2, 7986, Note_on_c, 0, 54, 59
2, 8028, Note_on_c, 0, 54, 0
2, 8052, Note_on_c, 0, 69, 0
2, 8075, Note_on_c, 0, 57, 57
2, 8132, Note_on_c, 0, 57, 0
2, 8185, Note_on_c, 0, 67, 62
2, 8191, Note_on_c, 0, 52, 62
2, 8230, Note_on_c, 0, 52, 0
2, 8240, Note_on_c, 0, 67, 0
2, 8295, Note_on_c, 0, 57, 54
2, 8343, Note_on_c, 0, 57, 0
2, 8395, Note_on_c, 0, 50, 60
2, 8409, Note_on_c, 0, 66, 54
2, 8436, Note_on_c, 0, 50, 0
2, 8485, Note_on_c, 0, 57, 56
2, 8561, Note_on_c, 0, 66, 0
2, 8563, Note_on_c, 0, 57, 0
2, 8622, Note_on_c, 0, 64, 60
2, 8624, Note_on_c, 0, 45, 55
2, 8647, Note_on_c, 0, 74, 0
2, 8658, Note_on_c, 0, 45, 0
2, 8721, Note_on_c, 0, 57, 59
2, 8790, Note_on_c, 0, 64, 0
2, 8809, Note_on_c, 0, 57, 0
2, 8837, Note_on_c, 0, 56, 61
2, 8838, Note_on_c, 0, 71, 65
2, 8882, Note_on_c, 0, 56, 0
2, 8949, Note_on_c, 0, 57, 51
2, 9001, Note_on_c, 0, 57, 0
2, 9060, Note_on_c, 0, 71, 0
2, 9065, Note_on_c, 0, 72, 71
2, 9074, Note_on_c, 0, 45, 60
2, 9086, Note_on_c, 0, 69, 54
2, 9135, Note_on_c, 0, 45, 0
2, 9194, Note_on_c, 0, 57, 59
2, 9259, Note_on_c, 0, 57, 0
2, 9297, Note_on_c, 0, 47, 65
2, 9301, Note_on_c, 0, 74, 72
2, 9319, Note_on_c, 0, 72, 0
2, 9339, Note_on_c, 0, 47, 0
2, 9391, Note_on_c, 0, 57, 67
2, 9481, Note_on_c, 0, 57, 0
2, 9497, Note_on_c, 0, 74, 0
2, 9498, Note_on_c, 0, 76, 78
2, 9509, Note_on_c, 0, 48, 68
2, 9563, Note_on_c, 0, 48, 0
2, 9616, Note_on_c, 0, 57, 66
2, 9692, Note_on_c, 0, 57, 0
2, 9707, Note_on_c, 0, 76, 0
2, 9712, Note_on_c, 0, 50, 72
2, 9720, Note_on_c, 0, 78, 82
2, 9742, Note_on_c, 0, 69, 0
2, 9776, Note_on_c, 0, 50, 0
2, 9785, Note_on_c, 0, 78, 0
2, 9818, Note_on_c, 0, 57, 75
2, 9878, Note_on_c, 0, 57, 0
2, 9936, Note_on_c, 0, 52, 68
2, 9947, Note_on_c, 0, 67, 83
2, 9981, Note_on_c, 0, 52, 0
2, 10022, Note_on_c, 0, 67, 0
2, 10041, Note_on_c, 0, 64, 69
2, 10045, Note_on_c, 0, 79, 85
2, 10112, Note_on_c, 0, 64, 0
2, 10141, Note_on_c, 0, 62, 59
2, 10148, Note_on_c, 0, 78, 75
2, 10151, Note_on_c, 0, 79, 0
2, 10191, Note_on_c, 0, 62, 0
2, 10246, Note_on_c, 0, 64, 68
2, 10254, Note_on_c, 0, 78, 0
2, 10256, Note_on_c, 0, 79, 73
2, 10295, Note_on_c, 0, 64, 0
2, 10327, Note_on_c, 0, 79, 0
2, 10375, Note_on_c, 0, 67, 71
2, 10378, Note_on_c, 0, 52, 55
2, 10431, Note_on_c, 0, 52, 0
2, 10437, Note_on_c, 0, 67, 0
2, 10478, Note_on_c, 0, 79, 75
2, 10488, Note_on_c, 0, 64, 61
2, 10537, Note_on_c, 0, 64, 0
2, 10560, Note_on_c, 0, 79, 0
2, 10586, Note_on_c, 0, 54, 65
2, 10590, Note_on_c, 0, 69, 79
2, 10636, Note_on_c, 0, 54, 0
2, 10661, Note_on_c, 0, 69, 0
2, 10678, Note_on_c, 0, 64, 69
2, 10694, Note_on_c, 0, 79, 78
2, 10748, Note_on_c, 0, 64, 0
2, 10790, Note_on_c, 0, 79, 0
2, 10792, Note_on_c, 0, 55, 70
2, 10803, Note_on_c, 0, 71, 81
2, 10864, Note_on_c, 0, 55, 0
2, 10884, Note_on_c, 0, 71, 0
2, 10896, Note_on_c, 0, 64, 72
2, 10906, Note_on_c, 0, 79, 83
2, 10981, Note_on_c, 0, 64, 0
2, 11002, Note_on_c, 0, 79, 0
2, 11006, Note_on_c, 0, 57, 71
2, 11013, Note_on_c, 0, 73, 84
2, 11052, Note_on_c, 0, 57, 0
2, 11106, Note_on_c, 0, 64, 74
2, 11107, Note_on_c, 0, 79, 85
2, 11109, Note_on_c, 0, 73, 0
2, 11208, Note_on_c, 0, 64, 0
2, 11236, Note_on_c, 0, 78, 80
2, 11246, Note_on_c, 0, 62, 67
2, 11285, Note_on_c, 0, 79, 0
2, 11344, Note_on_c, 0, 78, 0
2, 11358, Note_on_c, 0, 74, 70
2, 11366, Note_on_c, 0, 59, 75
2, 11377, Note_on_c, 0, 62, 0
2, 11452, Note_on_c, 0, 74, 0
2, 11453, Note_on_c, 0, 73, 77
2, 11469, Note_on_c, 0, 59, 0
2, 11476, Note_on_c, 0, 57, 64
2, 11513, Note_on_c, 0, 73, 0
2, 11549, Note_on_c, 0, 74, 74
2, 11584, Note_on_c, 0, 57, 0
2, 11606, Note_on_c, 0, 59, 63
2, 11627, Note_on_c, 0, 74, 0
2, 11673, Note_on_c, 0, 59, 0
2, 11678, Note_on_c, 0, 83, 80
2, 11706, Note_on_c, 0, 55, 62
2, 11743, Note_on_c, 0, 55, 0
2, 11746, Note_on_c, 0, 83, 0
2, 11816, Note_on_c, 0, 71, 56
2, 11821, Note_on_c, 0, 72, 54
2, 11853, Note_on_c, 0, 72, 0
2, 11858, Note_on_c, 0, 71, 0
2, 11909, Note_on_c, 0, 81, 80
2, 11913, Note_on_c, 0, 66, 62
2, 11953, Note_on_c, 0, 66, 0
2, 11972, Note_on_c, 0, 81, 0
2, 11998, Note_on_c, 0, 71, 53
2, 12089, Note_on_c, 0, 71, 0
2, 12118, Note_on_c, 0, 79, 78
2, 12130, Note_on_c, 0, 64, 58
2, 12166, Note_on_c, 0, 64, 0
2, 12197, Note_on_c, 0, 79, 0
2, 12227, Note_on_c, 0, 71, 75
2, 12311, Note_on_c, 0, 71, 0
2, 12337, Note_on_c, 0, 78, 82
2, 12347, Note_on_c, 0, 62, 58
2, 12382, Note_on_c, 0, 62, 0
2, 12411, Note_on_c, 0, 78, 0
2, 12443, Note_on_c, 0, 71, 79
2, 12542, Note_on_c, 0, 71, 0
2, 12568, Note_on_c, 0, 76, 80
2, 12574, Note_on_c, 0, 61, 63
2, 12677, Note_on_c, 0, 61, 0
2, 12677, Note_on_c, 0, 73, 77
2, 12678, Note_on_c, 0, 57, 67
2, 12700, Note_on_c, 0, 76, 0
2, 12767, Note_on_c, 0, 73, 0
2, 12771, Note_on_c, 0, 57, 0
2, 12776, Note_on_c, 0, 71, 76
2, 12781, Note_on_c, 0, 55, 69
2, 12848, Note_on_c, 0, 55, 0
2, 12870, Note_on_c, 0, 73, 85
2, 12882, Note_on_c, 0, 57, 64
2, 12886, Note_on_c, 0, 71, 0
2, 12937, Note_on_c, 0, 57, 0
2, 12943, Note_on_c, 0, 73, 0
2, 12989, Note_on_c, 0, 54, 61
2, 13008, Note_on_c, 0, 81, 82
2, 13068, Note_on_c, 0, 81, 0
2, 13082, Note_on_c, 0, 54, 0
2, 13116, Note_on_c, 0, 69, 75
2, 13171, Note_on_c, 0, 69, 0
2, 13210, Note_on_c, 0, 64, 53
2, 13223, Note_on_c, 0, 79, 81
2, 13249, Note_on_c, 0, 64, 0
2, 13294, Note_on_c, 0, 79, 0
2, 13324, Note_on_c, 0, 69, 70
2, 13402, Note_on_c, 0, 69, 0
2, 13430, Note_on_c, 0, 62, 55
2, 13447, Note_on_c, 0, 78, 72
2, 13467, Note_on_c, 0, 62, 0
2, 13498, Note_on_c, 0, 78, 0
2, 13547, Note_on_c, 0, 69, 66
2, 13618, Note_on_c, 0, 69, 0
2, 13651, Note_on_c, 0, 61, 67
2, 13654, Note_on_c, 0, 76, 76
2, 13685, Note_on_c, 0, 61, 0
2, 13726, Note_on_c, 0, 76, 0
2, 13750, Note_on_c, 0, 69, 75
2, 13848, Note_on_c, 0, 69, 0
2, 13879, Note_on_c, 0, 74, 78
2, 13880, Note_on_c, 0, 59, 70
2, 13956, Note_on_c, 0, 59, 0
2, 13987, Note_on_c, 0, 71, 78
2, 13990, Note_on_c, 0, 55, 67
2, 14010, Note_on_c, 0, 74, 0
2, 14066, Note_on_c, 0, 71, 0
2, 14067, Note_on_c, 0, 55, 0
2, 14068, Note_on_c, 0, 54, 72
2, 14087, Note_on_c, 0, 69, 75
2, 14170, Note_on_c, 0, 54, 0
2, 14182, Note_on_c, 0, 71, 80
2, 14183, Note_on_c, 0, 55, 67
2, 14191, Note_on_c, 0, 69, 0
2, 14245, Note_on_c, 0, 71, 0
2, 14286, Note_on_c, 0, 55, 0
2, 14310, Note_on_c, 0, 79, 73
2, 14321, Note_on_c, 0, 52, 60
2, 14399, Note_on_c, 0, 79, 0
2, 14420, Note_on_c, 0, 67, 70
2, 14430, Note_on_c, 0, 52, 0
2, 14494, Note_on_c, 0, 67, 0
2, 14533, Note_on_c, 0, 78, 77
2, 14550, Note_on_c, 0, 62, 52
2, 14581, Note_on_c, 0, 62, 0
2, 14594, Note_on_c, 0, 78, 0
2, 14638, Note_on_c, 0, 67, 65
2, 14698, Note_on_c, 0, 67, 0
2, 14747, Note_on_c, 0, 76, 70
2, 14754, Note_on_c, 0, 61, 64
2, 14791, Note_on_c, 0, 61, 0
2, 14821, Note_on_c, 0, 76, 0
2, 14849, Note_on_c, 0, 67, 61
2, 14920, Note_on_c, 0, 67, 0
2, 14965, Note_on_c, 0, 74, 66
2, 14972, Note_on_c, 0, 59, 62
2, 15009, Note_on_c, 0, 59, 0
2, 15037, Note_on_c, 0, 74, 0
2, 15068, Note_on_c, 0, 67, 63
2, 15141, Note_on_c, 0, 67, 0
2, 15196, Note_on_c, 0, 57, 58
2, 15196, Note_on_c, 0, 73, 69
2, 15269, Note_on_c, 0, 73, 0
2, 15300, Note_on_c, 0, 67, 59
2, 15370, Note_on_c, 0, 67, 0
2, 15400, Note_on_c, 0, 57, 0
2, 15405, Note_on_c, 0, 74, 74
2, 15408, Note_on_c, 0, 59, 67
2, 15461, Note_on_c, 0, 59, 0
2, 15474, Note_on_c, 0, 74, 0
2, 15516, Note_on_c, 0, 67, 67
2, 15591, Note_on_c, 0, 67, 0
2, 15631, Note_on_c, 0, 76, 77
2, 15638, Note_on_c, 0, 61, 59
2, 15673, Note_on_c, 0, 61, 0
2, 15729, Note_on_c, 0, 76, 0
2, 15745, Note_on_c, 0, 67, 59
2, 15813, Note_on_c, 0, 67, 0
2, 15849, Note_on_c, 0, 74, 70
2, 15862, Note_on_c, 0, 64, 59
2, 15897, Note_on_c, 0, 64, 0
2, 15906, Note_on_c, 0, 74, 0
2, 15962, Note_on_c, 0, 67, 59
2, 16018, Note_on_c, 0, 67, 0
2, 16061, Note_on_c, 0, 73, 68
2, 16066, Note_on_c, 0, 57, 60
2, 16110, Note_on_c, 0, 57, 0
2, 16127, Note_on_c, 0, 73, 0
2, 16172, Note_on_c, 0, 67, 58
2, 16244, Note_on_c, 0, 67, 0
2, 16267, Note_on_c, 0, 61, 59
2, 16281, Note_on_c, 0, 71, 66
2, 16300, Note_on_c, 0, 61, 0
2, 16348, Note_on_c, 0, 71, 0
2, 16392, Note_on_c, 0, 67, 63
2, 16467, Note_on_c, 0, 67, 0
2, 16502, Note_on_c, 0, 69, 66
2, 16508, Note_on_c, 0, 54, 51
2, 16541, Note_on_c, 0, 54, 0
2, 16593, Note_on_c, 0, 69, 0
2, 16610, Note_on_c, 0, 67, 65
2, 16710, Note_on_c, 0, 66, 70
2, 16712, Note_on_c, 0, 57, 60
2, 16727, Note_on_c, 0, 67, 0
2, 16748, Note_on_c, 0, 57, 0
2, 16786, Note_on_c, 0, 66, 0
2, 16818, Note_on_c, 0, 64, 64
2, 16925, Note_on_c, 0, 64, 0
2, 16936, Note_on_c, 0, 66, 68
2, 16940, Note_on_c, 0, 50, 61
2, 16973, Note_on_c, 0, 66, 0
2, 17042, Note_on_c, 0, 50, 0
2, 17064, Note_on_c, 0, 52, 57
2, 17153, Note_on_c, 0, 52, 0
2, 17170, Note_on_c, 0, 54, 60
2, 17191, Note_on_c, 0, 74, 31
2, 17201, Note_on_c, 0, 72, 31
2, 17236, Note_on_c, 0, 54, 0
2, 17237, Note_on_c, 0, 72, 0
2, 17237, Note_on_c, 0, 74, 0
2, 17273, Note_on_c, 0, 55, 58
2, 17358, Note_on_c, 0, 55, 0
2, 17380, Note_on_c, 0, 64, 71
2, 17399, Note_on_c, 0, 57, 61
2, 17641, Note_on_c, 0, 57, 0
2, 17644, Note_on_c, 0, 74, 65
2, 17655, Note_on_c, 0, 64, 0
2, 17669, Note_on_c, 0, 45, 46
2, 17701, Note_on_c, 0, 74, 0
2, 17710, Note_on_c, 0, 73, 66
2, 17751, Note_on_c, 0, 73, 0
2, 17769, Note_on_c, 0, 71, 63
2, 17821, Note_on_c, 0, 73, 77
2, 17850, Note_on_c, 0, 71, 0
2, 17894, Note_on_c, 0, 45, 0
2, 17894, Note_on_c, 0, 73, 0
2, 17927, Note_on_c, 0, 47, 53
2, 17932, Note_on_c, 0, 62, 66
2, 18055, Note_on_c, 0, 64, 68
2, 18070, Note_on_c, 0, 62, 0
2, 18086, Note_on_c, 0, 47, 0
2, 18152, Note_on_c, 0, 50, 66
2, 18153, Note_on_c, 0, 65, 78
2, 18184, Note_on_c, 0, 64, 0
2, 18209, Note_on_c, 0, 50, 0
2, 18226, Note_on_c, 0, 65, 0
2, 18256, Note_on_c, 0, 62, 76
2, 18370, Note_on_c, 0, 53, 62
2, 18370, Note_on_c, 0, 62, 0
2, 18374, Note_on_c, 0, 68, 88
2, 18418, Note_on_c, 0, 53, 0
2, 18450, Note_on_c, 0, 68, 0
2, 18484, Note_on_c, 0, 62, 79
2, 18562, Note_on_c, 0, 62, 0
2, 18582, Note_on_c, 0, 45, 65
2, 18586, Note_on_c, 0, 69, 89
2, 18642, Note_on_c, 0, 45, 0
2, 18672, Note_on_c, 0, 69, 0
2, 18695, Note_on_c, 0, 62, 78
2, 18781, Note_on_c, 0, 62, 0
2, 18815, Note_on_c, 0, 44, 60
2, 18817, Note_on_c, 0, 71, 82
2, 18886, Note_on_c, 0, 71, 0
2, 18927, Note_on_c, 0, 62, 67
2, 18984, Note_on_c, 0, 44, 0
2, 19005, Note_on_c, 0, 62, 0
2, 19043, Note_on_c, 0, 61, 69
2, 19048, Note_on_c, 0, 52, 60
2, 19086, Note_on_c, 0, 52, 0
2, 19107, Note_on_c, 0, 61, 0
2, 19141, Note_on_c, 0, 59, 69
2, 19265, Note_on_c, 0, 59, 0
2, 19271, Note_on_c, 0, 61, 68
2, 19275, Note_on_c, 0, 45, 53
2, 19384, Note_on_c, 0, 61, 0
2, 19384, Note_on_c, 0, 64, 75
2, 19388, Note_on_c, 0, 45, 0
2, 19400, Note_on_c, 0, 49, 62
2, 19495, Note_on_c, 0, 64, 0
2, 19499, Note_on_c, 0, 69, 74
2, 19500, Note_on_c, 0, 49, 0
2, 19507, Note_on_c, 0, 52, 65
2, 19562, Note_on_c, 0, 52, 0
2, 19608, Note_on_c, 0, 55, 67
2, 19662, Note_on_c, 0, 55, 0
2, 19724, Note_on_c, 0, 54, 68
2, 19770, Note_on_c, 0, 54, 0
2, 19963, Note_on_c, 0, 67, 63
2, 19977, Note_on_c, 0, 50, 54
2, 20007, Note_on_c, 0, 50, 0
2, 20028, Note_on_c, 0, 69, 0
2, 20059, Note_on_c, 0, 67, 0
2, 20062, Note_on_c, 0, 66, 69
2, 20148, Note_on_c, 0, 66, 0
2, 20183, Note_on_c, 0, 57, 62
2, 20186, Note_on_c, 0, 67, 67
2, 20222, Note_on_c, 0, 57, 0
2, 20231, Note_on_c, 0, 56, 67
2, 20266, Note_on_c, 0, 56, 0
2, 20280, Note_on_c, 0, 66, 73
2, 20299, Note_on_c, 0, 57, 74
2, 20299, Note_on_c, 0, 67, 0
2, 20346, Note_on_c, 0, 57, 0
2, 20387, Note_on_c, 0, 45, 69
2, 20389, Note_on_c, 0, 66, 0
2, 20394, Note_on_c, 0, 64, 68
2, 20426, Note_on_c, 0, 45, 0
2, 20493, Note_on_c, 0, 64, 0
2, 20507, Note_on_c, 0, 66, 70
2, 20611, Note_on_c, 0, 66, 0
2, 20640, Note_on_c, 0, 62, 68
2, 20644, Note_on_c, 0, 50, 64
2, 20889, Note_on_c, 0, 50, 0
2, 20892, Note_on_c, 0, 38, 66
2, 20898, Note_on_c, 0, 61, 68
2, 20904, Note_on_c, 0, 62, 0
2, 20945, Note_on_c, 0, 38, 0
2, 21011, Note_on_c, 0, 59, 71
2, 21030, Note_on_c, 0, 61, 0
2, 21120, Note_on_c, 0, 59, 0
2, 21126, Note_on_c, 0, 42, 61
2, 21133, Note_on_c, 0, 57, 58
2, 21168, Note_on_c, 0, 42, 0
2, 21195, Note_on_c, 0, 57, 0
2, 21238, Note_on_c, 0, 55, 57
2, 21339, Note_on_c, 0, 55, 0
2, 21357, Note_on_c, 0, 54, 58
2, 21372, Note_on_c, 0, 45, 54
2, 21405, Note_on_c, 0, 45, 0
2, 21448, Note_on_c, 0, 54, 0
2, 21476, Note_on_c, 0, 52, 57
2, 21638, Note_on_c, 0, 50, 48
2, 21641, Note_on_c, 0, 52, 0
2, 21677, Note_on_c, 0, 50, 0
2, 21697, Note_on_c, 0, 49, 60
2, 21748, Note_on_c, 0, 49, 0
2, 21771, Note_on_c, 0, 50, 54
2, 22037, Note_on_c, 0, 50, 0
2, 22351, Control_c, 0, 67, 13
2, 22370, Control_c, 0, 67, 49
2, 22389, Control_c, 0, 67, 94
2, 22409, Control_c, 0, 67, 127
2, 22427, Control_c, 0, 67, 127
2, 22467, Note_on_c, 0, 50, 45
2, 22473, Note_on_c, 0, 66, 46
2, 22487, Note_on_c, 0, 57, 32
2, 22545, Note_on_c, 0, 66, 0
2, 22604, Note_on_c, 0, 62, 40
2, 22664, Note_on_c, 0, 62, 0
2, 22673, Note_on_c, 0, 57, 0
2, 22708, Note_on_c, 0, 64, 57
2, 22718, Note_on_c, 0, 55, 46
2, 22759, Note_on_c, 0, 64, 0
2, 22809, Note_on_c, 0, 62, 47
2, 22886, Note_on_c, 0, 62, 0
2, 22903, Note_on_c, 0, 55, 0
2, 22924, Note_on_c, 0, 66, 66
2, 22939, Note_on_c, 0, 57, 50
2, 22977, Note_on_c, 0, 66, 0
2, 23029, Note_on_c, 0, 62, 58
2, 23052, Note_on_c, 0, 57, 0
2, 23089, Note_on_c, 0, 62, 0
2, 23143, Note_on_c, 0, 67, 67
2, 23147, Note_on_c, 0, 59, 52
2, 23204, Note_on_c, 0, 67, 0
2, 23251, Note_on_c, 0, 62, 54
2, 23311, Note_on_c, 0, 62, 0
2, 23350, Note_on_c, 0, 59, 0
2, 23367, Note_on_c, 0, 69, 67
2, 23376, Note_on_c, 0, 60, 48
2, 23432, Note_on_c, 0, 69, 0
2, 23468, Note_on_c, 0, 62, 51
2, 23528, Note_on_c, 0, 62, 0
2, 23529, Note_on_c, 0, 60, 0
2, 23576, Note_on_c, 0, 67, 61
2, 23588, Note_on_c, 0, 59, 52
2, 23630, Note_on_c, 0, 67, 0
2, 23680, Note_on_c, 0, 62, 50
2, 23755, Note_on_c, 0, 59, 0
2, 23761, Note_on_c, 0, 62, 0
2, 23808, Note_on_c, 0, 66, 61
2, 23830, Note_on_c, 0, 57, 41
2, 23879, Note_on_c, 0, 66, 0
2, 23921, Note_on_c, 0, 62, 51
2, 23969, Note_on_c, 0, 57, 0
2, 23981, Note_on_c, 0, 62, 0
2, 24032, Note_on_c, 0, 64, 55
2, 24040, Note_on_c, 0, 55, 44
2, 24089, Note_on_c, 0, 64, 0
2, 24140, Note_on_c, 0, 62, 52
2, 24204, Note_on_c, 0, 55, 0
2, 24210, Note_on_c, 0, 62, 0
2, 24257, Note_on_c, 0, 57, 50
2, 24258, Note_on_c, 0, 66, 63
2, 24313, Note_on_c, 0, 66, 0
2, 24363, Note_on_c, 0, 62, 53
2, 24364, Note_on_c, 0, 57, 0
2, 24424, Note_on_c, 0, 62, 0
2, 24479, Note_on_c, 0, 59, 45
2, 24479, Note_on_c, 0, 67, 64
2, 24534, Note_on_c, 0, 67, 0
2, 24584, Note_on_c, 0, 62, 52
2, 24649, Note_on_c, 0, 62, 0
2, 24690, Note_on_c, 0, 59, 0
2, 24705, Note_on_c, 0, 69, 66
2, 24720, Note_on_c, 0, 60, 42
2, 24779, Note_on_c, 0, 69, 0
2, 24809, Note_on_c, 0, 60, 0
2, 24810, Note_on_c, 0, 62, 47
2, 24868, Note_on_c, 0, 62, 0
2, 24924, Note_on_c, 0, 66, 58
2, 24933, Note_on_c, 0, 57, 47
2, 24972, Note_on_c, 0, 66, 0
2, 25007, Note_on_c, 0, 62, 52
2, 25093, Note_on_c, 0, 62, 0
2, 25122, Note_on_c, 0, 57, 0
2, 25146, Note_on_c, 0, 67, 62
2, 25147, Note_on_c, 0, 59, 54
2, 25202, Note_on_c, 0, 67, 0
2, 25259, Note_on_c, 0, 62, 51
2, 25319, Note_on_c, 0, 62, 0
2, 25334, Note_on_c, 0, 59, 0
2, 25375, Note_on_c, 0, 66, 57
2, 25376, Note_on_c, 0, 57, 44
2, 25435, Note_on_c, 0, 66, 0
2, 25470, Note_on_c, 0, 62, 52
2, 25543, Note_on_c, 0, 62, 0
2, 25563, Note_on_c, 0, 57, 0
2, 25592, Note_on_c, 0, 67, 52
2, 25607, Note_on_c, 0, 59, 42
2, 25636, Note_on_c, 0, 67, 0
2, 25696, Note_on_c, 0, 62, 56
2, 25763, Note_on_c, 0, 62, 0
2, 25767, Control_c, 0, 67, 125
2, 25778, Note_on_c, 0, 59, 0
2, 25785, Control_c, 0, 67, 121
2, 25805, Control_c, 0, 67, 118
2, 25814, Note_on_c, 0, 55, 44
2, 25817, Note_on_c, 0, 71, 65
2, 25824, Control_c, 0, 67, 113
2, 25844, Control_c, 0, 67, 109
2, 25862, Control_c, 0, 67, 103
2, 25882, Control_c, 0, 67, 96
2, 25884, Note_on_c, 0, 71, 0
2, 25901, Control_c, 0, 67, 87
2, 25920, Control_c, 0, 67, 78
2, 25923, Note_on_c, 0, 62, 45
2, 25939, Control_c, 0, 67, 67
2, 25959, Control_c, 0, 67, 55
2, 25972, Note_on_c, 0, 55, 0
2, 25978, Control_c, 0, 67, 45
2, 25978, Note_on_c, 0, 62, 0
2, 25996, Control_c, 0, 67, 36
2, 26016, Control_c, 0, 67, 30
2, 26030, Note_on_c, 0, 69, 61
2, 26039, Control_c, 0, 67, 24
2, 26048, Note_on_c, 0, 57, 40
2, 26057, Control_c, 0, 67, 16
2, 26076, Control_c, 0, 67, 0
2, 26088, Note_on_c, 0, 69, 0
2, 26127, Note_on_c, 0, 62, 45
2, 26182, Note_on_c, 0, 57, 0
2, 26212, Note_on_c, 0, 62, 0
2, 26251, Note_on_c, 0, 50, 0
2, 26253, Note_on_c, 0, 54, 57
2, 26263, Note_on_c, 0, 72, 67
2, 26295, Note_on_c, 0, 54, 0
2, 26319, Note_on_c, 0, 72, 0
2, 26369, Note_on_c, 0, 62, 47
2, 26459, Note_on_c, 0, 62, 0
2, 26491, Note_on_c, 0, 43, 52
2, 26504, Note_on_c, 0, 71, 61
2, 26526, Note_on_c, 0, 43, 0
2, 26602, Note_on_c, 0, 55, 51
2, 26658, Note_on_c, 0, 55, 0
2, 26670, Note_on_c, 0, 71, 0
2, 26702, Note_on_c, 0, 54, 55
2, 26706, Note_on_c, 0, 69, 64
2, 26756, Note_on_c, 0, 69, 0
2, 26762, Note_on_c, 0, 54, 0
2, 26774, Note_on_c, 0, 71, 59
2, 26804, Note_on_c, 0, 55, 55
2, 26829, Note_on_c, 0, 69, 67
2, 26839, Note_on_c, 0, 71, 0
2, 26893, Note_on_c, 0, 69, 0
2, 26896, Note_on_c, 0, 55, 0
2, 26914, Note_on_c, 0, 67, 64
2, 26982, Note_on_c, 0, 67, 0
2, 27045, Note_on_c, 0, 55, 52
2, 27120, Note_on_c, 0, 55, 0
2, 27149, Note_on_c, 0, 60, 50
2, 27149, Note_on_c, 0, 69, 65
2, 27194, Note_on_c, 0, 69, 0
2, 27200, Note_on_c, 0, 60, 0
2, 27244, Note_on_c, 0, 55, 63
2, 27299, Note_on_c, 0, 55, 0
2, 27368, Note_on_c, 0, 71, 67
2, 27369, Note_on_c, 0, 62, 51
2, 27413, Note_on_c, 0, 62, 0
2, 27419, Note_on_c, 0, 71, 0
2, 27478, Note_on_c, 0, 55, 41
2, 27561, Note_on_c, 0, 55, 0
2, 27585, Note_on_c, 0, 72, 69
2, 27591, Note_on_c, 0, 60, 57
2, 27631, Note_on_c, 0, 72, 0
2, 27648, Note_on_c, 0, 60, 0
2, 27705, Note_on_c, 0, 55, 53
2, 27786, Note_on_c, 0, 55, 0
2, 27811, Note_on_c, 0, 74, 58
2, 27820, Note_on_c, 0, 59, 60
2, 27879, Note_on_c, 0, 59, 0
2, 27936, Note_on_c, 0, 55, 48
2, 28007, Note_on_c, 0, 74, 0
2, 28009, Note_on_c, 0, 55, 0
2, 28029, Note_on_c, 0, 72, 72
2, 28033, Note_on_c, 0, 57, 60
2, 28149, Note_on_c, 0, 57, 0
2, 28159, Note_on_c, 0, 55, 61
2, 28214, Note_on_c, 0, 72, 0
2, 28233, Note_on_c, 0, 55, 0
2, 28260, Note_on_c, 0, 74, 73
2, 28269, Note_on_c, 0, 59, 63
2, 28334, Note_on_c, 0, 74, 0
2, 28349, Note_on_c, 0, 59, 0
2, 28385, Note_on_c, 0, 55, 62
2, 28453, Note_on_c, 0, 55, 0
2, 28480, Note_on_c, 0, 76, 75
2, 28489, Note_on_c, 0, 60, 66
2, 28548, Note_on_c, 0, 76, 0
2, 28550, Note_on_c, 0, 60, 0
2, 28600, Note_on_c, 0, 55, 63
2, 28675, Note_on_c, 0, 55, 0
2, 28706, Note_on_c, 0, 77, 80
2, 28713, Note_on_c, 0, 62, 62
2, 28772, Note_on_c, 0, 62, 0
2, 28775, Note_on_c, 0, 77, 0
2, 28818, Note_on_c, 0, 55, 67
2, 28904, Note_on_c, 0, 55, 0
2, 28922, Note_on_c, 0, 74, 83
2, 28934, Note_on_c, 0, 59, 72
2, 28977, Note_on_c, 0, 74, 0
2, 29003, Note_on_c, 0, 59, 0
2, 29046, Note_on_c, 0, 55, 66
2, 29123, Note_on_c, 0, 55, 0
2, 29157, Note_on_c, 0, 76, 87
2, 29165, Note_on_c, 0, 60, 64
2, 29234, Note_on_c, 0, 60, 0
2, 29273, Note_on_c, 0, 55, 67
2, 29353, Note_on_c, 0, 55, 0
2, 29380, Note_on_c, 0, 59, 68
2, 29389, Note_on_c, 0, 79, 85
2, 29429, Note_on_c, 0, 76, 0
2, 29439, Note_on_c, 0, 59, 0
2, 29477, Note_on_c, 0, 79, 0
2, 29491, Note_on_c, 0, 55, 66
2, 29555, Note_on_c, 0, 55, 0
2, 29606, Note_on_c, 0, 60, 60
2, 29612, Note_on_c, 0, 76, 73
2, 29663, Note_on_c, 0, 60, 0
2, 29665, Note_on_c, 0, 76, 0
2, 29729, Note_on_c, 0, 55, 48
2, 29803, Note_on_c, 0, 55, 0
2, 29828, Note_on_c, 0, 72, 79
2, 29848, Note_on_c, 0, 64, 51
2, 29867, Note_on_c, 0, 72, 0
2, 29908, Note_on_c, 0, 64, 0
2, 29962, Note_on_c, 0, 55, 58
2, 30030, Note_on_c, 0, 55, 0
2, 30059, Note_on_c, 0, 74, 71
2, 30075, Note_on_c, 0, 62, 60
2, 30113, Note_on_c, 0, 74, 0
2, 30128, Note_on_c, 0, 62, 0
2, 30177, Note_on_c, 0, 55, 64
2, 30245, Note_on_c, 0, 55, 0
2, 30273, Note_on_c, 0, 71, 72
2, 30290, Note_on_c, 0, 65, 68
2, 30314, Note_on_c, 0, 71, 0
2, 30341, Note_on_c, 0, 65, 0
2, 30385, Note_on_c, 0, 55, 69
2, 30440, Note_on_c, 0, 55, 0
2, 30516, Note_on_c, 0, 64, 66
2, 30525, Note_on_c, 0, 72, 79
2, 30634, Note_on_c, 0, 64, 0
2, 30641, Note_on_c, 0, 76, 83
2, 30648, Note_on_c, 0, 60, 58
2, 30651, Note_on_c, 0, 72, 0
2, 30710, Note_on_c, 0, 60, 0
2, 30727, Note_on_c, 0, 59, 66
2, 30742, Note_on_c, 0, 76, 0
2, 30751, Note_on_c, 0, 75, 85
2, 30804, Note_on_c, 0, 59, 0
2, 30840, Note_on_c, 0, 60, 66
2, 30846, Note_on_c, 0, 76, 82
2, 30871, Note_on_c, 0, 75, 0
2, 30942, Note_on_c, 0, 60, 0
2, 30953, Note_on_c, 0, 76, 0
2, 30962, Note_on_c, 0, 81, 81
2, 30977, Note_on_c, 0, 54, 66
2, 31022, Note_on_c, 0, 54, 0
2, 31036, Note_on_c, 0, 81, 0
2, 31075, Note_on_c, 0, 72, 70
2, 31142, Note_on_c, 0, 72, 0
2, 31182, Note_on_c, 0, 79, 77
2, 31184, Note_on_c, 0, 64, 62
2, 31222, Note_on_c, 0, 64, 0
2, 31259, Note_on_c, 0, 79, 0
2, 31293, Note_on_c, 0, 72, 69
2, 31368, Note_on_c, 0, 72, 0
2, 31405, Note_on_c, 0, 63, 68
2, 31411, Note_on_c, 0, 78, 79
2, 31440, Note_on_c, 0, 63, 0
2, 31484, Note_on_c, 0, 78, 0
2, 31522, Note_on_c, 0, 72, 72
2, 31593, Note_on_c, 0, 72, 0
2, 31624, Note_on_c, 0, 66, 62
2, 31628, Note_on_c, 0, 76, 77
2, 31659, Note_on_c, 0, 66, 0
2, 31693, Note_on_c, 0, 76, 0
2, 31726, Note_on_c, 0, 72, 80
2, 31814, Note_on_c, 0, 72, 0
2, 31852, Note_on_c, 0, 75, 84
2, 31863, Note_on_c, 0, 59, 60
2, 31943, Note_on_c, 0, 75, 0
2, 31962, Note_on_c, 0, 59, 0
2, 31962, Note_on_c, 0, 71, 76
2, 31976, Note_on_c, 0, 63, 57
2, 32042, Note_on_c, 0, 63, 0
2, 32055, Note_on_c, 0, 71, 0
2, 32059, Note_on_c, 0, 70, 80
2, 32083, Note_on_c, 0, 61, 49
2, 32118, Note_on_c, 0, 61, 0
2, 32138, Note_on_c, 0, 70, 0
2, 32162, Note_on_c, 0, 63, 76
2, 32170, Note_on_c, 0, 71, 83
2, 32236, Note_on_c, 0, 63, 0
2, 32253, Note_on_c, 0, 71, 0
2, 32305, Note_on_c, 0, 79, 71
2, 32321, Note_on_c, 0, 52, 55
2, 32334, Note_on_c, 0, 77, 49
2, 32366, Note_on_c, 0, 77, 0
2, 32384, Note_on_c, 0, 79, 0
2, 32404, Note_on_c, 0, 71, 73
2, 32445, Note_on_c, 0, 52, 0
2, 32478, Note_on_c, 0, 71, 0
2, 32523, Note_on_c, 0, 78, 73
2, 32527, Note_on_c, 0, 54, 61
2, 32566, Note_on_c, 0, 54, 0
2, 32585, Note_on_c, 0, 78, 0
2, 32625, Note_on_c, 0, 71, 71
2, 32702, Note_on_c, 0, 71, 0
2, 32742, Note_on_c, 0, 55, 64
2, 32746, Note_on_c, 0, 76, 66
2, 32786, Note_on_c, 0, 55, 0
2, 32813, Note_on_c, 0, 76, 0
2, 32847, Note_on_c, 0, 71, 68
2, 32909, Note_on_c, 0, 71, 0
2, 32959, Note_on_c, 0, 74, 66
2, 32962, Note_on_c, 0, 52, 62
2, 32998, Note_on_c, 0, 52, 0
2, 33034, Note_on_c, 0, 74, 0
2, 33059, Note_on_c, 0, 71, 63
2, 33145, Note_on_c, 0, 71, 0
2, 33181, Note_on_c, 0, 57, 64
2, 33181, Note_on_c, 0, 72, 71
2, 33257, Note_on_c, 0, 72, 0
2, 33267, Note_on_c, 0, 57, 0
2, 33299, Note_on_c, 0, 69, 71
2, 33311, Note_on_c, 0, 60, 60
2, 33364, Note_on_c, 0, 60, 0
2, 33377, Note_on_c, 0, 69, 0
2, 33404, Note_on_c, 0, 67, 66
2, 33415, Note_on_c, 0, 59, 56
2, 33463, Note_on_c, 0, 59, 0
2, 33481, Note_on_c, 0, 67, 0
2, 33513, Note_on_c, 0, 60, 56
2, 33521, Note_on_c, 0, 69, 70
2, 33572, Note_on_c, 0, 60, 0
2, 33606, Note_on_c, 0, 69, 0
2, 33640, Note_on_c, 0, 57, 55
2, 33640, Note_on_c, 0, 66, 67
2, 33689, Note_on_c, 0, 57, 0
2, 33732, Note_on_c, 0, 66, 0
2, 33742, Note_on_c, 0, 69, 73
2, 33748, Note_on_c, 0, 60, 53
2, 33805, Note_on_c, 0, 60, 0
2, 33827, Note_on_c, 0, 69, 0
2, 33845, Note_on_c, 0, 64, 75
2, 33864, Note_on_c, 0, 55, 55
2, 33907, Note_on_c, 0, 55, 0
2, 33927, Note_on_c, 0, 64, 0
2, 33964, Note_on_c, 0, 60, 53
2, 33966, Note_on_c, 0, 69, 74
2, 34024, Note_on_c, 0, 60, 0
2, 34071, Note_on_c, 0, 54, 58
2, 34071, Note_on_c, 0, 69, 0
2, 34083, Note_on_c, 0, 63, 59
2, 34126, Note_on_c, 0, 54, 0
2, 34159, Note_on_c, 0, 63, 0
2, 34196, Note_on_c, 0, 60, 48
2, 34196, Note_on_c, 0, 69, 64
2, 34254, Note_on_c, 0, 69, 0
2, 34255, Note_on_c, 0, 60, 0
2, 34310, Note_on_c, 0, 64, 50
2, 34315, Note_on_c, 0, 52, 46
2, 34358, Note_on_c, 0, 64, 0
2, 34367, Note_on_c, 0, 52, 0
2, 34398, Note_on_c, 0, 69, 61
2, 34412, Note_on_c, 0, 60, 49
2, 34451, Note_on_c, 0, 69, 0
2, 34469, Note_on_c, 0, 60, 0
2, 34527, Note_on_c, 0, 66, 56
2, 34550, Note_on_c, 0, 51, 45
2, 34605, Note_on_c, 0, 51, 0
2, 34643, Note_on_c, 0, 66, 0
2, 34668, Note_on_c, 0, 59, 43
2, 34713, Note_on_c, 0, 59, 0
2, 34757, Note_on_c, 0, 75, 70
2, 34769, Note_on_c, 0, 47, 50
2, 34800, Note_on_c, 0, 75, 0
2, 34818, Note_on_c, 0, 47, 0
2, 34879, Note_on_c, 0, 59, 49
2, 34939, Note_on_c, 0, 59, 0
2, 34977, Note_on_c, 0, 49, 58
2, 34998, Note_on_c, 0, 76, 60
2, 35029, Note_on_c, 0, 49, 0
2, 35037, Note_on_c, 0, 76, 0
2, 35084, Note_on_c, 0, 59, 52
2, 35153, Note_on_c, 0, 59, 0
2, 35204, Note_on_c, 0, 51, 54
2, 35206, Note_on_c, 0, 79, 63
2, 35246, Note_on_c, 0, 79, 0
2, 35252, Note_on_c, 0, 51, 0
2, 35258, Note_on_c, 0, 78, 59
2, 35307, Note_on_c, 0, 76, 68
2, 35310, Note_on_c, 0, 59, 56
2, 35337, Note_on_c, 0, 78, 0
2, 35351, Note_on_c, 0, 78, 63
2, 35384, Note_on_c, 0, 76, 0
2, 35395, Note_on_c, 0, 59, 0
2, 35429, Note_on_c, 0, 78, 0
2, 35454, Note_on_c, 0, 52, 54
2, 35458, Note_on_c, 0, 79, 75
2, 35567, Note_on_c, 0, 59, 59
2, 35617, Note_on_c, 0, 52, 0
2, 35643, Note_on_c, 0, 59, 0
2, 35675, Note_on_c, 0, 75, 81
2, 35681, Note_on_c, 0, 54, 57
2, 35685, Note_on_c, 0, 79, 0
2, 35736, Note_on_c, 0, 54, 0
2, 35787, Note_on_c, 0, 59, 68
2, 35880, Note_on_c, 0, 59, 0
2, 35896, Note_on_c, 0, 76, 77
2, 35912, Note_on_c, 0, 55, 55
2, 35926, Note_on_c, 0, 75, 0
2, 35982, Note_on_c, 0, 55, 0
2, 36015, Note_on_c, 0, 59, 78
2, 36015, Note_on_c, 0, 71, 83
2, 36038, Note_on_c, 0, 76, 0
2, 36118, Note_on_c, 0, 57, 73
2, 36119, Note_on_c, 0, 59, 0
2, 36129, Note_on_c, 0, 72, 85
2, 36150, Note_on_c, 0, 71, 0
2, 36213, Note_on_c, 0, 72, 0
2, 36216, Note_on_c, 0, 57, 0
2, 36232, Note_on_c, 0, 69, 77
2, 36240, Note_on_c, 0, 60, 66
2, 36324, Note_on_c, 0, 69, 0
2, 36340, Note_on_c, 0, 60, 0
2, 36356, Note_on_c, 0, 59, 72
2, 36356, Note_on_c, 0, 67, 79
2, 36397, Note_on_c, 0, 67, 0
2, 36468, Note_on_c, 0, 57, 65
2, 36476, Note_on_c, 0, 59, 0
2, 36572, Note_on_c, 0, 57, 0
2, 36586, Note_on_c, 0, 55, 65
2, 36590, Note_on_c, 0, 74, 59
2, 36636, Note_on_c, 0, 74, 0
2, 36700, Note_on_c, 0, 55, 0
2, 36705, Note_on_c, 0, 57, 72
2, 36775, Note_on_c, 0, 57, 0
2, 36794, Note_on_c, 0, 66, 82
2, 36813, Note_on_c, 0, 59, 74
2, 37045, Note_on_c, 0, 59, 0
2, 37063, Note_on_c, 0, 66, 0
2, 37066, Note_on_c, 0, 76, 71
2, 37089, Note_on_c, 0, 47, 64
2, 37136, Note_on_c, 0, 75, 75
2, 37141, Note_on_c, 0, 76, 0
2, 37163, Note_on_c, 0, 73, 81
2, 37167, Note_on_c, 0, 75, 0
2, 37246, Note_on_c, 0, 75, 84
2, 37274, Note_on_c, 0, 73, 0
2, 37306, Note_on_c, 0, 47, 0
2, 37316, Note_on_c, 0, 75, 0
2, 37323, Note_on_c, 0, 52, 74
2, 37325, Note_on_c, 0, 76, 86
2, 37382, Note_on_c, 0, 52, 0
2, 37405, Note_on_c, 0, 51, 74
2, 37424, Note_on_c, 0, 71, 91
2, 37441, Note_on_c, 0, 76, 0
2, 37443, Note_on_c, 0, 51, 0
2, 37479, Note_on_c, 0, 52, 74
2, 37545, Note_on_c, 0, 67, 79
2, 37551, Note_on_c, 0, 71, 0
2, 37650, Note_on_c, 0, 71, 78
2, 37659, Note_on_c, 0, 67, 0
2, 37794, Note_on_c, 0, 71, 0
2, 37807, Note_on_c, 0, 64, 68
2, 37916, Note_on_c, 0, 52, 0
2, 37926, Note_on_c, 0, 47, 62
2, 38017, Note_on_c, 0, 47, 0
2, 38038, Note_on_c, 0, 43, 56
2, 38115, Note_on_c, 0, 43, 0
2, 38146, Note_on_c, 0, 47, 54
2, 38234, Note_on_c, 0, 47, 0
2, 38282, Note_on_c, 0, 40, 52
2, 38382, Note_on_c, 0, 64, 0
2, 38422, Note_on_c, 0, 67, 63
2, 38446, Note_on_c, 0, 40, 0
2, 38514, Note_on_c, 0, 67, 0
2, 38539, Note_on_c, 0, 71, 63
2, 38626, Note_on_c, 0, 71, 0
2, 38649, Note_on_c, 0, 74, 56
2, 38782, Note_on_c, 0, 73, 60
2, 38782, Note_on_c, 0, 74, 0
2, 38825, Note_on_c, 0, 73, 0
2, 38886, Note_on_c, 0, 45, 52
2, 38984, Note_on_c, 0, 45, 0
2, 39004, Note_on_c, 0, 49, 55
2, 39012, Note_on_c, 0, 69, 64
2, 39071, Note_on_c, 0, 69, 0
2, 39086, Note_on_c, 0, 49, 0
2, 39128, Note_on_c, 0, 45, 57
2, 39219, Note_on_c, 0, 45, 0
2, 39230, Note_on_c, 0, 73, 79
2, 39231, Note_on_c, 0, 52, 62
2, 39298, Note_on_c, 0, 73, 0
2, 39317, Note_on_c, 0, 52, 0
2, 39359, Note_on_c, 0, 45, 63
2, 39436, Note_on_c, 0, 45, 0
2, 39442, Note_on_c, 0, 76, 80
2, 39458, Note_on_c, 0, 55, 66
2, 39514, Note_on_c, 0, 76, 0
2, 39555, Note_on_c, 0, 55, 0
2, 39563, Note_on_c, 0, 45, 63
2, 39670, Note_on_c, 0, 45, 0
2, 39689, Note_on_c, 0, 81, 84
2, 39693, Note_on_c, 0, 54, 63
2, 39754, Note_on_c, 0, 81, 0
2, 39776, Note_on_c, 0, 54, 0
2, 39800, Note_on_c, 0, 45, 65
2, 39858, Note_on_c, 0, 45, 0
2, 39902, Note_on_c, 0, 52, 69
2, 39912, Note_on_c, 0, 79, 86
2, 39967, Note_on_c, 0, 79, 0
2, 40006, Note_on_c, 0, 52, 0
2, 40009, Note_on_c, 0, 45, 58
2, 40112, Note_on_c, 0, 45, 0
2, 40158, Note_on_c, 0, 78, 85
2, 40161, Note_on_c, 0, 50, 55
2, 40271, Note_on_c, 0, 50, 0
2, 40281, Note_on_c, 0, 45, 57
2, 40380, Note_on_c, 0, 45, 0
2, 40382, Note_on_c, 0, 42, 62
2, 40385, Note_on_c, 0, 81, 77
2, 40423, Note_on_c, 0, 78, 0
2, 40425, Note_on_c, 0, 79, 49
2, 40458, Note_on_c, 0, 79, 0
2, 40475, Note_on_c, 0, 81, 0
2, 40496, Note_on_c, 0, 42, 0
2, 40522, Note_on_c, 0, 45, 59
2, 40585, Note_on_c, 0, 45, 0
2, 40615, Note_on_c, 0, 78, 75
2, 40628, Note_on_c, 0, 38, 65
2, 40668, Note_on_c, 0, 78, 0
2, 40737, Note_on_c, 0, 42, 60
2, 40739, Note_on_c, 0, 38, 0
2, 40832, Note_on_c, 0, 45, 58
2, 40843, Note_on_c, 0, 74, 69
2, 40870, Note_on_c, 0, 42, 0
2, 40881, Note_on_c, 0, 74, 0
2, 40895, Note_on_c, 0, 45, 0
2, 40955, Note_on_c, 0, 50, 59
2, 41005, Note_on_c, 0, 50, 0
2, 41077, Note_on_c, 0, 54, 61
2, 41077, Note_on_c, 0, 69, 65
2, 41133, Note_on_c, 0, 69, 0
2, 41160, Note_on_c, 0, 54, 0
2, 41206, Note_on_c, 0, 57, 64
2, 41264, Note_on_c, 0, 57, 0
2, 41298, Note_on_c, 0, 54, 61
2, 41303, Note_on_c, 0, 72, 69
2, 41345, Note_on_c, 0, 72, 0
2, 41391, Note_on_c, 0, 54, 0
2, 41400, Note_on_c, 0, 50, 60
2, 41481, Note_on_c, 0, 50, 0
2, 41536, Note_on_c, 0, 55, 60
2, 41546, Note_on_c, 0, 71, 72
2, 41602, Note_on_c, 0, 55, 0
2, 41657, Note_on_c, 0, 43, 69
2, 41750, Note_on_c, 0, 71, 0
2, 41762, Note_on_c, 0, 43, 0
2, 41762, Note_on_c, 0, 67, 79
2, 41763, Note_on_c, 0, 47, 70
2, 41897, Note_on_c, 0, 67, 0
2, 41900, Note_on_c, 0, 43, 70
2, 41900, Note_on_c, 0, 47, 0
2, 41987, Note_on_c, 0, 71, 86
2, 42001, Note_on_c, 0, 43, 0
2, 42016, Note_on_c, 0, 50, 68
2, 42046, Note_on_c, 0, 71, 0
2, 42077, Note_on_c, 0, 50, 0
2, 42118, Note_on_c, 0, 43, 63
2, 42193, Note_on_c, 0, 43, 0
2, 42208, Note_on_c, 0, 74, 72
2, 42227, Note_on_c, 0, 53, 65
2, 42267, Note_on_c, 0, 74, 0
2, 42284, Note_on_c, 0, 53, 0
2, 42332, Note_on_c, 0, 43, 57
2, 42414, Note_on_c, 0, 43, 0
2, 42440, Note_on_c, 0, 79, 76
2, 42449, Note_on_c, 0, 52, 58
2, 42490, Note_on_c, 0, 79, 0
2, 42503, Note_on_c, 0, 52, 0
2, 42557, Note_on_c, 0, 43, 54
2, 42637, Note_on_c, 0, 43, 0
2, 42666, Note_on_c, 0, 77, 71
2, 42677, Note_on_c, 0, 50, 59
2, 42702, Note_on_c, 0, 77, 0
2, 42727, Note_on_c, 0, 50, 0
2, 42764, Note_on_c, 0, 43, 60
2, 42865, Note_on_c, 0, 43, 0
2, 42908, Note_on_c, 0, 48, 53
2, 42918, Note_on_c, 0, 76, 73
2, 42949, Note_on_c, 0, 76, 0
2, 42982, Note_on_c, 0, 74, 64
2, 42985, Note_on_c, 0, 48, 0
2, 43018, Note_on_c, 0, 43, 61
2, 43025, Note_on_c, 0, 76, 80
2, 43053, Note_on_c, 0, 74, 0
2, 43108, Note_on_c, 0, 43, 0
2, 43134, Note_on_c, 0, 40, 61
2, 43217, Note_on_c, 0, 40, 0
2, 43240, Note_on_c, 0, 43, 57
2, 43344, Note_on_c, 0, 43, 0
2, 43382, Note_on_c, 0, 36, 52
2, 43512, Note_on_c, 0, 74, 54
2, 43521, Note_on_c, 0, 76, 0
2, 43629, Note_on_c, 0, 72, 64
2, 43658, Note_on_c, 0, 74, 0
2, 43702, Note_on_c, 0, 36, 0
2, 43706, Note_on_c, 0, 72, 0
2, 43740, Note_on_c, 0, 71, 65
2, 43844, Note_on_c, 0, 71, 0
2, 43856, Note_on_c, 0, 69, 76
2, 43957, Note_on_c, 0, 67, 73
2, 43967, Note_on_c, 0, 69, 0
2, 44066, Note_on_c, 0, 66, 80
2, 44099, Note_on_c, 0, 67, 0
2, 44152, Note_on_c, 0, 66, 0
2, 44173, Note_on_c, 0, 64, 81
2, 44296, Note_on_c, 0, 66, 78
2, 44300, Note_on_c, 0, 64, 0
2, 44342, Note_on_c, 0, 66, 0
2, 44423, Note_on_c, 0, 48, 53
2, 44507, Note_on_c, 0, 48, 0
2, 44543, Note_on_c, 0, 47, 55
2, 44549, Note_on_c, 0, 74, 64
2, 44587, Note_on_c, 0, 74, 0
2, 44597, Note_on_c, 0, 72, 69
2, 44632, Note_on_c, 0, 47, 0
2, 44657, Note_on_c, 0, 45, 57
2, 44665, Note_on_c, 0, 72, 0
2, 44764, Note_on_c, 0, 45, 0
2, 44793, Note_on_c, 0, 47, 63
2, 44831, Note_on_c, 0, 47, 0
2, 44888, Note_on_c, 0, 72, 68
2, 45002, Note_on_c, 0, 71, 71
2, 45016, Note_on_c, 0, 50, 67
2, 45030, Note_on_c, 0, 72, 0
2, 45050, Note_on_c, 0, 50, 0
2, 45072, Note_on_c, 0, 71, 0
2, 45121, Note_on_c, 0, 69, 75
2, 45222, Note_on_c, 0, 52, 73
2, 45234, Note_on_c, 0, 69, 0
2, 45238, Note_on_c, 0, 67, 67
2, 45253, Note_on_c, 0, 52, 0
2, 45338, Note_on_c, 0, 66, 75
2, 45378, Note_on_c, 0, 67, 0
2, 45457, Note_on_c, 0, 64, 75
2, 45461, Note_on_c, 0, 55, 70
2, 45499, Note_on_c, 0, 66, 0
2, 45528, Note_on_c, 0, 64, 0
2, 45561, Note_on_c, 0, 62, 78
2, 45660, Note_on_c, 0, 62, 0
2, 45675, Note_on_c, 0, 64, 79
2, 45707, Note_on_c, 0, 64, 0
2, 45746, Note_on_c, 0, 55, 0
2, 45783, Note_on_c, 0, 47, 66
2, 45924, Note_on_c, 0, 72, 74
2, 45931, Note_on_c, 0, 45, 64
2, 45963, Note_on_c, 0, 72, 0
2, 45974, Note_on_c, 0, 71, 73
2, 45975, Note_on_c, 0, 47, 0
2, 46022, Note_on_c, 0, 45, 0
2, 46033, Note_on_c, 0, 72, 79
2, 46035, Note_on_c, 0, 43, 62
2, 46044, Note_on_c, 0, 71, 0
2, 46151, Note_on_c, 0, 43, 0
2, 46158, Note_on_c, 0, 45, 59
2, 46195, Note_on_c, 0, 45, 0
2, 46282, Note_on_c, 0, 71, 66
2, 46284, Note_on_c, 0, 72, 0
2, 46404, Note_on_c, 0, 69, 68
2, 46430, Note_on_c, 0, 71, 0
2, 46481, Note_on_c, 0, 69, 0
2, 46526, Note_on_c, 0, 67, 63
2, 46606, Note_on_c, 0, 67, 0
2, 46621, Note_on_c, 0, 66, 69
2, 46622, Note_on_c, 0, 50, 71
2, 46665, Note_on_c, 0, 50, 0
2, 46729, Note_on_c, 0, 64, 67
2, 46770, Note_on_c, 0, 66, 0
2, 46818, Note_on_c, 0, 64, 0
2, 46849, Note_on_c, 0, 62, 65
2, 46862, Note_on_c, 0, 54, 66
2, 46945, Note_on_c, 0, 62, 0
2, 46957, Note_on_c, 0, 60, 66
2, 47038, Note_on_c, 0, 60, 0
2, 47084, Note_on_c, 0, 62, 64
2, 47182, Note_on_c, 0, 62, 0
2, 47200, Note_on_c, 0, 66, 68
2, 47221, Note_on_c, 0, 45, 66
2, 47234, Note_on_c, 0, 54, 0
2, 47321, Note_on_c, 0, 64, 68
2, 47349, Note_on_c, 0, 43, 66
2, 47361, Note_on_c, 0, 66, 0
2, 47369, Note_on_c, 0, 45, 0
2, 47405, Note_on_c, 0, 64, 0
2, 47430, Note_on_c, 0, 62, 68
2, 47442, Note_on_c, 0, 43, 0
2, 47445, Note_on_c, 0, 42, 69
2, 47553, Note_on_c, 0, 62, 0
2, 47555, Note_on_c, 0, 64, 70
2, 47560, Note_on_c, 0, 42, 0
2, 47571, Note_on_c, 0, 43, 72
2, 47641, Note_on_c, 0, 43, 0
2, 47654, Note_on_c, 0, 64, 0
2, 47657, Note_on_c, 0, 66, 79
2, 47749, Note_on_c, 0, 66, 0
2, 47779, Note_on_c, 0, 67, 77
2, 47792, Note_on_c, 0, 47, 68
2, 47841, Note_on_c, 0, 47, 0
2, 47877, Note_on_c, 0, 67, 0
2, 47882, Note_on_c, 0, 69, 82
2, 47979, Note_on_c, 0, 69, 0
2, 47998, Note_on_c, 0, 71, 84
2, 48016, Note_on_c, 0, 50, 65
2, 48051, Note_on_c, 0, 50, 0
2, 48111, Note_on_c, 0, 69, 80
2, 48111, Note_on_c, 0, 71, 0
2, 48217, Note_on_c, 0, 69, 0
2, 48234, Note_on_c, 0, 71, 87
2, 48256, Note_on_c, 0, 55, 69
2, 48295, Note_on_c, 0, 55, 0
2, 48338, Note_on_c, 0, 71, 0
2, 48347, Note_on_c, 0, 67, 76
2, 48454, Note_on_c, 0, 67, 0
2, 48461, Note_on_c, 0, 69, 79
2, 48490, Note_on_c, 0, 54, 64
2, 48600, Note_on_c, 0, 69, 0
2, 48602, Note_on_c, 0, 74, 78
2, 48682, Note_on_c, 0, 54, 0
2, 48706, Note_on_c, 0, 50, 62
2, 48722, Note_on_c, 0, 72, 78
2, 48751, Note_on_c, 0, 74, 0
2, 48770, Note_on_c, 0, 50, 0
2, 48827, Note_on_c, 0, 71, 74
2, 48855, Note_on_c, 0, 72, 0
2, 48942, Note_on_c, 0, 54, 59
2, 48944, Note_on_c, 0, 71, 0
2, 48947, Note_on_c, 0, 69, 66
2, 49005, Note_on_c, 0, 54, 0
2, 49005, Note_on_c, 0, 69, 0
2, 49050, Note_on_c, 0, 67, 60
2, 49155, Note_on_c, 0, 67, 0
2, 49166, Note_on_c, 0, 57, 63
2, 49171, Note_on_c, 0, 66, 65
2, 49201, Note_on_c, 0, 57, 0
2, 49248, Control_c, 0, 67, 8
2, 49268, Control_c, 0, 67, 29
2, 49275, Note_on_c, 0, 66, 0
2, 49279, Note_on_c, 0, 64, 62
2, 49287, Control_c, 0, 67, 60
2, 49307, Control_c, 0, 67, 100
2, 49325, Control_c, 0, 67, 127
2, 49418, Note_on_c, 0, 62, 56
2, 49431, Note_on_c, 0, 64, 0
2, 49549, Note_on_c, 0, 50, 57
2, 49618, Note_on_c, 0, 50, 0
2, 49649, Note_on_c, 0, 48, 58
2, 49715, Note_on_c, 0, 48, 0
2, 49767, Note_on_c, 0, 50, 56
2, 49827, Note_on_c, 0, 50, 0
2, 49869, Note_on_c, 0, 47, 55
2, 49917, Note_on_c, 0, 47, 0
2, 49983, Note_on_c, 0, 62, 0
2, 49984, Note_on_c, 0, 50, 48
2, 50007, Note_on_c, 0, 67, 50
2, 50041, Note_on_c, 0, 50, 0
2, 50099, Note_on_c, 0, 45, 55
2, 50100, Note_on_c, 0, 67, 0
2, 50117, Note_on_c, 0, 60, 54
2, 50140, Note_on_c, 0, 45, 0
2, 50180, Note_on_c, 0, 60, 0
2, 50214, Note_on_c, 0, 50, 45
2, 50238, Note_on_c, 0, 67, 51
2, 50272, Note_on_c, 0, 50, 0
2, 50294, Note_on_c, 0, 67, 0
2, 50328, Note_on_c, 0, 47, 54
2, 50344, Note_on_c, 0, 62, 53
2, 50371, Note_on_c, 0, 47, 0
2, 50407, Note_on_c, 0, 62, 0
2, 50449, Note_on_c, 0, 67, 52
2, 50458, Note_on_c, 0, 50, 37
2, 50502, Note_on_c, 0, 50, 0
2, 50520, Note_on_c, 0, 67, 0
2, 50568, Note_on_c, 0, 59, 61
2, 50579, Note_on_c, 0, 43, 47
2, 50630, Note_on_c, 0, 59, 0
2, 50648, Note_on_c, 0, 43, 0
2, 50689, Note_on_c, 0, 67, 55
2, 50700, Note_on_c, 0, 50, 47
2, 50746, Note_on_c, 0, 50, 0
2, 50770, Note_on_c, 0, 67, 0
2, 50807, Note_on_c, 0, 60, 57
2, 50810, Note_on_c, 0, 45, 47
2, 50862, Note_on_c, 0, 45, 0
2, 50869, Note_on_c, 0, 60, 0
2, 50911, Note_on_c, 0, 50, 49
2, 50920, Note_on_c, 0, 67, 61
2, 50965, Note_on_c, 0, 50, 0
2, 50987, Note_on_c, 0, 67, 0
2, 51017, Note_on_c, 0, 47, 55
2, 51021, Note_on_c, 0, 62, 60
2, 51070, Note_on_c, 0, 47, 0
2, 51107, Note_on_c, 0, 62, 0
2, 51119, Note_on_c, 0, 50, 57
2, 51143, Note_on_c, 0, 67, 53
2, 51174, Note_on_c, 0, 50, 0
2, 51204, Note_on_c, 0, 67, 0
2, 51236, Note_on_c, 0, 48, 49
2, 51257, Note_on_c, 0, 64, 58
2, 51292, Note_on_c, 0, 48, 0
2, 51331, Note_on_c, 0, 64, 0
2, 51362, Note_on_c, 0, 67, 53
2, 51368, Note_on_c, 0, 52, 47
2, 51411, Note_on_c, 0, 52, 0
2, 51441, Note_on_c, 0, 67, 0
2, 51466, Note_on_c, 0, 47, 52
2, 51477, Note_on_c, 0, 62, 57
2, 51512, Note_on_c, 0, 47, 0
2, 51532, Control_c, 0, 67, 125
2, 51552, Control_c, 0, 67, 120
2, 51556, Note_on_c, 0, 62, 0
2, 51570, Note_on_c, 0, 52, 53
2, 51571, Control_c, 0, 67, 114
2, 51586, Note_on_c, 0, 67, 49
2, 51590, Control_c, 0, 67, 106
2, 51609, Control_c, 0, 67, 96
2, 51628, Note_on_c, 0, 52, 0
2, 51629, Control_c, 0, 67, 84
2, 51639, Note_on_c, 0, 67, 0
2, 51647, Control_c, 0, 67, 68
2, 51667, Control_c, 0, 67, 53
2, 51684, Note_on_c, 0, 49, 59
2, 51686, Control_c, 0, 67, 39
2, 51686, Note_on_c, 0, 64, 66
2, 51706, Control_c, 0, 67, 27
2, 51724, Control_c, 0, 67, 17
2, 51737, Note_on_c, 0, 49, 0
2, 51744, Control_c, 0, 67, 0
2, 51776, Note_on_c, 0, 64, 0
2, 51803, Note_on_c, 0, 69, 70
2, 51814, Note_on_c, 0, 52, 50
2, 51872, Note_on_c, 0, 52, 0
2, 51883, Note_on_c, 0, 69, 0
2, 51922, Note_on_c, 0, 61, 59
2, 51929, Note_on_c, 0, 45, 45
2, 51998, Note_on_c, 0, 61, 0
2, 52029, Note_on_c, 0, 45, 0
2, 52030, Note_on_c, 0, 69, 66
2, 52055, Note_on_c, 0, 52, 48
2, 52104, Note_on_c, 0, 69, 0
2, 52110, Note_on_c, 0, 52, 0
2, 52149, Note_on_c, 0, 62, 61
2, 52166, Note_on_c, 0, 47, 52
2, 52218, Note_on_c, 0, 47, 0
2, 52232, Note_on_c, 0, 62, 0
2, 52259, Note_on_c, 0, 69, 72
2, 52266, Note_on_c, 0, 52, 56
2, 52328, Note_on_c, 0, 52, 0
2, 52353, Note_on_c, 0, 69, 0
2, 52374, Note_on_c, 0, 64, 70
2, 52376, Note_on_c, 0, 49, 69
2, 52437, Note_on_c, 0, 49, 0
2, 52460, Note_on_c, 0, 64, 0
2, 52487, Note_on_c, 0, 52, 55
2, 52487, Note_on_c, 0, 69, 72
2, 52548, Note_on_c, 0, 52, 0
2, 52584, Note_on_c, 0, 69, 0
2, 52590, Note_on_c, 0, 50, 59
2, 52593, Note_on_c, 0, 66, 72
2, 52674, Note_on_c, 0, 50, 0
2, 52699, Note_on_c, 0, 66, 0
2, 52699, Note_on_c, 0, 69, 75
2, 52726, Note_on_c, 0, 54, 58
2, 52778, Note_on_c, 0, 54, 0
2, 52787, Note_on_c, 0, 69, 0
2, 52811, Note_on_c, 0, 64, 74
2, 52822, Note_on_c, 0, 49, 68
2, 52883, Note_on_c, 0, 49, 0
2, 52907, Note_on_c, 0, 64, 0
2, 52923, Note_on_c, 0, 69, 73
2, 52937, Note_on_c, 0, 54, 59
2, 52987, Note_on_c, 0, 54, 0
2, 53007, Note_on_c, 0, 69, 0
2, 53024, Note_on_c, 0, 66, 72
2, 53046, Note_on_c, 0, 51, 56
2, 53087, Note_on_c, 0, 51, 0
2, 53102, Note_on_c, 0, 66, 0
2, 53136, Note_on_c, 0, 54, 56
2, 53149, Note_on_c, 0, 71, 70
2, 53200, Note_on_c, 0, 54, 0
2, 53212, Note_on_c, 0, 71, 0
2, 53268, Note_on_c, 0, 63, 67
2, 53280, Note_on_c, 0, 47, 62
2, 53357, Note_on_c, 0, 63, 0
2, 53361, Note_on_c, 0, 47, 0
2, 53372, Note_on_c, 0, 71, 73
2, 53395, Note_on_c, 0, 54, 55
2, 53452, Note_on_c, 0, 71, 0
2, 53457, Note_on_c, 0, 54, 0
2, 53486, Note_on_c, 0, 64, 76
2, 53498, Note_on_c, 0, 49, 63
2, 53560, Note_on_c, 0, 49, 0
2, 53579, Note_on_c, 0, 64, 0
2, 53590, Note_on_c, 0, 71, 78
2, 53598, Note_on_c, 0, 54, 62
2, 53657, Note_on_c, 0, 54, 0
2, 53695, Note_on_c, 0, 71, 0
2, 53702, Note_on_c, 0, 51, 62
2, 53702, Note_on_c, 0, 66, 75
2, 53758, Note_on_c, 0, 51, 0
2, 53786, Note_on_c, 0, 66, 0
2, 53792, Note_on_c, 0, 54, 58
2, 53804, Note_on_c, 0, 71, 83
2, 53847, Note_on_c, 0, 54, 0
2, 53912, Note_on_c, 0, 52, 58
2, 53918, Note_on_c, 0, 71, 0
2, 53919, Note_on_c, 0, 67, 75
2, 54008, Note_on_c, 0, 52, 0
2, 54029, Note_on_c, 0, 67, 0
2, 54032, Note_on_c, 0, 55, 63
2, 54035, Note_on_c, 0, 71, 81
2, 54095, Note_on_c, 0, 55, 0
2, 54128, Note_on_c, 0, 71, 0
2, 54140, Note_on_c, 0, 66, 77
2, 54148, Note_on_c, 0, 50, 57
2, 54203, Note_on_c, 0, 50, 0
2, 54231, Note_on_c, 0, 66, 0
2, 54244, Note_on_c, 0, 71, 80
2, 54252, Note_on_c, 0, 55, 61
2, 54318, Note_on_c, 0, 55, 0
2, 54323, Note_on_c, 0, 71, 0
2, 54356, Note_on_c, 0, 48, 65
2, 54363, Note_on_c, 0, 64, 78
2, 54410, Note_on_c, 0, 64, 0
2, 54418, Note_on_c, 0, 48, 0
2, 54470, Note_on_c, 0, 55, 59
2, 54543, Note_on_c, 0, 55, 0
2, 54582, Note_on_c, 0, 47, 74
2, 54585, Note_on_c, 0, 67, 75
2, 54623, Note_on_c, 0, 67, 0
2, 54646, Note_on_c, 0, 47, 0
2, 54682, Note_on_c, 0, 55, 64
2, 54821, Note_on_c, 0, 45, 63
2, 54822, Note_on_c, 0, 55, 0
2, 54827, Note_on_c, 0, 72, 79
2, 54865, Note_on_c, 0, 72, 0
2, 54874, Note_on_c, 0, 71, 67
2, 54907, Note_on_c, 0, 45, 0
2, 54918, Note_on_c, 0, 48, 61
2, 54943, Note_on_c, 0, 72, 83
2, 54950, Note_on_c, 0, 71, 0
2, 54996, Note_on_c, 0, 72, 0
2, 55019, Note_on_c, 0, 52, 71
2, 55023, Note_on_c, 0, 48, 0
2, 55097, Note_on_c, 0, 52, 0
2, 55125, Note_on_c, 0, 55, 69
2, 55216, Note_on_c, 0, 55, 0
2, 55268, Note_on_c, 0, 54, 64
2, 55404, Note_on_c, 0, 81, 82
2, 55439, Note_on_c, 0, 54, 0
2, 55513, Note_on_c, 0, 79, 83
2, 55526, Note_on_c, 0, 81, 0
2, 55535, Note_on_c, 0, 57, 62
2, 55581, Note_on_c, 0, 57, 0
2, 55617, Note_on_c, 0, 79, 0
2, 55622, Note_on_c, 0, 81, 82
2, 55741, Note_on_c, 0, 78, 80
2, 55744, Note_on_c, 0, 81, 0
2, 55750, Note_on_c, 0, 50, 59
2, 55824, Note_on_c, 0, 50, 0
2, 55847, Note_on_c, 0, 78, 0
2, 55847, Note_on_c, 0, 81, 83
2, 55948, Note_on_c, 0, 81, 0
2, 55962, Note_on_c, 0, 76, 74
2, 55971, Note_on_c, 0, 52, 51
2, 56015, Note_on_c, 0, 52, 0
2, 56038, Note_on_c, 0, 76, 0
2, 56070, Note_on_c, 0, 81, 76
2, 56156, Note_on_c, 0, 81, 0
2, 56171, Note_on_c, 0, 54, 48
2, 56188, Note_on_c, 0, 74, 67
2, 56219, Note_on_c, 0, 54, 0
2, 56259, Note_on_c, 0, 74, 0
2, 56296, Note_on_c, 0, 81, 71
2, 56382, Note_on_c, 0, 81, 0
2, 56420, Note_on_c, 0, 72, 70
2, 56426, Note_on_c, 0, 50, 45
2, 56461, Note_on_c, 0, 50, 0
2, 56477, Note_on_c, 0, 72, 0
2, 56529, Note_on_c, 0, 81, 68
2, 56620, Note_on_c, 0, 81, 0
2, 56651, Note_on_c, 0, 71, 64
2, 56657, Note_on_c, 0, 55, 52
2, 56693, Note_on_c, 0, 55, 0
2, 56721, Note_on_c, 0, 71, 0
2, 56749, Note_on_c, 0, 67, 60
2, 56843, Note_on_c, 0, 67, 0
2, 56882, Note_on_c, 0, 74, 74
2, 56889, Note_on_c, 0, 65, 56
2, 56933, Note_on_c, 0, 74, 0
2, 56940, Note_on_c, 0, 65, 0
2, 56987, Note_on_c, 0, 67, 63
2, 57043, Note_on_c, 0, 67, 0
2, 57103, Note_on_c, 0, 64, 65
2, 57119, Note_on_c, 0, 79, 83
2, 57154, Note_on_c, 0, 64, 0
2, 57182, Note_on_c, 0, 79, 0
2, 57224, Note_on_c, 0, 67, 50
2, 57296, Note_on_c, 0, 67, 0
2, 57344, Note_on_c, 0, 62, 49
2, 57347, Note_on_c, 0, 77, 68
2, 57393, Note_on_c, 0, 77, 0
2, 57407, Note_on_c, 0, 62, 0
2, 57459, Note_on_c, 0, 67, 50
2, 57516, Note_on_c, 0, 67, 0
2, 57578, Note_on_c, 0, 76, 61
2, 57580, Note_on_c, 0, 60, 51
2, 57621, Note_on_c, 0, 76, 0
2, 57633, Note_on_c, 0, 60, 0
2, 57676, Note_on_c, 0, 67, 50
2, 57750, Note_on_c, 0, 67, 0
2, 57808, Note_on_c, 0, 74, 65
2, 57812, Note_on_c, 0, 59, 53
2, 57848, Note_on_c, 0, 74, 0
2, 57903, Note_on_c, 0, 67, 58
2, 57991, Note_on_c, 0, 67, 0
2, 58048, Note_on_c, 0, 59, 0
2, 58058, Note_on_c, 0, 60, 45
2, 58058, Note_on_c, 0, 76, 75
2, 58136, Note_on_c, 0, 76, 0
2, 58143, Note_on_c, 0, 60, 0
2, 58163, Note_on_c, 0, 72, 72
2, 58176, Note_on_c, 0, 64, 57
2, 58258, Note_on_c, 0, 72, 0
2, 58266, Note_on_c, 0, 71, 76
2, 58277, Note_on_c, 0, 64, 0
2, 58289, Note_on_c, 0, 62, 60
2, 58332, Note_on_c, 0, 71, 0
2, 58350, Note_on_c, 0, 62, 0
2, 58373, Note_on_c, 0, 72, 81
2, 58406, Note_on_c, 0, 64, 53
2, 58475, Note_on_c, 0, 72, 0
2, 58477, Note_on_c, 0, 64, 0
2, 58517, Note_on_c, 0, 84, 83
2, 58526, Note_on_c, 0, 57, 55
2, 58592, Note_on_c, 0, 84, 0
2, 58622, Note_on_c, 0, 72, 72
2, 58657, Note_on_c, 0, 57, 0
2, 58699, Note_on_c, 0, 72, 0
2, 58745, Note_on_c, 0, 83, 85
2, 58755, Note_on_c, 0, 59, 64
2, 58801, Note_on_c, 0, 59, 0
2, 58818, Note_on_c, 0, 83, 0
2, 58854, Note_on_c, 0, 72, 69
2, 58932, Note_on_c, 0, 72, 0
2, 58971, Note_on_c, 0, 60, 63
2, 58977, Note_on_c, 0, 81, 82
2, 59008, Note_on_c, 0, 60, 0
2, 59038, Note_on_c, 0, 81, 0
2, 59081, Note_on_c, 0, 72, 65
2, 59147, Note_on_c, 0, 72, 0
2, 59193, Note_on_c, 0, 57, 65
2, 59202, Note_on_c, 0, 79, 79
2, 59233, Note_on_c, 0, 57, 0
2, 59269, Note_on_c, 0, 79, 0
2, 59310, Note_on_c, 0, 72, 59
2, 59408, Note_on_c, 0, 72, 0
2, 59435, Note_on_c, 0, 62, 54
2, 59444, Note_on_c, 0, 78, 72
2, 59545, Note_on_c, 0, 78, 0
2, 59548, Note_on_c, 0, 72, 69
2, 59586, Note_on_c, 0, 62, 0
2, 59639, Note_on_c, 0, 72, 0
2, 59661, Note_on_c, 0, 79, 81
2, 59678, Note_on_c, 0, 57, 57
2, 59740, Note_on_c, 0, 79, 0
2, 59777, Note_on_c, 0, 72, 76
2, 59791, Note_on_c, 0, 57, 0
2, 59864, Note_on_c, 0, 72, 0
2, 59889, Note_on_c, 0, 54, 56
2, 59892, Note_on_c, 0, 81, 83
2, 59960, Note_on_c, 0, 54, 0
2, 59987, Note_on_c, 0, 81, 0
2, 60014, Note_on_c, 0, 72, 66
2, 60101, Note_on_c, 0, 72, 0
2, 60131, Note_on_c, 0, 79, 76
2, 60143, Note_on_c, 0, 57, 46
2, 60184, Note_on_c, 0, 57, 0
2, 60185, Note_on_c, 0, 79, 0
2, 60244, Note_on_c, 0, 72, 64
2, 60307, Note_on_c, 0, 72, 0
2, 60357, Note_on_c, 0, 50, 52
2, 60361, Note_on_c, 0, 78, 68
2, 60435, Note_on_c, 0, 78, 0
2, 60467, Note_on_c, 0, 72, 56
2, 60475, Note_on_c, 0, 50, 0
2, 60537, Note_on_c, 0, 72, 0
2, 60576, Note_on_c, 0, 54, 57
2, 60576, Note_on_c, 0, 76, 68
2, 60609, Note_on_c, 0, 54, 0
2, 60640, Note_on_c, 0, 76, 0
2, 60681, Note_on_c, 0, 72, 63
2, 60743, Note_on_c, 0, 72, 0
2, 60797, Note_on_c, 0, 74, 54
2, 60806, Note_on_c, 0, 47, 56
2, 60844, Note_on_c, 0, 74, 0
2, 60860, Note_on_c, 0, 47, 0
2, 60881, Note_on_c, 0, 72, 54
2, 60928, Note_on_c, 0, 72, 0
2, 60947, Note_on_c, 0, 71, 64
2, 61000, Note_on_c, 0, 71, 0
2, 61007, Note_on_c, 0, 72, 79
2, 61031, Note_on_c, 0, 50, 58
2, 61058, Note_on_c, 0, 71, 63
2, 61058, Note_on_c, 0, 72, 0
2, 61072, Note_on_c, 0, 50, 0
2, 61117, Note_on_c, 0, 71, 0
2, 61134, Note_on_c, 0, 69, 75
2, 61231, Note_on_c, 0, 69, 0
2, 61250, Note_on_c, 0, 43, 56
2, 61252, Note_on_c, 0, 71, 74
2, 61286, Note_on_c, 0, 71, 0
2, 61360, Note_on_c, 0, 43, 0
2, 61370, Note_on_c, 0, 45, 60
2, 61470, Note_on_c, 0, 45, 0
2, 61487, Note_on_c, 0, 47, 60
2, 61491, Note_on_c, 0, 79, 76
2, 61525, Note_on_c, 0, 79, 0
2, 61574, Note_on_c, 0, 47, 0
2, 61608, Note_on_c, 0, 48, 56
2, 61684, Note_on_c, 0, 48, 0
2, 61723, Note_on_c, 0, 69, 67
2, 61729, Note_on_c, 0, 50, 57
2, 61965, Note_on_c, 0, 50, 0
2, 61990, Note_on_c, 0, 69, 0
2, 61997, Note_on_c, 0, 79, 65
2, 62001, Note_on_c, 0, 38, 49
2, 62054, Note_on_c, 0, 79, 0
2, 62065, Note_on_c, 0, 78, 64
2, 62107, Note_on_c, 0, 78, 0
2, 62120, Note_on_c, 0, 76, 64
2, 62199, Note_on_c, 0, 78, 80
2, 62207, Note_on_c, 0, 76, 0
2, 62249, Note_on_c, 0, 78, 0
2, 62290, Note_on_c, 0, 38, 0
2, 62298, Note_on_c, 0, 67, 68
2, 62302, Note_on_c, 0, 40, 57
2, 62418, Note_on_c, 0, 40, 0
2, 62420, Note_on_c, 0, 69, 76
2, 62424, Note_on_c, 0, 67, 0
2, 62532, Note_on_c, 0, 70, 81
2, 62556, Note_on_c, 0, 69, 0
2, 62596, Note_on_c, 0, 55, 17
2, 62618, Note_on_c, 0, 70, 0
2, 62639, Note_on_c, 0, 67, 78
2, 62658, Note_on_c, 0, 55, 0
2, 62739, Note_on_c, 0, 67, 0
2, 62764, Note_on_c, 0, 73, 81
2, 62773, Note_on_c, 0, 58, 61
2, 62837, Note_on_c, 0, 73, 0
2, 62867, Note_on_c, 0, 67, 78
2, 62955, Note_on_c, 0, 58, 0
2, 62964, Note_on_c, 0, 67, 0
2, 62990, Note_on_c, 0, 74, 78
2, 63018, Note_on_c, 0, 50, 65
2, 63076, Note_on_c, 0, 74, 0
2, 63094, Note_on_c, 0, 67, 76
2, 63171, Note_on_c, 0, 67, 0
2, 63218, Note_on_c, 0, 76, 76
2, 63235, Note_on_c, 0, 49, 62
2, 63254, Note_on_c, 0, 50, 0
2, 63290, Note_on_c, 0, 76, 0
2, 63317, Note_on_c, 0, 67, 66
2, 63404, Note_on_c, 0, 67, 0
2, 63441, Note_on_c, 0, 66, 69
2, 63457, Note_on_c, 0, 45, 62
2, 63467, Note_on_c, 0, 49, 0
2, 63491, Note_on_c, 0, 45, 0
2, 63526, Note_on_c, 0, 66, 0
2, 63548, Note_on_c, 0, 64, 74
2, 63669, Note_on_c, 0, 66, 78
2, 63694, Note_on_c, 0, 64, 0
2, 63722, Note_on_c, 0, 50, 16
2, 63751, Note_on_c, 0, 52, 43
2, 63780, Note_on_c, 0, 69, 83
2, 63784, Note_on_c, 0, 66, 0
2, 63790, Note_on_c, 0, 52, 0
2, 63799, Note_on_c, 0, 50, 0
2, 63808, Note_on_c, 0, 54, 70
2, 63893, Note_on_c, 0, 69, 0
2, 63895, Note_on_c, 0, 74, 78
2, 63905, Note_on_c, 0, 54, 0
2, 63910, Note_on_c, 0, 57, 71
2, 63972, Note_on_c, 0, 57, 0
2, 63999, Note_on_c, 0, 60, 70
2, 64117, Note_on_c, 0, 60, 0
2, 64138, Note_on_c, 0, 59, 76
2, 64355, Note_on_c, 0, 59, 0
2, 64384, Note_on_c, 0, 72, 76
2, 64396, Note_on_c, 0, 55, 62
2, 64422, Note_on_c, 0, 55, 0
2, 64426, Note_on_c, 0, 74, 0
2, 64491, Note_on_c, 0, 72, 0
2, 64499, Note_on_c, 0, 71, 81
2, 64599, Note_on_c, 0, 71, 0
2, 64622, Note_on_c, 0, 72, 81
2, 64624, Note_on_c, 0, 62, 73
2, 64731, Note_on_c, 0, 71, 82
2, 64769, Note_on_c, 0, 72, 0
2, 64820, Note_on_c, 0, 62, 0
2, 64851, Note_on_c, 0, 69, 80
2, 64854, Note_on_c, 0, 50, 69
2, 64859, Note_on_c, 0, 71, 0
2, 64904, Note_on_c, 0, 50, 0
2, 64956, Note_on_c, 0, 69, 0
2, 64967, Note_on_c, 0, 71, 87
2, 65086, Note_on_c, 0, 71, 0
2, 65108, Note_on_c, 0, 67, 77
2, 65123, Note_on_c, 0, 55, 72
2, 65417, Note_on_c, 0, 66, 67
2, 65427, Note_on_c, 0, 43, 64
2, 65440, Note_on_c, 0, 67, 0
2, 65515, Note_on_c, 0, 55, 0
2, 65541, Note_on_c, 0, 64, 79
2, 65582, Note_on_c, 0, 43, 0
2, 65594, Note_on_c, 0, 66, 0
2, 65673, Note_on_c, 0, 62, 74
2, 65695, Note_on_c, 0, 47, 64
2, 65717, Note_on_c, 0, 64, 0
2, 65746, Note_on_c, 0, 47, 0
2, 65775, Note_on_c, 0, 62, 0
2, 65807, Note_on_c, 0, 60, 75
2, 65951, Note_on_c, 0, 50, 66
2, 65954, Note_on_c, 0, 59, 75
2, 65955, Note_on_c, 0, 60, 0
2, 65987, Note_on_c, 0, 50, 0
2, 66087, Note_on_c, 0, 57, 72
2, 66090, Note_on_c, 0, 59, 0
2, 66348, Note_on_c, 0, 55, 61
2, 66411, Note_on_c, 0, 54, 75
2, 66433, Note_on_c, 0, 55, 0
2, 66457, Note_on_c, 0, 57, 0
2, 66482, Note_on_c, 0, 55, 65
2, 66485, Note_on_c, 0, 54, 0
2, 67773, Note_on_c, 0, 55, 0
2, 68989, Note_on_c, 0, 74, 62
2, 69040, Note_on_c, 0, 74, 0
2, 69143, Note_on_c, 0, 71, 67
2, 69186, Note_on_c, 0, 71, 0
2, 69279, Note_on_c, 0, 74, 75
2, 69343, Note_on_c, 0, 74, 0
2, 69414, Note_on_c, 0, 79, 77
2, 69484, Note_on_c, 0, 79, 0
2, 69558, Note_on_c, 0, 74, 72
2, 69599, Note_on_c, 0, 74, 0
2, 69705, Note_on_c, 0, 71, 70
2, 69749, Note_on_c, 0, 71, 0
2, 69851, Note_on_c, 0, 74, 60
2, 69899, Note_on_c, 0, 74, 0
2, 70002, Note_on_c, 0, 67, 60
2, 70050, Note_on_c, 0, 67, 0
2, 70125, Note_on_c, 0, 74, 68
2, 70171, Note_on_c, 0, 74, 0
2, 70270, Note_on_c, 0, 71, 67
2, 70325, Note_on_c, 0, 71, 0
2, 70396, Note_on_c, 0, 74, 72
2, 70458, Note_on_c, 0, 74, 0
2, 70552, Note_on_c, 0, 76, 67
2, 70661, Note_on_c, 0, 76, 0
2, 70696, Note_on_c, 0, 72, 76
2, 70763, Note_on_c, 0, 72, 0
2, 70837, Note_on_c, 0, 69, 76
2, 70890, Note_on_c, 0, 69, 0
2, 70957, Note_on_c, 0, 72, 79
2, 71023, Note_on_c, 0, 72, 0
2, 71095, Note_on_c, 0, 66, 74
2, 71151, Note_on_c, 0, 66, 0
2, 71220, Note_on_c, 0, 69, 75
2, 71282, Note_on_c, 0, 69, 0
2, 71360, Note_on_c, 0, 74, 77
2, 71477, Note_on_c, 0, 74, 0
2, 71492, Note_on_c, 0, 71, 76
2, 71565, Note_on_c, 0, 71, 0
2, 71641, Note_on_c, 0, 67, 63
2, 71685, Note_on_c, 0, 67, 0
2, 71763, Note_on_c, 0, 71, 69
2, 71827, Note_on_c, 0, 71, 0
2, 71924, Note_on_c, 0, 64, 63
2, 71973, Note_on_c, 0, 64, 0
2, 72055, Note_on_c, 0, 67, 66
2, 72111, Note_on_c, 0, 67, 0
2, 72191, Note_on_c, 0, 72, 69
2, 72309, Note_on_c, 0, 72, 0
2, 72323, Note_on_c, 0, 69, 74
2, 72399, Note_on_c, 0, 69, 0
2, 72463, Note_on_c, 0, 66, 71
2, 72521, Note_on_c, 0, 66, 0
2, 72592, Note_on_c, 0, 69, 69
2, 72649, Note_on_c, 0, 69, 0
2, 72743, Note_on_c, 0, 62, 57
2, 72810, Note_on_c, 0, 62, 0
2, 72883, Note_on_c, 0, 66, 61
2, 73014, Note_on_c, 0, 66, 0
2, 73037, Note_on_c, 0, 71, 59
2, 73181, Note_on_c, 0, 69, 67
2, 73218, Note_on_c, 0, 71, 0
2, 73235, Note_on_c, 0, 69, 0
2, 73309, Note_on_c, 0, 67, 55
2, 73365, Note_on_c, 0, 67, 0
2, 73430, Note_on_c, 0, 69, 71
2, 73477, Note_on_c, 0, 69, 0
2, 73569, Note_on_c, 0, 71, 68
2, 73621, Note_on_c, 0, 71, 0
2, 73722, Note_on_c, 0, 72, 59
2, 73819, Note_on_c, 0, 72, 0
2, 73867, Note_on_c, 0, 74, 58
2, 73967, Note_on_c, 0, 74, 0
2, 73991, Note_on_c, 0, 69, 65
2, 74117, Note_on_c, 0, 69, 0
2, 74128, Note_on_c, 0, 71, 70
2, 74202, Note_on_c, 0, 71, 0
2, 74263, Note_on_c, 0, 73, 72
2, 74343, Note_on_c, 0, 73, 0
2, 74403, Note_on_c, 0, 74, 64
2, 74490, Note_on_c, 0, 74, 0
2, 74528, Note_on_c, 0, 76, 65
2, 74608, Note_on_c, 0, 76, 0
2, 74677, Note_on_c, 0, 78, 71
2, 74819, Note_on_c, 0, 76, 69
2, 74823, Note_on_c, 0, 67, 54
2, 74882, Note_on_c, 0, 78, 0
2, 74903, Note_on_c, 0, 76, 0
2, 74908, Note_on_c, 0, 67, 0
2, 74940, Note_on_c, 0, 66, 60
2, 74948, Note_on_c, 0, 74, 71
2, 75023, Note_on_c, 0, 74, 0
2, 75050, Note_on_c, 0, 66, 0
2, 75075, Note_on_c, 0, 76, 74
2, 75079, Note_on_c, 0, 69, 67
2, 75152, Note_on_c, 0, 76, 0
2, 75180, Note_on_c, 0, 69, 0
2, 75209, Note_on_c, 0, 78, 81
2, 75224, Note_on_c, 0, 74, 64
2, 75281, Note_on_c, 0, 78, 0
2, 75314, Note_on_c, 0, 74, 0
2, 75332, Note_on_c, 0, 79, 82
2, 75342, Note_on_c, 0, 69, 68
2, 75400, Note_on_c, 0, 69, 0
2, 75425, Note_on_c, 0, 79, 0
2, 75479, Note_on_c, 0, 81, 83
2, 75486, Note_on_c, 0, 66, 60
2, 75539, Note_on_c, 0, 66, 0
2, 75629, Note_on_c, 0, 69, 74
2, 75663, Note_on_c, 0, 81, 0
2, 75673, Note_on_c, 0, 69, 0
2, 75760, Note_on_c, 0, 62, 55
2, 75811, Note_on_c, 0, 62, 0
2, 75881, Note_on_c, 0, 69, 67
2, 75924, Note_on_c, 0, 69, 0
2, 76021, Note_on_c, 0, 66, 44
2, 76028, Note_on_c, 0, 81, 72
2, 76065, Note_on_c, 0, 66, 0
2, 76083, Note_on_c, 0, 81, 0
2, 76150, Note_on_c, 0, 69, 39
2, 76188, Note_on_c, 0, 69, 0
2, 76282, Note_on_c, 0, 74, 63
2, 76292, Note_on_c, 0, 71, 63
2, 76325, Note_on_c, 0, 74, 0
2, 76328, Note_on_c, 0, 71, 0
2, 76532, Note_on_c, 0, 79, 66
2, 76570, Note_on_c, 0, 64, 70
2, 76595, Note_on_c, 0, 79, 0
2, 76606, Note_on_c, 0, 64, 0
2, 76624, Note_on_c, 0, 78, 74
2, 76668, Note_on_c, 0, 67, 58
2, 76687, Note_on_c, 0, 79, 55
2, 76702, Note_on_c, 0, 67, 0
2, 76727, Note_on_c, 0, 78, 0
2, 76816, Note_on_c, 0, 61, 48
2, 76903, Note_on_c, 0, 61, 0
2, 76920, Note_on_c, 0, 63, 66
2, 76988, Note_on_c, 0, 63, 0
2, 77072, Note_on_c, 0, 69, 73
2, 77158, Note_on_c, 0, 69, 0
2, 77201, Note_on_c, 0, 66, 71
2, 77266, Note_on_c, 0, 66, 0
2, 77320, Note_on_c, 0, 78, 77
2, 77331, Note_on_c, 0, 62, 54
2, 77341, Note_on_c, 0, 79, 0
2, 77386, Note_on_c, 0, 62, 0
2, 77386, Note_on_c, 0, 78, 0
2, 77431, Note_on_c, 0, 66, 64
2, 77519, Note_on_c, 0, 66, 0
2, 77574, Note_on_c, 0, 74, 78
2, 77594, Note_on_c, 0, 59, 59
2, 77612, Note_on_c, 0, 74, 0
2, 77680, Note_on_c, 0, 59, 0
2, 77695, Note_on_c, 0, 62, 65
2, 77802, Note_on_c, 0, 62, 0
2, 77838, Note_on_c, 0, 71, 74
2, 77843, Note_on_c, 0, 67, 63
2, 77893, Note_on_c, 0, 71, 0
2, 77897, Note_on_c, 0, 67, 0
2, 77954, Note_on_c, 0, 64, 66
2, 78005, Note_on_c, 0, 64, 0
2, 78106, Note_on_c, 0, 76, 74
2, 78117, Note_on_c, 0, 61, 55
2, 78167, Note_on_c, 0, 76, 0
2, 78170, Note_on_c, 0, 74, 66
2, 78191, Note_on_c, 0, 61, 0
2, 78224, Note_on_c, 0, 76, 65
2, 78238, Note_on_c, 0, 64, 58
2, 78253, Note_on_c, 0, 74, 0
2, 78296, Note_on_c, 0, 64, 0
2, 78372, Note_on_c, 0, 57, 54
2, 78492, Note_on_c, 0, 57, 0
2, 78493, Note_on_c, 0, 61, 57
2, 78607, Note_on_c, 0, 61, 0
2, 78646, Note_on_c, 0, 66, 67
2, 78764, Note_on_c, 0, 66, 0
2, 78774, Note_on_c, 0, 79, 80
2, 78799, Note_on_c, 0, 64, 69
2, 78821, Note_on_c, 0, 76, 0
2, 78872, Note_on_c, 0, 64, 0
2, 78914, Note_on_c, 0, 78, 74
2, 78933, Note_on_c, 0, 62, 69
2, 78952, Note_on_c, 0, 79, 0
2, 79017, Note_on_c, 0, 62, 0
2, 79031, Note_on_c, 0, 64, 74
2, 79032, Note_on_c, 0, 76, 74
2, 79076, Note_on_c, 0, 64, 0
2, 79092, Note_on_c, 0, 78, 0
2, 79157, Note_on_c, 0, 66, 78
2, 79171, Note_on_c, 0, 76, 0
2, 79173, Note_on_c, 0, 74, 73
2, 79197, Note_on_c, 0, 66, 0
2, 79286, Note_on_c, 0, 74, 0
2, 79293, Note_on_c, 0, 67, 73
2, 79301, Note_on_c, 0, 76, 86
2, 79345, Note_on_c, 0, 67, 0
2, 79451, Note_on_c, 0, 69, 49
2, 79451, Note_on_c, 0, 78, 77
2, 79476, Note_on_c, 0, 76, 0
2, 79554, Note_on_c, 0, 69, 0
2, 79588, Note_on_c, 0, 81, 75
2, 79590, Note_on_c, 0, 78, 0
2, 79599, Note_on_c, 0, 62, 59
2, 79661, Note_on_c, 0, 62, 0
2, 79731, Note_on_c, 0, 79, 68
2, 79731, Note_on_c, 0, 81, 0
2, 79734, Note_on_c, 0, 64, 67
2, 79776, Note_on_c, 0, 64, 0
2, 79850, Note_on_c, 0, 79, 0
2, 79870, Note_on_c, 0, 66, 63
2, 79876, Note_on_c, 0, 78, 70
2, 79911, Note_on_c, 0, 66, 0
2, 79965, Note_on_c, 0, 78, 0
2, 80004, Note_on_c, 0, 76, 65
2, 80017, Note_on_c, 0, 67, 50
2, 80063, Note_on_c, 0, 67, 0
2, 80138, Note_on_c, 0, 78, 67
2, 80142, Note_on_c, 0, 69, 58
2, 80170, Note_on_c, 0, 69, 0
2, 80180, Note_on_c, 0, 76, 0
2, 80285, Note_on_c, 0, 79, 71
2, 80297, Note_on_c, 0, 71, 65
2, 80297, Note_on_c, 0, 78, 0
2, 80328, Note_on_c, 0, 79, 0
2, 80413, Note_on_c, 0, 71, 0
2, 80414, Note_on_c, 0, 62, 64
2, 80433, Note_on_c, 0, 69, 75
2, 80537, Note_on_c, 0, 62, 0
2, 80559, Note_on_c, 0, 59, 69
2, 80559, Note_on_c, 0, 67, 69
2, 80563, Note_on_c, 0, 69, 0
2, 80588, Note_on_c, 0, 69, 42
2, 80616, Note_on_c, 0, 69, 0
2, 80627, Note_on_c, 0, 67, 0
2, 80649, Note_on_c, 0, 59, 0
2, 80683, Note_on_c, 0, 62, 73
2, 80693, Note_on_c, 0, 69, 80
2, 80748, Note_on_c, 0, 69, 0
2, 80753, Note_on_c, 0, 62, 0
2, 80831, Note_on_c, 0, 67, 67
2, 80837, Note_on_c, 0, 71, 78
2, 80871, Note_on_c, 0, 67, 0
2, 80886, Note_on_c, 0, 71, 0
2, 80944, Note_on_c, 0, 72, 80
2, 80949, Note_on_c, 0, 62, 61
2, 80988, Note_on_c, 0, 62, 0
2, 80988, Note_on_c, 0, 72, 0
2, 81094, Note_on_c, 0, 74, 71
2, 81118, Note_on_c, 0, 59, 42
2, 81154, Note_on_c, 0, 59, 0
2, 81227, Note_on_c, 0, 62, 67
2, 81272, Note_on_c, 0, 62, 0
2, 81360, Note_on_c, 0, 74, 0
2, 81376, Note_on_c, 0, 83, 82
2, 81391, Note_on_c, 0, 55, 47
2, 81429, Note_on_c, 0, 55, 0
2, 81496, Note_on_c, 0, 62, 61
2, 81538, Note_on_c, 0, 62, 0
2, 81639, Note_on_c, 0, 74, 71
2, 81646, Note_on_c, 0, 59, 56
2, 81677, Note_on_c, 0, 74, 0
2, 81694, Note_on_c, 0, 59, 0
2, 81744, Note_on_c, 0, 62, 58
2, 81782, Note_on_c, 0, 62, 0
2, 81924, Note_on_c, 0, 72, 62
2, 81931, Note_on_c, 0, 64, 66
2, 81976, Note_on_c, 0, 83, 0
2, 81999, Note_on_c, 0, 64, 0
2, 82054, Note_on_c, 0, 76, 77
2, 82074, Note_on_c, 0, 60, 57
2, 82082, Note_on_c, 0, 72, 0
2, 82144, Note_on_c, 0, 60, 0
2, 82180, Note_on_c, 0, 76, 0
2, 82191, Note_on_c, 0, 78, 81
2, 82200, Note_on_c, 0, 57, 58
2, 82252, Note_on_c, 0, 57, 0
2, 82293, Note_on_c, 0, 78, 0
2, 82309, Note_on_c, 0, 81, 79
2, 82313, Note_on_c, 0, 60, 64
2, 82370, Note_on_c, 0, 60, 0
2, 82455, Note_on_c, 0, 72, 76
2, 82465, Note_on_c, 0, 54, 53
2, 82498, Note_on_c, 0, 72, 0
2, 82546, Note_on_c, 0, 54, 0
2, 82593, Note_on_c, 0, 57, 58
2, 82698, Note_on_c, 0, 57, 0
2, 82744, Note_on_c, 0, 71, 76
2, 82748, Note_on_c, 0, 62, 58
2, 82770, Note_on_c, 0, 81, 0
2, 82823, Note_on_c, 0, 62, 0
2, 82873, Note_on_c, 0, 59, 65
2, 82876, Note_on_c, 0, 74, 78
2, 82910, Note_on_c, 0, 71, 0
2, 82929, Note_on_c, 0, 59, 0
2, 82992, Note_on_c, 0, 74, 0
2, 82998, Note_on_c, 0, 76, 82
2, 83003, Note_on_c, 0, 55, 64
2, 83055, Note_on_c, 0, 55, 0
2, 83077, Note_on_c, 0, 76, 0
2, 83124, Note_on_c, 0, 79, 77
2, 83133, Note_on_c, 0, 59, 58
2, 83177, Note_on_c, 0, 59, 0
2, 83262, Note_on_c, 0, 71, 72
2, 83278, Note_on_c, 0, 52, 45
2, 83302, Note_on_c, 0, 71, 0
2, 83367, Note_on_c, 0, 52, 0
2, 83394, Note_on_c, 0, 55, 57
2, 83505, Note_on_c, 0, 55, 0
2, 83549, Note_on_c, 0, 69, 67
2, 83552, Note_on_c, 0, 60, 57
2, 83620, Note_on_c, 0, 60, 0
2, 83667, Note_on_c, 0, 57, 58
2, 83678, Note_on_c, 0, 72, 75
2, 83696, Note_on_c, 0, 79, 0
2, 83717, Note_on_c, 0, 69, 0
2, 83760, Note_on_c, 0, 57, 0
2, 83788, Note_on_c, 0, 72, 0
2, 83808, Note_on_c, 0, 54, 53
2, 83813, Note_on_c, 0, 74, 70
2, 83876, Note_on_c, 0, 54, 0
2, 83919, Note_on_c, 0, 74, 0
2, 83938, Note_on_c, 0, 78, 65
2, 83940, Note_on_c, 0, 57, 47
2, 83999, Note_on_c, 0, 57, 0
2, 84080, Note_on_c, 0, 50, 49
2, 84085, Note_on_c, 0, 69, 66
2, 84132, Note_on_c, 0, 69, 0
2, 84214, Note_on_c, 0, 50, 0
2, 84221, Note_on_c, 0, 54, 51
2, 84337, Note_on_c, 0, 54, 0
2, 84362, Note_on_c, 0, 67, 45
2, 84374, Note_on_c, 0, 59, 61
2, 84471, Note_on_c, 0, 59, 0
2, 84497, Note_on_c, 0, 57, 61
2, 84621, Note_on_c, 0, 57, 0
2, 84642, Note_on_c, 0, 76, 75
2, 84646, Note_on_c, 0, 55, 61
2, 84657, Note_on_c, 0, 67, 0
2, 84679, Note_on_c, 0, 78, 0
2, 84766, Note_on_c, 0, 57, 73
2, 84767, Note_on_c, 0, 55, 0
2, 84873, Note_on_c, 0, 57, 0
2, 84889, Note_on_c, 0, 67, 72
2, 84898, Note_on_c, 0, 59, 75
2, 84977, Note_on_c, 0, 67, 0
2, 85017, Note_on_c, 0, 59, 0
2, 85024, Note_on_c, 0, 61, 74
2, 85151, Note_on_c, 0, 61, 0
2, 85176, Note_on_c, 0, 62, 62
2, 85181, Note_on_c, 0, 66, 70
2, 85272, Note_on_c, 0, 62, 0
2, 85307, Note_on_c, 0, 61, 64
2, 85421, Note_on_c, 0, 61, 0
2, 85426, Note_on_c, 0, 66, 0
2, 85449, Note_on_c, 0, 74, 67
2, 85464, Note_on_c, 0, 59, 64
2, 85478, Note_on_c, 0, 76, 0
2, 85581, Note_on_c, 0, 59, 0
2, 85589, Note_on_c, 0, 57, 62
2, 85704, Note_on_c, 0, 57, 0
2, 85731, Note_on_c, 0, 55, 62
2, 85733, Note_on_c, 0, 66, 61
2, 85795, Note_on_c, 0, 66, 0
2, 85809, Note_on_c, 0, 55, 0
2, 85856, Note_on_c, 0, 54, 58
2, 85975, Note_on_c, 0, 54, 0
2, 85987, Note_on_c, 0, 74, 0
2, 86018, Note_on_c, 0, 55, 53
2, 86022, Note_on_c, 0, 64, 66
2, 86091, Note_on_c, 0, 55, 0
2, 86153, Note_on_c, 0, 52, 59
2, 86263, Note_on_c, 0, 64, 0
2, 86286, Note_on_c, 0, 52, 0
2, 86305, Note_on_c, 0, 73, 55
2, 86323, Note_on_c, 0, 57, 54
2, 86372, Note_on_c, 0, 57, 0
2, 86429, Note_on_c, 0, 73, 0
2, 86433, Note_on_c, 0, 71, 67
2, 86442, Note_on_c, 0, 55, 59
2, 86533, Note_on_c, 0, 55, 0
2, 86564, Note_on_c, 0, 54, 63
2, 86570, Note_on_c, 0, 71, 0
2, 86582, Note_on_c, 0, 73, 59
2, 86593, Note_on_c, 0, 67, 57
2, 86642, Note_on_c, 0, 67, 0
2, 86684, Note_on_c, 0, 54, 0
2, 86704, Note_on_c, 0, 52, 58
2, 86823, Note_on_c, 0, 52, 0
2, 86868, Note_on_c, 0, 50, 45
2, 86868, Note_on_c, 0, 73, 0
2, 86872, Note_on_c, 0, 74, 59
2, 86896, Note_on_c, 0, 66, 56
2, 87002, Note_on_c, 0, 50, 0
2, 87026, Note_on_c, 0, 57, 64
2, 87116, Note_on_c, 0, 57, 0
2, 87126, Note_on_c, 0, 66, 0
2, 87133, Note_on_c, 0, 54, 70
2, 87156, Note_on_c, 0, 74, 0
2, 87190, Note_on_c, 0, 54, 0
2, 87261, Note_on_c, 0, 57, 70
2, 87335, Note_on_c, 0, 57, 0
2, 87413, Note_on_c, 0, 62, 58
2, 87471, Note_on_c, 0, 62, 0
2, 87547, Note_on_c, 0, 57, 44
2, 87584, Note_on_c, 0, 57, 0
2, 87677, Note_on_c, 0, 54, 50
2, 87728, Note_on_c, 0, 54, 0
2, 87791, Note_on_c, 0, 57, 46
2, 87852, Note_on_c, 0, 57, 0
2, 87932, Note_on_c, 0, 81, 76
2, 87939, Note_on_c, 0, 50, 50
2, 87945, Note_on_c, 0, 72, 59
2, 87963, Note_on_c, 0, 81, 0
2, 87969, Note_on_c, 0, 72, 0
2, 88040, Note_on_c, 0, 50, 0
2, 88071, Note_on_c, 0, 57, 57
2, 88138, Note_on_c, 0, 57, 0
2, 88218, Note_on_c, 0, 72, 72
2, 88223, Note_on_c, 0, 54, 55
2, 88229, Note_on_c, 0, 69, 64
2, 88319, Note_on_c, 0, 54, 0
2, 88356, Note_on_c, 0, 57, 63
2, 88471, Note_on_c, 0, 57, 0
2, 88511, Note_on_c, 0, 59, 78
2, 88526, Note_on_c, 0, 72, 0
2, 88552, Note_on_c, 0, 69, 0
2, 88645, Note_on_c, 0, 74, 83
2, 88787, Note_on_c, 0, 71, 82
2, 88787, Note_on_c, 0, 74, 0
2, 88799, Note_on_c, 0, 67, 74
2, 88898, Note_on_c, 0, 59, 0
2, 88915, Note_on_c, 0, 74, 85
2, 88926, Note_on_c, 0, 71, 0
2, 89052, Note_on_c, 0, 67, 0
2, 89053, Note_on_c, 0, 79, 92
2, 89070, Note_on_c, 0, 67, 40
2, 89077, Note_on_c, 0, 74, 0
2, 89113, Note_on_c, 0, 67, 0
2, 89170, Note_on_c, 0, 79, 0
2, 89193, Note_on_c, 0, 74, 78
2, 89266, Note_on_c, 0, 74, 0
2, 89330, Note_on_c, 0, 71, 77
2, 89398, Note_on_c, 0, 71, 0
2, 89450, Note_on_c, 0, 74, 73
2, 89526, Note_on_c, 0, 74, 0
2, 89595, Note_on_c, 0, 67, 67
2, 89599, Note_on_c, 0, 62, 62
2, 89609, Note_on_c, 0, 59, 55
2, 89642, Note_on_c, 0, 62, 0
2, 89653, Note_on_c, 0, 59, 0
2, 89657, Note_on_c, 0, 67, 0
2, 89708, Note_on_c, 0, 74, 71
2, 89822, Note_on_c, 0, 74, 0
2, 89867, Note_on_c, 0, 57, 60
2, 89867, Note_on_c, 0, 65, 51
2, 89883, Note_on_c, 0, 71, 51
2, 89958, Note_on_c, 0, 65, 0
2, 90002, Note_on_c, 0, 74, 67
2, 90024, Note_on_c, 0, 71, 0
2, 90123, Note_on_c, 0, 57, 0
2, 90152, Note_on_c, 0, 56, 78
2, 90273, Note_on_c, 0, 59, 85
2, 90281, Note_on_c, 0, 56, 0
2, 90399, Note_on_c, 0, 59, 0
2, 90415, Note_on_c, 0, 56, 79
2, 90419, Note_on_c, 0, 64, 81
2, 90522, Note_on_c, 0, 64, 0
2, 90533, Note_on_c, 0, 56, 0
2, 90538, Note_on_c, 0, 59, 81
2, 90561, Note_on_c, 0, 74, 0
2, 90646, Note_on_c, 0, 59, 0
2, 90677, Note_on_c, 0, 64, 71
2, 90778, Note_on_c, 0, 64, 0
2, 90804, Note_on_c, 0, 59, 64
2, 90864, Note_on_c, 0, 59, 0
2, 90951, Note_on_c, 0, 56, 54
2, 91002, Note_on_c, 0, 56, 0
2, 91075, Note_on_c, 0, 59, 58
2, 91125, Note_on_c, 0, 59, 0
2, 91191, Note_on_c, 0, 83, 76
2, 91210, Note_on_c, 0, 52, 46
2, 91211, Note_on_c, 0, 74, 40
2, 91223, Note_on_c, 0, 83, 0
2, 91248, Note_on_c, 0, 74, 0
2, 91302, Note_on_c, 0, 52, 0
2, 91335, Note_on_c, 0, 59, 52
2, 91406, Note_on_c, 0, 59, 0
2, 91482, Note_on_c, 0, 56, 56
2, 91487, Note_on_c, 0, 71, 68
2, 91494, Note_on_c, 0, 74, 68
2, 91561, Note_on_c, 0, 56, 0
2, 91613, Note_on_c, 0, 59, 71
2, 91756, Note_on_c, 0, 59, 0
2, 91758, Note_on_c, 0, 60, 69
2, 91836, Note_on_c, 0, 74, 0
2, 91890, Note_on_c, 0, 76, 83
2, 91902, Note_on_c, 0, 71, 0
2, 92030, Note_on_c, 0, 76, 0
2, 92047, Note_on_c, 0, 72, 74
2, 92049, Note_on_c, 0, 69, 74
2, 92068, Note_on_c, 0, 74, 52
2, 92106, Note_on_c, 0, 74, 0
2, 92165, Note_on_c, 0, 76, 78
2, 92167, Note_on_c, 0, 72, 0
2, 92216, Note_on_c, 0, 60, 0
2, 92239, Note_on_c, 0, 69, 0
2, 92289, Note_on_c, 0, 81, 80
2, 92305, Note_on_c, 0, 76, 0
2, 92419, Note_on_c, 0, 81, 0
2, 92441, Note_on_c, 0, 76, 61
2, 92515, Note_on_c, 0, 76, 0
2, 92582, Note_on_c, 0, 72, 63
2, 92648, Note_on_c, 0, 72, 0
2, 92706, Note_on_c, 0, 76, 67
2, 92792, Note_on_c, 0, 76, 0
2, 92832, Note_on_c, 0, 69, 76
2, 92851, Note_on_c, 0, 54, 53
2, 92862, Note_on_c, 0, 60, 46
2, 92924, Note_on_c, 0, 69, 0
2, 92966, Note_on_c, 0, 76, 77
2, 93047, Note_on_c, 0, 76, 0
2, 93095, Note_on_c, 0, 72, 75
2, 93096, Note_on_c, 0, 54, 0
2, 93113, Note_on_c, 0, 69, 54
2, 93117, Note_on_c, 0, 52, 61
2, 93129, Note_on_c, 0, 60, 0
2, 93170, Note_on_c, 0, 69, 0
2, 93228, Note_on_c, 0, 76, 72
2, 93247, Note_on_c, 0, 72, 0
2, 93362, Note_on_c, 0, 52, 0
2, 93388, Note_on_c, 0, 76, 0
2, 93393, Note_on_c, 0, 51, 49
2, 93394, Note_on_c, 0, 78, 64
2, 93472, Note_on_c, 0, 51, 0
2, 93520, Note_on_c, 0, 54, 62
2, 93625, Note_on_c, 0, 54, 0
2, 93640, Note_on_c, 0, 78, 0
2, 93649, Note_on_c, 0, 71, 61
2, 93676, Note_on_c, 0, 51, 51
2, 93746, Note_on_c, 0, 51, 0
2, 93798, Note_on_c, 0, 54, 54
2, 93827, Note_on_c, 0, 71, 0
2, 93903, Note_on_c, 0, 54, 0
2, 93944, Note_on_c, 0, 59, 58
2, 94010, Note_on_c, 0, 59, 0
2, 94074, Note_on_c, 0, 54, 50
2, 94152, Note_on_c, 0, 54, 0
2, 94193, Note_on_c, 0, 51, 49
2, 94263, Note_on_c, 0, 51, 0
2, 94312, Note_on_c, 0, 54, 60
2, 94433, Note_on_c, 0, 54, 0
2, 94466, Note_on_c, 0, 81, 82
2, 94473, Note_on_c, 0, 47, 45
2, 94483, Note_on_c, 0, 75, 68
2, 94553, Note_on_c, 0, 75, 0
2, 94600, Note_on_c, 0, 47, 0
2, 94604, Note_on_c, 0, 54, 58
2, 94709, Note_on_c, 0, 54, 0
2, 94737, Note_on_c, 0, 51, 56
2, 94755, Note_on_c, 0, 78, 69
2, 94842, Note_on_c, 0, 51, 0
2, 94856, Note_on_c, 0, 54, 61
2, 94908, Note_on_c, 0, 54, 0
2, 94975, Note_on_c, 0, 81, 0
2, 95018, Note_on_c, 0, 55, 61
2, 95019, Note_on_c, 0, 71, 65
2, 95083, Note_on_c, 0, 78, 0
2, 95128, Note_on_c, 0, 55, 0
2, 95150, Note_on_c, 0, 59, 68
2, 95248, Note_on_c, 0, 59, 0
2, 95287, Note_on_c, 0, 71, 0
2, 95293, Note_on_c, 0, 55, 63
2, 95308, Note_on_c, 0, 76, 69
2, 95312, Note_on_c, 0, 83, 77
2, 95352, Note_on_c, 0, 76, 0
2, 95431, Note_on_c, 0, 59, 65
2, 95440, Note_on_c, 0, 81, 84
2, 95495, Note_on_c, 0, 55, 0
2, 95499, Note_on_c, 0, 83, 0
2, 95544, Note_on_c, 0, 59, 0
2, 95567, Note_on_c, 0, 79, 82
2, 95576, Note_on_c, 0, 64, 54
2, 95601, Note_on_c, 0, 81, 0
2, 95663, Note_on_c, 0, 64, 0
2, 95669, Note_on_c, 0, 79, 0
2, 95694, Note_on_c, 0, 78, 77
2, 95710, Note_on_c, 0, 75, 64
2, 95713, Note_on_c, 0, 59, 51
2, 95758, Note_on_c, 0, 75, 0
2, 95790, Note_on_c, 0, 78, 0
2, 95823, Note_on_c, 0, 59, 0
2, 95848, Note_on_c, 0, 76, 75
2, 95856, Note_on_c, 0, 55, 50
2, 95925, Note_on_c, 0, 55, 0
2, 95966, Note_on_c, 0, 78, 78
2, 95978, Note_on_c, 0, 59, 64
2, 95986, Note_on_c, 0, 76, 0
2, 96048, Note_on_c, 0, 59, 0
2, 96109, Note_on_c, 0, 79, 72
2, 96121, Note_on_c, 0, 78, 0
2, 96152, Note_on_c, 0, 52, 23
2, 96225, Note_on_c, 0, 52, 0
2, 96257, Note_on_c, 0, 59, 53
2, 96310, Note_on_c, 0, 59, 0
2, 96375, Note_on_c, 0, 55, 59
2, 96386, Note_on_c, 0, 71, 71
2, 96430, Note_on_c, 0, 71, 0
2, 96441, Note_on_c, 0, 55, 0
2, 96496, Note_on_c, 0, 59, 60
2, 96549, Note_on_c, 0, 59, 0
2, 96671, Note_on_c, 0, 69, 69
2, 96672, Note_on_c, 0, 79, 0
2, 96691, Note_on_c, 0, 60, 59
2, 96768, Note_on_c, 0, 60, 0
2, 96809, Note_on_c, 0, 57, 61
2, 96812, Note_on_c, 0, 72, 75
2, 96870, Note_on_c, 0, 69, 0
2, 96917, Note_on_c, 0, 57, 0
2, 96932, Note_on_c, 0, 72, 0
2, 96936, Note_on_c, 0, 54, 60
2, 96939, Note_on_c, 0, 74, 74
2, 97036, Note_on_c, 0, 54, 0
2, 97067, Note_on_c, 0, 74, 0
2, 97068, Note_on_c, 0, 78, 75
2, 97074, Note_on_c, 0, 57, 56
2, 97135, Note_on_c, 0, 57, 0
2, 97198, Note_on_c, 0, 69, 77
2, 97203, Note_on_c, 0, 50, 63
2, 97241, Note_on_c, 0, 69, 0
2, 97322, Note_on_c, 0, 54, 64
2, 97457, Note_on_c, 0, 54, 0
2, 97481, Note_on_c, 0, 67, 70
2, 97482, Note_on_c, 0, 78, 0
2, 97488, Note_on_c, 0, 59, 66
2, 97506, Note_on_c, 0, 50, 0
2, 97593, Note_on_c, 0, 59, 0
2, 97605, Note_on_c, 0, 55, 67
2, 97611, Note_on_c, 0, 67, 0
2, 97613, Note_on_c, 0, 71, 81
2, 97697, Note_on_c, 0, 55, 0
2, 97699, Note_on_c, 0, 71, 0
2, 97723, Note_on_c, 0, 52, 65
2, 97727, Note_on_c, 0, 72, 82
2, 97795, Note_on_c, 0, 52, 0
2, 97816, Note_on_c, 0, 72, 0
2, 97851, Note_on_c, 0, 55, 65
2, 97853, Note_on_c, 0, 76, 73
2, 97911, Note_on_c, 0, 55, 0
2, 97985, Note_on_c, 0, 67, 69
2, 97998, Note_on_c, 0, 48, 53
2, 98051, Note_on_c, 0, 67, 0
2, 98112, Note_on_c, 0, 52, 58
2, 98120, Note_on_c, 0, 48, 0
2, 98228, Note_on_c, 0, 52, 0
2, 98281, Note_on_c, 0, 57, 57
2, 98287, Note_on_c, 0, 66, 69
2, 98338, Note_on_c, 0, 76, 0
2, 98372, Note_on_c, 0, 57, 0
2, 98408, Note_on_c, 0, 66, 0
2, 98412, Note_on_c, 0, 54, 60
2, 98423, Note_on_c, 0, 69, 67
2, 98538, Note_on_c, 0, 54, 0
2, 98541, Note_on_c, 0, 71, 68
2, 98553, Note_on_c, 0, 69, 0
2, 98566, Note_on_c, 0, 51, 44
2, 98658, Note_on_c, 0, 75, 66
2, 98670, Note_on_c, 0, 51, 0
2, 98679, Note_on_c, 0, 71, 0
2, 98704, Note_on_c, 0, 54, 55
2, 98779, Note_on_c, 0, 54, 0
2, 98804, Note_on_c, 0, 69, 65
2, 98835, Note_on_c, 0, 47, 51
2, 98867, Note_on_c, 0, 75, 0
2, 98948, Note_on_c, 0, 47, 0
2, 98955, Note_on_c, 0, 51, 48
2, 99045, Note_on_c, 0, 51, 0
2, 99093, Note_on_c, 0, 55, 50
2, 99140, Note_on_c, 0, 55, 0
2, 99210, Note_on_c, 0, 54, 52
2, 99315, Note_on_c, 0, 69, 0
2, 99330, Note_on_c, 0, 54, 0
2, 99348, Note_on_c, 0, 52, 60
2, 99352, Note_on_c, 0, 67, 56
2, 99352, Note_on_c, 0, 76, 63
2, 99407, Note_on_c, 0, 67, 0
2, 99445, Note_on_c, 0, 52, 0
2, 99458, Note_on_c, 0, 76, 0
2, 99480, Note_on_c, 0, 54, 62
2, 99480, Note_on_c, 0, 75, 70
2, 99564, Note_on_c, 0, 54, 0
2, 99599, Note_on_c, 0, 55, 49
2, 99601, Note_on_c, 0, 75, 0
2, 99620, Note_on_c, 0, 76, 64
2, 99689, Note_on_c, 0, 55, 0
2, 99743, Note_on_c, 0, 57, 49
2, 99753, Note_on_c, 0, 67, 45
2, 99785, Note_on_c, 0, 67, 0
2, 99813, Note_on_c, 0, 57, 0
2, 99870, Note_on_c, 0, 66, 62
2, 99875, Note_on_c, 0, 59, 51
2, 99955, Note_on_c, 0, 59, 0
2, 100015, Note_on_c, 0, 54, 48
2, 100107, Note_on_c, 0, 66, 0
2, 100120, Note_on_c, 0, 76, 0
2, 100144, Note_on_c, 0, 54, 0
2, 100158, Note_on_c, 0, 74, 63
2, 100165, Note_on_c, 0, 56, 57
2, 100273, Note_on_c, 0, 74, 0
2, 100277, Note_on_c, 0, 73, 76
2, 100291, Note_on_c, 0, 56, 0
2, 100294, Note_on_c, 0, 58, 60
2, 100387, Note_on_c, 0, 58, 0
2, 100394, Note_on_c, 0, 73, 0
2, 100407, Note_on_c, 0, 74, 74
2, 100428, Note_on_c, 0, 59, 65
2, 100485, Note_on_c, 0, 59, 0
2, 100526, Note_on_c, 0, 74, 0
2, 100528, Note_on_c, 0, 76, 80
2, 100537, Note_on_c, 0, 61, 66
2, 100643, Note_on_c, 0, 61, 0
2, 100671, Note_on_c, 0, 78, 79
2, 100680, Note_on_c, 0, 62, 59
2, 100683, Note_on_c, 0, 76, 0
2, 100727, Note_on_c, 0, 62, 0
2, 100788, Note_on_c, 0, 61, 68
2, 100799, Note_on_c, 0, 76, 85
2, 100840, Note_on_c, 0, 78, 0
2, 100875, Note_on_c, 0, 61, 0
2, 100902, Note_on_c, 0, 76, 0
2, 100923, Note_on_c, 0, 74, 81
2, 100930, Note_on_c, 0, 59, 69
2, 101021, Note_on_c, 0, 59, 0
2, 101043, Note_on_c, 0, 74, 0
2, 101053, Note_on_c, 0, 78, 87
2, 101068, Note_on_c, 0, 61, 61
2, 101129, Note_on_c, 0, 61, 0
2, 101131, Note_on_c, 0, 78, 0
2, 101181, Note_on_c, 0, 83, 78
2, 101191, Note_on_c, 0, 62, 58
2, 101244, Note_on_c, 0, 83, 0
2, 101257, Note_on_c, 0, 62, 0
2, 101312, Note_on_c, 0, 78, 81
2, 101327, Note_on_c, 0, 64, 65
2, 101375, Note_on_c, 0, 64, 0
2, 101390, Note_on_c, 0, 78, 0
2, 101453, Note_on_c, 0, 74, 72
2, 101476, Note_on_c, 0, 66, 45
2, 101514, Note_on_c, 0, 74, 0
2, 101540, Note_on_c, 0, 66, 0
2, 101576, Note_on_c, 0, 64, 60
2, 101581, Note_on_c, 0, 78, 77
2, 101652, Note_on_c, 0, 78, 0
2, 101717, Note_on_c, 0, 71, 76
2, 101735, Note_on_c, 0, 62, 72
2, 101735, Note_on_c, 0, 64, 0
2, 101813, Note_on_c, 0, 71, 0
2, 101854, Note_on_c, 0, 78, 80
2, 101931, Note_on_c, 0, 78, 0
2, 101991, Note_on_c, 0, 74, 76
2, 102015, Note_on_c, 0, 66, 63
2, 102057, Note_on_c, 0, 66, 0
2, 102064, Note_on_c, 0, 74, 0
2, 102115, Note_on_c, 0, 78, 83
2, 102185, Note_on_c, 0, 78, 0
2, 102243, Note_on_c, 0, 62, 0
2, 102283, Note_on_c, 0, 64, 75
2, 102294, Note_on_c, 0, 79, 71
2, 102412, Note_on_c, 0, 55, 74
2, 102425, Note_on_c, 0, 76, 76
2, 102452, Note_on_c, 0, 79, 0
2, 102513, Note_on_c, 0, 76, 0
2, 102528, Note_on_c, 0, 55, 0
2, 102541, Note_on_c, 0, 64, 0
2, 102542, Note_on_c, 0, 57, 65
2, 102558, Note_on_c, 0, 73, 78
2, 102639, Note_on_c, 0, 73, 0
2, 102665, Note_on_c, 0, 76, 78
2, 102670, Note_on_c, 0, 57, 0
2, 102673, Note_on_c, 0, 61, 76
2, 102753, Note_on_c, 0, 76, 0
2, 102798, Note_on_c, 0, 64, 71
2, 102803, Note_on_c, 0, 69, 79
2, 102839, Note_on_c, 0, 64, 0
2, 102905, Note_on_c, 0, 69, 0
2, 102924, Note_on_c, 0, 73, 77
2, 103008, Note_on_c, 0, 73, 0
2, 103074, Note_on_c, 0, 78, 74
2, 103086, Note_on_c, 0, 62, 67
2, 103129, Note_on_c, 0, 78, 0
2, 103141, Note_on_c, 0, 61, 0
2, 103195, Note_on_c, 0, 74, 75
2, 103211, Note_on_c, 0, 54, 71
2, 103278, Note_on_c, 0, 74, 0
2, 103332, Note_on_c, 0, 71, 78
2, 103337, Note_on_c, 0, 55, 72
2, 103337, Note_on_c, 0, 62, 0
2, 103370, Note_on_c, 0, 54, 0
2, 103400, Note_on_c, 0, 71, 0
2, 103443, Note_on_c, 0, 74, 77
2, 103457, Note_on_c, 0, 55, 0
2, 103457, Note_on_c, 0, 59, 80
2, 103532, Note_on_c, 0, 74, 0
2, 103589, Note_on_c, 0, 67, 73
2, 103593, Note_on_c, 0, 62, 69
2, 103655, Note_on_c, 0, 62, 0
2, 103678, Note_on_c, 0, 67, 0
2, 103701, Note_on_c, 0, 71, 78
2, 103790, Note_on_c, 0, 71, 0
2, 103849, Note_on_c, 0, 76, 76
2, 103881, Note_on_c, 0, 61, 67
2, 103890, Note_on_c, 0, 59, 0
2, 103955, Note_on_c, 0, 76, 0
2, 103979, Note_on_c, 0, 73, 73
2, 103996, Note_on_c, 0, 52, 54
2, 104010, Note_on_c, 0, 61, 0
2, 104080, Note_on_c, 0, 73, 0
2, 104108, Note_on_c, 0, 52, 0
2, 104109, Note_on_c, 0, 54, 70
2, 104111, Note_on_c, 0, 70, 76
2, 104196, Note_on_c, 0, 70, 0
2, 104228, Note_on_c, 0, 73, 70
2, 104230, Note_on_c, 0, 54, 0
2, 104235, Note_on_c, 0, 58, 59
2, 104323, Note_on_c, 0, 73, 0
2, 104355, Note_on_c, 0, 61, 51
2, 104372, Note_on_c, 0, 66, 65
2, 104433, Note_on_c, 0, 61, 0
2, 104481, Note_on_c, 0, 58, 0
2, 104498, Note_on_c, 0, 66, 0
2, 104498, Note_on_c, 0, 70, 67
2, 104505, Note_on_c, 0, 54, 47
2, 104620, Note_on_c, 0, 70, 0
2, 104643, Note_on_c, 0, 74, 65
2, 104650, Note_on_c, 0, 54, 0
2, 104667, Note_on_c, 0, 59, 56
2, 104794, Note_on_c, 0, 78, 73
2, 104814, Note_on_c, 0, 74, 0
2, 104876, Note_on_c, 0, 59, 0
2, 104897, Note_on_c, 0, 78, 0
2, 104926, Note_on_c, 0, 47, 52
2, 104941, Note_on_c, 0, 71, 71
2, 105037, Note_on_c, 0, 71, 0
2, 105049, Note_on_c, 0, 74, 66
2, 105153, Note_on_c, 0, 74, 0
2, 105194, Note_on_c, 0, 78, 67
2, 105271, Note_on_c, 0, 47, 0
2, 105297, Note_on_c, 0, 78, 0
2, 105319, Note_on_c, 0, 74, 56
2, 105410, Note_on_c, 0, 74, 0
2, 105457, Note_on_c, 0, 71, 60
2, 105528, Note_on_c, 0, 71, 0
2, 105581, Note_on_c, 0, 74, 54
2, 105706, Note_on_c, 0, 66, 64
2, 105708, Note_on_c, 0, 50, 64
2, 105732, Note_on_c, 0, 74, 0
2, 105747, Note_on_c, 0, 50, 0
2, 105814, Note_on_c, 0, 66, 0
2, 105843, Note_on_c, 0, 71, 75
2, 105966, Note_on_c, 0, 74, 73
2, 105975, Note_on_c, 0, 47, 58
2, 105991, Note_on_c, 0, 71, 0
2, 106010, Note_on_c, 0, 47, 0
2, 106102, Note_on_c, 0, 69, 82
2, 106245, Note_on_c, 0, 68, 84
2, 106260, Note_on_c, 0, 69, 0
2, 106275, Note_on_c, 0, 52, 71
2, 106381, Note_on_c, 0, 71, 83
2, 106385, Note_on_c, 0, 68, 0
2, 106502, Note_on_c, 0, 52, 0
2, 106520, Note_on_c, 0, 64, 84
2, 106524, Note_on_c, 0, 71, 0
2, 106560, Note_on_c, 0, 40, 60
2, 106645, Note_on_c, 0, 68, 85
2, 106675, Note_on_c, 0, 64, 0
2, 106709, Note_on_c, 0, 40, 0
2, 106771, Note_on_c, 0, 71, 80
2, 106773, Note_on_c, 0, 68, 0
2, 106909, Note_on_c, 0, 68, 80
2, 106916, Note_on_c, 0, 71, 0
2, 106988, Note_on_c, 0, 68, 0
2, 107040, Note_on_c, 0, 64, 68
2, 107140, Note_on_c, 0, 64, 0
2, 107167, Note_on_c, 0, 68, 63
2, 107251, Note_on_c, 0, 68, 0
2, 107310, Note_on_c, 0, 59, 58
2, 107310, Note_on_c, 0, 64, 58
2, 107313, Note_on_c, 0, 56, 53
2, 107400, Note_on_c, 0, 64, 0
2, 107452, Note_on_c, 0, 68, 56
2, 107486, Note_on_c, 0, 56, 0
2, 107533, Note_on_c, 0, 68, 0
2, 107582, Note_on_c, 0, 52, 43
2, 107588, Note_on_c, 0, 64, 48
2, 107661, Note_on_c, 0, 52, 0
2, 107674, Note_on_c, 0, 59, 0
2, 107722, Note_on_c, 0, 62, 52
2, 107722, Note_on_c, 0, 68, 52
2, 107732, Note_on_c, 0, 64, 0
2, 107782, Note_on_c, 0, 68, 0
2, 107823, Note_on_c, 0, 74, 0
2, 107830, Note_on_c, 0, 62, 0
2, 107865, Note_on_c, 0, 60, 51
2, 107930, Note_on_c, 0, 60, 0
2, 107987, Note_on_c, 0, 64, 54
2, 108044, Note_on_c, 0, 64, 0
2, 108119, Note_on_c, 0, 72, 66
2, 108124, Note_on_c, 0, 69, 66
2, 108131, Note_on_c, 0, 57, 52
2, 108152, Note_on_c, 0, 72, 0
2, 108164, Note_on_c, 0, 69, 0
2, 108242, Note_on_c, 0, 57, 0
2, 108257, Note_on_c, 0, 60, 55
2, 108352, Note_on_c, 0, 60, 0
2, 108377, Note_on_c, 0, 72, 70
2, 108388, Note_on_c, 0, 69, 61
2, 108397, Note_on_c, 0, 64, 51
2, 108409, Note_on_c, 0, 72, 0
2, 108422, Note_on_c, 0, 69, 0
2, 108468, Note_on_c, 0, 64, 0
2, 108520, Note_on_c, 0, 60, 51
2, 108649, Note_on_c, 0, 74, 69
2, 108653, Note_on_c, 0, 60, 0
2, 108663, Note_on_c, 0, 69, 56
2, 108669, Note_on_c, 0, 57, 46
2, 108690, Note_on_c, 0, 74, 0
2, 108729, Note_on_c, 0, 72, 69
2, 108735, Note_on_c, 0, 57, 0
2, 108772, Note_on_c, 0, 72, 0
2, 108780, Note_on_c, 0, 74, 68
2, 108789, Note_on_c, 0, 60, 50
2, 108829, Note_on_c, 0, 74, 0
2, 108855, Note_on_c, 0, 60, 0
2, 108855, Note_on_c, 0, 72, 74
2, 108899, Note_on_c, 0, 72, 0
2, 108902, Note_on_c, 0, 52, 52
2, 108919, Note_on_c, 0, 74, 64
2, 108942, Note_on_c, 0, 69, 0
2, 108965, Note_on_c, 0, 74, 0
2, 108972, Note_on_c, 0, 69, 31
2, 108995, Note_on_c, 0, 72, 69
2, 109038, Note_on_c, 0, 72, 0
2, 109050, Note_on_c, 0, 52, 0
2, 109052, Note_on_c, 0, 74, 62
2, 109053, Note_on_c, 0, 57, 52
2, 109097, Note_on_c, 0, 74, 0
2, 109128, Note_on_c, 0, 72, 70
2, 109157, Note_on_c, 0, 57, 0
2, 109166, Note_on_c, 0, 72, 0
2, 109169, Note_on_c, 0, 60, 46
2, 109191, Note_on_c, 0, 74, 60
2, 109242, Note_on_c, 0, 60, 0
2, 109244, Note_on_c, 0, 74, 0
2, 109256, Note_on_c, 0, 72, 52
2, 109280, Note_on_c, 0, 55, 51
2, 109348, Note_on_c, 0, 69, 0
2, 109362, Note_on_c, 0, 72, 0
2, 109398, Note_on_c, 0, 55, 0
2, 109406, Note_on_c, 0, 54, 62
2, 109512, Note_on_c, 0, 54, 0
2, 109550, Note_on_c, 0, 57, 57
2, 109663, Note_on_c, 0, 57, 0
2, 109683, Note_on_c, 0, 72, 78
2, 109694, Note_on_c, 0, 50, 55
2, 109697, Note_on_c, 0, 66, 63
2, 109720, Note_on_c, 0, 72, 0
2, 109728, Note_on_c, 0, 66, 0
2, 109820, Note_on_c, 0, 54, 61
2, 109825, Note_on_c, 0, 50, 0
2, 109935, Note_on_c, 0, 54, 0
2, 109949, Note_on_c, 0, 72, 77
2, 109955, Note_on_c, 0, 57, 61
2, 109956, Note_on_c, 0, 66, 74
2, 109988, Note_on_c, 0, 66, 0
2, 110007, Note_on_c, 0, 72, 0
2, 110080, Note_on_c, 0, 54, 58
2, 110118, Note_on_c, 0, 57, 0
2, 110218, Note_on_c, 0, 68, 76
2, 110219, Note_on_c, 0, 54, 0
2, 110226, Note_on_c, 0, 50, 56
2, 110234, Note_on_c, 0, 72, 62
2, 110237, Note_on_c, 0, 68, 0
2, 110251, Note_on_c, 0, 67, 67
2, 110295, Note_on_c, 0, 67, 0
2, 110298, Note_on_c, 0, 50, 0
2, 110310, Note_on_c, 0, 66, 76
2, 110352, Note_on_c, 0, 54, 67
2, 110382, Note_on_c, 0, 66, 0
2, 110389, Note_on_c, 0, 67, 73
2, 110410, Note_on_c, 0, 54, 0
2, 110445, Note_on_c, 0, 67, 0
2, 110451, Note_on_c, 0, 66, 69
2, 110477, Note_on_c, 0, 45, 62
2, 110524, Note_on_c, 0, 66, 0
2, 110525, Note_on_c, 0, 67, 65
2, 110581, Note_on_c, 0, 67, 0
2, 110595, Note_on_c, 0, 66, 67
2, 110613, Note_on_c, 0, 50, 58
2, 110655, Note_on_c, 0, 66, 0
2, 110657, Note_on_c, 0, 67, 61
2, 110715, Note_on_c, 0, 50, 0
2, 110740, Note_on_c, 0, 54, 56
2, 110746, Note_on_c, 0, 66, 66
2, 110760, Note_on_c, 0, 67, 0
2, 110821, Note_on_c, 0, 54, 0
2, 110847, Note_on_c, 0, 45, 0
2, 110857, Note_on_c, 0, 48, 66
2, 110958, Note_on_c, 0, 66, 0
2, 110968, Note_on_c, 0, 72, 0
2, 110992, Note_on_c, 0, 47, 67
2, 111006, Note_on_c, 0, 48, 0
2, 111088, Note_on_c, 0, 47, 0
2, 111120, Note_on_c, 0, 50, 69
2, 111261, Note_on_c, 0, 50, 0
2, 111263, Note_on_c, 0, 43, 66
2, 111276, Note_on_c, 0, 71, 71
2, 111284, Note_on_c, 0, 67, 60
2, 111304, Note_on_c, 0, 71, 0
2, 111317, Note_on_c, 0, 67, 0
2, 111396, Note_on_c, 0, 43, 0
2, 111403, Note_on_c, 0, 47, 63
2, 111507, Note_on_c, 0, 47, 0
2, 111537, Note_on_c, 0, 67, 66
2, 111537, Note_on_c, 0, 71, 80
2, 111550, Note_on_c, 0, 50, 57
2, 111568, Note_on_c, 0, 71, 0
2, 111570, Note_on_c, 0, 67, 0
2, 111632, Note_on_c, 0, 50, 0
2, 111669, Note_on_c, 0, 47, 58
2, 111804, Note_on_c, 0, 47, 0
2, 111822, Note_on_c, 0, 43, 49
2, 111831, Note_on_c, 0, 71, 72
2, 111853, Note_on_c, 0, 67, 55
2, 111942, Note_on_c, 0, 43, 0
2, 111966, Note_on_c, 0, 47, 53
2, 112059, Note_on_c, 0, 47, 0
2, 112117, Note_on_c, 0, 67, 0
2, 112118, Note_on_c, 0, 65, 62
2, 112122, Note_on_c, 0, 38, 52
2, 112228, Note_on_c, 0, 65, 0
2, 112244, Note_on_c, 0, 64, 73
2, 112249, Note_on_c, 0, 43, 60
2, 112319, Note_on_c, 0, 38, 0
2, 112319, Note_on_c, 0, 71, 0
2, 112346, Note_on_c, 0, 43, 0
2, 112377, Note_on_c, 0, 47, 63
2, 112389, Note_on_c, 0, 62, 65
2, 112409, Note_on_c, 0, 64, 0
2, 112476, Note_on_c, 0, 47, 0
2, 112495, Note_on_c, 0, 62, 0
2, 112500, Note_on_c, 0, 41, 61
2, 112514, Note_on_c, 0, 71, 75
2, 112627, Note_on_c, 0, 71, 0
2, 112634, Note_on_c, 0, 41, 0
2, 112637, Note_on_c, 0, 40, 62
2, 112652, Note_on_c, 0, 60, 68
2, 112742, Note_on_c, 0, 40, 0
2, 112775, Note_on_c, 0, 43, 64
2, 112788, Note_on_c, 0, 71, 82
2, 112868, Note_on_c, 0, 60, 0
2, 112924, Note_on_c, 0, 69, 79
2, 112926, Note_on_c, 0, 43, 0
2, 112928, Note_on_c, 0, 36, 63
2, 113011, Note_on_c, 0, 71, 0
2, 113037, Note_on_c, 0, 66, 75
2, 113042, Note_on_c, 0, 69, 0
2, 113052, Note_on_c, 0, 36, 0
2, 113062, Note_on_c, 0, 38, 70
2, 113154, Note_on_c, 0, 38, 0
2, 113176, Note_on_c, 0, 40, 72
2, 113177, Note_on_c, 0, 67, 78
2, 113199, Note_on_c, 0, 66, 0
2, 113266, Note_on_c, 0, 67, 0
2, 113267, Note_on_c, 0, 40, 0
2, 113296, Note_on_c, 0, 64, 82
2, 113297, Note_on_c, 0, 36, 69
2, 113411, Note_on_c, 0, 38, 83
2, 113424, Note_on_c, 0, 36, 0
2, 113442, Note_on_c, 0, 66, 84
2, 113456, Note_on_c, 0, 64, 0
2, 113458, Note_on_c, 0, 38, 0
2, 113564, Note_on_c, 0, 69, 84
2, 113579, Note_on_c, 0, 66, 0
2, 113686, Note_on_c, 0, 69, 0
2, 113701, Note_on_c, 0, 62, 82
2, 113704, Note_on_c, 0, 54, 80
2, 113706, Note_on_c, 0, 50, 76
2, 113738, Note_on_c, 0, 54, 0
2, 113746, Note_on_c, 0, 50, 0
2, 113836, Note_on_c, 0, 66, 81
2, 113839, Note_on_c, 0, 62, 0
2, 113940, Note_on_c, 0, 66, 0
2, 113972, Note_on_c, 0, 69, 79
2, 113976, Note_on_c, 0, 54, 85
2, 113987, Note_on_c, 0, 50, 72
2, 114008, Note_on_c, 0, 54, 0
2, 114019, Note_on_c, 0, 50, 0
2, 114096, Note_on_c, 0, 66, 74
2, 114137, Note_on_c, 0, 69, 0
2, 114254, Note_on_c, 0, 66, 0
2, 114259, Note_on_c, 0, 62, 71
2, 114260, Note_on_c, 0, 54, 75
2, 114270, Note_on_c, 0, 50, 67
2, 114301, Note_on_c, 0, 54, 0
2, 114346, Note_on_c, 0, 55, 83
2, 114381, Note_on_c, 0, 62, 0
2, 114383, Note_on_c, 0, 66, 77
2, 114399, Note_on_c, 0, 55, 0
2, 114412, Note_on_c, 0, 54, 66
2, 114467, Note_on_c, 0, 54, 0
2, 114478, Note_on_c, 0, 55, 77
2, 114540, Note_on_c, 0, 55, 0
2, 114540, Note_on_c, 0, 57, 70
2, 114555, Note_on_c, 0, 54, 67
2, 114566, Note_on_c, 0, 66, 0
2, 114598, Note_on_c, 0, 54, 0
2, 114621, Note_on_c, 0, 55, 76
2, 114659, Note_on_c, 0, 62, 73
2, 114660, Note_on_c, 0, 57, 0
2, 114671, Note_on_c, 0, 55, 0
2, 114678, Note_on_c, 0, 54, 70
2, 114729, Note_on_c, 0, 54, 0
2, 114766, Note_on_c, 0, 55, 76
2, 114807, Note_on_c, 0, 66, 79
2, 114817, Note_on_c, 0, 55, 0
2, 114831, Note_on_c, 0, 62, 0
2, 114842, Note_on_c, 0, 54, 75
2, 114889, Note_on_c, 0, 54, 0
2, 114904, Note_on_c, 0, 50, 0
2, 114925, Note_on_c, 0, 52, 64
2, 114930, Note_on_c, 0, 55, 66
2, 114947, Note_on_c, 0, 66, 0
2, 114963, Note_on_c, 0, 60, 72
2, 114966, Note_on_c, 0, 55, 0
2, 115007, Note_on_c, 0, 52, 0
2, 115022, Note_on_c, 0, 54, 73
2, 115053, Note_on_c, 0, 60, 0
2, 115067, Note_on_c, 0, 55, 70
2, 115082, Note_on_c, 0, 54, 0
2, 115085, Note_on_c, 0, 59, 85
2, 115104, Note_on_c, 0, 55, 0
2, 115179, Note_on_c, 0, 59, 0
2, 115213, Note_on_c, 0, 62, 73
2, 115342, Note_on_c, 0, 59, 78
2, 115346, Note_on_c, 0, 50, 69
2, 115351, Note_on_c, 0, 62, 0
2, 115358, Note_on_c, 0, 55, 62
2, 115386, Note_on_c, 0, 55, 0
2, 115388, Note_on_c, 0, 50, 0
2, 115471, Note_on_c, 0, 62, 78
2, 115474, Note_on_c, 0, 59, 0
2, 115601, Note_on_c, 0, 67, 74
2, 115607, Note_on_c, 0, 55, 67
2, 115608, Note_on_c, 0, 50, 77
2, 115640, Note_on_c, 0, 50, 0
2, 115641, Note_on_c, 0, 62, 0
2, 115646, Note_on_c, 0, 55, 0
2, 115734, Note_on_c, 0, 62, 71
2, 115743, Note_on_c, 0, 67, 0
2, 115799, Note_on_c, 0, 62, 0
2, 115889, Note_on_c, 0, 50, 73
2, 115899, Note_on_c, 0, 59, 78
2, 115912, Note_on_c, 0, 55, 70
2, 115927, Note_on_c, 0, 50, 0
2, 115945, Note_on_c, 0, 52, 72
2, 115992, Note_on_c, 0, 55, 0
2, 116011, Note_on_c, 0, 52, 0
2, 116017, Note_on_c, 0, 50, 69
2, 116020, Note_on_c, 0, 62, 76
2, 116064, Note_on_c, 0, 59, 0
2, 116069, Note_on_c, 0, 50, 0
2, 116090, Note_on_c, 0, 52, 77
2, 116145, Note_on_c, 0, 52, 0
2, 116163, Note_on_c, 0, 50, 66
2, 116175, Note_on_c, 0, 55, 71
2, 116217, Note_on_c, 0, 50, 0
2, 116227, Note_on_c, 0, 62, 0
2, 116228, Note_on_c, 0, 52, 74
2, 116294, Note_on_c, 0, 50, 70
2, 116295, Note_on_c, 0, 52, 0
2, 116302, Note_on_c, 0, 59, 82
2, 116361, Note_on_c, 0, 50, 0
2, 116395, Note_on_c, 0, 52, 77
2, 116417, Note_on_c, 0, 59, 0
2, 116439, Note_on_c, 0, 62, 81
2, 116465, Note_on_c, 0, 52, 0
2, 116469, Note_on_c, 0, 49, 68
2, 116536, Note_on_c, 0, 50, 78
2, 116553, Note_on_c, 0, 49, 0
2, 116560, Note_on_c, 0, 55, 0
2, 116564, Note_on_c, 0, 59, 82
2, 116575, Note_on_c, 0, 62, 0
2, 116630, Note_on_c, 0, 50, 0
2, 116639, Note_on_c, 0, 52, 77
2, 116661, Note_on_c, 0, 59, 0
2, 116700, Note_on_c, 0, 55, 82
2, 116796, Note_on_c, 0, 44, 46
2, 116806, Note_on_c, 0, 52, 0
2, 116837, Note_on_c, 0, 58, 81
2, 116860, Note_on_c, 0, 55, 0
2, 116872, Note_on_c, 0, 44, 0
2, 116971, Note_on_c, 0, 43, 71
2, 116972, Note_on_c, 0, 46, 77
2, 116972, Note_on_c, 0, 52, 84
2, 116984, Note_on_c, 0, 38, 72
2, 116990, Note_on_c, 0, 58, 0
2, 117013, Note_on_c, 0, 46, 0
2, 117017, Note_on_c, 0, 43, 0
2, 117024, Note_on_c, 0, 38, 0
2, 117099, Note_on_c, 0, 55, 85
2, 117155, Note_on_c, 0, 52, 0
2, 117253, Note_on_c, 0, 46, 80
2, 117256, Note_on_c, 0, 58, 80
2, 117260, Note_on_c, 0, 38, 78
2, 117268, Note_on_c, 0, 55, 0
2, 117272, Note_on_c, 0, 43, 55
2, 117293, Note_on_c, 0, 46, 0
2, 117297, Note_on_c, 0, 38, 0
2, 117305, Note_on_c, 0, 43, 0
2, 117353, Note_on_c, 0, 58, 0
2, 117391, Note_on_c, 0, 50, 85
2, 117512, Note_on_c, 0, 38, 72
2, 117558, Note_on_c, 0, 38, 0
2, 117567, Note_on_c, 0, 50, 0
2, 117578, Note_on_c, 0, 49, 87
2, 117611, Note_on_c, 0, 50, 55
2, 117621, Note_on_c, 0, 48, 52
2, 117624, Note_on_c, 0, 49, 0
2, 117663, Note_on_c, 0, 48, 0
2, 117674, Note_on_c, 0, 49, 75
2, 117723, Note_on_c, 0, 50, 0
2, 117724, Note_on_c, 0, 49, 0
2, 117735, Note_on_c, 0, 58, 77
2, 117740, Note_on_c, 0, 50, 47
2, 117818, Note_on_c, 0, 50, 0
2, 117825, Note_on_c, 0, 49, 71
2, 117877, Note_on_c, 0, 49, 0
2, 117878, Note_on_c, 0, 57, 80
2, 117893, Note_on_c, 0, 50, 76
2, 117945, Note_on_c, 0, 58, 0
2, 117957, Note_on_c, 0, 49, 73
2, 117961, Note_on_c, 0, 50, 0
2, 118007, Note_on_c, 0, 49, 0
2, 118017, Note_on_c, 0, 57, 0
2, 118021, Note_on_c, 0, 55, 82
2, 118030, Note_on_c, 0, 50, 72
2, 118093, Note_on_c, 0, 50, 0
2, 118104, Note_on_c, 0, 49, 56
2, 118144, Note_on_c, 0, 55, 0
2, 118169, Note_on_c, 0, 64, 82
2, 118176, Note_on_c, 0, 49, 0
2, 118187, Note_on_c, 0, 50, 66
2, 118255, Note_on_c, 0, 64, 0
2, 118262, Note_on_c, 0, 50, 0
2, 118263, Note_on_c, 0, 49, 63
2, 118301, Note_on_c, 0, 55, 75
2, 118313, Note_on_c, 0, 47, 75
2, 118370, Note_on_c, 0, 47, 0
2, 118413, Note_on_c, 0, 49, 0
2, 118493, Note_on_c, 0, 55, 0
2, 118527, Note_on_c, 0, 54, 68
2, 118533, Note_on_c, 0, 50, 47
2, 118540, Note_on_c, 0, 38, 43
2, 118594, Note_on_c, 0, 54, 0
2, 118630, Note_on_c, 0, 55, 61
2, 118663, Note_on_c, 0, 50, 0
2, 118714, Note_on_c, 0, 54, 75
2, 118725, Note_on_c, 0, 55, 0
2, 118738, Note_on_c, 0, 38, 0
2, 118790, Note_on_c, 0, 54, 0
2, 118802, Note_on_c, 0, 52, 66
2, 118876, Note_on_c, 0, 52, 0
2, 118894, Note_on_c, 0, 50, 56
2, 119091, Note_on_c, 0, 38, 58
2, 119170, Note_on_c, 0, 38, 0
2, 119182, Note_on_c, 0, 40, 62
2, 119254, Note_on_c, 0, 40, 0
2, 119254, Note_on_c, 0, 42, 66
2, 119290, Note_on_c, 0, 42, 0
2, 119300, Note_on_c, 0, 43, 66
2, 119303, Note_on_c, 0, 50, 0
2, 119347, Note_on_c, 0, 43, 0
2, 119428, Note_on_c, 0, 45, 34
2, 119438, Note_on_c, 0, 47, 21
2, 119473, Note_on_c, 0, 45, 0
2, 119520, Note_on_c, 0, 47, 0
2, 119545, Note_on_c, 0, 48, 70
2, 119585, Note_on_c, 0, 48, 0
2, 119625, Note_on_c, 0, 45, 56
2, 119682, Note_on_c, 0, 47, 64
2, 119697, Note_on_c, 0, 45, 0
2, 119771, Note_on_c, 0, 48, 69
2, 119776, Note_on_c, 0, 47, 0
2, 119822, Note_on_c, 0, 48, 0
2, 119830, Note_on_c, 0, 50, 65
2, 119863, Note_on_c, 0, 50, 0
2, 119895, Note_on_c, 0, 52, 69
2, 119951, Note_on_c, 0, 52, 0
2, 119969, Note_on_c, 0, 54, 74
2, 120045, Note_on_c, 0, 55, 76
2, 120048, Note_on_c, 0, 54, 0
2, 120101, Note_on_c, 0, 55, 0
2, 120117, Note_on_c, 0, 57, 76
2, 120174, Note_on_c, 0, 57, 0
2, 120192, Note_on_c, 0, 54, 69
2, 120250, Note_on_c, 0, 55, 75
2, 120255, Note_on_c, 0, 54, 0
2, 120315, Note_on_c, 0, 55, 0
2, 120328, Note_on_c, 0, 57, 66
2, 120363, Note_on_c, 0, 57, 0
2, 120367, Note_on_c, 0, 59, 72
2, 120431, Note_on_c, 0, 59, 0
2, 120455, Note_on_c, 0, 61, 69
2, 120483, Note_on_c, 0, 61, 0
2, 120521, Note_on_c, 0, 62, 73
2, 120591, Note_on_c, 0, 62, 0
2, 120598, Note_on_c, 0, 64, 73
2, 120670, Note_on_c, 0, 64, 0
2, 120686, Note_on_c, 0, 50, 80
2, 120694, Note_on_c, 0, 65, 61
2, 120730, Note_on_c, 0, 65, 0
2, 120747, Note_on_c, 0, 62, 75
2, 120824, Note_on_c, 0, 62, 0
2, 120832, Note_on_c, 0, 64, 75
2, 120902, Note_on_c, 0, 64, 0
2, 120912, Note_on_c, 0, 66, 76
2, 120954, Note_on_c, 0, 66, 0
2, 120981, Note_on_c, 0, 48, 72
2, 120981, Note_on_c, 0, 50, 0
2, 120985, Note_on_c, 0, 67, 73
2, 120996, Note_on_c, 0, 65, 63
2, 121032, Note_on_c, 0, 65, 0
2, 121044, Note_on_c, 0, 67, 0
2, 121059, Note_on_c, 0, 69, 75
2, 121078, Note_on_c, 0, 67, 53
2, 121100, Note_on_c, 0, 67, 0
2, 121133, Note_on_c, 0, 71, 76
2, 121151, Note_on_c, 0, 69, 0
2, 121201, Note_on_c, 0, 72, 82
2, 121210, Note_on_c, 0, 71, 0
2, 121258, Note_on_c, 0, 48, 0
2, 121283, Note_on_c, 0, 47, 61
2, 121295, Note_on_c, 0, 74, 82
2, 121312, Note_on_c, 0, 72, 0
2, 121470, Note_on_c, 0, 62, 78
2, 121515, Note_on_c, 0, 62, 0
2, 121600, Note_on_c, 0, 47, 0
2, 121609, Note_on_c, 0, 59, 76
2, 121645, Note_on_c, 0, 59, 0
2, 121758, Note_on_c, 0, 62, 81
2, 121801, Note_on_c, 0, 62, 0
2, 121906, Note_on_c, 0, 67, 77
2, 121943, Note_on_c, 0, 67, 0
2, 122044, Note_on_c, 0, 62, 78
2, 122083, Note_on_c, 0, 62, 0
2, 122205, Note_on_c, 0, 59, 77
2, 122332, Note_on_c, 0, 59, 0
2, 122337, Note_on_c, 0, 62, 72
2, 122388, Note_on_c, 0, 62, 0
2, 122493, Note_on_c, 0, 55, 73
2, 122541, Note_on_c, 0, 55, 0
2, 122635, Note_on_c, 0, 62, 72
2, 122680, Note_on_c, 0, 62, 0
2, 122791, Note_on_c, 0, 59, 62
2, 122801, Note_on_c, 0, 55, 45
2, 122854, Note_on_c, 0, 55, 0
2, 122886, Note_on_c, 0, 59, 0
2, 122906, Note_on_c, 0, 62, 69
2, 122988, Note_on_c, 0, 74, 0
2, 123012, Note_on_c, 0, 62, 0
2, 123066, Note_on_c, 0, 48, 65
2, 123085, Note_on_c, 0, 64, 72
2, 123181, Note_on_c, 0, 64, 0
2, 123213, Note_on_c, 0, 60, 75
2, 123334, Note_on_c, 0, 60, 0
2, 123370, Note_on_c, 0, 72, 86
2, 123373, Note_on_c, 0, 48, 0
2, 123395, Note_on_c, 0, 57, 52
2, 123430, Note_on_c, 0, 57, 0
2, 123520, Note_on_c, 0, 60, 64
2, 123558, Note_on_c, 0, 60, 0
2, 123681, Note_on_c, 0, 54, 77
2, 123712, Note_on_c, 0, 45, 53
2, 123760, Note_on_c, 0, 45, 0
2, 123769, Note_on_c, 0, 54, 0
2, 123812, Note_on_c, 0, 57, 61
2, 123813, Note_on_c, 0, 72, 0
2, 123950, Note_on_c, 0, 62, 70
2, 123975, Note_on_c, 0, 47, 61
2, 123975, Note_on_c, 0, 57, 0
2, 124087, Note_on_c, 0, 62, 0
2, 124093, Note_on_c, 0, 59, 83
2, 124204, Note_on_c, 0, 59, 0
2, 124245, Note_on_c, 0, 47, 0
2, 124256, Note_on_c, 0, 71, 83
2, 124273, Note_on_c, 0, 55, 54
2, 124324, Note_on_c, 0, 55, 0
2, 124399, Note_on_c, 0, 59, 71
2, 124437, Note_on_c, 0, 59, 0
2, 124567, Note_on_c, 0, 43, 50
2, 124584, Note_on_c, 0, 52, 41
2, 124621, Note_on_c, 0, 43, 0
2, 124658, Note_on_c, 0, 52, 0
2, 124699, Note_on_c, 0, 55, 59
2, 124767, Note_on_c, 0, 55, 0
2, 124855, Note_on_c, 0, 45, 52
2, 124859, Note_on_c, 0, 71, 0
2, 124863, Note_on_c, 0, 60, 36
2, 124911, Note_on_c, 0, 60, 0
2, 124959, Note_on_c, 0, 45, 0
2, 124997, Note_on_c, 0, 57, 59
2, 125135, Note_on_c, 0, 57, 0
2, 125146, Note_on_c, 0, 69, 76
2, 125167, Note_on_c, 0, 54, 57
2, 125212, Note_on_c, 0, 69, 0
2, 125245, Note_on_c, 0, 54, 0
2, 125282, Note_on_c, 0, 72, 81
2, 125289, Note_on_c, 0, 57, 62
2, 125327, Note_on_c, 0, 72, 0
2, 125378, Note_on_c, 0, 57, 0
2, 125434, Note_on_c, 0, 78, 83
2, 125436, Note_on_c, 0, 54, 51
2, 125447, Note_on_c, 0, 50, 49
2, 125498, Note_on_c, 0, 78, 0
2, 125548, Note_on_c, 0, 50, 0
2, 125566, Note_on_c, 0, 54, 0
2, 125583, Note_on_c, 0, 57, 58
2, 125592, Note_on_c, 0, 81, 75
2, 125737, Note_on_c, 0, 57, 0
2, 125767, Note_on_c, 0, 59, 64
2, 125788, Note_on_c, 0, 55, 50
2, 125943, Note_on_c, 0, 79, 82
2, 126002, Note_on_c, 0, 81, 0
2, 126123, Note_on_c, 0, 57, 65
2, 126126, Note_on_c, 0, 60, 72
2, 126131, Note_on_c, 0, 59, 0
2, 126175, Note_on_c, 0, 55, 0
2, 126284, Note_on_c, 0, 78, 85
2, 126287, Note_on_c, 0, 79, 0
2, 126525, Note_on_c, 0, 60, 0
2, 126535, Note_on_c, 0, 62, 49
2, 126539, Note_on_c, 0, 59, 46
2, 126549, Note_on_c, 0, 79, 70
2, 126557, Note_on_c, 0, 57, 0
2, 126583, Note_on_c, 0, 78, 0
2, 126765, Note_on_c, 0, 78, 74
2, 126775, Note_on_c, 0, 79, 0
2, 126834, Note_on_c, 0, 62, 0
2, 126835, Note_on_c, 0, 78, 0
2, 126843, Note_on_c, 0, 76, 76
2, 126882, Note_on_c, 0, 59, 0
2, 126926, Note_on_c, 0, 74, 74
2, 126926, Note_on_c, 0, 76, 0
2, 126972, Note_on_c, 0, 74, 0
2, 126991, Note_on_c, 0, 72, 79
2, 127044, Note_on_c, 0, 72, 0
2, 127065, Note_on_c, 0, 71, 86
2, 127141, Note_on_c, 0, 71, 0
2, 127144, Note_on_c, 0, 69, 79
2, 127207, Note_on_c, 0, 69, 0
2, 127215, Note_on_c, 0, 67, 74
2, 127266, Note_on_c, 0, 48, 57
2, 127270, Note_on_c, 0, 59, 63
2, 127315, Note_on_c, 0, 71, 79
2, 127319, Note_on_c, 0, 67, 0
2, 127404, Note_on_c, 0, 71, 0
2, 127407, Note_on_c, 0, 69, 76
2, 127413, Note_on_c, 0, 59, 0
2, 127454, Note_on_c, 0, 69, 0
2, 127481, Note_on_c, 0, 67, 66
2, 127583, Note_on_c, 0, 67, 0
2, 127584, Note_on_c, 0, 48, 0
2, 127589, Note_on_c, 0, 66, 70
2, 127602, Note_on_c, 0, 50, 54
2, 127606, Note_on_c, 0, 57, 55
2, 127692, Note_on_c, 0, 64, 67
2, 127720, Note_on_c, 0, 66, 0
2, 127761, Note_on_c, 0, 57, 0
2, 127794, Note_on_c, 0, 62, 67
2, 127807, Note_on_c, 0, 64, 0
2, 127877, Note_on_c, 0, 62, 0
2, 127895, Note_on_c, 0, 60, 71
2, 128054, Note_on_c, 0, 43, 48
2, 128085, Note_on_c, 0, 60, 0
2, 128129, Note_on_c, 0, 55, 56
2, 128172, Note_on_c, 0, 50, 0
2, 128185, Note_on_c, 0, 60, 65
2, 129038, Note_on_c, 0, 59, 56
2, 129164, Note_on_c, 0, 60, 0
2, 131613, Note_on_c, 0, 55, 0
2, 131777, Note_on_c, 0, 59, 0
2, 131781, Note_on_c, 0, 43, 0
2, 131782, End_track
0, 0, End_of_file
