0, 0, Header, 1, 2, 480
1, 0, Start_track
1, 0, Tempo, 500000
1, 0, Time_signature, 4, 2, 24, 8
1, 1, End_track
2, 0, Start_track
2, 0, Program_c, 0, 0
2, 480, Control_c, 0, 64, 9
2, 499, Control_c, 0, 64, 41
2, 518, Control_c, 0, 64, 53
2, 538, Control_c, 0, 64, 58
2, 557, Control_c, 0, 64, 62
2, 576, Control_c, 0, 64, 63
2, 595, Control_c, 0, 64, 64
2, 615, Control_c, 0, 64, 65
2, 634, Control_c, 0, 64, 67
2, 653, Control_c, 0, 64, 70
2, 672, Control_c, 0, 64, 76
2, 692, Control_c, 0, 64, 85
2, 710, Control_c, 0, 64, 94
2, 730, Control_c, 0, 64, 104
2, 749, Control_c, 0, 64, 127
2, 864, Control_c, 0, 64, 113
2, 883, Control_c, 0, 64, 106
2, 903, Control_c, 0, 64, 101
2, 914, Control_c, 0, 64, 96
2, 927, Control_c, 0, 64, 90
2, 940, Note_on_c, 0, 59, 52
2, 944, Control_c, 0, 64, 84
2, 953, Note_on_c, 0, 67, 51
2, 958, Note_on_c, 0, 55, 40
2, 962, Control_c, 0, 64, 77
2, 982, Control_c, 0, 64, 71
2, 1001, Control_c, 0, 64, 65
2, 1020, Control_c, 0, 64, 60
2, 1037, Note_on_c, 0, 67, 0
2, 1039, Control_c, 0, 64, 53
2, 1058, Control_c, 0, 64, 41
2, 1067, Note_on_c, 0, 74, 58
2, 1078, Control_c, 0, 64, 0
2, 1159, Note_on_c, 0, 74, 0
2, 1169, Note_on_c, 0, 57, 49
2, 1172, Note_on_c, 0, 66, 63
2, 1177, Note_on_c, 0, 59, 0
2, 1226, Note_on_c, 0, 66, 0
2, 1236, Note_on_c, 0, 57, 0
2, 1284, Note_on_c, 0, 74, 48
2, 1340, Note_on_c, 0, 74, 0
2, 1382, Note_on_c, 0, 59, 55
2, 1383, Note_on_c, 0, 67, 58
2, 1426, Note_on_c, 0, 59, 0
2, 1437, Note_on_c, 0, 67, 0
2, 1485, Note_on_c, 0, 74, 48
2, 1574, Note_on_c, 0, 74, 0
2, 1593, Note_on_c, 0, 69, 67
2, 1605, Note_on_c, 0, 60, 51
2, 1641, Note_on_c, 0, 60, 0
2, 1663, Note_on_c, 0, 69, 0
2, 1712, Note_on_c, 0, 74, 63
2, 1762, Note_on_c, 0, 74, 0
2, 1805, Note_on_c, 0, 62, 61
2, 1809, Note_on_c, 0, 71, 69
2, 1847, Note_on_c, 0, 62, 0
2, 1867, Note_on_c, 0, 71, 0
2, 1906, Note_on_c, 0, 74, 66
2, 1996, Note_on_c, 0, 74, 0
2, 2023, Note_on_c, 0, 72, 66
2, 2024, Note_on_c, 0, 64, 61
2, 2059, Note_on_c, 0, 64, 0
2, 2100, Note_on_c, 0, 72, 0
2, 2125, Note_on_c, 0, 74, 42
2, 2227, Note_on_c, 0, 74, 0
2, 2241, Note_on_c, 0, 62, 53
2, 2241, Note_on_c, 0, 71, 68
2, 2278, Note_on_c, 0, 62, 0
2, 2335, Note_on_c, 0, 71, 0
2, 2361, Note_on_c, 0, 74, 64
2, 2423, Note_on_c, 0, 74, 0
2, 2447, Note_on_c, 0, 60, 49
2, 2461, Note_on_c, 0, 69, 63
2, 2480, Note_on_c, 0, 60, 0
2, 2523, Note_on_c, 0, 69, 0
2, 2565, Note_on_c, 0, 74, 61
2, 2623, Note_on_c, 0, 74, 0
2, 2660, Note_on_c, 0, 67, 63
2, 2676, Note_on_c, 0, 59, 38
2, 2712, Note_on_c, 0, 59, 0
2, 2740, Note_on_c, 0, 67, 0
2, 2781, Note_on_c, 0, 74, 58
2, 2865, Note_on_c, 0, 74, 0
2, 2871, Note_on_c, 0, 64, 59
2, 2877, Note_on_c, 0, 72, 65
2, 2906, Note_on_c, 0, 64, 0
2, 2965, Note_on_c, 0, 72, 0
2, 2971, Note_on_c, 0, 74, 54
2, 3041, Note_on_c, 0, 74, 0
2, 3082, Note_on_c, 0, 71, 64
2, 3091, Note_on_c, 0, 62, 59
2, 3128, Note_on_c, 0, 62, 0
2, 3171, Note_on_c, 0, 71, 0
2, 3189, Note_on_c, 0, 74, 59
2, 3249, Note_on_c, 0, 74, 0
2, 3293, Note_on_c, 0, 60, 65
2, 3295, Note_on_c, 0, 69, 65
2, 3329, Note_on_c, 0, 60, 0
2, 3362, Note_on_c, 0, 69, 0
2, 3396, Note_on_c, 0, 74, 63
2, 3489, Note_on_c, 0, 74, 0
2, 3509, Note_on_c, 0, 71, 67
2, 3515, Note_on_c, 0, 62, 56
2, 3556, Note_on_c, 0, 62, 0
2, 3597, Note_on_c, 0, 71, 0
2, 3612, Note_on_c, 0, 74, 56
2, 3681, Note_on_c, 0, 74, 0
2, 3711, Note_on_c, 0, 69, 65
2, 3719, Note_on_c, 0, 60, 57
2, 3749, Note_on_c, 0, 60, 0
2, 3772, Note_on_c, 0, 69, 0
2, 3812, Note_on_c, 0, 74, 57
2, 3871, Note_on_c, 0, 74, 0
2, 3915, Note_on_c, 0, 67, 59
2, 3927, Note_on_c, 0, 59, 62
2, 3960, Note_on_c, 0, 59, 0
2, 3995, Note_on_c, 0, 67, 0
2, 4032, Note_on_c, 0, 74, 58
2, 4110, Note_on_c, 0, 74, 0
2, 4132, Note_on_c, 0, 71, 67
2, 4147, Note_on_c, 0, 62, 45
2, 4182, Note_on_c, 0, 62, 0
2, 4230, Note_on_c, 0, 71, 0
2, 4254, Note_on_c, 0, 74, 51
2, 4310, Note_on_c, 0, 74, 0
2, 4327, Note_on_c, 0, 69, 65
2, 4342, Note_on_c, 0, 60, 53
2, 4391, Note_on_c, 0, 60, 0
2, 4407, Note_on_c, 0, 69, 0
2, 4440, Note_on_c, 0, 74, 53
2, 4514, Note_on_c, 0, 74, 0
2, 4523, Note_on_c, 0, 55, 0
2, 4546, Note_on_c, 0, 67, 65
2, 4547, Note_on_c, 0, 59, 62
2, 4584, Note_on_c, 0, 59, 0
2, 4616, Note_on_c, 0, 67, 0
2, 4654, Note_on_c, 0, 74, 57
2, 4784, Note_on_c, 0, 50, 60
2, 4788, Note_on_c, 0, 66, 51
2, 4841, Note_on_c, 0, 50, 0
2, 4895, Note_on_c, 0, 57, 64
2, 4949, Note_on_c, 0, 66, 0
2, 4962, Note_on_c, 0, 57, 0
2, 4996, Note_on_c, 0, 64, 68
2, 5003, Note_on_c, 0, 49, 68
2, 5051, Note_on_c, 0, 64, 0
2, 5060, Note_on_c, 0, 49, 0
2, 5096, Note_on_c, 0, 57, 69
2, 5155, Note_on_c, 0, 57, 0
2, 5204, Note_on_c, 0, 66, 70
2, 5226, Note_on_c, 0, 50, 58
2, 5258, Note_on_c, 0, 66, 0
2, 5282, Note_on_c, 0, 50, 0
2, 5309, Note_on_c, 0, 57, 62
2, 5369, Note_on_c, 0, 57, 0
2, 5414, Note_on_c, 0, 67, 67
2, 5425, Note_on_c, 0, 52, 61
2, 5465, Note_on_c, 0, 52, 0
2, 5475, Note_on_c, 0, 67, 0
2, 5509, Note_on_c, 0, 57, 63
2, 5564, Note_on_c, 0, 57, 0
2, 5627, Note_on_c, 0, 69, 71
2, 5628, Note_on_c, 0, 54, 62
2, 5672, Note_on_c, 0, 54, 0
2, 5674, Note_on_c, 0, 69, 0
2, 5718, Note_on_c, 0, 57, 59
2, 5774, Note_on_c, 0, 57, 0
2, 5822, Note_on_c, 0, 55, 58
2, 5826, Note_on_c, 0, 71, 70
2, 5867, Note_on_c, 0, 55, 0
2, 5917, Note_on_c, 0, 71, 0
2, 5924, Note_on_c, 0, 57, 55
2, 5994, Note_on_c, 0, 57, 0
2, 6036, Note_on_c, 0, 54, 61
2, 6050, Note_on_c, 0, 69, 66
2, 6083, Note_on_c, 0, 54, 0
2, 6139, Note_on_c, 0, 57, 56
2, 6195, Note_on_c, 0, 57, 0
2, 6254, Note_on_c, 0, 52, 58
2, 6259, Note_on_c, 0, 69, 0
2, 6277, Note_on_c, 0, 67, 57
2, 6310, Note_on_c, 0, 52, 0
2, 6362, Note_on_c, 0, 57, 59
2, 6422, Note_on_c, 0, 57, 0
2, 6465, Note_on_c, 0, 67, 0
2, 6476, Note_on_c, 0, 50, 57
2, 6481, Note_on_c, 0, 66, 65
2, 6522, Note_on_c, 0, 50, 0
2, 6543, Note_on_c, 0, 66, 0
2, 6569, Note_on_c, 0, 57, 58
2, 6630, Note_on_c, 0, 57, 0
2, 6690, Note_on_c, 0, 55, 58
2, 6693, Note_on_c, 0, 71, 70
2, 6736, Note_on_c, 0, 55, 0
2, 6769, Note_on_c, 0, 71, 0
2, 6783, Note_on_c, 0, 57, 62
2, 6836, Note_on_c, 0, 57, 0
2, 6900, Note_on_c, 0, 69, 67
2, 6903, Note_on_c, 0, 54, 53
2, 6946, Note_on_c, 0, 54, 0
2, 6953, Note_on_c, 0, 69, 0
2, 6991, Note_on_c, 0, 57, 51
2, 7040, Note_on_c, 0, 57, 0
2, 7115, Note_on_c, 0, 67, 66
2, 7121, Note_on_c, 0, 52, 55
2, 7157, Note_on_c, 0, 67, 0
2, 7167, Note_on_c, 0, 52, 0
2, 7228, Note_on_c, 0, 57, 57
2, 7274, Note_on_c, 0, 57, 0
2, 7327, Note_on_c, 0, 69, 70
2, 7341, Note_on_c, 0, 54, 61
2, 7392, Note_on_c, 0, 54, 0
2, 7453, Note_on_c, 0, 57, 58
2, 7504, Note_on_c, 0, 57, 0
2, 7527, Note_on_c, 0, 69, 0
2, 7552, Note_on_c, 0, 52, 61
2, 7554, Note_on_c, 0, 67, 66
2, 7589, Note_on_c, 0, 52, 0
2, 7658, Note_on_c, 0, 57, 57
2, 7711, Note_on_c, 0, 57, 0
2, 7757, Note_on_c, 0, 66, 62
2, 7769, Note_on_c, 0, 50, 68
2, 7775, Note_on_c, 0, 67, 0
2, 7812, Note_on_c, 0, 50, 0
2, 7861, Note_on_c, 0, 57, 61
2, 7921, Note_on_c, 0, 57, 0
2, 7925, Note_on_c, 0, 66, 0
2, 7978, Note_on_c, 0, 69, 68
2, 7986, Note_on_c, 0, 54, 59
2, 8028, Note_on_c, 0, 54, 0
2, 8052, Note_on_c, 0, 69, 0
2, 8075, Note_on_c, 0, 57, 57
2, 8132, Note_on_c, 0, 57, 0
2, 8185, Note_on_c, 0, 67, 62
2, 8191, Note_on_c, 0, 52, 62
2, 8230, Note_on_c, 0, 52, 0
2, 8240, Note_on_c, 0, 67, 0
2, 8295, Note_on_c, 0, 57, 54
2, 8343, Note_on_c, 0, 57, 0
2, 8395, Note_on_c, 0, 50, 60
2, 8409, Note_on_c, 0, 66, 54
2, 8436, Note_on_c, 0, 50, 0
2, 8485, Note_on_c, 0, 57, 56
2, 8561, Note_on_c, 0, 66, 0
2, 8563, Note_on_c, 0, 57, 0
2, 8622, Note_on_c, 0, 64, 60
2, 8624, Note_on_c, 0, 45, 55
2, 8647, Note_on_c, 0, 74, 0
2, 8658, Note_on_c, 0, 45, 0
2, 8721, Note_on_c, 0, 57, 59
2, 8790, Note_on_c, 0, 64, 0
2, 8809, Note_on_c, 0, 57, 0
2, 8837, Note_on_c, 0, 56, 61
2, 8838, Note_on_c, 0, 71, 65
2, 8882, Note_on_c, 0, 56, 0
2, 8949, Note_on_c, 0, 57, 51
2, 9001, Note_on_c, 0, 57, 0
2, 9060, Note_on_c, 0, 71, 0
2, 9065, Note_on_c, 0, 72, 71
2, 9074, Note_on_c, 0, 45, 60
2, 9086, Note_on_c, 0, 69, 54
2, 9135, Note_on_c, 0, 45, 0
2, 9194, Note_on_c, 0, 57, 59
2, 9259, Note_on_c, 0, 57, 0
2, 9297, Note_on_c, 0, 47, 65
2, 9301, Note_on_c, 0, 74, 72
2, 9319, Note_on_c, 0, 72, 0
2, 9339, Note_on_c, 0, 47, 0
2, 9391, Note_on_c, 0, 57, 67
2, 9481, Note_on_c, 0, 57, 0
2, 9497, Note_on_c, 0, 74, 0
2, 9498, Note_on_c, 0, 76, 78
2, 9509, Note_on_c, 0, 48, 68
2, 9563, Note_on_c, 0, 48, 0
2, 9616, Note_on_c, 0, 57, 66
2, 9692, Note_on_c, 0, 57, 0
2, 9707, Note_on_c, 0, 76, 0
2, 9712, Note_on_c, 0, 50, 72
2, 9720, Note_on_c, 0, 78, 82
2, 9742, Note_on_c, 0, 69, 0
2, 9776, Note_on_c, 0, 50, 0
2, 9785, Note_on_c, 0, 78, 0
2, 9818, Note_on_c, 0, 57, 75
2, 9878, Note_on_c, 0, 57, 0
2, 9936, Note_on_c, 0, 52, 68
2, 9947, Note_on_c, 0, 67, 83
2, 9981, Note_on_c, 0, 52, 0
2, 10022, Note_on_c, 0, 67, 0
2, 10041, Note_on_c, 0, 64, 69
2, 10045, Note_on_c, 0, 79, 85
2, 10112, Note_on_c, 0, 64, 0
2, 10141, Note_on_c, 0, 62, 59
2, 10148, Note_on_c, 0, 78, 75
2, 10151, Note_on_c, 0, 79, 0
2, 10191, Note_on_c, 0, 62, 0
2, 10246, Note_on_c, 0, 64, 68
2, 10254, Note_on_c, 0, 78, 0
2, 10256, Note_on_c, 0, 79, 73
2, 10295, Note_on_c, 0, 64, 0
2, 10327, Note_on_c, 0, 79, 0
2, 10375, Note_on_c, 0, 67, 71
2, 10378, Note_on_c, 0, 52, 55
2, 10431, Note_on_c, 0, 52, 0
2, 10437, Note_on_c, 0, 67, 0
2, 10478, Note_on_c, 0, 79, 75
2, 10488, Note_on_c, 0, 64, 61
2, 10537, Note_on_c, 0, 64, 0
2, 10560, Note_on_c, 0, 79, 0
2, 10586, Note_on_c, 0, 54, 65
2, 10590, Note_on_c, 0, 69, 79
2, 10636, Note_on_c, 0, 54, 0
2, 10661, Note_on_c, 0, 69, 0
2, 10678, Note_on_c, 0, 64, 69
2, 10694, Note_on_c, 0, 79, 78
2, 10748, Note_on_c, 0, 64, 0
2, 10790, Note_on_c, 0, 79, 0
2, 10792, Note_on_c, 0, 55, 70
2, 10803, Note_on_c, 0, 71, 81
2, 10864, Note_on_c, 0, 55, 0
2, 10884, Note_on_c, 0, 71, 0
2, 10896, Note_on_c, 0, 64, 72
2, 10906, Note_on_c, 0, 79, 83
2, 10981, Note_on_c, 0, 64, 0
2, 11002, Note_on_c, 0, 79, 0
2, 11006, Note_on_c, 0, 57, 71
2, 11013, Note_on_c, 0, 73, 84
2, 11052, Note_on_c, 0, 57, 0
2, 11106, Note_on_c, 0, 64, 74
2, 11107, Note_on_c, 0, 79, 85
2, 11109, Note_on_c, 0, 73, 0
2, 11208, Note_on_c, 0, 64, 0
2, 11236, Note_on_c, 0, 78, 80
2, 11246, Note_on_c, 0, 62, 67
2, 11285, Note_on_c, 0, 79, 0
2, 11344, Note_on_c, 0, 78, 0
2, 11358, Note_on_c, 0, 74, 70
2, 11366, Note_on_c, 0, 59, 75
2, 11377, Note_on_c, 0, 62, 0
2, 11452, Note_on_c, 0, 74, 0
2, 11453, Note_on_c, 0, 73, 77
2, 11469, Note_on_c, 0, 59, 0
2, 11476, Note_on_c, 0, 57, 64
2, 11513, Note_on_c, 0, 73, 0
2, 11549, Note_on_c, 0, 74, 74
2, 11584, Note_on_c, 0, 57, 0
2, 11606, Note_on_c, 0, 59, 63
2, 11627, Note_on_c, 0, 74, 0
2, 11673, Note_on_c, 0, 59, 0
2, 11678, Note_on_c, 0, 83, 80
2, 11706, Note_on_c, 0, 55, 62
2, 11743, Note_on_c, 0, 55, 0
2, 11746, Note_on_c, 0, 83, 0
2, 11816, Note_on_c, 0, 71, 56
2, 11821, Note_on_c, 0, 72, 54
2, 11853, Note_on_c, 0, 72, 0
2, 11858, Note_on_c, 0, 71, 0
2, 11909, Note_on_c, 0, 81, 80
2, 11913, Note_on_c, 0, 66, 62
2, 11953, Note_on_c, 0, 66, 0
2, 11972, Note_on_c, 0, 81, 0
2, 11998, Note_on_c, 0, 71, 53
2, 12089, Note_on_c, 0, 71, 0
2, 12118, Note_on_c, 0, 79, 78
2, 12130, Note_on_c, 0, 64, 58
2, 12166, Note_on_c, 0, 64, 0
2, 12197, Note_on_c, 0, 79, 0
2, 12227, Note_on_c, 0, 71, 75
2, 12311, Note_on_c, 0, 71, 0
2, 12337, Note_on_c, 0, 78, 82
2, 12347, Note_on_c, 0, 62, 58
2, 12382, Note_on_c, 0, 62, 0
2, 12411, Note_on_c, 0, 78, 0
2, 12443, Note_on_c, 0, 71, 79
2, 12542, Note_on_c, 0, 71, 0
2, 12568, Note_on_c, 0, 76, 80
2, 12574, Note_on_c, 0, 61, 63
2, 12677, Note_on_c, 0, 61, 0
2, 12677, Note_on_c, 0, 73, 77
2, 12678, Note_on_c, 0, 57, 67
2, 12700, Note_on_c, 0, 76, 0
2, 12767, Note_on_c, 0, 73, 0
2, 12771, Note_on_c, 0, 57, 0
2, 12776, Note_on_c, 0, 71, 76
2, 12781, Note_on_c, 0, 55, 69
2, 12848, Note_on_c, 0, 55, 0
2, 12870, Note_on_c, 0, 73, 85
2, 12882, Note_on_c, 0, 57, 64
2, 12886, Note_on_c, 0, 71, 0
2, 12937, Note_on_c, 0, 57, 0
2, 12943, Note_on_c, 0, 73, 0
2, 12989, Note_on_c, 0, 54, 61
2, 13008, Note_on_c, 0, 81, 82
2, 13068, Note_on_c, 0, 81, 0
2, 13082, Note_on_c, 0, 54, 0
2, 13116, Note_on_c, 0, 69, 75
2, 13171, Note_on_c, 0, 69, 0
2, 13210, Note_on_c, 0, 64, 53
2, 13223, Note_on_c, 0, 79, 81
2, 13249, Note_on_c, 0, 64, 0
2, 13294, Note_on_c, 0, 79, 0
2, 13324, Note_on_c, 0, 69, 70
2, 13402, Note_on_c, 0, 69, 0
2, 13430, Note_on_c, 0, 62, 55
2, 13447, Note_on_c, 0, 78, 72
2, 13467, Note_on_c, 0, 62, 0
2, 13498, Note_on_c, 0, 78, 0
2, 13547, Note_on_c, 0, 69, 66
2, 13618, Note_on_c, 0, 69, 0
2, 13651, Note_on_c, 0, 61, 67
2, 13654, Note_on_c, 0, 76, 76
2, 13685, Note_on_c, 0, 61, 0
2, 13726, Note_on_c, 0, 76, 0
2, 13750, Note_on_c, 0, 69, 75
2, 13848, Note_on_c, 0, 69, 0
2, 13879, Note_on_c, 0, 74, 78
2, 13880, Note_on_c, 0, 59, 70
2, 13956, Note_on_c, 0, 59, 0
2, 13987, Note_on_c, 0, 71, 78
2, 13990, Note_on_c, 0, 55, 67
2, 14010, Note_on_c, 0, 74, 0
2, 14066, Note_on_c, 0, 71, 0
2, 14067, Note_on_c, 0, 55, 0
2, 14068, Note_on_c, 0, 54, 72
2, 14087, Note_on_c, 0, 69, 75
2, 14170, Note_on_c, 0, 54, 0
2, 14182, Note_on_c, 0, 71, 80
2, 14183, Note_on_c, 0, 55, 67
2, 14191, Note_on_c, 0, 69, 0
2, 14245, Note_on_c, 0, 71, 0
2, 14286, Note_on_c, 0, 55, 0
2, 14310, Note_on_c, 0, 79, 73
2, 14321, Note_on_c, 0, 52, 60
2, 14399, Note_on_c, 0, 79, 0
2, 14420, Note_on_c, 0, 67, 70
2, 14430, Note_on_c, 0, 52, 0
2, 14494, Note_on_c, 0, 67, 0
2, 14533, Note_on_c, 0, 78, 77
2, 14550, Note_on_c, 0, 62, 52
2, 14581, Note_on_c, 0, 62, 0
2, 14594, Note_on_c, 0, 78, 0
2, 14638, Note_on_c, 0, 67, 65
2, 14698, Note_on_c, 0, 67, 0
2, 14747, Note_on_c, 0, 76, 70
2, 14754, Note_on_c, 0, 61, 64
2, 14791, Note_on_c, 0, 61, 0
2, 14821, Note_on_c, 0, 76, 0
2, 14849, Note_on_c, 0, 67, 61
2, 14920, Note_on_c, 0, 67, 0
2, 14965, Note_on_c, 0, 74, 66
2, 14972, Note_on_c, 0, 59, 62
2, 15009, Note_on_c, 0, 59, 0
2, 15037, Note_on_c, 0, 74, 0
2, 15068, Note_on_c, 0, 67, 63
2, 15141, Note_on_c, 0, 67, 0
2, 15196, Note_on_c, 0, 57, 58
2, 15196, Note_on_c, 0, 73, 69
2, 15269, Note_on_c, 0, 73, 0
2, 15300, Note_on_c, 0, 67, 59
2, 15370, Note_on_c, 0, 67, 0
2, 15400, Note_on_c, 0, 57, 0
2, 15405, Note_on_c, 0, 74, 74
2, 15408, Note_on_c, 0, 59, 67
2, 15461, Note_on_c, 0, 59, 0
2, 15474, Note_on_c, 0, 74, 0
2, 15516, Note_on_c, 0, 67, 67
2, 15591, Note_on_c, 0, 67, 0
2, 15631, Note_on_c, 0, 76, 77
2, 15638, Note_on_c, 0, 61, 59
2, 15673, Note_on_c, 0, 61, 0
2, 15729, Note_on_c, 0, 76, 0
2, 15745, Note_on_c, 0, 67, 59
2, 15813, Note_on_c, 0, 67, 0
2, 15849, Note_on_c, 0, 74, 70
2, 15862, Note_on_c, 0, 64, 59
2, 15897, Note_on_c, 0, 64, 0
2, 15906, Note_on_c, 0, 74, 0
2, 15962, Note_on_c, 0, 67, 59
2, 16018, Note_on_c, 0, 67, 0
2, 16061, Note_on_c, 0, 73, 68
2, 16066, Note_on_c, 0, 57, 60
2, 16110, Note_on_c, 0, 57, 0
2, 16127, Note_on_c, 0, 73, 0
2, 16172, Note_on_c, 0, 67, 58
2, 16244, Note_on_c, 0, 67, 0
2, 16267, Note_on_c, 0, 61, 59
2, 16281, Note_on_c, 0, 71, 66
2, 16300, Note_on_c, 0, 61, 0
2, 16348, Note_on_c, 0, 71, 0
2, 16392, Note_on_c, 0, 67, 63
2, 16467, Note_on_c, 0, 67, 0
2, 16502, Note_on_c, 0, 69, 66
2, 16508, Note_on_c, 0, 54, 51
2, 16541, Note_on_c, 0, 54, 0
2, 16593, Note_on_c, 0, 69, 0
2, 16610, Note_on_c, 0, 67, 65
2, 16710, Note_on_c, 0, 66, 70
2, 16712, Note_on_c, 0, 57, 60
2, 16727, Note_on_c, 0, 67, 0
2, 16748, Note_on_c, 0, 57, 0
2, 16786, Note_on_c, 0, 66, 0
2, 16818, Note_on_c, 0, 64, 64
2, 16925, Note_on_c, 0, 64, 0
2, 16936, Note_on_c, 0, 66, 68
2, 16940, Note_on_c, 0, 50, 61
2, 16973, Note_on_c, 0, 66, 0
2, 17042, Note_on_c, 0, 50, 0
2, 17064, Note_on_c, 0, 52, 57
2, 17153, Note_on_c, 0, 52, 0
2, 17170, Note_on_c, 0, 54, 60
2, 17191, Note_on_c, 0, 74, 31
2, 17201, Note_on_c, 0, 72, 31
2, 17236, Note_on_c, 0, 54, 0
2, 17237, Note_on_c, 0, 72, 0
2, 17237, Note_on_c, 0, 74, 0
2, 17273, Note_on_c, 0, 55, 58
2, 17358, Note_on_c, 0, 55, 0
2, 17380, Note_on_c, 0, 64, 71
2, 17399, Note_on_c, 0, 57, 61
2, 17641, Note_on_c, 0, 57, 0
2, 17644, Note_on_c, 0, 74, 65
2, 17655, Note_on_c, 0, 64, 0
2, 17669, Note_on_c, 0, 45, 46
2, 17701, Note_on_c, 0, 74, 0
2, 17710, Note_on_c, 0, 73, 66
2, 17751, Note_on_c, 0, 73, 0
2, 17769, Note_on_c, 0, 71, 63
2, 17821, Note_on_c, 0, 73, 77
2, 17850, Note_on_c, 0, 71, 0
2, 17894, Note_on_c, 0, 45, 0
2, 17894, Note_on_c, 0, 73, 0
2, 17927, Note_on_c, 0, 47, 53
2, 17932, Note_on_c, 0, 62, 66
2, 18055, Note_on_c, 0, 64, 68
2, 18070, Note_on_c, 0, 62, 0
2, 18086, Note_on_c, 0, 47, 0
2, 18152, Note_on_c, 0, 50, 66
2, 18153, Note_on_c, 0, 65, 78
2, 18184, Note_on_c, 0, 64, 0
2, 18209, Note_on_c, 0, 50, 0
2, 18226, Note_on_c, 0, 65, 0
2, 18256, Note_on_c, 0, 62, 76
2, 18370, Note_on_c, 0, 53, 62
2, 18370, Note_on_c, 0, 62, 0
2, 18374, Note_on_c, 0, 68, 88
2, 18418, Note_on_c, 0, 53, 0
2, 18450, Note_on_c, 0, 68, 0
2, 18484, Note_on_c, 0, 62, 79
2, 18562, Note_on_c, 0, 62, 0
2, 18582, Note_on_c, 0, 45, 65
2, 18586, Note_on_c, 0, 69, 89
2, 18642, Note_on_c, 0, 45, 0
2, 18672, Note_on_c, 0, 69, 0
2, 18695, Note_on_c, 0, 62, 78
2, 18781, Note_on_c, 0, 62, 0
2, 18815, Note_on_c, 0, 44, 60
2, 18817, Note_on_c, 0, 71, 82
2, 18886, Note_on_c, 0, 71, 0
2, 18927, Note_on_c, 0, 62, 67
2, 18984, Note_on_c, 0, 44, 0
2, 19005, Note_on_c, 0, 62, 0
2, 19043, Note_on_c, 0, 61, 69
2, 19048, Note_on_c, 0, 52, 60
2, 19086, Note_on_c, 0, 52, 0
2, 19107, Note_on_c, 0, 61, 0
2, 19141, Note_on_c, 0, 59, 69
2, 19265, Note_on_c, 0, 59, 0
2, 19271, Note_on_c, 0, 61, 68
2, 19275, Note_on_c, 0, 45, 53
2, 19384, Note_on_c, 0, 61, 0
2, 19384, Note_on_c, 0, 64, 75
2, 19388, Note_on_c, 0, 45, 0
2, 19400, Note_on_c, 0, 49, 62
2, 19495, Note_on_c, 0, 64, 0
2, 19499, Note_on_c, 0, 69, 74
2, 19500, Note_on_c, 0, 49, 0
2, 19507, Note_on_c, 0, 52, 65
2, 19562, Note_on_c, 0, 52, 0
2, 19608, Note_on_c, 0, 55, 67
2, 19662, Note_on_c, 0, 55, 0
2, 19724, Note_on_c, 0, 54, 68
2, 19770, Note_on_c, 0, 54, 0
2, 19963, Note_on_c, 0, 67, 63
2, 19977, Note_on_c, 0, 50, 54
2, 20007, Note_on_c, 0, 50, 0
2, 20028, Note_on_c, 0, 69, 0
2, 20059, Note_on_c, 0, 67, 0
2, 20062, Note_on_c, 0, 66, 69
2, 20148, Note_on_c, 0, 66, 0
2, 20183, Note_on_c, 0, 57, 62
2, 20186, Note_on_c, 0, 67, 67
2, 20222, Note_on_c, 0, 57, 0
2, 20231, Note_on_c, 0, 56, 67
2, 20266, Note_on_c, 0, 56, 0
2, 20280, Note_on_c, 0, 66, 73
2, 20299, Note_on_c, 0, 57, 74
2, 20299, Note_on_c, 0, 67, 0
2, 20346, Note_on_c, 0, 57, 0
2, 20387, Note_on_c, 0, 45, 69
2, 20389, Note_on_c, 0, 66, 0
2, 20394, Note_on_c, 0, 64, 68
2, 20426, Note_on_c, 0, 45, 0
2, 20493, Note_on_c, 0, 64, 0
2, 20507, Note_on_c, 0, 66, 70
2, 20611, Note_on_c, 0, 66, 0
2, 20640, Note_on_c, 0, 62, 68
2, 20644, Note_on_c, 0, 50, 64
2, 20889, Note_on_c, 0, 50, 0
2, 20892, Note_on_c, 0, 38, 66
2, 20898, Note_on_c, 0, 61, 68
2, 20904, Note_on_c, 0, 62, 0
2, 20945, Note_on_c, 0, 38, 0
2, 21011, Note_on_c, 0, 59, 71
2, 21030, Note_on_c, 0, 61, 0
2, 21120, Note_on_c, 0, 59, 0
2, 21126, Note_on_c, 0, 42, 61
2, 21133, Note_on_c, 0, 57, 58
2, 21168, Note_on_c, 0, 42, 0
2, 21195, Note_on_c, 0, 57, 0
2, 21238, Note_on_c, 0, 55, 57
2, 21339, Note_on_c, 0, 55, 0
2, 21357, Note_on_c, 0, 54, 58
2, 21372, Note_on_c, 0, 45, 54
2, 21405, Note_on_c, 0, 45, 0
2, 21448, Note_on_c, 0, 54, 0
2, 21476, Note_on_c, 0, 52, 57
2, 21638, Note_on_c, 0, 50, 48
2, 21641, Note_on_c, 0, 52, 0
2, 21677, Note_on_c, 0, 50, 0
2, 21697, Note_on_c, 0, 49, 60
2, 21748, Note_on_c, 0, 49, 0
2, 21771, Note_on_c, 0, 50, 54
2, 22037, Note_on_c, 0, 50, 0
2, 22351, Control_c, 0, 67, 13
2, 22370, Control_c, 0, 67, 49
2, 22389, Control_c, 0, 67, 94
2, 22409, Control_c, 0, 67, 127
2, 22427, Control_c, 0, 67, 127
2, 22467, Note_on_c, 0, 50, 45
2, 22473, Note_on_c, 0, 66, 46
2, 22487, Note_on_c, 0, 57, 32
2, 22545, Note_on_c, 0, 66, 0
2, 22604, Note_on_c, 0, 62, 40
2, 22664, Note_on_c, 0, 62, 0
2, 22673, Note_on_c, 0, 57, 0
2, 22708, Note_on_c, 0, 64, 57
2, 22718, Note_on_c, 0, 55, 46
2, 22759, Note_on_c, 0, 64, 0
2, 22809, Note_on_c, 0, 62, 47
2, 22886, Note_on_c, 0, 62, 0
2, 22903, Note_on_c, 0, 55, 0
2, 22924, Note_on_c, 0, 66, 66
2, 22939, Note_on_c, 0, 57, 50
2, 22977, Note_on_c, 0, 66, 0
2, 23029, Note_on_c, 0, 62, 58
2, 23052, Note_on_c, 0, 57, 0
2, 23089, Note_on_c, 0, 62, 0
2, 23143, Note_on_c, 0, 67, 67
2, 23147, Note_on_c, 0, 59, 52
2, 23204, Note_on_c, 0, 67, 0
2, 23251, Note_on_c, 0, 62, 54
2, 23311, Note_on_c, 0, 62, 0
2, 23350, Note_on_c, 0, 59, 0
2, 23367, Note_on_c, 0, 69, 67
2, 23376, Note_on_c, 0, 60, 48
2, 23432, Note_on_c, 0, 69, 0
2, 23468, Note_on_c, 0, 62, 51
2, 23528, Note_on_c, 0, 62, 0
2, 23529, Note_on_c, 0, 60, 0
2, 23576, Note_on_c, 0, 67, 61
2, 23588, Note_on_c, 0, 59, 52
2, 23630, Note_on_c, 0, 67, 0
2, 23680, Note_on_c, 0, 62, 50
2, 23755, Note_on_c, 0, 59, 0
2, 23761, Note_on_c, 0, 62, 0
2, 23808, Note_on_c, 0, 66, 61
2, 23830, Note_on_c, 0, 57, 41
2, 23879, Note_on_c, 0, 66, 0
2, 23921, Note_on_c, 0, 62, 51
2, 23969, Note_on_c, 0, 57, 0
2, 23981, Note_on_c, 0, 62, 0
2, 24032, Note_on_c, 0, 64, 55
2, 24040, Note_on_c, 0, 55, 44
2, 24089, Note_on_c, 0, 64, 0
2, 24140, Note_on_c, 0, 62, 52
2, 24204, Note_on_c, 0, 55, 0
2, 24210, Note_on_c, 0, 62, 0
2, 24257, Note_on_c, 0, 57, 50
2, 24258, Note_on_c, 0, 66, 63
2, 24313, Note_on_c, 0, 66, 0
2, 24363, Note_on_c, 0, 62, 53
2, 24364, Note_on_c, 0, 57, 0
2, 24424, Note_on_c, 0, 62, 0
2, 24479, Note_on_c, 0, 59, 45
2, 24479, Note_on_c, 0, 67, 64
2, 24534, Note_on_c, 0, 67, 0
2, 24584, Note_on_c, 0, 62, 52
2, 24649, Note_on_c, 0, 62, 0
2, 24690, Note_on_c, 0, 59, 0
2, 24705, Note_on_c, 0, 69, 66
2, 24720, Note_on_c, 0, 60, 42
2, 24779, Note_on_c, 0, 69, 0
2, 24809, Note_on_c, 0, 60, 0
2, 24810, Note_on_c, 0, 62, 47
2, 24868, Note_on_c, 0, 62, 0
2, 24924, Note_on_c, 0, 66, 58
2, 24933, Note_on_c, 0, 57, 47
2, 24972, Note_on_c, 0, 66, 0
2, 25007, Note_on_c, 0, 62, 52
2, 25093, Note_on_c, 0, 62, 0
2, 25122, Note_on_c, 0, 57, 0
2, 25146, Note_on_c, 0, 67, 62
2, 25147, Note_on_c, 0, 59, 54
2, 25202, Note_on_c, 0, 67, 0
2, 25259, Note_on_c, 0, 62, 51
2, 25319, Note_on_c, 0, 62, 0
2, 25334, Note_on_c, 0, 59, 0
2, 25375, Note_on_c, 0, 66, 57
2, 25376, Note_on_c, 0, 57, 44
2, 25435, Note_on_c, 0, 66, 0
2, 25470, Note_on_c, 0, 62, 52
2, 25543, Note_on_c, 0, 62, 0
2, 25563, Note_on_c, 0, 57, 0
2, 25592, Note_on_c, 0, 67, 52
2, 25607, Note_on_c, 0, 59, 42
2, 25636, Note_on_c, 0, 67, 0
2, 25696, Note_on_c, 0, 62, 56
2, 25763, Note_on_c, 0, 62, 0
2, 25767, Control_c, 0, 67, 125
2, 25778, Note_on_c, 0, 59, 0
2, 25785, Control_c, 0, 67, 121
2, 25805, Control_c, 0, 67, 118
2, 25814, Note_on_c, 0, 55, 44
2, 25817, Note_on_c, 0, 71, 65
2, 25824, Control_c, 0, 67, 113
2, 25844, Control_c, 0, 67, 109
2, 25862, Control_c, 0, 67, 103
2, 25882, Control_c, 0, 67, 96
2, 25884, Note_on_c, 0, 71, 0
2, 25901, Control_c, 0, 67, 87
2, 25920, Control_c, 0, 67, 78
2, 25923, Note_on_c, 0, 62, 45
2, 25939, Control_c, 0, 67, 67
2, 25959, Control_c, 0, 67, 55
2, 25972, Note_on_c, 0, 55, 0
2, 25978, Control_c, 0, 67, 45
2, 25978, Note_on_c, 0, 62, 0
2, 25996, Control_c, 0, 67, 36
2, 26016, Control_c, 0, 67, 30
2, 26030, Note_on_c, 0, 69, 61
2, 26039, Control_c, 0, 67, 24
2, 26048, Note_on_c, 0, 57, 40
2, 26057, Control_c, 0, 67, 16
2, 26076, Control_c, 0, 67, 0
2, 26088, Note_on_c, 0, 69, 0
2, 26127, Note_on_c, 0, 62, 45
2, 26182, Note_on_c, 0, 57, 0
2, 26212, Note_on_c, 0, 62, 0
2, 26251, Note_on_c, 0, 50, 0
2, 26253, Note_on_c, 0, 54, 57
2, 26263, Note_on_c, 0, 72, 67
2, 26295, Note_on_c, 0, 54, 0
2, 26319, Note_on_c, 0, 72, 0
2, 26369, Note_on_c, 0, 62, 47
2, 26459, Note_on_c, 0, 62, 0
2, 26491, Note_on_c, 0, 43, 52
2, 26504, Note_on_c, 0, 71, 61
2, 26526, Note_on_c, 0, 43, 0
2, 26602, Note_on_c, 0, 55, 51
2, 26658, Note_on_c, 0, 55, 0
2, 26670, Note_on_c, 0, 71, 0
2, 26702, Note_on_c, 0, 54, 55
2, 26706, Note_on_c, 0, 69, 64
2, 26756, Note_on_c, 0, 69, 0
2, 26762, Note_on_c, 0, 54, 0
2, 26774, Note_on_c, 0, 71, 59
2, 26804, Note_on_c, 0, 55, 55
2, 26829, Note_on_c, 0, 69, 67
2, 26839, Note_on_c, 0, 71, 0
2, 26893, Note_on_c, 0, 69, 0
2, 26896, Note_on_c, 0, 55, 0
2, 26914, Note_on_c, 0, 67, 64
2, 26982, Note_on_c, 0, 67, 0
2, 27045, Note_on_c, 0, 55, 52
2, 27120, Note_on_c, 0, 55, 0
2, 27149, Note_on_c, 0, 60, 50
2, 27149, Note_on_c, 0, 69, 65
2, 27194, Note_on_c, 0, 69, 0
2, 27200, Note_on_c, 0, 60, 0
2, 27244, Note_on_c, 0, 55, 63
2, 27299, Note_on_c, 0, 55, 0
2, 27368, Note_on_c, 0, 71, 67
2, 27369, Note_on_c, 0, 62, 51
2, 27413, Note_on_c, 0, 62, 0
2, 27419, Note_on_c, 0, 71, 0
2, 27478, Note_on_c, 0, 55, 41
2, 27561, Note_on_c, 0, 55, 0
2, 27585, Note_on_c, 0, 72, 69
2, 27591, Note_on_c, 0, 60, 57
2, 27631, Note_on_c, 0, 72, 0
2, 27648, Note_on_c, 0, 60, 0
2, 27705, Note_on_c, 0, 55, 53
2, 27786, Note_on_c, 0, 55, 0
2, 27811, Note_on_c, 0, 74, 58
2, 27820, Note_on_c, 0, 59, 60
2, 27879, Note_on_c, 0, 59, 0
2, 27936, Note_on_c, 0, 55, 48
2, 28007, Note_on_c, 0, 74, 0
2, 28009, Note_on_c, 0, 55, 0
2, 28029, Note_on_c, 0, 72, 72
2, 28033, Note_on_c, 0, 57, 60
2, 28149, Note_on_c, 0, 57, 0
2, 28159, Note_on_c, 0, 55, 61
2, 28214, Note_on_c, 0, 72, 0
2, 28233, Note_on_c, 0, 55, 0
2, 28260, Note_on_c, 0, 74, 73
2, 28269, Note_on_c, 0, 59, 63
2, 28334, Note_on_c, 0, 74, 0
2, 28349, Note_on_c, 0, 59, 0
2, 28385, Note_on_c, 0, 55, 62
2, 28453, Note_on_c, 0, 55, 0
2, 28480, Note_on_c, 0, 76, 75
2, 28489, Note_on_c, 0, 60, 66
2, 28548, Note_on_c, 0, 76, 0
2, 28550, Note_on_c, 0, 60, 0
2, 28600, Note_on_c, 0, 55, 63
2, 28675, Note_on_c, 0, 55, 0
2, 28706, Note_on_c, 0, 77, 80
2, 28713, Note_on_c, 0, 62, 62
2, 28772, Note_on_c, 0, 62, 0
2, 28775, Note_on_c, 0, 77, 0
2, 28818, Note_on_c, 0, 55, 67
2, 28904, Note_on_c, 0, 55, 0
2, 28922, Note_on_c, 0, 74, 83
2, 28934, Note_on_c, 0, 59, 72
2, 28977, Note_on_c, 0, 74, 0
2, 29003, Note_on_c, 0, 59, 0
2, 29046, Note_on_c, 0, 55, 66
2, 29123, Note_on_c, 0, 55, 0
2, 29157, Note_on_c, 0, 76, 87
2, 29165, Note_on_c, 0, 60, 64
2, 29234, Note_on_c, 0, 60, 0
2, 29273, Note_on_c, 0, 55, 67
2, 29353, Note_on_c, 0, 55, 0
2, 29380, Note_on_c, 0, 59, 68
2, 29389, Note_on_c, 0, 79, 85
2, 29429, Note_on_c, 0, 76, 0
2, 29439, Note_on_c, 0, 59, 0
2, 29477, Note_on_c, 0, 79, 0
2, 29491, Note_on_c, 0, 55, 66
2, 29555, Note_on_c, 0, 55, 0
2, 29606, Note_on_c, 0, 60, 60
2, 29612, Note_on_c, 0, 76, 73
2, 29663, Note_on_c, 0, 60, 0
2, 29665, Note_on_c, 0, 76, 0
2, 29729, Note_on_c, 0, 55, 48
2, 29803, Note_on_c, 0, 55, 0
2, 29828, Note_on_c, 0, 72, 79
2, 29848, Note_on_c, 0, 64, 51
2, 29867, Note_on_c, 0, 72, 0
2, 29908, Note_on_c, 0, 64, 0
2, 29962, Note_on_c, 0, 55, 58
2, 30030, Note_on_c, 0, 55, 0
2, 30059, Note_on_c, 0, 74, 71
2, 30075, Note_on_c, 0, 62, 60
2, 30113, Note_on_c, 0, 74, 0
2, 30128, Note_on_c, 0, 62, 0
2, 30177, Note_on_c, 0, 55, 64
2, 30245, Note_on_c, 0, 55, 0
2, 30273, Note_on_c, 0, 71, 72
2, 30290, Note_on_c, 0, 65, 68
2, 30314, Note_on_c, 0, 71, 0
2, 30341, Note_on_c, 0, 65, 0
2, 30385, Note_on_c, 0, 55, 69
2, 30440, Note_on_c, 0, 55, 0
2, 30516, Note_on_c, 0, 64, 66
2, 30525, Note_on_c, 0, 72, 79
2, 30634, Note_on_c, 0, 64, 0
2, 30641, Note_on_c, 0, 76, 83
2, 30648, Note_on_c, 0, 60, 58
2, 30651, Note_on_c, 0, 72, 0
2, 30710, Note_on_c, 0, 60, 0
2, 30727, Note_on_c, 0, 59, 66
2, 30742, Note_on_c, 0, 76, 0
2, 30751, Note_on_c, 0, 75, 85
2, 30804, Note_on_c, 0, 59, 0
2, 30840, Note_on_c, 0, 60, 66
2, 30846, Note_on_c, 0, 76, 82
2, 30871, Note_on_c, 0, 75, 0
2, 30942, Note_on_c, 0, 60, 0
2, 30953, Note_on_c, 0, 76, 0
2, 30962, Note_on_c, 0, 81, 81
2, 30977, Note_on_c, 0, 54, 66
2, 31022, Note_on_c, 0, 54, 0
2, 31036, Note_on_c, 0, 81, 0
2, 31075, Note_on_c, 0, 72, 70
2, 31142, Note_on_c, 0, 72, 0
2, 31182, Note_on_c, 0, 79, 77
2, 31184, Note_on_c, 0, 64, 62
2, 31222, Note_on_c, 0, 64, 0
2, 31259, Note_on_c, 0, 79, 0
2, 31293, Note_on_c, 0, 72, 69
2, 31368, Note_on_c, 0, 72, 0
2, 31405, Note_on_c, 0, 63, 68
2, 31411, Note_on_c, 0, 78, 79
2, 31440, Note_on_c, 0, 63, 0
2, 31484, Note_on_c, 0, 78, 0
2, 31522, Note_on_c, 0, 72, 72
2, 31593, Note_on_c, 0, 72, 0
2, 31624, Note_on_c, 0, 66, 62
2, 31628, Note_on_c, 0, 76, 77
2, 31659, Note_on_c, 0, 66, 0
2, 31693, Note_on_c, 0, 76, 0
2, 31726, Note_on_c, 0, 72, 80
2, 31814, Note_on_c, 0, 72, 0
2, 31852, Note_on_c, 0, 75, 84
2, 31863, Note_on_c, 0, 59, 60
2, 31943, Note_on_c, 0, 75, 0
2, 31962, Note_on_c, 0, 59, 0
2, 31962, Note_on_c, 0, 71, 76
2, 31976, Note_on_c, 0, 63, 57
2, 32042, Note_on_c, 0, 63, 0
2, 32055, Note_on_c, 0, 71, 0
2, 32059, Note_on_c, 0, 70, 80
2, 32083, Note_on_c, 0, 61, 49
2, 32118, Note_on_c, 0, 61, 0
2, 32138, Note_on_c, 0, 70, 0
2, 32162, Note_on_c, 0, 63, 76
2, 32170, Note_on_c, 0, 71, 83
2, 32236, Note_on_c, 0, 63, 0
2, 32253, Note_on_c, 0, 71, 0
2, 32305, Note_on_c, 0, 79, 71
2, 32321, Note_on_c, 0, 52, 55
2, 32334, Note_on_c, 0, 77, 49
2, 32366, Note_on_c, 0, 77, 0
2, 32384, Note_on_c, 0, 79, 0
2, 32404, Note_on_c, 0, 71, 73
2, 32445, Note_on_c, 0, 52, 0
2, 32478, Note_on_c, 0, 71, 0
2, 32523, Note_on_c, 0, 78, 73
2, 32527, Note_on_c, 0, 54, 61
2, 32566, Note_on_c, 0, 54, 0
2, 32585, Note_on_c, 0, 78, 0
2, 32625, Note_on_c, 0, 71, 71
2, 32702, Note_on_c, 0, 71, 0
2, 32742, Note_on_c, 0, 55, 64
2, 32746, Note_on_c, 0, 76, 66
2, 32786, Note_on_c, 0, 55, 0
2, 32813, Note_on_c, 0, 76, 0
2, 32847, Note_on_c, 0, 71, 68
2, 32909, Note_on_c, 0, 71, 0
2, 32959, Note_on_c, 0, 74, 66
2, 32962, Note_on_c, 0, 52, 62
2, 32998, Note_on_c, 0, 52, 0
2, 33034, Note_on_c, 0, 74, 0
2, 33059, Note_on_c, 0, 71, 63
2, 33145, Note_on_c, 0, 71, 0
2, 33181, Note_on_c, 0, 57, 64
2, 33181, Note_on_c, 0, 72, 71
2, 33257, Note_on_c, 0, 72, 0
2, 33267, Note_on_c, 0, 57, 0
2, 33299, Note_on_c, 0, 69, 71
2, 33311, Note_on_c, 0, 60, 60
2, 33364, Note_on_c, 0, 60, 0
2, 33377, Note_on_c, 0, 69, 0
2, 33404, Note_on_c, 0, 67, 66
2, 33415, Note_on_c, 0, 59, 56
2, 33463, Note_on_c, 0, 59, 0
2, 33481, Note_on_c, 0, 67, 0
2, 33513, Note_on_c, 0, 60, 56
2, 33521, Note_on_c, 0, 69, 70
2, 33572, Note_on_c, 0, 60, 0
2, 33606, Note_on_c, 0, 69, 0
2, 33640, Note_on_c, 0, 57, 55
2, 33640, Note_on_c, 0, 66, 67
2, 33689, Note_on_c, 0, 57, 0
2, 33732, Note_on_c, 0, 66, 0
2, 33742, Note_on_c, 0, 69, 73
2, 33748, Note_on_c, 0, 60, 53
2, 33805, Note_on_c, 0, 60, 0
2, 33827, Note_on_c, 0, 69, 0
2, 33845, Note_on_c, 0, 64, 75
2, 33864, Note_on_c, 0, 55, 55
2, 33907, Note_on_c, 0, 55, 0
2, 33927, Note_on_c, 0, 64, 0
2, 33964, Note_on_c, 0, 60, 53
2, 33966, Note_on_c, 0, 69, 74
2, 34024, Note_on_c, 0, 60, 0
2, 34071, Note_on_c, 0, 54, 58
2, 34071, Note_on_c, 0, 69, 0
2, 34083, Note_on_c, 0, 63, 59
2, 34126, Note_on_c, 0, 54, 0
2, 34159, Note_on_c, 0, 63, 0
2, 34196, Note_on_c, 0, 60, 48
2, 34196, Note_on_c, 0, 69, 64
2, 34254, Note_on_c, 0, 69, 0
2, 34255, Note_on_c, 0, 60, 0
2, 34310, Note_on_c, 0, 64, 50
2, 34315, Note_on_c, 0, 52, 46
2, 34358, Note_on_c, 0, 64, 0
2, 34367, Note_on_c, 0, 52, 0
2, 34398, Note_on_c, 0, 69, 61
2, 34412, Note_on_c, 0, 60, 49
2, 34451, Note_on_c, 0, 69, 0
2, 34469, Note_on_c, 0, 60, 0
2, 34527, Note_on_c, 0, 66, 56
2, 34550, Note_on_c, 0, 51, 45
2, 34605, Note_on_c, 0, 51, 0
2, 34643, Note_on_c, 0, 66, 0
2, 34668, Note_on_c, 0, 59, 43
2, 34713, Note_on_c, 0, 59, 0
2, 34757, Note_on_c, 0, 75, 70
2, 34769, Note_on_c, 0, 47, 50
2, 34800, Note_on_c, 0, 75, 0
2, 34818, Note_on_c, 0, 47, 0
2, 34879, Note_on_c, 0, 59, 49
2, 34939, Note_on_c, 0, 59, 0
2, 34977, Note_on_c, 0, 49, 58
2, 34998, Note_on_c, 0, 76, 60
2, 35029, Note_on_c, 0, 49, 0
2, 35037, Note_on_c, 0, 76, 0
2, 35084, Note_on_c, 0, 59, 52
2, 35153, Note_on_c, 0, 59, 0
2, 35204, Note_on_c, 0, 51, 54
2, 35206, Note_on_c, 0, 79, 63
2, 35246, Note_on_c, 0, 79, 0
2, 35252, Note_on_c, 0, 51, 0
2, 35258, Note_on_c, 0, 78, 59
2, 35307, Note_on_c, 0, 76, 68
2, 35310, Note_on_c, 0, 59, 56
2, 35337, Note_on_c, 0, 78, 0
2, 35351, Note_on_c, 0, 78, 63
2, 35384, Note_on_c, 0, 76, 0
2, 35395, Note_on_c, 0, 59, 0
2, 35429, Note_on_c, 0, 78, 0
2, 35454, Note_on_c, 0, 52, 54
2, 35458, Note_on_c, 0, 79, 75
2, 35567, Note_on_c, 0, 59, 59
2, 35617, Note_on_c, 0, 52, 0
2, 35643, Note_on_c, 0, 59, 0
2, 35675, Note_on_c, 0, 75, 81
2, 35681, Note_on_c, 0, 54, 57
2, 35685, Note_on_c, 0, 79, 0
2, 35736, Note_on_c, 0, 54, 0
2, 35787, Note_on_c, 0, 59, 68
2, 35880, Note_on_c, 0, 59, 0
2, 35896, Note_on_c, 0, 76, 77
2, 35912, Note_on_c, 0, 55, 55
2, 35926, Note_on_c, 0, 75, 0
2, 35982, Note_on_c, 0, 55, 0
2, 36015, Note_on_c, 0, 59, 78
2, 36015, Note_on_c, 0, 71, 83
2, 36038, Note_on_c, 0, 76, 0
2, 36118, Note_on_c, 0, 57, 73
2, 36119, Note_on_c, 0, 59, 0
2, 36129, Note_on_c, 0, 72, 85
2, 36150, Note_on_c, 0, 71, 0
2, 36213, Note_on_c, 0, 72, 0
2, 36216, Note_on_c, 0, 57, 0
2, 36232, Note_on_c, 0, 69, 77
2, 36240, Note_on_c, 0, 60, 66
2, 36324, Note_on_c, 0, 69, 0
2, 36340, Note_on_c, 0, 60, 0
2, 36356, Note_on_c, 0, 59, 72
2, 36356, Note_on_c, 0, 67, 79
2, 36397, Note_on_c, 0, 67, 0
2, 36468, Note_on_c, 0, 57, 65
2, 36476, Note_on_c, 0, 59, 0
2, 36572, Note_on_c, 0, 57, 0
2, 36586, Note_on_c, 0, 55, 65
2, 36590, Note_on_c, 0, 74, 59
2, 36636, Note_on_c, 0, 74, 0
2, 36700, Note_on_c, 0, 55, 0
2, 36705, Note_on_c, 0, 57, 72
2, 36775, Note_on_c, 0, 57, 0
2, 36794, Note_on_c, 0, 66, 82
2, 36813, Note_on_c, 0, 59, 74
2, 37045, Note_on_c, 0, 59, 0
2, 37063, Note_on_c, 0, 66, 0
2, 37066, Note_on_c, 0, 76, 71
2, 37089, Note_on_c, 0, 47, 64
2, 37136, Note_on_c, 0, 75, 75
2, 37141, Note_on_c, 0, 76, 0
2, 37163, Note_on_c, 0, 73, 81
2, 37167, Note_on_c, 0, 75, 0
2, 37246, Note_on_c, 0, 75, 84
2, 37274, Note_on_c, 0, 73, 0
2, 37306, Note_on_c, 0, 47, 0
2, 37316, Note_on_c, 0, 75, 0
2, 37323, Note_on_c, 0, 52, 74
2, 37325, Note_on_c, 0, 76, 86
2, 37382, Note_on_c, 0, 52, 0
2, 37405, Note_on_c, 0, 51, 74
2, 37424, Note_on_c, 0, 71, 91
2, 37441, Note_on_c, 0, 76, 0
2, 37443, Note_on_c, 0, 51, 0
2, 37479, Note_on_c, 0, 52, 74
2, 37545, Note_on_c, 0, 67, 79
2, 37551, Note_on_c, 0, 71, 0
2, 37650, Note_on_c, 0, 71, 78
2, 37659, Note_on_c, 0, 67, 0
2, 37794, Note_on_c, 0, 71, 0
2, 37807, Note_on_c, 0, 64, 68
2, 37916, Note_on_c, 0, 52, 0
2, 37926, Note_on_c, 0, 47, 62
2, 38017, Note_on_c, 0, 47, 0
2, 38038, Note_on_c, 0, 43, 56
2, 38115, Note_on_c, 0, 43, 0
2, 38146, Note_on_c, 0, 47, 54
2, 38234, Note_on_c, 0, 47, 0
2, 38282, Note_on_c, 0, 40, 52
2, 38382, Note_on_c, 0, 64, 0
2, 38422, Note_on_c, 0, 67, 63
2, 38446, Note_on_c, 0, 40, 0
2, 38514, Note_on_c, 0, 67, 0
2, 38539, Note_on_c, 0, 71, 63
2, 38626, Note_on_c, 0, 71, 0
2, 38649, Note_on_c, 0, 74, 56
2, 38782, Note_on_c, 0, 73, 60
2, 38782, Note_on_c, 0, 74, 0
2, 38825, Note_on_c, 0, 73, 0
2, 38886, Note_on_c, 0, 45, 52
2, 38984, Note_on_c, 0, 45, 0
2, 39004, Note_on_c, 0, 49, 55
2, 39012, Note_on_c, 0, 69, 64
2, 39071, Note_on_c, 0, 69, 0
2, 39086, Note_on_c, 0, 49, 0
2, 39128, Note_on_c, 0, 45, 57
2, 39219, Note_on_c, 0, 45, 0
2, 39230, Note_on_c, 0, 73, 79
2, 39231, Note_on_c, 0, 52, 62
2, 39298, Note_on_c, 0, 73, 0
2, 39317, Note_on_c, 0, 52, 0
2, 39359, Note_on_c, 0, 45, 63
2, 39436, Note_on_c, 0, 45, 0
2, 39442, Note_on_c, 0, 76, 80
2, 39458, Note_on_c, 0, 55, 66
2, 39514, Note_on_c, 0, 76, 0
2, 39555, Note_on_c, 0, 55, 0
2, 39563, Note_on_c, 0, 45, 63
2, 39670, Note_on_c, 0, 45, 0
2, 39689, Note_on_c, 0, 81, 84
2, 39693, Note_on_c, 0, 54, 63
2, 39754, Note_on_c, 0, 81, 0
2, 39776, Note_on_c, 0, 54, 0
2, 39800, Note_on_c, 0, 45, 65
2, 39858, Note_on_c, 0, 45, 0
2, 39902, Note_on_c, 0, 52, 69
2, 39912, Note_on_c, 0, 79, 86
2, 39967, Note_on_c, 0, 79, 0
2, 40006, Note_on_c, 0, 52, 0
2, 40009, Note_on_c, 0, 45, 58
2, 40112, Note_on_c, 0, 45, 0
2, 40158, Note_on_c, 0, 78, 85
2, 40161, Note_on_c, 0, 50, 55
2, 40271, Note_on_c, 0, 50, 0
2, 40281, Note_on_c, 0, 45, 57
2, 40380, Note_on_c, 0, 45, 0
2, 40382, Note_on_c, 0, 42, 62
2, 40385, Note_on_c, 0, 81, 77
2, 40423, Note_on_c, 0, 78, 0
2, 40425, Note_on_c, 0, 79, 49
2, 40458, Note_on_c, 0, 79, 0
2, 40475, Note_on_c, 0, 81, 0
2, 40496, Note_on_c, 0, 42, 0
2, 40522, Note_on_c, 0, 45, 59
2, 40585, Note_on_c, 0, 45, 0
2, 40615, Note_on_c, 0, 78, 75
2, 40628, Note_on_c, 0, 38, 65
2, 40668, Note_on_c, 0, 78, 0
2, 40737, Note_on_c, 0, 42, 60
2, 40739, Note_on_c, 0, 38, 0
2, 40832, Note_on_c, 0, 45, 58
2, 40843, Note_on_c, 0, 74, 69
2, 40870, Note_on_c, 0, 42, 0
2, 40881, Note_on_c, 0, 74, 0
2, 40895, Note_on_c, 0, 45, 0
2, 40955, Note_on_c, 0, 50, 59
2, 41005, Note_on_c, 0, 50, 0
2, 41077, Note_on_c, 0, 54, 61
2, 41077, Note_on_c, 0, 69, 65
2, 41133, Note_on_c, 0, 69, 0
2, 41160, Note_on_c, 0, 54, 0
2, 41206, Note_on_c, 0, 57, 64
2, 41264, Note_on_c, 0, 57, 0
2, 41298, Note_on_c, 0, 54, 61
2, 41303, Note_on_c, 0, 72, 69
2, 41345, Note_on_c, 0, 72, 0
2, 41391, Note_on_c, 0, 54, 0
2, 41400, Note_on_c, 0, 50, 60
2, 41481, Note_on_c, 0, 50, 0
2, 41536, Note_on_c, 0, 55, 60
2, 41546, Note_on_c, 0, 71, 72
2, 41602, Note_on_c, 0, 55, 0
2, 41657, Note_on_c, 0, 43, 69
2, 41750, Note_on_c, 0, 71, 0
2, 41762, Note_on_c, 0, 43, 0
2, 41762, Note_on_c, 0, 67, 79
2, 41763, Note_on_c, 0, 47, 70
2, 41897, Note_on_c, 0, 67, 0
2, 41900, Note_on_c, 0, 43, 70
2, 41900, Note_on_c, 0, 47, 0
2, 41987, Note_on_c, 0, 71, 86
2, 42001, Note_on_c, 0, 43, 0
2, 42016, Note_on_c, 0, 50, 68
2, 42046, Note_on_c, 0, 71, 0
2, 42077, Note_on_c, 0, 50, 0
2, 42118, Note_on_c, 0, 43, 63
2, 42193, Note_on_c, 0, 43, 0
2, 42208, Note_on_c, 0, 74, 72
2, 42227, Note_on_c, 0, 53, 65
2, 42267, Note_on_c, 0, 74, 0
2, 42284, Note_on_c, 0, 53, 0
2, 42332, Note_on_c, 0, 43, 57
2, 42414, Note_on_c, 0, 43, 0
2, 42440, Note_on_c, 0, 79, 76
2, 42449, Note_on_c, 0, 52, 58
2, 42490, Note_on_c, 0, 79, 0
2, 42503, Note_on_c, 0, 52, 0
2, 42557, Note_on_c, 0, 43, 54
2, 42637, Note_on_c, 0, 43, 0
2, 42666, Note_on_c, 0, 77, 71
2, 42677, Note_on_c, 0, 50, 59
2, 42702, Note_on_c, 0, 77, 0
2, 42727, Note_on_c, 0, 50, 0
2, 42764, Note_on_c, 0, 43, 60
2, 42865, Note_on_c, 0, 43, 0
2, 42908, Note_on_c, 0, 48, 53
2, 42918, Note_on_c, 0, 76, 73
2, 42949, Note_on_c, 0, 76, 0
2, 42982, Note_on_c, 0, 74, 64
2, 42985, Note_on_c, 0, 48, 0
2, 43018, Note_on_c, 0, 43, 61
2, 43025, Note_on_c, 0, 76, 80
2, 43053, Note_on_c, 0, 74, 0
2, 43108, Note_on_c, 0, 43, 0
2, 43134, Note_on_c, 0, 40, 61
2, 43217, Note_on_c, 0, 40, 0
2, 43240, Note_on_c, 0, 43, 57
2, 43344, Note_on_c, 0, 43, 0
2, 43382, Note_on_c, 0, 36, 52
2, 43512, Note_on_c, 0, 74, 54
2, 43521, Note_on_c, 0, 76, 0
2, 43629, Note_on_c, 0, 72, 64
2, 43658, Note_on_c, 0, 74, 0
2, 43702, Note_on_c, 0, 36, 0
2, 43706, Note_on_c, 0, 72, 0
2, 43740, Note_on_c, 0, 71, 65
2, 43844, Note_on_c, 0, 71, 0
2, 43856, Note_on_c, 0, 69, 76
2, 43957, Note_on_c, 0, 67, 73
2, 43967, Note_on_c, 0, 69, 0
2, 44066, Note_on_c, 0, 66, 80
2, 44099, Note_on_c, 0, 67, 0
2, 44152, Note_on_c, 0, 66, 0
2, 44173, Note_on_c, 0, 64, 81
2, 44296, Note_on_c, 0, 66, 78
2, 44300, Note_on_c, 0, 64, 0
2, 44342, Note_on_c, 0, 66, 0
2, 44423, Note_on_c, 0, 48, 53
2, 44507, Note_on_c, 0, 48, 0
2, 44543, Note_on_c, 0, 47, 55
2, 44549, Note_on_c, 0, 74, 64
2, 44587, Note_on_c, 0, 74, 0
2, 44597, Note_on_c, 0, 72, 69
2, 44632, Note_on_c, 0, 47, 0
2, 44657, Note_on_c, 0, 45, 57
2, 44665, Note_on_c, 0, 72, 0
2, 44764, Note_on_c, 0, 45, 0
2, 44793, Note_on_c, 0, 47, 63
2, 44831, Note_on_c, 0, 47, 0
2, 44888, Note_on_c, 0, 72, 68
2, 45002, Note_on_c, 0, 71, 71
2, 45016, Note_on_c, 0, 50, 67
2, 45030, Note_on_c, 0, 72, 0
2, 45050, Note_on_c, 0, 50, 0
2, 45072, Note_on_c, 0, 71, 0
2, 45121, Note_on_c, 0, 69, 75
2, 45222, Note_on_c, 0, 52, 73
2, 45234, Note_on_c, 0, 69, 0
2, 45238, Note_on_c, 0, 67, 67
2, 45253, Note_on_c, 0, 52, 0
2, 45338, Note_on_c, 0, 66, 75
2, 45378, Note_on_c, 0, 67, 0
2, 45457, Note_on_c, 0, 64, 75
2, 45461, Note_on_c, 0, 55, 70
2, 45499, Note_on_c, 0, 66, 0
2, 45528, Note_on_c, 0, 64, 0
2, 45561, Note_on_c, 0, 62, 78
2, 45660, Note_on_c, 0, 62, 0
2, 45675, Note_on_c, 0, 64, 79
2, 45707, Note_on_c, 0, 64, 0
2, 45746, Note_on_c, 0, 55, 0
2, 45783, Note_on_c, 0, 47, 66
2, 45924, Note_on_c, 0, 72, 74
2, 45931, Note_on_c, 0, 45, 64
2, 45963, Note_on_c, 0, 72, 0
2, 45974, Note_on_c, 0, 71, 73
2, 45975, Note_on_c, 0, 47, 0
2, 46022, Note_on_c, 0, 45, 0
2, 46033, Note_on_c, 0, 72, 79
2, 46035, Note_on_c, 0, 43, 62
2, 46044, Note_on_c, 0, 71, 0
2, 46151, Note_on_c, 0, 43, 0
2, 46158, Note_on_c, 0, 45, 59
2, 46195, Note_on_c, 0, 45, 0
2, 46282, Note_on_c, 0, 71, 66
2, 46284, Note_on_c, 0, 72, 0
2, 46404, Note_on_c, 0, 69, 68
2, 46430, Note_on_c, 0, 71, 0
2, 46481, Note_on_c, 0, 69, 0
2, 46526, Note_on_c, 0, 67, 63
2, 46606, Note_on_c, 0, 67, 0
2, 46621, Note_on_c, 0, 66, 69
2, 46622, Note_on_c, 0, 50, 71
2, 46665, Note_on_c, 0, 50, 0
2, 46729, Note_on_c, 0, 64, 67
2, 46770, Note_on_c, 0, 66, 0
2, 46818, Note_on_c, 0, 64, 0
2, 46849, Note_on_c, 0, 62, 65
2, 46862, Note_on_c, 0, 54, 66
2, 46945, Note_on_c, 0, 62, 0
2, 46957, Note_on_c, 0, 60, 66
2, 47038, Note_on_c, 0, 60, 0
2, 47084, Note_on_c, 0, 62, 64
2, 47182, Note_on_c, 0, 62, 0
2, 47200, Note_on_c, 0, 66, 68
2, 47221, Note_on_c, 0, 45, 66
2, 47234, Note_on_c, 0, 54, 0
2, 47321, Note_on_c, 0, 64, 68
2, 47349, Note_on_c, 0, 43, 66
2, 47361, Note_on_c, 0, 66, 0
2, 47369, Note_on_c, 0, 45, 0
2, 47405, Note_on_c, 0, 64, 0
2, 47430, Note_on_c, 0, 62, 68
2, 47442, Note_on_c, 0, 43, 0
2, 47445, Note_on_c, 0, 42, 69
2, 47553, Note_on_c, 0, 62, 0
2, 47555, Note_on_c, 0, 64, 70
2, 47560, Note_on_c, 0, 42, 0
2, 47571, Note_on_c, 0, 43, 72
2, 47641, Note_on_c, 0, 43, 0
2, 47654, Note_on_c, 0, 64, 0
2, 47657, Note_on_c, 0, 66, 79
2, 47749, Note_on_c, 0, 66, 0
2, 47779, Note_on_c, 0, 67, 77
2, 47792, Note_on_c, 0, 47, 68
2, 47841, Note_on_c, 0, 47, 0
2, 47877, Note_on_c, 0, 67, 0
2, 47882, Note_on_c, 0, 69, 82
2, 47979, Note_on_c, 0, 69, 0
2, 47998, Note_on_c, 0, 71, 84
2, 48016, Note_on_c, 0, 50, 65
2, 48051, Note_on_c, 0, 50, 0
2, 48111, Note_on_c, 0, 69, 80
2, 48111, Note_on_c, 0, 71, 0
2, 48217, Note_on_c, 0, 69, 0
2, 48234, Note_on_c, 0, 71, 87
2, 48256, Note_on_c, 0, 55, 69
2, 48295, Note_on_c, 0, 55, 0
2, 48338, Note_on_c, 0, 71, 0
2, 48347, Note_on_c, 0, 67, 76
2, 48454, Note_on_c, 0, 67, 0
2, 48461, Note_on_c, 0, 69, 79
2, 48490, Note_on_c, 0, 54, 64
2, 48600, Note_on_c, 0, 69, 0
2, 48602, Note_on_c, 0, 74, 78
2, 48682, Note_on_c, 0, 54, 0
2, 48706, Note_on_c, 0, 50, 62
2, 48722, Note_on_c, 0, 72, 78
2, 48751, Note_on_c, 0, 74, 0
2, 48770, Note_on_c, 0, 50, 0
2, 48827, Note_on_c, 0, 71, 74
2, 48855, Note_on_c, 0, 72, 0
2, 48942, Note_on_c, 0, 54, 59
2, 48944, Note_on_c, 0, 71, 0
2, 48947, Note_on_c, 0, 69, 66
2, 49005, Note_on_c, 0, 54, 0
2, 49005, Note_on_c, 0, 69, 0
2, 49050, Note_on_c, 0, 67, 60
2, 49155, Note_on_c, 0, 67, 0
2, 49166, Note_on_c, 0, 57, 63
2, 49171, Note_on_c, 0, 66, 65
2, 49201, Note_on_c, 0, 57, 0
2, 49248, Control_c, 0, 67, 8
2, 49268, Control_c, 0, 67, 29
2, 49275, Note_on_c, 0, 66, 0
2, 49279, Note_on_c, 0, 64, 62
2, 49287, Control_c, 0, 67, 60
2, 49307, Control_c, 0, 67, 100
2, 49325, Control_c, 0, 67, 127
2, 49418, Note_on_c, 0, 62, 56
2, 49431, Note_on_c, 0, 64, 0
2, 49549, Note_on_c, 0, 50, 57
2, 49618, Note_on_c, 0, 50, 0
2, 49649, Note_on_c, 0, 48, 58
2, 49715, Note_on_c, 0, 48, 0
2, 49767, Note_on_c, 0, 50, 56
2, 49827, Note_on_c, 0, 50, 0
2, 49869, Note_on_c, 0, 47, 55
2, 49917, Note_on_c, 0, 47, 0
2, 49983, Note_on_c, 0, 62, 0
2, 49984, Note_on_c, 0, 50, 48
2, 50007, Note_on_c, 0, 67, 50
2, 50041, Note_on_c, 0, 50, 0
2, 50099, Note_on_c, 0, 45, 55
2, 50100, Note_on_c, 0, 67, 0
2, 50117, Note_on_c, 0, 60, 54
2, 50140, Note_on_c, 0, 45, 0
2, 50180, Note_on_c, 0, 60, 0
2, 50214, Note_on_c, 0, 50, 45
2, 50238, Note_on_c, 0, 67, 51
2, 50272, Note_on_c, 0, 50, 0
2, 50294, Note_on_c, 0, 67, 0
2, 50328, Note_on_c, 0, 47, 54
2, 50344, Note_on_c, 0, 62, 53
2, 50371, Note_on_c, 0, 47, 0
2, 50407, Note_on_c, 0, 62, 0
2, 50449, Note_on_c, 0, 67, 52
2, 50458, Note_on_c, 0, 50, 37
2, 50502, Note_on_c, 0, 50, 0
2, 50520, Note_on_c, 0, 67, 0
2, 50568, Note_on_c, 0, 59, 61
2, 50579, Note_on_c, 0, 43, 47
2, 50630, Note_on_c, 0, 59, 0
2, 50648, Note_on_c, 0, 43, 0
2, 50689, Note_on_c, 0, 67, 55
2, 50700, Note_on_c, 0, 50, 47
2, 50746, Note_on_c, 0, 50, 0
2, 50770, Note_on_c, 0, 67, 0
2, 50807, Note_on_c, 0, 60, 57
2, 50810, Note_on_c, 0, 45, 47
2, 50862, Note_on_c, 0, 45, 0
2, 50869, Note_on_c, 0, 60, 0
2, 50911, Note_on_c, 0, 50, 49
2, 50920, Note_on_c, 0, 67, 61
2, 50965, Note_on_c, 0, 50, 0
2, 50987, Note_on_c, 0, 67, 0
2, 51017, Note_on_c, 0, 47, 55
2, 51021, Note_on_c, 0, 62, 60
2, 51070, Note_on_c, 0, 47, 0
2, 51107, Note_on_c, 0, 62, 0
2, 51119, Note_on_c, 0, 50, 57
2, 51143, Note_on_c, 0, 67, 53
2, 51174, Note_on_c, 0, 50, 0
2, 51204, Note_on_c, 0, 67, 0
2, 51236, Note_on_c, 0, 48, 49
2, 51257, Note_on_c, 0, 64, 58
2, 51292, Note_on_c, 0, 48, 0
2, 51331, Note_on_c, 0, 64, 0
2, 51362, Note_on_c, 0, 67, 53
2, 51368, Note_on_c, 0, 52, 47
2, 51411, Note_on_c, 0, 52, 0
2, 51441, Note_on_c, 0, 67, 0
2, 51466, Note_on_c, 0, 47, 52
2, 51477, Note_on_c, 0, 62, 57
2, 51512, Note_on_c, 0, 47, 0
2, 51532, Control_c, 0, 67, 125
2, 51552, Control_c, 0, 67, 120
2, 51556, Note_on_c, 0, 62, 0
2, 51570, Note_on_c, 0, 52, 53
2, 51571, Control_c, 0, 67, 114
2, 51586, Note_on_c, 0, 67, 49
2, 51590, Control_c, 0, 67, 106
2, 51609, Control_c, 0, 67, 96
2, 51628, Note_on_c, 0, 52, 0
2, 51629, Control_c, 0, 67, 84
2, 51639, Note_on_c, 0, 67, 0
2, 51647, Control_c, 0, 67, 68
2, 51667, Control_c, 0, 67, 53
2, 51684, Note_on_c, 0, 49, 59
2, 51686, Control_c, 0, 67, 39
2, 51686, Note_on_c, 0, 64, 66
2, 51706, Control_c, 0, 67, 27
2, 51724, Control_c, 0, 67, 17
2, 51737, Note_on_c, 0, 49, 0
2, 51744, Control_c, 0, 67, 0
2, 51776, Note_on_c, 0, 64, 0
2, 51803, Note_on_c, 0, 69, 70
2, 51814, Note_on_c, 0, 52, 50
2, 51872, Note_on_c, 0, 52, 0
2, 51883, Note_on_c, 0, 69, 0
2, 51922, Note_on_c, 0, 61, 59
2, 51929, Note_on_c, 0, 45, 45
2, 51998, Note_on_c, 0, 61, 0
2, 52029, Note_on_c, 0, 45, 0
2, 52030, Note_on_c, 0, 69, 66
2, 52055, Note_on_c, 0, 52, 48
2, 52104, Note_on_c, 0, 69, 0
2, 52110, Note_on_c, 0, 52, 0
2, 52149, Note_on_c, 0, 62, 61
2, 52166, Note_on_c, 0, 47, 52
2, 52218, Note_on_c, 0, 47, 0
2, 52232, Note_on_c, 0, 62, 0
2, 52259, Note_on_c, 0, 69, 72
2, 52266, Note_on_c, 0, 52, 56
2, 52328, Note_on_c, 0, 52, 0
2, 52353, Note_on_c, 0, 69, 0
2, 52374, Note_on_c, 0, 64, 70
2, 52376, Note_on_c, 0, 49, 69
2, 52437, Note_on_c, 0, 49, 0
2, 52460, Note_on_c, 0, 64, 0
2, 52487, Note_on_c, 0, 52, 55
2, 52487, Note_on_c, 0, 69, 72
2, 52548, Note_on_c, 0, 52, 0
2, 52584, Note_on_c, 0, 69, 0
2, 52590, Note_on_c, 0, 50, 59
2, 52593, Note_on_c, 0, 66, 72
2, 52674, Note_on_c, 0, 50, 0
2, 52699, Note_on_c, 0, 66, 0
2, 52699, Note_on_c, 0, 69, 75
2, 52726, Note_on_c, 0, 54, 58
2, 52778, Note_on_c, 0, 54, 0
2, 52787, Note_on_c, 0, 69, 0
2, 52811, Note_on_c, 0, 64, 74
2, 52822, Note_on_c, 0, 49, 68
2, 52883, Note_on_c, 0, 49, 0
2, 52907, Note_on_c, 0, 64, 0
2, 52923, Note_on_c, 0, 69, 73
2, 52937, Note_on_c, 0, 54, 59
2, 52987, Note_on_c, 0, 54, 0
2, 53007, Note_on_c, 0, 69, 0
2, 53024, Note_on_c, 0, 66, 72
2, 53046, Note_on_c, 0, 51, 56
2, 53087, Note_on_c, 0, 51, 0
2, 53102, Note_on_c, 0, 66, 0
2, 53136, Note_on_c, 0, 54, 56
2, 53149, Note_on_c, 0, 71, 70
2, 53200, Note_on_c, 0, 54, 0
2, 53212, Note_on_c, 0, 71, 0
2, 53268, Note_on_c, 0, 63, 67
2, 53280, Note_on_c, 0, 47, 62
2, 53357, Note_on_c, 0, 63, 0
2, 53361, Note_on_c, 0, 47, 0
2, 53372, Note_on_c, 0, 71, 73
2, 53395, Note_on_c, 0, 54, 55
2, 53452, Note_on_c, 0, 71, 0
2, 53457, Note_on_c, 0, 54, 0
2, 53486, Note_on_c, 0, 64, 76
2, 53498, Note_on_c, 0, 49, 63
2, 53560, Note_on_c, 0, 49, 0
2, 53579, Note_on_c, 0, 64, 0
2, 53590, Note_on_c, 0, 71, 78
2, 53598, Note_on_c, 0, 54, 62
2, 53657, Note_on_c, 0, 54, 0
2, 53695, Note_on_c, 0, 71, 0
2, 53702, Note_on_c, 0, 51, 62
2, 53702, Note_on_c, 0, 66, 75
2, 53758, Note_on_c, 0, 51, 0
2, 53786, Note_on_c, 0, 66, 0
2, 53792, Note_on_c, 0, 54, 58
2, 53804, Note_on_c, 0, 71, 83
2, 53847, Note_on_c, 0, 54, 0
2, 53912, Note_on_c, 0, 52, 58
2, 53918, Note_on_c, 0, 71, 0
2, 53919, Note_on_c, 0, 67, 75
2, 54008, Note_on_c, 0, 52, 0
2, 54029, Note_on_c, 0, 67, 0
2, 54032, Note_on_c, 0, 55, 63
2, 54035, Note_on_c, 0, 71, 81
2, 54095, Note_on_c, 0, 55, 0
2, 54128, Note_on_c, 0, 71, 0
2, 54140, Note_on_c, 0, 66, 77
2, 54148, Note_on_c, 0, 50, 57
2, 54203, Note_on_c, 0, 50, 0
2, 54231, Note_on_c, 0, 66, 0
2, 54244, Note_on_c, 0, 71, 80
2, 54252, Note_on_c, 0, 55, 61
2, 54318, Note_on_c, 0, 55, 0
2, 54323, Note_on_c, 0, 71, 0
2, 54356, Note_on_c, 0, 48, 65
2, 54363, Note_on_c, 0, 64, 78
2, 54410, Note_on_c, 0, 64, 0
2, 54418, Note_on_c, 0, 48, 0
2, 54470, Note_on_c, 0, 55, 59
2, 54543, Note_on_c, 0, 55, 0
2, 54582, Note_on_c, 0, 47, 74
2, 54585, Note_on_c, 0, 67, 75
2, 54623, Note_on_c, 0, 67, 0
2, 54646, Note_on_c, 0, 47, 0
2, 54682, Note_on_c, 0, 55, 64
2, 54821, Note_on_c, 0, 45, 63
2, 54822, Note_on_c, 0, 55, 0
2, 54827, Note_on_c, 0, 72, 79
2, 54865, Note_on_c, 0, 72, 0
2, 54874, Note_on_c, 0, 71, 67
2, 54907, Note_on_c, 0, 45, 0
2, 54918, Note_on_c, 0, 48, 61
2, 54943, Note_on_c, 0, 72, 83
2, 54950, Note_on_c, 0, 71, 0
2, 54996, Note_on_c, 0, 72, 0
2, 55019, Note_on_c, 0, 52, 71
2, 55023, Note_on_c, 0, 48, 0
2, 55097, Note_on_c, 0, 52, 0
2, 55125, Note_on_c, 0, 55, 69
2, 55216, Note_on_c, 0, 55, 0
2, 55268, Note_on_c, 0, 54, 64
2, 55404, Note_on_c, 0, 81, 82
2, 55439, Note_on_c, 0, 54, 0
2, 55513, Note_on_c, 0, 79, 83
2, 55526, Note_on_c, 0, 81, 0
2, 55535, Note_on_c, 0, 57, 62
2, 55581, Note_on_c, 0, 57, 0
2, 55617, Note_on_c, 0, 79, 0
2, 55622, Note_on_c, 0, 81, 82
2, 55741, Note_on_c, 0, 78, 80
2, 55744, Note_on_c, 0, 81, 0
2, 55750, Note_on_c, 0, 50, 59
2, 55824, Note_on_c, 0, 50, 0
2, 55847, Note_on_c, 0, 78, 0
2, 55847, Note_on_c, 0, 81, 83
2, 55948, Note_on_c, 0, 81, 0
2, 55962, Note_on_c, 0, 76, 74
2, 55971, Note_on_c, 0, 52, 51
2, 56015, Note_on_c, 0, 52, 0
2, 56038, Note_on_c, 0, 76, 0
2, 56070, Note_on_c, 0, 81, 76
2, 56156, Note_on_c, 0, 81, 0
2, 56171, Note_on_c, 0, 54, 48
2, 56188, Note_on_c, 0, 74, 67
2, 56219, Note_on_c, 0, 54, 0
2, 56259, Note_on_c, 0, 74, 0
2, 56296, Note_on_c, 0, 81, 71
2, 56382, Note_on_c, 0, 81, 0
2, 56420, Note_on_c, 0, 72, 70
2, 56426, Note_on_c, 0, 50, 45
2, 56461, Note_on_c, 0, 50, 0
2, 56477, Note_on_c, 0, 72, 0
2, 56529, Note_on_c, 0, 81, 68
2, 56620, Note_on_c, 0, 81, 0
2, 56651, Note_on_c, 0, 71, 64
2, 56657, Note_on_c, 0, 55, 52
2, 56693, Note_on_c, 0, 55, 0
2, 56721, Note_on_c, 0, 71, 0
2, 56749, Note_on_c, 0, 67, 60
2, 56843, Note_on_c, 0, 67, 0
2, 56882, Note_on_c, 0, 74, 74
2, 56889, Note_on_c, 0, 65, 56
2, 56933, Note_on_c, 0, 74, 0
2, 56940, Note_on_c, 0, 65, 0
2, 56987, Note_on_c, 0, 67, 63
2, 57043, Note_on_c, 0, 67, 0
2, 57103, Note_on_c, 0, 64, 65
2, 57119, Note_on_c, 0, 79, 83
2, 57154, Note_on_c, 0, 64, 0
2, 57182, Note_on_c, 0, 79, 0
2, 57224, Note_on_c, 0, 67, 50
2, 57296, Note_on_c, 0, 67, 0
2, 57344, Note_on_c, 0, 62, 49
2, 57347, Note_on_c, 0, 77, 68
2, 57393, Note_on_c, 0, 77, 0
2, 57407, Note_on_c, 0, 62, 0
2, 57459, Note_on_c, 0, 67, 50
2, 57516, Note_on_c, 0, 67, 0
2, 57578, Note_on_c, 0, 76, 61
2, 57580, Note_on_c, 0, 60, 51
2, 57621, Note_on_c, 0, 76, 0
2, 57633, Note_on_c, 0, 60, 0
2, 57676, Note_on_c, 0, 67, 50
2, 57750, Note_on_c, 0, 67, 0
2, 57808, Note_on_c, 0, 74, 65
2, 57812, Note_on_c, 0, 59, 53
2, 57848, Note_on_c, 0, 74, 0
2, 57903, Note_on_c, 0, 67, 58
2, 57991, Note_on_c, 0, 67, 0
2, 58048, Note_on_c, 0, 59, 0
2, 58058, Note_on_c, 0, 60, 45
2, 58058, Note_on_c, 0, 76, 75
2, 58136, Note_on_c, 0, 76, 0
2, 58143, Note_on_c, 0, 60, 0
2, 58163, Note_on_c, 0, 72, 72
2, 58176, Note_on_c, 0, 64, 57
2, 58258, Note_on_c, 0, 72, 0
2, 58266, Note_on_c, 0, 71, 76
2, 58277, Note_on_c, 0, 64, 0
2, 58289, Note_on_c, 0, 62, 60
2, 58332, Note_on_c, 0, 71, 0
2, 58350, Note_on_c, 0, 62, 0
2, 58373, Note_on_c, 0, 72, 81
2, 58406, Note_on_c, 0, 64, 53
2, 58475, Note_on_c, 0, 72, 0
2, 58477, Note_on_c, 0, 64, 0
2, 58517, Note_on_c, 0, 84, 83
2, 58526, Note_on_c, 0, 57, 55
2, 58592, Note_on_c, 0, 84, 0
2, 58622, Note_on_c, 0, 72, 72
2, 58657, Note_on_c, 0, 57, 0
2, 58699, Note_on_c, 0, 72, 0
2, 58745, Note_on_c, 0, 83, 85
2, 58755, Note_on_c, 0, 59, 64
2, 58801, Note_on_c, 0, 59, 0
2, 58818, Note_on_c, 0, 83, 0
2, 58854, Note_on_c, 0, 72, 69
2, 58932, Note_on_c, 0, 72, 0
2, 58971, Note_on_c, 0, 60, 63
2, 58977, Note_on_c, 0, 81, 82
2, 59008, Note_on_c, 0, 60, 0
2, 59038, Note_on_c, 0, 81, 0
2, 59081, Note_on_c, 0, 72, 65
2, 59147, Note_on_c, 0, 72, 0
2, 59193, Note_on_c, 0, 57, 65
2, 59202, Note_on_c, 0, 79, 79
2, 59233, Note_on_c, 0, 57, 0
2, 59269, Note_on_c, 0, 79, 0
2, 59310, Note_on_c, 0, 72, 59
2, 59408, Note_on_c, 0, 72, 0
2, 59435, Note_on_c, 0, 62, 54
2, 59444, Note_on_c, 0, 78, 72
2, 59545, Note_on_c, 0, 78, 0
2, 59548, Note_on_c, 0, 72, 69
2, 59586, Note_on_c, 0, 62, 0
2, 59639, Note_on_c, 0, 72, 0
2, 59661, Note_on_c, 0, 79, 81
2, 59678, Note_on_c, 0, 57, 57
2, 59740, Note_on_c, 0, 79, 0
2, 59777, Note_on_c, 0, 72, 76
2, 59791, Note_on_c, 0, 57, 0
2, 59864, Note_on_c, 0, 72, 0
2, 59889, Note_on_c, 0, 54, 56
2, 59892, Note_on_c, 0, 81, 83
2, 59960, Note_on_c, 0, 54, 0
2, 59987, Note_on_c, 0, 81, 0
2, 60014, Note_on_c, 0, 72, 66
2, 60101, Note_on_c, 0, 72, 0
2, 60131, Note_on_c, 0, 79, 76
2, 60143, Note_on_c, 0, 57, 46
2, 60184, Note_on_c, 0, 57, 0
2, 60185, Note_on_c, 0, 79, 0
2, 60244, Note_on_c, 0, 72, 64
2, 60307, Note_on_c, 0, 72, 0
2, 60357, Note_on_c, 0, 50, 52
2, 60361, Note_on_c, 0, 78, 68
2, 60435, Note_on_c, 0, 78, 0
2, 60467, Note_on_c, 0, 72, 56
2, 60475, Note_on_c, 0, 50, 0
2, 60537, Note_on_c, 0, 72, 0
2, 60576, Note_on_c, 0, 54, 57
2, 60576, Note_on_c, 0, 76, 68
2, 60609, Note_on_c, 0, 54, 0
2, 60640, Note_on_c, 0, 76, 0
2, 60681, Note_on_c, 0, 72, 63
2, 60743, Note_on_c, 0, 72, 0
2, 60797, Note_on_c, 0, 74, 54
2, 60806, Note_on_c, 0, 47, 56
2, 60844, Note_on_c, 0, 74, 0
2, 60860, Note_on_c, 0, 47, 0
2, 60881, Note_on_c, 0, 72, 54
2, 60928, Note_on_c, 0, 72, 0
2, 60947, Note_on_c, 0, 71, 64
2, 61000, Note_on_c, 0, 71, 0
2, 61007, Note_on_c, 0, 72, 79
2, 61031, Note_on_c, 0, 50, 58
2, 61058, Note_on_c, 0, 71, 63
2, 61058, Note_on_c, 0, 72, 0
2, 61072, Note_on_c, 0, 50, 0
2, 61117, Note_on_c, 0, 71, 0
2, 61134, Note_on_c, 0, 69, 75
2, 61231, Note_on_c, 0, 69, 0
2, 61250, Note_on_c, 0, 43, 56
2, 61252, Note_on_c, 0, 71, 74
2, 61286, Note_on_c, 0, 71, 0
2, 61360, Note_on_c, 0, 43, 0
2, 61370, Note_on_c, 0, 45, 60
2, 61470, Note_on_c, 0, 45, 0
2, 61487, Note_on_c, 0, 47, 60
2, 61491, Note_on_c, 0, 79, 76
2, 61525, Note_on_c, 0, 79, 0
2, 61574, Note_on_c, 0, 47, 0
2, 61608, Note_on_c, 0, 48, 56
2, 61684, Note_on_c, 0, 48, 0
2, 61723, Note_on_c, 0, 69, 67
2, 61729, Note_on_c, 0, 50, 57
2, 61965, Note_on_c, 0, 50, 0
2, 61990, Note_on_c, 0, 69, 0
2, 61997, Note_on_c, 0, 79, 65
2, 62001, Note_on_c, 0, 38, 49
2, 62054, Note_on_c, 0, 79, 0
2, 62065, Note_on_c, 0, 78, 64
2, 62107, Note_on_c, 0, 78, 0
2, 62120, Note_on_c, 0, 76, 64
2, 62199, Note_on_c, 0, 78, 80
2, 62207, Note_on_c, 0, 76, 0
2, 62249, Note_on_c, 0, 78, 0
2, 62290, Note_on_c, 0, 38, 0
2, 62298, Note_on_c, 0, 67, 68
2, 62302, Note_on_c, 0, 40, 57
2, 62418, Note_on_c, 0, 40, 0
2, 62420, Note_on_c, 0, 69, 76
2, 62424, Note_on_c, 0, 67, 0
2, 62532, Note_on_c, 0, 70, 81
2, 62556, Note_on_c, 0, 69, 0
2, 62596, Note_on_c, 0, 55, 17
2, 62618, Note_on_c, 0, 70, 0
2, 62639, Note_on_c, 0, 67, 78
2, 62658, Note_on_c, 0, 55, 0
2, 62739, Note_on_c, 0, 67, 0
2, 62764, Note_on_c, 0, 73, 81
2, 62773, Note_on_c, 0, 58, 61
2, 62837, Note_on_c, 0, 73, 0
2, 62867, Note_on_c, 0, 67, 78
2, 62955, Note_on_c, 0, 58, 0
2, 62964, Note_on_c, 0, 67, 0
2, 62990, Note_on_c, 0, 74, 78
2, 63018, Note_on_c, 0, 50, 65
2, 63076, Note_on_c, 0, 74, 0
2, 63094, Note_on_c, 0, 67, 76
2, 63171, Note_on_c, 0, 67, 0
2, 63218, Note_on_c, 0, 76, 76
2, 63235, Note_on_c, 0, 49, 62
2, 63254, Note_on_c, 0, 50, 0
2, 63290, Note_on_c, 0, 76, 0
2, 63317, Note_on_c, 0, 67, 66
2, 63404, Note_on_c, 0, 67, 0
2, 63441, Note_on_c, 0, 66, 69
2, 63457, Note_on_c, 0, 45, 62
2, 63467, Note_on_c, 0, 49, 0
2, 63491, Note_on_c, 0, 45, 0
2, 63526, Note_on_c, 0, 66, 0
2, 63548, Note_on_c, 0, 64, 74
2, 63669, Note_on_c, 0, 66, 78
2, 63694, Note_on_c, 0, 64, 0
2, 63722, Note_on_c, 0, 50, 16
2, 63751, Note_on_c, 0, 52, 43
2, 63780, Note_on_c, 0, 69, 83
2, 63784, Note_on_c, 0, 66, 0
2, 63790, Note_on_c, 0, 52, 0
2, 63799, Note_on_c, 0, 50, 0
2, 63808, Note_on_c, 0, 54, 70
2, 63893, Note_on_c, 0, 69, 0
2, 63895, Note_on_c, 0, 74, 78
2, 63905, Note_on_c, 0, 54, 0
2, 63910, Note_on_c, 0, 57, 71
2, 63972, Note_on_c, 0, 57, 0
2, 63999, Note_on_c, 0, 60, 70
2, 64117, Note_on_c, 0, 60, 0
2, 64138, Note_on_c, 0, 59, 76
2, 64355, Note_on_c, 0, 59, 0
2, 64384, Note_on_c, 0, 72, 76
2, 64396, Note_on_c, 0, 55, 62
2, 64422, Note_on_c, 0, 55, 0
2, 64426, Note_on_c, 0, 74, 0
2, 64491, Note_on_c, 0, 72, 0
2, 64499, Note_on_c, 0, 71, 81
2, 64599, Note_on_c, 0, 71, 0
2, 64622, Note_on_c, 0, 72, 81
2, 64624, Note_on_c, 0, 62, 73
2, 64731, Note_on_c, 0, 71, 82
2, 64769, Note_on_c, 0, 72, 0
2, 64820, Note_on_c, 0, 62, 0
2, 64851, Note_on_c, 0, 69, 80
2, 64854, Note_on_c, 0, 50, 69
2, 64859, Note_on_c, 0, 71, 0
2, 64904, Note_on_c, 0, 50, 0
2, 64956, Note_on_c, 0, 69, 0
2, 64967, Note_on_c, 0, 71, 87
2, 65086, Note_on_c, 0, 71, 0
2, 65108, Note_on_c, 0, 67, 77
2, 65123, Note_on_c, 0, 55, 72
2, 65417, Note_on_c, 0, 66, 67
2, 65427, Note_on_c, 0, 43, 64
2, 65440, Note_on_c, 0, 67, 0
2, 65515, Note_on_c, 0, 55, 0
2, 65541, Note_on_c, 0, 64, 79
2, 65582, Note_on_c, 0, 43, 0
2, 65594, Note_on_c, 0, 66, 0
2, 65673, Note_on_c, 0, 62, 74
2, 65695, Note_on_c, 0, 47, 64
2, 65717, Note_on_c, 0, 64, 0
2, 65746, Note_on_c, 0, 47, 0
2, 65775, Note_on_c, 0, 62, 0
2, 65807, Note_on_c, 0, 60, 75
2, 65951, Note_on_c, 0, 50, 66
2, 65954, Note_on_c, 0, 59, 75
2, 65955, Note_on_c, 0, 60, 0
2, 65987, Note_on_c, 0, 50, 0
2, 66087, Note_on_c, 0, 57, 72
2, 66090, Note_on_c, 0, 59, 0
2, 66348, Note_on_c, 0, 55, 61
2, 66411, Note_on_c, 0, 54, 75
2, 66433, Note_on_c, 0, 55, 0
2, 66457, Note_on_c, 0, 57, 0
2, 66482, Note_on_c, 0, 55, 65
2, 66485, Note_on_c, 0, 54, 0
2, 67773, Note_on_c, 0, 55, 0
2, 68989,End_track
0, 0, End_of_file
