0, 0, Header, 1, 2, 480
1, 0, Start_track
1, 0, Tempo, 500000
1, 0, Time_signature, 4, 2, 24, 8
1, 1, End_track
2,0,Start_track
2,0, Note_on_c, 0, 74, 62
2,51, Note_on_c, 0, 74, 0
2,154, Note_on_c, 0, 71, 67
2,197, Note_on_c, 0, 71, 0
2,290, Note_on_c, 0, 74, 75
2,354, Note_on_c, 0, 74, 0
2,425, Note_on_c, 0, 79, 77
2,495, Note_on_c, 0, 79, 0
2,569, Note_on_c, 0, 74, 72
2,610, Note_on_c, 0, 74, 0
2,716, Note_on_c, 0, 71, 70
2,760, Note_on_c, 0, 71, 0
2,862, Note_on_c, 0, 74, 60
2,910, Note_on_c, 0, 74, 0
2,1013, Note_on_c, 0, 67, 60
2,1061, Note_on_c, 0, 67, 0
2,1136, Note_on_c, 0, 74, 68
2,1182, Note_on_c, 0, 74, 0
2,1281, Note_on_c, 0, 71, 67
2,1336, Note_on_c, 0, 71, 0
2,1407, Note_on_c, 0, 74, 72
2,1469, Note_on_c, 0, 74, 0
2,1563, Note_on_c, 0, 76, 67
2,1672, Note_on_c, 0, 76, 0
2,1707, Note_on_c, 0, 72, 76
2,1774, Note_on_c, 0, 72, 0
2,1848, Note_on_c, 0, 69, 76
2,1901, Note_on_c, 0, 69, 0
2,1968, Note_on_c, 0, 72, 79
2,2034, Note_on_c, 0, 72, 0
2,2106, Note_on_c, 0, 66, 74
2,2162, Note_on_c, 0, 66, 0
2,2231, Note_on_c, 0, 69, 75
2,2293, Note_on_c, 0, 69, 0
2,2371, Note_on_c, 0, 74, 77
2,2488, Note_on_c, 0, 74, 0
2,2503, Note_on_c, 0, 71, 76
2,2576, Note_on_c, 0, 71, 0
2,2652, Note_on_c, 0, 67, 63
2,2696, Note_on_c, 0, 67, 0
2,2774, Note_on_c, 0, 71, 69
2,2838, Note_on_c, 0, 71, 0
2,2935, Note_on_c, 0, 64, 63
2,2984, Note_on_c, 0, 64, 0
2,3066, Note_on_c, 0, 67, 66
2,3122, Note_on_c, 0, 67, 0
2,3202, Note_on_c, 0, 72, 69
2,3320, Note_on_c, 0, 72, 0
2,3334, Note_on_c, 0, 69, 74
2,3410, Note_on_c, 0, 69, 0
2,3474, Note_on_c, 0, 66, 71
2,3532, Note_on_c, 0, 66, 0
2,3603, Note_on_c, 0, 69, 69
2,3660, Note_on_c, 0, 69, 0
2,3754, Note_on_c, 0, 62, 57
2,3821, Note_on_c, 0, 62, 0
2,3894, Note_on_c, 0, 66, 61
2,4025, Note_on_c, 0, 66, 0
2,4048, Note_on_c, 0, 71, 59
2,4192, Note_on_c, 0, 69, 67
2,4229, Note_on_c, 0, 71, 0
2,4246, Note_on_c, 0, 69, 0
2,4320, Note_on_c, 0, 67, 55
2,4376, Note_on_c, 0, 67, 0
2,4441, Note_on_c, 0, 69, 71
2,4488, Note_on_c, 0, 69, 0
2,4580, Note_on_c, 0, 71, 68
2,4632, Note_on_c, 0, 71, 0
2,4733, Note_on_c, 0, 72, 59
2,4830, Note_on_c, 0, 72, 0
2,4878, Note_on_c, 0, 74, 58
2,4978, Note_on_c, 0, 74, 0
2,5002, Note_on_c, 0, 69, 65
2,5128, Note_on_c, 0, 69, 0
2,5139, Note_on_c, 0, 71, 70
2,5213, Note_on_c, 0, 71, 0
2,5274, Note_on_c, 0, 73, 72
2,5354, Note_on_c, 0, 73, 0
2,5414, Note_on_c, 0, 74, 64
2,5501, Note_on_c, 0, 74, 0
2,5539, Note_on_c, 0, 76, 65
2,5619, Note_on_c, 0, 76, 0
2,5688, Note_on_c, 0, 78, 71
2,5830, Note_on_c, 0, 76, 69
2,5834, Note_on_c, 0, 67, 54
2,5893, Note_on_c, 0, 78, 0
2,5914, Note_on_c, 0, 76, 0
2,5919, Note_on_c, 0, 67, 0
2,5951, Note_on_c, 0, 66, 60
2,5959, Note_on_c, 0, 74, 71
2,6034, Note_on_c, 0, 74, 0
2,6061, Note_on_c, 0, 66, 0
2,6086, Note_on_c, 0, 76, 74
2,6090, Note_on_c, 0, 69, 67
2,6163, Note_on_c, 0, 76, 0
2,6191, Note_on_c, 0, 69, 0
2,6220, Note_on_c, 0, 78, 81
2,6235, Note_on_c, 0, 74, 64
2,6292, Note_on_c, 0, 78, 0
2,6325, Note_on_c, 0, 74, 0
2,6343, Note_on_c, 0, 79, 82
2,6353, Note_on_c, 0, 69, 68
2,6411, Note_on_c, 0, 69, 0
2,6436, Note_on_c, 0, 79, 0
2,6490, Note_on_c, 0, 81, 83
2,6497, Note_on_c, 0, 66, 60
2,6550, Note_on_c, 0, 66, 0
2,6640, Note_on_c, 0, 69, 74
2,6674, Note_on_c, 0, 81, 0
2,6684, Note_on_c, 0, 69, 0
2,6771, Note_on_c, 0, 62, 55
2,6822, Note_on_c, 0, 62, 0
2,6892, Note_on_c, 0, 69, 67
2,6935, Note_on_c, 0, 69, 0
2,7032, Note_on_c, 0, 66, 44
2,7039, Note_on_c, 0, 81, 72
2,7076, Note_on_c, 0, 66, 0
2,7094, Note_on_c, 0, 81, 0
2,7161, Note_on_c, 0, 69, 39
2,7199, Note_on_c, 0, 69, 0
2,7293, Note_on_c, 0, 74, 63
2,7303, Note_on_c, 0, 71, 63
2,7336, Note_on_c, 0, 74, 0
2,7339, Note_on_c, 0, 71, 0
2,7543, Note_on_c, 0, 79, 66
2,7581, Note_on_c, 0, 64, 70
2,7606, Note_on_c, 0, 79, 0
2,7617, Note_on_c, 0, 64, 0
2,7635, Note_on_c, 0, 78, 74
2,7679, Note_on_c, 0, 67, 58
2,7698, Note_on_c, 0, 79, 55
2,7713, Note_on_c, 0, 67, 0
2,7738, Note_on_c, 0, 78, 0
2,7827, Note_on_c, 0, 61, 48
2,7914, Note_on_c, 0, 61, 0
2,7931, Note_on_c, 0, 63, 66
2,7999, Note_on_c, 0, 63, 0
2,8083, Note_on_c, 0, 69, 73
2,8169, Note_on_c, 0, 69, 0
2,8212, Note_on_c, 0, 66, 71
2,8277, Note_on_c, 0, 66, 0
2,8331, Note_on_c, 0, 78, 77
2,8342, Note_on_c, 0, 62, 54
2,8352, Note_on_c, 0, 79, 0
2,8397, Note_on_c, 0, 62, 0
2,8397, Note_on_c, 0, 78, 0
2,8442, Note_on_c, 0, 66, 64
2,8530, Note_on_c, 0, 66, 0
2,8585, Note_on_c, 0, 74, 78
2,8605, Note_on_c, 0, 59, 59
2,8623, Note_on_c, 0, 74, 0
2,8691, Note_on_c, 0, 59, 0
2,8706, Note_on_c, 0, 62, 65
2,8813, Note_on_c, 0, 62, 0
2,8849, Note_on_c, 0, 71, 74
2,8854, Note_on_c, 0, 67, 63
2,8904, Note_on_c, 0, 71, 0
2,8908, Note_on_c, 0, 67, 0
2,8965, Note_on_c, 0, 64, 66
2,9016, Note_on_c, 0, 64, 0
2,9117, Note_on_c, 0, 76, 74
2,9128, Note_on_c, 0, 61, 55
2,9178, Note_on_c, 0, 76, 0
2,9181, Note_on_c, 0, 74, 66
2,9202, Note_on_c, 0, 61, 0
2,9235, Note_on_c, 0, 76, 65
2,9249, Note_on_c, 0, 64, 58
2,9264, Note_on_c, 0, 74, 0
2,9307, Note_on_c, 0, 64, 0
2,9383, Note_on_c, 0, 57, 54
2,9503, Note_on_c, 0, 57, 0
2,9504, Note_on_c, 0, 61, 57
2,9618, Note_on_c, 0, 61, 0
2,9657, Note_on_c, 0, 66, 67
2,9775, Note_on_c, 0, 66, 0
2,9785, Note_on_c, 0, 79, 80
2,9810, Note_on_c, 0, 64, 69
2,9832, Note_on_c, 0, 76, 0
2,9883, Note_on_c, 0, 64, 0
2,9925, Note_on_c, 0, 78, 74
2,9944, Note_on_c, 0, 62, 69
2,9963, Note_on_c, 0, 79, 0
2,10028, Note_on_c, 0, 62, 0
2,10042, Note_on_c, 0, 64, 74
2,10043, Note_on_c, 0, 76, 74
2,10087, Note_on_c, 0, 64, 0
2,10103, Note_on_c, 0, 78, 0
2,10168, Note_on_c, 0, 66, 78
2,10182, Note_on_c, 0, 76, 0
2,10184, Note_on_c, 0, 74, 73
2,10208, Note_on_c, 0, 66, 0
2,10297, Note_on_c, 0, 74, 0
2,10304, Note_on_c, 0, 67, 73
2,10312, Note_on_c, 0, 76, 86
2,10356, Note_on_c, 0, 67, 0
2,10462, Note_on_c, 0, 69, 49
2,10462, Note_on_c, 0, 78, 77
2,10487, Note_on_c, 0, 76, 0
2,10565, Note_on_c, 0, 69, 0
2,10599, Note_on_c, 0, 81, 75
2,10601, Note_on_c, 0, 78, 0
2,10610, Note_on_c, 0, 62, 59
2,10672, Note_on_c, 0, 62, 0
2,10742, Note_on_c, 0, 79, 68
2,10742, Note_on_c, 0, 81, 0
2,10745, Note_on_c, 0, 64, 67
2,10787, Note_on_c, 0, 64, 0
2,10861, Note_on_c, 0, 79, 0
2,10881, Note_on_c, 0, 66, 63
2,10887, Note_on_c, 0, 78, 70
2,10922, Note_on_c, 0, 66, 0
2,10976, Note_on_c, 0, 78, 0
2,11015, Note_on_c, 0, 76, 65
2,11028, Note_on_c, 0, 67, 50
2,11074, Note_on_c, 0, 67, 0
2,11149, Note_on_c, 0, 78, 67
2,11153, Note_on_c, 0, 69, 58
2,11181, Note_on_c, 0, 69, 0
2,11191, Note_on_c, 0, 76, 0
2,11296, Note_on_c, 0, 79, 71
2,11308, Note_on_c, 0, 71, 65
2,11308, Note_on_c, 0, 78, 0
2,11339, Note_on_c, 0, 79, 0
2,11424, Note_on_c, 0, 71, 0
2,11425, Note_on_c, 0, 62, 64
2,11444, Note_on_c, 0, 69, 75
2,11548, Note_on_c, 0, 62, 0
2,11570, Note_on_c, 0, 59, 69
2,11570, Note_on_c, 0, 67, 69
2,11574, Note_on_c, 0, 69, 0
2,11599, Note_on_c, 0, 69, 42
2,11627, Note_on_c, 0, 69, 0
2,11638, Note_on_c, 0, 67, 0
2,11660, Note_on_c, 0, 59, 0
2,11694, Note_on_c, 0, 62, 73
2,11704, Note_on_c, 0, 69, 80
2,11759, Note_on_c, 0, 69, 0
2,11764, Note_on_c, 0, 62, 0
2,11842, Note_on_c, 0, 67, 67
2,11848, Note_on_c, 0, 71, 78
2,11882, Note_on_c, 0, 67, 0
2,11897, Note_on_c, 0, 71, 0
2,11955, Note_on_c, 0, 72, 80
2,11960, Note_on_c, 0, 62, 61
2,11999, Note_on_c, 0, 62, 0
2,11999, Note_on_c, 0, 72, 0
2,12105, Note_on_c, 0, 74, 71
2,12129, Note_on_c, 0, 59, 42
2,12165, Note_on_c, 0, 59, 0
2,12238, Note_on_c, 0, 62, 67
2,12283, Note_on_c, 0, 62, 0
2,12371, Note_on_c, 0, 74, 0
2,12387, Note_on_c, 0, 83, 82
2,12402, Note_on_c, 0, 55, 47
2,12440, Note_on_c, 0, 55, 0
2,12507, Note_on_c, 0, 62, 61
2,12549, Note_on_c, 0, 62, 0
2,12650, Note_on_c, 0, 74, 71
2,12657, Note_on_c, 0, 59, 56
2,12688, Note_on_c, 0, 74, 0
2,12705, Note_on_c, 0, 59, 0
2,12755, Note_on_c, 0, 62, 58
2,12793, Note_on_c, 0, 62, 0
2,12935, Note_on_c, 0, 72, 62
2,12942, Note_on_c, 0, 64, 66
2,12987, Note_on_c, 0, 83, 0
2,13010, Note_on_c, 0, 64, 0
2,13065, Note_on_c, 0, 76, 77
2,13085, Note_on_c, 0, 60, 57
2,13093, Note_on_c, 0, 72, 0
2,13155, Note_on_c, 0, 60, 0
2,13191, Note_on_c, 0, 76, 0
2,13202, Note_on_c, 0, 78, 81
2,13211, Note_on_c, 0, 57, 58
2,13263, Note_on_c, 0, 57, 0
2,13304, Note_on_c, 0, 78, 0
2,13320, Note_on_c, 0, 81, 79
2,13324, Note_on_c, 0, 60, 64
2,13381, Note_on_c, 0, 60, 0
2,13466, Note_on_c, 0, 72, 76
2,13476, Note_on_c, 0, 54, 53
2,13509, Note_on_c, 0, 72, 0
2,13557, Note_on_c, 0, 54, 0
2,13604, Note_on_c, 0, 57, 58
2,13709, Note_on_c, 0, 57, 0
2,13755, Note_on_c, 0, 71, 76
2,13759, Note_on_c, 0, 62, 58
2,13781, Note_on_c, 0, 81, 0
2,13834, Note_on_c, 0, 62, 0
2,13884, Note_on_c, 0, 59, 65
2,13887, Note_on_c, 0, 74, 78
2,13921, Note_on_c, 0, 71, 0
2,13940, Note_on_c, 0, 59, 0
2,14003, Note_on_c, 0, 74, 0
2,14009, Note_on_c, 0, 76, 82
2,14014, Note_on_c, 0, 55, 64
2,14066, Note_on_c, 0, 55, 0
2,14088, Note_on_c, 0, 76, 0
2,14135, Note_on_c, 0, 79, 77
2,14144, Note_on_c, 0, 59, 58
2,14188, Note_on_c, 0, 59, 0
2,14273, Note_on_c, 0, 71, 72
2,14289, Note_on_c, 0, 52, 45
2,14313, Note_on_c, 0, 71, 0
2,14378, Note_on_c, 0, 52, 0
2,14405, Note_on_c, 0, 55, 57
2,14516, Note_on_c, 0, 55, 0
2,14560, Note_on_c, 0, 69, 67
2,14563, Note_on_c, 0, 60, 57
2,14631, Note_on_c, 0, 60, 0
2,14678, Note_on_c, 0, 57, 58
2,14689, Note_on_c, 0, 72, 75
2,14707, Note_on_c, 0, 79, 0
2,14728, Note_on_c, 0, 69, 0
2,14771, Note_on_c, 0, 57, 0
2,14799, Note_on_c, 0, 72, 0
2,14819, Note_on_c, 0, 54, 53
2,14824, Note_on_c, 0, 74, 70
2,14887, Note_on_c, 0, 54, 0
2,14930, Note_on_c, 0, 74, 0
2,14949, Note_on_c, 0, 78, 65
2,14951, Note_on_c, 0, 57, 47
2,15010, Note_on_c, 0, 57, 0
2,15091, Note_on_c, 0, 50, 49
2,15096, Note_on_c, 0, 69, 66
2,15143, Note_on_c, 0, 69, 0
2,15225, Note_on_c, 0, 50, 0
2,15232, Note_on_c, 0, 54, 51
2,15348, Note_on_c, 0, 54, 0
2,15373, Note_on_c, 0, 67, 45
2,15385, Note_on_c, 0, 59, 61
2,15482, Note_on_c, 0, 59, 0
2,15508, Note_on_c, 0, 57, 61
2,15632, Note_on_c, 0, 57, 0
2,15653, Note_on_c, 0, 76, 75
2,15657, Note_on_c, 0, 55, 61
2,15668, Note_on_c, 0, 67, 0
2,15690, Note_on_c, 0, 78, 0
2,15777, Note_on_c, 0, 57, 73
2,15778, Note_on_c, 0, 55, 0
2,15884, Note_on_c, 0, 57, 0
2,15900, Note_on_c, 0, 67, 72
2,15909, Note_on_c, 0, 59, 75
2,15988, Note_on_c, 0, 67, 0
2,16028, Note_on_c, 0, 59, 0
2,16035, Note_on_c, 0, 61, 74
2,16162, Note_on_c, 0, 61, 0
2,16187, Note_on_c, 0, 62, 62
2,16192, Note_on_c, 0, 66, 70
2,16283, Note_on_c, 0, 62, 0
2,16318, Note_on_c, 0, 61, 64
2,16432, Note_on_c, 0, 61, 0
2,16437, Note_on_c, 0, 66, 0
2,16460, Note_on_c, 0, 74, 67
2,16475, Note_on_c, 0, 59, 64
2,16489, Note_on_c, 0, 76, 0
2,16592, Note_on_c, 0, 59, 0
2,16600, Note_on_c, 0, 57, 62
2,16715, Note_on_c, 0, 57, 0
2,16742, Note_on_c, 0, 55, 62
2,16744, Note_on_c, 0, 66, 61
2,16806, Note_on_c, 0, 66, 0
2,16820, Note_on_c, 0, 55, 0
2,16867, Note_on_c, 0, 54, 58
2,16986, Note_on_c, 0, 54, 0
2,16998, Note_on_c, 0, 74, 0
2,17029, Note_on_c, 0, 55, 53
2,17033, Note_on_c, 0, 64, 66
2,17102, Note_on_c, 0, 55, 0
2,17164, Note_on_c, 0, 52, 59
2,17274, Note_on_c, 0, 64, 0
2,17297, Note_on_c, 0, 52, 0
2,17316, Note_on_c, 0, 73, 55
2,17334, Note_on_c, 0, 57, 54
2,17383, Note_on_c, 0, 57, 0
2,17440, Note_on_c, 0, 73, 0
2,17444, Note_on_c, 0, 71, 67
2,17453, Note_on_c, 0, 55, 59
2,17544, Note_on_c, 0, 55, 0
2,17575, Note_on_c, 0, 54, 63
2,17581, Note_on_c, 0, 71, 0
2,17593, Note_on_c, 0, 73, 59
2,17604, Note_on_c, 0, 67, 57
2,17653, Note_on_c, 0, 67, 0
2,17695, Note_on_c, 0, 54, 0
2,17715, Note_on_c, 0, 52, 58
2,17834, Note_on_c, 0, 52, 0
2,17879, Note_on_c, 0, 50, 45
2,17879, Note_on_c, 0, 73, 0
2,17883, Note_on_c, 0, 74, 59
2,17907, Note_on_c, 0, 66, 56
2,18013, Note_on_c, 0, 50, 0
2,18037, Note_on_c, 0, 57, 64
2,18127, Note_on_c, 0, 57, 0
2,18137, Note_on_c, 0, 66, 0
2,18144, Note_on_c, 0, 54, 70
2,18167, Note_on_c, 0, 74, 0
2,18201, Note_on_c, 0, 54, 0
2,18272, Note_on_c, 0, 57, 70
2,18346, Note_on_c, 0, 57, 0
2,18424, Note_on_c, 0, 62, 58
2,18482, Note_on_c, 0, 62, 0
2,18558, Note_on_c, 0, 57, 44
2,18595, Note_on_c, 0, 57, 0
2,18688, Note_on_c, 0, 54, 50
2,18739, Note_on_c, 0, 54, 0
2,18802, Note_on_c, 0, 57, 46
2,18863, Note_on_c, 0, 57, 0
2,18943, Note_on_c, 0, 81, 76
2,18950, Note_on_c, 0, 50, 50
2,18956, Note_on_c, 0, 72, 59
2,18974, Note_on_c, 0, 81, 0
2,18980, Note_on_c, 0, 72, 0
2,19051, Note_on_c, 0, 50, 0
2,19082, Note_on_c, 0, 57, 57
2,19149, Note_on_c, 0, 57, 0
2,19229, Note_on_c, 0, 72, 72
2,19234, Note_on_c, 0, 54, 55
2,19240, Note_on_c, 0, 69, 64
2,19330, Note_on_c, 0, 54, 0
2,19367, Note_on_c, 0, 57, 63
2,19482, Note_on_c, 0, 57, 0
2,19522, Note_on_c, 0, 59, 78
2,19537, Note_on_c, 0, 72, 0
2,19563, Note_on_c, 0, 69, 0
2,19656, Note_on_c, 0, 74, 83
2,19798, Note_on_c, 0, 71, 82
2,19798, Note_on_c, 0, 74, 0
2,19810, Note_on_c, 0, 67, 74
2,19909, Note_on_c, 0, 59, 0
2,19926, Note_on_c, 0, 74, 85
2,19937, Note_on_c, 0, 71, 0
2,20063, Note_on_c, 0, 67, 0
2,20064, Note_on_c, 0, 79, 92
2,20081, Note_on_c, 0, 67, 40
2,20088, Note_on_c, 0, 74, 0
2,20124, Note_on_c, 0, 67, 0
2,20181, Note_on_c, 0, 79, 0
2,20204, Note_on_c, 0, 74, 78
2,20277, Note_on_c, 0, 74, 0
2,20341, Note_on_c, 0, 71, 77
2,20409, Note_on_c, 0, 71, 0
2,20461, Note_on_c, 0, 74, 73
2,20537, Note_on_c, 0, 74, 0
2,20606, Note_on_c, 0, 67, 67
2,20610, Note_on_c, 0, 62, 62
2,20620, Note_on_c, 0, 59, 55
2,20653, Note_on_c, 0, 62, 0
2,20664, Note_on_c, 0, 59, 0
2,20668, Note_on_c, 0, 67, 0
2,20719, Note_on_c, 0, 74, 71
2,20833, Note_on_c, 0, 74, 0
2,20878, Note_on_c, 0, 57, 60
2,20878, Note_on_c, 0, 65, 51
2,20894, Note_on_c, 0, 71, 51
2,20969, Note_on_c, 0, 65, 0
2,21013, Note_on_c, 0, 74, 67
2,21035, Note_on_c, 0, 71, 0
2,21134, Note_on_c, 0, 57, 0
2,21163, Note_on_c, 0, 56, 78
2,21284, Note_on_c, 0, 59, 85
2,21292, Note_on_c, 0, 56, 0
2,21410, Note_on_c, 0, 59, 0
2,21426, Note_on_c, 0, 56, 79
2,21430, Note_on_c, 0, 64, 81
2,21533, Note_on_c, 0, 64, 0
2,21544, Note_on_c, 0, 56, 0
2,21549, Note_on_c, 0, 59, 81
2,21572, Note_on_c, 0, 74, 0
2,21657, Note_on_c, 0, 59, 0
2,21688, Note_on_c, 0, 64, 71
2,21789, Note_on_c, 0, 64, 0
2,21815, Note_on_c, 0, 59, 64
2,21875, Note_on_c, 0, 59, 0
2,21962, Note_on_c, 0, 56, 54
2,22013, Note_on_c, 0, 56, 0
2,22086, Note_on_c, 0, 59, 58
2,22136, Note_on_c, 0, 59, 0
2,22202, Note_on_c, 0, 83, 76
2,22221, Note_on_c, 0, 52, 46
2,22222, Note_on_c, 0, 74, 40
2,22234, Note_on_c, 0, 83, 0
2,22259, Note_on_c, 0, 74, 0
2,22313, Note_on_c, 0, 52, 0
2,22346, Note_on_c, 0, 59, 52
2,22417, Note_on_c, 0, 59, 0
2,22493, Note_on_c, 0, 56, 56
2,22498, Note_on_c, 0, 71, 68
2,22505, Note_on_c, 0, 74, 68
2,22572, Note_on_c, 0, 56, 0
2,22624, Note_on_c, 0, 59, 71
2,22767, Note_on_c, 0, 59, 0
2,22769, Note_on_c, 0, 60, 69
2,22847, Note_on_c, 0, 74, 0
2,22901, Note_on_c, 0, 76, 83
2,22913, Note_on_c, 0, 71, 0
2,23041, Note_on_c, 0, 76, 0
2,23058, Note_on_c, 0, 72, 74
2,23060, Note_on_c, 0, 69, 74
2,23079, Note_on_c, 0, 74, 52
2,23117, Note_on_c, 0, 74, 0
2,23176, Note_on_c, 0, 76, 78
2,23178, Note_on_c, 0, 72, 0
2,23227, Note_on_c, 0, 60, 0
2,23250, Note_on_c, 0, 69, 0
2,23300, Note_on_c, 0, 81, 80
2,23316, Note_on_c, 0, 76, 0
2,23430, Note_on_c, 0, 81, 0
2,23452, Note_on_c, 0, 76, 61
2,23526, Note_on_c, 0, 76, 0
2,23593, Note_on_c, 0, 72, 63
2,23659, Note_on_c, 0, 72, 0
2,23717, Note_on_c, 0, 76, 67
2,23803, Note_on_c, 0, 76, 0
2,23843, Note_on_c, 0, 69, 76
2,23862, Note_on_c, 0, 54, 53
2,23873, Note_on_c, 0, 60, 46
2,23935, Note_on_c, 0, 69, 0
2,23977, Note_on_c, 0, 76, 77
2,24058, Note_on_c, 0, 76, 0
2,24106, Note_on_c, 0, 72, 75
2,24107, Note_on_c, 0, 54, 0
2,24124, Note_on_c, 0, 69, 54
2,24128, Note_on_c, 0, 52, 61
2,24140, Note_on_c, 0, 60, 0
2,24181, Note_on_c, 0, 69, 0
2,24239, Note_on_c, 0, 76, 72
2,24258, Note_on_c, 0, 72, 0
2,24373, Note_on_c, 0, 52, 0
2,24399, Note_on_c, 0, 76, 0
2,24404, Note_on_c, 0, 51, 49
2,24405, Note_on_c, 0, 78, 64
2,24483, Note_on_c, 0, 51, 0
2,24531, Note_on_c, 0, 54, 62
2,24636, Note_on_c, 0, 54, 0
2,24651, Note_on_c, 0, 78, 0
2,24660, Note_on_c, 0, 71, 61
2,24687, Note_on_c, 0, 51, 51
2,24757, Note_on_c, 0, 51, 0
2,24809, Note_on_c, 0, 54, 54
2,24838, Note_on_c, 0, 71, 0
2,24914, Note_on_c, 0, 54, 0
2,24955, Note_on_c, 0, 59, 58
2,25021, Note_on_c, 0, 59, 0
2,25085, Note_on_c, 0, 54, 50
2,25163, Note_on_c, 0, 54, 0
2,25204, Note_on_c, 0, 51, 49
2,25274, Note_on_c, 0, 51, 0
2,25323, Note_on_c, 0, 54, 60
2,25444, Note_on_c, 0, 54, 0
2,25477, Note_on_c, 0, 81, 82
2,25484, Note_on_c, 0, 47, 45
2,25494, Note_on_c, 0, 75, 68
2,25564, Note_on_c, 0, 75, 0
2,25611, Note_on_c, 0, 47, 0
2,25615, Note_on_c, 0, 54, 58
2,25720, Note_on_c, 0, 54, 0
2,25748, Note_on_c, 0, 51, 56
2,25766, Note_on_c, 0, 78, 69
2,25853, Note_on_c, 0, 51, 0
2,25867, Note_on_c, 0, 54, 61
2,25919, Note_on_c, 0, 54, 0
2,25986, Note_on_c, 0, 81, 0
2,26029, Note_on_c, 0, 55, 61
2,26030, Note_on_c, 0, 71, 65
2,26094, Note_on_c, 0, 78, 0
2,26139, Note_on_c, 0, 55, 0
2,26161, Note_on_c, 0, 59, 68
2,26259, Note_on_c, 0, 59, 0
2,26298, Note_on_c, 0, 71, 0
2,26304, Note_on_c, 0, 55, 63
2,26319, Note_on_c, 0, 76, 69
2,26323, Note_on_c, 0, 83, 77
2,26363, Note_on_c, 0, 76, 0
2,26442, Note_on_c, 0, 59, 65
2,26451, Note_on_c, 0, 81, 84
2,26506, Note_on_c, 0, 55, 0
2,26510, Note_on_c, 0, 83, 0
2,26555, Note_on_c, 0, 59, 0
2,26578, Note_on_c, 0, 79, 82
2,26587, Note_on_c, 0, 64, 54
2,26612, Note_on_c, 0, 81, 0
2,26674, Note_on_c, 0, 64, 0
2,26680, Note_on_c, 0, 79, 0
2,26705, Note_on_c, 0, 78, 77
2,26721, Note_on_c, 0, 75, 64
2,26724, Note_on_c, 0, 59, 51
2,26769, Note_on_c, 0, 75, 0
2,26801, Note_on_c, 0, 78, 0
2,26834, Note_on_c, 0, 59, 0
2,26859, Note_on_c, 0, 76, 75
2,26867, Note_on_c, 0, 55, 50
2,26936, Note_on_c, 0, 55, 0
2,26977, Note_on_c, 0, 78, 78
2,26989, Note_on_c, 0, 59, 64
2,26997, Note_on_c, 0, 76, 0
2,27059, Note_on_c, 0, 59, 0
2,27120, Note_on_c, 0, 79, 72
2,27132, Note_on_c, 0, 78, 0
2,27163, Note_on_c, 0, 52, 23
2,27236, Note_on_c, 0, 52, 0
2,27268, Note_on_c, 0, 59, 53
2,27321, Note_on_c, 0, 59, 0
2,27386, Note_on_c, 0, 55, 59
2,27397, Note_on_c, 0, 71, 71
2,27441, Note_on_c, 0, 71, 0
2,27452, Note_on_c, 0, 55, 0
2,27507, Note_on_c, 0, 59, 60
2,27560, Note_on_c, 0, 59, 0
2,27682, Note_on_c, 0, 69, 69
2,27683, Note_on_c, 0, 79, 0
2,27702, Note_on_c, 0, 60, 59
2,27779, Note_on_c, 0, 60, 0
2,27820, Note_on_c, 0, 57, 61
2,27823, Note_on_c, 0, 72, 75
2,27881, Note_on_c, 0, 69, 0
2,27928, Note_on_c, 0, 57, 0
2,27943, Note_on_c, 0, 72, 0
2,27947, Note_on_c, 0, 54, 60
2,27950, Note_on_c, 0, 74, 74
2,28047, Note_on_c, 0, 54, 0
2,28078, Note_on_c, 0, 74, 0
2,28079, Note_on_c, 0, 78, 75
2,28085, Note_on_c, 0, 57, 56
2,28146, Note_on_c, 0, 57, 0
2,28209, Note_on_c, 0, 69, 77
2,28214, Note_on_c, 0, 50, 63
2,28252, Note_on_c, 0, 69, 0
2,28333, Note_on_c, 0, 54, 64
2,28468, Note_on_c, 0, 54, 0
2,28492, Note_on_c, 0, 67, 70
2,28493, Note_on_c, 0, 78, 0
2,28499, Note_on_c, 0, 59, 66
2,28517, Note_on_c, 0, 50, 0
2,28604, Note_on_c, 0, 59, 0
2,28616, Note_on_c, 0, 55, 67
2,28622, Note_on_c, 0, 67, 0
2,28624, Note_on_c, 0, 71, 81
2,28708, Note_on_c, 0, 55, 0
2,28710, Note_on_c, 0, 71, 0
2,28734, Note_on_c, 0, 52, 65
2,28738, Note_on_c, 0, 72, 82
2,28806, Note_on_c, 0, 52, 0
2,28827, Note_on_c, 0, 72, 0
2,28862, Note_on_c, 0, 55, 65
2,28864, Note_on_c, 0, 76, 73
2,28922, Note_on_c, 0, 55, 0
2,28996, Note_on_c, 0, 67, 69
2,29009, Note_on_c, 0, 48, 53
2,29062, Note_on_c, 0, 67, 0
2,29123, Note_on_c, 0, 52, 58
2,29131, Note_on_c, 0, 48, 0
2,29239, Note_on_c, 0, 52, 0
2,29292, Note_on_c, 0, 57, 57
2,29298, Note_on_c, 0, 66, 69
2,29349, Note_on_c, 0, 76, 0
2,29383, Note_on_c, 0, 57, 0
2,29419, Note_on_c, 0, 66, 0
2,29423, Note_on_c, 0, 54, 60
2,29434, Note_on_c, 0, 69, 67
2,29549, Note_on_c, 0, 54, 0
2,29552, Note_on_c, 0, 71, 68
2,29564, Note_on_c, 0, 69, 0
2,29577, Note_on_c, 0, 51, 44
2,29669, Note_on_c, 0, 75, 66
2,29681, Note_on_c, 0, 51, 0
2,29690, Note_on_c, 0, 71, 0
2,29715, Note_on_c, 0, 54, 55
2,29790, Note_on_c, 0, 54, 0
2,29815, Note_on_c, 0, 69, 65
2,29846, Note_on_c, 0, 47, 51
2,29878, Note_on_c, 0, 75, 0
2,29959, Note_on_c, 0, 47, 0
2,29966, Note_on_c, 0, 51, 48
2,30056, Note_on_c, 0, 51, 0
2,30104, Note_on_c, 0, 55, 50
2,30151, Note_on_c, 0, 55, 0
2,30221, Note_on_c, 0, 54, 52
2,30326, Note_on_c, 0, 69, 0
2,30341, Note_on_c, 0, 54, 0
2,30359, Note_on_c, 0, 52, 60
2,30363, Note_on_c, 0, 67, 56
2,30363, Note_on_c, 0, 76, 63
2,30418, Note_on_c, 0, 67, 0
2,30456, Note_on_c, 0, 52, 0
2,30469, Note_on_c, 0, 76, 0
2,30491, Note_on_c, 0, 54, 62
2,30491, Note_on_c, 0, 75, 70
2,30575, Note_on_c, 0, 54, 0
2,30610, Note_on_c, 0, 55, 49
2,30612, Note_on_c, 0, 75, 0
2,30631, Note_on_c, 0, 76, 64
2,30700, Note_on_c, 0, 55, 0
2,30754, Note_on_c, 0, 57, 49
2,30764, Note_on_c, 0, 67, 45
2,30796, Note_on_c, 0, 67, 0
2,30824, Note_on_c, 0, 57, 0
2,30881, Note_on_c, 0, 66, 62
2,30886, Note_on_c, 0, 59, 51
2,30966, Note_on_c, 0, 59, 0
2,31026, Note_on_c, 0, 54, 48
2,31118, Note_on_c, 0, 66, 0
2,31131, Note_on_c, 0, 76, 0
2,31155, Note_on_c, 0, 54, 0
2,31169, Note_on_c, 0, 74, 63
2,31176, Note_on_c, 0, 56, 57
2,31284, Note_on_c, 0, 74, 0
2,31288, Note_on_c, 0, 73, 76
2,31302, Note_on_c, 0, 56, 0
2,31305, Note_on_c, 0, 58, 60
2,31398, Note_on_c, 0, 58, 0
2,31405, Note_on_c, 0, 73, 0
2,31418, Note_on_c, 0, 74, 74
2,31439, Note_on_c, 0, 59, 65
2,31496, Note_on_c, 0, 59, 0
2,31537, Note_on_c, 0, 74, 0
2,31539, Note_on_c, 0, 76, 80
2,31548, Note_on_c, 0, 61, 66
2,31654, Note_on_c, 0, 61, 0
2,31682, Note_on_c, 0, 78, 79
2,31691, Note_on_c, 0, 62, 59
2,31694, Note_on_c, 0, 76, 0
2,31738, Note_on_c, 0, 62, 0
2,31799, Note_on_c, 0, 61, 68
2,31810, Note_on_c, 0, 76, 85
2,31851, Note_on_c, 0, 78, 0
2,31886, Note_on_c, 0, 61, 0
2,31913, Note_on_c, 0, 76, 0
2,31934, Note_on_c, 0, 74, 81
2,31941, Note_on_c, 0, 59, 69
2,32032, Note_on_c, 0, 59, 0
2,32054, Note_on_c, 0, 74, 0
2,32064, Note_on_c, 0, 78, 87
2,32079, Note_on_c, 0, 61, 61
2,32140, Note_on_c, 0, 61, 0
2,32142, Note_on_c, 0, 78, 0
2,32192, Note_on_c, 0, 83, 78
2,32202, Note_on_c, 0, 62, 58
2,32255, Note_on_c, 0, 83, 0
2,32268, Note_on_c, 0, 62, 0
2,32323, Note_on_c, 0, 78, 81
2,32338, Note_on_c, 0, 64, 65
2,32386, Note_on_c, 0, 64, 0
2,32401, Note_on_c, 0, 78, 0
2,32464, Note_on_c, 0, 74, 72
2,32487, Note_on_c, 0, 66, 45
2,32525, Note_on_c, 0, 74, 0
2,32551, Note_on_c, 0, 66, 0
2,32587, Note_on_c, 0, 64, 60
2,32592, Note_on_c, 0, 78, 77
2,32663, Note_on_c, 0, 78, 0
2,32728, Note_on_c, 0, 71, 76
2,32746, Note_on_c, 0, 62, 72
2,32746, Note_on_c, 0, 64, 0
2,32824, Note_on_c, 0, 71, 0
2,32865, Note_on_c, 0, 78, 80
2,32942, Note_on_c, 0, 78, 0
2,33002, Note_on_c, 0, 74, 76
2,33026, Note_on_c, 0, 66, 63
2,33068, Note_on_c, 0, 66, 0
2,33075, Note_on_c, 0, 74, 0
2,33126, Note_on_c, 0, 78, 83
2,33196, Note_on_c, 0, 78, 0
2,33254, Note_on_c, 0, 62, 0
2,33294, Note_on_c, 0, 64, 75
2,33305, Note_on_c, 0, 79, 71
2,33423, Note_on_c, 0, 55, 74
2,33436, Note_on_c, 0, 76, 76
2,33463, Note_on_c, 0, 79, 0
2,33524, Note_on_c, 0, 76, 0
2,33539, Note_on_c, 0, 55, 0
2,33552, Note_on_c, 0, 64, 0
2,33553, Note_on_c, 0, 57, 65
2,33569, Note_on_c, 0, 73, 78
2,33650, Note_on_c, 0, 73, 0
2,33676, Note_on_c, 0, 76, 78
2,33681, Note_on_c, 0, 57, 0
2,33684, Note_on_c, 0, 61, 76
2,33764, Note_on_c, 0, 76, 0
2,33809, Note_on_c, 0, 64, 71
2,33814, Note_on_c, 0, 69, 79
2,33850, Note_on_c, 0, 64, 0
2,33916, Note_on_c, 0, 69, 0
2,33935, Note_on_c, 0, 73, 77
2,34019, Note_on_c, 0, 73, 0
2,34085, Note_on_c, 0, 78, 74
2,34097, Note_on_c, 0, 62, 67
2,34140, Note_on_c, 0, 78, 0
2,34152, Note_on_c, 0, 61, 0
2,34206, Note_on_c, 0, 74, 75
2,34222, Note_on_c, 0, 54, 71
2,34289, Note_on_c, 0, 74, 0
2,34343, Note_on_c, 0, 71, 78
2,34348, Note_on_c, 0, 55, 72
2,34348, Note_on_c, 0, 62, 0
2,34381, Note_on_c, 0, 54, 0
2,34411, Note_on_c, 0, 71, 0
2,34454, Note_on_c, 0, 74, 77
2,34468, Note_on_c, 0, 55, 0
2,34468, Note_on_c, 0, 59, 80
2,34543, Note_on_c, 0, 74, 0
2,34600, Note_on_c, 0, 67, 73
2,34604, Note_on_c, 0, 62, 69
2,34666, Note_on_c, 0, 62, 0
2,34689, Note_on_c, 0, 67, 0
2,34712, Note_on_c, 0, 71, 78
2,34801, Note_on_c, 0, 71, 0
2,34860, Note_on_c, 0, 76, 76
2,34892, Note_on_c, 0, 61, 67
2,34901, Note_on_c, 0, 59, 0
2,34966, Note_on_c, 0, 76, 0
2,34990, Note_on_c, 0, 73, 73
2,35007, Note_on_c, 0, 52, 54
2,35021, Note_on_c, 0, 61, 0
2,35091, Note_on_c, 0, 73, 0
2,35119, Note_on_c, 0, 52, 0
2,35120, Note_on_c, 0, 54, 70
2,35122, Note_on_c, 0, 70, 76
2,35207, Note_on_c, 0, 70, 0
2,35239, Note_on_c, 0, 73, 70
2,35241, Note_on_c, 0, 54, 0
2,35246, Note_on_c, 0, 58, 59
2,35334, Note_on_c, 0, 73, 0
2,35366, Note_on_c, 0, 61, 51
2,35383, Note_on_c, 0, 66, 65
2,35444, Note_on_c, 0, 61, 0
2,35492, Note_on_c, 0, 58, 0
2,35509, Note_on_c, 0, 66, 0
2,35509, Note_on_c, 0, 70, 67
2,35516, Note_on_c, 0, 54, 47
2,35631, Note_on_c, 0, 70, 0
2,35654, Note_on_c, 0, 74, 65
2,35661, Note_on_c, 0, 54, 0
2,35678, Note_on_c, 0, 59, 56
2,35805, Note_on_c, 0, 78, 73
2,35825, Note_on_c, 0, 74, 0
2,35887, Note_on_c, 0, 59, 0
2,35908, Note_on_c, 0, 78, 0
2,35937, Note_on_c, 0, 47, 52
2,35952, Note_on_c, 0, 71, 71
2,36048, Note_on_c, 0, 71, 0
2,36060, Note_on_c, 0, 74, 66
2,36164, Note_on_c, 0, 74, 0
2,36205, Note_on_c, 0, 78, 67
2,36282, Note_on_c, 0, 47, 0
2,36308, Note_on_c, 0, 78, 0
2,36330, Note_on_c, 0, 74, 56
2,36421, Note_on_c, 0, 74, 0
2,36468, Note_on_c, 0, 71, 60
2,36539, Note_on_c, 0, 71, 0
2,36592, Note_on_c, 0, 74, 54
2,36717, Note_on_c, 0, 66, 64
2,36719, Note_on_c, 0, 50, 64
2,36743, Note_on_c, 0, 74, 0
2,36758, Note_on_c, 0, 50, 0
2,36825, Note_on_c, 0, 66, 0
2,36854, Note_on_c, 0, 71, 75
2,36977, Note_on_c, 0, 74, 73
2,36986, Note_on_c, 0, 47, 58
2,37002, Note_on_c, 0, 71, 0
2,37021, Note_on_c, 0, 47, 0
2,37113, Note_on_c, 0, 69, 82
2,37256, Note_on_c, 0, 68, 84
2,37271, Note_on_c, 0, 69, 0
2,37286, Note_on_c, 0, 52, 71
2,37392, Note_on_c, 0, 71, 83
2,37396, Note_on_c, 0, 68, 0
2,37513, Note_on_c, 0, 52, 0
2,37531, Note_on_c, 0, 64, 84
2,37535, Note_on_c, 0, 71, 0
2,37571, Note_on_c, 0, 40, 60
2,37656, Note_on_c, 0, 68, 85
2,37686, Note_on_c, 0, 64, 0
2,37720, Note_on_c, 0, 40, 0
2,37782, Note_on_c, 0, 71, 80
2,37784, Note_on_c, 0, 68, 0
2,37920, Note_on_c, 0, 68, 80
2,37927, Note_on_c, 0, 71, 0
2,37999, Note_on_c, 0, 68, 0
2,38051, Note_on_c, 0, 64, 68
2,38151, Note_on_c, 0, 64, 0
2,38178, Note_on_c, 0, 68, 63
2,38262, Note_on_c, 0, 68, 0
2,38321, Note_on_c, 0, 59, 58
2,38321, Note_on_c, 0, 64, 58
2,38324, Note_on_c, 0, 56, 53
2,38411, Note_on_c, 0, 64, 0
2,38463, Note_on_c, 0, 68, 56
2,38497, Note_on_c, 0, 56, 0
2,38544, Note_on_c, 0, 68, 0
2,38593, Note_on_c, 0, 52, 43
2,38599, Note_on_c, 0, 64, 48
2,38672, Note_on_c, 0, 52, 0
2,38685, Note_on_c, 0, 59, 0
2,38733, Note_on_c, 0, 62, 52
2,38733, Note_on_c, 0, 68, 52
2,38743, Note_on_c, 0, 64, 0
2,38793, Note_on_c, 0, 68, 0
2,38834, Note_on_c, 0, 74, 0
2,38841, Note_on_c, 0, 62, 0
2,38876, Note_on_c, 0, 60, 51
2,38941, Note_on_c, 0, 60, 0
2,38998, Note_on_c, 0, 64, 54
2,39055, Note_on_c, 0, 64, 0
2,39130, Note_on_c, 0, 72, 66
2,39135, Note_on_c, 0, 69, 66
2,39142, Note_on_c, 0, 57, 52
2,39163, Note_on_c, 0, 72, 0
2,39175, Note_on_c, 0, 69, 0
2,39253, Note_on_c, 0, 57, 0
2,39268, Note_on_c, 0, 60, 55
2,39363, Note_on_c, 0, 60, 0
2,39388, Note_on_c, 0, 72, 70
2,39399, Note_on_c, 0, 69, 61
2,39408, Note_on_c, 0, 64, 51
2,39420, Note_on_c, 0, 72, 0
2,39433, Note_on_c, 0, 69, 0
2,39479, Note_on_c, 0, 64, 0
2,39531, Note_on_c, 0, 60, 51
2,39660, Note_on_c, 0, 74, 69
2,39664, Note_on_c, 0, 60, 0
2,39674, Note_on_c, 0, 69, 56
2,39680, Note_on_c, 0, 57, 46
2,39701, Note_on_c, 0, 74, 0
2,39740, Note_on_c, 0, 72, 69
2,39746, Note_on_c, 0, 57, 0
2,39783, Note_on_c, 0, 72, 0
2,39791, Note_on_c, 0, 74, 68
2,39800, Note_on_c, 0, 60, 50
2,39840, Note_on_c, 0, 74, 0
2,39866, Note_on_c, 0, 60, 0
2,39866, Note_on_c, 0, 72, 74
2,39910, Note_on_c, 0, 72, 0
2,39913, Note_on_c, 0, 52, 52
2,39930, Note_on_c, 0, 74, 64
2,39953, Note_on_c, 0, 69, 0
2,39976, Note_on_c, 0, 74, 0
2,39983, Note_on_c, 0, 69, 31
2,40006, Note_on_c, 0, 72, 69
2,40049, Note_on_c, 0, 72, 0
2,40061, Note_on_c, 0, 52, 0
2,40063, Note_on_c, 0, 74, 62
2,40064, Note_on_c, 0, 57, 52
2,40108, Note_on_c, 0, 74, 0
2,40139, Note_on_c, 0, 72, 70
2,40168, Note_on_c, 0, 57, 0
2,40177, Note_on_c, 0, 72, 0
2,40180, Note_on_c, 0, 60, 46
2,40202, Note_on_c, 0, 74, 60
2,40253, Note_on_c, 0, 60, 0
2,40255, Note_on_c, 0, 74, 0
2,40267, Note_on_c, 0, 72, 52
2,40291, Note_on_c, 0, 55, 51
2,40359, Note_on_c, 0, 69, 0
2,40373, Note_on_c, 0, 72, 0
2,40409, Note_on_c, 0, 55, 0
2,40417, Note_on_c, 0, 54, 62
2,40523, Note_on_c, 0, 54, 0
2,40561, Note_on_c, 0, 57, 57
2,40674, Note_on_c, 0, 57, 0
2,40694, Note_on_c, 0, 72, 78
2,40705, Note_on_c, 0, 50, 55
2,40708, Note_on_c, 0, 66, 63
2,40731, Note_on_c, 0, 72, 0
2,40739, Note_on_c, 0, 66, 0
2,40831, Note_on_c, 0, 54, 61
2,40836, Note_on_c, 0, 50, 0
2,40946, Note_on_c, 0, 54, 0
2,40960, Note_on_c, 0, 72, 77
2,40966, Note_on_c, 0, 57, 61
2,40967, Note_on_c, 0, 66, 74
2,40999, Note_on_c, 0, 66, 0
2,41018, Note_on_c, 0, 72, 0
2,41091, Note_on_c, 0, 54, 58
2,41129, Note_on_c, 0, 57, 0
2,41229, Note_on_c, 0, 68, 76
2,41230, Note_on_c, 0, 54, 0
2,41237, Note_on_c, 0, 50, 56
2,41245, Note_on_c, 0, 72, 62
2,41248, Note_on_c, 0, 68, 0
2,41262, Note_on_c, 0, 67, 67
2,41306, Note_on_c, 0, 67, 0
2,41309, Note_on_c, 0, 50, 0
2,41321, Note_on_c, 0, 66, 76
2,41363, Note_on_c, 0, 54, 67
2,41393, Note_on_c, 0, 66, 0
2,41400, Note_on_c, 0, 67, 73
2,41421, Note_on_c, 0, 54, 0
2,41456, Note_on_c, 0, 67, 0
2,41462, Note_on_c, 0, 66, 69
2,41488, Note_on_c, 0, 45, 62
2,41535, Note_on_c, 0, 66, 0
2,41536, Note_on_c, 0, 67, 65
2,41592, Note_on_c, 0, 67, 0
2,41606, Note_on_c, 0, 66, 67
2,41624, Note_on_c, 0, 50, 58
2,41666, Note_on_c, 0, 66, 0
2,41668, Note_on_c, 0, 67, 61
2,41726, Note_on_c, 0, 50, 0
2,41751, Note_on_c, 0, 54, 56
2,41757, Note_on_c, 0, 66, 66
2,41771, Note_on_c, 0, 67, 0
2,41832, Note_on_c, 0, 54, 0
2,41858, Note_on_c, 0, 45, 0
2,41868, Note_on_c, 0, 48, 66
2,41969, Note_on_c, 0, 66, 0
2,41979, Note_on_c, 0, 72, 0
2,42003, Note_on_c, 0, 47, 67
2,42017, Note_on_c, 0, 48, 0
2,42099, Note_on_c, 0, 47, 0
2,42131, Note_on_c, 0, 50, 69
2,42272, Note_on_c, 0, 50, 0
2,42274, Note_on_c, 0, 43, 66
2,42287, Note_on_c, 0, 71, 71
2,42295, Note_on_c, 0, 67, 60
2,42315, Note_on_c, 0, 71, 0
2,42328, Note_on_c, 0, 67, 0
2,42407, Note_on_c, 0, 43, 0
2,42414, Note_on_c, 0, 47, 63
2,42518, Note_on_c, 0, 47, 0
2,42548, Note_on_c, 0, 67, 66
2,42548, Note_on_c, 0, 71, 80
2,42561, Note_on_c, 0, 50, 57
2,42579, Note_on_c, 0, 71, 0
2,42581, Note_on_c, 0, 67, 0
2,42643, Note_on_c, 0, 50, 0
2,42680, Note_on_c, 0, 47, 58
2,42815, Note_on_c, 0, 47, 0
2,42833, Note_on_c, 0, 43, 49
2,42842, Note_on_c, 0, 71, 72
2,42864, Note_on_c, 0, 67, 55
2,42953, Note_on_c, 0, 43, 0
2,42977, Note_on_c, 0, 47, 53
2,43070, Note_on_c, 0, 47, 0
2,43128, Note_on_c, 0, 67, 0
2,43129, Note_on_c, 0, 65, 62
2,43133, Note_on_c, 0, 38, 52
2,43239, Note_on_c, 0, 65, 0
2,43255, Note_on_c, 0, 64, 73
2,43260, Note_on_c, 0, 43, 60
2,43330, Note_on_c, 0, 38, 0
2,43330, Note_on_c, 0, 71, 0
2,43357, Note_on_c, 0, 43, 0
2,43388, Note_on_c, 0, 47, 63
2,43400, Note_on_c, 0, 62, 65
2,43420, Note_on_c, 0, 64, 0
2,43487, Note_on_c, 0, 47, 0
2,43506, Note_on_c, 0, 62, 0
2,43511, Note_on_c, 0, 41, 61
2,43525, Note_on_c, 0, 71, 75
2,43638, Note_on_c, 0, 71, 0
2,43645, Note_on_c, 0, 41, 0
2,43648, Note_on_c, 0, 40, 62
2,43663, Note_on_c, 0, 60, 68
2,43753, Note_on_c, 0, 40, 0
2,43786, Note_on_c, 0, 43, 64
2,43799, Note_on_c, 0, 71, 82
2,43879, Note_on_c, 0, 60, 0
2,43935, Note_on_c, 0, 69, 79
2,43937, Note_on_c, 0, 43, 0
2,43939, Note_on_c, 0, 36, 63
2,44022, Note_on_c, 0, 71, 0
2,44048, Note_on_c, 0, 66, 75
2,44053, Note_on_c, 0, 69, 0
2,44063, Note_on_c, 0, 36, 0
2,44073, Note_on_c, 0, 38, 70
2,44165, Note_on_c, 0, 38, 0
2,44187, Note_on_c, 0, 40, 72
2,44188, Note_on_c, 0, 67, 78
2,44210, Note_on_c, 0, 66, 0
2,44277, Note_on_c, 0, 67, 0
2,44278, Note_on_c, 0, 40, 0
2,44307, Note_on_c, 0, 64, 82
2,44308, Note_on_c, 0, 36, 69
2,44422, Note_on_c, 0, 38, 83
2,44435, Note_on_c, 0, 36, 0
2,44453, Note_on_c, 0, 66, 84
2,44467, Note_on_c, 0, 64, 0
2,44469, Note_on_c, 0, 38, 0
2,44575, Note_on_c, 0, 69, 84
2,44590, Note_on_c, 0, 66, 0
2,44697, Note_on_c, 0, 69, 0
2,44712, Note_on_c, 0, 62, 82
2,44715, Note_on_c, 0, 54, 80
2,44717, Note_on_c, 0, 50, 76
2,44749, Note_on_c, 0, 54, 0
2,44757, Note_on_c, 0, 50, 0
2,44847, Note_on_c, 0, 66, 81
2,44850, Note_on_c, 0, 62, 0
2,44951, Note_on_c, 0, 66, 0
2,44983, Note_on_c, 0, 69, 79
2,44987, Note_on_c, 0, 54, 85
2,44998, Note_on_c, 0, 50, 72
2,45019, Note_on_c, 0, 54, 0
2,45030, Note_on_c, 0, 50, 0
2,45107, Note_on_c, 0, 66, 74
2,45148, Note_on_c, 0, 69, 0
2,45265, Note_on_c, 0, 66, 0
2,45270, Note_on_c, 0, 62, 71
2,45271, Note_on_c, 0, 54, 75
2,45281, Note_on_c, 0, 50, 67
2,45312, Note_on_c, 0, 54, 0
2,45357, Note_on_c, 0, 55, 83
2,45392, Note_on_c, 0, 62, 0
2,45394, Note_on_c, 0, 66, 77
2,45410, Note_on_c, 0, 55, 0
2,45423, Note_on_c, 0, 54, 66
2,45478, Note_on_c, 0, 54, 0
2,45489, Note_on_c, 0, 55, 77
2,45551, Note_on_c, 0, 55, 0
2,45551, Note_on_c, 0, 57, 70
2,45566, Note_on_c, 0, 54, 67
2,45577, Note_on_c, 0, 66, 0
2,45609, Note_on_c, 0, 54, 0
2,45632, Note_on_c, 0, 55, 76
2,45670, Note_on_c, 0, 62, 73
2,45671, Note_on_c, 0, 57, 0
2,45682, Note_on_c, 0, 55, 0
2,45689, Note_on_c, 0, 54, 70
2,45740, Note_on_c, 0, 54, 0
2,45777, Note_on_c, 0, 55, 76
2,45818, Note_on_c, 0, 66, 79
2,45828, Note_on_c, 0, 55, 0
2,45842, Note_on_c, 0, 62, 0
2,45853, Note_on_c, 0, 54, 75
2,45900, Note_on_c, 0, 54, 0
2,45915, Note_on_c, 0, 50, 0
2,45936, Note_on_c, 0, 52, 64
2,45941, Note_on_c, 0, 55, 66
2,45958, Note_on_c, 0, 66, 0
2,45974, Note_on_c, 0, 60, 72
2,45977, Note_on_c, 0, 55, 0
2,46018, Note_on_c, 0, 52, 0
2,46033, Note_on_c, 0, 54, 73
2,46064, Note_on_c, 0, 60, 0
2,46078, Note_on_c, 0, 55, 70
2,46093, Note_on_c, 0, 54, 0
2,46096, Note_on_c, 0, 59, 85
2,46115, Note_on_c, 0, 55, 0
2,46190, Note_on_c, 0, 59, 0
2,46224, Note_on_c, 0, 62, 73
2,46353, Note_on_c, 0, 59, 78
2,46357, Note_on_c, 0, 50, 69
2,46362, Note_on_c, 0, 62, 0
2,46369, Note_on_c, 0, 55, 62
2,46397, Note_on_c, 0, 55, 0
2,46399, Note_on_c, 0, 50, 0
2,46482, Note_on_c, 0, 62, 78
2,46485, Note_on_c, 0, 59, 0
2,46612, Note_on_c, 0, 67, 74
2,46618, Note_on_c, 0, 55, 67
2,46619, Note_on_c, 0, 50, 77
2,46651, Note_on_c, 0, 50, 0
2,46652, Note_on_c, 0, 62, 0
2,46657, Note_on_c, 0, 55, 0
2,46745, Note_on_c, 0, 62, 71
2,46754, Note_on_c, 0, 67, 0
2,46810, Note_on_c, 0, 62, 0
2,46900, Note_on_c, 0, 50, 73
2,46910, Note_on_c, 0, 59, 78
2,46923, Note_on_c, 0, 55, 70
2,46938, Note_on_c, 0, 50, 0
2,46956, Note_on_c, 0, 52, 72
2,47003, Note_on_c, 0, 55, 0
2,47022, Note_on_c, 0, 52, 0
2,47028, Note_on_c, 0, 50, 69
2,47031, Note_on_c, 0, 62, 76
2,47075, Note_on_c, 0, 59, 0
2,47080, Note_on_c, 0, 50, 0
2,47101, Note_on_c, 0, 52, 77
2,47156, Note_on_c, 0, 52, 0
2,47174, Note_on_c, 0, 50, 66
2,47186, Note_on_c, 0, 55, 71
2,47228, Note_on_c, 0, 50, 0
2,47238, Note_on_c, 0, 62, 0
2,47239, Note_on_c, 0, 52, 74
2,47305, Note_on_c, 0, 50, 70
2,47306, Note_on_c, 0, 52, 0
2,47313, Note_on_c, 0, 59, 82
2,47372, Note_on_c, 0, 50, 0
2,47406, Note_on_c, 0, 52, 77
2,47428, Note_on_c, 0, 59, 0
2,47450, Note_on_c, 0, 62, 81
2,47476, Note_on_c, 0, 52, 0
2,47480, Note_on_c, 0, 49, 68
2,47547, Note_on_c, 0, 50, 78
2,47564, Note_on_c, 0, 49, 0
2,47571, Note_on_c, 0, 55, 0
2,47575, Note_on_c, 0, 59, 82
2,47586, Note_on_c, 0, 62, 0
2,47641, Note_on_c, 0, 50, 0
2,47650, Note_on_c, 0, 52, 77
2,47672, Note_on_c, 0, 59, 0
2,47711, Note_on_c, 0, 55, 82
2,47807, Note_on_c, 0, 44, 46
2,47817, Note_on_c, 0, 52, 0
2,47848, Note_on_c, 0, 58, 81
2,47871, Note_on_c, 0, 55, 0
2,47883, Note_on_c, 0, 44, 0
2,47982, Note_on_c, 0, 43, 71
2,47983, Note_on_c, 0, 46, 77
2,47983, Note_on_c, 0, 52, 84
2,47995, Note_on_c, 0, 38, 72
2,48001, Note_on_c, 0, 58, 0
2,48024, Note_on_c, 0, 46, 0
2,48028, Note_on_c, 0, 43, 0
2,48035, Note_on_c, 0, 38, 0
2,48110, Note_on_c, 0, 55, 85
2,48166, Note_on_c, 0, 52, 0
2,48264, Note_on_c, 0, 46, 80
2,48267, Note_on_c, 0, 58, 80
2,48271, Note_on_c, 0, 38, 78
2,48279, Note_on_c, 0, 55, 0
2,48283, Note_on_c, 0, 43, 55
2,48304, Note_on_c, 0, 46, 0
2,48308, Note_on_c, 0, 38, 0
2,48316, Note_on_c, 0, 43, 0
2,48364, Note_on_c, 0, 58, 0
2,48402, Note_on_c, 0, 50, 85
2,48523, Note_on_c, 0, 38, 72
2,48569, Note_on_c, 0, 38, 0
2,48578, Note_on_c, 0, 50, 0
2,48589, Note_on_c, 0, 49, 87
2,48622, Note_on_c, 0, 50, 55
2,48632, Note_on_c, 0, 48, 52
2,48635, Note_on_c, 0, 49, 0
2,48674, Note_on_c, 0, 48, 0
2,48685, Note_on_c, 0, 49, 75
2,48734, Note_on_c, 0, 50, 0
2,48735, Note_on_c, 0, 49, 0
2,48746, Note_on_c, 0, 58, 77
2,48751, Note_on_c, 0, 50, 47
2,48829, Note_on_c, 0, 50, 0
2,48836, Note_on_c, 0, 49, 71
2,48888, Note_on_c, 0, 49, 0
2,48889, Note_on_c, 0, 57, 80
2,48904, Note_on_c, 0, 50, 76
2,48956, Note_on_c, 0, 58, 0
2,48968, Note_on_c, 0, 49, 73
2,48972, Note_on_c, 0, 50, 0
2,49018, Note_on_c, 0, 49, 0
2,49028, Note_on_c, 0, 57, 0
2,49032, Note_on_c, 0, 55, 82
2,49041, Note_on_c, 0, 50, 72
2,49104, Note_on_c, 0, 50, 0
2,49115, Note_on_c, 0, 49, 56
2,49155, Note_on_c, 0, 55, 0
2,49180, Note_on_c, 0, 64, 82
2,49187, Note_on_c, 0, 49, 0
2,49198, Note_on_c, 0, 50, 66
2,49266, Note_on_c, 0, 64, 0
2,49273, Note_on_c, 0, 50, 0
2,49274, Note_on_c, 0, 49, 63
2,49312, Note_on_c, 0, 55, 75
2,49324, Note_on_c, 0, 47, 75
2,49381, Note_on_c, 0, 47, 0
2,49424, Note_on_c, 0, 49, 0
2,49504, Note_on_c, 0, 55, 0
2,49538, Note_on_c, 0, 54, 68
2,49544, Note_on_c, 0, 50, 47
2,49551, Note_on_c, 0, 38, 43
2,49605, Note_on_c, 0, 54, 0
2,49641, Note_on_c, 0, 55, 61
2,49674, Note_on_c, 0, 50, 0
2,49725, Note_on_c, 0, 54, 75
2,49736, Note_on_c, 0, 55, 0
2,49749, Note_on_c, 0, 38, 0
2,49801, Note_on_c, 0, 54, 0
2,49813, Note_on_c, 0, 52, 66
2,49887, Note_on_c, 0, 52, 0
2,49905, Note_on_c, 0, 50, 56
2,50102, Note_on_c, 0, 38, 58
2,50181, Note_on_c, 0, 38, 0
2,50193, Note_on_c, 0, 40, 62
2,50265, Note_on_c, 0, 40, 0
2,50265, Note_on_c, 0, 42, 66
2,50301, Note_on_c, 0, 42, 0
2,50311, Note_on_c, 0, 43, 66
2,50314, Note_on_c, 0, 50, 0
2,50358, Note_on_c, 0, 43, 0
2,50439, Note_on_c, 0, 45, 34
2,50449, Note_on_c, 0, 47, 21
2,50484, Note_on_c, 0, 45, 0
2,50531, Note_on_c, 0, 47, 0
2,50556, Note_on_c, 0, 48, 70
2,50596, Note_on_c, 0, 48, 0
2,50636, Note_on_c, 0, 45, 56
2,50693, Note_on_c, 0, 47, 64
2,50708, Note_on_c, 0, 45, 0
2,50782, Note_on_c, 0, 48, 69
2,50787, Note_on_c, 0, 47, 0
2,50833, Note_on_c, 0, 48, 0
2,50841, Note_on_c, 0, 50, 65
2,50874, Note_on_c, 0, 50, 0
2,50906, Note_on_c, 0, 52, 69
2,50962, Note_on_c, 0, 52, 0
2,50980, Note_on_c, 0, 54, 74
2,51056, Note_on_c, 0, 55, 76
2,51059, Note_on_c, 0, 54, 0
2,51112, Note_on_c, 0, 55, 0
2,51128, Note_on_c, 0, 57, 76
2,51185, Note_on_c, 0, 57, 0
2,51203, Note_on_c, 0, 54, 69
2,51261, Note_on_c, 0, 55, 75
2,51266, Note_on_c, 0, 54, 0
2,51326, Note_on_c, 0, 55, 0
2,51339, Note_on_c, 0, 57, 66
2,51374, Note_on_c, 0, 57, 0
2,51378, Note_on_c, 0, 59, 72
2,51442, Note_on_c, 0, 59, 0
2,51466, Note_on_c, 0, 61, 69
2,51494, Note_on_c, 0, 61, 0
2,51532, Note_on_c, 0, 62, 73
2,51602, Note_on_c, 0, 62, 0
2,51609, Note_on_c, 0, 64, 73
2,51681, Note_on_c, 0, 64, 0
2,51697, Note_on_c, 0, 50, 80
2,51705, Note_on_c, 0, 65, 61
2,51741, Note_on_c, 0, 65, 0
2,51758, Note_on_c, 0, 62, 75
2,51835, Note_on_c, 0, 62, 0
2,51843, Note_on_c, 0, 64, 75
2,51913, Note_on_c, 0, 64, 0
2,51923, Note_on_c, 0, 66, 76
2,51965, Note_on_c, 0, 66, 0
2,51992, Note_on_c, 0, 48, 72
2,51992, Note_on_c, 0, 50, 0
2,51996, Note_on_c, 0, 67, 73
2,52007, Note_on_c, 0, 65, 63
2,52043, Note_on_c, 0, 65, 0
2,52055, Note_on_c, 0, 67, 0
2,52070, Note_on_c, 0, 69, 75
2,52089, Note_on_c, 0, 67, 53
2,52111, Note_on_c, 0, 67, 0
2,52144, Note_on_c, 0, 71, 76
2,52162, Note_on_c, 0, 69, 0
2,52212, Note_on_c, 0, 72, 82
2,52221, Note_on_c, 0, 71, 0
2,52269, Note_on_c, 0, 48, 0
2,52294, Note_on_c, 0, 47, 61
2,52306, Note_on_c, 0, 74, 82
2,52323, Note_on_c, 0, 72, 0
2,52481, Note_on_c, 0, 62, 78
2,52526, Note_on_c, 0, 62, 0
2,52611, Note_on_c, 0, 47, 0
2,52620, Note_on_c, 0, 59, 76
2,52656, Note_on_c, 0, 59, 0
2,52769, Note_on_c, 0, 62, 81
2,52812, Note_on_c, 0, 62, 0
2,52917, Note_on_c, 0, 67, 77
2,52954, Note_on_c, 0, 67, 0
2,53055, Note_on_c, 0, 62, 78
2,53094, Note_on_c, 0, 62, 0
2,53216, Note_on_c, 0, 59, 77
2,53343, Note_on_c, 0, 59, 0
2,53348, Note_on_c, 0, 62, 72
2,53399, Note_on_c, 0, 62, 0
2,53504, Note_on_c, 0, 55, 73
2,53552, Note_on_c, 0, 55, 0
2,53646, Note_on_c, 0, 62, 72
2,53691, Note_on_c, 0, 62, 0
2,53802, Note_on_c, 0, 59, 62
2,53812, Note_on_c, 0, 55, 45
2,53865, Note_on_c, 0, 55, 0
2,53897, Note_on_c, 0, 59, 0
2,53917, Note_on_c, 0, 62, 69
2,53999, Note_on_c, 0, 74, 0
2,54023, Note_on_c, 0, 62, 0
2,54077, Note_on_c, 0, 48, 65
2,54096, Note_on_c, 0, 64, 72
2,54192, Note_on_c, 0, 64, 0
2,54224, Note_on_c, 0, 60, 75
2,54345, Note_on_c, 0, 60, 0
2,54381, Note_on_c, 0, 72, 86
2,54384, Note_on_c, 0, 48, 0
2,54406, Note_on_c, 0, 57, 52
2,54441, Note_on_c, 0, 57, 0
2,54531, Note_on_c, 0, 60, 64
2,54569, Note_on_c, 0, 60, 0
2,54692, Note_on_c, 0, 54, 77
2,54723, Note_on_c, 0, 45, 53
2,54771, Note_on_c, 0, 45, 0
2,54780, Note_on_c, 0, 54, 0
2,54823, Note_on_c, 0, 57, 61
2,54824, Note_on_c, 0, 72, 0
2,54961, Note_on_c, 0, 62, 70
2,54986, Note_on_c, 0, 47, 61
2,54986, Note_on_c, 0, 57, 0
2,55098, Note_on_c, 0, 62, 0
2,55104, Note_on_c, 0, 59, 83
2,55215, Note_on_c, 0, 59, 0
2,55256, Note_on_c, 0, 47, 0
2,55267, Note_on_c, 0, 71, 83
2,55284, Note_on_c, 0, 55, 54
2,55335, Note_on_c, 0, 55, 0
2,55410, Note_on_c, 0, 59, 71
2,55448, Note_on_c, 0, 59, 0
2,55578, Note_on_c, 0, 43, 50
2,55595, Note_on_c, 0, 52, 41
2,55632, Note_on_c, 0, 43, 0
2,55669, Note_on_c, 0, 52, 0
2,55710, Note_on_c, 0, 55, 59
2,55778, Note_on_c, 0, 55, 0
2,55866, Note_on_c, 0, 45, 52
2,55870, Note_on_c, 0, 71, 0
2,55874, Note_on_c, 0, 60, 36
2,55922, Note_on_c, 0, 60, 0
2,55970, Note_on_c, 0, 45, 0
2,56008, Note_on_c, 0, 57, 59
2,56146, Note_on_c, 0, 57, 0
2,56157, Note_on_c, 0, 69, 76
2,56178, Note_on_c, 0, 54, 57
2,56223, Note_on_c, 0, 69, 0
2,56256, Note_on_c, 0, 54, 0
2,56293, Note_on_c, 0, 72, 81
2,56300, Note_on_c, 0, 57, 62
2,56338, Note_on_c, 0, 72, 0
2,56389, Note_on_c, 0, 57, 0
2,56445, Note_on_c, 0, 78, 83
2,56447, Note_on_c, 0, 54, 51
2,56458, Note_on_c, 0, 50, 49
2,56509, Note_on_c, 0, 78, 0
2,56559, Note_on_c, 0, 50, 0
2,56577, Note_on_c, 0, 54, 0
2,56594, Note_on_c, 0, 57, 58
2,56603, Note_on_c, 0, 81, 75
2,56748, Note_on_c, 0, 57, 0
2,56778, Note_on_c, 0, 59, 64
2,56799, Note_on_c, 0, 55, 50
2,56954, Note_on_c, 0, 79, 82
2,57013, Note_on_c, 0, 81, 0
2,57134, Note_on_c, 0, 57, 65
2,57137, Note_on_c, 0, 60, 72
2,57142, Note_on_c, 0, 59, 0
2,57186, Note_on_c, 0, 55, 0
2,57295, Note_on_c, 0, 78, 85
2,57298, Note_on_c, 0, 79, 0
2,57536, Note_on_c, 0, 60, 0
2,57546, Note_on_c, 0, 62, 49
2,57550, Note_on_c, 0, 59, 46
2,57560, Note_on_c, 0, 79, 70
2,57568, Note_on_c, 0, 57, 0
2,57594, Note_on_c, 0, 78, 0
2,57776, Note_on_c, 0, 78, 74
2,57786, Note_on_c, 0, 79, 0
2,57845, Note_on_c, 0, 62, 0
2,57846, Note_on_c, 0, 78, 0
2,57854, Note_on_c, 0, 76, 76
2,57893, Note_on_c, 0, 59, 0
2,57937, Note_on_c, 0, 74, 74
2,57937, Note_on_c, 0, 76, 0
2,57983, Note_on_c, 0, 74, 0
2,58002, Note_on_c, 0, 72, 79
2,58055, Note_on_c, 0, 72, 0
2,58076, Note_on_c, 0, 71, 86
2,58152, Note_on_c, 0, 71, 0
2,58155, Note_on_c, 0, 69, 79
2,58218, Note_on_c, 0, 69, 0
2,58226, Note_on_c, 0, 67, 74
2,58277, Note_on_c, 0, 48, 57
2,58281, Note_on_c, 0, 59, 63
2,58326, Note_on_c, 0, 71, 79
2,58330, Note_on_c, 0, 67, 0
2,58415, Note_on_c, 0, 71, 0
2,58418, Note_on_c, 0, 69, 76
2,58424, Note_on_c, 0, 59, 0
2,58465, Note_on_c, 0, 69, 0
2,58492, Note_on_c, 0, 67, 66
2,58594, Note_on_c, 0, 67, 0
2,58595, Note_on_c, 0, 48, 0
2,58600, Note_on_c, 0, 66, 70
2,58613, Note_on_c, 0, 50, 54
2,58617, Note_on_c, 0, 57, 55
2,58703, Note_on_c, 0, 64, 67
2,58731, Note_on_c, 0, 66, 0
2,58772, Note_on_c, 0, 57, 0
2,58805, Note_on_c, 0, 62, 67
2,58818, Note_on_c, 0, 64, 0
2,58888, Note_on_c, 0, 62, 0
2,58906, Note_on_c, 0, 60, 71
2,59065, Note_on_c, 0, 43, 48
2,59096, Note_on_c, 0, 60, 0
2,59140, Note_on_c, 0, 55, 56
2,59183, Note_on_c, 0, 50, 0
2,59196, Note_on_c, 0, 60, 65
2,60049, Note_on_c, 0, 59, 56
2,60175, Note_on_c, 0, 60, 0
2,62624, Note_on_c, 0, 55, 0
2,62788, Note_on_c, 0, 59, 0
2,62792, Note_on_c, 0, 43, 0
2,62793, End_track
0, 0, End_of_file
