0, 0, Header, 1, 2, 384
1, 0, Start_track
1, 0, Tempo, 500000
1, 0, Time_signature, 4, 2, 24, 8
1, 1, End_track
2, 0, Start_track
2, 0, Title_t," ""Huang04-07.MID"""
2, 0, Program_c, 0, 0
2, 0, Control_c, 0, 64, 0
2, 806, Note_on_c, 0, 43, 99
2, 1428, Note_on_c, 0, 67, 88
2, 1519, Note_on_c, 0, 67, 0
2, 1527, Note_on_c, 0, 62, 89
2, 1658, Control_c, 0, 64, 13
2, 1674, Control_c, 0, 64, 33
2, 1689, Control_c, 0, 64, 42
2, 1705, Control_c, 0, 64, 50
2, 1720, Control_c, 0, 64, 55
2, 1735, Control_c, 0, 64, 60
2, 1750, Control_c, 0, 64, 63
2, 1765, Control_c, 0, 64, 65
2, 1780, Control_c, 0, 64, 67
2, 1796, Control_c, 0, 64, 70
2, 1811, Control_c, 0, 64, 74
2, 1826, Control_c, 0, 64, 77
2, 1841, Control_c, 0, 64, 79
2, 1856, Control_c, 0, 64, 81
2, 1872, Control_c, 0, 64, 83
2, 1886, Control_c, 0, 64, 84
2, 1901, Control_c, 0, 64, 84
2, 1917, Control_c, 0, 64, 85
2, 1932, Control_c, 0, 64, 85
2, 1964, Control_c, 0, 64, 86
2, 2065, Note_on_c, 0, 65, 80
2, 2075, Note_on_c, 0, 62, 0
2, 2116, Control_c, 0, 64, 84
2, 2138, Control_c, 0, 64, 81
2, 2154, Control_c, 0, 64, 76
2, 2169, Control_c, 0, 64, 69
2, 2177, Note_on_c, 0, 63, 81
2, 2178, Note_on_c, 0, 65, 0
2, 2185, Control_c, 0, 64, 58
2, 2199, Control_c, 0, 64, 0
2, 2728, Note_on_c, 0, 58, 67
2, 2820, Note_on_c, 0, 58, 0
2, 2833, Note_on_c, 0, 57, 63
2, 3043, Control_c, 0, 64, 41
2, 3058, Control_c, 0, 64, 54
2, 3074, Control_c, 0, 64, 59
2, 3089, Control_c, 0, 64, 62
2, 3105, Control_c, 0, 64, 64
2, 3119, Control_c, 0, 64, 67
2, 3134, Control_c, 0, 64, 70
2, 3150, Control_c, 0, 64, 73
2, 3164, Control_c, 0, 64, 75
2, 3179, Control_c, 0, 64, 76
2, 3195, Control_c, 0, 64, 77
2, 3210, Control_c, 0, 64, 78
2, 3226, Control_c, 0, 64, 79
2, 3255, Control_c, 0, 64, 79
2, 3387, Note_on_c, 0, 60, 70
2, 3394, Note_on_c, 0, 57, 0
2, 3461, Note_on_c, 0, 60, 0
2, 3484, Control_c, 0, 64, 79
2, 3484, Note_on_c, 0, 54, 80
2, 3498, Note_on_c, 0, 63, 0
2, 3499, Control_c, 0, 64, 77
2, 3514, Control_c, 0, 64, 73
2, 3529, Control_c, 0, 64, 66
2, 3545, Control_c, 0, 64, 47
2, 3560, Control_c, 0, 64, 0
2, 3621, Control_c, 0, 64, 10
2, 3637, Control_c, 0, 64, 52
2, 3652, Control_c, 0, 64, 60
2, 3674, Control_c, 0, 64, 62
2, 3689, Control_c, 0, 64, 64
2, 3705, Control_c, 0, 64, 66
2, 3720, Control_c, 0, 64, 68
2, 3735, Control_c, 0, 64, 71
2, 3750, Control_c, 0, 64, 74
2, 3765, Control_c, 0, 64, 77
2, 3780, Control_c, 0, 64, 79
2, 3796, Control_c, 0, 64, 80
2, 3811, Control_c, 0, 64, 81
2, 3827, Control_c, 0, 64, 81
2, 3842, Control_c, 0, 64, 82
2, 3873, Control_c, 0, 64, 82
2, 3887, Control_c, 0, 64, 83
2, 3918, Control_c, 0, 64, 83
2, 3979, Note_on_c, 0, 63, 62
2, 4011, Note_on_c, 0, 63, 0
2, 4030, Note_on_c, 0, 62, 65
2, 4066, Note_on_c, 0, 62, 0
2, 4083, Note_on_c, 0, 63, 74
2, 4084, Control_c, 0, 64, 82
2, 4099, Control_c, 0, 64, 79
2, 4115, Control_c, 0, 64, 74
2, 4129, Control_c, 0, 64, 66
2, 4141, Note_on_c, 0, 62, 81
2, 4145, Control_c, 0, 64, 39
2, 4157, Note_on_c, 0, 63, 0
2, 4160, Control_c, 0, 64, 0
2, 4297, Control_c, 0, 64, 24
2, 4313, Control_c, 0, 64, 55
2, 4328, Control_c, 0, 64, 61
2, 4343, Control_c, 0, 64, 64
2, 4358, Control_c, 0, 64, 66
2, 4373, Control_c, 0, 64, 67
2, 4389, Control_c, 0, 64, 70
2, 4404, Control_c, 0, 64, 73
2, 4419, Control_c, 0, 64, 76
2, 4442, Control_c, 0, 64, 79
2, 4457, Control_c, 0, 64, 80
2, 4473, Control_c, 0, 64, 81
2, 4488, Control_c, 0, 64, 82
2, 4504, Control_c, 0, 64, 82
2, 4533, Control_c, 0, 64, 83
2, 4609, Control_c, 0, 64, 83
2, 4691, Note_on_c, 0, 60, 77
2, 4696, Note_on_c, 0, 62, 0
2, 4762, Control_c, 0, 64, 83
2, 4762, Note_on_c, 0, 60, 0
2, 4776, Control_c, 0, 64, 81
2, 4792, Control_c, 0, 64, 78
2, 4799, Note_on_c, 0, 69, 84
2, 4807, Control_c, 0, 64, 72
2, 4823, Control_c, 0, 64, 63
2, 4838, Control_c, 0, 64, 0
2, 4959, Control_c, 0, 64, 20
2, 4974, Control_c, 0, 64, 55
2, 4989, Control_c, 0, 64, 62
2, 5004, Control_c, 0, 64, 65
2, 5019, Control_c, 0, 64, 68
2, 5035, Control_c, 0, 64, 71
2, 5050, Control_c, 0, 64, 75
2, 5065, Control_c, 0, 64, 79
2, 5080, Control_c, 0, 64, 81
2, 5095, Control_c, 0, 64, 83
2, 5111, Control_c, 0, 64, 85
2, 5126, Control_c, 0, 64, 87
2, 5141, Control_c, 0, 64, 88
2, 5157, Control_c, 0, 64, 89
2, 5172, Control_c, 0, 64, 90
2, 5187, Control_c, 0, 64, 91
2, 5202, Control_c, 0, 64, 91
2, 5226, Control_c, 0, 64, 92
2, 5257, Control_c, 0, 64, 92
2, 5291, Note_on_c, 0, 69, 0
2, 5303, Control_c, 0, 64, 93
2, 5306, Note_on_c, 0, 60, 68
2, 5364, Note_on_c, 0, 60, 0
2, 5414, Note_on_c, 0, 58, 73
2, 5424, Control_c, 0, 64, 92
2, 5439, Control_c, 0, 64, 91
2, 5453, Note_on_c, 0, 58, 0
2, 5454, Control_c, 0, 64, 88
2, 5465, Note_on_c, 0, 60, 76
2, 5470, Control_c, 0, 64, 81
2, 5485, Control_c, 0, 64, 71
2, 5499, Control_c, 0, 64, 46
2, 5515, Control_c, 0, 64, 0
2, 5521, Note_on_c, 0, 58, 81
2, 5523, Note_on_c, 0, 60, 0
2, 5606, Control_c, 0, 64, 24
2, 5621, Control_c, 0, 64, 55
2, 5636, Control_c, 0, 64, 61
2, 5651, Control_c, 0, 64, 64
2, 5660, Note_on_c, 0, 43, 0
2, 5667, Control_c, 0, 64, 67
2, 5682, Control_c, 0, 64, 70
2, 5697, Control_c, 0, 64, 74
2, 5707, Note_on_c, 0, 54, 0
2, 5713, Control_c, 0, 64, 78
2, 5728, Control_c, 0, 64, 81
2, 5744, Control_c, 0, 64, 82
2, 5759, Control_c, 0, 64, 83
2, 5773, Control_c, 0, 64, 84
2, 5789, Control_c, 0, 64, 84
2, 5804, Control_c, 0, 64, 85
2, 5819, Control_c, 0, 64, 86
2, 5849, Control_c, 0, 64, 86
2, 5865, Control_c, 0, 64, 87
2, 5906, Note_on_c, 0, 58, 0
2, 5955, Control_c, 0, 64, 87
2, 6097, Note_on_c, 0, 57, 78
2, 6137, Note_on_c, 0, 57, 0
2, 6146, Control_c, 0, 64, 87
2, 6161, Control_c, 0, 64, 84
2, 6176, Control_c, 0, 64, 80
2, 6184, Note_on_c, 0, 55, 75
2, 6188, Note_on_c, 0, 58, 80
2, 6192, Control_c, 0, 64, 73
2, 6206, Control_c, 0, 64, 63
2, 6221, Control_c, 0, 64, 0
2, 6772, Note_on_c, 0, 74, 82
2, 6871, Note_on_c, 0, 69, 91
2, 6883, Note_on_c, 0, 74, 0
2, 6884, Note_on_c, 0, 60, 72
2, 6886, Note_on_c, 0, 58, 0
2, 7096, Control_c, 0, 64, 48
2, 7111, Control_c, 0, 64, 58
2, 7126, Control_c, 0, 64, 63
2, 7141, Control_c, 0, 64, 66
2, 7157, Control_c, 0, 64, 70
2, 7172, Control_c, 0, 64, 74
2, 7187, Control_c, 0, 64, 78
2, 7202, Control_c, 0, 64, 80
2, 7217, Control_c, 0, 64, 81
2, 7233, Control_c, 0, 64, 82
2, 7263, Control_c, 0, 64, 82
2, 7324, Control_c, 0, 64, 83
2, 7397, Note_on_c, 0, 69, 0
2, 7403, Note_on_c, 0, 72, 80
2, 7507, Control_c, 0, 64, 81
2, 7517, Note_on_c, 0, 70, 85
2, 7529, Control_c, 0, 64, 78
2, 7532, Note_on_c, 0, 62, 77
2, 7532, Note_on_c, 0, 72, 0
2, 7545, Control_c, 0, 64, 72
2, 7548, Note_on_c, 0, 60, 0
2, 7559, Control_c, 0, 64, 65
2, 7574, Control_c, 0, 64, 39
2, 7590, Control_c, 0, 64, 0
2, 8082, Note_on_c, 0, 65, 71
2, 8174, Note_on_c, 0, 65, 0
2, 8187, Note_on_c, 0, 64, 71
2, 8736, Note_on_c, 0, 67, 68
2, 8746, Note_on_c, 0, 64, 0
2, 8826, Note_on_c, 0, 61, 76
2, 8831, Note_on_c, 0, 67, 0
2, 8865, Note_on_c, 0, 62, 0
2, 8878, Note_on_c, 0, 70, 0
2, 8920, Control_c, 0, 64, 13
2, 8935, Control_c, 0, 64, 48
2, 8951, Control_c, 0, 64, 57
2, 8966, Control_c, 0, 64, 62
2, 8981, Control_c, 0, 64, 64
2, 8996, Control_c, 0, 64, 66
2, 9011, Control_c, 0, 64, 68
2, 9027, Control_c, 0, 64, 71
2, 9048, Control_c, 0, 64, 74
2, 9064, Control_c, 0, 64, 76
2, 9079, Control_c, 0, 64, 78
2, 9094, Control_c, 0, 64, 79
2, 9110, Control_c, 0, 64, 80
2, 9125, Control_c, 0, 64, 81
2, 9156, Control_c, 0, 64, 81
2, 9170, Control_c, 0, 64, 82
2, 9186, Control_c, 0, 64, 82
2, 9216, Control_c, 0, 64, 83
2, 9261, Control_c, 0, 64, 83
2, 9343, Note_on_c, 0, 70, 65
2, 9375, Note_on_c, 0, 70, 0
2, 9406, Note_on_c, 0, 69, 64
2, 9438, Note_on_c, 0, 69, 0
2, 9457, Note_on_c, 0, 70, 78
2, 9460, Control_c, 0, 64, 83
2, 9476, Control_c, 0, 64, 81
2, 9491, Control_c, 0, 64, 75
2, 9507, Control_c, 0, 64, 66
2, 9507, Note_on_c, 0, 69, 87
2, 9521, Control_c, 0, 64, 0
2, 9531, Note_on_c, 0, 70, 0
2, 9673, Control_c, 0, 64, 42
2, 9687, Control_c, 0, 64, 60
2, 9703, Control_c, 0, 64, 64
2, 9718, Control_c, 0, 64, 66
2, 9733, Control_c, 0, 64, 68
2, 9749, Control_c, 0, 64, 71
2, 9764, Control_c, 0, 64, 75
2, 9779, Control_c, 0, 64, 78
2, 9795, Control_c, 0, 64, 79
2, 9809, Control_c, 0, 64, 80
2, 9878, Control_c, 0, 64, 80
2, 10061, Note_on_c, 0, 67, 82
2, 10067, Note_on_c, 0, 69, 0
2, 10129, Note_on_c, 0, 67, 0
2, 10152, Control_c, 0, 64, 79
2, 10167, Control_c, 0, 64, 76
2, 10170, Note_on_c, 0, 76, 89
2, 10183, Control_c, 0, 64, 68
2, 10198, Control_c, 0, 64, 42
2, 10213, Control_c, 0, 64, 0
2, 10289, Control_c, 0, 64, 48
2, 10305, Control_c, 0, 64, 63
2, 10320, Control_c, 0, 64, 65
2, 10334, Control_c, 0, 64, 68
2, 10350, Control_c, 0, 64, 70
2, 10365, Control_c, 0, 64, 73
2, 10380, Control_c, 0, 64, 77
2, 10396, Control_c, 0, 64, 79
2, 10410, Control_c, 0, 64, 81
2, 10426, Control_c, 0, 64, 81
2, 10441, Control_c, 0, 64, 82
2, 10456, Control_c, 0, 64, 83
2, 10472, Control_c, 0, 64, 84
2, 10486, Control_c, 0, 64, 85
2, 10501, Control_c, 0, 64, 85
2, 10517, Control_c, 0, 64, 86
2, 10577, Control_c, 0, 64, 86
2, 10601, Control_c, 0, 64, 87
2, 10631, Control_c, 0, 64, 87
2, 10661, Control_c, 0, 64, 88
2, 10681, Note_on_c, 0, 76, 0
2, 10691, Control_c, 0, 64, 88
2, 10693, Note_on_c, 0, 67, 78
2, 10722, Control_c, 0, 64, 89
2, 10737, Control_c, 0, 64, 89
2, 10745, Note_on_c, 0, 67, 0
2, 10752, Control_c, 0, 64, 90
2, 10782, Control_c, 0, 64, 90
2, 10797, Note_on_c, 0, 66, 74
2, 10828, Control_c, 0, 64, 90
2, 10843, Note_on_c, 0, 66, 0
2, 10849, Note_on_c, 0, 67, 79
2, 10858, Control_c, 0, 64, 89
2, 10874, Control_c, 0, 64, 86
2, 10889, Control_c, 0, 64, 81
2, 10901, Note_on_c, 0, 66, 89
2, 10905, Control_c, 0, 64, 72
2, 10916, Note_on_c, 0, 67, 0
2, 10919, Control_c, 0, 64, 53
2, 10934, Control_c, 0, 64, 0
2, 11087, Control_c, 0, 64, 56
2, 11102, Control_c, 0, 64, 63
2, 11118, Control_c, 0, 64, 66
2, 11133, Control_c, 0, 64, 68
2, 11149, Control_c, 0, 64, 71
2, 11164, Control_c, 0, 64, 75
2, 11178, Control_c, 0, 64, 79
2, 11194, Control_c, 0, 64, 82
2, 11209, Control_c, 0, 64, 83
2, 11225, Control_c, 0, 64, 84
2, 11232, Note_on_c, 0, 61, 0
2, 11240, Control_c, 0, 64, 85
2, 11244, Note_on_c, 0, 55, 0
2, 11254, Control_c, 0, 64, 86
2, 11270, Control_c, 0, 64, 87
2, 11285, Control_c, 0, 64, 88
2, 11300, Control_c, 0, 64, 89
2, 11316, Control_c, 0, 64, 89
2, 11330, Control_c, 0, 64, 90
2, 11369, Control_c, 0, 64, 90
2, 11399, Control_c, 0, 64, 91
2, 11459, Control_c, 0, 64, 91
2, 11488, Note_on_c, 0, 64, 75
2, 11497, Note_on_c, 0, 66, 0
2, 11506, Control_c, 0, 64, 92
2, 11551, Note_on_c, 0, 64, 0
2, 11581, Control_c, 0, 64, 91
2, 11596, Control_c, 0, 64, 89
2, 11597, Note_on_c, 0, 66, 86
2, 11601, Note_on_c, 0, 50, 84
2, 11602, Note_on_c, 0, 62, 81
2, 11611, Control_c, 0, 64, 84
2, 11627, Control_c, 0, 64, 75
2, 11642, Control_c, 0, 64, 62
2, 11657, Control_c, 0, 64, 0
2, 12179, Note_on_c, 0, 67, 77
2, 12262, Note_on_c, 0, 66, 0
2, 12287, Note_on_c, 0, 69, 93
2, 12324, Note_on_c, 0, 67, 0
2, 12826, Note_on_c, 0, 60, 78
2, 12910, Note_on_c, 0, 60, 0
2, 12933, Note_on_c, 0, 58, 79
2, 12959, Note_on_c, 0, 62, 0
2, 13133, Control_c, 0, 64, 48
2, 13148, Control_c, 0, 64, 59
2, 13163, Control_c, 0, 64, 63
2, 13178, Control_c, 0, 64, 66
2, 13193, Control_c, 0, 64, 69
2, 13208, Control_c, 0, 64, 73
2, 13209, Note_on_c, 0, 69, 0
2, 13224, Control_c, 0, 64, 77
2, 13239, Control_c, 0, 64, 79
2, 13254, Control_c, 0, 64, 80
2, 13269, Control_c, 0, 64, 81
2, 13315, Control_c, 0, 64, 81
2, 13496, Note_on_c, 0, 62, 81
2, 13560, Note_on_c, 0, 62, 0
2, 13574, Control_c, 0, 64, 80
2, 13589, Control_c, 0, 64, 77
2, 13595, Note_on_c, 0, 67, 86
2, 13604, Control_c, 0, 64, 68
2, 13619, Control_c, 0, 64, 32
2, 13635, Control_c, 0, 64, 0
2, 13749, Control_c, 0, 64, 53
2, 13764, Control_c, 0, 64, 61
2, 13779, Control_c, 0, 64, 64
2, 13794, Control_c, 0, 64, 67
2, 13809, Control_c, 0, 64, 70
2, 13825, Control_c, 0, 64, 74
2, 13839, Control_c, 0, 64, 77
2, 13854, Control_c, 0, 64, 79
2, 13870, Control_c, 0, 64, 79
2, 13885, Control_c, 0, 64, 80
2, 13900, Control_c, 0, 64, 80
2, 13916, Control_c, 0, 64, 81
2, 13947, Control_c, 0, 64, 81
2, 14007, Control_c, 0, 64, 82
2, 14142, Note_on_c, 0, 70, 84
2, 14191, Note_on_c, 0, 67, 0
2, 14219, Control_c, 0, 64, 81
2, 14235, Control_c, 0, 64, 78
2, 14251, Control_c, 0, 64, 73
2, 14252, Note_on_c, 0, 72, 87
2, 14265, Note_on_c, 0, 57, 64
2, 14267, Control_c, 0, 64, 65
2, 14279, Note_on_c, 0, 70, 0
2, 14281, Control_c, 0, 64, 17
2, 14294, Note_on_c, 0, 58, 0
2, 14296, Control_c, 0, 64, 0
2, 14805, Note_on_c, 0, 67, 67
2, 14857, Note_on_c, 0, 67, 0
2, 14912, Note_on_c, 0, 66, 75
2, 15080, Control_c, 0, 64, 50
2, 15095, Control_c, 0, 64, 60
2, 15110, Control_c, 0, 64, 63
2, 15126, Control_c, 0, 64, 65
2, 15141, Control_c, 0, 64, 68
2, 15157, Control_c, 0, 64, 72
2, 15172, Control_c, 0, 64, 76
2, 15194, Control_c, 0, 64, 79
2, 15209, Control_c, 0, 64, 81
2, 15240, Control_c, 0, 64, 81
2, 15281, Note_on_c, 0, 66, 0
2, 15331, Control_c, 0, 64, 82
2, 15467, Note_on_c, 0, 64, 69
2, 15512, Note_on_c, 0, 64, 0
2, 15514, Control_c, 0, 64, 81
2, 15528, Control_c, 0, 64, 79
2, 15544, Control_c, 0, 64, 75
2, 15559, Control_c, 0, 64, 67
2, 15572, Note_on_c, 0, 66, 73
2, 15574, Control_c, 0, 64, 0
2, 15695, Control_c, 0, 64, 51
2, 15711, Control_c, 0, 64, 61
2, 15726, Control_c, 0, 64, 64
2, 15740, Control_c, 0, 64, 66
2, 15756, Control_c, 0, 64, 69
2, 15771, Control_c, 0, 64, 73
2, 15772, Note_on_c, 0, 72, 0
2, 15787, Control_c, 0, 64, 76
2, 15802, Control_c, 0, 64, 78
2, 15817, Control_c, 0, 64, 79
2, 15833, Control_c, 0, 64, 80
2, 15862, Control_c, 0, 64, 80
2, 16127, Note_on_c, 0, 74, 71
2, 16205, Control_c, 0, 64, 79
2, 16220, Control_c, 0, 64, 76
2, 16236, Control_c, 0, 64, 70
2, 16239, Note_on_c, 0, 69, 80
2, 16251, Control_c, 0, 64, 56
2, 16253, Note_on_c, 0, 62, 76
2, 16253, Note_on_c, 0, 74, 0
2, 16267, Control_c, 0, 64, 0
2, 16372, Control_c, 0, 64, 46
2, 16388, Control_c, 0, 64, 60
2, 16403, Control_c, 0, 64, 63
2, 16403, Note_on_c, 0, 50, 0
2, 16418, Control_c, 0, 64, 65
2, 16433, Control_c, 0, 64, 67
2, 16448, Control_c, 0, 64, 69
2, 16464, Control_c, 0, 64, 73
2, 16479, Control_c, 0, 64, 76
2, 16494, Control_c, 0, 64, 78
2, 16509, Control_c, 0, 64, 79
2, 16555, Control_c, 0, 64, 79
2, 16558, Note_on_c, 0, 69, 0
2, 16679, Note_on_c, 0, 66, 0
2, 16698, Note_on_c, 0, 57, 0
2, 16768, Note_on_c, 0, 62, 0
2, 16791, Note_on_c, 0, 51, 60
2, 16798, Note_on_c, 0, 72, 80
2, 16896, Control_c, 0, 64, 77
2, 16899, Note_on_c, 0, 51, 0
2, 16910, Note_on_c, 0, 71, 84
2, 16912, Control_c, 0, 64, 74
2, 16916, Note_on_c, 0, 67, 70
2, 16921, Note_on_c, 0, 53, 66
2, 16927, Control_c, 0, 64, 67
2, 16927, Note_on_c, 0, 72, 0
2, 16942, Control_c, 0, 64, 51
2, 16958, Control_c, 0, 64, 0
2, 17367, Note_on_c, 0, 71, 0
2, 17465, Note_on_c, 0, 72, 82
2, 17587, Note_on_c, 0, 74, 83
2, 17591, Note_on_c, 0, 72, 0
2, 17665, Control_c, 0, 64, 29
2, 17680, Control_c, 0, 64, 50
2, 17695, Control_c, 0, 64, 57
2, 17710, Control_c, 0, 64, 60
2, 17725, Control_c, 0, 64, 63
2, 17740, Control_c, 0, 64, 65
2, 17756, Control_c, 0, 64, 67
2, 17771, Control_c, 0, 64, 69
2, 17787, Control_c, 0, 64, 71
2, 17802, Control_c, 0, 64, 73
2, 17816, Control_c, 0, 64, 75
2, 17832, Control_c, 0, 64, 76
2, 17847, Control_c, 0, 64, 76
2, 17893, Control_c, 0, 64, 77
2, 17938, Control_c, 0, 64, 77
2, 18108, Note_on_c, 0, 53, 0
2, 18128, Note_on_c, 0, 59, 76
2, 18211, Control_c, 0, 64, 77
2, 18227, Control_c, 0, 64, 74
2, 18241, Note_on_c, 0, 51, 78
2, 18241, Note_on_c, 0, 59, 0
2, 18242, Control_c, 0, 64, 69
2, 18245, Note_on_c, 0, 55, 76
2, 18252, Note_on_c, 0, 74, 0
2, 18257, Control_c, 0, 64, 52
2, 18270, Note_on_c, 0, 67, 0
2, 18280, Control_c, 0, 64, 0
2, 18388, Control_c, 0, 64, 53
2, 18403, Control_c, 0, 64, 63
2, 18417, Control_c, 0, 64, 65
2, 18433, Control_c, 0, 64, 67
2, 18448, Control_c, 0, 64, 69
2, 18464, Control_c, 0, 64, 74
2, 18479, Control_c, 0, 64, 78
2, 18493, Control_c, 0, 64, 80
2, 18509, Control_c, 0, 64, 80
2, 18554, Control_c, 0, 64, 81
2, 18585, Control_c, 0, 64, 81
2, 18829, Note_on_c, 0, 67, 80
2, 18895, Note_on_c, 0, 67, 0
2, 18930, Note_on_c, 0, 72, 86
2, 18934, Control_c, 0, 64, 79
2, 18940, Note_on_c, 0, 63, 86
2, 18949, Control_c, 0, 64, 73
2, 18965, Control_c, 0, 64, 61
2, 18980, Control_c, 0, 64, 0
2, 19080, Control_c, 0, 64, 46
2, 19094, Control_c, 0, 64, 62
2, 19110, Control_c, 0, 64, 64
2, 19125, Control_c, 0, 64, 66
2, 19140, Control_c, 0, 64, 68
2, 19156, Control_c, 0, 64, 72
2, 19171, Control_c, 0, 64, 76
2, 19187, Control_c, 0, 64, 79
2, 19202, Control_c, 0, 64, 80
2, 19227, Note_on_c, 0, 63, 0
2, 19233, Control_c, 0, 64, 80
2, 19262, Control_c, 0, 64, 81
2, 19293, Control_c, 0, 64, 81
2, 19302, Note_on_c, 0, 55, 0
2, 19395, Note_on_c, 0, 51, 0
2, 19483, Note_on_c, 0, 72, 0
2, 19526, Note_on_c, 0, 75, 81
2, 19592, Note_on_c, 0, 75, 0
2, 19630, Note_on_c, 0, 77, 93
2, 19636, Note_on_c, 0, 56, 83
2, 19642, Control_c, 0, 64, 79
2, 19645, Note_on_c, 0, 50, 76
2, 19655, Control_c, 0, 64, 73
2, 19671, Control_c, 0, 64, 61
2, 19686, Control_c, 0, 64, 0
2, 19799, Control_c, 0, 64, 46
2, 19814, Control_c, 0, 64, 59
2, 19829, Control_c, 0, 64, 63
2, 19845, Control_c, 0, 64, 65
2, 19860, Control_c, 0, 64, 66
2, 19876, Control_c, 0, 64, 69
2, 19890, Control_c, 0, 64, 73
2, 19905, Control_c, 0, 64, 76
2, 19921, Control_c, 0, 64, 78
2, 19936, Control_c, 0, 64, 79
2, 19952, Control_c, 0, 64, 79
2, 19998, Control_c, 0, 64, 80
2, 20013, Control_c, 0, 64, 81
2, 20043, Control_c, 0, 64, 81
2, 20163, Note_on_c, 0, 56, 0
2, 20196, Control_c, 0, 64, 82
2, 20225, Note_on_c, 0, 72, 84
2, 20287, Control_c, 0, 64, 81
2, 20302, Control_c, 0, 64, 79
2, 20317, Control_c, 0, 64, 73
2, 20322, Note_on_c, 0, 71, 88
2, 20322, Note_on_c, 0, 72, 0
2, 20331, Note_on_c, 0, 53, 85
2, 20332, Control_c, 0, 64, 62
2, 20347, Control_c, 0, 64, 0
2, 20468, Control_c, 0, 64, 29
2, 20484, Control_c, 0, 64, 59
2, 20498, Control_c, 0, 64, 63
2, 20513, Control_c, 0, 64, 65
2, 20528, Control_c, 0, 64, 67
2, 20543, Control_c, 0, 64, 70
2, 20566, Control_c, 0, 64, 73
2, 20581, Control_c, 0, 64, 76
2, 20597, Control_c, 0, 64, 79
2, 20612, Control_c, 0, 64, 80
2, 20627, Control_c, 0, 64, 80
2, 20673, Control_c, 0, 64, 81
2, 20718, Control_c, 0, 64, 81
2, 20847, Note_on_c, 0, 71, 0
2, 20917, Note_on_c, 0, 69, 81
2, 20970, Note_on_c, 0, 69, 0
2, 20993, Control_c, 0, 64, 78
2, 21007, Control_c, 0, 64, 70
2, 21015, Note_on_c, 0, 71, 91
2, 21022, Control_c, 0, 64, 0
2, 21024, Note_on_c, 0, 55, 85
2, 21038, Note_on_c, 0, 53, 0
2, 21135, Note_on_c, 0, 77, 0
2, 21189, Control_c, 0, 64, 46
2, 21205, Control_c, 0, 64, 60
2, 21220, Control_c, 0, 64, 65
2, 21236, Control_c, 0, 64, 68
2, 21251, Control_c, 0, 64, 71
2, 21266, Control_c, 0, 64, 75
2, 21281, Control_c, 0, 64, 77
2, 21296, Control_c, 0, 64, 78
2, 21299, Note_on_c, 0, 50, 0
2, 21312, Control_c, 0, 64, 79
2, 21327, Control_c, 0, 64, 79
2, 21348, Control_c, 0, 64, 80
2, 21364, Control_c, 0, 64, 80
2, 21379, Control_c, 0, 64, 81
2, 21410, Control_c, 0, 64, 81
2, 21472, Control_c, 0, 64, 82
2, 21651, Note_on_c, 0, 79, 93
2, 21654, Control_c, 0, 64, 82
2, 21669, Control_c, 0, 64, 83
2, 21685, Control_c, 0, 64, 84
2, 21730, Control_c, 0, 64, 84
2, 21745, Control_c, 0, 64, 79
2, 21761, Control_c, 0, 64, 64
2, 21762, Note_on_c, 0, 43, 95
2, 21763, Note_on_c, 0, 74, 90
2, 21775, Control_c, 0, 64, 0
2, 21799, Note_on_c, 0, 79, 0
2, 21897, Control_c, 0, 64, 52
2, 21913, Control_c, 0, 64, 59
2, 21927, Control_c, 0, 64, 63
2, 21942, Control_c, 0, 64, 66
2, 21958, Control_c, 0, 64, 68
2, 21972, Control_c, 0, 64, 72
2, 21987, Control_c, 0, 64, 76
2, 22003, Control_c, 0, 64, 79
2, 22018, Control_c, 0, 64, 80
2, 22035, Control_c, 0, 64, 80
2, 22049, Control_c, 0, 64, 81
2, 22064, Control_c, 0, 64, 82
2, 22080, Control_c, 0, 64, 83
2, 22095, Control_c, 0, 64, 83
2, 22098, Note_on_c, 0, 74, 0
2, 22119, Control_c, 0, 64, 84
2, 22148, Control_c, 0, 64, 84
2, 22268, Note_on_c, 0, 43, 0
2, 22300, Control_c, 0, 64, 85
2, 22410, Note_on_c, 0, 77, 86
2, 22422, Control_c, 0, 64, 85
2, 22438, Control_c, 0, 64, 86
2, 22456, Note_on_c, 0, 71, 0
2, 22512, Note_on_c, 0, 48, 101
2, 22514, Control_c, 0, 64, 83
2, 22525, Note_on_c, 0, 75, 92
2, 22529, Control_c, 0, 64, 77
2, 22544, Control_c, 0, 64, 65
2, 22547, Note_on_c, 0, 77, 0
2, 22560, Control_c, 0, 64, 0
2, 22562, Note_on_c, 0, 55, 0
2, 22606, Note_on_c, 0, 55, 46
2, 23097, Note_on_c, 0, 72, 78
2, 23210, Note_on_c, 0, 67, 84
2, 23215, Note_on_c, 0, 72, 0
2, 23305, Note_on_c, 0, 75, 0
2, 23342, Control_c, 0, 64, 32
2, 23358, Control_c, 0, 64, 55
2, 23373, Control_c, 0, 64, 61
2, 23388, Control_c, 0, 64, 64
2, 23403, Control_c, 0, 64, 66
2, 23418, Control_c, 0, 64, 68
2, 23434, Control_c, 0, 64, 72
2, 23449, Control_c, 0, 64, 76
2, 23464, Control_c, 0, 64, 79
2, 23480, Control_c, 0, 64, 80
2, 23495, Control_c, 0, 64, 81
2, 23511, Control_c, 0, 64, 82
2, 23526, Control_c, 0, 64, 83
2, 23556, Control_c, 0, 64, 83
2, 23570, Control_c, 0, 64, 84
2, 23600, Control_c, 0, 64, 84
2, 23651, Note_on_c, 0, 67, 0
2, 23755, Note_on_c, 0, 70, 81
2, 23836, Control_c, 0, 64, 84
2, 23851, Control_c, 0, 64, 81
2, 23860, Note_on_c, 0, 68, 86
2, 23866, Control_c, 0, 64, 77
2, 23881, Control_c, 0, 64, 70
2, 23890, Note_on_c, 0, 70, 0
2, 23896, Control_c, 0, 64, 60
2, 23912, Control_c, 0, 64, 0
2, 24410, Note_on_c, 0, 63, 78
2, 24505, Note_on_c, 0, 63, 0
2, 24525, Note_on_c, 0, 62, 71
2, 24682, Control_c, 0, 64, 47
2, 24697, Control_c, 0, 64, 58
2, 24712, Control_c, 0, 64, 62
2, 24727, Control_c, 0, 64, 64
2, 24742, Control_c, 0, 64, 66
2, 24758, Control_c, 0, 64, 68
2, 24773, Control_c, 0, 64, 71
2, 24788, Control_c, 0, 64, 73
2, 24803, Control_c, 0, 64, 75
2, 24818, Control_c, 0, 64, 75
2, 24834, Control_c, 0, 64, 76
2, 24848, Control_c, 0, 64, 76
2, 24864, Control_c, 0, 64, 77
2, 24879, Control_c, 0, 64, 77
2, 24911, Control_c, 0, 64, 78
2, 24987, Control_c, 0, 64, 78
2, 25038, Note_on_c, 0, 65, 66
2, 25044, Note_on_c, 0, 62, 0
2, 25139, Control_c, 0, 64, 77
2, 25155, Control_c, 0, 64, 74
2, 25155, Note_on_c, 0, 65, 0
2, 25158, Note_on_c, 0, 59, 74
2, 25177, Control_c, 0, 64, 67
2, 25193, Control_c, 0, 64, 0
2, 25203, Note_on_c, 0, 55, 0
2, 25269, Control_c, 0, 64, 49
2, 25271, Note_on_c, 0, 68, 0
2, 25283, Control_c, 0, 64, 62
2, 25298, Control_c, 0, 64, 65
2, 25314, Control_c, 0, 64, 67
2, 25329, Control_c, 0, 64, 68
2, 25345, Control_c, 0, 64, 71
2, 25359, Control_c, 0, 64, 74
2, 25374, Control_c, 0, 64, 77
2, 25390, Control_c, 0, 64, 79
2, 25405, Control_c, 0, 64, 79
2, 25420, Control_c, 0, 64, 80
2, 25496, Control_c, 0, 64, 80
2, 25677, Note_on_c, 0, 68, 80
2, 25740, Control_c, 0, 64, 80
2, 25756, Control_c, 0, 64, 78
2, 25771, Control_c, 0, 64, 73
2, 25784, Note_on_c, 0, 67, 77
2, 25787, Control_c, 0, 64, 64
2, 25797, Note_on_c, 0, 68, 0
2, 25801, Control_c, 0, 64, 0
2, 25961, Control_c, 0, 64, 21
2, 25976, Control_c, 0, 64, 50
2, 25992, Control_c, 0, 64, 56
2, 26006, Control_c, 0, 64, 60
2, 26021, Control_c, 0, 64, 62
2, 26037, Control_c, 0, 64, 64
2, 26051, Control_c, 0, 64, 65
2, 26067, Control_c, 0, 64, 67
2, 26082, Control_c, 0, 64, 70
2, 26097, Control_c, 0, 64, 72
2, 26113, Control_c, 0, 64, 74
2, 26127, Control_c, 0, 64, 76
2, 26142, Control_c, 0, 64, 77
2, 26158, Control_c, 0, 64, 77
2, 26337, Note_on_c, 0, 65, 76
2, 26341, Note_on_c, 0, 67, 0
2, 26413, Note_on_c, 0, 65, 0
2, 26447, Control_c, 0, 64, 76
2, 26453, Note_on_c, 0, 74, 78
2, 26461, Control_c, 0, 64, 72
2, 26477, Control_c, 0, 64, 65
2, 26492, Control_c, 0, 64, 0
2, 26615, Control_c, 0, 64, 48
2, 26631, Control_c, 0, 64, 59
2, 26645, Control_c, 0, 64, 62
2, 26660, Control_c, 0, 64, 65
2, 26676, Control_c, 0, 64, 67
2, 26690, Control_c, 0, 64, 69
2, 26706, Control_c, 0, 64, 72
2, 26729, Control_c, 0, 64, 74
2, 26745, Control_c, 0, 64, 76
2, 26760, Control_c, 0, 64, 76
2, 26774, Control_c, 0, 64, 77
2, 26790, Control_c, 0, 64, 77
2, 26805, Control_c, 0, 64, 78
2, 26820, Control_c, 0, 64, 78
2, 26836, Control_c, 0, 64, 79
2, 26866, Control_c, 0, 64, 80
2, 27013, Note_on_c, 0, 65, 71
2, 27074, Note_on_c, 0, 65, 0
2, 27078, Control_c, 0, 64, 78
2, 27093, Control_c, 0, 64, 73
2, 27108, Control_c, 0, 64, 61
2, 27123, Control_c, 0, 64, 0
2, 27141, Note_on_c, 0, 63, 65
2, 27215, Control_c, 0, 64, 55
2, 27230, Control_c, 0, 64, 62
2, 27245, Control_c, 0, 64, 64
2, 27260, Control_c, 0, 64, 66
2, 27276, Control_c, 0, 64, 68
2, 27276, Note_on_c, 0, 48, 0
2, 27291, Control_c, 0, 64, 71
2, 27306, Control_c, 0, 64, 74
2, 27321, Control_c, 0, 64, 77
2, 27327, Note_on_c, 0, 59, 0
2, 27336, Control_c, 0, 64, 78
2, 27353, Control_c, 0, 64, 79
2, 27368, Control_c, 0, 64, 80
2, 27384, Control_c, 0, 64, 80
2, 27396, Note_on_c, 0, 63, 0
2, 27412, Control_c, 0, 64, 81
2, 27481, Control_c, 0, 64, 81
2, 27572, Control_c, 0, 64, 82
2, 27684, Note_on_c, 0, 62, 67
2, 27717, Note_on_c, 0, 62, 0
2, 27737, Note_on_c, 0, 74, 0
2, 27769, Control_c, 0, 64, 81
2, 27785, Control_c, 0, 64, 78
2, 27791, Note_on_c, 0, 60, 62
2, 27793, Note_on_c, 0, 63, 71
2, 27800, Control_c, 0, 64, 72
2, 27814, Control_c, 0, 64, 64
2, 27830, Control_c, 0, 64, 15
2, 27845, Control_c, 0, 64, 0
2, 28355, Note_on_c, 0, 79, 80
2, 28462, Note_on_c, 0, 79, 0
2, 28466, Note_on_c, 0, 74, 70
2, 28471, Note_on_c, 0, 71, 59
2, 28487, Note_on_c, 0, 65, 56
2, 28491, Note_on_c, 0, 63, 0
2, 28674, Control_c, 0, 64, 25
2, 28689, Control_c, 0, 64, 50
2, 28696, Note_on_c, 0, 74, 0
2, 28705, Control_c, 0, 64, 58
2, 28719, Control_c, 0, 64, 62
2, 28734, Control_c, 0, 64, 65
2, 28750, Control_c, 0, 64, 67
2, 28765, Control_c, 0, 64, 69
2, 28780, Control_c, 0, 64, 73
2, 28796, Control_c, 0, 64, 75
2, 28811, Control_c, 0, 64, 77
2, 28827, Control_c, 0, 64, 78
2, 28842, Control_c, 0, 64, 79
2, 28872, Control_c, 0, 64, 79
2, 29044, Note_on_c, 0, 77, 83
2, 29077, Note_on_c, 0, 71, 0
2, 29093, Control_c, 0, 64, 78
2, 29109, Control_c, 0, 64, 76
2, 29124, Control_c, 0, 64, 72
2, 29139, Control_c, 0, 64, 64
2, 29144, Note_on_c, 0, 72, 73
2, 29148, Note_on_c, 0, 75, 74
2, 29148, Note_on_c, 0, 77, 0
2, 29154, Control_c, 0, 64, 28
2, 29164, Note_on_c, 0, 65, 0
2, 29164, Note_on_c, 0, 67, 55
2, 29169, Control_c, 0, 64, 0
2, 29288, Note_on_c, 0, 60, 0
2, 29322, Control_c, 0, 64, 57
2, 29336, Control_c, 0, 64, 63
2, 29352, Control_c, 0, 64, 65
2, 29367, Control_c, 0, 64, 67
2, 29382, Control_c, 0, 64, 70
2, 29398, Control_c, 0, 64, 75
2, 29413, Control_c, 0, 64, 79
2, 29428, Control_c, 0, 64, 80
2, 29474, Control_c, 0, 64, 81
2, 29644, Note_on_c, 0, 67, 0
2, 29680, Note_on_c, 0, 58, 72
2, 29753, Note_on_c, 0, 58, 0
2, 29762, Control_c, 0, 64, 79
2, 29777, Control_c, 0, 64, 75
2, 29791, Note_on_c, 0, 57, 77
2, 29800, Control_c, 0, 64, 67
2, 29810, Note_on_c, 0, 66, 69
2, 29816, Control_c, 0, 64, 0
2, 29901, Note_on_c, 0, 72, 0
2, 29938, Control_c, 0, 64, 50
2, 29953, Control_c, 0, 64, 60
2, 29968, Control_c, 0, 64, 63
2, 29978, Note_on_c, 0, 66, 0
2, 29984, Control_c, 0, 64, 66
2, 29998, Control_c, 0, 64, 69
2, 30013, Control_c, 0, 64, 73
2, 30029, Control_c, 0, 64, 77
2, 30044, Control_c, 0, 64, 80
2, 30059, Control_c, 0, 64, 81
2, 30074, Control_c, 0, 64, 82
2, 30105, Control_c, 0, 64, 82
2, 30196, Control_c, 0, 64, 83
2, 30336, Note_on_c, 0, 57, 0
2, 30364, Note_on_c, 0, 60, 66
2, 30364, Note_on_c, 0, 67, 73
2, 30404, Note_on_c, 0, 67, 0
2, 30428, Note_on_c, 0, 60, 0
2, 30469, Control_c, 0, 64, 82
2, 30486, Note_on_c, 0, 54, 72
2, 30493, Note_on_c, 0, 69, 77
2, 30499, Control_c, 0, 64, 80
2, 30515, Control_c, 0, 64, 75
2, 30529, Control_c, 0, 64, 64
2, 30545, Control_c, 0, 64, 0
2, 30587, Note_on_c, 0, 75, 0
2, 30752, Control_c, 0, 64, 48
2, 30766, Control_c, 0, 64, 65
2, 30781, Control_c, 0, 64, 70
2, 30797, Control_c, 0, 64, 76
2, 30812, Control_c, 0, 64, 81
2, 30828, Control_c, 0, 64, 83
2, 30842, Control_c, 0, 64, 84
2, 30873, Control_c, 0, 64, 84
2, 31045, Note_on_c, 0, 75, 81
2, 31116, Control_c, 0, 64, 84
2, 31131, Control_c, 0, 64, 81
2, 31147, Control_c, 0, 64, 77
2, 31158, Note_on_c, 0, 74, 84
2, 31161, Control_c, 0, 64, 69
2, 31163, Note_on_c, 0, 57, 65
2, 31176, Control_c, 0, 64, 20
2, 31192, Control_c, 0, 64, 0
2, 31196, Note_on_c, 0, 69, 0
2, 31197, Note_on_c, 0, 75, 0
2, 31298, Control_c, 0, 64, 49
2, 31321, Control_c, 0, 64, 60
2, 31336, Control_c, 0, 64, 64
2, 31352, Control_c, 0, 64, 67
2, 31367, Control_c, 0, 64, 71
2, 31381, Control_c, 0, 64, 77
2, 31397, Control_c, 0, 64, 80
2, 31412, Control_c, 0, 64, 81
2, 31458, Control_c, 0, 64, 81
2, 31489, Control_c, 0, 64, 82
2, 31492, Note_on_c, 0, 74, 0
2, 31505, Control_c, 0, 64, 82
2, 31535, Control_c, 0, 64, 83
2, 31710, Note_on_c, 0, 72, 82
2, 31778, Note_on_c, 0, 72, 0
2, 31807, Control_c, 0, 64, 82
2, 31822, Control_c, 0, 64, 80
2, 31835, Note_on_c, 0, 81, 92
2, 31838, Control_c, 0, 64, 76
2, 31853, Control_c, 0, 64, 70
2, 31869, Control_c, 0, 64, 54
2, 31884, Control_c, 0, 64, 0
2, 32051, Control_c, 0, 64, 55
2, 32067, Control_c, 0, 64, 62
2, 32088, Control_c, 0, 64, 64
2, 32104, Control_c, 0, 64, 66
2, 32119, Control_c, 0, 64, 69
2, 32134, Control_c, 0, 64, 73
2, 32150, Control_c, 0, 64, 77
2, 32165, Control_c, 0, 64, 79
2, 32180, Control_c, 0, 64, 80
2, 32256, Control_c, 0, 64, 80
2, 32364, Note_on_c, 0, 72, 74
2, 32440, Control_c, 0, 64, 80
2, 32454, Control_c, 0, 64, 77
2, 32470, Control_c, 0, 64, 73
2, 32485, Control_c, 0, 64, 66
2, 32488, Note_on_c, 0, 62, 66
2, 32490, Note_on_c, 0, 70, 66
2, 32490, Note_on_c, 0, 72, 0
2, 32500, Control_c, 0, 64, 37
2, 32516, Control_c, 0, 64, 0
2, 32617, Note_on_c, 0, 54, 0
2, 32637, Control_c, 0, 64, 49
2, 32651, Control_c, 0, 64, 59
2, 32667, Control_c, 0, 64, 62
2, 32682, Control_c, 0, 64, 64
2, 32697, Control_c, 0, 64, 68
2, 32713, Control_c, 0, 64, 72
2, 32727, Control_c, 0, 64, 76
2, 32742, Control_c, 0, 64, 78
2, 32758, Control_c, 0, 64, 79
2, 32773, Control_c, 0, 64, 79
2, 32806, Note_on_c, 0, 70, 0
2, 32834, Control_c, 0, 64, 80
2, 32871, Control_c, 0, 64, 80
2, 32932, Control_c, 0, 64, 81
2, 33054, Note_on_c, 0, 69, 70
2, 33078, Note_on_c, 0, 81, 0
2, 33116, Control_c, 0, 64, 80
2, 33131, Control_c, 0, 64, 80
2, 33147, Control_c, 0, 64, 76
2, 33161, Control_c, 0, 64, 70
2, 33175, Note_on_c, 0, 55, 58
2, 33176, Control_c, 0, 64, 60
2, 33179, Note_on_c, 0, 57, 0
2, 33179, Note_on_c, 0, 70, 75
2, 33181, Note_on_c, 0, 69, 0
2, 33192, Control_c, 0, 64, 0
2, 33297, Control_c, 0, 64, 39
2, 33313, Control_c, 0, 64, 54
2, 33328, Control_c, 0, 64, 58
2, 33344, Control_c, 0, 64, 62
2, 33359, Control_c, 0, 64, 64
2, 33373, Control_c, 0, 64, 67
2, 33389, Control_c, 0, 64, 71
2, 33404, Control_c, 0, 64, 75
2, 33418, Control_c, 0, 64, 77
2, 33434, Control_c, 0, 64, 78
2, 33449, Control_c, 0, 64, 78
2, 33465, Control_c, 0, 64, 79
2, 33480, Control_c, 0, 64, 79
2, 33525, Control_c, 0, 64, 80
2, 33759, Note_on_c, 0, 79, 74
2, 33821, Control_c, 0, 64, 79
2, 33837, Control_c, 0, 64, 78
2, 33852, Control_c, 0, 64, 75
2, 33868, Control_c, 0, 64, 71
2, 33877, Note_on_c, 0, 74, 72
2, 33883, Control_c, 0, 64, 63
2, 33890, Note_on_c, 0, 79, 0
2, 33895, Note_on_c, 0, 67, 65
2, 33898, Control_c, 0, 64, 18
2, 33914, Control_c, 0, 64, 0
2, 34051, Control_c, 0, 64, 38
2, 34066, Control_c, 0, 64, 54
2, 34081, Control_c, 0, 64, 60
2, 34096, Control_c, 0, 64, 63
2, 34112, Control_c, 0, 64, 66
2, 34127, Control_c, 0, 64, 68
2, 34141, Control_c, 0, 64, 70
2, 34157, Control_c, 0, 64, 72
2, 34172, Control_c, 0, 64, 73
2, 34188, Control_c, 0, 64, 74
2, 34201, Note_on_c, 0, 62, 0
2, 34203, Control_c, 0, 64, 76
2, 34217, Control_c, 0, 64, 76
2, 34233, Control_c, 0, 64, 77
2, 34262, Control_c, 0, 64, 77
2, 34422, Note_on_c, 0, 74, 0
2, 34440, Note_on_c, 0, 77, 71
2, 34513, Control_c, 0, 64, 76
2, 34528, Control_c, 0, 64, 74
2, 34544, Control_c, 0, 64, 69
2, 34553, Note_on_c, 0, 75, 76
2, 34559, Control_c, 0, 64, 57
2, 34574, Control_c, 0, 64, 0
2, 34577, Note_on_c, 0, 77, 0
2, 34680, Control_c, 0, 64, 44
2, 34695, Control_c, 0, 64, 54
2, 34711, Control_c, 0, 64, 58
2, 34727, Control_c, 0, 64, 62
2, 34742, Control_c, 0, 64, 64
2, 34758, Control_c, 0, 64, 67
2, 34772, Control_c, 0, 64, 69
2, 34788, Control_c, 0, 64, 72
2, 34803, Control_c, 0, 64, 75
2, 34818, Control_c, 0, 64, 75
2, 34829, Note_on_c, 0, 67, 0
2, 34848, Control_c, 0, 64, 76
2, 34879, Control_c, 0, 64, 76
2, 34909, Control_c, 0, 64, 77
2, 35054, Note_on_c, 0, 70, 0
2, 35093, Note_on_c, 0, 67, 73
2, 35191, Control_c, 0, 64, 75
2, 35206, Control_c, 0, 64, 71
2, 35213, Note_on_c, 0, 62, 73
2, 35218, Note_on_c, 0, 67, 0
2, 35221, Control_c, 0, 64, 64
2, 35221, Note_on_c, 0, 79, 81
2, 35236, Control_c, 0, 64, 0
2, 35327, Control_c, 0, 64, 24
2, 35342, Control_c, 0, 64, 58
2, 35358, Control_c, 0, 64, 63
2, 35373, Control_c, 0, 64, 64
2, 35389, Control_c, 0, 64, 66
2, 35396, Note_on_c, 0, 75, 0
2, 35403, Control_c, 0, 64, 69
2, 35418, Control_c, 0, 64, 72
2, 35434, Control_c, 0, 64, 75
2, 35448, Control_c, 0, 64, 77
2, 35464, Control_c, 0, 64, 77
2, 35494, Control_c, 0, 64, 78
2, 35540, Control_c, 0, 64, 78
2, 35564, Note_on_c, 0, 79, 0
2, 35587, Control_c, 0, 64, 79
2, 35724, Control_c, 0, 64, 79
2, 35763, Note_on_c, 0, 65, 78
2, 35788, Note_on_c, 0, 62, 0
2, 35881, Note_on_c, 0, 73, 85
2, 35883, Note_on_c, 0, 65, 0
2, 35886, Note_on_c, 0, 69, 76
2, 35894, Note_on_c, 0, 64, 73
2, 35906, Control_c, 0, 64, 78
2, 35928, Control_c, 0, 64, 74
2, 35944, Control_c, 0, 64, 67
2, 35959, Control_c, 0, 64, 39
2, 35974, Control_c, 0, 64, 0
2, 36026, Note_on_c, 0, 55, 0
2, 36095, Control_c, 0, 64, 46
2, 36111, Control_c, 0, 64, 57
2, 36126, Control_c, 0, 64, 61
2, 36141, Control_c, 0, 64, 64
2, 36156, Control_c, 0, 64, 66
2, 36171, Control_c, 0, 64, 68
2, 36187, Control_c, 0, 64, 72
2, 36202, Control_c, 0, 64, 75
2, 36217, Control_c, 0, 64, 78
2, 36233, Control_c, 0, 64, 79
2, 36247, Control_c, 0, 64, 79
2, 36262, Control_c, 0, 64, 80
2, 36278, Control_c, 0, 64, 81
2, 36302, Note_on_c, 0, 64, 0
2, 36338, Control_c, 0, 64, 81
2, 36444, Note_on_c, 0, 57, 81
2, 36507, Control_c, 0, 64, 81
2, 36509, Note_on_c, 0, 57, 0
2, 36522, Control_c, 0, 64, 78
2, 36536, Control_c, 0, 64, 72
2, 36548, Note_on_c, 0, 52, 88
2, 36552, Control_c, 0, 64, 60
2, 36567, Control_c, 0, 64, 0
2, 36644, Control_c, 0, 64, 32
2, 36659, Control_c, 0, 64, 61
2, 36674, Control_c, 0, 64, 65
2, 36689, Control_c, 0, 64, 67
2, 36712, Control_c, 0, 64, 70
2, 36726, Control_c, 0, 64, 73
2, 36741, Control_c, 0, 64, 78
2, 36757, Control_c, 0, 64, 80
2, 36772, Control_c, 0, 64, 81
2, 36788, Control_c, 0, 64, 82
2, 36818, Control_c, 0, 64, 82
2, 36834, Control_c, 0, 64, 83
2, 36848, Control_c, 0, 64, 84
2, 36863, Control_c, 0, 64, 84
2, 36879, Control_c, 0, 64, 85
2, 36894, Control_c, 0, 64, 85
2, 36924, Control_c, 0, 64, 86
2, 36970, Control_c, 0, 64, 86
2, 36992, Note_on_c, 0, 52, 0
2, 37060, Control_c, 0, 64, 87
2, 37109, Note_on_c, 0, 55, 83
2, 37136, Control_c, 0, 64, 87
2, 37155, Note_on_c, 0, 55, 0
2, 37214, Control_c, 0, 64, 87
2, 37227, Note_on_c, 0, 74, 89
2, 37228, Note_on_c, 0, 53, 80
2, 37230, Control_c, 0, 64, 85
2, 37231, Note_on_c, 0, 65, 83
2, 37244, Control_c, 0, 64, 81
2, 37259, Control_c, 0, 64, 72
2, 37261, Note_on_c, 0, 73, 0
2, 37275, Control_c, 0, 64, 54
2, 37289, Control_c, 0, 64, 0
2, 37411, Control_c, 0, 64, 25
2, 37427, Control_c, 0, 64, 54
2, 37442, Control_c, 0, 64, 61
2, 37457, Control_c, 0, 64, 64
2, 37480, Control_c, 0, 64, 65
2, 37494, Control_c, 0, 64, 67
2, 37510, Control_c, 0, 64, 69
2, 37525, Control_c, 0, 64, 71
2, 37540, Control_c, 0, 64, 74
2, 37556, Control_c, 0, 64, 76
2, 37570, Control_c, 0, 64, 77
2, 37586, Control_c, 0, 64, 78
2, 37601, Control_c, 0, 64, 78
2, 37632, Control_c, 0, 64, 79
2, 37647, Control_c, 0, 64, 79
2, 37647, Note_on_c, 0, 53, 0
2, 37661, Control_c, 0, 64, 80
2, 37692, Control_c, 0, 64, 80
2, 37772, Note_on_c, 0, 50, 87
2, 37825, Note_on_c, 0, 50, 0
2, 37844, Control_c, 0, 64, 80
2, 37859, Control_c, 0, 64, 77
2, 37875, Control_c, 0, 64, 72
2, 37882, Note_on_c, 0, 45, 92
2, 37890, Control_c, 0, 64, 63
2, 37905, Control_c, 0, 64, 0
2, 38058, Control_c, 0, 64, 46
2, 38074, Control_c, 0, 64, 60
2, 38088, Control_c, 0, 64, 63
2, 38103, Control_c, 0, 64, 65
2, 38119, Control_c, 0, 64, 66
2, 38133, Control_c, 0, 64, 69
2, 38149, Control_c, 0, 64, 71
2, 38163, Control_c, 0, 64, 75
2, 38178, Control_c, 0, 64, 77
2, 38194, Control_c, 0, 64, 79
2, 38209, Control_c, 0, 64, 80
2, 38225, Control_c, 0, 64, 80
2, 38245, Note_on_c, 0, 45, 0
2, 38247, Control_c, 0, 64, 81
2, 38262, Control_c, 0, 64, 81
2, 38278, Control_c, 0, 64, 82
2, 38292, Control_c, 0, 64, 82
2, 38308, Control_c, 0, 64, 83
2, 38323, Control_c, 0, 64, 83
2, 38353, Control_c, 0, 64, 84
2, 38399, Control_c, 0, 64, 84
2, 38445, Control_c, 0, 64, 85
2, 38448, Note_on_c, 0, 48, 90
2, 38475, Control_c, 0, 64, 84
2, 38499, Note_on_c, 0, 48, 0
2, 38521, Control_c, 0, 64, 83
2, 38536, Control_c, 0, 64, 80
2, 38551, Control_c, 0, 64, 75
2, 38556, Note_on_c, 0, 46, 95
2, 38566, Control_c, 0, 64, 66
2, 38581, Control_c, 0, 64, 20
2, 38597, Control_c, 0, 64, 0
2, 38608, Note_on_c, 0, 65, 0
2, 38820, Note_on_c, 0, 69, 0
2, 38855, Control_c, 0, 64, 37
2, 38871, Control_c, 0, 64, 56
2, 38886, Control_c, 0, 64, 61
2, 38901, Control_c, 0, 64, 64
2, 38916, Control_c, 0, 64, 65
2, 38932, Control_c, 0, 64, 67
2, 38948, Control_c, 0, 64, 69
2, 38963, Control_c, 0, 64, 71
2, 38977, Control_c, 0, 64, 74
2, 39001, Control_c, 0, 64, 75
2, 39016, Control_c, 0, 64, 76
2, 39032, Control_c, 0, 64, 77
2, 39077, Control_c, 0, 64, 77
2, 39137, Control_c, 0, 64, 78
2, 39148, Note_on_c, 0, 64, 80
2, 39229, Control_c, 0, 64, 77
2, 39244, Control_c, 0, 64, 74
2, 39249, Note_on_c, 0, 65, 86
2, 39258, Control_c, 0, 64, 68
2, 39267, Note_on_c, 0, 64, 0
2, 39274, Control_c, 0, 64, 48
2, 39289, Control_c, 0, 64, 0
2, 39396, Control_c, 0, 64, 32
2, 39411, Control_c, 0, 64, 58
2, 39426, Control_c, 0, 64, 62
2, 39441, Control_c, 0, 64, 64
2, 39456, Control_c, 0, 64, 66
2, 39472, Control_c, 0, 64, 70
2, 39487, Control_c, 0, 64, 73
2, 39502, Control_c, 0, 64, 76
2, 39517, Control_c, 0, 64, 78
2, 39532, Control_c, 0, 64, 79
2, 39547, Note_on_c, 0, 46, 0
2, 39548, Control_c, 0, 64, 80
2, 39578, Control_c, 0, 64, 80
2, 39608, Control_c, 0, 64, 81
2, 39655, Control_c, 0, 64, 81
2, 39700, Control_c, 0, 64, 82
2, 39746, Control_c, 0, 64, 82
2, 39759, Note_on_c, 0, 62, 76
2, 39769, Note_on_c, 0, 65, 0
2, 39799, Control_c, 0, 64, 83
2, 39909, Note_on_c, 0, 68, 80
2, 39924, Note_on_c, 0, 47, 67
2, 39936, Control_c, 0, 64, 81
2, 39951, Control_c, 0, 64, 77
2, 39958, Note_on_c, 0, 69, 77
2, 39960, Note_on_c, 0, 68, 0
2, 39966, Control_c, 0, 64, 70
2, 39981, Control_c, 0, 64, 52
2, 39997, Control_c, 0, 64, 0
2, 40014, Note_on_c, 0, 68, 80
2, 40022, Note_on_c, 0, 74, 0
2, 40022, Note_on_c, 0, 74, 3
2, 40028, Note_on_c, 0, 69, 0
2, 40030, Note_on_c, 0, 62, 0
2, 40165, Control_c, 0, 64, 45
2, 40181, Control_c, 0, 64, 58
2, 40196, Control_c, 0, 64, 62
2, 40211, Control_c, 0, 64, 64
2, 40227, Control_c, 0, 64, 67
2, 40241, Control_c, 0, 64, 70
2, 40256, Control_c, 0, 64, 75
2, 40272, Control_c, 0, 64, 78
2, 40287, Control_c, 0, 64, 80
2, 40303, Control_c, 0, 64, 81
2, 40318, Control_c, 0, 64, 82
2, 40333, Control_c, 0, 64, 83
2, 40349, Control_c, 0, 64, 84
2, 40363, Control_c, 0, 64, 84
2, 40379, Control_c, 0, 64, 85
2, 40409, Control_c, 0, 64, 85
2, 40439, Control_c, 0, 64, 86
2, 40485, Note_on_c, 0, 49, 70
2, 40569, Control_c, 0, 64, 85
2, 40585, Control_c, 0, 64, 83
2, 40599, Control_c, 0, 64, 77
2, 40600, Note_on_c, 0, 50, 77
2, 40614, Control_c, 0, 64, 68
2, 40630, Control_c, 0, 64, 32
2, 40639, Note_on_c, 0, 49, 0
2, 40645, Control_c, 0, 64, 0
2, 40767, Control_c, 0, 64, 44
2, 40783, Control_c, 0, 64, 56
2, 40797, Control_c, 0, 64, 61
2, 40812, Control_c, 0, 64, 64
2, 40828, Control_c, 0, 64, 65
2, 40828, Note_on_c, 0, 68, 0
2, 40843, Control_c, 0, 64, 68
2, 40859, Control_c, 0, 64, 71
2, 40873, Control_c, 0, 64, 75
2, 40888, Control_c, 0, 64, 77
2, 40904, Control_c, 0, 64, 78
2, 40934, Control_c, 0, 64, 79
2, 40949, Control_c, 0, 64, 79
2, 40980, Control_c, 0, 64, 80
2, 41009, Control_c, 0, 64, 80
2, 41125, Note_on_c, 0, 47, 0
2, 41134, Note_on_c, 0, 50, 0
2, 41136, Note_on_c, 0, 68, 81
2, 41150, Note_on_c, 0, 52, 59
2, 41240, Control_c, 0, 64, 79
2, 41249, Note_on_c, 0, 52, 0
2, 41256, Control_c, 0, 64, 74
2, 41258, Note_on_c, 0, 68, 0
2, 41258, Note_on_c, 0, 69, 85
2, 41271, Control_c, 0, 64, 66
2, 41273, Note_on_c, 0, 53, 67
2, 41274, Note_on_c, 0, 45, 60
2, 41286, Control_c, 0, 64, 0
2, 41351, Note_on_c, 0, 74, 0
2, 41416, Control_c, 0, 64, 53
2, 41431, Control_c, 0, 64, 60
2, 41445, Control_c, 0, 64, 62
2, 41461, Control_c, 0, 64, 64
2, 41476, Control_c, 0, 64, 66
2, 41492, Control_c, 0, 64, 69
2, 41507, Control_c, 0, 64, 72
2, 41521, Control_c, 0, 64, 76
2, 41537, Control_c, 0, 64, 78
2, 41552, Control_c, 0, 64, 79
2, 41567, Control_c, 0, 64, 79
2, 41598, Control_c, 0, 64, 80
2, 41614, Control_c, 0, 64, 80
2, 41629, Control_c, 0, 64, 81
2, 41643, Control_c, 0, 64, 81
2, 41745, Note_on_c, 0, 69, 0
2, 41805, Note_on_c, 0, 74, 73
2, 41856, Control_c, 0, 64, 82
2, 41902, Control_c, 0, 64, 81
2, 41917, Control_c, 0, 64, 80
2, 41918, Note_on_c, 0, 76, 83
2, 41922, Note_on_c, 0, 70, 78
2, 41926, Note_on_c, 0, 55, 66
2, 41927, Note_on_c, 0, 74, 0
2, 41932, Control_c, 0, 64, 74
2, 41947, Control_c, 0, 64, 64
2, 41962, Control_c, 0, 64, 0
2, 42003, Note_on_c, 0, 53, 0
2, 42065, Control_c, 0, 64, 59
2, 42088, Control_c, 0, 64, 64
2, 42105, Control_c, 0, 64, 66
2, 42120, Control_c, 0, 64, 68
2, 42135, Control_c, 0, 64, 70
2, 42140, Note_on_c, 0, 76, 0
2, 42150, Control_c, 0, 64, 73
2, 42165, Control_c, 0, 64, 76
2, 42180, Control_c, 0, 64, 78
2, 42196, Control_c, 0, 64, 80
2, 42210, Control_c, 0, 64, 81
2, 42226, Control_c, 0, 64, 81
2, 42241, Control_c, 0, 64, 82
2, 42256, Control_c, 0, 64, 82
2, 42272, Control_c, 0, 64, 83
2, 42286, Control_c, 0, 64, 83
2, 42301, Control_c, 0, 64, 84
2, 42332, Control_c, 0, 64, 84
2, 42434, Note_on_c, 0, 79, 80
2, 42481, Note_on_c, 0, 79, 0
2, 42560, Control_c, 0, 64, 81
2, 42560, Note_on_c, 0, 73, 76
2, 42568, Note_on_c, 0, 55, 0
2, 42575, Control_c, 0, 64, 76
2, 42582, Note_on_c, 0, 57, 66
2, 42591, Control_c, 0, 64, 64
2, 42605, Control_c, 0, 64, 0
2, 42696, Control_c, 0, 64, 46
2, 42712, Control_c, 0, 64, 61
2, 42727, Control_c, 0, 64, 64
2, 42742, Control_c, 0, 64, 66
2, 42757, Control_c, 0, 64, 68
2, 42771, Control_c, 0, 64, 70
2, 42787, Control_c, 0, 64, 73
2, 42799, Note_on_c, 0, 70, 0
2, 42802, Control_c, 0, 64, 76
2, 42816, Control_c, 0, 64, 78
2, 42840, Control_c, 0, 64, 79
2, 42871, Control_c, 0, 64, 79
2, 42916, Control_c, 0, 64, 80
2, 42932, Control_c, 0, 64, 80
2, 42948, Control_c, 0, 64, 81
2, 43089, Note_on_c, 0, 73, 0
2, 43115, Control_c, 0, 64, 81
2, 43116, Note_on_c, 0, 69, 57
2, 43124, Note_on_c, 0, 74, 71
2, 43175, Control_c, 0, 64, 81
2, 43191, Control_c, 0, 64, 80
2, 43205, Control_c, 0, 64, 76
2, 43217, Note_on_c, 0, 69, 0
2, 43220, Control_c, 0, 64, 68
2, 43236, Control_c, 0, 64, 28
2, 43239, Note_on_c, 0, 49, 54
2, 43246, Note_on_c, 0, 76, 75
2, 43248, Note_on_c, 0, 45, 0
2, 43251, Control_c, 0, 64, 0
2, 43259, Note_on_c, 0, 64, 50
2, 43289, Note_on_c, 0, 74, 0
2, 43342, Control_c, 0, 64, 36
2, 43358, Control_c, 0, 64, 59
2, 43373, Control_c, 0, 64, 63
2, 43389, Control_c, 0, 64, 64
2, 43403, Control_c, 0, 64, 66
2, 43418, Control_c, 0, 64, 69
2, 43434, Control_c, 0, 64, 72
2, 43449, Control_c, 0, 64, 75
2, 43463, Control_c, 0, 64, 78
2, 43479, Control_c, 0, 64, 79
2, 43494, Control_c, 0, 64, 79
2, 43539, Control_c, 0, 64, 80
2, 43555, Control_c, 0, 64, 80
2, 43570, Control_c, 0, 64, 81
2, 43633, Note_on_c, 0, 49, 0
2, 43654, Control_c, 0, 64, 81
2, 43662, Note_on_c, 0, 64, 0
2, 43770, Note_on_c, 0, 67, 70
2, 43871, Note_on_c, 0, 67, 0
2, 43893, Note_on_c, 0, 65, 68
2, 43897, Control_c, 0, 64, 81
2, 43900, Note_on_c, 0, 50, 59
2, 43913, Control_c, 0, 64, 79
2, 43928, Control_c, 0, 64, 74
2, 43943, Control_c, 0, 64, 65
2, 43959, Control_c, 0, 64, 0
2, 44065, Control_c, 0, 64, 42
2, 44080, Control_c, 0, 64, 59
2, 44094, Control_c, 0, 64, 62
2, 44110, Control_c, 0, 64, 64
2, 44125, Control_c, 0, 64, 66
2, 44140, Control_c, 0, 64, 68
2, 44150, Note_on_c, 0, 76, 0
2, 44156, Control_c, 0, 64, 71
2, 44171, Control_c, 0, 64, 74
2, 44187, Control_c, 0, 64, 75
2, 44202, Control_c, 0, 64, 76
2, 44232, Control_c, 0, 64, 76
2, 44247, Control_c, 0, 64, 77
2, 44262, Control_c, 0, 64, 77
2, 44293, Control_c, 0, 64, 78
2, 44450, Note_on_c, 0, 74, 77
2, 44543, Control_c, 0, 64, 76
2, 44553, Note_on_c, 0, 74, 0
2, 44559, Control_c, 0, 64, 74
2, 44559, Note_on_c, 0, 69, 77
2, 44574, Control_c, 0, 64, 68
2, 44577, Note_on_c, 0, 53, 56
2, 44590, Control_c, 0, 64, 49
2, 44605, Control_c, 0, 64, 0
2, 44712, Control_c, 0, 64, 53
2, 44727, Control_c, 0, 64, 59
2, 44741, Control_c, 0, 64, 61
2, 44757, Control_c, 0, 64, 63
2, 44772, Control_c, 0, 64, 65
2, 44788, Control_c, 0, 64, 67
2, 44803, Control_c, 0, 64, 71
2, 44817, Control_c, 0, 64, 74
2, 44833, Control_c, 0, 64, 76
2, 44878, Control_c, 0, 64, 76
2, 44909, Control_c, 0, 64, 77
2, 44924, Control_c, 0, 64, 77
2, 44969, Control_c, 0, 64, 78
2, 45000, Control_c, 0, 64, 78
2, 45100, Note_on_c, 0, 72, 74
2, 45107, Note_on_c, 0, 69, 0
2, 45205, Control_c, 0, 64, 78
2, 45219, Note_on_c, 0, 70, 76
2, 45219, Note_on_c, 0, 72, 0
2, 45220, Control_c, 0, 64, 76
2, 45235, Control_c, 0, 64, 72
2, 45247, Note_on_c, 0, 65, 0
2, 45250, Control_c, 0, 64, 65
2, 45266, Control_c, 0, 64, 32
2, 45281, Control_c, 0, 64, 0
2, 45372, Control_c, 0, 64, 38
2, 45380, Note_on_c, 0, 57, 0
2, 45388, Control_c, 0, 64, 58
2, 45403, Control_c, 0, 64, 61
2, 45418, Control_c, 0, 64, 62
2, 45434, Control_c, 0, 64, 64
2, 45449, Control_c, 0, 64, 66
2, 45465, Control_c, 0, 64, 68
2, 45480, Control_c, 0, 64, 71
2, 45495, Control_c, 0, 64, 74
2, 45510, Control_c, 0, 64, 76
2, 45525, Control_c, 0, 64, 77
2, 45540, Control_c, 0, 64, 77
2, 45586, Control_c, 0, 64, 78
2, 45601, Control_c, 0, 64, 78
2, 45632, Control_c, 0, 64, 79
2, 45764, Note_on_c, 0, 65, 70
2, 45776, Note_on_c, 0, 57, 53
2, 45812, Note_on_c, 0, 53, 0
2, 45813, Control_c, 0, 64, 78
2, 45829, Control_c, 0, 64, 77
2, 45843, Control_c, 0, 64, 72
2, 45858, Control_c, 0, 64, 64
2, 45871, Note_on_c, 0, 57, 0
2, 45874, Control_c, 0, 64, 0
2, 45874, Note_on_c, 0, 65, 0
2, 45880, Note_on_c, 0, 64, 67
2, 45892, Note_on_c, 0, 55, 53
2, 45988, Control_c, 0, 64, 13
2, 46002, Control_c, 0, 64, 55
2, 46017, Control_c, 0, 64, 60
2, 46033, Control_c, 0, 64, 63
2, 46048, Control_c, 0, 64, 64
2, 46063, Control_c, 0, 64, 67
2, 46079, Control_c, 0, 64, 70
2, 46094, Control_c, 0, 64, 74
2, 46110, Control_c, 0, 64, 76
2, 46124, Control_c, 0, 64, 77
2, 46139, Control_c, 0, 64, 78
2, 46170, Control_c, 0, 64, 78
2, 46186, Control_c, 0, 64, 79
2, 46247, Control_c, 0, 64, 79
2, 46418, Note_on_c, 0, 67, 68
2, 46428, Note_on_c, 0, 53, 53
2, 46428, Note_on_c, 0, 64, 0
2, 46474, Control_c, 0, 64, 79
2, 46489, Control_c, 0, 64, 77
2, 46505, Control_c, 0, 64, 72
2, 46510, Note_on_c, 0, 55, 0
2, 46520, Control_c, 0, 64, 62
2, 46532, Note_on_c, 0, 53, 0
2, 46535, Control_c, 0, 64, 0
2, 46540, Note_on_c, 0, 67, 0
2, 46547, Note_on_c, 0, 61, 69
2, 46550, Note_on_c, 0, 52, 62
2, 46641, Control_c, 0, 64, 55
2, 46656, Control_c, 0, 64, 62
2, 46672, Control_c, 0, 64, 65
2, 46694, Control_c, 0, 64, 66
2, 46709, Note_on_c, 0, 70, 0
2, 46710, Control_c, 0, 64, 68
2, 46725, Control_c, 0, 64, 70
2, 46740, Control_c, 0, 64, 73
2, 46755, Control_c, 0, 64, 77
2, 46770, Control_c, 0, 64, 79
2, 46786, Control_c, 0, 64, 81
2, 46816, Control_c, 0, 64, 81
2, 46846, Control_c, 0, 64, 82
2, 47109, Note_on_c, 0, 70, 80
2, 47212, Control_c, 0, 64, 79
2, 47228, Control_c, 0, 64, 74
2, 47232, Note_on_c, 0, 69, 81
2, 47241, Note_on_c, 0, 52, 0
2, 47243, Control_c, 0, 64, 63
2, 47247, Note_on_c, 0, 53, 59
2, 47254, Note_on_c, 0, 70, 0
2, 47258, Control_c, 0, 64, 0
2, 47394, Control_c, 0, 64, 57
2, 47409, Control_c, 0, 64, 62
2, 47425, Control_c, 0, 64, 64
2, 47448, Control_c, 0, 64, 66
2, 47463, Control_c, 0, 64, 68
2, 47478, Control_c, 0, 64, 72
2, 47493, Control_c, 0, 64, 75
2, 47509, Control_c, 0, 64, 77
2, 47523, Control_c, 0, 64, 77
2, 47554, Control_c, 0, 64, 78
2, 47569, Control_c, 0, 64, 78
2, 47585, Control_c, 0, 64, 79
2, 47614, Control_c, 0, 64, 79
2, 47787, Note_on_c, 0, 67, 71
2, 47789, Note_on_c, 0, 69, 0
2, 47874, Note_on_c, 0, 53, 0
2, 47889, Note_on_c, 0, 67, 0
2, 47905, Control_c, 0, 64, 78
2, 47913, Note_on_c, 0, 76, 81
2, 47919, Control_c, 0, 64, 75
2, 47923, Note_on_c, 0, 55, 51
2, 47934, Control_c, 0, 64, 69
2, 47950, Control_c, 0, 64, 55
2, 47965, Control_c, 0, 64, 0
2, 48072, Control_c, 0, 64, 54
2, 48087, Control_c, 0, 64, 61
2, 48102, Control_c, 0, 64, 64
2, 48117, Control_c, 0, 64, 66
2, 48132, Control_c, 0, 64, 69
2, 48148, Control_c, 0, 64, 72
2, 48162, Control_c, 0, 64, 75
2, 48177, Control_c, 0, 64, 78
2, 48193, Control_c, 0, 64, 79
2, 48208, Control_c, 0, 64, 80
2, 48261, Control_c, 0, 64, 80
2, 48277, Control_c, 0, 64, 81
2, 48292, Control_c, 0, 64, 81
2, 48322, Control_c, 0, 64, 82
2, 48445, Note_on_c, 0, 76, 0
2, 48486, Note_on_c, 0, 67, 69
2, 48588, Note_on_c, 0, 66, 77
2, 48593, Note_on_c, 0, 67, 0
2, 48600, Note_on_c, 0, 58, 64
2, 48610, Control_c, 0, 64, 81
2, 48626, Control_c, 0, 64, 78
2, 48641, Control_c, 0, 64, 70
2, 48657, Control_c, 0, 64, 38
2, 48673, Control_c, 0, 64, 0
2, 48708, Note_on_c, 0, 55, 0
2, 48749, Control_c, 0, 64, 28
2, 48763, Control_c, 0, 64, 60
2, 48778, Control_c, 0, 64, 64
2, 48794, Control_c, 0, 64, 66
2, 48809, Control_c, 0, 64, 69
2, 48825, Control_c, 0, 64, 72
2, 48840, Control_c, 0, 64, 76
2, 48846, Note_on_c, 0, 58, 0
2, 48855, Control_c, 0, 64, 79
2, 48855, Note_on_c, 0, 61, 0
2, 48870, Control_c, 0, 64, 81
2, 48885, Control_c, 0, 64, 82
2, 48900, Control_c, 0, 64, 82
2, 48916, Control_c, 0, 64, 83
2, 48930, Control_c, 0, 64, 83
2, 48946, Control_c, 0, 64, 84
2, 48961, Control_c, 0, 64, 84
2, 48963, Note_on_c, 0, 50, 0
2, 49014, Control_c, 0, 64, 85
2, 49167, Note_on_c, 0, 66, 0
2, 49169, Note_on_c, 0, 64, 69
2, 49245, Note_on_c, 0, 64, 0
2, 49257, Control_c, 0, 64, 84
2, 49273, Control_c, 0, 64, 82
2, 49278, Note_on_c, 0, 66, 75
2, 49283, Note_on_c, 0, 62, 63
2, 49287, Control_c, 0, 64, 79
2, 49288, Note_on_c, 0, 57, 51
2, 49300, Note_on_c, 0, 48, 47
2, 49302, Control_c, 0, 64, 74
2, 49318, Control_c, 0, 64, 66
2, 49333, Control_c, 0, 64, 36
2, 49348, Control_c, 0, 64, 0
2, 49858, Note_on_c, 0, 67, 69
2, 49918, Note_on_c, 0, 66, 0
2, 49969, Note_on_c, 0, 69, 72
2, 49995, Note_on_c, 0, 67, 0
2, 50192, Control_c, 0, 64, 29
2, 50207, Control_c, 0, 64, 54
2, 50222, Control_c, 0, 64, 62
2, 50238, Control_c, 0, 64, 65
2, 50253, Control_c, 0, 64, 67
2, 50268, Control_c, 0, 64, 70
2, 50284, Control_c, 0, 64, 72
2, 50299, Control_c, 0, 64, 74
2, 50315, Control_c, 0, 64, 76
2, 50330, Control_c, 0, 64, 77
2, 50375, Control_c, 0, 64, 78
2, 50391, Control_c, 0, 64, 78
2, 50462, Note_on_c, 0, 48, 0
2, 50490, Note_on_c, 0, 54, 54
2, 50509, Note_on_c, 0, 57, 0
2, 50580, Control_c, 0, 64, 77
2, 50596, Control_c, 0, 64, 75
2, 50609, Note_on_c, 0, 54, 0
2, 50611, Control_c, 0, 64, 67
2, 50619, Note_on_c, 0, 46, 60
2, 50626, Control_c, 0, 64, 38
2, 50626, Note_on_c, 0, 50, 54
2, 50641, Control_c, 0, 64, 0
2, 50684, Note_on_c, 0, 62, 0
2, 50717, Control_c, 0, 64, 45
2, 50732, Control_c, 0, 64, 60
2, 50748, Control_c, 0, 64, 64
2, 50763, Control_c, 0, 64, 65
2, 50778, Control_c, 0, 64, 67
2, 50793, Control_c, 0, 64, 68
2, 50808, Control_c, 0, 64, 71
2, 50823, Control_c, 0, 64, 73
2, 50839, Control_c, 0, 64, 76
2, 50854, Control_c, 0, 64, 77
2, 50866, Note_on_c, 0, 69, 0
2, 50870, Control_c, 0, 64, 78
2, 50885, Control_c, 0, 64, 78
2, 51181, Note_on_c, 0, 62, 74
2, 51268, Note_on_c, 0, 62, 0
2, 51288, Control_c, 0, 64, 77
2, 51301, Note_on_c, 0, 67, 77
2, 51303, Control_c, 0, 64, 73
2, 51313, Note_on_c, 0, 58, 62
2, 51319, Control_c, 0, 64, 65
2, 51334, Control_c, 0, 64, 0
2, 51409, Control_c, 0, 64, 27
2, 51425, Control_c, 0, 64, 57
2, 51440, Control_c, 0, 64, 62
2, 51455, Control_c, 0, 64, 64
2, 51470, Control_c, 0, 64, 66
2, 51485, Control_c, 0, 64, 69
2, 51500, Control_c, 0, 64, 72
2, 51516, Control_c, 0, 64, 75
2, 51531, Control_c, 0, 64, 77
2, 51546, Control_c, 0, 64, 79
2, 51561, Control_c, 0, 64, 79
2, 51576, Control_c, 0, 64, 80
2, 51585, Note_on_c, 0, 50, 0
2, 51606, Note_on_c, 0, 58, 0
2, 51726, Note_on_c, 0, 46, 0
2, 51885, Note_on_c, 0, 70, 76
2, 51918, Note_on_c, 0, 67, 0
2, 51942, Control_c, 0, 64, 79
2, 51958, Control_c, 0, 64, 79
2, 51973, Control_c, 0, 64, 77
2, 51989, Control_c, 0, 64, 74
2, 52001, Note_on_c, 0, 72, 72
2, 52004, Control_c, 0, 64, 68
2, 52008, Note_on_c, 0, 51, 56
2, 52011, Note_on_c, 0, 70, 0
2, 52019, Control_c, 0, 64, 56
2, 52025, Note_on_c, 0, 45, 45
2, 52034, Control_c, 0, 64, 0
2, 52560, Note_on_c, 0, 67, 61
2, 52663, Note_on_c, 0, 67, 0
2, 52688, Note_on_c, 0, 66, 68
2, 52701, Note_on_c, 0, 48, 47
2, 52719, Note_on_c, 0, 51, 0
2, 52871, Control_c, 0, 64, 46
2, 52885, Control_c, 0, 64, 59
2, 52900, Control_c, 0, 64, 63
2, 52916, Control_c, 0, 64, 65
2, 52931, Control_c, 0, 64, 67
2, 52947, Control_c, 0, 64, 70
2, 52961, Control_c, 0, 64, 74
2, 52976, Control_c, 0, 64, 76
2, 52992, Control_c, 0, 64, 77
2, 53007, Control_c, 0, 64, 78
2, 53022, Control_c, 0, 64, 79
2, 53037, Control_c, 0, 64, 79
2, 53052, Control_c, 0, 64, 80
2, 53068, Control_c, 0, 64, 81
2, 53122, Note_on_c, 0, 66, 0
2, 53278, Note_on_c, 0, 64, 67
2, 53356, Control_c, 0, 64, 80
2, 53371, Control_c, 0, 64, 78
2, 53382, Note_on_c, 0, 64, 0
2, 53387, Control_c, 0, 64, 75
2, 53392, Note_on_c, 0, 66, 75
2, 53402, Control_c, 0, 64, 68
2, 53416, Control_c, 0, 64, 42
2, 53417, Note_on_c, 0, 50, 49
2, 53418, Note_on_c, 0, 48, 0
2, 53432, Control_c, 0, 64, 0
2, 53484, Note_on_c, 0, 72, 0
2, 53585, Control_c, 0, 64, 44
2, 53607, Control_c, 0, 64, 60
2, 53622, Control_c, 0, 64, 64
2, 53638, Control_c, 0, 64, 66
2, 53652, Control_c, 0, 64, 70
2, 53668, Control_c, 0, 64, 74
2, 53683, Control_c, 0, 64, 79
2, 53698, Control_c, 0, 64, 81
2, 53706, Note_on_c, 0, 45, 0
2, 53714, Control_c, 0, 64, 82
2, 53728, Control_c, 0, 64, 82
2, 53759, Control_c, 0, 64, 83
2, 53805, Control_c, 0, 64, 83
2, 54002, Note_on_c, 0, 74, 66
2, 54033, Control_c, 0, 64, 83
2, 54048, Control_c, 0, 64, 80
2, 54062, Control_c, 0, 64, 74
2, 54078, Control_c, 0, 64, 62
2, 54093, Control_c, 0, 64, 0
2, 54131, Note_on_c, 0, 69, 66
2, 54134, Note_on_c, 0, 74, 0
2, 54135, Note_on_c, 0, 38, 45
2, 54321, Control_c, 0, 64, 63
2, 54336, Control_c, 0, 64, 70
2, 54352, Control_c, 0, 64, 74
2, 54374, Control_c, 0, 64, 78
2, 54391, Control_c, 0, 64, 81
2, 54404, Note_on_c, 0, 38, 0
2, 54406, Control_c, 0, 64, 83
2, 54421, Control_c, 0, 64, 85
2, 54437, Control_c, 0, 64, 87
2, 54451, Control_c, 0, 64, 88
2, 54467, Control_c, 0, 64, 89
2, 54482, Control_c, 0, 64, 90
2, 54542, Control_c, 0, 64, 90
2, 54709, Note_on_c, 0, 69, 0
2, 54733, Note_on_c, 0, 72, 67
2, 54763, Note_on_c, 0, 66, 0
2, 54786, Control_c, 0, 64, 90
2, 54816, Control_c, 0, 64, 88
2, 54832, Control_c, 0, 64, 85
2, 54846, Control_c, 0, 64, 81
2, 54847, Note_on_c, 0, 70, 71
2, 54849, Note_on_c, 0, 72, 0
2, 54861, Control_c, 0, 64, 75
2, 54869, Note_on_c, 0, 43, 42
2, 54877, Control_c, 0, 64, 68
2, 54892, Control_c, 0, 64, 51
2, 54907, Control_c, 0, 64, 0
2, 55441, Note_on_c, 0, 67, 61
2, 55558, Note_on_c, 0, 62, 52
2, 55579, Note_on_c, 0, 46, 39
2, 55588, Note_on_c, 0, 67, 0
2, 55599, Control_c, 0, 67, 11
2, 55614, Control_c, 0, 67, 17
2, 55626, Note_on_c, 0, 50, 0
2, 55630, Control_c, 0, 67, 26
2, 55645, Control_c, 0, 67, 36
2, 55660, Control_c, 0, 67, 45
2, 55675, Control_c, 0, 67, 52
2, 55690, Control_c, 0, 67, 54
2, 55706, Control_c, 0, 67, 55
2, 55736, Control_c, 0, 67, 54
2, 55751, Control_c, 0, 64, 45
2, 55751, Control_c, 0, 67, 53
2, 55766, Control_c, 0, 64, 59
2, 55766, Control_c, 0, 67, 53
2, 55781, Control_c, 0, 64, 63
2, 55781, Control_c, 0, 67, 52
2, 55797, Control_c, 0, 64, 65
2, 55797, Control_c, 0, 67, 52
2, 55810, Control_c, 0, 64, 67
2, 55810, Control_c, 0, 67, 51
2, 55825, Control_c, 0, 64, 69
2, 55825, Control_c, 0, 67, 50
2, 55841, Control_c, 0, 64, 72
2, 55841, Control_c, 0, 67, 50
2, 55856, Control_c, 0, 64, 75
2, 55856, Control_c, 0, 67, 49
2, 55870, Control_c, 0, 64, 77
2, 55886, Control_c, 0, 64, 78
2, 55970, Control_c, 0, 67, 48
2, 55981, Note_on_c, 0, 62, 0
2, 55985, Control_c, 0, 64, 78
2, 56077, Control_c, 0, 64, 78
2, 56095, Note_on_c, 0, 65, 59
2, 56105, Note_on_c, 0, 50, 47
2, 56107, Control_c, 0, 64, 76
2, 56123, Control_c, 0, 64, 73
2, 56126, Note_on_c, 0, 46, 0
2, 56138, Control_c, 0, 64, 67
2, 56138, Control_c, 0, 67, 48
2, 56154, Control_c, 0, 64, 58
2, 56169, Control_c, 0, 64, 10
2, 56171, Note_on_c, 0, 70, 0
2, 56183, Control_c, 0, 64, 0
2, 56183, Control_c, 0, 67, 47
2, 56204, Note_on_c, 0, 65, 0
2, 56214, Control_c, 0, 67, 47
2, 56220, Note_on_c, 0, 63, 59
2, 56223, Note_on_c, 0, 50, 0
2, 56229, Control_c, 0, 67, 46
2, 56241, Note_on_c, 0, 55, 47
2, 56245, Control_c, 0, 67, 45
2, 56259, Control_c, 0, 67, 44
2, 56275, Control_c, 0, 67, 43
2, 56290, Control_c, 0, 67, 43
2, 56304, Control_c, 0, 67, 42
2, 56320, Control_c, 0, 64, 34
2, 56320, Control_c, 0, 67, 41
2, 56335, Control_c, 0, 64, 48
2, 56335, Control_c, 0, 67, 39
2, 56350, Control_c, 0, 64, 56
2, 56350, Control_c, 0, 67, 35
2, 56366, Control_c, 0, 64, 61
2, 56366, Control_c, 0, 67, 31
2, 56380, Control_c, 0, 64, 63
2, 56380, Control_c, 0, 67, 27
2, 56396, Control_c, 0, 64, 65
2, 56396, Control_c, 0, 67, 22
2, 56404, Note_on_c, 0, 43, 0
2, 56411, Control_c, 0, 64, 67
2, 56411, Control_c, 0, 67, 20
2, 56426, Control_c, 0, 64, 69
2, 56426, Control_c, 0, 67, 16
2, 56442, Control_c, 0, 64, 72
2, 56442, Control_c, 0, 67, 12
2, 56456, Control_c, 0, 64, 74
2, 56456, Control_c, 0, 67, 0
2, 56472, Control_c, 0, 64, 76
2, 56487, Control_c, 0, 64, 78
2, 56518, Control_c, 0, 64, 79
2, 56521, Note_on_c, 0, 63, 0
2, 56594, Control_c, 0, 64, 79
2, 56762, Note_on_c, 0, 70, 76
2, 56837, Note_on_c, 0, 70, 0
2, 56845, Control_c, 0, 64, 78
2, 56860, Control_c, 0, 64, 76
2, 56876, Control_c, 0, 64, 71
2, 56880, Note_on_c, 0, 75, 80
2, 56887, Note_on_c, 0, 58, 60
2, 56890, Control_c, 0, 64, 64
2, 56905, Control_c, 0, 64, 35
2, 56921, Control_c, 0, 64, 0
2, 57058, Control_c, 0, 64, 49
2, 57074, Control_c, 0, 64, 59
2, 57089, Control_c, 0, 64, 64
2, 57103, Control_c, 0, 64, 67
2, 57119, Control_c, 0, 64, 70
2, 57125, Note_on_c, 0, 55, 0
2, 57134, Control_c, 0, 64, 73
2, 57148, Control_c, 0, 64, 76
2, 57164, Control_c, 0, 64, 78
2, 57179, Control_c, 0, 64, 79
2, 57195, Control_c, 0, 64, 79
2, 57224, Control_c, 0, 64, 80
2, 57270, Control_c, 0, 64, 80
2, 57286, Control_c, 0, 64, 81
2, 57300, Control_c, 0, 64, 81
2, 57322, Note_on_c, 0, 75, 0
2, 57331, Control_c, 0, 64, 82
2, 57376, Control_c, 0, 64, 82
2, 57451, Note_on_c, 0, 79, 82
2, 57536, Note_on_c, 0, 79, 0
2, 57550, Control_c, 0, 64, 81
2, 57566, Control_c, 0, 64, 78
2, 57581, Control_c, 0, 64, 70
2, 57583, Note_on_c, 0, 68, 84
2, 57594, Note_on_c, 0, 60, 59
2, 57597, Control_c, 0, 64, 56
2, 57612, Control_c, 0, 64, 0
2, 57612, Note_on_c, 0, 58, 0
2, 57749, Control_c, 0, 64, 55
2, 57765, Control_c, 0, 64, 63
2, 57780, Control_c, 0, 64, 66
2, 57795, Control_c, 0, 64, 68
2, 57810, Control_c, 0, 64, 70
2, 57825, Control_c, 0, 64, 72
2, 57841, Control_c, 0, 64, 74
2, 57856, Control_c, 0, 64, 76
2, 57870, Control_c, 0, 64, 78
2, 57886, Control_c, 0, 64, 79
2, 57901, Control_c, 0, 64, 80
2, 57916, Control_c, 0, 64, 80
2, 57931, Control_c, 0, 64, 81
2, 57946, Control_c, 0, 64, 82
2, 57949, Note_on_c, 0, 60, 0
2, 57977, Control_c, 0, 64, 82
2, 57992, Control_c, 0, 64, 83
2, 58007, Control_c, 0, 64, 83
2, 58022, Control_c, 0, 64, 84
2, 58083, Control_c, 0, 64, 84
2, 58150, Note_on_c, 0, 62, 75
2, 58156, Note_on_c, 0, 53, 63
2, 58226, Control_c, 0, 64, 83
2, 58242, Control_c, 0, 64, 81
2, 58257, Control_c, 0, 64, 74
2, 58257, Note_on_c, 0, 53, 0
2, 58266, Note_on_c, 0, 63, 79
2, 58273, Control_c, 0, 64, 64
2, 58277, Note_on_c, 0, 62, 0
2, 58278, Note_on_c, 0, 48, 70
2, 58288, Control_c, 0, 64, 0
2, 58440, Control_c, 0, 64, 26
2, 58455, Control_c, 0, 64, 55
2, 58470, Control_c, 0, 64, 62
2, 58486, Control_c, 0, 64, 64
2, 58501, Control_c, 0, 64, 67
2, 58517, Control_c, 0, 64, 69
2, 58532, Control_c, 0, 64, 73
2, 58547, Control_c, 0, 64, 77
2, 58562, Control_c, 0, 64, 79
2, 58577, Control_c, 0, 64, 80
2, 58593, Control_c, 0, 64, 81
2, 58608, Control_c, 0, 64, 82
2, 58623, Control_c, 0, 64, 82
2, 58653, Control_c, 0, 64, 83
2, 58729, Control_c, 0, 64, 83
2, 58792, Note_on_c, 0, 48, 0
2, 58810, Note_on_c, 0, 51, 63
2, 58814, Note_on_c, 0, 60, 70
2, 58898, Note_on_c, 0, 63, 0
2, 58965, Note_on_c, 0, 51, 0
2, 58980, Control_c, 0, 64, 83
2, 58983, Note_on_c, 0, 65, 70
2, 58984, Note_on_c, 0, 50, 63
2, 58996, Control_c, 0, 64, 80
2, 59011, Control_c, 0, 64, 76
2, 59026, Control_c, 0, 64, 68
2, 59028, Note_on_c, 0, 65, 0
2, 59034, Note_on_c, 0, 63, 74
2, 59036, Note_on_c, 0, 60, 0
2, 59041, Control_c, 0, 64, 43
2, 59056, Control_c, 0, 64, 0
2, 59098, Note_on_c, 0, 65, 74
2, 59106, Note_on_c, 0, 63, 0
2, 59254, Control_c, 0, 64, 28
2, 59268, Control_c, 0, 64, 52
2, 59284, Control_c, 0, 64, 59
2, 59300, Control_c, 0, 64, 63
2, 59316, Control_c, 0, 64, 66
2, 59331, Control_c, 0, 64, 68
2, 59346, Control_c, 0, 64, 71
2, 59361, Control_c, 0, 64, 74
2, 59376, Control_c, 0, 64, 77
2, 59392, Control_c, 0, 64, 79
2, 59407, Control_c, 0, 64, 79
2, 59422, Control_c, 0, 64, 80
2, 59437, Control_c, 0, 64, 80
2, 59452, Control_c, 0, 64, 81
2, 59483, Control_c, 0, 64, 81
2, 59550, Note_on_c, 0, 46, 75
2, 59550, Note_on_c, 0, 50, 0
2, 59598, Note_on_c, 0, 46, 0
2, 59650, Control_c, 0, 64, 81
2, 59664, Control_c, 0, 64, 79
2, 59674, Note_on_c, 0, 41, 75
2, 59679, Control_c, 0, 64, 75
2, 59694, Control_c, 0, 64, 68
2, 59709, Control_c, 0, 64, 55
2, 59725, Control_c, 0, 64, 0
2, 59867, Note_on_c, 0, 65, 0
2, 59869, Control_c, 0, 64, 46
2, 59884, Control_c, 0, 64, 56
2, 59899, Control_c, 0, 64, 61
2, 59915, Control_c, 0, 64, 64
2, 59930, Control_c, 0, 64, 67
2, 59944, Control_c, 0, 64, 69
2, 59960, Control_c, 0, 64, 71
2, 59975, Control_c, 0, 64, 73
2, 59990, Control_c, 0, 64, 75
2, 60006, Control_c, 0, 64, 76
2, 60021, Control_c, 0, 64, 78
2, 60037, Control_c, 0, 64, 79
2, 60066, Control_c, 0, 64, 80
2, 60097, Control_c, 0, 64, 80
2, 60128, Control_c, 0, 64, 81
2, 60232, Note_on_c, 0, 41, 0
2, 60241, Note_on_c, 0, 65, 73
2, 60251, Note_on_c, 0, 44, 56
2, 60285, Note_on_c, 0, 44, 0
2, 60339, Control_c, 0, 64, 79
2, 60341, Note_on_c, 0, 68, 0
2, 60354, Control_c, 0, 64, 75
2, 60363, Note_on_c, 0, 58, 76
2, 60369, Control_c, 0, 64, 68
2, 60373, Note_on_c, 0, 43, 64
2, 60384, Control_c, 0, 64, 56
2, 60396, Note_on_c, 0, 65, 0
2, 60400, Control_c, 0, 64, 0
2, 60939, Note_on_c, 0, 62, 68
2, 61048, Note_on_c, 0, 65, 74
2, 61057, Note_on_c, 0, 46, 59
2, 61066, Note_on_c, 0, 62, 0
2, 61259, Control_c, 0, 64, 32
2, 61282, Control_c, 0, 64, 41
2, 61297, Control_c, 0, 64, 46
2, 61312, Control_c, 0, 64, 49
2, 61328, Control_c, 0, 64, 50
2, 61357, Control_c, 0, 64, 49
2, 61464, Control_c, 0, 64, 48
2, 61525, Control_c, 0, 64, 49
2, 61571, Control_c, 0, 64, 48
2, 61606, Note_on_c, 0, 68, 71
2, 61630, Control_c, 0, 64, 48
2, 61636, Note_on_c, 0, 65, 0
2, 61646, Control_c, 0, 64, 47
2, 61661, Control_c, 0, 64, 45
2, 61676, Control_c, 0, 64, 40
2, 61692, Control_c, 0, 64, 23
2, 61706, Control_c, 0, 64, 0
2, 61722, Note_on_c, 0, 67, 75
2, 61743, Note_on_c, 0, 68, 0
2, 61747, Note_on_c, 0, 51, 50
2, 61820, Note_on_c, 0, 58, 0
2, 61967, Control_c, 0, 64, 40
2, 61982, Control_c, 0, 64, 55
2, 61997, Control_c, 0, 64, 61
2, 62012, Control_c, 0, 64, 63
2, 62027, Control_c, 0, 64, 65
2, 62051, Control_c, 0, 64, 67
2, 62065, Control_c, 0, 64, 69
2, 62081, Control_c, 0, 64, 72
2, 62096, Control_c, 0, 64, 73
2, 62111, Control_c, 0, 64, 74
2, 62127, Control_c, 0, 64, 74
2, 62279, Note_on_c, 0, 58, 64
2, 62324, Control_c, 0, 64, 74
2, 62339, Control_c, 0, 64, 73
2, 62354, Control_c, 0, 64, 71
2, 62370, Control_c, 0, 64, 67
2, 62382, Note_on_c, 0, 58, 0
2, 62385, Control_c, 0, 64, 59
2, 62389, Note_on_c, 0, 63, 69
2, 62400, Control_c, 0, 64, 35
2, 62400, Note_on_c, 0, 55, 53
2, 62415, Control_c, 0, 64, 0
2, 62450, Note_on_c, 0, 51, 0
2, 62506, Control_c, 0, 64, 13
2, 62522, Control_c, 0, 64, 52
2, 62537, Control_c, 0, 64, 58
2, 62551, Control_c, 0, 64, 60
2, 62567, Control_c, 0, 64, 62
2, 62583, Control_c, 0, 64, 64
2, 62599, Control_c, 0, 64, 66
2, 62614, Control_c, 0, 64, 69
2, 62628, Control_c, 0, 64, 72
2, 62644, Control_c, 0, 64, 74
2, 62659, Control_c, 0, 64, 76
2, 62663, Note_on_c, 0, 67, 0
2, 62674, Control_c, 0, 64, 77
2, 62690, Control_c, 0, 64, 77
2, 62712, Note_on_c, 0, 43, 0
2, 62720, Control_c, 0, 64, 78
2, 62735, Control_c, 0, 64, 78
2, 62750, Control_c, 0, 64, 79
2, 62817, Note_on_c, 0, 46, 0
2, 62833, Control_c, 0, 64, 79
2, 62969, Note_on_c, 0, 67, 75
2, 62979, Note_on_c, 0, 63, 0
2, 63001, Control_c, 0, 64, 79
2, 63031, Control_c, 0, 64, 78
2, 63046, Control_c, 0, 64, 76
2, 63061, Control_c, 0, 64, 71
2, 63066, Note_on_c, 0, 55, 0
2, 63076, Control_c, 0, 64, 64
2, 63084, Note_on_c, 0, 65, 73
2, 63092, Control_c, 0, 64, 44
2, 63095, Note_on_c, 0, 45, 44
2, 63102, Note_on_c, 0, 67, 0
2, 63104, Note_on_c, 0, 48, 50
2, 63107, Control_c, 0, 64, 0
2, 63659, Note_on_c, 0, 63, 66
2, 63773, Note_on_c, 0, 63, 0
2, 63780, Note_on_c, 0, 62, 58
2, 63806, Note_on_c, 0, 65, 0
2, 63806, Note_on_c, 0, 65, 5
2, 63981, Control_c, 0, 64, 46
2, 63996, Control_c, 0, 64, 61
2, 64012, Control_c, 0, 64, 65
2, 64027, Control_c, 0, 64, 67
2, 64043, Control_c, 0, 64, 70
2, 64043, Control_c, 0, 67, 10
2, 64058, Control_c, 0, 64, 73
2, 64058, Control_c, 0, 67, 12
2, 64072, Control_c, 0, 64, 76
2, 64072, Control_c, 0, 67, 13
2, 64088, Control_c, 0, 64, 79
2, 64103, Control_c, 0, 64, 80
2, 64103, Control_c, 0, 67, 14
2, 64119, Control_c, 0, 64, 81
2, 64119, Control_c, 0, 67, 14
2, 64134, Control_c, 0, 67, 15
2, 64149, Control_c, 0, 67, 16
2, 64164, Control_c, 0, 64, 81
2, 64164, Control_c, 0, 67, 17
2, 64179, Control_c, 0, 67, 17
2, 64194, Control_c, 0, 67, 18
2, 64256, Control_c, 0, 67, 18
2, 64286, Control_c, 0, 67, 19
2, 64316, Note_on_c, 0, 62, 0
2, 64327, Note_on_c, 0, 60, 65
2, 64400, Control_c, 0, 64, 81
2, 64400, Note_on_c, 0, 65, 0
2, 64415, Control_c, 0, 64, 80
2, 64430, Control_c, 0, 64, 79
2, 64446, Control_c, 0, 64, 75
2, 64449, Note_on_c, 0, 62, 72
2, 64451, Note_on_c, 0, 48, 0
2, 64452, Note_on_c, 0, 45, 0
2, 64456, Note_on_c, 0, 55, 52
2, 64456, Note_on_c, 0, 60, 0
2, 64461, Control_c, 0, 64, 70
2, 64470, Note_on_c, 0, 47, 44
2, 64475, Control_c, 0, 64, 63
2, 64475, Control_c, 0, 67, 18
2, 64491, Control_c, 0, 64, 48
2, 64506, Control_c, 0, 64, 25
2, 64521, Control_c, 0, 64, 0
2, 64521, Control_c, 0, 67, 18
2, 64596, Control_c, 0, 67, 18
2, 64642, Control_c, 0, 64, 10
2, 64657, Control_c, 0, 67, 19
2, 64672, Control_c, 0, 64, 13
2, 64688, Control_c, 0, 64, 15
2, 64688, Control_c, 0, 67, 19
2, 64703, Control_c, 0, 67, 20
2, 64733, Control_c, 0, 67, 22
2, 64748, Control_c, 0, 67, 26
2, 64764, Control_c, 0, 64, 17
2, 64764, Control_c, 0, 67, 32
2, 64779, Control_c, 0, 67, 38
2, 64794, Control_c, 0, 67, 45
2, 64810, Control_c, 0, 64, 20
2, 64810, Control_c, 0, 67, 51
2, 64825, Control_c, 0, 67, 58
2, 64841, Control_c, 0, 67, 65
2, 64855, Control_c, 0, 67, 71
2, 64870, Control_c, 0, 67, 75
2, 64886, Control_c, 0, 67, 79
2, 64901, Control_c, 0, 67, 81
2, 64916, Control_c, 0, 67, 82
2, 64931, Control_c, 0, 67, 83
2, 64962, Control_c, 0, 67, 83
2, 65017, Note_on_c, 0, 65, 64
2, 65137, Control_c, 0, 64, 18
2, 65138, Note_on_c, 0, 67, 69
2, 65142, Note_on_c, 0, 65, 0
2, 65152, Control_c, 0, 64, 17
2, 65168, Control_c, 0, 64, 15
2, 65183, Control_c, 0, 64, 10
2, 65197, Control_c, 0, 64, 0
2, 65335, Control_c, 0, 64, 29
2, 65350, Control_c, 0, 64, 54
2, 65365, Control_c, 0, 64, 63
2, 65365, Control_c, 0, 67, 84
2, 65366, Note_on_c, 0, 62, 0
2, 65380, Control_c, 0, 64, 67
2, 65395, Control_c, 0, 64, 69
2, 65411, Control_c, 0, 64, 71
2, 65426, Control_c, 0, 64, 73
2, 65441, Control_c, 0, 64, 74
2, 65456, Control_c, 0, 64, 75
2, 65471, Control_c, 0, 64, 76
2, 65487, Control_c, 0, 64, 77
2, 65501, Control_c, 0, 64, 78
2, 65516, Control_c, 0, 64, 79
2, 65547, Control_c, 0, 64, 79
2, 65563, Control_c, 0, 67, 83
2, 65674, Note_on_c, 0, 67, 0
2, 65684, Note_on_c, 0, 62, 70
2, 65714, Control_c, 0, 67, 83
2, 65775, Control_c, 0, 64, 79
2, 65790, Control_c, 0, 64, 78
2, 65804, Note_on_c, 0, 63, 67
2, 65807, Control_c, 0, 64, 76
2, 65807, Note_on_c, 0, 62, 0
2, 65821, Control_c, 0, 64, 72
2, 65821, Note_on_c, 0, 48, 52
2, 65836, Control_c, 0, 64, 66
2, 65836, Note_on_c, 0, 47, 0
2, 65853, Control_c, 0, 64, 57
2, 65868, Control_c, 0, 64, 40
2, 65868, Control_c, 0, 67, 82
2, 65891, Control_c, 0, 64, 17
2, 65906, Control_c, 0, 64, 0
2, 66148, Control_c, 0, 67, 82
2, 66387, Note_on_c, 0, 59, 52
2, 66422, Control_c, 0, 67, 81
2, 66483, Note_on_c, 0, 59, 0
2, 66505, Note_on_c, 0, 60, 58
2, 66529, Control_c, 0, 67, 81
2, 66634, Note_on_c, 0, 55, 0
2, 66658, Control_c, 0, 67, 80
2, 66690, Control_c, 0, 64, 49
2, 66690, Control_c, 0, 67, 80
2, 66705, Control_c, 0, 64, 61
2, 66721, Control_c, 0, 64, 64
2, 66735, Control_c, 0, 64, 66
2, 66750, Control_c, 0, 64, 68
2, 66766, Control_c, 0, 64, 70
2, 66780, Control_c, 0, 64, 72
2, 66795, Control_c, 0, 64, 74
2, 66811, Control_c, 0, 64, 75
2, 66826, Control_c, 0, 64, 76
2, 66856, Control_c, 0, 64, 76
2, 66887, Control_c, 0, 64, 77
2, 67024, Note_on_c, 0, 60, 0
2, 67038, Control_c, 0, 64, 76
2, 67054, Control_c, 0, 64, 76
2, 67067, Note_on_c, 0, 55, 58
2, 67069, Control_c, 0, 64, 74
2, 67085, Control_c, 0, 64, 69
2, 67100, Control_c, 0, 64, 61
2, 67114, Control_c, 0, 64, 24
2, 67130, Control_c, 0, 64, 0
2, 67161, Note_on_c, 0, 63, 0
2, 67198, Note_on_c, 0, 55, 0
2, 67204, Note_on_c, 0, 51, 54
2, 67236, Control_c, 0, 64, 47
2, 67252, Control_c, 0, 64, 57
2, 67266, Control_c, 0, 64, 61
2, 67282, Control_c, 0, 64, 64
2, 67297, Control_c, 0, 64, 66
2, 67311, Control_c, 0, 64, 67
2, 67327, Control_c, 0, 64, 69
2, 67342, Control_c, 0, 64, 71
2, 67357, Control_c, 0, 64, 73
2, 67373, Control_c, 0, 64, 74
2, 67387, Control_c, 0, 64, 75
2, 67403, Control_c, 0, 64, 76
2, 67426, Control_c, 0, 64, 76
2, 67497, Note_on_c, 0, 48, 0
2, 67771, Note_on_c, 0, 51, 0
2, 67778, Note_on_c, 0, 75, 59
2, 67791, Note_on_c, 0, 55, 41
2, 67836, Control_c, 0, 64, 75
2, 67852, Control_c, 0, 64, 73
2, 67867, Control_c, 0, 64, 69
2, 67883, Control_c, 0, 64, 63
2, 67898, Control_c, 0, 64, 50
2, 67898, Control_c, 0, 67, 79
2, 67905, Note_on_c, 0, 69, 63
2, 67907, Note_on_c, 0, 75, 0
2, 67909, Note_on_c, 0, 55, 0
2, 67912, Control_c, 0, 64, 26
2, 67922, Note_on_c, 0, 48, 47
2, 67928, Control_c, 0, 64, 0
2, 67928, Control_c, 0, 67, 78
2, 67943, Control_c, 0, 67, 78
2, 67958, Control_c, 0, 67, 77
2, 67974, Control_c, 0, 67, 76
2, 67989, Control_c, 0, 67, 75
2, 68005, Control_c, 0, 67, 73
2, 68020, Control_c, 0, 67, 72
2, 68034, Control_c, 0, 67, 70
2, 68050, Control_c, 0, 67, 66
2, 68065, Control_c, 0, 67, 61
2, 68081, Control_c, 0, 67, 57
2, 68096, Control_c, 0, 67, 54
2, 68109, Control_c, 0, 67, 50
2, 68125, Control_c, 0, 67, 45
2, 68140, Control_c, 0, 67, 40
2, 68154, Control_c, 0, 67, 33
2, 68170, Control_c, 0, 67, 28
2, 68193, Control_c, 0, 67, 24
2, 68209, Control_c, 0, 67, 21
2, 68224, Control_c, 0, 67, 18
2, 68238, Control_c, 0, 67, 16
2, 68254, Control_c, 0, 67, 14
2, 68269, Control_c, 0, 67, 12
2, 68284, Control_c, 0, 67, 11
2, 68299, Control_c, 0, 67, 10
2, 68316, Control_c, 0, 67, 9
2, 68332, Control_c, 0, 67, 0
2, 68454, Note_on_c, 0, 72, 67
2, 68459, Note_on_c, 0, 51, 40
2, 68465, Note_on_c, 0, 69, 0
2, 68548, Note_on_c, 0, 51, 0
2, 68552, Note_on_c, 0, 48, 0
2, 68561, Note_on_c, 0, 72, 0
2, 68572, Note_on_c, 0, 66, 70
2, 68592, Note_on_c, 0, 50, 46
2, 68772, Control_c, 0, 64, 38
2, 68787, Control_c, 0, 64, 54
2, 68802, Control_c, 0, 64, 61
2, 68817, Control_c, 0, 64, 63
2, 68832, Control_c, 0, 64, 65
2, 68848, Control_c, 0, 64, 67
2, 68863, Control_c, 0, 64, 68
2, 68878, Control_c, 0, 64, 71
2, 68894, Control_c, 0, 64, 73
2, 68909, Control_c, 0, 64, 75
2, 68924, Control_c, 0, 64, 76
2, 68939, Control_c, 0, 64, 76
2, 69104, Note_on_c, 0, 66, 0
2, 69111, Note_on_c, 0, 62, 69
2, 69116, Note_on_c, 0, 54, 47
2, 69221, Control_c, 0, 64, 76
2, 69229, Note_on_c, 0, 66, 78
2, 69236, Control_c, 0, 64, 75
2, 69246, Note_on_c, 0, 62, 0
2, 69251, Note_on_c, 0, 57, 51
2, 69252, Control_c, 0, 64, 70
2, 69267, Control_c, 0, 64, 64
2, 69283, Control_c, 0, 64, 45
2, 69298, Control_c, 0, 64, 0
2, 69343, Control_c, 0, 64, 45
2, 69349, Note_on_c, 0, 54, 0
2, 69358, Control_c, 0, 64, 58
2, 69374, Control_c, 0, 64, 63
2, 69388, Control_c, 0, 64, 64
2, 69404, Control_c, 0, 64, 66
2, 69419, Control_c, 0, 64, 68
2, 69419, Note_on_c, 0, 50, 0
2, 69433, Control_c, 0, 64, 70
2, 69449, Control_c, 0, 64, 72
2, 69464, Control_c, 0, 64, 74
2, 69480, Control_c, 0, 64, 75
2, 69495, Control_c, 0, 64, 76
2, 69509, Control_c, 0, 64, 77
2, 69554, Control_c, 0, 64, 77
2, 69676, Control_c, 0, 64, 78
2, 69762, Note_on_c, 0, 57, 0
2, 69780, Note_on_c, 0, 69, 75
2, 69782, Note_on_c, 0, 66, 0
2, 69785, Note_on_c, 0, 48, 58
2, 69897, Control_c, 0, 64, 77
2, 69898, Note_on_c, 0, 48, 0
2, 69906, Note_on_c, 0, 46, 64
2, 69912, Control_c, 0, 64, 74
2, 69916, Note_on_c, 0, 74, 79
2, 69928, Control_c, 0, 64, 70
2, 69928, Note_on_c, 0, 69, 0
2, 69943, Control_c, 0, 64, 59
2, 69958, Control_c, 0, 64, 0
2, 70065, Control_c, 0, 64, 28
2, 70081, Control_c, 0, 64, 52
2, 70096, Control_c, 0, 64, 57
2, 70111, Control_c, 0, 64, 60
2, 70127, Control_c, 0, 64, 62
2, 70142, Control_c, 0, 64, 63
2, 70156, Control_c, 0, 64, 64
2, 70172, Control_c, 0, 64, 66
2, 70187, Control_c, 0, 64, 67
2, 70202, Control_c, 0, 64, 69
2, 70217, Control_c, 0, 64, 70
2, 70232, Control_c, 0, 64, 71
2, 70248, Control_c, 0, 64, 72
2, 70277, Control_c, 0, 64, 72
2, 70293, Control_c, 0, 64, 73
2, 70308, Control_c, 0, 64, 73
2, 70324, Control_c, 0, 64, 74
2, 70461, Note_on_c, 0, 69, 76
2, 70472, Note_on_c, 0, 54, 57
2, 70560, Control_c, 0, 64, 73
2, 70574, Control_c, 0, 64, 71
2, 70579, Note_on_c, 0, 70, 79
2, 70589, Control_c, 0, 64, 67
2, 70591, Note_on_c, 0, 69, 0
2, 70598, Note_on_c, 0, 54, 0
2, 70602, Note_on_c, 0, 55, 64
2, 70605, Control_c, 0, 64, 61
2, 70619, Control_c, 0, 64, 21
2, 70634, Control_c, 0, 64, 0
2, 70741, Control_c, 0, 64, 43
2, 70756, Control_c, 0, 64, 57
2, 70773, Control_c, 0, 64, 62
2, 70788, Control_c, 0, 64, 64
2, 70803, Control_c, 0, 64, 65
2, 70818, Control_c, 0, 64, 68
2, 70829, Note_on_c, 0, 70, 0
2, 70833, Control_c, 0, 64, 70
2, 70848, Control_c, 0, 64, 72
2, 70863, Control_c, 0, 64, 74
2, 70878, Control_c, 0, 64, 76
2, 70894, Control_c, 0, 64, 78
2, 70909, Control_c, 0, 64, 79
2, 70925, Control_c, 0, 64, 80
2, 70940, Control_c, 0, 64, 80
2, 70954, Control_c, 0, 64, 81
2, 71001, Control_c, 0, 64, 81
2, 71046, Control_c, 0, 64, 82
2, 71137, Control_c, 0, 64, 82
2, 71144, Note_on_c, 0, 66, 74
2, 71147, Note_on_c, 0, 57, 66
2, 71178, Note_on_c, 0, 57, 0
2, 71181, Control_c, 0, 64, 83
2, 71212, Note_on_c, 0, 66, 0
2, 71254, Note_on_c, 0, 55, 0
2, 71264, Control_c, 0, 64, 81
2, 71270, Note_on_c, 0, 67, 84
2, 71280, Control_c, 0, 64, 77
2, 71281, Note_on_c, 0, 58, 76
2, 71295, Control_c, 0, 64, 70
2, 71310, Control_c, 0, 64, 44
2, 71326, Control_c, 0, 64, 0
2, 71431, Control_c, 0, 64, 34
2, 71447, Control_c, 0, 64, 56
2, 71462, Control_c, 0, 64, 62
2, 71477, Control_c, 0, 64, 64
2, 71477, Note_on_c, 0, 46, 0
2, 71493, Control_c, 0, 64, 66
2, 71508, Control_c, 0, 64, 68
2, 71524, Control_c, 0, 64, 70
2, 71538, Control_c, 0, 64, 72
2, 71553, Control_c, 0, 64, 73
2, 71569, Control_c, 0, 64, 75
2, 71585, Control_c, 0, 64, 75
2, 71600, Control_c, 0, 64, 76
2, 71615, Control_c, 0, 64, 77
2, 71630, Control_c, 0, 64, 78
2, 71646, Control_c, 0, 64, 78
2, 71706, Control_c, 0, 64, 79
2, 71827, Control_c, 0, 64, 79
2, 71829, Note_on_c, 0, 46, 80
2, 71873, Control_c, 0, 64, 80
2, 71908, Note_on_c, 0, 46, 0
2, 71934, Control_c, 0, 64, 78
2, 71948, Note_on_c, 0, 48, 88
2, 71950, Control_c, 0, 64, 74
2, 71965, Control_c, 0, 64, 64
2, 71980, Control_c, 0, 64, 0
2, 72095, Control_c, 0, 64, 42
2, 72109, Control_c, 0, 64, 59
2, 72125, Control_c, 0, 64, 63
2, 72140, Control_c, 0, 64, 65
2, 72155, Control_c, 0, 64, 68
2, 72171, Control_c, 0, 64, 71
2, 72185, Control_c, 0, 64, 75
2, 72201, Control_c, 0, 64, 79
2, 72216, Control_c, 0, 64, 81
2, 72230, Control_c, 0, 64, 81
2, 72232, Note_on_c, 0, 48, 0
2, 72246, Control_c, 0, 64, 82
2, 72261, Control_c, 0, 64, 82
2, 72276, Control_c, 0, 64, 83
2, 72322, Control_c, 0, 64, 83
2, 72397, Control_c, 0, 64, 84
2, 72459, Control_c, 0, 64, 84
2, 72512, Note_on_c, 0, 50, 78
2, 72521, Control_c, 0, 64, 83
2, 72536, Control_c, 0, 64, 81
2, 72551, Control_c, 0, 64, 76
2, 72566, Control_c, 0, 64, 67
2, 72581, Control_c, 0, 64, 0
2, 72634, Note_on_c, 0, 50, 0
2, 72634, Note_on_c, 0, 51, 84
2, 72646, Note_on_c, 0, 74, 0
2, 72877, Control_c, 0, 64, 52
2, 72893, Control_c, 0, 64, 62
2, 72908, Control_c, 0, 64, 65
2, 72924, Control_c, 0, 64, 67
2, 72939, Control_c, 0, 64, 71
2, 72953, Control_c, 0, 64, 75
2, 72969, Control_c, 0, 64, 78
2, 72971, Note_on_c, 0, 58, 0
2, 72984, Control_c, 0, 64, 79
2, 73000, Control_c, 0, 64, 80
2, 73015, Control_c, 0, 64, 80
2, 73029, Control_c, 0, 64, 81
2, 73105, Control_c, 0, 64, 81
2, 73235, Note_on_c, 0, 79, 85
2, 73236, Note_on_c, 0, 58, 69
2, 73334, Control_c, 0, 64, 81
2, 73349, Control_c, 0, 64, 77
2, 73349, Note_on_c, 0, 72, 89
2, 73351, Note_on_c, 0, 57, 71
2, 73364, Note_on_c, 0, 58, 0
2, 73365, Control_c, 0, 64, 69
2, 73379, Control_c, 0, 64, 45
2, 73380, Note_on_c, 0, 79, 0
2, 73394, Control_c, 0, 64, 0
2, 73547, Control_c, 0, 64, 37
2, 73570, Control_c, 0, 64, 56
2, 73584, Control_c, 0, 64, 61
2, 73600, Control_c, 0, 64, 64
2, 73615, Control_c, 0, 64, 67
2, 73630, Control_c, 0, 64, 71
2, 73646, Control_c, 0, 64, 75
2, 73661, Control_c, 0, 64, 78
2, 73675, Control_c, 0, 64, 80
2, 73691, Control_c, 0, 64, 81
2, 73706, Control_c, 0, 64, 82
2, 73722, Control_c, 0, 64, 82
2, 73752, Control_c, 0, 64, 83
2, 73901, Note_on_c, 0, 57, 0
2, 73930, Note_on_c, 0, 75, 84
2, 73943, Note_on_c, 0, 67, 0
2, 73948, Note_on_c, 0, 58, 66
2, 73948, Note_on_c, 0, 72, 0
2, 73987, Note_on_c, 0, 75, 0
2, 74025, Note_on_c, 0, 58, 0
2, 74057, Control_c, 0, 64, 81
2, 74058, Note_on_c, 0, 69, 90
2, 74065, Note_on_c, 0, 65, 82
2, 74072, Control_c, 0, 64, 76
2, 74072, Note_on_c, 0, 60, 69
2, 74088, Control_c, 0, 64, 65
2, 74102, Control_c, 0, 64, 0
2, 74177, Note_on_c, 0, 65, 0
2, 74177, Note_on_c, 0, 65, 3
2, 74209, Control_c, 0, 64, 42
2, 74223, Control_c, 0, 64, 61
2, 74238, Control_c, 0, 64, 64
2, 74254, Control_c, 0, 64, 67
2, 74269, Control_c, 0, 64, 70
2, 74285, Control_c, 0, 64, 73
2, 74300, Control_c, 0, 64, 77
2, 74307, Note_on_c, 0, 65, 0
2, 74323, Control_c, 0, 64, 79
2, 74338, Control_c, 0, 64, 81
2, 74345, Note_on_c, 0, 69, 0
2, 74368, Control_c, 0, 64, 81
2, 74398, Control_c, 0, 64, 82
2, 74414, Control_c, 0, 64, 82
2, 74428, Control_c, 0, 64, 83
2, 74444, Control_c, 0, 64, 83
2, 74649, Note_on_c, 0, 65, 85
2, 74654, Note_on_c, 0, 57, 60
2, 74667, Note_on_c, 0, 60, 0
2, 74716, Note_on_c, 0, 65, 0
2, 74764, Control_c, 0, 64, 83
2, 74768, Note_on_c, 0, 69, 95
2, 74774, Note_on_c, 0, 53, 69
2, 74778, Control_c, 0, 64, 79
2, 74789, Note_on_c, 0, 57, 0
2, 74793, Control_c, 0, 64, 72
2, 74809, Control_c, 0, 64, 54
2, 74824, Control_c, 0, 64, 0
2, 74915, Control_c, 0, 64, 46
2, 74931, Control_c, 0, 64, 62
2, 74946, Control_c, 0, 64, 65
2, 74962, Control_c, 0, 64, 67
2, 74977, Control_c, 0, 64, 69
2, 74991, Control_c, 0, 64, 72
2, 75007, Control_c, 0, 64, 75
2, 75021, Control_c, 0, 64, 78
2, 75036, Control_c, 0, 64, 79
2, 75052, Control_c, 0, 64, 80
2, 75083, Control_c, 0, 64, 80
2, 75105, Control_c, 0, 64, 81
2, 75120, Control_c, 0, 64, 81
2, 75150, Control_c, 0, 64, 82
2, 75258, Note_on_c, 0, 69, 0
2, 75331, Note_on_c, 0, 53, 0
2, 75347, Note_on_c, 0, 57, 71
2, 75348, Control_c, 0, 64, 82
2, 75348, Note_on_c, 0, 72, 87
2, 75358, Note_on_c, 0, 51, 0
2, 75379, Control_c, 0, 64, 83
2, 75402, Note_on_c, 0, 72, 0
2, 75424, Control_c, 0, 64, 82
2, 75440, Control_c, 0, 64, 81
2, 75455, Control_c, 0, 64, 75
2, 75470, Control_c, 0, 64, 65
2, 75470, Note_on_c, 0, 77, 99
2, 75477, Note_on_c, 0, 62, 73
2, 75485, Control_c, 0, 64, 0
2, 75497, Note_on_c, 0, 57, 0
2, 75621, Control_c, 0, 64, 57
2, 75636, Control_c, 0, 64, 63
2, 75651, Control_c, 0, 64, 66
2, 75666, Control_c, 0, 64, 68
2, 75684, Control_c, 0, 64, 70
2, 75699, Control_c, 0, 64, 72
2, 75713, Control_c, 0, 64, 75
2, 75729, Control_c, 0, 64, 76
2, 75744, Control_c, 0, 64, 77
2, 75774, Control_c, 0, 64, 78
2, 75806, Control_c, 0, 64, 78
2, 75821, Control_c, 0, 64, 79
2, 75874, Control_c, 0, 64, 79
2, 75965, Control_c, 0, 64, 80
2, 75995, Control_c, 0, 64, 81
2, 76011, Control_c, 0, 64, 81
2, 76026, Control_c, 0, 64, 82
2, 76041, Control_c, 0, 64, 83
2, 76056, Control_c, 0, 64, 84
2, 76058, Note_on_c, 0, 65, 87
2, 76069, Note_on_c, 0, 50, 73
2, 76071, Control_c, 0, 64, 85
2, 76106, Note_on_c, 0, 65, 0
2, 76132, Control_c, 0, 64, 84
2, 76147, Control_c, 0, 64, 81
2, 76162, Control_c, 0, 64, 73
2, 76176, Note_on_c, 0, 50, 0
2, 76177, Control_c, 0, 64, 50
2, 76181, Note_on_c, 0, 51, 79
2, 76185, Note_on_c, 0, 67, 97
2, 76192, Control_c, 0, 64, 0
2, 76361, Control_c, 0, 64, 48
2, 76375, Control_c, 0, 64, 59
2, 76388, Note_on_c, 0, 67, 0
2, 76390, Control_c, 0, 64, 63
2, 76406, Control_c, 0, 64, 66
2, 76421, Control_c, 0, 64, 68
2, 76436, Control_c, 0, 64, 71
2, 76451, Control_c, 0, 64, 74
2, 76456, Note_on_c, 0, 51, 0
2, 76466, Control_c, 0, 64, 76
2, 76482, Control_c, 0, 64, 78
2, 76498, Control_c, 0, 64, 79
2, 76513, Control_c, 0, 64, 80
2, 76543, Control_c, 0, 64, 81
2, 76574, Control_c, 0, 64, 81
2, 76589, Control_c, 0, 64, 82
2, 76657, Control_c, 0, 64, 82
2, 76703, Control_c, 0, 64, 83
2, 76748, Control_c, 0, 64, 83
2, 76809, Control_c, 0, 64, 84
2, 76829, Note_on_c, 0, 69, 94
2, 76836, Note_on_c, 0, 53, 75
2, 76840, Control_c, 0, 64, 84
2, 76855, Control_c, 0, 64, 85
2, 76870, Control_c, 0, 64, 85
2, 76883, Note_on_c, 0, 69, 0
2, 76885, Control_c, 0, 64, 86
2, 76900, Control_c, 0, 64, 88
2, 76915, Control_c, 0, 64, 89
2, 76931, Control_c, 0, 64, 89
2, 76968, Note_on_c, 0, 53, 0
2, 76991, Control_c, 0, 64, 88
2, 76993, Note_on_c, 0, 55, 76
2, 76993, Note_on_c, 0, 70, 97
2, 77007, Control_c, 0, 64, 84
2, 77021, Control_c, 0, 64, 76
2, 77036, Control_c, 0, 64, 62
2, 77052, Control_c, 0, 64, 0
2, 77217, Note_on_c, 0, 77, 0
2, 77234, Control_c, 0, 64, 20
2, 77250, Control_c, 0, 64, 56
2, 77265, Control_c, 0, 64, 62
2, 77281, Control_c, 0, 64, 64
2, 77295, Control_c, 0, 64, 65
2, 77310, Control_c, 0, 64, 67
2, 77327, Control_c, 0, 64, 69
2, 77342, Control_c, 0, 64, 71
2, 77356, Control_c, 0, 64, 73
2, 77372, Control_c, 0, 64, 75
2, 77387, Control_c, 0, 64, 76
2, 77410, Control_c, 0, 64, 76
2, 77425, Control_c, 0, 64, 77
2, 77455, Control_c, 0, 64, 77
2, 77486, Control_c, 0, 64, 78
2, 77501, Control_c, 0, 64, 78
2, 77531, Control_c, 0, 64, 79
2, 77562, Control_c, 0, 64, 79
2, 77592, Control_c, 0, 64, 80
2, 77608, Control_c, 0, 64, 80
2, 77623, Control_c, 0, 64, 81
2, 77634, Note_on_c, 0, 82, 91
2, 77638, Control_c, 0, 64, 81
2, 77653, Control_c, 0, 64, 82
2, 77684, Control_c, 0, 64, 82
2, 77699, Control_c, 0, 64, 82
2, 77729, Control_c, 0, 64, 80
2, 77744, Control_c, 0, 64, 75
2, 77752, Note_on_c, 0, 82, 0
2, 77760, Control_c, 0, 64, 65
2, 77775, Control_c, 0, 64, 0
2, 77779, Note_on_c, 0, 79, 96
2, 77835, Control_c, 0, 64, 60
2, 77851, Control_c, 0, 64, 64
2, 77865, Control_c, 0, 64, 66
2, 77881, Control_c, 0, 64, 68
2, 77896, Control_c, 0, 64, 69
2, 77910, Control_c, 0, 64, 72
2, 77926, Control_c, 0, 64, 75
2, 77941, Control_c, 0, 64, 78
2, 77956, Control_c, 0, 64, 79
2, 77972, Control_c, 0, 64, 80
2, 77987, Control_c, 0, 64, 80
2, 78032, Control_c, 0, 64, 81
2, 78048, Control_c, 0, 64, 81
2, 78078, Control_c, 0, 64, 82
2, 78094, Control_c, 0, 64, 82
2, 78108, Control_c, 0, 64, 83
2, 78140, Control_c, 0, 64, 83
2, 78178, Control_c, 0, 64, 84
2, 78193, Control_c, 0, 64, 84
2, 78238, Control_c, 0, 64, 85
2, 78269, Control_c, 0, 64, 85
2, 78277, Note_on_c, 0, 74, 71
2, 78299, Control_c, 0, 64, 86
2, 78323, Note_on_c, 0, 79, 0
2, 78330, Control_c, 0, 64, 86
2, 78345, Control_c, 0, 64, 87
2, 78356, Note_on_c, 0, 74, 0
2, 78361, Control_c, 0, 64, 87
2, 78424, Note_on_c, 0, 76, 75
2, 78452, Control_c, 0, 64, 86
2, 78464, Note_on_c, 0, 76, 0
2, 78467, Control_c, 0, 64, 82
2, 78469, Note_on_c, 0, 77, 74
2, 78482, Control_c, 0, 64, 76
2, 78497, Control_c, 0, 64, 67
2, 78512, Control_c, 0, 64, 13
2, 78528, Control_c, 0, 64, 0
2, 78531, Note_on_c, 0, 76, 72
2, 78549, Note_on_c, 0, 77, 0
2, 78740, Control_c, 0, 64, 32
2, 78754, Control_c, 0, 64, 41
2, 78770, Control_c, 0, 64, 47
2, 78785, Control_c, 0, 64, 54
2, 78801, Control_c, 0, 64, 59
2, 78816, Control_c, 0, 64, 62
2, 78830, Control_c, 0, 64, 63
2, 78846, Control_c, 0, 64, 64
2, 78861, Control_c, 0, 64, 65
2, 78876, Control_c, 0, 64, 66
2, 78892, Control_c, 0, 64, 68
2, 78907, Control_c, 0, 64, 69
2, 78923, Control_c, 0, 64, 70
2, 78945, Control_c, 0, 64, 70
2, 79022, Control_c, 0, 64, 69
2, 79023, Note_on_c, 0, 62, 0
2, 79037, Control_c, 0, 64, 66
2, 79042, Note_on_c, 0, 61, 68
2, 79053, Control_c, 0, 64, 62
2, 79067, Control_c, 0, 64, 44
2, 79083, Control_c, 0, 64, 0
2, 79154, Note_on_c, 0, 61, 0
2, 79161, Note_on_c, 0, 60, 68
2, 79250, Control_c, 0, 64, 46
2, 79265, Control_c, 0, 64, 57
2, 79280, Control_c, 0, 64, 62
2, 79295, Control_c, 0, 64, 64
2, 79310, Control_c, 0, 64, 66
2, 79326, Control_c, 0, 64, 70
2, 79341, Control_c, 0, 64, 74
2, 79356, Control_c, 0, 64, 78
2, 79361, Note_on_c, 0, 76, 0
2, 79372, Control_c, 0, 64, 80
2, 79387, Control_c, 0, 64, 81
2, 79402, Control_c, 0, 64, 82
2, 79432, Control_c, 0, 64, 82
2, 79448, Control_c, 0, 64, 83
2, 79463, Control_c, 0, 64, 83
2, 79508, Control_c, 0, 64, 84
2, 79555, Note_on_c, 0, 55, 0
2, 79694, Note_on_c, 0, 76, 73
2, 79708, Note_on_c, 0, 58, 54
2, 79718, Note_on_c, 0, 60, 0
2, 79734, Note_on_c, 0, 70, 0
2, 79790, Control_c, 0, 64, 83
2, 79806, Control_c, 0, 64, 81
2, 79806, Note_on_c, 0, 58, 0
2, 79821, Control_c, 0, 64, 78
2, 79828, Note_on_c, 0, 77, 75
2, 79834, Note_on_c, 0, 53, 55
2, 79835, Control_c, 0, 64, 72
2, 79851, Control_c, 0, 64, 61
2, 79853, Note_on_c, 0, 60, 47
2, 79866, Control_c, 0, 64, 10
2, 79873, Note_on_c, 0, 76, 0
2, 79882, Control_c, 0, 64, 0
2, 80353, Note_on_c, 0, 70, 69
2, 80454, Note_on_c, 0, 70, 0
2, 80461, Note_on_c, 0, 68, 70
2, 80634, Control_c, 0, 64, 26
2, 80650, Control_c, 0, 64, 51
2, 80665, Control_c, 0, 64, 61
2, 80680, Control_c, 0, 64, 64
2, 80695, Control_c, 0, 64, 66
2, 80710, Control_c, 0, 64, 69
2, 80726, Control_c, 0, 64, 72
2, 80741, Control_c, 0, 64, 76
2, 80755, Control_c, 0, 64, 79
2, 80771, Control_c, 0, 64, 80
2, 80786, Control_c, 0, 64, 81
2, 80816, Control_c, 0, 64, 81
2, 80847, Control_c, 0, 64, 82
2, 80855, Note_on_c, 0, 68, 0
2, 80876, Control_c, 0, 64, 82
2, 80980, Note_on_c, 0, 67, 69
2, 81040, Note_on_c, 0, 67, 0
2, 81059, Control_c, 0, 64, 81
2, 81074, Control_c, 0, 64, 78
2, 81090, Control_c, 0, 64, 72
2, 81096, Note_on_c, 0, 68, 70
2, 81105, Control_c, 0, 64, 63
2, 81121, Control_c, 0, 64, 0
2, 81196, Control_c, 0, 64, 30
2, 81211, Control_c, 0, 64, 55
2, 81226, Control_c, 0, 64, 59
2, 81249, Control_c, 0, 64, 61
2, 81264, Control_c, 0, 64, 63
2, 81280, Control_c, 0, 64, 65
2, 81295, Control_c, 0, 64, 67
2, 81310, Control_c, 0, 64, 70
2, 81326, Control_c, 0, 64, 74
2, 81341, Control_c, 0, 64, 76
2, 81356, Control_c, 0, 64, 77
2, 81363, Note_on_c, 0, 60, 0
2, 81386, Control_c, 0, 64, 78
2, 81417, Control_c, 0, 64, 78
2, 81432, Control_c, 0, 64, 79
2, 81451, Note_on_c, 0, 77, 0
2, 81463, Control_c, 0, 64, 79
2, 81662, Note_on_c, 0, 60, 53
2, 81669, Note_on_c, 0, 75, 71
2, 81751, Control_c, 0, 64, 78
2, 81767, Control_c, 0, 64, 76
2, 81782, Control_c, 0, 64, 71
2, 81785, Note_on_c, 0, 74, 78
2, 81792, Note_on_c, 0, 65, 67
2, 81796, Control_c, 0, 64, 61
2, 81800, Note_on_c, 0, 60, 0
2, 81812, Control_c, 0, 64, 0
2, 81814, Note_on_c, 0, 75, 0
2, 81934, Control_c, 0, 64, 24
2, 81949, Control_c, 0, 64, 57
2, 81965, Control_c, 0, 64, 63
2, 81980, Control_c, 0, 64, 65
2, 81995, Control_c, 0, 64, 69
2, 81996, Note_on_c, 0, 65, 0
2, 82017, Control_c, 0, 64, 73
2, 82019, Note_on_c, 0, 74, 0
2, 82032, Control_c, 0, 64, 78
2, 82048, Control_c, 0, 64, 81
2, 82062, Control_c, 0, 64, 84
2, 82077, Control_c, 0, 64, 84
2, 82093, Control_c, 0, 64, 85
2, 82108, Control_c, 0, 64, 86
2, 82124, Control_c, 0, 64, 86
2, 82139, Control_c, 0, 64, 87
2, 82169, Control_c, 0, 64, 87
2, 82184, Control_c, 0, 64, 88
2, 82200, Control_c, 0, 64, 88
2, 82215, Control_c, 0, 64, 89
2, 82230, Control_c, 0, 64, 89
2, 82261, Control_c, 0, 64, 90
2, 82276, Control_c, 0, 64, 90
2, 82307, Control_c, 0, 64, 91
2, 82318, Note_on_c, 0, 63, 72
2, 82320, Note_on_c, 0, 77, 86
2, 82322, Control_c, 0, 64, 91
2, 82335, Note_on_c, 0, 68, 0
2, 82337, Control_c, 0, 64, 92
2, 82362, Note_on_c, 0, 63, 0
2, 82363, Note_on_c, 0, 77, 0
2, 82429, Control_c, 0, 64, 91
2, 82444, Control_c, 0, 64, 89
2, 82459, Control_c, 0, 64, 85
2, 82463, Note_on_c, 0, 71, 79
2, 82464, Note_on_c, 0, 67, 79
2, 82469, Note_on_c, 0, 62, 78
2, 82474, Control_c, 0, 64, 78
2, 82489, Control_c, 0, 64, 67
2, 82504, Control_c, 0, 64, 15
2, 82520, Control_c, 0, 64, 0
2, 82527, Note_on_c, 0, 62, 0
2, 82545, Note_on_c, 0, 62, 53
2, 82687, Control_c, 0, 64, 50
2, 82702, Control_c, 0, 64, 60
2, 82717, Control_c, 0, 64, 64
2, 82724, Note_on_c, 0, 53, 0
2, 82733, Control_c, 0, 64, 67
2, 82748, Control_c, 0, 64, 71
2, 82764, Control_c, 0, 64, 74
2, 82786, Control_c, 0, 64, 76
2, 82802, Control_c, 0, 64, 77
2, 82817, Control_c, 0, 64, 78
2, 83034, Note_on_c, 0, 55, 82
2, 83091, Control_c, 0, 64, 76
2, 83101, Note_on_c, 0, 55, 0
2, 83106, Control_c, 0, 64, 70
2, 83122, Control_c, 0, 64, 55
2, 83136, Control_c, 0, 64, 0
2, 83152, Note_on_c, 0, 50, 84
2, 83227, Control_c, 0, 64, 39
2, 83243, Control_c, 0, 64, 60
2, 83258, Control_c, 0, 64, 64
2, 83273, Control_c, 0, 64, 66
2, 83288, Control_c, 0, 64, 69
2, 83303, Control_c, 0, 64, 72
2, 83318, Control_c, 0, 64, 76
2, 83334, Control_c, 0, 64, 78
2, 83349, Control_c, 0, 64, 80
2, 83365, Control_c, 0, 64, 80
2, 83380, Control_c, 0, 64, 81
2, 83386, Note_on_c, 0, 50, 0
2, 83389, Note_on_c, 0, 62, 0
2, 83395, Control_c, 0, 64, 81
2, 83410, Control_c, 0, 64, 82
2, 83425, Control_c, 0, 64, 82
2, 83456, Control_c, 0, 64, 83
2, 83521, Note_on_c, 0, 71, 0
2, 83530, Control_c, 0, 64, 83
2, 83583, Control_c, 0, 64, 84
2, 83614, Control_c, 0, 64, 84
2, 83673, Control_c, 0, 64, 85
2, 83704, Note_on_c, 0, 53, 86
2, 83750, Control_c, 0, 64, 85
2, 83761, Note_on_c, 0, 53, 0
2, 83780, Control_c, 0, 64, 85
2, 83795, Control_c, 0, 64, 84
2, 83811, Control_c, 0, 64, 79
2, 83812, Note_on_c, 0, 63, 81
2, 83814, Note_on_c, 0, 72, 89
2, 83820, Note_on_c, 0, 51, 84
2, 83826, Control_c, 0, 64, 70
2, 83842, Control_c, 0, 64, 38
2, 83857, Control_c, 0, 64, 0
2, 83979, Control_c, 0, 64, 55
2, 83994, Control_c, 0, 64, 63
2, 84010, Control_c, 0, 64, 66
2, 84025, Control_c, 0, 64, 69
2, 84041, Control_c, 0, 64, 72
2, 84055, Control_c, 0, 64, 75
2, 84070, Control_c, 0, 64, 77
2, 84086, Control_c, 0, 64, 78
2, 84100, Control_c, 0, 64, 79
2, 84115, Control_c, 0, 64, 80
2, 84131, Control_c, 0, 64, 80
2, 84135, Note_on_c, 0, 51, 0
2, 84146, Control_c, 0, 64, 81
2, 84162, Control_c, 0, 64, 81
2, 84191, Control_c, 0, 64, 82
2, 84252, Control_c, 0, 64, 82
2, 84336, Control_c, 0, 64, 83
2, 84366, Note_on_c, 0, 48, 89
2, 84367, Control_c, 0, 64, 84
2, 84382, Control_c, 0, 64, 84
2, 84396, Control_c, 0, 64, 85
2, 84413, Note_on_c, 0, 48, 0
2, 84458, Control_c, 0, 64, 84
2, 84472, Control_c, 0, 64, 81
2, 84480, Note_on_c, 0, 43, 91
2, 84488, Control_c, 0, 64, 75
2, 84503, Control_c, 0, 64, 63
2, 84517, Control_c, 0, 64, 0
2, 84688, Control_c, 0, 64, 56
2, 84703, Control_c, 0, 64, 63
2, 84719, Control_c, 0, 64, 66
2, 84734, Control_c, 0, 64, 69
2, 84740, Note_on_c, 0, 67, 0
2, 84748, Control_c, 0, 64, 73
2, 84764, Control_c, 0, 64, 78
2, 84779, Control_c, 0, 64, 81
2, 84795, Control_c, 0, 64, 82
2, 84810, Control_c, 0, 64, 83
2, 84841, Control_c, 0, 64, 83
2, 84871, Control_c, 0, 64, 84
2, 84901, Control_c, 0, 64, 84
2, 84932, Note_on_c, 0, 43, 0
2, 85043, Note_on_c, 0, 46, 83
2, 85053, Control_c, 0, 64, 85
2, 85106, Note_on_c, 0, 46, 0
2, 85137, Control_c, 0, 64, 84
2, 85153, Control_c, 0, 64, 81
2, 85167, Control_c, 0, 64, 74
2, 85170, Note_on_c, 0, 45, 90
2, 85182, Control_c, 0, 64, 61
2, 85198, Control_c, 0, 64, 0
2, 85395, Control_c, 0, 64, 49
2, 85410, Control_c, 0, 64, 58
2, 85425, Control_c, 0, 64, 60
2, 85440, Control_c, 0, 64, 63
2, 85455, Control_c, 0, 64, 65
2, 85470, Control_c, 0, 64, 68
2, 85486, Control_c, 0, 64, 71
2, 85501, Control_c, 0, 64, 75
2, 85518, Control_c, 0, 64, 77
2, 85533, Control_c, 0, 64, 77
2, 85547, Control_c, 0, 64, 78
2, 85578, Control_c, 0, 64, 78
2, 85593, Control_c, 0, 64, 79
2, 85608, Control_c, 0, 64, 79
2, 85623, Control_c, 0, 64, 80
2, 85737, Note_on_c, 0, 74, 78
2, 85821, Control_c, 0, 64, 78
2, 85837, Control_c, 0, 64, 72
2, 85859, Control_c, 0, 64, 57
2, 85859, Note_on_c, 0, 75, 87
2, 85867, Note_on_c, 0, 55, 79
2, 85875, Control_c, 0, 64, 0
2, 85895, Note_on_c, 0, 72, 0
2, 85901, Note_on_c, 0, 74, 0
2, 85997, Control_c, 0, 64, 32
2, 86011, Control_c, 0, 64, 59
2, 86026, Control_c, 0, 64, 64
2, 86042, Control_c, 0, 64, 66
2, 86057, Control_c, 0, 64, 69
2, 86073, Control_c, 0, 64, 73
2, 86087, Control_c, 0, 64, 77
2, 86102, Control_c, 0, 64, 80
2, 86118, Control_c, 0, 64, 81
2, 86178, Control_c, 0, 64, 81
2, 86189, Note_on_c, 0, 75, 0
2, 86194, Control_c, 0, 64, 82
2, 86208, Control_c, 0, 64, 82
2, 86223, Control_c, 0, 64, 83
2, 86239, Control_c, 0, 64, 83
2, 86284, Control_c, 0, 64, 84
2, 86418, Note_on_c, 0, 70, 85
2, 86422, Control_c, 0, 64, 84
2, 86483, Control_c, 0, 64, 84
2, 86498, Control_c, 0, 64, 82
2, 86506, Note_on_c, 0, 70, 0
2, 86513, Control_c, 0, 64, 76
2, 86528, Control_c, 0, 64, 67
2, 86528, Note_on_c, 0, 72, 90
2, 86533, Note_on_c, 0, 54, 77
2, 86543, Control_c, 0, 64, 0
2, 86547, Note_on_c, 0, 55, 0
2, 86734, Note_on_c, 0, 63, 0
2, 87115, Note_on_c, 0, 67, 75
2, 87219, Note_on_c, 0, 67, 0
2, 87223, Note_on_c, 0, 57, 69
2, 87225, Note_on_c, 0, 66, 80
2, 87235, Note_on_c, 0, 54, 0
2, 87456, Control_c, 0, 64, 50
2, 87471, Control_c, 0, 64, 60
2, 87486, Control_c, 0, 64, 63
2, 87501, Control_c, 0, 64, 65
2, 87517, Control_c, 0, 64, 67
2, 87532, Control_c, 0, 64, 70
2, 87545, Note_on_c, 0, 45, 0
2, 87546, Control_c, 0, 64, 74
2, 87562, Control_c, 0, 64, 76
2, 87577, Control_c, 0, 64, 77
2, 87593, Control_c, 0, 64, 78
2, 87608, Control_c, 0, 64, 78
2, 87622, Control_c, 0, 64, 79
2, 87638, Control_c, 0, 64, 79
2, 87684, Control_c, 0, 64, 80
2, 87815, Note_on_c, 0, 69, 76
2, 87861, Note_on_c, 0, 66, 0
2, 87911, Control_c, 0, 64, 79
2, 87927, Control_c, 0, 64, 77
2, 87934, Note_on_c, 0, 62, 78
2, 87940, Note_on_c, 0, 46, 67
2, 87941, Control_c, 0, 64, 71
2, 87953, Note_on_c, 0, 69, 0
2, 87957, Control_c, 0, 64, 57
2, 87974, Control_c, 0, 64, 0
2, 88029, Note_on_c, 0, 72, 0
2, 88140, Control_c, 0, 64, 48
2, 88164, Control_c, 0, 64, 58
2, 88178, Control_c, 0, 64, 63
2, 88194, Control_c, 0, 64, 65
2, 88207, Control_c, 0, 64, 67
2, 88222, Control_c, 0, 64, 69
2, 88237, Control_c, 0, 64, 71
2, 88252, Control_c, 0, 64, 73
2, 88263, Note_on_c, 0, 57, 0
2, 88265, Control_c, 0, 64, 75
2, 88280, Control_c, 0, 64, 76
2, 88296, Control_c, 0, 64, 76
2, 88325, Control_c, 0, 64, 77
2, 88341, Control_c, 0, 64, 77
2, 88517, Note_on_c, 0, 72, 80
2, 88569, Control_c, 0, 64, 76
2, 88584, Control_c, 0, 64, 73
2, 88599, Control_c, 0, 64, 67
2, 88615, Control_c, 0, 64, 52
2, 88630, Control_c, 0, 64, 0
2, 88639, Note_on_c, 0, 74, 81
2, 88642, Note_on_c, 0, 55, 64
2, 88668, Note_on_c, 0, 72, 0
2, 88875, Control_c, 0, 64, 51
2, 88890, Control_c, 0, 64, 63
2, 88905, Control_c, 0, 64, 66
2, 88928, Control_c, 0, 64, 70
2, 88943, Control_c, 0, 64, 73
2, 88958, Control_c, 0, 64, 76
2, 88973, Control_c, 0, 64, 78
2, 88988, Control_c, 0, 64, 79
2, 89208, Note_on_c, 0, 74, 0
2, 89221, Note_on_c, 0, 55, 0
2, 89223, Note_on_c, 0, 69, 77
2, 89238, Note_on_c, 0, 54, 52
2, 89277, Control_c, 0, 64, 78
2, 89293, Control_c, 0, 64, 76
2, 89307, Control_c, 0, 64, 72
2, 89322, Control_c, 0, 64, 64
2, 89338, Control_c, 0, 64, 0
2, 89342, Note_on_c, 0, 54, 0
2, 89345, Note_on_c, 0, 70, 76
2, 89354, Note_on_c, 0, 55, 54
2, 89368, Note_on_c, 0, 69, 0
2, 89809, Note_on_c, 0, 62, 0
2, 89934, Note_on_c, 0, 66, 68
2, 90052, Note_on_c, 0, 66, 0
2, 90052, Note_on_c, 0, 67, 69
2, 90241, Control_c, 0, 64, 54
2, 90257, Control_c, 0, 64, 60
2, 90272, Control_c, 0, 64, 63
2, 90288, Control_c, 0, 64, 65
2, 90289, Note_on_c, 0, 46, 0
2, 90303, Control_c, 0, 64, 69
2, 90318, Control_c, 0, 64, 73
2, 90333, Control_c, 0, 64, 78
2, 90348, Control_c, 0, 64, 79
2, 90425, Control_c, 0, 64, 79
2, 90614, Note_on_c, 0, 67, 0
2, 90619, Note_on_c, 0, 62, 66
2, 90651, Note_on_c, 0, 62, 0
2, 90737, Control_c, 0, 64, 78
2, 90746, Note_on_c, 0, 63, 73
2, 90752, Control_c, 0, 64, 74
2, 90754, Note_on_c, 0, 48, 58
2, 90768, Control_c, 0, 64, 65
2, 90782, Control_c, 0, 64, 0
2, 90934, Control_c, 0, 64, 25
2, 90949, Control_c, 0, 64, 57
2, 90964, Control_c, 0, 64, 63
2, 90980, Control_c, 0, 64, 65
2, 90994, Control_c, 0, 64, 67
2, 91010, Control_c, 0, 64, 70
2, 91025, Control_c, 0, 64, 74
2, 91029, Note_on_c, 0, 70, 0
2, 91039, Control_c, 0, 64, 77
2, 91055, Control_c, 0, 64, 79
2, 91070, Control_c, 0, 64, 79
2, 91116, Control_c, 0, 64, 80
2, 91159, Note_on_c, 0, 55, 0
2, 91359, Note_on_c, 0, 75, 81
2, 91459, Control_c, 0, 64, 79
2, 91474, Control_c, 0, 64, 77
2, 91476, Note_on_c, 0, 67, 81
2, 91489, Control_c, 0, 64, 71
2, 91491, Note_on_c, 0, 60, 71
2, 91504, Control_c, 0, 64, 61
2, 91508, Note_on_c, 0, 75, 0
2, 91519, Control_c, 0, 64, 0
2, 91657, Control_c, 0, 64, 50
2, 91672, Control_c, 0, 64, 59
2, 91687, Control_c, 0, 64, 63
2, 91702, Control_c, 0, 64, 66
2, 91717, Control_c, 0, 64, 70
2, 91733, Control_c, 0, 64, 73
2, 91748, Control_c, 0, 64, 76
2, 91762, Control_c, 0, 64, 78
2, 91778, Control_c, 0, 64, 79
2, 91793, Control_c, 0, 64, 80
2, 91809, Control_c, 0, 64, 80
2, 91815, Note_on_c, 0, 67, 0
2, 92059, Control_c, 0, 64, 81
2, 92074, Note_on_c, 0, 70, 84
2, 92091, Control_c, 0, 64, 81
2, 92136, Control_c, 0, 64, 80
2, 92151, Control_c, 0, 64, 75
2, 92167, Control_c, 0, 64, 66
2, 92182, Control_c, 0, 64, 0
2, 92188, Note_on_c, 0, 68, 86
2, 92212, Note_on_c, 0, 70, 0
2, 92333, Control_c, 0, 64, 42
2, 92348, Control_c, 0, 64, 57
2, 92363, Control_c, 0, 64, 63
2, 92379, Control_c, 0, 64, 66
2, 92394, Control_c, 0, 64, 69
2, 92409, Control_c, 0, 64, 75
2, 92424, Control_c, 0, 64, 79
2, 92439, Control_c, 0, 64, 82
2, 92455, Control_c, 0, 64, 82
2, 92485, Control_c, 0, 64, 83
2, 92501, Note_on_c, 0, 68, 0
2, 92531, Control_c, 0, 64, 84
2, 92536, Note_on_c, 0, 60, 0
2, 92546, Control_c, 0, 64, 84
2, 92769, Note_on_c, 0, 60, 84
2, 92843, Control_c, 0, 64, 82
2, 92858, Control_c, 0, 64, 77
2, 92872, Note_on_c, 0, 72, 90
2, 92873, Control_c, 0, 64, 67
2, 92885, Note_on_c, 0, 55, 76
2, 92889, Control_c, 0, 64, 0
2, 92907, Note_on_c, 0, 60, 0
2, 92996, Control_c, 0, 64, 31
2, 93012, Control_c, 0, 64, 63
2, 93027, Control_c, 0, 64, 66
2, 93041, Control_c, 0, 64, 69
2, 93057, Control_c, 0, 64, 74
2, 93072, Control_c, 0, 64, 79
2, 93086, Control_c, 0, 64, 85
2, 93102, Control_c, 0, 64, 87
2, 93148, Control_c, 0, 64, 88
2, 93202, Note_on_c, 0, 72, 0
2, 93296, Note_on_c, 0, 63, 0
2, 93405, Control_c, 0, 64, 88
2, 93421, Control_c, 0, 64, 89
2, 93436, Control_c, 0, 64, 90
2, 93452, Control_c, 0, 64, 92
2, 93463, Note_on_c, 0, 58, 88
2, 93467, Control_c, 0, 64, 93
2, 93482, Control_c, 0, 64, 94
2, 93483, Note_on_c, 0, 55, 0
2, 93512, Control_c, 0, 64, 94
2, 93550, Control_c, 0, 64, 91
2, 93565, Control_c, 0, 64, 84
2, 93580, Control_c, 0, 64, 69
2, 93588, Note_on_c, 0, 66, 95
2, 93590, Note_on_c, 0, 58, 0
2, 93594, Note_on_c, 0, 57, 88
2, 93595, Control_c, 0, 64, 0
2, 93595, Note_on_c, 0, 62, 77
2, 93686, Note_on_c, 0, 48, 0
2, 93766, Control_c, 0, 64, 29
2, 93781, Control_c, 0, 64, 56
2, 93796, Control_c, 0, 64, 62
2, 93812, Control_c, 0, 64, 65
2, 93827, Control_c, 0, 64, 67
2, 93843, Control_c, 0, 64, 71
2, 93857, Control_c, 0, 64, 75
2, 93872, Control_c, 0, 64, 79
2, 93888, Control_c, 0, 64, 81
2, 93903, Control_c, 0, 64, 82
2, 93918, Control_c, 0, 64, 82
2, 93933, Control_c, 0, 64, 83
2, 93948, Control_c, 0, 64, 83
2, 93964, Control_c, 0, 64, 84
2, 93979, Control_c, 0, 64, 84
2, 93994, Control_c, 0, 64, 85
2, 94055, Control_c, 0, 64, 85
2, 94085, Control_c, 0, 64, 86
2, 94145, Control_c, 0, 64, 86
2, 94186, Note_on_c, 0, 50, 85
2, 94236, Control_c, 0, 64, 86
2, 94246, Note_on_c, 0, 50, 0
2, 94252, Control_c, 0, 64, 82
2, 94266, Control_c, 0, 64, 73
2, 94282, Control_c, 0, 64, 54
2, 94304, Control_c, 0, 64, 0
2, 94307, Note_on_c, 0, 45, 91
2, 94442, Control_c, 0, 64, 54
2, 94457, Control_c, 0, 64, 65
2, 94471, Control_c, 0, 64, 70
2, 94487, Control_c, 0, 64, 74
2, 94502, Control_c, 0, 64, 78
2, 94517, Control_c, 0, 64, 80
2, 94533, Control_c, 0, 64, 82
2, 94548, Control_c, 0, 64, 83
2, 94548, Note_on_c, 0, 45, 0
2, 94564, Control_c, 0, 64, 83
2, 94577, Note_on_c, 0, 57, 0
2, 94594, Control_c, 0, 64, 84
2, 94610, Control_c, 0, 64, 85
2, 94625, Control_c, 0, 64, 86
2, 94641, Control_c, 0, 64, 87
2, 94655, Control_c, 0, 64, 88
2, 94670, Control_c, 0, 64, 89
2, 94731, Control_c, 0, 64, 90
2, 94744, Note_on_c, 0, 66, 0
2, 94875, Note_on_c, 0, 48, 89
2, 94925, Note_on_c, 0, 48, 0
2, 94974, Control_c, 0, 64, 87
2, 94988, Control_c, 0, 64, 80
2, 95004, Control_c, 0, 64, 67
2, 95004, Note_on_c, 0, 46, 95
2, 95004, Note_on_c, 0, 58, 94
2, 95006, Note_on_c, 0, 67, 92
2, 95019, Control_c, 0, 64, 0
2, 95209, Control_c, 0, 64, 51
2, 95224, Control_c, 0, 64, 67
2, 95239, Control_c, 0, 64, 72
2, 95255, Control_c, 0, 64, 77
2, 95270, Control_c, 0, 64, 80
2, 95286, Control_c, 0, 64, 84
2, 95298, Note_on_c, 0, 46, 0
2, 95300, Control_c, 0, 64, 87
2, 95315, Control_c, 0, 64, 91
2, 95331, Control_c, 0, 64, 94
2, 95346, Control_c, 0, 64, 96
2, 95362, Control_c, 0, 64, 97
2, 95392, Control_c, 0, 64, 97
2, 95557, Note_on_c, 0, 43, 89
2, 95606, Control_c, 0, 64, 97
2, 95615, Note_on_c, 0, 43, 0
2, 95620, Control_c, 0, 64, 93
2, 95635, Control_c, 0, 64, 83
2, 95651, Control_c, 0, 64, 69
2, 95666, Control_c, 0, 64, 0
2, 95685, Note_on_c, 0, 38, 95
2, 95842, Control_c, 0, 64, 44
2, 95857, Control_c, 0, 64, 61
2, 95872, Control_c, 0, 64, 65
2, 95888, Control_c, 0, 64, 68
2, 95903, Control_c, 0, 64, 72
2, 95917, Control_c, 0, 64, 77
2, 95933, Control_c, 0, 64, 81
2, 95948, Control_c, 0, 64, 83
2, 95961, Note_on_c, 0, 38, 0
2, 95963, Control_c, 0, 64, 83
2, 95978, Control_c, 0, 64, 84
2, 96009, Control_c, 0, 64, 84
2, 96024, Control_c, 0, 64, 85
2, 96036, Control_c, 0, 64, 85
2, 96052, Control_c, 0, 64, 86
2, 96112, Control_c, 0, 64, 86
2, 96143, Control_c, 0, 64, 87
2, 96159, Control_c, 0, 64, 87
2, 96175, Control_c, 0, 64, 88
2, 96189, Control_c, 0, 64, 88
2, 96204, Control_c, 0, 64, 89
2, 96255, Note_on_c, 0, 41, 96
2, 96296, Control_c, 0, 64, 88
2, 96311, Control_c, 0, 64, 86
2, 96312, Note_on_c, 0, 41, 0
2, 96326, Control_c, 0, 64, 79
2, 96341, Control_c, 0, 64, 68
2, 96356, Control_c, 0, 64, 0
2, 96369, Note_on_c, 0, 39, 88
2, 96462, Note_on_c, 0, 58, 0
2, 96568, Control_c, 0, 64, 36
2, 96583, Control_c, 0, 64, 53
2, 96605, Control_c, 0, 64, 62
2, 96621, Control_c, 0, 64, 67
2, 96636, Control_c, 0, 64, 71
2, 96652, Control_c, 0, 64, 77
2, 96667, Control_c, 0, 64, 82
2, 96681, Control_c, 0, 64, 83
2, 96697, Control_c, 0, 64, 84
2, 96713, Note_on_c, 0, 67, 0
2, 96726, Control_c, 0, 64, 84
2, 96977, Note_on_c, 0, 66, 88
2, 97032, Control_c, 0, 64, 83
2, 97046, Control_c, 0, 64, 79
2, 97062, Control_c, 0, 64, 71
2, 97077, Control_c, 0, 64, 49
2, 97085, Note_on_c, 0, 67, 92
2, 97090, Note_on_c, 0, 51, 90
2, 97093, Control_c, 0, 64, 0
2, 97114, Note_on_c, 0, 66, 0
2, 97215, Control_c, 0, 64, 52
2, 97229, Control_c, 0, 64, 62
2, 97244, Control_c, 0, 64, 66
2, 97251, Note_on_c, 0, 39, 0
2, 97260, Control_c, 0, 64, 69
2, 97275, Control_c, 0, 64, 73
2, 97291, Control_c, 0, 64, 76
2, 97306, Control_c, 0, 64, 79
2, 97320, Control_c, 0, 64, 80
2, 97336, Control_c, 0, 64, 81
2, 97351, Control_c, 0, 64, 82
2, 97374, Control_c, 0, 64, 82
2, 97389, Control_c, 0, 64, 83
2, 97404, Control_c, 0, 64, 83
2, 97450, Control_c, 0, 64, 84
2, 97450, Note_on_c, 0, 51, 0
2, 97496, Control_c, 0, 64, 84
2, 97541, Control_c, 0, 64, 85
2, 97571, Control_c, 0, 64, 85
2, 97601, Control_c, 0, 64, 86
2, 97634, Note_on_c, 0, 62, 0
2, 97646, Control_c, 0, 64, 86
2, 97662, Control_c, 0, 64, 87
2, 97669, Note_on_c, 0, 70, 88
2, 97674, Note_on_c, 0, 50, 67
2, 97677, Control_c, 0, 64, 88
2, 97693, Control_c, 0, 64, 88
2, 97704, Note_on_c, 0, 67, 0
2, 97753, Control_c, 0, 64, 85
2, 97769, Control_c, 0, 64, 77
2, 97784, Control_c, 0, 64, 64
2, 97791, Note_on_c, 0, 50, 0
2, 97796, Note_on_c, 0, 51, 74
2, 97799, Control_c, 0, 64, 0
2, 97801, Note_on_c, 0, 61, 76
2, 97821, Note_on_c, 0, 63, 61
2, 97846, Note_on_c, 0, 63, 0
2, 97897, Note_on_c, 0, 70, 0
2, 97983, Control_c, 0, 64, 50
2, 97997, Control_c, 0, 64, 59
2, 98013, Control_c, 0, 64, 61
2, 98028, Control_c, 0, 64, 62
2, 98043, Control_c, 0, 64, 64
2, 98059, Control_c, 0, 64, 66
2, 98073, Control_c, 0, 64, 69
2, 98089, Control_c, 0, 64, 73
2, 98104, Control_c, 0, 64, 76
2, 98119, Control_c, 0, 64, 77
2, 98142, Control_c, 0, 64, 78
2, 98157, Control_c, 0, 64, 79
2, 98172, Control_c, 0, 64, 79
2, 98202, Control_c, 0, 64, 80
2, 98233, Control_c, 0, 64, 80
2, 98309, Control_c, 0, 64, 81
2, 98324, Control_c, 0, 64, 81
2, 98340, Control_c, 0, 64, 82
2, 98370, Control_c, 0, 64, 82
2, 98383, Note_on_c, 0, 51, 0
2, 98386, Note_on_c, 0, 70, 78
2, 98393, Note_on_c, 0, 54, 57
2, 98415, Control_c, 0, 64, 83
2, 98451, Note_on_c, 0, 70, 0
2, 98485, Note_on_c, 0, 54, 0
2, 98503, Note_on_c, 0, 69, 83
2, 98519, Note_on_c, 0, 55, 61
2, 98521, Control_c, 0, 64, 82
2, 98524, Note_on_c, 0, 52, 56
2, 98536, Control_c, 0, 64, 77
2, 98551, Control_c, 0, 64, 69
2, 98566, Control_c, 0, 64, 41
2, 98582, Control_c, 0, 64, 0
2, 98690, Control_c, 0, 64, 28
2, 98705, Control_c, 0, 64, 55
2, 98719, Control_c, 0, 64, 63
2, 98735, Control_c, 0, 64, 66
2, 98750, Control_c, 0, 64, 69
2, 98765, Control_c, 0, 64, 73
2, 98781, Control_c, 0, 64, 76
2, 98796, Control_c, 0, 64, 79
2, 98811, Control_c, 0, 64, 80
2, 98827, Control_c, 0, 64, 81
2, 98841, Control_c, 0, 64, 82
2, 98872, Control_c, 0, 64, 82
2, 98888, Control_c, 0, 64, 83
2, 98911, Control_c, 0, 64, 83
2, 98925, Control_c, 0, 64, 84
2, 98941, Control_c, 0, 64, 84
2, 98956, Control_c, 0, 64, 85
2, 99017, Control_c, 0, 64, 85
2, 99055, Note_on_c, 0, 55, 0
2, 99086, Note_on_c, 0, 69, 0
2, 99096, Note_on_c, 0, 67, 73
2, 99115, Note_on_c, 0, 57, 54
2, 99119, Note_on_c, 0, 52, 0
2, 99172, Note_on_c, 0, 61, 0
2, 99215, Control_c, 0, 64, 85
2, 99227, Note_on_c, 0, 66, 79
2, 99230, Control_c, 0, 64, 83
2, 99232, Note_on_c, 0, 67, 0
2, 99234, Note_on_c, 0, 62, 74
2, 99245, Control_c, 0, 64, 78
2, 99245, Note_on_c, 0, 58, 63
2, 99249, Note_on_c, 0, 57, 0
2, 99255, Note_on_c, 0, 50, 52
2, 99260, Control_c, 0, 64, 72
2, 99275, Control_c, 0, 64, 61
2, 99291, Control_c, 0, 64, 36
2, 99306, Control_c, 0, 64, 0
2, 99823, Note_on_c, 0, 62, 0
2, 99835, Note_on_c, 0, 61, 66
2, 99933, Note_on_c, 0, 61, 0
2, 99943, Note_on_c, 0, 62, 71
2, 100084, Note_on_c, 0, 66, 0
2, 100165, Control_c, 0, 64, 37
2, 100180, Control_c, 0, 64, 60
2, 100195, Control_c, 0, 64, 64
2, 100211, Control_c, 0, 64, 65
2, 100225, Control_c, 0, 64, 66
2, 100240, Control_c, 0, 64, 67
2, 100257, Control_c, 0, 64, 71
2, 100272, Control_c, 0, 64, 75
2, 100288, Control_c, 0, 64, 77
2, 100303, Control_c, 0, 64, 78
2, 100393, Control_c, 0, 64, 79
2, 100490, Note_on_c, 0, 66, 81
2, 100522, Control_c, 0, 64, 78
2, 100552, Control_c, 0, 64, 76
2, 100568, Control_c, 0, 64, 72
2, 100583, Control_c, 0, 64, 64
2, 100598, Control_c, 0, 64, 33
2, 100613, Control_c, 0, 64, 0
2, 100621, Note_on_c, 0, 67, 81
2, 100624, Note_on_c, 0, 66, 0
2, 100735, Control_c, 0, 64, 10
2, 100749, Control_c, 0, 64, 57
2, 100764, Control_c, 0, 64, 61
2, 100780, Control_c, 0, 64, 63
2, 100795, Control_c, 0, 64, 64
2, 100811, Control_c, 0, 64, 66
2, 100826, Control_c, 0, 64, 69
2, 100841, Control_c, 0, 64, 73
2, 100857, Control_c, 0, 64, 75
2, 100871, Control_c, 0, 64, 75
2, 100875, Note_on_c, 0, 58, 0
2, 100886, Control_c, 0, 64, 76
2, 100902, Control_c, 0, 64, 76
2, 100917, Control_c, 0, 64, 77
2, 100947, Control_c, 0, 64, 77
2, 101014, Note_on_c, 0, 62, 0
2, 101158, Note_on_c, 0, 61, 68
2, 101163, Note_on_c, 0, 58, 60
2, 101244, Control_c, 0, 64, 77
2, 101269, Note_on_c, 0, 61, 0
2, 101275, Control_c, 0, 64, 76
2, 101291, Control_c, 0, 64, 75
2, 101294, Note_on_c, 0, 58, 0
2, 101296, Note_on_c, 0, 62, 71
2, 101302, Note_on_c, 0, 57, 62
2, 101305, Control_c, 0, 64, 72
2, 101320, Control_c, 0, 64, 69
2, 101336, Control_c, 0, 64, 63
2, 101351, Control_c, 0, 64, 54
2, 101366, Control_c, 0, 64, 40
2, 101381, Control_c, 0, 64, 0
2, 101883, Note_on_c, 0, 55, 55
2, 101889, Note_on_c, 0, 57, 0
2, 102015, Note_on_c, 0, 55, 0
2, 102021, Note_on_c, 0, 57, 60
2, 102226, Control_c, 0, 64, 32
2, 102240, Control_c, 0, 64, 53
2, 102251, Note_on_c, 0, 67, 0
2, 102256, Control_c, 0, 64, 59
2, 102271, Control_c, 0, 64, 63
2, 102285, Control_c, 0, 64, 65
2, 102301, Control_c, 0, 64, 67
2, 102316, Control_c, 0, 64, 70
2, 102332, Control_c, 0, 64, 73
2, 102347, Control_c, 0, 64, 75
2, 102361, Control_c, 0, 64, 77
2, 102377, Control_c, 0, 64, 78
2, 102392, Control_c, 0, 64, 78
2, 102408, Control_c, 0, 64, 79
2, 102423, Control_c, 0, 64, 80
2, 102453, Control_c, 0, 64, 80
2, 102483, Control_c, 0, 64, 81
2, 102584, Note_on_c, 0, 62, 0
2, 102590, Note_on_c, 0, 70, 74
2, 102633, Note_on_c, 0, 70, 0
2, 102697, Control_c, 0, 64, 80
2, 102712, Control_c, 0, 64, 77
2, 102716, Note_on_c, 0, 69, 77
2, 102728, Control_c, 0, 64, 72
2, 102743, Note_on_c, 0, 60, 53
2, 102751, Control_c, 0, 64, 64
2, 102766, Control_c, 0, 64, 34
2, 102782, Control_c, 0, 64, 0
2, 102903, Control_c, 0, 64, 30
2, 102917, Control_c, 0, 64, 53
2, 102933, Control_c, 0, 64, 60
2, 102948, Control_c, 0, 64, 63
2, 102963, Control_c, 0, 64, 65
2, 102979, Control_c, 0, 64, 67
2, 102993, Control_c, 0, 64, 71
2, 103009, Control_c, 0, 64, 74
2, 103014, Note_on_c, 0, 69, 0
2, 103024, Control_c, 0, 64, 78
2, 103039, Control_c, 0, 64, 81
2, 103055, Control_c, 0, 64, 82
2, 103070, Control_c, 0, 64, 82
2, 103085, Control_c, 0, 64, 83
2, 103101, Control_c, 0, 64, 84
2, 103116, Control_c, 0, 64, 85
2, 103131, Control_c, 0, 64, 86
2, 103146, Control_c, 0, 64, 86
2, 103192, Control_c, 0, 64, 87
2, 103222, Control_c, 0, 64, 87
2, 103237, Control_c, 0, 64, 88
2, 103268, Control_c, 0, 64, 88
2, 103311, Note_on_c, 0, 72, 75
2, 103337, Note_on_c, 0, 72, 0
2, 103446, Note_on_c, 0, 66, 78
2, 103449, Control_c, 0, 64, 88
2, 103464, Control_c, 0, 64, 86
2, 103479, Control_c, 0, 64, 82
2, 103495, Control_c, 0, 64, 77
2, 103518, Control_c, 0, 64, 71
2, 103535, Control_c, 0, 64, 63
2, 103550, Control_c, 0, 64, 36
2, 103564, Control_c, 0, 64, 0
2, 104055, Note_on_c, 0, 63, 72
2, 104075, Note_on_c, 0, 60, 0
2, 104176, Note_on_c, 0, 62, 71
2, 104208, Note_on_c, 0, 63, 0
2, 104363, Control_c, 0, 64, 43
2, 104379, Control_c, 0, 64, 58
2, 104394, Control_c, 0, 64, 63
2, 104409, Control_c, 0, 64, 65
2, 104424, Control_c, 0, 64, 67
2, 104435, Note_on_c, 0, 57, 0
2, 104439, Control_c, 0, 64, 69
2, 104439, Note_on_c, 0, 50, 0
2, 104455, Control_c, 0, 64, 71
2, 104470, Control_c, 0, 64, 74
2, 104484, Control_c, 0, 64, 77
2, 104500, Control_c, 0, 64, 79
2, 104515, Control_c, 0, 64, 80
2, 104530, Control_c, 0, 64, 81
2, 104545, Control_c, 0, 64, 82
2, 104560, Control_c, 0, 64, 82
2, 104576, Control_c, 0, 64, 83
2, 104591, Control_c, 0, 64, 84
2, 104605, Control_c, 0, 64, 84
2, 104621, Control_c, 0, 64, 85
2, 104712, Control_c, 0, 64, 85
2, 104841, Note_on_c, 0, 60, 79
2, 104877, Note_on_c, 0, 62, 0
2, 104890, Note_on_c, 0, 66, 0
2, 104987, Control_c, 0, 64, 83
2, 104992, Note_on_c, 0, 67, 90
2, 105003, Control_c, 0, 64, 78
2, 105005, Note_on_c, 0, 55, 82
2, 105008, Note_on_c, 0, 43, 76
2, 105017, Control_c, 0, 64, 70
2, 105032, Control_c, 0, 64, 58
2, 105056, Control_c, 0, 64, 0
2, 105648, Note_on_c, 0, 57, 75
2, 105655, Note_on_c, 0, 60, 0
2, 105780, Note_on_c, 0, 59, 74
2, 105784, Note_on_c, 0, 57, 0
2, 106037, Control_c, 0, 64, 32
2, 106053, Control_c, 0, 64, 53
2, 106068, Control_c, 0, 64, 60
2, 106084, Control_c, 0, 64, 64
2, 106099, Control_c, 0, 64, 66
2, 106114, Control_c, 0, 64, 69
2, 106130, Control_c, 0, 64, 72
2, 106139, Note_on_c, 0, 67, 0
2, 106145, Control_c, 0, 64, 76
2, 106161, Control_c, 0, 64, 78
2, 106175, Control_c, 0, 64, 79
2, 106190, Control_c, 0, 64, 79
2, 106220, Control_c, 0, 64, 80
2, 106377, Note_on_c, 0, 65, 76
2, 106418, Control_c, 0, 64, 79
2, 106432, Control_c, 0, 64, 77
2, 106448, Control_c, 0, 64, 73
2, 106463, Control_c, 0, 64, 66
2, 106478, Control_c, 0, 64, 48
2, 106494, Control_c, 0, 64, 0
2, 106501, Note_on_c, 0, 63, 77
2, 106503, Note_on_c, 0, 65, 0
2, 106653, Control_c, 0, 64, 15
2, 106668, Control_c, 0, 64, 46
2, 106684, Control_c, 0, 64, 57
2, 106699, Control_c, 0, 64, 62
2, 106713, Control_c, 0, 64, 64
2, 106729, Control_c, 0, 64, 65
2, 106744, Control_c, 0, 64, 67
2, 106746, Note_on_c, 0, 59, 0
2, 106759, Control_c, 0, 64, 68
2, 106775, Control_c, 0, 64, 69
2, 106790, Control_c, 0, 64, 70
2, 106806, Control_c, 0, 64, 71
2, 106821, Control_c, 0, 64, 72
2, 106836, Control_c, 0, 64, 72
2, 106852, Control_c, 0, 64, 73
2, 106988, Control_c, 0, 64, 73
2, 107117, Note_on_c, 0, 59, 66
2, 107186, Control_c, 0, 64, 72
2, 107193, Note_on_c, 0, 59, 0
2, 107201, Control_c, 0, 64, 70
2, 107216, Control_c, 0, 64, 65
2, 107231, Control_c, 0, 64, 53
2, 107239, Note_on_c, 0, 60, 68
2, 107247, Control_c, 0, 64, 0
2, 107421, Control_c, 0, 64, 42
2, 107436, Control_c, 0, 64, 55
2, 107452, Control_c, 0, 64, 61
2, 107467, Control_c, 0, 64, 63
2, 107479, Note_on_c, 0, 63, 0
2, 107482, Control_c, 0, 64, 65
2, 107497, Control_c, 0, 64, 68
2, 107512, Control_c, 0, 64, 71
2, 107528, Control_c, 0, 64, 74
2, 107543, Control_c, 0, 64, 75
2, 107557, Control_c, 0, 64, 76
2, 107588, Control_c, 0, 64, 76
2, 107650, Control_c, 0, 64, 77
2, 107816, Note_on_c, 0, 63, 73
2, 107820, Note_on_c, 0, 55, 0
2, 107822, Note_on_c, 0, 54, 41
2, 107863, Control_c, 0, 64, 76
2, 107878, Control_c, 0, 64, 76
2, 107894, Control_c, 0, 64, 74
2, 107909, Control_c, 0, 64, 69
2, 107924, Control_c, 0, 64, 61
2, 107928, Note_on_c, 0, 60, 0
2, 107937, Note_on_c, 0, 54, 0
2, 107939, Control_c, 0, 64, 24
2, 107942, Note_on_c, 0, 62, 71
2, 107951, Note_on_c, 0, 55, 45
2, 107954, Control_c, 0, 64, 0
2, 107954, Note_on_c, 0, 60, 16
2, 107957, Note_on_c, 0, 63, 0
2, 108205, Control_c, 0, 64, 29
2, 108220, Control_c, 0, 64, 51
2, 108235, Control_c, 0, 64, 58
2, 108250, Control_c, 0, 64, 62
2, 108265, Control_c, 0, 64, 64
2, 108281, Control_c, 0, 64, 66
2, 108296, Control_c, 0, 64, 69
2, 108311, Control_c, 0, 64, 71
2, 108326, Control_c, 0, 64, 74
2, 108341, Control_c, 0, 64, 76
2, 108356, Control_c, 0, 64, 76
2, 108359, Note_on_c, 0, 60, 0
2, 108386, Control_c, 0, 64, 77
2, 108417, Control_c, 0, 64, 77
2, 108449, Control_c, 0, 64, 78
2, 108573, Note_on_c, 0, 60, 63
2, 108599, Control_c, 0, 64, 77
2, 108615, Control_c, 0, 64, 76
2, 108630, Control_c, 0, 64, 74
2, 108646, Control_c, 0, 64, 69
2, 108661, Control_c, 0, 64, 59
2, 108671, Note_on_c, 0, 60, 0
2, 108676, Control_c, 0, 64, 0
2, 108701, Note_on_c, 0, 59, 62
2, 108827, Control_c, 0, 64, 49
2, 108843, Control_c, 0, 64, 64
2, 108858, Control_c, 0, 64, 69
2, 108870, Note_on_c, 0, 59, 0
2, 108873, Control_c, 0, 64, 74
2, 108896, Control_c, 0, 64, 79
2, 108910, Note_on_c, 0, 55, 0
2, 108911, Control_c, 0, 64, 81
2, 108927, Control_c, 0, 64, 82
2, 108934, Note_on_c, 0, 62, 0
2, 108942, Control_c, 0, 64, 83
2, 108957, Control_c, 0, 64, 84
2, 108987, Control_c, 0, 64, 84
2, 109003, Control_c, 0, 64, 85
2, 109017, Control_c, 0, 64, 85
2, 109322, Note_on_c, 0, 67, 75
2, 109337, Note_on_c, 0, 53, 51
2, 109371, Note_on_c, 0, 53, 0
2, 109431, Note_on_c, 0, 51, 49
2, 109490, Control_c, 0, 64, 85
2, 109502, Note_on_c, 0, 51, 0
2, 109505, Control_c, 0, 64, 84
2, 109519, Control_c, 0, 64, 82
2, 109535, Control_c, 0, 64, 79
2, 109546, Note_on_c, 0, 50, 56
2, 109550, Control_c, 0, 64, 75
2, 109553, Note_on_c, 0, 77, 81
2, 109566, Control_c, 0, 64, 68
2, 109581, Control_c, 0, 64, 48
2, 109595, Control_c, 0, 64, 0
2, 109599, Note_on_c, 0, 67, 0
2, 109771, Control_c, 0, 64, 37
2, 109786, Control_c, 0, 64, 55
2, 109802, Control_c, 0, 64, 62
2, 109816, Control_c, 0, 64, 65
2, 109831, Control_c, 0, 64, 67
2, 109847, Control_c, 0, 64, 69
2, 109852, Note_on_c, 0, 43, 0
2, 109861, Control_c, 0, 64, 71
2, 109876, Control_c, 0, 64, 73
2, 109892, Control_c, 0, 64, 74
2, 109907, Control_c, 0, 64, 75
2, 109923, Control_c, 0, 64, 76
2, 109937, Control_c, 0, 64, 77
2, 109952, Control_c, 0, 64, 77
2, 109968, Control_c, 0, 64, 78
2, 109982, Control_c, 0, 64, 78
2, 109997, Control_c, 0, 64, 79
2, 110073, Control_c, 0, 64, 79
2, 110166, Note_on_c, 0, 50, 0
2, 110166, Note_on_c, 0, 72, 71
2, 110185, Note_on_c, 0, 43, 59
2, 110227, Control_c, 0, 64, 79
2, 110257, Control_c, 0, 64, 78
2, 110272, Control_c, 0, 64, 75
2, 110288, Control_c, 0, 64, 70
2, 110303, Control_c, 0, 64, 62
2, 110306, Note_on_c, 0, 72, 0
2, 110314, Note_on_c, 0, 71, 69
2, 110318, Control_c, 0, 64, 27
2, 110331, Note_on_c, 0, 55, 55
2, 110334, Control_c, 0, 64, 0
2, 110896, Note_on_c, 0, 77, 0
2, 110901, Note_on_c, 0, 74, 68
2, 111049, Note_on_c, 0, 75, 74
2, 111055, Note_on_c, 0, 74, 0
2, 111245, Control_c, 0, 64, 20
2, 111260, Control_c, 0, 64, 58
2, 111275, Control_c, 0, 64, 63
2, 111284, Note_on_c, 0, 71, 0
2, 111291, Control_c, 0, 64, 65
2, 111305, Control_c, 0, 64, 67
2, 111321, Control_c, 0, 64, 69
2, 111336, Control_c, 0, 64, 72
2, 111351, Control_c, 0, 64, 74
2, 111367, Control_c, 0, 64, 76
2, 111413, Control_c, 0, 64, 76
2, 111433, Note_on_c, 0, 55, 0
2, 111443, Control_c, 0, 64, 77
2, 111518, Control_c, 0, 64, 77
2, 111710, Note_on_c, 0, 67, 65
2, 111723, Note_on_c, 0, 53, 43
2, 111747, Control_c, 0, 64, 77
2, 111763, Control_c, 0, 64, 76
2, 111777, Control_c, 0, 64, 75
2, 111792, Control_c, 0, 64, 71
2, 111808, Control_c, 0, 64, 66
2, 111823, Control_c, 0, 64, 48
2, 111832, Note_on_c, 0, 67, 0
2, 111838, Control_c, 0, 64, 0
2, 111848, Note_on_c, 0, 53, 0
2, 111849, Note_on_c, 0, 72, 69
2, 111856, Note_on_c, 0, 51, 52
2, 111991, Note_on_c, 0, 75, 0
2, 111997, Control_c, 0, 64, 34
2, 112013, Control_c, 0, 64, 55
2, 112028, Control_c, 0, 64, 61
2, 112044, Control_c, 0, 64, 63
2, 112058, Control_c, 0, 64, 64
2, 112073, Control_c, 0, 64, 66
2, 112089, Control_c, 0, 64, 68
2, 112104, Control_c, 0, 64, 69
2, 112118, Control_c, 0, 64, 71
2, 112134, Control_c, 0, 64, 73
2, 112149, Control_c, 0, 64, 74
2, 112165, Control_c, 0, 64, 75
2, 112242, Control_c, 0, 64, 75
2, 112466, Note_on_c, 0, 51, 0
2, 112497, Note_on_c, 0, 74, 69
2, 112503, Note_on_c, 0, 55, 48
2, 112513, Control_c, 0, 64, 75
2, 112545, Control_c, 0, 64, 74
2, 112561, Control_c, 0, 64, 72
2, 112576, Control_c, 0, 64, 69
2, 112591, Control_c, 0, 64, 64
2, 112607, Control_c, 0, 64, 45
2, 112621, Control_c, 0, 64, 0
2, 112641, Note_on_c, 0, 55, 0
2, 112645, Note_on_c, 0, 75, 69
2, 112648, Note_on_c, 0, 74, 0
2, 112661, Note_on_c, 0, 48, 50
2, 112858, Control_c, 0, 64, 51
2, 112873, Control_c, 0, 64, 58
2, 112888, Control_c, 0, 64, 62
2, 112903, Control_c, 0, 64, 64
2, 112918, Control_c, 0, 64, 65
2, 112934, Control_c, 0, 64, 67
2, 112941, Note_on_c, 0, 72, 0
2, 112949, Control_c, 0, 64, 68
2, 112964, Control_c, 0, 64, 70
2, 112979, Control_c, 0, 64, 72
2, 112994, Control_c, 0, 64, 73
2, 113010, Control_c, 0, 64, 74
2, 113025, Control_c, 0, 64, 74
2, 113055, Control_c, 0, 64, 75
2, 113070, Control_c, 0, 64, 75
2, 113100, Control_c, 0, 64, 76
2, 113374, Note_on_c, 0, 72, 69
2, 113382, Note_on_c, 0, 51, 34
2, 113414, Note_on_c, 0, 75, 0
2, 113446, Note_on_c, 0, 51, 0
2, 113454, Note_on_c, 0, 48, 0
2, 113482, Note_on_c, 0, 50, 45
2, 113549, Control_c, 0, 64, 75
2, 113565, Control_c, 0, 64, 75
2, 113580, Control_c, 0, 64, 73
2, 113595, Control_c, 0, 64, 70
2, 113611, Control_c, 0, 64, 64
2, 113626, Control_c, 0, 64, 51
2, 113637, Note_on_c, 0, 79, 77
2, 113642, Control_c, 0, 64, 0
2, 113642, Note_on_c, 0, 51, 51
2, 113662, Note_on_c, 0, 50, 0
2, 113899, Control_c, 0, 64, 13
2, 113914, Control_c, 0, 64, 44
2, 113929, Control_c, 0, 64, 53
2, 113944, Control_c, 0, 64, 58
2, 113959, Control_c, 0, 64, 60
2, 113975, Control_c, 0, 64, 62
2, 113990, Control_c, 0, 64, 63
2, 114006, Control_c, 0, 64, 64
2, 114020, Control_c, 0, 64, 65
2, 114035, Control_c, 0, 64, 66
2, 114051, Control_c, 0, 64, 67
2, 114066, Control_c, 0, 64, 68
2, 114082, Control_c, 0, 64, 70
2, 114097, Control_c, 0, 64, 71
2, 114112, Control_c, 0, 64, 73
2, 114127, Control_c, 0, 64, 74
2, 114142, Control_c, 0, 64, 76
2, 114157, Control_c, 0, 64, 77
2, 114173, Control_c, 0, 64, 77
2, 114188, Control_c, 0, 64, 78
2, 114272, Control_c, 0, 64, 78
2, 114541, Note_on_c, 0, 78, 71
2, 114584, Note_on_c, 0, 79, 0
2, 114622, Control_c, 0, 64, 78
2, 114683, Control_c, 0, 64, 77
2, 114698, Control_c, 0, 64, 77
2, 114713, Control_c, 0, 64, 76
2, 114728, Control_c, 0, 64, 75
2, 114743, Control_c, 0, 64, 74
2, 114758, Control_c, 0, 64, 71
2, 114773, Control_c, 0, 64, 64
2, 114780, Note_on_c, 0, 78, 0
2, 114782, Note_on_c, 0, 79, 66
2, 114788, Control_c, 0, 64, 52
2, 114804, Control_c, 0, 64, 20
2, 114816, Note_on_c, 0, 50, 42
2, 114819, Control_c, 0, 64, 0
2, 114850, Note_on_c, 0, 51, 0
2, 115118, Note_on_c, 0, 72, 0
2, 115132, Control_c, 0, 64, 40
2, 115147, Control_c, 0, 64, 52
2, 115162, Control_c, 0, 64, 58
2, 115177, Control_c, 0, 64, 62
2, 115192, Control_c, 0, 64, 64
2, 115207, Control_c, 0, 64, 66
2, 115222, Control_c, 0, 64, 69
2, 115237, Control_c, 0, 64, 71
2, 115253, Control_c, 0, 64, 73
2, 115268, Control_c, 0, 64, 76
2, 115284, Control_c, 0, 64, 78
2, 115298, Control_c, 0, 64, 79
2, 115313, Control_c, 0, 64, 80
2, 115329, Control_c, 0, 64, 81
2, 115344, Control_c, 0, 64, 82
2, 115359, Control_c, 0, 64, 82
2, 115390, Control_c, 0, 64, 83
2, 115435, Control_c, 0, 64, 83
2, 115596, Note_on_c, 0, 72, 60
2, 115708, Control_c, 0, 64, 83
2, 115724, Control_c, 0, 64, 82
2, 115739, Control_c, 0, 64, 82
2, 115754, Control_c, 0, 64, 81
2, 115770, Control_c, 0, 64, 78
2, 115784, Control_c, 0, 64, 75
2, 115803, Note_on_c, 0, 74, 52
2, 115808, Control_c, 0, 64, 69
2, 115821, Note_on_c, 0, 72, 0
2, 115824, Control_c, 0, 64, 61
2, 115839, Control_c, 0, 64, 40
2, 115854, Control_c, 0, 64, 0
2, 116157, Control_c, 0, 64, 38
2, 116173, Control_c, 0, 64, 47
2, 116188, Control_c, 0, 64, 53
2, 116204, Control_c, 0, 64, 57
2, 116219, Control_c, 0, 64, 60
2, 116234, Control_c, 0, 64, 62
2, 116250, Control_c, 0, 64, 63
2, 116264, Control_c, 0, 64, 64
2, 116279, Control_c, 0, 64, 65
2, 116295, Control_c, 0, 64, 66
2, 116310, Control_c, 0, 64, 68
2, 116326, Control_c, 0, 64, 69
2, 116340, Control_c, 0, 64, 70
2, 116355, Control_c, 0, 64, 71
2, 116371, Control_c, 0, 64, 72
2, 116385, Control_c, 0, 64, 72
2, 116416, Control_c, 0, 64, 73
2, 116431, Control_c, 0, 64, 73
2, 116447, Control_c, 0, 64, 74
2, 116461, Control_c, 0, 64, 74
2, 116476, Control_c, 0, 64, 75
2, 116492, Control_c, 0, 64, 76
2, 116523, Control_c, 0, 64, 76
2, 116537, Control_c, 0, 64, 77
2, 116552, Control_c, 0, 64, 77
2, 116576, Control_c, 0, 64, 78
2, 116591, Control_c, 0, 64, 79
2, 116606, Control_c, 0, 64, 80
2, 116621, Control_c, 0, 64, 80
2, 116636, Control_c, 0, 64, 81
2, 116651, Control_c, 0, 64, 81
2, 116666, Control_c, 0, 64, 82
2, 116681, Control_c, 0, 64, 82
2, 116711, Control_c, 0, 64, 83
2, 116772, Control_c, 0, 64, 83
2, 116918, Note_on_c, 0, 69, 50
2, 117501, Note_on_c, 0, 71, 49
2, 117525, Control_c, 0, 64, 83
2, 117526, Note_on_c, 0, 69, 0
2, 117540, Control_c, 0, 64, 82
2, 117555, Control_c, 0, 64, 80
2, 117571, Control_c, 0, 64, 77
2, 117586, Control_c, 0, 64, 73
2, 117601, Control_c, 0, 64, 67
2, 117616, Control_c, 0, 64, 56
2, 117631, Control_c, 0, 64, 34
2, 117646, Control_c, 0, 64, 0
2, 118687, Control_c, 0, 64, 10
2, 118703, Control_c, 0, 64, 24
2, 118717, Control_c, 0, 64, 27
2, 118733, Control_c, 0, 64, 30
2, 118748, Control_c, 0, 64, 33
2, 118763, Control_c, 0, 64, 35
2, 118779, Control_c, 0, 64, 36
2, 118794, Control_c, 0, 64, 37
2, 118810, Control_c, 0, 64, 38
2, 118824, Control_c, 0, 64, 39
2, 118839, Control_c, 0, 64, 41
2, 118855, Control_c, 0, 64, 42
2, 118877, Control_c, 0, 64, 44
2, 118893, Control_c, 0, 64, 46
2, 118908, Control_c, 0, 64, 47
2, 118922, Control_c, 0, 64, 47
2, 119029, Control_c, 0, 64, 48
2, 119121, Control_c, 0, 64, 48
2, 119213, Control_c, 0, 64, 49
2, 119289, Control_c, 0, 64, 48
2, 119304, Control_c, 0, 64, 47
2, 119335, Control_c, 0, 64, 47
2, 119380, Control_c, 0, 64, 46
2, 119456, Control_c, 0, 64, 46
2, 119485, Control_c, 0, 64, 45
2, 119516, Control_c, 0, 64, 45
2, 119577, Control_c, 0, 64, 44
2, 119592, Control_c, 0, 64, 43
2, 119607, Control_c, 0, 64, 43
2, 119676, Control_c, 0, 64, 42
2, 119827, Control_c, 0, 64, 42
2, 120284, Control_c, 0, 64, 41
2, 121483, Control_c, 0, 64, 41
2, 121547, Note_on_c, 0, 43, 0
2, 121621, Control_c, 0, 64, 40
2, 121683, Note_on_c, 0, 79, 0
2, 121726, Control_c, 0, 64, 40
2, 121739, Note_on_c, 0, 50, 0
2, 121741, Note_on_c, 0, 71, 0
2, 121779, Note_on_c, 0, 74, 0
2, 121788, Control_c, 0, 64, 39
2, 121892, Control_c, 0, 64, 39
2, 122158, Control_c, 0, 64, 38
2, 122265, Control_c, 0, 64, 38
2, 122433, Control_c, 0, 64, 37
2, 122479, Control_c, 0, 64, 37
2, 122493, Control_c, 0, 64, 36
2, 122988, Control_c, 0, 64, 37
2, 123003, Control_c, 0, 64, 37
2, 123122,End_track
0, 0, End_of_file
