0, 0, Header, 1, 2, 384
1, 0, Start_track
1, 0, Tempo, 500000
1, 0, Time_signature, 4, 2, 24, 8
1, 1, End_track
2,0,Start_track
2,0, Note_on_c, 0, 62, 89
2,48, Control_c, 0, 64, 37
2,64, Control_c, 0, 64, 36
2,80, Control_c, 0, 64, 36
2,110, Control_c, 0, 64, 35
2,125, Control_c, 0, 64, 34
2,156, Control_c, 0, 64, 34
2,201, Control_c, 0, 64, 34
2,216, Control_c, 0, 64, 35
2,308, Control_c, 0, 64, 34
2,323, Control_c, 0, 64, 33
2,361, Control_c, 0, 64, 32
2,620, Control_c, 0, 64, 33
2,632, Note_on_c, 0, 62, 0
2,725, Control_c, 0, 64, 34
2,755, Control_c, 0, 64, 34
2,786, Control_c, 0, 64, 35
2,898, Note_on_c, 0, 58, 74
2,944, Note_on_c, 0, 58, 0
2,969, Control_c, 0, 64, 34
2,1015, Control_c, 0, 64, 34
2,1090, Control_c, 0, 64, 34
2,1241, Note_on_c, 0, 63, 90
2,1326, Control_c, 0, 64, 34
2,1342, Control_c, 0, 64, 33
2,1524, Control_c, 0, 64, 32
2,1554, Control_c, 0, 64, 32
2,1690, Control_c, 0, 64, 32
2,1721, Note_on_c, 0, 63, 0
2,1722, Control_c, 0, 64, 33
2,1828, Control_c, 0, 64, 32
2,1849, Note_on_c, 0, 60, 81
2,1859, Control_c, 0, 64, 32
2,1874, Control_c, 0, 64, 31
2,1898, Control_c, 0, 64, 30
2,2110, Control_c, 0, 64, 29
2,2140, Control_c, 0, 64, 29
2,2475, Note_on_c, 0, 60, 0
2,2487, Control_c, 0, 64, 29
2,2519, Control_c, 0, 64, 30
2,2534, Control_c, 0, 64, 31
2,2564, Control_c, 0, 64, 32
2,2595, Control_c, 0, 64, 32
2,2641, Control_c, 0, 64, 33
2,2739, Control_c, 0, 64, 34
2,2745, Note_on_c, 0, 57, 80
2,2788, Note_on_c, 0, 57, 0
2,2877, Control_c, 0, 64, 34
2,2953, Control_c, 0, 64, 35
2,2983, Control_c, 0, 64, 36
2,3072, Note_on_c, 0, 62, 91
2,3179, Control_c, 0, 64, 35
2,3255, Control_c, 0, 64, 34
2,3286, Control_c, 0, 64, 34
2,3317, Control_c, 0, 64, 33
2,3348, Control_c, 0, 64, 32
2,3377, Control_c, 0, 64, 32
2,3393, Control_c, 0, 64, 31
2,3431, Control_c, 0, 64, 30
2,3611, Note_on_c, 0, 62, 0
2,3705, Note_on_c, 0, 58, 77
2,4008, Control_c, 0, 64, 31
2,4053, Control_c, 0, 64, 32
2,4305, Control_c, 0, 64, 32
2,4305, Note_on_c, 0, 58, 0
2,4320, Control_c, 0, 64, 33
2,4335, Control_c, 0, 64, 34
2,4365, Control_c, 0, 64, 34
2,4396, Control_c, 0, 64, 35
2,4427, Control_c, 0, 64, 36
2,4591, Note_on_c, 0, 55, 77
2,4625, Control_c, 0, 64, 36
2,4629, Note_on_c, 0, 55, 0
2,4894, Note_on_c, 0, 60, 94
2,4913, Control_c, 0, 64, 37
2,4928, Control_c, 0, 64, 37
2,4937, Note_on_c, 0, 60, 0
2,5200, Note_on_c, 0, 60, 85
2,5241, Note_on_c, 0, 60, 0
2,5286, Control_c, 0, 64, 37
2,5393, Control_c, 0, 64, 36
2,5498, Control_c, 0, 64, 36
2,5499, Note_on_c, 0, 60, 77
2,5529, Control_c, 0, 64, 35
2,5536, Note_on_c, 0, 60, 0
2,5793, Note_on_c, 0, 60, 71
2,5827, Control_c, 0, 64, 34
2,5831, Note_on_c, 0, 60, 0
2,6069, Note_on_c, 0, 60, 70
2,6084, Control_c, 0, 64, 35
2,6110, Note_on_c, 0, 60, 0
2,6145, Control_c, 0, 64, 34
2,6336, Note_on_c, 0, 60, 75
2,6388, Note_on_c, 0, 60, 0
2,6480, Control_c, 0, 64, 34
2,6518, Control_c, 0, 64, 33
2,6609, Control_c, 0, 64, 32
2,6631, Note_on_c, 0, 60, 68
2,6777, Control_c, 0, 64, 33
2,6926, Note_on_c, 0, 60, 0
2,6935, Note_on_c, 0, 58, 51
2,6959, Control_c, 0, 64, 34
2,7054, Note_on_c, 0, 58, 0
2,7074, Note_on_c, 0, 57, 54
2,7172, Control_c, 0, 64, 34
2,7197, Note_on_c, 0, 57, 0
2,7212, Note_on_c, 0, 67, 86
2,7215, Note_on_c, 0, 58, 55
2,7316, Control_c, 0, 64, 34
2,7332, Note_on_c, 0, 58, 0
2,7357, Note_on_c, 0, 55, 53
2,7407, Control_c, 0, 64, 33
2,7487, Note_on_c, 0, 55, 0
2,7496, Note_on_c, 0, 58, 59
2,7499, Control_c, 0, 64, 32
2,7515, Control_c, 0, 64, 32
2,7530, Control_c, 0, 64, 30
2,7545, Control_c, 0, 64, 29
2,7560, Control_c, 0, 64, 27
2,7575, Control_c, 0, 64, 26
2,7591, Control_c, 0, 64, 24
2,7605, Control_c, 0, 64, 23
2,7617, Note_on_c, 0, 58, 0
2,7634, Note_on_c, 0, 60, 60
2,7636, Control_c, 0, 64, 21
2,7737, Note_on_c, 0, 60, 0
2,7743, Control_c, 0, 64, 23
2,7757, Control_c, 0, 64, 24
2,7768, Note_on_c, 0, 67, 0
2,7771, Note_on_c, 0, 62, 64
2,7788, Control_c, 0, 64, 25
2,7817, Control_c, 0, 64, 26
2,7848, Control_c, 0, 64, 27
2,7871, Note_on_c, 0, 62, 0
2,7899, Note_on_c, 0, 61, 63
2,7924, Control_c, 0, 64, 28
2,8004, Note_on_c, 0, 61, 0
2,8034, Note_on_c, 0, 65, 84
2,8036, Note_on_c, 0, 62, 73
2,8038, Control_c, 0, 64, 29
2,8053, Control_c, 0, 64, 29
2,8069, Control_c, 0, 64, 30
2,8073, Note_on_c, 0, 62, 0
2,8080, Note_on_c, 0, 65, 0
2,8083, Control_c, 0, 64, 31
2,8160, Control_c, 0, 64, 32
2,8339, Note_on_c, 0, 70, 91
2,8356, Note_on_c, 0, 62, 78
2,8373, Control_c, 0, 64, 31
2,8601, Control_c, 0, 64, 30
2,8614, Note_on_c, 0, 62, 0
2,8632, Control_c, 0, 64, 29
2,8635, Note_on_c, 0, 55, 60
2,8678, Control_c, 0, 64, 29
2,8709, Control_c, 0, 64, 28
2,8859, Note_on_c, 0, 70, 0
2,8883, Control_c, 0, 64, 27
2,8914, Control_c, 0, 64, 26
2,8930, Note_on_c, 0, 67, 84
2,8944, Note_on_c, 0, 55, 0
2,8959, Control_c, 0, 64, 25
2,9004, Control_c, 0, 64, 24
2,9019, Control_c, 0, 64, 23
2,9035, Control_c, 0, 64, 21
2,9059, Note_on_c, 0, 55, 61
2,9065, Control_c, 0, 64, 20
2,9157, Control_c, 0, 64, 21
2,9191, Note_on_c, 0, 55, 0
2,9205, Note_on_c, 0, 57, 63
2,9321, Note_on_c, 0, 57, 0
2,9324, Control_c, 0, 64, 23
2,9330, Note_on_c, 0, 58, 71
2,9353, Note_on_c, 0, 67, 0
2,9370, Control_c, 0, 64, 24
2,9401, Control_c, 0, 64, 25
2,9415, Control_c, 0, 64, 26
2,9436, Note_on_c, 0, 58, 0
2,9446, Control_c, 0, 64, 27
2,9470, Note_on_c, 0, 60, 68
2,9558, Note_on_c, 0, 60, 0
2,9604, Note_on_c, 0, 58, 64
2,9716, Note_on_c, 0, 64, 85
2,9723, Note_on_c, 0, 58, 0
2,9741, Note_on_c, 0, 60, 70
2,9759, Control_c, 0, 64, 28
2,9766, Note_on_c, 0, 64, 0
2,9767, Note_on_c, 0, 60, 0
2,9773, Control_c, 0, 64, 29
2,9804, Control_c, 0, 64, 29
2,9834, Control_c, 0, 64, 30
2,9865, Control_c, 0, 64, 31
2,9880, Control_c, 0, 64, 32
2,9896, Control_c, 0, 64, 32
2,10028, Note_on_c, 0, 69, 97
2,10048, Note_on_c, 0, 60, 74
2,10063, Control_c, 0, 64, 33
2,10138, Control_c, 0, 64, 34
2,10169, Control_c, 0, 64, 34
2,10185, Control_c, 0, 64, 35
2,10278, Note_on_c, 0, 60, 0
2,10306, Control_c, 0, 64, 34
2,10312, Note_on_c, 0, 53, 59
2,10344, Control_c, 0, 64, 34
2,10374, Control_c, 0, 64, 33
2,10419, Control_c, 0, 64, 32
2,10465, Control_c, 0, 64, 32
2,10495, Control_c, 0, 64, 31
2,10511, Control_c, 0, 64, 30
2,10526, Control_c, 0, 64, 29
2,10531, Note_on_c, 0, 69, 0
2,10542, Control_c, 0, 64, 28
2,10557, Control_c, 0, 64, 27
2,10572, Control_c, 0, 64, 25
2,10587, Control_c, 0, 64, 23
2,10602, Control_c, 0, 64, 21
2,10605, Note_on_c, 0, 65, 87
2,10611, Note_on_c, 0, 53, 0
2,10617, Control_c, 0, 64, 20
2,10633, Control_c, 0, 64, 17
2,10648, Control_c, 0, 64, 15
2,10664, Control_c, 0, 64, 13
2,10678, Control_c, 0, 64, 10
2,10693, Control_c, 0, 64, 0
2,10733, Note_on_c, 0, 53, 69
2,10847, Note_on_c, 0, 53, 0
2,10867, Note_on_c, 0, 55, 62
2,10957, Note_on_c, 0, 55, 0
2,10983, Control_c, 0, 64, 10
2,10994, Note_on_c, 0, 57, 61
2,11013, Control_c, 0, 64, 13
2,11042, Control_c, 0, 64, 15
2,11083, Note_on_c, 0, 65, 0
2,11088, Control_c, 0, 64, 17
2,11125, Note_on_c, 0, 57, 0
2,11136, Note_on_c, 0, 58, 64
2,11156, Control_c, 0, 64, 18
2,11237, Note_on_c, 0, 58, 0
2,11250, Note_on_c, 0, 57, 55
2,11382, Note_on_c, 0, 57, 0
2,11396, Note_on_c, 0, 62, 86
2,11397, Note_on_c, 0, 58, 59
2,11448, Note_on_c, 0, 62, 0
2,11670, Note_on_c, 0, 67, 89
2,11673, Control_c, 0, 64, 20
2,11688, Control_c, 0, 64, 21
2,11704, Control_c, 0, 64, 23
2,11712, Note_on_c, 0, 67, 0
2,11734, Control_c, 0, 64, 24
2,11795, Note_on_c, 0, 58, 0
2,11812, Note_on_c, 0, 57, 50
2,11893, Control_c, 0, 64, 23
2,11938, Note_on_c, 0, 57, 0
2,11943, Note_on_c, 0, 67, 95
2,11954, Note_on_c, 0, 58, 64
2,11978, Note_on_c, 0, 67, 0
2,12048, Note_on_c, 0, 58, 0
2,12073, Note_on_c, 0, 57, 58
2,12137, Control_c, 0, 64, 21
2,12167, Control_c, 0, 64, 20
2,12191, Note_on_c, 0, 57, 0
2,12211, Note_on_c, 0, 67, 94
2,12229, Note_on_c, 0, 55, 64
2,12247, Note_on_c, 0, 67, 0
2,12321, Note_on_c, 0, 55, 0
2,12356, Note_on_c, 0, 53, 56
2,12442, Control_c, 0, 64, 18
2,12455, Note_on_c, 0, 53, 0
2,12471, Note_on_c, 0, 67, 89
2,12487, Control_c, 0, 64, 17
2,12492, Note_on_c, 0, 55, 55
2,12506, Note_on_c, 0, 67, 0
2,12562, Note_on_c, 0, 55, 0
2,12600, Note_on_c, 0, 53, 56
2,12609, Control_c, 0, 64, 18
2,12730, Note_on_c, 0, 53, 0
2,12746, Note_on_c, 0, 52, 55
2,12751, Note_on_c, 0, 67, 82
2,12789, Note_on_c, 0, 67, 0
2,12849, Note_on_c, 0, 52, 0
2,12886, Note_on_c, 0, 50, 51
2,13002, Note_on_c, 0, 50, 0
2,13019, Note_on_c, 0, 67, 78
2,13041, Note_on_c, 0, 52, 61
2,13061, Note_on_c, 0, 67, 0
2,13088, Control_c, 0, 64, 17
2,13121, Note_on_c, 0, 52, 0
2,13148, Note_on_c, 0, 50, 52
2,13278, Note_on_c, 0, 50, 0
2,13292, Note_on_c, 0, 67, 76
2,13301, Note_on_c, 0, 49, 51
2,13393, Control_c, 0, 64, 18
2,13548, Note_on_c, 0, 49, 0
2,13568, Note_on_c, 0, 67, 0
2,13582, Note_on_c, 0, 57, 47
2,13583, Note_on_c, 0, 65, 66
2,13613, Control_c, 0, 64, 17
2,13636, Note_on_c, 0, 57, 0
2,13678, Note_on_c, 0, 65, 0
2,13719, Control_c, 0, 64, 15
2,13721, Note_on_c, 0, 64, 59
2,13734, Control_c, 0, 64, 0
2,13763, Note_on_c, 0, 64, 0
2,13848, Note_on_c, 0, 74, 86
2,13863, Note_on_c, 0, 50, 57
2,13866, Note_on_c, 0, 65, 71
2,13905, Note_on_c, 0, 50, 0
2,13917, Control_c, 0, 64, 56
2,13932, Control_c, 0, 64, 62
2,13947, Control_c, 0, 64, 64
2,13962, Control_c, 0, 64, 66
2,13977, Control_c, 0, 64, 69
2,13993, Control_c, 0, 64, 71
2,14000, Note_on_c, 0, 65, 0
2,14007, Note_on_c, 0, 62, 60
2,14008, Control_c, 0, 64, 74
2,14024, Control_c, 0, 64, 77
2,14027, Note_on_c, 0, 74, 0
2,14039, Control_c, 0, 64, 77
2,14124, Note_on_c, 0, 62, 0
2,14127, Note_on_c, 0, 64, 68
2,14141, Note_on_c, 0, 60, 47
2,14160, Control_c, 0, 64, 77
2,14186, Note_on_c, 0, 60, 0
2,14198, Control_c, 0, 64, 76
2,14213, Control_c, 0, 64, 74
2,14229, Control_c, 0, 64, 72
2,14244, Control_c, 0, 64, 67
2,14256, Note_on_c, 0, 66, 70
2,14259, Control_c, 0, 64, 55
2,14274, Control_c, 0, 64, 0
2,14290, Note_on_c, 0, 64, 0
2,14384, Note_on_c, 0, 67, 73
2,14394, Note_on_c, 0, 58, 54
2,14403, Note_on_c, 0, 66, 0
2,14436, Note_on_c, 0, 58, 0
2,14448, Note_on_c, 0, 67, 0
2,14513, Note_on_c, 0, 66, 58
2,14531, Note_on_c, 0, 66, 0
2,14641, Note_on_c, 0, 70, 80
2,14650, Note_on_c, 0, 55, 64
2,14655, Note_on_c, 0, 67, 60
2,14678, Note_on_c, 0, 67, 0
2,14687, Note_on_c, 0, 55, 0
2,14699, Note_on_c, 0, 70, 0
2,14931, Note_on_c, 0, 75, 94
2,14955, Note_on_c, 0, 67, 68
2,14970, Note_on_c, 0, 60, 63
2,15021, Note_on_c, 0, 67, 0
2,15057, Control_c, 0, 64, 37
2,15057, Note_on_c, 0, 67, 30
2,15072, Control_c, 0, 64, 50
2,15075, Note_on_c, 0, 60, 0
2,15087, Control_c, 0, 64, 57
2,15096, Note_on_c, 0, 58, 53
2,15103, Control_c, 0, 64, 62
2,15118, Control_c, 0, 64, 65
2,15133, Control_c, 0, 64, 67
2,15149, Control_c, 0, 64, 69
2,15164, Control_c, 0, 64, 72
2,15176, Note_on_c, 0, 75, 0
2,15178, Control_c, 0, 64, 74
2,15182, Note_on_c, 0, 58, 0
2,15194, Control_c, 0, 64, 76
2,15209, Control_c, 0, 64, 77
2,15215, Note_on_c, 0, 60, 63
2,15225, Control_c, 0, 64, 77
2,15240, Control_c, 0, 64, 78
2,15254, Control_c, 0, 64, 78
2,15271, Note_on_c, 0, 67, 0
2,15329, Note_on_c, 0, 58, 53
2,15347, Note_on_c, 0, 60, 0
2,15448, Note_on_c, 0, 58, 0
2,15451, Control_c, 0, 64, 77
2,15467, Control_c, 0, 64, 73
2,15473, Note_on_c, 0, 72, 89
2,15479, Note_on_c, 0, 57, 64
2,15482, Control_c, 0, 64, 65
2,15497, Control_c, 0, 64, 38
2,15513, Control_c, 0, 64, 0
2,15621, Note_on_c, 0, 60, 59
2,15632, Note_on_c, 0, 57, 0
2,15711, Note_on_c, 0, 60, 0
2,15747, Note_on_c, 0, 62, 60
2,15822, Note_on_c, 0, 62, 0
2,15862, Note_on_c, 0, 55, 60
2,15878, Note_on_c, 0, 63, 65
2,15919, Note_on_c, 0, 55, 0
2,15971, Note_on_c, 0, 63, 0
2,15995, Note_on_c, 0, 57, 66
2,16001, Note_on_c, 0, 72, 0
2,16016, Note_on_c, 0, 65, 70
2,16031, Note_on_c, 0, 57, 0
2,16080, Note_on_c, 0, 65, 0
2,16139, Note_on_c, 0, 63, 58
2,16178, Note_on_c, 0, 63, 0
2,16272, Note_on_c, 0, 69, 80
2,16274, Note_on_c, 0, 65, 80
2,16282, Note_on_c, 0, 53, 70
2,16303, Note_on_c, 0, 65, 0
2,16326, Note_on_c, 0, 53, 0
2,16326, Note_on_c, 0, 69, 0
2,16572, Note_on_c, 0, 74, 91
2,16586, Note_on_c, 0, 58, 63
2,16586, Note_on_c, 0, 65, 72
2,16636, Note_on_c, 0, 65, 0
2,16654, Control_c, 0, 64, 50
2,16670, Control_c, 0, 64, 60
2,16685, Control_c, 0, 64, 63
2,16689, Note_on_c, 0, 58, 0
2,16701, Control_c, 0, 64, 65
2,16708, Note_on_c, 0, 57, 55
2,16716, Control_c, 0, 64, 67
2,16730, Control_c, 0, 64, 69
2,16746, Control_c, 0, 64, 71
2,16761, Control_c, 0, 64, 73
2,16776, Control_c, 0, 64, 75
2,16785, Note_on_c, 0, 74, 0
2,16791, Control_c, 0, 64, 76
2,16806, Control_c, 0, 64, 76
2,16815, Note_on_c, 0, 57, 0
2,16822, Control_c, 0, 64, 77
2,16831, Note_on_c, 0, 58, 61
2,16933, Note_on_c, 0, 58, 0
2,16949, Note_on_c, 0, 57, 53
2,17065, Control_c, 0, 64, 76
2,17080, Control_c, 0, 64, 74
2,17087, Note_on_c, 0, 57, 0
2,17095, Control_c, 0, 64, 70
2,17098, Note_on_c, 0, 70, 91
2,17111, Control_c, 0, 64, 63
2,17111, Note_on_c, 0, 55, 65
2,17125, Control_c, 0, 64, 41
2,17141, Control_c, 0, 64, 0
2,17234, Note_on_c, 0, 58, 59
2,17243, Note_on_c, 0, 55, 0
2,17325, Note_on_c, 0, 58, 0
2,17361, Note_on_c, 0, 57, 53
2,17363, Note_on_c, 0, 60, 65
2,17436, Note_on_c, 0, 60, 0
2,17467, Note_on_c, 0, 57, 0
2,17484, Note_on_c, 0, 58, 48
2,17524, Note_on_c, 0, 62, 57
2,17593, Note_on_c, 0, 58, 0
2,17626, Note_on_c, 0, 62, 0
2,17631, Note_on_c, 0, 60, 44
2,17647, Note_on_c, 0, 63, 64
2,17691, Note_on_c, 0, 70, 0
2,17752, Note_on_c, 0, 63, 0
2,17765, Note_on_c, 0, 62, 55
2,17858, Note_on_c, 0, 62, 0
2,17897, Note_on_c, 0, 67, 76
2,17904, Note_on_c, 0, 63, 71
2,17943, Note_on_c, 0, 63, 0
2,17950, Note_on_c, 0, 67, 0
2,18040, Note_on_c, 0, 58, 48
2,18044, Note_on_c, 0, 60, 0
2,18152, Note_on_c, 0, 58, 0
2,18172, Note_on_c, 0, 72, 88
2,18173, Note_on_c, 0, 57, 57
2,18243, Note_on_c, 0, 72, 0
2,18309, Note_on_c, 0, 62, 62
2,18367, Note_on_c, 0, 62, 0
2,18438, Note_on_c, 0, 63, 69
2,18438, Note_on_c, 0, 72, 76
2,18468, Note_on_c, 0, 63, 0
2,18511, Note_on_c, 0, 72, 0
2,18561, Note_on_c, 0, 62, 59
2,18594, Note_on_c, 0, 62, 0
2,18692, Note_on_c, 0, 57, 0
2,18705, Note_on_c, 0, 72, 81
2,18714, Note_on_c, 0, 60, 56
2,18747, Note_on_c, 0, 72, 0
2,18786, Note_on_c, 0, 60, 0
2,18828, Note_on_c, 0, 58, 55
2,18930, Note_on_c, 0, 58, 0
2,18962, Note_on_c, 0, 72, 88
2,18968, Note_on_c, 0, 55, 58
2,18970, Note_on_c, 0, 60, 60
2,19007, Note_on_c, 0, 72, 0
2,19047, Note_on_c, 0, 60, 0
2,19073, Note_on_c, 0, 55, 0
2,19091, Note_on_c, 0, 58, 65
2,19174, Note_on_c, 0, 58, 0
2,19227, Note_on_c, 0, 57, 69
2,19233, Note_on_c, 0, 72, 91
2,19239, Note_on_c, 0, 54, 52
2,19277, Note_on_c, 0, 54, 0
2,19282, Note_on_c, 0, 72, 0
2,19309, Note_on_c, 0, 57, 0
2,19364, Note_on_c, 0, 55, 58
2,19447, Note_on_c, 0, 55, 0
2,19501, Note_on_c, 0, 72, 91
2,19502, Note_on_c, 0, 57, 66
2,19512, Note_on_c, 0, 52, 60
2,19548, Note_on_c, 0, 72, 0
2,19567, Note_on_c, 0, 57, 0
2,19572, Note_on_c, 0, 52, 0
2,19628, Note_on_c, 0, 55, 64
2,19677, Note_on_c, 0, 55, 0
2,19774, Note_on_c, 0, 54, 67
2,19778, Note_on_c, 0, 72, 91
2,19785, Note_on_c, 0, 50, 61
2,19848, Control_c, 0, 64, 23
2,19854, Note_on_c, 0, 54, 0
2,19864, Control_c, 0, 64, 30
2,19878, Control_c, 0, 64, 32
2,19909, Control_c, 0, 64, 31
2,19924, Control_c, 0, 64, 29
2,19939, Control_c, 0, 64, 25
2,19955, Control_c, 0, 64, 20
2,19970, Control_c, 0, 64, 17
2,19986, Control_c, 0, 64, 15
2,20013, Note_on_c, 0, 50, 0
2,20031, Control_c, 0, 64, 13
2,20038, Note_on_c, 0, 70, 70
2,20045, Note_on_c, 0, 54, 76
2,20046, Note_on_c, 0, 62, 56
2,20062, Control_c, 0, 64, 10
2,20076, Note_on_c, 0, 62, 0
2,20077, Control_c, 0, 64, 0
2,20086, Note_on_c, 0, 54, 0
2,20151, Note_on_c, 0, 72, 0
2,20176, Note_on_c, 0, 70, 0
2,20189, Note_on_c, 0, 69, 63
2,20333, Note_on_c, 0, 55, 92
2,20343, Control_c, 0, 64, 43
2,20343, Note_on_c, 0, 70, 78
2,20358, Control_c, 0, 64, 59
2,20364, Note_on_c, 0, 69, 0
2,20372, Control_c, 0, 64, 64
2,20388, Control_c, 0, 64, 67
2,20403, Control_c, 0, 64, 70
2,20418, Control_c, 0, 64, 72
2,20433, Control_c, 0, 64, 74
2,20438, Note_on_c, 0, 70, 0
2,20448, Control_c, 0, 64, 76
2,20464, Control_c, 0, 64, 77
2,20479, Control_c, 0, 64, 77
2,20482, Note_on_c, 0, 67, 68
2,20523, Note_on_c, 0, 67, 0
2,20587, Control_c, 0, 64, 77
2,20601, Control_c, 0, 64, 76
2,20616, Control_c, 0, 64, 76
2,20624, Note_on_c, 0, 70, 75
2,20628, Note_on_c, 0, 67, 55
2,20632, Control_c, 0, 64, 75
2,20647, Control_c, 0, 64, 73
2,20649, Note_on_c, 0, 62, 51
2,20649, Note_on_c, 0, 67, 0
2,20662, Control_c, 0, 64, 72
2,20677, Control_c, 0, 64, 69
2,20692, Control_c, 0, 64, 65
2,20708, Control_c, 0, 64, 60
2,20722, Control_c, 0, 64, 49
2,20737, Control_c, 0, 64, 30
2,20748, Note_on_c, 0, 72, 75
2,20753, Control_c, 0, 64, 0
2,20754, Note_on_c, 0, 62, 0
2,20754, Note_on_c, 0, 70, 0
2,20771, Note_on_c, 0, 64, 57
2,20856, Note_on_c, 0, 64, 0
2,20875, Note_on_c, 0, 74, 75
2,20876, Note_on_c, 0, 72, 0
2,20889, Note_on_c, 0, 65, 63
2,20956, Note_on_c, 0, 65, 0
2,20986, Note_on_c, 0, 55, 0
2,20993, Note_on_c, 0, 74, 0
2,21000, Note_on_c, 0, 73, 68
2,21012, Note_on_c, 0, 64, 43
2,21037, Note_on_c, 0, 64, 0
2,21051, Note_on_c, 0, 73, 0
2,21147, Note_on_c, 0, 74, 80
2,21148, Note_on_c, 0, 65, 81
2,21154, Note_on_c, 0, 53, 75
2,21173, Note_on_c, 0, 65, 0
2,21188, Note_on_c, 0, 53, 0
2,21251, Note_on_c, 0, 74, 0
2,21277, Note_on_c, 0, 69, 71
2,21323, Note_on_c, 0, 69, 0
2,21434, Note_on_c, 0, 58, 86
2,21436, Note_on_c, 0, 74, 84
2,21438, Note_on_c, 0, 62, 84
2,21563, Note_on_c, 0, 69, 68
2,21642, Control_c, 0, 64, 41
2,21657, Control_c, 0, 64, 55
2,21673, Control_c, 0, 64, 60
2,21683, Note_on_c, 0, 69, 0
2,21688, Control_c, 0, 64, 62
2,21704, Control_c, 0, 64, 63
2,21707, Note_on_c, 0, 67, 65
2,21719, Control_c, 0, 64, 64
2,21734, Control_c, 0, 64, 66
2,21750, Control_c, 0, 64, 68
2,21765, Control_c, 0, 64, 71
2,21779, Control_c, 0, 64, 73
2,21795, Control_c, 0, 64, 75
2,21810, Control_c, 0, 64, 75
2,21825, Control_c, 0, 64, 76
2,21836, Note_on_c, 0, 67, 0
2,21857, Note_on_c, 0, 65, 62
2,21863, Control_c, 0, 64, 76
2,21882, Note_on_c, 0, 58, 0
2,21939, Control_c, 0, 64, 75
2,21944, Note_on_c, 0, 65, 0
2,21954, Control_c, 0, 64, 72
2,21961, Note_on_c, 0, 62, 0
2,21969, Control_c, 0, 64, 66
2,21979, Note_on_c, 0, 55, 95
2,21985, Control_c, 0, 64, 52
2,21993, Note_on_c, 0, 64, 72
2,22000, Control_c, 0, 64, 0
2,22109, Note_on_c, 0, 74, 0
2,22114, Note_on_c, 0, 67, 67
2,22248, Note_on_c, 0, 69, 72
2,22251, Note_on_c, 0, 67, 0
2,22268, Note_on_c, 0, 60, 60
2,22337, Note_on_c, 0, 60, 0
2,22381, Note_on_c, 0, 70, 66
2,22386, Note_on_c, 0, 55, 0
2,22395, Note_on_c, 0, 58, 55
2,22397, Note_on_c, 0, 69, 0
2,22507, Note_on_c, 0, 58, 0
2,22517, Note_on_c, 0, 57, 72
2,22530, Note_on_c, 0, 72, 65
2,22532, Note_on_c, 0, 70, 0
2,22561, Note_on_c, 0, 57, 0
2,22636, Note_on_c, 0, 72, 0
2,22661, Note_on_c, 0, 70, 64
2,22736, Note_on_c, 0, 64, 0
2,22761, Note_on_c, 0, 70, 0
2,22788, Note_on_c, 0, 72, 74
2,22789, Note_on_c, 0, 52, 84
2,22795, Note_on_c, 0, 55, 78
2,22836, Note_on_c, 0, 55, 0
2,22838, Note_on_c, 0, 52, 0
2,22903, Note_on_c, 0, 72, 0
2,22921, Note_on_c, 0, 67, 68
2,22967, Note_on_c, 0, 67, 0
2,23076, Note_on_c, 0, 57, 87
2,23076, Note_on_c, 0, 60, 88
2,23078, Note_on_c, 0, 72, 89
2,23205, Note_on_c, 0, 67, 72
2,23225, Control_c, 0, 64, 24
2,23240, Control_c, 0, 64, 48
2,23255, Control_c, 0, 64, 56
2,23270, Control_c, 0, 64, 59
2,23285, Control_c, 0, 64, 61
2,23301, Control_c, 0, 64, 62
2,23315, Control_c, 0, 64, 63
2,23330, Control_c, 0, 64, 64
2,23331, Note_on_c, 0, 67, 0
2,23346, Control_c, 0, 64, 65
2,23355, Note_on_c, 0, 65, 58
2,23361, Control_c, 0, 64, 66
2,23376, Control_c, 0, 64, 66
2,23399, Control_c, 0, 64, 67
2,23414, Control_c, 0, 64, 68
2,23445, Control_c, 0, 64, 68
2,23505, Note_on_c, 0, 65, 0
2,23511, Note_on_c, 0, 64, 61
2,23520, Control_c, 0, 64, 69
2,23553, Note_on_c, 0, 57, 0
2,23582, Control_c, 0, 64, 68
2,23596, Control_c, 0, 64, 67
2,23608, Note_on_c, 0, 64, 0
2,23611, Control_c, 0, 64, 64
2,23611, Note_on_c, 0, 60, 0
2,23622, Note_on_c, 0, 53, 94
2,23627, Control_c, 0, 64, 56
2,23640, Note_on_c, 0, 62, 76
2,23642, Control_c, 0, 64, 20
2,23657, Control_c, 0, 64, 0
2,23760, Note_on_c, 0, 65, 72
2,23778, Note_on_c, 0, 72, 0
2,23887, Note_on_c, 0, 58, 61
2,23893, Note_on_c, 0, 67, 73
2,23919, Note_on_c, 0, 65, 0
2,23999, Note_on_c, 0, 58, 0
2,24022, Note_on_c, 0, 57, 65
2,24026, Note_on_c, 0, 69, 73
2,24049, Note_on_c, 0, 53, 0
2,24134, Note_on_c, 0, 57, 0
2,24135, Note_on_c, 0, 67, 0
2,24165, Note_on_c, 0, 70, 77
2,24174, Note_on_c, 0, 55, 76
2,24192, Note_on_c, 0, 69, 0
2,24216, Note_on_c, 0, 55, 0
2,24298, Note_on_c, 0, 69, 69
2,24306, Note_on_c, 0, 70, 0
2,24424, Note_on_c, 0, 70, 72
2,24425, Note_on_c, 0, 53, 80
2,24426, Note_on_c, 0, 50, 74
2,24460, Note_on_c, 0, 50, 0
2,24463, Note_on_c, 0, 53, 0
2,24474, Note_on_c, 0, 62, 0
2,24498, Note_on_c, 0, 69, 0
2,24559, Note_on_c, 0, 65, 66
2,24566, Note_on_c, 0, 70, 0
2,24620, Note_on_c, 0, 65, 0
2,24693, Note_on_c, 0, 64, 81
2,24698, Note_on_c, 0, 55, 80
2,24703, Note_on_c, 0, 58, 82
2,24750, Note_on_c, 0, 55, 0
2,24753, Note_on_c, 0, 58, 0
2,24834, Note_on_c, 0, 69, 69
2,24943, Note_on_c, 0, 64, 0
2,24963, Note_on_c, 0, 55, 88
2,24975, Note_on_c, 0, 70, 73
2,24995, Note_on_c, 0, 69, 0
2,25011, Note_on_c, 0, 55, 0
2,25100, Note_on_c, 0, 69, 73
2,25107, Note_on_c, 0, 70, 0
2,25115, Note_on_c, 0, 65, 69
2,25137, Note_on_c, 0, 69, 0
2,25195, Note_on_c, 0, 65, 0
2,25233, Note_on_c, 0, 55, 91
2,25239, Note_on_c, 0, 64, 77
2,25239, Note_on_c, 0, 67, 72
2,25275, Note_on_c, 0, 55, 0
2,25374, Note_on_c, 0, 67, 0
2,25382, Note_on_c, 0, 65, 64
2,25454, Note_on_c, 0, 64, 0
2,25479, Note_on_c, 0, 65, 0
2,25502, Note_on_c, 0, 67, 69
2,25504, Note_on_c, 0, 55, 88
2,25550, Note_on_c, 0, 55, 0
2,25623, Note_on_c, 0, 67, 0
2,25627, Note_on_c, 0, 65, 66
2,25631, Note_on_c, 0, 62, 69
2,25678, Note_on_c, 0, 65, 0
2,25698, Note_on_c, 0, 62, 0
2,25764, Note_on_c, 0, 61, 75
2,25764, Note_on_c, 0, 64, 68
2,25769, Note_on_c, 0, 55, 90
2,25822, Note_on_c, 0, 55, 0
2,25881, Note_on_c, 0, 64, 0
2,25893, Note_on_c, 0, 62, 61
2,25971, Note_on_c, 0, 61, 0
2,26029, Note_on_c, 0, 64, 66
2,26030, Note_on_c, 0, 55, 87
2,26054, Note_on_c, 0, 62, 0
2,26084, Note_on_c, 0, 55, 0
2,26155, Note_on_c, 0, 64, 0
2,26161, Note_on_c, 0, 62, 71
2,26211, Note_on_c, 0, 62, 0
2,26295, Note_on_c, 0, 61, 67
2,26299, Note_on_c, 0, 55, 77
2,26304, Note_on_c, 0, 57, 55
2,26375, Note_on_c, 0, 61, 0
2,26553, Note_on_c, 0, 57, 0
2,26570, Note_on_c, 0, 69, 73
2,26589, Note_on_c, 0, 55, 0
2,26598, Note_on_c, 0, 53, 60
2,26615, Note_on_c, 0, 69, 0
2,26692, Note_on_c, 0, 53, 0
2,26721, Note_on_c, 0, 52, 53
2,26817, Note_on_c, 0, 52, 0
2,26837, Note_on_c, 0, 62, 73
2,26845, Note_on_c, 0, 53, 55
2,26880, Note_on_c, 0, 62, 0
2,26950, Note_on_c, 0, 53, 0
2,26993, Note_on_c, 0, 50, 44
2,27103, Note_on_c, 0, 50, 0
2,27104, Note_on_c, 0, 72, 77
2,27127, Note_on_c, 0, 51, 54
2,27144, Note_on_c, 0, 72, 0
2,27247, Note_on_c, 0, 51, 0
2,27265, Note_on_c, 0, 53, 54
2,27360, Note_on_c, 0, 53, 0
2,27379, Note_on_c, 0, 71, 73
2,27401, Note_on_c, 0, 55, 53
2,27459, Note_on_c, 0, 55, 0
2,27498, Note_on_c, 0, 74, 76
2,27510, Note_on_c, 0, 71, 0
2,27513, Note_on_c, 0, 53, 51
2,27597, Note_on_c, 0, 53, 0
2,27629, Note_on_c, 0, 77, 79
2,27638, Note_on_c, 0, 74, 0
2,27664, Note_on_c, 0, 55, 47
2,27699, Note_on_c, 0, 55, 0
2,27742, Note_on_c, 0, 77, 0
2,27760, Note_on_c, 0, 74, 69
2,27902, Note_on_c, 0, 48, 50
2,27904, Note_on_c, 0, 74, 0
2,27913, Note_on_c, 0, 75, 65
2,28004, Note_on_c, 0, 48, 0
2,28051, Note_on_c, 0, 47, 43
2,28178, Note_on_c, 0, 48, 51
2,28194, Note_on_c, 0, 67, 62
2,28195, Note_on_c, 0, 75, 0
2,28201, Note_on_c, 0, 47, 0
2,28226, Note_on_c, 0, 67, 0
2,28270, Note_on_c, 0, 48, 0
2,28312, Note_on_c, 0, 50, 49
2,28438, Note_on_c, 0, 50, 0
2,28453, Note_on_c, 0, 60, 69
2,28464, Note_on_c, 0, 51, 50
2,28498, Note_on_c, 0, 60, 0
2,28561, Note_on_c, 0, 51, 0
2,28600, Note_on_c, 0, 48, 46
2,28696, Note_on_c, 0, 70, 79
2,28724, Note_on_c, 0, 48, 0
2,28738, Note_on_c, 0, 50, 49
2,28751, Note_on_c, 0, 70, 0
2,28845, Note_on_c, 0, 50, 0
2,28870, Note_on_c, 0, 51, 53
2,28946, Note_on_c, 0, 51, 0
2,28974, Note_on_c, 0, 69, 81
2,28991, Note_on_c, 0, 53, 62
2,29070, Note_on_c, 0, 69, 0
2,29082, Note_on_c, 0, 53, 0
2,29097, Note_on_c, 0, 51, 57
2,29110, Note_on_c, 0, 72, 80
2,29192, Note_on_c, 0, 51, 0
2,29209, Note_on_c, 0, 53, 64
2,29236, Note_on_c, 0, 75, 73
2,29237, Note_on_c, 0, 72, 0
2,29240, Note_on_c, 0, 53, 0
2,29352, Note_on_c, 0, 75, 0
2,29357, Note_on_c, 0, 81, 73
2,29502, Note_on_c, 0, 82, 78
2,29505, Note_on_c, 0, 46, 48
2,29536, Note_on_c, 0, 81, 0
2,29573, Control_c, 0, 64, 53
2,29589, Control_c, 0, 64, 62
2,29604, Control_c, 0, 64, 64
2,29619, Control_c, 0, 64, 67
2,29619, Note_on_c, 0, 46, 0
2,29634, Control_c, 0, 64, 69
2,29640, Note_on_c, 0, 53, 47
2,29649, Control_c, 0, 64, 71
2,29665, Control_c, 0, 64, 74
2,29680, Control_c, 0, 64, 77
2,29695, Control_c, 0, 64, 78
2,29711, Control_c, 0, 64, 79
2,29725, Control_c, 0, 64, 79
2,29760, Note_on_c, 0, 53, 0
2,29776, Note_on_c, 0, 82, 0
2,29787, Control_c, 0, 64, 80
2,29791, Note_on_c, 0, 55, 50
2,29792, Note_on_c, 0, 74, 57
2,29847, Note_on_c, 0, 55, 0
2,29918, Note_on_c, 0, 81, 79
2,29920, Note_on_c, 0, 57, 50
2,29942, Note_on_c, 0, 74, 0
2,29968, Control_c, 0, 64, 78
2,29984, Control_c, 0, 64, 74
2,29998, Control_c, 0, 64, 66
2,30013, Control_c, 0, 64, 10
2,30029, Control_c, 0, 64, 0
2,30047, Note_on_c, 0, 57, 0
2,30057, Note_on_c, 0, 79, 80
2,30063, Note_on_c, 0, 58, 61
2,30090, Control_c, 0, 64, 49
2,30093, Note_on_c, 0, 81, 0
2,30106, Control_c, 0, 64, 60
2,30120, Control_c, 0, 64, 62
2,30135, Control_c, 0, 64, 64
2,30151, Control_c, 0, 64, 65
2,30166, Control_c, 0, 64, 67
2,30166, Note_on_c, 0, 58, 0
2,30182, Control_c, 0, 64, 69
2,30183, Note_on_c, 0, 57, 59
2,30189, Note_on_c, 0, 78, 83
2,30196, Control_c, 0, 64, 71
2,30211, Control_c, 0, 64, 72
2,30218, Note_on_c, 0, 79, 0
2,30227, Control_c, 0, 64, 73
2,30241, Control_c, 0, 64, 73
2,30292, Note_on_c, 0, 57, 0
2,30324, Note_on_c, 0, 58, 67
2,30325, Control_c, 0, 64, 73
2,30328, Note_on_c, 0, 79, 89
2,30359, Note_on_c, 0, 78, 0
2,30387, Control_c, 0, 64, 72
2,30402, Control_c, 0, 64, 72
2,30453, Note_on_c, 0, 78, 89
2,30478, Control_c, 0, 64, 71
2,30487, Note_on_c, 0, 79, 0
2,30493, Control_c, 0, 64, 71
2,30509, Control_c, 0, 64, 70
2,30524, Control_c, 0, 64, 69
2,30539, Control_c, 0, 64, 68
2,30555, Control_c, 0, 64, 66
2,30569, Control_c, 0, 64, 63
2,30585, Control_c, 0, 64, 53
2,30600, Control_c, 0, 64, 0
2,30600, Note_on_c, 0, 79, 89
2,30632, Note_on_c, 0, 78, 0
2,30671, Note_on_c, 0, 58, 0
2,30714, Note_on_c, 0, 52, 56
2,30836, Note_on_c, 0, 52, 0
2,30848, Note_on_c, 0, 54, 63
2,30961, Note_on_c, 0, 54, 0
2,30974, Note_on_c, 0, 55, 61
2,30979, Note_on_c, 0, 74, 68
2,31092, Note_on_c, 0, 55, 0
2,31094, Note_on_c, 0, 74, 0
2,31121, Note_on_c, 0, 72, 73
2,31133, Note_on_c, 0, 57, 67
2,31208, Note_on_c, 0, 57, 0
2,31257, Note_on_c, 0, 55, 65
2,31257, Note_on_c, 0, 70, 69
2,31260, Note_on_c, 0, 72, 0
2,31352, Note_on_c, 0, 55, 0
2,31379, Note_on_c, 0, 70, 0
2,31380, Note_on_c, 0, 57, 73
2,31383, Note_on_c, 0, 72, 68
2,31408, Note_on_c, 0, 57, 0
2,31503, Note_on_c, 0, 72, 0
2,31518, Note_on_c, 0, 70, 58
2,31625, Note_on_c, 0, 70, 0
2,31655, Control_c, 0, 64, 56
2,31665, Note_on_c, 0, 78, 75
2,31666, Note_on_c, 0, 72, 61
2,31670, Note_on_c, 0, 62, 101
2,31671, Control_c, 0, 64, 65
2,31686, Control_c, 0, 64, 68
2,31689, Note_on_c, 0, 79, 0
2,31699, Note_on_c, 0, 72, 0
2,31702, Control_c, 0, 64, 71
2,31717, Control_c, 0, 64, 74
2,31731, Control_c, 0, 64, 76
2,31747, Control_c, 0, 64, 77
2,31761, Note_on_c, 0, 78, 0
2,31762, Control_c, 0, 64, 78
2,31777, Control_c, 0, 64, 79
2,31813, Note_on_c, 0, 50, 66
2,31947, Note_on_c, 0, 50, 0
2,31961, Note_on_c, 0, 52, 61
2,32007, Note_on_c, 0, 62, 0
2,32077, Note_on_c, 0, 81, 77
2,32079, Note_on_c, 0, 72, 78
2,32097, Note_on_c, 0, 81, 0
2,32109, Note_on_c, 0, 52, 0
2,32112, Note_on_c, 0, 54, 64
2,32121, Note_on_c, 0, 72, 0
2,32135, Control_c, 0, 64, 77
2,32151, Control_c, 0, 64, 75
2,32166, Control_c, 0, 64, 69
2,32182, Control_c, 0, 64, 60
2,32196, Control_c, 0, 64, 20
2,32199, Note_on_c, 0, 74, 80
2,32206, Note_on_c, 0, 70, 81
2,32211, Control_c, 0, 64, 0
2,32212, Note_on_c, 0, 55, 78
2,32213, Note_on_c, 0, 54, 0
2,32321, Note_on_c, 0, 55, 0
2,32331, Note_on_c, 0, 54, 73
2,32347, Note_on_c, 0, 74, 0
2,32349, Note_on_c, 0, 69, 80
2,32371, Note_on_c, 0, 70, 0
2,32383, Note_on_c, 0, 54, 0
2,32469, Note_on_c, 0, 58, 91
2,32475, Note_on_c, 0, 55, 72
2,32476, Note_on_c, 0, 70, 86
2,32530, Control_c, 0, 64, 52
2,32544, Note_on_c, 0, 69, 0
2,32546, Control_c, 0, 64, 61
2,32561, Control_c, 0, 64, 62
2,32575, Control_c, 0, 64, 62
2,32600, Note_on_c, 0, 72, 70
2,32614, Control_c, 0, 64, 63
2,32620, Note_on_c, 0, 70, 0
2,32630, Control_c, 0, 64, 63
2,32630, Note_on_c, 0, 55, 0
2,32645, Control_c, 0, 64, 64
2,32652, Note_on_c, 0, 72, 0
2,32675, Control_c, 0, 64, 64
2,32720, Control_c, 0, 64, 63
2,32735, Control_c, 0, 64, 60
2,32751, Control_c, 0, 64, 44
2,32766, Control_c, 0, 64, 0
2,32768, Note_on_c, 0, 58, 0
2,32778, Note_on_c, 0, 63, 98
2,32782, Note_on_c, 0, 70, 89
2,32784, Note_on_c, 0, 55, 71
2,32803, Note_on_c, 0, 67, 62
2,32921, Note_on_c, 0, 65, 67
2,32932, Note_on_c, 0, 67, 0
2,32933, Control_c, 0, 64, 39
2,32949, Control_c, 0, 64, 57
2,32964, Control_c, 0, 64, 62
2,32979, Control_c, 0, 64, 64
2,32995, Control_c, 0, 64, 65
2,33009, Control_c, 0, 64, 67
2,33025, Control_c, 0, 64, 69
2,33040, Control_c, 0, 64, 71
2,33055, Control_c, 0, 64, 73
2,33055, Note_on_c, 0, 67, 71
2,33067, Note_on_c, 0, 48, 54
2,33071, Control_c, 0, 64, 74
2,33074, Note_on_c, 0, 63, 0
2,33076, Note_on_c, 0, 65, 0
2,33080, Note_on_c, 0, 55, 0
2,33086, Control_c, 0, 64, 75
2,33095, Note_on_c, 0, 48, 0
2,33102, Control_c, 0, 64, 75
2,33207, Note_on_c, 0, 65, 60
2,33253, Control_c, 0, 64, 75
2,33269, Control_c, 0, 64, 72
2,33284, Control_c, 0, 64, 65
2,33298, Control_c, 0, 64, 0
2,33310, Note_on_c, 0, 65, 0
2,33327, Note_on_c, 0, 63, 62
2,33330, Note_on_c, 0, 60, 98
2,33332, Note_on_c, 0, 67, 0
2,33395, Note_on_c, 0, 63, 0
2,33398, Control_c, 0, 64, 36
2,33413, Control_c, 0, 64, 59
2,33417, Note_on_c, 0, 65, 60
2,33428, Control_c, 0, 64, 63
2,33458, Control_c, 0, 64, 64
2,33474, Control_c, 0, 64, 65
2,33480, Note_on_c, 0, 48, 66
2,33480, Note_on_c, 0, 70, 0
2,33486, Note_on_c, 0, 65, 0
2,33488, Control_c, 0, 64, 66
2,33498, Note_on_c, 0, 63, 58
2,33504, Control_c, 0, 64, 68
2,33519, Control_c, 0, 64, 69
2,33534, Control_c, 0, 64, 70
2,33537, Note_on_c, 0, 63, 0
2,33550, Control_c, 0, 64, 70
2,33564, Note_on_c, 0, 60, 0
2,33579, Control_c, 0, 64, 71
2,33610, Control_c, 0, 64, 71
2,33619, Note_on_c, 0, 50, 56
2,33734, Note_on_c, 0, 50, 0
2,33748, Control_c, 0, 64, 71
2,33756, Note_on_c, 0, 51, 60
2,33761, Note_on_c, 0, 48, 0
2,33763, Control_c, 0, 64, 70
2,33766, Note_on_c, 0, 62, 81
2,33777, Control_c, 0, 64, 68
2,33793, Control_c, 0, 64, 65
2,33808, Control_c, 0, 64, 60
2,33819, Note_on_c, 0, 62, 0
2,33824, Control_c, 0, 64, 49
2,33839, Control_c, 0, 64, 29
2,33844, Note_on_c, 0, 51, 0
2,33853, Control_c, 0, 64, 0
2,33868, Note_on_c, 0, 53, 61
2,33890, Note_on_c, 0, 60, 73
2,33890, Note_on_c, 0, 69, 81
2,33949, Note_on_c, 0, 53, 0
2,33999, Note_on_c, 0, 51, 59
2,34030, Note_on_c, 0, 51, 0
2,34152, Note_on_c, 0, 57, 95
2,34163, Note_on_c, 0, 53, 80
2,34180, Control_c, 0, 64, 42
2,34187, Note_on_c, 0, 60, 0
2,34190, Note_on_c, 0, 53, 0
2,34196, Control_c, 0, 64, 57
2,34196, Note_on_c, 0, 69, 0
2,34227, Control_c, 0, 64, 58
2,34242, Control_c, 0, 64, 58
2,34257, Control_c, 0, 64, 60
2,34272, Control_c, 0, 64, 61
2,34287, Control_c, 0, 64, 63
2,34303, Control_c, 0, 64, 64
2,34363, Control_c, 0, 64, 63
2,34378, Control_c, 0, 64, 62
2,34394, Control_c, 0, 64, 53
2,34398, Note_on_c, 0, 57, 0
2,34408, Control_c, 0, 64, 0
2,34437, Note_on_c, 0, 53, 80
2,34439, Note_on_c, 0, 62, 92
2,34441, Note_on_c, 0, 65, 91
2,34580, Note_on_c, 0, 69, 70
2,34611, Note_on_c, 0, 65, 0
2,34637, Control_c, 0, 64, 54
2,34652, Control_c, 0, 64, 62
2,34668, Control_c, 0, 64, 63
2,34683, Control_c, 0, 64, 64
2,34698, Control_c, 0, 64, 65
2,34713, Control_c, 0, 64, 68
2,34717, Note_on_c, 0, 46, 58
2,34720, Note_on_c, 0, 53, 0
2,34720, Note_on_c, 0, 70, 71
2,34728, Control_c, 0, 64, 72
2,34739, Note_on_c, 0, 69, 0
2,34744, Control_c, 0, 64, 75
2,34758, Control_c, 0, 64, 77
2,34785, Note_on_c, 0, 46, 0
2,34804, Control_c, 0, 64, 77
2,34848, Note_on_c, 0, 69, 74
2,34880, Note_on_c, 0, 70, 0
2,34881, Note_on_c, 0, 62, 0
2,34897, Note_on_c, 0, 69, 0
2,34949, Control_c, 0, 64, 75
2,34963, Control_c, 0, 64, 72
2,34978, Control_c, 0, 64, 65
2,34994, Control_c, 0, 64, 50
2,34997, Note_on_c, 0, 58, 91
2,34999, Note_on_c, 0, 62, 83
2,35000, Note_on_c, 0, 67, 87
2,35009, Control_c, 0, 64, 0
2,35125, Note_on_c, 0, 46, 71
2,35131, Control_c, 0, 64, 21
2,35147, Control_c, 0, 64, 26
2,35176, Control_c, 0, 64, 27
2,35268, Note_on_c, 0, 48, 67
2,35276, Note_on_c, 0, 58, 0
2,35330, Control_c, 0, 64, 26
2,35342, Note_on_c, 0, 46, 0
2,35375, Control_c, 0, 64, 25
2,35407, Note_on_c, 0, 66, 76
2,35414, Note_on_c, 0, 48, 0
2,35418, Note_on_c, 0, 50, 57
2,35427, Note_on_c, 0, 67, 0
2,35436, Control_c, 0, 64, 24
2,35441, Note_on_c, 0, 62, 0
2,35451, Control_c, 0, 64, 23
2,35481, Control_c, 0, 64, 21
2,35496, Control_c, 0, 64, 20
2,35512, Control_c, 0, 64, 15
2,35527, Control_c, 0, 64, 10
2,35534, Note_on_c, 0, 67, 79
2,35538, Note_on_c, 0, 50, 0
2,35543, Control_c, 0, 64, 0
2,35547, Note_on_c, 0, 51, 64
2,35554, Note_on_c, 0, 66, 0
2,35647, Note_on_c, 0, 51, 0
2,35684, Note_on_c, 0, 50, 62
2,35773, Note_on_c, 0, 50, 0
2,35815, Note_on_c, 0, 55, 84
2,35818, Note_on_c, 0, 51, 69
2,35929, Control_c, 0, 64, 43
2,35945, Control_c, 0, 64, 52
2,35960, Control_c, 0, 64, 54
2,35972, Note_on_c, 0, 67, 0
2,35975, Control_c, 0, 64, 57
2,35991, Control_c, 0, 64, 61
2,36006, Control_c, 0, 64, 64
2,36037, Control_c, 0, 64, 62
2,36051, Control_c, 0, 64, 49
2,36067, Control_c, 0, 64, 0
2,36100, Note_on_c, 0, 60, 89
2,36128, Control_c, 0, 64, 57
2,36144, Control_c, 0, 64, 64
2,36159, Control_c, 0, 64, 65
2,36174, Control_c, 0, 64, 66
2,36190, Control_c, 0, 64, 68
2,36204, Control_c, 0, 64, 71
2,36219, Control_c, 0, 64, 73
2,36229, Note_on_c, 0, 51, 0
2,36235, Control_c, 0, 64, 74
2,36247, Note_on_c, 0, 50, 56
2,36250, Control_c, 0, 64, 74
2,36253, Note_on_c, 0, 55, 0
2,36262, Note_on_c, 0, 60, 0
2,36296, Control_c, 0, 64, 73
2,36312, Control_c, 0, 64, 70
2,36326, Control_c, 0, 64, 64
2,36342, Control_c, 0, 64, 53
2,36357, Control_c, 0, 64, 45
2,36363, Note_on_c, 0, 50, 0
2,36371, Control_c, 0, 64, 47
2,36372, Note_on_c, 0, 60, 85
2,36374, Note_on_c, 0, 51, 55
2,36386, Control_c, 0, 64, 47
2,36416, Control_c, 0, 64, 47
2,36487, Note_on_c, 0, 51, 0
2,36503, Note_on_c, 0, 50, 68
2,36503, Note_on_c, 0, 70, 80
2,36516, Control_c, 0, 64, 46
2,36528, Note_on_c, 0, 60, 0
2,36530, Control_c, 0, 64, 45
2,36546, Control_c, 0, 64, 45
2,36561, Control_c, 0, 64, 44
2,36568, Note_on_c, 0, 70, 0
2,36606, Control_c, 0, 64, 43
2,36622, Control_c, 0, 64, 42
2,36623, Note_on_c, 0, 50, 0
2,36637, Control_c, 0, 64, 41
2,36641, Note_on_c, 0, 69, 88
2,36645, Note_on_c, 0, 60, 79
2,36648, Note_on_c, 0, 48, 68
2,36651, Control_c, 0, 64, 41
2,36713, Control_c, 0, 64, 41
2,36727, Control_c, 0, 64, 42
2,36766, Note_on_c, 0, 48, 0
2,36789, Control_c, 0, 64, 41
2,36789, Note_on_c, 0, 46, 63
2,36801, Note_on_c, 0, 60, 0
2,36835, Control_c, 0, 64, 42
2,36849, Control_c, 0, 64, 42
2,36865, Control_c, 0, 64, 43
2,36880, Control_c, 0, 64, 43
2,36885, Note_on_c, 0, 46, 0
2,36911, Control_c, 0, 64, 44
2,36915, Note_on_c, 0, 60, 80
2,36916, Note_on_c, 0, 48, 63
2,36926, Control_c, 0, 64, 44
2,36933, Note_on_c, 0, 69, 0
2,36942, Control_c, 0, 64, 45
2,36957, Control_c, 0, 64, 46
2,36988, Control_c, 0, 64, 46
2,37002, Control_c, 0, 64, 47
2,37014, Note_on_c, 0, 48, 0
2,37015, Note_on_c, 0, 60, 0
2,37017, Control_c, 0, 64, 47
2,37045, Note_on_c, 0, 46, 65
2,37048, Control_c, 0, 64, 48
2,37048, Note_on_c, 0, 72, 78
2,37064, Control_c, 0, 64, 48
2,37079, Note_on_c, 0, 72, 0
2,37093, Control_c, 0, 64, 48
2,37109, Control_c, 0, 64, 47
2,37124, Control_c, 0, 64, 47
2,37155, Control_c, 0, 64, 46
2,37169, Control_c, 0, 64, 45
2,37170, Note_on_c, 0, 46, 0
2,37179, Note_on_c, 0, 66, 82
2,37183, Note_on_c, 0, 45, 61
2,37185, Control_c, 0, 64, 44
2,37189, Note_on_c, 0, 60, 68
2,37295, Note_on_c, 0, 45, 0
2,37308, Note_on_c, 0, 60, 0
2,37323, Note_on_c, 0, 43, 54
2,37417, Note_on_c, 0, 43, 0
2,37449, Note_on_c, 0, 60, 69
2,37455, Note_on_c, 0, 66, 0
2,37468, Note_on_c, 0, 45, 53
2,37481, Control_c, 0, 64, 44
2,37526, Control_c, 0, 64, 43
2,37542, Control_c, 0, 64, 43
2,37544, Note_on_c, 0, 45, 0
2,37545, Note_on_c, 0, 60, 0
2,37557, Control_c, 0, 64, 42
2,37575, Note_on_c, 0, 69, 74
2,37576, Note_on_c, 0, 43, 49
2,37587, Control_c, 0, 64, 42
2,37602, Control_c, 0, 64, 41
2,37617, Control_c, 0, 64, 40
2,37620, Note_on_c, 0, 69, 0
2,37633, Control_c, 0, 64, 40
2,37647, Control_c, 0, 64, 38
2,37663, Control_c, 0, 64, 37
2,37678, Control_c, 0, 64, 36
2,37693, Control_c, 0, 64, 34
2,37704, Note_on_c, 0, 62, 66
2,37709, Control_c, 0, 64, 32
2,37709, Note_on_c, 0, 60, 56
2,37710, Note_on_c, 0, 43, 0
2,37724, Control_c, 0, 64, 32
2,37733, Note_on_c, 0, 42, 45
2,37800, Control_c, 0, 64, 31
2,37815, Control_c, 0, 64, 29
2,37831, Control_c, 0, 64, 25
2,37846, Control_c, 0, 64, 18
2,37849, Note_on_c, 0, 60, 0
2,37862, Control_c, 0, 64, 17
2,37877, Control_c, 0, 64, 20
2,37892, Control_c, 0, 64, 29
2,37908, Control_c, 0, 64, 39
2,37922, Control_c, 0, 64, 47
2,37937, Control_c, 0, 64, 51
2,37953, Control_c, 0, 64, 52
2,37959, Note_on_c, 0, 42, 0
2,37972, Note_on_c, 0, 62, 0
2,37989, Note_on_c, 0, 58, 64
2,37991, Control_c, 0, 64, 51
2,37998, Note_on_c, 0, 50, 45
2,38005, Control_c, 0, 64, 50
2,38020, Control_c, 0, 64, 48
2,38036, Control_c, 0, 64, 47
2,38045, Note_on_c, 0, 58, 0
2,38051, Control_c, 0, 64, 46
2,38097, Control_c, 0, 64, 45
2,38113, Control_c, 0, 64, 44
2,38120, Note_on_c, 0, 66, 56
2,38121, Note_on_c, 0, 57, 44
2,38127, Control_c, 0, 64, 43
2,38143, Control_c, 0, 64, 42
2,38158, Control_c, 0, 64, 42
2,38173, Control_c, 0, 64, 41
2,38188, Control_c, 0, 64, 40
2,38191, Note_on_c, 0, 57, 0
2,38203, Control_c, 0, 64, 39
2,38218, Control_c, 0, 64, 37
2,38225, Note_on_c, 0, 66, 0
2,38229, Note_on_c, 0, 50, 0
2,38234, Control_c, 0, 64, 35
2,38242, Note_on_c, 0, 43, 52
2,38247, Note_on_c, 0, 67, 64
2,38249, Control_c, 0, 64, 32
2,38253, Note_on_c, 0, 58, 60
2,38264, Control_c, 0, 64, 30
2,38283, Note_on_c, 0, 43, 0
2,38325, Control_c, 0, 64, 29
2,38345, Note_on_c, 0, 67, 0
2,38367, Note_on_c, 0, 58, 0
2,38396, Note_on_c, 0, 55, 57
2,38400, Control_c, 0, 64, 29
2,38462, Control_c, 0, 64, 28
2,38509, Note_on_c, 0, 55, 0
2,38522, Control_c, 0, 64, 27
2,38533, Note_on_c, 0, 57, 51
2,38535, Note_on_c, 0, 53, 50
2,38580, Note_on_c, 0, 53, 0
2,38660, Note_on_c, 0, 58, 59
2,38697, Note_on_c, 0, 57, 0
2,38721, Control_c, 0, 64, 28
2,38810, Note_on_c, 0, 60, 63
2,38815, Note_on_c, 0, 52, 48
2,38822, Note_on_c, 0, 58, 0
2,38834, Control_c, 0, 64, 29
2,38849, Control_c, 0, 64, 29
2,38858, Note_on_c, 0, 52, 0
2,38922, Note_on_c, 0, 60, 0
2,38925, Control_c, 0, 64, 30
2,38940, Note_on_c, 0, 58, 61
2,39017, Note_on_c, 0, 58, 0
2,39047, Control_c, 0, 64, 29
2,39063, Control_c, 0, 64, 29
2,39073, Note_on_c, 0, 48, 52
2,39078, Control_c, 0, 64, 28
2,39079, Note_on_c, 0, 60, 54
2,39108, Control_c, 0, 64, 27
2,39109, Note_on_c, 0, 48, 0
2,39171, Note_on_c, 0, 60, 0
2,39210, Note_on_c, 0, 70, 67
2,39230, Control_c, 0, 64, 28
2,39290, Control_c, 0, 64, 29
2,39329, Note_on_c, 0, 70, 0
2,39347, Note_on_c, 0, 53, 55
2,39348, Note_on_c, 0, 60, 58
2,39384, Note_on_c, 0, 53, 0
2,39442, Note_on_c, 0, 60, 0
2,39460, Note_on_c, 0, 70, 60
2,39504, Control_c, 0, 64, 28
2,39557, Control_c, 0, 64, 27
2,39564, Note_on_c, 0, 70, 0
2,39572, Control_c, 0, 64, 26
2,39588, Control_c, 0, 64, 24
2,39603, Control_c, 0, 64, 20
2,39609, Note_on_c, 0, 69, 62
2,39617, Control_c, 0, 64, 17
2,39618, Note_on_c, 0, 57, 48
2,39631, Note_on_c, 0, 65, 47
2,39633, Control_c, 0, 64, 13
2,39648, Control_c, 0, 64, 0
2,39665, Note_on_c, 0, 57, 0
2,39690, Note_on_c, 0, 65, 0
2,39734, Note_on_c, 0, 69, 0
2,39736, Note_on_c, 0, 67, 64
2,39748, Note_on_c, 0, 64, 45
2,39778, Note_on_c, 0, 64, 0
2,39825, Note_on_c, 0, 67, 0
2,39876, Note_on_c, 0, 65, 63
2,39877, Note_on_c, 0, 69, 61
2,39888, Note_on_c, 0, 50, 46
2,39908, Note_on_c, 0, 65, 0
2,39919, Note_on_c, 0, 50, 0
2,39929, Note_on_c, 0, 69, 0
2,40006, Note_on_c, 0, 69, 67
2,40144, Note_on_c, 0, 71, 70
2,40156, Note_on_c, 0, 60, 55
2,40161, Note_on_c, 0, 69, 0
2,40196, Note_on_c, 0, 60, 0
2,40270, Note_on_c, 0, 71, 0
2,40292, Note_on_c, 0, 72, 64
2,40417, Note_on_c, 0, 59, 55
2,40424, Note_on_c, 0, 72, 0
2,40430, Note_on_c, 0, 74, 66
2,40451, Note_on_c, 0, 59, 0
2,40536, Note_on_c, 0, 74, 0
2,40564, Note_on_c, 0, 72, 59
2,40705, Note_on_c, 0, 74, 69
2,40707, Note_on_c, 0, 55, 43
2,40713, Note_on_c, 0, 72, 0
2,40736, Note_on_c, 0, 55, 0
2,40808, Note_on_c, 0, 74, 0
2,40831, Note_on_c, 0, 65, 58
2,40948, Control_c, 0, 64, 10
2,40963, Control_c, 0, 64, 51
2,40963, Note_on_c, 0, 65, 0
2,40974, Note_on_c, 0, 74, 70
2,40978, Control_c, 0, 64, 61
2,40989, Note_on_c, 0, 60, 48
2,40994, Control_c, 0, 64, 65
2,41008, Control_c, 0, 64, 67
2,41023, Note_on_c, 0, 60, 0
2,41025, Control_c, 0, 64, 70
2,41040, Control_c, 0, 64, 73
2,41063, Control_c, 0, 64, 76
2,41078, Control_c, 0, 64, 77
2,41093, Control_c, 0, 64, 77
2,41109, Control_c, 0, 64, 78
2,41112, Note_on_c, 0, 65, 60
2,41118, Note_on_c, 0, 74, 0
2,41166, Note_on_c, 0, 65, 0
2,41200, Control_c, 0, 64, 77
2,41215, Control_c, 0, 64, 76
2,41231, Control_c, 0, 64, 71
2,41245, Control_c, 0, 64, 64
2,41249, Note_on_c, 0, 72, 69
2,41251, Note_on_c, 0, 55, 50
2,41253, Note_on_c, 0, 63, 73
2,41260, Control_c, 0, 64, 39
2,41276, Control_c, 0, 64, 0
2,41292, Note_on_c, 0, 63, 0
2,41303, Note_on_c, 0, 55, 0
2,41309, Note_on_c, 0, 72, 0
2,41376, Note_on_c, 0, 71, 62
2,41390, Note_on_c, 0, 62, 51
2,41424, Note_on_c, 0, 71, 0
2,41451, Note_on_c, 0, 62, 0
2,41519, Note_on_c, 0, 72, 69
2,41522, Note_on_c, 0, 48, 58
2,41539, Note_on_c, 0, 63, 61
2,41560, Note_on_c, 0, 48, 0
2,41589, Note_on_c, 0, 63, 0
2,41670, Note_on_c, 0, 60, 59
2,41761, Note_on_c, 0, 60, 0
2,41805, Note_on_c, 0, 57, 53
2,41807, Note_on_c, 0, 66, 67
2,41853, Note_on_c, 0, 57, 0
2,41879, Note_on_c, 0, 72, 0
2,41931, Note_on_c, 0, 66, 0
2,41936, Note_on_c, 0, 67, 67
2,42076, Note_on_c, 0, 69, 65
2,42082, Note_on_c, 0, 54, 54
2,42093, Note_on_c, 0, 67, 0
2,42127, Note_on_c, 0, 54, 0
2,42157, Note_on_c, 0, 69, 0
2,42204, Note_on_c, 0, 67, 68
2,42344, Note_on_c, 0, 50, 55
2,42350, Note_on_c, 0, 67, 0
2,42350, Note_on_c, 0, 69, 74
2,42393, Note_on_c, 0, 50, 0
2,42451, Control_c, 0, 64, 27
2,42466, Control_c, 0, 64, 47
2,42471, Note_on_c, 0, 69, 0
2,42482, Control_c, 0, 64, 52
2,42482, Note_on_c, 0, 72, 76
2,42497, Control_c, 0, 64, 55
2,42513, Control_c, 0, 64, 58
2,42528, Control_c, 0, 64, 58
2,42542, Control_c, 0, 64, 57
2,42558, Control_c, 0, 64, 48
2,42573, Control_c, 0, 64, 0
2,42625, Note_on_c, 0, 69, 76
2,42633, Note_on_c, 0, 55, 53
2,42635, Note_on_c, 0, 72, 0
2,42641, Control_c, 0, 64, 30
2,42656, Control_c, 0, 64, 55
2,42673, Control_c, 0, 64, 62
2,42688, Control_c, 0, 64, 63
2,42703, Control_c, 0, 64, 64
2,42718, Control_c, 0, 64, 66
2,42733, Control_c, 0, 64, 68
2,42744, Note_on_c, 0, 69, 0
2,42749, Control_c, 0, 64, 70
2,42758, Note_on_c, 0, 72, 75
2,42764, Control_c, 0, 64, 74
2,42778, Control_c, 0, 64, 78
2,42794, Control_c, 0, 64, 80
2,42824, Control_c, 0, 64, 79
2,42840, Control_c, 0, 64, 76
2,42855, Control_c, 0, 64, 69
2,42871, Control_c, 0, 64, 43
2,42886, Control_c, 0, 64, 0
2,42886, Note_on_c, 0, 55, 0
2,42892, Note_on_c, 0, 58, 66
2,42894, Note_on_c, 0, 67, 56
2,42894, Note_on_c, 0, 70, 74
2,42911, Note_on_c, 0, 72, 0
2,42917, Control_c, 0, 64, 53
2,42931, Control_c, 0, 64, 65
2,42940, Note_on_c, 0, 67, 0
2,42946, Control_c, 0, 64, 69
2,42962, Control_c, 0, 64, 73
2,42976, Control_c, 0, 64, 76
2,42992, Control_c, 0, 64, 78
2,43007, Control_c, 0, 64, 80
2,43018, Note_on_c, 0, 69, 75
2,43027, Note_on_c, 0, 66, 66
2,43029, Note_on_c, 0, 70, 0
2,43038, Control_c, 0, 64, 79
2,43052, Control_c, 0, 64, 76
2,43067, Control_c, 0, 64, 65
2,43083, Control_c, 0, 64, 0
2,43084, Note_on_c, 0, 58, 0
2,43104, Note_on_c, 0, 66, 0
2,43113, Control_c, 0, 64, 40
2,43128, Control_c, 0, 64, 64
2,43143, Control_c, 0, 64, 70
2,43146, Note_on_c, 0, 70, 79
2,43155, Note_on_c, 0, 67, 71
2,43156, Note_on_c, 0, 52, 67
2,43159, Control_c, 0, 64, 74
2,43173, Control_c, 0, 64, 74
2,43173, Note_on_c, 0, 69, 0
2,43179, Note_on_c, 0, 67, 0
2,43198, Note_on_c, 0, 70, 0
2,43288, Note_on_c, 0, 74, 78
2,43326, Control_c, 0, 64, 74
2,43341, Control_c, 0, 64, 73
2,43365, Control_c, 0, 64, 72
2,43380, Control_c, 0, 64, 70
2,43395, Control_c, 0, 64, 66
2,43410, Control_c, 0, 64, 54
2,43425, Control_c, 0, 64, 0
2,43430, Note_on_c, 0, 62, 63
2,43432, Note_on_c, 0, 76, 81
2,43460, Note_on_c, 0, 74, 0
2,43489, Note_on_c, 0, 52, 0
2,43568, Note_on_c, 0, 77, 84
2,43608, Note_on_c, 0, 76, 0
2,43687, Note_on_c, 0, 62, 0
2,43697, Note_on_c, 0, 61, 56
2,43703, Note_on_c, 0, 79, 82
2,43732, Note_on_c, 0, 77, 0
2,43837, Note_on_c, 0, 77, 78
2,43866, Note_on_c, 0, 79, 0
2,43950, Note_on_c, 0, 61, 0
2,43977, Note_on_c, 0, 79, 76
2,43981, Note_on_c, 0, 77, 0
2,43993, Note_on_c, 0, 57, 40
2,44097, Note_on_c, 0, 57, 0
2,44130, Note_on_c, 0, 61, 41
2,44221, Note_on_c, 0, 61, 0
2,44263, Note_on_c, 0, 62, 51
2,44338, Note_on_c, 0, 62, 0
2,44386, Note_on_c, 0, 61, 42
2,44490, Note_on_c, 0, 61, 0
2,44513, Control_c, 0, 64, 46
2,44527, Control_c, 0, 64, 59
2,44533, Note_on_c, 0, 62, 53
2,44542, Control_c, 0, 64, 63
2,44545, Note_on_c, 0, 77, 71
2,44558, Control_c, 0, 64, 65
2,44573, Control_c, 0, 64, 68
2,44589, Control_c, 0, 64, 71
2,44604, Control_c, 0, 64, 74
2,44619, Control_c, 0, 64, 75
2,44625, Note_on_c, 0, 62, 0
2,44635, Control_c, 0, 64, 75
2,44653, Note_on_c, 0, 79, 0
2,44657, Note_on_c, 0, 57, 48
2,44662, Note_on_c, 0, 76, 70
2,44664, Control_c, 0, 64, 76
2,44664, Note_on_c, 0, 77, 0
2,44688, Note_on_c, 0, 57, 0
2,44695, Note_on_c, 0, 76, 0
2,44756, Control_c, 0, 64, 75
2,44771, Control_c, 0, 64, 75
2,44785, Control_c, 0, 64, 72
2,44801, Control_c, 0, 64, 68
2,44816, Control_c, 0, 64, 59
2,44818, Note_on_c, 0, 77, 83
2,44821, Note_on_c, 0, 69, 78
2,44832, Control_c, 0, 64, 0
2,44848, Note_on_c, 0, 50, 60
2,44968, Note_on_c, 0, 74, 71
2,45000, Note_on_c, 0, 77, 0
2,45084, Note_on_c, 0, 50, 0
2,45116, Note_on_c, 0, 77, 76
2,45130, Note_on_c, 0, 62, 56
2,45147, Note_on_c, 0, 74, 0
2,45190, Note_on_c, 0, 62, 0
2,45242, Note_on_c, 0, 79, 68
2,45265, Note_on_c, 0, 77, 0
2,45267, Note_on_c, 0, 64, 53
2,45382, Note_on_c, 0, 64, 0
2,45385, Note_on_c, 0, 79, 0
2,45386, Note_on_c, 0, 81, 71
2,45396, Note_on_c, 0, 65, 60
2,45436, Note_on_c, 0, 65, 0
2,45493, Note_on_c, 0, 81, 0
2,45507, Note_on_c, 0, 79, 55
2,45567, Note_on_c, 0, 69, 0
2,45665, Note_on_c, 0, 65, 82
2,45667, Control_c, 0, 64, 52
2,45671, Note_on_c, 0, 81, 72
2,45683, Control_c, 0, 64, 61
2,45684, Note_on_c, 0, 62, 55
2,45698, Control_c, 0, 64, 64
2,45699, Note_on_c, 0, 79, 0
2,45714, Control_c, 0, 64, 65
2,45720, Note_on_c, 0, 81, 0
2,45729, Control_c, 0, 64, 66
2,45744, Control_c, 0, 64, 67
2,45760, Control_c, 0, 64, 67
2,45774, Control_c, 0, 64, 68
2,45777, Note_on_c, 0, 62, 0
2,45786, Note_on_c, 0, 65, 0
2,45790, Control_c, 0, 64, 68
2,45805, Control_c, 0, 64, 69
2,45820, Control_c, 0, 64, 69
2,45850, Control_c, 0, 64, 70
2,45881, Control_c, 0, 64, 69
2,45896, Control_c, 0, 64, 69
2,45912, Control_c, 0, 64, 65
2,45926, Control_c, 0, 64, 55
2,45942, Control_c, 0, 64, 0
2,45970, Note_on_c, 0, 81, 90
2,45974, Note_on_c, 0, 70, 81
2,45977, Note_on_c, 0, 67, 63
2,46049, Control_c, 0, 64, 56
2,46064, Control_c, 0, 64, 60
2,46079, Control_c, 0, 64, 62
2,46094, Control_c, 0, 64, 63
2,46106, Note_on_c, 0, 67, 0
2,46110, Control_c, 0, 64, 66
2,46116, Note_on_c, 0, 55, 49
2,46125, Control_c, 0, 64, 69
2,46140, Control_c, 0, 64, 72
2,46155, Control_c, 0, 64, 74
2,46170, Control_c, 0, 64, 75
2,46185, Control_c, 0, 64, 75
2,46200, Control_c, 0, 64, 76
2,46231, Control_c, 0, 64, 76
2,46245, Note_on_c, 0, 81, 0
2,46254, Note_on_c, 0, 70, 0
2,46255, Note_on_c, 0, 74, 57
2,46264, Note_on_c, 0, 57, 53
2,46286, Note_on_c, 0, 55, 0
2,46330, Note_on_c, 0, 74, 0
2,46372, Note_on_c, 0, 57, 0
2,46406, Note_on_c, 0, 58, 54
2,46467, Control_c, 0, 64, 76
2,46482, Control_c, 0, 64, 75
2,46497, Control_c, 0, 64, 71
2,46513, Control_c, 0, 64, 66
2,46528, Control_c, 0, 64, 53
2,46536, Note_on_c, 0, 67, 86
2,46537, Note_on_c, 0, 58, 0
2,46543, Control_c, 0, 64, 0
2,46559, Note_on_c, 0, 60, 56
2,46641, Note_on_c, 0, 60, 0
2,46677, Note_on_c, 0, 74, 67
2,46683, Note_on_c, 0, 55, 50
2,46793, Note_on_c, 0, 55, 0
2,46813, Note_on_c, 0, 76, 70
2,46826, Note_on_c, 0, 60, 51
2,46886, Note_on_c, 0, 67, 0
2,46938, Note_on_c, 0, 60, 0
2,46945, Note_on_c, 0, 77, 71
2,46974, Note_on_c, 0, 62, 53
2,47024, Note_on_c, 0, 74, 0
2,47047, Note_on_c, 0, 76, 0
2,47067, Note_on_c, 0, 62, 0
2,47080, Note_on_c, 0, 79, 70
2,47086, Note_on_c, 0, 64, 66
2,47086, Note_on_c, 0, 77, 0
2,47125, Note_on_c, 0, 64, 0
2,47183, Note_on_c, 0, 79, 0
2,47212, Note_on_c, 0, 77, 64
2,47341, Control_c, 0, 64, 50
2,47355, Note_on_c, 0, 79, 72
2,47357, Control_c, 0, 64, 62
2,47360, Note_on_c, 0, 64, 84
2,47364, Note_on_c, 0, 77, 0
2,47371, Control_c, 0, 64, 65
2,47377, Note_on_c, 0, 60, 58
2,47386, Control_c, 0, 64, 67
2,47402, Control_c, 0, 64, 69
2,47417, Control_c, 0, 64, 71
2,47418, Note_on_c, 0, 79, 0
2,47433, Control_c, 0, 64, 73
2,47437, Note_on_c, 0, 60, 0
2,47447, Control_c, 0, 64, 75
2,47452, Note_on_c, 0, 64, 0
2,47462, Control_c, 0, 64, 76
2,47478, Control_c, 0, 64, 76
2,47493, Control_c, 0, 64, 77
2,47524, Control_c, 0, 64, 77
2,47539, Control_c, 0, 64, 78
2,47585, Control_c, 0, 64, 78
2,47601, Control_c, 0, 64, 75
2,47616, Control_c, 0, 64, 70
2,47631, Control_c, 0, 64, 61
2,47643, Note_on_c, 0, 79, 83
2,47644, Note_on_c, 0, 69, 84
2,47646, Control_c, 0, 64, 0
2,47649, Note_on_c, 0, 65, 65
2,47737, Control_c, 0, 64, 38
2,47753, Control_c, 0, 64, 55
2,47758, Note_on_c, 0, 65, 0
2,47768, Control_c, 0, 64, 59
2,47783, Control_c, 0, 64, 62
2,47783, Note_on_c, 0, 53, 50
2,47799, Control_c, 0, 64, 64
2,47813, Control_c, 0, 64, 66
2,47829, Control_c, 0, 64, 67
2,47844, Control_c, 0, 64, 70
2,47859, Control_c, 0, 64, 72
2,47875, Control_c, 0, 64, 74
2,47889, Control_c, 0, 64, 75
2,47903, Control_c, 0, 64, 75
2,47905, Note_on_c, 0, 53, 0
2,47919, Control_c, 0, 64, 76
2,47923, Note_on_c, 0, 79, 0
2,47941, Note_on_c, 0, 72, 65
2,47945, Note_on_c, 0, 55, 50
2,47950, Control_c, 0, 64, 76
2,47970, Note_on_c, 0, 69, 0
2,48013, Note_on_c, 0, 72, 0
2,48053, Note_on_c, 0, 55, 0
2,48090, Note_on_c, 0, 57, 46
2,48184, Control_c, 0, 64, 75
2,48194, Note_on_c, 0, 57, 0
2,48200, Control_c, 0, 64, 71
2,48203, Note_on_c, 0, 65, 91
2,48214, Control_c, 0, 64, 65
2,48217, Note_on_c, 0, 58, 60
2,48230, Control_c, 0, 64, 47
2,48245, Control_c, 0, 64, 0
2,48326, Note_on_c, 0, 58, 0
2,48353, Note_on_c, 0, 72, 71
2,48359, Note_on_c, 0, 53, 52
2,48467, Note_on_c, 0, 53, 0
2,48490, Note_on_c, 0, 72, 0
2,48491, Note_on_c, 0, 74, 65
2,48493, Note_on_c, 0, 58, 60
2,48604, Note_on_c, 0, 58, 0
2,48614, Note_on_c, 0, 74, 0
2,48624, Note_on_c, 0, 76, 62
2,48627, Note_on_c, 0, 60, 57
2,48744, Note_on_c, 0, 60, 0
2,48762, Note_on_c, 0, 77, 68
2,48764, Note_on_c, 0, 76, 0
2,48771, Note_on_c, 0, 62, 67
2,48791, Note_on_c, 0, 65, 0
2,48852, Note_on_c, 0, 62, 0
2,48896, Note_on_c, 0, 76, 57
2,48900, Note_on_c, 0, 60, 49
2,48902, Note_on_c, 0, 77, 0
2,49004, Note_on_c, 0, 60, 0
2,49024, Note_on_c, 0, 62, 79
2,49034, Note_on_c, 0, 77, 66
2,49036, Note_on_c, 0, 58, 67
2,49046, Note_on_c, 0, 76, 0
2,49074, Control_c, 0, 64, 56
2,49089, Control_c, 0, 64, 62
2,49104, Control_c, 0, 64, 63
2,49120, Control_c, 0, 64, 64
2,49135, Control_c, 0, 64, 65
2,49138, Note_on_c, 0, 58, 0
2,49151, Control_c, 0, 64, 66
2,49165, Control_c, 0, 64, 68
2,49174, Note_on_c, 0, 57, 54
2,49180, Control_c, 0, 64, 71
2,49190, Note_on_c, 0, 62, 0
2,49196, Control_c, 0, 64, 73
2,49212, Control_c, 0, 64, 75
2,49227, Control_c, 0, 64, 76
2,49242, Control_c, 0, 64, 75
2,49257, Control_c, 0, 64, 72
2,49273, Control_c, 0, 64, 65
2,49288, Control_c, 0, 64, 0
2,49302, Note_on_c, 0, 57, 0
2,49310, Note_on_c, 0, 67, 89
2,49322, Note_on_c, 0, 58, 54
2,49333, Control_c, 0, 64, 10
2,49349, Control_c, 0, 64, 61
2,49364, Control_c, 0, 64, 65
2,49379, Control_c, 0, 64, 67
2,49395, Control_c, 0, 64, 69
2,49410, Control_c, 0, 64, 70
2,49425, Control_c, 0, 64, 71
2,49441, Control_c, 0, 64, 74
2,49442, Note_on_c, 0, 58, 0
2,49451, Note_on_c, 0, 67, 0
2,49455, Control_c, 0, 64, 77
2,49465, Note_on_c, 0, 62, 67
2,49471, Control_c, 0, 64, 79
2,49471, Note_on_c, 0, 77, 0
2,49486, Control_c, 0, 64, 81
2,49538, Control_c, 0, 64, 78
2,49554, Control_c, 0, 64, 71
2,49569, Control_c, 0, 64, 61
2,49577, Note_on_c, 0, 62, 0
2,49584, Control_c, 0, 64, 42
2,49591, Note_on_c, 0, 67, 83
2,49600, Control_c, 0, 64, 58
2,49609, Note_on_c, 0, 61, 57
2,49615, Control_c, 0, 64, 66
2,49630, Control_c, 0, 64, 71
2,49645, Control_c, 0, 64, 76
2,49663, Control_c, 0, 64, 76
2,49695, Note_on_c, 0, 61, 0
2,49723, Note_on_c, 0, 77, 75
2,49733, Note_on_c, 0, 62, 63
2,49750, Note_on_c, 0, 67, 0
2,49754, Control_c, 0, 64, 75
2,49769, Control_c, 0, 64, 73
2,49784, Control_c, 0, 64, 68
2,49799, Control_c, 0, 64, 58
2,49814, Control_c, 0, 64, 29
2,49830, Control_c, 0, 64, 13
2,49836, Note_on_c, 0, 62, 0
2,49844, Control_c, 0, 64, 15
2,49866, Note_on_c, 0, 67, 79
2,49868, Note_on_c, 0, 76, 76
2,49869, Note_on_c, 0, 55, 60
2,49875, Control_c, 0, 64, 10
2,49890, Control_c, 0, 64, 0
2,49919, Note_on_c, 0, 77, 0
2,49969, Note_on_c, 0, 55, 0
2,49989, Note_on_c, 0, 74, 71
2,50001, Note_on_c, 0, 76, 0
2,50007, Note_on_c, 0, 58, 64
2,50033, Note_on_c, 0, 67, 0
2,50104, Control_c, 0, 64, 10
2,50114, Note_on_c, 0, 74, 0
2,50120, Note_on_c, 0, 58, 0
2,50127, Note_on_c, 0, 76, 78
2,50133, Control_c, 0, 64, 0
2,50135, Note_on_c, 0, 57, 60
2,50136, Note_on_c, 0, 67, 78
2,50247, Note_on_c, 0, 57, 0
2,50249, Note_on_c, 0, 74, 74
2,50271, Note_on_c, 0, 58, 63
2,50300, Note_on_c, 0, 67, 0
2,50329, Note_on_c, 0, 76, 0
2,50354, Control_c, 0, 64, 10
2,50372, Note_on_c, 0, 74, 0
2,50384, Note_on_c, 0, 58, 0
2,50404, Note_on_c, 0, 52, 62
2,50408, Note_on_c, 0, 67, 79
2,50409, Note_on_c, 0, 73, 70
2,50430, Control_c, 0, 64, 0
2,50460, Control_c, 0, 64, 13
2,50490, Control_c, 0, 64, 15
2,50513, Note_on_c, 0, 52, 0
2,50536, Control_c, 0, 64, 13
2,50541, Note_on_c, 0, 74, 70
2,50558, Note_on_c, 0, 67, 0
2,50565, Note_on_c, 0, 64, 57
2,50585, Note_on_c, 0, 73, 0
2,50642, Control_c, 0, 64, 10
2,50657, Control_c, 0, 64, 0
2,50682, Note_on_c, 0, 64, 0
2,50685, Note_on_c, 0, 76, 74
2,50688, Note_on_c, 0, 67, 62
2,50703, Note_on_c, 0, 61, 57
2,50723, Note_on_c, 0, 74, 0
2,50800, Note_on_c, 0, 67, 0
2,50806, Note_on_c, 0, 61, 0
2,50832, Note_on_c, 0, 57, 49
2,50918, Note_on_c, 0, 57, 0
2,50959, Note_on_c, 0, 67, 63
2,50965, Note_on_c, 0, 62, 53
2,51073, Note_on_c, 0, 67, 0
2,51091, Note_on_c, 0, 62, 0
2,51108, Note_on_c, 0, 50, 42
2,51239, Note_on_c, 0, 76, 0
2,51252, Note_on_c, 0, 74, 54
2,51255, Note_on_c, 0, 50, 0
2,51255, Note_on_c, 0, 65, 45
2,51257, Note_on_c, 0, 53, 42
2,51282, Note_on_c, 0, 65, 0
2,51308, Note_on_c, 0, 74, 0
2,51317, Note_on_c, 0, 53, 0
2,51372, Note_on_c, 0, 57, 31
2,51510, Note_on_c, 0, 57, 0
2,51530, Note_on_c, 0, 77, 85
2,51540, Note_on_c, 0, 62, 50
2,51645, Note_on_c, 0, 62, 0
2,51683, Note_on_c, 0, 60, 46
2,51684, Note_on_c, 0, 69, 60
2,51756, Note_on_c, 0, 69, 0
2,51771, Note_on_c, 0, 60, 0
2,51820, Note_on_c, 0, 62, 51
2,51829, Note_on_c, 0, 70, 61
2,51883, Note_on_c, 0, 62, 0
2,51943, Note_on_c, 0, 60, 45
2,51949, Note_on_c, 0, 72, 65
2,51965, Note_on_c, 0, 77, 0
2,51968, Note_on_c, 0, 70, 0
2,52050, Note_on_c, 0, 60, 0
2,52084, Note_on_c, 0, 58, 49
2,52089, Note_on_c, 0, 74, 62
2,52103, Note_on_c, 0, 72, 0
2,52155, Note_on_c, 0, 74, 0
2,52187, Note_on_c, 0, 58, 0
2,52220, Note_on_c, 0, 62, 39
2,52220, Note_on_c, 0, 72, 62
2,52259, Note_on_c, 0, 72, 0
2,52343, Note_on_c, 0, 62, 0
2,52363, Note_on_c, 0, 74, 83
2,52375, Note_on_c, 0, 55, 46
2,52420, Note_on_c, 0, 74, 0
2,52470, Note_on_c, 0, 55, 0
2,52501, Note_on_c, 0, 58, 50
2,52631, Note_on_c, 0, 58, 0
2,52656, Note_on_c, 0, 51, 55
2,52656, Note_on_c, 0, 79, 86
2,52669, Note_on_c, 0, 74, 70
2,52733, Control_c, 0, 64, 42
2,52749, Control_c, 0, 64, 57
2,52764, Control_c, 0, 64, 61
2,52779, Control_c, 0, 64, 64
2,52795, Control_c, 0, 64, 65
2,52809, Control_c, 0, 64, 66
2,52815, Note_on_c, 0, 55, 48
2,52825, Control_c, 0, 64, 69
2,52840, Control_c, 0, 64, 72
2,52855, Control_c, 0, 64, 76
2,52871, Control_c, 0, 64, 78
2,52885, Control_c, 0, 64, 79
2,52910, Note_on_c, 0, 79, 0
2,52933, Note_on_c, 0, 74, 0
2,52941, Note_on_c, 0, 55, 0
2,52944, Note_on_c, 0, 67, 61
2,52970, Note_on_c, 0, 51, 0
2,52971, Note_on_c, 0, 57, 42
2,53066, Note_on_c, 0, 57, 0
2,53093, Note_on_c, 0, 58, 56
2,53164, Note_on_c, 0, 67, 0
2,53190, Control_c, 0, 64, 79
2,53191, Note_on_c, 0, 58, 0
2,53204, Control_c, 0, 64, 77
2,53217, Note_on_c, 0, 75, 88
2,53219, Control_c, 0, 64, 73
2,53230, Note_on_c, 0, 60, 61
2,53235, Control_c, 0, 64, 65
2,53250, Control_c, 0, 64, 44
2,53266, Control_c, 0, 64, 0
2,53344, Note_on_c, 0, 60, 0
2,53370, Note_on_c, 0, 67, 63
2,53380, Note_on_c, 0, 58, 42
2,53467, Note_on_c, 0, 58, 0
2,53506, Note_on_c, 0, 60, 51
2,53509, Note_on_c, 0, 69, 63
2,53513, Note_on_c, 0, 67, 0
2,53586, Note_on_c, 0, 75, 0
2,53610, Note_on_c, 0, 60, 0
2,53632, Note_on_c, 0, 58, 48
2,53647, Note_on_c, 0, 70, 62
2,53680, Note_on_c, 0, 69, 0
2,53752, Note_on_c, 0, 58, 0
2,53773, Note_on_c, 0, 70, 0
2,53776, Note_on_c, 0, 57, 47
2,53778, Note_on_c, 0, 72, 69
2,53851, Note_on_c, 0, 72, 0
2,53866, Note_on_c, 0, 57, 0
2,53906, Note_on_c, 0, 60, 50
2,53906, Note_on_c, 0, 70, 58
2,53968, Note_on_c, 0, 70, 0
2,54015, Note_on_c, 0, 60, 0
2,54044, Note_on_c, 0, 72, 87
2,54049, Note_on_c, 0, 53, 57
2,54146, Note_on_c, 0, 53, 0
2,54152, Note_on_c, 0, 72, 0
2,54190, Note_on_c, 0, 57, 54
2,54319, Note_on_c, 0, 57, 0
2,54336, Note_on_c, 0, 50, 58
2,54339, Note_on_c, 0, 77, 88
2,54348, Note_on_c, 0, 72, 77
2,54393, Control_c, 0, 64, 44
2,54408, Control_c, 0, 64, 58
2,54423, Control_c, 0, 64, 63
2,54438, Control_c, 0, 64, 66
2,54453, Control_c, 0, 64, 69
2,54457, Note_on_c, 0, 50, 0
2,54469, Control_c, 0, 64, 72
2,54478, Note_on_c, 0, 53, 58
2,54484, Control_c, 0, 64, 75
2,54498, Control_c, 0, 64, 78
2,54514, Control_c, 0, 64, 80
2,54529, Control_c, 0, 64, 81
2,54544, Control_c, 0, 64, 82
2,54559, Control_c, 0, 64, 82
2,54574, Control_c, 0, 64, 83
2,54590, Control_c, 0, 64, 84
2,54602, Note_on_c, 0, 53, 0
2,54604, Note_on_c, 0, 77, 0
2,54619, Control_c, 0, 64, 84
2,54623, Note_on_c, 0, 55, 48
2,54631, Note_on_c, 0, 72, 0
2,54638, Note_on_c, 0, 65, 62
2,54744, Note_on_c, 0, 55, 0
2,54763, Note_on_c, 0, 57, 60
2,54851, Note_on_c, 0, 65, 0
2,54900, Control_c, 0, 64, 84
2,54916, Control_c, 0, 64, 82
2,54916, Note_on_c, 0, 57, 0
2,54921, Note_on_c, 0, 74, 86
2,54929, Note_on_c, 0, 58, 67
2,54930, Control_c, 0, 64, 79
2,54946, Control_c, 0, 64, 73
2,54962, Control_c, 0, 64, 65
2,54976, Control_c, 0, 64, 46
2,54992, Control_c, 0, 64, 0
2,55037, Note_on_c, 0, 58, 0
2,55063, Note_on_c, 0, 65, 64
2,55066, Note_on_c, 0, 57, 50
2,55194, Note_on_c, 0, 65, 0
2,55199, Note_on_c, 0, 57, 0
2,55199, Note_on_c, 0, 67, 66
2,55212, Note_on_c, 0, 58, 52
2,55260, Note_on_c, 0, 74, 0
2,55321, Note_on_c, 0, 58, 0
2,55334, Note_on_c, 0, 57, 50
2,55346, Note_on_c, 0, 69, 66
2,55454, Note_on_c, 0, 57, 0
2,55478, Note_on_c, 0, 70, 74
2,55480, Note_on_c, 0, 55, 53
2,55485, Note_on_c, 0, 69, 0
2,55489, Note_on_c, 0, 67, 0
2,55564, Note_on_c, 0, 55, 0
2,55567, Note_on_c, 0, 70, 0
2,55611, Note_on_c, 0, 69, 69
2,55618, Note_on_c, 0, 58, 46
2,55750, Note_on_c, 0, 58, 0
2,55768, Note_on_c, 0, 70, 79
2,55774, Note_on_c, 0, 51, 55
2,55787, Note_on_c, 0, 69, 0
2,55900, Note_on_c, 0, 51, 0
2,55926, Note_on_c, 0, 55, 47
2,56047, Note_on_c, 0, 75, 81
2,56049, Note_on_c, 0, 55, 0
2,56057, Note_on_c, 0, 48, 60
2,56079, Note_on_c, 0, 70, 0
2,56120, Note_on_c, 0, 75, 0
2,56189, Note_on_c, 0, 48, 0
2,56207, Note_on_c, 0, 55, 46
2,56299, Note_on_c, 0, 55, 0
2,56327, Note_on_c, 0, 75, 80
2,56346, Note_on_c, 0, 57, 58
2,56417, Note_on_c, 0, 75, 0
2,56466, Note_on_c, 0, 57, 0
2,56472, Note_on_c, 0, 70, 66
2,56473, Note_on_c, 0, 58, 61
2,56518, Note_on_c, 0, 70, 0
2,56590, Note_on_c, 0, 58, 0
2,56615, Note_on_c, 0, 60, 61
2,56616, Note_on_c, 0, 75, 82
2,56620, Note_on_c, 0, 69, 76
2,56665, Note_on_c, 0, 69, 0
2,56693, Note_on_c, 0, 75, 0
2,56716, Note_on_c, 0, 60, 0
2,56740, Note_on_c, 0, 58, 59
2,56750, Note_on_c, 0, 67, 67
2,56786, Note_on_c, 0, 67, 0
2,56869, Note_on_c, 0, 58, 0
2,56881, Note_on_c, 0, 69, 82
2,56881, Note_on_c, 0, 75, 81
2,56882, Note_on_c, 0, 60, 65
2,56908, Note_on_c, 0, 69, 0
2,56962, Note_on_c, 0, 75, 0
2,56989, Note_on_c, 0, 60, 0
2,56996, Note_on_c, 0, 67, 76
2,57005, Note_on_c, 0, 58, 55
2,57040, Note_on_c, 0, 67, 0
2,57111, Note_on_c, 0, 58, 0
2,57144, Note_on_c, 0, 75, 87
2,57145, Note_on_c, 0, 57, 63
2,57148, Note_on_c, 0, 65, 81
2,57227, Note_on_c, 0, 57, 0
2,57244, Note_on_c, 0, 75, 0
2,57264, Note_on_c, 0, 53, 59
2,57397, Note_on_c, 0, 53, 0
2,57413, Note_on_c, 0, 75, 89
2,57421, Note_on_c, 0, 55, 65
2,57492, Note_on_c, 0, 75, 0
2,57508, Note_on_c, 0, 55, 0
2,57550, Note_on_c, 0, 57, 64
2,57686, Note_on_c, 0, 75, 89
2,57695, Note_on_c, 0, 58, 76
2,57698, Note_on_c, 0, 57, 0
2,57735, Control_c, 0, 64, 29
2,57751, Control_c, 0, 64, 33
2,57763, Note_on_c, 0, 65, 0
2,57781, Control_c, 0, 64, 32
2,57797, Control_c, 0, 64, 31
2,57811, Control_c, 0, 64, 30
2,57812, Note_on_c, 0, 58, 0
2,57825, Note_on_c, 0, 57, 60
2,57826, Control_c, 0, 64, 29
2,57842, Control_c, 0, 64, 28
2,57857, Control_c, 0, 64, 26
2,57873, Control_c, 0, 64, 21
2,57888, Control_c, 0, 64, 15
2,57888, Note_on_c, 0, 75, 0
2,57903, Control_c, 0, 64, 10
2,57918, Control_c, 0, 64, 0
2,57965, Note_on_c, 0, 57, 0
2,57965, Note_on_c, 0, 58, 69
2,57968, Note_on_c, 0, 74, 77
2,58087, Note_on_c, 0, 58, 0
2,58096, Note_on_c, 0, 60, 73
2,58099, Note_on_c, 0, 75, 74
2,58124, Note_on_c, 0, 60, 0
2,58124, Note_on_c, 0, 74, 0
2,58210, Note_on_c, 0, 75, 0
2,58247, Note_on_c, 0, 62, 91
2,58252, Note_on_c, 0, 58, 76
2,58252, Note_on_c, 0, 77, 85
2,58291, Control_c, 0, 64, 31
2,58306, Control_c, 0, 64, 56
2,58316, Note_on_c, 0, 77, 0
2,58322, Control_c, 0, 64, 62
2,58337, Control_c, 0, 64, 65
2,58348, Note_on_c, 0, 62, 0
2,58353, Control_c, 0, 64, 67
2,58367, Control_c, 0, 64, 70
2,58382, Control_c, 0, 64, 72
2,58384, Note_on_c, 0, 60, 61
2,58395, Note_on_c, 0, 70, 75
2,58398, Control_c, 0, 64, 74
2,58413, Control_c, 0, 64, 75
2,58428, Control_c, 0, 64, 76
2,58491, Note_on_c, 0, 60, 0
2,58508, Note_on_c, 0, 70, 0
2,58524, Note_on_c, 0, 62, 69
2,58531, Note_on_c, 0, 77, 73
2,58564, Control_c, 0, 64, 75
2,58579, Control_c, 0, 64, 74
2,58595, Control_c, 0, 64, 73
2,58596, Note_on_c, 0, 62, 0
2,58610, Control_c, 0, 64, 72
2,58625, Control_c, 0, 64, 71
2,58640, Control_c, 0, 64, 69
2,58655, Control_c, 0, 64, 64
2,58667, Note_on_c, 0, 79, 73
2,58671, Control_c, 0, 64, 56
2,58672, Note_on_c, 0, 64, 52
2,58685, Control_c, 0, 64, 39
2,58700, Control_c, 0, 64, 0
2,58730, Note_on_c, 0, 77, 0
2,58791, Note_on_c, 0, 64, 0
2,58807, Note_on_c, 0, 65, 65
2,58808, Note_on_c, 0, 81, 81
2,58814, Note_on_c, 0, 79, 0
2,58892, Note_on_c, 0, 65, 0
2,58900, Note_on_c, 0, 81, 0
2,58916, Note_on_c, 0, 58, 0
2,58941, Note_on_c, 0, 79, 64
2,58948, Note_on_c, 0, 64, 48
2,58970, Note_on_c, 0, 64, 0
2,59078, Note_on_c, 0, 81, 83
2,59081, Note_on_c, 0, 65, 82
2,59089, Note_on_c, 0, 57, 67
2,59104, Note_on_c, 0, 79, 0
2,59116, Note_on_c, 0, 65, 0
2,59124, Note_on_c, 0, 57, 0
2,59194, Note_on_c, 0, 81, 0
2,59230, Note_on_c, 0, 72, 68
2,59256, Note_on_c, 0, 72, 0
2,59365, Note_on_c, 0, 65, 95
2,59369, Note_on_c, 0, 70, 81
2,59369, Note_on_c, 0, 81, 75
2,59370, Note_on_c, 0, 62, 84
2,59394, Note_on_c, 0, 81, 0
2,59424, Note_on_c, 0, 70, 0
2,59528, Note_on_c, 0, 72, 78
2,59587, Note_on_c, 0, 72, 0
2,59660, Note_on_c, 0, 74, 77
2,59661, Note_on_c, 0, 70, 73
2,59674, Control_c, 0, 64, 54
2,59689, Control_c, 0, 64, 62
2,59704, Control_c, 0, 64, 64
2,59708, Note_on_c, 0, 70, 0
2,59720, Control_c, 0, 64, 64
2,59735, Control_c, 0, 64, 65
2,59750, Control_c, 0, 64, 66
2,59758, Note_on_c, 0, 65, 0
2,59759, Note_on_c, 0, 74, 0
2,59765, Control_c, 0, 64, 67
2,59769, Note_on_c, 0, 62, 0
2,59780, Control_c, 0, 64, 68
2,59796, Control_c, 0, 64, 69
2,59799, Note_on_c, 0, 69, 68
2,59811, Control_c, 0, 64, 70
2,59826, Control_c, 0, 64, 71
2,59839, Note_on_c, 0, 69, 0
2,59842, Control_c, 0, 64, 71
2,59857, Control_c, 0, 64, 72
2,59918, Control_c, 0, 64, 70
2,59933, Control_c, 0, 64, 66
2,59948, Control_c, 0, 64, 54
2,59952, Note_on_c, 0, 62, 87
2,59954, Note_on_c, 0, 58, 80
2,59958, Note_on_c, 0, 67, 81
2,59964, Control_c, 0, 64, 17
2,59979, Control_c, 0, 64, 0
2,60089, Note_on_c, 0, 74, 73
2,60101, Note_on_c, 0, 67, 0
2,60220, Note_on_c, 0, 76, 75
2,60303, Note_on_c, 0, 74, 0
2,60368, Note_on_c, 0, 77, 74
2,60404, Note_on_c, 0, 76, 0
2,60474, Note_on_c, 0, 58, 0
2,60506, Note_on_c, 0, 62, 0
2,60513, Note_on_c, 0, 64, 59
2,60514, Note_on_c, 0, 79, 73
2,60517, Note_on_c, 0, 77, 0
2,60625, Note_on_c, 0, 79, 0
2,60639, Note_on_c, 0, 77, 68
2,60776, Note_on_c, 0, 64, 0
2,60777, Control_c, 0, 64, 54
2,60783, Note_on_c, 0, 55, 88
2,60787, Note_on_c, 0, 79, 75
2,60793, Control_c, 0, 64, 61
2,60808, Control_c, 0, 64, 62
2,60853, Control_c, 0, 64, 63
2,60855, Note_on_c, 0, 55, 0
2,60865, Note_on_c, 0, 77, 0
2,60899, Control_c, 0, 64, 63
2,60918, Note_on_c, 0, 70, 68
2,60931, Note_on_c, 0, 79, 0
2,60958, Note_on_c, 0, 70, 0
2,60960, Control_c, 0, 64, 63
2,60975, Control_c, 0, 64, 61
2,60991, Control_c, 0, 64, 56
2,61006, Control_c, 0, 64, 32
2,61027, Control_c, 0, 64, 0
2,61074, Note_on_c, 0, 60, 94
2,61083, Note_on_c, 0, 79, 77
2,61086, Note_on_c, 0, 69, 78
2,61135, Control_c, 0, 64, 48
2,61135, Note_on_c, 0, 79, 0
2,61150, Control_c, 0, 64, 62
2,61165, Control_c, 0, 64, 65
2,61180, Control_c, 0, 64, 67
2,61196, Control_c, 0, 64, 70
2,61211, Control_c, 0, 64, 72
2,61219, Note_on_c, 0, 69, 0
2,61225, Control_c, 0, 64, 76
2,61230, Note_on_c, 0, 70, 76
2,61241, Control_c, 0, 64, 78
2,61256, Control_c, 0, 64, 79
2,61272, Control_c, 0, 64, 80
2,61294, Note_on_c, 0, 70, 0
2,61355, Note_on_c, 0, 72, 78
2,61366, Note_on_c, 0, 69, 64
2,61420, Note_on_c, 0, 69, 0
2,61438, Note_on_c, 0, 72, 0
2,61476, Note_on_c, 0, 60, 0
2,61513, Note_on_c, 0, 67, 64
2,61554, Note_on_c, 0, 67, 0
2,61606, Control_c, 0, 64, 78
2,61621, Control_c, 0, 64, 75
2,61637, Control_c, 0, 64, 68
2,61649, Note_on_c, 0, 60, 83
2,61651, Note_on_c, 0, 57, 75
2,61652, Control_c, 0, 64, 42
2,61659, Note_on_c, 0, 65, 85
2,61666, Control_c, 0, 64, 0
2,61796, Note_on_c, 0, 72, 77
2,61825, Note_on_c, 0, 65, 0
2,61935, Note_on_c, 0, 74, 69
2,61972, Note_on_c, 0, 72, 0
2,62080, Note_on_c, 0, 76, 73
2,62101, Note_on_c, 0, 74, 0
2,62197, Note_on_c, 0, 57, 0
2,62205, Note_on_c, 0, 60, 0
2,62215, Note_on_c, 0, 62, 65
2,62217, Note_on_c, 0, 77, 77
2,62220, Note_on_c, 0, 76, 0
2,62348, Note_on_c, 0, 76, 65
2,62375, Note_on_c, 0, 77, 0
2,62473, Note_on_c, 0, 62, 0
2,62476, Note_on_c, 0, 53, 69
2,62491, Note_on_c, 0, 77, 73
2,62498, Note_on_c, 0, 76, 0
2,62510, Control_c, 0, 64, 60
2,62525, Control_c, 0, 64, 66
2,62529, Note_on_c, 0, 53, 0
2,62540, Control_c, 0, 64, 68
2,62563, Control_c, 0, 64, 71
2,62578, Control_c, 0, 64, 73
2,62594, Control_c, 0, 64, 74
2,62624, Note_on_c, 0, 69, 67
2,62654, Control_c, 0, 64, 75
2,62682, Note_on_c, 0, 69, 0
2,62685, Control_c, 0, 64, 74
2,62700, Control_c, 0, 64, 73
2,62715, Control_c, 0, 64, 70
2,62730, Control_c, 0, 64, 63
2,62745, Control_c, 0, 64, 0
2,62759, Note_on_c, 0, 58, 64
2,62764, Note_on_c, 0, 67, 59
2,62765, Note_on_c, 0, 62, 54
2,62821, Control_c, 0, 64, 44
2,62836, Control_c, 0, 64, 58
2,62839, Note_on_c, 0, 77, 0
2,62851, Control_c, 0, 64, 60
2,62882, Control_c, 0, 64, 60
2,62890, Note_on_c, 0, 74, 70
2,62897, Control_c, 0, 64, 61
2,62902, Note_on_c, 0, 58, 0
2,62912, Control_c, 0, 64, 62
2,62927, Control_c, 0, 64, 63
2,62958, Control_c, 0, 64, 63
2,62987, Control_c, 0, 64, 62
2,63019, Note_on_c, 0, 76, 82
2,63024, Note_on_c, 0, 74, 0
2,63025, Note_on_c, 0, 58, 66
2,63034, Control_c, 0, 64, 62
2,63064, Control_c, 0, 64, 60
2,63080, Control_c, 0, 64, 57
2,63094, Control_c, 0, 64, 55
2,63110, Control_c, 0, 64, 53
2,63125, Control_c, 0, 64, 52
2,63140, Control_c, 0, 64, 50
2,63142, Note_on_c, 0, 58, 0
2,63153, Note_on_c, 0, 77, 86
2,63156, Control_c, 0, 64, 44
2,63171, Control_c, 0, 64, 33
2,63183, Note_on_c, 0, 76, 0
2,63186, Control_c, 0, 64, 10
2,63202, Control_c, 0, 64, 0
2,63272, Note_on_c, 0, 77, 0
2,63291, Note_on_c, 0, 79, 80
2,63293, Note_on_c, 0, 58, 62
2,63418, Note_on_c, 0, 58, 0
2,63437, Note_on_c, 0, 81, 85
2,63504, Note_on_c, 0, 79, 0
2,63523, Note_on_c, 0, 67, 0
2,63553, Note_on_c, 0, 58, 51
2,63566, Note_on_c, 0, 82, 81
2,63567, Note_on_c, 0, 62, 0
2,63574, Control_c, 0, 64, 61
2,63588, Note_on_c, 0, 81, 0
2,63590, Control_c, 0, 64, 67
2,63605, Control_c, 0, 64, 71
2,63620, Control_c, 0, 64, 74
2,63626, Note_on_c, 0, 58, 0
2,63636, Control_c, 0, 64, 76
2,63651, Control_c, 0, 64, 77
2,63694, Note_on_c, 0, 82, 0
2,63708, Note_on_c, 0, 79, 73
2,63787, Control_c, 0, 64, 76
2,63802, Control_c, 0, 64, 73
2,63813, Note_on_c, 0, 79, 0
2,63817, Control_c, 0, 64, 69
2,63833, Control_c, 0, 64, 61
2,63838, Note_on_c, 0, 58, 50
2,63845, Note_on_c, 0, 60, 46
2,63845, Note_on_c, 0, 77, 72
2,63848, Control_c, 0, 64, 0
2,63954, Note_on_c, 0, 58, 0
2,63987, Note_on_c, 0, 76, 67
2,63991, Note_on_c, 0, 77, 0
2,64016, Control_c, 0, 67, 8
2,64032, Control_c, 0, 67, 10
2,64046, Control_c, 0, 67, 12
2,64061, Control_c, 0, 67, 14
2,64077, Control_c, 0, 67, 16
2,64100, Control_c, 0, 67, 19
2,64113, Note_on_c, 0, 60, 0
2,64116, Control_c, 0, 67, 22
2,64119, Note_on_c, 0, 58, 42
2,64128, Note_on_c, 0, 74, 60
2,64130, Control_c, 0, 67, 25
2,64134, Note_on_c, 0, 76, 0
2,64145, Control_c, 0, 67, 27
2,64161, Control_c, 0, 67, 30
2,64175, Control_c, 0, 67, 33
2,64191, Control_c, 0, 67, 35
2,64206, Control_c, 0, 67, 38
2,64221, Control_c, 0, 67, 39
2,64237, Control_c, 0, 67, 41
2,64239, Note_on_c, 0, 74, 0
2,64251, Control_c, 0, 67, 42
2,64266, Control_c, 0, 67, 43
2,64267, Note_on_c, 0, 72, 61
2,64282, Control_c, 0, 67, 44
2,64297, Control_c, 0, 67, 46
2,64313, Control_c, 0, 67, 48
2,64327, Control_c, 0, 67, 49
2,64336, Note_on_c, 0, 72, 0
2,64342, Control_c, 0, 67, 49
2,64342, Note_on_c, 0, 58, 0
2,64358, Control_c, 0, 67, 50
2,64372, Control_c, 0, 67, 50
2,64387, Control_c, 0, 67, 51
2,64397, Note_on_c, 0, 77, 66
2,64412, Note_on_c, 0, 60, 34
2,64412, Note_on_c, 0, 65, 38
2,64434, Control_c, 0, 67, 52
2,64440, Note_on_c, 0, 77, 0
2,64449, Control_c, 0, 67, 52
2,64464, Control_c, 0, 67, 54
2,64480, Control_c, 0, 67, 55
2,64495, Control_c, 0, 67, 57
2,64511, Control_c, 0, 67, 58
2,64525, Control_c, 0, 67, 59
2,64540, Control_c, 0, 67, 60
2,64556, Control_c, 0, 67, 61
2,64571, Control_c, 0, 67, 62
2,64585, Control_c, 0, 67, 64
2,64601, Control_c, 0, 67, 66
2,64616, Control_c, 0, 67, 69
2,64632, Control_c, 0, 67, 71
2,64646, Control_c, 0, 67, 73
2,64661, Control_c, 0, 67, 74
2,64663, Note_on_c, 0, 60, 0
2,64673, Note_on_c, 0, 72, 66
2,64677, Control_c, 0, 67, 75
2,64686, Note_on_c, 0, 65, 0
2,64691, Note_on_c, 0, 57, 41
2,64692, Control_c, 0, 67, 75
2,64707, Control_c, 0, 67, 76
2,64721, Note_on_c, 0, 72, 0
2,64723, Control_c, 0, 67, 77
2,64737, Control_c, 0, 67, 79
2,64753, Control_c, 0, 67, 80
2,64783, Note_on_c, 0, 57, 0
2,64832, Note_on_c, 0, 55, 30
2,64898, Control_c, 0, 67, 79
2,64914, Control_c, 0, 67, 79
2,64958, Note_on_c, 0, 57, 37
2,64963, Note_on_c, 0, 77, 70
2,64966, Note_on_c, 0, 55, 0
2,65005, Control_c, 0, 67, 78
2,65019, Control_c, 0, 67, 78
2,65057, Note_on_c, 0, 57, 0
2,65093, Note_on_c, 0, 53, 46
2,65095, Control_c, 0, 67, 77
2,65171, Control_c, 0, 67, 77
2,65216, Control_c, 0, 67, 76
2,65227, Note_on_c, 0, 53, 0
2,65238, Note_on_c, 0, 75, 65
2,65259, Note_on_c, 0, 57, 41
2,65277, Note_on_c, 0, 77, 0
2,65323, Note_on_c, 0, 75, 0
2,65324, Control_c, 0, 67, 76
2,65354, Control_c, 0, 67, 75
2,65357, Note_on_c, 0, 57, 0
2,65368, Note_on_c, 0, 74, 69
2,65390, Note_on_c, 0, 59, 44
2,65434, Note_on_c, 0, 74, 0
2,65466, Note_on_c, 0, 59, 0
2,65495, Note_on_c, 0, 75, 73
2,65512, Note_on_c, 0, 60, 49
2,65536, Control_c, 0, 67, 75
2,65565, Control_c, 0, 67, 74
2,65565, Note_on_c, 0, 75, 0
2,65604, Note_on_c, 0, 60, 0
2,65636, Control_c, 0, 67, 74
2,65650, Note_on_c, 0, 67, 56
2,65664, Note_on_c, 0, 59, 40
2,65681, Control_c, 0, 67, 73
2,65730, Note_on_c, 0, 67, 0
2,65736, Note_on_c, 0, 59, 0
2,65757, Control_c, 0, 67, 73
2,65771, Note_on_c, 0, 72, 68
2,65774, Note_on_c, 0, 68, 63
2,65778, Note_on_c, 0, 60, 46
2,65818, Note_on_c, 0, 68, 0
2,65828, Note_on_c, 0, 72, 0
2,65893, Control_c, 0, 67, 72
2,65907, Note_on_c, 0, 67, 57
2,65957, Note_on_c, 0, 67, 0
2,65969, Control_c, 0, 67, 72
2,66002, Note_on_c, 0, 60, 0
2,66014, Control_c, 0, 67, 71
2,66048, Note_on_c, 0, 65, 67
2,66049, Note_on_c, 0, 74, 67
2,66078, Note_on_c, 0, 65, 0
2,66098, Note_on_c, 0, 74, 0
2,66106, Control_c, 0, 67, 71
2,66172, Note_on_c, 0, 60, 48
2,66212, Control_c, 0, 67, 70
2,66243, Control_c, 0, 67, 70
2,66281, Note_on_c, 0, 60, 0
2,66319, Control_c, 0, 67, 69
2,66319, Note_on_c, 0, 67, 65
2,66323, Note_on_c, 0, 62, 62
2,66332, Note_on_c, 0, 59, 47
2,66356, Note_on_c, 0, 62, 0
2,66364, Note_on_c, 0, 67, 0
2,66418, Note_on_c, 0, 59, 0
2,66470, Note_on_c, 0, 57, 40
2,66595, Note_on_c, 0, 57, 0
2,66613, Note_on_c, 0, 79, 79
2,66620, Note_on_c, 0, 59, 51
2,66632, Control_c, 0, 67, 69
2,66726, Note_on_c, 0, 59, 0
2,66758, Note_on_c, 0, 55, 46
2,66844, Control_c, 0, 67, 68
2,66887, Note_on_c, 0, 55, 0
2,66900, Note_on_c, 0, 77, 69
2,66904, Control_c, 0, 67, 68
2,66918, Note_on_c, 0, 59, 42
2,66937, Note_on_c, 0, 79, 0
2,66951, Control_c, 0, 67, 67
2,66966, Control_c, 0, 67, 66
2,66979, Note_on_c, 0, 77, 0
2,66980, Control_c, 0, 67, 62
2,66996, Control_c, 0, 67, 57
2,67010, Note_on_c, 0, 59, 0
2,67011, Control_c, 0, 67, 52
2,67026, Control_c, 0, 67, 45
2,67026, Note_on_c, 0, 75, 72
2,67042, Control_c, 0, 67, 40
2,67042, Note_on_c, 0, 60, 46
2,67057, Control_c, 0, 67, 33
2,67073, Control_c, 0, 67, 26
2,67088, Control_c, 0, 67, 19
2,67098, Note_on_c, 0, 75, 0
2,67102, Control_c, 0, 67, 13
2,67118, Control_c, 0, 67, 8
2,67133, Control_c, 0, 67, 0
2,67138, Note_on_c, 0, 60, 0
2,67185, Note_on_c, 0, 77, 60
2,67188, Note_on_c, 0, 62, 59
2,67195, Note_on_c, 0, 76, 58
2,67219, Note_on_c, 0, 76, 0
2,67230, Note_on_c, 0, 77, 0
2,67282, Note_on_c, 0, 62, 0
2,67314, Note_on_c, 0, 69, 58
2,67318, Note_on_c, 0, 60, 54
2,67361, Note_on_c, 0, 69, 0
2,67414, Note_on_c, 0, 60, 0
2,67445, Note_on_c, 0, 74, 69
2,67448, Note_on_c, 0, 71, 70
2,67457, Note_on_c, 0, 62, 61
2,67488, Note_on_c, 0, 71, 0
2,67498, Note_on_c, 0, 74, 0
2,67573, Note_on_c, 0, 69, 66
2,67615, Note_on_c, 0, 69, 0
2,67707, Note_on_c, 0, 75, 78
2,67712, Note_on_c, 0, 67, 67
2,67747, Note_on_c, 0, 67, 0
2,67770, Note_on_c, 0, 75, 0
2,67818, Note_on_c, 0, 62, 0
2,67841, Note_on_c, 0, 55, 47
2,67962, Note_on_c, 0, 55, 0
2,67977, Note_on_c, 0, 63, 72
2,67980, Note_on_c, 0, 72, 76
2,67988, Note_on_c, 0, 60, 56
2,68007, Note_on_c, 0, 63, 0
2,68041, Note_on_c, 0, 72, 0
2,68087, Note_on_c, 0, 60, 0
2,68114, Note_on_c, 0, 59, 55
2,68251, Note_on_c, 0, 59, 0
2,68258, Note_on_c, 0, 80, 89
2,68266, Note_on_c, 0, 60, 62
2,68355, Note_on_c, 0, 60, 0
2,68382, Note_on_c, 0, 55, 57
2,68514, Note_on_c, 0, 80, 0
2,68524, Note_on_c, 0, 55, 0
2,68534, Note_on_c, 0, 79, 74
2,68540, Note_on_c, 0, 60, 61
2,68634, Note_on_c, 0, 60, 0
2,68634, Note_on_c, 0, 79, 0
2,68657, Note_on_c, 0, 77, 80
2,68673, Note_on_c, 0, 62, 63
2,68748, Note_on_c, 0, 77, 0
2,68789, Note_on_c, 0, 79, 84
2,68791, Note_on_c, 0, 62, 0
2,68803, Note_on_c, 0, 63, 68
2,68854, Note_on_c, 0, 79, 0
2,68926, Note_on_c, 0, 63, 0
2,68932, Note_on_c, 0, 71, 65
2,68942, Note_on_c, 0, 62, 60
2,68983, Note_on_c, 0, 71, 0
2,69051, Note_on_c, 0, 62, 0
2,69057, Note_on_c, 0, 63, 68
2,69058, Note_on_c, 0, 75, 80
2,69062, Note_on_c, 0, 72, 79
2,69124, Note_on_c, 0, 72, 0
2,69143, Note_on_c, 0, 75, 0
2,69191, Note_on_c, 0, 70, 74
2,69219, Note_on_c, 0, 70, 0
2,69343, Note_on_c, 0, 77, 93
2,69351, Note_on_c, 0, 68, 82
2,69489, Note_on_c, 0, 68, 0
2,69494, Note_on_c, 0, 67, 74
2,69503, Control_c, 0, 64, 35
2,69519, Control_c, 0, 64, 54
2,69534, Control_c, 0, 64, 61
2,69549, Control_c, 0, 64, 64
2,69565, Control_c, 0, 64, 66
2,69566, Note_on_c, 0, 63, 0
2,69579, Control_c, 0, 64, 68
2,69594, Control_c, 0, 64, 69
2,69610, Control_c, 0, 64, 70
2,69625, Control_c, 0, 64, 70
2,69633, Note_on_c, 0, 67, 0
2,69634, Note_on_c, 0, 68, 65
2,69747, Control_c, 0, 64, 70
2,69754, Note_on_c, 0, 63, 78
2,69778, Control_c, 0, 64, 69
2,69793, Control_c, 0, 64, 69
2,69793, Note_on_c, 0, 63, 0
2,69808, Control_c, 0, 64, 67
2,69823, Control_c, 0, 64, 64
2,69839, Control_c, 0, 64, 56
2,69854, Control_c, 0, 64, 20
2,69869, Control_c, 0, 64, 0
2,69887, Note_on_c, 0, 62, 91
2,69990, Control_c, 0, 64, 46
2,69999, Note_on_c, 0, 68, 0
2,70005, Control_c, 0, 64, 60
2,70016, Note_on_c, 0, 67, 66
2,70020, Control_c, 0, 64, 64
2,70035, Control_c, 0, 64, 67
2,70051, Control_c, 0, 64, 70
2,70066, Control_c, 0, 64, 73
2,70082, Control_c, 0, 64, 75
2,70097, Control_c, 0, 64, 76
2,70112, Control_c, 0, 64, 76
2,70164, Note_on_c, 0, 68, 72
2,70166, Note_on_c, 0, 62, 0
2,70176, Note_on_c, 0, 67, 0
2,70310, Note_on_c, 0, 60, 78
2,70347, Control_c, 0, 64, 75
2,70353, Note_on_c, 0, 60, 0
2,70363, Control_c, 0, 64, 72
2,70376, Note_on_c, 0, 68, 0
2,70378, Control_c, 0, 64, 67
2,70393, Control_c, 0, 64, 54
2,70408, Control_c, 0, 64, 0
2,70433, Note_on_c, 0, 59, 85
2,70531, Control_c, 0, 64, 36
2,70546, Control_c, 0, 64, 56
2,70562, Control_c, 0, 64, 61
2,70576, Control_c, 0, 64, 64
2,70590, Note_on_c, 0, 75, 73
2,70591, Control_c, 0, 64, 67
2,70607, Control_c, 0, 64, 69
2,70619, Note_on_c, 0, 77, 0
2,70622, Control_c, 0, 64, 71
2,70638, Control_c, 0, 64, 72
2,70647, Note_on_c, 0, 75, 0
2,70697, Control_c, 0, 64, 71
2,70712, Control_c, 0, 64, 70
2,70724, Note_on_c, 0, 74, 77
2,70728, Control_c, 0, 64, 69
2,70743, Control_c, 0, 64, 67
2,70759, Control_c, 0, 64, 64
2,70773, Control_c, 0, 64, 61
2,70788, Control_c, 0, 64, 52
2,70804, Control_c, 0, 64, 36
2,70812, Note_on_c, 0, 59, 0
2,70819, Control_c, 0, 64, 0
2,70851, Note_on_c, 0, 72, 78
2,70861, Note_on_c, 0, 62, 46
2,70892, Note_on_c, 0, 74, 0
2,70966, Note_on_c, 0, 62, 0
2,70981, Note_on_c, 0, 71, 78
2,71000, Note_on_c, 0, 72, 0
2,71002, Note_on_c, 0, 55, 73
2,71037, Note_on_c, 0, 55, 0
2,71118, Note_on_c, 0, 68, 74
2,71130, Note_on_c, 0, 71, 0
2,71258, Note_on_c, 0, 74, 80
2,71264, Note_on_c, 0, 68, 0
2,71270, Note_on_c, 0, 67, 70
2,71271, Note_on_c, 0, 59, 72
2,71307, Note_on_c, 0, 59, 0
2,71344, Note_on_c, 0, 67, 0
2,71397, Note_on_c, 0, 65, 69
2,71449, Note_on_c, 0, 65, 0
2,71537, Note_on_c, 0, 60, 78
2,71539, Note_on_c, 0, 63, 76
2,71587, Note_on_c, 0, 60, 0
2,71665, Note_on_c, 0, 67, 76
2,71673, Note_on_c, 0, 74, 0
2,71688, Note_on_c, 0, 63, 0
2,71793, Note_on_c, 0, 67, 0
2,71809, Note_on_c, 0, 56, 70
2,71812, Note_on_c, 0, 72, 74
2,71850, Note_on_c, 0, 56, 0
2,71950, Note_on_c, 0, 63, 61
2,72071, Note_on_c, 0, 53, 60
2,72078, Note_on_c, 0, 63, 0
2,72089, Note_on_c, 0, 72, 0
2,72094, Note_on_c, 0, 62, 63
2,72109, Note_on_c, 0, 53, 0
2,72193, Note_on_c, 0, 62, 0
2,72221, Note_on_c, 0, 72, 68
2,72346, Note_on_c, 0, 55, 53
2,72347, Note_on_c, 0, 71, 67
2,72368, Note_on_c, 0, 72, 0
2,72374, Note_on_c, 0, 55, 0
2,72485, Note_on_c, 0, 65, 54
2,72565, Note_on_c, 0, 65, 0
2,72619, Note_on_c, 0, 71, 0
2,72621, Note_on_c, 0, 72, 66
2,72641, Note_on_c, 0, 48, 44
2,72772, Note_on_c, 0, 65, 55
2,72833, Control_c, 0, 64, 29
2,72849, Control_c, 0, 64, 55
2,72849, Note_on_c, 0, 65, 0
2,72864, Control_c, 0, 64, 61
2,72879, Control_c, 0, 64, 63
2,72894, Control_c, 0, 64, 65
2,72904, Note_on_c, 0, 48, 0
2,72908, Note_on_c, 0, 63, 49
2,72909, Control_c, 0, 64, 67
2,72925, Control_c, 0, 64, 70
2,72940, Control_c, 0, 64, 73
2,72955, Control_c, 0, 64, 75
2,72968, Note_on_c, 0, 72, 0
2,72971, Control_c, 0, 64, 76
2,72986, Control_c, 0, 64, 76
2,73002, Control_c, 0, 64, 77
2,73028, Note_on_c, 0, 63, 0
2,73051, Note_on_c, 0, 62, 56
2,73078, Control_c, 0, 64, 77
2,73078, Note_on_c, 0, 62, 0
2,73139, Control_c, 0, 64, 76
2,73153, Control_c, 0, 64, 74
2,73169, Control_c, 0, 64, 70
2,73184, Control_c, 0, 64, 60
2,73200, Control_c, 0, 64, 0
2,73208, Note_on_c, 0, 63, 82
2,73218, Note_on_c, 0, 60, 71
2,73365, Note_on_c, 0, 48, 54
2,73369, Note_on_c, 0, 70, 72
2,73499, Note_on_c, 0, 70, 0
2,73508, Note_on_c, 0, 50, 53
2,73509, Note_on_c, 0, 69, 66
2,73559, Note_on_c, 0, 48, 0
2,73622, Note_on_c, 0, 50, 0
2,73632, Note_on_c, 0, 51, 52
2,73664, Note_on_c, 0, 67, 67
2,73672, Note_on_c, 0, 69, 0
2,73736, Note_on_c, 0, 60, 0
2,73766, Note_on_c, 0, 51, 0
2,73774, Note_on_c, 0, 53, 54
2,73787, Note_on_c, 0, 69, 68
2,73804, Note_on_c, 0, 63, 0
2,73830, Note_on_c, 0, 67, 0
2,73891, Note_on_c, 0, 53, 0
2,73909, Note_on_c, 0, 51, 52
2,73978, Note_on_c, 0, 51, 0
2,74063, Note_on_c, 0, 60, 83
2,74080, Note_on_c, 0, 57, 55
2,74081, Control_c, 0, 64, 38
2,74083, Note_on_c, 0, 53, 52
2,74096, Control_c, 0, 64, 58
2,74111, Control_c, 0, 64, 60
2,74124, Note_on_c, 0, 69, 0
2,74142, Control_c, 0, 64, 59
2,74150, Note_on_c, 0, 60, 0
2,74157, Control_c, 0, 64, 59
2,74186, Note_on_c, 0, 53, 0
2,74218, Control_c, 0, 64, 58
2,74233, Control_c, 0, 64, 57
2,74249, Control_c, 0, 64, 56
2,74264, Control_c, 0, 64, 54
2,74279, Control_c, 0, 64, 52
2,74294, Control_c, 0, 64, 46
2,74309, Control_c, 0, 64, 29
2,74325, Control_c, 0, 64, 0
2,74370, Note_on_c, 0, 53, 59
2,74374, Note_on_c, 0, 57, 0
2,74376, Note_on_c, 0, 65, 88
2,74380, Note_on_c, 0, 62, 83
2,74511, Note_on_c, 0, 67, 67
2,74536, Control_c, 0, 64, 40
2,74551, Control_c, 0, 64, 52
2,74567, Control_c, 0, 64, 57
2,74582, Control_c, 0, 64, 60
2,74598, Control_c, 0, 64, 63
2,74614, Control_c, 0, 64, 65
2,74626, Note_on_c, 0, 46, 55
2,74629, Control_c, 0, 64, 67
2,74644, Control_c, 0, 64, 69
2,74655, Note_on_c, 0, 69, 66
2,74659, Control_c, 0, 64, 71
2,74674, Control_c, 0, 64, 72
2,74690, Control_c, 0, 64, 73
2,74705, Control_c, 0, 64, 73
2,74732, Note_on_c, 0, 46, 0
2,74739, Note_on_c, 0, 53, 0
2,74766, Control_c, 0, 64, 74
2,74792, Note_on_c, 0, 70, 71
2,74805, Note_on_c, 0, 65, 0
2,74807, Note_on_c, 0, 69, 0
2,74808, Note_on_c, 0, 67, 0
2,74825, Note_on_c, 0, 62, 0
2,74842, Note_on_c, 0, 70, 0
2,74879, Control_c, 0, 64, 73
2,74894, Control_c, 0, 64, 72
2,74909, Control_c, 0, 64, 70
2,74925, Control_c, 0, 64, 65
2,74939, Control_c, 0, 64, 52
2,74944, Note_on_c, 0, 67, 85
2,74947, Note_on_c, 0, 62, 83
2,74948, Note_on_c, 0, 58, 82
2,74954, Control_c, 0, 64, 0
2,75079, Note_on_c, 0, 46, 70
2,75228, Note_on_c, 0, 46, 0
2,75229, Note_on_c, 0, 48, 55
2,75242, Note_on_c, 0, 58, 0
2,75343, Note_on_c, 0, 48, 0
2,75362, Note_on_c, 0, 50, 54
2,75494, Note_on_c, 0, 50, 0
2,75500, Note_on_c, 0, 51, 61
2,75544, Note_on_c, 0, 62, 0
2,75601, Note_on_c, 0, 51, 0
2,75640, Note_on_c, 0, 50, 56
2,75686, Note_on_c, 0, 50, 0
2,75778, Note_on_c, 0, 58, 86
2,75794, Note_on_c, 0, 55, 63
2,75799, Control_c, 0, 64, 49
2,75804, Note_on_c, 0, 51, 53
2,75814, Control_c, 0, 64, 60
2,75822, Note_on_c, 0, 67, 0
2,75829, Control_c, 0, 64, 62
2,75832, Note_on_c, 0, 58, 0
2,75951, Control_c, 0, 64, 61
2,75951, Note_on_c, 0, 51, 0
2,75966, Control_c, 0, 64, 61
2,75981, Control_c, 0, 64, 59
2,75997, Control_c, 0, 64, 55
2,76012, Control_c, 0, 64, 41
2,76026, Control_c, 0, 64, 0
2,76075, Note_on_c, 0, 51, 63
2,76075, Note_on_c, 0, 63, 88
2,76079, Note_on_c, 0, 60, 82
2,76102, Note_on_c, 0, 55, 0
2,76133, Control_c, 0, 64, 41
2,76148, Control_c, 0, 64, 56
2,76164, Control_c, 0, 64, 60
2,76178, Control_c, 0, 64, 62
2,76193, Control_c, 0, 64, 63
2,76211, Control_c, 0, 64, 64
2,76223, Note_on_c, 0, 65, 69
2,76225, Control_c, 0, 64, 65
2,76241, Control_c, 0, 64, 66
2,76257, Control_c, 0, 64, 67
2,76273, Control_c, 0, 64, 68
2,76288, Control_c, 0, 64, 69
2,76303, Control_c, 0, 64, 70
2,76319, Control_c, 0, 64, 71
2,76333, Control_c, 0, 64, 71
2,76348, Control_c, 0, 64, 72
2,76358, Note_on_c, 0, 67, 72
2,76359, Note_on_c, 0, 45, 49
2,76363, Note_on_c, 0, 51, 0
2,76403, Control_c, 0, 64, 72
2,76415, Note_on_c, 0, 45, 0
2,76426, Note_on_c, 0, 60, 0
2,76456, Note_on_c, 0, 63, 0
2,76478, Control_c, 0, 64, 73
2,76490, Note_on_c, 0, 69, 77
2,76495, Note_on_c, 0, 65, 0
2,76507, Note_on_c, 0, 67, 0
2,76526, Note_on_c, 0, 69, 0
2,76569, Control_c, 0, 64, 72
2,76584, Control_c, 0, 64, 70
2,76600, Control_c, 0, 64, 67
2,76614, Control_c, 0, 64, 60
2,76630, Control_c, 0, 64, 34
2,76642, Note_on_c, 0, 65, 88
2,76644, Note_on_c, 0, 57, 80
2,76645, Control_c, 0, 64, 0
2,76645, Note_on_c, 0, 60, 85
2,76774, Note_on_c, 0, 45, 66
2,76888, Note_on_c, 0, 45, 0
2,76907, Note_on_c, 0, 46, 65
2,76940, Note_on_c, 0, 57, 0
2,77017, Note_on_c, 0, 46, 0
2,77048, Note_on_c, 0, 48, 54
2,77133, Note_on_c, 0, 60, 0
2,77170, Note_on_c, 0, 48, 0
2,77187, Note_on_c, 0, 50, 52
2,77295, Note_on_c, 0, 50, 0
2,77317, Note_on_c, 0, 48, 55
2,77437, Note_on_c, 0, 48, 0
2,77476, Control_c, 0, 64, 27
2,77478, Note_on_c, 0, 57, 83
2,77479, Note_on_c, 0, 53, 65
2,77485, Note_on_c, 0, 50, 57
2,77491, Control_c, 0, 64, 59
2,77508, Control_c, 0, 64, 64
2,77523, Control_c, 0, 64, 66
2,77539, Control_c, 0, 64, 67
2,77554, Control_c, 0, 64, 67
2,77563, Note_on_c, 0, 65, 0
2,77569, Control_c, 0, 64, 68
2,77577, Note_on_c, 0, 57, 0
2,77585, Control_c, 0, 64, 68
2,77600, Control_c, 0, 64, 69
2,77615, Control_c, 0, 64, 71
2,77631, Control_c, 0, 64, 72
2,77645, Control_c, 0, 64, 74
2,77661, Control_c, 0, 64, 74
2,77691, Control_c, 0, 64, 74
2,77707, Control_c, 0, 64, 72
2,77721, Control_c, 0, 64, 66
2,77737, Control_c, 0, 64, 51
2,77752, Control_c, 0, 64, 0
2,77761, Note_on_c, 0, 58, 78
2,77761, Note_on_c, 0, 62, 86
2,77797, Control_c, 0, 64, 36
2,77812, Control_c, 0, 64, 61
2,77828, Control_c, 0, 64, 65
2,77842, Control_c, 0, 64, 66
2,77858, Control_c, 0, 64, 67
2,77860, Note_on_c, 0, 53, 0
2,77878, Note_on_c, 0, 50, 0
2,77889, Control_c, 0, 64, 67
2,77905, Control_c, 0, 64, 68
2,77920, Note_on_c, 0, 48, 54
2,77923, Note_on_c, 0, 58, 0
2,77927, Control_c, 0, 64, 70
2,77943, Control_c, 0, 64, 72
2,77943, Note_on_c, 0, 62, 0
2,77958, Control_c, 0, 64, 73
2,77988, Control_c, 0, 64, 71
2,78003, Control_c, 0, 64, 66
2,78019, Control_c, 0, 64, 53
2,78025, Note_on_c, 0, 48, 0
2,78034, Control_c, 0, 64, 0
2,78042, Note_on_c, 0, 58, 75
2,78046, Note_on_c, 0, 62, 80
2,78051, Note_on_c, 0, 50, 65
2,78126, Note_on_c, 0, 58, 0
2,78148, Note_on_c, 0, 50, 0
2,78168, Note_on_c, 0, 48, 69
2,78169, Note_on_c, 0, 69, 78
2,78208, Note_on_c, 0, 62, 0
2,78282, Note_on_c, 0, 69, 0
2,78299, Note_on_c, 0, 48, 0
2,78306, Note_on_c, 0, 46, 70
2,78308, Note_on_c, 0, 67, 79
2,78315, Note_on_c, 0, 58, 73
2,78315, Note_on_c, 0, 62, 74
2,78432, Note_on_c, 0, 46, 0
2,78450, Note_on_c, 0, 45, 61
2,78455, Note_on_c, 0, 58, 0
2,78485, Note_on_c, 0, 62, 0
2,78580, Note_on_c, 0, 46, 68
2,78583, Note_on_c, 0, 58, 71
2,78584, Note_on_c, 0, 45, 0
2,78585, Note_on_c, 0, 62, 74
2,78612, Note_on_c, 0, 67, 0
2,78693, Note_on_c, 0, 46, 0
2,78711, Note_on_c, 0, 45, 73
2,78722, Note_on_c, 0, 65, 77
2,78742, Note_on_c, 0, 58, 0
2,78762, Note_on_c, 0, 62, 0
2,78823, Note_on_c, 0, 65, 0
2,78832, Note_on_c, 0, 45, 0
2,78857, Note_on_c, 0, 70, 86
2,78859, Note_on_c, 0, 43, 72
2,78865, Note_on_c, 0, 58, 75
2,78867, Note_on_c, 0, 62, 75
2,78981, Note_on_c, 0, 43, 0
2,78991, Note_on_c, 0, 41, 69
2,79006, Note_on_c, 0, 58, 0
2,79028, Note_on_c, 0, 62, 0
2,79103, Note_on_c, 0, 41, 0
2,79122, Note_on_c, 0, 58, 74
2,79132, Note_on_c, 0, 43, 65
2,79138, Note_on_c, 0, 62, 72
2,79145, Note_on_c, 0, 70, 0
2,79220, Note_on_c, 0, 58, 0
2,79230, Note_on_c, 0, 43, 0
2,79253, Note_on_c, 0, 69, 77
2,79261, Note_on_c, 0, 41, 69
2,79290, Note_on_c, 0, 62, 0
2,79388, Note_on_c, 0, 41, 0
2,79390, Note_on_c, 0, 69, 0
2,79397, Note_on_c, 0, 67, 74
2,79399, Note_on_c, 0, 58, 63
2,79401, Note_on_c, 0, 40, 65
2,79402, Note_on_c, 0, 62, 73
2,79459, Control_c, 0, 64, 49
2,79475, Control_c, 0, 64, 60
2,79490, Control_c, 0, 64, 62
2,79506, Control_c, 0, 64, 63
2,79518, Note_on_c, 0, 40, 0
2,79521, Control_c, 0, 64, 63
2,79521, Note_on_c, 0, 67, 0
2,79534, Note_on_c, 0, 62, 0
2,79537, Control_c, 0, 64, 64
2,79541, Note_on_c, 0, 36, 58
2,79553, Control_c, 0, 64, 64
2,79567, Control_c, 0, 64, 65
2,79579, Note_on_c, 0, 58, 0
2,79582, Control_c, 0, 64, 65
2,79598, Control_c, 0, 64, 65
2,79613, Control_c, 0, 64, 64
2,79629, Control_c, 0, 64, 62
2,79643, Control_c, 0, 64, 56
2,79658, Control_c, 0, 64, 36
2,79674, Control_c, 0, 64, 0
2,79674, Note_on_c, 0, 60, 73
2,79685, Note_on_c, 0, 57, 65
2,79687, Note_on_c, 0, 36, 0
2,79708, Note_on_c, 0, 38, 50
2,79756, Note_on_c, 0, 57, 0
2,79772, Note_on_c, 0, 60, 0
2,79791, Note_on_c, 0, 57, 15
2,79805, Note_on_c, 0, 38, 0
2,79810, Note_on_c, 0, 57, 0
2,79817, Note_on_c, 0, 55, 58
2,79831, Note_on_c, 0, 40, 52
2,79902, Note_on_c, 0, 55, 0
2,79925, Note_on_c, 0, 40, 0
2,79951, Note_on_c, 0, 65, 76
2,79956, Note_on_c, 0, 57, 55
2,79963, Note_on_c, 0, 41, 56
2,80060, Note_on_c, 0, 41, 0
2,80074, Note_on_c, 0, 57, 0
2,80092, Note_on_c, 0, 55, 60
2,80099, Note_on_c, 0, 36, 46
2,80170, Note_on_c, 0, 65, 0
2,80207, Note_on_c, 0, 36, 0
2,80242, Note_on_c, 0, 57, 63
2,80246, Note_on_c, 0, 55, 0
2,80252, Note_on_c, 0, 41, 54
2,80336, Note_on_c, 0, 41, 0
2,80372, Note_on_c, 0, 59, 64
2,80386, Note_on_c, 0, 43, 51
2,80388, Note_on_c, 0, 57, 0
2,80495, Note_on_c, 0, 43, 0
2,80520, Note_on_c, 0, 44, 55
2,80522, Note_on_c, 0, 60, 71
2,80542, Note_on_c, 0, 59, 0
2,80555, Note_on_c, 0, 44, 0
2,80605, Note_on_c, 0, 60, 0
2,80655, Note_on_c, 0, 59, 69
2,80776, Note_on_c, 0, 59, 0
2,80787, Note_on_c, 0, 60, 72
2,80803, Note_on_c, 0, 38, 42
2,80849, Note_on_c, 0, 38, 0
2,80927, Note_on_c, 0, 65, 63
2,81076, Note_on_c, 0, 63, 63
2,81085, Note_on_c, 0, 65, 0
2,81087, Note_on_c, 0, 43, 43
2,81100, Control_c, 0, 64, 49
2,81116, Control_c, 0, 64, 61
2,81131, Control_c, 0, 64, 64
2,81145, Control_c, 0, 64, 66
2,81161, Control_c, 0, 64, 69
2,81177, Control_c, 0, 64, 71
2,81193, Control_c, 0, 64, 73
2,81198, Note_on_c, 0, 43, 0
2,81215, Note_on_c, 0, 42, 52
2,81220, Note_on_c, 0, 60, 0
2,81223, Control_c, 0, 64, 73
2,81224, Note_on_c, 0, 63, 0
2,81299, Control_c, 0, 64, 73
2,81329, Control_c, 0, 64, 72
2,81344, Control_c, 0, 64, 71
2,81358, Note_on_c, 0, 42, 0
2,81360, Control_c, 0, 64, 70
2,81361, Note_on_c, 0, 62, 69
2,81365, Note_on_c, 0, 43, 54
2,81374, Control_c, 0, 64, 68
2,81374, Note_on_c, 0, 59, 61
2,81389, Control_c, 0, 64, 65
2,81405, Control_c, 0, 64, 59
2,81420, Control_c, 0, 64, 40
2,81436, Control_c, 0, 64, 0
2,81446, Note_on_c, 0, 62, 0
2,81460, Note_on_c, 0, 43, 0
2,81483, Note_on_c, 0, 59, 0
2,81499, Note_on_c, 0, 57, 65
2,81502, Note_on_c, 0, 45, 57
2,81619, Note_on_c, 0, 57, 0
2,81623, Note_on_c, 0, 45, 0
2,81642, Note_on_c, 0, 47, 55
2,81644, Note_on_c, 0, 55, 63
2,81738, Note_on_c, 0, 47, 0
2,81760, Note_on_c, 0, 55, 0
2,81776, Note_on_c, 0, 45, 51
2,81794, Note_on_c, 0, 50, 60
2,81885, Note_on_c, 0, 50, 0
2,81892, Note_on_c, 0, 45, 0
2,81921, Note_on_c, 0, 55, 63
2,81925, Note_on_c, 0, 47, 50
2,82019, Note_on_c, 0, 47, 0
2,82051, Note_on_c, 0, 55, 0
2,82051, Note_on_c, 0, 57, 71
2,82071, Note_on_c, 0, 50, 49
2,82141, Note_on_c, 0, 50, 0
2,82187, Note_on_c, 0, 59, 70
2,82200, Note_on_c, 0, 55, 59
2,82201, Note_on_c, 0, 57, 0
2,82256, Note_on_c, 0, 59, 0
2,82322, Note_on_c, 0, 60, 77
2,82431, Note_on_c, 0, 55, 0
2,82440, Note_on_c, 0, 60, 0
2,82451, Note_on_c, 0, 62, 73
2,82458, Note_on_c, 0, 47, 51
2,82501, Note_on_c, 0, 47, 0
2,82592, Note_on_c, 0, 67, 69
2,82727, Note_on_c, 0, 67, 0
2,82736, Note_on_c, 0, 48, 51
2,82741, Note_on_c, 0, 65, 68
2,82755, Control_c, 0, 64, 55
2,82771, Control_c, 0, 64, 64
2,82779, Note_on_c, 0, 62, 0
2,82786, Control_c, 0, 64, 66
2,82803, Control_c, 0, 64, 69
2,82810, Note_on_c, 0, 65, 0
2,82818, Control_c, 0, 64, 71
2,82833, Control_c, 0, 64, 72
2,82849, Control_c, 0, 64, 73
2,82863, Control_c, 0, 64, 74
2,82879, Control_c, 0, 64, 74
2,82885, Note_on_c, 0, 60, 51
2,82912, Note_on_c, 0, 60, 0
2,82970, Control_c, 0, 64, 74
2,82984, Control_c, 0, 64, 73
2,83000, Control_c, 0, 64, 70
2,83011, Note_on_c, 0, 60, 66
2,83014, Note_on_c, 0, 63, 76
2,83015, Control_c, 0, 64, 65
2,83019, Note_on_c, 0, 48, 0
2,83027, Note_on_c, 0, 55, 50
2,83030, Control_c, 0, 64, 49
2,83046, Control_c, 0, 64, 0
2,83050, Note_on_c, 0, 60, 0
2,83079, Note_on_c, 0, 63, 0
2,83131, Note_on_c, 0, 55, 0
2,83133, Note_on_c, 0, 65, 77
2,83161, Note_on_c, 0, 51, 54
2,83164, Note_on_c, 0, 65, 0
2,83300, Note_on_c, 0, 75, 94
2,83301, Note_on_c, 0, 67, 87
2,83304, Note_on_c, 0, 48, 66
2,83320, Note_on_c, 0, 51, 0
2,83421, Note_on_c, 0, 48, 0
2,83441, Note_on_c, 0, 55, 50
2,83449, Control_c, 0, 64, 17
2,83464, Control_c, 0, 64, 34
2,83479, Control_c, 0, 64, 48
2,83494, Control_c, 0, 64, 57
2,83509, Control_c, 0, 64, 61
2,83525, Control_c, 0, 64, 64
2,83540, Control_c, 0, 64, 66
2,83555, Control_c, 0, 64, 67
2,83560, Note_on_c, 0, 55, 0
2,83571, Control_c, 0, 64, 68
2,83585, Control_c, 0, 64, 69
2,83595, Note_on_c, 0, 57, 58
2,83601, Control_c, 0, 64, 69
2,83706, Note_on_c, 0, 57, 0
2,83730, Note_on_c, 0, 59, 57
2,83753, Control_c, 0, 64, 68
2,83769, Control_c, 0, 64, 66
2,83784, Control_c, 0, 64, 64
2,83793, Note_on_c, 0, 67, 0
2,83800, Control_c, 0, 64, 61
2,83815, Control_c, 0, 64, 58
2,83827, Note_on_c, 0, 75, 0
2,83829, Control_c, 0, 64, 57
2,83845, Control_c, 0, 64, 54
2,83845, Note_on_c, 0, 59, 0
2,83860, Control_c, 0, 64, 52
2,83868, Note_on_c, 0, 60, 68
2,83875, Control_c, 0, 64, 48
2,83891, Control_c, 0, 64, 43
2,83905, Control_c, 0, 64, 39
2,83921, Control_c, 0, 64, 34
2,83936, Control_c, 0, 64, 28
2,83949, Note_on_c, 0, 60, 0
2,83951, Control_c, 0, 64, 18
2,83967, Control_c, 0, 64, 0
2,83998, Note_on_c, 0, 59, 54
2,84098, Note_on_c, 0, 59, 0
2,84145, Note_on_c, 0, 72, 87
2,84148, Note_on_c, 0, 63, 81
2,84154, Note_on_c, 0, 60, 60
2,84185, Note_on_c, 0, 63, 0
2,84209, Note_on_c, 0, 72, 0
2,84240, Note_on_c, 0, 60, 0
2,84283, Note_on_c, 0, 56, 52
2,84338, Control_c, 0, 64, 10
2,84353, Control_c, 0, 64, 13
2,84369, Control_c, 0, 64, 15
2,84384, Note_on_c, 0, 56, 0
2,84429, Control_c, 0, 64, 13
2,84445, Note_on_c, 0, 77, 85
2,84446, Control_c, 0, 64, 10
2,84446, Note_on_c, 0, 68, 86
2,84448, Note_on_c, 0, 60, 54
2,84454, Note_on_c, 0, 79, 71
2,84455, Note_on_c, 0, 79, 0
2,84506, Control_c, 0, 64, 0
2,84551, Control_c, 0, 64, 13
2,84567, Control_c, 0, 64, 31
2,84568, Note_on_c, 0, 60, 0
2,84582, Control_c, 0, 64, 49
2,84591, Note_on_c, 0, 50, 62
2,84598, Control_c, 0, 64, 60
2,84613, Control_c, 0, 64, 64
2,84628, Control_c, 0, 64, 67
2,84644, Control_c, 0, 64, 71
2,84659, Control_c, 0, 64, 75
2,84673, Control_c, 0, 64, 77
2,84689, Control_c, 0, 64, 78
2,84689, Note_on_c, 0, 50, 0
2,84704, Control_c, 0, 64, 78
2,84719, Note_on_c, 0, 53, 67
2,84720, Control_c, 0, 64, 79
2,84720, Note_on_c, 0, 77, 0
2,84749, Control_c, 0, 64, 80
2,84764, Control_c, 0, 64, 80
2,84795, Note_on_c, 0, 68, 0
2,84849, Note_on_c, 0, 53, 0
2,84870, Note_on_c, 0, 56, 64
2,84969, Control_c, 0, 64, 79
2,84984, Control_c, 0, 64, 76
2,84999, Note_on_c, 0, 56, 0
2,85000, Control_c, 0, 64, 71
2,85005, Note_on_c, 0, 74, 93
2,85014, Control_c, 0, 64, 63
2,85016, Note_on_c, 0, 65, 76
2,85020, Note_on_c, 0, 58, 70
2,85029, Control_c, 0, 64, 31
2,85045, Control_c, 0, 64, 0
2,85127, Note_on_c, 0, 58, 0
2,85148, Note_on_c, 0, 53, 60
2,85263, Note_on_c, 0, 53, 0
2,85281, Note_on_c, 0, 55, 65
2,85400, Note_on_c, 0, 55, 0
2,85414, Note_on_c, 0, 56, 65
2,85516, Note_on_c, 0, 65, 0
2,85526, Note_on_c, 0, 74, 0
2,85543, Note_on_c, 0, 56, 0
2,85567, Note_on_c, 0, 58, 69
2,85681, Note_on_c, 0, 58, 0
2,85698, Note_on_c, 0, 56, 60
2,85821, Note_on_c, 0, 70, 86
2,85833, Note_on_c, 0, 62, 70
2,85835, Note_on_c, 0, 56, 0
2,85845, Note_on_c, 0, 58, 65
2,85861, Note_on_c, 0, 62, 0
2,85900, Note_on_c, 0, 70, 0
2,85904, Control_c, 0, 64, 10
2,85920, Control_c, 0, 64, 17
2,85934, Control_c, 0, 64, 21
2,85949, Control_c, 0, 64, 25
2,85956, Note_on_c, 0, 58, 0
2,85965, Control_c, 0, 64, 27
2,85978, Note_on_c, 0, 55, 57
2,85994, Control_c, 0, 64, 28
2,86056, Control_c, 0, 64, 27
2,86071, Control_c, 0, 64, 25
2,86084, Note_on_c, 0, 55, 0
2,86087, Control_c, 0, 64, 23
2,86124, Note_on_c, 0, 75, 94
2,86130, Note_on_c, 0, 67, 85
2,86133, Control_c, 0, 64, 29
2,86140, Note_on_c, 0, 58, 66
2,86148, Control_c, 0, 64, 42
2,86163, Control_c, 0, 64, 55
2,86178, Control_c, 0, 64, 62
2,86193, Control_c, 0, 64, 66
2,86209, Control_c, 0, 64, 70
2,86224, Control_c, 0, 64, 73
2,86240, Control_c, 0, 64, 76
2,86247, Note_on_c, 0, 58, 0
2,86255, Control_c, 0, 64, 77
2,86261, Note_on_c, 0, 48, 63
2,86270, Control_c, 0, 64, 77
2,86285, Control_c, 0, 64, 78
2,86362, Note_on_c, 0, 67, 0
2,86365, Note_on_c, 0, 75, 0
2,86399, Note_on_c, 0, 48, 0
2,86409, Note_on_c, 0, 51, 69
2,86522, Note_on_c, 0, 51, 0
2,86548, Note_on_c, 0, 55, 65
2,86673, Control_c, 0, 64, 77
2,86689, Control_c, 0, 64, 73
2,86693, Note_on_c, 0, 72, 92
2,86697, Note_on_c, 0, 63, 85
2,86703, Control_c, 0, 64, 67
2,86709, Note_on_c, 0, 56, 75
2,86714, Note_on_c, 0, 55, 0
2,86719, Control_c, 0, 64, 54
2,86734, Control_c, 0, 64, 0
2,86816, Note_on_c, 0, 56, 0
2,86832, Note_on_c, 0, 51, 60
2,86928, Note_on_c, 0, 51, 0
2,86960, Note_on_c, 0, 53, 60
2,87094, Note_on_c, 0, 53, 0
2,87103, Note_on_c, 0, 55, 61
2,87230, Note_on_c, 0, 72, 0
2,87251, Note_on_c, 0, 63, 0
2,87259, Note_on_c, 0, 55, 0
2,87261, Note_on_c, 0, 56, 62
2,87358, Note_on_c, 0, 56, 0
2,87391, Note_on_c, 0, 55, 56
2,87532, Note_on_c, 0, 68, 88
2,87544, Note_on_c, 0, 60, 65
2,87545, Note_on_c, 0, 56, 64
2,87551, Note_on_c, 0, 55, 0
2,87565, Note_on_c, 0, 60, 0
2,87590, Note_on_c, 0, 68, 0
2,87650, Note_on_c, 0, 56, 0
2,87670, Note_on_c, 0, 53, 45
2,87808, Note_on_c, 0, 53, 0
2,87813, Note_on_c, 0, 74, 91
2,87819, Note_on_c, 0, 65, 78
2,87821, Note_on_c, 0, 47, 62
2,87841, Note_on_c, 0, 65, 0
2,87862, Note_on_c, 0, 74, 0
2,87933, Note_on_c, 0, 47, 0
2,87964, Note_on_c, 0, 55, 56
2,88092, Note_on_c, 0, 55, 0
2,88092, Note_on_c, 0, 74, 83
2,88095, Note_on_c, 0, 65, 77
2,88116, Note_on_c, 0, 56, 55
2,88120, Note_on_c, 0, 65, 0
2,88140, Note_on_c, 0, 74, 0
2,88165, Note_on_c, 0, 56, 0
2,88233, Note_on_c, 0, 55, 50
2,88324, Note_on_c, 0, 55, 0
2,88368, Note_on_c, 0, 53, 58
2,88371, Note_on_c, 0, 74, 80
2,88376, Note_on_c, 0, 65, 75
2,88400, Note_on_c, 0, 65, 0
2,88419, Note_on_c, 0, 74, 0
2,88455, Note_on_c, 0, 53, 0
2,88495, Note_on_c, 0, 51, 57
2,88614, Note_on_c, 0, 51, 0
2,88640, Note_on_c, 0, 74, 87
2,88643, Note_on_c, 0, 53, 70
2,88644, Note_on_c, 0, 65, 81
2,88653, Note_on_c, 0, 50, 63
2,88674, Note_on_c, 0, 65, 0
2,88695, Note_on_c, 0, 74, 0
2,88741, Note_on_c, 0, 50, 0
2,88746, Note_on_c, 0, 53, 0
2,88782, Note_on_c, 0, 51, 65
2,88884, Note_on_c, 0, 51, 0
2,88919, Note_on_c, 0, 50, 75
2,88921, Note_on_c, 0, 74, 91
2,88926, Note_on_c, 0, 41, 67
2,88926, Note_on_c, 0, 65, 82
2,88947, Note_on_c, 0, 65, 0
2,88964, Note_on_c, 0, 74, 0
2,89007, Note_on_c, 0, 50, 0
2,89052, Note_on_c, 0, 41, 0
2,89053, Note_on_c, 0, 48, 70
2,89173, Note_on_c, 0, 48, 0
2,89184, Note_on_c, 0, 74, 87
2,89187, Note_on_c, 0, 65, 82
2,89199, Note_on_c, 0, 50, 77
2,89204, Note_on_c, 0, 44, 69
2,89209, Note_on_c, 0, 65, 0
2,89225, Note_on_c, 0, 74, 0
2,89275, Note_on_c, 0, 44, 0
2,89325, Note_on_c, 0, 50, 0
2,89332, Note_on_c, 0, 48, 70
2,89356, Control_c, 0, 64, 10
2,89386, Control_c, 0, 64, 13
2,89402, Control_c, 0, 64, 21
2,89417, Control_c, 0, 64, 35
2,89441, Control_c, 0, 64, 49
2,89456, Control_c, 0, 64, 60
2,89465, Note_on_c, 0, 74, 90
2,89468, Note_on_c, 0, 65, 88
2,89470, Control_c, 0, 64, 65
2,89480, Note_on_c, 0, 48, 0
2,89485, Note_on_c, 0, 47, 73
2,89486, Control_c, 0, 64, 67
2,89487, Note_on_c, 0, 43, 67
2,89501, Control_c, 0, 64, 70
2,89515, Control_c, 0, 64, 72
2,89524, Note_on_c, 0, 47, 0
2,89528, Note_on_c, 0, 43, 0
2,89531, Control_c, 0, 64, 72
2,89591, Control_c, 0, 64, 72
2,89606, Note_on_c, 0, 72, 80
2,89622, Control_c, 0, 64, 71
2,89638, Control_c, 0, 64, 69
2,89638, Note_on_c, 0, 74, 0
2,89643, Note_on_c, 0, 65, 0
2,89653, Control_c, 0, 64, 65
2,89667, Control_c, 0, 64, 56
2,89683, Control_c, 0, 64, 37
2,89698, Control_c, 0, 64, 13
2,89712, Control_c, 0, 64, 0
2,89746, Note_on_c, 0, 59, 78
2,89749, Note_on_c, 0, 55, 76
2,89750, Note_on_c, 0, 74, 80
2,89752, Note_on_c, 0, 65, 79
2,89777, Note_on_c, 0, 72, 0
2,89787, Note_on_c, 0, 59, 0
2,89791, Note_on_c, 0, 55, 0
2,89869, Note_on_c, 0, 65, 0
2,89878, Note_on_c, 0, 72, 81
2,89915, Note_on_c, 0, 74, 0
2,90008, Note_on_c, 0, 71, 74
2,90016, Note_on_c, 0, 65, 69
2,90017, Note_on_c, 0, 59, 86
2,90022, Note_on_c, 0, 55, 76
2,90033, Note_on_c, 0, 72, 0
2,90059, Note_on_c, 0, 59, 0
2,90062, Note_on_c, 0, 55, 0
2,90143, Note_on_c, 0, 71, 0
2,90144, Note_on_c, 0, 69, 74
2,90172, Note_on_c, 0, 65, 0
2,90285, Note_on_c, 0, 71, 78
2,90286, Note_on_c, 0, 59, 82
2,90286, Note_on_c, 0, 69, 0
2,90293, Note_on_c, 0, 55, 73
2,90293, Note_on_c, 0, 65, 72
2,90331, Note_on_c, 0, 59, 0
2,90337, Note_on_c, 0, 55, 0
2,90428, Note_on_c, 0, 69, 81
2,90457, Note_on_c, 0, 65, 0
2,90461, Note_on_c, 0, 71, 0
2,90560, Note_on_c, 0, 60, 87
2,90565, Note_on_c, 0, 57, 76
2,90566, Note_on_c, 0, 67, 84
2,90591, Note_on_c, 0, 69, 0
2,90670, Note_on_c, 0, 57, 0
2,90682, Note_on_c, 0, 60, 0
2,90695, Note_on_c, 0, 67, 0
2,90702, Note_on_c, 0, 65, 75
2,90832, Note_on_c, 0, 67, 84
2,90836, Note_on_c, 0, 62, 73
2,90847, Note_on_c, 0, 59, 62
2,90848, Note_on_c, 0, 65, 0
2,90976, Note_on_c, 0, 65, 79
2,91059, Note_on_c, 0, 59, 0
2,91075, Note_on_c, 0, 62, 0
2,91115, Note_on_c, 0, 51, 67
2,91206, Note_on_c, 0, 65, 0
2,91246, Note_on_c, 0, 63, 73
2,91263, Control_c, 0, 64, 21
2,91277, Control_c, 0, 64, 52
2,91293, Control_c, 0, 64, 58
2,91308, Control_c, 0, 64, 61
2,91322, Control_c, 0, 64, 63
2,91338, Control_c, 0, 64, 65
2,91353, Control_c, 0, 64, 67
2,91369, Control_c, 0, 64, 71
2,91372, Note_on_c, 0, 51, 0
2,91384, Control_c, 0, 64, 74
2,91388, Note_on_c, 0, 65, 73
2,91398, Control_c, 0, 64, 76
2,91398, Note_on_c, 0, 55, 53
2,91398, Note_on_c, 0, 63, 0
2,91414, Control_c, 0, 64, 77
2,91429, Control_c, 0, 64, 77
2,91480, Note_on_c, 0, 55, 0
2,91486, Note_on_c, 0, 67, 0
2,91496, Note_on_c, 0, 65, 0
2,91512, Note_on_c, 0, 62, 75
2,91547, Note_on_c, 0, 62, 0
2,91627, Control_c, 0, 64, 76
2,91642, Control_c, 0, 64, 72
2,91658, Control_c, 0, 64, 65
2,91661, Note_on_c, 0, 60, 80
2,91661, Note_on_c, 0, 63, 89
2,91673, Control_c, 0, 64, 42
2,91688, Control_c, 0, 64, 0
2,91806, Note_on_c, 0, 51, 61
2,91808, Note_on_c, 0, 67, 79
2,91927, Note_on_c, 0, 51, 0
2,91950, Note_on_c, 0, 69, 78
2,91954, Note_on_c, 0, 53, 59
2,91973, Note_on_c, 0, 60, 0
2,91999, Note_on_c, 0, 67, 0
2,92019, Note_on_c, 0, 63, 0
2,92059, Note_on_c, 0, 53, 0
2,92078, Note_on_c, 0, 71, 74
2,92085, Note_on_c, 0, 55, 54
2,92141, Note_on_c, 0, 69, 0
2,92202, Note_on_c, 0, 55, 0
2,92209, Note_on_c, 0, 72, 84
2,92214, Note_on_c, 0, 56, 68
2,92251, Note_on_c, 0, 71, 0
2,92290, Note_on_c, 0, 56, 0
2,92343, Note_on_c, 0, 55, 70
2,92438, Note_on_c, 0, 55, 0
2,92480, Note_on_c, 0, 68, 78
2,92486, Note_on_c, 0, 65, 69
2,92489, Note_on_c, 0, 56, 63
2,92533, Note_on_c, 0, 65, 0
2,92558, Note_on_c, 0, 56, 0
2,92775, Note_on_c, 0, 65, 69
2,92786, Note_on_c, 0, 56, 62
2,92787, Note_on_c, 0, 62, 65
2,92836, Note_on_c, 0, 68, 0
2,92933, Note_on_c, 0, 72, 0
2,93066, Note_on_c, 0, 56, 0
2,93070, Note_on_c, 0, 71, 70
2,93078, Note_on_c, 0, 50, 49
2,93094, Note_on_c, 0, 65, 0
2,93192, Note_on_c, 0, 69, 74
2,93208, Note_on_c, 0, 71, 0
2,93260, Note_on_c, 0, 50, 0
2,93288, Note_on_c, 0, 69, 0
2,93346, Note_on_c, 0, 71, 84
2,93481, Note_on_c, 0, 68, 71
2,93493, Note_on_c, 0, 50, 52
2,93595, Note_on_c, 0, 50, 0
2,93617, Note_on_c, 0, 67, 68
2,93618, Note_on_c, 0, 68, 0
2,93626, Note_on_c, 0, 51, 53
2,93633, Note_on_c, 0, 62, 0
2,93704, Note_on_c, 0, 67, 0
2,93730, Note_on_c, 0, 51, 0
2,93762, Note_on_c, 0, 65, 62
2,93771, Note_on_c, 0, 53, 59
2,93797, Note_on_c, 0, 65, 0
2,93871, Note_on_c, 0, 53, 0
2,93889, Note_on_c, 0, 70, 77
2,93901, Note_on_c, 0, 64, 64
2,93907, Note_on_c, 0, 61, 60
2,93919, Note_on_c, 0, 71, 0
2,93922, Note_on_c, 0, 55, 46
2,93974, Note_on_c, 0, 64, 0
2,94010, Note_on_c, 0, 55, 0
2,94042, Note_on_c, 0, 53, 51
2,94046, Note_on_c, 0, 65, 66
2,94156, Note_on_c, 0, 53, 0
2,94171, Note_on_c, 0, 55, 49
2,94173, Note_on_c, 0, 65, 0
2,94184, Note_on_c, 0, 64, 61
2,94219, Note_on_c, 0, 55, 0
2,94254, Note_on_c, 0, 61, 0
2,94300, Note_on_c, 0, 64, 0
2,94320, Note_on_c, 0, 65, 57
2,94474, Note_on_c, 0, 60, 47
2,94474, Note_on_c, 0, 64, 56
2,94475, Note_on_c, 0, 55, 40
2,94488, Control_c, 0, 64, 10
2,94497, Note_on_c, 0, 65, 0
2,94502, Control_c, 0, 64, 50
2,94517, Control_c, 0, 64, 59
2,94532, Note_on_c, 0, 70, 0
2,94533, Control_c, 0, 64, 62
2,94548, Control_c, 0, 64, 63
2,94563, Control_c, 0, 64, 64
2,94578, Control_c, 0, 64, 65
2,94593, Control_c, 0, 64, 66
2,94624, Control_c, 0, 64, 67
2,94700, Control_c, 0, 64, 66
2,94715, Control_c, 0, 64, 66
2,94731, Note_on_c, 0, 55, 0
2,94740, Note_on_c, 0, 69, 70
2,94742, Note_on_c, 0, 48, 45
2,94746, Control_c, 0, 64, 65
2,94761, Control_c, 0, 64, 64
2,94776, Control_c, 0, 64, 63
2,94776, Note_on_c, 0, 64, 0
2,94791, Control_c, 0, 64, 59
2,94814, Control_c, 0, 64, 55
2,94829, Control_c, 0, 64, 52
2,94843, Control_c, 0, 64, 49
2,94859, Control_c, 0, 64, 46
2,94874, Control_c, 0, 64, 41
2,94887, Note_on_c, 0, 48, 0
2,94887, Note_on_c, 0, 69, 0
2,94889, Note_on_c, 0, 67, 64
2,94890, Control_c, 0, 64, 36
2,94905, Control_c, 0, 64, 31
2,94920, Control_c, 0, 64, 27
2,94936, Control_c, 0, 64, 23
2,94936, Note_on_c, 0, 67, 0
2,94950, Control_c, 0, 64, 18
2,94966, Control_c, 0, 64, 13
2,94981, Control_c, 0, 64, 0
2,95021, Note_on_c, 0, 69, 80
2,95154, Note_on_c, 0, 48, 38
2,95155, Note_on_c, 0, 67, 70
2,95275, Note_on_c, 0, 69, 0
2,95275, Note_on_c, 0, 69, 12
2,95281, Note_on_c, 0, 48, 0
2,95283, Note_on_c, 0, 65, 66
2,95286, Note_on_c, 0, 60, 0
2,95287, Note_on_c, 0, 67, 0
2,95291, Note_on_c, 0, 50, 45
2,95376, Note_on_c, 0, 50, 0
2,95390, Note_on_c, 0, 65, 0
2,95414, Note_on_c, 0, 51, 51
2,95427, Note_on_c, 0, 63, 52
2,95492, Note_on_c, 0, 63, 0
2,95526, Note_on_c, 0, 51, 0
2,95569, Note_on_c, 0, 62, 54
2,95578, Note_on_c, 0, 68, 65
2,95586, Note_on_c, 0, 53, 36
2,95586, Note_on_c, 0, 69, 0
2,95593, Note_on_c, 0, 59, 37
2,95676, Note_on_c, 0, 62, 0
2,95685, Note_on_c, 0, 53, 0
2,95712, Note_on_c, 0, 51, 51
2,95725, Note_on_c, 0, 63, 55
2,95846, Note_on_c, 0, 63, 0
2,95854, Note_on_c, 0, 51, 0
2,95861, Note_on_c, 0, 62, 55
2,95868, Note_on_c, 0, 53, 49
2,95878, Note_on_c, 0, 59, 0
2,95945, Note_on_c, 0, 53, 0
2,95967, Note_on_c, 0, 62, 0
2,96002, Note_on_c, 0, 63, 50
2,96122, Note_on_c, 0, 68, 0
2,96136, Note_on_c, 0, 58, 47
2,96137, Note_on_c, 0, 62, 53
2,96143, Note_on_c, 0, 53, 34
2,96165, Note_on_c, 0, 63, 0
2,96366, Control_c, 0, 64, 50
2,96381, Control_c, 0, 64, 60
2,96392, Note_on_c, 0, 53, 0
2,96396, Control_c, 0, 64, 64
2,96397, Note_on_c, 0, 46, 50
2,96398, Note_on_c, 0, 62, 0
2,96411, Control_c, 0, 64, 66
2,96417, Note_on_c, 0, 58, 0
2,96419, Note_on_c, 0, 67, 55
2,96424, Note_on_c, 0, 46, 0
2,96426, Control_c, 0, 64, 67
2,96441, Control_c, 0, 64, 69
2,96456, Control_c, 0, 64, 71
2,96471, Control_c, 0, 64, 73
2,96487, Control_c, 0, 64, 73
2,96532, Control_c, 0, 64, 74
2,96548, Note_on_c, 0, 65, 65
2,96589, Note_on_c, 0, 67, 0
2,96608, Control_c, 0, 64, 73
2,96623, Control_c, 0, 64, 72
2,96638, Control_c, 0, 64, 67
2,96638, Note_on_c, 0, 65, 0
2,96654, Control_c, 0, 64, 58
2,96669, Control_c, 0, 64, 30
2,96685, Control_c, 0, 64, 0
2,96688, Note_on_c, 0, 58, 66
2,96688, Note_on_c, 0, 62, 70
2,96706, Note_on_c, 0, 67, 36
2,96740, Note_on_c, 0, 67, 0
2,96831, Note_on_c, 0, 77, 68
2,96834, Note_on_c, 0, 74, 61
2,96862, Note_on_c, 0, 74, 0
2,96876, Note_on_c, 0, 77, 0
2,96957, Note_on_c, 0, 79, 68
2,96965, Note_on_c, 0, 75, 60
2,96993, Note_on_c, 0, 75, 0
2,96994, Note_on_c, 0, 79, 0
2,97087, Note_on_c, 0, 80, 65
2,97097, Note_on_c, 0, 77, 56
2,97129, Note_on_c, 0, 80, 0
2,97132, Note_on_c, 0, 77, 0
2,97232, Note_on_c, 0, 82, 70
2,97237, Note_on_c, 0, 79, 59
2,97253, Note_on_c, 0, 58, 0
2,97257, Note_on_c, 0, 79, 0
2,97271, Note_on_c, 0, 82, 0
2,97276, Note_on_c, 0, 62, 0
2,97356, Note_on_c, 0, 80, 61
2,97371, Note_on_c, 0, 77, 50
2,97389, Note_on_c, 0, 80, 0
2,97393, Note_on_c, 0, 77, 0
2,97494, Note_on_c, 0, 82, 73
2,97497, Note_on_c, 0, 79, 66
2,97498, Note_on_c, 0, 58, 61
2,97499, Note_on_c, 0, 55, 59
2,97528, Note_on_c, 0, 79, 0
2,97534, Note_on_c, 0, 55, 0
2,97537, Note_on_c, 0, 58, 0
2,97546, Note_on_c, 0, 82, 0
2,97797, Note_on_c, 0, 82, 73
2,97801, Note_on_c, 0, 79, 65
2,97816, Note_on_c, 0, 63, 72
2,97818, Control_c, 0, 64, 39
2,97829, Note_on_c, 0, 60, 55
2,97833, Control_c, 0, 64, 54
2,97849, Control_c, 0, 64, 60
2,97864, Control_c, 0, 64, 63
2,97886, Control_c, 0, 64, 65
2,97901, Control_c, 0, 64, 67
2,97916, Control_c, 0, 64, 71
2,97932, Control_c, 0, 64, 73
2,97947, Control_c, 0, 64, 75
2,97962, Control_c, 0, 64, 76
2,97978, Control_c, 0, 64, 76
2,98098, Note_on_c, 0, 75, 63
2,98106, Note_on_c, 0, 72, 51
2,98112, Note_on_c, 0, 79, 0
2,98121, Note_on_c, 0, 63, 0
2,98139, Note_on_c, 0, 60, 0
2,98142, Note_on_c, 0, 82, 0
2,98159, Control_c, 0, 64, 76
2,98280, Control_c, 0, 64, 75
2,98327, Control_c, 0, 64, 75
2,98341, Control_c, 0, 64, 74
2,98356, Control_c, 0, 64, 72
2,98373, Control_c, 0, 64, 69
2,98384, Note_on_c, 0, 60, 69
2,98388, Control_c, 0, 64, 64
2,98392, Note_on_c, 0, 72, 0
2,98393, Note_on_c, 0, 56, 54
2,98399, Note_on_c, 0, 75, 0
2,98403, Control_c, 0, 64, 43
2,98419, Control_c, 0, 64, 0
2,98515, Note_on_c, 0, 72, 61
2,98518, Note_on_c, 0, 75, 66
2,98549, Note_on_c, 0, 72, 0
2,98567, Note_on_c, 0, 75, 0
2,98655, Note_on_c, 0, 77, 68
2,98659, Note_on_c, 0, 74, 55
2,98689, Note_on_c, 0, 74, 0
2,98708, Note_on_c, 0, 77, 0
2,98782, Note_on_c, 0, 79, 63
2,98788, Note_on_c, 0, 75, 58
2,98821, Note_on_c, 0, 75, 0
2,98827, Note_on_c, 0, 79, 0
2,98879, Note_on_c, 0, 56, 0
2,98901, Note_on_c, 0, 80, 70
2,98919, Note_on_c, 0, 77, 48
2,98947, Note_on_c, 0, 77, 0
2,98951, Note_on_c, 0, 60, 0
2,98956, Note_on_c, 0, 80, 0
2,99031, Note_on_c, 0, 79, 65
2,99041, Note_on_c, 0, 75, 52
2,99067, Note_on_c, 0, 75, 0
2,99081, Note_on_c, 0, 79, 0
2,99161, Note_on_c, 0, 56, 63
2,99166, Note_on_c, 0, 80, 62
2,99172, Note_on_c, 0, 53, 58
2,99177, Note_on_c, 0, 77, 62
2,99199, Note_on_c, 0, 56, 0
2,99205, Note_on_c, 0, 53, 0
2,99216, Note_on_c, 0, 80, 0
2,99217, Note_on_c, 0, 77, 0
2,99452, Control_c, 0, 64, 30
2,99456, Note_on_c, 0, 62, 70
2,99458, Note_on_c, 0, 80, 76
2,99460, Note_on_c, 0, 58, 63
2,99467, Control_c, 0, 64, 51
2,99467, Note_on_c, 0, 77, 65
2,99482, Control_c, 0, 64, 60
2,99497, Control_c, 0, 64, 63
2,99512, Control_c, 0, 64, 65
2,99528, Control_c, 0, 64, 68
2,99543, Control_c, 0, 64, 72
2,99558, Control_c, 0, 64, 76
2,99574, Control_c, 0, 64, 78
2,99589, Control_c, 0, 64, 79
2,99634, Control_c, 0, 64, 80
2,99687, Note_on_c, 0, 62, 0
2,99746, Note_on_c, 0, 58, 0
2,99757, Note_on_c, 0, 70, 66
2,99762, Note_on_c, 0, 74, 66
2,99825, Note_on_c, 0, 77, 0
2,99869, Note_on_c, 0, 80, 0
2,99892, Control_c, 0, 64, 79
2,99993, Note_on_c, 0, 74, 0
2,99999, Control_c, 0, 64, 79
2,100011, Note_on_c, 0, 70, 0
2,100015, Control_c, 0, 64, 78
2,100029, Note_on_c, 0, 58, 82
2,100030, Control_c, 0, 64, 75
2,100045, Note_on_c, 0, 55, 64
2,100046, Control_c, 0, 64, 71
2,100060, Control_c, 0, 64, 64
2,100075, Control_c, 0, 64, 29
2,100091, Control_c, 0, 64, 0
2,100185, Note_on_c, 0, 74, 64
2,100187, Note_on_c, 0, 70, 51
2,100212, Note_on_c, 0, 70, 0
2,100238, Note_on_c, 0, 74, 0
2,100317, Note_on_c, 0, 75, 71
2,100326, Note_on_c, 0, 72, 65
2,100352, Note_on_c, 0, 72, 0
2,100362, Note_on_c, 0, 75, 0
2,100443, Note_on_c, 0, 77, 80
2,100456, Note_on_c, 0, 74, 62
2,100478, Note_on_c, 0, 55, 0
2,100481, Note_on_c, 0, 74, 0
2,100500, Note_on_c, 0, 77, 0
2,100557, Note_on_c, 0, 58, 0
2,100576, Note_on_c, 0, 79, 75
2,100579, Note_on_c, 0, 75, 77
2,100606, Note_on_c, 0, 75, 0
2,100619, Note_on_c, 0, 79, 0
2,100700, Note_on_c, 0, 77, 78
2,100703, Note_on_c, 0, 74, 68
2,100731, Note_on_c, 0, 74, 0
2,100747, Note_on_c, 0, 77, 0
2,100830, Note_on_c, 0, 79, 88
2,100839, Note_on_c, 0, 75, 78
2,100847, Note_on_c, 0, 55, 60
2,100855, Note_on_c, 0, 51, 60
2,100874, Control_c, 0, 64, 56
2,100890, Control_c, 0, 64, 64
2,100900, Note_on_c, 0, 55, 0
2,100904, Control_c, 0, 64, 66
2,100918, Note_on_c, 0, 51, 0
2,100919, Control_c, 0, 64, 68
2,100935, Control_c, 0, 64, 70
2,100957, Control_c, 0, 64, 74
2,100973, Control_c, 0, 64, 76
2,100988, Control_c, 0, 64, 77
2,101001, Note_on_c, 0, 79, 0
2,101003, Control_c, 0, 64, 79
2,101019, Control_c, 0, 64, 80
2,101033, Control_c, 0, 64, 81
2,101063, Note_on_c, 0, 75, 0
2,101079, Control_c, 0, 64, 78
2,101095, Control_c, 0, 64, 73
2,101109, Control_c, 0, 64, 65
2,101123, Note_on_c, 0, 60, 87
2,101125, Control_c, 0, 64, 41
2,101130, Note_on_c, 0, 56, 77
2,101140, Control_c, 0, 64, 26
2,101155, Control_c, 0, 64, 44
2,101170, Control_c, 0, 64, 53
2,101185, Control_c, 0, 64, 54
2,101200, Control_c, 0, 64, 52
2,101216, Control_c, 0, 64, 48
2,101226, Note_on_c, 0, 60, 0
2,101230, Control_c, 0, 64, 43
2,101233, Note_on_c, 0, 56, 0
2,101246, Control_c, 0, 64, 37
2,101261, Control_c, 0, 64, 34
2,101261, Note_on_c, 0, 73, 79
2,101276, Control_c, 0, 64, 29
2,101292, Control_c, 0, 64, 15
2,101307, Control_c, 0, 64, 0
2,101318, Note_on_c, 0, 73, 0
2,101394, Note_on_c, 0, 82, 80
2,101395, Note_on_c, 0, 60, 78
2,101395, Note_on_c, 0, 75, 80
2,101404, Note_on_c, 0, 56, 68
2,101445, Note_on_c, 0, 60, 0
2,101466, Note_on_c, 0, 56, 0
2,101492, Note_on_c, 0, 75, 0
2,101511, Note_on_c, 0, 82, 0
2,101529, Note_on_c, 0, 73, 74
2,101564, Note_on_c, 0, 73, 0
2,101664, Note_on_c, 0, 80, 85
2,101670, Note_on_c, 0, 72, 78
2,101671, Note_on_c, 0, 60, 74
2,101675, Note_on_c, 0, 56, 64
2,101734, Note_on_c, 0, 60, 0
2,101748, Note_on_c, 0, 56, 0
2,101783, Note_on_c, 0, 72, 0
2,101813, Note_on_c, 0, 70, 71
2,101813, Note_on_c, 0, 80, 0
2,101851, Note_on_c, 0, 70, 0
2,101947, Note_on_c, 0, 79, 85
2,101949, Note_on_c, 0, 72, 80
2,101951, Note_on_c, 0, 60, 75
2,101961, Note_on_c, 0, 56, 63
2,101999, Note_on_c, 0, 60, 0
2,102010, Note_on_c, 0, 56, 0
2,102053, Note_on_c, 0, 72, 0
2,102080, Note_on_c, 0, 70, 72
2,102090, Note_on_c, 0, 79, 0
2,102110, Note_on_c, 0, 70, 0
2,102223, Note_on_c, 0, 68, 91
2,102224, Note_on_c, 0, 77, 86
2,102230, Note_on_c, 0, 60, 72
2,102235, Note_on_c, 0, 56, 62
2,102273, Note_on_c, 0, 60, 0
2,102289, Note_on_c, 0, 56, 0
2,102324, Note_on_c, 0, 77, 0
2,102342, Note_on_c, 0, 68, 0
2,102351, Note_on_c, 0, 67, 68
2,102453, Note_on_c, 0, 67, 0
2,102499, Note_on_c, 0, 75, 82
2,102507, Note_on_c, 0, 68, 74
2,102516, Note_on_c, 0, 60, 68
2,102520, Note_on_c, 0, 56, 62
2,102556, Note_on_c, 0, 60, 0
2,102566, Note_on_c, 0, 56, 0
2,102587, Note_on_c, 0, 68, 0
2,102634, Note_on_c, 0, 67, 63
2,102640, Note_on_c, 0, 75, 0
2,102666, Note_on_c, 0, 67, 0
2,102776, Note_on_c, 0, 74, 83
2,102782, Note_on_c, 0, 65, 71
2,102788, Note_on_c, 0, 62, 69
2,102792, Note_on_c, 0, 58, 64
2,102811, Note_on_c, 0, 65, 0
2,102823, Note_on_c, 0, 74, 0
2,102879, Note_on_c, 0, 62, 0
2,102891, Note_on_c, 0, 58, 0
2,102924, Note_on_c, 0, 60, 60
2,103025, Note_on_c, 0, 60, 0
2,103050, Note_on_c, 0, 74, 88
2,103055, Note_on_c, 0, 65, 77
2,103058, Note_on_c, 0, 62, 67
2,103065, Note_on_c, 0, 56, 56
2,103080, Note_on_c, 0, 65, 0
2,103100, Note_on_c, 0, 74, 0
2,103148, Note_on_c, 0, 62, 0
2,103167, Note_on_c, 0, 56, 0
2,103200, Note_on_c, 0, 60, 58
2,103243, Note_on_c, 0, 60, 0
2,103333, Note_on_c, 0, 75, 95
2,103339, Note_on_c, 0, 67, 76
2,103342, Note_on_c, 0, 58, 79
2,103361, Note_on_c, 0, 55, 55
2,103362, Note_on_c, 0, 67, 0
2,103385, Note_on_c, 0, 75, 0
2,103425, Note_on_c, 0, 58, 0
2,103478, Note_on_c, 0, 55, 0
2,103486, Note_on_c, 0, 56, 62
2,103604, Note_on_c, 0, 77, 96
2,103605, Note_on_c, 0, 56, 0
2,103608, Note_on_c, 0, 68, 87
2,103620, Note_on_c, 0, 58, 72
2,103632, Note_on_c, 0, 68, 0
2,103635, Note_on_c, 0, 53, 59
2,103656, Note_on_c, 0, 77, 0
2,103712, Note_on_c, 0, 58, 0
2,103743, Note_on_c, 0, 53, 0
2,103753, Note_on_c, 0, 56, 66
2,103857, Note_on_c, 0, 56, 0
2,103889, Note_on_c, 0, 79, 92
2,103895, Note_on_c, 0, 70, 85
2,103897, Note_on_c, 0, 55, 67
2,103902, Note_on_c, 0, 51, 60
2,103919, Note_on_c, 0, 70, 0
2,103996, Note_on_c, 0, 55, 0
2,104006, Note_on_c, 0, 51, 0
2,104040, Note_on_c, 0, 53, 63
2,104152, Note_on_c, 0, 53, 0
2,104175, Note_on_c, 0, 71, 78
2,104186, Note_on_c, 0, 55, 74
2,104196, Note_on_c, 0, 50, 60
2,104246, Note_on_c, 0, 50, 0
2,104255, Note_on_c, 0, 71, 0
2,104309, Note_on_c, 0, 55, 0
2,104311, Note_on_c, 0, 53, 67
2,104443, Control_c, 0, 64, 42
2,104445, Note_on_c, 0, 53, 0
2,104454, Note_on_c, 0, 48, 67
2,104456, Note_on_c, 0, 72, 78
2,104458, Control_c, 0, 64, 62
2,104459, Note_on_c, 0, 51, 67
2,104473, Control_c, 0, 64, 65
2,104489, Control_c, 0, 64, 66
2,104492, Note_on_c, 0, 48, 0
2,104497, Note_on_c, 0, 51, 0
2,104504, Control_c, 0, 64, 67
2,104509, Note_on_c, 0, 79, 0
2,104520, Control_c, 0, 64, 67
2,104534, Control_c, 0, 64, 68
2,104595, Control_c, 0, 64, 67
2,104603, Note_on_c, 0, 74, 75
2,104604, Note_on_c, 0, 77, 75
2,104610, Control_c, 0, 64, 66
2,104617, Note_on_c, 0, 72, 0
2,104625, Control_c, 0, 64, 65
2,104641, Control_c, 0, 64, 62
2,104656, Control_c, 0, 64, 57
2,104670, Control_c, 0, 64, 46
2,104682, Note_on_c, 0, 77, 0
2,104686, Control_c, 0, 64, 17
2,104701, Control_c, 0, 64, 0
2,104727, Note_on_c, 0, 63, 79
2,104734, Note_on_c, 0, 60, 71
2,104739, Note_on_c, 0, 79, 82
2,104745, Note_on_c, 0, 75, 75
2,104757, Note_on_c, 0, 74, 0
2,104766, Note_on_c, 0, 60, 0
2,104779, Note_on_c, 0, 63, 0
2,104833, Note_on_c, 0, 75, 0
2,104892, Note_on_c, 0, 74, 72
2,104892, Note_on_c, 0, 77, 80
2,104929, Note_on_c, 0, 79, 0
2,104997, Note_on_c, 0, 77, 0
2,105020, Note_on_c, 0, 74, 0
2,105021, Note_on_c, 0, 63, 84
2,105021, Note_on_c, 0, 72, 83
2,105025, Note_on_c, 0, 60, 77
2,105026, Note_on_c, 0, 75, 66
2,105058, Note_on_c, 0, 75, 0
2,105082, Note_on_c, 0, 63, 0
2,105085, Note_on_c, 0, 60, 0
2,105169, Note_on_c, 0, 70, 77
2,105173, Note_on_c, 0, 72, 0
2,105174, Note_on_c, 0, 74, 61
2,105247, Note_on_c, 0, 74, 0
2,105297, Note_on_c, 0, 63, 73
2,105298, Note_on_c, 0, 60, 72
2,105303, Note_on_c, 0, 72, 69
2,105304, Note_on_c, 0, 75, 79
2,105311, Note_on_c, 0, 70, 0
2,105356, Note_on_c, 0, 63, 0
2,105358, Note_on_c, 0, 60, 0
2,105367, Note_on_c, 0, 72, 0
2,105432, Note_on_c, 0, 70, 71
2,105432, Note_on_c, 0, 74, 70
2,105458, Note_on_c, 0, 75, 0
2,105526, Note_on_c, 0, 74, 0
2,105570, Note_on_c, 0, 70, 0
2,105576, Note_on_c, 0, 72, 74
2,105581, Note_on_c, 0, 63, 79
2,105581, Note_on_c, 0, 68, 77
2,105584, Note_on_c, 0, 60, 74
2,105612, Note_on_c, 0, 72, 0
2,105643, Note_on_c, 0, 68, 0
2,105701, Note_on_c, 0, 68, 69
2,105709, Note_on_c, 0, 70, 65
2,105719, Note_on_c, 0, 63, 0
2,105723, Note_on_c, 0, 60, 0
2,105773, Note_on_c, 0, 68, 0
2,105778, Note_on_c, 0, 70, 0
2,105837, Note_on_c, 0, 72, 80
2,105840, Note_on_c, 0, 63, 74
2,105849, Note_on_c, 0, 60, 65
2,105849, Note_on_c, 0, 68, 76
2,105856, Control_c, 0, 64, 47
2,105870, Control_c, 0, 64, 57
2,105886, Control_c, 0, 64, 61
2,105890, Note_on_c, 0, 60, 0
2,105898, Note_on_c, 0, 63, 0
2,105901, Control_c, 0, 64, 62
2,105916, Control_c, 0, 64, 63
2,105929, Note_on_c, 0, 68, 0
2,105932, Control_c, 0, 64, 64
2,105961, Control_c, 0, 64, 64
2,105970, Note_on_c, 0, 72, 0
2,105975, Note_on_c, 0, 70, 77
2,105979, Note_on_c, 0, 67, 72
2,106022, Control_c, 0, 64, 65
2,106053, Control_c, 0, 64, 64
2,106067, Control_c, 0, 64, 62
2,106082, Control_c, 0, 64, 57
2,106098, Control_c, 0, 64, 44
2,106098, Note_on_c, 0, 67, 0
2,106113, Control_c, 0, 64, 17
2,106123, Note_on_c, 0, 69, 89
2,106129, Control_c, 0, 64, 0
2,106133, Note_on_c, 0, 66, 85
2,106134, Note_on_c, 0, 60, 67
2,106135, Note_on_c, 0, 63, 76
2,106159, Note_on_c, 0, 70, 0
2,106222, Note_on_c, 0, 63, 0
2,106263, Note_on_c, 0, 60, 0
2,106265, Note_on_c, 0, 62, 75
2,106394, Control_c, 0, 64, 53
2,106398, Note_on_c, 0, 62, 0
2,106410, Control_c, 0, 64, 59
2,106419, Note_on_c, 0, 58, 70
2,106420, Note_on_c, 0, 63, 76
2,106425, Control_c, 0, 64, 61
2,106440, Control_c, 0, 64, 62
2,106456, Control_c, 0, 64, 63
2,106471, Control_c, 0, 64, 64
2,106486, Control_c, 0, 64, 65
2,106501, Control_c, 0, 64, 65
2,106513, Note_on_c, 0, 63, 0
2,106523, Note_on_c, 0, 58, 0
2,106532, Control_c, 0, 64, 66
2,106550, Note_on_c, 0, 62, 71
2,106562, Control_c, 0, 64, 65
2,106593, Control_c, 0, 64, 64
2,106602, Note_on_c, 0, 62, 0
2,106609, Control_c, 0, 64, 63
2,106624, Control_c, 0, 64, 60
2,106638, Control_c, 0, 64, 52
2,106654, Control_c, 0, 64, 30
2,106669, Control_c, 0, 64, 0
2,106699, Note_on_c, 0, 60, 81
2,106707, Note_on_c, 0, 57, 62
2,106791, Note_on_c, 0, 60, 0
2,106836, Note_on_c, 0, 58, 70
2,106840, Note_on_c, 0, 57, 0
2,106968, Note_on_c, 0, 58, 0
2,106974, Note_on_c, 0, 70, 86
2,106987, Note_on_c, 0, 67, 66
2,106988, Note_on_c, 0, 55, 60
2,106990, Note_on_c, 0, 60, 64
2,106990, Note_on_c, 0, 66, 0
2,107000, Note_on_c, 0, 69, 0
2,107082, Note_on_c, 0, 60, 0
2,107137, Note_on_c, 0, 58, 68
2,107138, Note_on_c, 0, 55, 0
2,107217, Note_on_c, 0, 70, 0
2,107218, Note_on_c, 0, 58, 0
2,107265, Note_on_c, 0, 72, 82
2,107271, Note_on_c, 0, 54, 59
2,107271, Note_on_c, 0, 69, 75
2,107272, Note_on_c, 0, 57, 66
2,107303, Note_on_c, 0, 67, 0
2,107344, Note_on_c, 0, 54, 0
2,107389, Note_on_c, 0, 57, 0
2,107409, Note_on_c, 0, 55, 65
2,107515, Note_on_c, 0, 55, 0
2,107547, Note_on_c, 0, 57, 69
2,107560, Note_on_c, 0, 52, 63
2,107619, Note_on_c, 0, 52, 0
2,107623, Note_on_c, 0, 57, 0
2,107667, Note_on_c, 0, 55, 69
2,107726, Note_on_c, 0, 55, 0
2,107807, Note_on_c, 0, 54, 73
2,107812, Note_on_c, 0, 50, 64
2,107847, Note_on_c, 0, 54, 0
2,107850, Note_on_c, 0, 50, 0
2,107940, Note_on_c, 0, 62, 72
2,108057, Note_on_c, 0, 69, 0
2,108076, Note_on_c, 0, 54, 75
2,108076, Note_on_c, 0, 63, 87
2,108076, Note_on_c, 0, 72, 0
2,108079, Note_on_c, 0, 57, 78
2,108105, Note_on_c, 0, 62, 0
2,108122, Note_on_c, 0, 54, 0
2,108128, Note_on_c, 0, 57, 0
2,108224, Note_on_c, 0, 62, 80
2,108242, Note_on_c, 0, 63, 0
2,108315, Note_on_c, 0, 62, 0
2,108347, Note_on_c, 0, 70, 89
2,108356, Note_on_c, 0, 58, 83
2,108362, Note_on_c, 0, 55, 71
2,108403, Note_on_c, 0, 58, 0
2,108408, Note_on_c, 0, 55, 0
2,108488, Note_on_c, 0, 62, 69
2,108630, Note_on_c, 0, 63, 68
2,108633, Note_on_c, 0, 54, 70
2,108636, Note_on_c, 0, 50, 72
2,108648, Note_on_c, 0, 62, 0
2,108670, Note_on_c, 0, 54, 0
2,108678, Note_on_c, 0, 50, 0
2,108770, Note_on_c, 0, 62, 66
2,108844, Note_on_c, 0, 63, 0
2,108908, Note_on_c, 0, 62, 0
2,108915, Note_on_c, 0, 70, 0
2,108919, Note_on_c, 0, 51, 57
2,108921, Note_on_c, 0, 55, 63
2,108923, Note_on_c, 0, 60, 68
2,109058, Note_on_c, 0, 70, 67
2,109086, Note_on_c, 0, 60, 0
2,109133, Note_on_c, 0, 70, 0
2,109159, Note_on_c, 0, 55, 0
2,109188, Note_on_c, 0, 69, 69
2,109189, Note_on_c, 0, 51, 0
2,109206, Note_on_c, 0, 61, 60
2,109281, Note_on_c, 0, 69, 0
2,109334, Note_on_c, 0, 61, 0
2,109334, Note_on_c, 0, 67, 66
2,109400, Note_on_c, 0, 67, 0
2,109487, Note_on_c, 0, 66, 67
2,109491, Note_on_c, 0, 62, 56
2,109500, Note_on_c, 0, 57, 43
2,109502, Note_on_c, 0, 50, 48
2,109538, Note_on_c, 0, 50, 0
2,109602, Note_on_c, 0, 57, 0
2,109768, Note_on_c, 0, 38, 61
2,109783, Control_c, 0, 64, 44
2,109796, Note_on_c, 0, 62, 0
2,109798, Control_c, 0, 64, 54
2,109800, Note_on_c, 0, 38, 0
2,109814, Control_c, 0, 64, 58
2,109830, Control_c, 0, 64, 59
2,109860, Note_on_c, 0, 66, 0
2,109876, Control_c, 0, 64, 58
2,109890, Control_c, 0, 64, 58
2,109906, Control_c, 0, 64, 57
2,109952, Control_c, 0, 64, 56
2,109966, Control_c, 0, 64, 55
2,109982, Control_c, 0, 64, 54
2,109997, Control_c, 0, 64, 52
2,110011, Control_c, 0, 64, 51
2,110042, Control_c, 0, 64, 51
2,110058, Control_c, 0, 64, 48
2,110073, Control_c, 0, 64, 41
2,110088, Control_c, 0, 64, 28
2,110104, Control_c, 0, 64, 0
2,110128, Note_on_c, 0, 62, 100
2,110286, Note_on_c, 0, 69, 77
2,110440, Note_on_c, 0, 69, 0
2,110443, Note_on_c, 0, 70, 75
2,110575, Note_on_c, 0, 72, 76
2,110588, Note_on_c, 0, 70, 0
2,110717, Note_on_c, 0, 74, 72
2,110735, Note_on_c, 0, 72, 0
2,110786, Note_on_c, 0, 62, 0
2,110822, Note_on_c, 0, 74, 0
2,110845, Note_on_c, 0, 72, 69
2,110874, Note_on_c, 0, 72, 0
2,110994, Note_on_c, 0, 58, 84
2,110996, Note_on_c, 0, 74, 80
2,111047, Note_on_c, 0, 58, 0
2,111047, Note_on_c, 0, 74, 0
2,111312, Note_on_c, 0, 74, 90
2,111324, Note_on_c, 0, 63, 100
2,111381, Control_c, 0, 64, 29
2,111395, Control_c, 0, 64, 43
2,111410, Control_c, 0, 64, 51
2,111426, Control_c, 0, 64, 56
2,111441, Control_c, 0, 64, 59
2,111457, Control_c, 0, 64, 63
2,111473, Control_c, 0, 64, 65
2,111488, Control_c, 0, 64, 68
2,111503, Control_c, 0, 64, 71
2,111518, Control_c, 0, 64, 74
2,111534, Control_c, 0, 64, 76
2,111549, Control_c, 0, 64, 76
2,111579, Control_c, 0, 64, 77
2,111625, Note_on_c, 0, 74, 0
2,111626, Note_on_c, 0, 67, 71
2,111726, Note_on_c, 0, 63, 0
2,111901, Note_on_c, 0, 67, 0
2,111905, Control_c, 0, 64, 76
2,111920, Control_c, 0, 64, 75
2,111935, Note_on_c, 0, 60, 98
2,111936, Control_c, 0, 64, 70
2,111951, Control_c, 0, 64, 63
2,111965, Control_c, 0, 64, 33
2,111981, Control_c, 0, 64, 0
2,112079, Note_on_c, 0, 67, 82
2,112227, Note_on_c, 0, 69, 80
2,112232, Note_on_c, 0, 67, 0
2,112355, Note_on_c, 0, 70, 77
2,112376, Note_on_c, 0, 69, 0
2,112500, Note_on_c, 0, 72, 80
2,112505, Note_on_c, 0, 70, 0
2,112538, Note_on_c, 0, 60, 0
2,112582, Note_on_c, 0, 72, 0
2,112620, Note_on_c, 0, 70, 70
2,112650, Note_on_c, 0, 70, 0
2,112773, Note_on_c, 0, 57, 84
2,112776, Note_on_c, 0, 72, 87
2,112819, Note_on_c, 0, 72, 0
2,112821, Note_on_c, 0, 57, 0
2,113084, Note_on_c, 0, 72, 93
2,113096, Note_on_c, 0, 62, 98
2,113097, Control_c, 0, 64, 24
2,113113, Control_c, 0, 64, 56
2,113128, Control_c, 0, 64, 63
2,113144, Control_c, 0, 64, 66
2,113159, Control_c, 0, 64, 69
2,113176, Control_c, 0, 64, 72
2,113190, Control_c, 0, 64, 75
2,113205, Control_c, 0, 64, 77
2,113221, Control_c, 0, 64, 78
2,113259, Control_c, 0, 64, 79
2,113392, Note_on_c, 0, 72, 0
2,113401, Note_on_c, 0, 62, 0
2,113421, Note_on_c, 0, 66, 63
2,113468, Note_on_c, 0, 66, 0
2,113654, Control_c, 0, 64, 78
2,113669, Control_c, 0, 64, 75
2,113683, Control_c, 0, 64, 67
2,113699, Control_c, 0, 64, 29
2,113714, Control_c, 0, 64, 0
2,113714, Note_on_c, 0, 74, 95
2,113718, Note_on_c, 0, 58, 88
2,113760, Control_c, 0, 64, 26
2,113776, Control_c, 0, 64, 58
2,113791, Control_c, 0, 64, 62
2,113806, Control_c, 0, 64, 63
2,113851, Note_on_c, 0, 66, 74
2,113864, Note_on_c, 0, 50, 62
2,113882, Control_c, 0, 64, 63
2,113913, Control_c, 0, 64, 62
2,113928, Control_c, 0, 64, 61
2,113944, Control_c, 0, 64, 60
2,113959, Control_c, 0, 64, 59
2,113975, Control_c, 0, 64, 58
2,113978, Note_on_c, 0, 66, 0
2,114010, Note_on_c, 0, 67, 73
2,114013, Control_c, 0, 64, 58
2,114026, Note_on_c, 0, 52, 55
2,114028, Control_c, 0, 64, 57
2,114042, Control_c, 0, 64, 56
2,114046, Note_on_c, 0, 58, 0
2,114058, Control_c, 0, 64, 55
2,114073, Control_c, 0, 64, 55
2,114075, Note_on_c, 0, 50, 0
2,114103, Control_c, 0, 64, 53
2,114118, Control_c, 0, 64, 48
2,114134, Control_c, 0, 64, 38
2,114146, Note_on_c, 0, 69, 76
2,114149, Control_c, 0, 64, 10
2,114149, Note_on_c, 0, 52, 0
2,114155, Note_on_c, 0, 67, 0
2,114163, Control_c, 0, 64, 0
2,114176, Note_on_c, 0, 54, 52
2,114234, Note_on_c, 0, 74, 0
2,114270, Note_on_c, 0, 54, 0
2,114289, Note_on_c, 0, 70, 74
2,114290, Note_on_c, 0, 55, 49
2,114305, Note_on_c, 0, 69, 0
2,114389, Note_on_c, 0, 55, 0
2,114405, Note_on_c, 0, 70, 0
2,114417, Note_on_c, 0, 54, 52
2,114421, Note_on_c, 0, 69, 74
2,114459, Note_on_c, 0, 69, 0
2,114473, Note_on_c, 0, 54, 0
2,114559, Control_c, 0, 64, 45
2,114568, Note_on_c, 0, 55, 77
2,114574, Control_c, 0, 64, 62
2,114576, Note_on_c, 0, 70, 93
2,114589, Control_c, 0, 64, 64
2,114620, Control_c, 0, 64, 64
2,114635, Control_c, 0, 64, 63
2,114642, Note_on_c, 0, 70, 0
2,114643, Note_on_c, 0, 55, 0
2,114649, Control_c, 0, 64, 60
2,114665, Control_c, 0, 64, 53
2,114680, Control_c, 0, 64, 26
2,114696, Control_c, 0, 64, 0
2,114891, Note_on_c, 0, 75, 94
2,114899, Note_on_c, 0, 70, 85
2,114900, Note_on_c, 0, 55, 68
2,114901, Note_on_c, 0, 60, 76
2,114931, Control_c, 0, 64, 58
2,114947, Control_c, 0, 64, 67
2,114962, Control_c, 0, 64, 69
2,114978, Control_c, 0, 64, 70
2,114993, Control_c, 0, 64, 73
2,115007, Control_c, 0, 64, 77
2,115023, Control_c, 0, 64, 81
2,115038, Control_c, 0, 64, 82
2,115130, Note_on_c, 0, 60, 0
2,115171, Note_on_c, 0, 55, 0
2,115173, Note_on_c, 0, 75, 0
2,115180, Note_on_c, 0, 48, 57
2,115199, Note_on_c, 0, 63, 72
2,115204, Note_on_c, 0, 70, 0
2,115229, Note_on_c, 0, 48, 0
2,115291, Note_on_c, 0, 63, 0
2,115448, Control_c, 0, 64, 80
2,115463, Control_c, 0, 64, 76
2,115478, Control_c, 0, 64, 66
2,115486, Note_on_c, 0, 72, 95
2,115489, Note_on_c, 0, 57, 80
2,115494, Control_c, 0, 64, 44
2,115509, Control_c, 0, 64, 0
2,115637, Note_on_c, 0, 48, 67
2,115638, Note_on_c, 0, 64, 73
2,115784, Note_on_c, 0, 64, 0
2,115786, Note_on_c, 0, 65, 73
2,115794, Note_on_c, 0, 50, 50
2,115805, Note_on_c, 0, 48, 0
2,115825, Note_on_c, 0, 57, 0
2,115836, Note_on_c, 0, 72, 0
2,115903, Note_on_c, 0, 50, 0
2,115926, Note_on_c, 0, 67, 71
2,115938, Note_on_c, 0, 52, 52
2,115966, Note_on_c, 0, 65, 0
2,116018, Note_on_c, 0, 52, 0
2,116049, Note_on_c, 0, 53, 57
2,116063, Note_on_c, 0, 69, 74
2,116091, Note_on_c, 0, 67, 0
2,116130, Note_on_c, 0, 69, 0
2,116156, Note_on_c, 0, 53, 0
2,116196, Note_on_c, 0, 52, 43
2,116196, Note_on_c, 0, 67, 71
2,116228, Note_on_c, 0, 67, 0
2,116236, Note_on_c, 0, 52, 0
2,116339, Note_on_c, 0, 69, 96
2,116342, Note_on_c, 0, 53, 71
2,116395, Note_on_c, 0, 69, 0
2,116428, Note_on_c, 0, 53, 0
2,116639, Note_on_c, 0, 74, 92
2,116645, Note_on_c, 0, 69, 89
2,116653, Note_on_c, 0, 53, 65
2,116653, Note_on_c, 0, 58, 83
2,116711, Control_c, 0, 64, 17
2,116726, Control_c, 0, 64, 47
2,116741, Control_c, 0, 64, 59
2,116756, Control_c, 0, 64, 64
2,116771, Control_c, 0, 64, 67
2,116787, Control_c, 0, 64, 69
2,116802, Control_c, 0, 64, 72
2,116818, Control_c, 0, 64, 74
2,116833, Control_c, 0, 64, 76
2,116848, Control_c, 0, 64, 77
2,116890, Note_on_c, 0, 74, 0
2,116909, Note_on_c, 0, 58, 0
2,116917, Note_on_c, 0, 69, 0
2,116924, Note_on_c, 0, 53, 0
2,116929, Note_on_c, 0, 46, 63
2,116929, Note_on_c, 0, 62, 69
2,116993, Note_on_c, 0, 46, 0
2,117166, Note_on_c, 0, 62, 0
2,117190, Control_c, 0, 64, 76
2,117205, Control_c, 0, 64, 74
2,117221, Control_c, 0, 64, 68
2,117225, Note_on_c, 0, 70, 97
2,117236, Control_c, 0, 64, 53
2,117237, Note_on_c, 0, 55, 86
2,117251, Control_c, 0, 64, 0
2,117379, Note_on_c, 0, 46, 64
2,117392, Note_on_c, 0, 62, 42
2,117395, Note_on_c, 0, 60, 34
2,117469, Note_on_c, 0, 60, 0
2,117496, Note_on_c, 0, 70, 0
2,117497, Note_on_c, 0, 55, 0
2,117509, Note_on_c, 0, 64, 71
2,117524, Note_on_c, 0, 48, 55
2,117527, Note_on_c, 0, 46, 0
2,117527, Note_on_c, 0, 62, 0
2,117631, Note_on_c, 0, 48, 0
2,117646, Control_c, 0, 64, 10
2,117646, Note_on_c, 0, 66, 75
2,117672, Note_on_c, 0, 50, 49
2,117688, Note_on_c, 0, 64, 0
2,117761, Note_on_c, 0, 50, 0
2,117784, Note_on_c, 0, 67, 74
2,117786, Note_on_c, 0, 51, 63
2,117802, Note_on_c, 0, 66, 0
2,117814, Control_c, 0, 64, 0
2,117888, Note_on_c, 0, 51, 0
2,117894, Note_on_c, 0, 67, 0
2,117917, Note_on_c, 0, 50, 51
2,117921, Note_on_c, 0, 66, 71
2,118043, Note_on_c, 0, 66, 0
2,118054, Note_on_c, 0, 50, 0
2,118062, Note_on_c, 0, 67, 79
2,118079, Note_on_c, 0, 58, 58
2,118089, Note_on_c, 0, 51, 51
2,118126, Control_c, 0, 64, 10
2,118142, Control_c, 0, 64, 13
2,118156, Control_c, 0, 64, 15
2,118171, Control_c, 0, 64, 17
2,118187, Control_c, 0, 64, 18
2,118202, Control_c, 0, 64, 21
2,118215, Note_on_c, 0, 58, 0
2,118218, Control_c, 0, 64, 23
2,118232, Control_c, 0, 64, 24
2,118247, Control_c, 0, 64, 26
2,118263, Control_c, 0, 64, 28
2,118278, Control_c, 0, 64, 29
2,118349, Note_on_c, 0, 72, 80
2,118352, Note_on_c, 0, 51, 0
2,118363, Note_on_c, 0, 67, 0
2,118368, Note_on_c, 0, 57, 59
2,118384, Control_c, 0, 64, 29
2,118399, Control_c, 0, 64, 30
2,118410, Note_on_c, 0, 72, 0
2,118415, Control_c, 0, 64, 31
2,118469, Note_on_c, 0, 57, 0
2,118501, Note_on_c, 0, 50, 49
2,118594, Note_on_c, 0, 50, 0
2,118623, Note_on_c, 0, 72, 78
2,118626, Note_on_c, 0, 70, 78
2,118643, Note_on_c, 0, 51, 47
2,118646, Note_on_c, 0, 55, 62
2,118690, Note_on_c, 0, 72, 0
2,118692, Control_c, 0, 64, 32
2,118702, Note_on_c, 0, 70, 0
2,118708, Control_c, 0, 64, 32
2,118723, Control_c, 0, 64, 34
2,118738, Control_c, 0, 64, 36
2,118744, Note_on_c, 0, 55, 0
2,118748, Note_on_c, 0, 51, 0
2,118754, Control_c, 0, 64, 37
2,118769, Control_c, 0, 64, 38
2,118772, Note_on_c, 0, 50, 43
2,118785, Control_c, 0, 64, 39
2,118799, Control_c, 0, 64, 39
2,118814, Control_c, 0, 64, 40
2,118830, Control_c, 0, 64, 41
2,118851, Note_on_c, 0, 50, 0
2,118891, Control_c, 0, 64, 40
2,118906, Note_on_c, 0, 63, 84
2,118907, Control_c, 0, 64, 40
2,118907, Note_on_c, 0, 72, 75
2,118910, Note_on_c, 0, 69, 73
2,118917, Note_on_c, 0, 48, 69
2,118922, Control_c, 0, 64, 39
2,118937, Control_c, 0, 64, 39
2,118975, Note_on_c, 0, 72, 0
2,118980, Note_on_c, 0, 63, 0
2,118988, Note_on_c, 0, 69, 0
2,119012, Note_on_c, 0, 48, 0
2,119013, Control_c, 0, 64, 38
2,119035, Note_on_c, 0, 46, 59
2,119165, Note_on_c, 0, 46, 0
2,119184, Note_on_c, 0, 48, 76
2,119184, Note_on_c, 0, 63, 83
2,119184, Note_on_c, 0, 67, 81
2,119184, Note_on_c, 0, 72, 82
2,119210, Control_c, 0, 64, 39
2,119243, Note_on_c, 0, 63, 0
2,119254, Note_on_c, 0, 72, 0
2,119264, Note_on_c, 0, 67, 0
2,119304, Note_on_c, 0, 48, 0
2,119310, Note_on_c, 0, 46, 69
2,119317, Control_c, 0, 64, 39
2,119469, Note_on_c, 0, 72, 88
2,119470, Note_on_c, 0, 63, 84
2,119471, Note_on_c, 0, 45, 68
2,119472, Note_on_c, 0, 66, 80
2,119475, Note_on_c, 0, 46, 0
2,119507, Control_c, 0, 64, 40
2,119552, Note_on_c, 0, 63, 0
2,119572, Note_on_c, 0, 72, 0
2,119576, Note_on_c, 0, 66, 0
2,119589, Note_on_c, 0, 45, 0
2,119605, Note_on_c, 0, 43, 68
2,119660, Control_c, 0, 64, 39
2,119717, Note_on_c, 0, 43, 0
2,119740, Note_on_c, 0, 72, 86
2,119742, Note_on_c, 0, 63, 83
2,119748, Note_on_c, 0, 67, 75
2,119749, Note_on_c, 0, 45, 77
2,119765, Control_c, 0, 64, 40
2,119798, Note_on_c, 0, 67, 0
2,119834, Note_on_c, 0, 63, 0
2,119857, Note_on_c, 0, 72, 0
2,119873, Control_c, 0, 64, 40
2,119879, Note_on_c, 0, 45, 0
2,119881, Note_on_c, 0, 43, 77
2,119904, Control_c, 0, 64, 41
2,119978, Control_c, 0, 64, 41
2,119994, Control_c, 0, 64, 42
2,120009, Control_c, 0, 64, 44
2,120039, Control_c, 0, 64, 44
2,120054, Control_c, 0, 64, 39
2,120070, Control_c, 0, 64, 23
2,120070, Note_on_c, 0, 72, 97
2,120071, Note_on_c, 0, 69, 94
2,120075, Note_on_c, 0, 62, 94
2,120078, Note_on_c, 0, 42, 78
2,120081, Note_on_c, 0, 43, 0
2,120086, Control_c, 0, 64, 0
2,120261, Control_c, 0, 64, 27
2,120276, Control_c, 0, 64, 59
2,120291, Control_c, 0, 64, 65
2,120307, Control_c, 0, 64, 67
2,120322, Control_c, 0, 64, 69
2,120336, Control_c, 0, 64, 70
2,120352, Control_c, 0, 64, 72
2,120367, Control_c, 0, 64, 73
2,120382, Control_c, 0, 64, 74
2,120397, Control_c, 0, 64, 75
2,120412, Control_c, 0, 64, 76
2,120463, Note_on_c, 0, 42, 0
2,120542, Note_on_c, 0, 72, 0
2,120585, Note_on_c, 0, 62, 0
2,120612, Note_on_c, 0, 69, 0
2,120808, Control_c, 0, 64, 75
2,120824, Control_c, 0, 64, 75
2,120839, Control_c, 0, 64, 73
2,120853, Control_c, 0, 64, 71
2,120869, Control_c, 0, 64, 68
2,120883, Control_c, 0, 64, 64
2,120898, Control_c, 0, 64, 59
2,120921, Control_c, 0, 64, 55
2,120936, Control_c, 0, 64, 53
2,120952, Control_c, 0, 64, 50
2,120967, Control_c, 0, 64, 39
2,120983, Control_c, 0, 64, 0
2,121058, Control_c, 0, 64, 20
2,121074, Control_c, 0, 64, 64
2,121074, Note_on_c, 0, 74, 91
2,121076, Note_on_c, 0, 62, 91
2,121077, Note_on_c, 0, 66, 85
2,121079, Note_on_c, 0, 38, 70
2,121089, Control_c, 0, 64, 68
2,121104, Control_c, 0, 64, 73
2,121119, Control_c, 0, 64, 75
2,121134, Control_c, 0, 64, 76
2,121170, Note_on_c, 0, 38, 0
2,121173, Note_on_c, 0, 62, 0
2,121176, Note_on_c, 0, 74, 0
2,121183, Note_on_c, 0, 66, 0
2,121240, Control_c, 0, 64, 76
2,121255, Control_c, 0, 64, 75
2,121271, Control_c, 0, 64, 75
2,121286, Control_c, 0, 64, 74
2,121303, Control_c, 0, 64, 73
2,121318, Control_c, 0, 64, 73
2,121332, Control_c, 0, 64, 72
2,121348, Control_c, 0, 64, 71
2,121363, Control_c, 0, 64, 70
2,121378, Control_c, 0, 64, 68
2,121394, Control_c, 0, 64, 66
2,121408, Control_c, 0, 64, 64
2,121424, Control_c, 0, 64, 60
2,121439, Control_c, 0, 64, 51
2,121453, Control_c, 0, 64, 0
2,121469, Note_on_c, 0, 70, 94
2,121473, Note_on_c, 0, 62, 90
2,121474, Note_on_c, 0, 67, 84
2,121478, Note_on_c, 0, 43, 85
2,121667, Control_c, 0, 64, 58
2,121689, Control_c, 0, 64, 63
2,121705, Control_c, 0, 64, 65
2,121720, Control_c, 0, 64, 68
2,121734, Control_c, 0, 64, 72
2,121750, Control_c, 0, 64, 76
2,121765, Control_c, 0, 64, 78
2,121781, Control_c, 0, 64, 79
2,121796, Control_c, 0, 64, 79
2,121841, Control_c, 0, 64, 80
2,121948, Control_c, 0, 64, 80
2,121965, Note_on_c, 0, 70, 0
2,122011, Note_on_c, 0, 43, 0
2,122057, Note_on_c, 0, 62, 0
2,122060, Note_on_c, 0, 67, 0
2,122283, Control_c, 0, 64, 80
2,122313, Control_c, 0, 64, 79
2,122328, Control_c, 0, 64, 79
2,122344, Control_c, 0, 64, 78
2,122359, Control_c, 0, 64, 75
2,122373, Control_c, 0, 64, 71
2,122389, Control_c, 0, 64, 62
2,122404, Control_c, 0, 64, 0
2,122468, Note_on_c, 0, 72, 85
2,122478, Note_on_c, 0, 63, 82
2,122478, Note_on_c, 0, 69, 78
2,122480, Note_on_c, 0, 48, 95
2,122488, Control_c, 0, 64, 62
2,122503, Control_c, 0, 64, 68
2,122518, Control_c, 0, 64, 72
2,122530, Note_on_c, 0, 48, 0
2,122533, Control_c, 0, 64, 75
2,122549, Control_c, 0, 64, 76
2,122565, Note_on_c, 0, 69, 0
2,122566, Note_on_c, 0, 72, 0
2,122596, Note_on_c, 0, 63, 0
2,122609, Control_c, 0, 64, 75
2,122625, Control_c, 0, 64, 74
2,122640, Control_c, 0, 64, 71
2,122654, Control_c, 0, 64, 67
2,122670, Control_c, 0, 64, 60
2,122685, Control_c, 0, 64, 48
2,122701, Control_c, 0, 64, 41
2,122716, Control_c, 0, 64, 34
2,122731, Control_c, 0, 64, 0
2,122841, Note_on_c, 0, 70, 90
2,122844, Note_on_c, 0, 62, 82
2,122847, Note_on_c, 0, 67, 82
2,122856, Note_on_c, 0, 50, 95
2,122901, Control_c, 0, 64, 46
2,122915, Control_c, 0, 64, 62
2,122930, Control_c, 0, 64, 64
2,122947, Control_c, 0, 64, 65
2,122962, Control_c, 0, 64, 67
2,122978, Control_c, 0, 64, 68
2,122993, Control_c, 0, 64, 70
2,123008, Control_c, 0, 64, 70
2,123038, Control_c, 0, 64, 71
2,123068, Control_c, 0, 64, 71
2,123083, Control_c, 0, 64, 72
2,123099, Control_c, 0, 64, 74
2,123114, Control_c, 0, 64, 75
2,123160, Control_c, 0, 64, 72
2,123176, Control_c, 0, 64, 65
2,123189, Note_on_c, 0, 69, 86
2,123191, Control_c, 0, 64, 0
2,123241, Note_on_c, 0, 67, 0
2,123244, Control_c, 0, 64, 58
2,123247, Note_on_c, 0, 70, 0
2,123260, Control_c, 0, 64, 66
2,123274, Control_c, 0, 64, 69
2,123289, Control_c, 0, 64, 72
2,123305, Control_c, 0, 64, 73
2,123315, Note_on_c, 0, 62, 0
2,123329, Note_on_c, 0, 69, 0
2,123336, Control_c, 0, 64, 74
2,123351, Control_c, 0, 64, 74
2,123365, Control_c, 0, 64, 75
2,123396, Control_c, 0, 64, 75
2,123410, Control_c, 0, 64, 76
2,123426, Control_c, 0, 64, 78
2,123441, Control_c, 0, 64, 78
2,123447, Note_on_c, 0, 50, 0
2,123472, Control_c, 0, 64, 76
2,123486, Control_c, 0, 64, 69
2,123502, Control_c, 0, 64, 39
2,123510, Note_on_c, 0, 69, 96
2,123517, Control_c, 0, 64, 0
2,123519, Note_on_c, 0, 38, 81
2,123519, Note_on_c, 0, 60, 78
2,123520, Note_on_c, 0, 66, 77
2,123562, Control_c, 0, 64, 63
2,123578, Control_c, 0, 64, 68
2,123593, Control_c, 0, 64, 71
2,123607, Control_c, 0, 64, 73
2,123623, Control_c, 0, 64, 73
2,123638, Control_c, 0, 64, 74
2,123654, Control_c, 0, 64, 74
2,123669, Control_c, 0, 64, 75
2,123715, Control_c, 0, 64, 75
2,123746, Control_c, 0, 64, 76
2,123803, Note_on_c, 0, 38, 0
2,123828, Note_on_c, 0, 67, 87
2,123837, Control_c, 0, 64, 76
2,123858, Note_on_c, 0, 66, 0
2,123862, Note_on_c, 0, 69, 0
2,123868, Control_c, 0, 64, 77
2,123936, Note_on_c, 0, 67, 0
2,123937, Note_on_c, 0, 60, 0
2,124027, Control_c, 0, 64, 77
2,124103, Control_c, 0, 64, 76
2,124118, Control_c, 0, 64, 72
2,124134, Control_c, 0, 64, 59
2,124137, Note_on_c, 0, 67, 90
2,124146, Note_on_c, 0, 58, 86
2,124148, Note_on_c, 0, 43, 75
2,124149, Control_c, 0, 64, 0
2,124151, Note_on_c, 0, 62, 78
2,124255, Control_c, 0, 64, 57
2,124270, Control_c, 0, 64, 68
2,124285, Control_c, 0, 64, 73
2,124296, Note_on_c, 0, 50, 64
2,124299, Note_on_c, 0, 43, 0
2,124301, Control_c, 0, 64, 79
2,124310, Note_on_c, 0, 58, 0
2,124316, Control_c, 0, 64, 84
2,124330, Control_c, 0, 64, 85
2,124346, Control_c, 0, 64, 86
2,124355, Note_on_c, 0, 62, 0
2,124377, Control_c, 0, 64, 86
2,124402, Note_on_c, 0, 50, 0
2,124406, Note_on_c, 0, 67, 0
2,124447, Note_on_c, 0, 52, 69
2,124577, Note_on_c, 0, 52, 0
2,124583, Note_on_c, 0, 54, 70
2,124621, Control_c, 0, 64, 86
2,124666, Control_c, 0, 64, 85
2,124695, Control_c, 0, 64, 85
2,124707, Note_on_c, 0, 54, 0
2,124710, Control_c, 0, 64, 84
2,124725, Control_c, 0, 64, 82
2,124733, Note_on_c, 0, 55, 73
2,124741, Control_c, 0, 64, 81
2,124763, Control_c, 0, 64, 79
2,124779, Control_c, 0, 64, 76
2,124794, Control_c, 0, 64, 72
2,124809, Control_c, 0, 64, 66
2,124825, Control_c, 0, 64, 52
2,124839, Control_c, 0, 64, 0
2,124869, Note_on_c, 0, 55, 0
2,124870, Note_on_c, 0, 69, 81
2,124876, Note_on_c, 0, 54, 65
2,125006, Note_on_c, 0, 54, 0
2,125016, Note_on_c, 0, 70, 78
2,125023, Note_on_c, 0, 55, 74
2,125029, Note_on_c, 0, 69, 0
2,125066, Note_on_c, 0, 55, 0
2,125151, Note_on_c, 0, 72, 76
2,125158, Note_on_c, 0, 70, 0
2,125294, Note_on_c, 0, 55, 90
2,125295, Note_on_c, 0, 74, 75
2,125341, Note_on_c, 0, 72, 0
2,125402, Note_on_c, 0, 74, 0
2,125437, Note_on_c, 0, 72, 77
2,125448, Note_on_c, 0, 57, 66
2,125586, Note_on_c, 0, 57, 0
2,125594, Note_on_c, 0, 74, 76
2,125595, Note_on_c, 0, 58, 72
2,125595, Note_on_c, 0, 72, 0
2,125728, Note_on_c, 0, 75, 78
2,125731, Note_on_c, 0, 58, 0
2,125733, Note_on_c, 0, 74, 0
2,125736, Note_on_c, 0, 60, 68
2,125769, Note_on_c, 0, 75, 0
2,125848, Note_on_c, 0, 60, 0
2,125864, Note_on_c, 0, 69, 94
2,125875, Note_on_c, 0, 62, 74
2,125979, Note_on_c, 0, 62, 0
2,126007, Note_on_c, 0, 61, 59
2,126010, Note_on_c, 0, 55, 0
2,126010, Note_on_c, 0, 64, 69
2,126138, Note_on_c, 0, 61, 0
2,126138, Note_on_c, 0, 62, 79
2,126143, Note_on_c, 0, 65, 78
2,126146, Note_on_c, 0, 53, 71
2,126156, Note_on_c, 0, 64, 0
2,126169, Control_c, 0, 64, 51
2,126179, Note_on_c, 0, 69, 0
2,126185, Control_c, 0, 64, 62
2,126200, Control_c, 0, 64, 64
2,126216, Control_c, 0, 64, 66
2,126231, Control_c, 0, 64, 67
2,126246, Control_c, 0, 64, 69
2,126262, Control_c, 0, 64, 72
2,126268, Note_on_c, 0, 53, 0
2,126277, Control_c, 0, 64, 76
2,126299, Control_c, 0, 64, 79
2,126300, Note_on_c, 0, 67, 81
2,126314, Control_c, 0, 64, 80
2,126339, Note_on_c, 0, 65, 0
2,126345, Control_c, 0, 64, 79
2,126360, Control_c, 0, 64, 76
2,126375, Control_c, 0, 64, 66
2,126390, Control_c, 0, 64, 32
2,126405, Control_c, 0, 64, 0
2,126405, Note_on_c, 0, 62, 0
2,126421, Control_c, 0, 64, 47
2,126433, Note_on_c, 0, 53, 86
2,126436, Control_c, 0, 64, 64
2,126441, Note_on_c, 0, 69, 80
2,126451, Control_c, 0, 64, 69
2,126467, Control_c, 0, 64, 74
2,126475, Note_on_c, 0, 67, 0
2,126482, Control_c, 0, 64, 75
2,126497, Note_on_c, 0, 69, 0
2,126580, Note_on_c, 0, 70, 79
2,126583, Note_on_c, 0, 67, 67
2,126619, Control_c, 0, 64, 75
2,126623, Note_on_c, 0, 67, 0
2,126634, Control_c, 0, 64, 74
2,126648, Control_c, 0, 64, 71
2,126662, Note_on_c, 0, 70, 0
2,126664, Control_c, 0, 64, 64
2,126679, Control_c, 0, 64, 27
2,126695, Control_c, 0, 64, 0
2,126721, Note_on_c, 0, 69, 84
2,126724, Note_on_c, 0, 72, 84
2,126727, Note_on_c, 0, 57, 71
2,126770, Control_c, 0, 64, 50
2,126785, Control_c, 0, 64, 57
2,126800, Control_c, 0, 64, 57
2,126801, Note_on_c, 0, 72, 0
2,126816, Control_c, 0, 64, 56
2,126846, Control_c, 0, 64, 54
2,126858, Note_on_c, 0, 74, 74
2,126861, Control_c, 0, 64, 50
2,126872, Note_on_c, 0, 59, 70
2,126876, Control_c, 0, 64, 36
2,126885, Note_on_c, 0, 57, 0
2,126891, Control_c, 0, 64, 0
2,126916, Note_on_c, 0, 74, 0
2,126996, Note_on_c, 0, 59, 0
2,127001, Note_on_c, 0, 75, 81
2,127008, Note_on_c, 0, 60, 71
2,127047, Note_on_c, 0, 69, 0
2,127136, Note_on_c, 0, 60, 0
2,127149, Note_on_c, 0, 74, 68
2,127152, Note_on_c, 0, 59, 64
2,127166, Note_on_c, 0, 75, 0
2,127216, Note_on_c, 0, 74, 0
2,127281, Control_c, 0, 64, 59
2,127284, Note_on_c, 0, 60, 76
2,127288, Note_on_c, 0, 59, 0
2,127291, Note_on_c, 0, 68, 76
2,127291, Note_on_c, 0, 75, 78
2,127296, Control_c, 0, 64, 63
2,127311, Control_c, 0, 64, 64
2,127326, Control_c, 0, 64, 65
2,127341, Control_c, 0, 64, 66
2,127353, Note_on_c, 0, 75, 0
2,127356, Control_c, 0, 64, 68
2,127359, Note_on_c, 0, 68, 0
2,127371, Control_c, 0, 64, 69
2,127387, Control_c, 0, 64, 70
2,127414, Note_on_c, 0, 53, 0
2,127418, Control_c, 0, 64, 71
2,127419, Note_on_c, 0, 60, 0
2,127430, Note_on_c, 0, 77, 82
2,127463, Control_c, 0, 64, 70
2,127472, Note_on_c, 0, 77, 0
2,127478, Control_c, 0, 64, 67
2,127494, Control_c, 0, 64, 63
2,127509, Control_c, 0, 64, 52
2,127524, Control_c, 0, 64, 29
2,127540, Control_c, 0, 64, 0
2,127570, Note_on_c, 0, 71, 72
2,127579, Note_on_c, 0, 62, 65
2,127580, Note_on_c, 0, 67, 67
2,127614, Note_on_c, 0, 62, 0
2,127619, Note_on_c, 0, 67, 0
2,127712, Note_on_c, 0, 71, 0
2,127719, Note_on_c, 0, 67, 75
2,127729, Note_on_c, 0, 47, 54
2,127855, Note_on_c, 0, 47, 0
2,127867, Note_on_c, 0, 69, 73
2,127873, Note_on_c, 0, 67, 0
2,127891, Note_on_c, 0, 48, 46
2,127974, Note_on_c, 0, 48, 0
2,128010, Note_on_c, 0, 50, 47
2,128013, Note_on_c, 0, 69, 0
2,128013, Note_on_c, 0, 71, 70
2,128106, Note_on_c, 0, 50, 0
2,128139, Note_on_c, 0, 51, 53
2,128155, Note_on_c, 0, 72, 79
2,128166, Note_on_c, 0, 71, 0
2,128259, Note_on_c, 0, 51, 0
2,128283, Note_on_c, 0, 50, 49
2,128294, Note_on_c, 0, 71, 71
2,128324, Note_on_c, 0, 72, 0
2,128420, Note_on_c, 0, 50, 0
2,128434, Note_on_c, 0, 71, 0
2,128438, Note_on_c, 0, 72, 81
2,128443, Control_c, 0, 64, 40
2,128451, Note_on_c, 0, 51, 26
2,128459, Control_c, 0, 64, 54
2,128473, Control_c, 0, 64, 59
2,128488, Control_c, 0, 64, 61
2,128504, Control_c, 0, 64, 63
2,128512, Note_on_c, 0, 51, 0
2,128518, Control_c, 0, 64, 64
2,128534, Control_c, 0, 64, 66
2,128549, Control_c, 0, 64, 68
2,128564, Control_c, 0, 64, 69
2,128571, Note_on_c, 0, 70, 79
2,128580, Control_c, 0, 64, 70
2,128594, Note_on_c, 0, 62, 61
2,128599, Note_on_c, 0, 72, 0
2,128602, Control_c, 0, 64, 71
2,128618, Control_c, 0, 64, 71
2,128633, Control_c, 0, 64, 72
2,128648, Control_c, 0, 64, 74
2,128654, Note_on_c, 0, 62, 0
2,128655, Note_on_c, 0, 70, 0
2,128664, Control_c, 0, 64, 75
2,128680, Control_c, 0, 64, 76
2,128710, Control_c, 0, 64, 75
2,128720, Note_on_c, 0, 72, 81
2,128725, Control_c, 0, 64, 72
2,128727, Note_on_c, 0, 69, 86
2,128728, Note_on_c, 0, 51, 59
2,128728, Note_on_c, 0, 60, 63
2,128741, Control_c, 0, 64, 66
2,128755, Control_c, 0, 64, 39
2,128770, Control_c, 0, 64, 0
2,128801, Control_c, 0, 64, 38
2,128817, Control_c, 0, 64, 61
2,128831, Control_c, 0, 64, 65
2,128833, Note_on_c, 0, 60, 0
2,128846, Control_c, 0, 64, 67
2,128862, Control_c, 0, 64, 69
2,128864, Note_on_c, 0, 67, 86
2,128873, Note_on_c, 0, 58, 66
2,128877, Control_c, 0, 64, 71
2,128877, Note_on_c, 0, 69, 0
2,128893, Control_c, 0, 64, 73
2,128898, Note_on_c, 0, 72, 0
2,128907, Control_c, 0, 64, 75
2,128922, Control_c, 0, 64, 78
2,128938, Control_c, 0, 64, 79
2,128960, Note_on_c, 0, 67, 0
2,128983, Control_c, 0, 64, 78
2,128992, Note_on_c, 0, 58, 0
2,128998, Control_c, 0, 64, 74
2,129004, Note_on_c, 0, 72, 88
2,129008, Note_on_c, 0, 69, 83
2,129014, Control_c, 0, 64, 64
2,129014, Note_on_c, 0, 60, 71
2,129029, Control_c, 0, 64, 0
2,129059, Control_c, 0, 64, 46
2,129074, Control_c, 0, 64, 62
2,129089, Control_c, 0, 64, 66
2,129105, Control_c, 0, 64, 69
2,129108, Note_on_c, 0, 72, 0
2,129120, Control_c, 0, 64, 71
2,129120, Note_on_c, 0, 60, 0
2,129136, Control_c, 0, 64, 71
2,129145, Note_on_c, 0, 67, 88
2,129151, Control_c, 0, 64, 72
2,129155, Note_on_c, 0, 58, 70
2,129159, Note_on_c, 0, 69, 0
2,129181, Control_c, 0, 64, 72
2,129194, Note_on_c, 0, 67, 0
2,129227, Control_c, 0, 64, 73
2,129287, Control_c, 0, 64, 72
2,129303, Control_c, 0, 64, 71
2,129317, Control_c, 0, 64, 67
2,129322, Note_on_c, 0, 66, 93
2,129323, Note_on_c, 0, 72, 94
2,129333, Control_c, 0, 64, 54
2,129335, Note_on_c, 0, 57, 77
2,129345, Note_on_c, 0, 58, 0
2,129348, Control_c, 0, 64, 0
2,129539, Control_c, 0, 64, 41
2,129554, Control_c, 0, 64, 55
2,129569, Control_c, 0, 64, 59
2,129585, Control_c, 0, 64, 61
2,129599, Control_c, 0, 64, 63
2,129615, Control_c, 0, 64, 66
2,129630, Control_c, 0, 64, 68
2,129645, Control_c, 0, 64, 70
2,129661, Control_c, 0, 64, 71
2,129675, Control_c, 0, 64, 72
2,129690, Control_c, 0, 64, 72
2,129706, Control_c, 0, 64, 73
2,129721, Control_c, 0, 64, 73
2,129737, Control_c, 0, 64, 74
2,129797, Control_c, 0, 64, 74
2,129884, Note_on_c, 0, 66, 0
2,129930, Note_on_c, 0, 72, 0
2,129990, Note_on_c, 0, 51, 0
2,130027, Note_on_c, 0, 57, 0
2,130117, Control_c, 0, 64, 73
2,130139, Control_c, 0, 64, 71
2,130154, Control_c, 0, 64, 67
2,130169, Control_c, 0, 64, 55
2,130185, Control_c, 0, 64, 0
2,130410, Note_on_c, 0, 78, 97
2,130417, Note_on_c, 0, 69, 94
2,130425, Note_on_c, 0, 60, 82
2,130426, Note_on_c, 0, 51, 76
2,130444, Control_c, 0, 64, 56
2,130460, Control_c, 0, 64, 64
2,130475, Control_c, 0, 64, 67
2,130478, Note_on_c, 0, 77, 67
2,130489, Control_c, 0, 64, 69
2,130505, Control_c, 0, 64, 71
2,130520, Control_c, 0, 64, 73
2,130536, Control_c, 0, 64, 75
2,130548, Note_on_c, 0, 78, 0
2,130551, Control_c, 0, 64, 76
2,130565, Control_c, 0, 64, 77
2,130566, Note_on_c, 0, 77, 0
2,130587, Note_on_c, 0, 51, 0
2,130597, Note_on_c, 0, 69, 0
2,130611, Control_c, 0, 64, 77
2,130613, Note_on_c, 0, 60, 0
2,130642, Control_c, 0, 64, 78
2,130657, Control_c, 0, 64, 78
2,130824, Control_c, 0, 64, 77
2,130839, Control_c, 0, 64, 72
2,130850, Note_on_c, 0, 79, 95
2,130854, Control_c, 0, 64, 60
2,130854, Note_on_c, 0, 70, 100
2,130859, Note_on_c, 0, 62, 92
2,130865, Note_on_c, 0, 50, 82
2,130869, Control_c, 0, 64, 0
2,131059, Control_c, 0, 64, 43
2,131074, Control_c, 0, 64, 60
2,131089, Control_c, 0, 64, 66
2,131105, Control_c, 0, 64, 70
2,131120, Control_c, 0, 64, 73
2,131137, Control_c, 0, 64, 76
2,131152, Control_c, 0, 64, 77
2,131166, Control_c, 0, 64, 78
2,131182, Control_c, 0, 64, 79
2,131197, Control_c, 0, 64, 79
2,131211, Control_c, 0, 64, 80
2,131227, Control_c, 0, 64, 80
2,131227, Note_on_c, 0, 70, 0
2,131273, Control_c, 0, 64, 81
2,131388, Note_on_c, 0, 62, 0
2,131483, Note_on_c, 0, 50, 0
2,131542, Note_on_c, 0, 79, 0
2,131736, Control_c, 0, 64, 80
2,131766, Control_c, 0, 64, 79
2,131781, Control_c, 0, 64, 79
2,131796, Control_c, 0, 64, 78
2,131811, Control_c, 0, 64, 77
2,131826, Control_c, 0, 64, 75
2,131841, Control_c, 0, 64, 71
2,131857, Control_c, 0, 64, 64
2,131872, Control_c, 0, 64, 18
2,131887, Control_c, 0, 64, 0
2,131939, Note_on_c, 0, 82, 94
2,132108, Note_on_c, 0, 49, 92
2,132112, Note_on_c, 0, 81, 95
2,132131, Control_c, 0, 64, 65
2,132147, Control_c, 0, 64, 83
2,132148, Note_on_c, 0, 82, 0
2,132162, Control_c, 0, 64, 90
2,132178, Control_c, 0, 64, 90
2,132187, Note_on_c, 0, 49, 0
2,132269, Note_on_c, 0, 81, 0
2,132282, Note_on_c, 0, 79, 83
2,132328, Control_c, 0, 64, 91
2,132344, Control_c, 0, 64, 91
2,132359, Control_c, 0, 64, 92
2,132368, Note_on_c, 0, 79, 0
2,132375, Control_c, 0, 64, 92
2,132420, Control_c, 0, 64, 89
2,132428, Note_on_c, 0, 50, 95
2,132440, Note_on_c, 0, 78, 96
2,132443, Control_c, 0, 64, 80
2,132459, Control_c, 0, 64, 60
2,132473, Control_c, 0, 64, 0
2,132504, Control_c, 0, 64, 51
2,132519, Control_c, 0, 64, 68
2,132524, Note_on_c, 0, 77, 6
2,132535, Control_c, 0, 64, 75
2,132549, Control_c, 0, 64, 80
2,132576, Note_on_c, 0, 77, 0
2,132587, Note_on_c, 0, 78, 0
2,132600, Note_on_c, 0, 76, 70
2,132609, Note_on_c, 0, 50, 0
2,132615, Note_on_c, 0, 57, 70
2,132701, Control_c, 0, 64, 79
2,132730, Note_on_c, 0, 57, 0
2,132749, Note_on_c, 0, 74, 79
2,132750, Note_on_c, 0, 58, 63
2,132761, Control_c, 0, 64, 79
2,132767, Note_on_c, 0, 76, 0
2,132824, Control_c, 0, 64, 78
2,132862, Note_on_c, 0, 58, 0
2,132865, Note_on_c, 0, 74, 0
2,132887, Note_on_c, 0, 72, 78
2,132893, Note_on_c, 0, 60, 72
2,132899, Control_c, 0, 64, 78
2,132914, Control_c, 0, 64, 77
2,132929, Control_c, 0, 64, 76
2,132945, Control_c, 0, 64, 73
2,132947, Note_on_c, 0, 60, 0
2,132960, Control_c, 0, 64, 67
2,132976, Control_c, 0, 64, 55
2,132991, Control_c, 0, 64, 0
2,133027, Note_on_c, 0, 70, 80
2,133031, Note_on_c, 0, 62, 79
2,133041, Note_on_c, 0, 72, 0
2,133067, Note_on_c, 0, 62, 0
2,133168, Note_on_c, 0, 46, 80
2,133171, Note_on_c, 0, 69, 84
2,133210, Note_on_c, 0, 70, 0
2,133266, Note_on_c, 0, 46, 0
2,133296, Note_on_c, 0, 69, 0
2,133309, Note_on_c, 0, 48, 71
2,133322, Note_on_c, 0, 67, 85
2,133388, Note_on_c, 0, 48, 0
2,133400, Note_on_c, 0, 67, 0
2,133443, Note_on_c, 0, 50, 71
2,133456, Note_on_c, 0, 66, 79
2,133477, Note_on_c, 0, 50, 0
2,133504, Note_on_c, 0, 66, 0
2,133515, Control_c, 0, 64, 17
2,133530, Control_c, 0, 64, 13
2,133546, Control_c, 0, 64, 0
2,133586, Note_on_c, 0, 67, 94
2,133593, Note_on_c, 0, 51, 85
2,133734, Note_on_c, 0, 55, 62
2,133744, Control_c, 0, 64, 44
2,133748, Note_on_c, 0, 59, 64
2,133759, Control_c, 0, 64, 54
2,133775, Control_c, 0, 64, 58
2,133790, Control_c, 0, 64, 62
2,133805, Control_c, 0, 64, 64
2,133820, Control_c, 0, 64, 66
2,133835, Control_c, 0, 64, 68
2,133850, Control_c, 0, 64, 69
2,133858, Note_on_c, 0, 55, 0
2,133866, Control_c, 0, 64, 70
2,133869, Note_on_c, 0, 51, 0
2,133877, Note_on_c, 0, 59, 0
2,133880, Control_c, 0, 64, 71
2,133880, Note_on_c, 0, 57, 64
2,133882, Note_on_c, 0, 60, 64
2,133896, Control_c, 0, 64, 72
2,133909, Control_c, 0, 64, 73
2,133924, Control_c, 0, 64, 74
2,133940, Control_c, 0, 64, 74
2,133951, Note_on_c, 0, 57, 0
2,134025, Note_on_c, 0, 60, 0
2,134028, Note_on_c, 0, 62, 73
2,134042, Note_on_c, 0, 59, 54
2,134088, Note_on_c, 0, 62, 0
2,134114, Control_c, 0, 64, 73
2,134129, Control_c, 0, 64, 70
2,134138, Note_on_c, 0, 59, 0
2,134145, Control_c, 0, 64, 64
2,134160, Control_c, 0, 64, 36
2,134162, Note_on_c, 0, 48, 99
2,134174, Control_c, 0, 64, 0
2,134174, Note_on_c, 0, 63, 75
2,134181, Note_on_c, 0, 60, 67
2,134291, Note_on_c, 0, 63, 0
2,134307, Note_on_c, 0, 60, 0
2,134310, Note_on_c, 0, 62, 69
2,134315, Note_on_c, 0, 59, 55
2,134361, Note_on_c, 0, 62, 0
2,134451, Note_on_c, 0, 59, 0
2,134479, Note_on_c, 0, 63, 61
2,134481, Note_on_c, 0, 60, 50
2,134575, Note_on_c, 0, 60, 0
2,134579, Note_on_c, 0, 63, 0
2,134749, Note_on_c, 0, 48, 0
2,134795, Note_on_c, 0, 63, 72
2,134801, Note_on_c, 0, 60, 64
2,134913, Note_on_c, 0, 45, 79
2,134965, Note_on_c, 0, 45, 0
2,135053, Note_on_c, 0, 47, 84
2,135099, Note_on_c, 0, 47, 0
2,135184, Note_on_c, 0, 48, 85
2,135227, Note_on_c, 0, 48, 0
2,135234, Note_on_c, 0, 60, 0
2,135331, Note_on_c, 0, 50, 90
2,135382, Control_c, 0, 64, 38
2,135398, Control_c, 0, 64, 57
2,135413, Control_c, 0, 64, 62
2,135428, Control_c, 0, 64, 64
2,135443, Control_c, 0, 64, 65
2,135458, Control_c, 0, 64, 65
2,135474, Control_c, 0, 64, 66
2,135488, Control_c, 0, 64, 66
2,135512, Control_c, 0, 64, 67
2,135519, Note_on_c, 0, 60, 65
2,135521, Note_on_c, 0, 57, 55
2,135521, Note_on_c, 0, 63, 0
2,135527, Control_c, 0, 64, 68
2,135542, Control_c, 0, 64, 69
2,135558, Control_c, 0, 64, 71
2,135572, Control_c, 0, 64, 71
2,135588, Control_c, 0, 64, 72
2,135603, Control_c, 0, 64, 73
2,135618, Control_c, 0, 64, 73
2,135634, Control_c, 0, 64, 74
2,135640, Note_on_c, 0, 57, 0
2,135658, Note_on_c, 0, 60, 0
2,135659, Note_on_c, 0, 59, 61
2,135664, Note_on_c, 0, 62, 70
2,135693, Control_c, 0, 64, 74
2,135703, Note_on_c, 0, 59, 0
2,135726, Note_on_c, 0, 50, 0
2,135805, Note_on_c, 0, 62, 0
2,135811, Note_on_c, 0, 63, 62
2,135812, Note_on_c, 0, 60, 57
2,135845, Control_c, 0, 64, 75
2,135863, Note_on_c, 0, 63, 0
2,135891, Control_c, 0, 64, 74
2,135907, Control_c, 0, 64, 73
2,135922, Control_c, 0, 64, 69
2,135931, Note_on_c, 0, 47, 91
2,135936, Control_c, 0, 64, 62
2,135939, Note_on_c, 0, 60, 0
2,135944, Note_on_c, 0, 62, 72
2,135944, Note_on_c, 0, 65, 73
2,135952, Control_c, 0, 64, 21
2,135967, Control_c, 0, 64, 0
2,136035, Note_on_c, 0, 65, 0
2,136084, Note_on_c, 0, 62, 0
2,136086, Note_on_c, 0, 60, 57
2,136091, Note_on_c, 0, 63, 67
2,136157, Note_on_c, 0, 63, 0
2,136193, Note_on_c, 0, 60, 0
2,136230, Note_on_c, 0, 62, 59
2,136237, Note_on_c, 0, 65, 63
2,136320, Note_on_c, 0, 65, 0
2,136325, Note_on_c, 0, 62, 0
2,136536, Note_on_c, 0, 47, 0
2,136559, Note_on_c, 0, 65, 73
2,136561, Note_on_c, 0, 62, 70
2,136686, Note_on_c, 0, 43, 82
2,136740, Note_on_c, 0, 43, 0
2,136830, Note_on_c, 0, 45, 83
2,136874, Note_on_c, 0, 45, 0
2,136969, Note_on_c, 0, 47, 89
2,137017, Note_on_c, 0, 47, 0
2,137105, Note_on_c, 0, 62, 0
2,137134, Note_on_c, 0, 48, 100
2,137144, Note_on_c, 0, 67, 0
2,137151, Note_on_c, 0, 65, 0
2,137171, Control_c, 0, 64, 54
2,137187, Control_c, 0, 64, 64
2,137202, Control_c, 0, 64, 68
2,137216, Control_c, 0, 64, 72
2,137232, Control_c, 0, 64, 76
2,137247, Control_c, 0, 64, 78
2,137263, Control_c, 0, 64, 79
2,137278, Control_c, 0, 64, 79
2,137308, Control_c, 0, 64, 80
2,137323, Control_c, 0, 64, 81
2,137338, Control_c, 0, 64, 81
2,137348, Note_on_c, 0, 48, 0
2,137384, Control_c, 0, 64, 81
2,137399, Control_c, 0, 64, 79
2,137414, Control_c, 0, 64, 73
2,137430, Control_c, 0, 64, 63
2,137435, Note_on_c, 0, 68, 83
2,137437, Note_on_c, 0, 65, 78
2,137445, Control_c, 0, 64, 0
2,137446, Note_on_c, 0, 48, 91
2,137520, Control_c, 0, 64, 42
2,137535, Control_c, 0, 64, 62
2,137547, Note_on_c, 0, 65, 0
2,137551, Control_c, 0, 64, 65
2,137566, Control_c, 0, 64, 67
2,137571, Note_on_c, 0, 68, 0
2,137581, Control_c, 0, 64, 70
2,137588, Note_on_c, 0, 74, 85
2,137596, Control_c, 0, 64, 74
2,137611, Control_c, 0, 64, 79
2,137622, Note_on_c, 0, 48, 0
2,137627, Control_c, 0, 64, 81
2,137642, Control_c, 0, 64, 82
2,137673, Control_c, 0, 64, 82
2,137688, Control_c, 0, 64, 79
2,137704, Control_c, 0, 64, 71
2,137719, Control_c, 0, 64, 47
2,137727, Note_on_c, 0, 48, 93
2,137734, Control_c, 0, 64, 0
2,137738, Note_on_c, 0, 67, 75
2,137741, Note_on_c, 0, 63, 80
2,137767, Note_on_c, 0, 74, 0
2,137806, Note_on_c, 0, 67, 0
2,137816, Control_c, 0, 64, 60
2,137832, Control_c, 0, 64, 65
2,137847, Control_c, 0, 64, 67
2,137853, Note_on_c, 0, 63, 0
2,137863, Control_c, 0, 64, 68
2,137878, Control_c, 0, 64, 71
2,137892, Control_c, 0, 64, 75
2,137892, Note_on_c, 0, 72, 84
2,137908, Control_c, 0, 64, 78
2,137923, Control_c, 0, 64, 80
2,137937, Note_on_c, 0, 48, 0
2,137938, Control_c, 0, 64, 81
2,137985, Control_c, 0, 64, 81
2,138000, Control_c, 0, 64, 78
2,138014, Control_c, 0, 64, 70
2,138017, Note_on_c, 0, 72, 0
2,138027, Note_on_c, 0, 48, 96
2,138030, Control_c, 0, 64, 32
2,138033, Note_on_c, 0, 62, 77
2,138033, Note_on_c, 0, 65, 75
2,138045, Control_c, 0, 64, 0
2,138121, Control_c, 0, 64, 57
2,138136, Control_c, 0, 64, 65
2,138149, Note_on_c, 0, 62, 0
2,138151, Control_c, 0, 64, 66
2,138166, Control_c, 0, 64, 68
2,138182, Control_c, 0, 64, 70
2,138183, Note_on_c, 0, 70, 85
2,138197, Control_c, 0, 64, 74
2,138202, Note_on_c, 0, 65, 0
2,138212, Control_c, 0, 64, 78
2,138221, Note_on_c, 0, 48, 0
2,138227, Control_c, 0, 64, 81
2,138242, Control_c, 0, 64, 83
2,138257, Control_c, 0, 64, 84
2,138288, Control_c, 0, 64, 83
2,138303, Control_c, 0, 64, 80
2,138318, Control_c, 0, 64, 72
2,138326, Note_on_c, 0, 48, 95
2,138329, Note_on_c, 0, 70, 0
2,138332, Note_on_c, 0, 60, 74
2,138333, Control_c, 0, 64, 35
2,138336, Note_on_c, 0, 63, 78
2,138348, Control_c, 0, 64, 0
2,138425, Control_c, 0, 64, 59
2,138437, Note_on_c, 0, 60, 0
2,138440, Control_c, 0, 64, 65
2,138455, Control_c, 0, 64, 66
2,138471, Control_c, 0, 64, 68
2,138486, Control_c, 0, 64, 70
2,138486, Note_on_c, 0, 69, 82
2,138502, Control_c, 0, 64, 74
2,138503, Note_on_c, 0, 63, 0
2,138516, Control_c, 0, 64, 76
2,138529, Note_on_c, 0, 48, 0
2,138531, Control_c, 0, 64, 79
2,138547, Control_c, 0, 64, 80
2,138584, Control_c, 0, 64, 80
2,138599, Control_c, 0, 64, 75
2,138614, Control_c, 0, 64, 63
2,138630, Control_c, 0, 64, 0
2,138632, Note_on_c, 0, 48, 93
2,138641, Note_on_c, 0, 63, 76
2,138650, Note_on_c, 0, 58, 68
2,138656, Note_on_c, 0, 69, 0
2,138706, Control_c, 0, 64, 57
2,138721, Control_c, 0, 64, 66
2,138736, Control_c, 0, 64, 70
2,138752, Control_c, 0, 64, 72
2,138761, Note_on_c, 0, 58, 0
2,138767, Control_c, 0, 64, 73
2,138782, Control_c, 0, 64, 74
2,138786, Note_on_c, 0, 48, 0
2,138791, Note_on_c, 0, 67, 78
2,138797, Control_c, 0, 64, 75
2,138797, Note_on_c, 0, 63, 0
2,138812, Control_c, 0, 64, 75
2,138828, Control_c, 0, 64, 76
2,138843, Control_c, 0, 64, 77
2,138888, Control_c, 0, 64, 76
2,138904, Control_c, 0, 64, 72
2,138919, Control_c, 0, 64, 63
2,138933, Control_c, 0, 64, 0
2,138956, Note_on_c, 0, 48, 94
2,138962, Note_on_c, 0, 66, 80
2,138968, Note_on_c, 0, 57, 71
2,138969, Note_on_c, 0, 62, 70
2,138994, Note_on_c, 0, 67, 0
2,139018, Note_on_c, 0, 57, 0
2,139040, Control_c, 0, 64, 55
2,139055, Control_c, 0, 64, 64
2,139070, Control_c, 0, 64, 66
2,139085, Control_c, 0, 64, 67
2,139098, Note_on_c, 0, 62, 0
2,139101, Control_c, 0, 64, 68
2,139116, Control_c, 0, 64, 70
2,139130, Control_c, 0, 64, 72
2,139146, Control_c, 0, 64, 72
2,139149, Note_on_c, 0, 66, 0
2,139253, Control_c, 0, 64, 72
2,139268, Control_c, 0, 64, 71
2,139283, Control_c, 0, 64, 69
2,139298, Control_c, 0, 64, 65
2,139311, Note_on_c, 0, 46, 80
2,139314, Control_c, 0, 64, 57
2,139320, Note_on_c, 0, 72, 92
2,139329, Control_c, 0, 64, 38
2,139349, Note_on_c, 0, 48, 0
2,139353, Control_c, 0, 64, 0
2,139525, Note_on_c, 0, 45, 69
2,139525, Note_on_c, 0, 46, 0
2,139526, Note_on_c, 0, 74, 80
2,139539, Note_on_c, 0, 72, 0
2,139608, Note_on_c, 0, 45, 0
2,139608, Note_on_c, 0, 75, 82
2,139611, Note_on_c, 0, 74, 0
2,139649, Note_on_c, 0, 75, 0
2,139689, Note_on_c, 0, 74, 96
2,139697, Note_on_c, 0, 46, 83
2,139793, Control_c, 0, 64, 10
2,139808, Control_c, 0, 64, 68
2,139824, Control_c, 0, 64, 72
2,139838, Control_c, 0, 64, 75
2,139842, Note_on_c, 0, 74, 0
2,139849, Note_on_c, 0, 46, 0
2,139853, Control_c, 0, 64, 76
2,139869, Control_c, 0, 64, 77
2,139884, Control_c, 0, 64, 80
2,139899, Control_c, 0, 64, 81
2,139914, Control_c, 0, 64, 82
2,140036, Control_c, 0, 64, 81
2,140051, Control_c, 0, 64, 79
2,140067, Control_c, 0, 64, 75
2,140082, Control_c, 0, 64, 68
2,140097, Control_c, 0, 64, 0
2,140167, Note_on_c, 0, 67, 86
2,140168, Note_on_c, 0, 48, 94
2,140172, Note_on_c, 0, 58, 96
2,140173, Note_on_c, 0, 63, 81
2,140319, Control_c, 0, 64, 43
2,140334, Control_c, 0, 64, 62
2,140349, Control_c, 0, 64, 64
2,140364, Control_c, 0, 64, 66
2,140379, Control_c, 0, 64, 67
2,140386, Note_on_c, 0, 63, 0
2,140394, Note_on_c, 0, 48, 0
2,140395, Control_c, 0, 64, 69
2,140409, Control_c, 0, 64, 70
2,140425, Control_c, 0, 64, 71
2,140440, Control_c, 0, 64, 71
2,140455, Control_c, 0, 64, 72
2,140471, Control_c, 0, 64, 73
2,140479, Note_on_c, 0, 58, 0
2,140485, Control_c, 0, 64, 73
2,140501, Control_c, 0, 64, 74
2,140516, Control_c, 0, 64, 75
2,140531, Control_c, 0, 64, 75
2,140562, Control_c, 0, 64, 76
2,140607, Control_c, 0, 64, 76
2,140623, Control_c, 0, 64, 77
2,140638, Control_c, 0, 64, 78
2,140653, Control_c, 0, 64, 79
2,140683, Control_c, 0, 64, 78
2,140698, Control_c, 0, 64, 74
2,140713, Note_on_c, 0, 62, 89
2,140714, Control_c, 0, 64, 65
2,140714, Note_on_c, 0, 57, 83
2,140727, Note_on_c, 0, 50, 96
2,140729, Control_c, 0, 64, 0
2,140835, Control_c, 0, 64, 41
2,140850, Control_c, 0, 64, 57
2,140866, Control_c, 0, 64, 61
2,140888, Control_c, 0, 64, 63
2,140904, Control_c, 0, 64, 65
2,140919, Control_c, 0, 64, 66
2,140934, Control_c, 0, 64, 69
2,140950, Control_c, 0, 64, 71
2,140965, Control_c, 0, 64, 73
2,140981, Control_c, 0, 64, 75
2,140996, Control_c, 0, 64, 76
2,141027, Control_c, 0, 64, 76
2,141045, Note_on_c, 0, 58, 89
2,141069, Note_on_c, 0, 57, 0
2,141072, Control_c, 0, 64, 77
2,141089, Note_on_c, 0, 62, 0
2,141183, Note_on_c, 0, 50, 0
2,141230, Note_on_c, 0, 58, 0
2,141329, Control_c, 0, 64, 77
2,141405, Control_c, 0, 64, 76
2,141421, Control_c, 0, 64, 71
2,141429, Note_on_c, 0, 66, 95
2,141436, Control_c, 0, 64, 59
2,141436, Note_on_c, 0, 60, 85
2,141446, Note_on_c, 0, 38, 86
2,141451, Control_c, 0, 64, 0
2,141463, Note_on_c, 0, 67, 0
2,141603, Control_c, 0, 64, 21
2,141618, Control_c, 0, 64, 48
2,141634, Control_c, 0, 64, 57
2,141656, Control_c, 0, 64, 62
2,141672, Control_c, 0, 64, 65
2,141687, Control_c, 0, 64, 67
2,141702, Control_c, 0, 64, 69
2,141717, Control_c, 0, 64, 72
2,141732, Control_c, 0, 64, 74
2,141748, Control_c, 0, 64, 76
2,141763, Control_c, 0, 64, 77
2,141778, Control_c, 0, 64, 78
2,141794, Control_c, 0, 64, 78
2,141822, Note_on_c, 0, 38, 0
2,141825, Control_c, 0, 64, 79
2,141840, Control_c, 0, 64, 79
2,142312, Note_on_c, 0, 66, 0
2,142354, Control_c, 0, 64, 78
2,142367, Note_on_c, 0, 67, 92
2,142368, Control_c, 0, 64, 75
2,142372, Note_on_c, 0, 43, 94
2,142374, Note_on_c, 0, 62, 83
2,142383, Control_c, 0, 64, 67
2,142397, Control_c, 0, 64, 44
2,142417, Control_c, 0, 64, 0
2,143551, Note_on_c, 0, 59, 70
2,143568, Note_on_c, 0, 60, 0
2,144265, Control_c, 0, 64, 10
2,144280, Control_c, 0, 64, 15
2,144295, Control_c, 0, 64, 18
2,144311, Control_c, 0, 64, 20
2,144432, Control_c, 0, 64, 23
2,144447, Control_c, 0, 64, 25
2,144462, Control_c, 0, 64, 26
2,144538, Control_c, 0, 64, 27
2,144599, Control_c, 0, 64, 28
2,144630, Control_c, 0, 64, 29
2,144645, Control_c, 0, 64, 29
2,144659, Control_c, 0, 64, 31
2,144675, Control_c, 0, 64, 32
2,144714, Control_c, 0, 64, 32
2,144743, Control_c, 0, 64, 33
2,144759, Control_c, 0, 64, 34
2,144774, Control_c, 0, 64, 34
2,144850, Control_c, 0, 64, 35
2,144895, Control_c, 0, 64, 36
2,144911, Control_c, 0, 64, 37
2,144940, Control_c, 0, 64, 37
2,144971, Control_c, 0, 64, 38
2,145048, Control_c, 0, 64, 38
2,145079, Control_c, 0, 64, 39
2,145139, Control_c, 0, 64, 39
2,145155, Control_c, 0, 64, 40
2,145231, Control_c, 0, 64, 40
2,145245, Control_c, 0, 64, 39
2,145416, Note_on_c, 0, 62, 0
2,145427, Note_on_c, 0, 43, 0
2,145440, Note_on_c, 0, 59, 0
2,145459, Note_on_c, 0, 67, 0
2,145512, Control_c, 0, 64, 39
2,145968, Control_c, 0, 64, 39
2,145969, End_track
0, 0, End_of_file
