0, 0, Header, 1, 2, 384
1, 0, Start_track
1, 0, Tempo, 500000
1, 0, Time_signature, 4, 2, 24, 8
1, 1, End_track
2, 0, Start_track
2, 0, Title_t, "Huang04-07.MID"
2, 0, Program_c, 0, 0
2, 0, Control_c, 0, 64, 0
2, 806, Note_on_c, 0, 43, 99
2, 1428, Note_on_c, 0, 67, 88
2, 1519, Note_on_c, 0, 67, 0
2, 1527, Note_on_c, 0, 62, 89
2, 1658, Control_c, 0, 64, 13
2, 1674, Control_c, 0, 64, 33
2, 1689, Control_c, 0, 64, 42
2, 1705, Control_c, 0, 64, 50
2, 1720, Control_c, 0, 64, 55
2, 1735, Control_c, 0, 64, 60
2, 1750, Control_c, 0, 64, 63
2, 1765, Control_c, 0, 64, 65
2, 1780, Control_c, 0, 64, 67
2, 1796, Control_c, 0, 64, 70
2, 1811, Control_c, 0, 64, 74
2, 1826, Control_c, 0, 64, 77
2, 1841, Control_c, 0, 64, 79
2, 1856, Control_c, 0, 64, 81
2, 1872, Control_c, 0, 64, 83
2, 1886, Control_c, 0, 64, 84
2, 1901, Control_c, 0, 64, 84
2, 1917, Control_c, 0, 64, 85
2, 1932, Control_c, 0, 64, 85
2, 1964, Control_c, 0, 64, 86
2, 2065, Note_on_c, 0, 65, 80
2, 2075, Note_on_c, 0, 62, 0
2, 2116, Control_c, 0, 64, 84
2, 2138, Control_c, 0, 64, 81
2, 2154, Control_c, 0, 64, 76
2, 2169, Control_c, 0, 64, 69
2, 2177, Note_on_c, 0, 63, 81
2, 2178, Note_on_c, 0, 65, 0
2, 2185, Control_c, 0, 64, 58
2, 2199, Control_c, 0, 64, 0
2, 2728, Note_on_c, 0, 58, 67
2, 2820, Note_on_c, 0, 58, 0
2, 2833, Note_on_c, 0, 57, 63
2, 3043, Control_c, 0, 64, 41
2, 3058, Control_c, 0, 64, 54
2, 3074, Control_c, 0, 64, 59
2, 3089, Control_c, 0, 64, 62
2, 3105, Control_c, 0, 64, 64
2, 3119, Control_c, 0, 64, 67
2, 3134, Control_c, 0, 64, 70
2, 3150, Control_c, 0, 64, 73
2, 3164, Control_c, 0, 64, 75
2, 3179, Control_c, 0, 64, 76
2, 3195, Control_c, 0, 64, 77
2, 3210, Control_c, 0, 64, 78
2, 3226, Control_c, 0, 64, 79
2, 3255, Control_c, 0, 64, 79
2, 3387, Note_on_c, 0, 60, 70
2, 3394, Note_on_c, 0, 57, 0
2, 3461, Note_on_c, 0, 60, 0
2, 3484, Control_c, 0, 64, 79
2, 3484, Note_on_c, 0, 54, 80
2, 3498, Note_on_c, 0, 63, 0
2, 3499, Control_c, 0, 64, 77
2, 3514, Control_c, 0, 64, 73
2, 3529, Control_c, 0, 64, 66
2, 3545, Control_c, 0, 64, 47
2, 3560, Control_c, 0, 64, 0
2, 3621, Control_c, 0, 64, 10
2, 3637, Control_c, 0, 64, 52
2, 3652, Control_c, 0, 64, 60
2, 3674, Control_c, 0, 64, 62
2, 3689, Control_c, 0, 64, 64
2, 3705, Control_c, 0, 64, 66
2, 3720, Control_c, 0, 64, 68
2, 3735, Control_c, 0, 64, 71
2, 3750, Control_c, 0, 64, 74
2, 3765, Control_c, 0, 64, 77
2, 3780, Control_c, 0, 64, 79
2, 3796, Control_c, 0, 64, 80
2, 3811, Control_c, 0, 64, 81
2, 3827, Control_c, 0, 64, 81
2, 3842, Control_c, 0, 64, 82
2, 3873, Control_c, 0, 64, 82
2, 3887, Control_c, 0, 64, 83
2, 3918, Control_c, 0, 64, 83
2, 3979, Note_on_c, 0, 63, 62
2, 4011, Note_on_c, 0, 63, 0
2, 4030, Note_on_c, 0, 62, 65
2, 4066, Note_on_c, 0, 62, 0
2, 4083, Note_on_c, 0, 63, 74
2, 4084, Control_c, 0, 64, 82
2, 4099, Control_c, 0, 64, 79
2, 4115, Control_c, 0, 64, 74
2, 4129, Control_c, 0, 64, 66
2, 4141, Note_on_c, 0, 62, 81
2, 4145, Control_c, 0, 64, 39
2, 4157, Note_on_c, 0, 63, 0
2, 4160, Control_c, 0, 64, 0
2, 4297, Control_c, 0, 64, 24
2, 4313, Control_c, 0, 64, 55
2, 4328, Control_c, 0, 64, 61
2, 4343, Control_c, 0, 64, 64
2, 4358, Control_c, 0, 64, 66
2, 4373, Control_c, 0, 64, 67
2, 4389, Control_c, 0, 64, 70
2, 4404, Control_c, 0, 64, 73
2, 4419, Control_c, 0, 64, 76
2, 4442, Control_c, 0, 64, 79
2, 4457, Control_c, 0, 64, 80
2, 4473, Control_c, 0, 64, 81
2, 4488, Control_c, 0, 64, 82
2, 4504, Control_c, 0, 64, 82
2, 4533, Control_c, 0, 64, 83
2, 4609, Control_c, 0, 64, 83
2, 4691, Note_on_c, 0, 60, 77
2, 4696, Note_on_c, 0, 62, 0
2, 4762, Control_c, 0, 64, 83
2, 4762, Note_on_c, 0, 60, 0
2, 4776, Control_c, 0, 64, 81
2, 4792, Control_c, 0, 64, 78
2, 4799, Note_on_c, 0, 69, 84
2, 4807, Control_c, 0, 64, 72
2, 4823, Control_c, 0, 64, 63
2, 4838, Control_c, 0, 64, 0
2, 4959, Control_c, 0, 64, 20
2, 4974, Control_c, 0, 64, 55
2, 4989, Control_c, 0, 64, 62
2, 5004, Control_c, 0, 64, 65
2, 5019, Control_c, 0, 64, 68
2, 5035, Control_c, 0, 64, 71
2, 5050, Control_c, 0, 64, 75
2, 5065, Control_c, 0, 64, 79
2, 5080, Control_c, 0, 64, 81
2, 5095, Control_c, 0, 64, 83
2, 5111, Control_c, 0, 64, 85
2, 5126, Control_c, 0, 64, 87
2, 5141, Control_c, 0, 64, 88
2, 5157, Control_c, 0, 64, 89
2, 5172, Control_c, 0, 64, 90
2, 5187, Control_c, 0, 64, 91
2, 5202, Control_c, 0, 64, 91
2, 5226, Control_c, 0, 64, 92
2, 5257, Control_c, 0, 64, 92
2, 5291, Note_on_c, 0, 69, 0
2, 5303, Control_c, 0, 64, 93
2, 5306, Note_on_c, 0, 60, 68
2, 5364, Note_on_c, 0, 60, 0
2, 5414, Note_on_c, 0, 58, 73
2, 5424, Control_c, 0, 64, 92
2, 5439, Control_c, 0, 64, 91
2, 5453, Note_on_c, 0, 58, 0
2, 5454, Control_c, 0, 64, 88
2, 5465, Note_on_c, 0, 60, 76
2, 5470, Control_c, 0, 64, 81
2, 5485, Control_c, 0, 64, 71
2, 5499, Control_c, 0, 64, 46
2, 5515, Control_c, 0, 64, 0
2, 5521, Note_on_c, 0, 58, 81
2, 5523, Note_on_c, 0, 60, 0
2, 5606, Control_c, 0, 64, 24
2, 5621, Control_c, 0, 64, 55
2, 5636, Control_c, 0, 64, 61
2, 5651, Control_c, 0, 64, 64
2, 5660, Note_on_c, 0, 43, 0
2, 5667, Control_c, 0, 64, 67
2, 5682, Control_c, 0, 64, 70
2, 5697, Control_c, 0, 64, 74
2, 5707, Note_on_c, 0, 54, 0
2, 5713, Control_c, 0, 64, 78
2, 5728, Control_c, 0, 64, 81
2, 5744, Control_c, 0, 64, 82
2, 5759, Control_c, 0, 64, 83
2, 5773, Control_c, 0, 64, 84
2, 5789, Control_c, 0, 64, 84
2, 5804, Control_c, 0, 64, 85
2, 5819, Control_c, 0, 64, 86
2, 5849, Control_c, 0, 64, 86
2, 5865, Control_c, 0, 64, 87
2, 5906, Note_on_c, 0, 58, 0
2, 5955, Control_c, 0, 64, 87
2, 6097, Note_on_c, 0, 57, 78
2, 6137, Note_on_c, 0, 57, 0
2, 6146, Control_c, 0, 64, 87
2, 6161, Control_c, 0, 64, 84
2, 6176, Control_c, 0, 64, 80
2, 6184, Note_on_c, 0, 55, 75
2, 6188, Note_on_c, 0, 58, 80
2, 6192, Control_c, 0, 64, 73
2, 6206, Control_c, 0, 64, 63
2, 6221, Control_c, 0, 64, 0
2, 6772, Note_on_c, 0, 74, 82
2, 6871, Note_on_c, 0, 69, 91
2, 6883, Note_on_c, 0, 74, 0
2, 6884, Note_on_c, 0, 60, 72
2, 6886, Note_on_c, 0, 58, 0
2, 7096, Control_c, 0, 64, 48
2, 7111, Control_c, 0, 64, 58
2, 7126, Control_c, 0, 64, 63
2, 7141, Control_c, 0, 64, 66
2, 7157, Control_c, 0, 64, 70
2, 7172, Control_c, 0, 64, 74
2, 7187, Control_c, 0, 64, 78
2, 7202, Control_c, 0, 64, 80
2, 7217, Control_c, 0, 64, 81
2, 7233, Control_c, 0, 64, 82
2, 7263, Control_c, 0, 64, 82
2, 7324, Control_c, 0, 64, 83
2, 7397, Note_on_c, 0, 69, 0
2, 7403, Note_on_c, 0, 72, 80
2, 7507, Control_c, 0, 64, 81
2, 7517, Note_on_c, 0, 70, 85
2, 7529, Control_c, 0, 64, 78
2, 7532, Note_on_c, 0, 62, 77
2, 7532, Note_on_c, 0, 72, 0
2, 7545, Control_c, 0, 64, 72
2, 7548, Note_on_c, 0, 60, 0
2, 7559, Control_c, 0, 64, 65
2, 7574, Control_c, 0, 64, 39
2, 7590, Control_c, 0, 64, 0
2, 8082, Note_on_c, 0, 65, 71
2, 8174, Note_on_c, 0, 65, 0
2, 8187, Note_on_c, 0, 64, 71
2, 8736, Note_on_c, 0, 67, 68
2, 8746, Note_on_c, 0, 64, 0
2, 8826, Note_on_c, 0, 61, 76
2, 8831, Note_on_c, 0, 67, 0
2, 8865, Note_on_c, 0, 62, 0
2, 8878, Note_on_c, 0, 70, 0
2, 8920, Control_c, 0, 64, 13
2, 8935, Control_c, 0, 64, 48
2, 8951, Control_c, 0, 64, 57
2, 8966, Control_c, 0, 64, 62
2, 8981, Control_c, 0, 64, 64
2, 8996, Control_c, 0, 64, 66
2, 9011, Control_c, 0, 64, 68
2, 9027, Control_c, 0, 64, 71
2, 9048, Control_c, 0, 64, 74
2, 9064, Control_c, 0, 64, 76
2, 9079, Control_c, 0, 64, 78
2, 9094, Control_c, 0, 64, 79
2, 9110, Control_c, 0, 64, 80
2, 9125, Control_c, 0, 64, 81
2, 9156, Control_c, 0, 64, 81
2, 9170, Control_c, 0, 64, 82
2, 9186, Control_c, 0, 64, 82
2, 9216, Control_c, 0, 64, 83
2, 9261, Control_c, 0, 64, 83
2, 9343, Note_on_c, 0, 70, 65
2, 9375, Note_on_c, 0, 70, 0
2, 9406, Note_on_c, 0, 69, 64
2, 9438, Note_on_c, 0, 69, 0
2, 9457, Note_on_c, 0, 70, 78
2, 9460, Control_c, 0, 64, 83
2, 9476, Control_c, 0, 64, 81
2, 9491, Control_c, 0, 64, 75
2, 9507, Control_c, 0, 64, 66
2, 9507, Note_on_c, 0, 69, 87
2, 9521, Control_c, 0, 64, 0
2, 9531, Note_on_c, 0, 70, 0
2, 9673, Control_c, 0, 64, 42
2, 9687, Control_c, 0, 64, 60
2, 9703, Control_c, 0, 64, 64
2, 9718, Control_c, 0, 64, 66
2, 9733, Control_c, 0, 64, 68
2, 9749, Control_c, 0, 64, 71
2, 9764, Control_c, 0, 64, 75
2, 9779, Control_c, 0, 64, 78
2, 9795, Control_c, 0, 64, 79
2, 9809, Control_c, 0, 64, 80
2, 9878, Control_c, 0, 64, 80
2, 10061, Note_on_c, 0, 67, 82
2, 10067, Note_on_c, 0, 69, 0
2, 10129, Note_on_c, 0, 67, 0
2, 10152, Control_c, 0, 64, 79
2, 10167, Control_c, 0, 64, 76
2, 10170, Note_on_c, 0, 76, 89
2, 10183, Control_c, 0, 64, 68
2, 10198, Control_c, 0, 64, 42
2, 10213, Control_c, 0, 64, 0
2, 10289, Control_c, 0, 64, 48
2, 10305, Control_c, 0, 64, 63
2, 10320, Control_c, 0, 64, 65
2, 10334, Control_c, 0, 64, 68
2, 10350, Control_c, 0, 64, 70
2, 10365, Control_c, 0, 64, 73
2, 10380, Control_c, 0, 64, 77
2, 10396, Control_c, 0, 64, 79
2, 10410, Control_c, 0, 64, 81
2, 10426, Control_c, 0, 64, 81
2, 10441, Control_c, 0, 64, 82
2, 10456, Control_c, 0, 64, 83
2, 10472, Control_c, 0, 64, 84
2, 10486, Control_c, 0, 64, 85
2, 10501, Control_c, 0, 64, 85
2, 10517, Control_c, 0, 64, 86
2, 10577, Control_c, 0, 64, 86
2, 10601, Control_c, 0, 64, 87
2, 10631, Control_c, 0, 64, 87
2, 10661, Control_c, 0, 64, 88
2, 10681, Note_on_c, 0, 76, 0
2, 10691, Control_c, 0, 64, 88
2, 10693, Note_on_c, 0, 67, 78
2, 10722, Control_c, 0, 64, 89
2, 10737, Control_c, 0, 64, 89
2, 10745, Note_on_c, 0, 67, 0
2, 10752, Control_c, 0, 64, 90
2, 10782, Control_c, 0, 64, 90
2, 10797, Note_on_c, 0, 66, 74
2, 10828, Control_c, 0, 64, 90
2, 10843, Note_on_c, 0, 66, 0
2, 10849, Note_on_c, 0, 67, 79
2, 10858, Control_c, 0, 64, 89
2, 10874, Control_c, 0, 64, 86
2, 10889, Control_c, 0, 64, 81
2, 10901, Note_on_c, 0, 66, 89
2, 10905, Control_c, 0, 64, 72
2, 10916, Note_on_c, 0, 67, 0
2, 10919, Control_c, 0, 64, 53
2, 10934, Control_c, 0, 64, 0
2, 11087, Control_c, 0, 64, 56
2, 11102, Control_c, 0, 64, 63
2, 11118, Control_c, 0, 64, 66
2, 11133, Control_c, 0, 64, 68
2, 11149, Control_c, 0, 64, 71
2, 11164, Control_c, 0, 64, 75
2, 11178, Control_c, 0, 64, 79
2, 11194, Control_c, 0, 64, 82
2, 11209, Control_c, 0, 64, 83
2, 11225, Control_c, 0, 64, 84
2, 11232, Note_on_c, 0, 61, 0
2, 11240, Control_c, 0, 64, 85
2, 11244, Note_on_c, 0, 55, 0
2, 11254, Control_c, 0, 64, 86
2, 11270, Control_c, 0, 64, 87
2, 11285, Control_c, 0, 64, 88
2, 11300, Control_c, 0, 64, 89
2, 11316, Control_c, 0, 64, 89
2, 11330, Control_c, 0, 64, 90
2, 11369, Control_c, 0, 64, 90
2, 11399, Control_c, 0, 64, 91
2, 11459, Control_c, 0, 64, 91
2, 11488, Note_on_c, 0, 64, 75
2, 11497, Note_on_c, 0, 66, 0
2, 11506, Control_c, 0, 64, 92
2, 11551, Note_on_c, 0, 64, 0
2, 11581, Control_c, 0, 64, 91
2, 11596, Control_c, 0, 64, 89
2, 11597, Note_on_c, 0, 66, 86
2, 11601, Note_on_c, 0, 50, 84
2, 11602, Note_on_c, 0, 62, 81
2, 11611, Control_c, 0, 64, 84
2, 11627, Control_c, 0, 64, 75
2, 11642, Control_c, 0, 64, 62
2, 11657, Control_c, 0, 64, 0
2, 12179, Note_on_c, 0, 67, 77
2, 12262, Note_on_c, 0, 66, 0
2, 12287, Note_on_c, 0, 69, 93
2, 12324, Note_on_c, 0, 67, 0
2, 12826, Note_on_c, 0, 60, 78
2, 12910, Note_on_c, 0, 60, 0
2, 12933, Note_on_c, 0, 58, 79
2, 12959, Note_on_c, 0, 62, 0
2, 13133, Control_c, 0, 64, 48
2, 13148, Control_c, 0, 64, 59
2, 13163, Control_c, 0, 64, 63
2, 13178, Control_c, 0, 64, 66
2, 13193, Control_c, 0, 64, 69
2, 13208, Control_c, 0, 64, 73
2, 13209, Note_on_c, 0, 69, 0
2, 13224, Control_c, 0, 64, 77
2, 13239, Control_c, 0, 64, 79
2, 13254, Control_c, 0, 64, 80
2, 13269, Control_c, 0, 64, 81
2, 13315, Control_c, 0, 64, 81
2, 13496, Note_on_c, 0, 62, 81
2, 13560, Note_on_c, 0, 62, 0
2, 13574, Control_c, 0, 64, 80
2, 13589, Control_c, 0, 64, 77
2, 13595, Note_on_c, 0, 67, 86
2, 13604, Control_c, 0, 64, 68
2, 13619, Control_c, 0, 64, 32
2, 13635, Control_c, 0, 64, 0
2, 13749, Control_c, 0, 64, 53
2, 13764, Control_c, 0, 64, 61
2, 13779, Control_c, 0, 64, 64
2, 13794, Control_c, 0, 64, 67
2, 13809, Control_c, 0, 64, 70
2, 13825, Control_c, 0, 64, 74
2, 13839, Control_c, 0, 64, 77
2, 13854, Control_c, 0, 64, 79
2, 13870, Control_c, 0, 64, 79
2, 13885, Control_c, 0, 64, 80
2, 13900, Control_c, 0, 64, 80
2, 13916, Control_c, 0, 64, 81
2, 13947, Control_c, 0, 64, 81
2, 14007, Control_c, 0, 64, 82
2, 14142, Note_on_c, 0, 70, 84
2, 14191, Note_on_c, 0, 67, 0
2, 14219, Control_c, 0, 64, 81
2, 14235, Control_c, 0, 64, 78
2, 14251, Control_c, 0, 64, 73
2, 14252, Note_on_c, 0, 72, 87
2, 14265, Note_on_c, 0, 57, 64
2, 14267, Control_c, 0, 64, 65
2, 14279, Note_on_c, 0, 70, 0
2, 14281, Control_c, 0, 64, 17
2, 14294, Note_on_c, 0, 58, 0
2, 14296, Control_c, 0, 64, 0
2, 14805, Note_on_c, 0, 67, 67
2, 14857, Note_on_c, 0, 67, 0
2, 14912, Note_on_c, 0, 66, 75
2, 15080, Control_c, 0, 64, 50
2, 15095, Control_c, 0, 64, 60
2, 15110, Control_c, 0, 64, 63
2, 15126, Control_c, 0, 64, 65
2, 15141, Control_c, 0, 64, 68
2, 15157, Control_c, 0, 64, 72
2, 15172, Control_c, 0, 64, 76
2, 15194, Control_c, 0, 64, 79
2, 15209, Control_c, 0, 64, 81
2, 15240, Control_c, 0, 64, 81
2, 15281, Note_on_c, 0, 66, 0
2, 15331, Control_c, 0, 64, 82
2, 15467, Note_on_c, 0, 64, 69
2, 15512, Note_on_c, 0, 64, 0
2, 15514, Control_c, 0, 64, 81
2, 15528, Control_c, 0, 64, 79
2, 15544, Control_c, 0, 64, 75
2, 15559, Control_c, 0, 64, 67
2, 15572, Note_on_c, 0, 66, 73
2, 15574, Control_c, 0, 64, 0
2, 15695, Control_c, 0, 64, 51
2, 15711, Control_c, 0, 64, 61
2, 15726, Control_c, 0, 64, 64
2, 15740, Control_c, 0, 64, 66
2, 15756, Control_c, 0, 64, 69
2, 15771, Control_c, 0, 64, 73
2, 15772, Note_on_c, 0, 72, 0
2, 15787, Control_c, 0, 64, 76
2, 15802, Control_c, 0, 64, 78
2, 15817, Control_c, 0, 64, 79
2, 15833, Control_c, 0, 64, 80
2, 15862, Control_c, 0, 64, 80
2, 16127, Note_on_c, 0, 74, 71
2, 16205, Control_c, 0, 64, 79
2, 16220, Control_c, 0, 64, 76
2, 16236, Control_c, 0, 64, 70
2, 16239, Note_on_c, 0, 69, 80
2, 16251, Control_c, 0, 64, 56
2, 16253, Note_on_c, 0, 62, 76
2, 16253, Note_on_c, 0, 74, 0
2, 16267, Control_c, 0, 64, 0
2, 16372, Control_c, 0, 64, 46
2, 16388, Control_c, 0, 64, 60
2, 16403, Control_c, 0, 64, 63
2, 16403, Note_on_c, 0, 50, 0
2, 16418, Control_c, 0, 64, 65
2, 16433, Control_c, 0, 64, 67
2, 16448, Control_c, 0, 64, 69
2, 16464, Control_c, 0, 64, 73
2, 16479, Control_c, 0, 64, 76
2, 16494, Control_c, 0, 64, 78
2, 16509, Control_c, 0, 64, 79
2, 16555, Control_c, 0, 64, 79
2, 16558, Note_on_c, 0, 69, 0
2, 16679, Note_on_c, 0, 66, 0
2, 16698, Note_on_c, 0, 57, 0
2, 16768, Note_on_c, 0, 62, 0
2, 16791, Note_on_c, 0, 51, 60
2, 16798, Note_on_c, 0, 72, 80
2, 16896, Control_c, 0, 64, 77
2, 16899, Note_on_c, 0, 51, 0
2, 16910, Note_on_c, 0, 71, 84
2, 16912, Control_c, 0, 64, 74
2, 16916, Note_on_c, 0, 67, 70
2, 16921, Note_on_c, 0, 53, 66
2, 16927, Control_c, 0, 64, 67
2, 16927, Note_on_c, 0, 72, 0
2, 16942, Control_c, 0, 64, 51
2, 16958, Control_c, 0, 64, 0
2, 17367, Note_on_c, 0, 71, 0
2, 17465, Note_on_c, 0, 72, 82
2, 17587, Note_on_c, 0, 74, 83
2, 17591, Note_on_c, 0, 72, 0
2, 17665, Control_c, 0, 64, 29
2, 17680, Control_c, 0, 64, 50
2, 17695, Control_c, 0, 64, 57
2, 17710, Control_c, 0, 64, 60
2, 17725, Control_c, 0, 64, 63
2, 17740, Control_c, 0, 64, 65
2, 17756, Control_c, 0, 64, 67
2, 17771, Control_c, 0, 64, 69
2, 17787, Control_c, 0, 64, 71
2, 17802, Control_c, 0, 64, 73
2, 17816, Control_c, 0, 64, 75
2, 17832, Control_c, 0, 64, 76
2, 17847, Control_c, 0, 64, 76
2, 17893, Control_c, 0, 64, 77
2, 17938, Control_c, 0, 64, 77
2, 18108, Note_on_c, 0, 53, 0
2, 18128, Note_on_c, 0, 59, 76
2, 18211, Control_c, 0, 64, 77
2, 18227, Control_c, 0, 64, 74
2, 18241, Note_on_c, 0, 51, 78
2, 18241, Note_on_c, 0, 59, 0
2, 18242, Control_c, 0, 64, 69
2, 18245, Note_on_c, 0, 55, 76
2, 18252, Note_on_c, 0, 74, 0
2, 18257, Control_c, 0, 64, 52
2, 18270, Note_on_c, 0, 67, 0
2, 18280, Control_c, 0, 64, 0
2, 18388, Control_c, 0, 64, 53
2, 18403, Control_c, 0, 64, 63
2, 18417, Control_c, 0, 64, 65
2, 18433, Control_c, 0, 64, 67
2, 18448, Control_c, 0, 64, 69
2, 18464, Control_c, 0, 64, 74
2, 18479, Control_c, 0, 64, 78
2, 18493, Control_c, 0, 64, 80
2, 18509, Control_c, 0, 64, 80
2, 18554, Control_c, 0, 64, 81
2, 18585, Control_c, 0, 64, 81
2, 18829, Note_on_c, 0, 67, 80
2, 18895, Note_on_c, 0, 67, 0
2, 18930, Note_on_c, 0, 72, 86
2, 18934, Control_c, 0, 64, 79
2, 18940, Note_on_c, 0, 63, 86
2, 18949, Control_c, 0, 64, 73
2, 18965, Control_c, 0, 64, 61
2, 18980, Control_c, 0, 64, 0
2, 19080, Control_c, 0, 64, 46
2, 19094, Control_c, 0, 64, 62
2, 19110, Control_c, 0, 64, 64
2, 19125, Control_c, 0, 64, 66
2, 19140, Control_c, 0, 64, 68
2, 19156, Control_c, 0, 64, 72
2, 19171, Control_c, 0, 64, 76
2, 19187, Control_c, 0, 64, 79
2, 19202, Control_c, 0, 64, 80
2, 19227, Note_on_c, 0, 63, 0
2, 19233, Control_c, 0, 64, 80
2, 19262, Control_c, 0, 64, 81
2, 19293, Control_c, 0, 64, 81
2, 19302, Note_on_c, 0, 55, 0
2, 19395, Note_on_c, 0, 51, 0
2, 19483, Note_on_c, 0, 72, 0
2, 19526, Note_on_c, 0, 75, 81
2, 19592, Note_on_c, 0, 75, 0
2, 19630, Note_on_c, 0, 77, 93
2, 19636, Note_on_c, 0, 56, 83
2, 19642, Control_c, 0, 64, 79
2, 19645, Note_on_c, 0, 50, 76
2, 19655, Control_c, 0, 64, 73
2, 19671, Control_c, 0, 64, 61
2, 19686, Control_c, 0, 64, 0
2, 19799, Control_c, 0, 64, 46
2, 19814, Control_c, 0, 64, 59
2, 19829, Control_c, 0, 64, 63
2, 19845, Control_c, 0, 64, 65
2, 19860, Control_c, 0, 64, 66
2, 19876, Control_c, 0, 64, 69
2, 19890, Control_c, 0, 64, 73
2, 19905, Control_c, 0, 64, 76
2, 19921, Control_c, 0, 64, 78
2, 19936, Control_c, 0, 64, 79
2, 19952, Control_c, 0, 64, 79
2, 19998, Control_c, 0, 64, 80
2, 20013, Control_c, 0, 64, 81
2, 20043, Control_c, 0, 64, 81
2, 20163, Note_on_c, 0, 56, 0
2, 20196, Control_c, 0, 64, 82
2, 20225, Note_on_c, 0, 72, 84
2, 20287, Control_c, 0, 64, 81
2, 20302, Control_c, 0, 64, 79
2, 20317, Control_c, 0, 64, 73
2, 20322, Note_on_c, 0, 71, 88
2, 20322, Note_on_c, 0, 72, 0
2, 20331, Note_on_c, 0, 53, 85
2, 20332, Control_c, 0, 64, 62
2, 20347, Control_c, 0, 64, 0
2, 20468, Control_c, 0, 64, 29
2, 20484, Control_c, 0, 64, 59
2, 20498, Control_c, 0, 64, 63
2, 20513, Control_c, 0, 64, 65
2, 20528, Control_c, 0, 64, 67
2, 20543, Control_c, 0, 64, 70
2, 20566, Control_c, 0, 64, 73
2, 20581, Control_c, 0, 64, 76
2, 20597, Control_c, 0, 64, 79
2, 20612, Control_c, 0, 64, 80
2, 20627, Control_c, 0, 64, 80
2, 20673, Control_c, 0, 64, 81
2, 20718, Control_c, 0, 64, 81
2, 20847, Note_on_c, 0, 71, 0
2, 20917, Note_on_c, 0, 69, 81
2, 20970, Note_on_c, 0, 69, 0
2, 20993, Control_c, 0, 64, 78
2, 21007, Control_c, 0, 64, 70
2, 21015, Note_on_c, 0, 71, 91
2, 21022, Control_c, 0, 64, 0
2, 21024, Note_on_c, 0, 55, 85
2, 21038, Note_on_c, 0, 53, 0
2, 21135, Note_on_c, 0, 77, 0
2, 21189, Control_c, 0, 64, 46
2, 21205, Control_c, 0, 64, 60
2, 21220, Control_c, 0, 64, 65
2, 21236, Control_c, 0, 64, 68
2, 21251, Control_c, 0, 64, 71
2, 21266, Control_c, 0, 64, 75
2, 21281, Control_c, 0, 64, 77
2, 21296, Control_c, 0, 64, 78
2, 21299, Note_on_c, 0, 50, 0
2, 21312, Control_c, 0, 64, 79
2, 21327, Control_c, 0, 64, 79
2, 21348, Control_c, 0, 64, 80
2, 21364, Control_c, 0, 64, 80
2, 21379, Control_c, 0, 64, 81
2, 21410, Control_c, 0, 64, 81
2, 21472, Control_c, 0, 64, 82
2, 21651, Note_on_c, 0, 79, 93
2, 21654, Control_c, 0, 64, 82
2, 21669, Control_c, 0, 64, 83
2, 21685, Control_c, 0, 64, 84
2, 21730, Control_c, 0, 64, 84
2, 21745, Control_c, 0, 64, 79
2, 21761, Control_c, 0, 64, 64
2, 21762, Note_on_c, 0, 43, 95
2, 21763, Note_on_c, 0, 74, 90
2, 21775, Control_c, 0, 64, 0
2, 21799, Note_on_c, 0, 79, 0
2, 21897, Control_c, 0, 64, 52
2, 21913, Control_c, 0, 64, 59
2, 21927, Control_c, 0, 64, 63
2, 21942, Control_c, 0, 64, 66
2, 21958, Control_c, 0, 64, 68
2, 21972, Control_c, 0, 64, 72
2, 21987, Control_c, 0, 64, 76
2, 22003, Control_c, 0, 64, 79
2, 22018, Control_c, 0, 64, 80
2, 22035, Control_c, 0, 64, 80
2, 22049, Control_c, 0, 64, 81
2, 22064, Control_c, 0, 64, 82
2, 22080, Control_c, 0, 64, 83
2, 22095, Control_c, 0, 64, 83
2, 22098, Note_on_c, 0, 74, 0
2, 22119, Control_c, 0, 64, 84
2, 22148, Control_c, 0, 64, 84
2, 22268, Note_on_c, 0, 43, 0
2, 22300, Control_c, 0, 64, 85
2, 22410, Note_on_c, 0, 77, 86
2, 22422, Control_c, 0, 64, 85
2, 22438, Control_c, 0, 64, 86
2, 22456, Note_on_c, 0, 71, 0
2, 22512, Note_on_c, 0, 48, 101
2, 22514, Control_c, 0, 64, 83
2, 22525, Note_on_c, 0, 75, 92
2, 22529, Control_c, 0, 64, 77
2, 22544, Control_c, 0, 64, 65
2, 22547, Note_on_c, 0, 77, 0
2, 22560, Control_c, 0, 64, 0
2, 22562, Note_on_c, 0, 55, 0
2, 22606, Note_on_c, 0, 55, 46
2, 23097, Note_on_c, 0, 72, 78
2, 23210, Note_on_c, 0, 67, 84
2, 23215, Note_on_c, 0, 72, 0
2, 23305, Note_on_c, 0, 75, 0
2, 23342, Control_c, 0, 64, 32
2, 23358, Control_c, 0, 64, 55
2, 23373, Control_c, 0, 64, 61
2, 23388, Control_c, 0, 64, 64
2, 23403, Control_c, 0, 64, 66
2, 23418, Control_c, 0, 64, 68
2, 23434, Control_c, 0, 64, 72
2, 23449, Control_c, 0, 64, 76
2, 23464, Control_c, 0, 64, 79
2, 23480, Control_c, 0, 64, 80
2, 23495, Control_c, 0, 64, 81
2, 23511, Control_c, 0, 64, 82
2, 23526, Control_c, 0, 64, 83
2, 23556, Control_c, 0, 64, 83
2, 23570, Control_c, 0, 64, 84
2, 23600, Control_c, 0, 64, 84
2, 23651, Note_on_c, 0, 67, 0
2, 23755, Note_on_c, 0, 70, 81
2, 23836, Control_c, 0, 64, 84
2, 23851, Control_c, 0, 64, 81
2, 23860, Note_on_c, 0, 68, 86
2, 23866, Control_c, 0, 64, 77
2, 23881, Control_c, 0, 64, 70
2, 23890, Note_on_c, 0, 70, 0
2, 23896, Control_c, 0, 64, 60
2, 23912, Control_c, 0, 64, 0
2, 24410, Note_on_c, 0, 63, 78
2, 24505, Note_on_c, 0, 63, 0
2, 24525, Note_on_c, 0, 62, 71
2, 24682, Control_c, 0, 64, 47
2, 24697, Control_c, 0, 64, 58
2, 24712, Control_c, 0, 64, 62
2, 24727, Control_c, 0, 64, 64
2, 24742, Control_c, 0, 64, 66
2, 24758, Control_c, 0, 64, 68
2, 24773, Control_c, 0, 64, 71
2, 24788, Control_c, 0, 64, 73
2, 24803, Control_c, 0, 64, 75
2, 24818, Control_c, 0, 64, 75
2, 24834, Control_c, 0, 64, 76
2, 24848, Control_c, 0, 64, 76
2, 24864, Control_c, 0, 64, 77
2, 24879, Control_c, 0, 64, 77
2, 24911, Control_c, 0, 64, 78
2, 24987, Control_c, 0, 64, 78
2, 25038, Note_on_c, 0, 65, 66
2, 25044, Note_on_c, 0, 62, 0
2, 25139, Control_c, 0, 64, 77
2, 25155, Control_c, 0, 64, 74
2, 25155, Note_on_c, 0, 65, 0
2, 25158, Note_on_c, 0, 59, 74
2, 25177, Control_c, 0, 64, 67
2, 25193, Control_c, 0, 64, 0
2, 25203, Note_on_c, 0, 55, 0
2, 25269, Control_c, 0, 64, 49
2, 25271, Note_on_c, 0, 68, 0
2, 25283, Control_c, 0, 64, 62
2, 25298, Control_c, 0, 64, 65
2, 25314, Control_c, 0, 64, 67
2, 25329, Control_c, 0, 64, 68
2, 25345, Control_c, 0, 64, 71
2, 25359, Control_c, 0, 64, 74
2, 25374, Control_c, 0, 64, 77
2, 25390, Control_c, 0, 64, 79
2, 25405, Control_c, 0, 64, 79
2, 25420, Control_c, 0, 64, 80
2, 25496, Control_c, 0, 64, 80
2, 25677, Note_on_c, 0, 68, 80
2, 25740, Control_c, 0, 64, 80
2, 25756, Control_c, 0, 64, 78
2, 25771, Control_c, 0, 64, 73
2, 25784, Note_on_c, 0, 67, 77
2, 25787, Control_c, 0, 64, 64
2, 25797, Note_on_c, 0, 68, 0
2, 25801, Control_c, 0, 64, 0
2, 25961, Control_c, 0, 64, 21
2, 25976, Control_c, 0, 64, 50
2, 25992, Control_c, 0, 64, 56
2, 26006, Control_c, 0, 64, 60
2, 26021, Control_c, 0, 64, 62
2, 26037, Control_c, 0, 64, 64
2, 26051, Control_c, 0, 64, 65
2, 26067, Control_c, 0, 64, 67
2, 26082, Control_c, 0, 64, 70
2, 26097, Control_c, 0, 64, 72
2, 26113, Control_c, 0, 64, 74
2, 26127, Control_c, 0, 64, 76
2, 26142, Control_c, 0, 64, 77
2, 26158, Control_c, 0, 64, 77
2, 26337, Note_on_c, 0, 65, 76
2, 26341, Note_on_c, 0, 67, 0
2, 26413, Note_on_c, 0, 65, 0
2, 26447, Control_c, 0, 64, 76
2, 26453, Note_on_c, 0, 74, 78
2, 26461, Control_c, 0, 64, 72
2, 26477, Control_c, 0, 64, 65
2, 26492, Control_c, 0, 64, 0
2, 26615, Control_c, 0, 64, 48
2, 26631, Control_c, 0, 64, 59
2, 26645, Control_c, 0, 64, 62
2, 26660, Control_c, 0, 64, 65
2, 26676, Control_c, 0, 64, 67
2, 26690, Control_c, 0, 64, 69
2, 26706, Control_c, 0, 64, 72
2, 26729, Control_c, 0, 64, 74
2, 26745, Control_c, 0, 64, 76
2, 26760, Control_c, 0, 64, 76
2, 26774, Control_c, 0, 64, 77
2, 26790, Control_c, 0, 64, 77
2, 26805, Control_c, 0, 64, 78
2, 26820, Control_c, 0, 64, 78
2, 26836, Control_c, 0, 64, 79
2, 26866, Control_c, 0, 64, 80
2, 27013, Note_on_c, 0, 65, 71
2, 27074, Note_on_c, 0, 65, 0
2, 27078, Control_c, 0, 64, 78
2, 27093, Control_c, 0, 64, 73
2, 27108, Control_c, 0, 64, 61
2, 27123, Control_c, 0, 64, 0
2, 27141, Note_on_c, 0, 63, 65
2, 27215, Control_c, 0, 64, 55
2, 27230, Control_c, 0, 64, 62
2, 27245, Control_c, 0, 64, 64
2, 27260, Control_c, 0, 64, 66
2, 27276, Control_c, 0, 64, 68
2, 27276, Note_on_c, 0, 48, 0
2, 27291, Control_c, 0, 64, 71
2, 27306, Control_c, 0, 64, 74
2, 27321, Control_c, 0, 64, 77
2, 27327, Note_on_c, 0, 59, 0
2, 27336, Control_c, 0, 64, 78
2, 27353, Control_c, 0, 64, 79
2, 27368, Control_c, 0, 64, 80
2, 27384, Control_c, 0, 64, 80
2, 27396, Note_on_c, 0, 63, 0
2, 27412, Control_c, 0, 64, 81
2, 27481, Control_c, 0, 64, 81
2, 27572, Control_c, 0, 64, 82
2, 27684, Note_on_c, 0, 62, 67
2, 27717, Note_on_c, 0, 62, 0
2, 27737, Note_on_c, 0, 74, 0
2, 27769, Control_c, 0, 64, 81
2, 27785, Control_c, 0, 64, 78
2, 27791, Note_on_c, 0, 60, 62
2, 27793, Note_on_c, 0, 63, 71
2, 27800, Control_c, 0, 64, 72
2, 27814, Control_c, 0, 64, 64
2, 27830, Control_c, 0, 64, 15
2, 27845, Control_c, 0, 64, 0
2, 28355, Note_on_c, 0, 79, 80
2, 28462, Note_on_c, 0, 79, 0
2, 28466, Note_on_c, 0, 74, 70
2, 28471, Note_on_c, 0, 71, 59
2, 28487, Note_on_c, 0, 65, 56
2, 28491, Note_on_c, 0, 63, 0
2, 28674, Control_c, 0, 64, 25
2, 28689, Control_c, 0, 64, 50
2, 28696, Note_on_c, 0, 74, 0
2, 28705, Control_c, 0, 64, 58
2, 28719, Control_c, 0, 64, 62
2, 28734, Control_c, 0, 64, 65
2, 28750, Control_c, 0, 64, 67
2, 28765, Control_c, 0, 64, 69
2, 28780, Control_c, 0, 64, 73
2, 28796, Control_c, 0, 64, 75
2, 28811, Control_c, 0, 64, 77
2, 28827, Control_c, 0, 64, 78
2, 28842, Control_c, 0, 64, 79
2, 28872, Control_c, 0, 64, 79
2, 29044, Note_on_c, 0, 77, 83
2, 29077, Note_on_c, 0, 71, 0
2, 29093, Control_c, 0, 64, 78
2, 29109, Control_c, 0, 64, 76
2, 29124, Control_c, 0, 64, 72
2, 29139, Control_c, 0, 64, 64
2, 29144, Note_on_c, 0, 72, 73
2, 29148, Note_on_c, 0, 75, 74
2, 29148, Note_on_c, 0, 77, 0
2, 29154, Control_c, 0, 64, 28
2, 29164, Note_on_c, 0, 65, 0
2, 29164, Note_on_c, 0, 67, 55
2, 29169, Control_c, 0, 64, 0
2, 29288, Note_on_c, 0, 60, 0
2, 29322, Control_c, 0, 64, 57
2, 29336, Control_c, 0, 64, 63
2, 29352, Control_c, 0, 64, 65
2, 29367, Control_c, 0, 64, 67
2, 29382, Control_c, 0, 64, 70
2, 29398, Control_c, 0, 64, 75
2, 29413, Control_c, 0, 64, 79
2, 29428, Control_c, 0, 64, 80
2, 29474, Control_c, 0, 64, 81
2, 29644, Note_on_c, 0, 67, 0
2, 29680, Note_on_c, 0, 58, 72
2, 29753, Note_on_c, 0, 58, 0
2, 29762, Control_c, 0, 64, 79
2, 29777, Control_c, 0, 64, 75
2, 29791, Note_on_c, 0, 57, 77
2, 29800, Control_c, 0, 64, 67
2, 29810, Note_on_c, 0, 66, 69
2, 29816, Control_c, 0, 64, 0
2, 29901, Note_on_c, 0, 72, 0
2, 29938, Control_c, 0, 64, 50
2, 29953, Control_c, 0, 64, 60
2, 29968, Control_c, 0, 64, 63
2, 29978, Note_on_c, 0, 66, 0
2, 29984, Control_c, 0, 64, 66
2, 29998, Control_c, 0, 64, 69
2, 30013, Control_c, 0, 64, 73
2, 30029, Control_c, 0, 64, 77
2, 30044, Control_c, 0, 64, 80
2, 30059, Control_c, 0, 64, 81
2, 30074, Control_c, 0, 64, 82
2, 30105, Control_c, 0, 64, 82
2, 30196, Control_c, 0, 64, 83
2, 30336, Note_on_c, 0, 57, 0
2, 30364, Note_on_c, 0, 60, 66
2, 30364, Note_on_c, 0, 67, 73
2, 30404, Note_on_c, 0, 67, 0
2, 30428, Note_on_c, 0, 60, 0
2, 30469, Control_c, 0, 64, 82
2, 30486, Note_on_c, 0, 54, 72
2, 30493, Note_on_c, 0, 69, 77
2, 30499, Control_c, 0, 64, 80
2, 30515, Control_c, 0, 64, 75
2, 30529, Control_c, 0, 64, 64
2, 30545, Control_c, 0, 64, 0
2, 30587, Note_on_c, 0, 75, 0
2, 30752, Control_c, 0, 64, 48
2, 30766, Control_c, 0, 64, 65
2, 30781, Control_c, 0, 64, 70
2, 30797, Control_c, 0, 64, 76
2, 30812, Control_c, 0, 64, 81
2, 30828, Control_c, 0, 64, 83
2, 30842, Control_c, 0, 64, 84
2, 30873, Control_c, 0, 64, 84
2, 31045, Note_on_c, 0, 75, 81
2, 31116, Control_c, 0, 64, 84
2, 31131, Control_c, 0, 64, 81
2, 31147, Control_c, 0, 64, 77
2, 31158, Note_on_c, 0, 74, 84
2, 31161, Control_c, 0, 64, 69
2, 31163, Note_on_c, 0, 57, 65
2, 31176, Control_c, 0, 64, 20
2, 31192, Control_c, 0, 64, 0
2, 31196, Note_on_c, 0, 69, 0
2, 31197, Note_on_c, 0, 75, 0
2, 31298, Control_c, 0, 64, 49
2, 31321, Control_c, 0, 64, 60
2, 31336, Control_c, 0, 64, 64
2, 31352, Control_c, 0, 64, 67
2, 31367, Control_c, 0, 64, 71
2, 31381, Control_c, 0, 64, 77
2, 31397, Control_c, 0, 64, 80
2, 31412, Control_c, 0, 64, 81
2, 31458, Control_c, 0, 64, 81
2, 31489, Control_c, 0, 64, 82
2, 31492, Note_on_c, 0, 74, 0
2, 31505, Control_c, 0, 64, 82
2, 31535, Control_c, 0, 64, 83
2, 31710, Note_on_c, 0, 72, 82
2, 31778, Note_on_c, 0, 72, 0
2, 31807, Control_c, 0, 64, 82
2, 31822, Control_c, 0, 64, 80
2, 31835, Note_on_c, 0, 81, 92
2, 31838, Control_c, 0, 64, 76
2, 31853, Control_c, 0, 64, 70
2, 31869, Control_c, 0, 64, 54
2, 31884, Control_c, 0, 64, 0
2, 32051, Control_c, 0, 64, 55
2, 32067, Control_c, 0, 64, 62
2, 32088, Control_c, 0, 64, 64
2, 32104, Control_c, 0, 64, 66
2, 32119, Control_c, 0, 64, 69
2, 32134, Control_c, 0, 64, 73
2, 32150, Control_c, 0, 64, 77
2, 32165, Control_c, 0, 64, 79
2, 32180, Control_c, 0, 64, 80
2, 32256, Control_c, 0, 64, 80
2, 32364, Note_on_c, 0, 72, 74
2, 32440, Control_c, 0, 64, 80
2, 32454, Control_c, 0, 64, 77
2, 32470, Control_c, 0, 64, 73
2, 32485, Control_c, 0, 64, 66
2, 32488, Note_on_c, 0, 62, 66
2, 32490, Note_on_c, 0, 70, 66
2, 32490, Note_on_c, 0, 72, 0
2, 32500, Control_c, 0, 64, 37
2, 32516, Control_c, 0, 64, 0
2, 32617, Note_on_c, 0, 54, 0
2, 32637, Control_c, 0, 64, 49
2, 32651, Control_c, 0, 64, 59
2, 32667, Control_c, 0, 64, 62
2, 32682, Control_c, 0, 64, 64
2, 32697, Control_c, 0, 64, 68
2, 32713, Control_c, 0, 64, 72
2, 32727, Control_c, 0, 64, 76
2, 32742, Control_c, 0, 64, 78
2, 32758, Control_c, 0, 64, 79
2, 32773, Control_c, 0, 64, 79
2, 32806, Note_on_c, 0, 70, 0
2, 32834, Control_c, 0, 64, 80
2, 32871, Control_c, 0, 64, 80
2, 32932, Control_c, 0, 64, 81
2, 33054, Note_on_c, 0, 69, 70
2, 33078, Note_on_c, 0, 81, 0
2, 33116, Control_c, 0, 64, 80
2, 33131, Control_c, 0, 64, 80
2, 33147, Control_c, 0, 64, 76
2, 33161, Control_c, 0, 64, 70
2, 33175, Note_on_c, 0, 55, 58
2, 33176, Control_c, 0, 64, 60
2, 33179, Note_on_c, 0, 57, 0
2, 33179, Note_on_c, 0, 70, 75
2, 33181, Note_on_c, 0, 69, 0
2, 33192, Control_c, 0, 64, 0
2, 33297, Control_c, 0, 64, 39
2, 33313, Control_c, 0, 64, 54
2, 33328, Control_c, 0, 64, 58
2, 33344, Control_c, 0, 64, 62
2, 33359, Control_c, 0, 64, 64
2, 33373, Control_c, 0, 64, 67
2, 33389, Control_c, 0, 64, 71
2, 33404, Control_c, 0, 64, 75
2, 33418, Control_c, 0, 64, 77
2, 33434, Control_c, 0, 64, 78
2, 33449, Control_c, 0, 64, 78
2, 33465, Control_c, 0, 64, 79
2, 33480, Control_c, 0, 64, 79
2, 33525, Control_c, 0, 64, 80
2, 33759, Note_on_c, 0, 79, 74
2, 33821, Control_c, 0, 64, 79
2, 33837, Control_c, 0, 64, 78
2, 33852, Control_c, 0, 64, 75
2, 33868, Control_c, 0, 64, 71
2, 33877, Note_on_c, 0, 74, 72
2, 33883, Control_c, 0, 64, 63
2, 33890, Note_on_c, 0, 79, 0
2, 33895, Note_on_c, 0, 67, 65
2, 33898, Control_c, 0, 64, 18
2, 33914, Control_c, 0, 64, 0
2, 34051, Control_c, 0, 64, 38
2, 34066, Control_c, 0, 64, 54
2, 34081, Control_c, 0, 64, 60
2, 34096, Control_c, 0, 64, 63
2, 34112, Control_c, 0, 64, 66
2, 34127, Control_c, 0, 64, 68
2, 34141, Control_c, 0, 64, 70
2, 34157, Control_c, 0, 64, 72
2, 34172, Control_c, 0, 64, 73
2, 34188, Control_c, 0, 64, 74
2, 34201, Note_on_c, 0, 62, 0
2, 34203, Control_c, 0, 64, 76
2, 34217, Control_c, 0, 64, 76
2, 34233, Control_c, 0, 64, 77
2, 34262, Control_c, 0, 64, 77
2, 34422, Note_on_c, 0, 74, 0
2, 34440, Note_on_c, 0, 77, 71
2, 34513, Control_c, 0, 64, 76
2, 34528, Control_c, 0, 64, 74
2, 34544, Control_c, 0, 64, 69
2, 34553, Note_on_c, 0, 75, 76
2, 34559, Control_c, 0, 64, 57
2, 34574, Control_c, 0, 64, 0
2, 34577, Note_on_c, 0, 77, 0
2, 34680, Control_c, 0, 64, 44
2, 34695, Control_c, 0, 64, 54
2, 34711, Control_c, 0, 64, 58
2, 34727, Control_c, 0, 64, 62
2, 34742, Control_c, 0, 64, 64
2, 34758, Control_c, 0, 64, 67
2, 34772, Control_c, 0, 64, 69
2, 34788, Control_c, 0, 64, 72
2, 34803, Control_c, 0, 64, 75
2, 34818, Control_c, 0, 64, 75
2, 34829, Note_on_c, 0, 67, 0
2, 34848, Control_c, 0, 64, 76
2, 34879, Control_c, 0, 64, 76
2, 34909, Control_c, 0, 64, 77
2, 35054, Note_on_c, 0, 70, 0
2, 35093, Note_on_c, 0, 67, 73
2, 35191, Control_c, 0, 64, 75
2, 35206, Control_c, 0, 64, 71
2, 35213, Note_on_c, 0, 62, 73
2, 35218, Note_on_c, 0, 67, 0
2, 35221, Control_c, 0, 64, 64
2, 35221, Note_on_c, 0, 79, 81
2, 35236, Control_c, 0, 64, 0
2, 35327, Control_c, 0, 64, 24
2, 35342, Control_c, 0, 64, 58
2, 35358, Control_c, 0, 64, 63
2, 35373, Control_c, 0, 64, 64
2, 35389, Control_c, 0, 64, 66
2, 35396, Note_on_c, 0, 75, 0
2, 35403, Control_c, 0, 64, 69
2, 35418, Control_c, 0, 64, 72
2, 35434, Control_c, 0, 64, 75
2, 35448, Control_c, 0, 64, 77
2, 35464, Control_c, 0, 64, 77
2, 35494, Control_c, 0, 64, 78
2, 35540, Control_c, 0, 64, 78
2, 35564, Note_on_c, 0, 79, 0
2, 35587, Control_c, 0, 64, 79
2, 35724, Control_c, 0, 64, 79
2, 35763, Note_on_c, 0, 65, 78
2, 35788, Note_on_c, 0, 62, 0
2, 35881, Note_on_c, 0, 73, 85
2, 35883, Note_on_c, 0, 65, 0
2, 35886, Note_on_c, 0, 69, 76
2, 35894, Note_on_c, 0, 64, 73
2, 35906, Control_c, 0, 64, 78
2, 35928, Control_c, 0, 64, 74
2, 35944, Control_c, 0, 64, 67
2, 35959, Control_c, 0, 64, 39
2, 35974, Control_c, 0, 64, 0
2, 36026, Note_on_c, 0, 55, 0
2, 36095, Control_c, 0, 64, 46
2, 36111, Control_c, 0, 64, 57
2, 36126, Control_c, 0, 64, 61
2, 36141, Control_c, 0, 64, 64
2, 36156, Control_c, 0, 64, 66
2, 36171, Control_c, 0, 64, 68
2, 36187, Control_c, 0, 64, 72
2, 36202, Control_c, 0, 64, 75
2, 36217, Control_c, 0, 64, 78
2, 36233, Control_c, 0, 64, 79
2, 36247, Control_c, 0, 64, 79
2, 36262, Control_c, 0, 64, 80
2, 36278, Control_c, 0, 64, 81
2, 36302, Note_on_c, 0, 64, 0
2, 36338, Control_c, 0, 64, 81
2, 36444, Note_on_c, 0, 57, 81
2, 36507, Control_c, 0, 64, 81
2, 36509, Note_on_c, 0, 57, 0
2, 36522, Control_c, 0, 64, 78
2, 36536, Control_c, 0, 64, 72
2, 36548, Note_on_c, 0, 52, 88
2, 36552, Control_c, 0, 64, 60
2, 36567, Control_c, 0, 64, 0
2, 36644, Control_c, 0, 64, 32
2, 36659, Control_c, 0, 64, 61
2, 36674, Control_c, 0, 64, 65
2, 36689, Control_c, 0, 64, 67
2, 36712, Control_c, 0, 64, 70
2, 36726, Control_c, 0, 64, 73
2, 36741, Control_c, 0, 64, 78
2, 36757, Control_c, 0, 64, 80
2, 36772, Control_c, 0, 64, 81
2, 36788, Control_c, 0, 64, 82
2, 36818, Control_c, 0, 64, 82
2, 36834, Control_c, 0, 64, 83
2, 36848, Control_c, 0, 64, 84
2, 36863, Control_c, 0, 64, 84
2, 36879, Control_c, 0, 64, 85
2, 36894, Control_c, 0, 64, 85
2, 36924, Control_c, 0, 64, 86
2, 36970, Control_c, 0, 64, 86
2, 36992, Note_on_c, 0, 52, 0
2, 37060, Control_c, 0, 64, 87
2, 37109, Note_on_c, 0, 55, 83
2, 37136, Control_c, 0, 64, 87
2, 37155, Note_on_c, 0, 55, 0
2, 37214, Control_c, 0, 64, 87
2, 37227, Note_on_c, 0, 74, 89
2, 37228, Note_on_c, 0, 53, 80
2, 37230, Control_c, 0, 64, 85
2, 37231, Note_on_c, 0, 65, 83
2, 37244, Control_c, 0, 64, 81
2, 37259, Control_c, 0, 64, 72
2, 37261, Note_on_c, 0, 73, 0
2, 37275, Control_c, 0, 64, 54
2, 37289, Control_c, 0, 64, 0
2, 37411, Control_c, 0, 64, 25
2, 37427, Control_c, 0, 64, 54
2, 37442, Control_c, 0, 64, 61
2, 37457, Control_c, 0, 64, 64
2, 37480, Control_c, 0, 64, 65
2, 37494, Control_c, 0, 64, 67
2, 37510, Control_c, 0, 64, 69
2, 37525, Control_c, 0, 64, 71
2, 37540, Control_c, 0, 64, 74
2, 37556, Control_c, 0, 64, 76
2, 37570, Control_c, 0, 64, 77
2, 37586, Control_c, 0, 64, 78
2, 37601, Control_c, 0, 64, 78
2, 37632, Control_c, 0, 64, 79
2, 37647, Control_c, 0, 64, 79
2, 37647, Note_on_c, 0, 53, 0
2, 37661, Control_c, 0, 64, 80
2, 37692, Control_c, 0, 64, 80
2, 37772, Note_on_c, 0, 50, 87
2, 37825, Note_on_c, 0, 50, 0
2, 37844, Control_c, 0, 64, 80
2, 37859, Control_c, 0, 64, 77
2, 37875, Control_c, 0, 64, 72
2, 37882, Note_on_c, 0, 45, 92
2, 37890, Control_c, 0, 64, 63
2, 37905, Control_c, 0, 64, 0
2, 38058, Control_c, 0, 64, 46
2, 38074, Control_c, 0, 64, 60
2, 38088, Control_c, 0, 64, 63
2, 38103, Control_c, 0, 64, 65
2, 38119, Control_c, 0, 64, 66
2, 38133, Control_c, 0, 64, 69
2, 38149, Control_c, 0, 64, 71
2, 38163, Control_c, 0, 64, 75
2, 38178, Control_c, 0, 64, 77
2, 38194, Control_c, 0, 64, 79
2, 38209, Control_c, 0, 64, 80
2, 38225, Control_c, 0, 64, 80
2, 38245, Note_on_c, 0, 45, 0
2, 38247, Control_c, 0, 64, 81
2, 38262, Control_c, 0, 64, 81
2, 38278, Control_c, 0, 64, 82
2, 38292, Control_c, 0, 64, 82
2, 38308, Control_c, 0, 64, 83
2, 38323, Control_c, 0, 64, 83
2, 38353, Control_c, 0, 64, 84
2, 38399, Control_c, 0, 64, 84
2, 38445, Control_c, 0, 64, 85
2, 38448, Note_on_c, 0, 48, 90
2, 38475, Control_c, 0, 64, 84
2, 38499, Note_on_c, 0, 48, 0
2, 38521, Control_c, 0, 64, 83
2, 38536, Control_c, 0, 64, 80
2, 38551, Control_c, 0, 64, 75
2, 38556, Note_on_c, 0, 46, 95
2, 38566, Control_c, 0, 64, 66
2, 38581, Control_c, 0, 64, 20
2, 38597, Control_c, 0, 64, 0
2, 38608, Note_on_c, 0, 65, 0
2, 38820, Note_on_c, 0, 69, 0
2, 38855, Control_c, 0, 64, 37
2, 38871, Control_c, 0, 64, 56
2, 38886, Control_c, 0, 64, 61
2, 38901, Control_c, 0, 64, 64
2, 38916, Control_c, 0, 64, 65
2, 38932, Control_c, 0, 64, 67
2, 38948, Control_c, 0, 64, 69
2, 38963, Control_c, 0, 64, 71
2, 38977, Control_c, 0, 64, 74
2, 39001, Control_c, 0, 64, 75
2, 39016, Control_c, 0, 64, 76
2, 39032, Control_c, 0, 64, 77
2, 39077, Control_c, 0, 64, 77
2, 39137, Control_c, 0, 64, 78
2, 39148, Note_on_c, 0, 64, 80
2, 39229, Control_c, 0, 64, 77
2, 39244, Control_c, 0, 64, 74
2, 39249, Note_on_c, 0, 65, 86
2, 39258, Control_c, 0, 64, 68
2, 39267, Note_on_c, 0, 64, 0
2, 39274, Control_c, 0, 64, 48
2, 39289, Control_c, 0, 64, 0
2, 39396, Control_c, 0, 64, 32
2, 39411, Control_c, 0, 64, 58
2, 39426, Control_c, 0, 64, 62
2, 39441, Control_c, 0, 64, 64
2, 39456, Control_c, 0, 64, 66
2, 39472, Control_c, 0, 64, 70
2, 39487, Control_c, 0, 64, 73
2, 39502, Control_c, 0, 64, 76
2, 39517, Control_c, 0, 64, 78
2, 39532, Control_c, 0, 64, 79
2, 39547, Note_on_c, 0, 46, 0
2, 39548, Control_c, 0, 64, 80
2, 39578, Control_c, 0, 64, 80
2, 39608, Control_c, 0, 64, 81
2, 39655, Control_c, 0, 64, 81
2, 39700, Control_c, 0, 64, 82
2, 39746, Control_c, 0, 64, 82
2, 39759, Note_on_c, 0, 62, 76
2, 39769, Note_on_c, 0, 65, 0
2, 39799, Control_c, 0, 64, 83
2, 39909, Note_on_c, 0, 68, 80
2, 39924, Note_on_c, 0, 47, 67
2, 39936, Control_c, 0, 64, 81
2, 39951, Control_c, 0, 64, 77
2, 39958, Note_on_c, 0, 69, 77
2, 39960, Note_on_c, 0, 68, 0
2, 39966, Control_c, 0, 64, 70
2, 39981, Control_c, 0, 64, 52
2, 39997, Control_c, 0, 64, 0
2, 40014, Note_on_c, 0, 68, 80
2, 40022, Note_on_c, 0, 74, 0
2, 40022, Note_on_c, 0, 74, 3
2, 40028, Note_on_c, 0, 69, 0
2, 40030, Note_on_c, 0, 62, 0
2, 40165, Control_c, 0, 64, 45
2, 40181, Control_c, 0, 64, 58
2, 40196, Control_c, 0, 64, 62
2, 40211, Control_c, 0, 64, 64
2, 40227, Control_c, 0, 64, 67
2, 40241, Control_c, 0, 64, 70
2, 40256, Control_c, 0, 64, 75
2, 40272, Control_c, 0, 64, 78
2, 40287, Control_c, 0, 64, 80
2, 40303, Control_c, 0, 64, 81
2, 40318, Control_c, 0, 64, 82
2, 40333, Control_c, 0, 64, 83
2, 40349, Control_c, 0, 64, 84
2, 40363, Control_c, 0, 64, 84
2, 40379, Control_c, 0, 64, 85
2, 40409, Control_c, 0, 64, 85
2, 40439, Control_c, 0, 64, 86
2, 40485, Note_on_c, 0, 49, 70
2, 40569, Control_c, 0, 64, 85
2, 40585, Control_c, 0, 64, 83
2, 40599, Control_c, 0, 64, 77
2, 40600, Note_on_c, 0, 50, 77
2, 40614, Control_c, 0, 64, 68
2, 40630, Control_c, 0, 64, 32
2, 40639, Note_on_c, 0, 49, 0
2, 40645, Control_c, 0, 64, 0
2, 40767, Control_c, 0, 64, 44
2, 40783, Control_c, 0, 64, 56
2, 40797, Control_c, 0, 64, 61
2, 40812, Control_c, 0, 64, 64
2, 40828, Control_c, 0, 64, 65
2, 40828, Note_on_c, 0, 68, 0
2, 40843, Control_c, 0, 64, 68
2, 40859, Control_c, 0, 64, 71
2, 40873, Control_c, 0, 64, 75
2, 40888, Control_c, 0, 64, 77
2, 40904, Control_c, 0, 64, 78
2, 40934, Control_c, 0, 64, 79
2, 40949, Control_c, 0, 64, 79
2, 40980, Control_c, 0, 64, 80
2, 41009, Control_c, 0, 64, 80
2, 41125, Note_on_c, 0, 47, 0
2, 41134, Note_on_c, 0, 50, 0
2, 41136, Note_on_c, 0, 68, 81
2, 41150, Note_on_c, 0, 52, 59
2, 41240, Control_c, 0, 64, 79
2, 41249, Note_on_c, 0, 52, 0
2, 41256, Control_c, 0, 64, 74
2, 41258, Note_on_c, 0, 68, 0
2, 41258, Note_on_c, 0, 69, 85
2, 41271, Control_c, 0, 64, 66
2, 41273, Note_on_c, 0, 53, 67
2, 41274, Note_on_c, 0, 45, 60
2, 41286, Control_c, 0, 64, 0
2, 41351, Note_on_c, 0, 74, 0
2, 41416, Control_c, 0, 64, 53
2, 41431, Control_c, 0, 64, 60
2, 41445, Control_c, 0, 64, 62
2, 41461, Control_c, 0, 64, 64
2, 41476, Control_c, 0, 64, 66
2, 41492, Control_c, 0, 64, 69
2, 41507, Control_c, 0, 64, 72
2, 41521, Control_c, 0, 64, 76
2, 41537, Control_c, 0, 64, 78
2, 41552, Control_c, 0, 64, 79
2, 41567, Control_c, 0, 64, 79
2, 41598, Control_c, 0, 64, 80
2, 41614, Control_c, 0, 64, 80
2, 41629, Control_c, 0, 64, 81
2, 41643, Control_c, 0, 64, 81
2, 41745, Note_on_c, 0, 69, 0
2, 41805, Note_on_c, 0, 74, 73
2, 41856, Control_c, 0, 64, 82
2, 41902, Control_c, 0, 64, 81
2, 41917, Control_c, 0, 64, 80
2, 41918, Note_on_c, 0, 76, 83
2, 41922, Note_on_c, 0, 70, 78
2, 41926, Note_on_c, 0, 55, 66
2, 41927, Note_on_c, 0, 74, 0
2, 41932, Control_c, 0, 64, 74
2, 41947, Control_c, 0, 64, 64
2, 41962, Control_c, 0, 64, 0
2, 42003, Note_on_c, 0, 53, 0
2, 42065, Control_c, 0, 64, 59
2, 42088, Control_c, 0, 64, 64
2, 42105, Control_c, 0, 64, 66
2, 42120, Control_c, 0, 64, 68
2, 42135, Control_c, 0, 64, 70
2, 42140, Note_on_c, 0, 76, 0
2, 42150, Control_c, 0, 64, 73
2, 42165, Control_c, 0, 64, 76
2, 42180, Control_c, 0, 64, 78
2, 42196, Control_c, 0, 64, 80
2, 42210, Control_c, 0, 64, 81
2, 42226, Control_c, 0, 64, 81
2, 42241, Control_c, 0, 64, 82
2, 42256, Control_c, 0, 64, 82
2, 42272, Control_c, 0, 64, 83
2, 42286, Control_c, 0, 64, 83
2, 42301, Control_c, 0, 64, 84
2, 42332, Control_c, 0, 64, 84
2, 42434, Note_on_c, 0, 79, 80
2, 42481, Note_on_c, 0, 79, 0
2, 42560, Control_c, 0, 64, 81
2, 42560, Note_on_c, 0, 73, 76
2, 42568, Note_on_c, 0, 55, 0
2, 42575, Control_c, 0, 64, 76
2, 42582, Note_on_c, 0, 57, 66
2, 42591, Control_c, 0, 64, 64
2, 42605, Control_c, 0, 64, 0
2, 42696, Control_c, 0, 64, 46
2, 42712, Control_c, 0, 64, 61
2, 42727, Control_c, 0, 64, 64
2, 42742, Control_c, 0, 64, 66
2, 42757, Control_c, 0, 64, 68
2, 42771, Control_c, 0, 64, 70
2, 42787, Control_c, 0, 64, 73
2, 42799, Note_on_c, 0, 70, 0
2, 42802, Control_c, 0, 64, 76
2, 42816, Control_c, 0, 64, 78
2, 42840, Control_c, 0, 64, 79
2, 42871, Control_c, 0, 64, 79
2, 42916, Control_c, 0, 64, 80
2, 42932, Control_c, 0, 64, 80
2, 42948, Control_c, 0, 64, 81
2, 43089, Note_on_c, 0, 73, 0
2, 43115, Control_c, 0, 64, 81
2, 43116, Note_on_c, 0, 69, 57
2, 43124, Note_on_c, 0, 74, 71
2, 43175, Control_c, 0, 64, 81
2, 43191, Control_c, 0, 64, 80
2, 43205, Control_c, 0, 64, 76
2, 43217, Note_on_c, 0, 69, 0
2, 43220, Control_c, 0, 64, 68
2, 43236, Control_c, 0, 64, 28
2, 43239, Note_on_c, 0, 49, 54
2, 43246, Note_on_c, 0, 76, 75
2, 43248, Note_on_c, 0, 45, 0
2, 43251, Control_c, 0, 64, 0
2, 43259, Note_on_c, 0, 64, 50
2, 43289, Note_on_c, 0, 74, 0
2, 43342, Control_c, 0, 64, 36
2, 43358, Control_c, 0, 64, 59
2, 43373, Control_c, 0, 64, 63
2, 43389, Control_c, 0, 64, 64
2, 43403, Control_c, 0, 64, 66
2, 43418, Control_c, 0, 64, 69
2, 43434, Control_c, 0, 64, 72
2, 43449, Control_c, 0, 64, 75
2, 43463, Control_c, 0, 64, 78
2, 43479, Control_c, 0, 64, 79
2, 43494, Control_c, 0, 64, 79
2, 43539, Control_c, 0, 64, 80
2, 43555, Control_c, 0, 64, 80
2, 43570, Control_c, 0, 64, 81
2, 43633, Note_on_c, 0, 49, 0
2, 43654, Control_c, 0, 64, 81
2, 43662, Note_on_c, 0, 64, 0
2, 43770, Note_on_c, 0, 67, 70
2, 43871, Note_on_c, 0, 67, 0
2, 43893, Note_on_c, 0, 65, 68
2, 43897, Control_c, 0, 64, 81
2, 43900, Note_on_c, 0, 50, 59
2, 43913, Control_c, 0, 64, 79
2, 43928, Control_c, 0, 64, 74
2, 43943, Control_c, 0, 64, 65
2, 43959, Control_c, 0, 64, 0
2, 44065, Control_c, 0, 64, 42
2, 44080, Control_c, 0, 64, 59
2, 44094, Control_c, 0, 64, 62
2, 44110, Control_c, 0, 64, 64
2, 44125, Control_c, 0, 64, 66
2, 44140, Control_c, 0, 64, 68
2, 44150, Note_on_c, 0, 76, 0
2, 44156, Control_c, 0, 64, 71
2, 44171, Control_c, 0, 64, 74
2, 44187, Control_c, 0, 64, 75
2, 44202, Control_c, 0, 64, 76
2, 44232, Control_c, 0, 64, 76
2, 44247, Control_c, 0, 64, 77
2, 44262, Control_c, 0, 64, 77
2, 44293, Control_c, 0, 64, 78
2, 44450, Note_on_c, 0, 74, 77
2, 44543, Control_c, 0, 64, 76
2, 44553, Note_on_c, 0, 74, 0
2, 44559, Control_c, 0, 64, 74
2, 44559, Note_on_c, 0, 69, 77
2, 44574, Control_c, 0, 64, 68
2, 44577, Note_on_c, 0, 53, 56
2, 44590, Control_c, 0, 64, 49
2, 44605, Control_c, 0, 64, 0
2, 44712, Control_c, 0, 64, 53
2, 44727, Control_c, 0, 64, 59
2, 44741, Control_c, 0, 64, 61
2, 44757, Control_c, 0, 64, 63
2, 44772, Control_c, 0, 64, 65
2, 44788, Control_c, 0, 64, 67
2, 44803, Control_c, 0, 64, 71
2, 44817, Control_c, 0, 64, 74
2, 44833, Control_c, 0, 64, 76
2, 44878, Control_c, 0, 64, 76
2, 44909, Control_c, 0, 64, 77
2, 44924, Control_c, 0, 64, 77
2, 44969, Control_c, 0, 64, 78
2, 45000, Control_c, 0, 64, 78
2, 45100, Note_on_c, 0, 72, 74
2, 45107, Note_on_c, 0, 69, 0
2, 45205, Control_c, 0, 64, 78
2, 45219, Note_on_c, 0, 70, 76
2, 45219, Note_on_c, 0, 72, 0
2, 45220, Control_c, 0, 64, 76
2, 45235, Control_c, 0, 64, 72
2, 45247, Note_on_c, 0, 65, 0
2, 45250, Control_c, 0, 64, 65
2, 45266, Control_c, 0, 64, 32
2, 45281, Control_c, 0, 64, 0
2, 45372, Control_c, 0, 64, 38
2, 45380, Note_on_c, 0, 57, 0
2, 45388, Control_c, 0, 64, 58
2, 45403, Control_c, 0, 64, 61
2, 45418, Control_c, 0, 64, 62
2, 45434, Control_c, 0, 64, 64
2, 45449, Control_c, 0, 64, 66
2, 45465, Control_c, 0, 64, 68
2, 45480, Control_c, 0, 64, 71
2, 45495, Control_c, 0, 64, 74
2, 45510, Control_c, 0, 64, 76
2, 45525, Control_c, 0, 64, 77
2, 45540, Control_c, 0, 64, 77
2, 45586, Control_c, 0, 64, 78
2, 45601, Control_c, 0, 64, 78
2, 45632, Control_c, 0, 64, 79
2, 45764, Note_on_c, 0, 65, 70
2, 45776, Note_on_c, 0, 57, 53
2, 45812, Note_on_c, 0, 53, 0
2, 45813, Control_c, 0, 64, 78
2, 45829, Control_c, 0, 64, 77
2, 45843, Control_c, 0, 64, 72
2, 45858, Control_c, 0, 64, 64
2, 45871, Note_on_c, 0, 57, 0
2, 45874, Control_c, 0, 64, 0
2, 45874, Note_on_c, 0, 65, 0
2, 45880, Note_on_c, 0, 64, 67
2, 45892, Note_on_c, 0, 55, 53
2, 45988, Control_c, 0, 64, 13
2, 46002, Control_c, 0, 64, 55
2, 46017, Control_c, 0, 64, 60
2, 46033, Control_c, 0, 64, 63
2, 46048, Control_c, 0, 64, 64
2, 46063, Control_c, 0, 64, 67
2, 46079, Control_c, 0, 64, 70
2, 46094, Control_c, 0, 64, 74
2, 46110, Control_c, 0, 64, 76
2, 46124, Control_c, 0, 64, 77
2, 46139, Control_c, 0, 64, 78
2, 46170, Control_c, 0, 64, 78
2, 46186, Control_c, 0, 64, 79
2, 46247, Control_c, 0, 64, 79
2, 46418, Note_on_c, 0, 67, 68
2, 46428, Note_on_c, 0, 53, 53
2, 46428, Note_on_c, 0, 64, 0
2, 46474, Control_c, 0, 64, 79
2, 46489, Control_c, 0, 64, 77
2, 46505, Control_c, 0, 64, 72
2, 46510, Note_on_c, 0, 55, 0
2, 46520, Control_c, 0, 64, 62
2, 46532, Note_on_c, 0, 53, 0
2, 46535, Control_c, 0, 64, 0
2, 46540, Note_on_c, 0, 67, 0
2, 46547, Note_on_c, 0, 61, 69
2, 46550, Note_on_c, 0, 52, 62
2, 46641, Control_c, 0, 64, 55
2, 46656, Control_c, 0, 64, 62
2, 46672, Control_c, 0, 64, 65
2, 46694, Control_c, 0, 64, 66
2, 46709, Note_on_c, 0, 70, 0
2, 46710, Control_c, 0, 64, 68
2, 46725, Control_c, 0, 64, 70
2, 46740, Control_c, 0, 64, 73
2, 46755, Control_c, 0, 64, 77
2, 46770, Control_c, 0, 64, 79
2, 46786, Control_c, 0, 64, 81
2, 46816, Control_c, 0, 64, 81
2, 46846, Control_c, 0, 64, 82
2, 47109, Note_on_c, 0, 70, 80
2, 47212, Control_c, 0, 64, 79
2, 47228, Control_c, 0, 64, 74
2, 47232, Note_on_c, 0, 69, 81
2, 47241, Note_on_c, 0, 52, 0
2, 47243, Control_c, 0, 64, 63
2, 47247, Note_on_c, 0, 53, 59
2, 47254, Note_on_c, 0, 70, 0
2, 47258, Control_c, 0, 64, 0
2, 47394, Control_c, 0, 64, 57
2, 47409, Control_c, 0, 64, 62
2, 47425, Control_c, 0, 64, 64
2, 47448, Control_c, 0, 64, 66
2, 47463, Control_c, 0, 64, 68
2, 47478, Control_c, 0, 64, 72
2, 47493, Control_c, 0, 64, 75
2, 47509, Control_c, 0, 64, 77
2, 47523, Control_c, 0, 64, 77
2, 47554, Control_c, 0, 64, 78
2, 47569, Control_c, 0, 64, 78
2, 47585, Control_c, 0, 64, 79
2, 47614, Control_c, 0, 64, 79
2, 47787, Note_on_c, 0, 67, 71
2, 47789, Note_on_c, 0, 69, 0
2, 47874, Note_on_c, 0, 53, 0
2, 47889, Note_on_c, 0, 67, 0
2, 47905, Control_c, 0, 64, 78
2, 47913, Note_on_c, 0, 76, 81
2, 47919, Control_c, 0, 64, 75
2, 47923, Note_on_c, 0, 55, 51
2, 47934, Control_c, 0, 64, 69
2, 47950, Control_c, 0, 64, 55
2, 47965, Control_c, 0, 64, 0
2, 48072, Control_c, 0, 64, 54
2, 48087, Control_c, 0, 64, 61
2, 48102, Control_c, 0, 64, 64
2, 48117, Control_c, 0, 64, 66
2, 48132, Control_c, 0, 64, 69
2, 48148, Control_c, 0, 64, 72
2, 48162, Control_c, 0, 64, 75
2, 48177, Control_c, 0, 64, 78
2, 48193, Control_c, 0, 64, 79
2, 48208, Control_c, 0, 64, 80
2, 48261, Control_c, 0, 64, 80
2, 48277, Control_c, 0, 64, 81
2, 48292, Control_c, 0, 64, 81
2, 48322, Control_c, 0, 64, 82
2, 48445, Note_on_c, 0, 76, 0
2, 48486, Note_on_c, 0, 67, 69
2, 48588, Note_on_c, 0, 66, 77
2, 48593, Note_on_c, 0, 67, 0
2, 48600, Note_on_c, 0, 58, 64
2, 48610, Control_c, 0, 64, 81
2, 48626, Control_c, 0, 64, 78
2, 48641, Control_c, 0, 64, 70
2, 48657, Control_c, 0, 64, 38
2, 48673, Control_c, 0, 64, 0
2, 48708, Note_on_c, 0, 55, 0
2, 48749, Control_c, 0, 64, 28
2, 48763, Control_c, 0, 64, 60
2, 48778, Control_c, 0, 64, 64
2, 48794, Control_c, 0, 64, 66
2, 48809, Control_c, 0, 64, 69
2, 48825, Control_c, 0, 64, 72
2, 48840, Control_c, 0, 64, 76
2, 48846, Note_on_c, 0, 58, 0
2, 48855, Control_c, 0, 64, 79
2, 48855, Note_on_c, 0, 61, 0
2, 48870, Control_c, 0, 64, 81
2, 48885, Control_c, 0, 64, 82
2, 48900, Control_c, 0, 64, 82
2, 48916, Control_c, 0, 64, 83
2, 48930, Control_c, 0, 64, 83
2, 48946, Control_c, 0, 64, 84
2, 48961, Control_c, 0, 64, 84
2, 48963, Note_on_c, 0, 50, 0
2, 49014, Control_c, 0, 64, 85
2, 49167, Note_on_c, 0, 66, 0
2, 49169, Note_on_c, 0, 64, 69
2, 49245, Note_on_c, 0, 64, 0
2, 49257, Control_c, 0, 64, 84
2, 49273, Control_c, 0, 64, 82
2, 49278, Note_on_c, 0, 66, 75
2, 49283, Note_on_c, 0, 62, 63
2, 49287, Control_c, 0, 64, 79
2, 49288, Note_on_c, 0, 57, 51
2, 49300, Note_on_c, 0, 48, 47
2, 49302, Control_c, 0, 64, 74
2, 49318, Control_c, 0, 64, 66
2, 49333, Control_c, 0, 64, 36
2, 49348, Control_c, 0, 64, 0
2, 49858, Note_on_c, 0, 67, 69
2, 49918, Note_on_c, 0, 66, 0
2, 49969, Note_on_c, 0, 69, 72
2, 49995, Note_on_c, 0, 67, 0
2, 50192, Control_c, 0, 64, 29
2, 50207, Control_c, 0, 64, 54
2, 50222, Control_c, 0, 64, 62
2, 50238, Control_c, 0, 64, 65
2, 50253, Control_c, 0, 64, 67
2, 50268, Control_c, 0, 64, 70
2, 50284, Control_c, 0, 64, 72
2, 50299, Control_c, 0, 64, 74
2, 50315, Control_c, 0, 64, 76
2, 50330, Control_c, 0, 64, 77
2, 50375, Control_c, 0, 64, 78
2, 50391, Control_c, 0, 64, 78
2, 50462, Note_on_c, 0, 48, 0
2, 50490, Note_on_c, 0, 54, 54
2, 50509, Note_on_c, 0, 57, 0
2, 50580, Control_c, 0, 64, 77
2, 50596, Control_c, 0, 64, 75
2, 50609, Note_on_c, 0, 54, 0
2, 50611, Control_c, 0, 64, 67
2, 50619, Note_on_c, 0, 46, 60
2, 50626, Control_c, 0, 64, 38
2, 50626, Note_on_c, 0, 50, 54
2, 50641, Control_c, 0, 64, 0
2, 50684, Note_on_c, 0, 62, 0
2, 50717, Control_c, 0, 64, 45
2, 50732, Control_c, 0, 64, 60
2, 50748, Control_c, 0, 64, 64
2, 50763, Control_c, 0, 64, 65
2, 50778, Control_c, 0, 64, 67
2, 50793, Control_c, 0, 64, 68
2, 50808, Control_c, 0, 64, 71
2, 50823, Control_c, 0, 64, 73
2, 50839, Control_c, 0, 64, 76
2, 50854, Control_c, 0, 64, 77
2, 50866, Note_on_c, 0, 69, 0
2, 50870, Control_c, 0, 64, 78
2, 50885, Control_c, 0, 64, 78
2, 51181, Note_on_c, 0, 62, 74
2, 51268, Note_on_c, 0, 62, 0
2, 51288, Control_c, 0, 64, 77
2, 51301, Note_on_c, 0, 67, 77
2, 51303, Control_c, 0, 64, 73
2, 51313, Note_on_c, 0, 58, 62
2, 51319, Control_c, 0, 64, 65
2, 51334, Control_c, 0, 64, 0
2, 51409, Control_c, 0, 64, 27
2, 51425, Control_c, 0, 64, 57
2, 51440, Control_c, 0, 64, 62
2, 51455, Control_c, 0, 64, 64
2, 51470, Control_c, 0, 64, 66
2, 51485, Control_c, 0, 64, 69
2, 51500, Control_c, 0, 64, 72
2, 51516, Control_c, 0, 64, 75
2, 51531, Control_c, 0, 64, 77
2, 51546, Control_c, 0, 64, 79
2, 51561, Control_c, 0, 64, 79
2, 51576, Control_c, 0, 64, 80
2, 51585, Note_on_c, 0, 50, 0
2, 51606, Note_on_c, 0, 58, 0
2, 51726, Note_on_c, 0, 46, 0
2, 51885, Note_on_c, 0, 70, 76
2, 51918, Note_on_c, 0, 67, 0
2, 51942, Control_c, 0, 64, 79
2, 51958, Control_c, 0, 64, 79
2, 51973, Control_c, 0, 64, 77
2, 51989, Control_c, 0, 64, 74
2, 52001, Note_on_c, 0, 72, 72
2, 52004, Control_c, 0, 64, 68
2, 52008, Note_on_c, 0, 51, 56
2, 52011, Note_on_c, 0, 70, 0
2, 52019, Control_c, 0, 64, 56
2, 52025, Note_on_c, 0, 45, 45
2, 52034, Control_c, 0, 64, 0
2, 52560, Note_on_c, 0, 67, 61
2, 52663, Note_on_c, 0, 67, 0
2, 52688, Note_on_c, 0, 66, 68
2, 52701, Note_on_c, 0, 48, 47
2, 52719, Note_on_c, 0, 51, 0
2, 52871, Control_c, 0, 64, 46
2, 52885, Control_c, 0, 64, 59
2, 52900, Control_c, 0, 64, 63
2, 52916, Control_c, 0, 64, 65
2, 52931, Control_c, 0, 64, 67
2, 52947, Control_c, 0, 64, 70
2, 52961, Control_c, 0, 64, 74
2, 52976, Control_c, 0, 64, 76
2, 52992, Control_c, 0, 64, 77
2, 53007, Control_c, 0, 64, 78
2, 53022, Control_c, 0, 64, 79
2, 53037, Control_c, 0, 64, 79
2, 53052, Control_c, 0, 64, 80
2, 53068, Control_c, 0, 64, 81
2, 53122, Note_on_c, 0, 66, 0
2, 53278, Note_on_c, 0, 64, 67
2, 53356, Control_c, 0, 64, 80
2, 53371, Control_c, 0, 64, 78
2, 53382, Note_on_c, 0, 64, 0
2, 53387, Control_c, 0, 64, 75
2, 53392, Note_on_c, 0, 66, 75
2, 53402, Control_c, 0, 64, 68
2, 53416, Control_c, 0, 64, 42
2, 53417, Note_on_c, 0, 50, 49
2, 53418, Note_on_c, 0, 48, 0
2, 53432, Control_c, 0, 64, 0
2, 53484, Note_on_c, 0, 72, 0
2, 53585, Control_c, 0, 64, 44
2, 53607, Control_c, 0, 64, 60
2, 53622, Control_c, 0, 64, 64
2, 53638, Control_c, 0, 64, 66
2, 53652, Control_c, 0, 64, 70
2, 53668, Control_c, 0, 64, 74
2, 53683, Control_c, 0, 64, 79
2, 53698, Control_c, 0, 64, 81
2, 53706, Note_on_c, 0, 45, 0
2, 53714, Control_c, 0, 64, 82
2, 53728, Control_c, 0, 64, 82
2, 53759, Control_c, 0, 64, 83
2, 53805, Control_c, 0, 64, 83
2, 54002, Note_on_c, 0, 74, 66
2, 54033, Control_c, 0, 64, 83
2, 54048, Control_c, 0, 64, 80
2, 54062, Control_c, 0, 64, 74
2, 54078, Control_c, 0, 64, 62
2, 54093, Control_c, 0, 64, 0
2, 54131, Note_on_c, 0, 69, 66
2, 54134, Note_on_c, 0, 74, 0
2, 54135, Note_on_c, 0, 38, 45
2, 54321, Control_c, 0, 64, 63
2, 54336, Control_c, 0, 64, 70
2, 54352, Control_c, 0, 64, 74
2, 54374, Control_c, 0, 64, 78
2, 54391, Control_c, 0, 64, 81
2, 54404, Note_on_c, 0, 38, 0
2, 54406, Control_c, 0, 64, 83
2, 54421, Control_c, 0, 64, 85
2, 54437, Control_c, 0, 64, 87
2, 54451, Control_c, 0, 64, 88
2, 54467, Control_c, 0, 64, 89
2, 54482, Control_c, 0, 64, 90
2, 54542, Control_c, 0, 64, 90
2, 54709, Note_on_c, 0, 69, 0
2, 54733, Note_on_c, 0, 72, 67
2, 54763, Note_on_c, 0, 66, 0
2, 54786, Control_c, 0, 64, 90
2, 54816, Control_c, 0, 64, 88
2, 54832, Control_c, 0, 64, 85
2, 54846, Control_c, 0, 64, 81
2, 54847, Note_on_c, 0, 70, 71
2, 54849, Note_on_c, 0, 72, 0
2, 54861, Control_c, 0, 64, 75
2, 54869, Note_on_c, 0, 43, 42
2, 54877, Control_c, 0, 64, 68
2, 54892, Control_c, 0, 64, 51
2, 54907, Control_c, 0, 64, 0
2, 55441, Note_on_c, 0, 67, 61
2, 55558, Note_on_c, 0, 62, 52
2, 55579, Note_on_c, 0, 46, 39
2, 55588, Note_on_c, 0, 67, 0
2, 55599, Control_c, 0, 67, 11
2, 55614, Control_c, 0, 67, 17
2, 55626, Note_on_c, 0, 50, 0
2, 55630, Control_c, 0, 67, 26
2, 55645, Control_c, 0, 67, 36
2, 55660, Control_c, 0, 67, 45
2, 55675, Control_c, 0, 67, 52
2, 55690, Control_c, 0, 67, 54
2, 55706, Control_c, 0, 67, 55
2, 55736, Control_c, 0, 67, 54
2, 55751, Control_c, 0, 64, 45
2, 55751, Control_c, 0, 67, 53
2, 55766, Control_c, 0, 64, 59
2, 55766, Control_c, 0, 67, 53
2, 55781, Control_c, 0, 64, 63
2, 55781, Control_c, 0, 67, 52
2, 55797, Control_c, 0, 64, 65
2, 55797, Control_c, 0, 67, 52
2, 55810, Control_c, 0, 64, 67
2, 55810, Control_c, 0, 67, 51
2, 55825, Control_c, 0, 64, 69
2, 55825, Control_c, 0, 67, 50
2, 55841, Control_c, 0, 64, 72
2, 55841, Control_c, 0, 67, 50
2, 55856, Control_c, 0, 64, 75
2, 55856, Control_c, 0, 67, 49
2, 55870, Control_c, 0, 64, 77
2, 55886, Control_c, 0, 64, 78
2, 55970, Control_c, 0, 67, 48
2, 55981, Note_on_c, 0, 62, 0
2, 55985, Control_c, 0, 64, 78
2, 56077, Control_c, 0, 64, 78
2, 56095, Note_on_c, 0, 65, 59
2, 56105, Note_on_c, 0, 50, 47
2, 56107, Control_c, 0, 64, 76
2, 56123, Control_c, 0, 64, 73
2, 56126, Note_on_c, 0, 46, 0
2, 56138, Control_c, 0, 64, 67
2, 56138, Control_c, 0, 67, 48
2, 56154, Control_c, 0, 64, 58
2, 56169, Control_c, 0, 64, 10
2, 56171, Note_on_c, 0, 70, 0
2, 56183, Control_c, 0, 64, 0
2, 56183, Control_c, 0, 67, 47
2, 56204, Note_on_c, 0, 65, 0
2, 56214, Control_c, 0, 67, 47
2, 56220, Note_on_c, 0, 63, 59
2, 56223, Note_on_c, 0, 50, 0
2, 56229, Control_c, 0, 67, 46
2, 56241, Note_on_c, 0, 55, 47
2, 56245, Control_c, 0, 67, 45
2, 56259, Control_c, 0, 67, 44
2, 56275, Control_c, 0, 67, 43
2, 56290, Control_c, 0, 67, 43
2, 56304, Control_c, 0, 67, 42
2, 56320, Control_c, 0, 64, 34
2, 56320, Control_c, 0, 67, 41
2, 56335, Control_c, 0, 64, 48
2, 56335, Control_c, 0, 67, 39
2, 56350, Control_c, 0, 64, 56
2, 56350, Control_c, 0, 67, 35
2, 56366, Control_c, 0, 64, 61
2, 56366, Control_c, 0, 67, 31
2, 56380, Control_c, 0, 64, 63
2, 56380, Control_c, 0, 67, 27
2, 56396, Control_c, 0, 64, 65
2, 56396, Control_c, 0, 67, 22
2, 56404, Note_on_c, 0, 43, 0
2, 56411, Control_c, 0, 64, 67
2, 56411, Control_c, 0, 67, 20
2, 56426, Control_c, 0, 64, 69
2, 56426, Control_c, 0, 67, 16
2, 56442, Control_c, 0, 64, 72
2, 56442, Control_c, 0, 67, 12
2, 56456, Control_c, 0, 64, 74
2, 56456, Control_c, 0, 67, 0
2, 56472, Control_c, 0, 64, 76
2, 56487, Control_c, 0, 64, 78
2, 56518, Control_c, 0, 64, 79
2, 56521, Note_on_c, 0, 63, 0
2, 56594, Control_c, 0, 64, 79
2, 56762, Note_on_c, 0, 70, 76
2, 56837, Note_on_c, 0, 70, 0
2, 56845, Control_c, 0, 64, 78
2, 56860, Control_c, 0, 64, 76
2, 56876, Control_c, 0, 64, 71
2, 56880, Note_on_c, 0, 75, 80
2, 56887, Note_on_c, 0, 58, 60
2, 56890, Control_c, 0, 64, 64
2, 56905, Control_c, 0, 64, 35
2, 56921, Control_c, 0, 64, 0
2, 57058, Control_c, 0, 64, 49
2, 57074, Control_c, 0, 64, 59
2, 57089, Control_c, 0, 64, 64
2, 57103, Control_c, 0, 64, 67
2, 57119, Control_c, 0, 64, 70
2, 57125, Note_on_c, 0, 55, 0
2, 57134, Control_c, 0, 64, 73
2, 57148, Control_c, 0, 64, 76
2, 57164, Control_c, 0, 64, 78
2, 57179, Control_c, 0, 64, 79
2, 57195, Control_c, 0, 64, 79
2, 57224, Control_c, 0, 64, 80
2, 57270, Control_c, 0, 64, 80
2, 57286, Control_c, 0, 64, 81
2, 57300, Control_c, 0, 64, 81
2, 57322, Note_on_c, 0, 75, 0
2, 57331, Control_c, 0, 64, 82
2, 57376, Control_c, 0, 64, 82
2, 57451, Note_on_c, 0, 79, 82
2, 57536, Note_on_c, 0, 79, 0
2, 57550, Control_c, 0, 64, 81
2, 57566, Control_c, 0, 64, 78
2, 57581, Control_c, 0, 64, 70
2, 57583, Note_on_c, 0, 68, 84
2, 57594, Note_on_c, 0, 60, 59
2, 57597, Control_c, 0, 64, 56
2, 57612, Control_c, 0, 64, 0
2, 57612, Note_on_c, 0, 58, 0
2, 57749, Control_c, 0, 64, 55
2, 57765, Control_c, 0, 64, 63
2, 57780, Control_c, 0, 64, 66
2, 57795, Control_c, 0, 64, 68
2, 57810, Control_c, 0, 64, 70
2, 57825, Control_c, 0, 64, 72
2, 57841, Control_c, 0, 64, 74
2, 57856, Control_c, 0, 64, 76
2, 57870, Control_c, 0, 64, 78
2, 57886, Control_c, 0, 64, 79
2, 57901, Control_c, 0, 64, 80
2, 57916, Control_c, 0, 64, 80
2, 57931, Control_c, 0, 64, 81
2, 57946, Control_c, 0, 64, 82
2, 57949, Note_on_c, 0, 60, 0
2, 57977, Control_c, 0, 64, 82
2, 57992, Control_c, 0, 64, 83
2, 58007, Control_c, 0, 64, 83
2, 58022, Control_c, 0, 64, 84
2, 58083, Control_c, 0, 64, 84
2, 58150, Note_on_c, 0, 62, 75
2, 58156, Note_on_c, 0, 53, 63
2, 58226, Control_c, 0, 64, 83
2, 58242, Control_c, 0, 64, 81
2, 58257, Control_c, 0, 64, 74
2, 58257, Note_on_c, 0, 53, 0
2, 58266, Note_on_c, 0, 63, 79
2, 58273, Control_c, 0, 64, 64
2, 58277, Note_on_c, 0, 62, 0
2, 58278, Note_on_c, 0, 48, 70
2, 58288, Control_c, 0, 64, 0
2, 58440, Control_c, 0, 64, 26
2, 58455, Control_c, 0, 64, 55
2, 58470, Control_c, 0, 64, 62
2, 58486, Control_c, 0, 64, 64
2, 58501, Control_c, 0, 64, 67
2, 58517, Control_c, 0, 64, 69
2, 58532, Control_c, 0, 64, 73
2, 58547, Control_c, 0, 64, 77
2, 58562, Control_c, 0, 64, 79
2, 58577, Control_c, 0, 64, 80
2, 58593, Control_c, 0, 64, 81
2, 58608, Control_c, 0, 64, 82
2, 58623, Control_c, 0, 64, 82
2, 58653, Control_c, 0, 64, 83
2, 58729, Control_c, 0, 64, 83
2, 58792, Note_on_c, 0, 48, 0
2, 58810, Note_on_c, 0, 51, 63
2, 58814, Note_on_c, 0, 60, 70
2, 58898, Note_on_c, 0, 63, 0
2, 58965, Note_on_c, 0, 51, 0
2, 58980, Control_c, 0, 64, 83
2, 58983, Note_on_c, 0, 65, 70
2, 58984, Note_on_c, 0, 50, 63
2, 58996, Control_c, 0, 64, 80
2, 59011, Control_c, 0, 64, 76
2, 59026, Control_c, 0, 64, 68
2, 59028, Note_on_c, 0, 65, 0
2, 59034, Note_on_c, 0, 63, 74
2, 59036, Note_on_c, 0, 60, 0
2, 59041, Control_c, 0, 64, 43
2, 59056, Control_c, 0, 64, 0
2, 59098, Note_on_c, 0, 65, 74
2, 59106, Note_on_c, 0, 63, 0
2, 59254, Control_c, 0, 64, 28
2, 59268, Control_c, 0, 64, 52
2, 59284, Control_c, 0, 64, 59
2, 59300, Control_c, 0, 64, 63
2, 59316, Control_c, 0, 64, 66
2, 59331, Control_c, 0, 64, 68
2, 59346, Control_c, 0, 64, 71
2, 59361, Control_c, 0, 64, 74
2, 59376, Control_c, 0, 64, 77
2, 59392, Control_c, 0, 64, 79
2, 59407, Control_c, 0, 64, 79
2, 59422, Control_c, 0, 64, 80
2, 59437, Control_c, 0, 64, 80
2, 59452, Control_c, 0, 64, 81
2, 59483, Control_c, 0, 64, 81
2, 59550, Note_on_c, 0, 46, 75
2, 59550, Note_on_c, 0, 50, 0
2, 59598, Note_on_c, 0, 46, 0
2, 59650, Control_c, 0, 64, 81
2, 59664, Control_c, 0, 64, 79
2, 59674, Note_on_c, 0, 41, 75
2, 59679, Control_c, 0, 64, 75
2, 59694, Control_c, 0, 64, 68
2, 59709, Control_c, 0, 64, 55
2, 59725, Control_c, 0, 64, 0
2, 59867, Note_on_c, 0, 65, 0
2, 59869, Control_c, 0, 64, 46
2, 59884, Control_c, 0, 64, 56
2, 59899, Control_c, 0, 64, 61
2, 59915, Control_c, 0, 64, 64
2, 59930, Control_c, 0, 64, 67
2, 59944, Control_c, 0, 64, 69
2, 59960, Control_c, 0, 64, 71
2, 59975, Control_c, 0, 64, 73
2, 59990, Control_c, 0, 64, 75
2, 60006, Control_c, 0, 64, 76
2, 60021, Control_c, 0, 64, 78
2, 60037, Control_c, 0, 64, 79
2, 60066, Control_c, 0, 64, 80
2, 60097, Control_c, 0, 64, 80
2, 60128, Control_c, 0, 64, 81
2, 60232, Note_on_c, 0, 41, 0
2, 60241, Note_on_c, 0, 65, 73
2, 60251, Note_on_c, 0, 44, 56
2, 60285, Note_on_c, 0, 44, 0
2, 60339, Control_c, 0, 64, 79
2, 60341, Note_on_c, 0, 68, 0
2, 60354, Control_c, 0, 64, 75
2, 60363, Note_on_c, 0, 58, 76
2, 60369, Control_c, 0, 64, 68
2, 60373, Note_on_c, 0, 43, 64
2, 60384, Control_c, 0, 64, 56
2, 60396, Note_on_c, 0, 65, 0
2, 60400, Control_c, 0, 64, 0
2, 60939, Note_on_c, 0, 62, 68
2, 61048, Note_on_c, 0, 65, 74
2, 61057, Note_on_c, 0, 46, 59
2, 61066, Note_on_c, 0, 62, 0
2, 61259, Control_c, 0, 64, 32
2, 61282, Control_c, 0, 64, 41
2, 61297, Control_c, 0, 64, 46
2, 61312, Control_c, 0, 64, 49
2, 61328, Control_c, 0, 64, 50
2, 61357, Control_c, 0, 64, 49
2, 61464, Control_c, 0, 64, 48
2, 61525, Control_c, 0, 64, 49
2, 61571, Control_c, 0, 64, 48
2, 61606, Note_on_c, 0, 68, 71
2, 61630, Control_c, 0, 64, 48
2, 61636, Note_on_c, 0, 65, 0
2, 61646, Control_c, 0, 64, 47
2, 61661, Control_c, 0, 64, 45
2, 61676, Control_c, 0, 64, 40
2, 61692, Control_c, 0, 64, 23
2, 61706, Control_c, 0, 64, 0
2, 61722, Note_on_c, 0, 67, 75
2, 61743, Note_on_c, 0, 68, 0
2, 61747, Note_on_c, 0, 51, 50
2, 61820, Note_on_c, 0, 58, 0
2, 61967, Control_c, 0, 64, 40
2, 61982, Control_c, 0, 64, 55
2, 61997, Control_c, 0, 64, 61
2, 62012, Control_c, 0, 64, 63
2, 62027, Control_c, 0, 64, 65
2, 62051, Control_c, 0, 64, 67
2, 62065, Control_c, 0, 64, 69
2, 62081, Control_c, 0, 64, 72
2, 62096, Control_c, 0, 64, 73
2, 62111, Control_c, 0, 64, 74
2, 62127, Control_c, 0, 64, 74
2, 62279, Note_on_c, 0, 58, 64
2, 62324, Control_c, 0, 64, 74
2, 62339, Control_c, 0, 64, 73
2, 62354, Control_c, 0, 64, 71
2, 62370, Control_c, 0, 64, 67
2, 62382, Note_on_c, 0, 58, 0
2, 62385, Control_c, 0, 64, 59
2, 62389, Note_on_c, 0, 63, 69
2, 62400, Control_c, 0, 64, 35
2, 62400, Note_on_c, 0, 55, 53
2, 62415, Control_c, 0, 64, 0
2, 62450, Note_on_c, 0, 51, 0
2, 62506, Control_c, 0, 64, 13
2, 62522, Control_c, 0, 64, 52
2, 62537, Control_c, 0, 64, 58
2, 62551, Control_c, 0, 64, 60
2, 62567, Control_c, 0, 64, 62
2, 62583, Control_c, 0, 64, 64
2, 62599, Control_c, 0, 64, 66
2, 62614, Control_c, 0, 64, 69
2, 62628, Control_c, 0, 64, 72
2, 62644, Control_c, 0, 64, 74
2, 62659, Control_c, 0, 64, 76
2, 62663, Note_on_c, 0, 67, 0
2, 62674, Control_c, 0, 64, 77
2, 62690, Control_c, 0, 64, 77
2, 62712, Note_on_c, 0, 43, 0
2, 62720, Control_c, 0, 64, 78
2, 62735, Control_c, 0, 64, 78
2, 62750, Control_c, 0, 64, 79
2, 62817, Note_on_c, 0, 46, 0
2, 62833, Control_c, 0, 64, 79
2, 62969, Note_on_c, 0, 67, 75
2, 62979, Note_on_c, 0, 63, 0
2, 63001, Control_c, 0, 64, 79
2, 63031, Control_c, 0, 64, 78
2, 63046, Control_c, 0, 64, 76
2, 63061, Control_c, 0, 64, 71
2, 63066, Note_on_c, 0, 55, 0
2, 63076, Control_c, 0, 64, 64
2, 63084, Note_on_c, 0, 65, 73
2, 63092, Control_c, 0, 64, 44
2, 63095, Note_on_c, 0, 45, 44
2, 63102, Note_on_c, 0, 67, 0
2, 63104, Note_on_c, 0, 48, 50
2, 63107, Control_c, 0, 64, 0
2, 63659, Note_on_c, 0, 63, 66
2, 63773, Note_on_c, 0, 63, 0
2, 63780, Note_on_c, 0, 62, 58
2, 63806, Note_on_c, 0, 65, 0
2, 63806, Note_on_c, 0, 65, 5
2, 63981, Control_c, 0, 64, 46
2, 63996, Control_c, 0, 64, 61
2, 64012, Control_c, 0, 64, 65
2, 64027, Control_c, 0, 64, 67
2, 64043, Control_c, 0, 64, 70
2, 64043, Control_c, 0, 67, 10
2, 64058, Control_c, 0, 64, 73
2, 64058, Control_c, 0, 67, 12
2, 64072, Control_c, 0, 64, 76
2, 64072, Control_c, 0, 67, 13
2, 64088, Control_c, 0, 64, 79
2, 64103, Control_c, 0, 64, 80
2, 64103, Control_c, 0, 67, 14
2, 64119, Control_c, 0, 64, 81
2, 64119, Control_c, 0, 67, 14
2, 64134, Control_c, 0, 67, 15
2, 64149, Control_c, 0, 67, 16
2, 64164, Control_c, 0, 64, 81
2, 64164, Control_c, 0, 67, 17
2, 64179, Control_c, 0, 67, 17
2, 64194, Control_c, 0, 67, 18
2, 64256, Control_c, 0, 67, 18
2, 64286, Control_c, 0, 67, 19
2, 64316, Note_on_c, 0, 62, 0
2, 64327, Note_on_c, 0, 60, 65
2, 64400, Control_c, 0, 64, 81
2, 64400, Note_on_c, 0, 65, 0
2, 64415, Control_c, 0, 64, 80
2, 64430, Control_c, 0, 64, 79
2, 64446, Control_c, 0, 64, 75
2, 64449, Note_on_c, 0, 62, 72
2, 64451, Note_on_c, 0, 48, 0
2, 64452, Note_on_c, 0, 45, 0
2, 64456, Note_on_c, 0, 55, 52
2, 64456, Note_on_c, 0, 60, 0
2, 64461, Control_c, 0, 64, 70
2, 64470, Note_on_c, 0, 47, 44
2, 64475, Control_c, 0, 64, 63
2, 64475, Control_c, 0, 67, 18
2, 64491, Control_c, 0, 64, 48
2, 64506, Control_c, 0, 64, 25
2, 64521, Control_c, 0, 64, 0
2, 64521, Control_c, 0, 67, 18
2, 64596, Control_c, 0, 67, 18
2, 64642, Control_c, 0, 64, 10
2, 64657, Control_c, 0, 67, 19
2, 64672, Control_c, 0, 64, 13
2, 64688, Control_c, 0, 64, 15
2, 64688, Control_c, 0, 67, 19
2, 64703, Control_c, 0, 67, 20
2, 64733, Control_c, 0, 67, 22
2, 64748, Control_c, 0, 67, 26
2, 64764, Control_c, 0, 64, 17
2, 64764, Control_c, 0, 67, 32
2, 64779, Control_c, 0, 67, 38
2, 64794, Control_c, 0, 67, 45
2, 64810, Control_c, 0, 64, 20
2, 64810, Control_c, 0, 67, 51
2, 64825, Control_c, 0, 67, 58
2, 64841, Control_c, 0, 67, 65
2, 64855, Control_c, 0, 67, 71
2, 64870, Control_c, 0, 67, 75
2, 64886, Control_c, 0, 67, 79
2, 64901, Control_c, 0, 67, 81
2, 64916, Control_c, 0, 67, 82
2, 64931, Control_c, 0, 67, 83
2, 64962, Control_c, 0, 67, 83
2, 65017, Note_on_c, 0, 65, 64
2, 65137, Control_c, 0, 64, 18
2, 65138, Note_on_c, 0, 67, 69
2, 65142, Note_on_c, 0, 65, 0
2, 65152, Control_c, 0, 64, 17
2, 65168, Control_c, 0, 64, 15
2, 65183, Control_c, 0, 64, 10
2, 65197, Control_c, 0, 64, 0
2, 65335, Control_c, 0, 64, 29
2, 65350, Control_c, 0, 64, 54
2, 65365, Control_c, 0, 64, 63
2, 65365, Control_c, 0, 67, 84
2, 65366, Note_on_c, 0, 62, 0
2, 65380, Control_c, 0, 64, 67
2, 65395, Control_c, 0, 64, 69
2, 65411, Control_c, 0, 64, 71
2, 65426, Control_c, 0, 64, 73
2, 65441, Control_c, 0, 64, 74
2, 65456, Control_c, 0, 64, 75
2, 65471, Control_c, 0, 64, 76
2, 65487, Control_c, 0, 64, 77
2, 65501, Control_c, 0, 64, 78
2, 65516, Control_c, 0, 64, 79
2, 65547, Control_c, 0, 64, 79
2, 65563, Control_c, 0, 67, 83
2, 65674, Note_on_c, 0, 67, 0
2, 65684, Note_on_c, 0, 62, 70
2, 65714, Control_c, 0, 67, 83
2, 65775, Control_c, 0, 64, 79
2, 65790, Control_c, 0, 64, 78
2, 65804, Note_on_c, 0, 63, 67
2, 65807, Control_c, 0, 64, 76
2, 65807, Note_on_c, 0, 62, 0
2, 65821, Control_c, 0, 64, 72
2, 65821, Note_on_c, 0, 48, 52
2, 65836, Control_c, 0, 64, 66
2, 65836, Note_on_c, 0, 47, 0
2, 65853, Control_c, 0, 64, 57
2, 65868, Control_c, 0, 64, 40
2, 65868, Control_c, 0, 67, 82
2, 65891, Control_c, 0, 64, 17
2, 65906, Control_c, 0, 64, 0
2, 66148, Control_c, 0, 67, 82
2, 66387, Note_on_c, 0, 59, 52
2, 66422, Control_c, 0, 67, 81
2, 66483, Note_on_c, 0, 59, 0
2, 66505, Note_on_c, 0, 60, 58
2, 66529, Control_c, 0, 67, 81
2, 66634, Note_on_c, 0, 55, 0
2, 66658, Control_c, 0, 67, 80
2, 66690, Control_c, 0, 64, 49
2, 66690, Control_c, 0, 67, 80
2, 66705, Control_c, 0, 64, 61
2, 66721, Control_c, 0, 64, 64
2, 66735, Control_c, 0, 64, 66
2, 66750, Control_c, 0, 64, 68
2, 66766, Control_c, 0, 64, 70
2, 66780, Control_c, 0, 64, 72
2, 66795, Control_c, 0, 64, 74
2, 66811, Control_c, 0, 64, 75
2, 66826, Control_c, 0, 64, 76
2, 66856, Control_c, 0, 64, 76
2, 66887, Control_c, 0, 64, 77
2, 67024, Note_on_c, 0, 60, 0
2, 67038, Control_c, 0, 64, 76
2, 67054, Control_c, 0, 64, 76
2, 67067, Note_on_c, 0, 55, 58
2, 67069, Control_c, 0, 64, 74
2, 67085, Control_c, 0, 64, 69
2, 67100, Control_c, 0, 64, 61
2, 67114, Control_c, 0, 64, 24
2, 67130, Control_c, 0, 64, 0
2, 67161, Note_on_c, 0, 63, 0
2, 67198, Note_on_c, 0, 55, 0
2, 67204, Note_on_c, 0, 51, 54
2, 67236, Control_c, 0, 64, 47
2, 67252, Control_c, 0, 64, 57
2, 67266, Control_c, 0, 64, 61
2, 67282, Control_c, 0, 64, 64
2, 67297, Control_c, 0, 64, 66
2, 67311, Control_c, 0, 64, 67
2, 67327, Control_c, 0, 64, 69
2, 67342, Control_c, 0, 64, 71
2, 67357, Control_c, 0, 64, 73
2, 67373, Control_c, 0, 64, 74
2, 67387, Control_c, 0, 64, 75
2, 67403, Control_c, 0, 64, 76
2, 67426, Control_c, 0, 64, 76
2, 67497, Note_on_c, 0, 48, 0
2, 67771, Note_on_c, 0, 51, 0
2, 67778, Note_on_c, 0, 75, 59
2, 67791, Note_on_c, 0, 55, 41
2, 67836, Control_c, 0, 64, 75
2, 67852, Control_c, 0, 64, 73
2, 67867, Control_c, 0, 64, 69
2, 67883, Control_c, 0, 64, 63
2, 67898, Control_c, 0, 64, 50
2, 67898, Control_c, 0, 67, 79
2, 67905, Note_on_c, 0, 69, 63
2, 67907, Note_on_c, 0, 75, 0
2, 67909, Note_on_c, 0, 55, 0
2, 67912, Control_c, 0, 64, 26
2, 67922, Note_on_c, 0, 48, 47
2, 67928, Control_c, 0, 64, 0
2, 67928, Control_c, 0, 67, 78
2, 67943, Control_c, 0, 67, 78
2, 67958, Control_c, 0, 67, 77
2, 67974, Control_c, 0, 67, 76
2, 67989, Control_c, 0, 67, 75
2, 68005, Control_c, 0, 67, 73
2, 68020, Control_c, 0, 67, 72
2, 68034, Control_c, 0, 67, 70
2, 68050, Control_c, 0, 67, 66
2, 68065, Control_c, 0, 67, 61
2, 68081, Control_c, 0, 67, 57
2, 68096, Control_c, 0, 67, 54
2, 68109, Control_c, 0, 67, 50
2, 68125, Control_c, 0, 67, 45
2, 68140, Control_c, 0, 67, 40
2, 68154, Control_c, 0, 67, 33
2, 68170, Control_c, 0, 67, 28
2, 68193, Control_c, 0, 67, 24
2, 68209, Control_c, 0, 67, 21
2, 68224, Control_c, 0, 67, 18
2, 68238, Control_c, 0, 67, 16
2, 68254, Control_c, 0, 67, 14
2, 68269, Control_c, 0, 67, 12
2, 68284, Control_c, 0, 67, 11
2, 68299, Control_c, 0, 67, 10
2, 68316, Control_c, 0, 67, 9
2, 68332, Control_c, 0, 67, 0
2, 68454, Note_on_c, 0, 72, 67
2, 68459, Note_on_c, 0, 51, 40
2, 68465, Note_on_c, 0, 69, 0
2, 68548, Note_on_c, 0, 51, 0
2, 68552, Note_on_c, 0, 48, 0
2, 68561, Note_on_c, 0, 72, 0
2, 68572, Note_on_c, 0, 66, 70
2, 68592, Note_on_c, 0, 50, 46
2, 68772, Control_c, 0, 64, 38
2, 68787, Control_c, 0, 64, 54
2, 68802, Control_c, 0, 64, 61
2, 68817, Control_c, 0, 64, 63
2, 68832, Control_c, 0, 64, 65
2, 68848, Control_c, 0, 64, 67
2, 68863, Control_c, 0, 64, 68
2, 68878, Control_c, 0, 64, 71
2, 68894, Control_c, 0, 64, 73
2, 68909, Control_c, 0, 64, 75
2, 68924, Control_c, 0, 64, 76
2, 68939, Control_c, 0, 64, 76
2, 69104, Note_on_c, 0, 66, 0
2, 69111, Note_on_c, 0, 62, 69
2, 69116, Note_on_c, 0, 54, 47
2, 69221, Control_c, 0, 64, 76
2, 69229, Note_on_c, 0, 66, 78
2, 69236, Control_c, 0, 64, 75
2, 69246, Note_on_c, 0, 62, 0
2, 69251, Note_on_c, 0, 57, 51
2, 69252, Control_c, 0, 64, 70
2, 69267, Control_c, 0, 64, 64
2, 69283, Control_c, 0, 64, 45
2, 69298, Control_c, 0, 64, 0
2, 69343, Control_c, 0, 64, 45
2, 69349, Note_on_c, 0, 54, 0
2, 69358, Control_c, 0, 64, 58
2, 69374, Control_c, 0, 64, 63
2, 69388, Control_c, 0, 64, 64
2, 69404, Control_c, 0, 64, 66
2, 69419, Control_c, 0, 64, 68
2, 69419, Note_on_c, 0, 50, 0
2, 69433, Control_c, 0, 64, 70
2, 69449, Control_c, 0, 64, 72
2, 69464, Control_c, 0, 64, 74
2, 69480, Control_c, 0, 64, 75
2, 69495, Control_c, 0, 64, 76
2, 69509, Control_c, 0, 64, 77
2, 69554, Control_c, 0, 64, 77
2, 69676, Control_c, 0, 64, 78
2, 69762, Note_on_c, 0, 57, 0
2, 69780, Note_on_c, 0, 69, 75
2, 69782, Note_on_c, 0, 66, 0
2, 69785, Note_on_c, 0, 48, 58
2, 69897, Control_c, 0, 64, 77
2, 69898, Note_on_c, 0, 48, 0
2, 69906, Note_on_c, 0, 46, 64
2, 69912, Control_c, 0, 64, 74
2, 69916, Note_on_c, 0, 74, 79
2, 69928, Control_c, 0, 64, 70
2, 69928, Note_on_c, 0, 69, 0
2, 69943, Control_c, 0, 64, 59
2, 69958, Control_c, 0, 64, 0
2, 70065, Control_c, 0, 64, 28
2, 70081, Control_c, 0, 64, 52
2, 70096, Control_c, 0, 64, 57
2, 70111, Control_c, 0, 64, 60
2, 70127, Control_c, 0, 64, 62
2, 70142, Control_c, 0, 64, 63
2, 70156, Control_c, 0, 64, 64
2, 70172, Control_c, 0, 64, 66
2, 70187, Control_c, 0, 64, 67
2, 70202, Control_c, 0, 64, 69
2, 70217, Control_c, 0, 64, 70
2, 70232, Control_c, 0, 64, 71
2, 70248, Control_c, 0, 64, 72
2, 70277, Control_c, 0, 64, 72
2, 70293, Control_c, 0, 64, 73
2, 70308, Control_c, 0, 64, 73
2, 70324, Control_c, 0, 64, 74
2, 70461, Note_on_c, 0, 69, 76
2, 70472, Note_on_c, 0, 54, 57
2, 70560, Control_c, 0, 64, 73
2, 70574, Control_c, 0, 64, 71
2, 70579, Note_on_c, 0, 70, 79
2, 70589, Control_c, 0, 64, 67
2, 70591, Note_on_c, 0, 69, 0
2, 70598, Note_on_c, 0, 54, 0
2, 70602, Note_on_c, 0, 55, 64
2, 70605, Control_c, 0, 64, 61
2, 70619, Control_c, 0, 64, 21
2, 70634, Control_c, 0, 64, 0
2, 70741, Control_c, 0, 64, 43
2, 70756, Control_c, 0, 64, 57
2, 70773, Control_c, 0, 64, 62
2, 70788, Control_c, 0, 64, 64
2, 70803, Control_c, 0, 64, 65
2, 70818, Control_c, 0, 64, 68
2, 70829, Note_on_c, 0, 70, 0
2, 70833, Control_c, 0, 64, 70
2, 70848, Control_c, 0, 64, 72
2, 70863, Control_c, 0, 64, 74
2, 70878, Control_c, 0, 64, 76
2, 70894, Control_c, 0, 64, 78
2, 70909, Control_c, 0, 64, 79
2, 70925, Control_c, 0, 64, 80
2, 70940, Control_c, 0, 64, 80
2, 70954, Control_c, 0, 64, 81
2, 71001, Control_c, 0, 64, 81
2, 71046, Control_c, 0, 64, 82
2, 71137, Control_c, 0, 64, 82
2, 71144, Note_on_c, 0, 66, 74
2, 71147, Note_on_c, 0, 57, 66
2, 71178, Note_on_c, 0, 57, 0
2, 71181, Control_c, 0, 64, 83
2, 71212, Note_on_c, 0, 66, 0
2, 71254, Note_on_c, 0, 55, 0
2, 71264, Control_c, 0, 64, 81
2, 71270, Note_on_c, 0, 67, 84
2, 71280, Control_c, 0, 64, 77
2, 71281, Note_on_c, 0, 58, 76
2, 71295, Control_c, 0, 64, 70
2, 71310, Control_c, 0, 64, 44
2, 71326, Control_c, 0, 64, 0
2, 71431, Control_c, 0, 64, 34
2, 71447, Control_c, 0, 64, 56
2, 71462, Control_c, 0, 64, 62
2, 71477, Control_c, 0, 64, 64
2, 71477, Note_on_c, 0, 46, 0
2, 71493, Control_c, 0, 64, 66
2, 71508, Control_c, 0, 64, 68
2, 71524, Control_c, 0, 64, 70
2, 71538, Control_c, 0, 64, 72
2, 71553, Control_c, 0, 64, 73
2, 71569, Control_c, 0, 64, 75
2, 71585, Control_c, 0, 64, 75
2, 71600, Control_c, 0, 64, 76
2, 71615, Control_c, 0, 64, 77
2, 71630, Control_c, 0, 64, 78
2, 71646, Control_c, 0, 64, 78
2, 71706, Control_c, 0, 64, 79
2, 71827, Control_c, 0, 64, 79
2, 71829, Note_on_c, 0, 46, 80
2, 71873, Control_c, 0, 64, 80
2, 71908, Note_on_c, 0, 46, 0
2, 71934, Control_c, 0, 64, 78
2, 71948, Note_on_c, 0, 48, 88
2, 71950, Control_c, 0, 64, 74
2, 71965, Control_c, 0, 64, 64
2, 71980, Control_c, 0, 64, 0
2, 72095, Control_c, 0, 64, 42
2, 72109, Control_c, 0, 64, 59
2, 72125, Control_c, 0, 64, 63
2, 72140, Control_c, 0, 64, 65
2, 72155, Control_c, 0, 64, 68
2, 72171, Control_c, 0, 64, 71
2, 72185, Control_c, 0, 64, 75
2, 72201, Control_c, 0, 64, 79
2, 72216, Control_c, 0, 64, 81
2, 72230, Control_c, 0, 64, 81
2, 72232, Note_on_c, 0, 48, 0
2, 72246, Control_c, 0, 64, 82
2, 72261, Control_c, 0, 64, 82
2, 72276, Control_c, 0, 64, 83
2, 72322, Control_c, 0, 64, 83
2, 72397, Control_c, 0, 64, 84
2, 72459, Control_c, 0, 64, 84
2, 72512, Note_on_c, 0, 50, 78
2, 72521, Control_c, 0, 64, 83
2, 72536, Control_c, 0, 64, 81
2, 72551, Control_c, 0, 64, 76
2, 72566, Control_c, 0, 64, 67
2, 72581, Control_c, 0, 64, 0
2, 72634, Note_on_c, 0, 50, 0
2, 72634, Note_on_c, 0, 51, 84
2, 72646, Note_on_c, 0, 74, 0
2, 72877, Control_c, 0, 64, 52
2, 72893, Control_c, 0, 64, 62
2, 72908, Control_c, 0, 64, 65
2, 72924, Control_c, 0, 64, 67
2, 72939, Control_c, 0, 64, 71
2, 72953, Control_c, 0, 64, 75
2, 72969, Control_c, 0, 64, 78
2, 72971, Note_on_c, 0, 58, 0
2, 72984, Control_c, 0, 64, 79
2, 73000, Control_c, 0, 64, 80
2, 73015, Control_c, 0, 64, 80
2, 73029, Control_c, 0, 64, 81
2, 73105, Control_c, 0, 64, 81
2, 73235, Note_on_c, 0, 79, 85
2, 73236, Note_on_c, 0, 58, 69
2, 73334, Control_c, 0, 64, 81
2, 73349, Control_c, 0, 64, 77
2, 73349, Note_on_c, 0, 72, 89
2, 73351, Note_on_c, 0, 57, 71
2, 73364, Note_on_c, 0, 58, 0
2, 73365, Control_c, 0, 64, 69
2, 73379, Control_c, 0, 64, 45
2, 73380, Note_on_c, 0, 79, 0
2, 73394, Control_c, 0, 64, 0
2, 73547, Control_c, 0, 64, 37
2, 73570, Control_c, 0, 64, 56
2, 73584, Control_c, 0, 64, 61
2, 73600, Control_c, 0, 64, 64
2, 73615, Control_c, 0, 64, 67
2, 73630, Control_c, 0, 64, 71
2, 73646, Control_c, 0, 64, 75
2, 73661, Control_c, 0, 64, 78
2, 73675, Control_c, 0, 64, 80
2, 73691, Control_c, 0, 64, 81
2, 73706, Control_c, 0, 64, 82
2, 73722, Control_c, 0, 64, 82
2, 73752, Control_c, 0, 64, 83
2, 73901, Note_on_c, 0, 57, 0
2, 73930, Note_on_c, 0, 75, 84
2, 73943, Note_on_c, 0, 67, 0
2, 73948, Note_on_c, 0, 58, 66
2, 73948, Note_on_c, 0, 72, 0
2, 73987, Note_on_c, 0, 75, 0
2, 74025, Note_on_c, 0, 58, 0
2, 74057, Control_c, 0, 64, 81
2, 74058, Note_on_c, 0, 69, 90
2, 74065, Note_on_c, 0, 65, 82
2, 74072, Control_c, 0, 64, 76
2, 74072, Note_on_c, 0, 60, 69
2, 74088, Control_c, 0, 64, 65
2, 74102, Control_c, 0, 64, 0
2, 74177, Note_on_c, 0, 65, 0
2, 74177, Note_on_c, 0, 65, 3
2, 74209, Control_c, 0, 64, 42
2, 74223, Control_c, 0, 64, 61
2, 74238, Control_c, 0, 64, 64
2, 74254, Control_c, 0, 64, 67
2, 74269, Control_c, 0, 64, 70
2, 74285, Control_c, 0, 64, 73
2, 74300, Control_c, 0, 64, 77
2, 74307, Note_on_c, 0, 65, 0
2, 74323, Control_c, 0, 64, 79
2, 74338, Control_c, 0, 64, 81
2, 74345, Note_on_c, 0, 69, 0
2, 74368, Control_c, 0, 64, 81
2, 74398, Control_c, 0, 64, 82
2, 74414, Control_c, 0, 64, 82
2, 74428, Control_c, 0, 64, 83
2, 74444, Control_c, 0, 64, 83
2, 74649, Note_on_c, 0, 65, 85
2, 74654, Note_on_c, 0, 57, 60
2, 74667, Note_on_c, 0, 60, 0
2, 74716, Note_on_c, 0, 65, 0
2, 74764, Control_c, 0, 64, 83
2, 74768, Note_on_c, 0, 69, 95
2, 74774, Note_on_c, 0, 53, 69
2, 74778, Control_c, 0, 64, 79
2, 74789, Note_on_c, 0, 57, 0
2, 74793, Control_c, 0, 64, 72
2, 74809, Control_c, 0, 64, 54
2, 74824, Control_c, 0, 64, 0
2, 74915, Control_c, 0, 64, 46
2, 74931, Control_c, 0, 64, 62
2, 74946, Control_c, 0, 64, 65
2, 74962, Control_c, 0, 64, 67
2, 74977, Control_c, 0, 64, 69
2, 74991, Control_c, 0, 64, 72
2, 75007, Control_c, 0, 64, 75
2, 75021, Control_c, 0, 64, 78
2, 75036, Control_c, 0, 64, 79
2, 75052, Control_c, 0, 64, 80
2, 75083, Control_c, 0, 64, 80
2, 75105, Control_c, 0, 64, 81
2, 75120, Control_c, 0, 64, 81
2, 75150, Control_c, 0, 64, 82
2, 75258, Note_on_c, 0, 69, 0
2, 75331, Note_on_c, 0, 53, 0
2, 75347, Note_on_c, 0, 57, 71
2, 75348, Control_c, 0, 64, 82
2, 75348, Note_on_c, 0, 72, 87
2, 75358, Note_on_c, 0, 51, 0
2, 75379, Control_c, 0, 64, 83
2, 75402, Note_on_c, 0, 72, 0
2, 75424, Control_c, 0, 64, 82
2, 75440, Control_c, 0, 64, 81
2, 75455, Control_c, 0, 64, 75
2, 75470, Control_c, 0, 64, 65
2, 75470, Note_on_c, 0, 77, 99
2, 75477, Note_on_c, 0, 62, 73
2, 75485, Control_c, 0, 64, 0
2, 75497, Note_on_c, 0, 57, 0
2, 75621, Control_c, 0, 64, 57
2, 75636, Control_c, 0, 64, 63
2, 75651, Control_c, 0, 64, 66
2, 75666, Control_c, 0, 64, 68
2, 75684, Control_c, 0, 64, 70
2, 75699, Control_c, 0, 64, 72
2, 75713, Control_c, 0, 64, 75
2, 75729, Control_c, 0, 64, 76
2, 75744, Control_c, 0, 64, 77
2, 75774, Control_c, 0, 64, 78
2, 75806, Control_c, 0, 64, 78
2, 75821, Control_c, 0, 64, 79
2, 75874, Control_c, 0, 64, 79
2, 75965, Control_c, 0, 64, 80
2, 75995, Control_c, 0, 64, 81
2, 76011, Control_c, 0, 64, 81
2, 76026, Control_c, 0, 64, 82
2, 76041, Control_c, 0, 64, 83
2, 76056, Control_c, 0, 64, 84
2, 76058, Note_on_c, 0, 65, 87
2, 76069, Note_on_c, 0, 50, 73
2, 76071, Control_c, 0, 64, 85
2, 76106, Note_on_c, 0, 65, 0
2, 76132, Control_c, 0, 64, 84
2, 76147, Control_c, 0, 64, 81
2, 76162, Control_c, 0, 64, 73
2, 76176, Note_on_c, 0, 50, 0
2, 76177, Control_c, 0, 64, 50
2, 76181, Note_on_c, 0, 51, 79
2, 76185, Note_on_c, 0, 67, 97
2, 76192, Control_c, 0, 64, 0
2, 76361, Control_c, 0, 64, 48
2, 76375, Control_c, 0, 64, 59
2, 76388, Note_on_c, 0, 67, 0
2, 76390, Control_c, 0, 64, 63
2, 76406, Control_c, 0, 64, 66
2, 76421, Control_c, 0, 64, 68
2, 76436, Control_c, 0, 64, 71
2, 76451, Control_c, 0, 64, 74
2, 76456, Note_on_c, 0, 51, 0
2, 76466, Control_c, 0, 64, 76
2, 76482, Control_c, 0, 64, 78
2, 76498, Control_c, 0, 64, 79
2, 76513, Control_c, 0, 64, 80
2, 76543, Control_c, 0, 64, 81
2, 76574, Control_c, 0, 64, 81
2, 76589, Control_c, 0, 64, 82
2, 76657, Control_c, 0, 64, 82
2, 76703, Control_c, 0, 64, 83
2, 76748, Control_c, 0, 64, 83
2, 76809, Control_c, 0, 64, 84
2, 76829, Note_on_c, 0, 69, 94
2, 76836, Note_on_c, 0, 53, 75
2, 76840, Control_c, 0, 64, 84
2, 76855, Control_c, 0, 64, 85
2, 76870, Control_c, 0, 64, 85
2, 76883, Note_on_c, 0, 69, 0
2, 76885, Control_c, 0, 64, 86
2, 76900, Control_c, 0, 64, 88
2, 76915, Control_c, 0, 64, 89
2, 76931, Control_c, 0, 64, 89
2, 76968, Note_on_c, 0, 53, 0
2, 76991, Control_c, 0, 64, 88
2, 76993, Note_on_c, 0, 55, 76
2, 76993, Note_on_c, 0, 70, 97
2, 77007, Control_c, 0, 64, 84
2, 77021, Control_c, 0, 64, 76
2, 77036, Control_c, 0, 64, 62
2, 77052, Control_c, 0, 64, 0
2, 77217, Note_on_c, 0, 77, 0
2, 77234, Control_c, 0, 64, 20
2, 77250, Control_c, 0, 64, 56
2, 77265, Control_c, 0, 64, 62
2, 77281, Control_c, 0, 64, 64
2, 77295, Control_c, 0, 64, 65
2, 77310, Control_c, 0, 64, 67
2, 77327, Control_c, 0, 64, 69
2, 77342, Control_c, 0, 64, 71
2, 77356, Control_c, 0, 64, 73
2, 77372, Control_c, 0, 64, 75
2, 77387, Control_c, 0, 64, 76
2, 77410, Control_c, 0, 64, 76
2, 77425, Control_c, 0, 64, 77
2, 77455, Control_c, 0, 64, 77
2, 77486, Control_c, 0, 64, 78
2, 77501, Control_c, 0, 64, 78
2, 77531, Control_c, 0, 64, 79
2, 77562, Control_c, 0, 64, 79
2, 77592, Control_c, 0, 64, 80
2, 77608, Control_c, 0, 64, 80
2, 77623, Control_c, 0, 64, 81
2, 77634, Note_on_c, 0, 82, 91
2, 77638, Control_c, 0, 64, 81
2, 77653, Control_c, 0, 64, 82
2, 77684, Control_c, 0, 64, 82
2, 77699, Control_c, 0, 64, 82
2, 77729, Control_c, 0, 64, 80
2, 77744, Control_c, 0, 64, 75
2, 77752, Note_on_c, 0, 82, 0
2, 77760, Control_c, 0, 64, 65
2, 77775, Control_c, 0, 64, 0
2, 77779, Note_on_c, 0, 79, 96
2, 77835, Control_c, 0, 64, 60
2, 77851, Control_c, 0, 64, 64
2, 77865, Control_c, 0, 64, 66
2, 77881, Control_c, 0, 64, 68
2, 77896, Control_c, 0, 64, 69
2, 77910, Control_c, 0, 64, 72
2, 77926, Control_c, 0, 64, 75
2, 77941, Control_c, 0, 64, 78
2, 77956, Control_c, 0, 64, 79
2, 77972, Control_c, 0, 64, 80
2, 77987, Control_c, 0, 64, 80
2, 78032, Control_c, 0, 64, 81
2, 78048, Control_c, 0, 64, 81
2, 78078, Control_c, 0, 64, 82
2, 78094, Control_c, 0, 64, 82
2, 78108, Control_c, 0, 64, 83
2, 78140, Control_c, 0, 64, 83
2, 78178, Control_c, 0, 64, 84
2, 78193, Control_c, 0, 64, 84
2, 78238, Control_c, 0, 64, 85
2, 78269, Control_c, 0, 64, 85
2, 78277, Note_on_c, 0, 74, 71
2, 78299, Control_c, 0, 64, 86
2, 78323, Note_on_c, 0, 79, 0
2, 78330, Control_c, 0, 64, 86
2, 78345, Control_c, 0, 64, 87
2, 78356, Note_on_c, 0, 74, 0
2, 78361, Control_c, 0, 64, 87
2, 78424, Note_on_c, 0, 76, 75
2, 78452, Control_c, 0, 64, 86
2, 78464, Note_on_c, 0, 76, 0
2, 78467, Control_c, 0, 64, 82
2, 78469, Note_on_c, 0, 77, 74
2, 78482, Control_c, 0, 64, 76
2, 78497, Control_c, 0, 64, 67
2, 78512, Control_c, 0, 64, 13
2, 78528, Control_c, 0, 64, 0
2, 78531, Note_on_c, 0, 76, 72
2, 78549, Note_on_c, 0, 77, 0
2, 78740, Control_c, 0, 64, 32
2, 78754, Control_c, 0, 64, 41
2, 78770, Control_c, 0, 64, 47
2, 78785, Control_c, 0, 64, 54
2, 78801, Control_c, 0, 64, 59
2, 78816, Control_c, 0, 64, 62
2, 78830, Control_c, 0, 64, 63
2, 78846, Control_c, 0, 64, 64
2, 78861, Control_c, 0, 64, 65
2, 78876, Control_c, 0, 64, 66
2, 78892, Control_c, 0, 64, 68
2, 78907, Control_c, 0, 64, 69
2, 78923, Control_c, 0, 64, 70
2, 78945, Control_c, 0, 64, 70
2, 79022, Control_c, 0, 64, 69
2, 79023, Note_on_c, 0, 62, 0
2, 79037, Control_c, 0, 64, 66
2, 79042, Note_on_c, 0, 61, 68
2, 79053, Control_c, 0, 64, 62
2, 79067, Control_c, 0, 64, 44
2, 79083, Control_c, 0, 64, 0
2, 79154, Note_on_c, 0, 61, 0
2, 79161, Note_on_c, 0, 60, 68
2, 79250, Control_c, 0, 64, 46
2, 79265, Control_c, 0, 64, 57
2, 79280, Control_c, 0, 64, 62
2, 79295, Control_c, 0, 64, 64
2, 79310, Control_c, 0, 64, 66
2, 79326, Control_c, 0, 64, 70
2, 79341, Control_c, 0, 64, 74
2, 79356, Control_c, 0, 64, 78
2, 79361, Note_on_c, 0, 76, 0
2, 79372, Control_c, 0, 64, 80
2, 79387, Control_c, 0, 64, 81
2, 79402, Control_c, 0, 64, 82
2, 79432, Control_c, 0, 64, 82
2, 79448, Control_c, 0, 64, 83
2, 79463, Control_c, 0, 64, 83
2, 79508, Control_c, 0, 64, 84
2, 79555, Note_on_c, 0, 55, 0
2, 79694, Note_on_c, 0, 76, 73
2, 79708, Note_on_c, 0, 58, 54
2, 79718, Note_on_c, 0, 60, 0
2, 79734, Note_on_c, 0, 70, 0
2, 79790, Control_c, 0, 64, 83
2, 79806, Control_c, 0, 64, 81
2, 79806, Note_on_c, 0, 58, 0
2, 79821, Control_c, 0, 64, 78
2, 79828, Note_on_c, 0, 77, 75
2, 79834, Note_on_c, 0, 53, 55
2, 79835, Control_c, 0, 64, 72
2, 79851, Control_c, 0, 64, 61
2, 79853, Note_on_c, 0, 60, 47
2, 79866, Control_c, 0, 64, 10
2, 79873, Note_on_c, 0, 76, 0
2, 79882, Control_c, 0, 64, 0
2, 80353, Note_on_c, 0, 70, 69
2, 80454, Note_on_c, 0, 70, 0
2, 80461, Note_on_c, 0, 68, 70
2, 80634, Control_c, 0, 64, 26
2, 80650, Control_c, 0, 64, 51
2, 80665, Control_c, 0, 64, 61
2, 80680, Control_c, 0, 64, 64
2, 80695, Control_c, 0, 64, 66
2, 80710, Control_c, 0, 64, 69
2, 80726, Control_c, 0, 64, 72
2, 80741, Control_c, 0, 64, 76
2, 80755, Control_c, 0, 64, 79
2, 80771, Control_c, 0, 64, 80
2, 80786, Control_c, 0, 64, 81
2, 80816, Control_c, 0, 64, 81
2, 80847, Control_c, 0, 64, 82
2, 80855, Note_on_c, 0, 68, 0
2, 80876, Control_c, 0, 64, 82
2, 80980, Note_on_c, 0, 67, 69
2, 81040, Note_on_c, 0, 67, 0
2, 81059, Control_c, 0, 64, 81
2, 81074, Control_c, 0, 64, 78
2, 81090, Control_c, 0, 64, 72
2, 81096, Note_on_c, 0, 68, 70
2, 81105, Control_c, 0, 64, 63
2, 81121, Control_c, 0, 64, 0
2, 81196, Control_c, 0, 64, 30
2, 81211, Control_c, 0, 64, 55
2, 81226, Control_c, 0, 64, 59
2, 81249, Control_c, 0, 64, 61
2, 81264, Control_c, 0, 64, 63
2, 81280, Control_c, 0, 64, 65
2, 81295, Control_c, 0, 64, 67
2, 81310, Control_c, 0, 64, 70
2, 81326, Control_c, 0, 64, 74
2, 81341, Control_c, 0, 64, 76
2, 81356, Control_c, 0, 64, 77
2, 81363, Note_on_c, 0, 60, 0
2, 81386, Control_c, 0, 64, 78
2, 81417, Control_c, 0, 64, 78
2, 81432, Control_c, 0, 64, 79
2, 81451, Note_on_c, 0, 77, 0
2, 81463, Control_c, 0, 64, 79
2, 81662, Note_on_c, 0, 60, 53
2, 81669, Note_on_c, 0, 75, 71
2, 81751, Control_c, 0, 64, 78
2, 81767, Control_c, 0, 64, 76
2, 81782, Control_c, 0, 64, 71
2, 81785, Note_on_c, 0, 74, 78
2, 81792, Note_on_c, 0, 65, 67
2, 81796, Control_c, 0, 64, 61
2, 81800, Note_on_c, 0, 60, 0
2, 81812, Control_c, 0, 64, 0
2, 81814, Note_on_c, 0, 75, 0
2, 81934, Control_c, 0, 64, 24
2, 81949, Control_c, 0, 64, 57
2, 81965, Control_c, 0, 64, 63
2, 81980, Control_c, 0, 64, 65
2, 81995, Control_c, 0, 64, 69
2, 81996, Note_on_c, 0, 65, 0
2, 82017, Control_c, 0, 64, 73
2, 82019, Note_on_c, 0, 74, 0
2, 82032, Control_c, 0, 64, 78
2, 82048, Control_c, 0, 64, 81
2, 82062, Control_c, 0, 64, 84
2, 82077, Control_c, 0, 64, 84
2, 82093, Control_c, 0, 64, 85
2, 82108, Control_c, 0, 64, 86
2, 82124, Control_c, 0, 64, 86
2, 82139, Control_c, 0, 64, 87
2, 82169, Control_c, 0, 64, 87
2, 82184, Control_c, 0, 64, 88
2, 82200, Control_c, 0, 64, 88
2, 82215, Control_c, 0, 64, 89
2, 82230, Control_c, 0, 64, 89
2, 82261, Control_c, 0, 64, 90
2, 82276, Control_c, 0, 64, 90
2, 82307, Control_c, 0, 64, 91
2, 82318, Note_on_c, 0, 63, 72
2, 82320, Note_on_c, 0, 77, 86
2, 82322, Control_c, 0, 64, 91
2, 82335, Note_on_c, 0, 68, 0
2, 82337, Control_c, 0, 64, 92
2, 82362, Note_on_c, 0, 63, 0
2, 82363, Note_on_c, 0, 77, 0
2, 82429, Control_c, 0, 64, 91
2, 82444, Control_c, 0, 64, 89
2, 82459, Control_c, 0, 64, 85
2, 82463, Note_on_c, 0, 71, 79
2, 82464, Note_on_c, 0, 67, 79
2, 82469, Note_on_c, 0, 62, 78
2, 82474, Control_c, 0, 64, 78
2, 82489, Control_c, 0, 64, 67
2, 82504, Control_c, 0, 64, 15
2, 82520, Control_c, 0, 64, 0
2, 82527, Note_on_c, 0, 62, 0
2, 82545, Note_on_c, 0, 62, 53
2, 82687, Control_c, 0, 64, 50
2, 82702, Control_c, 0, 64, 60
2, 82717, Control_c, 0, 64, 64
2, 82724, Note_on_c, 0, 53, 0
2, 82733, Control_c, 0, 64, 67
2, 82748, Control_c, 0, 64, 71
2, 82764, Control_c, 0, 64, 74
2, 82786, Control_c, 0, 64, 76
2, 82802, Control_c, 0, 64, 77
2, 82817, Control_c, 0, 64, 78
2, 83034, Note_on_c, 0, 55, 82
2, 83091, Control_c, 0, 64, 76
2, 83101, Note_on_c, 0, 55, 0
2, 83106, Control_c, 0, 64, 70
2, 83122, Control_c, 0, 64, 55
2, 83136, Control_c, 0, 64, 0
2, 83152, Note_on_c, 0, 50, 84
2, 83227, Control_c, 0, 64, 39
2, 83243, Control_c, 0, 64, 60
2, 83258, Control_c, 0, 64, 64
2, 83273, Control_c, 0, 64, 66
2, 83288, Control_c, 0, 64, 69
2, 83303, Control_c, 0, 64, 72
2, 83318, Control_c, 0, 64, 76
2, 83334, Control_c, 0, 64, 78
2, 83349, Control_c, 0, 64, 80
2, 83365, Control_c, 0, 64, 80
2, 83380, Control_c, 0, 64, 81
2, 83386, Note_on_c, 0, 50, 0
2, 83389, Note_on_c, 0, 62, 0
2, 83395, Control_c, 0, 64, 81
2, 83410, Control_c, 0, 64, 82
2, 83425, Control_c, 0, 64, 82
2, 83456, Control_c, 0, 64, 83
2, 83521, Note_on_c, 0, 71, 0
2, 83530, Control_c, 0, 64, 83
2, 83583, Control_c, 0, 64, 84
2, 83614, Control_c, 0, 64, 84
2, 83673, Control_c, 0, 64, 85
2, 83704, Note_on_c, 0, 53, 86
2, 83750, Control_c, 0, 64, 85
2, 83761, Note_on_c, 0, 53, 0
2, 83780, Control_c, 0, 64, 85
2, 83795, Control_c, 0, 64, 84
2, 83811, Control_c, 0, 64, 79
2, 83812, Note_on_c, 0, 63, 81
2, 83814, Note_on_c, 0, 72, 89
2, 83820, Note_on_c, 0, 51, 84
2, 83826, Control_c, 0, 64, 70
2, 83842, Control_c, 0, 64, 38
2, 83857, Control_c, 0, 64, 0
2, 83979, Control_c, 0, 64, 55
2, 83994, Control_c, 0, 64, 63
2, 84010, Control_c, 0, 64, 66
2, 84025, Control_c, 0, 64, 69
2, 84041, Control_c, 0, 64, 72
2, 84055, Control_c, 0, 64, 75
2, 84070, Control_c, 0, 64, 77
2, 84086, Control_c, 0, 64, 78
2, 84100, Control_c, 0, 64, 79
2, 84115, Control_c, 0, 64, 80
2, 84131, Control_c, 0, 64, 80
2, 84135, Note_on_c, 0, 51, 0
2, 84146, Control_c, 0, 64, 81
2, 84162, Control_c, 0, 64, 81
2, 84191, Control_c, 0, 64, 82
2, 84252, Control_c, 0, 64, 82
2, 84336, Control_c, 0, 64, 83
2, 84366, Note_on_c, 0, 48, 89
2, 84367, Control_c, 0, 64, 84
2, 84382, Control_c, 0, 64, 84
2, 84396, Control_c, 0, 64, 85
2, 84413, Note_on_c, 0, 48, 0
2, 84458, Control_c, 0, 64, 84
2, 84472, Control_c, 0, 64, 81
2, 84480, Note_on_c, 0, 43, 91
2, 84488, Control_c, 0, 64, 75
2, 84503, Control_c, 0, 64, 63
2, 84517, Control_c, 0, 64, 0
2, 84688, Control_c, 0, 64, 56
2, 84703, Control_c, 0, 64, 63
2, 84719, Control_c, 0, 64, 66
2, 84734, Control_c, 0, 64, 69
2, 84740, Note_on_c, 0, 67, 0
2, 84748, Control_c, 0, 64, 73
2, 84764, Control_c, 0, 64, 78
2, 84779, Control_c, 0, 64, 81
2, 84795, Control_c, 0, 64, 82
2, 84810, Control_c, 0, 64, 83
2, 84841, Control_c, 0, 64, 83
2, 84871, Control_c, 0, 64, 84
2, 84901, Control_c, 0, 64, 84
2, 84932, Note_on_c, 0, 43, 0
2, 85043, Note_on_c, 0, 46, 83
2, 85053, Control_c, 0, 64, 85
2, 85106, Note_on_c, 0, 46, 0
2, 85137, Control_c, 0, 64, 84
2, 85153, Control_c, 0, 64, 81
2, 85167, Control_c, 0, 64, 74
2, 85170, Note_on_c, 0, 45, 90
2, 85182, Control_c, 0, 64, 61
2, 85198, Control_c, 0, 64, 0
2, 85395, Control_c, 0, 64, 49
2, 85410, Control_c, 0, 64, 58
2, 85425, Control_c, 0, 64, 60
2, 85440, Control_c, 0, 64, 63
2, 85455, Control_c, 0, 64, 65
2, 85470, Control_c, 0, 64, 68
2, 85486, Control_c, 0, 64, 71
2, 85501, Control_c, 0, 64, 75
2, 85518, Control_c, 0, 64, 77
2, 85533, Control_c, 0, 64, 77
2, 85547, Control_c, 0, 64, 78
2, 85578, Control_c, 0, 64, 78
2, 85593, Control_c, 0, 64, 79
2, 85608, Control_c, 0, 64, 79
2, 85623, Control_c, 0, 64, 80
2, 85737, Note_on_c, 0, 74, 78
2, 85821, Control_c, 0, 64, 78
2, 85837, Control_c, 0, 64, 72
2, 85859, Control_c, 0, 64, 57
2, 85859, Note_on_c, 0, 75, 87
2, 85867, Note_on_c, 0, 55, 79
2, 85875, Control_c, 0, 64, 0
2, 85895, Note_on_c, 0, 72, 0
2, 85901, Note_on_c, 0, 74, 0
2, 85997, Control_c, 0, 64, 32
2, 86011, Control_c, 0, 64, 59
2, 86026, Control_c, 0, 64, 64
2, 86042, Control_c, 0, 64, 66
2, 86057, Control_c, 0, 64, 69
2, 86073, Control_c, 0, 64, 73
2, 86087, Control_c, 0, 64, 77
2, 86102, Control_c, 0, 64, 80
2, 86118, Control_c, 0, 64, 81
2, 86178, Control_c, 0, 64, 81
2, 86189, Note_on_c, 0, 75, 0
2, 86194, Control_c, 0, 64, 82
2, 86208, Control_c, 0, 64, 82
2, 86223, Control_c, 0, 64, 83
2, 86239, Control_c, 0, 64, 83
2, 86284, Control_c, 0, 64, 84
2, 86418, Note_on_c, 0, 70, 85
2, 86422, Control_c, 0, 64, 84
2, 86483, Control_c, 0, 64, 84
2, 86498, Control_c, 0, 64, 82
2, 86506, Note_on_c, 0, 70, 0
2, 86513, Control_c, 0, 64, 76
2, 86528, Control_c, 0, 64, 67
2, 86528, Note_on_c, 0, 72, 90
2, 86533, Note_on_c, 0, 54, 77
2, 86543, Control_c, 0, 64, 0
2, 86547, Note_on_c, 0, 55, 0
2, 86734, Note_on_c, 0, 63, 0
2, 87115, Note_on_c, 0, 67, 75
2, 87219, Note_on_c, 0, 67, 0
2, 87223, Note_on_c, 0, 57, 69
2, 87225, Note_on_c, 0, 66, 80
2, 87235, Note_on_c, 0, 54, 0
2, 87456, Control_c, 0, 64, 50
2, 87471, Control_c, 0, 64, 60
2, 87486, Control_c, 0, 64, 63
2, 87501, Control_c, 0, 64, 65
2, 87517, Control_c, 0, 64, 67
2, 87532, Control_c, 0, 64, 70
2, 87545, Note_on_c, 0, 45, 0
2, 87546, Control_c, 0, 64, 74
2, 87562, Control_c, 0, 64, 76
2, 87577, Control_c, 0, 64, 77
2, 87593, Control_c, 0, 64, 78
2, 87608, Control_c, 0, 64, 78
2, 87622, Control_c, 0, 64, 79
2, 87638, Control_c, 0, 64, 79
2, 87684, Control_c, 0, 64, 80
2, 87815, Note_on_c, 0, 69, 76
2, 87861, Note_on_c, 0, 66, 0
2, 87911, Control_c, 0, 64, 79
2, 87927, Control_c, 0, 64, 77
2, 87934, Note_on_c, 0, 62, 78
2, 87940, Note_on_c, 0, 46, 67
2, 87941, Control_c, 0, 64, 71
2, 87953, Note_on_c, 0, 69, 0
2, 87957, Control_c, 0, 64, 57
2, 87974, Control_c, 0, 64, 0
2, 88029, Note_on_c, 0, 72, 0
2, 88140, Control_c, 0, 64, 48
2, 88164, Control_c, 0, 64, 58
2, 88178, Control_c, 0, 64, 63
2, 88194, Control_c, 0, 64, 65
2, 88207, Control_c, 0, 64, 67
2, 88222, Control_c, 0, 64, 69
2, 88237, Control_c, 0, 64, 71
2, 88252, Control_c, 0, 64, 73
2, 88263, Note_on_c, 0, 57, 0
2, 88265, Control_c, 0, 64, 75
2, 88280, Control_c, 0, 64, 76
2, 88296, Control_c, 0, 64, 76
2, 88325, Control_c, 0, 64, 77
2, 88341, Control_c, 0, 64, 77
2, 88517, Note_on_c, 0, 72, 80
2, 88569, Control_c, 0, 64, 76
2, 88584, Control_c, 0, 64, 73
2, 88599, Control_c, 0, 64, 67
2, 88615, Control_c, 0, 64, 52
2, 88630, Control_c, 0, 64, 0
2, 88639, Note_on_c, 0, 74, 81
2, 88642, Note_on_c, 0, 55, 64
2, 88668, Note_on_c, 0, 72, 0
2, 88875, Control_c, 0, 64, 51
2, 88890, Control_c, 0, 64, 63
2, 88905, Control_c, 0, 64, 66
2, 88928, Control_c, 0, 64, 70
2, 88943, Control_c, 0, 64, 73
2, 88958, Control_c, 0, 64, 76
2, 88973, Control_c, 0, 64, 78
2, 88988, Control_c, 0, 64, 79
2, 89208, Note_on_c, 0, 74, 0
2, 89221, Note_on_c, 0, 55, 0
2, 89223, Note_on_c, 0, 69, 77
2, 89238, Note_on_c, 0, 54, 52
2, 89277, Control_c, 0, 64, 78
2, 89293, Control_c, 0, 64, 76
2, 89307, Control_c, 0, 64, 72
2, 89322, Control_c, 0, 64, 64
2, 89338, Control_c, 0, 64, 0
2, 89342, Note_on_c, 0, 54, 0
2, 89345, Note_on_c, 0, 70, 76
2, 89354, Note_on_c, 0, 55, 54
2, 89368, Note_on_c, 0, 69, 0
2, 89809, Note_on_c, 0, 62, 0
2, 89934, Note_on_c, 0, 66, 68
2, 90052, Note_on_c, 0, 66, 0
2, 90052, Note_on_c, 0, 67, 69
2, 90241, Control_c, 0, 64, 54
2, 90257, Control_c, 0, 64, 60
2, 90272, Control_c, 0, 64, 63
2, 90288, Control_c, 0, 64, 65
2, 90289, Note_on_c, 0, 46, 0
2, 90303, Control_c, 0, 64, 69
2, 90318, Control_c, 0, 64, 73
2, 90333, Control_c, 0, 64, 78
2, 90348, Control_c, 0, 64, 79
2, 90425, Control_c, 0, 64, 79
2, 90614, Note_on_c, 0, 67, 0
2, 90619, Note_on_c, 0, 62, 66
2, 90651, Note_on_c, 0, 62, 0
2, 90737, Control_c, 0, 64, 78
2, 90746, Note_on_c, 0, 63, 73
2, 90752, Control_c, 0, 64, 74
2, 90754, Note_on_c, 0, 48, 58
2, 90768, Control_c, 0, 64, 65
2, 90782, Control_c, 0, 64, 0
2, 90934, Control_c, 0, 64, 25
2, 90949, Control_c, 0, 64, 57
2, 90964, Control_c, 0, 64, 63
2, 90980, Control_c, 0, 64, 65
2, 90994, Control_c, 0, 64, 67
2, 91010, Control_c, 0, 64, 70
2, 91025, Control_c, 0, 64, 74
2, 91029, Note_on_c, 0, 70, 0
2, 91039, Control_c, 0, 64, 77
2, 91055, Control_c, 0, 64, 79
2, 91070, Control_c, 0, 64, 79
2, 91116, Control_c, 0, 64, 80
2, 91159, Note_on_c, 0, 55, 0
2, 91359, Note_on_c, 0, 75, 81
2, 91459, Control_c, 0, 64, 79
2, 91474, Control_c, 0, 64, 77
2, 91476, Note_on_c, 0, 67, 81
2, 91489, Control_c, 0, 64, 71
2, 91491, Note_on_c, 0, 60, 71
2, 91504, Control_c, 0, 64, 61
2, 91508, Note_on_c, 0, 75, 0
2, 91519, Control_c, 0, 64, 0
2, 91657, Control_c, 0, 64, 50
2, 91672, Control_c, 0, 64, 59
2, 91687, Control_c, 0, 64, 63
2, 91702, Control_c, 0, 64, 66
2, 91717, Control_c, 0, 64, 70
2, 91733, Control_c, 0, 64, 73
2, 91748, Control_c, 0, 64, 76
2, 91762, Control_c, 0, 64, 78
2, 91778, Control_c, 0, 64, 79
2, 91793, Control_c, 0, 64, 80
2, 91809, Control_c, 0, 64, 80
2, 91815, Note_on_c, 0, 67, 0
2, 92059, Control_c, 0, 64, 81
2, 92074, Note_on_c, 0, 70, 84
2, 92091, Control_c, 0, 64, 81
2, 92136, Control_c, 0, 64, 80
2, 92151, Control_c, 0, 64, 75
2, 92167, Control_c, 0, 64, 66
2, 92182, Control_c, 0, 64, 0
2, 92188, Note_on_c, 0, 68, 86
2, 92212, Note_on_c, 0, 70, 0
2, 92333, Control_c, 0, 64, 42
2, 92348, Control_c, 0, 64, 57
2, 92363, Control_c, 0, 64, 63
2, 92379, Control_c, 0, 64, 66
2, 92394, Control_c, 0, 64, 69
2, 92409, Control_c, 0, 64, 75
2, 92424, Control_c, 0, 64, 79
2, 92439, Control_c, 0, 64, 82
2, 92455, Control_c, 0, 64, 82
2, 92485, Control_c, 0, 64, 83
2, 92501, Note_on_c, 0, 68, 0
2, 92531, Control_c, 0, 64, 84
2, 92536, Note_on_c, 0, 60, 0
2, 92546, Control_c, 0, 64, 84
2, 92769, Note_on_c, 0, 60, 84
2, 92843, Control_c, 0, 64, 82
2, 92858, Control_c, 0, 64, 77
2, 92872, Note_on_c, 0, 72, 90
2, 92873, Control_c, 0, 64, 67
2, 92885, Note_on_c, 0, 55, 76
2, 92889, Control_c, 0, 64, 0
2, 92907, Note_on_c, 0, 60, 0
2, 92996, Control_c, 0, 64, 31
2, 93012, Control_c, 0, 64, 63
2, 93027, Control_c, 0, 64, 66
2, 93041, Control_c, 0, 64, 69
2, 93057, Control_c, 0, 64, 74
2, 93072, Control_c, 0, 64, 79
2, 93086, Control_c, 0, 64, 85
2, 93102, Control_c, 0, 64, 87
2, 93148, Control_c, 0, 64, 88
2, 93202, Note_on_c, 0, 72, 0
2, 93296, Note_on_c, 0, 63, 0
2, 93405, Control_c, 0, 64, 88
2, 93421, Control_c, 0, 64, 89
2, 93436, Control_c, 0, 64, 90
2, 93452, Control_c, 0, 64, 92
2, 93463, Note_on_c, 0, 58, 88
2, 93467, Control_c, 0, 64, 93
2, 93482, Control_c, 0, 64, 94
2, 93483, Note_on_c, 0, 55, 0
2, 93512, Control_c, 0, 64, 94
2, 93550, Control_c, 0, 64, 91
2, 93565, Control_c, 0, 64, 84
2, 93580, Control_c, 0, 64, 69
2, 93588, Note_on_c, 0, 66, 95
2, 93590, Note_on_c, 0, 58, 0
2, 93594, Note_on_c, 0, 57, 88
2, 93595, Control_c, 0, 64, 0
2, 93595, Note_on_c, 0, 62, 77
2, 93686, Note_on_c, 0, 48, 0
2, 93766, Control_c, 0, 64, 29
2, 93781, Control_c, 0, 64, 56
2, 93796, Control_c, 0, 64, 62
2, 93812, Control_c, 0, 64, 65
2, 93827, Control_c, 0, 64, 67
2, 93843, Control_c, 0, 64, 71
2, 93857, Control_c, 0, 64, 75
2, 93872, Control_c, 0, 64, 79
2, 93888, Control_c, 0, 64, 81
2, 93903, Control_c, 0, 64, 82
2, 93918, Control_c, 0, 64, 82
2, 93933, Control_c, 0, 64, 83
2, 93948, Control_c, 0, 64, 83
2, 93964, Control_c, 0, 64, 84
2, 93979, Control_c, 0, 64, 84
2, 93994, Control_c, 0, 64, 85
2, 94055, Control_c, 0, 64, 85
2, 94085, Control_c, 0, 64, 86
2, 94145, Control_c, 0, 64, 86
2, 94186, Note_on_c, 0, 50, 85
2, 94236, Control_c, 0, 64, 86
2, 94246, Note_on_c, 0, 50, 0
2, 94252, Control_c, 0, 64, 82
2, 94266, Control_c, 0, 64, 73
2, 94282, Control_c, 0, 64, 54
2, 94304, Control_c, 0, 64, 0
2, 94307, Note_on_c, 0, 45, 91
2, 94442, Control_c, 0, 64, 54
2, 94457, Control_c, 0, 64, 65
2, 94471, Control_c, 0, 64, 70
2, 94487, Control_c, 0, 64, 74
2, 94502, Control_c, 0, 64, 78
2, 94517, Control_c, 0, 64, 80
2, 94533, Control_c, 0, 64, 82
2, 94548, Control_c, 0, 64, 83
2, 94548, Note_on_c, 0, 45, 0
2, 94564, Control_c, 0, 64, 83
2, 94577, Note_on_c, 0, 57, 0
2, 94594, Control_c, 0, 64, 84
2, 94610, Control_c, 0, 64, 85
2, 94625, Control_c, 0, 64, 86
2, 94641, Control_c, 0, 64, 87
2, 94655, Control_c, 0, 64, 88
2, 94670, Control_c, 0, 64, 89
2, 94731, Control_c, 0, 64, 90
2, 94744, Note_on_c, 0, 66, 0
2, 94875, Note_on_c, 0, 48, 89
2, 94925, Note_on_c, 0, 48, 0
2, 94974, Control_c, 0, 64, 87
2, 94988, Control_c, 0, 64, 80
2, 95004, Control_c, 0, 64, 67
2, 95004, Note_on_c, 0, 46, 95
2, 95004, Note_on_c, 0, 58, 94
2, 95006, Note_on_c, 0, 67, 92
2, 95019, Control_c, 0, 64, 0
2, 95209, Control_c, 0, 64, 51
2, 95224, Control_c, 0, 64, 67
2, 95239, Control_c, 0, 64, 72
2, 95255, Control_c, 0, 64, 77
2, 95270, Control_c, 0, 64, 80
2, 95286, Control_c, 0, 64, 84
2, 95298, Note_on_c, 0, 46, 0
2, 95300, Control_c, 0, 64, 87
2, 95315, Control_c, 0, 64, 91
2, 95331, Control_c, 0, 64, 94
2, 95346, Control_c, 0, 64, 96
2, 95362, Control_c, 0, 64, 97
2, 95392, Control_c, 0, 64, 97
2, 95557, Note_on_c, 0, 43, 89
2, 95606, Control_c, 0, 64, 97
2, 95615, Note_on_c, 0, 43, 0
2, 95620, Control_c, 0, 64, 93
2, 95635, Control_c, 0, 64, 83
2, 95651, Control_c, 0, 64, 69
2, 95666, Control_c, 0, 64, 0
2, 95685, Note_on_c, 0, 38, 95
2, 95842, Control_c, 0, 64, 44
2, 95857, Control_c, 0, 64, 61
2, 95872, Control_c, 0, 64, 65
2, 95888, Control_c, 0, 64, 68
2, 95903, Control_c, 0, 64, 72
2, 95917, Control_c, 0, 64, 77
2, 95933, Control_c, 0, 64, 81
2, 95948, Control_c, 0, 64, 83
2, 95961, Note_on_c, 0, 38, 0
2, 95963, Control_c, 0, 64, 83
2, 95978, Control_c, 0, 64, 84
2, 96009, Control_c, 0, 64, 84
2, 96024, Control_c, 0, 64, 85
2, 96036, Control_c, 0, 64, 85
2, 96052, Control_c, 0, 64, 86
2, 96112, Control_c, 0, 64, 86
2, 96143, Control_c, 0, 64, 87
2, 96159, Control_c, 0, 64, 87
2, 96175, Control_c, 0, 64, 88
2, 96189, Control_c, 0, 64, 88
2, 96204, Control_c, 0, 64, 89
2, 96255, Note_on_c, 0, 41, 96
2, 96296, Control_c, 0, 64, 88
2, 96311, Control_c, 0, 64, 86
2, 96312, Note_on_c, 0, 41, 0
2, 96326, Control_c, 0, 64, 79
2, 96341, Control_c, 0, 64, 68
2, 96356, Control_c, 0, 64, 0
2, 96369, Note_on_c, 0, 39, 88
2, 96462, Note_on_c, 0, 58, 0
2, 96568, Control_c, 0, 64, 36
2, 96583, Control_c, 0, 64, 53
2, 96605, Control_c, 0, 64, 62
2, 96621, Control_c, 0, 64, 67
2, 96636, Control_c, 0, 64, 71
2, 96652, Control_c, 0, 64, 77
2, 96667, Control_c, 0, 64, 82
2, 96681, Control_c, 0, 64, 83
2, 96697, Control_c, 0, 64, 84
2, 96713, Note_on_c, 0, 67, 0
2, 96726, Control_c, 0, 64, 84
2, 96977, Note_on_c, 0, 66, 88
2, 97032, Control_c, 0, 64, 83
2, 97046, Control_c, 0, 64, 79
2, 97062, Control_c, 0, 64, 71
2, 97077, Control_c, 0, 64, 49
2, 97085, Note_on_c, 0, 67, 92
2, 97090, Note_on_c, 0, 51, 90
2, 97093, Control_c, 0, 64, 0
2, 97114, Note_on_c, 0, 66, 0
2, 97215, Control_c, 0, 64, 52
2, 97229, Control_c, 0, 64, 62
2, 97244, Control_c, 0, 64, 66
2, 97251, Note_on_c, 0, 39, 0
2, 97260, Control_c, 0, 64, 69
2, 97275, Control_c, 0, 64, 73
2, 97291, Control_c, 0, 64, 76
2, 97306, Control_c, 0, 64, 79
2, 97320, Control_c, 0, 64, 80
2, 97336, Control_c, 0, 64, 81
2, 97351, Control_c, 0, 64, 82
2, 97374, Control_c, 0, 64, 82
2, 97389, Control_c, 0, 64, 83
2, 97404, Control_c, 0, 64, 83
2, 97450, Control_c, 0, 64, 84
2, 97450, Note_on_c, 0, 51, 0
2, 97496, Control_c, 0, 64, 84
2, 97541, Control_c, 0, 64, 85
2, 97571, Control_c, 0, 64, 85
2, 97601, Control_c, 0, 64, 86
2, 97634, Note_on_c, 0, 62, 0
2, 97646, Control_c, 0, 64, 86
2, 97662, Control_c, 0, 64, 87
2, 97669, Note_on_c, 0, 70, 88
2, 97674, Note_on_c, 0, 50, 67
2, 97677, Control_c, 0, 64, 88
2, 97693, Control_c, 0, 64, 88
2, 97704, Note_on_c, 0, 67, 0
2, 97753, Control_c, 0, 64, 85
2, 97769, Control_c, 0, 64, 77
2, 97784, Control_c, 0, 64, 64
2, 97791, Note_on_c, 0, 50, 0
2, 97796, Note_on_c, 0, 51, 74
2, 97799, Control_c, 0, 64, 0
2, 97801, Note_on_c, 0, 61, 76
2, 97821, Note_on_c, 0, 63, 61
2, 97846, Note_on_c, 0, 63, 0
2, 97897, Note_on_c, 0, 70, 0
2, 97983, Control_c, 0, 64, 50
2, 97997, Control_c, 0, 64, 59
2, 98013, Control_c, 0, 64, 61
2, 98028, Control_c, 0, 64, 62
2, 98043, Control_c, 0, 64, 64
2, 98059, Control_c, 0, 64, 66
2, 98073, Control_c, 0, 64, 69
2, 98089, Control_c, 0, 64, 73
2, 98104, Control_c, 0, 64, 76
2, 98119, Control_c, 0, 64, 77
2, 98142, Control_c, 0, 64, 78
2, 98157, Control_c, 0, 64, 79
2, 98172, Control_c, 0, 64, 79
2, 98202, Control_c, 0, 64, 80
2, 98233, Control_c, 0, 64, 80
2, 98309, Control_c, 0, 64, 81
2, 98324, Control_c, 0, 64, 81
2, 98340, Control_c, 0, 64, 82
2, 98370, Control_c, 0, 64, 82
2, 98383, Note_on_c, 0, 51, 0
2, 98386, Note_on_c, 0, 70, 78
2, 98393, Note_on_c, 0, 54, 57
2, 98415, Control_c, 0, 64, 83
2, 98451, Note_on_c, 0, 70, 0
2, 98485, Note_on_c, 0, 54, 0
2, 98503, Note_on_c, 0, 69, 83
2, 98519, Note_on_c, 0, 55, 61
2, 98521, Control_c, 0, 64, 82
2, 98524, Note_on_c, 0, 52, 56
2, 98536, Control_c, 0, 64, 77
2, 98551, Control_c, 0, 64, 69
2, 98566, Control_c, 0, 64, 41
2, 98582, Control_c, 0, 64, 0
2, 98690, Control_c, 0, 64, 28
2, 98705, Control_c, 0, 64, 55
2, 98719, Control_c, 0, 64, 63
2, 98735, Control_c, 0, 64, 66
2, 98750, Control_c, 0, 64, 69
2, 98765, Control_c, 0, 64, 73
2, 98781, Control_c, 0, 64, 76
2, 98796, Control_c, 0, 64, 79
2, 98811, Control_c, 0, 64, 80
2, 98827, Control_c, 0, 64, 81
2, 98841, Control_c, 0, 64, 82
2, 98872, Control_c, 0, 64, 82
2, 98888, Control_c, 0, 64, 83
2, 98911, Control_c, 0, 64, 83
2, 98925, Control_c, 0, 64, 84
2, 98941, Control_c, 0, 64, 84
2, 98956, Control_c, 0, 64, 85
2, 99017, Control_c, 0, 64, 85
2, 99055, Note_on_c, 0, 55, 0
2, 99086, Note_on_c, 0, 69, 0
2, 99096, Note_on_c, 0, 67, 73
2, 99115, Note_on_c, 0, 57, 54
2, 99119, Note_on_c, 0, 52, 0
2, 99172, Note_on_c, 0, 61, 0
2, 99215, Control_c, 0, 64, 85
2, 99227, Note_on_c, 0, 66, 79
2, 99230, Control_c, 0, 64, 83
2, 99232, Note_on_c, 0, 67, 0
2, 99234, Note_on_c, 0, 62, 74
2, 99245, Control_c, 0, 64, 78
2, 99245, Note_on_c, 0, 58, 63
2, 99249, Note_on_c, 0, 57, 0
2, 99255, Note_on_c, 0, 50, 52
2, 99260, Control_c, 0, 64, 72
2, 99275, Control_c, 0, 64, 61
2, 99291, Control_c, 0, 64, 36
2, 99306, Control_c, 0, 64, 0
2, 99823, Note_on_c, 0, 62, 0
2, 99835, Note_on_c, 0, 61, 66
2, 99933, Note_on_c, 0, 61, 0
2, 99943, Note_on_c, 0, 62, 71
2, 100084, Note_on_c, 0, 66, 0
2, 100165, Control_c, 0, 64, 37
2, 100180, Control_c, 0, 64, 60
2, 100195, Control_c, 0, 64, 64
2, 100211, Control_c, 0, 64, 65
2, 100225, Control_c, 0, 64, 66
2, 100240, Control_c, 0, 64, 67
2, 100257, Control_c, 0, 64, 71
2, 100272, Control_c, 0, 64, 75
2, 100288, Control_c, 0, 64, 77
2, 100303, Control_c, 0, 64, 78
2, 100393, Control_c, 0, 64, 79
2, 100490, Note_on_c, 0, 66, 81
2, 100522, Control_c, 0, 64, 78
2, 100552, Control_c, 0, 64, 76
2, 100568, Control_c, 0, 64, 72
2, 100583, Control_c, 0, 64, 64
2, 100598, Control_c, 0, 64, 33
2, 100613, Control_c, 0, 64, 0
2, 100621, Note_on_c, 0, 67, 81
2, 100624, Note_on_c, 0, 66, 0
2, 100735, Control_c, 0, 64, 10
2, 100749, Control_c, 0, 64, 57
2, 100764, Control_c, 0, 64, 61
2, 100780, Control_c, 0, 64, 63
2, 100795, Control_c, 0, 64, 64
2, 100811, Control_c, 0, 64, 66
2, 100826, Control_c, 0, 64, 69
2, 100841, Control_c, 0, 64, 73
2, 100857, Control_c, 0, 64, 75
2, 100871, Control_c, 0, 64, 75
2, 100875, Note_on_c, 0, 58, 0
2, 100886, Control_c, 0, 64, 76
2, 100902, Control_c, 0, 64, 76
2, 100917, Control_c, 0, 64, 77
2, 100947, Control_c, 0, 64, 77
2, 101014, Note_on_c, 0, 62, 0
2, 101158, Note_on_c, 0, 61, 68
2, 101163, Note_on_c, 0, 58, 60
2, 101244, Control_c, 0, 64, 77
2, 101269, Note_on_c, 0, 61, 0
2, 101275, Control_c, 0, 64, 76
2, 101291, Control_c, 0, 64, 75
2, 101294, Note_on_c, 0, 58, 0
2, 101296, Note_on_c, 0, 62, 71
2, 101302, Note_on_c, 0, 57, 62
2, 101305, Control_c, 0, 64, 72
2, 101320, Control_c, 0, 64, 69
2, 101336, Control_c, 0, 64, 63
2, 101351, Control_c, 0, 64, 54
2, 101366, Control_c, 0, 64, 40
2, 101381, Control_c, 0, 64, 0
2, 101883, Note_on_c, 0, 55, 55
2, 101889, Note_on_c, 0, 57, 0
2, 102015, Note_on_c, 0, 55, 0
2, 102021, Note_on_c, 0, 57, 60
2, 102226, Control_c, 0, 64, 32
2, 102240, Control_c, 0, 64, 53
2, 102251, Note_on_c, 0, 67, 0
2, 102256, Control_c, 0, 64, 59
2, 102271, Control_c, 0, 64, 63
2, 102285, Control_c, 0, 64, 65
2, 102301, Control_c, 0, 64, 67
2, 102316, Control_c, 0, 64, 70
2, 102332, Control_c, 0, 64, 73
2, 102347, Control_c, 0, 64, 75
2, 102361, Control_c, 0, 64, 77
2, 102377, Control_c, 0, 64, 78
2, 102392, Control_c, 0, 64, 78
2, 102408, Control_c, 0, 64, 79
2, 102423, Control_c, 0, 64, 80
2, 102453, Control_c, 0, 64, 80
2, 102483, Control_c, 0, 64, 81
2, 102584, Note_on_c, 0, 62, 0
2, 102590, Note_on_c, 0, 70, 74
2, 102633, Note_on_c, 0, 70, 0
2, 102697, Control_c, 0, 64, 80
2, 102712, Control_c, 0, 64, 77
2, 102716, Note_on_c, 0, 69, 77
2, 102728, Control_c, 0, 64, 72
2, 102743, Note_on_c, 0, 60, 53
2, 102751, Control_c, 0, 64, 64
2, 102766, Control_c, 0, 64, 34
2, 102782, Control_c, 0, 64, 0
2, 102903, Control_c, 0, 64, 30
2, 102917, Control_c, 0, 64, 53
2, 102933, Control_c, 0, 64, 60
2, 102948, Control_c, 0, 64, 63
2, 102963, Control_c, 0, 64, 65
2, 102979, Control_c, 0, 64, 67
2, 102993, Control_c, 0, 64, 71
2, 103009, Control_c, 0, 64, 74
2, 103014, Note_on_c, 0, 69, 0
2, 103024, Control_c, 0, 64, 78
2, 103039, Control_c, 0, 64, 81
2, 103055, Control_c, 0, 64, 82
2, 103070, Control_c, 0, 64, 82
2, 103085, Control_c, 0, 64, 83
2, 103101, Control_c, 0, 64, 84
2, 103116, Control_c, 0, 64, 85
2, 103131, Control_c, 0, 64, 86
2, 103146, Control_c, 0, 64, 86
2, 103192, Control_c, 0, 64, 87
2, 103222, Control_c, 0, 64, 87
2, 103237, Control_c, 0, 64, 88
2, 103268, Control_c, 0, 64, 88
2, 103311, Note_on_c, 0, 72, 75
2, 103337, Note_on_c, 0, 72, 0
2, 103446, Note_on_c, 0, 66, 78
2, 103449, Control_c, 0, 64, 88
2, 103464, Control_c, 0, 64, 86
2, 103479, Control_c, 0, 64, 82
2, 103495, Control_c, 0, 64, 77
2, 103518, Control_c, 0, 64, 71
2, 103535, Control_c, 0, 64, 63
2, 103550, Control_c, 0, 64, 36
2, 103564, Control_c, 0, 64, 0
2, 104055, Note_on_c, 0, 63, 72
2, 104075, Note_on_c, 0, 60, 0
2, 104176, Note_on_c, 0, 62, 71
2, 104208, Note_on_c, 0, 63, 0
2, 104363, Control_c, 0, 64, 43
2, 104379, Control_c, 0, 64, 58
2, 104394, Control_c, 0, 64, 63
2, 104409, Control_c, 0, 64, 65
2, 104424, Control_c, 0, 64, 67
2, 104435, Note_on_c, 0, 57, 0
2, 104439, Control_c, 0, 64, 69
2, 104439, Note_on_c, 0, 50, 0
2, 104455, Control_c, 0, 64, 71
2, 104470, Control_c, 0, 64, 74
2, 104484, Control_c, 0, 64, 77
2, 104500, Control_c, 0, 64, 79
2, 104515, Control_c, 0, 64, 80
2, 104530, Control_c, 0, 64, 81
2, 104545, Control_c, 0, 64, 82
2, 104560, Control_c, 0, 64, 82
2, 104576, Control_c, 0, 64, 83
2, 104591, Control_c, 0, 64, 84
2, 104605, Control_c, 0, 64, 84
2, 104621, Control_c, 0, 64, 85
2, 104712, Control_c, 0, 64, 85
2, 104841, Note_on_c, 0, 60, 79
2, 104877, Note_on_c, 0, 62, 0
2, 104890, Note_on_c, 0, 66, 0
2, 104987, Control_c, 0, 64, 83
2, 104992, Note_on_c, 0, 67, 90
2, 105003, Control_c, 0, 64, 78
2, 105005, Note_on_c, 0, 55, 82
2, 105008, Note_on_c, 0, 43, 76
2, 105017, Control_c, 0, 64, 70
2, 105032, Control_c, 0, 64, 58
2, 105056, Control_c, 0, 64, 0
2, 105648, Note_on_c, 0, 57, 75
2, 105655, Note_on_c, 0, 60, 0
2, 105780, Note_on_c, 0, 59, 74
2, 105784, Note_on_c, 0, 57, 0
2, 106037, Control_c, 0, 64, 32
2, 106053, Control_c, 0, 64, 53
2, 106068, Control_c, 0, 64, 60
2, 106084, Control_c, 0, 64, 64
2, 106099, Control_c, 0, 64, 66
2, 106114, Control_c, 0, 64, 69
2, 106130, Control_c, 0, 64, 72
2, 106139, Note_on_c, 0, 67, 0
2, 106145, Control_c, 0, 64, 76
2, 106161, Control_c, 0, 64, 78
2, 106175, Control_c, 0, 64, 79
2, 106190, Control_c, 0, 64, 79
2, 106220, Control_c, 0, 64, 80
2, 106377, Note_on_c, 0, 65, 76
2, 106418, Control_c, 0, 64, 79
2, 106432, Control_c, 0, 64, 77
2, 106448, Control_c, 0, 64, 73
2, 106463, Control_c, 0, 64, 66
2, 106478, Control_c, 0, 64, 48
2, 106494, Control_c, 0, 64, 0
2, 106501, Note_on_c, 0, 63, 77
2, 106503, Note_on_c, 0, 65, 0
2, 106653, Control_c, 0, 64, 15
2, 106668, Control_c, 0, 64, 46
2, 106684, Control_c, 0, 64, 57
2, 106699, Control_c, 0, 64, 62
2, 106713, Control_c, 0, 64, 64
2, 106729, Control_c, 0, 64, 65
2, 106744, Control_c, 0, 64, 67
2, 106746, Note_on_c, 0, 59, 0
2, 106759, Control_c, 0, 64, 68
2, 106775, Control_c, 0, 64, 69
2, 106790, Control_c, 0, 64, 70
2, 106806, Control_c, 0, 64, 71
2, 106821, Control_c, 0, 64, 72
2, 106836, Control_c, 0, 64, 72
2, 106852, Control_c, 0, 64, 73
2, 106988, Control_c, 0, 64, 73
2, 107117, Note_on_c, 0, 59, 66
2, 107186, Control_c, 0, 64, 72
2, 107193, Note_on_c, 0, 59, 0
2, 107201, Control_c, 0, 64, 70
2, 107216, Control_c, 0, 64, 65
2, 107231, Control_c, 0, 64, 53
2, 107239, Note_on_c, 0, 60, 68
2, 107247, Control_c, 0, 64, 0
2, 107421, Control_c, 0, 64, 42
2, 107436, Control_c, 0, 64, 55
2, 107452, Control_c, 0, 64, 61
2, 107467, Control_c, 0, 64, 63
2, 107479, Note_on_c, 0, 63, 0
2, 107482, Control_c, 0, 64, 65
2, 107497, Control_c, 0, 64, 68
2, 107512, Control_c, 0, 64, 71
2, 107528, Control_c, 0, 64, 74
2, 107543, Control_c, 0, 64, 75
2, 107557, Control_c, 0, 64, 76
2, 107588, Control_c, 0, 64, 76
2, 107650, Control_c, 0, 64, 77
2, 107816, Note_on_c, 0, 63, 73
2, 107820, Note_on_c, 0, 55, 0
2, 107822, Note_on_c, 0, 54, 41
2, 107863, Control_c, 0, 64, 76
2, 107878, Control_c, 0, 64, 76
2, 107894, Control_c, 0, 64, 74
2, 107909, Control_c, 0, 64, 69
2, 107924, Control_c, 0, 64, 61
2, 107928, Note_on_c, 0, 60, 0
2, 107937, Note_on_c, 0, 54, 0
2, 107939, Control_c, 0, 64, 24
2, 107942, Note_on_c, 0, 62, 71
2, 107951, Note_on_c, 0, 55, 45
2, 107954, Control_c, 0, 64, 0
2, 107954, Note_on_c, 0, 60, 16
2, 107957, Note_on_c, 0, 63, 0
2, 108205, Control_c, 0, 64, 29
2, 108220, Control_c, 0, 64, 51
2, 108235, Control_c, 0, 64, 58
2, 108250, Control_c, 0, 64, 62
2, 108265, Control_c, 0, 64, 64
2, 108281, Control_c, 0, 64, 66
2, 108296, Control_c, 0, 64, 69
2, 108311, Control_c, 0, 64, 71
2, 108326, Control_c, 0, 64, 74
2, 108341, Control_c, 0, 64, 76
2, 108356, Control_c, 0, 64, 76
2, 108359, Note_on_c, 0, 60, 0
2, 108386, Control_c, 0, 64, 77
2, 108417, Control_c, 0, 64, 77
2, 108449, Control_c, 0, 64, 78
2, 108573, Note_on_c, 0, 60, 63
2, 108599, Control_c, 0, 64, 77
2, 108615, Control_c, 0, 64, 76
2, 108630, Control_c, 0, 64, 74
2, 108646, Control_c, 0, 64, 69
2, 108661, Control_c, 0, 64, 59
2, 108671, Note_on_c, 0, 60, 0
2, 108676, Control_c, 0, 64, 0
2, 108701, Note_on_c, 0, 59, 62
2, 108827, Control_c, 0, 64, 49
2, 108843, Control_c, 0, 64, 64
2, 108858, Control_c, 0, 64, 69
2, 108870, Note_on_c, 0, 59, 0
2, 108873, Control_c, 0, 64, 74
2, 108896, Control_c, 0, 64, 79
2, 108910, Note_on_c, 0, 55, 0
2, 108911, Control_c, 0, 64, 81
2, 108927, Control_c, 0, 64, 82
2, 108934, Note_on_c, 0, 62, 0
2, 108942, Control_c, 0, 64, 83
2, 108957, Control_c, 0, 64, 84
2, 108987, Control_c, 0, 64, 84
2, 109003, Control_c, 0, 64, 85
2, 109017, Control_c, 0, 64, 85
2, 109322, Note_on_c, 0, 67, 75
2, 109337, Note_on_c, 0, 53, 51
2, 109371, Note_on_c, 0, 53, 0
2, 109431, Note_on_c, 0, 51, 49
2, 109490, Control_c, 0, 64, 85
2, 109502, Note_on_c, 0, 51, 0
2, 109505, Control_c, 0, 64, 84
2, 109519, Control_c, 0, 64, 82
2, 109535, Control_c, 0, 64, 79
2, 109546, Note_on_c, 0, 50, 56
2, 109550, Control_c, 0, 64, 75
2, 109553, Note_on_c, 0, 77, 81
2, 109566, Control_c, 0, 64, 68
2, 109581, Control_c, 0, 64, 48
2, 109595, Control_c, 0, 64, 0
2, 109599, Note_on_c, 0, 67, 0
2, 109771, Control_c, 0, 64, 37
2, 109786, Control_c, 0, 64, 55
2, 109802, Control_c, 0, 64, 62
2, 109816, Control_c, 0, 64, 65
2, 109831, Control_c, 0, 64, 67
2, 109847, Control_c, 0, 64, 69
2, 109852, Note_on_c, 0, 43, 0
2, 109861, Control_c, 0, 64, 71
2, 109876, Control_c, 0, 64, 73
2, 109892, Control_c, 0, 64, 74
2, 109907, Control_c, 0, 64, 75
2, 109923, Control_c, 0, 64, 76
2, 109937, Control_c, 0, 64, 77
2, 109952, Control_c, 0, 64, 77
2, 109968, Control_c, 0, 64, 78
2, 109982, Control_c, 0, 64, 78
2, 109997, Control_c, 0, 64, 79
2, 110073, Control_c, 0, 64, 79
2, 110166, Note_on_c, 0, 50, 0
2, 110166, Note_on_c, 0, 72, 71
2, 110185, Note_on_c, 0, 43, 59
2, 110227, Control_c, 0, 64, 79
2, 110257, Control_c, 0, 64, 78
2, 110272, Control_c, 0, 64, 75
2, 110288, Control_c, 0, 64, 70
2, 110303, Control_c, 0, 64, 62
2, 110306, Note_on_c, 0, 72, 0
2, 110314, Note_on_c, 0, 71, 69
2, 110318, Control_c, 0, 64, 27
2, 110331, Note_on_c, 0, 55, 55
2, 110334, Control_c, 0, 64, 0
2, 110896, Note_on_c, 0, 77, 0
2, 110901, Note_on_c, 0, 74, 68
2, 111049, Note_on_c, 0, 75, 74
2, 111055, Note_on_c, 0, 74, 0
2, 111245, Control_c, 0, 64, 20
2, 111260, Control_c, 0, 64, 58
2, 111275, Control_c, 0, 64, 63
2, 111284, Note_on_c, 0, 71, 0
2, 111291, Control_c, 0, 64, 65
2, 111305, Control_c, 0, 64, 67
2, 111321, Control_c, 0, 64, 69
2, 111336, Control_c, 0, 64, 72
2, 111351, Control_c, 0, 64, 74
2, 111367, Control_c, 0, 64, 76
2, 111413, Control_c, 0, 64, 76
2, 111433, Note_on_c, 0, 55, 0
2, 111443, Control_c, 0, 64, 77
2, 111518, Control_c, 0, 64, 77
2, 111710, Note_on_c, 0, 67, 65
2, 111723, Note_on_c, 0, 53, 43
2, 111747, Control_c, 0, 64, 77
2, 111763, Control_c, 0, 64, 76
2, 111777, Control_c, 0, 64, 75
2, 111792, Control_c, 0, 64, 71
2, 111808, Control_c, 0, 64, 66
2, 111823, Control_c, 0, 64, 48
2, 111832, Note_on_c, 0, 67, 0
2, 111838, Control_c, 0, 64, 0
2, 111848, Note_on_c, 0, 53, 0
2, 111849, Note_on_c, 0, 72, 69
2, 111856, Note_on_c, 0, 51, 52
2, 111991, Note_on_c, 0, 75, 0
2, 111997, Control_c, 0, 64, 34
2, 112013, Control_c, 0, 64, 55
2, 112028, Control_c, 0, 64, 61
2, 112044, Control_c, 0, 64, 63
2, 112058, Control_c, 0, 64, 64
2, 112073, Control_c, 0, 64, 66
2, 112089, Control_c, 0, 64, 68
2, 112104, Control_c, 0, 64, 69
2, 112118, Control_c, 0, 64, 71
2, 112134, Control_c, 0, 64, 73
2, 112149, Control_c, 0, 64, 74
2, 112165, Control_c, 0, 64, 75
2, 112242, Control_c, 0, 64, 75
2, 112466, Note_on_c, 0, 51, 0
2, 112497, Note_on_c, 0, 74, 69
2, 112503, Note_on_c, 0, 55, 48
2, 112513, Control_c, 0, 64, 75
2, 112545, Control_c, 0, 64, 74
2, 112561, Control_c, 0, 64, 72
2, 112576, Control_c, 0, 64, 69
2, 112591, Control_c, 0, 64, 64
2, 112607, Control_c, 0, 64, 45
2, 112621, Control_c, 0, 64, 0
2, 112641, Note_on_c, 0, 55, 0
2, 112645, Note_on_c, 0, 75, 69
2, 112648, Note_on_c, 0, 74, 0
2, 112661, Note_on_c, 0, 48, 50
2, 112858, Control_c, 0, 64, 51
2, 112873, Control_c, 0, 64, 58
2, 112888, Control_c, 0, 64, 62
2, 112903, Control_c, 0, 64, 64
2, 112918, Control_c, 0, 64, 65
2, 112934, Control_c, 0, 64, 67
2, 112941, Note_on_c, 0, 72, 0
2, 112949, Control_c, 0, 64, 68
2, 112964, Control_c, 0, 64, 70
2, 112979, Control_c, 0, 64, 72
2, 112994, Control_c, 0, 64, 73
2, 113010, Control_c, 0, 64, 74
2, 113025, Control_c, 0, 64, 74
2, 113055, Control_c, 0, 64, 75
2, 113070, Control_c, 0, 64, 75
2, 113100, Control_c, 0, 64, 76
2, 113374, Note_on_c, 0, 72, 69
2, 113382, Note_on_c, 0, 51, 34
2, 113414, Note_on_c, 0, 75, 0
2, 113446, Note_on_c, 0, 51, 0
2, 113454, Note_on_c, 0, 48, 0
2, 113482, Note_on_c, 0, 50, 45
2, 113549, Control_c, 0, 64, 75
2, 113565, Control_c, 0, 64, 75
2, 113580, Control_c, 0, 64, 73
2, 113595, Control_c, 0, 64, 70
2, 113611, Control_c, 0, 64, 64
2, 113626, Control_c, 0, 64, 51
2, 113637, Note_on_c, 0, 79, 77
2, 113642, Control_c, 0, 64, 0
2, 113642, Note_on_c, 0, 51, 51
2, 113662, Note_on_c, 0, 50, 0
2, 113899, Control_c, 0, 64, 13
2, 113914, Control_c, 0, 64, 44
2, 113929, Control_c, 0, 64, 53
2, 113944, Control_c, 0, 64, 58
2, 113959, Control_c, 0, 64, 60
2, 113975, Control_c, 0, 64, 62
2, 113990, Control_c, 0, 64, 63
2, 114006, Control_c, 0, 64, 64
2, 114020, Control_c, 0, 64, 65
2, 114035, Control_c, 0, 64, 66
2, 114051, Control_c, 0, 64, 67
2, 114066, Control_c, 0, 64, 68
2, 114082, Control_c, 0, 64, 70
2, 114097, Control_c, 0, 64, 71
2, 114112, Control_c, 0, 64, 73
2, 114127, Control_c, 0, 64, 74
2, 114142, Control_c, 0, 64, 76
2, 114157, Control_c, 0, 64, 77
2, 114173, Control_c, 0, 64, 77
2, 114188, Control_c, 0, 64, 78
2, 114272, Control_c, 0, 64, 78
2, 114541, Note_on_c, 0, 78, 71
2, 114584, Note_on_c, 0, 79, 0
2, 114622, Control_c, 0, 64, 78
2, 114683, Control_c, 0, 64, 77
2, 114698, Control_c, 0, 64, 77
2, 114713, Control_c, 0, 64, 76
2, 114728, Control_c, 0, 64, 75
2, 114743, Control_c, 0, 64, 74
2, 114758, Control_c, 0, 64, 71
2, 114773, Control_c, 0, 64, 64
2, 114780, Note_on_c, 0, 78, 0
2, 114782, Note_on_c, 0, 79, 66
2, 114788, Control_c, 0, 64, 52
2, 114804, Control_c, 0, 64, 20
2, 114816, Note_on_c, 0, 50, 42
2, 114819, Control_c, 0, 64, 0
2, 114850, Note_on_c, 0, 51, 0
2, 115118, Note_on_c, 0, 72, 0
2, 115132, Control_c, 0, 64, 40
2, 115147, Control_c, 0, 64, 52
2, 115162, Control_c, 0, 64, 58
2, 115177, Control_c, 0, 64, 62
2, 115192, Control_c, 0, 64, 64
2, 115207, Control_c, 0, 64, 66
2, 115222, Control_c, 0, 64, 69
2, 115237, Control_c, 0, 64, 71
2, 115253, Control_c, 0, 64, 73
2, 115268, Control_c, 0, 64, 76
2, 115284, Control_c, 0, 64, 78
2, 115298, Control_c, 0, 64, 79
2, 115313, Control_c, 0, 64, 80
2, 115329, Control_c, 0, 64, 81
2, 115344, Control_c, 0, 64, 82
2, 115359, Control_c, 0, 64, 82
2, 115390, Control_c, 0, 64, 83
2, 115435, Control_c, 0, 64, 83
2, 115596, Note_on_c, 0, 72, 60
2, 115708, Control_c, 0, 64, 83
2, 115724, Control_c, 0, 64, 82
2, 115739, Control_c, 0, 64, 82
2, 115754, Control_c, 0, 64, 81
2, 115770, Control_c, 0, 64, 78
2, 115784, Control_c, 0, 64, 75
2, 115803, Note_on_c, 0, 74, 52
2, 115808, Control_c, 0, 64, 69
2, 115821, Note_on_c, 0, 72, 0
2, 115824, Control_c, 0, 64, 61
2, 115839, Control_c, 0, 64, 40
2, 115854, Control_c, 0, 64, 0
2, 116157, Control_c, 0, 64, 38
2, 116173, Control_c, 0, 64, 47
2, 116188, Control_c, 0, 64, 53
2, 116204, Control_c, 0, 64, 57
2, 116219, Control_c, 0, 64, 60
2, 116234, Control_c, 0, 64, 62
2, 116250, Control_c, 0, 64, 63
2, 116264, Control_c, 0, 64, 64
2, 116279, Control_c, 0, 64, 65
2, 116295, Control_c, 0, 64, 66
2, 116310, Control_c, 0, 64, 68
2, 116326, Control_c, 0, 64, 69
2, 116340, Control_c, 0, 64, 70
2, 116355, Control_c, 0, 64, 71
2, 116371, Control_c, 0, 64, 72
2, 116385, Control_c, 0, 64, 72
2, 116416, Control_c, 0, 64, 73
2, 116431, Control_c, 0, 64, 73
2, 116447, Control_c, 0, 64, 74
2, 116461, Control_c, 0, 64, 74
2, 116476, Control_c, 0, 64, 75
2, 116492, Control_c, 0, 64, 76
2, 116523, Control_c, 0, 64, 76
2, 116537, Control_c, 0, 64, 77
2, 116552, Control_c, 0, 64, 77
2, 116576, Control_c, 0, 64, 78
2, 116591, Control_c, 0, 64, 79
2, 116606, Control_c, 0, 64, 80
2, 116621, Control_c, 0, 64, 80
2, 116636, Control_c, 0, 64, 81
2, 116651, Control_c, 0, 64, 81
2, 116666, Control_c, 0, 64, 82
2, 116681, Control_c, 0, 64, 82
2, 116711, Control_c, 0, 64, 83
2, 116772, Control_c, 0, 64, 83
2, 116918, Note_on_c, 0, 69, 50
2, 117501, Note_on_c, 0, 71, 49
2, 117525, Control_c, 0, 64, 83
2, 117526, Note_on_c, 0, 69, 0
2, 117540, Control_c, 0, 64, 82
2, 117555, Control_c, 0, 64, 80
2, 117571, Control_c, 0, 64, 77
2, 117586, Control_c, 0, 64, 73
2, 117601, Control_c, 0, 64, 67
2, 117616, Control_c, 0, 64, 56
2, 117631, Control_c, 0, 64, 34
2, 117646, Control_c, 0, 64, 0
2, 118687, Control_c, 0, 64, 10
2, 118703, Control_c, 0, 64, 24
2, 118717, Control_c, 0, 64, 27
2, 118733, Control_c, 0, 64, 30
2, 118748, Control_c, 0, 64, 33
2, 118763, Control_c, 0, 64, 35
2, 118779, Control_c, 0, 64, 36
2, 118794, Control_c, 0, 64, 37
2, 118810, Control_c, 0, 64, 38
2, 118824, Control_c, 0, 64, 39
2, 118839, Control_c, 0, 64, 41
2, 118855, Control_c, 0, 64, 42
2, 118877, Control_c, 0, 64, 44
2, 118893, Control_c, 0, 64, 46
2, 118908, Control_c, 0, 64, 47
2, 118922, Control_c, 0, 64, 47
2, 119029, Control_c, 0, 64, 48
2, 119121, Control_c, 0, 64, 48
2, 119213, Control_c, 0, 64, 49
2, 119289, Control_c, 0, 64, 48
2, 119304, Control_c, 0, 64, 47
2, 119335, Control_c, 0, 64, 47
2, 119380, Control_c, 0, 64, 46
2, 119456, Control_c, 0, 64, 46
2, 119485, Control_c, 0, 64, 45
2, 119516, Control_c, 0, 64, 45
2, 119577, Control_c, 0, 64, 44
2, 119592, Control_c, 0, 64, 43
2, 119607, Control_c, 0, 64, 43
2, 119676, Control_c, 0, 64, 42
2, 119827, Control_c, 0, 64, 42
2, 120284, Control_c, 0, 64, 41
2, 121483, Control_c, 0, 64, 41
2, 121547, Note_on_c, 0, 43, 0
2, 121621, Control_c, 0, 64, 40
2, 121683, Note_on_c, 0, 79, 0
2, 121726, Control_c, 0, 64, 40
2, 121739, Note_on_c, 0, 50, 0
2, 121741, Note_on_c, 0, 71, 0
2, 121779, Note_on_c, 0, 74, 0
2, 121788, Control_c, 0, 64, 39
2, 121892, Control_c, 0, 64, 39
2, 122158, Control_c, 0, 64, 38
2, 122265, Control_c, 0, 64, 38
2, 122433, Control_c, 0, 64, 37
2, 122479, Control_c, 0, 64, 37
2, 122493, Control_c, 0, 64, 36
2, 122988, Control_c, 0, 64, 37
2, 123003, Control_c, 0, 64, 37
2, 123122, Note_on_c, 0, 62, 89
2, 123170, Control_c, 0, 64, 37
2, 123186, Control_c, 0, 64, 36
2, 123202, Control_c, 0, 64, 36
2, 123232, Control_c, 0, 64, 35
2, 123247, Control_c, 0, 64, 34
2, 123278, Control_c, 0, 64, 34
2, 123323, Control_c, 0, 64, 34
2, 123338, Control_c, 0, 64, 35
2, 123430, Control_c, 0, 64, 34
2, 123445, Control_c, 0, 64, 33
2, 123483, Control_c, 0, 64, 32
2, 123742, Control_c, 0, 64, 33
2, 123754, Note_on_c, 0, 62, 0
2, 123847, Control_c, 0, 64, 34
2, 123877, Control_c, 0, 64, 34
2, 123908, Control_c, 0, 64, 35
2, 124020, Note_on_c, 0, 58, 74
2, 124066, Note_on_c, 0, 58, 0
2, 124091, Control_c, 0, 64, 34
2, 124137, Control_c, 0, 64, 34
2, 124212, Control_c, 0, 64, 34
2, 124363, Note_on_c, 0, 63, 90
2, 124448, Control_c, 0, 64, 34
2, 124464, Control_c, 0, 64, 33
2, 124646, Control_c, 0, 64, 32
2, 124676, Control_c, 0, 64, 32
2, 124812, Control_c, 0, 64, 32
2, 124843, Note_on_c, 0, 63, 0
2, 124844, Control_c, 0, 64, 33
2, 124950, Control_c, 0, 64, 32
2, 124971, Note_on_c, 0, 60, 81
2, 124981, Control_c, 0, 64, 32
2, 124996, Control_c, 0, 64, 31
2, 125020, Control_c, 0, 64, 30
2, 125232, Control_c, 0, 64, 29
2, 125262, Control_c, 0, 64, 29
2, 125597, Note_on_c, 0, 60, 0
2, 125609, Control_c, 0, 64, 29
2, 125641, Control_c, 0, 64, 30
2, 125656, Control_c, 0, 64, 31
2, 125686, Control_c, 0, 64, 32
2, 125717, Control_c, 0, 64, 32
2, 125763, Control_c, 0, 64, 33
2, 125861, Control_c, 0, 64, 34
2, 125867, Note_on_c, 0, 57, 80
2, 125910, Note_on_c, 0, 57, 0
2, 125999, Control_c, 0, 64, 34
2, 126075, Control_c, 0, 64, 35
2, 126105, Control_c, 0, 64, 36
2, 126194, Note_on_c, 0, 62, 91
2, 126301, Control_c, 0, 64, 35
2, 126377, Control_c, 0, 64, 34
2, 126408, Control_c, 0, 64, 34
2, 126439, Control_c, 0, 64, 33
2, 126470, Control_c, 0, 64, 32
2, 126499, Control_c, 0, 64, 32
2, 126515, Control_c, 0, 64, 31
2, 126553, Control_c, 0, 64, 30
2, 126733, Note_on_c, 0, 62, 0
2, 126827, Note_on_c, 0, 58, 77
2, 127130, Control_c, 0, 64, 31
2, 127175, Control_c, 0, 64, 32
2, 127427, Control_c, 0, 64, 32
2, 127427, Note_on_c, 0, 58, 0
2, 127442, Control_c, 0, 64, 33
2, 127457, Control_c, 0, 64, 34
2, 127487, Control_c, 0, 64, 34
2, 127518, Control_c, 0, 64, 35
2, 127549, Control_c, 0, 64, 36
2, 127713, Note_on_c, 0, 55, 77
2, 127747, Control_c, 0, 64, 36
2, 127751, Note_on_c, 0, 55, 0
2, 128016, Note_on_c, 0, 60, 94
2, 128035, Control_c, 0, 64, 37
2, 128050, Control_c, 0, 64, 37
2, 128059, Note_on_c, 0, 60, 0
2, 128322, Note_on_c, 0, 60, 85
2, 128363, Note_on_c, 0, 60, 0
2, 128408, Control_c, 0, 64, 37
2, 128515, Control_c, 0, 64, 36
2, 128620, Control_c, 0, 64, 36
2, 128621, Note_on_c, 0, 60, 77
2, 128651, Control_c, 0, 64, 35
2, 128658, Note_on_c, 0, 60, 0
2, 128915, Note_on_c, 0, 60, 71
2, 128949, Control_c, 0, 64, 34
2, 128953, Note_on_c, 0, 60, 0
2, 129191, Note_on_c, 0, 60, 70
2, 129206, Control_c, 0, 64, 35
2, 129232, Note_on_c, 0, 60, 0
2, 129267, Control_c, 0, 64, 34
2, 129458, Note_on_c, 0, 60, 75
2, 129510, Note_on_c, 0, 60, 0
2, 129602, Control_c, 0, 64, 34
2, 129640, Control_c, 0, 64, 33
2, 129731, Control_c, 0, 64, 32
2, 129753, Note_on_c, 0, 60, 68
2, 129899, Control_c, 0, 64, 33
2, 130048, Note_on_c, 0, 60, 0
2, 130057, Note_on_c, 0, 58, 51
2, 130081, Control_c, 0, 64, 34
2, 130176, Note_on_c, 0, 58, 0
2, 130196, Note_on_c, 0, 57, 54
2, 130294, Control_c, 0, 64, 34
2, 130319, Note_on_c, 0, 57, 0
2, 130334, Note_on_c, 0, 67, 86
2, 130337, Note_on_c, 0, 58, 55
2, 130438, Control_c, 0, 64, 34
2, 130454, Note_on_c, 0, 58, 0
2, 130479, Note_on_c, 0, 55, 53
2, 130529, Control_c, 0, 64, 33
2, 130609, Note_on_c, 0, 55, 0
2, 130618, Note_on_c, 0, 58, 59
2, 130621, Control_c, 0, 64, 32
2, 130637, Control_c, 0, 64, 32
2, 130652, Control_c, 0, 64, 30
2, 130667, Control_c, 0, 64, 29
2, 130682, Control_c, 0, 64, 27
2, 130697, Control_c, 0, 64, 26
2, 130713, Control_c, 0, 64, 24
2, 130727, Control_c, 0, 64, 23
2, 130739, Note_on_c, 0, 58, 0
2, 130756, Note_on_c, 0, 60, 60
2, 130758, Control_c, 0, 64, 21
2, 130859, Note_on_c, 0, 60, 0
2, 130865, Control_c, 0, 64, 23
2, 130879, Control_c, 0, 64, 24
2, 130890, Note_on_c, 0, 67, 0
2, 130893, Note_on_c, 0, 62, 64
2, 130910, Control_c, 0, 64, 25
2, 130939, Control_c, 0, 64, 26
2, 130970, Control_c, 0, 64, 27
2, 130993, Note_on_c, 0, 62, 0
2, 131021, Note_on_c, 0, 61, 63
2, 131046, Control_c, 0, 64, 28
2, 131126, Note_on_c, 0, 61, 0
2, 131156, Note_on_c, 0, 65, 84
2, 131158, Note_on_c, 0, 62, 73
2, 131160, Control_c, 0, 64, 29
2, 131175, Control_c, 0, 64, 29
2, 131191, Control_c, 0, 64, 30
2, 131195, Note_on_c, 0, 62, 0
2, 131202, Note_on_c, 0, 65, 0
2, 131205, Control_c, 0, 64, 31
2, 131282, Control_c, 0, 64, 32
2, 131461, Note_on_c, 0, 70, 91
2, 131478, Note_on_c, 0, 62, 78
2, 131495, Control_c, 0, 64, 31
2, 131723, Control_c, 0, 64, 30
2, 131736, Note_on_c, 0, 62, 0
2, 131754, Control_c, 0, 64, 29
2, 131757, Note_on_c, 0, 55, 60
2, 131800, Control_c, 0, 64, 29
2, 131831, Control_c, 0, 64, 28
2, 131981, Note_on_c, 0, 70, 0
2, 132005, Control_c, 0, 64, 27
2, 132036, Control_c, 0, 64, 26
2, 132052, Note_on_c, 0, 67, 84
2, 132066, Note_on_c, 0, 55, 0
2, 132081, Control_c, 0, 64, 25
2, 132126, Control_c, 0, 64, 24
2, 132141, Control_c, 0, 64, 23
2, 132157, Control_c, 0, 64, 21
2, 132181, Note_on_c, 0, 55, 61
2, 132187, Control_c, 0, 64, 20
2, 132279, Control_c, 0, 64, 21
2, 132313, Note_on_c, 0, 55, 0
2, 132327, Note_on_c, 0, 57, 63
2, 132443, Note_on_c, 0, 57, 0
2, 132446, Control_c, 0, 64, 23
2, 132452, Note_on_c, 0, 58, 71
2, 132475, Note_on_c, 0, 67, 0
2, 132492, Control_c, 0, 64, 24
2, 132523, Control_c, 0, 64, 25
2, 132537, Control_c, 0, 64, 26
2, 132558, Note_on_c, 0, 58, 0
2, 132568, Control_c, 0, 64, 27
2, 132592, Note_on_c, 0, 60, 68
2, 132680, Note_on_c, 0, 60, 0
2, 132726, Note_on_c, 0, 58, 64
2, 132838, Note_on_c, 0, 64, 85
2, 132845, Note_on_c, 0, 58, 0
2, 132863, Note_on_c, 0, 60, 70
2, 132881, Control_c, 0, 64, 28
2, 132888, Note_on_c, 0, 64, 0
2, 132889, Note_on_c, 0, 60, 0
2, 132895, Control_c, 0, 64, 29
2, 132926, Control_c, 0, 64, 29
2, 132956, Control_c, 0, 64, 30
2, 132987, Control_c, 0, 64, 31
2, 133002, Control_c, 0, 64, 32
2, 133018, Control_c, 0, 64, 32
2, 133150, Note_on_c, 0, 69, 97
2, 133170, Note_on_c, 0, 60, 74
2, 133185, Control_c, 0, 64, 33
2, 133260, Control_c, 0, 64, 34
2, 133291, Control_c, 0, 64, 34
2, 133307, Control_c, 0, 64, 35
2, 133400, Note_on_c, 0, 60, 0
2, 133428, Control_c, 0, 64, 34
2, 133434, Note_on_c, 0, 53, 59
2, 133466, Control_c, 0, 64, 34
2, 133496, Control_c, 0, 64, 33
2, 133541, Control_c, 0, 64, 32
2, 133587, Control_c, 0, 64, 32
2, 133617, Control_c, 0, 64, 31
2, 133633, Control_c, 0, 64, 30
2, 133648, Control_c, 0, 64, 29
2, 133653, Note_on_c, 0, 69, 0
2, 133664, Control_c, 0, 64, 28
2, 133679, Control_c, 0, 64, 27
2, 133694, Control_c, 0, 64, 25
2, 133709, Control_c, 0, 64, 23
2, 133724, Control_c, 0, 64, 21
2, 133727, Note_on_c, 0, 65, 87
2, 133733, Note_on_c, 0, 53, 0
2, 133739, Control_c, 0, 64, 20
2, 133755, Control_c, 0, 64, 17
2, 133770, Control_c, 0, 64, 15
2, 133786, Control_c, 0, 64, 13
2, 133800, Control_c, 0, 64, 10
2, 133815, Control_c, 0, 64, 0
2, 133855, Note_on_c, 0, 53, 69
2, 133969, Note_on_c, 0, 53, 0
2, 133989, Note_on_c, 0, 55, 62
2, 134079, Note_on_c, 0, 55, 0
2, 134105, Control_c, 0, 64, 10
2, 134116, Note_on_c, 0, 57, 61
2, 134135, Control_c, 0, 64, 13
2, 134164, Control_c, 0, 64, 15
2, 134205, Note_on_c, 0, 65, 0
2, 134210, Control_c, 0, 64, 17
2, 134247, Note_on_c, 0, 57, 0
2, 134258, Note_on_c, 0, 58, 64
2, 134278, Control_c, 0, 64, 18
2, 134359, Note_on_c, 0, 58, 0
2, 134372, Note_on_c, 0, 57, 55
2, 134504, Note_on_c, 0, 57, 0
2, 134518, Note_on_c, 0, 62, 86
2, 134519, Note_on_c, 0, 58, 59
2, 134570, Note_on_c, 0, 62, 0
2, 134792, Note_on_c, 0, 67, 89
2, 134795, Control_c, 0, 64, 20
2, 134810, Control_c, 0, 64, 21
2, 134826, Control_c, 0, 64, 23
2, 134834, Note_on_c, 0, 67, 0
2, 134856, Control_c, 0, 64, 24
2, 134917, Note_on_c, 0, 58, 0
2, 134934, Note_on_c, 0, 57, 50
2, 135015, Control_c, 0, 64, 23
2, 135060, Note_on_c, 0, 57, 0
2, 135065, Note_on_c, 0, 67, 95
2, 135076, Note_on_c, 0, 58, 64
2, 135100, Note_on_c, 0, 67, 0
2, 135170, Note_on_c, 0, 58, 0
2, 135195, Note_on_c, 0, 57, 58
2, 135259, Control_c, 0, 64, 21
2, 135289, Control_c, 0, 64, 20
2, 135313, Note_on_c, 0, 57, 0
2, 135333, Note_on_c, 0, 67, 94
2, 135351, Note_on_c, 0, 55, 64
2, 135369, Note_on_c, 0, 67, 0
2, 135443, Note_on_c, 0, 55, 0
2, 135478, Note_on_c, 0, 53, 56
2, 135564, Control_c, 0, 64, 18
2, 135577, Note_on_c, 0, 53, 0
2, 135593, Note_on_c, 0, 67, 89
2, 135609, Control_c, 0, 64, 17
2, 135614, Note_on_c, 0, 55, 55
2, 135628, Note_on_c, 0, 67, 0
2, 135684, Note_on_c, 0, 55, 0
2, 135722, Note_on_c, 0, 53, 56
2, 135731, Control_c, 0, 64, 18
2, 135852, Note_on_c, 0, 53, 0
2, 135868, Note_on_c, 0, 52, 55
2, 135873, Note_on_c, 0, 67, 82
2, 135911, Note_on_c, 0, 67, 0
2, 135971, Note_on_c, 0, 52, 0
2, 136008, Note_on_c, 0, 50, 51
2, 136124, Note_on_c, 0, 50, 0
2, 136141, Note_on_c, 0, 67, 78
2, 136163, Note_on_c, 0, 52, 61
2, 136183, Note_on_c, 0, 67, 0
2, 136210, Control_c, 0, 64, 17
2, 136243, Note_on_c, 0, 52, 0
2, 136270, Note_on_c, 0, 50, 52
2, 136400, Note_on_c, 0, 50, 0
2, 136414, Note_on_c, 0, 67, 76
2, 136423, Note_on_c, 0, 49, 51
2, 136515, Control_c, 0, 64, 18
2, 136670, Note_on_c, 0, 49, 0
2, 136690, Note_on_c, 0, 67, 0
2, 136704, Note_on_c, 0, 57, 47
2, 136705, Note_on_c, 0, 65, 66
2, 136735, Control_c, 0, 64, 17
2, 136758, Note_on_c, 0, 57, 0
2, 136800, Note_on_c, 0, 65, 0
2, 136841, Control_c, 0, 64, 15
2, 136843, Note_on_c, 0, 64, 59
2, 136856, Control_c, 0, 64, 0
2, 136885, Note_on_c, 0, 64, 0
2, 136970, Note_on_c, 0, 74, 86
2, 136985, Note_on_c, 0, 50, 57
2, 136988, Note_on_c, 0, 65, 71
2, 137027, Note_on_c, 0, 50, 0
2, 137039, Control_c, 0, 64, 56
2, 137054, Control_c, 0, 64, 62
2, 137069, Control_c, 0, 64, 64
2, 137084, Control_c, 0, 64, 66
2, 137099, Control_c, 0, 64, 69
2, 137115, Control_c, 0, 64, 71
2, 137122, Note_on_c, 0, 65, 0
2, 137129, Note_on_c, 0, 62, 60
2, 137130, Control_c, 0, 64, 74
2, 137146, Control_c, 0, 64, 77
2, 137149, Note_on_c, 0, 74, 0
2, 137161, Control_c, 0, 64, 77
2, 137246, Note_on_c, 0, 62, 0
2, 137249, Note_on_c, 0, 64, 68
2, 137263, Note_on_c, 0, 60, 47
2, 137282, Control_c, 0, 64, 77
2, 137308, Note_on_c, 0, 60, 0
2, 137320, Control_c, 0, 64, 76
2, 137335, Control_c, 0, 64, 74
2, 137351, Control_c, 0, 64, 72
2, 137366, Control_c, 0, 64, 67
2, 137378, Note_on_c, 0, 66, 70
2, 137381, Control_c, 0, 64, 55
2, 137396, Control_c, 0, 64, 0
2, 137412, Note_on_c, 0, 64, 0
2, 137506, Note_on_c, 0, 67, 73
2, 137516, Note_on_c, 0, 58, 54
2, 137525, Note_on_c, 0, 66, 0
2, 137558, Note_on_c, 0, 58, 0
2, 137570, Note_on_c, 0, 67, 0
2, 137635, Note_on_c, 0, 66, 58
2, 137653, Note_on_c, 0, 66, 0
2, 137763, Note_on_c, 0, 70, 80
2, 137772, Note_on_c, 0, 55, 64
2, 137777, Note_on_c, 0, 67, 60
2, 137800, Note_on_c, 0, 67, 0
2, 137809, Note_on_c, 0, 55, 0
2, 137821, Note_on_c, 0, 70, 0
2, 138053, Note_on_c, 0, 75, 94
2, 138077, Note_on_c, 0, 67, 68
2, 138092, Note_on_c, 0, 60, 63
2, 138143, Note_on_c, 0, 67, 0
2, 138179, Control_c, 0, 64, 37
2, 138179, Note_on_c, 0, 67, 30
2, 138194, Control_c, 0, 64, 50
2, 138197, Note_on_c, 0, 60, 0
2, 138209, Control_c, 0, 64, 57
2, 138218, Note_on_c, 0, 58, 53
2, 138225, Control_c, 0, 64, 62
2, 138240, Control_c, 0, 64, 65
2, 138255, Control_c, 0, 64, 67
2, 138271, Control_c, 0, 64, 69
2, 138286, Control_c, 0, 64, 72
2, 138298, Note_on_c, 0, 75, 0
2, 138300, Control_c, 0, 64, 74
2, 138304, Note_on_c, 0, 58, 0
2, 138316, Control_c, 0, 64, 76
2, 138331, Control_c, 0, 64, 77
2, 138337, Note_on_c, 0, 60, 63
2, 138347, Control_c, 0, 64, 77
2, 138362, Control_c, 0, 64, 78
2, 138376, Control_c, 0, 64, 78
2, 138393, Note_on_c, 0, 67, 0
2, 138451, Note_on_c, 0, 58, 53
2, 138469, Note_on_c, 0, 60, 0
2, 138570, Note_on_c, 0, 58, 0
2, 138573, Control_c, 0, 64, 77
2, 138589, Control_c, 0, 64, 73
2, 138595, Note_on_c, 0, 72, 89
2, 138601, Note_on_c, 0, 57, 64
2, 138604, Control_c, 0, 64, 65
2, 138619, Control_c, 0, 64, 38
2, 138635, Control_c, 0, 64, 0
2, 138743, Note_on_c, 0, 60, 59
2, 138754, Note_on_c, 0, 57, 0
2, 138833, Note_on_c, 0, 60, 0
2, 138869, Note_on_c, 0, 62, 60
2, 138944, Note_on_c, 0, 62, 0
2, 138984, Note_on_c, 0, 55, 60
2, 139000, Note_on_c, 0, 63, 65
2, 139041, Note_on_c, 0, 55, 0
2, 139093, Note_on_c, 0, 63, 0
2, 139117, Note_on_c, 0, 57, 66
2, 139123, Note_on_c, 0, 72, 0
2, 139138, Note_on_c, 0, 65, 70
2, 139153, Note_on_c, 0, 57, 0
2, 139202, Note_on_c, 0, 65, 0
2, 139261, Note_on_c, 0, 63, 58
2, 139300, Note_on_c, 0, 63, 0
2, 139394, Note_on_c, 0, 69, 80
2, 139396, Note_on_c, 0, 65, 80
2, 139404, Note_on_c, 0, 53, 70
2, 139425, Note_on_c, 0, 65, 0
2, 139448, Note_on_c, 0, 53, 0
2, 139448, Note_on_c, 0, 69, 0
2, 139694, Note_on_c, 0, 74, 91
2, 139708, Note_on_c, 0, 58, 63
2, 139708, Note_on_c, 0, 65, 72
2, 139758, Note_on_c, 0, 65, 0
2, 139776, Control_c, 0, 64, 50
2, 139792, Control_c, 0, 64, 60
2, 139807, Control_c, 0, 64, 63
2, 139811, Note_on_c, 0, 58, 0
2, 139823, Control_c, 0, 64, 65
2, 139830, Note_on_c, 0, 57, 55
2, 139838, Control_c, 0, 64, 67
2, 139852, Control_c, 0, 64, 69
2, 139868, Control_c, 0, 64, 71
2, 139883, Control_c, 0, 64, 73
2, 139898, Control_c, 0, 64, 75
2, 139907, Note_on_c, 0, 74, 0
2, 139913, Control_c, 0, 64, 76
2, 139928, Control_c, 0, 64, 76
2, 139937, Note_on_c, 0, 57, 0
2, 139944, Control_c, 0, 64, 77
2, 139953, Note_on_c, 0, 58, 61
2, 140055, Note_on_c, 0, 58, 0
2, 140071, Note_on_c, 0, 57, 53
2, 140187, Control_c, 0, 64, 76
2, 140202, Control_c, 0, 64, 74
2, 140209, Note_on_c, 0, 57, 0
2, 140217, Control_c, 0, 64, 70
2, 140220, Note_on_c, 0, 70, 91
2, 140233, Control_c, 0, 64, 63
2, 140233, Note_on_c, 0, 55, 65
2, 140247, Control_c, 0, 64, 41
2, 140263, Control_c, 0, 64, 0
2, 140356, Note_on_c, 0, 58, 59
2, 140365, Note_on_c, 0, 55, 0
2, 140447, Note_on_c, 0, 58, 0
2, 140483, Note_on_c, 0, 57, 53
2, 140485, Note_on_c, 0, 60, 65
2, 140558, Note_on_c, 0, 60, 0
2, 140589, Note_on_c, 0, 57, 0
2, 140606, Note_on_c, 0, 58, 48
2, 140646, Note_on_c, 0, 62, 57
2, 140715, Note_on_c, 0, 58, 0
2, 140748, Note_on_c, 0, 62, 0
2, 140753, Note_on_c, 0, 60, 44
2, 140769, Note_on_c, 0, 63, 64
2, 140813, Note_on_c, 0, 70, 0
2, 140874, Note_on_c, 0, 63, 0
2, 140887, Note_on_c, 0, 62, 55
2, 140980, Note_on_c, 0, 62, 0
2, 141019, Note_on_c, 0, 67, 76
2, 141026, Note_on_c, 0, 63, 71
2, 141065, Note_on_c, 0, 63, 0
2, 141072, Note_on_c, 0, 67, 0
2, 141162, Note_on_c, 0, 58, 48
2, 141166, Note_on_c, 0, 60, 0
2, 141274, Note_on_c, 0, 58, 0
2, 141294, Note_on_c, 0, 72, 88
2, 141295, Note_on_c, 0, 57, 57
2, 141365, Note_on_c, 0, 72, 0
2, 141431, Note_on_c, 0, 62, 62
2, 141489, Note_on_c, 0, 62, 0
2, 141560, Note_on_c, 0, 63, 69
2, 141560, Note_on_c, 0, 72, 76
2, 141590, Note_on_c, 0, 63, 0
2, 141633, Note_on_c, 0, 72, 0
2, 141683, Note_on_c, 0, 62, 59
2, 141716, Note_on_c, 0, 62, 0
2, 141814, Note_on_c, 0, 57, 0
2, 141827, Note_on_c, 0, 72, 81
2, 141836, Note_on_c, 0, 60, 56
2, 141869, Note_on_c, 0, 72, 0
2, 141908, Note_on_c, 0, 60, 0
2, 141950, Note_on_c, 0, 58, 55
2, 142052, Note_on_c, 0, 58, 0
2, 142084, Note_on_c, 0, 72, 88
2, 142090, Note_on_c, 0, 55, 58
2, 142092, Note_on_c, 0, 60, 60
2, 142129, Note_on_c, 0, 72, 0
2, 142169, Note_on_c, 0, 60, 0
2, 142195, Note_on_c, 0, 55, 0
2, 142213, Note_on_c, 0, 58, 65
2, 142296, Note_on_c, 0, 58, 0
2, 142349, Note_on_c, 0, 57, 69
2, 142355, Note_on_c, 0, 72, 91
2, 142361, Note_on_c, 0, 54, 52
2, 142399, Note_on_c, 0, 54, 0
2, 142404, Note_on_c, 0, 72, 0
2, 142431, Note_on_c, 0, 57, 0
2, 142486, Note_on_c, 0, 55, 58
2, 142569, Note_on_c, 0, 55, 0
2, 142623, Note_on_c, 0, 72, 91
2, 142624, Note_on_c, 0, 57, 66
2, 142634, Note_on_c, 0, 52, 60
2, 142670, Note_on_c, 0, 72, 0
2, 142689, Note_on_c, 0, 57, 0
2, 142694, Note_on_c, 0, 52, 0
2, 142750, Note_on_c, 0, 55, 64
2, 142799, Note_on_c, 0, 55, 0
2, 142896, Note_on_c, 0, 54, 67
2, 142900, Note_on_c, 0, 72, 91
2, 142907, Note_on_c, 0, 50, 61
2, 142970, Control_c, 0, 64, 23
2, 142976, Note_on_c, 0, 54, 0
2, 142986, Control_c, 0, 64, 30
2, 143000, Control_c, 0, 64, 32
2, 143031, Control_c, 0, 64, 31
2, 143046, Control_c, 0, 64, 29
2, 143061, Control_c, 0, 64, 25
2, 143077, Control_c, 0, 64, 20
2, 143092, Control_c, 0, 64, 17
2, 143108, Control_c, 0, 64, 15
2, 143135, Note_on_c, 0, 50, 0
2, 143153, Control_c, 0, 64, 13
2, 143160, Note_on_c, 0, 70, 70
2, 143167, Note_on_c, 0, 54, 76
2, 143168, Note_on_c, 0, 62, 56
2, 143184, Control_c, 0, 64, 10
2, 143198, Note_on_c, 0, 62, 0
2, 143199, Control_c, 0, 64, 0
2, 143208, Note_on_c, 0, 54, 0
2, 143273, Note_on_c, 0, 72, 0
2, 143298, Note_on_c, 0, 70, 0
2, 143311, Note_on_c, 0, 69, 63
2, 143455, Note_on_c, 0, 55, 92
2, 143465, Control_c, 0, 64, 43
2, 143465, Note_on_c, 0, 70, 78
2, 143480, Control_c, 0, 64, 59
2, 143486, Note_on_c, 0, 69, 0
2, 143494, Control_c, 0, 64, 64
2, 143510, Control_c, 0, 64, 67
2, 143525, Control_c, 0, 64, 70
2, 143540, Control_c, 0, 64, 72
2, 143555, Control_c, 0, 64, 74
2, 143560, Note_on_c, 0, 70, 0
2, 143570, Control_c, 0, 64, 76
2, 143586, Control_c, 0, 64, 77
2, 143601, Control_c, 0, 64, 77
2, 143604, Note_on_c, 0, 67, 68
2, 143645, Note_on_c, 0, 67, 0
2, 143709, Control_c, 0, 64, 77
2, 143723, Control_c, 0, 64, 76
2, 143738, Control_c, 0, 64, 76
2, 143746, Note_on_c, 0, 70, 75
2, 143750, Note_on_c, 0, 67, 55
2, 143754, Control_c, 0, 64, 75
2, 143769, Control_c, 0, 64, 73
2, 143771, Note_on_c, 0, 62, 51
2, 143771, Note_on_c, 0, 67, 0
2, 143784, Control_c, 0, 64, 72
2, 143799, Control_c, 0, 64, 69
2, 143814, Control_c, 0, 64, 65
2, 143830, Control_c, 0, 64, 60
2, 143844, Control_c, 0, 64, 49
2, 143859, Control_c, 0, 64, 30
2, 143870, Note_on_c, 0, 72, 75
2, 143875, Control_c, 0, 64, 0
2, 143876, Note_on_c, 0, 62, 0
2, 143876, Note_on_c, 0, 70, 0
2, 143893, Note_on_c, 0, 64, 57
2, 143978, Note_on_c, 0, 64, 0
2, 143997, Note_on_c, 0, 74, 75
2, 143998, Note_on_c, 0, 72, 0
2, 144011, Note_on_c, 0, 65, 63
2, 144078, Note_on_c, 0, 65, 0
2, 144108, Note_on_c, 0, 55, 0
2, 144115, Note_on_c, 0, 74, 0
2, 144122, Note_on_c, 0, 73, 68
2, 144134, Note_on_c, 0, 64, 43
2, 144159, Note_on_c, 0, 64, 0
2, 144173, Note_on_c, 0, 73, 0
2, 144269, Note_on_c, 0, 74, 80
2, 144270, Note_on_c, 0, 65, 81
2, 144276, Note_on_c, 0, 53, 75
2, 144295, Note_on_c, 0, 65, 0
2, 144310, Note_on_c, 0, 53, 0
2, 144373, Note_on_c, 0, 74, 0
2, 144399, Note_on_c, 0, 69, 71
2, 144445, Note_on_c, 0, 69, 0
2, 144556, Note_on_c, 0, 58, 86
2, 144558, Note_on_c, 0, 74, 84
2, 144560, Note_on_c, 0, 62, 84
2, 144685, Note_on_c, 0, 69, 68
2, 144764, Control_c, 0, 64, 41
2, 144779, Control_c, 0, 64, 55
2, 144795, Control_c, 0, 64, 60
2, 144805, Note_on_c, 0, 69, 0
2, 144810, Control_c, 0, 64, 62
2, 144826, Control_c, 0, 64, 63
2, 144829, Note_on_c, 0, 67, 65
2, 144841, Control_c, 0, 64, 64
2, 144856, Control_c, 0, 64, 66
2, 144872, Control_c, 0, 64, 68
2, 144887, Control_c, 0, 64, 71
2, 144901, Control_c, 0, 64, 73
2, 144917, Control_c, 0, 64, 75
2, 144932, Control_c, 0, 64, 75
2, 144947, Control_c, 0, 64, 76
2, 144958, Note_on_c, 0, 67, 0
2, 144979, Note_on_c, 0, 65, 62
2, 144985, Control_c, 0, 64, 76
2, 145004, Note_on_c, 0, 58, 0
2, 145061, Control_c, 0, 64, 75
2, 145066, Note_on_c, 0, 65, 0
2, 145076, Control_c, 0, 64, 72
2, 145083, Note_on_c, 0, 62, 0
2, 145091, Control_c, 0, 64, 66
2, 145101, Note_on_c, 0, 55, 95
2, 145107, Control_c, 0, 64, 52
2, 145115, Note_on_c, 0, 64, 72
2, 145122, Control_c, 0, 64, 0
2, 145231, Note_on_c, 0, 74, 0
2, 145236, Note_on_c, 0, 67, 67
2, 145370, Note_on_c, 0, 69, 72
2, 145373, Note_on_c, 0, 67, 0
2, 145390, Note_on_c, 0, 60, 60
2, 145459, Note_on_c, 0, 60, 0
2, 145503, Note_on_c, 0, 70, 66
2, 145508, Note_on_c, 0, 55, 0
2, 145517, Note_on_c, 0, 58, 55
2, 145519, Note_on_c, 0, 69, 0
2, 145629, Note_on_c, 0, 58, 0
2, 145639, Note_on_c, 0, 57, 72
2, 145652, Note_on_c, 0, 72, 65
2, 145654, Note_on_c, 0, 70, 0
2, 145683, Note_on_c, 0, 57, 0
2, 145758, Note_on_c, 0, 72, 0
2, 145783, Note_on_c, 0, 70, 64
2, 145858, Note_on_c, 0, 64, 0
2, 145883, Note_on_c, 0, 70, 0
2, 145910, Note_on_c, 0, 72, 74
2, 145911, Note_on_c, 0, 52, 84
2, 145917, Note_on_c, 0, 55, 78
2, 145958, Note_on_c, 0, 55, 0
2, 145960, Note_on_c, 0, 52, 0
2, 146025, Note_on_c, 0, 72, 0
2, 146043, Note_on_c, 0, 67, 68
2, 146089, Note_on_c, 0, 67, 0
2, 146198, Note_on_c, 0, 57, 87
2, 146198, Note_on_c, 0, 60, 88
2, 146200, Note_on_c, 0, 72, 89
2, 146327, Note_on_c, 0, 67, 72
2, 146347, Control_c, 0, 64, 24
2, 146362, Control_c, 0, 64, 48
2, 146377, Control_c, 0, 64, 56
2, 146392, Control_c, 0, 64, 59
2, 146407, Control_c, 0, 64, 61
2, 146423, Control_c, 0, 64, 62
2, 146437, Control_c, 0, 64, 63
2, 146452, Control_c, 0, 64, 64
2, 146453, Note_on_c, 0, 67, 0
2, 146468, Control_c, 0, 64, 65
2, 146477, Note_on_c, 0, 65, 58
2, 146483, Control_c, 0, 64, 66
2, 146498, Control_c, 0, 64, 66
2, 146521, Control_c, 0, 64, 67
2, 146536, Control_c, 0, 64, 68
2, 146567, Control_c, 0, 64, 68
2, 146627, Note_on_c, 0, 65, 0
2, 146633, Note_on_c, 0, 64, 61
2, 146642, Control_c, 0, 64, 69
2, 146675, Note_on_c, 0, 57, 0
2, 146704, Control_c, 0, 64, 68
2, 146718, Control_c, 0, 64, 67
2, 146730, Note_on_c, 0, 64, 0
2, 146733, Control_c, 0, 64, 64
2, 146733, Note_on_c, 0, 60, 0
2, 146744, Note_on_c, 0, 53, 94
2, 146749, Control_c, 0, 64, 56
2, 146762, Note_on_c, 0, 62, 76
2, 146764, Control_c, 0, 64, 20
2, 146779, Control_c, 0, 64, 0
2, 146882, Note_on_c, 0, 65, 72
2, 146900, Note_on_c, 0, 72, 0
2, 147009, Note_on_c, 0, 58, 61
2, 147015, Note_on_c, 0, 67, 73
2, 147041, Note_on_c, 0, 65, 0
2, 147121, Note_on_c, 0, 58, 0
2, 147144, Note_on_c, 0, 57, 65
2, 147148, Note_on_c, 0, 69, 73
2, 147171, Note_on_c, 0, 53, 0
2, 147256, Note_on_c, 0, 57, 0
2, 147257, Note_on_c, 0, 67, 0
2, 147287, Note_on_c, 0, 70, 77
2, 147296, Note_on_c, 0, 55, 76
2, 147314, Note_on_c, 0, 69, 0
2, 147338, Note_on_c, 0, 55, 0
2, 147420, Note_on_c, 0, 69, 69
2, 147428, Note_on_c, 0, 70, 0
2, 147546, Note_on_c, 0, 70, 72
2, 147547, Note_on_c, 0, 53, 80
2, 147548, Note_on_c, 0, 50, 74
2, 147582, Note_on_c, 0, 50, 0
2, 147585, Note_on_c, 0, 53, 0
2, 147596, Note_on_c, 0, 62, 0
2, 147620, Note_on_c, 0, 69, 0
2, 147681, Note_on_c, 0, 65, 66
2, 147688, Note_on_c, 0, 70, 0
2, 147742, Note_on_c, 0, 65, 0
2, 147815, Note_on_c, 0, 64, 81
2, 147820, Note_on_c, 0, 55, 80
2, 147825, Note_on_c, 0, 58, 82
2, 147872, Note_on_c, 0, 55, 0
2, 147875, Note_on_c, 0, 58, 0
2, 147956, Note_on_c, 0, 69, 69
2, 148065, Note_on_c, 0, 64, 0
2, 148085, Note_on_c, 0, 55, 88
2, 148097, Note_on_c, 0, 70, 73
2, 148117, Note_on_c, 0, 69, 0
2, 148133, Note_on_c, 0, 55, 0
2, 148222, Note_on_c, 0, 69, 73
2, 148229, Note_on_c, 0, 70, 0
2, 148237, Note_on_c, 0, 65, 69
2, 148259, Note_on_c, 0, 69, 0
2, 148317, Note_on_c, 0, 65, 0
2, 148355, Note_on_c, 0, 55, 91
2, 148361, Note_on_c, 0, 64, 77
2, 148361, Note_on_c, 0, 67, 72
2, 148397, Note_on_c, 0, 55, 0
2, 148496, Note_on_c, 0, 67, 0
2, 148504, Note_on_c, 0, 65, 64
2, 148576, Note_on_c, 0, 64, 0
2, 148601, Note_on_c, 0, 65, 0
2, 148624, Note_on_c, 0, 67, 69
2, 148626, Note_on_c, 0, 55, 88
2, 148672, Note_on_c, 0, 55, 0
2, 148745, Note_on_c, 0, 67, 0
2, 148749, Note_on_c, 0, 65, 66
2, 148753, Note_on_c, 0, 62, 69
2, 148800, Note_on_c, 0, 65, 0
2, 148820, Note_on_c, 0, 62, 0
2, 148886, Note_on_c, 0, 61, 75
2, 148886, Note_on_c, 0, 64, 68
2, 148891, Note_on_c, 0, 55, 90
2, 148944, Note_on_c, 0, 55, 0
2, 149003, Note_on_c, 0, 64, 0
2, 149015, Note_on_c, 0, 62, 61
2, 149093, Note_on_c, 0, 61, 0
2, 149151, Note_on_c, 0, 64, 66
2, 149152, Note_on_c, 0, 55, 87
2, 149176, Note_on_c, 0, 62, 0
2, 149206, Note_on_c, 0, 55, 0
2, 149277, Note_on_c, 0, 64, 0
2, 149283, Note_on_c, 0, 62, 71
2, 149333, Note_on_c, 0, 62, 0
2, 149417, Note_on_c, 0, 61, 67
2, 149421, Note_on_c, 0, 55, 77
2, 149426, Note_on_c, 0, 57, 55
2, 149497, Note_on_c, 0, 61, 0
2, 149675, Note_on_c, 0, 57, 0
2, 149692, Note_on_c, 0, 69, 73
2, 149711, Note_on_c, 0, 55, 0
2, 149720, Note_on_c, 0, 53, 60
2, 149737, Note_on_c, 0, 69, 0
2, 149814, Note_on_c, 0, 53, 0
2, 149843, Note_on_c, 0, 52, 53
2, 149939, Note_on_c, 0, 52, 0
2, 149959, Note_on_c, 0, 62, 73
2, 149967, Note_on_c, 0, 53, 55
2, 150002, Note_on_c, 0, 62, 0
2, 150072, Note_on_c, 0, 53, 0
2, 150115, Note_on_c, 0, 50, 44
2, 150225, Note_on_c, 0, 50, 0
2, 150226, Note_on_c, 0, 72, 77
2, 150249, Note_on_c, 0, 51, 54
2, 150266, Note_on_c, 0, 72, 0
2, 150369, Note_on_c, 0, 51, 0
2, 150387, Note_on_c, 0, 53, 54
2, 150482, Note_on_c, 0, 53, 0
2, 150501, Note_on_c, 0, 71, 73
2, 150523, Note_on_c, 0, 55, 53
2, 150581, Note_on_c, 0, 55, 0
2, 150620, Note_on_c, 0, 74, 76
2, 150632, Note_on_c, 0, 71, 0
2, 150635, Note_on_c, 0, 53, 51
2, 150719, Note_on_c, 0, 53, 0
2, 150751, Note_on_c, 0, 77, 79
2, 150760, Note_on_c, 0, 74, 0
2, 150786, Note_on_c, 0, 55, 47
2, 150821, Note_on_c, 0, 55, 0
2, 150864, Note_on_c, 0, 77, 0
2, 150882, Note_on_c, 0, 74, 69
2, 151024, Note_on_c, 0, 48, 50
2, 151026, Note_on_c, 0, 74, 0
2, 151035, Note_on_c, 0, 75, 65
2, 151126, Note_on_c, 0, 48, 0
2, 151173, Note_on_c, 0, 47, 43
2, 151300, Note_on_c, 0, 48, 51
2, 151316, Note_on_c, 0, 67, 62
2, 151317, Note_on_c, 0, 75, 0
2, 151323, Note_on_c, 0, 47, 0
2, 151348, Note_on_c, 0, 67, 0
2, 151392, Note_on_c, 0, 48, 0
2, 151434, Note_on_c, 0, 50, 49
2, 151560, Note_on_c, 0, 50, 0
2, 151575, Note_on_c, 0, 60, 69
2, 151586, Note_on_c, 0, 51, 50
2, 151620, Note_on_c, 0, 60, 0
2, 151683, Note_on_c, 0, 51, 0
2, 151722, Note_on_c, 0, 48, 46
2, 151818, Note_on_c, 0, 70, 79
2, 151846, Note_on_c, 0, 48, 0
2, 151860, Note_on_c, 0, 50, 49
2, 151873, Note_on_c, 0, 70, 0
2, 151967, Note_on_c, 0, 50, 0
2, 151992, Note_on_c, 0, 51, 53
2, 152068, Note_on_c, 0, 51, 0
2, 152096, Note_on_c, 0, 69, 81
2, 152113, Note_on_c, 0, 53, 62
2, 152192, Note_on_c, 0, 69, 0
2, 152204, Note_on_c, 0, 53, 0
2, 152219, Note_on_c, 0, 51, 57
2, 152232, Note_on_c, 0, 72, 80
2, 152314, Note_on_c, 0, 51, 0
2, 152331, Note_on_c, 0, 53, 64
2, 152358, Note_on_c, 0, 75, 73
2, 152359, Note_on_c, 0, 72, 0
2, 152362, Note_on_c, 0, 53, 0
2, 152474, Note_on_c, 0, 75, 0
2, 152479, Note_on_c, 0, 81, 73
2, 152624, Note_on_c, 0, 82, 78
2, 152627, Note_on_c, 0, 46, 48
2, 152658, Note_on_c, 0, 81, 0
2, 152695, Control_c, 0, 64, 53
2, 152711, Control_c, 0, 64, 62
2, 152726, Control_c, 0, 64, 64
2, 152741, Control_c, 0, 64, 67
2, 152741, Note_on_c, 0, 46, 0
2, 152756, Control_c, 0, 64, 69
2, 152762, Note_on_c, 0, 53, 47
2, 152771, Control_c, 0, 64, 71
2, 152787, Control_c, 0, 64, 74
2, 152802, Control_c, 0, 64, 77
2, 152817, Control_c, 0, 64, 78
2, 152833, Control_c, 0, 64, 79
2, 152847, Control_c, 0, 64, 79
2, 152882, Note_on_c, 0, 53, 0
2, 152898, Note_on_c, 0, 82, 0
2, 152909, Control_c, 0, 64, 80
2, 152913, Note_on_c, 0, 55, 50
2, 152914, Note_on_c, 0, 74, 57
2, 152969, Note_on_c, 0, 55, 0
2, 153040, Note_on_c, 0, 81, 79
2, 153042, Note_on_c, 0, 57, 50
2, 153064, Note_on_c, 0, 74, 0
2, 153090, Control_c, 0, 64, 78
2, 153106, Control_c, 0, 64, 74
2, 153120, Control_c, 0, 64, 66
2, 153135, Control_c, 0, 64, 10
2, 153151, Control_c, 0, 64, 0
2, 153169, Note_on_c, 0, 57, 0
2, 153179, Note_on_c, 0, 79, 80
2, 153185, Note_on_c, 0, 58, 61
2, 153212, Control_c, 0, 64, 49
2, 153215, Note_on_c, 0, 81, 0
2, 153228, Control_c, 0, 64, 60
2, 153242, Control_c, 0, 64, 62
2, 153257, Control_c, 0, 64, 64
2, 153273, Control_c, 0, 64, 65
2, 153288, Control_c, 0, 64, 67
2, 153288, Note_on_c, 0, 58, 0
2, 153304, Control_c, 0, 64, 69
2, 153305, Note_on_c, 0, 57, 59
2, 153311, Note_on_c, 0, 78, 83
2, 153318, Control_c, 0, 64, 71
2, 153333, Control_c, 0, 64, 72
2, 153340, Note_on_c, 0, 79, 0
2, 153349, Control_c, 0, 64, 73
2, 153363, Control_c, 0, 64, 73
2, 153414, Note_on_c, 0, 57, 0
2, 153446, Note_on_c, 0, 58, 67
2, 153447, Control_c, 0, 64, 73
2, 153450, Note_on_c, 0, 79, 89
2, 153481, Note_on_c, 0, 78, 0
2, 153509, Control_c, 0, 64, 72
2, 153524, Control_c, 0, 64, 72
2, 153575, Note_on_c, 0, 78, 89
2, 153600, Control_c, 0, 64, 71
2, 153609, Note_on_c, 0, 79, 0
2, 153615, Control_c, 0, 64, 71
2, 153631, Control_c, 0, 64, 70
2, 153646, Control_c, 0, 64, 69
2, 153661, Control_c, 0, 64, 68
2, 153677, Control_c, 0, 64, 66
2, 153691, Control_c, 0, 64, 63
2, 153707, Control_c, 0, 64, 53
2, 153722, Control_c, 0, 64, 0
2, 153722, Note_on_c, 0, 79, 89
2, 153754, Note_on_c, 0, 78, 0
2, 153793, Note_on_c, 0, 58, 0
2, 153836, Note_on_c, 0, 52, 56
2, 153958, Note_on_c, 0, 52, 0
2, 153970, Note_on_c, 0, 54, 63
2, 154083, Note_on_c, 0, 54, 0
2, 154096, Note_on_c, 0, 55, 61
2, 154101, Note_on_c, 0, 74, 68
2, 154214, Note_on_c, 0, 55, 0
2, 154216, Note_on_c, 0, 74, 0
2, 154243, Note_on_c, 0, 72, 73
2, 154255, Note_on_c, 0, 57, 67
2, 154330, Note_on_c, 0, 57, 0
2, 154379, Note_on_c, 0, 55, 65
2, 154379, Note_on_c, 0, 70, 69
2, 154382, Note_on_c, 0, 72, 0
2, 154474, Note_on_c, 0, 55, 0
2, 154501, Note_on_c, 0, 70, 0
2, 154502, Note_on_c, 0, 57, 73
2, 154505, Note_on_c, 0, 72, 68
2, 154530, Note_on_c, 0, 57, 0
2, 154625, Note_on_c, 0, 72, 0
2, 154640, Note_on_c, 0, 70, 58
2, 154747, Note_on_c, 0, 70, 0
2, 154777, Control_c, 0, 64, 56
2, 154787, Note_on_c, 0, 78, 75
2, 154788, Note_on_c, 0, 72, 61
2, 154792, Note_on_c, 0, 62, 101
2, 154793, Control_c, 0, 64, 65
2, 154808, Control_c, 0, 64, 68
2, 154811, Note_on_c, 0, 79, 0
2, 154821, Note_on_c, 0, 72, 0
2, 154824, Control_c, 0, 64, 71
2, 154839, Control_c, 0, 64, 74
2, 154853, Control_c, 0, 64, 76
2, 154869, Control_c, 0, 64, 77
2, 154883, Note_on_c, 0, 78, 0
2, 154884, Control_c, 0, 64, 78
2, 154899, Control_c, 0, 64, 79
2, 154935, Note_on_c, 0, 50, 66
2, 155069, Note_on_c, 0, 50, 0
2, 155083, Note_on_c, 0, 52, 61
2, 155129, Note_on_c, 0, 62, 0
2, 155199, Note_on_c, 0, 81, 77
2, 155201, Note_on_c, 0, 72, 78
2, 155219, Note_on_c, 0, 81, 0
2, 155231, Note_on_c, 0, 52, 0
2, 155234, Note_on_c, 0, 54, 64
2, 155243, Note_on_c, 0, 72, 0
2, 155257, Control_c, 0, 64, 77
2, 155273, Control_c, 0, 64, 75
2, 155288, Control_c, 0, 64, 69
2, 155304, Control_c, 0, 64, 60
2, 155318, Control_c, 0, 64, 20
2, 155321, Note_on_c, 0, 74, 80
2, 155328, Note_on_c, 0, 70, 81
2, 155333, Control_c, 0, 64, 0
2, 155334, Note_on_c, 0, 55, 78
2, 155335, Note_on_c, 0, 54, 0
2, 155443, Note_on_c, 0, 55, 0
2, 155453, Note_on_c, 0, 54, 73
2, 155469, Note_on_c, 0, 74, 0
2, 155471, Note_on_c, 0, 69, 80
2, 155493, Note_on_c, 0, 70, 0
2, 155505, Note_on_c, 0, 54, 0
2, 155591, Note_on_c, 0, 58, 91
2, 155597, Note_on_c, 0, 55, 72
2, 155598, Note_on_c, 0, 70, 86
2, 155652, Control_c, 0, 64, 52
2, 155666, Note_on_c, 0, 69, 0
2, 155668, Control_c, 0, 64, 61
2, 155683, Control_c, 0, 64, 62
2, 155697, Control_c, 0, 64, 62
2, 155722, Note_on_c, 0, 72, 70
2, 155736, Control_c, 0, 64, 63
2, 155742, Note_on_c, 0, 70, 0
2, 155752, Control_c, 0, 64, 63
2, 155752, Note_on_c, 0, 55, 0
2, 155767, Control_c, 0, 64, 64
2, 155774, Note_on_c, 0, 72, 0
2, 155797, Control_c, 0, 64, 64
2, 155842, Control_c, 0, 64, 63
2, 155857, Control_c, 0, 64, 60
2, 155873, Control_c, 0, 64, 44
2, 155888, Control_c, 0, 64, 0
2, 155890, Note_on_c, 0, 58, 0
2, 155900, Note_on_c, 0, 63, 98
2, 155904, Note_on_c, 0, 70, 89
2, 155906, Note_on_c, 0, 55, 71
2, 155925, Note_on_c, 0, 67, 62
2, 156043, Note_on_c, 0, 65, 67
2, 156054, Note_on_c, 0, 67, 0
2, 156055, Control_c, 0, 64, 39
2, 156071, Control_c, 0, 64, 57
2, 156086, Control_c, 0, 64, 62
2, 156101, Control_c, 0, 64, 64
2, 156117, Control_c, 0, 64, 65
2, 156131, Control_c, 0, 64, 67
2, 156147, Control_c, 0, 64, 69
2, 156162, Control_c, 0, 64, 71
2, 156177, Control_c, 0, 64, 73
2, 156177, Note_on_c, 0, 67, 71
2, 156189, Note_on_c, 0, 48, 54
2, 156193, Control_c, 0, 64, 74
2, 156196, Note_on_c, 0, 63, 0
2, 156198, Note_on_c, 0, 65, 0
2, 156202, Note_on_c, 0, 55, 0
2, 156208, Control_c, 0, 64, 75
2, 156217, Note_on_c, 0, 48, 0
2, 156224, Control_c, 0, 64, 75
2, 156329, Note_on_c, 0, 65, 60
2, 156375, Control_c, 0, 64, 75
2, 156391, Control_c, 0, 64, 72
2, 156406, Control_c, 0, 64, 65
2, 156420, Control_c, 0, 64, 0
2, 156432, Note_on_c, 0, 65, 0
2, 156449, Note_on_c, 0, 63, 62
2, 156452, Note_on_c, 0, 60, 98
2, 156454, Note_on_c, 0, 67, 0
2, 156517, Note_on_c, 0, 63, 0
2, 156520, Control_c, 0, 64, 36
2, 156535, Control_c, 0, 64, 59
2, 156539, Note_on_c, 0, 65, 60
2, 156550, Control_c, 0, 64, 63
2, 156580, Control_c, 0, 64, 64
2, 156596, Control_c, 0, 64, 65
2, 156602, Note_on_c, 0, 48, 66
2, 156602, Note_on_c, 0, 70, 0
2, 156608, Note_on_c, 0, 65, 0
2, 156610, Control_c, 0, 64, 66
2, 156620, Note_on_c, 0, 63, 58
2, 156626, Control_c, 0, 64, 68
2, 156641, Control_c, 0, 64, 69
2, 156656, Control_c, 0, 64, 70
2, 156659, Note_on_c, 0, 63, 0
2, 156672, Control_c, 0, 64, 70
2, 156686, Note_on_c, 0, 60, 0
2, 156701, Control_c, 0, 64, 71
2, 156732, Control_c, 0, 64, 71
2, 156741, Note_on_c, 0, 50, 56
2, 156856, Note_on_c, 0, 50, 0
2, 156870, Control_c, 0, 64, 71
2, 156878, Note_on_c, 0, 51, 60
2, 156883, Note_on_c, 0, 48, 0
2, 156885, Control_c, 0, 64, 70
2, 156888, Note_on_c, 0, 62, 81
2, 156899, Control_c, 0, 64, 68
2, 156915, Control_c, 0, 64, 65
2, 156930, Control_c, 0, 64, 60
2, 156941, Note_on_c, 0, 62, 0
2, 156946, Control_c, 0, 64, 49
2, 156961, Control_c, 0, 64, 29
2, 156966, Note_on_c, 0, 51, 0
2, 156975, Control_c, 0, 64, 0
2, 156990, Note_on_c, 0, 53, 61
2, 157012, Note_on_c, 0, 60, 73
2, 157012, Note_on_c, 0, 69, 81
2, 157071, Note_on_c, 0, 53, 0
2, 157121, Note_on_c, 0, 51, 59
2, 157152, Note_on_c, 0, 51, 0
2, 157274, Note_on_c, 0, 57, 95
2, 157285, Note_on_c, 0, 53, 80
2, 157302, Control_c, 0, 64, 42
2, 157309, Note_on_c, 0, 60, 0
2, 157312, Note_on_c, 0, 53, 0
2, 157318, Control_c, 0, 64, 57
2, 157318, Note_on_c, 0, 69, 0
2, 157349, Control_c, 0, 64, 58
2, 157364, Control_c, 0, 64, 58
2, 157379, Control_c, 0, 64, 60
2, 157394, Control_c, 0, 64, 61
2, 157409, Control_c, 0, 64, 63
2, 157425, Control_c, 0, 64, 64
2, 157485, Control_c, 0, 64, 63
2, 157500, Control_c, 0, 64, 62
2, 157516, Control_c, 0, 64, 53
2, 157520, Note_on_c, 0, 57, 0
2, 157530, Control_c, 0, 64, 0
2, 157559, Note_on_c, 0, 53, 80
2, 157561, Note_on_c, 0, 62, 92
2, 157563, Note_on_c, 0, 65, 91
2, 157702, Note_on_c, 0, 69, 70
2, 157733, Note_on_c, 0, 65, 0
2, 157759, Control_c, 0, 64, 54
2, 157774, Control_c, 0, 64, 62
2, 157790, Control_c, 0, 64, 63
2, 157805, Control_c, 0, 64, 64
2, 157820, Control_c, 0, 64, 65
2, 157835, Control_c, 0, 64, 68
2, 157839, Note_on_c, 0, 46, 58
2, 157842, Note_on_c, 0, 53, 0
2, 157842, Note_on_c, 0, 70, 71
2, 157850, Control_c, 0, 64, 72
2, 157861, Note_on_c, 0, 69, 0
2, 157866, Control_c, 0, 64, 75
2, 157880, Control_c, 0, 64, 77
2, 157907, Note_on_c, 0, 46, 0
2, 157926, Control_c, 0, 64, 77
2, 157970, Note_on_c, 0, 69, 74
2, 158002, Note_on_c, 0, 70, 0
2, 158003, Note_on_c, 0, 62, 0
2, 158019, Note_on_c, 0, 69, 0
2, 158071, Control_c, 0, 64, 75
2, 158085, Control_c, 0, 64, 72
2, 158100, Control_c, 0, 64, 65
2, 158116, Control_c, 0, 64, 50
2, 158119, Note_on_c, 0, 58, 91
2, 158121, Note_on_c, 0, 62, 83
2, 158122, Note_on_c, 0, 67, 87
2, 158131, Control_c, 0, 64, 0
2, 158247, Note_on_c, 0, 46, 71
2, 158253, Control_c, 0, 64, 21
2, 158269, Control_c, 0, 64, 26
2, 158298, Control_c, 0, 64, 27
2, 158390, Note_on_c, 0, 48, 67
2, 158398, Note_on_c, 0, 58, 0
2, 158452, Control_c, 0, 64, 26
2, 158464, Note_on_c, 0, 46, 0
2, 158497, Control_c, 0, 64, 25
2, 158529, Note_on_c, 0, 66, 76
2, 158536, Note_on_c, 0, 48, 0
2, 158540, Note_on_c, 0, 50, 57
2, 158549, Note_on_c, 0, 67, 0
2, 158558, Control_c, 0, 64, 24
2, 158563, Note_on_c, 0, 62, 0
2, 158573, Control_c, 0, 64, 23
2, 158603, Control_c, 0, 64, 21
2, 158618, Control_c, 0, 64, 20
2, 158634, Control_c, 0, 64, 15
2, 158649, Control_c, 0, 64, 10
2, 158656, Note_on_c, 0, 67, 79
2, 158660, Note_on_c, 0, 50, 0
2, 158665, Control_c, 0, 64, 0
2, 158669, Note_on_c, 0, 51, 64
2, 158676, Note_on_c, 0, 66, 0
2, 158769, Note_on_c, 0, 51, 0
2, 158806, Note_on_c, 0, 50, 62
2, 158895, Note_on_c, 0, 50, 0
2, 158937, Note_on_c, 0, 55, 84
2, 158940, Note_on_c, 0, 51, 69
2, 159051, Control_c, 0, 64, 43
2, 159067, Control_c, 0, 64, 52
2, 159082, Control_c, 0, 64, 54
2, 159094, Note_on_c, 0, 67, 0
2, 159097, Control_c, 0, 64, 57
2, 159113, Control_c, 0, 64, 61
2, 159128, Control_c, 0, 64, 64
2, 159159, Control_c, 0, 64, 62
2, 159173, Control_c, 0, 64, 49
2, 159189, Control_c, 0, 64, 0
2, 159222, Note_on_c, 0, 60, 89
2, 159250, Control_c, 0, 64, 57
2, 159266, Control_c, 0, 64, 64
2, 159281, Control_c, 0, 64, 65
2, 159296, Control_c, 0, 64, 66
2, 159312, Control_c, 0, 64, 68
2, 159326, Control_c, 0, 64, 71
2, 159341, Control_c, 0, 64, 73
2, 159351, Note_on_c, 0, 51, 0
2, 159357, Control_c, 0, 64, 74
2, 159369, Note_on_c, 0, 50, 56
2, 159372, Control_c, 0, 64, 74
2, 159375, Note_on_c, 0, 55, 0
2, 159384, Note_on_c, 0, 60, 0
2, 159418, Control_c, 0, 64, 73
2, 159434, Control_c, 0, 64, 70
2, 159448, Control_c, 0, 64, 64
2, 159464, Control_c, 0, 64, 53
2, 159479, Control_c, 0, 64, 45
2, 159485, Note_on_c, 0, 50, 0
2, 159493, Control_c, 0, 64, 47
2, 159494, Note_on_c, 0, 60, 85
2, 159496, Note_on_c, 0, 51, 55
2, 159508, Control_c, 0, 64, 47
2, 159538, Control_c, 0, 64, 47
2, 159609, Note_on_c, 0, 51, 0
2, 159625, Note_on_c, 0, 50, 68
2, 159625, Note_on_c, 0, 70, 80
2, 159638, Control_c, 0, 64, 46
2, 159650, Note_on_c, 0, 60, 0
2, 159652, Control_c, 0, 64, 45
2, 159668, Control_c, 0, 64, 45
2, 159683, Control_c, 0, 64, 44
2, 159690, Note_on_c, 0, 70, 0
2, 159728, Control_c, 0, 64, 43
2, 159744, Control_c, 0, 64, 42
2, 159745, Note_on_c, 0, 50, 0
2, 159759, Control_c, 0, 64, 41
2, 159763, Note_on_c, 0, 69, 88
2, 159767, Note_on_c, 0, 60, 79
2, 159770, Note_on_c, 0, 48, 68
2, 159773, Control_c, 0, 64, 41
2, 159835, Control_c, 0, 64, 41
2, 159849, Control_c, 0, 64, 42
2, 159888, Note_on_c, 0, 48, 0
2, 159911, Control_c, 0, 64, 41
2, 159911, Note_on_c, 0, 46, 63
2, 159923, Note_on_c, 0, 60, 0
2, 159957, Control_c, 0, 64, 42
2, 159971, Control_c, 0, 64, 42
2, 159987, Control_c, 0, 64, 43
2, 160002, Control_c, 0, 64, 43
2, 160007, Note_on_c, 0, 46, 0
2, 160033, Control_c, 0, 64, 44
2, 160037, Note_on_c, 0, 60, 80
2, 160038, Note_on_c, 0, 48, 63
2, 160048, Control_c, 0, 64, 44
2, 160055, Note_on_c, 0, 69, 0
2, 160064, Control_c, 0, 64, 45
2, 160079, Control_c, 0, 64, 46
2, 160110, Control_c, 0, 64, 46
2, 160124, Control_c, 0, 64, 47
2, 160136, Note_on_c, 0, 48, 0
2, 160137, Note_on_c, 0, 60, 0
2, 160139, Control_c, 0, 64, 47
2, 160167, Note_on_c, 0, 46, 65
2, 160170, Control_c, 0, 64, 48
2, 160170, Note_on_c, 0, 72, 78
2, 160186, Control_c, 0, 64, 48
2, 160201, Note_on_c, 0, 72, 0
2, 160215, Control_c, 0, 64, 48
2, 160231, Control_c, 0, 64, 47
2, 160246, Control_c, 0, 64, 47
2, 160277, Control_c, 0, 64, 46
2, 160291, Control_c, 0, 64, 45
2, 160292, Note_on_c, 0, 46, 0
2, 160301, Note_on_c, 0, 66, 82
2, 160305, Note_on_c, 0, 45, 61
2, 160307, Control_c, 0, 64, 44
2, 160311, Note_on_c, 0, 60, 68
2, 160417, Note_on_c, 0, 45, 0
2, 160430, Note_on_c, 0, 60, 0
2, 160445, Note_on_c, 0, 43, 54
2, 160539, Note_on_c, 0, 43, 0
2, 160571, Note_on_c, 0, 60, 69
2, 160577, Note_on_c, 0, 66, 0
2, 160590, Note_on_c, 0, 45, 53
2, 160603, Control_c, 0, 64, 44
2, 160648, Control_c, 0, 64, 43
2, 160664, Control_c, 0, 64, 43
2, 160666, Note_on_c, 0, 45, 0
2, 160667, Note_on_c, 0, 60, 0
2, 160679, Control_c, 0, 64, 42
2, 160697, Note_on_c, 0, 69, 74
2, 160698, Note_on_c, 0, 43, 49
2, 160709, Control_c, 0, 64, 42
2, 160724, Control_c, 0, 64, 41
2, 160739, Control_c, 0, 64, 40
2, 160742, Note_on_c, 0, 69, 0
2, 160755, Control_c, 0, 64, 40
2, 160769, Control_c, 0, 64, 38
2, 160785, Control_c, 0, 64, 37
2, 160800, Control_c, 0, 64, 36
2, 160815, Control_c, 0, 64, 34
2, 160826, Note_on_c, 0, 62, 66
2, 160831, Control_c, 0, 64, 32
2, 160831, Note_on_c, 0, 60, 56
2, 160832, Note_on_c, 0, 43, 0
2, 160846, Control_c, 0, 64, 32
2, 160855, Note_on_c, 0, 42, 45
2, 160922, Control_c, 0, 64, 31
2, 160937, Control_c, 0, 64, 29
2, 160953, Control_c, 0, 64, 25
2, 160968, Control_c, 0, 64, 18
2, 160971, Note_on_c, 0, 60, 0
2, 160984, Control_c, 0, 64, 17
2, 160999, Control_c, 0, 64, 20
2, 161014, Control_c, 0, 64, 29
2, 161030, Control_c, 0, 64, 39
2, 161044, Control_c, 0, 64, 47
2, 161059, Control_c, 0, 64, 51
2, 161075, Control_c, 0, 64, 52
2, 161081, Note_on_c, 0, 42, 0
2, 161094, Note_on_c, 0, 62, 0
2, 161111, Note_on_c, 0, 58, 64
2, 161113, Control_c, 0, 64, 51
2, 161120, Note_on_c, 0, 50, 45
2, 161127, Control_c, 0, 64, 50
2, 161142, Control_c, 0, 64, 48
2, 161158, Control_c, 0, 64, 47
2, 161167, Note_on_c, 0, 58, 0
2, 161173, Control_c, 0, 64, 46
2, 161219, Control_c, 0, 64, 45
2, 161235, Control_c, 0, 64, 44
2, 161242, Note_on_c, 0, 66, 56
2, 161243, Note_on_c, 0, 57, 44
2, 161249, Control_c, 0, 64, 43
2, 161265, Control_c, 0, 64, 42
2, 161280, Control_c, 0, 64, 42
2, 161295, Control_c, 0, 64, 41
2, 161310, Control_c, 0, 64, 40
2, 161313, Note_on_c, 0, 57, 0
2, 161325, Control_c, 0, 64, 39
2, 161340, Control_c, 0, 64, 37
2, 161347, Note_on_c, 0, 66, 0
2, 161351, Note_on_c, 0, 50, 0
2, 161356, Control_c, 0, 64, 35
2, 161364, Note_on_c, 0, 43, 52
2, 161369, Note_on_c, 0, 67, 64
2, 161371, Control_c, 0, 64, 32
2, 161375, Note_on_c, 0, 58, 60
2, 161386, Control_c, 0, 64, 30
2, 161405, Note_on_c, 0, 43, 0
2, 161447, Control_c, 0, 64, 29
2, 161467, Note_on_c, 0, 67, 0
2, 161489, Note_on_c, 0, 58, 0
2, 161518, Note_on_c, 0, 55, 57
2, 161522, Control_c, 0, 64, 29
2, 161584, Control_c, 0, 64, 28
2, 161631, Note_on_c, 0, 55, 0
2, 161644, Control_c, 0, 64, 27
2, 161655, Note_on_c, 0, 57, 51
2, 161657, Note_on_c, 0, 53, 50
2, 161702, Note_on_c, 0, 53, 0
2, 161782, Note_on_c, 0, 58, 59
2, 161819, Note_on_c, 0, 57, 0
2, 161843, Control_c, 0, 64, 28
2, 161932, Note_on_c, 0, 60, 63
2, 161937, Note_on_c, 0, 52, 48
2, 161944, Note_on_c, 0, 58, 0
2, 161956, Control_c, 0, 64, 29
2, 161971, Control_c, 0, 64, 29
2, 161980, Note_on_c, 0, 52, 0
2, 162044, Note_on_c, 0, 60, 0
2, 162047, Control_c, 0, 64, 30
2, 162062, Note_on_c, 0, 58, 61
2, 162139, Note_on_c, 0, 58, 0
2, 162169, Control_c, 0, 64, 29
2, 162185, Control_c, 0, 64, 29
2, 162195, Note_on_c, 0, 48, 52
2, 162200, Control_c, 0, 64, 28
2, 162201, Note_on_c, 0, 60, 54
2, 162230, Control_c, 0, 64, 27
2, 162231, Note_on_c, 0, 48, 0
2, 162293, Note_on_c, 0, 60, 0
2, 162332, Note_on_c, 0, 70, 67
2, 162352, Control_c, 0, 64, 28
2, 162412, Control_c, 0, 64, 29
2, 162451, Note_on_c, 0, 70, 0
2, 162469, Note_on_c, 0, 53, 55
2, 162470, Note_on_c, 0, 60, 58
2, 162506, Note_on_c, 0, 53, 0
2, 162564, Note_on_c, 0, 60, 0
2, 162582, Note_on_c, 0, 70, 60
2, 162626, Control_c, 0, 64, 28
2, 162679, Control_c, 0, 64, 27
2, 162686, Note_on_c, 0, 70, 0
2, 162694, Control_c, 0, 64, 26
2, 162710, Control_c, 0, 64, 24
2, 162725, Control_c, 0, 64, 20
2, 162731, Note_on_c, 0, 69, 62
2, 162739, Control_c, 0, 64, 17
2, 162740, Note_on_c, 0, 57, 48
2, 162753, Note_on_c, 0, 65, 47
2, 162755, Control_c, 0, 64, 13
2, 162770, Control_c, 0, 64, 0
2, 162787, Note_on_c, 0, 57, 0
2, 162812, Note_on_c, 0, 65, 0
2, 162856, Note_on_c, 0, 69, 0
2, 162858, Note_on_c, 0, 67, 64
2, 162870, Note_on_c, 0, 64, 45
2, 162900, Note_on_c, 0, 64, 0
2, 162947, Note_on_c, 0, 67, 0
2, 162998, Note_on_c, 0, 65, 63
2, 162999, Note_on_c, 0, 69, 61
2, 163010, Note_on_c, 0, 50, 46
2, 163030, Note_on_c, 0, 65, 0
2, 163041, Note_on_c, 0, 50, 0
2, 163051, Note_on_c, 0, 69, 0
2, 163128, Note_on_c, 0, 69, 67
2, 163266, Note_on_c, 0, 71, 70
2, 163278, Note_on_c, 0, 60, 55
2, 163283, Note_on_c, 0, 69, 0
2, 163318, Note_on_c, 0, 60, 0
2, 163392, Note_on_c, 0, 71, 0
2, 163414, Note_on_c, 0, 72, 64
2, 163539, Note_on_c, 0, 59, 55
2, 163546, Note_on_c, 0, 72, 0
2, 163552, Note_on_c, 0, 74, 66
2, 163573, Note_on_c, 0, 59, 0
2, 163658, Note_on_c, 0, 74, 0
2, 163686, Note_on_c, 0, 72, 59
2, 163827, Note_on_c, 0, 74, 69
2, 163829, Note_on_c, 0, 55, 43
2, 163835, Note_on_c, 0, 72, 0
2, 163858, Note_on_c, 0, 55, 0
2, 163930, Note_on_c, 0, 74, 0
2, 163953, Note_on_c, 0, 65, 58
2, 164070, Control_c, 0, 64, 10
2, 164085, Control_c, 0, 64, 51
2, 164085, Note_on_c, 0, 65, 0
2, 164096, Note_on_c, 0, 74, 70
2, 164100, Control_c, 0, 64, 61
2, 164111, Note_on_c, 0, 60, 48
2, 164116, Control_c, 0, 64, 65
2, 164130, Control_c, 0, 64, 67
2, 164145, Note_on_c, 0, 60, 0
2, 164147, Control_c, 0, 64, 70
2, 164162, Control_c, 0, 64, 73
2, 164185, Control_c, 0, 64, 76
2, 164200, Control_c, 0, 64, 77
2, 164215, Control_c, 0, 64, 77
2, 164231, Control_c, 0, 64, 78
2, 164234, Note_on_c, 0, 65, 60
2, 164240, Note_on_c, 0, 74, 0
2, 164288, Note_on_c, 0, 65, 0
2, 164322, Control_c, 0, 64, 77
2, 164337, Control_c, 0, 64, 76
2, 164353, Control_c, 0, 64, 71
2, 164367, Control_c, 0, 64, 64
2, 164371, Note_on_c, 0, 72, 69
2, 164373, Note_on_c, 0, 55, 50
2, 164375, Note_on_c, 0, 63, 73
2, 164382, Control_c, 0, 64, 39
2, 164398, Control_c, 0, 64, 0
2, 164414, Note_on_c, 0, 63, 0
2, 164425, Note_on_c, 0, 55, 0
2, 164431, Note_on_c, 0, 72, 0
2, 164498, Note_on_c, 0, 71, 62
2, 164512, Note_on_c, 0, 62, 51
2, 164546, Note_on_c, 0, 71, 0
2, 164573, Note_on_c, 0, 62, 0
2, 164641, Note_on_c, 0, 72, 69
2, 164644, Note_on_c, 0, 48, 58
2, 164661, Note_on_c, 0, 63, 61
2, 164682, Note_on_c, 0, 48, 0
2, 164711, Note_on_c, 0, 63, 0
2, 164792, Note_on_c, 0, 60, 59
2, 164883, Note_on_c, 0, 60, 0
2, 164927, Note_on_c, 0, 57, 53
2, 164929, Note_on_c, 0, 66, 67
2, 164975, Note_on_c, 0, 57, 0
2, 165001, Note_on_c, 0, 72, 0
2, 165053, Note_on_c, 0, 66, 0
2, 165058, Note_on_c, 0, 67, 67
2, 165198, Note_on_c, 0, 69, 65
2, 165204, Note_on_c, 0, 54, 54
2, 165215, Note_on_c, 0, 67, 0
2, 165249, Note_on_c, 0, 54, 0
2, 165279, Note_on_c, 0, 69, 0
2, 165326, Note_on_c, 0, 67, 68
2, 165466, Note_on_c, 0, 50, 55
2, 165472, Note_on_c, 0, 67, 0
2, 165472, Note_on_c, 0, 69, 74
2, 165515, Note_on_c, 0, 50, 0
2, 165573, Control_c, 0, 64, 27
2, 165588, Control_c, 0, 64, 47
2, 165593, Note_on_c, 0, 69, 0
2, 165604, Control_c, 0, 64, 52
2, 165604, Note_on_c, 0, 72, 76
2, 165619, Control_c, 0, 64, 55
2, 165635, Control_c, 0, 64, 58
2, 165650, Control_c, 0, 64, 58
2, 165664, Control_c, 0, 64, 57
2, 165680, Control_c, 0, 64, 48
2, 165695, Control_c, 0, 64, 0
2, 165747, Note_on_c, 0, 69, 76
2, 165755, Note_on_c, 0, 55, 53
2, 165757, Note_on_c, 0, 72, 0
2, 165763, Control_c, 0, 64, 30
2, 165778, Control_c, 0, 64, 55
2, 165795, Control_c, 0, 64, 62
2, 165810, Control_c, 0, 64, 63
2, 165825, Control_c, 0, 64, 64
2, 165840, Control_c, 0, 64, 66
2, 165855, Control_c, 0, 64, 68
2, 165866, Note_on_c, 0, 69, 0
2, 165871, Control_c, 0, 64, 70
2, 165880, Note_on_c, 0, 72, 75
2, 165886, Control_c, 0, 64, 74
2, 165900, Control_c, 0, 64, 78
2, 165916, Control_c, 0, 64, 80
2, 165946, Control_c, 0, 64, 79
2, 165962, Control_c, 0, 64, 76
2, 165977, Control_c, 0, 64, 69
2, 165993, Control_c, 0, 64, 43
2, 166008, Control_c, 0, 64, 0
2, 166008, Note_on_c, 0, 55, 0
2, 166014, Note_on_c, 0, 58, 66
2, 166016, Note_on_c, 0, 67, 56
2, 166016, Note_on_c, 0, 70, 74
2, 166033, Note_on_c, 0, 72, 0
2, 166039, Control_c, 0, 64, 53
2, 166053, Control_c, 0, 64, 65
2, 166062, Note_on_c, 0, 67, 0
2, 166068, Control_c, 0, 64, 69
2, 166084, Control_c, 0, 64, 73
2, 166098, Control_c, 0, 64, 76
2, 166114, Control_c, 0, 64, 78
2, 166129, Control_c, 0, 64, 80
2, 166140, Note_on_c, 0, 69, 75
2, 166149, Note_on_c, 0, 66, 66
2, 166151, Note_on_c, 0, 70, 0
2, 166160, Control_c, 0, 64, 79
2, 166174, Control_c, 0, 64, 76
2, 166189, Control_c, 0, 64, 65
2, 166205, Control_c, 0, 64, 0
2, 166206, Note_on_c, 0, 58, 0
2, 166226, Note_on_c, 0, 66, 0
2, 166235, Control_c, 0, 64, 40
2, 166250, Control_c, 0, 64, 64
2, 166265, Control_c, 0, 64, 70
2, 166268, Note_on_c, 0, 70, 79
2, 166277, Note_on_c, 0, 67, 71
2, 166278, Note_on_c, 0, 52, 67
2, 166281, Control_c, 0, 64, 74
2, 166295, Control_c, 0, 64, 74
2, 166295, Note_on_c, 0, 69, 0
2, 166301, Note_on_c, 0, 67, 0
2, 166320, Note_on_c, 0, 70, 0
2, 166410, Note_on_c, 0, 74, 78
2, 166448, Control_c, 0, 64, 74
2, 166463, Control_c, 0, 64, 73
2, 166487, Control_c, 0, 64, 72
2, 166502, Control_c, 0, 64, 70
2, 166517, Control_c, 0, 64, 66
2, 166532, Control_c, 0, 64, 54
2, 166547, Control_c, 0, 64, 0
2, 166552, Note_on_c, 0, 62, 63
2, 166554, Note_on_c, 0, 76, 81
2, 166582, Note_on_c, 0, 74, 0
2, 166611, Note_on_c, 0, 52, 0
2, 166690, Note_on_c, 0, 77, 84
2, 166730, Note_on_c, 0, 76, 0
2, 166809, Note_on_c, 0, 62, 0
2, 166819, Note_on_c, 0, 61, 56
2, 166825, Note_on_c, 0, 79, 82
2, 166854, Note_on_c, 0, 77, 0
2, 166959, Note_on_c, 0, 77, 78
2, 166988, Note_on_c, 0, 79, 0
2, 167072, Note_on_c, 0, 61, 0
2, 167099, Note_on_c, 0, 79, 76
2, 167103, Note_on_c, 0, 77, 0
2, 167115, Note_on_c, 0, 57, 40
2, 167219, Note_on_c, 0, 57, 0
2, 167252, Note_on_c, 0, 61, 41
2, 167343, Note_on_c, 0, 61, 0
2, 167385, Note_on_c, 0, 62, 51
2, 167460, Note_on_c, 0, 62, 0
2, 167508, Note_on_c, 0, 61, 42
2, 167612, Note_on_c, 0, 61, 0
2, 167635, Control_c, 0, 64, 46
2, 167649, Control_c, 0, 64, 59
2, 167655, Note_on_c, 0, 62, 53
2, 167664, Control_c, 0, 64, 63
2, 167667, Note_on_c, 0, 77, 71
2, 167680, Control_c, 0, 64, 65
2, 167695, Control_c, 0, 64, 68
2, 167711, Control_c, 0, 64, 71
2, 167726, Control_c, 0, 64, 74
2, 167741, Control_c, 0, 64, 75
2, 167747, Note_on_c, 0, 62, 0
2, 167757, Control_c, 0, 64, 75
2, 167775, Note_on_c, 0, 79, 0
2, 167779, Note_on_c, 0, 57, 48
2, 167784, Note_on_c, 0, 76, 70
2, 167786, Control_c, 0, 64, 76
2, 167786, Note_on_c, 0, 77, 0
2, 167810, Note_on_c, 0, 57, 0
2, 167817, Note_on_c, 0, 76, 0
2, 167878, Control_c, 0, 64, 75
2, 167893, Control_c, 0, 64, 75
2, 167907, Control_c, 0, 64, 72
2, 167923, Control_c, 0, 64, 68
2, 167938, Control_c, 0, 64, 59
2, 167940, Note_on_c, 0, 77, 83
2, 167943, Note_on_c, 0, 69, 78
2, 167954, Control_c, 0, 64, 0
2, 167970, Note_on_c, 0, 50, 60
2, 168090, Note_on_c, 0, 74, 71
2, 168122, Note_on_c, 0, 77, 0
2, 168206, Note_on_c, 0, 50, 0
2, 168238, Note_on_c, 0, 77, 76
2, 168252, Note_on_c, 0, 62, 56
2, 168269, Note_on_c, 0, 74, 0
2, 168312, Note_on_c, 0, 62, 0
2, 168364, Note_on_c, 0, 79, 68
2, 168387, Note_on_c, 0, 77, 0
2, 168389, Note_on_c, 0, 64, 53
2, 168504, Note_on_c, 0, 64, 0
2, 168507, Note_on_c, 0, 79, 0
2, 168508, Note_on_c, 0, 81, 71
2, 168518, Note_on_c, 0, 65, 60
2, 168558, Note_on_c, 0, 65, 0
2, 168615, Note_on_c, 0, 81, 0
2, 168629, Note_on_c, 0, 79, 55
2, 168689, Note_on_c, 0, 69, 0
2, 168787, Note_on_c, 0, 65, 82
2, 168789, Control_c, 0, 64, 52
2, 168793, Note_on_c, 0, 81, 72
2, 168805, Control_c, 0, 64, 61
2, 168806, Note_on_c, 0, 62, 55
2, 168820, Control_c, 0, 64, 64
2, 168821, Note_on_c, 0, 79, 0
2, 168836, Control_c, 0, 64, 65
2, 168842, Note_on_c, 0, 81, 0
2, 168851, Control_c, 0, 64, 66
2, 168866, Control_c, 0, 64, 67
2, 168882, Control_c, 0, 64, 67
2, 168896, Control_c, 0, 64, 68
2, 168899, Note_on_c, 0, 62, 0
2, 168908, Note_on_c, 0, 65, 0
2, 168912, Control_c, 0, 64, 68
2, 168927, Control_c, 0, 64, 69
2, 168942, Control_c, 0, 64, 69
2, 168972, Control_c, 0, 64, 70
2, 169003, Control_c, 0, 64, 69
2, 169018, Control_c, 0, 64, 69
2, 169034, Control_c, 0, 64, 65
2, 169048, Control_c, 0, 64, 55
2, 169064, Control_c, 0, 64, 0
2, 169092, Note_on_c, 0, 81, 90
2, 169096, Note_on_c, 0, 70, 81
2, 169099, Note_on_c, 0, 67, 63
2, 169171, Control_c, 0, 64, 56
2, 169186, Control_c, 0, 64, 60
2, 169201, Control_c, 0, 64, 62
2, 169216, Control_c, 0, 64, 63
2, 169228, Note_on_c, 0, 67, 0
2, 169232, Control_c, 0, 64, 66
2, 169238, Note_on_c, 0, 55, 49
2, 169247, Control_c, 0, 64, 69
2, 169262, Control_c, 0, 64, 72
2, 169277, Control_c, 0, 64, 74
2, 169292, Control_c, 0, 64, 75
2, 169307, Control_c, 0, 64, 75
2, 169322, Control_c, 0, 64, 76
2, 169353, Control_c, 0, 64, 76
2, 169367, Note_on_c, 0, 81, 0
2, 169376, Note_on_c, 0, 70, 0
2, 169377, Note_on_c, 0, 74, 57
2, 169386, Note_on_c, 0, 57, 53
2, 169408, Note_on_c, 0, 55, 0
2, 169452, Note_on_c, 0, 74, 0
2, 169494, Note_on_c, 0, 57, 0
2, 169528, Note_on_c, 0, 58, 54
2, 169589, Control_c, 0, 64, 76
2, 169604, Control_c, 0, 64, 75
2, 169619, Control_c, 0, 64, 71
2, 169635, Control_c, 0, 64, 66
2, 169650, Control_c, 0, 64, 53
2, 169658, Note_on_c, 0, 67, 86
2, 169659, Note_on_c, 0, 58, 0
2, 169665, Control_c, 0, 64, 0
2, 169681, Note_on_c, 0, 60, 56
2, 169763, Note_on_c, 0, 60, 0
2, 169799, Note_on_c, 0, 74, 67
2, 169805, Note_on_c, 0, 55, 50
2, 169915, Note_on_c, 0, 55, 0
2, 169935, Note_on_c, 0, 76, 70
2, 169948, Note_on_c, 0, 60, 51
2, 170008, Note_on_c, 0, 67, 0
2, 170060, Note_on_c, 0, 60, 0
2, 170067, Note_on_c, 0, 77, 71
2, 170096, Note_on_c, 0, 62, 53
2, 170146, Note_on_c, 0, 74, 0
2, 170169, Note_on_c, 0, 76, 0
2, 170189, Note_on_c, 0, 62, 0
2, 170202, Note_on_c, 0, 79, 70
2, 170208, Note_on_c, 0, 64, 66
2, 170208, Note_on_c, 0, 77, 0
2, 170247, Note_on_c, 0, 64, 0
2, 170305, Note_on_c, 0, 79, 0
2, 170334, Note_on_c, 0, 77, 64
2, 170463, Control_c, 0, 64, 50
2, 170477, Note_on_c, 0, 79, 72
2, 170479, Control_c, 0, 64, 62
2, 170482, Note_on_c, 0, 64, 84
2, 170486, Note_on_c, 0, 77, 0
2, 170493, Control_c, 0, 64, 65
2, 170499, Note_on_c, 0, 60, 58
2, 170508, Control_c, 0, 64, 67
2, 170524, Control_c, 0, 64, 69
2, 170539, Control_c, 0, 64, 71
2, 170540, Note_on_c, 0, 79, 0
2, 170555, Control_c, 0, 64, 73
2, 170559, Note_on_c, 0, 60, 0
2, 170569, Control_c, 0, 64, 75
2, 170574, Note_on_c, 0, 64, 0
2, 170584, Control_c, 0, 64, 76
2, 170600, Control_c, 0, 64, 76
2, 170615, Control_c, 0, 64, 77
2, 170646, Control_c, 0, 64, 77
2, 170661, Control_c, 0, 64, 78
2, 170707, Control_c, 0, 64, 78
2, 170723, Control_c, 0, 64, 75
2, 170738, Control_c, 0, 64, 70
2, 170753, Control_c, 0, 64, 61
2, 170765, Note_on_c, 0, 79, 83
2, 170766, Note_on_c, 0, 69, 84
2, 170768, Control_c, 0, 64, 0
2, 170771, Note_on_c, 0, 65, 65
2, 170859, Control_c, 0, 64, 38
2, 170875, Control_c, 0, 64, 55
2, 170880, Note_on_c, 0, 65, 0
2, 170890, Control_c, 0, 64, 59
2, 170905, Control_c, 0, 64, 62
2, 170905, Note_on_c, 0, 53, 50
2, 170921, Control_c, 0, 64, 64
2, 170935, Control_c, 0, 64, 66
2, 170951, Control_c, 0, 64, 67
2, 170966, Control_c, 0, 64, 70
2, 170981, Control_c, 0, 64, 72
2, 170997, Control_c, 0, 64, 74
2, 171011, Control_c, 0, 64, 75
2, 171025, Control_c, 0, 64, 75
2, 171027, Note_on_c, 0, 53, 0
2, 171041, Control_c, 0, 64, 76
2, 171045, Note_on_c, 0, 79, 0
2, 171063, Note_on_c, 0, 72, 65
2, 171067, Note_on_c, 0, 55, 50
2, 171072, Control_c, 0, 64, 76
2, 171092, Note_on_c, 0, 69, 0
2, 171135, Note_on_c, 0, 72, 0
2, 171175, Note_on_c, 0, 55, 0
2, 171212, Note_on_c, 0, 57, 46
2, 171306, Control_c, 0, 64, 75
2, 171316, Note_on_c, 0, 57, 0
2, 171322, Control_c, 0, 64, 71
2, 171325, Note_on_c, 0, 65, 91
2, 171336, Control_c, 0, 64, 65
2, 171339, Note_on_c, 0, 58, 60
2, 171352, Control_c, 0, 64, 47
2, 171367, Control_c, 0, 64, 0
2, 171448, Note_on_c, 0, 58, 0
2, 171475, Note_on_c, 0, 72, 71
2, 171481, Note_on_c, 0, 53, 52
2, 171589, Note_on_c, 0, 53, 0
2, 171612, Note_on_c, 0, 72, 0
2, 171613, Note_on_c, 0, 74, 65
2, 171615, Note_on_c, 0, 58, 60
2, 171726, Note_on_c, 0, 58, 0
2, 171736, Note_on_c, 0, 74, 0
2, 171746, Note_on_c, 0, 76, 62
2, 171749, Note_on_c, 0, 60, 57
2, 171866, Note_on_c, 0, 60, 0
2, 171884, Note_on_c, 0, 77, 68
2, 171886, Note_on_c, 0, 76, 0
2, 171893, Note_on_c, 0, 62, 67
2, 171913, Note_on_c, 0, 65, 0
2, 171974, Note_on_c, 0, 62, 0
2, 172018, Note_on_c, 0, 76, 57
2, 172022, Note_on_c, 0, 60, 49
2, 172024, Note_on_c, 0, 77, 0
2, 172126, Note_on_c, 0, 60, 0
2, 172146, Note_on_c, 0, 62, 79
2, 172156, Note_on_c, 0, 77, 66
2, 172158, Note_on_c, 0, 58, 67
2, 172168, Note_on_c, 0, 76, 0
2, 172196, Control_c, 0, 64, 56
2, 172211, Control_c, 0, 64, 62
2, 172226, Control_c, 0, 64, 63
2, 172242, Control_c, 0, 64, 64
2, 172257, Control_c, 0, 64, 65
2, 172260, Note_on_c, 0, 58, 0
2, 172273, Control_c, 0, 64, 66
2, 172287, Control_c, 0, 64, 68
2, 172296, Note_on_c, 0, 57, 54
2, 172302, Control_c, 0, 64, 71
2, 172312, Note_on_c, 0, 62, 0
2, 172318, Control_c, 0, 64, 73
2, 172334, Control_c, 0, 64, 75
2, 172349, Control_c, 0, 64, 76
2, 172364, Control_c, 0, 64, 75
2, 172379, Control_c, 0, 64, 72
2, 172395, Control_c, 0, 64, 65
2, 172410, Control_c, 0, 64, 0
2, 172424, Note_on_c, 0, 57, 0
2, 172432, Note_on_c, 0, 67, 89
2, 172444, Note_on_c, 0, 58, 54
2, 172455, Control_c, 0, 64, 10
2, 172471, Control_c, 0, 64, 61
2, 172486, Control_c, 0, 64, 65
2, 172501, Control_c, 0, 64, 67
2, 172517, Control_c, 0, 64, 69
2, 172532, Control_c, 0, 64, 70
2, 172547, Control_c, 0, 64, 71
2, 172563, Control_c, 0, 64, 74
2, 172564, Note_on_c, 0, 58, 0
2, 172573, Note_on_c, 0, 67, 0
2, 172577, Control_c, 0, 64, 77
2, 172587, Note_on_c, 0, 62, 67
2, 172593, Control_c, 0, 64, 79
2, 172593, Note_on_c, 0, 77, 0
2, 172608, Control_c, 0, 64, 81
2, 172660, Control_c, 0, 64, 78
2, 172676, Control_c, 0, 64, 71
2, 172691, Control_c, 0, 64, 61
2, 172699, Note_on_c, 0, 62, 0
2, 172706, Control_c, 0, 64, 42
2, 172713, Note_on_c, 0, 67, 83
2, 172722, Control_c, 0, 64, 58
2, 172731, Note_on_c, 0, 61, 57
2, 172737, Control_c, 0, 64, 66
2, 172752, Control_c, 0, 64, 71
2, 172767, Control_c, 0, 64, 76
2, 172785, Control_c, 0, 64, 76
2, 172817, Note_on_c, 0, 61, 0
2, 172845, Note_on_c, 0, 77, 75
2, 172855, Note_on_c, 0, 62, 63
2, 172872, Note_on_c, 0, 67, 0
2, 172876, Control_c, 0, 64, 75
2, 172891, Control_c, 0, 64, 73
2, 172906, Control_c, 0, 64, 68
2, 172921, Control_c, 0, 64, 58
2, 172936, Control_c, 0, 64, 29
2, 172952, Control_c, 0, 64, 13
2, 172958, Note_on_c, 0, 62, 0
2, 172966, Control_c, 0, 64, 15
2, 172988, Note_on_c, 0, 67, 79
2, 172990, Note_on_c, 0, 76, 76
2, 172991, Note_on_c, 0, 55, 60
2, 172997, Control_c, 0, 64, 10
2, 173012, Control_c, 0, 64, 0
2, 173041, Note_on_c, 0, 77, 0
2, 173091, Note_on_c, 0, 55, 0
2, 173111, Note_on_c, 0, 74, 71
2, 173123, Note_on_c, 0, 76, 0
2, 173129, Note_on_c, 0, 58, 64
2, 173155, Note_on_c, 0, 67, 0
2, 173226, Control_c, 0, 64, 10
2, 173236, Note_on_c, 0, 74, 0
2, 173242, Note_on_c, 0, 58, 0
2, 173249, Note_on_c, 0, 76, 78
2, 173255, Control_c, 0, 64, 0
2, 173257, Note_on_c, 0, 57, 60
2, 173258, Note_on_c, 0, 67, 78
2, 173369, Note_on_c, 0, 57, 0
2, 173371, Note_on_c, 0, 74, 74
2, 173393, Note_on_c, 0, 58, 63
2, 173422, Note_on_c, 0, 67, 0
2, 173451, Note_on_c, 0, 76, 0
2, 173476, Control_c, 0, 64, 10
2, 173494, Note_on_c, 0, 74, 0
2, 173506, Note_on_c, 0, 58, 0
2, 173526, Note_on_c, 0, 52, 62
2, 173530, Note_on_c, 0, 67, 79
2, 173531, Note_on_c, 0, 73, 70
2, 173552, Control_c, 0, 64, 0
2, 173582, Control_c, 0, 64, 13
2, 173612, Control_c, 0, 64, 15
2, 173635, Note_on_c, 0, 52, 0
2, 173658, Control_c, 0, 64, 13
2, 173663, Note_on_c, 0, 74, 70
2, 173680, Note_on_c, 0, 67, 0
2, 173687, Note_on_c, 0, 64, 57
2, 173707, Note_on_c, 0, 73, 0
2, 173764, Control_c, 0, 64, 10
2, 173779, Control_c, 0, 64, 0
2, 173804, Note_on_c, 0, 64, 0
2, 173807, Note_on_c, 0, 76, 74
2, 173810, Note_on_c, 0, 67, 62
2, 173825, Note_on_c, 0, 61, 57
2, 173845, Note_on_c, 0, 74, 0
2, 173922, Note_on_c, 0, 67, 0
2, 173928, Note_on_c, 0, 61, 0
2, 173954, Note_on_c, 0, 57, 49
2, 174040, Note_on_c, 0, 57, 0
2, 174081, Note_on_c, 0, 67, 63
2, 174087, Note_on_c, 0, 62, 53
2, 174195, Note_on_c, 0, 67, 0
2, 174213, Note_on_c, 0, 62, 0
2, 174230, Note_on_c, 0, 50, 42
2, 174361, Note_on_c, 0, 76, 0
2, 174374, Note_on_c, 0, 74, 54
2, 174377, Note_on_c, 0, 50, 0
2, 174377, Note_on_c, 0, 65, 45
2, 174379, Note_on_c, 0, 53, 42
2, 174404, Note_on_c, 0, 65, 0
2, 174430, Note_on_c, 0, 74, 0
2, 174439, Note_on_c, 0, 53, 0
2, 174494, Note_on_c, 0, 57, 31
2, 174632, Note_on_c, 0, 57, 0
2, 174652, Note_on_c, 0, 77, 85
2, 174662, Note_on_c, 0, 62, 50
2, 174767, Note_on_c, 0, 62, 0
2, 174805, Note_on_c, 0, 60, 46
2, 174806, Note_on_c, 0, 69, 60
2, 174878, Note_on_c, 0, 69, 0
2, 174893, Note_on_c, 0, 60, 0
2, 174942, Note_on_c, 0, 62, 51
2, 174951, Note_on_c, 0, 70, 61
2, 175005, Note_on_c, 0, 62, 0
2, 175065, Note_on_c, 0, 60, 45
2, 175071, Note_on_c, 0, 72, 65
2, 175087, Note_on_c, 0, 77, 0
2, 175090, Note_on_c, 0, 70, 0
2, 175172, Note_on_c, 0, 60, 0
2, 175206, Note_on_c, 0, 58, 49
2, 175211, Note_on_c, 0, 74, 62
2, 175225, Note_on_c, 0, 72, 0
2, 175277, Note_on_c, 0, 74, 0
2, 175309, Note_on_c, 0, 58, 0
2, 175342, Note_on_c, 0, 62, 39
2, 175342, Note_on_c, 0, 72, 62
2, 175381, Note_on_c, 0, 72, 0
2, 175465, Note_on_c, 0, 62, 0
2, 175485, Note_on_c, 0, 74, 83
2, 175497, Note_on_c, 0, 55, 46
2, 175542, Note_on_c, 0, 74, 0
2, 175592, Note_on_c, 0, 55, 0
2, 175623, Note_on_c, 0, 58, 50
2, 175753, Note_on_c, 0, 58, 0
2, 175778, Note_on_c, 0, 51, 55
2, 175778, Note_on_c, 0, 79, 86
2, 175791, Note_on_c, 0, 74, 70
2, 175855, Control_c, 0, 64, 42
2, 175871, Control_c, 0, 64, 57
2, 175886, Control_c, 0, 64, 61
2, 175901, Control_c, 0, 64, 64
2, 175917, Control_c, 0, 64, 65
2, 175931, Control_c, 0, 64, 66
2, 175937, Note_on_c, 0, 55, 48
2, 175947, Control_c, 0, 64, 69
2, 175962, Control_c, 0, 64, 72
2, 175977, Control_c, 0, 64, 76
2, 175993, Control_c, 0, 64, 78
2, 176007, Control_c, 0, 64, 79
2, 176032, Note_on_c, 0, 79, 0
2, 176055, Note_on_c, 0, 74, 0
2, 176063, Note_on_c, 0, 55, 0
2, 176066, Note_on_c, 0, 67, 61
2, 176092, Note_on_c, 0, 51, 0
2, 176093, Note_on_c, 0, 57, 42
2, 176188, Note_on_c, 0, 57, 0
2, 176215, Note_on_c, 0, 58, 56
2, 176286, Note_on_c, 0, 67, 0
2, 176312, Control_c, 0, 64, 79
2, 176313, Note_on_c, 0, 58, 0
2, 176326, Control_c, 0, 64, 77
2, 176339, Note_on_c, 0, 75, 88
2, 176341, Control_c, 0, 64, 73
2, 176352, Note_on_c, 0, 60, 61
2, 176357, Control_c, 0, 64, 65
2, 176372, Control_c, 0, 64, 44
2, 176388, Control_c, 0, 64, 0
2, 176466, Note_on_c, 0, 60, 0
2, 176492, Note_on_c, 0, 67, 63
2, 176502, Note_on_c, 0, 58, 42
2, 176589, Note_on_c, 0, 58, 0
2, 176628, Note_on_c, 0, 60, 51
2, 176631, Note_on_c, 0, 69, 63
2, 176635, Note_on_c, 0, 67, 0
2, 176708, Note_on_c, 0, 75, 0
2, 176732, Note_on_c, 0, 60, 0
2, 176754, Note_on_c, 0, 58, 48
2, 176769, Note_on_c, 0, 70, 62
2, 176802, Note_on_c, 0, 69, 0
2, 176874, Note_on_c, 0, 58, 0
2, 176895, Note_on_c, 0, 70, 0
2, 176898, Note_on_c, 0, 57, 47
2, 176900, Note_on_c, 0, 72, 69
2, 176973, Note_on_c, 0, 72, 0
2, 176988, Note_on_c, 0, 57, 0
2, 177028, Note_on_c, 0, 60, 50
2, 177028, Note_on_c, 0, 70, 58
2, 177090, Note_on_c, 0, 70, 0
2, 177137, Note_on_c, 0, 60, 0
2, 177166, Note_on_c, 0, 72, 87
2, 177171, Note_on_c, 0, 53, 57
2, 177268, Note_on_c, 0, 53, 0
2, 177274, Note_on_c, 0, 72, 0
2, 177312, Note_on_c, 0, 57, 54
2, 177441, Note_on_c, 0, 57, 0
2, 177458, Note_on_c, 0, 50, 58
2, 177461, Note_on_c, 0, 77, 88
2, 177470, Note_on_c, 0, 72, 77
2, 177515, Control_c, 0, 64, 44
2, 177530, Control_c, 0, 64, 58
2, 177545, Control_c, 0, 64, 63
2, 177560, Control_c, 0, 64, 66
2, 177575, Control_c, 0, 64, 69
2, 177579, Note_on_c, 0, 50, 0
2, 177591, Control_c, 0, 64, 72
2, 177600, Note_on_c, 0, 53, 58
2, 177606, Control_c, 0, 64, 75
2, 177620, Control_c, 0, 64, 78
2, 177636, Control_c, 0, 64, 80
2, 177651, Control_c, 0, 64, 81
2, 177666, Control_c, 0, 64, 82
2, 177681, Control_c, 0, 64, 82
2, 177696, Control_c, 0, 64, 83
2, 177712, Control_c, 0, 64, 84
2, 177724, Note_on_c, 0, 53, 0
2, 177726, Note_on_c, 0, 77, 0
2, 177741, Control_c, 0, 64, 84
2, 177745, Note_on_c, 0, 55, 48
2, 177753, Note_on_c, 0, 72, 0
2, 177760, Note_on_c, 0, 65, 62
2, 177866, Note_on_c, 0, 55, 0
2, 177885, Note_on_c, 0, 57, 60
2, 177973, Note_on_c, 0, 65, 0
2, 178022, Control_c, 0, 64, 84
2, 178038, Control_c, 0, 64, 82
2, 178038, Note_on_c, 0, 57, 0
2, 178043, Note_on_c, 0, 74, 86
2, 178051, Note_on_c, 0, 58, 67
2, 178052, Control_c, 0, 64, 79
2, 178068, Control_c, 0, 64, 73
2, 178084, Control_c, 0, 64, 65
2, 178098, Control_c, 0, 64, 46
2, 178114, Control_c, 0, 64, 0
2, 178159, Note_on_c, 0, 58, 0
2, 178185, Note_on_c, 0, 65, 64
2, 178188, Note_on_c, 0, 57, 50
2, 178316, Note_on_c, 0, 65, 0
2, 178321, Note_on_c, 0, 57, 0
2, 178321, Note_on_c, 0, 67, 66
2, 178334, Note_on_c, 0, 58, 52
2, 178382, Note_on_c, 0, 74, 0
2, 178443, Note_on_c, 0, 58, 0
2, 178456, Note_on_c, 0, 57, 50
2, 178468, Note_on_c, 0, 69, 66
2, 178576, Note_on_c, 0, 57, 0
2, 178600, Note_on_c, 0, 70, 74
2, 178602, Note_on_c, 0, 55, 53
2, 178607, Note_on_c, 0, 69, 0
2, 178611, Note_on_c, 0, 67, 0
2, 178686, Note_on_c, 0, 55, 0
2, 178689, Note_on_c, 0, 70, 0
2, 178733, Note_on_c, 0, 69, 69
2, 178740, Note_on_c, 0, 58, 46
2, 178872, Note_on_c, 0, 58, 0
2, 178890, Note_on_c, 0, 70, 79
2, 178896, Note_on_c, 0, 51, 55
2, 178909, Note_on_c, 0, 69, 0
2, 179022, Note_on_c, 0, 51, 0
2, 179048, Note_on_c, 0, 55, 47
2, 179169, Note_on_c, 0, 75, 81
2, 179171, Note_on_c, 0, 55, 0
2, 179179, Note_on_c, 0, 48, 60
2, 179201, Note_on_c, 0, 70, 0
2, 179242, Note_on_c, 0, 75, 0
2, 179311, Note_on_c, 0, 48, 0
2, 179329, Note_on_c, 0, 55, 46
2, 179421, Note_on_c, 0, 55, 0
2, 179449, Note_on_c, 0, 75, 80
2, 179468, Note_on_c, 0, 57, 58
2, 179539, Note_on_c, 0, 75, 0
2, 179588, Note_on_c, 0, 57, 0
2, 179594, Note_on_c, 0, 70, 66
2, 179595, Note_on_c, 0, 58, 61
2, 179640, Note_on_c, 0, 70, 0
2, 179712, Note_on_c, 0, 58, 0
2, 179737, Note_on_c, 0, 60, 61
2, 179738, Note_on_c, 0, 75, 82
2, 179742, Note_on_c, 0, 69, 76
2, 179787, Note_on_c, 0, 69, 0
2, 179815, Note_on_c, 0, 75, 0
2, 179838, Note_on_c, 0, 60, 0
2, 179862, Note_on_c, 0, 58, 59
2, 179872, Note_on_c, 0, 67, 67
2, 179908, Note_on_c, 0, 67, 0
2, 179991, Note_on_c, 0, 58, 0
2, 180003, Note_on_c, 0, 69, 82
2, 180003, Note_on_c, 0, 75, 81
2, 180004, Note_on_c, 0, 60, 65
2, 180030, Note_on_c, 0, 69, 0
2, 180084, Note_on_c, 0, 75, 0
2, 180111, Note_on_c, 0, 60, 0
2, 180118, Note_on_c, 0, 67, 76
2, 180127, Note_on_c, 0, 58, 55
2, 180162, Note_on_c, 0, 67, 0
2, 180233, Note_on_c, 0, 58, 0
2, 180266, Note_on_c, 0, 75, 87
2, 180267, Note_on_c, 0, 57, 63
2, 180270, Note_on_c, 0, 65, 81
2, 180349, Note_on_c, 0, 57, 0
2, 180366, Note_on_c, 0, 75, 0
2, 180386, Note_on_c, 0, 53, 59
2, 180519, Note_on_c, 0, 53, 0
2, 180535, Note_on_c, 0, 75, 89
2, 180543, Note_on_c, 0, 55, 65
2, 180614, Note_on_c, 0, 75, 0
2, 180630, Note_on_c, 0, 55, 0
2, 180672, Note_on_c, 0, 57, 64
2, 180808, Note_on_c, 0, 75, 89
2, 180817, Note_on_c, 0, 58, 76
2, 180820, Note_on_c, 0, 57, 0
2, 180857, Control_c, 0, 64, 29
2, 180873, Control_c, 0, 64, 33
2, 180885, Note_on_c, 0, 65, 0
2, 180903, Control_c, 0, 64, 32
2, 180919, Control_c, 0, 64, 31
2, 180933, Control_c, 0, 64, 30
2, 180934, Note_on_c, 0, 58, 0
2, 180947, Note_on_c, 0, 57, 60
2, 180948, Control_c, 0, 64, 29
2, 180964, Control_c, 0, 64, 28
2, 180979, Control_c, 0, 64, 26
2, 180995, Control_c, 0, 64, 21
2, 181010, Control_c, 0, 64, 15
2, 181010, Note_on_c, 0, 75, 0
2, 181025, Control_c, 0, 64, 10
2, 181040, Control_c, 0, 64, 0
2, 181087, Note_on_c, 0, 57, 0
2, 181087, Note_on_c, 0, 58, 69
2, 181090, Note_on_c, 0, 74, 77
2, 181209, Note_on_c, 0, 58, 0
2, 181218, Note_on_c, 0, 60, 73
2, 181221, Note_on_c, 0, 75, 74
2, 181246, Note_on_c, 0, 60, 0
2, 181246, Note_on_c, 0, 74, 0
2, 181332, Note_on_c, 0, 75, 0
2, 181369, Note_on_c, 0, 62, 91
2, 181374, Note_on_c, 0, 58, 76
2, 181374, Note_on_c, 0, 77, 85
2, 181413, Control_c, 0, 64, 31
2, 181428, Control_c, 0, 64, 56
2, 181438, Note_on_c, 0, 77, 0
2, 181444, Control_c, 0, 64, 62
2, 181459, Control_c, 0, 64, 65
2, 181470, Note_on_c, 0, 62, 0
2, 181475, Control_c, 0, 64, 67
2, 181489, Control_c, 0, 64, 70
2, 181504, Control_c, 0, 64, 72
2, 181506, Note_on_c, 0, 60, 61
2, 181517, Note_on_c, 0, 70, 75
2, 181520, Control_c, 0, 64, 74
2, 181535, Control_c, 0, 64, 75
2, 181550, Control_c, 0, 64, 76
2, 181613, Note_on_c, 0, 60, 0
2, 181630, Note_on_c, 0, 70, 0
2, 181646, Note_on_c, 0, 62, 69
2, 181653, Note_on_c, 0, 77, 73
2, 181686, Control_c, 0, 64, 75
2, 181701, Control_c, 0, 64, 74
2, 181717, Control_c, 0, 64, 73
2, 181718, Note_on_c, 0, 62, 0
2, 181732, Control_c, 0, 64, 72
2, 181747, Control_c, 0, 64, 71
2, 181762, Control_c, 0, 64, 69
2, 181777, Control_c, 0, 64, 64
2, 181789, Note_on_c, 0, 79, 73
2, 181793, Control_c, 0, 64, 56
2, 181794, Note_on_c, 0, 64, 52
2, 181807, Control_c, 0, 64, 39
2, 181822, Control_c, 0, 64, 0
2, 181852, Note_on_c, 0, 77, 0
2, 181913, Note_on_c, 0, 64, 0
2, 181929, Note_on_c, 0, 65, 65
2, 181930, Note_on_c, 0, 81, 81
2, 181936, Note_on_c, 0, 79, 0
2, 182014, Note_on_c, 0, 65, 0
2, 182022, Note_on_c, 0, 81, 0
2, 182038, Note_on_c, 0, 58, 0
2, 182063, Note_on_c, 0, 79, 64
2, 182070, Note_on_c, 0, 64, 48
2, 182092, Note_on_c, 0, 64, 0
2, 182200, Note_on_c, 0, 81, 83
2, 182203, Note_on_c, 0, 65, 82
2, 182211, Note_on_c, 0, 57, 67
2, 182226, Note_on_c, 0, 79, 0
2, 182238, Note_on_c, 0, 65, 0
2, 182246, Note_on_c, 0, 57, 0
2, 182316, Note_on_c, 0, 81, 0
2, 182352, Note_on_c, 0, 72, 68
2, 182378, Note_on_c, 0, 72, 0
2, 182487, Note_on_c, 0, 65, 95
2, 182491, Note_on_c, 0, 70, 81
2, 182491, Note_on_c, 0, 81, 75
2, 182492, Note_on_c, 0, 62, 84
2, 182516, Note_on_c, 0, 81, 0
2, 182546, Note_on_c, 0, 70, 0
2, 182650, Note_on_c, 0, 72, 78
2, 182709, Note_on_c, 0, 72, 0
2, 182782, Note_on_c, 0, 74, 77
2, 182783, Note_on_c, 0, 70, 73
2, 182796, Control_c, 0, 64, 54
2, 182811, Control_c, 0, 64, 62
2, 182826, Control_c, 0, 64, 64
2, 182830, Note_on_c, 0, 70, 0
2, 182842, Control_c, 0, 64, 64
2, 182857, Control_c, 0, 64, 65
2, 182872, Control_c, 0, 64, 66
2, 182880, Note_on_c, 0, 65, 0
2, 182881, Note_on_c, 0, 74, 0
2, 182887, Control_c, 0, 64, 67
2, 182891, Note_on_c, 0, 62, 0
2, 182902, Control_c, 0, 64, 68
2, 182918, Control_c, 0, 64, 69
2, 182921, Note_on_c, 0, 69, 68
2, 182933, Control_c, 0, 64, 70
2, 182948, Control_c, 0, 64, 71
2, 182961, Note_on_c, 0, 69, 0
2, 182964, Control_c, 0, 64, 71
2, 182979, Control_c, 0, 64, 72
2, 183040, Control_c, 0, 64, 70
2, 183055, Control_c, 0, 64, 66
2, 183070, Control_c, 0, 64, 54
2, 183074, Note_on_c, 0, 62, 87
2, 183076, Note_on_c, 0, 58, 80
2, 183080, Note_on_c, 0, 67, 81
2, 183086, Control_c, 0, 64, 17
2, 183101, Control_c, 0, 64, 0
2, 183211, Note_on_c, 0, 74, 73
2, 183223, Note_on_c, 0, 67, 0
2, 183342, Note_on_c, 0, 76, 75
2, 183425, Note_on_c, 0, 74, 0
2, 183490, Note_on_c, 0, 77, 74
2, 183526, Note_on_c, 0, 76, 0
2, 183596, Note_on_c, 0, 58, 0
2, 183628, Note_on_c, 0, 62, 0
2, 183635, Note_on_c, 0, 64, 59
2, 183636, Note_on_c, 0, 79, 73
2, 183639, Note_on_c, 0, 77, 0
2, 183747, Note_on_c, 0, 79, 0
2, 183761, Note_on_c, 0, 77, 68
2, 183898, Note_on_c, 0, 64, 0
2, 183899, Control_c, 0, 64, 54
2, 183905, Note_on_c, 0, 55, 88
2, 183909, Note_on_c, 0, 79, 75
2, 183915, Control_c, 0, 64, 61
2, 183930, Control_c, 0, 64, 62
2, 183975, Control_c, 0, 64, 63
2, 183977, Note_on_c, 0, 55, 0
2, 183987, Note_on_c, 0, 77, 0
2, 184021, Control_c, 0, 64, 63
2, 184040, Note_on_c, 0, 70, 68
2, 184053, Note_on_c, 0, 79, 0
2, 184080, Note_on_c, 0, 70, 0
2, 184082, Control_c, 0, 64, 63
2, 184097, Control_c, 0, 64, 61
2, 184113, Control_c, 0, 64, 56
2, 184128, Control_c, 0, 64, 32
2, 184149, Control_c, 0, 64, 0
2, 184196, Note_on_c, 0, 60, 94
2, 184205, Note_on_c, 0, 79, 77
2, 184208, Note_on_c, 0, 69, 78
2, 184257, Control_c, 0, 64, 48
2, 184257, Note_on_c, 0, 79, 0
2, 184272, Control_c, 0, 64, 62
2, 184287, Control_c, 0, 64, 65
2, 184302, Control_c, 0, 64, 67
2, 184318, Control_c, 0, 64, 70
2, 184333, Control_c, 0, 64, 72
2, 184341, Note_on_c, 0, 69, 0
2, 184347, Control_c, 0, 64, 76
2, 184352, Note_on_c, 0, 70, 76
2, 184363, Control_c, 0, 64, 78
2, 184378, Control_c, 0, 64, 79
2, 184394, Control_c, 0, 64, 80
2, 184416, Note_on_c, 0, 70, 0
2, 184477, Note_on_c, 0, 72, 78
2, 184488, Note_on_c, 0, 69, 64
2, 184542, Note_on_c, 0, 69, 0
2, 184560, Note_on_c, 0, 72, 0
2, 184598, Note_on_c, 0, 60, 0
2, 184635, Note_on_c, 0, 67, 64
2, 184676, Note_on_c, 0, 67, 0
2, 184728, Control_c, 0, 64, 78
2, 184743, Control_c, 0, 64, 75
2, 184759, Control_c, 0, 64, 68
2, 184771, Note_on_c, 0, 60, 83
2, 184773, Note_on_c, 0, 57, 75
2, 184774, Control_c, 0, 64, 42
2, 184781, Note_on_c, 0, 65, 85
2, 184788, Control_c, 0, 64, 0
2, 184918, Note_on_c, 0, 72, 77
2, 184947, Note_on_c, 0, 65, 0
2, 185057, Note_on_c, 0, 74, 69
2, 185094, Note_on_c, 0, 72, 0
2, 185202, Note_on_c, 0, 76, 73
2, 185223, Note_on_c, 0, 74, 0
2, 185319, Note_on_c, 0, 57, 0
2, 185327, Note_on_c, 0, 60, 0
2, 185337, Note_on_c, 0, 62, 65
2, 185339, Note_on_c, 0, 77, 77
2, 185342, Note_on_c, 0, 76, 0
2, 185470, Note_on_c, 0, 76, 65
2, 185497, Note_on_c, 0, 77, 0
2, 185595, Note_on_c, 0, 62, 0
2, 185598, Note_on_c, 0, 53, 69
2, 185613, Note_on_c, 0, 77, 73
2, 185620, Note_on_c, 0, 76, 0
2, 185632, Control_c, 0, 64, 60
2, 185647, Control_c, 0, 64, 66
2, 185651, Note_on_c, 0, 53, 0
2, 185662, Control_c, 0, 64, 68
2, 185685, Control_c, 0, 64, 71
2, 185700, Control_c, 0, 64, 73
2, 185716, Control_c, 0, 64, 74
2, 185746, Note_on_c, 0, 69, 67
2, 185776, Control_c, 0, 64, 75
2, 185804, Note_on_c, 0, 69, 0
2, 185807, Control_c, 0, 64, 74
2, 185822, Control_c, 0, 64, 73
2, 185837, Control_c, 0, 64, 70
2, 185852, Control_c, 0, 64, 63
2, 185867, Control_c, 0, 64, 0
2, 185881, Note_on_c, 0, 58, 64
2, 185886, Note_on_c, 0, 67, 59
2, 185887, Note_on_c, 0, 62, 54
2, 185943, Control_c, 0, 64, 44
2, 185958, Control_c, 0, 64, 58
2, 185961, Note_on_c, 0, 77, 0
2, 185973, Control_c, 0, 64, 60
2, 186004, Control_c, 0, 64, 60
2, 186012, Note_on_c, 0, 74, 70
2, 186019, Control_c, 0, 64, 61
2, 186024, Note_on_c, 0, 58, 0
2, 186034, Control_c, 0, 64, 62
2, 186049, Control_c, 0, 64, 63
2, 186080, Control_c, 0, 64, 63
2, 186109, Control_c, 0, 64, 62
2, 186141, Note_on_c, 0, 76, 82
2, 186146, Note_on_c, 0, 74, 0
2, 186147, Note_on_c, 0, 58, 66
2, 186156, Control_c, 0, 64, 62
2, 186186, Control_c, 0, 64, 60
2, 186202, Control_c, 0, 64, 57
2, 186216, Control_c, 0, 64, 55
2, 186232, Control_c, 0, 64, 53
2, 186247, Control_c, 0, 64, 52
2, 186262, Control_c, 0, 64, 50
2, 186264, Note_on_c, 0, 58, 0
2, 186275, Note_on_c, 0, 77, 86
2, 186278, Control_c, 0, 64, 44
2, 186293, Control_c, 0, 64, 33
2, 186305, Note_on_c, 0, 76, 0
2, 186308, Control_c, 0, 64, 10
2, 186324, Control_c, 0, 64, 0
2, 186394, Note_on_c, 0, 77, 0
2, 186413, Note_on_c, 0, 79, 80
2, 186415, Note_on_c, 0, 58, 62
2, 186540, Note_on_c, 0, 58, 0
2, 186559, Note_on_c, 0, 81, 85
2, 186626, Note_on_c, 0, 79, 0
2, 186645, Note_on_c, 0, 67, 0
2, 186675, Note_on_c, 0, 58, 51
2, 186688, Note_on_c, 0, 82, 81
2, 186689, Note_on_c, 0, 62, 0
2, 186696, Control_c, 0, 64, 61
2, 186710, Note_on_c, 0, 81, 0
2, 186712, Control_c, 0, 64, 67
2, 186727, Control_c, 0, 64, 71
2, 186742, Control_c, 0, 64, 74
2, 186748, Note_on_c, 0, 58, 0
2, 186758, Control_c, 0, 64, 76
2, 186773, Control_c, 0, 64, 77
2, 186816, Note_on_c, 0, 82, 0
2, 186830, Note_on_c, 0, 79, 73
2, 186909, Control_c, 0, 64, 76
2, 186924, Control_c, 0, 64, 73
2, 186935, Note_on_c, 0, 79, 0
2, 186939, Control_c, 0, 64, 69
2, 186955, Control_c, 0, 64, 61
2, 186960, Note_on_c, 0, 58, 50
2, 186967, Note_on_c, 0, 60, 46
2, 186967, Note_on_c, 0, 77, 72
2, 186970, Control_c, 0, 64, 0
2, 187076, Note_on_c, 0, 58, 0
2, 187109, Note_on_c, 0, 76, 67
2, 187113, Note_on_c, 0, 77, 0
2, 187138, Control_c, 0, 67, 8
2, 187154, Control_c, 0, 67, 10
2, 187168, Control_c, 0, 67, 12
2, 187183, Control_c, 0, 67, 14
2, 187199, Control_c, 0, 67, 16
2, 187222, Control_c, 0, 67, 19
2, 187235, Note_on_c, 0, 60, 0
2, 187238, Control_c, 0, 67, 22
2, 187241, Note_on_c, 0, 58, 42
2, 187250, Note_on_c, 0, 74, 60
2, 187252, Control_c, 0, 67, 25
2, 187256, Note_on_c, 0, 76, 0
2, 187267, Control_c, 0, 67, 27
2, 187283, Control_c, 0, 67, 30
2, 187297, Control_c, 0, 67, 33
2, 187313, Control_c, 0, 67, 35
2, 187328, Control_c, 0, 67, 38
2, 187343, Control_c, 0, 67, 39
2, 187359, Control_c, 0, 67, 41
2, 187361, Note_on_c, 0, 74, 0
2, 187373, Control_c, 0, 67, 42
2, 187388, Control_c, 0, 67, 43
2, 187389, Note_on_c, 0, 72, 61
2, 187404, Control_c, 0, 67, 44
2, 187419, Control_c, 0, 67, 46
2, 187435, Control_c, 0, 67, 48
2, 187449, Control_c, 0, 67, 49
2, 187458, Note_on_c, 0, 72, 0
2, 187464, Control_c, 0, 67, 49
2, 187464, Note_on_c, 0, 58, 0
2, 187480, Control_c, 0, 67, 50
2, 187494, Control_c, 0, 67, 50
2, 187509, Control_c, 0, 67, 51
2, 187519, Note_on_c, 0, 77, 66
2, 187534, Note_on_c, 0, 60, 34
2, 187534, Note_on_c, 0, 65, 38
2, 187556, Control_c, 0, 67, 52
2, 187562, Note_on_c, 0, 77, 0
2, 187571, Control_c, 0, 67, 52
2, 187586, Control_c, 0, 67, 54
2, 187602, Control_c, 0, 67, 55
2, 187617, Control_c, 0, 67, 57
2, 187633, Control_c, 0, 67, 58
2, 187647, Control_c, 0, 67, 59
2, 187662, Control_c, 0, 67, 60
2, 187678, Control_c, 0, 67, 61
2, 187693, Control_c, 0, 67, 62
2, 187707, Control_c, 0, 67, 64
2, 187723, Control_c, 0, 67, 66
2, 187738, Control_c, 0, 67, 69
2, 187754, Control_c, 0, 67, 71
2, 187768, Control_c, 0, 67, 73
2, 187783, Control_c, 0, 67, 74
2, 187785, Note_on_c, 0, 60, 0
2, 187795, Note_on_c, 0, 72, 66
2, 187799, Control_c, 0, 67, 75
2, 187808, Note_on_c, 0, 65, 0
2, 187813, Note_on_c, 0, 57, 41
2, 187814, Control_c, 0, 67, 75
2, 187829, Control_c, 0, 67, 76
2, 187843, Note_on_c, 0, 72, 0
2, 187845, Control_c, 0, 67, 77
2, 187859, Control_c, 0, 67, 79
2, 187875, Control_c, 0, 67, 80
2, 187905, Note_on_c, 0, 57, 0
2, 187954, Note_on_c, 0, 55, 30
2, 188020, Control_c, 0, 67, 79
2, 188036, Control_c, 0, 67, 79
2, 188080, Note_on_c, 0, 57, 37
2, 188085, Note_on_c, 0, 77, 70
2, 188088, Note_on_c, 0, 55, 0
2, 188127, Control_c, 0, 67, 78
2, 188141, Control_c, 0, 67, 78
2, 188179, Note_on_c, 0, 57, 0
2, 188215, Note_on_c, 0, 53, 46
2, 188217, Control_c, 0, 67, 77
2, 188293, Control_c, 0, 67, 77
2, 188338, Control_c, 0, 67, 76
2, 188349, Note_on_c, 0, 53, 0
2, 188360, Note_on_c, 0, 75, 65
2, 188381, Note_on_c, 0, 57, 41
2, 188399, Note_on_c, 0, 77, 0
2, 188445, Note_on_c, 0, 75, 0
2, 188446, Control_c, 0, 67, 76
2, 188476, Control_c, 0, 67, 75
2, 188479, Note_on_c, 0, 57, 0
2, 188490, Note_on_c, 0, 74, 69
2, 188512, Note_on_c, 0, 59, 44
2, 188556, Note_on_c, 0, 74, 0
2, 188588, Note_on_c, 0, 59, 0
2, 188617, Note_on_c, 0, 75, 73
2, 188634, Note_on_c, 0, 60, 49
2, 188658, Control_c, 0, 67, 75
2, 188687, Control_c, 0, 67, 74
2, 188687, Note_on_c, 0, 75, 0
2, 188726, Note_on_c, 0, 60, 0
2, 188758, Control_c, 0, 67, 74
2, 188772, Note_on_c, 0, 67, 56
2, 188786, Note_on_c, 0, 59, 40
2, 188803, Control_c, 0, 67, 73
2, 188852, Note_on_c, 0, 67, 0
2, 188858, Note_on_c, 0, 59, 0
2, 188879, Control_c, 0, 67, 73
2, 188893, Note_on_c, 0, 72, 68
2, 188896, Note_on_c, 0, 68, 63
2, 188900, Note_on_c, 0, 60, 46
2, 188940, Note_on_c, 0, 68, 0
2, 188950, Note_on_c, 0, 72, 0
2, 189015, Control_c, 0, 67, 72
2, 189029, Note_on_c, 0, 67, 57
2, 189079, Note_on_c, 0, 67, 0
2, 189091, Control_c, 0, 67, 72
2, 189124, Note_on_c, 0, 60, 0
2, 189136, Control_c, 0, 67, 71
2, 189170, Note_on_c, 0, 65, 67
2, 189171, Note_on_c, 0, 74, 67
2, 189200, Note_on_c, 0, 65, 0
2, 189220, Note_on_c, 0, 74, 0
2, 189228, Control_c, 0, 67, 71
2, 189294, Note_on_c, 0, 60, 48
2, 189334, Control_c, 0, 67, 70
2, 189365, Control_c, 0, 67, 70
2, 189403, Note_on_c, 0, 60, 0
2, 189441, Control_c, 0, 67, 69
2, 189441, Note_on_c, 0, 67, 65
2, 189445, Note_on_c, 0, 62, 62
2, 189454, Note_on_c, 0, 59, 47
2, 189478, Note_on_c, 0, 62, 0
2, 189486, Note_on_c, 0, 67, 0
2, 189540, Note_on_c, 0, 59, 0
2, 189592, Note_on_c, 0, 57, 40
2, 189717, Note_on_c, 0, 57, 0
2, 189735, Note_on_c, 0, 79, 79
2, 189742, Note_on_c, 0, 59, 51
2, 189754, Control_c, 0, 67, 69
2, 189848, Note_on_c, 0, 59, 0
2, 189880, Note_on_c, 0, 55, 46
2, 189966, Control_c, 0, 67, 68
2, 190009, Note_on_c, 0, 55, 0
2, 190022, Note_on_c, 0, 77, 69
2, 190026, Control_c, 0, 67, 68
2, 190040, Note_on_c, 0, 59, 42
2, 190059, Note_on_c, 0, 79, 0
2, 190073, Control_c, 0, 67, 67
2, 190088, Control_c, 0, 67, 66
2, 190101, Note_on_c, 0, 77, 0
2, 190102, Control_c, 0, 67, 62
2, 190118, Control_c, 0, 67, 57
2, 190132, Note_on_c, 0, 59, 0
2, 190133, Control_c, 0, 67, 52
2, 190148, Control_c, 0, 67, 45
2, 190148, Note_on_c, 0, 75, 72
2, 190164, Control_c, 0, 67, 40
2, 190164, Note_on_c, 0, 60, 46
2, 190179, Control_c, 0, 67, 33
2, 190195, Control_c, 0, 67, 26
2, 190210, Control_c, 0, 67, 19
2, 190220, Note_on_c, 0, 75, 0
2, 190224, Control_c, 0, 67, 13
2, 190240, Control_c, 0, 67, 8
2, 190255, Control_c, 0, 67, 0
2, 190260, Note_on_c, 0, 60, 0
2, 190307, Note_on_c, 0, 77, 60
2, 190310, Note_on_c, 0, 62, 59
2, 190317, Note_on_c, 0, 76, 58
2, 190341, Note_on_c, 0, 76, 0
2, 190352, Note_on_c, 0, 77, 0
2, 190404, Note_on_c, 0, 62, 0
2, 190436, Note_on_c, 0, 69, 58
2, 190440, Note_on_c, 0, 60, 54
2, 190483, Note_on_c, 0, 69, 0
2, 190536, Note_on_c, 0, 60, 0
2, 190567, Note_on_c, 0, 74, 69
2, 190570, Note_on_c, 0, 71, 70
2, 190579, Note_on_c, 0, 62, 61
2, 190610, Note_on_c, 0, 71, 0
2, 190620, Note_on_c, 0, 74, 0
2, 190695, Note_on_c, 0, 69, 66
2, 190737, Note_on_c, 0, 69, 0
2, 190829, Note_on_c, 0, 75, 78
2, 190834, Note_on_c, 0, 67, 67
2, 190869, Note_on_c, 0, 67, 0
2, 190892, Note_on_c, 0, 75, 0
2, 190940, Note_on_c, 0, 62, 0
2, 190963, Note_on_c, 0, 55, 47
2, 191084, Note_on_c, 0, 55, 0
2, 191099, Note_on_c, 0, 63, 72
2, 191102, Note_on_c, 0, 72, 76
2, 191110, Note_on_c, 0, 60, 56
2, 191129, Note_on_c, 0, 63, 0
2, 191163, Note_on_c, 0, 72, 0
2, 191209, Note_on_c, 0, 60, 0
2, 191236, Note_on_c, 0, 59, 55
2, 191373, Note_on_c, 0, 59, 0
2, 191380, Note_on_c, 0, 80, 89
2, 191388, Note_on_c, 0, 60, 62
2, 191477, Note_on_c, 0, 60, 0
2, 191504, Note_on_c, 0, 55, 57
2, 191636, Note_on_c, 0, 80, 0
2, 191646, Note_on_c, 0, 55, 0
2, 191656, Note_on_c, 0, 79, 74
2, 191662, Note_on_c, 0, 60, 61
2, 191756, Note_on_c, 0, 60, 0
2, 191756, Note_on_c, 0, 79, 0
2, 191779, Note_on_c, 0, 77, 80
2, 191795, Note_on_c, 0, 62, 63
2, 191870, Note_on_c, 0, 77, 0
2, 191911, Note_on_c, 0, 79, 84
2, 191913, Note_on_c, 0, 62, 0
2, 191925, Note_on_c, 0, 63, 68
2, 191976, Note_on_c, 0, 79, 0
2, 192048, Note_on_c, 0, 63, 0
2, 192054, Note_on_c, 0, 71, 65
2, 192064, Note_on_c, 0, 62, 60
2, 192105, Note_on_c, 0, 71, 0
2, 192173, Note_on_c, 0, 62, 0
2, 192179, Note_on_c, 0, 63, 68
2, 192180, Note_on_c, 0, 75, 80
2, 192184, Note_on_c, 0, 72, 79
2, 192246, Note_on_c, 0, 72, 0
2, 192265, Note_on_c, 0, 75, 0
2, 192313, Note_on_c, 0, 70, 74
2, 192341, Note_on_c, 0, 70, 0
2, 192465, Note_on_c, 0, 77, 93
2, 192473, Note_on_c, 0, 68, 82
2, 192611, Note_on_c, 0, 68, 0
2, 192616, Note_on_c, 0, 67, 74
2, 192625, Control_c, 0, 64, 35
2, 192641, Control_c, 0, 64, 54
2, 192656, Control_c, 0, 64, 61
2, 192671, Control_c, 0, 64, 64
2, 192687, Control_c, 0, 64, 66
2, 192688, Note_on_c, 0, 63, 0
2, 192701, Control_c, 0, 64, 68
2, 192716, Control_c, 0, 64, 69
2, 192732, Control_c, 0, 64, 70
2, 192747, Control_c, 0, 64, 70
2, 192755, Note_on_c, 0, 67, 0
2, 192756, Note_on_c, 0, 68, 65
2, 192869, Control_c, 0, 64, 70
2, 192876, Note_on_c, 0, 63, 78
2, 192900, Control_c, 0, 64, 69
2, 192915, Control_c, 0, 64, 69
2, 192915, Note_on_c, 0, 63, 0
2, 192930, Control_c, 0, 64, 67
2, 192945, Control_c, 0, 64, 64
2, 192961, Control_c, 0, 64, 56
2, 192976, Control_c, 0, 64, 20
2, 192991, Control_c, 0, 64, 0
2, 193009, Note_on_c, 0, 62, 91
2, 193112, Control_c, 0, 64, 46
2, 193121, Note_on_c, 0, 68, 0
2, 193127, Control_c, 0, 64, 60
2, 193138, Note_on_c, 0, 67, 66
2, 193142, Control_c, 0, 64, 64
2, 193157, Control_c, 0, 64, 67
2, 193173, Control_c, 0, 64, 70
2, 193188, Control_c, 0, 64, 73
2, 193204, Control_c, 0, 64, 75
2, 193219, Control_c, 0, 64, 76
2, 193234, Control_c, 0, 64, 76
2, 193286, Note_on_c, 0, 68, 72
2, 193288, Note_on_c, 0, 62, 0
2, 193298, Note_on_c, 0, 67, 0
2, 193432, Note_on_c, 0, 60, 78
2, 193469, Control_c, 0, 64, 75
2, 193475, Note_on_c, 0, 60, 0
2, 193485, Control_c, 0, 64, 72
2, 193498, Note_on_c, 0, 68, 0
2, 193500, Control_c, 0, 64, 67
2, 193515, Control_c, 0, 64, 54
2, 193530, Control_c, 0, 64, 0
2, 193555, Note_on_c, 0, 59, 85
2, 193653, Control_c, 0, 64, 36
2, 193668, Control_c, 0, 64, 56
2, 193684, Control_c, 0, 64, 61
2, 193698, Control_c, 0, 64, 64
2, 193712, Note_on_c, 0, 75, 73
2, 193713, Control_c, 0, 64, 67
2, 193729, Control_c, 0, 64, 69
2, 193741, Note_on_c, 0, 77, 0
2, 193744, Control_c, 0, 64, 71
2, 193760, Control_c, 0, 64, 72
2, 193769, Note_on_c, 0, 75, 0
2, 193819, Control_c, 0, 64, 71
2, 193834, Control_c, 0, 64, 70
2, 193846, Note_on_c, 0, 74, 77
2, 193850, Control_c, 0, 64, 69
2, 193865, Control_c, 0, 64, 67
2, 193881, Control_c, 0, 64, 64
2, 193895, Control_c, 0, 64, 61
2, 193910, Control_c, 0, 64, 52
2, 193926, Control_c, 0, 64, 36
2, 193934, Note_on_c, 0, 59, 0
2, 193941, Control_c, 0, 64, 0
2, 193973, Note_on_c, 0, 72, 78
2, 193983, Note_on_c, 0, 62, 46
2, 194014, Note_on_c, 0, 74, 0
2, 194088, Note_on_c, 0, 62, 0
2, 194103, Note_on_c, 0, 71, 78
2, 194122, Note_on_c, 0, 72, 0
2, 194124, Note_on_c, 0, 55, 73
2, 194159, Note_on_c, 0, 55, 0
2, 194240, Note_on_c, 0, 68, 74
2, 194252, Note_on_c, 0, 71, 0
2, 194380, Note_on_c, 0, 74, 80
2, 194386, Note_on_c, 0, 68, 0
2, 194392, Note_on_c, 0, 67, 70
2, 194393, Note_on_c, 0, 59, 72
2, 194429, Note_on_c, 0, 59, 0
2, 194466, Note_on_c, 0, 67, 0
2, 194519, Note_on_c, 0, 65, 69
2, 194571, Note_on_c, 0, 65, 0
2, 194659, Note_on_c, 0, 60, 78
2, 194661, Note_on_c, 0, 63, 76
2, 194709, Note_on_c, 0, 60, 0
2, 194787, Note_on_c, 0, 67, 76
2, 194795, Note_on_c, 0, 74, 0
2, 194810, Note_on_c, 0, 63, 0
2, 194915, Note_on_c, 0, 67, 0
2, 194931, Note_on_c, 0, 56, 70
2, 194934, Note_on_c, 0, 72, 74
2, 194972, Note_on_c, 0, 56, 0
2, 195072, Note_on_c, 0, 63, 61
2, 195193, Note_on_c, 0, 53, 60
2, 195200, Note_on_c, 0, 63, 0
2, 195211, Note_on_c, 0, 72, 0
2, 195216, Note_on_c, 0, 62, 63
2, 195231, Note_on_c, 0, 53, 0
2, 195315, Note_on_c, 0, 62, 0
2, 195343, Note_on_c, 0, 72, 68
2, 195468, Note_on_c, 0, 55, 53
2, 195469, Note_on_c, 0, 71, 67
2, 195490, Note_on_c, 0, 72, 0
2, 195496, Note_on_c, 0, 55, 0
2, 195607, Note_on_c, 0, 65, 54
2, 195687, Note_on_c, 0, 65, 0
2, 195741, Note_on_c, 0, 71, 0
2, 195743, Note_on_c, 0, 72, 66
2, 195763, Note_on_c, 0, 48, 44
2, 195894, Note_on_c, 0, 65, 55
2, 195955, Control_c, 0, 64, 29
2, 195971, Control_c, 0, 64, 55
2, 195971, Note_on_c, 0, 65, 0
2, 195986, Control_c, 0, 64, 61
2, 196001, Control_c, 0, 64, 63
2, 196016, Control_c, 0, 64, 65
2, 196026, Note_on_c, 0, 48, 0
2, 196030, Note_on_c, 0, 63, 49
2, 196031, Control_c, 0, 64, 67
2, 196047, Control_c, 0, 64, 70
2, 196062, Control_c, 0, 64, 73
2, 196077, Control_c, 0, 64, 75
2, 196090, Note_on_c, 0, 72, 0
2, 196093, Control_c, 0, 64, 76
2, 196108, Control_c, 0, 64, 76
2, 196124, Control_c, 0, 64, 77
2, 196150, Note_on_c, 0, 63, 0
2, 196173, Note_on_c, 0, 62, 56
2, 196200, Control_c, 0, 64, 77
2, 196200, Note_on_c, 0, 62, 0
2, 196261, Control_c, 0, 64, 76
2, 196275, Control_c, 0, 64, 74
2, 196291, Control_c, 0, 64, 70
2, 196306, Control_c, 0, 64, 60
2, 196322, Control_c, 0, 64, 0
2, 196330, Note_on_c, 0, 63, 82
2, 196340, Note_on_c, 0, 60, 71
2, 196487, Note_on_c, 0, 48, 54
2, 196491, Note_on_c, 0, 70, 72
2, 196621, Note_on_c, 0, 70, 0
2, 196630, Note_on_c, 0, 50, 53
2, 196631, Note_on_c, 0, 69, 66
2, 196681, Note_on_c, 0, 48, 0
2, 196744, Note_on_c, 0, 50, 0
2, 196754, Note_on_c, 0, 51, 52
2, 196786, Note_on_c, 0, 67, 67
2, 196794, Note_on_c, 0, 69, 0
2, 196858, Note_on_c, 0, 60, 0
2, 196888, Note_on_c, 0, 51, 0
2, 196896, Note_on_c, 0, 53, 54
2, 196909, Note_on_c, 0, 69, 68
2, 196926, Note_on_c, 0, 63, 0
2, 196952, Note_on_c, 0, 67, 0
2, 197013, Note_on_c, 0, 53, 0
2, 197031, Note_on_c, 0, 51, 52
2, 197100, Note_on_c, 0, 51, 0
2, 197185, Note_on_c, 0, 60, 83
2, 197202, Note_on_c, 0, 57, 55
2, 197203, Control_c, 0, 64, 38
2, 197205, Note_on_c, 0, 53, 52
2, 197218, Control_c, 0, 64, 58
2, 197233, Control_c, 0, 64, 60
2, 197246, Note_on_c, 0, 69, 0
2, 197264, Control_c, 0, 64, 59
2, 197272, Note_on_c, 0, 60, 0
2, 197279, Control_c, 0, 64, 59
2, 197308, Note_on_c, 0, 53, 0
2, 197340, Control_c, 0, 64, 58
2, 197355, Control_c, 0, 64, 57
2, 197371, Control_c, 0, 64, 56
2, 197386, Control_c, 0, 64, 54
2, 197401, Control_c, 0, 64, 52
2, 197416, Control_c, 0, 64, 46
2, 197431, Control_c, 0, 64, 29
2, 197447, Control_c, 0, 64, 0
2, 197492, Note_on_c, 0, 53, 59
2, 197496, Note_on_c, 0, 57, 0
2, 197498, Note_on_c, 0, 65, 88
2, 197502, Note_on_c, 0, 62, 83
2, 197633, Note_on_c, 0, 67, 67
2, 197658, Control_c, 0, 64, 40
2, 197673, Control_c, 0, 64, 52
2, 197689, Control_c, 0, 64, 57
2, 197704, Control_c, 0, 64, 60
2, 197720, Control_c, 0, 64, 63
2, 197736, Control_c, 0, 64, 65
2, 197748, Note_on_c, 0, 46, 55
2, 197751, Control_c, 0, 64, 67
2, 197766, Control_c, 0, 64, 69
2, 197777, Note_on_c, 0, 69, 66
2, 197781, Control_c, 0, 64, 71
2, 197796, Control_c, 0, 64, 72
2, 197812, Control_c, 0, 64, 73
2, 197827, Control_c, 0, 64, 73
2, 197854, Note_on_c, 0, 46, 0
2, 197861, Note_on_c, 0, 53, 0
2, 197888, Control_c, 0, 64, 74
2, 197914, Note_on_c, 0, 70, 71
2, 197927, Note_on_c, 0, 65, 0
2, 197929, Note_on_c, 0, 69, 0
2, 197930, Note_on_c, 0, 67, 0
2, 197947, Note_on_c, 0, 62, 0
2, 197964, Note_on_c, 0, 70, 0
2, 198001, Control_c, 0, 64, 73
2, 198016, Control_c, 0, 64, 72
2, 198031, Control_c, 0, 64, 70
2, 198047, Control_c, 0, 64, 65
2, 198061, Control_c, 0, 64, 52
2, 198066, Note_on_c, 0, 67, 85
2, 198069, Note_on_c, 0, 62, 83
2, 198070, Note_on_c, 0, 58, 82
2, 198076, Control_c, 0, 64, 0
2, 198201, Note_on_c, 0, 46, 70
2, 198350, Note_on_c, 0, 46, 0
2, 198351, Note_on_c, 0, 48, 55
2, 198364, Note_on_c, 0, 58, 0
2, 198465, Note_on_c, 0, 48, 0
2, 198484, Note_on_c, 0, 50, 54
2, 198616, Note_on_c, 0, 50, 0
2, 198622, Note_on_c, 0, 51, 61
2, 198666, Note_on_c, 0, 62, 0
2, 198723, Note_on_c, 0, 51, 0
2, 198762, Note_on_c, 0, 50, 56
2, 198808, Note_on_c, 0, 50, 0
2, 198900, Note_on_c, 0, 58, 86
2, 198916, Note_on_c, 0, 55, 63
2, 198921, Control_c, 0, 64, 49
2, 198926, Note_on_c, 0, 51, 53
2, 198936, Control_c, 0, 64, 60
2, 198944, Note_on_c, 0, 67, 0
2, 198951, Control_c, 0, 64, 62
2, 198954, Note_on_c, 0, 58, 0
2, 199073, Control_c, 0, 64, 61
2, 199073, Note_on_c, 0, 51, 0
2, 199088, Control_c, 0, 64, 61
2, 199103, Control_c, 0, 64, 59
2, 199119, Control_c, 0, 64, 55
2, 199134, Control_c, 0, 64, 41
2, 199148, Control_c, 0, 64, 0
2, 199197, Note_on_c, 0, 51, 63
2, 199197, Note_on_c, 0, 63, 88
2, 199201, Note_on_c, 0, 60, 82
2, 199224, Note_on_c, 0, 55, 0
2, 199255, Control_c, 0, 64, 41
2, 199270, Control_c, 0, 64, 56
2, 199286, Control_c, 0, 64, 60
2, 199300, Control_c, 0, 64, 62
2, 199315, Control_c, 0, 64, 63
2, 199333, Control_c, 0, 64, 64
2, 199345, Note_on_c, 0, 65, 69
2, 199347, Control_c, 0, 64, 65
2, 199363, Control_c, 0, 64, 66
2, 199379, Control_c, 0, 64, 67
2, 199395, Control_c, 0, 64, 68
2, 199410, Control_c, 0, 64, 69
2, 199425, Control_c, 0, 64, 70
2, 199441, Control_c, 0, 64, 71
2, 199455, Control_c, 0, 64, 71
2, 199470, Control_c, 0, 64, 72
2, 199480, Note_on_c, 0, 67, 72
2, 199481, Note_on_c, 0, 45, 49
2, 199485, Note_on_c, 0, 51, 0
2, 199525, Control_c, 0, 64, 72
2, 199537, Note_on_c, 0, 45, 0
2, 199548, Note_on_c, 0, 60, 0
2, 199578, Note_on_c, 0, 63, 0
2, 199600, Control_c, 0, 64, 73
2, 199612, Note_on_c, 0, 69, 77
2, 199617, Note_on_c, 0, 65, 0
2, 199629, Note_on_c, 0, 67, 0
2, 199648, Note_on_c, 0, 69, 0
2, 199691, Control_c, 0, 64, 72
2, 199706, Control_c, 0, 64, 70
2, 199722, Control_c, 0, 64, 67
2, 199736, Control_c, 0, 64, 60
2, 199752, Control_c, 0, 64, 34
2, 199764, Note_on_c, 0, 65, 88
2, 199766, Note_on_c, 0, 57, 80
2, 199767, Control_c, 0, 64, 0
2, 199767, Note_on_c, 0, 60, 85
2, 199896, Note_on_c, 0, 45, 66
2, 200010, Note_on_c, 0, 45, 0
2, 200029, Note_on_c, 0, 46, 65
2, 200062, Note_on_c, 0, 57, 0
2, 200139, Note_on_c, 0, 46, 0
2, 200170, Note_on_c, 0, 48, 54
2, 200255, Note_on_c, 0, 60, 0
2, 200292, Note_on_c, 0, 48, 0
2, 200309, Note_on_c, 0, 50, 52
2, 200417, Note_on_c, 0, 50, 0
2, 200439, Note_on_c, 0, 48, 55
2, 200559, Note_on_c, 0, 48, 0
2, 200598, Control_c, 0, 64, 27
2, 200600, Note_on_c, 0, 57, 83
2, 200601, Note_on_c, 0, 53, 65
2, 200607, Note_on_c, 0, 50, 57
2, 200613, Control_c, 0, 64, 59
2, 200630, Control_c, 0, 64, 64
2, 200645, Control_c, 0, 64, 66
2, 200661, Control_c, 0, 64, 67
2, 200676, Control_c, 0, 64, 67
2, 200685, Note_on_c, 0, 65, 0
2, 200691, Control_c, 0, 64, 68
2, 200699, Note_on_c, 0, 57, 0
2, 200707, Control_c, 0, 64, 68
2, 200722, Control_c, 0, 64, 69
2, 200737, Control_c, 0, 64, 71
2, 200753, Control_c, 0, 64, 72
2, 200767, Control_c, 0, 64, 74
2, 200783, Control_c, 0, 64, 74
2, 200813, Control_c, 0, 64, 74
2, 200829, Control_c, 0, 64, 72
2, 200843, Control_c, 0, 64, 66
2, 200859, Control_c, 0, 64, 51
2, 200874, Control_c, 0, 64, 0
2, 200883, Note_on_c, 0, 58, 78
2, 200883, Note_on_c, 0, 62, 86
2, 200919, Control_c, 0, 64, 36
2, 200934, Control_c, 0, 64, 61
2, 200950, Control_c, 0, 64, 65
2, 200964, Control_c, 0, 64, 66
2, 200980, Control_c, 0, 64, 67
2, 200982, Note_on_c, 0, 53, 0
2, 201000, Note_on_c, 0, 50, 0
2, 201011, Control_c, 0, 64, 67
2, 201027, Control_c, 0, 64, 68
2, 201042, Note_on_c, 0, 48, 54
2, 201045, Note_on_c, 0, 58, 0
2, 201049, Control_c, 0, 64, 70
2, 201065, Control_c, 0, 64, 72
2, 201065, Note_on_c, 0, 62, 0
2, 201080, Control_c, 0, 64, 73
2, 201110, Control_c, 0, 64, 71
2, 201125, Control_c, 0, 64, 66
2, 201141, Control_c, 0, 64, 53
2, 201147, Note_on_c, 0, 48, 0
2, 201156, Control_c, 0, 64, 0
2, 201164, Note_on_c, 0, 58, 75
2, 201168, Note_on_c, 0, 62, 80
2, 201173, Note_on_c, 0, 50, 65
2, 201248, Note_on_c, 0, 58, 0
2, 201270, Note_on_c, 0, 50, 0
2, 201290, Note_on_c, 0, 48, 69
2, 201291, Note_on_c, 0, 69, 78
2, 201330, Note_on_c, 0, 62, 0
2, 201404, Note_on_c, 0, 69, 0
2, 201421, Note_on_c, 0, 48, 0
2, 201428, Note_on_c, 0, 46, 70
2, 201430, Note_on_c, 0, 67, 79
2, 201437, Note_on_c, 0, 58, 73
2, 201437, Note_on_c, 0, 62, 74
2, 201554, Note_on_c, 0, 46, 0
2, 201572, Note_on_c, 0, 45, 61
2, 201577, Note_on_c, 0, 58, 0
2, 201607, Note_on_c, 0, 62, 0
2, 201702, Note_on_c, 0, 46, 68
2, 201705, Note_on_c, 0, 58, 71
2, 201706, Note_on_c, 0, 45, 0
2, 201707, Note_on_c, 0, 62, 74
2, 201734, Note_on_c, 0, 67, 0
2, 201815, Note_on_c, 0, 46, 0
2, 201833, Note_on_c, 0, 45, 73
2, 201844, Note_on_c, 0, 65, 77
2, 201864, Note_on_c, 0, 58, 0
2, 201884, Note_on_c, 0, 62, 0
2, 201945, Note_on_c, 0, 65, 0
2, 201954, Note_on_c, 0, 45, 0
2, 201979, Note_on_c, 0, 70, 86
2, 201981, Note_on_c, 0, 43, 72
2, 201987, Note_on_c, 0, 58, 75
2, 201989, Note_on_c, 0, 62, 75
2, 202103, Note_on_c, 0, 43, 0
2, 202113, Note_on_c, 0, 41, 69
2, 202128, Note_on_c, 0, 58, 0
2, 202150, Note_on_c, 0, 62, 0
2, 202225, Note_on_c, 0, 41, 0
2, 202244, Note_on_c, 0, 58, 74
2, 202254, Note_on_c, 0, 43, 65
2, 202260, Note_on_c, 0, 62, 72
2, 202267, Note_on_c, 0, 70, 0
2, 202342, Note_on_c, 0, 58, 0
2, 202352, Note_on_c, 0, 43, 0
2, 202375, Note_on_c, 0, 69, 77
2, 202383, Note_on_c, 0, 41, 69
2, 202412, Note_on_c, 0, 62, 0
2, 202510, Note_on_c, 0, 41, 0
2, 202512, Note_on_c, 0, 69, 0
2, 202519, Note_on_c, 0, 67, 74
2, 202521, Note_on_c, 0, 58, 63
2, 202523, Note_on_c, 0, 40, 65
2, 202524, Note_on_c, 0, 62, 73
2, 202581, Control_c, 0, 64, 49
2, 202597, Control_c, 0, 64, 60
2, 202612, Control_c, 0, 64, 62
2, 202628, Control_c, 0, 64, 63
2, 202640, Note_on_c, 0, 40, 0
2, 202643, Control_c, 0, 64, 63
2, 202643, Note_on_c, 0, 67, 0
2, 202656, Note_on_c, 0, 62, 0
2, 202659, Control_c, 0, 64, 64
2, 202663, Note_on_c, 0, 36, 58
2, 202675, Control_c, 0, 64, 64
2, 202689, Control_c, 0, 64, 65
2, 202701, Note_on_c, 0, 58, 0
2, 202704, Control_c, 0, 64, 65
2, 202720, Control_c, 0, 64, 65
2, 202735, Control_c, 0, 64, 64
2, 202751, Control_c, 0, 64, 62
2, 202765, Control_c, 0, 64, 56
2, 202780, Control_c, 0, 64, 36
2, 202796, Control_c, 0, 64, 0
2, 202796, Note_on_c, 0, 60, 73
2, 202807, Note_on_c, 0, 57, 65
2, 202809, Note_on_c, 0, 36, 0
2, 202830, Note_on_c, 0, 38, 50
2, 202878, Note_on_c, 0, 57, 0
2, 202894, Note_on_c, 0, 60, 0
2, 202913, Note_on_c, 0, 57, 15
2, 202927, Note_on_c, 0, 38, 0
2, 202932, Note_on_c, 0, 57, 0
2, 202939, Note_on_c, 0, 55, 58
2, 202953, Note_on_c, 0, 40, 52
2, 203024, Note_on_c, 0, 55, 0
2, 203047, Note_on_c, 0, 40, 0
2, 203073, Note_on_c, 0, 65, 76
2, 203078, Note_on_c, 0, 57, 55
2, 203085, Note_on_c, 0, 41, 56
2, 203182, Note_on_c, 0, 41, 0
2, 203196, Note_on_c, 0, 57, 0
2, 203214, Note_on_c, 0, 55, 60
2, 203221, Note_on_c, 0, 36, 46
2, 203292, Note_on_c, 0, 65, 0
2, 203329, Note_on_c, 0, 36, 0
2, 203364, Note_on_c, 0, 57, 63
2, 203368, Note_on_c, 0, 55, 0
2, 203374, Note_on_c, 0, 41, 54
2, 203458, Note_on_c, 0, 41, 0
2, 203494, Note_on_c, 0, 59, 64
2, 203508, Note_on_c, 0, 43, 51
2, 203510, Note_on_c, 0, 57, 0
2, 203617, Note_on_c, 0, 43, 0
2, 203642, Note_on_c, 0, 44, 55
2, 203644, Note_on_c, 0, 60, 71
2, 203664, Note_on_c, 0, 59, 0
2, 203677, Note_on_c, 0, 44, 0
2, 203727, Note_on_c, 0, 60, 0
2, 203777, Note_on_c, 0, 59, 69
2, 203898, Note_on_c, 0, 59, 0
2, 203909, Note_on_c, 0, 60, 72
2, 203925, Note_on_c, 0, 38, 42
2, 203971, Note_on_c, 0, 38, 0
2, 204049, Note_on_c, 0, 65, 63
2, 204198, Note_on_c, 0, 63, 63
2, 204207, Note_on_c, 0, 65, 0
2, 204209, Note_on_c, 0, 43, 43
2, 204222, Control_c, 0, 64, 49
2, 204238, Control_c, 0, 64, 61
2, 204253, Control_c, 0, 64, 64
2, 204267, Control_c, 0, 64, 66
2, 204283, Control_c, 0, 64, 69
2, 204299, Control_c, 0, 64, 71
2, 204315, Control_c, 0, 64, 73
2, 204320, Note_on_c, 0, 43, 0
2, 204337, Note_on_c, 0, 42, 52
2, 204342, Note_on_c, 0, 60, 0
2, 204345, Control_c, 0, 64, 73
2, 204346, Note_on_c, 0, 63, 0
2, 204421, Control_c, 0, 64, 73
2, 204451, Control_c, 0, 64, 72
2, 204466, Control_c, 0, 64, 71
2, 204480, Note_on_c, 0, 42, 0
2, 204482, Control_c, 0, 64, 70
2, 204483, Note_on_c, 0, 62, 69
2, 204487, Note_on_c, 0, 43, 54
2, 204496, Control_c, 0, 64, 68
2, 204496, Note_on_c, 0, 59, 61
2, 204511, Control_c, 0, 64, 65
2, 204527, Control_c, 0, 64, 59
2, 204542, Control_c, 0, 64, 40
2, 204558, Control_c, 0, 64, 0
2, 204568, Note_on_c, 0, 62, 0
2, 204582, Note_on_c, 0, 43, 0
2, 204605, Note_on_c, 0, 59, 0
2, 204621, Note_on_c, 0, 57, 65
2, 204624, Note_on_c, 0, 45, 57
2, 204741, Note_on_c, 0, 57, 0
2, 204745, Note_on_c, 0, 45, 0
2, 204764, Note_on_c, 0, 47, 55
2, 204766, Note_on_c, 0, 55, 63
2, 204860, Note_on_c, 0, 47, 0
2, 204882, Note_on_c, 0, 55, 0
2, 204898, Note_on_c, 0, 45, 51
2, 204916, Note_on_c, 0, 50, 60
2, 205007, Note_on_c, 0, 50, 0
2, 205014, Note_on_c, 0, 45, 0
2, 205043, Note_on_c, 0, 55, 63
2, 205047, Note_on_c, 0, 47, 50
2, 205141, Note_on_c, 0, 47, 0
2, 205173, Note_on_c, 0, 55, 0
2, 205173, Note_on_c, 0, 57, 71
2, 205193, Note_on_c, 0, 50, 49
2, 205263, Note_on_c, 0, 50, 0
2, 205309, Note_on_c, 0, 59, 70
2, 205322, Note_on_c, 0, 55, 59
2, 205323, Note_on_c, 0, 57, 0
2, 205378, Note_on_c, 0, 59, 0
2, 205444, Note_on_c, 0, 60, 77
2, 205553, Note_on_c, 0, 55, 0
2, 205562, Note_on_c, 0, 60, 0
2, 205573, Note_on_c, 0, 62, 73
2, 205580, Note_on_c, 0, 47, 51
2, 205623, Note_on_c, 0, 47, 0
2, 205714, Note_on_c, 0, 67, 69
2, 205849, Note_on_c, 0, 67, 0
2, 205858, Note_on_c, 0, 48, 51
2, 205863, Note_on_c, 0, 65, 68
2, 205877, Control_c, 0, 64, 55
2, 205893, Control_c, 0, 64, 64
2, 205901, Note_on_c, 0, 62, 0
2, 205908, Control_c, 0, 64, 66
2, 205925, Control_c, 0, 64, 69
2, 205932, Note_on_c, 0, 65, 0
2, 205940, Control_c, 0, 64, 71
2, 205955, Control_c, 0, 64, 72
2, 205971, Control_c, 0, 64, 73
2, 205985, Control_c, 0, 64, 74
2, 206001, Control_c, 0, 64, 74
2, 206007, Note_on_c, 0, 60, 51
2, 206034, Note_on_c, 0, 60, 0
2, 206092, Control_c, 0, 64, 74
2, 206106, Control_c, 0, 64, 73
2, 206122, Control_c, 0, 64, 70
2, 206133, Note_on_c, 0, 60, 66
2, 206136, Note_on_c, 0, 63, 76
2, 206137, Control_c, 0, 64, 65
2, 206141, Note_on_c, 0, 48, 0
2, 206149, Note_on_c, 0, 55, 50
2, 206152, Control_c, 0, 64, 49
2, 206168, Control_c, 0, 64, 0
2, 206172, Note_on_c, 0, 60, 0
2, 206201, Note_on_c, 0, 63, 0
2, 206253, Note_on_c, 0, 55, 0
2, 206255, Note_on_c, 0, 65, 77
2, 206283, Note_on_c, 0, 51, 54
2, 206286, Note_on_c, 0, 65, 0
2, 206422, Note_on_c, 0, 75, 94
2, 206423, Note_on_c, 0, 67, 87
2, 206426, Note_on_c, 0, 48, 66
2, 206442, Note_on_c, 0, 51, 0
2, 206543, Note_on_c, 0, 48, 0
2, 206563, Note_on_c, 0, 55, 50
2, 206571, Control_c, 0, 64, 17
2, 206586, Control_c, 0, 64, 34
2, 206601, Control_c, 0, 64, 48
2, 206616, Control_c, 0, 64, 57
2, 206631, Control_c, 0, 64, 61
2, 206647, Control_c, 0, 64, 64
2, 206662, Control_c, 0, 64, 66
2, 206677, Control_c, 0, 64, 67
2, 206682, Note_on_c, 0, 55, 0
2, 206693, Control_c, 0, 64, 68
2, 206707, Control_c, 0, 64, 69
2, 206717, Note_on_c, 0, 57, 58
2, 206723, Control_c, 0, 64, 69
2, 206828, Note_on_c, 0, 57, 0
2, 206852, Note_on_c, 0, 59, 57
2, 206875, Control_c, 0, 64, 68
2, 206891, Control_c, 0, 64, 66
2, 206906, Control_c, 0, 64, 64
2, 206915, Note_on_c, 0, 67, 0
2, 206922, Control_c, 0, 64, 61
2, 206937, Control_c, 0, 64, 58
2, 206949, Note_on_c, 0, 75, 0
2, 206951, Control_c, 0, 64, 57
2, 206967, Control_c, 0, 64, 54
2, 206967, Note_on_c, 0, 59, 0
2, 206982, Control_c, 0, 64, 52
2, 206990, Note_on_c, 0, 60, 68
2, 206997, Control_c, 0, 64, 48
2, 207013, Control_c, 0, 64, 43
2, 207027, Control_c, 0, 64, 39
2, 207043, Control_c, 0, 64, 34
2, 207058, Control_c, 0, 64, 28
2, 207071, Note_on_c, 0, 60, 0
2, 207073, Control_c, 0, 64, 18
2, 207089, Control_c, 0, 64, 0
2, 207120, Note_on_c, 0, 59, 54
2, 207220, Note_on_c, 0, 59, 0
2, 207267, Note_on_c, 0, 72, 87
2, 207270, Note_on_c, 0, 63, 81
2, 207276, Note_on_c, 0, 60, 60
2, 207307, Note_on_c, 0, 63, 0
2, 207331, Note_on_c, 0, 72, 0
2, 207362, Note_on_c, 0, 60, 0
2, 207405, Note_on_c, 0, 56, 52
2, 207460, Control_c, 0, 64, 10
2, 207475, Control_c, 0, 64, 13
2, 207491, Control_c, 0, 64, 15
2, 207506, Note_on_c, 0, 56, 0
2, 207551, Control_c, 0, 64, 13
2, 207567, Note_on_c, 0, 77, 85
2, 207568, Control_c, 0, 64, 10
2, 207568, Note_on_c, 0, 68, 86
2, 207570, Note_on_c, 0, 60, 54
2, 207576, Note_on_c, 0, 79, 71
2, 207577, Note_on_c, 0, 79, 0
2, 207628, Control_c, 0, 64, 0
2, 207673, Control_c, 0, 64, 13
2, 207689, Control_c, 0, 64, 31
2, 207690, Note_on_c, 0, 60, 0
2, 207704, Control_c, 0, 64, 49
2, 207713, Note_on_c, 0, 50, 62
2, 207720, Control_c, 0, 64, 60
2, 207735, Control_c, 0, 64, 64
2, 207750, Control_c, 0, 64, 67
2, 207766, Control_c, 0, 64, 71
2, 207781, Control_c, 0, 64, 75
2, 207795, Control_c, 0, 64, 77
2, 207811, Control_c, 0, 64, 78
2, 207811, Note_on_c, 0, 50, 0
2, 207826, Control_c, 0, 64, 78
2, 207841, Note_on_c, 0, 53, 67
2, 207842, Control_c, 0, 64, 79
2, 207842, Note_on_c, 0, 77, 0
2, 207871, Control_c, 0, 64, 80
2, 207886, Control_c, 0, 64, 80
2, 207917, Note_on_c, 0, 68, 0
2, 207971, Note_on_c, 0, 53, 0
2, 207992, Note_on_c, 0, 56, 64
2, 208091, Control_c, 0, 64, 79
2, 208106, Control_c, 0, 64, 76
2, 208121, Note_on_c, 0, 56, 0
2, 208122, Control_c, 0, 64, 71
2, 208127, Note_on_c, 0, 74, 93
2, 208136, Control_c, 0, 64, 63
2, 208138, Note_on_c, 0, 65, 76
2, 208142, Note_on_c, 0, 58, 70
2, 208151, Control_c, 0, 64, 31
2, 208167, Control_c, 0, 64, 0
2, 208249, Note_on_c, 0, 58, 0
2, 208270, Note_on_c, 0, 53, 60
2, 208385, Note_on_c, 0, 53, 0
2, 208403, Note_on_c, 0, 55, 65
2, 208522, Note_on_c, 0, 55, 0
2, 208536, Note_on_c, 0, 56, 65
2, 208638, Note_on_c, 0, 65, 0
2, 208648, Note_on_c, 0, 74, 0
2, 208665, Note_on_c, 0, 56, 0
2, 208689, Note_on_c, 0, 58, 69
2, 208803, Note_on_c, 0, 58, 0
2, 208820, Note_on_c, 0, 56, 60
2, 208943, Note_on_c, 0, 70, 86
2, 208955, Note_on_c, 0, 62, 70
2, 208957, Note_on_c, 0, 56, 0
2, 208967, Note_on_c, 0, 58, 65
2, 208983, Note_on_c, 0, 62, 0
2, 209022, Note_on_c, 0, 70, 0
2, 209026, Control_c, 0, 64, 10
2, 209042, Control_c, 0, 64, 17
2, 209056, Control_c, 0, 64, 21
2, 209071, Control_c, 0, 64, 25
2, 209078, Note_on_c, 0, 58, 0
2, 209087, Control_c, 0, 64, 27
2, 209100, Note_on_c, 0, 55, 57
2, 209116, Control_c, 0, 64, 28
2, 209178, Control_c, 0, 64, 27
2, 209193, Control_c, 0, 64, 25
2, 209206, Note_on_c, 0, 55, 0
2, 209209, Control_c, 0, 64, 23
2, 209246, Note_on_c, 0, 75, 94
2, 209252, Note_on_c, 0, 67, 85
2, 209255, Control_c, 0, 64, 29
2, 209262, Note_on_c, 0, 58, 66
2, 209270, Control_c, 0, 64, 42
2, 209285, Control_c, 0, 64, 55
2, 209300, Control_c, 0, 64, 62
2, 209315, Control_c, 0, 64, 66
2, 209331, Control_c, 0, 64, 70
2, 209346, Control_c, 0, 64, 73
2, 209362, Control_c, 0, 64, 76
2, 209369, Note_on_c, 0, 58, 0
2, 209377, Control_c, 0, 64, 77
2, 209383, Note_on_c, 0, 48, 63
2, 209392, Control_c, 0, 64, 77
2, 209407, Control_c, 0, 64, 78
2, 209484, Note_on_c, 0, 67, 0
2, 209487, Note_on_c, 0, 75, 0
2, 209521, Note_on_c, 0, 48, 0
2, 209531, Note_on_c, 0, 51, 69
2, 209644, Note_on_c, 0, 51, 0
2, 209670, Note_on_c, 0, 55, 65
2, 209795, Control_c, 0, 64, 77
2, 209811, Control_c, 0, 64, 73
2, 209815, Note_on_c, 0, 72, 92
2, 209819, Note_on_c, 0, 63, 85
2, 209825, Control_c, 0, 64, 67
2, 209831, Note_on_c, 0, 56, 75
2, 209836, Note_on_c, 0, 55, 0
2, 209841, Control_c, 0, 64, 54
2, 209856, Control_c, 0, 64, 0
2, 209938, Note_on_c, 0, 56, 0
2, 209954, Note_on_c, 0, 51, 60
2, 210050, Note_on_c, 0, 51, 0
2, 210082, Note_on_c, 0, 53, 60
2, 210216, Note_on_c, 0, 53, 0
2, 210225, Note_on_c, 0, 55, 61
2, 210352, Note_on_c, 0, 72, 0
2, 210373, Note_on_c, 0, 63, 0
2, 210381, Note_on_c, 0, 55, 0
2, 210383, Note_on_c, 0, 56, 62
2, 210480, Note_on_c, 0, 56, 0
2, 210513, Note_on_c, 0, 55, 56
2, 210654, Note_on_c, 0, 68, 88
2, 210666, Note_on_c, 0, 60, 65
2, 210667, Note_on_c, 0, 56, 64
2, 210673, Note_on_c, 0, 55, 0
2, 210687, Note_on_c, 0, 60, 0
2, 210712, Note_on_c, 0, 68, 0
2, 210772, Note_on_c, 0, 56, 0
2, 210792, Note_on_c, 0, 53, 45
2, 210930, Note_on_c, 0, 53, 0
2, 210935, Note_on_c, 0, 74, 91
2, 210941, Note_on_c, 0, 65, 78
2, 210943, Note_on_c, 0, 47, 62
2, 210963, Note_on_c, 0, 65, 0
2, 210984, Note_on_c, 0, 74, 0
2, 211055, Note_on_c, 0, 47, 0
2, 211086, Note_on_c, 0, 55, 56
2, 211214, Note_on_c, 0, 55, 0
2, 211214, Note_on_c, 0, 74, 83
2, 211217, Note_on_c, 0, 65, 77
2, 211238, Note_on_c, 0, 56, 55
2, 211242, Note_on_c, 0, 65, 0
2, 211262, Note_on_c, 0, 74, 0
2, 211287, Note_on_c, 0, 56, 0
2, 211355, Note_on_c, 0, 55, 50
2, 211446, Note_on_c, 0, 55, 0
2, 211490, Note_on_c, 0, 53, 58
2, 211493, Note_on_c, 0, 74, 80
2, 211498, Note_on_c, 0, 65, 75
2, 211522, Note_on_c, 0, 65, 0
2, 211541, Note_on_c, 0, 74, 0
2, 211577, Note_on_c, 0, 53, 0
2, 211617, Note_on_c, 0, 51, 57
2, 211736, Note_on_c, 0, 51, 0
2, 211762, Note_on_c, 0, 74, 87
2, 211765, Note_on_c, 0, 53, 70
2, 211766, Note_on_c, 0, 65, 81
2, 211775, Note_on_c, 0, 50, 63
2, 211796, Note_on_c, 0, 65, 0
2, 211817, Note_on_c, 0, 74, 0
2, 211863, Note_on_c, 0, 50, 0
2, 211868, Note_on_c, 0, 53, 0
2, 211904, Note_on_c, 0, 51, 65
2, 212006, Note_on_c, 0, 51, 0
2, 212041, Note_on_c, 0, 50, 75
2, 212043, Note_on_c, 0, 74, 91
2, 212048, Note_on_c, 0, 41, 67
2, 212048, Note_on_c, 0, 65, 82
2, 212069, Note_on_c, 0, 65, 0
2, 212086, Note_on_c, 0, 74, 0
2, 212129, Note_on_c, 0, 50, 0
2, 212174, Note_on_c, 0, 41, 0
2, 212175, Note_on_c, 0, 48, 70
2, 212295, Note_on_c, 0, 48, 0
2, 212306, Note_on_c, 0, 74, 87
2, 212309, Note_on_c, 0, 65, 82
2, 212321, Note_on_c, 0, 50, 77
2, 212326, Note_on_c, 0, 44, 69
2, 212331, Note_on_c, 0, 65, 0
2, 212347, Note_on_c, 0, 74, 0
2, 212397, Note_on_c, 0, 44, 0
2, 212447, Note_on_c, 0, 50, 0
2, 212454, Note_on_c, 0, 48, 70
2, 212478, Control_c, 0, 64, 10
2, 212508, Control_c, 0, 64, 13
2, 212524, Control_c, 0, 64, 21
2, 212539, Control_c, 0, 64, 35
2, 212563, Control_c, 0, 64, 49
2, 212578, Control_c, 0, 64, 60
2, 212587, Note_on_c, 0, 74, 90
2, 212590, Note_on_c, 0, 65, 88
2, 212592, Control_c, 0, 64, 65
2, 212602, Note_on_c, 0, 48, 0
2, 212607, Note_on_c, 0, 47, 73
2, 212608, Control_c, 0, 64, 67
2, 212609, Note_on_c, 0, 43, 67
2, 212623, Control_c, 0, 64, 70
2, 212637, Control_c, 0, 64, 72
2, 212646, Note_on_c, 0, 47, 0
2, 212650, Note_on_c, 0, 43, 0
2, 212653, Control_c, 0, 64, 72
2, 212713, Control_c, 0, 64, 72
2, 212728, Note_on_c, 0, 72, 80
2, 212744, Control_c, 0, 64, 71
2, 212760, Control_c, 0, 64, 69
2, 212760, Note_on_c, 0, 74, 0
2, 212765, Note_on_c, 0, 65, 0
2, 212775, Control_c, 0, 64, 65
2, 212789, Control_c, 0, 64, 56
2, 212805, Control_c, 0, 64, 37
2, 212820, Control_c, 0, 64, 13
2, 212834, Control_c, 0, 64, 0
2, 212868, Note_on_c, 0, 59, 78
2, 212871, Note_on_c, 0, 55, 76
2, 212872, Note_on_c, 0, 74, 80
2, 212874, Note_on_c, 0, 65, 79
2, 212899, Note_on_c, 0, 72, 0
2, 212909, Note_on_c, 0, 59, 0
2, 212913, Note_on_c, 0, 55, 0
2, 212991, Note_on_c, 0, 65, 0
2, 213000, Note_on_c, 0, 72, 81
2, 213037, Note_on_c, 0, 74, 0
2, 213130, Note_on_c, 0, 71, 74
2, 213138, Note_on_c, 0, 65, 69
2, 213139, Note_on_c, 0, 59, 86
2, 213144, Note_on_c, 0, 55, 76
2, 213155, Note_on_c, 0, 72, 0
2, 213181, Note_on_c, 0, 59, 0
2, 213184, Note_on_c, 0, 55, 0
2, 213265, Note_on_c, 0, 71, 0
2, 213266, Note_on_c, 0, 69, 74
2, 213294, Note_on_c, 0, 65, 0
2, 213407, Note_on_c, 0, 71, 78
2, 213408, Note_on_c, 0, 59, 82
2, 213408, Note_on_c, 0, 69, 0
2, 213415, Note_on_c, 0, 55, 73
2, 213415, Note_on_c, 0, 65, 72
2, 213453, Note_on_c, 0, 59, 0
2, 213459, Note_on_c, 0, 55, 0
2, 213550, Note_on_c, 0, 69, 81
2, 213579, Note_on_c, 0, 65, 0
2, 213583, Note_on_c, 0, 71, 0
2, 213682, Note_on_c, 0, 60, 87
2, 213687, Note_on_c, 0, 57, 76
2, 213688, Note_on_c, 0, 67, 84
2, 213713, Note_on_c, 0, 69, 0
2, 213792, Note_on_c, 0, 57, 0
2, 213804, Note_on_c, 0, 60, 0
2, 213817, Note_on_c, 0, 67, 0
2, 213824, Note_on_c, 0, 65, 75
2, 213954, Note_on_c, 0, 67, 84
2, 213958, Note_on_c, 0, 62, 73
2, 213969, Note_on_c, 0, 59, 62
2, 213970, Note_on_c, 0, 65, 0
2, 214098, Note_on_c, 0, 65, 79
2, 214181, Note_on_c, 0, 59, 0
2, 214197, Note_on_c, 0, 62, 0
2, 214237, Note_on_c, 0, 51, 67
2, 214328, Note_on_c, 0, 65, 0
2, 214368, Note_on_c, 0, 63, 73
2, 214385, Control_c, 0, 64, 21
2, 214399, Control_c, 0, 64, 52
2, 214415, Control_c, 0, 64, 58
2, 214430, Control_c, 0, 64, 61
2, 214444, Control_c, 0, 64, 63
2, 214460, Control_c, 0, 64, 65
2, 214475, Control_c, 0, 64, 67
2, 214491, Control_c, 0, 64, 71
2, 214494, Note_on_c, 0, 51, 0
2, 214506, Control_c, 0, 64, 74
2, 214510, Note_on_c, 0, 65, 73
2, 214520, Control_c, 0, 64, 76
2, 214520, Note_on_c, 0, 55, 53
2, 214520, Note_on_c, 0, 63, 0
2, 214536, Control_c, 0, 64, 77
2, 214551, Control_c, 0, 64, 77
2, 214602, Note_on_c, 0, 55, 0
2, 214608, Note_on_c, 0, 67, 0
2, 214618, Note_on_c, 0, 65, 0
2, 214634, Note_on_c, 0, 62, 75
2, 214669, Note_on_c, 0, 62, 0
2, 214749, Control_c, 0, 64, 76
2, 214764, Control_c, 0, 64, 72
2, 214780, Control_c, 0, 64, 65
2, 214783, Note_on_c, 0, 60, 80
2, 214783, Note_on_c, 0, 63, 89
2, 214795, Control_c, 0, 64, 42
2, 214810, Control_c, 0, 64, 0
2, 214928, Note_on_c, 0, 51, 61
2, 214930, Note_on_c, 0, 67, 79
2, 215049, Note_on_c, 0, 51, 0
2, 215072, Note_on_c, 0, 69, 78
2, 215076, Note_on_c, 0, 53, 59
2, 215095, Note_on_c, 0, 60, 0
2, 215121, Note_on_c, 0, 67, 0
2, 215141, Note_on_c, 0, 63, 0
2, 215181, Note_on_c, 0, 53, 0
2, 215200, Note_on_c, 0, 71, 74
2, 215207, Note_on_c, 0, 55, 54
2, 215263, Note_on_c, 0, 69, 0
2, 215324, Note_on_c, 0, 55, 0
2, 215331, Note_on_c, 0, 72, 84
2, 215336, Note_on_c, 0, 56, 68
2, 215373, Note_on_c, 0, 71, 0
2, 215412, Note_on_c, 0, 56, 0
2, 215465, Note_on_c, 0, 55, 70
2, 215560, Note_on_c, 0, 55, 0
2, 215602, Note_on_c, 0, 68, 78
2, 215608, Note_on_c, 0, 65, 69
2, 215611, Note_on_c, 0, 56, 63
2, 215655, Note_on_c, 0, 65, 0
2, 215680, Note_on_c, 0, 56, 0
2, 215897, Note_on_c, 0, 65, 69
2, 215908, Note_on_c, 0, 56, 62
2, 215909, Note_on_c, 0, 62, 65
2, 215958, Note_on_c, 0, 68, 0
2, 216055, Note_on_c, 0, 72, 0
2, 216188, Note_on_c, 0, 56, 0
2, 216192, Note_on_c, 0, 71, 70
2, 216200, Note_on_c, 0, 50, 49
2, 216216, Note_on_c, 0, 65, 0
2, 216314, Note_on_c, 0, 69, 74
2, 216330, Note_on_c, 0, 71, 0
2, 216382, Note_on_c, 0, 50, 0
2, 216410, Note_on_c, 0, 69, 0
2, 216468, Note_on_c, 0, 71, 84
2, 216603, Note_on_c, 0, 68, 71
2, 216615, Note_on_c, 0, 50, 52
2, 216717, Note_on_c, 0, 50, 0
2, 216739, Note_on_c, 0, 67, 68
2, 216740, Note_on_c, 0, 68, 0
2, 216748, Note_on_c, 0, 51, 53
2, 216755, Note_on_c, 0, 62, 0
2, 216826, Note_on_c, 0, 67, 0
2, 216852, Note_on_c, 0, 51, 0
2, 216884, Note_on_c, 0, 65, 62
2, 216893, Note_on_c, 0, 53, 59
2, 216919, Note_on_c, 0, 65, 0
2, 216993, Note_on_c, 0, 53, 0
2, 217011, Note_on_c, 0, 70, 77
2, 217023, Note_on_c, 0, 64, 64
2, 217029, Note_on_c, 0, 61, 60
2, 217041, Note_on_c, 0, 71, 0
2, 217044, Note_on_c, 0, 55, 46
2, 217096, Note_on_c, 0, 64, 0
2, 217132, Note_on_c, 0, 55, 0
2, 217164, Note_on_c, 0, 53, 51
2, 217168, Note_on_c, 0, 65, 66
2, 217278, Note_on_c, 0, 53, 0
2, 217293, Note_on_c, 0, 55, 49
2, 217295, Note_on_c, 0, 65, 0
2, 217306, Note_on_c, 0, 64, 61
2, 217341, Note_on_c, 0, 55, 0
2, 217376, Note_on_c, 0, 61, 0
2, 217422, Note_on_c, 0, 64, 0
2, 217442, Note_on_c, 0, 65, 57
2, 217596, Note_on_c, 0, 60, 47
2, 217596, Note_on_c, 0, 64, 56
2, 217597, Note_on_c, 0, 55, 40
2, 217610, Control_c, 0, 64, 10
2, 217619, Note_on_c, 0, 65, 0
2, 217624, Control_c, 0, 64, 50
2, 217639, Control_c, 0, 64, 59
2, 217654, Note_on_c, 0, 70, 0
2, 217655, Control_c, 0, 64, 62
2, 217670, Control_c, 0, 64, 63
2, 217685, Control_c, 0, 64, 64
2, 217700, Control_c, 0, 64, 65
2, 217715, Control_c, 0, 64, 66
2, 217746, Control_c, 0, 64, 67
2, 217822, Control_c, 0, 64, 66
2, 217837, Control_c, 0, 64, 66
2, 217853, Note_on_c, 0, 55, 0
2, 217862, Note_on_c, 0, 69, 70
2, 217864, Note_on_c, 0, 48, 45
2, 217868, Control_c, 0, 64, 65
2, 217883, Control_c, 0, 64, 64
2, 217898, Control_c, 0, 64, 63
2, 217898, Note_on_c, 0, 64, 0
2, 217913, Control_c, 0, 64, 59
2, 217936, Control_c, 0, 64, 55
2, 217951, Control_c, 0, 64, 52
2, 217965, Control_c, 0, 64, 49
2, 217981, Control_c, 0, 64, 46
2, 217996, Control_c, 0, 64, 41
2, 218009, Note_on_c, 0, 48, 0
2, 218009, Note_on_c, 0, 69, 0
2, 218011, Note_on_c, 0, 67, 64
2, 218012, Control_c, 0, 64, 36
2, 218027, Control_c, 0, 64, 31
2, 218042, Control_c, 0, 64, 27
2, 218058, Control_c, 0, 64, 23
2, 218058, Note_on_c, 0, 67, 0
2, 218072, Control_c, 0, 64, 18
2, 218088, Control_c, 0, 64, 13
2, 218103, Control_c, 0, 64, 0
2, 218143, Note_on_c, 0, 69, 80
2, 218276, Note_on_c, 0, 48, 38
2, 218277, Note_on_c, 0, 67, 70
2, 218397, Note_on_c, 0, 69, 0
2, 218397, Note_on_c, 0, 69, 12
2, 218403, Note_on_c, 0, 48, 0
2, 218405, Note_on_c, 0, 65, 66
2, 218408, Note_on_c, 0, 60, 0
2, 218409, Note_on_c, 0, 67, 0
2, 218413, Note_on_c, 0, 50, 45
2, 218498, Note_on_c, 0, 50, 0
2, 218512, Note_on_c, 0, 65, 0
2, 218536, Note_on_c, 0, 51, 51
2, 218549, Note_on_c, 0, 63, 52
2, 218614, Note_on_c, 0, 63, 0
2, 218648, Note_on_c, 0, 51, 0
2, 218691, Note_on_c, 0, 62, 54
2, 218700, Note_on_c, 0, 68, 65
2, 218708, Note_on_c, 0, 53, 36
2, 218708, Note_on_c, 0, 69, 0
2, 218715, Note_on_c, 0, 59, 37
2, 218798, Note_on_c, 0, 62, 0
2, 218807, Note_on_c, 0, 53, 0
2, 218834, Note_on_c, 0, 51, 51
2, 218847, Note_on_c, 0, 63, 55
2, 218968, Note_on_c, 0, 63, 0
2, 218976, Note_on_c, 0, 51, 0
2, 218983, Note_on_c, 0, 62, 55
2, 218990, Note_on_c, 0, 53, 49
2, 219000, Note_on_c, 0, 59, 0
2, 219067, Note_on_c, 0, 53, 0
2, 219089, Note_on_c, 0, 62, 0
2, 219124, Note_on_c, 0, 63, 50
2, 219244, Note_on_c, 0, 68, 0
2, 219258, Note_on_c, 0, 58, 47
2, 219259, Note_on_c, 0, 62, 53
2, 219265, Note_on_c, 0, 53, 34
2, 219287, Note_on_c, 0, 63, 0
2, 219488, Control_c, 0, 64, 50
2, 219503, Control_c, 0, 64, 60
2, 219514, Note_on_c, 0, 53, 0
2, 219518, Control_c, 0, 64, 64
2, 219519, Note_on_c, 0, 46, 50
2, 219520, Note_on_c, 0, 62, 0
2, 219533, Control_c, 0, 64, 66
2, 219539, Note_on_c, 0, 58, 0
2, 219541, Note_on_c, 0, 67, 55
2, 219546, Note_on_c, 0, 46, 0
2, 219548, Control_c, 0, 64, 67
2, 219563, Control_c, 0, 64, 69
2, 219578, Control_c, 0, 64, 71
2, 219593, Control_c, 0, 64, 73
2, 219609, Control_c, 0, 64, 73
2, 219654, Control_c, 0, 64, 74
2, 219670, Note_on_c, 0, 65, 65
2, 219711, Note_on_c, 0, 67, 0
2, 219730, Control_c, 0, 64, 73
2, 219745, Control_c, 0, 64, 72
2, 219760, Control_c, 0, 64, 67
2, 219760, Note_on_c, 0, 65, 0
2, 219776, Control_c, 0, 64, 58
2, 219791, Control_c, 0, 64, 30
2, 219807, Control_c, 0, 64, 0
2, 219810, Note_on_c, 0, 58, 66
2, 219810, Note_on_c, 0, 62, 70
2, 219828, Note_on_c, 0, 67, 36
2, 219862, Note_on_c, 0, 67, 0
2, 219953, Note_on_c, 0, 77, 68
2, 219956, Note_on_c, 0, 74, 61
2, 219984, Note_on_c, 0, 74, 0
2, 219998, Note_on_c, 0, 77, 0
2, 220079, Note_on_c, 0, 79, 68
2, 220087, Note_on_c, 0, 75, 60
2, 220115, Note_on_c, 0, 75, 0
2, 220116, Note_on_c, 0, 79, 0
2, 220209, Note_on_c, 0, 80, 65
2, 220219, Note_on_c, 0, 77, 56
2, 220251, Note_on_c, 0, 80, 0
2, 220254, Note_on_c, 0, 77, 0
2, 220354, Note_on_c, 0, 82, 70
2, 220359, Note_on_c, 0, 79, 59
2, 220375, Note_on_c, 0, 58, 0
2, 220379, Note_on_c, 0, 79, 0
2, 220393, Note_on_c, 0, 82, 0
2, 220398, Note_on_c, 0, 62, 0
2, 220478, Note_on_c, 0, 80, 61
2, 220493, Note_on_c, 0, 77, 50
2, 220511, Note_on_c, 0, 80, 0
2, 220515, Note_on_c, 0, 77, 0
2, 220616, Note_on_c, 0, 82, 73
2, 220619, Note_on_c, 0, 79, 66
2, 220620, Note_on_c, 0, 58, 61
2, 220621, Note_on_c, 0, 55, 59
2, 220650, Note_on_c, 0, 79, 0
2, 220656, Note_on_c, 0, 55, 0
2, 220659, Note_on_c, 0, 58, 0
2, 220668, Note_on_c, 0, 82, 0
2, 220919, Note_on_c, 0, 82, 73
2, 220923, Note_on_c, 0, 79, 65
2, 220938, Note_on_c, 0, 63, 72
2, 220940, Control_c, 0, 64, 39
2, 220951, Note_on_c, 0, 60, 55
2, 220955, Control_c, 0, 64, 54
2, 220971, Control_c, 0, 64, 60
2, 220986, Control_c, 0, 64, 63
2, 221008, Control_c, 0, 64, 65
2, 221023, Control_c, 0, 64, 67
2, 221038, Control_c, 0, 64, 71
2, 221054, Control_c, 0, 64, 73
2, 221069, Control_c, 0, 64, 75
2, 221084, Control_c, 0, 64, 76
2, 221100, Control_c, 0, 64, 76
2, 221220, Note_on_c, 0, 75, 63
2, 221228, Note_on_c, 0, 72, 51
2, 221234, Note_on_c, 0, 79, 0
2, 221243, Note_on_c, 0, 63, 0
2, 221261, Note_on_c, 0, 60, 0
2, 221264, Note_on_c, 0, 82, 0
2, 221281, Control_c, 0, 64, 76
2, 221402, Control_c, 0, 64, 75
2, 221449, Control_c, 0, 64, 75
2, 221463, Control_c, 0, 64, 74
2, 221478, Control_c, 0, 64, 72
2, 221495, Control_c, 0, 64, 69
2, 221506, Note_on_c, 0, 60, 69
2, 221510, Control_c, 0, 64, 64
2, 221514, Note_on_c, 0, 72, 0
2, 221515, Note_on_c, 0, 56, 54
2, 221521, Note_on_c, 0, 75, 0
2, 221525, Control_c, 0, 64, 43
2, 221541, Control_c, 0, 64, 0
2, 221637, Note_on_c, 0, 72, 61
2, 221640, Note_on_c, 0, 75, 66
2, 221671, Note_on_c, 0, 72, 0
2, 221689, Note_on_c, 0, 75, 0
2, 221777, Note_on_c, 0, 77, 68
2, 221781, Note_on_c, 0, 74, 55
2, 221811, Note_on_c, 0, 74, 0
2, 221830, Note_on_c, 0, 77, 0
2, 221904, Note_on_c, 0, 79, 63
2, 221910, Note_on_c, 0, 75, 58
2, 221943, Note_on_c, 0, 75, 0
2, 221949, Note_on_c, 0, 79, 0
2, 222001, Note_on_c, 0, 56, 0
2, 222023, Note_on_c, 0, 80, 70
2, 222041, Note_on_c, 0, 77, 48
2, 222069, Note_on_c, 0, 77, 0
2, 222073, Note_on_c, 0, 60, 0
2, 222078, Note_on_c, 0, 80, 0
2, 222153, Note_on_c, 0, 79, 65
2, 222163, Note_on_c, 0, 75, 52
2, 222189, Note_on_c, 0, 75, 0
2, 222203, Note_on_c, 0, 79, 0
2, 222283, Note_on_c, 0, 56, 63
2, 222288, Note_on_c, 0, 80, 62
2, 222294, Note_on_c, 0, 53, 58
2, 222299, Note_on_c, 0, 77, 62
2, 222321, Note_on_c, 0, 56, 0
2, 222327, Note_on_c, 0, 53, 0
2, 222338, Note_on_c, 0, 80, 0
2, 222339, Note_on_c, 0, 77, 0
2, 222574, Control_c, 0, 64, 30
2, 222578, Note_on_c, 0, 62, 70
2, 222580, Note_on_c, 0, 80, 76
2, 222582, Note_on_c, 0, 58, 63
2, 222589, Control_c, 0, 64, 51
2, 222589, Note_on_c, 0, 77, 65
2, 222604, Control_c, 0, 64, 60
2, 222619, Control_c, 0, 64, 63
2, 222634, Control_c, 0, 64, 65
2, 222650, Control_c, 0, 64, 68
2, 222665, Control_c, 0, 64, 72
2, 222680, Control_c, 0, 64, 76
2, 222696, Control_c, 0, 64, 78
2, 222711, Control_c, 0, 64, 79
2, 222756, Control_c, 0, 64, 80
2, 222809, Note_on_c, 0, 62, 0
2, 222868, Note_on_c, 0, 58, 0
2, 222879, Note_on_c, 0, 70, 66
2, 222884, Note_on_c, 0, 74, 66
2, 222947, Note_on_c, 0, 77, 0
2, 222991, Note_on_c, 0, 80, 0
2, 223014, Control_c, 0, 64, 79
2, 223115, Note_on_c, 0, 74, 0
2, 223121, Control_c, 0, 64, 79
2, 223133, Note_on_c, 0, 70, 0
2, 223137, Control_c, 0, 64, 78
2, 223151, Note_on_c, 0, 58, 82
2, 223152, Control_c, 0, 64, 75
2, 223167, Note_on_c, 0, 55, 64
2, 223168, Control_c, 0, 64, 71
2, 223182, Control_c, 0, 64, 64
2, 223197, Control_c, 0, 64, 29
2, 223213, Control_c, 0, 64, 0
2, 223307, Note_on_c, 0, 74, 64
2, 223309, Note_on_c, 0, 70, 51
2, 223334, Note_on_c, 0, 70, 0
2, 223360, Note_on_c, 0, 74, 0
2, 223439, Note_on_c, 0, 75, 71
2, 223448, Note_on_c, 0, 72, 65
2, 223474, Note_on_c, 0, 72, 0
2, 223484, Note_on_c, 0, 75, 0
2, 223565, Note_on_c, 0, 77, 80
2, 223578, Note_on_c, 0, 74, 62
2, 223600, Note_on_c, 0, 55, 0
2, 223603, Note_on_c, 0, 74, 0
2, 223622, Note_on_c, 0, 77, 0
2, 223679, Note_on_c, 0, 58, 0
2, 223698, Note_on_c, 0, 79, 75
2, 223701, Note_on_c, 0, 75, 77
2, 223728, Note_on_c, 0, 75, 0
2, 223741, Note_on_c, 0, 79, 0
2, 223822, Note_on_c, 0, 77, 78
2, 223825, Note_on_c, 0, 74, 68
2, 223853, Note_on_c, 0, 74, 0
2, 223869, Note_on_c, 0, 77, 0
2, 223952, Note_on_c, 0, 79, 88
2, 223961, Note_on_c, 0, 75, 78
2, 223969, Note_on_c, 0, 55, 60
2, 223977, Note_on_c, 0, 51, 60
2, 223996, Control_c, 0, 64, 56
2, 224012, Control_c, 0, 64, 64
2, 224022, Note_on_c, 0, 55, 0
2, 224026, Control_c, 0, 64, 66
2, 224040, Note_on_c, 0, 51, 0
2, 224041, Control_c, 0, 64, 68
2, 224057, Control_c, 0, 64, 70
2, 224079, Control_c, 0, 64, 74
2, 224095, Control_c, 0, 64, 76
2, 224110, Control_c, 0, 64, 77
2, 224123, Note_on_c, 0, 79, 0
2, 224125, Control_c, 0, 64, 79
2, 224141, Control_c, 0, 64, 80
2, 224155, Control_c, 0, 64, 81
2, 224185, Note_on_c, 0, 75, 0
2, 224201, Control_c, 0, 64, 78
2, 224217, Control_c, 0, 64, 73
2, 224231, Control_c, 0, 64, 65
2, 224245, Note_on_c, 0, 60, 87
2, 224247, Control_c, 0, 64, 41
2, 224252, Note_on_c, 0, 56, 77
2, 224262, Control_c, 0, 64, 26
2, 224277, Control_c, 0, 64, 44
2, 224292, Control_c, 0, 64, 53
2, 224307, Control_c, 0, 64, 54
2, 224322, Control_c, 0, 64, 52
2, 224338, Control_c, 0, 64, 48
2, 224348, Note_on_c, 0, 60, 0
2, 224352, Control_c, 0, 64, 43
2, 224355, Note_on_c, 0, 56, 0
2, 224368, Control_c, 0, 64, 37
2, 224383, Control_c, 0, 64, 34
2, 224383, Note_on_c, 0, 73, 79
2, 224398, Control_c, 0, 64, 29
2, 224414, Control_c, 0, 64, 15
2, 224429, Control_c, 0, 64, 0
2, 224440, Note_on_c, 0, 73, 0
2, 224516, Note_on_c, 0, 82, 80
2, 224517, Note_on_c, 0, 60, 78
2, 224517, Note_on_c, 0, 75, 80
2, 224526, Note_on_c, 0, 56, 68
2, 224567, Note_on_c, 0, 60, 0
2, 224588, Note_on_c, 0, 56, 0
2, 224614, Note_on_c, 0, 75, 0
2, 224633, Note_on_c, 0, 82, 0
2, 224651, Note_on_c, 0, 73, 74
2, 224686, Note_on_c, 0, 73, 0
2, 224786, Note_on_c, 0, 80, 85
2, 224792, Note_on_c, 0, 72, 78
2, 224793, Note_on_c, 0, 60, 74
2, 224797, Note_on_c, 0, 56, 64
2, 224856, Note_on_c, 0, 60, 0
2, 224870, Note_on_c, 0, 56, 0
2, 224905, Note_on_c, 0, 72, 0
2, 224935, Note_on_c, 0, 70, 71
2, 224935, Note_on_c, 0, 80, 0
2, 224973, Note_on_c, 0, 70, 0
2, 225069, Note_on_c, 0, 79, 85
2, 225071, Note_on_c, 0, 72, 80
2, 225073, Note_on_c, 0, 60, 75
2, 225083, Note_on_c, 0, 56, 63
2, 225121, Note_on_c, 0, 60, 0
2, 225132, Note_on_c, 0, 56, 0
2, 225175, Note_on_c, 0, 72, 0
2, 225202, Note_on_c, 0, 70, 72
2, 225212, Note_on_c, 0, 79, 0
2, 225232, Note_on_c, 0, 70, 0
2, 225345, Note_on_c, 0, 68, 91
2, 225346, Note_on_c, 0, 77, 86
2, 225352, Note_on_c, 0, 60, 72
2, 225357, Note_on_c, 0, 56, 62
2, 225395, Note_on_c, 0, 60, 0
2, 225411, Note_on_c, 0, 56, 0
2, 225446, Note_on_c, 0, 77, 0
2, 225464, Note_on_c, 0, 68, 0
2, 225473, Note_on_c, 0, 67, 68
2, 225575, Note_on_c, 0, 67, 0
2, 225621, Note_on_c, 0, 75, 82
2, 225629, Note_on_c, 0, 68, 74
2, 225638, Note_on_c, 0, 60, 68
2, 225642, Note_on_c, 0, 56, 62
2, 225678, Note_on_c, 0, 60, 0
2, 225688, Note_on_c, 0, 56, 0
2, 225709, Note_on_c, 0, 68, 0
2, 225756, Note_on_c, 0, 67, 63
2, 225762, Note_on_c, 0, 75, 0
2, 225788, Note_on_c, 0, 67, 0
2, 225898, Note_on_c, 0, 74, 83
2, 225904, Note_on_c, 0, 65, 71
2, 225910, Note_on_c, 0, 62, 69
2, 225914, Note_on_c, 0, 58, 64
2, 225933, Note_on_c, 0, 65, 0
2, 225945, Note_on_c, 0, 74, 0
2, 226001, Note_on_c, 0, 62, 0
2, 226013, Note_on_c, 0, 58, 0
2, 226046, Note_on_c, 0, 60, 60
2, 226147, Note_on_c, 0, 60, 0
2, 226172, Note_on_c, 0, 74, 88
2, 226177, Note_on_c, 0, 65, 77
2, 226180, Note_on_c, 0, 62, 67
2, 226187, Note_on_c, 0, 56, 56
2, 226202, Note_on_c, 0, 65, 0
2, 226222, Note_on_c, 0, 74, 0
2, 226270, Note_on_c, 0, 62, 0
2, 226289, Note_on_c, 0, 56, 0
2, 226322, Note_on_c, 0, 60, 58
2, 226365, Note_on_c, 0, 60, 0
2, 226455, Note_on_c, 0, 75, 95
2, 226461, Note_on_c, 0, 67, 76
2, 226464, Note_on_c, 0, 58, 79
2, 226483, Note_on_c, 0, 55, 55
2, 226484, Note_on_c, 0, 67, 0
2, 226507, Note_on_c, 0, 75, 0
2, 226547, Note_on_c, 0, 58, 0
2, 226600, Note_on_c, 0, 55, 0
2, 226608, Note_on_c, 0, 56, 62
2, 226726, Note_on_c, 0, 77, 96
2, 226727, Note_on_c, 0, 56, 0
2, 226730, Note_on_c, 0, 68, 87
2, 226742, Note_on_c, 0, 58, 72
2, 226754, Note_on_c, 0, 68, 0
2, 226757, Note_on_c, 0, 53, 59
2, 226778, Note_on_c, 0, 77, 0
2, 226834, Note_on_c, 0, 58, 0
2, 226865, Note_on_c, 0, 53, 0
2, 226875, Note_on_c, 0, 56, 66
2, 226979, Note_on_c, 0, 56, 0
2, 227011, Note_on_c, 0, 79, 92
2, 227017, Note_on_c, 0, 70, 85
2, 227019, Note_on_c, 0, 55, 67
2, 227024, Note_on_c, 0, 51, 60
2, 227041, Note_on_c, 0, 70, 0
2, 227118, Note_on_c, 0, 55, 0
2, 227128, Note_on_c, 0, 51, 0
2, 227162, Note_on_c, 0, 53, 63
2, 227274, Note_on_c, 0, 53, 0
2, 227297, Note_on_c, 0, 71, 78
2, 227308, Note_on_c, 0, 55, 74
2, 227318, Note_on_c, 0, 50, 60
2, 227368, Note_on_c, 0, 50, 0
2, 227377, Note_on_c, 0, 71, 0
2, 227431, Note_on_c, 0, 55, 0
2, 227433, Note_on_c, 0, 53, 67
2, 227565, Control_c, 0, 64, 42
2, 227567, Note_on_c, 0, 53, 0
2, 227576, Note_on_c, 0, 48, 67
2, 227578, Note_on_c, 0, 72, 78
2, 227580, Control_c, 0, 64, 62
2, 227581, Note_on_c, 0, 51, 67
2, 227595, Control_c, 0, 64, 65
2, 227611, Control_c, 0, 64, 66
2, 227614, Note_on_c, 0, 48, 0
2, 227619, Note_on_c, 0, 51, 0
2, 227626, Control_c, 0, 64, 67
2, 227631, Note_on_c, 0, 79, 0
2, 227642, Control_c, 0, 64, 67
2, 227656, Control_c, 0, 64, 68
2, 227717, Control_c, 0, 64, 67
2, 227725, Note_on_c, 0, 74, 75
2, 227726, Note_on_c, 0, 77, 75
2, 227732, Control_c, 0, 64, 66
2, 227739, Note_on_c, 0, 72, 0
2, 227747, Control_c, 0, 64, 65
2, 227763, Control_c, 0, 64, 62
2, 227778, Control_c, 0, 64, 57
2, 227792, Control_c, 0, 64, 46
2, 227804, Note_on_c, 0, 77, 0
2, 227808, Control_c, 0, 64, 17
2, 227823, Control_c, 0, 64, 0
2, 227849, Note_on_c, 0, 63, 79
2, 227856, Note_on_c, 0, 60, 71
2, 227861, Note_on_c, 0, 79, 82
2, 227867, Note_on_c, 0, 75, 75
2, 227879, Note_on_c, 0, 74, 0
2, 227888, Note_on_c, 0, 60, 0
2, 227901, Note_on_c, 0, 63, 0
2, 227955, Note_on_c, 0, 75, 0
2, 228014, Note_on_c, 0, 74, 72
2, 228014, Note_on_c, 0, 77, 80
2, 228051, Note_on_c, 0, 79, 0
2, 228119, Note_on_c, 0, 77, 0
2, 228142, Note_on_c, 0, 74, 0
2, 228143, Note_on_c, 0, 63, 84
2, 228143, Note_on_c, 0, 72, 83
2, 228147, Note_on_c, 0, 60, 77
2, 228148, Note_on_c, 0, 75, 66
2, 228180, Note_on_c, 0, 75, 0
2, 228204, Note_on_c, 0, 63, 0
2, 228207, Note_on_c, 0, 60, 0
2, 228291, Note_on_c, 0, 70, 77
2, 228295, Note_on_c, 0, 72, 0
2, 228296, Note_on_c, 0, 74, 61
2, 228369, Note_on_c, 0, 74, 0
2, 228419, Note_on_c, 0, 63, 73
2, 228420, Note_on_c, 0, 60, 72
2, 228425, Note_on_c, 0, 72, 69
2, 228426, Note_on_c, 0, 75, 79
2, 228433, Note_on_c, 0, 70, 0
2, 228478, Note_on_c, 0, 63, 0
2, 228480, Note_on_c, 0, 60, 0
2, 228489, Note_on_c, 0, 72, 0
2, 228554, Note_on_c, 0, 70, 71
2, 228554, Note_on_c, 0, 74, 70
2, 228580, Note_on_c, 0, 75, 0
2, 228648, Note_on_c, 0, 74, 0
2, 228692, Note_on_c, 0, 70, 0
2, 228698, Note_on_c, 0, 72, 74
2, 228703, Note_on_c, 0, 63, 79
2, 228703, Note_on_c, 0, 68, 77
2, 228706, Note_on_c, 0, 60, 74
2, 228734, Note_on_c, 0, 72, 0
2, 228765, Note_on_c, 0, 68, 0
2, 228823, Note_on_c, 0, 68, 69
2, 228831, Note_on_c, 0, 70, 65
2, 228841, Note_on_c, 0, 63, 0
2, 228845, Note_on_c, 0, 60, 0
2, 228895, Note_on_c, 0, 68, 0
2, 228900, Note_on_c, 0, 70, 0
2, 228959, Note_on_c, 0, 72, 80
2, 228962, Note_on_c, 0, 63, 74
2, 228971, Note_on_c, 0, 60, 65
2, 228971, Note_on_c, 0, 68, 76
2, 228978, Control_c, 0, 64, 47
2, 228992, Control_c, 0, 64, 57
2, 229008, Control_c, 0, 64, 61
2, 229012, Note_on_c, 0, 60, 0
2, 229020, Note_on_c, 0, 63, 0
2, 229023, Control_c, 0, 64, 62
2, 229038, Control_c, 0, 64, 63
2, 229051, Note_on_c, 0, 68, 0
2, 229054, Control_c, 0, 64, 64
2, 229083, Control_c, 0, 64, 64
2, 229092, Note_on_c, 0, 72, 0
2, 229097, Note_on_c, 0, 70, 77
2, 229101, Note_on_c, 0, 67, 72
2, 229144, Control_c, 0, 64, 65
2, 229175, Control_c, 0, 64, 64
2, 229189, Control_c, 0, 64, 62
2, 229204, Control_c, 0, 64, 57
2, 229220, Control_c, 0, 64, 44
2, 229220, Note_on_c, 0, 67, 0
2, 229235, Control_c, 0, 64, 17
2, 229245, Note_on_c, 0, 69, 89
2, 229251, Control_c, 0, 64, 0
2, 229255, Note_on_c, 0, 66, 85
2, 229256, Note_on_c, 0, 60, 67
2, 229257, Note_on_c, 0, 63, 76
2, 229281, Note_on_c, 0, 70, 0
2, 229344, Note_on_c, 0, 63, 0
2, 229385, Note_on_c, 0, 60, 0
2, 229387, Note_on_c, 0, 62, 75
2, 229516, Control_c, 0, 64, 53
2, 229520, Note_on_c, 0, 62, 0
2, 229532, Control_c, 0, 64, 59
2, 229541, Note_on_c, 0, 58, 70
2, 229542, Note_on_c, 0, 63, 76
2, 229547, Control_c, 0, 64, 61
2, 229562, Control_c, 0, 64, 62
2, 229578, Control_c, 0, 64, 63
2, 229593, Control_c, 0, 64, 64
2, 229608, Control_c, 0, 64, 65
2, 229623, Control_c, 0, 64, 65
2, 229635, Note_on_c, 0, 63, 0
2, 229645, Note_on_c, 0, 58, 0
2, 229654, Control_c, 0, 64, 66
2, 229672, Note_on_c, 0, 62, 71
2, 229684, Control_c, 0, 64, 65
2, 229715, Control_c, 0, 64, 64
2, 229724, Note_on_c, 0, 62, 0
2, 229731, Control_c, 0, 64, 63
2, 229746, Control_c, 0, 64, 60
2, 229760, Control_c, 0, 64, 52
2, 229776, Control_c, 0, 64, 30
2, 229791, Control_c, 0, 64, 0
2, 229821, Note_on_c, 0, 60, 81
2, 229829, Note_on_c, 0, 57, 62
2, 229913, Note_on_c, 0, 60, 0
2, 229958, Note_on_c, 0, 58, 70
2, 229962, Note_on_c, 0, 57, 0
2, 230090, Note_on_c, 0, 58, 0
2, 230096, Note_on_c, 0, 70, 86
2, 230109, Note_on_c, 0, 67, 66
2, 230110, Note_on_c, 0, 55, 60
2, 230112, Note_on_c, 0, 60, 64
2, 230112, Note_on_c, 0, 66, 0
2, 230122, Note_on_c, 0, 69, 0
2, 230204, Note_on_c, 0, 60, 0
2, 230259, Note_on_c, 0, 58, 68
2, 230260, Note_on_c, 0, 55, 0
2, 230339, Note_on_c, 0, 70, 0
2, 230340, Note_on_c, 0, 58, 0
2, 230387, Note_on_c, 0, 72, 82
2, 230393, Note_on_c, 0, 54, 59
2, 230393, Note_on_c, 0, 69, 75
2, 230394, Note_on_c, 0, 57, 66
2, 230425, Note_on_c, 0, 67, 0
2, 230466, Note_on_c, 0, 54, 0
2, 230511, Note_on_c, 0, 57, 0
2, 230531, Note_on_c, 0, 55, 65
2, 230637, Note_on_c, 0, 55, 0
2, 230669, Note_on_c, 0, 57, 69
2, 230682, Note_on_c, 0, 52, 63
2, 230741, Note_on_c, 0, 52, 0
2, 230745, Note_on_c, 0, 57, 0
2, 230789, Note_on_c, 0, 55, 69
2, 230848, Note_on_c, 0, 55, 0
2, 230929, Note_on_c, 0, 54, 73
2, 230934, Note_on_c, 0, 50, 64
2, 230969, Note_on_c, 0, 54, 0
2, 230972, Note_on_c, 0, 50, 0
2, 231062, Note_on_c, 0, 62, 72
2, 231179, Note_on_c, 0, 69, 0
2, 231198, Note_on_c, 0, 54, 75
2, 231198, Note_on_c, 0, 63, 87
2, 231198, Note_on_c, 0, 72, 0
2, 231201, Note_on_c, 0, 57, 78
2, 231227, Note_on_c, 0, 62, 0
2, 231244, Note_on_c, 0, 54, 0
2, 231250, Note_on_c, 0, 57, 0
2, 231346, Note_on_c, 0, 62, 80
2, 231364, Note_on_c, 0, 63, 0
2, 231437, Note_on_c, 0, 62, 0
2, 231469, Note_on_c, 0, 70, 89
2, 231478, Note_on_c, 0, 58, 83
2, 231484, Note_on_c, 0, 55, 71
2, 231525, Note_on_c, 0, 58, 0
2, 231530, Note_on_c, 0, 55, 0
2, 231610, Note_on_c, 0, 62, 69
2, 231752, Note_on_c, 0, 63, 68
2, 231755, Note_on_c, 0, 54, 70
2, 231758, Note_on_c, 0, 50, 72
2, 231770, Note_on_c, 0, 62, 0
2, 231792, Note_on_c, 0, 54, 0
2, 231800, Note_on_c, 0, 50, 0
2, 231892, Note_on_c, 0, 62, 66
2, 231966, Note_on_c, 0, 63, 0
2, 232030, Note_on_c, 0, 62, 0
2, 232037, Note_on_c, 0, 70, 0
2, 232041, Note_on_c, 0, 51, 57
2, 232043, Note_on_c, 0, 55, 63
2, 232045, Note_on_c, 0, 60, 68
2, 232180, Note_on_c, 0, 70, 67
2, 232208, Note_on_c, 0, 60, 0
2, 232255, Note_on_c, 0, 70, 0
2, 232281, Note_on_c, 0, 55, 0
2, 232310, Note_on_c, 0, 69, 69
2, 232311, Note_on_c, 0, 51, 0
2, 232328, Note_on_c, 0, 61, 60
2, 232403, Note_on_c, 0, 69, 0
2, 232456, Note_on_c, 0, 61, 0
2, 232456, Note_on_c, 0, 67, 66
2, 232522, Note_on_c, 0, 67, 0
2, 232609, Note_on_c, 0, 66, 67
2, 232613, Note_on_c, 0, 62, 56
2, 232622, Note_on_c, 0, 57, 43
2, 232624, Note_on_c, 0, 50, 48
2, 232660, Note_on_c, 0, 50, 0
2, 232724, Note_on_c, 0, 57, 0
2, 232890, Note_on_c, 0, 38, 61
2, 232905, Control_c, 0, 64, 44
2, 232918, Note_on_c, 0, 62, 0
2, 232920, Control_c, 0, 64, 54
2, 232922, Note_on_c, 0, 38, 0
2, 232936, Control_c, 0, 64, 58
2, 232952, Control_c, 0, 64, 59
2, 232982, Note_on_c, 0, 66, 0
2, 232998, Control_c, 0, 64, 58
2, 233012, Control_c, 0, 64, 58
2, 233028, Control_c, 0, 64, 57
2, 233074, Control_c, 0, 64, 56
2, 233088, Control_c, 0, 64, 55
2, 233104, Control_c, 0, 64, 54
2, 233119, Control_c, 0, 64, 52
2, 233133, Control_c, 0, 64, 51
2, 233164, Control_c, 0, 64, 51
2, 233180, Control_c, 0, 64, 48
2, 233195, Control_c, 0, 64, 41
2, 233210, Control_c, 0, 64, 28
2, 233226, Control_c, 0, 64, 0
2, 233250, Note_on_c, 0, 62, 100
2, 233408, Note_on_c, 0, 69, 77
2, 233562, Note_on_c, 0, 69, 0
2, 233565, Note_on_c, 0, 70, 75
2, 233697, Note_on_c, 0, 72, 76
2, 233710, Note_on_c, 0, 70, 0
2, 233839, Note_on_c, 0, 74, 72
2, 233857, Note_on_c, 0, 72, 0
2, 233908, Note_on_c, 0, 62, 0
2, 233944, Note_on_c, 0, 74, 0
2, 233967, Note_on_c, 0, 72, 69
2, 233996, Note_on_c, 0, 72, 0
2, 234116, Note_on_c, 0, 58, 84
2, 234118, Note_on_c, 0, 74, 80
2, 234169, Note_on_c, 0, 58, 0
2, 234169, Note_on_c, 0, 74, 0
2, 234434, Note_on_c, 0, 74, 90
2, 234446, Note_on_c, 0, 63, 100
2, 234503, Control_c, 0, 64, 29
2, 234517, Control_c, 0, 64, 43
2, 234532, Control_c, 0, 64, 51
2, 234548, Control_c, 0, 64, 56
2, 234563, Control_c, 0, 64, 59
2, 234579, Control_c, 0, 64, 63
2, 234595, Control_c, 0, 64, 65
2, 234610, Control_c, 0, 64, 68
2, 234625, Control_c, 0, 64, 71
2, 234640, Control_c, 0, 64, 74
2, 234656, Control_c, 0, 64, 76
2, 234671, Control_c, 0, 64, 76
2, 234701, Control_c, 0, 64, 77
2, 234747, Note_on_c, 0, 74, 0
2, 234748, Note_on_c, 0, 67, 71
2, 234848, Note_on_c, 0, 63, 0
2, 235023, Note_on_c, 0, 67, 0
2, 235027, Control_c, 0, 64, 76
2, 235042, Control_c, 0, 64, 75
2, 235057, Note_on_c, 0, 60, 98
2, 235058, Control_c, 0, 64, 70
2, 235073, Control_c, 0, 64, 63
2, 235087, Control_c, 0, 64, 33
2, 235103, Control_c, 0, 64, 0
2, 235201, Note_on_c, 0, 67, 82
2, 235349, Note_on_c, 0, 69, 80
2, 235354, Note_on_c, 0, 67, 0
2, 235477, Note_on_c, 0, 70, 77
2, 235498, Note_on_c, 0, 69, 0
2, 235622, Note_on_c, 0, 72, 80
2, 235627, Note_on_c, 0, 70, 0
2, 235660, Note_on_c, 0, 60, 0
2, 235704, Note_on_c, 0, 72, 0
2, 235742, Note_on_c, 0, 70, 70
2, 235772, Note_on_c, 0, 70, 0
2, 235895, Note_on_c, 0, 57, 84
2, 235898, Note_on_c, 0, 72, 87
2, 235941, Note_on_c, 0, 72, 0
2, 235943, Note_on_c, 0, 57, 0
2, 236206, Note_on_c, 0, 72, 93
2, 236218, Note_on_c, 0, 62, 98
2, 236219, Control_c, 0, 64, 24
2, 236235, Control_c, 0, 64, 56
2, 236250, Control_c, 0, 64, 63
2, 236266, Control_c, 0, 64, 66
2, 236281, Control_c, 0, 64, 69
2, 236298, Control_c, 0, 64, 72
2, 236312, Control_c, 0, 64, 75
2, 236327, Control_c, 0, 64, 77
2, 236343, Control_c, 0, 64, 78
2, 236381, Control_c, 0, 64, 79
2, 236514, Note_on_c, 0, 72, 0
2, 236523, Note_on_c, 0, 62, 0
2, 236543, Note_on_c, 0, 66, 63
2, 236590, Note_on_c, 0, 66, 0
2, 236776, Control_c, 0, 64, 78
2, 236791, Control_c, 0, 64, 75
2, 236805, Control_c, 0, 64, 67
2, 236821, Control_c, 0, 64, 29
2, 236836, Control_c, 0, 64, 0
2, 236836, Note_on_c, 0, 74, 95
2, 236840, Note_on_c, 0, 58, 88
2, 236882, Control_c, 0, 64, 26
2, 236898, Control_c, 0, 64, 58
2, 236913, Control_c, 0, 64, 62
2, 236928, Control_c, 0, 64, 63
2, 236973, Note_on_c, 0, 66, 74
2, 236986, Note_on_c, 0, 50, 62
2, 237004, Control_c, 0, 64, 63
2, 237035, Control_c, 0, 64, 62
2, 237050, Control_c, 0, 64, 61
2, 237066, Control_c, 0, 64, 60
2, 237081, Control_c, 0, 64, 59
2, 237097, Control_c, 0, 64, 58
2, 237100, Note_on_c, 0, 66, 0
2, 237132, Note_on_c, 0, 67, 73
2, 237135, Control_c, 0, 64, 58
2, 237148, Note_on_c, 0, 52, 55
2, 237150, Control_c, 0, 64, 57
2, 237164, Control_c, 0, 64, 56
2, 237168, Note_on_c, 0, 58, 0
2, 237180, Control_c, 0, 64, 55
2, 237195, Control_c, 0, 64, 55
2, 237197, Note_on_c, 0, 50, 0
2, 237225, Control_c, 0, 64, 53
2, 237240, Control_c, 0, 64, 48
2, 237256, Control_c, 0, 64, 38
2, 237268, Note_on_c, 0, 69, 76
2, 237271, Control_c, 0, 64, 10
2, 237271, Note_on_c, 0, 52, 0
2, 237277, Note_on_c, 0, 67, 0
2, 237285, Control_c, 0, 64, 0
2, 237298, Note_on_c, 0, 54, 52
2, 237356, Note_on_c, 0, 74, 0
2, 237392, Note_on_c, 0, 54, 0
2, 237411, Note_on_c, 0, 70, 74
2, 237412, Note_on_c, 0, 55, 49
2, 237427, Note_on_c, 0, 69, 0
2, 237511, Note_on_c, 0, 55, 0
2, 237527, Note_on_c, 0, 70, 0
2, 237539, Note_on_c, 0, 54, 52
2, 237543, Note_on_c, 0, 69, 74
2, 237581, Note_on_c, 0, 69, 0
2, 237595, Note_on_c, 0, 54, 0
2, 237681, Control_c, 0, 64, 45
2, 237690, Note_on_c, 0, 55, 77
2, 237696, Control_c, 0, 64, 62
2, 237698, Note_on_c, 0, 70, 93
2, 237711, Control_c, 0, 64, 64
2, 237742, Control_c, 0, 64, 64
2, 237757, Control_c, 0, 64, 63
2, 237764, Note_on_c, 0, 70, 0
2, 237765, Note_on_c, 0, 55, 0
2, 237771, Control_c, 0, 64, 60
2, 237787, Control_c, 0, 64, 53
2, 237802, Control_c, 0, 64, 26
2, 237818, Control_c, 0, 64, 0
2, 238013, Note_on_c, 0, 75, 94
2, 238021, Note_on_c, 0, 70, 85
2, 238022, Note_on_c, 0, 55, 68
2, 238023, Note_on_c, 0, 60, 76
2, 238053, Control_c, 0, 64, 58
2, 238069, Control_c, 0, 64, 67
2, 238084, Control_c, 0, 64, 69
2, 238100, Control_c, 0, 64, 70
2, 238115, Control_c, 0, 64, 73
2, 238129, Control_c, 0, 64, 77
2, 238145, Control_c, 0, 64, 81
2, 238160, Control_c, 0, 64, 82
2, 238252, Note_on_c, 0, 60, 0
2, 238293, Note_on_c, 0, 55, 0
2, 238295, Note_on_c, 0, 75, 0
2, 238302, Note_on_c, 0, 48, 57
2, 238321, Note_on_c, 0, 63, 72
2, 238326, Note_on_c, 0, 70, 0
2, 238351, Note_on_c, 0, 48, 0
2, 238413, Note_on_c, 0, 63, 0
2, 238570, Control_c, 0, 64, 80
2, 238585, Control_c, 0, 64, 76
2, 238600, Control_c, 0, 64, 66
2, 238608, Note_on_c, 0, 72, 95
2, 238611, Note_on_c, 0, 57, 80
2, 238616, Control_c, 0, 64, 44
2, 238631, Control_c, 0, 64, 0
2, 238759, Note_on_c, 0, 48, 67
2, 238760, Note_on_c, 0, 64, 73
2, 238906, Note_on_c, 0, 64, 0
2, 238908, Note_on_c, 0, 65, 73
2, 238916, Note_on_c, 0, 50, 50
2, 238927, Note_on_c, 0, 48, 0
2, 238947, Note_on_c, 0, 57, 0
2, 238958, Note_on_c, 0, 72, 0
2, 239025, Note_on_c, 0, 50, 0
2, 239048, Note_on_c, 0, 67, 71
2, 239060, Note_on_c, 0, 52, 52
2, 239088, Note_on_c, 0, 65, 0
2, 239140, Note_on_c, 0, 52, 0
2, 239171, Note_on_c, 0, 53, 57
2, 239185, Note_on_c, 0, 69, 74
2, 239213, Note_on_c, 0, 67, 0
2, 239252, Note_on_c, 0, 69, 0
2, 239278, Note_on_c, 0, 53, 0
2, 239318, Note_on_c, 0, 52, 43
2, 239318, Note_on_c, 0, 67, 71
2, 239350, Note_on_c, 0, 67, 0
2, 239358, Note_on_c, 0, 52, 0
2, 239461, Note_on_c, 0, 69, 96
2, 239464, Note_on_c, 0, 53, 71
2, 239517, Note_on_c, 0, 69, 0
2, 239550, Note_on_c, 0, 53, 0
2, 239761, Note_on_c, 0, 74, 92
2, 239767, Note_on_c, 0, 69, 89
2, 239775, Note_on_c, 0, 53, 65
2, 239775, Note_on_c, 0, 58, 83
2, 239833, Control_c, 0, 64, 17
2, 239848, Control_c, 0, 64, 47
2, 239863, Control_c, 0, 64, 59
2, 239878, Control_c, 0, 64, 64
2, 239893, Control_c, 0, 64, 67
2, 239909, Control_c, 0, 64, 69
2, 239924, Control_c, 0, 64, 72
2, 239940, Control_c, 0, 64, 74
2, 239955, Control_c, 0, 64, 76
2, 239970, Control_c, 0, 64, 77
2, 240012, Note_on_c, 0, 74, 0
2, 240031, Note_on_c, 0, 58, 0
2, 240039, Note_on_c, 0, 69, 0
2, 240046, Note_on_c, 0, 53, 0
2, 240051, Note_on_c, 0, 46, 63
2, 240051, Note_on_c, 0, 62, 69
2, 240115, Note_on_c, 0, 46, 0
2, 240288, Note_on_c, 0, 62, 0
2, 240312, Control_c, 0, 64, 76
2, 240327, Control_c, 0, 64, 74
2, 240343, Control_c, 0, 64, 68
2, 240347, Note_on_c, 0, 70, 97
2, 240358, Control_c, 0, 64, 53
2, 240359, Note_on_c, 0, 55, 86
2, 240373, Control_c, 0, 64, 0
2, 240501, Note_on_c, 0, 46, 64
2, 240514, Note_on_c, 0, 62, 42
2, 240517, Note_on_c, 0, 60, 34
2, 240591, Note_on_c, 0, 60, 0
2, 240618, Note_on_c, 0, 70, 0
2, 240619, Note_on_c, 0, 55, 0
2, 240631, Note_on_c, 0, 64, 71
2, 240646, Note_on_c, 0, 48, 55
2, 240649, Note_on_c, 0, 46, 0
2, 240649, Note_on_c, 0, 62, 0
2, 240753, Note_on_c, 0, 48, 0
2, 240768, Control_c, 0, 64, 10
2, 240768, Note_on_c, 0, 66, 75
2, 240794, Note_on_c, 0, 50, 49
2, 240810, Note_on_c, 0, 64, 0
2, 240883, Note_on_c, 0, 50, 0
2, 240906, Note_on_c, 0, 67, 74
2, 240908, Note_on_c, 0, 51, 63
2, 240924, Note_on_c, 0, 66, 0
2, 240936, Control_c, 0, 64, 0
2, 241010, Note_on_c, 0, 51, 0
2, 241016, Note_on_c, 0, 67, 0
2, 241039, Note_on_c, 0, 50, 51
2, 241043, Note_on_c, 0, 66, 71
2, 241165, Note_on_c, 0, 66, 0
2, 241176, Note_on_c, 0, 50, 0
2, 241184, Note_on_c, 0, 67, 79
2, 241201, Note_on_c, 0, 58, 58
2, 241211, Note_on_c, 0, 51, 51
2, 241248, Control_c, 0, 64, 10
2, 241264, Control_c, 0, 64, 13
2, 241278, Control_c, 0, 64, 15
2, 241293, Control_c, 0, 64, 17
2, 241309, Control_c, 0, 64, 18
2, 241324, Control_c, 0, 64, 21
2, 241337, Note_on_c, 0, 58, 0
2, 241340, Control_c, 0, 64, 23
2, 241354, Control_c, 0, 64, 24
2, 241369, Control_c, 0, 64, 26
2, 241385, Control_c, 0, 64, 28
2, 241400, Control_c, 0, 64, 29
2, 241471, Note_on_c, 0, 72, 80
2, 241474, Note_on_c, 0, 51, 0
2, 241485, Note_on_c, 0, 67, 0
2, 241490, Note_on_c, 0, 57, 59
2, 241506, Control_c, 0, 64, 29
2, 241521, Control_c, 0, 64, 30
2, 241532, Note_on_c, 0, 72, 0
2, 241537, Control_c, 0, 64, 31
2, 241591, Note_on_c, 0, 57, 0
2, 241623, Note_on_c, 0, 50, 49
2, 241716, Note_on_c, 0, 50, 0
2, 241745, Note_on_c, 0, 72, 78
2, 241748, Note_on_c, 0, 70, 78
2, 241765, Note_on_c, 0, 51, 47
2, 241768, Note_on_c, 0, 55, 62
2, 241812, Note_on_c, 0, 72, 0
2, 241814, Control_c, 0, 64, 32
2, 241824, Note_on_c, 0, 70, 0
2, 241830, Control_c, 0, 64, 32
2, 241845, Control_c, 0, 64, 34
2, 241860, Control_c, 0, 64, 36
2, 241866, Note_on_c, 0, 55, 0
2, 241870, Note_on_c, 0, 51, 0
2, 241876, Control_c, 0, 64, 37
2, 241891, Control_c, 0, 64, 38
2, 241894, Note_on_c, 0, 50, 43
2, 241907, Control_c, 0, 64, 39
2, 241921, Control_c, 0, 64, 39
2, 241936, Control_c, 0, 64, 40
2, 241952, Control_c, 0, 64, 41
2, 241973, Note_on_c, 0, 50, 0
2, 242013, Control_c, 0, 64, 40
2, 242028, Note_on_c, 0, 63, 84
2, 242029, Control_c, 0, 64, 40
2, 242029, Note_on_c, 0, 72, 75
2, 242032, Note_on_c, 0, 69, 73
2, 242039, Note_on_c, 0, 48, 69
2, 242044, Control_c, 0, 64, 39
2, 242059, Control_c, 0, 64, 39
2, 242097, Note_on_c, 0, 72, 0
2, 242102, Note_on_c, 0, 63, 0
2, 242110, Note_on_c, 0, 69, 0
2, 242134, Note_on_c, 0, 48, 0
2, 242135, Control_c, 0, 64, 38
2, 242157, Note_on_c, 0, 46, 59
2, 242287, Note_on_c, 0, 46, 0
2, 242306, Note_on_c, 0, 48, 76
2, 242306, Note_on_c, 0, 63, 83
2, 242306, Note_on_c, 0, 67, 81
2, 242306, Note_on_c, 0, 72, 82
2, 242332, Control_c, 0, 64, 39
2, 242365, Note_on_c, 0, 63, 0
2, 242376, Note_on_c, 0, 72, 0
2, 242386, Note_on_c, 0, 67, 0
2, 242426, Note_on_c, 0, 48, 0
2, 242432, Note_on_c, 0, 46, 69
2, 242439, Control_c, 0, 64, 39
2, 242591, Note_on_c, 0, 72, 88
2, 242592, Note_on_c, 0, 63, 84
2, 242593, Note_on_c, 0, 45, 68
2, 242594, Note_on_c, 0, 66, 80
2, 242597, Note_on_c, 0, 46, 0
2, 242629, Control_c, 0, 64, 40
2, 242674, Note_on_c, 0, 63, 0
2, 242694, Note_on_c, 0, 72, 0
2, 242698, Note_on_c, 0, 66, 0
2, 242711, Note_on_c, 0, 45, 0
2, 242727, Note_on_c, 0, 43, 68
2, 242782, Control_c, 0, 64, 39
2, 242839, Note_on_c, 0, 43, 0
2, 242862, Note_on_c, 0, 72, 86
2, 242864, Note_on_c, 0, 63, 83
2, 242870, Note_on_c, 0, 67, 75
2, 242871, Note_on_c, 0, 45, 77
2, 242887, Control_c, 0, 64, 40
2, 242920, Note_on_c, 0, 67, 0
2, 242956, Note_on_c, 0, 63, 0
2, 242979, Note_on_c, 0, 72, 0
2, 242995, Control_c, 0, 64, 40
2, 243001, Note_on_c, 0, 45, 0
2, 243003, Note_on_c, 0, 43, 77
2, 243026, Control_c, 0, 64, 41
2, 243100, Control_c, 0, 64, 41
2, 243116, Control_c, 0, 64, 42
2, 243131, Control_c, 0, 64, 44
2, 243161, Control_c, 0, 64, 44
2, 243176, Control_c, 0, 64, 39
2, 243192, Control_c, 0, 64, 23
2, 243192, Note_on_c, 0, 72, 97
2, 243193, Note_on_c, 0, 69, 94
2, 243197, Note_on_c, 0, 62, 94
2, 243200, Note_on_c, 0, 42, 78
2, 243203, Note_on_c, 0, 43, 0
2, 243208, Control_c, 0, 64, 0
2, 243383, Control_c, 0, 64, 27
2, 243398, Control_c, 0, 64, 59
2, 243413, Control_c, 0, 64, 65
2, 243429, Control_c, 0, 64, 67
2, 243444, Control_c, 0, 64, 69
2, 243458, Control_c, 0, 64, 70
2, 243474, Control_c, 0, 64, 72
2, 243489, Control_c, 0, 64, 73
2, 243504, Control_c, 0, 64, 74
2, 243519, Control_c, 0, 64, 75
2, 243534, Control_c, 0, 64, 76
2, 243585, Note_on_c, 0, 42, 0
2, 243664, Note_on_c, 0, 72, 0
2, 243707, Note_on_c, 0, 62, 0
2, 243734, Note_on_c, 0, 69, 0
2, 243930, Control_c, 0, 64, 75
2, 243946, Control_c, 0, 64, 75
2, 243961, Control_c, 0, 64, 73
2, 243975, Control_c, 0, 64, 71
2, 243991, Control_c, 0, 64, 68
2, 244005, Control_c, 0, 64, 64
2, 244020, Control_c, 0, 64, 59
2, 244043, Control_c, 0, 64, 55
2, 244058, Control_c, 0, 64, 53
2, 244074, Control_c, 0, 64, 50
2, 244089, Control_c, 0, 64, 39
2, 244105, Control_c, 0, 64, 0
2, 244180, Control_c, 0, 64, 20
2, 244196, Control_c, 0, 64, 64
2, 244196, Note_on_c, 0, 74, 91
2, 244198, Note_on_c, 0, 62, 91
2, 244199, Note_on_c, 0, 66, 85
2, 244201, Note_on_c, 0, 38, 70
2, 244211, Control_c, 0, 64, 68
2, 244226, Control_c, 0, 64, 73
2, 244241, Control_c, 0, 64, 75
2, 244256, Control_c, 0, 64, 76
2, 244292, Note_on_c, 0, 38, 0
2, 244295, Note_on_c, 0, 62, 0
2, 244298, Note_on_c, 0, 74, 0
2, 244305, Note_on_c, 0, 66, 0
2, 244362, Control_c, 0, 64, 76
2, 244377, Control_c, 0, 64, 75
2, 244393, Control_c, 0, 64, 75
2, 244408, Control_c, 0, 64, 74
2, 244425, Control_c, 0, 64, 73
2, 244440, Control_c, 0, 64, 73
2, 244454, Control_c, 0, 64, 72
2, 244470, Control_c, 0, 64, 71
2, 244485, Control_c, 0, 64, 70
2, 244500, Control_c, 0, 64, 68
2, 244516, Control_c, 0, 64, 66
2, 244530, Control_c, 0, 64, 64
2, 244546, Control_c, 0, 64, 60
2, 244561, Control_c, 0, 64, 51
2, 244575, Control_c, 0, 64, 0
2, 244591, Note_on_c, 0, 70, 94
2, 244595, Note_on_c, 0, 62, 90
2, 244596, Note_on_c, 0, 67, 84
2, 244600, Note_on_c, 0, 43, 85
2, 244789, Control_c, 0, 64, 58
2, 244811, Control_c, 0, 64, 63
2, 244827, Control_c, 0, 64, 65
2, 244842, Control_c, 0, 64, 68
2, 244856, Control_c, 0, 64, 72
2, 244872, Control_c, 0, 64, 76
2, 244887, Control_c, 0, 64, 78
2, 244903, Control_c, 0, 64, 79
2, 244918, Control_c, 0, 64, 79
2, 244963, Control_c, 0, 64, 80
2, 245070, Control_c, 0, 64, 80
2, 245087, Note_on_c, 0, 70, 0
2, 245133, Note_on_c, 0, 43, 0
2, 245179, Note_on_c, 0, 62, 0
2, 245182, Note_on_c, 0, 67, 0
2, 245405, Control_c, 0, 64, 80
2, 245435, Control_c, 0, 64, 79
2, 245450, Control_c, 0, 64, 79
2, 245466, Control_c, 0, 64, 78
2, 245481, Control_c, 0, 64, 75
2, 245495, Control_c, 0, 64, 71
2, 245511, Control_c, 0, 64, 62
2, 245526, Control_c, 0, 64, 0
2, 245590, Note_on_c, 0, 72, 85
2, 245600, Note_on_c, 0, 63, 82
2, 245600, Note_on_c, 0, 69, 78
2, 245602, Note_on_c, 0, 48, 95
2, 245610, Control_c, 0, 64, 62
2, 245625, Control_c, 0, 64, 68
2, 245640, Control_c, 0, 64, 72
2, 245652, Note_on_c, 0, 48, 0
2, 245655, Control_c, 0, 64, 75
2, 245671, Control_c, 0, 64, 76
2, 245687, Note_on_c, 0, 69, 0
2, 245688, Note_on_c, 0, 72, 0
2, 245718, Note_on_c, 0, 63, 0
2, 245731, Control_c, 0, 64, 75
2, 245747, Control_c, 0, 64, 74
2, 245762, Control_c, 0, 64, 71
2, 245776, Control_c, 0, 64, 67
2, 245792, Control_c, 0, 64, 60
2, 245807, Control_c, 0, 64, 48
2, 245823, Control_c, 0, 64, 41
2, 245838, Control_c, 0, 64, 34
2, 245853, Control_c, 0, 64, 0
2, 245963, Note_on_c, 0, 70, 90
2, 245966, Note_on_c, 0, 62, 82
2, 245969, Note_on_c, 0, 67, 82
2, 245978, Note_on_c, 0, 50, 95
2, 246023, Control_c, 0, 64, 46
2, 246037, Control_c, 0, 64, 62
2, 246052, Control_c, 0, 64, 64
2, 246069, Control_c, 0, 64, 65
2, 246084, Control_c, 0, 64, 67
2, 246100, Control_c, 0, 64, 68
2, 246115, Control_c, 0, 64, 70
2, 246130, Control_c, 0, 64, 70
2, 246160, Control_c, 0, 64, 71
2, 246190, Control_c, 0, 64, 71
2, 246205, Control_c, 0, 64, 72
2, 246221, Control_c, 0, 64, 74
2, 246236, Control_c, 0, 64, 75
2, 246282, Control_c, 0, 64, 72
2, 246298, Control_c, 0, 64, 65
2, 246311, Note_on_c, 0, 69, 86
2, 246313, Control_c, 0, 64, 0
2, 246363, Note_on_c, 0, 67, 0
2, 246366, Control_c, 0, 64, 58
2, 246369, Note_on_c, 0, 70, 0
2, 246382, Control_c, 0, 64, 66
2, 246396, Control_c, 0, 64, 69
2, 246411, Control_c, 0, 64, 72
2, 246427, Control_c, 0, 64, 73
2, 246437, Note_on_c, 0, 62, 0
2, 246451, Note_on_c, 0, 69, 0
2, 246458, Control_c, 0, 64, 74
2, 246473, Control_c, 0, 64, 74
2, 246487, Control_c, 0, 64, 75
2, 246518, Control_c, 0, 64, 75
2, 246532, Control_c, 0, 64, 76
2, 246548, Control_c, 0, 64, 78
2, 246563, Control_c, 0, 64, 78
2, 246569, Note_on_c, 0, 50, 0
2, 246594, Control_c, 0, 64, 76
2, 246608, Control_c, 0, 64, 69
2, 246624, Control_c, 0, 64, 39
2, 246632, Note_on_c, 0, 69, 96
2, 246639, Control_c, 0, 64, 0
2, 246641, Note_on_c, 0, 38, 81
2, 246641, Note_on_c, 0, 60, 78
2, 246642, Note_on_c, 0, 66, 77
2, 246684, Control_c, 0, 64, 63
2, 246700, Control_c, 0, 64, 68
2, 246715, Control_c, 0, 64, 71
2, 246729, Control_c, 0, 64, 73
2, 246745, Control_c, 0, 64, 73
2, 246760, Control_c, 0, 64, 74
2, 246776, Control_c, 0, 64, 74
2, 246791, Control_c, 0, 64, 75
2, 246837, Control_c, 0, 64, 75
2, 246868, Control_c, 0, 64, 76
2, 246925, Note_on_c, 0, 38, 0
2, 246950, Note_on_c, 0, 67, 87
2, 246959, Control_c, 0, 64, 76
2, 246980, Note_on_c, 0, 66, 0
2, 246984, Note_on_c, 0, 69, 0
2, 246990, Control_c, 0, 64, 77
2, 247058, Note_on_c, 0, 67, 0
2, 247059, Note_on_c, 0, 60, 0
2, 247149, Control_c, 0, 64, 77
2, 247225, Control_c, 0, 64, 76
2, 247240, Control_c, 0, 64, 72
2, 247256, Control_c, 0, 64, 59
2, 247259, Note_on_c, 0, 67, 90
2, 247268, Note_on_c, 0, 58, 86
2, 247270, Note_on_c, 0, 43, 75
2, 247271, Control_c, 0, 64, 0
2, 247273, Note_on_c, 0, 62, 78
2, 247377, Control_c, 0, 64, 57
2, 247392, Control_c, 0, 64, 68
2, 247407, Control_c, 0, 64, 73
2, 247418, Note_on_c, 0, 50, 64
2, 247421, Note_on_c, 0, 43, 0
2, 247423, Control_c, 0, 64, 79
2, 247432, Note_on_c, 0, 58, 0
2, 247438, Control_c, 0, 64, 84
2, 247452, Control_c, 0, 64, 85
2, 247468, Control_c, 0, 64, 86
2, 247477, Note_on_c, 0, 62, 0
2, 247499, Control_c, 0, 64, 86
2, 247524, Note_on_c, 0, 50, 0
2, 247528, Note_on_c, 0, 67, 0
2, 247569, Note_on_c, 0, 52, 69
2, 247699, Note_on_c, 0, 52, 0
2, 247705, Note_on_c, 0, 54, 70
2, 247743, Control_c, 0, 64, 86
2, 247788, Control_c, 0, 64, 85
2, 247817, Control_c, 0, 64, 85
2, 247829, Note_on_c, 0, 54, 0
2, 247832, Control_c, 0, 64, 84
2, 247847, Control_c, 0, 64, 82
2, 247855, Note_on_c, 0, 55, 73
2, 247863, Control_c, 0, 64, 81
2, 247885, Control_c, 0, 64, 79
2, 247901, Control_c, 0, 64, 76
2, 247916, Control_c, 0, 64, 72
2, 247931, Control_c, 0, 64, 66
2, 247947, Control_c, 0, 64, 52
2, 247961, Control_c, 0, 64, 0
2, 247991, Note_on_c, 0, 55, 0
2, 247992, Note_on_c, 0, 69, 81
2, 247998, Note_on_c, 0, 54, 65
2, 248128, Note_on_c, 0, 54, 0
2, 248138, Note_on_c, 0, 70, 78
2, 248145, Note_on_c, 0, 55, 74
2, 248151, Note_on_c, 0, 69, 0
2, 248188, Note_on_c, 0, 55, 0
2, 248273, Note_on_c, 0, 72, 76
2, 248280, Note_on_c, 0, 70, 0
2, 248416, Note_on_c, 0, 55, 90
2, 248417, Note_on_c, 0, 74, 75
2, 248463, Note_on_c, 0, 72, 0
2, 248524, Note_on_c, 0, 74, 0
2, 248559, Note_on_c, 0, 72, 77
2, 248570, Note_on_c, 0, 57, 66
2, 248708, Note_on_c, 0, 57, 0
2, 248716, Note_on_c, 0, 74, 76
2, 248717, Note_on_c, 0, 58, 72
2, 248717, Note_on_c, 0, 72, 0
2, 248850, Note_on_c, 0, 75, 78
2, 248853, Note_on_c, 0, 58, 0
2, 248855, Note_on_c, 0, 74, 0
2, 248858, Note_on_c, 0, 60, 68
2, 248891, Note_on_c, 0, 75, 0
2, 248970, Note_on_c, 0, 60, 0
2, 248986, Note_on_c, 0, 69, 94
2, 248997, Note_on_c, 0, 62, 74
2, 249101, Note_on_c, 0, 62, 0
2, 249129, Note_on_c, 0, 61, 59
2, 249132, Note_on_c, 0, 55, 0
2, 249132, Note_on_c, 0, 64, 69
2, 249260, Note_on_c, 0, 61, 0
2, 249260, Note_on_c, 0, 62, 79
2, 249265, Note_on_c, 0, 65, 78
2, 249268, Note_on_c, 0, 53, 71
2, 249278, Note_on_c, 0, 64, 0
2, 249291, Control_c, 0, 64, 51
2, 249301, Note_on_c, 0, 69, 0
2, 249307, Control_c, 0, 64, 62
2, 249322, Control_c, 0, 64, 64
2, 249338, Control_c, 0, 64, 66
2, 249353, Control_c, 0, 64, 67
2, 249368, Control_c, 0, 64, 69
2, 249384, Control_c, 0, 64, 72
2, 249390, Note_on_c, 0, 53, 0
2, 249399, Control_c, 0, 64, 76
2, 249421, Control_c, 0, 64, 79
2, 249422, Note_on_c, 0, 67, 81
2, 249436, Control_c, 0, 64, 80
2, 249461, Note_on_c, 0, 65, 0
2, 249467, Control_c, 0, 64, 79
2, 249482, Control_c, 0, 64, 76
2, 249497, Control_c, 0, 64, 66
2, 249512, Control_c, 0, 64, 32
2, 249527, Control_c, 0, 64, 0
2, 249527, Note_on_c, 0, 62, 0
2, 249543, Control_c, 0, 64, 47
2, 249555, Note_on_c, 0, 53, 86
2, 249558, Control_c, 0, 64, 64
2, 249563, Note_on_c, 0, 69, 80
2, 249573, Control_c, 0, 64, 69
2, 249589, Control_c, 0, 64, 74
2, 249597, Note_on_c, 0, 67, 0
2, 249604, Control_c, 0, 64, 75
2, 249619, Note_on_c, 0, 69, 0
2, 249702, Note_on_c, 0, 70, 79
2, 249705, Note_on_c, 0, 67, 67
2, 249741, Control_c, 0, 64, 75
2, 249745, Note_on_c, 0, 67, 0
2, 249756, Control_c, 0, 64, 74
2, 249770, Control_c, 0, 64, 71
2, 249784, Note_on_c, 0, 70, 0
2, 249786, Control_c, 0, 64, 64
2, 249801, Control_c, 0, 64, 27
2, 249817, Control_c, 0, 64, 0
2, 249843, Note_on_c, 0, 69, 84
2, 249846, Note_on_c, 0, 72, 84
2, 249849, Note_on_c, 0, 57, 71
2, 249892, Control_c, 0, 64, 50
2, 249907, Control_c, 0, 64, 57
2, 249922, Control_c, 0, 64, 57
2, 249923, Note_on_c, 0, 72, 0
2, 249938, Control_c, 0, 64, 56
2, 249968, Control_c, 0, 64, 54
2, 249980, Note_on_c, 0, 74, 74
2, 249983, Control_c, 0, 64, 50
2, 249994, Note_on_c, 0, 59, 70
2, 249998, Control_c, 0, 64, 36
2, 250007, Note_on_c, 0, 57, 0
2, 250013, Control_c, 0, 64, 0
2, 250038, Note_on_c, 0, 74, 0
2, 250118, Note_on_c, 0, 59, 0
2, 250123, Note_on_c, 0, 75, 81
2, 250130, Note_on_c, 0, 60, 71
2, 250169, Note_on_c, 0, 69, 0
2, 250258, Note_on_c, 0, 60, 0
2, 250271, Note_on_c, 0, 74, 68
2, 250274, Note_on_c, 0, 59, 64
2, 250288, Note_on_c, 0, 75, 0
2, 250338, Note_on_c, 0, 74, 0
2, 250403, Control_c, 0, 64, 59
2, 250406, Note_on_c, 0, 60, 76
2, 250410, Note_on_c, 0, 59, 0
2, 250413, Note_on_c, 0, 68, 76
2, 250413, Note_on_c, 0, 75, 78
2, 250418, Control_c, 0, 64, 63
2, 250433, Control_c, 0, 64, 64
2, 250448, Control_c, 0, 64, 65
2, 250463, Control_c, 0, 64, 66
2, 250475, Note_on_c, 0, 75, 0
2, 250478, Control_c, 0, 64, 68
2, 250481, Note_on_c, 0, 68, 0
2, 250493, Control_c, 0, 64, 69
2, 250509, Control_c, 0, 64, 70
2, 250536, Note_on_c, 0, 53, 0
2, 250540, Control_c, 0, 64, 71
2, 250541, Note_on_c, 0, 60, 0
2, 250552, Note_on_c, 0, 77, 82
2, 250585, Control_c, 0, 64, 70
2, 250594, Note_on_c, 0, 77, 0
2, 250600, Control_c, 0, 64, 67
2, 250616, Control_c, 0, 64, 63
2, 250631, Control_c, 0, 64, 52
2, 250646, Control_c, 0, 64, 29
2, 250662, Control_c, 0, 64, 0
2, 250692, Note_on_c, 0, 71, 72
2, 250701, Note_on_c, 0, 62, 65
2, 250702, Note_on_c, 0, 67, 67
2, 250736, Note_on_c, 0, 62, 0
2, 250741, Note_on_c, 0, 67, 0
2, 250834, Note_on_c, 0, 71, 0
2, 250841, Note_on_c, 0, 67, 75
2, 250851, Note_on_c, 0, 47, 54
2, 250977, Note_on_c, 0, 47, 0
2, 250989, Note_on_c, 0, 69, 73
2, 250995, Note_on_c, 0, 67, 0
2, 251013, Note_on_c, 0, 48, 46
2, 251096, Note_on_c, 0, 48, 0
2, 251132, Note_on_c, 0, 50, 47
2, 251135, Note_on_c, 0, 69, 0
2, 251135, Note_on_c, 0, 71, 70
2, 251228, Note_on_c, 0, 50, 0
2, 251261, Note_on_c, 0, 51, 53
2, 251277, Note_on_c, 0, 72, 79
2, 251288, Note_on_c, 0, 71, 0
2, 251381, Note_on_c, 0, 51, 0
2, 251405, Note_on_c, 0, 50, 49
2, 251416, Note_on_c, 0, 71, 71
2, 251446, Note_on_c, 0, 72, 0
2, 251542, Note_on_c, 0, 50, 0
2, 251556, Note_on_c, 0, 71, 0
2, 251560, Note_on_c, 0, 72, 81
2, 251565, Control_c, 0, 64, 40
2, 251573, Note_on_c, 0, 51, 26
2, 251581, Control_c, 0, 64, 54
2, 251595, Control_c, 0, 64, 59
2, 251610, Control_c, 0, 64, 61
2, 251626, Control_c, 0, 64, 63
2, 251634, Note_on_c, 0, 51, 0
2, 251640, Control_c, 0, 64, 64
2, 251656, Control_c, 0, 64, 66
2, 251671, Control_c, 0, 64, 68
2, 251686, Control_c, 0, 64, 69
2, 251693, Note_on_c, 0, 70, 79
2, 251702, Control_c, 0, 64, 70
2, 251716, Note_on_c, 0, 62, 61
2, 251721, Note_on_c, 0, 72, 0
2, 251724, Control_c, 0, 64, 71
2, 251740, Control_c, 0, 64, 71
2, 251755, Control_c, 0, 64, 72
2, 251770, Control_c, 0, 64, 74
2, 251776, Note_on_c, 0, 62, 0
2, 251777, Note_on_c, 0, 70, 0
2, 251786, Control_c, 0, 64, 75
2, 251802, Control_c, 0, 64, 76
2, 251832, Control_c, 0, 64, 75
2, 251842, Note_on_c, 0, 72, 81
2, 251847, Control_c, 0, 64, 72
2, 251849, Note_on_c, 0, 69, 86
2, 251850, Note_on_c, 0, 51, 59
2, 251850, Note_on_c, 0, 60, 63
2, 251863, Control_c, 0, 64, 66
2, 251877, Control_c, 0, 64, 39
2, 251892, Control_c, 0, 64, 0
2, 251923, Control_c, 0, 64, 38
2, 251939, Control_c, 0, 64, 61
2, 251953, Control_c, 0, 64, 65
2, 251955, Note_on_c, 0, 60, 0
2, 251968, Control_c, 0, 64, 67
2, 251984, Control_c, 0, 64, 69
2, 251986, Note_on_c, 0, 67, 86
2, 251995, Note_on_c, 0, 58, 66
2, 251999, Control_c, 0, 64, 71
2, 251999, Note_on_c, 0, 69, 0
2, 252015, Control_c, 0, 64, 73
2, 252020, Note_on_c, 0, 72, 0
2, 252029, Control_c, 0, 64, 75
2, 252044, Control_c, 0, 64, 78
2, 252060, Control_c, 0, 64, 79
2, 252082, Note_on_c, 0, 67, 0
2, 252105, Control_c, 0, 64, 78
2, 252114, Note_on_c, 0, 58, 0
2, 252120, Control_c, 0, 64, 74
2, 252126, Note_on_c, 0, 72, 88
2, 252130, Note_on_c, 0, 69, 83
2, 252136, Control_c, 0, 64, 64
2, 252136, Note_on_c, 0, 60, 71
2, 252151, Control_c, 0, 64, 0
2, 252181, Control_c, 0, 64, 46
2, 252196, Control_c, 0, 64, 62
2, 252211, Control_c, 0, 64, 66
2, 252227, Control_c, 0, 64, 69
2, 252230, Note_on_c, 0, 72, 0
2, 252242, Control_c, 0, 64, 71
2, 252242, Note_on_c, 0, 60, 0
2, 252258, Control_c, 0, 64, 71
2, 252267, Note_on_c, 0, 67, 88
2, 252273, Control_c, 0, 64, 72
2, 252277, Note_on_c, 0, 58, 70
2, 252281, Note_on_c, 0, 69, 0
2, 252303, Control_c, 0, 64, 72
2, 252316, Note_on_c, 0, 67, 0
2, 252349, Control_c, 0, 64, 73
2, 252409, Control_c, 0, 64, 72
2, 252425, Control_c, 0, 64, 71
2, 252439, Control_c, 0, 64, 67
2, 252444, Note_on_c, 0, 66, 93
2, 252445, Note_on_c, 0, 72, 94
2, 252455, Control_c, 0, 64, 54
2, 252457, Note_on_c, 0, 57, 77
2, 252467, Note_on_c, 0, 58, 0
2, 252470, Control_c, 0, 64, 0
2, 252661, Control_c, 0, 64, 41
2, 252676, Control_c, 0, 64, 55
2, 252691, Control_c, 0, 64, 59
2, 252707, Control_c, 0, 64, 61
2, 252721, Control_c, 0, 64, 63
2, 252737, Control_c, 0, 64, 66
2, 252752, Control_c, 0, 64, 68
2, 252767, Control_c, 0, 64, 70
2, 252783, Control_c, 0, 64, 71
2, 252797, Control_c, 0, 64, 72
2, 252812, Control_c, 0, 64, 72
2, 252828, Control_c, 0, 64, 73
2, 252843, Control_c, 0, 64, 73
2, 252859, Control_c, 0, 64, 74
2, 252919, Control_c, 0, 64, 74
2, 253006, Note_on_c, 0, 66, 0
2, 253052, Note_on_c, 0, 72, 0
2, 253112, Note_on_c, 0, 51, 0
2, 253149, Note_on_c, 0, 57, 0
2, 253239, Control_c, 0, 64, 73
2, 253261, Control_c, 0, 64, 71
2, 253276, Control_c, 0, 64, 67
2, 253291, Control_c, 0, 64, 55
2, 253307, Control_c, 0, 64, 0
2, 253532, Note_on_c, 0, 78, 97
2, 253539, Note_on_c, 0, 69, 94
2, 253547, Note_on_c, 0, 60, 82
2, 253548, Note_on_c, 0, 51, 76
2, 253566, Control_c, 0, 64, 56
2, 253582, Control_c, 0, 64, 64
2, 253597, Control_c, 0, 64, 67
2, 253600, Note_on_c, 0, 77, 67
2, 253611, Control_c, 0, 64, 69
2, 253627, Control_c, 0, 64, 71
2, 253642, Control_c, 0, 64, 73
2, 253658, Control_c, 0, 64, 75
2, 253670, Note_on_c, 0, 78, 0
2, 253673, Control_c, 0, 64, 76
2, 253687, Control_c, 0, 64, 77
2, 253688, Note_on_c, 0, 77, 0
2, 253709, Note_on_c, 0, 51, 0
2, 253719, Note_on_c, 0, 69, 0
2, 253733, Control_c, 0, 64, 77
2, 253735, Note_on_c, 0, 60, 0
2, 253764, Control_c, 0, 64, 78
2, 253779, Control_c, 0, 64, 78
2, 253946, Control_c, 0, 64, 77
2, 253961, Control_c, 0, 64, 72
2, 253972, Note_on_c, 0, 79, 95
2, 253976, Control_c, 0, 64, 60
2, 253976, Note_on_c, 0, 70, 100
2, 253981, Note_on_c, 0, 62, 92
2, 253987, Note_on_c, 0, 50, 82
2, 253991, Control_c, 0, 64, 0
2, 254181, Control_c, 0, 64, 43
2, 254196, Control_c, 0, 64, 60
2, 254211, Control_c, 0, 64, 66
2, 254227, Control_c, 0, 64, 70
2, 254242, Control_c, 0, 64, 73
2, 254259, Control_c, 0, 64, 76
2, 254274, Control_c, 0, 64, 77
2, 254288, Control_c, 0, 64, 78
2, 254304, Control_c, 0, 64, 79
2, 254319, Control_c, 0, 64, 79
2, 254333, Control_c, 0, 64, 80
2, 254349, Control_c, 0, 64, 80
2, 254349, Note_on_c, 0, 70, 0
2, 254395, Control_c, 0, 64, 81
2, 254510, Note_on_c, 0, 62, 0
2, 254605, Note_on_c, 0, 50, 0
2, 254664, Note_on_c, 0, 79, 0
2, 254858, Control_c, 0, 64, 80
2, 254888, Control_c, 0, 64, 79
2, 254903, Control_c, 0, 64, 79
2, 254918, Control_c, 0, 64, 78
2, 254933, Control_c, 0, 64, 77
2, 254948, Control_c, 0, 64, 75
2, 254963, Control_c, 0, 64, 71
2, 254979, Control_c, 0, 64, 64
2, 254994, Control_c, 0, 64, 18
2, 255009, Control_c, 0, 64, 0
2, 255061, Note_on_c, 0, 82, 94
2, 255230, Note_on_c, 0, 49, 92
2, 255234, Note_on_c, 0, 81, 95
2, 255253, Control_c, 0, 64, 65
2, 255269, Control_c, 0, 64, 83
2, 255270, Note_on_c, 0, 82, 0
2, 255284, Control_c, 0, 64, 90
2, 255300, Control_c, 0, 64, 90
2, 255309, Note_on_c, 0, 49, 0
2, 255391, Note_on_c, 0, 81, 0
2, 255404, Note_on_c, 0, 79, 83
2, 255450, Control_c, 0, 64, 91
2, 255466, Control_c, 0, 64, 91
2, 255481, Control_c, 0, 64, 92
2, 255490, Note_on_c, 0, 79, 0
2, 255497, Control_c, 0, 64, 92
2, 255542, Control_c, 0, 64, 89
2, 255550, Note_on_c, 0, 50, 95
2, 255562, Note_on_c, 0, 78, 96
2, 255565, Control_c, 0, 64, 80
2, 255581, Control_c, 0, 64, 60
2, 255595, Control_c, 0, 64, 0
2, 255626, Control_c, 0, 64, 51
2, 255641, Control_c, 0, 64, 68
2, 255646, Note_on_c, 0, 77, 6
2, 255657, Control_c, 0, 64, 75
2, 255671, Control_c, 0, 64, 80
2, 255698, Note_on_c, 0, 77, 0
2, 255709, Note_on_c, 0, 78, 0
2, 255722, Note_on_c, 0, 76, 70
2, 255731, Note_on_c, 0, 50, 0
2, 255737, Note_on_c, 0, 57, 70
2, 255823, Control_c, 0, 64, 79
2, 255852, Note_on_c, 0, 57, 0
2, 255871, Note_on_c, 0, 74, 79
2, 255872, Note_on_c, 0, 58, 63
2, 255883, Control_c, 0, 64, 79
2, 255889, Note_on_c, 0, 76, 0
2, 255946, Control_c, 0, 64, 78
2, 255984, Note_on_c, 0, 58, 0
2, 255987, Note_on_c, 0, 74, 0
2, 256009, Note_on_c, 0, 72, 78
2, 256015, Note_on_c, 0, 60, 72
2, 256021, Control_c, 0, 64, 78
2, 256036, Control_c, 0, 64, 77
2, 256051, Control_c, 0, 64, 76
2, 256067, Control_c, 0, 64, 73
2, 256069, Note_on_c, 0, 60, 0
2, 256082, Control_c, 0, 64, 67
2, 256098, Control_c, 0, 64, 55
2, 256113, Control_c, 0, 64, 0
2, 256149, Note_on_c, 0, 70, 80
2, 256153, Note_on_c, 0, 62, 79
2, 256163, Note_on_c, 0, 72, 0
2, 256189, Note_on_c, 0, 62, 0
2, 256290, Note_on_c, 0, 46, 80
2, 256293, Note_on_c, 0, 69, 84
2, 256332, Note_on_c, 0, 70, 0
2, 256388, Note_on_c, 0, 46, 0
2, 256418, Note_on_c, 0, 69, 0
2, 256431, Note_on_c, 0, 48, 71
2, 256444, Note_on_c, 0, 67, 85
2, 256510, Note_on_c, 0, 48, 0
2, 256522, Note_on_c, 0, 67, 0
2, 256565, Note_on_c, 0, 50, 71
2, 256578, Note_on_c, 0, 66, 79
2, 256599, Note_on_c, 0, 50, 0
2, 256626, Note_on_c, 0, 66, 0
2, 256637, Control_c, 0, 64, 17
2, 256652, Control_c, 0, 64, 13
2, 256668, Control_c, 0, 64, 0
2, 256708, Note_on_c, 0, 67, 94
2, 256715, Note_on_c, 0, 51, 85
2, 256856, Note_on_c, 0, 55, 62
2, 256866, Control_c, 0, 64, 44
2, 256870, Note_on_c, 0, 59, 64
2, 256881, Control_c, 0, 64, 54
2, 256897, Control_c, 0, 64, 58
2, 256912, Control_c, 0, 64, 62
2, 256927, Control_c, 0, 64, 64
2, 256942, Control_c, 0, 64, 66
2, 256957, Control_c, 0, 64, 68
2, 256972, Control_c, 0, 64, 69
2, 256980, Note_on_c, 0, 55, 0
2, 256988, Control_c, 0, 64, 70
2, 256991, Note_on_c, 0, 51, 0
2, 256999, Note_on_c, 0, 59, 0
2, 257002, Control_c, 0, 64, 71
2, 257002, Note_on_c, 0, 57, 64
2, 257004, Note_on_c, 0, 60, 64
2, 257018, Control_c, 0, 64, 72
2, 257031, Control_c, 0, 64, 73
2, 257046, Control_c, 0, 64, 74
2, 257062, Control_c, 0, 64, 74
2, 257073, Note_on_c, 0, 57, 0
2, 257147, Note_on_c, 0, 60, 0
2, 257150, Note_on_c, 0, 62, 73
2, 257164, Note_on_c, 0, 59, 54
2, 257210, Note_on_c, 0, 62, 0
2, 257236, Control_c, 0, 64, 73
2, 257251, Control_c, 0, 64, 70
2, 257260, Note_on_c, 0, 59, 0
2, 257267, Control_c, 0, 64, 64
2, 257282, Control_c, 0, 64, 36
2, 257284, Note_on_c, 0, 48, 99
2, 257296, Control_c, 0, 64, 0
2, 257296, Note_on_c, 0, 63, 75
2, 257303, Note_on_c, 0, 60, 67
2, 257413, Note_on_c, 0, 63, 0
2, 257429, Note_on_c, 0, 60, 0
2, 257432, Note_on_c, 0, 62, 69
2, 257437, Note_on_c, 0, 59, 55
2, 257483, Note_on_c, 0, 62, 0
2, 257573, Note_on_c, 0, 59, 0
2, 257601, Note_on_c, 0, 63, 61
2, 257603, Note_on_c, 0, 60, 50
2, 257697, Note_on_c, 0, 60, 0
2, 257701, Note_on_c, 0, 63, 0
2, 257871, Note_on_c, 0, 48, 0
2, 257917, Note_on_c, 0, 63, 72
2, 257923, Note_on_c, 0, 60, 64
2, 258035, Note_on_c, 0, 45, 79
2, 258087, Note_on_c, 0, 45, 0
2, 258175, Note_on_c, 0, 47, 84
2, 258221, Note_on_c, 0, 47, 0
2, 258306, Note_on_c, 0, 48, 85
2, 258349, Note_on_c, 0, 48, 0
2, 258356, Note_on_c, 0, 60, 0
2, 258453, Note_on_c, 0, 50, 90
2, 258504, Control_c, 0, 64, 38
2, 258520, Control_c, 0, 64, 57
2, 258535, Control_c, 0, 64, 62
2, 258550, Control_c, 0, 64, 64
2, 258565, Control_c, 0, 64, 65
2, 258580, Control_c, 0, 64, 65
2, 258596, Control_c, 0, 64, 66
2, 258610, Control_c, 0, 64, 66
2, 258634, Control_c, 0, 64, 67
2, 258641, Note_on_c, 0, 60, 65
2, 258643, Note_on_c, 0, 57, 55
2, 258643, Note_on_c, 0, 63, 0
2, 258649, Control_c, 0, 64, 68
2, 258664, Control_c, 0, 64, 69
2, 258680, Control_c, 0, 64, 71
2, 258694, Control_c, 0, 64, 71
2, 258710, Control_c, 0, 64, 72
2, 258725, Control_c, 0, 64, 73
2, 258740, Control_c, 0, 64, 73
2, 258756, Control_c, 0, 64, 74
2, 258762, Note_on_c, 0, 57, 0
2, 258780, Note_on_c, 0, 60, 0
2, 258781, Note_on_c, 0, 59, 61
2, 258786, Note_on_c, 0, 62, 70
2, 258815, Control_c, 0, 64, 74
2, 258825, Note_on_c, 0, 59, 0
2, 258848, Note_on_c, 0, 50, 0
2, 258927, Note_on_c, 0, 62, 0
2, 258933, Note_on_c, 0, 63, 62
2, 258934, Note_on_c, 0, 60, 57
2, 258967, Control_c, 0, 64, 75
2, 258985, Note_on_c, 0, 63, 0
2, 259013, Control_c, 0, 64, 74
2, 259029, Control_c, 0, 64, 73
2, 259044, Control_c, 0, 64, 69
2, 259053, Note_on_c, 0, 47, 91
2, 259058, Control_c, 0, 64, 62
2, 259061, Note_on_c, 0, 60, 0
2, 259066, Note_on_c, 0, 62, 72
2, 259066, Note_on_c, 0, 65, 73
2, 259074, Control_c, 0, 64, 21
2, 259089, Control_c, 0, 64, 0
2, 259157, Note_on_c, 0, 65, 0
2, 259206, Note_on_c, 0, 62, 0
2, 259208, Note_on_c, 0, 60, 57
2, 259213, Note_on_c, 0, 63, 67
2, 259279, Note_on_c, 0, 63, 0
2, 259315, Note_on_c, 0, 60, 0
2, 259352, Note_on_c, 0, 62, 59
2, 259359, Note_on_c, 0, 65, 63
2, 259442, Note_on_c, 0, 65, 0
2, 259447, Note_on_c, 0, 62, 0
2, 259658, Note_on_c, 0, 47, 0
2, 259681, Note_on_c, 0, 65, 73
2, 259683, Note_on_c, 0, 62, 70
2, 259808, Note_on_c, 0, 43, 82
2, 259862, Note_on_c, 0, 43, 0
2, 259952, Note_on_c, 0, 45, 83
2, 259996, Note_on_c, 0, 45, 0
2, 260091, Note_on_c, 0, 47, 89
2, 260139, Note_on_c, 0, 47, 0
2, 260227, Note_on_c, 0, 62, 0
2, 260256, Note_on_c, 0, 48, 100
2, 260266, Note_on_c, 0, 67, 0
2, 260273, Note_on_c, 0, 65, 0
2, 260293, Control_c, 0, 64, 54
2, 260309, Control_c, 0, 64, 64
2, 260324, Control_c, 0, 64, 68
2, 260338, Control_c, 0, 64, 72
2, 260354, Control_c, 0, 64, 76
2, 260369, Control_c, 0, 64, 78
2, 260385, Control_c, 0, 64, 79
2, 260400, Control_c, 0, 64, 79
2, 260430, Control_c, 0, 64, 80
2, 260445, Control_c, 0, 64, 81
2, 260460, Control_c, 0, 64, 81
2, 260470, Note_on_c, 0, 48, 0
2, 260506, Control_c, 0, 64, 81
2, 260521, Control_c, 0, 64, 79
2, 260536, Control_c, 0, 64, 73
2, 260552, Control_c, 0, 64, 63
2, 260557, Note_on_c, 0, 68, 83
2, 260559, Note_on_c, 0, 65, 78
2, 260567, Control_c, 0, 64, 0
2, 260568, Note_on_c, 0, 48, 91
2, 260642, Control_c, 0, 64, 42
2, 260657, Control_c, 0, 64, 62
2, 260669, Note_on_c, 0, 65, 0
2, 260673, Control_c, 0, 64, 65
2, 260688, Control_c, 0, 64, 67
2, 260693, Note_on_c, 0, 68, 0
2, 260703, Control_c, 0, 64, 70
2, 260710, Note_on_c, 0, 74, 85
2, 260718, Control_c, 0, 64, 74
2, 260733, Control_c, 0, 64, 79
2, 260744, Note_on_c, 0, 48, 0
2, 260749, Control_c, 0, 64, 81
2, 260764, Control_c, 0, 64, 82
2, 260795, Control_c, 0, 64, 82
2, 260810, Control_c, 0, 64, 79
2, 260826, Control_c, 0, 64, 71
2, 260841, Control_c, 0, 64, 47
2, 260849, Note_on_c, 0, 48, 93
2, 260856, Control_c, 0, 64, 0
2, 260860, Note_on_c, 0, 67, 75
2, 260863, Note_on_c, 0, 63, 80
2, 260889, Note_on_c, 0, 74, 0
2, 260928, Note_on_c, 0, 67, 0
2, 260938, Control_c, 0, 64, 60
2, 260954, Control_c, 0, 64, 65
2, 260969, Control_c, 0, 64, 67
2, 260975, Note_on_c, 0, 63, 0
2, 260985, Control_c, 0, 64, 68
2, 261000, Control_c, 0, 64, 71
2, 261014, Control_c, 0, 64, 75
2, 261014, Note_on_c, 0, 72, 84
2, 261030, Control_c, 0, 64, 78
2, 261045, Control_c, 0, 64, 80
2, 261059, Note_on_c, 0, 48, 0
2, 261060, Control_c, 0, 64, 81
2, 261107, Control_c, 0, 64, 81
2, 261122, Control_c, 0, 64, 78
2, 261136, Control_c, 0, 64, 70
2, 261139, Note_on_c, 0, 72, 0
2, 261149, Note_on_c, 0, 48, 96
2, 261152, Control_c, 0, 64, 32
2, 261155, Note_on_c, 0, 62, 77
2, 261155, Note_on_c, 0, 65, 75
2, 261167, Control_c, 0, 64, 0
2, 261243, Control_c, 0, 64, 57
2, 261258, Control_c, 0, 64, 65
2, 261271, Note_on_c, 0, 62, 0
2, 261273, Control_c, 0, 64, 66
2, 261288, Control_c, 0, 64, 68
2, 261304, Control_c, 0, 64, 70
2, 261305, Note_on_c, 0, 70, 85
2, 261319, Control_c, 0, 64, 74
2, 261324, Note_on_c, 0, 65, 0
2, 261334, Control_c, 0, 64, 78
2, 261343, Note_on_c, 0, 48, 0
2, 261349, Control_c, 0, 64, 81
2, 261364, Control_c, 0, 64, 83
2, 261379, Control_c, 0, 64, 84
2, 261410, Control_c, 0, 64, 83
2, 261425, Control_c, 0, 64, 80
2, 261440, Control_c, 0, 64, 72
2, 261448, Note_on_c, 0, 48, 95
2, 261451, Note_on_c, 0, 70, 0
2, 261454, Note_on_c, 0, 60, 74
2, 261455, Control_c, 0, 64, 35
2, 261458, Note_on_c, 0, 63, 78
2, 261470, Control_c, 0, 64, 0
2, 261547, Control_c, 0, 64, 59
2, 261559, Note_on_c, 0, 60, 0
2, 261562, Control_c, 0, 64, 65
2, 261577, Control_c, 0, 64, 66
2, 261593, Control_c, 0, 64, 68
2, 261608, Control_c, 0, 64, 70
2, 261608, Note_on_c, 0, 69, 82
2, 261624, Control_c, 0, 64, 74
2, 261625, Note_on_c, 0, 63, 0
2, 261638, Control_c, 0, 64, 76
2, 261651, Note_on_c, 0, 48, 0
2, 261653, Control_c, 0, 64, 79
2, 261669, Control_c, 0, 64, 80
2, 261706, Control_c, 0, 64, 80
2, 261721, Control_c, 0, 64, 75
2, 261736, Control_c, 0, 64, 63
2, 261752, Control_c, 0, 64, 0
2, 261754, Note_on_c, 0, 48, 93
2, 261763, Note_on_c, 0, 63, 76
2, 261772, Note_on_c, 0, 58, 68
2, 261778, Note_on_c, 0, 69, 0
2, 261828, Control_c, 0, 64, 57
2, 261843, Control_c, 0, 64, 66
2, 261858, Control_c, 0, 64, 70
2, 261874, Control_c, 0, 64, 72
2, 261883, Note_on_c, 0, 58, 0
2, 261889, Control_c, 0, 64, 73
2, 261904, Control_c, 0, 64, 74
2, 261908, Note_on_c, 0, 48, 0
2, 261913, Note_on_c, 0, 67, 78
2, 261919, Control_c, 0, 64, 75
2, 261919, Note_on_c, 0, 63, 0
2, 261934, Control_c, 0, 64, 75
2, 261950, Control_c, 0, 64, 76
2, 261965, Control_c, 0, 64, 77
2, 262010, Control_c, 0, 64, 76
2, 262026, Control_c, 0, 64, 72
2, 262041, Control_c, 0, 64, 63
2, 262055, Control_c, 0, 64, 0
2, 262078, Note_on_c, 0, 48, 94
2, 262084, Note_on_c, 0, 66, 80
2, 262090, Note_on_c, 0, 57, 71
2, 262091, Note_on_c, 0, 62, 70
2, 262116, Note_on_c, 0, 67, 0
2, 262140, Note_on_c, 0, 57, 0
2, 262162, Control_c, 0, 64, 55
2, 262177, Control_c, 0, 64, 64
2, 262192, Control_c, 0, 64, 66
2, 262207, Control_c, 0, 64, 67
2, 262220, Note_on_c, 0, 62, 0
2, 262223, Control_c, 0, 64, 68
2, 262238, Control_c, 0, 64, 70
2, 262252, Control_c, 0, 64, 72
2, 262268, Control_c, 0, 64, 72
2, 262271, Note_on_c, 0, 66, 0
2, 262375, Control_c, 0, 64, 72
2, 262390, Control_c, 0, 64, 71
2, 262405, Control_c, 0, 64, 69
2, 262420, Control_c, 0, 64, 65
2, 262433, Note_on_c, 0, 46, 80
2, 262436, Control_c, 0, 64, 57
2, 262442, Note_on_c, 0, 72, 92
2, 262451, Control_c, 0, 64, 38
2, 262471, Note_on_c, 0, 48, 0
2, 262475, Control_c, 0, 64, 0
2, 262647, Note_on_c, 0, 45, 69
2, 262647, Note_on_c, 0, 46, 0
2, 262648, Note_on_c, 0, 74, 80
2, 262661, Note_on_c, 0, 72, 0
2, 262730, Note_on_c, 0, 45, 0
2, 262730, Note_on_c, 0, 75, 82
2, 262733, Note_on_c, 0, 74, 0
2, 262771, Note_on_c, 0, 75, 0
2, 262811, Note_on_c, 0, 74, 96
2, 262819, Note_on_c, 0, 46, 83
2, 262915, Control_c, 0, 64, 10
2, 262930, Control_c, 0, 64, 68
2, 262946, Control_c, 0, 64, 72
2, 262960, Control_c, 0, 64, 75
2, 262964, Note_on_c, 0, 74, 0
2, 262971, Note_on_c, 0, 46, 0
2, 262975, Control_c, 0, 64, 76
2, 262991, Control_c, 0, 64, 77
2, 263006, Control_c, 0, 64, 80
2, 263021, Control_c, 0, 64, 81
2, 263036, Control_c, 0, 64, 82
2, 263158, Control_c, 0, 64, 81
2, 263173, Control_c, 0, 64, 79
2, 263189, Control_c, 0, 64, 75
2, 263204, Control_c, 0, 64, 68
2, 263219, Control_c, 0, 64, 0
2, 263289, Note_on_c, 0, 67, 86
2, 263290, Note_on_c, 0, 48, 94
2, 263294, Note_on_c, 0, 58, 96
2, 263295, Note_on_c, 0, 63, 81
2, 263441, Control_c, 0, 64, 43
2, 263456, Control_c, 0, 64, 62
2, 263471, Control_c, 0, 64, 64
2, 263486, Control_c, 0, 64, 66
2, 263501, Control_c, 0, 64, 67
2, 263508, Note_on_c, 0, 63, 0
2, 263516, Note_on_c, 0, 48, 0
2, 263517, Control_c, 0, 64, 69
2, 263531, Control_c, 0, 64, 70
2, 263547, Control_c, 0, 64, 71
2, 263562, Control_c, 0, 64, 71
2, 263577, Control_c, 0, 64, 72
2, 263593, Control_c, 0, 64, 73
2, 263601, Note_on_c, 0, 58, 0
2, 263607, Control_c, 0, 64, 73
2, 263623, Control_c, 0, 64, 74
2, 263638, Control_c, 0, 64, 75
2, 263653, Control_c, 0, 64, 75
2, 263684, Control_c, 0, 64, 76
2, 263729, Control_c, 0, 64, 76
2, 263745, Control_c, 0, 64, 77
2, 263760, Control_c, 0, 64, 78
2, 263775, Control_c, 0, 64, 79
2, 263805, Control_c, 0, 64, 78
2, 263820, Control_c, 0, 64, 74
2, 263835, Note_on_c, 0, 62, 89
2, 263836, Control_c, 0, 64, 65
2, 263836, Note_on_c, 0, 57, 83
2, 263849, Note_on_c, 0, 50, 96
2, 263851, Control_c, 0, 64, 0
2, 263957, Control_c, 0, 64, 41
2, 263972, Control_c, 0, 64, 57
2, 263988, Control_c, 0, 64, 61
2, 264010, Control_c, 0, 64, 63
2, 264026, Control_c, 0, 64, 65
2, 264041, Control_c, 0, 64, 66
2, 264056, Control_c, 0, 64, 69
2, 264072, Control_c, 0, 64, 71
2, 264087, Control_c, 0, 64, 73
2, 264103, Control_c, 0, 64, 75
2, 264118, Control_c, 0, 64, 76
2, 264149, Control_c, 0, 64, 76
2, 264167, Note_on_c, 0, 58, 89
2, 264191, Note_on_c, 0, 57, 0
2, 264194, Control_c, 0, 64, 77
2, 264211, Note_on_c, 0, 62, 0
2, 264305, Note_on_c, 0, 50, 0
2, 264352, Note_on_c, 0, 58, 0
2, 264451, Control_c, 0, 64, 77
2, 264527, Control_c, 0, 64, 76
2, 264543, Control_c, 0, 64, 71
2, 264551, Note_on_c, 0, 66, 95
2, 264558, Control_c, 0, 64, 59
2, 264558, Note_on_c, 0, 60, 85
2, 264568, Note_on_c, 0, 38, 86
2, 264573, Control_c, 0, 64, 0
2, 264585, Note_on_c, 0, 67, 0
2, 264725, Control_c, 0, 64, 21
2, 264740, Control_c, 0, 64, 48
2, 264756, Control_c, 0, 64, 57
2, 264778, Control_c, 0, 64, 62
2, 264794, Control_c, 0, 64, 65
2, 264809, Control_c, 0, 64, 67
2, 264824, Control_c, 0, 64, 69
2, 264839, Control_c, 0, 64, 72
2, 264854, Control_c, 0, 64, 74
2, 264870, Control_c, 0, 64, 76
2, 264885, Control_c, 0, 64, 77
2, 264900, Control_c, 0, 64, 78
2, 264916, Control_c, 0, 64, 78
2, 264944, Note_on_c, 0, 38, 0
2, 264947, Control_c, 0, 64, 79
2, 264962, Control_c, 0, 64, 79
2, 265434, Note_on_c, 0, 66, 0
2, 265476, Control_c, 0, 64, 78
2, 265489, Note_on_c, 0, 67, 92
2, 265490, Control_c, 0, 64, 75
2, 265494, Note_on_c, 0, 43, 94
2, 265496, Note_on_c, 0, 62, 83
2, 265505, Control_c, 0, 64, 67
2, 265519, Control_c, 0, 64, 44
2, 265539, Control_c, 0, 64, 0
2, 266673, Note_on_c, 0, 59, 70
2, 266690, Note_on_c, 0, 60, 0
2, 267387, Control_c, 0, 64, 10
2, 267402, Control_c, 0, 64, 15
2, 267417, Control_c, 0, 64, 18
2, 267433, Control_c, 0, 64, 20
2, 267554, Control_c, 0, 64, 23
2, 267569, Control_c, 0, 64, 25
2, 267584, Control_c, 0, 64, 26
2, 267660, Control_c, 0, 64, 27
2, 267721, Control_c, 0, 64, 28
2, 267752, Control_c, 0, 64, 29
2, 267767, Control_c, 0, 64, 29
2, 267781, Control_c, 0, 64, 31
2, 267797, Control_c, 0, 64, 32
2, 267836, Control_c, 0, 64, 32
2, 267865, Control_c, 0, 64, 33
2, 267881, Control_c, 0, 64, 34
2, 267896, Control_c, 0, 64, 34
2, 267972, Control_c, 0, 64, 35
2, 268017, Control_c, 0, 64, 36
2, 268033, Control_c, 0, 64, 37
2, 268062, Control_c, 0, 64, 37
2, 268093, Control_c, 0, 64, 38
2, 268170, Control_c, 0, 64, 38
2, 268201, Control_c, 0, 64, 39
2, 268261, Control_c, 0, 64, 39
2, 268277, Control_c, 0, 64, 40
2, 268353, Control_c, 0, 64, 40
2, 268367, Control_c, 0, 64, 39
2, 268538, Note_on_c, 0, 62, 0
2, 268549, Note_on_c, 0, 43, 0
2, 268562, Note_on_c, 0, 59, 0
2, 268581, Note_on_c, 0, 67, 0
2, 268634, Control_c, 0, 64, 39
2, 269090, Control_c, 0, 64, 39
2, 269091, End_track
0, 0, End_of_file
