0, 0, Header, 1, 2, 384
1, 0, Start_track
1, 0, Tempo, 500000
1, 0, Time_signature, 4, 2, 24, 8
1, 1, End_track
2, 0, Start_track
2, 0, Program_c, 0, 0
2, 759, Note_on_c, 0, 43, 96
2, 1435, Note_on_c, 0, 67, 92
2, 1527, Note_on_c, 0, 62, 90
2, 1537, Note_on_c, 0, 67, 0
2, 2121, Note_on_c, 0, 65, 85
2, 2142, Note_on_c, 0, 62, 0
2, 2215, Note_on_c, 0, 63, 92
2, 2236, Note_on_c, 0, 65, 0
2, 2860, Note_on_c, 0, 58, 73
2, 2940, Note_on_c, 0, 58, 0
2, 2952, Note_on_c, 0, 57, 67
2, 3561, Note_on_c, 0, 60, 68
2, 3579, Note_on_c, 0, 57, 0
2, 3644, Note_on_c, 0, 54, 67
2, 3693, Note_on_c, 0, 60, 0
2, 4053, Note_on_c, 0, 63, 0
2, 4181, Note_on_c, 0, 63, 76
2, 4255, Note_on_c, 0, 63, 0
2, 4263, Note_on_c, 0, 62, 84
2, 4312, Note_on_c, 0, 63, 76
2, 4318, Note_on_c, 0, 62, 0
2, 4355, Note_on_c, 0, 63, 0
2, 4364, Note_on_c, 0, 62, 80
2, 4894, Note_on_c, 0, 60, 90
2, 4894, Note_on_c, 0, 62, 0
2, 5012, Note_on_c, 0, 69, 90
2, 5049, Note_on_c, 0, 60, 0
2, 5508, Note_on_c, 0, 69, 0
2, 5538, Note_on_c, 0, 60, 78
2, 5605, Note_on_c, 0, 60, 0
2, 5615, Note_on_c, 0, 58, 80
2, 5656, Note_on_c, 0, 60, 69
2, 5667, Note_on_c, 0, 58, 0
2, 5708, Note_on_c, 0, 60, 0
2, 5716, Note_on_c, 0, 58, 76
2, 6069, Note_on_c, 0, 43, 0
2, 6109, Note_on_c, 0, 54, 0
2, 6263, Note_on_c, 0, 57, 88
2, 6268, Note_on_c, 0, 58, 0
2, 6375, Note_on_c, 0, 58, 87
2, 6377, Note_on_c, 0, 55, 84
2, 6419, Note_on_c, 0, 57, 0
2, 6973, Note_on_c, 0, 74, 91
2, 7065, Note_on_c, 0, 60, 72
2, 7069, Note_on_c, 0, 69, 94
2, 7084, Note_on_c, 0, 74, 0
2, 7127, Note_on_c, 0, 58, 0
2, 7620, Note_on_c, 0, 72, 89
2, 7641, Note_on_c, 0, 69, 0
2, 7715, Note_on_c, 0, 70, 93
2, 7719, Note_on_c, 0, 62, 69
2, 7738, Note_on_c, 0, 72, 0
2, 7819, Note_on_c, 0, 60, 0
2, 8322, Note_on_c, 0, 65, 75
2, 8400, Note_on_c, 0, 65, 0
2, 8420, Note_on_c, 0, 64, 65
2, 8447, Note_on_c, 0, 62, 0
2, 8990, Note_on_c, 0, 67, 75
2, 9012, Note_on_c, 0, 64, 0
2, 9085, Note_on_c, 0, 61, 73
2, 9112, Note_on_c, 0, 67, 0
2, 9485, Note_on_c, 0, 70, 0
2, 9589, Note_on_c, 0, 70, 77
2, 9647, Note_on_c, 0, 70, 0
2, 9660, Note_on_c, 0, 69, 82
2, 9706, Note_on_c, 0, 70, 75
2, 9710, Note_on_c, 0, 69, 0
2, 9743, Note_on_c, 0, 70, 0
2, 9757, Note_on_c, 0, 69, 79
2, 10314, Note_on_c, 0, 69, 0
2, 10319, Note_on_c, 0, 67, 92
2, 10438, Note_on_c, 0, 76, 92
2, 10476, Note_on_c, 0, 67, 0
2, 10930, Note_on_c, 0, 76, 0
2, 10939, Note_on_c, 0, 67, 72
2, 10961, Note_on_c, 0, 65, 58
2, 10984, Note_on_c, 0, 65, 0
2, 11002, Note_on_c, 0, 67, 0
2, 11009, Note_on_c, 0, 66, 77
2, 11055, Note_on_c, 0, 67, 70
2, 11063, Note_on_c, 0, 66, 0
2, 11101, Note_on_c, 0, 67, 0
2, 11117, Note_on_c, 0, 66, 74
2, 11646, Note_on_c, 0, 66, 0
2, 11651, Note_on_c, 0, 64, 66
2, 11787, Note_on_c, 0, 66, 62
2, 11794, Note_on_c, 0, 64, 0
2, 11803, Note_on_c, 0, 62, 66
2, 11825, Note_on_c, 0, 50, 40
2, 11860, Note_on_c, 0, 55, 0
2, 11891, Note_on_c, 0, 61, 0
2, 12330, Note_on_c, 0, 67, 63
2, 12344, Note_on_c, 0, 66, 0
2, 12435, Note_on_c, 0, 67, 0
2, 12444, Note_on_c, 0, 69, 57
2, 12782, Note_on_c, 0, 60, 58
2, 12995, Note_on_c, 0, 62, 0
2, 13124, Note_on_c, 0, 58, 55
2, 13236, Note_on_c, 0, 60, 0
2, 13674, Note_on_c, 0, 62, 71
2, 13710, Note_on_c, 0, 69, 0
2, 13776, Note_on_c, 0, 67, 68
2, 13788, Note_on_c, 0, 62, 0
2, 14335, Note_on_c, 0, 70, 74
2, 14442, Note_on_c, 0, 72, 75
2, 14446, Note_on_c, 0, 57, 60
2, 14458, Note_on_c, 0, 70, 0
2, 14580, Note_on_c, 0, 58, 0
2, 14812, Note_on_c, 0, 67, 0
2, 15015, Note_on_c, 0, 67, 73
2, 15108, Note_on_c, 0, 67, 0
2, 15114, Note_on_c, 0, 66, 67
2, 15625, Note_on_c, 0, 64, 61
2, 15625, Note_on_c, 0, 66, 0
2, 15735, Note_on_c, 0, 64, 0
2, 15747, Note_on_c, 0, 66, 58
2, 16240, Note_on_c, 0, 74, 73
2, 16273, Note_on_c, 0, 72, 0
2, 16367, Note_on_c, 0, 69, 71
2, 16371, Note_on_c, 0, 74, 0
2, 16374, Note_on_c, 0, 62, 83
2, 16500, Note_on_c, 0, 57, 0
2, 16698, Note_on_c, 0, 51, 67
2, 16741, Note_on_c, 0, 50, 0
2, 16901, Note_on_c, 0, 72, 74
2, 16902, Note_on_c, 0, 66, 0
2, 16921, Note_on_c, 0, 69, 0
2, 17004, Note_on_c, 0, 71, 76
2, 17013, Note_on_c, 0, 53, 66
2, 17014, Note_on_c, 0, 67, 69
2, 17020, Note_on_c, 0, 72, 0
2, 17073, Note_on_c, 0, 51, 0
2, 17529, Note_on_c, 0, 72, 80
2, 17539, Note_on_c, 0, 71, 0
2, 17643, Note_on_c, 0, 74, 82
2, 17661, Note_on_c, 0, 72, 0
2, 17676, Note_on_c, 0, 62, 0
2, 17945, Note_on_c, 0, 59, 78
2, 18307, Note_on_c, 0, 55, 79
2, 18311, Note_on_c, 0, 51, 60
2, 18322, Note_on_c, 0, 59, 0
2, 18362, Note_on_c, 0, 53, 0
2, 18480, Note_on_c, 0, 67, 0
2, 18898, Note_on_c, 0, 67, 78
2, 18940, Note_on_c, 0, 74, 0
2, 19001, Note_on_c, 0, 63, 79
2, 19007, Note_on_c, 0, 72, 73
2, 19116, Note_on_c, 0, 55, 0
2, 19202, Note_on_c, 0, 67, 0
2, 19568, Note_on_c, 0, 75, 87
2, 19674, Note_on_c, 0, 56, 82
2, 19674, Note_on_c, 0, 63, 0
2, 19675, Note_on_c, 0, 77, 90
2, 19683, Note_on_c, 0, 50, 58
2, 19703, Note_on_c, 0, 75, 0
2, 19726, Note_on_c, 0, 51, 0
2, 19914, Note_on_c, 0, 72, 0
2, 20223, Note_on_c, 0, 72, 84
2, 20338, Note_on_c, 0, 53, 76
2, 20342, Note_on_c, 0, 71, 81
2, 20348, Note_on_c, 0, 72, 0
2, 20394, Note_on_c, 0, 56, 0
2, 20906, Note_on_c, 0, 69, 82
2, 20930, Note_on_c, 0, 71, 0
2, 21013, Note_on_c, 0, 71, 87
2, 21015, Note_on_c, 0, 69, 0
2, 21030, Note_on_c, 0, 55, 80
2, 21134, Note_on_c, 0, 53, 0
2, 21173, Note_on_c, 0, 50, 0
2, 21459, Note_on_c, 0, 77, 0
2, 21459, Note_on_c, 0, 77, 4
2, 21586, Note_on_c, 0, 79, 91
2, 21614, Note_on_c, 0, 77, 0
2, 21684, Note_on_c, 0, 43, 80
2, 21685, Note_on_c, 0, 74, 90
2, 21707, Note_on_c, 0, 79, 0
2, 22314, Note_on_c, 0, 77, 98
2, 22326, Note_on_c, 0, 74, 0
2, 22415, Note_on_c, 0, 75, 95
2, 22419, Note_on_c, 0, 48, 83
2, 22433, Note_on_c, 0, 77, 0
2, 22445, Note_on_c, 0, 43, 0
2, 22626, Note_on_c, 0, 71, 0
2, 23054, Note_on_c, 0, 72, 91
2, 23146, Note_on_c, 0, 72, 0
2, 23159, Note_on_c, 0, 67, 84
2, 23757, Note_on_c, 0, 70, 90
2, 23763, Note_on_c, 0, 67, 0
2, 23783, Note_on_c, 0, 75, 0
2, 23849, Note_on_c, 0, 70, 0
2, 23859, Note_on_c, 0, 68, 89
2, 24037, Note_on_c, 0, 55, 0
2, 24464, Note_on_c, 0, 63, 76
2, 24548, Note_on_c, 0, 63, 0
2, 24564, Note_on_c, 0, 62, 71
2, 25187, Note_on_c, 0, 65, 75
2, 25200, Note_on_c, 0, 62, 0
2, 25288, Note_on_c, 0, 59, 77
2, 25320, Note_on_c, 0, 65, 0
2, 25724, Note_on_c, 0, 68, 0
2, 25864, Note_on_c, 0, 68, 93
2, 25958, Note_on_c, 0, 67, 89
2, 25959, Note_on_c, 0, 68, 0
2, 26528, Note_on_c, 0, 65, 92
2, 26532, Note_on_c, 0, 67, 0
2, 26632, Note_on_c, 0, 74, 92
2, 26671, Note_on_c, 0, 65, 0
2, 27204, Note_on_c, 0, 65, 80
2, 27305, Note_on_c, 0, 63, 77
2, 27310, Note_on_c, 0, 65, 0
2, 27764, Note_on_c, 0, 48, 0
2, 27832, Note_on_c, 0, 59, 0
2, 27950, Note_on_c, 0, 62, 88
2, 27958, Note_on_c, 0, 63, 0
2, 28059, Note_on_c, 0, 60, 74
2, 28060, Note_on_c, 0, 63, 83
2, 28072, Note_on_c, 0, 62, 0
2, 28632, Note_on_c, 0, 79, 88
2, 28644, Note_on_c, 0, 74, 0
2, 28723, Note_on_c, 0, 65, 75
2, 28728, Note_on_c, 0, 71, 80
2, 28728, Note_on_c, 0, 74, 89
2, 28748, Note_on_c, 0, 79, 0
2, 28766, Note_on_c, 0, 63, 0
2, 29288, Note_on_c, 0, 77, 91
2, 29293, Note_on_c, 0, 74, 0
2, 29393, Note_on_c, 0, 72, 83
2, 29393, Note_on_c, 0, 75, 90
2, 29402, Note_on_c, 0, 67, 80
2, 29407, Note_on_c, 0, 71, 0
2, 29408, Note_on_c, 0, 65, 0
2, 29426, Note_on_c, 0, 77, 0
2, 29441, Note_on_c, 0, 74, 29
2, 29476, Note_on_c, 0, 74, 0
2, 29961, Note_on_c, 0, 60, 0
2, 29970, Note_on_c, 0, 58, 73
2, 30000, Note_on_c, 0, 67, 0
2, 30075, Note_on_c, 0, 57, 74
2, 30081, Note_on_c, 0, 66, 79
2, 30108, Note_on_c, 0, 58, 0
2, 30485, Note_on_c, 0, 66, 0
2, 30612, Note_on_c, 0, 67, 75
2, 30626, Note_on_c, 0, 60, 59
2, 30658, Note_on_c, 0, 67, 0
2, 30670, Note_on_c, 0, 75, 0
2, 30670, Note_on_c, 0, 75, 6
2, 30722, Note_on_c, 0, 69, 87
2, 30726, Note_on_c, 0, 54, 64
2, 30767, Note_on_c, 0, 57, 0
2, 30807, Note_on_c, 0, 60, 0
2, 30958, Note_on_c, 0, 75, 0
2, 31270, Note_on_c, 0, 75, 88
2, 31372, Note_on_c, 0, 74, 87
2, 31375, Note_on_c, 0, 57, 79
2, 31417, Note_on_c, 0, 75, 0
2, 31499, Note_on_c, 0, 69, 0
2, 31631, Note_on_c, 0, 72, 0
2, 31909, Note_on_c, 0, 72, 91
2, 31933, Note_on_c, 0, 74, 0
2, 32028, Note_on_c, 0, 81, 89
2, 32483, Note_on_c, 0, 72, 0
2, 32627, Note_on_c, 0, 72, 81
2, 32727, Note_on_c, 0, 70, 83
2, 32729, Note_on_c, 0, 62, 69
2, 32755, Note_on_c, 0, 72, 0
2, 32865, Note_on_c, 0, 57, 0
2, 33280, Note_on_c, 0, 69, 79
2, 33289, Note_on_c, 0, 70, 0
2, 33370, Note_on_c, 0, 55, 78
2, 33393, Note_on_c, 0, 70, 85
2, 33405, Note_on_c, 0, 54, 0
2, 33429, Note_on_c, 0, 69, 0
2, 33913, Note_on_c, 0, 79, 79
2, 33945, Note_on_c, 0, 81, 0
2, 34027, Note_on_c, 0, 74, 81
2, 34031, Note_on_c, 0, 67, 85
2, 34044, Note_on_c, 0, 79, 0
2, 34293, Note_on_c, 0, 62, 0
2, 34571, Note_on_c, 0, 77, 89
2, 34594, Note_on_c, 0, 74, 0
2, 34679, Note_on_c, 0, 75, 86
2, 34700, Note_on_c, 0, 77, 0
2, 35030, Note_on_c, 0, 67, 0
2, 35228, Note_on_c, 0, 67, 88
2, 35344, Note_on_c, 0, 62, 82
2, 35345, Note_on_c, 0, 79, 83
2, 35364, Note_on_c, 0, 75, 0
2, 35365, Note_on_c, 0, 67, 0
2, 35891, Note_on_c, 0, 65, 78
2, 35910, Note_on_c, 0, 62, 0
2, 35932, Note_on_c, 0, 70, 0
2, 35986, Note_on_c, 0, 79, 0
2, 35989, Note_on_c, 0, 69, 78
2, 35990, Note_on_c, 0, 73, 82
2, 35999, Note_on_c, 0, 64, 83
2, 36007, Note_on_c, 0, 65, 0
2, 36540, Note_on_c, 0, 55, 0
2, 36564, Note_on_c, 0, 57, 83
2, 36676, Note_on_c, 0, 52, 89
2, 36685, Note_on_c, 0, 57, 0
2, 37199, Note_on_c, 0, 64, 0
2, 37216, Note_on_c, 0, 55, 91
2, 37252, Note_on_c, 0, 52, 0
2, 37311, Note_on_c, 0, 73, 0
2, 37320, Note_on_c, 0, 53, 89
2, 37335, Note_on_c, 0, 65, 80
2, 37336, Note_on_c, 0, 74, 82
2, 37338, Note_on_c, 0, 55, 0
2, 37893, Note_on_c, 0, 53, 0
2, 37897, Note_on_c, 0, 50, 90
2, 38008, Note_on_c, 0, 45, 88
2, 38013, Note_on_c, 0, 50, 0
2, 38579, Note_on_c, 0, 48, 86
2, 38612, Note_on_c, 0, 45, 0
2, 38688, Note_on_c, 0, 46, 80
2, 38699, Note_on_c, 0, 48, 0
2, 39217, Note_on_c, 0, 64, 82
2, 39218, Note_on_c, 0, 65, 0
2, 39261, Note_on_c, 0, 69, 0
2, 39326, Note_on_c, 0, 65, 86
2, 39342, Note_on_c, 0, 64, 0
2, 39839, Note_on_c, 0, 62, 90
2, 39872, Note_on_c, 0, 65, 0
2, 39989, Note_on_c, 0, 69, 90
2, 39991, Note_on_c, 0, 47, 79
2, 40025, Note_on_c, 0, 62, 0
2, 40026, Note_on_c, 0, 46, 0
2, 40193, Note_on_c, 0, 69, 0
2, 40203, Note_on_c, 0, 68, 81
2, 40267, Note_on_c, 0, 68, 0
2, 40270, Note_on_c, 0, 69, 75
2, 40332, Note_on_c, 0, 68, 77
2, 40334, Note_on_c, 0, 69, 0
2, 40386, Note_on_c, 0, 69, 71
2, 40393, Note_on_c, 0, 68, 0
2, 40439, Note_on_c, 0, 68, 75
2, 40443, Note_on_c, 0, 69, 0
2, 40536, Note_on_c, 0, 49, 73
2, 40655, Note_on_c, 0, 50, 72
2, 40669, Note_on_c, 0, 49, 0
2, 40763, Note_on_c, 0, 68, 0
2, 40960, Note_on_c, 0, 68, 88
2, 41125, Note_on_c, 0, 50, 0
2, 41126, Note_on_c, 0, 52, 77
2, 41260, Note_on_c, 0, 53, 78
2, 41266, Note_on_c, 0, 45, 73
2, 41278, Note_on_c, 0, 69, 84
2, 41284, Note_on_c, 0, 52, 0
2, 41296, Note_on_c, 0, 68, 0
2, 41300, Note_on_c, 0, 47, 0
2, 41604, Note_on_c, 0, 74, 0
2, 41814, Note_on_c, 0, 74, 87
2, 41927, Note_on_c, 0, 76, 86
2, 41928, Note_on_c, 0, 55, 76
2, 41931, Note_on_c, 0, 70, 74
2, 41950, Note_on_c, 0, 69, 0
2, 41951, Note_on_c, 0, 74, 0
2, 41988, Note_on_c, 0, 53, 0
2, 42455, Note_on_c, 0, 79, 89
2, 42482, Note_on_c, 0, 76, 0
2, 42565, Note_on_c, 0, 73, 87
2, 42573, Note_on_c, 0, 57, 77
2, 42585, Note_on_c, 0, 79, 0
2, 42653, Note_on_c, 0, 55, 0
2, 42936, Note_on_c, 0, 70, 0
2, 43101, Note_on_c, 0, 74, 85
2, 43102, Note_on_c, 0, 73, 0
2, 43104, Note_on_c, 0, 69, 76
2, 43207, Note_on_c, 0, 69, 0
2, 43210, Note_on_c, 0, 76, 90
2, 43211, Note_on_c, 0, 64, 81
2, 43225, Note_on_c, 0, 49, 72
2, 43236, Note_on_c, 0, 74, 0
2, 43241, Note_on_c, 0, 57, 0
2, 43755, Note_on_c, 0, 67, 78
2, 43757, Note_on_c, 0, 64, 0
2, 43858, Note_on_c, 0, 67, 0
2, 43859, Note_on_c, 0, 50, 78
2, 43859, Note_on_c, 0, 65, 84
2, 43954, Note_on_c, 0, 45, 0
2, 43954, Note_on_c, 0, 49, 0
2, 44434, Note_on_c, 0, 74, 90
2, 44515, Note_on_c, 0, 53, 71
2, 44520, Note_on_c, 0, 76, 0
2, 44535, Note_on_c, 0, 69, 90
2, 44564, Note_on_c, 0, 74, 0
2, 45075, Note_on_c, 0, 72, 85
2, 45091, Note_on_c, 0, 69, 0
2, 45180, Note_on_c, 0, 70, 85
2, 45214, Note_on_c, 0, 72, 0
2, 45372, Note_on_c, 0, 65, 0
2, 45718, Note_on_c, 0, 65, 74
2, 45724, Note_on_c, 0, 57, 70
2, 45740, Note_on_c, 0, 53, 0
2, 45805, Note_on_c, 0, 65, 0
2, 45812, Note_on_c, 0, 64, 74
2, 45825, Note_on_c, 0, 57, 0
2, 45830, Note_on_c, 0, 55, 63
2, 46348, Note_on_c, 0, 53, 66
2, 46348, Note_on_c, 0, 67, 71
2, 46359, Note_on_c, 0, 55, 0
2, 46414, Note_on_c, 0, 64, 0
2, 46454, Note_on_c, 0, 61, 72
2, 46458, Note_on_c, 0, 52, 67
2, 46458, Note_on_c, 0, 53, 0
2, 46524, Note_on_c, 0, 67, 0
2, 46853, Note_on_c, 0, 70, 0
2, 47019, Note_on_c, 0, 70, 80
2, 47121, Note_on_c, 0, 53, 62
2, 47121, Note_on_c, 0, 69, 84
2, 47160, Note_on_c, 0, 52, 0
2, 47167, Note_on_c, 0, 70, 0
2, 47643, Note_on_c, 0, 67, 91
2, 47644, Note_on_c, 0, 69, 0
2, 47760, Note_on_c, 0, 76, 89
2, 47767, Note_on_c, 0, 55, 67
2, 47803, Note_on_c, 0, 67, 0
2, 47816, Note_on_c, 0, 53, 0
2, 48280, Note_on_c, 0, 67, 76
2, 48286, Note_on_c, 0, 76, 0
2, 48401, Note_on_c, 0, 66, 78
2, 48404, Note_on_c, 0, 58, 71
2, 48435, Note_on_c, 0, 67, 0
2, 48504, Note_on_c, 0, 61, 0
2, 48618, Note_on_c, 0, 55, 0
2, 48712, Note_on_c, 0, 50, 0
2, 48899, Note_on_c, 0, 64, 81
2, 48910, Note_on_c, 0, 66, 0
2, 49027, Note_on_c, 0, 66, 72
2, 49029, Note_on_c, 0, 57, 78
2, 49029, Note_on_c, 0, 62, 65
2, 49042, Note_on_c, 0, 48, 67
2, 49046, Note_on_c, 0, 64, 0
2, 49060, Note_on_c, 0, 58, 0
2, 49643, Note_on_c, 0, 67, 64
2, 49653, Note_on_c, 0, 66, 0
2, 49762, Note_on_c, 0, 69, 69
2, 49772, Note_on_c, 0, 67, 0
2, 49822, Note_on_c, 0, 57, 0
2, 50086, Note_on_c, 0, 54, 77
2, 50454, Note_on_c, 0, 50, 79
2, 50462, Note_on_c, 0, 46, 58
2, 50475, Note_on_c, 0, 54, 0
2, 50567, Note_on_c, 0, 48, 0
2, 50624, Note_on_c, 0, 62, 0
2, 51017, Note_on_c, 0, 62, 83
2, 51062, Note_on_c, 0, 69, 0
2, 51136, Note_on_c, 0, 58, 78
2, 51139, Note_on_c, 0, 67, 80
2, 51251, Note_on_c, 0, 50, 0
2, 51266, Note_on_c, 0, 62, 0
2, 51691, Note_on_c, 0, 70, 80
2, 51792, Note_on_c, 0, 72, 85
2, 51793, Note_on_c, 0, 58, 0
2, 51794, Note_on_c, 0, 70, 0
2, 51796, Note_on_c, 0, 51, 82
2, 51800, Note_on_c, 0, 45, 62
2, 51864, Note_on_c, 0, 46, 0
2, 52162, Note_on_c, 0, 67, 0
2, 52380, Note_on_c, 0, 67, 79
2, 52475, Note_on_c, 0, 66, 80
2, 52480, Note_on_c, 0, 48, 75
2, 52484, Note_on_c, 0, 67, 0
2, 52542, Note_on_c, 0, 51, 0
2, 53016, Note_on_c, 0, 64, 80
2, 53018, Note_on_c, 0, 66, 0
2, 53114, Note_on_c, 0, 50, 78
2, 53125, Note_on_c, 0, 66, 77
2, 53153, Note_on_c, 0, 64, 0
2, 53196, Note_on_c, 0, 48, 0
2, 53246, Note_on_c, 0, 45, 0
2, 53689, Note_on_c, 0, 74, 85
2, 53719, Note_on_c, 0, 72, 0
2, 53794, Note_on_c, 0, 69, 89
2, 53795, Note_on_c, 0, 38, 81
2, 53813, Note_on_c, 0, 74, 0
2, 54365, Note_on_c, 0, 72, 79
2, 54388, Note_on_c, 0, 69, 0
2, 54479, Note_on_c, 0, 70, 82
2, 54483, Note_on_c, 0, 43, 83
2, 54508, Note_on_c, 0, 72, 0
2, 54523, Note_on_c, 0, 38, 0
2, 54605, Note_on_c, 0, 50, 0
2, 54692, Note_on_c, 0, 66, 0
2, 55022, Note_on_c, 0, 67, 85
2, 55132, Note_on_c, 0, 46, 85
2, 55136, Note_on_c, 0, 62, 83
2, 55144, Note_on_c, 0, 67, 0
2, 55176, Note_on_c, 0, 43, 0
2, 55648, Note_on_c, 0, 62, 0
2, 55667, Note_on_c, 0, 65, 76
2, 55668, Note_on_c, 0, 50, 67
2, 55700, Note_on_c, 0, 46, 0
2, 55767, Note_on_c, 0, 55, 67
2, 55767, Note_on_c, 0, 65, 0
2, 55769, Note_on_c, 0, 50, 0
2, 55774, Note_on_c, 0, 63, 71
2, 55926, Note_on_c, 0, 70, 0
2, 56036, Control_c, 0, 67, 11
2, 56052, Control_c, 0, 67, 19
2, 56067, Control_c, 0, 67, 28
2, 56081, Control_c, 0, 67, 40
2, 56097, Control_c, 0, 67, 50
2, 56112, Control_c, 0, 67, 59
2, 56126, Control_c, 0, 67, 70
2, 56142, Control_c, 0, 67, 80
2, 56157, Control_c, 0, 67, 90
2, 56174, Control_c, 0, 67, 103
2, 56189, Control_c, 0, 67, 114
2, 56204, Control_c, 0, 67, 123
2, 56219, Control_c, 0, 67, 127
2, 56344, Note_on_c, 0, 70, 74
2, 56380, Note_on_c, 0, 63, 0
2, 56453, Note_on_c, 0, 70, 0
2, 56456, Note_on_c, 0, 75, 66
2, 56464, Note_on_c, 0, 58, 50
2, 56992, Note_on_c, 0, 79, 62
2, 57026, Note_on_c, 0, 75, 0
2, 57079, Note_on_c, 0, 79, 0
2, 57103, Note_on_c, 0, 60, 49
2, 57110, Note_on_c, 0, 68, 62
2, 57178, Note_on_c, 0, 58, 0
2, 57654, Note_on_c, 0, 62, 64
2, 57662, Note_on_c, 0, 53, 68
2, 57673, Note_on_c, 0, 55, 0
2, 57698, Note_on_c, 0, 60, 0
2, 57754, Note_on_c, 0, 62, 0
2, 57769, Note_on_c, 0, 63, 54
2, 57780, Note_on_c, 0, 48, 58
2, 57794, Note_on_c, 0, 53, 0
2, 58223, Note_on_c, 0, 63, 0
2, 58255, Note_on_c, 0, 51, 67
2, 58268, Note_on_c, 0, 60, 65
2, 58298, Note_on_c, 0, 48, 0
2, 58305, Note_on_c, 0, 60, 0
2, 58436, Note_on_c, 0, 65, 43
2, 58461, Note_on_c, 0, 50, 48
2, 58464, Note_on_c, 0, 65, 0
2, 58467, Note_on_c, 0, 63, 60
2, 58483, Note_on_c, 0, 51, 0
2, 58507, Note_on_c, 0, 63, 0
2, 58538, Note_on_c, 0, 65, 59
2, 59046, Note_on_c, 0, 46, 57
2, 59105, Note_on_c, 0, 50, 0
2, 59171, Note_on_c, 0, 41, 56
2, 59179, Note_on_c, 0, 65, 0
2, 59187, Note_on_c, 0, 46, 0
2, 59495, Note_on_c, 0, 65, 63
2, 59694, Note_on_c, 0, 44, 48
2, 59743, Note_on_c, 0, 41, 0
2, 59800, Note_on_c, 0, 58, 58
2, 59807, Note_on_c, 0, 43, 55
2, 59819, Note_on_c, 0, 44, 0
2, 59847, Note_on_c, 0, 65, 0
2, 60343, Note_on_c, 0, 62, 70
2, 60451, Note_on_c, 0, 68, 0
2, 60461, Note_on_c, 0, 46, 58
2, 60461, Note_on_c, 0, 65, 69
2, 60494, Note_on_c, 0, 62, 0
2, 60946, Note_on_c, 0, 68, 75
2, 61046, Note_on_c, 0, 65, 0
2, 61078, Note_on_c, 0, 67, 66
2, 61095, Note_on_c, 0, 51, 57
2, 61118, Note_on_c, 0, 68, 0
2, 61188, Note_on_c, 0, 46, 0
2, 61375, Note_on_c, 0, 58, 0
2, 61601, Note_on_c, 0, 58, 61
2, 61709, Note_on_c, 0, 55, 55
2, 61717, Note_on_c, 0, 63, 58
2, 61767, Note_on_c, 0, 67, 0
2, 61815, Note_on_c, 0, 51, 0
2, 61855, Note_on_c, 0, 58, 0
2, 62054, Note_on_c, 0, 67, 69
2, 62360, Note_on_c, 0, 48, 55
2, 62368, Note_on_c, 0, 65, 57
2, 62371, Note_on_c, 0, 45, 42
2, 62379, Note_on_c, 0, 67, 0
2, 62413, Note_on_c, 0, 55, 0
2, 62428, Note_on_c, 0, 43, 0
2, 62626, Note_on_c, 0, 63, 0
2, 62930, Note_on_c, 0, 63, 64
2, 63034, Note_on_c, 0, 63, 0
2, 63047, Note_on_c, 0, 62, 58
2, 63601, Note_on_c, 0, 60, 69
2, 63614, Note_on_c, 0, 62, 0
2, 63705, Note_on_c, 0, 60, 0
2, 63711, Note_on_c, 0, 48, 0
2, 63712, Note_on_c, 0, 47, 45
2, 63721, Note_on_c, 0, 55, 41
2, 63721, Note_on_c, 0, 62, 54
2, 63856, Note_on_c, 0, 45, 0
2, 63914, Note_on_c, 0, 65, 0
2, 64261, Note_on_c, 0, 65, 62
2, 64370, Note_on_c, 0, 65, 0
2, 64376, Note_on_c, 0, 67, 57
2, 64663, Note_on_c, 0, 62, 0
2, 64954, Note_on_c, 0, 62, 51
2, 64962, Note_on_c, 0, 67, 0
2, 65064, Note_on_c, 0, 63, 53
2, 65075, Note_on_c, 0, 48, 46
2, 65201, Note_on_c, 0, 47, 0
2, 65289, Note_on_c, 0, 62, 0
2, 65660, Note_on_c, 0, 59, 58
2, 65766, Note_on_c, 0, 55, 0
2, 65771, Note_on_c, 0, 59, 0
2, 65773, Note_on_c, 0, 60, 54
2, 66311, Note_on_c, 0, 55, 46
2, 66331, Note_on_c, 0, 60, 0
2, 66407, Note_on_c, 0, 55, 0
2, 66433, Note_on_c, 0, 51, 56
2, 66458, Note_on_c, 0, 48, 0
2, 66973, Note_on_c, 0, 55, 51
2, 66977, Note_on_c, 0, 75, 61
2, 67001, Note_on_c, 0, 51, 0
2, 67033, Control_c, 0, 67, 123
2, 67049, Control_c, 0, 67, 120
2, 67063, Control_c, 0, 67, 117
2, 67072, Note_on_c, 0, 75, 0
2, 67078, Control_c, 0, 67, 116
2, 67080, Note_on_c, 0, 69, 62
2, 67082, Note_on_c, 0, 48, 50
2, 67094, Control_c, 0, 67, 115
2, 67094, Note_on_c, 0, 55, 0
2, 67109, Control_c, 0, 67, 115
2, 67284, Control_c, 0, 67, 115
2, 67325, Note_on_c, 0, 63, 0
2, 67466, Control_c, 0, 67, 116
2, 67635, Note_on_c, 0, 72, 64
2, 67641, Note_on_c, 0, 51, 56
2, 67644, Note_on_c, 0, 69, 0
2, 67736, Note_on_c, 0, 51, 0
2, 67740, Note_on_c, 0, 66, 62
2, 67744, Note_on_c, 0, 72, 0
2, 67748, Note_on_c, 0, 50, 49
2, 68065, Control_c, 0, 67, 115
2, 68125, Control_c, 0, 67, 115
2, 68186, Control_c, 0, 67, 114
2, 68238, Note_on_c, 0, 66, 0
2, 68239, Note_on_c, 0, 62, 73
2, 68247, Control_c, 0, 67, 114
2, 68259, Note_on_c, 0, 54, 49
2, 68267, Note_on_c, 0, 50, 0
2, 68293, Control_c, 0, 67, 113
2, 68323, Control_c, 0, 67, 112
2, 68354, Note_on_c, 0, 66, 66
2, 68366, Note_on_c, 0, 54, 0
2, 68368, Control_c, 0, 67, 112
2, 68376, Note_on_c, 0, 57, 59
2, 68429, Note_on_c, 0, 62, 0
2, 68476, Control_c, 0, 67, 111
2, 68504, Note_on_c, 0, 48, 0
2, 68675, Note_on_c, 0, 48, 61
2, 68742, Control_c, 0, 67, 110
2, 68848, Control_c, 0, 67, 110
2, 68894, Control_c, 0, 67, 109
2, 68911, Note_on_c, 0, 69, 70
2, 68923, Control_c, 0, 67, 109
2, 68939, Control_c, 0, 67, 108
2, 68945, Note_on_c, 0, 66, 0
2, 68954, Control_c, 0, 67, 100
2, 68969, Control_c, 0, 67, 87
2, 68985, Control_c, 0, 67, 79
2, 68999, Control_c, 0, 67, 75
2, 69015, Control_c, 0, 67, 74
2, 69015, Note_on_c, 0, 46, 61
2, 69027, Note_on_c, 0, 74, 74
2, 69030, Control_c, 0, 67, 73
2, 69040, Note_on_c, 0, 69, 0
2, 69044, Note_on_c, 0, 48, 0
2, 69045, Control_c, 0, 67, 72
2, 69061, Control_c, 0, 67, 70
2, 69076, Control_c, 0, 67, 68
2, 69092, Control_c, 0, 67, 65
2, 69107, Control_c, 0, 67, 63
2, 69122, Control_c, 0, 67, 60
2, 69137, Control_c, 0, 67, 58
2, 69152, Control_c, 0, 67, 57
2, 69167, Control_c, 0, 67, 56
2, 69183, Control_c, 0, 67, 55
2, 69198, Control_c, 0, 67, 53
2, 69213, Control_c, 0, 67, 52
2, 69228, Control_c, 0, 67, 51
2, 69243, Control_c, 0, 67, 50
2, 69291, Control_c, 0, 67, 50
2, 69586, Control_c, 0, 67, 49
2, 69596, Note_on_c, 0, 69, 73
2, 69602, Note_on_c, 0, 54, 65
2, 69623, Note_on_c, 0, 57, 0
2, 69632, Control_c, 0, 67, 48
2, 69646, Control_c, 0, 67, 48
2, 69677, Control_c, 0, 67, 47
2, 69693, Control_c, 0, 67, 46
2, 69708, Control_c, 0, 67, 46
2, 69711, Note_on_c, 0, 54, 0
2, 69712, Note_on_c, 0, 55, 65
2, 69712, Note_on_c, 0, 70, 69
2, 69722, Control_c, 0, 67, 45
2, 69735, Note_on_c, 0, 69, 0
2, 69738, Control_c, 0, 67, 42
2, 69753, Control_c, 0, 67, 40
2, 69767, Control_c, 0, 67, 38
2, 69783, Control_c, 0, 67, 36
2, 69798, Control_c, 0, 67, 35
2, 69814, Control_c, 0, 67, 33
2, 69829, Control_c, 0, 67, 31
2, 69843, Control_c, 0, 67, 29
2, 69859, Control_c, 0, 67, 28
2, 69874, Control_c, 0, 67, 26
2, 69889, Control_c, 0, 67, 25
2, 69905, Control_c, 0, 67, 24
2, 69920, Control_c, 0, 67, 22
2, 69936, Control_c, 0, 67, 21
2, 69950, Control_c, 0, 67, 19
2, 69965, Control_c, 0, 67, 17
2, 69981, Control_c, 0, 67, 16
2, 69996, Control_c, 0, 67, 14
2, 70012, Control_c, 0, 67, 14
2, 70027, Control_c, 0, 67, 13
2, 70042, Control_c, 0, 67, 11
2, 70057, Control_c, 0, 67, 11
2, 70072, Control_c, 0, 67, 9
2, 70087, Control_c, 0, 67, 9
2, 70103, Control_c, 0, 67, 8
2, 70118, Control_c, 0, 67, 0
2, 70224, Note_on_c, 0, 55, 0
2, 70241, Note_on_c, 0, 57, 54
2, 70262, Note_on_c, 0, 66, 76
2, 70299, Note_on_c, 0, 70, 0
2, 70327, Note_on_c, 0, 57, 0
2, 70367, Note_on_c, 0, 67, 75
2, 70368, Note_on_c, 0, 58, 64
2, 70369, Note_on_c, 0, 66, 0
2, 70552, Note_on_c, 0, 46, 0
2, 70919, Note_on_c, 0, 46, 73
2, 71038, Note_on_c, 0, 48, 70
2, 71061, Note_on_c, 0, 46, 0
2, 71542, Note_on_c, 0, 50, 81
2, 71555, Note_on_c, 0, 48, 0
2, 71659, Note_on_c, 0, 51, 78
2, 71662, Note_on_c, 0, 50, 0
2, 72045, Note_on_c, 0, 58, 0
2, 72217, Note_on_c, 0, 79, 80
2, 72230, Note_on_c, 0, 58, 66
2, 72233, Note_on_c, 0, 74, 0
2, 72319, Note_on_c, 0, 72, 82
2, 72322, Note_on_c, 0, 79, 0
2, 72326, Note_on_c, 0, 57, 64
2, 72330, Note_on_c, 0, 58, 0
2, 72840, Note_on_c, 0, 57, 0
2, 72850, Note_on_c, 0, 75, 82
2, 72854, Note_on_c, 0, 58, 63
2, 72866, Note_on_c, 0, 72, 0
2, 72875, Note_on_c, 0, 67, 0
2, 72954, Note_on_c, 0, 65, 74
2, 72955, Note_on_c, 0, 69, 79
2, 72958, Note_on_c, 0, 60, 76
2, 72965, Note_on_c, 0, 75, 0
2, 72969, Note_on_c, 0, 58, 0
2, 73273, Note_on_c, 0, 65, 0
2, 73473, Note_on_c, 0, 65, 89
2, 73483, Note_on_c, 0, 69, 0
2, 73491, Note_on_c, 0, 57, 67
2, 73502, Note_on_c, 0, 60, 0
2, 73590, Note_on_c, 0, 53, 73
2, 73591, Note_on_c, 0, 69, 83
2, 73620, Note_on_c, 0, 57, 0
2, 73661, Note_on_c, 0, 65, 0
2, 74123, Note_on_c, 0, 72, 90
2, 74129, Note_on_c, 0, 57, 75
2, 74162, Note_on_c, 0, 53, 0
2, 74163, Note_on_c, 0, 69, 0
2, 74236, Note_on_c, 0, 62, 81
2, 74236, Note_on_c, 0, 77, 95
2, 74263, Note_on_c, 0, 51, 0
2, 74269, Note_on_c, 0, 72, 0
2, 74300, Note_on_c, 0, 57, 0
2, 74752, Note_on_c, 0, 65, 89
2, 74759, Note_on_c, 0, 50, 78
2, 74858, Note_on_c, 0, 67, 90
2, 74866, Note_on_c, 0, 51, 75
2, 74891, Note_on_c, 0, 65, 0
2, 74896, Note_on_c, 0, 50, 0
2, 75372, Note_on_c, 0, 67, 0
2, 75375, Note_on_c, 0, 69, 91
2, 75381, Note_on_c, 0, 53, 80
2, 75460, Note_on_c, 0, 51, 0
2, 75481, Note_on_c, 0, 55, 84
2, 75481, Note_on_c, 0, 70, 84
2, 75506, Note_on_c, 0, 53, 0
2, 75514, Note_on_c, 0, 69, 0
2, 76069, Note_on_c, 0, 82, 92
2, 76080, Note_on_c, 0, 77, 0
2, 76179, Note_on_c, 0, 79, 90
2, 76210, Note_on_c, 0, 82, 0
2, 76595, Note_on_c, 0, 79, 0
2, 76632, Note_on_c, 0, 74, 89
2, 76813, Note_on_c, 0, 74, 0
2, 76816, Note_on_c, 0, 77, 93
2, 76958, Note_on_c, 0, 77, 0
2, 77003, Note_on_c, 0, 76, 61
2, 77059, Note_on_c, 0, 77, 82
2, 77064, Note_on_c, 0, 76, 0
2, 77117, Note_on_c, 0, 76, 70
2, 77181, Note_on_c, 0, 76, 0
2, 77226, Note_on_c, 0, 76, 77
2, 77245, Note_on_c, 0, 77, 0
2, 77317, Note_on_c, 0, 62, 0
2, 77319, Note_on_c, 0, 61, 81
2, 77435, Note_on_c, 0, 60, 88
2, 77467, Note_on_c, 0, 61, 0
2, 77585, Note_on_c, 0, 76, 0
2, 77737, Note_on_c, 0, 76, 92
2, 77945, Note_on_c, 0, 58, 78
2, 77957, Note_on_c, 0, 60, 0
2, 78059, Note_on_c, 0, 77, 92
2, 78066, Note_on_c, 0, 60, 89
2, 78072, Note_on_c, 0, 53, 77
2, 78088, Note_on_c, 0, 76, 0
2, 78092, Note_on_c, 0, 55, 0
2, 78099, Note_on_c, 0, 58, 0
2, 78485, Note_on_c, 0, 70, 0
2, 78614, Note_on_c, 0, 70, 92
2, 78737, Note_on_c, 0, 68, 87
2, 78763, Note_on_c, 0, 70, 0
2, 79253, Note_on_c, 0, 67, 83
2, 79259, Note_on_c, 0, 68, 0
2, 79366, Note_on_c, 0, 68, 83
2, 79389, Note_on_c, 0, 67, 0
2, 79635, Note_on_c, 0, 60, 0
2, 79868, Note_on_c, 0, 60, 81
2, 79874, Note_on_c, 0, 75, 84
2, 79978, Note_on_c, 0, 65, 86
2, 79984, Note_on_c, 0, 74, 78
2, 79987, Note_on_c, 0, 77, 0
2, 80009, Note_on_c, 0, 60, 0
2, 80016, Note_on_c, 0, 75, 0
2, 80490, Note_on_c, 0, 63, 80
2, 80494, Note_on_c, 0, 65, 0
2, 80501, Note_on_c, 0, 77, 84
2, 80535, Note_on_c, 0, 68, 0
2, 80550, Note_on_c, 0, 74, 0
2, 80612, Note_on_c, 0, 71, 86
2, 80616, Note_on_c, 0, 67, 78
2, 80621, Note_on_c, 0, 62, 78
2, 80624, Note_on_c, 0, 77, 0
2, 80626, Note_on_c, 0, 64, 50
2, 80639, Note_on_c, 0, 63, 0
2, 80649, Note_on_c, 0, 64, 0
2, 81206, Note_on_c, 0, 55, 84
2, 81207, Note_on_c, 0, 53, 0
2, 81317, Note_on_c, 0, 50, 83
2, 81325, Note_on_c, 0, 55, 0
2, 81830, Note_on_c, 0, 62, 0
2, 81838, Note_on_c, 0, 53, 88
2, 81870, Note_on_c, 0, 50, 0
2, 81944, Note_on_c, 0, 63, 82
2, 81946, Note_on_c, 0, 72, 77
2, 81947, Note_on_c, 0, 51, 88
2, 81966, Note_on_c, 0, 53, 0
2, 82067, Note_on_c, 0, 71, 0
2, 82518, Note_on_c, 0, 48, 83
2, 82518, Note_on_c, 0, 51, 0
2, 82630, Note_on_c, 0, 43, 89
2, 82642, Note_on_c, 0, 48, 0
2, 83165, Note_on_c, 0, 46, 81
2, 83186, Note_on_c, 0, 43, 0
2, 83268, Note_on_c, 0, 45, 82
2, 83297, Note_on_c, 0, 46, 0
2, 83500, Note_on_c, 0, 67, 0
2, 83676, Note_on_c, 0, 63, 0
2, 83812, Note_on_c, 0, 74, 87
2, 83829, Note_on_c, 0, 72, 0
2, 83872, Note_on_c, 0, 65, 10
2, 83922, Note_on_c, 0, 75, 92
2, 83930, Note_on_c, 0, 55, 79
2, 83954, Note_on_c, 0, 74, 0
2, 83962, Note_on_c, 0, 76, 46
2, 84008, Note_on_c, 0, 65, 0
2, 84059, Note_on_c, 0, 76, 0
2, 84140, Note_on_c, 0, 75, 0
2, 84417, Note_on_c, 0, 70, 85
2, 84551, Note_on_c, 0, 72, 88
2, 84561, Note_on_c, 0, 54, 77
2, 84570, Note_on_c, 0, 70, 0
2, 84595, Note_on_c, 0, 55, 0
2, 85112, Note_on_c, 0, 67, 75
2, 85221, Note_on_c, 0, 57, 81
2, 85226, Note_on_c, 0, 66, 73
2, 85228, Note_on_c, 0, 67, 0
2, 85319, Note_on_c, 0, 54, 0
2, 85761, Note_on_c, 0, 69, 76
2, 85763, Note_on_c, 0, 66, 0
2, 85877, Note_on_c, 0, 46, 77
2, 85879, Note_on_c, 0, 62, 81
2, 85879, Note_on_c, 0, 69, 0
2, 85909, Note_on_c, 0, 45, 0
2, 86158, Note_on_c, 0, 72, 0
2, 86418, Note_on_c, 0, 72, 91
2, 86526, Note_on_c, 0, 74, 92
2, 86530, Note_on_c, 0, 55, 84
2, 86542, Note_on_c, 0, 57, 0
2, 86546, Note_on_c, 0, 72, 0
2, 87065, Note_on_c, 0, 69, 89
2, 87066, Note_on_c, 0, 54, 74
2, 87070, Note_on_c, 0, 55, 0
2, 87077, Note_on_c, 0, 74, 0
2, 87185, Note_on_c, 0, 55, 82
2, 87187, Note_on_c, 0, 70, 85
2, 87204, Note_on_c, 0, 54, 0
2, 87204, Note_on_c, 0, 69, 0
2, 87754, Note_on_c, 0, 66, 69
2, 87861, Note_on_c, 0, 67, 73
2, 87866, Note_on_c, 0, 62, 0
2, 87887, Note_on_c, 0, 66, 0
2, 88347, Note_on_c, 0, 67, 0
2, 88357, Note_on_c, 0, 62, 80
2, 88465, Note_on_c, 0, 48, 77
2, 88465, Note_on_c, 0, 63, 81
2, 88482, Note_on_c, 0, 62, 0
2, 88494, Note_on_c, 0, 46, 0
2, 88967, Note_on_c, 0, 75, 86
2, 88994, Note_on_c, 0, 70, 0
2, 89079, Note_on_c, 0, 67, 80
2, 89083, Note_on_c, 0, 60, 89
2, 89117, Note_on_c, 0, 75, 0
2, 89328, Note_on_c, 0, 55, 0
2, 89606, Note_on_c, 0, 70, 83
2, 89631, Note_on_c, 0, 67, 0
2, 89713, Note_on_c, 0, 68, 79
2, 89735, Note_on_c, 0, 69, 72
2, 89747, Note_on_c, 0, 70, 0
2, 89878, Note_on_c, 0, 69, 0
2, 90066, Note_on_c, 0, 60, 0
2, 90245, Note_on_c, 0, 60, 92
2, 90361, Note_on_c, 0, 72, 87
2, 90368, Note_on_c, 0, 55, 81
2, 90368, Note_on_c, 0, 68, 0
2, 90388, Note_on_c, 0, 60, 0
2, 90897, Note_on_c, 0, 58, 81
2, 90907, Note_on_c, 0, 55, 0
2, 90943, Note_on_c, 0, 63, 0
2, 91003, Note_on_c, 0, 72, 0
2, 91013, Note_on_c, 0, 57, 81
2, 91014, Note_on_c, 0, 66, 77
2, 91015, Note_on_c, 0, 62, 73
2, 91018, Note_on_c, 0, 58, 0
2, 91577, Note_on_c, 0, 48, 0
2, 91598, Note_on_c, 0, 50, 85
2, 91709, Note_on_c, 0, 45, 84
2, 91718, Note_on_c, 0, 50, 0
2, 92227, Note_on_c, 0, 57, 0
2, 92257, Note_on_c, 0, 48, 87
2, 92287, Note_on_c, 0, 45, 0
2, 92363, Note_on_c, 0, 46, 87
2, 92367, Note_on_c, 0, 58, 83
2, 92367, Note_on_c, 0, 67, 79
2, 92382, Note_on_c, 0, 48, 0
2, 92409, Note_on_c, 0, 66, 0
2, 92914, Note_on_c, 0, 43, 83
2, 92919, Note_on_c, 0, 46, 0
2, 93031, Note_on_c, 0, 43, 0
2, 93033, Note_on_c, 0, 38, 77
2, 93041, Note_on_c, 0, 40, 70
2, 93122, Note_on_c, 0, 40, 0
2, 93574, Note_on_c, 0, 41, 82
2, 93606, Note_on_c, 0, 38, 0
2, 93691, Note_on_c, 0, 39, 84
2, 93704, Note_on_c, 0, 41, 0
2, 94180, Note_on_c, 0, 66, 79
2, 94187, Note_on_c, 0, 67, 0
2, 94288, Note_on_c, 0, 67, 87
2, 94290, Note_on_c, 0, 51, 72
2, 94318, Note_on_c, 0, 66, 0
2, 94370, Note_on_c, 0, 39, 0
2, 94786, Note_on_c, 0, 50, 64
2, 94786, Note_on_c, 0, 51, 0
2, 94791, Note_on_c, 0, 70, 81
2, 94801, Note_on_c, 0, 58, 0
2, 94840, Note_on_c, 0, 67, 0
2, 94849, Note_on_c, 0, 62, 0
2, 94907, Note_on_c, 0, 61, 80
2, 94916, Note_on_c, 0, 51, 78
2, 94942, Note_on_c, 0, 50, 0
2, 95143, Note_on_c, 0, 70, 0
2, 95377, Note_on_c, 0, 54, 83
2, 95378, Note_on_c, 0, 70, 78
2, 95488, Note_on_c, 0, 51, 0
2, 95496, Note_on_c, 0, 69, 79
2, 95501, Note_on_c, 0, 55, 75
2, 95506, Note_on_c, 0, 52, 68
2, 95517, Note_on_c, 0, 54, 0
2, 95527, Note_on_c, 0, 70, 0
2, 96010, Note_on_c, 0, 55, 0
2, 96024, Note_on_c, 0, 57, 66
2, 96024, Note_on_c, 0, 67, 77
2, 96063, Note_on_c, 0, 61, 0
2, 96127, Note_on_c, 0, 52, 0
2, 96132, Note_on_c, 0, 69, 0
2, 96133, Note_on_c, 0, 66, 77
2, 96140, Note_on_c, 0, 50, 63
2, 96141, Note_on_c, 0, 62, 70
2, 96152, Note_on_c, 0, 58, 68
2, 96156, Note_on_c, 0, 67, 0
2, 96184, Note_on_c, 0, 57, 0
2, 96670, Note_on_c, 0, 61, 72
2, 96686, Note_on_c, 0, 62, 0
2, 96788, Note_on_c, 0, 62, 78
2, 96804, Note_on_c, 0, 61, 0
2, 96835, Note_on_c, 0, 66, 0
2, 97090, Note_on_c, 0, 66, 89
2, 97448, Note_on_c, 0, 67, 86
2, 97481, Note_on_c, 0, 66, 0
2, 97720, Note_on_c, 0, 58, 0
2, 97981, Note_on_c, 0, 58, 84
2, 97984, Note_on_c, 0, 61, 81
2, 97994, Note_on_c, 0, 62, 0
2, 98094, Note_on_c, 0, 57, 79
2, 98106, Note_on_c, 0, 58, 0
2, 98106, Note_on_c, 0, 62, 82
2, 98129, Note_on_c, 0, 61, 0
2, 98601, Note_on_c, 0, 55, 76
2, 98614, Note_on_c, 0, 57, 0
2, 98729, Note_on_c, 0, 57, 85
2, 98765, Note_on_c, 0, 55, 0
2, 99239, Note_on_c, 0, 70, 85
2, 99253, Note_on_c, 0, 62, 0
2, 99289, Note_on_c, 0, 67, 0
2, 99341, Note_on_c, 0, 60, 80
2, 99346, Note_on_c, 0, 69, 84
2, 99378, Note_on_c, 0, 70, 0
2, 99873, Note_on_c, 0, 72, 93
2, 99900, Note_on_c, 0, 69, 0
2, 99991, Note_on_c, 0, 66, 87
2, 100019, Note_on_c, 0, 72, 0
2, 100533, Note_on_c, 0, 63, 80
2, 100552, Note_on_c, 0, 60, 0
2, 100640, Note_on_c, 0, 63, 0
2, 100646, Note_on_c, 0, 62, 76
2, 101128, Note_on_c, 0, 57, 0
2, 101166, Note_on_c, 0, 60, 74
2, 101283, Note_on_c, 0, 67, 74
2, 101293, Note_on_c, 0, 43, 55
2, 101294, Note_on_c, 0, 55, 60
2, 101295, Note_on_c, 0, 62, 0
2, 101306, Note_on_c, 0, 66, 0
2, 101410, Note_on_c, 0, 50, 0
2, 101826, Note_on_c, 0, 60, 0
2, 101836, Note_on_c, 0, 57, 61
2, 101949, Note_on_c, 0, 57, 0
2, 101954, Note_on_c, 0, 59, 57
2, 102277, Note_on_c, 0, 65, 71
2, 102342, Note_on_c, 0, 67, 0
2, 102638, Note_on_c, 0, 63, 71
2, 102669, Note_on_c, 0, 65, 0
2, 103003, Note_on_c, 0, 59, 0
2, 103155, Note_on_c, 0, 59, 58
2, 103263, Note_on_c, 0, 60, 66
2, 103326, Note_on_c, 0, 63, 0
2, 103568, Note_on_c, 0, 63, 75
2, 103572, Note_on_c, 0, 54, 61
2, 103598, Note_on_c, 0, 59, 0
2, 103635, Note_on_c, 0, 55, 0
2, 103909, Note_on_c, 0, 62, 64
2, 103914, Note_on_c, 0, 55, 59
2, 104022, Note_on_c, 0, 63, 0
2, 104210, Note_on_c, 0, 54, 0
2, 104237, Note_on_c, 0, 60, 0
2, 104364, Note_on_c, 0, 60, 65
2, 104423, Note_on_c, 0, 62, 0
2, 104493, Note_on_c, 0, 59, 72
2, 104512, Note_on_c, 0, 60, 0
2, 104660, Note_on_c, 0, 59, 0
2, 104779, Note_on_c, 0, 67, 89
2, 104783, Note_on_c, 0, 53, 74
2, 104797, Note_on_c, 0, 55, 0
2, 104919, Note_on_c, 0, 51, 71
2, 104955, Note_on_c, 0, 53, 0
2, 105090, Note_on_c, 0, 77, 95
2, 105105, Note_on_c, 0, 50, 73
2, 105143, Note_on_c, 0, 51, 0
2, 105148, Note_on_c, 0, 67, 0
2, 105254, Note_on_c, 0, 43, 0
2, 105543, Note_on_c, 0, 72, 91
2, 105554, Note_on_c, 0, 43, 71
2, 105589, Note_on_c, 0, 50, 0
2, 105671, Note_on_c, 0, 71, 89
2, 105676, Note_on_c, 0, 55, 83
2, 105676, Note_on_c, 0, 72, 0
2, 105980, Note_on_c, 0, 74, 86
2, 105996, Note_on_c, 0, 77, 0
2, 106312, Note_on_c, 0, 75, 94
2, 106334, Note_on_c, 0, 74, 0
2, 106655, Note_on_c, 0, 71, 0
2, 106757, Note_on_c, 0, 53, 84
2, 106766, Note_on_c, 0, 67, 85
2, 106784, Note_on_c, 0, 55, 0
2, 106889, Note_on_c, 0, 51, 77
2, 106896, Note_on_c, 0, 72, 87
2, 106912, Note_on_c, 0, 53, 0
2, 106928, Note_on_c, 0, 67, 0
2, 107183, Note_on_c, 0, 74, 88
2, 107211, Note_on_c, 0, 75, 0
2, 107321, Note_on_c, 0, 51, 0
2, 107322, Note_on_c, 0, 55, 85
2, 107471, Note_on_c, 0, 48, 80
2, 107474, Note_on_c, 0, 55, 0
2, 107474, Note_on_c, 0, 75, 93
2, 107492, Note_on_c, 0, 74, 0
2, 107700, Note_on_c, 0, 72, 0
2, 107937, Note_on_c, 0, 51, 76
2, 107940, Note_on_c, 0, 75, 0
2, 107943, Note_on_c, 0, 48, 0
2, 107944, Note_on_c, 0, 72, 94
2, 108021, Note_on_c, 0, 51, 0
2, 108023, Note_on_c, 0, 50, 76
2, 108087, Note_on_c, 0, 79, 88
2, 108103, Note_on_c, 0, 51, 79
2, 108107, Note_on_c, 0, 50, 0
2, 108632, Note_on_c, 0, 78, 90
2, 108668, Note_on_c, 0, 79, 0
2, 108793, Note_on_c, 0, 79, 76
2, 108803, Note_on_c, 0, 50, 61
2, 108833, Note_on_c, 0, 78, 0
2, 108906, Note_on_c, 0, 51, 0
2, 109157, Note_on_c, 0, 72, 0
2, 109406, Note_on_c, 0, 72, 80
2, 109562, Note_on_c, 0, 74, 60
2, 109571, Note_on_c, 0, 72, 0
2, 110391, Note_on_c, 0, 69, 64
2, 110561, Note_on_c, 0, 71, 45
2, 110608, Note_on_c, 0, 69, 0
2, 113243, Note_on_c, 0, 50, 0
2, 113247, Note_on_c, 0, 43, 0
2, 113272, Note_on_c, 0, 79, 0
2, 113277, Note_on_c, 0, 71, 0
2, 113281, Note_on_c, 0, 74, 0
2, 114567,End_track
0, 0, End_of_file
