0, 0, Header, 1, 2, 384
1, 0, Start_track
1, 0, Tempo, 500000
1, 0, Time_signature, 4, 2, 24, 8
1, 1, End_track
2, 0, Start_track
2, 0, Program_c, 0, 0
2, 759, Note_on_c, 0, 43, 96
2, 1435, Note_on_c, 0, 67, 92
2, 1527, Note_on_c, 0, 62, 90
2, 1537, Note_on_c, 0, 67, 0
2, 2121, Note_on_c, 0, 65, 85
2, 2142, Note_on_c, 0, 62, 0
2, 2215, Note_on_c, 0, 63, 92
2, 2236, Note_on_c, 0, 65, 0
2, 2860, Note_on_c, 0, 58, 73
2, 2940, Note_on_c, 0, 58, 0
2, 2952, Note_on_c, 0, 57, 67
2, 3561, Note_on_c, 0, 60, 68
2, 3579, Note_on_c, 0, 57, 0
2, 3644, Note_on_c, 0, 54, 67
2, 3693, Note_on_c, 0, 60, 0
2, 4053, Note_on_c, 0, 63, 0
2, 4181, Note_on_c, 0, 63, 76
2, 4255, Note_on_c, 0, 63, 0
2, 4263, Note_on_c, 0, 62, 84
2, 4312, Note_on_c, 0, 63, 76
2, 4318, Note_on_c, 0, 62, 0
2, 4355, Note_on_c, 0, 63, 0
2, 4364, Note_on_c, 0, 62, 80
2, 4894, Note_on_c, 0, 60, 90
2, 4894, Note_on_c, 0, 62, 0
2, 5012, Note_on_c, 0, 69, 90
2, 5049, Note_on_c, 0, 60, 0
2, 5508, Note_on_c, 0, 69, 0
2, 5538, Note_on_c, 0, 60, 78
2, 5605, Note_on_c, 0, 60, 0
2, 5615, Note_on_c, 0, 58, 80
2, 5656, Note_on_c, 0, 60, 69
2, 5667, Note_on_c, 0, 58, 0
2, 5708, Note_on_c, 0, 60, 0
2, 5716, Note_on_c, 0, 58, 76
2, 6069, Note_on_c, 0, 43, 0
2, 6109, Note_on_c, 0, 54, 0
2, 6263, Note_on_c, 0, 57, 88
2, 6268, Note_on_c, 0, 58, 0
2, 6375, Note_on_c, 0, 58, 87
2, 6377, Note_on_c, 0, 55, 84
2, 6419, Note_on_c, 0, 57, 0
2, 6973, Note_on_c, 0, 74, 91
2, 7065, Note_on_c, 0, 60, 72
2, 7069, Note_on_c, 0, 69, 94
2, 7084, Note_on_c, 0, 74, 0
2, 7127, Note_on_c, 0, 58, 0
2, 7620, Note_on_c, 0, 72, 89
2, 7641, Note_on_c, 0, 69, 0
2, 7715, Note_on_c, 0, 70, 93
2, 7719, Note_on_c, 0, 62, 69
2, 7738, Note_on_c, 0, 72, 0
2, 7819, Note_on_c, 0, 60, 0
2, 8322, Note_on_c, 0, 65, 75
2, 8400, Note_on_c, 0, 65, 0
2, 8420, Note_on_c, 0, 64, 65
2, 8447, Note_on_c, 0, 62, 0
2, 8990, Note_on_c, 0, 67, 75
2, 9012, Note_on_c, 0, 64, 0
2, 9085, Note_on_c, 0, 61, 73
2, 9112, Note_on_c, 0, 67, 0
2, 9485, Note_on_c, 0, 70, 0
2, 9589, Note_on_c, 0, 70, 77
2, 9647, Note_on_c, 0, 70, 0
2, 9660, Note_on_c, 0, 69, 82
2, 9706, Note_on_c, 0, 70, 75
2, 9710, Note_on_c, 0, 69, 0
2, 9743, Note_on_c, 0, 70, 0
2, 9757, Note_on_c, 0, 69, 79
2, 10314, Note_on_c, 0, 69, 0
2, 10319, Note_on_c, 0, 67, 92
2, 10438, Note_on_c, 0, 76, 92
2, 10476, Note_on_c, 0, 67, 0
2, 10930, Note_on_c, 0, 76, 0
2, 10939, Note_on_c, 0, 67, 72
2, 10961, Note_on_c, 0, 65, 58
2, 10984, Note_on_c, 0, 65, 0
2, 11002, Note_on_c, 0, 67, 0
2, 11009, Note_on_c, 0, 66, 77
2, 11055, Note_on_c, 0, 67, 70
2, 11063, Note_on_c, 0, 66, 0
2, 11101, Note_on_c, 0, 67, 0
2, 11117, Note_on_c, 0, 66, 74
2, 11646, Note_on_c, 0, 66, 0
2, 11651, Note_on_c, 0, 64, 66
2, 11787, Note_on_c, 0, 66, 62
2, 11794, Note_on_c, 0, 64, 0
2, 11803, Note_on_c, 0, 62, 66
2, 11825, Note_on_c, 0, 50, 40
2, 11860, Note_on_c, 0, 55, 0
2, 11891, Note_on_c, 0, 61, 0
2, 12330, Note_on_c, 0, 67, 63
2, 12344, Note_on_c, 0, 66, 0
2, 12435, Note_on_c, 0, 67, 0
2, 12444, Note_on_c, 0, 69, 57
2, 12782, Note_on_c, 0, 60, 58
2, 12995, Note_on_c, 0, 62, 0
2, 13124, Note_on_c, 0, 58, 55
2, 13236, Note_on_c, 0, 60, 0
2, 13674, Note_on_c, 0, 62, 71
2, 13710, Note_on_c, 0, 69, 0
2, 13776, Note_on_c, 0, 67, 68
2, 13788, Note_on_c, 0, 62, 0
2, 14335, Note_on_c, 0, 70, 74
2, 14442, Note_on_c, 0, 72, 75
2, 14446, Note_on_c, 0, 57, 60
2, 14458, Note_on_c, 0, 70, 0
2, 14580, Note_on_c, 0, 58, 0
2, 14812, Note_on_c, 0, 67, 0
2, 15015, Note_on_c, 0, 67, 73
2, 15108, Note_on_c, 0, 67, 0
2, 15114, Note_on_c, 0, 66, 67
2, 15625, Note_on_c, 0, 64, 61
2, 15625, Note_on_c, 0, 66, 0
2, 15735, Note_on_c, 0, 64, 0
2, 15747, Note_on_c, 0, 66, 58
2, 16240, Note_on_c, 0, 74, 73
2, 16273, Note_on_c, 0, 72, 0
2, 16367, Note_on_c, 0, 69, 71
2, 16371, Note_on_c, 0, 74, 0
2, 16374, Note_on_c, 0, 62, 83
2, 16500, Note_on_c, 0, 57, 0
2, 16698, Note_on_c, 0, 51, 67
2, 16741, Note_on_c, 0, 50, 0
2, 16901, Note_on_c, 0, 72, 74
2, 16902, Note_on_c, 0, 66, 0
2, 16921, Note_on_c, 0, 69, 0
2, 17004, Note_on_c, 0, 71, 76
2, 17013, Note_on_c, 0, 53, 66
2, 17014, Note_on_c, 0, 67, 69
2, 17020, Note_on_c, 0, 72, 0
2, 17073, Note_on_c, 0, 51, 0
2, 17529, Note_on_c, 0, 72, 80
2, 17539, Note_on_c, 0, 71, 0
2, 17643, Note_on_c, 0, 74, 82
2, 17661, Note_on_c, 0, 72, 0
2, 17676, Note_on_c, 0, 62, 0
2, 17945, Note_on_c, 0, 59, 78
2, 18307, Note_on_c, 0, 55, 79
2, 18311, Note_on_c, 0, 51, 60
2, 18322, Note_on_c, 0, 59, 0
2, 18362, Note_on_c, 0, 53, 0
2, 18480, Note_on_c, 0, 67, 0
2, 18898, Note_on_c, 0, 67, 78
2, 18940, Note_on_c, 0, 74, 0
2, 19001, Note_on_c, 0, 63, 79
2, 19007, Note_on_c, 0, 72, 73
2, 19116, Note_on_c, 0, 55, 0
2, 19202, Note_on_c, 0, 67, 0
2, 19568, Note_on_c, 0, 75, 87
2, 19674, Note_on_c, 0, 56, 82
2, 19674, Note_on_c, 0, 63, 0
2, 19675, Note_on_c, 0, 77, 90
2, 19683, Note_on_c, 0, 50, 58
2, 19703, Note_on_c, 0, 75, 0
2, 19726, Note_on_c, 0, 51, 0
2, 19914, Note_on_c, 0, 72, 0
2, 20223, Note_on_c, 0, 72, 84
2, 20338, Note_on_c, 0, 53, 76
2, 20342, Note_on_c, 0, 71, 81
2, 20348, Note_on_c, 0, 72, 0
2, 20394, Note_on_c, 0, 56, 0
2, 20906, Note_on_c, 0, 69, 82
2, 20930, Note_on_c, 0, 71, 0
2, 21013, Note_on_c, 0, 71, 87
2, 21015, Note_on_c, 0, 69, 0
2, 21030, Note_on_c, 0, 55, 80
2, 21134, Note_on_c, 0, 53, 0
2, 21173, Note_on_c, 0, 50, 0
2, 21459, Note_on_c, 0, 77, 0
2, 21459, Note_on_c, 0, 77, 4
2, 21586, Note_on_c, 0, 79, 91
2, 21614, Note_on_c, 0, 77, 0
2, 21684, Note_on_c, 0, 43, 80
2, 21685, Note_on_c, 0, 74, 90
2, 21707, Note_on_c, 0, 79, 0
2, 22314, Note_on_c, 0, 77, 98
2, 22326, Note_on_c, 0, 74, 0
2, 22415, Note_on_c, 0, 75, 95
2, 22419, Note_on_c, 0, 48, 83
2, 22433, Note_on_c, 0, 77, 0
2, 22445, Note_on_c, 0, 43, 0
2, 22626, Note_on_c, 0, 71, 0
2, 23054, Note_on_c, 0, 72, 91
2, 23146, Note_on_c, 0, 72, 0
2, 23159, Note_on_c, 0, 67, 84
2, 23757, Note_on_c, 0, 70, 90
2, 23763, Note_on_c, 0, 67, 0
2, 23783, Note_on_c, 0, 75, 0
2, 23849, Note_on_c, 0, 70, 0
2, 23859, Note_on_c, 0, 68, 89
2, 24037, Note_on_c, 0, 55, 0
2, 24464, Note_on_c, 0, 63, 76
2, 24548, Note_on_c, 0, 63, 0
2, 24564, Note_on_c, 0, 62, 71
2, 25187, Note_on_c, 0, 65, 75
2, 25200, Note_on_c, 0, 62, 0
2, 25288, Note_on_c, 0, 59, 77
2, 25320, Note_on_c, 0, 65, 0
2, 25724, Note_on_c, 0, 68, 0
2, 25864, Note_on_c, 0, 68, 93
2, 25958, Note_on_c, 0, 67, 89
2, 25959, Note_on_c, 0, 68, 0
2, 26528, Note_on_c, 0, 65, 92
2, 26532, Note_on_c, 0, 67, 0
2, 26632, Note_on_c, 0, 74, 92
2, 26671, Note_on_c, 0, 65, 0
2, 27204, Note_on_c, 0, 65, 80
2, 27305, Note_on_c, 0, 63, 77
2, 27310, Note_on_c, 0, 65, 0
2, 27764, Note_on_c, 0, 48, 0
2, 27832, Note_on_c, 0, 59, 0
2, 27950, Note_on_c, 0, 62, 88
2, 27958, Note_on_c, 0, 63, 0
2, 28059, Note_on_c, 0, 60, 74
2, 28060, Note_on_c, 0, 63, 83
2, 28072, Note_on_c, 0, 62, 0
2, 28632, Note_on_c, 0, 79, 88
2, 28644, Note_on_c, 0, 74, 0
2, 28723, Note_on_c, 0, 65, 75
2, 28728, Note_on_c, 0, 71, 80
2, 28728, Note_on_c, 0, 74, 89
2, 28748, Note_on_c, 0, 79, 0
2, 28766, Note_on_c, 0, 63, 0
2, 29288, Note_on_c, 0, 77, 91
2, 29293, Note_on_c, 0, 74, 0
2, 29393, Note_on_c, 0, 72, 83
2, 29393, Note_on_c, 0, 75, 90
2, 29402, Note_on_c, 0, 67, 80
2, 29407, Note_on_c, 0, 71, 0
2, 29408, Note_on_c, 0, 65, 0
2, 29426, Note_on_c, 0, 77, 0
2, 29441, Note_on_c, 0, 74, 29
2, 29476, Note_on_c, 0, 74, 0
2, 29961, Note_on_c, 0, 60, 0
2, 29970, Note_on_c, 0, 58, 73
2, 30000, Note_on_c, 0, 67, 0
2, 30075, Note_on_c, 0, 57, 74
2, 30081, Note_on_c, 0, 66, 79
2, 30108, Note_on_c, 0, 58, 0
2, 30485, Note_on_c, 0, 66, 0
2, 30612, Note_on_c, 0, 67, 75
2, 30626, Note_on_c, 0, 60, 59
2, 30658, Note_on_c, 0, 67, 0
2, 30670, Note_on_c, 0, 75, 0
2, 30670, Note_on_c, 0, 75, 6
2, 30722, Note_on_c, 0, 69, 87
2, 30726, Note_on_c, 0, 54, 64
2, 30767, Note_on_c, 0, 57, 0
2, 30807, Note_on_c, 0, 60, 0
2, 30958, Note_on_c, 0, 75, 0
2, 31270, Note_on_c, 0, 75, 88
2, 31372, Note_on_c, 0, 74, 87
2, 31375, Note_on_c, 0, 57, 79
2, 31417, Note_on_c, 0, 75, 0
2, 31499, Note_on_c, 0, 69, 0
2, 31631, Note_on_c, 0, 72, 0
2, 31909, Note_on_c, 0, 72, 91
2, 31933, Note_on_c, 0, 74, 0
2, 32028, Note_on_c, 0, 81, 89
2, 32483, Note_on_c, 0, 72, 0
2, 32627, Note_on_c, 0, 72, 81
2, 32727, Note_on_c, 0, 70, 83
2, 32729, Note_on_c, 0, 62, 69
2, 32755, Note_on_c, 0, 72, 0
2, 32865, Note_on_c, 0, 57, 0
2, 33280, Note_on_c, 0, 69, 79
2, 33289, Note_on_c, 0, 70, 0
2, 33370, Note_on_c, 0, 55, 78
2, 33393, Note_on_c, 0, 70, 85
2, 33405, Note_on_c, 0, 54, 0
2, 33429, Note_on_c, 0, 69, 0
2, 33913, Note_on_c, 0, 79, 79
2, 33945, Note_on_c, 0, 81, 0
2, 34027, Note_on_c, 0, 74, 81
2, 34031, Note_on_c, 0, 67, 85
2, 34044, Note_on_c, 0, 79, 0
2, 34293, Note_on_c, 0, 62, 0
2, 34571, Note_on_c, 0, 77, 89
2, 34594, Note_on_c, 0, 74, 0
2, 34679, Note_on_c, 0, 75, 86
2, 34700, Note_on_c, 0, 77, 0
2, 35030, Note_on_c, 0, 67, 0
2, 35228, Note_on_c, 0, 67, 88
2, 35344, Note_on_c, 0, 62, 82
2, 35345, Note_on_c, 0, 79, 83
2, 35364, Note_on_c, 0, 75, 0
2, 35365, Note_on_c, 0, 67, 0
2, 35891, Note_on_c, 0, 65, 78
2, 35910, Note_on_c, 0, 62, 0
2, 35932, Note_on_c, 0, 70, 0
2, 35986, Note_on_c, 0, 79, 0
2, 35989, Note_on_c, 0, 69, 78
2, 35990, Note_on_c, 0, 73, 82
2, 35999, Note_on_c, 0, 64, 83
2, 36007, Note_on_c, 0, 65, 0
2, 36540, Note_on_c, 0, 55, 0
2, 36564, Note_on_c, 0, 57, 83
2, 36676, Note_on_c, 0, 52, 89
2, 36685, Note_on_c, 0, 57, 0
2, 37199, Note_on_c, 0, 64, 0
2, 37216, Note_on_c, 0, 55, 91
2, 37252, Note_on_c, 0, 52, 0
2, 37311, Note_on_c, 0, 73, 0
2, 37320, Note_on_c, 0, 53, 89
2, 37335, Note_on_c, 0, 65, 80
2, 37336, Note_on_c, 0, 74, 82
2, 37338, Note_on_c, 0, 55, 0
2, 37893, Note_on_c, 0, 53, 0
2, 37897, Note_on_c, 0, 50, 90
2, 38008, Note_on_c, 0, 45, 88
2, 38013, Note_on_c, 0, 50, 0
2, 38579, Note_on_c, 0, 48, 86
2, 38612, Note_on_c, 0, 45, 0
2, 38688, Note_on_c, 0, 46, 80
2, 38699, Note_on_c, 0, 48, 0
2, 39217, Note_on_c, 0, 64, 82
2, 39218, Note_on_c, 0, 65, 0
2, 39261, Note_on_c, 0, 69, 0
2, 39326, Note_on_c, 0, 65, 86
2, 39342, Note_on_c, 0, 64, 0
2, 39839, Note_on_c, 0, 62, 90
2, 39872, Note_on_c, 0, 65, 0
2, 39989, Note_on_c, 0, 69, 90
2, 39991, Note_on_c, 0, 47, 79
2, 40025, Note_on_c, 0, 62, 0
2, 40026, Note_on_c, 0, 46, 0
2, 40193, Note_on_c, 0, 69, 0
2, 40203, Note_on_c, 0, 68, 81
2, 40267, Note_on_c, 0, 68, 0
2, 40270, Note_on_c, 0, 69, 75
2, 40332, Note_on_c, 0, 68, 77
2, 40334, Note_on_c, 0, 69, 0
2, 40386, Note_on_c, 0, 69, 71
2, 40393, Note_on_c, 0, 68, 0
2, 40439, Note_on_c, 0, 68, 75
2, 40443, Note_on_c, 0, 69, 0
2, 40536, Note_on_c, 0, 49, 73
2, 40655, Note_on_c, 0, 50, 72
2, 40669, Note_on_c, 0, 49, 0
2, 40763, Note_on_c, 0, 68, 0
2, 40960, Note_on_c, 0, 68, 88
2, 41125, Note_on_c, 0, 50, 0
2, 41126, Note_on_c, 0, 52, 77
2, 41260, Note_on_c, 0, 53, 78
2, 41266, Note_on_c, 0, 45, 73
2, 41278, Note_on_c, 0, 69, 84
2, 41284, Note_on_c, 0, 52, 0
2, 41296, Note_on_c, 0, 68, 0
2, 41300, Note_on_c, 0, 47, 0
2, 41604, Note_on_c, 0, 74, 0
2, 41814, Note_on_c, 0, 74, 87
2, 41927, Note_on_c, 0, 76, 86
2, 41928, Note_on_c, 0, 55, 76
2, 41931, Note_on_c, 0, 70, 74
2, 41950, Note_on_c, 0, 69, 0
2, 41951, Note_on_c, 0, 74, 0
2, 41988, Note_on_c, 0, 53, 0
2, 42455, Note_on_c, 0, 79, 89
2, 42482, Note_on_c, 0, 76, 0
2, 42565, Note_on_c, 0, 73, 87
2, 42573, Note_on_c, 0, 57, 77
2, 42585, Note_on_c, 0, 79, 0
2, 42653, Note_on_c, 0, 55, 0
2, 42936, Note_on_c, 0, 70, 0
2, 43101, Note_on_c, 0, 74, 85
2, 43102, Note_on_c, 0, 73, 0
2, 43104, Note_on_c, 0, 69, 76
2, 43207, Note_on_c, 0, 69, 0
2, 43210, Note_on_c, 0, 76, 90
2, 43211, Note_on_c, 0, 64, 81
2, 43225, Note_on_c, 0, 49, 72
2, 43236, Note_on_c, 0, 74, 0
2, 43241, Note_on_c, 0, 57, 0
2, 43755, Note_on_c, 0, 67, 78
2, 43757, Note_on_c, 0, 64, 0
2, 43858, Note_on_c, 0, 67, 0
2, 43859, Note_on_c, 0, 50, 78
2, 43859, Note_on_c, 0, 65, 84
2, 43954, Note_on_c, 0, 45, 0
2, 43954, Note_on_c, 0, 49, 0
2, 44434, Note_on_c, 0, 74, 90
2, 44515, Note_on_c, 0, 53, 71
2, 44520, Note_on_c, 0, 76, 0
2, 44535, Note_on_c, 0, 69, 90
2, 44564, Note_on_c, 0, 74, 0
2, 45075, Note_on_c, 0, 72, 85
2, 45091, Note_on_c, 0, 69, 0
2, 45180, Note_on_c, 0, 70, 85
2, 45214, Note_on_c, 0, 72, 0
2, 45372, Note_on_c, 0, 65, 0
2, 45718, Note_on_c, 0, 65, 74
2, 45724, Note_on_c, 0, 57, 70
2, 45740, Note_on_c, 0, 53, 0
2, 45805, Note_on_c, 0, 65, 0
2, 45812, Note_on_c, 0, 64, 74
2, 45825, Note_on_c, 0, 57, 0
2, 45830, Note_on_c, 0, 55, 63
2, 46348, Note_on_c, 0, 53, 66
2, 46348, Note_on_c, 0, 67, 71
2, 46359, Note_on_c, 0, 55, 0
2, 46414, Note_on_c, 0, 64, 0
2, 46454, Note_on_c, 0, 61, 72
2, 46458, Note_on_c, 0, 52, 67
2, 46458, Note_on_c, 0, 53, 0
2, 46524, Note_on_c, 0, 67, 0
2, 46853, Note_on_c, 0, 70, 0
2, 47019, Note_on_c, 0, 70, 80
2, 47121, Note_on_c, 0, 53, 62
2, 47121, Note_on_c, 0, 69, 84
2, 47160, Note_on_c, 0, 52, 0
2, 47167, Note_on_c, 0, 70, 0
2, 47643, Note_on_c, 0, 67, 91
2, 47644, Note_on_c, 0, 69, 0
2, 47760, Note_on_c, 0, 76, 89
2, 47767, Note_on_c, 0, 55, 67
2, 47803, Note_on_c, 0, 67, 0
2, 47816, Note_on_c, 0, 53, 0
2, 48280, Note_on_c, 0, 67, 76
2, 48286, Note_on_c, 0, 76, 0
2, 48401, Note_on_c, 0, 66, 78
2, 48404, Note_on_c, 0, 58, 71
2, 48435, Note_on_c, 0, 67, 0
2, 48504, Note_on_c, 0, 61, 0
2, 48618, Note_on_c, 0, 55, 0
2, 48712, Note_on_c, 0, 50, 0
2, 48899, Note_on_c, 0, 64, 81
2, 48910, Note_on_c, 0, 66, 0
2, 49027, Note_on_c, 0, 66, 72
2, 49029, Note_on_c, 0, 57, 78
2, 49029, Note_on_c, 0, 62, 65
2, 49042, Note_on_c, 0, 48, 67
2, 49046, Note_on_c, 0, 64, 0
2, 49060, Note_on_c, 0, 58, 0
2, 49643, Note_on_c, 0, 67, 64
2, 49653, Note_on_c, 0, 66, 0
2, 49762, Note_on_c, 0, 69, 69
2, 49772, Note_on_c, 0, 67, 0
2, 49822, Note_on_c, 0, 57, 0
2, 50086, Note_on_c, 0, 54, 77
2, 50454, Note_on_c, 0, 50, 79
2, 50462, Note_on_c, 0, 46, 58
2, 50475, Note_on_c, 0, 54, 0
2, 50567, Note_on_c, 0, 48, 0
2, 50624, Note_on_c, 0, 62, 0
2, 51017, Note_on_c, 0, 62, 83
2, 51062, Note_on_c, 0, 69, 0
2, 51136, Note_on_c, 0, 58, 78
2, 51139, Note_on_c, 0, 67, 80
2, 51251, Note_on_c, 0, 50, 0
2, 51266, Note_on_c, 0, 62, 0
2, 51691, Note_on_c, 0, 70, 80
2, 51792, Note_on_c, 0, 72, 85
2, 51793, Note_on_c, 0, 58, 0
2, 51794, Note_on_c, 0, 70, 0
2, 51796, Note_on_c, 0, 51, 82
2, 51800, Note_on_c, 0, 45, 62
2, 51864, Note_on_c, 0, 46, 0
2, 52162, Note_on_c, 0, 67, 0
2, 52380, Note_on_c, 0, 67, 79
2, 52475, Note_on_c, 0, 66, 80
2, 52480, Note_on_c, 0, 48, 75
2, 52484, Note_on_c, 0, 67, 0
2, 52542, Note_on_c, 0, 51, 0
2, 53016, Note_on_c, 0, 64, 80
2, 53018, Note_on_c, 0, 66, 0
2, 53114, Note_on_c, 0, 50, 78
2, 53125, Note_on_c, 0, 66, 77
2, 53153, Note_on_c, 0, 64, 0
2, 53196, Note_on_c, 0, 48, 0
2, 53246, Note_on_c, 0, 45, 0
2, 53689, Note_on_c, 0, 74, 85
2, 53719, Note_on_c, 0, 72, 0
2, 53794, Note_on_c, 0, 69, 89
2, 53795, Note_on_c, 0, 38, 81
2, 53813, Note_on_c, 0, 74, 0
2, 54365, Note_on_c, 0, 72, 79
2, 54388, Note_on_c, 0, 69, 0
2, 54479, Note_on_c, 0, 70, 82
2, 54483, Note_on_c, 0, 43, 83
2, 54508, Note_on_c, 0, 72, 0
2, 54523, Note_on_c, 0, 38, 0
2, 54605, Note_on_c, 0, 50, 0
2, 54692, Note_on_c, 0, 66, 0
2, 55022, Note_on_c, 0, 67, 85
2, 55132, Note_on_c, 0, 46, 85
2, 55136, Note_on_c, 0, 62, 83
2, 55144, Note_on_c, 0, 67, 0
2, 55176, Note_on_c, 0, 43, 0
2, 55648, Note_on_c, 0, 62, 0
2, 55667, Note_on_c, 0, 65, 76
2, 55668, Note_on_c, 0, 50, 67
2, 55700, Note_on_c, 0, 46, 0
2, 55767, Note_on_c, 0, 55, 67
2, 55767, Note_on_c, 0, 65, 0
2, 55769, Note_on_c, 0, 50, 0
2, 55774, Note_on_c, 0, 63, 71
2, 55926, Note_on_c, 0, 70, 0
2, 56036, Control_c, 0, 67, 11
2, 56052, Control_c, 0, 67, 19
2, 56067, Control_c, 0, 67, 28
2, 56081, Control_c, 0, 67, 40
2, 56097, Control_c, 0, 67, 50
2, 56112, Control_c, 0, 67, 59
2, 56126, Control_c, 0, 67, 70
2, 56142, Control_c, 0, 67, 80
2, 56157, Control_c, 0, 67, 90
2, 56174, Control_c, 0, 67, 103
2, 56189, Control_c, 0, 67, 114
2, 56204, Control_c, 0, 67, 123
2, 56219, Control_c, 0, 67, 127
2, 56344, Note_on_c, 0, 70, 74
2, 56380, Note_on_c, 0, 63, 0
2, 56453, Note_on_c, 0, 70, 0
2, 56456, Note_on_c, 0, 75, 66
2, 56464, Note_on_c, 0, 58, 50
2, 56992, Note_on_c, 0, 79, 62
2, 57026, Note_on_c, 0, 75, 0
2, 57079, Note_on_c, 0, 79, 0
2, 57103, Note_on_c, 0, 60, 49
2, 57110, Note_on_c, 0, 68, 62
2, 57178, Note_on_c, 0, 58, 0
2, 57654, Note_on_c, 0, 62, 64
2, 57662, Note_on_c, 0, 53, 68
2, 57673, Note_on_c, 0, 55, 0
2, 57698, Note_on_c, 0, 60, 0
2, 57754, Note_on_c, 0, 62, 0
2, 57769, Note_on_c, 0, 63, 54
2, 57780, Note_on_c, 0, 48, 58
2, 57794, Note_on_c, 0, 53, 0
2, 58223, Note_on_c, 0, 63, 0
2, 58255, Note_on_c, 0, 51, 67
2, 58268, Note_on_c, 0, 60, 65
2, 58298, Note_on_c, 0, 48, 0
2, 58305, Note_on_c, 0, 60, 0
2, 58436, Note_on_c, 0, 65, 43
2, 58461, Note_on_c, 0, 50, 48
2, 58464, Note_on_c, 0, 65, 0
2, 58467, Note_on_c, 0, 63, 60
2, 58483, Note_on_c, 0, 51, 0
2, 58507, Note_on_c, 0, 63, 0
2, 58538, Note_on_c, 0, 65, 59
2, 59046, Note_on_c, 0, 46, 57
2, 59105, Note_on_c, 0, 50, 0
2, 59171, Note_on_c, 0, 41, 56
2, 59179, Note_on_c, 0, 65, 0
2, 59187, Note_on_c, 0, 46, 0
2, 59495, Note_on_c, 0, 65, 63
2, 59694, Note_on_c, 0, 44, 48
2, 59743, Note_on_c, 0, 41, 0
2, 59800, Note_on_c, 0, 58, 58
2, 59807, Note_on_c, 0, 43, 55
2, 59819, Note_on_c, 0, 44, 0
2, 59847, Note_on_c, 0, 65, 0
2, 60343, Note_on_c, 0, 62, 70
2, 60451, Note_on_c, 0, 68, 0
2, 60461, Note_on_c, 0, 46, 58
2, 60461, Note_on_c, 0, 65, 69
2, 60494, Note_on_c, 0, 62, 0
2, 60946, Note_on_c, 0, 68, 75
2, 61046, Note_on_c, 0, 65, 0
2, 61078, Note_on_c, 0, 67, 66
2, 61095, Note_on_c, 0, 51, 57
2, 61118, Note_on_c, 0, 68, 0
2, 61188, Note_on_c, 0, 46, 0
2, 61375, Note_on_c, 0, 58, 0
2, 61601, Note_on_c, 0, 58, 61
2, 61709, Note_on_c, 0, 55, 55
2, 61717, Note_on_c, 0, 63, 58
2, 61767, Note_on_c, 0, 67, 0
2, 61815, Note_on_c, 0, 51, 0
2, 61855, Note_on_c, 0, 58, 0
2, 62054, Note_on_c, 0, 67, 69
2, 62360, Note_on_c, 0, 48, 55
2, 62368, Note_on_c, 0, 65, 57
2, 62371, Note_on_c, 0, 45, 42
2, 62379, Note_on_c, 0, 67, 0
2, 62413, Note_on_c, 0, 55, 0
2, 62428, Note_on_c, 0, 43, 0
2, 62626, Note_on_c, 0, 63, 0
2, 62930, Note_on_c, 0, 63, 64
2, 63034, Note_on_c, 0, 63, 0
2, 63047, Note_on_c, 0, 62, 58
2, 63601, Note_on_c, 0, 60, 69
2, 63614, Note_on_c, 0, 62, 0
2, 63705, Note_on_c, 0, 60, 0
2, 63711, Note_on_c, 0, 48, 0
2, 63712, Note_on_c, 0, 47, 45
2, 63721, Note_on_c, 0, 55, 41
2, 63721, Note_on_c, 0, 62, 54
2, 63856, Note_on_c, 0, 45, 0
2, 63914, Note_on_c, 0, 65, 0
2, 64261, Note_on_c, 0, 65, 62
2, 64370, Note_on_c, 0, 65, 0
2, 64376, Note_on_c, 0, 67, 57
2, 64663, Note_on_c, 0, 62, 0
2, 64954, Note_on_c, 0, 62, 51
2, 64962, Note_on_c, 0, 67, 0
2, 65064, Note_on_c, 0, 63, 53
2, 65075, Note_on_c, 0, 48, 46
2, 65201, Note_on_c, 0, 47, 0
2, 65289, Note_on_c, 0, 62, 0
2, 65660, Note_on_c, 0, 59, 58
2, 65766, Note_on_c, 0, 55, 0
2, 65771, Note_on_c, 0, 59, 0
2, 65773, Note_on_c, 0, 60, 54
2, 66311, Note_on_c, 0, 55, 46
2, 66331, Note_on_c, 0, 60, 0
2, 66407, Note_on_c, 0, 55, 0
2, 66433, Note_on_c, 0, 51, 56
2, 66458, Note_on_c, 0, 48, 0
2, 66973, Note_on_c, 0, 55, 51
2, 66977, Note_on_c, 0, 75, 61
2, 67001, Note_on_c, 0, 51, 0
2, 67033, Control_c, 0, 67, 123
2, 67049, Control_c, 0, 67, 120
2, 67063, Control_c, 0, 67, 117
2, 67072, Note_on_c, 0, 75, 0
2, 67078, Control_c, 0, 67, 116
2, 67080, Note_on_c, 0, 69, 62
2, 67082, Note_on_c, 0, 48, 50
2, 67094, Control_c, 0, 67, 115
2, 67094, Note_on_c, 0, 55, 0
2, 67109, Control_c, 0, 67, 115
2, 67284, Control_c, 0, 67, 115
2, 67325, Note_on_c, 0, 63, 0
2, 67466, Control_c, 0, 67, 116
2, 67635, Note_on_c, 0, 72, 64
2, 67641, Note_on_c, 0, 51, 56
2, 67644, Note_on_c, 0, 69, 0
2, 67736, Note_on_c, 0, 51, 0
2, 67740, Note_on_c, 0, 66, 62
2, 67744, Note_on_c, 0, 72, 0
2, 67748, Note_on_c, 0, 50, 49
2, 68065, Control_c, 0, 67, 115
2, 68125, Control_c, 0, 67, 115
2, 68186, Control_c, 0, 67, 114
2, 68238, Note_on_c, 0, 66, 0
2, 68239, Note_on_c, 0, 62, 73
2, 68247, Control_c, 0, 67, 114
2, 68259, Note_on_c, 0, 54, 49
2, 68267, Note_on_c, 0, 50, 0
2, 68293, Control_c, 0, 67, 113
2, 68323, Control_c, 0, 67, 112
2, 68354, Note_on_c, 0, 66, 66
2, 68366, Note_on_c, 0, 54, 0
2, 68368, Control_c, 0, 67, 112
2, 68376, Note_on_c, 0, 57, 59
2, 68429, Note_on_c, 0, 62, 0
2, 68476, Control_c, 0, 67, 111
2, 68504, Note_on_c, 0, 48, 0
2, 68675, Note_on_c, 0, 48, 61
2, 68742, Control_c, 0, 67, 110
2, 68848, Control_c, 0, 67, 110
2, 68894, Control_c, 0, 67, 109
2, 68911, Note_on_c, 0, 69, 70
2, 68923, Control_c, 0, 67, 109
2, 68939, Control_c, 0, 67, 108
2, 68945, Note_on_c, 0, 66, 0
2, 68954, Control_c, 0, 67, 100
2, 68969, Control_c, 0, 67, 87
2, 68985, Control_c, 0, 67, 79
2, 68999, Control_c, 0, 67, 75
2, 69015, Control_c, 0, 67, 74
2, 69015, Note_on_c, 0, 46, 61
2, 69027, Note_on_c, 0, 74, 74
2, 69030, Control_c, 0, 67, 73
2, 69040, Note_on_c, 0, 69, 0
2, 69044, Note_on_c, 0, 48, 0
2, 69045, Control_c, 0, 67, 72
2, 69061, Control_c, 0, 67, 70
2, 69076, Control_c, 0, 67, 68
2, 69092, Control_c, 0, 67, 65
2, 69107, Control_c, 0, 67, 63
2, 69122, Control_c, 0, 67, 60
2, 69137, Control_c, 0, 67, 58
2, 69152, Control_c, 0, 67, 57
2, 69167, Control_c, 0, 67, 56
2, 69183, Control_c, 0, 67, 55
2, 69198, Control_c, 0, 67, 53
2, 69213, Control_c, 0, 67, 52
2, 69228, Control_c, 0, 67, 51
2, 69243, Control_c, 0, 67, 50
2, 69291, Control_c, 0, 67, 50
2, 69586, Control_c, 0, 67, 49
2, 69596, Note_on_c, 0, 69, 73
2, 69602, Note_on_c, 0, 54, 65
2, 69623, Note_on_c, 0, 57, 0
2, 69632, Control_c, 0, 67, 48
2, 69646, Control_c, 0, 67, 48
2, 69677, Control_c, 0, 67, 47
2, 69693, Control_c, 0, 67, 46
2, 69708, Control_c, 0, 67, 46
2, 69711, Note_on_c, 0, 54, 0
2, 69712, Note_on_c, 0, 55, 65
2, 69712, Note_on_c, 0, 70, 69
2, 69722, Control_c, 0, 67, 45
2, 69735, Note_on_c, 0, 69, 0
2, 69738, Control_c, 0, 67, 42
2, 69753, Control_c, 0, 67, 40
2, 69767, Control_c, 0, 67, 38
2, 69783, Control_c, 0, 67, 36
2, 69798, Control_c, 0, 67, 35
2, 69814, Control_c, 0, 67, 33
2, 69829, Control_c, 0, 67, 31
2, 69843, Control_c, 0, 67, 29
2, 69859, Control_c, 0, 67, 28
2, 69874, Control_c, 0, 67, 26
2, 69889, Control_c, 0, 67, 25
2, 69905, Control_c, 0, 67, 24
2, 69920, Control_c, 0, 67, 22
2, 69936, Control_c, 0, 67, 21
2, 69950, Control_c, 0, 67, 19
2, 69965, Control_c, 0, 67, 17
2, 69981, Control_c, 0, 67, 16
2, 69996, Control_c, 0, 67, 14
2, 70012, Control_c, 0, 67, 14
2, 70027, Control_c, 0, 67, 13
2, 70042, Control_c, 0, 67, 11
2, 70057, Control_c, 0, 67, 11
2, 70072, Control_c, 0, 67, 9
2, 70087, Control_c, 0, 67, 9
2, 70103, Control_c, 0, 67, 8
2, 70118, Control_c, 0, 67, 0
2, 70224, Note_on_c, 0, 55, 0
2, 70241, Note_on_c, 0, 57, 54
2, 70262, Note_on_c, 0, 66, 76
2, 70299, Note_on_c, 0, 70, 0
2, 70327, Note_on_c, 0, 57, 0
2, 70367, Note_on_c, 0, 67, 75
2, 70368, Note_on_c, 0, 58, 64
2, 70369, Note_on_c, 0, 66, 0
2, 70552, Note_on_c, 0, 46, 0
2, 70919, Note_on_c, 0, 46, 73
2, 71038, Note_on_c, 0, 48, 70
2, 71061, Note_on_c, 0, 46, 0
2, 71542, Note_on_c, 0, 50, 81
2, 71555, Note_on_c, 0, 48, 0
2, 71659, Note_on_c, 0, 51, 78
2, 71662, Note_on_c, 0, 50, 0
2, 72045, Note_on_c, 0, 58, 0
2, 72217, Note_on_c, 0, 79, 80
2, 72230, Note_on_c, 0, 58, 66
2, 72233, Note_on_c, 0, 74, 0
2, 72319, Note_on_c, 0, 72, 82
2, 72322, Note_on_c, 0, 79, 0
2, 72326, Note_on_c, 0, 57, 64
2, 72330, Note_on_c, 0, 58, 0
2, 72840, Note_on_c, 0, 57, 0
2, 72850, Note_on_c, 0, 75, 82
2, 72854, Note_on_c, 0, 58, 63
2, 72866, Note_on_c, 0, 72, 0
2, 72875, Note_on_c, 0, 67, 0
2, 72954, Note_on_c, 0, 65, 74
2, 72955, Note_on_c, 0, 69, 79
2, 72958, Note_on_c, 0, 60, 76
2, 72965, Note_on_c, 0, 75, 0
2, 72969, Note_on_c, 0, 58, 0
2, 73273, Note_on_c, 0, 65, 0
2, 73473, Note_on_c, 0, 65, 89
2, 73483, Note_on_c, 0, 69, 0
2, 73491, Note_on_c, 0, 57, 67
2, 73502, Note_on_c, 0, 60, 0
2, 73590, Note_on_c, 0, 53, 73
2, 73591, Note_on_c, 0, 69, 83
2, 73620, Note_on_c, 0, 57, 0
2, 73661, Note_on_c, 0, 65, 0
2, 74123, Note_on_c, 0, 72, 90
2, 74129, Note_on_c, 0, 57, 75
2, 74162, Note_on_c, 0, 53, 0
2, 74163, Note_on_c, 0, 69, 0
2, 74236, Note_on_c, 0, 62, 81
2, 74236, Note_on_c, 0, 77, 95
2, 74263, Note_on_c, 0, 51, 0
2, 74269, Note_on_c, 0, 72, 0
2, 74300, Note_on_c, 0, 57, 0
2, 74752, Note_on_c, 0, 65, 89
2, 74759, Note_on_c, 0, 50, 78
2, 74858, Note_on_c, 0, 67, 90
2, 74866, Note_on_c, 0, 51, 75
2, 74891, Note_on_c, 0, 65, 0
2, 74896, Note_on_c, 0, 50, 0
2, 75372, Note_on_c, 0, 67, 0
2, 75375, Note_on_c, 0, 69, 91
2, 75381, Note_on_c, 0, 53, 80
2, 75460, Note_on_c, 0, 51, 0
2, 75481, Note_on_c, 0, 55, 84
2, 75481, Note_on_c, 0, 70, 84
2, 75506, Note_on_c, 0, 53, 0
2, 75514, Note_on_c, 0, 69, 0
2, 76069, Note_on_c, 0, 82, 92
2, 76080, Note_on_c, 0, 77, 0
2, 76179, Note_on_c, 0, 79, 90
2, 76210, Note_on_c, 0, 82, 0
2, 76595, Note_on_c, 0, 79, 0
2, 76632, Note_on_c, 0, 74, 89
2, 76813, Note_on_c, 0, 74, 0
2, 76816, Note_on_c, 0, 77, 93
2, 76958, Note_on_c, 0, 77, 0
2, 77003, Note_on_c, 0, 76, 61
2, 77059, Note_on_c, 0, 77, 82
2, 77064, Note_on_c, 0, 76, 0
2, 77117, Note_on_c, 0, 76, 70
2, 77181, Note_on_c, 0, 76, 0
2, 77226, Note_on_c, 0, 76, 77
2, 77245, Note_on_c, 0, 77, 0
2, 77317, Note_on_c, 0, 62, 0
2, 77319, Note_on_c, 0, 61, 81
2, 77435, Note_on_c, 0, 60, 88
2, 77467, Note_on_c, 0, 61, 0
2, 77585, Note_on_c, 0, 76, 0
2, 77737, Note_on_c, 0, 76, 92
2, 77945, Note_on_c, 0, 58, 78
2, 77957, Note_on_c, 0, 60, 0
2, 78059, Note_on_c, 0, 77, 92
2, 78066, Note_on_c, 0, 60, 89
2, 78072, Note_on_c, 0, 53, 77
2, 78088, Note_on_c, 0, 76, 0
2, 78092, Note_on_c, 0, 55, 0
2, 78099, Note_on_c, 0, 58, 0
2, 78485, Note_on_c, 0, 70, 0
2, 78614, Note_on_c, 0, 70, 92
2, 78737, Note_on_c, 0, 68, 87
2, 78763, Note_on_c, 0, 70, 0
2, 79253, Note_on_c, 0, 67, 83
2, 79259, Note_on_c, 0, 68, 0
2, 79366, Note_on_c, 0, 68, 83
2, 79389, Note_on_c, 0, 67, 0
2, 79635, Note_on_c, 0, 60, 0
2, 79868, Note_on_c, 0, 60, 81
2, 79874, Note_on_c, 0, 75, 84
2, 79978, Note_on_c, 0, 65, 86
2, 79984, Note_on_c, 0, 74, 78
2, 79987, Note_on_c, 0, 77, 0
2, 80009, Note_on_c, 0, 60, 0
2, 80016, Note_on_c, 0, 75, 0
2, 80490, Note_on_c, 0, 63, 80
2, 80494, Note_on_c, 0, 65, 0
2, 80501, Note_on_c, 0, 77, 84
2, 80535, Note_on_c, 0, 68, 0
2, 80550, Note_on_c, 0, 74, 0
2, 80612, Note_on_c, 0, 71, 86
2, 80616, Note_on_c, 0, 67, 78
2, 80621, Note_on_c, 0, 62, 78
2, 80624, Note_on_c, 0, 77, 0
2, 80626, Note_on_c, 0, 64, 50
2, 80639, Note_on_c, 0, 63, 0
2, 80649, Note_on_c, 0, 64, 0
2, 81206, Note_on_c, 0, 55, 84
2, 81207, Note_on_c, 0, 53, 0
2, 81317, Note_on_c, 0, 50, 83
2, 81325, Note_on_c, 0, 55, 0
2, 81830, Note_on_c, 0, 62, 0
2, 81838, Note_on_c, 0, 53, 88
2, 81870, Note_on_c, 0, 50, 0
2, 81944, Note_on_c, 0, 63, 82
2, 81946, Note_on_c, 0, 72, 77
2, 81947, Note_on_c, 0, 51, 88
2, 81966, Note_on_c, 0, 53, 0
2, 82067, Note_on_c, 0, 71, 0
2, 82518, Note_on_c, 0, 48, 83
2, 82518, Note_on_c, 0, 51, 0
2, 82630, Note_on_c, 0, 43, 89
2, 82642, Note_on_c, 0, 48, 0
2, 83165, Note_on_c, 0, 46, 81
2, 83186, Note_on_c, 0, 43, 0
2, 83268, Note_on_c, 0, 45, 82
2, 83297, Note_on_c, 0, 46, 0
2, 83500, Note_on_c, 0, 67, 0
2, 83676, Note_on_c, 0, 63, 0
2, 83812, Note_on_c, 0, 74, 87
2, 83829, Note_on_c, 0, 72, 0
2, 83872, Note_on_c, 0, 65, 10
2, 83922, Note_on_c, 0, 75, 92
2, 83930, Note_on_c, 0, 55, 79
2, 83954, Note_on_c, 0, 74, 0
2, 83962, Note_on_c, 0, 76, 46
2, 84008, Note_on_c, 0, 65, 0
2, 84059, Note_on_c, 0, 76, 0
2, 84140, Note_on_c, 0, 75, 0
2, 84417, Note_on_c, 0, 70, 85
2, 84551, Note_on_c, 0, 72, 88
2, 84561, Note_on_c, 0, 54, 77
2, 84570, Note_on_c, 0, 70, 0
2, 84595, Note_on_c, 0, 55, 0
2, 85112, Note_on_c, 0, 67, 75
2, 85221, Note_on_c, 0, 57, 81
2, 85226, Note_on_c, 0, 66, 73
2, 85228, Note_on_c, 0, 67, 0
2, 85319, Note_on_c, 0, 54, 0
2, 85761, Note_on_c, 0, 69, 76
2, 85763, Note_on_c, 0, 66, 0
2, 85877, Note_on_c, 0, 46, 77
2, 85879, Note_on_c, 0, 62, 81
2, 85879, Note_on_c, 0, 69, 0
2, 85909, Note_on_c, 0, 45, 0
2, 86158, Note_on_c, 0, 72, 0
2, 86418, Note_on_c, 0, 72, 91
2, 86526, Note_on_c, 0, 74, 92
2, 86530, Note_on_c, 0, 55, 84
2, 86542, Note_on_c, 0, 57, 0
2, 86546, Note_on_c, 0, 72, 0
2, 87065, Note_on_c, 0, 69, 89
2, 87066, Note_on_c, 0, 54, 74
2, 87070, Note_on_c, 0, 55, 0
2, 87077, Note_on_c, 0, 74, 0
2, 87185, Note_on_c, 0, 55, 82
2, 87187, Note_on_c, 0, 70, 85
2, 87204, Note_on_c, 0, 54, 0
2, 87204, Note_on_c, 0, 69, 0
2, 87754, Note_on_c, 0, 66, 69
2, 87861, Note_on_c, 0, 67, 73
2, 87866, Note_on_c, 0, 62, 0
2, 87887, Note_on_c, 0, 66, 0
2, 88347, Note_on_c, 0, 67, 0
2, 88357, Note_on_c, 0, 62, 80
2, 88465, Note_on_c, 0, 48, 77
2, 88465, Note_on_c, 0, 63, 81
2, 88482, Note_on_c, 0, 62, 0
2, 88494, Note_on_c, 0, 46, 0
2, 88967, Note_on_c, 0, 75, 86
2, 88994, Note_on_c, 0, 70, 0
2, 89079, Note_on_c, 0, 67, 80
2, 89083, Note_on_c, 0, 60, 89
2, 89117, Note_on_c, 0, 75, 0
2, 89328, Note_on_c, 0, 55, 0
2, 89606, Note_on_c, 0, 70, 83
2, 89631, Note_on_c, 0, 67, 0
2, 89713, Note_on_c, 0, 68, 79
2, 89735, Note_on_c, 0, 69, 72
2, 89747, Note_on_c, 0, 70, 0
2, 89878, Note_on_c, 0, 69, 0
2, 90066, Note_on_c, 0, 60, 0
2, 90245, Note_on_c, 0, 60, 92
2, 90361, Note_on_c, 0, 72, 87
2, 90368, Note_on_c, 0, 55, 81
2, 90368, Note_on_c, 0, 68, 0
2, 90388, Note_on_c, 0, 60, 0
2, 90897, Note_on_c, 0, 58, 81
2, 90907, Note_on_c, 0, 55, 0
2, 90943, Note_on_c, 0, 63, 0
2, 91003, Note_on_c, 0, 72, 0
2, 91013, Note_on_c, 0, 57, 81
2, 91014, Note_on_c, 0, 66, 77
2, 91015, Note_on_c, 0, 62, 73
2, 91018, Note_on_c, 0, 58, 0
2, 91577, Note_on_c, 0, 48, 0
2, 91598, Note_on_c, 0, 50, 85
2, 91709, Note_on_c, 0, 45, 84
2, 91718, Note_on_c, 0, 50, 0
2, 92227, Note_on_c, 0, 57, 0
2, 92257, Note_on_c, 0, 48, 87
2, 92287, Note_on_c, 0, 45, 0
2, 92363, Note_on_c, 0, 46, 87
2, 92367, Note_on_c, 0, 58, 83
2, 92367, Note_on_c, 0, 67, 79
2, 92382, Note_on_c, 0, 48, 0
2, 92409, Note_on_c, 0, 66, 0
2, 92914, Note_on_c, 0, 43, 83
2, 92919, Note_on_c, 0, 46, 0
2, 93031, Note_on_c, 0, 43, 0
2, 93033, Note_on_c, 0, 38, 77
2, 93041, Note_on_c, 0, 40, 70
2, 93122, Note_on_c, 0, 40, 0
2, 93574, Note_on_c, 0, 41, 82
2, 93606, Note_on_c, 0, 38, 0
2, 93691, Note_on_c, 0, 39, 84
2, 93704, Note_on_c, 0, 41, 0
2, 94180, Note_on_c, 0, 66, 79
2, 94187, Note_on_c, 0, 67, 0
2, 94288, Note_on_c, 0, 67, 87
2, 94290, Note_on_c, 0, 51, 72
2, 94318, Note_on_c, 0, 66, 0
2, 94370, Note_on_c, 0, 39, 0
2, 94786, Note_on_c, 0, 50, 64
2, 94786, Note_on_c, 0, 51, 0
2, 94791, Note_on_c, 0, 70, 81
2, 94801, Note_on_c, 0, 58, 0
2, 94840, Note_on_c, 0, 67, 0
2, 94849, Note_on_c, 0, 62, 0
2, 94907, Note_on_c, 0, 61, 80
2, 94916, Note_on_c, 0, 51, 78
2, 94942, Note_on_c, 0, 50, 0
2, 95143, Note_on_c, 0, 70, 0
2, 95377, Note_on_c, 0, 54, 83
2, 95378, Note_on_c, 0, 70, 78
2, 95488, Note_on_c, 0, 51, 0
2, 95496, Note_on_c, 0, 69, 79
2, 95501, Note_on_c, 0, 55, 75
2, 95506, Note_on_c, 0, 52, 68
2, 95517, Note_on_c, 0, 54, 0
2, 95527, Note_on_c, 0, 70, 0
2, 96010, Note_on_c, 0, 55, 0
2, 96024, Note_on_c, 0, 57, 66
2, 96024, Note_on_c, 0, 67, 77
2, 96063, Note_on_c, 0, 61, 0
2, 96127, Note_on_c, 0, 52, 0
2, 96132, Note_on_c, 0, 69, 0
2, 96133, Note_on_c, 0, 66, 77
2, 96140, Note_on_c, 0, 50, 63
2, 96141, Note_on_c, 0, 62, 70
2, 96152, Note_on_c, 0, 58, 68
2, 96156, Note_on_c, 0, 67, 0
2, 96184, Note_on_c, 0, 57, 0
2, 96670, Note_on_c, 0, 61, 72
2, 96686, Note_on_c, 0, 62, 0
2, 96788, Note_on_c, 0, 62, 78
2, 96804, Note_on_c, 0, 61, 0
2, 96835, Note_on_c, 0, 66, 0
2, 97090, Note_on_c, 0, 66, 89
2, 97448, Note_on_c, 0, 67, 86
2, 97481, Note_on_c, 0, 66, 0
2, 97720, Note_on_c, 0, 58, 0
2, 97981, Note_on_c, 0, 58, 84
2, 97984, Note_on_c, 0, 61, 81
2, 97994, Note_on_c, 0, 62, 0
2, 98094, Note_on_c, 0, 57, 79
2, 98106, Note_on_c, 0, 58, 0
2, 98106, Note_on_c, 0, 62, 82
2, 98129, Note_on_c, 0, 61, 0
2, 98601, Note_on_c, 0, 55, 76
2, 98614, Note_on_c, 0, 57, 0
2, 98729, Note_on_c, 0, 57, 85
2, 98765, Note_on_c, 0, 55, 0
2, 99239, Note_on_c, 0, 70, 85
2, 99253, Note_on_c, 0, 62, 0
2, 99289, Note_on_c, 0, 67, 0
2, 99341, Note_on_c, 0, 60, 80
2, 99346, Note_on_c, 0, 69, 84
2, 99378, Note_on_c, 0, 70, 0
2, 99873, Note_on_c, 0, 72, 93
2, 99900, Note_on_c, 0, 69, 0
2, 99991, Note_on_c, 0, 66, 87
2, 100019, Note_on_c, 0, 72, 0
2, 100533, Note_on_c, 0, 63, 80
2, 100552, Note_on_c, 0, 60, 0
2, 100640, Note_on_c, 0, 63, 0
2, 100646, Note_on_c, 0, 62, 76
2, 101128, Note_on_c, 0, 57, 0
2, 101166, Note_on_c, 0, 60, 74
2, 101283, Note_on_c, 0, 67, 74
2, 101293, Note_on_c, 0, 43, 55
2, 101294, Note_on_c, 0, 55, 60
2, 101295, Note_on_c, 0, 62, 0
2, 101306, Note_on_c, 0, 66, 0
2, 101410, Note_on_c, 0, 50, 0
2, 101826, Note_on_c, 0, 60, 0
2, 101836, Note_on_c, 0, 57, 61
2, 101949, Note_on_c, 0, 57, 0
2, 101954, Note_on_c, 0, 59, 57
2, 102277, Note_on_c, 0, 65, 71
2, 102342, Note_on_c, 0, 67, 0
2, 102638, Note_on_c, 0, 63, 71
2, 102669, Note_on_c, 0, 65, 0
2, 103003, Note_on_c, 0, 59, 0
2, 103155, Note_on_c, 0, 59, 58
2, 103263, Note_on_c, 0, 60, 66
2, 103326, Note_on_c, 0, 63, 0
2, 103568, Note_on_c, 0, 63, 75
2, 103572, Note_on_c, 0, 54, 61
2, 103598, Note_on_c, 0, 59, 0
2, 103635, Note_on_c, 0, 55, 0
2, 103909, Note_on_c, 0, 62, 64
2, 103914, Note_on_c, 0, 55, 59
2, 104022, Note_on_c, 0, 63, 0
2, 104210, Note_on_c, 0, 54, 0
2, 104237, Note_on_c, 0, 60, 0
2, 104364, Note_on_c, 0, 60, 65
2, 104423, Note_on_c, 0, 62, 0
2, 104493, Note_on_c, 0, 59, 72
2, 104512, Note_on_c, 0, 60, 0
2, 104660, Note_on_c, 0, 59, 0
2, 104779, Note_on_c, 0, 67, 89
2, 104783, Note_on_c, 0, 53, 74
2, 104797, Note_on_c, 0, 55, 0
2, 104919, Note_on_c, 0, 51, 71
2, 104955, Note_on_c, 0, 53, 0
2, 105090, Note_on_c, 0, 77, 95
2, 105105, Note_on_c, 0, 50, 73
2, 105143, Note_on_c, 0, 51, 0
2, 105148, Note_on_c, 0, 67, 0
2, 105254, Note_on_c, 0, 43, 0
2, 105543, Note_on_c, 0, 72, 91
2, 105554, Note_on_c, 0, 43, 71
2, 105589, Note_on_c, 0, 50, 0
2, 105671, Note_on_c, 0, 71, 89
2, 105676, Note_on_c, 0, 55, 83
2, 105676, Note_on_c, 0, 72, 0
2, 105980, Note_on_c, 0, 74, 86
2, 105996, Note_on_c, 0, 77, 0
2, 106312, Note_on_c, 0, 75, 94
2, 106334, Note_on_c, 0, 74, 0
2, 106655, Note_on_c, 0, 71, 0
2, 106757, Note_on_c, 0, 53, 84
2, 106766, Note_on_c, 0, 67, 85
2, 106784, Note_on_c, 0, 55, 0
2, 106889, Note_on_c, 0, 51, 77
2, 106896, Note_on_c, 0, 72, 87
2, 106912, Note_on_c, 0, 53, 0
2, 106928, Note_on_c, 0, 67, 0
2, 107183, Note_on_c, 0, 74, 88
2, 107211, Note_on_c, 0, 75, 0
2, 107321, Note_on_c, 0, 51, 0
2, 107322, Note_on_c, 0, 55, 85
2, 107471, Note_on_c, 0, 48, 80
2, 107474, Note_on_c, 0, 55, 0
2, 107474, Note_on_c, 0, 75, 93
2, 107492, Note_on_c, 0, 74, 0
2, 107700, Note_on_c, 0, 72, 0
2, 107937, Note_on_c, 0, 51, 76
2, 107940, Note_on_c, 0, 75, 0
2, 107943, Note_on_c, 0, 48, 0
2, 107944, Note_on_c, 0, 72, 94
2, 108021, Note_on_c, 0, 51, 0
2, 108023, Note_on_c, 0, 50, 76
2, 108087, Note_on_c, 0, 79, 88
2, 108103, Note_on_c, 0, 51, 79
2, 108107, Note_on_c, 0, 50, 0
2, 108632, Note_on_c, 0, 78, 90
2, 108668, Note_on_c, 0, 79, 0
2, 108793, Note_on_c, 0, 79, 76
2, 108803, Note_on_c, 0, 50, 61
2, 108833, Note_on_c, 0, 78, 0
2, 108906, Note_on_c, 0, 51, 0
2, 109157, Note_on_c, 0, 72, 0
2, 109406, Note_on_c, 0, 72, 80
2, 109562, Note_on_c, 0, 74, 60
2, 109571, Note_on_c, 0, 72, 0
2, 110391, Note_on_c, 0, 69, 64
2, 110561, Note_on_c, 0, 71, 45
2, 110608, Note_on_c, 0, 69, 0
2, 113243, Note_on_c, 0, 50, 0
2, 113247, Note_on_c, 0, 43, 0
2, 113272, Note_on_c, 0, 79, 0
2, 113277, Note_on_c, 0, 71, 0
2, 113281, Note_on_c, 0, 74, 0
2, 114567, Note_on_c, 0, 62, 89
2, 114635, Note_on_c, 0, 62, 0
2, 115316, Note_on_c, 0, 58, 86
2, 115350, Note_on_c, 0, 58, 0
2, 115604, Note_on_c, 0, 63, 87
2, 115912, Note_on_c, 0, 63, 0
2, 116103, Note_on_c, 0, 60, 80
2, 116591, Note_on_c, 0, 60, 0
2, 116816, Note_on_c, 0, 57, 89
2, 116856, Note_on_c, 0, 57, 0
2, 117077, Note_on_c, 0, 62, 89
2, 117434, Note_on_c, 0, 62, 0
2, 117592, Note_on_c, 0, 58, 78
2, 118027, Note_on_c, 0, 58, 0
2, 118248, Note_on_c, 0, 55, 87
2, 118276, Note_on_c, 0, 53, 58
2, 118277, Note_on_c, 0, 53, 0
2, 118293, Note_on_c, 0, 55, 0
2, 118495, Note_on_c, 0, 60, 93
2, 118534, Note_on_c, 0, 60, 0
2, 118735, Note_on_c, 0, 60, 78
2, 118767, Note_on_c, 0, 60, 0
2, 118972, Note_on_c, 0, 60, 66
2, 119003, Note_on_c, 0, 60, 0
2, 119200, Note_on_c, 0, 60, 79
2, 119242, Note_on_c, 0, 60, 0
2, 119443, Note_on_c, 0, 60, 84
2, 119486, Note_on_c, 0, 60, 0
2, 119677, Note_on_c, 0, 60, 83
2, 119707, Note_on_c, 0, 60, 0
2, 119909, Note_on_c, 0, 60, 83
2, 120144, Note_on_c, 0, 60, 0
2, 120153, Note_on_c, 0, 58, 65
2, 120241, Note_on_c, 0, 58, 0
2, 120263, Note_on_c, 0, 57, 58
2, 120364, Note_on_c, 0, 57, 0
2, 120372, Note_on_c, 0, 67, 91
2, 120378, Note_on_c, 0, 58, 61
2, 120495, Note_on_c, 0, 58, 0
2, 120510, Note_on_c, 0, 55, 57
2, 120610, Note_on_c, 0, 55, 0
2, 120633, Note_on_c, 0, 58, 59
2, 120749, Note_on_c, 0, 58, 0
2, 120758, Note_on_c, 0, 60, 66
2, 120834, Note_on_c, 0, 67, 0
2, 120837, Note_on_c, 0, 60, 0
2, 120868, Note_on_c, 0, 62, 77
2, 120977, Note_on_c, 0, 62, 0
2, 120985, Note_on_c, 0, 61, 66
2, 121102, Note_on_c, 0, 61, 0
2, 121104, Note_on_c, 0, 62, 74
2, 121106, Note_on_c, 0, 65, 96
2, 121131, Note_on_c, 0, 62, 0
2, 121141, Note_on_c, 0, 65, 0
2, 121351, Note_on_c, 0, 70, 92
2, 121357, Note_on_c, 0, 62, 66
2, 121581, Note_on_c, 0, 55, 59
2, 121646, Note_on_c, 0, 70, 0
2, 121712, Note_on_c, 0, 62, 0
2, 121806, Note_on_c, 0, 55, 0
2, 121846, Note_on_c, 0, 67, 84
2, 121959, Note_on_c, 0, 55, 77
2, 122076, Note_on_c, 0, 55, 0
2, 122083, Note_on_c, 0, 57, 74
2, 122189, Note_on_c, 0, 57, 0
2, 122204, Note_on_c, 0, 58, 70
2, 122298, Note_on_c, 0, 58, 0
2, 122302, Note_on_c, 0, 67, 0
2, 122314, Note_on_c, 0, 60, 79
2, 122412, Note_on_c, 0, 60, 0
2, 122418, Note_on_c, 0, 58, 68
2, 122551, Note_on_c, 0, 58, 0
2, 122551, Note_on_c, 0, 60, 71
2, 122551, Note_on_c, 0, 64, 96
2, 122586, Note_on_c, 0, 60, 0
2, 122586, Note_on_c, 0, 64, 0
2, 122798, Note_on_c, 0, 69, 89
2, 122800, Note_on_c, 0, 60, 70
2, 122834, Note_on_c, 0, 67, 26
2, 122835, Note_on_c, 0, 67, 0
2, 123028, Note_on_c, 0, 53, 63
2, 123070, Note_on_c, 0, 69, 0
2, 123193, Note_on_c, 0, 60, 0
2, 123271, Note_on_c, 0, 53, 0
2, 123291, Note_on_c, 0, 65, 85
2, 123411, Note_on_c, 0, 53, 78
2, 123509, Note_on_c, 0, 53, 0
2, 123518, Note_on_c, 0, 55, 75
2, 123623, Note_on_c, 0, 55, 0
2, 123632, Note_on_c, 0, 57, 75
2, 123702, Note_on_c, 0, 65, 0
2, 123748, Note_on_c, 0, 57, 0
2, 123752, Note_on_c, 0, 58, 84
2, 123846, Note_on_c, 0, 58, 0
2, 123855, Note_on_c, 0, 57, 75
2, 123971, Note_on_c, 0, 57, 0
2, 123983, Note_on_c, 0, 62, 95
2, 123989, Note_on_c, 0, 58, 66
2, 124035, Note_on_c, 0, 62, 0
2, 124231, Note_on_c, 0, 67, 82
2, 124270, Note_on_c, 0, 67, 0
2, 124327, Note_on_c, 0, 58, 0
2, 124338, Note_on_c, 0, 57, 57
2, 124445, Note_on_c, 0, 57, 0
2, 124470, Note_on_c, 0, 58, 53
2, 124470, Note_on_c, 0, 67, 81
2, 124504, Note_on_c, 0, 67, 0
2, 124566, Note_on_c, 0, 58, 0
2, 124579, Note_on_c, 0, 57, 56
2, 124698, Note_on_c, 0, 57, 0
2, 124705, Note_on_c, 0, 67, 89
2, 124708, Note_on_c, 0, 55, 61
2, 124741, Note_on_c, 0, 67, 0
2, 124817, Note_on_c, 0, 55, 0
2, 124822, Note_on_c, 0, 53, 69
2, 124924, Note_on_c, 0, 53, 0
2, 124938, Note_on_c, 0, 67, 94
2, 124945, Note_on_c, 0, 55, 74
2, 124974, Note_on_c, 0, 67, 0
2, 125053, Note_on_c, 0, 53, 73
2, 125053, Note_on_c, 0, 55, 0
2, 125169, Note_on_c, 0, 52, 75
2, 125172, Note_on_c, 0, 67, 95
2, 125175, Note_on_c, 0, 53, 0
2, 125206, Note_on_c, 0, 67, 0
2, 125280, Note_on_c, 0, 52, 0
2, 125286, Note_on_c, 0, 50, 72
2, 125389, Note_on_c, 0, 50, 0
2, 125403, Note_on_c, 0, 52, 70
2, 125408, Note_on_c, 0, 67, 89
2, 125442, Note_on_c, 0, 67, 0
2, 125488, Note_on_c, 0, 52, 0
2, 125501, Note_on_c, 0, 50, 67
2, 125641, Note_on_c, 0, 49, 74
2, 125644, Note_on_c, 0, 50, 0
2, 125649, Note_on_c, 0, 67, 90
2, 125677, Note_on_c, 0, 49, 0
2, 125871, Note_on_c, 0, 57, 70
2, 125888, Note_on_c, 0, 67, 0
2, 125889, Note_on_c, 0, 65, 72
2, 125901, Note_on_c, 0, 57, 0
2, 125961, Note_on_c, 0, 65, 0
2, 125998, Note_on_c, 0, 64, 75
2, 126109, Note_on_c, 0, 74, 98
2, 126121, Note_on_c, 0, 50, 72
2, 126122, Note_on_c, 0, 65, 79
2, 126129, Note_on_c, 0, 64, 0
2, 126150, Note_on_c, 0, 65, 0
2, 126158, Note_on_c, 0, 50, 0
2, 126238, Note_on_c, 0, 62, 68
2, 126341, Note_on_c, 0, 60, 77
2, 126355, Note_on_c, 0, 64, 73
2, 126365, Note_on_c, 0, 62, 0
2, 126378, Note_on_c, 0, 74, 0
2, 126381, Note_on_c, 0, 60, 0
2, 126466, Note_on_c, 0, 66, 67
2, 126484, Note_on_c, 0, 64, 0
2, 126573, Note_on_c, 0, 66, 0
2, 126579, Note_on_c, 0, 58, 69
2, 126584, Note_on_c, 0, 67, 82
2, 126607, Note_on_c, 0, 58, 0
2, 126706, Note_on_c, 0, 66, 64
2, 126708, Note_on_c, 0, 67, 0
2, 126799, Note_on_c, 0, 66, 0
2, 126823, Note_on_c, 0, 70, 98
2, 126826, Note_on_c, 0, 55, 74
2, 126827, Note_on_c, 0, 67, 72
2, 126850, Note_on_c, 0, 67, 0
2, 126856, Note_on_c, 0, 55, 0
2, 126866, Note_on_c, 0, 70, 0
2, 127055, Note_on_c, 0, 75, 95
2, 127062, Note_on_c, 0, 67, 82
2, 127072, Note_on_c, 0, 60, 73
2, 127173, Note_on_c, 0, 60, 0
2, 127182, Note_on_c, 0, 58, 68
2, 127289, Note_on_c, 0, 58, 0
2, 127298, Note_on_c, 0, 60, 80
2, 127374, Note_on_c, 0, 75, 0
2, 127385, Note_on_c, 0, 67, 0
2, 127399, Note_on_c, 0, 58, 69
2, 127416, Note_on_c, 0, 60, 0
2, 127518, Note_on_c, 0, 58, 0
2, 127522, Note_on_c, 0, 57, 66
2, 127526, Note_on_c, 0, 72, 90
2, 127640, Note_on_c, 0, 60, 70
2, 127761, Note_on_c, 0, 62, 65
2, 127822, Note_on_c, 0, 60, 0
2, 127858, Note_on_c, 0, 62, 0
2, 127871, Note_on_c, 0, 55, 59
2, 127871, Note_on_c, 0, 63, 69
2, 127872, Note_on_c, 0, 57, 0
2, 127924, Note_on_c, 0, 72, 0
2, 127969, Note_on_c, 0, 63, 0
2, 127976, Note_on_c, 0, 65, 82
2, 127979, Note_on_c, 0, 55, 0
2, 127987, Note_on_c, 0, 57, 67
2, 128013, Note_on_c, 0, 57, 0
2, 128067, Note_on_c, 0, 65, 0
2, 128080, Note_on_c, 0, 63, 74
2, 128138, Note_on_c, 0, 63, 0
2, 128207, Note_on_c, 0, 69, 95
2, 128208, Note_on_c, 0, 53, 68
2, 128217, Note_on_c, 0, 65, 74
2, 128241, Note_on_c, 0, 65, 0
2, 128245, Note_on_c, 0, 53, 0
2, 128252, Note_on_c, 0, 69, 0
2, 128437, Note_on_c, 0, 74, 90
2, 128447, Note_on_c, 0, 65, 84
2, 128453, Note_on_c, 0, 58, 69
2, 128528, Note_on_c, 0, 58, 0
2, 128570, Note_on_c, 0, 57, 58
2, 128685, Note_on_c, 0, 58, 79
2, 128693, Note_on_c, 0, 57, 0
2, 128736, Note_on_c, 0, 74, 0
2, 128774, Note_on_c, 0, 65, 0
2, 128793, Note_on_c, 0, 57, 73
2, 128799, Note_on_c, 0, 58, 0
2, 128906, Note_on_c, 0, 57, 0
2, 128924, Note_on_c, 0, 70, 89
2, 128927, Note_on_c, 0, 55, 64
2, 129034, Note_on_c, 0, 58, 72
2, 129151, Note_on_c, 0, 60, 75
2, 129162, Note_on_c, 0, 55, 0
2, 129163, Note_on_c, 0, 57, 67
2, 129163, Note_on_c, 0, 58, 0
2, 129211, Note_on_c, 0, 70, 0
2, 129243, Note_on_c, 0, 57, 0
2, 129269, Note_on_c, 0, 62, 78
2, 129270, Note_on_c, 0, 60, 0
2, 129278, Note_on_c, 0, 58, 66
2, 129354, Note_on_c, 0, 58, 0
2, 129372, Note_on_c, 0, 63, 81
2, 129394, Note_on_c, 0, 60, 71
2, 129408, Note_on_c, 0, 62, 0
2, 129456, Note_on_c, 0, 63, 0
2, 129492, Note_on_c, 0, 62, 65
2, 129601, Note_on_c, 0, 67, 90
2, 129608, Note_on_c, 0, 63, 75
2, 129614, Note_on_c, 0, 62, 0
2, 129668, Note_on_c, 0, 67, 0
2, 129710, Note_on_c, 0, 60, 0
2, 129713, Note_on_c, 0, 58, 67
2, 129816, Note_on_c, 0, 58, 0
2, 129819, Note_on_c, 0, 72, 84
2, 129824, Note_on_c, 0, 57, 66
2, 129861, Note_on_c, 0, 63, 0
2, 129903, Note_on_c, 0, 72, 0
2, 129930, Note_on_c, 0, 62, 62
2, 130052, Note_on_c, 0, 62, 0
2, 130058, Note_on_c, 0, 72, 75
2, 130071, Note_on_c, 0, 63, 57
2, 130120, Note_on_c, 0, 63, 0
2, 130131, Note_on_c, 0, 72, 0
2, 130186, Note_on_c, 0, 62, 57
2, 130282, Note_on_c, 0, 57, 0
2, 130306, Note_on_c, 0, 72, 87
2, 130309, Note_on_c, 0, 60, 55
2, 130336, Note_on_c, 0, 62, 0
2, 130361, Note_on_c, 0, 72, 0
2, 130391, Note_on_c, 0, 60, 0
2, 130398, Note_on_c, 0, 58, 65
2, 130518, Note_on_c, 0, 58, 0
2, 130521, Note_on_c, 0, 72, 89
2, 130526, Note_on_c, 0, 60, 74
2, 130532, Note_on_c, 0, 55, 63
2, 130570, Note_on_c, 0, 55, 0
2, 130575, Note_on_c, 0, 72, 0
2, 130630, Note_on_c, 0, 58, 76
2, 130630, Note_on_c, 0, 60, 0
2, 130746, Note_on_c, 0, 58, 0
2, 130758, Note_on_c, 0, 54, 68
2, 130758, Note_on_c, 0, 72, 91
2, 130763, Note_on_c, 0, 57, 76
2, 130808, Note_on_c, 0, 54, 0
2, 130812, Note_on_c, 0, 72, 0
2, 130869, Note_on_c, 0, 55, 73
2, 130869, Note_on_c, 0, 57, 0
2, 130982, Note_on_c, 0, 55, 0
2, 130988, Note_on_c, 0, 72, 92
2, 130989, Note_on_c, 0, 57, 80
2, 130998, Note_on_c, 0, 52, 70
2, 131042, Note_on_c, 0, 72, 0
2, 131058, Note_on_c, 0, 52, 0
2, 131099, Note_on_c, 0, 55, 70
2, 131134, Note_on_c, 0, 57, 0
2, 131226, Note_on_c, 0, 72, 85
2, 131230, Note_on_c, 0, 54, 75
2, 131234, Note_on_c, 0, 50, 66
2, 131236, Note_on_c, 0, 55, 0
2, 131313, Note_on_c, 0, 54, 0
2, 131455, Note_on_c, 0, 72, 0
2, 131458, Note_on_c, 0, 62, 60
2, 131459, Note_on_c, 0, 54, 82
2, 131459, Note_on_c, 0, 70, 67
2, 131478, Note_on_c, 0, 50, 0
2, 131563, Note_on_c, 0, 70, 0
2, 131569, Note_on_c, 0, 69, 73
2, 131695, Note_on_c, 0, 55, 91
2, 131703, Note_on_c, 0, 70, 74
2, 131719, Note_on_c, 0, 54, 0
2, 131730, Note_on_c, 0, 69, 0
2, 131787, Note_on_c, 0, 62, 0
2, 131826, Note_on_c, 0, 67, 72
2, 131853, Note_on_c, 0, 70, 0
2, 131877, Note_on_c, 0, 67, 0
2, 131947, Note_on_c, 0, 67, 59
2, 131951, Note_on_c, 0, 62, 59
2, 131965, Note_on_c, 0, 70, 66
2, 132018, Note_on_c, 0, 62, 0
2, 132039, Note_on_c, 0, 64, 58
2, 132067, Note_on_c, 0, 72, 71
2, 132078, Note_on_c, 0, 67, 0
2, 132079, Note_on_c, 0, 70, 0
2, 132141, Note_on_c, 0, 64, 0
2, 132172, Note_on_c, 0, 65, 62
2, 132174, Note_on_c, 0, 55, 0
2, 132182, Note_on_c, 0, 74, 75
2, 132192, Note_on_c, 0, 72, 0
2, 132247, Note_on_c, 0, 65, 0
2, 132264, Note_on_c, 0, 64, 63
2, 132290, Note_on_c, 0, 73, 77
2, 132294, Note_on_c, 0, 74, 0
2, 132308, Note_on_c, 0, 64, 0
2, 132393, Note_on_c, 0, 74, 84
2, 132403, Note_on_c, 0, 53, 85
2, 132409, Note_on_c, 0, 65, 74
2, 132417, Note_on_c, 0, 67, 67
2, 132423, Note_on_c, 0, 73, 0
2, 132436, Note_on_c, 0, 65, 0
2, 132444, Note_on_c, 0, 67, 0
2, 132467, Note_on_c, 0, 53, 0
2, 132512, Note_on_c, 0, 74, 0
2, 132515, Note_on_c, 0, 69, 74
2, 132634, Note_on_c, 0, 74, 85
2, 132642, Note_on_c, 0, 58, 89
2, 132645, Note_on_c, 0, 69, 0
2, 132647, Note_on_c, 0, 62, 90
2, 132762, Note_on_c, 0, 69, 70
2, 132863, Note_on_c, 0, 69, 0
2, 132866, Note_on_c, 0, 67, 83
2, 132896, Note_on_c, 0, 58, 0
2, 132931, Note_on_c, 0, 74, 0
2, 132968, Note_on_c, 0, 65, 78
2, 133074, Note_on_c, 0, 67, 0
2, 133094, Note_on_c, 0, 64, 69
2, 133094, Note_on_c, 0, 65, 0
2, 133095, Note_on_c, 0, 55, 88
2, 133204, Note_on_c, 0, 67, 74
2, 133268, Note_on_c, 0, 62, 0
2, 133325, Note_on_c, 0, 69, 73
2, 133340, Note_on_c, 0, 60, 68
2, 133340, Note_on_c, 0, 67, 0
2, 133430, Note_on_c, 0, 60, 0
2, 133441, Note_on_c, 0, 70, 71
2, 133449, Note_on_c, 0, 58, 67
2, 133450, Note_on_c, 0, 55, 0
2, 133464, Note_on_c, 0, 69, 0
2, 133544, Note_on_c, 0, 64, 0
2, 133552, Note_on_c, 0, 57, 77
2, 133554, Note_on_c, 0, 72, 76
2, 133555, Note_on_c, 0, 58, 0
2, 133575, Note_on_c, 0, 70, 0
2, 133589, Note_on_c, 0, 57, 0
2, 133673, Note_on_c, 0, 70, 70
2, 133676, Note_on_c, 0, 72, 0
2, 133776, Note_on_c, 0, 52, 86
2, 133782, Note_on_c, 0, 72, 84
2, 133785, Note_on_c, 0, 55, 77
2, 133809, Note_on_c, 0, 55, 0
2, 133816, Note_on_c, 0, 70, 0
2, 133820, Note_on_c, 0, 52, 0
2, 133897, Note_on_c, 0, 67, 70
2, 133904, Note_on_c, 0, 72, 0
2, 134014, Note_on_c, 0, 57, 90
2, 134022, Note_on_c, 0, 72, 83
2, 134027, Note_on_c, 0, 60, 75
2, 134031, Note_on_c, 0, 67, 0
2, 134142, Note_on_c, 0, 67, 70
2, 134241, Note_on_c, 0, 67, 0
2, 134250, Note_on_c, 0, 65, 80
2, 134286, Note_on_c, 0, 72, 0
2, 134292, Note_on_c, 0, 57, 0
2, 134350, Note_on_c, 0, 64, 72
2, 134452, Note_on_c, 0, 65, 0
2, 134469, Note_on_c, 0, 64, 0
2, 134472, Note_on_c, 0, 62, 72
2, 134475, Note_on_c, 0, 53, 91
2, 134591, Note_on_c, 0, 65, 70
2, 134702, Note_on_c, 0, 60, 0
2, 134703, Note_on_c, 0, 65, 0
2, 134708, Note_on_c, 0, 67, 72
2, 134718, Note_on_c, 0, 58, 60
2, 134805, Note_on_c, 0, 62, 0
2, 134815, Note_on_c, 0, 58, 0
2, 134832, Note_on_c, 0, 69, 73
2, 134833, Note_on_c, 0, 57, 66
2, 134840, Note_on_c, 0, 67, 0
2, 134842, Note_on_c, 0, 53, 0
2, 134917, Note_on_c, 0, 57, 0
2, 134941, Note_on_c, 0, 55, 74
2, 134946, Note_on_c, 0, 70, 75
2, 134956, Note_on_c, 0, 69, 0
2, 134979, Note_on_c, 0, 55, 0
2, 135057, Note_on_c, 0, 70, 0
2, 135064, Note_on_c, 0, 69, 72
2, 135163, Note_on_c, 0, 69, 0
2, 135171, Note_on_c, 0, 50, 80
2, 135176, Note_on_c, 0, 70, 76
2, 135180, Note_on_c, 0, 53, 71
2, 135206, Note_on_c, 0, 53, 0
2, 135212, Note_on_c, 0, 50, 0
2, 135289, Note_on_c, 0, 65, 71
2, 135352, Note_on_c, 0, 65, 0
2, 135396, Note_on_c, 0, 55, 73
2, 135399, Note_on_c, 0, 58, 72
2, 135402, Note_on_c, 0, 64, 71
2, 135441, Note_on_c, 0, 55, 0
2, 135473, Note_on_c, 0, 70, 0
2, 135515, Note_on_c, 0, 69, 67
2, 135588, Note_on_c, 0, 69, 0
2, 135632, Note_on_c, 0, 70, 65
2, 135641, Note_on_c, 0, 55, 71
2, 135656, Note_on_c, 0, 58, 0
2, 135677, Note_on_c, 0, 55, 0
2, 135677, Note_on_c, 0, 64, 0
2, 135715, Note_on_c, 0, 70, 0
2, 135748, Note_on_c, 0, 65, 72
2, 135750, Note_on_c, 0, 69, 66
2, 135802, Note_on_c, 0, 65, 0
2, 135855, Note_on_c, 0, 55, 78
2, 135867, Note_on_c, 0, 64, 72
2, 135870, Note_on_c, 0, 67, 73
2, 135876, Note_on_c, 0, 69, 0
2, 135909, Note_on_c, 0, 55, 0
2, 135961, Note_on_c, 0, 67, 0
2, 135983, Note_on_c, 0, 65, 64
2, 136082, Note_on_c, 0, 67, 72
2, 136091, Note_on_c, 0, 55, 82
2, 136104, Note_on_c, 0, 65, 0
2, 136105, Note_on_c, 0, 64, 0
2, 136140, Note_on_c, 0, 55, 0
2, 136197, Note_on_c, 0, 62, 80
2, 136209, Note_on_c, 0, 65, 79
2, 136211, Note_on_c, 0, 67, 0
2, 136256, Note_on_c, 0, 62, 0
2, 136316, Note_on_c, 0, 55, 86
2, 136317, Note_on_c, 0, 61, 76
2, 136322, Note_on_c, 0, 64, 72
2, 136326, Note_on_c, 0, 65, 0
2, 136399, Note_on_c, 0, 64, 0
2, 136415, Note_on_c, 0, 55, 0
2, 136429, Note_on_c, 0, 62, 76
2, 136476, Note_on_c, 0, 61, 0
2, 136548, Note_on_c, 0, 55, 77
2, 136549, Note_on_c, 0, 64, 80
2, 136566, Note_on_c, 0, 62, 0
2, 136586, Note_on_c, 0, 55, 0
2, 136609, Note_on_c, 0, 64, 0
2, 136657, Note_on_c, 0, 62, 87
2, 136704, Note_on_c, 0, 62, 0
2, 136771, Note_on_c, 0, 57, 75
2, 136772, Note_on_c, 0, 61, 72
2, 136776, Note_on_c, 0, 55, 69
2, 136808, Note_on_c, 0, 61, 0
2, 137004, Note_on_c, 0, 55, 0
2, 137011, Note_on_c, 0, 69, 68
2, 137014, Note_on_c, 0, 53, 59
2, 137016, Note_on_c, 0, 57, 0
2, 137051, Note_on_c, 0, 69, 0
2, 137099, Note_on_c, 0, 53, 0
2, 137112, Note_on_c, 0, 52, 60
2, 137196, Note_on_c, 0, 52, 0
2, 137243, Note_on_c, 0, 53, 58
2, 137255, Note_on_c, 0, 62, 71
2, 137291, Note_on_c, 0, 62, 0
2, 137346, Note_on_c, 0, 53, 0
2, 137365, Note_on_c, 0, 50, 53
2, 137462, Note_on_c, 0, 50, 0
2, 137470, Note_on_c, 0, 72, 68
2, 137475, Note_on_c, 0, 51, 64
2, 137513, Note_on_c, 0, 72, 0
2, 137557, Note_on_c, 0, 51, 0
2, 137578, Note_on_c, 0, 53, 60
2, 137686, Note_on_c, 0, 53, 0
2, 137695, Note_on_c, 0, 71, 78
2, 137707, Note_on_c, 0, 55, 56
2, 137797, Note_on_c, 0, 55, 0
2, 137807, Note_on_c, 0, 71, 0
2, 137807, Note_on_c, 0, 74, 77
2, 137814, Note_on_c, 0, 53, 61
2, 137899, Note_on_c, 0, 74, 0
2, 137907, Note_on_c, 0, 53, 0
2, 137922, Note_on_c, 0, 55, 67
2, 137923, Note_on_c, 0, 77, 84
2, 137958, Note_on_c, 0, 55, 0
2, 137977, Note_on_c, 0, 77, 0
2, 138032, Note_on_c, 0, 74, 75
2, 138144, Note_on_c, 0, 75, 76
2, 138150, Note_on_c, 0, 48, 61
2, 138150, Note_on_c, 0, 74, 0
2, 138251, Note_on_c, 0, 48, 0
2, 138271, Note_on_c, 0, 47, 59
2, 138374, Note_on_c, 0, 67, 62
2, 138377, Note_on_c, 0, 47, 0
2, 138385, Note_on_c, 0, 48, 63
2, 138434, Note_on_c, 0, 67, 0
2, 138454, Note_on_c, 0, 48, 0
2, 138488, Note_on_c, 0, 50, 57
2, 138584, Note_on_c, 0, 50, 0
2, 138615, Note_on_c, 0, 51, 66
2, 138627, Note_on_c, 0, 60, 76
2, 138631, Note_on_c, 0, 75, 0
2, 138685, Note_on_c, 0, 51, 0
2, 138706, Note_on_c, 0, 60, 0
2, 138735, Note_on_c, 0, 48, 67
2, 138825, Note_on_c, 0, 48, 0
2, 138837, Note_on_c, 0, 50, 67
2, 138841, Note_on_c, 0, 70, 79
2, 138875, Note_on_c, 0, 70, 0
2, 138918, Note_on_c, 0, 50, 0
2, 138943, Note_on_c, 0, 51, 68
2, 139056, Note_on_c, 0, 51, 0
2, 139060, Note_on_c, 0, 53, 67
2, 139073, Note_on_c, 0, 69, 77
2, 139151, Note_on_c, 0, 69, 0
2, 139157, Note_on_c, 0, 53, 0
2, 139181, Note_on_c, 0, 51, 61
2, 139181, Note_on_c, 0, 72, 71
2, 139274, Note_on_c, 0, 51, 0
2, 139278, Note_on_c, 0, 53, 64
2, 139288, Note_on_c, 0, 75, 83
2, 139311, Note_on_c, 0, 53, 0
2, 139313, Note_on_c, 0, 72, 0
2, 139404, Note_on_c, 0, 81, 85
2, 139508, Note_on_c, 0, 46, 77
2, 139510, Note_on_c, 0, 82, 84
2, 139536, Note_on_c, 0, 81, 0
2, 139554, Note_on_c, 0, 46, 0
2, 139631, Note_on_c, 0, 53, 82
2, 139740, Note_on_c, 0, 74, 76
2, 139744, Note_on_c, 0, 55, 80
2, 139746, Note_on_c, 0, 53, 0
2, 139749, Note_on_c, 0, 75, 0
2, 139826, Note_on_c, 0, 82, 0
2, 139847, Note_on_c, 0, 57, 79
2, 139849, Note_on_c, 0, 81, 80
2, 139855, Note_on_c, 0, 55, 0
2, 139887, Note_on_c, 0, 74, 0
2, 139918, Note_on_c, 0, 57, 0
2, 139945, Note_on_c, 0, 58, 69
2, 139967, Note_on_c, 0, 79, 80
2, 139987, Note_on_c, 0, 81, 0
2, 140055, Note_on_c, 0, 58, 0
2, 140063, Note_on_c, 0, 57, 61
2, 140079, Note_on_c, 0, 78, 80
2, 140082, Note_on_c, 0, 79, 0
2, 140172, Note_on_c, 0, 57, 0
2, 140191, Note_on_c, 0, 58, 59
2, 140201, Note_on_c, 0, 79, 74
2, 140206, Note_on_c, 0, 78, 0
2, 140294, Note_on_c, 0, 58, 0
2, 140322, Note_on_c, 0, 78, 71
2, 140327, Note_on_c, 0, 79, 0
2, 140427, Note_on_c, 0, 78, 0
2, 140433, Note_on_c, 0, 79, 72
2, 140531, Note_on_c, 0, 52, 69
2, 140633, Note_on_c, 0, 52, 0
2, 140640, Note_on_c, 0, 54, 70
2, 140724, Note_on_c, 0, 54, 0
2, 140737, Note_on_c, 0, 74, 68
2, 140754, Note_on_c, 0, 55, 60
2, 140835, Note_on_c, 0, 55, 0
2, 140844, Note_on_c, 0, 74, 0
2, 140863, Note_on_c, 0, 72, 71
2, 140867, Note_on_c, 0, 57, 62
2, 140943, Note_on_c, 0, 57, 0
2, 140965, Note_on_c, 0, 72, 0
2, 140970, Note_on_c, 0, 55, 59
2, 140977, Note_on_c, 0, 70, 69
2, 141095, Note_on_c, 0, 72, 75
2, 141096, Note_on_c, 0, 55, 0
2, 141096, Note_on_c, 0, 70, 0
2, 141099, Note_on_c, 0, 57, 68
2, 141137, Note_on_c, 0, 57, 0
2, 141192, Note_on_c, 0, 72, 0
2, 141200, Note_on_c, 0, 70, 80
2, 141325, Note_on_c, 0, 62, 88
2, 141330, Note_on_c, 0, 72, 70
2, 141331, Note_on_c, 0, 78, 77
2, 141357, Note_on_c, 0, 79, 0
2, 141369, Note_on_c, 0, 70, 0
2, 141440, Note_on_c, 0, 50, 71
2, 141462, Note_on_c, 0, 72, 0
2, 141546, Note_on_c, 0, 52, 64
2, 141548, Note_on_c, 0, 50, 0
2, 141639, Note_on_c, 0, 52, 0
2, 141658, Note_on_c, 0, 54, 71
2, 141673, Note_on_c, 0, 81, 64
2, 141689, Note_on_c, 0, 72, 73
2, 141706, Note_on_c, 0, 81, 0
2, 141709, Note_on_c, 0, 78, 0
2, 141746, Note_on_c, 0, 72, 0
2, 141801, Note_on_c, 0, 74, 72
2, 141805, Note_on_c, 0, 55, 66
2, 141805, Note_on_c, 0, 70, 70
2, 141821, Note_on_c, 0, 54, 0
2, 141836, Note_on_c, 0, 62, 0
2, 141895, Note_on_c, 0, 54, 58
2, 141905, Note_on_c, 0, 55, 0
2, 141907, Note_on_c, 0, 70, 0
2, 141919, Note_on_c, 0, 69, 69
2, 142002, Note_on_c, 0, 54, 0
2, 142016, Note_on_c, 0, 69, 0
2, 142030, Note_on_c, 0, 58, 91
2, 142033, Note_on_c, 0, 55, 71
2, 142048, Note_on_c, 0, 70, 67
2, 142069, Note_on_c, 0, 55, 0
2, 142075, Note_on_c, 0, 58, 0
2, 142141, Note_on_c, 0, 70, 0
2, 142156, Note_on_c, 0, 69, 68
2, 142162, Note_on_c, 0, 72, 71
2, 142214, Note_on_c, 0, 74, 0
2, 142229, Note_on_c, 0, 69, 0
2, 142266, Note_on_c, 0, 55, 53
2, 142271, Note_on_c, 0, 70, 76
2, 142273, Note_on_c, 0, 63, 90
2, 142292, Note_on_c, 0, 67, 67
2, 142305, Note_on_c, 0, 72, 0
2, 142366, Note_on_c, 0, 67, 0
2, 142388, Note_on_c, 0, 65, 70
2, 142504, Note_on_c, 0, 48, 68
2, 142504, Note_on_c, 0, 67, 65
2, 142508, Note_on_c, 0, 65, 0
2, 142521, Note_on_c, 0, 63, 0
2, 142540, Note_on_c, 0, 55, 0
2, 142547, Note_on_c, 0, 48, 0
2, 142588, Note_on_c, 0, 67, 0
2, 142611, Note_on_c, 0, 65, 71
2, 142686, Note_on_c, 0, 65, 0
2, 142708, Note_on_c, 0, 60, 87
2, 142724, Note_on_c, 0, 63, 63
2, 142757, Note_on_c, 0, 63, 0
2, 142768, Note_on_c, 0, 65, 67
2, 142818, Note_on_c, 0, 48, 69
2, 142833, Note_on_c, 0, 63, 68
2, 142851, Note_on_c, 0, 65, 0
2, 142914, Note_on_c, 0, 48, 0
2, 142926, Note_on_c, 0, 50, 57
2, 142990, Note_on_c, 0, 63, 0
2, 143058, Note_on_c, 0, 50, 0
2, 143070, Note_on_c, 0, 51, 71
2, 143085, Note_on_c, 0, 60, 0
2, 143091, Note_on_c, 0, 62, 75
2, 143103, Note_on_c, 0, 70, 0
2, 143129, Note_on_c, 0, 62, 0
2, 143174, Note_on_c, 0, 51, 0
2, 143195, Note_on_c, 0, 53, 72
2, 143198, Note_on_c, 0, 60, 75
2, 143204, Note_on_c, 0, 69, 76
2, 143316, Note_on_c, 0, 53, 0
2, 143319, Note_on_c, 0, 51, 66
2, 143372, Note_on_c, 0, 60, 0
2, 143430, Note_on_c, 0, 57, 90
2, 143440, Note_on_c, 0, 53, 65
2, 143455, Note_on_c, 0, 51, 0
2, 143470, Note_on_c, 0, 57, 0
2, 143472, Note_on_c, 0, 53, 0
2, 143679, Note_on_c, 0, 62, 85
2, 143682, Note_on_c, 0, 65, 76
2, 143689, Note_on_c, 0, 69, 0
2, 143695, Note_on_c, 0, 53, 58
2, 143712, Note_on_c, 0, 54, 44
2, 143748, Note_on_c, 0, 54, 0
2, 143794, Note_on_c, 0, 69, 76
2, 143842, Note_on_c, 0, 62, 0
2, 143901, Note_on_c, 0, 70, 75
2, 143903, Note_on_c, 0, 69, 0
2, 143917, Note_on_c, 0, 46, 69
2, 143939, Note_on_c, 0, 53, 0
2, 143957, Note_on_c, 0, 65, 0
2, 143972, Note_on_c, 0, 46, 0
2, 144018, Note_on_c, 0, 69, 77
2, 144076, Note_on_c, 0, 70, 0
2, 144117, Note_on_c, 0, 58, 83
2, 144127, Note_on_c, 0, 67, 75
2, 144131, Note_on_c, 0, 62, 73
2, 144152, Note_on_c, 0, 69, 0
2, 144247, Note_on_c, 0, 46, 71
2, 144362, Note_on_c, 0, 46, 0
2, 144382, Note_on_c, 0, 48, 63
2, 144382, Note_on_c, 0, 58, 0
2, 144474, Note_on_c, 0, 48, 0
2, 144476, Note_on_c, 0, 50, 70
2, 144479, Note_on_c, 0, 66, 66
2, 144482, Note_on_c, 0, 67, 0
2, 144589, Note_on_c, 0, 50, 0
2, 144590, Note_on_c, 0, 67, 78
2, 144592, Note_on_c, 0, 62, 0
2, 144599, Note_on_c, 0, 51, 78
2, 144608, Note_on_c, 0, 66, 0
2, 144720, Note_on_c, 0, 51, 0
2, 144721, Note_on_c, 0, 50, 72
2, 144846, Note_on_c, 0, 50, 0
2, 144849, Note_on_c, 0, 51, 80
2, 144852, Note_on_c, 0, 55, 89
2, 144918, Note_on_c, 0, 51, 0
2, 144944, Note_on_c, 0, 55, 0
2, 144948, Note_on_c, 0, 51, 26
2, 145081, Note_on_c, 0, 60, 89
2, 145126, Note_on_c, 0, 60, 0
2, 145176, Note_on_c, 0, 51, 0
2, 145187, Note_on_c, 0, 50, 62
2, 145279, Note_on_c, 0, 50, 0
2, 145301, Note_on_c, 0, 60, 79
2, 145302, Note_on_c, 0, 51, 68
2, 145384, Note_on_c, 0, 60, 0
2, 145386, Note_on_c, 0, 51, 0
2, 145402, Note_on_c, 0, 70, 77
2, 145417, Note_on_c, 0, 50, 67
2, 145444, Note_on_c, 0, 67, 0
2, 145522, Note_on_c, 0, 70, 0
2, 145525, Note_on_c, 0, 48, 71
2, 145526, Note_on_c, 0, 50, 0
2, 145528, Note_on_c, 0, 69, 80
2, 145535, Note_on_c, 0, 60, 73
2, 145581, Note_on_c, 0, 60, 0
2, 145640, Note_on_c, 0, 46, 67
2, 145643, Note_on_c, 0, 48, 0
2, 145764, Note_on_c, 0, 46, 0
2, 145766, Note_on_c, 0, 48, 75
2, 145779, Note_on_c, 0, 60, 89
2, 145876, Note_on_c, 0, 46, 75
2, 145878, Note_on_c, 0, 48, 0
2, 145880, Note_on_c, 0, 60, 0
2, 145881, Note_on_c, 0, 72, 88
2, 145908, Note_on_c, 0, 69, 0
2, 145981, Note_on_c, 0, 46, 0
2, 145985, Note_on_c, 0, 72, 0
2, 145987, Note_on_c, 0, 45, 78
2, 145996, Note_on_c, 0, 60, 89
2, 146004, Note_on_c, 0, 66, 83
2, 146094, Note_on_c, 0, 43, 77
2, 146095, Note_on_c, 0, 45, 0
2, 146155, Note_on_c, 0, 60, 0
2, 146213, Note_on_c, 0, 43, 0
2, 146223, Note_on_c, 0, 45, 75
2, 146244, Note_on_c, 0, 60, 91
2, 146247, Note_on_c, 0, 66, 0
2, 146344, Note_on_c, 0, 45, 0
2, 146351, Note_on_c, 0, 43, 63
2, 146364, Note_on_c, 0, 69, 80
2, 146469, Note_on_c, 0, 42, 71
2, 146471, Note_on_c, 0, 43, 0
2, 146481, Note_on_c, 0, 69, 0
2, 146490, Note_on_c, 0, 62, 64
2, 146507, Note_on_c, 0, 42, 0
2, 146653, Note_on_c, 0, 60, 0
2, 146716, Note_on_c, 0, 50, 66
2, 146734, Note_on_c, 0, 58, 64
2, 146744, Note_on_c, 0, 50, 0
2, 146804, Note_on_c, 0, 58, 0
2, 146843, Note_on_c, 0, 57, 38
2, 146856, Note_on_c, 0, 66, 59
2, 146895, Note_on_c, 0, 57, 0
2, 146920, Note_on_c, 0, 62, 0
2, 146947, Note_on_c, 0, 43, 60
2, 146953, Note_on_c, 0, 58, 45
2, 146956, Note_on_c, 0, 67, 64
2, 146983, Note_on_c, 0, 66, 0
2, 146985, Note_on_c, 0, 43, 0
2, 147075, Note_on_c, 0, 67, 0
2, 147085, Note_on_c, 0, 58, 0
2, 147092, Note_on_c, 0, 55, 63
2, 147196, Note_on_c, 0, 53, 43
2, 147198, Note_on_c, 0, 55, 0
2, 147207, Note_on_c, 0, 57, 63
2, 147229, Note_on_c, 0, 53, 0
2, 147303, Note_on_c, 0, 57, 0
2, 147322, Note_on_c, 0, 58, 57
2, 147401, Note_on_c, 0, 58, 0
2, 147413, Note_on_c, 0, 52, 69
2, 147427, Note_on_c, 0, 60, 67
2, 147439, Note_on_c, 0, 52, 0
2, 147521, Note_on_c, 0, 60, 0
2, 147530, Note_on_c, 0, 58, 65
2, 147616, Note_on_c, 0, 58, 0
2, 147645, Note_on_c, 0, 60, 70
2, 147648, Note_on_c, 0, 48, 70
2, 147678, Note_on_c, 0, 48, 0
2, 147761, Note_on_c, 0, 70, 62
2, 147808, Note_on_c, 0, 70, 0
2, 147862, Note_on_c, 0, 53, 74
2, 147895, Note_on_c, 0, 53, 0
2, 147974, Note_on_c, 0, 60, 0
2, 147984, Note_on_c, 0, 70, 62
2, 148066, Note_on_c, 0, 70, 0
2, 148087, Note_on_c, 0, 57, 65
2, 148089, Note_on_c, 0, 69, 65
2, 148098, Note_on_c, 0, 65, 52
2, 148121, Note_on_c, 0, 57, 0
2, 148173, Note_on_c, 0, 69, 0
2, 148193, Note_on_c, 0, 65, 0
2, 148209, Note_on_c, 0, 64, 45
2, 148213, Note_on_c, 0, 67, 56
2, 148310, Note_on_c, 0, 64, 0
2, 148316, Note_on_c, 0, 67, 0
2, 148317, Note_on_c, 0, 50, 69
2, 148329, Note_on_c, 0, 69, 58
2, 148335, Note_on_c, 0, 65, 58
2, 148352, Note_on_c, 0, 50, 0
2, 148368, Note_on_c, 0, 69, 0
2, 148436, Note_on_c, 0, 69, 62
2, 148442, Note_on_c, 0, 65, 0
2, 148552, Note_on_c, 0, 71, 73
2, 148555, Note_on_c, 0, 60, 72
2, 148560, Note_on_c, 0, 69, 0
2, 148589, Note_on_c, 0, 60, 0
2, 148647, Note_on_c, 0, 71, 0
2, 148681, Note_on_c, 0, 72, 63
2, 148791, Note_on_c, 0, 74, 77
2, 148794, Note_on_c, 0, 59, 69
2, 148796, Note_on_c, 0, 72, 0
2, 148822, Note_on_c, 0, 59, 0
2, 148898, Note_on_c, 0, 74, 0
2, 148910, Note_on_c, 0, 72, 72
2, 149012, Note_on_c, 0, 55, 66
2, 149018, Note_on_c, 0, 74, 73
2, 149022, Note_on_c, 0, 72, 0
2, 149041, Note_on_c, 0, 55, 0
2, 149093, Note_on_c, 0, 74, 0
2, 149132, Note_on_c, 0, 65, 67
2, 149175, Note_on_c, 0, 65, 0
2, 149237, Note_on_c, 0, 74, 69
2, 149240, Note_on_c, 0, 60, 64
2, 149272, Note_on_c, 0, 60, 0
2, 149337, Note_on_c, 0, 65, 72
2, 149347, Note_on_c, 0, 74, 0
2, 149430, Note_on_c, 0, 65, 0
2, 149457, Note_on_c, 0, 72, 71
2, 149476, Note_on_c, 0, 55, 60
2, 149476, Note_on_c, 0, 63, 60
2, 149506, Note_on_c, 0, 55, 0
2, 149564, Note_on_c, 0, 72, 0
2, 149567, Note_on_c, 0, 63, 0
2, 149588, Note_on_c, 0, 62, 53
2, 149588, Note_on_c, 0, 71, 57
2, 149680, Note_on_c, 0, 71, 0
2, 149681, Note_on_c, 0, 72, 73
2, 149686, Note_on_c, 0, 62, 0
2, 149689, Note_on_c, 0, 48, 61
2, 149697, Note_on_c, 0, 63, 56
2, 149722, Note_on_c, 0, 48, 0
2, 149766, Note_on_c, 0, 63, 0
2, 149802, Note_on_c, 0, 60, 64
2, 149903, Note_on_c, 0, 60, 0
2, 149909, Note_on_c, 0, 57, 58
2, 149911, Note_on_c, 0, 66, 68
2, 149931, Note_on_c, 0, 57, 0
2, 149977, Note_on_c, 0, 72, 0
2, 150023, Note_on_c, 0, 67, 69
2, 150035, Note_on_c, 0, 66, 0
2, 150149, Note_on_c, 0, 54, 66
2, 150151, Note_on_c, 0, 67, 0
2, 150153, Note_on_c, 0, 69, 70
2, 150175, Note_on_c, 0, 54, 0
2, 150218, Note_on_c, 0, 69, 0
2, 150265, Note_on_c, 0, 67, 65
2, 150373, Note_on_c, 0, 69, 64
2, 150376, Note_on_c, 0, 67, 0
2, 150384, Note_on_c, 0, 50, 62
2, 150420, Note_on_c, 0, 50, 0
2, 150490, Note_on_c, 0, 72, 65
2, 150496, Note_on_c, 0, 69, 0
2, 150603, Note_on_c, 0, 72, 0
2, 150604, Note_on_c, 0, 55, 66
2, 150610, Note_on_c, 0, 69, 70
2, 150634, Note_on_c, 0, 55, 0
2, 150719, Note_on_c, 0, 72, 66
2, 150818, Note_on_c, 0, 67, 68
2, 150820, Note_on_c, 0, 72, 0
2, 150822, Note_on_c, 0, 70, 72
2, 150823, Note_on_c, 0, 58, 65
2, 150824, Note_on_c, 0, 69, 0
2, 150850, Note_on_c, 0, 58, 0
2, 150938, Note_on_c, 0, 70, 0
2, 150949, Note_on_c, 0, 66, 70
2, 150949, Note_on_c, 0, 67, 0
2, 150949, Note_on_c, 0, 69, 66
2, 151054, Note_on_c, 0, 52, 71
2, 151059, Note_on_c, 0, 70, 76
2, 151064, Note_on_c, 0, 67, 75
2, 151069, Note_on_c, 0, 66, 0
2, 151087, Note_on_c, 0, 52, 0
2, 151096, Note_on_c, 0, 69, 0
2, 151157, Note_on_c, 0, 70, 0
2, 151172, Note_on_c, 0, 74, 81
2, 151267, Note_on_c, 0, 74, 0
2, 151280, Note_on_c, 0, 62, 79
2, 151286, Note_on_c, 0, 76, 76
2, 151316, Note_on_c, 0, 62, 0
2, 151328, Note_on_c, 0, 67, 0
2, 151395, Note_on_c, 0, 77, 82
2, 151417, Note_on_c, 0, 76, 0
2, 151515, Note_on_c, 0, 79, 79
2, 151523, Note_on_c, 0, 61, 73
2, 151537, Note_on_c, 0, 77, 0
2, 151555, Note_on_c, 0, 61, 0
2, 151631, Note_on_c, 0, 77, 79
2, 151641, Note_on_c, 0, 79, 0
2, 151753, Note_on_c, 0, 79, 73
2, 151756, Note_on_c, 0, 77, 0
2, 151759, Note_on_c, 0, 57, 65
2, 151800, Note_on_c, 0, 57, 0
2, 151850, Note_on_c, 0, 61, 60
2, 151949, Note_on_c, 0, 61, 0
2, 151986, Note_on_c, 0, 62, 52
2, 152064, Note_on_c, 0, 62, 0
2, 152091, Note_on_c, 0, 61, 50
2, 152172, Note_on_c, 0, 61, 0
2, 152188, Note_on_c, 0, 79, 0
2, 152200, Note_on_c, 0, 62, 51
2, 152203, Note_on_c, 0, 77, 66
2, 152267, Note_on_c, 0, 62, 0
2, 152316, Note_on_c, 0, 76, 63
2, 152317, Note_on_c, 0, 77, 0
2, 152320, Note_on_c, 0, 57, 43
2, 152379, Note_on_c, 0, 57, 0
2, 152435, Note_on_c, 0, 69, 70
2, 152435, Note_on_c, 0, 76, 0
2, 152444, Note_on_c, 0, 50, 57
2, 152448, Note_on_c, 0, 77, 66
2, 152530, Note_on_c, 0, 77, 0
2, 152569, Note_on_c, 0, 74, 66
2, 152650, Note_on_c, 0, 50, 0
2, 152665, Note_on_c, 0, 74, 0
2, 152671, Note_on_c, 0, 62, 56
2, 152677, Note_on_c, 0, 77, 69
2, 152740, Note_on_c, 0, 62, 0
2, 152744, Note_on_c, 0, 69, 0
2, 152787, Note_on_c, 0, 79, 62
2, 152792, Note_on_c, 0, 64, 56
2, 152792, Note_on_c, 0, 77, 0
2, 152839, Note_on_c, 0, 64, 0
2, 152906, Note_on_c, 0, 65, 58
2, 152907, Note_on_c, 0, 79, 0
2, 152911, Note_on_c, 0, 81, 62
2, 152936, Note_on_c, 0, 65, 0
2, 153009, Note_on_c, 0, 81, 0
2, 153025, Note_on_c, 0, 79, 63
2, 153126, Note_on_c, 0, 81, 68
2, 153127, Note_on_c, 0, 65, 82
2, 153143, Note_on_c, 0, 62, 59
2, 153161, Note_on_c, 0, 79, 0
2, 153166, Note_on_c, 0, 62, 0
2, 153166, Note_on_c, 0, 65, 0
2, 153171, Note_on_c, 0, 81, 0
2, 153367, Note_on_c, 0, 70, 78
2, 153370, Note_on_c, 0, 81, 70
2, 153383, Note_on_c, 0, 67, 62
2, 153467, Note_on_c, 0, 67, 0
2, 153507, Note_on_c, 0, 55, 52
2, 153591, Note_on_c, 0, 55, 0
2, 153600, Note_on_c, 0, 81, 0
2, 153609, Note_on_c, 0, 74, 64
2, 153640, Note_on_c, 0, 57, 46
2, 153707, Note_on_c, 0, 57, 0
2, 153717, Note_on_c, 0, 70, 0
2, 153721, Note_on_c, 0, 74, 0
2, 153747, Note_on_c, 0, 58, 55
2, 153833, Note_on_c, 0, 67, 80
2, 153846, Note_on_c, 0, 58, 0
2, 153860, Note_on_c, 0, 60, 61
2, 153949, Note_on_c, 0, 60, 0
2, 153964, Note_on_c, 0, 74, 61
2, 153974, Note_on_c, 0, 55, 49
2, 154041, Note_on_c, 0, 55, 0
2, 154067, Note_on_c, 0, 74, 0
2, 154072, Note_on_c, 0, 76, 67
2, 154094, Note_on_c, 0, 60, 54
2, 154170, Note_on_c, 0, 60, 0
2, 154179, Note_on_c, 0, 77, 68
2, 154184, Note_on_c, 0, 67, 0
2, 154199, Note_on_c, 0, 76, 0
2, 154206, Note_on_c, 0, 62, 49
2, 154289, Note_on_c, 0, 62, 0
2, 154294, Note_on_c, 0, 79, 72
2, 154296, Note_on_c, 0, 64, 75
2, 154309, Note_on_c, 0, 77, 0
2, 154322, Note_on_c, 0, 64, 0
2, 154408, Note_on_c, 0, 79, 0
2, 154423, Note_on_c, 0, 77, 68
2, 154529, Note_on_c, 0, 79, 75
2, 154534, Note_on_c, 0, 64, 80
2, 154540, Note_on_c, 0, 60, 68
2, 154563, Note_on_c, 0, 77, 0
2, 154565, Note_on_c, 0, 64, 0
2, 154569, Note_on_c, 0, 60, 0
2, 154578, Note_on_c, 0, 79, 0
2, 154772, Note_on_c, 0, 69, 81
2, 154779, Note_on_c, 0, 65, 70
2, 154779, Note_on_c, 0, 79, 73
2, 154859, Note_on_c, 0, 65, 0
2, 154910, Note_on_c, 0, 53, 54
2, 154982, Note_on_c, 0, 53, 0
2, 155006, Note_on_c, 0, 72, 71
2, 155007, Note_on_c, 0, 55, 55
2, 155025, Note_on_c, 0, 79, 0
2, 155077, Note_on_c, 0, 69, 0
2, 155085, Note_on_c, 0, 55, 0
2, 155115, Note_on_c, 0, 72, 0
2, 155119, Note_on_c, 0, 57, 61
2, 155214, Note_on_c, 0, 57, 0
2, 155242, Note_on_c, 0, 58, 63
2, 155245, Note_on_c, 0, 65, 82
2, 155346, Note_on_c, 0, 58, 0
2, 155352, Note_on_c, 0, 72, 74
2, 155355, Note_on_c, 0, 53, 59
2, 155444, Note_on_c, 0, 53, 0
2, 155458, Note_on_c, 0, 72, 0
2, 155462, Note_on_c, 0, 74, 68
2, 155475, Note_on_c, 0, 58, 56
2, 155566, Note_on_c, 0, 58, 0
2, 155575, Note_on_c, 0, 76, 65
2, 155596, Note_on_c, 0, 60, 62
2, 155642, Note_on_c, 0, 65, 0
2, 155643, Note_on_c, 0, 74, 0
2, 155683, Note_on_c, 0, 77, 71
2, 155688, Note_on_c, 0, 60, 0
2, 155688, Note_on_c, 0, 76, 0
2, 155708, Note_on_c, 0, 62, 71
2, 155789, Note_on_c, 0, 62, 0
2, 155804, Note_on_c, 0, 76, 71
2, 155804, Note_on_c, 0, 77, 0
2, 155810, Note_on_c, 0, 60, 71
2, 155903, Note_on_c, 0, 60, 0
2, 155911, Note_on_c, 0, 77, 83
2, 155914, Note_on_c, 0, 62, 84
2, 155923, Note_on_c, 0, 58, 64
2, 155954, Note_on_c, 0, 76, 0
2, 155991, Note_on_c, 0, 62, 0
2, 156020, Note_on_c, 0, 58, 0
2, 156031, Note_on_c, 0, 57, 65
2, 156130, Note_on_c, 0, 57, 0
2, 156146, Note_on_c, 0, 58, 67
2, 156147, Note_on_c, 0, 67, 84
2, 156196, Note_on_c, 0, 67, 0
2, 156211, Note_on_c, 0, 58, 0
2, 156275, Note_on_c, 0, 62, 50
2, 156364, Note_on_c, 0, 77, 0
2, 156366, Note_on_c, 0, 62, 0
2, 156374, Note_on_c, 0, 67, 72
2, 156397, Note_on_c, 0, 61, 49
2, 156450, Note_on_c, 0, 67, 0
2, 156468, Note_on_c, 0, 61, 0
2, 156485, Note_on_c, 0, 77, 67
2, 156507, Note_on_c, 0, 62, 55
2, 156584, Note_on_c, 0, 62, 0
2, 156586, Note_on_c, 0, 77, 0
2, 156605, Note_on_c, 0, 76, 66
2, 156608, Note_on_c, 0, 55, 58
2, 156614, Note_on_c, 0, 67, 60
2, 156655, Note_on_c, 0, 67, 0
2, 156673, Note_on_c, 0, 55, 0
2, 156716, Note_on_c, 0, 74, 66
2, 156718, Note_on_c, 0, 76, 0
2, 156721, Note_on_c, 0, 58, 65
2, 156816, Note_on_c, 0, 58, 0
2, 156823, Note_on_c, 0, 74, 0
2, 156840, Note_on_c, 0, 57, 61
2, 156844, Note_on_c, 0, 76, 69
2, 156847, Note_on_c, 0, 67, 81
2, 156928, Note_on_c, 0, 67, 0
2, 156935, Note_on_c, 0, 57, 0
2, 156944, Note_on_c, 0, 74, 75
2, 156945, Note_on_c, 0, 76, 0
2, 156954, Note_on_c, 0, 58, 63
2, 157045, Note_on_c, 0, 58, 0
2, 157063, Note_on_c, 0, 74, 0
2, 157070, Note_on_c, 0, 52, 64
2, 157073, Note_on_c, 0, 67, 81
2, 157076, Note_on_c, 0, 73, 76
2, 157153, Note_on_c, 0, 52, 0
2, 157159, Note_on_c, 0, 73, 0
2, 157171, Note_on_c, 0, 74, 79
2, 157176, Note_on_c, 0, 64, 71
2, 157204, Note_on_c, 0, 67, 0
2, 157253, Note_on_c, 0, 74, 0
2, 157287, Note_on_c, 0, 64, 0
2, 157296, Note_on_c, 0, 61, 65
2, 157298, Note_on_c, 0, 76, 80
2, 157303, Note_on_c, 0, 67, 80
2, 157366, Note_on_c, 0, 61, 0
2, 157366, Note_on_c, 0, 67, 0
2, 157402, Note_on_c, 0, 57, 67
2, 157490, Note_on_c, 0, 57, 0
2, 157521, Note_on_c, 0, 67, 85
2, 157528, Note_on_c, 0, 62, 63
2, 157602, Note_on_c, 0, 62, 0
2, 157624, Note_on_c, 0, 50, 71
2, 157703, Note_on_c, 0, 67, 0
2, 157727, Note_on_c, 0, 50, 0
2, 157748, Note_on_c, 0, 53, 66
2, 157757, Note_on_c, 0, 65, 74
2, 157765, Note_on_c, 0, 74, 79
2, 157807, Note_on_c, 0, 65, 0
2, 157807, Note_on_c, 0, 76, 0
2, 157840, Note_on_c, 0, 53, 0
2, 157853, Note_on_c, 0, 74, 0
2, 157858, Note_on_c, 0, 57, 70
2, 157954, Note_on_c, 0, 57, 0
2, 157977, Note_on_c, 0, 77, 91
2, 157991, Note_on_c, 0, 62, 67
2, 158092, Note_on_c, 0, 62, 0
2, 158093, Note_on_c, 0, 69, 73
2, 158118, Note_on_c, 0, 60, 56
2, 158167, Note_on_c, 0, 60, 0
2, 158201, Note_on_c, 0, 70, 71
2, 158204, Note_on_c, 0, 69, 0
2, 158223, Note_on_c, 0, 62, 54
2, 158280, Note_on_c, 0, 77, 0
2, 158310, Note_on_c, 0, 62, 0
2, 158313, Note_on_c, 0, 72, 77
2, 158323, Note_on_c, 0, 60, 54
2, 158334, Note_on_c, 0, 70, 0
2, 158416, Note_on_c, 0, 60, 0
2, 158427, Note_on_c, 0, 58, 67
2, 158434, Note_on_c, 0, 74, 78
2, 158437, Note_on_c, 0, 72, 0
2, 158505, Note_on_c, 0, 58, 0
2, 158507, Note_on_c, 0, 74, 0
2, 158535, Note_on_c, 0, 72, 80
2, 158537, Note_on_c, 0, 62, 66
2, 158656, Note_on_c, 0, 62, 0
2, 158666, Note_on_c, 0, 55, 67
2, 158669, Note_on_c, 0, 74, 93
2, 158670, Note_on_c, 0, 72, 0
2, 158709, Note_on_c, 0, 74, 0
2, 158738, Note_on_c, 0, 55, 0
2, 158767, Note_on_c, 0, 58, 67
2, 158893, Note_on_c, 0, 79, 96
2, 158895, Note_on_c, 0, 58, 0
2, 158899, Note_on_c, 0, 74, 84
2, 158902, Note_on_c, 0, 51, 71
2, 159006, Note_on_c, 0, 51, 0
2, 159013, Note_on_c, 0, 55, 65
2, 159121, Note_on_c, 0, 55, 0
2, 159135, Note_on_c, 0, 67, 84
2, 159142, Note_on_c, 0, 57, 72
2, 159155, Note_on_c, 0, 79, 0
2, 159176, Note_on_c, 0, 74, 0
2, 159195, Note_on_c, 0, 67, 0
2, 159239, Note_on_c, 0, 57, 0
2, 159244, Note_on_c, 0, 58, 63
2, 159354, Note_on_c, 0, 58, 0
2, 159368, Note_on_c, 0, 75, 96
2, 159372, Note_on_c, 0, 60, 72
2, 159455, Note_on_c, 0, 60, 0
2, 159487, Note_on_c, 0, 58, 62
2, 159489, Note_on_c, 0, 67, 62
2, 159571, Note_on_c, 0, 58, 0
2, 159595, Note_on_c, 0, 60, 65
2, 159602, Note_on_c, 0, 69, 79
2, 159614, Note_on_c, 0, 67, 0
2, 159618, Note_on_c, 0, 75, 0
2, 159706, Note_on_c, 0, 60, 0
2, 159708, Note_on_c, 0, 58, 60
2, 159721, Note_on_c, 0, 70, 76
2, 159739, Note_on_c, 0, 69, 0
2, 159792, Note_on_c, 0, 58, 0
2, 159797, Note_on_c, 0, 57, 69
2, 159799, Note_on_c, 0, 70, 0
2, 159817, Note_on_c, 0, 72, 84
2, 159894, Note_on_c, 0, 57, 0
2, 159908, Note_on_c, 0, 60, 66
2, 159924, Note_on_c, 0, 72, 0
2, 159950, Note_on_c, 0, 70, 48
2, 159987, Note_on_c, 0, 70, 0
2, 160017, Note_on_c, 0, 60, 0
2, 160032, Note_on_c, 0, 53, 69
2, 160035, Note_on_c, 0, 72, 97
2, 160076, Note_on_c, 0, 72, 0
2, 160116, Note_on_c, 0, 53, 0
2, 160145, Note_on_c, 0, 57, 70
2, 160266, Note_on_c, 0, 77, 100
2, 160272, Note_on_c, 0, 57, 0
2, 160274, Note_on_c, 0, 72, 85
2, 160275, Note_on_c, 0, 50, 55
2, 160375, Note_on_c, 0, 50, 0
2, 160388, Note_on_c, 0, 53, 63
2, 160479, Note_on_c, 0, 53, 0
2, 160496, Note_on_c, 0, 77, 0
2, 160500, Note_on_c, 0, 55, 64
2, 160514, Note_on_c, 0, 65, 81
2, 160576, Note_on_c, 0, 72, 0
2, 160579, Note_on_c, 0, 55, 0
2, 160593, Note_on_c, 0, 65, 0
2, 160614, Note_on_c, 0, 57, 68
2, 160731, Note_on_c, 0, 74, 90
2, 160732, Note_on_c, 0, 57, 0
2, 160736, Note_on_c, 0, 58, 71
2, 160855, Note_on_c, 0, 65, 70
2, 160965, Note_on_c, 0, 67, 77
2, 160985, Note_on_c, 0, 65, 0
2, 161007, Note_on_c, 0, 58, 0
2, 161007, Note_on_c, 0, 74, 0
2, 161011, Note_on_c, 0, 57, 70
2, 161077, Note_on_c, 0, 69, 80
2, 161112, Note_on_c, 0, 67, 0
2, 161159, Note_on_c, 0, 57, 0
2, 161170, Note_on_c, 0, 55, 62
2, 161176, Note_on_c, 0, 70, 80
2, 161197, Note_on_c, 0, 69, 0
2, 161267, Note_on_c, 0, 55, 0
2, 161286, Note_on_c, 0, 70, 0
2, 161292, Note_on_c, 0, 58, 69
2, 161292, Note_on_c, 0, 69, 77
2, 161387, Note_on_c, 0, 58, 0
2, 161391, Note_on_c, 0, 70, 90
2, 161400, Note_on_c, 0, 51, 77
2, 161404, Note_on_c, 0, 69, 0
2, 161479, Note_on_c, 0, 51, 0
2, 161518, Note_on_c, 0, 55, 53
2, 161604, Note_on_c, 0, 55, 0
2, 161623, Note_on_c, 0, 48, 67
2, 161625, Note_on_c, 0, 75, 81
2, 161708, Note_on_c, 0, 48, 0
2, 161725, Note_on_c, 0, 75, 0
2, 161730, Note_on_c, 0, 55, 66
2, 161817, Note_on_c, 0, 55, 0
2, 161848, Note_on_c, 0, 75, 72
2, 161859, Note_on_c, 0, 70, 0
2, 161864, Note_on_c, 0, 57, 57
2, 161949, Note_on_c, 0, 57, 0
2, 161956, Note_on_c, 0, 75, 0
2, 161973, Note_on_c, 0, 58, 52
2, 161973, Note_on_c, 0, 70, 68
2, 162059, Note_on_c, 0, 58, 0
2, 162075, Note_on_c, 0, 70, 0
2, 162081, Note_on_c, 0, 75, 77
2, 162091, Note_on_c, 0, 60, 64
2, 162100, Note_on_c, 0, 69, 62
2, 162175, Note_on_c, 0, 60, 0
2, 162178, Note_on_c, 0, 69, 0
2, 162194, Note_on_c, 0, 75, 0
2, 162202, Note_on_c, 0, 58, 55
2, 162203, Note_on_c, 0, 67, 67
2, 162280, Note_on_c, 0, 67, 0
2, 162286, Note_on_c, 0, 58, 0
2, 162308, Note_on_c, 0, 69, 79
2, 162311, Note_on_c, 0, 75, 79
2, 162313, Note_on_c, 0, 60, 62
2, 162362, Note_on_c, 0, 69, 0
2, 162399, Note_on_c, 0, 60, 0
2, 162426, Note_on_c, 0, 58, 62
2, 162436, Note_on_c, 0, 67, 72
2, 162443, Note_on_c, 0, 75, 0
2, 162500, Note_on_c, 0, 67, 0
2, 162525, Note_on_c, 0, 58, 0
2, 162540, Note_on_c, 0, 57, 72
2, 162547, Note_on_c, 0, 65, 78
2, 162547, Note_on_c, 0, 75, 86
2, 162601, Note_on_c, 0, 75, 0
2, 162627, Note_on_c, 0, 57, 0
2, 162644, Note_on_c, 0, 53, 77
2, 162757, Note_on_c, 0, 53, 0
2, 162767, Note_on_c, 0, 55, 69
2, 162780, Note_on_c, 0, 75, 89
2, 162882, Note_on_c, 0, 55, 0
2, 162891, Note_on_c, 0, 57, 70
2, 162976, Note_on_c, 0, 57, 0
2, 163001, Note_on_c, 0, 58, 70
2, 163082, Note_on_c, 0, 58, 0
2, 163112, Note_on_c, 0, 57, 64
2, 163193, Note_on_c, 0, 75, 0
2, 163209, Note_on_c, 0, 65, 0
2, 163212, Note_on_c, 0, 74, 72
2, 163214, Note_on_c, 0, 57, 0
2, 163224, Note_on_c, 0, 58, 71
2, 163310, Note_on_c, 0, 75, 81
2, 163331, Note_on_c, 0, 58, 0
2, 163333, Note_on_c, 0, 60, 76
2, 163344, Note_on_c, 0, 74, 0
2, 163435, Note_on_c, 0, 60, 0
2, 163441, Note_on_c, 0, 58, 92
2, 163445, Note_on_c, 0, 77, 78
2, 163449, Note_on_c, 0, 62, 87
2, 163472, Note_on_c, 0, 75, 0
2, 163493, Note_on_c, 0, 76, 20
2, 163494, Note_on_c, 0, 76, 0
2, 163512, Note_on_c, 0, 62, 0
2, 163549, Note_on_c, 0, 77, 0
2, 163559, Note_on_c, 0, 60, 69
2, 163566, Note_on_c, 0, 70, 81
2, 163634, Note_on_c, 0, 58, 0
2, 163662, Note_on_c, 0, 62, 70
2, 163677, Note_on_c, 0, 60, 0
2, 163681, Note_on_c, 0, 77, 76
2, 163690, Note_on_c, 0, 70, 0
2, 163705, Note_on_c, 0, 58, 3
2, 163752, Note_on_c, 0, 62, 0
2, 163784, Note_on_c, 0, 64, 69
2, 163802, Note_on_c, 0, 79, 81
2, 163804, Note_on_c, 0, 77, 0
2, 163882, Note_on_c, 0, 64, 0
2, 163903, Note_on_c, 0, 65, 78
2, 163912, Note_on_c, 0, 81, 84
2, 163925, Note_on_c, 0, 58, 0
2, 163930, Note_on_c, 0, 79, 0
2, 164012, Note_on_c, 0, 64, 75
2, 164013, Note_on_c, 0, 65, 0
2, 164026, Note_on_c, 0, 79, 83
2, 164042, Note_on_c, 0, 81, 0
2, 164094, Note_on_c, 0, 64, 0
2, 164127, Note_on_c, 0, 65, 92
2, 164131, Note_on_c, 0, 57, 86
2, 164143, Note_on_c, 0, 81, 84
2, 164157, Note_on_c, 0, 79, 0
2, 164170, Note_on_c, 0, 57, 0
2, 164258, Note_on_c, 0, 81, 0
2, 164260, Note_on_c, 0, 72, 79
2, 164366, Note_on_c, 0, 62, 91
2, 164368, Note_on_c, 0, 81, 84
2, 164376, Note_on_c, 0, 70, 82
2, 164389, Note_on_c, 0, 72, 0
2, 164478, Note_on_c, 0, 70, 0
2, 164484, Note_on_c, 0, 72, 73
2, 164536, Note_on_c, 0, 81, 0
2, 164585, Note_on_c, 0, 72, 0
2, 164591, Note_on_c, 0, 70, 73
2, 164591, Note_on_c, 0, 74, 71
2, 164625, Note_on_c, 0, 70, 0
2, 164674, Note_on_c, 0, 62, 0
2, 164716, Note_on_c, 0, 69, 70
2, 164722, Note_on_c, 0, 74, 0
2, 164809, Note_on_c, 0, 69, 0
2, 164820, Note_on_c, 0, 67, 72
2, 164823, Note_on_c, 0, 65, 0
2, 164830, Note_on_c, 0, 62, 78
2, 164831, Note_on_c, 0, 58, 86
2, 164947, Note_on_c, 0, 74, 72
2, 165056, Note_on_c, 0, 76, 75
2, 165065, Note_on_c, 0, 74, 0
2, 165171, Note_on_c, 0, 77, 80
2, 165199, Note_on_c, 0, 76, 0
2, 165270, Note_on_c, 0, 64, 84
2, 165276, Note_on_c, 0, 79, 82
2, 165279, Note_on_c, 0, 67, 0
2, 165297, Note_on_c, 0, 62, 0
2, 165302, Note_on_c, 0, 58, 0
2, 165302, Note_on_c, 0, 77, 0
2, 165395, Note_on_c, 0, 77, 84
2, 165410, Note_on_c, 0, 79, 0
2, 165508, Note_on_c, 0, 55, 85
2, 165512, Note_on_c, 0, 79, 85
2, 165514, Note_on_c, 0, 77, 0
2, 165551, Note_on_c, 0, 55, 0
2, 165625, Note_on_c, 0, 70, 78
2, 165653, Note_on_c, 0, 79, 0
2, 165742, Note_on_c, 0, 60, 87
2, 165743, Note_on_c, 0, 69, 78
2, 165743, Note_on_c, 0, 79, 82
2, 165755, Note_on_c, 0, 70, 0
2, 165853, Note_on_c, 0, 69, 0
2, 165859, Note_on_c, 0, 70, 70
2, 165913, Note_on_c, 0, 79, 0
2, 165959, Note_on_c, 0, 70, 0
2, 165966, Note_on_c, 0, 72, 72
2, 165967, Note_on_c, 0, 69, 71
2, 166003, Note_on_c, 0, 69, 0
2, 166032, Note_on_c, 0, 60, 0
2, 166076, Note_on_c, 0, 67, 73
2, 166170, Note_on_c, 0, 67, 0
2, 166174, Note_on_c, 0, 64, 0
2, 166193, Note_on_c, 0, 65, 79
2, 166195, Note_on_c, 0, 57, 81
2, 166195, Note_on_c, 0, 72, 0
2, 166197, Note_on_c, 0, 60, 80
2, 166311, Note_on_c, 0, 72, 76
2, 166399, Note_on_c, 0, 65, 0
2, 166426, Note_on_c, 0, 74, 75
2, 166471, Note_on_c, 0, 72, 0
2, 166536, Note_on_c, 0, 76, 74
2, 166564, Note_on_c, 0, 74, 0
2, 166639, Note_on_c, 0, 57, 0
2, 166639, Note_on_c, 0, 62, 79
2, 166649, Note_on_c, 0, 77, 84
2, 166654, Note_on_c, 0, 60, 0
2, 166675, Note_on_c, 0, 76, 0
2, 166758, Note_on_c, 0, 76, 79
2, 166773, Note_on_c, 0, 77, 0
2, 166860, Note_on_c, 0, 76, 0
2, 166872, Note_on_c, 0, 77, 87
2, 166877, Note_on_c, 0, 53, 78
2, 166933, Note_on_c, 0, 53, 0
2, 166991, Note_on_c, 0, 69, 81
2, 167055, Note_on_c, 0, 69, 0
2, 167112, Note_on_c, 0, 67, 72
2, 167114, Note_on_c, 0, 58, 71
2, 167153, Note_on_c, 0, 58, 0
2, 167223, Note_on_c, 0, 62, 0
2, 167229, Note_on_c, 0, 74, 68
2, 167254, Note_on_c, 0, 77, 0
2, 167340, Note_on_c, 0, 74, 0
2, 167343, Note_on_c, 0, 58, 64
2, 167352, Note_on_c, 0, 76, 70
2, 167392, Note_on_c, 0, 58, 0
2, 167458, Note_on_c, 0, 77, 76
2, 167477, Note_on_c, 0, 76, 0
2, 167571, Note_on_c, 0, 58, 73
2, 167572, Note_on_c, 0, 79, 79
2, 167599, Note_on_c, 0, 77, 0
2, 167612, Note_on_c, 0, 58, 0
2, 167691, Note_on_c, 0, 81, 79
2, 167697, Note_on_c, 0, 79, 0
2, 167807, Note_on_c, 0, 82, 87
2, 167808, Note_on_c, 0, 58, 78
2, 167835, Note_on_c, 0, 81, 0
2, 167838, Note_on_c, 0, 67, 0
2, 167872, Note_on_c, 0, 58, 0
2, 167915, Note_on_c, 0, 79, 84
2, 167933, Note_on_c, 0, 82, 0
2, 168022, Note_on_c, 0, 58, 79
2, 168025, Note_on_c, 0, 60, 77
2, 168029, Note_on_c, 0, 77, 90
2, 168057, Note_on_c, 0, 79, 0
2, 168097, Note_on_c, 0, 58, 0
2, 168118, Note_on_c, 0, 77, 0
2, 168131, Note_on_c, 0, 76, 81
2, 168240, Note_on_c, 0, 76, 0
2, 168245, Note_on_c, 0, 58, 73
2, 168251, Note_on_c, 0, 74, 77
2, 168303, Note_on_c, 0, 58, 0
2, 168310, Note_on_c, 0, 74, 0
2, 168342, Note_on_c, 0, 72, 81
2, 168382, Note_on_c, 0, 72, 0
2, 168480, Note_on_c, 0, 58, 61
2, 168480, Note_on_c, 0, 77, 83
2, 168488, Note_on_c, 0, 65, 66
2, 168521, Note_on_c, 0, 77, 0
2, 168573, Note_on_c, 0, 65, 0
2, 168617, Note_on_c, 0, 65, 5
2, 168713, Note_on_c, 0, 58, 0
2, 168727, Note_on_c, 0, 57, 52
2, 168730, Note_on_c, 0, 72, 70
2, 168745, Note_on_c, 0, 60, 0
2, 168760, Note_on_c, 0, 72, 0
2, 168807, Note_on_c, 0, 57, 0
2, 168834, Note_on_c, 0, 55, 52
2, 168862, Note_on_c, 0, 65, 0
2, 168914, Note_on_c, 0, 55, 0
2, 168936, Note_on_c, 0, 57, 59
2, 168952, Note_on_c, 0, 77, 74
2, 169019, Note_on_c, 0, 57, 0
2, 169067, Note_on_c, 0, 53, 35
2, 169155, Note_on_c, 0, 53, 0
2, 169179, Note_on_c, 0, 77, 0
2, 169180, Note_on_c, 0, 75, 73
2, 169193, Note_on_c, 0, 57, 51
2, 169254, Note_on_c, 0, 75, 0
2, 169274, Note_on_c, 0, 57, 0
2, 169284, Note_on_c, 0, 74, 72
2, 169309, Note_on_c, 0, 59, 54
2, 169391, Note_on_c, 0, 59, 0
2, 169406, Note_on_c, 0, 74, 0
2, 169409, Note_on_c, 0, 75, 80
2, 169428, Note_on_c, 0, 60, 59
2, 169492, Note_on_c, 0, 60, 0
2, 169511, Note_on_c, 0, 59, 70
2, 169517, Note_on_c, 0, 67, 88
2, 169556, Note_on_c, 0, 75, 0
2, 169613, Note_on_c, 0, 59, 0
2, 169622, Note_on_c, 0, 67, 0
2, 169625, Note_on_c, 0, 68, 76
2, 169625, Note_on_c, 0, 72, 75
2, 169630, Note_on_c, 0, 60, 57
2, 169697, Note_on_c, 0, 72, 0
2, 169705, Note_on_c, 0, 68, 0
2, 169734, Note_on_c, 0, 67, 77
2, 169831, Note_on_c, 0, 67, 0
2, 169832, Note_on_c, 0, 60, 0
2, 169847, Note_on_c, 0, 74, 71
2, 169852, Note_on_c, 0, 65, 57
2, 169879, Note_on_c, 0, 74, 0
2, 169882, Note_on_c, 0, 65, 0
2, 169968, Note_on_c, 0, 60, 67
2, 170062, Note_on_c, 0, 60, 0
2, 170068, Note_on_c, 0, 67, 83
2, 170070, Note_on_c, 0, 62, 72
2, 170077, Note_on_c, 0, 59, 65
2, 170104, Note_on_c, 0, 62, 0
2, 170107, Note_on_c, 0, 67, 0
2, 170173, Note_on_c, 0, 59, 0
2, 170197, Note_on_c, 0, 57, 64
2, 170276, Note_on_c, 0, 57, 0
2, 170303, Note_on_c, 0, 79, 86
2, 170305, Note_on_c, 0, 59, 71
2, 170397, Note_on_c, 0, 59, 0
2, 170425, Note_on_c, 0, 55, 62
2, 170499, Note_on_c, 0, 55, 0
2, 170527, Note_on_c, 0, 77, 84
2, 170531, Note_on_c, 0, 59, 67
2, 170556, Note_on_c, 0, 79, 0
2, 170605, Note_on_c, 0, 59, 0
2, 170638, Note_on_c, 0, 60, 61
2, 170642, Note_on_c, 0, 75, 86
2, 170664, Note_on_c, 0, 77, 0
2, 170727, Note_on_c, 0, 60, 0
2, 170748, Note_on_c, 0, 62, 65
2, 170749, Note_on_c, 0, 77, 88
2, 170772, Note_on_c, 0, 75, 0
2, 170843, Note_on_c, 0, 69, 90
2, 170862, Note_on_c, 0, 62, 0
2, 170865, Note_on_c, 0, 60, 70
2, 170898, Note_on_c, 0, 77, 0
2, 170945, Note_on_c, 0, 60, 0
2, 170975, Note_on_c, 0, 62, 69
2, 170975, Note_on_c, 0, 71, 79
2, 170980, Note_on_c, 0, 74, 75
2, 170986, Note_on_c, 0, 69, 0
2, 171044, Note_on_c, 0, 71, 0
2, 171048, Note_on_c, 0, 74, 0
2, 171076, Note_on_c, 0, 69, 80
2, 171154, Note_on_c, 0, 69, 0
2, 171184, Note_on_c, 0, 67, 74
2, 171189, Note_on_c, 0, 75, 79
2, 171220, Note_on_c, 0, 67, 0
2, 171249, Note_on_c, 0, 75, 0
2, 171275, Note_on_c, 0, 62, 0
2, 171292, Note_on_c, 0, 55, 65
2, 171382, Note_on_c, 0, 55, 0
2, 171397, Note_on_c, 0, 60, 74
2, 171403, Note_on_c, 0, 63, 71
2, 171403, Note_on_c, 0, 72, 90
2, 171432, Note_on_c, 0, 63, 0
2, 171449, Note_on_c, 0, 72, 0
2, 171509, Note_on_c, 0, 60, 0
2, 171517, Note_on_c, 0, 59, 66
2, 171635, Note_on_c, 0, 80, 98
2, 171641, Note_on_c, 0, 60, 70
2, 171642, Note_on_c, 0, 59, 0
2, 171736, Note_on_c, 0, 60, 0
2, 171770, Note_on_c, 0, 55, 45
2, 171847, Note_on_c, 0, 79, 79
2, 171852, Note_on_c, 0, 60, 76
2, 171857, Note_on_c, 0, 55, 0
2, 171881, Note_on_c, 0, 80, 0
2, 171929, Note_on_c, 0, 60, 0
2, 171959, Note_on_c, 0, 62, 70
2, 171961, Note_on_c, 0, 77, 92
2, 171990, Note_on_c, 0, 79, 0
2, 172071, Note_on_c, 0, 63, 81
2, 172077, Note_on_c, 0, 62, 0
2, 172080, Note_on_c, 0, 79, 77
2, 172179, Note_on_c, 0, 63, 0
2, 172180, Note_on_c, 0, 62, 83
2, 172203, Note_on_c, 0, 71, 90
2, 172239, Note_on_c, 0, 77, 0
2, 172240, Note_on_c, 0, 79, 0
2, 172286, Note_on_c, 0, 62, 0
2, 172289, Note_on_c, 0, 63, 85
2, 172308, Note_on_c, 0, 72, 79
2, 172308, Note_on_c, 0, 75, 83
2, 172314, Note_on_c, 0, 71, 0
2, 172370, Note_on_c, 0, 72, 0
2, 172411, Note_on_c, 0, 75, 0
2, 172417, Note_on_c, 0, 70, 85
2, 172455, Note_on_c, 0, 69, 53
2, 172473, Note_on_c, 0, 70, 0
2, 172473, Note_on_c, 0, 71, 38
2, 172480, Note_on_c, 0, 69, 0
2, 172504, Note_on_c, 0, 71, 0
2, 172531, Note_on_c, 0, 77, 93
2, 172534, Note_on_c, 0, 68, 81
2, 172572, Note_on_c, 0, 69, 25
2, 172610, Note_on_c, 0, 69, 0
2, 172627, Note_on_c, 0, 63, 0
2, 172649, Note_on_c, 0, 68, 0
2, 172650, Note_on_c, 0, 67, 80
2, 172757, Note_on_c, 0, 68, 81
2, 172761, Note_on_c, 0, 67, 0
2, 172857, Note_on_c, 0, 63, 86
2, 172971, Note_on_c, 0, 62, 86
2, 172974, Note_on_c, 0, 63, 0
2, 173013, Note_on_c, 0, 64, 29
2, 173014, Note_on_c, 0, 64, 0
2, 173090, Note_on_c, 0, 68, 0
2, 173093, Note_on_c, 0, 67, 82
2, 173206, Note_on_c, 0, 68, 85
2, 173248, Note_on_c, 0, 67, 0
2, 173308, Note_on_c, 0, 62, 0
2, 173309, Note_on_c, 0, 60, 85
2, 173408, Note_on_c, 0, 59, 90
2, 173418, Note_on_c, 0, 60, 0
2, 173480, Note_on_c, 0, 77, 0
2, 173539, Note_on_c, 0, 75, 82
2, 173627, Note_on_c, 0, 75, 0
2, 173642, Note_on_c, 0, 74, 82
2, 173688, Note_on_c, 0, 68, 0
2, 173743, Note_on_c, 0, 59, 0
2, 173743, Note_on_c, 0, 62, 78
2, 173751, Note_on_c, 0, 72, 84
2, 173852, Note_on_c, 0, 62, 0
2, 173853, Note_on_c, 0, 71, 87
2, 173860, Note_on_c, 0, 55, 93
2, 173864, Note_on_c, 0, 74, 0
2, 173896, Note_on_c, 0, 72, 0
2, 173904, Note_on_c, 0, 55, 0
2, 173986, Note_on_c, 0, 68, 83
2, 174007, Note_on_c, 0, 71, 0
2, 174095, Note_on_c, 0, 68, 0
2, 174096, Note_on_c, 0, 59, 86
2, 174098, Note_on_c, 0, 74, 77
2, 174106, Note_on_c, 0, 67, 73
2, 174129, Note_on_c, 0, 59, 0
2, 174131, Note_on_c, 0, 72, 49
2, 174133, Note_on_c, 0, 67, 0
2, 174169, Note_on_c, 0, 72, 0
2, 174217, Note_on_c, 0, 65, 75
2, 174306, Note_on_c, 0, 65, 0
2, 174326, Note_on_c, 0, 60, 90
2, 174328, Note_on_c, 0, 63, 83
2, 174374, Note_on_c, 0, 60, 0
2, 174452, Note_on_c, 0, 67, 69
2, 174498, Note_on_c, 0, 74, 0
2, 174524, Note_on_c, 0, 63, 0
2, 174554, Note_on_c, 0, 72, 85
2, 174555, Note_on_c, 0, 56, 90
2, 174556, Note_on_c, 0, 67, 0
2, 174596, Note_on_c, 0, 56, 0
2, 174676, Note_on_c, 0, 63, 75
2, 174763, Note_on_c, 0, 72, 0
2, 174788, Note_on_c, 0, 53, 91
2, 174791, Note_on_c, 0, 62, 79
2, 174826, Note_on_c, 0, 63, 0
2, 174830, Note_on_c, 0, 53, 0
2, 174900, Note_on_c, 0, 72, 79
2, 174965, Note_on_c, 0, 62, 0
2, 175010, Note_on_c, 0, 55, 89
2, 175011, Note_on_c, 0, 71, 81
2, 175044, Note_on_c, 0, 55, 0
2, 175051, Note_on_c, 0, 72, 0
2, 175134, Note_on_c, 0, 65, 68
2, 175158, Note_on_c, 0, 71, 0
2, 175181, Note_on_c, 0, 65, 0
2, 175219, Note_on_c, 0, 48, 80
2, 175229, Note_on_c, 0, 72, 90
2, 175348, Note_on_c, 0, 65, 74
2, 175384, Note_on_c, 0, 72, 0
2, 175393, Note_on_c, 0, 48, 0
2, 175447, Note_on_c, 0, 65, 0
2, 175471, Note_on_c, 0, 63, 65
2, 175549, Note_on_c, 0, 63, 0
2, 175576, Note_on_c, 0, 62, 64
2, 175608, Note_on_c, 0, 62, 0
2, 175693, Note_on_c, 0, 63, 69
2, 175706, Note_on_c, 0, 60, 62
2, 175816, Note_on_c, 0, 70, 64
2, 175821, Note_on_c, 0, 48, 50
2, 175885, Note_on_c, 0, 48, 0
2, 175916, Note_on_c, 0, 70, 0
2, 175939, Note_on_c, 0, 69, 51
2, 175951, Note_on_c, 0, 50, 37
2, 176006, Note_on_c, 0, 50, 0
2, 176038, Note_on_c, 0, 69, 0
2, 176051, Note_on_c, 0, 67, 56
2, 176052, Note_on_c, 0, 51, 47
2, 176075, Note_on_c, 0, 63, 0
2, 176100, Note_on_c, 0, 60, 0
2, 176126, Note_on_c, 0, 51, 0
2, 176132, Note_on_c, 0, 67, 0
2, 176160, Note_on_c, 0, 53, 58
2, 176164, Note_on_c, 0, 69, 61
2, 176271, Note_on_c, 0, 51, 55
2, 176274, Note_on_c, 0, 53, 0
2, 176399, Note_on_c, 0, 60, 75
2, 176404, Note_on_c, 0, 57, 70
2, 176407, Note_on_c, 0, 51, 0
2, 176425, Note_on_c, 0, 53, 49
2, 176427, Note_on_c, 0, 60, 0
2, 176433, Note_on_c, 0, 57, 0
2, 176453, Note_on_c, 0, 53, 0
2, 176634, Note_on_c, 0, 53, 49
2, 176635, Note_on_c, 0, 65, 72
2, 176638, Note_on_c, 0, 62, 68
2, 176724, Note_on_c, 0, 69, 0
2, 176752, Note_on_c, 0, 62, 0
2, 176756, Note_on_c, 0, 67, 64
2, 176802, Note_on_c, 0, 65, 0
2, 176851, Note_on_c, 0, 46, 65
2, 176860, Note_on_c, 0, 67, 0
2, 176860, Note_on_c, 0, 69, 57
2, 176891, Note_on_c, 0, 53, 0
2, 176932, Note_on_c, 0, 46, 0
2, 176956, Note_on_c, 0, 69, 0
2, 176966, Note_on_c, 0, 70, 61
2, 177083, Note_on_c, 0, 58, 74
2, 177086, Note_on_c, 0, 62, 71
2, 177089, Note_on_c, 0, 67, 66
2, 177095, Note_on_c, 0, 70, 0
2, 177208, Note_on_c, 0, 46, 56
2, 177305, Note_on_c, 0, 46, 0
2, 177318, Note_on_c, 0, 48, 51
2, 177359, Note_on_c, 0, 58, 0
2, 177426, Note_on_c, 0, 48, 0
2, 177433, Note_on_c, 0, 50, 63
2, 177529, Note_on_c, 0, 50, 0
2, 177539, Note_on_c, 0, 51, 70
2, 177552, Note_on_c, 0, 62, 0
2, 177638, Note_on_c, 0, 51, 0
2, 177661, Note_on_c, 0, 50, 56
2, 177786, Note_on_c, 0, 51, 67
2, 177797, Note_on_c, 0, 58, 75
2, 177799, Note_on_c, 0, 55, 62
2, 177800, Note_on_c, 0, 50, 0
2, 177824, Note_on_c, 0, 58, 0
2, 177827, Note_on_c, 0, 51, 0
2, 177827, Note_on_c, 0, 55, 0
2, 178028, Note_on_c, 0, 51, 59
2, 178028, Note_on_c, 0, 63, 70
2, 178042, Note_on_c, 0, 60, 60
2, 178082, Note_on_c, 0, 67, 0
2, 178156, Note_on_c, 0, 65, 60
2, 178185, Note_on_c, 0, 63, 0
2, 178233, Note_on_c, 0, 60, 0
2, 178248, Note_on_c, 0, 45, 49
2, 178291, Note_on_c, 0, 67, 56
2, 178294, Note_on_c, 0, 65, 0
2, 178313, Note_on_c, 0, 51, 0
2, 178318, Note_on_c, 0, 45, 0
2, 178360, Note_on_c, 0, 69, 63
2, 178361, Note_on_c, 0, 67, 0
2, 178467, Note_on_c, 0, 60, 71
2, 178472, Note_on_c, 0, 57, 63
2, 178482, Note_on_c, 0, 65, 62
2, 178496, Note_on_c, 0, 69, 0
2, 178575, Note_on_c, 0, 45, 59
2, 178628, Note_on_c, 0, 57, 0
2, 178680, Note_on_c, 0, 45, 0
2, 178697, Note_on_c, 0, 46, 58
2, 178811, Note_on_c, 0, 46, 0
2, 178818, Note_on_c, 0, 48, 62
2, 178841, Note_on_c, 0, 60, 0
2, 178933, Note_on_c, 0, 48, 0
2, 178955, Note_on_c, 0, 50, 64
2, 179049, Note_on_c, 0, 50, 0
2, 179055, Note_on_c, 0, 48, 67
2, 179144, Note_on_c, 0, 48, 0
2, 179158, Note_on_c, 0, 57, 75
2, 179171, Note_on_c, 0, 53, 71
2, 179179, Note_on_c, 0, 50, 64
2, 179214, Note_on_c, 0, 57, 0
2, 179294, Note_on_c, 0, 53, 0
2, 179383, Note_on_c, 0, 58, 77
2, 179389, Note_on_c, 0, 62, 71
2, 179419, Note_on_c, 0, 58, 0
2, 179452, Note_on_c, 0, 62, 0
2, 179496, Note_on_c, 0, 50, 0
2, 179507, Note_on_c, 0, 48, 55
2, 179608, Note_on_c, 0, 48, 0
2, 179617, Note_on_c, 0, 58, 69
2, 179632, Note_on_c, 0, 62, 59
2, 179633, Note_on_c, 0, 50, 58
2, 179704, Note_on_c, 0, 58, 0
2, 179713, Note_on_c, 0, 62, 0
2, 179725, Note_on_c, 0, 50, 0
2, 179729, Note_on_c, 0, 69, 63
2, 179752, Note_on_c, 0, 48, 56
2, 179753, Note_on_c, 0, 65, 0
2, 179842, Note_on_c, 0, 58, 62
2, 179843, Note_on_c, 0, 69, 0
2, 179845, Note_on_c, 0, 62, 57
2, 179847, Note_on_c, 0, 67, 65
2, 179850, Note_on_c, 0, 48, 0
2, 179857, Note_on_c, 0, 46, 59
2, 179923, Note_on_c, 0, 58, 0
2, 179932, Note_on_c, 0, 62, 0
2, 179957, Note_on_c, 0, 46, 0
2, 179972, Note_on_c, 0, 45, 58
2, 180067, Note_on_c, 0, 45, 0
2, 180088, Note_on_c, 0, 58, 71
2, 180088, Note_on_c, 0, 62, 69
2, 180095, Note_on_c, 0, 46, 62
2, 180179, Note_on_c, 0, 46, 0
2, 180194, Note_on_c, 0, 65, 78
2, 180196, Note_on_c, 0, 45, 69
2, 180211, Note_on_c, 0, 58, 0
2, 180211, Note_on_c, 0, 62, 0
2, 180257, Note_on_c, 0, 67, 0
2, 180299, Note_on_c, 0, 70, 87
2, 180303, Note_on_c, 0, 43, 70
2, 180304, Note_on_c, 0, 45, 0
2, 180310, Note_on_c, 0, 58, 75
2, 180314, Note_on_c, 0, 62, 73
2, 180336, Note_on_c, 0, 65, 0
2, 180403, Note_on_c, 0, 58, 0
2, 180406, Note_on_c, 0, 43, 0
2, 180412, Note_on_c, 0, 41, 69
2, 180414, Note_on_c, 0, 62, 0
2, 180493, Note_on_c, 0, 41, 0
2, 180511, Note_on_c, 0, 43, 72
2, 180517, Note_on_c, 0, 58, 71
2, 180522, Note_on_c, 0, 62, 74
2, 180535, Note_on_c, 0, 70, 0
2, 180612, Note_on_c, 0, 41, 68
2, 180614, Note_on_c, 0, 43, 0
2, 180617, Note_on_c, 0, 58, 0
2, 180625, Note_on_c, 0, 69, 74
2, 180627, Note_on_c, 0, 62, 0
2, 180660, Note_on_c, 0, 69, 0
2, 180736, Note_on_c, 0, 67, 73
2, 180741, Note_on_c, 0, 41, 0
2, 180746, Note_on_c, 0, 40, 64
2, 180752, Note_on_c, 0, 58, 66
2, 180758, Note_on_c, 0, 62, 58
2, 180864, Note_on_c, 0, 40, 0
2, 180878, Note_on_c, 0, 36, 57
2, 180880, Note_on_c, 0, 58, 0
2, 180979, Note_on_c, 0, 60, 68
2, 180981, Note_on_c, 0, 36, 0
2, 180987, Note_on_c, 0, 57, 64
2, 180989, Note_on_c, 0, 38, 58
2, 181003, Note_on_c, 0, 67, 0
2, 181025, Note_on_c, 0, 57, 0
2, 181069, Note_on_c, 0, 60, 0
2, 181070, Note_on_c, 0, 38, 0
2, 181073, Note_on_c, 0, 62, 0
2, 181085, Note_on_c, 0, 40, 62
2, 181101, Note_on_c, 0, 55, 77
2, 181188, Note_on_c, 0, 40, 0
2, 181201, Note_on_c, 0, 41, 66
2, 181202, Note_on_c, 0, 55, 0
2, 181208, Note_on_c, 0, 65, 79
2, 181219, Note_on_c, 0, 57, 66
2, 181295, Note_on_c, 0, 57, 0
2, 181312, Note_on_c, 0, 41, 0
2, 181312, Note_on_c, 0, 55, 72
2, 181317, Note_on_c, 0, 36, 65
2, 181423, Note_on_c, 0, 41, 76
2, 181425, Note_on_c, 0, 36, 0
2, 181428, Note_on_c, 0, 57, 74
2, 181430, Note_on_c, 0, 55, 0
2, 181517, Note_on_c, 0, 41, 0
2, 181517, Note_on_c, 0, 57, 0
2, 181532, Note_on_c, 0, 59, 78
2, 181543, Note_on_c, 0, 43, 75
2, 181652, Note_on_c, 0, 44, 82
2, 181652, Note_on_c, 0, 60, 83
2, 181657, Note_on_c, 0, 43, 0
2, 181665, Note_on_c, 0, 65, 0
2, 181675, Note_on_c, 0, 59, 0
2, 181689, Note_on_c, 0, 44, 0
2, 181768, Note_on_c, 0, 59, 81
2, 181771, Note_on_c, 0, 60, 0
2, 181870, Note_on_c, 0, 38, 65
2, 181879, Note_on_c, 0, 60, 80
2, 181911, Note_on_c, 0, 38, 0
2, 181934, Note_on_c, 0, 59, 0
2, 181990, Note_on_c, 0, 65, 77
2, 182105, Note_on_c, 0, 63, 76
2, 182115, Note_on_c, 0, 43, 71
2, 182134, Note_on_c, 0, 65, 0
2, 182204, Note_on_c, 0, 43, 0
2, 182223, Note_on_c, 0, 42, 65
2, 182328, Note_on_c, 0, 42, 0
2, 182331, Note_on_c, 0, 43, 69
2, 182345, Note_on_c, 0, 60, 0
2, 182353, Note_on_c, 0, 62, 65
2, 182356, Note_on_c, 0, 59, 64
2, 182387, Note_on_c, 0, 63, 0
2, 182412, Note_on_c, 0, 43, 0
2, 182439, Note_on_c, 0, 59, 0
2, 182451, Note_on_c, 0, 45, 66
2, 182464, Note_on_c, 0, 57, 67
2, 182549, Note_on_c, 0, 57, 0
2, 182550, Note_on_c, 0, 45, 0
2, 182561, Note_on_c, 0, 47, 69
2, 182572, Note_on_c, 0, 55, 69
2, 182602, Note_on_c, 0, 62, 0
2, 182663, Note_on_c, 0, 47, 0
2, 182674, Note_on_c, 0, 45, 72
2, 182686, Note_on_c, 0, 50, 75
2, 182689, Note_on_c, 0, 55, 0
2, 182786, Note_on_c, 0, 45, 0
2, 182786, Note_on_c, 0, 47, 71
2, 182792, Note_on_c, 0, 55, 79
2, 182793, Note_on_c, 0, 50, 0
2, 182880, Note_on_c, 0, 47, 0
2, 182892, Note_on_c, 0, 57, 81
2, 182898, Note_on_c, 0, 50, 79
2, 182938, Note_on_c, 0, 55, 0
2, 182985, Note_on_c, 0, 50, 0
2, 183005, Note_on_c, 0, 59, 86
2, 183014, Note_on_c, 0, 55, 64
2, 183036, Note_on_c, 0, 57, 0
2, 183074, Note_on_c, 0, 55, 0
2, 183093, Note_on_c, 0, 59, 0
2, 183109, Note_on_c, 0, 60, 87
2, 183230, Note_on_c, 0, 62, 83
2, 183235, Note_on_c, 0, 47, 72
2, 183240, Note_on_c, 0, 60, 0
2, 183280, Note_on_c, 0, 47, 0
2, 183342, Note_on_c, 0, 67, 80
2, 183430, Note_on_c, 0, 48, 76
2, 183442, Note_on_c, 0, 65, 80
2, 183474, Note_on_c, 0, 67, 0
2, 183553, Note_on_c, 0, 60, 76
2, 183591, Note_on_c, 0, 60, 0
2, 183648, Note_on_c, 0, 62, 0
2, 183657, Note_on_c, 0, 55, 16
2, 183675, Note_on_c, 0, 60, 75
2, 183677, Note_on_c, 0, 63, 80
2, 183696, Note_on_c, 0, 48, 0
2, 183711, Note_on_c, 0, 65, 0
2, 183763, Note_on_c, 0, 63, 0
2, 183781, Note_on_c, 0, 65, 80
2, 183784, Note_on_c, 0, 51, 75
2, 183789, Note_on_c, 0, 60, 0
2, 183802, Note_on_c, 0, 55, 0
2, 183897, Note_on_c, 0, 75, 99
2, 183898, Note_on_c, 0, 67, 85
2, 183906, Note_on_c, 0, 48, 71
2, 183910, Note_on_c, 0, 51, 0
2, 183932, Note_on_c, 0, 65, 0
2, 184040, Note_on_c, 0, 55, 71
2, 184153, Note_on_c, 0, 55, 0
2, 184171, Note_on_c, 0, 57, 73
2, 184220, Note_on_c, 0, 48, 0
2, 184228, Note_on_c, 0, 67, 0
2, 184285, Note_on_c, 0, 57, 0
2, 184285, Note_on_c, 0, 59, 74
2, 184376, Note_on_c, 0, 59, 0
2, 184378, Note_on_c, 0, 60, 85
2, 184402, Note_on_c, 0, 75, 0
2, 184460, Note_on_c, 0, 60, 0
2, 184490, Note_on_c, 0, 59, 70
2, 184566, Note_on_c, 0, 59, 0
2, 184588, Note_on_c, 0, 72, 93
2, 184592, Note_on_c, 0, 63, 80
2, 184603, Note_on_c, 0, 60, 72
2, 184617, Note_on_c, 0, 63, 0
2, 184633, Note_on_c, 0, 72, 0
2, 184661, Note_on_c, 0, 60, 0
2, 184717, Note_on_c, 0, 56, 62
2, 184841, Note_on_c, 0, 77, 100
2, 184851, Note_on_c, 0, 60, 80
2, 184851, Note_on_c, 0, 68, 85
2, 184974, Note_on_c, 0, 50, 51
2, 185026, Note_on_c, 0, 56, 0
2, 185073, Note_on_c, 0, 53, 74
2, 185105, Note_on_c, 0, 50, 0
2, 185108, Note_on_c, 0, 60, 0
2, 185157, Note_on_c, 0, 77, 0
2, 185194, Note_on_c, 0, 68, 0
2, 185200, Note_on_c, 0, 56, 63
2, 185233, Note_on_c, 0, 53, 0
2, 185307, Note_on_c, 0, 74, 88
2, 185311, Note_on_c, 0, 56, 0
2, 185314, Note_on_c, 0, 58, 75
2, 185316, Note_on_c, 0, 65, 78
2, 185425, Note_on_c, 0, 53, 72
2, 185546, Note_on_c, 0, 53, 0
2, 185548, Note_on_c, 0, 55, 72
2, 185580, Note_on_c, 0, 58, 0
2, 185668, Note_on_c, 0, 56, 73
2, 185672, Note_on_c, 0, 55, 0
2, 185722, Note_on_c, 0, 74, 0
2, 185727, Note_on_c, 0, 65, 0
2, 185771, Note_on_c, 0, 56, 0
2, 185772, Note_on_c, 0, 58, 75
2, 185874, Note_on_c, 0, 58, 0
2, 185887, Note_on_c, 0, 56, 69
2, 185980, Note_on_c, 0, 56, 0
2, 185989, Note_on_c, 0, 70, 89
2, 185992, Note_on_c, 0, 62, 78
2, 185993, Note_on_c, 0, 58, 75
2, 186019, Note_on_c, 0, 62, 0
2, 186040, Note_on_c, 0, 70, 0
2, 186070, Note_on_c, 0, 58, 0
2, 186087, Note_on_c, 0, 55, 66
2, 186210, Note_on_c, 0, 75, 94
2, 186213, Note_on_c, 0, 58, 79
2, 186233, Note_on_c, 0, 67, 74
2, 186334, Note_on_c, 0, 48, 64
2, 186374, Note_on_c, 0, 55, 0
2, 186437, Note_on_c, 0, 51, 75
2, 186457, Note_on_c, 0, 58, 0
2, 186463, Note_on_c, 0, 48, 0
2, 186499, Note_on_c, 0, 75, 0
2, 186508, Note_on_c, 0, 67, 0
2, 186558, Note_on_c, 0, 55, 72
2, 186581, Note_on_c, 0, 51, 0
2, 186676, Note_on_c, 0, 72, 85
2, 186678, Note_on_c, 0, 55, 0
2, 186682, Note_on_c, 0, 56, 75
2, 186684, Note_on_c, 0, 63, 75
2, 186790, Note_on_c, 0, 51, 69
2, 186897, Note_on_c, 0, 51, 0
2, 186901, Note_on_c, 0, 53, 66
2, 186928, Note_on_c, 0, 56, 0
2, 187028, Note_on_c, 0, 55, 69
2, 187037, Note_on_c, 0, 53, 0
2, 187040, Note_on_c, 0, 72, 0
2, 187064, Note_on_c, 0, 63, 0
2, 187137, Note_on_c, 0, 55, 0
2, 187139, Note_on_c, 0, 56, 75
2, 187248, Note_on_c, 0, 55, 74
2, 187248, Note_on_c, 0, 56, 0
2, 187337, Note_on_c, 0, 55, 0
2, 187354, Note_on_c, 0, 68, 92
2, 187358, Note_on_c, 0, 56, 76
2, 187359, Note_on_c, 0, 60, 80
2, 187386, Note_on_c, 0, 60, 0
2, 187404, Note_on_c, 0, 68, 0
2, 187461, Note_on_c, 0, 53, 69
2, 187572, Note_on_c, 0, 53, 0
2, 187577, Note_on_c, 0, 74, 88
2, 187580, Note_on_c, 0, 47, 65
2, 187580, Note_on_c, 0, 56, 0
2, 187586, Note_on_c, 0, 65, 79
2, 187609, Note_on_c, 0, 65, 0
2, 187633, Note_on_c, 0, 74, 0
2, 187710, Note_on_c, 0, 55, 58
2, 187810, Note_on_c, 0, 55, 0
2, 187823, Note_on_c, 0, 56, 62
2, 187824, Note_on_c, 0, 74, 71
2, 187833, Note_on_c, 0, 65, 61
2, 187864, Note_on_c, 0, 65, 0
2, 187880, Note_on_c, 0, 74, 0
2, 187941, Note_on_c, 0, 56, 0
2, 187951, Note_on_c, 0, 55, 57
2, 187978, Note_on_c, 0, 47, 0
2, 188031, Note_on_c, 0, 55, 0
2, 188052, Note_on_c, 0, 74, 80
2, 188057, Note_on_c, 0, 65, 77
2, 188065, Note_on_c, 0, 53, 65
2, 188087, Note_on_c, 0, 65, 0
2, 188112, Note_on_c, 0, 74, 0
2, 188168, Note_on_c, 0, 51, 71
2, 188170, Note_on_c, 0, 53, 0
2, 188272, Note_on_c, 0, 51, 0
2, 188284, Note_on_c, 0, 50, 69
2, 188290, Note_on_c, 0, 74, 88
2, 188293, Note_on_c, 0, 53, 71
2, 188297, Note_on_c, 0, 65, 75
2, 188321, Note_on_c, 0, 65, 0
2, 188344, Note_on_c, 0, 74, 0
2, 188364, Note_on_c, 0, 50, 0
2, 188394, Note_on_c, 0, 51, 75
2, 188401, Note_on_c, 0, 53, 0
2, 188505, Note_on_c, 0, 51, 0
2, 188514, Note_on_c, 0, 74, 91
2, 188531, Note_on_c, 0, 65, 80
2, 188532, Note_on_c, 0, 50, 79
2, 188533, Note_on_c, 0, 41, 65
2, 188554, Note_on_c, 0, 65, 0
2, 188573, Note_on_c, 0, 74, 0
2, 188635, Note_on_c, 0, 48, 75
2, 188636, Note_on_c, 0, 50, 0
2, 188662, Note_on_c, 0, 41, 0
2, 188741, Note_on_c, 0, 74, 94
2, 188744, Note_on_c, 0, 48, 0
2, 188746, Note_on_c, 0, 50, 84
2, 188748, Note_on_c, 0, 65, 81
2, 188752, Note_on_c, 0, 44, 72
2, 188777, Note_on_c, 0, 65, 0
2, 188797, Note_on_c, 0, 74, 0
2, 188847, Note_on_c, 0, 48, 78
2, 188884, Note_on_c, 0, 50, 0
2, 188890, Note_on_c, 0, 44, 0
2, 188977, Note_on_c, 0, 47, 75
2, 188981, Note_on_c, 0, 74, 87
2, 188983, Note_on_c, 0, 43, 66
2, 188985, Note_on_c, 0, 65, 81
2, 188989, Note_on_c, 0, 48, 0
2, 189012, Note_on_c, 0, 47, 0
2, 189016, Note_on_c, 0, 43, 0
2, 189100, Note_on_c, 0, 72, 75
2, 189105, Note_on_c, 0, 74, 0
2, 189109, Note_on_c, 0, 65, 0
2, 189208, Note_on_c, 0, 55, 70
2, 189209, Note_on_c, 0, 59, 71
2, 189210, Note_on_c, 0, 74, 77
2, 189216, Note_on_c, 0, 72, 0
2, 189225, Note_on_c, 0, 65, 67
2, 189239, Note_on_c, 0, 55, 0
2, 189245, Note_on_c, 0, 59, 0
2, 189269, Note_on_c, 0, 65, 0
2, 189322, Note_on_c, 0, 74, 0
2, 189327, Note_on_c, 0, 72, 77
2, 189439, Note_on_c, 0, 59, 81
2, 189441, Note_on_c, 0, 71, 80
2, 189443, Note_on_c, 0, 55, 76
2, 189453, Note_on_c, 0, 65, 63
2, 189468, Note_on_c, 0, 72, 0
2, 189470, Note_on_c, 0, 59, 0
2, 189472, Note_on_c, 0, 55, 0
2, 189557, Note_on_c, 0, 69, 77
2, 189568, Note_on_c, 0, 65, 0
2, 189568, Note_on_c, 0, 71, 0
2, 189666, Note_on_c, 0, 55, 82
2, 189672, Note_on_c, 0, 59, 75
2, 189679, Note_on_c, 0, 71, 83
2, 189680, Note_on_c, 0, 69, 0
2, 189686, Note_on_c, 0, 65, 72
2, 189705, Note_on_c, 0, 59, 0
2, 189713, Note_on_c, 0, 55, 0
2, 189796, Note_on_c, 0, 69, 82
2, 189829, Note_on_c, 0, 65, 0
2, 189830, Note_on_c, 0, 71, 0
2, 189898, Note_on_c, 0, 57, 88
2, 189898, Note_on_c, 0, 60, 88
2, 189903, Note_on_c, 0, 67, 82
2, 189923, Note_on_c, 0, 69, 0
2, 189934, Note_on_c, 0, 60, 0
2, 189937, Note_on_c, 0, 57, 0
2, 190023, Note_on_c, 0, 65, 80
2, 190023, Note_on_c, 0, 67, 0
2, 190151, Note_on_c, 0, 62, 79
2, 190152, Note_on_c, 0, 59, 80
2, 190159, Note_on_c, 0, 67, 81
2, 190185, Note_on_c, 0, 65, 0
2, 190273, Note_on_c, 0, 65, 77
2, 190376, Note_on_c, 0, 51, 75
2, 190380, Note_on_c, 0, 59, 0
2, 190410, Note_on_c, 0, 53, 29
2, 190410, Note_on_c, 0, 67, 0
2, 190410, Note_on_c, 0, 67, 6
2, 190457, Note_on_c, 0, 53, 0
2, 190487, Note_on_c, 0, 65, 0
2, 190492, Note_on_c, 0, 63, 71
2, 190593, Note_on_c, 0, 63, 0
2, 190604, Note_on_c, 0, 55, 64
2, 190611, Note_on_c, 0, 65, 75
2, 190627, Note_on_c, 0, 62, 0
2, 190655, Note_on_c, 0, 67, 0
2, 190663, Note_on_c, 0, 51, 0
2, 190737, Note_on_c, 0, 62, 73
2, 190751, Note_on_c, 0, 65, 0
2, 190845, Note_on_c, 0, 62, 0
2, 190851, Note_on_c, 0, 63, 82
2, 190872, Note_on_c, 0, 60, 63
2, 190884, Note_on_c, 0, 55, 0
2, 190959, Note_on_c, 0, 68, 74
2, 190972, Note_on_c, 0, 51, 62
2, 190981, Note_on_c, 0, 67, 80
2, 190993, Note_on_c, 0, 68, 0
2, 191065, Note_on_c, 0, 53, 65
2, 191071, Note_on_c, 0, 51, 0
2, 191074, Note_on_c, 0, 69, 81
2, 191088, Note_on_c, 0, 63, 0
2, 191114, Note_on_c, 0, 67, 0
2, 191164, Note_on_c, 0, 53, 0
2, 191168, Note_on_c, 0, 55, 74
2, 191177, Note_on_c, 0, 71, 86
2, 191180, Note_on_c, 0, 69, 0
2, 191204, Note_on_c, 0, 60, 0
2, 191279, Note_on_c, 0, 55, 0
2, 191285, Note_on_c, 0, 56, 84
2, 191288, Note_on_c, 0, 72, 88
2, 191322, Note_on_c, 0, 71, 0
2, 191400, Note_on_c, 0, 55, 76
2, 191400, Note_on_c, 0, 56, 0
2, 191514, Note_on_c, 0, 56, 83
2, 191515, Note_on_c, 0, 65, 71
2, 191515, Note_on_c, 0, 68, 85
2, 191521, Note_on_c, 0, 55, 0
2, 191553, Note_on_c, 0, 64, 37
2, 191554, Note_on_c, 0, 64, 0
2, 191561, Note_on_c, 0, 65, 0
2, 191576, Note_on_c, 0, 56, 0
2, 191743, Note_on_c, 0, 68, 0
2, 191750, Note_on_c, 0, 62, 73
2, 191753, Note_on_c, 0, 56, 72
2, 191756, Note_on_c, 0, 65, 68
2, 191984, Note_on_c, 0, 71, 65
2, 191984, Note_on_c, 0, 72, 0
2, 191985, Note_on_c, 0, 50, 70
2, 192042, Note_on_c, 0, 56, 0
2, 192057, Note_on_c, 0, 50, 0
2, 192080, Note_on_c, 0, 71, 0
2, 192089, Note_on_c, 0, 69, 73
2, 192185, Note_on_c, 0, 69, 0
2, 192208, Note_on_c, 0, 71, 64
2, 192245, Note_on_c, 0, 65, 0
2, 192316, Note_on_c, 0, 68, 69
2, 192319, Note_on_c, 0, 50, 67
2, 192373, Note_on_c, 0, 62, 0
2, 192432, Note_on_c, 0, 68, 0
2, 192438, Note_on_c, 0, 67, 64
2, 192443, Note_on_c, 0, 51, 72
2, 192448, Note_on_c, 0, 50, 0
2, 192552, Note_on_c, 0, 67, 0
2, 192561, Note_on_c, 0, 51, 0
2, 192566, Note_on_c, 0, 53, 66
2, 192577, Note_on_c, 0, 65, 60
2, 192651, Note_on_c, 0, 65, 0
2, 192664, Note_on_c, 0, 61, 63
2, 192665, Note_on_c, 0, 53, 0
2, 192668, Note_on_c, 0, 70, 71
2, 192673, Note_on_c, 0, 71, 0
2, 192678, Note_on_c, 0, 55, 71
2, 192697, Note_on_c, 0, 64, 53
2, 192747, Note_on_c, 0, 64, 0
2, 192785, Note_on_c, 0, 65, 60
2, 192805, Note_on_c, 0, 53, 64
2, 192813, Note_on_c, 0, 55, 0
2, 192874, Note_on_c, 0, 65, 0
2, 192895, Note_on_c, 0, 53, 0
2, 192899, Note_on_c, 0, 55, 66
2, 192908, Note_on_c, 0, 64, 54
2, 192922, Note_on_c, 0, 61, 0
2, 192933, Note_on_c, 0, 55, 0
2, 193021, Note_on_c, 0, 64, 0
2, 193035, Note_on_c, 0, 65, 48
2, 193147, Note_on_c, 0, 55, 61
2, 193149, Note_on_c, 0, 60, 67
2, 193162, Note_on_c, 0, 64, 53
2, 193169, Note_on_c, 0, 65, 0
2, 193378, Note_on_c, 0, 69, 67
2, 193381, Note_on_c, 0, 70, 0
2, 193384, Note_on_c, 0, 48, 57
2, 193435, Note_on_c, 0, 55, 0
2, 193468, Note_on_c, 0, 48, 0
2, 193487, Note_on_c, 0, 69, 0
2, 193494, Note_on_c, 0, 67, 61
2, 193600, Note_on_c, 0, 67, 0
2, 193609, Note_on_c, 0, 69, 65
2, 193715, Note_on_c, 0, 48, 66
2, 193718, Note_on_c, 0, 67, 66
2, 193795, Note_on_c, 0, 60, 0
2, 193802, Note_on_c, 0, 69, 0
2, 193808, Note_on_c, 0, 64, 0
2, 193820, Note_on_c, 0, 48, 0
2, 193833, Note_on_c, 0, 67, 0
2, 193835, Note_on_c, 0, 50, 64
2, 193835, Note_on_c, 0, 65, 63
2, 193932, Note_on_c, 0, 50, 0
2, 193951, Note_on_c, 0, 51, 74
2, 193969, Note_on_c, 0, 63, 57
2, 193970, Note_on_c, 0, 65, 0
2, 194043, Note_on_c, 0, 51, 0
2, 194060, Note_on_c, 0, 63, 0
2, 194061, Note_on_c, 0, 68, 70
2, 194065, Note_on_c, 0, 53, 67
2, 194069, Note_on_c, 0, 59, 62
2, 194077, Note_on_c, 0, 62, 62
2, 194161, Note_on_c, 0, 62, 0
2, 194180, Note_on_c, 0, 63, 65
2, 194181, Note_on_c, 0, 51, 62
2, 194196, Note_on_c, 0, 53, 0
2, 194255, Note_on_c, 0, 59, 0
2, 194258, Note_on_c, 0, 63, 0
2, 194283, Note_on_c, 0, 62, 59
2, 194294, Note_on_c, 0, 51, 0
2, 194350, Note_on_c, 0, 53, 64
2, 194396, Note_on_c, 0, 62, 0
2, 194397, Note_on_c, 0, 63, 52
2, 194406, Note_on_c, 0, 53, 0
2, 194487, Note_on_c, 0, 63, 0
2, 194508, Note_on_c, 0, 62, 65
2, 194512, Note_on_c, 0, 58, 75
2, 194526, Note_on_c, 0, 53, 68
2, 194693, Note_on_c, 0, 68, 0
2, 194749, Note_on_c, 0, 67, 64
2, 194751, Note_on_c, 0, 46, 58
2, 194760, Note_on_c, 0, 62, 0
2, 194770, Note_on_c, 0, 53, 0
2, 194787, Note_on_c, 0, 46, 0
2, 194792, Note_on_c, 0, 58, 0
2, 194847, Note_on_c, 0, 65, 75
2, 194852, Note_on_c, 0, 67, 0
2, 194967, Note_on_c, 0, 65, 0
2, 194978, Note_on_c, 0, 58, 85
2, 194979, Note_on_c, 0, 62, 91
2, 194989, Note_on_c, 0, 67, 77
2, 195100, Note_on_c, 0, 67, 0
2, 195116, Note_on_c, 0, 77, 68
2, 195118, Note_on_c, 0, 76, 67
2, 195187, Note_on_c, 0, 77, 0
2, 195189, Note_on_c, 0, 76, 0
2, 195213, Note_on_c, 0, 79, 76
2, 195227, Note_on_c, 0, 75, 53
2, 195249, Note_on_c, 0, 75, 0
2, 195321, Note_on_c, 0, 79, 0
2, 195322, Note_on_c, 0, 80, 80
2, 195358, Note_on_c, 0, 77, 51
2, 195363, Note_on_c, 0, 79, 39
2, 195366, Note_on_c, 0, 58, 0
2, 195373, Note_on_c, 0, 62, 0
2, 195424, Note_on_c, 0, 82, 86
2, 195442, Note_on_c, 0, 79, 0
2, 195458, Note_on_c, 0, 80, 0
2, 195459, Note_on_c, 0, 78, 44
2, 195469, Note_on_c, 0, 77, 0
2, 195486, Note_on_c, 0, 78, 0
2, 195544, Note_on_c, 0, 80, 83
2, 195549, Note_on_c, 0, 77, 69
2, 195570, Note_on_c, 0, 82, 0
2, 195653, Note_on_c, 0, 79, 79
2, 195656, Note_on_c, 0, 55, 75
2, 195658, Note_on_c, 0, 58, 94
2, 195663, Note_on_c, 0, 80, 0
2, 195663, Note_on_c, 0, 82, 90
2, 195665, Note_on_c, 0, 77, 0
2, 195685, Note_on_c, 0, 55, 0
2, 195701, Note_on_c, 0, 79, 0
2, 195703, Note_on_c, 0, 58, 0
2, 195721, Note_on_c, 0, 82, 0
2, 195908, Note_on_c, 0, 63, 84
2, 195911, Note_on_c, 0, 60, 81
2, 195918, Note_on_c, 0, 82, 87
2, 195925, Note_on_c, 0, 79, 73
2, 196003, Note_on_c, 0, 79, 0
2, 196155, Note_on_c, 0, 75, 78
2, 196156, Note_on_c, 0, 72, 73
2, 196211, Note_on_c, 0, 82, 0
2, 196219, Note_on_c, 0, 60, 0
2, 196232, Note_on_c, 0, 63, 0
2, 196283, Note_on_c, 0, 72, 0
2, 196320, Note_on_c, 0, 75, 0
2, 196403, Note_on_c, 0, 56, 86
2, 196403, Note_on_c, 0, 60, 93
2, 196514, Note_on_c, 0, 72, 66
2, 196514, Note_on_c, 0, 75, 76
2, 196547, Note_on_c, 0, 72, 0
2, 196625, Note_on_c, 0, 74, 73
2, 196632, Note_on_c, 0, 75, 0
2, 196634, Note_on_c, 0, 77, 74
2, 196736, Note_on_c, 0, 77, 0
2, 196745, Note_on_c, 0, 75, 74
2, 196747, Note_on_c, 0, 79, 78
2, 196748, Note_on_c, 0, 60, 0
2, 196772, Note_on_c, 0, 56, 0
2, 196781, Note_on_c, 0, 74, 0
2, 196817, Note_on_c, 0, 75, 0
2, 196855, Note_on_c, 0, 77, 81
2, 196855, Note_on_c, 0, 79, 0
2, 196860, Note_on_c, 0, 80, 80
2, 196962, Note_on_c, 0, 75, 78
2, 196987, Note_on_c, 0, 80, 0
2, 196990, Note_on_c, 0, 79, 56
2, 196994, Note_on_c, 0, 77, 0
2, 197037, Note_on_c, 0, 79, 0
2, 197078, Note_on_c, 0, 56, 93
2, 197081, Note_on_c, 0, 53, 85
2, 197086, Note_on_c, 0, 80, 87
2, 197093, Note_on_c, 0, 77, 84
2, 197115, Note_on_c, 0, 75, 0
2, 197121, Note_on_c, 0, 53, 0
2, 197134, Note_on_c, 0, 56, 0
2, 197155, Note_on_c, 0, 77, 0
2, 197161, Note_on_c, 0, 80, 0
2, 197320, Note_on_c, 0, 62, 94
2, 197322, Note_on_c, 0, 58, 88
2, 197328, Note_on_c, 0, 80, 79
2, 197334, Note_on_c, 0, 77, 75
2, 197580, Note_on_c, 0, 74, 78
2, 197586, Note_on_c, 0, 77, 0
2, 197588, Note_on_c, 0, 70, 74
2, 197625, Note_on_c, 0, 80, 0
2, 197663, Note_on_c, 0, 62, 0
2, 197669, Note_on_c, 0, 58, 0
2, 197701, Note_on_c, 0, 70, 0
2, 197723, Note_on_c, 0, 74, 0
2, 197815, Note_on_c, 0, 55, 87
2, 197815, Note_on_c, 0, 58, 89
2, 197912, Note_on_c, 0, 70, 76
2, 197925, Note_on_c, 0, 74, 72
2, 197962, Note_on_c, 0, 70, 0
2, 198032, Note_on_c, 0, 74, 0
2, 198036, Note_on_c, 0, 72, 77
2, 198039, Note_on_c, 0, 75, 78
2, 198105, Note_on_c, 0, 72, 0
2, 198130, Note_on_c, 0, 75, 0
2, 198137, Note_on_c, 0, 55, 0
2, 198150, Note_on_c, 0, 74, 78
2, 198154, Note_on_c, 0, 77, 81
2, 198179, Note_on_c, 0, 58, 0
2, 198246, Note_on_c, 0, 74, 0
2, 198259, Note_on_c, 0, 77, 0
2, 198259, Note_on_c, 0, 79, 79
2, 198260, Note_on_c, 0, 75, 83
2, 198359, Note_on_c, 0, 75, 0
2, 198365, Note_on_c, 0, 74, 82
2, 198369, Note_on_c, 0, 77, 76
2, 198393, Note_on_c, 0, 79, 0
2, 198460, Note_on_c, 0, 77, 0
2, 198476, Note_on_c, 0, 75, 72
2, 198484, Note_on_c, 0, 55, 84
2, 198485, Note_on_c, 0, 51, 80
2, 198485, Note_on_c, 0, 79, 81
2, 198557, Note_on_c, 0, 51, 0
2, 198559, Note_on_c, 0, 55, 0
2, 198574, Note_on_c, 0, 74, 0
2, 198711, Note_on_c, 0, 60, 77
2, 198715, Note_on_c, 0, 56, 70
2, 198774, Note_on_c, 0, 79, 0
2, 198816, Note_on_c, 0, 60, 0
2, 198820, Note_on_c, 0, 73, 69
2, 198837, Note_on_c, 0, 56, 0
2, 198839, Note_on_c, 0, 75, 0
2, 198935, Note_on_c, 0, 73, 0
2, 198938, Note_on_c, 0, 60, 59
2, 198945, Note_on_c, 0, 82, 69
2, 198957, Note_on_c, 0, 56, 54
2, 198962, Note_on_c, 0, 75, 51
2, 199057, Note_on_c, 0, 60, 0
2, 199060, Note_on_c, 0, 73, 64
2, 199066, Note_on_c, 0, 75, 0
2, 199083, Note_on_c, 0, 82, 0
2, 199088, Note_on_c, 0, 56, 0
2, 199160, Note_on_c, 0, 73, 0
2, 199172, Note_on_c, 0, 80, 78
2, 199175, Note_on_c, 0, 60, 67
2, 199177, Note_on_c, 0, 56, 57
2, 199184, Note_on_c, 0, 72, 68
2, 199284, Note_on_c, 0, 70, 64
2, 199307, Note_on_c, 0, 60, 0
2, 199322, Note_on_c, 0, 72, 0
2, 199325, Note_on_c, 0, 56, 0
2, 199356, Note_on_c, 0, 80, 0
2, 199410, Note_on_c, 0, 79, 84
2, 199417, Note_on_c, 0, 60, 76
2, 199417, Note_on_c, 0, 70, 0
2, 199421, Note_on_c, 0, 56, 72
2, 199424, Note_on_c, 0, 72, 75
2, 199536, Note_on_c, 0, 60, 0
2, 199536, Note_on_c, 0, 70, 69
2, 199552, Note_on_c, 0, 72, 0
2, 199555, Note_on_c, 0, 56, 0
2, 199557, Note_on_c, 0, 79, 0
2, 199596, Note_on_c, 0, 70, 0
2, 199642, Note_on_c, 0, 60, 78
2, 199643, Note_on_c, 0, 77, 90
2, 199644, Note_on_c, 0, 56, 77
2, 199658, Note_on_c, 0, 68, 81
2, 199748, Note_on_c, 0, 56, 0
2, 199749, Note_on_c, 0, 60, 0
2, 199765, Note_on_c, 0, 67, 64
2, 199774, Note_on_c, 0, 68, 0
2, 199853, Note_on_c, 0, 75, 82
2, 199860, Note_on_c, 0, 56, 76
2, 199861, Note_on_c, 0, 68, 63
2, 199864, Note_on_c, 0, 60, 69
2, 199864, Note_on_c, 0, 67, 0
2, 199931, Note_on_c, 0, 56, 0
2, 199973, Note_on_c, 0, 67, 73
2, 199973, Note_on_c, 0, 68, 0
2, 200013, Note_on_c, 0, 67, 0
2, 200075, Note_on_c, 0, 75, 0
2, 200092, Note_on_c, 0, 77, 0
2, 200093, Note_on_c, 0, 60, 0
2, 200093, Note_on_c, 0, 74, 75
2, 200101, Note_on_c, 0, 62, 61
2, 200103, Note_on_c, 0, 58, 55
2, 200119, Note_on_c, 0, 65, 59
2, 200207, Note_on_c, 0, 62, 0
2, 200212, Note_on_c, 0, 60, 72
2, 200213, Note_on_c, 0, 58, 0
2, 200229, Note_on_c, 0, 65, 0
2, 200244, Note_on_c, 0, 74, 0
2, 200325, Note_on_c, 0, 74, 83
2, 200332, Note_on_c, 0, 60, 0
2, 200333, Note_on_c, 0, 56, 68
2, 200335, Note_on_c, 0, 62, 64
2, 200338, Note_on_c, 0, 65, 66
2, 200416, Note_on_c, 0, 65, 0
2, 200428, Note_on_c, 0, 56, 0
2, 200429, Note_on_c, 0, 62, 0
2, 200438, Note_on_c, 0, 60, 78
2, 200546, Note_on_c, 0, 75, 84
2, 200549, Note_on_c, 0, 55, 68
2, 200552, Note_on_c, 0, 60, 0
2, 200552, Note_on_c, 0, 67, 73
2, 200554, Note_on_c, 0, 58, 77
2, 200586, Note_on_c, 0, 74, 0
2, 200636, Note_on_c, 0, 55, 0
2, 200637, Note_on_c, 0, 67, 0
2, 200661, Note_on_c, 0, 56, 75
2, 200688, Note_on_c, 0, 58, 0
2, 200759, Note_on_c, 0, 53, 63
2, 200771, Note_on_c, 0, 56, 0
2, 200774, Note_on_c, 0, 77, 93
2, 200780, Note_on_c, 0, 68, 87
2, 200786, Note_on_c, 0, 58, 77
2, 200813, Note_on_c, 0, 75, 0
2, 200833, Note_on_c, 0, 53, 0
2, 200891, Note_on_c, 0, 56, 81
2, 200902, Note_on_c, 0, 58, 0
2, 200937, Note_on_c, 0, 68, 0
2, 201001, Note_on_c, 0, 79, 88
2, 201015, Note_on_c, 0, 70, 78
2, 201016, Note_on_c, 0, 51, 74
2, 201029, Note_on_c, 0, 55, 78
2, 201029, Note_on_c, 0, 69, 52
2, 201032, Note_on_c, 0, 56, 0
2, 201052, Note_on_c, 0, 69, 0
2, 201058, Note_on_c, 0, 77, 0
2, 201141, Note_on_c, 0, 53, 86
2, 201151, Note_on_c, 0, 51, 0
2, 201153, Note_on_c, 0, 55, 0
2, 201241, Note_on_c, 0, 71, 80
2, 201251, Note_on_c, 0, 50, 78
2, 201251, Note_on_c, 0, 55, 90
2, 201253, Note_on_c, 0, 53, 0
2, 201270, Note_on_c, 0, 70, 0
2, 201349, Note_on_c, 0, 53, 86
2, 201367, Note_on_c, 0, 55, 0
2, 201389, Note_on_c, 0, 50, 0
2, 201461, Note_on_c, 0, 71, 0
2, 201462, Note_on_c, 0, 48, 64
2, 201469, Note_on_c, 0, 51, 82
2, 201484, Note_on_c, 0, 72, 78
2, 201495, Note_on_c, 0, 53, 0
2, 201550, Note_on_c, 0, 48, 0
2, 201562, Note_on_c, 0, 72, 0
2, 201591, Note_on_c, 0, 51, 0
2, 201604, Note_on_c, 0, 74, 80
2, 201607, Note_on_c, 0, 77, 88
2, 201631, Note_on_c, 0, 79, 0
2, 201690, Note_on_c, 0, 74, 0
2, 201716, Note_on_c, 0, 79, 85
2, 201725, Note_on_c, 0, 60, 73
2, 201728, Note_on_c, 0, 75, 73
2, 201730, Note_on_c, 0, 63, 76
2, 201746, Note_on_c, 0, 77, 0
2, 201784, Note_on_c, 0, 75, 0
2, 201819, Note_on_c, 0, 63, 0
2, 201829, Note_on_c, 0, 74, 73
2, 201831, Note_on_c, 0, 77, 91
2, 201837, Note_on_c, 0, 60, 0
2, 201866, Note_on_c, 0, 74, 0
2, 201897, Note_on_c, 0, 79, 0
2, 201936, Note_on_c, 0, 63, 81
2, 201944, Note_on_c, 0, 60, 82
2, 201945, Note_on_c, 0, 75, 85
2, 201955, Note_on_c, 0, 72, 83
2, 201955, Note_on_c, 0, 77, 0
2, 202043, Note_on_c, 0, 63, 0
2, 202056, Note_on_c, 0, 60, 0
2, 202064, Note_on_c, 0, 74, 83
2, 202065, Note_on_c, 0, 70, 78
2, 202071, Note_on_c, 0, 72, 0
2, 202072, Note_on_c, 0, 75, 0
2, 202162, Note_on_c, 0, 63, 82
2, 202163, Note_on_c, 0, 70, 0
2, 202165, Note_on_c, 0, 60, 80
2, 202172, Note_on_c, 0, 75, 88
2, 202173, Note_on_c, 0, 72, 78
2, 202186, Note_on_c, 0, 74, 0
2, 202278, Note_on_c, 0, 72, 0
2, 202279, Note_on_c, 0, 70, 77
2, 202284, Note_on_c, 0, 74, 84
2, 202291, Note_on_c, 0, 63, 0
2, 202297, Note_on_c, 0, 60, 0
2, 202305, Note_on_c, 0, 75, 0
2, 202314, Note_on_c, 0, 70, 0
2, 202401, Note_on_c, 0, 63, 84
2, 202401, Note_on_c, 0, 72, 80
2, 202409, Note_on_c, 0, 60, 84
2, 202416, Note_on_c, 0, 68, 71
2, 202436, Note_on_c, 0, 74, 0
2, 202510, Note_on_c, 0, 60, 0
2, 202513, Note_on_c, 0, 63, 0
2, 202518, Note_on_c, 0, 67, 74
2, 202518, Note_on_c, 0, 70, 80
2, 202530, Note_on_c, 0, 68, 0
2, 202541, Note_on_c, 0, 72, 0
2, 202596, Note_on_c, 0, 67, 0
2, 202618, Note_on_c, 0, 63, 91
2, 202621, Note_on_c, 0, 72, 86
2, 202626, Note_on_c, 0, 60, 81
2, 202631, Note_on_c, 0, 70, 0
2, 202647, Note_on_c, 0, 68, 75
2, 202680, Note_on_c, 0, 60, 0
2, 202690, Note_on_c, 0, 63, 0
2, 202734, Note_on_c, 0, 67, 78
2, 202734, Note_on_c, 0, 70, 85
2, 202760, Note_on_c, 0, 68, 0
2, 202821, Note_on_c, 0, 72, 0
2, 202829, Note_on_c, 0, 60, 78
2, 202830, Note_on_c, 0, 63, 78
2, 202838, Note_on_c, 0, 69, 84
2, 202840, Note_on_c, 0, 66, 82
2, 202856, Note_on_c, 0, 67, 0
2, 202878, Note_on_c, 0, 70, 0
2, 202935, Note_on_c, 0, 63, 0
2, 202966, Note_on_c, 0, 62, 62
2, 203005, Note_on_c, 0, 60, 0
2, 203076, Note_on_c, 0, 58, 57
2, 203091, Note_on_c, 0, 63, 81
2, 203105, Note_on_c, 0, 62, 0
2, 203203, Note_on_c, 0, 62, 77
2, 203209, Note_on_c, 0, 58, 0
2, 203249, Note_on_c, 0, 63, 0
2, 203309, Note_on_c, 0, 62, 0
2, 203317, Note_on_c, 0, 60, 83
2, 203319, Note_on_c, 0, 57, 73
2, 203416, Note_on_c, 0, 58, 81
2, 203419, Note_on_c, 0, 60, 0
2, 203443, Note_on_c, 0, 57, 0
2, 203521, Note_on_c, 0, 70, 85
2, 203528, Note_on_c, 0, 60, 84
2, 203528, Note_on_c, 0, 66, 0
2, 203529, Note_on_c, 0, 67, 81
2, 203531, Note_on_c, 0, 58, 0
2, 203547, Note_on_c, 0, 55, 60
2, 203570, Note_on_c, 0, 69, 0
2, 203614, Note_on_c, 0, 55, 0
2, 203640, Note_on_c, 0, 58, 85
2, 203657, Note_on_c, 0, 60, 0
2, 203736, Note_on_c, 0, 70, 0
2, 203756, Note_on_c, 0, 54, 80
2, 203762, Note_on_c, 0, 72, 94
2, 203765, Note_on_c, 0, 58, 0
2, 203766, Note_on_c, 0, 57, 82
2, 203766, Note_on_c, 0, 69, 86
2, 203788, Note_on_c, 0, 67, 0
2, 203865, Note_on_c, 0, 55, 80
2, 203873, Note_on_c, 0, 57, 0
2, 203924, Note_on_c, 0, 54, 0
2, 203996, Note_on_c, 0, 55, 0
2, 203996, Note_on_c, 0, 57, 82
2, 203998, Note_on_c, 0, 69, 0
2, 203999, Note_on_c, 0, 52, 72
2, 204094, Note_on_c, 0, 55, 85
2, 204111, Note_on_c, 0, 57, 0
2, 204116, Note_on_c, 0, 52, 0
2, 204206, Note_on_c, 0, 50, 80
2, 204209, Note_on_c, 0, 54, 87
2, 204221, Note_on_c, 0, 55, 0
2, 204316, Note_on_c, 0, 62, 89
2, 204372, Note_on_c, 0, 54, 0
2, 204419, Note_on_c, 0, 63, 84
2, 204424, Note_on_c, 0, 57, 76
2, 204426, Note_on_c, 0, 54, 63
2, 204450, Note_on_c, 0, 62, 0
2, 204483, Note_on_c, 0, 50, 0
2, 204526, Note_on_c, 0, 62, 87
2, 204527, Note_on_c, 0, 57, 0
2, 204543, Note_on_c, 0, 63, 0
2, 204628, Note_on_c, 0, 54, 0
2, 204649, Note_on_c, 0, 58, 85
2, 204651, Note_on_c, 0, 70, 89
2, 204657, Note_on_c, 0, 55, 74
2, 204673, Note_on_c, 0, 62, 0
2, 204684, Note_on_c, 0, 72, 0
2, 204769, Note_on_c, 0, 62, 90
2, 204848, Note_on_c, 0, 58, 0
2, 204881, Note_on_c, 0, 54, 80
2, 204888, Note_on_c, 0, 63, 92
2, 204890, Note_on_c, 0, 50, 69
2, 204894, Note_on_c, 0, 62, 0
2, 204907, Note_on_c, 0, 55, 0
2, 204988, Note_on_c, 0, 62, 89
2, 205025, Note_on_c, 0, 70, 0
2, 205077, Note_on_c, 0, 54, 0
2, 205091, Note_on_c, 0, 63, 0
2, 205098, Note_on_c, 0, 60, 91
2, 205104, Note_on_c, 0, 55, 88
2, 205107, Note_on_c, 0, 51, 78
2, 205136, Note_on_c, 0, 50, 0
2, 205139, Note_on_c, 0, 62, 0
2, 205220, Note_on_c, 0, 70, 91
2, 205362, Note_on_c, 0, 61, 78
2, 205362, Note_on_c, 0, 69, 78
2, 205368, Note_on_c, 0, 70, 0
2, 205372, Note_on_c, 0, 71, 68
2, 205380, Note_on_c, 0, 60, 0
2, 205389, Note_on_c, 0, 71, 0
2, 205447, Note_on_c, 0, 61, 0
2, 205489, Note_on_c, 0, 67, 87
2, 205611, Note_on_c, 0, 69, 0
2, 205613, Note_on_c, 0, 62, 91
2, 205614, Note_on_c, 0, 66, 89
2, 205621, Note_on_c, 0, 50, 79
2, 205621, Note_on_c, 0, 57, 92
2, 205633, Note_on_c, 0, 51, 0
2, 205649, Note_on_c, 0, 67, 0
2, 205671, Note_on_c, 0, 55, 0
2, 205720, Note_on_c, 0, 57, 0
2, 205737, Note_on_c, 0, 50, 0
2, 205754, Note_on_c, 0, 62, 0
2, 205766, Note_on_c, 0, 66, 0
2, 205942, Note_on_c, 0, 38, 87
2, 206015, Note_on_c, 0, 38, 0
2, 206377, Note_on_c, 0, 62, 96
2, 206512, Note_on_c, 0, 69, 71
2, 206633, Note_on_c, 0, 70, 72
2, 206634, Note_on_c, 0, 69, 0
2, 206740, Note_on_c, 0, 72, 78
2, 206764, Note_on_c, 0, 70, 0
2, 206852, Note_on_c, 0, 62, 0
2, 206859, Note_on_c, 0, 74, 83
2, 206872, Note_on_c, 0, 72, 0
2, 206981, Note_on_c, 0, 72, 79
2, 206997, Note_on_c, 0, 74, 0
2, 207095, Note_on_c, 0, 74, 87
2, 207098, Note_on_c, 0, 58, 96
2, 207124, Note_on_c, 0, 72, 0
2, 207147, Note_on_c, 0, 58, 0
2, 207149, Note_on_c, 0, 74, 0
2, 207358, Note_on_c, 0, 74, 92
2, 207362, Note_on_c, 0, 63, 95
2, 207598, Note_on_c, 0, 67, 76
2, 207629, Note_on_c, 0, 74, 0
2, 207685, Note_on_c, 0, 63, 0
2, 207773, Note_on_c, 0, 67, 0
2, 207865, Note_on_c, 0, 60, 90
2, 207981, Note_on_c, 0, 67, 63
2, 208094, Note_on_c, 0, 69, 71
2, 208122, Note_on_c, 0, 67, 0
2, 208201, Note_on_c, 0, 70, 71
2, 208256, Note_on_c, 0, 69, 0
2, 208317, Note_on_c, 0, 72, 80
2, 208326, Note_on_c, 0, 70, 0
2, 208338, Note_on_c, 0, 60, 0
2, 208432, Note_on_c, 0, 70, 70
2, 208437, Note_on_c, 0, 72, 0
2, 208547, Note_on_c, 0, 57, 89
2, 208547, Note_on_c, 0, 72, 87
2, 208576, Note_on_c, 0, 70, 0
2, 208594, Note_on_c, 0, 57, 0
2, 208603, Note_on_c, 0, 72, 0
2, 208796, Note_on_c, 0, 62, 89
2, 208800, Note_on_c, 0, 72, 89
2, 209036, Note_on_c, 0, 66, 74
2, 209087, Note_on_c, 0, 72, 0
2, 209091, Note_on_c, 0, 62, 0
2, 209097, Note_on_c, 0, 66, 0
2, 209271, Note_on_c, 0, 74, 95
2, 209280, Note_on_c, 0, 58, 83
2, 209398, Note_on_c, 0, 66, 67
2, 209404, Note_on_c, 0, 50, 54
2, 209491, Note_on_c, 0, 50, 0
2, 209510, Note_on_c, 0, 52, 57
2, 209516, Note_on_c, 0, 66, 0
2, 209517, Note_on_c, 0, 67, 74
2, 209604, Note_on_c, 0, 58, 0
2, 209611, Note_on_c, 0, 54, 66
2, 209619, Note_on_c, 0, 52, 0
2, 209631, Note_on_c, 0, 69, 74
2, 209653, Note_on_c, 0, 67, 0
2, 209665, Note_on_c, 0, 74, 0
2, 209724, Note_on_c, 0, 55, 69
2, 209725, Note_on_c, 0, 54, 0
2, 209747, Note_on_c, 0, 70, 79
2, 209763, Note_on_c, 0, 69, 0
2, 209831, Note_on_c, 0, 55, 0
2, 209831, Note_on_c, 0, 70, 0
2, 209838, Note_on_c, 0, 54, 67
2, 209857, Note_on_c, 0, 69, 76
2, 209938, Note_on_c, 0, 54, 0
2, 209950, Note_on_c, 0, 55, 85
2, 209955, Note_on_c, 0, 70, 96
2, 209980, Note_on_c, 0, 69, 0
2, 210005, Note_on_c, 0, 55, 0
2, 210008, Note_on_c, 0, 70, 0
2, 210206, Note_on_c, 0, 75, 98
2, 210212, Note_on_c, 0, 60, 84
2, 210213, Note_on_c, 0, 70, 83
2, 210214, Note_on_c, 0, 55, 74
2, 210441, Note_on_c, 0, 63, 76
2, 210446, Note_on_c, 0, 48, 64
2, 210500, Note_on_c, 0, 60, 0
2, 210500, Note_on_c, 0, 75, 0
2, 210523, Note_on_c, 0, 70, 0
2, 210537, Note_on_c, 0, 63, 0
2, 210547, Note_on_c, 0, 55, 0
2, 210586, Note_on_c, 0, 48, 0
2, 210680, Note_on_c, 0, 72, 91
2, 210683, Note_on_c, 0, 57, 79
2, 210809, Note_on_c, 0, 48, 68
2, 210819, Note_on_c, 0, 64, 67
2, 210908, Note_on_c, 0, 48, 0
2, 210919, Note_on_c, 0, 50, 62
2, 210925, Note_on_c, 0, 65, 68
2, 210928, Note_on_c, 0, 64, 0
2, 210936, Note_on_c, 0, 72, 0
2, 211012, Note_on_c, 0, 50, 0
2, 211031, Note_on_c, 0, 52, 65
2, 211035, Note_on_c, 0, 67, 72
2, 211067, Note_on_c, 0, 65, 0
2, 211092, Note_on_c, 0, 57, 0
2, 211124, Note_on_c, 0, 52, 0
2, 211136, Note_on_c, 0, 53, 70
2, 211147, Note_on_c, 0, 69, 72
2, 211157, Note_on_c, 0, 67, 0
2, 211217, Note_on_c, 0, 69, 0
2, 211247, Note_on_c, 0, 67, 74
2, 211255, Note_on_c, 0, 52, 61
2, 211255, Note_on_c, 0, 53, 0
2, 211360, Note_on_c, 0, 69, 91
2, 211369, Note_on_c, 0, 53, 85
2, 211382, Note_on_c, 0, 52, 0
2, 211384, Note_on_c, 0, 67, 0
2, 211415, Note_on_c, 0, 69, 0
2, 211430, Note_on_c, 0, 53, 0
2, 211609, Note_on_c, 0, 74, 91
2, 211614, Note_on_c, 0, 69, 89
2, 211616, Note_on_c, 0, 58, 79
2, 211626, Note_on_c, 0, 53, 73
2, 211676, Note_on_c, 0, 55, 14
2, 211677, Note_on_c, 0, 55, 0
2, 211836, Note_on_c, 0, 74, 0
2, 211844, Note_on_c, 0, 46, 72
2, 211856, Note_on_c, 0, 62, 74
2, 211897, Note_on_c, 0, 58, 0
2, 211914, Note_on_c, 0, 69, 0
2, 211919, Note_on_c, 0, 53, 0
2, 211939, Note_on_c, 0, 62, 0
2, 211964, Note_on_c, 0, 46, 0
2, 212075, Note_on_c, 0, 55, 79
2, 212075, Note_on_c, 0, 70, 89
2, 212181, Note_on_c, 0, 62, 62
2, 212182, Note_on_c, 0, 46, 62
2, 212290, Note_on_c, 0, 62, 0
2, 212293, Note_on_c, 0, 64, 68
2, 212297, Note_on_c, 0, 48, 56
2, 212337, Note_on_c, 0, 46, 0
2, 212399, Note_on_c, 0, 48, 0
2, 212404, Note_on_c, 0, 55, 0
2, 212417, Note_on_c, 0, 50, 66
2, 212417, Note_on_c, 0, 66, 68
2, 212431, Note_on_c, 0, 64, 0
2, 212516, Note_on_c, 0, 51, 73
2, 212517, Note_on_c, 0, 50, 0
2, 212520, Note_on_c, 0, 66, 0
2, 212535, Note_on_c, 0, 67, 74
2, 212610, Note_on_c, 0, 70, 0
2, 212621, Note_on_c, 0, 51, 0
2, 212640, Note_on_c, 0, 50, 61
2, 212661, Note_on_c, 0, 66, 68
2, 212663, Note_on_c, 0, 67, 0
2, 212766, Note_on_c, 0, 66, 0
2, 212768, Note_on_c, 0, 51, 62
2, 212769, Note_on_c, 0, 67, 77
2, 212771, Note_on_c, 0, 50, 0
2, 212771, Note_on_c, 0, 58, 75
2, 212835, Note_on_c, 0, 67, 0
2, 212992, Note_on_c, 0, 72, 80
2, 213012, Note_on_c, 0, 57, 67
2, 213017, Note_on_c, 0, 58, 0
2, 213065, Note_on_c, 0, 51, 0
2, 213084, Note_on_c, 0, 72, 0
2, 213131, Note_on_c, 0, 50, 54
2, 213204, Note_on_c, 0, 57, 0
2, 213220, Note_on_c, 0, 55, 67
2, 213233, Note_on_c, 0, 72, 77
2, 213236, Note_on_c, 0, 70, 78
2, 213237, Note_on_c, 0, 51, 55
2, 213254, Note_on_c, 0, 50, 0
2, 213309, Note_on_c, 0, 55, 0
2, 213362, Note_on_c, 0, 50, 66
2, 213368, Note_on_c, 0, 70, 0
2, 213372, Note_on_c, 0, 72, 0
2, 213392, Note_on_c, 0, 51, 0
2, 213453, Note_on_c, 0, 72, 85
2, 213456, Note_on_c, 0, 48, 67
2, 213456, Note_on_c, 0, 63, 75
2, 213462, Note_on_c, 0, 69, 73
2, 213465, Note_on_c, 0, 50, 0
2, 213538, Note_on_c, 0, 48, 0
2, 213545, Note_on_c, 0, 46, 66
2, 213551, Note_on_c, 0, 63, 0
2, 213578, Note_on_c, 0, 72, 0
2, 213647, Note_on_c, 0, 69, 0
2, 213680, Note_on_c, 0, 48, 74
2, 213687, Note_on_c, 0, 72, 96
2, 213691, Note_on_c, 0, 67, 80
2, 213693, Note_on_c, 0, 63, 82
2, 213705, Note_on_c, 0, 46, 0
2, 213788, Note_on_c, 0, 67, 0
2, 213791, Note_on_c, 0, 63, 0
2, 213803, Note_on_c, 0, 46, 77
2, 213818, Note_on_c, 0, 48, 0
2, 213830, Note_on_c, 0, 72, 0
2, 213936, Note_on_c, 0, 45, 85
2, 213938, Note_on_c, 0, 72, 101
2, 213940, Note_on_c, 0, 66, 92
2, 213946, Note_on_c, 0, 63, 89
2, 213948, Note_on_c, 0, 46, 0
2, 214020, Note_on_c, 0, 63, 0
2, 214062, Note_on_c, 0, 43, 79
2, 214071, Note_on_c, 0, 45, 0
2, 214071, Note_on_c, 0, 72, 0
2, 214147, Note_on_c, 0, 66, 0
2, 214213, Note_on_c, 0, 45, 87
2, 214213, Note_on_c, 0, 72, 99
2, 214216, Note_on_c, 0, 63, 93
2, 214217, Note_on_c, 0, 67, 83
2, 214220, Note_on_c, 0, 43, 0
2, 214270, Note_on_c, 0, 62, 23
2, 214301, Note_on_c, 0, 72, 0
2, 214310, Note_on_c, 0, 62, 0
2, 214340, Note_on_c, 0, 63, 0
2, 214352, Note_on_c, 0, 43, 71
2, 214376, Note_on_c, 0, 45, 0
2, 214552, Note_on_c, 0, 67, 0
2, 214569, Note_on_c, 0, 72, 98
2, 214572, Note_on_c, 0, 42, 85
2, 214572, Note_on_c, 0, 69, 85
2, 214574, Note_on_c, 0, 62, 91
2, 214606, Note_on_c, 0, 43, 0
2, 215149, Note_on_c, 0, 72, 0
2, 215156, Note_on_c, 0, 62, 0
2, 215165, Note_on_c, 0, 69, 0
2, 215167, Note_on_c, 0, 42, 0
2, 215436, Note_on_c, 0, 74, 97
2, 215438, Note_on_c, 0, 66, 86
2, 215444, Note_on_c, 0, 38, 93
2, 215444, Note_on_c, 0, 62, 78
2, 215450, Note_on_c, 0, 76, 63
2, 215451, Note_on_c, 0, 76, 0
2, 215479, Note_on_c, 0, 64, 30
2, 215480, Note_on_c, 0, 64, 0
2, 215654, Note_on_c, 0, 62, 0
2, 215695, Note_on_c, 0, 66, 0
2, 215731, Note_on_c, 0, 70, 97
2, 215732, Note_on_c, 0, 74, 0
2, 215737, Note_on_c, 0, 62, 82
2, 215740, Note_on_c, 0, 43, 83
2, 215742, Note_on_c, 0, 67, 78
2, 215777, Note_on_c, 0, 38, 0
2, 216077, Note_on_c, 0, 67, 0
2, 216210, Note_on_c, 0, 43, 0
2, 216210, Note_on_c, 0, 62, 0
2, 216227, Note_on_c, 0, 70, 0
2, 216475, Note_on_c, 0, 72, 96
2, 216481, Note_on_c, 0, 48, 77
2, 216482, Note_on_c, 0, 63, 80
2, 216483, Note_on_c, 0, 69, 74
2, 216713, Note_on_c, 0, 63, 0
2, 216771, Note_on_c, 0, 69, 0
2, 216779, Note_on_c, 0, 72, 0
2, 216807, Note_on_c, 0, 70, 88
2, 216813, Note_on_c, 0, 50, 57
2, 216817, Note_on_c, 0, 62, 73
2, 216824, Note_on_c, 0, 67, 68
2, 216922, Note_on_c, 0, 48, 0
2, 217091, Note_on_c, 0, 70, 0
2, 217106, Note_on_c, 0, 69, 82
2, 217146, Note_on_c, 0, 67, 0
2, 217150, Note_on_c, 0, 71, 19
2, 217180, Note_on_c, 0, 71, 0
2, 217205, Note_on_c, 0, 62, 0
2, 217286, Note_on_c, 0, 69, 0
2, 217362, Note_on_c, 0, 69, 78
2, 217364, Note_on_c, 0, 38, 48
2, 217372, Note_on_c, 0, 66, 65
2, 217384, Note_on_c, 0, 60, 54
2, 217443, Note_on_c, 0, 50, 0
2, 217532, Note_on_c, 0, 66, 0
2, 217632, Note_on_c, 0, 67, 64
2, 217668, Note_on_c, 0, 69, 0
2, 217741, Note_on_c, 0, 60, 0
2, 217817, Note_on_c, 0, 67, 0
2, 217887, Note_on_c, 0, 38, 0
2, 217912, Note_on_c, 0, 43, 41
2, 217920, Note_on_c, 0, 58, 51
2, 217926, Note_on_c, 0, 67, 47
2, 217957, Note_on_c, 0, 62, 19
2, 218006, Note_on_c, 0, 43, 0
2, 218041, Note_on_c, 0, 50, 57
2, 218091, Note_on_c, 0, 58, 0
2, 218139, Note_on_c, 0, 62, 0
2, 218149, Note_on_c, 0, 50, 0
2, 218156, Note_on_c, 0, 52, 58
2, 218171, Note_on_c, 0, 67, 0
2, 218247, Note_on_c, 0, 52, 0
2, 218274, Note_on_c, 0, 54, 61
2, 218366, Note_on_c, 0, 54, 0
2, 218391, Note_on_c, 0, 55, 58
2, 218487, Note_on_c, 0, 55, 0
2, 218492, Note_on_c, 0, 69, 58
2, 218511, Note_on_c, 0, 54, 47
2, 218580, Note_on_c, 0, 69, 0
2, 218608, Note_on_c, 0, 54, 0
2, 218613, Note_on_c, 0, 55, 61
2, 218615, Note_on_c, 0, 70, 65
2, 218653, Note_on_c, 0, 55, 0
2, 218739, Note_on_c, 0, 70, 0
2, 218742, Note_on_c, 0, 72, 65
2, 218852, Note_on_c, 0, 72, 0
2, 218858, Note_on_c, 0, 55, 45
2, 218875, Note_on_c, 0, 74, 54
2, 218930, Note_on_c, 0, 55, 0
2, 218930, Note_on_c, 0, 55, 3
2, 218978, Note_on_c, 0, 57, 60
2, 218984, Note_on_c, 0, 74, 0
2, 218990, Note_on_c, 0, 72, 62
2, 219085, Note_on_c, 0, 57, 0
2, 219088, Note_on_c, 0, 58, 66
2, 219098, Note_on_c, 0, 72, 0
2, 219101, Note_on_c, 0, 74, 65
2, 219195, Note_on_c, 0, 58, 0
2, 219208, Note_on_c, 0, 60, 64
2, 219216, Note_on_c, 0, 74, 0
2, 219219, Note_on_c, 0, 75, 67
2, 219229, Note_on_c, 0, 55, 0
2, 219297, Note_on_c, 0, 75, 0
2, 219311, Note_on_c, 0, 60, 0
2, 219331, Note_on_c, 0, 69, 72
2, 219337, Note_on_c, 0, 62, 66
2, 219421, Note_on_c, 0, 69, 0
2, 219425, Note_on_c, 0, 62, 0
2, 219438, Note_on_c, 0, 61, 60
2, 219454, Note_on_c, 0, 64, 68
2, 219465, Note_on_c, 0, 69, 37
2, 219545, Note_on_c, 0, 61, 0
2, 219551, Note_on_c, 0, 64, 0
2, 219552, Note_on_c, 0, 62, 73
2, 219559, Note_on_c, 0, 65, 68
2, 219562, Note_on_c, 0, 53, 61
2, 219607, Note_on_c, 0, 53, 0
2, 219638, Note_on_c, 0, 65, 0
2, 219668, Note_on_c, 0, 69, 0
2, 219671, Note_on_c, 0, 67, 74
2, 219788, Note_on_c, 0, 53, 66
2, 219788, Note_on_c, 0, 67, 0
2, 219788, Note_on_c, 0, 69, 71
2, 219886, Note_on_c, 0, 69, 0
2, 219895, Note_on_c, 0, 70, 71
2, 219905, Note_on_c, 0, 67, 67
2, 219994, Note_on_c, 0, 70, 0
2, 220012, Note_on_c, 0, 62, 0
2, 220019, Note_on_c, 0, 72, 76
2, 220022, Note_on_c, 0, 69, 69
2, 220024, Note_on_c, 0, 57, 65
2, 220026, Note_on_c, 0, 67, 0
2, 220106, Note_on_c, 0, 69, 0
2, 220121, Note_on_c, 0, 53, 0
2, 220128, Note_on_c, 0, 57, 0
2, 220132, Note_on_c, 0, 59, 69
2, 220133, Note_on_c, 0, 69, 58
2, 220135, Note_on_c, 0, 74, 81
2, 220139, Note_on_c, 0, 72, 0
2, 220146, Note_on_c, 0, 53, 13
2, 220232, Note_on_c, 0, 59, 0
2, 220241, Note_on_c, 0, 60, 81
2, 220246, Note_on_c, 0, 75, 83
2, 220259, Note_on_c, 0, 74, 0
2, 220351, Note_on_c, 0, 59, 80
2, 220357, Note_on_c, 0, 74, 82
2, 220360, Note_on_c, 0, 60, 0
2, 220394, Note_on_c, 0, 75, 0
2, 220403, Note_on_c, 0, 69, 0
2, 220460, Note_on_c, 0, 68, 81
2, 220460, Note_on_c, 0, 75, 73
2, 220470, Note_on_c, 0, 74, 0
2, 220478, Note_on_c, 0, 60, 82
2, 220487, Note_on_c, 0, 59, 0
2, 220573, Note_on_c, 0, 77, 82
2, 220577, Note_on_c, 0, 75, 0
2, 220619, Note_on_c, 0, 53, 0
2, 220642, Note_on_c, 0, 68, 0
2, 220687, Note_on_c, 0, 77, 0
2, 220690, Note_on_c, 0, 60, 0
2, 220690, Note_on_c, 0, 71, 84
2, 220694, Note_on_c, 0, 62, 78
2, 220696, Note_on_c, 0, 67, 76
2, 220741, Note_on_c, 0, 67, 0
2, 220754, Note_on_c, 0, 62, 0
2, 220798, Note_on_c, 0, 71, 0
2, 220806, Note_on_c, 0, 47, 80
2, 220810, Note_on_c, 0, 67, 79
2, 220922, Note_on_c, 0, 48, 70
2, 220933, Note_on_c, 0, 69, 76
2, 220962, Note_on_c, 0, 67, 0
2, 220963, Note_on_c, 0, 47, 0
2, 221030, Note_on_c, 0, 50, 76
2, 221031, Note_on_c, 0, 48, 0
2, 221042, Note_on_c, 0, 71, 83
2, 221064, Note_on_c, 0, 69, 0
2, 221146, Note_on_c, 0, 51, 84
2, 221150, Note_on_c, 0, 50, 0
2, 221155, Note_on_c, 0, 72, 86
2, 221175, Note_on_c, 0, 71, 0
2, 221261, Note_on_c, 0, 50, 76
2, 221261, Note_on_c, 0, 51, 0
2, 221261, Note_on_c, 0, 71, 91
2, 221297, Note_on_c, 0, 72, 0
2, 221369, Note_on_c, 0, 51, 87
2, 221380, Note_on_c, 0, 72, 94
2, 221381, Note_on_c, 0, 71, 0
2, 221386, Note_on_c, 0, 50, 0
2, 221482, Note_on_c, 0, 51, 0
2, 221486, Note_on_c, 0, 70, 91
2, 221490, Note_on_c, 0, 62, 80
2, 221518, Note_on_c, 0, 72, 0
2, 221598, Note_on_c, 0, 70, 0
2, 221612, Note_on_c, 0, 62, 0
2, 221614, Note_on_c, 0, 72, 94
2, 221618, Note_on_c, 0, 69, 85
2, 221620, Note_on_c, 0, 60, 80
2, 221621, Note_on_c, 0, 51, 79
2, 221650, Note_on_c, 0, 61, 33
2, 221651, Note_on_c, 0, 61, 0
2, 221733, Note_on_c, 0, 69, 0
2, 221739, Note_on_c, 0, 67, 87
2, 221764, Note_on_c, 0, 58, 75
2, 221766, Note_on_c, 0, 60, 0
2, 221766, Note_on_c, 0, 72, 0
2, 221868, Note_on_c, 0, 58, 0
2, 221868, Note_on_c, 0, 72, 102
2, 221873, Note_on_c, 0, 60, 86
2, 221874, Note_on_c, 0, 69, 86
2, 221898, Note_on_c, 0, 67, 0
2, 221974, Note_on_c, 0, 69, 0
2, 221999, Note_on_c, 0, 58, 77
2, 221999, Note_on_c, 0, 60, 0
2, 222000, Note_on_c, 0, 67, 83
2, 222011, Note_on_c, 0, 72, 0
2, 222184, Note_on_c, 0, 57, 86
2, 222186, Note_on_c, 0, 72, 97
2, 222188, Note_on_c, 0, 66, 82
2, 222210, Note_on_c, 0, 58, 0
2, 222215, Note_on_c, 0, 67, 0
2, 222243, Note_on_c, 0, 71, 29
2, 222280, Note_on_c, 0, 71, 0
2, 222723, Note_on_c, 0, 57, 0
2, 222737, Note_on_c, 0, 51, 0
2, 222741, Note_on_c, 0, 72, 0
2, 222754, Note_on_c, 0, 66, 0
2, 223016, Note_on_c, 0, 78, 107
2, 223018, Note_on_c, 0, 51, 86
2, 223019, Note_on_c, 0, 60, 94
2, 223019, Note_on_c, 0, 69, 94
2, 223266, Note_on_c, 0, 60, 0
2, 223355, Note_on_c, 0, 78, 0
2, 223362, Note_on_c, 0, 70, 83
2, 223362, Note_on_c, 0, 79, 94
2, 223371, Note_on_c, 0, 50, 79
2, 223373, Note_on_c, 0, 62, 93
2, 223404, Note_on_c, 0, 69, 0
2, 223411, Note_on_c, 0, 51, 0
2, 223651, Note_on_c, 0, 79, 0
2, 223653, Note_on_c, 0, 70, 0
2, 223730, Note_on_c, 0, 62, 0
2, 223810, Note_on_c, 0, 50, 0
2, 223981, Note_on_c, 0, 82, 100
2, 224147, Note_on_c, 0, 81, 90
2, 224151, Note_on_c, 0, 49, 96
2, 224216, Note_on_c, 0, 82, 0
2, 224253, Note_on_c, 0, 49, 0
2, 224291, Note_on_c, 0, 79, 80
2, 224291, Note_on_c, 0, 81, 0
2, 224428, Note_on_c, 0, 50, 96
2, 224430, Note_on_c, 0, 78, 84
2, 224462, Note_on_c, 0, 79, 0
2, 224512, Note_on_c, 0, 80, 23
2, 224555, Note_on_c, 0, 76, 79
2, 224559, Note_on_c, 0, 80, 0
2, 224564, Note_on_c, 0, 57, 69
2, 224681, Note_on_c, 0, 58, 72
2, 224682, Note_on_c, 0, 74, 79
2, 224693, Note_on_c, 0, 57, 0
2, 224704, Note_on_c, 0, 78, 0
2, 224738, Note_on_c, 0, 76, 0
2, 224784, Note_on_c, 0, 74, 0
2, 224786, Note_on_c, 0, 72, 84
2, 224796, Note_on_c, 0, 60, 73
2, 224813, Note_on_c, 0, 58, 0
2, 224830, Note_on_c, 0, 50, 0
2, 224898, Note_on_c, 0, 70, 80
2, 224906, Note_on_c, 0, 62, 82
2, 224910, Note_on_c, 0, 72, 0
2, 224919, Note_on_c, 0, 60, 0
2, 225015, Note_on_c, 0, 69, 73
2, 225032, Note_on_c, 0, 70, 0
2, 225113, Note_on_c, 0, 69, 0
2, 225123, Note_on_c, 0, 67, 78
2, 225130, Note_on_c, 0, 50, 84
2, 225170, Note_on_c, 0, 50, 0
2, 225240, Note_on_c, 0, 67, 0
2, 225245, Note_on_c, 0, 66, 70
2, 225363, Note_on_c, 0, 67, 78
2, 225369, Note_on_c, 0, 62, 0
2, 225374, Note_on_c, 0, 51, 98
2, 225392, Note_on_c, 0, 66, 0
2, 225496, Note_on_c, 0, 55, 80
2, 225502, Note_on_c, 0, 59, 74
2, 225581, Note_on_c, 0, 59, 0
2, 225607, Note_on_c, 0, 60, 73
2, 225611, Note_on_c, 0, 55, 0
2, 225617, Note_on_c, 0, 57, 75
2, 225662, Note_on_c, 0, 57, 0
2, 225691, Note_on_c, 0, 51, 0
2, 225719, Note_on_c, 0, 59, 71
2, 225725, Note_on_c, 0, 60, 0
2, 225726, Note_on_c, 0, 62, 76
2, 225836, Note_on_c, 0, 59, 0
2, 225838, Note_on_c, 0, 60, 82
2, 225839, Note_on_c, 0, 48, 95
2, 225842, Note_on_c, 0, 62, 0
2, 225844, Note_on_c, 0, 63, 77
2, 225914, Note_on_c, 0, 60, 0
2, 225952, Note_on_c, 0, 63, 0
2, 225958, Note_on_c, 0, 62, 77
2, 225959, Note_on_c, 0, 59, 74
2, 226041, Note_on_c, 0, 59, 0
2, 226079, Note_on_c, 0, 60, 81
2, 226079, Note_on_c, 0, 63, 75
2, 226104, Note_on_c, 0, 62, 0
2, 226123, Note_on_c, 0, 60, 0
2, 226145, Note_on_c, 0, 63, 0
2, 226208, Note_on_c, 0, 48, 0
2, 226326, Note_on_c, 0, 63, 79
2, 226332, Note_on_c, 0, 60, 76
2, 226426, Note_on_c, 0, 45, 88
2, 226551, Note_on_c, 0, 47, 85
2, 226565, Note_on_c, 0, 45, 0
2, 226671, Note_on_c, 0, 48, 91
2, 226679, Note_on_c, 0, 47, 0
2, 226775, Note_on_c, 0, 48, 0
2, 226779, Note_on_c, 0, 50, 94
2, 226814, Note_on_c, 0, 60, 0
2, 226871, Note_on_c, 0, 63, 0
2, 226896, Note_on_c, 0, 57, 83
2, 226911, Note_on_c, 0, 60, 85
2, 226989, Note_on_c, 0, 57, 0
2, 227016, Note_on_c, 0, 62, 80
2, 227018, Note_on_c, 0, 60, 0
2, 227031, Note_on_c, 0, 59, 69
2, 227074, Note_on_c, 0, 59, 0
2, 227127, Note_on_c, 0, 60, 81
2, 227127, Note_on_c, 0, 63, 81
2, 227131, Note_on_c, 0, 62, 0
2, 227136, Note_on_c, 0, 50, 0
2, 227233, Note_on_c, 0, 47, 91
2, 227241, Note_on_c, 0, 63, 0
2, 227243, Note_on_c, 0, 60, 0
2, 227243, Note_on_c, 0, 62, 79
2, 227243, Note_on_c, 0, 65, 79
2, 227313, Note_on_c, 0, 62, 0
2, 227343, Note_on_c, 0, 65, 0
2, 227354, Note_on_c, 0, 63, 79
2, 227357, Note_on_c, 0, 60, 80
2, 227428, Note_on_c, 0, 60, 0
2, 227457, Note_on_c, 0, 63, 0
2, 227469, Note_on_c, 0, 62, 74
2, 227469, Note_on_c, 0, 65, 77
2, 227542, Note_on_c, 0, 62, 0
2, 227561, Note_on_c, 0, 65, 0
2, 227616, Note_on_c, 0, 47, 0
2, 227725, Note_on_c, 0, 62, 82
2, 227728, Note_on_c, 0, 65, 81
2, 227837, Note_on_c, 0, 43, 92
2, 227861, Note_on_c, 0, 65, 0
2, 227879, Note_on_c, 0, 62, 0
2, 227954, Note_on_c, 0, 45, 84
2, 227969, Note_on_c, 0, 43, 0
2, 228066, Note_on_c, 0, 47, 85
2, 228075, Note_on_c, 0, 45, 0
2, 228189, Note_on_c, 0, 48, 91
2, 228214, Note_on_c, 0, 47, 0
2, 228329, Note_on_c, 0, 48, 0
2, 228438, Note_on_c, 0, 67, 0
2, 228443, Note_on_c, 0, 48, 70
2, 228445, Note_on_c, 0, 65, 55
2, 228445, Note_on_c, 0, 68, 63
2, 228519, Note_on_c, 0, 65, 0
2, 228579, Note_on_c, 0, 68, 0
2, 228579, Note_on_c, 0, 74, 74
2, 228644, Note_on_c, 0, 48, 0
2, 228706, Note_on_c, 0, 67, 71
2, 228711, Note_on_c, 0, 48, 74
2, 228715, Note_on_c, 0, 63, 60
2, 228815, Note_on_c, 0, 72, 86
2, 228825, Note_on_c, 0, 67, 0
2, 228845, Note_on_c, 0, 63, 0
2, 228867, Note_on_c, 0, 48, 0
2, 228918, Note_on_c, 0, 72, 0
2, 228934, Note_on_c, 0, 74, 0
2, 228941, Note_on_c, 0, 48, 82
2, 228944, Note_on_c, 0, 65, 83
2, 228946, Note_on_c, 0, 62, 79
2, 228956, Note_on_c, 0, 60, 73
2, 229002, Note_on_c, 0, 60, 0
2, 229048, Note_on_c, 0, 70, 91
2, 229064, Note_on_c, 0, 65, 0
2, 229066, Note_on_c, 0, 48, 0
2, 229161, Note_on_c, 0, 63, 88
2, 229164, Note_on_c, 0, 60, 90
2, 229170, Note_on_c, 0, 48, 84
2, 229176, Note_on_c, 0, 70, 0
2, 229291, Note_on_c, 0, 69, 86
2, 229299, Note_on_c, 0, 62, 0
2, 229334, Note_on_c, 0, 48, 0
2, 229406, Note_on_c, 0, 60, 0
2, 229409, Note_on_c, 0, 58, 94
2, 229412, Note_on_c, 0, 48, 77
2, 229510, Note_on_c, 0, 48, 0
2, 229522, Note_on_c, 0, 67, 90
2, 229567, Note_on_c, 0, 69, 0
2, 229615, Note_on_c, 0, 63, 0
2, 229679, Note_on_c, 0, 66, 94
2, 229681, Note_on_c, 0, 57, 86
2, 229681, Note_on_c, 0, 58, 0
2, 229681, Note_on_c, 0, 62, 90
2, 229684, Note_on_c, 0, 48, 72
2, 229721, Note_on_c, 0, 67, 0
2, 229774, Note_on_c, 0, 62, 0
2, 229814, Note_on_c, 0, 66, 0
2, 229968, Note_on_c, 0, 72, 107
2, 229971, Note_on_c, 0, 46, 84
2, 230001, Note_on_c, 0, 48, 0
2, 230004, Note_on_c, 0, 57, 0
2, 230146, Note_on_c, 0, 45, 82
2, 230153, Note_on_c, 0, 74, 86
2, 230183, Note_on_c, 0, 46, 0
2, 230189, Note_on_c, 0, 72, 0
2, 230227, Note_on_c, 0, 75, 86
2, 230242, Note_on_c, 0, 74, 0
2, 230284, Note_on_c, 0, 46, 87
2, 230289, Note_on_c, 0, 74, 89
2, 230316, Note_on_c, 0, 45, 0
2, 230349, Note_on_c, 0, 75, 0
2, 230391, Note_on_c, 0, 74, 0
2, 230611, Note_on_c, 0, 67, 91
2, 230613, Note_on_c, 0, 48, 78
2, 230624, Note_on_c, 0, 58, 81
2, 230627, Note_on_c, 0, 63, 73
2, 230637, Note_on_c, 0, 46, 0
2, 230894, Note_on_c, 0, 63, 0
2, 230967, Note_on_c, 0, 57, 97
2, 230973, Note_on_c, 0, 50, 81
2, 230981, Note_on_c, 0, 62, 75
2, 230999, Note_on_c, 0, 58, 0
2, 231013, Note_on_c, 0, 48, 0
2, 231171, Note_on_c, 0, 58, 91
2, 231204, Note_on_c, 0, 57, 0
2, 231367, Note_on_c, 0, 62, 0
2, 231372, Note_on_c, 0, 58, 0
2, 231384, Note_on_c, 0, 50, 0
2, 231388, Note_on_c, 0, 66, 88
2, 231390, Note_on_c, 0, 60, 100
2, 231391, Note_on_c, 0, 38, 77
2, 231394, Note_on_c, 0, 62, 38
2, 231435, Note_on_c, 0, 67, 0
2, 231875, Note_on_c, 0, 62, 0
2, 231892, Note_on_c, 0, 66, 0
2, 231897, Note_on_c, 0, 43, 84
2, 231897, Note_on_c, 0, 67, 93
2, 231947, Note_on_c, 0, 38, 0
2, 231960, Note_on_c, 0, 62, 4
2, 232426, Note_on_c, 0, 59, 72
2, 232480, Note_on_c, 0, 60, 0
2, 233156, Note_on_c, 0, 43, 0
2, 233169, Note_on_c, 0, 67, 0
2, 233195, Note_on_c, 0, 59, 0
2, 233199, Note_on_c, 0, 62, 0
2, 233200, End_track
0, 0, End_of_file
