0, 0, Header, 1, 2, 384
1, 0, Start_track
1, 0, Tempo, 500000
1, 0, Time_signature, 4, 2, 24, 8
1, 1, End_track
2,0,Start_track
2,0, Note_on_c, 0, 62, 89
2,68, Note_on_c, 0, 62, 0
2,749, Note_on_c, 0, 58, 86
2,783, Note_on_c, 0, 58, 0
2,1037, Note_on_c, 0, 63, 87
2,1345, Note_on_c, 0, 63, 0
2,1536, Note_on_c, 0, 60, 80
2,2024, Note_on_c, 0, 60, 0
2,2249, Note_on_c, 0, 57, 89
2,2289, Note_on_c, 0, 57, 0
2,2510, Note_on_c, 0, 62, 89
2,2867, Note_on_c, 0, 62, 0
2,3025, Note_on_c, 0, 58, 78
2,3460, Note_on_c, 0, 58, 0
2,3681, Note_on_c, 0, 55, 87
2,3709, Note_on_c, 0, 53, 58
2,3710, Note_on_c, 0, 53, 0
2,3726, Note_on_c, 0, 55, 0
2,3928, Note_on_c, 0, 60, 93
2,3967, Note_on_c, 0, 60, 0
2,4168, Note_on_c, 0, 60, 78
2,4200, Note_on_c, 0, 60, 0
2,4405, Note_on_c, 0, 60, 66
2,4436, Note_on_c, 0, 60, 0
2,4633, Note_on_c, 0, 60, 79
2,4675, Note_on_c, 0, 60, 0
2,4876, Note_on_c, 0, 60, 84
2,4919, Note_on_c, 0, 60, 0
2,5110, Note_on_c, 0, 60, 83
2,5140, Note_on_c, 0, 60, 0
2,5342, Note_on_c, 0, 60, 83
2,5577, Note_on_c, 0, 60, 0
2,5586, Note_on_c, 0, 58, 65
2,5674, Note_on_c, 0, 58, 0
2,5696, Note_on_c, 0, 57, 58
2,5797, Note_on_c, 0, 57, 0
2,5805, Note_on_c, 0, 67, 91
2,5811, Note_on_c, 0, 58, 61
2,5928, Note_on_c, 0, 58, 0
2,5943, Note_on_c, 0, 55, 57
2,6043, Note_on_c, 0, 55, 0
2,6066, Note_on_c, 0, 58, 59
2,6182, Note_on_c, 0, 58, 0
2,6191, Note_on_c, 0, 60, 66
2,6267, Note_on_c, 0, 67, 0
2,6270, Note_on_c, 0, 60, 0
2,6301, Note_on_c, 0, 62, 77
2,6410, Note_on_c, 0, 62, 0
2,6418, Note_on_c, 0, 61, 66
2,6535, Note_on_c, 0, 61, 0
2,6537, Note_on_c, 0, 62, 74
2,6539, Note_on_c, 0, 65, 96
2,6564, Note_on_c, 0, 62, 0
2,6574, Note_on_c, 0, 65, 0
2,6784, Note_on_c, 0, 70, 92
2,6790, Note_on_c, 0, 62, 66
2,7014, Note_on_c, 0, 55, 59
2,7079, Note_on_c, 0, 70, 0
2,7145, Note_on_c, 0, 62, 0
2,7239, Note_on_c, 0, 55, 0
2,7279, Note_on_c, 0, 67, 84
2,7392, Note_on_c, 0, 55, 77
2,7509, Note_on_c, 0, 55, 0
2,7516, Note_on_c, 0, 57, 74
2,7622, Note_on_c, 0, 57, 0
2,7637, Note_on_c, 0, 58, 70
2,7731, Note_on_c, 0, 58, 0
2,7735, Note_on_c, 0, 67, 0
2,7747, Note_on_c, 0, 60, 79
2,7845, Note_on_c, 0, 60, 0
2,7851, Note_on_c, 0, 58, 68
2,7984, Note_on_c, 0, 58, 0
2,7984, Note_on_c, 0, 60, 71
2,7984, Note_on_c, 0, 64, 96
2,8019, Note_on_c, 0, 60, 0
2,8019, Note_on_c, 0, 64, 0
2,8231, Note_on_c, 0, 69, 89
2,8233, Note_on_c, 0, 60, 70
2,8267, Note_on_c, 0, 67, 26
2,8268, Note_on_c, 0, 67, 0
2,8461, Note_on_c, 0, 53, 63
2,8503, Note_on_c, 0, 69, 0
2,8626, Note_on_c, 0, 60, 0
2,8704, Note_on_c, 0, 53, 0
2,8724, Note_on_c, 0, 65, 85
2,8844, Note_on_c, 0, 53, 78
2,8942, Note_on_c, 0, 53, 0
2,8951, Note_on_c, 0, 55, 75
2,9056, Note_on_c, 0, 55, 0
2,9065, Note_on_c, 0, 57, 75
2,9135, Note_on_c, 0, 65, 0
2,9181, Note_on_c, 0, 57, 0
2,9185, Note_on_c, 0, 58, 84
2,9279, Note_on_c, 0, 58, 0
2,9288, Note_on_c, 0, 57, 75
2,9404, Note_on_c, 0, 57, 0
2,9416, Note_on_c, 0, 62, 95
2,9422, Note_on_c, 0, 58, 66
2,9468, Note_on_c, 0, 62, 0
2,9664, Note_on_c, 0, 67, 82
2,9703, Note_on_c, 0, 67, 0
2,9760, Note_on_c, 0, 58, 0
2,9771, Note_on_c, 0, 57, 57
2,9878, Note_on_c, 0, 57, 0
2,9903, Note_on_c, 0, 58, 53
2,9903, Note_on_c, 0, 67, 81
2,9937, Note_on_c, 0, 67, 0
2,9999, Note_on_c, 0, 58, 0
2,10012, Note_on_c, 0, 57, 56
2,10131, Note_on_c, 0, 57, 0
2,10138, Note_on_c, 0, 67, 89
2,10141, Note_on_c, 0, 55, 61
2,10174, Note_on_c, 0, 67, 0
2,10250, Note_on_c, 0, 55, 0
2,10255, Note_on_c, 0, 53, 69
2,10357, Note_on_c, 0, 53, 0
2,10371, Note_on_c, 0, 67, 94
2,10378, Note_on_c, 0, 55, 74
2,10407, Note_on_c, 0, 67, 0
2,10486, Note_on_c, 0, 53, 73
2,10486, Note_on_c, 0, 55, 0
2,10602, Note_on_c, 0, 52, 75
2,10605, Note_on_c, 0, 67, 95
2,10608, Note_on_c, 0, 53, 0
2,10639, Note_on_c, 0, 67, 0
2,10713, Note_on_c, 0, 52, 0
2,10719, Note_on_c, 0, 50, 72
2,10822, Note_on_c, 0, 50, 0
2,10836, Note_on_c, 0, 52, 70
2,10841, Note_on_c, 0, 67, 89
2,10875, Note_on_c, 0, 67, 0
2,10921, Note_on_c, 0, 52, 0
2,10934, Note_on_c, 0, 50, 67
2,11074, Note_on_c, 0, 49, 74
2,11077, Note_on_c, 0, 50, 0
2,11082, Note_on_c, 0, 67, 90
2,11110, Note_on_c, 0, 49, 0
2,11304, Note_on_c, 0, 57, 70
2,11321, Note_on_c, 0, 67, 0
2,11322, Note_on_c, 0, 65, 72
2,11334, Note_on_c, 0, 57, 0
2,11394, Note_on_c, 0, 65, 0
2,11431, Note_on_c, 0, 64, 75
2,11542, Note_on_c, 0, 74, 98
2,11554, Note_on_c, 0, 50, 72
2,11555, Note_on_c, 0, 65, 79
2,11562, Note_on_c, 0, 64, 0
2,11583, Note_on_c, 0, 65, 0
2,11591, Note_on_c, 0, 50, 0
2,11671, Note_on_c, 0, 62, 68
2,11774, Note_on_c, 0, 60, 77
2,11788, Note_on_c, 0, 64, 73
2,11798, Note_on_c, 0, 62, 0
2,11811, Note_on_c, 0, 74, 0
2,11814, Note_on_c, 0, 60, 0
2,11899, Note_on_c, 0, 66, 67
2,11917, Note_on_c, 0, 64, 0
2,12006, Note_on_c, 0, 66, 0
2,12012, Note_on_c, 0, 58, 69
2,12017, Note_on_c, 0, 67, 82
2,12040, Note_on_c, 0, 58, 0
2,12139, Note_on_c, 0, 66, 64
2,12141, Note_on_c, 0, 67, 0
2,12232, Note_on_c, 0, 66, 0
2,12256, Note_on_c, 0, 70, 98
2,12259, Note_on_c, 0, 55, 74
2,12260, Note_on_c, 0, 67, 72
2,12283, Note_on_c, 0, 67, 0
2,12289, Note_on_c, 0, 55, 0
2,12299, Note_on_c, 0, 70, 0
2,12488, Note_on_c, 0, 75, 95
2,12495, Note_on_c, 0, 67, 82
2,12505, Note_on_c, 0, 60, 73
2,12606, Note_on_c, 0, 60, 0
2,12615, Note_on_c, 0, 58, 68
2,12722, Note_on_c, 0, 58, 0
2,12731, Note_on_c, 0, 60, 80
2,12807, Note_on_c, 0, 75, 0
2,12818, Note_on_c, 0, 67, 0
2,12832, Note_on_c, 0, 58, 69
2,12849, Note_on_c, 0, 60, 0
2,12951, Note_on_c, 0, 58, 0
2,12955, Note_on_c, 0, 57, 66
2,12959, Note_on_c, 0, 72, 90
2,13073, Note_on_c, 0, 60, 70
2,13194, Note_on_c, 0, 62, 65
2,13255, Note_on_c, 0, 60, 0
2,13291, Note_on_c, 0, 62, 0
2,13304, Note_on_c, 0, 55, 59
2,13304, Note_on_c, 0, 63, 69
2,13305, Note_on_c, 0, 57, 0
2,13357, Note_on_c, 0, 72, 0
2,13402, Note_on_c, 0, 63, 0
2,13409, Note_on_c, 0, 65, 82
2,13412, Note_on_c, 0, 55, 0
2,13420, Note_on_c, 0, 57, 67
2,13446, Note_on_c, 0, 57, 0
2,13500, Note_on_c, 0, 65, 0
2,13513, Note_on_c, 0, 63, 74
2,13571, Note_on_c, 0, 63, 0
2,13640, Note_on_c, 0, 69, 95
2,13641, Note_on_c, 0, 53, 68
2,13650, Note_on_c, 0, 65, 74
2,13674, Note_on_c, 0, 65, 0
2,13678, Note_on_c, 0, 53, 0
2,13685, Note_on_c, 0, 69, 0
2,13870, Note_on_c, 0, 74, 90
2,13880, Note_on_c, 0, 65, 84
2,13886, Note_on_c, 0, 58, 69
2,13961, Note_on_c, 0, 58, 0
2,14003, Note_on_c, 0, 57, 58
2,14118, Note_on_c, 0, 58, 79
2,14126, Note_on_c, 0, 57, 0
2,14169, Note_on_c, 0, 74, 0
2,14207, Note_on_c, 0, 65, 0
2,14226, Note_on_c, 0, 57, 73
2,14232, Note_on_c, 0, 58, 0
2,14339, Note_on_c, 0, 57, 0
2,14357, Note_on_c, 0, 70, 89
2,14360, Note_on_c, 0, 55, 64
2,14467, Note_on_c, 0, 58, 72
2,14584, Note_on_c, 0, 60, 75
2,14595, Note_on_c, 0, 55, 0
2,14596, Note_on_c, 0, 57, 67
2,14596, Note_on_c, 0, 58, 0
2,14644, Note_on_c, 0, 70, 0
2,14676, Note_on_c, 0, 57, 0
2,14702, Note_on_c, 0, 62, 78
2,14703, Note_on_c, 0, 60, 0
2,14711, Note_on_c, 0, 58, 66
2,14787, Note_on_c, 0, 58, 0
2,14805, Note_on_c, 0, 63, 81
2,14827, Note_on_c, 0, 60, 71
2,14841, Note_on_c, 0, 62, 0
2,14889, Note_on_c, 0, 63, 0
2,14925, Note_on_c, 0, 62, 65
2,15034, Note_on_c, 0, 67, 90
2,15041, Note_on_c, 0, 63, 75
2,15047, Note_on_c, 0, 62, 0
2,15101, Note_on_c, 0, 67, 0
2,15143, Note_on_c, 0, 60, 0
2,15146, Note_on_c, 0, 58, 67
2,15249, Note_on_c, 0, 58, 0
2,15252, Note_on_c, 0, 72, 84
2,15257, Note_on_c, 0, 57, 66
2,15294, Note_on_c, 0, 63, 0
2,15336, Note_on_c, 0, 72, 0
2,15363, Note_on_c, 0, 62, 62
2,15485, Note_on_c, 0, 62, 0
2,15491, Note_on_c, 0, 72, 75
2,15504, Note_on_c, 0, 63, 57
2,15553, Note_on_c, 0, 63, 0
2,15564, Note_on_c, 0, 72, 0
2,15619, Note_on_c, 0, 62, 57
2,15715, Note_on_c, 0, 57, 0
2,15739, Note_on_c, 0, 72, 87
2,15742, Note_on_c, 0, 60, 55
2,15769, Note_on_c, 0, 62, 0
2,15794, Note_on_c, 0, 72, 0
2,15824, Note_on_c, 0, 60, 0
2,15831, Note_on_c, 0, 58, 65
2,15951, Note_on_c, 0, 58, 0
2,15954, Note_on_c, 0, 72, 89
2,15959, Note_on_c, 0, 60, 74
2,15965, Note_on_c, 0, 55, 63
2,16003, Note_on_c, 0, 55, 0
2,16008, Note_on_c, 0, 72, 0
2,16063, Note_on_c, 0, 58, 76
2,16063, Note_on_c, 0, 60, 0
2,16179, Note_on_c, 0, 58, 0
2,16191, Note_on_c, 0, 54, 68
2,16191, Note_on_c, 0, 72, 91
2,16196, Note_on_c, 0, 57, 76
2,16241, Note_on_c, 0, 54, 0
2,16245, Note_on_c, 0, 72, 0
2,16302, Note_on_c, 0, 55, 73
2,16302, Note_on_c, 0, 57, 0
2,16415, Note_on_c, 0, 55, 0
2,16421, Note_on_c, 0, 72, 92
2,16422, Note_on_c, 0, 57, 80
2,16431, Note_on_c, 0, 52, 70
2,16475, Note_on_c, 0, 72, 0
2,16491, Note_on_c, 0, 52, 0
2,16532, Note_on_c, 0, 55, 70
2,16567, Note_on_c, 0, 57, 0
2,16659, Note_on_c, 0, 72, 85
2,16663, Note_on_c, 0, 54, 75
2,16667, Note_on_c, 0, 50, 66
2,16669, Note_on_c, 0, 55, 0
2,16746, Note_on_c, 0, 54, 0
2,16888, Note_on_c, 0, 72, 0
2,16891, Note_on_c, 0, 62, 60
2,16892, Note_on_c, 0, 54, 82
2,16892, Note_on_c, 0, 70, 67
2,16911, Note_on_c, 0, 50, 0
2,16996, Note_on_c, 0, 70, 0
2,17002, Note_on_c, 0, 69, 73
2,17128, Note_on_c, 0, 55, 91
2,17136, Note_on_c, 0, 70, 74
2,17152, Note_on_c, 0, 54, 0
2,17163, Note_on_c, 0, 69, 0
2,17220, Note_on_c, 0, 62, 0
2,17259, Note_on_c, 0, 67, 72
2,17286, Note_on_c, 0, 70, 0
2,17310, Note_on_c, 0, 67, 0
2,17380, Note_on_c, 0, 67, 59
2,17384, Note_on_c, 0, 62, 59
2,17398, Note_on_c, 0, 70, 66
2,17451, Note_on_c, 0, 62, 0
2,17472, Note_on_c, 0, 64, 58
2,17500, Note_on_c, 0, 72, 71
2,17511, Note_on_c, 0, 67, 0
2,17512, Note_on_c, 0, 70, 0
2,17574, Note_on_c, 0, 64, 0
2,17605, Note_on_c, 0, 65, 62
2,17607, Note_on_c, 0, 55, 0
2,17615, Note_on_c, 0, 74, 75
2,17625, Note_on_c, 0, 72, 0
2,17680, Note_on_c, 0, 65, 0
2,17697, Note_on_c, 0, 64, 63
2,17723, Note_on_c, 0, 73, 77
2,17727, Note_on_c, 0, 74, 0
2,17741, Note_on_c, 0, 64, 0
2,17826, Note_on_c, 0, 74, 84
2,17836, Note_on_c, 0, 53, 85
2,17842, Note_on_c, 0, 65, 74
2,17850, Note_on_c, 0, 67, 67
2,17856, Note_on_c, 0, 73, 0
2,17869, Note_on_c, 0, 65, 0
2,17877, Note_on_c, 0, 67, 0
2,17900, Note_on_c, 0, 53, 0
2,17945, Note_on_c, 0, 74, 0
2,17948, Note_on_c, 0, 69, 74
2,18067, Note_on_c, 0, 74, 85
2,18075, Note_on_c, 0, 58, 89
2,18078, Note_on_c, 0, 69, 0
2,18080, Note_on_c, 0, 62, 90
2,18195, Note_on_c, 0, 69, 70
2,18296, Note_on_c, 0, 69, 0
2,18299, Note_on_c, 0, 67, 83
2,18329, Note_on_c, 0, 58, 0
2,18364, Note_on_c, 0, 74, 0
2,18401, Note_on_c, 0, 65, 78
2,18507, Note_on_c, 0, 67, 0
2,18527, Note_on_c, 0, 64, 69
2,18527, Note_on_c, 0, 65, 0
2,18528, Note_on_c, 0, 55, 88
2,18637, Note_on_c, 0, 67, 74
2,18701, Note_on_c, 0, 62, 0
2,18758, Note_on_c, 0, 69, 73
2,18773, Note_on_c, 0, 60, 68
2,18773, Note_on_c, 0, 67, 0
2,18863, Note_on_c, 0, 60, 0
2,18874, Note_on_c, 0, 70, 71
2,18882, Note_on_c, 0, 58, 67
2,18883, Note_on_c, 0, 55, 0
2,18897, Note_on_c, 0, 69, 0
2,18977, Note_on_c, 0, 64, 0
2,18985, Note_on_c, 0, 57, 77
2,18987, Note_on_c, 0, 72, 76
2,18988, Note_on_c, 0, 58, 0
2,19008, Note_on_c, 0, 70, 0
2,19022, Note_on_c, 0, 57, 0
2,19106, Note_on_c, 0, 70, 70
2,19109, Note_on_c, 0, 72, 0
2,19209, Note_on_c, 0, 52, 86
2,19215, Note_on_c, 0, 72, 84
2,19218, Note_on_c, 0, 55, 77
2,19242, Note_on_c, 0, 55, 0
2,19249, Note_on_c, 0, 70, 0
2,19253, Note_on_c, 0, 52, 0
2,19330, Note_on_c, 0, 67, 70
2,19337, Note_on_c, 0, 72, 0
2,19447, Note_on_c, 0, 57, 90
2,19455, Note_on_c, 0, 72, 83
2,19460, Note_on_c, 0, 60, 75
2,19464, Note_on_c, 0, 67, 0
2,19575, Note_on_c, 0, 67, 70
2,19674, Note_on_c, 0, 67, 0
2,19683, Note_on_c, 0, 65, 80
2,19719, Note_on_c, 0, 72, 0
2,19725, Note_on_c, 0, 57, 0
2,19783, Note_on_c, 0, 64, 72
2,19885, Note_on_c, 0, 65, 0
2,19902, Note_on_c, 0, 64, 0
2,19905, Note_on_c, 0, 62, 72
2,19908, Note_on_c, 0, 53, 91
2,20024, Note_on_c, 0, 65, 70
2,20135, Note_on_c, 0, 60, 0
2,20136, Note_on_c, 0, 65, 0
2,20141, Note_on_c, 0, 67, 72
2,20151, Note_on_c, 0, 58, 60
2,20238, Note_on_c, 0, 62, 0
2,20248, Note_on_c, 0, 58, 0
2,20265, Note_on_c, 0, 69, 73
2,20266, Note_on_c, 0, 57, 66
2,20273, Note_on_c, 0, 67, 0
2,20275, Note_on_c, 0, 53, 0
2,20350, Note_on_c, 0, 57, 0
2,20374, Note_on_c, 0, 55, 74
2,20379, Note_on_c, 0, 70, 75
2,20389, Note_on_c, 0, 69, 0
2,20412, Note_on_c, 0, 55, 0
2,20490, Note_on_c, 0, 70, 0
2,20497, Note_on_c, 0, 69, 72
2,20596, Note_on_c, 0, 69, 0
2,20604, Note_on_c, 0, 50, 80
2,20609, Note_on_c, 0, 70, 76
2,20613, Note_on_c, 0, 53, 71
2,20639, Note_on_c, 0, 53, 0
2,20645, Note_on_c, 0, 50, 0
2,20722, Note_on_c, 0, 65, 71
2,20785, Note_on_c, 0, 65, 0
2,20829, Note_on_c, 0, 55, 73
2,20832, Note_on_c, 0, 58, 72
2,20835, Note_on_c, 0, 64, 71
2,20874, Note_on_c, 0, 55, 0
2,20906, Note_on_c, 0, 70, 0
2,20948, Note_on_c, 0, 69, 67
2,21021, Note_on_c, 0, 69, 0
2,21065, Note_on_c, 0, 70, 65
2,21074, Note_on_c, 0, 55, 71
2,21089, Note_on_c, 0, 58, 0
2,21110, Note_on_c, 0, 55, 0
2,21110, Note_on_c, 0, 64, 0
2,21148, Note_on_c, 0, 70, 0
2,21181, Note_on_c, 0, 65, 72
2,21183, Note_on_c, 0, 69, 66
2,21235, Note_on_c, 0, 65, 0
2,21288, Note_on_c, 0, 55, 78
2,21300, Note_on_c, 0, 64, 72
2,21303, Note_on_c, 0, 67, 73
2,21309, Note_on_c, 0, 69, 0
2,21342, Note_on_c, 0, 55, 0
2,21394, Note_on_c, 0, 67, 0
2,21416, Note_on_c, 0, 65, 64
2,21515, Note_on_c, 0, 67, 72
2,21524, Note_on_c, 0, 55, 82
2,21537, Note_on_c, 0, 65, 0
2,21538, Note_on_c, 0, 64, 0
2,21573, Note_on_c, 0, 55, 0
2,21630, Note_on_c, 0, 62, 80
2,21642, Note_on_c, 0, 65, 79
2,21644, Note_on_c, 0, 67, 0
2,21689, Note_on_c, 0, 62, 0
2,21749, Note_on_c, 0, 55, 86
2,21750, Note_on_c, 0, 61, 76
2,21755, Note_on_c, 0, 64, 72
2,21759, Note_on_c, 0, 65, 0
2,21832, Note_on_c, 0, 64, 0
2,21848, Note_on_c, 0, 55, 0
2,21862, Note_on_c, 0, 62, 76
2,21909, Note_on_c, 0, 61, 0
2,21981, Note_on_c, 0, 55, 77
2,21982, Note_on_c, 0, 64, 80
2,21999, Note_on_c, 0, 62, 0
2,22019, Note_on_c, 0, 55, 0
2,22042, Note_on_c, 0, 64, 0
2,22090, Note_on_c, 0, 62, 87
2,22137, Note_on_c, 0, 62, 0
2,22204, Note_on_c, 0, 57, 75
2,22205, Note_on_c, 0, 61, 72
2,22209, Note_on_c, 0, 55, 69
2,22241, Note_on_c, 0, 61, 0
2,22437, Note_on_c, 0, 55, 0
2,22444, Note_on_c, 0, 69, 68
2,22447, Note_on_c, 0, 53, 59
2,22449, Note_on_c, 0, 57, 0
2,22484, Note_on_c, 0, 69, 0
2,22532, Note_on_c, 0, 53, 0
2,22545, Note_on_c, 0, 52, 60
2,22629, Note_on_c, 0, 52, 0
2,22676, Note_on_c, 0, 53, 58
2,22688, Note_on_c, 0, 62, 71
2,22724, Note_on_c, 0, 62, 0
2,22779, Note_on_c, 0, 53, 0
2,22798, Note_on_c, 0, 50, 53
2,22895, Note_on_c, 0, 50, 0
2,22903, Note_on_c, 0, 72, 68
2,22908, Note_on_c, 0, 51, 64
2,22946, Note_on_c, 0, 72, 0
2,22990, Note_on_c, 0, 51, 0
2,23011, Note_on_c, 0, 53, 60
2,23119, Note_on_c, 0, 53, 0
2,23128, Note_on_c, 0, 71, 78
2,23140, Note_on_c, 0, 55, 56
2,23230, Note_on_c, 0, 55, 0
2,23240, Note_on_c, 0, 71, 0
2,23240, Note_on_c, 0, 74, 77
2,23247, Note_on_c, 0, 53, 61
2,23332, Note_on_c, 0, 74, 0
2,23340, Note_on_c, 0, 53, 0
2,23355, Note_on_c, 0, 55, 67
2,23356, Note_on_c, 0, 77, 84
2,23391, Note_on_c, 0, 55, 0
2,23410, Note_on_c, 0, 77, 0
2,23465, Note_on_c, 0, 74, 75
2,23577, Note_on_c, 0, 75, 76
2,23583, Note_on_c, 0, 48, 61
2,23583, Note_on_c, 0, 74, 0
2,23684, Note_on_c, 0, 48, 0
2,23704, Note_on_c, 0, 47, 59
2,23807, Note_on_c, 0, 67, 62
2,23810, Note_on_c, 0, 47, 0
2,23818, Note_on_c, 0, 48, 63
2,23867, Note_on_c, 0, 67, 0
2,23887, Note_on_c, 0, 48, 0
2,23921, Note_on_c, 0, 50, 57
2,24017, Note_on_c, 0, 50, 0
2,24048, Note_on_c, 0, 51, 66
2,24060, Note_on_c, 0, 60, 76
2,24064, Note_on_c, 0, 75, 0
2,24118, Note_on_c, 0, 51, 0
2,24139, Note_on_c, 0, 60, 0
2,24168, Note_on_c, 0, 48, 67
2,24258, Note_on_c, 0, 48, 0
2,24270, Note_on_c, 0, 50, 67
2,24274, Note_on_c, 0, 70, 79
2,24308, Note_on_c, 0, 70, 0
2,24351, Note_on_c, 0, 50, 0
2,24376, Note_on_c, 0, 51, 68
2,24489, Note_on_c, 0, 51, 0
2,24493, Note_on_c, 0, 53, 67
2,24506, Note_on_c, 0, 69, 77
2,24584, Note_on_c, 0, 69, 0
2,24590, Note_on_c, 0, 53, 0
2,24614, Note_on_c, 0, 51, 61
2,24614, Note_on_c, 0, 72, 71
2,24707, Note_on_c, 0, 51, 0
2,24711, Note_on_c, 0, 53, 64
2,24721, Note_on_c, 0, 75, 83
2,24744, Note_on_c, 0, 53, 0
2,24746, Note_on_c, 0, 72, 0
2,24837, Note_on_c, 0, 81, 85
2,24941, Note_on_c, 0, 46, 77
2,24943, Note_on_c, 0, 82, 84
2,24969, Note_on_c, 0, 81, 0
2,24987, Note_on_c, 0, 46, 0
2,25064, Note_on_c, 0, 53, 82
2,25173, Note_on_c, 0, 74, 76
2,25177, Note_on_c, 0, 55, 80
2,25179, Note_on_c, 0, 53, 0
2,25182, Note_on_c, 0, 75, 0
2,25259, Note_on_c, 0, 82, 0
2,25280, Note_on_c, 0, 57, 79
2,25282, Note_on_c, 0, 81, 80
2,25288, Note_on_c, 0, 55, 0
2,25320, Note_on_c, 0, 74, 0
2,25351, Note_on_c, 0, 57, 0
2,25378, Note_on_c, 0, 58, 69
2,25400, Note_on_c, 0, 79, 80
2,25420, Note_on_c, 0, 81, 0
2,25488, Note_on_c, 0, 58, 0
2,25496, Note_on_c, 0, 57, 61
2,25512, Note_on_c, 0, 78, 80
2,25515, Note_on_c, 0, 79, 0
2,25605, Note_on_c, 0, 57, 0
2,25624, Note_on_c, 0, 58, 59
2,25634, Note_on_c, 0, 79, 74
2,25639, Note_on_c, 0, 78, 0
2,25727, Note_on_c, 0, 58, 0
2,25755, Note_on_c, 0, 78, 71
2,25760, Note_on_c, 0, 79, 0
2,25860, Note_on_c, 0, 78, 0
2,25866, Note_on_c, 0, 79, 72
2,25964, Note_on_c, 0, 52, 69
2,26066, Note_on_c, 0, 52, 0
2,26073, Note_on_c, 0, 54, 70
2,26157, Note_on_c, 0, 54, 0
2,26170, Note_on_c, 0, 74, 68
2,26187, Note_on_c, 0, 55, 60
2,26268, Note_on_c, 0, 55, 0
2,26277, Note_on_c, 0, 74, 0
2,26296, Note_on_c, 0, 72, 71
2,26300, Note_on_c, 0, 57, 62
2,26376, Note_on_c, 0, 57, 0
2,26398, Note_on_c, 0, 72, 0
2,26403, Note_on_c, 0, 55, 59
2,26410, Note_on_c, 0, 70, 69
2,26528, Note_on_c, 0, 72, 75
2,26529, Note_on_c, 0, 55, 0
2,26529, Note_on_c, 0, 70, 0
2,26532, Note_on_c, 0, 57, 68
2,26570, Note_on_c, 0, 57, 0
2,26625, Note_on_c, 0, 72, 0
2,26633, Note_on_c, 0, 70, 80
2,26758, Note_on_c, 0, 62, 88
2,26763, Note_on_c, 0, 72, 70
2,26764, Note_on_c, 0, 78, 77
2,26790, Note_on_c, 0, 79, 0
2,26802, Note_on_c, 0, 70, 0
2,26873, Note_on_c, 0, 50, 71
2,26895, Note_on_c, 0, 72, 0
2,26979, Note_on_c, 0, 52, 64
2,26981, Note_on_c, 0, 50, 0
2,27072, Note_on_c, 0, 52, 0
2,27091, Note_on_c, 0, 54, 71
2,27106, Note_on_c, 0, 81, 64
2,27122, Note_on_c, 0, 72, 73
2,27139, Note_on_c, 0, 81, 0
2,27142, Note_on_c, 0, 78, 0
2,27179, Note_on_c, 0, 72, 0
2,27234, Note_on_c, 0, 74, 72
2,27238, Note_on_c, 0, 55, 66
2,27238, Note_on_c, 0, 70, 70
2,27254, Note_on_c, 0, 54, 0
2,27269, Note_on_c, 0, 62, 0
2,27328, Note_on_c, 0, 54, 58
2,27338, Note_on_c, 0, 55, 0
2,27340, Note_on_c, 0, 70, 0
2,27352, Note_on_c, 0, 69, 69
2,27435, Note_on_c, 0, 54, 0
2,27449, Note_on_c, 0, 69, 0
2,27463, Note_on_c, 0, 58, 91
2,27466, Note_on_c, 0, 55, 71
2,27481, Note_on_c, 0, 70, 67
2,27502, Note_on_c, 0, 55, 0
2,27508, Note_on_c, 0, 58, 0
2,27574, Note_on_c, 0, 70, 0
2,27589, Note_on_c, 0, 69, 68
2,27595, Note_on_c, 0, 72, 71
2,27647, Note_on_c, 0, 74, 0
2,27662, Note_on_c, 0, 69, 0
2,27699, Note_on_c, 0, 55, 53
2,27704, Note_on_c, 0, 70, 76
2,27706, Note_on_c, 0, 63, 90
2,27725, Note_on_c, 0, 67, 67
2,27738, Note_on_c, 0, 72, 0
2,27799, Note_on_c, 0, 67, 0
2,27821, Note_on_c, 0, 65, 70
2,27937, Note_on_c, 0, 48, 68
2,27937, Note_on_c, 0, 67, 65
2,27941, Note_on_c, 0, 65, 0
2,27954, Note_on_c, 0, 63, 0
2,27973, Note_on_c, 0, 55, 0
2,27980, Note_on_c, 0, 48, 0
2,28021, Note_on_c, 0, 67, 0
2,28044, Note_on_c, 0, 65, 71
2,28119, Note_on_c, 0, 65, 0
2,28141, Note_on_c, 0, 60, 87
2,28157, Note_on_c, 0, 63, 63
2,28190, Note_on_c, 0, 63, 0
2,28201, Note_on_c, 0, 65, 67
2,28251, Note_on_c, 0, 48, 69
2,28266, Note_on_c, 0, 63, 68
2,28284, Note_on_c, 0, 65, 0
2,28347, Note_on_c, 0, 48, 0
2,28359, Note_on_c, 0, 50, 57
2,28423, Note_on_c, 0, 63, 0
2,28491, Note_on_c, 0, 50, 0
2,28503, Note_on_c, 0, 51, 71
2,28518, Note_on_c, 0, 60, 0
2,28524, Note_on_c, 0, 62, 75
2,28536, Note_on_c, 0, 70, 0
2,28562, Note_on_c, 0, 62, 0
2,28607, Note_on_c, 0, 51, 0
2,28628, Note_on_c, 0, 53, 72
2,28631, Note_on_c, 0, 60, 75
2,28637, Note_on_c, 0, 69, 76
2,28749, Note_on_c, 0, 53, 0
2,28752, Note_on_c, 0, 51, 66
2,28805, Note_on_c, 0, 60, 0
2,28863, Note_on_c, 0, 57, 90
2,28873, Note_on_c, 0, 53, 65
2,28888, Note_on_c, 0, 51, 0
2,28903, Note_on_c, 0, 57, 0
2,28905, Note_on_c, 0, 53, 0
2,29112, Note_on_c, 0, 62, 85
2,29115, Note_on_c, 0, 65, 76
2,29122, Note_on_c, 0, 69, 0
2,29128, Note_on_c, 0, 53, 58
2,29145, Note_on_c, 0, 54, 44
2,29181, Note_on_c, 0, 54, 0
2,29227, Note_on_c, 0, 69, 76
2,29275, Note_on_c, 0, 62, 0
2,29334, Note_on_c, 0, 70, 75
2,29336, Note_on_c, 0, 69, 0
2,29350, Note_on_c, 0, 46, 69
2,29372, Note_on_c, 0, 53, 0
2,29390, Note_on_c, 0, 65, 0
2,29405, Note_on_c, 0, 46, 0
2,29451, Note_on_c, 0, 69, 77
2,29509, Note_on_c, 0, 70, 0
2,29550, Note_on_c, 0, 58, 83
2,29560, Note_on_c, 0, 67, 75
2,29564, Note_on_c, 0, 62, 73
2,29585, Note_on_c, 0, 69, 0
2,29680, Note_on_c, 0, 46, 71
2,29795, Note_on_c, 0, 46, 0
2,29815, Note_on_c, 0, 48, 63
2,29815, Note_on_c, 0, 58, 0
2,29907, Note_on_c, 0, 48, 0
2,29909, Note_on_c, 0, 50, 70
2,29912, Note_on_c, 0, 66, 66
2,29915, Note_on_c, 0, 67, 0
2,30022, Note_on_c, 0, 50, 0
2,30023, Note_on_c, 0, 67, 78
2,30025, Note_on_c, 0, 62, 0
2,30032, Note_on_c, 0, 51, 78
2,30041, Note_on_c, 0, 66, 0
2,30153, Note_on_c, 0, 51, 0
2,30154, Note_on_c, 0, 50, 72
2,30279, Note_on_c, 0, 50, 0
2,30282, Note_on_c, 0, 51, 80
2,30285, Note_on_c, 0, 55, 89
2,30351, Note_on_c, 0, 51, 0
2,30377, Note_on_c, 0, 55, 0
2,30381, Note_on_c, 0, 51, 26
2,30514, Note_on_c, 0, 60, 89
2,30559, Note_on_c, 0, 60, 0
2,30609, Note_on_c, 0, 51, 0
2,30620, Note_on_c, 0, 50, 62
2,30712, Note_on_c, 0, 50, 0
2,30734, Note_on_c, 0, 60, 79
2,30735, Note_on_c, 0, 51, 68
2,30817, Note_on_c, 0, 60, 0
2,30819, Note_on_c, 0, 51, 0
2,30835, Note_on_c, 0, 70, 77
2,30850, Note_on_c, 0, 50, 67
2,30877, Note_on_c, 0, 67, 0
2,30955, Note_on_c, 0, 70, 0
2,30958, Note_on_c, 0, 48, 71
2,30959, Note_on_c, 0, 50, 0
2,30961, Note_on_c, 0, 69, 80
2,30968, Note_on_c, 0, 60, 73
2,31014, Note_on_c, 0, 60, 0
2,31073, Note_on_c, 0, 46, 67
2,31076, Note_on_c, 0, 48, 0
2,31197, Note_on_c, 0, 46, 0
2,31199, Note_on_c, 0, 48, 75
2,31212, Note_on_c, 0, 60, 89
2,31309, Note_on_c, 0, 46, 75
2,31311, Note_on_c, 0, 48, 0
2,31313, Note_on_c, 0, 60, 0
2,31314, Note_on_c, 0, 72, 88
2,31341, Note_on_c, 0, 69, 0
2,31414, Note_on_c, 0, 46, 0
2,31418, Note_on_c, 0, 72, 0
2,31420, Note_on_c, 0, 45, 78
2,31429, Note_on_c, 0, 60, 89
2,31437, Note_on_c, 0, 66, 83
2,31527, Note_on_c, 0, 43, 77
2,31528, Note_on_c, 0, 45, 0
2,31588, Note_on_c, 0, 60, 0
2,31646, Note_on_c, 0, 43, 0
2,31656, Note_on_c, 0, 45, 75
2,31677, Note_on_c, 0, 60, 91
2,31680, Note_on_c, 0, 66, 0
2,31777, Note_on_c, 0, 45, 0
2,31784, Note_on_c, 0, 43, 63
2,31797, Note_on_c, 0, 69, 80
2,31902, Note_on_c, 0, 42, 71
2,31904, Note_on_c, 0, 43, 0
2,31914, Note_on_c, 0, 69, 0
2,31923, Note_on_c, 0, 62, 64
2,31940, Note_on_c, 0, 42, 0
2,32086, Note_on_c, 0, 60, 0
2,32149, Note_on_c, 0, 50, 66
2,32167, Note_on_c, 0, 58, 64
2,32177, Note_on_c, 0, 50, 0
2,32237, Note_on_c, 0, 58, 0
2,32276, Note_on_c, 0, 57, 38
2,32289, Note_on_c, 0, 66, 59
2,32328, Note_on_c, 0, 57, 0
2,32353, Note_on_c, 0, 62, 0
2,32380, Note_on_c, 0, 43, 60
2,32386, Note_on_c, 0, 58, 45
2,32389, Note_on_c, 0, 67, 64
2,32416, Note_on_c, 0, 66, 0
2,32418, Note_on_c, 0, 43, 0
2,32508, Note_on_c, 0, 67, 0
2,32518, Note_on_c, 0, 58, 0
2,32525, Note_on_c, 0, 55, 63
2,32629, Note_on_c, 0, 53, 43
2,32631, Note_on_c, 0, 55, 0
2,32640, Note_on_c, 0, 57, 63
2,32662, Note_on_c, 0, 53, 0
2,32736, Note_on_c, 0, 57, 0
2,32755, Note_on_c, 0, 58, 57
2,32834, Note_on_c, 0, 58, 0
2,32846, Note_on_c, 0, 52, 69
2,32860, Note_on_c, 0, 60, 67
2,32872, Note_on_c, 0, 52, 0
2,32954, Note_on_c, 0, 60, 0
2,32963, Note_on_c, 0, 58, 65
2,33049, Note_on_c, 0, 58, 0
2,33078, Note_on_c, 0, 60, 70
2,33081, Note_on_c, 0, 48, 70
2,33111, Note_on_c, 0, 48, 0
2,33194, Note_on_c, 0, 70, 62
2,33241, Note_on_c, 0, 70, 0
2,33295, Note_on_c, 0, 53, 74
2,33328, Note_on_c, 0, 53, 0
2,33407, Note_on_c, 0, 60, 0
2,33417, Note_on_c, 0, 70, 62
2,33499, Note_on_c, 0, 70, 0
2,33520, Note_on_c, 0, 57, 65
2,33522, Note_on_c, 0, 69, 65
2,33531, Note_on_c, 0, 65, 52
2,33554, Note_on_c, 0, 57, 0
2,33606, Note_on_c, 0, 69, 0
2,33626, Note_on_c, 0, 65, 0
2,33642, Note_on_c, 0, 64, 45
2,33646, Note_on_c, 0, 67, 56
2,33743, Note_on_c, 0, 64, 0
2,33749, Note_on_c, 0, 67, 0
2,33750, Note_on_c, 0, 50, 69
2,33762, Note_on_c, 0, 69, 58
2,33768, Note_on_c, 0, 65, 58
2,33785, Note_on_c, 0, 50, 0
2,33801, Note_on_c, 0, 69, 0
2,33869, Note_on_c, 0, 69, 62
2,33875, Note_on_c, 0, 65, 0
2,33985, Note_on_c, 0, 71, 73
2,33988, Note_on_c, 0, 60, 72
2,33993, Note_on_c, 0, 69, 0
2,34022, Note_on_c, 0, 60, 0
2,34080, Note_on_c, 0, 71, 0
2,34114, Note_on_c, 0, 72, 63
2,34224, Note_on_c, 0, 74, 77
2,34227, Note_on_c, 0, 59, 69
2,34229, Note_on_c, 0, 72, 0
2,34255, Note_on_c, 0, 59, 0
2,34331, Note_on_c, 0, 74, 0
2,34343, Note_on_c, 0, 72, 72
2,34445, Note_on_c, 0, 55, 66
2,34451, Note_on_c, 0, 74, 73
2,34455, Note_on_c, 0, 72, 0
2,34474, Note_on_c, 0, 55, 0
2,34526, Note_on_c, 0, 74, 0
2,34565, Note_on_c, 0, 65, 67
2,34608, Note_on_c, 0, 65, 0
2,34670, Note_on_c, 0, 74, 69
2,34673, Note_on_c, 0, 60, 64
2,34705, Note_on_c, 0, 60, 0
2,34770, Note_on_c, 0, 65, 72
2,34780, Note_on_c, 0, 74, 0
2,34863, Note_on_c, 0, 65, 0
2,34890, Note_on_c, 0, 72, 71
2,34909, Note_on_c, 0, 55, 60
2,34909, Note_on_c, 0, 63, 60
2,34939, Note_on_c, 0, 55, 0
2,34997, Note_on_c, 0, 72, 0
2,35000, Note_on_c, 0, 63, 0
2,35021, Note_on_c, 0, 62, 53
2,35021, Note_on_c, 0, 71, 57
2,35113, Note_on_c, 0, 71, 0
2,35114, Note_on_c, 0, 72, 73
2,35119, Note_on_c, 0, 62, 0
2,35122, Note_on_c, 0, 48, 61
2,35130, Note_on_c, 0, 63, 56
2,35155, Note_on_c, 0, 48, 0
2,35199, Note_on_c, 0, 63, 0
2,35235, Note_on_c, 0, 60, 64
2,35336, Note_on_c, 0, 60, 0
2,35342, Note_on_c, 0, 57, 58
2,35344, Note_on_c, 0, 66, 68
2,35364, Note_on_c, 0, 57, 0
2,35410, Note_on_c, 0, 72, 0
2,35456, Note_on_c, 0, 67, 69
2,35468, Note_on_c, 0, 66, 0
2,35582, Note_on_c, 0, 54, 66
2,35584, Note_on_c, 0, 67, 0
2,35586, Note_on_c, 0, 69, 70
2,35608, Note_on_c, 0, 54, 0
2,35651, Note_on_c, 0, 69, 0
2,35698, Note_on_c, 0, 67, 65
2,35806, Note_on_c, 0, 69, 64
2,35809, Note_on_c, 0, 67, 0
2,35817, Note_on_c, 0, 50, 62
2,35853, Note_on_c, 0, 50, 0
2,35923, Note_on_c, 0, 72, 65
2,35929, Note_on_c, 0, 69, 0
2,36036, Note_on_c, 0, 72, 0
2,36037, Note_on_c, 0, 55, 66
2,36043, Note_on_c, 0, 69, 70
2,36067, Note_on_c, 0, 55, 0
2,36152, Note_on_c, 0, 72, 66
2,36251, Note_on_c, 0, 67, 68
2,36253, Note_on_c, 0, 72, 0
2,36255, Note_on_c, 0, 70, 72
2,36256, Note_on_c, 0, 58, 65
2,36257, Note_on_c, 0, 69, 0
2,36283, Note_on_c, 0, 58, 0
2,36371, Note_on_c, 0, 70, 0
2,36382, Note_on_c, 0, 66, 70
2,36382, Note_on_c, 0, 67, 0
2,36382, Note_on_c, 0, 69, 66
2,36487, Note_on_c, 0, 52, 71
2,36492, Note_on_c, 0, 70, 76
2,36497, Note_on_c, 0, 67, 75
2,36502, Note_on_c, 0, 66, 0
2,36520, Note_on_c, 0, 52, 0
2,36529, Note_on_c, 0, 69, 0
2,36590, Note_on_c, 0, 70, 0
2,36605, Note_on_c, 0, 74, 81
2,36700, Note_on_c, 0, 74, 0
2,36713, Note_on_c, 0, 62, 79
2,36719, Note_on_c, 0, 76, 76
2,36749, Note_on_c, 0, 62, 0
2,36761, Note_on_c, 0, 67, 0
2,36828, Note_on_c, 0, 77, 82
2,36850, Note_on_c, 0, 76, 0
2,36948, Note_on_c, 0, 79, 79
2,36956, Note_on_c, 0, 61, 73
2,36970, Note_on_c, 0, 77, 0
2,36988, Note_on_c, 0, 61, 0
2,37064, Note_on_c, 0, 77, 79
2,37074, Note_on_c, 0, 79, 0
2,37186, Note_on_c, 0, 79, 73
2,37189, Note_on_c, 0, 77, 0
2,37192, Note_on_c, 0, 57, 65
2,37233, Note_on_c, 0, 57, 0
2,37283, Note_on_c, 0, 61, 60
2,37382, Note_on_c, 0, 61, 0
2,37419, Note_on_c, 0, 62, 52
2,37497, Note_on_c, 0, 62, 0
2,37524, Note_on_c, 0, 61, 50
2,37605, Note_on_c, 0, 61, 0
2,37621, Note_on_c, 0, 79, 0
2,37633, Note_on_c, 0, 62, 51
2,37636, Note_on_c, 0, 77, 66
2,37700, Note_on_c, 0, 62, 0
2,37749, Note_on_c, 0, 76, 63
2,37750, Note_on_c, 0, 77, 0
2,37753, Note_on_c, 0, 57, 43
2,37812, Note_on_c, 0, 57, 0
2,37868, Note_on_c, 0, 69, 70
2,37868, Note_on_c, 0, 76, 0
2,37877, Note_on_c, 0, 50, 57
2,37881, Note_on_c, 0, 77, 66
2,37963, Note_on_c, 0, 77, 0
2,38002, Note_on_c, 0, 74, 66
2,38083, Note_on_c, 0, 50, 0
2,38098, Note_on_c, 0, 74, 0
2,38104, Note_on_c, 0, 62, 56
2,38110, Note_on_c, 0, 77, 69
2,38173, Note_on_c, 0, 62, 0
2,38177, Note_on_c, 0, 69, 0
2,38220, Note_on_c, 0, 79, 62
2,38225, Note_on_c, 0, 64, 56
2,38225, Note_on_c, 0, 77, 0
2,38272, Note_on_c, 0, 64, 0
2,38339, Note_on_c, 0, 65, 58
2,38340, Note_on_c, 0, 79, 0
2,38344, Note_on_c, 0, 81, 62
2,38369, Note_on_c, 0, 65, 0
2,38442, Note_on_c, 0, 81, 0
2,38458, Note_on_c, 0, 79, 63
2,38559, Note_on_c, 0, 81, 68
2,38560, Note_on_c, 0, 65, 82
2,38576, Note_on_c, 0, 62, 59
2,38594, Note_on_c, 0, 79, 0
2,38599, Note_on_c, 0, 62, 0
2,38599, Note_on_c, 0, 65, 0
2,38604, Note_on_c, 0, 81, 0
2,38800, Note_on_c, 0, 70, 78
2,38803, Note_on_c, 0, 81, 70
2,38816, Note_on_c, 0, 67, 62
2,38900, Note_on_c, 0, 67, 0
2,38940, Note_on_c, 0, 55, 52
2,39024, Note_on_c, 0, 55, 0
2,39033, Note_on_c, 0, 81, 0
2,39042, Note_on_c, 0, 74, 64
2,39073, Note_on_c, 0, 57, 46
2,39140, Note_on_c, 0, 57, 0
2,39150, Note_on_c, 0, 70, 0
2,39154, Note_on_c, 0, 74, 0
2,39180, Note_on_c, 0, 58, 55
2,39266, Note_on_c, 0, 67, 80
2,39279, Note_on_c, 0, 58, 0
2,39293, Note_on_c, 0, 60, 61
2,39382, Note_on_c, 0, 60, 0
2,39397, Note_on_c, 0, 74, 61
2,39407, Note_on_c, 0, 55, 49
2,39474, Note_on_c, 0, 55, 0
2,39500, Note_on_c, 0, 74, 0
2,39505, Note_on_c, 0, 76, 67
2,39527, Note_on_c, 0, 60, 54
2,39603, Note_on_c, 0, 60, 0
2,39612, Note_on_c, 0, 77, 68
2,39617, Note_on_c, 0, 67, 0
2,39632, Note_on_c, 0, 76, 0
2,39639, Note_on_c, 0, 62, 49
2,39722, Note_on_c, 0, 62, 0
2,39727, Note_on_c, 0, 79, 72
2,39729, Note_on_c, 0, 64, 75
2,39742, Note_on_c, 0, 77, 0
2,39755, Note_on_c, 0, 64, 0
2,39841, Note_on_c, 0, 79, 0
2,39856, Note_on_c, 0, 77, 68
2,39962, Note_on_c, 0, 79, 75
2,39967, Note_on_c, 0, 64, 80
2,39973, Note_on_c, 0, 60, 68
2,39996, Note_on_c, 0, 77, 0
2,39998, Note_on_c, 0, 64, 0
2,40002, Note_on_c, 0, 60, 0
2,40011, Note_on_c, 0, 79, 0
2,40205, Note_on_c, 0, 69, 81
2,40212, Note_on_c, 0, 65, 70
2,40212, Note_on_c, 0, 79, 73
2,40292, Note_on_c, 0, 65, 0
2,40343, Note_on_c, 0, 53, 54
2,40415, Note_on_c, 0, 53, 0
2,40439, Note_on_c, 0, 72, 71
2,40440, Note_on_c, 0, 55, 55
2,40458, Note_on_c, 0, 79, 0
2,40510, Note_on_c, 0, 69, 0
2,40518, Note_on_c, 0, 55, 0
2,40548, Note_on_c, 0, 72, 0
2,40552, Note_on_c, 0, 57, 61
2,40647, Note_on_c, 0, 57, 0
2,40675, Note_on_c, 0, 58, 63
2,40678, Note_on_c, 0, 65, 82
2,40779, Note_on_c, 0, 58, 0
2,40785, Note_on_c, 0, 72, 74
2,40788, Note_on_c, 0, 53, 59
2,40877, Note_on_c, 0, 53, 0
2,40891, Note_on_c, 0, 72, 0
2,40895, Note_on_c, 0, 74, 68
2,40908, Note_on_c, 0, 58, 56
2,40999, Note_on_c, 0, 58, 0
2,41008, Note_on_c, 0, 76, 65
2,41029, Note_on_c, 0, 60, 62
2,41075, Note_on_c, 0, 65, 0
2,41076, Note_on_c, 0, 74, 0
2,41116, Note_on_c, 0, 77, 71
2,41121, Note_on_c, 0, 60, 0
2,41121, Note_on_c, 0, 76, 0
2,41141, Note_on_c, 0, 62, 71
2,41222, Note_on_c, 0, 62, 0
2,41237, Note_on_c, 0, 76, 71
2,41237, Note_on_c, 0, 77, 0
2,41243, Note_on_c, 0, 60, 71
2,41336, Note_on_c, 0, 60, 0
2,41344, Note_on_c, 0, 77, 83
2,41347, Note_on_c, 0, 62, 84
2,41356, Note_on_c, 0, 58, 64
2,41387, Note_on_c, 0, 76, 0
2,41424, Note_on_c, 0, 62, 0
2,41453, Note_on_c, 0, 58, 0
2,41464, Note_on_c, 0, 57, 65
2,41563, Note_on_c, 0, 57, 0
2,41579, Note_on_c, 0, 58, 67
2,41580, Note_on_c, 0, 67, 84
2,41629, Note_on_c, 0, 67, 0
2,41644, Note_on_c, 0, 58, 0
2,41708, Note_on_c, 0, 62, 50
2,41797, Note_on_c, 0, 77, 0
2,41799, Note_on_c, 0, 62, 0
2,41807, Note_on_c, 0, 67, 72
2,41830, Note_on_c, 0, 61, 49
2,41883, Note_on_c, 0, 67, 0
2,41901, Note_on_c, 0, 61, 0
2,41918, Note_on_c, 0, 77, 67
2,41940, Note_on_c, 0, 62, 55
2,42017, Note_on_c, 0, 62, 0
2,42019, Note_on_c, 0, 77, 0
2,42038, Note_on_c, 0, 76, 66
2,42041, Note_on_c, 0, 55, 58
2,42047, Note_on_c, 0, 67, 60
2,42088, Note_on_c, 0, 67, 0
2,42106, Note_on_c, 0, 55, 0
2,42149, Note_on_c, 0, 74, 66
2,42151, Note_on_c, 0, 76, 0
2,42154, Note_on_c, 0, 58, 65
2,42249, Note_on_c, 0, 58, 0
2,42256, Note_on_c, 0, 74, 0
2,42273, Note_on_c, 0, 57, 61
2,42277, Note_on_c, 0, 76, 69
2,42280, Note_on_c, 0, 67, 81
2,42361, Note_on_c, 0, 67, 0
2,42368, Note_on_c, 0, 57, 0
2,42377, Note_on_c, 0, 74, 75
2,42378, Note_on_c, 0, 76, 0
2,42387, Note_on_c, 0, 58, 63
2,42478, Note_on_c, 0, 58, 0
2,42496, Note_on_c, 0, 74, 0
2,42503, Note_on_c, 0, 52, 64
2,42506, Note_on_c, 0, 67, 81
2,42509, Note_on_c, 0, 73, 76
2,42586, Note_on_c, 0, 52, 0
2,42592, Note_on_c, 0, 73, 0
2,42604, Note_on_c, 0, 74, 79
2,42609, Note_on_c, 0, 64, 71
2,42637, Note_on_c, 0, 67, 0
2,42686, Note_on_c, 0, 74, 0
2,42720, Note_on_c, 0, 64, 0
2,42729, Note_on_c, 0, 61, 65
2,42731, Note_on_c, 0, 76, 80
2,42736, Note_on_c, 0, 67, 80
2,42799, Note_on_c, 0, 61, 0
2,42799, Note_on_c, 0, 67, 0
2,42835, Note_on_c, 0, 57, 67
2,42923, Note_on_c, 0, 57, 0
2,42954, Note_on_c, 0, 67, 85
2,42961, Note_on_c, 0, 62, 63
2,43035, Note_on_c, 0, 62, 0
2,43057, Note_on_c, 0, 50, 71
2,43136, Note_on_c, 0, 67, 0
2,43160, Note_on_c, 0, 50, 0
2,43181, Note_on_c, 0, 53, 66
2,43190, Note_on_c, 0, 65, 74
2,43198, Note_on_c, 0, 74, 79
2,43240, Note_on_c, 0, 65, 0
2,43240, Note_on_c, 0, 76, 0
2,43273, Note_on_c, 0, 53, 0
2,43286, Note_on_c, 0, 74, 0
2,43291, Note_on_c, 0, 57, 70
2,43387, Note_on_c, 0, 57, 0
2,43410, Note_on_c, 0, 77, 91
2,43424, Note_on_c, 0, 62, 67
2,43525, Note_on_c, 0, 62, 0
2,43526, Note_on_c, 0, 69, 73
2,43551, Note_on_c, 0, 60, 56
2,43600, Note_on_c, 0, 60, 0
2,43634, Note_on_c, 0, 70, 71
2,43637, Note_on_c, 0, 69, 0
2,43656, Note_on_c, 0, 62, 54
2,43713, Note_on_c, 0, 77, 0
2,43743, Note_on_c, 0, 62, 0
2,43746, Note_on_c, 0, 72, 77
2,43756, Note_on_c, 0, 60, 54
2,43767, Note_on_c, 0, 70, 0
2,43849, Note_on_c, 0, 60, 0
2,43860, Note_on_c, 0, 58, 67
2,43867, Note_on_c, 0, 74, 78
2,43870, Note_on_c, 0, 72, 0
2,43938, Note_on_c, 0, 58, 0
2,43940, Note_on_c, 0, 74, 0
2,43968, Note_on_c, 0, 72, 80
2,43970, Note_on_c, 0, 62, 66
2,44089, Note_on_c, 0, 62, 0
2,44099, Note_on_c, 0, 55, 67
2,44102, Note_on_c, 0, 74, 93
2,44103, Note_on_c, 0, 72, 0
2,44142, Note_on_c, 0, 74, 0
2,44171, Note_on_c, 0, 55, 0
2,44200, Note_on_c, 0, 58, 67
2,44326, Note_on_c, 0, 79, 96
2,44328, Note_on_c, 0, 58, 0
2,44332, Note_on_c, 0, 74, 84
2,44335, Note_on_c, 0, 51, 71
2,44439, Note_on_c, 0, 51, 0
2,44446, Note_on_c, 0, 55, 65
2,44554, Note_on_c, 0, 55, 0
2,44568, Note_on_c, 0, 67, 84
2,44575, Note_on_c, 0, 57, 72
2,44588, Note_on_c, 0, 79, 0
2,44609, Note_on_c, 0, 74, 0
2,44628, Note_on_c, 0, 67, 0
2,44672, Note_on_c, 0, 57, 0
2,44677, Note_on_c, 0, 58, 63
2,44787, Note_on_c, 0, 58, 0
2,44801, Note_on_c, 0, 75, 96
2,44805, Note_on_c, 0, 60, 72
2,44888, Note_on_c, 0, 60, 0
2,44920, Note_on_c, 0, 58, 62
2,44922, Note_on_c, 0, 67, 62
2,45004, Note_on_c, 0, 58, 0
2,45028, Note_on_c, 0, 60, 65
2,45035, Note_on_c, 0, 69, 79
2,45047, Note_on_c, 0, 67, 0
2,45051, Note_on_c, 0, 75, 0
2,45139, Note_on_c, 0, 60, 0
2,45141, Note_on_c, 0, 58, 60
2,45154, Note_on_c, 0, 70, 76
2,45172, Note_on_c, 0, 69, 0
2,45225, Note_on_c, 0, 58, 0
2,45230, Note_on_c, 0, 57, 69
2,45232, Note_on_c, 0, 70, 0
2,45250, Note_on_c, 0, 72, 84
2,45327, Note_on_c, 0, 57, 0
2,45341, Note_on_c, 0, 60, 66
2,45357, Note_on_c, 0, 72, 0
2,45383, Note_on_c, 0, 70, 48
2,45420, Note_on_c, 0, 70, 0
2,45450, Note_on_c, 0, 60, 0
2,45465, Note_on_c, 0, 53, 69
2,45468, Note_on_c, 0, 72, 97
2,45509, Note_on_c, 0, 72, 0
2,45549, Note_on_c, 0, 53, 0
2,45578, Note_on_c, 0, 57, 70
2,45699, Note_on_c, 0, 77, 100
2,45705, Note_on_c, 0, 57, 0
2,45707, Note_on_c, 0, 72, 85
2,45708, Note_on_c, 0, 50, 55
2,45808, Note_on_c, 0, 50, 0
2,45821, Note_on_c, 0, 53, 63
2,45912, Note_on_c, 0, 53, 0
2,45929, Note_on_c, 0, 77, 0
2,45933, Note_on_c, 0, 55, 64
2,45947, Note_on_c, 0, 65, 81
2,46009, Note_on_c, 0, 72, 0
2,46012, Note_on_c, 0, 55, 0
2,46026, Note_on_c, 0, 65, 0
2,46047, Note_on_c, 0, 57, 68
2,46164, Note_on_c, 0, 74, 90
2,46165, Note_on_c, 0, 57, 0
2,46169, Note_on_c, 0, 58, 71
2,46288, Note_on_c, 0, 65, 70
2,46398, Note_on_c, 0, 67, 77
2,46418, Note_on_c, 0, 65, 0
2,46440, Note_on_c, 0, 58, 0
2,46440, Note_on_c, 0, 74, 0
2,46444, Note_on_c, 0, 57, 70
2,46510, Note_on_c, 0, 69, 80
2,46545, Note_on_c, 0, 67, 0
2,46592, Note_on_c, 0, 57, 0
2,46603, Note_on_c, 0, 55, 62
2,46609, Note_on_c, 0, 70, 80
2,46630, Note_on_c, 0, 69, 0
2,46700, Note_on_c, 0, 55, 0
2,46719, Note_on_c, 0, 70, 0
2,46725, Note_on_c, 0, 58, 69
2,46725, Note_on_c, 0, 69, 77
2,46820, Note_on_c, 0, 58, 0
2,46824, Note_on_c, 0, 70, 90
2,46833, Note_on_c, 0, 51, 77
2,46837, Note_on_c, 0, 69, 0
2,46912, Note_on_c, 0, 51, 0
2,46951, Note_on_c, 0, 55, 53
2,47037, Note_on_c, 0, 55, 0
2,47056, Note_on_c, 0, 48, 67
2,47058, Note_on_c, 0, 75, 81
2,47141, Note_on_c, 0, 48, 0
2,47158, Note_on_c, 0, 75, 0
2,47163, Note_on_c, 0, 55, 66
2,47250, Note_on_c, 0, 55, 0
2,47281, Note_on_c, 0, 75, 72
2,47292, Note_on_c, 0, 70, 0
2,47297, Note_on_c, 0, 57, 57
2,47382, Note_on_c, 0, 57, 0
2,47389, Note_on_c, 0, 75, 0
2,47406, Note_on_c, 0, 58, 52
2,47406, Note_on_c, 0, 70, 68
2,47492, Note_on_c, 0, 58, 0
2,47508, Note_on_c, 0, 70, 0
2,47514, Note_on_c, 0, 75, 77
2,47524, Note_on_c, 0, 60, 64
2,47533, Note_on_c, 0, 69, 62
2,47608, Note_on_c, 0, 60, 0
2,47611, Note_on_c, 0, 69, 0
2,47627, Note_on_c, 0, 75, 0
2,47635, Note_on_c, 0, 58, 55
2,47636, Note_on_c, 0, 67, 67
2,47713, Note_on_c, 0, 67, 0
2,47719, Note_on_c, 0, 58, 0
2,47741, Note_on_c, 0, 69, 79
2,47744, Note_on_c, 0, 75, 79
2,47746, Note_on_c, 0, 60, 62
2,47795, Note_on_c, 0, 69, 0
2,47832, Note_on_c, 0, 60, 0
2,47859, Note_on_c, 0, 58, 62
2,47869, Note_on_c, 0, 67, 72
2,47876, Note_on_c, 0, 75, 0
2,47933, Note_on_c, 0, 67, 0
2,47958, Note_on_c, 0, 58, 0
2,47973, Note_on_c, 0, 57, 72
2,47980, Note_on_c, 0, 65, 78
2,47980, Note_on_c, 0, 75, 86
2,48034, Note_on_c, 0, 75, 0
2,48060, Note_on_c, 0, 57, 0
2,48077, Note_on_c, 0, 53, 77
2,48190, Note_on_c, 0, 53, 0
2,48200, Note_on_c, 0, 55, 69
2,48213, Note_on_c, 0, 75, 89
2,48315, Note_on_c, 0, 55, 0
2,48324, Note_on_c, 0, 57, 70
2,48409, Note_on_c, 0, 57, 0
2,48434, Note_on_c, 0, 58, 70
2,48515, Note_on_c, 0, 58, 0
2,48545, Note_on_c, 0, 57, 64
2,48626, Note_on_c, 0, 75, 0
2,48642, Note_on_c, 0, 65, 0
2,48645, Note_on_c, 0, 74, 72
2,48647, Note_on_c, 0, 57, 0
2,48657, Note_on_c, 0, 58, 71
2,48743, Note_on_c, 0, 75, 81
2,48764, Note_on_c, 0, 58, 0
2,48766, Note_on_c, 0, 60, 76
2,48777, Note_on_c, 0, 74, 0
2,48868, Note_on_c, 0, 60, 0
2,48874, Note_on_c, 0, 58, 92
2,48878, Note_on_c, 0, 77, 78
2,48882, Note_on_c, 0, 62, 87
2,48905, Note_on_c, 0, 75, 0
2,48926, Note_on_c, 0, 76, 20
2,48927, Note_on_c, 0, 76, 0
2,48945, Note_on_c, 0, 62, 0
2,48982, Note_on_c, 0, 77, 0
2,48992, Note_on_c, 0, 60, 69
2,48999, Note_on_c, 0, 70, 81
2,49067, Note_on_c, 0, 58, 0
2,49095, Note_on_c, 0, 62, 70
2,49110, Note_on_c, 0, 60, 0
2,49114, Note_on_c, 0, 77, 76
2,49123, Note_on_c, 0, 70, 0
2,49138, Note_on_c, 0, 58, 3
2,49185, Note_on_c, 0, 62, 0
2,49217, Note_on_c, 0, 64, 69
2,49235, Note_on_c, 0, 79, 81
2,49237, Note_on_c, 0, 77, 0
2,49315, Note_on_c, 0, 64, 0
2,49336, Note_on_c, 0, 65, 78
2,49345, Note_on_c, 0, 81, 84
2,49358, Note_on_c, 0, 58, 0
2,49363, Note_on_c, 0, 79, 0
2,49445, Note_on_c, 0, 64, 75
2,49446, Note_on_c, 0, 65, 0
2,49459, Note_on_c, 0, 79, 83
2,49475, Note_on_c, 0, 81, 0
2,49527, Note_on_c, 0, 64, 0
2,49560, Note_on_c, 0, 65, 92
2,49564, Note_on_c, 0, 57, 86
2,49576, Note_on_c, 0, 81, 84
2,49590, Note_on_c, 0, 79, 0
2,49603, Note_on_c, 0, 57, 0
2,49691, Note_on_c, 0, 81, 0
2,49693, Note_on_c, 0, 72, 79
2,49799, Note_on_c, 0, 62, 91
2,49801, Note_on_c, 0, 81, 84
2,49809, Note_on_c, 0, 70, 82
2,49822, Note_on_c, 0, 72, 0
2,49911, Note_on_c, 0, 70, 0
2,49917, Note_on_c, 0, 72, 73
2,49969, Note_on_c, 0, 81, 0
2,50018, Note_on_c, 0, 72, 0
2,50024, Note_on_c, 0, 70, 73
2,50024, Note_on_c, 0, 74, 71
2,50058, Note_on_c, 0, 70, 0
2,50107, Note_on_c, 0, 62, 0
2,50149, Note_on_c, 0, 69, 70
2,50155, Note_on_c, 0, 74, 0
2,50242, Note_on_c, 0, 69, 0
2,50253, Note_on_c, 0, 67, 72
2,50256, Note_on_c, 0, 65, 0
2,50263, Note_on_c, 0, 62, 78
2,50264, Note_on_c, 0, 58, 86
2,50380, Note_on_c, 0, 74, 72
2,50489, Note_on_c, 0, 76, 75
2,50498, Note_on_c, 0, 74, 0
2,50604, Note_on_c, 0, 77, 80
2,50632, Note_on_c, 0, 76, 0
2,50703, Note_on_c, 0, 64, 84
2,50709, Note_on_c, 0, 79, 82
2,50712, Note_on_c, 0, 67, 0
2,50730, Note_on_c, 0, 62, 0
2,50735, Note_on_c, 0, 58, 0
2,50735, Note_on_c, 0, 77, 0
2,50828, Note_on_c, 0, 77, 84
2,50843, Note_on_c, 0, 79, 0
2,50941, Note_on_c, 0, 55, 85
2,50945, Note_on_c, 0, 79, 85
2,50947, Note_on_c, 0, 77, 0
2,50984, Note_on_c, 0, 55, 0
2,51058, Note_on_c, 0, 70, 78
2,51086, Note_on_c, 0, 79, 0
2,51175, Note_on_c, 0, 60, 87
2,51176, Note_on_c, 0, 69, 78
2,51176, Note_on_c, 0, 79, 82
2,51188, Note_on_c, 0, 70, 0
2,51286, Note_on_c, 0, 69, 0
2,51292, Note_on_c, 0, 70, 70
2,51346, Note_on_c, 0, 79, 0
2,51392, Note_on_c, 0, 70, 0
2,51399, Note_on_c, 0, 72, 72
2,51400, Note_on_c, 0, 69, 71
2,51436, Note_on_c, 0, 69, 0
2,51465, Note_on_c, 0, 60, 0
2,51509, Note_on_c, 0, 67, 73
2,51603, Note_on_c, 0, 67, 0
2,51607, Note_on_c, 0, 64, 0
2,51626, Note_on_c, 0, 65, 79
2,51628, Note_on_c, 0, 57, 81
2,51628, Note_on_c, 0, 72, 0
2,51630, Note_on_c, 0, 60, 80
2,51744, Note_on_c, 0, 72, 76
2,51832, Note_on_c, 0, 65, 0
2,51859, Note_on_c, 0, 74, 75
2,51904, Note_on_c, 0, 72, 0
2,51969, Note_on_c, 0, 76, 74
2,51997, Note_on_c, 0, 74, 0
2,52072, Note_on_c, 0, 57, 0
2,52072, Note_on_c, 0, 62, 79
2,52082, Note_on_c, 0, 77, 84
2,52087, Note_on_c, 0, 60, 0
2,52108, Note_on_c, 0, 76, 0
2,52191, Note_on_c, 0, 76, 79
2,52206, Note_on_c, 0, 77, 0
2,52293, Note_on_c, 0, 76, 0
2,52305, Note_on_c, 0, 77, 87
2,52310, Note_on_c, 0, 53, 78
2,52366, Note_on_c, 0, 53, 0
2,52424, Note_on_c, 0, 69, 81
2,52488, Note_on_c, 0, 69, 0
2,52545, Note_on_c, 0, 67, 72
2,52547, Note_on_c, 0, 58, 71
2,52586, Note_on_c, 0, 58, 0
2,52656, Note_on_c, 0, 62, 0
2,52662, Note_on_c, 0, 74, 68
2,52687, Note_on_c, 0, 77, 0
2,52773, Note_on_c, 0, 74, 0
2,52776, Note_on_c, 0, 58, 64
2,52785, Note_on_c, 0, 76, 70
2,52825, Note_on_c, 0, 58, 0
2,52891, Note_on_c, 0, 77, 76
2,52910, Note_on_c, 0, 76, 0
2,53004, Note_on_c, 0, 58, 73
2,53005, Note_on_c, 0, 79, 79
2,53032, Note_on_c, 0, 77, 0
2,53045, Note_on_c, 0, 58, 0
2,53124, Note_on_c, 0, 81, 79
2,53130, Note_on_c, 0, 79, 0
2,53240, Note_on_c, 0, 82, 87
2,53241, Note_on_c, 0, 58, 78
2,53268, Note_on_c, 0, 81, 0
2,53271, Note_on_c, 0, 67, 0
2,53305, Note_on_c, 0, 58, 0
2,53348, Note_on_c, 0, 79, 84
2,53366, Note_on_c, 0, 82, 0
2,53455, Note_on_c, 0, 58, 79
2,53458, Note_on_c, 0, 60, 77
2,53462, Note_on_c, 0, 77, 90
2,53490, Note_on_c, 0, 79, 0
2,53530, Note_on_c, 0, 58, 0
2,53551, Note_on_c, 0, 77, 0
2,53564, Note_on_c, 0, 76, 81
2,53673, Note_on_c, 0, 76, 0
2,53678, Note_on_c, 0, 58, 73
2,53684, Note_on_c, 0, 74, 77
2,53736, Note_on_c, 0, 58, 0
2,53743, Note_on_c, 0, 74, 0
2,53775, Note_on_c, 0, 72, 81
2,53815, Note_on_c, 0, 72, 0
2,53913, Note_on_c, 0, 58, 61
2,53913, Note_on_c, 0, 77, 83
2,53921, Note_on_c, 0, 65, 66
2,53954, Note_on_c, 0, 77, 0
2,54006, Note_on_c, 0, 65, 0
2,54050, Note_on_c, 0, 65, 5
2,54146, Note_on_c, 0, 58, 0
2,54160, Note_on_c, 0, 57, 52
2,54163, Note_on_c, 0, 72, 70
2,54178, Note_on_c, 0, 60, 0
2,54193, Note_on_c, 0, 72, 0
2,54240, Note_on_c, 0, 57, 0
2,54267, Note_on_c, 0, 55, 52
2,54295, Note_on_c, 0, 65, 0
2,54347, Note_on_c, 0, 55, 0
2,54369, Note_on_c, 0, 57, 59
2,54385, Note_on_c, 0, 77, 74
2,54452, Note_on_c, 0, 57, 0
2,54500, Note_on_c, 0, 53, 35
2,54588, Note_on_c, 0, 53, 0
2,54612, Note_on_c, 0, 77, 0
2,54613, Note_on_c, 0, 75, 73
2,54626, Note_on_c, 0, 57, 51
2,54687, Note_on_c, 0, 75, 0
2,54707, Note_on_c, 0, 57, 0
2,54717, Note_on_c, 0, 74, 72
2,54742, Note_on_c, 0, 59, 54
2,54824, Note_on_c, 0, 59, 0
2,54839, Note_on_c, 0, 74, 0
2,54842, Note_on_c, 0, 75, 80
2,54861, Note_on_c, 0, 60, 59
2,54925, Note_on_c, 0, 60, 0
2,54944, Note_on_c, 0, 59, 70
2,54950, Note_on_c, 0, 67, 88
2,54989, Note_on_c, 0, 75, 0
2,55046, Note_on_c, 0, 59, 0
2,55055, Note_on_c, 0, 67, 0
2,55058, Note_on_c, 0, 68, 76
2,55058, Note_on_c, 0, 72, 75
2,55063, Note_on_c, 0, 60, 57
2,55130, Note_on_c, 0, 72, 0
2,55138, Note_on_c, 0, 68, 0
2,55167, Note_on_c, 0, 67, 77
2,55264, Note_on_c, 0, 67, 0
2,55265, Note_on_c, 0, 60, 0
2,55280, Note_on_c, 0, 74, 71
2,55285, Note_on_c, 0, 65, 57
2,55312, Note_on_c, 0, 74, 0
2,55315, Note_on_c, 0, 65, 0
2,55401, Note_on_c, 0, 60, 67
2,55495, Note_on_c, 0, 60, 0
2,55501, Note_on_c, 0, 67, 83
2,55503, Note_on_c, 0, 62, 72
2,55510, Note_on_c, 0, 59, 65
2,55537, Note_on_c, 0, 62, 0
2,55540, Note_on_c, 0, 67, 0
2,55606, Note_on_c, 0, 59, 0
2,55630, Note_on_c, 0, 57, 64
2,55709, Note_on_c, 0, 57, 0
2,55736, Note_on_c, 0, 79, 86
2,55738, Note_on_c, 0, 59, 71
2,55830, Note_on_c, 0, 59, 0
2,55858, Note_on_c, 0, 55, 62
2,55932, Note_on_c, 0, 55, 0
2,55960, Note_on_c, 0, 77, 84
2,55964, Note_on_c, 0, 59, 67
2,55989, Note_on_c, 0, 79, 0
2,56038, Note_on_c, 0, 59, 0
2,56071, Note_on_c, 0, 60, 61
2,56075, Note_on_c, 0, 75, 86
2,56097, Note_on_c, 0, 77, 0
2,56160, Note_on_c, 0, 60, 0
2,56181, Note_on_c, 0, 62, 65
2,56182, Note_on_c, 0, 77, 88
2,56205, Note_on_c, 0, 75, 0
2,56276, Note_on_c, 0, 69, 90
2,56295, Note_on_c, 0, 62, 0
2,56298, Note_on_c, 0, 60, 70
2,56331, Note_on_c, 0, 77, 0
2,56378, Note_on_c, 0, 60, 0
2,56408, Note_on_c, 0, 62, 69
2,56408, Note_on_c, 0, 71, 79
2,56413, Note_on_c, 0, 74, 75
2,56419, Note_on_c, 0, 69, 0
2,56477, Note_on_c, 0, 71, 0
2,56481, Note_on_c, 0, 74, 0
2,56509, Note_on_c, 0, 69, 80
2,56587, Note_on_c, 0, 69, 0
2,56617, Note_on_c, 0, 67, 74
2,56622, Note_on_c, 0, 75, 79
2,56653, Note_on_c, 0, 67, 0
2,56682, Note_on_c, 0, 75, 0
2,56708, Note_on_c, 0, 62, 0
2,56725, Note_on_c, 0, 55, 65
2,56815, Note_on_c, 0, 55, 0
2,56830, Note_on_c, 0, 60, 74
2,56836, Note_on_c, 0, 63, 71
2,56836, Note_on_c, 0, 72, 90
2,56865, Note_on_c, 0, 63, 0
2,56882, Note_on_c, 0, 72, 0
2,56942, Note_on_c, 0, 60, 0
2,56950, Note_on_c, 0, 59, 66
2,57068, Note_on_c, 0, 80, 98
2,57074, Note_on_c, 0, 60, 70
2,57075, Note_on_c, 0, 59, 0
2,57169, Note_on_c, 0, 60, 0
2,57203, Note_on_c, 0, 55, 45
2,57280, Note_on_c, 0, 79, 79
2,57285, Note_on_c, 0, 60, 76
2,57290, Note_on_c, 0, 55, 0
2,57314, Note_on_c, 0, 80, 0
2,57362, Note_on_c, 0, 60, 0
2,57392, Note_on_c, 0, 62, 70
2,57394, Note_on_c, 0, 77, 92
2,57423, Note_on_c, 0, 79, 0
2,57504, Note_on_c, 0, 63, 81
2,57510, Note_on_c, 0, 62, 0
2,57513, Note_on_c, 0, 79, 77
2,57612, Note_on_c, 0, 63, 0
2,57613, Note_on_c, 0, 62, 83
2,57636, Note_on_c, 0, 71, 90
2,57672, Note_on_c, 0, 77, 0
2,57673, Note_on_c, 0, 79, 0
2,57719, Note_on_c, 0, 62, 0
2,57722, Note_on_c, 0, 63, 85
2,57741, Note_on_c, 0, 72, 79
2,57741, Note_on_c, 0, 75, 83
2,57747, Note_on_c, 0, 71, 0
2,57803, Note_on_c, 0, 72, 0
2,57844, Note_on_c, 0, 75, 0
2,57850, Note_on_c, 0, 70, 85
2,57888, Note_on_c, 0, 69, 53
2,57906, Note_on_c, 0, 70, 0
2,57906, Note_on_c, 0, 71, 38
2,57913, Note_on_c, 0, 69, 0
2,57937, Note_on_c, 0, 71, 0
2,57964, Note_on_c, 0, 77, 93
2,57967, Note_on_c, 0, 68, 81
2,58005, Note_on_c, 0, 69, 25
2,58043, Note_on_c, 0, 69, 0
2,58060, Note_on_c, 0, 63, 0
2,58082, Note_on_c, 0, 68, 0
2,58083, Note_on_c, 0, 67, 80
2,58190, Note_on_c, 0, 68, 81
2,58194, Note_on_c, 0, 67, 0
2,58290, Note_on_c, 0, 63, 86
2,58404, Note_on_c, 0, 62, 86
2,58407, Note_on_c, 0, 63, 0
2,58446, Note_on_c, 0, 64, 29
2,58447, Note_on_c, 0, 64, 0
2,58523, Note_on_c, 0, 68, 0
2,58526, Note_on_c, 0, 67, 82
2,58639, Note_on_c, 0, 68, 85
2,58681, Note_on_c, 0, 67, 0
2,58741, Note_on_c, 0, 62, 0
2,58742, Note_on_c, 0, 60, 85
2,58841, Note_on_c, 0, 59, 90
2,58851, Note_on_c, 0, 60, 0
2,58913, Note_on_c, 0, 77, 0
2,58972, Note_on_c, 0, 75, 82
2,59060, Note_on_c, 0, 75, 0
2,59075, Note_on_c, 0, 74, 82
2,59121, Note_on_c, 0, 68, 0
2,59176, Note_on_c, 0, 59, 0
2,59176, Note_on_c, 0, 62, 78
2,59184, Note_on_c, 0, 72, 84
2,59285, Note_on_c, 0, 62, 0
2,59286, Note_on_c, 0, 71, 87
2,59293, Note_on_c, 0, 55, 93
2,59297, Note_on_c, 0, 74, 0
2,59329, Note_on_c, 0, 72, 0
2,59337, Note_on_c, 0, 55, 0
2,59419, Note_on_c, 0, 68, 83
2,59440, Note_on_c, 0, 71, 0
2,59528, Note_on_c, 0, 68, 0
2,59529, Note_on_c, 0, 59, 86
2,59531, Note_on_c, 0, 74, 77
2,59539, Note_on_c, 0, 67, 73
2,59562, Note_on_c, 0, 59, 0
2,59564, Note_on_c, 0, 72, 49
2,59566, Note_on_c, 0, 67, 0
2,59602, Note_on_c, 0, 72, 0
2,59650, Note_on_c, 0, 65, 75
2,59739, Note_on_c, 0, 65, 0
2,59759, Note_on_c, 0, 60, 90
2,59761, Note_on_c, 0, 63, 83
2,59807, Note_on_c, 0, 60, 0
2,59885, Note_on_c, 0, 67, 69
2,59931, Note_on_c, 0, 74, 0
2,59957, Note_on_c, 0, 63, 0
2,59987, Note_on_c, 0, 72, 85
2,59988, Note_on_c, 0, 56, 90
2,59989, Note_on_c, 0, 67, 0
2,60029, Note_on_c, 0, 56, 0
2,60109, Note_on_c, 0, 63, 75
2,60196, Note_on_c, 0, 72, 0
2,60221, Note_on_c, 0, 53, 91
2,60224, Note_on_c, 0, 62, 79
2,60259, Note_on_c, 0, 63, 0
2,60263, Note_on_c, 0, 53, 0
2,60333, Note_on_c, 0, 72, 79
2,60398, Note_on_c, 0, 62, 0
2,60443, Note_on_c, 0, 55, 89
2,60444, Note_on_c, 0, 71, 81
2,60477, Note_on_c, 0, 55, 0
2,60484, Note_on_c, 0, 72, 0
2,60567, Note_on_c, 0, 65, 68
2,60591, Note_on_c, 0, 71, 0
2,60614, Note_on_c, 0, 65, 0
2,60652, Note_on_c, 0, 48, 80
2,60662, Note_on_c, 0, 72, 90
2,60781, Note_on_c, 0, 65, 74
2,60817, Note_on_c, 0, 72, 0
2,60826, Note_on_c, 0, 48, 0
2,60880, Note_on_c, 0, 65, 0
2,60904, Note_on_c, 0, 63, 65
2,60982, Note_on_c, 0, 63, 0
2,61009, Note_on_c, 0, 62, 64
2,61041, Note_on_c, 0, 62, 0
2,61126, Note_on_c, 0, 63, 69
2,61139, Note_on_c, 0, 60, 62
2,61249, Note_on_c, 0, 70, 64
2,61254, Note_on_c, 0, 48, 50
2,61318, Note_on_c, 0, 48, 0
2,61349, Note_on_c, 0, 70, 0
2,61372, Note_on_c, 0, 69, 51
2,61384, Note_on_c, 0, 50, 37
2,61439, Note_on_c, 0, 50, 0
2,61471, Note_on_c, 0, 69, 0
2,61484, Note_on_c, 0, 67, 56
2,61485, Note_on_c, 0, 51, 47
2,61508, Note_on_c, 0, 63, 0
2,61533, Note_on_c, 0, 60, 0
2,61559, Note_on_c, 0, 51, 0
2,61565, Note_on_c, 0, 67, 0
2,61593, Note_on_c, 0, 53, 58
2,61597, Note_on_c, 0, 69, 61
2,61704, Note_on_c, 0, 51, 55
2,61707, Note_on_c, 0, 53, 0
2,61832, Note_on_c, 0, 60, 75
2,61837, Note_on_c, 0, 57, 70
2,61840, Note_on_c, 0, 51, 0
2,61858, Note_on_c, 0, 53, 49
2,61860, Note_on_c, 0, 60, 0
2,61866, Note_on_c, 0, 57, 0
2,61886, Note_on_c, 0, 53, 0
2,62067, Note_on_c, 0, 53, 49
2,62068, Note_on_c, 0, 65, 72
2,62071, Note_on_c, 0, 62, 68
2,62157, Note_on_c, 0, 69, 0
2,62185, Note_on_c, 0, 62, 0
2,62189, Note_on_c, 0, 67, 64
2,62235, Note_on_c, 0, 65, 0
2,62284, Note_on_c, 0, 46, 65
2,62293, Note_on_c, 0, 67, 0
2,62293, Note_on_c, 0, 69, 57
2,62324, Note_on_c, 0, 53, 0
2,62365, Note_on_c, 0, 46, 0
2,62389, Note_on_c, 0, 69, 0
2,62399, Note_on_c, 0, 70, 61
2,62516, Note_on_c, 0, 58, 74
2,62519, Note_on_c, 0, 62, 71
2,62522, Note_on_c, 0, 67, 66
2,62528, Note_on_c, 0, 70, 0
2,62641, Note_on_c, 0, 46, 56
2,62738, Note_on_c, 0, 46, 0
2,62751, Note_on_c, 0, 48, 51
2,62792, Note_on_c, 0, 58, 0
2,62859, Note_on_c, 0, 48, 0
2,62866, Note_on_c, 0, 50, 63
2,62962, Note_on_c, 0, 50, 0
2,62972, Note_on_c, 0, 51, 70
2,62985, Note_on_c, 0, 62, 0
2,63071, Note_on_c, 0, 51, 0
2,63094, Note_on_c, 0, 50, 56
2,63219, Note_on_c, 0, 51, 67
2,63230, Note_on_c, 0, 58, 75
2,63232, Note_on_c, 0, 55, 62
2,63233, Note_on_c, 0, 50, 0
2,63257, Note_on_c, 0, 58, 0
2,63260, Note_on_c, 0, 51, 0
2,63260, Note_on_c, 0, 55, 0
2,63461, Note_on_c, 0, 51, 59
2,63461, Note_on_c, 0, 63, 70
2,63475, Note_on_c, 0, 60, 60
2,63515, Note_on_c, 0, 67, 0
2,63589, Note_on_c, 0, 65, 60
2,63618, Note_on_c, 0, 63, 0
2,63666, Note_on_c, 0, 60, 0
2,63681, Note_on_c, 0, 45, 49
2,63724, Note_on_c, 0, 67, 56
2,63727, Note_on_c, 0, 65, 0
2,63746, Note_on_c, 0, 51, 0
2,63751, Note_on_c, 0, 45, 0
2,63793, Note_on_c, 0, 69, 63
2,63794, Note_on_c, 0, 67, 0
2,63900, Note_on_c, 0, 60, 71
2,63905, Note_on_c, 0, 57, 63
2,63915, Note_on_c, 0, 65, 62
2,63929, Note_on_c, 0, 69, 0
2,64008, Note_on_c, 0, 45, 59
2,64061, Note_on_c, 0, 57, 0
2,64113, Note_on_c, 0, 45, 0
2,64130, Note_on_c, 0, 46, 58
2,64244, Note_on_c, 0, 46, 0
2,64251, Note_on_c, 0, 48, 62
2,64274, Note_on_c, 0, 60, 0
2,64366, Note_on_c, 0, 48, 0
2,64388, Note_on_c, 0, 50, 64
2,64482, Note_on_c, 0, 50, 0
2,64488, Note_on_c, 0, 48, 67
2,64577, Note_on_c, 0, 48, 0
2,64591, Note_on_c, 0, 57, 75
2,64604, Note_on_c, 0, 53, 71
2,64612, Note_on_c, 0, 50, 64
2,64647, Note_on_c, 0, 57, 0
2,64727, Note_on_c, 0, 53, 0
2,64816, Note_on_c, 0, 58, 77
2,64822, Note_on_c, 0, 62, 71
2,64852, Note_on_c, 0, 58, 0
2,64885, Note_on_c, 0, 62, 0
2,64929, Note_on_c, 0, 50, 0
2,64940, Note_on_c, 0, 48, 55
2,65041, Note_on_c, 0, 48, 0
2,65050, Note_on_c, 0, 58, 69
2,65065, Note_on_c, 0, 62, 59
2,65066, Note_on_c, 0, 50, 58
2,65137, Note_on_c, 0, 58, 0
2,65146, Note_on_c, 0, 62, 0
2,65158, Note_on_c, 0, 50, 0
2,65162, Note_on_c, 0, 69, 63
2,65185, Note_on_c, 0, 48, 56
2,65186, Note_on_c, 0, 65, 0
2,65275, Note_on_c, 0, 58, 62
2,65276, Note_on_c, 0, 69, 0
2,65278, Note_on_c, 0, 62, 57
2,65280, Note_on_c, 0, 67, 65
2,65283, Note_on_c, 0, 48, 0
2,65290, Note_on_c, 0, 46, 59
2,65356, Note_on_c, 0, 58, 0
2,65365, Note_on_c, 0, 62, 0
2,65390, Note_on_c, 0, 46, 0
2,65405, Note_on_c, 0, 45, 58
2,65500, Note_on_c, 0, 45, 0
2,65521, Note_on_c, 0, 58, 71
2,65521, Note_on_c, 0, 62, 69
2,65528, Note_on_c, 0, 46, 62
2,65612, Note_on_c, 0, 46, 0
2,65627, Note_on_c, 0, 65, 78
2,65629, Note_on_c, 0, 45, 69
2,65644, Note_on_c, 0, 58, 0
2,65644, Note_on_c, 0, 62, 0
2,65690, Note_on_c, 0, 67, 0
2,65732, Note_on_c, 0, 70, 87
2,65736, Note_on_c, 0, 43, 70
2,65737, Note_on_c, 0, 45, 0
2,65743, Note_on_c, 0, 58, 75
2,65747, Note_on_c, 0, 62, 73
2,65769, Note_on_c, 0, 65, 0
2,65836, Note_on_c, 0, 58, 0
2,65839, Note_on_c, 0, 43, 0
2,65845, Note_on_c, 0, 41, 69
2,65847, Note_on_c, 0, 62, 0
2,65926, Note_on_c, 0, 41, 0
2,65944, Note_on_c, 0, 43, 72
2,65950, Note_on_c, 0, 58, 71
2,65955, Note_on_c, 0, 62, 74
2,65968, Note_on_c, 0, 70, 0
2,66045, Note_on_c, 0, 41, 68
2,66047, Note_on_c, 0, 43, 0
2,66050, Note_on_c, 0, 58, 0
2,66058, Note_on_c, 0, 69, 74
2,66060, Note_on_c, 0, 62, 0
2,66093, Note_on_c, 0, 69, 0
2,66169, Note_on_c, 0, 67, 73
2,66174, Note_on_c, 0, 41, 0
2,66179, Note_on_c, 0, 40, 64
2,66185, Note_on_c, 0, 58, 66
2,66191, Note_on_c, 0, 62, 58
2,66297, Note_on_c, 0, 40, 0
2,66311, Note_on_c, 0, 36, 57
2,66313, Note_on_c, 0, 58, 0
2,66412, Note_on_c, 0, 60, 68
2,66414, Note_on_c, 0, 36, 0
2,66420, Note_on_c, 0, 57, 64
2,66422, Note_on_c, 0, 38, 58
2,66436, Note_on_c, 0, 67, 0
2,66458, Note_on_c, 0, 57, 0
2,66502, Note_on_c, 0, 60, 0
2,66503, Note_on_c, 0, 38, 0
2,66506, Note_on_c, 0, 62, 0
2,66518, Note_on_c, 0, 40, 62
2,66534, Note_on_c, 0, 55, 77
2,66621, Note_on_c, 0, 40, 0
2,66634, Note_on_c, 0, 41, 66
2,66635, Note_on_c, 0, 55, 0
2,66641, Note_on_c, 0, 65, 79
2,66652, Note_on_c, 0, 57, 66
2,66728, Note_on_c, 0, 57, 0
2,66745, Note_on_c, 0, 41, 0
2,66745, Note_on_c, 0, 55, 72
2,66750, Note_on_c, 0, 36, 65
2,66856, Note_on_c, 0, 41, 76
2,66858, Note_on_c, 0, 36, 0
2,66861, Note_on_c, 0, 57, 74
2,66863, Note_on_c, 0, 55, 0
2,66950, Note_on_c, 0, 41, 0
2,66950, Note_on_c, 0, 57, 0
2,66965, Note_on_c, 0, 59, 78
2,66976, Note_on_c, 0, 43, 75
2,67085, Note_on_c, 0, 44, 82
2,67085, Note_on_c, 0, 60, 83
2,67090, Note_on_c, 0, 43, 0
2,67098, Note_on_c, 0, 65, 0
2,67108, Note_on_c, 0, 59, 0
2,67122, Note_on_c, 0, 44, 0
2,67201, Note_on_c, 0, 59, 81
2,67204, Note_on_c, 0, 60, 0
2,67303, Note_on_c, 0, 38, 65
2,67312, Note_on_c, 0, 60, 80
2,67344, Note_on_c, 0, 38, 0
2,67367, Note_on_c, 0, 59, 0
2,67423, Note_on_c, 0, 65, 77
2,67538, Note_on_c, 0, 63, 76
2,67548, Note_on_c, 0, 43, 71
2,67567, Note_on_c, 0, 65, 0
2,67637, Note_on_c, 0, 43, 0
2,67656, Note_on_c, 0, 42, 65
2,67761, Note_on_c, 0, 42, 0
2,67764, Note_on_c, 0, 43, 69
2,67778, Note_on_c, 0, 60, 0
2,67786, Note_on_c, 0, 62, 65
2,67789, Note_on_c, 0, 59, 64
2,67820, Note_on_c, 0, 63, 0
2,67845, Note_on_c, 0, 43, 0
2,67872, Note_on_c, 0, 59, 0
2,67884, Note_on_c, 0, 45, 66
2,67897, Note_on_c, 0, 57, 67
2,67982, Note_on_c, 0, 57, 0
2,67983, Note_on_c, 0, 45, 0
2,67994, Note_on_c, 0, 47, 69
2,68005, Note_on_c, 0, 55, 69
2,68035, Note_on_c, 0, 62, 0
2,68096, Note_on_c, 0, 47, 0
2,68107, Note_on_c, 0, 45, 72
2,68119, Note_on_c, 0, 50, 75
2,68122, Note_on_c, 0, 55, 0
2,68219, Note_on_c, 0, 45, 0
2,68219, Note_on_c, 0, 47, 71
2,68225, Note_on_c, 0, 55, 79
2,68226, Note_on_c, 0, 50, 0
2,68313, Note_on_c, 0, 47, 0
2,68325, Note_on_c, 0, 57, 81
2,68331, Note_on_c, 0, 50, 79
2,68371, Note_on_c, 0, 55, 0
2,68418, Note_on_c, 0, 50, 0
2,68438, Note_on_c, 0, 59, 86
2,68447, Note_on_c, 0, 55, 64
2,68469, Note_on_c, 0, 57, 0
2,68507, Note_on_c, 0, 55, 0
2,68526, Note_on_c, 0, 59, 0
2,68542, Note_on_c, 0, 60, 87
2,68663, Note_on_c, 0, 62, 83
2,68668, Note_on_c, 0, 47, 72
2,68673, Note_on_c, 0, 60, 0
2,68713, Note_on_c, 0, 47, 0
2,68775, Note_on_c, 0, 67, 80
2,68863, Note_on_c, 0, 48, 76
2,68875, Note_on_c, 0, 65, 80
2,68907, Note_on_c, 0, 67, 0
2,68986, Note_on_c, 0, 60, 76
2,69024, Note_on_c, 0, 60, 0
2,69081, Note_on_c, 0, 62, 0
2,69090, Note_on_c, 0, 55, 16
2,69108, Note_on_c, 0, 60, 75
2,69110, Note_on_c, 0, 63, 80
2,69129, Note_on_c, 0, 48, 0
2,69144, Note_on_c, 0, 65, 0
2,69196, Note_on_c, 0, 63, 0
2,69214, Note_on_c, 0, 65, 80
2,69217, Note_on_c, 0, 51, 75
2,69222, Note_on_c, 0, 60, 0
2,69235, Note_on_c, 0, 55, 0
2,69330, Note_on_c, 0, 75, 99
2,69331, Note_on_c, 0, 67, 85
2,69339, Note_on_c, 0, 48, 71
2,69343, Note_on_c, 0, 51, 0
2,69365, Note_on_c, 0, 65, 0
2,69473, Note_on_c, 0, 55, 71
2,69586, Note_on_c, 0, 55, 0
2,69604, Note_on_c, 0, 57, 73
2,69653, Note_on_c, 0, 48, 0
2,69661, Note_on_c, 0, 67, 0
2,69718, Note_on_c, 0, 57, 0
2,69718, Note_on_c, 0, 59, 74
2,69809, Note_on_c, 0, 59, 0
2,69811, Note_on_c, 0, 60, 85
2,69835, Note_on_c, 0, 75, 0
2,69893, Note_on_c, 0, 60, 0
2,69923, Note_on_c, 0, 59, 70
2,69999, Note_on_c, 0, 59, 0
2,70021, Note_on_c, 0, 72, 93
2,70025, Note_on_c, 0, 63, 80
2,70036, Note_on_c, 0, 60, 72
2,70050, Note_on_c, 0, 63, 0
2,70066, Note_on_c, 0, 72, 0
2,70094, Note_on_c, 0, 60, 0
2,70150, Note_on_c, 0, 56, 62
2,70274, Note_on_c, 0, 77, 100
2,70284, Note_on_c, 0, 60, 80
2,70284, Note_on_c, 0, 68, 85
2,70407, Note_on_c, 0, 50, 51
2,70459, Note_on_c, 0, 56, 0
2,70506, Note_on_c, 0, 53, 74
2,70538, Note_on_c, 0, 50, 0
2,70541, Note_on_c, 0, 60, 0
2,70590, Note_on_c, 0, 77, 0
2,70627, Note_on_c, 0, 68, 0
2,70633, Note_on_c, 0, 56, 63
2,70666, Note_on_c, 0, 53, 0
2,70740, Note_on_c, 0, 74, 88
2,70744, Note_on_c, 0, 56, 0
2,70747, Note_on_c, 0, 58, 75
2,70749, Note_on_c, 0, 65, 78
2,70858, Note_on_c, 0, 53, 72
2,70979, Note_on_c, 0, 53, 0
2,70981, Note_on_c, 0, 55, 72
2,71013, Note_on_c, 0, 58, 0
2,71101, Note_on_c, 0, 56, 73
2,71105, Note_on_c, 0, 55, 0
2,71155, Note_on_c, 0, 74, 0
2,71160, Note_on_c, 0, 65, 0
2,71204, Note_on_c, 0, 56, 0
2,71205, Note_on_c, 0, 58, 75
2,71307, Note_on_c, 0, 58, 0
2,71320, Note_on_c, 0, 56, 69
2,71413, Note_on_c, 0, 56, 0
2,71422, Note_on_c, 0, 70, 89
2,71425, Note_on_c, 0, 62, 78
2,71426, Note_on_c, 0, 58, 75
2,71452, Note_on_c, 0, 62, 0
2,71473, Note_on_c, 0, 70, 0
2,71503, Note_on_c, 0, 58, 0
2,71520, Note_on_c, 0, 55, 66
2,71643, Note_on_c, 0, 75, 94
2,71646, Note_on_c, 0, 58, 79
2,71666, Note_on_c, 0, 67, 74
2,71767, Note_on_c, 0, 48, 64
2,71807, Note_on_c, 0, 55, 0
2,71870, Note_on_c, 0, 51, 75
2,71890, Note_on_c, 0, 58, 0
2,71896, Note_on_c, 0, 48, 0
2,71932, Note_on_c, 0, 75, 0
2,71941, Note_on_c, 0, 67, 0
2,71991, Note_on_c, 0, 55, 72
2,72014, Note_on_c, 0, 51, 0
2,72109, Note_on_c, 0, 72, 85
2,72111, Note_on_c, 0, 55, 0
2,72115, Note_on_c, 0, 56, 75
2,72117, Note_on_c, 0, 63, 75
2,72223, Note_on_c, 0, 51, 69
2,72330, Note_on_c, 0, 51, 0
2,72334, Note_on_c, 0, 53, 66
2,72361, Note_on_c, 0, 56, 0
2,72461, Note_on_c, 0, 55, 69
2,72470, Note_on_c, 0, 53, 0
2,72473, Note_on_c, 0, 72, 0
2,72497, Note_on_c, 0, 63, 0
2,72570, Note_on_c, 0, 55, 0
2,72572, Note_on_c, 0, 56, 75
2,72681, Note_on_c, 0, 55, 74
2,72681, Note_on_c, 0, 56, 0
2,72770, Note_on_c, 0, 55, 0
2,72787, Note_on_c, 0, 68, 92
2,72791, Note_on_c, 0, 56, 76
2,72792, Note_on_c, 0, 60, 80
2,72819, Note_on_c, 0, 60, 0
2,72837, Note_on_c, 0, 68, 0
2,72894, Note_on_c, 0, 53, 69
2,73005, Note_on_c, 0, 53, 0
2,73010, Note_on_c, 0, 74, 88
2,73013, Note_on_c, 0, 47, 65
2,73013, Note_on_c, 0, 56, 0
2,73019, Note_on_c, 0, 65, 79
2,73042, Note_on_c, 0, 65, 0
2,73066, Note_on_c, 0, 74, 0
2,73143, Note_on_c, 0, 55, 58
2,73243, Note_on_c, 0, 55, 0
2,73256, Note_on_c, 0, 56, 62
2,73257, Note_on_c, 0, 74, 71
2,73266, Note_on_c, 0, 65, 61
2,73297, Note_on_c, 0, 65, 0
2,73313, Note_on_c, 0, 74, 0
2,73374, Note_on_c, 0, 56, 0
2,73384, Note_on_c, 0, 55, 57
2,73411, Note_on_c, 0, 47, 0
2,73464, Note_on_c, 0, 55, 0
2,73485, Note_on_c, 0, 74, 80
2,73490, Note_on_c, 0, 65, 77
2,73498, Note_on_c, 0, 53, 65
2,73520, Note_on_c, 0, 65, 0
2,73545, Note_on_c, 0, 74, 0
2,73601, Note_on_c, 0, 51, 71
2,73603, Note_on_c, 0, 53, 0
2,73705, Note_on_c, 0, 51, 0
2,73717, Note_on_c, 0, 50, 69
2,73723, Note_on_c, 0, 74, 88
2,73726, Note_on_c, 0, 53, 71
2,73730, Note_on_c, 0, 65, 75
2,73754, Note_on_c, 0, 65, 0
2,73777, Note_on_c, 0, 74, 0
2,73797, Note_on_c, 0, 50, 0
2,73827, Note_on_c, 0, 51, 75
2,73834, Note_on_c, 0, 53, 0
2,73938, Note_on_c, 0, 51, 0
2,73947, Note_on_c, 0, 74, 91
2,73964, Note_on_c, 0, 65, 80
2,73965, Note_on_c, 0, 50, 79
2,73966, Note_on_c, 0, 41, 65
2,73987, Note_on_c, 0, 65, 0
2,74006, Note_on_c, 0, 74, 0
2,74068, Note_on_c, 0, 48, 75
2,74069, Note_on_c, 0, 50, 0
2,74095, Note_on_c, 0, 41, 0
2,74174, Note_on_c, 0, 74, 94
2,74177, Note_on_c, 0, 48, 0
2,74179, Note_on_c, 0, 50, 84
2,74181, Note_on_c, 0, 65, 81
2,74185, Note_on_c, 0, 44, 72
2,74210, Note_on_c, 0, 65, 0
2,74230, Note_on_c, 0, 74, 0
2,74280, Note_on_c, 0, 48, 78
2,74317, Note_on_c, 0, 50, 0
2,74323, Note_on_c, 0, 44, 0
2,74410, Note_on_c, 0, 47, 75
2,74414, Note_on_c, 0, 74, 87
2,74416, Note_on_c, 0, 43, 66
2,74418, Note_on_c, 0, 65, 81
2,74422, Note_on_c, 0, 48, 0
2,74445, Note_on_c, 0, 47, 0
2,74449, Note_on_c, 0, 43, 0
2,74533, Note_on_c, 0, 72, 75
2,74538, Note_on_c, 0, 74, 0
2,74542, Note_on_c, 0, 65, 0
2,74641, Note_on_c, 0, 55, 70
2,74642, Note_on_c, 0, 59, 71
2,74643, Note_on_c, 0, 74, 77
2,74649, Note_on_c, 0, 72, 0
2,74658, Note_on_c, 0, 65, 67
2,74672, Note_on_c, 0, 55, 0
2,74678, Note_on_c, 0, 59, 0
2,74702, Note_on_c, 0, 65, 0
2,74755, Note_on_c, 0, 74, 0
2,74760, Note_on_c, 0, 72, 77
2,74872, Note_on_c, 0, 59, 81
2,74874, Note_on_c, 0, 71, 80
2,74876, Note_on_c, 0, 55, 76
2,74886, Note_on_c, 0, 65, 63
2,74901, Note_on_c, 0, 72, 0
2,74903, Note_on_c, 0, 59, 0
2,74905, Note_on_c, 0, 55, 0
2,74990, Note_on_c, 0, 69, 77
2,75001, Note_on_c, 0, 65, 0
2,75001, Note_on_c, 0, 71, 0
2,75099, Note_on_c, 0, 55, 82
2,75105, Note_on_c, 0, 59, 75
2,75112, Note_on_c, 0, 71, 83
2,75113, Note_on_c, 0, 69, 0
2,75119, Note_on_c, 0, 65, 72
2,75138, Note_on_c, 0, 59, 0
2,75146, Note_on_c, 0, 55, 0
2,75229, Note_on_c, 0, 69, 82
2,75262, Note_on_c, 0, 65, 0
2,75263, Note_on_c, 0, 71, 0
2,75331, Note_on_c, 0, 57, 88
2,75331, Note_on_c, 0, 60, 88
2,75336, Note_on_c, 0, 67, 82
2,75356, Note_on_c, 0, 69, 0
2,75367, Note_on_c, 0, 60, 0
2,75370, Note_on_c, 0, 57, 0
2,75456, Note_on_c, 0, 65, 80
2,75456, Note_on_c, 0, 67, 0
2,75584, Note_on_c, 0, 62, 79
2,75585, Note_on_c, 0, 59, 80
2,75592, Note_on_c, 0, 67, 81
2,75618, Note_on_c, 0, 65, 0
2,75706, Note_on_c, 0, 65, 77
2,75809, Note_on_c, 0, 51, 75
2,75813, Note_on_c, 0, 59, 0
2,75843, Note_on_c, 0, 53, 29
2,75843, Note_on_c, 0, 67, 0
2,75843, Note_on_c, 0, 67, 6
2,75890, Note_on_c, 0, 53, 0
2,75920, Note_on_c, 0, 65, 0
2,75925, Note_on_c, 0, 63, 71
2,76026, Note_on_c, 0, 63, 0
2,76037, Note_on_c, 0, 55, 64
2,76044, Note_on_c, 0, 65, 75
2,76060, Note_on_c, 0, 62, 0
2,76088, Note_on_c, 0, 67, 0
2,76096, Note_on_c, 0, 51, 0
2,76170, Note_on_c, 0, 62, 73
2,76184, Note_on_c, 0, 65, 0
2,76278, Note_on_c, 0, 62, 0
2,76284, Note_on_c, 0, 63, 82
2,76305, Note_on_c, 0, 60, 63
2,76317, Note_on_c, 0, 55, 0
2,76392, Note_on_c, 0, 68, 74
2,76405, Note_on_c, 0, 51, 62
2,76414, Note_on_c, 0, 67, 80
2,76426, Note_on_c, 0, 68, 0
2,76498, Note_on_c, 0, 53, 65
2,76504, Note_on_c, 0, 51, 0
2,76507, Note_on_c, 0, 69, 81
2,76521, Note_on_c, 0, 63, 0
2,76547, Note_on_c, 0, 67, 0
2,76597, Note_on_c, 0, 53, 0
2,76601, Note_on_c, 0, 55, 74
2,76610, Note_on_c, 0, 71, 86
2,76613, Note_on_c, 0, 69, 0
2,76637, Note_on_c, 0, 60, 0
2,76712, Note_on_c, 0, 55, 0
2,76718, Note_on_c, 0, 56, 84
2,76721, Note_on_c, 0, 72, 88
2,76755, Note_on_c, 0, 71, 0
2,76833, Note_on_c, 0, 55, 76
2,76833, Note_on_c, 0, 56, 0
2,76947, Note_on_c, 0, 56, 83
2,76948, Note_on_c, 0, 65, 71
2,76948, Note_on_c, 0, 68, 85
2,76954, Note_on_c, 0, 55, 0
2,76986, Note_on_c, 0, 64, 37
2,76987, Note_on_c, 0, 64, 0
2,76994, Note_on_c, 0, 65, 0
2,77009, Note_on_c, 0, 56, 0
2,77176, Note_on_c, 0, 68, 0
2,77183, Note_on_c, 0, 62, 73
2,77186, Note_on_c, 0, 56, 72
2,77189, Note_on_c, 0, 65, 68
2,77417, Note_on_c, 0, 71, 65
2,77417, Note_on_c, 0, 72, 0
2,77418, Note_on_c, 0, 50, 70
2,77475, Note_on_c, 0, 56, 0
2,77490, Note_on_c, 0, 50, 0
2,77513, Note_on_c, 0, 71, 0
2,77522, Note_on_c, 0, 69, 73
2,77618, Note_on_c, 0, 69, 0
2,77641, Note_on_c, 0, 71, 64
2,77678, Note_on_c, 0, 65, 0
2,77749, Note_on_c, 0, 68, 69
2,77752, Note_on_c, 0, 50, 67
2,77806, Note_on_c, 0, 62, 0
2,77865, Note_on_c, 0, 68, 0
2,77871, Note_on_c, 0, 67, 64
2,77876, Note_on_c, 0, 51, 72
2,77881, Note_on_c, 0, 50, 0
2,77985, Note_on_c, 0, 67, 0
2,77994, Note_on_c, 0, 51, 0
2,77999, Note_on_c, 0, 53, 66
2,78010, Note_on_c, 0, 65, 60
2,78084, Note_on_c, 0, 65, 0
2,78097, Note_on_c, 0, 61, 63
2,78098, Note_on_c, 0, 53, 0
2,78101, Note_on_c, 0, 70, 71
2,78106, Note_on_c, 0, 71, 0
2,78111, Note_on_c, 0, 55, 71
2,78130, Note_on_c, 0, 64, 53
2,78180, Note_on_c, 0, 64, 0
2,78218, Note_on_c, 0, 65, 60
2,78238, Note_on_c, 0, 53, 64
2,78246, Note_on_c, 0, 55, 0
2,78307, Note_on_c, 0, 65, 0
2,78328, Note_on_c, 0, 53, 0
2,78332, Note_on_c, 0, 55, 66
2,78341, Note_on_c, 0, 64, 54
2,78355, Note_on_c, 0, 61, 0
2,78366, Note_on_c, 0, 55, 0
2,78454, Note_on_c, 0, 64, 0
2,78468, Note_on_c, 0, 65, 48
2,78580, Note_on_c, 0, 55, 61
2,78582, Note_on_c, 0, 60, 67
2,78595, Note_on_c, 0, 64, 53
2,78602, Note_on_c, 0, 65, 0
2,78811, Note_on_c, 0, 69, 67
2,78814, Note_on_c, 0, 70, 0
2,78817, Note_on_c, 0, 48, 57
2,78868, Note_on_c, 0, 55, 0
2,78901, Note_on_c, 0, 48, 0
2,78920, Note_on_c, 0, 69, 0
2,78927, Note_on_c, 0, 67, 61
2,79033, Note_on_c, 0, 67, 0
2,79042, Note_on_c, 0, 69, 65
2,79148, Note_on_c, 0, 48, 66
2,79151, Note_on_c, 0, 67, 66
2,79228, Note_on_c, 0, 60, 0
2,79235, Note_on_c, 0, 69, 0
2,79241, Note_on_c, 0, 64, 0
2,79253, Note_on_c, 0, 48, 0
2,79266, Note_on_c, 0, 67, 0
2,79268, Note_on_c, 0, 50, 64
2,79268, Note_on_c, 0, 65, 63
2,79365, Note_on_c, 0, 50, 0
2,79384, Note_on_c, 0, 51, 74
2,79402, Note_on_c, 0, 63, 57
2,79403, Note_on_c, 0, 65, 0
2,79476, Note_on_c, 0, 51, 0
2,79493, Note_on_c, 0, 63, 0
2,79494, Note_on_c, 0, 68, 70
2,79498, Note_on_c, 0, 53, 67
2,79502, Note_on_c, 0, 59, 62
2,79510, Note_on_c, 0, 62, 62
2,79594, Note_on_c, 0, 62, 0
2,79613, Note_on_c, 0, 63, 65
2,79614, Note_on_c, 0, 51, 62
2,79629, Note_on_c, 0, 53, 0
2,79688, Note_on_c, 0, 59, 0
2,79691, Note_on_c, 0, 63, 0
2,79716, Note_on_c, 0, 62, 59
2,79727, Note_on_c, 0, 51, 0
2,79783, Note_on_c, 0, 53, 64
2,79829, Note_on_c, 0, 62, 0
2,79830, Note_on_c, 0, 63, 52
2,79839, Note_on_c, 0, 53, 0
2,79920, Note_on_c, 0, 63, 0
2,79941, Note_on_c, 0, 62, 65
2,79945, Note_on_c, 0, 58, 75
2,79959, Note_on_c, 0, 53, 68
2,80126, Note_on_c, 0, 68, 0
2,80182, Note_on_c, 0, 67, 64
2,80184, Note_on_c, 0, 46, 58
2,80193, Note_on_c, 0, 62, 0
2,80203, Note_on_c, 0, 53, 0
2,80220, Note_on_c, 0, 46, 0
2,80225, Note_on_c, 0, 58, 0
2,80280, Note_on_c, 0, 65, 75
2,80285, Note_on_c, 0, 67, 0
2,80400, Note_on_c, 0, 65, 0
2,80411, Note_on_c, 0, 58, 85
2,80412, Note_on_c, 0, 62, 91
2,80422, Note_on_c, 0, 67, 77
2,80533, Note_on_c, 0, 67, 0
2,80549, Note_on_c, 0, 77, 68
2,80551, Note_on_c, 0, 76, 67
2,80620, Note_on_c, 0, 77, 0
2,80622, Note_on_c, 0, 76, 0
2,80646, Note_on_c, 0, 79, 76
2,80660, Note_on_c, 0, 75, 53
2,80682, Note_on_c, 0, 75, 0
2,80754, Note_on_c, 0, 79, 0
2,80755, Note_on_c, 0, 80, 80
2,80791, Note_on_c, 0, 77, 51
2,80796, Note_on_c, 0, 79, 39
2,80799, Note_on_c, 0, 58, 0
2,80806, Note_on_c, 0, 62, 0
2,80857, Note_on_c, 0, 82, 86
2,80875, Note_on_c, 0, 79, 0
2,80891, Note_on_c, 0, 80, 0
2,80892, Note_on_c, 0, 78, 44
2,80902, Note_on_c, 0, 77, 0
2,80919, Note_on_c, 0, 78, 0
2,80977, Note_on_c, 0, 80, 83
2,80982, Note_on_c, 0, 77, 69
2,81003, Note_on_c, 0, 82, 0
2,81086, Note_on_c, 0, 79, 79
2,81089, Note_on_c, 0, 55, 75
2,81091, Note_on_c, 0, 58, 94
2,81096, Note_on_c, 0, 80, 0
2,81096, Note_on_c, 0, 82, 90
2,81098, Note_on_c, 0, 77, 0
2,81118, Note_on_c, 0, 55, 0
2,81134, Note_on_c, 0, 79, 0
2,81136, Note_on_c, 0, 58, 0
2,81154, Note_on_c, 0, 82, 0
2,81341, Note_on_c, 0, 63, 84
2,81344, Note_on_c, 0, 60, 81
2,81351, Note_on_c, 0, 82, 87
2,81358, Note_on_c, 0, 79, 73
2,81436, Note_on_c, 0, 79, 0
2,81588, Note_on_c, 0, 75, 78
2,81589, Note_on_c, 0, 72, 73
2,81644, Note_on_c, 0, 82, 0
2,81652, Note_on_c, 0, 60, 0
2,81665, Note_on_c, 0, 63, 0
2,81716, Note_on_c, 0, 72, 0
2,81753, Note_on_c, 0, 75, 0
2,81836, Note_on_c, 0, 56, 86
2,81836, Note_on_c, 0, 60, 93
2,81947, Note_on_c, 0, 72, 66
2,81947, Note_on_c, 0, 75, 76
2,81980, Note_on_c, 0, 72, 0
2,82058, Note_on_c, 0, 74, 73
2,82065, Note_on_c, 0, 75, 0
2,82067, Note_on_c, 0, 77, 74
2,82169, Note_on_c, 0, 77, 0
2,82178, Note_on_c, 0, 75, 74
2,82180, Note_on_c, 0, 79, 78
2,82181, Note_on_c, 0, 60, 0
2,82205, Note_on_c, 0, 56, 0
2,82214, Note_on_c, 0, 74, 0
2,82250, Note_on_c, 0, 75, 0
2,82288, Note_on_c, 0, 77, 81
2,82288, Note_on_c, 0, 79, 0
2,82293, Note_on_c, 0, 80, 80
2,82395, Note_on_c, 0, 75, 78
2,82420, Note_on_c, 0, 80, 0
2,82423, Note_on_c, 0, 79, 56
2,82427, Note_on_c, 0, 77, 0
2,82470, Note_on_c, 0, 79, 0
2,82511, Note_on_c, 0, 56, 93
2,82514, Note_on_c, 0, 53, 85
2,82519, Note_on_c, 0, 80, 87
2,82526, Note_on_c, 0, 77, 84
2,82548, Note_on_c, 0, 75, 0
2,82554, Note_on_c, 0, 53, 0
2,82567, Note_on_c, 0, 56, 0
2,82588, Note_on_c, 0, 77, 0
2,82594, Note_on_c, 0, 80, 0
2,82753, Note_on_c, 0, 62, 94
2,82755, Note_on_c, 0, 58, 88
2,82761, Note_on_c, 0, 80, 79
2,82767, Note_on_c, 0, 77, 75
2,83013, Note_on_c, 0, 74, 78
2,83019, Note_on_c, 0, 77, 0
2,83021, Note_on_c, 0, 70, 74
2,83058, Note_on_c, 0, 80, 0
2,83096, Note_on_c, 0, 62, 0
2,83102, Note_on_c, 0, 58, 0
2,83134, Note_on_c, 0, 70, 0
2,83156, Note_on_c, 0, 74, 0
2,83248, Note_on_c, 0, 55, 87
2,83248, Note_on_c, 0, 58, 89
2,83345, Note_on_c, 0, 70, 76
2,83358, Note_on_c, 0, 74, 72
2,83395, Note_on_c, 0, 70, 0
2,83465, Note_on_c, 0, 74, 0
2,83469, Note_on_c, 0, 72, 77
2,83472, Note_on_c, 0, 75, 78
2,83538, Note_on_c, 0, 72, 0
2,83563, Note_on_c, 0, 75, 0
2,83570, Note_on_c, 0, 55, 0
2,83583, Note_on_c, 0, 74, 78
2,83587, Note_on_c, 0, 77, 81
2,83612, Note_on_c, 0, 58, 0
2,83679, Note_on_c, 0, 74, 0
2,83692, Note_on_c, 0, 77, 0
2,83692, Note_on_c, 0, 79, 79
2,83693, Note_on_c, 0, 75, 83
2,83792, Note_on_c, 0, 75, 0
2,83798, Note_on_c, 0, 74, 82
2,83802, Note_on_c, 0, 77, 76
2,83826, Note_on_c, 0, 79, 0
2,83893, Note_on_c, 0, 77, 0
2,83909, Note_on_c, 0, 75, 72
2,83917, Note_on_c, 0, 55, 84
2,83918, Note_on_c, 0, 51, 80
2,83918, Note_on_c, 0, 79, 81
2,83990, Note_on_c, 0, 51, 0
2,83992, Note_on_c, 0, 55, 0
2,84007, Note_on_c, 0, 74, 0
2,84144, Note_on_c, 0, 60, 77
2,84148, Note_on_c, 0, 56, 70
2,84207, Note_on_c, 0, 79, 0
2,84249, Note_on_c, 0, 60, 0
2,84253, Note_on_c, 0, 73, 69
2,84270, Note_on_c, 0, 56, 0
2,84272, Note_on_c, 0, 75, 0
2,84368, Note_on_c, 0, 73, 0
2,84371, Note_on_c, 0, 60, 59
2,84378, Note_on_c, 0, 82, 69
2,84390, Note_on_c, 0, 56, 54
2,84395, Note_on_c, 0, 75, 51
2,84490, Note_on_c, 0, 60, 0
2,84493, Note_on_c, 0, 73, 64
2,84499, Note_on_c, 0, 75, 0
2,84516, Note_on_c, 0, 82, 0
2,84521, Note_on_c, 0, 56, 0
2,84593, Note_on_c, 0, 73, 0
2,84605, Note_on_c, 0, 80, 78
2,84608, Note_on_c, 0, 60, 67
2,84610, Note_on_c, 0, 56, 57
2,84617, Note_on_c, 0, 72, 68
2,84717, Note_on_c, 0, 70, 64
2,84740, Note_on_c, 0, 60, 0
2,84755, Note_on_c, 0, 72, 0
2,84758, Note_on_c, 0, 56, 0
2,84789, Note_on_c, 0, 80, 0
2,84843, Note_on_c, 0, 79, 84
2,84850, Note_on_c, 0, 60, 76
2,84850, Note_on_c, 0, 70, 0
2,84854, Note_on_c, 0, 56, 72
2,84857, Note_on_c, 0, 72, 75
2,84969, Note_on_c, 0, 60, 0
2,84969, Note_on_c, 0, 70, 69
2,84985, Note_on_c, 0, 72, 0
2,84988, Note_on_c, 0, 56, 0
2,84990, Note_on_c, 0, 79, 0
2,85029, Note_on_c, 0, 70, 0
2,85075, Note_on_c, 0, 60, 78
2,85076, Note_on_c, 0, 77, 90
2,85077, Note_on_c, 0, 56, 77
2,85091, Note_on_c, 0, 68, 81
2,85181, Note_on_c, 0, 56, 0
2,85182, Note_on_c, 0, 60, 0
2,85198, Note_on_c, 0, 67, 64
2,85207, Note_on_c, 0, 68, 0
2,85286, Note_on_c, 0, 75, 82
2,85293, Note_on_c, 0, 56, 76
2,85294, Note_on_c, 0, 68, 63
2,85297, Note_on_c, 0, 60, 69
2,85297, Note_on_c, 0, 67, 0
2,85364, Note_on_c, 0, 56, 0
2,85406, Note_on_c, 0, 67, 73
2,85406, Note_on_c, 0, 68, 0
2,85446, Note_on_c, 0, 67, 0
2,85508, Note_on_c, 0, 75, 0
2,85525, Note_on_c, 0, 77, 0
2,85526, Note_on_c, 0, 60, 0
2,85526, Note_on_c, 0, 74, 75
2,85534, Note_on_c, 0, 62, 61
2,85536, Note_on_c, 0, 58, 55
2,85552, Note_on_c, 0, 65, 59
2,85640, Note_on_c, 0, 62, 0
2,85645, Note_on_c, 0, 60, 72
2,85646, Note_on_c, 0, 58, 0
2,85662, Note_on_c, 0, 65, 0
2,85677, Note_on_c, 0, 74, 0
2,85758, Note_on_c, 0, 74, 83
2,85765, Note_on_c, 0, 60, 0
2,85766, Note_on_c, 0, 56, 68
2,85768, Note_on_c, 0, 62, 64
2,85771, Note_on_c, 0, 65, 66
2,85849, Note_on_c, 0, 65, 0
2,85861, Note_on_c, 0, 56, 0
2,85862, Note_on_c, 0, 62, 0
2,85871, Note_on_c, 0, 60, 78
2,85979, Note_on_c, 0, 75, 84
2,85982, Note_on_c, 0, 55, 68
2,85985, Note_on_c, 0, 60, 0
2,85985, Note_on_c, 0, 67, 73
2,85987, Note_on_c, 0, 58, 77
2,86019, Note_on_c, 0, 74, 0
2,86069, Note_on_c, 0, 55, 0
2,86070, Note_on_c, 0, 67, 0
2,86094, Note_on_c, 0, 56, 75
2,86121, Note_on_c, 0, 58, 0
2,86192, Note_on_c, 0, 53, 63
2,86204, Note_on_c, 0, 56, 0
2,86207, Note_on_c, 0, 77, 93
2,86213, Note_on_c, 0, 68, 87
2,86219, Note_on_c, 0, 58, 77
2,86246, Note_on_c, 0, 75, 0
2,86266, Note_on_c, 0, 53, 0
2,86324, Note_on_c, 0, 56, 81
2,86335, Note_on_c, 0, 58, 0
2,86370, Note_on_c, 0, 68, 0
2,86434, Note_on_c, 0, 79, 88
2,86448, Note_on_c, 0, 70, 78
2,86449, Note_on_c, 0, 51, 74
2,86462, Note_on_c, 0, 55, 78
2,86462, Note_on_c, 0, 69, 52
2,86465, Note_on_c, 0, 56, 0
2,86485, Note_on_c, 0, 69, 0
2,86491, Note_on_c, 0, 77, 0
2,86574, Note_on_c, 0, 53, 86
2,86584, Note_on_c, 0, 51, 0
2,86586, Note_on_c, 0, 55, 0
2,86674, Note_on_c, 0, 71, 80
2,86684, Note_on_c, 0, 50, 78
2,86684, Note_on_c, 0, 55, 90
2,86686, Note_on_c, 0, 53, 0
2,86703, Note_on_c, 0, 70, 0
2,86782, Note_on_c, 0, 53, 86
2,86800, Note_on_c, 0, 55, 0
2,86822, Note_on_c, 0, 50, 0
2,86894, Note_on_c, 0, 71, 0
2,86895, Note_on_c, 0, 48, 64
2,86902, Note_on_c, 0, 51, 82
2,86917, Note_on_c, 0, 72, 78
2,86928, Note_on_c, 0, 53, 0
2,86983, Note_on_c, 0, 48, 0
2,86995, Note_on_c, 0, 72, 0
2,87024, Note_on_c, 0, 51, 0
2,87037, Note_on_c, 0, 74, 80
2,87040, Note_on_c, 0, 77, 88
2,87064, Note_on_c, 0, 79, 0
2,87123, Note_on_c, 0, 74, 0
2,87149, Note_on_c, 0, 79, 85
2,87158, Note_on_c, 0, 60, 73
2,87161, Note_on_c, 0, 75, 73
2,87163, Note_on_c, 0, 63, 76
2,87179, Note_on_c, 0, 77, 0
2,87217, Note_on_c, 0, 75, 0
2,87252, Note_on_c, 0, 63, 0
2,87262, Note_on_c, 0, 74, 73
2,87264, Note_on_c, 0, 77, 91
2,87270, Note_on_c, 0, 60, 0
2,87299, Note_on_c, 0, 74, 0
2,87330, Note_on_c, 0, 79, 0
2,87369, Note_on_c, 0, 63, 81
2,87377, Note_on_c, 0, 60, 82
2,87378, Note_on_c, 0, 75, 85
2,87388, Note_on_c, 0, 72, 83
2,87388, Note_on_c, 0, 77, 0
2,87476, Note_on_c, 0, 63, 0
2,87489, Note_on_c, 0, 60, 0
2,87497, Note_on_c, 0, 74, 83
2,87498, Note_on_c, 0, 70, 78
2,87504, Note_on_c, 0, 72, 0
2,87505, Note_on_c, 0, 75, 0
2,87595, Note_on_c, 0, 63, 82
2,87596, Note_on_c, 0, 70, 0
2,87598, Note_on_c, 0, 60, 80
2,87605, Note_on_c, 0, 75, 88
2,87606, Note_on_c, 0, 72, 78
2,87619, Note_on_c, 0, 74, 0
2,87711, Note_on_c, 0, 72, 0
2,87712, Note_on_c, 0, 70, 77
2,87717, Note_on_c, 0, 74, 84
2,87724, Note_on_c, 0, 63, 0
2,87730, Note_on_c, 0, 60, 0
2,87738, Note_on_c, 0, 75, 0
2,87747, Note_on_c, 0, 70, 0
2,87834, Note_on_c, 0, 63, 84
2,87834, Note_on_c, 0, 72, 80
2,87842, Note_on_c, 0, 60, 84
2,87849, Note_on_c, 0, 68, 71
2,87869, Note_on_c, 0, 74, 0
2,87943, Note_on_c, 0, 60, 0
2,87946, Note_on_c, 0, 63, 0
2,87951, Note_on_c, 0, 67, 74
2,87951, Note_on_c, 0, 70, 80
2,87963, Note_on_c, 0, 68, 0
2,87974, Note_on_c, 0, 72, 0
2,88029, Note_on_c, 0, 67, 0
2,88051, Note_on_c, 0, 63, 91
2,88054, Note_on_c, 0, 72, 86
2,88059, Note_on_c, 0, 60, 81
2,88064, Note_on_c, 0, 70, 0
2,88080, Note_on_c, 0, 68, 75
2,88113, Note_on_c, 0, 60, 0
2,88123, Note_on_c, 0, 63, 0
2,88167, Note_on_c, 0, 67, 78
2,88167, Note_on_c, 0, 70, 85
2,88193, Note_on_c, 0, 68, 0
2,88254, Note_on_c, 0, 72, 0
2,88262, Note_on_c, 0, 60, 78
2,88263, Note_on_c, 0, 63, 78
2,88271, Note_on_c, 0, 69, 84
2,88273, Note_on_c, 0, 66, 82
2,88289, Note_on_c, 0, 67, 0
2,88311, Note_on_c, 0, 70, 0
2,88368, Note_on_c, 0, 63, 0
2,88399, Note_on_c, 0, 62, 62
2,88438, Note_on_c, 0, 60, 0
2,88509, Note_on_c, 0, 58, 57
2,88524, Note_on_c, 0, 63, 81
2,88538, Note_on_c, 0, 62, 0
2,88636, Note_on_c, 0, 62, 77
2,88642, Note_on_c, 0, 58, 0
2,88682, Note_on_c, 0, 63, 0
2,88742, Note_on_c, 0, 62, 0
2,88750, Note_on_c, 0, 60, 83
2,88752, Note_on_c, 0, 57, 73
2,88849, Note_on_c, 0, 58, 81
2,88852, Note_on_c, 0, 60, 0
2,88876, Note_on_c, 0, 57, 0
2,88954, Note_on_c, 0, 70, 85
2,88961, Note_on_c, 0, 60, 84
2,88961, Note_on_c, 0, 66, 0
2,88962, Note_on_c, 0, 67, 81
2,88964, Note_on_c, 0, 58, 0
2,88980, Note_on_c, 0, 55, 60
2,89003, Note_on_c, 0, 69, 0
2,89047, Note_on_c, 0, 55, 0
2,89073, Note_on_c, 0, 58, 85
2,89090, Note_on_c, 0, 60, 0
2,89169, Note_on_c, 0, 70, 0
2,89189, Note_on_c, 0, 54, 80
2,89195, Note_on_c, 0, 72, 94
2,89198, Note_on_c, 0, 58, 0
2,89199, Note_on_c, 0, 57, 82
2,89199, Note_on_c, 0, 69, 86
2,89221, Note_on_c, 0, 67, 0
2,89298, Note_on_c, 0, 55, 80
2,89306, Note_on_c, 0, 57, 0
2,89357, Note_on_c, 0, 54, 0
2,89429, Note_on_c, 0, 55, 0
2,89429, Note_on_c, 0, 57, 82
2,89431, Note_on_c, 0, 69, 0
2,89432, Note_on_c, 0, 52, 72
2,89527, Note_on_c, 0, 55, 85
2,89544, Note_on_c, 0, 57, 0
2,89549, Note_on_c, 0, 52, 0
2,89639, Note_on_c, 0, 50, 80
2,89642, Note_on_c, 0, 54, 87
2,89654, Note_on_c, 0, 55, 0
2,89749, Note_on_c, 0, 62, 89
2,89805, Note_on_c, 0, 54, 0
2,89852, Note_on_c, 0, 63, 84
2,89857, Note_on_c, 0, 57, 76
2,89859, Note_on_c, 0, 54, 63
2,89883, Note_on_c, 0, 62, 0
2,89916, Note_on_c, 0, 50, 0
2,89959, Note_on_c, 0, 62, 87
2,89960, Note_on_c, 0, 57, 0
2,89976, Note_on_c, 0, 63, 0
2,90061, Note_on_c, 0, 54, 0
2,90082, Note_on_c, 0, 58, 85
2,90084, Note_on_c, 0, 70, 89
2,90090, Note_on_c, 0, 55, 74
2,90106, Note_on_c, 0, 62, 0
2,90117, Note_on_c, 0, 72, 0
2,90202, Note_on_c, 0, 62, 90
2,90281, Note_on_c, 0, 58, 0
2,90314, Note_on_c, 0, 54, 80
2,90321, Note_on_c, 0, 63, 92
2,90323, Note_on_c, 0, 50, 69
2,90327, Note_on_c, 0, 62, 0
2,90340, Note_on_c, 0, 55, 0
2,90421, Note_on_c, 0, 62, 89
2,90458, Note_on_c, 0, 70, 0
2,90510, Note_on_c, 0, 54, 0
2,90524, Note_on_c, 0, 63, 0
2,90531, Note_on_c, 0, 60, 91
2,90537, Note_on_c, 0, 55, 88
2,90540, Note_on_c, 0, 51, 78
2,90569, Note_on_c, 0, 50, 0
2,90572, Note_on_c, 0, 62, 0
2,90653, Note_on_c, 0, 70, 91
2,90795, Note_on_c, 0, 61, 78
2,90795, Note_on_c, 0, 69, 78
2,90801, Note_on_c, 0, 70, 0
2,90805, Note_on_c, 0, 71, 68
2,90813, Note_on_c, 0, 60, 0
2,90822, Note_on_c, 0, 71, 0
2,90880, Note_on_c, 0, 61, 0
2,90922, Note_on_c, 0, 67, 87
2,91044, Note_on_c, 0, 69, 0
2,91046, Note_on_c, 0, 62, 91
2,91047, Note_on_c, 0, 66, 89
2,91054, Note_on_c, 0, 50, 79
2,91054, Note_on_c, 0, 57, 92
2,91066, Note_on_c, 0, 51, 0
2,91082, Note_on_c, 0, 67, 0
2,91104, Note_on_c, 0, 55, 0
2,91153, Note_on_c, 0, 57, 0
2,91170, Note_on_c, 0, 50, 0
2,91187, Note_on_c, 0, 62, 0
2,91199, Note_on_c, 0, 66, 0
2,91375, Note_on_c, 0, 38, 87
2,91448, Note_on_c, 0, 38, 0
2,91810, Note_on_c, 0, 62, 96
2,91945, Note_on_c, 0, 69, 71
2,92066, Note_on_c, 0, 70, 72
2,92067, Note_on_c, 0, 69, 0
2,92173, Note_on_c, 0, 72, 78
2,92197, Note_on_c, 0, 70, 0
2,92285, Note_on_c, 0, 62, 0
2,92292, Note_on_c, 0, 74, 83
2,92305, Note_on_c, 0, 72, 0
2,92414, Note_on_c, 0, 72, 79
2,92430, Note_on_c, 0, 74, 0
2,92528, Note_on_c, 0, 74, 87
2,92531, Note_on_c, 0, 58, 96
2,92557, Note_on_c, 0, 72, 0
2,92580, Note_on_c, 0, 58, 0
2,92582, Note_on_c, 0, 74, 0
2,92791, Note_on_c, 0, 74, 92
2,92795, Note_on_c, 0, 63, 95
2,93031, Note_on_c, 0, 67, 76
2,93062, Note_on_c, 0, 74, 0
2,93118, Note_on_c, 0, 63, 0
2,93206, Note_on_c, 0, 67, 0
2,93298, Note_on_c, 0, 60, 90
2,93414, Note_on_c, 0, 67, 63
2,93527, Note_on_c, 0, 69, 71
2,93555, Note_on_c, 0, 67, 0
2,93634, Note_on_c, 0, 70, 71
2,93689, Note_on_c, 0, 69, 0
2,93750, Note_on_c, 0, 72, 80
2,93759, Note_on_c, 0, 70, 0
2,93771, Note_on_c, 0, 60, 0
2,93865, Note_on_c, 0, 70, 70
2,93870, Note_on_c, 0, 72, 0
2,93980, Note_on_c, 0, 57, 89
2,93980, Note_on_c, 0, 72, 87
2,94009, Note_on_c, 0, 70, 0
2,94027, Note_on_c, 0, 57, 0
2,94036, Note_on_c, 0, 72, 0
2,94229, Note_on_c, 0, 62, 89
2,94233, Note_on_c, 0, 72, 89
2,94469, Note_on_c, 0, 66, 74
2,94520, Note_on_c, 0, 72, 0
2,94524, Note_on_c, 0, 62, 0
2,94530, Note_on_c, 0, 66, 0
2,94704, Note_on_c, 0, 74, 95
2,94713, Note_on_c, 0, 58, 83
2,94831, Note_on_c, 0, 66, 67
2,94837, Note_on_c, 0, 50, 54
2,94924, Note_on_c, 0, 50, 0
2,94943, Note_on_c, 0, 52, 57
2,94949, Note_on_c, 0, 66, 0
2,94950, Note_on_c, 0, 67, 74
2,95037, Note_on_c, 0, 58, 0
2,95044, Note_on_c, 0, 54, 66
2,95052, Note_on_c, 0, 52, 0
2,95064, Note_on_c, 0, 69, 74
2,95086, Note_on_c, 0, 67, 0
2,95098, Note_on_c, 0, 74, 0
2,95157, Note_on_c, 0, 55, 69
2,95158, Note_on_c, 0, 54, 0
2,95180, Note_on_c, 0, 70, 79
2,95196, Note_on_c, 0, 69, 0
2,95264, Note_on_c, 0, 55, 0
2,95264, Note_on_c, 0, 70, 0
2,95271, Note_on_c, 0, 54, 67
2,95290, Note_on_c, 0, 69, 76
2,95371, Note_on_c, 0, 54, 0
2,95383, Note_on_c, 0, 55, 85
2,95388, Note_on_c, 0, 70, 96
2,95413, Note_on_c, 0, 69, 0
2,95438, Note_on_c, 0, 55, 0
2,95441, Note_on_c, 0, 70, 0
2,95639, Note_on_c, 0, 75, 98
2,95645, Note_on_c, 0, 60, 84
2,95646, Note_on_c, 0, 70, 83
2,95647, Note_on_c, 0, 55, 74
2,95874, Note_on_c, 0, 63, 76
2,95879, Note_on_c, 0, 48, 64
2,95933, Note_on_c, 0, 60, 0
2,95933, Note_on_c, 0, 75, 0
2,95956, Note_on_c, 0, 70, 0
2,95970, Note_on_c, 0, 63, 0
2,95980, Note_on_c, 0, 55, 0
2,96019, Note_on_c, 0, 48, 0
2,96113, Note_on_c, 0, 72, 91
2,96116, Note_on_c, 0, 57, 79
2,96242, Note_on_c, 0, 48, 68
2,96252, Note_on_c, 0, 64, 67
2,96341, Note_on_c, 0, 48, 0
2,96352, Note_on_c, 0, 50, 62
2,96358, Note_on_c, 0, 65, 68
2,96361, Note_on_c, 0, 64, 0
2,96369, Note_on_c, 0, 72, 0
2,96445, Note_on_c, 0, 50, 0
2,96464, Note_on_c, 0, 52, 65
2,96468, Note_on_c, 0, 67, 72
2,96500, Note_on_c, 0, 65, 0
2,96525, Note_on_c, 0, 57, 0
2,96557, Note_on_c, 0, 52, 0
2,96569, Note_on_c, 0, 53, 70
2,96580, Note_on_c, 0, 69, 72
2,96590, Note_on_c, 0, 67, 0
2,96650, Note_on_c, 0, 69, 0
2,96680, Note_on_c, 0, 67, 74
2,96688, Note_on_c, 0, 52, 61
2,96688, Note_on_c, 0, 53, 0
2,96793, Note_on_c, 0, 69, 91
2,96802, Note_on_c, 0, 53, 85
2,96815, Note_on_c, 0, 52, 0
2,96817, Note_on_c, 0, 67, 0
2,96848, Note_on_c, 0, 69, 0
2,96863, Note_on_c, 0, 53, 0
2,97042, Note_on_c, 0, 74, 91
2,97047, Note_on_c, 0, 69, 89
2,97049, Note_on_c, 0, 58, 79
2,97059, Note_on_c, 0, 53, 73
2,97109, Note_on_c, 0, 55, 14
2,97110, Note_on_c, 0, 55, 0
2,97269, Note_on_c, 0, 74, 0
2,97277, Note_on_c, 0, 46, 72
2,97289, Note_on_c, 0, 62, 74
2,97330, Note_on_c, 0, 58, 0
2,97347, Note_on_c, 0, 69, 0
2,97352, Note_on_c, 0, 53, 0
2,97372, Note_on_c, 0, 62, 0
2,97397, Note_on_c, 0, 46, 0
2,97508, Note_on_c, 0, 55, 79
2,97508, Note_on_c, 0, 70, 89
2,97614, Note_on_c, 0, 62, 62
2,97615, Note_on_c, 0, 46, 62
2,97723, Note_on_c, 0, 62, 0
2,97726, Note_on_c, 0, 64, 68
2,97730, Note_on_c, 0, 48, 56
2,97770, Note_on_c, 0, 46, 0
2,97832, Note_on_c, 0, 48, 0
2,97837, Note_on_c, 0, 55, 0
2,97850, Note_on_c, 0, 50, 66
2,97850, Note_on_c, 0, 66, 68
2,97864, Note_on_c, 0, 64, 0
2,97949, Note_on_c, 0, 51, 73
2,97950, Note_on_c, 0, 50, 0
2,97953, Note_on_c, 0, 66, 0
2,97968, Note_on_c, 0, 67, 74
2,98043, Note_on_c, 0, 70, 0
2,98054, Note_on_c, 0, 51, 0
2,98073, Note_on_c, 0, 50, 61
2,98094, Note_on_c, 0, 66, 68
2,98096, Note_on_c, 0, 67, 0
2,98199, Note_on_c, 0, 66, 0
2,98201, Note_on_c, 0, 51, 62
2,98202, Note_on_c, 0, 67, 77
2,98204, Note_on_c, 0, 50, 0
2,98204, Note_on_c, 0, 58, 75
2,98268, Note_on_c, 0, 67, 0
2,98425, Note_on_c, 0, 72, 80
2,98445, Note_on_c, 0, 57, 67
2,98450, Note_on_c, 0, 58, 0
2,98498, Note_on_c, 0, 51, 0
2,98517, Note_on_c, 0, 72, 0
2,98564, Note_on_c, 0, 50, 54
2,98637, Note_on_c, 0, 57, 0
2,98653, Note_on_c, 0, 55, 67
2,98666, Note_on_c, 0, 72, 77
2,98669, Note_on_c, 0, 70, 78
2,98670, Note_on_c, 0, 51, 55
2,98687, Note_on_c, 0, 50, 0
2,98742, Note_on_c, 0, 55, 0
2,98795, Note_on_c, 0, 50, 66
2,98801, Note_on_c, 0, 70, 0
2,98805, Note_on_c, 0, 72, 0
2,98825, Note_on_c, 0, 51, 0
2,98886, Note_on_c, 0, 72, 85
2,98889, Note_on_c, 0, 48, 67
2,98889, Note_on_c, 0, 63, 75
2,98895, Note_on_c, 0, 69, 73
2,98898, Note_on_c, 0, 50, 0
2,98971, Note_on_c, 0, 48, 0
2,98978, Note_on_c, 0, 46, 66
2,98984, Note_on_c, 0, 63, 0
2,99011, Note_on_c, 0, 72, 0
2,99080, Note_on_c, 0, 69, 0
2,99113, Note_on_c, 0, 48, 74
2,99120, Note_on_c, 0, 72, 96
2,99124, Note_on_c, 0, 67, 80
2,99126, Note_on_c, 0, 63, 82
2,99138, Note_on_c, 0, 46, 0
2,99221, Note_on_c, 0, 67, 0
2,99224, Note_on_c, 0, 63, 0
2,99236, Note_on_c, 0, 46, 77
2,99251, Note_on_c, 0, 48, 0
2,99263, Note_on_c, 0, 72, 0
2,99369, Note_on_c, 0, 45, 85
2,99371, Note_on_c, 0, 72, 101
2,99373, Note_on_c, 0, 66, 92
2,99379, Note_on_c, 0, 63, 89
2,99381, Note_on_c, 0, 46, 0
2,99453, Note_on_c, 0, 63, 0
2,99495, Note_on_c, 0, 43, 79
2,99504, Note_on_c, 0, 45, 0
2,99504, Note_on_c, 0, 72, 0
2,99580, Note_on_c, 0, 66, 0
2,99646, Note_on_c, 0, 45, 87
2,99646, Note_on_c, 0, 72, 99
2,99649, Note_on_c, 0, 63, 93
2,99650, Note_on_c, 0, 67, 83
2,99653, Note_on_c, 0, 43, 0
2,99703, Note_on_c, 0, 62, 23
2,99734, Note_on_c, 0, 72, 0
2,99743, Note_on_c, 0, 62, 0
2,99773, Note_on_c, 0, 63, 0
2,99785, Note_on_c, 0, 43, 71
2,99809, Note_on_c, 0, 45, 0
2,99985, Note_on_c, 0, 67, 0
2,100002, Note_on_c, 0, 72, 98
2,100005, Note_on_c, 0, 42, 85
2,100005, Note_on_c, 0, 69, 85
2,100007, Note_on_c, 0, 62, 91
2,100039, Note_on_c, 0, 43, 0
2,100582, Note_on_c, 0, 72, 0
2,100589, Note_on_c, 0, 62, 0
2,100598, Note_on_c, 0, 69, 0
2,100600, Note_on_c, 0, 42, 0
2,100869, Note_on_c, 0, 74, 97
2,100871, Note_on_c, 0, 66, 86
2,100877, Note_on_c, 0, 38, 93
2,100877, Note_on_c, 0, 62, 78
2,100883, Note_on_c, 0, 76, 63
2,100884, Note_on_c, 0, 76, 0
2,100912, Note_on_c, 0, 64, 30
2,100913, Note_on_c, 0, 64, 0
2,101087, Note_on_c, 0, 62, 0
2,101128, Note_on_c, 0, 66, 0
2,101164, Note_on_c, 0, 70, 97
2,101165, Note_on_c, 0, 74, 0
2,101170, Note_on_c, 0, 62, 82
2,101173, Note_on_c, 0, 43, 83
2,101175, Note_on_c, 0, 67, 78
2,101210, Note_on_c, 0, 38, 0
2,101510, Note_on_c, 0, 67, 0
2,101643, Note_on_c, 0, 43, 0
2,101643, Note_on_c, 0, 62, 0
2,101660, Note_on_c, 0, 70, 0
2,101908, Note_on_c, 0, 72, 96
2,101914, Note_on_c, 0, 48, 77
2,101915, Note_on_c, 0, 63, 80
2,101916, Note_on_c, 0, 69, 74
2,102146, Note_on_c, 0, 63, 0
2,102204, Note_on_c, 0, 69, 0
2,102212, Note_on_c, 0, 72, 0
2,102240, Note_on_c, 0, 70, 88
2,102246, Note_on_c, 0, 50, 57
2,102250, Note_on_c, 0, 62, 73
2,102257, Note_on_c, 0, 67, 68
2,102355, Note_on_c, 0, 48, 0
2,102524, Note_on_c, 0, 70, 0
2,102539, Note_on_c, 0, 69, 82
2,102579, Note_on_c, 0, 67, 0
2,102583, Note_on_c, 0, 71, 19
2,102613, Note_on_c, 0, 71, 0
2,102638, Note_on_c, 0, 62, 0
2,102719, Note_on_c, 0, 69, 0
2,102795, Note_on_c, 0, 69, 78
2,102797, Note_on_c, 0, 38, 48
2,102805, Note_on_c, 0, 66, 65
2,102817, Note_on_c, 0, 60, 54
2,102876, Note_on_c, 0, 50, 0
2,102965, Note_on_c, 0, 66, 0
2,103065, Note_on_c, 0, 67, 64
2,103101, Note_on_c, 0, 69, 0
2,103174, Note_on_c, 0, 60, 0
2,103250, Note_on_c, 0, 67, 0
2,103320, Note_on_c, 0, 38, 0
2,103345, Note_on_c, 0, 43, 41
2,103353, Note_on_c, 0, 58, 51
2,103359, Note_on_c, 0, 67, 47
2,103390, Note_on_c, 0, 62, 19
2,103439, Note_on_c, 0, 43, 0
2,103474, Note_on_c, 0, 50, 57
2,103524, Note_on_c, 0, 58, 0
2,103572, Note_on_c, 0, 62, 0
2,103582, Note_on_c, 0, 50, 0
2,103589, Note_on_c, 0, 52, 58
2,103604, Note_on_c, 0, 67, 0
2,103680, Note_on_c, 0, 52, 0
2,103707, Note_on_c, 0, 54, 61
2,103799, Note_on_c, 0, 54, 0
2,103824, Note_on_c, 0, 55, 58
2,103920, Note_on_c, 0, 55, 0
2,103925, Note_on_c, 0, 69, 58
2,103944, Note_on_c, 0, 54, 47
2,104013, Note_on_c, 0, 69, 0
2,104041, Note_on_c, 0, 54, 0
2,104046, Note_on_c, 0, 55, 61
2,104048, Note_on_c, 0, 70, 65
2,104086, Note_on_c, 0, 55, 0
2,104172, Note_on_c, 0, 70, 0
2,104175, Note_on_c, 0, 72, 65
2,104285, Note_on_c, 0, 72, 0
2,104291, Note_on_c, 0, 55, 45
2,104308, Note_on_c, 0, 74, 54
2,104363, Note_on_c, 0, 55, 0
2,104363, Note_on_c, 0, 55, 3
2,104411, Note_on_c, 0, 57, 60
2,104417, Note_on_c, 0, 74, 0
2,104423, Note_on_c, 0, 72, 62
2,104518, Note_on_c, 0, 57, 0
2,104521, Note_on_c, 0, 58, 66
2,104531, Note_on_c, 0, 72, 0
2,104534, Note_on_c, 0, 74, 65
2,104628, Note_on_c, 0, 58, 0
2,104641, Note_on_c, 0, 60, 64
2,104649, Note_on_c, 0, 74, 0
2,104652, Note_on_c, 0, 75, 67
2,104662, Note_on_c, 0, 55, 0
2,104730, Note_on_c, 0, 75, 0
2,104744, Note_on_c, 0, 60, 0
2,104764, Note_on_c, 0, 69, 72
2,104770, Note_on_c, 0, 62, 66
2,104854, Note_on_c, 0, 69, 0
2,104858, Note_on_c, 0, 62, 0
2,104871, Note_on_c, 0, 61, 60
2,104887, Note_on_c, 0, 64, 68
2,104898, Note_on_c, 0, 69, 37
2,104978, Note_on_c, 0, 61, 0
2,104984, Note_on_c, 0, 64, 0
2,104985, Note_on_c, 0, 62, 73
2,104992, Note_on_c, 0, 65, 68
2,104995, Note_on_c, 0, 53, 61
2,105040, Note_on_c, 0, 53, 0
2,105071, Note_on_c, 0, 65, 0
2,105101, Note_on_c, 0, 69, 0
2,105104, Note_on_c, 0, 67, 74
2,105221, Note_on_c, 0, 53, 66
2,105221, Note_on_c, 0, 67, 0
2,105221, Note_on_c, 0, 69, 71
2,105319, Note_on_c, 0, 69, 0
2,105328, Note_on_c, 0, 70, 71
2,105338, Note_on_c, 0, 67, 67
2,105427, Note_on_c, 0, 70, 0
2,105445, Note_on_c, 0, 62, 0
2,105452, Note_on_c, 0, 72, 76
2,105455, Note_on_c, 0, 69, 69
2,105457, Note_on_c, 0, 57, 65
2,105459, Note_on_c, 0, 67, 0
2,105539, Note_on_c, 0, 69, 0
2,105554, Note_on_c, 0, 53, 0
2,105561, Note_on_c, 0, 57, 0
2,105565, Note_on_c, 0, 59, 69
2,105566, Note_on_c, 0, 69, 58
2,105568, Note_on_c, 0, 74, 81
2,105572, Note_on_c, 0, 72, 0
2,105579, Note_on_c, 0, 53, 13
2,105665, Note_on_c, 0, 59, 0
2,105674, Note_on_c, 0, 60, 81
2,105679, Note_on_c, 0, 75, 83
2,105692, Note_on_c, 0, 74, 0
2,105784, Note_on_c, 0, 59, 80
2,105790, Note_on_c, 0, 74, 82
2,105793, Note_on_c, 0, 60, 0
2,105827, Note_on_c, 0, 75, 0
2,105836, Note_on_c, 0, 69, 0
2,105893, Note_on_c, 0, 68, 81
2,105893, Note_on_c, 0, 75, 73
2,105903, Note_on_c, 0, 74, 0
2,105911, Note_on_c, 0, 60, 82
2,105920, Note_on_c, 0, 59, 0
2,106006, Note_on_c, 0, 77, 82
2,106010, Note_on_c, 0, 75, 0
2,106052, Note_on_c, 0, 53, 0
2,106075, Note_on_c, 0, 68, 0
2,106120, Note_on_c, 0, 77, 0
2,106123, Note_on_c, 0, 60, 0
2,106123, Note_on_c, 0, 71, 84
2,106127, Note_on_c, 0, 62, 78
2,106129, Note_on_c, 0, 67, 76
2,106174, Note_on_c, 0, 67, 0
2,106187, Note_on_c, 0, 62, 0
2,106231, Note_on_c, 0, 71, 0
2,106239, Note_on_c, 0, 47, 80
2,106243, Note_on_c, 0, 67, 79
2,106355, Note_on_c, 0, 48, 70
2,106366, Note_on_c, 0, 69, 76
2,106395, Note_on_c, 0, 67, 0
2,106396, Note_on_c, 0, 47, 0
2,106463, Note_on_c, 0, 50, 76
2,106464, Note_on_c, 0, 48, 0
2,106475, Note_on_c, 0, 71, 83
2,106497, Note_on_c, 0, 69, 0
2,106579, Note_on_c, 0, 51, 84
2,106583, Note_on_c, 0, 50, 0
2,106588, Note_on_c, 0, 72, 86
2,106608, Note_on_c, 0, 71, 0
2,106694, Note_on_c, 0, 50, 76
2,106694, Note_on_c, 0, 51, 0
2,106694, Note_on_c, 0, 71, 91
2,106730, Note_on_c, 0, 72, 0
2,106802, Note_on_c, 0, 51, 87
2,106813, Note_on_c, 0, 72, 94
2,106814, Note_on_c, 0, 71, 0
2,106819, Note_on_c, 0, 50, 0
2,106915, Note_on_c, 0, 51, 0
2,106919, Note_on_c, 0, 70, 91
2,106923, Note_on_c, 0, 62, 80
2,106951, Note_on_c, 0, 72, 0
2,107031, Note_on_c, 0, 70, 0
2,107045, Note_on_c, 0, 62, 0
2,107047, Note_on_c, 0, 72, 94
2,107051, Note_on_c, 0, 69, 85
2,107053, Note_on_c, 0, 60, 80
2,107054, Note_on_c, 0, 51, 79
2,107083, Note_on_c, 0, 61, 33
2,107084, Note_on_c, 0, 61, 0
2,107166, Note_on_c, 0, 69, 0
2,107172, Note_on_c, 0, 67, 87
2,107197, Note_on_c, 0, 58, 75
2,107199, Note_on_c, 0, 60, 0
2,107199, Note_on_c, 0, 72, 0
2,107301, Note_on_c, 0, 58, 0
2,107301, Note_on_c, 0, 72, 102
2,107306, Note_on_c, 0, 60, 86
2,107307, Note_on_c, 0, 69, 86
2,107331, Note_on_c, 0, 67, 0
2,107407, Note_on_c, 0, 69, 0
2,107432, Note_on_c, 0, 58, 77
2,107432, Note_on_c, 0, 60, 0
2,107433, Note_on_c, 0, 67, 83
2,107444, Note_on_c, 0, 72, 0
2,107617, Note_on_c, 0, 57, 86
2,107619, Note_on_c, 0, 72, 97
2,107621, Note_on_c, 0, 66, 82
2,107643, Note_on_c, 0, 58, 0
2,107648, Note_on_c, 0, 67, 0
2,107676, Note_on_c, 0, 71, 29
2,107713, Note_on_c, 0, 71, 0
2,108156, Note_on_c, 0, 57, 0
2,108170, Note_on_c, 0, 51, 0
2,108174, Note_on_c, 0, 72, 0
2,108187, Note_on_c, 0, 66, 0
2,108449, Note_on_c, 0, 78, 107
2,108451, Note_on_c, 0, 51, 86
2,108452, Note_on_c, 0, 60, 94
2,108452, Note_on_c, 0, 69, 94
2,108699, Note_on_c, 0, 60, 0
2,108788, Note_on_c, 0, 78, 0
2,108795, Note_on_c, 0, 70, 83
2,108795, Note_on_c, 0, 79, 94
2,108804, Note_on_c, 0, 50, 79
2,108806, Note_on_c, 0, 62, 93
2,108837, Note_on_c, 0, 69, 0
2,108844, Note_on_c, 0, 51, 0
2,109084, Note_on_c, 0, 79, 0
2,109086, Note_on_c, 0, 70, 0
2,109163, Note_on_c, 0, 62, 0
2,109243, Note_on_c, 0, 50, 0
2,109414, Note_on_c, 0, 82, 100
2,109580, Note_on_c, 0, 81, 90
2,109584, Note_on_c, 0, 49, 96
2,109649, Note_on_c, 0, 82, 0
2,109686, Note_on_c, 0, 49, 0
2,109724, Note_on_c, 0, 79, 80
2,109724, Note_on_c, 0, 81, 0
2,109861, Note_on_c, 0, 50, 96
2,109863, Note_on_c, 0, 78, 84
2,109895, Note_on_c, 0, 79, 0
2,109945, Note_on_c, 0, 80, 23
2,109988, Note_on_c, 0, 76, 79
2,109992, Note_on_c, 0, 80, 0
2,109997, Note_on_c, 0, 57, 69
2,110114, Note_on_c, 0, 58, 72
2,110115, Note_on_c, 0, 74, 79
2,110126, Note_on_c, 0, 57, 0
2,110137, Note_on_c, 0, 78, 0
2,110171, Note_on_c, 0, 76, 0
2,110217, Note_on_c, 0, 74, 0
2,110219, Note_on_c, 0, 72, 84
2,110229, Note_on_c, 0, 60, 73
2,110246, Note_on_c, 0, 58, 0
2,110263, Note_on_c, 0, 50, 0
2,110331, Note_on_c, 0, 70, 80
2,110339, Note_on_c, 0, 62, 82
2,110343, Note_on_c, 0, 72, 0
2,110352, Note_on_c, 0, 60, 0
2,110448, Note_on_c, 0, 69, 73
2,110465, Note_on_c, 0, 70, 0
2,110546, Note_on_c, 0, 69, 0
2,110556, Note_on_c, 0, 67, 78
2,110563, Note_on_c, 0, 50, 84
2,110603, Note_on_c, 0, 50, 0
2,110673, Note_on_c, 0, 67, 0
2,110678, Note_on_c, 0, 66, 70
2,110796, Note_on_c, 0, 67, 78
2,110802, Note_on_c, 0, 62, 0
2,110807, Note_on_c, 0, 51, 98
2,110825, Note_on_c, 0, 66, 0
2,110929, Note_on_c, 0, 55, 80
2,110935, Note_on_c, 0, 59, 74
2,111014, Note_on_c, 0, 59, 0
2,111040, Note_on_c, 0, 60, 73
2,111044, Note_on_c, 0, 55, 0
2,111050, Note_on_c, 0, 57, 75
2,111095, Note_on_c, 0, 57, 0
2,111124, Note_on_c, 0, 51, 0
2,111152, Note_on_c, 0, 59, 71
2,111158, Note_on_c, 0, 60, 0
2,111159, Note_on_c, 0, 62, 76
2,111269, Note_on_c, 0, 59, 0
2,111271, Note_on_c, 0, 60, 82
2,111272, Note_on_c, 0, 48, 95
2,111275, Note_on_c, 0, 62, 0
2,111277, Note_on_c, 0, 63, 77
2,111347, Note_on_c, 0, 60, 0
2,111385, Note_on_c, 0, 63, 0
2,111391, Note_on_c, 0, 62, 77
2,111392, Note_on_c, 0, 59, 74
2,111474, Note_on_c, 0, 59, 0
2,111512, Note_on_c, 0, 60, 81
2,111512, Note_on_c, 0, 63, 75
2,111537, Note_on_c, 0, 62, 0
2,111556, Note_on_c, 0, 60, 0
2,111578, Note_on_c, 0, 63, 0
2,111641, Note_on_c, 0, 48, 0
2,111759, Note_on_c, 0, 63, 79
2,111765, Note_on_c, 0, 60, 76
2,111859, Note_on_c, 0, 45, 88
2,111984, Note_on_c, 0, 47, 85
2,111998, Note_on_c, 0, 45, 0
2,112104, Note_on_c, 0, 48, 91
2,112112, Note_on_c, 0, 47, 0
2,112208, Note_on_c, 0, 48, 0
2,112212, Note_on_c, 0, 50, 94
2,112247, Note_on_c, 0, 60, 0
2,112304, Note_on_c, 0, 63, 0
2,112329, Note_on_c, 0, 57, 83
2,112344, Note_on_c, 0, 60, 85
2,112422, Note_on_c, 0, 57, 0
2,112449, Note_on_c, 0, 62, 80
2,112451, Note_on_c, 0, 60, 0
2,112464, Note_on_c, 0, 59, 69
2,112507, Note_on_c, 0, 59, 0
2,112560, Note_on_c, 0, 60, 81
2,112560, Note_on_c, 0, 63, 81
2,112564, Note_on_c, 0, 62, 0
2,112569, Note_on_c, 0, 50, 0
2,112666, Note_on_c, 0, 47, 91
2,112674, Note_on_c, 0, 63, 0
2,112676, Note_on_c, 0, 60, 0
2,112676, Note_on_c, 0, 62, 79
2,112676, Note_on_c, 0, 65, 79
2,112746, Note_on_c, 0, 62, 0
2,112776, Note_on_c, 0, 65, 0
2,112787, Note_on_c, 0, 63, 79
2,112790, Note_on_c, 0, 60, 80
2,112861, Note_on_c, 0, 60, 0
2,112890, Note_on_c, 0, 63, 0
2,112902, Note_on_c, 0, 62, 74
2,112902, Note_on_c, 0, 65, 77
2,112975, Note_on_c, 0, 62, 0
2,112994, Note_on_c, 0, 65, 0
2,113049, Note_on_c, 0, 47, 0
2,113158, Note_on_c, 0, 62, 82
2,113161, Note_on_c, 0, 65, 81
2,113270, Note_on_c, 0, 43, 92
2,113294, Note_on_c, 0, 65, 0
2,113312, Note_on_c, 0, 62, 0
2,113387, Note_on_c, 0, 45, 84
2,113402, Note_on_c, 0, 43, 0
2,113499, Note_on_c, 0, 47, 85
2,113508, Note_on_c, 0, 45, 0
2,113622, Note_on_c, 0, 48, 91
2,113647, Note_on_c, 0, 47, 0
2,113762, Note_on_c, 0, 48, 0
2,113871, Note_on_c, 0, 67, 0
2,113876, Note_on_c, 0, 48, 70
2,113878, Note_on_c, 0, 65, 55
2,113878, Note_on_c, 0, 68, 63
2,113952, Note_on_c, 0, 65, 0
2,114012, Note_on_c, 0, 68, 0
2,114012, Note_on_c, 0, 74, 74
2,114077, Note_on_c, 0, 48, 0
2,114139, Note_on_c, 0, 67, 71
2,114144, Note_on_c, 0, 48, 74
2,114148, Note_on_c, 0, 63, 60
2,114248, Note_on_c, 0, 72, 86
2,114258, Note_on_c, 0, 67, 0
2,114278, Note_on_c, 0, 63, 0
2,114300, Note_on_c, 0, 48, 0
2,114351, Note_on_c, 0, 72, 0
2,114367, Note_on_c, 0, 74, 0
2,114374, Note_on_c, 0, 48, 82
2,114377, Note_on_c, 0, 65, 83
2,114379, Note_on_c, 0, 62, 79
2,114389, Note_on_c, 0, 60, 73
2,114435, Note_on_c, 0, 60, 0
2,114481, Note_on_c, 0, 70, 91
2,114497, Note_on_c, 0, 65, 0
2,114499, Note_on_c, 0, 48, 0
2,114594, Note_on_c, 0, 63, 88
2,114597, Note_on_c, 0, 60, 90
2,114603, Note_on_c, 0, 48, 84
2,114609, Note_on_c, 0, 70, 0
2,114724, Note_on_c, 0, 69, 86
2,114732, Note_on_c, 0, 62, 0
2,114767, Note_on_c, 0, 48, 0
2,114839, Note_on_c, 0, 60, 0
2,114842, Note_on_c, 0, 58, 94
2,114845, Note_on_c, 0, 48, 77
2,114943, Note_on_c, 0, 48, 0
2,114955, Note_on_c, 0, 67, 90
2,115000, Note_on_c, 0, 69, 0
2,115048, Note_on_c, 0, 63, 0
2,115112, Note_on_c, 0, 66, 94
2,115114, Note_on_c, 0, 57, 86
2,115114, Note_on_c, 0, 58, 0
2,115114, Note_on_c, 0, 62, 90
2,115117, Note_on_c, 0, 48, 72
2,115154, Note_on_c, 0, 67, 0
2,115207, Note_on_c, 0, 62, 0
2,115247, Note_on_c, 0, 66, 0
2,115401, Note_on_c, 0, 72, 107
2,115404, Note_on_c, 0, 46, 84
2,115434, Note_on_c, 0, 48, 0
2,115437, Note_on_c, 0, 57, 0
2,115579, Note_on_c, 0, 45, 82
2,115586, Note_on_c, 0, 74, 86
2,115616, Note_on_c, 0, 46, 0
2,115622, Note_on_c, 0, 72, 0
2,115660, Note_on_c, 0, 75, 86
2,115675, Note_on_c, 0, 74, 0
2,115717, Note_on_c, 0, 46, 87
2,115722, Note_on_c, 0, 74, 89
2,115749, Note_on_c, 0, 45, 0
2,115782, Note_on_c, 0, 75, 0
2,115824, Note_on_c, 0, 74, 0
2,116044, Note_on_c, 0, 67, 91
2,116046, Note_on_c, 0, 48, 78
2,116057, Note_on_c, 0, 58, 81
2,116060, Note_on_c, 0, 63, 73
2,116070, Note_on_c, 0, 46, 0
2,116327, Note_on_c, 0, 63, 0
2,116400, Note_on_c, 0, 57, 97
2,116406, Note_on_c, 0, 50, 81
2,116414, Note_on_c, 0, 62, 75
2,116432, Note_on_c, 0, 58, 0
2,116446, Note_on_c, 0, 48, 0
2,116604, Note_on_c, 0, 58, 91
2,116637, Note_on_c, 0, 57, 0
2,116800, Note_on_c, 0, 62, 0
2,116805, Note_on_c, 0, 58, 0
2,116817, Note_on_c, 0, 50, 0
2,116821, Note_on_c, 0, 66, 88
2,116823, Note_on_c, 0, 60, 100
2,116824, Note_on_c, 0, 38, 77
2,116827, Note_on_c, 0, 62, 38
2,116868, Note_on_c, 0, 67, 0
2,117308, Note_on_c, 0, 62, 0
2,117325, Note_on_c, 0, 66, 0
2,117330, Note_on_c, 0, 43, 84
2,117330, Note_on_c, 0, 67, 93
2,117380, Note_on_c, 0, 38, 0
2,117393, Note_on_c, 0, 62, 4
2,117859, Note_on_c, 0, 59, 72
2,117913, Note_on_c, 0, 60, 0
2,118589, Note_on_c, 0, 43, 0
2,118602, Note_on_c, 0, 67, 0
2,118628, Note_on_c, 0, 59, 0
2,118632, Note_on_c, 0, 62, 0
2,118633, End_track
0, 0, End_of_file
