0, 0, Header, 1, 2, 480
1, 0, Start_track
1, 0, Tempo, 500000
1, 0, Time_signature, 4, 2, 24, 8
1, 1, End_track
2,0,Start_track
2,0, Note_on_c, 0, 62, 76
2,308, Note_on_c, 0, 62, 0
2,811, Note_on_c, 0, 58, 76
2,844, Note_on_c, 0, 58, 0
2,1111, Note_on_c, 0, 63, 81
2,1391, Note_on_c, 0, 63, 0
2,1719, Note_on_c, 0, 60, 79
2,2073, Note_on_c, 0, 60, 0
2,2556, Note_on_c, 0, 57, 83
2,2589, Note_on_c, 0, 57, 0
2,2860, Note_on_c, 0, 62, 89
2,3154, Note_on_c, 0, 62, 0
2,3492, Note_on_c, 0, 58, 81
2,3859, Note_on_c, 0, 58, 0
2,4362, Note_on_c, 0, 55, 65
2,4398, Note_on_c, 0, 55, 0
2,4654, Note_on_c, 0, 60, 61
2,4695, Note_on_c, 0, 60, 0
2,4933, Note_on_c, 0, 60, 72
2,4975, Note_on_c, 0, 60, 0
2,5208, Note_on_c, 0, 60, 81
2,5240, Note_on_c, 0, 60, 0
2,5488, Note_on_c, 0, 60, 79
2,5519, Note_on_c, 0, 60, 0
2,5767, Note_on_c, 0, 60, 64
2,5791, Note_on_c, 0, 60, 0
2,6054, Note_on_c, 0, 60, 64
2,6079, Note_on_c, 0, 60, 0
2,6348, Note_on_c, 0, 60, 64
2,6632, Note_on_c, 0, 60, 0
2,6653, Note_on_c, 0, 58, 55
2,6686, Note_on_c, 0, 58, 0
2,6792, Note_on_c, 0, 57, 65
2,6833, Note_on_c, 0, 57, 0
2,6922, Note_on_c, 0, 67, 80
2,6934, Note_on_c, 0, 58, 70
2,6967, Note_on_c, 0, 58, 0
2,7064, Note_on_c, 0, 55, 66
2,7098, Note_on_c, 0, 55, 0
2,7204, Note_on_c, 0, 58, 77
2,7242, Note_on_c, 0, 58, 0
2,7349, Note_on_c, 0, 60, 76
2,7354, Note_on_c, 0, 67, 0
2,7383, Note_on_c, 0, 60, 0
2,7468, Note_on_c, 0, 62, 85
2,7501, Note_on_c, 0, 62, 0
2,7615, Note_on_c, 0, 61, 73
2,7642, Note_on_c, 0, 61, 0
2,7739, Note_on_c, 0, 65, 84
2,7741, Note_on_c, 0, 62, 86
2,7821, Note_on_c, 0, 65, 0
2,7839, Note_on_c, 0, 62, 0
2,8037, Note_on_c, 0, 70, 90
2,8055, Note_on_c, 0, 62, 75
2,8184, Note_on_c, 0, 62, 0
2,8323, Note_on_c, 0, 70, 0
2,8355, Note_on_c, 0, 55, 69
2,8592, Note_on_c, 0, 55, 0
2,8644, Note_on_c, 0, 67, 93
2,8774, Note_on_c, 0, 55, 69
2,8816, Note_on_c, 0, 55, 0
2,8913, Note_on_c, 0, 57, 84
2,8947, Note_on_c, 0, 57, 0
2,9044, Note_on_c, 0, 58, 81
2,9075, Note_on_c, 0, 67, 0
2,9080, Note_on_c, 0, 58, 0
2,9180, Note_on_c, 0, 60, 83
2,9212, Note_on_c, 0, 60, 0
2,9306, Note_on_c, 0, 58, 69
2,9343, Note_on_c, 0, 58, 0
2,9443, Note_on_c, 0, 64, 87
2,9446, Note_on_c, 0, 60, 77
2,9533, Note_on_c, 0, 64, 0
2,9578, Note_on_c, 0, 60, 0
2,9739, Note_on_c, 0, 69, 90
2,9751, Note_on_c, 0, 60, 74
2,9865, Note_on_c, 0, 60, 0
2,10035, Note_on_c, 0, 69, 0
2,10046, Note_on_c, 0, 53, 73
2,10308, Note_on_c, 0, 53, 0
2,10336, Note_on_c, 0, 65, 87
2,10484, Note_on_c, 0, 53, 72
2,10527, Note_on_c, 0, 53, 0
2,10624, Note_on_c, 0, 55, 78
2,10652, Note_on_c, 0, 55, 0
2,10751, Note_on_c, 0, 57, 83
2,10790, Note_on_c, 0, 57, 0
2,10830, Note_on_c, 0, 65, 0
2,10882, Note_on_c, 0, 58, 83
2,10925, Note_on_c, 0, 58, 0
2,11023, Note_on_c, 0, 57, 77
2,11059, Note_on_c, 0, 57, 0
2,11168, Note_on_c, 0, 58, 76
2,11176, Note_on_c, 0, 62, 75
2,11292, Note_on_c, 0, 62, 0
2,11481, Note_on_c, 0, 67, 81
2,11555, Note_on_c, 0, 67, 0
2,11618, Note_on_c, 0, 57, 73
2,11624, Note_on_c, 0, 58, 0
2,11765, Note_on_c, 0, 57, 0
2,11765, Note_on_c, 0, 67, 90
2,11773, Note_on_c, 0, 58, 79
2,11820, Note_on_c, 0, 67, 0
2,11900, Note_on_c, 0, 57, 77
2,11936, Note_on_c, 0, 58, 0
2,11981, Note_on_c, 0, 57, 0
2,12047, Note_on_c, 0, 67, 91
2,12052, Note_on_c, 0, 55, 81
2,12093, Note_on_c, 0, 67, 0
2,12097, Note_on_c, 0, 55, 0
2,12182, Note_on_c, 0, 53, 80
2,12220, Note_on_c, 0, 53, 0
2,12324, Note_on_c, 0, 55, 81
2,12328, Note_on_c, 0, 67, 95
2,12370, Note_on_c, 0, 55, 0
2,12370, Note_on_c, 0, 67, 0
2,12459, Note_on_c, 0, 53, 74
2,12495, Note_on_c, 0, 53, 0
2,12597, Note_on_c, 0, 67, 92
2,12606, Note_on_c, 0, 52, 83
2,12649, Note_on_c, 0, 52, 0
2,12656, Note_on_c, 0, 67, 0
2,12741, Note_on_c, 0, 50, 79
2,12777, Note_on_c, 0, 50, 0
2,12876, Note_on_c, 0, 52, 78
2,12880, Note_on_c, 0, 67, 90
2,12912, Note_on_c, 0, 52, 0
2,12929, Note_on_c, 0, 67, 0
2,13012, Note_on_c, 0, 50, 74
2,13055, Note_on_c, 0, 50, 0
2,13159, Note_on_c, 0, 49, 81
2,13163, Note_on_c, 0, 67, 94
2,13188, Note_on_c, 0, 49, 0
2,13457, Note_on_c, 0, 65, 78
2,13459, Note_on_c, 0, 67, 0
2,13464, Note_on_c, 0, 57, 69
2,13489, Note_on_c, 0, 57, 0
2,13518, Note_on_c, 0, 65, 0
2,13580, Note_on_c, 0, 64, 77
2,13622, Note_on_c, 0, 64, 0
2,13723, Note_on_c, 0, 74, 93
2,13725, Note_on_c, 0, 50, 66
2,13736, Note_on_c, 0, 65, 81
2,13751, Note_on_c, 0, 50, 0
2,13769, Note_on_c, 0, 65, 0
2,13877, Note_on_c, 0, 62, 64
2,13948, Note_on_c, 0, 62, 0
2,14013, Note_on_c, 0, 60, 76
2,14019, Note_on_c, 0, 64, 71
2,14046, Note_on_c, 0, 60, 0
2,14067, Note_on_c, 0, 64, 0
2,14115, Note_on_c, 0, 74, 0
2,14152, Note_on_c, 0, 66, 64
2,14189, Note_on_c, 0, 66, 0
2,14272, Note_on_c, 0, 58, 68
2,14273, Note_on_c, 0, 67, 69
2,14308, Note_on_c, 0, 58, 0
2,14308, Note_on_c, 0, 67, 0
2,14410, Note_on_c, 0, 66, 72
2,14441, Note_on_c, 0, 66, 0
2,14533, Note_on_c, 0, 55, 73
2,14537, Note_on_c, 0, 70, 88
2,14539, Note_on_c, 0, 67, 78
2,14569, Note_on_c, 0, 55, 0
2,14589, Note_on_c, 0, 67, 0
2,14612, Note_on_c, 0, 70, 0
2,14815, Note_on_c, 0, 75, 93
2,14824, Note_on_c, 0, 60, 84
2,14824, Note_on_c, 0, 67, 80
2,14857, Note_on_c, 0, 60, 0
2,14959, Note_on_c, 0, 58, 84
2,15006, Note_on_c, 0, 58, 0
2,15093, Note_on_c, 0, 60, 89
2,15146, Note_on_c, 0, 60, 0
2,15204, Note_on_c, 0, 75, 0
2,15211, Note_on_c, 0, 67, 0
2,15218, Note_on_c, 0, 58, 81
2,15259, Note_on_c, 0, 58, 0
2,15348, Note_on_c, 0, 57, 88
2,15355, Note_on_c, 0, 72, 97
2,15493, Note_on_c, 0, 60, 72
2,15623, Note_on_c, 0, 62, 84
2,15643, Note_on_c, 0, 60, 0
2,15662, Note_on_c, 0, 57, 0
2,15662, Note_on_c, 0, 62, 0
2,15689, Note_on_c, 0, 72, 0
2,15744, Note_on_c, 0, 55, 68
2,15758, Note_on_c, 0, 63, 78
2,15782, Note_on_c, 0, 55, 0
2,15788, Note_on_c, 0, 63, 0
2,15881, Note_on_c, 0, 57, 80
2,15886, Note_on_c, 0, 65, 75
2,15912, Note_on_c, 0, 57, 0
2,15920, Note_on_c, 0, 65, 0
2,16017, Note_on_c, 0, 63, 59
2,16046, Note_on_c, 0, 63, 0
2,16143, Note_on_c, 0, 69, 83
2,16154, Note_on_c, 0, 53, 75
2,16154, Note_on_c, 0, 65, 80
2,16193, Note_on_c, 0, 53, 0
2,16197, Note_on_c, 0, 65, 0
2,16210, Note_on_c, 0, 69, 0
2,16434, Note_on_c, 0, 74, 98
2,16439, Note_on_c, 0, 65, 87
2,16454, Note_on_c, 0, 58, 76
2,16486, Note_on_c, 0, 58, 0
2,16579, Note_on_c, 0, 57, 79
2,16621, Note_on_c, 0, 57, 0
2,16706, Note_on_c, 0, 58, 86
2,16757, Note_on_c, 0, 58, 0
2,16801, Note_on_c, 0, 74, 0
2,16822, Note_on_c, 0, 65, 0
2,16840, Note_on_c, 0, 57, 82
2,16874, Note_on_c, 0, 57, 0
2,16965, Note_on_c, 0, 55, 88
2,16970, Note_on_c, 0, 70, 87
2,17119, Note_on_c, 0, 58, 73
2,17241, Note_on_c, 0, 60, 75
2,17244, Note_on_c, 0, 57, 84
2,17248, Note_on_c, 0, 58, 0
2,17265, Note_on_c, 0, 55, 0
2,17267, Note_on_c, 0, 70, 0
2,17283, Note_on_c, 0, 60, 0
2,17290, Note_on_c, 0, 57, 0
2,17371, Note_on_c, 0, 58, 86
2,17375, Note_on_c, 0, 62, 78
2,17413, Note_on_c, 0, 58, 0
2,17415, Note_on_c, 0, 62, 0
2,17509, Note_on_c, 0, 63, 85
2,17513, Note_on_c, 0, 60, 96
2,17561, Note_on_c, 0, 63, 0
2,17654, Note_on_c, 0, 62, 73
2,17702, Note_on_c, 0, 62, 0
2,17770, Note_on_c, 0, 60, 0
2,17790, Note_on_c, 0, 67, 87
2,17795, Note_on_c, 0, 63, 89
2,17935, Note_on_c, 0, 58, 68
2,17950, Note_on_c, 0, 67, 0
2,17968, Note_on_c, 0, 58, 0
2,18094, Note_on_c, 0, 57, 72
2,18094, Note_on_c, 0, 72, 78
2,18126, Note_on_c, 0, 63, 0
2,18184, Note_on_c, 0, 72, 0
2,18227, Note_on_c, 0, 62, 61
2,18307, Note_on_c, 0, 62, 0
2,18365, Note_on_c, 0, 72, 77
2,18378, Note_on_c, 0, 63, 59
2,18421, Note_on_c, 0, 57, 0
2,18427, Note_on_c, 0, 63, 0
2,18446, Note_on_c, 0, 72, 0
2,18504, Note_on_c, 0, 62, 51
2,18563, Note_on_c, 0, 62, 0
2,18647, Note_on_c, 0, 60, 64
2,18647, Note_on_c, 0, 72, 82
2,18683, Note_on_c, 0, 72, 0
2,18687, Note_on_c, 0, 60, 0
2,18802, Note_on_c, 0, 58, 48
2,18835, Note_on_c, 0, 58, 0
2,18918, Note_on_c, 0, 60, 78
2,18923, Note_on_c, 0, 72, 85
2,18927, Note_on_c, 0, 55, 70
2,18949, Note_on_c, 0, 60, 0
2,18958, Note_on_c, 0, 72, 0
2,18964, Note_on_c, 0, 55, 0
2,19059, Note_on_c, 0, 58, 78
2,19089, Note_on_c, 0, 58, 0
2,19194, Note_on_c, 0, 54, 83
2,19199, Note_on_c, 0, 57, 85
2,19199, Note_on_c, 0, 72, 91
2,19229, Note_on_c, 0, 54, 0
2,19229, Note_on_c, 0, 57, 0
2,19249, Note_on_c, 0, 72, 0
2,19338, Note_on_c, 0, 55, 83
2,19368, Note_on_c, 0, 55, 0
2,19463, Note_on_c, 0, 57, 99
2,19467, Note_on_c, 0, 72, 96
2,19476, Note_on_c, 0, 52, 80
2,19502, Note_on_c, 0, 57, 0
2,19513, Note_on_c, 0, 52, 0
2,19528, Note_on_c, 0, 72, 0
2,19604, Note_on_c, 0, 55, 91
2,19634, Note_on_c, 0, 55, 0
2,19747, Note_on_c, 0, 50, 86
2,19747, Note_on_c, 0, 54, 92
2,19752, Note_on_c, 0, 72, 98
2,19863, Note_on_c, 0, 50, 0
2,19892, Note_on_c, 0, 54, 0
2,20046, Note_on_c, 0, 54, 85
2,20050, Note_on_c, 0, 70, 85
2,20055, Note_on_c, 0, 62, 83
2,20077, Note_on_c, 0, 54, 0
2,20117, Note_on_c, 0, 72, 0
2,20180, Note_on_c, 0, 69, 75
2,20202, Note_on_c, 0, 70, 0
2,20253, Note_on_c, 0, 62, 0
2,20330, Note_on_c, 0, 55, 95
2,20336, Note_on_c, 0, 70, 82
2,20357, Note_on_c, 0, 69, 0
2,20421, Note_on_c, 0, 70, 0
2,20476, Note_on_c, 0, 67, 76
2,20505, Note_on_c, 0, 67, 0
2,20606, Note_on_c, 0, 70, 83
2,20612, Note_on_c, 0, 67, 77
2,20623, Note_on_c, 0, 62, 77
2,20649, Note_on_c, 0, 67, 0
2,20654, Note_on_c, 0, 70, 0
2,20697, Note_on_c, 0, 62, 0
2,20703, Note_on_c, 0, 55, 0
2,20746, Note_on_c, 0, 72, 91
2,20772, Note_on_c, 0, 64, 61
2,20781, Note_on_c, 0, 65, 65
2,20796, Note_on_c, 0, 72, 0
2,20810, Note_on_c, 0, 65, 0
2,20815, Note_on_c, 0, 64, 0
2,20875, Note_on_c, 0, 65, 82
2,20875, Note_on_c, 0, 74, 89
2,20920, Note_on_c, 0, 65, 0
2,20931, Note_on_c, 0, 74, 0
2,21008, Note_on_c, 0, 73, 81
2,21013, Note_on_c, 0, 64, 71
2,21035, Note_on_c, 0, 64, 0
2,21053, Note_on_c, 0, 73, 0
2,21144, Note_on_c, 0, 65, 90
2,21144, Note_on_c, 0, 74, 91
2,21148, Note_on_c, 0, 53, 85
2,21177, Note_on_c, 0, 65, 0
2,21183, Note_on_c, 0, 53, 0
2,21276, Note_on_c, 0, 69, 73
2,21284, Note_on_c, 0, 74, 0
2,21324, Note_on_c, 0, 69, 0
2,21418, Note_on_c, 0, 74, 89
2,21423, Note_on_c, 0, 58, 94
2,21434, Note_on_c, 0, 62, 97
2,21561, Note_on_c, 0, 69, 72
2,21576, Note_on_c, 0, 74, 0
2,21635, Note_on_c, 0, 69, 0
2,21701, Note_on_c, 0, 67, 82
2,21717, Note_on_c, 0, 58, 0
2,21833, Note_on_c, 0, 65, 74
2,21840, Note_on_c, 0, 67, 0
2,21965, Note_on_c, 0, 65, 0
2,21970, Note_on_c, 0, 64, 86
2,21976, Note_on_c, 0, 55, 91
2,22037, Note_on_c, 0, 64, 0
2,22065, Note_on_c, 0, 62, 0
2,22110, Note_on_c, 0, 67, 81
2,22161, Note_on_c, 0, 67, 0
2,22234, Note_on_c, 0, 60, 72
2,22243, Note_on_c, 0, 69, 84
2,22283, Note_on_c, 0, 69, 0
2,22292, Note_on_c, 0, 60, 0
2,22366, Note_on_c, 0, 70, 90
2,22371, Note_on_c, 0, 58, 70
2,22401, Note_on_c, 0, 55, 0
2,22410, Note_on_c, 0, 58, 0
2,22419, Note_on_c, 0, 70, 0
2,22502, Note_on_c, 0, 72, 93
2,22514, Note_on_c, 0, 57, 76
2,22549, Note_on_c, 0, 57, 0
2,22553, Note_on_c, 0, 72, 0
2,22634, Note_on_c, 0, 70, 82
2,22674, Note_on_c, 0, 70, 0
2,22770, Note_on_c, 0, 72, 93
2,22772, Note_on_c, 0, 52, 83
2,22778, Note_on_c, 0, 55, 74
2,22810, Note_on_c, 0, 52, 0
2,22810, Note_on_c, 0, 55, 0
2,22859, Note_on_c, 0, 72, 0
2,22904, Note_on_c, 0, 67, 78
2,22941, Note_on_c, 0, 67, 0
2,23046, Note_on_c, 0, 72, 87
2,23053, Note_on_c, 0, 57, 92
2,23053, Note_on_c, 0, 60, 91
2,23193, Note_on_c, 0, 67, 80
2,23206, Note_on_c, 0, 72, 0
2,23254, Note_on_c, 0, 67, 0
2,23331, Note_on_c, 0, 65, 84
2,23352, Note_on_c, 0, 57, 0
2,23465, Note_on_c, 0, 64, 84
2,23482, Note_on_c, 0, 65, 0
2,23601, Note_on_c, 0, 64, 0
2,23605, Note_on_c, 0, 53, 89
2,23605, Note_on_c, 0, 62, 85
2,23673, Note_on_c, 0, 62, 0
2,23743, Note_on_c, 0, 65, 78
2,23786, Note_on_c, 0, 65, 0
2,23862, Note_on_c, 0, 60, 0
2,23875, Note_on_c, 0, 67, 86
2,23880, Note_on_c, 0, 58, 74
2,23920, Note_on_c, 0, 67, 0
2,23949, Note_on_c, 0, 58, 0
2,23998, Note_on_c, 0, 69, 82
2,24007, Note_on_c, 0, 57, 83
2,24022, Note_on_c, 0, 53, 0
2,24051, Note_on_c, 0, 69, 0
2,24057, Note_on_c, 0, 57, 0
2,24136, Note_on_c, 0, 70, 88
2,24143, Note_on_c, 0, 55, 83
2,24174, Note_on_c, 0, 55, 0
2,24201, Note_on_c, 0, 70, 0
2,24272, Note_on_c, 0, 69, 83
2,24341, Note_on_c, 0, 69, 0
2,24410, Note_on_c, 0, 50, 78
2,24410, Note_on_c, 0, 70, 89
2,24419, Note_on_c, 0, 53, 69
2,24442, Note_on_c, 0, 50, 0
2,24445, Note_on_c, 0, 53, 0
2,24554, Note_on_c, 0, 65, 74
2,24678, Note_on_c, 0, 58, 80
2,24682, Note_on_c, 0, 55, 75
2,24693, Note_on_c, 0, 64, 82
2,24693, Note_on_c, 0, 65, 0
2,24753, Note_on_c, 0, 55, 0
2,24790, Note_on_c, 0, 70, 0
2,24828, Note_on_c, 0, 69, 70
2,24956, Note_on_c, 0, 55, 73
2,24956, Note_on_c, 0, 64, 0
2,24956, Note_on_c, 0, 70, 78
2,24979, Note_on_c, 0, 69, 0
2,25035, Note_on_c, 0, 55, 0
2,25052, Note_on_c, 0, 70, 0
2,25095, Note_on_c, 0, 65, 74
2,25099, Note_on_c, 0, 69, 76
2,25124, Note_on_c, 0, 69, 0
2,25126, Note_on_c, 0, 65, 0
2,25222, Note_on_c, 0, 64, 97
2,25222, Note_on_c, 0, 67, 84
2,25226, Note_on_c, 0, 55, 80
2,25239, Note_on_c, 0, 58, 0
2,25262, Note_on_c, 0, 55, 0
2,25373, Note_on_c, 0, 65, 80
2,25378, Note_on_c, 0, 67, 0
2,25494, Note_on_c, 0, 55, 92
2,25499, Note_on_c, 0, 67, 83
2,25507, Note_on_c, 0, 64, 0
2,25509, Note_on_c, 0, 65, 0
2,25524, Note_on_c, 0, 55, 0
2,25634, Note_on_c, 0, 67, 0
2,25636, Note_on_c, 0, 65, 70
2,25641, Note_on_c, 0, 62, 75
2,25658, Note_on_c, 0, 65, 0
2,25672, Note_on_c, 0, 62, 0
2,25751, Note_on_c, 0, 55, 89
2,25755, Note_on_c, 0, 64, 87
2,25759, Note_on_c, 0, 61, 87
2,25778, Note_on_c, 0, 55, 0
2,25915, Note_on_c, 0, 62, 86
2,25919, Note_on_c, 0, 64, 0
2,26026, Note_on_c, 0, 55, 92
2,26030, Note_on_c, 0, 64, 87
2,26035, Note_on_c, 0, 61, 0
2,26055, Note_on_c, 0, 55, 0
2,26055, Note_on_c, 0, 62, 0
2,26165, Note_on_c, 0, 62, 82
2,26174, Note_on_c, 0, 64, 0
2,26298, Note_on_c, 0, 57, 84
2,26298, Note_on_c, 0, 61, 85
2,26305, Note_on_c, 0, 55, 98
2,26309, Note_on_c, 0, 62, 0
2,26330, Note_on_c, 0, 57, 0
2,26334, Note_on_c, 0, 61, 0
2,26592, Note_on_c, 0, 55, 0
2,26592, Note_on_c, 0, 69, 85
2,26601, Note_on_c, 0, 53, 70
2,26617, Note_on_c, 0, 69, 0
2,26702, Note_on_c, 0, 53, 0
2,26729, Note_on_c, 0, 52, 67
2,26832, Note_on_c, 0, 52, 0
2,26860, Note_on_c, 0, 53, 67
2,26864, Note_on_c, 0, 62, 74
2,26896, Note_on_c, 0, 62, 0
2,26964, Note_on_c, 0, 53, 0
2,27000, Note_on_c, 0, 50, 62
2,27107, Note_on_c, 0, 50, 0
2,27131, Note_on_c, 0, 51, 64
2,27135, Note_on_c, 0, 72, 65
2,27159, Note_on_c, 0, 72, 0
2,27246, Note_on_c, 0, 51, 0
2,27277, Note_on_c, 0, 53, 55
2,27364, Note_on_c, 0, 53, 0
2,27400, Note_on_c, 0, 71, 63
2,27408, Note_on_c, 0, 55, 51
2,27487, Note_on_c, 0, 55, 0
2,27514, Note_on_c, 0, 71, 0
2,27532, Note_on_c, 0, 53, 52
2,27532, Note_on_c, 0, 74, 66
2,27635, Note_on_c, 0, 53, 0
2,27639, Note_on_c, 0, 74, 0
2,27650, Note_on_c, 0, 55, 57
2,27650, Note_on_c, 0, 77, 78
2,27691, Note_on_c, 0, 55, 0
2,27793, Note_on_c, 0, 74, 72
2,27824, Note_on_c, 0, 77, 0
2,27920, Note_on_c, 0, 75, 68
2,27929, Note_on_c, 0, 48, 59
2,27961, Note_on_c, 0, 74, 0
2,28023, Note_on_c, 0, 48, 0
2,28064, Note_on_c, 0, 47, 55
2,28176, Note_on_c, 0, 47, 0
2,28200, Note_on_c, 0, 48, 57
2,28209, Note_on_c, 0, 67, 75
2,28237, Note_on_c, 0, 67, 0
2,28251, Note_on_c, 0, 75, 0
2,28260, Note_on_c, 0, 48, 0
2,28334, Note_on_c, 0, 50, 63
2,28449, Note_on_c, 0, 50, 0
2,28463, Note_on_c, 0, 51, 65
2,28478, Note_on_c, 0, 60, 70
2,28516, Note_on_c, 0, 60, 0
2,28559, Note_on_c, 0, 51, 0
2,28603, Note_on_c, 0, 48, 59
2,28735, Note_on_c, 0, 48, 0
2,28744, Note_on_c, 0, 50, 61
2,28748, Note_on_c, 0, 70, 74
2,28777, Note_on_c, 0, 70, 0
2,28854, Note_on_c, 0, 50, 0
2,28882, Note_on_c, 0, 51, 66
2,28987, Note_on_c, 0, 51, 0
2,29024, Note_on_c, 0, 53, 63
2,29031, Note_on_c, 0, 69, 75
2,29142, Note_on_c, 0, 69, 0
2,29157, Note_on_c, 0, 51, 65
2,29160, Note_on_c, 0, 53, 0
2,29172, Note_on_c, 0, 72, 80
2,29270, Note_on_c, 0, 51, 0
2,29289, Note_on_c, 0, 72, 0
2,29298, Note_on_c, 0, 75, 85
2,29307, Note_on_c, 0, 53, 62
2,29349, Note_on_c, 0, 53, 0
2,29426, Note_on_c, 0, 81, 74
2,29459, Note_on_c, 0, 81, 0
2,29575, Note_on_c, 0, 46, 63
2,29580, Note_on_c, 0, 82, 74
2,29743, Note_on_c, 0, 46, 0
2,29753, Note_on_c, 0, 53, 36
2,29767, Note_on_c, 0, 52, 45
2,29802, Note_on_c, 0, 53, 0
2,29807, Note_on_c, 0, 52, 0
2,29841, Note_on_c, 0, 82, 0
2,29851, Note_on_c, 0, 74, 83
2,29855, Note_on_c, 0, 55, 63
2,29882, Note_on_c, 0, 75, 0
2,29947, Note_on_c, 0, 55, 0
2,29979, Note_on_c, 0, 81, 80
2,29983, Note_on_c, 0, 57, 68
2,30090, Note_on_c, 0, 57, 0
2,30113, Note_on_c, 0, 58, 67
2,30113, Note_on_c, 0, 79, 80
2,30118, Note_on_c, 0, 81, 0
2,30253, Note_on_c, 0, 78, 90
2,30259, Note_on_c, 0, 57, 69
2,30264, Note_on_c, 0, 79, 0
2,30268, Note_on_c, 0, 58, 0
2,30393, Note_on_c, 0, 79, 91
2,30404, Note_on_c, 0, 58, 78
2,30424, Note_on_c, 0, 57, 0
2,30429, Note_on_c, 0, 78, 0
2,30541, Note_on_c, 0, 78, 93
2,30552, Note_on_c, 0, 79, 0
2,30607, Note_on_c, 0, 58, 0
2,30640, Note_on_c, 0, 78, 0
2,30674, Note_on_c, 0, 79, 97
2,30797, Note_on_c, 0, 52, 82
2,30816, Note_on_c, 0, 74, 0
2,30936, Note_on_c, 0, 54, 85
2,30979, Note_on_c, 0, 52, 0
2,31063, Note_on_c, 0, 55, 82
2,31072, Note_on_c, 0, 74, 86
2,31092, Note_on_c, 0, 54, 0
2,31170, Note_on_c, 0, 74, 0
2,31198, Note_on_c, 0, 55, 0
2,31198, Note_on_c, 0, 57, 87
2,31209, Note_on_c, 0, 72, 87
2,31331, Note_on_c, 0, 55, 80
2,31338, Note_on_c, 0, 70, 81
2,31345, Note_on_c, 0, 72, 0
2,31356, Note_on_c, 0, 57, 0
2,31467, Note_on_c, 0, 70, 0
2,31474, Note_on_c, 0, 57, 88
2,31474, Note_on_c, 0, 72, 88
2,31501, Note_on_c, 0, 55, 0
2,31521, Note_on_c, 0, 57, 0
2,31610, Note_on_c, 0, 70, 78
2,31632, Note_on_c, 0, 72, 0
2,31641, Note_on_c, 0, 79, 0
2,31688, Note_on_c, 0, 70, 0
2,31749, Note_on_c, 0, 78, 94
2,31753, Note_on_c, 0, 62, 101
2,31753, Note_on_c, 0, 72, 90
2,31889, Note_on_c, 0, 50, 81
2,32026, Note_on_c, 0, 72, 0
2,32036, Note_on_c, 0, 52, 74
2,32056, Note_on_c, 0, 50, 0
2,32157, Note_on_c, 0, 72, 84
2,32165, Note_on_c, 0, 54, 82
2,32169, Note_on_c, 0, 81, 68
2,32182, Note_on_c, 0, 52, 0
2,32188, Note_on_c, 0, 78, 0
2,32199, Note_on_c, 0, 81, 0
2,32220, Note_on_c, 0, 72, 0
2,32306, Note_on_c, 0, 55, 81
2,32306, Note_on_c, 0, 62, 0
2,32308, Note_on_c, 0, 74, 83
2,32312, Note_on_c, 0, 70, 83
2,32327, Note_on_c, 0, 54, 0
2,32426, Note_on_c, 0, 70, 0
2,32431, Note_on_c, 0, 55, 0
2,32439, Note_on_c, 0, 54, 78
2,32439, Note_on_c, 0, 69, 76
2,32476, Note_on_c, 0, 54, 0
2,32550, Note_on_c, 0, 69, 0
2,32575, Note_on_c, 0, 58, 98
2,32584, Note_on_c, 0, 55, 85
2,32584, Note_on_c, 0, 70, 81
2,32615, Note_on_c, 0, 55, 0
2,32628, Note_on_c, 0, 58, 0
2,32666, Note_on_c, 0, 74, 0
2,32707, Note_on_c, 0, 70, 0
2,32713, Note_on_c, 0, 69, 81
2,32801, Note_on_c, 0, 69, 0
2,32863, Note_on_c, 0, 70, 81
2,32868, Note_on_c, 0, 63, 98
2,32875, Note_on_c, 0, 55, 83
2,32879, Note_on_c, 0, 67, 78
2,32972, Note_on_c, 0, 55, 0
2,32975, Note_on_c, 0, 67, 0
2,33030, Note_on_c, 0, 65, 67
2,33086, Note_on_c, 0, 63, 0
2,33104, Note_on_c, 0, 65, 0
2,33126, Note_on_c, 0, 67, 76
2,33142, Note_on_c, 0, 48, 67
2,33169, Note_on_c, 0, 48, 0
2,33231, Note_on_c, 0, 67, 0
2,33240, Note_on_c, 0, 65, 77
2,33271, Note_on_c, 0, 63, 74
2,33275, Note_on_c, 0, 65, 0
2,33318, Note_on_c, 0, 63, 0
2,33346, Note_on_c, 0, 65, 64
2,33392, Note_on_c, 0, 63, 85
2,33403, Note_on_c, 0, 60, 95
2,33429, Note_on_c, 0, 65, 0
2,33532, Note_on_c, 0, 48, 78
2,33673, Note_on_c, 0, 50, 75
2,33710, Note_on_c, 0, 48, 0
2,33778, Note_on_c, 0, 60, 0
2,33785, Note_on_c, 0, 63, 0
2,33804, Note_on_c, 0, 62, 82
2,33808, Note_on_c, 0, 51, 78
2,33817, Note_on_c, 0, 70, 0
2,33847, Note_on_c, 0, 50, 0
2,33904, Note_on_c, 0, 62, 0
2,33932, Note_on_c, 0, 60, 81
2,33937, Note_on_c, 0, 69, 79
2,33944, Note_on_c, 0, 51, 0
2,33944, Note_on_c, 0, 53, 82
2,34031, Note_on_c, 0, 60, 0
2,34070, Note_on_c, 0, 51, 87
2,34074, Note_on_c, 0, 53, 0
2,34202, Note_on_c, 0, 53, 84
2,34202, Note_on_c, 0, 57, 97
2,34242, Note_on_c, 0, 51, 0
2,34305, Note_on_c, 0, 53, 0
2,34318, Note_on_c, 0, 57, 0
2,34508, Note_on_c, 0, 62, 92
2,34516, Note_on_c, 0, 53, 82
2,34520, Note_on_c, 0, 65, 81
2,34542, Note_on_c, 0, 69, 0
2,34602, Note_on_c, 0, 53, 0
2,34666, Note_on_c, 0, 65, 0
2,34676, Note_on_c, 0, 69, 72
2,34799, Note_on_c, 0, 46, 77
2,34806, Note_on_c, 0, 70, 83
2,34812, Note_on_c, 0, 69, 0
2,34898, Note_on_c, 0, 46, 0
2,34936, Note_on_c, 0, 69, 77
2,34961, Note_on_c, 0, 62, 0
2,34974, Note_on_c, 0, 70, 0
2,35090, Note_on_c, 0, 62, 86
2,35090, Note_on_c, 0, 67, 86
2,35094, Note_on_c, 0, 58, 96
2,35119, Note_on_c, 0, 69, 0
2,35240, Note_on_c, 0, 46, 73
2,35389, Note_on_c, 0, 48, 74
2,35449, Note_on_c, 0, 46, 0
2,35533, Note_on_c, 0, 66, 76
2,35538, Note_on_c, 0, 50, 74
2,35542, Note_on_c, 0, 67, 0
2,35562, Note_on_c, 0, 48, 0
2,35595, Note_on_c, 0, 58, 0
2,35672, Note_on_c, 0, 51, 80
2,35673, Note_on_c, 0, 50, 0
2,35678, Note_on_c, 0, 62, 0
2,35678, Note_on_c, 0, 67, 81
2,35704, Note_on_c, 0, 66, 0
2,35809, Note_on_c, 0, 50, 81
2,35825, Note_on_c, 0, 51, 0
2,35894, Note_on_c, 0, 50, 0
2,35954, Note_on_c, 0, 55, 91
2,35963, Note_on_c, 0, 51, 86
2,36073, Note_on_c, 0, 55, 0
2,36276, Note_on_c, 0, 60, 76
2,36345, Note_on_c, 0, 60, 0
2,36419, Note_on_c, 0, 51, 0
2,36423, Note_on_c, 0, 50, 64
2,36567, Note_on_c, 0, 60, 74
2,36571, Note_on_c, 0, 51, 76
2,36580, Note_on_c, 0, 50, 0
2,36657, Note_on_c, 0, 60, 0
2,36696, Note_on_c, 0, 67, 0
2,36706, Note_on_c, 0, 70, 69
2,36715, Note_on_c, 0, 51, 0
2,36724, Note_on_c, 0, 50, 71
2,36765, Note_on_c, 0, 50, 0
2,36806, Note_on_c, 0, 70, 0
2,36847, Note_on_c, 0, 48, 85
2,36852, Note_on_c, 0, 69, 85
2,36856, Note_on_c, 0, 60, 84
2,36929, Note_on_c, 0, 60, 0
2,37005, Note_on_c, 0, 47, 80
2,37005, Note_on_c, 0, 48, 0
2,37052, Note_on_c, 0, 47, 0
2,37134, Note_on_c, 0, 48, 86
2,37143, Note_on_c, 0, 60, 87
2,37202, Note_on_c, 0, 48, 0
2,37234, Note_on_c, 0, 60, 0
2,37285, Note_on_c, 0, 46, 74
2,37285, Note_on_c, 0, 69, 0
2,37285, Note_on_c, 0, 72, 74
2,37312, Note_on_c, 0, 46, 0
2,37419, Note_on_c, 0, 45, 91
2,37419, Note_on_c, 0, 60, 88
2,37423, Note_on_c, 0, 66, 87
2,37444, Note_on_c, 0, 72, 0
2,37461, Note_on_c, 0, 45, 0
2,37536, Note_on_c, 0, 60, 0
2,37574, Note_on_c, 0, 43, 81
2,37607, Note_on_c, 0, 43, 0
2,37711, Note_on_c, 0, 45, 84
2,37722, Note_on_c, 0, 60, 82
2,37754, Note_on_c, 0, 45, 0
2,37814, Note_on_c, 0, 60, 0
2,37845, Note_on_c, 0, 66, 0
2,37856, Note_on_c, 0, 69, 73
2,37860, Note_on_c, 0, 43, 72
2,37900, Note_on_c, 0, 43, 0
2,37961, Note_on_c, 0, 69, 0
2,37992, Note_on_c, 0, 60, 91
2,38000, Note_on_c, 0, 42, 85
2,38003, Note_on_c, 0, 62, 85
2,38034, Note_on_c, 0, 42, 0
2,38284, Note_on_c, 0, 60, 0
2,38311, Note_on_c, 0, 58, 72
2,38316, Note_on_c, 0, 50, 62
2,38329, Note_on_c, 0, 62, 0
2,38351, Note_on_c, 0, 50, 0
2,38420, Note_on_c, 0, 58, 0
2,38449, Note_on_c, 0, 66, 68
2,38453, Note_on_c, 0, 57, 64
2,38558, Note_on_c, 0, 66, 0
2,38569, Note_on_c, 0, 57, 0
2,38581, Note_on_c, 0, 43, 58
2,38581, Note_on_c, 0, 58, 69
2,38581, Note_on_c, 0, 67, 69
2,38617, Note_on_c, 0, 43, 0
2,38668, Note_on_c, 0, 67, 0
2,38695, Note_on_c, 0, 58, 0
2,38730, Note_on_c, 0, 55, 63
2,38857, Note_on_c, 0, 55, 0
2,38870, Note_on_c, 0, 57, 72
2,38875, Note_on_c, 0, 53, 62
2,38904, Note_on_c, 0, 53, 0
2,38980, Note_on_c, 0, 57, 0
2,39008, Note_on_c, 0, 58, 58
2,39105, Note_on_c, 0, 58, 0
2,39156, Note_on_c, 0, 52, 58
2,39156, Note_on_c, 0, 60, 65
2,39184, Note_on_c, 0, 52, 0
2,39250, Note_on_c, 0, 60, 0
2,39291, Note_on_c, 0, 58, 56
2,39394, Note_on_c, 0, 58, 0
2,39436, Note_on_c, 0, 60, 58
2,39445, Note_on_c, 0, 48, 40
2,39487, Note_on_c, 0, 48, 0
2,39569, Control_c, 0, 64, 10
2,39584, Note_on_c, 0, 70, 69
2,39588, Control_c, 0, 64, 44
2,39606, Control_c, 0, 64, 61
2,39625, Control_c, 0, 64, 65
2,39645, Control_c, 0, 64, 67
2,39663, Control_c, 0, 64, 72
2,39683, Control_c, 0, 64, 84
2,39701, Control_c, 0, 64, 108
2,39714, Note_on_c, 0, 70, 0
2,39719, Control_c, 0, 64, 127
2,39741, Note_on_c, 0, 53, 55
2,39772, Note_on_c, 0, 53, 0
2,39865, Note_on_c, 0, 70, 72
2,39920, Note_on_c, 0, 60, 0
2,39952, Control_c, 0, 64, 80
2,39960, Note_on_c, 0, 70, 0
2,39971, Control_c, 0, 64, 49
2,39990, Control_c, 0, 64, 0
2,40006, Note_on_c, 0, 69, 65
2,40011, Note_on_c, 0, 65, 64
2,40024, Note_on_c, 0, 57, 74
2,40049, Note_on_c, 0, 57, 0
2,40128, Note_on_c, 0, 69, 0
2,40132, Note_on_c, 0, 65, 0
2,40150, Note_on_c, 0, 67, 70
2,40161, Note_on_c, 0, 64, 67
2,40241, Note_on_c, 0, 64, 0
2,40286, Note_on_c, 0, 50, 71
2,40290, Note_on_c, 0, 69, 69
2,40294, Note_on_c, 0, 65, 67
2,40294, Note_on_c, 0, 67, 0
2,40325, Note_on_c, 0, 50, 0
2,40325, Note_on_c, 0, 65, 0
2,40347, Note_on_c, 0, 69, 0
2,40433, Note_on_c, 0, 69, 73
2,40556, Note_on_c, 0, 69, 0
2,40571, Note_on_c, 0, 71, 78
2,40574, Note_on_c, 0, 60, 87
2,40599, Note_on_c, 0, 60, 0
2,40732, Note_on_c, 0, 71, 0
2,40736, Note_on_c, 0, 72, 80
2,40866, Note_on_c, 0, 74, 81
2,40871, Note_on_c, 0, 59, 81
2,40871, Note_on_c, 0, 72, 0
2,40900, Note_on_c, 0, 59, 0
2,41003, Note_on_c, 0, 72, 78
2,41016, Note_on_c, 0, 74, 0
2,41158, Note_on_c, 0, 55, 64
2,41158, Note_on_c, 0, 74, 86
2,41180, Note_on_c, 0, 72, 0
2,41184, Note_on_c, 0, 55, 0
2,41300, Note_on_c, 0, 65, 82
2,41335, Control_c, 0, 64, 20
2,41352, Control_c, 0, 64, 46
2,41373, Control_c, 0, 64, 63
2,41391, Control_c, 0, 64, 69
2,41409, Control_c, 0, 64, 76
2,41433, Control_c, 0, 64, 82
2,41441, Note_on_c, 0, 60, 80
2,41450, Control_c, 0, 64, 91
2,41462, Note_on_c, 0, 65, 0
2,41466, Control_c, 0, 64, 101
2,41473, Note_on_c, 0, 60, 0
2,41486, Control_c, 0, 64, 120
2,41506, Control_c, 0, 64, 127
2,41510, Note_on_c, 0, 74, 0
2,41595, Note_on_c, 0, 65, 75
2,41657, Note_on_c, 0, 65, 0
2,41680, Control_c, 0, 64, 101
2,41698, Control_c, 0, 64, 62
2,41717, Control_c, 0, 64, 0
2,41730, Note_on_c, 0, 55, 79
2,41730, Note_on_c, 0, 63, 82
2,41733, Note_on_c, 0, 72, 75
2,41760, Note_on_c, 0, 55, 0
2,41797, Note_on_c, 0, 72, 0
2,41823, Note_on_c, 0, 63, 0
2,41865, Note_on_c, 0, 71, 78
2,41869, Note_on_c, 0, 62, 76
2,41976, Note_on_c, 0, 62, 0
2,42011, Note_on_c, 0, 71, 0
2,42018, Note_on_c, 0, 48, 72
2,42018, Note_on_c, 0, 63, 75
2,42018, Note_on_c, 0, 72, 83
2,42040, Note_on_c, 0, 48, 0
2,42130, Note_on_c, 0, 63, 0
2,42168, Note_on_c, 0, 60, 76
2,42303, Note_on_c, 0, 57, 87
2,42308, Note_on_c, 0, 72, 0
2,42312, Note_on_c, 0, 60, 0
2,42312, Note_on_c, 0, 66, 83
2,42330, Note_on_c, 0, 57, 0
2,42449, Note_on_c, 0, 67, 80
2,42451, Note_on_c, 0, 66, 0
2,42580, Note_on_c, 0, 69, 80
2,42584, Note_on_c, 0, 67, 0
2,42591, Note_on_c, 0, 54, 85
2,42622, Note_on_c, 0, 54, 0
2,42691, Note_on_c, 0, 69, 0
2,42720, Note_on_c, 0, 67, 83
2,42864, Note_on_c, 0, 50, 69
2,42873, Note_on_c, 0, 69, 82
2,42905, Note_on_c, 0, 50, 0
2,42914, Note_on_c, 0, 67, 0
2,43015, Note_on_c, 0, 72, 87
2,43138, Control_c, 0, 64, 29
2,43150, Note_on_c, 0, 55, 87
2,43156, Control_c, 0, 64, 47
2,43176, Control_c, 0, 64, 62
2,43183, Note_on_c, 0, 55, 0
2,43196, Control_c, 0, 64, 71
2,43196, Note_on_c, 0, 72, 0
2,43214, Control_c, 0, 64, 86
2,43233, Control_c, 0, 64, 127
2,43296, Note_on_c, 0, 69, 0
2,43311, Note_on_c, 0, 72, 86
2,43388, Control_c, 0, 64, 109
2,43410, Control_c, 0, 64, 61
2,43427, Control_c, 0, 64, 0
2,43439, Note_on_c, 0, 58, 92
2,43444, Note_on_c, 0, 67, 77
2,43444, Note_on_c, 0, 70, 83
2,43472, Note_on_c, 0, 58, 0
2,43477, Note_on_c, 0, 72, 0
2,43532, Note_on_c, 0, 67, 0
2,43571, Note_on_c, 0, 66, 79
2,43571, Note_on_c, 0, 69, 80
2,43602, Note_on_c, 0, 70, 0
2,43721, Note_on_c, 0, 52, 82
2,43725, Note_on_c, 0, 67, 75
2,43725, Note_on_c, 0, 70, 91
2,43732, Note_on_c, 0, 66, 0
2,43741, Note_on_c, 0, 69, 0
2,43752, Note_on_c, 0, 67, 0
2,43757, Note_on_c, 0, 52, 0
2,43773, Note_on_c, 0, 70, 0
2,43868, Note_on_c, 0, 74, 90
2,44011, Note_on_c, 0, 76, 93
2,44018, Note_on_c, 0, 62, 85
2,44024, Note_on_c, 0, 74, 0
2,44044, Note_on_c, 0, 62, 0
2,44155, Note_on_c, 0, 77, 91
2,44168, Note_on_c, 0, 76, 0
2,44297, Note_on_c, 0, 79, 90
2,44318, Note_on_c, 0, 77, 0
2,44443, Note_on_c, 0, 77, 88
2,44461, Note_on_c, 0, 79, 0
2,44592, Note_on_c, 0, 57, 88
2,44592, Note_on_c, 0, 79, 91
2,44635, Note_on_c, 0, 77, 0
2,44729, Note_on_c, 0, 61, 83
2,44855, Note_on_c, 0, 57, 0
2,44862, Note_on_c, 0, 62, 90
2,44875, Note_on_c, 0, 61, 0
2,44992, Note_on_c, 0, 62, 0
2,44994, Note_on_c, 0, 61, 78
2,45075, Note_on_c, 0, 61, 0
2,45136, Note_on_c, 0, 62, 74
2,45145, Note_on_c, 0, 77, 81
2,45145, Note_on_c, 0, 79, 0
2,45186, Note_on_c, 0, 62, 0
2,45267, Note_on_c, 0, 57, 56
2,45272, Note_on_c, 0, 76, 80
2,45276, Note_on_c, 0, 77, 0
2,45307, Note_on_c, 0, 57, 0
2,45347, Note_on_c, 0, 76, 0
2,45403, Control_c, 0, 64, 25
2,45405, Note_on_c, 0, 69, 90
2,45416, Note_on_c, 0, 50, 34
2,45420, Note_on_c, 0, 50, 0
2,45420, Note_on_c, 0, 77, 80
2,45425, Control_c, 0, 64, 54
2,45442, Control_c, 0, 64, 65
2,45462, Control_c, 0, 64, 68
2,45470, Note_on_c, 0, 77, 0
2,45481, Control_c, 0, 64, 76
2,45500, Control_c, 0, 64, 85
2,45518, Control_c, 0, 64, 101
2,45538, Control_c, 0, 64, 127
2,45566, Note_on_c, 0, 74, 66
2,45673, Control_c, 0, 64, 99
2,45677, Note_on_c, 0, 74, 0
2,45696, Control_c, 0, 64, 63
2,45696, Note_on_c, 0, 62, 70
2,45707, Note_on_c, 0, 77, 72
2,45712, Control_c, 0, 64, 0
2,45818, Note_on_c, 0, 62, 0
2,45822, Note_on_c, 0, 77, 0
2,45835, Note_on_c, 0, 64, 72
2,45839, Note_on_c, 0, 79, 75
2,45923, Note_on_c, 0, 64, 0
2,45961, Note_on_c, 0, 65, 62
2,45974, Note_on_c, 0, 81, 75
2,45978, Note_on_c, 0, 79, 0
2,45982, Note_on_c, 0, 65, 0
2,45996, Note_on_c, 0, 69, 0
2,46091, Note_on_c, 0, 81, 0
2,46112, Note_on_c, 0, 79, 78
2,46235, Note_on_c, 0, 81, 81
2,46239, Note_on_c, 0, 65, 83
2,46240, Note_on_c, 0, 62, 79
2,46253, Note_on_c, 0, 79, 0
2,46268, Note_on_c, 0, 62, 0
2,46268, Note_on_c, 0, 65, 0
2,46340, Note_on_c, 0, 81, 0
2,46531, Note_on_c, 0, 81, 78
2,46536, Note_on_c, 0, 70, 84
2,46540, Note_on_c, 0, 67, 76
2,46629, Note_on_c, 0, 81, 0
2,46678, Note_on_c, 0, 55, 62
2,46678, Note_on_c, 0, 67, 0
2,46817, Note_on_c, 0, 55, 0
2,46822, Note_on_c, 0, 74, 67
2,46834, Note_on_c, 0, 57, 66
2,46879, Note_on_c, 0, 70, 0
2,46952, Note_on_c, 0, 57, 0
2,46969, Note_on_c, 0, 58, 64
2,46978, Note_on_c, 0, 74, 0
2,47076, Note_on_c, 0, 58, 0
2,47091, Note_on_c, 0, 67, 89
2,47104, Note_on_c, 0, 60, 70
2,47201, Note_on_c, 0, 60, 0
2,47230, Note_on_c, 0, 55, 63
2,47248, Note_on_c, 0, 74, 64
2,47367, Note_on_c, 0, 74, 0
2,47384, Note_on_c, 0, 60, 61
2,47395, Note_on_c, 0, 76, 64
2,47424, Note_on_c, 0, 55, 0
2,47500, Note_on_c, 0, 76, 0
2,47506, Note_on_c, 0, 60, 0
2,47517, Note_on_c, 0, 77, 69
2,47526, Note_on_c, 0, 62, 60
2,47598, Note_on_c, 0, 67, 0
2,47653, Note_on_c, 0, 62, 0
2,47653, Note_on_c, 0, 64, 70
2,47658, Note_on_c, 0, 77, 0
2,47662, Note_on_c, 0, 79, 68
2,47690, Note_on_c, 0, 64, 0
2,47785, Note_on_c, 0, 79, 0
2,47803, Note_on_c, 0, 77, 70
2,47932, Note_on_c, 0, 79, 82
2,47936, Note_on_c, 0, 64, 89
2,47944, Note_on_c, 0, 60, 74
2,47970, Note_on_c, 0, 77, 0
2,47974, Note_on_c, 0, 64, 0
2,47980, Note_on_c, 0, 60, 0
2,48003, Note_on_c, 0, 79, 0
2,48232, Note_on_c, 0, 69, 85
2,48234, Note_on_c, 0, 79, 86
2,48241, Note_on_c, 0, 65, 71
2,48370, Note_on_c, 0, 65, 0
2,48373, Note_on_c, 0, 53, 68
2,48398, Note_on_c, 0, 79, 0
2,48536, Note_on_c, 0, 72, 73
2,48540, Note_on_c, 0, 55, 70
2,48551, Note_on_c, 0, 53, 0
2,48618, Note_on_c, 0, 69, 0
2,48647, Note_on_c, 0, 72, 0
2,48679, Note_on_c, 0, 57, 78
2,48692, Note_on_c, 0, 55, 0
2,48816, Note_on_c, 0, 65, 85
2,48820, Note_on_c, 0, 58, 82
2,48824, Note_on_c, 0, 57, 0
2,48950, Note_on_c, 0, 58, 0
2,48956, Note_on_c, 0, 53, 74
2,48956, Note_on_c, 0, 72, 74
2,49083, Note_on_c, 0, 72, 0
2,49096, Note_on_c, 0, 58, 74
2,49096, Note_on_c, 0, 74, 67
2,49107, Note_on_c, 0, 53, 0
2,49230, Note_on_c, 0, 74, 0
2,49239, Note_on_c, 0, 58, 0
2,49239, Note_on_c, 0, 65, 0
2,49239, Note_on_c, 0, 76, 78
2,49248, Note_on_c, 0, 60, 68
2,49354, Note_on_c, 0, 60, 0
2,49377, Note_on_c, 0, 62, 75
2,49381, Note_on_c, 0, 77, 79
2,49390, Note_on_c, 0, 76, 0
2,49461, Note_on_c, 0, 62, 0
2,49499, Note_on_c, 0, 77, 0
2,49508, Note_on_c, 0, 60, 67
2,49517, Note_on_c, 0, 76, 77
2,49599, Note_on_c, 0, 60, 0
2,49643, Note_on_c, 0, 62, 76
2,49643, Note_on_c, 0, 77, 82
2,49647, Note_on_c, 0, 58, 73
2,49661, Note_on_c, 0, 76, 0
2,49695, Note_on_c, 0, 62, 0
2,49769, Note_on_c, 0, 58, 0
2,49806, Note_on_c, 0, 57, 65
2,49932, Note_on_c, 0, 67, 73
2,49941, Note_on_c, 0, 58, 70
2,49945, Note_on_c, 0, 57, 0
2,50005, Note_on_c, 0, 67, 0
2,50066, Note_on_c, 0, 58, 0
2,50085, Note_on_c, 0, 62, 70
2,50205, Note_on_c, 0, 61, 75
2,50210, Note_on_c, 0, 62, 0
2,50217, Note_on_c, 0, 67, 78
2,50219, Note_on_c, 0, 77, 0
2,50294, Note_on_c, 0, 67, 0
2,50306, Note_on_c, 0, 61, 0
2,50345, Note_on_c, 0, 62, 76
2,50350, Note_on_c, 0, 77, 82
2,50374, Note_on_c, 0, 62, 0
2,50427, Note_on_c, 0, 77, 0
2,50487, Note_on_c, 0, 55, 81
2,50496, Note_on_c, 0, 67, 83
2,50496, Note_on_c, 0, 76, 92
2,50534, Note_on_c, 0, 55, 0
2,50538, Note_on_c, 0, 67, 0
2,50549, Note_on_c, 0, 76, 0
2,50623, Note_on_c, 0, 74, 88
2,50645, Note_on_c, 0, 58, 80
2,50674, Note_on_c, 0, 74, 0
2,50681, Note_on_c, 0, 58, 0
2,50767, Note_on_c, 0, 67, 96
2,50767, Note_on_c, 0, 76, 97
2,50776, Note_on_c, 0, 57, 85
2,50812, Note_on_c, 0, 67, 0
2,50823, Note_on_c, 0, 57, 0
2,50823, Note_on_c, 0, 76, 0
2,50893, Note_on_c, 0, 74, 87
2,50905, Note_on_c, 0, 58, 76
2,50947, Note_on_c, 0, 58, 0
2,50952, Note_on_c, 0, 74, 0
2,51035, Note_on_c, 0, 73, 99
2,51040, Note_on_c, 0, 67, 88
2,51044, Note_on_c, 0, 52, 81
2,51080, Note_on_c, 0, 52, 0
2,51090, Note_on_c, 0, 67, 0
2,51106, Note_on_c, 0, 73, 0
2,51177, Note_on_c, 0, 74, 84
2,51184, Note_on_c, 0, 64, 78
2,51221, Note_on_c, 0, 64, 0
2,51238, Note_on_c, 0, 74, 0
2,51319, Note_on_c, 0, 61, 78
2,51319, Note_on_c, 0, 76, 89
2,51326, Note_on_c, 0, 67, 87
2,51373, Note_on_c, 0, 61, 0
2,51414, Note_on_c, 0, 67, 0
2,51476, Note_on_c, 0, 57, 71
2,51518, Note_on_c, 0, 57, 0
2,51612, Note_on_c, 0, 67, 79
2,51631, Note_on_c, 0, 62, 60
2,51673, Note_on_c, 0, 62, 0
2,51717, Note_on_c, 0, 67, 0
2,51743, Note_on_c, 0, 50, 66
2,51862, Note_on_c, 0, 50, 0
2,51890, Note_on_c, 0, 74, 72
2,51893, Note_on_c, 0, 65, 63
2,51900, Note_on_c, 0, 53, 58
2,51904, Note_on_c, 0, 76, 0
2,51963, Note_on_c, 0, 65, 0
2,52013, Note_on_c, 0, 74, 0
2,52024, Note_on_c, 0, 53, 0
2,52047, Note_on_c, 0, 57, 61
2,52114, Note_on_c, 0, 57, 0
2,52171, Note_on_c, 0, 77, 88
2,52192, Note_on_c, 0, 62, 62
2,52259, Note_on_c, 0, 62, 0
2,52303, Note_on_c, 0, 69, 61
2,52328, Note_on_c, 0, 60, 55
2,52390, Note_on_c, 0, 60, 0
2,52390, Note_on_c, 0, 69, 0
2,52457, Note_on_c, 0, 70, 57
2,52466, Note_on_c, 0, 62, 55
2,52545, Note_on_c, 0, 70, 0
2,52554, Note_on_c, 0, 62, 0
2,52595, Note_on_c, 0, 72, 61
2,52599, Note_on_c, 0, 60, 50
2,52696, Note_on_c, 0, 72, 0
2,52708, Note_on_c, 0, 60, 0
2,52726, Note_on_c, 0, 74, 61
2,52742, Note_on_c, 0, 58, 53
2,52818, Note_on_c, 0, 58, 0
2,52838, Note_on_c, 0, 74, 0
2,52863, Note_on_c, 0, 72, 59
2,52879, Note_on_c, 0, 62, 57
2,52901, Note_on_c, 0, 77, 0
2,52958, Note_on_c, 0, 62, 0
2,52980, Note_on_c, 0, 72, 0
2,52999, Note_on_c, 0, 55, 63
2,53006, Note_on_c, 0, 74, 71
2,53079, Note_on_c, 0, 74, 0
2,53134, Note_on_c, 0, 55, 0
2,53134, Note_on_c, 0, 58, 63
2,53167, Note_on_c, 0, 58, 0
2,53273, Note_on_c, 0, 51, 72
2,53273, Note_on_c, 0, 79, 97
2,53283, Note_on_c, 0, 74, 87
2,53352, Note_on_c, 0, 74, 0
2,53424, Note_on_c, 0, 55, 71
2,53438, Note_on_c, 0, 51, 0
2,53540, Note_on_c, 0, 55, 0
2,53563, Note_on_c, 0, 67, 73
2,53570, Note_on_c, 0, 57, 75
2,53601, Note_on_c, 0, 79, 0
2,53681, Note_on_c, 0, 67, 0
2,53699, Note_on_c, 0, 57, 0
2,53703, Note_on_c, 0, 58, 77
2,53836, Note_on_c, 0, 75, 92
2,53839, Note_on_c, 0, 58, 0
2,53846, Note_on_c, 0, 60, 82
2,53971, Note_on_c, 0, 67, 64
2,53980, Note_on_c, 0, 58, 80
2,53980, Note_on_c, 0, 60, 0
2,54097, Note_on_c, 0, 58, 0
2,54111, Note_on_c, 0, 67, 0
2,54111, Note_on_c, 0, 69, 74
2,54115, Note_on_c, 0, 60, 77
2,54243, Note_on_c, 0, 58, 78
2,54243, Note_on_c, 0, 70, 82
2,54260, Note_on_c, 0, 60, 0
2,54280, Note_on_c, 0, 69, 0
2,54286, Note_on_c, 0, 75, 0
2,54374, Note_on_c, 0, 57, 79
2,54381, Note_on_c, 0, 72, 84
2,54392, Note_on_c, 0, 70, 0
2,54454, Note_on_c, 0, 58, 0
2,54513, Note_on_c, 0, 57, 0
2,54513, Note_on_c, 0, 60, 76
2,54524, Note_on_c, 0, 70, 84
2,54550, Note_on_c, 0, 72, 0
2,54619, Note_on_c, 0, 60, 0
2,54644, Note_on_c, 0, 53, 80
2,54666, Note_on_c, 0, 72, 91
2,54706, Note_on_c, 0, 70, 0
2,54729, Note_on_c, 0, 72, 0
2,54789, Note_on_c, 0, 57, 80
2,54801, Note_on_c, 0, 53, 0
2,54829, Note_on_c, 0, 57, 0
2,54936, Note_on_c, 0, 50, 86
2,54938, Note_on_c, 0, 72, 90
2,54938, Note_on_c, 0, 77, 84
2,54942, Note_on_c, 0, 76, 85
2,54987, Note_on_c, 0, 72, 0
2,55100, Note_on_c, 0, 53, 74
2,55132, Note_on_c, 0, 50, 0
2,55235, Note_on_c, 0, 55, 73
2,55250, Note_on_c, 0, 53, 0
2,55250, Note_on_c, 0, 65, 72
2,55250, Note_on_c, 0, 77, 0
2,55286, Note_on_c, 0, 76, 0
2,55314, Note_on_c, 0, 65, 0
2,55351, Note_on_c, 0, 55, 0
2,55378, Note_on_c, 0, 57, 82
2,55504, Note_on_c, 0, 74, 92
2,55518, Note_on_c, 0, 58, 84
2,55522, Note_on_c, 0, 57, 0
2,55649, Note_on_c, 0, 65, 72
2,55658, Note_on_c, 0, 57, 82
2,55663, Note_on_c, 0, 58, 0
2,55779, Note_on_c, 0, 57, 0
2,55784, Note_on_c, 0, 65, 0
2,55788, Note_on_c, 0, 67, 76
2,55793, Note_on_c, 0, 58, 80
2,55919, Note_on_c, 0, 58, 0
2,55920, Note_on_c, 0, 67, 0
2,55924, Note_on_c, 0, 57, 73
2,55930, Note_on_c, 0, 69, 73
2,56061, Note_on_c, 0, 69, 0
2,56067, Note_on_c, 0, 55, 70
2,56067, Note_on_c, 0, 57, 0
2,56067, Note_on_c, 0, 70, 85
2,56083, Note_on_c, 0, 74, 0
2,56196, Note_on_c, 0, 70, 0
2,56198, Note_on_c, 0, 69, 70
2,56207, Note_on_c, 0, 58, 79
2,56216, Note_on_c, 0, 55, 0
2,56330, Note_on_c, 0, 58, 0
2,56339, Note_on_c, 0, 70, 83
2,56352, Note_on_c, 0, 51, 75
2,56365, Note_on_c, 0, 69, 0
2,56450, Note_on_c, 0, 51, 0
2,56496, Note_on_c, 0, 55, 67
2,56565, Note_on_c, 0, 55, 0
2,56627, Note_on_c, 0, 48, 67
2,56638, Note_on_c, 0, 75, 76
2,56774, Note_on_c, 0, 75, 0
2,56792, Note_on_c, 0, 55, 61
2,56889, Note_on_c, 0, 48, 0
2,56911, Note_on_c, 0, 55, 0
2,56936, Note_on_c, 0, 57, 70
2,56936, Note_on_c, 0, 75, 80
2,56957, Note_on_c, 0, 70, 0
2,57054, Note_on_c, 0, 57, 0
2,57060, Note_on_c, 0, 58, 79
2,57074, Note_on_c, 0, 70, 83
2,57087, Note_on_c, 0, 75, 0
2,57138, Note_on_c, 0, 70, 0
2,57194, Note_on_c, 0, 58, 0
2,57203, Note_on_c, 0, 60, 79
2,57216, Note_on_c, 0, 69, 87
2,57216, Note_on_c, 0, 75, 93
2,57267, Note_on_c, 0, 60, 0
2,57282, Note_on_c, 0, 69, 0
2,57293, Note_on_c, 0, 75, 0
2,57348, Note_on_c, 0, 62, 82
2,57352, Note_on_c, 0, 67, 81
2,57391, Note_on_c, 0, 62, 0
2,57408, Note_on_c, 0, 67, 0
2,57492, Note_on_c, 0, 60, 85
2,57494, Note_on_c, 0, 69, 88
2,57494, Note_on_c, 0, 75, 82
2,57538, Note_on_c, 0, 60, 0
2,57559, Note_on_c, 0, 69, 0
2,57563, Note_on_c, 0, 75, 0
2,57633, Note_on_c, 0, 58, 82
2,57633, Note_on_c, 0, 67, 83
2,57671, Note_on_c, 0, 58, 0
2,57689, Note_on_c, 0, 67, 0
2,57776, Note_on_c, 0, 57, 90
2,57776, Note_on_c, 0, 65, 89
2,57780, Note_on_c, 0, 75, 90
2,57820, Note_on_c, 0, 57, 0
2,57902, Note_on_c, 0, 75, 0
2,57927, Note_on_c, 0, 53, 87
2,57966, Note_on_c, 0, 53, 0
2,58068, Note_on_c, 0, 55, 88
2,58072, Note_on_c, 0, 75, 86
2,58121, Note_on_c, 0, 55, 0
2,58192, Note_on_c, 0, 75, 0
2,58210, Note_on_c, 0, 57, 92
2,58249, Note_on_c, 0, 57, 0
2,58346, Note_on_c, 0, 58, 94
2,58356, Note_on_c, 0, 75, 90
2,58410, Note_on_c, 0, 58, 0
2,58497, Note_on_c, 0, 57, 85
2,58549, Note_on_c, 0, 57, 0
2,58636, Note_on_c, 0, 75, 0
2,58640, Note_on_c, 0, 58, 83
2,58649, Note_on_c, 0, 74, 80
2,58654, Note_on_c, 0, 65, 0
2,58678, Note_on_c, 0, 58, 0
2,58739, Note_on_c, 0, 74, 0
2,58778, Note_on_c, 0, 60, 75
2,58785, Note_on_c, 0, 75, 75
2,58812, Note_on_c, 0, 60, 0
2,58844, Note_on_c, 0, 75, 0
2,58926, Note_on_c, 0, 58, 90
2,58930, Note_on_c, 0, 77, 102
2,58937, Note_on_c, 0, 62, 77
2,58957, Control_c, 0, 64, 40
2,58971, Note_on_c, 0, 62, 0
2,58978, Control_c, 0, 64, 61
2,58996, Control_c, 0, 64, 71
2,59014, Control_c, 0, 64, 85
2,59036, Control_c, 0, 64, 127
2,59036, Note_on_c, 0, 77, 0
2,59063, Note_on_c, 0, 70, 82
2,59072, Note_on_c, 0, 60, 76
2,59120, Note_on_c, 0, 60, 0
2,59124, Note_on_c, 0, 70, 0
2,59203, Note_on_c, 0, 77, 83
2,59215, Note_on_c, 0, 62, 67
2,59277, Note_on_c, 0, 77, 0
2,59284, Note_on_c, 0, 62, 0
2,59334, Note_on_c, 0, 64, 79
2,59334, Note_on_c, 0, 79, 91
2,59352, Note_on_c, 0, 58, 0
2,59375, Note_on_c, 0, 64, 0
2,59388, Note_on_c, 0, 79, 0
2,59440, Control_c, 0, 64, 78
2,59458, Control_c, 0, 64, 44
2,59462, Note_on_c, 0, 65, 84
2,59462, Note_on_c, 0, 81, 89
2,59481, Control_c, 0, 64, 0
2,59506, Note_on_c, 0, 65, 0
2,59520, Note_on_c, 0, 81, 0
2,59597, Note_on_c, 0, 64, 84
2,59604, Note_on_c, 0, 79, 90
2,59628, Note_on_c, 0, 64, 0
2,59655, Note_on_c, 0, 79, 0
2,59741, Note_on_c, 0, 65, 95
2,59745, Note_on_c, 0, 57, 91
2,59745, Note_on_c, 0, 81, 88
2,59804, Note_on_c, 0, 65, 0
2,59833, Note_on_c, 0, 57, 0
2,59856, Note_on_c, 0, 81, 0
2,59879, Note_on_c, 0, 72, 90
2,59931, Note_on_c, 0, 72, 0
2,60028, Note_on_c, 0, 62, 93
2,60031, Note_on_c, 0, 81, 88
2,60037, Note_on_c, 0, 65, 89
2,60037, Note_on_c, 0, 70, 90
2,60064, Note_on_c, 0, 81, 0
2,60090, Note_on_c, 0, 70, 0
2,60179, Note_on_c, 0, 72, 90
2,60255, Note_on_c, 0, 72, 0
2,60332, Note_on_c, 0, 74, 87
2,60341, Note_on_c, 0, 70, 85
2,60428, Note_on_c, 0, 65, 0
2,60437, Note_on_c, 0, 62, 0
2,60445, Note_on_c, 0, 70, 0
2,60454, Note_on_c, 0, 74, 0
2,60479, Note_on_c, 0, 69, 83
2,60593, Note_on_c, 0, 69, 0
2,60625, Note_on_c, 0, 62, 86
2,60633, Note_on_c, 0, 58, 90
2,60634, Note_on_c, 0, 67, 94
2,60770, Note_on_c, 0, 74, 86
2,60828, Note_on_c, 0, 74, 0
2,60901, Note_on_c, 0, 76, 93
2,60959, Note_on_c, 0, 76, 0
2,60995, Note_on_c, 0, 67, 0
2,61034, Note_on_c, 0, 77, 95
2,61089, Note_on_c, 0, 77, 0
2,61180, Note_on_c, 0, 62, 0
2,61180, Note_on_c, 0, 64, 93
2,61180, Note_on_c, 0, 79, 95
2,61234, Note_on_c, 0, 58, 0
2,61239, Note_on_c, 0, 79, 0
2,61315, Note_on_c, 0, 77, 88
2,61366, Note_on_c, 0, 77, 0
2,61458, Note_on_c, 0, 55, 92
2,61460, Note_on_c, 0, 79, 92
2,61572, Note_on_c, 0, 64, 0
2,61577, Note_on_c, 0, 55, 0
2,61586, Note_on_c, 0, 79, 0
2,61591, Note_on_c, 0, 70, 81
2,61662, Note_on_c, 0, 70, 0
2,61737, Note_on_c, 0, 60, 96
2,61745, Note_on_c, 0, 64, 93
2,61745, Note_on_c, 0, 69, 83
2,61745, Note_on_c, 0, 79, 82
2,61790, Note_on_c, 0, 79, 0
2,61819, Note_on_c, 0, 69, 0
2,61890, Note_on_c, 0, 70, 90
2,61960, Note_on_c, 0, 70, 0
2,62038, Note_on_c, 0, 72, 90
2,62045, Note_on_c, 0, 69, 79
2,62084, Note_on_c, 0, 64, 0
2,62100, Note_on_c, 0, 69, 0
2,62122, Note_on_c, 0, 60, 0
2,62129, Note_on_c, 0, 72, 0
2,62181, Note_on_c, 0, 67, 81
2,62289, Note_on_c, 0, 67, 0
2,62329, Note_on_c, 0, 60, 88
2,62331, Note_on_c, 0, 65, 96
2,62335, Note_on_c, 0, 57, 89
2,62469, Note_on_c, 0, 72, 93
2,62519, Note_on_c, 0, 72, 0
2,62604, Note_on_c, 0, 74, 93
2,62659, Note_on_c, 0, 74, 0
2,62740, Note_on_c, 0, 76, 95
2,62791, Note_on_c, 0, 76, 0
2,62833, Note_on_c, 0, 65, 0
2,62876, Note_on_c, 0, 62, 87
2,62876, Note_on_c, 0, 77, 98
2,62907, Note_on_c, 0, 57, 0
2,62915, Note_on_c, 0, 60, 0
2,62923, Note_on_c, 0, 77, 0
2,63011, Note_on_c, 0, 76, 89
2,63063, Note_on_c, 0, 76, 0
2,63161, Note_on_c, 0, 77, 83
2,63168, Note_on_c, 0, 53, 65
2,63221, Note_on_c, 0, 53, 0
2,63285, Note_on_c, 0, 69, 68
2,63386, Note_on_c, 0, 69, 0
2,63435, Note_on_c, 0, 67, 68
2,63440, Note_on_c, 0, 58, 61
2,63447, Note_on_c, 0, 77, 0
2,63522, Note_on_c, 0, 58, 0
2,63591, Note_on_c, 0, 74, 62
2,63718, Note_on_c, 0, 74, 0
2,63725, Note_on_c, 0, 58, 65
2,63739, Note_on_c, 0, 76, 66
2,63787, Note_on_c, 0, 58, 0
2,63831, Note_on_c, 0, 76, 0
2,63870, Note_on_c, 0, 77, 74
2,64008, Note_on_c, 0, 58, 72
2,64008, Note_on_c, 0, 77, 0
2,64008, Note_on_c, 0, 79, 80
2,64073, Note_on_c, 0, 58, 0
2,64152, Note_on_c, 0, 81, 75
2,64174, Note_on_c, 0, 79, 0
2,64280, Note_on_c, 0, 58, 79
2,64288, Note_on_c, 0, 82, 81
2,64293, Note_on_c, 0, 81, 0
2,64363, Note_on_c, 0, 62, 0
2,64371, Note_on_c, 0, 58, 0
2,64427, Note_on_c, 0, 79, 78
2,64457, Note_on_c, 0, 82, 0
2,64563, Note_on_c, 0, 58, 77
2,64568, Note_on_c, 0, 60, 79
2,64572, Note_on_c, 0, 77, 81
2,64572, Note_on_c, 0, 79, 0
2,64617, Note_on_c, 0, 67, 0
2,64672, Note_on_c, 0, 58, 0
2,64696, Note_on_c, 0, 77, 0
2,64710, Note_on_c, 0, 76, 78
2,64856, Note_on_c, 0, 58, 68
2,64856, Note_on_c, 0, 74, 80
2,64882, Note_on_c, 0, 76, 0
2,64904, Note_on_c, 0, 58, 0
2,64986, Note_on_c, 0, 72, 78
2,65014, Note_on_c, 0, 74, 0
2,65133, Note_on_c, 0, 77, 89
2,65139, Note_on_c, 0, 65, 81
2,65146, Note_on_c, 0, 58, 81
2,65146, Note_on_c, 0, 72, 0
2,65159, Note_on_c, 0, 77, 0
2,65250, Note_on_c, 0, 60, 0
2,65384, Note_on_c, 0, 65, 0
2,65431, Note_on_c, 0, 72, 82
2,65442, Note_on_c, 0, 57, 71
2,65442, Note_on_c, 0, 58, 0
2,65467, Note_on_c, 0, 72, 0
2,65553, Note_on_c, 0, 57, 0
2,65582, Note_on_c, 0, 55, 58
2,65689, Note_on_c, 0, 55, 0
2,65703, Note_on_c, 0, 57, 71
2,65716, Note_on_c, 0, 77, 79
2,65820, Note_on_c, 0, 57, 0
2,65844, Note_on_c, 0, 53, 68
2,65974, Note_on_c, 0, 75, 81
2,65982, Note_on_c, 0, 57, 73
2,66009, Note_on_c, 0, 53, 0
2,66020, Note_on_c, 0, 77, 0
2,66105, Note_on_c, 0, 74, 87
2,66118, Note_on_c, 0, 59, 81
2,66143, Note_on_c, 0, 57, 0
2,66143, Note_on_c, 0, 75, 0
2,66244, Note_on_c, 0, 59, 0
2,66253, Note_on_c, 0, 60, 78
2,66253, Note_on_c, 0, 75, 90
2,66260, Note_on_c, 0, 74, 0
2,66362, Note_on_c, 0, 75, 0
2,66380, Note_on_c, 0, 59, 81
2,66384, Note_on_c, 0, 67, 81
2,66389, Note_on_c, 0, 60, 0
2,66534, Note_on_c, 0, 60, 83
2,66534, Note_on_c, 0, 68, 82
2,66534, Note_on_c, 0, 72, 81
2,66543, Note_on_c, 0, 59, 0
2,66547, Note_on_c, 0, 67, 0
2,66662, Note_on_c, 0, 68, 0
2,66669, Note_on_c, 0, 67, 83
2,66698, Note_on_c, 0, 72, 0
2,66769, Note_on_c, 0, 67, 0
2,66810, Note_on_c, 0, 74, 88
2,66819, Note_on_c, 0, 60, 0
2,66819, Note_on_c, 0, 65, 80
2,66849, Note_on_c, 0, 65, 0
2,66860, Note_on_c, 0, 74, 0
2,66959, Note_on_c, 0, 60, 73
2,67074, Note_on_c, 0, 60, 0
2,67100, Note_on_c, 0, 59, 63
2,67100, Note_on_c, 0, 67, 71
2,67104, Note_on_c, 0, 62, 69
2,67133, Note_on_c, 0, 67, 0
2,67142, Note_on_c, 0, 62, 0
2,67207, Note_on_c, 0, 59, 0
2,67241, Note_on_c, 0, 57, 67
2,67377, Note_on_c, 0, 59, 72
2,67383, Note_on_c, 0, 79, 90
2,67392, Note_on_c, 0, 57, 0
2,67505, Note_on_c, 0, 55, 71
2,67510, Note_on_c, 0, 59, 0
2,67652, Note_on_c, 0, 59, 79
2,67656, Note_on_c, 0, 77, 90
2,67696, Note_on_c, 0, 55, 0
2,67700, Note_on_c, 0, 79, 0
2,67784, Note_on_c, 0, 75, 91
2,67789, Note_on_c, 0, 60, 79
2,67828, Note_on_c, 0, 59, 0
2,67828, Note_on_c, 0, 77, 0
2,67931, Note_on_c, 0, 62, 91
2,67939, Note_on_c, 0, 60, 0
2,67943, Note_on_c, 0, 77, 88
2,67947, Note_on_c, 0, 75, 0
2,68061, Note_on_c, 0, 69, 82
2,68066, Note_on_c, 0, 60, 88
2,68077, Note_on_c, 0, 77, 0
2,68092, Note_on_c, 0, 62, 0
2,68207, Note_on_c, 0, 74, 86
2,68211, Note_on_c, 0, 71, 82
2,68218, Note_on_c, 0, 69, 0
2,68222, Note_on_c, 0, 62, 91
2,68248, Note_on_c, 0, 60, 0
2,68317, Note_on_c, 0, 71, 0
2,68319, Note_on_c, 0, 74, 0
2,68344, Note_on_c, 0, 69, 84
2,68438, Note_on_c, 0, 69, 0
2,68489, Note_on_c, 0, 75, 89
2,68496, Note_on_c, 0, 67, 82
2,68500, Note_on_c, 0, 69, 44
2,68524, Note_on_c, 0, 67, 0
2,68537, Note_on_c, 0, 69, 0
2,68553, Note_on_c, 0, 75, 0
2,68573, Note_on_c, 0, 62, 0
2,68631, Note_on_c, 0, 55, 73
2,68771, Note_on_c, 0, 73, 86
2,68784, Note_on_c, 0, 60, 75
2,68788, Note_on_c, 0, 63, 64
2,68799, Note_on_c, 0, 55, 0
2,68823, Note_on_c, 0, 63, 0
2,68839, Note_on_c, 0, 73, 0
2,68917, Note_on_c, 0, 60, 0
2,68921, Note_on_c, 0, 59, 74
2,69053, Note_on_c, 0, 60, 76
2,69058, Note_on_c, 0, 80, 92
2,69062, Note_on_c, 0, 59, 0
2,69180, Note_on_c, 0, 55, 72
2,69189, Note_on_c, 0, 60, 0
2,69327, Note_on_c, 0, 79, 84
2,69332, Note_on_c, 0, 60, 78
2,69390, Note_on_c, 0, 55, 0
2,69396, Note_on_c, 0, 80, 0
2,69461, Note_on_c, 0, 62, 84
2,69465, Note_on_c, 0, 77, 91
2,69496, Note_on_c, 0, 60, 0
2,69496, Note_on_c, 0, 79, 0
2,69601, Note_on_c, 0, 63, 88
2,69607, Note_on_c, 0, 62, 0
2,69607, Note_on_c, 0, 79, 90
2,69612, Note_on_c, 0, 77, 0
2,69737, Note_on_c, 0, 62, 89
2,69737, Note_on_c, 0, 71, 89
2,69755, Note_on_c, 0, 79, 0
2,69761, Note_on_c, 0, 63, 0
2,69873, Note_on_c, 0, 75, 87
2,69882, Note_on_c, 0, 63, 93
2,69882, Note_on_c, 0, 72, 82
2,69886, Note_on_c, 0, 71, 0
2,69915, Note_on_c, 0, 62, 0
2,69989, Note_on_c, 0, 72, 0
2,70017, Note_on_c, 0, 70, 80
2,70028, Note_on_c, 0, 75, 0
2,70061, Note_on_c, 0, 70, 0
2,70160, Note_on_c, 0, 77, 95
2,70165, Note_on_c, 0, 68, 94
2,70270, Note_on_c, 0, 68, 0
2,70300, Note_on_c, 0, 67, 81
2,70366, Note_on_c, 0, 67, 0
2,70379, Note_on_c, 0, 63, 0
2,70444, Note_on_c, 0, 68, 94
2,70586, Note_on_c, 0, 63, 91
2,70627, Note_on_c, 0, 63, 0
2,70736, Note_on_c, 0, 62, 98
2,70873, Note_on_c, 0, 67, 80
2,70877, Note_on_c, 0, 68, 0
2,70983, Note_on_c, 0, 67, 0
2,71028, Note_on_c, 0, 68, 90
2,71052, Note_on_c, 0, 62, 0
2,71185, Note_on_c, 0, 60, 82
2,71219, Note_on_c, 0, 60, 0
2,71320, Note_on_c, 0, 59, 94
2,71465, Note_on_c, 0, 75, 83
2,71518, Note_on_c, 0, 77, 0
2,71601, Note_on_c, 0, 74, 83
2,71638, Note_on_c, 0, 75, 0
2,71643, Note_on_c, 0, 59, 0
2,71681, Note_on_c, 0, 68, 0
2,71741, Note_on_c, 0, 72, 87
2,71752, Note_on_c, 0, 74, 0
2,71759, Note_on_c, 0, 62, 67
2,71781, Note_on_c, 0, 72, 0
2,71798, Note_on_c, 0, 62, 0
2,71883, Note_on_c, 0, 71, 87
2,71887, Note_on_c, 0, 55, 74
2,72020, Note_on_c, 0, 68, 87
2,72037, Note_on_c, 0, 55, 0
2,72054, Note_on_c, 0, 71, 0
2,72082, Note_on_c, 0, 68, 0
2,72167, Note_on_c, 0, 67, 87
2,72172, Note_on_c, 0, 59, 79
2,72172, Note_on_c, 0, 74, 82
2,72264, Note_on_c, 0, 67, 0
2,72308, Note_on_c, 0, 59, 0
2,72312, Note_on_c, 0, 65, 75
2,72362, Note_on_c, 0, 65, 0
2,72461, Note_on_c, 0, 60, 78
2,72466, Note_on_c, 0, 63, 89
2,72535, Note_on_c, 0, 74, 0
2,72560, Note_on_c, 0, 60, 0
2,72615, Note_on_c, 0, 67, 73
2,72668, Note_on_c, 0, 67, 0
2,72752, Note_on_c, 0, 72, 88
2,72756, Note_on_c, 0, 63, 0
2,72763, Note_on_c, 0, 56, 66
2,72862, Note_on_c, 0, 56, 0
2,72895, Note_on_c, 0, 63, 74
2,72957, Note_on_c, 0, 63, 0
2,73041, Note_on_c, 0, 53, 63
2,73054, Note_on_c, 0, 62, 78
2,73074, Note_on_c, 0, 72, 0
2,73204, Note_on_c, 0, 53, 0
2,73208, Note_on_c, 0, 72, 75
2,73240, Note_on_c, 0, 72, 0
2,73255, Note_on_c, 0, 62, 0
2,73349, Note_on_c, 0, 71, 71
2,73360, Note_on_c, 0, 55, 60
2,73462, Note_on_c, 0, 55, 0
2,73497, Note_on_c, 0, 65, 46
2,73588, Note_on_c, 0, 65, 0
2,73660, Note_on_c, 0, 48, 42
2,73667, Note_on_c, 0, 72, 67
2,73671, Note_on_c, 0, 71, 0
2,73812, Note_on_c, 0, 65, 50
2,73923, Note_on_c, 0, 65, 0
2,73952, Note_on_c, 0, 63, 58
2,74018, Note_on_c, 0, 48, 0
2,74080, Note_on_c, 0, 63, 0
2,74097, Note_on_c, 0, 62, 71
2,74117, Note_on_c, 0, 72, 0
2,74231, Note_on_c, 0, 63, 77
2,74236, Note_on_c, 0, 62, 0
2,74240, Note_on_c, 0, 60, 73
2,74370, Note_on_c, 0, 48, 58
2,74382, Note_on_c, 0, 70, 64
2,74482, Note_on_c, 0, 70, 0
2,74490, Note_on_c, 0, 48, 0
2,74512, Note_on_c, 0, 50, 58
2,74512, Note_on_c, 0, 69, 56
2,74626, Note_on_c, 0, 69, 0
2,74630, Note_on_c, 0, 50, 0
2,74650, Note_on_c, 0, 51, 62
2,74661, Note_on_c, 0, 67, 56
2,74707, Note_on_c, 0, 60, 0
2,74765, Note_on_c, 0, 67, 0
2,74776, Note_on_c, 0, 51, 0
2,74782, Note_on_c, 0, 63, 0
2,74806, Note_on_c, 0, 69, 60
2,74811, Note_on_c, 0, 53, 56
2,74915, Note_on_c, 0, 53, 0
2,74944, Note_on_c, 0, 51, 55
2,75067, Note_on_c, 0, 51, 0
2,75081, Note_on_c, 0, 53, 60
2,75086, Note_on_c, 0, 57, 60
2,75086, Note_on_c, 0, 60, 68
2,75134, Note_on_c, 0, 60, 0
2,75151, Note_on_c, 0, 57, 0
2,75162, Note_on_c, 0, 53, 0
2,75408, Note_on_c, 0, 65, 63
2,75413, Note_on_c, 0, 62, 57
2,75417, Note_on_c, 0, 53, 60
2,75450, Note_on_c, 0, 69, 0
2,75534, Note_on_c, 0, 53, 0
2,75552, Note_on_c, 0, 67, 57
2,75646, Note_on_c, 0, 67, 0
2,75725, Note_on_c, 0, 46, 49
2,75725, Note_on_c, 0, 69, 49
2,75858, Note_on_c, 0, 65, 0
2,75862, Note_on_c, 0, 70, 70
2,75873, Note_on_c, 0, 62, 0
2,75886, Note_on_c, 0, 69, 0
2,75900, Note_on_c, 0, 46, 0
2,76011, Note_on_c, 0, 62, 75
2,76011, Note_on_c, 0, 67, 82
2,76016, Note_on_c, 0, 58, 82
2,76016, Note_on_c, 0, 70, 0
2,76153, Note_on_c, 0, 46, 70
2,76290, Note_on_c, 0, 48, 67
2,76325, Note_on_c, 0, 46, 0
2,76437, Note_on_c, 0, 50, 71
2,76452, Note_on_c, 0, 48, 0
2,76569, Note_on_c, 0, 62, 0
2,76583, Note_on_c, 0, 51, 82
2,76603, Note_on_c, 0, 50, 0
2,76607, Note_on_c, 0, 58, 0
2,76731, Note_on_c, 0, 50, 71
2,76731, Note_on_c, 0, 51, 0
2,76861, Note_on_c, 0, 58, 68
2,76866, Note_on_c, 0, 55, 61
2,76877, Note_on_c, 0, 51, 69
2,76917, Note_on_c, 0, 50, 0
2,76940, Note_on_c, 0, 58, 0
2,76954, Note_on_c, 0, 55, 0
2,76958, Note_on_c, 0, 51, 0
2,77146, Note_on_c, 0, 51, 46
2,77171, Note_on_c, 0, 63, 70
2,77180, Note_on_c, 0, 60, 56
2,77189, Note_on_c, 0, 67, 0
2,77318, Note_on_c, 0, 65, 59
2,77323, Note_on_c, 0, 51, 0
2,77430, Note_on_c, 0, 65, 0
2,77439, Note_on_c, 0, 63, 0
2,77445, Note_on_c, 0, 67, 67
2,77458, Note_on_c, 0, 45, 45
2,77555, Note_on_c, 0, 60, 0
2,77597, Note_on_c, 0, 69, 66
2,77613, Note_on_c, 0, 67, 0
2,77636, Note_on_c, 0, 45, 0
2,77746, Note_on_c, 0, 60, 61
2,77746, Note_on_c, 0, 65, 67
2,77757, Note_on_c, 0, 57, 72
2,77757, Note_on_c, 0, 69, 0
2,77893, Note_on_c, 0, 45, 60
2,78047, Note_on_c, 0, 46, 66
2,78105, Note_on_c, 0, 45, 0
2,78177, Note_on_c, 0, 48, 70
2,78199, Note_on_c, 0, 46, 0
2,78315, Note_on_c, 0, 60, 0
2,78328, Note_on_c, 0, 50, 77
2,78335, Note_on_c, 0, 48, 0
2,78353, Note_on_c, 0, 57, 0
2,78447, Note_on_c, 0, 50, 0
2,78482, Note_on_c, 0, 48, 60
2,78586, Note_on_c, 0, 48, 0
2,78620, Note_on_c, 0, 50, 50
2,78625, Note_on_c, 0, 53, 54
2,78629, Note_on_c, 0, 57, 61
2,78697, Control_c, 0, 64, 24
2,78713, Control_c, 0, 64, 41
2,78734, Control_c, 0, 64, 55
2,78752, Control_c, 0, 64, 61
2,78789, Control_c, 0, 64, 62
2,78810, Control_c, 0, 64, 64
2,78810, Note_on_c, 0, 57, 0
2,78833, Control_c, 0, 64, 67
2,78848, Control_c, 0, 64, 71
2,78859, Note_on_c, 0, 53, 0
2,78869, Control_c, 0, 64, 76
2,78887, Control_c, 0, 64, 80
2,78906, Control_c, 0, 64, 81
2,78927, Control_c, 0, 64, 82
2,78941, Note_on_c, 0, 62, 73
2,78945, Note_on_c, 0, 58, 70
2,78981, Control_c, 0, 64, 83
2,79002, Control_c, 0, 64, 84
2,79056, Note_on_c, 0, 58, 0
2,79074, Note_on_c, 0, 62, 0
2,79078, Note_on_c, 0, 48, 76
2,79084, Note_on_c, 0, 50, 0
2,79138, Control_c, 0, 64, 83
2,79153, Control_c, 0, 64, 82
2,79172, Control_c, 0, 64, 81
2,79193, Control_c, 0, 64, 79
2,79211, Control_c, 0, 64, 76
2,79234, Note_on_c, 0, 58, 76
2,79238, Control_c, 0, 64, 70
2,79238, Note_on_c, 0, 50, 81
2,79238, Note_on_c, 0, 62, 73
2,79251, Control_c, 0, 64, 63
2,79256, Note_on_c, 0, 48, 0
2,79269, Control_c, 0, 64, 52
2,79289, Control_c, 0, 64, 34
2,79306, Control_c, 0, 64, 0
2,79340, Note_on_c, 0, 65, 0
2,79360, Note_on_c, 0, 50, 0
2,79365, Note_on_c, 0, 69, 72
2,79373, Note_on_c, 0, 48, 72
2,79378, Note_on_c, 0, 58, 0
2,79406, Note_on_c, 0, 48, 0
2,79411, Note_on_c, 0, 62, 0
2,79504, Note_on_c, 0, 67, 76
2,79505, Note_on_c, 0, 46, 90
2,79509, Note_on_c, 0, 62, 76
2,79511, Note_on_c, 0, 58, 77
2,79546, Note_on_c, 0, 69, 0
2,79623, Note_on_c, 0, 62, 0
2,79628, Note_on_c, 0, 58, 0
2,79647, Note_on_c, 0, 45, 75
2,79722, Note_on_c, 0, 46, 0
2,79749, Note_on_c, 0, 45, 0
2,79791, Note_on_c, 0, 46, 82
2,79802, Note_on_c, 0, 58, 79
2,79802, Note_on_c, 0, 62, 81
2,79851, Note_on_c, 0, 46, 0
2,79883, Note_on_c, 0, 58, 0
2,79914, Note_on_c, 0, 62, 0
2,79929, Note_on_c, 0, 44, 95
2,79949, Note_on_c, 0, 65, 73
2,79971, Note_on_c, 0, 44, 0
2,79991, Note_on_c, 0, 67, 0
2,80080, Note_on_c, 0, 70, 89
2,80085, Note_on_c, 0, 43, 94
2,80085, Note_on_c, 0, 62, 80
2,80089, Note_on_c, 0, 58, 78
2,80102, Note_on_c, 0, 65, 0
2,80136, Note_on_c, 0, 43, 0
2,80216, Note_on_c, 0, 58, 0
2,80222, Note_on_c, 0, 41, 88
2,80233, Note_on_c, 0, 62, 0
2,80260, Note_on_c, 0, 41, 0
2,80362, Note_on_c, 0, 43, 90
2,80377, Note_on_c, 0, 62, 78
2,80386, Note_on_c, 0, 58, 79
2,80406, Note_on_c, 0, 70, 0
2,80410, Note_on_c, 0, 43, 0
2,80496, Note_on_c, 0, 41, 85
2,80516, Note_on_c, 0, 58, 0
2,80516, Note_on_c, 0, 69, 75
2,80533, Note_on_c, 0, 62, 0
2,80542, Note_on_c, 0, 41, 0
2,80651, Note_on_c, 0, 40, 88
2,80658, Note_on_c, 0, 58, 79
2,80658, Note_on_c, 0, 62, 85
2,80660, Note_on_c, 0, 67, 76
2,80671, Control_c, 0, 64, 40
2,80671, Note_on_c, 0, 69, 0
2,80689, Control_c, 0, 64, 55
2,80711, Control_c, 0, 64, 64
2,80729, Control_c, 0, 64, 68
2,80733, Note_on_c, 0, 58, 0
2,80733, Note_on_c, 0, 62, 0
2,80748, Control_c, 0, 64, 73
2,80766, Control_c, 0, 64, 79
2,80787, Control_c, 0, 64, 87
2,80796, Note_on_c, 0, 40, 0
2,80810, Control_c, 0, 64, 92
2,80810, Note_on_c, 0, 36, 73
2,80827, Control_c, 0, 64, 94
2,80845, Control_c, 0, 64, 96
2,80862, Control_c, 0, 64, 106
2,80882, Control_c, 0, 64, 127
2,80959, Control_c, 0, 64, 89
2,80965, Note_on_c, 0, 38, 74
2,80965, Note_on_c, 0, 57, 77
2,80977, Control_c, 0, 64, 61
2,80982, Note_on_c, 0, 60, 74
2,80987, Note_on_c, 0, 36, 0
2,80997, Control_c, 0, 64, 0
2,81088, Note_on_c, 0, 57, 0
2,81088, Note_on_c, 0, 60, 0
2,81109, Note_on_c, 0, 55, 65
2,81114, Note_on_c, 0, 40, 71
2,81120, Note_on_c, 0, 38, 0
2,81245, Note_on_c, 0, 60, 63
2,81253, Note_on_c, 0, 40, 0
2,81257, Note_on_c, 0, 55, 0
2,81262, Note_on_c, 0, 57, 62
2,81266, Note_on_c, 0, 41, 73
2,81349, Note_on_c, 0, 67, 0
2,81376, Note_on_c, 0, 57, 0
2,81376, Note_on_c, 0, 60, 0
2,81383, Note_on_c, 0, 41, 0
2,81392, Note_on_c, 0, 55, 62
2,81410, Note_on_c, 0, 36, 61
2,81479, Note_on_c, 0, 55, 0
2,81516, Note_on_c, 0, 65, 71
2,81529, Note_on_c, 0, 57, 69
2,81547, Note_on_c, 0, 41, 61
2,81571, Note_on_c, 0, 36, 0
2,81627, Note_on_c, 0, 57, 0
2,81644, Note_on_c, 0, 41, 0
2,81677, Note_on_c, 0, 59, 66
2,81682, Note_on_c, 0, 43, 58
2,81793, Note_on_c, 0, 59, 0
2,81807, Note_on_c, 0, 43, 0
2,81819, Note_on_c, 0, 44, 67
2,81819, Note_on_c, 0, 60, 66
2,81850, Note_on_c, 0, 44, 0
2,81939, Note_on_c, 0, 60, 0
2,81951, Note_on_c, 0, 59, 64
2,82059, Note_on_c, 0, 65, 0
2,82086, Note_on_c, 0, 59, 0
2,82100, Note_on_c, 0, 60, 64
2,82108, Note_on_c, 0, 38, 57
2,82144, Note_on_c, 0, 38, 0
2,82241, Note_on_c, 0, 65, 56
2,82373, Note_on_c, 0, 63, 69
2,82399, Control_c, 0, 64, 9
2,82410, Note_on_c, 0, 43, 47
2,82410, Note_on_c, 0, 65, 0
2,82418, Control_c, 0, 64, 44
2,82440, Control_c, 0, 64, 62
2,82457, Control_c, 0, 64, 66
2,82477, Control_c, 0, 64, 68
2,82497, Control_c, 0, 64, 71
2,82497, Note_on_c, 0, 60, 0
2,82508, Note_on_c, 0, 43, 0
2,82517, Control_c, 0, 64, 77
2,82517, Note_on_c, 0, 63, 0
2,82534, Control_c, 0, 64, 88
2,82544, Note_on_c, 0, 42, 54
2,82552, Control_c, 0, 64, 108
2,82572, Control_c, 0, 64, 127
2,82655, Note_on_c, 0, 42, 0
2,82688, Note_on_c, 0, 59, 65
2,82688, Note_on_c, 0, 62, 65
2,82691, Note_on_c, 0, 43, 56
2,82723, Control_c, 0, 64, 86
2,82744, Control_c, 0, 64, 62
2,82755, Note_on_c, 0, 43, 0
2,82767, Control_c, 0, 64, 11
2,82782, Control_c, 0, 64, 0
2,82795, Note_on_c, 0, 59, 0
2,82819, Note_on_c, 0, 45, 58
2,82830, Note_on_c, 0, 57, 64
2,82923, Note_on_c, 0, 45, 0
2,82935, Note_on_c, 0, 57, 0
2,82960, Note_on_c, 0, 47, 56
2,82965, Note_on_c, 0, 55, 63
2,83067, Note_on_c, 0, 47, 0
2,83069, Note_on_c, 0, 55, 0
2,83102, Note_on_c, 0, 45, 47
2,83107, Note_on_c, 0, 50, 61
2,83209, Note_on_c, 0, 50, 0
2,83240, Note_on_c, 0, 45, 0
2,83249, Note_on_c, 0, 47, 59
2,83256, Note_on_c, 0, 55, 57
2,83346, Note_on_c, 0, 62, 0
2,83388, Note_on_c, 0, 55, 0
2,83393, Note_on_c, 0, 57, 64
2,83402, Note_on_c, 0, 47, 0
2,83409, Note_on_c, 0, 50, 56
2,83470, Note_on_c, 0, 57, 0
2,83516, Note_on_c, 0, 50, 0
2,83531, Note_on_c, 0, 55, 61
2,83536, Note_on_c, 0, 59, 65
2,83559, Note_on_c, 0, 55, 0
2,83635, Note_on_c, 0, 59, 0
2,83673, Note_on_c, 0, 60, 66
2,83803, Note_on_c, 0, 60, 0
2,83818, Note_on_c, 0, 62, 71
2,83819, Note_on_c, 0, 47, 61
2,83859, Note_on_c, 0, 47, 0
2,83952, Note_on_c, 0, 67, 67
2,84092, Note_on_c, 0, 65, 71
2,84118, Note_on_c, 0, 48, 57
2,84127, Control_c, 0, 64, 35
2,84149, Control_c, 0, 64, 60
2,84149, Note_on_c, 0, 67, 0
2,84166, Note_on_c, 0, 62, 0
2,84171, Control_c, 0, 64, 65
2,84186, Control_c, 0, 64, 66
2,84208, Control_c, 0, 64, 68
2,84215, Note_on_c, 0, 65, 0
2,84226, Control_c, 0, 64, 71
2,84243, Control_c, 0, 64, 79
2,84259, Note_on_c, 0, 60, 61
2,84266, Control_c, 0, 64, 94
2,84281, Control_c, 0, 64, 127
2,84343, Note_on_c, 0, 60, 0
2,84378, Control_c, 0, 64, 93
2,84378, Note_on_c, 0, 55, 61
2,84397, Control_c, 0, 64, 63
2,84401, Note_on_c, 0, 60, 61
2,84401, Note_on_c, 0, 63, 78
2,84416, Note_on_c, 0, 48, 0
2,84418, Control_c, 0, 64, 0
2,84528, Note_on_c, 0, 55, 0
2,84532, Note_on_c, 0, 60, 0
2,84536, Note_on_c, 0, 65, 74
2,84540, Note_on_c, 0, 51, 62
2,84543, Note_on_c, 0, 63, 0
2,84574, Note_on_c, 0, 65, 0
2,84697, Note_on_c, 0, 51, 0
2,84735, Note_on_c, 0, 48, 45
2,84740, Note_on_c, 0, 75, 83
2,84746, Note_on_c, 0, 67, 64
2,84801, Control_c, 0, 64, 32
2,84805, Note_on_c, 0, 73, 16
2,84821, Control_c, 0, 64, 52
2,84839, Control_c, 0, 64, 62
2,84844, Note_on_c, 0, 73, 0
2,84897, Control_c, 0, 64, 64
2,84917, Control_c, 0, 64, 67
2,84931, Note_on_c, 0, 55, 49
2,84935, Control_c, 0, 64, 71
2,84953, Control_c, 0, 64, 76
2,84973, Control_c, 0, 64, 83
2,84993, Control_c, 0, 64, 92
2,85013, Control_c, 0, 64, 104
2,85013, Note_on_c, 0, 55, 0
2,85024, Note_on_c, 0, 48, 0
2,85031, Note_on_c, 0, 67, 0
2,85036, Control_c, 0, 64, 127
2,85056, Note_on_c, 0, 57, 63
2,85077, Note_on_c, 0, 75, 0
2,85152, Note_on_c, 0, 57, 0
2,85182, Note_on_c, 0, 59, 71
2,85264, Control_c, 0, 64, 103
2,85280, Control_c, 0, 64, 64
2,85299, Control_c, 0, 64, 0
2,85303, Note_on_c, 0, 59, 0
2,85312, Note_on_c, 0, 60, 78
2,85441, Note_on_c, 0, 59, 76
2,85455, Note_on_c, 0, 60, 0
2,85548, Note_on_c, 0, 59, 0
2,85579, Note_on_c, 0, 63, 75
2,85579, Note_on_c, 0, 72, 83
2,85593, Note_on_c, 0, 60, 72
2,85608, Note_on_c, 0, 63, 0
2,85625, Note_on_c, 0, 72, 0
2,85737, Note_on_c, 0, 56, 74
2,85745, Note_on_c, 0, 60, 0
2,85869, Note_on_c, 0, 77, 92
2,85874, Note_on_c, 0, 68, 85
2,85901, Note_on_c, 0, 60, 56
2,85916, Control_c, 0, 64, 38
2,85934, Control_c, 0, 64, 57
2,85954, Control_c, 0, 64, 64
2,85973, Control_c, 0, 64, 65
2,85990, Control_c, 0, 64, 68
2,86008, Note_on_c, 0, 50, 55
2,86012, Control_c, 0, 64, 76
2,86030, Control_c, 0, 64, 94
2,86035, Note_on_c, 0, 60, 0
2,86050, Note_on_c, 0, 56, 0
2,86055, Control_c, 0, 64, 127
2,86089, Note_on_c, 0, 77, 0
2,86117, Note_on_c, 0, 68, 0
2,86146, Note_on_c, 0, 53, 70
2,86155, Note_on_c, 0, 50, 0
2,86182, Control_c, 0, 64, 98
2,86200, Control_c, 0, 64, 63
2,86218, Control_c, 0, 64, 0
2,86289, Note_on_c, 0, 56, 71
2,86326, Note_on_c, 0, 53, 0
2,86427, Note_on_c, 0, 56, 0
2,86436, Note_on_c, 0, 74, 93
2,86445, Note_on_c, 0, 58, 64
2,86445, Note_on_c, 0, 65, 82
2,86507, Control_c, 0, 64, 10
2,86527, Control_c, 0, 64, 33
2,86545, Control_c, 0, 64, 51
2,86565, Control_c, 0, 64, 62
2,86586, Control_c, 0, 64, 65
2,86586, Note_on_c, 0, 53, 65
2,86603, Control_c, 0, 64, 66
2,86621, Control_c, 0, 64, 69
2,86641, Control_c, 0, 64, 80
2,86660, Control_c, 0, 64, 104
2,86678, Control_c, 0, 64, 127
2,86716, Note_on_c, 0, 55, 71
2,86744, Note_on_c, 0, 65, 0
2,86750, Note_on_c, 0, 74, 0
2,86777, Note_on_c, 0, 53, 0
2,86794, Note_on_c, 0, 58, 0
2,86852, Note_on_c, 0, 56, 79
2,86886, Note_on_c, 0, 55, 0
2,86891, Control_c, 0, 64, 78
2,86911, Control_c, 0, 64, 46
2,86929, Control_c, 0, 64, 0
2,86980, Note_on_c, 0, 58, 78
2,86990, Note_on_c, 0, 56, 0
2,87113, Note_on_c, 0, 56, 78
2,87129, Note_on_c, 0, 58, 0
2,87245, Note_on_c, 0, 62, 81
2,87245, Note_on_c, 0, 70, 89
2,87249, Note_on_c, 0, 56, 0
2,87258, Note_on_c, 0, 58, 77
2,87276, Note_on_c, 0, 62, 0
2,87282, Note_on_c, 0, 70, 0
2,87375, Note_on_c, 0, 55, 73
2,87412, Note_on_c, 0, 58, 0
2,87535, Note_on_c, 0, 67, 88
2,87535, Note_on_c, 0, 75, 92
2,87543, Control_c, 0, 64, 38
2,87548, Note_on_c, 0, 58, 74
2,87564, Control_c, 0, 64, 57
2,87581, Control_c, 0, 64, 64
2,87600, Control_c, 0, 64, 66
2,87620, Control_c, 0, 64, 70
2,87640, Control_c, 0, 64, 77
2,87662, Control_c, 0, 64, 94
2,87678, Control_c, 0, 64, 127
2,87693, Note_on_c, 0, 48, 64
2,87722, Note_on_c, 0, 75, 0
2,87731, Note_on_c, 0, 55, 0
2,87750, Note_on_c, 0, 67, 0
2,87832, Note_on_c, 0, 51, 81
2,87841, Note_on_c, 0, 58, 0
2,87872, Control_c, 0, 64, 104
2,87889, Control_c, 0, 64, 64
2,87898, Note_on_c, 0, 48, 0
2,87911, Control_c, 0, 64, 0
2,87975, Note_on_c, 0, 55, 73
2,88039, Note_on_c, 0, 51, 0
2,88118, Note_on_c, 0, 72, 93
2,88125, Note_on_c, 0, 55, 0
2,88125, Note_on_c, 0, 63, 86
2,88129, Note_on_c, 0, 56, 76
2,88198, Control_c, 0, 64, 15
2,88216, Control_c, 0, 64, 34
2,88237, Control_c, 0, 64, 49
2,88253, Control_c, 0, 64, 61
2,88261, Note_on_c, 0, 51, 77
2,88275, Control_c, 0, 64, 64
2,88293, Control_c, 0, 64, 65
2,88315, Control_c, 0, 64, 69
2,88332, Control_c, 0, 64, 76
2,88350, Control_c, 0, 64, 91
2,88370, Control_c, 0, 64, 120
2,88388, Control_c, 0, 64, 127
2,88399, Note_on_c, 0, 53, 78
2,88447, Note_on_c, 0, 56, 0
2,88447, Note_on_c, 0, 63, 0
2,88451, Note_on_c, 0, 72, 0
2,88475, Note_on_c, 0, 51, 0
2,88540, Note_on_c, 0, 55, 79
2,88577, Note_on_c, 0, 53, 0
2,88619, Control_c, 0, 64, 103
2,88641, Control_c, 0, 64, 64
2,88657, Control_c, 0, 64, 0
2,88675, Note_on_c, 0, 56, 82
2,88680, Note_on_c, 0, 55, 0
2,88804, Note_on_c, 0, 55, 78
2,88829, Note_on_c, 0, 56, 0
2,88939, Note_on_c, 0, 55, 0
2,88957, Note_on_c, 0, 56, 81
2,88957, Note_on_c, 0, 60, 83
2,88957, Note_on_c, 0, 68, 92
2,89038, Note_on_c, 0, 60, 0
2,89059, Note_on_c, 0, 68, 0
2,89095, Note_on_c, 0, 53, 65
2,89237, Note_on_c, 0, 56, 0
2,89245, Note_on_c, 0, 47, 68
2,89245, Note_on_c, 0, 53, 0
2,89252, Control_c, 0, 64, 24
2,89259, Note_on_c, 0, 74, 87
2,89264, Note_on_c, 0, 65, 73
2,89270, Control_c, 0, 64, 48
2,89292, Control_c, 0, 64, 62
2,89310, Control_c, 0, 64, 65
2,89347, Control_c, 0, 64, 67
2,89368, Control_c, 0, 64, 72
2,89391, Control_c, 0, 64, 84
2,89391, Note_on_c, 0, 55, 80
2,89391, Note_on_c, 0, 65, 0
2,89400, Note_on_c, 0, 74, 0
2,89406, Control_c, 0, 64, 96
2,89425, Control_c, 0, 64, 101
2,89444, Control_c, 0, 64, 102
2,89523, Control_c, 0, 64, 101
2,89542, Control_c, 0, 64, 97
2,89542, Note_on_c, 0, 56, 84
2,89553, Note_on_c, 0, 65, 89
2,89553, Note_on_c, 0, 74, 97
2,89559, Control_c, 0, 64, 95
2,89564, Note_on_c, 0, 55, 0
2,89579, Control_c, 0, 64, 94
2,89619, Control_c, 0, 64, 93
2,89628, Note_on_c, 0, 65, 0
2,89637, Control_c, 0, 64, 92
2,89641, Note_on_c, 0, 74, 0
2,89656, Control_c, 0, 64, 91
2,89676, Control_c, 0, 64, 93
2,89685, Note_on_c, 0, 56, 0
2,89695, Note_on_c, 0, 55, 80
2,89696, Control_c, 0, 64, 96
2,89712, Control_c, 0, 64, 102
2,89732, Control_c, 0, 64, 122
2,89752, Control_c, 0, 64, 127
2,89774, Note_on_c, 0, 47, 0
2,89796, Note_on_c, 0, 55, 0
2,89812, Control_c, 0, 64, 87
2,89829, Control_c, 0, 64, 61
2,89838, Note_on_c, 0, 53, 89
2,89843, Note_on_c, 0, 65, 95
2,89847, Control_c, 0, 64, 0
2,89847, Note_on_c, 0, 74, 94
2,89901, Note_on_c, 0, 53, 0
2,89901, Note_on_c, 0, 65, 0
2,89901, Note_on_c, 0, 74, 0
2,89976, Note_on_c, 0, 51, 87
2,90017, Note_on_c, 0, 51, 0
2,90122, Note_on_c, 0, 50, 90
2,90122, Note_on_c, 0, 53, 90
2,90131, Note_on_c, 0, 65, 97
2,90131, Note_on_c, 0, 74, 98
2,90160, Note_on_c, 0, 53, 0
2,90169, Note_on_c, 0, 50, 0
2,90173, Note_on_c, 0, 65, 0
2,90181, Note_on_c, 0, 74, 0
2,90267, Note_on_c, 0, 51, 93
2,90311, Note_on_c, 0, 51, 0
2,90412, Note_on_c, 0, 50, 94
2,90416, Note_on_c, 0, 41, 87
2,90416, Note_on_c, 0, 65, 91
2,90416, Note_on_c, 0, 74, 98
2,90447, Note_on_c, 0, 50, 0
2,90452, Note_on_c, 0, 41, 0
2,90454, Note_on_c, 0, 65, 0
2,90463, Note_on_c, 0, 74, 0
2,90552, Note_on_c, 0, 48, 93
2,90596, Note_on_c, 0, 48, 0
2,90696, Note_on_c, 0, 50, 94
2,90696, Note_on_c, 0, 74, 99
2,90700, Note_on_c, 0, 44, 87
2,90700, Note_on_c, 0, 65, 93
2,90730, Note_on_c, 0, 50, 0
2,90735, Note_on_c, 0, 65, 0
2,90748, Note_on_c, 0, 43, 48
2,90748, Note_on_c, 0, 74, 0
2,90759, Note_on_c, 0, 44, 0
2,90804, Note_on_c, 0, 43, 0
2,90837, Note_on_c, 0, 48, 88
2,90873, Note_on_c, 0, 48, 0
2,90984, Note_on_c, 0, 43, 80
2,90995, Note_on_c, 0, 47, 80
2,90995, Note_on_c, 0, 74, 94
2,90997, Note_on_c, 0, 65, 88
2,91015, Control_c, 0, 64, 16
2,91034, Control_c, 0, 64, 43
2,91057, Control_c, 0, 64, 59
2,91075, Control_c, 0, 64, 64
2,91077, Note_on_c, 0, 47, 0
2,91083, Note_on_c, 0, 43, 0
2,91092, Control_c, 0, 64, 65
2,91113, Control_c, 0, 64, 66
2,91133, Control_c, 0, 64, 69
2,91137, Note_on_c, 0, 72, 92
2,91153, Control_c, 0, 64, 72
2,91170, Control_c, 0, 64, 77
2,91174, Note_on_c, 0, 74, 0
2,91178, Note_on_c, 0, 65, 0
2,91192, Control_c, 0, 64, 78
2,91278, Note_on_c, 0, 74, 89
2,91281, Note_on_c, 0, 55, 81
2,91285, Control_c, 0, 64, 77
2,91285, Note_on_c, 0, 59, 85
2,91285, Note_on_c, 0, 65, 82
2,91299, Note_on_c, 0, 72, 0
2,91312, Note_on_c, 0, 55, 0
2,91312, Note_on_c, 0, 59, 0
2,91346, Control_c, 0, 64, 78
2,91361, Control_c, 0, 64, 79
2,91379, Control_c, 0, 64, 81
2,91402, Control_c, 0, 64, 83
2,91422, Note_on_c, 0, 72, 90
2,91426, Control_c, 0, 64, 87
2,91442, Control_c, 0, 64, 97
2,91447, Note_on_c, 0, 74, 0
2,91465, Control_c, 0, 64, 127
2,91465, Note_on_c, 0, 65, 0
2,91481, Note_on_c, 0, 72, 0
2,91518, Control_c, 0, 64, 74
2,91538, Control_c, 0, 64, 41
2,91558, Control_c, 0, 64, 0
2,91562, Note_on_c, 0, 55, 85
2,91562, Note_on_c, 0, 71, 99
2,91567, Note_on_c, 0, 59, 86
2,91567, Note_on_c, 0, 65, 89
2,91596, Note_on_c, 0, 55, 0
2,91596, Note_on_c, 0, 59, 0
2,91623, Note_on_c, 0, 65, 0
2,91623, Note_on_c, 0, 71, 0
2,91702, Note_on_c, 0, 69, 90
2,91750, Note_on_c, 0, 69, 0
2,91844, Note_on_c, 0, 55, 84
2,91844, Note_on_c, 0, 59, 94
2,91844, Note_on_c, 0, 71, 97
2,91848, Note_on_c, 0, 65, 93
2,91866, Note_on_c, 0, 59, 0
2,91871, Note_on_c, 0, 55, 0
2,91895, Note_on_c, 0, 65, 0
2,91901, Note_on_c, 0, 71, 0
2,91975, Note_on_c, 0, 69, 90
2,92024, Note_on_c, 0, 69, 0
2,92122, Note_on_c, 0, 60, 92
2,92126, Note_on_c, 0, 67, 101
2,92131, Note_on_c, 0, 57, 83
2,92154, Note_on_c, 0, 60, 0
2,92165, Note_on_c, 0, 57, 0
2,92197, Note_on_c, 0, 67, 0
2,92265, Note_on_c, 0, 65, 92
2,92309, Note_on_c, 0, 65, 0
2,92410, Note_on_c, 0, 59, 93
2,92410, Note_on_c, 0, 67, 98
2,92414, Note_on_c, 0, 62, 94
2,92463, Note_on_c, 0, 59, 0
2,92548, Note_on_c, 0, 65, 77
2,92633, Note_on_c, 0, 65, 0
2,92700, Note_on_c, 0, 51, 93
2,92716, Note_on_c, 0, 62, 0
2,92842, Note_on_c, 0, 63, 77
2,92969, Note_on_c, 0, 63, 0
2,92980, Note_on_c, 0, 55, 76
2,92985, Note_on_c, 0, 65, 70
2,93031, Note_on_c, 0, 55, 0
2,93096, Note_on_c, 0, 65, 0
2,93131, Note_on_c, 0, 62, 69
2,93169, Note_on_c, 0, 62, 0
2,93203, Note_on_c, 0, 67, 0
2,93262, Note_on_c, 0, 63, 89
2,93276, Note_on_c, 0, 60, 83
2,93299, Note_on_c, 0, 51, 0
2,93391, Note_on_c, 0, 67, 72
2,93413, Note_on_c, 0, 51, 85
2,93535, Note_on_c, 0, 69, 72
2,93540, Note_on_c, 0, 53, 76
2,93580, Note_on_c, 0, 67, 0
2,93597, Note_on_c, 0, 51, 0
2,93671, Note_on_c, 0, 71, 80
2,93675, Note_on_c, 0, 55, 78
2,93685, Note_on_c, 0, 69, 0
2,93713, Note_on_c, 0, 53, 0
2,93787, Note_on_c, 0, 63, 0
2,93807, Note_on_c, 0, 55, 0
2,93812, Note_on_c, 0, 56, 82
2,93821, Note_on_c, 0, 72, 89
2,93843, Note_on_c, 0, 71, 0
2,93945, Note_on_c, 0, 55, 81
2,93949, Note_on_c, 0, 56, 0
2,94093, Note_on_c, 0, 56, 92
2,94104, Note_on_c, 0, 68, 88
2,94112, Note_on_c, 0, 65, 75
2,94130, Note_on_c, 0, 55, 0
2,94153, Note_on_c, 0, 60, 0
2,94187, Note_on_c, 0, 65, 0
2,94200, Note_on_c, 0, 56, 0
2,94325, Note_on_c, 0, 68, 0
2,94420, Note_on_c, 0, 65, 80
2,94424, Note_on_c, 0, 56, 89
2,94424, Note_on_c, 0, 62, 90
2,94525, Note_on_c, 0, 72, 0
2,94558, Note_on_c, 0, 56, 0
2,94751, Note_on_c, 0, 50, 91
2,94751, Note_on_c, 0, 71, 83
2,94893, Note_on_c, 0, 69, 76
2,94919, Note_on_c, 0, 71, 0
2,94933, Note_on_c, 0, 65, 0
2,94944, Note_on_c, 0, 69, 0
2,95023, Note_on_c, 0, 50, 0
2,95036, Note_on_c, 0, 71, 94
2,95181, Note_on_c, 0, 68, 81
2,95189, Note_on_c, 0, 50, 77
2,95310, Note_on_c, 0, 51, 84
2,95321, Note_on_c, 0, 67, 74
2,95361, Note_on_c, 0, 50, 0
2,95361, Note_on_c, 0, 68, 0
2,95361, Note_on_c, 0, 71, 0
2,95390, Note_on_c, 0, 62, 0
2,95421, Note_on_c, 0, 67, 0
2,95441, Note_on_c, 0, 53, 76
2,95454, Note_on_c, 0, 65, 78
2,95494, Note_on_c, 0, 51, 0
2,95527, Note_on_c, 0, 65, 0
2,95584, Note_on_c, 0, 61, 84
2,95588, Note_on_c, 0, 70, 86
2,95593, Note_on_c, 0, 55, 74
2,95597, Note_on_c, 0, 64, 80
2,95606, Note_on_c, 0, 53, 0
2,95740, Note_on_c, 0, 53, 75
2,95747, Note_on_c, 0, 64, 0
2,95747, Note_on_c, 0, 65, 73
2,95772, Note_on_c, 0, 55, 0
2,95878, Note_on_c, 0, 64, 85
2,95881, Note_on_c, 0, 65, 0
2,95892, Note_on_c, 0, 55, 80
2,95931, Note_on_c, 0, 53, 0
2,95990, Note_on_c, 0, 55, 0
2,96005, Note_on_c, 0, 61, 0
2,96018, Note_on_c, 0, 65, 75
2,96036, Note_on_c, 0, 64, 0
2,96127, Note_on_c, 0, 65, 0
2,96169, Note_on_c, 0, 55, 82
2,96176, Note_on_c, 0, 60, 86
2,96176, Note_on_c, 0, 64, 87
2,96216, Note_on_c, 0, 70, 0
2,96293, Note_on_c, 0, 55, 0
2,96489, Note_on_c, 0, 69, 76
2,96495, Note_on_c, 0, 48, 66
2,96634, Note_on_c, 0, 67, 81
2,96658, Note_on_c, 0, 69, 0
2,96687, Note_on_c, 0, 64, 0
2,96694, Note_on_c, 0, 67, 0
2,96756, Note_on_c, 0, 48, 0
2,96780, Note_on_c, 0, 69, 86
2,96923, Note_on_c, 0, 48, 70
2,96923, Note_on_c, 0, 67, 67
2,97059, Note_on_c, 0, 50, 71
2,97072, Note_on_c, 0, 65, 67
2,97097, Note_on_c, 0, 60, 0
2,97101, Note_on_c, 0, 48, 0
2,97143, Note_on_c, 0, 67, 0
2,97163, Note_on_c, 0, 69, 0
2,97192, Note_on_c, 0, 65, 0
2,97201, Note_on_c, 0, 63, 70
2,97205, Note_on_c, 0, 50, 0
2,97210, Note_on_c, 0, 51, 73
2,97317, Note_on_c, 0, 63, 0
2,97329, Note_on_c, 0, 51, 0
2,97338, Note_on_c, 0, 59, 50
2,97348, Note_on_c, 0, 68, 72
2,97355, Note_on_c, 0, 62, 64
2,97361, Note_on_c, 0, 53, 55
2,97470, Note_on_c, 0, 62, 0
2,97483, Note_on_c, 0, 53, 0
2,97485, Note_on_c, 0, 63, 63
2,97505, Note_on_c, 0, 51, 53
2,97610, Note_on_c, 0, 63, 0
2,97637, Note_on_c, 0, 62, 58
2,97641, Note_on_c, 0, 53, 53
2,97668, Note_on_c, 0, 51, 0
2,97701, Note_on_c, 0, 59, 0
2,97705, Note_on_c, 0, 53, 0
2,97761, Note_on_c, 0, 62, 0
2,97774, Note_on_c, 0, 63, 60
2,97890, Note_on_c, 0, 63, 0
2,97922, Note_on_c, 0, 62, 66
2,97937, Note_on_c, 0, 58, 59
2,97942, Note_on_c, 0, 53, 53
2,98006, Note_on_c, 0, 53, 0
2,98211, Note_on_c, 0, 46, 63
2,98225, Note_on_c, 0, 58, 0
2,98225, Note_on_c, 0, 68, 0
2,98230, Note_on_c, 0, 67, 66
2,98249, Note_on_c, 0, 46, 0
2,98358, Note_on_c, 0, 67, 0
2,98367, Note_on_c, 0, 62, 0
2,98371, Note_on_c, 0, 65, 70
2,98413, Note_on_c, 0, 65, 0
2,98513, Note_on_c, 0, 67, 84
2,98526, Note_on_c, 0, 58, 74
2,98526, Note_on_c, 0, 62, 79
2,98669, Note_on_c, 0, 74, 65
2,98671, Note_on_c, 0, 77, 70
2,98702, Note_on_c, 0, 74, 0
2,98720, Note_on_c, 0, 77, 0
2,98796, Note_on_c, 0, 79, 84
2,98801, Note_on_c, 0, 75, 74
2,98840, Note_on_c, 0, 75, 0
2,98840, Note_on_c, 0, 79, 0
2,98930, Note_on_c, 0, 80, 81
2,98937, Note_on_c, 0, 77, 83
2,98969, Note_on_c, 0, 77, 0
2,98991, Note_on_c, 0, 80, 0
2,98995, Note_on_c, 0, 67, 0
2,99025, Note_on_c, 0, 62, 0
2,99036, Note_on_c, 0, 58, 0
2,99077, Note_on_c, 0, 82, 78
2,99081, Note_on_c, 0, 79, 82
2,99108, Note_on_c, 0, 79, 0
2,99119, Note_on_c, 0, 82, 0
2,99215, Note_on_c, 0, 80, 78
2,99224, Note_on_c, 0, 77, 70
2,99246, Note_on_c, 0, 77, 0
2,99253, Note_on_c, 0, 80, 0
2,99355, Note_on_c, 0, 58, 73
2,99364, Note_on_c, 0, 55, 67
2,99364, Note_on_c, 0, 79, 86
2,99364, Note_on_c, 0, 82, 84
2,99398, Note_on_c, 0, 79, 0
2,99409, Note_on_c, 0, 55, 0
2,99413, Note_on_c, 0, 82, 0
2,99428, Note_on_c, 0, 58, 0
2,99670, Note_on_c, 0, 79, 80
2,99670, Note_on_c, 0, 82, 77
2,99678, Note_on_c, 0, 60, 77
2,99678, Note_on_c, 0, 63, 82
2,99717, Note_on_c, 0, 79, 0
2,99735, Note_on_c, 0, 82, 0
2,99983, Note_on_c, 0, 75, 77
2,99987, Note_on_c, 0, 72, 75
2,100050, Note_on_c, 0, 72, 0
2,100057, Note_on_c, 0, 75, 0
2,100086, Note_on_c, 0, 60, 0
2,100097, Note_on_c, 0, 63, 0
2,100283, Note_on_c, 0, 60, 90
2,100287, Note_on_c, 0, 56, 89
2,100419, Note_on_c, 0, 72, 74
2,100423, Note_on_c, 0, 75, 75
2,100459, Note_on_c, 0, 72, 0
2,100465, Note_on_c, 0, 75, 0
2,100553, Note_on_c, 0, 74, 81
2,100557, Note_on_c, 0, 77, 83
2,100586, Note_on_c, 0, 74, 0
2,100608, Note_on_c, 0, 77, 0
2,100689, Note_on_c, 0, 60, 0
2,100689, Note_on_c, 0, 79, 90
2,100693, Note_on_c, 0, 75, 85
2,100720, Note_on_c, 0, 56, 0
2,100741, Note_on_c, 0, 75, 0
2,100746, Note_on_c, 0, 79, 0
2,100824, Note_on_c, 0, 77, 92
2,100824, Note_on_c, 0, 80, 87
2,100871, Note_on_c, 0, 77, 0
2,100889, Note_on_c, 0, 80, 0
2,100963, Note_on_c, 0, 79, 91
2,100969, Note_on_c, 0, 75, 81
2,101009, Note_on_c, 0, 75, 0
2,101028, Note_on_c, 0, 79, 0
2,101110, Note_on_c, 0, 53, 89
2,101110, Note_on_c, 0, 56, 93
2,101114, Note_on_c, 0, 77, 97
2,101114, Note_on_c, 0, 80, 94
2,101157, Note_on_c, 0, 53, 0
2,101166, Note_on_c, 0, 77, 0
2,101183, Note_on_c, 0, 56, 0
2,101186, Note_on_c, 0, 80, 0
2,101420, Note_on_c, 0, 77, 94
2,101424, Note_on_c, 0, 62, 93
2,101424, Note_on_c, 0, 80, 87
2,101426, Note_on_c, 0, 58, 91
2,101470, Note_on_c, 0, 77, 0
2,101486, Note_on_c, 0, 80, 0
2,101729, Note_on_c, 0, 74, 88
2,101734, Note_on_c, 0, 70, 86
2,101808, Note_on_c, 0, 70, 0
2,101812, Note_on_c, 0, 74, 0
2,101834, Note_on_c, 0, 62, 0
2,101861, Note_on_c, 0, 58, 0
2,102033, Note_on_c, 0, 55, 89
2,102033, Note_on_c, 0, 58, 90
2,102171, Note_on_c, 0, 70, 82
2,102171, Note_on_c, 0, 74, 81
2,102214, Note_on_c, 0, 70, 0
2,102222, Note_on_c, 0, 74, 0
2,102310, Note_on_c, 0, 75, 91
2,102314, Note_on_c, 0, 72, 86
2,102357, Note_on_c, 0, 72, 0
2,102359, Note_on_c, 0, 75, 0
2,102450, Note_on_c, 0, 77, 95
2,102451, Note_on_c, 0, 74, 93
2,102484, Note_on_c, 0, 74, 0
2,102497, Note_on_c, 0, 55, 0
2,102497, Note_on_c, 0, 58, 0
2,102502, Note_on_c, 0, 77, 0
2,102590, Note_on_c, 0, 75, 93
2,102590, Note_on_c, 0, 79, 98
2,102626, Note_on_c, 0, 75, 0
2,102647, Note_on_c, 0, 79, 0
2,102729, Note_on_c, 0, 74, 93
2,102733, Note_on_c, 0, 77, 93
2,102772, Note_on_c, 0, 74, 0
2,102781, Note_on_c, 0, 77, 0
2,102873, Note_on_c, 0, 55, 90
2,102879, Note_on_c, 0, 51, 88
2,102879, Note_on_c, 0, 75, 95
2,102879, Note_on_c, 0, 79, 98
2,102913, Note_on_c, 0, 55, 0
2,102918, Note_on_c, 0, 51, 0
2,103172, Note_on_c, 0, 56, 85
2,103172, Note_on_c, 0, 60, 89
2,103200, Note_on_c, 0, 60, 0
2,103216, Note_on_c, 0, 56, 0
2,103277, Note_on_c, 0, 79, 0
2,103314, Note_on_c, 0, 75, 0
2,103336, Note_on_c, 0, 73, 76
2,103457, Note_on_c, 0, 60, 69
2,103462, Note_on_c, 0, 56, 69
2,103462, Note_on_c, 0, 82, 77
2,103466, Note_on_c, 0, 75, 70
2,103472, Note_on_c, 0, 73, 0
2,103492, Note_on_c, 0, 56, 0
2,103496, Note_on_c, 0, 60, 0
2,103573, Note_on_c, 0, 82, 0
2,103580, Note_on_c, 0, 75, 0
2,103611, Note_on_c, 0, 73, 71
2,103653, Note_on_c, 0, 73, 0
2,103734, Note_on_c, 0, 60, 78
2,103736, Note_on_c, 0, 80, 82
2,103740, Note_on_c, 0, 56, 74
2,103747, Note_on_c, 0, 72, 80
2,103764, Note_on_c, 0, 60, 0
2,103768, Note_on_c, 0, 56, 0
2,103876, Note_on_c, 0, 70, 77
2,103876, Note_on_c, 0, 72, 0
2,103880, Note_on_c, 0, 80, 0
2,103951, Note_on_c, 0, 70, 0
2,104009, Note_on_c, 0, 72, 89
2,104020, Note_on_c, 0, 56, 88
2,104020, Note_on_c, 0, 60, 93
2,104020, Note_on_c, 0, 79, 90
2,104043, Note_on_c, 0, 60, 0
2,104048, Note_on_c, 0, 56, 0
2,104135, Note_on_c, 0, 72, 0
2,104146, Note_on_c, 0, 70, 79
2,104157, Note_on_c, 0, 79, 0
2,104209, Note_on_c, 0, 70, 0
2,104298, Note_on_c, 0, 68, 96
2,104298, Note_on_c, 0, 77, 97
2,104303, Note_on_c, 0, 60, 90
2,104307, Note_on_c, 0, 56, 85
2,104330, Note_on_c, 0, 60, 0
2,104336, Note_on_c, 0, 56, 0
2,104414, Note_on_c, 0, 77, 0
2,104443, Note_on_c, 0, 68, 0
2,104447, Note_on_c, 0, 67, 73
2,104539, Note_on_c, 0, 67, 0
2,104582, Note_on_c, 0, 75, 92
2,104587, Note_on_c, 0, 68, 86
2,104591, Note_on_c, 0, 56, 81
2,104596, Note_on_c, 0, 60, 85
2,104624, Note_on_c, 0, 56, 0
2,104624, Note_on_c, 0, 60, 0
2,104717, Note_on_c, 0, 68, 0
2,104721, Note_on_c, 0, 67, 66
2,104734, Note_on_c, 0, 75, 0
2,104781, Note_on_c, 0, 67, 0
2,104867, Note_on_c, 0, 74, 87
2,104873, Note_on_c, 0, 58, 85
2,104873, Note_on_c, 0, 62, 89
2,104873, Note_on_c, 0, 65, 80
2,104899, Control_c, 0, 64, 39
2,104917, Control_c, 0, 64, 56
2,104939, Control_c, 0, 64, 62
2,104957, Control_c, 0, 64, 63
2,104976, Control_c, 0, 64, 64
2,104980, Note_on_c, 0, 65, 0
2,104998, Control_c, 0, 64, 67
2,105003, Note_on_c, 0, 74, 0
2,105008, Note_on_c, 0, 62, 0
2,105017, Control_c, 0, 64, 73
2,105017, Note_on_c, 0, 60, 73
2,105036, Control_c, 0, 64, 86
2,105056, Control_c, 0, 64, 102
2,105074, Control_c, 0, 64, 104
2,105094, Control_c, 0, 64, 85
2,105113, Control_c, 0, 64, 63
2,105130, Control_c, 0, 64, 29
2,105142, Note_on_c, 0, 65, 86
2,105142, Note_on_c, 0, 74, 92
2,105154, Control_c, 0, 64, 0
2,105154, Note_on_c, 0, 56, 82
2,105158, Note_on_c, 0, 62, 84
2,105169, Control_c, 0, 64, 35
2,105175, Note_on_c, 0, 60, 0
2,105189, Control_c, 0, 64, 58
2,105193, Note_on_c, 0, 58, 0
2,105209, Control_c, 0, 64, 67
2,105227, Control_c, 0, 64, 74
2,105231, Note_on_c, 0, 65, 0
2,105247, Control_c, 0, 64, 83
2,105256, Note_on_c, 0, 62, 0
2,105267, Control_c, 0, 64, 95
2,105269, Note_on_c, 0, 74, 0
2,105284, Control_c, 0, 64, 116
2,105304, Control_c, 0, 64, 127
2,105308, Note_on_c, 0, 60, 79
2,105338, Note_on_c, 0, 56, 0
2,105338, Note_on_c, 0, 60, 0
2,105399, Control_c, 0, 64, 77
2,105419, Control_c, 0, 64, 46
2,105432, Note_on_c, 0, 75, 94
2,105437, Note_on_c, 0, 67, 89
2,105441, Control_c, 0, 64, 0
2,105441, Note_on_c, 0, 58, 88
2,105446, Note_on_c, 0, 55, 78
2,105538, Note_on_c, 0, 58, 0
2,105590, Note_on_c, 0, 56, 85
2,105595, Note_on_c, 0, 55, 0
2,105604, Note_on_c, 0, 67, 0
2,105657, Note_on_c, 0, 56, 0
2,105709, Note_on_c, 0, 58, 90
2,105729, Note_on_c, 0, 52, 68
2,105729, Note_on_c, 0, 53, 71
2,105766, Note_on_c, 0, 52, 0
2,105766, Note_on_c, 0, 58, 0
2,105779, Note_on_c, 0, 53, 0
2,105788, Note_on_c, 0, 75, 0
2,105849, Note_on_c, 0, 56, 93
2,105849, Note_on_c, 0, 68, 81
2,105853, Note_on_c, 0, 77, 88
2,105879, Note_on_c, 0, 68, 0
2,105911, Note_on_c, 0, 56, 0
2,105924, Note_on_c, 0, 77, 0
2,105987, Note_on_c, 0, 70, 93
2,105987, Note_on_c, 0, 79, 97
2,105994, Note_on_c, 0, 55, 79
2,105998, Note_on_c, 0, 52, 76
2,106005, Note_on_c, 0, 57, 60
2,106030, Note_on_c, 0, 55, 0
2,106034, Note_on_c, 0, 52, 0
2,106038, Note_on_c, 0, 57, 0
2,106139, Note_on_c, 0, 53, 91
2,106177, Note_on_c, 0, 53, 0
2,106249, Note_on_c, 0, 71, 84
2,106253, Note_on_c, 0, 70, 0
2,106256, Note_on_c, 0, 55, 91
2,106305, Note_on_c, 0, 55, 0
2,106388, Note_on_c, 0, 53, 88
2,106403, Note_on_c, 0, 71, 0
2,106430, Note_on_c, 0, 53, 0
2,106524, Note_on_c, 0, 51, 88
2,106528, Note_on_c, 0, 48, 73
2,106532, Note_on_c, 0, 72, 90
2,106566, Note_on_c, 0, 48, 0
2,106566, Note_on_c, 0, 51, 0
2,106571, Control_c, 0, 64, 30
2,106588, Control_c, 0, 64, 50
2,106606, Control_c, 0, 64, 59
2,106624, Control_c, 0, 64, 65
2,106646, Control_c, 0, 64, 72
2,106665, Control_c, 0, 64, 86
2,106665, Note_on_c, 0, 72, 0
2,106670, Note_on_c, 0, 77, 82
2,106675, Note_on_c, 0, 74, 77
2,106684, Control_c, 0, 64, 106
2,106691, Note_on_c, 0, 79, 0
2,106702, Control_c, 0, 64, 127
2,106784, Note_on_c, 0, 77, 0
2,106814, Note_on_c, 0, 74, 0
2,106820, Note_on_c, 0, 75, 82
2,106825, Note_on_c, 0, 79, 84
2,106834, Note_on_c, 0, 63, 76
2,106838, Note_on_c, 0, 60, 72
2,106865, Note_on_c, 0, 63, 0
2,106871, Note_on_c, 0, 60, 0
2,106905, Note_on_c, 0, 75, 0
2,106952, Note_on_c, 0, 74, 85
2,106956, Note_on_c, 0, 77, 77
2,106969, Note_on_c, 0, 79, 0
2,106986, Note_on_c, 0, 77, 0
2,106991, Note_on_c, 0, 74, 0
2,107088, Control_c, 0, 64, 82
2,107100, Note_on_c, 0, 75, 90
2,107104, Note_on_c, 0, 72, 99
2,107109, Control_c, 0, 64, 50
2,107109, Note_on_c, 0, 60, 80
2,107109, Note_on_c, 0, 63, 80
2,107125, Control_c, 0, 64, 0
2,107130, Note_on_c, 0, 63, 0
2,107135, Note_on_c, 0, 60, 0
2,107180, Note_on_c, 0, 75, 0
2,107184, Note_on_c, 0, 72, 0
2,107240, Note_on_c, 0, 70, 73
2,107244, Note_on_c, 0, 74, 79
2,107287, Note_on_c, 0, 70, 0
2,107292, Note_on_c, 0, 74, 0
2,107382, Note_on_c, 0, 60, 84
2,107382, Note_on_c, 0, 75, 87
2,107386, Note_on_c, 0, 63, 80
2,107386, Note_on_c, 0, 72, 90
2,107408, Note_on_c, 0, 63, 0
2,107409, Note_on_c, 0, 60, 0
2,107499, Note_on_c, 0, 72, 0
2,107505, Note_on_c, 0, 75, 0
2,107516, Note_on_c, 0, 74, 75
2,107523, Note_on_c, 0, 70, 78
2,107546, Note_on_c, 0, 74, 0
2,107553, Note_on_c, 0, 70, 0
2,107653, Note_on_c, 0, 63, 86
2,107658, Note_on_c, 0, 60, 83
2,107658, Note_on_c, 0, 68, 92
2,107663, Note_on_c, 0, 72, 77
2,107669, Note_on_c, 0, 74, 68
2,107683, Note_on_c, 0, 63, 0
2,107690, Note_on_c, 0, 60, 0
2,107699, Note_on_c, 0, 74, 0
2,107794, Note_on_c, 0, 67, 83
2,107811, Note_on_c, 0, 68, 0
2,107813, Note_on_c, 0, 70, 79
2,107813, Note_on_c, 0, 72, 0
2,107853, Note_on_c, 0, 67, 0
2,107856, Note_on_c, 0, 70, 0
2,107924, Note_on_c, 0, 60, 84
2,107924, Note_on_c, 0, 63, 89
2,107935, Note_on_c, 0, 68, 93
2,107935, Note_on_c, 0, 72, 88
2,107964, Note_on_c, 0, 63, 0
2,107975, Note_on_c, 0, 60, 0
2,108066, Note_on_c, 0, 70, 80
2,108069, Note_on_c, 0, 67, 80
2,108078, Note_on_c, 0, 68, 0
2,108079, Note_on_c, 0, 72, 0
2,108101, Note_on_c, 0, 70, 0
2,108118, Note_on_c, 0, 67, 0
2,108211, Note_on_c, 0, 63, 82
2,108211, Note_on_c, 0, 66, 92
2,108211, Note_on_c, 0, 69, 82
2,108215, Note_on_c, 0, 60, 83
2,108256, Control_c, 0, 64, 26
2,108275, Control_c, 0, 64, 45
2,108295, Control_c, 0, 64, 61
2,108316, Control_c, 0, 64, 66
2,108333, Control_c, 0, 64, 69
2,108352, Control_c, 0, 64, 73
2,108358, Note_on_c, 0, 62, 79
2,108358, Note_on_c, 0, 63, 0
2,108372, Control_c, 0, 64, 91
2,108392, Control_c, 0, 64, 127
2,108469, Control_c, 0, 64, 70
2,108489, Control_c, 0, 64, 35
2,108493, Note_on_c, 0, 58, 85
2,108497, Note_on_c, 0, 63, 89
2,108502, Note_on_c, 0, 60, 0
2,108502, Note_on_c, 0, 62, 0
2,108507, Control_c, 0, 64, 0
2,108526, Control_c, 0, 64, 15
2,108544, Control_c, 0, 64, 33
2,108564, Control_c, 0, 64, 52
2,108585, Control_c, 0, 64, 65
2,108603, Control_c, 0, 64, 70
2,108622, Control_c, 0, 64, 80
2,108633, Note_on_c, 0, 62, 82
2,108633, Note_on_c, 0, 63, 0
2,108641, Control_c, 0, 64, 97
2,108657, Note_on_c, 0, 62, 0
2,108662, Control_c, 0, 64, 127
2,108666, Note_on_c, 0, 58, 0
2,108738, Control_c, 0, 64, 74
2,108757, Control_c, 0, 64, 46
2,108777, Control_c, 0, 64, 0
2,108777, Note_on_c, 0, 60, 95
2,108782, Note_on_c, 0, 57, 91
2,108795, Control_c, 0, 64, 12
2,108813, Control_c, 0, 64, 38
2,108832, Control_c, 0, 64, 60
2,108843, Note_on_c, 0, 60, 0
2,108852, Control_c, 0, 64, 71
2,108870, Control_c, 0, 64, 82
2,108891, Control_c, 0, 64, 106
2,108909, Note_on_c, 0, 58, 86
2,108913, Control_c, 0, 64, 127
2,108926, Note_on_c, 0, 66, 0
2,108939, Note_on_c, 0, 57, 0
2,108957, Note_on_c, 0, 69, 0
2,108970, Note_on_c, 0, 58, 0
2,109006, Control_c, 0, 64, 81
2,109026, Control_c, 0, 64, 55
2,109045, Control_c, 0, 64, 0
2,109045, Note_on_c, 0, 60, 87
2,109049, Note_on_c, 0, 55, 89
2,109049, Note_on_c, 0, 70, 92
2,109054, Note_on_c, 0, 67, 88
2,109084, Note_on_c, 0, 60, 0
2,109120, Note_on_c, 0, 55, 0
2,109159, Note_on_c, 0, 67, 0
2,109185, Note_on_c, 0, 58, 92
2,109185, Note_on_c, 0, 70, 0
2,109229, Note_on_c, 0, 58, 0
2,109326, Note_on_c, 0, 72, 93
2,109331, Note_on_c, 0, 54, 95
2,109335, Note_on_c, 0, 57, 92
2,109335, Note_on_c, 0, 69, 90
2,109367, Note_on_c, 0, 57, 0
2,109374, Note_on_c, 0, 54, 0
2,109473, Note_on_c, 0, 55, 73
2,109520, Note_on_c, 0, 55, 0
2,109602, Note_on_c, 0, 69, 0
2,109609, Note_on_c, 0, 57, 96
2,109629, Note_on_c, 0, 52, 75
2,109647, Note_on_c, 0, 57, 0
2,109667, Note_on_c, 0, 52, 0
2,109756, Note_on_c, 0, 55, 91
2,109789, Note_on_c, 0, 55, 0
2,109887, Note_on_c, 0, 50, 81
2,109887, Note_on_c, 0, 54, 90
2,110026, Note_on_c, 0, 62, 82
2,110053, Note_on_c, 0, 50, 0
2,110059, Note_on_c, 0, 54, 0
2,110098, Note_on_c, 0, 62, 0
2,110169, Note_on_c, 0, 57, 94
2,110174, Note_on_c, 0, 54, 94
2,110181, Note_on_c, 0, 63, 89
2,110242, Note_on_c, 0, 72, 0
2,110295, Note_on_c, 0, 63, 0
2,110306, Note_on_c, 0, 57, 0
2,110333, Note_on_c, 0, 62, 89
2,110349, Note_on_c, 0, 54, 0
2,110432, Note_on_c, 0, 62, 0
2,110469, Note_on_c, 0, 70, 92
2,110474, Note_on_c, 0, 55, 87
2,110476, Note_on_c, 0, 58, 97
2,110612, Note_on_c, 0, 62, 88
2,110627, Note_on_c, 0, 55, 0
2,110634, Note_on_c, 0, 58, 0
2,110676, Note_on_c, 0, 62, 0
2,110762, Note_on_c, 0, 50, 87
2,110762, Note_on_c, 0, 54, 94
2,110765, Note_on_c, 0, 63, 91
2,110861, Note_on_c, 0, 63, 0
2,110909, Note_on_c, 0, 62, 90
2,110961, Note_on_c, 0, 50, 0
2,110982, Note_on_c, 0, 54, 0
2,111000, Note_on_c, 0, 62, 0
2,111072, Note_on_c, 0, 55, 90
2,111074, Note_on_c, 0, 51, 89
2,111076, Note_on_c, 0, 60, 93
2,111103, Note_on_c, 0, 70, 0
2,111221, Note_on_c, 0, 70, 83
2,111295, Note_on_c, 0, 60, 0
2,111385, Note_on_c, 0, 61, 98
2,111390, Note_on_c, 0, 69, 87
2,111443, Control_c, 0, 64, 19
2,111463, Control_c, 0, 64, 37
2,111479, Note_on_c, 0, 70, 0
2,111481, Control_c, 0, 64, 51
2,111501, Control_c, 0, 64, 60
2,111521, Control_c, 0, 64, 63
2,111539, Note_on_c, 0, 55, 0
2,111543, Control_c, 0, 64, 64
2,111557, Note_on_c, 0, 67, 78
2,111561, Control_c, 0, 64, 66
2,111573, Note_on_c, 0, 69, 0
2,111578, Control_c, 0, 64, 70
2,111599, Control_c, 0, 64, 74
2,111617, Control_c, 0, 64, 77
2,111626, Note_on_c, 0, 51, 0
2,111642, Note_on_c, 0, 61, 0
2,111656, Note_on_c, 0, 67, 0
2,111661, Control_c, 0, 64, 73
2,111677, Control_c, 0, 64, 61
2,111694, Control_c, 0, 64, 28
2,111714, Control_c, 0, 64, 0
2,111743, Note_on_c, 0, 50, 91
2,111743, Note_on_c, 0, 57, 109
2,111743, Note_on_c, 0, 62, 99
2,111743, Note_on_c, 0, 66, 96
2,111780, Note_on_c, 0, 68, 52
2,111789, Control_c, 0, 64, 9
2,111809, Control_c, 0, 64, 44
2,111812, Note_on_c, 0, 68, 0
2,111828, Control_c, 0, 64, 66
2,111835, Note_on_c, 0, 57, 0
2,111850, Control_c, 0, 64, 76
2,111859, Note_on_c, 0, 50, 0
2,111867, Control_c, 0, 64, 106
2,111885, Control_c, 0, 64, 127
2,111938, Note_on_c, 0, 66, 0
2,111984, Note_on_c, 0, 62, 0
2,112099, Control_c, 0, 64, 94
2,112119, Control_c, 0, 64, 61
2,112135, Control_c, 0, 64, 0
2,112177, Note_on_c, 0, 38, 96
2,112194, Control_c, 0, 64, 25
2,112215, Control_c, 0, 64, 54
2,112231, Control_c, 0, 64, 70
2,112250, Note_on_c, 0, 38, 0
2,112255, Control_c, 0, 64, 79
2,112268, Control_c, 0, 64, 106
2,112288, Control_c, 0, 64, 127
2,112634, Control_c, 0, 64, 82
2,112654, Control_c, 0, 64, 46
2,112672, Control_c, 0, 64, 0
2,112713, Note_on_c, 0, 62, 103
2,112840, Note_on_c, 0, 69, 76
2,112897, Note_on_c, 0, 69, 0
2,112996, Note_on_c, 0, 70, 80
2,113053, Note_on_c, 0, 70, 0
2,113139, Note_on_c, 0, 72, 92
2,113199, Note_on_c, 0, 72, 0
2,113203, Note_on_c, 0, 62, 0
2,113286, Note_on_c, 0, 74, 89
2,113340, Note_on_c, 0, 74, 0
2,113422, Note_on_c, 0, 72, 90
2,113476, Note_on_c, 0, 72, 0
2,113566, Note_on_c, 0, 58, 89
2,113570, Note_on_c, 0, 74, 93
2,113620, Note_on_c, 0, 74, 0
2,113728, Note_on_c, 0, 58, 0
2,113886, Note_on_c, 0, 74, 92
2,113888, Note_on_c, 0, 63, 91
2,113952, Note_on_c, 0, 74, 0
2,114216, Note_on_c, 0, 67, 80
2,114326, Note_on_c, 0, 67, 0
2,114364, Note_on_c, 0, 63, 0
2,114526, Note_on_c, 0, 60, 98
2,114674, Note_on_c, 0, 67, 80
2,114732, Note_on_c, 0, 67, 0
2,114815, Note_on_c, 0, 69, 84
2,114872, Note_on_c, 0, 69, 0
2,114952, Note_on_c, 0, 70, 89
2,115002, Note_on_c, 0, 60, 0
2,115013, Note_on_c, 0, 70, 0
2,115089, Note_on_c, 0, 72, 96
2,115151, Note_on_c, 0, 72, 0
2,115227, Note_on_c, 0, 70, 90
2,115288, Note_on_c, 0, 70, 0
2,115374, Note_on_c, 0, 57, 93
2,115381, Note_on_c, 0, 72, 96
2,115448, Note_on_c, 0, 72, 0
2,115465, Note_on_c, 0, 57, 0
2,115684, Note_on_c, 0, 72, 94
2,115689, Note_on_c, 0, 62, 102
2,115780, Note_on_c, 0, 72, 0
2,116009, Note_on_c, 0, 66, 91
2,116042, Note_on_c, 0, 62, 0
2,116100, Note_on_c, 0, 66, 0
2,116290, Note_on_c, 0, 58, 96
2,116290, Note_on_c, 0, 74, 93
2,116423, Note_on_c, 0, 66, 72
2,116429, Note_on_c, 0, 50, 65
2,116521, Note_on_c, 0, 66, 0
2,116559, Note_on_c, 0, 50, 0
2,116561, Note_on_c, 0, 52, 70
2,116561, Note_on_c, 0, 67, 79
2,116616, Note_on_c, 0, 67, 0
2,116688, Note_on_c, 0, 69, 86
2,116695, Note_on_c, 0, 54, 80
2,116700, Note_on_c, 0, 52, 0
2,116720, Note_on_c, 0, 74, 0
2,116726, Note_on_c, 0, 58, 0
2,116753, Note_on_c, 0, 69, 0
2,116764, Note_on_c, 0, 54, 0
2,116822, Note_on_c, 0, 70, 95
2,116831, Note_on_c, 0, 55, 85
2,116881, Note_on_c, 0, 70, 0
2,116891, Note_on_c, 0, 55, 0
2,116956, Note_on_c, 0, 69, 93
2,116964, Note_on_c, 0, 54, 88
2,117007, Note_on_c, 0, 54, 0
2,117012, Note_on_c, 0, 69, 0
2,117107, Note_on_c, 0, 55, 98
2,117112, Note_on_c, 0, 70, 99
2,117210, Note_on_c, 0, 70, 0
2,117229, Note_on_c, 0, 55, 0
2,117404, Note_on_c, 0, 75, 102
2,117413, Note_on_c, 0, 60, 98
2,117417, Note_on_c, 0, 55, 77
2,117422, Note_on_c, 0, 70, 86
2,117526, Note_on_c, 0, 70, 0
2,117542, Note_on_c, 0, 55, 0
2,117726, Note_on_c, 0, 63, 87
2,117730, Note_on_c, 0, 48, 80
2,117810, Note_on_c, 0, 60, 0
2,117834, Note_on_c, 0, 75, 0
2,117854, Note_on_c, 0, 48, 0
2,117854, Note_on_c, 0, 63, 0
2,118005, Note_on_c, 0, 72, 97
2,118012, Note_on_c, 0, 57, 94
2,118139, Note_on_c, 0, 48, 78
2,118144, Note_on_c, 0, 64, 81
2,118217, Note_on_c, 0, 64, 0
2,118273, Note_on_c, 0, 50, 74
2,118281, Note_on_c, 0, 65, 80
2,118282, Note_on_c, 0, 48, 0
2,118338, Note_on_c, 0, 65, 0
2,118398, Note_on_c, 0, 50, 0
2,118420, Note_on_c, 0, 52, 74
2,118420, Note_on_c, 0, 67, 81
2,118458, Note_on_c, 0, 57, 0
2,118458, Note_on_c, 0, 67, 0
2,118462, Note_on_c, 0, 72, 0
2,118471, Note_on_c, 0, 52, 0
2,118551, Note_on_c, 0, 53, 84
2,118551, Note_on_c, 0, 69, 87
2,118600, Note_on_c, 0, 53, 0
2,118602, Note_on_c, 0, 69, 0
2,118693, Note_on_c, 0, 52, 82
2,118693, Note_on_c, 0, 67, 84
2,118737, Note_on_c, 0, 52, 0
2,118759, Note_on_c, 0, 67, 0
2,118840, Note_on_c, 0, 53, 91
2,118840, Note_on_c, 0, 69, 97
2,118931, Note_on_c, 0, 69, 0
2,118971, Note_on_c, 0, 53, 0
2,119135, Note_on_c, 0, 74, 98
2,119139, Note_on_c, 0, 53, 76
2,119144, Note_on_c, 0, 58, 91
2,119144, Note_on_c, 0, 69, 91
2,119229, Note_on_c, 0, 69, 0
2,119267, Note_on_c, 0, 53, 0
2,119468, Note_on_c, 0, 62, 85
2,119470, Note_on_c, 0, 46, 77
2,119558, Note_on_c, 0, 74, 0
2,119571, Note_on_c, 0, 58, 0
2,119594, Note_on_c, 0, 62, 0
2,119599, Note_on_c, 0, 46, 0
2,119757, Note_on_c, 0, 55, 90
2,119757, Note_on_c, 0, 70, 92
2,119887, Note_on_c, 0, 46, 77
2,119900, Note_on_c, 0, 62, 72
2,120010, Note_on_c, 0, 62, 0
2,120038, Note_on_c, 0, 48, 74
2,120042, Note_on_c, 0, 64, 79
2,120074, Note_on_c, 0, 46, 0
2,120113, Note_on_c, 0, 64, 0
2,120173, Note_on_c, 0, 66, 78
2,120177, Note_on_c, 0, 48, 0
2,120190, Note_on_c, 0, 50, 73
2,120243, Note_on_c, 0, 66, 0
2,120294, Note_on_c, 0, 50, 0
2,120312, Note_on_c, 0, 67, 86
2,120312, Note_on_c, 0, 69, 64
2,120317, Note_on_c, 0, 51, 84
2,120330, Note_on_c, 0, 55, 0
2,120386, Note_on_c, 0, 67, 0
2,120391, Note_on_c, 0, 51, 0
2,120402, Note_on_c, 0, 69, 0
2,120422, Note_on_c, 0, 70, 0
2,120440, Note_on_c, 0, 66, 75
2,120456, Note_on_c, 0, 50, 74
2,120512, Note_on_c, 0, 50, 0
2,120512, Note_on_c, 0, 66, 0
2,120585, Note_on_c, 0, 58, 93
2,120594, Note_on_c, 0, 51, 82
2,120594, Note_on_c, 0, 67, 88
2,120663, Control_c, 0, 64, 28
2,120680, Control_c, 0, 64, 47
2,120699, Control_c, 0, 64, 61
2,120718, Control_c, 0, 64, 64
2,120735, Note_on_c, 0, 67, 0
2,120737, Control_c, 0, 64, 65
2,120775, Control_c, 0, 64, 68
2,120779, Note_on_c, 0, 58, 0
2,120795, Control_c, 0, 64, 72
2,120813, Control_c, 0, 64, 80
2,120835, Control_c, 0, 64, 88
2,120850, Control_c, 0, 64, 87
2,120871, Control_c, 0, 64, 77
2,120893, Control_c, 0, 64, 63
2,120897, Note_on_c, 0, 57, 80
2,120897, Note_on_c, 0, 72, 87
2,120913, Control_c, 0, 64, 30
2,120927, Control_c, 0, 64, 0
2,120947, Control_c, 0, 64, 34
2,120967, Control_c, 0, 64, 51
2,120987, Control_c, 0, 64, 62
2,121005, Control_c, 0, 64, 65
2,121026, Control_c, 0, 64, 66
2,121031, Note_on_c, 0, 50, 80
2,121040, Note_on_c, 0, 57, 0
2,121047, Control_c, 0, 64, 69
2,121062, Control_c, 0, 64, 73
2,121073, Note_on_c, 0, 51, 0
2,121078, Note_on_c, 0, 72, 0
2,121083, Control_c, 0, 64, 80
2,121101, Control_c, 0, 64, 88
2,121122, Control_c, 0, 64, 96
2,121142, Control_c, 0, 64, 104
2,121162, Control_c, 0, 64, 111
2,121171, Note_on_c, 0, 70, 89
2,121180, Note_on_c, 0, 51, 86
2,121184, Control_c, 0, 64, 113
2,121184, Note_on_c, 0, 55, 82
2,121196, Note_on_c, 0, 72, 89
2,121200, Control_c, 0, 64, 127
2,121214, Note_on_c, 0, 50, 0
2,121267, Note_on_c, 0, 55, 0
2,121298, Note_on_c, 0, 70, 0
2,121318, Note_on_c, 0, 72, 0
2,121325, Note_on_c, 0, 50, 86
2,121329, Note_on_c, 0, 51, 0
2,121369, Note_on_c, 0, 50, 0
2,121465, Control_c, 0, 64, 75
2,121470, Note_on_c, 0, 48, 101
2,121476, Note_on_c, 0, 69, 85
2,121481, Note_on_c, 0, 63, 96
2,121481, Note_on_c, 0, 72, 85
2,121487, Control_c, 0, 64, 36
2,121504, Control_c, 0, 64, 0
2,121523, Note_on_c, 0, 48, 0
2,121543, Note_on_c, 0, 69, 0
2,121563, Note_on_c, 0, 63, 0
2,121590, Note_on_c, 0, 72, 0
2,121608, Note_on_c, 0, 46, 96
2,121662, Note_on_c, 0, 46, 0
2,121766, Note_on_c, 0, 48, 96
2,121766, Note_on_c, 0, 67, 92
2,121771, Note_on_c, 0, 63, 94
2,121771, Note_on_c, 0, 72, 90
2,121818, Note_on_c, 0, 48, 0
2,121839, Note_on_c, 0, 67, 0
2,121853, Note_on_c, 0, 63, 0
2,121879, Note_on_c, 0, 72, 0
2,121913, Note_on_c, 0, 46, 93
2,121957, Note_on_c, 0, 46, 0
2,122064, Note_on_c, 0, 72, 93
2,122068, Note_on_c, 0, 45, 102
2,122068, Note_on_c, 0, 63, 97
2,122073, Note_on_c, 0, 66, 97
2,122121, Note_on_c, 0, 45, 0
2,122149, Note_on_c, 0, 63, 0
2,122167, Note_on_c, 0, 72, 0
2,122178, Note_on_c, 0, 66, 0
2,122222, Note_on_c, 0, 43, 94
2,122267, Note_on_c, 0, 43, 0
2,122381, Note_on_c, 0, 63, 99
2,122386, Note_on_c, 0, 67, 97
2,122386, Note_on_c, 0, 72, 97
2,122390, Note_on_c, 0, 45, 99
2,122439, Note_on_c, 0, 45, 0
2,122465, Note_on_c, 0, 67, 0
2,122494, Note_on_c, 0, 63, 0
2,122519, Note_on_c, 0, 72, 0
2,122575, Note_on_c, 0, 44, 29
2,122584, Note_on_c, 0, 43, 47
2,122633, Note_on_c, 0, 43, 0
2,122637, Note_on_c, 0, 44, 0
2,122728, Note_on_c, 0, 69, 92
2,122731, Note_on_c, 0, 42, 89
2,122731, Note_on_c, 0, 62, 101
2,122735, Note_on_c, 0, 72, 101
2,123097, Control_c, 0, 64, 31
2,123114, Control_c, 0, 64, 53
2,123134, Control_c, 0, 64, 61
2,123152, Control_c, 0, 64, 63
2,123172, Control_c, 0, 64, 64
2,123192, Control_c, 0, 64, 68
2,123209, Control_c, 0, 64, 80
2,123228, Control_c, 0, 64, 127
2,123252, Note_on_c, 0, 62, 0
2,123264, Note_on_c, 0, 72, 0
2,123324, Note_on_c, 0, 69, 0
2,123360, Note_on_c, 0, 42, 0
2,123518, Control_c, 0, 64, 84
2,123540, Control_c, 0, 64, 60
2,123558, Control_c, 0, 64, 23
2,123576, Control_c, 0, 64, 0
2,123710, Note_on_c, 0, 38, 81
2,123710, Note_on_c, 0, 66, 93
2,123710, Note_on_c, 0, 74, 100
2,123712, Note_on_c, 0, 62, 99
2,123819, Note_on_c, 0, 74, 0
2,123828, Note_on_c, 0, 38, 0
2,123832, Note_on_c, 0, 62, 0
2,123836, Note_on_c, 0, 66, 0
2,124064, Note_on_c, 0, 70, 95
2,124068, Note_on_c, 0, 62, 87
2,124068, Note_on_c, 0, 67, 90
2,124077, Note_on_c, 0, 43, 82
2,124133, Control_c, 0, 64, 10
2,124153, Control_c, 0, 64, 30
2,124172, Control_c, 0, 64, 43
2,124192, Control_c, 0, 64, 52
2,124210, Control_c, 0, 64, 58
2,124228, Control_c, 0, 64, 59
2,124249, Control_c, 0, 64, 61
2,124267, Control_c, 0, 64, 63
2,124284, Control_c, 0, 64, 64
2,124304, Control_c, 0, 64, 65
2,124324, Control_c, 0, 64, 67
2,124342, Control_c, 0, 64, 68
2,124362, Control_c, 0, 64, 70
2,124382, Control_c, 0, 64, 71
2,124400, Control_c, 0, 64, 74
2,124420, Control_c, 0, 64, 78
2,124427, Note_on_c, 0, 62, 0
2,124439, Control_c, 0, 64, 86
2,124458, Control_c, 0, 64, 99
2,124478, Control_c, 0, 64, 127
2,124504, Note_on_c, 0, 43, 0
2,124520, Note_on_c, 0, 67, 0
2,124544, Note_on_c, 0, 70, 0
2,124728, Control_c, 0, 64, 89
2,124746, Control_c, 0, 64, 59
2,124766, Control_c, 0, 64, 0
2,124955, Note_on_c, 0, 72, 88
2,124962, Note_on_c, 0, 48, 73
2,124962, Note_on_c, 0, 63, 88
2,124962, Note_on_c, 0, 69, 77
2,125009, Note_on_c, 0, 66, 46
2,125046, Note_on_c, 0, 66, 0
2,125081, Note_on_c, 0, 69, 0
2,125086, Note_on_c, 0, 48, 0
2,125103, Note_on_c, 0, 63, 0
2,125118, Note_on_c, 0, 72, 0
2,125288, Note_on_c, 0, 70, 82
2,125292, Note_on_c, 0, 67, 76
2,125299, Note_on_c, 0, 50, 60
2,125299, Note_on_c, 0, 62, 69
2,125440, Control_c, 0, 64, 22
2,125460, Control_c, 0, 64, 40
2,125479, Control_c, 0, 64, 56
2,125498, Control_c, 0, 64, 62
2,125516, Control_c, 0, 64, 63
2,125537, Control_c, 0, 64, 64
2,125556, Control_c, 0, 64, 68
2,125574, Control_c, 0, 64, 76
2,125585, Note_on_c, 0, 50, 0
2,125597, Control_c, 0, 64, 89
2,125607, Note_on_c, 0, 69, 78
2,125613, Control_c, 0, 64, 106
2,125633, Control_c, 0, 64, 127
2,125644, Note_on_c, 0, 62, 0
2,125644, Note_on_c, 0, 67, 0
2,125644, Note_on_c, 0, 70, 0
2,125666, Note_on_c, 0, 69, 0
2,125863, Control_c, 0, 64, 100
2,125886, Control_c, 0, 64, 78
2,125904, Control_c, 0, 64, 61
2,125925, Control_c, 0, 64, 30
2,125934, Note_on_c, 0, 38, 40
2,125934, Note_on_c, 0, 66, 67
2,125934, Note_on_c, 0, 69, 71
2,125939, Note_on_c, 0, 60, 64
2,125944, Control_c, 0, 64, 0
2,126019, Control_c, 0, 64, 16
2,126041, Control_c, 0, 64, 38
2,126058, Control_c, 0, 64, 56
2,126078, Control_c, 0, 64, 63
2,126095, Control_c, 0, 64, 65
2,126105, Note_on_c, 0, 38, 0
2,126114, Control_c, 0, 64, 67
2,126135, Control_c, 0, 64, 73
2,126155, Control_c, 0, 64, 85
2,126171, Control_c, 0, 64, 103
2,126191, Control_c, 0, 64, 127
2,126240, Note_on_c, 0, 67, 73
2,126264, Note_on_c, 0, 60, 0
2,126272, Note_on_c, 0, 66, 0
2,126288, Note_on_c, 0, 69, 0
2,126337, Note_on_c, 0, 67, 0
2,126499, Control_c, 0, 64, 105
2,126519, Control_c, 0, 64, 69
2,126538, Control_c, 0, 64, 46
2,126549, Note_on_c, 0, 43, 42
2,126549, Note_on_c, 0, 67, 51
2,126557, Control_c, 0, 64, 0
2,126557, Note_on_c, 0, 62, 50
2,126562, Note_on_c, 0, 58, 46
2,126705, Note_on_c, 0, 50, 54
2,126745, Note_on_c, 0, 43, 0
2,126796, Note_on_c, 0, 50, 0
2,126841, Note_on_c, 0, 52, 62
2,126872, Note_on_c, 0, 58, 0
2,126967, Note_on_c, 0, 54, 65
2,126970, Note_on_c, 0, 52, 0
2,127012, Note_on_c, 0, 62, 0
2,127054, Note_on_c, 0, 67, 0
2,127112, Note_on_c, 0, 54, 0
2,127123, Note_on_c, 0, 55, 69
2,127243, Note_on_c, 0, 69, 64
2,127248, Note_on_c, 0, 55, 0
2,127261, Note_on_c, 0, 54, 69
2,127386, Note_on_c, 0, 70, 76
2,127396, Note_on_c, 0, 69, 0
2,127401, Note_on_c, 0, 55, 71
2,127448, Note_on_c, 0, 54, 0
2,127530, Note_on_c, 0, 72, 84
2,127554, Note_on_c, 0, 70, 0
2,127565, Note_on_c, 0, 55, 0
2,127684, Note_on_c, 0, 55, 80
2,127684, Note_on_c, 0, 74, 82
2,127716, Note_on_c, 0, 72, 0
2,127827, Note_on_c, 0, 72, 86
2,127842, Note_on_c, 0, 57, 79
2,127842, Note_on_c, 0, 74, 0
2,127982, Note_on_c, 0, 58, 81
2,127982, Note_on_c, 0, 72, 0
2,127982, Note_on_c, 0, 74, 83
2,128013, Note_on_c, 0, 57, 0
2,128112, Note_on_c, 0, 58, 0
2,128117, Note_on_c, 0, 60, 77
2,128119, Note_on_c, 0, 75, 86
2,128145, Note_on_c, 0, 74, 0
2,128245, Note_on_c, 0, 60, 0
2,128255, Note_on_c, 0, 62, 84
2,128264, Note_on_c, 0, 69, 88
2,128277, Note_on_c, 0, 75, 0
2,128394, Note_on_c, 0, 64, 81
2,128405, Note_on_c, 0, 61, 76
2,128405, Note_on_c, 0, 62, 0
2,128443, Note_on_c, 0, 55, 0
2,128549, Note_on_c, 0, 64, 0
2,128555, Note_on_c, 0, 53, 85
2,128555, Note_on_c, 0, 62, 87
2,128555, Note_on_c, 0, 65, 78
2,128570, Note_on_c, 0, 61, 0
2,128688, Note_on_c, 0, 53, 0
2,128693, Note_on_c, 0, 67, 80
2,128722, Note_on_c, 0, 65, 0
2,128730, Note_on_c, 0, 69, 0
2,128796, Note_on_c, 0, 67, 0
2,128838, Note_on_c, 0, 53, 89
2,128840, Note_on_c, 0, 69, 87
2,128899, Note_on_c, 0, 62, 0
2,128974, Note_on_c, 0, 70, 83
2,128979, Note_on_c, 0, 67, 71
2,128992, Note_on_c, 0, 69, 0
2,129106, Note_on_c, 0, 57, 88
2,129116, Note_on_c, 0, 69, 85
2,129116, Note_on_c, 0, 72, 87
2,129118, Note_on_c, 0, 70, 0
2,129124, Note_on_c, 0, 67, 0
2,129240, Note_on_c, 0, 59, 82
2,129256, Note_on_c, 0, 72, 0
2,129256, Note_on_c, 0, 74, 83
2,129296, Note_on_c, 0, 57, 0
2,129357, Note_on_c, 0, 59, 0
2,129401, Note_on_c, 0, 60, 89
2,129403, Note_on_c, 0, 75, 87
2,129440, Note_on_c, 0, 74, 0
2,129467, Note_on_c, 0, 69, 0
2,129494, Control_c, 0, 64, 22
2,129513, Control_c, 0, 64, 46
2,129529, Control_c, 0, 64, 60
2,129546, Note_on_c, 0, 59, 79
2,129550, Control_c, 0, 64, 65
2,129555, Note_on_c, 0, 60, 0
2,129560, Note_on_c, 0, 74, 88
2,129568, Control_c, 0, 64, 70
2,129587, Control_c, 0, 64, 77
2,129592, Note_on_c, 0, 75, 0
2,129606, Control_c, 0, 64, 92
2,129626, Control_c, 0, 64, 127
2,129633, Note_on_c, 0, 59, 0
2,129662, Control_c, 0, 64, 90
2,129685, Control_c, 0, 64, 62
2,129685, Note_on_c, 0, 68, 97
2,129690, Note_on_c, 0, 60, 88
2,129690, Note_on_c, 0, 75, 85
2,129704, Control_c, 0, 64, 0
2,129729, Note_on_c, 0, 74, 0
2,129780, Control_c, 0, 64, 39
2,129799, Control_c, 0, 64, 61
2,129809, Note_on_c, 0, 75, 0
2,129818, Control_c, 0, 64, 69
2,129836, Note_on_c, 0, 77, 85
2,129838, Control_c, 0, 64, 84
2,129862, Control_c, 0, 64, 127
2,129888, Note_on_c, 0, 68, 0
2,129909, Note_on_c, 0, 60, 0
2,129923, Note_on_c, 0, 77, 0
2,129927, Note_on_c, 0, 53, 0
2,129952, Control_c, 0, 64, 68
2,129969, Note_on_c, 0, 62, 75
2,129971, Control_c, 0, 64, 32
2,129981, Note_on_c, 0, 67, 90
2,129981, Note_on_c, 0, 71, 86
2,129992, Control_c, 0, 64, 0
2,130000, Note_on_c, 0, 62, 0
2,130014, Control_c, 0, 64, 47
2,130014, Note_on_c, 0, 72, 41
2,130018, Note_on_c, 0, 72, 0
2,130030, Control_c, 0, 64, 65
2,130045, Note_on_c, 0, 67, 0
2,130050, Control_c, 0, 64, 75
2,130050, Note_on_c, 0, 71, 0
2,130067, Control_c, 0, 64, 102
2,130090, Control_c, 0, 64, 127
2,130105, Note_on_c, 0, 47, 84
2,130120, Note_on_c, 0, 67, 88
2,130201, Control_c, 0, 64, 109
2,130222, Control_c, 0, 64, 69
2,130240, Control_c, 0, 64, 40
2,130261, Control_c, 0, 64, 0
2,130265, Note_on_c, 0, 69, 88
2,130267, Note_on_c, 0, 48, 80
2,130288, Note_on_c, 0, 67, 0
2,130317, Note_on_c, 0, 47, 0
2,130409, Note_on_c, 0, 71, 88
2,130420, Note_on_c, 0, 50, 84
2,130437, Note_on_c, 0, 69, 0
2,130469, Note_on_c, 0, 48, 0
2,130549, Note_on_c, 0, 51, 88
2,130554, Note_on_c, 0, 72, 94
2,130577, Note_on_c, 0, 50, 0
2,130588, Note_on_c, 0, 71, 0
2,130681, Note_on_c, 0, 51, 0
2,130690, Note_on_c, 0, 50, 85
2,130699, Note_on_c, 0, 70, 93
2,130731, Note_on_c, 0, 72, 0
2,130823, Note_on_c, 0, 51, 78
2,130829, Note_on_c, 0, 72, 89
2,130853, Note_on_c, 0, 70, 0
2,130868, Note_on_c, 0, 50, 0
2,130958, Note_on_c, 0, 62, 78
2,130963, Note_on_c, 0, 69, 78
2,130996, Note_on_c, 0, 51, 0
2,131004, Note_on_c, 0, 62, 0
2,131014, Note_on_c, 0, 69, 0
2,131018, Note_on_c, 0, 72, 0
2,131104, Note_on_c, 0, 60, 68
2,131120, Note_on_c, 0, 51, 85
2,131120, Note_on_c, 0, 59, 65
2,131120, Note_on_c, 0, 69, 89
2,131120, Note_on_c, 0, 72, 95
2,131218, Note_on_c, 0, 69, 0
2,131224, Note_on_c, 0, 59, 0
2,131246, Note_on_c, 0, 67, 81
2,131265, Note_on_c, 0, 58, 77
2,131288, Note_on_c, 0, 60, 0
2,131300, Note_on_c, 0, 72, 0
2,131323, Note_on_c, 0, 67, 0
2,131373, Note_on_c, 0, 58, 0
2,131398, Note_on_c, 0, 69, 91
2,131402, Note_on_c, 0, 60, 95
2,131407, Note_on_c, 0, 72, 93
2,131508, Note_on_c, 0, 69, 0
2,131516, Note_on_c, 0, 72, 0
2,131535, Note_on_c, 0, 58, 84
2,131547, Note_on_c, 0, 60, 0
2,131555, Note_on_c, 0, 67, 76
2,131596, Note_on_c, 0, 67, 0
2,131610, Note_on_c, 0, 58, 0
2,131720, Note_on_c, 0, 66, 97
2,131724, Note_on_c, 0, 57, 98
2,131724, Note_on_c, 0, 72, 97
2,131757, Control_c, 0, 64, 8
2,131777, Control_c, 0, 64, 46
2,131798, Control_c, 0, 64, 60
2,131814, Control_c, 0, 64, 66
2,131834, Control_c, 0, 64, 72
2,131851, Control_c, 0, 64, 81
2,131873, Control_c, 0, 64, 95
2,131891, Control_c, 0, 64, 127
2,131924, Note_on_c, 0, 72, 0
2,131946, Note_on_c, 0, 66, 0
2,131976, Note_on_c, 0, 57, 0
2,131994, Note_on_c, 0, 51, 0
2,132390, Control_c, 0, 64, 76
2,132409, Control_c, 0, 64, 37
2,132429, Control_c, 0, 64, 0
2,132649, Note_on_c, 0, 51, 100
2,132649, Note_on_c, 0, 60, 104
2,132649, Note_on_c, 0, 78, 102
2,132653, Note_on_c, 0, 69, 96
2,132720, Note_on_c, 0, 69, 0
2,132739, Note_on_c, 0, 60, 0
2,132739, Note_on_c, 0, 78, 0
2,132752, Note_on_c, 0, 51, 0
2,133025, Control_c, 0, 64, 13
2,133025, Note_on_c, 0, 62, 101
2,133029, Note_on_c, 0, 50, 91
2,133033, Note_on_c, 0, 70, 103
2,133039, Note_on_c, 0, 79, 101
2,133044, Control_c, 0, 64, 42
2,133063, Control_c, 0, 64, 61
2,133082, Control_c, 0, 64, 70
2,133101, Control_c, 0, 64, 80
2,133121, Control_c, 0, 64, 98
2,133139, Control_c, 0, 64, 127
2,133197, Note_on_c, 0, 79, 0
2,133209, Note_on_c, 0, 70, 0
2,133255, Note_on_c, 0, 50, 0
2,133272, Note_on_c, 0, 62, 0
2,133736, Control_c, 0, 64, 85
2,133754, Control_c, 0, 64, 60
2,133774, Control_c, 0, 64, 0
2,133792, Note_on_c, 0, 82, 89
2,133879, Note_on_c, 0, 82, 0
2,133953, Note_on_c, 0, 81, 95
2,133964, Note_on_c, 0, 49, 96
2,134050, Note_on_c, 0, 81, 0
2,134111, Note_on_c, 0, 79, 93
2,134144, Note_on_c, 0, 49, 0
2,134183, Note_on_c, 0, 79, 0
2,134249, Note_on_c, 0, 50, 93
2,134254, Note_on_c, 0, 78, 98
2,134342, Note_on_c, 0, 78, 0
2,134378, Note_on_c, 0, 57, 90
2,134389, Note_on_c, 0, 76, 100
2,134452, Note_on_c, 0, 57, 0
2,134452, Note_on_c, 0, 76, 0
2,134529, Note_on_c, 0, 74, 89
2,134533, Note_on_c, 0, 58, 82
2,134588, Note_on_c, 0, 74, 0
2,134606, Note_on_c, 0, 58, 0
2,134650, Note_on_c, 0, 72, 89
2,134657, Note_on_c, 0, 60, 93
2,134677, Note_on_c, 0, 72, 0
2,134752, Note_on_c, 0, 60, 0
2,134797, Note_on_c, 0, 50, 0
2,134797, Note_on_c, 0, 70, 88
2,134801, Note_on_c, 0, 62, 92
2,134871, Note_on_c, 0, 71, 17
2,134900, Note_on_c, 0, 71, 0
2,134922, Note_on_c, 0, 46, 82
2,134947, Note_on_c, 0, 69, 76
2,135001, Note_on_c, 0, 70, 0
2,135070, Note_on_c, 0, 67, 78
2,135074, Note_on_c, 0, 49, 34
2,135085, Note_on_c, 0, 48, 72
2,135099, Note_on_c, 0, 69, 0
2,135134, Note_on_c, 0, 49, 0
2,135142, Note_on_c, 0, 46, 0
2,135183, Note_on_c, 0, 48, 0
2,135198, Note_on_c, 0, 66, 85
2,135215, Note_on_c, 0, 67, 0
2,135228, Note_on_c, 0, 62, 0
2,135261, Note_on_c, 0, 66, 0
2,135330, Note_on_c, 0, 51, 91
2,135334, Note_on_c, 0, 67, 90
2,135472, Note_on_c, 0, 59, 78
2,135482, Note_on_c, 0, 55, 74
2,135568, Note_on_c, 0, 59, 0
2,135605, Note_on_c, 0, 60, 77
2,135609, Note_on_c, 0, 57, 79
2,135634, Note_on_c, 0, 55, 0
2,135681, Note_on_c, 0, 60, 0
2,135719, Note_on_c, 0, 51, 0
2,135726, Note_on_c, 0, 57, 0
2,135730, Note_on_c, 0, 62, 71
2,135734, Note_on_c, 0, 59, 81
2,135767, Note_on_c, 0, 59, 0
2,135774, Note_on_c, 0, 62, 0
2,135871, Note_on_c, 0, 48, 97
2,135883, Note_on_c, 0, 60, 78
2,135883, Note_on_c, 0, 63, 75
2,135963, Note_on_c, 0, 48, 0
2,135963, Note_on_c, 0, 60, 0
2,135967, Note_on_c, 0, 63, 0
2,136020, Note_on_c, 0, 59, 71
2,136020, Note_on_c, 0, 62, 78
2,136095, Note_on_c, 0, 62, 0
2,136099, Control_c, 0, 64, 32
2,136099, Note_on_c, 0, 59, 0
2,136116, Control_c, 0, 64, 52
2,136132, Control_c, 0, 64, 63
2,136155, Control_c, 0, 64, 66
2,136172, Note_on_c, 0, 60, 76
2,136176, Control_c, 0, 64, 72
2,136176, Note_on_c, 0, 63, 71
2,136195, Control_c, 0, 64, 86
2,136211, Control_c, 0, 64, 127
2,136282, Note_on_c, 0, 60, 0
2,136292, Note_on_c, 0, 63, 0
2,136446, Note_on_c, 0, 60, 85
2,136450, Note_on_c, 0, 63, 86
2,136483, Control_c, 0, 64, 93
2,136499, Control_c, 0, 64, 64
2,136521, Control_c, 0, 64, 23
2,136542, Control_c, 0, 64, 0
2,136604, Note_on_c, 0, 45, 89
2,136639, Note_on_c, 0, 45, 0
2,136745, Note_on_c, 0, 47, 89
2,136791, Note_on_c, 0, 47, 0
2,136871, Note_on_c, 0, 48, 89
2,136891, Note_on_c, 0, 60, 0
2,136900, Note_on_c, 0, 48, 0
2,137000, Note_on_c, 0, 50, 96
2,137134, Note_on_c, 0, 63, 0
2,137147, Note_on_c, 0, 57, 85
2,137147, Note_on_c, 0, 60, 85
2,137215, Note_on_c, 0, 60, 0
2,137272, Note_on_c, 0, 59, 84
2,137281, Note_on_c, 0, 62, 84
2,137287, Note_on_c, 0, 57, 0
2,137355, Note_on_c, 0, 62, 0
2,137378, Note_on_c, 0, 59, 0
2,137410, Note_on_c, 0, 60, 77
2,137410, Note_on_c, 0, 63, 83
2,137418, Note_on_c, 0, 50, 0
2,137439, Note_on_c, 0, 60, 0
2,137483, Note_on_c, 0, 63, 0
2,137554, Note_on_c, 0, 62, 91
2,137554, Note_on_c, 0, 65, 78
2,137559, Note_on_c, 0, 47, 89
2,137635, Note_on_c, 0, 62, 0
2,137684, Note_on_c, 0, 65, 0
2,137710, Note_on_c, 0, 60, 70
2,137710, Note_on_c, 0, 63, 76
2,137730, Control_c, 0, 64, 15
2,137750, Control_c, 0, 64, 35
2,137757, Note_on_c, 0, 60, 0
2,137769, Control_c, 0, 64, 54
2,137777, Note_on_c, 0, 63, 0
2,137789, Control_c, 0, 64, 63
2,137807, Control_c, 0, 64, 65
2,137826, Control_c, 0, 64, 69
2,137844, Note_on_c, 0, 62, 84
2,137844, Note_on_c, 0, 65, 70
2,137848, Control_c, 0, 64, 80
2,137869, Control_c, 0, 64, 127
2,137869, Note_on_c, 0, 47, 0
2,137970, Note_on_c, 0, 62, 0
2,137994, Note_on_c, 0, 65, 0
2,138139, Note_on_c, 0, 65, 78
2,138148, Note_on_c, 0, 62, 86
2,138213, Control_c, 0, 64, 94
2,138233, Control_c, 0, 64, 59
2,138249, Control_c, 0, 64, 0
2,138286, Note_on_c, 0, 43, 93
2,138330, Note_on_c, 0, 43, 0
2,138428, Note_on_c, 0, 45, 91
2,138472, Note_on_c, 0, 45, 0
2,138564, Note_on_c, 0, 47, 91
2,138596, Note_on_c, 0, 47, 0
2,138708, Note_on_c, 0, 48, 99
2,138752, Note_on_c, 0, 48, 0
2,138752, Note_on_c, 0, 62, 0
2,138770, Control_c, 0, 64, 42
2,138770, Note_on_c, 0, 67, 0
2,138772, Note_on_c, 0, 65, 0
2,138787, Control_c, 0, 64, 59
2,138806, Control_c, 0, 64, 71
2,138829, Control_c, 0, 64, 86
2,138845, Control_c, 0, 64, 127
2,139033, Note_on_c, 0, 48, 52
2,139036, Note_on_c, 0, 68, 76
2,139056, Control_c, 0, 64, 79
2,139056, Note_on_c, 0, 65, 62
2,139076, Control_c, 0, 64, 59
2,139096, Control_c, 0, 64, 49
2,139113, Control_c, 0, 64, 56
2,139133, Control_c, 0, 64, 61
2,139150, Control_c, 0, 64, 64
2,139171, Control_c, 0, 64, 69
2,139188, Note_on_c, 0, 74, 78
2,139197, Control_c, 0, 64, 82
2,139197, Note_on_c, 0, 48, 0
2,139197, Note_on_c, 0, 65, 0
2,139201, Note_on_c, 0, 68, 0
2,139210, Control_c, 0, 64, 127
2,139326, Control_c, 0, 64, 79
2,139326, Note_on_c, 0, 67, 82
2,139330, Note_on_c, 0, 63, 83
2,139330, Note_on_c, 0, 74, 0
2,139338, Note_on_c, 0, 48, 72
2,139346, Control_c, 0, 64, 62
2,139363, Control_c, 0, 64, 63
2,139384, Control_c, 0, 64, 69
2,139401, Control_c, 0, 64, 83
2,139421, Control_c, 0, 64, 127
2,139471, Note_on_c, 0, 67, 0
2,139475, Note_on_c, 0, 48, 0
2,139475, Note_on_c, 0, 63, 0
2,139475, Note_on_c, 0, 72, 90
2,139613, Note_on_c, 0, 62, 86
2,139618, Note_on_c, 0, 48, 86
2,139618, Note_on_c, 0, 65, 85
2,139655, Note_on_c, 0, 72, 0
2,139698, Note_on_c, 0, 48, 0
2,139747, Note_on_c, 0, 70, 90
2,139752, Note_on_c, 0, 65, 0
2,139789, Note_on_c, 0, 62, 0
2,139805, Control_c, 0, 64, 78
2,139825, Control_c, 0, 64, 59
2,139843, Control_c, 0, 64, 0
2,139902, Note_on_c, 0, 60, 95
2,139907, Note_on_c, 0, 48, 95
2,139907, Note_on_c, 0, 63, 93
2,139933, Note_on_c, 0, 70, 0
2,139949, Note_on_c, 0, 48, 0
2,140037, Note_on_c, 0, 60, 0
2,140064, Note_on_c, 0, 69, 68
2,140197, Note_on_c, 0, 48, 92
2,140197, Note_on_c, 0, 58, 97
2,140206, Note_on_c, 0, 69, 0
2,140249, Note_on_c, 0, 48, 0
2,140364, Note_on_c, 0, 67, 65
2,140379, Note_on_c, 0, 58, 0
2,140384, Note_on_c, 0, 63, 0
2,140504, Note_on_c, 0, 57, 94
2,140504, Note_on_c, 0, 66, 91
2,140508, Note_on_c, 0, 62, 89
2,140517, Control_c, 0, 64, 45
2,140517, Note_on_c, 0, 48, 75
2,140521, Note_on_c, 0, 67, 0
2,140535, Control_c, 0, 64, 63
2,140555, Note_on_c, 0, 62, 0
2,140559, Control_c, 0, 64, 72
2,140561, Note_on_c, 0, 66, 0
2,140572, Control_c, 0, 64, 90
2,140591, Control_c, 0, 64, 127
2,140915, Note_on_c, 0, 46, 80
2,140915, Note_on_c, 0, 72, 97
2,140920, Control_c, 0, 64, 108
2,140939, Control_c, 0, 64, 64
2,140943, Note_on_c, 0, 48, 0
2,140956, Control_c, 0, 64, 0
2,141164, Note_on_c, 0, 72, 0
2,141169, Note_on_c, 0, 74, 80
2,141175, Note_on_c, 0, 45, 68
2,141175, Note_on_c, 0, 46, 0
2,141182, Note_on_c, 0, 57, 0
2,141232, Note_on_c, 0, 74, 0
2,141232, Note_on_c, 0, 75, 86
2,141285, Note_on_c, 0, 74, 87
2,141292, Note_on_c, 0, 46, 84
2,141296, Note_on_c, 0, 45, 0
2,141319, Note_on_c, 0, 75, 0
2,141337, Note_on_c, 0, 74, 0
2,141341, Control_c, 0, 64, 37
2,141360, Control_c, 0, 64, 59
2,141378, Control_c, 0, 64, 71
2,141400, Control_c, 0, 64, 97
2,141400, Note_on_c, 0, 46, 0
2,141417, Control_c, 0, 64, 127
2,141673, Note_on_c, 0, 67, 91
2,141681, Note_on_c, 0, 48, 78
2,141681, Note_on_c, 0, 58, 82
2,141685, Note_on_c, 0, 63, 88
2,141705, Control_c, 0, 64, 111
2,141727, Control_c, 0, 64, 68
2,141745, Control_c, 0, 64, 42
2,141765, Control_c, 0, 64, 0
2,141821, Control_c, 0, 64, 32
2,141841, Control_c, 0, 64, 51
2,141860, Control_c, 0, 64, 64
2,141880, Control_c, 0, 64, 71
2,141898, Control_c, 0, 64, 85
2,141920, Control_c, 0, 64, 127
2,141940, Note_on_c, 0, 58, 0
2,141949, Note_on_c, 0, 63, 0
2,142093, Control_c, 0, 64, 112
2,142109, Note_on_c, 0, 50, 76
2,142109, Note_on_c, 0, 57, 89
2,142109, Note_on_c, 0, 62, 85
2,142113, Control_c, 0, 64, 66
2,142130, Control_c, 0, 64, 39
2,142135, Note_on_c, 0, 48, 0
2,142150, Control_c, 0, 64, 0
2,142167, Control_c, 0, 64, 20
2,142188, Control_c, 0, 64, 39
2,142206, Control_c, 0, 64, 51
2,142228, Control_c, 0, 64, 62
2,142246, Control_c, 0, 64, 70
2,142263, Control_c, 0, 64, 85
2,142285, Control_c, 0, 64, 127
2,142294, Note_on_c, 0, 57, 0
2,142335, Note_on_c, 0, 58, 93
2,142382, Note_on_c, 0, 67, 0
2,142469, Note_on_c, 0, 58, 0
2,142645, Note_on_c, 0, 60, 89
2,142649, Note_on_c, 0, 66, 92
2,142659, Note_on_c, 0, 38, 76
2,142673, Note_on_c, 0, 50, 0
2,142687, Control_c, 0, 64, 81
2,142705, Control_c, 0, 64, 60
2,142725, Control_c, 0, 64, 18
2,142744, Control_c, 0, 64, 0
2,142860, Control_c, 0, 64, 38
2,142878, Control_c, 0, 64, 58
2,142896, Control_c, 0, 64, 66
2,142916, Control_c, 0, 64, 70
2,142937, Control_c, 0, 64, 81
2,142956, Control_c, 0, 64, 107
2,142956, Note_on_c, 0, 62, 0
2,142976, Control_c, 0, 64, 127
2,143209, Note_on_c, 0, 62, 87
2,143213, Note_on_c, 0, 67, 91
2,143218, Note_on_c, 0, 43, 80
2,143263, Control_c, 0, 64, 94
2,143280, Control_c, 0, 64, 66
2,143292, Note_on_c, 0, 38, 0
2,143303, Control_c, 0, 64, 39
2,143318, Control_c, 0, 64, 0
2,143510, Control_c, 0, 64, 18
2,143530, Control_c, 0, 64, 43
2,143550, Control_c, 0, 64, 59
2,143556, Note_on_c, 0, 66, 0
2,143568, Control_c, 0, 64, 63
2,143607, Control_c, 0, 64, 64
2,143625, Control_c, 0, 64, 68
2,143642, Control_c, 0, 64, 76
2,143662, Control_c, 0, 64, 91
2,143682, Control_c, 0, 64, 122
2,143702, Control_c, 0, 64, 127
2,143967, Note_on_c, 0, 59, 88
2,144054, Note_on_c, 0, 60, 0
2,144063, Control_c, 0, 64, 103
2,144081, Control_c, 0, 64, 76
2,144101, Control_c, 0, 64, 62
2,144123, Control_c, 0, 64, 44
2,144142, Control_c, 0, 64, 0
2,144285, Control_c, 0, 64, 14
2,144305, Control_c, 0, 64, 25
2,144323, Control_c, 0, 64, 36
2,144346, Control_c, 0, 64, 49
2,144362, Control_c, 0, 64, 58
2,144380, Control_c, 0, 64, 61
2,144420, Control_c, 0, 64, 62
2,144438, Control_c, 0, 64, 64
2,144460, Control_c, 0, 64, 67
2,144479, Control_c, 0, 64, 72
2,144499, Control_c, 0, 64, 80
2,144515, Control_c, 0, 64, 90
2,144521, Control_c, 0, 64, 103
2,144521, Control_c, 0, 64, 127
2,145597, Note_on_c, 0, 67, 0
2,145604, Note_on_c, 0, 59, 0
2,145639, Note_on_c, 0, 62, 0
2,145727, Note_on_c, 0, 43, 0
2,145769, Control_c, 0, 64, 109
2,145787, Control_c, 0, 64, 84
2,145807, Control_c, 0, 64, 67
2,145826, Control_c, 0, 64, 55
2,145846, Control_c, 0, 64, 34
2,145866, Control_c, 0, 64, 0
2,145867, End_track
0, 0, End_of_file
