0, 0, Header, 1, 2, 480
1, 0, Start_track
1, 0, Tempo, 500000
1, 0, Time_signature, 4, 2, 24, 8
1, 1, End_track
2, 0, Start_track
2, 0, Program_c, 0, 0
2, 0, Control_c, 0, 64, 127
2, 0, Control_c, 0, 67, 0
2, 1019, Note_on_c, 0, 43, 45
2, 1980, Note_on_c, 0, 67, 53
2, 2112, Control_c, 0, 64, 112
2, 2125, Note_on_c, 0, 62, 63
2, 2130, Control_c, 0, 64, 90
2, 2152, Control_c, 0, 64, 77
2, 2168, Control_c, 0, 64, 67
2, 2190, Control_c, 0, 64, 60
2, 2206, Control_c, 0, 64, 54
2, 2227, Control_c, 0, 64, 51
2, 2274, Note_on_c, 0, 67, 0
2, 2283, Control_c, 0, 64, 50
2, 2302, Control_c, 0, 64, 48
2, 2321, Control_c, 0, 64, 46
2, 2340, Control_c, 0, 64, 45
2, 2360, Control_c, 0, 64, 43
2, 2436, Control_c, 0, 64, 45
2, 2456, Control_c, 0, 64, 47
2, 2478, Control_c, 0, 64, 50
2, 2495, Control_c, 0, 64, 55
2, 2516, Control_c, 0, 64, 60
2, 2533, Control_c, 0, 64, 62
2, 2553, Control_c, 0, 64, 64
2, 2571, Control_c, 0, 64, 65
2, 2591, Control_c, 0, 64, 68
2, 2609, Control_c, 0, 64, 73
2, 2629, Control_c, 0, 64, 78
2, 2649, Control_c, 0, 64, 84
2, 2667, Control_c, 0, 64, 91
2, 2687, Control_c, 0, 64, 98
2, 2704, Control_c, 0, 64, 104
2, 2725, Control_c, 0, 64, 112
2, 2742, Control_c, 0, 64, 127
2, 2932, Note_on_c, 0, 65, 59
2, 2996, Control_c, 0, 64, 118
2, 3012, Control_c, 0, 64, 106
2, 3032, Control_c, 0, 64, 95
2, 3052, Control_c, 0, 64, 85
2, 3071, Control_c, 0, 64, 74
2, 3076, Note_on_c, 0, 63, 63
2, 3090, Control_c, 0, 64, 65
2, 3109, Control_c, 0, 64, 57
2, 3130, Control_c, 0, 64, 52
2, 3130, Note_on_c, 0, 62, 0
2, 3150, Control_c, 0, 64, 51
2, 3186, Control_c, 0, 64, 50
2, 3204, Control_c, 0, 64, 49
2, 3224, Control_c, 0, 64, 47
2, 3242, Control_c, 0, 64, 45
2, 3262, Control_c, 0, 64, 43
2, 3266, Note_on_c, 0, 65, 0
2, 3397, Control_c, 0, 64, 44
2, 3417, Control_c, 0, 64, 46
2, 3438, Control_c, 0, 64, 49
2, 3456, Control_c, 0, 64, 53
2, 3474, Control_c, 0, 64, 58
2, 3492, Control_c, 0, 64, 60
2, 3513, Control_c, 0, 64, 62
2, 3530, Control_c, 0, 64, 64
2, 3552, Control_c, 0, 64, 66
2, 3572, Control_c, 0, 64, 68
2, 3590, Control_c, 0, 64, 71
2, 3610, Control_c, 0, 64, 74
2, 3627, Control_c, 0, 64, 76
2, 3648, Control_c, 0, 64, 78
2, 3761, Control_c, 0, 64, 77
2, 3819, Control_c, 0, 64, 76
2, 3852, Note_on_c, 0, 58, 48
2, 3859, Control_c, 0, 64, 74
2, 3879, Control_c, 0, 64, 73
2, 3897, Control_c, 0, 64, 71
2, 3916, Control_c, 0, 64, 67
2, 3934, Control_c, 0, 64, 62
2, 3954, Control_c, 0, 64, 57
2, 3968, Note_on_c, 0, 58, 0
2, 3972, Control_c, 0, 64, 52
2, 3991, Control_c, 0, 64, 48
2, 4005, Note_on_c, 0, 57, 41
2, 4012, Control_c, 0, 64, 44
2, 4033, Control_c, 0, 64, 40
2, 4049, Control_c, 0, 64, 35
2, 4071, Control_c, 0, 64, 30
2, 4089, Control_c, 0, 64, 29
2, 4146, Control_c, 0, 64, 30
2, 4165, Control_c, 0, 64, 32
2, 4185, Control_c, 0, 64, 35
2, 4207, Control_c, 0, 64, 40
2, 4223, Control_c, 0, 64, 47
2, 4242, Control_c, 0, 64, 56
2, 4261, Control_c, 0, 64, 60
2, 4301, Control_c, 0, 64, 61
2, 4320, Control_c, 0, 64, 63
2, 4339, Control_c, 0, 64, 65
2, 4357, Control_c, 0, 64, 68
2, 4376, Control_c, 0, 64, 71
2, 4396, Control_c, 0, 64, 74
2, 4416, Control_c, 0, 64, 77
2, 4434, Control_c, 0, 64, 81
2, 4454, Control_c, 0, 64, 84
2, 4474, Control_c, 0, 64, 87
2, 4493, Control_c, 0, 64, 90
2, 4510, Control_c, 0, 64, 93
2, 4529, Control_c, 0, 64, 95
2, 4551, Control_c, 0, 64, 97
2, 4566, Control_c, 0, 64, 99
2, 4586, Control_c, 0, 64, 100
2, 4606, Control_c, 0, 64, 102
2, 4626, Control_c, 0, 64, 103
2, 4644, Control_c, 0, 64, 104
2, 4702, Control_c, 0, 64, 105
2, 4857, Note_on_c, 0, 57, 0
2, 4861, Note_on_c, 0, 60, 45
2, 4894, Control_c, 0, 64, 103
2, 4914, Control_c, 0, 64, 100
2, 4932, Control_c, 0, 64, 95
2, 4952, Control_c, 0, 64, 88
2, 4972, Control_c, 0, 64, 79
2, 4983, Note_on_c, 0, 60, 0
2, 4990, Control_c, 0, 64, 70
2, 5009, Control_c, 0, 64, 62
2, 5021, Note_on_c, 0, 54, 31
2, 5030, Control_c, 0, 64, 50
2, 5051, Control_c, 0, 64, 38
2, 5067, Control_c, 0, 64, 27
2, 5088, Control_c, 0, 64, 15
2, 5105, Control_c, 0, 64, 10
2, 5125, Control_c, 0, 64, 9
2, 5145, Control_c, 0, 64, 11
2, 5163, Control_c, 0, 64, 18
2, 5183, Control_c, 0, 64, 25
2, 5202, Control_c, 0, 64, 32
2, 5222, Control_c, 0, 64, 41
2, 5241, Control_c, 0, 64, 52
2, 5262, Control_c, 0, 64, 59
2, 5279, Control_c, 0, 64, 60
2, 5298, Control_c, 0, 64, 61
2, 5317, Control_c, 0, 64, 63
2, 5335, Control_c, 0, 64, 65
2, 5355, Control_c, 0, 64, 67
2, 5364, Note_on_c, 0, 63, 0
2, 5375, Control_c, 0, 64, 70
2, 5393, Control_c, 0, 64, 73
2, 5413, Control_c, 0, 64, 78
2, 5431, Control_c, 0, 64, 84
2, 5451, Control_c, 0, 64, 89
2, 5471, Control_c, 0, 64, 95
2, 5491, Control_c, 0, 64, 100
2, 5508, Control_c, 0, 64, 108
2, 5529, Control_c, 0, 64, 127
2, 5876, Note_on_c, 0, 63, 51
2, 5945, Note_on_c, 0, 63, 0
2, 6057, Note_on_c, 0, 62, 58
2, 6114, Note_on_c, 0, 62, 0
2, 6123, Control_c, 0, 64, 96
2, 6134, Note_on_c, 0, 63, 60
2, 6143, Control_c, 0, 64, 78
2, 6161, Control_c, 0, 64, 66
2, 6183, Control_c, 0, 64, 55
2, 6183, Note_on_c, 0, 63, 0
2, 6192, Note_on_c, 0, 62, 48
2, 6200, Control_c, 0, 64, 41
2, 6218, Control_c, 0, 64, 20
2, 6240, Control_c, 0, 64, 0
2, 6354, Control_c, 0, 64, 15
2, 6372, Control_c, 0, 64, 27
2, 6392, Control_c, 0, 64, 43
2, 6411, Control_c, 0, 64, 55
2, 6429, Control_c, 0, 64, 60
2, 6449, Control_c, 0, 64, 61
2, 6470, Control_c, 0, 64, 62
2, 6492, Control_c, 0, 64, 63
2, 6506, Control_c, 0, 64, 65
2, 6526, Control_c, 0, 64, 68
2, 6544, Control_c, 0, 64, 72
2, 6564, Control_c, 0, 64, 77
2, 6583, Control_c, 0, 64, 82
2, 6602, Control_c, 0, 64, 87
2, 6625, Control_c, 0, 64, 91
2, 6643, Control_c, 0, 64, 94
2, 6660, Control_c, 0, 64, 98
2, 6678, Control_c, 0, 64, 104
2, 6698, Control_c, 0, 64, 109
2, 6719, Control_c, 0, 64, 116
2, 6724, Note_on_c, 0, 62, 0
2, 6737, Control_c, 0, 64, 127
2, 6919, Note_on_c, 0, 60, 52
2, 7002, Note_on_c, 0, 60, 0
2, 7045, Control_c, 0, 64, 120
2, 7067, Control_c, 0, 64, 107
2, 7082, Control_c, 0, 64, 94
2, 7089, Note_on_c, 0, 69, 58
2, 7102, Control_c, 0, 64, 83
2, 7124, Control_c, 0, 64, 73
2, 7140, Control_c, 0, 64, 64
2, 7160, Control_c, 0, 64, 57
2, 7177, Control_c, 0, 64, 49
2, 7199, Control_c, 0, 64, 42
2, 7221, Control_c, 0, 64, 37
2, 7236, Control_c, 0, 64, 33
2, 7258, Control_c, 0, 64, 30
2, 7278, Control_c, 0, 64, 29
2, 7312, Control_c, 0, 64, 30
2, 7332, Control_c, 0, 64, 34
2, 7352, Control_c, 0, 64, 39
2, 7373, Control_c, 0, 64, 45
2, 7391, Control_c, 0, 64, 53
2, 7412, Control_c, 0, 64, 60
2, 7428, Control_c, 0, 64, 62
2, 7466, Control_c, 0, 64, 64
2, 7487, Control_c, 0, 64, 66
2, 7506, Control_c, 0, 64, 71
2, 7524, Control_c, 0, 64, 77
2, 7544, Control_c, 0, 64, 85
2, 7563, Control_c, 0, 64, 92
2, 7582, Control_c, 0, 64, 100
2, 7602, Control_c, 0, 64, 109
2, 7620, Control_c, 0, 64, 127
2, 7776, Note_on_c, 0, 69, 0
2, 7824, Note_on_c, 0, 60, 52
2, 7871, Note_on_c, 0, 60, 0
2, 8005, Note_on_c, 0, 58, 58
2, 8056, Note_on_c, 0, 58, 0
2, 8063, Control_c, 0, 64, 97
2, 8082, Control_c, 0, 64, 78
2, 8089, Note_on_c, 0, 60, 60
2, 8104, Control_c, 0, 64, 65
2, 8119, Control_c, 0, 64, 52
2, 8141, Note_on_c, 0, 60, 0
2, 8145, Control_c, 0, 64, 33
2, 8162, Control_c, 0, 64, 0
2, 8163, Note_on_c, 0, 58, 57
2, 8274, Control_c, 0, 64, 15
2, 8294, Control_c, 0, 64, 24
2, 8312, Control_c, 0, 64, 32
2, 8331, Control_c, 0, 64, 43
2, 8349, Control_c, 0, 64, 55
2, 8369, Control_c, 0, 64, 60
2, 8389, Control_c, 0, 64, 61
2, 8408, Control_c, 0, 64, 62
2, 8426, Control_c, 0, 64, 64
2, 8446, Control_c, 0, 64, 66
2, 8466, Control_c, 0, 64, 69
2, 8483, Control_c, 0, 64, 74
2, 8503, Control_c, 0, 64, 80
2, 8525, Control_c, 0, 64, 85
2, 8542, Control_c, 0, 64, 90
2, 8561, Control_c, 0, 64, 93
2, 8581, Control_c, 0, 64, 97
2, 8601, Control_c, 0, 64, 102
2, 8618, Control_c, 0, 64, 109
2, 8638, Control_c, 0, 64, 127
2, 8933, Note_on_c, 0, 58, 0
2, 8949, Note_on_c, 0, 57, 50
2, 9010, Note_on_c, 0, 43, 0
2, 9045, Control_c, 0, 64, 118
2, 9045, Note_on_c, 0, 57, 0
2, 9060, Control_c, 0, 64, 100
2, 9080, Control_c, 0, 64, 82
2, 9103, Control_c, 0, 64, 66
2, 9103, Note_on_c, 0, 58, 45
2, 9120, Control_c, 0, 64, 53
2, 9131, Note_on_c, 0, 54, 0
2, 9136, Control_c, 0, 64, 30
2, 9141, Note_on_c, 0, 55, 27
2, 9158, Control_c, 0, 64, 0
2, 9234, Control_c, 0, 64, 21
2, 9252, Control_c, 0, 64, 31
2, 9272, Control_c, 0, 64, 42
2, 9291, Control_c, 0, 64, 56
2, 9309, Control_c, 0, 64, 61
2, 9328, Control_c, 0, 64, 62
2, 9349, Control_c, 0, 64, 63
2, 9368, Control_c, 0, 64, 66
2, 9387, Control_c, 0, 64, 70
2, 9407, Control_c, 0, 64, 76
2, 9425, Control_c, 0, 64, 85
2, 9445, Control_c, 0, 64, 93
2, 9465, Control_c, 0, 64, 101
2, 9484, Control_c, 0, 64, 109
2, 9505, Control_c, 0, 64, 127
2, 9872, Note_on_c, 0, 74, 66
2, 10027, Note_on_c, 0, 60, 43
2, 10027, Note_on_c, 0, 69, 64
2, 10050, Note_on_c, 0, 74, 0
2, 10078, Control_c, 0, 64, 108
2, 10096, Control_c, 0, 64, 83
2, 10116, Control_c, 0, 64, 66
2, 10135, Control_c, 0, 64, 55
2, 10157, Control_c, 0, 64, 40
2, 10177, Control_c, 0, 64, 25
2, 10181, Note_on_c, 0, 58, 0
2, 10192, Control_c, 0, 64, 20
2, 10231, Control_c, 0, 64, 21
2, 10251, Control_c, 0, 64, 27
2, 10271, Control_c, 0, 64, 35
2, 10289, Control_c, 0, 64, 43
2, 10309, Control_c, 0, 64, 54
2, 10331, Control_c, 0, 64, 61
2, 10349, Control_c, 0, 64, 63
2, 10366, Control_c, 0, 64, 64
2, 10385, Control_c, 0, 64, 66
2, 10405, Control_c, 0, 64, 70
2, 10423, Control_c, 0, 64, 77
2, 10442, Control_c, 0, 64, 84
2, 10461, Control_c, 0, 64, 90
2, 10481, Control_c, 0, 64, 95
2, 10500, Control_c, 0, 64, 103
2, 10522, Control_c, 0, 64, 118
2, 10538, Control_c, 0, 64, 127
2, 10569, Note_on_c, 0, 69, 0
2, 10791, Note_on_c, 0, 72, 70
2, 10943, Note_on_c, 0, 70, 63
2, 10981, Control_c, 0, 64, 100
2, 10986, Note_on_c, 0, 72, 0
2, 10997, Note_on_c, 0, 62, 26
2, 11001, Control_c, 0, 64, 80
2, 11020, Control_c, 0, 64, 67
2, 11038, Control_c, 0, 64, 57
2, 11057, Control_c, 0, 64, 45
2, 11077, Control_c, 0, 64, 33
2, 11095, Control_c, 0, 64, 28
2, 11115, Control_c, 0, 64, 26
2, 11136, Control_c, 0, 64, 25
2, 11136, Note_on_c, 0, 62, 0
2, 11136, Note_on_c, 0, 62, 3
2, 11149, Note_on_c, 0, 60, 0
2, 11193, Control_c, 0, 64, 27
2, 11211, Control_c, 0, 64, 33
2, 11230, Control_c, 0, 64, 39
2, 11248, Control_c, 0, 64, 45
2, 11268, Control_c, 0, 64, 55
2, 11290, Control_c, 0, 64, 61
2, 11308, Control_c, 0, 64, 63
2, 11325, Control_c, 0, 64, 64
2, 11346, Control_c, 0, 64, 65
2, 11366, Control_c, 0, 64, 69
2, 11384, Control_c, 0, 64, 75
2, 11403, Control_c, 0, 64, 82
2, 11425, Control_c, 0, 64, 87
2, 11441, Control_c, 0, 64, 91
2, 11461, Control_c, 0, 64, 95
2, 11478, Control_c, 0, 64, 98
2, 11498, Control_c, 0, 64, 103
2, 11519, Control_c, 0, 64, 106
2, 11538, Control_c, 0, 64, 107
2, 11557, Control_c, 0, 64, 109
2, 11579, Control_c, 0, 64, 110
2, 11730, Control_c, 0, 64, 109
2, 11742, Note_on_c, 0, 65, 45
2, 11747, Control_c, 0, 64, 106
2, 11766, Control_c, 0, 64, 102
2, 11788, Control_c, 0, 64, 97
2, 11806, Control_c, 0, 64, 90
2, 11825, Control_c, 0, 64, 80
2, 11846, Control_c, 0, 64, 70
2, 11846, Note_on_c, 0, 65, 0
2, 11866, Control_c, 0, 64, 62
2, 11884, Control_c, 0, 64, 52
2, 11902, Control_c, 0, 64, 38
2, 11902, Note_on_c, 0, 64, 48
2, 11923, Control_c, 0, 64, 28
2, 11940, Control_c, 0, 64, 21
2, 11962, Control_c, 0, 64, 19
2, 12035, Control_c, 0, 64, 23
2, 12055, Control_c, 0, 64, 28
2, 12064, Note_on_c, 0, 62, 0
2, 12077, Control_c, 0, 64, 34
2, 12095, Control_c, 0, 64, 39
2, 12113, Control_c, 0, 64, 49
2, 12133, Control_c, 0, 64, 58
2, 12153, Control_c, 0, 64, 62
2, 12171, Control_c, 0, 64, 63
2, 12190, Control_c, 0, 64, 64
2, 12212, Control_c, 0, 64, 66
2, 12228, Control_c, 0, 64, 70
2, 12247, Control_c, 0, 64, 75
2, 12268, Control_c, 0, 64, 82
2, 12289, Control_c, 0, 64, 88
2, 12304, Control_c, 0, 64, 93
2, 12325, Control_c, 0, 64, 97
2, 12344, Control_c, 0, 64, 102
2, 12362, Control_c, 0, 64, 108
2, 12382, Control_c, 0, 64, 122
2, 12403, Control_c, 0, 64, 127
2, 12659, Note_on_c, 0, 64, 0
2, 12676, Note_on_c, 0, 67, 51
2, 12780, Note_on_c, 0, 67, 0
2, 12807, Control_c, 0, 64, 109
2, 12823, Control_c, 0, 64, 90
2, 12845, Control_c, 0, 64, 74
2, 12863, Control_c, 0, 64, 60
2, 12865, Note_on_c, 0, 61, 31
2, 12882, Control_c, 0, 64, 45
2, 12901, Control_c, 0, 64, 25
2, 12919, Control_c, 0, 64, 12
2, 12997, Control_c, 0, 64, 18
2, 13019, Control_c, 0, 64, 28
2, 13036, Control_c, 0, 64, 35
2, 13058, Control_c, 0, 64, 42
2, 13074, Control_c, 0, 64, 53
2, 13093, Control_c, 0, 64, 60
2, 13112, Control_c, 0, 64, 61
2, 13132, Control_c, 0, 64, 62
2, 13150, Control_c, 0, 64, 64
2, 13169, Control_c, 0, 64, 67
2, 13188, Control_c, 0, 64, 72
2, 13208, Control_c, 0, 64, 79
2, 13227, Control_c, 0, 64, 87
2, 13245, Control_c, 0, 64, 95
2, 13259, Note_on_c, 0, 70, 0
2, 13268, Control_c, 0, 64, 103
2, 13286, Control_c, 0, 64, 122
2, 13304, Control_c, 0, 64, 127
2, 13698, Note_on_c, 0, 70, 55
2, 13761, Note_on_c, 0, 70, 0
2, 13870, Note_on_c, 0, 69, 53
2, 13917, Note_on_c, 0, 69, 0
2, 13942, Note_on_c, 0, 70, 62
2, 13957, Control_c, 0, 64, 93
2, 13977, Control_c, 0, 64, 72
2, 13995, Control_c, 0, 64, 60
2, 14003, Note_on_c, 0, 70, 0
2, 14014, Control_c, 0, 64, 45
2, 14019, Note_on_c, 0, 69, 53
2, 14032, Control_c, 0, 64, 26
2, 14055, Control_c, 0, 64, 15
2, 14129, Control_c, 0, 64, 20
2, 14149, Control_c, 0, 64, 29
2, 14171, Control_c, 0, 64, 36
2, 14188, Control_c, 0, 64, 43
2, 14207, Control_c, 0, 64, 53
2, 14224, Control_c, 0, 64, 60
2, 14245, Control_c, 0, 64, 62
2, 14284, Control_c, 0, 64, 64
2, 14303, Control_c, 0, 64, 66
2, 14321, Control_c, 0, 64, 70
2, 14340, Control_c, 0, 64, 75
2, 14359, Control_c, 0, 64, 81
2, 14380, Control_c, 0, 64, 87
2, 14397, Control_c, 0, 64, 93
2, 14416, Control_c, 0, 64, 98
2, 14439, Control_c, 0, 64, 104
2, 14454, Control_c, 0, 64, 116
2, 14475, Control_c, 0, 64, 127
2, 14620, Note_on_c, 0, 69, 0
2, 14798, Note_on_c, 0, 67, 55
2, 14868, Note_on_c, 0, 67, 0
2, 14974, Note_on_c, 0, 76, 66
2, 15013, Control_c, 0, 64, 97
2, 15033, Control_c, 0, 64, 79
2, 15052, Control_c, 0, 64, 67
2, 15074, Control_c, 0, 64, 55
2, 15089, Control_c, 0, 64, 44
2, 15107, Control_c, 0, 64, 37
2, 15128, Control_c, 0, 64, 36
2, 15205, Control_c, 0, 64, 37
2, 15225, Control_c, 0, 64, 41
2, 15242, Control_c, 0, 64, 46
2, 15265, Control_c, 0, 64, 52
2, 15280, Control_c, 0, 64, 58
2, 15302, Control_c, 0, 64, 62
2, 15318, Control_c, 0, 64, 64
2, 15337, Control_c, 0, 64, 65
2, 15357, Control_c, 0, 64, 69
2, 15377, Control_c, 0, 64, 76
2, 15395, Control_c, 0, 64, 86
2, 15417, Control_c, 0, 64, 98
2, 15437, Control_c, 0, 64, 111
2, 15453, Control_c, 0, 64, 127
2, 15609, Note_on_c, 0, 76, 0
2, 15738, Note_on_c, 0, 67, 55
2, 15785, Note_on_c, 0, 67, 0
2, 15917, Note_on_c, 0, 66, 61
2, 15965, Note_on_c, 0, 66, 0
2, 15972, Control_c, 0, 64, 89
2, 15992, Note_on_c, 0, 67, 66
2, 15996, Control_c, 0, 64, 71
2, 16012, Control_c, 0, 64, 59
2, 16032, Control_c, 0, 64, 38
2, 16047, Note_on_c, 0, 67, 0
2, 16049, Control_c, 0, 64, 14
2, 16061, Note_on_c, 0, 66, 62
2, 16067, Control_c, 0, 64, 0
2, 16111, Control_c, 0, 64, 8
2, 16125, Control_c, 0, 64, 19
2, 16146, Control_c, 0, 64, 30
2, 16163, Control_c, 0, 64, 40
2, 16184, Control_c, 0, 64, 54
2, 16202, Control_c, 0, 64, 61
2, 16222, Control_c, 0, 64, 63
2, 16231, Note_on_c, 0, 61, 0
2, 16262, Control_c, 0, 64, 65
2, 16278, Control_c, 0, 64, 69
2, 16298, Control_c, 0, 64, 76
2, 16318, Control_c, 0, 64, 86
2, 16338, Control_c, 0, 64, 94
2, 16356, Control_c, 0, 64, 101
2, 16378, Control_c, 0, 64, 111
2, 16395, Note_on_c, 0, 66, 0
2, 16399, Control_c, 0, 64, 127
2, 16848, Note_on_c, 0, 64, 56
2, 17031, Note_on_c, 0, 66, 63
2, 17055, Note_on_c, 0, 50, 34
2, 17092, Note_on_c, 0, 62, 41
2, 17124, Control_c, 0, 64, 122
2, 17143, Control_c, 0, 64, 90
2, 17165, Control_c, 0, 64, 74
2, 17185, Control_c, 0, 64, 64
2, 17185, Note_on_c, 0, 64, 0
2, 17200, Control_c, 0, 64, 56
2, 17221, Control_c, 0, 64, 48
2, 17234, Note_on_c, 0, 55, 0
2, 17241, Control_c, 0, 64, 42
2, 17260, Control_c, 0, 64, 37
2, 17278, Control_c, 0, 64, 33
2, 17296, Control_c, 0, 64, 32
2, 17335, Control_c, 0, 64, 33
2, 17355, Control_c, 0, 64, 38
2, 17374, Control_c, 0, 64, 44
2, 17393, Control_c, 0, 64, 52
2, 17413, Control_c, 0, 64, 61
2, 17433, Control_c, 0, 64, 63
2, 17450, Control_c, 0, 64, 64
2, 17472, Control_c, 0, 64, 65
2, 17490, Control_c, 0, 64, 69
2, 17508, Control_c, 0, 64, 74
2, 17527, Control_c, 0, 64, 81
2, 17546, Control_c, 0, 64, 88
2, 17566, Control_c, 0, 64, 92
2, 17584, Control_c, 0, 64, 97
2, 17604, Control_c, 0, 64, 104
2, 17624, Control_c, 0, 64, 111
2, 17642, Control_c, 0, 64, 118
2, 17662, Control_c, 0, 64, 120
2, 17684, Control_c, 0, 64, 127
2, 17833, Note_on_c, 0, 67, 54
2, 17849, Note_on_c, 0, 66, 0
2, 17892, Control_c, 0, 64, 116
2, 17911, Control_c, 0, 64, 104
2, 17930, Control_c, 0, 64, 93
2, 17948, Control_c, 0, 64, 81
2, 17970, Control_c, 0, 64, 68
2, 17988, Control_c, 0, 64, 59
2, 17994, Note_on_c, 0, 67, 0
2, 18008, Control_c, 0, 64, 47
2, 18028, Control_c, 0, 64, 35
2, 18028, Note_on_c, 0, 69, 47
2, 18046, Control_c, 0, 64, 30
2, 18124, Control_c, 0, 64, 31
2, 18144, Control_c, 0, 64, 34
2, 18161, Control_c, 0, 64, 37
2, 18180, Control_c, 0, 64, 41
2, 18200, Control_c, 0, 64, 45
2, 18219, Control_c, 0, 64, 51
2, 18237, Control_c, 0, 64, 59
2, 18257, Control_c, 0, 64, 61
2, 18277, Control_c, 0, 64, 62
2, 18295, Control_c, 0, 64, 64
2, 18314, Control_c, 0, 64, 66
2, 18335, Control_c, 0, 64, 70
2, 18353, Control_c, 0, 64, 75
2, 18373, Control_c, 0, 64, 83
2, 18392, Control_c, 0, 64, 93
2, 18410, Control_c, 0, 64, 102
2, 18429, Control_c, 0, 64, 111
2, 18443, Note_on_c, 0, 60, 46
2, 18452, Control_c, 0, 64, 127
2, 18546, Note_on_c, 0, 62, 0
2, 18883, Note_on_c, 0, 58, 47
2, 19006, Control_c, 0, 64, 97
2, 19025, Control_c, 0, 64, 81
2, 19043, Control_c, 0, 64, 69
2, 19064, Control_c, 0, 64, 59
2, 19084, Control_c, 0, 64, 50
2, 19104, Control_c, 0, 64, 43
2, 19104, Note_on_c, 0, 60, 0
2, 19120, Control_c, 0, 64, 39
2, 19140, Control_c, 0, 64, 38
2, 19197, Control_c, 0, 64, 42
2, 19217, Control_c, 0, 64, 48
2, 19237, Control_c, 0, 64, 55
2, 19255, Control_c, 0, 64, 61
2, 19274, Control_c, 0, 64, 64
2, 19295, Control_c, 0, 64, 66
2, 19312, Control_c, 0, 64, 69
2, 19331, Note_on_c, 0, 69, 0
2, 19335, Control_c, 0, 64, 75
2, 19350, Control_c, 0, 64, 92
2, 19370, Control_c, 0, 64, 127
2, 19533, Note_on_c, 0, 62, 59
2, 19617, Note_on_c, 0, 62, 0
2, 19713, Note_on_c, 0, 67, 66
2, 19851, Control_c, 0, 64, 93
2, 19871, Control_c, 0, 64, 75
2, 19889, Control_c, 0, 64, 61
2, 19909, Control_c, 0, 64, 49
2, 19929, Control_c, 0, 64, 36
2, 19949, Control_c, 0, 64, 32
2, 19967, Control_c, 0, 64, 34
2, 19984, Control_c, 0, 64, 39
2, 20005, Control_c, 0, 64, 46
2, 20022, Control_c, 0, 64, 54
2, 20042, Control_c, 0, 64, 61
2, 20062, Control_c, 0, 64, 64
2, 20082, Control_c, 0, 64, 66
2, 20102, Control_c, 0, 64, 69
2, 20120, Control_c, 0, 64, 75
2, 20139, Control_c, 0, 64, 86
2, 20160, Control_c, 0, 64, 104
2, 20177, Control_c, 0, 64, 127
2, 20397, Note_on_c, 0, 70, 67
2, 20528, Note_on_c, 0, 70, 0
2, 20582, Note_on_c, 0, 72, 69
2, 20604, Note_on_c, 0, 57, 37
2, 20637, Control_c, 0, 64, 103
2, 20655, Control_c, 0, 64, 84
2, 20678, Control_c, 0, 64, 69
2, 20697, Control_c, 0, 64, 59
2, 20715, Control_c, 0, 64, 44
2, 20737, Control_c, 0, 64, 32
2, 20756, Control_c, 0, 64, 30
2, 20775, Note_on_c, 0, 58, 0
2, 20831, Control_c, 0, 64, 32
2, 20849, Control_c, 0, 64, 37
2, 20867, Control_c, 0, 64, 44
2, 20887, Control_c, 0, 64, 51
2, 20907, Control_c, 0, 64, 59
2, 20926, Control_c, 0, 64, 63
2, 20945, Control_c, 0, 64, 65
2, 20963, Control_c, 0, 64, 68
2, 20986, Control_c, 0, 64, 74
2, 20986, Note_on_c, 0, 67, 0
2, 21002, Control_c, 0, 64, 86
2, 21021, Control_c, 0, 64, 101
2, 21041, Control_c, 0, 64, 122
2, 21059, Control_c, 0, 64, 127
2, 21339, Note_on_c, 0, 67, 49
2, 21377, Note_on_c, 0, 67, 0
2, 21482, Control_c, 0, 64, 109
2, 21505, Control_c, 0, 64, 93
2, 21505, Note_on_c, 0, 66, 58
2, 21522, Control_c, 0, 64, 79
2, 21543, Control_c, 0, 64, 67
2, 21560, Control_c, 0, 64, 59
2, 21578, Control_c, 0, 64, 51
2, 21597, Control_c, 0, 64, 47
2, 21619, Control_c, 0, 64, 45
2, 21636, Control_c, 0, 64, 44
2, 21656, Control_c, 0, 64, 43
2, 21715, Control_c, 0, 64, 44
2, 21735, Control_c, 0, 64, 48
2, 21752, Control_c, 0, 64, 52
2, 21770, Control_c, 0, 64, 55
2, 21790, Control_c, 0, 64, 59
2, 21808, Control_c, 0, 64, 62
2, 21827, Control_c, 0, 64, 64
2, 21846, Control_c, 0, 64, 65
2, 21867, Control_c, 0, 64, 68
2, 21885, Control_c, 0, 64, 73
2, 21905, Control_c, 0, 64, 78
2, 21925, Control_c, 0, 64, 83
2, 21943, Control_c, 0, 64, 87
2, 21962, Control_c, 0, 64, 91
2, 21981, Control_c, 0, 64, 95
2, 22001, Control_c, 0, 64, 99
2, 22021, Control_c, 0, 64, 102
2, 22039, Control_c, 0, 64, 105
2, 22060, Control_c, 0, 64, 106
2, 22116, Control_c, 0, 64, 107
2, 22184, Note_on_c, 0, 66, 0
2, 22216, Note_on_c, 0, 64, 48
2, 22231, Control_c, 0, 64, 106
2, 22249, Control_c, 0, 64, 103
2, 22270, Control_c, 0, 64, 100
2, 22292, Control_c, 0, 64, 95
2, 22306, Control_c, 0, 64, 89
2, 22328, Control_c, 0, 64, 79
2, 22337, Note_on_c, 0, 64, 0
2, 22349, Control_c, 0, 64, 69
2, 22369, Control_c, 0, 64, 59
2, 22387, Control_c, 0, 64, 48
2, 22403, Note_on_c, 0, 66, 40
2, 22405, Control_c, 0, 64, 37
2, 22423, Control_c, 0, 64, 30
2, 22501, Control_c, 0, 64, 34
2, 22522, Control_c, 0, 64, 39
2, 22539, Control_c, 0, 64, 44
2, 22557, Control_c, 0, 64, 49
2, 22579, Control_c, 0, 64, 56
2, 22595, Control_c, 0, 64, 60
2, 22615, Control_c, 0, 64, 61
2, 22634, Control_c, 0, 64, 62
2, 22654, Control_c, 0, 64, 65
2, 22672, Control_c, 0, 64, 67
2, 22692, Control_c, 0, 64, 72
2, 22712, Control_c, 0, 64, 77
2, 22731, Control_c, 0, 64, 84
2, 22749, Control_c, 0, 64, 90
2, 22768, Control_c, 0, 64, 95
2, 22788, Control_c, 0, 64, 103
2, 22808, Control_c, 0, 64, 113
2, 22826, Control_c, 0, 64, 127
2, 23081, Note_on_c, 0, 74, 50
2, 23169, Note_on_c, 0, 72, 0
2, 23231, Note_on_c, 0, 69, 56
2, 23255, Note_on_c, 0, 62, 44
2, 23308, Control_c, 0, 64, 118
2, 23326, Control_c, 0, 64, 85
2, 23346, Control_c, 0, 64, 68
2, 23360, Note_on_c, 0, 74, 0
2, 23365, Control_c, 0, 64, 56
2, 23381, Note_on_c, 0, 57, 0
2, 23385, Control_c, 0, 64, 41
2, 23402, Control_c, 0, 64, 37
2, 23422, Control_c, 0, 64, 44
2, 23440, Control_c, 0, 64, 50
2, 23463, Control_c, 0, 64, 58
2, 23479, Control_c, 0, 64, 62
2, 23499, Control_c, 0, 64, 64
2, 23517, Control_c, 0, 64, 67
2, 23537, Control_c, 0, 64, 72
2, 23555, Control_c, 0, 64, 80
2, 23575, Control_c, 0, 64, 92
2, 23596, Control_c, 0, 64, 107
2, 23616, Control_c, 0, 64, 127
2, 23616, Note_on_c, 0, 51, 62
2, 23896, Note_on_c, 0, 72, 71
2, 23908, Note_on_c, 0, 50, 0
2, 23963, Note_on_c, 0, 66, 0
2, 24002, Note_on_c, 0, 69, 0
2, 24065, Note_on_c, 0, 71, 67
2, 24074, Note_on_c, 0, 53, 40
2, 24091, Note_on_c, 0, 67, 47
2, 24171, Control_c, 0, 64, 94
2, 24189, Control_c, 0, 64, 75
2, 24209, Control_c, 0, 64, 63
2, 24218, Note_on_c, 0, 72, 0
2, 24229, Control_c, 0, 64, 50
2, 24242, Note_on_c, 0, 51, 0
2, 24249, Control_c, 0, 64, 36
2, 24268, Control_c, 0, 64, 29
2, 24288, Control_c, 0, 64, 28
2, 24343, Control_c, 0, 64, 31
2, 24362, Control_c, 0, 64, 39
2, 24383, Control_c, 0, 64, 49
2, 24401, Control_c, 0, 64, 59
2, 24420, Control_c, 0, 64, 64
2, 24438, Control_c, 0, 64, 66
2, 24458, Control_c, 0, 64, 70
2, 24478, Control_c, 0, 64, 80
2, 24496, Control_c, 0, 64, 100
2, 24515, Control_c, 0, 64, 127
2, 24765, Note_on_c, 0, 72, 73
2, 24810, Note_on_c, 0, 71, 0
2, 24927, Note_on_c, 0, 74, 76
2, 24978, Control_c, 0, 64, 109
2, 24996, Control_c, 0, 64, 81
2, 25012, Note_on_c, 0, 72, 0
2, 25014, Control_c, 0, 64, 64
2, 25037, Control_c, 0, 64, 48
2, 25056, Control_c, 0, 64, 22
2, 25074, Control_c, 0, 64, 9
2, 25092, Control_c, 0, 64, 18
2, 25112, Control_c, 0, 64, 30
2, 25134, Control_c, 0, 64, 43
2, 25149, Control_c, 0, 64, 57
2, 25169, Control_c, 0, 64, 64
2, 25189, Control_c, 0, 64, 67
2, 25209, Control_c, 0, 64, 72
2, 25225, Control_c, 0, 64, 80
2, 25245, Control_c, 0, 64, 97
2, 25265, Control_c, 0, 64, 127
2, 25312, Note_on_c, 0, 59, 69
2, 25376, Note_on_c, 0, 62, 0
2, 25428, Note_on_c, 0, 53, 0
2, 25428, Note_on_c, 0, 59, 0
2, 25693, Note_on_c, 0, 67, 0
2, 25727, Note_on_c, 0, 51, 58
2, 25731, Note_on_c, 0, 55, 63
2, 25861, Control_c, 0, 64, 93
2, 25879, Control_c, 0, 64, 70
2, 25898, Control_c, 0, 64, 57
2, 25918, Control_c, 0, 64, 37
2, 25936, Control_c, 0, 64, 20
2, 25956, Control_c, 0, 64, 25
2, 25976, Control_c, 0, 64, 32
2, 25996, Control_c, 0, 64, 39
2, 26013, Control_c, 0, 64, 51
2, 26032, Control_c, 0, 64, 61
2, 26051, Control_c, 0, 64, 65
2, 26071, Control_c, 0, 64, 68
2, 26089, Control_c, 0, 64, 74
2, 26109, Control_c, 0, 64, 87
2, 26128, Control_c, 0, 64, 108
2, 26150, Control_c, 0, 64, 127
2, 26179, Note_on_c, 0, 74, 0
2, 26415, Note_on_c, 0, 67, 73
2, 26520, Note_on_c, 0, 67, 0
2, 26580, Note_on_c, 0, 72, 77
2, 26595, Note_on_c, 0, 63, 55
2, 26668, Control_c, 0, 64, 87
2, 26688, Control_c, 0, 64, 68
2, 26704, Control_c, 0, 64, 56
2, 26723, Control_c, 0, 64, 35
2, 26742, Control_c, 0, 64, 0
2, 26762, Control_c, 0, 64, 10
2, 26784, Control_c, 0, 64, 19
2, 26803, Control_c, 0, 64, 29
2, 26823, Control_c, 0, 64, 39
2, 26839, Control_c, 0, 64, 53
2, 26861, Control_c, 0, 64, 62
2, 26880, Control_c, 0, 64, 65
2, 26897, Control_c, 0, 64, 68
2, 26916, Control_c, 0, 64, 75
2, 26936, Control_c, 0, 64, 88
2, 26957, Control_c, 0, 64, 110
2, 26975, Control_c, 0, 64, 127
2, 27053, Note_on_c, 0, 63, 0
2, 27055, Note_on_c, 0, 55, 0
2, 27227, Note_on_c, 0, 51, 0
2, 27298, Note_on_c, 0, 75, 69
2, 27442, Note_on_c, 0, 75, 0
2, 27476, Note_on_c, 0, 77, 79
2, 27509, Note_on_c, 0, 56, 41
2, 27527, Note_on_c, 0, 50, 35
2, 27588, Control_c, 0, 64, 104
2, 27609, Control_c, 0, 64, 77
2, 27628, Control_c, 0, 64, 64
2, 27647, Control_c, 0, 64, 52
2, 27667, Control_c, 0, 64, 38
2, 27684, Control_c, 0, 64, 28
2, 27704, Control_c, 0, 64, 25
2, 27722, Control_c, 0, 64, 24
2, 27760, Control_c, 0, 64, 26
2, 27779, Control_c, 0, 64, 33
2, 27799, Control_c, 0, 64, 42
2, 27820, Control_c, 0, 64, 52
2, 27838, Control_c, 0, 64, 60
2, 27856, Control_c, 0, 64, 63
2, 27875, Control_c, 0, 64, 64
2, 27895, Control_c, 0, 64, 66
2, 27913, Control_c, 0, 64, 70
2, 27933, Control_c, 0, 64, 79
2, 27955, Control_c, 0, 64, 90
2, 27968, Note_on_c, 0, 72, 0
2, 27972, Control_c, 0, 64, 100
2, 27990, Control_c, 0, 64, 107
2, 28013, Control_c, 0, 64, 127
2, 28238, Note_on_c, 0, 72, 61
2, 28311, Note_on_c, 0, 72, 0
2, 28415, Control_c, 0, 64, 112
2, 28420, Note_on_c, 0, 53, 44
2, 28420, Note_on_c, 0, 71, 56
2, 28433, Control_c, 0, 64, 88
2, 28451, Control_c, 0, 64, 73
2, 28470, Control_c, 0, 64, 62
2, 28489, Control_c, 0, 64, 52
2, 28509, Control_c, 0, 64, 42
2, 28529, Control_c, 0, 64, 39
2, 28576, Note_on_c, 0, 56, 0
2, 28609, Control_c, 0, 64, 40
2, 28627, Control_c, 0, 64, 44
2, 28644, Control_c, 0, 64, 49
2, 28665, Control_c, 0, 64, 55
2, 28682, Control_c, 0, 64, 60
2, 28702, Control_c, 0, 64, 62
2, 28720, Control_c, 0, 64, 63
2, 28740, Control_c, 0, 64, 65
2, 28761, Control_c, 0, 64, 69
2, 28782, Control_c, 0, 64, 74
2, 28797, Control_c, 0, 64, 81
2, 28817, Control_c, 0, 64, 88
2, 28837, Control_c, 0, 64, 96
2, 28857, Control_c, 0, 64, 102
2, 28874, Control_c, 0, 64, 110
2, 28894, Control_c, 0, 64, 127
2, 29161, Note_on_c, 0, 71, 0
2, 29172, Note_on_c, 0, 69, 53
2, 29306, Note_on_c, 0, 69, 0
2, 29315, Control_c, 0, 64, 116
2, 29335, Control_c, 0, 64, 93
2, 29339, Note_on_c, 0, 71, 58
2, 29357, Control_c, 0, 64, 77
2, 29357, Note_on_c, 0, 55, 41
2, 29377, Control_c, 0, 64, 65
2, 29394, Control_c, 0, 64, 55
2, 29412, Control_c, 0, 64, 46
2, 29430, Control_c, 0, 64, 42
2, 29450, Control_c, 0, 64, 41
2, 29471, Note_on_c, 0, 50, 0
2, 29479, Note_on_c, 0, 53, 0
2, 29527, Control_c, 0, 64, 44
2, 29548, Control_c, 0, 64, 48
2, 29565, Control_c, 0, 64, 51
2, 29583, Control_c, 0, 64, 56
2, 29604, Control_c, 0, 64, 60
2, 29624, Control_c, 0, 64, 62
2, 29644, Control_c, 0, 64, 63
2, 29661, Control_c, 0, 64, 65
2, 29681, Control_c, 0, 64, 68
2, 29701, Control_c, 0, 64, 72
2, 29719, Control_c, 0, 64, 79
2, 29738, Control_c, 0, 64, 87
2, 29758, Control_c, 0, 64, 95
2, 29775, Control_c, 0, 64, 99
2, 29795, Control_c, 0, 64, 104
2, 29815, Control_c, 0, 64, 113
2, 29837, Control_c, 0, 64, 127
2, 30059, Note_on_c, 0, 79, 65
2, 30083, Note_on_c, 0, 77, 0
2, 30210, Note_on_c, 0, 79, 0
2, 30216, Note_on_c, 0, 74, 61
2, 30219, Control_c, 0, 64, 109
2, 30234, Note_on_c, 0, 43, 30
2, 30238, Control_c, 0, 64, 89
2, 30258, Control_c, 0, 64, 72
2, 30278, Control_c, 0, 64, 61
2, 30295, Control_c, 0, 64, 49
2, 30317, Control_c, 0, 64, 38
2, 30333, Control_c, 0, 64, 36
2, 30372, Control_c, 0, 64, 37
2, 30390, Control_c, 0, 64, 39
2, 30409, Control_c, 0, 64, 43
2, 30432, Control_c, 0, 64, 48
2, 30449, Control_c, 0, 64, 56
2, 30467, Control_c, 0, 64, 60
2, 30486, Control_c, 0, 64, 62
2, 30505, Control_c, 0, 64, 63
2, 30527, Control_c, 0, 64, 65
2, 30543, Control_c, 0, 64, 67
2, 30566, Control_c, 0, 64, 72
2, 30583, Control_c, 0, 64, 77
2, 30602, Control_c, 0, 64, 83
2, 30622, Control_c, 0, 64, 89
2, 30640, Control_c, 0, 64, 93
2, 30660, Control_c, 0, 64, 98
2, 30679, Control_c, 0, 64, 106
2, 30698, Control_c, 0, 64, 120
2, 30718, Control_c, 0, 64, 127
2, 30774, Note_on_c, 0, 74, 0
2, 31064, Note_on_c, 0, 77, 61
2, 31219, Note_on_c, 0, 48, 35
2, 31237, Control_c, 0, 64, 120
2, 31237, Note_on_c, 0, 75, 58
2, 31251, Control_c, 0, 64, 95
2, 31270, Control_c, 0, 64, 79
2, 31290, Note_on_c, 0, 77, 0
2, 31295, Control_c, 0, 64, 67
2, 31312, Control_c, 0, 64, 58
2, 31324, Note_on_c, 0, 43, 0
2, 31328, Control_c, 0, 64, 51
2, 31348, Control_c, 0, 64, 48
2, 31404, Control_c, 0, 64, 47
2, 31413, Note_on_c, 0, 71, 0
2, 31424, Control_c, 0, 64, 46
2, 31444, Control_c, 0, 64, 44
2, 31466, Control_c, 0, 64, 43
2, 31481, Control_c, 0, 64, 41
2, 31501, Control_c, 0, 64, 37
2, 31523, Control_c, 0, 64, 33
2, 31539, Control_c, 0, 64, 28
2, 31562, Control_c, 0, 64, 22
2, 31579, Control_c, 0, 64, 16
2, 31598, Control_c, 0, 64, 0
2, 32021, Note_on_c, 0, 72, 45
2, 32123, Note_on_c, 0, 72, 0
2, 32179, Note_on_c, 0, 67, 41
2, 32234, Control_c, 0, 64, 17
2, 32251, Control_c, 0, 64, 30
2, 32269, Control_c, 0, 64, 46
2, 32288, Control_c, 0, 64, 56
2, 32309, Control_c, 0, 64, 61
2, 32326, Control_c, 0, 64, 62
2, 32346, Control_c, 0, 64, 63
2, 32364, Control_c, 0, 64, 65
2, 32383, Control_c, 0, 64, 70
2, 32403, Note_on_c, 0, 75, 0
2, 32408, Control_c, 0, 64, 79
2, 32424, Control_c, 0, 64, 96
2, 32442, Control_c, 0, 64, 122
2, 32462, Control_c, 0, 64, 127
2, 32932, Note_on_c, 0, 70, 53
2, 33091, Note_on_c, 0, 68, 67
2, 33093, Note_on_c, 0, 67, 0
2, 33212, Control_c, 0, 64, 118
2, 33229, Control_c, 0, 64, 98
2, 33239, Note_on_c, 0, 70, 0
2, 33250, Control_c, 0, 64, 82
2, 33269, Control_c, 0, 64, 70
2, 33269, Note_on_c, 0, 55, 0
2, 33289, Control_c, 0, 64, 63
2, 33308, Control_c, 0, 64, 57
2, 33325, Control_c, 0, 64, 56
2, 33382, Control_c, 0, 64, 55
2, 33403, Control_c, 0, 64, 54
2, 33422, Control_c, 0, 64, 53
2, 33443, Control_c, 0, 64, 52
2, 33459, Control_c, 0, 64, 51
2, 33479, Control_c, 0, 64, 50
2, 33501, Control_c, 0, 64, 49
2, 33536, Control_c, 0, 64, 48
2, 33555, Control_c, 0, 64, 47
2, 33595, Control_c, 0, 64, 46
2, 33633, Control_c, 0, 64, 45
2, 33672, Control_c, 0, 64, 44
2, 33710, Control_c, 0, 64, 43
2, 33748, Control_c, 0, 64, 42
2, 33768, Control_c, 0, 64, 41
2, 33808, Control_c, 0, 64, 40
2, 33824, Control_c, 0, 64, 39
2, 33840, Note_on_c, 0, 63, 49
2, 33844, Control_c, 0, 64, 38
2, 33884, Control_c, 0, 64, 37
2, 33900, Control_c, 0, 64, 36
2, 33942, Control_c, 0, 64, 35
2, 33982, Note_on_c, 0, 62, 53
2, 33982, Note_on_c, 0, 63, 0
2, 34074, Control_c, 0, 64, 36
2, 34094, Control_c, 0, 64, 38
2, 34112, Control_c, 0, 64, 41
2, 34130, Control_c, 0, 64, 44
2, 34150, Control_c, 0, 64, 48
2, 34171, Control_c, 0, 64, 51
2, 34190, Control_c, 0, 64, 56
2, 34211, Control_c, 0, 64, 59
2, 34227, Control_c, 0, 64, 63
2, 34246, Control_c, 0, 64, 64
2, 34266, Control_c, 0, 64, 67
2, 34287, Control_c, 0, 64, 72
2, 34307, Control_c, 0, 64, 82
2, 34325, Control_c, 0, 64, 99
2, 34343, Control_c, 0, 64, 127
2, 34761, Note_on_c, 0, 65, 49
2, 34810, Note_on_c, 0, 62, 0
2, 34945, Note_on_c, 0, 59, 48
2, 34975, Control_c, 0, 64, 99
2, 34995, Control_c, 0, 64, 83
2, 35004, Note_on_c, 0, 65, 0
2, 35017, Control_c, 0, 64, 70
2, 35033, Control_c, 0, 64, 59
2, 35053, Control_c, 0, 64, 48
2, 35073, Control_c, 0, 64, 40
2, 35092, Control_c, 0, 64, 38
2, 35112, Control_c, 0, 64, 37
2, 35131, Control_c, 0, 64, 38
2, 35152, Control_c, 0, 64, 40
2, 35169, Control_c, 0, 64, 46
2, 35187, Control_c, 0, 64, 53
2, 35207, Control_c, 0, 64, 57
2, 35226, Control_c, 0, 64, 61
2, 35247, Control_c, 0, 64, 64
2, 35265, Control_c, 0, 64, 67
2, 35286, Control_c, 0, 64, 72
2, 35286, Note_on_c, 0, 68, 0
2, 35304, Control_c, 0, 64, 83
2, 35322, Control_c, 0, 64, 100
2, 35343, Control_c, 0, 64, 127
2, 35682, Note_on_c, 0, 68, 63
2, 35841, Note_on_c, 0, 67, 67
2, 35938, Control_c, 0, 64, 122
2, 35945, Note_on_c, 0, 68, 0
2, 35958, Control_c, 0, 64, 96
2, 35975, Control_c, 0, 64, 82
2, 35995, Control_c, 0, 64, 69
2, 36015, Control_c, 0, 64, 61
2, 36033, Control_c, 0, 64, 52
2, 36052, Control_c, 0, 64, 45
2, 36074, Control_c, 0, 64, 41
2, 36092, Control_c, 0, 64, 39
2, 36148, Control_c, 0, 64, 41
2, 36167, Control_c, 0, 64, 46
2, 36187, Control_c, 0, 64, 51
2, 36204, Control_c, 0, 64, 56
2, 36223, Control_c, 0, 64, 61
2, 36243, Control_c, 0, 64, 63
2, 36263, Control_c, 0, 64, 66
2, 36282, Control_c, 0, 64, 70
2, 36300, Control_c, 0, 64, 77
2, 36321, Control_c, 0, 64, 88
2, 36341, Control_c, 0, 64, 106
2, 36360, Control_c, 0, 64, 127
2, 36654, Note_on_c, 0, 65, 63
2, 36659, Note_on_c, 0, 67, 0
2, 36766, Note_on_c, 0, 65, 0
2, 36832, Note_on_c, 0, 74, 72
2, 36898, Control_c, 0, 64, 102
2, 36916, Control_c, 0, 64, 85
2, 36936, Control_c, 0, 64, 72
2, 36953, Control_c, 0, 64, 61
2, 36973, Control_c, 0, 64, 52
2, 36993, Control_c, 0, 64, 44
2, 37010, Control_c, 0, 64, 41
2, 37108, Control_c, 0, 64, 44
2, 37126, Control_c, 0, 64, 48
2, 37146, Control_c, 0, 64, 53
2, 37164, Control_c, 0, 64, 59
2, 37185, Control_c, 0, 64, 63
2, 37207, Control_c, 0, 64, 64
2, 37223, Control_c, 0, 64, 66
2, 37245, Control_c, 0, 64, 71
2, 37263, Control_c, 0, 64, 80
2, 37281, Control_c, 0, 64, 92
2, 37299, Control_c, 0, 64, 105
2, 37318, Control_c, 0, 64, 122
2, 37340, Control_c, 0, 64, 127
2, 37562, Note_on_c, 0, 65, 60
2, 37721, Note_on_c, 0, 65, 0
2, 37730, Note_on_c, 0, 63, 65
2, 37760, Control_c, 0, 64, 106
2, 37780, Control_c, 0, 64, 80
2, 37798, Control_c, 0, 64, 65
2, 37819, Control_c, 0, 64, 53
2, 37836, Control_c, 0, 64, 35
2, 37857, Control_c, 0, 64, 24
2, 37895, Control_c, 0, 64, 28
2, 37915, Control_c, 0, 64, 37
2, 37933, Control_c, 0, 64, 47
2, 37952, Control_c, 0, 64, 59
2, 37972, Control_c, 0, 64, 64
2, 37991, Control_c, 0, 64, 67
2, 38013, Control_c, 0, 64, 70
2, 38029, Control_c, 0, 64, 78
2, 38049, Control_c, 0, 64, 95
2, 38062, Note_on_c, 0, 48, 0
2, 38069, Control_c, 0, 64, 127
2, 38126, Note_on_c, 0, 59, 0
2, 38514, Note_on_c, 0, 63, 0
2, 38523, Note_on_c, 0, 62, 57
2, 38642, Note_on_c, 0, 62, 0
2, 38695, Note_on_c, 0, 63, 56
2, 38719, Note_on_c, 0, 60, 60
2, 38781, Control_c, 0, 64, 101
2, 38800, Control_c, 0, 64, 77
2, 38820, Control_c, 0, 64, 63
2, 38835, Control_c, 0, 64, 50
2, 38854, Control_c, 0, 64, 34
2, 38876, Control_c, 0, 64, 25
2, 38895, Note_on_c, 0, 74, 0
2, 38933, Control_c, 0, 64, 28
2, 38951, Control_c, 0, 64, 36
2, 38971, Control_c, 0, 64, 45
2, 38989, Control_c, 0, 64, 57
2, 39009, Control_c, 0, 64, 64
2, 39028, Control_c, 0, 64, 66
2, 39046, Control_c, 0, 64, 69
2, 39067, Control_c, 0, 64, 74
2, 39089, Control_c, 0, 64, 85
2, 39105, Control_c, 0, 64, 102
2, 39122, Control_c, 0, 64, 127
2, 39466, Note_on_c, 0, 79, 73
2, 39624, Note_on_c, 0, 65, 57
2, 39624, Note_on_c, 0, 74, 76
2, 39628, Note_on_c, 0, 71, 66
2, 39729, Note_on_c, 0, 79, 0
2, 39759, Control_c, 0, 64, 116
2, 39776, Control_c, 0, 64, 83
2, 39796, Control_c, 0, 64, 65
2, 39818, Control_c, 0, 64, 49
2, 39818, Note_on_c, 0, 63, 0
2, 39837, Control_c, 0, 64, 15
2, 39854, Control_c, 0, 64, 11
2, 39873, Control_c, 0, 64, 24
2, 39892, Control_c, 0, 64, 34
2, 39909, Control_c, 0, 64, 46
2, 39931, Control_c, 0, 64, 60
2, 39949, Control_c, 0, 64, 65
2, 39969, Control_c, 0, 64, 69
2, 39987, Control_c, 0, 64, 75
2, 40007, Control_c, 0, 64, 88
2, 40025, Control_c, 0, 64, 120
2, 40046, Control_c, 0, 64, 127
2, 40119, Note_on_c, 0, 74, 0
2, 40200, Note_on_c, 0, 71, 0
2, 40319, Note_on_c, 0, 65, 0
2, 40408, Note_on_c, 0, 77, 72
2, 40572, Note_on_c, 0, 75, 75
2, 40585, Note_on_c, 0, 67, 59
2, 40585, Note_on_c, 0, 72, 72
2, 40679, Control_c, 0, 64, 95
2, 40699, Control_c, 0, 64, 74
2, 40718, Control_c, 0, 64, 61
2, 40723, Note_on_c, 0, 77, 0
2, 40739, Control_c, 0, 64, 47
2, 40755, Control_c, 0, 64, 28
2, 40777, Control_c, 0, 64, 18
2, 40815, Control_c, 0, 64, 25
2, 40833, Control_c, 0, 64, 32
2, 40853, Control_c, 0, 64, 41
2, 40869, Control_c, 0, 64, 55
2, 40891, Control_c, 0, 64, 63
2, 40909, Control_c, 0, 64, 65
2, 40928, Control_c, 0, 64, 68
2, 40947, Control_c, 0, 64, 73
2, 40967, Control_c, 0, 64, 81
2, 40987, Control_c, 0, 64, 91
2, 41006, Control_c, 0, 64, 100
2, 41025, Control_c, 0, 64, 110
2, 41043, Control_c, 0, 64, 127
2, 41277, Note_on_c, 0, 67, 0
2, 41379, Note_on_c, 0, 58, 65
2, 41540, Note_on_c, 0, 57, 77
2, 41549, Note_on_c, 0, 66, 70
2, 41620, Control_c, 0, 64, 97
2, 41627, Note_on_c, 0, 60, 0
2, 41640, Control_c, 0, 64, 73
2, 41644, Note_on_c, 0, 58, 0
2, 41659, Control_c, 0, 64, 61
2, 41680, Control_c, 0, 64, 46
2, 41696, Control_c, 0, 64, 22
2, 41716, Control_c, 0, 64, 0
2, 41812, Control_c, 0, 64, 22
2, 41830, Control_c, 0, 64, 35
2, 41849, Control_c, 0, 64, 50
2, 41870, Control_c, 0, 64, 61
2, 41887, Control_c, 0, 64, 63
2, 41907, Control_c, 0, 64, 64
2, 41930, Control_c, 0, 64, 66
2, 41947, Control_c, 0, 64, 71
2, 41964, Control_c, 0, 64, 79
2, 41985, Control_c, 0, 64, 91
2, 42005, Control_c, 0, 64, 103
2, 42023, Control_c, 0, 64, 127
2, 42041, Note_on_c, 0, 66, 0
2, 42297, Note_on_c, 0, 67, 73
2, 42310, Note_on_c, 0, 60, 69
2, 42363, Note_on_c, 0, 67, 0
2, 42473, Note_on_c, 0, 69, 75
2, 42480, Note_on_c, 0, 54, 72
2, 42524, Control_c, 0, 64, 105
2, 42542, Control_c, 0, 64, 80
2, 42564, Control_c, 0, 64, 65
2, 42581, Control_c, 0, 64, 51
2, 42593, Note_on_c, 0, 60, 0
2, 42603, Control_c, 0, 64, 24
2, 42618, Control_c, 0, 64, 0
2, 42623, Note_on_c, 0, 57, 0
2, 42752, Control_c, 0, 64, 19
2, 42771, Control_c, 0, 64, 30
2, 42792, Control_c, 0, 64, 43
2, 42810, Control_c, 0, 64, 56
2, 42830, Control_c, 0, 64, 62
2, 42849, Control_c, 0, 64, 63
2, 42869, Control_c, 0, 64, 64
2, 42887, Control_c, 0, 64, 67
2, 42906, Control_c, 0, 64, 74
2, 42926, Control_c, 0, 64, 85
2, 42944, Control_c, 0, 64, 99
2, 42963, Control_c, 0, 64, 127
2, 43052, Note_on_c, 0, 75, 0
2, 43287, Note_on_c, 0, 75, 71
2, 43438, Note_on_c, 0, 74, 75
2, 43459, Note_on_c, 0, 57, 59
2, 43500, Control_c, 0, 64, 106
2, 43509, Note_on_c, 0, 75, 0
2, 43522, Control_c, 0, 64, 88
2, 43541, Control_c, 0, 64, 72
2, 43558, Control_c, 0, 64, 58
2, 43578, Control_c, 0, 64, 39
2, 43597, Control_c, 0, 64, 0
2, 43673, Control_c, 0, 64, 11
2, 43692, Control_c, 0, 64, 31
2, 43712, Control_c, 0, 64, 48
2, 43731, Control_c, 0, 64, 60
2, 43755, Control_c, 0, 64, 63
2, 43770, Control_c, 0, 64, 64
2, 43790, Control_c, 0, 64, 66
2, 43808, Control_c, 0, 64, 69
2, 43831, Control_c, 0, 64, 76
2, 43847, Control_c, 0, 64, 89
2, 43869, Control_c, 0, 64, 101
2, 43886, Control_c, 0, 64, 111
2, 43905, Control_c, 0, 64, 127
2, 43911, Note_on_c, 0, 69, 0
2, 43948, Note_on_c, 0, 72, 0
2, 44080, Note_on_c, 0, 74, 0
2, 44349, Note_on_c, 0, 72, 73
2, 44441, Note_on_c, 0, 72, 0
2, 44532, Note_on_c, 0, 81, 75
2, 44653, Control_c, 0, 64, 95
2, 44674, Control_c, 0, 64, 81
2, 44692, Control_c, 0, 64, 69
2, 44711, Control_c, 0, 64, 62
2, 44729, Control_c, 0, 64, 54
2, 44750, Control_c, 0, 64, 48
2, 44769, Control_c, 0, 64, 45
2, 44787, Control_c, 0, 64, 44
2, 44825, Control_c, 0, 64, 43
2, 44882, Control_c, 0, 64, 45
2, 44903, Control_c, 0, 64, 49
2, 44923, Control_c, 0, 64, 54
2, 44942, Control_c, 0, 64, 61
2, 44959, Control_c, 0, 64, 63
2, 44978, Control_c, 0, 64, 65
2, 45001, Control_c, 0, 64, 67
2, 45019, Control_c, 0, 64, 72
2, 45039, Control_c, 0, 64, 78
2, 45057, Control_c, 0, 64, 86
2, 45075, Control_c, 0, 64, 95
2, 45094, Control_c, 0, 64, 103
2, 45113, Control_c, 0, 64, 111
2, 45135, Control_c, 0, 64, 127
2, 45331, Note_on_c, 0, 72, 59
2, 45485, Note_on_c, 0, 72, 0
2, 45503, Note_on_c, 0, 70, 61
2, 45523, Note_on_c, 0, 62, 45
2, 45557, Control_c, 0, 64, 104
2, 45576, Control_c, 0, 64, 84
2, 45594, Control_c, 0, 64, 69
2, 45613, Control_c, 0, 64, 59
2, 45636, Control_c, 0, 64, 45
2, 45653, Control_c, 0, 64, 34
2, 45670, Control_c, 0, 64, 32
2, 45680, Note_on_c, 0, 57, 0
2, 45748, Control_c, 0, 64, 35
2, 45768, Control_c, 0, 64, 40
2, 45786, Control_c, 0, 64, 46
2, 45806, Control_c, 0, 64, 55
2, 45824, Control_c, 0, 64, 61
2, 45842, Control_c, 0, 64, 62
2, 45863, Control_c, 0, 64, 63
2, 45882, Control_c, 0, 64, 65
2, 45902, Control_c, 0, 64, 69
2, 45921, Control_c, 0, 64, 74
2, 45941, Control_c, 0, 64, 81
2, 45958, Control_c, 0, 64, 87
2, 45978, Control_c, 0, 64, 94
2, 45997, Control_c, 0, 64, 100
2, 46018, Control_c, 0, 64, 106
2, 46036, Control_c, 0, 64, 118
2, 46056, Control_c, 0, 64, 127
2, 46357, Note_on_c, 0, 70, 0
2, 46393, Note_on_c, 0, 69, 46
2, 46517, Control_c, 0, 64, 111
2, 46535, Control_c, 0, 64, 89
2, 46553, Control_c, 0, 64, 73
2, 46575, Control_c, 0, 64, 62
2, 46575, Note_on_c, 0, 70, 47
2, 46579, Note_on_c, 0, 55, 35
2, 46587, Note_on_c, 0, 69, 0
2, 46592, Control_c, 0, 64, 48
2, 46613, Control_c, 0, 64, 34
2, 46633, Control_c, 0, 64, 29
2, 46694, Note_on_c, 0, 54, 0
2, 46726, Control_c, 0, 64, 30
2, 46746, Control_c, 0, 64, 34
2, 46765, Control_c, 0, 64, 38
2, 46784, Control_c, 0, 64, 44
2, 46805, Control_c, 0, 64, 53
2, 46822, Control_c, 0, 64, 59
2, 46842, Control_c, 0, 64, 61
2, 46864, Control_c, 0, 64, 62
2, 46883, Control_c, 0, 64, 63
2, 46902, Control_c, 0, 64, 66
2, 46918, Control_c, 0, 64, 69
2, 46939, Control_c, 0, 64, 74
2, 46959, Control_c, 0, 64, 80
2, 46976, Control_c, 0, 64, 86
2, 46992, Note_on_c, 0, 81, 0
2, 46996, Control_c, 0, 64, 92
2, 47014, Control_c, 0, 64, 99
2, 47034, Control_c, 0, 64, 110
2, 47052, Control_c, 0, 64, 127
2, 47438, Note_on_c, 0, 79, 56
2, 47598, Note_on_c, 0, 67, 57
2, 47607, Note_on_c, 0, 74, 54
2, 47629, Note_on_c, 0, 79, 0
2, 47669, Control_c, 0, 64, 101
2, 47691, Control_c, 0, 64, 82
2, 47705, Control_c, 0, 64, 70
2, 47724, Control_c, 0, 64, 61
2, 47746, Control_c, 0, 64, 53
2, 47765, Control_c, 0, 64, 47
2, 47783, Control_c, 0, 64, 46
2, 47859, Control_c, 0, 64, 45
2, 47866, Note_on_c, 0, 62, 0
2, 47937, Control_c, 0, 64, 44
2, 47995, Control_c, 0, 64, 43
2, 48071, Control_c, 0, 64, 42
2, 48186, Control_c, 0, 64, 41
2, 48245, Control_c, 0, 64, 40
2, 48418, Note_on_c, 0, 77, 56
2, 48428, Note_on_c, 0, 74, 0
2, 48576, Note_on_c, 0, 77, 0
2, 48593, Note_on_c, 0, 75, 55
2, 48609, Control_c, 0, 64, 41
2, 48627, Control_c, 0, 64, 42
2, 48647, Control_c, 0, 64, 44
2, 48665, Control_c, 0, 64, 47
2, 48685, Control_c, 0, 64, 50
2, 48705, Control_c, 0, 64, 54
2, 48723, Control_c, 0, 64, 58
2, 48742, Control_c, 0, 64, 61
2, 48762, Control_c, 0, 64, 62
2, 48782, Control_c, 0, 64, 64
2, 48800, Control_c, 0, 64, 66
2, 48820, Control_c, 0, 64, 70
2, 48839, Control_c, 0, 64, 76
2, 48860, Control_c, 0, 64, 85
2, 48876, Control_c, 0, 64, 97
2, 48895, Control_c, 0, 64, 118
2, 48916, Control_c, 0, 64, 127
2, 48987, Note_on_c, 0, 67, 0
2, 49282, Note_on_c, 0, 67, 55
2, 49452, Note_on_c, 0, 62, 64
2, 49457, Note_on_c, 0, 79, 63
2, 49484, Note_on_c, 0, 75, 0
2, 49568, Control_c, 0, 64, 105
2, 49588, Control_c, 0, 64, 85
2, 49606, Control_c, 0, 64, 70
2, 49626, Control_c, 0, 64, 59
2, 49632, Note_on_c, 0, 67, 0
2, 49649, Control_c, 0, 64, 49
2, 49664, Control_c, 0, 64, 42
2, 49684, Control_c, 0, 64, 41
2, 49722, Control_c, 0, 64, 42
2, 49741, Control_c, 0, 64, 43
2, 49758, Control_c, 0, 64, 46
2, 49780, Control_c, 0, 64, 50
2, 49798, Control_c, 0, 64, 56
2, 49818, Control_c, 0, 64, 60
2, 49836, Control_c, 0, 64, 62
2, 49856, Control_c, 0, 64, 63
2, 49878, Control_c, 0, 64, 65
2, 49893, Control_c, 0, 64, 69
2, 49914, Control_c, 0, 64, 74
2, 49933, Control_c, 0, 64, 81
2, 49952, Control_c, 0, 64, 91
2, 49972, Control_c, 0, 64, 102
2, 49990, Control_c, 0, 64, 111
2, 50012, Control_c, 0, 64, 127
2, 50295, Note_on_c, 0, 65, 68
2, 50432, Note_on_c, 0, 62, 0
2, 50465, Note_on_c, 0, 64, 64
2, 50481, Note_on_c, 0, 69, 56
2, 50481, Note_on_c, 0, 73, 67
2, 50547, Note_on_c, 0, 70, 0
2, 50552, Control_c, 0, 64, 108
2, 50563, Note_on_c, 0, 79, 0
2, 50567, Control_c, 0, 64, 85
2, 50576, Note_on_c, 0, 65, 0
2, 50587, Control_c, 0, 64, 67
2, 50605, Control_c, 0, 64, 55
2, 50623, Control_c, 0, 64, 42
2, 50642, Control_c, 0, 64, 32
2, 50700, Control_c, 0, 64, 35
2, 50721, Control_c, 0, 64, 42
2, 50741, Control_c, 0, 64, 50
2, 50759, Control_c, 0, 64, 59
2, 50778, Control_c, 0, 64, 63
2, 50800, Control_c, 0, 64, 65
2, 50817, Control_c, 0, 64, 67
2, 50835, Control_c, 0, 64, 72
2, 50854, Control_c, 0, 64, 83
2, 50875, Control_c, 0, 64, 98
2, 50895, Control_c, 0, 64, 116
2, 50911, Control_c, 0, 64, 127
2, 50967, Note_on_c, 0, 55, 0
2, 51326, Note_on_c, 0, 57, 68
2, 51429, Note_on_c, 0, 57, 0
2, 51502, Note_on_c, 0, 52, 77
2, 51584, Control_c, 0, 64, 94
2, 51603, Control_c, 0, 64, 72
2, 51622, Control_c, 0, 64, 61
2, 51642, Control_c, 0, 64, 50
2, 51662, Control_c, 0, 64, 49
2, 51680, Control_c, 0, 64, 53
2, 51698, Control_c, 0, 64, 56
2, 51719, Control_c, 0, 64, 57
2, 51737, Control_c, 0, 64, 61
2, 51758, Control_c, 0, 64, 64
2, 51776, Control_c, 0, 64, 67
2, 51795, Control_c, 0, 64, 73
2, 51814, Control_c, 0, 64, 87
2, 51834, Control_c, 0, 64, 113
2, 51852, Control_c, 0, 64, 127
2, 52285, Note_on_c, 0, 55, 75
2, 52304, Note_on_c, 0, 64, 0
2, 52446, Note_on_c, 0, 74, 76
2, 52454, Note_on_c, 0, 53, 76
2, 52458, Note_on_c, 0, 65, 63
2, 52519, Note_on_c, 0, 73, 0
2, 52544, Control_c, 0, 64, 116
2, 52565, Control_c, 0, 64, 83
2, 52565, Note_on_c, 0, 55, 0
2, 52572, Note_on_c, 0, 52, 0
2, 52583, Control_c, 0, 64, 65
2, 52602, Control_c, 0, 64, 51
2, 52620, Control_c, 0, 64, 25
2, 52640, Control_c, 0, 64, 0
2, 52716, Control_c, 0, 64, 25
2, 52735, Control_c, 0, 64, 39
2, 52755, Control_c, 0, 64, 53
2, 52773, Control_c, 0, 64, 62
2, 52793, Control_c, 0, 64, 65
2, 52811, Control_c, 0, 64, 68
2, 52832, Control_c, 0, 64, 74
2, 52852, Control_c, 0, 64, 89
2, 52871, Control_c, 0, 64, 127
2, 52950, Note_on_c, 0, 53, 0
2, 53266, Note_on_c, 0, 50, 72
2, 53319, Note_on_c, 0, 50, 0
2, 53440, Note_on_c, 0, 45, 70
2, 53505, Control_c, 0, 64, 102
2, 53523, Control_c, 0, 64, 81
2, 53543, Control_c, 0, 64, 66
2, 53564, Control_c, 0, 64, 55
2, 53583, Control_c, 0, 64, 40
2, 53599, Control_c, 0, 64, 30
2, 53619, Control_c, 0, 64, 25
2, 53659, Control_c, 0, 64, 27
2, 53677, Control_c, 0, 64, 33
2, 53696, Control_c, 0, 64, 41
2, 53716, Control_c, 0, 64, 48
2, 53733, Control_c, 0, 64, 57
2, 53753, Control_c, 0, 64, 62
2, 53773, Control_c, 0, 64, 63
2, 53795, Control_c, 0, 64, 64
2, 53810, Control_c, 0, 64, 67
2, 53830, Control_c, 0, 64, 72
2, 53850, Control_c, 0, 64, 81
2, 53870, Control_c, 0, 64, 93
2, 53888, Control_c, 0, 64, 106
2, 53906, Control_c, 0, 64, 115
2, 53929, Control_c, 0, 64, 127
2, 53998, Note_on_c, 0, 45, 0
2, 54377, Note_on_c, 0, 48, 59
2, 54437, Note_on_c, 0, 48, 0
2, 54577, Note_on_c, 0, 46, 54
2, 54581, Control_c, 0, 64, 95
2, 54601, Control_c, 0, 64, 81
2, 54617, Control_c, 0, 64, 69
2, 54639, Control_c, 0, 64, 62
2, 54657, Control_c, 0, 64, 54
2, 54677, Control_c, 0, 64, 50
2, 54695, Control_c, 0, 64, 49
2, 54714, Control_c, 0, 64, 47
2, 54734, Control_c, 0, 64, 44
2, 54754, Control_c, 0, 64, 41
2, 54771, Control_c, 0, 64, 38
2, 54791, Control_c, 0, 64, 37
2, 54867, Control_c, 0, 64, 38
2, 54890, Control_c, 0, 64, 41
2, 54907, Control_c, 0, 64, 44
2, 54923, Control_c, 0, 64, 48
2, 54943, Control_c, 0, 64, 51
2, 54965, Control_c, 0, 64, 54
2, 54983, Control_c, 0, 64, 59
2, 55001, Control_c, 0, 64, 62
2, 55021, Control_c, 0, 64, 64
2, 55041, Control_c, 0, 64, 65
2, 55059, Control_c, 0, 64, 68
2, 55079, Control_c, 0, 64, 74
2, 55098, Control_c, 0, 64, 82
2, 55117, Control_c, 0, 64, 96
2, 55137, Control_c, 0, 64, 109
2, 55156, Control_c, 0, 64, 127
2, 55500, Note_on_c, 0, 65, 0
2, 55529, Note_on_c, 0, 64, 49
2, 55650, Note_on_c, 0, 64, 0
2, 55654, Control_c, 0, 64, 106
2, 55677, Control_c, 0, 64, 84
2, 55691, Note_on_c, 0, 65, 42
2, 55695, Control_c, 0, 64, 71
2, 55711, Control_c, 0, 64, 62
2, 55730, Control_c, 0, 64, 53
2, 55751, Control_c, 0, 64, 46
2, 55770, Control_c, 0, 64, 45
2, 55808, Control_c, 0, 64, 47
2, 55827, Control_c, 0, 64, 50
2, 55849, Control_c, 0, 64, 54
2, 55865, Control_c, 0, 64, 57
2, 55885, Control_c, 0, 64, 60
2, 55904, Control_c, 0, 64, 63
2, 55923, Control_c, 0, 64, 66
2, 55941, Control_c, 0, 64, 70
2, 55962, Control_c, 0, 64, 78
2, 55984, Control_c, 0, 64, 90
2, 55999, Control_c, 0, 64, 112
2, 56020, Control_c, 0, 64, 127
2, 56449, Note_on_c, 0, 62, 50
2, 56520, Note_on_c, 0, 65, 0
2, 56593, Note_on_c, 0, 69, 0
2, 56696, Note_on_c, 0, 47, 25
2, 56796, Note_on_c, 0, 62, 0
2, 56805, Note_on_c, 0, 68, 60
2, 56807, Control_c, 0, 64, 120
2, 56813, Note_on_c, 0, 46, 0
2, 56827, Control_c, 0, 64, 95
2, 56845, Control_c, 0, 64, 82
2, 56852, Note_on_c, 0, 68, 0
2, 56863, Control_c, 0, 64, 69
2, 56883, Control_c, 0, 64, 61
2, 56888, Note_on_c, 0, 69, 53
2, 56903, Control_c, 0, 64, 52
2, 56921, Control_c, 0, 64, 45
2, 56941, Control_c, 0, 64, 42
2, 56963, Control_c, 0, 64, 34
2, 56963, Note_on_c, 0, 68, 54
2, 56972, Note_on_c, 0, 69, 0
2, 56978, Control_c, 0, 64, 13
2, 56999, Control_c, 0, 64, 0
2, 57603, Note_on_c, 0, 49, 39
2, 57698, Note_on_c, 0, 49, 0
2, 57729, Control_c, 0, 64, 13
2, 57746, Control_c, 0, 64, 25
2, 57759, Note_on_c, 0, 50, 41
2, 57770, Control_c, 0, 64, 33
2, 57787, Control_c, 0, 64, 42
2, 57804, Control_c, 0, 64, 49
2, 57824, Control_c, 0, 64, 56
2, 57843, Control_c, 0, 64, 61
2, 57863, Control_c, 0, 64, 62
2, 57881, Control_c, 0, 64, 64
2, 57901, Control_c, 0, 64, 68
2, 57919, Control_c, 0, 64, 74
2, 57939, Control_c, 0, 64, 86
2, 57959, Control_c, 0, 64, 104
2, 57977, Control_c, 0, 64, 127
2, 58038, Note_on_c, 0, 68, 0
2, 58217, Note_on_c, 0, 68, 59
2, 58517, Note_on_c, 0, 50, 0
2, 58539, Note_on_c, 0, 52, 62
2, 58573, Note_on_c, 0, 52, 0
2, 58619, Note_on_c, 0, 47, 0
2, 58703, Note_on_c, 0, 69, 62
2, 58723, Note_on_c, 0, 45, 36
2, 58723, Note_on_c, 0, 53, 58
2, 58768, Note_on_c, 0, 68, 0
2, 58822, Control_c, 0, 64, 103
2, 58841, Control_c, 0, 64, 74
2, 58862, Control_c, 0, 64, 61
2, 58880, Control_c, 0, 64, 44
2, 58900, Control_c, 0, 64, 24
2, 58918, Control_c, 0, 64, 17
2, 58957, Control_c, 0, 64, 18
2, 58975, Control_c, 0, 64, 25
2, 58996, Control_c, 0, 64, 35
2, 59015, Control_c, 0, 64, 44
2, 59034, Control_c, 0, 64, 55
2, 59051, Control_c, 0, 64, 61
2, 59071, Control_c, 0, 64, 63
2, 59093, Control_c, 0, 64, 65
2, 59111, Control_c, 0, 64, 70
2, 59131, Control_c, 0, 64, 79
2, 59131, Note_on_c, 0, 74, 0
2, 59148, Control_c, 0, 64, 94
2, 59167, Control_c, 0, 64, 127
2, 59406, Note_on_c, 0, 74, 69
2, 59587, Note_on_c, 0, 70, 75
2, 59587, Note_on_c, 0, 76, 79
2, 59602, Note_on_c, 0, 55, 54
2, 59635, Note_on_c, 0, 74, 0
2, 59679, Note_on_c, 0, 69, 0
2, 59706, Control_c, 0, 64, 102
2, 59723, Control_c, 0, 64, 78
2, 59743, Control_c, 0, 64, 63
2, 59762, Control_c, 0, 64, 50
2, 59783, Control_c, 0, 64, 32
2, 59787, Note_on_c, 0, 53, 0
2, 59801, Control_c, 0, 64, 24
2, 59842, Control_c, 0, 64, 25
2, 59860, Control_c, 0, 64, 30
2, 59878, Control_c, 0, 64, 38
2, 59898, Control_c, 0, 64, 46
2, 59918, Control_c, 0, 64, 56
2, 59935, Control_c, 0, 64, 62
2, 59956, Control_c, 0, 64, 64
2, 59974, Control_c, 0, 64, 66
2, 59994, Control_c, 0, 64, 69
2, 60011, Control_c, 0, 64, 76
2, 60031, Control_c, 0, 64, 86
2, 60052, Control_c, 0, 64, 100
2, 60069, Control_c, 0, 64, 116
2, 60089, Control_c, 0, 64, 127
2, 60375, Note_on_c, 0, 76, 0
2, 60380, Note_on_c, 0, 79, 75
2, 60564, Note_on_c, 0, 73, 67
2, 60573, Control_c, 0, 64, 90
2, 60573, Note_on_c, 0, 79, 0
2, 60582, Note_on_c, 0, 57, 43
2, 60588, Control_c, 0, 64, 71
2, 60608, Control_c, 0, 64, 60
2, 60627, Control_c, 0, 64, 42
2, 60638, Note_on_c, 0, 55, 0
2, 60650, Control_c, 0, 64, 28
2, 60663, Control_c, 0, 64, 25
2, 60741, Control_c, 0, 64, 28
2, 60763, Control_c, 0, 64, 36
2, 60780, Control_c, 0, 64, 44
2, 60800, Control_c, 0, 64, 53
2, 60818, Control_c, 0, 64, 60
2, 60840, Control_c, 0, 64, 62
2, 60875, Control_c, 0, 64, 64
2, 60895, Control_c, 0, 64, 66
2, 60915, Control_c, 0, 64, 72
2, 60935, Control_c, 0, 64, 79
2, 60953, Control_c, 0, 64, 87
2, 60973, Control_c, 0, 64, 94
2, 60991, Control_c, 0, 64, 100
2, 61011, Control_c, 0, 64, 109
2, 61029, Control_c, 0, 64, 127
2, 61093, Note_on_c, 0, 70, 0
2, 61331, Note_on_c, 0, 74, 54
2, 61336, Note_on_c, 0, 69, 48
2, 61419, Note_on_c, 0, 73, 0
2, 61483, Note_on_c, 0, 69, 0
2, 61492, Control_c, 0, 64, 106
2, 61509, Control_c, 0, 64, 86
2, 61522, Note_on_c, 0, 76, 58
2, 61523, Note_on_c, 0, 74, 0
2, 61527, Note_on_c, 0, 64, 48
2, 61531, Control_c, 0, 64, 71
2, 61536, Note_on_c, 0, 49, 33
2, 61550, Control_c, 0, 64, 60
2, 61568, Control_c, 0, 64, 47
2, 61589, Control_c, 0, 64, 30
2, 61606, Control_c, 0, 64, 22
2, 61632, Note_on_c, 0, 57, 0
2, 61647, Note_on_c, 0, 45, 0
2, 61703, Control_c, 0, 64, 23
2, 61721, Control_c, 0, 64, 28
2, 61741, Control_c, 0, 64, 35
2, 61759, Control_c, 0, 64, 42
2, 61780, Control_c, 0, 64, 50
2, 61799, Control_c, 0, 64, 58
2, 61819, Control_c, 0, 64, 61
2, 61839, Control_c, 0, 64, 62
2, 61854, Control_c, 0, 64, 63
2, 61874, Control_c, 0, 64, 66
2, 61895, Control_c, 0, 64, 70
2, 61913, Control_c, 0, 64, 76
2, 61932, Control_c, 0, 64, 83
2, 61955, Control_c, 0, 64, 89
2, 61972, Control_c, 0, 64, 94
2, 61994, Control_c, 0, 64, 97
2, 62010, Control_c, 0, 64, 101
2, 62029, Control_c, 0, 64, 109
2, 62047, Control_c, 0, 64, 127
2, 62286, Note_on_c, 0, 64, 0
2, 62293, Note_on_c, 0, 67, 49
2, 62418, Control_c, 0, 64, 122
2, 62418, Note_on_c, 0, 67, 0
2, 62432, Control_c, 0, 64, 97
2, 62452, Control_c, 0, 64, 81
2, 62464, Note_on_c, 0, 50, 40
2, 62471, Control_c, 0, 64, 68
2, 62473, Note_on_c, 0, 65, 42
2, 62490, Control_c, 0, 64, 58
2, 62510, Control_c, 0, 64, 45
2, 62528, Control_c, 0, 64, 33
2, 62547, Control_c, 0, 64, 28
2, 62569, Note_on_c, 0, 49, 0
2, 62642, Control_c, 0, 64, 30
2, 62662, Control_c, 0, 64, 35
2, 62685, Control_c, 0, 64, 39
2, 62702, Control_c, 0, 64, 48
2, 62719, Control_c, 0, 64, 57
2, 62738, Control_c, 0, 64, 61
2, 62759, Control_c, 0, 64, 62
2, 62777, Control_c, 0, 64, 63
2, 62795, Control_c, 0, 64, 66
2, 62815, Control_c, 0, 64, 70
2, 62836, Control_c, 0, 64, 79
2, 62855, Control_c, 0, 64, 88
2, 62871, Note_on_c, 0, 76, 0
2, 62875, Control_c, 0, 64, 95
2, 62893, Control_c, 0, 64, 101
2, 62911, Control_c, 0, 64, 109
2, 62933, Control_c, 0, 64, 127
2, 63279, Note_on_c, 0, 74, 49
2, 63432, Note_on_c, 0, 74, 0
2, 63458, Note_on_c, 0, 69, 55
2, 63467, Note_on_c, 0, 53, 37
2, 63490, Control_c, 0, 64, 108
2, 63506, Control_c, 0, 64, 87
2, 63525, Control_c, 0, 64, 70
2, 63545, Control_c, 0, 64, 60
2, 63565, Control_c, 0, 64, 49
2, 63583, Control_c, 0, 64, 39
2, 63602, Control_c, 0, 64, 34
2, 63644, Control_c, 0, 64, 35
2, 63662, Control_c, 0, 64, 36
2, 63681, Control_c, 0, 64, 41
2, 63699, Control_c, 0, 64, 46
2, 63717, Control_c, 0, 64, 53
2, 63738, Control_c, 0, 64, 60
2, 63759, Control_c, 0, 64, 62
2, 63774, Control_c, 0, 64, 63
2, 63794, Control_c, 0, 64, 64
2, 63815, Control_c, 0, 64, 66
2, 63834, Control_c, 0, 64, 70
2, 63852, Control_c, 0, 64, 76
2, 63872, Control_c, 0, 64, 83
2, 63890, Control_c, 0, 64, 90
2, 63912, Control_c, 0, 64, 96
2, 63928, Control_c, 0, 64, 103
2, 63948, Control_c, 0, 64, 109
2, 63968, Control_c, 0, 64, 127
2, 64060, Note_on_c, 0, 69, 0
2, 64283, Note_on_c, 0, 72, 58
2, 64450, Note_on_c, 0, 70, 55
2, 64460, Note_on_c, 0, 72, 0
2, 64467, Control_c, 0, 64, 105
2, 64485, Control_c, 0, 64, 81
2, 64506, Control_c, 0, 64, 67
2, 64526, Control_c, 0, 64, 56
2, 64544, Control_c, 0, 64, 42
2, 64562, Control_c, 0, 64, 31
2, 64581, Control_c, 0, 64, 29
2, 64603, Control_c, 0, 64, 30
2, 64622, Control_c, 0, 64, 32
2, 64640, Control_c, 0, 64, 37
2, 64660, Control_c, 0, 64, 43
2, 64681, Control_c, 0, 64, 51
2, 64697, Control_c, 0, 64, 60
2, 64716, Control_c, 0, 64, 62
2, 64735, Control_c, 0, 64, 63
2, 64757, Control_c, 0, 64, 64
2, 64773, Control_c, 0, 64, 67
2, 64793, Control_c, 0, 64, 71
2, 64815, Control_c, 0, 64, 77
2, 64830, Control_c, 0, 64, 83
2, 64839, Note_on_c, 0, 65, 0
2, 64851, Control_c, 0, 64, 89
2, 64870, Control_c, 0, 64, 93
2, 64889, Control_c, 0, 64, 98
2, 64907, Control_c, 0, 64, 103
2, 64928, Control_c, 0, 64, 113
2, 64946, Control_c, 0, 64, 127
2, 65247, Note_on_c, 0, 65, 49
2, 65254, Note_on_c, 0, 57, 38
2, 65409, Note_on_c, 0, 64, 55
2, 65429, Control_c, 0, 64, 110
2, 65434, Note_on_c, 0, 55, 51
2, 65440, Note_on_c, 0, 65, 0
2, 65446, Control_c, 0, 64, 90
2, 65465, Control_c, 0, 64, 76
2, 65485, Control_c, 0, 64, 65
2, 65500, Note_on_c, 0, 57, 0
2, 65507, Control_c, 0, 64, 56
2, 65522, Control_c, 0, 64, 46
2, 65542, Control_c, 0, 64, 39
2, 65561, Note_on_c, 0, 53, 0
2, 65565, Control_c, 0, 64, 37
2, 65600, Control_c, 0, 64, 36
2, 65676, Control_c, 0, 64, 37
2, 65698, Control_c, 0, 64, 40
2, 65716, Control_c, 0, 64, 44
2, 65734, Control_c, 0, 64, 49
2, 65752, Control_c, 0, 64, 56
2, 65772, Control_c, 0, 64, 61
2, 65795, Control_c, 0, 64, 62
2, 65810, Control_c, 0, 64, 63
2, 65828, Control_c, 0, 64, 65
2, 65849, Control_c, 0, 64, 67
2, 65868, Control_c, 0, 64, 72
2, 65888, Control_c, 0, 64, 78
2, 65908, Control_c, 0, 64, 85
2, 65927, Control_c, 0, 64, 91
2, 65946, Control_c, 0, 64, 97
2, 65966, Control_c, 0, 64, 104
2, 65984, Control_c, 0, 64, 116
2, 66002, Control_c, 0, 64, 127
2, 66147, Note_on_c, 0, 64, 0
2, 66175, Note_on_c, 0, 53, 41
2, 66178, Note_on_c, 0, 67, 55
2, 66216, Note_on_c, 0, 55, 0
2, 66318, Note_on_c, 0, 67, 0
2, 66329, Note_on_c, 0, 53, 0
2, 66334, Control_c, 0, 64, 93
2, 66350, Control_c, 0, 64, 73
2, 66359, Note_on_c, 0, 61, 47
2, 66370, Control_c, 0, 64, 60
2, 66370, Note_on_c, 0, 52, 44
2, 66388, Control_c, 0, 64, 44
2, 66405, Control_c, 0, 64, 21
2, 66425, Control_c, 0, 64, 16
2, 66504, Control_c, 0, 64, 22
2, 66520, Control_c, 0, 64, 31
2, 66541, Control_c, 0, 64, 39
2, 66560, Control_c, 0, 64, 51
2, 66578, Control_c, 0, 64, 60
2, 66598, Control_c, 0, 64, 63
2, 66618, Control_c, 0, 64, 64
2, 66636, Control_c, 0, 64, 66
2, 66655, Control_c, 0, 64, 70
2, 66674, Control_c, 0, 64, 79
2, 66696, Control_c, 0, 64, 94
2, 66712, Control_c, 0, 64, 108
2, 66731, Control_c, 0, 64, 127
2, 66787, Note_on_c, 0, 61, 0
2, 66787, Note_on_c, 0, 61, 14
2, 66800, Note_on_c, 0, 70, 0
2, 67084, Note_on_c, 0, 70, 57
2, 67266, Note_on_c, 0, 69, 58
2, 67309, Control_c, 0, 64, 91
2, 67323, Note_on_c, 0, 52, 0
2, 67329, Control_c, 0, 64, 72
2, 67338, Note_on_c, 0, 53, 48
2, 67349, Control_c, 0, 64, 61
2, 67365, Control_c, 0, 64, 45
2, 67381, Note_on_c, 0, 70, 0
2, 67385, Control_c, 0, 64, 34
2, 67404, Control_c, 0, 64, 32
2, 67442, Control_c, 0, 64, 34
2, 67462, Control_c, 0, 64, 36
2, 67480, Control_c, 0, 64, 40
2, 67499, Control_c, 0, 64, 45
2, 67519, Control_c, 0, 64, 51
2, 67539, Control_c, 0, 64, 57
2, 67559, Control_c, 0, 64, 61
2, 67577, Control_c, 0, 64, 62
2, 67597, Control_c, 0, 64, 63
2, 67617, Control_c, 0, 64, 65
2, 67635, Control_c, 0, 64, 68
2, 67654, Control_c, 0, 64, 76
2, 67676, Control_c, 0, 64, 86
2, 67694, Control_c, 0, 64, 97
2, 67711, Control_c, 0, 64, 109
2, 67730, Control_c, 0, 64, 127
2, 68017, Note_on_c, 0, 69, 0
2, 68116, Note_on_c, 0, 67, 61
2, 68298, Note_on_c, 0, 55, 41
2, 68302, Note_on_c, 0, 76, 74
2, 68383, Control_c, 0, 64, 106
2, 68403, Control_c, 0, 64, 88
2, 68422, Control_c, 0, 64, 74
2, 68440, Control_c, 0, 64, 64
2, 68458, Control_c, 0, 64, 55
2, 68481, Control_c, 0, 64, 42
2, 68485, Note_on_c, 0, 53, 0
2, 68501, Control_c, 0, 64, 35
2, 68519, Control_c, 0, 64, 32
2, 68539, Control_c, 0, 64, 31
2, 68543, Note_on_c, 0, 67, 0
2, 68576, Control_c, 0, 64, 32
2, 68594, Control_c, 0, 64, 36
2, 68614, Control_c, 0, 64, 44
2, 68634, Control_c, 0, 64, 50
2, 68654, Control_c, 0, 64, 58
2, 68672, Control_c, 0, 64, 63
2, 68690, Control_c, 0, 64, 65
2, 68711, Control_c, 0, 64, 69
2, 68730, Control_c, 0, 64, 76
2, 68743, Note_on_c, 0, 76, 0
2, 68748, Control_c, 0, 64, 96
2, 68768, Control_c, 0, 64, 127
2, 69075, Note_on_c, 0, 67, 59
2, 69243, Note_on_c, 0, 66, 67
2, 69254, Note_on_c, 0, 58, 45
2, 69301, Note_on_c, 0, 67, 0
2, 69306, Control_c, 0, 64, 109
2, 69323, Control_c, 0, 64, 88
2, 69345, Control_c, 0, 64, 73
2, 69364, Control_c, 0, 64, 62
2, 69384, Control_c, 0, 64, 51
2, 69401, Control_c, 0, 64, 40
2, 69421, Control_c, 0, 64, 35
2, 69441, Control_c, 0, 64, 32
2, 69455, Note_on_c, 0, 61, 0
2, 69479, Control_c, 0, 64, 34
2, 69496, Control_c, 0, 64, 39
2, 69516, Note_on_c, 0, 55, 0
2, 69521, Control_c, 0, 64, 45
2, 69534, Control_c, 0, 64, 52
2, 69556, Control_c, 0, 64, 59
2, 69573, Control_c, 0, 64, 63
2, 69593, Control_c, 0, 64, 65
2, 69611, Control_c, 0, 64, 68
2, 69631, Control_c, 0, 64, 74
2, 69651, Control_c, 0, 64, 87
2, 69671, Control_c, 0, 64, 113
2, 69691, Control_c, 0, 64, 127
2, 69735, Note_on_c, 0, 58, 0
2, 69823, Note_on_c, 0, 50, 0
2, 69927, Note_on_c, 0, 66, 0
2, 70145, Note_on_c, 0, 64, 54
2, 70339, Note_on_c, 0, 66, 61
2, 70377, Note_on_c, 0, 48, 26
2, 70381, Note_on_c, 0, 57, 31
2, 70383, Note_on_c, 0, 62, 40
2, 70520, Note_on_c, 0, 64, 0
2, 70534, Control_c, 0, 64, 97
2, 70554, Control_c, 0, 64, 81
2, 70570, Control_c, 0, 64, 70
2, 70593, Control_c, 0, 64, 62
2, 70611, Control_c, 0, 64, 55
2, 70629, Control_c, 0, 64, 50
2, 70648, Control_c, 0, 64, 46
2, 70670, Control_c, 0, 64, 41
2, 70687, Control_c, 0, 64, 30
2, 70706, Control_c, 0, 64, 0
2, 70840, Control_c, 0, 64, 18
2, 70860, Control_c, 0, 64, 34
2, 70880, Control_c, 0, 64, 49
2, 70900, Control_c, 0, 64, 58
2, 70917, Control_c, 0, 64, 61
2, 70956, Control_c, 0, 64, 64
2, 70976, Control_c, 0, 64, 66
2, 70994, Control_c, 0, 64, 70
2, 71014, Control_c, 0, 64, 74
2, 71032, Control_c, 0, 64, 78
2, 71054, Control_c, 0, 64, 80
2, 71070, Control_c, 0, 64, 81
2, 71156, Note_on_c, 0, 67, 57
2, 71187, Note_on_c, 0, 66, 0
2, 71207, Control_c, 0, 64, 80
2, 71227, Control_c, 0, 64, 79
2, 71245, Control_c, 0, 64, 78
2, 71265, Control_c, 0, 64, 75
2, 71283, Control_c, 0, 64, 71
2, 71303, Control_c, 0, 64, 66
2, 71321, Control_c, 0, 64, 59
2, 71330, Note_on_c, 0, 67, 0
2, 71330, Note_on_c, 0, 69, 52
2, 71341, Control_c, 0, 64, 50
2, 71359, Control_c, 0, 64, 37
2, 71377, Control_c, 0, 64, 30
2, 71397, Control_c, 0, 64, 28
2, 71435, Control_c, 0, 64, 27
2, 71493, Control_c, 0, 64, 29
2, 71512, Control_c, 0, 64, 35
2, 71534, Control_c, 0, 64, 43
2, 71552, Control_c, 0, 64, 50
2, 71571, Control_c, 0, 64, 59
2, 71589, Control_c, 0, 64, 63
2, 71610, Control_c, 0, 64, 64
2, 71629, Control_c, 0, 64, 65
2, 71647, Control_c, 0, 64, 70
2, 71666, Control_c, 0, 64, 78
2, 71686, Control_c, 0, 64, 91
2, 71705, Control_c, 0, 64, 107
2, 71723, Control_c, 0, 64, 127
2, 71732, Note_on_c, 0, 54, 60
2, 71811, Note_on_c, 0, 48, 0
2, 71847, Note_on_c, 0, 62, 0
2, 71851, Note_on_c, 0, 57, 0
2, 71856, Note_on_c, 0, 54, 0
2, 72179, Note_on_c, 0, 50, 59
2, 72189, Note_on_c, 0, 46, 57
2, 72417, Control_c, 0, 64, 99
2, 72434, Control_c, 0, 64, 74
2, 72455, Control_c, 0, 64, 60
2, 72472, Control_c, 0, 64, 39
2, 72493, Control_c, 0, 64, 26
2, 72511, Control_c, 0, 64, 35
2, 72531, Control_c, 0, 64, 45
2, 72551, Control_c, 0, 64, 58
2, 72570, Control_c, 0, 64, 66
2, 72588, Control_c, 0, 64, 71
2, 72606, Control_c, 0, 64, 82
2, 72626, Control_c, 0, 64, 98
2, 72646, Control_c, 0, 64, 127
2, 72668, Note_on_c, 0, 69, 0
2, 72925, Note_on_c, 0, 62, 70
2, 73035, Note_on_c, 0, 62, 0
2, 73096, Note_on_c, 0, 58, 60
2, 73096, Note_on_c, 0, 67, 73
2, 73245, Control_c, 0, 64, 86
2, 73263, Control_c, 0, 64, 66
2, 73283, Control_c, 0, 64, 52
2, 73303, Control_c, 0, 64, 27
2, 73321, Control_c, 0, 64, 26
2, 73341, Control_c, 0, 64, 35
2, 73359, Control_c, 0, 64, 46
2, 73380, Control_c, 0, 64, 58
2, 73400, Control_c, 0, 64, 65
2, 73418, Control_c, 0, 64, 69
2, 73439, Control_c, 0, 64, 79
2, 73457, Control_c, 0, 64, 93
2, 73475, Control_c, 0, 64, 127
2, 73590, Note_on_c, 0, 50, 0
2, 73724, Note_on_c, 0, 58, 0
2, 73738, Note_on_c, 0, 46, 0
2, 73880, Note_on_c, 0, 70, 76
2, 74043, Note_on_c, 0, 51, 54
2, 74048, Note_on_c, 0, 72, 71
2, 74058, Note_on_c, 0, 45, 45
2, 74067, Note_on_c, 0, 70, 0
2, 74147, Control_c, 0, 64, 116
2, 74165, Control_c, 0, 64, 82
2, 74186, Control_c, 0, 64, 65
2, 74204, Control_c, 0, 64, 51
2, 74223, Control_c, 0, 64, 31
2, 74245, Control_c, 0, 64, 14
2, 74281, Control_c, 0, 64, 18
2, 74299, Control_c, 0, 64, 26
2, 74319, Control_c, 0, 64, 36
2, 74337, Control_c, 0, 64, 47
2, 74360, Control_c, 0, 64, 60
2, 74378, Control_c, 0, 64, 65
2, 74395, Control_c, 0, 64, 70
2, 74415, Control_c, 0, 64, 75
2, 74433, Control_c, 0, 64, 83
2, 74453, Control_c, 0, 64, 93
2, 74476, Control_c, 0, 64, 106
2, 74476, Note_on_c, 0, 67, 0
2, 74491, Control_c, 0, 64, 127
2, 74726, Note_on_c, 0, 67, 73
2, 74897, Note_on_c, 0, 66, 78
2, 74908, Note_on_c, 0, 48, 53
2, 74945, Note_on_c, 0, 67, 0
2, 75031, Control_c, 0, 64, 97
2, 75050, Control_c, 0, 64, 76
2, 75068, Control_c, 0, 64, 63
2, 75088, Control_c, 0, 64, 47
2, 75108, Control_c, 0, 64, 27
2, 75126, Control_c, 0, 64, 15
2, 75184, Control_c, 0, 64, 18
2, 75189, Note_on_c, 0, 51, 0
2, 75202, Control_c, 0, 64, 27
2, 75222, Control_c, 0, 64, 38
2, 75240, Control_c, 0, 64, 50
2, 75260, Control_c, 0, 64, 60
2, 75280, Control_c, 0, 64, 63
2, 75300, Control_c, 0, 64, 64
2, 75317, Control_c, 0, 64, 66
2, 75338, Control_c, 0, 64, 70
2, 75357, Control_c, 0, 64, 78
2, 75375, Control_c, 0, 64, 88
2, 75393, Control_c, 0, 64, 99
2, 75413, Control_c, 0, 64, 112
2, 75435, Control_c, 0, 64, 127
2, 75676, Note_on_c, 0, 64, 73
2, 75685, Note_on_c, 0, 66, 0
2, 75841, Note_on_c, 0, 64, 0
2, 75868, Note_on_c, 0, 50, 46
2, 75875, Note_on_c, 0, 66, 59
2, 75895, Control_c, 0, 64, 115
2, 75913, Control_c, 0, 64, 86
2, 75933, Control_c, 0, 64, 70
2, 75951, Control_c, 0, 64, 59
2, 75971, Control_c, 0, 64, 45
2, 75977, Note_on_c, 0, 48, 0
2, 75993, Control_c, 0, 64, 31
2, 76005, Note_on_c, 0, 45, 0
2, 76009, Control_c, 0, 64, 25
2, 76066, Control_c, 0, 64, 26
2, 76084, Control_c, 0, 64, 29
2, 76103, Control_c, 0, 64, 35
2, 76125, Control_c, 0, 64, 42
2, 76143, Control_c, 0, 64, 50
2, 76164, Control_c, 0, 64, 59
2, 76182, Control_c, 0, 64, 63
2, 76200, Control_c, 0, 64, 64
2, 76219, Control_c, 0, 64, 65
2, 76238, Control_c, 0, 64, 68
2, 76260, Control_c, 0, 64, 74
2, 76277, Control_c, 0, 64, 85
2, 76296, Control_c, 0, 64, 97
2, 76316, Control_c, 0, 64, 108
2, 76337, Control_c, 0, 64, 118
2, 76357, Control_c, 0, 64, 127
2, 76612, Note_on_c, 0, 74, 60
2, 76724, Note_on_c, 0, 72, 0
2, 76759, Control_c, 0, 64, 120
2, 76768, Note_on_c, 0, 38, 39
2, 76777, Control_c, 0, 64, 93
2, 76784, Note_on_c, 0, 69, 60
2, 76794, Note_on_c, 0, 74, 0
2, 76798, Control_c, 0, 64, 75
2, 76814, Control_c, 0, 64, 63
2, 76834, Control_c, 0, 64, 52
2, 76854, Control_c, 0, 64, 39
2, 76875, Control_c, 0, 64, 31
2, 76930, Control_c, 0, 64, 32
2, 76950, Control_c, 0, 64, 36
2, 76968, Control_c, 0, 64, 42
2, 76988, Control_c, 0, 64, 49
2, 77010, Control_c, 0, 64, 59
2, 77028, Control_c, 0, 64, 62
2, 77045, Control_c, 0, 64, 63
2, 77064, Control_c, 0, 64, 64
2, 77084, Control_c, 0, 64, 67
2, 77106, Control_c, 0, 64, 73
2, 77121, Control_c, 0, 64, 82
2, 77144, Control_c, 0, 64, 94
2, 77159, Control_c, 0, 64, 105
2, 77182, Control_c, 0, 64, 113
2, 77199, Control_c, 0, 64, 127
2, 77550, Note_on_c, 0, 69, 0
2, 77577, Note_on_c, 0, 72, 61
2, 77716, Control_c, 0, 64, 106
2, 77736, Control_c, 0, 64, 83
2, 77756, Note_on_c, 0, 72, 0
2, 77761, Control_c, 0, 64, 68
2, 77761, Note_on_c, 0, 43, 40
2, 77761, Note_on_c, 0, 70, 56
2, 77775, Control_c, 0, 64, 58
2, 77780, Note_on_c, 0, 38, 0
2, 77792, Control_c, 0, 64, 46
2, 77811, Control_c, 0, 64, 35
2, 77830, Control_c, 0, 64, 30
2, 77867, Control_c, 0, 64, 29
2, 77926, Control_c, 0, 64, 30
2, 77943, Control_c, 0, 64, 35
2, 77965, Control_c, 0, 64, 41
2, 77983, Control_c, 0, 64, 48
2, 78001, Control_c, 0, 64, 57
2, 78021, Control_c, 0, 64, 62
2, 78027, Note_on_c, 0, 66, 0
2, 78041, Control_c, 0, 64, 63
2, 78060, Control_c, 0, 64, 64
2, 78080, Control_c, 0, 64, 66
2, 78098, Control_c, 0, 64, 70
2, 78118, Control_c, 0, 64, 78
2, 78139, Control_c, 0, 64, 88
2, 78157, Control_c, 0, 64, 100
2, 78175, Control_c, 0, 64, 110
2, 78193, Control_c, 0, 64, 127
2, 78289, Note_on_c, 0, 50, 0
2, 78513, Note_on_c, 0, 67, 46
2, 78632, Note_on_c, 0, 67, 0
2, 78694, Note_on_c, 0, 62, 47
2, 78699, Control_c, 0, 64, 115
2, 78703, Note_on_c, 0, 46, 37
2, 78712, Control_c, 0, 64, 91
2, 78732, Control_c, 0, 64, 74
2, 78753, Control_c, 0, 64, 63
2, 78770, Control_c, 0, 64, 51
2, 78789, Control_c, 0, 64, 41
2, 78808, Control_c, 0, 64, 38
2, 78827, Control_c, 0, 64, 39
2, 78847, Control_c, 0, 64, 43
2, 78866, Control_c, 0, 64, 47
2, 78885, Control_c, 0, 64, 53
2, 78905, Control_c, 0, 64, 59
2, 78923, Control_c, 0, 64, 62
2, 78943, Control_c, 0, 64, 64
2, 78963, Control_c, 0, 64, 66
2, 78983, Control_c, 0, 64, 69
2, 79001, Control_c, 0, 64, 74
2, 79019, Control_c, 0, 64, 80
2, 79040, Control_c, 0, 64, 88
2, 79059, Control_c, 0, 64, 95
2, 79079, Control_c, 0, 64, 100
2, 79097, Control_c, 0, 64, 103
2, 79115, Control_c, 0, 64, 106
2, 79135, Control_c, 0, 64, 112
2, 79157, Control_c, 0, 64, 122
2, 79173, Control_c, 0, 64, 127
2, 79450, Note_on_c, 0, 62, 0
2, 79508, Note_on_c, 0, 43, 0
2, 79510, Note_on_c, 0, 65, 40
2, 79522, Control_c, 0, 64, 122
2, 79522, Note_on_c, 0, 50, 37
2, 79537, Control_c, 0, 64, 106
2, 79557, Control_c, 0, 64, 93
2, 79577, Control_c, 0, 64, 79
2, 79595, Control_c, 0, 64, 67
2, 79615, Control_c, 0, 64, 58
2, 79635, Control_c, 0, 64, 44
2, 79648, Note_on_c, 0, 46, 0
2, 79657, Control_c, 0, 64, 34
2, 79657, Note_on_c, 0, 65, 0
2, 79674, Control_c, 0, 64, 28
2, 79692, Control_c, 0, 64, 27
2, 79710, Control_c, 0, 64, 26
2, 79726, Note_on_c, 0, 63, 35
2, 79730, Control_c, 0, 64, 25
2, 79735, Note_on_c, 0, 50, 0
2, 79752, Note_on_c, 0, 55, 27
2, 79768, Control_c, 0, 64, 26
2, 79788, Control_c, 0, 64, 29
2, 79807, Control_c, 0, 64, 33
2, 79827, Control_c, 0, 64, 37
2, 79846, Control_c, 0, 64, 42
2, 79864, Control_c, 0, 64, 48
2, 79883, Control_c, 0, 64, 56
2, 79904, Control_c, 0, 64, 60
2, 79924, Control_c, 0, 64, 62
2, 79941, Control_c, 0, 64, 63
2, 79961, Control_c, 0, 64, 65
2, 79981, Control_c, 0, 64, 69
2, 79993, Note_on_c, 0, 70, 0
2, 80002, Control_c, 0, 64, 76
2, 80018, Control_c, 0, 64, 87
2, 80036, Control_c, 0, 64, 104
2, 80057, Control_c, 0, 64, 127
2, 80559, Note_on_c, 0, 70, 45
2, 80683, Note_on_c, 0, 63, 0
2, 80761, Note_on_c, 0, 75, 53
2, 80765, Note_on_c, 0, 58, 26
2, 80810, Note_on_c, 0, 70, 0
2, 81042, Note_on_c, 0, 75, 0
2, 81517, Note_on_c, 0, 79, 53
2, 81576, Note_on_c, 0, 79, 0
2, 81708, Note_on_c, 0, 68, 53
2, 81727, Control_c, 0, 64, 103
2, 81747, Control_c, 0, 64, 80
2, 81747, Note_on_c, 0, 60, 34
2, 81765, Control_c, 0, 64, 66
2, 81784, Control_c, 0, 64, 55
2, 81806, Control_c, 0, 64, 44
2, 81822, Control_c, 0, 64, 43
2, 81844, Control_c, 0, 64, 46
2, 81861, Control_c, 0, 64, 47
2, 81882, Control_c, 0, 64, 49
2, 81902, Control_c, 0, 64, 53
2, 81902, Note_on_c, 0, 58, 0
2, 81917, Control_c, 0, 64, 59
2, 81938, Control_c, 0, 64, 63
2, 81958, Control_c, 0, 64, 66
2, 81975, Control_c, 0, 64, 68
2, 81996, Control_c, 0, 64, 73
2, 82016, Control_c, 0, 64, 81
2, 82035, Control_c, 0, 64, 93
2, 82053, Control_c, 0, 64, 108
2, 82072, Control_c, 0, 64, 127
2, 82100, Note_on_c, 0, 55, 0
2, 82497, Note_on_c, 0, 53, 37
2, 82511, Note_on_c, 0, 62, 43
2, 82630, Control_c, 0, 64, 115
2, 82648, Control_c, 0, 64, 90
2, 82668, Control_c, 0, 64, 76
2, 82678, Note_on_c, 0, 62, 0
2, 82687, Control_c, 0, 64, 66
2, 82696, Note_on_c, 0, 63, 50
2, 82701, Note_on_c, 0, 48, 43
2, 82706, Control_c, 0, 64, 58
2, 82724, Control_c, 0, 64, 49
2, 82728, Note_on_c, 0, 53, 0
2, 82744, Control_c, 0, 64, 43
2, 82763, Control_c, 0, 64, 42
2, 82815, Note_on_c, 0, 60, 0
2, 82860, Control_c, 0, 64, 45
2, 82879, Control_c, 0, 64, 49
2, 82899, Control_c, 0, 64, 53
2, 82916, Control_c, 0, 64, 58
2, 82939, Control_c, 0, 64, 62
2, 82957, Control_c, 0, 64, 64
2, 82976, Control_c, 0, 64, 67
2, 82995, Control_c, 0, 64, 71
2, 83015, Control_c, 0, 64, 79
2, 83032, Control_c, 0, 64, 93
2, 83052, Control_c, 0, 64, 122
2, 83070, Control_c, 0, 64, 127
2, 83426, Note_on_c, 0, 63, 0
2, 83456, Note_on_c, 0, 60, 51
2, 83462, Note_on_c, 0, 51, 59
2, 83524, Note_on_c, 0, 48, 0
2, 83696, Note_on_c, 0, 50, 61
2, 83722, Note_on_c, 0, 60, 0
2, 83747, Note_on_c, 0, 65, 59
2, 83803, Note_on_c, 0, 51, 0
2, 83839, Note_on_c, 0, 65, 0
2, 83841, Control_c, 0, 64, 100
2, 83856, Note_on_c, 0, 63, 63
2, 83861, Control_c, 0, 64, 76
2, 83877, Control_c, 0, 64, 63
2, 83897, Control_c, 0, 64, 45
2, 83917, Control_c, 0, 64, 21
2, 83937, Note_on_c, 0, 63, 0
2, 83937, Note_on_c, 0, 65, 50
2, 83941, Control_c, 0, 64, 0
2, 84521, Note_on_c, 0, 46, 56
2, 84557, Note_on_c, 0, 50, 0
2, 84649, Note_on_c, 0, 46, 0
2, 84707, Note_on_c, 0, 41, 49
2, 84818, Control_c, 0, 64, 30
2, 84838, Control_c, 0, 64, 46
2, 84856, Control_c, 0, 64, 60
2, 84876, Control_c, 0, 64, 62
2, 84893, Control_c, 0, 64, 63
2, 84913, Control_c, 0, 64, 66
2, 84933, Control_c, 0, 64, 72
2, 84953, Control_c, 0, 64, 88
2, 84971, Control_c, 0, 64, 127
2, 85032, Note_on_c, 0, 65, 0
2, 85195, Note_on_c, 0, 65, 57
2, 85516, Note_on_c, 0, 41, 0
2, 85527, Note_on_c, 0, 44, 55
2, 85710, Note_on_c, 0, 43, 46
2, 85721, Control_c, 0, 64, 95
2, 85721, Note_on_c, 0, 58, 47
2, 85741, Control_c, 0, 64, 79
2, 85745, Note_on_c, 0, 44, 0
2, 85760, Control_c, 0, 64, 66
2, 85760, Note_on_c, 0, 65, 0
2, 85778, Control_c, 0, 64, 57
2, 85797, Control_c, 0, 64, 48
2, 85817, Control_c, 0, 64, 42
2, 85838, Control_c, 0, 64, 40
2, 85854, Control_c, 0, 64, 39
2, 85876, Control_c, 0, 64, 38
2, 85932, Control_c, 0, 64, 39
2, 85952, Control_c, 0, 64, 43
2, 85970, Control_c, 0, 64, 47
2, 85991, Control_c, 0, 64, 51
2, 86008, Control_c, 0, 64, 54
2, 86028, Control_c, 0, 64, 59
2, 86047, Control_c, 0, 64, 62
2, 86065, Control_c, 0, 64, 64
2, 86086, Control_c, 0, 64, 67
2, 86103, Control_c, 0, 64, 72
2, 86123, Control_c, 0, 64, 81
2, 86142, Control_c, 0, 64, 95
2, 86163, Control_c, 0, 64, 127
2, 86499, Note_on_c, 0, 62, 54
2, 86676, Note_on_c, 0, 65, 56
2, 86698, Note_on_c, 0, 46, 42
2, 86718, Control_c, 0, 64, 107
2, 86738, Control_c, 0, 64, 84
2, 86754, Note_on_c, 0, 62, 0
2, 86758, Control_c, 0, 64, 68
2, 86777, Control_c, 0, 64, 54
2, 86795, Control_c, 0, 64, 38
2, 86815, Control_c, 0, 64, 28
2, 86837, Control_c, 0, 64, 30
2, 86852, Control_c, 0, 64, 37
2, 86873, Control_c, 0, 64, 45
2, 86892, Control_c, 0, 64, 53
2, 86901, Note_on_c, 0, 68, 0
2, 86914, Control_c, 0, 64, 60
2, 86927, Control_c, 0, 64, 64
2, 86947, Control_c, 0, 64, 67
2, 86964, Control_c, 0, 64, 71
2, 86985, Control_c, 0, 64, 79
2, 87003, Control_c, 0, 64, 93
2, 87025, Control_c, 0, 64, 120
2, 87043, Control_c, 0, 64, 127
2, 87488, Note_on_c, 0, 68, 65
2, 87535, Note_on_c, 0, 65, 0
2, 87673, Note_on_c, 0, 67, 67
2, 87684, Note_on_c, 0, 51, 50
2, 87727, Note_on_c, 0, 68, 0
2, 87734, Control_c, 0, 64, 118
2, 87756, Control_c, 0, 64, 86
2, 87771, Control_c, 0, 64, 70
2, 87792, Control_c, 0, 64, 59
2, 87813, Control_c, 0, 64, 46
2, 87828, Control_c, 0, 64, 34
2, 87848, Control_c, 0, 64, 30
2, 87867, Control_c, 0, 64, 31
2, 87889, Control_c, 0, 64, 36
2, 87909, Control_c, 0, 64, 43
2, 87928, Control_c, 0, 64, 51
2, 87945, Control_c, 0, 64, 60
2, 87963, Control_c, 0, 64, 64
2, 87982, Control_c, 0, 64, 66
2, 88003, Control_c, 0, 64, 69
2, 88023, Control_c, 0, 64, 77
2, 88039, Control_c, 0, 64, 88
2, 88060, Control_c, 0, 64, 102
2, 88080, Control_c, 0, 64, 127
2, 88109, Note_on_c, 0, 58, 0
2, 88432, Note_on_c, 0, 58, 51
2, 88618, Note_on_c, 0, 55, 55
2, 88618, Note_on_c, 0, 63, 61
2, 88658, Control_c, 0, 64, 122
2, 88673, Control_c, 0, 64, 82
2, 88694, Control_c, 0, 64, 64
2, 88712, Note_on_c, 0, 58, 0
2, 88713, Control_c, 0, 64, 47
2, 88732, Control_c, 0, 64, 37
2, 88749, Control_c, 0, 64, 43
2, 88770, Control_c, 0, 64, 50
2, 88790, Control_c, 0, 64, 59
2, 88808, Control_c, 0, 64, 64
2, 88828, Control_c, 0, 64, 68
2, 88846, Control_c, 0, 64, 78
2, 88866, Control_c, 0, 64, 94
2, 88887, Control_c, 0, 64, 127
2, 88889, Note_on_c, 0, 67, 0
2, 89011, Note_on_c, 0, 43, 0
2, 89031, Note_on_c, 0, 51, 0
2, 89042, Note_on_c, 0, 46, 0
2, 89046, Note_on_c, 0, 67, 65
2, 89377, Note_on_c, 0, 67, 0
2, 89515, Note_on_c, 0, 45, 36
2, 89515, Note_on_c, 0, 48, 41
2, 89522, Note_on_c, 0, 65, 63
2, 89672, Control_c, 0, 64, 116
2, 89692, Control_c, 0, 64, 92
2, 89707, Note_on_c, 0, 55, 0
2, 89711, Control_c, 0, 64, 75
2, 89729, Control_c, 0, 64, 64
2, 89749, Control_c, 0, 64, 53
2, 89769, Control_c, 0, 64, 41
2, 89787, Control_c, 0, 64, 32
2, 89807, Control_c, 0, 64, 30
2, 89848, Control_c, 0, 64, 33
2, 89864, Control_c, 0, 64, 39
2, 89885, Control_c, 0, 64, 48
2, 89902, Control_c, 0, 64, 59
2, 89922, Control_c, 0, 64, 64
2, 89942, Control_c, 0, 64, 67
2, 89960, Control_c, 0, 64, 70
2, 89980, Control_c, 0, 64, 74
2, 90000, Note_on_c, 0, 63, 0
2, 90004, Control_c, 0, 64, 81
2, 90019, Control_c, 0, 64, 88
2, 90037, Control_c, 0, 64, 91
2, 90055, Control_c, 0, 64, 93
2, 90239, Note_on_c, 0, 63, 58
2, 90345, Control_c, 0, 64, 91
2, 90364, Control_c, 0, 64, 86
2, 90377, Note_on_c, 0, 63, 0
2, 90386, Control_c, 0, 64, 79
2, 90402, Control_c, 0, 64, 70
2, 90411, Note_on_c, 0, 62, 54
2, 90421, Control_c, 0, 64, 62
2, 90441, Control_c, 0, 64, 52
2, 90461, Control_c, 0, 64, 39
2, 90480, Control_c, 0, 64, 31
2, 90498, Control_c, 0, 64, 29
2, 90555, Control_c, 0, 64, 30
2, 90575, Control_c, 0, 64, 34
2, 90595, Control_c, 0, 64, 40
2, 90612, Control_c, 0, 64, 48
2, 90632, Control_c, 0, 64, 59
2, 90655, Control_c, 0, 64, 63
2, 90672, Control_c, 0, 64, 64
2, 90690, Control_c, 0, 64, 65
2, 90708, Control_c, 0, 64, 67
2, 90729, Control_c, 0, 64, 73
2, 90749, Control_c, 0, 64, 80
2, 90767, Control_c, 0, 64, 89
2, 90788, Control_c, 0, 64, 94
2, 90806, Control_c, 0, 64, 97
2, 90824, Control_c, 0, 64, 102
2, 90845, Control_c, 0, 64, 109
2, 90862, Control_c, 0, 64, 127
2, 91156, Note_on_c, 0, 62, 0
2, 91202, Note_on_c, 0, 60, 43
2, 91325, Note_on_c, 0, 60, 0
2, 91344, Control_c, 0, 64, 110
2, 91365, Control_c, 0, 64, 97
2, 91369, Note_on_c, 0, 47, 37
2, 91369, Note_on_c, 0, 62, 39
2, 91381, Control_c, 0, 64, 83
2, 91400, Control_c, 0, 64, 71
2, 91404, Note_on_c, 0, 48, 0
2, 91411, Note_on_c, 0, 55, 15
2, 91419, Control_c, 0, 64, 62
2, 91439, Control_c, 0, 64, 52
2, 91457, Note_on_c, 0, 45, 0
2, 91461, Control_c, 0, 64, 42
2, 91479, Control_c, 0, 64, 37
2, 91495, Control_c, 0, 64, 36
2, 91553, Control_c, 0, 64, 35
2, 91615, Control_c, 0, 64, 36
2, 91634, Control_c, 0, 64, 39
2, 91649, Control_c, 0, 64, 44
2, 91669, Control_c, 0, 64, 50
2, 91690, Control_c, 0, 64, 58
2, 91710, Control_c, 0, 64, 62
2, 91726, Control_c, 0, 64, 64
2, 91748, Control_c, 0, 64, 66
2, 91767, Control_c, 0, 64, 70
2, 91787, Control_c, 0, 64, 77
2, 91804, Control_c, 0, 64, 87
2, 91823, Control_c, 0, 64, 97
2, 91834, Note_on_c, 0, 65, 0
2, 91841, Control_c, 0, 64, 103
2, 91861, Control_c, 0, 64, 108
2, 91882, Control_c, 0, 64, 127
2, 92120, Note_on_c, 0, 65, 49
2, 92230, Note_on_c, 0, 65, 0
2, 92246, Control_c, 0, 64, 122
2, 92263, Control_c, 0, 64, 103
2, 92283, Control_c, 0, 64, 87
2, 92292, Note_on_c, 0, 67, 48
2, 92305, Control_c, 0, 64, 74
2, 92321, Control_c, 0, 64, 64
2, 92341, Control_c, 0, 64, 55
2, 92361, Control_c, 0, 64, 44
2, 92379, Control_c, 0, 64, 38
2, 92401, Control_c, 0, 64, 37
2, 92419, Control_c, 0, 64, 38
2, 92437, Control_c, 0, 64, 40
2, 92455, Control_c, 0, 64, 44
2, 92476, Control_c, 0, 64, 49
2, 92494, Control_c, 0, 64, 57
2, 92514, Control_c, 0, 64, 62
2, 92533, Control_c, 0, 64, 64
2, 92553, Control_c, 0, 64, 65
2, 92573, Control_c, 0, 64, 68
2, 92591, Control_c, 0, 64, 72
2, 92612, Control_c, 0, 64, 78
2, 92632, Control_c, 0, 64, 86
2, 92648, Control_c, 0, 64, 94
2, 92670, Control_c, 0, 64, 101
2, 92688, Control_c, 0, 64, 104
2, 92707, Control_c, 0, 64, 110
2, 92711, Note_on_c, 0, 62, 0
2, 92725, Control_c, 0, 64, 127
2, 93086, Note_on_c, 0, 62, 45
2, 93275, Note_on_c, 0, 48, 29
2, 93282, Note_on_c, 0, 67, 0
2, 93295, Note_on_c, 0, 63, 46
2, 93304, Control_c, 0, 64, 107
2, 93319, Control_c, 0, 64, 90
2, 93342, Control_c, 0, 64, 75
2, 93360, Control_c, 0, 64, 65
2, 93379, Control_c, 0, 64, 56
2, 93397, Control_c, 0, 64, 46
2, 93415, Control_c, 0, 64, 42
2, 93455, Note_on_c, 0, 47, 0
2, 93513, Control_c, 0, 64, 43
2, 93535, Control_c, 0, 64, 46
2, 93550, Control_c, 0, 64, 50
2, 93571, Control_c, 0, 64, 54
2, 93590, Control_c, 0, 64, 58
2, 93610, Control_c, 0, 64, 61
2, 93626, Control_c, 0, 64, 63
2, 93649, Control_c, 0, 64, 64
2, 93668, Control_c, 0, 64, 67
2, 93686, Control_c, 0, 64, 70
2, 93704, Control_c, 0, 64, 74
2, 93724, Control_c, 0, 64, 78
2, 93745, Control_c, 0, 64, 83
2, 93763, Control_c, 0, 64, 89
2, 93782, Control_c, 0, 64, 96
2, 93804, Control_c, 0, 64, 103
2, 93821, Control_c, 0, 64, 107
2, 93838, Control_c, 0, 64, 115
2, 93858, Control_c, 0, 64, 127
2, 93974, Note_on_c, 0, 62, 0
2, 94025, Note_on_c, 0, 59, 43
2, 94069, Control_c, 0, 64, 122
2, 94089, Control_c, 0, 64, 106
2, 94107, Control_c, 0, 64, 93
2, 94128, Control_c, 0, 64, 78
2, 94147, Control_c, 0, 64, 65
2, 94154, Note_on_c, 0, 59, 0
2, 94170, Control_c, 0, 64, 55
2, 94184, Control_c, 0, 64, 42
2, 94193, Note_on_c, 0, 60, 43
2, 94203, Control_c, 0, 64, 32
2, 94262, Control_c, 0, 64, 34
2, 94280, Control_c, 0, 64, 39
2, 94300, Control_c, 0, 64, 45
2, 94320, Control_c, 0, 64, 53
2, 94341, Control_c, 0, 64, 60
2, 94357, Control_c, 0, 64, 63
2, 94377, Control_c, 0, 64, 64
2, 94385, Note_on_c, 0, 55, 0
2, 94395, Control_c, 0, 64, 66
2, 94417, Control_c, 0, 64, 69
2, 94433, Control_c, 0, 64, 75
2, 94453, Control_c, 0, 64, 82
2, 94474, Control_c, 0, 64, 90
2, 94474, Note_on_c, 0, 60, 0
2, 94479, Note_on_c, 0, 60, 3
2, 94493, Control_c, 0, 64, 97
2, 94513, Control_c, 0, 64, 102
2, 94529, Control_c, 0, 64, 107
2, 94552, Control_c, 0, 64, 116
2, 94571, Control_c, 0, 64, 127
2, 94624, Note_on_c, 0, 55, 35
2, 94650, Note_on_c, 0, 60, 0
2, 94761, Note_on_c, 0, 48, 0
2, 95092, Note_on_c, 0, 51, 39
2, 95109, Control_c, 0, 64, 98
2, 95125, Control_c, 0, 64, 82
2, 95144, Control_c, 0, 64, 70
2, 95165, Control_c, 0, 64, 63
2, 95182, Control_c, 0, 64, 56
2, 95203, Control_c, 0, 64, 53
2, 95240, Control_c, 0, 64, 52
2, 95258, Control_c, 0, 64, 51
2, 95278, Control_c, 0, 64, 50
2, 95296, Control_c, 0, 64, 49
2, 95306, Note_on_c, 0, 55, 0
2, 95319, Control_c, 0, 64, 48
2, 95356, Control_c, 0, 64, 47
2, 95413, Control_c, 0, 64, 46
2, 95701, Control_c, 0, 64, 47
2, 95780, Control_c, 0, 64, 48
2, 95800, Control_c, 0, 64, 49
2, 95841, Note_on_c, 0, 75, 45
2, 95845, Note_on_c, 0, 55, 29
2, 95874, Control_c, 0, 64, 50
2, 95932, Control_c, 0, 64, 51
2, 95989, Control_c, 0, 64, 52
2, 96009, Control_c, 0, 64, 53
2, 96018, Note_on_c, 0, 69, 51
2, 96030, Control_c, 0, 64, 54
2, 96042, Note_on_c, 0, 48, 30
2, 96065, Note_on_c, 0, 75, 0
2, 96070, Control_c, 0, 64, 56
2, 96085, Control_c, 0, 64, 57
2, 96106, Control_c, 0, 64, 59
2, 96124, Control_c, 0, 64, 62
2, 96131, Note_on_c, 0, 51, 0
2, 96142, Control_c, 0, 64, 64
2, 96162, Control_c, 0, 64, 66
2, 96180, Control_c, 0, 64, 70
2, 96199, Control_c, 0, 64, 78
2, 96212, Note_on_c, 0, 63, 0
2, 96221, Control_c, 0, 64, 93
2, 96238, Control_c, 0, 64, 127
2, 96391, Note_on_c, 0, 69, 0
2, 96424, Note_on_c, 0, 55, 0
2, 96769, Note_on_c, 0, 72, 58
2, 96773, Note_on_c, 0, 51, 44
2, 96937, Note_on_c, 0, 66, 59
2, 96961, Note_on_c, 0, 50, 45
2, 96970, Control_c, 0, 64, 97
2, 96987, Control_c, 0, 64, 75
2, 97006, Control_c, 0, 64, 63
2, 97010, Note_on_c, 0, 72, 0
2, 97028, Control_c, 0, 64, 51
2, 97028, Note_on_c, 0, 51, 0
2, 97048, Control_c, 0, 64, 40
2, 97064, Control_c, 0, 64, 36
2, 97121, Control_c, 0, 64, 39
2, 97140, Control_c, 0, 64, 45
2, 97161, Control_c, 0, 64, 52
2, 97179, Control_c, 0, 64, 60
2, 97199, Control_c, 0, 64, 64
2, 97219, Control_c, 0, 64, 66
2, 97238, Control_c, 0, 64, 71
2, 97257, Control_c, 0, 64, 77
2, 97277, Control_c, 0, 64, 87
2, 97294, Control_c, 0, 64, 98
2, 97314, Control_c, 0, 64, 112
2, 97335, Control_c, 0, 64, 127
2, 97683, Note_on_c, 0, 54, 53
2, 97692, Note_on_c, 0, 62, 64
2, 97712, Note_on_c, 0, 66, 0
2, 97864, Note_on_c, 0, 66, 70
2, 97871, Note_on_c, 0, 57, 60
2, 97891, Control_c, 0, 64, 113
2, 97909, Control_c, 0, 64, 79
2, 97920, Note_on_c, 0, 54, 0
2, 97928, Control_c, 0, 64, 61
2, 97948, Control_c, 0, 64, 45
2, 97967, Control_c, 0, 64, 27
2, 97989, Control_c, 0, 64, 26
2, 97993, Note_on_c, 0, 50, 0
2, 98004, Control_c, 0, 64, 33
2, 98023, Control_c, 0, 64, 42
2, 98045, Control_c, 0, 64, 53
2, 98065, Control_c, 0, 64, 64
2, 98083, Control_c, 0, 64, 68
2, 98104, Control_c, 0, 64, 74
2, 98104, Note_on_c, 0, 48, 0
2, 98122, Control_c, 0, 64, 83
2, 98140, Control_c, 0, 64, 101
2, 98158, Control_c, 0, 64, 127
2, 98214, Note_on_c, 0, 62, 0
2, 98277, Note_on_c, 0, 48, 59
2, 98397, Note_on_c, 0, 48, 0
2, 98584, Note_on_c, 0, 69, 70
2, 98762, Note_on_c, 0, 74, 71
2, 98766, Note_on_c, 0, 46, 52
2, 98802, Note_on_c, 0, 66, 0
2, 98830, Control_c, 0, 64, 109
2, 98850, Control_c, 0, 64, 84
2, 98871, Control_c, 0, 64, 68
2, 98889, Control_c, 0, 64, 55
2, 98909, Control_c, 0, 64, 38
2, 98926, Control_c, 0, 64, 19
2, 98934, Note_on_c, 0, 57, 0
2, 98948, Control_c, 0, 64, 14
2, 98964, Note_on_c, 0, 69, 0
2, 99004, Control_c, 0, 64, 15
2, 99023, Control_c, 0, 64, 24
2, 99043, Control_c, 0, 64, 34
2, 99061, Control_c, 0, 64, 44
2, 99079, Control_c, 0, 64, 56
2, 99099, Control_c, 0, 64, 62
2, 99120, Control_c, 0, 64, 64
2, 99137, Control_c, 0, 64, 65
2, 99157, Control_c, 0, 64, 69
2, 99177, Control_c, 0, 64, 77
2, 99195, Control_c, 0, 64, 90
2, 99215, Control_c, 0, 64, 109
2, 99232, Control_c, 0, 64, 127
2, 99480, Note_on_c, 0, 69, 63
2, 99496, Note_on_c, 0, 54, 55
2, 99652, Note_on_c, 0, 70, 72
2, 99672, Note_on_c, 0, 55, 54
2, 99696, Control_c, 0, 64, 96
2, 99714, Control_c, 0, 64, 70
2, 99725, Note_on_c, 0, 54, 0
2, 99734, Control_c, 0, 64, 57
2, 99751, Control_c, 0, 64, 38
2, 99763, Note_on_c, 0, 69, 0
2, 99772, Control_c, 0, 64, 23
2, 99791, Control_c, 0, 64, 26
2, 99810, Control_c, 0, 64, 32
2, 99829, Control_c, 0, 64, 40
2, 99849, Control_c, 0, 64, 51
2, 99868, Control_c, 0, 64, 61
2, 99885, Control_c, 0, 64, 64
2, 99905, Control_c, 0, 64, 66
2, 99925, Control_c, 0, 64, 71
2, 99945, Control_c, 0, 64, 80
2, 99964, Control_c, 0, 64, 98
2, 99983, Control_c, 0, 64, 127
2, 99987, Note_on_c, 0, 46, 0
2, 100324, Note_on_c, 0, 55, 0
2, 100365, Note_on_c, 0, 66, 68
2, 100372, Note_on_c, 0, 57, 65
2, 100425, Note_on_c, 0, 70, 0
2, 100530, Note_on_c, 0, 67, 76
2, 100548, Note_on_c, 0, 58, 67
2, 100583, Note_on_c, 0, 66, 0
2, 100642, Note_on_c, 0, 57, 0
2, 100656, Control_c, 0, 64, 90
2, 100674, Control_c, 0, 64, 64
2, 100694, Control_c, 0, 64, 47
2, 100709, Control_c, 0, 64, 16
2, 100729, Control_c, 0, 64, 0
2, 100748, Control_c, 0, 64, 13
2, 100767, Control_c, 0, 64, 26
2, 100787, Control_c, 0, 64, 37
2, 100807, Control_c, 0, 64, 51
2, 100824, Control_c, 0, 64, 63
2, 100843, Control_c, 0, 64, 66
2, 100863, Control_c, 0, 64, 69
2, 100885, Control_c, 0, 64, 75
2, 100902, Control_c, 0, 64, 91
2, 100921, Control_c, 0, 64, 127
2, 101191, Note_on_c, 0, 46, 63
2, 101373, Note_on_c, 0, 48, 76
2, 101415, Control_c, 0, 64, 84
2, 101436, Control_c, 0, 64, 64
2, 101456, Control_c, 0, 64, 46
2, 101474, Control_c, 0, 64, 18
2, 101491, Control_c, 0, 64, 14
2, 101514, Control_c, 0, 64, 22
2, 101534, Control_c, 0, 64, 33
2, 101538, Note_on_c, 0, 46, 0
2, 101552, Control_c, 0, 64, 44
2, 101571, Control_c, 0, 64, 56
2, 101590, Control_c, 0, 64, 64
2, 101609, Control_c, 0, 64, 67
2, 101627, Control_c, 0, 64, 74
2, 101648, Control_c, 0, 64, 93
2, 101666, Control_c, 0, 64, 127
2, 101715, Note_on_c, 0, 48, 0
2, 102109, Note_on_c, 0, 50, 71
2, 102277, Note_on_c, 0, 51, 83
2, 102321, Note_on_c, 0, 50, 0
2, 102356, Control_c, 0, 64, 111
2, 102377, Control_c, 0, 64, 71
2, 102396, Control_c, 0, 64, 51
2, 102414, Control_c, 0, 64, 0
2, 102514, Control_c, 0, 64, 25
2, 102529, Control_c, 0, 64, 48
2, 102549, Control_c, 0, 64, 62
2, 102568, Control_c, 0, 64, 66
2, 102587, Control_c, 0, 64, 70
2, 102608, Control_c, 0, 64, 82
2, 102628, Control_c, 0, 64, 127
2, 102633, Note_on_c, 0, 74, 0
2, 102647, Note_on_c, 0, 58, 0
2, 103045, Note_on_c, 0, 79, 74
2, 103085, Note_on_c, 0, 58, 59
2, 103217, Note_on_c, 0, 72, 85
2, 103226, Note_on_c, 0, 57, 74
2, 103301, Note_on_c, 0, 79, 0
2, 103337, Control_c, 0, 64, 102
2, 103346, Note_on_c, 0, 58, 0
2, 103359, Control_c, 0, 64, 72
2, 103374, Control_c, 0, 64, 57
2, 103395, Control_c, 0, 64, 39
2, 103412, Control_c, 0, 64, 31
2, 103435, Control_c, 0, 64, 39
2, 103450, Control_c, 0, 64, 46
2, 103470, Control_c, 0, 64, 56
2, 103490, Control_c, 0, 64, 63
2, 103510, Control_c, 0, 64, 66
2, 103528, Control_c, 0, 64, 71
2, 103549, Control_c, 0, 64, 80
2, 103566, Control_c, 0, 64, 102
2, 103586, Control_c, 0, 64, 127
2, 103954, Note_on_c, 0, 72, 0
2, 103976, Note_on_c, 0, 75, 73
2, 103987, Note_on_c, 0, 58, 74
2, 104016, Note_on_c, 0, 67, 0
2, 104054, Note_on_c, 0, 57, 0
2, 104148, Note_on_c, 0, 69, 78
2, 104155, Note_on_c, 0, 65, 72
2, 104163, Note_on_c, 0, 60, 72
2, 104241, Note_on_c, 0, 58, 0
2, 104241, Note_on_c, 0, 75, 0
2, 104265, Control_c, 0, 64, 93
2, 104283, Control_c, 0, 64, 71
2, 104303, Control_c, 0, 64, 58
2, 104321, Control_c, 0, 64, 37
2, 104341, Control_c, 0, 64, 0
2, 104397, Control_c, 0, 64, 18
2, 104416, Control_c, 0, 64, 32
2, 104436, Control_c, 0, 64, 49
2, 104457, Control_c, 0, 64, 62
2, 104473, Control_c, 0, 64, 66
2, 104496, Control_c, 0, 64, 70
2, 104514, Control_c, 0, 64, 78
2, 104534, Control_c, 0, 64, 102
2, 104554, Control_c, 0, 64, 127
2, 104578, Note_on_c, 0, 65, 0
2, 104881, Note_on_c, 0, 65, 77
2, 104887, Note_on_c, 0, 57, 65
2, 104911, Note_on_c, 0, 69, 0
2, 105006, Note_on_c, 0, 60, 0
2, 105059, Note_on_c, 0, 69, 76
2, 105070, Note_on_c, 0, 53, 71
2, 105150, Note_on_c, 0, 57, 0
2, 105166, Control_c, 0, 64, 79
2, 105188, Control_c, 0, 64, 62
2, 105190, Note_on_c, 0, 65, 0
2, 105204, Control_c, 0, 64, 44
2, 105226, Control_c, 0, 64, 20
2, 105243, Control_c, 0, 64, 28
2, 105263, Control_c, 0, 64, 37
2, 105280, Control_c, 0, 64, 48
2, 105301, Control_c, 0, 64, 59
2, 105321, Control_c, 0, 64, 65
2, 105340, Control_c, 0, 64, 67
2, 105358, Control_c, 0, 64, 70
2, 105376, Control_c, 0, 64, 75
2, 105397, Control_c, 0, 64, 83
2, 105418, Control_c, 0, 64, 93
2, 105436, Control_c, 0, 64, 104
2, 105455, Control_c, 0, 64, 127
2, 105791, Note_on_c, 0, 72, 82
2, 105797, Note_on_c, 0, 57, 70
2, 105934, Note_on_c, 0, 69, 0
2, 105998, Note_on_c, 0, 62, 76
2, 106002, Note_on_c, 0, 77, 86
2, 106054, Note_on_c, 0, 76, 31
2, 106058, Note_on_c, 0, 76, 0
2, 106089, Control_c, 0, 64, 91
2, 106107, Control_c, 0, 64, 72
2, 106112, Note_on_c, 0, 72, 0
2, 106123, Note_on_c, 0, 51, 0
2, 106128, Control_c, 0, 64, 60
2, 106145, Control_c, 0, 64, 44
2, 106165, Control_c, 0, 64, 23
2, 106185, Control_c, 0, 64, 0
2, 106195, Note_on_c, 0, 57, 0
2, 106222, Note_on_c, 0, 53, 0
2, 106300, Control_c, 0, 64, 11
2, 106318, Control_c, 0, 64, 30
2, 106338, Control_c, 0, 64, 46
2, 106358, Control_c, 0, 64, 60
2, 106375, Control_c, 0, 64, 66
2, 106399, Control_c, 0, 64, 70
2, 106414, Control_c, 0, 64, 75
2, 106432, Control_c, 0, 64, 85
2, 106452, Control_c, 0, 64, 105
2, 106473, Control_c, 0, 64, 127
2, 106764, Note_on_c, 0, 50, 63
2, 106769, Note_on_c, 0, 65, 77
2, 106939, Note_on_c, 0, 65, 0
2, 106943, Note_on_c, 0, 51, 80
2, 106943, Note_on_c, 0, 67, 84
2, 106991, Control_c, 0, 64, 118
2, 107011, Control_c, 0, 64, 75
2, 107029, Control_c, 0, 64, 59
2, 107037, Note_on_c, 0, 50, 0
2, 107048, Control_c, 0, 64, 36
2, 107066, Control_c, 0, 64, 0
2, 107144, Control_c, 0, 64, 23
2, 107164, Control_c, 0, 64, 39
2, 107184, Control_c, 0, 64, 56
2, 107204, Control_c, 0, 64, 63
2, 107220, Control_c, 0, 64, 65
2, 107240, Control_c, 0, 64, 68
2, 107259, Control_c, 0, 64, 74
2, 107279, Control_c, 0, 64, 87
2, 107297, Control_c, 0, 64, 127
2, 107417, Note_on_c, 0, 51, 0
2, 107439, Note_on_c, 0, 67, 0
2, 107797, Note_on_c, 0, 69, 76
2, 107809, Note_on_c, 0, 53, 69
2, 108002, Note_on_c, 0, 70, 85
2, 108013, Note_on_c, 0, 55, 68
2, 108085, Note_on_c, 0, 69, 0
2, 108104, Control_c, 0, 64, 90
2, 108109, Note_on_c, 0, 53, 0
2, 108123, Control_c, 0, 64, 69
2, 108144, Control_c, 0, 64, 54
2, 108163, Control_c, 0, 64, 25
2, 108181, Control_c, 0, 64, 0
2, 108353, Control_c, 0, 64, 27
2, 108371, Control_c, 0, 64, 48
2, 108391, Control_c, 0, 64, 62
2, 108409, Control_c, 0, 64, 64
2, 108429, Control_c, 0, 64, 65
2, 108451, Control_c, 0, 64, 67
2, 108469, Control_c, 0, 64, 75
2, 108487, Control_c, 0, 64, 93
2, 108508, Control_c, 0, 64, 127
2, 108620, Note_on_c, 0, 77, 0
2, 108983, Note_on_c, 0, 82, 72
2, 109177, Note_on_c, 0, 79, 81
2, 109236, Control_c, 0, 64, 97
2, 109255, Control_c, 0, 64, 73
2, 109275, Control_c, 0, 64, 60
2, 109295, Control_c, 0, 64, 45
2, 109313, Control_c, 0, 64, 32
2, 109352, Control_c, 0, 64, 34
2, 109373, Control_c, 0, 64, 37
2, 109394, Control_c, 0, 64, 41
2, 109409, Control_c, 0, 64, 47
2, 109428, Control_c, 0, 64, 56
2, 109428, Note_on_c, 0, 82, 0
2, 109447, Control_c, 0, 64, 62
2, 109467, Control_c, 0, 64, 64
2, 109487, Control_c, 0, 64, 66
2, 109505, Control_c, 0, 64, 70
2, 109525, Control_c, 0, 64, 79
2, 109545, Control_c, 0, 64, 99
2, 109562, Control_c, 0, 64, 127
2, 109973, Note_on_c, 0, 74, 73
2, 110002, Note_on_c, 0, 79, 0
2, 110050, Note_on_c, 0, 74, 0
2, 110262, Note_on_c, 0, 76, 71
2, 110338, Note_on_c, 0, 76, 0
2, 110347, Note_on_c, 0, 77, 79
2, 110409, Control_c, 0, 64, 102
2, 110414, Note_on_c, 0, 76, 75
2, 110427, Control_c, 0, 64, 73
2, 110447, Control_c, 0, 64, 55
2, 110454, Note_on_c, 0, 77, 0
2, 110465, Control_c, 0, 64, 31
2, 110484, Control_c, 0, 64, 0
2, 110717, Control_c, 0, 64, 12
2, 110736, Control_c, 0, 64, 36
2, 110754, Control_c, 0, 64, 53
2, 110774, Control_c, 0, 64, 62
2, 110792, Control_c, 0, 64, 65
2, 110811, Control_c, 0, 64, 67
2, 110830, Control_c, 0, 64, 72
2, 110849, Control_c, 0, 64, 85
2, 110871, Control_c, 0, 64, 127
2, 111149, Note_on_c, 0, 62, 0
2, 111165, Note_on_c, 0, 61, 61
2, 111234, Control_c, 0, 64, 116
2, 111253, Control_c, 0, 64, 85
2, 111273, Control_c, 0, 64, 65
2, 111292, Control_c, 0, 64, 51
2, 111301, Note_on_c, 0, 61, 0
2, 111312, Control_c, 0, 64, 27
2, 111321, Note_on_c, 0, 60, 65
2, 111330, Control_c, 0, 64, 0
2, 111387, Control_c, 0, 64, 20
2, 111405, Control_c, 0, 64, 35
2, 111426, Control_c, 0, 64, 52
2, 111445, Control_c, 0, 64, 64
2, 111463, Control_c, 0, 64, 70
2, 111484, Control_c, 0, 64, 80
2, 111503, Control_c, 0, 64, 97
2, 111523, Control_c, 0, 64, 127
2, 111523, Note_on_c, 0, 76, 0
2, 111773, Note_on_c, 0, 76, 76
2, 112080, Note_on_c, 0, 60, 0
2, 112148, Note_on_c, 0, 58, 45
2, 112299, Note_on_c, 0, 53, 46
2, 112309, Note_on_c, 0, 77, 76
2, 112333, Note_on_c, 0, 60, 50
2, 112366, Control_c, 0, 64, 118
2, 112384, Control_c, 0, 64, 87
2, 112405, Control_c, 0, 64, 71
2, 112424, Control_c, 0, 64, 61
2, 112443, Control_c, 0, 64, 50
2, 112457, Note_on_c, 0, 55, 0
2, 112457, Note_on_c, 0, 76, 0
2, 112461, Control_c, 0, 64, 41
2, 112473, Note_on_c, 0, 58, 0
2, 112482, Control_c, 0, 64, 36
2, 112500, Control_c, 0, 64, 33
2, 112519, Control_c, 0, 64, 31
2, 112538, Control_c, 0, 64, 29
2, 112578, Control_c, 0, 64, 31
2, 112596, Control_c, 0, 64, 36
2, 112615, Control_c, 0, 64, 42
2, 112636, Control_c, 0, 64, 52
2, 112654, Control_c, 0, 64, 62
2, 112674, Control_c, 0, 64, 65
2, 112692, Control_c, 0, 64, 67
2, 112712, Control_c, 0, 64, 72
2, 112730, Control_c, 0, 64, 81
2, 112750, Control_c, 0, 64, 96
2, 112768, Control_c, 0, 64, 120
2, 112789, Control_c, 0, 64, 127
2, 112832, Note_on_c, 0, 70, 0
2, 113067, Note_on_c, 0, 70, 67
2, 113232, Note_on_c, 0, 68, 70
2, 113264, Note_on_c, 0, 70, 0
2, 113288, Control_c, 0, 64, 109
2, 113308, Control_c, 0, 64, 84
2, 113328, Control_c, 0, 64, 68
2, 113347, Control_c, 0, 64, 55
2, 113367, Control_c, 0, 64, 42
2, 113384, Control_c, 0, 64, 35
2, 113422, Control_c, 0, 64, 36
2, 113441, Control_c, 0, 64, 39
2, 113460, Control_c, 0, 64, 45
2, 113483, Control_c, 0, 64, 56
2, 113499, Control_c, 0, 64, 63
2, 113519, Control_c, 0, 64, 66
2, 113539, Control_c, 0, 64, 69
2, 113557, Control_c, 0, 64, 74
2, 113574, Control_c, 0, 64, 81
2, 113596, Control_c, 0, 64, 90
2, 113616, Control_c, 0, 64, 98
2, 113634, Control_c, 0, 64, 103
2, 113652, Control_c, 0, 64, 109
2, 113671, Control_c, 0, 64, 127
2, 113983, Note_on_c, 0, 67, 53
2, 113985, Note_on_c, 0, 68, 0
2, 114074, Control_c, 0, 64, 122
2, 114092, Control_c, 0, 64, 88
2, 114114, Control_c, 0, 64, 70
2, 114127, Note_on_c, 0, 67, 0
2, 114134, Control_c, 0, 64, 58
2, 114152, Control_c, 0, 64, 43
2, 114152, Note_on_c, 0, 68, 56
2, 114175, Control_c, 0, 64, 25
2, 114208, Control_c, 0, 64, 27
2, 114229, Control_c, 0, 64, 31
2, 114247, Control_c, 0, 64, 36
2, 114266, Control_c, 0, 64, 42
2, 114286, Control_c, 0, 64, 53
2, 114306, Control_c, 0, 64, 61
2, 114324, Control_c, 0, 64, 63
2, 114361, Control_c, 0, 64, 65
2, 114382, Control_c, 0, 64, 67
2, 114400, Control_c, 0, 64, 72
2, 114421, Control_c, 0, 64, 78
2, 114440, Control_c, 0, 64, 87
2, 114459, Control_c, 0, 64, 97
2, 114479, Control_c, 0, 64, 113
2, 114498, Control_c, 0, 64, 127
2, 114596, Note_on_c, 0, 60, 0
2, 114929, Note_on_c, 0, 75, 61
2, 114936, Note_on_c, 0, 60, 62
2, 115095, Note_on_c, 0, 77, 0
2, 115108, Note_on_c, 0, 74, 65
2, 115112, Note_on_c, 0, 65, 72
2, 115208, Control_c, 0, 64, 120
2, 115227, Control_c, 0, 64, 86
2, 115235, Note_on_c, 0, 75, 0
2, 115250, Control_c, 0, 64, 67
2, 115265, Control_c, 0, 64, 50
2, 115285, Control_c, 0, 64, 24
2, 115285, Note_on_c, 0, 60, 0
2, 115305, Control_c, 0, 64, 0
2, 115383, Control_c, 0, 64, 21
2, 115398, Control_c, 0, 64, 35
2, 115419, Control_c, 0, 64, 54
2, 115441, Control_c, 0, 64, 63
2, 115458, Control_c, 0, 64, 65
2, 115477, Control_c, 0, 64, 67
2, 115495, Control_c, 0, 64, 71
2, 115515, Control_c, 0, 64, 79
2, 115533, Control_c, 0, 64, 95
2, 115553, Control_c, 0, 64, 127
2, 115724, Note_on_c, 0, 68, 0
2, 115918, Note_on_c, 0, 65, 0
2, 115926, Note_on_c, 0, 74, 0
2, 115937, Note_on_c, 0, 77, 65
2, 115959, Note_on_c, 0, 63, 63
2, 116124, Note_on_c, 0, 71, 74
2, 116124, Note_on_c, 0, 77, 0
2, 116131, Note_on_c, 0, 62, 66
2, 116138, Note_on_c, 0, 67, 59
2, 116169, Control_c, 0, 64, 80
2, 116184, Note_on_c, 0, 63, 0
2, 116188, Control_c, 0, 64, 63
2, 116205, Control_c, 0, 64, 43
2, 116227, Control_c, 0, 64, 0
2, 116263, Control_c, 0, 64, 13
2, 116282, Control_c, 0, 64, 25
2, 116304, Control_c, 0, 64, 35
2, 116304, Note_on_c, 0, 71, 0
2, 116321, Control_c, 0, 64, 47
2, 116343, Control_c, 0, 64, 59
2, 116359, Control_c, 0, 64, 63
2, 116382, Control_c, 0, 64, 64
2, 116382, Note_on_c, 0, 72, 21
2, 116402, Control_c, 0, 64, 65
2, 116406, Note_on_c, 0, 71, 34
2, 116421, Control_c, 0, 64, 69
2, 116439, Control_c, 0, 64, 76
2, 116447, Note_on_c, 0, 72, 0
2, 116461, Control_c, 0, 64, 86
2, 116478, Control_c, 0, 64, 95
2, 116499, Control_c, 0, 64, 104
2, 116516, Control_c, 0, 64, 127
2, 116621, Note_on_c, 0, 62, 0
2, 116853, Note_on_c, 0, 53, 0
2, 116957, Note_on_c, 0, 55, 43
2, 116992, Note_on_c, 0, 55, 0
2, 117120, Note_on_c, 0, 50, 68
2, 117812, Note_on_c, 0, 71, 0
2, 117963, Note_on_c, 0, 53, 69
2, 118130, Note_on_c, 0, 72, 73
2, 118132, Note_on_c, 0, 51, 74
2, 118145, Note_on_c, 0, 63, 62
2, 118168, Note_on_c, 0, 50, 0
2, 118210, Control_c, 0, 64, 104
2, 118228, Control_c, 0, 64, 74
2, 118247, Control_c, 0, 64, 59
2, 118247, Note_on_c, 0, 53, 0
2, 118267, Control_c, 0, 64, 41
2, 118286, Control_c, 0, 64, 8
2, 118306, Control_c, 0, 64, 0
2, 118344, Control_c, 0, 64, 17
2, 118363, Control_c, 0, 64, 29
2, 118381, Control_c, 0, 64, 40
2, 118399, Control_c, 0, 64, 53
2, 118419, Control_c, 0, 64, 63
2, 118442, Control_c, 0, 64, 67
2, 118457, Control_c, 0, 64, 72
2, 118477, Control_c, 0, 64, 82
2, 118497, Control_c, 0, 64, 109
2, 118517, Control_c, 0, 64, 127
2, 118587, Note_on_c, 0, 51, 0
2, 118959, Note_on_c, 0, 48, 71
2, 119008, Note_on_c, 0, 48, 0
2, 119146, Note_on_c, 0, 43, 78
2, 119227, Control_c, 0, 64, 115
2, 119245, Control_c, 0, 64, 83
2, 119266, Control_c, 0, 64, 65
2, 119284, Control_c, 0, 64, 53
2, 119303, Control_c, 0, 64, 38
2, 119322, Control_c, 0, 64, 27
2, 119340, Control_c, 0, 64, 20
2, 119360, Control_c, 0, 64, 17
2, 119400, Control_c, 0, 64, 18
2, 119418, Control_c, 0, 64, 26
2, 119439, Control_c, 0, 64, 33
2, 119457, Control_c, 0, 64, 40
2, 119475, Control_c, 0, 64, 47
2, 119496, Control_c, 0, 64, 57
2, 119514, Control_c, 0, 64, 62
2, 119532, Control_c, 0, 64, 63
2, 119553, Control_c, 0, 64, 65
2, 119572, Control_c, 0, 64, 69
2, 119592, Control_c, 0, 64, 77
2, 119610, Control_c, 0, 64, 93
2, 119630, Control_c, 0, 64, 127
2, 119798, Note_on_c, 0, 43, 0
2, 120158, Note_on_c, 0, 46, 62
2, 120220, Note_on_c, 0, 46, 0
2, 120379, Control_c, 0, 64, 93
2, 120393, Note_on_c, 0, 45, 50
2, 120399, Control_c, 0, 64, 79
2, 120417, Control_c, 0, 64, 68
2, 120435, Control_c, 0, 64, 60
2, 120455, Control_c, 0, 64, 50
2, 120475, Control_c, 0, 64, 39
2, 120492, Control_c, 0, 64, 29
2, 120512, Control_c, 0, 64, 20
2, 120529, Control_c, 0, 64, 18
2, 120586, Control_c, 0, 64, 21
2, 120604, Control_c, 0, 64, 30
2, 120626, Control_c, 0, 64, 39
2, 120645, Control_c, 0, 64, 50
2, 120663, Control_c, 0, 64, 58
2, 120684, Control_c, 0, 64, 63
2, 120703, Control_c, 0, 64, 64
2, 120723, Control_c, 0, 64, 67
2, 120741, Control_c, 0, 64, 72
2, 120760, Control_c, 0, 64, 84
2, 120778, Control_c, 0, 64, 118
2, 120798, Control_c, 0, 64, 127
2, 121279, Note_on_c, 0, 74, 59
2, 121310, Note_on_c, 0, 72, 0
2, 121430, Control_c, 0, 64, 99
2, 121443, Note_on_c, 0, 74, 0
2, 121450, Control_c, 0, 64, 81
2, 121460, Note_on_c, 0, 75, 62
2, 121469, Control_c, 0, 64, 68
2, 121477, Note_on_c, 0, 55, 32
2, 121491, Control_c, 0, 64, 60
2, 121510, Control_c, 0, 64, 51
2, 121530, Control_c, 0, 64, 43
2, 121548, Control_c, 0, 64, 37
2, 121566, Control_c, 0, 64, 35
2, 121643, Control_c, 0, 64, 38
2, 121663, Control_c, 0, 64, 42
2, 121680, Control_c, 0, 64, 46
2, 121700, Control_c, 0, 64, 52
2, 121719, Control_c, 0, 64, 57
2, 121737, Control_c, 0, 64, 61
2, 121757, Control_c, 0, 64, 63
2, 121778, Control_c, 0, 64, 64
2, 121796, Control_c, 0, 64, 66
2, 121815, Control_c, 0, 64, 72
2, 121834, Control_c, 0, 64, 85
2, 121857, Control_c, 0, 64, 106
2, 121872, Control_c, 0, 64, 127
2, 122231, Note_on_c, 0, 70, 59
2, 122254, Note_on_c, 0, 75, 0
2, 122422, Note_on_c, 0, 72, 64
2, 122427, Note_on_c, 0, 54, 44
2, 122526, Control_c, 0, 64, 100
2, 122530, Note_on_c, 0, 70, 0
2, 122545, Control_c, 0, 64, 77
2, 122563, Control_c, 0, 64, 61
2, 122583, Control_c, 0, 64, 49
2, 122601, Control_c, 0, 64, 39
2, 122620, Control_c, 0, 64, 37
2, 122636, Note_on_c, 0, 55, 0
2, 122640, Control_c, 0, 64, 39
2, 122661, Control_c, 0, 64, 43
2, 122679, Control_c, 0, 64, 50
2, 122697, Control_c, 0, 64, 56
2, 122718, Control_c, 0, 64, 61
2, 122723, Note_on_c, 0, 67, 0
2, 122738, Control_c, 0, 64, 64
2, 122756, Control_c, 0, 64, 68
2, 122774, Control_c, 0, 64, 75
2, 122795, Control_c, 0, 64, 86
2, 122799, Note_on_c, 0, 63, 0
2, 122816, Control_c, 0, 64, 105
2, 122832, Control_c, 0, 64, 127
2, 123210, Note_on_c, 0, 67, 47
2, 123388, Note_on_c, 0, 66, 65
2, 123393, Note_on_c, 0, 57, 49
2, 123492, Note_on_c, 0, 67, 0
2, 123525, Control_c, 0, 64, 102
2, 123543, Control_c, 0, 64, 75
2, 123561, Control_c, 0, 64, 61
2, 123580, Control_c, 0, 64, 45
2, 123600, Control_c, 0, 64, 30
2, 123619, Control_c, 0, 64, 31
2, 123638, Control_c, 0, 64, 36
2, 123658, Control_c, 0, 64, 42
2, 123667, Note_on_c, 0, 54, 0
2, 123678, Control_c, 0, 64, 50
2, 123698, Control_c, 0, 64, 58
2, 123716, Control_c, 0, 64, 62
2, 123736, Control_c, 0, 64, 63
2, 123754, Control_c, 0, 64, 64
2, 123775, Control_c, 0, 64, 66
2, 123792, Control_c, 0, 64, 70
2, 123814, Control_c, 0, 64, 76
2, 123830, Control_c, 0, 64, 83
2, 123850, Control_c, 0, 64, 91
2, 123869, Control_c, 0, 64, 99
2, 123892, Control_c, 0, 64, 107
2, 123907, Control_c, 0, 64, 120
2, 123926, Control_c, 0, 64, 127
2, 124078, Note_on_c, 0, 45, 0
2, 124157, Note_on_c, 0, 69, 52
2, 124241, Note_on_c, 0, 66, 0
2, 124344, Note_on_c, 0, 69, 0
2, 124353, Note_on_c, 0, 46, 60
2, 124353, Note_on_c, 0, 62, 56
2, 124465, Control_c, 0, 64, 99
2, 124485, Control_c, 0, 64, 80
2, 124502, Control_c, 0, 64, 65
2, 124523, Control_c, 0, 64, 56
2, 124544, Control_c, 0, 64, 46
2, 124560, Control_c, 0, 64, 38
2, 124581, Control_c, 0, 64, 35
2, 124618, Control_c, 0, 64, 37
2, 124639, Control_c, 0, 64, 42
2, 124658, Control_c, 0, 64, 48
2, 124677, Control_c, 0, 64, 57
2, 124695, Control_c, 0, 64, 63
2, 124715, Control_c, 0, 64, 65
2, 124733, Control_c, 0, 64, 67
2, 124753, Control_c, 0, 64, 70
2, 124765, Note_on_c, 0, 72, 0
2, 124771, Control_c, 0, 64, 76
2, 124789, Control_c, 0, 64, 83
2, 124809, Control_c, 0, 64, 91
2, 124829, Control_c, 0, 64, 99
2, 124847, Control_c, 0, 64, 109
2, 124867, Control_c, 0, 64, 127
2, 125042, Note_on_c, 0, 57, 0
2, 125180, Note_on_c, 0, 72, 65
2, 125354, Note_on_c, 0, 74, 70
2, 125361, Note_on_c, 0, 55, 45
2, 125406, Control_c, 0, 64, 95
2, 125428, Control_c, 0, 64, 78
2, 125441, Note_on_c, 0, 72, 0
2, 125445, Control_c, 0, 64, 66
2, 125464, Control_c, 0, 64, 56
2, 125485, Control_c, 0, 64, 47
2, 125502, Control_c, 0, 64, 41
2, 125521, Control_c, 0, 64, 40
2, 125559, Control_c, 0, 64, 42
2, 125577, Control_c, 0, 64, 45
2, 125597, Control_c, 0, 64, 51
2, 125616, Control_c, 0, 64, 59
2, 125636, Control_c, 0, 64, 63
2, 125654, Control_c, 0, 64, 65
2, 125673, Control_c, 0, 64, 67
2, 125693, Control_c, 0, 64, 72
2, 125712, Control_c, 0, 64, 79
2, 125731, Control_c, 0, 64, 90
2, 125750, Control_c, 0, 64, 100
2, 125770, Control_c, 0, 64, 111
2, 125790, Control_c, 0, 64, 127
2, 126105, Note_on_c, 0, 55, 0
2, 126143, Note_on_c, 0, 74, 0
2, 126148, Note_on_c, 0, 69, 58
2, 126152, Note_on_c, 0, 54, 47
2, 126250, Control_c, 0, 64, 102
2, 126269, Control_c, 0, 64, 82
2, 126291, Control_c, 0, 64, 66
2, 126308, Control_c, 0, 64, 56
2, 126331, Note_on_c, 0, 54, 0
2, 126331, Note_on_c, 0, 55, 30
2, 126331, Note_on_c, 0, 69, 0
2, 126332, Control_c, 0, 64, 44
2, 126336, Note_on_c, 0, 70, 62
2, 126346, Control_c, 0, 64, 36
2, 126366, Control_c, 0, 64, 35
2, 126423, Control_c, 0, 64, 34
2, 126481, Control_c, 0, 64, 35
2, 126499, Control_c, 0, 64, 38
2, 126517, Control_c, 0, 64, 42
2, 126539, Control_c, 0, 64, 47
2, 126559, Control_c, 0, 64, 56
2, 126577, Control_c, 0, 64, 61
2, 126595, Control_c, 0, 64, 63
2, 126615, Control_c, 0, 64, 64
2, 126633, Control_c, 0, 64, 65
2, 126652, Control_c, 0, 64, 69
2, 126670, Control_c, 0, 64, 75
2, 126690, Control_c, 0, 64, 85
2, 126711, Control_c, 0, 64, 94
2, 126733, Control_c, 0, 64, 100
2, 126750, Control_c, 0, 64, 104
2, 126770, Control_c, 0, 64, 108
2, 126788, Control_c, 0, 64, 113
2, 126807, Control_c, 0, 64, 127
2, 127093, Note_on_c, 0, 66, 56
2, 127183, Note_on_c, 0, 62, 0
2, 127194, Control_c, 0, 64, 110
2, 127210, Control_c, 0, 64, 100
2, 127232, Control_c, 0, 64, 88
2, 127248, Control_c, 0, 64, 73
2, 127268, Note_on_c, 0, 66, 0
2, 127272, Control_c, 0, 64, 63
2, 127288, Control_c, 0, 64, 54
2, 127288, Note_on_c, 0, 67, 47
2, 127307, Control_c, 0, 64, 43
2, 127324, Control_c, 0, 64, 35
2, 127345, Control_c, 0, 64, 34
2, 127420, Control_c, 0, 64, 36
2, 127440, Control_c, 0, 64, 41
2, 127460, Control_c, 0, 64, 46
2, 127477, Control_c, 0, 64, 54
2, 127498, Control_c, 0, 64, 60
2, 127517, Control_c, 0, 64, 62
2, 127538, Control_c, 0, 64, 63
2, 127555, Control_c, 0, 64, 64
2, 127575, Control_c, 0, 64, 67
2, 127594, Control_c, 0, 64, 72
2, 127613, Control_c, 0, 64, 79
2, 127632, Control_c, 0, 64, 85
2, 127652, Control_c, 0, 64, 91
2, 127672, Control_c, 0, 64, 95
2, 127690, Control_c, 0, 64, 100
2, 127711, Control_c, 0, 64, 106
2, 127729, Control_c, 0, 64, 118
2, 127748, Control_c, 0, 64, 127
2, 128103, Note_on_c, 0, 67, 0
2, 128130, Note_on_c, 0, 62, 50
2, 128299, Note_on_c, 0, 62, 0
2, 128340, Note_on_c, 0, 48, 36
2, 128357, Note_on_c, 0, 63, 44
2, 128362, Control_c, 0, 64, 118
2, 128383, Control_c, 0, 64, 95
2, 128402, Control_c, 0, 64, 78
2, 128418, Control_c, 0, 64, 66
2, 128437, Control_c, 0, 64, 55
2, 128458, Control_c, 0, 64, 43
2, 128478, Control_c, 0, 64, 30
2, 128486, Note_on_c, 0, 46, 0
2, 128499, Control_c, 0, 64, 29
2, 128574, Control_c, 0, 64, 34
2, 128593, Control_c, 0, 64, 41
2, 128613, Control_c, 0, 64, 48
2, 128633, Control_c, 0, 64, 58
2, 128651, Control_c, 0, 64, 62
2, 128669, Control_c, 0, 64, 63
2, 128692, Control_c, 0, 64, 64
2, 128708, Control_c, 0, 64, 67
2, 128729, Control_c, 0, 64, 71
2, 128746, Control_c, 0, 64, 78
2, 128766, Control_c, 0, 64, 89
2, 128783, Control_c, 0, 64, 98
2, 128803, Control_c, 0, 64, 109
2, 128824, Control_c, 0, 64, 127
2, 128888, Note_on_c, 0, 70, 0
2, 129190, Note_on_c, 0, 75, 54
2, 129360, Note_on_c, 0, 60, 57
2, 129367, Note_on_c, 0, 67, 60
2, 129465, Note_on_c, 0, 75, 0
2, 129554, Control_c, 0, 64, 94
2, 129572, Control_c, 0, 64, 75
2, 129591, Control_c, 0, 64, 61
2, 129611, Control_c, 0, 64, 49
2, 129628, Control_c, 0, 64, 38
2, 129644, Note_on_c, 0, 55, 0
2, 129648, Control_c, 0, 64, 35
2, 129687, Control_c, 0, 64, 36
2, 129705, Control_c, 0, 64, 38
2, 129726, Control_c, 0, 64, 42
2, 129743, Control_c, 0, 64, 46
2, 129764, Control_c, 0, 64, 51
2, 129781, Control_c, 0, 64, 58
2, 129803, Control_c, 0, 64, 61
2, 129825, Control_c, 0, 64, 62
2, 129844, Control_c, 0, 64, 63
2, 129859, Control_c, 0, 64, 65
2, 129878, Control_c, 0, 64, 68
2, 129897, Control_c, 0, 64, 72
2, 129919, Control_c, 0, 64, 78
2, 129936, Control_c, 0, 64, 83
2, 129955, Control_c, 0, 64, 87
2, 129974, Control_c, 0, 64, 90
2, 129994, Control_c, 0, 64, 92
2, 130012, Control_c, 0, 64, 94
2, 130031, Control_c, 0, 64, 99
2, 130053, Control_c, 0, 64, 110
2, 130070, Control_c, 0, 64, 127
2, 130194, Note_on_c, 0, 67, 0
2, 130200, Note_on_c, 0, 70, 62
2, 130321, Control_c, 0, 64, 110
2, 130341, Control_c, 0, 64, 95
2, 130356, Note_on_c, 0, 70, 0
2, 130360, Control_c, 0, 64, 79
2, 130376, Note_on_c, 0, 68, 54
2, 130381, Control_c, 0, 64, 66
2, 130397, Control_c, 0, 64, 57
2, 130417, Control_c, 0, 64, 43
2, 130437, Control_c, 0, 64, 35
2, 130454, Control_c, 0, 64, 34
2, 130513, Control_c, 0, 64, 36
2, 130530, Control_c, 0, 64, 41
2, 130549, Control_c, 0, 64, 48
2, 130570, Control_c, 0, 64, 57
2, 130592, Control_c, 0, 64, 62
2, 130607, Control_c, 0, 64, 63
2, 130629, Control_c, 0, 64, 64
2, 130648, Control_c, 0, 64, 66
2, 130665, Control_c, 0, 64, 70
2, 130684, Control_c, 0, 64, 79
2, 130706, Control_c, 0, 64, 87
2, 130725, Control_c, 0, 64, 94
2, 130742, Control_c, 0, 64, 100
2, 130762, Control_c, 0, 64, 108
2, 130782, Control_c, 0, 64, 127
2, 130805, Note_on_c, 0, 60, 0
2, 131156, Note_on_c, 0, 60, 51
2, 131328, Note_on_c, 0, 72, 63
2, 131341, Note_on_c, 0, 55, 58
2, 131347, Note_on_c, 0, 68, 0
2, 131433, Control_c, 0, 64, 102
2, 131454, Control_c, 0, 64, 79
2, 131474, Control_c, 0, 64, 65
2, 131490, Control_c, 0, 64, 54
2, 131513, Control_c, 0, 64, 41
2, 131529, Control_c, 0, 64, 38
2, 131542, Note_on_c, 0, 60, 0
2, 131572, Control_c, 0, 64, 40
2, 131589, Control_c, 0, 64, 42
2, 131606, Control_c, 0, 64, 44
2, 131625, Control_c, 0, 64, 49
2, 131647, Control_c, 0, 64, 57
2, 131667, Control_c, 0, 64, 61
2, 131682, Control_c, 0, 64, 62
2, 131705, Control_c, 0, 64, 63
2, 131723, Control_c, 0, 64, 65
2, 131743, Control_c, 0, 64, 69
2, 131759, Control_c, 0, 64, 75
2, 131781, Control_c, 0, 64, 81
2, 131801, Control_c, 0, 64, 90
2, 131819, Control_c, 0, 64, 95
2, 131837, Control_c, 0, 64, 101
2, 131856, Control_c, 0, 64, 106
2, 131874, Control_c, 0, 64, 111
2, 131894, Control_c, 0, 64, 120
2, 131912, Control_c, 0, 64, 127
2, 132173, Note_on_c, 0, 58, 69
2, 132319, Note_on_c, 0, 63, 0
2, 132323, Note_on_c, 0, 55, 0
2, 132364, Note_on_c, 0, 62, 52
2, 132372, Note_on_c, 0, 72, 0
2, 132376, Note_on_c, 0, 57, 60
2, 132376, Note_on_c, 0, 66, 61
2, 132414, Control_c, 0, 64, 105
2, 132435, Control_c, 0, 64, 80
2, 132453, Control_c, 0, 64, 64
2, 132457, Note_on_c, 0, 58, 0
2, 132473, Control_c, 0, 64, 47
2, 132491, Control_c, 0, 64, 25
2, 132509, Control_c, 0, 64, 11
2, 132551, Control_c, 0, 64, 19
2, 132566, Control_c, 0, 64, 29
2, 132586, Control_c, 0, 64, 38
2, 132604, Control_c, 0, 64, 50
2, 132627, Control_c, 0, 64, 61
2, 132643, Control_c, 0, 64, 64
2, 132661, Control_c, 0, 64, 65
2, 132683, Control_c, 0, 64, 67
2, 132701, Control_c, 0, 64, 72
2, 132719, Control_c, 0, 64, 81
2, 132739, Control_c, 0, 64, 96
2, 132762, Control_c, 0, 64, 127
2, 132803, Note_on_c, 0, 48, 0
2, 133217, Note_on_c, 0, 50, 65
2, 133279, Note_on_c, 0, 50, 0
2, 133398, Note_on_c, 0, 45, 78
2, 133489, Control_c, 0, 64, 94
2, 133509, Control_c, 0, 64, 72
2, 133527, Control_c, 0, 64, 60
2, 133546, Control_c, 0, 64, 51
2, 133565, Control_c, 0, 64, 52
2, 133582, Control_c, 0, 64, 57
2, 133604, Control_c, 0, 64, 60
2, 133623, Control_c, 0, 64, 62
2, 133641, Control_c, 0, 64, 64
2, 133659, Control_c, 0, 64, 67
2, 133679, Control_c, 0, 64, 73
2, 133700, Control_c, 0, 64, 82
2, 133720, Control_c, 0, 64, 97
2, 133738, Control_c, 0, 64, 115
2, 133756, Control_c, 0, 64, 127
2, 134164, Note_on_c, 0, 57, 0
2, 134217, Note_on_c, 0, 48, 78
2, 134400, Note_on_c, 0, 46, 78
2, 134405, Note_on_c, 0, 67, 72
2, 134409, Note_on_c, 0, 58, 66
2, 134460, Note_on_c, 0, 45, 0
2, 134492, Note_on_c, 0, 66, 0
2, 134543, Control_c, 0, 64, 94
2, 134543, Note_on_c, 0, 48, 0
2, 134567, Control_c, 0, 64, 72
2, 134584, Control_c, 0, 64, 58
2, 134602, Control_c, 0, 64, 35
2, 134621, Control_c, 0, 64, 0
2, 134701, Control_c, 0, 64, 17
2, 134718, Control_c, 0, 64, 35
2, 134740, Control_c, 0, 64, 51
2, 134756, Control_c, 0, 64, 61
2, 134775, Control_c, 0, 64, 64
2, 134793, Control_c, 0, 64, 66
2, 134812, Control_c, 0, 64, 71
2, 134832, Control_c, 0, 64, 81
2, 134853, Control_c, 0, 64, 101
2, 134871, Control_c, 0, 64, 127
2, 134884, Note_on_c, 0, 46, 0
2, 135177, Note_on_c, 0, 43, 80
2, 135254, Note_on_c, 0, 43, 0
2, 135381, Note_on_c, 0, 38, 70
2, 135428, Control_c, 0, 64, 120
2, 135447, Control_c, 0, 64, 87
2, 135467, Control_c, 0, 64, 70
2, 135485, Control_c, 0, 64, 60
2, 135505, Control_c, 0, 64, 46
2, 135523, Control_c, 0, 64, 34
2, 135542, Control_c, 0, 64, 27
2, 135564, Control_c, 0, 64, 22
2, 135584, Control_c, 0, 64, 11
2, 135601, Control_c, 0, 64, 0
2, 135659, Control_c, 0, 64, 21
2, 135676, Control_c, 0, 64, 30
2, 135697, Control_c, 0, 64, 39
2, 135715, Control_c, 0, 64, 52
2, 135735, Control_c, 0, 64, 61
2, 135755, Control_c, 0, 64, 64
2, 135793, Control_c, 0, 64, 66
2, 135811, Control_c, 0, 64, 71
2, 135831, Control_c, 0, 64, 81
2, 135851, Control_c, 0, 64, 96
2, 135869, Control_c, 0, 64, 111
2, 135889, Control_c, 0, 64, 122
2, 135908, Control_c, 0, 64, 127
2, 135915, Note_on_c, 0, 38, 0
2, 136405, Note_on_c, 0, 41, 56
2, 136489, Note_on_c, 0, 41, 0
2, 136656, Control_c, 0, 64, 103
2, 136676, Control_c, 0, 64, 86
2, 136687, Note_on_c, 0, 39, 45
2, 136695, Control_c, 0, 64, 72
2, 136715, Control_c, 0, 64, 64
2, 136736, Control_c, 0, 64, 56
2, 136755, Control_c, 0, 64, 48
2, 136770, Control_c, 0, 64, 41
2, 136790, Control_c, 0, 64, 30
2, 136810, Control_c, 0, 64, 0
2, 136964, Control_c, 0, 64, 16
2, 136984, Control_c, 0, 64, 30
2, 137001, Control_c, 0, 64, 43
2, 137020, Control_c, 0, 64, 57
2, 137041, Control_c, 0, 64, 63
2, 137077, Control_c, 0, 64, 65
2, 137098, Control_c, 0, 64, 68
2, 137116, Control_c, 0, 64, 77
2, 137139, Control_c, 0, 64, 95
2, 137154, Control_c, 0, 64, 127
2, 137286, Note_on_c, 0, 39, 0
2, 137303, Note_on_c, 0, 62, 0
2, 137864, Note_on_c, 0, 67, 0
2, 137923, Note_on_c, 0, 66, 45
2, 138129, Note_on_c, 0, 51, 42
2, 138129, Note_on_c, 0, 67, 50
2, 138158, Note_on_c, 0, 66, 0
2, 138231, Control_c, 0, 64, 103
2, 138248, Control_c, 0, 64, 90
2, 138270, Control_c, 0, 64, 76
2, 138289, Control_c, 0, 64, 67
2, 138310, Control_c, 0, 64, 61
2, 138326, Control_c, 0, 64, 58
2, 138385, Control_c, 0, 64, 57
2, 138423, Control_c, 0, 64, 56
2, 138444, Control_c, 0, 64, 55
2, 138461, Control_c, 0, 64, 54
2, 138499, Control_c, 0, 64, 53
2, 138518, Control_c, 0, 64, 52
2, 138541, Control_c, 0, 64, 51
2, 138577, Control_c, 0, 64, 52
2, 138594, Control_c, 0, 64, 53
2, 138614, Control_c, 0, 64, 55
2, 138633, Control_c, 0, 64, 56
2, 138653, Control_c, 0, 64, 57
2, 138671, Control_c, 0, 64, 59
2, 138691, Control_c, 0, 64, 60
2, 138711, Control_c, 0, 64, 62
2, 138729, Control_c, 0, 64, 63
2, 138749, Control_c, 0, 64, 65
2, 138769, Control_c, 0, 64, 68
2, 138786, Control_c, 0, 64, 73
2, 138806, Control_c, 0, 64, 81
2, 138826, Control_c, 0, 64, 92
2, 138834, Note_on_c, 0, 58, 0
2, 138844, Control_c, 0, 64, 110
2, 138864, Control_c, 0, 64, 127
2, 138936, Note_on_c, 0, 50, 43
2, 138941, Note_on_c, 0, 70, 55
2, 138945, Note_on_c, 0, 51, 0
2, 139019, Note_on_c, 0, 67, 0
2, 139114, Control_c, 0, 64, 99
2, 139128, Note_on_c, 0, 51, 47
2, 139132, Control_c, 0, 64, 84
2, 139141, Note_on_c, 0, 61, 57
2, 139153, Control_c, 0, 64, 72
2, 139175, Control_c, 0, 64, 63
2, 139191, Control_c, 0, 64, 53
2, 139197, Note_on_c, 0, 50, 0
2, 139209, Control_c, 0, 64, 42
2, 139228, Control_c, 0, 64, 32
2, 139248, Control_c, 0, 64, 28
2, 139269, Control_c, 0, 64, 27
2, 139326, Control_c, 0, 64, 31
2, 139344, Control_c, 0, 64, 38
2, 139364, Control_c, 0, 64, 47
2, 139386, Control_c, 0, 64, 55
2, 139402, Control_c, 0, 64, 61
2, 139421, Control_c, 0, 64, 63
2, 139443, Control_c, 0, 64, 65
2, 139459, Control_c, 0, 64, 68
2, 139479, Control_c, 0, 64, 74
2, 139498, Control_c, 0, 64, 88
2, 139513, Note_on_c, 0, 70, 0
2, 139517, Control_c, 0, 64, 109
2, 139537, Control_c, 0, 64, 127
2, 139929, Note_on_c, 0, 70, 51
2, 139959, Note_on_c, 0, 54, 50
2, 140130, Note_on_c, 0, 69, 62
2, 140148, Note_on_c, 0, 52, 58
2, 140148, Note_on_c, 0, 55, 56
2, 140213, Control_c, 0, 64, 110
2, 140213, Note_on_c, 0, 70, 0
2, 140232, Control_c, 0, 64, 87
2, 140244, Note_on_c, 0, 54, 0
2, 140253, Control_c, 0, 64, 71
2, 140270, Control_c, 0, 64, 61
2, 140291, Control_c, 0, 64, 50
2, 140291, Note_on_c, 0, 51, 0
2, 140311, Control_c, 0, 64, 38
2, 140328, Control_c, 0, 64, 32
2, 140348, Control_c, 0, 64, 31
2, 140405, Control_c, 0, 64, 32
2, 140423, Control_c, 0, 64, 35
2, 140446, Control_c, 0, 64, 41
2, 140464, Control_c, 0, 64, 49
2, 140482, Control_c, 0, 64, 57
2, 140500, Control_c, 0, 64, 62
2, 140519, Control_c, 0, 64, 63
2, 140538, Control_c, 0, 64, 65
2, 140560, Control_c, 0, 64, 68
2, 140580, Control_c, 0, 64, 74
2, 140597, Control_c, 0, 64, 84
2, 140615, Control_c, 0, 64, 96
2, 140635, Control_c, 0, 64, 109
2, 140656, Control_c, 0, 64, 127
2, 140720, Note_on_c, 0, 61, 0
2, 140829, Note_on_c, 0, 55, 0
2, 140949, Note_on_c, 0, 67, 63
2, 140958, Note_on_c, 0, 57, 67
2, 140996, Note_on_c, 0, 52, 0
2, 141050, Note_on_c, 0, 57, 0
2, 141149, Note_on_c, 0, 58, 69
2, 141152, Note_on_c, 0, 66, 68
2, 141163, Note_on_c, 0, 69, 0
2, 141167, Note_on_c, 0, 67, 0
2, 141172, Note_on_c, 0, 62, 59
2, 141179, Note_on_c, 0, 50, 51
2, 141250, Control_c, 0, 64, 94
2, 141270, Control_c, 0, 64, 73
2, 141289, Control_c, 0, 64, 60
2, 141309, Control_c, 0, 64, 49
2, 141326, Control_c, 0, 64, 39
2, 141347, Control_c, 0, 64, 32
2, 141365, Control_c, 0, 64, 28
2, 141384, Control_c, 0, 64, 25
2, 141403, Control_c, 0, 64, 23
2, 141443, Control_c, 0, 64, 24
2, 141461, Control_c, 0, 64, 29
2, 141480, Control_c, 0, 64, 36
2, 141500, Control_c, 0, 64, 45
2, 141518, Control_c, 0, 64, 56
2, 141538, Control_c, 0, 64, 62
2, 141561, Control_c, 0, 64, 64
2, 141576, Control_c, 0, 64, 66
2, 141598, Control_c, 0, 64, 69
2, 141615, Control_c, 0, 64, 76
2, 141635, Control_c, 0, 64, 85
2, 141656, Control_c, 0, 64, 92
2, 141672, Control_c, 0, 64, 96
2, 141692, Control_c, 0, 64, 99
2, 141712, Control_c, 0, 64, 101
2, 141730, Control_c, 0, 64, 103
2, 141748, Control_c, 0, 64, 105
2, 141768, Control_c, 0, 64, 106
2, 141790, Control_c, 0, 64, 109
2, 141808, Control_c, 0, 64, 110
2, 141826, Control_c, 0, 64, 112
2, 141905, Control_c, 0, 64, 113
2, 141925, Note_on_c, 0, 62, 0
2, 141960, Control_c, 0, 64, 109
2, 141960, Note_on_c, 0, 61, 55
2, 141978, Control_c, 0, 64, 100
2, 141997, Control_c, 0, 64, 89
2, 142016, Control_c, 0, 64, 77
2, 142035, Control_c, 0, 64, 66
2, 142054, Control_c, 0, 64, 56
2, 142074, Control_c, 0, 64, 41
2, 142094, Control_c, 0, 64, 24
2, 142111, Control_c, 0, 64, 15
2, 142127, Note_on_c, 0, 61, 0
2, 142169, Note_on_c, 0, 62, 45
2, 142242, Control_c, 0, 64, 17
2, 142261, Control_c, 0, 64, 25
2, 142284, Control_c, 0, 64, 33
2, 142300, Control_c, 0, 64, 42
2, 142318, Control_c, 0, 64, 54
2, 142338, Control_c, 0, 64, 62
2, 142358, Control_c, 0, 64, 65
2, 142378, Control_c, 0, 64, 66
2, 142396, Control_c, 0, 64, 70
2, 142403, Note_on_c, 0, 66, 0
2, 142417, Control_c, 0, 64, 78
2, 142438, Control_c, 0, 64, 93
2, 142453, Control_c, 0, 64, 127
2, 142559, Note_on_c, 0, 66, 65
2, 143075, Note_on_c, 0, 67, 55
2, 143088, Control_c, 0, 64, 122
2, 143108, Control_c, 0, 64, 102
2, 143125, Control_c, 0, 64, 90
2, 143145, Control_c, 0, 64, 79
2, 143165, Control_c, 0, 64, 69
2, 143187, Control_c, 0, 64, 62
2, 143205, Control_c, 0, 64, 56
2, 143205, Note_on_c, 0, 66, 0
2, 143225, Control_c, 0, 64, 51
2, 143243, Control_c, 0, 64, 48
2, 143262, Control_c, 0, 64, 47
2, 143281, Control_c, 0, 64, 46
2, 143301, Control_c, 0, 64, 45
2, 143339, Control_c, 0, 64, 48
2, 143357, Control_c, 0, 64, 53
2, 143377, Control_c, 0, 64, 58
2, 143397, Control_c, 0, 64, 63
2, 143416, Control_c, 0, 64, 66
2, 143436, Control_c, 0, 64, 70
2, 143454, Control_c, 0, 64, 77
2, 143474, Control_c, 0, 64, 88
2, 143492, Control_c, 0, 64, 109
2, 143509, Control_c, 0, 64, 127
2, 143534, Note_on_c, 0, 58, 0
2, 143811, Note_on_c, 0, 62, 0
2, 143840, Note_on_c, 0, 58, 51
2, 143844, Note_on_c, 0, 61, 46
2, 143969, Control_c, 0, 64, 96
2, 143987, Control_c, 0, 64, 80
2, 144007, Control_c, 0, 64, 68
2, 144027, Control_c, 0, 64, 59
2, 144031, Note_on_c, 0, 61, 0
2, 144043, Note_on_c, 0, 62, 42
2, 144049, Control_c, 0, 64, 49
2, 144049, Note_on_c, 0, 57, 44
2, 144065, Control_c, 0, 64, 45
2, 144065, Note_on_c, 0, 58, 0
2, 144082, Control_c, 0, 64, 44
2, 144179, Control_c, 0, 64, 45
2, 144199, Control_c, 0, 64, 48
2, 144219, Control_c, 0, 64, 50
2, 144239, Control_c, 0, 64, 54
2, 144258, Control_c, 0, 64, 58
2, 144276, Control_c, 0, 64, 60
2, 144295, Control_c, 0, 64, 61
2, 144313, Control_c, 0, 64, 62
2, 144334, Control_c, 0, 64, 64
2, 144351, Control_c, 0, 64, 66
2, 144371, Control_c, 0, 64, 69
2, 144390, Control_c, 0, 64, 75
2, 144410, Control_c, 0, 64, 83
2, 144428, Control_c, 0, 64, 90
2, 144447, Control_c, 0, 64, 97
2, 144466, Control_c, 0, 64, 102
2, 144486, Control_c, 0, 64, 110
2, 144504, Control_c, 0, 64, 127
2, 144798, Note_on_c, 0, 57, 0
2, 144841, Note_on_c, 0, 55, 42
2, 144988, Control_c, 0, 64, 100
2, 145008, Control_c, 0, 64, 79
2, 145026, Control_c, 0, 64, 67
2, 145040, Note_on_c, 0, 55, 0
2, 145045, Control_c, 0, 64, 58
2, 145065, Control_c, 0, 64, 49
2, 145069, Note_on_c, 0, 57, 40
2, 145082, Control_c, 0, 64, 44
2, 145102, Control_c, 0, 64, 42
2, 145198, Control_c, 0, 64, 43
2, 145219, Control_c, 0, 64, 46
2, 145234, Control_c, 0, 64, 49
2, 145254, Control_c, 0, 64, 52
2, 145275, Control_c, 0, 64, 56
2, 145293, Control_c, 0, 64, 60
2, 145312, Control_c, 0, 64, 62
2, 145332, Control_c, 0, 64, 63
2, 145351, Control_c, 0, 64, 65
2, 145371, Control_c, 0, 64, 67
2, 145389, Control_c, 0, 64, 71
2, 145407, Control_c, 0, 64, 77
2, 145427, Control_c, 0, 64, 83
2, 145447, Control_c, 0, 64, 90
2, 145467, Control_c, 0, 64, 95
2, 145487, Control_c, 0, 64, 100
2, 145505, Control_c, 0, 64, 106
2, 145522, Control_c, 0, 64, 127
2, 145836, Note_on_c, 0, 62, 0
2, 145872, Note_on_c, 0, 70, 52
2, 145949, Note_on_c, 0, 67, 0
2, 146072, Note_on_c, 0, 69, 52
2, 146123, Note_on_c, 0, 60, 32
2, 146195, Control_c, 0, 64, 93
2, 146208, Note_on_c, 0, 70, 0
2, 146217, Control_c, 0, 64, 76
2, 146233, Control_c, 0, 64, 64
2, 146253, Control_c, 0, 64, 55
2, 146273, Control_c, 0, 64, 49
2, 146293, Control_c, 0, 64, 46
2, 146330, Control_c, 0, 64, 47
2, 146368, Control_c, 0, 64, 50
2, 146386, Control_c, 0, 64, 53
2, 146409, Control_c, 0, 64, 57
2, 146427, Control_c, 0, 64, 60
2, 146446, Control_c, 0, 64, 62
2, 146464, Control_c, 0, 64, 63
2, 146483, Control_c, 0, 64, 66
2, 146502, Control_c, 0, 64, 69
2, 146524, Control_c, 0, 64, 75
2, 146543, Control_c, 0, 64, 81
2, 146561, Control_c, 0, 64, 88
2, 146580, Control_c, 0, 64, 93
2, 146598, Control_c, 0, 64, 98
2, 146618, Control_c, 0, 64, 102
2, 146637, Control_c, 0, 64, 109
2, 146658, Control_c, 0, 64, 127
2, 146953, Note_on_c, 0, 69, 0
2, 146957, Note_on_c, 0, 72, 55
2, 147117, Control_c, 0, 64, 106
2, 147136, Control_c, 0, 64, 89
2, 147156, Control_c, 0, 64, 74
2, 147165, Note_on_c, 0, 72, 0
2, 147176, Control_c, 0, 64, 64
2, 147176, Note_on_c, 0, 66, 52
2, 147194, Control_c, 0, 64, 52
2, 147212, Control_c, 0, 64, 43
2, 147235, Control_c, 0, 64, 39
2, 147250, Control_c, 0, 64, 38
2, 147290, Control_c, 0, 64, 39
2, 147309, Control_c, 0, 64, 40
2, 147328, Control_c, 0, 64, 43
2, 147347, Control_c, 0, 64, 48
2, 147365, Control_c, 0, 64, 53
2, 147385, Control_c, 0, 64, 58
2, 147406, Control_c, 0, 64, 61
2, 147423, Control_c, 0, 64, 63
2, 147443, Control_c, 0, 64, 64
2, 147464, Control_c, 0, 64, 66
2, 147480, Control_c, 0, 64, 70
2, 147500, Control_c, 0, 64, 77
2, 147520, Control_c, 0, 64, 84
2, 147538, Control_c, 0, 64, 90
2, 147556, Control_c, 0, 64, 93
2, 147577, Control_c, 0, 64, 95
2, 147597, Control_c, 0, 64, 100
2, 147616, Control_c, 0, 64, 115
2, 147636, Control_c, 0, 64, 127
2, 148028, Note_on_c, 0, 63, 47
2, 148174, Control_c, 0, 64, 104
2, 148185, Note_on_c, 0, 63, 0
2, 148192, Control_c, 0, 64, 89
2, 148210, Control_c, 0, 64, 74
2, 148230, Note_on_c, 0, 62, 47
2, 148234, Control_c, 0, 64, 64
2, 148250, Control_c, 0, 64, 55
2, 148269, Control_c, 0, 64, 46
2, 148287, Control_c, 0, 64, 42
2, 148307, Control_c, 0, 64, 41
2, 148336, Note_on_c, 0, 60, 0
2, 148365, Control_c, 0, 64, 42
2, 148386, Control_c, 0, 64, 44
2, 148403, Control_c, 0, 64, 48
2, 148422, Control_c, 0, 64, 52
2, 148442, Control_c, 0, 64, 58
2, 148462, Control_c, 0, 64, 61
2, 148481, Control_c, 0, 64, 63
2, 148500, Control_c, 0, 64, 64
2, 148518, Control_c, 0, 64, 67
2, 148537, Control_c, 0, 64, 72
2, 148558, Control_c, 0, 64, 80
2, 148577, Control_c, 0, 64, 93
2, 148596, Control_c, 0, 64, 104
2, 148616, Control_c, 0, 64, 115
2, 148634, Control_c, 0, 64, 127
2, 148748, Note_on_c, 0, 57, 0
2, 149195, Note_on_c, 0, 60, 40
2, 149440, Note_on_c, 0, 62, 0
2, 149492, Note_on_c, 0, 43, 34
2, 149503, Note_on_c, 0, 67, 38
2, 149510, Note_on_c, 0, 55, 22
2, 149606, Note_on_c, 0, 66, 0
2, 149671, Control_c, 0, 64, 103
2, 149689, Control_c, 0, 64, 83
2, 149693, Note_on_c, 0, 50, 0
2, 149710, Control_c, 0, 64, 70
2, 149729, Control_c, 0, 64, 61
2, 149747, Control_c, 0, 64, 52
2, 149766, Control_c, 0, 64, 46
2, 149786, Control_c, 0, 64, 45
2, 149844, Control_c, 0, 64, 46
2, 149864, Control_c, 0, 64, 48
2, 149880, Control_c, 0, 64, 51
2, 149901, Control_c, 0, 64, 54
2, 149919, Control_c, 0, 64, 58
2, 149940, Control_c, 0, 64, 60
2, 149959, Control_c, 0, 64, 62
2, 149979, Control_c, 0, 64, 63
2, 149998, Control_c, 0, 64, 66
2, 150016, Control_c, 0, 64, 69
2, 150033, Control_c, 0, 64, 73
2, 150053, Control_c, 0, 64, 78
2, 150074, Control_c, 0, 64, 82
2, 150092, Control_c, 0, 64, 89
2, 150112, Control_c, 0, 64, 94
2, 150130, Control_c, 0, 64, 99
2, 150150, Control_c, 0, 64, 102
2, 150170, Control_c, 0, 64, 104
2, 150188, Control_c, 0, 64, 105
2, 150210, Control_c, 0, 64, 107
2, 150228, Control_c, 0, 64, 110
2, 150249, Control_c, 0, 64, 113
2, 150267, Control_c, 0, 64, 115
2, 150285, Control_c, 0, 64, 116
2, 150324, Note_on_c, 0, 60, 0
2, 150344, Note_on_c, 0, 57, 53
2, 150361, Control_c, 0, 64, 118
2, 150459, Control_c, 0, 64, 116
2, 150476, Control_c, 0, 64, 112
2, 150495, Control_c, 0, 64, 106
2, 150516, Control_c, 0, 64, 98
2, 150527, Note_on_c, 0, 57, 0
2, 150536, Control_c, 0, 64, 90
2, 150552, Control_c, 0, 64, 80
2, 150557, Note_on_c, 0, 59, 47
2, 150575, Control_c, 0, 64, 70
2, 150591, Control_c, 0, 64, 62
2, 150610, Control_c, 0, 64, 54
2, 150630, Control_c, 0, 64, 47
2, 150648, Control_c, 0, 64, 42
2, 150666, Control_c, 0, 64, 40
2, 150742, Control_c, 0, 64, 43
2, 150761, Control_c, 0, 64, 47
2, 150781, Control_c, 0, 64, 55
2, 150800, Control_c, 0, 64, 60
2, 150819, Control_c, 0, 64, 63
2, 150841, Control_c, 0, 64, 64
2, 150857, Control_c, 0, 64, 67
2, 150876, Control_c, 0, 64, 70
2, 150896, Control_c, 0, 64, 77
2, 150916, Control_c, 0, 64, 86
2, 150926, Note_on_c, 0, 67, 0
2, 150937, Control_c, 0, 64, 94
2, 150954, Control_c, 0, 64, 99
2, 150974, Control_c, 0, 64, 102
2, 150992, Control_c, 0, 64, 106
2, 151012, Control_c, 0, 64, 110
2, 151031, Control_c, 0, 64, 127
2, 151353, Note_on_c, 0, 65, 48
2, 151511, Control_c, 0, 64, 104
2, 151530, Control_c, 0, 64, 92
2, 151548, Control_c, 0, 64, 81
2, 151563, Note_on_c, 0, 63, 44
2, 151569, Control_c, 0, 64, 70
2, 151585, Note_on_c, 0, 65, 0
2, 151587, Control_c, 0, 64, 62
2, 151607, Control_c, 0, 64, 53
2, 151625, Control_c, 0, 64, 47
2, 151644, Control_c, 0, 64, 44
2, 151665, Control_c, 0, 64, 43
2, 151741, Control_c, 0, 64, 45
2, 151761, Control_c, 0, 64, 49
2, 151779, Control_c, 0, 64, 54
2, 151797, Control_c, 0, 64, 58
2, 151817, Control_c, 0, 64, 62
2, 151837, Control_c, 0, 64, 64
2, 151855, Control_c, 0, 64, 66
2, 151874, Control_c, 0, 64, 71
2, 151895, Control_c, 0, 64, 79
2, 151915, Control_c, 0, 64, 90
2, 151933, Control_c, 0, 64, 103
2, 151933, Note_on_c, 0, 59, 0
2, 151955, Control_c, 0, 64, 115
2, 151972, Control_c, 0, 64, 127
2, 152310, Note_on_c, 0, 59, 48
2, 152472, Control_c, 0, 64, 102
2, 152490, Control_c, 0, 64, 86
2, 152500, Note_on_c, 0, 59, 0
2, 152511, Control_c, 0, 64, 72
2, 152524, Note_on_c, 0, 60, 44
2, 152528, Control_c, 0, 64, 63
2, 152548, Control_c, 0, 64, 54
2, 152566, Control_c, 0, 64, 47
2, 152604, Control_c, 0, 64, 46
2, 152661, Control_c, 0, 64, 47
2, 152680, Control_c, 0, 64, 49
2, 152703, Control_c, 0, 64, 53
2, 152720, Control_c, 0, 64, 56
2, 152739, Control_c, 0, 64, 59
2, 152757, Control_c, 0, 64, 62
2, 152777, Control_c, 0, 64, 64
2, 152795, Control_c, 0, 64, 68
2, 152819, Control_c, 0, 64, 73
2, 152838, Control_c, 0, 64, 84
2, 152855, Control_c, 0, 64, 97
2, 152873, Control_c, 0, 64, 127
2, 153011, Note_on_c, 0, 63, 0
2, 153334, Note_on_c, 0, 55, 0
2, 153377, Note_on_c, 0, 63, 47
2, 153404, Note_on_c, 0, 54, 13
2, 153603, Note_on_c, 0, 54, 0
2, 153612, Note_on_c, 0, 62, 49
2, 153623, Control_c, 0, 64, 118
2, 153627, Note_on_c, 0, 55, 32
2, 153641, Control_c, 0, 64, 95
2, 153662, Control_c, 0, 64, 81
2, 153678, Note_on_c, 0, 63, 0
2, 153683, Control_c, 0, 64, 67
2, 153700, Control_c, 0, 64, 60
2, 153721, Control_c, 0, 64, 52
2, 153741, Control_c, 0, 64, 48
2, 153756, Control_c, 0, 64, 46
2, 153778, Control_c, 0, 64, 45
2, 153834, Control_c, 0, 64, 47
2, 153856, Control_c, 0, 64, 51
2, 153874, Control_c, 0, 64, 55
2, 153891, Control_c, 0, 64, 58
2, 153911, Control_c, 0, 64, 61
2, 153932, Control_c, 0, 64, 63
2, 153952, Control_c, 0, 64, 67
2, 153967, Control_c, 0, 64, 72
2, 153988, Control_c, 0, 64, 80
2, 154003, Note_on_c, 0, 60, 0
2, 154007, Control_c, 0, 64, 91
2, 154027, Control_c, 0, 64, 105
2, 154044, Control_c, 0, 64, 127
2, 154445, Note_on_c, 0, 60, 41
2, 154603, Note_on_c, 0, 60, 0
2, 154605, Control_c, 0, 64, 100
2, 154621, Control_c, 0, 64, 82
2, 154641, Control_c, 0, 64, 67
2, 154659, Control_c, 0, 64, 57
2, 154677, Control_c, 0, 64, 48
2, 154684, Note_on_c, 0, 59, 34
2, 154697, Control_c, 0, 64, 42
2, 154717, Control_c, 0, 64, 41
2, 154774, Control_c, 0, 64, 44
2, 154796, Control_c, 0, 64, 50
2, 154816, Control_c, 0, 64, 56
2, 154831, Control_c, 0, 64, 62
2, 154851, Control_c, 0, 64, 64
2, 154869, Control_c, 0, 64, 68
2, 154880, Note_on_c, 0, 59, 0
2, 154889, Control_c, 0, 64, 73
2, 154909, Control_c, 0, 64, 86
2, 154918, Note_on_c, 0, 62, 0
2, 154931, Control_c, 0, 64, 103
2, 154948, Control_c, 0, 64, 127
2, 154982, Note_on_c, 0, 55, 0
2, 155434, Note_on_c, 0, 67, 53
2, 155439, Note_on_c, 0, 53, 41
2, 155505, Note_on_c, 0, 53, 0
2, 155512, Note_on_c, 0, 67, 0
2, 155568, Note_on_c, 0, 51, 52
2, 155798, Note_on_c, 0, 50, 43
2, 155855, Note_on_c, 0, 77, 74
2, 155965, Note_on_c, 0, 51, 0
2, 155983, Control_c, 0, 64, 89
2, 156005, Control_c, 0, 64, 70
2, 156022, Control_c, 0, 64, 57
2, 156042, Control_c, 0, 64, 44
2, 156061, Control_c, 0, 64, 36
2, 156099, Control_c, 0, 64, 38
2, 156119, Control_c, 0, 64, 42
2, 156137, Control_c, 0, 64, 47
2, 156157, Control_c, 0, 64, 57
2, 156175, Control_c, 0, 64, 63
2, 156196, Control_c, 0, 64, 65
2, 156213, Control_c, 0, 64, 67
2, 156234, Control_c, 0, 64, 71
2, 156253, Control_c, 0, 64, 79
2, 156272, Control_c, 0, 64, 89
2, 156283, Note_on_c, 0, 43, 0
2, 156289, Control_c, 0, 64, 103
2, 156311, Control_c, 0, 64, 116
2, 156333, Control_c, 0, 64, 127
2, 156587, Note_on_c, 0, 50, 0
2, 156620, Note_on_c, 0, 72, 54
2, 156633, Note_on_c, 0, 43, 40
2, 156783, Note_on_c, 0, 72, 0
2, 156837, Note_on_c, 0, 71, 50
2, 156848, Control_c, 0, 64, 93
2, 156870, Control_c, 0, 64, 73
2, 156870, Note_on_c, 0, 55, 31
2, 156887, Control_c, 0, 64, 61
2, 156906, Control_c, 0, 64, 47
2, 156926, Control_c, 0, 64, 34
2, 156943, Control_c, 0, 64, 30
2, 157005, Control_c, 0, 64, 32
2, 157021, Control_c, 0, 64, 36
2, 157038, Control_c, 0, 64, 43
2, 157060, Control_c, 0, 64, 51
2, 157082, Control_c, 0, 64, 59
2, 157097, Control_c, 0, 64, 62
2, 157115, Control_c, 0, 64, 63
2, 157136, Control_c, 0, 64, 65
2, 157156, Control_c, 0, 64, 68
2, 157176, Control_c, 0, 64, 74
2, 157193, Control_c, 0, 64, 83
2, 157213, Control_c, 0, 64, 93
2, 157233, Control_c, 0, 64, 99
2, 157246, Note_on_c, 0, 77, 0
2, 157251, Control_c, 0, 64, 102
2, 157271, Control_c, 0, 64, 104
2, 157289, Control_c, 0, 64, 112
2, 157309, Control_c, 0, 64, 127
2, 157659, Note_on_c, 0, 74, 62
2, 157775, Note_on_c, 0, 74, 0
2, 157878, Note_on_c, 0, 75, 61
2, 157922, Control_c, 0, 64, 106
2, 157941, Control_c, 0, 64, 81
2, 157960, Control_c, 0, 64, 67
2, 157982, Control_c, 0, 64, 56
2, 158000, Control_c, 0, 64, 43
2, 158019, Control_c, 0, 64, 34
2, 158038, Control_c, 0, 64, 33
2, 158078, Control_c, 0, 64, 35
2, 158096, Control_c, 0, 64, 40
2, 158114, Control_c, 0, 64, 46
2, 158134, Control_c, 0, 64, 55
2, 158155, Control_c, 0, 64, 62
2, 158173, Control_c, 0, 64, 64
2, 158191, Control_c, 0, 64, 66
2, 158210, Control_c, 0, 64, 70
2, 158232, Control_c, 0, 64, 76
2, 158249, Control_c, 0, 64, 85
2, 158256, Note_on_c, 0, 71, 0
2, 158269, Control_c, 0, 64, 94
2, 158287, Control_c, 0, 64, 103
2, 158310, Control_c, 0, 64, 116
2, 158326, Control_c, 0, 64, 127
2, 158339, Note_on_c, 0, 55, 0
2, 158715, Note_on_c, 0, 67, 47
2, 158747, Note_on_c, 0, 53, 36
2, 158902, Control_c, 0, 64, 100
2, 158921, Control_c, 0, 64, 80
2, 158937, Note_on_c, 0, 67, 0
2, 158941, Control_c, 0, 64, 66
2, 158950, Note_on_c, 0, 72, 52
2, 158961, Control_c, 0, 64, 56
2, 158970, Note_on_c, 0, 51, 37
2, 158980, Control_c, 0, 64, 45
2, 158980, Note_on_c, 0, 53, 0
2, 158999, Control_c, 0, 64, 38
2, 159021, Control_c, 0, 64, 37
2, 159076, Control_c, 0, 64, 39
2, 159093, Control_c, 0, 64, 43
2, 159113, Control_c, 0, 64, 47
2, 159133, Control_c, 0, 64, 53
2, 159151, Control_c, 0, 64, 59
2, 159170, Control_c, 0, 64, 62
2, 159190, Control_c, 0, 64, 63
2, 159209, Control_c, 0, 64, 64
2, 159229, Control_c, 0, 64, 66
2, 159247, Control_c, 0, 64, 70
2, 159269, Control_c, 0, 64, 76
2, 159273, Note_on_c, 0, 75, 0
2, 159288, Control_c, 0, 64, 83
2, 159306, Control_c, 0, 64, 90
2, 159326, Control_c, 0, 64, 95
2, 159347, Control_c, 0, 64, 100
2, 159362, Control_c, 0, 64, 106
2, 159384, Control_c, 0, 64, 115
2, 159402, Control_c, 0, 64, 127
2, 159844, Note_on_c, 0, 74, 55
2, 159880, Note_on_c, 0, 55, 29
2, 160017, Note_on_c, 0, 74, 0
2, 160091, Note_on_c, 0, 75, 60
2, 160106, Note_on_c, 0, 51, 0
2, 160115, Control_c, 0, 64, 112
2, 160117, Note_on_c, 0, 48, 42
2, 160132, Control_c, 0, 64, 91
2, 160152, Control_c, 0, 64, 73
2, 160169, Control_c, 0, 64, 62
2, 160187, Control_c, 0, 64, 49
2, 160209, Control_c, 0, 64, 35
2, 160230, Control_c, 0, 64, 28
2, 160303, Control_c, 0, 64, 30
2, 160323, Control_c, 0, 64, 34
2, 160343, Control_c, 0, 64, 39
2, 160363, Control_c, 0, 64, 44
2, 160370, Note_on_c, 0, 55, 0
2, 160381, Control_c, 0, 64, 52
2, 160400, Control_c, 0, 64, 59
2, 160419, Control_c, 0, 64, 61
2, 160437, Control_c, 0, 64, 62
2, 160457, Control_c, 0, 64, 64
2, 160477, Control_c, 0, 64, 66
2, 160498, Control_c, 0, 64, 69
2, 160498, Note_on_c, 0, 72, 0
2, 160514, Control_c, 0, 64, 73
2, 160537, Control_c, 0, 64, 79
2, 160554, Control_c, 0, 64, 86
2, 160573, Control_c, 0, 64, 92
2, 160590, Control_c, 0, 64, 96
2, 160611, Control_c, 0, 64, 101
2, 160630, Control_c, 0, 64, 107
2, 160648, Control_c, 0, 64, 115
2, 160668, Control_c, 0, 64, 127
2, 160677, Note_on_c, 0, 75, 0
2, 161147, Note_on_c, 0, 51, 50
2, 161154, Note_on_c, 0, 72, 54
2, 161226, Control_c, 0, 64, 107
2, 161246, Control_c, 0, 64, 88
2, 161246, Note_on_c, 0, 48, 0
2, 161251, Note_on_c, 0, 51, 0
2, 161266, Control_c, 0, 64, 74
2, 161283, Control_c, 0, 64, 64
2, 161292, Note_on_c, 0, 50, 40
2, 161302, Control_c, 0, 64, 56
2, 161320, Control_c, 0, 64, 48
2, 161344, Control_c, 0, 64, 42
2, 161359, Control_c, 0, 64, 38
2, 161377, Control_c, 0, 64, 34
2, 161386, Note_on_c, 0, 50, 0
2, 161399, Control_c, 0, 64, 25
2, 161418, Control_c, 0, 64, 11
2, 161438, Control_c, 0, 64, 0
2, 161445, Note_on_c, 0, 51, 41
2, 161462, Note_on_c, 0, 79, 70
2, 161628, Control_c, 0, 64, 11
2, 161649, Control_c, 0, 64, 31
2, 161669, Control_c, 0, 64, 46
2, 161685, Control_c, 0, 64, 58
2, 161705, Control_c, 0, 64, 62
2, 161724, Control_c, 0, 64, 63
2, 161743, Note_on_c, 0, 79, 0
2, 161747, Control_c, 0, 64, 64
2, 161763, Control_c, 0, 64, 66
2, 161782, Control_c, 0, 64, 71
2, 161801, Control_c, 0, 64, 80
2, 161820, Control_c, 0, 64, 90
2, 161838, Control_c, 0, 64, 100
2, 161858, Control_c, 0, 64, 109
2, 161878, Control_c, 0, 64, 127
2, 162770, Note_on_c, 0, 78, 53
2, 162874, Note_on_c, 0, 78, 0
2, 163026, Note_on_c, 0, 50, 30
2, 163032, Note_on_c, 0, 79, 58
2, 163107, Control_c, 0, 64, 100
2, 163125, Control_c, 0, 64, 80
2, 163145, Control_c, 0, 64, 67
2, 163165, Control_c, 0, 64, 55
2, 163183, Control_c, 0, 64, 45
2, 163199, Note_on_c, 0, 51, 0
2, 163203, Control_c, 0, 64, 40
2, 163279, Control_c, 0, 64, 41
2, 163299, Control_c, 0, 64, 45
2, 163318, Control_c, 0, 64, 49
2, 163337, Control_c, 0, 64, 54
2, 163356, Control_c, 0, 64, 58
2, 163375, Control_c, 0, 64, 61
2, 163395, Control_c, 0, 64, 62
2, 163413, Control_c, 0, 64, 64
2, 163436, Control_c, 0, 64, 66
2, 163452, Control_c, 0, 64, 70
2, 163473, Control_c, 0, 64, 74
2, 163491, Control_c, 0, 64, 79
2, 163509, Control_c, 0, 64, 85
2, 163521, Note_on_c, 0, 72, 0
2, 163531, Control_c, 0, 64, 90
2, 163549, Control_c, 0, 64, 94
2, 163567, Control_c, 0, 64, 99
2, 163588, Control_c, 0, 64, 107
2, 163605, Control_c, 0, 64, 127
2, 164148, Note_on_c, 0, 72, 44
2, 164411, Note_on_c, 0, 74, 50
2, 164416, Control_c, 0, 64, 99
2, 164433, Control_c, 0, 64, 84
2, 164450, Control_c, 0, 64, 71
2, 164472, Control_c, 0, 64, 63
2, 164490, Control_c, 0, 64, 54
2, 164506, Note_on_c, 0, 72, 0
2, 164510, Control_c, 0, 64, 47
2, 164527, Control_c, 0, 64, 44
2, 164605, Control_c, 0, 64, 45
2, 164623, Control_c, 0, 64, 47
2, 164643, Control_c, 0, 64, 50
2, 164661, Control_c, 0, 64, 52
2, 164683, Control_c, 0, 64, 56
2, 164700, Control_c, 0, 64, 60
2, 164720, Control_c, 0, 64, 62
2, 164742, Control_c, 0, 64, 64
2, 164757, Control_c, 0, 64, 65
2, 164779, Control_c, 0, 64, 67
2, 164795, Control_c, 0, 64, 70
2, 164815, Control_c, 0, 64, 78
2, 164834, Control_c, 0, 64, 87
2, 164854, Control_c, 0, 64, 96
2, 164873, Control_c, 0, 64, 102
2, 164891, Control_c, 0, 64, 106
2, 164914, Control_c, 0, 64, 116
2, 164931, Control_c, 0, 64, 127
2, 165849, Note_on_c, 0, 69, 35
2, 166159, Control_c, 0, 64, 109
2, 166168, Note_on_c, 0, 71, 38
2, 166181, Control_c, 0, 64, 95
2, 166196, Control_c, 0, 64, 81
2, 166219, Control_c, 0, 64, 72
2, 166231, Note_on_c, 0, 69, 0
2, 166236, Control_c, 0, 64, 65
2, 166256, Control_c, 0, 64, 60
2, 166275, Control_c, 0, 64, 59
2, 166332, Control_c, 0, 64, 58
2, 166370, Control_c, 0, 64, 57
2, 166409, Control_c, 0, 64, 55
2, 166429, Control_c, 0, 64, 54
2, 166448, Control_c, 0, 64, 53
2, 166467, Control_c, 0, 64, 52
2, 166504, Control_c, 0, 64, 53
2, 166582, Control_c, 0, 64, 54
2, 166639, Control_c, 0, 64, 55
2, 166832, Control_c, 0, 64, 56
2, 166946, Control_c, 0, 64, 57
2, 166984, Control_c, 0, 64, 58
2, 167004, Control_c, 0, 64, 60
2, 167026, Control_c, 0, 64, 61
2, 167046, Control_c, 0, 64, 62
2, 167064, Control_c, 0, 64, 63
2, 167101, Control_c, 0, 64, 64
2, 167119, Control_c, 0, 64, 65
2, 167138, Control_c, 0, 64, 66
2, 167158, Control_c, 0, 64, 67
2, 167178, Control_c, 0, 64, 68
2, 167195, Control_c, 0, 64, 70
2, 167216, Control_c, 0, 64, 71
2, 167234, Control_c, 0, 64, 73
2, 167255, Control_c, 0, 64, 74
2, 167275, Control_c, 0, 64, 76
2, 167293, Control_c, 0, 64, 78
2, 167313, Control_c, 0, 64, 81
2, 167331, Control_c, 0, 64, 84
2, 167348, Control_c, 0, 64, 85
2, 167388, Control_c, 0, 64, 86
2, 167409, Control_c, 0, 64, 88
2, 167425, Control_c, 0, 64, 91
2, 167445, Control_c, 0, 64, 93
2, 167466, Control_c, 0, 64, 94
2, 167503, Control_c, 0, 64, 96
2, 167522, Control_c, 0, 64, 101
2, 167541, Control_c, 0, 64, 106
2, 167563, Control_c, 0, 64, 111
2, 167580, Control_c, 0, 64, 113
2, 167601, Control_c, 0, 64, 116
2, 167622, Control_c, 0, 64, 127
2, 168830, Note_on_c, 0, 74, 0
2, 168897, Note_on_c, 0, 50, 0
2, 168897, Note_on_c, 0, 79, 0
2, 168908, Note_on_c, 0, 71, 0
2, 169315, Note_on_c, 0, 43, 0
2, 169385, Control_c, 0, 64, 122
2, 169407, Control_c, 0, 64, 111
2, 169425, Control_c, 0, 64, 109
2, 169442, Control_c, 0, 64, 108
2, 169460, Control_c, 0, 64, 106
2, 169480, Control_c, 0, 64, 103
2, 169503, Control_c, 0, 64, 100
2, 169520, Control_c, 0, 64, 98
2, 169540, Control_c, 0, 64, 97
2, 169557, Control_c, 0, 64, 94
2, 169576, Control_c, 0, 64, 90
2, 169597, Control_c, 0, 64, 86
2, 169615, Control_c, 0, 64, 81
2, 169633, Control_c, 0, 64, 76
2, 169653, Control_c, 0, 64, 73
2, 169672, Control_c, 0, 64, 70
2, 169691, Control_c, 0, 64, 68
2, 169710, Control_c, 0, 64, 67
2, 169771, Control_c, 0, 64, 66
2, 169789, Control_c, 0, 64, 65
2, 169827, Control_c, 0, 64, 64
2, 169866, Control_c, 0, 64, 63
2, 169903, Control_c, 0, 64, 62
2, 169941, Control_c, 0, 64, 61
2, 169982, Control_c, 0, 64, 60
2, 170056, Control_c, 0, 64, 59
2, 170113, Control_c, 0, 64, 58
2, 170155, Control_c, 0, 64, 57
2, 170172, Control_c, 0, 64, 56
2, 170249, Control_c, 0, 64, 55
2, 170288, Control_c, 0, 64, 54
2, 170326, Control_c, 0, 64, 53
2, 170345, Control_c, 0, 64, 52
2, 170383, Control_c, 0, 64, 51
2, 170402, Control_c, 0, 64, 49
2, 170421, Control_c, 0, 64, 48
2, 170443, Control_c, 0, 64, 47
2, 170461, Control_c, 0, 64, 45
2, 170479, Control_c, 0, 64, 44
2, 170499, Control_c, 0, 64, 43
2, 170518, Control_c, 0, 64, 42
2, 170538, Control_c, 0, 64, 41
2, 170575, Control_c, 0, 64, 39
2, 170595, Control_c, 0, 64, 27
2, 170613, Control_c, 0, 64, 0
2, 171228, Note_on_c, 0, 62, 76
2, 171536, Note_on_c, 0, 62, 0
2, 172039, Note_on_c, 0, 58, 76
2, 172072, Note_on_c, 0, 58, 0
2, 172339, Note_on_c, 0, 63, 81
2, 172619, Note_on_c, 0, 63, 0
2, 172947, Note_on_c, 0, 60, 79
2, 173301, Note_on_c, 0, 60, 0
2, 173784, Note_on_c, 0, 57, 83
2, 173817, Note_on_c, 0, 57, 0
2, 174088, Note_on_c, 0, 62, 89
2, 174382, Note_on_c, 0, 62, 0
2, 174720, Note_on_c, 0, 58, 81
2, 175087, Note_on_c, 0, 58, 0
2, 175590, Note_on_c, 0, 55, 65
2, 175626, Note_on_c, 0, 55, 0
2, 175882, Note_on_c, 0, 60, 61
2, 175923, Note_on_c, 0, 60, 0
2, 176161, Note_on_c, 0, 60, 72
2, 176203, Note_on_c, 0, 60, 0
2, 176436, Note_on_c, 0, 60, 81
2, 176468, Note_on_c, 0, 60, 0
2, 176716, Note_on_c, 0, 60, 79
2, 176747, Note_on_c, 0, 60, 0
2, 176995, Note_on_c, 0, 60, 64
2, 177019, Note_on_c, 0, 60, 0
2, 177282, Note_on_c, 0, 60, 64
2, 177307, Note_on_c, 0, 60, 0
2, 177576, Note_on_c, 0, 60, 64
2, 177860, Note_on_c, 0, 60, 0
2, 177881, Note_on_c, 0, 58, 55
2, 177914, Note_on_c, 0, 58, 0
2, 178020, Note_on_c, 0, 57, 65
2, 178061, Note_on_c, 0, 57, 0
2, 178150, Note_on_c, 0, 67, 80
2, 178162, Note_on_c, 0, 58, 70
2, 178195, Note_on_c, 0, 58, 0
2, 178292, Note_on_c, 0, 55, 66
2, 178326, Note_on_c, 0, 55, 0
2, 178432, Note_on_c, 0, 58, 77
2, 178470, Note_on_c, 0, 58, 0
2, 178577, Note_on_c, 0, 60, 76
2, 178582, Note_on_c, 0, 67, 0
2, 178611, Note_on_c, 0, 60, 0
2, 178696, Note_on_c, 0, 62, 85
2, 178729, Note_on_c, 0, 62, 0
2, 178843, Note_on_c, 0, 61, 73
2, 178870, Note_on_c, 0, 61, 0
2, 178967, Note_on_c, 0, 65, 84
2, 178969, Note_on_c, 0, 62, 86
2, 179049, Note_on_c, 0, 65, 0
2, 179067, Note_on_c, 0, 62, 0
2, 179265, Note_on_c, 0, 70, 90
2, 179283, Note_on_c, 0, 62, 75
2, 179412, Note_on_c, 0, 62, 0
2, 179551, Note_on_c, 0, 70, 0
2, 179583, Note_on_c, 0, 55, 69
2, 179820, Note_on_c, 0, 55, 0
2, 179872, Note_on_c, 0, 67, 93
2, 180002, Note_on_c, 0, 55, 69
2, 180044, Note_on_c, 0, 55, 0
2, 180141, Note_on_c, 0, 57, 84
2, 180175, Note_on_c, 0, 57, 0
2, 180272, Note_on_c, 0, 58, 81
2, 180303, Note_on_c, 0, 67, 0
2, 180308, Note_on_c, 0, 58, 0
2, 180408, Note_on_c, 0, 60, 83
2, 180440, Note_on_c, 0, 60, 0
2, 180534, Note_on_c, 0, 58, 69
2, 180571, Note_on_c, 0, 58, 0
2, 180671, Note_on_c, 0, 64, 87
2, 180674, Note_on_c, 0, 60, 77
2, 180761, Note_on_c, 0, 64, 0
2, 180806, Note_on_c, 0, 60, 0
2, 180967, Note_on_c, 0, 69, 90
2, 180979, Note_on_c, 0, 60, 74
2, 181093, Note_on_c, 0, 60, 0
2, 181263, Note_on_c, 0, 69, 0
2, 181274, Note_on_c, 0, 53, 73
2, 181536, Note_on_c, 0, 53, 0
2, 181564, Note_on_c, 0, 65, 87
2, 181712, Note_on_c, 0, 53, 72
2, 181755, Note_on_c, 0, 53, 0
2, 181852, Note_on_c, 0, 55, 78
2, 181880, Note_on_c, 0, 55, 0
2, 181979, Note_on_c, 0, 57, 83
2, 182018, Note_on_c, 0, 57, 0
2, 182058, Note_on_c, 0, 65, 0
2, 182110, Note_on_c, 0, 58, 83
2, 182153, Note_on_c, 0, 58, 0
2, 182251, Note_on_c, 0, 57, 77
2, 182287, Note_on_c, 0, 57, 0
2, 182396, Note_on_c, 0, 58, 76
2, 182404, Note_on_c, 0, 62, 75
2, 182520, Note_on_c, 0, 62, 0
2, 182709, Note_on_c, 0, 67, 81
2, 182783, Note_on_c, 0, 67, 0
2, 182846, Note_on_c, 0, 57, 73
2, 182852, Note_on_c, 0, 58, 0
2, 182993, Note_on_c, 0, 57, 0
2, 182993, Note_on_c, 0, 67, 90
2, 183001, Note_on_c, 0, 58, 79
2, 183048, Note_on_c, 0, 67, 0
2, 183128, Note_on_c, 0, 57, 77
2, 183164, Note_on_c, 0, 58, 0
2, 183209, Note_on_c, 0, 57, 0
2, 183275, Note_on_c, 0, 67, 91
2, 183280, Note_on_c, 0, 55, 81
2, 183321, Note_on_c, 0, 67, 0
2, 183325, Note_on_c, 0, 55, 0
2, 183410, Note_on_c, 0, 53, 80
2, 183448, Note_on_c, 0, 53, 0
2, 183552, Note_on_c, 0, 55, 81
2, 183556, Note_on_c, 0, 67, 95
2, 183598, Note_on_c, 0, 55, 0
2, 183598, Note_on_c, 0, 67, 0
2, 183687, Note_on_c, 0, 53, 74
2, 183723, Note_on_c, 0, 53, 0
2, 183825, Note_on_c, 0, 67, 92
2, 183834, Note_on_c, 0, 52, 83
2, 183877, Note_on_c, 0, 52, 0
2, 183884, Note_on_c, 0, 67, 0
2, 183969, Note_on_c, 0, 50, 79
2, 184005, Note_on_c, 0, 50, 0
2, 184104, Note_on_c, 0, 52, 78
2, 184108, Note_on_c, 0, 67, 90
2, 184140, Note_on_c, 0, 52, 0
2, 184157, Note_on_c, 0, 67, 0
2, 184240, Note_on_c, 0, 50, 74
2, 184283, Note_on_c, 0, 50, 0
2, 184387, Note_on_c, 0, 49, 81
2, 184391, Note_on_c, 0, 67, 94
2, 184416, Note_on_c, 0, 49, 0
2, 184685, Note_on_c, 0, 65, 78
2, 184687, Note_on_c, 0, 67, 0
2, 184692, Note_on_c, 0, 57, 69
2, 184717, Note_on_c, 0, 57, 0
2, 184746, Note_on_c, 0, 65, 0
2, 184808, Note_on_c, 0, 64, 77
2, 184850, Note_on_c, 0, 64, 0
2, 184951, Note_on_c, 0, 74, 93
2, 184953, Note_on_c, 0, 50, 66
2, 184964, Note_on_c, 0, 65, 81
2, 184979, Note_on_c, 0, 50, 0
2, 184997, Note_on_c, 0, 65, 0
2, 185105, Note_on_c, 0, 62, 64
2, 185176, Note_on_c, 0, 62, 0
2, 185241, Note_on_c, 0, 60, 76
2, 185247, Note_on_c, 0, 64, 71
2, 185274, Note_on_c, 0, 60, 0
2, 185295, Note_on_c, 0, 64, 0
2, 185343, Note_on_c, 0, 74, 0
2, 185380, Note_on_c, 0, 66, 64
2, 185417, Note_on_c, 0, 66, 0
2, 185500, Note_on_c, 0, 58, 68
2, 185501, Note_on_c, 0, 67, 69
2, 185536, Note_on_c, 0, 58, 0
2, 185536, Note_on_c, 0, 67, 0
2, 185638, Note_on_c, 0, 66, 72
2, 185669, Note_on_c, 0, 66, 0
2, 185761, Note_on_c, 0, 55, 73
2, 185765, Note_on_c, 0, 70, 88
2, 185767, Note_on_c, 0, 67, 78
2, 185797, Note_on_c, 0, 55, 0
2, 185817, Note_on_c, 0, 67, 0
2, 185840, Note_on_c, 0, 70, 0
2, 186043, Note_on_c, 0, 75, 93
2, 186052, Note_on_c, 0, 60, 84
2, 186052, Note_on_c, 0, 67, 80
2, 186085, Note_on_c, 0, 60, 0
2, 186187, Note_on_c, 0, 58, 84
2, 186234, Note_on_c, 0, 58, 0
2, 186321, Note_on_c, 0, 60, 89
2, 186374, Note_on_c, 0, 60, 0
2, 186432, Note_on_c, 0, 75, 0
2, 186439, Note_on_c, 0, 67, 0
2, 186446, Note_on_c, 0, 58, 81
2, 186487, Note_on_c, 0, 58, 0
2, 186576, Note_on_c, 0, 57, 88
2, 186583, Note_on_c, 0, 72, 97
2, 186721, Note_on_c, 0, 60, 72
2, 186851, Note_on_c, 0, 62, 84
2, 186871, Note_on_c, 0, 60, 0
2, 186890, Note_on_c, 0, 57, 0
2, 186890, Note_on_c, 0, 62, 0
2, 186917, Note_on_c, 0, 72, 0
2, 186972, Note_on_c, 0, 55, 68
2, 186986, Note_on_c, 0, 63, 78
2, 187010, Note_on_c, 0, 55, 0
2, 187016, Note_on_c, 0, 63, 0
2, 187109, Note_on_c, 0, 57, 80
2, 187114, Note_on_c, 0, 65, 75
2, 187140, Note_on_c, 0, 57, 0
2, 187148, Note_on_c, 0, 65, 0
2, 187245, Note_on_c, 0, 63, 59
2, 187274, Note_on_c, 0, 63, 0
2, 187371, Note_on_c, 0, 69, 83
2, 187382, Note_on_c, 0, 53, 75
2, 187382, Note_on_c, 0, 65, 80
2, 187421, Note_on_c, 0, 53, 0
2, 187425, Note_on_c, 0, 65, 0
2, 187438, Note_on_c, 0, 69, 0
2, 187662, Note_on_c, 0, 74, 98
2, 187667, Note_on_c, 0, 65, 87
2, 187682, Note_on_c, 0, 58, 76
2, 187714, Note_on_c, 0, 58, 0
2, 187807, Note_on_c, 0, 57, 79
2, 187849, Note_on_c, 0, 57, 0
2, 187934, Note_on_c, 0, 58, 86
2, 187985, Note_on_c, 0, 58, 0
2, 188029, Note_on_c, 0, 74, 0
2, 188050, Note_on_c, 0, 65, 0
2, 188068, Note_on_c, 0, 57, 82
2, 188102, Note_on_c, 0, 57, 0
2, 188193, Note_on_c, 0, 55, 88
2, 188198, Note_on_c, 0, 70, 87
2, 188347, Note_on_c, 0, 58, 73
2, 188469, Note_on_c, 0, 60, 75
2, 188472, Note_on_c, 0, 57, 84
2, 188476, Note_on_c, 0, 58, 0
2, 188493, Note_on_c, 0, 55, 0
2, 188495, Note_on_c, 0, 70, 0
2, 188511, Note_on_c, 0, 60, 0
2, 188518, Note_on_c, 0, 57, 0
2, 188599, Note_on_c, 0, 58, 86
2, 188603, Note_on_c, 0, 62, 78
2, 188641, Note_on_c, 0, 58, 0
2, 188643, Note_on_c, 0, 62, 0
2, 188737, Note_on_c, 0, 63, 85
2, 188741, Note_on_c, 0, 60, 96
2, 188789, Note_on_c, 0, 63, 0
2, 188882, Note_on_c, 0, 62, 73
2, 188930, Note_on_c, 0, 62, 0
2, 188998, Note_on_c, 0, 60, 0
2, 189018, Note_on_c, 0, 67, 87
2, 189023, Note_on_c, 0, 63, 89
2, 189163, Note_on_c, 0, 58, 68
2, 189178, Note_on_c, 0, 67, 0
2, 189196, Note_on_c, 0, 58, 0
2, 189322, Note_on_c, 0, 57, 72
2, 189322, Note_on_c, 0, 72, 78
2, 189354, Note_on_c, 0, 63, 0
2, 189412, Note_on_c, 0, 72, 0
2, 189455, Note_on_c, 0, 62, 61
2, 189535, Note_on_c, 0, 62, 0
2, 189593, Note_on_c, 0, 72, 77
2, 189606, Note_on_c, 0, 63, 59
2, 189649, Note_on_c, 0, 57, 0
2, 189655, Note_on_c, 0, 63, 0
2, 189674, Note_on_c, 0, 72, 0
2, 189732, Note_on_c, 0, 62, 51
2, 189791, Note_on_c, 0, 62, 0
2, 189875, Note_on_c, 0, 60, 64
2, 189875, Note_on_c, 0, 72, 82
2, 189911, Note_on_c, 0, 72, 0
2, 189915, Note_on_c, 0, 60, 0
2, 190030, Note_on_c, 0, 58, 48
2, 190063, Note_on_c, 0, 58, 0
2, 190146, Note_on_c, 0, 60, 78
2, 190151, Note_on_c, 0, 72, 85
2, 190155, Note_on_c, 0, 55, 70
2, 190177, Note_on_c, 0, 60, 0
2, 190186, Note_on_c, 0, 72, 0
2, 190192, Note_on_c, 0, 55, 0
2, 190287, Note_on_c, 0, 58, 78
2, 190317, Note_on_c, 0, 58, 0
2, 190422, Note_on_c, 0, 54, 83
2, 190427, Note_on_c, 0, 57, 85
2, 190427, Note_on_c, 0, 72, 91
2, 190457, Note_on_c, 0, 54, 0
2, 190457, Note_on_c, 0, 57, 0
2, 190477, Note_on_c, 0, 72, 0
2, 190566, Note_on_c, 0, 55, 83
2, 190596, Note_on_c, 0, 55, 0
2, 190691, Note_on_c, 0, 57, 99
2, 190695, Note_on_c, 0, 72, 96
2, 190704, Note_on_c, 0, 52, 80
2, 190730, Note_on_c, 0, 57, 0
2, 190741, Note_on_c, 0, 52, 0
2, 190756, Note_on_c, 0, 72, 0
2, 190832, Note_on_c, 0, 55, 91
2, 190862, Note_on_c, 0, 55, 0
2, 190975, Note_on_c, 0, 50, 86
2, 190975, Note_on_c, 0, 54, 92
2, 190980, Note_on_c, 0, 72, 98
2, 191091, Note_on_c, 0, 50, 0
2, 191120, Note_on_c, 0, 54, 0
2, 191274, Note_on_c, 0, 54, 85
2, 191278, Note_on_c, 0, 70, 85
2, 191283, Note_on_c, 0, 62, 83
2, 191305, Note_on_c, 0, 54, 0
2, 191345, Note_on_c, 0, 72, 0
2, 191408, Note_on_c, 0, 69, 75
2, 191430, Note_on_c, 0, 70, 0
2, 191481, Note_on_c, 0, 62, 0
2, 191558, Note_on_c, 0, 55, 95
2, 191564, Note_on_c, 0, 70, 82
2, 191585, Note_on_c, 0, 69, 0
2, 191649, Note_on_c, 0, 70, 0
2, 191704, Note_on_c, 0, 67, 76
2, 191733, Note_on_c, 0, 67, 0
2, 191834, Note_on_c, 0, 70, 83
2, 191840, Note_on_c, 0, 67, 77
2, 191851, Note_on_c, 0, 62, 77
2, 191877, Note_on_c, 0, 67, 0
2, 191882, Note_on_c, 0, 70, 0
2, 191925, Note_on_c, 0, 62, 0
2, 191931, Note_on_c, 0, 55, 0
2, 191974, Note_on_c, 0, 72, 91
2, 192000, Note_on_c, 0, 64, 61
2, 192009, Note_on_c, 0, 65, 65
2, 192024, Note_on_c, 0, 72, 0
2, 192038, Note_on_c, 0, 65, 0
2, 192043, Note_on_c, 0, 64, 0
2, 192103, Note_on_c, 0, 65, 82
2, 192103, Note_on_c, 0, 74, 89
2, 192148, Note_on_c, 0, 65, 0
2, 192159, Note_on_c, 0, 74, 0
2, 192236, Note_on_c, 0, 73, 81
2, 192241, Note_on_c, 0, 64, 71
2, 192263, Note_on_c, 0, 64, 0
2, 192281, Note_on_c, 0, 73, 0
2, 192372, Note_on_c, 0, 65, 90
2, 192372, Note_on_c, 0, 74, 91
2, 192376, Note_on_c, 0, 53, 85
2, 192405, Note_on_c, 0, 65, 0
2, 192411, Note_on_c, 0, 53, 0
2, 192504, Note_on_c, 0, 69, 73
2, 192512, Note_on_c, 0, 74, 0
2, 192552, Note_on_c, 0, 69, 0
2, 192646, Note_on_c, 0, 74, 89
2, 192651, Note_on_c, 0, 58, 94
2, 192662, Note_on_c, 0, 62, 97
2, 192789, Note_on_c, 0, 69, 72
2, 192804, Note_on_c, 0, 74, 0
2, 192863, Note_on_c, 0, 69, 0
2, 192929, Note_on_c, 0, 67, 82
2, 192945, Note_on_c, 0, 58, 0
2, 193061, Note_on_c, 0, 65, 74
2, 193068, Note_on_c, 0, 67, 0
2, 193193, Note_on_c, 0, 65, 0
2, 193198, Note_on_c, 0, 64, 86
2, 193204, Note_on_c, 0, 55, 91
2, 193265, Note_on_c, 0, 64, 0
2, 193293, Note_on_c, 0, 62, 0
2, 193338, Note_on_c, 0, 67, 81
2, 193389, Note_on_c, 0, 67, 0
2, 193462, Note_on_c, 0, 60, 72
2, 193471, Note_on_c, 0, 69, 84
2, 193511, Note_on_c, 0, 69, 0
2, 193520, Note_on_c, 0, 60, 0
2, 193594, Note_on_c, 0, 70, 90
2, 193599, Note_on_c, 0, 58, 70
2, 193629, Note_on_c, 0, 55, 0
2, 193638, Note_on_c, 0, 58, 0
2, 193647, Note_on_c, 0, 70, 0
2, 193730, Note_on_c, 0, 72, 93
2, 193742, Note_on_c, 0, 57, 76
2, 193777, Note_on_c, 0, 57, 0
2, 193781, Note_on_c, 0, 72, 0
2, 193862, Note_on_c, 0, 70, 82
2, 193902, Note_on_c, 0, 70, 0
2, 193998, Note_on_c, 0, 72, 93
2, 194000, Note_on_c, 0, 52, 83
2, 194006, Note_on_c, 0, 55, 74
2, 194038, Note_on_c, 0, 52, 0
2, 194038, Note_on_c, 0, 55, 0
2, 194087, Note_on_c, 0, 72, 0
2, 194132, Note_on_c, 0, 67, 78
2, 194169, Note_on_c, 0, 67, 0
2, 194274, Note_on_c, 0, 72, 87
2, 194281, Note_on_c, 0, 57, 92
2, 194281, Note_on_c, 0, 60, 91
2, 194421, Note_on_c, 0, 67, 80
2, 194434, Note_on_c, 0, 72, 0
2, 194482, Note_on_c, 0, 67, 0
2, 194559, Note_on_c, 0, 65, 84
2, 194580, Note_on_c, 0, 57, 0
2, 194693, Note_on_c, 0, 64, 84
2, 194710, Note_on_c, 0, 65, 0
2, 194829, Note_on_c, 0, 64, 0
2, 194833, Note_on_c, 0, 53, 89
2, 194833, Note_on_c, 0, 62, 85
2, 194901, Note_on_c, 0, 62, 0
2, 194971, Note_on_c, 0, 65, 78
2, 195014, Note_on_c, 0, 65, 0
2, 195090, Note_on_c, 0, 60, 0
2, 195103, Note_on_c, 0, 67, 86
2, 195108, Note_on_c, 0, 58, 74
2, 195148, Note_on_c, 0, 67, 0
2, 195177, Note_on_c, 0, 58, 0
2, 195226, Note_on_c, 0, 69, 82
2, 195235, Note_on_c, 0, 57, 83
2, 195250, Note_on_c, 0, 53, 0
2, 195279, Note_on_c, 0, 69, 0
2, 195285, Note_on_c, 0, 57, 0
2, 195364, Note_on_c, 0, 70, 88
2, 195371, Note_on_c, 0, 55, 83
2, 195402, Note_on_c, 0, 55, 0
2, 195429, Note_on_c, 0, 70, 0
2, 195500, Note_on_c, 0, 69, 83
2, 195569, Note_on_c, 0, 69, 0
2, 195638, Note_on_c, 0, 50, 78
2, 195638, Note_on_c, 0, 70, 89
2, 195647, Note_on_c, 0, 53, 69
2, 195670, Note_on_c, 0, 50, 0
2, 195673, Note_on_c, 0, 53, 0
2, 195782, Note_on_c, 0, 65, 74
2, 195906, Note_on_c, 0, 58, 80
2, 195910, Note_on_c, 0, 55, 75
2, 195921, Note_on_c, 0, 64, 82
2, 195921, Note_on_c, 0, 65, 0
2, 195981, Note_on_c, 0, 55, 0
2, 196018, Note_on_c, 0, 70, 0
2, 196056, Note_on_c, 0, 69, 70
2, 196184, Note_on_c, 0, 55, 73
2, 196184, Note_on_c, 0, 64, 0
2, 196184, Note_on_c, 0, 70, 78
2, 196207, Note_on_c, 0, 69, 0
2, 196263, Note_on_c, 0, 55, 0
2, 196280, Note_on_c, 0, 70, 0
2, 196323, Note_on_c, 0, 65, 74
2, 196327, Note_on_c, 0, 69, 76
2, 196352, Note_on_c, 0, 69, 0
2, 196354, Note_on_c, 0, 65, 0
2, 196450, Note_on_c, 0, 64, 97
2, 196450, Note_on_c, 0, 67, 84
2, 196454, Note_on_c, 0, 55, 80
2, 196467, Note_on_c, 0, 58, 0
2, 196490, Note_on_c, 0, 55, 0
2, 196601, Note_on_c, 0, 65, 80
2, 196606, Note_on_c, 0, 67, 0
2, 196722, Note_on_c, 0, 55, 92
2, 196727, Note_on_c, 0, 67, 83
2, 196735, Note_on_c, 0, 64, 0
2, 196737, Note_on_c, 0, 65, 0
2, 196752, Note_on_c, 0, 55, 0
2, 196862, Note_on_c, 0, 67, 0
2, 196864, Note_on_c, 0, 65, 70
2, 196869, Note_on_c, 0, 62, 75
2, 196886, Note_on_c, 0, 65, 0
2, 196900, Note_on_c, 0, 62, 0
2, 196979, Note_on_c, 0, 55, 89
2, 196983, Note_on_c, 0, 64, 87
2, 196987, Note_on_c, 0, 61, 87
2, 197006, Note_on_c, 0, 55, 0
2, 197143, Note_on_c, 0, 62, 86
2, 197147, Note_on_c, 0, 64, 0
2, 197254, Note_on_c, 0, 55, 92
2, 197258, Note_on_c, 0, 64, 87
2, 197263, Note_on_c, 0, 61, 0
2, 197283, Note_on_c, 0, 55, 0
2, 197283, Note_on_c, 0, 62, 0
2, 197393, Note_on_c, 0, 62, 82
2, 197402, Note_on_c, 0, 64, 0
2, 197526, Note_on_c, 0, 57, 84
2, 197526, Note_on_c, 0, 61, 85
2, 197533, Note_on_c, 0, 55, 98
2, 197537, Note_on_c, 0, 62, 0
2, 197558, Note_on_c, 0, 57, 0
2, 197562, Note_on_c, 0, 61, 0
2, 197820, Note_on_c, 0, 55, 0
2, 197820, Note_on_c, 0, 69, 85
2, 197829, Note_on_c, 0, 53, 70
2, 197845, Note_on_c, 0, 69, 0
2, 197930, Note_on_c, 0, 53, 0
2, 197957, Note_on_c, 0, 52, 67
2, 198060, Note_on_c, 0, 52, 0
2, 198088, Note_on_c, 0, 53, 67
2, 198092, Note_on_c, 0, 62, 74
2, 198124, Note_on_c, 0, 62, 0
2, 198192, Note_on_c, 0, 53, 0
2, 198228, Note_on_c, 0, 50, 62
2, 198335, Note_on_c, 0, 50, 0
2, 198359, Note_on_c, 0, 51, 64
2, 198363, Note_on_c, 0, 72, 65
2, 198387, Note_on_c, 0, 72, 0
2, 198474, Note_on_c, 0, 51, 0
2, 198505, Note_on_c, 0, 53, 55
2, 198592, Note_on_c, 0, 53, 0
2, 198628, Note_on_c, 0, 71, 63
2, 198636, Note_on_c, 0, 55, 51
2, 198715, Note_on_c, 0, 55, 0
2, 198742, Note_on_c, 0, 71, 0
2, 198760, Note_on_c, 0, 53, 52
2, 198760, Note_on_c, 0, 74, 66
2, 198863, Note_on_c, 0, 53, 0
2, 198867, Note_on_c, 0, 74, 0
2, 198878, Note_on_c, 0, 55, 57
2, 198878, Note_on_c, 0, 77, 78
2, 198919, Note_on_c, 0, 55, 0
2, 199021, Note_on_c, 0, 74, 72
2, 199052, Note_on_c, 0, 77, 0
2, 199148, Note_on_c, 0, 75, 68
2, 199157, Note_on_c, 0, 48, 59
2, 199189, Note_on_c, 0, 74, 0
2, 199251, Note_on_c, 0, 48, 0
2, 199292, Note_on_c, 0, 47, 55
2, 199404, Note_on_c, 0, 47, 0
2, 199428, Note_on_c, 0, 48, 57
2, 199437, Note_on_c, 0, 67, 75
2, 199465, Note_on_c, 0, 67, 0
2, 199479, Note_on_c, 0, 75, 0
2, 199488, Note_on_c, 0, 48, 0
2, 199562, Note_on_c, 0, 50, 63
2, 199677, Note_on_c, 0, 50, 0
2, 199691, Note_on_c, 0, 51, 65
2, 199706, Note_on_c, 0, 60, 70
2, 199744, Note_on_c, 0, 60, 0
2, 199787, Note_on_c, 0, 51, 0
2, 199831, Note_on_c, 0, 48, 59
2, 199963, Note_on_c, 0, 48, 0
2, 199972, Note_on_c, 0, 50, 61
2, 199976, Note_on_c, 0, 70, 74
2, 200005, Note_on_c, 0, 70, 0
2, 200082, Note_on_c, 0, 50, 0
2, 200110, Note_on_c, 0, 51, 66
2, 200215, Note_on_c, 0, 51, 0
2, 200252, Note_on_c, 0, 53, 63
2, 200259, Note_on_c, 0, 69, 75
2, 200370, Note_on_c, 0, 69, 0
2, 200385, Note_on_c, 0, 51, 65
2, 200388, Note_on_c, 0, 53, 0
2, 200400, Note_on_c, 0, 72, 80
2, 200498, Note_on_c, 0, 51, 0
2, 200517, Note_on_c, 0, 72, 0
2, 200526, Note_on_c, 0, 75, 85
2, 200535, Note_on_c, 0, 53, 62
2, 200577, Note_on_c, 0, 53, 0
2, 200654, Note_on_c, 0, 81, 74
2, 200687, Note_on_c, 0, 81, 0
2, 200803, Note_on_c, 0, 46, 63
2, 200808, Note_on_c, 0, 82, 74
2, 200971, Note_on_c, 0, 46, 0
2, 200981, Note_on_c, 0, 53, 36
2, 200995, Note_on_c, 0, 52, 45
2, 201030, Note_on_c, 0, 53, 0
2, 201035, Note_on_c, 0, 52, 0
2, 201069, Note_on_c, 0, 82, 0
2, 201079, Note_on_c, 0, 74, 83
2, 201083, Note_on_c, 0, 55, 63
2, 201110, Note_on_c, 0, 75, 0
2, 201175, Note_on_c, 0, 55, 0
2, 201207, Note_on_c, 0, 81, 80
2, 201211, Note_on_c, 0, 57, 68
2, 201318, Note_on_c, 0, 57, 0
2, 201341, Note_on_c, 0, 58, 67
2, 201341, Note_on_c, 0, 79, 80
2, 201346, Note_on_c, 0, 81, 0
2, 201481, Note_on_c, 0, 78, 90
2, 201487, Note_on_c, 0, 57, 69
2, 201492, Note_on_c, 0, 79, 0
2, 201496, Note_on_c, 0, 58, 0
2, 201621, Note_on_c, 0, 79, 91
2, 201632, Note_on_c, 0, 58, 78
2, 201652, Note_on_c, 0, 57, 0
2, 201657, Note_on_c, 0, 78, 0
2, 201769, Note_on_c, 0, 78, 93
2, 201780, Note_on_c, 0, 79, 0
2, 201835, Note_on_c, 0, 58, 0
2, 201868, Note_on_c, 0, 78, 0
2, 201902, Note_on_c, 0, 79, 97
2, 202025, Note_on_c, 0, 52, 82
2, 202044, Note_on_c, 0, 74, 0
2, 202164, Note_on_c, 0, 54, 85
2, 202207, Note_on_c, 0, 52, 0
2, 202291, Note_on_c, 0, 55, 82
2, 202300, Note_on_c, 0, 74, 86
2, 202320, Note_on_c, 0, 54, 0
2, 202398, Note_on_c, 0, 74, 0
2, 202426, Note_on_c, 0, 55, 0
2, 202426, Note_on_c, 0, 57, 87
2, 202437, Note_on_c, 0, 72, 87
2, 202559, Note_on_c, 0, 55, 80
2, 202566, Note_on_c, 0, 70, 81
2, 202573, Note_on_c, 0, 72, 0
2, 202584, Note_on_c, 0, 57, 0
2, 202695, Note_on_c, 0, 70, 0
2, 202702, Note_on_c, 0, 57, 88
2, 202702, Note_on_c, 0, 72, 88
2, 202729, Note_on_c, 0, 55, 0
2, 202749, Note_on_c, 0, 57, 0
2, 202838, Note_on_c, 0, 70, 78
2, 202860, Note_on_c, 0, 72, 0
2, 202869, Note_on_c, 0, 79, 0
2, 202916, Note_on_c, 0, 70, 0
2, 202977, Note_on_c, 0, 78, 94
2, 202981, Note_on_c, 0, 62, 101
2, 202981, Note_on_c, 0, 72, 90
2, 203117, Note_on_c, 0, 50, 81
2, 203254, Note_on_c, 0, 72, 0
2, 203264, Note_on_c, 0, 52, 74
2, 203284, Note_on_c, 0, 50, 0
2, 203385, Note_on_c, 0, 72, 84
2, 203393, Note_on_c, 0, 54, 82
2, 203397, Note_on_c, 0, 81, 68
2, 203410, Note_on_c, 0, 52, 0
2, 203416, Note_on_c, 0, 78, 0
2, 203427, Note_on_c, 0, 81, 0
2, 203448, Note_on_c, 0, 72, 0
2, 203534, Note_on_c, 0, 55, 81
2, 203534, Note_on_c, 0, 62, 0
2, 203536, Note_on_c, 0, 74, 83
2, 203540, Note_on_c, 0, 70, 83
2, 203555, Note_on_c, 0, 54, 0
2, 203654, Note_on_c, 0, 70, 0
2, 203659, Note_on_c, 0, 55, 0
2, 203667, Note_on_c, 0, 54, 78
2, 203667, Note_on_c, 0, 69, 76
2, 203704, Note_on_c, 0, 54, 0
2, 203778, Note_on_c, 0, 69, 0
2, 203803, Note_on_c, 0, 58, 98
2, 203812, Note_on_c, 0, 55, 85
2, 203812, Note_on_c, 0, 70, 81
2, 203843, Note_on_c, 0, 55, 0
2, 203856, Note_on_c, 0, 58, 0
2, 203894, Note_on_c, 0, 74, 0
2, 203935, Note_on_c, 0, 70, 0
2, 203941, Note_on_c, 0, 69, 81
2, 204029, Note_on_c, 0, 69, 0
2, 204091, Note_on_c, 0, 70, 81
2, 204096, Note_on_c, 0, 63, 98
2, 204103, Note_on_c, 0, 55, 83
2, 204107, Note_on_c, 0, 67, 78
2, 204200, Note_on_c, 0, 55, 0
2, 204203, Note_on_c, 0, 67, 0
2, 204258, Note_on_c, 0, 65, 67
2, 204314, Note_on_c, 0, 63, 0
2, 204332, Note_on_c, 0, 65, 0
2, 204354, Note_on_c, 0, 67, 76
2, 204370, Note_on_c, 0, 48, 67
2, 204397, Note_on_c, 0, 48, 0
2, 204459, Note_on_c, 0, 67, 0
2, 204468, Note_on_c, 0, 65, 77
2, 204499, Note_on_c, 0, 63, 74
2, 204503, Note_on_c, 0, 65, 0
2, 204546, Note_on_c, 0, 63, 0
2, 204574, Note_on_c, 0, 65, 64
2, 204620, Note_on_c, 0, 63, 85
2, 204631, Note_on_c, 0, 60, 95
2, 204657, Note_on_c, 0, 65, 0
2, 204760, Note_on_c, 0, 48, 78
2, 204901, Note_on_c, 0, 50, 75
2, 204938, Note_on_c, 0, 48, 0
2, 205006, Note_on_c, 0, 60, 0
2, 205013, Note_on_c, 0, 63, 0
2, 205032, Note_on_c, 0, 62, 82
2, 205036, Note_on_c, 0, 51, 78
2, 205045, Note_on_c, 0, 70, 0
2, 205075, Note_on_c, 0, 50, 0
2, 205132, Note_on_c, 0, 62, 0
2, 205160, Note_on_c, 0, 60, 81
2, 205165, Note_on_c, 0, 69, 79
2, 205172, Note_on_c, 0, 51, 0
2, 205172, Note_on_c, 0, 53, 82
2, 205259, Note_on_c, 0, 60, 0
2, 205298, Note_on_c, 0, 51, 87
2, 205302, Note_on_c, 0, 53, 0
2, 205430, Note_on_c, 0, 53, 84
2, 205430, Note_on_c, 0, 57, 97
2, 205470, Note_on_c, 0, 51, 0
2, 205533, Note_on_c, 0, 53, 0
2, 205546, Note_on_c, 0, 57, 0
2, 205736, Note_on_c, 0, 62, 92
2, 205744, Note_on_c, 0, 53, 82
2, 205748, Note_on_c, 0, 65, 81
2, 205770, Note_on_c, 0, 69, 0
2, 205830, Note_on_c, 0, 53, 0
2, 205894, Note_on_c, 0, 65, 0
2, 205904, Note_on_c, 0, 69, 72
2, 206027, Note_on_c, 0, 46, 77
2, 206034, Note_on_c, 0, 70, 83
2, 206040, Note_on_c, 0, 69, 0
2, 206126, Note_on_c, 0, 46, 0
2, 206164, Note_on_c, 0, 69, 77
2, 206189, Note_on_c, 0, 62, 0
2, 206202, Note_on_c, 0, 70, 0
2, 206318, Note_on_c, 0, 62, 86
2, 206318, Note_on_c, 0, 67, 86
2, 206322, Note_on_c, 0, 58, 96
2, 206347, Note_on_c, 0, 69, 0
2, 206468, Note_on_c, 0, 46, 73
2, 206617, Note_on_c, 0, 48, 74
2, 206677, Note_on_c, 0, 46, 0
2, 206761, Note_on_c, 0, 66, 76
2, 206766, Note_on_c, 0, 50, 74
2, 206770, Note_on_c, 0, 67, 0
2, 206790, Note_on_c, 0, 48, 0
2, 206823, Note_on_c, 0, 58, 0
2, 206900, Note_on_c, 0, 51, 80
2, 206901, Note_on_c, 0, 50, 0
2, 206906, Note_on_c, 0, 62, 0
2, 206906, Note_on_c, 0, 67, 81
2, 206932, Note_on_c, 0, 66, 0
2, 207037, Note_on_c, 0, 50, 81
2, 207053, Note_on_c, 0, 51, 0
2, 207122, Note_on_c, 0, 50, 0
2, 207182, Note_on_c, 0, 55, 91
2, 207191, Note_on_c, 0, 51, 86
2, 207301, Note_on_c, 0, 55, 0
2, 207504, Note_on_c, 0, 60, 76
2, 207573, Note_on_c, 0, 60, 0
2, 207647, Note_on_c, 0, 51, 0
2, 207651, Note_on_c, 0, 50, 64
2, 207795, Note_on_c, 0, 60, 74
2, 207799, Note_on_c, 0, 51, 76
2, 207808, Note_on_c, 0, 50, 0
2, 207885, Note_on_c, 0, 60, 0
2, 207924, Note_on_c, 0, 67, 0
2, 207934, Note_on_c, 0, 70, 69
2, 207943, Note_on_c, 0, 51, 0
2, 207952, Note_on_c, 0, 50, 71
2, 207993, Note_on_c, 0, 50, 0
2, 208034, Note_on_c, 0, 70, 0
2, 208075, Note_on_c, 0, 48, 85
2, 208080, Note_on_c, 0, 69, 85
2, 208084, Note_on_c, 0, 60, 84
2, 208157, Note_on_c, 0, 60, 0
2, 208233, Note_on_c, 0, 47, 80
2, 208233, Note_on_c, 0, 48, 0
2, 208280, Note_on_c, 0, 47, 0
2, 208362, Note_on_c, 0, 48, 86
2, 208371, Note_on_c, 0, 60, 87
2, 208430, Note_on_c, 0, 48, 0
2, 208462, Note_on_c, 0, 60, 0
2, 208513, Note_on_c, 0, 46, 74
2, 208513, Note_on_c, 0, 69, 0
2, 208513, Note_on_c, 0, 72, 74
2, 208540, Note_on_c, 0, 46, 0
2, 208647, Note_on_c, 0, 45, 91
2, 208647, Note_on_c, 0, 60, 88
2, 208651, Note_on_c, 0, 66, 87
2, 208672, Note_on_c, 0, 72, 0
2, 208689, Note_on_c, 0, 45, 0
2, 208764, Note_on_c, 0, 60, 0
2, 208802, Note_on_c, 0, 43, 81
2, 208835, Note_on_c, 0, 43, 0
2, 208939, Note_on_c, 0, 45, 84
2, 208950, Note_on_c, 0, 60, 82
2, 208982, Note_on_c, 0, 45, 0
2, 209042, Note_on_c, 0, 60, 0
2, 209073, Note_on_c, 0, 66, 0
2, 209084, Note_on_c, 0, 69, 73
2, 209088, Note_on_c, 0, 43, 72
2, 209128, Note_on_c, 0, 43, 0
2, 209189, Note_on_c, 0, 69, 0
2, 209220, Note_on_c, 0, 60, 91
2, 209228, Note_on_c, 0, 42, 85
2, 209231, Note_on_c, 0, 62, 85
2, 209262, Note_on_c, 0, 42, 0
2, 209512, Note_on_c, 0, 60, 0
2, 209539, Note_on_c, 0, 58, 72
2, 209544, Note_on_c, 0, 50, 62
2, 209557, Note_on_c, 0, 62, 0
2, 209579, Note_on_c, 0, 50, 0
2, 209648, Note_on_c, 0, 58, 0
2, 209677, Note_on_c, 0, 66, 68
2, 209681, Note_on_c, 0, 57, 64
2, 209786, Note_on_c, 0, 66, 0
2, 209797, Note_on_c, 0, 57, 0
2, 209809, Note_on_c, 0, 43, 58
2, 209809, Note_on_c, 0, 58, 69
2, 209809, Note_on_c, 0, 67, 69
2, 209845, Note_on_c, 0, 43, 0
2, 209896, Note_on_c, 0, 67, 0
2, 209923, Note_on_c, 0, 58, 0
2, 209958, Note_on_c, 0, 55, 63
2, 210085, Note_on_c, 0, 55, 0
2, 210098, Note_on_c, 0, 57, 72
2, 210103, Note_on_c, 0, 53, 62
2, 210132, Note_on_c, 0, 53, 0
2, 210208, Note_on_c, 0, 57, 0
2, 210236, Note_on_c, 0, 58, 58
2, 210333, Note_on_c, 0, 58, 0
2, 210384, Note_on_c, 0, 52, 58
2, 210384, Note_on_c, 0, 60, 65
2, 210412, Note_on_c, 0, 52, 0
2, 210478, Note_on_c, 0, 60, 0
2, 210519, Note_on_c, 0, 58, 56
2, 210622, Note_on_c, 0, 58, 0
2, 210664, Note_on_c, 0, 60, 58
2, 210673, Note_on_c, 0, 48, 40
2, 210715, Note_on_c, 0, 48, 0
2, 210797, Control_c, 0, 64, 10
2, 210812, Note_on_c, 0, 70, 69
2, 210816, Control_c, 0, 64, 44
2, 210834, Control_c, 0, 64, 61
2, 210853, Control_c, 0, 64, 65
2, 210873, Control_c, 0, 64, 67
2, 210891, Control_c, 0, 64, 72
2, 210911, Control_c, 0, 64, 84
2, 210929, Control_c, 0, 64, 108
2, 210942, Note_on_c, 0, 70, 0
2, 210947, Control_c, 0, 64, 127
2, 210969, Note_on_c, 0, 53, 55
2, 211000, Note_on_c, 0, 53, 0
2, 211093, Note_on_c, 0, 70, 72
2, 211148, Note_on_c, 0, 60, 0
2, 211180, Control_c, 0, 64, 80
2, 211188, Note_on_c, 0, 70, 0
2, 211199, Control_c, 0, 64, 49
2, 211218, Control_c, 0, 64, 0
2, 211234, Note_on_c, 0, 69, 65
2, 211239, Note_on_c, 0, 65, 64
2, 211252, Note_on_c, 0, 57, 74
2, 211277, Note_on_c, 0, 57, 0
2, 211356, Note_on_c, 0, 69, 0
2, 211360, Note_on_c, 0, 65, 0
2, 211378, Note_on_c, 0, 67, 70
2, 211389, Note_on_c, 0, 64, 67
2, 211469, Note_on_c, 0, 64, 0
2, 211514, Note_on_c, 0, 50, 71
2, 211518, Note_on_c, 0, 69, 69
2, 211522, Note_on_c, 0, 65, 67
2, 211522, Note_on_c, 0, 67, 0
2, 211553, Note_on_c, 0, 50, 0
2, 211553, Note_on_c, 0, 65, 0
2, 211575, Note_on_c, 0, 69, 0
2, 211661, Note_on_c, 0, 69, 73
2, 211784, Note_on_c, 0, 69, 0
2, 211799, Note_on_c, 0, 71, 78
2, 211802, Note_on_c, 0, 60, 87
2, 211827, Note_on_c, 0, 60, 0
2, 211960, Note_on_c, 0, 71, 0
2, 211964, Note_on_c, 0, 72, 80
2, 212094, Note_on_c, 0, 74, 81
2, 212099, Note_on_c, 0, 59, 81
2, 212099, Note_on_c, 0, 72, 0
2, 212128, Note_on_c, 0, 59, 0
2, 212231, Note_on_c, 0, 72, 78
2, 212244, Note_on_c, 0, 74, 0
2, 212386, Note_on_c, 0, 55, 64
2, 212386, Note_on_c, 0, 74, 86
2, 212408, Note_on_c, 0, 72, 0
2, 212412, Note_on_c, 0, 55, 0
2, 212528, Note_on_c, 0, 65, 82
2, 212563, Control_c, 0, 64, 20
2, 212580, Control_c, 0, 64, 46
2, 212601, Control_c, 0, 64, 63
2, 212619, Control_c, 0, 64, 69
2, 212637, Control_c, 0, 64, 76
2, 212661, Control_c, 0, 64, 82
2, 212669, Note_on_c, 0, 60, 80
2, 212678, Control_c, 0, 64, 91
2, 212690, Note_on_c, 0, 65, 0
2, 212694, Control_c, 0, 64, 101
2, 212701, Note_on_c, 0, 60, 0
2, 212714, Control_c, 0, 64, 120
2, 212734, Control_c, 0, 64, 127
2, 212738, Note_on_c, 0, 74, 0
2, 212823, Note_on_c, 0, 65, 75
2, 212885, Note_on_c, 0, 65, 0
2, 212908, Control_c, 0, 64, 101
2, 212926, Control_c, 0, 64, 62
2, 212945, Control_c, 0, 64, 0
2, 212958, Note_on_c, 0, 55, 79
2, 212958, Note_on_c, 0, 63, 82
2, 212961, Note_on_c, 0, 72, 75
2, 212988, Note_on_c, 0, 55, 0
2, 213025, Note_on_c, 0, 72, 0
2, 213051, Note_on_c, 0, 63, 0
2, 213093, Note_on_c, 0, 71, 78
2, 213097, Note_on_c, 0, 62, 76
2, 213204, Note_on_c, 0, 62, 0
2, 213239, Note_on_c, 0, 71, 0
2, 213246, Note_on_c, 0, 48, 72
2, 213246, Note_on_c, 0, 63, 75
2, 213246, Note_on_c, 0, 72, 83
2, 213268, Note_on_c, 0, 48, 0
2, 213358, Note_on_c, 0, 63, 0
2, 213396, Note_on_c, 0, 60, 76
2, 213531, Note_on_c, 0, 57, 87
2, 213536, Note_on_c, 0, 72, 0
2, 213540, Note_on_c, 0, 60, 0
2, 213540, Note_on_c, 0, 66, 83
2, 213558, Note_on_c, 0, 57, 0
2, 213677, Note_on_c, 0, 67, 80
2, 213679, Note_on_c, 0, 66, 0
2, 213808, Note_on_c, 0, 69, 80
2, 213812, Note_on_c, 0, 67, 0
2, 213819, Note_on_c, 0, 54, 85
2, 213850, Note_on_c, 0, 54, 0
2, 213919, Note_on_c, 0, 69, 0
2, 213948, Note_on_c, 0, 67, 83
2, 214092, Note_on_c, 0, 50, 69
2, 214101, Note_on_c, 0, 69, 82
2, 214133, Note_on_c, 0, 50, 0
2, 214142, Note_on_c, 0, 67, 0
2, 214243, Note_on_c, 0, 72, 87
2, 214366, Control_c, 0, 64, 29
2, 214378, Note_on_c, 0, 55, 87
2, 214384, Control_c, 0, 64, 47
2, 214404, Control_c, 0, 64, 62
2, 214411, Note_on_c, 0, 55, 0
2, 214424, Control_c, 0, 64, 71
2, 214424, Note_on_c, 0, 72, 0
2, 214442, Control_c, 0, 64, 86
2, 214461, Control_c, 0, 64, 127
2, 214524, Note_on_c, 0, 69, 0
2, 214539, Note_on_c, 0, 72, 86
2, 214616, Control_c, 0, 64, 109
2, 214638, Control_c, 0, 64, 61
2, 214655, Control_c, 0, 64, 0
2, 214667, Note_on_c, 0, 58, 92
2, 214672, Note_on_c, 0, 67, 77
2, 214672, Note_on_c, 0, 70, 83
2, 214700, Note_on_c, 0, 58, 0
2, 214705, Note_on_c, 0, 72, 0
2, 214760, Note_on_c, 0, 67, 0
2, 214799, Note_on_c, 0, 66, 79
2, 214799, Note_on_c, 0, 69, 80
2, 214830, Note_on_c, 0, 70, 0
2, 214949, Note_on_c, 0, 52, 82
2, 214953, Note_on_c, 0, 67, 75
2, 214953, Note_on_c, 0, 70, 91
2, 214960, Note_on_c, 0, 66, 0
2, 214969, Note_on_c, 0, 69, 0
2, 214980, Note_on_c, 0, 67, 0
2, 214985, Note_on_c, 0, 52, 0
2, 215001, Note_on_c, 0, 70, 0
2, 215096, Note_on_c, 0, 74, 90
2, 215239, Note_on_c, 0, 76, 93
2, 215246, Note_on_c, 0, 62, 85
2, 215252, Note_on_c, 0, 74, 0
2, 215272, Note_on_c, 0, 62, 0
2, 215383, Note_on_c, 0, 77, 91
2, 215396, Note_on_c, 0, 76, 0
2, 215525, Note_on_c, 0, 79, 90
2, 215546, Note_on_c, 0, 77, 0
2, 215671, Note_on_c, 0, 77, 88
2, 215689, Note_on_c, 0, 79, 0
2, 215820, Note_on_c, 0, 57, 88
2, 215820, Note_on_c, 0, 79, 91
2, 215863, Note_on_c, 0, 77, 0
2, 215957, Note_on_c, 0, 61, 83
2, 216083, Note_on_c, 0, 57, 0
2, 216090, Note_on_c, 0, 62, 90
2, 216103, Note_on_c, 0, 61, 0
2, 216220, Note_on_c, 0, 62, 0
2, 216222, Note_on_c, 0, 61, 78
2, 216303, Note_on_c, 0, 61, 0
2, 216364, Note_on_c, 0, 62, 74
2, 216373, Note_on_c, 0, 77, 81
2, 216373, Note_on_c, 0, 79, 0
2, 216414, Note_on_c, 0, 62, 0
2, 216495, Note_on_c, 0, 57, 56
2, 216500, Note_on_c, 0, 76, 80
2, 216504, Note_on_c, 0, 77, 0
2, 216535, Note_on_c, 0, 57, 0
2, 216575, Note_on_c, 0, 76, 0
2, 216631, Control_c, 0, 64, 25
2, 216633, Note_on_c, 0, 69, 90
2, 216644, Note_on_c, 0, 50, 34
2, 216648, Note_on_c, 0, 50, 0
2, 216648, Note_on_c, 0, 77, 80
2, 216653, Control_c, 0, 64, 54
2, 216670, Control_c, 0, 64, 65
2, 216690, Control_c, 0, 64, 68
2, 216698, Note_on_c, 0, 77, 0
2, 216709, Control_c, 0, 64, 76
2, 216728, Control_c, 0, 64, 85
2, 216746, Control_c, 0, 64, 101
2, 216766, Control_c, 0, 64, 127
2, 216794, Note_on_c, 0, 74, 66
2, 216901, Control_c, 0, 64, 99
2, 216905, Note_on_c, 0, 74, 0
2, 216924, Control_c, 0, 64, 63
2, 216924, Note_on_c, 0, 62, 70
2, 216935, Note_on_c, 0, 77, 72
2, 216940, Control_c, 0, 64, 0
2, 217046, Note_on_c, 0, 62, 0
2, 217050, Note_on_c, 0, 77, 0
2, 217063, Note_on_c, 0, 64, 72
2, 217067, Note_on_c, 0, 79, 75
2, 217151, Note_on_c, 0, 64, 0
2, 217189, Note_on_c, 0, 65, 62
2, 217202, Note_on_c, 0, 81, 75
2, 217206, Note_on_c, 0, 79, 0
2, 217210, Note_on_c, 0, 65, 0
2, 217224, Note_on_c, 0, 69, 0
2, 217319, Note_on_c, 0, 81, 0
2, 217340, Note_on_c, 0, 79, 78
2, 217463, Note_on_c, 0, 81, 81
2, 217467, Note_on_c, 0, 65, 83
2, 217468, Note_on_c, 0, 62, 79
2, 217481, Note_on_c, 0, 79, 0
2, 217496, Note_on_c, 0, 62, 0
2, 217496, Note_on_c, 0, 65, 0
2, 217568, Note_on_c, 0, 81, 0
2, 217759, Note_on_c, 0, 81, 78
2, 217764, Note_on_c, 0, 70, 84
2, 217768, Note_on_c, 0, 67, 76
2, 217857, Note_on_c, 0, 81, 0
2, 217906, Note_on_c, 0, 55, 62
2, 217906, Note_on_c, 0, 67, 0
2, 218045, Note_on_c, 0, 55, 0
2, 218050, Note_on_c, 0, 74, 67
2, 218062, Note_on_c, 0, 57, 66
2, 218107, Note_on_c, 0, 70, 0
2, 218180, Note_on_c, 0, 57, 0
2, 218197, Note_on_c, 0, 58, 64
2, 218206, Note_on_c, 0, 74, 0
2, 218304, Note_on_c, 0, 58, 0
2, 218319, Note_on_c, 0, 67, 89
2, 218332, Note_on_c, 0, 60, 70
2, 218429, Note_on_c, 0, 60, 0
2, 218458, Note_on_c, 0, 55, 63
2, 218476, Note_on_c, 0, 74, 64
2, 218595, Note_on_c, 0, 74, 0
2, 218612, Note_on_c, 0, 60, 61
2, 218623, Note_on_c, 0, 76, 64
2, 218652, Note_on_c, 0, 55, 0
2, 218728, Note_on_c, 0, 76, 0
2, 218734, Note_on_c, 0, 60, 0
2, 218745, Note_on_c, 0, 77, 69
2, 218754, Note_on_c, 0, 62, 60
2, 218826, Note_on_c, 0, 67, 0
2, 218881, Note_on_c, 0, 62, 0
2, 218881, Note_on_c, 0, 64, 70
2, 218886, Note_on_c, 0, 77, 0
2, 218890, Note_on_c, 0, 79, 68
2, 218918, Note_on_c, 0, 64, 0
2, 219013, Note_on_c, 0, 79, 0
2, 219031, Note_on_c, 0, 77, 70
2, 219160, Note_on_c, 0, 79, 82
2, 219164, Note_on_c, 0, 64, 89
2, 219172, Note_on_c, 0, 60, 74
2, 219198, Note_on_c, 0, 77, 0
2, 219202, Note_on_c, 0, 64, 0
2, 219208, Note_on_c, 0, 60, 0
2, 219231, Note_on_c, 0, 79, 0
2, 219460, Note_on_c, 0, 69, 85
2, 219462, Note_on_c, 0, 79, 86
2, 219469, Note_on_c, 0, 65, 71
2, 219598, Note_on_c, 0, 65, 0
2, 219601, Note_on_c, 0, 53, 68
2, 219626, Note_on_c, 0, 79, 0
2, 219764, Note_on_c, 0, 72, 73
2, 219768, Note_on_c, 0, 55, 70
2, 219779, Note_on_c, 0, 53, 0
2, 219846, Note_on_c, 0, 69, 0
2, 219875, Note_on_c, 0, 72, 0
2, 219907, Note_on_c, 0, 57, 78
2, 219920, Note_on_c, 0, 55, 0
2, 220044, Note_on_c, 0, 65, 85
2, 220048, Note_on_c, 0, 58, 82
2, 220052, Note_on_c, 0, 57, 0
2, 220178, Note_on_c, 0, 58, 0
2, 220184, Note_on_c, 0, 53, 74
2, 220184, Note_on_c, 0, 72, 74
2, 220311, Note_on_c, 0, 72, 0
2, 220324, Note_on_c, 0, 58, 74
2, 220324, Note_on_c, 0, 74, 67
2, 220335, Note_on_c, 0, 53, 0
2, 220458, Note_on_c, 0, 74, 0
2, 220467, Note_on_c, 0, 58, 0
2, 220467, Note_on_c, 0, 65, 0
2, 220467, Note_on_c, 0, 76, 78
2, 220476, Note_on_c, 0, 60, 68
2, 220582, Note_on_c, 0, 60, 0
2, 220605, Note_on_c, 0, 62, 75
2, 220609, Note_on_c, 0, 77, 79
2, 220618, Note_on_c, 0, 76, 0
2, 220689, Note_on_c, 0, 62, 0
2, 220727, Note_on_c, 0, 77, 0
2, 220736, Note_on_c, 0, 60, 67
2, 220745, Note_on_c, 0, 76, 77
2, 220827, Note_on_c, 0, 60, 0
2, 220871, Note_on_c, 0, 62, 76
2, 220871, Note_on_c, 0, 77, 82
2, 220875, Note_on_c, 0, 58, 73
2, 220889, Note_on_c, 0, 76, 0
2, 220923, Note_on_c, 0, 62, 0
2, 220997, Note_on_c, 0, 58, 0
2, 221034, Note_on_c, 0, 57, 65
2, 221160, Note_on_c, 0, 67, 73
2, 221169, Note_on_c, 0, 58, 70
2, 221173, Note_on_c, 0, 57, 0
2, 221233, Note_on_c, 0, 67, 0
2, 221294, Note_on_c, 0, 58, 0
2, 221313, Note_on_c, 0, 62, 70
2, 221433, Note_on_c, 0, 61, 75
2, 221438, Note_on_c, 0, 62, 0
2, 221445, Note_on_c, 0, 67, 78
2, 221447, Note_on_c, 0, 77, 0
2, 221522, Note_on_c, 0, 67, 0
2, 221534, Note_on_c, 0, 61, 0
2, 221573, Note_on_c, 0, 62, 76
2, 221578, Note_on_c, 0, 77, 82
2, 221602, Note_on_c, 0, 62, 0
2, 221655, Note_on_c, 0, 77, 0
2, 221715, Note_on_c, 0, 55, 81
2, 221724, Note_on_c, 0, 67, 83
2, 221724, Note_on_c, 0, 76, 92
2, 221762, Note_on_c, 0, 55, 0
2, 221766, Note_on_c, 0, 67, 0
2, 221777, Note_on_c, 0, 76, 0
2, 221851, Note_on_c, 0, 74, 88
2, 221873, Note_on_c, 0, 58, 80
2, 221902, Note_on_c, 0, 74, 0
2, 221909, Note_on_c, 0, 58, 0
2, 221995, Note_on_c, 0, 67, 96
2, 221995, Note_on_c, 0, 76, 97
2, 222004, Note_on_c, 0, 57, 85
2, 222040, Note_on_c, 0, 67, 0
2, 222051, Note_on_c, 0, 57, 0
2, 222051, Note_on_c, 0, 76, 0
2, 222121, Note_on_c, 0, 74, 87
2, 222133, Note_on_c, 0, 58, 76
2, 222175, Note_on_c, 0, 58, 0
2, 222180, Note_on_c, 0, 74, 0
2, 222263, Note_on_c, 0, 73, 99
2, 222268, Note_on_c, 0, 67, 88
2, 222272, Note_on_c, 0, 52, 81
2, 222308, Note_on_c, 0, 52, 0
2, 222318, Note_on_c, 0, 67, 0
2, 222334, Note_on_c, 0, 73, 0
2, 222405, Note_on_c, 0, 74, 84
2, 222412, Note_on_c, 0, 64, 78
2, 222449, Note_on_c, 0, 64, 0
2, 222466, Note_on_c, 0, 74, 0
2, 222547, Note_on_c, 0, 61, 78
2, 222547, Note_on_c, 0, 76, 89
2, 222554, Note_on_c, 0, 67, 87
2, 222601, Note_on_c, 0, 61, 0
2, 222642, Note_on_c, 0, 67, 0
2, 222704, Note_on_c, 0, 57, 71
2, 222746, Note_on_c, 0, 57, 0
2, 222840, Note_on_c, 0, 67, 79
2, 222859, Note_on_c, 0, 62, 60
2, 222901, Note_on_c, 0, 62, 0
2, 222945, Note_on_c, 0, 67, 0
2, 222971, Note_on_c, 0, 50, 66
2, 223090, Note_on_c, 0, 50, 0
2, 223118, Note_on_c, 0, 74, 72
2, 223121, Note_on_c, 0, 65, 63
2, 223128, Note_on_c, 0, 53, 58
2, 223132, Note_on_c, 0, 76, 0
2, 223191, Note_on_c, 0, 65, 0
2, 223241, Note_on_c, 0, 74, 0
2, 223252, Note_on_c, 0, 53, 0
2, 223275, Note_on_c, 0, 57, 61
2, 223342, Note_on_c, 0, 57, 0
2, 223399, Note_on_c, 0, 77, 88
2, 223420, Note_on_c, 0, 62, 62
2, 223487, Note_on_c, 0, 62, 0
2, 223531, Note_on_c, 0, 69, 61
2, 223556, Note_on_c, 0, 60, 55
2, 223618, Note_on_c, 0, 60, 0
2, 223618, Note_on_c, 0, 69, 0
2, 223685, Note_on_c, 0, 70, 57
2, 223694, Note_on_c, 0, 62, 55
2, 223773, Note_on_c, 0, 70, 0
2, 223782, Note_on_c, 0, 62, 0
2, 223823, Note_on_c, 0, 72, 61
2, 223827, Note_on_c, 0, 60, 50
2, 223924, Note_on_c, 0, 72, 0
2, 223936, Note_on_c, 0, 60, 0
2, 223954, Note_on_c, 0, 74, 61
2, 223970, Note_on_c, 0, 58, 53
2, 224046, Note_on_c, 0, 58, 0
2, 224066, Note_on_c, 0, 74, 0
2, 224091, Note_on_c, 0, 72, 59
2, 224107, Note_on_c, 0, 62, 57
2, 224129, Note_on_c, 0, 77, 0
2, 224186, Note_on_c, 0, 62, 0
2, 224208, Note_on_c, 0, 72, 0
2, 224227, Note_on_c, 0, 55, 63
2, 224234, Note_on_c, 0, 74, 71
2, 224307, Note_on_c, 0, 74, 0
2, 224362, Note_on_c, 0, 55, 0
2, 224362, Note_on_c, 0, 58, 63
2, 224395, Note_on_c, 0, 58, 0
2, 224501, Note_on_c, 0, 51, 72
2, 224501, Note_on_c, 0, 79, 97
2, 224511, Note_on_c, 0, 74, 87
2, 224580, Note_on_c, 0, 74, 0
2, 224652, Note_on_c, 0, 55, 71
2, 224666, Note_on_c, 0, 51, 0
2, 224768, Note_on_c, 0, 55, 0
2, 224791, Note_on_c, 0, 67, 73
2, 224798, Note_on_c, 0, 57, 75
2, 224829, Note_on_c, 0, 79, 0
2, 224909, Note_on_c, 0, 67, 0
2, 224927, Note_on_c, 0, 57, 0
2, 224931, Note_on_c, 0, 58, 77
2, 225064, Note_on_c, 0, 75, 92
2, 225067, Note_on_c, 0, 58, 0
2, 225074, Note_on_c, 0, 60, 82
2, 225199, Note_on_c, 0, 67, 64
2, 225208, Note_on_c, 0, 58, 80
2, 225208, Note_on_c, 0, 60, 0
2, 225325, Note_on_c, 0, 58, 0
2, 225339, Note_on_c, 0, 67, 0
2, 225339, Note_on_c, 0, 69, 74
2, 225343, Note_on_c, 0, 60, 77
2, 225471, Note_on_c, 0, 58, 78
2, 225471, Note_on_c, 0, 70, 82
2, 225488, Note_on_c, 0, 60, 0
2, 225508, Note_on_c, 0, 69, 0
2, 225514, Note_on_c, 0, 75, 0
2, 225602, Note_on_c, 0, 57, 79
2, 225609, Note_on_c, 0, 72, 84
2, 225620, Note_on_c, 0, 70, 0
2, 225682, Note_on_c, 0, 58, 0
2, 225741, Note_on_c, 0, 57, 0
2, 225741, Note_on_c, 0, 60, 76
2, 225752, Note_on_c, 0, 70, 84
2, 225778, Note_on_c, 0, 72, 0
2, 225847, Note_on_c, 0, 60, 0
2, 225872, Note_on_c, 0, 53, 80
2, 225894, Note_on_c, 0, 72, 91
2, 225934, Note_on_c, 0, 70, 0
2, 225957, Note_on_c, 0, 72, 0
2, 226017, Note_on_c, 0, 57, 80
2, 226029, Note_on_c, 0, 53, 0
2, 226057, Note_on_c, 0, 57, 0
2, 226164, Note_on_c, 0, 50, 86
2, 226166, Note_on_c, 0, 72, 90
2, 226166, Note_on_c, 0, 77, 84
2, 226170, Note_on_c, 0, 76, 85
2, 226215, Note_on_c, 0, 72, 0
2, 226328, Note_on_c, 0, 53, 74
2, 226360, Note_on_c, 0, 50, 0
2, 226463, Note_on_c, 0, 55, 73
2, 226478, Note_on_c, 0, 53, 0
2, 226478, Note_on_c, 0, 65, 72
2, 226478, Note_on_c, 0, 77, 0
2, 226514, Note_on_c, 0, 76, 0
2, 226542, Note_on_c, 0, 65, 0
2, 226579, Note_on_c, 0, 55, 0
2, 226606, Note_on_c, 0, 57, 82
2, 226732, Note_on_c, 0, 74, 92
2, 226746, Note_on_c, 0, 58, 84
2, 226750, Note_on_c, 0, 57, 0
2, 226877, Note_on_c, 0, 65, 72
2, 226886, Note_on_c, 0, 57, 82
2, 226891, Note_on_c, 0, 58, 0
2, 227007, Note_on_c, 0, 57, 0
2, 227012, Note_on_c, 0, 65, 0
2, 227016, Note_on_c, 0, 67, 76
2, 227021, Note_on_c, 0, 58, 80
2, 227147, Note_on_c, 0, 58, 0
2, 227148, Note_on_c, 0, 67, 0
2, 227152, Note_on_c, 0, 57, 73
2, 227158, Note_on_c, 0, 69, 73
2, 227289, Note_on_c, 0, 69, 0
2, 227295, Note_on_c, 0, 55, 70
2, 227295, Note_on_c, 0, 57, 0
2, 227295, Note_on_c, 0, 70, 85
2, 227311, Note_on_c, 0, 74, 0
2, 227424, Note_on_c, 0, 70, 0
2, 227426, Note_on_c, 0, 69, 70
2, 227435, Note_on_c, 0, 58, 79
2, 227444, Note_on_c, 0, 55, 0
2, 227558, Note_on_c, 0, 58, 0
2, 227567, Note_on_c, 0, 70, 83
2, 227580, Note_on_c, 0, 51, 75
2, 227593, Note_on_c, 0, 69, 0
2, 227678, Note_on_c, 0, 51, 0
2, 227724, Note_on_c, 0, 55, 67
2, 227793, Note_on_c, 0, 55, 0
2, 227855, Note_on_c, 0, 48, 67
2, 227866, Note_on_c, 0, 75, 76
2, 228002, Note_on_c, 0, 75, 0
2, 228020, Note_on_c, 0, 55, 61
2, 228117, Note_on_c, 0, 48, 0
2, 228139, Note_on_c, 0, 55, 0
2, 228164, Note_on_c, 0, 57, 70
2, 228164, Note_on_c, 0, 75, 80
2, 228185, Note_on_c, 0, 70, 0
2, 228282, Note_on_c, 0, 57, 0
2, 228288, Note_on_c, 0, 58, 79
2, 228302, Note_on_c, 0, 70, 83
2, 228315, Note_on_c, 0, 75, 0
2, 228366, Note_on_c, 0, 70, 0
2, 228422, Note_on_c, 0, 58, 0
2, 228431, Note_on_c, 0, 60, 79
2, 228444, Note_on_c, 0, 69, 87
2, 228444, Note_on_c, 0, 75, 93
2, 228495, Note_on_c, 0, 60, 0
2, 228510, Note_on_c, 0, 69, 0
2, 228521, Note_on_c, 0, 75, 0
2, 228576, Note_on_c, 0, 62, 82
2, 228580, Note_on_c, 0, 67, 81
2, 228619, Note_on_c, 0, 62, 0
2, 228636, Note_on_c, 0, 67, 0
2, 228720, Note_on_c, 0, 60, 85
2, 228722, Note_on_c, 0, 69, 88
2, 228722, Note_on_c, 0, 75, 82
2, 228766, Note_on_c, 0, 60, 0
2, 228787, Note_on_c, 0, 69, 0
2, 228791, Note_on_c, 0, 75, 0
2, 228861, Note_on_c, 0, 58, 82
2, 228861, Note_on_c, 0, 67, 83
2, 228899, Note_on_c, 0, 58, 0
2, 228917, Note_on_c, 0, 67, 0
2, 229004, Note_on_c, 0, 57, 90
2, 229004, Note_on_c, 0, 65, 89
2, 229008, Note_on_c, 0, 75, 90
2, 229048, Note_on_c, 0, 57, 0
2, 229130, Note_on_c, 0, 75, 0
2, 229155, Note_on_c, 0, 53, 87
2, 229194, Note_on_c, 0, 53, 0
2, 229296, Note_on_c, 0, 55, 88
2, 229300, Note_on_c, 0, 75, 86
2, 229349, Note_on_c, 0, 55, 0
2, 229420, Note_on_c, 0, 75, 0
2, 229438, Note_on_c, 0, 57, 92
2, 229477, Note_on_c, 0, 57, 0
2, 229574, Note_on_c, 0, 58, 94
2, 229584, Note_on_c, 0, 75, 90
2, 229638, Note_on_c, 0, 58, 0
2, 229725, Note_on_c, 0, 57, 85
2, 229777, Note_on_c, 0, 57, 0
2, 229864, Note_on_c, 0, 75, 0
2, 229868, Note_on_c, 0, 58, 83
2, 229877, Note_on_c, 0, 74, 80
2, 229882, Note_on_c, 0, 65, 0
2, 229906, Note_on_c, 0, 58, 0
2, 229967, Note_on_c, 0, 74, 0
2, 230006, Note_on_c, 0, 60, 75
2, 230013, Note_on_c, 0, 75, 75
2, 230040, Note_on_c, 0, 60, 0
2, 230072, Note_on_c, 0, 75, 0
2, 230154, Note_on_c, 0, 58, 90
2, 230158, Note_on_c, 0, 77, 102
2, 230165, Note_on_c, 0, 62, 77
2, 230185, Control_c, 0, 64, 40
2, 230199, Note_on_c, 0, 62, 0
2, 230206, Control_c, 0, 64, 61
2, 230224, Control_c, 0, 64, 71
2, 230242, Control_c, 0, 64, 85
2, 230264, Control_c, 0, 64, 127
2, 230264, Note_on_c, 0, 77, 0
2, 230291, Note_on_c, 0, 70, 82
2, 230300, Note_on_c, 0, 60, 76
2, 230348, Note_on_c, 0, 60, 0
2, 230352, Note_on_c, 0, 70, 0
2, 230431, Note_on_c, 0, 77, 83
2, 230443, Note_on_c, 0, 62, 67
2, 230505, Note_on_c, 0, 77, 0
2, 230512, Note_on_c, 0, 62, 0
2, 230562, Note_on_c, 0, 64, 79
2, 230562, Note_on_c, 0, 79, 91
2, 230580, Note_on_c, 0, 58, 0
2, 230603, Note_on_c, 0, 64, 0
2, 230616, Note_on_c, 0, 79, 0
2, 230668, Control_c, 0, 64, 78
2, 230686, Control_c, 0, 64, 44
2, 230690, Note_on_c, 0, 65, 84
2, 230690, Note_on_c, 0, 81, 89
2, 230709, Control_c, 0, 64, 0
2, 230734, Note_on_c, 0, 65, 0
2, 230748, Note_on_c, 0, 81, 0
2, 230825, Note_on_c, 0, 64, 84
2, 230832, Note_on_c, 0, 79, 90
2, 230856, Note_on_c, 0, 64, 0
2, 230883, Note_on_c, 0, 79, 0
2, 230969, Note_on_c, 0, 65, 95
2, 230973, Note_on_c, 0, 57, 91
2, 230973, Note_on_c, 0, 81, 88
2, 231032, Note_on_c, 0, 65, 0
2, 231061, Note_on_c, 0, 57, 0
2, 231084, Note_on_c, 0, 81, 0
2, 231107, Note_on_c, 0, 72, 90
2, 231159, Note_on_c, 0, 72, 0
2, 231256, Note_on_c, 0, 62, 93
2, 231259, Note_on_c, 0, 81, 88
2, 231265, Note_on_c, 0, 65, 89
2, 231265, Note_on_c, 0, 70, 90
2, 231292, Note_on_c, 0, 81, 0
2, 231318, Note_on_c, 0, 70, 0
2, 231407, Note_on_c, 0, 72, 90
2, 231483, Note_on_c, 0, 72, 0
2, 231560, Note_on_c, 0, 74, 87
2, 231569, Note_on_c, 0, 70, 85
2, 231656, Note_on_c, 0, 65, 0
2, 231665, Note_on_c, 0, 62, 0
2, 231673, Note_on_c, 0, 70, 0
2, 231682, Note_on_c, 0, 74, 0
2, 231707, Note_on_c, 0, 69, 83
2, 231821, Note_on_c, 0, 69, 0
2, 231853, Note_on_c, 0, 62, 86
2, 231861, Note_on_c, 0, 58, 90
2, 231862, Note_on_c, 0, 67, 94
2, 231998, Note_on_c, 0, 74, 86
2, 232056, Note_on_c, 0, 74, 0
2, 232129, Note_on_c, 0, 76, 93
2, 232187, Note_on_c, 0, 76, 0
2, 232223, Note_on_c, 0, 67, 0
2, 232262, Note_on_c, 0, 77, 95
2, 232317, Note_on_c, 0, 77, 0
2, 232408, Note_on_c, 0, 62, 0
2, 232408, Note_on_c, 0, 64, 93
2, 232408, Note_on_c, 0, 79, 95
2, 232462, Note_on_c, 0, 58, 0
2, 232467, Note_on_c, 0, 79, 0
2, 232543, Note_on_c, 0, 77, 88
2, 232594, Note_on_c, 0, 77, 0
2, 232686, Note_on_c, 0, 55, 92
2, 232688, Note_on_c, 0, 79, 92
2, 232800, Note_on_c, 0, 64, 0
2, 232805, Note_on_c, 0, 55, 0
2, 232814, Note_on_c, 0, 79, 0
2, 232819, Note_on_c, 0, 70, 81
2, 232890, Note_on_c, 0, 70, 0
2, 232965, Note_on_c, 0, 60, 96
2, 232973, Note_on_c, 0, 64, 93
2, 232973, Note_on_c, 0, 69, 83
2, 232973, Note_on_c, 0, 79, 82
2, 233018, Note_on_c, 0, 79, 0
2, 233047, Note_on_c, 0, 69, 0
2, 233118, Note_on_c, 0, 70, 90
2, 233188, Note_on_c, 0, 70, 0
2, 233266, Note_on_c, 0, 72, 90
2, 233273, Note_on_c, 0, 69, 79
2, 233312, Note_on_c, 0, 64, 0
2, 233328, Note_on_c, 0, 69, 0
2, 233350, Note_on_c, 0, 60, 0
2, 233357, Note_on_c, 0, 72, 0
2, 233409, Note_on_c, 0, 67, 81
2, 233517, Note_on_c, 0, 67, 0
2, 233557, Note_on_c, 0, 60, 88
2, 233559, Note_on_c, 0, 65, 96
2, 233563, Note_on_c, 0, 57, 89
2, 233697, Note_on_c, 0, 72, 93
2, 233747, Note_on_c, 0, 72, 0
2, 233832, Note_on_c, 0, 74, 93
2, 233887, Note_on_c, 0, 74, 0
2, 233968, Note_on_c, 0, 76, 95
2, 234019, Note_on_c, 0, 76, 0
2, 234061, Note_on_c, 0, 65, 0
2, 234104, Note_on_c, 0, 62, 87
2, 234104, Note_on_c, 0, 77, 98
2, 234135, Note_on_c, 0, 57, 0
2, 234143, Note_on_c, 0, 60, 0
2, 234151, Note_on_c, 0, 77, 0
2, 234239, Note_on_c, 0, 76, 89
2, 234291, Note_on_c, 0, 76, 0
2, 234389, Note_on_c, 0, 77, 83
2, 234396, Note_on_c, 0, 53, 65
2, 234449, Note_on_c, 0, 53, 0
2, 234513, Note_on_c, 0, 69, 68
2, 234614, Note_on_c, 0, 69, 0
2, 234663, Note_on_c, 0, 67, 68
2, 234668, Note_on_c, 0, 58, 61
2, 234675, Note_on_c, 0, 77, 0
2, 234750, Note_on_c, 0, 58, 0
2, 234819, Note_on_c, 0, 74, 62
2, 234946, Note_on_c, 0, 74, 0
2, 234953, Note_on_c, 0, 58, 65
2, 234967, Note_on_c, 0, 76, 66
2, 235015, Note_on_c, 0, 58, 0
2, 235059, Note_on_c, 0, 76, 0
2, 235098, Note_on_c, 0, 77, 74
2, 235236, Note_on_c, 0, 58, 72
2, 235236, Note_on_c, 0, 77, 0
2, 235236, Note_on_c, 0, 79, 80
2, 235301, Note_on_c, 0, 58, 0
2, 235380, Note_on_c, 0, 81, 75
2, 235402, Note_on_c, 0, 79, 0
2, 235508, Note_on_c, 0, 58, 79
2, 235516, Note_on_c, 0, 82, 81
2, 235521, Note_on_c, 0, 81, 0
2, 235591, Note_on_c, 0, 62, 0
2, 235599, Note_on_c, 0, 58, 0
2, 235655, Note_on_c, 0, 79, 78
2, 235685, Note_on_c, 0, 82, 0
2, 235791, Note_on_c, 0, 58, 77
2, 235796, Note_on_c, 0, 60, 79
2, 235800, Note_on_c, 0, 77, 81
2, 235800, Note_on_c, 0, 79, 0
2, 235845, Note_on_c, 0, 67, 0
2, 235900, Note_on_c, 0, 58, 0
2, 235924, Note_on_c, 0, 77, 0
2, 235938, Note_on_c, 0, 76, 78
2, 236084, Note_on_c, 0, 58, 68
2, 236084, Note_on_c, 0, 74, 80
2, 236110, Note_on_c, 0, 76, 0
2, 236132, Note_on_c, 0, 58, 0
2, 236214, Note_on_c, 0, 72, 78
2, 236242, Note_on_c, 0, 74, 0
2, 236361, Note_on_c, 0, 77, 89
2, 236367, Note_on_c, 0, 65, 81
2, 236374, Note_on_c, 0, 58, 81
2, 236374, Note_on_c, 0, 72, 0
2, 236387, Note_on_c, 0, 77, 0
2, 236478, Note_on_c, 0, 60, 0
2, 236612, Note_on_c, 0, 65, 0
2, 236659, Note_on_c, 0, 72, 82
2, 236670, Note_on_c, 0, 57, 71
2, 236670, Note_on_c, 0, 58, 0
2, 236695, Note_on_c, 0, 72, 0
2, 236781, Note_on_c, 0, 57, 0
2, 236810, Note_on_c, 0, 55, 58
2, 236917, Note_on_c, 0, 55, 0
2, 236931, Note_on_c, 0, 57, 71
2, 236944, Note_on_c, 0, 77, 79
2, 237048, Note_on_c, 0, 57, 0
2, 237072, Note_on_c, 0, 53, 68
2, 237202, Note_on_c, 0, 75, 81
2, 237210, Note_on_c, 0, 57, 73
2, 237237, Note_on_c, 0, 53, 0
2, 237248, Note_on_c, 0, 77, 0
2, 237333, Note_on_c, 0, 74, 87
2, 237346, Note_on_c, 0, 59, 81
2, 237371, Note_on_c, 0, 57, 0
2, 237371, Note_on_c, 0, 75, 0
2, 237472, Note_on_c, 0, 59, 0
2, 237481, Note_on_c, 0, 60, 78
2, 237481, Note_on_c, 0, 75, 90
2, 237488, Note_on_c, 0, 74, 0
2, 237590, Note_on_c, 0, 75, 0
2, 237608, Note_on_c, 0, 59, 81
2, 237612, Note_on_c, 0, 67, 81
2, 237617, Note_on_c, 0, 60, 0
2, 237762, Note_on_c, 0, 60, 83
2, 237762, Note_on_c, 0, 68, 82
2, 237762, Note_on_c, 0, 72, 81
2, 237771, Note_on_c, 0, 59, 0
2, 237775, Note_on_c, 0, 67, 0
2, 237890, Note_on_c, 0, 68, 0
2, 237897, Note_on_c, 0, 67, 83
2, 237926, Note_on_c, 0, 72, 0
2, 237997, Note_on_c, 0, 67, 0
2, 238038, Note_on_c, 0, 74, 88
2, 238047, Note_on_c, 0, 60, 0
2, 238047, Note_on_c, 0, 65, 80
2, 238077, Note_on_c, 0, 65, 0
2, 238088, Note_on_c, 0, 74, 0
2, 238187, Note_on_c, 0, 60, 73
2, 238302, Note_on_c, 0, 60, 0
2, 238328, Note_on_c, 0, 59, 63
2, 238328, Note_on_c, 0, 67, 71
2, 238332, Note_on_c, 0, 62, 69
2, 238361, Note_on_c, 0, 67, 0
2, 238370, Note_on_c, 0, 62, 0
2, 238435, Note_on_c, 0, 59, 0
2, 238469, Note_on_c, 0, 57, 67
2, 238605, Note_on_c, 0, 59, 72
2, 238611, Note_on_c, 0, 79, 90
2, 238620, Note_on_c, 0, 57, 0
2, 238733, Note_on_c, 0, 55, 71
2, 238738, Note_on_c, 0, 59, 0
2, 238880, Note_on_c, 0, 59, 79
2, 238884, Note_on_c, 0, 77, 90
2, 238924, Note_on_c, 0, 55, 0
2, 238928, Note_on_c, 0, 79, 0
2, 239012, Note_on_c, 0, 75, 91
2, 239017, Note_on_c, 0, 60, 79
2, 239056, Note_on_c, 0, 59, 0
2, 239056, Note_on_c, 0, 77, 0
2, 239159, Note_on_c, 0, 62, 91
2, 239167, Note_on_c, 0, 60, 0
2, 239171, Note_on_c, 0, 77, 88
2, 239175, Note_on_c, 0, 75, 0
2, 239289, Note_on_c, 0, 69, 82
2, 239294, Note_on_c, 0, 60, 88
2, 239305, Note_on_c, 0, 77, 0
2, 239320, Note_on_c, 0, 62, 0
2, 239435, Note_on_c, 0, 74, 86
2, 239439, Note_on_c, 0, 71, 82
2, 239446, Note_on_c, 0, 69, 0
2, 239450, Note_on_c, 0, 62, 91
2, 239476, Note_on_c, 0, 60, 0
2, 239545, Note_on_c, 0, 71, 0
2, 239547, Note_on_c, 0, 74, 0
2, 239572, Note_on_c, 0, 69, 84
2, 239666, Note_on_c, 0, 69, 0
2, 239717, Note_on_c, 0, 75, 89
2, 239724, Note_on_c, 0, 67, 82
2, 239728, Note_on_c, 0, 69, 44
2, 239752, Note_on_c, 0, 67, 0
2, 239765, Note_on_c, 0, 69, 0
2, 239781, Note_on_c, 0, 75, 0
2, 239801, Note_on_c, 0, 62, 0
2, 239859, Note_on_c, 0, 55, 73
2, 239999, Note_on_c, 0, 73, 86
2, 240012, Note_on_c, 0, 60, 75
2, 240016, Note_on_c, 0, 63, 64
2, 240027, Note_on_c, 0, 55, 0
2, 240051, Note_on_c, 0, 63, 0
2, 240067, Note_on_c, 0, 73, 0
2, 240145, Note_on_c, 0, 60, 0
2, 240149, Note_on_c, 0, 59, 74
2, 240281, Note_on_c, 0, 60, 76
2, 240286, Note_on_c, 0, 80, 92
2, 240290, Note_on_c, 0, 59, 0
2, 240408, Note_on_c, 0, 55, 72
2, 240417, Note_on_c, 0, 60, 0
2, 240555, Note_on_c, 0, 79, 84
2, 240560, Note_on_c, 0, 60, 78
2, 240618, Note_on_c, 0, 55, 0
2, 240624, Note_on_c, 0, 80, 0
2, 240689, Note_on_c, 0, 62, 84
2, 240693, Note_on_c, 0, 77, 91
2, 240724, Note_on_c, 0, 60, 0
2, 240724, Note_on_c, 0, 79, 0
2, 240829, Note_on_c, 0, 63, 88
2, 240835, Note_on_c, 0, 62, 0
2, 240835, Note_on_c, 0, 79, 90
2, 240840, Note_on_c, 0, 77, 0
2, 240965, Note_on_c, 0, 62, 89
2, 240965, Note_on_c, 0, 71, 89
2, 240983, Note_on_c, 0, 79, 0
2, 240989, Note_on_c, 0, 63, 0
2, 241101, Note_on_c, 0, 75, 87
2, 241110, Note_on_c, 0, 63, 93
2, 241110, Note_on_c, 0, 72, 82
2, 241114, Note_on_c, 0, 71, 0
2, 241143, Note_on_c, 0, 62, 0
2, 241217, Note_on_c, 0, 72, 0
2, 241245, Note_on_c, 0, 70, 80
2, 241256, Note_on_c, 0, 75, 0
2, 241289, Note_on_c, 0, 70, 0
2, 241388, Note_on_c, 0, 77, 95
2, 241393, Note_on_c, 0, 68, 94
2, 241498, Note_on_c, 0, 68, 0
2, 241528, Note_on_c, 0, 67, 81
2, 241594, Note_on_c, 0, 67, 0
2, 241607, Note_on_c, 0, 63, 0
2, 241672, Note_on_c, 0, 68, 94
2, 241814, Note_on_c, 0, 63, 91
2, 241855, Note_on_c, 0, 63, 0
2, 241964, Note_on_c, 0, 62, 98
2, 242101, Note_on_c, 0, 67, 80
2, 242105, Note_on_c, 0, 68, 0
2, 242211, Note_on_c, 0, 67, 0
2, 242256, Note_on_c, 0, 68, 90
2, 242280, Note_on_c, 0, 62, 0
2, 242413, Note_on_c, 0, 60, 82
2, 242447, Note_on_c, 0, 60, 0
2, 242548, Note_on_c, 0, 59, 94
2, 242693, Note_on_c, 0, 75, 83
2, 242746, Note_on_c, 0, 77, 0
2, 242829, Note_on_c, 0, 74, 83
2, 242866, Note_on_c, 0, 75, 0
2, 242871, Note_on_c, 0, 59, 0
2, 242909, Note_on_c, 0, 68, 0
2, 242969, Note_on_c, 0, 72, 87
2, 242980, Note_on_c, 0, 74, 0
2, 242987, Note_on_c, 0, 62, 67
2, 243009, Note_on_c, 0, 72, 0
2, 243026, Note_on_c, 0, 62, 0
2, 243111, Note_on_c, 0, 71, 87
2, 243115, Note_on_c, 0, 55, 74
2, 243248, Note_on_c, 0, 68, 87
2, 243265, Note_on_c, 0, 55, 0
2, 243282, Note_on_c, 0, 71, 0
2, 243310, Note_on_c, 0, 68, 0
2, 243395, Note_on_c, 0, 67, 87
2, 243400, Note_on_c, 0, 59, 79
2, 243400, Note_on_c, 0, 74, 82
2, 243492, Note_on_c, 0, 67, 0
2, 243536, Note_on_c, 0, 59, 0
2, 243540, Note_on_c, 0, 65, 75
2, 243590, Note_on_c, 0, 65, 0
2, 243689, Note_on_c, 0, 60, 78
2, 243694, Note_on_c, 0, 63, 89
2, 243763, Note_on_c, 0, 74, 0
2, 243788, Note_on_c, 0, 60, 0
2, 243843, Note_on_c, 0, 67, 73
2, 243896, Note_on_c, 0, 67, 0
2, 243980, Note_on_c, 0, 72, 88
2, 243984, Note_on_c, 0, 63, 0
2, 243991, Note_on_c, 0, 56, 66
2, 244090, Note_on_c, 0, 56, 0
2, 244123, Note_on_c, 0, 63, 74
2, 244185, Note_on_c, 0, 63, 0
2, 244269, Note_on_c, 0, 53, 63
2, 244282, Note_on_c, 0, 62, 78
2, 244302, Note_on_c, 0, 72, 0
2, 244432, Note_on_c, 0, 53, 0
2, 244436, Note_on_c, 0, 72, 75
2, 244468, Note_on_c, 0, 72, 0
2, 244483, Note_on_c, 0, 62, 0
2, 244577, Note_on_c, 0, 71, 71
2, 244588, Note_on_c, 0, 55, 60
2, 244690, Note_on_c, 0, 55, 0
2, 244725, Note_on_c, 0, 65, 46
2, 244816, Note_on_c, 0, 65, 0
2, 244888, Note_on_c, 0, 48, 42
2, 244895, Note_on_c, 0, 72, 67
2, 244899, Note_on_c, 0, 71, 0
2, 245040, Note_on_c, 0, 65, 50
2, 245151, Note_on_c, 0, 65, 0
2, 245180, Note_on_c, 0, 63, 58
2, 245246, Note_on_c, 0, 48, 0
2, 245308, Note_on_c, 0, 63, 0
2, 245325, Note_on_c, 0, 62, 71
2, 245345, Note_on_c, 0, 72, 0
2, 245459, Note_on_c, 0, 63, 77
2, 245464, Note_on_c, 0, 62, 0
2, 245468, Note_on_c, 0, 60, 73
2, 245598, Note_on_c, 0, 48, 58
2, 245610, Note_on_c, 0, 70, 64
2, 245710, Note_on_c, 0, 70, 0
2, 245718, Note_on_c, 0, 48, 0
2, 245740, Note_on_c, 0, 50, 58
2, 245740, Note_on_c, 0, 69, 56
2, 245854, Note_on_c, 0, 69, 0
2, 245858, Note_on_c, 0, 50, 0
2, 245878, Note_on_c, 0, 51, 62
2, 245889, Note_on_c, 0, 67, 56
2, 245935, Note_on_c, 0, 60, 0
2, 245993, Note_on_c, 0, 67, 0
2, 246004, Note_on_c, 0, 51, 0
2, 246010, Note_on_c, 0, 63, 0
2, 246034, Note_on_c, 0, 69, 60
2, 246039, Note_on_c, 0, 53, 56
2, 246143, Note_on_c, 0, 53, 0
2, 246172, Note_on_c, 0, 51, 55
2, 246295, Note_on_c, 0, 51, 0
2, 246309, Note_on_c, 0, 53, 60
2, 246314, Note_on_c, 0, 57, 60
2, 246314, Note_on_c, 0, 60, 68
2, 246362, Note_on_c, 0, 60, 0
2, 246379, Note_on_c, 0, 57, 0
2, 246390, Note_on_c, 0, 53, 0
2, 246636, Note_on_c, 0, 65, 63
2, 246641, Note_on_c, 0, 62, 57
2, 246645, Note_on_c, 0, 53, 60
2, 246678, Note_on_c, 0, 69, 0
2, 246762, Note_on_c, 0, 53, 0
2, 246780, Note_on_c, 0, 67, 57
2, 246874, Note_on_c, 0, 67, 0
2, 246953, Note_on_c, 0, 46, 49
2, 246953, Note_on_c, 0, 69, 49
2, 247086, Note_on_c, 0, 65, 0
2, 247090, Note_on_c, 0, 70, 70
2, 247101, Note_on_c, 0, 62, 0
2, 247114, Note_on_c, 0, 69, 0
2, 247128, Note_on_c, 0, 46, 0
2, 247239, Note_on_c, 0, 62, 75
2, 247239, Note_on_c, 0, 67, 82
2, 247244, Note_on_c, 0, 58, 82
2, 247244, Note_on_c, 0, 70, 0
2, 247381, Note_on_c, 0, 46, 70
2, 247518, Note_on_c, 0, 48, 67
2, 247553, Note_on_c, 0, 46, 0
2, 247665, Note_on_c, 0, 50, 71
2, 247680, Note_on_c, 0, 48, 0
2, 247797, Note_on_c, 0, 62, 0
2, 247811, Note_on_c, 0, 51, 82
2, 247831, Note_on_c, 0, 50, 0
2, 247835, Note_on_c, 0, 58, 0
2, 247959, Note_on_c, 0, 50, 71
2, 247959, Note_on_c, 0, 51, 0
2, 248089, Note_on_c, 0, 58, 68
2, 248094, Note_on_c, 0, 55, 61
2, 248105, Note_on_c, 0, 51, 69
2, 248145, Note_on_c, 0, 50, 0
2, 248168, Note_on_c, 0, 58, 0
2, 248182, Note_on_c, 0, 55, 0
2, 248186, Note_on_c, 0, 51, 0
2, 248374, Note_on_c, 0, 51, 46
2, 248399, Note_on_c, 0, 63, 70
2, 248408, Note_on_c, 0, 60, 56
2, 248417, Note_on_c, 0, 67, 0
2, 248546, Note_on_c, 0, 65, 59
2, 248551, Note_on_c, 0, 51, 0
2, 248658, Note_on_c, 0, 65, 0
2, 248667, Note_on_c, 0, 63, 0
2, 248673, Note_on_c, 0, 67, 67
2, 248686, Note_on_c, 0, 45, 45
2, 248783, Note_on_c, 0, 60, 0
2, 248825, Note_on_c, 0, 69, 66
2, 248841, Note_on_c, 0, 67, 0
2, 248864, Note_on_c, 0, 45, 0
2, 248974, Note_on_c, 0, 60, 61
2, 248974, Note_on_c, 0, 65, 67
2, 248985, Note_on_c, 0, 57, 72
2, 248985, Note_on_c, 0, 69, 0
2, 249121, Note_on_c, 0, 45, 60
2, 249275, Note_on_c, 0, 46, 66
2, 249333, Note_on_c, 0, 45, 0
2, 249405, Note_on_c, 0, 48, 70
2, 249427, Note_on_c, 0, 46, 0
2, 249543, Note_on_c, 0, 60, 0
2, 249556, Note_on_c, 0, 50, 77
2, 249563, Note_on_c, 0, 48, 0
2, 249581, Note_on_c, 0, 57, 0
2, 249675, Note_on_c, 0, 50, 0
2, 249710, Note_on_c, 0, 48, 60
2, 249814, Note_on_c, 0, 48, 0
2, 249848, Note_on_c, 0, 50, 50
2, 249853, Note_on_c, 0, 53, 54
2, 249857, Note_on_c, 0, 57, 61
2, 249925, Control_c, 0, 64, 24
2, 249941, Control_c, 0, 64, 41
2, 249962, Control_c, 0, 64, 55
2, 249980, Control_c, 0, 64, 61
2, 250017, Control_c, 0, 64, 62
2, 250038, Control_c, 0, 64, 64
2, 250038, Note_on_c, 0, 57, 0
2, 250061, Control_c, 0, 64, 67
2, 250076, Control_c, 0, 64, 71
2, 250087, Note_on_c, 0, 53, 0
2, 250097, Control_c, 0, 64, 76
2, 250115, Control_c, 0, 64, 80
2, 250134, Control_c, 0, 64, 81
2, 250155, Control_c, 0, 64, 82
2, 250169, Note_on_c, 0, 62, 73
2, 250173, Note_on_c, 0, 58, 70
2, 250209, Control_c, 0, 64, 83
2, 250230, Control_c, 0, 64, 84
2, 250284, Note_on_c, 0, 58, 0
2, 250302, Note_on_c, 0, 62, 0
2, 250306, Note_on_c, 0, 48, 76
2, 250312, Note_on_c, 0, 50, 0
2, 250366, Control_c, 0, 64, 83
2, 250381, Control_c, 0, 64, 82
2, 250400, Control_c, 0, 64, 81
2, 250421, Control_c, 0, 64, 79
2, 250439, Control_c, 0, 64, 76
2, 250462, Note_on_c, 0, 58, 76
2, 250466, Control_c, 0, 64, 70
2, 250466, Note_on_c, 0, 50, 81
2, 250466, Note_on_c, 0, 62, 73
2, 250479, Control_c, 0, 64, 63
2, 250484, Note_on_c, 0, 48, 0
2, 250497, Control_c, 0, 64, 52
2, 250517, Control_c, 0, 64, 34
2, 250534, Control_c, 0, 64, 0
2, 250568, Note_on_c, 0, 65, 0
2, 250588, Note_on_c, 0, 50, 0
2, 250593, Note_on_c, 0, 69, 72
2, 250601, Note_on_c, 0, 48, 72
2, 250606, Note_on_c, 0, 58, 0
2, 250634, Note_on_c, 0, 48, 0
2, 250639, Note_on_c, 0, 62, 0
2, 250732, Note_on_c, 0, 67, 76
2, 250733, Note_on_c, 0, 46, 90
2, 250737, Note_on_c, 0, 62, 76
2, 250739, Note_on_c, 0, 58, 77
2, 250774, Note_on_c, 0, 69, 0
2, 250851, Note_on_c, 0, 62, 0
2, 250856, Note_on_c, 0, 58, 0
2, 250875, Note_on_c, 0, 45, 75
2, 250950, Note_on_c, 0, 46, 0
2, 250977, Note_on_c, 0, 45, 0
2, 251019, Note_on_c, 0, 46, 82
2, 251030, Note_on_c, 0, 58, 79
2, 251030, Note_on_c, 0, 62, 81
2, 251079, Note_on_c, 0, 46, 0
2, 251111, Note_on_c, 0, 58, 0
2, 251142, Note_on_c, 0, 62, 0
2, 251157, Note_on_c, 0, 44, 95
2, 251177, Note_on_c, 0, 65, 73
2, 251199, Note_on_c, 0, 44, 0
2, 251219, Note_on_c, 0, 67, 0
2, 251308, Note_on_c, 0, 70, 89
2, 251313, Note_on_c, 0, 43, 94
2, 251313, Note_on_c, 0, 62, 80
2, 251317, Note_on_c, 0, 58, 78
2, 251330, Note_on_c, 0, 65, 0
2, 251364, Note_on_c, 0, 43, 0
2, 251444, Note_on_c, 0, 58, 0
2, 251450, Note_on_c, 0, 41, 88
2, 251461, Note_on_c, 0, 62, 0
2, 251488, Note_on_c, 0, 41, 0
2, 251590, Note_on_c, 0, 43, 90
2, 251605, Note_on_c, 0, 62, 78
2, 251614, Note_on_c, 0, 58, 79
2, 251634, Note_on_c, 0, 70, 0
2, 251638, Note_on_c, 0, 43, 0
2, 251724, Note_on_c, 0, 41, 85
2, 251744, Note_on_c, 0, 58, 0
2, 251744, Note_on_c, 0, 69, 75
2, 251761, Note_on_c, 0, 62, 0
2, 251770, Note_on_c, 0, 41, 0
2, 251879, Note_on_c, 0, 40, 88
2, 251886, Note_on_c, 0, 58, 79
2, 251886, Note_on_c, 0, 62, 85
2, 251888, Note_on_c, 0, 67, 76
2, 251899, Control_c, 0, 64, 40
2, 251899, Note_on_c, 0, 69, 0
2, 251917, Control_c, 0, 64, 55
2, 251939, Control_c, 0, 64, 64
2, 251957, Control_c, 0, 64, 68
2, 251961, Note_on_c, 0, 58, 0
2, 251961, Note_on_c, 0, 62, 0
2, 251976, Control_c, 0, 64, 73
2, 251994, Control_c, 0, 64, 79
2, 252015, Control_c, 0, 64, 87
2, 252024, Note_on_c, 0, 40, 0
2, 252038, Control_c, 0, 64, 92
2, 252038, Note_on_c, 0, 36, 73
2, 252055, Control_c, 0, 64, 94
2, 252073, Control_c, 0, 64, 96
2, 252090, Control_c, 0, 64, 106
2, 252110, Control_c, 0, 64, 127
2, 252187, Control_c, 0, 64, 89
2, 252193, Note_on_c, 0, 38, 74
2, 252193, Note_on_c, 0, 57, 77
2, 252205, Control_c, 0, 64, 61
2, 252210, Note_on_c, 0, 60, 74
2, 252215, Note_on_c, 0, 36, 0
2, 252225, Control_c, 0, 64, 0
2, 252316, Note_on_c, 0, 57, 0
2, 252316, Note_on_c, 0, 60, 0
2, 252337, Note_on_c, 0, 55, 65
2, 252342, Note_on_c, 0, 40, 71
2, 252348, Note_on_c, 0, 38, 0
2, 252473, Note_on_c, 0, 60, 63
2, 252481, Note_on_c, 0, 40, 0
2, 252485, Note_on_c, 0, 55, 0
2, 252490, Note_on_c, 0, 57, 62
2, 252494, Note_on_c, 0, 41, 73
2, 252577, Note_on_c, 0, 67, 0
2, 252604, Note_on_c, 0, 57, 0
2, 252604, Note_on_c, 0, 60, 0
2, 252611, Note_on_c, 0, 41, 0
2, 252620, Note_on_c, 0, 55, 62
2, 252638, Note_on_c, 0, 36, 61
2, 252707, Note_on_c, 0, 55, 0
2, 252744, Note_on_c, 0, 65, 71
2, 252757, Note_on_c, 0, 57, 69
2, 252775, Note_on_c, 0, 41, 61
2, 252799, Note_on_c, 0, 36, 0
2, 252855, Note_on_c, 0, 57, 0
2, 252872, Note_on_c, 0, 41, 0
2, 252905, Note_on_c, 0, 59, 66
2, 252910, Note_on_c, 0, 43, 58
2, 253021, Note_on_c, 0, 59, 0
2, 253035, Note_on_c, 0, 43, 0
2, 253047, Note_on_c, 0, 44, 67
2, 253047, Note_on_c, 0, 60, 66
2, 253078, Note_on_c, 0, 44, 0
2, 253167, Note_on_c, 0, 60, 0
2, 253179, Note_on_c, 0, 59, 64
2, 253287, Note_on_c, 0, 65, 0
2, 253314, Note_on_c, 0, 59, 0
2, 253328, Note_on_c, 0, 60, 64
2, 253336, Note_on_c, 0, 38, 57
2, 253372, Note_on_c, 0, 38, 0
2, 253469, Note_on_c, 0, 65, 56
2, 253601, Note_on_c, 0, 63, 69
2, 253627, Control_c, 0, 64, 9
2, 253638, Note_on_c, 0, 43, 47
2, 253638, Note_on_c, 0, 65, 0
2, 253646, Control_c, 0, 64, 44
2, 253668, Control_c, 0, 64, 62
2, 253685, Control_c, 0, 64, 66
2, 253705, Control_c, 0, 64, 68
2, 253725, Control_c, 0, 64, 71
2, 253725, Note_on_c, 0, 60, 0
2, 253736, Note_on_c, 0, 43, 0
2, 253745, Control_c, 0, 64, 77
2, 253745, Note_on_c, 0, 63, 0
2, 253762, Control_c, 0, 64, 88
2, 253772, Note_on_c, 0, 42, 54
2, 253780, Control_c, 0, 64, 108
2, 253800, Control_c, 0, 64, 127
2, 253883, Note_on_c, 0, 42, 0
2, 253916, Note_on_c, 0, 59, 65
2, 253916, Note_on_c, 0, 62, 65
2, 253919, Note_on_c, 0, 43, 56
2, 253951, Control_c, 0, 64, 86
2, 253972, Control_c, 0, 64, 62
2, 253983, Note_on_c, 0, 43, 0
2, 253995, Control_c, 0, 64, 11
2, 254010, Control_c, 0, 64, 0
2, 254023, Note_on_c, 0, 59, 0
2, 254047, Note_on_c, 0, 45, 58
2, 254058, Note_on_c, 0, 57, 64
2, 254151, Note_on_c, 0, 45, 0
2, 254163, Note_on_c, 0, 57, 0
2, 254188, Note_on_c, 0, 47, 56
2, 254193, Note_on_c, 0, 55, 63
2, 254295, Note_on_c, 0, 47, 0
2, 254297, Note_on_c, 0, 55, 0
2, 254330, Note_on_c, 0, 45, 47
2, 254335, Note_on_c, 0, 50, 61
2, 254437, Note_on_c, 0, 50, 0
2, 254468, Note_on_c, 0, 45, 0
2, 254477, Note_on_c, 0, 47, 59
2, 254484, Note_on_c, 0, 55, 57
2, 254574, Note_on_c, 0, 62, 0
2, 254616, Note_on_c, 0, 55, 0
2, 254621, Note_on_c, 0, 57, 64
2, 254630, Note_on_c, 0, 47, 0
2, 254637, Note_on_c, 0, 50, 56
2, 254698, Note_on_c, 0, 57, 0
2, 254744, Note_on_c, 0, 50, 0
2, 254759, Note_on_c, 0, 55, 61
2, 254764, Note_on_c, 0, 59, 65
2, 254787, Note_on_c, 0, 55, 0
2, 254863, Note_on_c, 0, 59, 0
2, 254901, Note_on_c, 0, 60, 66
2, 255031, Note_on_c, 0, 60, 0
2, 255046, Note_on_c, 0, 62, 71
2, 255047, Note_on_c, 0, 47, 61
2, 255087, Note_on_c, 0, 47, 0
2, 255180, Note_on_c, 0, 67, 67
2, 255320, Note_on_c, 0, 65, 71
2, 255346, Note_on_c, 0, 48, 57
2, 255355, Control_c, 0, 64, 35
2, 255377, Control_c, 0, 64, 60
2, 255377, Note_on_c, 0, 67, 0
2, 255394, Note_on_c, 0, 62, 0
2, 255399, Control_c, 0, 64, 65
2, 255414, Control_c, 0, 64, 66
2, 255436, Control_c, 0, 64, 68
2, 255443, Note_on_c, 0, 65, 0
2, 255454, Control_c, 0, 64, 71
2, 255471, Control_c, 0, 64, 79
2, 255487, Note_on_c, 0, 60, 61
2, 255494, Control_c, 0, 64, 94
2, 255509, Control_c, 0, 64, 127
2, 255571, Note_on_c, 0, 60, 0
2, 255606, Control_c, 0, 64, 93
2, 255606, Note_on_c, 0, 55, 61
2, 255625, Control_c, 0, 64, 63
2, 255629, Note_on_c, 0, 60, 61
2, 255629, Note_on_c, 0, 63, 78
2, 255644, Note_on_c, 0, 48, 0
2, 255646, Control_c, 0, 64, 0
2, 255756, Note_on_c, 0, 55, 0
2, 255760, Note_on_c, 0, 60, 0
2, 255764, Note_on_c, 0, 65, 74
2, 255768, Note_on_c, 0, 51, 62
2, 255771, Note_on_c, 0, 63, 0
2, 255802, Note_on_c, 0, 65, 0
2, 255925, Note_on_c, 0, 51, 0
2, 255963, Note_on_c, 0, 48, 45
2, 255968, Note_on_c, 0, 75, 83
2, 255974, Note_on_c, 0, 67, 64
2, 256029, Control_c, 0, 64, 32
2, 256033, Note_on_c, 0, 73, 16
2, 256049, Control_c, 0, 64, 52
2, 256067, Control_c, 0, 64, 62
2, 256072, Note_on_c, 0, 73, 0
2, 256125, Control_c, 0, 64, 64
2, 256145, Control_c, 0, 64, 67
2, 256159, Note_on_c, 0, 55, 49
2, 256163, Control_c, 0, 64, 71
2, 256181, Control_c, 0, 64, 76
2, 256201, Control_c, 0, 64, 83
2, 256221, Control_c, 0, 64, 92
2, 256241, Control_c, 0, 64, 104
2, 256241, Note_on_c, 0, 55, 0
2, 256252, Note_on_c, 0, 48, 0
2, 256259, Note_on_c, 0, 67, 0
2, 256264, Control_c, 0, 64, 127
2, 256284, Note_on_c, 0, 57, 63
2, 256305, Note_on_c, 0, 75, 0
2, 256380, Note_on_c, 0, 57, 0
2, 256410, Note_on_c, 0, 59, 71
2, 256492, Control_c, 0, 64, 103
2, 256508, Control_c, 0, 64, 64
2, 256527, Control_c, 0, 64, 0
2, 256531, Note_on_c, 0, 59, 0
2, 256540, Note_on_c, 0, 60, 78
2, 256669, Note_on_c, 0, 59, 76
2, 256683, Note_on_c, 0, 60, 0
2, 256776, Note_on_c, 0, 59, 0
2, 256807, Note_on_c, 0, 63, 75
2, 256807, Note_on_c, 0, 72, 83
2, 256821, Note_on_c, 0, 60, 72
2, 256836, Note_on_c, 0, 63, 0
2, 256853, Note_on_c, 0, 72, 0
2, 256965, Note_on_c, 0, 56, 74
2, 256973, Note_on_c, 0, 60, 0
2, 257097, Note_on_c, 0, 77, 92
2, 257102, Note_on_c, 0, 68, 85
2, 257129, Note_on_c, 0, 60, 56
2, 257144, Control_c, 0, 64, 38
2, 257162, Control_c, 0, 64, 57
2, 257182, Control_c, 0, 64, 64
2, 257201, Control_c, 0, 64, 65
2, 257218, Control_c, 0, 64, 68
2, 257236, Note_on_c, 0, 50, 55
2, 257240, Control_c, 0, 64, 76
2, 257258, Control_c, 0, 64, 94
2, 257263, Note_on_c, 0, 60, 0
2, 257278, Note_on_c, 0, 56, 0
2, 257283, Control_c, 0, 64, 127
2, 257317, Note_on_c, 0, 77, 0
2, 257345, Note_on_c, 0, 68, 0
2, 257374, Note_on_c, 0, 53, 70
2, 257383, Note_on_c, 0, 50, 0
2, 257410, Control_c, 0, 64, 98
2, 257428, Control_c, 0, 64, 63
2, 257446, Control_c, 0, 64, 0
2, 257517, Note_on_c, 0, 56, 71
2, 257554, Note_on_c, 0, 53, 0
2, 257655, Note_on_c, 0, 56, 0
2, 257664, Note_on_c, 0, 74, 93
2, 257673, Note_on_c, 0, 58, 64
2, 257673, Note_on_c, 0, 65, 82
2, 257735, Control_c, 0, 64, 10
2, 257755, Control_c, 0, 64, 33
2, 257773, Control_c, 0, 64, 51
2, 257793, Control_c, 0, 64, 62
2, 257814, Control_c, 0, 64, 65
2, 257814, Note_on_c, 0, 53, 65
2, 257831, Control_c, 0, 64, 66
2, 257849, Control_c, 0, 64, 69
2, 257869, Control_c, 0, 64, 80
2, 257888, Control_c, 0, 64, 104
2, 257906, Control_c, 0, 64, 127
2, 257944, Note_on_c, 0, 55, 71
2, 257972, Note_on_c, 0, 65, 0
2, 257978, Note_on_c, 0, 74, 0
2, 258005, Note_on_c, 0, 53, 0
2, 258022, Note_on_c, 0, 58, 0
2, 258080, Note_on_c, 0, 56, 79
2, 258114, Note_on_c, 0, 55, 0
2, 258119, Control_c, 0, 64, 78
2, 258139, Control_c, 0, 64, 46
2, 258157, Control_c, 0, 64, 0
2, 258208, Note_on_c, 0, 58, 78
2, 258218, Note_on_c, 0, 56, 0
2, 258341, Note_on_c, 0, 56, 78
2, 258357, Note_on_c, 0, 58, 0
2, 258473, Note_on_c, 0, 62, 81
2, 258473, Note_on_c, 0, 70, 89
2, 258477, Note_on_c, 0, 56, 0
2, 258486, Note_on_c, 0, 58, 77
2, 258504, Note_on_c, 0, 62, 0
2, 258510, Note_on_c, 0, 70, 0
2, 258603, Note_on_c, 0, 55, 73
2, 258640, Note_on_c, 0, 58, 0
2, 258763, Note_on_c, 0, 67, 88
2, 258763, Note_on_c, 0, 75, 92
2, 258771, Control_c, 0, 64, 38
2, 258776, Note_on_c, 0, 58, 74
2, 258792, Control_c, 0, 64, 57
2, 258809, Control_c, 0, 64, 64
2, 258828, Control_c, 0, 64, 66
2, 258848, Control_c, 0, 64, 70
2, 258868, Control_c, 0, 64, 77
2, 258890, Control_c, 0, 64, 94
2, 258906, Control_c, 0, 64, 127
2, 258921, Note_on_c, 0, 48, 64
2, 258950, Note_on_c, 0, 75, 0
2, 258959, Note_on_c, 0, 55, 0
2, 258978, Note_on_c, 0, 67, 0
2, 259060, Note_on_c, 0, 51, 81
2, 259069, Note_on_c, 0, 58, 0
2, 259100, Control_c, 0, 64, 104
2, 259117, Control_c, 0, 64, 64
2, 259126, Note_on_c, 0, 48, 0
2, 259139, Control_c, 0, 64, 0
2, 259203, Note_on_c, 0, 55, 73
2, 259267, Note_on_c, 0, 51, 0
2, 259346, Note_on_c, 0, 72, 93
2, 259353, Note_on_c, 0, 55, 0
2, 259353, Note_on_c, 0, 63, 86
2, 259357, Note_on_c, 0, 56, 76
2, 259426, Control_c, 0, 64, 15
2, 259444, Control_c, 0, 64, 34
2, 259465, Control_c, 0, 64, 49
2, 259481, Control_c, 0, 64, 61
2, 259489, Note_on_c, 0, 51, 77
2, 259503, Control_c, 0, 64, 64
2, 259521, Control_c, 0, 64, 65
2, 259543, Control_c, 0, 64, 69
2, 259560, Control_c, 0, 64, 76
2, 259578, Control_c, 0, 64, 91
2, 259598, Control_c, 0, 64, 120
2, 259616, Control_c, 0, 64, 127
2, 259627, Note_on_c, 0, 53, 78
2, 259675, Note_on_c, 0, 56, 0
2, 259675, Note_on_c, 0, 63, 0
2, 259679, Note_on_c, 0, 72, 0
2, 259703, Note_on_c, 0, 51, 0
2, 259768, Note_on_c, 0, 55, 79
2, 259805, Note_on_c, 0, 53, 0
2, 259847, Control_c, 0, 64, 103
2, 259869, Control_c, 0, 64, 64
2, 259885, Control_c, 0, 64, 0
2, 259903, Note_on_c, 0, 56, 82
2, 259908, Note_on_c, 0, 55, 0
2, 260032, Note_on_c, 0, 55, 78
2, 260057, Note_on_c, 0, 56, 0
2, 260167, Note_on_c, 0, 55, 0
2, 260185, Note_on_c, 0, 56, 81
2, 260185, Note_on_c, 0, 60, 83
2, 260185, Note_on_c, 0, 68, 92
2, 260266, Note_on_c, 0, 60, 0
2, 260287, Note_on_c, 0, 68, 0
2, 260323, Note_on_c, 0, 53, 65
2, 260465, Note_on_c, 0, 56, 0
2, 260473, Note_on_c, 0, 47, 68
2, 260473, Note_on_c, 0, 53, 0
2, 260480, Control_c, 0, 64, 24
2, 260487, Note_on_c, 0, 74, 87
2, 260492, Note_on_c, 0, 65, 73
2, 260498, Control_c, 0, 64, 48
2, 260520, Control_c, 0, 64, 62
2, 260538, Control_c, 0, 64, 65
2, 260575, Control_c, 0, 64, 67
2, 260596, Control_c, 0, 64, 72
2, 260619, Control_c, 0, 64, 84
2, 260619, Note_on_c, 0, 55, 80
2, 260619, Note_on_c, 0, 65, 0
2, 260628, Note_on_c, 0, 74, 0
2, 260634, Control_c, 0, 64, 96
2, 260653, Control_c, 0, 64, 101
2, 260672, Control_c, 0, 64, 102
2, 260751, Control_c, 0, 64, 101
2, 260770, Control_c, 0, 64, 97
2, 260770, Note_on_c, 0, 56, 84
2, 260781, Note_on_c, 0, 65, 89
2, 260781, Note_on_c, 0, 74, 97
2, 260787, Control_c, 0, 64, 95
2, 260792, Note_on_c, 0, 55, 0
2, 260807, Control_c, 0, 64, 94
2, 260847, Control_c, 0, 64, 93
2, 260856, Note_on_c, 0, 65, 0
2, 260865, Control_c, 0, 64, 92
2, 260869, Note_on_c, 0, 74, 0
2, 260884, Control_c, 0, 64, 91
2, 260904, Control_c, 0, 64, 93
2, 260913, Note_on_c, 0, 56, 0
2, 260923, Note_on_c, 0, 55, 80
2, 260924, Control_c, 0, 64, 96
2, 260940, Control_c, 0, 64, 102
2, 260960, Control_c, 0, 64, 122
2, 260980, Control_c, 0, 64, 127
2, 261002, Note_on_c, 0, 47, 0
2, 261024, Note_on_c, 0, 55, 0
2, 261040, Control_c, 0, 64, 87
2, 261057, Control_c, 0, 64, 61
2, 261066, Note_on_c, 0, 53, 89
2, 261071, Note_on_c, 0, 65, 95
2, 261075, Control_c, 0, 64, 0
2, 261075, Note_on_c, 0, 74, 94
2, 261129, Note_on_c, 0, 53, 0
2, 261129, Note_on_c, 0, 65, 0
2, 261129, Note_on_c, 0, 74, 0
2, 261204, Note_on_c, 0, 51, 87
2, 261245, Note_on_c, 0, 51, 0
2, 261350, Note_on_c, 0, 50, 90
2, 261350, Note_on_c, 0, 53, 90
2, 261359, Note_on_c, 0, 65, 97
2, 261359, Note_on_c, 0, 74, 98
2, 261388, Note_on_c, 0, 53, 0
2, 261397, Note_on_c, 0, 50, 0
2, 261401, Note_on_c, 0, 65, 0
2, 261409, Note_on_c, 0, 74, 0
2, 261495, Note_on_c, 0, 51, 93
2, 261539, Note_on_c, 0, 51, 0
2, 261640, Note_on_c, 0, 50, 94
2, 261644, Note_on_c, 0, 41, 87
2, 261644, Note_on_c, 0, 65, 91
2, 261644, Note_on_c, 0, 74, 98
2, 261675, Note_on_c, 0, 50, 0
2, 261680, Note_on_c, 0, 41, 0
2, 261682, Note_on_c, 0, 65, 0
2, 261691, Note_on_c, 0, 74, 0
2, 261780, Note_on_c, 0, 48, 93
2, 261824, Note_on_c, 0, 48, 0
2, 261924, Note_on_c, 0, 50, 94
2, 261924, Note_on_c, 0, 74, 99
2, 261928, Note_on_c, 0, 44, 87
2, 261928, Note_on_c, 0, 65, 93
2, 261958, Note_on_c, 0, 50, 0
2, 261963, Note_on_c, 0, 65, 0
2, 261976, Note_on_c, 0, 43, 48
2, 261976, Note_on_c, 0, 74, 0
2, 261987, Note_on_c, 0, 44, 0
2, 262032, Note_on_c, 0, 43, 0
2, 262065, Note_on_c, 0, 48, 88
2, 262101, Note_on_c, 0, 48, 0
2, 262212, Note_on_c, 0, 43, 80
2, 262223, Note_on_c, 0, 47, 80
2, 262223, Note_on_c, 0, 74, 94
2, 262225, Note_on_c, 0, 65, 88
2, 262243, Control_c, 0, 64, 16
2, 262262, Control_c, 0, 64, 43
2, 262285, Control_c, 0, 64, 59
2, 262303, Control_c, 0, 64, 64
2, 262305, Note_on_c, 0, 47, 0
2, 262311, Note_on_c, 0, 43, 0
2, 262320, Control_c, 0, 64, 65
2, 262341, Control_c, 0, 64, 66
2, 262361, Control_c, 0, 64, 69
2, 262365, Note_on_c, 0, 72, 92
2, 262381, Control_c, 0, 64, 72
2, 262398, Control_c, 0, 64, 77
2, 262402, Note_on_c, 0, 74, 0
2, 262406, Note_on_c, 0, 65, 0
2, 262420, Control_c, 0, 64, 78
2, 262506, Note_on_c, 0, 74, 89
2, 262509, Note_on_c, 0, 55, 81
2, 262513, Control_c, 0, 64, 77
2, 262513, Note_on_c, 0, 59, 85
2, 262513, Note_on_c, 0, 65, 82
2, 262527, Note_on_c, 0, 72, 0
2, 262540, Note_on_c, 0, 55, 0
2, 262540, Note_on_c, 0, 59, 0
2, 262574, Control_c, 0, 64, 78
2, 262589, Control_c, 0, 64, 79
2, 262607, Control_c, 0, 64, 81
2, 262630, Control_c, 0, 64, 83
2, 262650, Note_on_c, 0, 72, 90
2, 262654, Control_c, 0, 64, 87
2, 262670, Control_c, 0, 64, 97
2, 262675, Note_on_c, 0, 74, 0
2, 262693, Control_c, 0, 64, 127
2, 262693, Note_on_c, 0, 65, 0
2, 262709, Note_on_c, 0, 72, 0
2, 262746, Control_c, 0, 64, 74
2, 262766, Control_c, 0, 64, 41
2, 262786, Control_c, 0, 64, 0
2, 262790, Note_on_c, 0, 55, 85
2, 262790, Note_on_c, 0, 71, 99
2, 262795, Note_on_c, 0, 59, 86
2, 262795, Note_on_c, 0, 65, 89
2, 262824, Note_on_c, 0, 55, 0
2, 262824, Note_on_c, 0, 59, 0
2, 262851, Note_on_c, 0, 65, 0
2, 262851, Note_on_c, 0, 71, 0
2, 262930, Note_on_c, 0, 69, 90
2, 262978, Note_on_c, 0, 69, 0
2, 263072, Note_on_c, 0, 55, 84
2, 263072, Note_on_c, 0, 59, 94
2, 263072, Note_on_c, 0, 71, 97
2, 263076, Note_on_c, 0, 65, 93
2, 263094, Note_on_c, 0, 59, 0
2, 263099, Note_on_c, 0, 55, 0
2, 263123, Note_on_c, 0, 65, 0
2, 263129, Note_on_c, 0, 71, 0
2, 263203, Note_on_c, 0, 69, 90
2, 263252, Note_on_c, 0, 69, 0
2, 263350, Note_on_c, 0, 60, 92
2, 263354, Note_on_c, 0, 67, 101
2, 263359, Note_on_c, 0, 57, 83
2, 263382, Note_on_c, 0, 60, 0
2, 263393, Note_on_c, 0, 57, 0
2, 263425, Note_on_c, 0, 67, 0
2, 263493, Note_on_c, 0, 65, 92
2, 263537, Note_on_c, 0, 65, 0
2, 263638, Note_on_c, 0, 59, 93
2, 263638, Note_on_c, 0, 67, 98
2, 263642, Note_on_c, 0, 62, 94
2, 263691, Note_on_c, 0, 59, 0
2, 263776, Note_on_c, 0, 65, 77
2, 263861, Note_on_c, 0, 65, 0
2, 263928, Note_on_c, 0, 51, 93
2, 263944, Note_on_c, 0, 62, 0
2, 264070, Note_on_c, 0, 63, 77
2, 264197, Note_on_c, 0, 63, 0
2, 264208, Note_on_c, 0, 55, 76
2, 264213, Note_on_c, 0, 65, 70
2, 264259, Note_on_c, 0, 55, 0
2, 264324, Note_on_c, 0, 65, 0
2, 264359, Note_on_c, 0, 62, 69
2, 264397, Note_on_c, 0, 62, 0
2, 264431, Note_on_c, 0, 67, 0
2, 264490, Note_on_c, 0, 63, 89
2, 264504, Note_on_c, 0, 60, 83
2, 264527, Note_on_c, 0, 51, 0
2, 264619, Note_on_c, 0, 67, 72
2, 264641, Note_on_c, 0, 51, 85
2, 264763, Note_on_c, 0, 69, 72
2, 264768, Note_on_c, 0, 53, 76
2, 264808, Note_on_c, 0, 67, 0
2, 264825, Note_on_c, 0, 51, 0
2, 264899, Note_on_c, 0, 71, 80
2, 264903, Note_on_c, 0, 55, 78
2, 264913, Note_on_c, 0, 69, 0
2, 264941, Note_on_c, 0, 53, 0
2, 265015, Note_on_c, 0, 63, 0
2, 265035, Note_on_c, 0, 55, 0
2, 265040, Note_on_c, 0, 56, 82
2, 265049, Note_on_c, 0, 72, 89
2, 265071, Note_on_c, 0, 71, 0
2, 265173, Note_on_c, 0, 55, 81
2, 265177, Note_on_c, 0, 56, 0
2, 265321, Note_on_c, 0, 56, 92
2, 265332, Note_on_c, 0, 68, 88
2, 265340, Note_on_c, 0, 65, 75
2, 265358, Note_on_c, 0, 55, 0
2, 265381, Note_on_c, 0, 60, 0
2, 265415, Note_on_c, 0, 65, 0
2, 265428, Note_on_c, 0, 56, 0
2, 265553, Note_on_c, 0, 68, 0
2, 265648, Note_on_c, 0, 65, 80
2, 265652, Note_on_c, 0, 56, 89
2, 265652, Note_on_c, 0, 62, 90
2, 265753, Note_on_c, 0, 72, 0
2, 265786, Note_on_c, 0, 56, 0
2, 265979, Note_on_c, 0, 50, 91
2, 265979, Note_on_c, 0, 71, 83
2, 266121, Note_on_c, 0, 69, 76
2, 266147, Note_on_c, 0, 71, 0
2, 266161, Note_on_c, 0, 65, 0
2, 266172, Note_on_c, 0, 69, 0
2, 266251, Note_on_c, 0, 50, 0
2, 266264, Note_on_c, 0, 71, 94
2, 266409, Note_on_c, 0, 68, 81
2, 266417, Note_on_c, 0, 50, 77
2, 266538, Note_on_c, 0, 51, 84
2, 266549, Note_on_c, 0, 67, 74
2, 266589, Note_on_c, 0, 50, 0
2, 266589, Note_on_c, 0, 68, 0
2, 266589, Note_on_c, 0, 71, 0
2, 266618, Note_on_c, 0, 62, 0
2, 266649, Note_on_c, 0, 67, 0
2, 266669, Note_on_c, 0, 53, 76
2, 266682, Note_on_c, 0, 65, 78
2, 266722, Note_on_c, 0, 51, 0
2, 266755, Note_on_c, 0, 65, 0
2, 266812, Note_on_c, 0, 61, 84
2, 266816, Note_on_c, 0, 70, 86
2, 266821, Note_on_c, 0, 55, 74
2, 266825, Note_on_c, 0, 64, 80
2, 266834, Note_on_c, 0, 53, 0
2, 266968, Note_on_c, 0, 53, 75
2, 266975, Note_on_c, 0, 64, 0
2, 266975, Note_on_c, 0, 65, 73
2, 267000, Note_on_c, 0, 55, 0
2, 267106, Note_on_c, 0, 64, 85
2, 267109, Note_on_c, 0, 65, 0
2, 267120, Note_on_c, 0, 55, 80
2, 267159, Note_on_c, 0, 53, 0
2, 267218, Note_on_c, 0, 55, 0
2, 267233, Note_on_c, 0, 61, 0
2, 267246, Note_on_c, 0, 65, 75
2, 267264, Note_on_c, 0, 64, 0
2, 267355, Note_on_c, 0, 65, 0
2, 267397, Note_on_c, 0, 55, 82
2, 267404, Note_on_c, 0, 60, 86
2, 267404, Note_on_c, 0, 64, 87
2, 267444, Note_on_c, 0, 70, 0
2, 267521, Note_on_c, 0, 55, 0
2, 267717, Note_on_c, 0, 69, 76
2, 267723, Note_on_c, 0, 48, 66
2, 267862, Note_on_c, 0, 67, 81
2, 267886, Note_on_c, 0, 69, 0
2, 267915, Note_on_c, 0, 64, 0
2, 267922, Note_on_c, 0, 67, 0
2, 267984, Note_on_c, 0, 48, 0
2, 268008, Note_on_c, 0, 69, 86
2, 268151, Note_on_c, 0, 48, 70
2, 268151, Note_on_c, 0, 67, 67
2, 268287, Note_on_c, 0, 50, 71
2, 268300, Note_on_c, 0, 65, 67
2, 268325, Note_on_c, 0, 60, 0
2, 268329, Note_on_c, 0, 48, 0
2, 268371, Note_on_c, 0, 67, 0
2, 268391, Note_on_c, 0, 69, 0
2, 268420, Note_on_c, 0, 65, 0
2, 268429, Note_on_c, 0, 63, 70
2, 268433, Note_on_c, 0, 50, 0
2, 268438, Note_on_c, 0, 51, 73
2, 268545, Note_on_c, 0, 63, 0
2, 268557, Note_on_c, 0, 51, 0
2, 268566, Note_on_c, 0, 59, 50
2, 268576, Note_on_c, 0, 68, 72
2, 268583, Note_on_c, 0, 62, 64
2, 268589, Note_on_c, 0, 53, 55
2, 268698, Note_on_c, 0, 62, 0
2, 268711, Note_on_c, 0, 53, 0
2, 268713, Note_on_c, 0, 63, 63
2, 268733, Note_on_c, 0, 51, 53
2, 268838, Note_on_c, 0, 63, 0
2, 268865, Note_on_c, 0, 62, 58
2, 268869, Note_on_c, 0, 53, 53
2, 268896, Note_on_c, 0, 51, 0
2, 268929, Note_on_c, 0, 59, 0
2, 268933, Note_on_c, 0, 53, 0
2, 268989, Note_on_c, 0, 62, 0
2, 269002, Note_on_c, 0, 63, 60
2, 269118, Note_on_c, 0, 63, 0
2, 269150, Note_on_c, 0, 62, 66
2, 269165, Note_on_c, 0, 58, 59
2, 269170, Note_on_c, 0, 53, 53
2, 269234, Note_on_c, 0, 53, 0
2, 269439, Note_on_c, 0, 46, 63
2, 269453, Note_on_c, 0, 58, 0
2, 269453, Note_on_c, 0, 68, 0
2, 269458, Note_on_c, 0, 67, 66
2, 269477, Note_on_c, 0, 46, 0
2, 269586, Note_on_c, 0, 67, 0
2, 269595, Note_on_c, 0, 62, 0
2, 269599, Note_on_c, 0, 65, 70
2, 269641, Note_on_c, 0, 65, 0
2, 269741, Note_on_c, 0, 67, 84
2, 269754, Note_on_c, 0, 58, 74
2, 269754, Note_on_c, 0, 62, 79
2, 269897, Note_on_c, 0, 74, 65
2, 269899, Note_on_c, 0, 77, 70
2, 269930, Note_on_c, 0, 74, 0
2, 269948, Note_on_c, 0, 77, 0
2, 270024, Note_on_c, 0, 79, 84
2, 270029, Note_on_c, 0, 75, 74
2, 270068, Note_on_c, 0, 75, 0
2, 270068, Note_on_c, 0, 79, 0
2, 270158, Note_on_c, 0, 80, 81
2, 270165, Note_on_c, 0, 77, 83
2, 270197, Note_on_c, 0, 77, 0
2, 270219, Note_on_c, 0, 80, 0
2, 270223, Note_on_c, 0, 67, 0
2, 270253, Note_on_c, 0, 62, 0
2, 270264, Note_on_c, 0, 58, 0
2, 270305, Note_on_c, 0, 82, 78
2, 270309, Note_on_c, 0, 79, 82
2, 270336, Note_on_c, 0, 79, 0
2, 270347, Note_on_c, 0, 82, 0
2, 270443, Note_on_c, 0, 80, 78
2, 270452, Note_on_c, 0, 77, 70
2, 270474, Note_on_c, 0, 77, 0
2, 270481, Note_on_c, 0, 80, 0
2, 270583, Note_on_c, 0, 58, 73
2, 270592, Note_on_c, 0, 55, 67
2, 270592, Note_on_c, 0, 79, 86
2, 270592, Note_on_c, 0, 82, 84
2, 270626, Note_on_c, 0, 79, 0
2, 270637, Note_on_c, 0, 55, 0
2, 270641, Note_on_c, 0, 82, 0
2, 270656, Note_on_c, 0, 58, 0
2, 270898, Note_on_c, 0, 79, 80
2, 270898, Note_on_c, 0, 82, 77
2, 270906, Note_on_c, 0, 60, 77
2, 270906, Note_on_c, 0, 63, 82
2, 270945, Note_on_c, 0, 79, 0
2, 270963, Note_on_c, 0, 82, 0
2, 271211, Note_on_c, 0, 75, 77
2, 271215, Note_on_c, 0, 72, 75
2, 271278, Note_on_c, 0, 72, 0
2, 271285, Note_on_c, 0, 75, 0
2, 271314, Note_on_c, 0, 60, 0
2, 271325, Note_on_c, 0, 63, 0
2, 271511, Note_on_c, 0, 60, 90
2, 271515, Note_on_c, 0, 56, 89
2, 271647, Note_on_c, 0, 72, 74
2, 271651, Note_on_c, 0, 75, 75
2, 271687, Note_on_c, 0, 72, 0
2, 271693, Note_on_c, 0, 75, 0
2, 271781, Note_on_c, 0, 74, 81
2, 271785, Note_on_c, 0, 77, 83
2, 271814, Note_on_c, 0, 74, 0
2, 271836, Note_on_c, 0, 77, 0
2, 271917, Note_on_c, 0, 60, 0
2, 271917, Note_on_c, 0, 79, 90
2, 271921, Note_on_c, 0, 75, 85
2, 271948, Note_on_c, 0, 56, 0
2, 271969, Note_on_c, 0, 75, 0
2, 271974, Note_on_c, 0, 79, 0
2, 272052, Note_on_c, 0, 77, 92
2, 272052, Note_on_c, 0, 80, 87
2, 272099, Note_on_c, 0, 77, 0
2, 272117, Note_on_c, 0, 80, 0
2, 272191, Note_on_c, 0, 79, 91
2, 272197, Note_on_c, 0, 75, 81
2, 272237, Note_on_c, 0, 75, 0
2, 272256, Note_on_c, 0, 79, 0
2, 272338, Note_on_c, 0, 53, 89
2, 272338, Note_on_c, 0, 56, 93
2, 272342, Note_on_c, 0, 77, 97
2, 272342, Note_on_c, 0, 80, 94
2, 272385, Note_on_c, 0, 53, 0
2, 272394, Note_on_c, 0, 77, 0
2, 272411, Note_on_c, 0, 56, 0
2, 272414, Note_on_c, 0, 80, 0
2, 272648, Note_on_c, 0, 77, 94
2, 272652, Note_on_c, 0, 62, 93
2, 272652, Note_on_c, 0, 80, 87
2, 272654, Note_on_c, 0, 58, 91
2, 272698, Note_on_c, 0, 77, 0
2, 272714, Note_on_c, 0, 80, 0
2, 272957, Note_on_c, 0, 74, 88
2, 272962, Note_on_c, 0, 70, 86
2, 273036, Note_on_c, 0, 70, 0
2, 273040, Note_on_c, 0, 74, 0
2, 273062, Note_on_c, 0, 62, 0
2, 273089, Note_on_c, 0, 58, 0
2, 273261, Note_on_c, 0, 55, 89
2, 273261, Note_on_c, 0, 58, 90
2, 273399, Note_on_c, 0, 70, 82
2, 273399, Note_on_c, 0, 74, 81
2, 273442, Note_on_c, 0, 70, 0
2, 273450, Note_on_c, 0, 74, 0
2, 273538, Note_on_c, 0, 75, 91
2, 273542, Note_on_c, 0, 72, 86
2, 273585, Note_on_c, 0, 72, 0
2, 273587, Note_on_c, 0, 75, 0
2, 273678, Note_on_c, 0, 77, 95
2, 273679, Note_on_c, 0, 74, 93
2, 273712, Note_on_c, 0, 74, 0
2, 273725, Note_on_c, 0, 55, 0
2, 273725, Note_on_c, 0, 58, 0
2, 273730, Note_on_c, 0, 77, 0
2, 273818, Note_on_c, 0, 75, 93
2, 273818, Note_on_c, 0, 79, 98
2, 273854, Note_on_c, 0, 75, 0
2, 273875, Note_on_c, 0, 79, 0
2, 273957, Note_on_c, 0, 74, 93
2, 273961, Note_on_c, 0, 77, 93
2, 274000, Note_on_c, 0, 74, 0
2, 274009, Note_on_c, 0, 77, 0
2, 274101, Note_on_c, 0, 55, 90
2, 274107, Note_on_c, 0, 51, 88
2, 274107, Note_on_c, 0, 75, 95
2, 274107, Note_on_c, 0, 79, 98
2, 274141, Note_on_c, 0, 55, 0
2, 274146, Note_on_c, 0, 51, 0
2, 274400, Note_on_c, 0, 56, 85
2, 274400, Note_on_c, 0, 60, 89
2, 274428, Note_on_c, 0, 60, 0
2, 274444, Note_on_c, 0, 56, 0
2, 274505, Note_on_c, 0, 79, 0
2, 274542, Note_on_c, 0, 75, 0
2, 274564, Note_on_c, 0, 73, 76
2, 274685, Note_on_c, 0, 60, 69
2, 274690, Note_on_c, 0, 56, 69
2, 274690, Note_on_c, 0, 82, 77
2, 274694, Note_on_c, 0, 75, 70
2, 274700, Note_on_c, 0, 73, 0
2, 274720, Note_on_c, 0, 56, 0
2, 274724, Note_on_c, 0, 60, 0
2, 274801, Note_on_c, 0, 82, 0
2, 274808, Note_on_c, 0, 75, 0
2, 274839, Note_on_c, 0, 73, 71
2, 274881, Note_on_c, 0, 73, 0
2, 274962, Note_on_c, 0, 60, 78
2, 274964, Note_on_c, 0, 80, 82
2, 274968, Note_on_c, 0, 56, 74
2, 274975, Note_on_c, 0, 72, 80
2, 274992, Note_on_c, 0, 60, 0
2, 274996, Note_on_c, 0, 56, 0
2, 275104, Note_on_c, 0, 70, 77
2, 275104, Note_on_c, 0, 72, 0
2, 275108, Note_on_c, 0, 80, 0
2, 275179, Note_on_c, 0, 70, 0
2, 275237, Note_on_c, 0, 72, 89
2, 275248, Note_on_c, 0, 56, 88
2, 275248, Note_on_c, 0, 60, 93
2, 275248, Note_on_c, 0, 79, 90
2, 275271, Note_on_c, 0, 60, 0
2, 275276, Note_on_c, 0, 56, 0
2, 275363, Note_on_c, 0, 72, 0
2, 275374, Note_on_c, 0, 70, 79
2, 275385, Note_on_c, 0, 79, 0
2, 275437, Note_on_c, 0, 70, 0
2, 275526, Note_on_c, 0, 68, 96
2, 275526, Note_on_c, 0, 77, 97
2, 275531, Note_on_c, 0, 60, 90
2, 275535, Note_on_c, 0, 56, 85
2, 275558, Note_on_c, 0, 60, 0
2, 275564, Note_on_c, 0, 56, 0
2, 275642, Note_on_c, 0, 77, 0
2, 275671, Note_on_c, 0, 68, 0
2, 275675, Note_on_c, 0, 67, 73
2, 275767, Note_on_c, 0, 67, 0
2, 275810, Note_on_c, 0, 75, 92
2, 275815, Note_on_c, 0, 68, 86
2, 275819, Note_on_c, 0, 56, 81
2, 275824, Note_on_c, 0, 60, 85
2, 275852, Note_on_c, 0, 56, 0
2, 275852, Note_on_c, 0, 60, 0
2, 275945, Note_on_c, 0, 68, 0
2, 275949, Note_on_c, 0, 67, 66
2, 275962, Note_on_c, 0, 75, 0
2, 276009, Note_on_c, 0, 67, 0
2, 276095, Note_on_c, 0, 74, 87
2, 276101, Note_on_c, 0, 58, 85
2, 276101, Note_on_c, 0, 62, 89
2, 276101, Note_on_c, 0, 65, 80
2, 276127, Control_c, 0, 64, 39
2, 276145, Control_c, 0, 64, 56
2, 276167, Control_c, 0, 64, 62
2, 276185, Control_c, 0, 64, 63
2, 276204, Control_c, 0, 64, 64
2, 276208, Note_on_c, 0, 65, 0
2, 276226, Control_c, 0, 64, 67
2, 276231, Note_on_c, 0, 74, 0
2, 276236, Note_on_c, 0, 62, 0
2, 276245, Control_c, 0, 64, 73
2, 276245, Note_on_c, 0, 60, 73
2, 276264, Control_c, 0, 64, 86
2, 276284, Control_c, 0, 64, 102
2, 276302, Control_c, 0, 64, 104
2, 276322, Control_c, 0, 64, 85
2, 276341, Control_c, 0, 64, 63
2, 276358, Control_c, 0, 64, 29
2, 276370, Note_on_c, 0, 65, 86
2, 276370, Note_on_c, 0, 74, 92
2, 276382, Control_c, 0, 64, 0
2, 276382, Note_on_c, 0, 56, 82
2, 276386, Note_on_c, 0, 62, 84
2, 276397, Control_c, 0, 64, 35
2, 276403, Note_on_c, 0, 60, 0
2, 276417, Control_c, 0, 64, 58
2, 276421, Note_on_c, 0, 58, 0
2, 276437, Control_c, 0, 64, 67
2, 276455, Control_c, 0, 64, 74
2, 276459, Note_on_c, 0, 65, 0
2, 276475, Control_c, 0, 64, 83
2, 276484, Note_on_c, 0, 62, 0
2, 276495, Control_c, 0, 64, 95
2, 276497, Note_on_c, 0, 74, 0
2, 276512, Control_c, 0, 64, 116
2, 276532, Control_c, 0, 64, 127
2, 276536, Note_on_c, 0, 60, 79
2, 276566, Note_on_c, 0, 56, 0
2, 276566, Note_on_c, 0, 60, 0
2, 276627, Control_c, 0, 64, 77
2, 276647, Control_c, 0, 64, 46
2, 276660, Note_on_c, 0, 75, 94
2, 276665, Note_on_c, 0, 67, 89
2, 276669, Control_c, 0, 64, 0
2, 276669, Note_on_c, 0, 58, 88
2, 276674, Note_on_c, 0, 55, 78
2, 276766, Note_on_c, 0, 58, 0
2, 276818, Note_on_c, 0, 56, 85
2, 276823, Note_on_c, 0, 55, 0
2, 276832, Note_on_c, 0, 67, 0
2, 276885, Note_on_c, 0, 56, 0
2, 276937, Note_on_c, 0, 58, 90
2, 276957, Note_on_c, 0, 52, 68
2, 276957, Note_on_c, 0, 53, 71
2, 276994, Note_on_c, 0, 52, 0
2, 276994, Note_on_c, 0, 58, 0
2, 277007, Note_on_c, 0, 53, 0
2, 277016, Note_on_c, 0, 75, 0
2, 277077, Note_on_c, 0, 56, 93
2, 277077, Note_on_c, 0, 68, 81
2, 277081, Note_on_c, 0, 77, 88
2, 277107, Note_on_c, 0, 68, 0
2, 277139, Note_on_c, 0, 56, 0
2, 277152, Note_on_c, 0, 77, 0
2, 277215, Note_on_c, 0, 70, 93
2, 277215, Note_on_c, 0, 79, 97
2, 277222, Note_on_c, 0, 55, 79
2, 277226, Note_on_c, 0, 52, 76
2, 277233, Note_on_c, 0, 57, 60
2, 277258, Note_on_c, 0, 55, 0
2, 277262, Note_on_c, 0, 52, 0
2, 277266, Note_on_c, 0, 57, 0
2, 277367, Note_on_c, 0, 53, 91
2, 277405, Note_on_c, 0, 53, 0
2, 277477, Note_on_c, 0, 71, 84
2, 277481, Note_on_c, 0, 70, 0
2, 277484, Note_on_c, 0, 55, 91
2, 277533, Note_on_c, 0, 55, 0
2, 277616, Note_on_c, 0, 53, 88
2, 277631, Note_on_c, 0, 71, 0
2, 277658, Note_on_c, 0, 53, 0
2, 277752, Note_on_c, 0, 51, 88
2, 277756, Note_on_c, 0, 48, 73
2, 277760, Note_on_c, 0, 72, 90
2, 277794, Note_on_c, 0, 48, 0
2, 277794, Note_on_c, 0, 51, 0
2, 277799, Control_c, 0, 64, 30
2, 277816, Control_c, 0, 64, 50
2, 277834, Control_c, 0, 64, 59
2, 277852, Control_c, 0, 64, 65
2, 277874, Control_c, 0, 64, 72
2, 277893, Control_c, 0, 64, 86
2, 277893, Note_on_c, 0, 72, 0
2, 277898, Note_on_c, 0, 77, 82
2, 277903, Note_on_c, 0, 74, 77
2, 277912, Control_c, 0, 64, 106
2, 277919, Note_on_c, 0, 79, 0
2, 277930, Control_c, 0, 64, 127
2, 278012, Note_on_c, 0, 77, 0
2, 278042, Note_on_c, 0, 74, 0
2, 278048, Note_on_c, 0, 75, 82
2, 278053, Note_on_c, 0, 79, 84
2, 278062, Note_on_c, 0, 63, 76
2, 278066, Note_on_c, 0, 60, 72
2, 278093, Note_on_c, 0, 63, 0
2, 278099, Note_on_c, 0, 60, 0
2, 278133, Note_on_c, 0, 75, 0
2, 278180, Note_on_c, 0, 74, 85
2, 278184, Note_on_c, 0, 77, 77
2, 278197, Note_on_c, 0, 79, 0
2, 278214, Note_on_c, 0, 77, 0
2, 278219, Note_on_c, 0, 74, 0
2, 278316, Control_c, 0, 64, 82
2, 278328, Note_on_c, 0, 75, 90
2, 278332, Note_on_c, 0, 72, 99
2, 278337, Control_c, 0, 64, 50
2, 278337, Note_on_c, 0, 60, 80
2, 278337, Note_on_c, 0, 63, 80
2, 278353, Control_c, 0, 64, 0
2, 278358, Note_on_c, 0, 63, 0
2, 278363, Note_on_c, 0, 60, 0
2, 278408, Note_on_c, 0, 75, 0
2, 278412, Note_on_c, 0, 72, 0
2, 278468, Note_on_c, 0, 70, 73
2, 278472, Note_on_c, 0, 74, 79
2, 278515, Note_on_c, 0, 70, 0
2, 278520, Note_on_c, 0, 74, 0
2, 278610, Note_on_c, 0, 60, 84
2, 278610, Note_on_c, 0, 75, 87
2, 278614, Note_on_c, 0, 63, 80
2, 278614, Note_on_c, 0, 72, 90
2, 278636, Note_on_c, 0, 63, 0
2, 278637, Note_on_c, 0, 60, 0
2, 278727, Note_on_c, 0, 72, 0
2, 278733, Note_on_c, 0, 75, 0
2, 278744, Note_on_c, 0, 74, 75
2, 278751, Note_on_c, 0, 70, 78
2, 278774, Note_on_c, 0, 74, 0
2, 278781, Note_on_c, 0, 70, 0
2, 278881, Note_on_c, 0, 63, 86
2, 278886, Note_on_c, 0, 60, 83
2, 278886, Note_on_c, 0, 68, 92
2, 278891, Note_on_c, 0, 72, 77
2, 278897, Note_on_c, 0, 74, 68
2, 278911, Note_on_c, 0, 63, 0
2, 278918, Note_on_c, 0, 60, 0
2, 278927, Note_on_c, 0, 74, 0
2, 279022, Note_on_c, 0, 67, 83
2, 279039, Note_on_c, 0, 68, 0
2, 279041, Note_on_c, 0, 70, 79
2, 279041, Note_on_c, 0, 72, 0
2, 279081, Note_on_c, 0, 67, 0
2, 279084, Note_on_c, 0, 70, 0
2, 279152, Note_on_c, 0, 60, 84
2, 279152, Note_on_c, 0, 63, 89
2, 279163, Note_on_c, 0, 68, 93
2, 279163, Note_on_c, 0, 72, 88
2, 279192, Note_on_c, 0, 63, 0
2, 279203, Note_on_c, 0, 60, 0
2, 279294, Note_on_c, 0, 70, 80
2, 279297, Note_on_c, 0, 67, 80
2, 279306, Note_on_c, 0, 68, 0
2, 279307, Note_on_c, 0, 72, 0
2, 279329, Note_on_c, 0, 70, 0
2, 279346, Note_on_c, 0, 67, 0
2, 279439, Note_on_c, 0, 63, 82
2, 279439, Note_on_c, 0, 66, 92
2, 279439, Note_on_c, 0, 69, 82
2, 279443, Note_on_c, 0, 60, 83
2, 279484, Control_c, 0, 64, 26
2, 279503, Control_c, 0, 64, 45
2, 279523, Control_c, 0, 64, 61
2, 279544, Control_c, 0, 64, 66
2, 279561, Control_c, 0, 64, 69
2, 279580, Control_c, 0, 64, 73
2, 279586, Note_on_c, 0, 62, 79
2, 279586, Note_on_c, 0, 63, 0
2, 279600, Control_c, 0, 64, 91
2, 279620, Control_c, 0, 64, 127
2, 279697, Control_c, 0, 64, 70
2, 279717, Control_c, 0, 64, 35
2, 279721, Note_on_c, 0, 58, 85
2, 279725, Note_on_c, 0, 63, 89
2, 279730, Note_on_c, 0, 60, 0
2, 279730, Note_on_c, 0, 62, 0
2, 279735, Control_c, 0, 64, 0
2, 279754, Control_c, 0, 64, 15
2, 279772, Control_c, 0, 64, 33
2, 279792, Control_c, 0, 64, 52
2, 279813, Control_c, 0, 64, 65
2, 279831, Control_c, 0, 64, 70
2, 279850, Control_c, 0, 64, 80
2, 279861, Note_on_c, 0, 62, 82
2, 279861, Note_on_c, 0, 63, 0
2, 279869, Control_c, 0, 64, 97
2, 279885, Note_on_c, 0, 62, 0
2, 279890, Control_c, 0, 64, 127
2, 279894, Note_on_c, 0, 58, 0
2, 279966, Control_c, 0, 64, 74
2, 279985, Control_c, 0, 64, 46
2, 280005, Control_c, 0, 64, 0
2, 280005, Note_on_c, 0, 60, 95
2, 280010, Note_on_c, 0, 57, 91
2, 280023, Control_c, 0, 64, 12
2, 280041, Control_c, 0, 64, 38
2, 280060, Control_c, 0, 64, 60
2, 280071, Note_on_c, 0, 60, 0
2, 280080, Control_c, 0, 64, 71
2, 280098, Control_c, 0, 64, 82
2, 280119, Control_c, 0, 64, 106
2, 280137, Note_on_c, 0, 58, 86
2, 280141, Control_c, 0, 64, 127
2, 280154, Note_on_c, 0, 66, 0
2, 280167, Note_on_c, 0, 57, 0
2, 280185, Note_on_c, 0, 69, 0
2, 280198, Note_on_c, 0, 58, 0
2, 280234, Control_c, 0, 64, 81
2, 280254, Control_c, 0, 64, 55
2, 280273, Control_c, 0, 64, 0
2, 280273, Note_on_c, 0, 60, 87
2, 280277, Note_on_c, 0, 55, 89
2, 280277, Note_on_c, 0, 70, 92
2, 280282, Note_on_c, 0, 67, 88
2, 280312, Note_on_c, 0, 60, 0
2, 280348, Note_on_c, 0, 55, 0
2, 280387, Note_on_c, 0, 67, 0
2, 280413, Note_on_c, 0, 58, 92
2, 280413, Note_on_c, 0, 70, 0
2, 280457, Note_on_c, 0, 58, 0
2, 280554, Note_on_c, 0, 72, 93
2, 280559, Note_on_c, 0, 54, 95
2, 280563, Note_on_c, 0, 57, 92
2, 280563, Note_on_c, 0, 69, 90
2, 280595, Note_on_c, 0, 57, 0
2, 280602, Note_on_c, 0, 54, 0
2, 280701, Note_on_c, 0, 55, 73
2, 280748, Note_on_c, 0, 55, 0
2, 280830, Note_on_c, 0, 69, 0
2, 280837, Note_on_c, 0, 57, 96
2, 280857, Note_on_c, 0, 52, 75
2, 280875, Note_on_c, 0, 57, 0
2, 280895, Note_on_c, 0, 52, 0
2, 280984, Note_on_c, 0, 55, 91
2, 281017, Note_on_c, 0, 55, 0
2, 281115, Note_on_c, 0, 50, 81
2, 281115, Note_on_c, 0, 54, 90
2, 281254, Note_on_c, 0, 62, 82
2, 281281, Note_on_c, 0, 50, 0
2, 281287, Note_on_c, 0, 54, 0
2, 281326, Note_on_c, 0, 62, 0
2, 281397, Note_on_c, 0, 57, 94
2, 281402, Note_on_c, 0, 54, 94
2, 281409, Note_on_c, 0, 63, 89
2, 281470, Note_on_c, 0, 72, 0
2, 281523, Note_on_c, 0, 63, 0
2, 281534, Note_on_c, 0, 57, 0
2, 281561, Note_on_c, 0, 62, 89
2, 281577, Note_on_c, 0, 54, 0
2, 281660, Note_on_c, 0, 62, 0
2, 281697, Note_on_c, 0, 70, 92
2, 281702, Note_on_c, 0, 55, 87
2, 281704, Note_on_c, 0, 58, 97
2, 281840, Note_on_c, 0, 62, 88
2, 281855, Note_on_c, 0, 55, 0
2, 281862, Note_on_c, 0, 58, 0
2, 281904, Note_on_c, 0, 62, 0
2, 281990, Note_on_c, 0, 50, 87
2, 281990, Note_on_c, 0, 54, 94
2, 281993, Note_on_c, 0, 63, 91
2, 282089, Note_on_c, 0, 63, 0
2, 282137, Note_on_c, 0, 62, 90
2, 282189, Note_on_c, 0, 50, 0
2, 282210, Note_on_c, 0, 54, 0
2, 282228, Note_on_c, 0, 62, 0
2, 282300, Note_on_c, 0, 55, 90
2, 282302, Note_on_c, 0, 51, 89
2, 282304, Note_on_c, 0, 60, 93
2, 282331, Note_on_c, 0, 70, 0
2, 282449, Note_on_c, 0, 70, 83
2, 282523, Note_on_c, 0, 60, 0
2, 282613, Note_on_c, 0, 61, 98
2, 282618, Note_on_c, 0, 69, 87
2, 282671, Control_c, 0, 64, 19
2, 282691, Control_c, 0, 64, 37
2, 282707, Note_on_c, 0, 70, 0
2, 282709, Control_c, 0, 64, 51
2, 282729, Control_c, 0, 64, 60
2, 282749, Control_c, 0, 64, 63
2, 282767, Note_on_c, 0, 55, 0
2, 282771, Control_c, 0, 64, 64
2, 282785, Note_on_c, 0, 67, 78
2, 282789, Control_c, 0, 64, 66
2, 282801, Note_on_c, 0, 69, 0
2, 282806, Control_c, 0, 64, 70
2, 282827, Control_c, 0, 64, 74
2, 282845, Control_c, 0, 64, 77
2, 282854, Note_on_c, 0, 51, 0
2, 282870, Note_on_c, 0, 61, 0
2, 282884, Note_on_c, 0, 67, 0
2, 282889, Control_c, 0, 64, 73
2, 282905, Control_c, 0, 64, 61
2, 282922, Control_c, 0, 64, 28
2, 282942, Control_c, 0, 64, 0
2, 282971, Note_on_c, 0, 50, 91
2, 282971, Note_on_c, 0, 57, 109
2, 282971, Note_on_c, 0, 62, 99
2, 282971, Note_on_c, 0, 66, 96
2, 283008, Note_on_c, 0, 68, 52
2, 283017, Control_c, 0, 64, 9
2, 283037, Control_c, 0, 64, 44
2, 283040, Note_on_c, 0, 68, 0
2, 283056, Control_c, 0, 64, 66
2, 283063, Note_on_c, 0, 57, 0
2, 283078, Control_c, 0, 64, 76
2, 283087, Note_on_c, 0, 50, 0
2, 283095, Control_c, 0, 64, 106
2, 283113, Control_c, 0, 64, 127
2, 283166, Note_on_c, 0, 66, 0
2, 283212, Note_on_c, 0, 62, 0
2, 283327, Control_c, 0, 64, 94
2, 283347, Control_c, 0, 64, 61
2, 283363, Control_c, 0, 64, 0
2, 283405, Note_on_c, 0, 38, 96
2, 283422, Control_c, 0, 64, 25
2, 283443, Control_c, 0, 64, 54
2, 283459, Control_c, 0, 64, 70
2, 283478, Note_on_c, 0, 38, 0
2, 283483, Control_c, 0, 64, 79
2, 283496, Control_c, 0, 64, 106
2, 283516, Control_c, 0, 64, 127
2, 283862, Control_c, 0, 64, 82
2, 283882, Control_c, 0, 64, 46
2, 283900, Control_c, 0, 64, 0
2, 283941, Note_on_c, 0, 62, 103
2, 284068, Note_on_c, 0, 69, 76
2, 284125, Note_on_c, 0, 69, 0
2, 284224, Note_on_c, 0, 70, 80
2, 284281, Note_on_c, 0, 70, 0
2, 284367, Note_on_c, 0, 72, 92
2, 284427, Note_on_c, 0, 72, 0
2, 284431, Note_on_c, 0, 62, 0
2, 284514, Note_on_c, 0, 74, 89
2, 284568, Note_on_c, 0, 74, 0
2, 284650, Note_on_c, 0, 72, 90
2, 284704, Note_on_c, 0, 72, 0
2, 284794, Note_on_c, 0, 58, 89
2, 284798, Note_on_c, 0, 74, 93
2, 284848, Note_on_c, 0, 74, 0
2, 284956, Note_on_c, 0, 58, 0
2, 285114, Note_on_c, 0, 74, 92
2, 285116, Note_on_c, 0, 63, 91
2, 285180, Note_on_c, 0, 74, 0
2, 285444, Note_on_c, 0, 67, 80
2, 285554, Note_on_c, 0, 67, 0
2, 285592, Note_on_c, 0, 63, 0
2, 285754, Note_on_c, 0, 60, 98
2, 285902, Note_on_c, 0, 67, 80
2, 285960, Note_on_c, 0, 67, 0
2, 286043, Note_on_c, 0, 69, 84
2, 286100, Note_on_c, 0, 69, 0
2, 286180, Note_on_c, 0, 70, 89
2, 286230, Note_on_c, 0, 60, 0
2, 286241, Note_on_c, 0, 70, 0
2, 286317, Note_on_c, 0, 72, 96
2, 286379, Note_on_c, 0, 72, 0
2, 286455, Note_on_c, 0, 70, 90
2, 286516, Note_on_c, 0, 70, 0
2, 286602, Note_on_c, 0, 57, 93
2, 286609, Note_on_c, 0, 72, 96
2, 286676, Note_on_c, 0, 72, 0
2, 286693, Note_on_c, 0, 57, 0
2, 286912, Note_on_c, 0, 72, 94
2, 286917, Note_on_c, 0, 62, 102
2, 287008, Note_on_c, 0, 72, 0
2, 287237, Note_on_c, 0, 66, 91
2, 287270, Note_on_c, 0, 62, 0
2, 287328, Note_on_c, 0, 66, 0
2, 287518, Note_on_c, 0, 58, 96
2, 287518, Note_on_c, 0, 74, 93
2, 287651, Note_on_c, 0, 66, 72
2, 287657, Note_on_c, 0, 50, 65
2, 287749, Note_on_c, 0, 66, 0
2, 287787, Note_on_c, 0, 50, 0
2, 287789, Note_on_c, 0, 52, 70
2, 287789, Note_on_c, 0, 67, 79
2, 287844, Note_on_c, 0, 67, 0
2, 287916, Note_on_c, 0, 69, 86
2, 287923, Note_on_c, 0, 54, 80
2, 287928, Note_on_c, 0, 52, 0
2, 287948, Note_on_c, 0, 74, 0
2, 287954, Note_on_c, 0, 58, 0
2, 287981, Note_on_c, 0, 69, 0
2, 287992, Note_on_c, 0, 54, 0
2, 288050, Note_on_c, 0, 70, 95
2, 288059, Note_on_c, 0, 55, 85
2, 288109, Note_on_c, 0, 70, 0
2, 288119, Note_on_c, 0, 55, 0
2, 288184, Note_on_c, 0, 69, 93
2, 288192, Note_on_c, 0, 54, 88
2, 288235, Note_on_c, 0, 54, 0
2, 288240, Note_on_c, 0, 69, 0
2, 288335, Note_on_c, 0, 55, 98
2, 288340, Note_on_c, 0, 70, 99
2, 288438, Note_on_c, 0, 70, 0
2, 288457, Note_on_c, 0, 55, 0
2, 288632, Note_on_c, 0, 75, 102
2, 288641, Note_on_c, 0, 60, 98
2, 288645, Note_on_c, 0, 55, 77
2, 288650, Note_on_c, 0, 70, 86
2, 288754, Note_on_c, 0, 70, 0
2, 288770, Note_on_c, 0, 55, 0
2, 288954, Note_on_c, 0, 63, 87
2, 288958, Note_on_c, 0, 48, 80
2, 289038, Note_on_c, 0, 60, 0
2, 289062, Note_on_c, 0, 75, 0
2, 289082, Note_on_c, 0, 48, 0
2, 289082, Note_on_c, 0, 63, 0
2, 289233, Note_on_c, 0, 72, 97
2, 289240, Note_on_c, 0, 57, 94
2, 289367, Note_on_c, 0, 48, 78
2, 289372, Note_on_c, 0, 64, 81
2, 289445, Note_on_c, 0, 64, 0
2, 289501, Note_on_c, 0, 50, 74
2, 289509, Note_on_c, 0, 65, 80
2, 289510, Note_on_c, 0, 48, 0
2, 289566, Note_on_c, 0, 65, 0
2, 289626, Note_on_c, 0, 50, 0
2, 289648, Note_on_c, 0, 52, 74
2, 289648, Note_on_c, 0, 67, 81
2, 289686, Note_on_c, 0, 57, 0
2, 289686, Note_on_c, 0, 67, 0
2, 289690, Note_on_c, 0, 72, 0
2, 289699, Note_on_c, 0, 52, 0
2, 289779, Note_on_c, 0, 53, 84
2, 289779, Note_on_c, 0, 69, 87
2, 289828, Note_on_c, 0, 53, 0
2, 289830, Note_on_c, 0, 69, 0
2, 289921, Note_on_c, 0, 52, 82
2, 289921, Note_on_c, 0, 67, 84
2, 289965, Note_on_c, 0, 52, 0
2, 289987, Note_on_c, 0, 67, 0
2, 290068, Note_on_c, 0, 53, 91
2, 290068, Note_on_c, 0, 69, 97
2, 290159, Note_on_c, 0, 69, 0
2, 290199, Note_on_c, 0, 53, 0
2, 290363, Note_on_c, 0, 74, 98
2, 290367, Note_on_c, 0, 53, 76
2, 290372, Note_on_c, 0, 58, 91
2, 290372, Note_on_c, 0, 69, 91
2, 290457, Note_on_c, 0, 69, 0
2, 290495, Note_on_c, 0, 53, 0
2, 290696, Note_on_c, 0, 62, 85
2, 290698, Note_on_c, 0, 46, 77
2, 290786, Note_on_c, 0, 74, 0
2, 290799, Note_on_c, 0, 58, 0
2, 290822, Note_on_c, 0, 62, 0
2, 290827, Note_on_c, 0, 46, 0
2, 290985, Note_on_c, 0, 55, 90
2, 290985, Note_on_c, 0, 70, 92
2, 291115, Note_on_c, 0, 46, 77
2, 291128, Note_on_c, 0, 62, 72
2, 291238, Note_on_c, 0, 62, 0
2, 291266, Note_on_c, 0, 48, 74
2, 291270, Note_on_c, 0, 64, 79
2, 291302, Note_on_c, 0, 46, 0
2, 291341, Note_on_c, 0, 64, 0
2, 291401, Note_on_c, 0, 66, 78
2, 291405, Note_on_c, 0, 48, 0
2, 291418, Note_on_c, 0, 50, 73
2, 291471, Note_on_c, 0, 66, 0
2, 291522, Note_on_c, 0, 50, 0
2, 291540, Note_on_c, 0, 67, 86
2, 291540, Note_on_c, 0, 69, 64
2, 291545, Note_on_c, 0, 51, 84
2, 291558, Note_on_c, 0, 55, 0
2, 291614, Note_on_c, 0, 67, 0
2, 291619, Note_on_c, 0, 51, 0
2, 291630, Note_on_c, 0, 69, 0
2, 291650, Note_on_c, 0, 70, 0
2, 291668, Note_on_c, 0, 66, 75
2, 291684, Note_on_c, 0, 50, 74
2, 291740, Note_on_c, 0, 50, 0
2, 291740, Note_on_c, 0, 66, 0
2, 291813, Note_on_c, 0, 58, 93
2, 291822, Note_on_c, 0, 51, 82
2, 291822, Note_on_c, 0, 67, 88
2, 291891, Control_c, 0, 64, 28
2, 291908, Control_c, 0, 64, 47
2, 291927, Control_c, 0, 64, 61
2, 291946, Control_c, 0, 64, 64
2, 291963, Note_on_c, 0, 67, 0
2, 291965, Control_c, 0, 64, 65
2, 292003, Control_c, 0, 64, 68
2, 292007, Note_on_c, 0, 58, 0
2, 292023, Control_c, 0, 64, 72
2, 292041, Control_c, 0, 64, 80
2, 292063, Control_c, 0, 64, 88
2, 292078, Control_c, 0, 64, 87
2, 292099, Control_c, 0, 64, 77
2, 292121, Control_c, 0, 64, 63
2, 292125, Note_on_c, 0, 57, 80
2, 292125, Note_on_c, 0, 72, 87
2, 292141, Control_c, 0, 64, 30
2, 292155, Control_c, 0, 64, 0
2, 292175, Control_c, 0, 64, 34
2, 292195, Control_c, 0, 64, 51
2, 292215, Control_c, 0, 64, 62
2, 292233, Control_c, 0, 64, 65
2, 292254, Control_c, 0, 64, 66
2, 292259, Note_on_c, 0, 50, 80
2, 292268, Note_on_c, 0, 57, 0
2, 292275, Control_c, 0, 64, 69
2, 292290, Control_c, 0, 64, 73
2, 292301, Note_on_c, 0, 51, 0
2, 292306, Note_on_c, 0, 72, 0
2, 292311, Control_c, 0, 64, 80
2, 292329, Control_c, 0, 64, 88
2, 292350, Control_c, 0, 64, 96
2, 292370, Control_c, 0, 64, 104
2, 292390, Control_c, 0, 64, 111
2, 292399, Note_on_c, 0, 70, 89
2, 292408, Note_on_c, 0, 51, 86
2, 292412, Control_c, 0, 64, 113
2, 292412, Note_on_c, 0, 55, 82
2, 292424, Note_on_c, 0, 72, 89
2, 292428, Control_c, 0, 64, 127
2, 292442, Note_on_c, 0, 50, 0
2, 292495, Note_on_c, 0, 55, 0
2, 292526, Note_on_c, 0, 70, 0
2, 292546, Note_on_c, 0, 72, 0
2, 292553, Note_on_c, 0, 50, 86
2, 292557, Note_on_c, 0, 51, 0
2, 292597, Note_on_c, 0, 50, 0
2, 292693, Control_c, 0, 64, 75
2, 292698, Note_on_c, 0, 48, 101
2, 292704, Note_on_c, 0, 69, 85
2, 292709, Note_on_c, 0, 63, 96
2, 292709, Note_on_c, 0, 72, 85
2, 292715, Control_c, 0, 64, 36
2, 292732, Control_c, 0, 64, 0
2, 292751, Note_on_c, 0, 48, 0
2, 292771, Note_on_c, 0, 69, 0
2, 292791, Note_on_c, 0, 63, 0
2, 292818, Note_on_c, 0, 72, 0
2, 292836, Note_on_c, 0, 46, 96
2, 292890, Note_on_c, 0, 46, 0
2, 292994, Note_on_c, 0, 48, 96
2, 292994, Note_on_c, 0, 67, 92
2, 292999, Note_on_c, 0, 63, 94
2, 292999, Note_on_c, 0, 72, 90
2, 293046, Note_on_c, 0, 48, 0
2, 293067, Note_on_c, 0, 67, 0
2, 293081, Note_on_c, 0, 63, 0
2, 293107, Note_on_c, 0, 72, 0
2, 293141, Note_on_c, 0, 46, 93
2, 293185, Note_on_c, 0, 46, 0
2, 293292, Note_on_c, 0, 72, 93
2, 293296, Note_on_c, 0, 45, 102
2, 293296, Note_on_c, 0, 63, 97
2, 293301, Note_on_c, 0, 66, 97
2, 293349, Note_on_c, 0, 45, 0
2, 293377, Note_on_c, 0, 63, 0
2, 293395, Note_on_c, 0, 72, 0
2, 293406, Note_on_c, 0, 66, 0
2, 293450, Note_on_c, 0, 43, 94
2, 293495, Note_on_c, 0, 43, 0
2, 293609, Note_on_c, 0, 63, 99
2, 293614, Note_on_c, 0, 67, 97
2, 293614, Note_on_c, 0, 72, 97
2, 293618, Note_on_c, 0, 45, 99
2, 293667, Note_on_c, 0, 45, 0
2, 293693, Note_on_c, 0, 67, 0
2, 293722, Note_on_c, 0, 63, 0
2, 293747, Note_on_c, 0, 72, 0
2, 293803, Note_on_c, 0, 44, 29
2, 293812, Note_on_c, 0, 43, 47
2, 293861, Note_on_c, 0, 43, 0
2, 293865, Note_on_c, 0, 44, 0
2, 293956, Note_on_c, 0, 69, 92
2, 293959, Note_on_c, 0, 42, 89
2, 293959, Note_on_c, 0, 62, 101
2, 293963, Note_on_c, 0, 72, 101
2, 294325, Control_c, 0, 64, 31
2, 294342, Control_c, 0, 64, 53
2, 294362, Control_c, 0, 64, 61
2, 294380, Control_c, 0, 64, 63
2, 294400, Control_c, 0, 64, 64
2, 294420, Control_c, 0, 64, 68
2, 294437, Control_c, 0, 64, 80
2, 294456, Control_c, 0, 64, 127
2, 294480, Note_on_c, 0, 62, 0
2, 294492, Note_on_c, 0, 72, 0
2, 294552, Note_on_c, 0, 69, 0
2, 294588, Note_on_c, 0, 42, 0
2, 294746, Control_c, 0, 64, 84
2, 294768, Control_c, 0, 64, 60
2, 294786, Control_c, 0, 64, 23
2, 294804, Control_c, 0, 64, 0
2, 294938, Note_on_c, 0, 38, 81
2, 294938, Note_on_c, 0, 66, 93
2, 294938, Note_on_c, 0, 74, 100
2, 294940, Note_on_c, 0, 62, 99
2, 295047, Note_on_c, 0, 74, 0
2, 295056, Note_on_c, 0, 38, 0
2, 295060, Note_on_c, 0, 62, 0
2, 295064, Note_on_c, 0, 66, 0
2, 295292, Note_on_c, 0, 70, 95
2, 295296, Note_on_c, 0, 62, 87
2, 295296, Note_on_c, 0, 67, 90
2, 295305, Note_on_c, 0, 43, 82
2, 295361, Control_c, 0, 64, 10
2, 295381, Control_c, 0, 64, 30
2, 295400, Control_c, 0, 64, 43
2, 295420, Control_c, 0, 64, 52
2, 295438, Control_c, 0, 64, 58
2, 295456, Control_c, 0, 64, 59
2, 295477, Control_c, 0, 64, 61
2, 295495, Control_c, 0, 64, 63
2, 295512, Control_c, 0, 64, 64
2, 295532, Control_c, 0, 64, 65
2, 295552, Control_c, 0, 64, 67
2, 295570, Control_c, 0, 64, 68
2, 295590, Control_c, 0, 64, 70
2, 295610, Control_c, 0, 64, 71
2, 295628, Control_c, 0, 64, 74
2, 295648, Control_c, 0, 64, 78
2, 295655, Note_on_c, 0, 62, 0
2, 295667, Control_c, 0, 64, 86
2, 295686, Control_c, 0, 64, 99
2, 295706, Control_c, 0, 64, 127
2, 295732, Note_on_c, 0, 43, 0
2, 295748, Note_on_c, 0, 67, 0
2, 295772, Note_on_c, 0, 70, 0
2, 295956, Control_c, 0, 64, 89
2, 295974, Control_c, 0, 64, 59
2, 295994, Control_c, 0, 64, 0
2, 296183, Note_on_c, 0, 72, 88
2, 296190, Note_on_c, 0, 48, 73
2, 296190, Note_on_c, 0, 63, 88
2, 296190, Note_on_c, 0, 69, 77
2, 296237, Note_on_c, 0, 66, 46
2, 296274, Note_on_c, 0, 66, 0
2, 296309, Note_on_c, 0, 69, 0
2, 296314, Note_on_c, 0, 48, 0
2, 296331, Note_on_c, 0, 63, 0
2, 296346, Note_on_c, 0, 72, 0
2, 296516, Note_on_c, 0, 70, 82
2, 296520, Note_on_c, 0, 67, 76
2, 296527, Note_on_c, 0, 50, 60
2, 296527, Note_on_c, 0, 62, 69
2, 296668, Control_c, 0, 64, 22
2, 296688, Control_c, 0, 64, 40
2, 296707, Control_c, 0, 64, 56
2, 296726, Control_c, 0, 64, 62
2, 296744, Control_c, 0, 64, 63
2, 296765, Control_c, 0, 64, 64
2, 296784, Control_c, 0, 64, 68
2, 296802, Control_c, 0, 64, 76
2, 296813, Note_on_c, 0, 50, 0
2, 296825, Control_c, 0, 64, 89
2, 296835, Note_on_c, 0, 69, 78
2, 296841, Control_c, 0, 64, 106
2, 296861, Control_c, 0, 64, 127
2, 296872, Note_on_c, 0, 62, 0
2, 296872, Note_on_c, 0, 67, 0
2, 296872, Note_on_c, 0, 70, 0
2, 296894, Note_on_c, 0, 69, 0
2, 297091, Control_c, 0, 64, 100
2, 297114, Control_c, 0, 64, 78
2, 297132, Control_c, 0, 64, 61
2, 297153, Control_c, 0, 64, 30
2, 297162, Note_on_c, 0, 38, 40
2, 297162, Note_on_c, 0, 66, 67
2, 297162, Note_on_c, 0, 69, 71
2, 297167, Note_on_c, 0, 60, 64
2, 297172, Control_c, 0, 64, 0
2, 297247, Control_c, 0, 64, 16
2, 297269, Control_c, 0, 64, 38
2, 297286, Control_c, 0, 64, 56
2, 297306, Control_c, 0, 64, 63
2, 297323, Control_c, 0, 64, 65
2, 297333, Note_on_c, 0, 38, 0
2, 297342, Control_c, 0, 64, 67
2, 297363, Control_c, 0, 64, 73
2, 297383, Control_c, 0, 64, 85
2, 297399, Control_c, 0, 64, 103
2, 297419, Control_c, 0, 64, 127
2, 297468, Note_on_c, 0, 67, 73
2, 297492, Note_on_c, 0, 60, 0
2, 297500, Note_on_c, 0, 66, 0
2, 297516, Note_on_c, 0, 69, 0
2, 297565, Note_on_c, 0, 67, 0
2, 297727, Control_c, 0, 64, 105
2, 297747, Control_c, 0, 64, 69
2, 297766, Control_c, 0, 64, 46
2, 297777, Note_on_c, 0, 43, 42
2, 297777, Note_on_c, 0, 67, 51
2, 297785, Control_c, 0, 64, 0
2, 297785, Note_on_c, 0, 62, 50
2, 297790, Note_on_c, 0, 58, 46
2, 297933, Note_on_c, 0, 50, 54
2, 297973, Note_on_c, 0, 43, 0
2, 298024, Note_on_c, 0, 50, 0
2, 298069, Note_on_c, 0, 52, 62
2, 298100, Note_on_c, 0, 58, 0
2, 298195, Note_on_c, 0, 54, 65
2, 298198, Note_on_c, 0, 52, 0
2, 298240, Note_on_c, 0, 62, 0
2, 298282, Note_on_c, 0, 67, 0
2, 298340, Note_on_c, 0, 54, 0
2, 298351, Note_on_c, 0, 55, 69
2, 298471, Note_on_c, 0, 69, 64
2, 298476, Note_on_c, 0, 55, 0
2, 298489, Note_on_c, 0, 54, 69
2, 298614, Note_on_c, 0, 70, 76
2, 298624, Note_on_c, 0, 69, 0
2, 298629, Note_on_c, 0, 55, 71
2, 298676, Note_on_c, 0, 54, 0
2, 298758, Note_on_c, 0, 72, 84
2, 298782, Note_on_c, 0, 70, 0
2, 298793, Note_on_c, 0, 55, 0
2, 298912, Note_on_c, 0, 55, 80
2, 298912, Note_on_c, 0, 74, 82
2, 298944, Note_on_c, 0, 72, 0
2, 299055, Note_on_c, 0, 72, 86
2, 299070, Note_on_c, 0, 57, 79
2, 299070, Note_on_c, 0, 74, 0
2, 299210, Note_on_c, 0, 58, 81
2, 299210, Note_on_c, 0, 72, 0
2, 299210, Note_on_c, 0, 74, 83
2, 299241, Note_on_c, 0, 57, 0
2, 299340, Note_on_c, 0, 58, 0
2, 299345, Note_on_c, 0, 60, 77
2, 299347, Note_on_c, 0, 75, 86
2, 299373, Note_on_c, 0, 74, 0
2, 299473, Note_on_c, 0, 60, 0
2, 299483, Note_on_c, 0, 62, 84
2, 299492, Note_on_c, 0, 69, 88
2, 299505, Note_on_c, 0, 75, 0
2, 299622, Note_on_c, 0, 64, 81
2, 299633, Note_on_c, 0, 61, 76
2, 299633, Note_on_c, 0, 62, 0
2, 299671, Note_on_c, 0, 55, 0
2, 299777, Note_on_c, 0, 64, 0
2, 299783, Note_on_c, 0, 53, 85
2, 299783, Note_on_c, 0, 62, 87
2, 299783, Note_on_c, 0, 65, 78
2, 299798, Note_on_c, 0, 61, 0
2, 299916, Note_on_c, 0, 53, 0
2, 299921, Note_on_c, 0, 67, 80
2, 299950, Note_on_c, 0, 65, 0
2, 299958, Note_on_c, 0, 69, 0
2, 300024, Note_on_c, 0, 67, 0
2, 300066, Note_on_c, 0, 53, 89
2, 300068, Note_on_c, 0, 69, 87
2, 300127, Note_on_c, 0, 62, 0
2, 300202, Note_on_c, 0, 70, 83
2, 300207, Note_on_c, 0, 67, 71
2, 300220, Note_on_c, 0, 69, 0
2, 300334, Note_on_c, 0, 57, 88
2, 300344, Note_on_c, 0, 69, 85
2, 300344, Note_on_c, 0, 72, 87
2, 300346, Note_on_c, 0, 70, 0
2, 300352, Note_on_c, 0, 67, 0
2, 300468, Note_on_c, 0, 59, 82
2, 300484, Note_on_c, 0, 72, 0
2, 300484, Note_on_c, 0, 74, 83
2, 300524, Note_on_c, 0, 57, 0
2, 300585, Note_on_c, 0, 59, 0
2, 300629, Note_on_c, 0, 60, 89
2, 300631, Note_on_c, 0, 75, 87
2, 300668, Note_on_c, 0, 74, 0
2, 300695, Note_on_c, 0, 69, 0
2, 300722, Control_c, 0, 64, 22
2, 300741, Control_c, 0, 64, 46
2, 300757, Control_c, 0, 64, 60
2, 300774, Note_on_c, 0, 59, 79
2, 300778, Control_c, 0, 64, 65
2, 300783, Note_on_c, 0, 60, 0
2, 300788, Note_on_c, 0, 74, 88
2, 300796, Control_c, 0, 64, 70
2, 300815, Control_c, 0, 64, 77
2, 300820, Note_on_c, 0, 75, 0
2, 300834, Control_c, 0, 64, 92
2, 300854, Control_c, 0, 64, 127
2, 300861, Note_on_c, 0, 59, 0
2, 300890, Control_c, 0, 64, 90
2, 300913, Control_c, 0, 64, 62
2, 300913, Note_on_c, 0, 68, 97
2, 300918, Note_on_c, 0, 60, 88
2, 300918, Note_on_c, 0, 75, 85
2, 300932, Control_c, 0, 64, 0
2, 300957, Note_on_c, 0, 74, 0
2, 301008, Control_c, 0, 64, 39
2, 301027, Control_c, 0, 64, 61
2, 301037, Note_on_c, 0, 75, 0
2, 301046, Control_c, 0, 64, 69
2, 301064, Note_on_c, 0, 77, 85
2, 301066, Control_c, 0, 64, 84
2, 301090, Control_c, 0, 64, 127
2, 301116, Note_on_c, 0, 68, 0
2, 301137, Note_on_c, 0, 60, 0
2, 301151, Note_on_c, 0, 77, 0
2, 301155, Note_on_c, 0, 53, 0
2, 301180, Control_c, 0, 64, 68
2, 301197, Note_on_c, 0, 62, 75
2, 301199, Control_c, 0, 64, 32
2, 301209, Note_on_c, 0, 67, 90
2, 301209, Note_on_c, 0, 71, 86
2, 301220, Control_c, 0, 64, 0
2, 301228, Note_on_c, 0, 62, 0
2, 301242, Control_c, 0, 64, 47
2, 301242, Note_on_c, 0, 72, 41
2, 301246, Note_on_c, 0, 72, 0
2, 301258, Control_c, 0, 64, 65
2, 301273, Note_on_c, 0, 67, 0
2, 301278, Control_c, 0, 64, 75
2, 301278, Note_on_c, 0, 71, 0
2, 301295, Control_c, 0, 64, 102
2, 301318, Control_c, 0, 64, 127
2, 301333, Note_on_c, 0, 47, 84
2, 301348, Note_on_c, 0, 67, 88
2, 301429, Control_c, 0, 64, 109
2, 301450, Control_c, 0, 64, 69
2, 301468, Control_c, 0, 64, 40
2, 301489, Control_c, 0, 64, 0
2, 301493, Note_on_c, 0, 69, 88
2, 301495, Note_on_c, 0, 48, 80
2, 301516, Note_on_c, 0, 67, 0
2, 301545, Note_on_c, 0, 47, 0
2, 301637, Note_on_c, 0, 71, 88
2, 301648, Note_on_c, 0, 50, 84
2, 301665, Note_on_c, 0, 69, 0
2, 301697, Note_on_c, 0, 48, 0
2, 301777, Note_on_c, 0, 51, 88
2, 301782, Note_on_c, 0, 72, 94
2, 301805, Note_on_c, 0, 50, 0
2, 301816, Note_on_c, 0, 71, 0
2, 301909, Note_on_c, 0, 51, 0
2, 301918, Note_on_c, 0, 50, 85
2, 301927, Note_on_c, 0, 70, 93
2, 301959, Note_on_c, 0, 72, 0
2, 302051, Note_on_c, 0, 51, 78
2, 302057, Note_on_c, 0, 72, 89
2, 302081, Note_on_c, 0, 70, 0
2, 302096, Note_on_c, 0, 50, 0
2, 302186, Note_on_c, 0, 62, 78
2, 302191, Note_on_c, 0, 69, 78
2, 302224, Note_on_c, 0, 51, 0
2, 302232, Note_on_c, 0, 62, 0
2, 302242, Note_on_c, 0, 69, 0
2, 302246, Note_on_c, 0, 72, 0
2, 302332, Note_on_c, 0, 60, 68
2, 302348, Note_on_c, 0, 51, 85
2, 302348, Note_on_c, 0, 59, 65
2, 302348, Note_on_c, 0, 69, 89
2, 302348, Note_on_c, 0, 72, 95
2, 302446, Note_on_c, 0, 69, 0
2, 302452, Note_on_c, 0, 59, 0
2, 302474, Note_on_c, 0, 67, 81
2, 302493, Note_on_c, 0, 58, 77
2, 302516, Note_on_c, 0, 60, 0
2, 302528, Note_on_c, 0, 72, 0
2, 302551, Note_on_c, 0, 67, 0
2, 302601, Note_on_c, 0, 58, 0
2, 302626, Note_on_c, 0, 69, 91
2, 302630, Note_on_c, 0, 60, 95
2, 302635, Note_on_c, 0, 72, 93
2, 302736, Note_on_c, 0, 69, 0
2, 302744, Note_on_c, 0, 72, 0
2, 302763, Note_on_c, 0, 58, 84
2, 302775, Note_on_c, 0, 60, 0
2, 302783, Note_on_c, 0, 67, 76
2, 302824, Note_on_c, 0, 67, 0
2, 302838, Note_on_c, 0, 58, 0
2, 302948, Note_on_c, 0, 66, 97
2, 302952, Note_on_c, 0, 57, 98
2, 302952, Note_on_c, 0, 72, 97
2, 302985, Control_c, 0, 64, 8
2, 303005, Control_c, 0, 64, 46
2, 303026, Control_c, 0, 64, 60
2, 303042, Control_c, 0, 64, 66
2, 303062, Control_c, 0, 64, 72
2, 303079, Control_c, 0, 64, 81
2, 303101, Control_c, 0, 64, 95
2, 303119, Control_c, 0, 64, 127
2, 303152, Note_on_c, 0, 72, 0
2, 303174, Note_on_c, 0, 66, 0
2, 303204, Note_on_c, 0, 57, 0
2, 303222, Note_on_c, 0, 51, 0
2, 303618, Control_c, 0, 64, 76
2, 303637, Control_c, 0, 64, 37
2, 303657, Control_c, 0, 64, 0
2, 303877, Note_on_c, 0, 51, 100
2, 303877, Note_on_c, 0, 60, 104
2, 303877, Note_on_c, 0, 78, 102
2, 303881, Note_on_c, 0, 69, 96
2, 303948, Note_on_c, 0, 69, 0
2, 303967, Note_on_c, 0, 60, 0
2, 303967, Note_on_c, 0, 78, 0
2, 303980, Note_on_c, 0, 51, 0
2, 304253, Control_c, 0, 64, 13
2, 304253, Note_on_c, 0, 62, 101
2, 304257, Note_on_c, 0, 50, 91
2, 304261, Note_on_c, 0, 70, 103
2, 304267, Note_on_c, 0, 79, 101
2, 304272, Control_c, 0, 64, 42
2, 304291, Control_c, 0, 64, 61
2, 304310, Control_c, 0, 64, 70
2, 304329, Control_c, 0, 64, 80
2, 304349, Control_c, 0, 64, 98
2, 304367, Control_c, 0, 64, 127
2, 304425, Note_on_c, 0, 79, 0
2, 304437, Note_on_c, 0, 70, 0
2, 304483, Note_on_c, 0, 50, 0
2, 304500, Note_on_c, 0, 62, 0
2, 304964, Control_c, 0, 64, 85
2, 304982, Control_c, 0, 64, 60
2, 305002, Control_c, 0, 64, 0
2, 305020, Note_on_c, 0, 82, 89
2, 305107, Note_on_c, 0, 82, 0
2, 305181, Note_on_c, 0, 81, 95
2, 305192, Note_on_c, 0, 49, 96
2, 305278, Note_on_c, 0, 81, 0
2, 305339, Note_on_c, 0, 79, 93
2, 305372, Note_on_c, 0, 49, 0
2, 305411, Note_on_c, 0, 79, 0
2, 305477, Note_on_c, 0, 50, 93
2, 305482, Note_on_c, 0, 78, 98
2, 305570, Note_on_c, 0, 78, 0
2, 305606, Note_on_c, 0, 57, 90
2, 305617, Note_on_c, 0, 76, 100
2, 305680, Note_on_c, 0, 57, 0
2, 305680, Note_on_c, 0, 76, 0
2, 305757, Note_on_c, 0, 74, 89
2, 305761, Note_on_c, 0, 58, 82
2, 305816, Note_on_c, 0, 74, 0
2, 305834, Note_on_c, 0, 58, 0
2, 305878, Note_on_c, 0, 72, 89
2, 305885, Note_on_c, 0, 60, 93
2, 305905, Note_on_c, 0, 72, 0
2, 305980, Note_on_c, 0, 60, 0
2, 306025, Note_on_c, 0, 50, 0
2, 306025, Note_on_c, 0, 70, 88
2, 306029, Note_on_c, 0, 62, 92
2, 306099, Note_on_c, 0, 71, 17
2, 306128, Note_on_c, 0, 71, 0
2, 306150, Note_on_c, 0, 46, 82
2, 306175, Note_on_c, 0, 69, 76
2, 306229, Note_on_c, 0, 70, 0
2, 306298, Note_on_c, 0, 67, 78
2, 306302, Note_on_c, 0, 49, 34
2, 306313, Note_on_c, 0, 48, 72
2, 306327, Note_on_c, 0, 69, 0
2, 306362, Note_on_c, 0, 49, 0
2, 306370, Note_on_c, 0, 46, 0
2, 306411, Note_on_c, 0, 48, 0
2, 306426, Note_on_c, 0, 66, 85
2, 306443, Note_on_c, 0, 67, 0
2, 306456, Note_on_c, 0, 62, 0
2, 306489, Note_on_c, 0, 66, 0
2, 306558, Note_on_c, 0, 51, 91
2, 306562, Note_on_c, 0, 67, 90
2, 306700, Note_on_c, 0, 59, 78
2, 306710, Note_on_c, 0, 55, 74
2, 306796, Note_on_c, 0, 59, 0
2, 306833, Note_on_c, 0, 60, 77
2, 306837, Note_on_c, 0, 57, 79
2, 306862, Note_on_c, 0, 55, 0
2, 306909, Note_on_c, 0, 60, 0
2, 306947, Note_on_c, 0, 51, 0
2, 306954, Note_on_c, 0, 57, 0
2, 306958, Note_on_c, 0, 62, 71
2, 306962, Note_on_c, 0, 59, 81
2, 306995, Note_on_c, 0, 59, 0
2, 307002, Note_on_c, 0, 62, 0
2, 307099, Note_on_c, 0, 48, 97
2, 307111, Note_on_c, 0, 60, 78
2, 307111, Note_on_c, 0, 63, 75
2, 307191, Note_on_c, 0, 48, 0
2, 307191, Note_on_c, 0, 60, 0
2, 307195, Note_on_c, 0, 63, 0
2, 307248, Note_on_c, 0, 59, 71
2, 307248, Note_on_c, 0, 62, 78
2, 307323, Note_on_c, 0, 62, 0
2, 307327, Control_c, 0, 64, 32
2, 307327, Note_on_c, 0, 59, 0
2, 307344, Control_c, 0, 64, 52
2, 307360, Control_c, 0, 64, 63
2, 307383, Control_c, 0, 64, 66
2, 307400, Note_on_c, 0, 60, 76
2, 307404, Control_c, 0, 64, 72
2, 307404, Note_on_c, 0, 63, 71
2, 307423, Control_c, 0, 64, 86
2, 307439, Control_c, 0, 64, 127
2, 307510, Note_on_c, 0, 60, 0
2, 307520, Note_on_c, 0, 63, 0
2, 307674, Note_on_c, 0, 60, 85
2, 307678, Note_on_c, 0, 63, 86
2, 307711, Control_c, 0, 64, 93
2, 307727, Control_c, 0, 64, 64
2, 307749, Control_c, 0, 64, 23
2, 307770, Control_c, 0, 64, 0
2, 307832, Note_on_c, 0, 45, 89
2, 307867, Note_on_c, 0, 45, 0
2, 307973, Note_on_c, 0, 47, 89
2, 308019, Note_on_c, 0, 47, 0
2, 308099, Note_on_c, 0, 48, 89
2, 308119, Note_on_c, 0, 60, 0
2, 308128, Note_on_c, 0, 48, 0
2, 308228, Note_on_c, 0, 50, 96
2, 308362, Note_on_c, 0, 63, 0
2, 308375, Note_on_c, 0, 57, 85
2, 308375, Note_on_c, 0, 60, 85
2, 308443, Note_on_c, 0, 60, 0
2, 308500, Note_on_c, 0, 59, 84
2, 308509, Note_on_c, 0, 62, 84
2, 308515, Note_on_c, 0, 57, 0
2, 308583, Note_on_c, 0, 62, 0
2, 308606, Note_on_c, 0, 59, 0
2, 308638, Note_on_c, 0, 60, 77
2, 308638, Note_on_c, 0, 63, 83
2, 308646, Note_on_c, 0, 50, 0
2, 308667, Note_on_c, 0, 60, 0
2, 308711, Note_on_c, 0, 63, 0
2, 308782, Note_on_c, 0, 62, 91
2, 308782, Note_on_c, 0, 65, 78
2, 308787, Note_on_c, 0, 47, 89
2, 308863, Note_on_c, 0, 62, 0
2, 308912, Note_on_c, 0, 65, 0
2, 308938, Note_on_c, 0, 60, 70
2, 308938, Note_on_c, 0, 63, 76
2, 308958, Control_c, 0, 64, 15
2, 308978, Control_c, 0, 64, 35
2, 308985, Note_on_c, 0, 60, 0
2, 308997, Control_c, 0, 64, 54
2, 309005, Note_on_c, 0, 63, 0
2, 309017, Control_c, 0, 64, 63
2, 309035, Control_c, 0, 64, 65
2, 309054, Control_c, 0, 64, 69
2, 309072, Note_on_c, 0, 62, 84
2, 309072, Note_on_c, 0, 65, 70
2, 309076, Control_c, 0, 64, 80
2, 309097, Control_c, 0, 64, 127
2, 309097, Note_on_c, 0, 47, 0
2, 309198, Note_on_c, 0, 62, 0
2, 309222, Note_on_c, 0, 65, 0
2, 309367, Note_on_c, 0, 65, 78
2, 309376, Note_on_c, 0, 62, 86
2, 309441, Control_c, 0, 64, 94
2, 309461, Control_c, 0, 64, 59
2, 309477, Control_c, 0, 64, 0
2, 309514, Note_on_c, 0, 43, 93
2, 309558, Note_on_c, 0, 43, 0
2, 309656, Note_on_c, 0, 45, 91
2, 309700, Note_on_c, 0, 45, 0
2, 309792, Note_on_c, 0, 47, 91
2, 309824, Note_on_c, 0, 47, 0
2, 309936, Note_on_c, 0, 48, 99
2, 309980, Note_on_c, 0, 48, 0
2, 309980, Note_on_c, 0, 62, 0
2, 309998, Control_c, 0, 64, 42
2, 309998, Note_on_c, 0, 67, 0
2, 310000, Note_on_c, 0, 65, 0
2, 310015, Control_c, 0, 64, 59
2, 310034, Control_c, 0, 64, 71
2, 310057, Control_c, 0, 64, 86
2, 310073, Control_c, 0, 64, 127
2, 310261, Note_on_c, 0, 48, 52
2, 310264, Note_on_c, 0, 68, 76
2, 310284, Control_c, 0, 64, 79
2, 310284, Note_on_c, 0, 65, 62
2, 310304, Control_c, 0, 64, 59
2, 310324, Control_c, 0, 64, 49
2, 310341, Control_c, 0, 64, 56
2, 310361, Control_c, 0, 64, 61
2, 310378, Control_c, 0, 64, 64
2, 310399, Control_c, 0, 64, 69
2, 310416, Note_on_c, 0, 74, 78
2, 310425, Control_c, 0, 64, 82
2, 310425, Note_on_c, 0, 48, 0
2, 310425, Note_on_c, 0, 65, 0
2, 310429, Note_on_c, 0, 68, 0
2, 310438, Control_c, 0, 64, 127
2, 310554, Control_c, 0, 64, 79
2, 310554, Note_on_c, 0, 67, 82
2, 310558, Note_on_c, 0, 63, 83
2, 310558, Note_on_c, 0, 74, 0
2, 310566, Note_on_c, 0, 48, 72
2, 310574, Control_c, 0, 64, 62
2, 310591, Control_c, 0, 64, 63
2, 310612, Control_c, 0, 64, 69
2, 310629, Control_c, 0, 64, 83
2, 310649, Control_c, 0, 64, 127
2, 310699, Note_on_c, 0, 67, 0
2, 310703, Note_on_c, 0, 48, 0
2, 310703, Note_on_c, 0, 63, 0
2, 310703, Note_on_c, 0, 72, 90
2, 310841, Note_on_c, 0, 62, 86
2, 310846, Note_on_c, 0, 48, 86
2, 310846, Note_on_c, 0, 65, 85
2, 310883, Note_on_c, 0, 72, 0
2, 310926, Note_on_c, 0, 48, 0
2, 310975, Note_on_c, 0, 70, 90
2, 310980, Note_on_c, 0, 65, 0
2, 311017, Note_on_c, 0, 62, 0
2, 311033, Control_c, 0, 64, 78
2, 311053, Control_c, 0, 64, 59
2, 311071, Control_c, 0, 64, 0
2, 311130, Note_on_c, 0, 60, 95
2, 311135, Note_on_c, 0, 48, 95
2, 311135, Note_on_c, 0, 63, 93
2, 311161, Note_on_c, 0, 70, 0
2, 311177, Note_on_c, 0, 48, 0
2, 311265, Note_on_c, 0, 60, 0
2, 311292, Note_on_c, 0, 69, 68
2, 311425, Note_on_c, 0, 48, 92
2, 311425, Note_on_c, 0, 58, 97
2, 311434, Note_on_c, 0, 69, 0
2, 311477, Note_on_c, 0, 48, 0
2, 311592, Note_on_c, 0, 67, 65
2, 311607, Note_on_c, 0, 58, 0
2, 311612, Note_on_c, 0, 63, 0
2, 311732, Note_on_c, 0, 57, 94
2, 311732, Note_on_c, 0, 66, 91
2, 311736, Note_on_c, 0, 62, 89
2, 311745, Control_c, 0, 64, 45
2, 311745, Note_on_c, 0, 48, 75
2, 311749, Note_on_c, 0, 67, 0
2, 311763, Control_c, 0, 64, 63
2, 311783, Note_on_c, 0, 62, 0
2, 311787, Control_c, 0, 64, 72
2, 311789, Note_on_c, 0, 66, 0
2, 311800, Control_c, 0, 64, 90
2, 311819, Control_c, 0, 64, 127
2, 312143, Note_on_c, 0, 46, 80
2, 312143, Note_on_c, 0, 72, 97
2, 312148, Control_c, 0, 64, 108
2, 312167, Control_c, 0, 64, 64
2, 312171, Note_on_c, 0, 48, 0
2, 312184, Control_c, 0, 64, 0
2, 312392, Note_on_c, 0, 72, 0
2, 312397, Note_on_c, 0, 74, 80
2, 312403, Note_on_c, 0, 45, 68
2, 312403, Note_on_c, 0, 46, 0
2, 312410, Note_on_c, 0, 57, 0
2, 312460, Note_on_c, 0, 74, 0
2, 312460, Note_on_c, 0, 75, 86
2, 312513, Note_on_c, 0, 74, 87
2, 312520, Note_on_c, 0, 46, 84
2, 312524, Note_on_c, 0, 45, 0
2, 312547, Note_on_c, 0, 75, 0
2, 312565, Note_on_c, 0, 74, 0
2, 312569, Control_c, 0, 64, 37
2, 312588, Control_c, 0, 64, 59
2, 312606, Control_c, 0, 64, 71
2, 312628, Control_c, 0, 64, 97
2, 312628, Note_on_c, 0, 46, 0
2, 312645, Control_c, 0, 64, 127
2, 312901, Note_on_c, 0, 67, 91
2, 312909, Note_on_c, 0, 48, 78
2, 312909, Note_on_c, 0, 58, 82
2, 312913, Note_on_c, 0, 63, 88
2, 312933, Control_c, 0, 64, 111
2, 312955, Control_c, 0, 64, 68
2, 312973, Control_c, 0, 64, 42
2, 312993, Control_c, 0, 64, 0
2, 313049, Control_c, 0, 64, 32
2, 313069, Control_c, 0, 64, 51
2, 313088, Control_c, 0, 64, 64
2, 313108, Control_c, 0, 64, 71
2, 313126, Control_c, 0, 64, 85
2, 313148, Control_c, 0, 64, 127
2, 313168, Note_on_c, 0, 58, 0
2, 313177, Note_on_c, 0, 63, 0
2, 313321, Control_c, 0, 64, 112
2, 313337, Note_on_c, 0, 50, 76
2, 313337, Note_on_c, 0, 57, 89
2, 313337, Note_on_c, 0, 62, 85
2, 313341, Control_c, 0, 64, 66
2, 313358, Control_c, 0, 64, 39
2, 313363, Note_on_c, 0, 48, 0
2, 313378, Control_c, 0, 64, 0
2, 313395, Control_c, 0, 64, 20
2, 313416, Control_c, 0, 64, 39
2, 313434, Control_c, 0, 64, 51
2, 313456, Control_c, 0, 64, 62
2, 313474, Control_c, 0, 64, 70
2, 313491, Control_c, 0, 64, 85
2, 313513, Control_c, 0, 64, 127
2, 313522, Note_on_c, 0, 57, 0
2, 313563, Note_on_c, 0, 58, 93
2, 313610, Note_on_c, 0, 67, 0
2, 313697, Note_on_c, 0, 58, 0
2, 313873, Note_on_c, 0, 60, 89
2, 313877, Note_on_c, 0, 66, 92
2, 313887, Note_on_c, 0, 38, 76
2, 313901, Note_on_c, 0, 50, 0
2, 313915, Control_c, 0, 64, 81
2, 313933, Control_c, 0, 64, 60
2, 313953, Control_c, 0, 64, 18
2, 313972, Control_c, 0, 64, 0
2, 314088, Control_c, 0, 64, 38
2, 314106, Control_c, 0, 64, 58
2, 314124, Control_c, 0, 64, 66
2, 314144, Control_c, 0, 64, 70
2, 314165, Control_c, 0, 64, 81
2, 314184, Control_c, 0, 64, 107
2, 314184, Note_on_c, 0, 62, 0
2, 314204, Control_c, 0, 64, 127
2, 314437, Note_on_c, 0, 62, 87
2, 314441, Note_on_c, 0, 67, 91
2, 314446, Note_on_c, 0, 43, 80
2, 314491, Control_c, 0, 64, 94
2, 314508, Control_c, 0, 64, 66
2, 314520, Note_on_c, 0, 38, 0
2, 314531, Control_c, 0, 64, 39
2, 314546, Control_c, 0, 64, 0
2, 314738, Control_c, 0, 64, 18
2, 314758, Control_c, 0, 64, 43
2, 314778, Control_c, 0, 64, 59
2, 314784, Note_on_c, 0, 66, 0
2, 314796, Control_c, 0, 64, 63
2, 314835, Control_c, 0, 64, 64
2, 314853, Control_c, 0, 64, 68
2, 314870, Control_c, 0, 64, 76
2, 314890, Control_c, 0, 64, 91
2, 314910, Control_c, 0, 64, 122
2, 314930, Control_c, 0, 64, 127
2, 315195, Note_on_c, 0, 59, 88
2, 315282, Note_on_c, 0, 60, 0
2, 315291, Control_c, 0, 64, 103
2, 315309, Control_c, 0, 64, 76
2, 315329, Control_c, 0, 64, 62
2, 315351, Control_c, 0, 64, 44
2, 315370, Control_c, 0, 64, 0
2, 315513, Control_c, 0, 64, 14
2, 315533, Control_c, 0, 64, 25
2, 315551, Control_c, 0, 64, 36
2, 315574, Control_c, 0, 64, 49
2, 315590, Control_c, 0, 64, 58
2, 315608, Control_c, 0, 64, 61
2, 315648, Control_c, 0, 64, 62
2, 315666, Control_c, 0, 64, 64
2, 315688, Control_c, 0, 64, 67
2, 315707, Control_c, 0, 64, 72
2, 315727, Control_c, 0, 64, 80
2, 315743, Control_c, 0, 64, 90
2, 315749, Control_c, 0, 64, 103
2, 315749, Control_c, 0, 64, 127
2, 316825, Note_on_c, 0, 67, 0
2, 316832, Note_on_c, 0, 59, 0
2, 316867, Note_on_c, 0, 62, 0
2, 316955, Note_on_c, 0, 43, 0
2, 316997, Control_c, 0, 64, 109
2, 317015, Control_c, 0, 64, 84
2, 317035, Control_c, 0, 64, 67
2, 317054, Control_c, 0, 64, 55
2, 317074, Control_c, 0, 64, 34
2, 317094, Control_c, 0, 64, 0
2, 317095, End_track
0, 0, End_of_file
