0, 0, Header, 1, 2, 480
1, 0, Start_track
1, 0, Tempo, 500000
1, 0, Time_signature, 4, 2, 24, 8
1, 1, End_track
2, 0, Start_track
2, 0, Program_c, 0, 0
2, 0, Control_c, 0, 64, 127
2, 0, Control_c, 0, 67, 0
2, 1019, Note_on_c, 0, 43, 45
2, 1980, Note_on_c, 0, 67, 53
2, 2112, Control_c, 0, 64, 112
2, 2125, Note_on_c, 0, 62, 63
2, 2130, Control_c, 0, 64, 90
2, 2152, Control_c, 0, 64, 77
2, 2168, Control_c, 0, 64, 67
2, 2190, Control_c, 0, 64, 60
2, 2206, Control_c, 0, 64, 54
2, 2227, Control_c, 0, 64, 51
2, 2274, Note_on_c, 0, 67, 0
2, 2283, Control_c, 0, 64, 50
2, 2302, Control_c, 0, 64, 48
2, 2321, Control_c, 0, 64, 46
2, 2340, Control_c, 0, 64, 45
2, 2360, Control_c, 0, 64, 43
2, 2436, Control_c, 0, 64, 45
2, 2456, Control_c, 0, 64, 47
2, 2478, Control_c, 0, 64, 50
2, 2495, Control_c, 0, 64, 55
2, 2516, Control_c, 0, 64, 60
2, 2533, Control_c, 0, 64, 62
2, 2553, Control_c, 0, 64, 64
2, 2571, Control_c, 0, 64, 65
2, 2591, Control_c, 0, 64, 68
2, 2609, Control_c, 0, 64, 73
2, 2629, Control_c, 0, 64, 78
2, 2649, Control_c, 0, 64, 84
2, 2667, Control_c, 0, 64, 91
2, 2687, Control_c, 0, 64, 98
2, 2704, Control_c, 0, 64, 104
2, 2725, Control_c, 0, 64, 112
2, 2742, Control_c, 0, 64, 127
2, 2932, Note_on_c, 0, 65, 59
2, 2996, Control_c, 0, 64, 118
2, 3012, Control_c, 0, 64, 106
2, 3032, Control_c, 0, 64, 95
2, 3052, Control_c, 0, 64, 85
2, 3071, Control_c, 0, 64, 74
2, 3076, Note_on_c, 0, 63, 63
2, 3090, Control_c, 0, 64, 65
2, 3109, Control_c, 0, 64, 57
2, 3130, Control_c, 0, 64, 52
2, 3130, Note_on_c, 0, 62, 0
2, 3150, Control_c, 0, 64, 51
2, 3186, Control_c, 0, 64, 50
2, 3204, Control_c, 0, 64, 49
2, 3224, Control_c, 0, 64, 47
2, 3242, Control_c, 0, 64, 45
2, 3262, Control_c, 0, 64, 43
2, 3266, Note_on_c, 0, 65, 0
2, 3397, Control_c, 0, 64, 44
2, 3417, Control_c, 0, 64, 46
2, 3438, Control_c, 0, 64, 49
2, 3456, Control_c, 0, 64, 53
2, 3474, Control_c, 0, 64, 58
2, 3492, Control_c, 0, 64, 60
2, 3513, Control_c, 0, 64, 62
2, 3530, Control_c, 0, 64, 64
2, 3552, Control_c, 0, 64, 66
2, 3572, Control_c, 0, 64, 68
2, 3590, Control_c, 0, 64, 71
2, 3610, Control_c, 0, 64, 74
2, 3627, Control_c, 0, 64, 76
2, 3648, Control_c, 0, 64, 78
2, 3761, Control_c, 0, 64, 77
2, 3819, Control_c, 0, 64, 76
2, 3852, Note_on_c, 0, 58, 48
2, 3859, Control_c, 0, 64, 74
2, 3879, Control_c, 0, 64, 73
2, 3897, Control_c, 0, 64, 71
2, 3916, Control_c, 0, 64, 67
2, 3934, Control_c, 0, 64, 62
2, 3954, Control_c, 0, 64, 57
2, 3968, Note_on_c, 0, 58, 0
2, 3972, Control_c, 0, 64, 52
2, 3991, Control_c, 0, 64, 48
2, 4005, Note_on_c, 0, 57, 41
2, 4012, Control_c, 0, 64, 44
2, 4033, Control_c, 0, 64, 40
2, 4049, Control_c, 0, 64, 35
2, 4071, Control_c, 0, 64, 30
2, 4089, Control_c, 0, 64, 29
2, 4146, Control_c, 0, 64, 30
2, 4165, Control_c, 0, 64, 32
2, 4185, Control_c, 0, 64, 35
2, 4207, Control_c, 0, 64, 40
2, 4223, Control_c, 0, 64, 47
2, 4242, Control_c, 0, 64, 56
2, 4261, Control_c, 0, 64, 60
2, 4301, Control_c, 0, 64, 61
2, 4320, Control_c, 0, 64, 63
2, 4339, Control_c, 0, 64, 65
2, 4357, Control_c, 0, 64, 68
2, 4376, Control_c, 0, 64, 71
2, 4396, Control_c, 0, 64, 74
2, 4416, Control_c, 0, 64, 77
2, 4434, Control_c, 0, 64, 81
2, 4454, Control_c, 0, 64, 84
2, 4474, Control_c, 0, 64, 87
2, 4493, Control_c, 0, 64, 90
2, 4510, Control_c, 0, 64, 93
2, 4529, Control_c, 0, 64, 95
2, 4551, Control_c, 0, 64, 97
2, 4566, Control_c, 0, 64, 99
2, 4586, Control_c, 0, 64, 100
2, 4606, Control_c, 0, 64, 102
2, 4626, Control_c, 0, 64, 103
2, 4644, Control_c, 0, 64, 104
2, 4702, Control_c, 0, 64, 105
2, 4857, Note_on_c, 0, 57, 0
2, 4861, Note_on_c, 0, 60, 45
2, 4894, Control_c, 0, 64, 103
2, 4914, Control_c, 0, 64, 100
2, 4932, Control_c, 0, 64, 95
2, 4952, Control_c, 0, 64, 88
2, 4972, Control_c, 0, 64, 79
2, 4983, Note_on_c, 0, 60, 0
2, 4990, Control_c, 0, 64, 70
2, 5009, Control_c, 0, 64, 62
2, 5021, Note_on_c, 0, 54, 31
2, 5030, Control_c, 0, 64, 50
2, 5051, Control_c, 0, 64, 38
2, 5067, Control_c, 0, 64, 27
2, 5088, Control_c, 0, 64, 15
2, 5105, Control_c, 0, 64, 10
2, 5125, Control_c, 0, 64, 9
2, 5145, Control_c, 0, 64, 11
2, 5163, Control_c, 0, 64, 18
2, 5183, Control_c, 0, 64, 25
2, 5202, Control_c, 0, 64, 32
2, 5222, Control_c, 0, 64, 41
2, 5241, Control_c, 0, 64, 52
2, 5262, Control_c, 0, 64, 59
2, 5279, Control_c, 0, 64, 60
2, 5298, Control_c, 0, 64, 61
2, 5317, Control_c, 0, 64, 63
2, 5335, Control_c, 0, 64, 65
2, 5355, Control_c, 0, 64, 67
2, 5364, Note_on_c, 0, 63, 0
2, 5375, Control_c, 0, 64, 70
2, 5393, Control_c, 0, 64, 73
2, 5413, Control_c, 0, 64, 78
2, 5431, Control_c, 0, 64, 84
2, 5451, Control_c, 0, 64, 89
2, 5471, Control_c, 0, 64, 95
2, 5491, Control_c, 0, 64, 100
2, 5508, Control_c, 0, 64, 108
2, 5529, Control_c, 0, 64, 127
2, 5876, Note_on_c, 0, 63, 51
2, 5945, Note_on_c, 0, 63, 0
2, 6057, Note_on_c, 0, 62, 58
2, 6114, Note_on_c, 0, 62, 0
2, 6123, Control_c, 0, 64, 96
2, 6134, Note_on_c, 0, 63, 60
2, 6143, Control_c, 0, 64, 78
2, 6161, Control_c, 0, 64, 66
2, 6183, Control_c, 0, 64, 55
2, 6183, Note_on_c, 0, 63, 0
2, 6192, Note_on_c, 0, 62, 48
2, 6200, Control_c, 0, 64, 41
2, 6218, Control_c, 0, 64, 20
2, 6240, Control_c, 0, 64, 0
2, 6354, Control_c, 0, 64, 15
2, 6372, Control_c, 0, 64, 27
2, 6392, Control_c, 0, 64, 43
2, 6411, Control_c, 0, 64, 55
2, 6429, Control_c, 0, 64, 60
2, 6449, Control_c, 0, 64, 61
2, 6470, Control_c, 0, 64, 62
2, 6492, Control_c, 0, 64, 63
2, 6506, Control_c, 0, 64, 65
2, 6526, Control_c, 0, 64, 68
2, 6544, Control_c, 0, 64, 72
2, 6564, Control_c, 0, 64, 77
2, 6583, Control_c, 0, 64, 82
2, 6602, Control_c, 0, 64, 87
2, 6625, Control_c, 0, 64, 91
2, 6643, Control_c, 0, 64, 94
2, 6660, Control_c, 0, 64, 98
2, 6678, Control_c, 0, 64, 104
2, 6698, Control_c, 0, 64, 109
2, 6719, Control_c, 0, 64, 116
2, 6724, Note_on_c, 0, 62, 0
2, 6737, Control_c, 0, 64, 127
2, 6919, Note_on_c, 0, 60, 52
2, 7002, Note_on_c, 0, 60, 0
2, 7045, Control_c, 0, 64, 120
2, 7067, Control_c, 0, 64, 107
2, 7082, Control_c, 0, 64, 94
2, 7089, Note_on_c, 0, 69, 58
2, 7102, Control_c, 0, 64, 83
2, 7124, Control_c, 0, 64, 73
2, 7140, Control_c, 0, 64, 64
2, 7160, Control_c, 0, 64, 57
2, 7177, Control_c, 0, 64, 49
2, 7199, Control_c, 0, 64, 42
2, 7221, Control_c, 0, 64, 37
2, 7236, Control_c, 0, 64, 33
2, 7258, Control_c, 0, 64, 30
2, 7278, Control_c, 0, 64, 29
2, 7312, Control_c, 0, 64, 30
2, 7332, Control_c, 0, 64, 34
2, 7352, Control_c, 0, 64, 39
2, 7373, Control_c, 0, 64, 45
2, 7391, Control_c, 0, 64, 53
2, 7412, Control_c, 0, 64, 60
2, 7428, Control_c, 0, 64, 62
2, 7466, Control_c, 0, 64, 64
2, 7487, Control_c, 0, 64, 66
2, 7506, Control_c, 0, 64, 71
2, 7524, Control_c, 0, 64, 77
2, 7544, Control_c, 0, 64, 85
2, 7563, Control_c, 0, 64, 92
2, 7582, Control_c, 0, 64, 100
2, 7602, Control_c, 0, 64, 109
2, 7620, Control_c, 0, 64, 127
2, 7776, Note_on_c, 0, 69, 0
2, 7824, Note_on_c, 0, 60, 52
2, 7871, Note_on_c, 0, 60, 0
2, 8005, Note_on_c, 0, 58, 58
2, 8056, Note_on_c, 0, 58, 0
2, 8063, Control_c, 0, 64, 97
2, 8082, Control_c, 0, 64, 78
2, 8089, Note_on_c, 0, 60, 60
2, 8104, Control_c, 0, 64, 65
2, 8119, Control_c, 0, 64, 52
2, 8141, Note_on_c, 0, 60, 0
2, 8145, Control_c, 0, 64, 33
2, 8162, Control_c, 0, 64, 0
2, 8163, Note_on_c, 0, 58, 57
2, 8274, Control_c, 0, 64, 15
2, 8294, Control_c, 0, 64, 24
2, 8312, Control_c, 0, 64, 32
2, 8331, Control_c, 0, 64, 43
2, 8349, Control_c, 0, 64, 55
2, 8369, Control_c, 0, 64, 60
2, 8389, Control_c, 0, 64, 61
2, 8408, Control_c, 0, 64, 62
2, 8426, Control_c, 0, 64, 64
2, 8446, Control_c, 0, 64, 66
2, 8466, Control_c, 0, 64, 69
2, 8483, Control_c, 0, 64, 74
2, 8503, Control_c, 0, 64, 80
2, 8525, Control_c, 0, 64, 85
2, 8542, Control_c, 0, 64, 90
2, 8561, Control_c, 0, 64, 93
2, 8581, Control_c, 0, 64, 97
2, 8601, Control_c, 0, 64, 102
2, 8618, Control_c, 0, 64, 109
2, 8638, Control_c, 0, 64, 127
2, 8933, Note_on_c, 0, 58, 0
2, 8949, Note_on_c, 0, 57, 50
2, 9010, Note_on_c, 0, 43, 0
2, 9045, Control_c, 0, 64, 118
2, 9045, Note_on_c, 0, 57, 0
2, 9060, Control_c, 0, 64, 100
2, 9080, Control_c, 0, 64, 82
2, 9103, Control_c, 0, 64, 66
2, 9103, Note_on_c, 0, 58, 45
2, 9120, Control_c, 0, 64, 53
2, 9131, Note_on_c, 0, 54, 0
2, 9136, Control_c, 0, 64, 30
2, 9141, Note_on_c, 0, 55, 27
2, 9158, Control_c, 0, 64, 0
2, 9234, Control_c, 0, 64, 21
2, 9252, Control_c, 0, 64, 31
2, 9272, Control_c, 0, 64, 42
2, 9291, Control_c, 0, 64, 56
2, 9309, Control_c, 0, 64, 61
2, 9328, Control_c, 0, 64, 62
2, 9349, Control_c, 0, 64, 63
2, 9368, Control_c, 0, 64, 66
2, 9387, Control_c, 0, 64, 70
2, 9407, Control_c, 0, 64, 76
2, 9425, Control_c, 0, 64, 85
2, 9445, Control_c, 0, 64, 93
2, 9465, Control_c, 0, 64, 101
2, 9484, Control_c, 0, 64, 109
2, 9505, Control_c, 0, 64, 127
2, 9872, Note_on_c, 0, 74, 66
2, 10027, Note_on_c, 0, 60, 43
2, 10027, Note_on_c, 0, 69, 64
2, 10050, Note_on_c, 0, 74, 0
2, 10078, Control_c, 0, 64, 108
2, 10096, Control_c, 0, 64, 83
2, 10116, Control_c, 0, 64, 66
2, 10135, Control_c, 0, 64, 55
2, 10157, Control_c, 0, 64, 40
2, 10177, Control_c, 0, 64, 25
2, 10181, Note_on_c, 0, 58, 0
2, 10192, Control_c, 0, 64, 20
2, 10231, Control_c, 0, 64, 21
2, 10251, Control_c, 0, 64, 27
2, 10271, Control_c, 0, 64, 35
2, 10289, Control_c, 0, 64, 43
2, 10309, Control_c, 0, 64, 54
2, 10331, Control_c, 0, 64, 61
2, 10349, Control_c, 0, 64, 63
2, 10366, Control_c, 0, 64, 64
2, 10385, Control_c, 0, 64, 66
2, 10405, Control_c, 0, 64, 70
2, 10423, Control_c, 0, 64, 77
2, 10442, Control_c, 0, 64, 84
2, 10461, Control_c, 0, 64, 90
2, 10481, Control_c, 0, 64, 95
2, 10500, Control_c, 0, 64, 103
2, 10522, Control_c, 0, 64, 118
2, 10538, Control_c, 0, 64, 127
2, 10569, Note_on_c, 0, 69, 0
2, 10791, Note_on_c, 0, 72, 70
2, 10943, Note_on_c, 0, 70, 63
2, 10981, Control_c, 0, 64, 100
2, 10986, Note_on_c, 0, 72, 0
2, 10997, Note_on_c, 0, 62, 26
2, 11001, Control_c, 0, 64, 80
2, 11020, Control_c, 0, 64, 67
2, 11038, Control_c, 0, 64, 57
2, 11057, Control_c, 0, 64, 45
2, 11077, Control_c, 0, 64, 33
2, 11095, Control_c, 0, 64, 28
2, 11115, Control_c, 0, 64, 26
2, 11136, Control_c, 0, 64, 25
2, 11136, Note_on_c, 0, 62, 0
2, 11136, Note_on_c, 0, 62, 3
2, 11149, Note_on_c, 0, 60, 0
2, 11193, Control_c, 0, 64, 27
2, 11211, Control_c, 0, 64, 33
2, 11230, Control_c, 0, 64, 39
2, 11248, Control_c, 0, 64, 45
2, 11268, Control_c, 0, 64, 55
2, 11290, Control_c, 0, 64, 61
2, 11308, Control_c, 0, 64, 63
2, 11325, Control_c, 0, 64, 64
2, 11346, Control_c, 0, 64, 65
2, 11366, Control_c, 0, 64, 69
2, 11384, Control_c, 0, 64, 75
2, 11403, Control_c, 0, 64, 82
2, 11425, Control_c, 0, 64, 87
2, 11441, Control_c, 0, 64, 91
2, 11461, Control_c, 0, 64, 95
2, 11478, Control_c, 0, 64, 98
2, 11498, Control_c, 0, 64, 103
2, 11519, Control_c, 0, 64, 106
2, 11538, Control_c, 0, 64, 107
2, 11557, Control_c, 0, 64, 109
2, 11579, Control_c, 0, 64, 110
2, 11730, Control_c, 0, 64, 109
2, 11742, Note_on_c, 0, 65, 45
2, 11747, Control_c, 0, 64, 106
2, 11766, Control_c, 0, 64, 102
2, 11788, Control_c, 0, 64, 97
2, 11806, Control_c, 0, 64, 90
2, 11825, Control_c, 0, 64, 80
2, 11846, Control_c, 0, 64, 70
2, 11846, Note_on_c, 0, 65, 0
2, 11866, Control_c, 0, 64, 62
2, 11884, Control_c, 0, 64, 52
2, 11902, Control_c, 0, 64, 38
2, 11902, Note_on_c, 0, 64, 48
2, 11923, Control_c, 0, 64, 28
2, 11940, Control_c, 0, 64, 21
2, 11962, Control_c, 0, 64, 19
2, 12035, Control_c, 0, 64, 23
2, 12055, Control_c, 0, 64, 28
2, 12064, Note_on_c, 0, 62, 0
2, 12077, Control_c, 0, 64, 34
2, 12095, Control_c, 0, 64, 39
2, 12113, Control_c, 0, 64, 49
2, 12133, Control_c, 0, 64, 58
2, 12153, Control_c, 0, 64, 62
2, 12171, Control_c, 0, 64, 63
2, 12190, Control_c, 0, 64, 64
2, 12212, Control_c, 0, 64, 66
2, 12228, Control_c, 0, 64, 70
2, 12247, Control_c, 0, 64, 75
2, 12268, Control_c, 0, 64, 82
2, 12289, Control_c, 0, 64, 88
2, 12304, Control_c, 0, 64, 93
2, 12325, Control_c, 0, 64, 97
2, 12344, Control_c, 0, 64, 102
2, 12362, Control_c, 0, 64, 108
2, 12382, Control_c, 0, 64, 122
2, 12403, Control_c, 0, 64, 127
2, 12659, Note_on_c, 0, 64, 0
2, 12676, Note_on_c, 0, 67, 51
2, 12780, Note_on_c, 0, 67, 0
2, 12807, Control_c, 0, 64, 109
2, 12823, Control_c, 0, 64, 90
2, 12845, Control_c, 0, 64, 74
2, 12863, Control_c, 0, 64, 60
2, 12865, Note_on_c, 0, 61, 31
2, 12882, Control_c, 0, 64, 45
2, 12901, Control_c, 0, 64, 25
2, 12919, Control_c, 0, 64, 12
2, 12997, Control_c, 0, 64, 18
2, 13019, Control_c, 0, 64, 28
2, 13036, Control_c, 0, 64, 35
2, 13058, Control_c, 0, 64, 42
2, 13074, Control_c, 0, 64, 53
2, 13093, Control_c, 0, 64, 60
2, 13112, Control_c, 0, 64, 61
2, 13132, Control_c, 0, 64, 62
2, 13150, Control_c, 0, 64, 64
2, 13169, Control_c, 0, 64, 67
2, 13188, Control_c, 0, 64, 72
2, 13208, Control_c, 0, 64, 79
2, 13227, Control_c, 0, 64, 87
2, 13245, Control_c, 0, 64, 95
2, 13259, Note_on_c, 0, 70, 0
2, 13268, Control_c, 0, 64, 103
2, 13286, Control_c, 0, 64, 122
2, 13304, Control_c, 0, 64, 127
2, 13698, Note_on_c, 0, 70, 55
2, 13761, Note_on_c, 0, 70, 0
2, 13870, Note_on_c, 0, 69, 53
2, 13917, Note_on_c, 0, 69, 0
2, 13942, Note_on_c, 0, 70, 62
2, 13957, Control_c, 0, 64, 93
2, 13977, Control_c, 0, 64, 72
2, 13995, Control_c, 0, 64, 60
2, 14003, Note_on_c, 0, 70, 0
2, 14014, Control_c, 0, 64, 45
2, 14019, Note_on_c, 0, 69, 53
2, 14032, Control_c, 0, 64, 26
2, 14055, Control_c, 0, 64, 15
2, 14129, Control_c, 0, 64, 20
2, 14149, Control_c, 0, 64, 29
2, 14171, Control_c, 0, 64, 36
2, 14188, Control_c, 0, 64, 43
2, 14207, Control_c, 0, 64, 53
2, 14224, Control_c, 0, 64, 60
2, 14245, Control_c, 0, 64, 62
2, 14284, Control_c, 0, 64, 64
2, 14303, Control_c, 0, 64, 66
2, 14321, Control_c, 0, 64, 70
2, 14340, Control_c, 0, 64, 75
2, 14359, Control_c, 0, 64, 81
2, 14380, Control_c, 0, 64, 87
2, 14397, Control_c, 0, 64, 93
2, 14416, Control_c, 0, 64, 98
2, 14439, Control_c, 0, 64, 104
2, 14454, Control_c, 0, 64, 116
2, 14475, Control_c, 0, 64, 127
2, 14620, Note_on_c, 0, 69, 0
2, 14798, Note_on_c, 0, 67, 55
2, 14868, Note_on_c, 0, 67, 0
2, 14974, Note_on_c, 0, 76, 66
2, 15013, Control_c, 0, 64, 97
2, 15033, Control_c, 0, 64, 79
2, 15052, Control_c, 0, 64, 67
2, 15074, Control_c, 0, 64, 55
2, 15089, Control_c, 0, 64, 44
2, 15107, Control_c, 0, 64, 37
2, 15128, Control_c, 0, 64, 36
2, 15205, Control_c, 0, 64, 37
2, 15225, Control_c, 0, 64, 41
2, 15242, Control_c, 0, 64, 46
2, 15265, Control_c, 0, 64, 52
2, 15280, Control_c, 0, 64, 58
2, 15302, Control_c, 0, 64, 62
2, 15318, Control_c, 0, 64, 64
2, 15337, Control_c, 0, 64, 65
2, 15357, Control_c, 0, 64, 69
2, 15377, Control_c, 0, 64, 76
2, 15395, Control_c, 0, 64, 86
2, 15417, Control_c, 0, 64, 98
2, 15437, Control_c, 0, 64, 111
2, 15453, Control_c, 0, 64, 127
2, 15609, Note_on_c, 0, 76, 0
2, 15738, Note_on_c, 0, 67, 55
2, 15785, Note_on_c, 0, 67, 0
2, 15917, Note_on_c, 0, 66, 61
2, 15965, Note_on_c, 0, 66, 0
2, 15972, Control_c, 0, 64, 89
2, 15992, Note_on_c, 0, 67, 66
2, 15996, Control_c, 0, 64, 71
2, 16012, Control_c, 0, 64, 59
2, 16032, Control_c, 0, 64, 38
2, 16047, Note_on_c, 0, 67, 0
2, 16049, Control_c, 0, 64, 14
2, 16061, Note_on_c, 0, 66, 62
2, 16067, Control_c, 0, 64, 0
2, 16111, Control_c, 0, 64, 8
2, 16125, Control_c, 0, 64, 19
2, 16146, Control_c, 0, 64, 30
2, 16163, Control_c, 0, 64, 40
2, 16184, Control_c, 0, 64, 54
2, 16202, Control_c, 0, 64, 61
2, 16222, Control_c, 0, 64, 63
2, 16231, Note_on_c, 0, 61, 0
2, 16262, Control_c, 0, 64, 65
2, 16278, Control_c, 0, 64, 69
2, 16298, Control_c, 0, 64, 76
2, 16318, Control_c, 0, 64, 86
2, 16338, Control_c, 0, 64, 94
2, 16356, Control_c, 0, 64, 101
2, 16378, Control_c, 0, 64, 111
2, 16395, Note_on_c, 0, 66, 0
2, 16399, Control_c, 0, 64, 127
2, 16848, Note_on_c, 0, 64, 56
2, 17031, Note_on_c, 0, 66, 63
2, 17055, Note_on_c, 0, 50, 34
2, 17092, Note_on_c, 0, 62, 41
2, 17124, Control_c, 0, 64, 122
2, 17143, Control_c, 0, 64, 90
2, 17165, Control_c, 0, 64, 74
2, 17185, Control_c, 0, 64, 64
2, 17185, Note_on_c, 0, 64, 0
2, 17200, Control_c, 0, 64, 56
2, 17221, Control_c, 0, 64, 48
2, 17234, Note_on_c, 0, 55, 0
2, 17241, Control_c, 0, 64, 42
2, 17260, Control_c, 0, 64, 37
2, 17278, Control_c, 0, 64, 33
2, 17296, Control_c, 0, 64, 32
2, 17335, Control_c, 0, 64, 33
2, 17355, Control_c, 0, 64, 38
2, 17374, Control_c, 0, 64, 44
2, 17393, Control_c, 0, 64, 52
2, 17413, Control_c, 0, 64, 61
2, 17433, Control_c, 0, 64, 63
2, 17450, Control_c, 0, 64, 64
2, 17472, Control_c, 0, 64, 65
2, 17490, Control_c, 0, 64, 69
2, 17508, Control_c, 0, 64, 74
2, 17527, Control_c, 0, 64, 81
2, 17546, Control_c, 0, 64, 88
2, 17566, Control_c, 0, 64, 92
2, 17584, Control_c, 0, 64, 97
2, 17604, Control_c, 0, 64, 104
2, 17624, Control_c, 0, 64, 111
2, 17642, Control_c, 0, 64, 118
2, 17662, Control_c, 0, 64, 120
2, 17684, Control_c, 0, 64, 127
2, 17833, Note_on_c, 0, 67, 54
2, 17849, Note_on_c, 0, 66, 0
2, 17892, Control_c, 0, 64, 116
2, 17911, Control_c, 0, 64, 104
2, 17930, Control_c, 0, 64, 93
2, 17948, Control_c, 0, 64, 81
2, 17970, Control_c, 0, 64, 68
2, 17988, Control_c, 0, 64, 59
2, 17994, Note_on_c, 0, 67, 0
2, 18008, Control_c, 0, 64, 47
2, 18028, Control_c, 0, 64, 35
2, 18028, Note_on_c, 0, 69, 47
2, 18046, Control_c, 0, 64, 30
2, 18124, Control_c, 0, 64, 31
2, 18144, Control_c, 0, 64, 34
2, 18161, Control_c, 0, 64, 37
2, 18180, Control_c, 0, 64, 41
2, 18200, Control_c, 0, 64, 45
2, 18219, Control_c, 0, 64, 51
2, 18237, Control_c, 0, 64, 59
2, 18257, Control_c, 0, 64, 61
2, 18277, Control_c, 0, 64, 62
2, 18295, Control_c, 0, 64, 64
2, 18314, Control_c, 0, 64, 66
2, 18335, Control_c, 0, 64, 70
2, 18353, Control_c, 0, 64, 75
2, 18373, Control_c, 0, 64, 83
2, 18392, Control_c, 0, 64, 93
2, 18410, Control_c, 0, 64, 102
2, 18429, Control_c, 0, 64, 111
2, 18443, Note_on_c, 0, 60, 46
2, 18452, Control_c, 0, 64, 127
2, 18546, Note_on_c, 0, 62, 0
2, 18883, Note_on_c, 0, 58, 47
2, 19006, Control_c, 0, 64, 97
2, 19025, Control_c, 0, 64, 81
2, 19043, Control_c, 0, 64, 69
2, 19064, Control_c, 0, 64, 59
2, 19084, Control_c, 0, 64, 50
2, 19104, Control_c, 0, 64, 43
2, 19104, Note_on_c, 0, 60, 0
2, 19120, Control_c, 0, 64, 39
2, 19140, Control_c, 0, 64, 38
2, 19197, Control_c, 0, 64, 42
2, 19217, Control_c, 0, 64, 48
2, 19237, Control_c, 0, 64, 55
2, 19255, Control_c, 0, 64, 61
2, 19274, Control_c, 0, 64, 64
2, 19295, Control_c, 0, 64, 66
2, 19312, Control_c, 0, 64, 69
2, 19331, Note_on_c, 0, 69, 0
2, 19335, Control_c, 0, 64, 75
2, 19350, Control_c, 0, 64, 92
2, 19370, Control_c, 0, 64, 127
2, 19533, Note_on_c, 0, 62, 59
2, 19617, Note_on_c, 0, 62, 0
2, 19713, Note_on_c, 0, 67, 66
2, 19851, Control_c, 0, 64, 93
2, 19871, Control_c, 0, 64, 75
2, 19889, Control_c, 0, 64, 61
2, 19909, Control_c, 0, 64, 49
2, 19929, Control_c, 0, 64, 36
2, 19949, Control_c, 0, 64, 32
2, 19967, Control_c, 0, 64, 34
2, 19984, Control_c, 0, 64, 39
2, 20005, Control_c, 0, 64, 46
2, 20022, Control_c, 0, 64, 54
2, 20042, Control_c, 0, 64, 61
2, 20062, Control_c, 0, 64, 64
2, 20082, Control_c, 0, 64, 66
2, 20102, Control_c, 0, 64, 69
2, 20120, Control_c, 0, 64, 75
2, 20139, Control_c, 0, 64, 86
2, 20160, Control_c, 0, 64, 104
2, 20177, Control_c, 0, 64, 127
2, 20397, Note_on_c, 0, 70, 67
2, 20528, Note_on_c, 0, 70, 0
2, 20582, Note_on_c, 0, 72, 69
2, 20604, Note_on_c, 0, 57, 37
2, 20637, Control_c, 0, 64, 103
2, 20655, Control_c, 0, 64, 84
2, 20678, Control_c, 0, 64, 69
2, 20697, Control_c, 0, 64, 59
2, 20715, Control_c, 0, 64, 44
2, 20737, Control_c, 0, 64, 32
2, 20756, Control_c, 0, 64, 30
2, 20775, Note_on_c, 0, 58, 0
2, 20831, Control_c, 0, 64, 32
2, 20849, Control_c, 0, 64, 37
2, 20867, Control_c, 0, 64, 44
2, 20887, Control_c, 0, 64, 51
2, 20907, Control_c, 0, 64, 59
2, 20926, Control_c, 0, 64, 63
2, 20945, Control_c, 0, 64, 65
2, 20963, Control_c, 0, 64, 68
2, 20986, Control_c, 0, 64, 74
2, 20986, Note_on_c, 0, 67, 0
2, 21002, Control_c, 0, 64, 86
2, 21021, Control_c, 0, 64, 101
2, 21041, Control_c, 0, 64, 122
2, 21059, Control_c, 0, 64, 127
2, 21339, Note_on_c, 0, 67, 49
2, 21377, Note_on_c, 0, 67, 0
2, 21482, Control_c, 0, 64, 109
2, 21505, Control_c, 0, 64, 93
2, 21505, Note_on_c, 0, 66, 58
2, 21522, Control_c, 0, 64, 79
2, 21543, Control_c, 0, 64, 67
2, 21560, Control_c, 0, 64, 59
2, 21578, Control_c, 0, 64, 51
2, 21597, Control_c, 0, 64, 47
2, 21619, Control_c, 0, 64, 45
2, 21636, Control_c, 0, 64, 44
2, 21656, Control_c, 0, 64, 43
2, 21715, Control_c, 0, 64, 44
2, 21735, Control_c, 0, 64, 48
2, 21752, Control_c, 0, 64, 52
2, 21770, Control_c, 0, 64, 55
2, 21790, Control_c, 0, 64, 59
2, 21808, Control_c, 0, 64, 62
2, 21827, Control_c, 0, 64, 64
2, 21846, Control_c, 0, 64, 65
2, 21867, Control_c, 0, 64, 68
2, 21885, Control_c, 0, 64, 73
2, 21905, Control_c, 0, 64, 78
2, 21925, Control_c, 0, 64, 83
2, 21943, Control_c, 0, 64, 87
2, 21962, Control_c, 0, 64, 91
2, 21981, Control_c, 0, 64, 95
2, 22001, Control_c, 0, 64, 99
2, 22021, Control_c, 0, 64, 102
2, 22039, Control_c, 0, 64, 105
2, 22060, Control_c, 0, 64, 106
2, 22116, Control_c, 0, 64, 107
2, 22184, Note_on_c, 0, 66, 0
2, 22216, Note_on_c, 0, 64, 48
2, 22231, Control_c, 0, 64, 106
2, 22249, Control_c, 0, 64, 103
2, 22270, Control_c, 0, 64, 100
2, 22292, Control_c, 0, 64, 95
2, 22306, Control_c, 0, 64, 89
2, 22328, Control_c, 0, 64, 79
2, 22337, Note_on_c, 0, 64, 0
2, 22349, Control_c, 0, 64, 69
2, 22369, Control_c, 0, 64, 59
2, 22387, Control_c, 0, 64, 48
2, 22403, Note_on_c, 0, 66, 40
2, 22405, Control_c, 0, 64, 37
2, 22423, Control_c, 0, 64, 30
2, 22501, Control_c, 0, 64, 34
2, 22522, Control_c, 0, 64, 39
2, 22539, Control_c, 0, 64, 44
2, 22557, Control_c, 0, 64, 49
2, 22579, Control_c, 0, 64, 56
2, 22595, Control_c, 0, 64, 60
2, 22615, Control_c, 0, 64, 61
2, 22634, Control_c, 0, 64, 62
2, 22654, Control_c, 0, 64, 65
2, 22672, Control_c, 0, 64, 67
2, 22692, Control_c, 0, 64, 72
2, 22712, Control_c, 0, 64, 77
2, 22731, Control_c, 0, 64, 84
2, 22749, Control_c, 0, 64, 90
2, 22768, Control_c, 0, 64, 95
2, 22788, Control_c, 0, 64, 103
2, 22808, Control_c, 0, 64, 113
2, 22826, Control_c, 0, 64, 127
2, 23081, Note_on_c, 0, 74, 50
2, 23169, Note_on_c, 0, 72, 0
2, 23231, Note_on_c, 0, 69, 56
2, 23255, Note_on_c, 0, 62, 44
2, 23308, Control_c, 0, 64, 118
2, 23326, Control_c, 0, 64, 85
2, 23346, Control_c, 0, 64, 68
2, 23360, Note_on_c, 0, 74, 0
2, 23365, Control_c, 0, 64, 56
2, 23381, Note_on_c, 0, 57, 0
2, 23385, Control_c, 0, 64, 41
2, 23402, Control_c, 0, 64, 37
2, 23422, Control_c, 0, 64, 44
2, 23440, Control_c, 0, 64, 50
2, 23463, Control_c, 0, 64, 58
2, 23479, Control_c, 0, 64, 62
2, 23499, Control_c, 0, 64, 64
2, 23517, Control_c, 0, 64, 67
2, 23537, Control_c, 0, 64, 72
2, 23555, Control_c, 0, 64, 80
2, 23575, Control_c, 0, 64, 92
2, 23596, Control_c, 0, 64, 107
2, 23616, Control_c, 0, 64, 127
2, 23616, Note_on_c, 0, 51, 62
2, 23896, Note_on_c, 0, 72, 71
2, 23908, Note_on_c, 0, 50, 0
2, 23963, Note_on_c, 0, 66, 0
2, 24002, Note_on_c, 0, 69, 0
2, 24065, Note_on_c, 0, 71, 67
2, 24074, Note_on_c, 0, 53, 40
2, 24091, Note_on_c, 0, 67, 47
2, 24171, Control_c, 0, 64, 94
2, 24189, Control_c, 0, 64, 75
2, 24209, Control_c, 0, 64, 63
2, 24218, Note_on_c, 0, 72, 0
2, 24229, Control_c, 0, 64, 50
2, 24242, Note_on_c, 0, 51, 0
2, 24249, Control_c, 0, 64, 36
2, 24268, Control_c, 0, 64, 29
2, 24288, Control_c, 0, 64, 28
2, 24343, Control_c, 0, 64, 31
2, 24362, Control_c, 0, 64, 39
2, 24383, Control_c, 0, 64, 49
2, 24401, Control_c, 0, 64, 59
2, 24420, Control_c, 0, 64, 64
2, 24438, Control_c, 0, 64, 66
2, 24458, Control_c, 0, 64, 70
2, 24478, Control_c, 0, 64, 80
2, 24496, Control_c, 0, 64, 100
2, 24515, Control_c, 0, 64, 127
2, 24765, Note_on_c, 0, 72, 73
2, 24810, Note_on_c, 0, 71, 0
2, 24927, Note_on_c, 0, 74, 76
2, 24978, Control_c, 0, 64, 109
2, 24996, Control_c, 0, 64, 81
2, 25012, Note_on_c, 0, 72, 0
2, 25014, Control_c, 0, 64, 64
2, 25037, Control_c, 0, 64, 48
2, 25056, Control_c, 0, 64, 22
2, 25074, Control_c, 0, 64, 9
2, 25092, Control_c, 0, 64, 18
2, 25112, Control_c, 0, 64, 30
2, 25134, Control_c, 0, 64, 43
2, 25149, Control_c, 0, 64, 57
2, 25169, Control_c, 0, 64, 64
2, 25189, Control_c, 0, 64, 67
2, 25209, Control_c, 0, 64, 72
2, 25225, Control_c, 0, 64, 80
2, 25245, Control_c, 0, 64, 97
2, 25265, Control_c, 0, 64, 127
2, 25312, Note_on_c, 0, 59, 69
2, 25376, Note_on_c, 0, 62, 0
2, 25428, Note_on_c, 0, 53, 0
2, 25428, Note_on_c, 0, 59, 0
2, 25693, Note_on_c, 0, 67, 0
2, 25727, Note_on_c, 0, 51, 58
2, 25731, Note_on_c, 0, 55, 63
2, 25861, Control_c, 0, 64, 93
2, 25879, Control_c, 0, 64, 70
2, 25898, Control_c, 0, 64, 57
2, 25918, Control_c, 0, 64, 37
2, 25936, Control_c, 0, 64, 20
2, 25956, Control_c, 0, 64, 25
2, 25976, Control_c, 0, 64, 32
2, 25996, Control_c, 0, 64, 39
2, 26013, Control_c, 0, 64, 51
2, 26032, Control_c, 0, 64, 61
2, 26051, Control_c, 0, 64, 65
2, 26071, Control_c, 0, 64, 68
2, 26089, Control_c, 0, 64, 74
2, 26109, Control_c, 0, 64, 87
2, 26128, Control_c, 0, 64, 108
2, 26150, Control_c, 0, 64, 127
2, 26179, Note_on_c, 0, 74, 0
2, 26415, Note_on_c, 0, 67, 73
2, 26520, Note_on_c, 0, 67, 0
2, 26580, Note_on_c, 0, 72, 77
2, 26595, Note_on_c, 0, 63, 55
2, 26668, Control_c, 0, 64, 87
2, 26688, Control_c, 0, 64, 68
2, 26704, Control_c, 0, 64, 56
2, 26723, Control_c, 0, 64, 35
2, 26742, Control_c, 0, 64, 0
2, 26762, Control_c, 0, 64, 10
2, 26784, Control_c, 0, 64, 19
2, 26803, Control_c, 0, 64, 29
2, 26823, Control_c, 0, 64, 39
2, 26839, Control_c, 0, 64, 53
2, 26861, Control_c, 0, 64, 62
2, 26880, Control_c, 0, 64, 65
2, 26897, Control_c, 0, 64, 68
2, 26916, Control_c, 0, 64, 75
2, 26936, Control_c, 0, 64, 88
2, 26957, Control_c, 0, 64, 110
2, 26975, Control_c, 0, 64, 127
2, 27053, Note_on_c, 0, 63, 0
2, 27055, Note_on_c, 0, 55, 0
2, 27227, Note_on_c, 0, 51, 0
2, 27298, Note_on_c, 0, 75, 69
2, 27442, Note_on_c, 0, 75, 0
2, 27476, Note_on_c, 0, 77, 79
2, 27509, Note_on_c, 0, 56, 41
2, 27527, Note_on_c, 0, 50, 35
2, 27588, Control_c, 0, 64, 104
2, 27609, Control_c, 0, 64, 77
2, 27628, Control_c, 0, 64, 64
2, 27647, Control_c, 0, 64, 52
2, 27667, Control_c, 0, 64, 38
2, 27684, Control_c, 0, 64, 28
2, 27704, Control_c, 0, 64, 25
2, 27722, Control_c, 0, 64, 24
2, 27760, Control_c, 0, 64, 26
2, 27779, Control_c, 0, 64, 33
2, 27799, Control_c, 0, 64, 42
2, 27820, Control_c, 0, 64, 52
2, 27838, Control_c, 0, 64, 60
2, 27856, Control_c, 0, 64, 63
2, 27875, Control_c, 0, 64, 64
2, 27895, Control_c, 0, 64, 66
2, 27913, Control_c, 0, 64, 70
2, 27933, Control_c, 0, 64, 79
2, 27955, Control_c, 0, 64, 90
2, 27968, Note_on_c, 0, 72, 0
2, 27972, Control_c, 0, 64, 100
2, 27990, Control_c, 0, 64, 107
2, 28013, Control_c, 0, 64, 127
2, 28238, Note_on_c, 0, 72, 61
2, 28311, Note_on_c, 0, 72, 0
2, 28415, Control_c, 0, 64, 112
2, 28420, Note_on_c, 0, 53, 44
2, 28420, Note_on_c, 0, 71, 56
2, 28433, Control_c, 0, 64, 88
2, 28451, Control_c, 0, 64, 73
2, 28470, Control_c, 0, 64, 62
2, 28489, Control_c, 0, 64, 52
2, 28509, Control_c, 0, 64, 42
2, 28529, Control_c, 0, 64, 39
2, 28576, Note_on_c, 0, 56, 0
2, 28609, Control_c, 0, 64, 40
2, 28627, Control_c, 0, 64, 44
2, 28644, Control_c, 0, 64, 49
2, 28665, Control_c, 0, 64, 55
2, 28682, Control_c, 0, 64, 60
2, 28702, Control_c, 0, 64, 62
2, 28720, Control_c, 0, 64, 63
2, 28740, Control_c, 0, 64, 65
2, 28761, Control_c, 0, 64, 69
2, 28782, Control_c, 0, 64, 74
2, 28797, Control_c, 0, 64, 81
2, 28817, Control_c, 0, 64, 88
2, 28837, Control_c, 0, 64, 96
2, 28857, Control_c, 0, 64, 102
2, 28874, Control_c, 0, 64, 110
2, 28894, Control_c, 0, 64, 127
2, 29161, Note_on_c, 0, 71, 0
2, 29172, Note_on_c, 0, 69, 53
2, 29306, Note_on_c, 0, 69, 0
2, 29315, Control_c, 0, 64, 116
2, 29335, Control_c, 0, 64, 93
2, 29339, Note_on_c, 0, 71, 58
2, 29357, Control_c, 0, 64, 77
2, 29357, Note_on_c, 0, 55, 41
2, 29377, Control_c, 0, 64, 65
2, 29394, Control_c, 0, 64, 55
2, 29412, Control_c, 0, 64, 46
2, 29430, Control_c, 0, 64, 42
2, 29450, Control_c, 0, 64, 41
2, 29471, Note_on_c, 0, 50, 0
2, 29479, Note_on_c, 0, 53, 0
2, 29527, Control_c, 0, 64, 44
2, 29548, Control_c, 0, 64, 48
2, 29565, Control_c, 0, 64, 51
2, 29583, Control_c, 0, 64, 56
2, 29604, Control_c, 0, 64, 60
2, 29624, Control_c, 0, 64, 62
2, 29644, Control_c, 0, 64, 63
2, 29661, Control_c, 0, 64, 65
2, 29681, Control_c, 0, 64, 68
2, 29701, Control_c, 0, 64, 72
2, 29719, Control_c, 0, 64, 79
2, 29738, Control_c, 0, 64, 87
2, 29758, Control_c, 0, 64, 95
2, 29775, Control_c, 0, 64, 99
2, 29795, Control_c, 0, 64, 104
2, 29815, Control_c, 0, 64, 113
2, 29837, Control_c, 0, 64, 127
2, 30059, Note_on_c, 0, 79, 65
2, 30083, Note_on_c, 0, 77, 0
2, 30210, Note_on_c, 0, 79, 0
2, 30216, Note_on_c, 0, 74, 61
2, 30219, Control_c, 0, 64, 109
2, 30234, Note_on_c, 0, 43, 30
2, 30238, Control_c, 0, 64, 89
2, 30258, Control_c, 0, 64, 72
2, 30278, Control_c, 0, 64, 61
2, 30295, Control_c, 0, 64, 49
2, 30317, Control_c, 0, 64, 38
2, 30333, Control_c, 0, 64, 36
2, 30372, Control_c, 0, 64, 37
2, 30390, Control_c, 0, 64, 39
2, 30409, Control_c, 0, 64, 43
2, 30432, Control_c, 0, 64, 48
2, 30449, Control_c, 0, 64, 56
2, 30467, Control_c, 0, 64, 60
2, 30486, Control_c, 0, 64, 62
2, 30505, Control_c, 0, 64, 63
2, 30527, Control_c, 0, 64, 65
2, 30543, Control_c, 0, 64, 67
2, 30566, Control_c, 0, 64, 72
2, 30583, Control_c, 0, 64, 77
2, 30602, Control_c, 0, 64, 83
2, 30622, Control_c, 0, 64, 89
2, 30640, Control_c, 0, 64, 93
2, 30660, Control_c, 0, 64, 98
2, 30679, Control_c, 0, 64, 106
2, 30698, Control_c, 0, 64, 120
2, 30718, Control_c, 0, 64, 127
2, 30774, Note_on_c, 0, 74, 0
2, 31064, Note_on_c, 0, 77, 61
2, 31219, Note_on_c, 0, 48, 35
2, 31237, Control_c, 0, 64, 120
2, 31237, Note_on_c, 0, 75, 58
2, 31251, Control_c, 0, 64, 95
2, 31270, Control_c, 0, 64, 79
2, 31290, Note_on_c, 0, 77, 0
2, 31295, Control_c, 0, 64, 67
2, 31312, Control_c, 0, 64, 58
2, 31324, Note_on_c, 0, 43, 0
2, 31328, Control_c, 0, 64, 51
2, 31348, Control_c, 0, 64, 48
2, 31404, Control_c, 0, 64, 47
2, 31413, Note_on_c, 0, 71, 0
2, 31424, Control_c, 0, 64, 46
2, 31444, Control_c, 0, 64, 44
2, 31466, Control_c, 0, 64, 43
2, 31481, Control_c, 0, 64, 41
2, 31501, Control_c, 0, 64, 37
2, 31523, Control_c, 0, 64, 33
2, 31539, Control_c, 0, 64, 28
2, 31562, Control_c, 0, 64, 22
2, 31579, Control_c, 0, 64, 16
2, 31598, Control_c, 0, 64, 0
2, 32021, Note_on_c, 0, 72, 45
2, 32123, Note_on_c, 0, 72, 0
2, 32179, Note_on_c, 0, 67, 41
2, 32234, Control_c, 0, 64, 17
2, 32251, Control_c, 0, 64, 30
2, 32269, Control_c, 0, 64, 46
2, 32288, Control_c, 0, 64, 56
2, 32309, Control_c, 0, 64, 61
2, 32326, Control_c, 0, 64, 62
2, 32346, Control_c, 0, 64, 63
2, 32364, Control_c, 0, 64, 65
2, 32383, Control_c, 0, 64, 70
2, 32403, Note_on_c, 0, 75, 0
2, 32408, Control_c, 0, 64, 79
2, 32424, Control_c, 0, 64, 96
2, 32442, Control_c, 0, 64, 122
2, 32462, Control_c, 0, 64, 127
2, 32932, Note_on_c, 0, 70, 53
2, 33091, Note_on_c, 0, 68, 67
2, 33093, Note_on_c, 0, 67, 0
2, 33212, Control_c, 0, 64, 118
2, 33229, Control_c, 0, 64, 98
2, 33239, Note_on_c, 0, 70, 0
2, 33250, Control_c, 0, 64, 82
2, 33269, Control_c, 0, 64, 70
2, 33269, Note_on_c, 0, 55, 0
2, 33289, Control_c, 0, 64, 63
2, 33308, Control_c, 0, 64, 57
2, 33325, Control_c, 0, 64, 56
2, 33382, Control_c, 0, 64, 55
2, 33403, Control_c, 0, 64, 54
2, 33422, Control_c, 0, 64, 53
2, 33443, Control_c, 0, 64, 52
2, 33459, Control_c, 0, 64, 51
2, 33479, Control_c, 0, 64, 50
2, 33501, Control_c, 0, 64, 49
2, 33536, Control_c, 0, 64, 48
2, 33555, Control_c, 0, 64, 47
2, 33595, Control_c, 0, 64, 46
2, 33633, Control_c, 0, 64, 45
2, 33672, Control_c, 0, 64, 44
2, 33710, Control_c, 0, 64, 43
2, 33748, Control_c, 0, 64, 42
2, 33768, Control_c, 0, 64, 41
2, 33808, Control_c, 0, 64, 40
2, 33824, Control_c, 0, 64, 39
2, 33840, Note_on_c, 0, 63, 49
2, 33844, Control_c, 0, 64, 38
2, 33884, Control_c, 0, 64, 37
2, 33900, Control_c, 0, 64, 36
2, 33942, Control_c, 0, 64, 35
2, 33982, Note_on_c, 0, 62, 53
2, 33982, Note_on_c, 0, 63, 0
2, 34074, Control_c, 0, 64, 36
2, 34094, Control_c, 0, 64, 38
2, 34112, Control_c, 0, 64, 41
2, 34130, Control_c, 0, 64, 44
2, 34150, Control_c, 0, 64, 48
2, 34171, Control_c, 0, 64, 51
2, 34190, Control_c, 0, 64, 56
2, 34211, Control_c, 0, 64, 59
2, 34227, Control_c, 0, 64, 63
2, 34246, Control_c, 0, 64, 64
2, 34266, Control_c, 0, 64, 67
2, 34287, Control_c, 0, 64, 72
2, 34307, Control_c, 0, 64, 82
2, 34325, Control_c, 0, 64, 99
2, 34343, Control_c, 0, 64, 127
2, 34761, Note_on_c, 0, 65, 49
2, 34810, Note_on_c, 0, 62, 0
2, 34945, Note_on_c, 0, 59, 48
2, 34975, Control_c, 0, 64, 99
2, 34995, Control_c, 0, 64, 83
2, 35004, Note_on_c, 0, 65, 0
2, 35017, Control_c, 0, 64, 70
2, 35033, Control_c, 0, 64, 59
2, 35053, Control_c, 0, 64, 48
2, 35073, Control_c, 0, 64, 40
2, 35092, Control_c, 0, 64, 38
2, 35112, Control_c, 0, 64, 37
2, 35131, Control_c, 0, 64, 38
2, 35152, Control_c, 0, 64, 40
2, 35169, Control_c, 0, 64, 46
2, 35187, Control_c, 0, 64, 53
2, 35207, Control_c, 0, 64, 57
2, 35226, Control_c, 0, 64, 61
2, 35247, Control_c, 0, 64, 64
2, 35265, Control_c, 0, 64, 67
2, 35286, Control_c, 0, 64, 72
2, 35286, Note_on_c, 0, 68, 0
2, 35304, Control_c, 0, 64, 83
2, 35322, Control_c, 0, 64, 100
2, 35343, Control_c, 0, 64, 127
2, 35682, Note_on_c, 0, 68, 63
2, 35841, Note_on_c, 0, 67, 67
2, 35938, Control_c, 0, 64, 122
2, 35945, Note_on_c, 0, 68, 0
2, 35958, Control_c, 0, 64, 96
2, 35975, Control_c, 0, 64, 82
2, 35995, Control_c, 0, 64, 69
2, 36015, Control_c, 0, 64, 61
2, 36033, Control_c, 0, 64, 52
2, 36052, Control_c, 0, 64, 45
2, 36074, Control_c, 0, 64, 41
2, 36092, Control_c, 0, 64, 39
2, 36148, Control_c, 0, 64, 41
2, 36167, Control_c, 0, 64, 46
2, 36187, Control_c, 0, 64, 51
2, 36204, Control_c, 0, 64, 56
2, 36223, Control_c, 0, 64, 61
2, 36243, Control_c, 0, 64, 63
2, 36263, Control_c, 0, 64, 66
2, 36282, Control_c, 0, 64, 70
2, 36300, Control_c, 0, 64, 77
2, 36321, Control_c, 0, 64, 88
2, 36341, Control_c, 0, 64, 106
2, 36360, Control_c, 0, 64, 127
2, 36654, Note_on_c, 0, 65, 63
2, 36659, Note_on_c, 0, 67, 0
2, 36766, Note_on_c, 0, 65, 0
2, 36832, Note_on_c, 0, 74, 72
2, 36898, Control_c, 0, 64, 102
2, 36916, Control_c, 0, 64, 85
2, 36936, Control_c, 0, 64, 72
2, 36953, Control_c, 0, 64, 61
2, 36973, Control_c, 0, 64, 52
2, 36993, Control_c, 0, 64, 44
2, 37010, Control_c, 0, 64, 41
2, 37108, Control_c, 0, 64, 44
2, 37126, Control_c, 0, 64, 48
2, 37146, Control_c, 0, 64, 53
2, 37164, Control_c, 0, 64, 59
2, 37185, Control_c, 0, 64, 63
2, 37207, Control_c, 0, 64, 64
2, 37223, Control_c, 0, 64, 66
2, 37245, Control_c, 0, 64, 71
2, 37263, Control_c, 0, 64, 80
2, 37281, Control_c, 0, 64, 92
2, 37299, Control_c, 0, 64, 105
2, 37318, Control_c, 0, 64, 122
2, 37340, Control_c, 0, 64, 127
2, 37562, Note_on_c, 0, 65, 60
2, 37721, Note_on_c, 0, 65, 0
2, 37730, Note_on_c, 0, 63, 65
2, 37760, Control_c, 0, 64, 106
2, 37780, Control_c, 0, 64, 80
2, 37798, Control_c, 0, 64, 65
2, 37819, Control_c, 0, 64, 53
2, 37836, Control_c, 0, 64, 35
2, 37857, Control_c, 0, 64, 24
2, 37895, Control_c, 0, 64, 28
2, 37915, Control_c, 0, 64, 37
2, 37933, Control_c, 0, 64, 47
2, 37952, Control_c, 0, 64, 59
2, 37972, Control_c, 0, 64, 64
2, 37991, Control_c, 0, 64, 67
2, 38013, Control_c, 0, 64, 70
2, 38029, Control_c, 0, 64, 78
2, 38049, Control_c, 0, 64, 95
2, 38062, Note_on_c, 0, 48, 0
2, 38069, Control_c, 0, 64, 127
2, 38126, Note_on_c, 0, 59, 0
2, 38514, Note_on_c, 0, 63, 0
2, 38523, Note_on_c, 0, 62, 57
2, 38642, Note_on_c, 0, 62, 0
2, 38695, Note_on_c, 0, 63, 56
2, 38719, Note_on_c, 0, 60, 60
2, 38781, Control_c, 0, 64, 101
2, 38800, Control_c, 0, 64, 77
2, 38820, Control_c, 0, 64, 63
2, 38835, Control_c, 0, 64, 50
2, 38854, Control_c, 0, 64, 34
2, 38876, Control_c, 0, 64, 25
2, 38895, Note_on_c, 0, 74, 0
2, 38933, Control_c, 0, 64, 28
2, 38951, Control_c, 0, 64, 36
2, 38971, Control_c, 0, 64, 45
2, 38989, Control_c, 0, 64, 57
2, 39009, Control_c, 0, 64, 64
2, 39028, Control_c, 0, 64, 66
2, 39046, Control_c, 0, 64, 69
2, 39067, Control_c, 0, 64, 74
2, 39089, Control_c, 0, 64, 85
2, 39105, Control_c, 0, 64, 102
2, 39122, Control_c, 0, 64, 127
2, 39466, Note_on_c, 0, 79, 73
2, 39624, Note_on_c, 0, 65, 57
2, 39624, Note_on_c, 0, 74, 76
2, 39628, Note_on_c, 0, 71, 66
2, 39729, Note_on_c, 0, 79, 0
2, 39759, Control_c, 0, 64, 116
2, 39776, Control_c, 0, 64, 83
2, 39796, Control_c, 0, 64, 65
2, 39818, Control_c, 0, 64, 49
2, 39818, Note_on_c, 0, 63, 0
2, 39837, Control_c, 0, 64, 15
2, 39854, Control_c, 0, 64, 11
2, 39873, Control_c, 0, 64, 24
2, 39892, Control_c, 0, 64, 34
2, 39909, Control_c, 0, 64, 46
2, 39931, Control_c, 0, 64, 60
2, 39949, Control_c, 0, 64, 65
2, 39969, Control_c, 0, 64, 69
2, 39987, Control_c, 0, 64, 75
2, 40007, Control_c, 0, 64, 88
2, 40025, Control_c, 0, 64, 120
2, 40046, Control_c, 0, 64, 127
2, 40119, Note_on_c, 0, 74, 0
2, 40200, Note_on_c, 0, 71, 0
2, 40319, Note_on_c, 0, 65, 0
2, 40408, Note_on_c, 0, 77, 72
2, 40572, Note_on_c, 0, 75, 75
2, 40585, Note_on_c, 0, 67, 59
2, 40585, Note_on_c, 0, 72, 72
2, 40679, Control_c, 0, 64, 95
2, 40699, Control_c, 0, 64, 74
2, 40718, Control_c, 0, 64, 61
2, 40723, Note_on_c, 0, 77, 0
2, 40739, Control_c, 0, 64, 47
2, 40755, Control_c, 0, 64, 28
2, 40777, Control_c, 0, 64, 18
2, 40815, Control_c, 0, 64, 25
2, 40833, Control_c, 0, 64, 32
2, 40853, Control_c, 0, 64, 41
2, 40869, Control_c, 0, 64, 55
2, 40891, Control_c, 0, 64, 63
2, 40909, Control_c, 0, 64, 65
2, 40928, Control_c, 0, 64, 68
2, 40947, Control_c, 0, 64, 73
2, 40967, Control_c, 0, 64, 81
2, 40987, Control_c, 0, 64, 91
2, 41006, Control_c, 0, 64, 100
2, 41025, Control_c, 0, 64, 110
2, 41043, Control_c, 0, 64, 127
2, 41277, Note_on_c, 0, 67, 0
2, 41379, Note_on_c, 0, 58, 65
2, 41540, Note_on_c, 0, 57, 77
2, 41549, Note_on_c, 0, 66, 70
2, 41620, Control_c, 0, 64, 97
2, 41627, Note_on_c, 0, 60, 0
2, 41640, Control_c, 0, 64, 73
2, 41644, Note_on_c, 0, 58, 0
2, 41659, Control_c, 0, 64, 61
2, 41680, Control_c, 0, 64, 46
2, 41696, Control_c, 0, 64, 22
2, 41716, Control_c, 0, 64, 0
2, 41812, Control_c, 0, 64, 22
2, 41830, Control_c, 0, 64, 35
2, 41849, Control_c, 0, 64, 50
2, 41870, Control_c, 0, 64, 61
2, 41887, Control_c, 0, 64, 63
2, 41907, Control_c, 0, 64, 64
2, 41930, Control_c, 0, 64, 66
2, 41947, Control_c, 0, 64, 71
2, 41964, Control_c, 0, 64, 79
2, 41985, Control_c, 0, 64, 91
2, 42005, Control_c, 0, 64, 103
2, 42023, Control_c, 0, 64, 127
2, 42041, Note_on_c, 0, 66, 0
2, 42297, Note_on_c, 0, 67, 73
2, 42310, Note_on_c, 0, 60, 69
2, 42363, Note_on_c, 0, 67, 0
2, 42473, Note_on_c, 0, 69, 75
2, 42480, Note_on_c, 0, 54, 72
2, 42524, Control_c, 0, 64, 105
2, 42542, Control_c, 0, 64, 80
2, 42564, Control_c, 0, 64, 65
2, 42581, Control_c, 0, 64, 51
2, 42593, Note_on_c, 0, 60, 0
2, 42603, Control_c, 0, 64, 24
2, 42618, Control_c, 0, 64, 0
2, 42623, Note_on_c, 0, 57, 0
2, 42752, Control_c, 0, 64, 19
2, 42771, Control_c, 0, 64, 30
2, 42792, Control_c, 0, 64, 43
2, 42810, Control_c, 0, 64, 56
2, 42830, Control_c, 0, 64, 62
2, 42849, Control_c, 0, 64, 63
2, 42869, Control_c, 0, 64, 64
2, 42887, Control_c, 0, 64, 67
2, 42906, Control_c, 0, 64, 74
2, 42926, Control_c, 0, 64, 85
2, 42944, Control_c, 0, 64, 99
2, 42963, Control_c, 0, 64, 127
2, 43052, Note_on_c, 0, 75, 0
2, 43287, Note_on_c, 0, 75, 71
2, 43438, Note_on_c, 0, 74, 75
2, 43459, Note_on_c, 0, 57, 59
2, 43500, Control_c, 0, 64, 106
2, 43509, Note_on_c, 0, 75, 0
2, 43522, Control_c, 0, 64, 88
2, 43541, Control_c, 0, 64, 72
2, 43558, Control_c, 0, 64, 58
2, 43578, Control_c, 0, 64, 39
2, 43597, Control_c, 0, 64, 0
2, 43673, Control_c, 0, 64, 11
2, 43692, Control_c, 0, 64, 31
2, 43712, Control_c, 0, 64, 48
2, 43731, Control_c, 0, 64, 60
2, 43755, Control_c, 0, 64, 63
2, 43770, Control_c, 0, 64, 64
2, 43790, Control_c, 0, 64, 66
2, 43808, Control_c, 0, 64, 69
2, 43831, Control_c, 0, 64, 76
2, 43847, Control_c, 0, 64, 89
2, 43869, Control_c, 0, 64, 101
2, 43886, Control_c, 0, 64, 111
2, 43905, Control_c, 0, 64, 127
2, 43911, Note_on_c, 0, 69, 0
2, 43948, Note_on_c, 0, 72, 0
2, 44080, Note_on_c, 0, 74, 0
2, 44349, Note_on_c, 0, 72, 73
2, 44441, Note_on_c, 0, 72, 0
2, 44532, Note_on_c, 0, 81, 75
2, 44653, Control_c, 0, 64, 95
2, 44674, Control_c, 0, 64, 81
2, 44692, Control_c, 0, 64, 69
2, 44711, Control_c, 0, 64, 62
2, 44729, Control_c, 0, 64, 54
2, 44750, Control_c, 0, 64, 48
2, 44769, Control_c, 0, 64, 45
2, 44787, Control_c, 0, 64, 44
2, 44825, Control_c, 0, 64, 43
2, 44882, Control_c, 0, 64, 45
2, 44903, Control_c, 0, 64, 49
2, 44923, Control_c, 0, 64, 54
2, 44942, Control_c, 0, 64, 61
2, 44959, Control_c, 0, 64, 63
2, 44978, Control_c, 0, 64, 65
2, 45001, Control_c, 0, 64, 67
2, 45019, Control_c, 0, 64, 72
2, 45039, Control_c, 0, 64, 78
2, 45057, Control_c, 0, 64, 86
2, 45075, Control_c, 0, 64, 95
2, 45094, Control_c, 0, 64, 103
2, 45113, Control_c, 0, 64, 111
2, 45135, Control_c, 0, 64, 127
2, 45331, Note_on_c, 0, 72, 59
2, 45485, Note_on_c, 0, 72, 0
2, 45503, Note_on_c, 0, 70, 61
2, 45523, Note_on_c, 0, 62, 45
2, 45557, Control_c, 0, 64, 104
2, 45576, Control_c, 0, 64, 84
2, 45594, Control_c, 0, 64, 69
2, 45613, Control_c, 0, 64, 59
2, 45636, Control_c, 0, 64, 45
2, 45653, Control_c, 0, 64, 34
2, 45670, Control_c, 0, 64, 32
2, 45680, Note_on_c, 0, 57, 0
2, 45748, Control_c, 0, 64, 35
2, 45768, Control_c, 0, 64, 40
2, 45786, Control_c, 0, 64, 46
2, 45806, Control_c, 0, 64, 55
2, 45824, Control_c, 0, 64, 61
2, 45842, Control_c, 0, 64, 62
2, 45863, Control_c, 0, 64, 63
2, 45882, Control_c, 0, 64, 65
2, 45902, Control_c, 0, 64, 69
2, 45921, Control_c, 0, 64, 74
2, 45941, Control_c, 0, 64, 81
2, 45958, Control_c, 0, 64, 87
2, 45978, Control_c, 0, 64, 94
2, 45997, Control_c, 0, 64, 100
2, 46018, Control_c, 0, 64, 106
2, 46036, Control_c, 0, 64, 118
2, 46056, Control_c, 0, 64, 127
2, 46357, Note_on_c, 0, 70, 0
2, 46393, Note_on_c, 0, 69, 46
2, 46517, Control_c, 0, 64, 111
2, 46535, Control_c, 0, 64, 89
2, 46553, Control_c, 0, 64, 73
2, 46575, Control_c, 0, 64, 62
2, 46575, Note_on_c, 0, 70, 47
2, 46579, Note_on_c, 0, 55, 35
2, 46587, Note_on_c, 0, 69, 0
2, 46592, Control_c, 0, 64, 48
2, 46613, Control_c, 0, 64, 34
2, 46633, Control_c, 0, 64, 29
2, 46694, Note_on_c, 0, 54, 0
2, 46726, Control_c, 0, 64, 30
2, 46746, Control_c, 0, 64, 34
2, 46765, Control_c, 0, 64, 38
2, 46784, Control_c, 0, 64, 44
2, 46805, Control_c, 0, 64, 53
2, 46822, Control_c, 0, 64, 59
2, 46842, Control_c, 0, 64, 61
2, 46864, Control_c, 0, 64, 62
2, 46883, Control_c, 0, 64, 63
2, 46902, Control_c, 0, 64, 66
2, 46918, Control_c, 0, 64, 69
2, 46939, Control_c, 0, 64, 74
2, 46959, Control_c, 0, 64, 80
2, 46976, Control_c, 0, 64, 86
2, 46992, Note_on_c, 0, 81, 0
2, 46996, Control_c, 0, 64, 92
2, 47014, Control_c, 0, 64, 99
2, 47034, Control_c, 0, 64, 110
2, 47052, Control_c, 0, 64, 127
2, 47438, Note_on_c, 0, 79, 56
2, 47598, Note_on_c, 0, 67, 57
2, 47607, Note_on_c, 0, 74, 54
2, 47629, Note_on_c, 0, 79, 0
2, 47669, Control_c, 0, 64, 101
2, 47691, Control_c, 0, 64, 82
2, 47705, Control_c, 0, 64, 70
2, 47724, Control_c, 0, 64, 61
2, 47746, Control_c, 0, 64, 53
2, 47765, Control_c, 0, 64, 47
2, 47783, Control_c, 0, 64, 46
2, 47859, Control_c, 0, 64, 45
2, 47866, Note_on_c, 0, 62, 0
2, 47937, Control_c, 0, 64, 44
2, 47995, Control_c, 0, 64, 43
2, 48071, Control_c, 0, 64, 42
2, 48186, Control_c, 0, 64, 41
2, 48245, Control_c, 0, 64, 40
2, 48418, Note_on_c, 0, 77, 56
2, 48428, Note_on_c, 0, 74, 0
2, 48576, Note_on_c, 0, 77, 0
2, 48593, Note_on_c, 0, 75, 55
2, 48609, Control_c, 0, 64, 41
2, 48627, Control_c, 0, 64, 42
2, 48647, Control_c, 0, 64, 44
2, 48665, Control_c, 0, 64, 47
2, 48685, Control_c, 0, 64, 50
2, 48705, Control_c, 0, 64, 54
2, 48723, Control_c, 0, 64, 58
2, 48742, Control_c, 0, 64, 61
2, 48762, Control_c, 0, 64, 62
2, 48782, Control_c, 0, 64, 64
2, 48800, Control_c, 0, 64, 66
2, 48820, Control_c, 0, 64, 70
2, 48839, Control_c, 0, 64, 76
2, 48860, Control_c, 0, 64, 85
2, 48876, Control_c, 0, 64, 97
2, 48895, Control_c, 0, 64, 118
2, 48916, Control_c, 0, 64, 127
2, 48987, Note_on_c, 0, 67, 0
2, 49282, Note_on_c, 0, 67, 55
2, 49452, Note_on_c, 0, 62, 64
2, 49457, Note_on_c, 0, 79, 63
2, 49484, Note_on_c, 0, 75, 0
2, 49568, Control_c, 0, 64, 105
2, 49588, Control_c, 0, 64, 85
2, 49606, Control_c, 0, 64, 70
2, 49626, Control_c, 0, 64, 59
2, 49632, Note_on_c, 0, 67, 0
2, 49649, Control_c, 0, 64, 49
2, 49664, Control_c, 0, 64, 42
2, 49684, Control_c, 0, 64, 41
2, 49722, Control_c, 0, 64, 42
2, 49741, Control_c, 0, 64, 43
2, 49758, Control_c, 0, 64, 46
2, 49780, Control_c, 0, 64, 50
2, 49798, Control_c, 0, 64, 56
2, 49818, Control_c, 0, 64, 60
2, 49836, Control_c, 0, 64, 62
2, 49856, Control_c, 0, 64, 63
2, 49878, Control_c, 0, 64, 65
2, 49893, Control_c, 0, 64, 69
2, 49914, Control_c, 0, 64, 74
2, 49933, Control_c, 0, 64, 81
2, 49952, Control_c, 0, 64, 91
2, 49972, Control_c, 0, 64, 102
2, 49990, Control_c, 0, 64, 111
2, 50012, Control_c, 0, 64, 127
2, 50295, Note_on_c, 0, 65, 68
2, 50432, Note_on_c, 0, 62, 0
2, 50465, Note_on_c, 0, 64, 64
2, 50481, Note_on_c, 0, 69, 56
2, 50481, Note_on_c, 0, 73, 67
2, 50547, Note_on_c, 0, 70, 0
2, 50552, Control_c, 0, 64, 108
2, 50563, Note_on_c, 0, 79, 0
2, 50567, Control_c, 0, 64, 85
2, 50576, Note_on_c, 0, 65, 0
2, 50587, Control_c, 0, 64, 67
2, 50605, Control_c, 0, 64, 55
2, 50623, Control_c, 0, 64, 42
2, 50642, Control_c, 0, 64, 32
2, 50700, Control_c, 0, 64, 35
2, 50721, Control_c, 0, 64, 42
2, 50741, Control_c, 0, 64, 50
2, 50759, Control_c, 0, 64, 59
2, 50778, Control_c, 0, 64, 63
2, 50800, Control_c, 0, 64, 65
2, 50817, Control_c, 0, 64, 67
2, 50835, Control_c, 0, 64, 72
2, 50854, Control_c, 0, 64, 83
2, 50875, Control_c, 0, 64, 98
2, 50895, Control_c, 0, 64, 116
2, 50911, Control_c, 0, 64, 127
2, 50967, Note_on_c, 0, 55, 0
2, 51326, Note_on_c, 0, 57, 68
2, 51429, Note_on_c, 0, 57, 0
2, 51502, Note_on_c, 0, 52, 77
2, 51584, Control_c, 0, 64, 94
2, 51603, Control_c, 0, 64, 72
2, 51622, Control_c, 0, 64, 61
2, 51642, Control_c, 0, 64, 50
2, 51662, Control_c, 0, 64, 49
2, 51680, Control_c, 0, 64, 53
2, 51698, Control_c, 0, 64, 56
2, 51719, Control_c, 0, 64, 57
2, 51737, Control_c, 0, 64, 61
2, 51758, Control_c, 0, 64, 64
2, 51776, Control_c, 0, 64, 67
2, 51795, Control_c, 0, 64, 73
2, 51814, Control_c, 0, 64, 87
2, 51834, Control_c, 0, 64, 113
2, 51852, Control_c, 0, 64, 127
2, 52285, Note_on_c, 0, 55, 75
2, 52304, Note_on_c, 0, 64, 0
2, 52446, Note_on_c, 0, 74, 76
2, 52454, Note_on_c, 0, 53, 76
2, 52458, Note_on_c, 0, 65, 63
2, 52519, Note_on_c, 0, 73, 0
2, 52544, Control_c, 0, 64, 116
2, 52565, Control_c, 0, 64, 83
2, 52565, Note_on_c, 0, 55, 0
2, 52572, Note_on_c, 0, 52, 0
2, 52583, Control_c, 0, 64, 65
2, 52602, Control_c, 0, 64, 51
2, 52620, Control_c, 0, 64, 25
2, 52640, Control_c, 0, 64, 0
2, 52716, Control_c, 0, 64, 25
2, 52735, Control_c, 0, 64, 39
2, 52755, Control_c, 0, 64, 53
2, 52773, Control_c, 0, 64, 62
2, 52793, Control_c, 0, 64, 65
2, 52811, Control_c, 0, 64, 68
2, 52832, Control_c, 0, 64, 74
2, 52852, Control_c, 0, 64, 89
2, 52871, Control_c, 0, 64, 127
2, 52950, Note_on_c, 0, 53, 0
2, 53266, Note_on_c, 0, 50, 72
2, 53319, Note_on_c, 0, 50, 0
2, 53440, Note_on_c, 0, 45, 70
2, 53505, Control_c, 0, 64, 102
2, 53523, Control_c, 0, 64, 81
2, 53543, Control_c, 0, 64, 66
2, 53564, Control_c, 0, 64, 55
2, 53583, Control_c, 0, 64, 40
2, 53599, Control_c, 0, 64, 30
2, 53619, Control_c, 0, 64, 25
2, 53659, Control_c, 0, 64, 27
2, 53677, Control_c, 0, 64, 33
2, 53696, Control_c, 0, 64, 41
2, 53716, Control_c, 0, 64, 48
2, 53733, Control_c, 0, 64, 57
2, 53753, Control_c, 0, 64, 62
2, 53773, Control_c, 0, 64, 63
2, 53795, Control_c, 0, 64, 64
2, 53810, Control_c, 0, 64, 67
2, 53830, Control_c, 0, 64, 72
2, 53850, Control_c, 0, 64, 81
2, 53870, Control_c, 0, 64, 93
2, 53888, Control_c, 0, 64, 106
2, 53906, Control_c, 0, 64, 115
2, 53929, Control_c, 0, 64, 127
2, 53998, Note_on_c, 0, 45, 0
2, 54377, Note_on_c, 0, 48, 59
2, 54437, Note_on_c, 0, 48, 0
2, 54577, Note_on_c, 0, 46, 54
2, 54581, Control_c, 0, 64, 95
2, 54601, Control_c, 0, 64, 81
2, 54617, Control_c, 0, 64, 69
2, 54639, Control_c, 0, 64, 62
2, 54657, Control_c, 0, 64, 54
2, 54677, Control_c, 0, 64, 50
2, 54695, Control_c, 0, 64, 49
2, 54714, Control_c, 0, 64, 47
2, 54734, Control_c, 0, 64, 44
2, 54754, Control_c, 0, 64, 41
2, 54771, Control_c, 0, 64, 38
2, 54791, Control_c, 0, 64, 37
2, 54867, Control_c, 0, 64, 38
2, 54890, Control_c, 0, 64, 41
2, 54907, Control_c, 0, 64, 44
2, 54923, Control_c, 0, 64, 48
2, 54943, Control_c, 0, 64, 51
2, 54965, Control_c, 0, 64, 54
2, 54983, Control_c, 0, 64, 59
2, 55001, Control_c, 0, 64, 62
2, 55021, Control_c, 0, 64, 64
2, 55041, Control_c, 0, 64, 65
2, 55059, Control_c, 0, 64, 68
2, 55079, Control_c, 0, 64, 74
2, 55098, Control_c, 0, 64, 82
2, 55117, Control_c, 0, 64, 96
2, 55137, Control_c, 0, 64, 109
2, 55156, Control_c, 0, 64, 127
2, 55500, Note_on_c, 0, 65, 0
2, 55529, Note_on_c, 0, 64, 49
2, 55650, Note_on_c, 0, 64, 0
2, 55654, Control_c, 0, 64, 106
2, 55677, Control_c, 0, 64, 84
2, 55691, Note_on_c, 0, 65, 42
2, 55695, Control_c, 0, 64, 71
2, 55711, Control_c, 0, 64, 62
2, 55730, Control_c, 0, 64, 53
2, 55751, Control_c, 0, 64, 46
2, 55770, Control_c, 0, 64, 45
2, 55808, Control_c, 0, 64, 47
2, 55827, Control_c, 0, 64, 50
2, 55849, Control_c, 0, 64, 54
2, 55865, Control_c, 0, 64, 57
2, 55885, Control_c, 0, 64, 60
2, 55904, Control_c, 0, 64, 63
2, 55923, Control_c, 0, 64, 66
2, 55941, Control_c, 0, 64, 70
2, 55962, Control_c, 0, 64, 78
2, 55984, Control_c, 0, 64, 90
2, 55999, Control_c, 0, 64, 112
2, 56020, Control_c, 0, 64, 127
2, 56449, Note_on_c, 0, 62, 50
2, 56520, Note_on_c, 0, 65, 0
2, 56593, Note_on_c, 0, 69, 0
2, 56696, Note_on_c, 0, 47, 25
2, 56796, Note_on_c, 0, 62, 0
2, 56805, Note_on_c, 0, 68, 60
2, 56807, Control_c, 0, 64, 120
2, 56813, Note_on_c, 0, 46, 0
2, 56827, Control_c, 0, 64, 95
2, 56845, Control_c, 0, 64, 82
2, 56852, Note_on_c, 0, 68, 0
2, 56863, Control_c, 0, 64, 69
2, 56883, Control_c, 0, 64, 61
2, 56888, Note_on_c, 0, 69, 53
2, 56903, Control_c, 0, 64, 52
2, 56921, Control_c, 0, 64, 45
2, 56941, Control_c, 0, 64, 42
2, 56963, Control_c, 0, 64, 34
2, 56963, Note_on_c, 0, 68, 54
2, 56972, Note_on_c, 0, 69, 0
2, 56978, Control_c, 0, 64, 13
2, 56999, Control_c, 0, 64, 0
2, 57603, Note_on_c, 0, 49, 39
2, 57698, Note_on_c, 0, 49, 0
2, 57729, Control_c, 0, 64, 13
2, 57746, Control_c, 0, 64, 25
2, 57759, Note_on_c, 0, 50, 41
2, 57770, Control_c, 0, 64, 33
2, 57787, Control_c, 0, 64, 42
2, 57804, Control_c, 0, 64, 49
2, 57824, Control_c, 0, 64, 56
2, 57843, Control_c, 0, 64, 61
2, 57863, Control_c, 0, 64, 62
2, 57881, Control_c, 0, 64, 64
2, 57901, Control_c, 0, 64, 68
2, 57919, Control_c, 0, 64, 74
2, 57939, Control_c, 0, 64, 86
2, 57959, Control_c, 0, 64, 104
2, 57977, Control_c, 0, 64, 127
2, 58038, Note_on_c, 0, 68, 0
2, 58217, Note_on_c, 0, 68, 59
2, 58517, Note_on_c, 0, 50, 0
2, 58539, Note_on_c, 0, 52, 62
2, 58573, Note_on_c, 0, 52, 0
2, 58619, Note_on_c, 0, 47, 0
2, 58703, Note_on_c, 0, 69, 62
2, 58723, Note_on_c, 0, 45, 36
2, 58723, Note_on_c, 0, 53, 58
2, 58768, Note_on_c, 0, 68, 0
2, 58822, Control_c, 0, 64, 103
2, 58841, Control_c, 0, 64, 74
2, 58862, Control_c, 0, 64, 61
2, 58880, Control_c, 0, 64, 44
2, 58900, Control_c, 0, 64, 24
2, 58918, Control_c, 0, 64, 17
2, 58957, Control_c, 0, 64, 18
2, 58975, Control_c, 0, 64, 25
2, 58996, Control_c, 0, 64, 35
2, 59015, Control_c, 0, 64, 44
2, 59034, Control_c, 0, 64, 55
2, 59051, Control_c, 0, 64, 61
2, 59071, Control_c, 0, 64, 63
2, 59093, Control_c, 0, 64, 65
2, 59111, Control_c, 0, 64, 70
2, 59131, Control_c, 0, 64, 79
2, 59131, Note_on_c, 0, 74, 0
2, 59148, Control_c, 0, 64, 94
2, 59167, Control_c, 0, 64, 127
2, 59406, Note_on_c, 0, 74, 69
2, 59587, Note_on_c, 0, 70, 75
2, 59587, Note_on_c, 0, 76, 79
2, 59602, Note_on_c, 0, 55, 54
2, 59635, Note_on_c, 0, 74, 0
2, 59679, Note_on_c, 0, 69, 0
2, 59706, Control_c, 0, 64, 102
2, 59723, Control_c, 0, 64, 78
2, 59743, Control_c, 0, 64, 63
2, 59762, Control_c, 0, 64, 50
2, 59783, Control_c, 0, 64, 32
2, 59787, Note_on_c, 0, 53, 0
2, 59801, Control_c, 0, 64, 24
2, 59842, Control_c, 0, 64, 25
2, 59860, Control_c, 0, 64, 30
2, 59878, Control_c, 0, 64, 38
2, 59898, Control_c, 0, 64, 46
2, 59918, Control_c, 0, 64, 56
2, 59935, Control_c, 0, 64, 62
2, 59956, Control_c, 0, 64, 64
2, 59974, Control_c, 0, 64, 66
2, 59994, Control_c, 0, 64, 69
2, 60011, Control_c, 0, 64, 76
2, 60031, Control_c, 0, 64, 86
2, 60052, Control_c, 0, 64, 100
2, 60069, Control_c, 0, 64, 116
2, 60089, Control_c, 0, 64, 127
2, 60375, Note_on_c, 0, 76, 0
2, 60380, Note_on_c, 0, 79, 75
2, 60564, Note_on_c, 0, 73, 67
2, 60573, Control_c, 0, 64, 90
2, 60573, Note_on_c, 0, 79, 0
2, 60582, Note_on_c, 0, 57, 43
2, 60588, Control_c, 0, 64, 71
2, 60608, Control_c, 0, 64, 60
2, 60627, Control_c, 0, 64, 42
2, 60638, Note_on_c, 0, 55, 0
2, 60650, Control_c, 0, 64, 28
2, 60663, Control_c, 0, 64, 25
2, 60741, Control_c, 0, 64, 28
2, 60763, Control_c, 0, 64, 36
2, 60780, Control_c, 0, 64, 44
2, 60800, Control_c, 0, 64, 53
2, 60818, Control_c, 0, 64, 60
2, 60840, Control_c, 0, 64, 62
2, 60875, Control_c, 0, 64, 64
2, 60895, Control_c, 0, 64, 66
2, 60915, Control_c, 0, 64, 72
2, 60935, Control_c, 0, 64, 79
2, 60953, Control_c, 0, 64, 87
2, 60973, Control_c, 0, 64, 94
2, 60991, Control_c, 0, 64, 100
2, 61011, Control_c, 0, 64, 109
2, 61029, Control_c, 0, 64, 127
2, 61093, Note_on_c, 0, 70, 0
2, 61331, Note_on_c, 0, 74, 54
2, 61336, Note_on_c, 0, 69, 48
2, 61419, Note_on_c, 0, 73, 0
2, 61483, Note_on_c, 0, 69, 0
2, 61492, Control_c, 0, 64, 106
2, 61509, Control_c, 0, 64, 86
2, 61522, Note_on_c, 0, 76, 58
2, 61523, Note_on_c, 0, 74, 0
2, 61527, Note_on_c, 0, 64, 48
2, 61531, Control_c, 0, 64, 71
2, 61536, Note_on_c, 0, 49, 33
2, 61550, Control_c, 0, 64, 60
2, 61568, Control_c, 0, 64, 47
2, 61589, Control_c, 0, 64, 30
2, 61606, Control_c, 0, 64, 22
2, 61632, Note_on_c, 0, 57, 0
2, 61647, Note_on_c, 0, 45, 0
2, 61703, Control_c, 0, 64, 23
2, 61721, Control_c, 0, 64, 28
2, 61741, Control_c, 0, 64, 35
2, 61759, Control_c, 0, 64, 42
2, 61780, Control_c, 0, 64, 50
2, 61799, Control_c, 0, 64, 58
2, 61819, Control_c, 0, 64, 61
2, 61839, Control_c, 0, 64, 62
2, 61854, Control_c, 0, 64, 63
2, 61874, Control_c, 0, 64, 66
2, 61895, Control_c, 0, 64, 70
2, 61913, Control_c, 0, 64, 76
2, 61932, Control_c, 0, 64, 83
2, 61955, Control_c, 0, 64, 89
2, 61972, Control_c, 0, 64, 94
2, 61994, Control_c, 0, 64, 97
2, 62010, Control_c, 0, 64, 101
2, 62029, Control_c, 0, 64, 109
2, 62047, Control_c, 0, 64, 127
2, 62286, Note_on_c, 0, 64, 0
2, 62293, Note_on_c, 0, 67, 49
2, 62418, Control_c, 0, 64, 122
2, 62418, Note_on_c, 0, 67, 0
2, 62432, Control_c, 0, 64, 97
2, 62452, Control_c, 0, 64, 81
2, 62464, Note_on_c, 0, 50, 40
2, 62471, Control_c, 0, 64, 68
2, 62473, Note_on_c, 0, 65, 42
2, 62490, Control_c, 0, 64, 58
2, 62510, Control_c, 0, 64, 45
2, 62528, Control_c, 0, 64, 33
2, 62547, Control_c, 0, 64, 28
2, 62569, Note_on_c, 0, 49, 0
2, 62642, Control_c, 0, 64, 30
2, 62662, Control_c, 0, 64, 35
2, 62685, Control_c, 0, 64, 39
2, 62702, Control_c, 0, 64, 48
2, 62719, Control_c, 0, 64, 57
2, 62738, Control_c, 0, 64, 61
2, 62759, Control_c, 0, 64, 62
2, 62777, Control_c, 0, 64, 63
2, 62795, Control_c, 0, 64, 66
2, 62815, Control_c, 0, 64, 70
2, 62836, Control_c, 0, 64, 79
2, 62855, Control_c, 0, 64, 88
2, 62871, Note_on_c, 0, 76, 0
2, 62875, Control_c, 0, 64, 95
2, 62893, Control_c, 0, 64, 101
2, 62911, Control_c, 0, 64, 109
2, 62933, Control_c, 0, 64, 127
2, 63279, Note_on_c, 0, 74, 49
2, 63432, Note_on_c, 0, 74, 0
2, 63458, Note_on_c, 0, 69, 55
2, 63467, Note_on_c, 0, 53, 37
2, 63490, Control_c, 0, 64, 108
2, 63506, Control_c, 0, 64, 87
2, 63525, Control_c, 0, 64, 70
2, 63545, Control_c, 0, 64, 60
2, 63565, Control_c, 0, 64, 49
2, 63583, Control_c, 0, 64, 39
2, 63602, Control_c, 0, 64, 34
2, 63644, Control_c, 0, 64, 35
2, 63662, Control_c, 0, 64, 36
2, 63681, Control_c, 0, 64, 41
2, 63699, Control_c, 0, 64, 46
2, 63717, Control_c, 0, 64, 53
2, 63738, Control_c, 0, 64, 60
2, 63759, Control_c, 0, 64, 62
2, 63774, Control_c, 0, 64, 63
2, 63794, Control_c, 0, 64, 64
2, 63815, Control_c, 0, 64, 66
2, 63834, Control_c, 0, 64, 70
2, 63852, Control_c, 0, 64, 76
2, 63872, Control_c, 0, 64, 83
2, 63890, Control_c, 0, 64, 90
2, 63912, Control_c, 0, 64, 96
2, 63928, Control_c, 0, 64, 103
2, 63948, Control_c, 0, 64, 109
2, 63968, Control_c, 0, 64, 127
2, 64060, Note_on_c, 0, 69, 0
2, 64283, Note_on_c, 0, 72, 58
2, 64450, Note_on_c, 0, 70, 55
2, 64460, Note_on_c, 0, 72, 0
2, 64467, Control_c, 0, 64, 105
2, 64485, Control_c, 0, 64, 81
2, 64506, Control_c, 0, 64, 67
2, 64526, Control_c, 0, 64, 56
2, 64544, Control_c, 0, 64, 42
2, 64562, Control_c, 0, 64, 31
2, 64581, Control_c, 0, 64, 29
2, 64603, Control_c, 0, 64, 30
2, 64622, Control_c, 0, 64, 32
2, 64640, Control_c, 0, 64, 37
2, 64660, Control_c, 0, 64, 43
2, 64681, Control_c, 0, 64, 51
2, 64697, Control_c, 0, 64, 60
2, 64716, Control_c, 0, 64, 62
2, 64735, Control_c, 0, 64, 63
2, 64757, Control_c, 0, 64, 64
2, 64773, Control_c, 0, 64, 67
2, 64793, Control_c, 0, 64, 71
2, 64815, Control_c, 0, 64, 77
2, 64830, Control_c, 0, 64, 83
2, 64839, Note_on_c, 0, 65, 0
2, 64851, Control_c, 0, 64, 89
2, 64870, Control_c, 0, 64, 93
2, 64889, Control_c, 0, 64, 98
2, 64907, Control_c, 0, 64, 103
2, 64928, Control_c, 0, 64, 113
2, 64946, Control_c, 0, 64, 127
2, 65247, Note_on_c, 0, 65, 49
2, 65254, Note_on_c, 0, 57, 38
2, 65409, Note_on_c, 0, 64, 55
2, 65429, Control_c, 0, 64, 110
2, 65434, Note_on_c, 0, 55, 51
2, 65440, Note_on_c, 0, 65, 0
2, 65446, Control_c, 0, 64, 90
2, 65465, Control_c, 0, 64, 76
2, 65485, Control_c, 0, 64, 65
2, 65500, Note_on_c, 0, 57, 0
2, 65507, Control_c, 0, 64, 56
2, 65522, Control_c, 0, 64, 46
2, 65542, Control_c, 0, 64, 39
2, 65561, Note_on_c, 0, 53, 0
2, 65565, Control_c, 0, 64, 37
2, 65600, Control_c, 0, 64, 36
2, 65676, Control_c, 0, 64, 37
2, 65698, Control_c, 0, 64, 40
2, 65716, Control_c, 0, 64, 44
2, 65734, Control_c, 0, 64, 49
2, 65752, Control_c, 0, 64, 56
2, 65772, Control_c, 0, 64, 61
2, 65795, Control_c, 0, 64, 62
2, 65810, Control_c, 0, 64, 63
2, 65828, Control_c, 0, 64, 65
2, 65849, Control_c, 0, 64, 67
2, 65868, Control_c, 0, 64, 72
2, 65888, Control_c, 0, 64, 78
2, 65908, Control_c, 0, 64, 85
2, 65927, Control_c, 0, 64, 91
2, 65946, Control_c, 0, 64, 97
2, 65966, Control_c, 0, 64, 104
2, 65984, Control_c, 0, 64, 116
2, 66002, Control_c, 0, 64, 127
2, 66147, Note_on_c, 0, 64, 0
2, 66175, Note_on_c, 0, 53, 41
2, 66178, Note_on_c, 0, 67, 55
2, 66216, Note_on_c, 0, 55, 0
2, 66318, Note_on_c, 0, 67, 0
2, 66329, Note_on_c, 0, 53, 0
2, 66334, Control_c, 0, 64, 93
2, 66350, Control_c, 0, 64, 73
2, 66359, Note_on_c, 0, 61, 47
2, 66370, Control_c, 0, 64, 60
2, 66370, Note_on_c, 0, 52, 44
2, 66388, Control_c, 0, 64, 44
2, 66405, Control_c, 0, 64, 21
2, 66425, Control_c, 0, 64, 16
2, 66504, Control_c, 0, 64, 22
2, 66520, Control_c, 0, 64, 31
2, 66541, Control_c, 0, 64, 39
2, 66560, Control_c, 0, 64, 51
2, 66578, Control_c, 0, 64, 60
2, 66598, Control_c, 0, 64, 63
2, 66618, Control_c, 0, 64, 64
2, 66636, Control_c, 0, 64, 66
2, 66655, Control_c, 0, 64, 70
2, 66674, Control_c, 0, 64, 79
2, 66696, Control_c, 0, 64, 94
2, 66712, Control_c, 0, 64, 108
2, 66731, Control_c, 0, 64, 127
2, 66787, Note_on_c, 0, 61, 0
2, 66787, Note_on_c, 0, 61, 14
2, 66800, Note_on_c, 0, 70, 0
2, 67084, Note_on_c, 0, 70, 57
2, 67266, Note_on_c, 0, 69, 58
2, 67309, Control_c, 0, 64, 91
2, 67323, Note_on_c, 0, 52, 0
2, 67329, Control_c, 0, 64, 72
2, 67338, Note_on_c, 0, 53, 48
2, 67349, Control_c, 0, 64, 61
2, 67365, Control_c, 0, 64, 45
2, 67381, Note_on_c, 0, 70, 0
2, 67385, Control_c, 0, 64, 34
2, 67404, Control_c, 0, 64, 32
2, 67442, Control_c, 0, 64, 34
2, 67462, Control_c, 0, 64, 36
2, 67480, Control_c, 0, 64, 40
2, 67499, Control_c, 0, 64, 45
2, 67519, Control_c, 0, 64, 51
2, 67539, Control_c, 0, 64, 57
2, 67559, Control_c, 0, 64, 61
2, 67577, Control_c, 0, 64, 62
2, 67597, Control_c, 0, 64, 63
2, 67617, Control_c, 0, 64, 65
2, 67635, Control_c, 0, 64, 68
2, 67654, Control_c, 0, 64, 76
2, 67676, Control_c, 0, 64, 86
2, 67694, Control_c, 0, 64, 97
2, 67711, Control_c, 0, 64, 109
2, 67730, Control_c, 0, 64, 127
2, 68017, Note_on_c, 0, 69, 0
2, 68116, Note_on_c, 0, 67, 61
2, 68298, Note_on_c, 0, 55, 41
2, 68302, Note_on_c, 0, 76, 74
2, 68383, Control_c, 0, 64, 106
2, 68403, Control_c, 0, 64, 88
2, 68422, Control_c, 0, 64, 74
2, 68440, Control_c, 0, 64, 64
2, 68458, Control_c, 0, 64, 55
2, 68481, Control_c, 0, 64, 42
2, 68485, Note_on_c, 0, 53, 0
2, 68501, Control_c, 0, 64, 35
2, 68519, Control_c, 0, 64, 32
2, 68539, Control_c, 0, 64, 31
2, 68543, Note_on_c, 0, 67, 0
2, 68576, Control_c, 0, 64, 32
2, 68594, Control_c, 0, 64, 36
2, 68614, Control_c, 0, 64, 44
2, 68634, Control_c, 0, 64, 50
2, 68654, Control_c, 0, 64, 58
2, 68672, Control_c, 0, 64, 63
2, 68690, Control_c, 0, 64, 65
2, 68711, Control_c, 0, 64, 69
2, 68730, Control_c, 0, 64, 76
2, 68743, Note_on_c, 0, 76, 0
2, 68748, Control_c, 0, 64, 96
2, 68768, Control_c, 0, 64, 127
2, 69075, Note_on_c, 0, 67, 59
2, 69243, Note_on_c, 0, 66, 67
2, 69254, Note_on_c, 0, 58, 45
2, 69301, Note_on_c, 0, 67, 0
2, 69306, Control_c, 0, 64, 109
2, 69323, Control_c, 0, 64, 88
2, 69345, Control_c, 0, 64, 73
2, 69364, Control_c, 0, 64, 62
2, 69384, Control_c, 0, 64, 51
2, 69401, Control_c, 0, 64, 40
2, 69421, Control_c, 0, 64, 35
2, 69441, Control_c, 0, 64, 32
2, 69455, Note_on_c, 0, 61, 0
2, 69479, Control_c, 0, 64, 34
2, 69496, Control_c, 0, 64, 39
2, 69516, Note_on_c, 0, 55, 0
2, 69521, Control_c, 0, 64, 45
2, 69534, Control_c, 0, 64, 52
2, 69556, Control_c, 0, 64, 59
2, 69573, Control_c, 0, 64, 63
2, 69593, Control_c, 0, 64, 65
2, 69611, Control_c, 0, 64, 68
2, 69631, Control_c, 0, 64, 74
2, 69651, Control_c, 0, 64, 87
2, 69671, Control_c, 0, 64, 113
2, 69691, Control_c, 0, 64, 127
2, 69735, Note_on_c, 0, 58, 0
2, 69823, Note_on_c, 0, 50, 0
2, 69927, Note_on_c, 0, 66, 0
2, 70145, Note_on_c, 0, 64, 54
2, 70339, Note_on_c, 0, 66, 61
2, 70377, Note_on_c, 0, 48, 26
2, 70381, Note_on_c, 0, 57, 31
2, 70383, Note_on_c, 0, 62, 40
2, 70520, Note_on_c, 0, 64, 0
2, 70534, Control_c, 0, 64, 97
2, 70554, Control_c, 0, 64, 81
2, 70570, Control_c, 0, 64, 70
2, 70593, Control_c, 0, 64, 62
2, 70611, Control_c, 0, 64, 55
2, 70629, Control_c, 0, 64, 50
2, 70648, Control_c, 0, 64, 46
2, 70670, Control_c, 0, 64, 41
2, 70687, Control_c, 0, 64, 30
2, 70706, Control_c, 0, 64, 0
2, 70840, Control_c, 0, 64, 18
2, 70860, Control_c, 0, 64, 34
2, 70880, Control_c, 0, 64, 49
2, 70900, Control_c, 0, 64, 58
2, 70917, Control_c, 0, 64, 61
2, 70956, Control_c, 0, 64, 64
2, 70976, Control_c, 0, 64, 66
2, 70994, Control_c, 0, 64, 70
2, 71014, Control_c, 0, 64, 74
2, 71032, Control_c, 0, 64, 78
2, 71054, Control_c, 0, 64, 80
2, 71070, Control_c, 0, 64, 81
2, 71156, Note_on_c, 0, 67, 57
2, 71187, Note_on_c, 0, 66, 0
2, 71207, Control_c, 0, 64, 80
2, 71227, Control_c, 0, 64, 79
2, 71245, Control_c, 0, 64, 78
2, 71265, Control_c, 0, 64, 75
2, 71283, Control_c, 0, 64, 71
2, 71303, Control_c, 0, 64, 66
2, 71321, Control_c, 0, 64, 59
2, 71330, Note_on_c, 0, 67, 0
2, 71330, Note_on_c, 0, 69, 52
2, 71341, Control_c, 0, 64, 50
2, 71359, Control_c, 0, 64, 37
2, 71377, Control_c, 0, 64, 30
2, 71397, Control_c, 0, 64, 28
2, 71435, Control_c, 0, 64, 27
2, 71493, Control_c, 0, 64, 29
2, 71512, Control_c, 0, 64, 35
2, 71534, Control_c, 0, 64, 43
2, 71552, Control_c, 0, 64, 50
2, 71571, Control_c, 0, 64, 59
2, 71589, Control_c, 0, 64, 63
2, 71610, Control_c, 0, 64, 64
2, 71629, Control_c, 0, 64, 65
2, 71647, Control_c, 0, 64, 70
2, 71666, Control_c, 0, 64, 78
2, 71686, Control_c, 0, 64, 91
2, 71705, Control_c, 0, 64, 107
2, 71723, Control_c, 0, 64, 127
2, 71732, Note_on_c, 0, 54, 60
2, 71811, Note_on_c, 0, 48, 0
2, 71847, Note_on_c, 0, 62, 0
2, 71851, Note_on_c, 0, 57, 0
2, 71856, Note_on_c, 0, 54, 0
2, 72179, Note_on_c, 0, 50, 59
2, 72189, Note_on_c, 0, 46, 57
2, 72417, Control_c, 0, 64, 99
2, 72434, Control_c, 0, 64, 74
2, 72455, Control_c, 0, 64, 60
2, 72472, Control_c, 0, 64, 39
2, 72493, Control_c, 0, 64, 26
2, 72511, Control_c, 0, 64, 35
2, 72531, Control_c, 0, 64, 45
2, 72551, Control_c, 0, 64, 58
2, 72570, Control_c, 0, 64, 66
2, 72588, Control_c, 0, 64, 71
2, 72606, Control_c, 0, 64, 82
2, 72626, Control_c, 0, 64, 98
2, 72646, Control_c, 0, 64, 127
2, 72668, Note_on_c, 0, 69, 0
2, 72925, Note_on_c, 0, 62, 70
2, 73035, Note_on_c, 0, 62, 0
2, 73096, Note_on_c, 0, 58, 60
2, 73096, Note_on_c, 0, 67, 73
2, 73245, Control_c, 0, 64, 86
2, 73263, Control_c, 0, 64, 66
2, 73283, Control_c, 0, 64, 52
2, 73303, Control_c, 0, 64, 27
2, 73321, Control_c, 0, 64, 26
2, 73341, Control_c, 0, 64, 35
2, 73359, Control_c, 0, 64, 46
2, 73380, Control_c, 0, 64, 58
2, 73400, Control_c, 0, 64, 65
2, 73418, Control_c, 0, 64, 69
2, 73439, Control_c, 0, 64, 79
2, 73457, Control_c, 0, 64, 93
2, 73475, Control_c, 0, 64, 127
2, 73590, Note_on_c, 0, 50, 0
2, 73724, Note_on_c, 0, 58, 0
2, 73738, Note_on_c, 0, 46, 0
2, 73880, Note_on_c, 0, 70, 76
2, 74043, Note_on_c, 0, 51, 54
2, 74048, Note_on_c, 0, 72, 71
2, 74058, Note_on_c, 0, 45, 45
2, 74067, Note_on_c, 0, 70, 0
2, 74147, Control_c, 0, 64, 116
2, 74165, Control_c, 0, 64, 82
2, 74186, Control_c, 0, 64, 65
2, 74204, Control_c, 0, 64, 51
2, 74223, Control_c, 0, 64, 31
2, 74245, Control_c, 0, 64, 14
2, 74281, Control_c, 0, 64, 18
2, 74299, Control_c, 0, 64, 26
2, 74319, Control_c, 0, 64, 36
2, 74337, Control_c, 0, 64, 47
2, 74360, Control_c, 0, 64, 60
2, 74378, Control_c, 0, 64, 65
2, 74395, Control_c, 0, 64, 70
2, 74415, Control_c, 0, 64, 75
2, 74433, Control_c, 0, 64, 83
2, 74453, Control_c, 0, 64, 93
2, 74476, Control_c, 0, 64, 106
2, 74476, Note_on_c, 0, 67, 0
2, 74491, Control_c, 0, 64, 127
2, 74726, Note_on_c, 0, 67, 73
2, 74897, Note_on_c, 0, 66, 78
2, 74908, Note_on_c, 0, 48, 53
2, 74945, Note_on_c, 0, 67, 0
2, 75031, Control_c, 0, 64, 97
2, 75050, Control_c, 0, 64, 76
2, 75068, Control_c, 0, 64, 63
2, 75088, Control_c, 0, 64, 47
2, 75108, Control_c, 0, 64, 27
2, 75126, Control_c, 0, 64, 15
2, 75184, Control_c, 0, 64, 18
2, 75189, Note_on_c, 0, 51, 0
2, 75202, Control_c, 0, 64, 27
2, 75222, Control_c, 0, 64, 38
2, 75240, Control_c, 0, 64, 50
2, 75260, Control_c, 0, 64, 60
2, 75280, Control_c, 0, 64, 63
2, 75300, Control_c, 0, 64, 64
2, 75317, Control_c, 0, 64, 66
2, 75338, Control_c, 0, 64, 70
2, 75357, Control_c, 0, 64, 78
2, 75375, Control_c, 0, 64, 88
2, 75393, Control_c, 0, 64, 99
2, 75413, Control_c, 0, 64, 112
2, 75435, Control_c, 0, 64, 127
2, 75676, Note_on_c, 0, 64, 73
2, 75685, Note_on_c, 0, 66, 0
2, 75841, Note_on_c, 0, 64, 0
2, 75868, Note_on_c, 0, 50, 46
2, 75875, Note_on_c, 0, 66, 59
2, 75895, Control_c, 0, 64, 115
2, 75913, Control_c, 0, 64, 86
2, 75933, Control_c, 0, 64, 70
2, 75951, Control_c, 0, 64, 59
2, 75971, Control_c, 0, 64, 45
2, 75977, Note_on_c, 0, 48, 0
2, 75993, Control_c, 0, 64, 31
2, 76005, Note_on_c, 0, 45, 0
2, 76009, Control_c, 0, 64, 25
2, 76066, Control_c, 0, 64, 26
2, 76084, Control_c, 0, 64, 29
2, 76103, Control_c, 0, 64, 35
2, 76125, Control_c, 0, 64, 42
2, 76143, Control_c, 0, 64, 50
2, 76164, Control_c, 0, 64, 59
2, 76182, Control_c, 0, 64, 63
2, 76200, Control_c, 0, 64, 64
2, 76219, Control_c, 0, 64, 65
2, 76238, Control_c, 0, 64, 68
2, 76260, Control_c, 0, 64, 74
2, 76277, Control_c, 0, 64, 85
2, 76296, Control_c, 0, 64, 97
2, 76316, Control_c, 0, 64, 108
2, 76337, Control_c, 0, 64, 118
2, 76357, Control_c, 0, 64, 127
2, 76612, Note_on_c, 0, 74, 60
2, 76724, Note_on_c, 0, 72, 0
2, 76759, Control_c, 0, 64, 120
2, 76768, Note_on_c, 0, 38, 39
2, 76777, Control_c, 0, 64, 93
2, 76784, Note_on_c, 0, 69, 60
2, 76794, Note_on_c, 0, 74, 0
2, 76798, Control_c, 0, 64, 75
2, 76814, Control_c, 0, 64, 63
2, 76834, Control_c, 0, 64, 52
2, 76854, Control_c, 0, 64, 39
2, 76875, Control_c, 0, 64, 31
2, 76930, Control_c, 0, 64, 32
2, 76950, Control_c, 0, 64, 36
2, 76968, Control_c, 0, 64, 42
2, 76988, Control_c, 0, 64, 49
2, 77010, Control_c, 0, 64, 59
2, 77028, Control_c, 0, 64, 62
2, 77045, Control_c, 0, 64, 63
2, 77064, Control_c, 0, 64, 64
2, 77084, Control_c, 0, 64, 67
2, 77106, Control_c, 0, 64, 73
2, 77121, Control_c, 0, 64, 82
2, 77144, Control_c, 0, 64, 94
2, 77159, Control_c, 0, 64, 105
2, 77182, Control_c, 0, 64, 113
2, 77199, Control_c, 0, 64, 127
2, 77550, Note_on_c, 0, 69, 0
2, 77577, Note_on_c, 0, 72, 61
2, 77716, Control_c, 0, 64, 106
2, 77736, Control_c, 0, 64, 83
2, 77756, Note_on_c, 0, 72, 0
2, 77761, Control_c, 0, 64, 68
2, 77761, Note_on_c, 0, 43, 40
2, 77761, Note_on_c, 0, 70, 56
2, 77775, Control_c, 0, 64, 58
2, 77780, Note_on_c, 0, 38, 0
2, 77792, Control_c, 0, 64, 46
2, 77811, Control_c, 0, 64, 35
2, 77830, Control_c, 0, 64, 30
2, 77867, Control_c, 0, 64, 29
2, 77926, Control_c, 0, 64, 30
2, 77943, Control_c, 0, 64, 35
2, 77965, Control_c, 0, 64, 41
2, 77983, Control_c, 0, 64, 48
2, 78001, Control_c, 0, 64, 57
2, 78021, Control_c, 0, 64, 62
2, 78027, Note_on_c, 0, 66, 0
2, 78041, Control_c, 0, 64, 63
2, 78060, Control_c, 0, 64, 64
2, 78080, Control_c, 0, 64, 66
2, 78098, Control_c, 0, 64, 70
2, 78118, Control_c, 0, 64, 78
2, 78139, Control_c, 0, 64, 88
2, 78157, Control_c, 0, 64, 100
2, 78175, Control_c, 0, 64, 110
2, 78193, Control_c, 0, 64, 127
2, 78289, Note_on_c, 0, 50, 0
2, 78513, Note_on_c, 0, 67, 46
2, 78632, Note_on_c, 0, 67, 0
2, 78694, Note_on_c, 0, 62, 47
2, 78699, Control_c, 0, 64, 115
2, 78703, Note_on_c, 0, 46, 37
2, 78712, Control_c, 0, 64, 91
2, 78732, Control_c, 0, 64, 74
2, 78753, Control_c, 0, 64, 63
2, 78770, Control_c, 0, 64, 51
2, 78789, Control_c, 0, 64, 41
2, 78808, Control_c, 0, 64, 38
2, 78827, Control_c, 0, 64, 39
2, 78847, Control_c, 0, 64, 43
2, 78866, Control_c, 0, 64, 47
2, 78885, Control_c, 0, 64, 53
2, 78905, Control_c, 0, 64, 59
2, 78923, Control_c, 0, 64, 62
2, 78943, Control_c, 0, 64, 64
2, 78963, Control_c, 0, 64, 66
2, 78983, Control_c, 0, 64, 69
2, 79001, Control_c, 0, 64, 74
2, 79019, Control_c, 0, 64, 80
2, 79040, Control_c, 0, 64, 88
2, 79059, Control_c, 0, 64, 95
2, 79079, Control_c, 0, 64, 100
2, 79097, Control_c, 0, 64, 103
2, 79115, Control_c, 0, 64, 106
2, 79135, Control_c, 0, 64, 112
2, 79157, Control_c, 0, 64, 122
2, 79173, Control_c, 0, 64, 127
2, 79450, Note_on_c, 0, 62, 0
2, 79508, Note_on_c, 0, 43, 0
2, 79510, Note_on_c, 0, 65, 40
2, 79522, Control_c, 0, 64, 122
2, 79522, Note_on_c, 0, 50, 37
2, 79537, Control_c, 0, 64, 106
2, 79557, Control_c, 0, 64, 93
2, 79577, Control_c, 0, 64, 79
2, 79595, Control_c, 0, 64, 67
2, 79615, Control_c, 0, 64, 58
2, 79635, Control_c, 0, 64, 44
2, 79648, Note_on_c, 0, 46, 0
2, 79657, Control_c, 0, 64, 34
2, 79657, Note_on_c, 0, 65, 0
2, 79674, Control_c, 0, 64, 28
2, 79692, Control_c, 0, 64, 27
2, 79710, Control_c, 0, 64, 26
2, 79726, Note_on_c, 0, 63, 35
2, 79730, Control_c, 0, 64, 25
2, 79735, Note_on_c, 0, 50, 0
2, 79752, Note_on_c, 0, 55, 27
2, 79768, Control_c, 0, 64, 26
2, 79788, Control_c, 0, 64, 29
2, 79807, Control_c, 0, 64, 33
2, 79827, Control_c, 0, 64, 37
2, 79846, Control_c, 0, 64, 42
2, 79864, Control_c, 0, 64, 48
2, 79883, Control_c, 0, 64, 56
2, 79904, Control_c, 0, 64, 60
2, 79924, Control_c, 0, 64, 62
2, 79941, Control_c, 0, 64, 63
2, 79961, Control_c, 0, 64, 65
2, 79981, Control_c, 0, 64, 69
2, 79993, Note_on_c, 0, 70, 0
2, 80002, Control_c, 0, 64, 76
2, 80018, Control_c, 0, 64, 87
2, 80036, Control_c, 0, 64, 104
2, 80057, Control_c, 0, 64, 127
2, 80559, Note_on_c, 0, 70, 45
2, 80683, Note_on_c, 0, 63, 0
2, 80761, Note_on_c, 0, 75, 53
2, 80765, Note_on_c, 0, 58, 26
2, 80810, Note_on_c, 0, 70, 0
2, 81042, Note_on_c, 0, 75, 0
2, 81517, Note_on_c, 0, 79, 53
2, 81576, Note_on_c, 0, 79, 0
2, 81708, Note_on_c, 0, 68, 53
2, 81727, Control_c, 0, 64, 103
2, 81747, Control_c, 0, 64, 80
2, 81747, Note_on_c, 0, 60, 34
2, 81765, Control_c, 0, 64, 66
2, 81784, Control_c, 0, 64, 55
2, 81806, Control_c, 0, 64, 44
2, 81822, Control_c, 0, 64, 43
2, 81844, Control_c, 0, 64, 46
2, 81861, Control_c, 0, 64, 47
2, 81882, Control_c, 0, 64, 49
2, 81902, Control_c, 0, 64, 53
2, 81902, Note_on_c, 0, 58, 0
2, 81917, Control_c, 0, 64, 59
2, 81938, Control_c, 0, 64, 63
2, 81958, Control_c, 0, 64, 66
2, 81975, Control_c, 0, 64, 68
2, 81996, Control_c, 0, 64, 73
2, 82016, Control_c, 0, 64, 81
2, 82035, Control_c, 0, 64, 93
2, 82053, Control_c, 0, 64, 108
2, 82072, Control_c, 0, 64, 127
2, 82100, Note_on_c, 0, 55, 0
2, 82497, Note_on_c, 0, 53, 37
2, 82511, Note_on_c, 0, 62, 43
2, 82630, Control_c, 0, 64, 115
2, 82648, Control_c, 0, 64, 90
2, 82668, Control_c, 0, 64, 76
2, 82678, Note_on_c, 0, 62, 0
2, 82687, Control_c, 0, 64, 66
2, 82696, Note_on_c, 0, 63, 50
2, 82701, Note_on_c, 0, 48, 43
2, 82706, Control_c, 0, 64, 58
2, 82724, Control_c, 0, 64, 49
2, 82728, Note_on_c, 0, 53, 0
2, 82744, Control_c, 0, 64, 43
2, 82763, Control_c, 0, 64, 42
2, 82815, Note_on_c, 0, 60, 0
2, 82860, Control_c, 0, 64, 45
2, 82879, Control_c, 0, 64, 49
2, 82899, Control_c, 0, 64, 53
2, 82916, Control_c, 0, 64, 58
2, 82939, Control_c, 0, 64, 62
2, 82957, Control_c, 0, 64, 64
2, 82976, Control_c, 0, 64, 67
2, 82995, Control_c, 0, 64, 71
2, 83015, Control_c, 0, 64, 79
2, 83032, Control_c, 0, 64, 93
2, 83052, Control_c, 0, 64, 122
2, 83070, Control_c, 0, 64, 127
2, 83426, Note_on_c, 0, 63, 0
2, 83456, Note_on_c, 0, 60, 51
2, 83462, Note_on_c, 0, 51, 59
2, 83524, Note_on_c, 0, 48, 0
2, 83696, Note_on_c, 0, 50, 61
2, 83722, Note_on_c, 0, 60, 0
2, 83747, Note_on_c, 0, 65, 59
2, 83803, Note_on_c, 0, 51, 0
2, 83839, Note_on_c, 0, 65, 0
2, 83841, Control_c, 0, 64, 100
2, 83856, Note_on_c, 0, 63, 63
2, 83861, Control_c, 0, 64, 76
2, 83877, Control_c, 0, 64, 63
2, 83897, Control_c, 0, 64, 45
2, 83917, Control_c, 0, 64, 21
2, 83937, Note_on_c, 0, 63, 0
2, 83937, Note_on_c, 0, 65, 50
2, 83941, Control_c, 0, 64, 0
2, 84521, Note_on_c, 0, 46, 56
2, 84557, Note_on_c, 0, 50, 0
2, 84649, Note_on_c, 0, 46, 0
2, 84707, Note_on_c, 0, 41, 49
2, 84818, Control_c, 0, 64, 30
2, 84838, Control_c, 0, 64, 46
2, 84856, Control_c, 0, 64, 60
2, 84876, Control_c, 0, 64, 62
2, 84893, Control_c, 0, 64, 63
2, 84913, Control_c, 0, 64, 66
2, 84933, Control_c, 0, 64, 72
2, 84953, Control_c, 0, 64, 88
2, 84971, Control_c, 0, 64, 127
2, 85032, Note_on_c, 0, 65, 0
2, 85195, Note_on_c, 0, 65, 57
2, 85516, Note_on_c, 0, 41, 0
2, 85527, Note_on_c, 0, 44, 55
2, 85710, Note_on_c, 0, 43, 46
2, 85721, Control_c, 0, 64, 95
2, 85721, Note_on_c, 0, 58, 47
2, 85741, Control_c, 0, 64, 79
2, 85745, Note_on_c, 0, 44, 0
2, 85760, Control_c, 0, 64, 66
2, 85760, Note_on_c, 0, 65, 0
2, 85778, Control_c, 0, 64, 57
2, 85797, Control_c, 0, 64, 48
2, 85817, Control_c, 0, 64, 42
2, 85838, Control_c, 0, 64, 40
2, 85854, Control_c, 0, 64, 39
2, 85876, Control_c, 0, 64, 38
2, 85932, Control_c, 0, 64, 39
2, 85952, Control_c, 0, 64, 43
2, 85970, Control_c, 0, 64, 47
2, 85991, Control_c, 0, 64, 51
2, 86008, Control_c, 0, 64, 54
2, 86028, Control_c, 0, 64, 59
2, 86047, Control_c, 0, 64, 62
2, 86065, Control_c, 0, 64, 64
2, 86086, Control_c, 0, 64, 67
2, 86103, Control_c, 0, 64, 72
2, 86123, Control_c, 0, 64, 81
2, 86142, Control_c, 0, 64, 95
2, 86163, Control_c, 0, 64, 127
2, 86499, Note_on_c, 0, 62, 54
2, 86676, Note_on_c, 0, 65, 56
2, 86698, Note_on_c, 0, 46, 42
2, 86718, Control_c, 0, 64, 107
2, 86738, Control_c, 0, 64, 84
2, 86754, Note_on_c, 0, 62, 0
2, 86758, Control_c, 0, 64, 68
2, 86777, Control_c, 0, 64, 54
2, 86795, Control_c, 0, 64, 38
2, 86815, Control_c, 0, 64, 28
2, 86837, Control_c, 0, 64, 30
2, 86852, Control_c, 0, 64, 37
2, 86873, Control_c, 0, 64, 45
2, 86892, Control_c, 0, 64, 53
2, 86901, Note_on_c, 0, 68, 0
2, 86914, Control_c, 0, 64, 60
2, 86927, Control_c, 0, 64, 64
2, 86947, Control_c, 0, 64, 67
2, 86964, Control_c, 0, 64, 71
2, 86985, Control_c, 0, 64, 79
2, 87003, Control_c, 0, 64, 93
2, 87025, Control_c, 0, 64, 120
2, 87043, Control_c, 0, 64, 127
2, 87488, Note_on_c, 0, 68, 65
2, 87535, Note_on_c, 0, 65, 0
2, 87673, Note_on_c, 0, 67, 67
2, 87684, Note_on_c, 0, 51, 50
2, 87727, Note_on_c, 0, 68, 0
2, 87734, Control_c, 0, 64, 118
2, 87756, Control_c, 0, 64, 86
2, 87771, Control_c, 0, 64, 70
2, 87792, Control_c, 0, 64, 59
2, 87813, Control_c, 0, 64, 46
2, 87828, Control_c, 0, 64, 34
2, 87848, Control_c, 0, 64, 30
2, 87867, Control_c, 0, 64, 31
2, 87889, Control_c, 0, 64, 36
2, 87909, Control_c, 0, 64, 43
2, 87928, Control_c, 0, 64, 51
2, 87945, Control_c, 0, 64, 60
2, 87963, Control_c, 0, 64, 64
2, 87982, Control_c, 0, 64, 66
2, 88003, Control_c, 0, 64, 69
2, 88023, Control_c, 0, 64, 77
2, 88039, Control_c, 0, 64, 88
2, 88060, Control_c, 0, 64, 102
2, 88080, Control_c, 0, 64, 127
2, 88109, Note_on_c, 0, 58, 0
2, 88432, Note_on_c, 0, 58, 51
2, 88618, Note_on_c, 0, 55, 55
2, 88618, Note_on_c, 0, 63, 61
2, 88658, Control_c, 0, 64, 122
2, 88673, Control_c, 0, 64, 82
2, 88694, Control_c, 0, 64, 64
2, 88712, Note_on_c, 0, 58, 0
2, 88713, Control_c, 0, 64, 47
2, 88732, Control_c, 0, 64, 37
2, 88749, Control_c, 0, 64, 43
2, 88770, Control_c, 0, 64, 50
2, 88790, Control_c, 0, 64, 59
2, 88808, Control_c, 0, 64, 64
2, 88828, Control_c, 0, 64, 68
2, 88846, Control_c, 0, 64, 78
2, 88866, Control_c, 0, 64, 94
2, 88887, Control_c, 0, 64, 127
2, 88889, Note_on_c, 0, 67, 0
2, 89011, Note_on_c, 0, 43, 0
2, 89031, Note_on_c, 0, 51, 0
2, 89042, Note_on_c, 0, 46, 0
2, 89046, Note_on_c, 0, 67, 65
2, 89377, Note_on_c, 0, 67, 0
2, 89515, Note_on_c, 0, 45, 36
2, 89515, Note_on_c, 0, 48, 41
2, 89522, Note_on_c, 0, 65, 63
2, 89672, Control_c, 0, 64, 116
2, 89692, Control_c, 0, 64, 92
2, 89707, Note_on_c, 0, 55, 0
2, 89711, Control_c, 0, 64, 75
2, 89729, Control_c, 0, 64, 64
2, 89749, Control_c, 0, 64, 53
2, 89769, Control_c, 0, 64, 41
2, 89787, Control_c, 0, 64, 32
2, 89807, Control_c, 0, 64, 30
2, 89848, Control_c, 0, 64, 33
2, 89864, Control_c, 0, 64, 39
2, 89885, Control_c, 0, 64, 48
2, 89902, Control_c, 0, 64, 59
2, 89922, Control_c, 0, 64, 64
2, 89942, Control_c, 0, 64, 67
2, 89960, Control_c, 0, 64, 70
2, 89980, Control_c, 0, 64, 74
2, 90000, Note_on_c, 0, 63, 0
2, 90004, Control_c, 0, 64, 81
2, 90019, Control_c, 0, 64, 88
2, 90037, Control_c, 0, 64, 91
2, 90055, Control_c, 0, 64, 93
2, 90239, Note_on_c, 0, 63, 58
2, 90345, Control_c, 0, 64, 91
2, 90364, Control_c, 0, 64, 86
2, 90377, Note_on_c, 0, 63, 0
2, 90386, Control_c, 0, 64, 79
2, 90402, Control_c, 0, 64, 70
2, 90411, Note_on_c, 0, 62, 54
2, 90421, Control_c, 0, 64, 62
2, 90441, Control_c, 0, 64, 52
2, 90461, Control_c, 0, 64, 39
2, 90480, Control_c, 0, 64, 31
2, 90498, Control_c, 0, 64, 29
2, 90555, Control_c, 0, 64, 30
2, 90575, Control_c, 0, 64, 34
2, 90595, Control_c, 0, 64, 40
2, 90612, Control_c, 0, 64, 48
2, 90632, Control_c, 0, 64, 59
2, 90655, Control_c, 0, 64, 63
2, 90672, Control_c, 0, 64, 64
2, 90690, Control_c, 0, 64, 65
2, 90708, Control_c, 0, 64, 67
2, 90729, Control_c, 0, 64, 73
2, 90749, Control_c, 0, 64, 80
2, 90767, Control_c, 0, 64, 89
2, 90788, Control_c, 0, 64, 94
2, 90806, Control_c, 0, 64, 97
2, 90824, Control_c, 0, 64, 102
2, 90845, Control_c, 0, 64, 109
2, 90862, Control_c, 0, 64, 127
2, 91156, Note_on_c, 0, 62, 0
2, 91202, Note_on_c, 0, 60, 43
2, 91325, Note_on_c, 0, 60, 0
2, 91344, Control_c, 0, 64, 110
2, 91365, Control_c, 0, 64, 97
2, 91369, Note_on_c, 0, 47, 37
2, 91369, Note_on_c, 0, 62, 39
2, 91381, Control_c, 0, 64, 83
2, 91400, Control_c, 0, 64, 71
2, 91404, Note_on_c, 0, 48, 0
2, 91411, Note_on_c, 0, 55, 15
2, 91419, Control_c, 0, 64, 62
2, 91439, Control_c, 0, 64, 52
2, 91457, Note_on_c, 0, 45, 0
2, 91461, Control_c, 0, 64, 42
2, 91479, Control_c, 0, 64, 37
2, 91495, Control_c, 0, 64, 36
2, 91553, Control_c, 0, 64, 35
2, 91615, Control_c, 0, 64, 36
2, 91634, Control_c, 0, 64, 39
2, 91649, Control_c, 0, 64, 44
2, 91669, Control_c, 0, 64, 50
2, 91690, Control_c, 0, 64, 58
2, 91710, Control_c, 0, 64, 62
2, 91726, Control_c, 0, 64, 64
2, 91748, Control_c, 0, 64, 66
2, 91767, Control_c, 0, 64, 70
2, 91787, Control_c, 0, 64, 77
2, 91804, Control_c, 0, 64, 87
2, 91823, Control_c, 0, 64, 97
2, 91834, Note_on_c, 0, 65, 0
2, 91841, Control_c, 0, 64, 103
2, 91861, Control_c, 0, 64, 108
2, 91882, Control_c, 0, 64, 127
2, 92120, Note_on_c, 0, 65, 49
2, 92230, Note_on_c, 0, 65, 0
2, 92246, Control_c, 0, 64, 122
2, 92263, Control_c, 0, 64, 103
2, 92283, Control_c, 0, 64, 87
2, 92292, Note_on_c, 0, 67, 48
2, 92305, Control_c, 0, 64, 74
2, 92321, Control_c, 0, 64, 64
2, 92341, Control_c, 0, 64, 55
2, 92361, Control_c, 0, 64, 44
2, 92379, Control_c, 0, 64, 38
2, 92401, Control_c, 0, 64, 37
2, 92419, Control_c, 0, 64, 38
2, 92437, Control_c, 0, 64, 40
2, 92455, Control_c, 0, 64, 44
2, 92476, Control_c, 0, 64, 49
2, 92494, Control_c, 0, 64, 57
2, 92514, Control_c, 0, 64, 62
2, 92533, Control_c, 0, 64, 64
2, 92553, Control_c, 0, 64, 65
2, 92573, Control_c, 0, 64, 68
2, 92591, Control_c, 0, 64, 72
2, 92612, Control_c, 0, 64, 78
2, 92632, Control_c, 0, 64, 86
2, 92648, Control_c, 0, 64, 94
2, 92670, Control_c, 0, 64, 101
2, 92688, Control_c, 0, 64, 104
2, 92707, Control_c, 0, 64, 110
2, 92711, Note_on_c, 0, 62, 0
2, 92725, Control_c, 0, 64, 127
2, 93086, Note_on_c, 0, 62, 45
2, 93275, Note_on_c, 0, 48, 29
2, 93282, Note_on_c, 0, 67, 0
2, 93295, Note_on_c, 0, 63, 46
2, 93304, Control_c, 0, 64, 107
2, 93319, Control_c, 0, 64, 90
2, 93342, Control_c, 0, 64, 75
2, 93360, Control_c, 0, 64, 65
2, 93379, Control_c, 0, 64, 56
2, 93397, Control_c, 0, 64, 46
2, 93415, Control_c, 0, 64, 42
2, 93455, Note_on_c, 0, 47, 0
2, 93513, Control_c, 0, 64, 43
2, 93535, Control_c, 0, 64, 46
2, 93550, Control_c, 0, 64, 50
2, 93571, Control_c, 0, 64, 54
2, 93590, Control_c, 0, 64, 58
2, 93610, Control_c, 0, 64, 61
2, 93626, Control_c, 0, 64, 63
2, 93649, Control_c, 0, 64, 64
2, 93668, Control_c, 0, 64, 67
2, 93686, Control_c, 0, 64, 70
2, 93704, Control_c, 0, 64, 74
2, 93724, Control_c, 0, 64, 78
2, 93745, Control_c, 0, 64, 83
2, 93763, Control_c, 0, 64, 89
2, 93782, Control_c, 0, 64, 96
2, 93804, Control_c, 0, 64, 103
2, 93821, Control_c, 0, 64, 107
2, 93838, Control_c, 0, 64, 115
2, 93858, Control_c, 0, 64, 127
2, 93974, Note_on_c, 0, 62, 0
2, 94025, Note_on_c, 0, 59, 43
2, 94069, Control_c, 0, 64, 122
2, 94089, Control_c, 0, 64, 106
2, 94107, Control_c, 0, 64, 93
2, 94128, Control_c, 0, 64, 78
2, 94147, Control_c, 0, 64, 65
2, 94154, Note_on_c, 0, 59, 0
2, 94170, Control_c, 0, 64, 55
2, 94184, Control_c, 0, 64, 42
2, 94193, Note_on_c, 0, 60, 43
2, 94203, Control_c, 0, 64, 32
2, 94262, Control_c, 0, 64, 34
2, 94280, Control_c, 0, 64, 39
2, 94300, Control_c, 0, 64, 45
2, 94320, Control_c, 0, 64, 53
2, 94341, Control_c, 0, 64, 60
2, 94357, Control_c, 0, 64, 63
2, 94377, Control_c, 0, 64, 64
2, 94385, Note_on_c, 0, 55, 0
2, 94395, Control_c, 0, 64, 66
2, 94417, Control_c, 0, 64, 69
2, 94433, Control_c, 0, 64, 75
2, 94453, Control_c, 0, 64, 82
2, 94474, Control_c, 0, 64, 90
2, 94474, Note_on_c, 0, 60, 0
2, 94479, Note_on_c, 0, 60, 3
2, 94493, Control_c, 0, 64, 97
2, 94513, Control_c, 0, 64, 102
2, 94529, Control_c, 0, 64, 107
2, 94552, Control_c, 0, 64, 116
2, 94571, Control_c, 0, 64, 127
2, 94624, Note_on_c, 0, 55, 35
2, 94650, Note_on_c, 0, 60, 0
2, 94761, Note_on_c, 0, 48, 0
2, 95092, Note_on_c, 0, 51, 39
2, 95109, Control_c, 0, 64, 98
2, 95125, Control_c, 0, 64, 82
2, 95144, Control_c, 0, 64, 70
2, 95165, Control_c, 0, 64, 63
2, 95182, Control_c, 0, 64, 56
2, 95203, Control_c, 0, 64, 53
2, 95240, Control_c, 0, 64, 52
2, 95258, Control_c, 0, 64, 51
2, 95278, Control_c, 0, 64, 50
2, 95296, Control_c, 0, 64, 49
2, 95306, Note_on_c, 0, 55, 0
2, 95319, Control_c, 0, 64, 48
2, 95356, Control_c, 0, 64, 47
2, 95413, Control_c, 0, 64, 46
2, 95701, Control_c, 0, 64, 47
2, 95780, Control_c, 0, 64, 48
2, 95800, Control_c, 0, 64, 49
2, 95841, Note_on_c, 0, 75, 45
2, 95845, Note_on_c, 0, 55, 29
2, 95874, Control_c, 0, 64, 50
2, 95932, Control_c, 0, 64, 51
2, 95989, Control_c, 0, 64, 52
2, 96009, Control_c, 0, 64, 53
2, 96018, Note_on_c, 0, 69, 51
2, 96030, Control_c, 0, 64, 54
2, 96042, Note_on_c, 0, 48, 30
2, 96065, Note_on_c, 0, 75, 0
2, 96070, Control_c, 0, 64, 56
2, 96085, Control_c, 0, 64, 57
2, 96106, Control_c, 0, 64, 59
2, 96124, Control_c, 0, 64, 62
2, 96131, Note_on_c, 0, 51, 0
2, 96142, Control_c, 0, 64, 64
2, 96162, Control_c, 0, 64, 66
2, 96180, Control_c, 0, 64, 70
2, 96199, Control_c, 0, 64, 78
2, 96212, Note_on_c, 0, 63, 0
2, 96221, Control_c, 0, 64, 93
2, 96238, Control_c, 0, 64, 127
2, 96391, Note_on_c, 0, 69, 0
2, 96424, Note_on_c, 0, 55, 0
2, 96769, Note_on_c, 0, 72, 58
2, 96773, Note_on_c, 0, 51, 44
2, 96937, Note_on_c, 0, 66, 59
2, 96961, Note_on_c, 0, 50, 45
2, 96970, Control_c, 0, 64, 97
2, 96987, Control_c, 0, 64, 75
2, 97006, Control_c, 0, 64, 63
2, 97010, Note_on_c, 0, 72, 0
2, 97028, Control_c, 0, 64, 51
2, 97028, Note_on_c, 0, 51, 0
2, 97048, Control_c, 0, 64, 40
2, 97064, Control_c, 0, 64, 36
2, 97121, Control_c, 0, 64, 39
2, 97140, Control_c, 0, 64, 45
2, 97161, Control_c, 0, 64, 52
2, 97179, Control_c, 0, 64, 60
2, 97199, Control_c, 0, 64, 64
2, 97219, Control_c, 0, 64, 66
2, 97238, Control_c, 0, 64, 71
2, 97257, Control_c, 0, 64, 77
2, 97277, Control_c, 0, 64, 87
2, 97294, Control_c, 0, 64, 98
2, 97314, Control_c, 0, 64, 112
2, 97335, Control_c, 0, 64, 127
2, 97683, Note_on_c, 0, 54, 53
2, 97692, Note_on_c, 0, 62, 64
2, 97712, Note_on_c, 0, 66, 0
2, 97864, Note_on_c, 0, 66, 70
2, 97871, Note_on_c, 0, 57, 60
2, 97891, Control_c, 0, 64, 113
2, 97909, Control_c, 0, 64, 79
2, 97920, Note_on_c, 0, 54, 0
2, 97928, Control_c, 0, 64, 61
2, 97948, Control_c, 0, 64, 45
2, 97967, Control_c, 0, 64, 27
2, 97989, Control_c, 0, 64, 26
2, 97993, Note_on_c, 0, 50, 0
2, 98004, Control_c, 0, 64, 33
2, 98023, Control_c, 0, 64, 42
2, 98045, Control_c, 0, 64, 53
2, 98065, Control_c, 0, 64, 64
2, 98083, Control_c, 0, 64, 68
2, 98104, Control_c, 0, 64, 74
2, 98104, Note_on_c, 0, 48, 0
2, 98122, Control_c, 0, 64, 83
2, 98140, Control_c, 0, 64, 101
2, 98158, Control_c, 0, 64, 127
2, 98214, Note_on_c, 0, 62, 0
2, 98277, Note_on_c, 0, 48, 59
2, 98397, Note_on_c, 0, 48, 0
2, 98584, Note_on_c, 0, 69, 70
2, 98762, Note_on_c, 0, 74, 71
2, 98766, Note_on_c, 0, 46, 52
2, 98802, Note_on_c, 0, 66, 0
2, 98830, Control_c, 0, 64, 109
2, 98850, Control_c, 0, 64, 84
2, 98871, Control_c, 0, 64, 68
2, 98889, Control_c, 0, 64, 55
2, 98909, Control_c, 0, 64, 38
2, 98926, Control_c, 0, 64, 19
2, 98934, Note_on_c, 0, 57, 0
2, 98948, Control_c, 0, 64, 14
2, 98964, Note_on_c, 0, 69, 0
2, 99004, Control_c, 0, 64, 15
2, 99023, Control_c, 0, 64, 24
2, 99043, Control_c, 0, 64, 34
2, 99061, Control_c, 0, 64, 44
2, 99079, Control_c, 0, 64, 56
2, 99099, Control_c, 0, 64, 62
2, 99120, Control_c, 0, 64, 64
2, 99137, Control_c, 0, 64, 65
2, 99157, Control_c, 0, 64, 69
2, 99177, Control_c, 0, 64, 77
2, 99195, Control_c, 0, 64, 90
2, 99215, Control_c, 0, 64, 109
2, 99232, Control_c, 0, 64, 127
2, 99480, Note_on_c, 0, 69, 63
2, 99496, Note_on_c, 0, 54, 55
2, 99652, Note_on_c, 0, 70, 72
2, 99672, Note_on_c, 0, 55, 54
2, 99696, Control_c, 0, 64, 96
2, 99714, Control_c, 0, 64, 70
2, 99725, Note_on_c, 0, 54, 0
2, 99734, Control_c, 0, 64, 57
2, 99751, Control_c, 0, 64, 38
2, 99763, Note_on_c, 0, 69, 0
2, 99772, Control_c, 0, 64, 23
2, 99791, Control_c, 0, 64, 26
2, 99810, Control_c, 0, 64, 32
2, 99829, Control_c, 0, 64, 40
2, 99849, Control_c, 0, 64, 51
2, 99868, Control_c, 0, 64, 61
2, 99885, Control_c, 0, 64, 64
2, 99905, Control_c, 0, 64, 66
2, 99925, Control_c, 0, 64, 71
2, 99945, Control_c, 0, 64, 80
2, 99964, Control_c, 0, 64, 98
2, 99983, Control_c, 0, 64, 127
2, 99987, Note_on_c, 0, 46, 0
2, 100324, Note_on_c, 0, 55, 0
2, 100365, Note_on_c, 0, 66, 68
2, 100372, Note_on_c, 0, 57, 65
2, 100425, Note_on_c, 0, 70, 0
2, 100530, Note_on_c, 0, 67, 76
2, 100548, Note_on_c, 0, 58, 67
2, 100583, Note_on_c, 0, 66, 0
2, 100642, Note_on_c, 0, 57, 0
2, 100656, Control_c, 0, 64, 90
2, 100674, Control_c, 0, 64, 64
2, 100694, Control_c, 0, 64, 47
2, 100709, Control_c, 0, 64, 16
2, 100729, Control_c, 0, 64, 0
2, 100748, Control_c, 0, 64, 13
2, 100767, Control_c, 0, 64, 26
2, 100787, Control_c, 0, 64, 37
2, 100807, Control_c, 0, 64, 51
2, 100824, Control_c, 0, 64, 63
2, 100843, Control_c, 0, 64, 66
2, 100863, Control_c, 0, 64, 69
2, 100885, Control_c, 0, 64, 75
2, 100902, Control_c, 0, 64, 91
2, 100921, Control_c, 0, 64, 127
2, 101191, Note_on_c, 0, 46, 63
2, 101373, Note_on_c, 0, 48, 76
2, 101415, Control_c, 0, 64, 84
2, 101436, Control_c, 0, 64, 64
2, 101456, Control_c, 0, 64, 46
2, 101474, Control_c, 0, 64, 18
2, 101491, Control_c, 0, 64, 14
2, 101514, Control_c, 0, 64, 22
2, 101534, Control_c, 0, 64, 33
2, 101538, Note_on_c, 0, 46, 0
2, 101552, Control_c, 0, 64, 44
2, 101571, Control_c, 0, 64, 56
2, 101590, Control_c, 0, 64, 64
2, 101609, Control_c, 0, 64, 67
2, 101627, Control_c, 0, 64, 74
2, 101648, Control_c, 0, 64, 93
2, 101666, Control_c, 0, 64, 127
2, 101715, Note_on_c, 0, 48, 0
2, 102109, Note_on_c, 0, 50, 71
2, 102277, Note_on_c, 0, 51, 83
2, 102321, Note_on_c, 0, 50, 0
2, 102356, Control_c, 0, 64, 111
2, 102377, Control_c, 0, 64, 71
2, 102396, Control_c, 0, 64, 51
2, 102414, Control_c, 0, 64, 0
2, 102514, Control_c, 0, 64, 25
2, 102529, Control_c, 0, 64, 48
2, 102549, Control_c, 0, 64, 62
2, 102568, Control_c, 0, 64, 66
2, 102587, Control_c, 0, 64, 70
2, 102608, Control_c, 0, 64, 82
2, 102628, Control_c, 0, 64, 127
2, 102633, Note_on_c, 0, 74, 0
2, 102647, Note_on_c, 0, 58, 0
2, 103045, Note_on_c, 0, 79, 74
2, 103085, Note_on_c, 0, 58, 59
2, 103217, Note_on_c, 0, 72, 85
2, 103226, Note_on_c, 0, 57, 74
2, 103301, Note_on_c, 0, 79, 0
2, 103337, Control_c, 0, 64, 102
2, 103346, Note_on_c, 0, 58, 0
2, 103359, Control_c, 0, 64, 72
2, 103374, Control_c, 0, 64, 57
2, 103395, Control_c, 0, 64, 39
2, 103412, Control_c, 0, 64, 31
2, 103435, Control_c, 0, 64, 39
2, 103450, Control_c, 0, 64, 46
2, 103470, Control_c, 0, 64, 56
2, 103490, Control_c, 0, 64, 63
2, 103510, Control_c, 0, 64, 66
2, 103528, Control_c, 0, 64, 71
2, 103549, Control_c, 0, 64, 80
2, 103566, Control_c, 0, 64, 102
2, 103586, Control_c, 0, 64, 127
2, 103954, Note_on_c, 0, 72, 0
2, 103976, Note_on_c, 0, 75, 73
2, 103987, Note_on_c, 0, 58, 74
2, 104016, Note_on_c, 0, 67, 0
2, 104054, Note_on_c, 0, 57, 0
2, 104148, Note_on_c, 0, 69, 78
2, 104155, Note_on_c, 0, 65, 72
2, 104163, Note_on_c, 0, 60, 72
2, 104241, Note_on_c, 0, 58, 0
2, 104241, Note_on_c, 0, 75, 0
2, 104265, Control_c, 0, 64, 93
2, 104283, Control_c, 0, 64, 71
2, 104303, Control_c, 0, 64, 58
2, 104321, Control_c, 0, 64, 37
2, 104341, Control_c, 0, 64, 0
2, 104397, Control_c, 0, 64, 18
2, 104416, Control_c, 0, 64, 32
2, 104436, Control_c, 0, 64, 49
2, 104457, Control_c, 0, 64, 62
2, 104473, Control_c, 0, 64, 66
2, 104496, Control_c, 0, 64, 70
2, 104514, Control_c, 0, 64, 78
2, 104534, Control_c, 0, 64, 102
2, 104554, Control_c, 0, 64, 127
2, 104578, Note_on_c, 0, 65, 0
2, 104881, Note_on_c, 0, 65, 77
2, 104887, Note_on_c, 0, 57, 65
2, 104911, Note_on_c, 0, 69, 0
2, 105006, Note_on_c, 0, 60, 0
2, 105059, Note_on_c, 0, 69, 76
2, 105070, Note_on_c, 0, 53, 71
2, 105150, Note_on_c, 0, 57, 0
2, 105166, Control_c, 0, 64, 79
2, 105188, Control_c, 0, 64, 62
2, 105190, Note_on_c, 0, 65, 0
2, 105204, Control_c, 0, 64, 44
2, 105226, Control_c, 0, 64, 20
2, 105243, Control_c, 0, 64, 28
2, 105263, Control_c, 0, 64, 37
2, 105280, Control_c, 0, 64, 48
2, 105301, Control_c, 0, 64, 59
2, 105321, Control_c, 0, 64, 65
2, 105340, Control_c, 0, 64, 67
2, 105358, Control_c, 0, 64, 70
2, 105376, Control_c, 0, 64, 75
2, 105397, Control_c, 0, 64, 83
2, 105418, Control_c, 0, 64, 93
2, 105436, Control_c, 0, 64, 104
2, 105455, Control_c, 0, 64, 127
2, 105791, Note_on_c, 0, 72, 82
2, 105797, Note_on_c, 0, 57, 70
2, 105934, Note_on_c, 0, 69, 0
2, 105998, Note_on_c, 0, 62, 76
2, 106002, Note_on_c, 0, 77, 86
2, 106054, Note_on_c, 0, 76, 31
2, 106058, Note_on_c, 0, 76, 0
2, 106089, Control_c, 0, 64, 91
2, 106107, Control_c, 0, 64, 72
2, 106112, Note_on_c, 0, 72, 0
2, 106123, Note_on_c, 0, 51, 0
2, 106128, Control_c, 0, 64, 60
2, 106145, Control_c, 0, 64, 44
2, 106165, Control_c, 0, 64, 23
2, 106185, Control_c, 0, 64, 0
2, 106195, Note_on_c, 0, 57, 0
2, 106222, Note_on_c, 0, 53, 0
2, 106300, Control_c, 0, 64, 11
2, 106318, Control_c, 0, 64, 30
2, 106338, Control_c, 0, 64, 46
2, 106358, Control_c, 0, 64, 60
2, 106375, Control_c, 0, 64, 66
2, 106399, Control_c, 0, 64, 70
2, 106414, Control_c, 0, 64, 75
2, 106432, Control_c, 0, 64, 85
2, 106452, Control_c, 0, 64, 105
2, 106473, Control_c, 0, 64, 127
2, 106764, Note_on_c, 0, 50, 63
2, 106769, Note_on_c, 0, 65, 77
2, 106939, Note_on_c, 0, 65, 0
2, 106943, Note_on_c, 0, 51, 80
2, 106943, Note_on_c, 0, 67, 84
2, 106991, Control_c, 0, 64, 118
2, 107011, Control_c, 0, 64, 75
2, 107029, Control_c, 0, 64, 59
2, 107037, Note_on_c, 0, 50, 0
2, 107048, Control_c, 0, 64, 36
2, 107066, Control_c, 0, 64, 0
2, 107144, Control_c, 0, 64, 23
2, 107164, Control_c, 0, 64, 39
2, 107184, Control_c, 0, 64, 56
2, 107204, Control_c, 0, 64, 63
2, 107220, Control_c, 0, 64, 65
2, 107240, Control_c, 0, 64, 68
2, 107259, Control_c, 0, 64, 74
2, 107279, Control_c, 0, 64, 87
2, 107297, Control_c, 0, 64, 127
2, 107417, Note_on_c, 0, 51, 0
2, 107439, Note_on_c, 0, 67, 0
2, 107797, Note_on_c, 0, 69, 76
2, 107809, Note_on_c, 0, 53, 69
2, 108002, Note_on_c, 0, 70, 85
2, 108013, Note_on_c, 0, 55, 68
2, 108085, Note_on_c, 0, 69, 0
2, 108104, Control_c, 0, 64, 90
2, 108109, Note_on_c, 0, 53, 0
2, 108123, Control_c, 0, 64, 69
2, 108144, Control_c, 0, 64, 54
2, 108163, Control_c, 0, 64, 25
2, 108181, Control_c, 0, 64, 0
2, 108353, Control_c, 0, 64, 27
2, 108371, Control_c, 0, 64, 48
2, 108391, Control_c, 0, 64, 62
2, 108409, Control_c, 0, 64, 64
2, 108429, Control_c, 0, 64, 65
2, 108451, Control_c, 0, 64, 67
2, 108469, Control_c, 0, 64, 75
2, 108487, Control_c, 0, 64, 93
2, 108508, Control_c, 0, 64, 127
2, 108620, Note_on_c, 0, 77, 0
2, 108983, Note_on_c, 0, 82, 72
2, 109177, Note_on_c, 0, 79, 81
2, 109236, Control_c, 0, 64, 97
2, 109255, Control_c, 0, 64, 73
2, 109275, Control_c, 0, 64, 60
2, 109295, Control_c, 0, 64, 45
2, 109313, Control_c, 0, 64, 32
2, 109352, Control_c, 0, 64, 34
2, 109373, Control_c, 0, 64, 37
2, 109394, Control_c, 0, 64, 41
2, 109409, Control_c, 0, 64, 47
2, 109428, Control_c, 0, 64, 56
2, 109428, Note_on_c, 0, 82, 0
2, 109447, Control_c, 0, 64, 62
2, 109467, Control_c, 0, 64, 64
2, 109487, Control_c, 0, 64, 66
2, 109505, Control_c, 0, 64, 70
2, 109525, Control_c, 0, 64, 79
2, 109545, Control_c, 0, 64, 99
2, 109562, Control_c, 0, 64, 127
2, 109973, Note_on_c, 0, 74, 73
2, 110002, Note_on_c, 0, 79, 0
2, 110050, Note_on_c, 0, 74, 0
2, 110262, Note_on_c, 0, 76, 71
2, 110338, Note_on_c, 0, 76, 0
2, 110347, Note_on_c, 0, 77, 79
2, 110409, Control_c, 0, 64, 102
2, 110414, Note_on_c, 0, 76, 75
2, 110427, Control_c, 0, 64, 73
2, 110447, Control_c, 0, 64, 55
2, 110454, Note_on_c, 0, 77, 0
2, 110465, Control_c, 0, 64, 31
2, 110484, Control_c, 0, 64, 0
2, 110717, Control_c, 0, 64, 12
2, 110736, Control_c, 0, 64, 36
2, 110754, Control_c, 0, 64, 53
2, 110774, Control_c, 0, 64, 62
2, 110792, Control_c, 0, 64, 65
2, 110811, Control_c, 0, 64, 67
2, 110830, Control_c, 0, 64, 72
2, 110849, Control_c, 0, 64, 85
2, 110871, Control_c, 0, 64, 127
2, 111149, Note_on_c, 0, 62, 0
2, 111165, Note_on_c, 0, 61, 61
2, 111234, Control_c, 0, 64, 116
2, 111253, Control_c, 0, 64, 85
2, 111273, Control_c, 0, 64, 65
2, 111292, Control_c, 0, 64, 51
2, 111301, Note_on_c, 0, 61, 0
2, 111312, Control_c, 0, 64, 27
2, 111321, Note_on_c, 0, 60, 65
2, 111330, Control_c, 0, 64, 0
2, 111387, Control_c, 0, 64, 20
2, 111405, Control_c, 0, 64, 35
2, 111426, Control_c, 0, 64, 52
2, 111445, Control_c, 0, 64, 64
2, 111463, Control_c, 0, 64, 70
2, 111484, Control_c, 0, 64, 80
2, 111503, Control_c, 0, 64, 97
2, 111523, Control_c, 0, 64, 127
2, 111523, Note_on_c, 0, 76, 0
2, 111773, Note_on_c, 0, 76, 76
2, 112080, Note_on_c, 0, 60, 0
2, 112148, Note_on_c, 0, 58, 45
2, 112299, Note_on_c, 0, 53, 46
2, 112309, Note_on_c, 0, 77, 76
2, 112333, Note_on_c, 0, 60, 50
2, 112366, Control_c, 0, 64, 118
2, 112384, Control_c, 0, 64, 87
2, 112405, Control_c, 0, 64, 71
2, 112424, Control_c, 0, 64, 61
2, 112443, Control_c, 0, 64, 50
2, 112457, Note_on_c, 0, 55, 0
2, 112457, Note_on_c, 0, 76, 0
2, 112461, Control_c, 0, 64, 41
2, 112473, Note_on_c, 0, 58, 0
2, 112482, Control_c, 0, 64, 36
2, 112500, Control_c, 0, 64, 33
2, 112519, Control_c, 0, 64, 31
2, 112538, Control_c, 0, 64, 29
2, 112578, Control_c, 0, 64, 31
2, 112596, Control_c, 0, 64, 36
2, 112615, Control_c, 0, 64, 42
2, 112636, Control_c, 0, 64, 52
2, 112654, Control_c, 0, 64, 62
2, 112674, Control_c, 0, 64, 65
2, 112692, Control_c, 0, 64, 67
2, 112712, Control_c, 0, 64, 72
2, 112730, Control_c, 0, 64, 81
2, 112750, Control_c, 0, 64, 96
2, 112768, Control_c, 0, 64, 120
2, 112789, Control_c, 0, 64, 127
2, 112832, Note_on_c, 0, 70, 0
2, 113067, Note_on_c, 0, 70, 67
2, 113232, Note_on_c, 0, 68, 70
2, 113264, Note_on_c, 0, 70, 0
2, 113288, Control_c, 0, 64, 109
2, 113308, Control_c, 0, 64, 84
2, 113328, Control_c, 0, 64, 68
2, 113347, Control_c, 0, 64, 55
2, 113367, Control_c, 0, 64, 42
2, 113384, Control_c, 0, 64, 35
2, 113422, Control_c, 0, 64, 36
2, 113441, Control_c, 0, 64, 39
2, 113460, Control_c, 0, 64, 45
2, 113483, Control_c, 0, 64, 56
2, 113499, Control_c, 0, 64, 63
2, 113519, Control_c, 0, 64, 66
2, 113539, Control_c, 0, 64, 69
2, 113557, Control_c, 0, 64, 74
2, 113574, Control_c, 0, 64, 81
2, 113596, Control_c, 0, 64, 90
2, 113616, Control_c, 0, 64, 98
2, 113634, Control_c, 0, 64, 103
2, 113652, Control_c, 0, 64, 109
2, 113671, Control_c, 0, 64, 127
2, 113983, Note_on_c, 0, 67, 53
2, 113985, Note_on_c, 0, 68, 0
2, 114074, Control_c, 0, 64, 122
2, 114092, Control_c, 0, 64, 88
2, 114114, Control_c, 0, 64, 70
2, 114127, Note_on_c, 0, 67, 0
2, 114134, Control_c, 0, 64, 58
2, 114152, Control_c, 0, 64, 43
2, 114152, Note_on_c, 0, 68, 56
2, 114175, Control_c, 0, 64, 25
2, 114208, Control_c, 0, 64, 27
2, 114229, Control_c, 0, 64, 31
2, 114247, Control_c, 0, 64, 36
2, 114266, Control_c, 0, 64, 42
2, 114286, Control_c, 0, 64, 53
2, 114306, Control_c, 0, 64, 61
2, 114324, Control_c, 0, 64, 63
2, 114361, Control_c, 0, 64, 65
2, 114382, Control_c, 0, 64, 67
2, 114400, Control_c, 0, 64, 72
2, 114421, Control_c, 0, 64, 78
2, 114440, Control_c, 0, 64, 87
2, 114459, Control_c, 0, 64, 97
2, 114479, Control_c, 0, 64, 113
2, 114498, Control_c, 0, 64, 127
2, 114596, Note_on_c, 0, 60, 0
2, 114929, Note_on_c, 0, 75, 61
2, 114936, Note_on_c, 0, 60, 62
2, 115095, Note_on_c, 0, 77, 0
2, 115108, Note_on_c, 0, 74, 65
2, 115112, Note_on_c, 0, 65, 72
2, 115208, Control_c, 0, 64, 120
2, 115227, Control_c, 0, 64, 86
2, 115235, Note_on_c, 0, 75, 0
2, 115250, Control_c, 0, 64, 67
2, 115265, Control_c, 0, 64, 50
2, 115285, Control_c, 0, 64, 24
2, 115285, Note_on_c, 0, 60, 0
2, 115305, Control_c, 0, 64, 0
2, 115383, Control_c, 0, 64, 21
2, 115398, Control_c, 0, 64, 35
2, 115419, Control_c, 0, 64, 54
2, 115441, Control_c, 0, 64, 63
2, 115458, Control_c, 0, 64, 65
2, 115477, Control_c, 0, 64, 67
2, 115495, Control_c, 0, 64, 71
2, 115515, Control_c, 0, 64, 79
2, 115533, Control_c, 0, 64, 95
2, 115553, Control_c, 0, 64, 127
2, 115724, Note_on_c, 0, 68, 0
2, 115918, Note_on_c, 0, 65, 0
2, 115926, Note_on_c, 0, 74, 0
2, 115937, Note_on_c, 0, 77, 65
2, 115959, Note_on_c, 0, 63, 63
2, 116124, Note_on_c, 0, 71, 74
2, 116124, Note_on_c, 0, 77, 0
2, 116131, Note_on_c, 0, 62, 66
2, 116138, Note_on_c, 0, 67, 59
2, 116169, Control_c, 0, 64, 80
2, 116184, Note_on_c, 0, 63, 0
2, 116188, Control_c, 0, 64, 63
2, 116205, Control_c, 0, 64, 43
2, 116227, Control_c, 0, 64, 0
2, 116263, Control_c, 0, 64, 13
2, 116282, Control_c, 0, 64, 25
2, 116304, Control_c, 0, 64, 35
2, 116304, Note_on_c, 0, 71, 0
2, 116321, Control_c, 0, 64, 47
2, 116343, Control_c, 0, 64, 59
2, 116359, Control_c, 0, 64, 63
2, 116382, Control_c, 0, 64, 64
2, 116382, Note_on_c, 0, 72, 21
2, 116402, Control_c, 0, 64, 65
2, 116406, Note_on_c, 0, 71, 34
2, 116421, Control_c, 0, 64, 69
2, 116439, Control_c, 0, 64, 76
2, 116447, Note_on_c, 0, 72, 0
2, 116461, Control_c, 0, 64, 86
2, 116478, Control_c, 0, 64, 95
2, 116499, Control_c, 0, 64, 104
2, 116516, Control_c, 0, 64, 127
2, 116621, Note_on_c, 0, 62, 0
2, 116853, Note_on_c, 0, 53, 0
2, 116957, Note_on_c, 0, 55, 43
2, 116992, Note_on_c, 0, 55, 0
2, 117120, Note_on_c, 0, 50, 68
2, 117812, Note_on_c, 0, 71, 0
2, 117963, Note_on_c, 0, 53, 69
2, 118130, Note_on_c, 0, 72, 73
2, 118132, Note_on_c, 0, 51, 74
2, 118145, Note_on_c, 0, 63, 62
2, 118168, Note_on_c, 0, 50, 0
2, 118210, Control_c, 0, 64, 104
2, 118228, Control_c, 0, 64, 74
2, 118247, Control_c, 0, 64, 59
2, 118247, Note_on_c, 0, 53, 0
2, 118267, Control_c, 0, 64, 41
2, 118286, Control_c, 0, 64, 8
2, 118306, Control_c, 0, 64, 0
2, 118344, Control_c, 0, 64, 17
2, 118363, Control_c, 0, 64, 29
2, 118381, Control_c, 0, 64, 40
2, 118399, Control_c, 0, 64, 53
2, 118419, Control_c, 0, 64, 63
2, 118442, Control_c, 0, 64, 67
2, 118457, Control_c, 0, 64, 72
2, 118477, Control_c, 0, 64, 82
2, 118497, Control_c, 0, 64, 109
2, 118517, Control_c, 0, 64, 127
2, 118587, Note_on_c, 0, 51, 0
2, 118959, Note_on_c, 0, 48, 71
2, 119008, Note_on_c, 0, 48, 0
2, 119146, Note_on_c, 0, 43, 78
2, 119227, Control_c, 0, 64, 115
2, 119245, Control_c, 0, 64, 83
2, 119266, Control_c, 0, 64, 65
2, 119284, Control_c, 0, 64, 53
2, 119303, Control_c, 0, 64, 38
2, 119322, Control_c, 0, 64, 27
2, 119340, Control_c, 0, 64, 20
2, 119360, Control_c, 0, 64, 17
2, 119400, Control_c, 0, 64, 18
2, 119418, Control_c, 0, 64, 26
2, 119439, Control_c, 0, 64, 33
2, 119457, Control_c, 0, 64, 40
2, 119475, Control_c, 0, 64, 47
2, 119496, Control_c, 0, 64, 57
2, 119514, Control_c, 0, 64, 62
2, 119532, Control_c, 0, 64, 63
2, 119553, Control_c, 0, 64, 65
2, 119572, Control_c, 0, 64, 69
2, 119592, Control_c, 0, 64, 77
2, 119610, Control_c, 0, 64, 93
2, 119630, Control_c, 0, 64, 127
2, 119798, Note_on_c, 0, 43, 0
2, 120158, Note_on_c, 0, 46, 62
2, 120220, Note_on_c, 0, 46, 0
2, 120379, Control_c, 0, 64, 93
2, 120393, Note_on_c, 0, 45, 50
2, 120399, Control_c, 0, 64, 79
2, 120417, Control_c, 0, 64, 68
2, 120435, Control_c, 0, 64, 60
2, 120455, Control_c, 0, 64, 50
2, 120475, Control_c, 0, 64, 39
2, 120492, Control_c, 0, 64, 29
2, 120512, Control_c, 0, 64, 20
2, 120529, Control_c, 0, 64, 18
2, 120586, Control_c, 0, 64, 21
2, 120604, Control_c, 0, 64, 30
2, 120626, Control_c, 0, 64, 39
2, 120645, Control_c, 0, 64, 50
2, 120663, Control_c, 0, 64, 58
2, 120684, Control_c, 0, 64, 63
2, 120703, Control_c, 0, 64, 64
2, 120723, Control_c, 0, 64, 67
2, 120741, Control_c, 0, 64, 72
2, 120760, Control_c, 0, 64, 84
2, 120778, Control_c, 0, 64, 118
2, 120798, Control_c, 0, 64, 127
2, 121279, Note_on_c, 0, 74, 59
2, 121310, Note_on_c, 0, 72, 0
2, 121430, Control_c, 0, 64, 99
2, 121443, Note_on_c, 0, 74, 0
2, 121450, Control_c, 0, 64, 81
2, 121460, Note_on_c, 0, 75, 62
2, 121469, Control_c, 0, 64, 68
2, 121477, Note_on_c, 0, 55, 32
2, 121491, Control_c, 0, 64, 60
2, 121510, Control_c, 0, 64, 51
2, 121530, Control_c, 0, 64, 43
2, 121548, Control_c, 0, 64, 37
2, 121566, Control_c, 0, 64, 35
2, 121643, Control_c, 0, 64, 38
2, 121663, Control_c, 0, 64, 42
2, 121680, Control_c, 0, 64, 46
2, 121700, Control_c, 0, 64, 52
2, 121719, Control_c, 0, 64, 57
2, 121737, Control_c, 0, 64, 61
2, 121757, Control_c, 0, 64, 63
2, 121778, Control_c, 0, 64, 64
2, 121796, Control_c, 0, 64, 66
2, 121815, Control_c, 0, 64, 72
2, 121834, Control_c, 0, 64, 85
2, 121857, Control_c, 0, 64, 106
2, 121872, Control_c, 0, 64, 127
2, 122231, Note_on_c, 0, 70, 59
2, 122254, Note_on_c, 0, 75, 0
2, 122422, Note_on_c, 0, 72, 64
2, 122427, Note_on_c, 0, 54, 44
2, 122526, Control_c, 0, 64, 100
2, 122530, Note_on_c, 0, 70, 0
2, 122545, Control_c, 0, 64, 77
2, 122563, Control_c, 0, 64, 61
2, 122583, Control_c, 0, 64, 49
2, 122601, Control_c, 0, 64, 39
2, 122620, Control_c, 0, 64, 37
2, 122636, Note_on_c, 0, 55, 0
2, 122640, Control_c, 0, 64, 39
2, 122661, Control_c, 0, 64, 43
2, 122679, Control_c, 0, 64, 50
2, 122697, Control_c, 0, 64, 56
2, 122718, Control_c, 0, 64, 61
2, 122723, Note_on_c, 0, 67, 0
2, 122738, Control_c, 0, 64, 64
2, 122756, Control_c, 0, 64, 68
2, 122774, Control_c, 0, 64, 75
2, 122795, Control_c, 0, 64, 86
2, 122799, Note_on_c, 0, 63, 0
2, 122816, Control_c, 0, 64, 105
2, 122832, Control_c, 0, 64, 127
2, 123210, Note_on_c, 0, 67, 47
2, 123388, Note_on_c, 0, 66, 65
2, 123393, Note_on_c, 0, 57, 49
2, 123492, Note_on_c, 0, 67, 0
2, 123525, Control_c, 0, 64, 102
2, 123543, Control_c, 0, 64, 75
2, 123561, Control_c, 0, 64, 61
2, 123580, Control_c, 0, 64, 45
2, 123600, Control_c, 0, 64, 30
2, 123619, Control_c, 0, 64, 31
2, 123638, Control_c, 0, 64, 36
2, 123658, Control_c, 0, 64, 42
2, 123667, Note_on_c, 0, 54, 0
2, 123678, Control_c, 0, 64, 50
2, 123698, Control_c, 0, 64, 58
2, 123716, Control_c, 0, 64, 62
2, 123736, Control_c, 0, 64, 63
2, 123754, Control_c, 0, 64, 64
2, 123775, Control_c, 0, 64, 66
2, 123792, Control_c, 0, 64, 70
2, 123814, Control_c, 0, 64, 76
2, 123830, Control_c, 0, 64, 83
2, 123850, Control_c, 0, 64, 91
2, 123869, Control_c, 0, 64, 99
2, 123892, Control_c, 0, 64, 107
2, 123907, Control_c, 0, 64, 120
2, 123926, Control_c, 0, 64, 127
2, 124078, Note_on_c, 0, 45, 0
2, 124157, Note_on_c, 0, 69, 52
2, 124241, Note_on_c, 0, 66, 0
2, 124344, Note_on_c, 0, 69, 0
2, 124353, Note_on_c, 0, 46, 60
2, 124353, Note_on_c, 0, 62, 56
2, 124465, Control_c, 0, 64, 99
2, 124485, Control_c, 0, 64, 80
2, 124502, Control_c, 0, 64, 65
2, 124523, Control_c, 0, 64, 56
2, 124544, Control_c, 0, 64, 46
2, 124560, Control_c, 0, 64, 38
2, 124581, Control_c, 0, 64, 35
2, 124618, Control_c, 0, 64, 37
2, 124639, Control_c, 0, 64, 42
2, 124658, Control_c, 0, 64, 48
2, 124677, Control_c, 0, 64, 57
2, 124695, Control_c, 0, 64, 63
2, 124715, Control_c, 0, 64, 65
2, 124733, Control_c, 0, 64, 67
2, 124753, Control_c, 0, 64, 70
2, 124765, Note_on_c, 0, 72, 0
2, 124771, Control_c, 0, 64, 76
2, 124789, Control_c, 0, 64, 83
2, 124809, Control_c, 0, 64, 91
2, 124829, Control_c, 0, 64, 99
2, 124847, Control_c, 0, 64, 109
2, 124867, Control_c, 0, 64, 127
2, 125042, Note_on_c, 0, 57, 0
2, 125180, Note_on_c, 0, 72, 65
2, 125354, Note_on_c, 0, 74, 70
2, 125361, Note_on_c, 0, 55, 45
2, 125406, Control_c, 0, 64, 95
2, 125428, Control_c, 0, 64, 78
2, 125441, Note_on_c, 0, 72, 0
2, 125445, Control_c, 0, 64, 66
2, 125464, Control_c, 0, 64, 56
2, 125485, Control_c, 0, 64, 47
2, 125502, Control_c, 0, 64, 41
2, 125521, Control_c, 0, 64, 40
2, 125559, Control_c, 0, 64, 42
2, 125577, Control_c, 0, 64, 45
2, 125597, Control_c, 0, 64, 51
2, 125616, Control_c, 0, 64, 59
2, 125636, Control_c, 0, 64, 63
2, 125654, Control_c, 0, 64, 65
2, 125673, Control_c, 0, 64, 67
2, 125693, Control_c, 0, 64, 72
2, 125712, Control_c, 0, 64, 79
2, 125731, Control_c, 0, 64, 90
2, 125750, Control_c, 0, 64, 100
2, 125770, Control_c, 0, 64, 111
2, 125790, Control_c, 0, 64, 127
2, 126105, Note_on_c, 0, 55, 0
2, 126143, Note_on_c, 0, 74, 0
2, 126148, Note_on_c, 0, 69, 58
2, 126152, Note_on_c, 0, 54, 47
2, 126250, Control_c, 0, 64, 102
2, 126269, Control_c, 0, 64, 82
2, 126291, Control_c, 0, 64, 66
2, 126308, Control_c, 0, 64, 56
2, 126331, Note_on_c, 0, 54, 0
2, 126331, Note_on_c, 0, 55, 30
2, 126331, Note_on_c, 0, 69, 0
2, 126332, Control_c, 0, 64, 44
2, 126336, Note_on_c, 0, 70, 62
2, 126346, Control_c, 0, 64, 36
2, 126366, Control_c, 0, 64, 35
2, 126423, Control_c, 0, 64, 34
2, 126481, Control_c, 0, 64, 35
2, 126499, Control_c, 0, 64, 38
2, 126517, Control_c, 0, 64, 42
2, 126539, Control_c, 0, 64, 47
2, 126559, Control_c, 0, 64, 56
2, 126577, Control_c, 0, 64, 61
2, 126595, Control_c, 0, 64, 63
2, 126615, Control_c, 0, 64, 64
2, 126633, Control_c, 0, 64, 65
2, 126652, Control_c, 0, 64, 69
2, 126670, Control_c, 0, 64, 75
2, 126690, Control_c, 0, 64, 85
2, 126711, Control_c, 0, 64, 94
2, 126733, Control_c, 0, 64, 100
2, 126750, Control_c, 0, 64, 104
2, 126770, Control_c, 0, 64, 108
2, 126788, Control_c, 0, 64, 113
2, 126807, Control_c, 0, 64, 127
2, 127093, Note_on_c, 0, 66, 56
2, 127183, Note_on_c, 0, 62, 0
2, 127194, Control_c, 0, 64, 110
2, 127210, Control_c, 0, 64, 100
2, 127232, Control_c, 0, 64, 88
2, 127248, Control_c, 0, 64, 73
2, 127268, Note_on_c, 0, 66, 0
2, 127272, Control_c, 0, 64, 63
2, 127288, Control_c, 0, 64, 54
2, 127288, Note_on_c, 0, 67, 47
2, 127307, Control_c, 0, 64, 43
2, 127324, Control_c, 0, 64, 35
2, 127345, Control_c, 0, 64, 34
2, 127420, Control_c, 0, 64, 36
2, 127440, Control_c, 0, 64, 41
2, 127460, Control_c, 0, 64, 46
2, 127477, Control_c, 0, 64, 54
2, 127498, Control_c, 0, 64, 60
2, 127517, Control_c, 0, 64, 62
2, 127538, Control_c, 0, 64, 63
2, 127555, Control_c, 0, 64, 64
2, 127575, Control_c, 0, 64, 67
2, 127594, Control_c, 0, 64, 72
2, 127613, Control_c, 0, 64, 79
2, 127632, Control_c, 0, 64, 85
2, 127652, Control_c, 0, 64, 91
2, 127672, Control_c, 0, 64, 95
2, 127690, Control_c, 0, 64, 100
2, 127711, Control_c, 0, 64, 106
2, 127729, Control_c, 0, 64, 118
2, 127748, Control_c, 0, 64, 127
2, 128103, Note_on_c, 0, 67, 0
2, 128130, Note_on_c, 0, 62, 50
2, 128299, Note_on_c, 0, 62, 0
2, 128340, Note_on_c, 0, 48, 36
2, 128357, Note_on_c, 0, 63, 44
2, 128362, Control_c, 0, 64, 118
2, 128383, Control_c, 0, 64, 95
2, 128402, Control_c, 0, 64, 78
2, 128418, Control_c, 0, 64, 66
2, 128437, Control_c, 0, 64, 55
2, 128458, Control_c, 0, 64, 43
2, 128478, Control_c, 0, 64, 30
2, 128486, Note_on_c, 0, 46, 0
2, 128499, Control_c, 0, 64, 29
2, 128574, Control_c, 0, 64, 34
2, 128593, Control_c, 0, 64, 41
2, 128613, Control_c, 0, 64, 48
2, 128633, Control_c, 0, 64, 58
2, 128651, Control_c, 0, 64, 62
2, 128669, Control_c, 0, 64, 63
2, 128692, Control_c, 0, 64, 64
2, 128708, Control_c, 0, 64, 67
2, 128729, Control_c, 0, 64, 71
2, 128746, Control_c, 0, 64, 78
2, 128766, Control_c, 0, 64, 89
2, 128783, Control_c, 0, 64, 98
2, 128803, Control_c, 0, 64, 109
2, 128824, Control_c, 0, 64, 127
2, 128888, Note_on_c, 0, 70, 0
2, 129190, Note_on_c, 0, 75, 54
2, 129360, Note_on_c, 0, 60, 57
2, 129367, Note_on_c, 0, 67, 60
2, 129465, Note_on_c, 0, 75, 0
2, 129554, Control_c, 0, 64, 94
2, 129572, Control_c, 0, 64, 75
2, 129591, Control_c, 0, 64, 61
2, 129611, Control_c, 0, 64, 49
2, 129628, Control_c, 0, 64, 38
2, 129644, Note_on_c, 0, 55, 0
2, 129648, Control_c, 0, 64, 35
2, 129687, Control_c, 0, 64, 36
2, 129705, Control_c, 0, 64, 38
2, 129726, Control_c, 0, 64, 42
2, 129743, Control_c, 0, 64, 46
2, 129764, Control_c, 0, 64, 51
2, 129781, Control_c, 0, 64, 58
2, 129803, Control_c, 0, 64, 61
2, 129825, Control_c, 0, 64, 62
2, 129844, Control_c, 0, 64, 63
2, 129859, Control_c, 0, 64, 65
2, 129878, Control_c, 0, 64, 68
2, 129897, Control_c, 0, 64, 72
2, 129919, Control_c, 0, 64, 78
2, 129936, Control_c, 0, 64, 83
2, 129955, Control_c, 0, 64, 87
2, 129974, Control_c, 0, 64, 90
2, 129994, Control_c, 0, 64, 92
2, 130012, Control_c, 0, 64, 94
2, 130031, Control_c, 0, 64, 99
2, 130053, Control_c, 0, 64, 110
2, 130070, Control_c, 0, 64, 127
2, 130194, Note_on_c, 0, 67, 0
2, 130200, Note_on_c, 0, 70, 62
2, 130321, Control_c, 0, 64, 110
2, 130341, Control_c, 0, 64, 95
2, 130356, Note_on_c, 0, 70, 0
2, 130360, Control_c, 0, 64, 79
2, 130376, Note_on_c, 0, 68, 54
2, 130381, Control_c, 0, 64, 66
2, 130397, Control_c, 0, 64, 57
2, 130417, Control_c, 0, 64, 43
2, 130437, Control_c, 0, 64, 35
2, 130454, Control_c, 0, 64, 34
2, 130513, Control_c, 0, 64, 36
2, 130530, Control_c, 0, 64, 41
2, 130549, Control_c, 0, 64, 48
2, 130570, Control_c, 0, 64, 57
2, 130592, Control_c, 0, 64, 62
2, 130607, Control_c, 0, 64, 63
2, 130629, Control_c, 0, 64, 64
2, 130648, Control_c, 0, 64, 66
2, 130665, Control_c, 0, 64, 70
2, 130684, Control_c, 0, 64, 79
2, 130706, Control_c, 0, 64, 87
2, 130725, Control_c, 0, 64, 94
2, 130742, Control_c, 0, 64, 100
2, 130762, Control_c, 0, 64, 108
2, 130782, Control_c, 0, 64, 127
2, 130805, Note_on_c, 0, 60, 0
2, 131156, Note_on_c, 0, 60, 51
2, 131328, Note_on_c, 0, 72, 63
2, 131341, Note_on_c, 0, 55, 58
2, 131347, Note_on_c, 0, 68, 0
2, 131433, Control_c, 0, 64, 102
2, 131454, Control_c, 0, 64, 79
2, 131474, Control_c, 0, 64, 65
2, 131490, Control_c, 0, 64, 54
2, 131513, Control_c, 0, 64, 41
2, 131529, Control_c, 0, 64, 38
2, 131542, Note_on_c, 0, 60, 0
2, 131572, Control_c, 0, 64, 40
2, 131589, Control_c, 0, 64, 42
2, 131606, Control_c, 0, 64, 44
2, 131625, Control_c, 0, 64, 49
2, 131647, Control_c, 0, 64, 57
2, 131667, Control_c, 0, 64, 61
2, 131682, Control_c, 0, 64, 62
2, 131705, Control_c, 0, 64, 63
2, 131723, Control_c, 0, 64, 65
2, 131743, Control_c, 0, 64, 69
2, 131759, Control_c, 0, 64, 75
2, 131781, Control_c, 0, 64, 81
2, 131801, Control_c, 0, 64, 90
2, 131819, Control_c, 0, 64, 95
2, 131837, Control_c, 0, 64, 101
2, 131856, Control_c, 0, 64, 106
2, 131874, Control_c, 0, 64, 111
2, 131894, Control_c, 0, 64, 120
2, 131912, Control_c, 0, 64, 127
2, 132173, Note_on_c, 0, 58, 69
2, 132319, Note_on_c, 0, 63, 0
2, 132323, Note_on_c, 0, 55, 0
2, 132364, Note_on_c, 0, 62, 52
2, 132372, Note_on_c, 0, 72, 0
2, 132376, Note_on_c, 0, 57, 60
2, 132376, Note_on_c, 0, 66, 61
2, 132414, Control_c, 0, 64, 105
2, 132435, Control_c, 0, 64, 80
2, 132453, Control_c, 0, 64, 64
2, 132457, Note_on_c, 0, 58, 0
2, 132473, Control_c, 0, 64, 47
2, 132491, Control_c, 0, 64, 25
2, 132509, Control_c, 0, 64, 11
2, 132551, Control_c, 0, 64, 19
2, 132566, Control_c, 0, 64, 29
2, 132586, Control_c, 0, 64, 38
2, 132604, Control_c, 0, 64, 50
2, 132627, Control_c, 0, 64, 61
2, 132643, Control_c, 0, 64, 64
2, 132661, Control_c, 0, 64, 65
2, 132683, Control_c, 0, 64, 67
2, 132701, Control_c, 0, 64, 72
2, 132719, Control_c, 0, 64, 81
2, 132739, Control_c, 0, 64, 96
2, 132762, Control_c, 0, 64, 127
2, 132803, Note_on_c, 0, 48, 0
2, 133217, Note_on_c, 0, 50, 65
2, 133279, Note_on_c, 0, 50, 0
2, 133398, Note_on_c, 0, 45, 78
2, 133489, Control_c, 0, 64, 94
2, 133509, Control_c, 0, 64, 72
2, 133527, Control_c, 0, 64, 60
2, 133546, Control_c, 0, 64, 51
2, 133565, Control_c, 0, 64, 52
2, 133582, Control_c, 0, 64, 57
2, 133604, Control_c, 0, 64, 60
2, 133623, Control_c, 0, 64, 62
2, 133641, Control_c, 0, 64, 64
2, 133659, Control_c, 0, 64, 67
2, 133679, Control_c, 0, 64, 73
2, 133700, Control_c, 0, 64, 82
2, 133720, Control_c, 0, 64, 97
2, 133738, Control_c, 0, 64, 115
2, 133756, Control_c, 0, 64, 127
2, 134164, Note_on_c, 0, 57, 0
2, 134217, Note_on_c, 0, 48, 78
2, 134400, Note_on_c, 0, 46, 78
2, 134405, Note_on_c, 0, 67, 72
2, 134409, Note_on_c, 0, 58, 66
2, 134460, Note_on_c, 0, 45, 0
2, 134492, Note_on_c, 0, 66, 0
2, 134543, Control_c, 0, 64, 94
2, 134543, Note_on_c, 0, 48, 0
2, 134567, Control_c, 0, 64, 72
2, 134584, Control_c, 0, 64, 58
2, 134602, Control_c, 0, 64, 35
2, 134621, Control_c, 0, 64, 0
2, 134701, Control_c, 0, 64, 17
2, 134718, Control_c, 0, 64, 35
2, 134740, Control_c, 0, 64, 51
2, 134756, Control_c, 0, 64, 61
2, 134775, Control_c, 0, 64, 64
2, 134793, Control_c, 0, 64, 66
2, 134812, Control_c, 0, 64, 71
2, 134832, Control_c, 0, 64, 81
2, 134853, Control_c, 0, 64, 101
2, 134871, Control_c, 0, 64, 127
2, 134884, Note_on_c, 0, 46, 0
2, 135177, Note_on_c, 0, 43, 80
2, 135254, Note_on_c, 0, 43, 0
2, 135381, Note_on_c, 0, 38, 70
2, 135428, Control_c, 0, 64, 120
2, 135447, Control_c, 0, 64, 87
2, 135467, Control_c, 0, 64, 70
2, 135485, Control_c, 0, 64, 60
2, 135505, Control_c, 0, 64, 46
2, 135523, Control_c, 0, 64, 34
2, 135542, Control_c, 0, 64, 27
2, 135564, Control_c, 0, 64, 22
2, 135584, Control_c, 0, 64, 11
2, 135601, Control_c, 0, 64, 0
2, 135659, Control_c, 0, 64, 21
2, 135676, Control_c, 0, 64, 30
2, 135697, Control_c, 0, 64, 39
2, 135715, Control_c, 0, 64, 52
2, 135735, Control_c, 0, 64, 61
2, 135755, Control_c, 0, 64, 64
2, 135793, Control_c, 0, 64, 66
2, 135811, Control_c, 0, 64, 71
2, 135831, Control_c, 0, 64, 81
2, 135851, Control_c, 0, 64, 96
2, 135869, Control_c, 0, 64, 111
2, 135889, Control_c, 0, 64, 122
2, 135908, Control_c, 0, 64, 127
2, 135915, Note_on_c, 0, 38, 0
2, 136405, Note_on_c, 0, 41, 56
2, 136489, Note_on_c, 0, 41, 0
2, 136656, Control_c, 0, 64, 103
2, 136676, Control_c, 0, 64, 86
2, 136687, Note_on_c, 0, 39, 45
2, 136695, Control_c, 0, 64, 72
2, 136715, Control_c, 0, 64, 64
2, 136736, Control_c, 0, 64, 56
2, 136755, Control_c, 0, 64, 48
2, 136770, Control_c, 0, 64, 41
2, 136790, Control_c, 0, 64, 30
2, 136810, Control_c, 0, 64, 0
2, 136964, Control_c, 0, 64, 16
2, 136984, Control_c, 0, 64, 30
2, 137001, Control_c, 0, 64, 43
2, 137020, Control_c, 0, 64, 57
2, 137041, Control_c, 0, 64, 63
2, 137077, Control_c, 0, 64, 65
2, 137098, Control_c, 0, 64, 68
2, 137116, Control_c, 0, 64, 77
2, 137139, Control_c, 0, 64, 95
2, 137154, Control_c, 0, 64, 127
2, 137286, Note_on_c, 0, 39, 0
2, 137303, Note_on_c, 0, 62, 0
2, 137864, Note_on_c, 0, 67, 0
2, 137923, Note_on_c, 0, 66, 45
2, 138129, Note_on_c, 0, 51, 42
2, 138129, Note_on_c, 0, 67, 50
2, 138158, Note_on_c, 0, 66, 0
2, 138231, Control_c, 0, 64, 103
2, 138248, Control_c, 0, 64, 90
2, 138270, Control_c, 0, 64, 76
2, 138289, Control_c, 0, 64, 67
2, 138310, Control_c, 0, 64, 61
2, 138326, Control_c, 0, 64, 58
2, 138385, Control_c, 0, 64, 57
2, 138423, Control_c, 0, 64, 56
2, 138444, Control_c, 0, 64, 55
2, 138461, Control_c, 0, 64, 54
2, 138499, Control_c, 0, 64, 53
2, 138518, Control_c, 0, 64, 52
2, 138541, Control_c, 0, 64, 51
2, 138577, Control_c, 0, 64, 52
2, 138594, Control_c, 0, 64, 53
2, 138614, Control_c, 0, 64, 55
2, 138633, Control_c, 0, 64, 56
2, 138653, Control_c, 0, 64, 57
2, 138671, Control_c, 0, 64, 59
2, 138691, Control_c, 0, 64, 60
2, 138711, Control_c, 0, 64, 62
2, 138729, Control_c, 0, 64, 63
2, 138749, Control_c, 0, 64, 65
2, 138769, Control_c, 0, 64, 68
2, 138786, Control_c, 0, 64, 73
2, 138806, Control_c, 0, 64, 81
2, 138826, Control_c, 0, 64, 92
2, 138834, Note_on_c, 0, 58, 0
2, 138844, Control_c, 0, 64, 110
2, 138864, Control_c, 0, 64, 127
2, 138936, Note_on_c, 0, 50, 43
2, 138941, Note_on_c, 0, 70, 55
2, 138945, Note_on_c, 0, 51, 0
2, 139019, Note_on_c, 0, 67, 0
2, 139114, Control_c, 0, 64, 99
2, 139128, Note_on_c, 0, 51, 47
2, 139132, Control_c, 0, 64, 84
2, 139141, Note_on_c, 0, 61, 57
2, 139153, Control_c, 0, 64, 72
2, 139175, Control_c, 0, 64, 63
2, 139191, Control_c, 0, 64, 53
2, 139197, Note_on_c, 0, 50, 0
2, 139209, Control_c, 0, 64, 42
2, 139228, Control_c, 0, 64, 32
2, 139248, Control_c, 0, 64, 28
2, 139269, Control_c, 0, 64, 27
2, 139326, Control_c, 0, 64, 31
2, 139344, Control_c, 0, 64, 38
2, 139364, Control_c, 0, 64, 47
2, 139386, Control_c, 0, 64, 55
2, 139402, Control_c, 0, 64, 61
2, 139421, Control_c, 0, 64, 63
2, 139443, Control_c, 0, 64, 65
2, 139459, Control_c, 0, 64, 68
2, 139479, Control_c, 0, 64, 74
2, 139498, Control_c, 0, 64, 88
2, 139513, Note_on_c, 0, 70, 0
2, 139517, Control_c, 0, 64, 109
2, 139537, Control_c, 0, 64, 127
2, 139929, Note_on_c, 0, 70, 51
2, 139959, Note_on_c, 0, 54, 50
2, 140130, Note_on_c, 0, 69, 62
2, 140148, Note_on_c, 0, 52, 58
2, 140148, Note_on_c, 0, 55, 56
2, 140213, Control_c, 0, 64, 110
2, 140213, Note_on_c, 0, 70, 0
2, 140232, Control_c, 0, 64, 87
2, 140244, Note_on_c, 0, 54, 0
2, 140253, Control_c, 0, 64, 71
2, 140270, Control_c, 0, 64, 61
2, 140291, Control_c, 0, 64, 50
2, 140291, Note_on_c, 0, 51, 0
2, 140311, Control_c, 0, 64, 38
2, 140328, Control_c, 0, 64, 32
2, 140348, Control_c, 0, 64, 31
2, 140405, Control_c, 0, 64, 32
2, 140423, Control_c, 0, 64, 35
2, 140446, Control_c, 0, 64, 41
2, 140464, Control_c, 0, 64, 49
2, 140482, Control_c, 0, 64, 57
2, 140500, Control_c, 0, 64, 62
2, 140519, Control_c, 0, 64, 63
2, 140538, Control_c, 0, 64, 65
2, 140560, Control_c, 0, 64, 68
2, 140580, Control_c, 0, 64, 74
2, 140597, Control_c, 0, 64, 84
2, 140615, Control_c, 0, 64, 96
2, 140635, Control_c, 0, 64, 109
2, 140656, Control_c, 0, 64, 127
2, 140720, Note_on_c, 0, 61, 0
2, 140829, Note_on_c, 0, 55, 0
2, 140949, Note_on_c, 0, 67, 63
2, 140958, Note_on_c, 0, 57, 67
2, 140996, Note_on_c, 0, 52, 0
2, 141050, Note_on_c, 0, 57, 0
2, 141149, Note_on_c, 0, 58, 69
2, 141152, Note_on_c, 0, 66, 68
2, 141163, Note_on_c, 0, 69, 0
2, 141167, Note_on_c, 0, 67, 0
2, 141172, Note_on_c, 0, 62, 59
2, 141179, Note_on_c, 0, 50, 51
2, 141250, Control_c, 0, 64, 94
2, 141270, Control_c, 0, 64, 73
2, 141289, Control_c, 0, 64, 60
2, 141309, Control_c, 0, 64, 49
2, 141326, Control_c, 0, 64, 39
2, 141347, Control_c, 0, 64, 32
2, 141365, Control_c, 0, 64, 28
2, 141384, Control_c, 0, 64, 25
2, 141403, Control_c, 0, 64, 23
2, 141443, Control_c, 0, 64, 24
2, 141461, Control_c, 0, 64, 29
2, 141480, Control_c, 0, 64, 36
2, 141500, Control_c, 0, 64, 45
2, 141518, Control_c, 0, 64, 56
2, 141538, Control_c, 0, 64, 62
2, 141561, Control_c, 0, 64, 64
2, 141576, Control_c, 0, 64, 66
2, 141598, Control_c, 0, 64, 69
2, 141615, Control_c, 0, 64, 76
2, 141635, Control_c, 0, 64, 85
2, 141656, Control_c, 0, 64, 92
2, 141672, Control_c, 0, 64, 96
2, 141692, Control_c, 0, 64, 99
2, 141712, Control_c, 0, 64, 101
2, 141730, Control_c, 0, 64, 103
2, 141748, Control_c, 0, 64, 105
2, 141768, Control_c, 0, 64, 106
2, 141790, Control_c, 0, 64, 109
2, 141808, Control_c, 0, 64, 110
2, 141826, Control_c, 0, 64, 112
2, 141905, Control_c, 0, 64, 113
2, 141925, Note_on_c, 0, 62, 0
2, 141960, Control_c, 0, 64, 109
2, 141960, Note_on_c, 0, 61, 55
2, 141978, Control_c, 0, 64, 100
2, 141997, Control_c, 0, 64, 89
2, 142016, Control_c, 0, 64, 77
2, 142035, Control_c, 0, 64, 66
2, 142054, Control_c, 0, 64, 56
2, 142074, Control_c, 0, 64, 41
2, 142094, Control_c, 0, 64, 24
2, 142111, Control_c, 0, 64, 15
2, 142127, Note_on_c, 0, 61, 0
2, 142169, Note_on_c, 0, 62, 45
2, 142242, Control_c, 0, 64, 17
2, 142261, Control_c, 0, 64, 25
2, 142284, Control_c, 0, 64, 33
2, 142300, Control_c, 0, 64, 42
2, 142318, Control_c, 0, 64, 54
2, 142338, Control_c, 0, 64, 62
2, 142358, Control_c, 0, 64, 65
2, 142378, Control_c, 0, 64, 66
2, 142396, Control_c, 0, 64, 70
2, 142403, Note_on_c, 0, 66, 0
2, 142417, Control_c, 0, 64, 78
2, 142438, Control_c, 0, 64, 93
2, 142453, Control_c, 0, 64, 127
2, 142559, Note_on_c, 0, 66, 65
2, 143075, Note_on_c, 0, 67, 55
2, 143088, Control_c, 0, 64, 122
2, 143108, Control_c, 0, 64, 102
2, 143125, Control_c, 0, 64, 90
2, 143145, Control_c, 0, 64, 79
2, 143165, Control_c, 0, 64, 69
2, 143187, Control_c, 0, 64, 62
2, 143205, Control_c, 0, 64, 56
2, 143205, Note_on_c, 0, 66, 0
2, 143225, Control_c, 0, 64, 51
2, 143243, Control_c, 0, 64, 48
2, 143262, Control_c, 0, 64, 47
2, 143281, Control_c, 0, 64, 46
2, 143301, Control_c, 0, 64, 45
2, 143339, Control_c, 0, 64, 48
2, 143357, Control_c, 0, 64, 53
2, 143377, Control_c, 0, 64, 58
2, 143397, Control_c, 0, 64, 63
2, 143416, Control_c, 0, 64, 66
2, 143436, Control_c, 0, 64, 70
2, 143454, Control_c, 0, 64, 77
2, 143474, Control_c, 0, 64, 88
2, 143492, Control_c, 0, 64, 109
2, 143509, Control_c, 0, 64, 127
2, 143534, Note_on_c, 0, 58, 0
2, 143811, Note_on_c, 0, 62, 0
2, 143840, Note_on_c, 0, 58, 51
2, 143844, Note_on_c, 0, 61, 46
2, 143969, Control_c, 0, 64, 96
2, 143987, Control_c, 0, 64, 80
2, 144007, Control_c, 0, 64, 68
2, 144027, Control_c, 0, 64, 59
2, 144031, Note_on_c, 0, 61, 0
2, 144043, Note_on_c, 0, 62, 42
2, 144049, Control_c, 0, 64, 49
2, 144049, Note_on_c, 0, 57, 44
2, 144065, Control_c, 0, 64, 45
2, 144065, Note_on_c, 0, 58, 0
2, 144082, Control_c, 0, 64, 44
2, 144179, Control_c, 0, 64, 45
2, 144199, Control_c, 0, 64, 48
2, 144219, Control_c, 0, 64, 50
2, 144239, Control_c, 0, 64, 54
2, 144258, Control_c, 0, 64, 58
2, 144276, Control_c, 0, 64, 60
2, 144295, Control_c, 0, 64, 61
2, 144313, Control_c, 0, 64, 62
2, 144334, Control_c, 0, 64, 64
2, 144351, Control_c, 0, 64, 66
2, 144371, Control_c, 0, 64, 69
2, 144390, Control_c, 0, 64, 75
2, 144410, Control_c, 0, 64, 83
2, 144428, Control_c, 0, 64, 90
2, 144447, Control_c, 0, 64, 97
2, 144466, Control_c, 0, 64, 102
2, 144486, Control_c, 0, 64, 110
2, 144504, Control_c, 0, 64, 127
2, 144798, Note_on_c, 0, 57, 0
2, 144841, Note_on_c, 0, 55, 42
2, 144988, Control_c, 0, 64, 100
2, 145008, Control_c, 0, 64, 79
2, 145026, Control_c, 0, 64, 67
2, 145040, Note_on_c, 0, 55, 0
2, 145045, Control_c, 0, 64, 58
2, 145065, Control_c, 0, 64, 49
2, 145069, Note_on_c, 0, 57, 40
2, 145082, Control_c, 0, 64, 44
2, 145102, Control_c, 0, 64, 42
2, 145198, Control_c, 0, 64, 43
2, 145219, Control_c, 0, 64, 46
2, 145234, Control_c, 0, 64, 49
2, 145254, Control_c, 0, 64, 52
2, 145275, Control_c, 0, 64, 56
2, 145293, Control_c, 0, 64, 60
2, 145312, Control_c, 0, 64, 62
2, 145332, Control_c, 0, 64, 63
2, 145351, Control_c, 0, 64, 65
2, 145371, Control_c, 0, 64, 67
2, 145389, Control_c, 0, 64, 71
2, 145407, Control_c, 0, 64, 77
2, 145427, Control_c, 0, 64, 83
2, 145447, Control_c, 0, 64, 90
2, 145467, Control_c, 0, 64, 95
2, 145487, Control_c, 0, 64, 100
2, 145505, Control_c, 0, 64, 106
2, 145522, Control_c, 0, 64, 127
2, 145836, Note_on_c, 0, 62, 0
2, 145872, Note_on_c, 0, 70, 52
2, 145949, Note_on_c, 0, 67, 0
2, 146072, Note_on_c, 0, 69, 52
2, 146123, Note_on_c, 0, 60, 32
2, 146195, Control_c, 0, 64, 93
2, 146208, Note_on_c, 0, 70, 0
2, 146217, Control_c, 0, 64, 76
2, 146233, Control_c, 0, 64, 64
2, 146253, Control_c, 0, 64, 55
2, 146273, Control_c, 0, 64, 49
2, 146293, Control_c, 0, 64, 46
2, 146330, Control_c, 0, 64, 47
2, 146368, Control_c, 0, 64, 50
2, 146386, Control_c, 0, 64, 53
2, 146409, Control_c, 0, 64, 57
2, 146427, Control_c, 0, 64, 60
2, 146446, Control_c, 0, 64, 62
2, 146464, Control_c, 0, 64, 63
2, 146483, Control_c, 0, 64, 66
2, 146502, Control_c, 0, 64, 69
2, 146524, Control_c, 0, 64, 75
2, 146543, Control_c, 0, 64, 81
2, 146561, Control_c, 0, 64, 88
2, 146580, Control_c, 0, 64, 93
2, 146598, Control_c, 0, 64, 98
2, 146618, Control_c, 0, 64, 102
2, 146637, Control_c, 0, 64, 109
2, 146658, Control_c, 0, 64, 127
2, 146953, Note_on_c, 0, 69, 0
2, 146957, Note_on_c, 0, 72, 55
2, 147117, Control_c, 0, 64, 106
2, 147136, Control_c, 0, 64, 89
2, 147156, Control_c, 0, 64, 74
2, 147165, Note_on_c, 0, 72, 0
2, 147176, Control_c, 0, 64, 64
2, 147176, Note_on_c, 0, 66, 52
2, 147194, Control_c, 0, 64, 52
2, 147212, Control_c, 0, 64, 43
2, 147235, Control_c, 0, 64, 39
2, 147250, Control_c, 0, 64, 38
2, 147290, Control_c, 0, 64, 39
2, 147309, Control_c, 0, 64, 40
2, 147328, Control_c, 0, 64, 43
2, 147347, Control_c, 0, 64, 48
2, 147365, Control_c, 0, 64, 53
2, 147385, Control_c, 0, 64, 58
2, 147406, Control_c, 0, 64, 61
2, 147423, Control_c, 0, 64, 63
2, 147443, Control_c, 0, 64, 64
2, 147464, Control_c, 0, 64, 66
2, 147480, Control_c, 0, 64, 70
2, 147500, Control_c, 0, 64, 77
2, 147520, Control_c, 0, 64, 84
2, 147538, Control_c, 0, 64, 90
2, 147556, Control_c, 0, 64, 93
2, 147577, Control_c, 0, 64, 95
2, 147597, Control_c, 0, 64, 100
2, 147616, Control_c, 0, 64, 115
2, 147636, Control_c, 0, 64, 127
2, 148028, Note_on_c, 0, 63, 47
2, 148174, Control_c, 0, 64, 104
2, 148185, Note_on_c, 0, 63, 0
2, 148192, Control_c, 0, 64, 89
2, 148210, Control_c, 0, 64, 74
2, 148230, Note_on_c, 0, 62, 47
2, 148234, Control_c, 0, 64, 64
2, 148250, Control_c, 0, 64, 55
2, 148269, Control_c, 0, 64, 46
2, 148287, Control_c, 0, 64, 42
2, 148307, Control_c, 0, 64, 41
2, 148336, Note_on_c, 0, 60, 0
2, 148365, Control_c, 0, 64, 42
2, 148386, Control_c, 0, 64, 44
2, 148403, Control_c, 0, 64, 48
2, 148422, Control_c, 0, 64, 52
2, 148442, Control_c, 0, 64, 58
2, 148462, Control_c, 0, 64, 61
2, 148481, Control_c, 0, 64, 63
2, 148500, Control_c, 0, 64, 64
2, 148518, Control_c, 0, 64, 67
2, 148537, Control_c, 0, 64, 72
2, 148558, Control_c, 0, 64, 80
2, 148577, Control_c, 0, 64, 93
2, 148596, Control_c, 0, 64, 104
2, 148616, Control_c, 0, 64, 115
2, 148634, Control_c, 0, 64, 127
2, 148748, Note_on_c, 0, 57, 0
2, 149195, Note_on_c, 0, 60, 40
2, 149440, Note_on_c, 0, 62, 0
2, 149492, Note_on_c, 0, 43, 34
2, 149503, Note_on_c, 0, 67, 38
2, 149510, Note_on_c, 0, 55, 22
2, 149606, Note_on_c, 0, 66, 0
2, 149671, Control_c, 0, 64, 103
2, 149689, Control_c, 0, 64, 83
2, 149693, Note_on_c, 0, 50, 0
2, 149710, Control_c, 0, 64, 70
2, 149729, Control_c, 0, 64, 61
2, 149747, Control_c, 0, 64, 52
2, 149766, Control_c, 0, 64, 46
2, 149786, Control_c, 0, 64, 45
2, 149844, Control_c, 0, 64, 46
2, 149864, Control_c, 0, 64, 48
2, 149880, Control_c, 0, 64, 51
2, 149901, Control_c, 0, 64, 54
2, 149919, Control_c, 0, 64, 58
2, 149940, Control_c, 0, 64, 60
2, 149959, Control_c, 0, 64, 62
2, 149979, Control_c, 0, 64, 63
2, 149998, Control_c, 0, 64, 66
2, 150016, Control_c, 0, 64, 69
2, 150033, Control_c, 0, 64, 73
2, 150053, Control_c, 0, 64, 78
2, 150074, Control_c, 0, 64, 82
2, 150092, Control_c, 0, 64, 89
2, 150112, Control_c, 0, 64, 94
2, 150130, Control_c, 0, 64, 99
2, 150150, Control_c, 0, 64, 102
2, 150170, Control_c, 0, 64, 104
2, 150188, Control_c, 0, 64, 105
2, 150210, Control_c, 0, 64, 107
2, 150228, Control_c, 0, 64, 110
2, 150249, Control_c, 0, 64, 113
2, 150267, Control_c, 0, 64, 115
2, 150285, Control_c, 0, 64, 116
2, 150324, Note_on_c, 0, 60, 0
2, 150344, Note_on_c, 0, 57, 53
2, 150361, Control_c, 0, 64, 118
2, 150459, Control_c, 0, 64, 116
2, 150476, Control_c, 0, 64, 112
2, 150495, Control_c, 0, 64, 106
2, 150516, Control_c, 0, 64, 98
2, 150527, Note_on_c, 0, 57, 0
2, 150536, Control_c, 0, 64, 90
2, 150552, Control_c, 0, 64, 80
2, 150557, Note_on_c, 0, 59, 47
2, 150575, Control_c, 0, 64, 70
2, 150591, Control_c, 0, 64, 62
2, 150610, Control_c, 0, 64, 54
2, 150630, Control_c, 0, 64, 47
2, 150648, Control_c, 0, 64, 42
2, 150666, Control_c, 0, 64, 40
2, 150742, Control_c, 0, 64, 43
2, 150761, Control_c, 0, 64, 47
2, 150781, Control_c, 0, 64, 55
2, 150800, Control_c, 0, 64, 60
2, 150819, Control_c, 0, 64, 63
2, 150841, Control_c, 0, 64, 64
2, 150857, Control_c, 0, 64, 67
2, 150876, Control_c, 0, 64, 70
2, 150896, Control_c, 0, 64, 77
2, 150916, Control_c, 0, 64, 86
2, 150926, Note_on_c, 0, 67, 0
2, 150937, Control_c, 0, 64, 94
2, 150954, Control_c, 0, 64, 99
2, 150974, Control_c, 0, 64, 102
2, 150992, Control_c, 0, 64, 106
2, 151012, Control_c, 0, 64, 110
2, 151031, Control_c, 0, 64, 127
2, 151353, Note_on_c, 0, 65, 48
2, 151511, Control_c, 0, 64, 104
2, 151530, Control_c, 0, 64, 92
2, 151548, Control_c, 0, 64, 81
2, 151563, Note_on_c, 0, 63, 44
2, 151569, Control_c, 0, 64, 70
2, 151585, Note_on_c, 0, 65, 0
2, 151587, Control_c, 0, 64, 62
2, 151607, Control_c, 0, 64, 53
2, 151625, Control_c, 0, 64, 47
2, 151644, Control_c, 0, 64, 44
2, 151665, Control_c, 0, 64, 43
2, 151741, Control_c, 0, 64, 45
2, 151761, Control_c, 0, 64, 49
2, 151779, Control_c, 0, 64, 54
2, 151797, Control_c, 0, 64, 58
2, 151817, Control_c, 0, 64, 62
2, 151837, Control_c, 0, 64, 64
2, 151855, Control_c, 0, 64, 66
2, 151874, Control_c, 0, 64, 71
2, 151895, Control_c, 0, 64, 79
2, 151915, Control_c, 0, 64, 90
2, 151933, Control_c, 0, 64, 103
2, 151933, Note_on_c, 0, 59, 0
2, 151955, Control_c, 0, 64, 115
2, 151972, Control_c, 0, 64, 127
2, 152310, Note_on_c, 0, 59, 48
2, 152472, Control_c, 0, 64, 102
2, 152490, Control_c, 0, 64, 86
2, 152500, Note_on_c, 0, 59, 0
2, 152511, Control_c, 0, 64, 72
2, 152524, Note_on_c, 0, 60, 44
2, 152528, Control_c, 0, 64, 63
2, 152548, Control_c, 0, 64, 54
2, 152566, Control_c, 0, 64, 47
2, 152604, Control_c, 0, 64, 46
2, 152661, Control_c, 0, 64, 47
2, 152680, Control_c, 0, 64, 49
2, 152703, Control_c, 0, 64, 53
2, 152720, Control_c, 0, 64, 56
2, 152739, Control_c, 0, 64, 59
2, 152757, Control_c, 0, 64, 62
2, 152777, Control_c, 0, 64, 64
2, 152795, Control_c, 0, 64, 68
2, 152819, Control_c, 0, 64, 73
2, 152838, Control_c, 0, 64, 84
2, 152855, Control_c, 0, 64, 97
2, 152873, Control_c, 0, 64, 127
2, 153011, Note_on_c, 0, 63, 0
2, 153334, Note_on_c, 0, 55, 0
2, 153377, Note_on_c, 0, 63, 47
2, 153404, Note_on_c, 0, 54, 13
2, 153603, Note_on_c, 0, 54, 0
2, 153612, Note_on_c, 0, 62, 49
2, 153623, Control_c, 0, 64, 118
2, 153627, Note_on_c, 0, 55, 32
2, 153641, Control_c, 0, 64, 95
2, 153662, Control_c, 0, 64, 81
2, 153678, Note_on_c, 0, 63, 0
2, 153683, Control_c, 0, 64, 67
2, 153700, Control_c, 0, 64, 60
2, 153721, Control_c, 0, 64, 52
2, 153741, Control_c, 0, 64, 48
2, 153756, Control_c, 0, 64, 46
2, 153778, Control_c, 0, 64, 45
2, 153834, Control_c, 0, 64, 47
2, 153856, Control_c, 0, 64, 51
2, 153874, Control_c, 0, 64, 55
2, 153891, Control_c, 0, 64, 58
2, 153911, Control_c, 0, 64, 61
2, 153932, Control_c, 0, 64, 63
2, 153952, Control_c, 0, 64, 67
2, 153967, Control_c, 0, 64, 72
2, 153988, Control_c, 0, 64, 80
2, 154003, Note_on_c, 0, 60, 0
2, 154007, Control_c, 0, 64, 91
2, 154027, Control_c, 0, 64, 105
2, 154044, Control_c, 0, 64, 127
2, 154445, Note_on_c, 0, 60, 41
2, 154603, Note_on_c, 0, 60, 0
2, 154605, Control_c, 0, 64, 100
2, 154621, Control_c, 0, 64, 82
2, 154641, Control_c, 0, 64, 67
2, 154659, Control_c, 0, 64, 57
2, 154677, Control_c, 0, 64, 48
2, 154684, Note_on_c, 0, 59, 34
2, 154697, Control_c, 0, 64, 42
2, 154717, Control_c, 0, 64, 41
2, 154774, Control_c, 0, 64, 44
2, 154796, Control_c, 0, 64, 50
2, 154816, Control_c, 0, 64, 56
2, 154831, Control_c, 0, 64, 62
2, 154851, Control_c, 0, 64, 64
2, 154869, Control_c, 0, 64, 68
2, 154880, Note_on_c, 0, 59, 0
2, 154889, Control_c, 0, 64, 73
2, 154909, Control_c, 0, 64, 86
2, 154918, Note_on_c, 0, 62, 0
2, 154931, Control_c, 0, 64, 103
2, 154948, Control_c, 0, 64, 127
2, 154982, Note_on_c, 0, 55, 0
2, 155434, Note_on_c, 0, 67, 53
2, 155439, Note_on_c, 0, 53, 41
2, 155505, Note_on_c, 0, 53, 0
2, 155512, Note_on_c, 0, 67, 0
2, 155568, Note_on_c, 0, 51, 52
2, 155798, Note_on_c, 0, 50, 43
2, 155855, Note_on_c, 0, 77, 74
2, 155965, Note_on_c, 0, 51, 0
2, 155983, Control_c, 0, 64, 89
2, 156005, Control_c, 0, 64, 70
2, 156022, Control_c, 0, 64, 57
2, 156042, Control_c, 0, 64, 44
2, 156061, Control_c, 0, 64, 36
2, 156099, Control_c, 0, 64, 38
2, 156119, Control_c, 0, 64, 42
2, 156137, Control_c, 0, 64, 47
2, 156157, Control_c, 0, 64, 57
2, 156175, Control_c, 0, 64, 63
2, 156196, Control_c, 0, 64, 65
2, 156213, Control_c, 0, 64, 67
2, 156234, Control_c, 0, 64, 71
2, 156253, Control_c, 0, 64, 79
2, 156272, Control_c, 0, 64, 89
2, 156283, Note_on_c, 0, 43, 0
2, 156289, Control_c, 0, 64, 103
2, 156311, Control_c, 0, 64, 116
2, 156333, Control_c, 0, 64, 127
2, 156587, Note_on_c, 0, 50, 0
2, 156620, Note_on_c, 0, 72, 54
2, 156633, Note_on_c, 0, 43, 40
2, 156783, Note_on_c, 0, 72, 0
2, 156837, Note_on_c, 0, 71, 50
2, 156848, Control_c, 0, 64, 93
2, 156870, Control_c, 0, 64, 73
2, 156870, Note_on_c, 0, 55, 31
2, 156887, Control_c, 0, 64, 61
2, 156906, Control_c, 0, 64, 47
2, 156926, Control_c, 0, 64, 34
2, 156943, Control_c, 0, 64, 30
2, 157005, Control_c, 0, 64, 32
2, 157021, Control_c, 0, 64, 36
2, 157038, Control_c, 0, 64, 43
2, 157060, Control_c, 0, 64, 51
2, 157082, Control_c, 0, 64, 59
2, 157097, Control_c, 0, 64, 62
2, 157115, Control_c, 0, 64, 63
2, 157136, Control_c, 0, 64, 65
2, 157156, Control_c, 0, 64, 68
2, 157176, Control_c, 0, 64, 74
2, 157193, Control_c, 0, 64, 83
2, 157213, Control_c, 0, 64, 93
2, 157233, Control_c, 0, 64, 99
2, 157246, Note_on_c, 0, 77, 0
2, 157251, Control_c, 0, 64, 102
2, 157271, Control_c, 0, 64, 104
2, 157289, Control_c, 0, 64, 112
2, 157309, Control_c, 0, 64, 127
2, 157659, Note_on_c, 0, 74, 62
2, 157775, Note_on_c, 0, 74, 0
2, 157878, Note_on_c, 0, 75, 61
2, 157922, Control_c, 0, 64, 106
2, 157941, Control_c, 0, 64, 81
2, 157960, Control_c, 0, 64, 67
2, 157982, Control_c, 0, 64, 56
2, 158000, Control_c, 0, 64, 43
2, 158019, Control_c, 0, 64, 34
2, 158038, Control_c, 0, 64, 33
2, 158078, Control_c, 0, 64, 35
2, 158096, Control_c, 0, 64, 40
2, 158114, Control_c, 0, 64, 46
2, 158134, Control_c, 0, 64, 55
2, 158155, Control_c, 0, 64, 62
2, 158173, Control_c, 0, 64, 64
2, 158191, Control_c, 0, 64, 66
2, 158210, Control_c, 0, 64, 70
2, 158232, Control_c, 0, 64, 76
2, 158249, Control_c, 0, 64, 85
2, 158256, Note_on_c, 0, 71, 0
2, 158269, Control_c, 0, 64, 94
2, 158287, Control_c, 0, 64, 103
2, 158310, Control_c, 0, 64, 116
2, 158326, Control_c, 0, 64, 127
2, 158339, Note_on_c, 0, 55, 0
2, 158715, Note_on_c, 0, 67, 47
2, 158747, Note_on_c, 0, 53, 36
2, 158902, Control_c, 0, 64, 100
2, 158921, Control_c, 0, 64, 80
2, 158937, Note_on_c, 0, 67, 0
2, 158941, Control_c, 0, 64, 66
2, 158950, Note_on_c, 0, 72, 52
2, 158961, Control_c, 0, 64, 56
2, 158970, Note_on_c, 0, 51, 37
2, 158980, Control_c, 0, 64, 45
2, 158980, Note_on_c, 0, 53, 0
2, 158999, Control_c, 0, 64, 38
2, 159021, Control_c, 0, 64, 37
2, 159076, Control_c, 0, 64, 39
2, 159093, Control_c, 0, 64, 43
2, 159113, Control_c, 0, 64, 47
2, 159133, Control_c, 0, 64, 53
2, 159151, Control_c, 0, 64, 59
2, 159170, Control_c, 0, 64, 62
2, 159190, Control_c, 0, 64, 63
2, 159209, Control_c, 0, 64, 64
2, 159229, Control_c, 0, 64, 66
2, 159247, Control_c, 0, 64, 70
2, 159269, Control_c, 0, 64, 76
2, 159273, Note_on_c, 0, 75, 0
2, 159288, Control_c, 0, 64, 83
2, 159306, Control_c, 0, 64, 90
2, 159326, Control_c, 0, 64, 95
2, 159347, Control_c, 0, 64, 100
2, 159362, Control_c, 0, 64, 106
2, 159384, Control_c, 0, 64, 115
2, 159402, Control_c, 0, 64, 127
2, 159844, Note_on_c, 0, 74, 55
2, 159880, Note_on_c, 0, 55, 29
2, 160017, Note_on_c, 0, 74, 0
2, 160091, Note_on_c, 0, 75, 60
2, 160106, Note_on_c, 0, 51, 0
2, 160115, Control_c, 0, 64, 112
2, 160117, Note_on_c, 0, 48, 42
2, 160132, Control_c, 0, 64, 91
2, 160152, Control_c, 0, 64, 73
2, 160169, Control_c, 0, 64, 62
2, 160187, Control_c, 0, 64, 49
2, 160209, Control_c, 0, 64, 35
2, 160230, Control_c, 0, 64, 28
2, 160303, Control_c, 0, 64, 30
2, 160323, Control_c, 0, 64, 34
2, 160343, Control_c, 0, 64, 39
2, 160363, Control_c, 0, 64, 44
2, 160370, Note_on_c, 0, 55, 0
2, 160381, Control_c, 0, 64, 52
2, 160400, Control_c, 0, 64, 59
2, 160419, Control_c, 0, 64, 61
2, 160437, Control_c, 0, 64, 62
2, 160457, Control_c, 0, 64, 64
2, 160477, Control_c, 0, 64, 66
2, 160498, Control_c, 0, 64, 69
2, 160498, Note_on_c, 0, 72, 0
2, 160514, Control_c, 0, 64, 73
2, 160537, Control_c, 0, 64, 79
2, 160554, Control_c, 0, 64, 86
2, 160573, Control_c, 0, 64, 92
2, 160590, Control_c, 0, 64, 96
2, 160611, Control_c, 0, 64, 101
2, 160630, Control_c, 0, 64, 107
2, 160648, Control_c, 0, 64, 115
2, 160668, Control_c, 0, 64, 127
2, 160677, Note_on_c, 0, 75, 0
2, 161147, Note_on_c, 0, 51, 50
2, 161154, Note_on_c, 0, 72, 54
2, 161226, Control_c, 0, 64, 107
2, 161246, Control_c, 0, 64, 88
2, 161246, Note_on_c, 0, 48, 0
2, 161251, Note_on_c, 0, 51, 0
2, 161266, Control_c, 0, 64, 74
2, 161283, Control_c, 0, 64, 64
2, 161292, Note_on_c, 0, 50, 40
2, 161302, Control_c, 0, 64, 56
2, 161320, Control_c, 0, 64, 48
2, 161344, Control_c, 0, 64, 42
2, 161359, Control_c, 0, 64, 38
2, 161377, Control_c, 0, 64, 34
2, 161386, Note_on_c, 0, 50, 0
2, 161399, Control_c, 0, 64, 25
2, 161418, Control_c, 0, 64, 11
2, 161438, Control_c, 0, 64, 0
2, 161445, Note_on_c, 0, 51, 41
2, 161462, Note_on_c, 0, 79, 70
2, 161628, Control_c, 0, 64, 11
2, 161649, Control_c, 0, 64, 31
2, 161669, Control_c, 0, 64, 46
2, 161685, Control_c, 0, 64, 58
2, 161705, Control_c, 0, 64, 62
2, 161724, Control_c, 0, 64, 63
2, 161743, Note_on_c, 0, 79, 0
2, 161747, Control_c, 0, 64, 64
2, 161763, Control_c, 0, 64, 66
2, 161782, Control_c, 0, 64, 71
2, 161801, Control_c, 0, 64, 80
2, 161820, Control_c, 0, 64, 90
2, 161838, Control_c, 0, 64, 100
2, 161858, Control_c, 0, 64, 109
2, 161878, Control_c, 0, 64, 127
2, 162770, Note_on_c, 0, 78, 53
2, 162874, Note_on_c, 0, 78, 0
2, 163026, Note_on_c, 0, 50, 30
2, 163032, Note_on_c, 0, 79, 58
2, 163107, Control_c, 0, 64, 100
2, 163125, Control_c, 0, 64, 80
2, 163145, Control_c, 0, 64, 67
2, 163165, Control_c, 0, 64, 55
2, 163183, Control_c, 0, 64, 45
2, 163199, Note_on_c, 0, 51, 0
2, 163203, Control_c, 0, 64, 40
2, 163279, Control_c, 0, 64, 41
2, 163299, Control_c, 0, 64, 45
2, 163318, Control_c, 0, 64, 49
2, 163337, Control_c, 0, 64, 54
2, 163356, Control_c, 0, 64, 58
2, 163375, Control_c, 0, 64, 61
2, 163395, Control_c, 0, 64, 62
2, 163413, Control_c, 0, 64, 64
2, 163436, Control_c, 0, 64, 66
2, 163452, Control_c, 0, 64, 70
2, 163473, Control_c, 0, 64, 74
2, 163491, Control_c, 0, 64, 79
2, 163509, Control_c, 0, 64, 85
2, 163521, Note_on_c, 0, 72, 0
2, 163531, Control_c, 0, 64, 90
2, 163549, Control_c, 0, 64, 94
2, 163567, Control_c, 0, 64, 99
2, 163588, Control_c, 0, 64, 107
2, 163605, Control_c, 0, 64, 127
2, 164148, Note_on_c, 0, 72, 44
2, 164411, Note_on_c, 0, 74, 50
2, 164416, Control_c, 0, 64, 99
2, 164433, Control_c, 0, 64, 84
2, 164450, Control_c, 0, 64, 71
2, 164472, Control_c, 0, 64, 63
2, 164490, Control_c, 0, 64, 54
2, 164506, Note_on_c, 0, 72, 0
2, 164510, Control_c, 0, 64, 47
2, 164527, Control_c, 0, 64, 44
2, 164605, Control_c, 0, 64, 45
2, 164623, Control_c, 0, 64, 47
2, 164643, Control_c, 0, 64, 50
2, 164661, Control_c, 0, 64, 52
2, 164683, Control_c, 0, 64, 56
2, 164700, Control_c, 0, 64, 60
2, 164720, Control_c, 0, 64, 62
2, 164742, Control_c, 0, 64, 64
2, 164757, Control_c, 0, 64, 65
2, 164779, Control_c, 0, 64, 67
2, 164795, Control_c, 0, 64, 70
2, 164815, Control_c, 0, 64, 78
2, 164834, Control_c, 0, 64, 87
2, 164854, Control_c, 0, 64, 96
2, 164873, Control_c, 0, 64, 102
2, 164891, Control_c, 0, 64, 106
2, 164914, Control_c, 0, 64, 116
2, 164931, Control_c, 0, 64, 127
2, 165849, Note_on_c, 0, 69, 35
2, 166159, Control_c, 0, 64, 109
2, 166168, Note_on_c, 0, 71, 38
2, 166181, Control_c, 0, 64, 95
2, 166196, Control_c, 0, 64, 81
2, 166219, Control_c, 0, 64, 72
2, 166231, Note_on_c, 0, 69, 0
2, 166236, Control_c, 0, 64, 65
2, 166256, Control_c, 0, 64, 60
2, 166275, Control_c, 0, 64, 59
2, 166332, Control_c, 0, 64, 58
2, 166370, Control_c, 0, 64, 57
2, 166409, Control_c, 0, 64, 55
2, 166429, Control_c, 0, 64, 54
2, 166448, Control_c, 0, 64, 53
2, 166467, Control_c, 0, 64, 52
2, 166504, Control_c, 0, 64, 53
2, 166582, Control_c, 0, 64, 54
2, 166639, Control_c, 0, 64, 55
2, 166832, Control_c, 0, 64, 56
2, 166946, Control_c, 0, 64, 57
2, 166984, Control_c, 0, 64, 58
2, 167004, Control_c, 0, 64, 60
2, 167026, Control_c, 0, 64, 61
2, 167046, Control_c, 0, 64, 62
2, 167064, Control_c, 0, 64, 63
2, 167101, Control_c, 0, 64, 64
2, 167119, Control_c, 0, 64, 65
2, 167138, Control_c, 0, 64, 66
2, 167158, Control_c, 0, 64, 67
2, 167178, Control_c, 0, 64, 68
2, 167195, Control_c, 0, 64, 70
2, 167216, Control_c, 0, 64, 71
2, 167234, Control_c, 0, 64, 73
2, 167255, Control_c, 0, 64, 74
2, 167275, Control_c, 0, 64, 76
2, 167293, Control_c, 0, 64, 78
2, 167313, Control_c, 0, 64, 81
2, 167331, Control_c, 0, 64, 84
2, 167348, Control_c, 0, 64, 85
2, 167388, Control_c, 0, 64, 86
2, 167409, Control_c, 0, 64, 88
2, 167425, Control_c, 0, 64, 91
2, 167445, Control_c, 0, 64, 93
2, 167466, Control_c, 0, 64, 94
2, 167503, Control_c, 0, 64, 96
2, 167522, Control_c, 0, 64, 101
2, 167541, Control_c, 0, 64, 106
2, 167563, Control_c, 0, 64, 111
2, 167580, Control_c, 0, 64, 113
2, 167601, Control_c, 0, 64, 116
2, 167622, Control_c, 0, 64, 127
2, 168830, Note_on_c, 0, 74, 0
2, 168897, Note_on_c, 0, 50, 0
2, 168897, Note_on_c, 0, 79, 0
2, 168908, Note_on_c, 0, 71, 0
2, 169315, Note_on_c, 0, 43, 0
2, 169385, Control_c, 0, 64, 122
2, 169407, Control_c, 0, 64, 111
2, 169425, Control_c, 0, 64, 109
2, 169442, Control_c, 0, 64, 108
2, 169460, Control_c, 0, 64, 106
2, 169480, Control_c, 0, 64, 103
2, 169503, Control_c, 0, 64, 100
2, 169520, Control_c, 0, 64, 98
2, 169540, Control_c, 0, 64, 97
2, 169557, Control_c, 0, 64, 94
2, 169576, Control_c, 0, 64, 90
2, 169597, Control_c, 0, 64, 86
2, 169615, Control_c, 0, 64, 81
2, 169633, Control_c, 0, 64, 76
2, 169653, Control_c, 0, 64, 73
2, 169672, Control_c, 0, 64, 70
2, 169691, Control_c, 0, 64, 68
2, 169710, Control_c, 0, 64, 67
2, 169771, Control_c, 0, 64, 66
2, 169789, Control_c, 0, 64, 65
2, 169827, Control_c, 0, 64, 64
2, 169866, Control_c, 0, 64, 63
2, 169903, Control_c, 0, 64, 62
2, 169941, Control_c, 0, 64, 61
2, 169982, Control_c, 0, 64, 60
2, 170056, Control_c, 0, 64, 59
2, 170113, Control_c, 0, 64, 58
2, 170155, Control_c, 0, 64, 57
2, 170172, Control_c, 0, 64, 56
2, 170249, Control_c, 0, 64, 55
2, 170288, Control_c, 0, 64, 54
2, 170326, Control_c, 0, 64, 53
2, 170345, Control_c, 0, 64, 52
2, 170383, Control_c, 0, 64, 51
2, 170402, Control_c, 0, 64, 49
2, 170421, Control_c, 0, 64, 48
2, 170443, Control_c, 0, 64, 47
2, 170461, Control_c, 0, 64, 45
2, 170479, Control_c, 0, 64, 44
2, 170499, Control_c, 0, 64, 43
2, 170518, Control_c, 0, 64, 42
2, 170538, Control_c, 0, 64, 41
2, 170575, Control_c, 0, 64, 39
2, 170595, Control_c, 0, 64, 27
2, 170613, Control_c, 0, 64, 0
2, 171228,End_track
0, 0, End_of_file
