0, 0, Header, 1, 2, 384
1, 0, Start_track
1, 0, Tempo, 500000
1, 0, Time_signature, 4, 2, 24, 8
1, 1, End_track
2,0,Start_track
2,0, Note_on_c, 0, 67, 74
2,51, Control_c, 0, 64, 113
2,61, Note_on_c, 0, 62, 91
2,66, Control_c, 0, 64, 74
2,82, Control_c, 0, 64, 58
2,88, Note_on_c, 0, 67, 0
2,97, Control_c, 0, 64, 26
2,112, Control_c, 0, 64, 0
2,173, Control_c, 0, 64, 29
2,196, Control_c, 0, 64, 34
2,225, Control_c, 0, 64, 36
2,241, Control_c, 0, 64, 47
2,256, Control_c, 0, 64, 56
2,271, Control_c, 0, 64, 57
2,287, Control_c, 0, 64, 58
2,302, Control_c, 0, 64, 59
2,318, Control_c, 0, 64, 61
2,333, Control_c, 0, 64, 64
2,347, Control_c, 0, 64, 67
2,363, Control_c, 0, 64, 68
2,378, Control_c, 0, 64, 71
2,393, Control_c, 0, 64, 75
2,409, Control_c, 0, 64, 78
2,423, Control_c, 0, 64, 80
2,439, Control_c, 0, 64, 83
2,454, Control_c, 0, 64, 87
2,468, Control_c, 0, 64, 94
2,484, Control_c, 0, 64, 102
2,499, Control_c, 0, 64, 121
2,514, Control_c, 0, 64, 127
2,722, Note_on_c, 0, 65, 81
2,733, Note_on_c, 0, 62, 0
2,773, Control_c, 0, 64, 90
2,788, Control_c, 0, 64, 68
2,791, Note_on_c, 0, 63, 74
2,804, Control_c, 0, 64, 54
2,819, Control_c, 0, 64, 19
2,821, Note_on_c, 0, 65, 0
2,834, Control_c, 0, 64, 0
2,964, Control_c, 0, 64, 12
2,978, Control_c, 0, 64, 39
2,993, Control_c, 0, 64, 47
2,1040, Control_c, 0, 64, 50
2,1054, Control_c, 0, 64, 56
2,1069, Control_c, 0, 64, 59
2,1085, Control_c, 0, 64, 60
2,1116, Control_c, 0, 64, 60
2,1131, Control_c, 0, 64, 62
2,1146, Control_c, 0, 64, 64
2,1161, Control_c, 0, 64, 65
2,1176, Control_c, 0, 64, 65
2,1191, Control_c, 0, 64, 66
2,1207, Control_c, 0, 64, 68
2,1222, Control_c, 0, 64, 71
2,1238, Control_c, 0, 64, 75
2,1253, Control_c, 0, 64, 81
2,1267, Control_c, 0, 64, 91
2,1283, Control_c, 0, 64, 112
2,1298, Control_c, 0, 64, 127
2,1446, Note_on_c, 0, 58, 63
2,1522, Note_on_c, 0, 57, 66
2,1525, Control_c, 0, 64, 98
2,1525, Note_on_c, 0, 58, 0
2,1540, Control_c, 0, 64, 75
2,1556, Control_c, 0, 64, 63
2,1572, Control_c, 0, 64, 49
2,1587, Control_c, 0, 64, 32
2,1603, Control_c, 0, 64, 28
2,1617, Control_c, 0, 64, 29
2,1632, Control_c, 0, 64, 35
2,1648, Control_c, 0, 64, 43
2,1663, Control_c, 0, 64, 47
2,1679, Control_c, 0, 64, 49
2,1693, Control_c, 0, 64, 50
2,1708, Control_c, 0, 64, 53
2,1732, Control_c, 0, 64, 57
2,1746, Control_c, 0, 64, 60
2,1762, Control_c, 0, 64, 60
2,1792, Control_c, 0, 64, 61
2,1808, Control_c, 0, 64, 63
2,1822, Control_c, 0, 64, 64
2,1838, Control_c, 0, 64, 65
2,1853, Control_c, 0, 64, 66
2,1868, Control_c, 0, 64, 67
2,1884, Control_c, 0, 64, 69
2,1898, Control_c, 0, 64, 70
2,1913, Control_c, 0, 64, 71
2,1929, Control_c, 0, 64, 72
2,1944, Control_c, 0, 64, 75
2,1959, Control_c, 0, 64, 80
2,1974, Control_c, 0, 64, 86
2,1989, Control_c, 0, 64, 92
2,2005, Control_c, 0, 64, 100
2,2020, Control_c, 0, 64, 117
2,2036, Control_c, 0, 64, 127
2,2156, Note_on_c, 0, 60, 59
2,2191, Note_on_c, 0, 57, 0
2,2247, Note_on_c, 0, 54, 57
2,2268, Note_on_c, 0, 60, 0
2,2279, Control_c, 0, 64, 85
2,2294, Control_c, 0, 64, 68
2,2308, Control_c, 0, 64, 58
2,2324, Control_c, 0, 64, 48
2,2339, Control_c, 0, 64, 42
2,2353, Control_c, 0, 64, 43
2,2369, Control_c, 0, 64, 48
2,2385, Control_c, 0, 64, 56
2,2401, Control_c, 0, 64, 61
2,2416, Control_c, 0, 64, 64
2,2431, Control_c, 0, 64, 66
2,2447, Control_c, 0, 64, 70
2,2461, Control_c, 0, 64, 75
2,2477, Control_c, 0, 64, 81
2,2500, Control_c, 0, 64, 93
2,2516, Control_c, 0, 64, 127
2,2665, Note_on_c, 0, 63, 0
2,2827, Note_on_c, 0, 63, 60
2,2878, Note_on_c, 0, 62, 69
2,2907, Note_on_c, 0, 62, 0
2,2965, Note_on_c, 0, 62, 76
2,2971, Control_c, 0, 64, 107
2,2977, Note_on_c, 0, 63, 0
2,2986, Control_c, 0, 64, 71
2,3001, Control_c, 0, 64, 52
2,3016, Control_c, 0, 64, 0
2,3168, Control_c, 0, 64, 27
2,3183, Control_c, 0, 64, 48
2,3200, Control_c, 0, 64, 53
2,3215, Control_c, 0, 64, 54
2,3229, Control_c, 0, 64, 56
2,3245, Control_c, 0, 64, 60
2,3267, Control_c, 0, 64, 63
2,3283, Control_c, 0, 64, 65
2,3298, Control_c, 0, 64, 67
2,3313, Control_c, 0, 64, 71
2,3329, Control_c, 0, 64, 76
2,3344, Control_c, 0, 64, 85
2,3360, Control_c, 0, 64, 99
2,3375, Control_c, 0, 64, 127
2,3610, Note_on_c, 0, 60, 70
2,3636, Note_on_c, 0, 62, 0
2,3706, Note_on_c, 0, 60, 0
2,3707, Note_on_c, 0, 69, 81
2,3720, Control_c, 0, 64, 78
2,3736, Control_c, 0, 64, 62
2,3751, Control_c, 0, 64, 43
2,3767, Control_c, 0, 64, 0
2,3828, Control_c, 0, 64, 38
2,3844, Control_c, 0, 64, 50
2,3859, Control_c, 0, 64, 52
2,3873, Control_c, 0, 64, 54
2,3889, Control_c, 0, 64, 58
2,3904, Control_c, 0, 64, 62
2,3919, Control_c, 0, 64, 65
2,3935, Control_c, 0, 64, 67
2,3950, Control_c, 0, 64, 70
2,3965, Control_c, 0, 64, 77
2,3980, Control_c, 0, 64, 89
2,3995, Control_c, 0, 64, 127
2,4040, Note_on_c, 0, 69, 0
2,4301, Note_on_c, 0, 60, 54
2,4349, Note_on_c, 0, 58, 65
2,4359, Note_on_c, 0, 60, 0
2,4379, Note_on_c, 0, 58, 0
2,4429, Control_c, 0, 64, 113
2,4445, Control_c, 0, 64, 69
2,4451, Note_on_c, 0, 58, 64
2,4460, Control_c, 0, 64, 49
2,4475, Control_c, 0, 64, 0
2,4581, Control_c, 0, 64, 16
2,4611, Control_c, 0, 64, 26
2,4626, Control_c, 0, 64, 49
2,4641, Control_c, 0, 64, 60
2,4655, Control_c, 0, 64, 62
2,4669, Control_c, 0, 64, 62
2,4684, Control_c, 0, 64, 64
2,4700, Control_c, 0, 64, 68
2,4715, Control_c, 0, 64, 75
2,4731, Control_c, 0, 64, 88
2,4746, Control_c, 0, 64, 111
2,4760, Control_c, 0, 64, 127
2,4773, Note_on_c, 0, 43, 0
2,4795, Note_on_c, 0, 54, 0
2,5057, Note_on_c, 0, 57, 56
2,5095, Note_on_c, 0, 58, 0
2,5114, Note_on_c, 0, 57, 0
2,5163, Note_on_c, 0, 55, 41
2,5168, Note_on_c, 0, 58, 43
2,5210, Control_c, 0, 64, 85
2,5225, Control_c, 0, 64, 63
2,5240, Control_c, 0, 64, 13
2,5255, Control_c, 0, 64, 0
2,5346, Control_c, 0, 64, 33
2,5361, Control_c, 0, 64, 39
2,5377, Control_c, 0, 64, 44
2,5392, Control_c, 0, 64, 52
2,5406, Control_c, 0, 64, 56
2,5422, Control_c, 0, 64, 58
2,5437, Control_c, 0, 64, 59
2,5453, Control_c, 0, 64, 61
2,5468, Control_c, 0, 64, 65
2,5482, Control_c, 0, 64, 70
2,5498, Control_c, 0, 64, 75
2,5513, Control_c, 0, 64, 80
2,5528, Control_c, 0, 64, 86
2,5544, Control_c, 0, 64, 97
2,5566, Control_c, 0, 64, 127
2,5766, Note_on_c, 0, 74, 84
2,5850, Note_on_c, 0, 60, 51
2,5865, Note_on_c, 0, 69, 86
2,5886, Control_c, 0, 64, 85
2,5902, Control_c, 0, 64, 66
2,5905, Note_on_c, 0, 74, 0
2,5917, Control_c, 0, 64, 52
2,5933, Control_c, 0, 64, 36
2,5948, Control_c, 0, 64, 20
2,5962, Control_c, 0, 64, 17
2,5978, Control_c, 0, 64, 20
2,5982, Note_on_c, 0, 58, 0
2,5993, Control_c, 0, 64, 38
2,6008, Control_c, 0, 64, 50
2,6024, Control_c, 0, 64, 52
2,6038, Control_c, 0, 64, 53
2,6054, Control_c, 0, 64, 56
2,6069, Control_c, 0, 64, 62
2,6084, Control_c, 0, 64, 66
2,6099, Control_c, 0, 64, 69
2,6114, Control_c, 0, 64, 71
2,6130, Control_c, 0, 64, 74
2,6145, Control_c, 0, 64, 81
2,6160, Control_c, 0, 64, 98
2,6175, Control_c, 0, 64, 127
2,6459, Note_on_c, 0, 72, 74
2,6568, Note_on_c, 0, 62, 57
2,6571, Note_on_c, 0, 70, 83
2,6579, Control_c, 0, 64, 89
2,6594, Control_c, 0, 64, 68
2,6608, Control_c, 0, 64, 57
2,6611, Note_on_c, 0, 72, 0
2,6624, Control_c, 0, 64, 46
2,6629, Note_on_c, 0, 60, 0
2,6639, Control_c, 0, 64, 28
2,6655, Control_c, 0, 64, 0
2,6683, Note_on_c, 0, 69, 0
2,7212, Note_on_c, 0, 65, 62
2,7311, Note_on_c, 0, 64, 61
2,7312, Note_on_c, 0, 65, 0
2,7903, Note_on_c, 0, 67, 56
2,7964, Note_on_c, 0, 64, 0
2,8018, Note_on_c, 0, 61, 48
2,8056, Control_c, 0, 64, 20
2,8060, Note_on_c, 0, 67, 0
2,8069, Note_on_c, 0, 62, 0
2,8071, Control_c, 0, 64, 21
2,8087, Control_c, 0, 64, 22
2,8102, Control_c, 0, 64, 29
2,8117, Control_c, 0, 64, 43
2,8133, Control_c, 0, 64, 49
2,8148, Control_c, 0, 64, 50
2,8164, Control_c, 0, 64, 50
2,8179, Control_c, 0, 64, 56
2,8193, Control_c, 0, 64, 63
2,8209, Control_c, 0, 64, 68
2,8224, Control_c, 0, 64, 72
2,8239, Control_c, 0, 64, 80
2,8255, Control_c, 0, 64, 127
2,8420, Note_on_c, 0, 70, 0
2,8583, Note_on_c, 0, 70, 65
2,8644, Note_on_c, 0, 70, 0
2,8650, Note_on_c, 0, 69, 71
2,8675, Note_on_c, 0, 69, 0
2,8704, Note_on_c, 0, 70, 54
2,8744, Note_on_c, 0, 70, 0
2,8746, Note_on_c, 0, 69, 77
2,8778, Control_c, 0, 64, 78
2,8793, Control_c, 0, 64, 62
2,8809, Control_c, 0, 64, 39
2,8824, Control_c, 0, 64, 0
2,8900, Control_c, 0, 64, 24
2,8914, Control_c, 0, 64, 25
2,8946, Control_c, 0, 64, 34
2,8961, Control_c, 0, 64, 49
2,8977, Control_c, 0, 64, 54
2,9022, Control_c, 0, 64, 54
2,9037, Control_c, 0, 64, 58
2,9053, Control_c, 0, 64, 60
2,9098, Control_c, 0, 64, 60
2,9113, Control_c, 0, 64, 63
2,9129, Control_c, 0, 64, 64
2,9143, Control_c, 0, 64, 64
2,9174, Control_c, 0, 64, 66
2,9188, Control_c, 0, 64, 68
2,9204, Control_c, 0, 64, 72
2,9219, Control_c, 0, 64, 80
2,9234, Control_c, 0, 64, 90
2,9250, Control_c, 0, 64, 110
2,9264, Control_c, 0, 64, 127
2,9381, Note_on_c, 0, 67, 68
2,9429, Note_on_c, 0, 69, 0
2,9487, Note_on_c, 0, 67, 0
2,9496, Note_on_c, 0, 76, 80
2,9500, Control_c, 0, 64, 79
2,9515, Control_c, 0, 64, 60
2,9531, Control_c, 0, 64, 40
2,9546, Control_c, 0, 64, 21
2,9560, Control_c, 0, 64, 18
2,9576, Control_c, 0, 64, 25
2,9591, Control_c, 0, 64, 46
2,9607, Control_c, 0, 64, 59
2,9622, Control_c, 0, 64, 62
2,9636, Control_c, 0, 64, 63
2,9652, Control_c, 0, 64, 64
2,9667, Control_c, 0, 64, 66
2,9683, Control_c, 0, 64, 70
2,9698, Control_c, 0, 64, 76
2,9713, Control_c, 0, 64, 82
2,9728, Control_c, 0, 64, 93
2,9743, Control_c, 0, 64, 127
2,9889, Note_on_c, 0, 76, 0
2,10066, Note_on_c, 0, 67, 74
2,10129, Note_on_c, 0, 67, 0
2,10142, Note_on_c, 0, 66, 73
2,10205, Note_on_c, 0, 66, 0
2,10209, Control_c, 0, 64, 81
2,10209, Note_on_c, 0, 67, 75
2,10224, Control_c, 0, 64, 62
2,10240, Control_c, 0, 64, 33
2,10254, Control_c, 0, 64, 0
2,10268, Note_on_c, 0, 66, 68
2,10281, Note_on_c, 0, 67, 0
2,10316, Control_c, 0, 64, 18
2,10330, Control_c, 0, 64, 40
2,10345, Control_c, 0, 64, 53
2,10361, Control_c, 0, 64, 57
2,10376, Control_c, 0, 64, 59
2,10407, Control_c, 0, 64, 59
2,10422, Control_c, 0, 64, 62
2,10437, Control_c, 0, 64, 65
2,10452, Control_c, 0, 64, 68
2,10467, Control_c, 0, 64, 70
2,10483, Control_c, 0, 64, 72
2,10485, Note_on_c, 0, 61, 0
2,10498, Control_c, 0, 64, 73
2,10513, Control_c, 0, 64, 76
2,10528, Control_c, 0, 64, 81
2,10543, Control_c, 0, 64, 90
2,10559, Control_c, 0, 64, 108
2,10566, Note_on_c, 0, 55, 0
2,10575, Control_c, 0, 64, 127
2,10818, Note_on_c, 0, 66, 0
2,10843, Note_on_c, 0, 64, 55
2,10946, Control_c, 0, 64, 101
2,10947, Note_on_c, 0, 64, 0
2,10958, Note_on_c, 0, 50, 44
2,10961, Control_c, 0, 64, 72
2,10963, Note_on_c, 0, 66, 58
2,10976, Control_c, 0, 64, 58
2,10978, Note_on_c, 0, 62, 45
2,10991, Control_c, 0, 64, 36
2,11007, Control_c, 0, 64, 0
2,11513, Note_on_c, 0, 67, 59
2,11538, Note_on_c, 0, 66, 0
2,11639, Note_on_c, 0, 69, 66
2,11664, Note_on_c, 0, 67, 0
2,11966, Note_on_c, 0, 60, 50
2,12082, Note_on_c, 0, 62, 0
2,12286, Note_on_c, 0, 58, 53
2,12358, Note_on_c, 0, 60, 0
2,12864, Note_on_c, 0, 62, 59
2,12963, Note_on_c, 0, 67, 72
2,13058, Note_on_c, 0, 62, 0
2,13128, Note_on_c, 0, 69, 0
2,13550, Note_on_c, 0, 70, 62
2,13671, Note_on_c, 0, 57, 46
2,13671, Note_on_c, 0, 72, 62
2,13714, Note_on_c, 0, 70, 0
2,13720, Note_on_c, 0, 58, 0
2,13843, Control_c, 0, 64, 24
2,13859, Control_c, 0, 64, 34
2,13874, Control_c, 0, 64, 37
2,13890, Control_c, 0, 64, 42
2,13905, Control_c, 0, 64, 50
2,13921, Control_c, 0, 64, 56
2,13935, Control_c, 0, 64, 59
2,13950, Control_c, 0, 64, 60
2,13966, Control_c, 0, 64, 61
2,13980, Control_c, 0, 64, 63
2,13981, Note_on_c, 0, 67, 0
2,13996, Control_c, 0, 64, 64
2,14019, Control_c, 0, 64, 66
2,14034, Control_c, 0, 64, 67
2,14050, Control_c, 0, 64, 68
2,14064, Control_c, 0, 64, 70
2,14080, Control_c, 0, 64, 71
2,14095, Control_c, 0, 64, 72
2,14110, Control_c, 0, 64, 73
2,14126, Control_c, 0, 64, 75
2,14140, Control_c, 0, 64, 78
2,14156, Control_c, 0, 64, 80
2,14171, Control_c, 0, 64, 81
2,14231, Control_c, 0, 64, 80
2,14247, Control_c, 0, 64, 79
2,14262, Control_c, 0, 64, 79
2,14274, Note_on_c, 0, 67, 51
2,14278, Control_c, 0, 64, 78
2,14292, Control_c, 0, 64, 77
2,14307, Control_c, 0, 64, 75
2,14323, Control_c, 0, 64, 71
2,14338, Control_c, 0, 64, 68
2,14353, Control_c, 0, 64, 66
2,14369, Control_c, 0, 64, 64
2,14384, Control_c, 0, 64, 63
2,14385, Note_on_c, 0, 66, 50
2,14399, Control_c, 0, 64, 62
2,14414, Control_c, 0, 64, 61
2,14424, Note_on_c, 0, 67, 0
2,14429, Control_c, 0, 64, 61
2,14445, Control_c, 0, 64, 60
2,14460, Control_c, 0, 64, 59
2,14474, Control_c, 0, 64, 59
2,14490, Control_c, 0, 64, 58
2,14520, Control_c, 0, 64, 57
2,14566, Control_c, 0, 64, 57
2,14642, Control_c, 0, 64, 56
2,14818, Control_c, 0, 64, 57
2,14952, Note_on_c, 0, 64, 46
2,14962, Note_on_c, 0, 66, 0
2,15076, Note_on_c, 0, 66, 59
2,15092, Note_on_c, 0, 64, 0
2,15258, Control_c, 0, 64, 57
2,15364, Control_c, 0, 64, 58
2,15518, Control_c, 0, 64, 58
2,15579, Note_on_c, 0, 74, 70
2,15683, Note_on_c, 0, 69, 80
2,15698, Note_on_c, 0, 62, 46
2,15709, Note_on_c, 0, 72, 0
2,15720, Note_on_c, 0, 74, 0
2,15771, Note_on_c, 0, 57, 0
2,15859, Control_c, 0, 64, 59
2,15935, Control_c, 0, 64, 59
2,15989, Note_on_c, 0, 51, 71
2,16039, Note_on_c, 0, 50, 0
2,16128, Note_on_c, 0, 72, 60
2,16214, Note_on_c, 0, 66, 0
2,16335, Note_on_c, 0, 53, 59
2,16338, Control_c, 0, 64, 59
2,16338, Note_on_c, 0, 67, 57
2,16339, Note_on_c, 0, 71, 67
2,16399, Control_c, 0, 64, 58
2,16404, Note_on_c, 0, 72, 0
2,16414, Control_c, 0, 64, 57
2,16415, Note_on_c, 0, 51, 0
2,16445, Control_c, 0, 64, 57
2,16463, Note_on_c, 0, 69, 0
2,16506, Control_c, 0, 64, 56
2,16858, Note_on_c, 0, 72, 70
2,16902, Note_on_c, 0, 71, 0
2,16990, Note_on_c, 0, 74, 74
2,17048, Note_on_c, 0, 72, 0
2,17306, Note_on_c, 0, 59, 65
2,17417, Note_on_c, 0, 62, 0
2,17592, Control_c, 0, 64, 57
2,17651, Note_on_c, 0, 51, 62
2,17664, Note_on_c, 0, 55, 60
2,17686, Note_on_c, 0, 53, 0
2,17689, Note_on_c, 0, 59, 0
2,17805, Control_c, 0, 64, 57
2,17820, Control_c, 0, 64, 58
2,17836, Control_c, 0, 64, 59
2,17873, Control_c, 0, 64, 60
2,17889, Control_c, 0, 64, 61
2,17903, Control_c, 0, 64, 63
2,17919, Control_c, 0, 64, 66
2,17934, Control_c, 0, 64, 68
2,17950, Control_c, 0, 64, 71
2,17966, Control_c, 0, 64, 75
2,17981, Control_c, 0, 64, 81
2,17997, Control_c, 0, 64, 88
2,18011, Control_c, 0, 64, 100
2,18026, Control_c, 0, 64, 127
2,18071, Note_on_c, 0, 67, 0
2,18218, Note_on_c, 0, 67, 75
2,18309, Note_on_c, 0, 63, 60
2,18316, Control_c, 0, 64, 92
2,18318, Note_on_c, 0, 72, 85
2,18331, Control_c, 0, 64, 71
2,18345, Control_c, 0, 64, 60
2,18361, Control_c, 0, 64, 42
2,18372, Note_on_c, 0, 55, 0
2,18375, Note_on_c, 0, 67, 0
2,18376, Control_c, 0, 64, 20
2,18391, Control_c, 0, 64, 0
2,18393, Note_on_c, 0, 74, 0
2,18407, Control_c, 0, 64, 9
2,18421, Control_c, 0, 64, 26
2,18437, Control_c, 0, 64, 43
2,18452, Control_c, 0, 64, 54
2,18466, Control_c, 0, 64, 59
2,18482, Control_c, 0, 64, 62
2,18497, Control_c, 0, 64, 65
2,18512, Control_c, 0, 64, 69
2,18528, Control_c, 0, 64, 77
2,18542, Control_c, 0, 64, 91
2,18558, Control_c, 0, 64, 127
2,18886, Note_on_c, 0, 75, 82
2,18988, Note_on_c, 0, 77, 88
2,18991, Control_c, 0, 64, 104
2,18993, Note_on_c, 0, 50, 55
2,18993, Note_on_c, 0, 56, 71
2,19007, Control_c, 0, 64, 73
2,19020, Note_on_c, 0, 51, 0
2,19020, Note_on_c, 0, 75, 0
2,19022, Control_c, 0, 64, 58
2,19038, Control_c, 0, 64, 28
2,19053, Control_c, 0, 64, 0
2,19102, Note_on_c, 0, 63, 0
2,19160, Control_c, 0, 64, 21
2,19175, Control_c, 0, 64, 42
2,19189, Control_c, 0, 64, 48
2,19205, Control_c, 0, 64, 49
2,19220, Control_c, 0, 64, 52
2,19236, Control_c, 0, 64, 58
2,19251, Control_c, 0, 64, 63
2,19265, Control_c, 0, 64, 66
2,19281, Control_c, 0, 64, 67
2,19296, Control_c, 0, 64, 68
2,19310, Control_c, 0, 64, 71
2,19326, Control_c, 0, 64, 75
2,19341, Control_c, 0, 64, 83
2,19357, Control_c, 0, 64, 92
2,19372, Control_c, 0, 64, 110
2,19383, Note_on_c, 0, 72, 0
2,19394, Control_c, 0, 64, 127
2,19585, Note_on_c, 0, 72, 70
2,19669, Control_c, 0, 64, 110
2,19685, Control_c, 0, 64, 75
2,19690, Note_on_c, 0, 71, 72
2,19699, Control_c, 0, 64, 60
2,19701, Note_on_c, 0, 53, 50
2,19714, Control_c, 0, 64, 34
2,19723, Note_on_c, 0, 72, 0
2,19730, Control_c, 0, 64, 0
2,19745, Note_on_c, 0, 56, 0
2,20254, Note_on_c, 0, 69, 59
2,20290, Note_on_c, 0, 71, 0
2,20361, Note_on_c, 0, 71, 68
2,20386, Note_on_c, 0, 69, 0
2,20394, Note_on_c, 0, 55, 51
2,20411, Note_on_c, 0, 53, 0
2,20556, Control_c, 0, 64, 45
2,20572, Control_c, 0, 64, 58
2,20586, Control_c, 0, 64, 64
2,20589, Note_on_c, 0, 77, 0
2,20601, Control_c, 0, 64, 67
2,20617, Control_c, 0, 64, 75
2,20632, Control_c, 0, 64, 95
2,20648, Control_c, 0, 64, 127
2,20677, Note_on_c, 0, 50, 0
2,20977, Note_on_c, 0, 79, 90
2,21064, Note_on_c, 0, 74, 89
2,21065, Control_c, 0, 64, 77
2,21067, Note_on_c, 0, 43, 60
2,21079, Control_c, 0, 64, 60
2,21095, Control_c, 0, 64, 23
2,21103, Note_on_c, 0, 79, 0
2,21110, Control_c, 0, 64, 0
2,21171, Control_c, 0, 64, 28
2,21186, Control_c, 0, 64, 49
2,21200, Control_c, 0, 64, 56
2,21216, Control_c, 0, 64, 59
2,21232, Control_c, 0, 64, 62
2,21248, Control_c, 0, 64, 66
2,21263, Control_c, 0, 64, 71
2,21278, Control_c, 0, 64, 80
2,21294, Control_c, 0, 64, 94
2,21308, Control_c, 0, 64, 127
2,21670, Note_on_c, 0, 77, 86
2,21756, Control_c, 0, 64, 80
2,21771, Control_c, 0, 64, 61
2,21771, Note_on_c, 0, 48, 67
2,21779, Note_on_c, 0, 75, 77
2,21786, Control_c, 0, 64, 33
2,21801, Control_c, 0, 64, 0
2,21806, Note_on_c, 0, 77, 0
2,21823, Note_on_c, 0, 74, 0
2,21852, Note_on_c, 0, 43, 0
2,22011, Note_on_c, 0, 71, 0
2,22420, Note_on_c, 0, 72, 67
2,22524, Note_on_c, 0, 67, 64
2,22537, Note_on_c, 0, 72, 0
2,22827, Control_c, 0, 64, 12
2,22950, Control_c, 0, 64, 13
2,22966, Control_c, 0, 64, 17
2,22995, Control_c, 0, 64, 18
2,23026, Control_c, 0, 64, 21
2,23040, Control_c, 0, 64, 24
2,23057, Control_c, 0, 64, 25
2,23092, Note_on_c, 0, 70, 68
2,23169, Note_on_c, 0, 75, 0
2,23181, Note_on_c, 0, 68, 81
2,23206, Note_on_c, 0, 67, 0
2,23244, Note_on_c, 0, 70, 0
2,23814, Note_on_c, 0, 63, 62
2,23874, Note_on_c, 0, 55, 0
2,23903, Note_on_c, 0, 62, 58
2,23924, Note_on_c, 0, 63, 0
2,24152, Control_c, 0, 64, 25
2,24243, Control_c, 0, 64, 26
2,24538, Note_on_c, 0, 65, 50
2,24633, Note_on_c, 0, 62, 0
2,24639, Control_c, 0, 64, 27
2,24654, Control_c, 0, 64, 28
2,24655, Note_on_c, 0, 59, 51
2,24700, Control_c, 0, 64, 30
2,24713, Note_on_c, 0, 65, 0
2,24715, Control_c, 0, 64, 35
2,24730, Control_c, 0, 64, 40
2,24745, Control_c, 0, 64, 43
2,24768, Control_c, 0, 64, 44
2,24783, Control_c, 0, 64, 45
2,24798, Control_c, 0, 64, 48
2,24814, Control_c, 0, 64, 53
2,24829, Control_c, 0, 64, 57
2,24844, Control_c, 0, 64, 60
2,24859, Control_c, 0, 64, 61
2,24874, Control_c, 0, 64, 62
2,24890, Control_c, 0, 64, 63
2,24905, Control_c, 0, 64, 64
2,24920, Control_c, 0, 64, 66
2,24936, Control_c, 0, 64, 67
2,24950, Control_c, 0, 64, 69
2,24966, Control_c, 0, 64, 71
2,24981, Control_c, 0, 64, 73
2,24996, Control_c, 0, 64, 75
2,25012, Control_c, 0, 64, 77
2,25026, Control_c, 0, 64, 80
2,25041, Control_c, 0, 64, 85
2,25057, Control_c, 0, 64, 94
2,25069, Note_on_c, 0, 68, 0
2,25071, Control_c, 0, 64, 114
2,25087, Control_c, 0, 64, 127
2,25314, Note_on_c, 0, 68, 58
2,25346, Control_c, 0, 64, 101
2,25361, Control_c, 0, 64, 84
2,25376, Control_c, 0, 64, 75
2,25391, Control_c, 0, 64, 68
2,25398, Note_on_c, 0, 67, 59
2,25407, Control_c, 0, 64, 64
2,25422, Control_c, 0, 64, 62
2,25437, Control_c, 0, 64, 61
2,25453, Control_c, 0, 64, 60
2,25460, Note_on_c, 0, 68, 0
2,25468, Control_c, 0, 64, 60
2,25484, Control_c, 0, 64, 58
2,25498, Control_c, 0, 64, 57
2,25513, Control_c, 0, 64, 57
2,25551, Control_c, 0, 64, 56
2,25567, Control_c, 0, 64, 55
2,25581, Control_c, 0, 64, 53
2,25657, Control_c, 0, 64, 52
2,25672, Control_c, 0, 64, 52
2,25946, Control_c, 0, 64, 52
2,26056, Note_on_c, 0, 65, 58
2,26113, Control_c, 0, 64, 53
2,26133, Note_on_c, 0, 67, 0
2,26158, Note_on_c, 0, 74, 65
2,26196, Note_on_c, 0, 65, 0
2,26729, Control_c, 0, 64, 53
2,26761, Note_on_c, 0, 65, 56
2,26805, Control_c, 0, 64, 54
2,26872, Note_on_c, 0, 63, 62
2,26880, Control_c, 0, 64, 54
2,26925, Note_on_c, 0, 65, 0
2,26942, Control_c, 0, 64, 55
2,26958, Control_c, 0, 64, 55
2,26974, Control_c, 0, 64, 56
2,27004, Control_c, 0, 64, 56
2,27019, Control_c, 0, 64, 58
2,27034, Control_c, 0, 64, 59
2,27050, Control_c, 0, 64, 60
2,27072, Control_c, 0, 64, 60
2,27103, Control_c, 0, 64, 61
2,27118, Control_c, 0, 64, 63
2,27134, Control_c, 0, 64, 66
2,27148, Control_c, 0, 64, 67
2,27164, Control_c, 0, 64, 69
2,27178, Note_on_c, 0, 48, 0
2,27179, Control_c, 0, 64, 71
2,27193, Control_c, 0, 64, 75
2,27209, Control_c, 0, 64, 84
2,27224, Control_c, 0, 64, 101
2,27239, Control_c, 0, 64, 127
2,27241, Note_on_c, 0, 59, 0
2,27486, Note_on_c, 0, 62, 53
2,27515, Note_on_c, 0, 63, 0
2,27580, Note_on_c, 0, 62, 0
2,27620, Note_on_c, 0, 63, 59
2,27631, Note_on_c, 0, 60, 51
2,27634, Control_c, 0, 64, 92
2,27650, Control_c, 0, 64, 68
2,27665, Control_c, 0, 64, 58
2,27679, Control_c, 0, 64, 50
2,27695, Control_c, 0, 64, 44
2,27710, Control_c, 0, 64, 40
2,27725, Control_c, 0, 64, 40
2,27755, Control_c, 0, 64, 43
2,27771, Control_c, 0, 64, 47
2,27787, Control_c, 0, 64, 50
2,27802, Control_c, 0, 64, 52
2,27818, Control_c, 0, 64, 54
2,27840, Control_c, 0, 64, 57
2,27856, Control_c, 0, 64, 60
2,27871, Control_c, 0, 64, 61
2,27886, Control_c, 0, 64, 61
2,27901, Control_c, 0, 64, 62
2,27916, Control_c, 0, 64, 63
2,27932, Control_c, 0, 64, 65
2,27947, Control_c, 0, 64, 67
2,27962, Control_c, 0, 64, 68
2,27978, Control_c, 0, 64, 68
2,27992, Control_c, 0, 64, 69
2,28008, Control_c, 0, 64, 71
2,28023, Control_c, 0, 64, 74
2,28037, Control_c, 0, 64, 78
2,28053, Control_c, 0, 64, 80
2,28068, Control_c, 0, 64, 82
2,28084, Control_c, 0, 64, 85
2,28099, Control_c, 0, 64, 90
2,28113, Control_c, 0, 64, 94
2,28129, Control_c, 0, 64, 102
2,28144, Control_c, 0, 64, 127
2,28222, Note_on_c, 0, 79, 66
2,28233, Note_on_c, 0, 74, 0
2,28325, Note_on_c, 0, 79, 0
2,28327, Control_c, 0, 64, 86
2,28332, Note_on_c, 0, 74, 76
2,28333, Note_on_c, 0, 65, 69
2,28342, Control_c, 0, 64, 69
2,28348, Note_on_c, 0, 71, 64
2,28357, Control_c, 0, 64, 60
2,28360, Note_on_c, 0, 63, 0
2,28372, Control_c, 0, 64, 53
2,28387, Control_c, 0, 64, 49
2,28402, Control_c, 0, 64, 46
2,28418, Control_c, 0, 64, 45
2,28509, Control_c, 0, 64, 47
2,28524, Control_c, 0, 64, 51
2,28539, Control_c, 0, 64, 56
2,28554, Control_c, 0, 64, 58
2,28608, Control_c, 0, 64, 59
2,28623, Control_c, 0, 64, 62
2,28638, Control_c, 0, 64, 64
2,28654, Control_c, 0, 64, 65
2,28685, Control_c, 0, 64, 65
2,28699, Control_c, 0, 64, 67
2,28714, Control_c, 0, 64, 70
2,28730, Control_c, 0, 64, 73
2,28745, Control_c, 0, 64, 78
2,28760, Control_c, 0, 64, 83
2,28776, Control_c, 0, 64, 91
2,28791, Control_c, 0, 64, 100
2,28806, Control_c, 0, 64, 127
2,28959, Note_on_c, 0, 77, 65
2,28964, Note_on_c, 0, 74, 0
2,29049, Control_c, 0, 64, 85
2,29050, Note_on_c, 0, 67, 62
2,29052, Note_on_c, 0, 75, 80
2,29055, Note_on_c, 0, 71, 0
2,29058, Note_on_c, 0, 65, 0
2,29060, Note_on_c, 0, 77, 0
2,29064, Control_c, 0, 64, 67
2,29064, Note_on_c, 0, 72, 66
2,29079, Control_c, 0, 64, 50
2,29094, Control_c, 0, 64, 0
2,29170, Control_c, 0, 64, 30
2,29185, Control_c, 0, 64, 41
2,29200, Control_c, 0, 64, 53
2,29216, Control_c, 0, 64, 60
2,29231, Control_c, 0, 64, 63
2,29247, Control_c, 0, 64, 64
2,29262, Control_c, 0, 64, 65
2,29277, Control_c, 0, 64, 67
2,29287, Note_on_c, 0, 67, 0
2,29292, Control_c, 0, 64, 74
2,29307, Control_c, 0, 64, 87
2,29322, Control_c, 0, 64, 127
2,29343, Note_on_c, 0, 60, 0
2,29692, Note_on_c, 0, 58, 59
2,29787, Control_c, 0, 64, 110
2,29788, Note_on_c, 0, 57, 58
2,29794, Note_on_c, 0, 66, 74
2,29801, Control_c, 0, 64, 77
2,29815, Note_on_c, 0, 58, 0
2,29817, Control_c, 0, 64, 62
2,29832, Control_c, 0, 64, 45
2,29848, Control_c, 0, 64, 26
2,29862, Control_c, 0, 64, 19
2,29893, Control_c, 0, 64, 32
2,29908, Control_c, 0, 64, 46
2,29924, Control_c, 0, 64, 51
2,29953, Control_c, 0, 64, 54
2,29968, Control_c, 0, 64, 59
2,29983, Control_c, 0, 64, 63
2,29998, Control_c, 0, 64, 65
2,30014, Control_c, 0, 64, 66
2,30029, Control_c, 0, 64, 67
2,30045, Control_c, 0, 64, 71
2,30059, Control_c, 0, 64, 77
2,30074, Control_c, 0, 64, 87
2,30090, Control_c, 0, 64, 107
2,30105, Control_c, 0, 64, 127
2,30279, Note_on_c, 0, 66, 0
2,30380, Note_on_c, 0, 67, 70
2,30390, Note_on_c, 0, 60, 55
2,30424, Note_on_c, 0, 67, 0
2,30497, Note_on_c, 0, 69, 68
2,30508, Control_c, 0, 64, 87
2,30520, Note_on_c, 0, 54, 57
2,30524, Control_c, 0, 64, 65
2,30539, Control_c, 0, 64, 49
2,30552, Note_on_c, 0, 60, 0
2,30554, Control_c, 0, 64, 23
2,30569, Control_c, 0, 64, 0
2,30610, Note_on_c, 0, 57, 0
2,30630, Control_c, 0, 64, 22
2,30645, Control_c, 0, 64, 40
2,30660, Control_c, 0, 64, 48
2,30675, Control_c, 0, 64, 50
2,30691, Control_c, 0, 64, 52
2,30705, Control_c, 0, 64, 58
2,30720, Control_c, 0, 64, 63
2,30721, Note_on_c, 0, 72, 0
2,30737, Control_c, 0, 64, 67
2,30752, Control_c, 0, 64, 71
2,30768, Control_c, 0, 64, 76
2,30782, Control_c, 0, 64, 84
2,30797, Control_c, 0, 64, 104
2,30813, Control_c, 0, 64, 127
2,30832, Note_on_c, 0, 75, 0
2,31075, Note_on_c, 0, 75, 77
2,31162, Note_on_c, 0, 57, 57
2,31164, Note_on_c, 0, 74, 81
2,31171, Control_c, 0, 64, 116
2,31186, Control_c, 0, 64, 73
2,31201, Control_c, 0, 64, 57
2,31216, Control_c, 0, 64, 30
2,31224, Note_on_c, 0, 75, 0
2,31231, Control_c, 0, 64, 0
2,31292, Control_c, 0, 64, 37
2,31307, Control_c, 0, 64, 43
2,31322, Control_c, 0, 64, 44
2,31338, Control_c, 0, 64, 49
2,31340, Control_c, 0, 64, 56
2,31355, Control_c, 0, 64, 61
2,31371, Control_c, 0, 64, 65
2,31386, Control_c, 0, 64, 67
2,31400, Control_c, 0, 64, 70
2,31416, Control_c, 0, 64, 76
2,31431, Control_c, 0, 64, 86
2,31446, Control_c, 0, 64, 107
2,31461, Control_c, 0, 64, 127
2,31559, Note_on_c, 0, 74, 0
2,31733, Note_on_c, 0, 72, 76
2,31829, Note_on_c, 0, 81, 85
2,31832, Control_c, 0, 64, 84
2,31840, Note_on_c, 0, 72, 0
2,31848, Control_c, 0, 64, 63
2,31864, Control_c, 0, 64, 38
2,31879, Control_c, 0, 64, 0
2,32016, Control_c, 0, 64, 43
2,32031, Control_c, 0, 64, 58
2,32046, Control_c, 0, 64, 62
2,32061, Control_c, 0, 64, 65
2,32076, Control_c, 0, 64, 69
2,32092, Control_c, 0, 64, 76
2,32107, Control_c, 0, 64, 86
2,32122, Control_c, 0, 64, 102
2,32132, Note_on_c, 0, 69, 0
2,32138, Control_c, 0, 64, 127
2,32456, Note_on_c, 0, 72, 60
2,32540, Note_on_c, 0, 62, 44
2,32549, Note_on_c, 0, 70, 58
2,32554, Control_c, 0, 64, 80
2,32570, Control_c, 0, 64, 64
2,32573, Note_on_c, 0, 57, 0
2,32584, Control_c, 0, 64, 52
2,32588, Note_on_c, 0, 72, 0
2,32599, Control_c, 0, 64, 33
2,32615, Control_c, 0, 64, 0
2,32692, Control_c, 0, 64, 30
2,32707, Control_c, 0, 64, 33
2,32722, Control_c, 0, 64, 36
2,32737, Control_c, 0, 64, 47
2,32752, Control_c, 0, 64, 57
2,32768, Control_c, 0, 64, 60
2,32783, Control_c, 0, 64, 61
2,32814, Control_c, 0, 64, 63
2,32829, Control_c, 0, 64, 65
2,32843, Control_c, 0, 64, 65
2,32874, Control_c, 0, 64, 66
2,32890, Control_c, 0, 64, 67
2,32905, Control_c, 0, 64, 69
2,32920, Control_c, 0, 64, 71
2,32935, Control_c, 0, 64, 74
2,32950, Control_c, 0, 64, 76
2,32966, Control_c, 0, 64, 80
2,32981, Control_c, 0, 64, 84
2,32996, Control_c, 0, 64, 89
2,33011, Control_c, 0, 64, 96
2,33026, Control_c, 0, 64, 111
2,33041, Control_c, 0, 64, 127
2,33153, Note_on_c, 0, 54, 0
2,33153, Note_on_c, 0, 62, 0
2,33153, Note_on_c, 0, 70, 0
2,33153, Note_on_c, 0, 81, 0
2,33154, End_track
0, 0, End_of_file
