0, 0, Header, 1, 2, 384
1, 0, Start_track
1, 0, Tempo, 500000
1, 0, Time_signature, 4, 2, 24, 8
1, 1, End_track
2, 0, Start_track
2, 0, Program_c, 0, 0
2, 0, Control_c, 0, 64, 78
2, 0, Control_c, 0, 67, 0
2, 7, Control_c, 0, 64, 82
2, 23, Control_c, 0, 64, 89
2, 37, Control_c, 0, 64, 101
2, 52, Control_c, 0, 64, 127
2, 784, Note_on_c, 0, 43, 92
2, 1537, Note_on_c, 0, 67, 74
2, 1588, Control_c, 0, 64, 113
2, 1598, Note_on_c, 0, 62, 91
2, 1603, Control_c, 0, 64, 74
2, 1619, Control_c, 0, 64, 58
2, 1625, Note_on_c, 0, 67, 0
2, 1634, Control_c, 0, 64, 26
2, 1649, Control_c, 0, 64, 0
2, 1710, Control_c, 0, 64, 29
2, 1733, Control_c, 0, 64, 34
2, 1762, Control_c, 0, 64, 36
2, 1778, Control_c, 0, 64, 47
2, 1793, Control_c, 0, 64, 56
2, 1808, Control_c, 0, 64, 57
2, 1824, Control_c, 0, 64, 58
2, 1839, Control_c, 0, 64, 59
2, 1855, Control_c, 0, 64, 61
2, 1870, Control_c, 0, 64, 64
2, 1884, Control_c, 0, 64, 67
2, 1900, Control_c, 0, 64, 68
2, 1915, Control_c, 0, 64, 71
2, 1930, Control_c, 0, 64, 75
2, 1946, Control_c, 0, 64, 78
2, 1960, Control_c, 0, 64, 80
2, 1976, Control_c, 0, 64, 83
2, 1991, Control_c, 0, 64, 87
2, 2005, Control_c, 0, 64, 94
2, 2021, Control_c, 0, 64, 102
2, 2036, Control_c, 0, 64, 121
2, 2051, Control_c, 0, 64, 127
2, 2259, Note_on_c, 0, 65, 81
2, 2270, Note_on_c, 0, 62, 0
2, 2310, Control_c, 0, 64, 90
2, 2325, Control_c, 0, 64, 68
2, 2328, Note_on_c, 0, 63, 74
2, 2341, Control_c, 0, 64, 54
2, 2356, Control_c, 0, 64, 19
2, 2358, Note_on_c, 0, 65, 0
2, 2371, Control_c, 0, 64, 0
2, 2501, Control_c, 0, 64, 12
2, 2515, Control_c, 0, 64, 39
2, 2530, Control_c, 0, 64, 47
2, 2577, Control_c, 0, 64, 50
2, 2591, Control_c, 0, 64, 56
2, 2606, Control_c, 0, 64, 59
2, 2622, Control_c, 0, 64, 60
2, 2653, Control_c, 0, 64, 60
2, 2668, Control_c, 0, 64, 62
2, 2683, Control_c, 0, 64, 64
2, 2698, Control_c, 0, 64, 65
2, 2713, Control_c, 0, 64, 65
2, 2728, Control_c, 0, 64, 66
2, 2744, Control_c, 0, 64, 68
2, 2759, Control_c, 0, 64, 71
2, 2775, Control_c, 0, 64, 75
2, 2790, Control_c, 0, 64, 81
2, 2804, Control_c, 0, 64, 91
2, 2820, Control_c, 0, 64, 112
2, 2835, Control_c, 0, 64, 127
2, 2983, Note_on_c, 0, 58, 63
2, 3059, Note_on_c, 0, 57, 66
2, 3062, Control_c, 0, 64, 98
2, 3062, Note_on_c, 0, 58, 0
2, 3077, Control_c, 0, 64, 75
2, 3093, Control_c, 0, 64, 63
2, 3109, Control_c, 0, 64, 49
2, 3124, Control_c, 0, 64, 32
2, 3140, Control_c, 0, 64, 28
2, 3154, Control_c, 0, 64, 29
2, 3169, Control_c, 0, 64, 35
2, 3185, Control_c, 0, 64, 43
2, 3200, Control_c, 0, 64, 47
2, 3216, Control_c, 0, 64, 49
2, 3230, Control_c, 0, 64, 50
2, 3245, Control_c, 0, 64, 53
2, 3269, Control_c, 0, 64, 57
2, 3283, Control_c, 0, 64, 60
2, 3299, Control_c, 0, 64, 60
2, 3329, Control_c, 0, 64, 61
2, 3345, Control_c, 0, 64, 63
2, 3359, Control_c, 0, 64, 64
2, 3375, Control_c, 0, 64, 65
2, 3390, Control_c, 0, 64, 66
2, 3405, Control_c, 0, 64, 67
2, 3421, Control_c, 0, 64, 69
2, 3435, Control_c, 0, 64, 70
2, 3450, Control_c, 0, 64, 71
2, 3466, Control_c, 0, 64, 72
2, 3481, Control_c, 0, 64, 75
2, 3496, Control_c, 0, 64, 80
2, 3511, Control_c, 0, 64, 86
2, 3526, Control_c, 0, 64, 92
2, 3542, Control_c, 0, 64, 100
2, 3557, Control_c, 0, 64, 117
2, 3573, Control_c, 0, 64, 127
2, 3693, Note_on_c, 0, 60, 59
2, 3728, Note_on_c, 0, 57, 0
2, 3784, Note_on_c, 0, 54, 57
2, 3805, Note_on_c, 0, 60, 0
2, 3816, Control_c, 0, 64, 85
2, 3831, Control_c, 0, 64, 68
2, 3845, Control_c, 0, 64, 58
2, 3861, Control_c, 0, 64, 48
2, 3876, Control_c, 0, 64, 42
2, 3890, Control_c, 0, 64, 43
2, 3906, Control_c, 0, 64, 48
2, 3922, Control_c, 0, 64, 56
2, 3938, Control_c, 0, 64, 61
2, 3953, Control_c, 0, 64, 64
2, 3968, Control_c, 0, 64, 66
2, 3984, Control_c, 0, 64, 70
2, 3998, Control_c, 0, 64, 75
2, 4014, Control_c, 0, 64, 81
2, 4037, Control_c, 0, 64, 93
2, 4053, Control_c, 0, 64, 127
2, 4202, Note_on_c, 0, 63, 0
2, 4364, Note_on_c, 0, 63, 60
2, 4415, Note_on_c, 0, 62, 69
2, 4444, Note_on_c, 0, 62, 0
2, 4502, Note_on_c, 0, 62, 76
2, 4508, Control_c, 0, 64, 107
2, 4514, Note_on_c, 0, 63, 0
2, 4523, Control_c, 0, 64, 71
2, 4538, Control_c, 0, 64, 52
2, 4553, Control_c, 0, 64, 0
2, 4705, Control_c, 0, 64, 27
2, 4720, Control_c, 0, 64, 48
2, 4737, Control_c, 0, 64, 53
2, 4752, Control_c, 0, 64, 54
2, 4766, Control_c, 0, 64, 56
2, 4782, Control_c, 0, 64, 60
2, 4804, Control_c, 0, 64, 63
2, 4820, Control_c, 0, 64, 65
2, 4835, Control_c, 0, 64, 67
2, 4850, Control_c, 0, 64, 71
2, 4866, Control_c, 0, 64, 76
2, 4881, Control_c, 0, 64, 85
2, 4897, Control_c, 0, 64, 99
2, 4912, Control_c, 0, 64, 127
2, 5147, Note_on_c, 0, 60, 70
2, 5173, Note_on_c, 0, 62, 0
2, 5243, Note_on_c, 0, 60, 0
2, 5244, Note_on_c, 0, 69, 81
2, 5257, Control_c, 0, 64, 78
2, 5273, Control_c, 0, 64, 62
2, 5288, Control_c, 0, 64, 43
2, 5304, Control_c, 0, 64, 0
2, 5365, Control_c, 0, 64, 38
2, 5381, Control_c, 0, 64, 50
2, 5396, Control_c, 0, 64, 52
2, 5410, Control_c, 0, 64, 54
2, 5426, Control_c, 0, 64, 58
2, 5441, Control_c, 0, 64, 62
2, 5456, Control_c, 0, 64, 65
2, 5472, Control_c, 0, 64, 67
2, 5487, Control_c, 0, 64, 70
2, 5502, Control_c, 0, 64, 77
2, 5517, Control_c, 0, 64, 89
2, 5532, Control_c, 0, 64, 127
2, 5577, Note_on_c, 0, 69, 0
2, 5838, Note_on_c, 0, 60, 54
2, 5886, Note_on_c, 0, 58, 65
2, 5896, Note_on_c, 0, 60, 0
2, 5916, Note_on_c, 0, 58, 0
2, 5966, Control_c, 0, 64, 113
2, 5982, Control_c, 0, 64, 69
2, 5988, Note_on_c, 0, 58, 64
2, 5997, Control_c, 0, 64, 49
2, 6012, Control_c, 0, 64, 0
2, 6118, Control_c, 0, 64, 16
2, 6148, Control_c, 0, 64, 26
2, 6163, Control_c, 0, 64, 49
2, 6178, Control_c, 0, 64, 60
2, 6192, Control_c, 0, 64, 62
2, 6206, Control_c, 0, 64, 62
2, 6221, Control_c, 0, 64, 64
2, 6237, Control_c, 0, 64, 68
2, 6252, Control_c, 0, 64, 75
2, 6268, Control_c, 0, 64, 88
2, 6283, Control_c, 0, 64, 111
2, 6297, Control_c, 0, 64, 127
2, 6310, Note_on_c, 0, 43, 0
2, 6332, Note_on_c, 0, 54, 0
2, 6594, Note_on_c, 0, 57, 56
2, 6632, Note_on_c, 0, 58, 0
2, 6651, Note_on_c, 0, 57, 0
2, 6700, Note_on_c, 0, 55, 41
2, 6705, Note_on_c, 0, 58, 43
2, 6747, Control_c, 0, 64, 85
2, 6762, Control_c, 0, 64, 63
2, 6777, Control_c, 0, 64, 13
2, 6792, Control_c, 0, 64, 0
2, 6883, Control_c, 0, 64, 33
2, 6898, Control_c, 0, 64, 39
2, 6914, Control_c, 0, 64, 44
2, 6929, Control_c, 0, 64, 52
2, 6943, Control_c, 0, 64, 56
2, 6959, Control_c, 0, 64, 58
2, 6974, Control_c, 0, 64, 59
2, 6990, Control_c, 0, 64, 61
2, 7005, Control_c, 0, 64, 65
2, 7019, Control_c, 0, 64, 70
2, 7035, Control_c, 0, 64, 75
2, 7050, Control_c, 0, 64, 80
2, 7065, Control_c, 0, 64, 86
2, 7081, Control_c, 0, 64, 97
2, 7103, Control_c, 0, 64, 127
2, 7303, Note_on_c, 0, 74, 84
2, 7387, Note_on_c, 0, 60, 51
2, 7402, Note_on_c, 0, 69, 86
2, 7423, Control_c, 0, 64, 85
2, 7439, Control_c, 0, 64, 66
2, 7442, Note_on_c, 0, 74, 0
2, 7454, Control_c, 0, 64, 52
2, 7470, Control_c, 0, 64, 36
2, 7485, Control_c, 0, 64, 20
2, 7499, Control_c, 0, 64, 17
2, 7515, Control_c, 0, 64, 20
2, 7519, Note_on_c, 0, 58, 0
2, 7530, Control_c, 0, 64, 38
2, 7545, Control_c, 0, 64, 50
2, 7561, Control_c, 0, 64, 52
2, 7575, Control_c, 0, 64, 53
2, 7591, Control_c, 0, 64, 56
2, 7606, Control_c, 0, 64, 62
2, 7621, Control_c, 0, 64, 66
2, 7636, Control_c, 0, 64, 69
2, 7651, Control_c, 0, 64, 71
2, 7667, Control_c, 0, 64, 74
2, 7682, Control_c, 0, 64, 81
2, 7697, Control_c, 0, 64, 98
2, 7712, Control_c, 0, 64, 127
2, 7996, Note_on_c, 0, 72, 74
2, 8105, Note_on_c, 0, 62, 57
2, 8108, Note_on_c, 0, 70, 83
2, 8116, Control_c, 0, 64, 89
2, 8131, Control_c, 0, 64, 68
2, 8145, Control_c, 0, 64, 57
2, 8148, Note_on_c, 0, 72, 0
2, 8161, Control_c, 0, 64, 46
2, 8166, Note_on_c, 0, 60, 0
2, 8176, Control_c, 0, 64, 28
2, 8192, Control_c, 0, 64, 0
2, 8220, Note_on_c, 0, 69, 0
2, 8749, Note_on_c, 0, 65, 62
2, 8848, Note_on_c, 0, 64, 61
2, 8849, Note_on_c, 0, 65, 0
2, 9440, Note_on_c, 0, 67, 56
2, 9501, Note_on_c, 0, 64, 0
2, 9555, Note_on_c, 0, 61, 48
2, 9593, Control_c, 0, 64, 20
2, 9597, Note_on_c, 0, 67, 0
2, 9606, Note_on_c, 0, 62, 0
2, 9608, Control_c, 0, 64, 21
2, 9624, Control_c, 0, 64, 22
2, 9639, Control_c, 0, 64, 29
2, 9654, Control_c, 0, 64, 43
2, 9670, Control_c, 0, 64, 49
2, 9685, Control_c, 0, 64, 50
2, 9701, Control_c, 0, 64, 50
2, 9716, Control_c, 0, 64, 56
2, 9730, Control_c, 0, 64, 63
2, 9746, Control_c, 0, 64, 68
2, 9761, Control_c, 0, 64, 72
2, 9776, Control_c, 0, 64, 80
2, 9792, Control_c, 0, 64, 127
2, 9957, Note_on_c, 0, 70, 0
2, 10120, Note_on_c, 0, 70, 65
2, 10181, Note_on_c, 0, 70, 0
2, 10187, Note_on_c, 0, 69, 71
2, 10212, Note_on_c, 0, 69, 0
2, 10241, Note_on_c, 0, 70, 54
2, 10281, Note_on_c, 0, 70, 0
2, 10283, Note_on_c, 0, 69, 77
2, 10315, Control_c, 0, 64, 78
2, 10330, Control_c, 0, 64, 62
2, 10346, Control_c, 0, 64, 39
2, 10361, Control_c, 0, 64, 0
2, 10437, Control_c, 0, 64, 24
2, 10451, Control_c, 0, 64, 25
2, 10483, Control_c, 0, 64, 34
2, 10498, Control_c, 0, 64, 49
2, 10514, Control_c, 0, 64, 54
2, 10559, Control_c, 0, 64, 54
2, 10574, Control_c, 0, 64, 58
2, 10590, Control_c, 0, 64, 60
2, 10635, Control_c, 0, 64, 60
2, 10650, Control_c, 0, 64, 63
2, 10666, Control_c, 0, 64, 64
2, 10680, Control_c, 0, 64, 64
2, 10711, Control_c, 0, 64, 66
2, 10725, Control_c, 0, 64, 68
2, 10741, Control_c, 0, 64, 72
2, 10756, Control_c, 0, 64, 80
2, 10771, Control_c, 0, 64, 90
2, 10787, Control_c, 0, 64, 110
2, 10801, Control_c, 0, 64, 127
2, 10918, Note_on_c, 0, 67, 68
2, 10966, Note_on_c, 0, 69, 0
2, 11024, Note_on_c, 0, 67, 0
2, 11033, Note_on_c, 0, 76, 80
2, 11037, Control_c, 0, 64, 79
2, 11052, Control_c, 0, 64, 60
2, 11068, Control_c, 0, 64, 40
2, 11083, Control_c, 0, 64, 21
2, 11097, Control_c, 0, 64, 18
2, 11113, Control_c, 0, 64, 25
2, 11128, Control_c, 0, 64, 46
2, 11144, Control_c, 0, 64, 59
2, 11159, Control_c, 0, 64, 62
2, 11173, Control_c, 0, 64, 63
2, 11189, Control_c, 0, 64, 64
2, 11204, Control_c, 0, 64, 66
2, 11220, Control_c, 0, 64, 70
2, 11235, Control_c, 0, 64, 76
2, 11250, Control_c, 0, 64, 82
2, 11265, Control_c, 0, 64, 93
2, 11280, Control_c, 0, 64, 127
2, 11426, Note_on_c, 0, 76, 0
2, 11603, Note_on_c, 0, 67, 74
2, 11666, Note_on_c, 0, 67, 0
2, 11679, Note_on_c, 0, 66, 73
2, 11742, Note_on_c, 0, 66, 0
2, 11746, Control_c, 0, 64, 81
2, 11746, Note_on_c, 0, 67, 75
2, 11761, Control_c, 0, 64, 62
2, 11777, Control_c, 0, 64, 33
2, 11791, Control_c, 0, 64, 0
2, 11805, Note_on_c, 0, 66, 68
2, 11818, Note_on_c, 0, 67, 0
2, 11853, Control_c, 0, 64, 18
2, 11867, Control_c, 0, 64, 40
2, 11882, Control_c, 0, 64, 53
2, 11898, Control_c, 0, 64, 57
2, 11913, Control_c, 0, 64, 59
2, 11944, Control_c, 0, 64, 59
2, 11959, Control_c, 0, 64, 62
2, 11974, Control_c, 0, 64, 65
2, 11989, Control_c, 0, 64, 68
2, 12004, Control_c, 0, 64, 70
2, 12020, Control_c, 0, 64, 72
2, 12022, Note_on_c, 0, 61, 0
2, 12035, Control_c, 0, 64, 73
2, 12050, Control_c, 0, 64, 76
2, 12065, Control_c, 0, 64, 81
2, 12080, Control_c, 0, 64, 90
2, 12096, Control_c, 0, 64, 108
2, 12103, Note_on_c, 0, 55, 0
2, 12112, Control_c, 0, 64, 127
2, 12355, Note_on_c, 0, 66, 0
2, 12380, Note_on_c, 0, 64, 55
2, 12483, Control_c, 0, 64, 101
2, 12484, Note_on_c, 0, 64, 0
2, 12495, Note_on_c, 0, 50, 44
2, 12498, Control_c, 0, 64, 72
2, 12500, Note_on_c, 0, 66, 58
2, 12513, Control_c, 0, 64, 58
2, 12515, Note_on_c, 0, 62, 45
2, 12528, Control_c, 0, 64, 36
2, 12544, Control_c, 0, 64, 0
2, 13050, Note_on_c, 0, 67, 59
2, 13075, Note_on_c, 0, 66, 0
2, 13176, Note_on_c, 0, 69, 66
2, 13201, Note_on_c, 0, 67, 0
2, 13503, Note_on_c, 0, 60, 50
2, 13619, Note_on_c, 0, 62, 0
2, 13823, Note_on_c, 0, 58, 53
2, 13895, Note_on_c, 0, 60, 0
2, 14401, Note_on_c, 0, 62, 59
2, 14500, Note_on_c, 0, 67, 72
2, 14595, Note_on_c, 0, 62, 0
2, 14665, Note_on_c, 0, 69, 0
2, 15087, Note_on_c, 0, 70, 62
2, 15208, Note_on_c, 0, 57, 46
2, 15208, Note_on_c, 0, 72, 62
2, 15251, Note_on_c, 0, 70, 0
2, 15257, Note_on_c, 0, 58, 0
2, 15380, Control_c, 0, 64, 24
2, 15396, Control_c, 0, 64, 34
2, 15411, Control_c, 0, 64, 37
2, 15427, Control_c, 0, 64, 42
2, 15442, Control_c, 0, 64, 50
2, 15458, Control_c, 0, 64, 56
2, 15472, Control_c, 0, 64, 59
2, 15487, Control_c, 0, 64, 60
2, 15503, Control_c, 0, 64, 61
2, 15517, Control_c, 0, 64, 63
2, 15518, Note_on_c, 0, 67, 0
2, 15533, Control_c, 0, 64, 64
2, 15556, Control_c, 0, 64, 66
2, 15571, Control_c, 0, 64, 67
2, 15587, Control_c, 0, 64, 68
2, 15601, Control_c, 0, 64, 70
2, 15617, Control_c, 0, 64, 71
2, 15632, Control_c, 0, 64, 72
2, 15647, Control_c, 0, 64, 73
2, 15663, Control_c, 0, 64, 75
2, 15677, Control_c, 0, 64, 78
2, 15693, Control_c, 0, 64, 80
2, 15708, Control_c, 0, 64, 81
2, 15768, Control_c, 0, 64, 80
2, 15784, Control_c, 0, 64, 79
2, 15799, Control_c, 0, 64, 79
2, 15811, Note_on_c, 0, 67, 51
2, 15815, Control_c, 0, 64, 78
2, 15829, Control_c, 0, 64, 77
2, 15844, Control_c, 0, 64, 75
2, 15860, Control_c, 0, 64, 71
2, 15875, Control_c, 0, 64, 68
2, 15890, Control_c, 0, 64, 66
2, 15906, Control_c, 0, 64, 64
2, 15921, Control_c, 0, 64, 63
2, 15922, Note_on_c, 0, 66, 50
2, 15936, Control_c, 0, 64, 62
2, 15951, Control_c, 0, 64, 61
2, 15961, Note_on_c, 0, 67, 0
2, 15966, Control_c, 0, 64, 61
2, 15982, Control_c, 0, 64, 60
2, 15997, Control_c, 0, 64, 59
2, 16011, Control_c, 0, 64, 59
2, 16027, Control_c, 0, 64, 58
2, 16057, Control_c, 0, 64, 57
2, 16103, Control_c, 0, 64, 57
2, 16179, Control_c, 0, 64, 56
2, 16355, Control_c, 0, 64, 57
2, 16489, Note_on_c, 0, 64, 46
2, 16499, Note_on_c, 0, 66, 0
2, 16613, Note_on_c, 0, 66, 59
2, 16629, Note_on_c, 0, 64, 0
2, 16795, Control_c, 0, 64, 57
2, 16901, Control_c, 0, 64, 58
2, 17055, Control_c, 0, 64, 58
2, 17116, Note_on_c, 0, 74, 70
2, 17220, Note_on_c, 0, 69, 80
2, 17235, Note_on_c, 0, 62, 46
2, 17246, Note_on_c, 0, 72, 0
2, 17257, Note_on_c, 0, 74, 0
2, 17308, Note_on_c, 0, 57, 0
2, 17396, Control_c, 0, 64, 59
2, 17472, Control_c, 0, 64, 59
2, 17526, Note_on_c, 0, 51, 71
2, 17576, Note_on_c, 0, 50, 0
2, 17665, Note_on_c, 0, 72, 60
2, 17751, Note_on_c, 0, 66, 0
2, 17872, Note_on_c, 0, 53, 59
2, 17875, Control_c, 0, 64, 59
2, 17875, Note_on_c, 0, 67, 57
2, 17876, Note_on_c, 0, 71, 67
2, 17936, Control_c, 0, 64, 58
2, 17941, Note_on_c, 0, 72, 0
2, 17951, Control_c, 0, 64, 57
2, 17952, Note_on_c, 0, 51, 0
2, 17982, Control_c, 0, 64, 57
2, 18000, Note_on_c, 0, 69, 0
2, 18043, Control_c, 0, 64, 56
2, 18395, Note_on_c, 0, 72, 70
2, 18439, Note_on_c, 0, 71, 0
2, 18527, Note_on_c, 0, 74, 74
2, 18585, Note_on_c, 0, 72, 0
2, 18843, Note_on_c, 0, 59, 65
2, 18954, Note_on_c, 0, 62, 0
2, 19129, Control_c, 0, 64, 57
2, 19188, Note_on_c, 0, 51, 62
2, 19201, Note_on_c, 0, 55, 60
2, 19223, Note_on_c, 0, 53, 0
2, 19226, Note_on_c, 0, 59, 0
2, 19342, Control_c, 0, 64, 57
2, 19357, Control_c, 0, 64, 58
2, 19373, Control_c, 0, 64, 59
2, 19410, Control_c, 0, 64, 60
2, 19426, Control_c, 0, 64, 61
2, 19440, Control_c, 0, 64, 63
2, 19456, Control_c, 0, 64, 66
2, 19471, Control_c, 0, 64, 68
2, 19487, Control_c, 0, 64, 71
2, 19503, Control_c, 0, 64, 75
2, 19518, Control_c, 0, 64, 81
2, 19534, Control_c, 0, 64, 88
2, 19548, Control_c, 0, 64, 100
2, 19563, Control_c, 0, 64, 127
2, 19608, Note_on_c, 0, 67, 0
2, 19755, Note_on_c, 0, 67, 75
2, 19846, Note_on_c, 0, 63, 60
2, 19853, Control_c, 0, 64, 92
2, 19855, Note_on_c, 0, 72, 85
2, 19868, Control_c, 0, 64, 71
2, 19882, Control_c, 0, 64, 60
2, 19898, Control_c, 0, 64, 42
2, 19909, Note_on_c, 0, 55, 0
2, 19912, Note_on_c, 0, 67, 0
2, 19913, Control_c, 0, 64, 20
2, 19928, Control_c, 0, 64, 0
2, 19930, Note_on_c, 0, 74, 0
2, 19944, Control_c, 0, 64, 9
2, 19958, Control_c, 0, 64, 26
2, 19974, Control_c, 0, 64, 43
2, 19989, Control_c, 0, 64, 54
2, 20003, Control_c, 0, 64, 59
2, 20019, Control_c, 0, 64, 62
2, 20034, Control_c, 0, 64, 65
2, 20049, Control_c, 0, 64, 69
2, 20065, Control_c, 0, 64, 77
2, 20079, Control_c, 0, 64, 91
2, 20095, Control_c, 0, 64, 127
2, 20423, Note_on_c, 0, 75, 82
2, 20525, Note_on_c, 0, 77, 88
2, 20528, Control_c, 0, 64, 104
2, 20530, Note_on_c, 0, 50, 55
2, 20530, Note_on_c, 0, 56, 71
2, 20544, Control_c, 0, 64, 73
2, 20557, Note_on_c, 0, 51, 0
2, 20557, Note_on_c, 0, 75, 0
2, 20559, Control_c, 0, 64, 58
2, 20575, Control_c, 0, 64, 28
2, 20590, Control_c, 0, 64, 0
2, 20639, Note_on_c, 0, 63, 0
2, 20697, Control_c, 0, 64, 21
2, 20712, Control_c, 0, 64, 42
2, 20726, Control_c, 0, 64, 48
2, 20742, Control_c, 0, 64, 49
2, 20757, Control_c, 0, 64, 52
2, 20773, Control_c, 0, 64, 58
2, 20788, Control_c, 0, 64, 63
2, 20802, Control_c, 0, 64, 66
2, 20818, Control_c, 0, 64, 67
2, 20833, Control_c, 0, 64, 68
2, 20847, Control_c, 0, 64, 71
2, 20863, Control_c, 0, 64, 75
2, 20878, Control_c, 0, 64, 83
2, 20894, Control_c, 0, 64, 92
2, 20909, Control_c, 0, 64, 110
2, 20920, Note_on_c, 0, 72, 0
2, 20931, Control_c, 0, 64, 127
2, 21122, Note_on_c, 0, 72, 70
2, 21206, Control_c, 0, 64, 110
2, 21222, Control_c, 0, 64, 75
2, 21227, Note_on_c, 0, 71, 72
2, 21236, Control_c, 0, 64, 60
2, 21238, Note_on_c, 0, 53, 50
2, 21251, Control_c, 0, 64, 34
2, 21260, Note_on_c, 0, 72, 0
2, 21267, Control_c, 0, 64, 0
2, 21282, Note_on_c, 0, 56, 0
2, 21791, Note_on_c, 0, 69, 59
2, 21827, Note_on_c, 0, 71, 0
2, 21898, Note_on_c, 0, 71, 68
2, 21923, Note_on_c, 0, 69, 0
2, 21931, Note_on_c, 0, 55, 51
2, 21948, Note_on_c, 0, 53, 0
2, 22093, Control_c, 0, 64, 45
2, 22109, Control_c, 0, 64, 58
2, 22123, Control_c, 0, 64, 64
2, 22126, Note_on_c, 0, 77, 0
2, 22138, Control_c, 0, 64, 67
2, 22154, Control_c, 0, 64, 75
2, 22169, Control_c, 0, 64, 95
2, 22185, Control_c, 0, 64, 127
2, 22214, Note_on_c, 0, 50, 0
2, 22514, Note_on_c, 0, 79, 90
2, 22601, Note_on_c, 0, 74, 89
2, 22602, Control_c, 0, 64, 77
2, 22604, Note_on_c, 0, 43, 60
2, 22616, Control_c, 0, 64, 60
2, 22632, Control_c, 0, 64, 23
2, 22640, Note_on_c, 0, 79, 0
2, 22647, Control_c, 0, 64, 0
2, 22708, Control_c, 0, 64, 28
2, 22723, Control_c, 0, 64, 49
2, 22737, Control_c, 0, 64, 56
2, 22753, Control_c, 0, 64, 59
2, 22769, Control_c, 0, 64, 62
2, 22785, Control_c, 0, 64, 66
2, 22800, Control_c, 0, 64, 71
2, 22815, Control_c, 0, 64, 80
2, 22831, Control_c, 0, 64, 94
2, 22845, Control_c, 0, 64, 127
2, 23207, Note_on_c, 0, 77, 86
2, 23293, Control_c, 0, 64, 80
2, 23308, Control_c, 0, 64, 61
2, 23308, Note_on_c, 0, 48, 67
2, 23316, Note_on_c, 0, 75, 77
2, 23323, Control_c, 0, 64, 33
2, 23338, Control_c, 0, 64, 0
2, 23343, Note_on_c, 0, 77, 0
2, 23360, Note_on_c, 0, 74, 0
2, 23389, Note_on_c, 0, 43, 0
2, 23548, Note_on_c, 0, 71, 0
2, 23957, Note_on_c, 0, 72, 67
2, 24061, Note_on_c, 0, 67, 64
2, 24074, Note_on_c, 0, 72, 0
2, 24364, Control_c, 0, 64, 12
2, 24487, Control_c, 0, 64, 13
2, 24503, Control_c, 0, 64, 17
2, 24532, Control_c, 0, 64, 18
2, 24563, Control_c, 0, 64, 21
2, 24577, Control_c, 0, 64, 24
2, 24594, Control_c, 0, 64, 25
2, 24629, Note_on_c, 0, 70, 68
2, 24706, Note_on_c, 0, 75, 0
2, 24718, Note_on_c, 0, 68, 81
2, 24743, Note_on_c, 0, 67, 0
2, 24781, Note_on_c, 0, 70, 0
2, 25351, Note_on_c, 0, 63, 62
2, 25411, Note_on_c, 0, 55, 0
2, 25440, Note_on_c, 0, 62, 58
2, 25461, Note_on_c, 0, 63, 0
2, 25689, Control_c, 0, 64, 25
2, 25780, Control_c, 0, 64, 26
2, 26075, Note_on_c, 0, 65, 50
2, 26170, Note_on_c, 0, 62, 0
2, 26176, Control_c, 0, 64, 27
2, 26191, Control_c, 0, 64, 28
2, 26192, Note_on_c, 0, 59, 51
2, 26237, Control_c, 0, 64, 30
2, 26250, Note_on_c, 0, 65, 0
2, 26252, Control_c, 0, 64, 35
2, 26267, Control_c, 0, 64, 40
2, 26282, Control_c, 0, 64, 43
2, 26305, Control_c, 0, 64, 44
2, 26320, Control_c, 0, 64, 45
2, 26335, Control_c, 0, 64, 48
2, 26351, Control_c, 0, 64, 53
2, 26366, Control_c, 0, 64, 57
2, 26381, Control_c, 0, 64, 60
2, 26396, Control_c, 0, 64, 61
2, 26411, Control_c, 0, 64, 62
2, 26427, Control_c, 0, 64, 63
2, 26442, Control_c, 0, 64, 64
2, 26457, Control_c, 0, 64, 66
2, 26473, Control_c, 0, 64, 67
2, 26487, Control_c, 0, 64, 69
2, 26503, Control_c, 0, 64, 71
2, 26518, Control_c, 0, 64, 73
2, 26533, Control_c, 0, 64, 75
2, 26549, Control_c, 0, 64, 77
2, 26563, Control_c, 0, 64, 80
2, 26578, Control_c, 0, 64, 85
2, 26594, Control_c, 0, 64, 94
2, 26606, Note_on_c, 0, 68, 0
2, 26608, Control_c, 0, 64, 114
2, 26624, Control_c, 0, 64, 127
2, 26851, Note_on_c, 0, 68, 58
2, 26883, Control_c, 0, 64, 101
2, 26898, Control_c, 0, 64, 84
2, 26913, Control_c, 0, 64, 75
2, 26928, Control_c, 0, 64, 68
2, 26935, Note_on_c, 0, 67, 59
2, 26944, Control_c, 0, 64, 64
2, 26959, Control_c, 0, 64, 62
2, 26974, Control_c, 0, 64, 61
2, 26990, Control_c, 0, 64, 60
2, 26997, Note_on_c, 0, 68, 0
2, 27005, Control_c, 0, 64, 60
2, 27021, Control_c, 0, 64, 58
2, 27035, Control_c, 0, 64, 57
2, 27050, Control_c, 0, 64, 57
2, 27088, Control_c, 0, 64, 56
2, 27104, Control_c, 0, 64, 55
2, 27118, Control_c, 0, 64, 53
2, 27194, Control_c, 0, 64, 52
2, 27209, Control_c, 0, 64, 52
2, 27483, Control_c, 0, 64, 52
2, 27593, Note_on_c, 0, 65, 58
2, 27650, Control_c, 0, 64, 53
2, 27670, Note_on_c, 0, 67, 0
2, 27695, Note_on_c, 0, 74, 65
2, 27733, Note_on_c, 0, 65, 0
2, 28266, Control_c, 0, 64, 53
2, 28298, Note_on_c, 0, 65, 56
2, 28342, Control_c, 0, 64, 54
2, 28409, Note_on_c, 0, 63, 62
2, 28417, Control_c, 0, 64, 54
2, 28462, Note_on_c, 0, 65, 0
2, 28479, Control_c, 0, 64, 55
2, 28495, Control_c, 0, 64, 55
2, 28511, Control_c, 0, 64, 56
2, 28541, Control_c, 0, 64, 56
2, 28556, Control_c, 0, 64, 58
2, 28571, Control_c, 0, 64, 59
2, 28587, Control_c, 0, 64, 60
2, 28609, Control_c, 0, 64, 60
2, 28640, Control_c, 0, 64, 61
2, 28655, Control_c, 0, 64, 63
2, 28671, Control_c, 0, 64, 66
2, 28685, Control_c, 0, 64, 67
2, 28701, Control_c, 0, 64, 69
2, 28715, Note_on_c, 0, 48, 0
2, 28716, Control_c, 0, 64, 71
2, 28730, Control_c, 0, 64, 75
2, 28746, Control_c, 0, 64, 84
2, 28761, Control_c, 0, 64, 101
2, 28776, Control_c, 0, 64, 127
2, 28778, Note_on_c, 0, 59, 0
2, 29023, Note_on_c, 0, 62, 53
2, 29052, Note_on_c, 0, 63, 0
2, 29117, Note_on_c, 0, 62, 0
2, 29157, Note_on_c, 0, 63, 59
2, 29168, Note_on_c, 0, 60, 51
2, 29171, Control_c, 0, 64, 92
2, 29187, Control_c, 0, 64, 68
2, 29202, Control_c, 0, 64, 58
2, 29216, Control_c, 0, 64, 50
2, 29232, Control_c, 0, 64, 44
2, 29247, Control_c, 0, 64, 40
2, 29262, Control_c, 0, 64, 40
2, 29292, Control_c, 0, 64, 43
2, 29308, Control_c, 0, 64, 47
2, 29324, Control_c, 0, 64, 50
2, 29339, Control_c, 0, 64, 52
2, 29355, Control_c, 0, 64, 54
2, 29377, Control_c, 0, 64, 57
2, 29393, Control_c, 0, 64, 60
2, 29408, Control_c, 0, 64, 61
2, 29423, Control_c, 0, 64, 61
2, 29438, Control_c, 0, 64, 62
2, 29453, Control_c, 0, 64, 63
2, 29469, Control_c, 0, 64, 65
2, 29484, Control_c, 0, 64, 67
2, 29499, Control_c, 0, 64, 68
2, 29515, Control_c, 0, 64, 68
2, 29529, Control_c, 0, 64, 69
2, 29545, Control_c, 0, 64, 71
2, 29560, Control_c, 0, 64, 74
2, 29574, Control_c, 0, 64, 78
2, 29590, Control_c, 0, 64, 80
2, 29605, Control_c, 0, 64, 82
2, 29621, Control_c, 0, 64, 85
2, 29636, Control_c, 0, 64, 90
2, 29650, Control_c, 0, 64, 94
2, 29666, Control_c, 0, 64, 102
2, 29681, Control_c, 0, 64, 127
2, 29759, Note_on_c, 0, 79, 66
2, 29770, Note_on_c, 0, 74, 0
2, 29862, Note_on_c, 0, 79, 0
2, 29864, Control_c, 0, 64, 86
2, 29869, Note_on_c, 0, 74, 76
2, 29870, Note_on_c, 0, 65, 69
2, 29879, Control_c, 0, 64, 69
2, 29885, Note_on_c, 0, 71, 64
2, 29894, Control_c, 0, 64, 60
2, 29897, Note_on_c, 0, 63, 0
2, 29909, Control_c, 0, 64, 53
2, 29924, Control_c, 0, 64, 49
2, 29939, Control_c, 0, 64, 46
2, 29955, Control_c, 0, 64, 45
2, 30046, Control_c, 0, 64, 47
2, 30061, Control_c, 0, 64, 51
2, 30076, Control_c, 0, 64, 56
2, 30091, Control_c, 0, 64, 58
2, 30145, Control_c, 0, 64, 59
2, 30160, Control_c, 0, 64, 62
2, 30175, Control_c, 0, 64, 64
2, 30191, Control_c, 0, 64, 65
2, 30222, Control_c, 0, 64, 65
2, 30236, Control_c, 0, 64, 67
2, 30251, Control_c, 0, 64, 70
2, 30267, Control_c, 0, 64, 73
2, 30282, Control_c, 0, 64, 78
2, 30297, Control_c, 0, 64, 83
2, 30313, Control_c, 0, 64, 91
2, 30328, Control_c, 0, 64, 100
2, 30343, Control_c, 0, 64, 127
2, 30496, Note_on_c, 0, 77, 65
2, 30501, Note_on_c, 0, 74, 0
2, 30586, Control_c, 0, 64, 85
2, 30587, Note_on_c, 0, 67, 62
2, 30589, Note_on_c, 0, 75, 80
2, 30592, Note_on_c, 0, 71, 0
2, 30595, Note_on_c, 0, 65, 0
2, 30597, Note_on_c, 0, 77, 0
2, 30601, Control_c, 0, 64, 67
2, 30601, Note_on_c, 0, 72, 66
2, 30616, Control_c, 0, 64, 50
2, 30631, Control_c, 0, 64, 0
2, 30707, Control_c, 0, 64, 30
2, 30722, Control_c, 0, 64, 41
2, 30737, Control_c, 0, 64, 53
2, 30753, Control_c, 0, 64, 60
2, 30768, Control_c, 0, 64, 63
2, 30784, Control_c, 0, 64, 64
2, 30799, Control_c, 0, 64, 65
2, 30814, Control_c, 0, 64, 67
2, 30824, Note_on_c, 0, 67, 0
2, 30829, Control_c, 0, 64, 74
2, 30844, Control_c, 0, 64, 87
2, 30859, Control_c, 0, 64, 127
2, 30880, Note_on_c, 0, 60, 0
2, 31229, Note_on_c, 0, 58, 59
2, 31324, Control_c, 0, 64, 110
2, 31325, Note_on_c, 0, 57, 58
2, 31331, Note_on_c, 0, 66, 74
2, 31338, Control_c, 0, 64, 77
2, 31352, Note_on_c, 0, 58, 0
2, 31354, Control_c, 0, 64, 62
2, 31369, Control_c, 0, 64, 45
2, 31385, Control_c, 0, 64, 26
2, 31399, Control_c, 0, 64, 19
2, 31430, Control_c, 0, 64, 32
2, 31445, Control_c, 0, 64, 46
2, 31461, Control_c, 0, 64, 51
2, 31490, Control_c, 0, 64, 54
2, 31505, Control_c, 0, 64, 59
2, 31520, Control_c, 0, 64, 63
2, 31535, Control_c, 0, 64, 65
2, 31551, Control_c, 0, 64, 66
2, 31566, Control_c, 0, 64, 67
2, 31582, Control_c, 0, 64, 71
2, 31596, Control_c, 0, 64, 77
2, 31611, Control_c, 0, 64, 87
2, 31627, Control_c, 0, 64, 107
2, 31642, Control_c, 0, 64, 127
2, 31816, Note_on_c, 0, 66, 0
2, 31917, Note_on_c, 0, 67, 70
2, 31927, Note_on_c, 0, 60, 55
2, 31961, Note_on_c, 0, 67, 0
2, 32034, Note_on_c, 0, 69, 68
2, 32045, Control_c, 0, 64, 87
2, 32057, Note_on_c, 0, 54, 57
2, 32061, Control_c, 0, 64, 65
2, 32076, Control_c, 0, 64, 49
2, 32089, Note_on_c, 0, 60, 0
2, 32091, Control_c, 0, 64, 23
2, 32106, Control_c, 0, 64, 0
2, 32147, Note_on_c, 0, 57, 0
2, 32167, Control_c, 0, 64, 22
2, 32182, Control_c, 0, 64, 40
2, 32197, Control_c, 0, 64, 48
2, 32212, Control_c, 0, 64, 50
2, 32228, Control_c, 0, 64, 52
2, 32242, Control_c, 0, 64, 58
2, 32257, Control_c, 0, 64, 63
2, 32258, Note_on_c, 0, 72, 0
2, 32274, Control_c, 0, 64, 67
2, 32289, Control_c, 0, 64, 71
2, 32305, Control_c, 0, 64, 76
2, 32319, Control_c, 0, 64, 84
2, 32334, Control_c, 0, 64, 104
2, 32350, Control_c, 0, 64, 127
2, 32369, Note_on_c, 0, 75, 0
2, 32612, Note_on_c, 0, 75, 77
2, 32699, Note_on_c, 0, 57, 57
2, 32701, Note_on_c, 0, 74, 81
2, 32708, Control_c, 0, 64, 116
2, 32723, Control_c, 0, 64, 73
2, 32738, Control_c, 0, 64, 57
2, 32753, Control_c, 0, 64, 30
2, 32761, Note_on_c, 0, 75, 0
2, 32768, Control_c, 0, 64, 0
2, 32829, Control_c, 0, 64, 37
2, 32844, Control_c, 0, 64, 43
2, 32859, Control_c, 0, 64, 44
2, 32875, Control_c, 0, 64, 49
2, 32877, Control_c, 0, 64, 56
2, 32892, Control_c, 0, 64, 61
2, 32908, Control_c, 0, 64, 65
2, 32923, Control_c, 0, 64, 67
2, 32937, Control_c, 0, 64, 70
2, 32953, Control_c, 0, 64, 76
2, 32968, Control_c, 0, 64, 86
2, 32983, Control_c, 0, 64, 107
2, 32998, Control_c, 0, 64, 127
2, 33096, Note_on_c, 0, 74, 0
2, 33270, Note_on_c, 0, 72, 76
2, 33366, Note_on_c, 0, 81, 85
2, 33369, Control_c, 0, 64, 84
2, 33377, Note_on_c, 0, 72, 0
2, 33385, Control_c, 0, 64, 63
2, 33401, Control_c, 0, 64, 38
2, 33416, Control_c, 0, 64, 0
2, 33553, Control_c, 0, 64, 43
2, 33568, Control_c, 0, 64, 58
2, 33583, Control_c, 0, 64, 62
2, 33598, Control_c, 0, 64, 65
2, 33613, Control_c, 0, 64, 69
2, 33629, Control_c, 0, 64, 76
2, 33644, Control_c, 0, 64, 86
2, 33659, Control_c, 0, 64, 102
2, 33669, Note_on_c, 0, 69, 0
2, 33675, Control_c, 0, 64, 127
2, 33993, Note_on_c, 0, 72, 60
2, 34077, Note_on_c, 0, 62, 44
2, 34086, Note_on_c, 0, 70, 58
2, 34091, Control_c, 0, 64, 80
2, 34107, Control_c, 0, 64, 64
2, 34110, Note_on_c, 0, 57, 0
2, 34121, Control_c, 0, 64, 52
2, 34125, Note_on_c, 0, 72, 0
2, 34136, Control_c, 0, 64, 33
2, 34152, Control_c, 0, 64, 0
2, 34229, Control_c, 0, 64, 30
2, 34244, Control_c, 0, 64, 33
2, 34259, Control_c, 0, 64, 36
2, 34274, Control_c, 0, 64, 47
2, 34289, Control_c, 0, 64, 57
2, 34305, Control_c, 0, 64, 60
2, 34320, Control_c, 0, 64, 61
2, 34351, Control_c, 0, 64, 63
2, 34366, Control_c, 0, 64, 65
2, 34380, Control_c, 0, 64, 65
2, 34411, Control_c, 0, 64, 66
2, 34427, Control_c, 0, 64, 67
2, 34442, Control_c, 0, 64, 69
2, 34457, Control_c, 0, 64, 71
2, 34472, Control_c, 0, 64, 74
2, 34487, Control_c, 0, 64, 76
2, 34503, Control_c, 0, 64, 80
2, 34518, Control_c, 0, 64, 84
2, 34533, Control_c, 0, 64, 89
2, 34548, Control_c, 0, 64, 96
2, 34563, Control_c, 0, 64, 111
2, 34578, Control_c, 0, 64, 127
2, 34690, Note_on_c, 0, 54, 0
2, 34690, Note_on_c, 0, 62, 0
2, 34690, Note_on_c, 0, 70, 0
2, 34690, Note_on_c, 0, 81, 0
2, 34691, End_track
0, 0, End_of_file
