0, 0, Header, 1, 2, 480
1, 0, Start_track
1, 0, Tempo, 500000
1, 0, Time_signature, 4, 2, 24, 8
1, 1, End_track
2,0,Start_track
2,0, Note_on_c, 0, 56, 52
2,92, Control_c, 0, 67, 66
2,995, Note_on_c, 0, 55, 41
2,1050, Control_c, 0, 67, 67
2,1116, Note_on_c, 0, 56, 0
2,1186, Control_c, 0, 64, 38
2,1339, Control_c, 0, 67, 68
2,1513, Note_on_c, 0, 56, 48
2,1575, Note_on_c, 0, 55, 0
2,1736, Note_on_c, 0, 58, 57
2,1744, Control_c, 0, 67, 69
2,1812, Note_on_c, 0, 56, 0
2,2021, Note_on_c, 0, 59, 54
2,2090, Note_on_c, 0, 58, 0
2,2521, Note_on_c, 0, 58, 57
2,2619, Note_on_c, 0, 59, 0
2,3017, Note_on_c, 0, 56, 58
2,3091, Note_on_c, 0, 58, 0
2,3503, Note_on_c, 0, 62, 67
2,3607, Note_on_c, 0, 56, 0
2,3644, Control_c, 0, 67, 70
2,3874, Control_c, 0, 67, 71
2,3990, Control_c, 0, 64, 39
2,4011, Note_on_c, 0, 63, 62
2,4076, Note_on_c, 0, 62, 0
2,4239, Control_c, 0, 67, 72
2,4507, Note_on_c, 0, 54, 56
2,4588, Note_on_c, 0, 63, 0
2,4737, Control_c, 0, 67, 73
2,5019, Note_on_c, 0, 56, 58
2,5047, Note_on_c, 0, 54, 0
2,5064, Control_c, 0, 67, 74
2,5219, Note_on_c, 0, 56, 0
2,5332, Control_c, 0, 67, 73
2,5492, Note_on_c, 0, 56, 56
2,5714, Note_on_c, 0, 56, 0
2,5991, Note_on_c, 0, 58, 46
2,6227, Note_on_c, 0, 58, 0
2,6495, Note_on_c, 0, 58, 41
2,6619, Control_c, 0, 67, 74
2,6722, Note_on_c, 0, 58, 0
2,6772, Control_c, 0, 67, 75
2,6994, Note_on_c, 0, 51, 47
2,7041, Control_c, 0, 67, 76
2,7497, Note_on_c, 0, 53, 56
2,7594, Note_on_c, 0, 51, 0
2,7636, Control_c, 0, 67, 75
2,8054, Note_on_c, 0, 63, 68
2,8080, Note_on_c, 0, 54, 42
2,8138, Note_on_c, 0, 53, 0
2,9005, Note_on_c, 0, 60, 50
2,9100, Note_on_c, 0, 63, 0
2,9287, Control_c, 0, 64, 38
2,9477, Note_on_c, 0, 61, 60
2,9482, Note_on_c, 0, 52, 48
2,9482, Note_on_c, 0, 54, 0
2,9705, Note_on_c, 0, 63, 68
2,9709, Note_on_c, 0, 52, 0
2,9709, Note_on_c, 0, 54, 54
2,9801, Note_on_c, 0, 61, 0
2,9838, Note_on_c, 0, 60, 0
2,9979, Note_on_c, 0, 56, 51
2,9981, Note_on_c, 0, 64, 72
2,10036, Note_on_c, 0, 54, 0
2,10051, Note_on_c, 0, 63, 0
2,10464, Note_on_c, 0, 63, 66
2,10485, Note_on_c, 0, 56, 0
2,10489, Note_on_c, 0, 55, 46
2,10535, Note_on_c, 0, 64, 0
2,10612, Control_c, 0, 64, 37
2,10651, Control_c, 0, 64, 36
2,10668, Control_c, 0, 64, 34
2,10689, Control_c, 0, 64, 29
2,10705, Note_on_c, 0, 56, 54
2,10709, Control_c, 0, 64, 23
2,10730, Control_c, 0, 64, 12
2,10730, Note_on_c, 0, 55, 0
2,10746, Control_c, 0, 64, 0
2,10960, Note_on_c, 0, 61, 60
2,10979, Note_on_c, 0, 58, 51
2,10998, Note_on_c, 0, 56, 0
2,11025, Note_on_c, 0, 63, 0
2,11430, Note_on_c, 0, 67, 69
2,11439, Note_on_c, 0, 58, 0
2,11445, Note_on_c, 0, 56, 47
2,11515, Control_c, 0, 67, 74
2,11572, Control_c, 0, 67, 73
2,11579, Note_on_c, 0, 61, 0
2,11596, Control_c, 0, 67, 72
2,11610, Control_c, 0, 67, 71
2,11630, Control_c, 0, 67, 70
2,11651, Control_c, 0, 67, 67
2,11662, Note_on_c, 0, 58, 57
2,11669, Control_c, 0, 67, 65
2,11689, Note_on_c, 0, 56, 0
2,11695, Control_c, 0, 64, 31
2,11695, Control_c, 0, 67, 64
2,11708, Control_c, 0, 64, 47
2,11712, Control_c, 0, 67, 61
2,11729, Control_c, 0, 64, 59
2,11729, Control_c, 0, 67, 60
2,11746, Control_c, 0, 64, 63
2,11750, Control_c, 0, 67, 49
2,11767, Control_c, 0, 67, 34
2,11783, Control_c, 0, 67, 21
2,11804, Control_c, 0, 64, 64
2,11804, Control_c, 0, 67, 10
2,11824, Control_c, 0, 64, 66
2,11824, Control_c, 0, 67, 8
2,11841, Control_c, 0, 64, 67
2,11846, Control_c, 0, 67, 9
2,11861, Control_c, 0, 64, 68
2,11879, Control_c, 0, 67, 10
2,11909, Note_on_c, 0, 58, 0
2,11918, Control_c, 0, 64, 67
2,11936, Control_c, 0, 64, 66
2,11950, Note_on_c, 0, 68, 72
2,11957, Control_c, 0, 64, 65
2,11961, Note_on_c, 0, 59, 46
2,11975, Control_c, 0, 64, 62
2,11994, Control_c, 0, 64, 56
2,12003, Note_on_c, 0, 67, 0
2,12015, Control_c, 0, 64, 47
2,12031, Control_c, 0, 64, 33
2,12055, Control_c, 0, 64, 18
2,12074, Control_c, 0, 64, 16
2,12092, Control_c, 0, 64, 26
2,12110, Control_c, 0, 64, 43
2,12131, Control_c, 0, 64, 56
2,12149, Control_c, 0, 64, 64
2,12153, Control_c, 0, 67, 9
2,12167, Control_c, 0, 64, 68
2,12167, Note_on_c, 0, 59, 0
2,12186, Control_c, 0, 64, 73
2,12206, Control_c, 0, 64, 78
2,12228, Control_c, 0, 64, 83
2,12245, Control_c, 0, 64, 86
2,12283, Control_c, 0, 64, 85
2,12303, Control_c, 0, 67, 10
2,12341, Control_c, 0, 64, 84
2,12359, Control_c, 0, 64, 82
2,12380, Control_c, 0, 64, 78
2,12398, Control_c, 0, 64, 73
2,12402, Control_c, 0, 67, 11
2,12415, Control_c, 0, 64, 68
2,12436, Note_on_c, 0, 56, 48
2,12441, Control_c, 0, 64, 64
2,12441, Note_on_c, 0, 59, 72
2,12458, Control_c, 0, 64, 60
2,12458, Control_c, 0, 67, 12
2,12474, Control_c, 0, 64, 56
2,12495, Control_c, 0, 64, 50
2,12515, Control_c, 0, 64, 39
2,12519, Control_c, 0, 67, 13
2,12533, Control_c, 0, 64, 21
2,12553, Control_c, 0, 64, 0
2,12570, Note_on_c, 0, 68, 0
2,12574, Control_c, 0, 67, 14
2,12667, Control_c, 0, 67, 15
2,12938, Note_on_c, 0, 61, 58
2,12940, Note_on_c, 0, 58, 48
2,12973, Note_on_c, 0, 56, 0
2,12995, Note_on_c, 0, 59, 0
2,13128, Control_c, 0, 67, 16
2,13164, Note_on_c, 0, 61, 0
2,13356, Note_on_c, 0, 58, 0
2,13409, Note_on_c, 0, 61, 55
2,13741, Note_on_c, 0, 61, 0
2,13909, Note_on_c, 0, 63, 53
2,13911, Note_on_c, 0, 55, 41
2,14201, Note_on_c, 0, 63, 0
2,14404, Note_on_c, 0, 55, 0
2,14421, Note_on_c, 0, 63, 46
2,14888, Note_on_c, 0, 56, 49
2,14975, Note_on_c, 0, 63, 0
2,15183, Control_c, 0, 67, 15
2,15238, Control_c, 0, 67, 14
2,15262, Control_c, 0, 67, 13
2,15278, Control_c, 0, 67, 12
2,15296, Control_c, 0, 67, 11
2,15318, Control_c, 0, 67, 10
2,15336, Control_c, 0, 67, 9
2,15373, Control_c, 0, 67, 0
2,15410, Note_on_c, 0, 54, 60
2,15505, Note_on_c, 0, 56, 0
2,15897, Note_on_c, 0, 61, 37
2,15897, Note_on_c, 0, 68, 73
2,15910, Note_on_c, 0, 52, 46
2,15981, Note_on_c, 0, 54, 0
2,16831, Note_on_c, 0, 51, 41
2,16837, Note_on_c, 0, 67, 57
2,16858, Note_on_c, 0, 52, 0
2,16888, Note_on_c, 0, 68, 0
2,17307, Note_on_c, 0, 59, 50
2,17309, Note_on_c, 0, 68, 75
2,17316, Note_on_c, 0, 56, 45
2,17320, Note_on_c, 0, 51, 0
2,17322, Note_on_c, 0, 61, 0
2,17531, Note_on_c, 0, 70, 77
2,17553, Note_on_c, 0, 61, 42
2,17560, Note_on_c, 0, 59, 0
2,17616, Note_on_c, 0, 68, 0
2,17680, Note_on_c, 0, 67, 0
2,17831, Note_on_c, 0, 71, 77
2,17849, Note_on_c, 0, 63, 52
2,17873, Note_on_c, 0, 61, 0
2,17886, Note_on_c, 0, 70, 0
2,18314, Note_on_c, 0, 58, 47
2,18320, Note_on_c, 0, 63, 0
2,18326, Note_on_c, 0, 70, 71
2,18331, Note_on_c, 0, 62, 47
2,18403, Note_on_c, 0, 56, 0
2,18403, Note_on_c, 0, 71, 0
2,18569, Note_on_c, 0, 63, 63
2,18581, Note_on_c, 0, 62, 0
2,18825, Note_on_c, 0, 63, 0
2,18829, Note_on_c, 0, 68, 76
2,18831, Note_on_c, 0, 59, 53
2,18848, Note_on_c, 0, 65, 47
2,18871, Note_on_c, 0, 70, 0
2,18891, Note_on_c, 0, 58, 0
2,19300, Note_on_c, 0, 65, 0
2,19307, Note_on_c, 0, 74, 83
2,19316, Note_on_c, 0, 63, 45
2,19454, Note_on_c, 0, 68, 0
2,19465, Control_c, 0, 64, 37
2,19483, Control_c, 0, 64, 57
2,19492, Note_on_c, 0, 74, 0
2,19503, Control_c, 0, 64, 67
2,19523, Control_c, 0, 64, 75
2,19523, Note_on_c, 0, 65, 59
2,19540, Control_c, 0, 64, 91
2,19561, Control_c, 0, 64, 115
2,19580, Control_c, 0, 64, 127
2,19654, Note_on_c, 0, 63, 0
2,19683, Note_on_c, 0, 65, 0
2,19745, Note_on_c, 0, 59, 0
2,19809, Control_c, 0, 64, 93
2,19820, Note_on_c, 0, 75, 78
2,19830, Control_c, 0, 64, 73
2,19830, Note_on_c, 0, 58, 53
2,19835, Note_on_c, 0, 66, 64
2,19846, Control_c, 0, 64, 60
2,19869, Control_c, 0, 64, 39
2,19888, Control_c, 0, 64, 0
2,19963, Control_c, 0, 64, 23
2,19982, Control_c, 0, 64, 37
2,20002, Control_c, 0, 64, 50
2,20020, Control_c, 0, 64, 60
2,20039, Control_c, 0, 64, 64
2,20060, Note_on_c, 0, 66, 0
2,20078, Control_c, 0, 64, 65
2,20099, Control_c, 0, 64, 67
2,20115, Control_c, 0, 64, 69
2,20135, Control_c, 0, 64, 71
2,20155, Control_c, 0, 64, 72
2,20250, Control_c, 0, 64, 71
2,20269, Control_c, 0, 64, 70
2,20289, Control_c, 0, 64, 69
2,20308, Control_c, 0, 64, 67
2,20327, Control_c, 0, 64, 63
2,20336, Note_on_c, 0, 63, 58
2,20336, Note_on_c, 0, 66, 70
2,20347, Control_c, 0, 64, 54
2,20370, Control_c, 0, 64, 31
2,20383, Control_c, 0, 64, 0
2,20462, Control_c, 0, 64, 24
2,20478, Note_on_c, 0, 75, 0
2,20482, Control_c, 0, 64, 41
2,20500, Control_c, 0, 64, 57
2,20519, Control_c, 0, 64, 64
2,20539, Control_c, 0, 64, 66
2,20547, Note_on_c, 0, 63, 0
2,20558, Control_c, 0, 64, 68
2,20576, Control_c, 0, 64, 70
2,20597, Control_c, 0, 64, 74
2,20613, Control_c, 0, 64, 77
2,20633, Control_c, 0, 64, 79
2,20692, Control_c, 0, 64, 78
2,20713, Control_c, 0, 64, 77
2,20730, Control_c, 0, 64, 75
2,20751, Control_c, 0, 64, 72
2,20771, Control_c, 0, 64, 66
2,20789, Control_c, 0, 64, 60
2,20809, Note_on_c, 0, 66, 0
2,20814, Control_c, 0, 64, 49
2,20828, Control_c, 0, 64, 27
2,20828, Note_on_c, 0, 58, 0
2,20828, Note_on_c, 0, 68, 61
2,20832, Note_on_c, 0, 56, 55
2,20837, Note_on_c, 0, 65, 47
2,20845, Control_c, 0, 64, 0
2,21042, Note_on_c, 0, 68, 0
2,21335, Note_on_c, 0, 68, 68
2,21376, Note_on_c, 0, 65, 0
2,21724, Note_on_c, 0, 68, 0
2,21783, Note_on_c, 0, 70, 58
2,21803, Note_on_c, 0, 62, 51
2,21939, Control_c, 0, 64, 27
2,21962, Control_c, 0, 64, 48
2,21978, Control_c, 0, 64, 62
2,21998, Control_c, 0, 64, 67
2,22002, Note_on_c, 0, 70, 0
2,22016, Control_c, 0, 64, 69
2,22035, Control_c, 0, 64, 71
2,22056, Control_c, 0, 64, 73
2,22074, Control_c, 0, 64, 76
2,22094, Control_c, 0, 64, 77
2,22132, Control_c, 0, 64, 76
2,22150, Control_c, 0, 64, 75
2,22173, Control_c, 0, 64, 73
2,22190, Control_c, 0, 64, 70
2,22211, Control_c, 0, 64, 65
2,22227, Control_c, 0, 64, 61
2,22248, Control_c, 0, 64, 58
2,22266, Control_c, 0, 64, 57
2,22285, Control_c, 0, 64, 55
2,22285, Note_on_c, 0, 70, 66
2,22308, Control_c, 0, 64, 52
2,22324, Control_c, 0, 64, 41
2,22344, Control_c, 0, 64, 0
2,22800, Note_on_c, 0, 63, 63
2,22866, Note_on_c, 0, 62, 0
2,22866, Note_on_c, 0, 70, 0
2,23270, Note_on_c, 0, 65, 64
2,23282, Note_on_c, 0, 54, 59
2,23289, Note_on_c, 0, 56, 0
2,23399, Note_on_c, 0, 63, 0
2,23511, Note_on_c, 0, 56, 73
2,23576, Note_on_c, 0, 54, 0
2,23788, Note_on_c, 0, 51, 73
2,23792, Note_on_c, 0, 66, 70
2,23820, Note_on_c, 0, 58, 23
2,23825, Note_on_c, 0, 65, 0
2,23840, Note_on_c, 0, 56, 0
2,23942, Note_on_c, 0, 58, 0
2,24033, Control_c, 0, 64, 32
2,24050, Control_c, 0, 64, 48
2,24073, Control_c, 0, 64, 59
2,24091, Control_c, 0, 64, 62
2,24111, Control_c, 0, 64, 63
2,24148, Control_c, 0, 64, 64
2,24168, Control_c, 0, 64, 65
2,24243, Control_c, 0, 64, 64
2,24265, Control_c, 0, 64, 63
2,24283, Control_c, 0, 64, 59
2,24294, Note_on_c, 0, 54, 53
2,24298, Note_on_c, 0, 58, 58
2,24303, Control_c, 0, 64, 53
2,24321, Control_c, 0, 64, 43
2,24342, Control_c, 0, 64, 35
2,24360, Control_c, 0, 64, 39
2,24378, Control_c, 0, 64, 48
2,24397, Control_c, 0, 64, 58
2,24417, Control_c, 0, 64, 63
2,24421, Note_on_c, 0, 51, 0
2,24437, Control_c, 0, 64, 66
2,24455, Control_c, 0, 64, 71
2,24473, Control_c, 0, 64, 82
2,24492, Control_c, 0, 64, 109
2,24515, Control_c, 0, 64, 127
2,24705, Control_c, 0, 64, 110
2,24713, Note_on_c, 0, 58, 0
2,24727, Control_c, 0, 64, 95
2,24745, Note_on_c, 0, 48, 60
2,24750, Control_c, 0, 64, 85
2,24750, Note_on_c, 0, 56, 60
2,24763, Control_c, 0, 64, 73
2,24784, Control_c, 0, 64, 63
2,24795, Note_on_c, 0, 54, 0
2,24799, Note_on_c, 0, 51, 37
2,24804, Control_c, 0, 64, 53
2,24820, Control_c, 0, 64, 39
2,24838, Control_c, 0, 64, 23
2,24858, Control_c, 0, 64, 0
2,24920, Note_on_c, 0, 51, 0
2,24920, Note_on_c, 0, 51, 3
2,25199, Note_on_c, 0, 66, 0
2,25204, Note_on_c, 0, 49, 61
2,25212, Note_on_c, 0, 64, 68
2,25223, Note_on_c, 0, 48, 0
2,25244, Note_on_c, 0, 51, 0
2,25432, Note_on_c, 0, 51, 68
2,25440, Note_on_c, 0, 66, 69
2,25487, Note_on_c, 0, 49, 0
2,25494, Note_on_c, 0, 64, 0
2,25712, Note_on_c, 0, 56, 0
2,25725, Note_on_c, 0, 52, 68
2,25725, Note_on_c, 0, 68, 70
2,25786, Note_on_c, 0, 66, 0
2,25797, Note_on_c, 0, 51, 0
2,26183, Note_on_c, 0, 51, 66
2,26197, Note_on_c, 0, 59, 48
2,26208, Note_on_c, 0, 67, 68
2,26212, Note_on_c, 0, 63, 59
2,26226, Note_on_c, 0, 52, 0
2,26246, Note_on_c, 0, 68, 0
2,26384, Note_on_c, 0, 59, 0
2,26393, Control_c, 0, 64, 8
2,26415, Control_c, 0, 64, 37
2,26432, Control_c, 0, 64, 54
2,26441, Note_on_c, 0, 68, 72
2,26453, Control_c, 0, 64, 60
2,26471, Control_c, 0, 64, 61
2,26509, Control_c, 0, 64, 62
2,26547, Control_c, 0, 64, 63
2,26605, Control_c, 0, 64, 62
2,26657, Note_on_c, 0, 67, 0
2,26682, Control_c, 0, 64, 61
2,26702, Control_c, 0, 64, 60
2,26706, Note_on_c, 0, 49, 63
2,26710, Note_on_c, 0, 70, 67
2,26724, Control_c, 0, 64, 58
2,26730, Note_on_c, 0, 64, 52
2,26739, Control_c, 0, 64, 55
2,26758, Control_c, 0, 64, 49
2,26765, Note_on_c, 0, 63, 0
2,26778, Control_c, 0, 64, 34
2,26783, Note_on_c, 0, 51, 0
2,26785, Note_on_c, 0, 68, 0
2,26799, Control_c, 0, 64, 0
2,26803, Note_on_c, 0, 61, 27
2,27181, Note_on_c, 0, 68, 72
2,27183, Note_on_c, 0, 55, 71
2,27217, Note_on_c, 0, 70, 0
2,27236, Note_on_c, 0, 61, 0
2,27272, Note_on_c, 0, 49, 0
2,27415, Note_on_c, 0, 70, 74
2,27459, Note_on_c, 0, 68, 0
2,27696, Note_on_c, 0, 56, 64
2,27701, Note_on_c, 0, 71, 70
2,27710, Note_on_c, 0, 63, 59
2,27746, Note_on_c, 0, 55, 0
2,27757, Note_on_c, 0, 64, 0
2,27781, Note_on_c, 0, 70, 0
2,28197, Note_on_c, 0, 68, 66
2,28213, Note_on_c, 0, 47, 55
2,28277, Note_on_c, 0, 71, 0
2,28331, Note_on_c, 0, 63, 0
2,28335, Note_on_c, 0, 56, 0
2,28693, Note_on_c, 0, 49, 50
2,28698, Note_on_c, 0, 47, 0
2,28698, Note_on_c, 0, 70, 67
2,28700, Note_on_c, 0, 61, 48
2,28700, Note_on_c, 0, 64, 56
2,28759, Note_on_c, 0, 68, 0
2,28934, Note_on_c, 0, 49, 0
2,29148, Note_on_c, 0, 61, 0
2,29161, Note_on_c, 0, 70, 0
2,29169, Note_on_c, 0, 64, 0
2,29190, Note_on_c, 0, 49, 53
2,29531, Note_on_c, 0, 49, 0
2,29700, Note_on_c, 0, 51, 43
2,29702, Note_on_c, 0, 58, 43
2,29702, Note_on_c, 0, 67, 55
2,29707, Note_on_c, 0, 63, 49
2,29957, Note_on_c, 0, 51, 0
2,30168, Note_on_c, 0, 58, 0
2,30173, Note_on_c, 0, 67, 0
2,30180, Note_on_c, 0, 63, 0
2,30198, Note_on_c, 0, 51, 57
2,30692, Note_on_c, 0, 68, 62
2,30701, Note_on_c, 0, 44, 37
2,30705, Note_on_c, 0, 59, 50
2,30708, Note_on_c, 0, 63, 47
2,30739, Note_on_c, 0, 51, 0
2,31193, Note_on_c, 0, 70, 73
2,31232, Note_on_c, 0, 68, 0
2,31494, Note_on_c, 0, 44, 0
2,31660, Note_on_c, 0, 59, 0
2,31691, Note_on_c, 0, 71, 72
2,31749, Note_on_c, 0, 63, 0
2,31782, Note_on_c, 0, 70, 0
2,32149, Note_on_c, 0, 51, 51
2,32154, Note_on_c, 0, 66, 64
2,32158, Note_on_c, 0, 59, 55
2,32223, Note_on_c, 0, 71, 0
2,32251, Control_c, 0, 64, 29
2,32268, Control_c, 0, 64, 49
2,32287, Control_c, 0, 64, 62
2,32292, Note_on_c, 0, 59, 0
2,32307, Control_c, 0, 64, 67
2,32330, Control_c, 0, 64, 70
2,32345, Control_c, 0, 64, 74
2,32349, Note_on_c, 0, 66, 0
2,32365, Control_c, 0, 64, 80
2,32384, Control_c, 0, 64, 88
2,32403, Control_c, 0, 64, 99
2,32421, Control_c, 0, 64, 113
2,32441, Control_c, 0, 64, 122
2,32480, Control_c, 0, 64, 120
2,32557, Control_c, 0, 64, 116
2,32577, Control_c, 0, 64, 111
2,32599, Control_c, 0, 64, 106
2,32614, Control_c, 0, 64, 100
2,32634, Control_c, 0, 64, 94
2,32653, Control_c, 0, 64, 86
2,32669, Note_on_c, 0, 73, 79
2,32673, Control_c, 0, 64, 73
2,32680, Note_on_c, 0, 68, 67
2,32685, Note_on_c, 0, 52, 49
2,32692, Control_c, 0, 64, 61
2,32699, Note_on_c, 0, 51, 0
2,32699, Note_on_c, 0, 64, 55
2,32710, Control_c, 0, 64, 43
2,32734, Control_c, 0, 64, 0
2,32912, Note_on_c, 0, 52, 0
2,33105, Note_on_c, 0, 64, 0
2,33134, Note_on_c, 0, 73, 0
2,33152, Note_on_c, 0, 52, 65
2,33156, Note_on_c, 0, 68, 0
2,33483, Note_on_c, 0, 52, 0
2,33622, Note_on_c, 0, 70, 76
2,33636, Note_on_c, 0, 54, 45
2,33636, Note_on_c, 0, 66, 61
2,33640, Note_on_c, 0, 61, 53
2,33895, Note_on_c, 0, 54, 0
2,34041, Note_on_c, 0, 61, 0
2,34105, Note_on_c, 0, 54, 60
2,34105, Note_on_c, 0, 66, 0
2,34133, Note_on_c, 0, 70, 0
2,34589, Note_on_c, 0, 47, 36
2,34614, Note_on_c, 0, 63, 40
2,34618, Note_on_c, 0, 66, 43
2,34623, Note_on_c, 0, 71, 43
2,34662, Note_on_c, 0, 54, 0
2,35046, Note_on_c, 0, 71, 0
2,35071, Note_on_c, 0, 75, 58
2,35093, Note_on_c, 0, 66, 0
2,35291, Note_on_c, 0, 74, 66
2,35347, Note_on_c, 0, 75, 0
2,35411, Note_on_c, 0, 47, 0
2,35566, Note_on_c, 0, 75, 62
2,35614, Note_on_c, 0, 74, 0
2,35692, Note_on_c, 0, 63, 0
2,36006, Note_on_c, 0, 70, 58
2,36024, Note_on_c, 0, 63, 44
2,36025, Note_on_c, 0, 54, 40
2,36090, Control_c, 0, 64, 29
2,36105, Note_on_c, 0, 75, 0
2,36110, Control_c, 0, 64, 48
2,36128, Control_c, 0, 64, 61
2,36146, Control_c, 0, 64, 66
2,36151, Note_on_c, 0, 63, 0
2,36166, Control_c, 0, 64, 68
2,36185, Control_c, 0, 64, 71
2,36199, Note_on_c, 0, 70, 0
2,36205, Control_c, 0, 64, 76
2,36224, Control_c, 0, 64, 82
2,36245, Control_c, 0, 64, 89
2,36263, Control_c, 0, 64, 94
2,36339, Control_c, 0, 64, 97
2,36358, Control_c, 0, 64, 102
2,36378, Control_c, 0, 64, 110
2,36398, Control_c, 0, 64, 115
2,36415, Note_on_c, 0, 54, 0
2,36419, Control_c, 0, 64, 113
2,36437, Control_c, 0, 64, 108
2,36456, Control_c, 0, 64, 102
2,36474, Control_c, 0, 64, 93
2,36489, Note_on_c, 0, 56, 41
2,36489, Note_on_c, 0, 77, 73
2,36493, Control_c, 0, 64, 81
2,36508, Note_on_c, 0, 68, 59
2,36512, Control_c, 0, 64, 67
2,36520, Note_on_c, 0, 71, 54
2,36532, Control_c, 0, 64, 55
2,36549, Control_c, 0, 64, 24
2,36571, Control_c, 0, 64, 0
2,36715, Note_on_c, 0, 56, 0
2,36975, Note_on_c, 0, 68, 0
2,36975, Note_on_c, 0, 77, 0
2,36988, Note_on_c, 0, 56, 60
2,36993, Note_on_c, 0, 71, 0
2,37284, Note_on_c, 0, 56, 0
2,37477, Note_on_c, 0, 58, 54
2,37477, Note_on_c, 0, 74, 72
2,37494, Note_on_c, 0, 70, 57
2,37502, Note_on_c, 0, 65, 47
2,37731, Note_on_c, 0, 58, 0
2,37908, Note_on_c, 0, 65, 0
2,37962, Note_on_c, 0, 74, 0
2,37987, Note_on_c, 0, 70, 0
2,37989, Note_on_c, 0, 58, 66
2,38445, Note_on_c, 0, 75, 74
2,38453, Note_on_c, 0, 58, 0
2,38459, Note_on_c, 0, 63, 47
2,38459, Note_on_c, 0, 66, 66
2,38462, Note_on_c, 0, 51, 51
2,38625, Control_c, 0, 64, 13
2,38646, Control_c, 0, 64, 35
2,38661, Control_c, 0, 64, 50
2,38684, Control_c, 0, 64, 61
2,38693, Note_on_c, 0, 66, 0
2,38702, Control_c, 0, 64, 64
2,38720, Control_c, 0, 64, 65
2,38740, Control_c, 0, 64, 66
2,38761, Control_c, 0, 64, 70
2,38778, Control_c, 0, 64, 76
2,38797, Control_c, 0, 64, 85
2,38816, Control_c, 0, 64, 93
2,38834, Control_c, 0, 64, 94
2,38873, Control_c, 0, 64, 92
2,38893, Control_c, 0, 64, 87
2,38911, Control_c, 0, 64, 78
2,38920, Note_on_c, 0, 77, 85
2,38924, Note_on_c, 0, 68, 76
2,38933, Control_c, 0, 64, 65
2,38954, Control_c, 0, 64, 52
2,38967, Control_c, 0, 64, 37
2,39011, Control_c, 0, 64, 47
2,39022, Note_on_c, 0, 63, 0
2,39027, Control_c, 0, 64, 58
2,39047, Control_c, 0, 64, 63
2,39065, Control_c, 0, 64, 65
2,39087, Control_c, 0, 64, 70
2,39103, Control_c, 0, 64, 78
2,39124, Control_c, 0, 64, 91
2,39144, Control_c, 0, 64, 111
2,39159, Note_on_c, 0, 77, 0
2,39166, Control_c, 0, 64, 127
2,39212, Note_on_c, 0, 75, 0
2,39226, Note_on_c, 0, 68, 0
2,39295, Control_c, 0, 64, 112
2,39315, Control_c, 0, 64, 106
2,39335, Control_c, 0, 64, 103
2,39353, Control_c, 0, 64, 99
2,39372, Control_c, 0, 64, 96
2,39390, Note_on_c, 0, 63, 73
2,39392, Control_c, 0, 64, 90
2,39395, Note_on_c, 0, 78, 76
2,39412, Control_c, 0, 64, 81
2,39412, Note_on_c, 0, 70, 64
2,39429, Control_c, 0, 64, 70
2,39448, Control_c, 0, 64, 61
2,39463, Note_on_c, 0, 51, 0
2,39469, Control_c, 0, 64, 49
2,39492, Control_c, 0, 64, 28
2,39507, Control_c, 0, 64, 0
2,39898, Note_on_c, 0, 71, 58
2,39923, Note_on_c, 0, 70, 0
2,40118, Note_on_c, 0, 70, 62
2,40134, Note_on_c, 0, 71, 0
2,40382, Note_on_c, 0, 60, 60
2,40390, Note_on_c, 0, 70, 0
2,40395, Note_on_c, 0, 68, 67
2,40450, Note_on_c, 0, 63, 0
2,40848, Note_on_c, 0, 61, 58
2,40857, Note_on_c, 0, 76, 73
2,40864, Note_on_c, 0, 73, 65
2,40900, Note_on_c, 0, 60, 0
2,40916, Note_on_c, 0, 78, 0
2,40925, Note_on_c, 0, 68, 0
2,41080, Note_on_c, 0, 78, 78
2,41087, Note_on_c, 0, 63, 70
2,41153, Note_on_c, 0, 61, 0
2,41191, Note_on_c, 0, 76, 0
2,41366, Note_on_c, 0, 80, 73
2,41375, Note_on_c, 0, 64, 72
2,41430, Note_on_c, 0, 78, 0
2,41435, Note_on_c, 0, 63, 0
2,41841, Note_on_c, 0, 63, 64
2,41841, Note_on_c, 0, 79, 73
2,41846, Note_on_c, 0, 75, 57
2,41890, Note_on_c, 0, 80, 0
2,41934, Note_on_c, 0, 64, 0
2,41936, Note_on_c, 0, 73, 0
2,42076, Note_on_c, 0, 80, 76
2,42328, Note_on_c, 0, 61, 64
2,42337, Note_on_c, 0, 82, 73
2,42342, Note_on_c, 0, 79, 0
2,42344, Note_on_c, 0, 76, 67
2,42386, Note_on_c, 0, 75, 0
2,42417, Note_on_c, 0, 63, 0
2,42424, Note_on_c, 0, 80, 0
2,42793, Note_on_c, 0, 67, 75
2,42793, Note_on_c, 0, 80, 77
2,42839, Note_on_c, 0, 82, 0
2,42881, Note_on_c, 0, 61, 0
2,43022, Note_on_c, 0, 82, 79
2,43119, Note_on_c, 0, 80, 0
2,43292, Note_on_c, 0, 68, 73
2,43296, Note_on_c, 0, 83, 72
2,43305, Note_on_c, 0, 75, 67
2,43341, Note_on_c, 0, 67, 0
2,43366, Note_on_c, 0, 76, 0
2,43391, Note_on_c, 0, 82, 0
2,43755, Note_on_c, 0, 80, 72
2,43778, Note_on_c, 0, 59, 65
2,43834, Note_on_c, 0, 83, 0
2,43845, Note_on_c, 0, 68, 0
2,44247, Note_on_c, 0, 61, 61
2,44249, Note_on_c, 0, 82, 74
2,44260, Note_on_c, 0, 73, 68
2,44281, Note_on_c, 0, 59, 0
2,44316, Note_on_c, 0, 75, 0
2,44320, Note_on_c, 0, 80, 0
2,44503, Note_on_c, 0, 61, 0
2,44730, Note_on_c, 0, 61, 61
2,44764, Note_on_c, 0, 82, 0
2,45026, Note_on_c, 0, 61, 0
2,45207, Note_on_c, 0, 79, 76
2,45222, Note_on_c, 0, 63, 52
2,45502, Note_on_c, 0, 63, 0
2,45696, Note_on_c, 0, 63, 62
2,45710, Note_on_c, 0, 79, 0
2,46178, Note_on_c, 0, 80, 70
2,46190, Note_on_c, 0, 56, 45
2,46247, Note_on_c, 0, 63, 0
2,46381, Control_c, 0, 64, 10
2,46399, Control_c, 0, 64, 21
2,46419, Control_c, 0, 64, 29
2,46439, Control_c, 0, 64, 37
2,46458, Control_c, 0, 64, 46
2,46477, Control_c, 0, 64, 55
2,46496, Control_c, 0, 64, 61
2,46514, Control_c, 0, 64, 64
2,46534, Control_c, 0, 64, 66
2,46554, Control_c, 0, 64, 71
2,46572, Control_c, 0, 64, 80
2,46592, Control_c, 0, 64, 92
2,46613, Control_c, 0, 64, 107
2,46631, Control_c, 0, 64, 127
2,46636, Note_on_c, 0, 78, 73
2,46687, Note_on_c, 0, 80, 0
2,46729, Note_on_c, 0, 73, 0
2,46771, Note_on_c, 0, 78, 0
2,46864, Note_on_c, 0, 56, 0
2,46880, Control_c, 0, 64, 116
2,46882, Note_on_c, 0, 76, 75
2,46902, Control_c, 0, 64, 108
2,46918, Control_c, 0, 64, 101
2,46938, Control_c, 0, 64, 94
2,46956, Control_c, 0, 64, 88
2,46975, Control_c, 0, 64, 82
2,46995, Control_c, 0, 64, 78
2,47015, Control_c, 0, 64, 75
2,47032, Control_c, 0, 64, 73
2,47051, Control_c, 0, 64, 71
2,47071, Control_c, 0, 64, 69
2,47090, Control_c, 0, 64, 66
2,47112, Control_c, 0, 64, 63
2,47131, Control_c, 0, 64, 59
2,47137, Note_on_c, 0, 75, 72
2,47148, Control_c, 0, 64, 53
2,47148, Note_on_c, 0, 71, 68
2,47169, Control_c, 0, 64, 46
2,47183, Note_on_c, 0, 76, 0
2,47188, Control_c, 0, 64, 37
2,47206, Control_c, 0, 64, 16
2,47225, Control_c, 0, 64, 0
2,47594, Note_on_c, 0, 76, 84
2,47598, Note_on_c, 0, 56, 58
2,47655, Note_on_c, 0, 75, 0
2,48069, Note_on_c, 0, 78, 84
2,48078, Note_on_c, 0, 57, 67
2,48079, Note_on_c, 0, 69, 59
2,48108, Note_on_c, 0, 56, 0
2,48110, Note_on_c, 0, 71, 0
2,48139, Note_on_c, 0, 76, 0
2,48322, Note_on_c, 0, 57, 0
2,48544, Note_on_c, 0, 57, 69
2,48583, Note_on_c, 0, 78, 0
2,48873, Note_on_c, 0, 57, 0
2,49023, Note_on_c, 0, 75, 68
2,49040, Note_on_c, 0, 59, 54
2,49347, Note_on_c, 0, 59, 0
2,49510, Note_on_c, 0, 75, 0
2,49514, Note_on_c, 0, 59, 56
2,50005, Note_on_c, 0, 52, 43
2,50005, Note_on_c, 0, 76, 67
2,50083, Note_on_c, 0, 59, 0
2,50484, Note_on_c, 0, 75, 62
2,50693, Note_on_c, 0, 76, 0
2,50719, Note_on_c, 0, 73, 68
2,50762, Note_on_c, 0, 75, 0
2,50990, Note_on_c, 0, 68, 56
2,50996, Note_on_c, 0, 52, 0
2,51002, Note_on_c, 0, 72, 67
2,51047, Note_on_c, 0, 73, 0
2,51077, Note_on_c, 0, 69, 0
2,51465, Note_on_c, 0, 52, 50
2,51471, Note_on_c, 0, 73, 64
2,51505, Note_on_c, 0, 72, 0
2,51961, Note_on_c, 0, 75, 63
2,51969, Note_on_c, 0, 54, 50
2,51969, Note_on_c, 0, 66, 49
2,51972, Note_on_c, 0, 52, 0
2,52009, Note_on_c, 0, 73, 0
2,52028, Note_on_c, 0, 68, 0
2,52241, Note_on_c, 0, 54, 0
2,52444, Note_on_c, 0, 54, 55
2,52455, Note_on_c, 0, 75, 0
2,52728, Note_on_c, 0, 54, 0
2,52905, Note_on_c, 0, 72, 58
2,52910, Note_on_c, 0, 56, 42
2,53196, Note_on_c, 0, 56, 0
2,53307, Note_on_c, 0, 72, 0
2,53384, Note_on_c, 0, 56, 51
2,53872, Note_on_c, 0, 73, 60
2,53874, Note_on_c, 0, 49, 43
2,53945, Note_on_c, 0, 66, 0
2,53954, Note_on_c, 0, 56, 0
2,54378, Note_on_c, 0, 51, 57
2,54378, Note_on_c, 0, 64, 63
2,54469, Note_on_c, 0, 49, 0
2,54599, Note_on_c, 0, 66, 66
2,54874, Note_on_c, 0, 68, 65
2,54881, Note_on_c, 0, 49, 57
2,54881, Note_on_c, 0, 52, 51
2,54916, Note_on_c, 0, 64, 0
2,54929, Note_on_c, 0, 66, 0
2,54941, Note_on_c, 0, 51, 0
2,55360, Note_on_c, 0, 52, 0
2,55371, Note_on_c, 0, 54, 56
2,55375, Note_on_c, 0, 66, 55
2,55432, Note_on_c, 0, 68, 0
2,55607, Note_on_c, 0, 64, 65
2,55620, Note_on_c, 0, 66, 0
2,55888, Note_on_c, 0, 48, 58
2,55892, Note_on_c, 0, 56, 49
2,55898, Note_on_c, 0, 63, 63
2,55931, Note_on_c, 0, 73, 0
2,55938, Note_on_c, 0, 49, 0
2,55943, Note_on_c, 0, 54, 0
2,55950, Note_on_c, 0, 64, 0
2,56356, Note_on_c, 0, 49, 61
2,56363, Note_on_c, 0, 73, 70
2,56378, Note_on_c, 0, 64, 62
2,56382, Note_on_c, 0, 63, 0
2,56389, Note_on_c, 0, 48, 0
2,56593, Note_on_c, 0, 51, 74
2,56593, Note_on_c, 0, 66, 70
2,56637, Note_on_c, 0, 49, 0
2,56834, Note_on_c, 0, 64, 0
2,56884, Note_on_c, 0, 68, 69
2,56891, Note_on_c, 0, 52, 70
2,56942, Note_on_c, 0, 51, 0
2,56952, Note_on_c, 0, 66, 0
2,56956, Note_on_c, 0, 56, 0
2,57056, Control_c, 0, 64, 13
2,57072, Control_c, 0, 64, 26
2,57094, Control_c, 0, 64, 35
2,57112, Control_c, 0, 64, 43
2,57132, Control_c, 0, 64, 50
2,57150, Control_c, 0, 64, 55
2,57169, Control_c, 0, 64, 57
2,57190, Control_c, 0, 64, 58
2,57210, Control_c, 0, 64, 59
2,57229, Control_c, 0, 64, 60
2,57343, Control_c, 0, 64, 59
2,57352, Note_on_c, 0, 51, 70
2,57352, Note_on_c, 0, 68, 0
2,57354, Note_on_c, 0, 75, 62
2,57356, Note_on_c, 0, 67, 60
2,57365, Control_c, 0, 64, 56
2,57374, Note_on_c, 0, 59, 54
2,57383, Control_c, 0, 64, 48
2,57401, Control_c, 0, 64, 26
2,57414, Note_on_c, 0, 52, 0
2,57421, Control_c, 0, 64, 0
2,57464, Note_on_c, 0, 73, 0
2,57554, Control_c, 0, 64, 8
2,57566, Note_on_c, 0, 59, 0
2,57575, Control_c, 0, 64, 32
2,57591, Note_on_c, 0, 68, 72
2,57596, Control_c, 0, 64, 46
2,57612, Control_c, 0, 64, 57
2,57630, Control_c, 0, 64, 62
2,57652, Control_c, 0, 64, 63
2,57652, Note_on_c, 0, 75, 0
2,57669, Control_c, 0, 64, 64
2,57690, Control_c, 0, 64, 65
2,57711, Control_c, 0, 64, 66
2,57726, Control_c, 0, 64, 67
2,57786, Control_c, 0, 64, 66
2,57804, Control_c, 0, 64, 65
2,57825, Control_c, 0, 64, 64
2,57844, Control_c, 0, 64, 62
2,57854, Note_on_c, 0, 49, 64
2,57863, Control_c, 0, 64, 56
2,57868, Note_on_c, 0, 76, 66
2,57870, Note_on_c, 0, 70, 59
2,57883, Control_c, 0, 64, 46
2,57883, Note_on_c, 0, 68, 0
2,57888, Note_on_c, 0, 61, 43
2,57903, Control_c, 0, 64, 24
2,57903, Note_on_c, 0, 67, 0
2,57921, Control_c, 0, 64, 0
2,57933, Note_on_c, 0, 51, 0
2,58326, Note_on_c, 0, 68, 67
2,58330, Note_on_c, 0, 55, 69
2,58337, Note_on_c, 0, 70, 0
2,58392, Note_on_c, 0, 76, 0
2,58414, Note_on_c, 0, 61, 0
2,58462, Note_on_c, 0, 49, 0
2,58569, Note_on_c, 0, 70, 73
2,58610, Control_c, 0, 64, 23
2,58630, Control_c, 0, 64, 36
2,58651, Control_c, 0, 64, 42
2,58656, Note_on_c, 0, 68, 0
2,58669, Control_c, 0, 64, 45
2,58686, Control_c, 0, 64, 47
2,58783, Control_c, 0, 64, 46
2,58802, Control_c, 0, 64, 44
2,58820, Note_on_c, 0, 75, 68
2,58824, Control_c, 0, 64, 38
2,58824, Note_on_c, 0, 56, 68
2,58832, Note_on_c, 0, 71, 67
2,58842, Control_c, 0, 64, 27
2,58861, Control_c, 0, 64, 0
2,58861, Note_on_c, 0, 70, 0
2,58883, Note_on_c, 0, 55, 0
2,59304, Note_on_c, 0, 47, 60
2,59304, Note_on_c, 0, 63, 56
2,59308, Note_on_c, 0, 68, 65
2,59374, Note_on_c, 0, 71, 0
2,59385, Note_on_c, 0, 75, 0
2,59456, Note_on_c, 0, 56, 0
2,59475, Control_c, 0, 64, 15
2,59493, Control_c, 0, 64, 33
2,59515, Control_c, 0, 64, 46
2,59532, Control_c, 0, 64, 56
2,59554, Control_c, 0, 64, 60
2,59554, Note_on_c, 0, 63, 0
2,59590, Control_c, 0, 64, 61
2,59609, Control_c, 0, 64, 62
2,59628, Control_c, 0, 64, 63
2,59648, Control_c, 0, 64, 64
2,59743, Control_c, 0, 64, 63
2,59775, Note_on_c, 0, 68, 0
2,59783, Control_c, 0, 64, 62
2,59783, Note_on_c, 0, 49, 59
2,59794, Note_on_c, 0, 73, 65
2,59803, Control_c, 0, 64, 61
2,59810, Note_on_c, 0, 64, 58
2,59810, Note_on_c, 0, 70, 59
2,59820, Control_c, 0, 64, 60
2,59833, Note_on_c, 0, 47, 0
2,59843, Control_c, 0, 64, 56
2,59859, Control_c, 0, 64, 48
2,59878, Control_c, 0, 64, 26
2,59897, Control_c, 0, 64, 0
2,60088, Note_on_c, 0, 49, 0
2,60257, Note_on_c, 0, 64, 0
2,60268, Note_on_c, 0, 70, 0
2,60288, Note_on_c, 0, 49, 61
2,60598, Note_on_c, 0, 49, 0
2,60774, Note_on_c, 0, 51, 60
2,60774, Note_on_c, 0, 67, 59
2,60781, Note_on_c, 0, 63, 51
2,61069, Note_on_c, 0, 51, 0
2,61235, Note_on_c, 0, 63, 0
2,61242, Note_on_c, 0, 51, 56
2,61257, Note_on_c, 0, 67, 0
2,61727, Note_on_c, 0, 68, 52
2,61736, Note_on_c, 0, 63, 43
2,61740, Note_on_c, 0, 44, 44
2,61771, Note_on_c, 0, 51, 0
2,61816, Control_c, 0, 64, 36
2,61835, Control_c, 0, 64, 52
2,61848, Note_on_c, 0, 68, 0
2,61848, Note_on_c, 0, 73, 0
2,61853, Note_on_c, 0, 63, 0
2,61857, Control_c, 0, 64, 62
2,61876, Control_c, 0, 64, 65
2,61894, Control_c, 0, 64, 67
2,61912, Control_c, 0, 64, 69
2,61932, Control_c, 0, 64, 76
2,61952, Control_c, 0, 64, 85
2,61971, Control_c, 0, 64, 97
2,61989, Control_c, 0, 64, 106
2,62010, Control_c, 0, 64, 107
2,62068, Control_c, 0, 64, 111
2,62086, Control_c, 0, 64, 127
2,62216, Note_on_c, 0, 79, 73
2,62222, Note_on_c, 0, 46, 49
2,62261, Control_c, 0, 64, 108
2,62280, Control_c, 0, 64, 89
2,62288, Note_on_c, 0, 44, 0
2,62298, Control_c, 0, 64, 75
2,62318, Control_c, 0, 64, 65
2,62334, Control_c, 0, 64, 56
2,62353, Control_c, 0, 64, 39
2,62374, Control_c, 0, 64, 0
2,62692, Note_on_c, 0, 56, 43
2,62699, Note_on_c, 0, 47, 44
2,62705, Note_on_c, 0, 80, 73
2,62736, Note_on_c, 0, 46, 0
2,62807, Note_on_c, 0, 79, 0
2,62852, Control_c, 0, 64, 39
2,62874, Control_c, 0, 64, 57
2,62893, Control_c, 0, 64, 64
2,62912, Control_c, 0, 64, 65
2,62930, Control_c, 0, 64, 66
2,62949, Control_c, 0, 64, 68
2,62972, Control_c, 0, 64, 70
2,63028, Control_c, 0, 64, 69
2,63044, Control_c, 0, 64, 68
2,63083, Control_c, 0, 64, 67
2,63103, Control_c, 0, 64, 66
2,63121, Control_c, 0, 64, 64
2,63144, Control_c, 0, 64, 61
2,63161, Control_c, 0, 64, 55
2,63181, Control_c, 0, 64, 45
2,63201, Control_c, 0, 64, 29
2,63201, Note_on_c, 0, 71, 62
2,63214, Note_on_c, 0, 47, 0
2,63214, Note_on_c, 0, 49, 45
2,63219, Control_c, 0, 64, 0
2,63307, Note_on_c, 0, 80, 0
2,63334, Control_c, 0, 64, 15
2,63352, Control_c, 0, 64, 41
2,63372, Control_c, 0, 64, 58
2,63393, Control_c, 0, 64, 66
2,63410, Control_c, 0, 64, 70
2,63430, Control_c, 0, 64, 74
2,63449, Control_c, 0, 64, 79
2,63472, Control_c, 0, 64, 86
2,63489, Control_c, 0, 64, 95
2,63506, Control_c, 0, 64, 109
2,63517, Note_on_c, 0, 56, 0
2,63527, Control_c, 0, 64, 127
2,63583, Control_c, 0, 64, 115
2,63603, Control_c, 0, 64, 106
2,63623, Control_c, 0, 64, 97
2,63641, Control_c, 0, 64, 87
2,63660, Note_on_c, 0, 49, 0
2,63664, Control_c, 0, 64, 74
2,63680, Control_c, 0, 64, 63
2,63686, Note_on_c, 0, 70, 61
2,63696, Note_on_c, 0, 51, 42
2,63696, Note_on_c, 0, 55, 42
2,63699, Control_c, 0, 64, 51
2,63718, Control_c, 0, 64, 21
2,63739, Control_c, 0, 64, 0
2,63763, Note_on_c, 0, 71, 0
2,64130, Note_on_c, 0, 79, 82
2,64152, Note_on_c, 0, 56, 56
2,64179, Note_on_c, 0, 55, 0
2,64238, Note_on_c, 0, 70, 0
2,64367, Note_on_c, 0, 58, 66
2,64414, Note_on_c, 0, 56, 0
2,64652, Note_on_c, 0, 80, 82
2,64655, Note_on_c, 0, 59, 53
2,64657, Note_on_c, 0, 58, 0
2,64820, Note_on_c, 0, 51, 0
2,64831, Control_c, 0, 64, 43
2,64853, Control_c, 0, 64, 63
2,64872, Control_c, 0, 64, 75
2,64890, Control_c, 0, 64, 102
2,64910, Control_c, 0, 64, 127
2,64912, Note_on_c, 0, 80, 0
2,64921, Note_on_c, 0, 79, 0
2,65130, Note_on_c, 0, 73, 75
2,65142, Note_on_c, 0, 67, 59
2,65146, Control_c, 0, 64, 101
2,65150, Note_on_c, 0, 51, 47
2,65161, Control_c, 0, 64, 73
2,65161, Note_on_c, 0, 58, 52
2,65175, Note_on_c, 0, 59, 0
2,65180, Control_c, 0, 64, 59
2,65202, Control_c, 0, 64, 39
2,65218, Control_c, 0, 64, 0
2,65237, Control_c, 0, 64, 16
2,65255, Control_c, 0, 64, 32
2,65276, Control_c, 0, 64, 47
2,65295, Control_c, 0, 64, 60
2,65314, Control_c, 0, 64, 68
2,65332, Control_c, 0, 64, 78
2,65353, Control_c, 0, 64, 98
2,65370, Note_on_c, 0, 67, 0
2,65372, Control_c, 0, 64, 127
2,65583, Control_c, 0, 64, 118
2,65604, Control_c, 0, 64, 100
2,65604, Note_on_c, 0, 71, 81
2,65612, Note_on_c, 0, 68, 69
2,65617, Note_on_c, 0, 56, 55
2,65622, Control_c, 0, 64, 87
2,65630, Note_on_c, 0, 53, 49
2,65630, Note_on_c, 0, 58, 0
2,65641, Control_c, 0, 64, 73
2,65661, Note_on_c, 0, 73, 0
2,65665, Control_c, 0, 64, 59
2,65681, Control_c, 0, 64, 36
2,65699, Control_c, 0, 64, 0
2,65703, Note_on_c, 0, 51, 0
2,66088, Note_on_c, 0, 80, 88
2,66092, Note_on_c, 0, 62, 52
2,66217, Control_c, 0, 64, 14
2,66236, Control_c, 0, 64, 43
2,66251, Note_on_c, 0, 71, 0
2,66256, Control_c, 0, 64, 61
2,66273, Control_c, 0, 64, 72
2,66279, Note_on_c, 0, 62, 0
2,66294, Control_c, 0, 64, 91
2,66312, Control_c, 0, 64, 127
2,66362, Note_on_c, 0, 56, 0
2,66556, Note_on_c, 0, 63, 51
2,66556, Note_on_c, 0, 78, 86
2,66568, Note_on_c, 0, 53, 0
2,66572, Note_on_c, 0, 51, 49
2,66581, Control_c, 0, 64, 84
2,66600, Control_c, 0, 64, 65
2,66619, Control_c, 0, 64, 42
2,66639, Control_c, 0, 64, 0
2,66658, Note_on_c, 0, 80, 0
2,66755, Control_c, 0, 64, 22
2,66772, Control_c, 0, 64, 41
2,66793, Control_c, 0, 64, 55
2,66810, Control_c, 0, 64, 63
2,66832, Control_c, 0, 64, 66
2,66834, Note_on_c, 0, 68, 0
2,66852, Control_c, 0, 64, 68
2,66870, Control_c, 0, 64, 71
2,66889, Control_c, 0, 64, 75
2,66906, Control_c, 0, 64, 78
2,66946, Control_c, 0, 64, 76
2,66968, Control_c, 0, 64, 72
2,66986, Control_c, 0, 64, 66
2,67006, Control_c, 0, 64, 60
2,67024, Control_c, 0, 64, 51
2,67028, Note_on_c, 0, 70, 69
2,67037, Note_on_c, 0, 54, 59
2,67042, Control_c, 0, 64, 35
2,67051, Note_on_c, 0, 66, 48
2,67061, Control_c, 0, 64, 0
2,67113, Note_on_c, 0, 78, 0
2,67209, Note_on_c, 0, 63, 0
2,67364, Note_on_c, 0, 66, 0
2,67493, Note_on_c, 0, 56, 60
2,67493, Note_on_c, 0, 68, 72
2,67497, Note_on_c, 0, 65, 50
2,67518, Note_on_c, 0, 54, 0
2,67523, Note_on_c, 0, 70, 0
2,67764, Note_on_c, 0, 56, 0
2,67948, Note_on_c, 0, 78, 80
2,67959, Note_on_c, 0, 56, 55
2,68013, Note_on_c, 0, 51, 0
2,68047, Note_on_c, 0, 65, 0
2,68077, Control_c, 0, 64, 29
2,68096, Control_c, 0, 64, 50
2,68119, Control_c, 0, 64, 65
2,68135, Control_c, 0, 64, 78
2,68156, Control_c, 0, 64, 127
2,68210, Note_on_c, 0, 78, 0
2,68248, Note_on_c, 0, 68, 0
2,68294, Note_on_c, 0, 56, 0
2,68406, Control_c, 0, 64, 118
2,68424, Control_c, 0, 64, 88
2,68429, Note_on_c, 0, 77, 75
2,68431, Note_on_c, 0, 58, 40
2,68438, Note_on_c, 0, 50, 41
2,68444, Control_c, 0, 64, 69
2,68463, Control_c, 0, 64, 55
2,68482, Control_c, 0, 64, 30
2,68501, Control_c, 0, 64, 0
2,68636, Control_c, 0, 64, 29
2,68657, Control_c, 0, 64, 47
2,68675, Control_c, 0, 64, 60
2,68693, Note_on_c, 0, 58, 0
2,68696, Control_c, 0, 64, 62
2,68791, Control_c, 0, 64, 61
2,68807, Control_c, 0, 64, 60
2,68827, Control_c, 0, 64, 59
2,68846, Control_c, 0, 64, 58
2,68866, Control_c, 0, 64, 56
2,68877, Note_on_c, 0, 77, 0
2,68886, Control_c, 0, 64, 54
2,68895, Note_on_c, 0, 68, 62
2,68903, Control_c, 0, 64, 53
2,68903, Note_on_c, 0, 58, 42
2,68924, Control_c, 0, 64, 54
2,68932, Note_on_c, 0, 65, 41
2,68981, Control_c, 0, 64, 56
2,69001, Control_c, 0, 64, 58
2,69020, Control_c, 0, 64, 60
2,69040, Control_c, 0, 64, 62
2,69058, Control_c, 0, 64, 63
2,69076, Control_c, 0, 64, 64
2,69095, Control_c, 0, 64, 66
2,69116, Control_c, 0, 64, 68
2,69135, Control_c, 0, 64, 72
2,69156, Control_c, 0, 64, 76
2,69172, Control_c, 0, 64, 78
2,69230, Control_c, 0, 64, 77
2,69268, Control_c, 0, 64, 76
2,69291, Control_c, 0, 64, 75
2,69306, Control_c, 0, 64, 74
2,69328, Control_c, 0, 64, 73
2,69346, Control_c, 0, 64, 72
2,69364, Control_c, 0, 64, 70
2,69383, Control_c, 0, 64, 69
2,69402, Control_c, 0, 64, 65
2,69409, Note_on_c, 0, 66, 61
2,69416, Note_on_c, 0, 50, 0
2,69416, Note_on_c, 0, 51, 41
2,69423, Control_c, 0, 64, 60
2,69441, Control_c, 0, 64, 53
2,69454, Note_on_c, 0, 68, 0
2,69464, Control_c, 0, 64, 43
2,69483, Control_c, 0, 64, 33
2,69483, Control_c, 0, 67, 10
2,69503, Control_c, 0, 64, 30
2,69503, Control_c, 0, 67, 14
2,69517, Control_c, 0, 67, 19
2,69524, Note_on_c, 0, 65, 0
2,69540, Control_c, 0, 64, 33
2,69540, Control_c, 0, 67, 24
2,69558, Note_on_c, 0, 58, 0
2,69564, Control_c, 0, 64, 39
2,69564, Control_c, 0, 67, 30
2,69577, Control_c, 0, 64, 46
2,69580, Control_c, 0, 67, 37
2,69597, Control_c, 0, 64, 53
2,69597, Control_c, 0, 67, 44
2,69617, Control_c, 0, 64, 58
2,69617, Control_c, 0, 67, 49
2,69634, Control_c, 0, 64, 59
2,69639, Control_c, 0, 67, 54
2,69656, Control_c, 0, 64, 60
2,69656, Control_c, 0, 67, 59
2,69674, Control_c, 0, 64, 61
2,69674, Control_c, 0, 67, 64
2,69692, Control_c, 0, 67, 70
2,69714, Control_c, 0, 67, 77
2,69730, Control_c, 0, 67, 83
2,69748, Control_c, 0, 67, 89
2,69768, Control_c, 0, 67, 95
2,69787, Control_c, 0, 67, 102
2,69806, Control_c, 0, 67, 110
2,69826, Control_c, 0, 67, 120
2,69845, Control_c, 0, 64, 60
2,69849, Control_c, 0, 67, 127
2,69867, Control_c, 0, 64, 58
2,69874, Note_on_c, 0, 53, 40
2,69883, Control_c, 0, 64, 55
2,69888, Note_on_c, 0, 63, 60
2,69902, Control_c, 0, 64, 49
2,69921, Control_c, 0, 64, 35
2,69943, Control_c, 0, 64, 0
2,69985, Note_on_c, 0, 66, 0
2,70019, Control_c, 0, 64, 8
2,70037, Control_c, 0, 64, 29
2,70057, Control_c, 0, 64, 42
2,70076, Control_c, 0, 64, 55
2,70095, Control_c, 0, 64, 62
2,70102, Note_on_c, 0, 63, 0
2,70114, Control_c, 0, 64, 64
2,70119, Note_on_c, 0, 62, 60
2,70134, Note_on_c, 0, 51, 0
2,70152, Control_c, 0, 64, 65
2,70174, Control_c, 0, 64, 67
2,70178, Note_on_c, 0, 53, 0
2,70189, Control_c, 0, 64, 69
2,70208, Control_c, 0, 64, 70
2,70230, Control_c, 0, 64, 69
2,70250, Note_on_c, 0, 62, 0
2,70344, Control_c, 0, 64, 68
2,70384, Control_c, 0, 64, 67
2,70391, Note_on_c, 0, 63, 52
2,70400, Note_on_c, 0, 54, 42
2,70405, Control_c, 0, 64, 66
2,70422, Control_c, 0, 64, 65
2,70479, Control_c, 0, 64, 64
2,70499, Control_c, 0, 64, 63
2,70517, Control_c, 0, 64, 62
2,70536, Control_c, 0, 64, 61
2,70554, Control_c, 0, 64, 60
2,70574, Control_c, 0, 64, 58
2,70595, Control_c, 0, 64, 56
2,70613, Control_c, 0, 64, 52
2,70634, Control_c, 0, 64, 46
2,70634, Note_on_c, 0, 39, 51
2,70653, Control_c, 0, 64, 37
2,70670, Control_c, 0, 64, 21
2,70692, Control_c, 0, 64, 0
2,70778, Note_on_c, 0, 54, 0
2,70867, Note_on_c, 0, 40, 46
2,70925, Note_on_c, 0, 39, 0
2,71106, Note_on_c, 0, 42, 57
2,71113, Note_on_c, 0, 40, 0
2,71265, Control_c, 0, 67, 121
2,71285, Control_c, 0, 67, 112
2,71305, Control_c, 0, 67, 104
2,71325, Control_c, 0, 67, 96
2,71342, Control_c, 0, 67, 86
2,71361, Control_c, 0, 67, 74
2,71375, Note_on_c, 0, 60, 56
2,71381, Control_c, 0, 67, 63
2,71393, Note_on_c, 0, 44, 51
2,71400, Control_c, 0, 67, 52
2,71419, Control_c, 0, 67, 42
2,71419, Note_on_c, 0, 42, 0
2,71438, Note_on_c, 0, 63, 0
2,71444, Control_c, 0, 67, 33
2,71458, Control_c, 0, 67, 23
2,71479, Control_c, 0, 64, 28
2,71479, Control_c, 0, 67, 9
2,71497, Control_c, 0, 64, 49
2,71497, Control_c, 0, 67, 0
2,71514, Control_c, 0, 64, 64
2,71536, Control_c, 0, 64, 70
2,71540, Note_on_c, 0, 44, 0
2,71550, Control_c, 0, 64, 80
2,71570, Control_c, 0, 64, 92
2,71592, Control_c, 0, 64, 111
2,71612, Control_c, 0, 64, 127
2,71799, Control_c, 0, 64, 106
2,71821, Control_c, 0, 64, 96
2,71839, Control_c, 0, 64, 87
2,71859, Note_on_c, 0, 61, 59
2,71861, Control_c, 0, 64, 79
2,71865, Note_on_c, 0, 52, 54
2,71870, Note_on_c, 0, 49, 44
2,71877, Control_c, 0, 64, 72
2,71897, Control_c, 0, 64, 65
2,71916, Control_c, 0, 64, 57
2,71933, Control_c, 0, 64, 44
2,71955, Control_c, 0, 64, 26
2,71972, Control_c, 0, 64, 0
2,72085, Note_on_c, 0, 63, 69
2,72089, Note_on_c, 0, 52, 0
2,72093, Note_on_c, 0, 54, 53
2,72143, Note_on_c, 0, 61, 0
2,72196, Note_on_c, 0, 60, 0
2,72360, Note_on_c, 0, 56, 53
2,72360, Note_on_c, 0, 64, 72
2,72366, Note_on_c, 0, 54, 0
2,72377, Control_c, 0, 64, 13
2,72396, Control_c, 0, 64, 32
2,72401, Note_on_c, 0, 63, 0
2,72415, Control_c, 0, 64, 50
2,72428, Note_on_c, 0, 49, 0
2,72435, Control_c, 0, 64, 63
2,72451, Control_c, 0, 64, 69
2,72473, Control_c, 0, 64, 78
2,72491, Control_c, 0, 64, 93
2,72510, Control_c, 0, 64, 127
2,72679, Note_on_c, 0, 56, 0
2,72702, Control_c, 0, 64, 99
2,72720, Control_c, 0, 64, 87
2,72741, Control_c, 0, 64, 79
2,72761, Control_c, 0, 64, 72
2,72779, Control_c, 0, 64, 66
2,72799, Control_c, 0, 64, 59
2,72807, Note_on_c, 0, 63, 62
2,72812, Note_on_c, 0, 51, 37
2,72820, Control_c, 0, 64, 52
2,72820, Note_on_c, 0, 55, 48
2,72839, Control_c, 0, 64, 46
2,72857, Control_c, 0, 64, 36
2,72862, Note_on_c, 0, 64, 0
2,72877, Control_c, 0, 64, 9
2,72896, Control_c, 0, 64, 0
2,73005, Note_on_c, 0, 55, 0
2,73035, Note_on_c, 0, 56, 54
2,73298, Note_on_c, 0, 61, 62
2,73300, Note_on_c, 0, 56, 0
2,73304, Note_on_c, 0, 58, 48
2,73322, Note_on_c, 0, 52, 47
2,73343, Note_on_c, 0, 63, 0
2,73347, Note_on_c, 0, 51, 0
2,73781, Note_on_c, 0, 67, 68
2,73805, Note_on_c, 0, 56, 48
2,73825, Note_on_c, 0, 58, 0
2,73855, Control_c, 0, 64, 34
2,73875, Control_c, 0, 64, 52
2,73894, Control_c, 0, 64, 62
2,73912, Control_c, 0, 64, 65
2,73933, Control_c, 0, 64, 68
2,73951, Control_c, 0, 64, 75
2,73969, Control_c, 0, 64, 88
2,73982, Note_on_c, 0, 61, 0
2,73989, Control_c, 0, 64, 127
2,74015, Note_on_c, 0, 56, 0
2,74022, Note_on_c, 0, 58, 60
2,74130, Note_on_c, 0, 58, 0
2,74238, Control_c, 0, 64, 122
2,74258, Control_c, 0, 64, 87
2,74270, Note_on_c, 0, 52, 0
2,74279, Control_c, 0, 64, 68
2,74298, Note_on_c, 0, 68, 74
2,74302, Control_c, 0, 64, 53
2,74307, Note_on_c, 0, 59, 47
2,74313, Control_c, 0, 64, 10
2,74326, Note_on_c, 0, 51, 43
2,74332, Control_c, 0, 64, 0
2,74358, Note_on_c, 0, 67, 0
2,74524, Control_c, 0, 64, 17
2,74541, Control_c, 0, 64, 41
2,74558, Note_on_c, 0, 59, 0
2,74563, Control_c, 0, 64, 58
2,74581, Control_c, 0, 64, 65
2,74601, Control_c, 0, 64, 67
2,74618, Control_c, 0, 64, 68
2,74641, Control_c, 0, 64, 70
2,74661, Control_c, 0, 64, 72
2,74679, Control_c, 0, 64, 75
2,74715, Control_c, 0, 64, 74
2,74739, Control_c, 0, 64, 73
2,74756, Control_c, 0, 64, 70
2,74773, Control_c, 0, 64, 66
2,74781, Note_on_c, 0, 56, 46
2,74786, Note_on_c, 0, 59, 68
2,74792, Control_c, 0, 64, 58
2,74815, Control_c, 0, 64, 43
2,74831, Control_c, 0, 64, 0
2,74907, Note_on_c, 0, 68, 0
2,74911, Note_on_c, 0, 51, 0
2,75287, Note_on_c, 0, 58, 37
2,75296, Note_on_c, 0, 61, 56
2,75302, Note_on_c, 0, 49, 36
2,75334, Note_on_c, 0, 56, 0
2,75348, Note_on_c, 0, 59, 0
2,75592, Note_on_c, 0, 61, 0
2,75739, Note_on_c, 0, 58, 0
2,75765, Note_on_c, 0, 61, 49
2,76115, Note_on_c, 0, 61, 0
2,76238, Note_on_c, 0, 63, 53
2,76243, Note_on_c, 0, 55, 41
2,76520, Note_on_c, 0, 63, 0
2,76723, Note_on_c, 0, 55, 0
2,76725, Note_on_c, 0, 63, 48
2,77201, Note_on_c, 0, 56, 43
2,77203, Note_on_c, 0, 63, 0
2,77660, Note_on_c, 0, 67, 47
2,77670, Note_on_c, 0, 47, 35
2,77698, Note_on_c, 0, 49, 0
2,77877, Note_on_c, 0, 46, 54
2,77897, Note_on_c, 0, 47, 0
2,78139, Note_on_c, 0, 47, 48
2,78141, Note_on_c, 0, 68, 57
2,78200, Note_on_c, 0, 67, 0
2,78204, Note_on_c, 0, 46, 0
2,78371, Note_on_c, 0, 44, 54
2,78400, Note_on_c, 0, 47, 0
2,78649, Note_on_c, 0, 50, 61
2,78653, Note_on_c, 0, 59, 50
2,78685, Note_on_c, 0, 44, 0
2,78700, Note_on_c, 0, 56, 0
2,79137, Note_on_c, 0, 59, 0
2,79155, Note_on_c, 0, 51, 55
2,79176, Note_on_c, 0, 58, 47
2,79227, Note_on_c, 0, 50, 0
2,79600, Note_on_c, 0, 66, 52
2,79616, Note_on_c, 0, 56, 54
2,79730, Note_on_c, 0, 58, 0
2,79827, Note_on_c, 0, 65, 59
2,79841, Note_on_c, 0, 68, 0
2,79846, Note_on_c, 0, 66, 0
2,80076, Note_on_c, 0, 66, 60
2,80082, Note_on_c, 0, 58, 54
2,80082, Note_on_c, 0, 65, 0
2,80122, Note_on_c, 0, 56, 0
2,80302, Note_on_c, 0, 66, 0
2,80311, Note_on_c, 0, 63, 60
2,80563, Note_on_c, 0, 69, 61
2,80569, Note_on_c, 0, 58, 0
2,80575, Note_on_c, 0, 60, 52
2,80628, Note_on_c, 0, 63, 0
2,80725, Control_c, 0, 64, 34
2,80745, Control_c, 0, 64, 54
2,80763, Control_c, 0, 64, 64
2,80785, Control_c, 0, 64, 68
2,80801, Control_c, 0, 64, 71
2,80821, Control_c, 0, 64, 74
2,80840, Control_c, 0, 64, 79
2,80860, Control_c, 0, 64, 84
2,80879, Control_c, 0, 64, 87
2,80918, Control_c, 0, 64, 85
2,80937, Control_c, 0, 64, 83
2,80975, Control_c, 0, 64, 82
2,80994, Control_c, 0, 64, 81
2,81012, Control_c, 0, 64, 77
2,81028, Note_on_c, 0, 53, 46
2,81033, Control_c, 0, 64, 73
2,81033, Note_on_c, 0, 70, 54
2,81051, Control_c, 0, 64, 70
2,81067, Note_on_c, 0, 51, 0
2,81072, Control_c, 0, 64, 67
2,81076, Note_on_c, 0, 69, 0
2,81091, Control_c, 0, 64, 64
2,81108, Control_c, 0, 64, 62
2,81129, Control_c, 0, 64, 60
2,81147, Control_c, 0, 64, 59
2,81207, Control_c, 0, 64, 58
2,81224, Control_c, 0, 64, 57
2,81243, Control_c, 0, 64, 56
2,81264, Control_c, 0, 64, 55
2,81283, Control_c, 0, 64, 54
2,81340, Control_c, 0, 64, 53
2,81360, Control_c, 0, 64, 52
2,81379, Control_c, 0, 64, 50
2,81396, Control_c, 0, 64, 48
2,81416, Control_c, 0, 64, 45
2,81436, Control_c, 0, 64, 43
2,81453, Control_c, 0, 64, 42
2,81474, Control_c, 0, 64, 41
2,81493, Control_c, 0, 64, 39
2,81508, Note_on_c, 0, 63, 52
2,81515, Control_c, 0, 64, 37
2,81515, Note_on_c, 0, 49, 42
2,81531, Control_c, 0, 64, 34
2,81553, Control_c, 0, 64, 32
2,81569, Control_c, 0, 64, 31
2,81591, Control_c, 0, 64, 30
2,81609, Control_c, 0, 64, 29
2,81627, Control_c, 0, 64, 28
2,81649, Control_c, 0, 64, 26
2,81669, Control_c, 0, 64, 24
2,81685, Control_c, 0, 64, 22
2,81705, Control_c, 0, 64, 20
2,81723, Control_c, 0, 64, 18
2,81732, Note_on_c, 0, 48, 53
2,81743, Control_c, 0, 64, 17
2,81763, Control_c, 0, 64, 16
2,81777, Note_on_c, 0, 49, 0
2,81781, Control_c, 0, 64, 14
2,81804, Control_c, 0, 64, 11
2,81818, Control_c, 0, 64, 10
2,81841, Control_c, 0, 64, 0
2,81952, Note_on_c, 0, 65, 59
2,81963, Note_on_c, 0, 49, 57
2,82010, Note_on_c, 0, 53, 0
2,82014, Note_on_c, 0, 48, 0
2,82014, Note_on_c, 0, 63, 0
2,82201, Note_on_c, 0, 46, 62
2,82265, Note_on_c, 0, 49, 0
2,82466, Note_on_c, 0, 65, 0
2,82466, Note_on_c, 0, 67, 58
2,82473, Note_on_c, 0, 52, 69
2,82509, Note_on_c, 0, 46, 0
2,82570, Note_on_c, 0, 60, 0
2,82951, Note_on_c, 0, 53, 62
2,82951, Note_on_c, 0, 67, 0
2,82969, Note_on_c, 0, 60, 56
2,83012, Note_on_c, 0, 52, 0
2,83201, Control_c, 0, 64, 15
2,83221, Control_c, 0, 64, 24
2,83241, Control_c, 0, 64, 30
2,83259, Control_c, 0, 64, 36
2,83277, Control_c, 0, 64, 39
2,83300, Control_c, 0, 64, 42
2,83316, Control_c, 0, 64, 45
2,83337, Control_c, 0, 64, 47
2,83355, Control_c, 0, 64, 49
2,83376, Control_c, 0, 64, 51
2,83395, Control_c, 0, 64, 52
2,83407, Note_on_c, 0, 58, 69
2,83413, Control_c, 0, 64, 51
2,83432, Note_on_c, 0, 69, 60
2,83471, Control_c, 0, 64, 50
2,83508, Control_c, 0, 64, 49
2,83533, Control_c, 0, 64, 47
2,83533, Note_on_c, 0, 60, 0
2,83549, Control_c, 0, 64, 45
2,83566, Control_c, 0, 64, 43
2,83571, Note_on_c, 0, 70, 0
2,83589, Control_c, 0, 64, 39
2,83605, Control_c, 0, 64, 35
2,83625, Control_c, 0, 64, 25
2,83641, Note_on_c, 0, 67, 70
2,83645, Control_c, 0, 64, 0
2,83681, Note_on_c, 0, 69, 0
2,83875, Note_on_c, 0, 60, 66
2,83889, Note_on_c, 0, 69, 65
2,83917, Note_on_c, 0, 67, 0
2,83921, Note_on_c, 0, 58, 0
2,84046, Control_c, 0, 64, 27
2,84066, Control_c, 0, 64, 45
2,84084, Control_c, 0, 64, 60
2,84103, Note_on_c, 0, 65, 72
2,84107, Control_c, 0, 64, 63
2,84107, Note_on_c, 0, 69, 0
2,84124, Control_c, 0, 64, 64
2,84160, Control_c, 0, 64, 65
2,84179, Control_c, 0, 64, 67
2,84202, Control_c, 0, 64, 68
2,84236, Note_on_c, 0, 60, 0
2,84241, Control_c, 0, 64, 67
2,84296, Control_c, 0, 64, 66
2,84316, Control_c, 0, 64, 65
2,84337, Control_c, 0, 64, 64
2,84355, Control_c, 0, 64, 60
2,84360, Note_on_c, 0, 70, 75
2,84377, Control_c, 0, 64, 51
2,84377, Note_on_c, 0, 61, 61
2,84381, Note_on_c, 0, 65, 0
2,84393, Control_c, 0, 64, 34
2,84412, Control_c, 0, 64, 0
2,84525, Control_c, 0, 64, 30
2,84545, Control_c, 0, 64, 46
2,84564, Control_c, 0, 64, 59
2,84573, Note_on_c, 0, 61, 0
2,84584, Control_c, 0, 64, 64
2,84603, Control_c, 0, 64, 65
2,84622, Control_c, 0, 64, 66
2,84643, Control_c, 0, 64, 67
2,84660, Control_c, 0, 64, 69
2,84681, Control_c, 0, 64, 70
2,84758, Control_c, 0, 64, 69
2,84795, Control_c, 0, 64, 67
2,84814, Control_c, 0, 64, 66
2,84835, Control_c, 0, 64, 65
2,84837, Note_on_c, 0, 72, 79
2,84846, Note_on_c, 0, 63, 65
2,84853, Control_c, 0, 64, 64
2,84872, Control_c, 0, 64, 63
2,84892, Control_c, 0, 64, 61
2,84911, Control_c, 0, 64, 57
2,84915, Note_on_c, 0, 70, 0
2,84931, Control_c, 0, 64, 51
2,84952, Control_c, 0, 64, 44
2,84969, Control_c, 0, 64, 35
2,84988, Control_c, 0, 64, 26
2,85007, Control_c, 0, 64, 19
2,85026, Control_c, 0, 64, 0
2,85311, Note_on_c, 0, 51, 63
2,85526, Note_on_c, 0, 49, 61
2,85561, Note_on_c, 0, 51, 0
2,85783, Note_on_c, 0, 51, 72
2,85835, Note_on_c, 0, 49, 0
2,85910, Note_on_c, 0, 53, 0
2,85989, Note_on_c, 0, 48, 69
2,86051, Note_on_c, 0, 51, 0
2,86244, Note_on_c, 0, 53, 79
2,86274, Note_on_c, 0, 48, 0
2,86389, Control_c, 0, 64, 10
2,86409, Control_c, 0, 64, 22
2,86428, Control_c, 0, 64, 33
2,86448, Control_c, 0, 64, 41
2,86466, Control_c, 0, 64, 49
2,86488, Control_c, 0, 64, 57
2,86505, Control_c, 0, 64, 61
2,86524, Control_c, 0, 64, 62
2,86544, Control_c, 0, 64, 63
2,86580, Control_c, 0, 64, 64
2,86619, Control_c, 0, 64, 63
2,86636, Note_on_c, 0, 63, 0
2,86735, Control_c, 0, 64, 62
2,86741, Note_on_c, 0, 54, 74
2,86757, Control_c, 0, 64, 61
2,86772, Control_c, 0, 64, 57
2,86793, Control_c, 0, 64, 50
2,86802, Note_on_c, 0, 53, 0
2,86811, Control_c, 0, 64, 36
2,86830, Control_c, 0, 64, 0
2,86907, Control_c, 0, 64, 18
2,86927, Control_c, 0, 64, 37
2,86945, Control_c, 0, 64, 50
2,86965, Control_c, 0, 64, 59
2,86983, Control_c, 0, 64, 62
2,87004, Control_c, 0, 64, 63
2,87023, Control_c, 0, 64, 64
2,87043, Control_c, 0, 64, 65
2,87061, Control_c, 0, 64, 66
2,87159, Control_c, 0, 64, 65
2,87190, Note_on_c, 0, 61, 63
2,87195, Control_c, 0, 64, 64
2,87199, Note_on_c, 0, 70, 71
2,87213, Control_c, 0, 64, 63
2,87233, Control_c, 0, 64, 61
2,87254, Control_c, 0, 64, 57
2,87258, Note_on_c, 0, 72, 0
2,87272, Control_c, 0, 64, 54
2,87292, Control_c, 0, 64, 51
2,87310, Control_c, 0, 64, 47
2,87330, Control_c, 0, 64, 39
2,87350, Control_c, 0, 64, 24
2,87368, Control_c, 0, 64, 0
2,87415, Note_on_c, 0, 69, 74
2,87419, Note_on_c, 0, 60, 67
2,87454, Note_on_c, 0, 61, 0
2,87462, Note_on_c, 0, 70, 0
2,87645, Note_on_c, 0, 60, 0
2,87656, Note_on_c, 0, 61, 59
2,87656, Note_on_c, 0, 70, 83
2,87887, Note_on_c, 0, 72, 85
2,87970, Note_on_c, 0, 70, 0
2,88059, Note_on_c, 0, 69, 0
2,88140, Note_on_c, 0, 73, 84
2,88149, Note_on_c, 0, 58, 63
2,88232, Note_on_c, 0, 61, 0
2,88271, Control_c, 0, 64, 37
2,88280, Note_on_c, 0, 54, 0
2,88290, Control_c, 0, 64, 54
2,88298, Note_on_c, 0, 72, 0
2,88309, Control_c, 0, 64, 64
2,88327, Control_c, 0, 64, 67
2,88347, Control_c, 0, 64, 72
2,88365, Control_c, 0, 64, 82
2,88370, Note_on_c, 0, 52, 69
2,88385, Control_c, 0, 64, 99
2,88404, Control_c, 0, 64, 127
2,88459, Note_on_c, 0, 52, 0
2,88464, Note_on_c, 0, 54, 20
2,88531, Note_on_c, 0, 54, 0
2,88617, Control_c, 0, 64, 111
2,88620, Note_on_c, 0, 51, 79
2,88636, Control_c, 0, 64, 93
2,88656, Control_c, 0, 64, 77
2,88656, Note_on_c, 0, 58, 0
2,88674, Control_c, 0, 64, 62
2,88693, Control_c, 0, 64, 34
2,88714, Control_c, 0, 64, 0
2,88838, Note_on_c, 0, 58, 63
2,89065, Note_on_c, 0, 72, 87
2,89080, Note_on_c, 0, 63, 63
2,89094, Note_on_c, 0, 58, 0
2,89125, Note_on_c, 0, 73, 0
2,89231, Control_c, 0, 64, 26
2,89248, Control_c, 0, 64, 47
2,89261, Note_on_c, 0, 51, 0
2,89268, Control_c, 0, 64, 64
2,89288, Control_c, 0, 64, 76
2,89310, Control_c, 0, 64, 110
2,89310, Note_on_c, 0, 70, 85
2,89321, Note_on_c, 0, 63, 0
2,89329, Control_c, 0, 64, 127
2,89338, Note_on_c, 0, 61, 51
2,89375, Note_on_c, 0, 72, 0
2,89442, Note_on_c, 0, 61, 0
2,89651, Note_on_c, 0, 75, 85
2,89668, Note_on_c, 0, 60, 39
2,89676, Control_c, 0, 64, 93
2,89682, Note_on_c, 0, 69, 55
2,89689, Note_on_c, 0, 53, 40
2,89693, Control_c, 0, 64, 67
2,89711, Note_on_c, 0, 70, 0
2,89716, Control_c, 0, 64, 50
2,89733, Control_c, 0, 64, 0
2,89901, Note_on_c, 0, 69, 0
2,89914, Note_on_c, 0, 60, 0
2,89914, Note_on_c, 0, 70, 63
2,89930, Note_on_c, 0, 58, 49
2,90180, Note_on_c, 0, 67, 58
2,90188, Note_on_c, 0, 70, 0
2,90190, Note_on_c, 0, 58, 0
2,90201, Note_on_c, 0, 60, 45
2,90348, Control_c, 0, 64, 25
2,90367, Control_c, 0, 64, 48
2,90376, Note_on_c, 0, 60, 0
2,90387, Control_c, 0, 64, 64
2,90391, Note_on_c, 0, 53, 0
2,90400, Note_on_c, 0, 67, 0
2,90405, Control_c, 0, 64, 77
2,90416, Note_on_c, 0, 69, 62
2,90425, Control_c, 0, 64, 127
2,90488, Note_on_c, 0, 69, 0
2,90720, Note_on_c, 0, 74, 73
2,90727, Note_on_c, 0, 46, 46
2,90734, Control_c, 0, 64, 89
2,90734, Note_on_c, 0, 58, 48
2,90742, Note_on_c, 0, 70, 55
2,90751, Control_c, 0, 64, 65
2,90769, Control_c, 0, 64, 45
2,90788, Control_c, 0, 64, 0
2,90830, Control_c, 0, 64, 40
2,90847, Control_c, 0, 64, 60
2,90854, Note_on_c, 0, 46, 0
2,90856, Note_on_c, 0, 75, 0
2,90865, Control_c, 0, 64, 70
2,90884, Control_c, 0, 64, 93
2,90905, Control_c, 0, 64, 127
2,90917, Note_on_c, 0, 74, 0
2,91147, Note_on_c, 0, 58, 0
2,91221, Note_on_c, 0, 75, 77
2,91242, Note_on_c, 0, 60, 58
2,91365, Control_c, 0, 64, 99
2,91386, Control_c, 0, 64, 77
2,91405, Control_c, 0, 64, 66
2,91423, Control_c, 0, 64, 59
2,91442, Control_c, 0, 64, 48
2,91453, Note_on_c, 0, 77, 87
2,91462, Note_on_c, 0, 60, 0
2,91462, Note_on_c, 0, 62, 61
2,91464, Control_c, 0, 64, 21
2,91483, Control_c, 0, 64, 0
2,91525, Note_on_c, 0, 75, 0
2,91717, Note_on_c, 0, 78, 83
2,91734, Note_on_c, 0, 63, 63
2,91755, Note_on_c, 0, 62, 0
2,91788, Note_on_c, 0, 77, 0
2,92204, Note_on_c, 0, 77, 76
2,92211, Note_on_c, 0, 65, 60
2,92240, Note_on_c, 0, 63, 0
2,92569, Note_on_c, 0, 78, 0
2,92687, Note_on_c, 0, 66, 63
2,92694, Note_on_c, 0, 75, 74
2,92746, Note_on_c, 0, 77, 0
2,92772, Note_on_c, 0, 70, 0
2,92783, Note_on_c, 0, 65, 0
2,92897, Control_c, 0, 64, 33
2,92917, Control_c, 0, 64, 48
2,92936, Control_c, 0, 64, 58
2,92955, Control_c, 0, 64, 62
2,92976, Control_c, 0, 64, 63
2,92994, Control_c, 0, 64, 64
2,93014, Control_c, 0, 64, 65
2,93033, Control_c, 0, 64, 69
2,93052, Control_c, 0, 64, 74
2,93070, Control_c, 0, 64, 79
2,93090, Control_c, 0, 64, 82
2,93109, Control_c, 0, 64, 83
2,93147, Control_c, 0, 64, 82
2,93168, Control_c, 0, 64, 80
2,93186, Control_c, 0, 64, 73
2,93190, Note_on_c, 0, 81, 80
2,93200, Note_on_c, 0, 72, 69
2,93205, Control_c, 0, 64, 64
2,93224, Control_c, 0, 64, 54
2,93245, Control_c, 0, 64, 38
2,93263, Control_c, 0, 64, 18
2,93282, Control_c, 0, 64, 22
2,93302, Note_on_c, 0, 75, 0
2,93306, Control_c, 0, 64, 34
2,93319, Control_c, 0, 64, 50
2,93339, Control_c, 0, 64, 61
2,93356, Note_on_c, 0, 81, 0
2,93360, Control_c, 0, 64, 68
2,93377, Control_c, 0, 64, 76
2,93396, Control_c, 0, 64, 95
2,93418, Control_c, 0, 64, 127
2,93683, Control_c, 0, 64, 105
2,93687, Note_on_c, 0, 82, 84
2,93696, Note_on_c, 0, 73, 73
2,93703, Control_c, 0, 64, 74
2,93722, Control_c, 0, 64, 57
2,93743, Control_c, 0, 64, 37
2,93763, Control_c, 0, 64, 18
2,93781, Control_c, 0, 64, 24
2,93801, Control_c, 0, 64, 35
2,93818, Control_c, 0, 64, 47
2,93841, Control_c, 0, 64, 58
2,93857, Control_c, 0, 64, 64
2,93868, Note_on_c, 0, 72, 0
2,93878, Control_c, 0, 64, 68
2,93896, Control_c, 0, 64, 76
2,93914, Control_c, 0, 64, 90
2,93923, Note_on_c, 0, 68, 74
2,93934, Control_c, 0, 64, 122
2,93953, Note_on_c, 0, 73, 0
2,93954, Control_c, 0, 64, 127
2,93958, Note_on_c, 0, 66, 0
2,94108, Control_c, 0, 64, 110
2,94125, Control_c, 0, 64, 80
2,94148, Control_c, 0, 64, 62
2,94166, Note_on_c, 0, 73, 84
2,94170, Control_c, 0, 64, 46
2,94174, Note_on_c, 0, 70, 70
2,94178, Note_on_c, 0, 66, 60
2,94188, Control_c, 0, 64, 27
2,94196, Note_on_c, 0, 68, 0
2,94205, Control_c, 0, 64, 29
2,94222, Control_c, 0, 64, 38
2,94242, Control_c, 0, 64, 49
2,94260, Control_c, 0, 64, 58
2,94280, Control_c, 0, 64, 63
2,94299, Control_c, 0, 64, 66
2,94320, Control_c, 0, 64, 70
2,94336, Control_c, 0, 64, 77
2,94357, Control_c, 0, 64, 87
2,94377, Control_c, 0, 64, 96
2,94395, Control_c, 0, 64, 99
2,94400, Note_on_c, 0, 65, 67
2,94404, Note_on_c, 0, 66, 0
2,94409, Note_on_c, 0, 82, 0
2,94437, Note_on_c, 0, 70, 0
2,94490, Control_c, 0, 64, 97
2,94510, Control_c, 0, 64, 94
2,94530, Control_c, 0, 64, 90
2,94549, Control_c, 0, 64, 84
2,94569, Control_c, 0, 64, 78
2,94587, Control_c, 0, 64, 68
2,94609, Control_c, 0, 64, 58
2,94627, Control_c, 0, 64, 37
2,94627, Note_on_c, 0, 63, 63
2,94645, Control_c, 0, 64, 0
2,94652, Note_on_c, 0, 75, 82
2,94657, Note_on_c, 0, 71, 72
2,94666, Note_on_c, 0, 65, 0
2,94773, Note_on_c, 0, 73, 0
2,94859, Control_c, 0, 64, 37
2,94869, Note_on_c, 0, 61, 65
2,94878, Control_c, 0, 64, 54
2,94894, Control_c, 0, 64, 63
2,94903, Note_on_c, 0, 63, 0
2,94914, Control_c, 0, 64, 66
2,94932, Control_c, 0, 64, 69
2,94938, Note_on_c, 0, 75, 0
2,94952, Control_c, 0, 64, 71
2,94972, Control_c, 0, 64, 75
2,94990, Control_c, 0, 64, 78
2,95027, Control_c, 0, 64, 77
2,95048, Control_c, 0, 64, 74
2,95070, Control_c, 0, 64, 70
2,95088, Control_c, 0, 64, 65
2,95107, Control_c, 0, 64, 56
2,95120, Note_on_c, 0, 59, 62
2,95120, Note_on_c, 0, 75, 79
2,95125, Control_c, 0, 64, 41
2,95130, Note_on_c, 0, 61, 0
2,95143, Control_c, 0, 64, 0
2,95347, Note_on_c, 0, 58, 72
2,95397, Note_on_c, 0, 59, 0
2,95604, Note_on_c, 0, 77, 87
2,95615, Note_on_c, 0, 56, 64
2,95635, Note_on_c, 0, 58, 0
2,95736, Note_on_c, 0, 75, 0
2,95758, Control_c, 0, 64, 32
2,95780, Control_c, 0, 64, 52
2,95797, Control_c, 0, 64, 64
2,95815, Control_c, 0, 64, 69
2,95835, Note_on_c, 0, 58, 72
2,95839, Control_c, 0, 64, 77
2,95855, Control_c, 0, 64, 85
2,95864, Note_on_c, 0, 77, 0
2,95875, Control_c, 0, 64, 91
2,95879, Note_on_c, 0, 56, 0
2,95892, Control_c, 0, 64, 93
2,95932, Control_c, 0, 64, 91
2,95950, Control_c, 0, 64, 88
2,95972, Control_c, 0, 64, 85
2,95990, Control_c, 0, 64, 79
2,96007, Control_c, 0, 64, 72
2,96028, Control_c, 0, 64, 64
2,96048, Control_c, 0, 64, 56
2,96069, Control_c, 0, 64, 46
2,96080, Note_on_c, 0, 77, 87
2,96087, Control_c, 0, 64, 33
2,96087, Note_on_c, 0, 59, 68
2,96104, Control_c, 0, 64, 0
2,96120, Note_on_c, 0, 58, 0
2,96328, Note_on_c, 0, 61, 70
2,96361, Note_on_c, 0, 59, 0
2,96612, Note_on_c, 0, 63, 54
2,96612, Note_on_c, 0, 70, 70
2,96625, Note_on_c, 0, 54, 53
2,96671, Note_on_c, 0, 61, 0
2,96677, Note_on_c, 0, 77, 0
2,96685, Note_on_c, 0, 71, 0
2,97106, Note_on_c, 0, 77, 87
2,97113, Note_on_c, 0, 54, 0
2,97113, Note_on_c, 0, 56, 60
2,97601, Note_on_c, 0, 78, 85
2,97616, Note_on_c, 0, 56, 0
2,97616, Note_on_c, 0, 58, 52
2,97623, Note_on_c, 0, 61, 54
2,97627, Note_on_c, 0, 54, 44
2,97647, Note_on_c, 0, 70, 0
2,97660, Note_on_c, 0, 63, 0
2,97695, Note_on_c, 0, 77, 0
2,97813, Control_c, 0, 64, 38
2,97826, Note_on_c, 0, 61, 0
2,97835, Control_c, 0, 64, 56
2,97852, Control_c, 0, 64, 67
2,97869, Control_c, 0, 64, 75
2,97890, Control_c, 0, 64, 89
2,97909, Control_c, 0, 64, 109
2,97926, Control_c, 0, 64, 127
2,98100, Control_c, 0, 64, 85
2,98111, Note_on_c, 0, 70, 76
2,98118, Note_on_c, 0, 61, 59
2,98122, Control_c, 0, 64, 62
2,98142, Control_c, 0, 64, 45
2,98159, Control_c, 0, 64, 39
2,98177, Control_c, 0, 64, 50
2,98190, Note_on_c, 0, 58, 0
2,98196, Control_c, 0, 64, 62
2,98206, Note_on_c, 0, 54, 0
2,98218, Control_c, 0, 64, 67
2,98239, Control_c, 0, 64, 74
2,98254, Control_c, 0, 64, 84
2,98273, Control_c, 0, 64, 127
2,98357, Note_on_c, 0, 61, 0
2,98543, Control_c, 0, 64, 111
2,98561, Control_c, 0, 64, 98
2,98580, Control_c, 0, 64, 90
2,98603, Control_c, 0, 64, 83
2,98603, Note_on_c, 0, 51, 67
2,98607, Note_on_c, 0, 63, 59
2,98611, Note_on_c, 0, 71, 72
2,98617, Note_on_c, 0, 70, 0
2,98619, Control_c, 0, 64, 77
2,98624, Note_on_c, 0, 78, 0
2,98641, Control_c, 0, 64, 70
2,98661, Control_c, 0, 64, 63
2,98676, Control_c, 0, 64, 52
2,98694, Control_c, 0, 64, 41
2,98715, Control_c, 0, 64, 20
2,98735, Control_c, 0, 64, 0
2,99103, Note_on_c, 0, 52, 67
2,99103, Note_on_c, 0, 82, 81
2,99123, Note_on_c, 0, 51, 0
2,99343, Note_on_c, 0, 54, 74
2,99359, Note_on_c, 0, 52, 0
2,99586, Note_on_c, 0, 56, 70
2,99586, Note_on_c, 0, 71, 0
2,99593, Note_on_c, 0, 83, 74
2,99652, Note_on_c, 0, 54, 0
2,99682, Note_on_c, 0, 82, 0
2,99824, Note_on_c, 0, 75, 76
2,100069, Note_on_c, 0, 76, 82
2,100074, Note_on_c, 0, 54, 72
2,100107, Note_on_c, 0, 75, 0
2,100118, Note_on_c, 0, 56, 0
2,100286, Note_on_c, 0, 78, 85
2,100413, Note_on_c, 0, 83, 0
2,100565, Note_on_c, 0, 52, 62
2,100571, Note_on_c, 0, 80, 77
2,100619, Note_on_c, 0, 63, 0
2,100619, Note_on_c, 0, 76, 0
2,100637, Note_on_c, 0, 54, 0
2,100646, Note_on_c, 0, 78, 0
2,101036, Note_on_c, 0, 76, 82
2,101039, Note_on_c, 0, 58, 65
2,101085, Note_on_c, 0, 80, 0
2,101116, Note_on_c, 0, 52, 0
2,101541, Note_on_c, 0, 75, 72
2,101546, Note_on_c, 0, 59, 60
2,101587, Note_on_c, 0, 58, 0
2,101596, Note_on_c, 0, 76, 0
2,102030, Note_on_c, 0, 51, 55
2,102037, Note_on_c, 0, 66, 62
2,102485, Note_on_c, 0, 51, 0
2,102510, Note_on_c, 0, 73, 65
2,102514, Note_on_c, 0, 52, 53
2,102514, Note_on_c, 0, 68, 58
2,102517, Note_on_c, 0, 66, 0
2,102561, Note_on_c, 0, 75, 0
2,102654, Control_c, 0, 64, 30
2,102672, Control_c, 0, 64, 50
2,102685, Note_on_c, 0, 59, 0
2,102692, Control_c, 0, 64, 62
2,102710, Control_c, 0, 64, 66
2,102729, Control_c, 0, 64, 69
2,102733, Note_on_c, 0, 52, 0
2,102751, Control_c, 0, 64, 73
2,102772, Control_c, 0, 64, 78
2,102788, Control_c, 0, 64, 85
2,102807, Control_c, 0, 64, 89
2,102827, Control_c, 0, 64, 90
2,102905, Control_c, 0, 64, 91
2,102962, Control_c, 0, 64, 88
2,102981, Control_c, 0, 64, 82
2,102988, Note_on_c, 0, 70, 65
2,103002, Control_c, 0, 64, 74
2,103002, Note_on_c, 0, 52, 42
2,103019, Control_c, 0, 64, 65
2,103039, Control_c, 0, 64, 57
2,103056, Control_c, 0, 64, 44
2,103076, Control_c, 0, 64, 15
2,103093, Note_on_c, 0, 68, 0
2,103097, Control_c, 0, 64, 0
2,103216, Note_on_c, 0, 71, 65
2,103252, Note_on_c, 0, 70, 0
2,103466, Note_on_c, 0, 54, 49
2,103471, Note_on_c, 0, 64, 62
2,103478, Note_on_c, 0, 71, 0
2,103482, Note_on_c, 0, 58, 47
2,103493, Note_on_c, 0, 52, 0
2,103556, Control_c, 0, 64, 24
2,103575, Control_c, 0, 64, 46
2,103597, Control_c, 0, 64, 61
2,103616, Control_c, 0, 64, 66
2,103616, Note_on_c, 0, 54, 0
2,103634, Control_c, 0, 64, 70
2,103655, Control_c, 0, 64, 73
2,103670, Control_c, 0, 64, 76
2,103692, Control_c, 0, 64, 80
2,103712, Control_c, 0, 64, 82
2,103808, Control_c, 0, 64, 81
2,103826, Control_c, 0, 64, 80
2,103844, Control_c, 0, 64, 79
2,103864, Control_c, 0, 64, 76
2,103883, Control_c, 0, 64, 73
2,103904, Control_c, 0, 64, 67
2,103921, Control_c, 0, 64, 58
2,103939, Control_c, 0, 64, 43
2,103947, Note_on_c, 0, 54, 47
2,103960, Note_on_c, 0, 58, 0
2,103962, Control_c, 0, 64, 0
2,104056, Control_c, 0, 64, 22
2,104074, Control_c, 0, 64, 44
2,104095, Control_c, 0, 64, 60
2,104112, Control_c, 0, 64, 69
2,104125, Note_on_c, 0, 54, 0
2,104134, Control_c, 0, 64, 78
2,104151, Control_c, 0, 64, 91
2,104170, Control_c, 0, 64, 107
2,104189, Control_c, 0, 64, 127
2,104404, Control_c, 0, 64, 97
2,104420, Control_c, 0, 64, 78
2,104440, Control_c, 0, 64, 65
2,104440, Note_on_c, 0, 47, 43
2,104459, Control_c, 0, 64, 53
2,104477, Control_c, 0, 64, 46
2,104496, Control_c, 0, 64, 48
2,104519, Control_c, 0, 64, 53
2,104534, Control_c, 0, 64, 58
2,104554, Control_c, 0, 64, 61
2,104574, Control_c, 0, 64, 64
2,104592, Control_c, 0, 64, 68
2,104610, Control_c, 0, 64, 80
2,104635, Control_c, 0, 64, 97
2,104652, Control_c, 0, 64, 127
2,104690, Note_on_c, 0, 73, 0
2,104707, Note_on_c, 0, 64, 0
2,104861, Control_c, 0, 64, 112
2,104880, Control_c, 0, 64, 104
2,104889, Note_on_c, 0, 47, 0
2,104902, Control_c, 0, 64, 97
2,104902, Note_on_c, 0, 46, 45
2,104919, Control_c, 0, 64, 92
2,104919, Note_on_c, 0, 63, 53
2,104939, Control_c, 0, 64, 86
2,104957, Control_c, 0, 64, 80
2,104975, Control_c, 0, 64, 73
2,104996, Control_c, 0, 64, 67
2,105015, Control_c, 0, 64, 61
2,105036, Control_c, 0, 64, 57
2,105053, Control_c, 0, 64, 53
2,105074, Control_c, 0, 64, 49
2,105093, Control_c, 0, 64, 43
2,105111, Control_c, 0, 64, 36
2,105130, Control_c, 0, 64, 21
2,105145, Note_on_c, 0, 61, 56
2,105145, Note_on_c, 0, 63, 0
2,105149, Control_c, 0, 64, 0
2,105392, Note_on_c, 0, 71, 56
2,105403, Note_on_c, 0, 44, 48
2,105410, Note_on_c, 0, 63, 50
2,105436, Note_on_c, 0, 61, 0
2,105455, Note_on_c, 0, 46, 0
2,105629, Note_on_c, 0, 59, 59
2,105633, Note_on_c, 0, 63, 0
2,105883, Note_on_c, 0, 59, 0
2,105896, Note_on_c, 0, 65, 57
2,105905, Note_on_c, 0, 49, 53
2,105953, Note_on_c, 0, 44, 0
2,106374, Note_on_c, 0, 65, 0
2,106377, Note_on_c, 0, 42, 54
2,106379, Note_on_c, 0, 66, 54
2,106540, Note_on_c, 0, 49, 0
2,106834, Note_on_c, 0, 42, 0
2,106845, Note_on_c, 0, 40, 41
2,106845, Note_on_c, 0, 70, 62
2,106895, Note_on_c, 0, 71, 0
2,107073, Note_on_c, 0, 68, 67
2,107118, Note_on_c, 0, 70, 0
2,107305, Note_on_c, 0, 39, 50
2,107330, Note_on_c, 0, 70, 67
2,107380, Note_on_c, 0, 66, 0
2,107389, Note_on_c, 0, 40, 0
2,107397, Note_on_c, 0, 68, 0
2,107530, Note_on_c, 0, 66, 72
2,107595, Note_on_c, 0, 70, 0
2,107797, Note_on_c, 0, 44, 62
2,107797, Note_on_c, 0, 72, 74
2,107860, Note_on_c, 0, 39, 0
2,108278, Note_on_c, 0, 49, 60
2,108293, Note_on_c, 0, 73, 70
2,108332, Note_on_c, 0, 72, 0
2,108341, Note_on_c, 0, 44, 0
2,108752, Note_on_c, 0, 47, 64
2,108754, Note_on_c, 0, 64, 66
2,108754, Note_on_c, 0, 66, 0
2,108857, Note_on_c, 0, 49, 0
2,108975, Note_on_c, 0, 63, 70
2,108995, Note_on_c, 0, 64, 0
2,109221, Note_on_c, 0, 46, 65
2,109221, Note_on_c, 0, 64, 68
2,109249, Note_on_c, 0, 63, 0
2,109254, Note_on_c, 0, 47, 0
2,109431, Note_on_c, 0, 64, 0
2,109440, Note_on_c, 0, 61, 68
2,109709, Note_on_c, 0, 67, 65
2,109718, Note_on_c, 0, 51, 69
2,109738, Note_on_c, 0, 61, 0
2,109785, Note_on_c, 0, 46, 0
2,110199, Note_on_c, 0, 44, 67
2,110203, Note_on_c, 0, 68, 70
2,110215, Note_on_c, 0, 67, 0
2,110360, Note_on_c, 0, 51, 0
2,110649, Note_on_c, 0, 42, 60
2,110653, Note_on_c, 0, 71, 70
2,110719, Note_on_c, 0, 44, 0
2,110884, Note_on_c, 0, 70, 78
2,110925, Note_on_c, 0, 71, 0
2,110974, Note_on_c, 0, 73, 0
2,111128, Note_on_c, 0, 41, 61
2,111128, Note_on_c, 0, 71, 75
2,111181, Note_on_c, 0, 42, 0
2,111194, Note_on_c, 0, 70, 0
2,111207, Note_on_c, 0, 68, 0
2,111347, Note_on_c, 0, 68, 79
2,111441, Note_on_c, 0, 71, 0
2,111624, Note_on_c, 0, 74, 82
2,111628, Note_on_c, 0, 46, 67
2,111672, Note_on_c, 0, 41, 0
2,112134, Note_on_c, 0, 75, 76
2,112147, Note_on_c, 0, 39, 57
2,112185, Note_on_c, 0, 74, 0
2,112189, Note_on_c, 0, 46, 0
2,112370, Control_c, 0, 64, 17
2,112387, Control_c, 0, 64, 41
2,112407, Control_c, 0, 64, 58
2,112427, Control_c, 0, 64, 65
2,112444, Control_c, 0, 64, 71
2,112465, Control_c, 0, 64, 78
2,112480, Note_on_c, 0, 39, 0
2,112484, Control_c, 0, 64, 88
2,112504, Control_c, 0, 64, 106
2,112524, Control_c, 0, 64, 127
2,112626, Note_on_c, 0, 73, 77
2,112669, Note_on_c, 0, 75, 0
2,112712, Note_on_c, 0, 68, 0
2,112761, Note_on_c, 0, 73, 0
2,112855, Note_on_c, 0, 71, 80
2,112904, Control_c, 0, 64, 118
2,112924, Control_c, 0, 64, 100
2,112942, Control_c, 0, 64, 91
2,112961, Control_c, 0, 64, 85
2,112980, Control_c, 0, 64, 79
2,113001, Control_c, 0, 64, 69
2,113018, Control_c, 0, 64, 61
2,113037, Control_c, 0, 64, 49
2,113055, Control_c, 0, 64, 30
2,113077, Control_c, 0, 64, 0
2,113128, Note_on_c, 0, 66, 66
2,113128, Note_on_c, 0, 70, 70
2,113167, Note_on_c, 0, 71, 0
2,113602, Note_on_c, 0, 71, 80
2,113608, Note_on_c, 0, 51, 65
2,113634, Note_on_c, 0, 70, 0
2,114068, Note_on_c, 0, 52, 67
2,114079, Note_on_c, 0, 73, 77
2,114094, Note_on_c, 0, 64, 65
2,114116, Note_on_c, 0, 51, 0
2,114123, Note_on_c, 0, 66, 0
2,114139, Note_on_c, 0, 71, 0
2,114373, Note_on_c, 0, 52, 0
2,114551, Note_on_c, 0, 52, 68
2,114551, Note_on_c, 0, 73, 0
2,114966, Note_on_c, 0, 52, 0
2,115035, Note_on_c, 0, 70, 69
2,115040, Note_on_c, 0, 54, 51
2,115321, Note_on_c, 0, 54, 0
2,115505, Note_on_c, 0, 54, 61
2,115532, Note_on_c, 0, 70, 0
2,115991, Note_on_c, 0, 47, 29
2,115995, Note_on_c, 0, 71, 55
2,116029, Note_on_c, 0, 54, 0
2,116378, Control_c, 0, 64, 8
2,116399, Control_c, 0, 64, 11
2,116416, Control_c, 0, 64, 18
2,116437, Control_c, 0, 64, 28
2,116454, Control_c, 0, 64, 36
2,116465, Note_on_c, 0, 70, 54
2,116475, Control_c, 0, 64, 43
2,116495, Control_c, 0, 64, 49
2,116513, Control_c, 0, 64, 53
2,116532, Control_c, 0, 64, 55
2,116554, Control_c, 0, 64, 57
2,116554, Note_on_c, 0, 71, 0
2,116575, Control_c, 0, 64, 60
2,116593, Control_c, 0, 64, 62
2,116609, Control_c, 0, 64, 63
2,116628, Control_c, 0, 64, 64
2,116667, Control_c, 0, 64, 65
2,116673, Note_on_c, 0, 70, 0
2,116684, Control_c, 0, 64, 66
2,116696, Note_on_c, 0, 68, 60
2,116707, Control_c, 0, 64, 67
2,116801, Control_c, 0, 64, 68
2,116820, Control_c, 0, 64, 67
2,116822, Note_on_c, 0, 47, 0
2,116839, Control_c, 0, 64, 66
2,116895, Control_c, 0, 64, 65
2,116927, Note_on_c, 0, 68, 0
2,116936, Control_c, 0, 64, 64
2,116958, Note_on_c, 0, 63, 53
2,116958, Note_on_c, 0, 67, 56
2,116974, Control_c, 0, 64, 63
2,117012, Control_c, 0, 64, 62
2,117023, Note_on_c, 0, 64, 0
2,117035, Control_c, 0, 64, 60
2,117049, Control_c, 0, 64, 55
2,117070, Control_c, 0, 64, 43
2,117088, Control_c, 0, 64, 0
2,117440, Note_on_c, 0, 68, 60
2,117465, Note_on_c, 0, 47, 44
2,117469, Note_on_c, 0, 67, 0
2,117909, Note_on_c, 0, 47, 0
2,117921, Note_on_c, 0, 70, 58
2,117925, Note_on_c, 0, 61, 45
2,117930, Note_on_c, 0, 49, 45
2,117954, Note_on_c, 0, 68, 0
2,117970, Note_on_c, 0, 63, 0
2,118223, Note_on_c, 0, 49, 0
2,118402, Note_on_c, 0, 70, 0
2,118412, Note_on_c, 0, 49, 43
2,118823, Note_on_c, 0, 49, 0
2,118883, Note_on_c, 0, 67, 52
2,118898, Note_on_c, 0, 51, 44
2,119192, Note_on_c, 0, 51, 0
2,119375, Note_on_c, 0, 51, 48
2,119375, Note_on_c, 0, 67, 0
2,119843, Note_on_c, 0, 68, 61
2,119847, Note_on_c, 0, 44, 47
2,119888, Note_on_c, 0, 51, 0
2,120325, Note_on_c, 0, 46, 53
2,120327, Note_on_c, 0, 59, 62
2,120337, Note_on_c, 0, 61, 0
2,120405, Note_on_c, 0, 44, 0
2,120450, Control_c, 0, 64, 38
2,120467, Control_c, 0, 64, 54
2,120488, Control_c, 0, 64, 61
2,120507, Control_c, 0, 64, 63
2,120527, Control_c, 0, 64, 64
2,120543, Control_c, 0, 64, 66
2,120550, Note_on_c, 0, 61, 58
2,120564, Control_c, 0, 64, 71
2,120583, Control_c, 0, 64, 81
2,120605, Control_c, 0, 64, 96
2,120620, Control_c, 0, 64, 127
2,120640, Note_on_c, 0, 59, 0
2,120835, Control_c, 0, 64, 113
2,120848, Note_on_c, 0, 61, 0
2,120859, Control_c, 0, 64, 97
2,120859, Note_on_c, 0, 47, 56
2,120859, Note_on_c, 0, 56, 74
2,120859, Note_on_c, 0, 63, 50
2,120874, Control_c, 0, 64, 79
2,120892, Control_c, 0, 64, 64
2,120892, Note_on_c, 0, 46, 0
2,120909, Control_c, 0, 64, 50
2,120928, Control_c, 0, 64, 17
2,120947, Control_c, 0, 64, 0
2,121139, Control_c, 0, 64, 18
2,121159, Control_c, 0, 64, 40
2,121179, Control_c, 0, 64, 56
2,121197, Control_c, 0, 64, 64
2,121216, Control_c, 0, 64, 67
2,121237, Control_c, 0, 64, 71
2,121254, Control_c, 0, 64, 76
2,121273, Control_c, 0, 64, 82
2,121292, Control_c, 0, 64, 88
2,121313, Control_c, 0, 64, 90
2,121353, Control_c, 0, 64, 88
2,121353, Note_on_c, 0, 49, 56
2,121368, Note_on_c, 0, 56, 0
2,121372, Control_c, 0, 64, 83
2,121384, Note_on_c, 0, 61, 52
2,121391, Control_c, 0, 64, 72
2,121403, Note_on_c, 0, 47, 0
2,121407, Control_c, 0, 64, 62
2,121427, Control_c, 0, 64, 50
2,121448, Control_c, 0, 64, 40
2,121466, Control_c, 0, 64, 41
2,121484, Control_c, 0, 64, 49
2,121504, Control_c, 0, 64, 58
2,121523, Control_c, 0, 64, 64
2,121543, Control_c, 0, 64, 67
2,121563, Control_c, 0, 64, 72
2,121563, Note_on_c, 0, 63, 0
2,121583, Control_c, 0, 64, 81
2,121603, Control_c, 0, 64, 93
2,121605, Note_on_c, 0, 59, 63
2,121620, Control_c, 0, 64, 105
2,121638, Control_c, 0, 64, 118
2,121658, Control_c, 0, 64, 127
2,121682, Note_on_c, 0, 61, 0
2,121756, Control_c, 0, 64, 120
2,121775, Control_c, 0, 64, 111
2,121791, Control_c, 0, 64, 104
2,121811, Control_c, 0, 64, 98
2,121832, Control_c, 0, 64, 93
2,121848, Note_on_c, 0, 49, 0
2,121852, Control_c, 0, 64, 86
2,121860, Note_on_c, 0, 55, 64
2,121870, Control_c, 0, 64, 77
2,121878, Note_on_c, 0, 51, 55
2,121880, Note_on_c, 0, 58, 61
2,121888, Control_c, 0, 64, 66
2,121904, Note_on_c, 0, 68, 0
2,121909, Control_c, 0, 64, 56
2,121926, Control_c, 0, 64, 37
2,121929, Note_on_c, 0, 59, 0
2,121945, Control_c, 0, 64, 0
2,122334, Note_on_c, 0, 58, 0
2,122342, Note_on_c, 0, 56, 63
2,122347, Note_on_c, 0, 68, 69
2,122355, Note_on_c, 0, 60, 62
2,122362, Note_on_c, 0, 51, 0
2,122371, Note_on_c, 0, 54, 49
2,122387, Note_on_c, 0, 55, 0
2,122582, Note_on_c, 0, 58, 74
2,122595, Note_on_c, 0, 61, 57
2,122600, Note_on_c, 0, 60, 0
2,122625, Note_on_c, 0, 56, 0
2,122834, Note_on_c, 0, 60, 70
2,122843, Note_on_c, 0, 63, 64
2,122864, Note_on_c, 0, 58, 0
2,122900, Note_on_c, 0, 61, 0
2,123041, Control_c, 0, 64, 20
2,123059, Control_c, 0, 64, 44
2,123081, Control_c, 0, 64, 60
2,123090, Note_on_c, 0, 56, 59
2,123099, Note_on_c, 0, 54, 0
2,123103, Control_c, 0, 64, 66
2,123118, Control_c, 0, 64, 70
2,123139, Control_c, 0, 64, 74
2,123148, Note_on_c, 0, 63, 0
2,123155, Control_c, 0, 64, 78
2,123174, Control_c, 0, 64, 84
2,123194, Control_c, 0, 64, 89
2,123213, Control_c, 0, 64, 90
2,123310, Control_c, 0, 64, 87
2,123315, Note_on_c, 0, 70, 73
2,123324, Note_on_c, 0, 56, 0
2,123331, Control_c, 0, 64, 76
2,123331, Note_on_c, 0, 62, 63
2,123333, Note_on_c, 0, 54, 51
2,123333, Note_on_c, 0, 58, 61
2,123349, Control_c, 0, 64, 63
2,123367, Control_c, 0, 64, 48
2,123388, Control_c, 0, 64, 12
2,123400, Note_on_c, 0, 60, 0
2,123406, Control_c, 0, 64, 0
2,123443, Control_c, 0, 64, 8
2,123463, Control_c, 0, 64, 42
2,123483, Control_c, 0, 64, 58
2,123500, Note_on_c, 0, 68, 0
2,123505, Control_c, 0, 64, 67
2,123523, Control_c, 0, 64, 75
2,123539, Note_on_c, 0, 54, 0
2,123544, Control_c, 0, 64, 93
2,123546, Note_on_c, 0, 53, 64
2,123551, Note_on_c, 0, 58, 0
2,123561, Control_c, 0, 64, 127
2,123582, Note_on_c, 0, 70, 0
2,123664, Note_on_c, 0, 62, 0
2,123780, Note_on_c, 0, 51, 57
2,123793, Control_c, 0, 64, 106
2,123806, Note_on_c, 0, 56, 63
2,123806, Note_on_c, 0, 71, 80
2,123810, Control_c, 0, 64, 75
2,123827, Control_c, 0, 64, 60
2,123835, Note_on_c, 0, 53, 0
2,123835, Note_on_c, 0, 65, 55
2,123847, Control_c, 0, 64, 43
2,123868, Control_c, 0, 64, 31
2,123875, Note_on_c, 0, 51, 0
2,123884, Control_c, 0, 64, 38
2,123904, Control_c, 0, 64, 50
2,123923, Control_c, 0, 64, 60
2,123945, Control_c, 0, 64, 66
2,123961, Control_c, 0, 64, 73
2,123982, Control_c, 0, 64, 93
2,124000, Control_c, 0, 64, 127
2,124007, Note_on_c, 0, 65, 0
2,124023, Note_on_c, 0, 50, 63
2,124044, Note_on_c, 0, 56, 0
2,124117, Note_on_c, 0, 50, 0
2,124271, Note_on_c, 0, 62, 81
2,124291, Control_c, 0, 64, 79
2,124291, Note_on_c, 0, 48, 59
2,124308, Control_c, 0, 64, 62
2,124324, Note_on_c, 0, 65, 42
2,124328, Control_c, 0, 64, 41
2,124345, Control_c, 0, 64, 0
2,124377, Note_on_c, 0, 71, 0
2,124423, Control_c, 0, 64, 30
2,124442, Control_c, 0, 64, 48
2,124464, Control_c, 0, 64, 61
2,124479, Control_c, 0, 64, 67
2,124499, Control_c, 0, 64, 72
2,124503, Note_on_c, 0, 65, 0
2,124507, Note_on_c, 0, 46, 67
2,124523, Control_c, 0, 64, 81
2,124523, Note_on_c, 0, 48, 0
2,124539, Control_c, 0, 64, 93
2,124556, Control_c, 0, 64, 127
2,124751, Control_c, 0, 64, 102
2,124765, Note_on_c, 0, 70, 73
2,124771, Note_on_c, 0, 63, 73
2,124773, Control_c, 0, 64, 74
2,124773, Note_on_c, 0, 46, 0
2,124778, Note_on_c, 0, 44, 60
2,124790, Control_c, 0, 64, 59
2,124790, Note_on_c, 0, 66, 55
2,124809, Control_c, 0, 64, 34
2,124826, Control_c, 0, 64, 0
2,124887, Note_on_c, 0, 62, 0
2,124986, Note_on_c, 0, 42, 67
2,125033, Note_on_c, 0, 44, 0
2,125247, Note_on_c, 0, 54, 77
2,125275, Note_on_c, 0, 44, 41
2,125319, Note_on_c, 0, 42, 0
2,125362, Note_on_c, 0, 70, 0
2,125399, Note_on_c, 0, 66, 0
2,125422, Control_c, 0, 64, 29
2,125439, Control_c, 0, 64, 50
2,125448, Note_on_c, 0, 44, 0
2,125459, Control_c, 0, 64, 63
2,125480, Control_c, 0, 64, 72
2,125484, Note_on_c, 0, 46, 58
2,125498, Control_c, 0, 64, 94
2,125517, Control_c, 0, 64, 127
2,125528, Note_on_c, 0, 54, 0
2,125772, Note_on_c, 0, 56, 67
2,125777, Note_on_c, 0, 47, 55
2,125777, Note_on_c, 0, 68, 71
2,125790, Note_on_c, 0, 65, 59
2,125825, Control_c, 0, 64, 79
2,125840, Note_on_c, 0, 46, 0
2,125844, Control_c, 0, 64, 60
2,125864, Control_c, 0, 64, 32
2,125882, Control_c, 0, 64, 0
2,125911, Note_on_c, 0, 63, 0
2,126092, Note_on_c, 0, 56, 0
2,126262, Note_on_c, 0, 65, 0
2,126282, Note_on_c, 0, 56, 69
2,126619, Note_on_c, 0, 56, 0
2,126780, Note_on_c, 0, 58, 63
2,126785, Note_on_c, 0, 62, 58
2,126801, Note_on_c, 0, 46, 49
2,126808, Note_on_c, 0, 47, 0
2,126976, Control_c, 0, 64, 33
2,126996, Control_c, 0, 64, 50
2,127015, Control_c, 0, 64, 62
2,127035, Control_c, 0, 64, 66
2,127046, Note_on_c, 0, 58, 0
2,127054, Control_c, 0, 64, 67
2,127109, Control_c, 0, 64, 65
2,127130, Control_c, 0, 64, 64
2,127149, Control_c, 0, 64, 63
2,127168, Control_c, 0, 64, 62
2,127186, Control_c, 0, 64, 61
2,127208, Control_c, 0, 64, 59
2,127227, Control_c, 0, 64, 57
2,127245, Control_c, 0, 64, 56
2,127265, Control_c, 0, 64, 55
2,127278, Note_on_c, 0, 62, 0
2,127284, Control_c, 0, 64, 54
2,127288, Note_on_c, 0, 44, 49
2,127288, Note_on_c, 0, 58, 61
2,127306, Control_c, 0, 64, 48
2,127316, Note_on_c, 0, 46, 0
2,127325, Control_c, 0, 64, 36
2,127342, Control_c, 0, 64, 0
2,127761, Note_on_c, 0, 51, 43
2,127775, Note_on_c, 0, 63, 59
2,127779, Note_on_c, 0, 42, 46
2,127856, Note_on_c, 0, 44, 0
2,128243, Note_on_c, 0, 46, 46
2,128252, Note_on_c, 0, 61, 52
2,128252, Note_on_c, 0, 63, 0
2,128261, Note_on_c, 0, 42, 0
2,128329, Note_on_c, 0, 58, 0
2,128421, Note_on_c, 0, 51, 0
2,128474, Note_on_c, 0, 59, 60
2,128487, Note_on_c, 0, 61, 0
2,128789, Note_on_c, 0, 66, 65
2,128794, Note_on_c, 0, 39, 38
2,128801, Note_on_c, 0, 58, 53
2,128825, Note_on_c, 0, 46, 0
2,128857, Note_on_c, 0, 68, 0
2,128888, Note_on_c, 0, 59, 0
2,129261, Note_on_c, 0, 59, 57
2,129265, Note_on_c, 0, 39, 0
2,129265, Note_on_c, 0, 51, 50
2,129272, Note_on_c, 0, 58, 0
2,129799, Note_on_c, 0, 51, 0
2,129813, Note_on_c, 0, 64, 57
2,129820, Note_on_c, 0, 61, 46
2,129824, Note_on_c, 0, 52, 37
2,129874, Note_on_c, 0, 59, 0
2,129892, Note_on_c, 0, 66, 0
2,130084, Note_on_c, 0, 52, 0
2,130313, Note_on_c, 0, 61, 0
2,130322, Note_on_c, 0, 52, 49
2,130699, Note_on_c, 0, 52, 0
2,130795, Note_on_c, 0, 58, 49
2,130801, Note_on_c, 0, 54, 40
2,131099, Note_on_c, 0, 54, 0
2,131235, Note_on_c, 0, 58, 0
2,131272, Note_on_c, 0, 54, 46
2,131721, Note_on_c, 0, 47, 33
2,131755, Note_on_c, 0, 59, 54
2,131834, Note_on_c, 0, 54, 0
2,131995, Note_on_c, 0, 51, 54
2,132020, Note_on_c, 0, 47, 0
2,132228, Note_on_c, 0, 51, 0
2,132237, Note_on_c, 0, 63, 69
2,132246, Note_on_c, 0, 52, 49
2,132295, Note_on_c, 0, 64, 0
2,132454, Note_on_c, 0, 52, 0
2,132466, Note_on_c, 0, 54, 57
2,132774, Note_on_c, 0, 71, 77
2,132800, Note_on_c, 0, 56, 40
2,132816, Note_on_c, 0, 54, 0
2,132882, Note_on_c, 0, 63, 0
2,132945, Note_on_c, 0, 59, 0
2,133279, Note_on_c, 0, 59, 52
2,133281, Note_on_c, 0, 44, 44
2,133746, Note_on_c, 0, 44, 0
2,133763, Note_on_c, 0, 61, 55
2,133768, Note_on_c, 0, 45, 38
2,133836, Note_on_c, 0, 59, 0
2,133947, Control_c, 0, 64, 30
2,133957, Note_on_c, 0, 45, 0
2,133966, Control_c, 0, 64, 53
2,133984, Control_c, 0, 64, 65
2,134002, Control_c, 0, 64, 70
2,134013, Note_on_c, 0, 61, 0
2,134022, Control_c, 0, 64, 79
2,134044, Control_c, 0, 64, 87
2,134061, Control_c, 0, 64, 98
2,134078, Control_c, 0, 64, 107
2,134099, Control_c, 0, 64, 110
2,134138, Control_c, 0, 64, 109
2,134195, Control_c, 0, 64, 98
2,134214, Control_c, 0, 64, 83
2,134234, Control_c, 0, 64, 68
2,134248, Note_on_c, 0, 61, 60
2,134254, Control_c, 0, 64, 57
2,134263, Note_on_c, 0, 45, 42
2,134272, Control_c, 0, 64, 42
2,134291, Control_c, 0, 64, 28
2,134311, Control_c, 0, 64, 24
2,134329, Control_c, 0, 64, 28
2,134349, Control_c, 0, 64, 37
2,134367, Control_c, 0, 64, 50
2,134387, Control_c, 0, 64, 60
2,134407, Control_c, 0, 64, 65
2,134427, Control_c, 0, 64, 70
2,134430, Note_on_c, 0, 45, 0
2,134444, Control_c, 0, 64, 82
2,134457, Note_on_c, 0, 61, 0
2,134464, Control_c, 0, 64, 127
2,134714, Control_c, 0, 64, 115
2,134728, Note_on_c, 0, 69, 65
2,134732, Control_c, 0, 64, 76
2,134739, Note_on_c, 0, 63, 59
2,134741, Note_on_c, 0, 47, 47
2,134749, Note_on_c, 0, 71, 0
2,134753, Control_c, 0, 64, 57
2,134758, Note_on_c, 0, 54, 44
2,134771, Control_c, 0, 64, 30
2,134791, Control_c, 0, 64, 0
2,134805, Note_on_c, 0, 56, 0
2,134885, Control_c, 0, 64, 27
2,134905, Control_c, 0, 64, 44
2,134923, Note_on_c, 0, 63, 0
2,134925, Control_c, 0, 64, 57
2,134931, Note_on_c, 0, 47, 0
2,134945, Control_c, 0, 64, 64
2,134963, Control_c, 0, 64, 68
2,134984, Control_c, 0, 64, 73
2,135002, Control_c, 0, 64, 82
2,135024, Control_c, 0, 64, 95
2,135039, Control_c, 0, 64, 107
2,135061, Control_c, 0, 64, 116
2,135157, Control_c, 0, 64, 111
2,135174, Control_c, 0, 64, 101
2,135193, Control_c, 0, 64, 83
2,135213, Control_c, 0, 64, 66
2,135224, Note_on_c, 0, 63, 59
2,135231, Control_c, 0, 64, 53
2,135242, Note_on_c, 0, 47, 45
2,135255, Control_c, 0, 64, 34
2,135271, Control_c, 0, 64, 30
2,135289, Control_c, 0, 64, 42
2,135309, Control_c, 0, 64, 53
2,135327, Control_c, 0, 64, 60
2,135331, Note_on_c, 0, 54, 0
2,135348, Control_c, 0, 64, 64
2,135366, Control_c, 0, 64, 68
2,135386, Control_c, 0, 64, 77
2,135405, Note_on_c, 0, 47, 0
2,135410, Control_c, 0, 64, 104
2,135424, Control_c, 0, 64, 127
2,135674, Control_c, 0, 64, 104
2,135693, Control_c, 0, 64, 83
2,135711, Control_c, 0, 64, 65
2,135718, Note_on_c, 0, 64, 66
2,135720, Note_on_c, 0, 52, 43
2,135732, Control_c, 0, 64, 52
2,135734, Note_on_c, 0, 40, 35
2,135741, Note_on_c, 0, 63, 0
2,135750, Control_c, 0, 64, 23
2,135770, Control_c, 0, 64, 0
2,135951, Note_on_c, 0, 59, 64
2,135983, Note_on_c, 0, 64, 0
2,136153, Control_c, 0, 64, 17
2,136176, Control_c, 0, 64, 32
2,136190, Control_c, 0, 64, 41
2,136195, Note_on_c, 0, 61, 68
2,136211, Control_c, 0, 64, 50
2,136217, Note_on_c, 0, 40, 0
2,136230, Control_c, 0, 64, 59
2,136249, Control_c, 0, 64, 65
2,136268, Control_c, 0, 64, 69
2,136290, Control_c, 0, 64, 80
2,136308, Control_c, 0, 64, 103
2,136319, Note_on_c, 0, 69, 0
2,136329, Control_c, 0, 64, 127
2,136358, Note_on_c, 0, 52, 0
2,136382, Note_on_c, 0, 59, 0
2,136430, Note_on_c, 0, 63, 70
2,136504, Note_on_c, 0, 61, 0
2,136656, Control_c, 0, 64, 102
2,136675, Control_c, 0, 64, 86
2,136695, Control_c, 0, 64, 73
2,136704, Note_on_c, 0, 52, 64
2,136704, Note_on_c, 0, 64, 79
2,136713, Control_c, 0, 64, 61
2,136717, Note_on_c, 0, 63, 0
2,136735, Control_c, 0, 64, 39
2,136752, Control_c, 0, 64, 0
2,137177, Note_on_c, 0, 68, 80
2,137203, Note_on_c, 0, 59, 61
2,137250, Note_on_c, 0, 64, 0
2,137644, Note_on_c, 0, 70, 82
2,137649, Note_on_c, 0, 66, 69
2,137655, Note_on_c, 0, 59, 0
2,137655, Note_on_c, 0, 61, 53
2,137691, Note_on_c, 0, 68, 0
2,137789, Control_c, 0, 64, 33
2,137809, Control_c, 0, 64, 55
2,137828, Control_c, 0, 64, 69
2,137846, Control_c, 0, 64, 88
2,137864, Control_c, 0, 64, 127
2,137891, Note_on_c, 0, 61, 0
2,137904, Note_on_c, 0, 70, 0
2,138144, Note_on_c, 0, 70, 83
2,138155, Control_c, 0, 64, 93
2,138155, Note_on_c, 0, 61, 59
2,138174, Control_c, 0, 64, 67
2,138193, Control_c, 0, 64, 47
2,138214, Control_c, 0, 64, 22
2,138230, Control_c, 0, 64, 16
2,138249, Control_c, 0, 64, 32
2,138269, Control_c, 0, 64, 48
2,138274, Note_on_c, 0, 66, 0
2,138287, Control_c, 0, 64, 61
2,138306, Control_c, 0, 64, 70
2,138327, Control_c, 0, 64, 98
2,138345, Control_c, 0, 64, 127
2,138356, Note_on_c, 0, 61, 0
2,138393, Note_on_c, 0, 70, 0
2,138454, Note_on_c, 0, 52, 0
2,138615, Control_c, 0, 64, 77
2,138619, Note_on_c, 0, 72, 84
2,138626, Note_on_c, 0, 66, 72
2,138630, Note_on_c, 0, 51, 56
2,138635, Control_c, 0, 64, 58
2,138635, Note_on_c, 0, 63, 50
2,138654, Control_c, 0, 64, 24
2,138675, Control_c, 0, 64, 0
2,138728, Control_c, 0, 64, 34
2,138748, Control_c, 0, 64, 53
2,138767, Control_c, 0, 64, 66
2,138787, Control_c, 0, 64, 78
2,138806, Control_c, 0, 64, 127
2,138815, Note_on_c, 0, 72, 0
2,138902, Note_on_c, 0, 63, 0
2,139113, Control_c, 0, 64, 107
2,139127, Note_on_c, 0, 72, 80
2,139134, Control_c, 0, 64, 70
2,139141, Note_on_c, 0, 63, 51
2,139145, Note_on_c, 0, 51, 0
2,139145, Note_on_c, 0, 51, 19
2,139152, Control_c, 0, 64, 48
2,139173, Control_c, 0, 64, 0
2,139210, Control_c, 0, 64, 23
2,139229, Control_c, 0, 64, 46
2,139247, Control_c, 0, 64, 62
2,139252, Note_on_c, 0, 63, 0
2,139266, Control_c, 0, 64, 73
2,139286, Control_c, 0, 64, 127
2,139304, Note_on_c, 0, 72, 0
2,139384, Note_on_c, 0, 66, 0
2,139430, Note_on_c, 0, 51, 0
2,139624, Note_on_c, 0, 49, 45
2,139624, Note_on_c, 0, 56, 47
2,139629, Note_on_c, 0, 73, 72
2,139671, Control_c, 0, 64, 86
2,139688, Control_c, 0, 64, 65
2,139708, Control_c, 0, 64, 43
2,139728, Control_c, 0, 64, 0
2,139881, Note_on_c, 0, 63, 69
2,140129, Note_on_c, 0, 63, 0
2,140133, Note_on_c, 0, 64, 75
2,140137, Note_on_c, 0, 51, 62
2,140151, Note_on_c, 0, 49, 0
2,140370, Note_on_c, 0, 66, 77
2,140431, Note_on_c, 0, 73, 0
2,140637, Note_on_c, 0, 52, 61
2,140642, Note_on_c, 0, 51, 0
2,140648, Note_on_c, 0, 68, 80
2,140727, Note_on_c, 0, 66, 0
2,140732, Note_on_c, 0, 56, 0
2,140765, Note_on_c, 0, 64, 0
2,141165, Note_on_c, 0, 73, 80
2,141172, Note_on_c, 0, 54, 53
2,141179, Note_on_c, 0, 66, 57
2,141198, Note_on_c, 0, 52, 0
2,141253, Note_on_c, 0, 68, 0
2,141378, Control_c, 0, 64, 20
2,141398, Control_c, 0, 64, 44
2,141398, Note_on_c, 0, 66, 0
2,141418, Control_c, 0, 64, 60
2,141434, Note_on_c, 0, 64, 54
2,141437, Control_c, 0, 64, 69
2,141458, Control_c, 0, 64, 79
2,141474, Control_c, 0, 64, 106
2,141486, Note_on_c, 0, 64, 0
2,141495, Control_c, 0, 64, 127
2,141700, Note_on_c, 0, 72, 74
2,141708, Note_on_c, 0, 56, 48
2,141729, Note_on_c, 0, 63, 56
2,141744, Note_on_c, 0, 54, 0
2,141744, Note_on_c, 0, 73, 0
2,141749, Control_c, 0, 64, 83
2,141763, Control_c, 0, 64, 62
2,141785, Control_c, 0, 64, 42
2,141801, Control_c, 0, 64, 19
2,141821, Control_c, 0, 64, 29
2,141841, Control_c, 0, 64, 46
2,141858, Control_c, 0, 64, 60
2,141880, Control_c, 0, 64, 68
2,141897, Control_c, 0, 64, 83
2,141917, Control_c, 0, 64, 127
2,141952, Note_on_c, 0, 63, 0
2,142184, Note_on_c, 0, 58, 54
2,142184, Note_on_c, 0, 73, 86
2,142197, Note_on_c, 0, 68, 63
2,142207, Control_c, 0, 64, 90
2,142225, Control_c, 0, 64, 70
2,142225, Note_on_c, 0, 72, 0
2,142242, Control_c, 0, 64, 57
2,142264, Control_c, 0, 64, 37
2,142281, Control_c, 0, 64, 0
2,142417, Note_on_c, 0, 75, 86
2,142423, Note_on_c, 0, 58, 0
2,142425, Note_on_c, 0, 60, 58
2,142491, Note_on_c, 0, 73, 0
2,142692, Note_on_c, 0, 76, 83
2,142696, Note_on_c, 0, 75, 0
2,142706, Note_on_c, 0, 60, 0
2,142710, Note_on_c, 0, 61, 56
2,142896, Control_c, 0, 64, 23
2,142917, Control_c, 0, 64, 42
2,142934, Control_c, 0, 64, 60
2,142953, Control_c, 0, 64, 71
2,142972, Control_c, 0, 64, 87
2,142992, Control_c, 0, 64, 127
2,143164, Note_on_c, 0, 75, 80
2,143169, Control_c, 0, 64, 115
2,143182, Note_on_c, 0, 67, 69
2,143187, Control_c, 0, 64, 77
2,143191, Note_on_c, 0, 68, 0
2,143191, Note_on_c, 0, 68, 11
2,143199, Note_on_c, 0, 63, 51
2,143203, Control_c, 0, 64, 61
2,143223, Control_c, 0, 64, 40
2,143225, Note_on_c, 0, 61, 0
2,143229, Note_on_c, 0, 76, 0
2,143241, Control_c, 0, 64, 0
2,143253, Note_on_c, 0, 68, 0
2,143319, Control_c, 0, 64, 27
2,143338, Control_c, 0, 64, 45
2,143356, Control_c, 0, 64, 59
2,143376, Control_c, 0, 64, 66
2,143393, Note_on_c, 0, 67, 0
2,143397, Control_c, 0, 64, 74
2,143411, Note_on_c, 0, 68, 74
2,143415, Control_c, 0, 64, 98
2,143434, Control_c, 0, 64, 127
2,143482, Note_on_c, 0, 68, 0
2,143663, Note_on_c, 0, 63, 0
2,143676, Note_on_c, 0, 73, 81
2,143687, Control_c, 0, 64, 76
2,143690, Note_on_c, 0, 64, 54
2,143690, Note_on_c, 0, 70, 68
2,143702, Control_c, 0, 64, 57
2,143715, Note_on_c, 0, 75, 0
2,143721, Control_c, 0, 64, 0
2,143837, Control_c, 0, 64, 13
2,143855, Control_c, 0, 64, 36
2,143875, Control_c, 0, 64, 51
2,143893, Control_c, 0, 64, 63
2,143913, Control_c, 0, 64, 72
2,143932, Control_c, 0, 64, 91
2,143940, Note_on_c, 0, 70, 0
2,143951, Control_c, 0, 64, 127
2,144156, Note_on_c, 0, 79, 90
2,144164, Control_c, 0, 64, 122
2,144164, Note_on_c, 0, 68, 79
2,144176, Note_on_c, 0, 73, 0
2,144183, Control_c, 0, 64, 76
2,144201, Control_c, 0, 64, 61
2,144221, Control_c, 0, 64, 46
2,144239, Control_c, 0, 64, 45
2,144258, Control_c, 0, 64, 54
2,144278, Control_c, 0, 64, 62
2,144300, Control_c, 0, 64, 68
2,144320, Control_c, 0, 64, 79
2,144335, Control_c, 0, 64, 127
2,144382, Note_on_c, 0, 70, 86
2,144407, Note_on_c, 0, 79, 0
2,144416, Note_on_c, 0, 68, 0
2,144490, Note_on_c, 0, 70, 0
2,144662, Control_c, 0, 64, 81
2,144675, Note_on_c, 0, 63, 56
2,144675, Note_on_c, 0, 80, 86
2,144682, Note_on_c, 0, 71, 71
2,144686, Control_c, 0, 64, 60
2,144694, Note_on_c, 0, 64, 0
2,144701, Control_c, 0, 64, 18
2,144720, Control_c, 0, 64, 0
2,144817, Control_c, 0, 64, 10
2,144835, Control_c, 0, 64, 38
2,144854, Control_c, 0, 64, 54
2,144872, Control_c, 0, 64, 63
2,144896, Control_c, 0, 64, 68
2,144914, Control_c, 0, 64, 78
2,144929, Control_c, 0, 64, 102
2,144952, Control_c, 0, 64, 127
2,144952, Note_on_c, 0, 71, 0
2,145162, Control_c, 0, 64, 88
2,145180, Note_on_c, 0, 71, 79
2,145181, Control_c, 0, 64, 65
2,145190, Note_on_c, 0, 68, 71
2,145201, Control_c, 0, 64, 43
2,145220, Control_c, 0, 64, 27
2,145237, Control_c, 0, 64, 38
2,145257, Control_c, 0, 64, 52
2,145276, Control_c, 0, 64, 62
2,145295, Control_c, 0, 64, 66
2,145317, Control_c, 0, 64, 73
2,145333, Control_c, 0, 64, 90
2,145353, Control_c, 0, 64, 127
2,145360, Note_on_c, 0, 80, 0
2,145381, Note_on_c, 0, 68, 0
2,145642, Control_c, 0, 64, 80
2,145658, Control_c, 0, 64, 62
2,145663, Note_on_c, 0, 73, 85
2,145670, Note_on_c, 0, 69, 62
2,145674, Control_c, 0, 64, 36
2,145674, Note_on_c, 0, 64, 58
2,145693, Control_c, 0, 64, 0
2,145706, Note_on_c, 0, 63, 0
2,145710, Note_on_c, 0, 71, 0
2,145848, Control_c, 0, 64, 23
2,145866, Control_c, 0, 64, 30
2,145888, Control_c, 0, 64, 48
2,145903, Control_c, 0, 64, 61
2,145912, Note_on_c, 0, 73, 0
2,145924, Control_c, 0, 64, 67
2,145943, Control_c, 0, 64, 73
2,145963, Control_c, 0, 64, 82
2,145985, Control_c, 0, 64, 95
2,145999, Control_c, 0, 64, 127
2,146119, Control_c, 0, 64, 106
2,146135, Control_c, 0, 64, 89
2,146155, Control_c, 0, 64, 74
2,146161, Note_on_c, 0, 73, 85
2,146174, Control_c, 0, 64, 60
2,146193, Control_c, 0, 64, 44
2,146211, Control_c, 0, 64, 0
2,146231, Note_on_c, 0, 69, 0
2,146265, Note_on_c, 0, 64, 0
2,146628, Note_on_c, 0, 54, 62
2,146633, Note_on_c, 0, 75, 81
2,146635, Note_on_c, 0, 66, 54
2,146639, Note_on_c, 0, 69, 65
2,146689, Note_on_c, 0, 73, 0
2,146741, Note_on_c, 0, 56, 0
2,146826, Control_c, 0, 64, 24
2,146847, Control_c, 0, 64, 47
2,146865, Control_c, 0, 64, 61
2,146884, Control_c, 0, 64, 67
2,146903, Control_c, 0, 64, 73
2,146920, Note_on_c, 0, 75, 0
2,146922, Control_c, 0, 64, 86
2,146942, Control_c, 0, 64, 116
2,146962, Control_c, 0, 64, 127
2,147025, Note_on_c, 0, 66, 0
2,147134, Control_c, 0, 64, 75
2,147152, Control_c, 0, 64, 58
2,147156, Note_on_c, 0, 75, 85
2,147173, Control_c, 0, 64, 28
2,147193, Control_c, 0, 64, 0
2,147208, Note_on_c, 0, 69, 0
2,147636, Note_on_c, 0, 60, 57
2,147651, Note_on_c, 0, 63, 70
2,147653, Note_on_c, 0, 68, 81
2,147725, Note_on_c, 0, 75, 0
2,147850, Note_on_c, 0, 54, 0
2,148133, Note_on_c, 0, 72, 87
2,148313, Note_on_c, 0, 68, 0
2,148401, Control_c, 0, 64, 11
2,148418, Control_c, 0, 64, 37
2,148426, Note_on_c, 0, 60, 0
2,148439, Control_c, 0, 64, 54
2,148459, Control_c, 0, 64, 64
2,148479, Control_c, 0, 64, 66
2,148494, Control_c, 0, 64, 68
2,148516, Control_c, 0, 64, 69
2,148536, Control_c, 0, 64, 72
2,148555, Control_c, 0, 64, 77
2,148575, Control_c, 0, 64, 79
2,148593, Control_c, 0, 64, 77
2,148612, Control_c, 0, 64, 73
2,148633, Control_c, 0, 64, 67
2,148633, Note_on_c, 0, 73, 84
2,148653, Control_c, 0, 64, 55
2,148672, Control_c, 0, 64, 28
2,148689, Control_c, 0, 64, 0
2,148705, Note_on_c, 0, 72, 0
2,148892, Note_on_c, 0, 63, 0
2,149109, Note_on_c, 0, 68, 83
2,149121, Note_on_c, 0, 52, 64
2,149125, Note_on_c, 0, 64, 70
2,149227, Control_c, 0, 64, 15
2,149246, Control_c, 0, 64, 44
2,149265, Control_c, 0, 64, 61
2,149284, Control_c, 0, 64, 69
2,149288, Note_on_c, 0, 64, 0
2,149302, Control_c, 0, 64, 77
2,149322, Control_c, 0, 64, 92
2,149340, Control_c, 0, 64, 127
2,149589, Note_on_c, 0, 70, 82
2,149593, Control_c, 0, 64, 92
2,149594, Note_on_c, 0, 63, 72
2,149596, Note_on_c, 0, 43, 69
2,149611, Control_c, 0, 64, 69
2,149622, Note_on_c, 0, 73, 0
2,149631, Control_c, 0, 64, 56
2,149644, Note_on_c, 0, 68, 0
2,149648, Note_on_c, 0, 52, 0
2,149653, Control_c, 0, 64, 32
2,149666, Control_c, 0, 64, 0
2,149878, Note_on_c, 0, 43, 0
2,150078, Note_on_c, 0, 43, 76
2,150096, Note_on_c, 0, 63, 0
2,150129, Control_c, 0, 64, 32
2,150129, Note_on_c, 0, 70, 0
2,150150, Control_c, 0, 64, 51
2,150165, Control_c, 0, 64, 61
2,150188, Control_c, 0, 64, 63
2,150208, Control_c, 0, 64, 62
2,150262, Control_c, 0, 64, 61
2,150320, Control_c, 0, 64, 60
2,150380, Control_c, 0, 64, 59
2,150455, Control_c, 0, 64, 58
2,150493, Control_c, 0, 64, 56
2,150513, Control_c, 0, 64, 54
2,150530, Control_c, 0, 64, 49
2,150551, Control_c, 0, 64, 36
2,150562, Note_on_c, 0, 43, 0
2,150571, Control_c, 0, 64, 0
2,150576, Note_on_c, 0, 44, 60
2,150586, Note_on_c, 0, 71, 83
2,150592, Note_on_c, 0, 68, 74
2,150599, Note_on_c, 0, 63, 64
2,150763, Control_c, 0, 64, 14
2,150781, Control_c, 0, 64, 36
2,150800, Control_c, 0, 64, 55
2,150819, Control_c, 0, 64, 65
2,150840, Control_c, 0, 64, 69
2,150860, Control_c, 0, 64, 72
2,150878, Control_c, 0, 64, 76
2,150878, Note_on_c, 0, 44, 0
2,150895, Control_c, 0, 64, 82
2,150917, Control_c, 0, 64, 90
2,150935, Control_c, 0, 64, 97
2,150955, Control_c, 0, 64, 98
2,150972, Control_c, 0, 64, 97
2,151011, Control_c, 0, 64, 95
2,151029, Control_c, 0, 64, 93
2,151050, Control_c, 0, 64, 85
2,151063, Note_on_c, 0, 44, 72
2,151063, Note_on_c, 0, 66, 85
2,151069, Control_c, 0, 64, 70
2,151087, Control_c, 0, 64, 58
2,151108, Control_c, 0, 64, 34
2,151127, Control_c, 0, 64, 0
2,151200, Note_on_c, 0, 63, 0
2,151223, Control_c, 0, 64, 21
2,151242, Control_c, 0, 64, 41
2,151261, Control_c, 0, 64, 55
2,151283, Control_c, 0, 64, 62
2,151301, Control_c, 0, 64, 64
2,151318, Control_c, 0, 64, 65
2,151339, Control_c, 0, 64, 67
2,151358, Control_c, 0, 64, 71
2,151376, Control_c, 0, 64, 79
2,151395, Control_c, 0, 64, 91
2,151415, Control_c, 0, 64, 101
2,151433, Control_c, 0, 64, 105
2,151473, Control_c, 0, 64, 104
2,151490, Control_c, 0, 64, 103
2,151512, Control_c, 0, 64, 100
2,151530, Control_c, 0, 64, 88
2,151552, Control_c, 0, 64, 70
2,151562, Note_on_c, 0, 64, 81
2,151574, Control_c, 0, 64, 54
2,151574, Note_on_c, 0, 37, 66
2,151574, Note_on_c, 0, 61, 67
2,151590, Control_c, 0, 64, 0
2,151611, Note_on_c, 0, 66, 0
2,151665, Note_on_c, 0, 44, 0
2,151716, Note_on_c, 0, 68, 0
2,151741, Control_c, 0, 64, 24
2,151760, Control_c, 0, 64, 45
2,151781, Control_c, 0, 64, 58
2,151799, Control_c, 0, 64, 65
2,151818, Control_c, 0, 64, 69
2,151836, Control_c, 0, 64, 75
2,151856, Control_c, 0, 64, 85
2,151875, Control_c, 0, 64, 100
2,151895, Control_c, 0, 64, 127
2,151929, Note_on_c, 0, 64, 0
2,152030, Control_c, 0, 64, 108
2,152048, Control_c, 0, 64, 88
2,152070, Control_c, 0, 64, 71
2,152070, Note_on_c, 0, 39, 71
2,152074, Note_on_c, 0, 63, 82
2,152087, Control_c, 0, 64, 55
2,152107, Control_c, 0, 64, 25
2,152119, Note_on_c, 0, 71, 0
2,152126, Control_c, 0, 64, 0
2,152137, Note_on_c, 0, 37, 0
2,152218, Note_on_c, 0, 61, 0
2,152548, Note_on_c, 0, 70, 81
2,152562, Note_on_c, 0, 40, 64
2,152562, Note_on_c, 0, 61, 65
2,152593, Note_on_c, 0, 39, 0
2,152633, Note_on_c, 0, 63, 0
2,153050, Note_on_c, 0, 68, 88
2,153063, Note_on_c, 0, 49, 55
2,153099, Note_on_c, 0, 70, 0
2,153181, Control_c, 0, 64, 33
2,153201, Control_c, 0, 64, 49
2,153218, Control_c, 0, 64, 62
2,153238, Control_c, 0, 64, 72
2,153260, Control_c, 0, 64, 86
2,153277, Control_c, 0, 64, 127
2,153337, Note_on_c, 0, 49, 0
2,153546, Control_c, 0, 64, 116
2,153552, Note_on_c, 0, 67, 86
2,153568, Control_c, 0, 64, 71
2,153568, Note_on_c, 0, 39, 63
2,153585, Control_c, 0, 64, 49
2,153593, Note_on_c, 0, 51, 43
2,153604, Control_c, 0, 64, 0
2,153607, Note_on_c, 0, 40, 0
2,153630, Note_on_c, 0, 68, 0
2,153758, Control_c, 0, 64, 30
2,153777, Control_c, 0, 64, 42
2,153786, Note_on_c, 0, 61, 0
2,153791, Note_on_c, 0, 67, 0
2,153795, Control_c, 0, 64, 56
2,153814, Control_c, 0, 64, 66
2,153835, Control_c, 0, 64, 77
2,153857, Control_c, 0, 64, 127
2,154056, Note_on_c, 0, 68, 89
2,154063, Note_on_c, 0, 59, 83
2,154102, Control_c, 0, 64, 90
2,154125, Control_c, 0, 64, 63
2,154141, Control_c, 0, 64, 17
2,154160, Control_c, 0, 64, 0
2,154635, Note_on_c, 0, 58, 80
2,154698, Note_on_c, 0, 59, 0
2,155251, Note_on_c, 0, 67, 82
2,155332, Note_on_c, 0, 68, 0
2,155504, Control_c, 0, 64, 24
2,155525, Control_c, 0, 64, 47
2,155542, Control_c, 0, 64, 60
2,155562, Control_c, 0, 64, 66
2,155581, Control_c, 0, 64, 73
2,155602, Control_c, 0, 64, 98
2,155618, Control_c, 0, 64, 127
2,155662, Note_on_c, 0, 58, 0
2,155737, Note_on_c, 0, 51, 0
2,155810, Note_on_c, 0, 39, 0
2,156255, Note_on_c, 0, 68, 83
2,156273, Note_on_c, 0, 60, 62
2,156279, Note_on_c, 0, 51, 46
2,156288, Note_on_c, 0, 44, 46
2,156327, Note_on_c, 0, 67, 0
2,156370, Control_c, 0, 64, 83
2,156389, Control_c, 0, 64, 61
2,156407, Control_c, 0, 64, 26
2,156426, Control_c, 0, 64, 0
2,157011, Control_c, 0, 64, 12
2,157030, Control_c, 0, 64, 20
2,157048, Control_c, 0, 64, 24
2,157067, Control_c, 0, 64, 27
2,157086, Control_c, 0, 64, 31
2,157109, Control_c, 0, 64, 35
2,157126, Control_c, 0, 64, 38
2,157143, Control_c, 0, 64, 42
2,157163, Control_c, 0, 64, 46
2,157186, Control_c, 0, 64, 49
2,157201, Control_c, 0, 64, 52
2,157221, Control_c, 0, 64, 54
2,157240, Control_c, 0, 64, 55
2,157260, Control_c, 0, 64, 57
2,157278, Control_c, 0, 64, 59
2,157298, Control_c, 0, 64, 60
2,157318, Control_c, 0, 64, 61
2,157338, Control_c, 0, 64, 62
2,157355, Control_c, 0, 64, 63
2,157375, Control_c, 0, 64, 64
2,157395, Control_c, 0, 64, 67
2,157413, Control_c, 0, 64, 70
2,157431, Control_c, 0, 64, 77
2,157452, Control_c, 0, 64, 84
2,157472, Control_c, 0, 64, 93
2,157491, Control_c, 0, 64, 102
2,157510, Control_c, 0, 64, 127
2,158788, Control_c, 0, 64, 118
2,158806, Control_c, 0, 64, 115
2,158883, Control_c, 0, 64, 113
2,158902, Control_c, 0, 64, 112
2,158999, Control_c, 0, 64, 113
2,159016, Control_c, 0, 64, 115
2,159035, Control_c, 0, 64, 118
2,159057, Control_c, 0, 64, 122
2,159078, Control_c, 0, 64, 127
2,159405, Control_c, 0, 64, 122
2,159421, Control_c, 0, 64, 120
2,159441, Control_c, 0, 64, 118
2,159515, Control_c, 0, 64, 116
2,159543, Control_c, 0, 64, 115
2,159870, Control_c, 0, 64, 116
2,159913, Note_on_c, 0, 60, 0
2,159917, Note_on_c, 0, 68, 0
2,160174, Note_on_c, 0, 51, 0
2,160205, Note_on_c, 0, 44, 0
2,160427, Control_c, 0, 64, 115
2,160446, Control_c, 0, 64, 113
2,160504, Control_c, 0, 64, 112
2,160523, Control_c, 0, 64, 109
2,160540, Control_c, 0, 64, 107
2,160561, Control_c, 0, 64, 105
2,160583, Control_c, 0, 64, 103
2,160599, Control_c, 0, 64, 102
2,160618, Control_c, 0, 64, 100
2,160640, Control_c, 0, 64, 96
2,160657, Control_c, 0, 64, 90
2,160676, Control_c, 0, 64, 84
2,160695, Control_c, 0, 64, 81
2,160718, Control_c, 0, 64, 80
2,160753, Control_c, 0, 64, 79
2,160791, Control_c, 0, 64, 78
2,160812, Control_c, 0, 64, 77
2,160829, Control_c, 0, 64, 76
2,160849, Control_c, 0, 64, 75
2,160869, Control_c, 0, 64, 74
2,160889, Control_c, 0, 64, 73
2,160927, Control_c, 0, 64, 72
2,160946, Control_c, 0, 64, 71
2,160965, Control_c, 0, 64, 70
2,160983, Control_c, 0, 64, 69
2,161003, Control_c, 0, 64, 67
2,161021, Control_c, 0, 64, 66
2,161041, Control_c, 0, 64, 65
2,161059, Control_c, 0, 64, 64
2,161080, Control_c, 0, 64, 63
2,161098, Control_c, 0, 64, 62
2,161138, Control_c, 0, 64, 61
2,161160, Control_c, 0, 64, 60
2,161195, Control_c, 0, 64, 58
2,161214, Control_c, 0, 64, 57
2,161234, Control_c, 0, 64, 55
2,161254, Control_c, 0, 64, 54
2,161271, Control_c, 0, 64, 53
2,161309, Control_c, 0, 64, 52
2,161329, Control_c, 0, 64, 51
2,161347, Control_c, 0, 64, 49
2,161368, Control_c, 0, 64, 48
2,161388, Control_c, 0, 64, 47
2,161404, Control_c, 0, 64, 46
2,161444, Control_c, 0, 64, 45
2,161465, Control_c, 0, 64, 44
2,161481, Control_c, 0, 64, 43
2,161500, Control_c, 0, 64, 41
2,161520, Control_c, 0, 64, 40
2,161540, Control_c, 0, 64, 39
2,161599, Control_c, 0, 64, 38
2,161639, Control_c, 0, 64, 37
2,161752, Control_c, 0, 64, 36
2,161810, Control_c, 0, 64, 35
2,161924, Control_c, 0, 64, 34
2,161925, End_track
0, 0, End_of_file
