0, 0, Header, 1, 2, 480
1, 0, Start_track
1, 0, Tempo, 500000
1, 0, Time_signature, 4, 2, 24, 8
1, 1, End_track
2, 0, Start_track
2, 0, Program_c, 0, 0
2, 0, Control_c, 0, 64, 0
2, 0, Control_c, 0, 67, 0
2, 248, Control_c, 0, 64, 9
2, 268, Control_c, 0, 64, 11
2, 288, Control_c, 0, 64, 15
2, 306, Control_c, 0, 64, 21
2, 324, Control_c, 0, 64, 28
2, 344, Control_c, 0, 64, 35
2, 365, Control_c, 0, 64, 42
2, 381, Control_c, 0, 64, 47
2, 401, Control_c, 0, 64, 51
2, 420, Control_c, 0, 64, 54
2, 439, Control_c, 0, 64, 56
2, 459, Control_c, 0, 64, 58
2, 478, Control_c, 0, 64, 60
2, 499, Control_c, 0, 64, 61
2, 517, Control_c, 0, 64, 62
2, 534, Control_c, 0, 64, 63
2, 556, Control_c, 0, 64, 64
2, 576, Control_c, 0, 64, 65
2, 595, Control_c, 0, 64, 67
2, 613, Control_c, 0, 64, 69
2, 633, Control_c, 0, 64, 74
2, 654, Control_c, 0, 64, 79
2, 674, Control_c, 0, 64, 82
2, 692, Control_c, 0, 64, 83
2, 711, Control_c, 0, 64, 84
2, 738, Control_c, 0, 64, 85
2, 755, Control_c, 0, 64, 86
2, 775, Control_c, 0, 64, 88
2, 796, Control_c, 0, 64, 89
2, 814, Control_c, 0, 64, 90
2, 977, Control_c, 0, 64, 89
2, 999, Control_c, 0, 64, 88
2, 999, Note_on_c, 0, 59, 44
2, 1012, Note_on_c, 0, 56, 37
2, 1016, Note_on_c, 0, 68, 49
2, 1036, Control_c, 0, 64, 87
2, 1054, Control_c, 0, 64, 86
2, 1075, Control_c, 0, 64, 84
2, 1094, Control_c, 0, 64, 81
2, 1114, Control_c, 0, 64, 78
2, 1130, Control_c, 0, 64, 76
2, 1150, Control_c, 0, 64, 74
2, 1171, Control_c, 0, 64, 73
2, 1191, Control_c, 0, 64, 70
2, 1209, Control_c, 0, 64, 68
2, 1226, Control_c, 0, 64, 65
2, 1248, Control_c, 0, 64, 64
2, 1266, Control_c, 0, 64, 62
2, 1284, Control_c, 0, 64, 61
2, 1303, Control_c, 0, 64, 60
2, 1325, Control_c, 0, 64, 59
2, 1351, Note_on_c, 0, 70, 52
2, 1360, Control_c, 0, 64, 58
2, 1422, Control_c, 0, 64, 57
2, 1439, Control_c, 0, 64, 56
2, 1456, Control_c, 0, 64, 55
2, 1516, Control_c, 0, 64, 54
2, 1536, Control_c, 0, 64, 52
2, 1554, Control_c, 0, 64, 50
2, 1574, Control_c, 0, 64, 47
2, 1592, Control_c, 0, 64, 44
2, 1610, Control_c, 0, 64, 42
2, 1630, Control_c, 0, 64, 41
2, 1635, Note_on_c, 0, 71, 55
2, 1644, Note_on_c, 0, 63, 32
2, 1650, Control_c, 0, 64, 39
2, 1662, Note_on_c, 0, 68, 0
2, 1671, Control_c, 0, 64, 35
2, 1690, Control_c, 0, 64, 30
2, 1690, Note_on_c, 0, 70, 0
2, 1711, Control_c, 0, 64, 24
2, 1711, Note_on_c, 0, 59, 0
2, 1726, Control_c, 0, 64, 21
2, 1746, Control_c, 0, 64, 20
2, 1764, Control_c, 0, 64, 18
2, 1785, Control_c, 0, 64, 15
2, 1803, Control_c, 0, 64, 0
2, 1925, Note_on_c, 0, 68, 62
2, 1972, Note_on_c, 0, 71, 0
2, 2194, Note_on_c, 0, 70, 67
2, 2210, Note_on_c, 0, 61, 40
2, 2314, Note_on_c, 0, 63, 0
2, 2383, Note_on_c, 0, 68, 0
2, 2471, Note_on_c, 0, 73, 76
2, 2722, Note_on_c, 0, 70, 0
2, 2780, Note_on_c, 0, 76, 70
2, 2785, Note_on_c, 0, 56, 0
2, 2798, Note_on_c, 0, 55, 33
2, 2890, Note_on_c, 0, 73, 0
2, 2906, Note_on_c, 0, 61, 0
2, 3361, Note_on_c, 0, 75, 60
2, 3366, Note_on_c, 0, 59, 37
2, 3431, Note_on_c, 0, 76, 0
2, 3922, Note_on_c, 0, 55, 0
2, 3933, Note_on_c, 0, 73, 55
2, 3954, Note_on_c, 0, 58, 27
2, 4076, Note_on_c, 0, 59, 0
2, 4076, Note_on_c, 0, 75, 0
2, 4500, Note_on_c, 0, 71, 48
2, 4504, Note_on_c, 0, 56, 42
2, 4545, Note_on_c, 0, 58, 0
2, 4556, Note_on_c, 0, 73, 0
2, 4790, Note_on_c, 0, 58, 58
2, 4858, Note_on_c, 0, 56, 0
2, 5077, Note_on_c, 0, 80, 76
2, 5081, Note_on_c, 0, 59, 45
2, 5086, Note_on_c, 0, 75, 54
2, 5124, Note_on_c, 0, 58, 0
2, 5248, Note_on_c, 0, 71, 0
2, 5340, Note_on_c, 0, 56, 56
2, 5349, Note_on_c, 0, 59, 0
2, 5605, Note_on_c, 0, 73, 69
2, 5609, Note_on_c, 0, 70, 53
2, 5616, Note_on_c, 0, 58, 63
2, 5654, Note_on_c, 0, 75, 0
2, 5664, Note_on_c, 0, 56, 0
2, 5819, Control_c, 0, 64, 21
2, 5838, Control_c, 0, 64, 41
2, 5860, Control_c, 0, 64, 55
2, 5873, Note_on_c, 0, 80, 0
2, 5878, Control_c, 0, 64, 62
2, 5883, Note_on_c, 0, 61, 64
2, 5897, Control_c, 0, 64, 63
2, 5915, Control_c, 0, 64, 64
2, 5936, Control_c, 0, 64, 67
2, 5953, Control_c, 0, 64, 72
2, 5973, Control_c, 0, 64, 78
2, 5991, Control_c, 0, 64, 81
2, 5995, Note_on_c, 0, 58, 0
2, 6014, Control_c, 0, 64, 82
2, 6041, Note_on_c, 0, 70, 0
2, 6107, Control_c, 0, 64, 81
2, 6145, Control_c, 0, 64, 80
2, 6164, Control_c, 0, 64, 78
2, 6184, Control_c, 0, 64, 76
2, 6202, Control_c, 0, 64, 73
2, 6224, Control_c, 0, 64, 71
2, 6224, Note_on_c, 0, 79, 60
2, 6232, Note_on_c, 0, 64, 55
2, 6241, Control_c, 0, 64, 68
2, 6264, Control_c, 0, 64, 64
2, 6264, Note_on_c, 0, 73, 0
2, 6284, Control_c, 0, 64, 60
2, 6295, Note_on_c, 0, 61, 0
2, 6300, Control_c, 0, 64, 55
2, 6318, Control_c, 0, 64, 47
2, 6338, Control_c, 0, 64, 38
2, 6358, Control_c, 0, 64, 25
2, 6375, Control_c, 0, 64, 0
2, 6790, Note_on_c, 0, 71, 49
2, 6806, Note_on_c, 0, 63, 45
2, 6897, Note_on_c, 0, 64, 0
2, 7347, Note_on_c, 0, 61, 41
2, 7366, Note_on_c, 0, 70, 50
2, 7403, Note_on_c, 0, 63, 0
2, 7467, Note_on_c, 0, 71, 0
2, 7491, Note_on_c, 0, 79, 0
2, 7547, Control_c, 0, 64, 31
2, 7560, Note_on_c, 0, 70, 0
2, 7568, Control_c, 0, 64, 51
2, 7588, Control_c, 0, 64, 63
2, 7605, Control_c, 0, 64, 68
2, 7624, Control_c, 0, 64, 76
2, 7643, Control_c, 0, 64, 90
2, 7662, Control_c, 0, 64, 127
2, 7918, Note_on_c, 0, 59, 46
2, 7927, Note_on_c, 0, 80, 68
2, 7952, Note_on_c, 0, 75, 45
2, 7981, Note_on_c, 0, 61, 0
2, 8008, Control_c, 0, 64, 106
2, 8027, Control_c, 0, 64, 91
2, 8048, Control_c, 0, 64, 79
2, 8065, Control_c, 0, 64, 69
2, 8085, Control_c, 0, 64, 61
2, 8104, Control_c, 0, 64, 48
2, 8122, Control_c, 0, 64, 35
2, 8142, Control_c, 0, 64, 20
2, 8161, Control_c, 0, 64, 0
2, 8214, Note_on_c, 0, 82, 71
2, 8403, Note_on_c, 0, 80, 0
2, 8506, Note_on_c, 0, 68, 51
2, 8510, Note_on_c, 0, 83, 69
2, 8568, Note_on_c, 0, 75, 0
2, 8599, Note_on_c, 0, 82, 0
2, 8790, Note_on_c, 0, 75, 74
2, 9057, Note_on_c, 0, 61, 45
2, 9057, Note_on_c, 0, 76, 71
2, 9103, Note_on_c, 0, 83, 0
2, 9124, Note_on_c, 0, 75, 0
2, 9133, Note_on_c, 0, 59, 0
2, 9316, Note_on_c, 0, 80, 75
2, 9428, Note_on_c, 0, 76, 0
2, 9609, Note_on_c, 0, 58, 36
2, 9618, Note_on_c, 0, 78, 68
2, 9656, Note_on_c, 0, 68, 0
2, 9662, Note_on_c, 0, 80, 0
2, 9883, Note_on_c, 0, 80, 66
2, 9946, Note_on_c, 0, 78, 0
2, 10138, Note_on_c, 0, 61, 0
2, 10164, Note_on_c, 0, 82, 61
2, 10180, Note_on_c, 0, 66, 33
2, 10429, Note_on_c, 0, 73, 63
2, 10694, Note_on_c, 0, 59, 46
2, 10699, Note_on_c, 0, 80, 0
2, 10710, Note_on_c, 0, 75, 64
2, 10733, Note_on_c, 0, 58, 0
2, 10763, Note_on_c, 0, 82, 0
2, 10955, Note_on_c, 0, 78, 67
2, 10999, Note_on_c, 0, 75, 0
2, 11120, Note_on_c, 0, 73, 0
2, 11229, Note_on_c, 0, 56, 34
2, 11255, Note_on_c, 0, 76, 57
2, 11296, Note_on_c, 0, 66, 0
2, 11300, Note_on_c, 0, 78, 0
2, 11408, Control_c, 0, 64, 29
2, 11427, Control_c, 0, 64, 41
2, 11444, Control_c, 0, 64, 49
2, 11464, Control_c, 0, 64, 54
2, 11483, Control_c, 0, 64, 56
2, 11505, Control_c, 0, 64, 57
2, 11517, Note_on_c, 0, 78, 58
2, 11560, Note_on_c, 0, 76, 0
2, 11601, Control_c, 0, 64, 56
2, 11675, Control_c, 0, 64, 55
2, 11694, Control_c, 0, 64, 54
2, 11712, Control_c, 0, 64, 52
2, 11732, Control_c, 0, 64, 51
2, 11752, Control_c, 0, 64, 49
2, 11769, Control_c, 0, 64, 47
2, 11778, Note_on_c, 0, 59, 0
2, 11784, Note_on_c, 0, 80, 54
2, 11789, Control_c, 0, 64, 43
2, 11794, Note_on_c, 0, 64, 38
2, 11812, Control_c, 0, 64, 38
2, 11830, Control_c, 0, 64, 36
2, 11867, Control_c, 0, 64, 40
2, 11869, Note_on_c, 0, 56, 0
2, 11886, Control_c, 0, 64, 46
2, 11907, Control_c, 0, 64, 52
2, 11917, Note_on_c, 0, 78, 0
2, 11924, Control_c, 0, 64, 57
2, 11946, Control_c, 0, 64, 58
2, 11984, Control_c, 0, 64, 59
2, 12039, Control_c, 0, 64, 58
2, 12067, Note_on_c, 0, 71, 42
2, 12135, Control_c, 0, 64, 57
2, 12251, Control_c, 0, 64, 56
2, 12308, Control_c, 0, 64, 55
2, 12317, Note_on_c, 0, 52, 38
2, 12340, Note_on_c, 0, 73, 52
2, 12367, Control_c, 0, 64, 54
2, 12404, Control_c, 0, 64, 53
2, 12422, Control_c, 0, 64, 52
2, 12462, Control_c, 0, 64, 51
2, 12484, Control_c, 0, 64, 49
2, 12500, Control_c, 0, 64, 46
2, 12519, Control_c, 0, 64, 38
2, 12536, Note_on_c, 0, 71, 0
2, 12540, Control_c, 0, 64, 31
2, 12558, Control_c, 0, 64, 27
2, 12592, Note_on_c, 0, 76, 56
2, 12635, Control_c, 0, 64, 28
2, 12653, Control_c, 0, 64, 30
2, 12673, Control_c, 0, 64, 35
2, 12684, Note_on_c, 0, 73, 0
2, 12693, Control_c, 0, 64, 41
2, 12713, Control_c, 0, 64, 48
2, 12729, Control_c, 0, 64, 53
2, 12749, Control_c, 0, 64, 55
2, 12846, Control_c, 0, 64, 54
2, 12885, Control_c, 0, 64, 53
2, 12885, Note_on_c, 0, 70, 55
2, 12893, Note_on_c, 0, 54, 49
2, 12926, Control_c, 0, 64, 52
2, 12942, Control_c, 0, 64, 51
2, 12964, Control_c, 0, 64, 49
2, 12980, Control_c, 0, 64, 48
2, 12984, Note_on_c, 0, 52, 0
2, 12994, Note_on_c, 0, 76, 0
2, 13000, Control_c, 0, 64, 45
2, 13007, Note_on_c, 0, 80, 0
2, 13019, Control_c, 0, 64, 41
2, 13019, Note_on_c, 0, 64, 0
2, 13038, Control_c, 0, 64, 37
2, 13058, Control_c, 0, 64, 33
2, 13076, Control_c, 0, 64, 31
2, 13095, Control_c, 0, 64, 29
2, 13117, Control_c, 0, 64, 27
2, 13133, Control_c, 0, 64, 23
2, 13154, Control_c, 0, 64, 18
2, 13158, Note_on_c, 0, 71, 63
2, 13172, Control_c, 0, 64, 11
2, 13191, Control_c, 0, 64, 0
2, 13259, Note_on_c, 0, 70, 0
2, 13439, Note_on_c, 0, 56, 55
2, 13439, Note_on_c, 0, 63, 47
2, 13446, Note_on_c, 0, 54, 0
2, 13450, Note_on_c, 0, 73, 63
2, 13506, Note_on_c, 0, 71, 0
2, 13716, Note_on_c, 0, 66, 62
2, 13756, Note_on_c, 0, 73, 0
2, 13948, Note_on_c, 0, 56, 0
2, 14002, Note_on_c, 0, 58, 42
2, 14002, Note_on_c, 0, 61, 46
2, 14008, Note_on_c, 0, 73, 65
2, 14106, Note_on_c, 0, 63, 0
2, 14216, Note_on_c, 0, 66, 0
2, 14273, Note_on_c, 0, 76, 64
2, 14284, Note_on_c, 0, 73, 0
2, 14575, Note_on_c, 0, 59, 42
2, 14575, Note_on_c, 0, 75, 62
2, 14612, Note_on_c, 0, 61, 0
2, 14616, Note_on_c, 0, 58, 0
2, 14616, Note_on_c, 0, 76, 0
2, 14851, Note_on_c, 0, 76, 70
2, 14879, Note_on_c, 0, 61, 44
2, 14918, Note_on_c, 0, 75, 0
2, 14937, Note_on_c, 0, 59, 0
2, 15120, Note_on_c, 0, 78, 74
2, 15138, Note_on_c, 0, 63, 51
2, 15180, Note_on_c, 0, 76, 0
2, 15218, Note_on_c, 0, 61, 0
2, 15382, Note_on_c, 0, 59, 53
2, 15391, Note_on_c, 0, 75, 68
2, 15457, Note_on_c, 0, 63, 0
2, 15498, Note_on_c, 0, 78, 0
2, 15654, Note_on_c, 0, 61, 61
2, 15670, Note_on_c, 0, 76, 73
2, 15733, Note_on_c, 0, 59, 0
2, 15741, Note_on_c, 0, 75, 0
2, 15931, Note_on_c, 0, 64, 70
2, 15934, Note_on_c, 0, 80, 72
2, 15988, Note_on_c, 0, 76, 0
2, 15992, Note_on_c, 0, 61, 0
2, 16267, Note_on_c, 0, 68, 61
2, 16267, Note_on_c, 0, 71, 61
2, 16295, Note_on_c, 0, 80, 0
2, 16367, Note_on_c, 0, 64, 0
2, 16551, Note_on_c, 0, 70, 63
2, 16625, Note_on_c, 0, 71, 0
2, 16813, Note_on_c, 0, 71, 53
2, 16817, Note_on_c, 0, 66, 60
2, 16844, Note_on_c, 0, 70, 0
2, 16878, Note_on_c, 0, 68, 0
2, 17088, Note_on_c, 0, 70, 67
2, 17112, Note_on_c, 0, 71, 0
2, 17367, Note_on_c, 0, 64, 61
2, 17371, Note_on_c, 0, 71, 64
2, 17391, Note_on_c, 0, 70, 0
2, 17405, Note_on_c, 0, 66, 0
2, 17472, Control_c, 0, 64, 13
2, 17493, Control_c, 0, 64, 41
2, 17510, Control_c, 0, 64, 56
2, 17531, Control_c, 0, 64, 63
2, 17552, Control_c, 0, 64, 64
2, 17571, Control_c, 0, 64, 65
2, 17588, Control_c, 0, 64, 68
2, 17607, Control_c, 0, 64, 75
2, 17627, Control_c, 0, 64, 83
2, 17651, Control_c, 0, 64, 88
2, 17651, Note_on_c, 0, 71, 0
2, 17651, Note_on_c, 0, 73, 63
2, 17664, Control_c, 0, 64, 89
2, 17685, Control_c, 0, 64, 88
2, 17704, Control_c, 0, 64, 86
2, 17723, Control_c, 0, 64, 85
2, 17741, Control_c, 0, 64, 83
2, 17800, Control_c, 0, 64, 81
2, 17819, Control_c, 0, 64, 79
2, 17838, Control_c, 0, 64, 77
2, 17857, Control_c, 0, 64, 74
2, 17878, Control_c, 0, 64, 73
2, 17895, Control_c, 0, 64, 70
2, 17914, Control_c, 0, 64, 66
2, 17930, Note_on_c, 0, 47, 51
2, 17930, Note_on_c, 0, 63, 56
2, 17934, Control_c, 0, 64, 61
2, 17954, Control_c, 0, 64, 53
2, 17972, Control_c, 0, 64, 46
2, 17990, Note_on_c, 0, 64, 0
2, 17994, Control_c, 0, 64, 42
2, 18013, Control_c, 0, 64, 43
2, 18030, Control_c, 0, 64, 44
2, 18051, Control_c, 0, 64, 48
2, 18069, Control_c, 0, 64, 53
2, 18089, Control_c, 0, 64, 57
2, 18106, Control_c, 0, 64, 58
2, 18112, Note_on_c, 0, 73, 0
2, 18147, Control_c, 0, 64, 59
2, 18205, Note_on_c, 0, 64, 60
2, 18209, Note_on_c, 0, 49, 49
2, 18260, Control_c, 0, 64, 58
2, 18265, Note_on_c, 0, 63, 0
2, 18267, Note_on_c, 0, 47, 0
2, 18376, Control_c, 0, 64, 57
2, 18458, Note_on_c, 0, 51, 54
2, 18458, Note_on_c, 0, 71, 62
2, 18474, Control_c, 0, 64, 56
2, 18474, Note_on_c, 0, 66, 55
2, 18488, Note_on_c, 0, 49, 0
2, 18493, Control_c, 0, 64, 55
2, 18528, Control_c, 0, 64, 54
2, 18546, Note_on_c, 0, 64, 0
2, 18590, Control_c, 0, 64, 53
2, 18605, Control_c, 0, 64, 52
2, 18627, Control_c, 0, 64, 51
2, 18643, Control_c, 0, 64, 49
2, 18664, Control_c, 0, 64, 48
2, 18683, Control_c, 0, 64, 47
2, 18688, Note_on_c, 0, 51, 0
2, 18703, Control_c, 0, 64, 45
2, 18717, Note_on_c, 0, 47, 50
2, 18726, Control_c, 0, 64, 43
2, 18726, Note_on_c, 0, 66, 0
2, 18730, Note_on_c, 0, 63, 56
2, 18740, Control_c, 0, 64, 42
2, 18800, Control_c, 0, 64, 41
2, 18816, Control_c, 0, 64, 40
2, 18835, Control_c, 0, 64, 38
2, 18855, Control_c, 0, 64, 37
2, 18875, Control_c, 0, 64, 36
2, 18989, Control_c, 0, 64, 35
2, 18998, Note_on_c, 0, 49, 56
2, 19011, Note_on_c, 0, 64, 60
2, 19020, Note_on_c, 0, 63, 0
2, 19040, Note_on_c, 0, 47, 0
2, 19066, Control_c, 0, 64, 34
2, 19124, Control_c, 0, 64, 33
2, 19240, Control_c, 0, 64, 32
2, 19279, Note_on_c, 0, 52, 65
2, 19279, Note_on_c, 0, 68, 57
2, 19288, Note_on_c, 0, 64, 0
2, 19326, Note_on_c, 0, 49, 0
2, 19346, Note_on_c, 0, 71, 0
2, 19374, Control_c, 0, 64, 31
2, 19507, Control_c, 0, 64, 30
2, 19549, Note_on_c, 0, 68, 0
2, 19583, Note_on_c, 0, 56, 63
2, 19604, Note_on_c, 0, 61, 48
2, 19641, Note_on_c, 0, 52, 0
2, 19680, Control_c, 0, 64, 29
2, 19836, Control_c, 0, 64, 28
2, 19850, Note_on_c, 0, 71, 63
2, 20119, Note_on_c, 0, 54, 63
2, 20124, Note_on_c, 0, 71, 0
2, 20126, Note_on_c, 0, 70, 62
2, 20160, Control_c, 0, 64, 27
2, 20181, Control_c, 0, 64, 26
2, 20199, Control_c, 0, 64, 25
2, 20218, Control_c, 0, 64, 24
2, 20238, Control_c, 0, 64, 22
2, 20257, Control_c, 0, 64, 18
2, 20267, Note_on_c, 0, 56, 0
2, 20276, Control_c, 0, 64, 11
2, 20296, Control_c, 0, 64, 0
2, 20400, Note_on_c, 0, 71, 71
2, 20445, Note_on_c, 0, 70, 0
2, 20687, Note_on_c, 0, 52, 53
2, 20691, Note_on_c, 0, 73, 69
2, 20746, Note_on_c, 0, 54, 0
2, 20782, Note_on_c, 0, 71, 0
2, 20951, Note_on_c, 0, 70, 68
2, 21013, Note_on_c, 0, 73, 0
2, 21233, Note_on_c, 0, 66, 69
2, 21238, Note_on_c, 0, 51, 46
2, 21245, Note_on_c, 0, 70, 0
2, 21271, Note_on_c, 0, 52, 0
2, 21501, Note_on_c, 0, 52, 47
2, 21562, Note_on_c, 0, 51, 0
2, 21589, Note_on_c, 0, 61, 0
2, 21791, Note_on_c, 0, 54, 43
2, 21796, Note_on_c, 0, 59, 54
2, 21845, Note_on_c, 0, 52, 0
2, 21908, Control_c, 0, 67, 10
2, 21929, Control_c, 0, 67, 14
2, 21948, Control_c, 0, 67, 15
2, 21966, Control_c, 0, 67, 17
2, 21986, Control_c, 0, 67, 18
2, 22004, Control_c, 0, 67, 20
2, 22022, Control_c, 0, 67, 23
2, 22046, Control_c, 0, 67, 25
2, 22046, Note_on_c, 0, 59, 0
2, 22048, Note_on_c, 0, 54, 0
2, 22054, Note_on_c, 0, 51, 54
2, 22065, Control_c, 0, 67, 26
2, 22065, Note_on_c, 0, 57, 46
2, 22084, Control_c, 0, 67, 27
2, 22119, Control_c, 0, 67, 28
2, 22137, Control_c, 0, 67, 33
2, 22158, Control_c, 0, 67, 37
2, 22175, Control_c, 0, 67, 41
2, 22196, Control_c, 0, 67, 42
2, 22235, Control_c, 0, 67, 43
2, 22310, Note_on_c, 0, 53, 57
2, 22326, Note_on_c, 0, 61, 54
2, 22330, Note_on_c, 0, 57, 0
2, 22334, Control_c, 0, 67, 42
2, 22426, Note_on_c, 0, 51, 0
2, 22540, Control_c, 0, 64, 22
2, 22560, Control_c, 0, 64, 42
2, 22579, Control_c, 0, 64, 54
2, 22586, Note_on_c, 0, 59, 63
2, 22586, Note_on_c, 0, 61, 0
2, 22590, Note_on_c, 0, 56, 66
2, 22603, Control_c, 0, 64, 60
2, 22603, Control_c, 0, 67, 41
2, 22636, Note_on_c, 0, 53, 0
2, 22640, Control_c, 0, 64, 61
2, 22675, Control_c, 0, 64, 62
2, 22691, Note_on_c, 0, 59, 0
2, 22695, Control_c, 0, 64, 63
2, 22756, Control_c, 0, 64, 62
2, 22869, Control_c, 0, 64, 61
2, 22884, Note_on_c, 0, 59, 65
2, 22889, Control_c, 0, 64, 60
2, 22904, Note_on_c, 0, 62, 61
2, 22909, Control_c, 0, 64, 59
2, 22945, Control_c, 0, 64, 58
2, 22967, Control_c, 0, 64, 55
2, 22969, Note_on_c, 0, 56, 0
2, 22986, Control_c, 0, 64, 52
2, 23001, Control_c, 0, 64, 49
2, 23022, Control_c, 0, 64, 47
2, 23042, Control_c, 0, 64, 46
2, 23060, Control_c, 0, 64, 47
2, 23078, Control_c, 0, 64, 48
2, 23100, Control_c, 0, 64, 53
2, 23118, Control_c, 0, 64, 58
2, 23136, Control_c, 0, 64, 61
2, 23156, Note_on_c, 0, 66, 0
2, 23161, Control_c, 0, 64, 62
2, 23161, Note_on_c, 0, 65, 56
2, 23176, Control_c, 0, 64, 63
2, 23195, Control_c, 0, 64, 64
2, 23199, Control_c, 0, 67, 42
2, 23215, Control_c, 0, 64, 66
2, 23233, Control_c, 0, 64, 67
2, 23256, Control_c, 0, 67, 43
2, 23275, Control_c, 0, 67, 44
2, 23292, Control_c, 0, 64, 66
2, 23292, Control_c, 0, 67, 46
2, 23311, Control_c, 0, 67, 56
2, 23330, Control_c, 0, 67, 70
2, 23349, Control_c, 0, 64, 65
2, 23349, Control_c, 0, 67, 84
2, 23370, Control_c, 0, 67, 94
2, 23387, Control_c, 0, 64, 64
2, 23392, Control_c, 0, 67, 101
2, 23408, Control_c, 0, 64, 63
2, 23408, Control_c, 0, 67, 105
2, 23424, Control_c, 0, 67, 109
2, 23435, Note_on_c, 0, 57, 61
2, 23444, Control_c, 0, 67, 111
2, 23455, Note_on_c, 0, 66, 55
2, 23459, Note_on_c, 0, 61, 51
2, 23469, Control_c, 0, 64, 62
2, 23469, Control_c, 0, 67, 112
2, 23483, Control_c, 0, 64, 60
2, 23489, Note_on_c, 0, 62, 0
2, 23492, Note_on_c, 0, 65, 0
2, 23502, Control_c, 0, 64, 58
2, 23502, Control_c, 0, 67, 113
2, 23521, Control_c, 0, 64, 56
2, 23521, Control_c, 0, 67, 117
2, 23542, Note_on_c, 0, 59, 0
2, 23547, Control_c, 0, 64, 55
2, 23547, Control_c, 0, 67, 125
2, 23560, Control_c, 0, 64, 53
2, 23564, Control_c, 0, 67, 127
2, 23579, Control_c, 0, 64, 49
2, 23598, Control_c, 0, 64, 40
2, 23616, Control_c, 0, 64, 23
2, 23636, Control_c, 0, 64, 0
2, 23693, Control_c, 0, 64, 17
2, 23716, Control_c, 0, 64, 29
2, 23720, Note_on_c, 0, 65, 55
2, 23736, Control_c, 0, 64, 41
2, 23752, Control_c, 0, 64, 51
2, 23769, Control_c, 0, 64, 58
2, 23774, Note_on_c, 0, 66, 0
2, 23790, Control_c, 0, 64, 60
2, 23846, Control_c, 0, 64, 61
2, 23887, Control_c, 0, 64, 60
2, 23942, Control_c, 0, 64, 59
2, 23964, Control_c, 0, 64, 57
2, 23975, Note_on_c, 0, 66, 54
2, 23982, Control_c, 0, 64, 53
2, 23986, Note_on_c, 0, 59, 48
2, 23992, Note_on_c, 0, 56, 51
2, 24002, Control_c, 0, 64, 48
2, 24002, Note_on_c, 0, 61, 0
2, 24022, Control_c, 0, 64, 41
2, 24022, Note_on_c, 0, 57, 0
2, 24038, Control_c, 0, 64, 30
2, 24055, Note_on_c, 0, 65, 0
2, 24060, Control_c, 0, 64, 18
2, 24077, Control_c, 0, 64, 13
2, 24098, Control_c, 0, 67, 125
2, 24117, Control_c, 0, 67, 117
2, 24136, Control_c, 0, 64, 17
2, 24136, Control_c, 0, 67, 105
2, 24157, Control_c, 0, 64, 23
2, 24157, Control_c, 0, 67, 92
2, 24175, Control_c, 0, 64, 30
2, 24175, Control_c, 0, 67, 78
2, 24198, Control_c, 0, 64, 37
2, 24198, Control_c, 0, 67, 60
2, 24212, Control_c, 0, 64, 45
2, 24217, Control_c, 0, 67, 41
2, 24232, Control_c, 0, 64, 52
2, 24232, Control_c, 0, 67, 23
2, 24244, Note_on_c, 0, 59, 0
2, 24255, Control_c, 0, 64, 58
2, 24255, Control_c, 0, 67, 0
2, 24272, Control_c, 0, 64, 59
2, 24272, Note_on_c, 0, 68, 60
2, 24424, Control_c, 0, 64, 58
2, 24460, Control_c, 0, 64, 57
2, 24481, Control_c, 0, 64, 56
2, 24502, Control_c, 0, 64, 55
2, 24521, Control_c, 0, 64, 53
2, 24523, Note_on_c, 0, 56, 0
2, 24540, Control_c, 0, 64, 50
2, 24549, Note_on_c, 0, 54, 43
2, 24558, Control_c, 0, 64, 46
2, 24558, Note_on_c, 0, 61, 46
2, 24578, Control_c, 0, 64, 38
2, 24597, Control_c, 0, 64, 22
2, 24616, Control_c, 0, 64, 0
2, 24839, Note_on_c, 0, 63, 57
2, 24858, Note_on_c, 0, 68, 0
2, 25088, Note_on_c, 0, 57, 50
2, 25097, Note_on_c, 0, 64, 61
2, 25138, Note_on_c, 0, 61, 0
2, 25173, Note_on_c, 0, 63, 0
2, 25357, Note_on_c, 0, 56, 51
2, 25357, Note_on_c, 0, 61, 53
2, 25377, Note_on_c, 0, 64, 0
2, 25386, Note_on_c, 0, 57, 0
2, 25477, Note_on_c, 0, 54, 0
2, 25527, Note_on_c, 0, 66, 0
2, 25622, Note_on_c, 0, 56, 0
2, 25622, Note_on_c, 0, 57, 49
2, 25627, Note_on_c, 0, 63, 65
2, 25888, Note_on_c, 0, 66, 70
2, 25893, Note_on_c, 0, 54, 53
2, 25895, Note_on_c, 0, 57, 0
2, 25969, Note_on_c, 0, 61, 0
2, 26031, Note_on_c, 0, 63, 0
2, 26186, Note_on_c, 0, 69, 68
2, 26197, Note_on_c, 0, 60, 59
2, 26250, Note_on_c, 0, 54, 0
2, 26315, Note_on_c, 0, 66, 0
2, 26455, Note_on_c, 0, 54, 64
2, 26733, Note_on_c, 0, 52, 54
2, 26735, Note_on_c, 0, 68, 67
2, 26742, Note_on_c, 0, 61, 60
2, 26763, Note_on_c, 0, 54, 0
2, 26798, Note_on_c, 0, 69, 0
2, 26826, Note_on_c, 0, 60, 0
2, 27002, Note_on_c, 0, 51, 55
2, 27065, Note_on_c, 0, 52, 0
2, 27272, Note_on_c, 0, 66, 65
2, 27279, Note_on_c, 0, 49, 50
2, 27286, Note_on_c, 0, 63, 59
2, 27290, Note_on_c, 0, 51, 0
2, 27342, Note_on_c, 0, 68, 0
2, 27382, Note_on_c, 0, 61, 0
2, 27554, Note_on_c, 0, 48, 48
2, 27593, Note_on_c, 0, 49, 0
2, 27799, Note_on_c, 0, 48, 0
2, 27817, Note_on_c, 0, 49, 49
2, 27826, Note_on_c, 0, 64, 59
2, 27830, Note_on_c, 0, 56, 45
2, 27846, Note_on_c, 0, 63, 0
2, 28081, Note_on_c, 0, 56, 0
2, 28096, Note_on_c, 0, 58, 58
2, 28200, Note_on_c, 0, 66, 0
2, 28374, Note_on_c, 0, 59, 58
2, 28399, Note_on_c, 0, 58, 0
2, 28639, Note_on_c, 0, 56, 61
2, 28710, Note_on_c, 0, 59, 0
2, 28914, Note_on_c, 0, 56, 0
2, 28921, Note_on_c, 0, 58, 52
2, 28930, Note_on_c, 0, 73, 82
2, 29050, Control_c, 0, 64, 27
2, 29069, Control_c, 0, 64, 49
2, 29087, Control_c, 0, 64, 64
2, 29107, Control_c, 0, 64, 74
2, 29116, Note_on_c, 0, 58, 0
2, 29128, Control_c, 0, 64, 98
2, 29147, Control_c, 0, 64, 127
2, 29171, Note_on_c, 0, 49, 0
2, 29200, Note_on_c, 0, 61, 57
2, 29215, Note_on_c, 0, 64, 0
2, 29228, Note_on_c, 0, 73, 0
2, 29307, Note_on_c, 0, 61, 0
2, 29479, Note_on_c, 0, 43, 48
2, 29491, Control_c, 0, 64, 84
2, 29509, Note_on_c, 0, 70, 73
2, 29514, Control_c, 0, 64, 64
2, 29525, Note_on_c, 0, 64, 61
2, 29529, Control_c, 0, 64, 48
2, 29549, Control_c, 0, 64, 35
2, 29571, Control_c, 0, 64, 43
2, 29589, Control_c, 0, 64, 59
2, 29607, Control_c, 0, 64, 69
2, 29611, Note_on_c, 0, 43, 0
2, 29629, Control_c, 0, 64, 81
2, 29645, Control_c, 0, 64, 127
2, 29796, Note_on_c, 0, 61, 55
2, 29839, Control_c, 0, 64, 110
2, 29857, Control_c, 0, 64, 92
2, 29876, Control_c, 0, 64, 83
2, 29894, Control_c, 0, 64, 77
2, 29913, Control_c, 0, 64, 71
2, 29934, Control_c, 0, 64, 66
2, 29954, Control_c, 0, 64, 62
2, 29972, Control_c, 0, 64, 59
2, 29990, Control_c, 0, 64, 57
2, 30010, Control_c, 0, 64, 55
2, 30032, Control_c, 0, 64, 53
2, 30049, Control_c, 0, 64, 49
2, 30062, Note_on_c, 0, 59, 52
2, 30062, Note_on_c, 0, 63, 61
2, 30068, Control_c, 0, 64, 44
2, 30086, Control_c, 0, 64, 36
2, 30106, Control_c, 0, 64, 25
2, 30123, Note_on_c, 0, 61, 0
2, 30125, Control_c, 0, 64, 0
2, 30162, Note_on_c, 0, 64, 0
2, 30326, Note_on_c, 0, 58, 49
2, 30333, Note_on_c, 0, 59, 0
2, 30585, Note_on_c, 0, 58, 0
2, 30596, Note_on_c, 0, 61, 55
2, 30610, Note_on_c, 0, 56, 47
2, 30628, Note_on_c, 0, 63, 0
2, 30876, Note_on_c, 0, 55, 39
2, 30904, Note_on_c, 0, 56, 0
2, 31123, Note_on_c, 0, 61, 0
2, 31130, Note_on_c, 0, 56, 41
2, 31143, Note_on_c, 0, 59, 57
2, 31206, Note_on_c, 0, 55, 0
2, 31421, Note_on_c, 0, 68, 61
2, 31697, Note_on_c, 0, 67, 63
2, 31726, Note_on_c, 0, 70, 0
2, 31957, Note_on_c, 0, 70, 72
2, 31984, Note_on_c, 0, 67, 0
2, 32049, Note_on_c, 0, 68, 0
2, 32258, Note_on_c, 0, 68, 73
2, 32526, Note_on_c, 0, 65, 63
2, 32591, Note_on_c, 0, 59, 0
2, 32801, Note_on_c, 0, 62, 66
2, 32812, Note_on_c, 0, 58, 52
2, 32845, Note_on_c, 0, 56, 0
2, 32857, Note_on_c, 0, 65, 0
2, 32966, Note_on_c, 0, 68, 0
2, 33042, Note_on_c, 0, 70, 0
2, 33066, Note_on_c, 0, 56, 60
2, 33328, Note_on_c, 0, 63, 71
2, 33339, Note_on_c, 0, 54, 54
2, 33360, Note_on_c, 0, 56, 0
2, 33425, Note_on_c, 0, 62, 0
2, 33583, Note_on_c, 0, 54, 0
2, 33597, Note_on_c, 0, 53, 55
2, 33876, Note_on_c, 0, 65, 70
2, 33890, Note_on_c, 0, 51, 51
2, 33940, Note_on_c, 0, 53, 0
2, 34045, Note_on_c, 0, 63, 0
2, 34143, Note_on_c, 0, 50, 53
2, 34152, Note_on_c, 0, 51, 0
2, 34443, Note_on_c, 0, 66, 75
2, 34460, Note_on_c, 0, 51, 49
2, 34469, Note_on_c, 0, 50, 0
2, 34576, Note_on_c, 0, 65, 0
2, 34726, Note_on_c, 0, 53, 54
2, 34743, Note_on_c, 0, 51, 0
2, 34997, Note_on_c, 0, 63, 67
2, 35007, Note_on_c, 0, 54, 52
2, 35068, Note_on_c, 0, 58, 0
2, 35090, Note_on_c, 0, 53, 0
2, 35242, Note_on_c, 0, 46, 57
2, 35310, Note_on_c, 0, 54, 0
2, 35511, Note_on_c, 0, 56, 66
2, 35536, Note_on_c, 0, 47, 52
2, 35540, Note_on_c, 0, 63, 0
2, 35577, Note_on_c, 0, 46, 0
2, 35778, Note_on_c, 0, 51, 55
2, 35873, Note_on_c, 0, 47, 0
2, 36048, Note_on_c, 0, 65, 58
2, 36076, Note_on_c, 0, 49, 45
2, 36076, Note_on_c, 0, 51, 0
2, 36180, Note_on_c, 0, 66, 0
2, 36318, Note_on_c, 0, 51, 48
2, 36401, Note_on_c, 0, 49, 0
2, 36578, Note_on_c, 0, 56, 0
2, 36607, Note_on_c, 0, 51, 0
2, 36607, Note_on_c, 0, 61, 54
2, 36622, Note_on_c, 0, 53, 38
2, 36849, Note_on_c, 0, 44, 48
2, 37077, Note_on_c, 0, 53, 0
2, 37114, Note_on_c, 0, 44, 0
2, 37119, Note_on_c, 0, 46, 47
2, 37125, Note_on_c, 0, 54, 51
2, 37176, Note_on_c, 0, 61, 0
2, 37228, Control_c, 0, 64, 11
2, 37245, Control_c, 0, 64, 23
2, 37265, Control_c, 0, 64, 35
2, 37283, Control_c, 0, 64, 47
2, 37304, Control_c, 0, 64, 55
2, 37323, Control_c, 0, 64, 58
2, 37362, Control_c, 0, 64, 59
2, 37370, Note_on_c, 0, 49, 44
2, 37381, Control_c, 0, 64, 60
2, 37400, Control_c, 0, 64, 61
2, 37414, Note_on_c, 0, 46, 0
2, 37418, Control_c, 0, 64, 62
2, 37550, Note_on_c, 0, 54, 0
2, 37656, Note_on_c, 0, 63, 50
2, 37663, Note_on_c, 0, 47, 44
2, 37667, Control_c, 0, 64, 61
2, 37687, Control_c, 0, 64, 57
2, 37701, Note_on_c, 0, 49, 0
2, 37706, Control_c, 0, 64, 53
2, 37726, Control_c, 0, 64, 46
2, 37743, Control_c, 0, 64, 38
2, 37764, Control_c, 0, 64, 33
2, 37782, Control_c, 0, 64, 34
2, 37802, Control_c, 0, 64, 39
2, 37821, Control_c, 0, 64, 46
2, 37840, Control_c, 0, 64, 54
2, 37858, Control_c, 0, 64, 58
2, 37879, Control_c, 0, 64, 60
2, 37899, Control_c, 0, 64, 61
2, 37899, Note_on_c, 0, 49, 43
2, 37916, Control_c, 0, 64, 62
2, 37936, Control_c, 0, 64, 63
2, 37975, Note_on_c, 0, 47, 0
2, 37996, Control_c, 0, 64, 62
2, 38053, Note_on_c, 0, 65, 0
2, 38091, Control_c, 0, 64, 61
2, 38148, Control_c, 0, 64, 60
2, 38162, Note_on_c, 0, 49, 0
2, 38162, Note_on_c, 0, 63, 0
2, 38179, Note_on_c, 0, 51, 51
2, 38179, Note_on_c, 0, 59, 51
2, 38225, Control_c, 0, 64, 61
2, 38429, Note_on_c, 0, 42, 45
2, 38440, Note_on_c, 0, 63, 60
2, 38448, Note_on_c, 0, 51, 0
2, 38515, Control_c, 0, 64, 60
2, 38532, Control_c, 0, 64, 59
2, 38551, Control_c, 0, 64, 58
2, 38571, Control_c, 0, 64, 55
2, 38589, Control_c, 0, 64, 52
2, 38610, Control_c, 0, 64, 48
2, 38630, Control_c, 0, 64, 43
2, 38646, Control_c, 0, 64, 35
2, 38665, Control_c, 0, 64, 22
2, 38686, Control_c, 0, 64, 0
2, 38698, Note_on_c, 0, 44, 53
2, 38707, Note_on_c, 0, 65, 60
2, 38798, Note_on_c, 0, 42, 0
2, 38962, Note_on_c, 0, 47, 48
2, 38967, Note_on_c, 0, 63, 0
2, 38975, Note_on_c, 0, 66, 64
2, 39028, Note_on_c, 0, 65, 0
2, 39073, Note_on_c, 0, 44, 0
2, 39271, Note_on_c, 0, 38, 45
2, 39271, Note_on_c, 0, 68, 66
2, 39312, Note_on_c, 0, 47, 0
2, 39316, Note_on_c, 0, 59, 0
2, 39324, Note_on_c, 0, 66, 0
2, 39399, Control_c, 0, 64, 10
2, 39415, Control_c, 0, 64, 32
2, 39437, Control_c, 0, 64, 46
2, 39454, Control_c, 0, 64, 58
2, 39472, Control_c, 0, 64, 64
2, 39490, Control_c, 0, 64, 66
2, 39503, Note_on_c, 0, 38, 0
2, 39510, Control_c, 0, 64, 68
2, 39529, Control_c, 0, 64, 72
2, 39543, Note_on_c, 0, 59, 65
2, 39552, Control_c, 0, 64, 78
2, 39568, Control_c, 0, 64, 84
2, 39588, Control_c, 0, 64, 86
2, 39625, Control_c, 0, 64, 85
2, 39654, Note_on_c, 0, 68, 0
2, 39663, Note_on_c, 0, 59, 0
2, 39742, Control_c, 0, 64, 83
2, 39761, Control_c, 0, 64, 80
2, 39779, Control_c, 0, 64, 77
2, 39800, Control_c, 0, 64, 72
2, 39805, Note_on_c, 0, 50, 60
2, 39819, Note_on_c, 0, 58, 65
2, 39824, Control_c, 0, 64, 64
2, 39839, Control_c, 0, 64, 55
2, 39859, Control_c, 0, 64, 41
2, 39876, Control_c, 0, 64, 23
2, 39894, Control_c, 0, 64, 15
2, 39914, Control_c, 0, 64, 20
2, 39934, Control_c, 0, 64, 30
2, 39951, Control_c, 0, 64, 42
2, 39972, Control_c, 0, 64, 53
2, 39991, Control_c, 0, 64, 60
2, 40009, Control_c, 0, 64, 63
2, 40033, Note_on_c, 0, 50, 0
2, 40048, Control_c, 0, 64, 64
2, 40061, Note_on_c, 0, 62, 66
2, 40071, Control_c, 0, 64, 65
2, 40086, Control_c, 0, 64, 66
2, 40105, Control_c, 0, 64, 67
2, 40152, Note_on_c, 0, 58, 0
2, 40220, Control_c, 0, 64, 66
2, 40279, Control_c, 0, 64, 65
2, 40318, Control_c, 0, 64, 64
2, 40322, Note_on_c, 0, 46, 59
2, 40339, Control_c, 0, 64, 63
2, 40339, Note_on_c, 0, 65, 61
2, 40355, Control_c, 0, 64, 61
2, 40373, Control_c, 0, 64, 60
2, 40380, Note_on_c, 0, 62, 0
2, 40394, Control_c, 0, 64, 57
2, 40414, Control_c, 0, 64, 52
2, 40432, Control_c, 0, 64, 41
2, 40451, Control_c, 0, 64, 0
2, 40589, Note_on_c, 0, 68, 69
2, 40630, Note_on_c, 0, 65, 0
2, 40849, Note_on_c, 0, 51, 61
2, 40874, Note_on_c, 0, 66, 69
2, 40931, Note_on_c, 0, 46, 0
2, 41131, Note_on_c, 0, 53, 65
2, 41137, Note_on_c, 0, 58, 70
2, 41182, Note_on_c, 0, 51, 0
2, 41397, Note_on_c, 0, 54, 65
2, 41397, Note_on_c, 0, 63, 74
2, 41447, Note_on_c, 0, 68, 0
2, 41453, Note_on_c, 0, 66, 0
2, 41472, Note_on_c, 0, 53, 0
2, 41553, Note_on_c, 0, 58, 0
2, 41662, Note_on_c, 0, 51, 71
2, 41666, Note_on_c, 0, 66, 78
2, 41720, Note_on_c, 0, 54, 0
2, 41852, Note_on_c, 0, 63, 0
2, 41938, Note_on_c, 0, 53, 71
2, 41940, Note_on_c, 0, 68, 75
2, 41993, Note_on_c, 0, 51, 0
2, 42212, Note_on_c, 0, 56, 80
2, 42218, Note_on_c, 0, 66, 0
2, 42218, Note_on_c, 0, 71, 79
2, 42258, Control_c, 0, 64, 28
2, 42260, Note_on_c, 0, 53, 0
2, 42275, Control_c, 0, 64, 45
2, 42296, Control_c, 0, 64, 59
2, 42313, Control_c, 0, 64, 66
2, 42333, Control_c, 0, 64, 71
2, 42352, Control_c, 0, 64, 80
2, 42362, Note_on_c, 0, 56, 0
2, 42376, Control_c, 0, 64, 92
2, 42391, Control_c, 0, 64, 109
2, 42409, Control_c, 0, 64, 127
2, 42567, Note_on_c, 0, 62, 77
2, 42570, Note_on_c, 0, 59, 73
2, 42570, Note_on_c, 0, 66, 75
2, 42583, Control_c, 0, 64, 120
2, 42592, Note_on_c, 0, 68, 0
2, 42596, Note_on_c, 0, 68, 18
2, 42605, Control_c, 0, 64, 104
2, 42621, Control_c, 0, 64, 93
2, 42642, Control_c, 0, 64, 79
2, 42642, Note_on_c, 0, 71, 0
2, 42660, Control_c, 0, 64, 64
2, 42679, Control_c, 0, 64, 51
2, 42698, Control_c, 0, 64, 33
2, 42716, Control_c, 0, 64, 18
2, 42735, Control_c, 0, 64, 20
2, 42755, Control_c, 0, 64, 25
2, 42775, Control_c, 0, 64, 33
2, 42794, Control_c, 0, 64, 43
2, 42813, Note_on_c, 0, 65, 71
2, 42817, Control_c, 0, 64, 52
2, 42817, Note_on_c, 0, 66, 0
2, 42822, Note_on_c, 0, 68, 0
2, 42833, Control_c, 0, 64, 59
2, 42852, Control_c, 0, 64, 61
2, 42910, Control_c, 0, 64, 62
2, 42917, Note_on_c, 0, 65, 0
2, 42917, Note_on_c, 0, 66, 70
2, 42957, Note_on_c, 0, 68, 38
2, 42996, Note_on_c, 0, 65, 69
2, 42998, Note_on_c, 0, 68, 0
2, 43002, Note_on_c, 0, 66, 0
2, 43043, Control_c, 0, 64, 61
2, 43063, Note_on_c, 0, 66, 66
2, 43072, Note_on_c, 0, 65, 0
2, 43088, Note_on_c, 0, 68, 58
2, 43124, Control_c, 0, 64, 60
2, 43135, Note_on_c, 0, 65, 72
2, 43139, Note_on_c, 0, 68, 0
2, 43144, Control_c, 0, 64, 58
2, 43156, Note_on_c, 0, 58, 62
2, 43161, Control_c, 0, 64, 55
2, 43173, Note_on_c, 0, 59, 0
2, 43178, Control_c, 0, 64, 50
2, 43197, Control_c, 0, 64, 40
2, 43217, Control_c, 0, 64, 21
2, 43236, Note_on_c, 0, 66, 0
2, 43238, Control_c, 0, 64, 0
2, 43743, Note_on_c, 0, 56, 50
2, 43789, Note_on_c, 0, 58, 0
2, 43872, Control_c, 0, 64, 11
2, 43887, Control_c, 0, 64, 27
2, 43909, Control_c, 0, 64, 37
2, 43925, Note_on_c, 0, 62, 0
2, 43927, Control_c, 0, 64, 45
2, 43945, Control_c, 0, 64, 53
2, 43965, Control_c, 0, 64, 59
2, 43984, Control_c, 0, 64, 61
2, 44003, Control_c, 0, 64, 62
2, 44021, Control_c, 0, 64, 65
2, 44042, Control_c, 0, 64, 68
2, 44060, Control_c, 0, 64, 75
2, 44081, Control_c, 0, 64, 86
2, 44101, Control_c, 0, 64, 101
2, 44121, Control_c, 0, 64, 127
2, 44221, Note_on_c, 0, 65, 0
2, 44400, Note_on_c, 0, 63, 42
2, 44411, Note_on_c, 0, 56, 0
2, 44418, Note_on_c, 0, 54, 37
2, 44446, Control_c, 0, 64, 109
2, 44463, Control_c, 0, 64, 94
2, 44483, Control_c, 0, 64, 85
2, 44502, Control_c, 0, 64, 77
2, 44521, Control_c, 0, 64, 69
2, 44542, Control_c, 0, 64, 63
2, 44561, Control_c, 0, 64, 56
2, 44578, Control_c, 0, 64, 49
2, 44598, Control_c, 0, 64, 46
2, 44638, Control_c, 0, 64, 45
2, 44658, Control_c, 0, 64, 43
2, 44674, Control_c, 0, 64, 41
2, 44699, Control_c, 0, 64, 39
2, 44699, Note_on_c, 0, 65, 49
2, 44704, Note_on_c, 0, 54, 0
2, 44704, Note_on_c, 0, 56, 45
2, 44714, Control_c, 0, 64, 36
2, 44733, Control_c, 0, 64, 35
2, 44751, Control_c, 0, 64, 34
2, 44771, Control_c, 0, 64, 31
2, 44790, Control_c, 0, 64, 27
2, 44811, Control_c, 0, 64, 23
2, 44828, Control_c, 0, 64, 20
2, 44885, Control_c, 0, 64, 19
2, 44894, Note_on_c, 0, 63, 0
2, 44907, Control_c, 0, 64, 17
2, 44928, Control_c, 0, 64, 16
2, 44967, Note_on_c, 0, 66, 54
2, 44974, Note_on_c, 0, 58, 41
2, 44999, Note_on_c, 0, 65, 0
2, 45096, Note_on_c, 0, 56, 0
2, 45208, Note_on_c, 0, 58, 0
2, 45243, Note_on_c, 0, 54, 41
2, 45247, Note_on_c, 0, 63, 57
2, 45303, Note_on_c, 0, 66, 0
2, 45513, Note_on_c, 0, 56, 42
2, 45524, Note_on_c, 0, 65, 60
2, 45590, Note_on_c, 0, 54, 0
2, 45634, Control_c, 0, 64, 18
2, 45655, Control_c, 0, 64, 20
2, 45674, Control_c, 0, 64, 22
2, 45692, Control_c, 0, 64, 25
2, 45712, Control_c, 0, 64, 32
2, 45734, Control_c, 0, 64, 41
2, 45751, Control_c, 0, 64, 51
2, 45760, Note_on_c, 0, 56, 0
2, 45767, Note_on_c, 0, 63, 0
2, 45768, Control_c, 0, 64, 58
2, 45784, Note_on_c, 0, 59, 53
2, 45789, Note_on_c, 0, 68, 73
2, 45793, Control_c, 0, 64, 61
2, 45809, Control_c, 0, 64, 62
2, 45830, Control_c, 0, 64, 63
2, 45847, Control_c, 0, 64, 65
2, 45867, Control_c, 0, 64, 67
2, 45885, Control_c, 0, 64, 70
2, 45905, Control_c, 0, 64, 72
2, 45924, Control_c, 0, 64, 74
2, 45981, Control_c, 0, 64, 73
2, 46059, Control_c, 0, 64, 72
2, 46077, Control_c, 0, 64, 71
2, 46081, Note_on_c, 0, 71, 71
2, 46093, Note_on_c, 0, 50, 45
2, 46097, Control_c, 0, 64, 69
2, 46115, Control_c, 0, 64, 66
2, 46136, Control_c, 0, 64, 62
2, 46149, Note_on_c, 0, 59, 0
2, 46153, Control_c, 0, 64, 56
2, 46172, Control_c, 0, 64, 49
2, 46193, Control_c, 0, 64, 41
2, 46193, Note_on_c, 0, 65, 0
2, 46211, Control_c, 0, 64, 36
2, 46224, Note_on_c, 0, 68, 0
2, 46230, Control_c, 0, 64, 37
2, 46250, Control_c, 0, 64, 41
2, 46268, Control_c, 0, 64, 48
2, 46288, Control_c, 0, 64, 56
2, 46308, Control_c, 0, 64, 61
2, 46327, Control_c, 0, 64, 63
2, 46346, Note_on_c, 0, 51, 57
2, 46348, Control_c, 0, 64, 64
2, 46361, Note_on_c, 0, 50, 0
2, 46366, Control_c, 0, 64, 66
2, 46385, Control_c, 0, 64, 67
2, 46402, Control_c, 0, 64, 69
2, 46498, Control_c, 0, 64, 68
2, 46541, Control_c, 0, 64, 66
2, 46559, Control_c, 0, 64, 65
2, 46575, Control_c, 0, 64, 64
2, 46615, Note_on_c, 0, 51, 0
2, 46636, Control_c, 0, 64, 62
2, 46636, Note_on_c, 0, 53, 46
2, 46636, Note_on_c, 0, 70, 67
2, 46655, Control_c, 0, 64, 61
2, 46729, Control_c, 0, 64, 60
2, 46749, Control_c, 0, 64, 59
2, 46759, Note_on_c, 0, 71, 0
2, 46768, Control_c, 0, 64, 57
2, 46829, Control_c, 0, 64, 56
2, 46845, Control_c, 0, 64, 54
2, 46863, Control_c, 0, 64, 50
2, 46884, Control_c, 0, 64, 44
2, 46903, Note_on_c, 0, 46, 41
2, 46904, Control_c, 0, 64, 37
2, 46920, Control_c, 0, 64, 30
2, 46941, Control_c, 0, 64, 26
2, 46962, Control_c, 0, 64, 20
2, 46968, Note_on_c, 0, 53, 0
2, 46979, Control_c, 0, 64, 9
2, 46997, Control_c, 0, 64, 0
2, 47183, Note_on_c, 0, 68, 65
2, 47195, Note_on_c, 0, 50, 45
2, 47241, Note_on_c, 0, 70, 0
2, 47250, Control_c, 0, 64, 20
2, 47267, Control_c, 0, 64, 38
2, 47281, Note_on_c, 0, 46, 0
2, 47286, Control_c, 0, 64, 51
2, 47305, Control_c, 0, 64, 60
2, 47324, Control_c, 0, 64, 63
2, 47345, Control_c, 0, 64, 64
2, 47363, Control_c, 0, 64, 66
2, 47382, Control_c, 0, 64, 71
2, 47402, Control_c, 0, 64, 83
2, 47422, Control_c, 0, 64, 102
2, 47440, Control_c, 0, 64, 127
2, 47445, Note_on_c, 0, 50, 0
2, 47461, Note_on_c, 0, 53, 51
2, 47531, Note_on_c, 0, 53, 0
2, 47635, Control_c, 0, 64, 108
2, 47651, Control_c, 0, 64, 99
2, 47670, Control_c, 0, 64, 93
2, 47690, Control_c, 0, 64, 89
2, 47709, Control_c, 0, 64, 85
2, 47727, Control_c, 0, 64, 80
2, 47740, Note_on_c, 0, 51, 54
2, 47748, Control_c, 0, 64, 75
2, 47757, Note_on_c, 0, 66, 53
2, 47768, Control_c, 0, 64, 71
2, 47780, Note_on_c, 0, 63, 40
2, 47787, Control_c, 0, 64, 67
2, 47804, Control_c, 0, 64, 63
2, 47828, Control_c, 0, 64, 59
2, 47828, Note_on_c, 0, 68, 0
2, 47845, Control_c, 0, 64, 55
2, 47865, Control_c, 0, 64, 50
2, 47882, Control_c, 0, 64, 43
2, 47900, Control_c, 0, 64, 34
2, 47919, Control_c, 0, 64, 22
2, 47939, Control_c, 0, 64, 0
2, 48031, Note_on_c, 0, 61, 47
2, 48115, Note_on_c, 0, 63, 0
2, 48292, Note_on_c, 0, 59, 57
2, 48325, Note_on_c, 0, 61, 0
2, 48568, Note_on_c, 0, 63, 59
2, 48575, Note_on_c, 0, 59, 0
2, 48829, Note_on_c, 0, 61, 54
2, 48897, Note_on_c, 0, 63, 0
2, 48919, Control_c, 0, 64, 17
2, 48938, Control_c, 0, 64, 33
2, 48956, Control_c, 0, 64, 44
2, 48975, Control_c, 0, 64, 56
2, 48995, Control_c, 0, 64, 61
2, 49015, Control_c, 0, 64, 63
2, 49034, Control_c, 0, 64, 64
2, 49052, Control_c, 0, 64, 66
2, 49063, Note_on_c, 0, 51, 0
2, 49072, Control_c, 0, 64, 69
2, 49095, Control_c, 0, 64, 77
2, 49095, Note_on_c, 0, 68, 60
2, 49100, Note_on_c, 0, 58, 56
2, 49100, Note_on_c, 0, 61, 0
2, 49113, Control_c, 0, 64, 91
2, 49130, Control_c, 0, 64, 107
2, 49151, Control_c, 0, 64, 127
2, 49160, Note_on_c, 0, 58, 0
2, 49183, Note_on_c, 0, 66, 0
2, 49380, Control_c, 0, 64, 105
2, 49389, Note_on_c, 0, 49, 52
2, 49396, Note_on_c, 0, 55, 56
2, 49401, Control_c, 0, 64, 84
2, 49401, Note_on_c, 0, 70, 60
2, 49419, Control_c, 0, 64, 69
2, 49438, Control_c, 0, 64, 60
2, 49458, Control_c, 0, 64, 49
2, 49474, Control_c, 0, 64, 42
2, 49494, Control_c, 0, 64, 41
2, 49514, Control_c, 0, 64, 40
2, 49533, Control_c, 0, 64, 39
2, 49552, Control_c, 0, 64, 38
2, 49589, Control_c, 0, 64, 42
2, 49611, Control_c, 0, 64, 50
2, 49628, Control_c, 0, 64, 57
2, 49648, Control_c, 0, 64, 60
2, 49659, Note_on_c, 0, 68, 0
2, 49662, Note_on_c, 0, 71, 60
2, 49688, Note_on_c, 0, 70, 0
2, 49705, Control_c, 0, 64, 61
2, 49743, Control_c, 0, 64, 60
2, 49820, Control_c, 0, 64, 59
2, 49841, Control_c, 0, 64, 58
2, 49861, Control_c, 0, 64, 56
2, 49879, Control_c, 0, 64, 55
2, 49898, Control_c, 0, 64, 54
2, 49917, Control_c, 0, 64, 52
2, 49937, Note_on_c, 0, 56, 56
2, 49942, Control_c, 0, 64, 49
2, 49942, Note_on_c, 0, 73, 65
2, 49955, Control_c, 0, 64, 45
2, 49973, Control_c, 0, 64, 41
2, 49995, Control_c, 0, 64, 36
2, 50006, Note_on_c, 0, 55, 0
2, 50013, Control_c, 0, 64, 32
2, 50013, Note_on_c, 0, 71, 0
2, 50032, Control_c, 0, 64, 28
2, 50049, Control_c, 0, 64, 25
2, 50069, Control_c, 0, 64, 20
2, 50090, Control_c, 0, 64, 15
2, 50110, Control_c, 0, 64, 11
2, 50205, Note_on_c, 0, 70, 60
2, 50310, Note_on_c, 0, 73, 0
2, 50321, Control_c, 0, 64, 13
2, 50338, Control_c, 0, 64, 15
2, 50361, Control_c, 0, 64, 16
2, 50377, Control_c, 0, 64, 17
2, 50415, Control_c, 0, 64, 18
2, 50435, Control_c, 0, 64, 19
2, 50455, Control_c, 0, 64, 21
2, 50473, Control_c, 0, 64, 23
2, 50481, Note_on_c, 0, 58, 53
2, 50481, Note_on_c, 0, 71, 64
2, 50493, Control_c, 0, 64, 25
2, 50531, Note_on_c, 0, 56, 0
2, 50552, Note_on_c, 0, 70, 0
2, 50589, Control_c, 0, 64, 26
2, 50611, Control_c, 0, 64, 27
2, 50647, Control_c, 0, 64, 28
2, 50669, Control_c, 0, 64, 29
2, 50687, Control_c, 0, 64, 30
2, 50703, Control_c, 0, 64, 34
2, 50725, Control_c, 0, 64, 39
2, 50745, Control_c, 0, 64, 45
2, 50747, Note_on_c, 0, 73, 69
2, 50763, Control_c, 0, 64, 50
2, 50781, Control_c, 0, 64, 54
2, 50795, Note_on_c, 0, 71, 0
2, 50802, Control_c, 0, 64, 56
2, 50821, Control_c, 0, 64, 58
2, 50841, Control_c, 0, 64, 60
2, 50857, Control_c, 0, 64, 61
2, 50879, Control_c, 0, 64, 62
2, 51019, Note_on_c, 0, 47, 49
2, 51028, Note_on_c, 0, 75, 65
2, 51032, Control_c, 0, 64, 61
2, 51053, Control_c, 0, 64, 60
2, 51053, Note_on_c, 0, 58, 0
2, 51068, Control_c, 0, 64, 56
2, 51080, Note_on_c, 0, 49, 0
2, 51088, Control_c, 0, 64, 51
2, 51111, Control_c, 0, 64, 44
2, 51111, Note_on_c, 0, 73, 0
2, 51128, Control_c, 0, 64, 38
2, 51145, Control_c, 0, 64, 34
2, 51183, Control_c, 0, 64, 37
2, 51203, Control_c, 0, 64, 42
2, 51222, Control_c, 0, 64, 49
2, 51242, Control_c, 0, 64, 56
2, 51260, Control_c, 0, 64, 59
2, 51270, Note_on_c, 0, 73, 63
2, 51281, Control_c, 0, 64, 60
2, 51300, Control_c, 0, 64, 62
2, 51318, Control_c, 0, 64, 63
2, 51338, Control_c, 0, 64, 64
2, 51358, Control_c, 0, 64, 65
2, 51378, Control_c, 0, 64, 66
2, 51396, Control_c, 0, 64, 67
2, 51473, Control_c, 0, 64, 66
2, 51511, Control_c, 0, 64, 65
2, 51530, Control_c, 0, 64, 64
2, 51536, Note_on_c, 0, 56, 53
2, 51551, Control_c, 0, 64, 61
2, 51555, Note_on_c, 0, 71, 66
2, 51555, Note_on_c, 0, 75, 0
2, 51567, Control_c, 0, 64, 56
2, 51586, Control_c, 0, 64, 50
2, 51607, Control_c, 0, 64, 42
2, 51627, Control_c, 0, 64, 35
2, 51644, Control_c, 0, 64, 33
2, 51683, Control_c, 0, 64, 37
2, 51702, Control_c, 0, 64, 42
2, 51719, Control_c, 0, 64, 49
2, 51743, Control_c, 0, 64, 57
2, 51760, Control_c, 0, 64, 60
2, 51768, Note_on_c, 0, 73, 0
2, 51782, Control_c, 0, 64, 62
2, 51798, Control_c, 0, 64, 64
2, 51802, Note_on_c, 0, 71, 0
2, 51818, Control_c, 0, 64, 67
2, 51818, Note_on_c, 0, 75, 65
2, 51836, Control_c, 0, 64, 71
2, 51855, Control_c, 0, 64, 78
2, 51875, Control_c, 0, 64, 88
2, 51895, Control_c, 0, 64, 96
2, 51915, Control_c, 0, 64, 100
2, 51933, Control_c, 0, 64, 101
2, 52048, Control_c, 0, 64, 99
2, 52068, Control_c, 0, 64, 96
2, 52085, Control_c, 0, 64, 91
2, 52105, Control_c, 0, 64, 82
2, 52114, Note_on_c, 0, 64, 65
2, 52114, Note_on_c, 0, 73, 72
2, 52127, Control_c, 0, 64, 70
2, 52148, Control_c, 0, 64, 57
2, 52161, Control_c, 0, 64, 44
2, 52182, Control_c, 0, 64, 37
2, 52202, Control_c, 0, 64, 42
2, 52221, Control_c, 0, 64, 50
2, 52227, Note_on_c, 0, 56, 0
2, 52240, Control_c, 0, 64, 58
2, 52258, Control_c, 0, 64, 62
2, 52278, Control_c, 0, 64, 64
2, 52297, Control_c, 0, 64, 67
2, 52315, Control_c, 0, 64, 73
2, 52336, Control_c, 0, 64, 85
2, 52357, Control_c, 0, 64, 103
2, 52377, Control_c, 0, 64, 127
2, 52377, Note_on_c, 0, 70, 69
2, 52586, Control_c, 0, 64, 111
2, 52604, Control_c, 0, 64, 100
2, 52623, Control_c, 0, 64, 86
2, 52642, Control_c, 0, 64, 71
2, 52651, Note_on_c, 0, 67, 69
2, 52659, Note_on_c, 0, 46, 48
2, 52663, Control_c, 0, 64, 61
2, 52681, Control_c, 0, 64, 51
2, 52694, Note_on_c, 0, 47, 0
2, 52701, Control_c, 0, 64, 44
2, 52723, Control_c, 0, 64, 46
2, 52736, Note_on_c, 0, 70, 0
2, 52740, Control_c, 0, 64, 48
2, 52745, Note_on_c, 0, 75, 0
2, 52759, Control_c, 0, 64, 52
2, 52779, Control_c, 0, 64, 56
2, 52800, Control_c, 0, 64, 59
2, 52800, Note_on_c, 0, 73, 0
2, 52817, Control_c, 0, 64, 60
2, 52835, Control_c, 0, 64, 61
2, 52876, Control_c, 0, 64, 62
2, 52896, Note_on_c, 0, 64, 0
2, 52900, Note_on_c, 0, 49, 52
2, 52945, Note_on_c, 0, 46, 0
2, 53027, Control_c, 0, 64, 61
2, 53047, Control_c, 0, 64, 60
2, 53065, Control_c, 0, 64, 58
2, 53088, Control_c, 0, 64, 52
2, 53103, Control_c, 0, 64, 31
2, 53123, Control_c, 0, 64, 0
2, 53182, Note_on_c, 0, 68, 74
2, 53186, Note_on_c, 0, 47, 51
2, 53193, Note_on_c, 0, 63, 58
2, 53260, Note_on_c, 0, 67, 0
2, 53275, Note_on_c, 0, 49, 0
2, 53410, Control_c, 0, 64, 34
2, 53430, Control_c, 0, 64, 53
2, 53451, Control_c, 0, 64, 63
2, 53451, Note_on_c, 0, 46, 57
2, 53469, Control_c, 0, 64, 64
2, 53486, Control_c, 0, 64, 65
2, 53508, Note_on_c, 0, 47, 0
2, 53512, Control_c, 0, 64, 69
2, 53517, Note_on_c, 0, 63, 0
2, 53526, Control_c, 0, 64, 80
2, 53545, Control_c, 0, 64, 94
2, 53567, Control_c, 0, 64, 98
2, 53584, Control_c, 0, 64, 97
2, 53602, Control_c, 0, 64, 94
2, 53642, Control_c, 0, 64, 93
2, 53662, Control_c, 0, 64, 91
2, 53679, Control_c, 0, 64, 87
2, 53700, Control_c, 0, 64, 79
2, 53718, Note_on_c, 0, 70, 72
2, 53720, Control_c, 0, 64, 68
2, 53734, Note_on_c, 0, 44, 59
2, 53734, Note_on_c, 0, 61, 53
2, 53741, Control_c, 0, 64, 59
2, 53753, Note_on_c, 0, 46, 0
2, 53758, Control_c, 0, 64, 46
2, 53777, Control_c, 0, 64, 32
2, 53795, Control_c, 0, 64, 26
2, 53816, Control_c, 0, 64, 28
2, 53830, Note_on_c, 0, 68, 0
2, 53835, Control_c, 0, 64, 35
2, 53853, Control_c, 0, 64, 45
2, 53871, Control_c, 0, 64, 55
2, 53891, Control_c, 0, 64, 62
2, 53911, Control_c, 0, 64, 64
2, 53930, Control_c, 0, 64, 66
2, 53948, Control_c, 0, 64, 69
2, 53968, Control_c, 0, 64, 74
2, 53986, Control_c, 0, 64, 82
2, 53995, Note_on_c, 0, 44, 0
2, 54000, Note_on_c, 0, 43, 57
2, 54007, Control_c, 0, 64, 88
2, 54028, Control_c, 0, 64, 90
2, 54028, Note_on_c, 0, 61, 0
2, 54046, Control_c, 0, 64, 91
2, 54064, Control_c, 0, 64, 92
2, 54084, Control_c, 0, 64, 93
2, 54121, Control_c, 0, 64, 92
2, 54141, Control_c, 0, 64, 90
2, 54161, Control_c, 0, 64, 88
2, 54178, Note_on_c, 0, 70, 0
2, 54180, Control_c, 0, 64, 85
2, 54199, Control_c, 0, 64, 83
2, 54219, Control_c, 0, 64, 79
2, 54236, Control_c, 0, 64, 75
2, 54240, Note_on_c, 0, 43, 0
2, 54256, Control_c, 0, 64, 71
2, 54263, Note_on_c, 0, 44, 60
2, 54275, Note_on_c, 0, 71, 65
2, 54280, Control_c, 0, 64, 67
2, 54287, Note_on_c, 0, 59, 63
2, 54295, Control_c, 0, 64, 63
2, 54316, Control_c, 0, 64, 60
2, 54335, Control_c, 0, 64, 58
2, 54353, Control_c, 0, 64, 55
2, 54370, Control_c, 0, 64, 51
2, 54390, Control_c, 0, 64, 43
2, 54408, Control_c, 0, 64, 27
2, 54431, Control_c, 0, 64, 0
2, 54541, Note_on_c, 0, 42, 57
2, 54550, Note_on_c, 0, 63, 68
2, 54621, Note_on_c, 0, 44, 0
2, 54628, Note_on_c, 0, 71, 0
2, 54812, Note_on_c, 0, 40, 52
2, 54818, Note_on_c, 0, 42, 0
2, 54818, Note_on_c, 0, 68, 73
2, 54847, Note_on_c, 0, 59, 0
2, 55046, Note_on_c, 0, 63, 0
2, 55050, Note_on_c, 0, 44, 62
2, 55061, Note_on_c, 0, 70, 74
2, 55155, Note_on_c, 0, 68, 0
2, 55204, Note_on_c, 0, 40, 0
2, 55314, Note_on_c, 0, 42, 62
2, 55336, Note_on_c, 0, 72, 80
2, 55349, Note_on_c, 0, 70, 0
2, 55377, Note_on_c, 0, 44, 0
2, 55540, Control_c, 0, 64, 34
2, 55558, Control_c, 0, 64, 52
2, 55577, Control_c, 0, 64, 62
2, 55588, Note_on_c, 0, 39, 60
2, 55597, Control_c, 0, 64, 63
2, 55597, Note_on_c, 0, 73, 74
2, 55617, Control_c, 0, 64, 64
2, 55622, Note_on_c, 0, 72, 0
2, 55625, Note_on_c, 0, 42, 0
2, 55637, Control_c, 0, 64, 65
2, 55655, Control_c, 0, 64, 67
2, 55673, Control_c, 0, 64, 70
2, 55693, Control_c, 0, 64, 73
2, 55750, Control_c, 0, 64, 72
2, 55770, Control_c, 0, 64, 71
2, 55808, Control_c, 0, 64, 69
2, 55825, Control_c, 0, 64, 68
2, 55845, Control_c, 0, 64, 67
2, 55862, Control_c, 0, 64, 65
2, 55884, Control_c, 0, 64, 64
2, 55891, Note_on_c, 0, 75, 70
2, 55895, Note_on_c, 0, 36, 59
2, 55899, Note_on_c, 0, 66, 62
2, 55904, Control_c, 0, 64, 63
2, 55922, Control_c, 0, 64, 62
2, 55930, Note_on_c, 0, 73, 0
2, 55939, Control_c, 0, 64, 60
2, 55951, Note_on_c, 0, 39, 0
2, 55960, Control_c, 0, 64, 59
2, 55979, Control_c, 0, 64, 58
2, 55998, Control_c, 0, 64, 57
2, 56017, Control_c, 0, 64, 56
2, 56035, Control_c, 0, 64, 54
2, 56055, Control_c, 0, 64, 51
2, 56074, Control_c, 0, 64, 49
2, 56092, Control_c, 0, 64, 47
2, 56111, Control_c, 0, 64, 45
2, 56133, Control_c, 0, 64, 44
2, 56166, Note_on_c, 0, 68, 64
2, 56171, Control_c, 0, 64, 43
2, 56188, Control_c, 0, 64, 42
2, 56207, Control_c, 0, 64, 41
2, 56227, Control_c, 0, 64, 40
2, 56250, Control_c, 0, 64, 39
2, 56266, Note_on_c, 0, 66, 0
2, 56363, Control_c, 0, 64, 38
2, 56400, Control_c, 0, 64, 37
2, 56426, Note_on_c, 0, 37, 61
2, 56428, Note_on_c, 0, 69, 60
2, 56448, Note_on_c, 0, 36, 0
2, 56448, Note_on_c, 0, 68, 0
2, 56660, Note_on_c, 0, 69, 0
2, 56689, Note_on_c, 0, 66, 65
2, 56727, Control_c, 0, 64, 36
2, 56958, Note_on_c, 0, 39, 63
2, 56958, Note_on_c, 0, 73, 68
2, 57009, Note_on_c, 0, 37, 0
2, 57068, Note_on_c, 0, 75, 0
2, 57213, Note_on_c, 0, 72, 73
2, 57253, Note_on_c, 0, 73, 0
2, 57417, Control_c, 0, 64, 35
2, 57491, Note_on_c, 0, 40, 50
2, 57493, Control_c, 0, 64, 34
2, 57501, Note_on_c, 0, 73, 72
2, 57538, Note_on_c, 0, 39, 0
2, 57610, Control_c, 0, 64, 33
2, 57705, Control_c, 0, 64, 32
2, 57738, Note_on_c, 0, 72, 0
2, 57758, Note_on_c, 0, 75, 70
2, 57763, Note_on_c, 0, 42, 60
2, 57776, Note_on_c, 0, 40, 0
2, 57883, Note_on_c, 0, 66, 0
2, 58029, Note_on_c, 0, 44, 60
2, 58029, Note_on_c, 0, 73, 0
2, 58034, Note_on_c, 0, 76, 73
2, 58049, Note_on_c, 0, 42, 0
2, 58099, Note_on_c, 0, 75, 0
2, 58294, Note_on_c, 0, 40, 57
2, 58296, Note_on_c, 0, 73, 77
2, 58364, Note_on_c, 0, 44, 0
2, 58391, Note_on_c, 0, 76, 0
2, 58455, Control_c, 0, 64, 31
2, 58548, Note_on_c, 0, 75, 73
2, 58553, Note_on_c, 0, 42, 59
2, 58607, Note_on_c, 0, 40, 0
2, 58760, Note_on_c, 0, 73, 0
2, 58805, Note_on_c, 0, 78, 79
2, 58807, Note_on_c, 0, 45, 55
2, 58872, Note_on_c, 0, 42, 0
2, 59076, Note_on_c, 0, 81, 77
2, 59080, Note_on_c, 0, 75, 0
2, 59087, Note_on_c, 0, 39, 52
2, 59098, Note_on_c, 0, 72, 63
2, 59113, Note_on_c, 0, 45, 0
2, 59167, Control_c, 0, 64, 30
2, 59209, Note_on_c, 0, 78, 0
2, 59244, Control_c, 0, 64, 29
2, 59302, Control_c, 0, 64, 28
2, 59363, Note_on_c, 0, 40, 54
2, 59420, Note_on_c, 0, 39, 0
2, 59654, Note_on_c, 0, 73, 75
2, 59654, Note_on_c, 0, 80, 75
2, 59658, Note_on_c, 0, 42, 58
2, 59679, Note_on_c, 0, 40, 0
2, 59715, Note_on_c, 0, 81, 0
2, 59721, Note_on_c, 0, 72, 0
2, 59744, Control_c, 0, 64, 27
2, 59764, Control_c, 0, 64, 26
2, 59840, Control_c, 0, 64, 25
2, 59910, Note_on_c, 0, 44, 67
2, 59957, Note_on_c, 0, 42, 0
2, 60183, Note_on_c, 0, 78, 79
2, 60192, Note_on_c, 0, 75, 77
2, 60204, Note_on_c, 0, 46, 63
2, 60214, Note_on_c, 0, 44, 0
2, 60274, Note_on_c, 0, 80, 0
2, 60334, Note_on_c, 0, 73, 0
2, 60463, Note_on_c, 0, 48, 64
2, 60491, Note_on_c, 0, 46, 0
2, 60758, Note_on_c, 0, 76, 82
2, 60770, Note_on_c, 0, 49, 54
2, 60781, Note_on_c, 0, 48, 0
2, 60893, Note_on_c, 0, 75, 0
2, 61019, Note_on_c, 0, 51, 63
2, 61022, Note_on_c, 0, 78, 0
2, 61124, Note_on_c, 0, 49, 0
2, 61288, Note_on_c, 0, 73, 77
2, 61293, Note_on_c, 0, 51, 0
2, 61300, Note_on_c, 0, 52, 56
2, 61550, Note_on_c, 0, 49, 60
2, 61550, Note_on_c, 0, 52, 0
2, 61824, Note_on_c, 0, 71, 75
2, 61839, Note_on_c, 0, 52, 58
2, 61870, Note_on_c, 0, 49, 0
2, 61897, Note_on_c, 0, 73, 0
2, 61991, Control_c, 0, 64, 26
2, 62090, Note_on_c, 0, 56, 64
2, 62097, Note_on_c, 0, 52, 0
2, 62360, Note_on_c, 0, 70, 74
2, 62369, Note_on_c, 0, 54, 55
2, 62373, Note_on_c, 0, 76, 0
2, 62405, Note_on_c, 0, 56, 0
2, 62474, Note_on_c, 0, 71, 0
2, 62547, Control_c, 0, 64, 25
2, 62566, Control_c, 0, 64, 23
2, 62588, Control_c, 0, 64, 18
2, 62604, Control_c, 0, 64, 0
2, 62628, Note_on_c, 0, 56, 63
2, 62680, Note_on_c, 0, 54, 0
2, 62894, Note_on_c, 0, 78, 85
2, 62896, Note_on_c, 0, 58, 51
2, 62936, Note_on_c, 0, 56, 0
2, 63131, Note_on_c, 0, 54, 66
2, 63197, Note_on_c, 0, 58, 0
2, 63412, Note_on_c, 0, 58, 59
2, 63425, Note_on_c, 0, 76, 82
2, 63479, Note_on_c, 0, 54, 0
2, 63496, Note_on_c, 0, 78, 0
2, 63526, Control_c, 0, 64, 9
2, 63548, Control_c, 0, 64, 34
2, 63565, Control_c, 0, 64, 53
2, 63587, Control_c, 0, 64, 62
2, 63604, Control_c, 0, 64, 66
2, 63620, Control_c, 0, 64, 71
2, 63641, Control_c, 0, 64, 86
2, 63658, Note_on_c, 0, 58, 0
2, 63660, Control_c, 0, 64, 127
2, 63688, Note_on_c, 0, 61, 53
2, 63730, Note_on_c, 0, 61, 0
2, 63945, Note_on_c, 0, 75, 72
2, 63947, Note_on_c, 0, 47, 50
2, 63988, Control_c, 0, 64, 77
2, 63988, Note_on_c, 0, 76, 0
2, 64007, Control_c, 0, 64, 63
2, 64024, Control_c, 0, 64, 52
2, 64045, Control_c, 0, 64, 48
2, 64068, Control_c, 0, 64, 53
2, 64082, Control_c, 0, 64, 59
2, 64103, Control_c, 0, 64, 62
2, 64141, Control_c, 0, 64, 63
2, 64161, Control_c, 0, 64, 64
2, 64199, Control_c, 0, 64, 63
2, 64212, Note_on_c, 0, 49, 49
2, 64294, Control_c, 0, 64, 62
2, 64388, Control_c, 0, 64, 61
2, 64410, Control_c, 0, 64, 60
2, 64428, Control_c, 0, 64, 59
2, 64478, Note_on_c, 0, 71, 63
2, 64486, Note_on_c, 0, 51, 51
2, 64490, Control_c, 0, 64, 58
2, 64499, Note_on_c, 0, 47, 0
2, 64519, Note_on_c, 0, 49, 0
2, 64524, Control_c, 0, 64, 56
2, 64544, Control_c, 0, 64, 55
2, 64564, Control_c, 0, 64, 53
2, 64564, Note_on_c, 0, 70, 0
2, 64585, Control_c, 0, 64, 51
2, 64603, Control_c, 0, 64, 50
2, 64621, Control_c, 0, 64, 49
2, 64640, Control_c, 0, 64, 48
2, 64659, Control_c, 0, 64, 47
2, 64677, Control_c, 0, 64, 46
2, 64697, Control_c, 0, 64, 44
2, 64717, Control_c, 0, 64, 40
2, 64739, Control_c, 0, 64, 37
2, 64743, Note_on_c, 0, 47, 50
2, 64755, Control_c, 0, 64, 34
2, 64755, Note_on_c, 0, 51, 0
2, 64775, Control_c, 0, 64, 33
2, 64812, Control_c, 0, 64, 32
2, 64831, Control_c, 0, 64, 30
2, 64851, Control_c, 0, 64, 28
2, 64870, Control_c, 0, 64, 27
2, 64889, Control_c, 0, 64, 26
2, 64907, Control_c, 0, 64, 25
2, 64930, Control_c, 0, 64, 24
2, 64948, Control_c, 0, 64, 22
2, 64966, Control_c, 0, 64, 21
2, 64985, Control_c, 0, 64, 20
2, 65005, Control_c, 0, 64, 19
2, 65029, Control_c, 0, 64, 18
2, 65029, Note_on_c, 0, 70, 65
2, 65035, Note_on_c, 0, 51, 58
2, 65043, Control_c, 0, 64, 17
2, 65062, Control_c, 0, 64, 16
2, 65085, Control_c, 0, 64, 15
2, 65087, Note_on_c, 0, 47, 0
2, 65091, Note_on_c, 0, 71, 0
2, 65102, Control_c, 0, 64, 12
2, 65122, Control_c, 0, 64, 10
2, 65139, Control_c, 0, 64, 9
2, 65158, Control_c, 0, 64, 8
2, 65273, Control_c, 0, 64, 0
2, 65296, Note_on_c, 0, 54, 59
2, 65377, Note_on_c, 0, 51, 0
2, 65566, Note_on_c, 0, 52, 62
2, 65566, Note_on_c, 0, 68, 68
2, 65596, Note_on_c, 0, 54, 0
2, 65630, Note_on_c, 0, 70, 0
2, 65742, Note_on_c, 0, 75, 0
2, 65775, Control_c, 0, 64, 8
2, 65790, Control_c, 0, 64, 10
2, 65811, Note_on_c, 0, 54, 61
2, 65833, Control_c, 0, 64, 11
2, 65850, Control_c, 0, 64, 13
2, 65854, Note_on_c, 0, 52, 0
2, 65871, Control_c, 0, 64, 15
2, 65887, Control_c, 0, 64, 18
2, 65905, Control_c, 0, 64, 20
2, 65926, Control_c, 0, 64, 22
2, 66102, Note_on_c, 0, 56, 50
2, 66102, Note_on_c, 0, 76, 70
2, 66137, Control_c, 0, 64, 21
2, 66155, Control_c, 0, 64, 20
2, 66176, Control_c, 0, 64, 19
2, 66181, Note_on_c, 0, 54, 0
2, 66195, Control_c, 0, 64, 18
2, 66212, Control_c, 0, 64, 17
2, 66233, Control_c, 0, 64, 16
2, 66253, Control_c, 0, 64, 15
2, 66272, Control_c, 0, 64, 13
2, 66293, Control_c, 0, 64, 10
2, 66313, Control_c, 0, 64, 0
2, 66362, Note_on_c, 0, 52, 56
2, 66447, Note_on_c, 0, 56, 0
2, 66621, Note_on_c, 0, 75, 69
2, 66625, Note_on_c, 0, 56, 48
2, 66663, Note_on_c, 0, 52, 0
2, 66675, Note_on_c, 0, 76, 0
2, 66736, Control_c, 0, 64, 15
2, 66752, Control_c, 0, 64, 28
2, 66774, Control_c, 0, 64, 41
2, 66789, Control_c, 0, 64, 52
2, 66809, Control_c, 0, 64, 61
2, 66829, Control_c, 0, 64, 64
2, 66847, Control_c, 0, 64, 66
2, 66866, Control_c, 0, 64, 71
2, 66887, Control_c, 0, 64, 81
2, 66908, Control_c, 0, 64, 99
2, 66914, Note_on_c, 0, 59, 54
2, 66918, Note_on_c, 0, 56, 0
2, 66926, Control_c, 0, 64, 127
2, 67028, Note_on_c, 0, 59, 0
2, 67186, Note_on_c, 0, 46, 45
2, 67190, Note_on_c, 0, 73, 64
2, 67215, Control_c, 0, 64, 122
2, 67235, Control_c, 0, 64, 89
2, 67235, Note_on_c, 0, 75, 0
2, 67255, Control_c, 0, 64, 70
2, 67275, Control_c, 0, 64, 59
2, 67293, Control_c, 0, 64, 46
2, 67311, Control_c, 0, 64, 42
2, 67331, Control_c, 0, 64, 46
2, 67349, Control_c, 0, 64, 53
2, 67368, Control_c, 0, 64, 58
2, 67390, Control_c, 0, 64, 60
2, 67409, Control_c, 0, 64, 62
2, 67425, Control_c, 0, 64, 64
2, 67439, Note_on_c, 0, 47, 46
2, 67446, Control_c, 0, 64, 66
2, 67468, Control_c, 0, 64, 68
2, 67510, Note_on_c, 0, 46, 0
2, 67541, Control_c, 0, 64, 67
2, 67618, Control_c, 0, 64, 66
2, 67656, Control_c, 0, 64, 65
2, 67696, Control_c, 0, 64, 64
2, 67719, Control_c, 0, 64, 63
2, 67719, Note_on_c, 0, 49, 47
2, 67727, Note_on_c, 0, 70, 53
2, 67753, Control_c, 0, 64, 62
2, 67759, Note_on_c, 0, 47, 0
2, 67766, Note_on_c, 0, 68, 0
2, 67793, Control_c, 0, 64, 61
2, 67810, Control_c, 0, 64, 59
2, 67829, Control_c, 0, 64, 57
2, 67849, Control_c, 0, 64, 56
2, 67886, Control_c, 0, 64, 55
2, 67905, Control_c, 0, 64, 54
2, 67927, Control_c, 0, 64, 52
2, 67937, Note_on_c, 0, 49, 0
2, 67944, Control_c, 0, 64, 49
2, 67963, Control_c, 0, 64, 47
2, 67971, Note_on_c, 0, 46, 47
2, 67987, Control_c, 0, 64, 45
2, 68041, Control_c, 0, 64, 44
2, 68062, Control_c, 0, 64, 43
2, 68080, Control_c, 0, 64, 41
2, 68118, Control_c, 0, 64, 40
2, 68194, Control_c, 0, 64, 39
2, 68234, Control_c, 0, 64, 38
2, 68259, Note_on_c, 0, 49, 45
2, 68259, Note_on_c, 0, 68, 57
2, 68293, Note_on_c, 0, 70, 0
2, 68321, Note_on_c, 0, 46, 0
2, 68348, Control_c, 0, 64, 39
2, 68370, Control_c, 0, 64, 42
2, 68387, Control_c, 0, 64, 49
2, 68405, Control_c, 0, 64, 55
2, 68427, Control_c, 0, 64, 57
2, 68446, Control_c, 0, 64, 59
2, 68464, Control_c, 0, 64, 60
2, 68483, Control_c, 0, 64, 62
2, 68503, Control_c, 0, 64, 63
2, 68533, Note_on_c, 0, 52, 46
2, 68562, Control_c, 0, 64, 62
2, 68562, Note_on_c, 0, 49, 0
2, 68580, Control_c, 0, 64, 61
2, 68636, Control_c, 0, 64, 60
2, 68656, Control_c, 0, 64, 59
2, 68674, Control_c, 0, 64, 57
2, 68693, Control_c, 0, 64, 56
2, 68751, Control_c, 0, 64, 55
2, 68785, Note_on_c, 0, 52, 0
2, 68789, Control_c, 0, 64, 54
2, 68800, Note_on_c, 0, 51, 54
2, 68809, Control_c, 0, 64, 53
2, 68814, Note_on_c, 0, 67, 51
2, 68830, Control_c, 0, 64, 52
2, 68849, Control_c, 0, 64, 51
2, 68867, Control_c, 0, 64, 49
2, 68884, Control_c, 0, 64, 47
2, 68906, Control_c, 0, 64, 45
2, 68924, Control_c, 0, 64, 41
2, 68945, Control_c, 0, 64, 38
2, 68945, Note_on_c, 0, 68, 0
2, 68961, Control_c, 0, 64, 34
2, 68982, Control_c, 0, 64, 28
2, 69002, Control_c, 0, 64, 17
2, 69019, Control_c, 0, 64, 0
2, 69070, Note_on_c, 0, 53, 48
2, 69138, Note_on_c, 0, 51, 0
2, 69364, Note_on_c, 0, 53, 0
2, 69369, Note_on_c, 0, 75, 68
2, 69379, Note_on_c, 0, 55, 46
2, 69469, Note_on_c, 0, 73, 0
2, 69616, Note_on_c, 0, 55, 0
2, 69622, Note_on_c, 0, 51, 52
2, 69906, Note_on_c, 0, 73, 65
2, 69913, Note_on_c, 0, 55, 43
2, 69924, Note_on_c, 0, 51, 0
2, 69982, Control_c, 0, 64, 9
2, 69990, Note_on_c, 0, 75, 0
2, 70000, Control_c, 0, 64, 31
2, 70018, Control_c, 0, 64, 44
2, 70041, Control_c, 0, 64, 58
2, 70056, Control_c, 0, 64, 63
2, 70072, Note_on_c, 0, 67, 0
2, 70077, Control_c, 0, 64, 65
2, 70096, Control_c, 0, 64, 66
2, 70113, Control_c, 0, 64, 68
2, 70133, Control_c, 0, 64, 73
2, 70153, Control_c, 0, 64, 80
2, 70165, Note_on_c, 0, 55, 0
2, 70176, Control_c, 0, 64, 87
2, 70183, Note_on_c, 0, 58, 46
2, 70193, Control_c, 0, 64, 89
2, 70230, Control_c, 0, 64, 88
2, 70345, Control_c, 0, 64, 86
2, 70363, Control_c, 0, 64, 85
2, 70385, Control_c, 0, 64, 84
2, 70403, Control_c, 0, 64, 83
2, 70423, Control_c, 0, 64, 82
2, 70441, Control_c, 0, 64, 80
2, 70459, Control_c, 0, 64, 78
2, 70464, Note_on_c, 0, 71, 56
2, 70473, Note_on_c, 0, 56, 47
2, 70476, Note_on_c, 0, 68, 48
2, 70481, Control_c, 0, 64, 75
2, 70499, Control_c, 0, 64, 71
2, 70517, Control_c, 0, 64, 66
2, 70539, Control_c, 0, 64, 61
2, 70542, Note_on_c, 0, 58, 0
2, 70557, Control_c, 0, 64, 53
2, 70576, Control_c, 0, 64, 44
2, 70595, Control_c, 0, 64, 39
2, 70653, Control_c, 0, 64, 41
2, 70672, Control_c, 0, 64, 44
2, 70692, Control_c, 0, 64, 48
2, 70709, Control_c, 0, 64, 53
2, 70720, Note_on_c, 0, 58, 45
2, 70725, Note_on_c, 0, 70, 58
2, 70729, Control_c, 0, 64, 57
2, 70740, Note_on_c, 0, 56, 0
2, 70744, Note_on_c, 0, 71, 0
2, 70749, Control_c, 0, 64, 58
2, 70767, Control_c, 0, 64, 59
2, 70772, Note_on_c, 0, 68, 0
2, 70786, Control_c, 0, 64, 60
2, 70806, Control_c, 0, 64, 61
2, 70825, Control_c, 0, 64, 62
2, 70877, Note_on_c, 0, 73, 0
2, 70980, Control_c, 0, 64, 61
2, 70997, Note_on_c, 0, 59, 47
2, 70997, Note_on_c, 0, 68, 65
2, 71011, Note_on_c, 0, 58, 0
2, 71022, Note_on_c, 0, 70, 0
2, 71075, Control_c, 0, 64, 60
2, 71170, Control_c, 0, 64, 59
2, 71240, Note_on_c, 0, 51, 47
2, 71248, Control_c, 0, 64, 58
2, 71250, Note_on_c, 0, 71, 64
2, 71286, Control_c, 0, 64, 56
2, 71304, Control_c, 0, 64, 55
2, 71401, Control_c, 0, 64, 54
2, 71439, Control_c, 0, 64, 53
2, 71453, Note_on_c, 0, 68, 0
2, 71504, Note_on_c, 0, 52, 48
2, 71504, Note_on_c, 0, 73, 66
2, 71518, Note_on_c, 0, 51, 0
2, 71547, Note_on_c, 0, 59, 0
2, 71557, Note_on_c, 0, 71, 0
2, 71651, Control_c, 0, 64, 52
2, 71752, Note_on_c, 0, 76, 65
2, 71760, Note_on_c, 0, 56, 48
2, 71780, Note_on_c, 0, 73, 0
2, 71804, Control_c, 0, 64, 51
2, 71871, Note_on_c, 0, 52, 0
2, 72019, Note_on_c, 0, 54, 49
2, 72033, Note_on_c, 0, 70, 63
2, 72063, Note_on_c, 0, 56, 0
2, 72111, Control_c, 0, 64, 52
2, 72121, Note_on_c, 0, 76, 0
2, 72188, Control_c, 0, 64, 53
2, 72227, Control_c, 0, 64, 54
2, 72247, Control_c, 0, 64, 55
2, 72279, Note_on_c, 0, 56, 46
2, 72284, Control_c, 0, 64, 56
2, 72290, Note_on_c, 0, 68, 65
2, 72323, Control_c, 0, 64, 57
2, 72341, Control_c, 0, 64, 58
2, 72352, Note_on_c, 0, 70, 0
2, 72359, Note_on_c, 0, 54, 0
2, 72551, Control_c, 0, 64, 57
2, 72563, Note_on_c, 0, 58, 49
2, 72563, Note_on_c, 0, 66, 63
2, 72586, Note_on_c, 0, 56, 0
2, 72591, Note_on_c, 0, 68, 0
2, 72649, Control_c, 0, 64, 56
2, 72705, Control_c, 0, 64, 55
2, 72804, Control_c, 0, 64, 54
2, 72819, Note_on_c, 0, 49, 45
2, 72828, Note_on_c, 0, 70, 61
2, 72879, Control_c, 0, 64, 53
2, 72958, Control_c, 0, 64, 52
2, 73069, Note_on_c, 0, 51, 54
2, 73074, Note_on_c, 0, 49, 0
2, 73078, Note_on_c, 0, 71, 68
2, 73111, Note_on_c, 0, 58, 0
2, 73166, Control_c, 0, 64, 53
2, 73254, Note_on_c, 0, 70, 0
2, 73264, Control_c, 0, 64, 52
2, 73327, Note_on_c, 0, 54, 53
2, 73336, Note_on_c, 0, 75, 66
2, 73362, Note_on_c, 0, 66, 0
2, 73366, Note_on_c, 0, 51, 0
2, 73398, Control_c, 0, 64, 51
2, 73474, Control_c, 0, 64, 50
2, 73485, Note_on_c, 0, 71, 0
2, 73555, Control_c, 0, 64, 49
2, 73580, Note_on_c, 0, 68, 64
2, 73590, Note_on_c, 0, 52, 56
2, 73607, Note_on_c, 0, 54, 0
2, 73612, Control_c, 0, 64, 48
2, 73636, Note_on_c, 0, 75, 0
2, 73762, Control_c, 0, 64, 49
2, 73821, Control_c, 0, 64, 50
2, 73834, Note_on_c, 0, 75, 68
2, 73838, Note_on_c, 0, 54, 54
2, 73842, Control_c, 0, 64, 51
2, 73842, Note_on_c, 0, 52, 0
2, 73879, Control_c, 0, 64, 52
2, 74086, Note_on_c, 0, 73, 72
2, 74090, Note_on_c, 0, 56, 53
2, 74121, Note_on_c, 0, 54, 0
2, 74138, Note_on_c, 0, 75, 0
2, 74149, Control_c, 0, 64, 51
2, 74346, Note_on_c, 0, 47, 48
2, 74346, Note_on_c, 0, 71, 68
2, 74357, Control_c, 0, 64, 50
2, 74457, Note_on_c, 0, 68, 0
2, 74473, Control_c, 0, 64, 49
2, 74493, Control_c, 0, 64, 48
2, 74512, Control_c, 0, 64, 47
2, 74514, Note_on_c, 0, 56, 0
2, 74551, Control_c, 0, 64, 46
2, 74568, Control_c, 0, 64, 44
2, 74589, Control_c, 0, 64, 41
2, 74605, Note_on_c, 0, 49, 54
2, 74605, Note_on_c, 0, 70, 69
2, 74610, Control_c, 0, 64, 37
2, 74616, Note_on_c, 0, 47, 0
2, 74629, Control_c, 0, 64, 35
2, 74644, Control_c, 0, 64, 34
2, 74664, Note_on_c, 0, 71, 0
2, 74718, Control_c, 0, 64, 33
2, 74778, Control_c, 0, 64, 35
2, 74795, Control_c, 0, 64, 39
2, 74817, Control_c, 0, 64, 47
2, 74834, Control_c, 0, 64, 55
2, 74855, Note_on_c, 0, 52, 56
2, 74859, Control_c, 0, 64, 61
2, 74859, Note_on_c, 0, 68, 70
2, 74871, Control_c, 0, 64, 63
2, 74891, Control_c, 0, 64, 65
2, 74913, Control_c, 0, 64, 67
2, 74913, Note_on_c, 0, 49, 0
2, 74930, Control_c, 0, 64, 72
2, 74930, Note_on_c, 0, 70, 0
2, 74950, Control_c, 0, 64, 78
2, 74969, Control_c, 0, 64, 83
2, 74990, Control_c, 0, 64, 84
2, 75026, Control_c, 0, 64, 83
2, 75047, Control_c, 0, 64, 82
2, 75084, Control_c, 0, 64, 80
2, 75096, Note_on_c, 0, 67, 68
2, 75105, Control_c, 0, 64, 78
2, 75105, Note_on_c, 0, 52, 0
2, 75116, Note_on_c, 0, 51, 55
2, 75123, Control_c, 0, 64, 74
2, 75129, Note_on_c, 0, 68, 0
2, 75144, Control_c, 0, 64, 69
2, 75160, Control_c, 0, 64, 66
2, 75180, Control_c, 0, 64, 63
2, 75199, Control_c, 0, 64, 61
2, 75221, Control_c, 0, 64, 59
2, 75221, Note_on_c, 0, 73, 0
2, 75237, Control_c, 0, 64, 56
2, 75257, Control_c, 0, 64, 51
2, 75276, Control_c, 0, 64, 41
2, 75296, Control_c, 0, 64, 31
2, 75315, Control_c, 0, 64, 19
2, 75334, Control_c, 0, 64, 0
2, 75356, Note_on_c, 0, 53, 55
2, 75363, Note_on_c, 0, 51, 0
2, 75363, Note_on_c, 0, 68, 70
2, 75582, Note_on_c, 0, 67, 0
2, 75632, Note_on_c, 0, 70, 65
2, 75645, Note_on_c, 0, 55, 51
2, 75676, Note_on_c, 0, 53, 0
2, 75726, Note_on_c, 0, 68, 0
2, 75893, Note_on_c, 0, 46, 53
2, 75898, Note_on_c, 0, 67, 69
2, 75963, Note_on_c, 0, 70, 0
2, 76178, Note_on_c, 0, 47, 56
2, 76178, Note_on_c, 0, 68, 72
2, 76196, Note_on_c, 0, 55, 0
2, 76213, Note_on_c, 0, 46, 0
2, 76432, Note_on_c, 0, 51, 57
2, 76443, Note_on_c, 0, 71, 74
2, 76479, Note_on_c, 0, 47, 0
2, 76503, Note_on_c, 0, 68, 0
2, 76537, Note_on_c, 0, 67, 0
2, 76724, Note_on_c, 0, 76, 74
2, 76735, Note_on_c, 0, 49, 49
2, 76744, Note_on_c, 0, 68, 60
2, 76749, Note_on_c, 0, 51, 0
2, 76751, Note_on_c, 0, 71, 0
2, 76966, Control_c, 0, 64, 28
2, 76983, Control_c, 0, 64, 45
2, 76994, Note_on_c, 0, 51, 67
2, 76999, Note_on_c, 0, 76, 0
2, 77003, Control_c, 0, 64, 57
2, 77023, Note_on_c, 0, 68, 0
2, 77027, Control_c, 0, 64, 63
2, 77042, Control_c, 0, 64, 65
2, 77061, Control_c, 0, 64, 68
2, 77061, Note_on_c, 0, 49, 0
2, 77080, Control_c, 0, 64, 75
2, 77102, Control_c, 0, 64, 87
2, 77119, Control_c, 0, 64, 109
2, 77141, Control_c, 0, 64, 127
2, 77263, Note_on_c, 0, 76, 77
2, 77275, Control_c, 0, 64, 103
2, 77275, Note_on_c, 0, 52, 59
2, 77278, Note_on_c, 0, 68, 72
2, 77295, Control_c, 0, 64, 81
2, 77312, Control_c, 0, 64, 65
2, 77329, Note_on_c, 0, 51, 0
2, 77332, Control_c, 0, 64, 49
2, 77349, Control_c, 0, 64, 28
2, 77368, Control_c, 0, 64, 14
2, 77388, Control_c, 0, 64, 15
2, 77408, Control_c, 0, 64, 21
2, 77427, Control_c, 0, 64, 31
2, 77445, Control_c, 0, 64, 42
2, 77465, Control_c, 0, 64, 55
2, 77487, Control_c, 0, 64, 61
2, 77502, Control_c, 0, 64, 63
2, 77510, Note_on_c, 0, 68, 0
2, 77524, Control_c, 0, 64, 65
2, 77529, Note_on_c, 0, 47, 62
2, 77542, Control_c, 0, 64, 68
2, 77554, Note_on_c, 0, 76, 0
2, 77562, Note_on_c, 0, 52, 0
2, 77564, Control_c, 0, 64, 74
2, 77580, Control_c, 0, 64, 84
2, 77600, Control_c, 0, 64, 98
2, 77618, Control_c, 0, 64, 106
2, 77754, Control_c, 0, 64, 101
2, 77772, Control_c, 0, 64, 93
2, 77790, Note_on_c, 0, 49, 63
2, 77794, Control_c, 0, 64, 81
2, 77794, Note_on_c, 0, 76, 83
2, 77802, Note_on_c, 0, 68, 75
2, 77810, Control_c, 0, 64, 69
2, 77831, Control_c, 0, 64, 58
2, 77831, Note_on_c, 0, 47, 0
2, 77851, Control_c, 0, 64, 42
2, 77867, Control_c, 0, 64, 14
2, 77886, Control_c, 0, 64, 0
2, 77944, Control_c, 0, 64, 15
2, 77963, Control_c, 0, 64, 28
2, 77982, Control_c, 0, 64, 40
2, 78002, Control_c, 0, 64, 51
2, 78021, Control_c, 0, 64, 60
2, 78042, Control_c, 0, 64, 64
2, 78061, Control_c, 0, 64, 67
2, 78078, Note_on_c, 0, 52, 73
2, 78078, Note_on_c, 0, 68, 0
2, 78079, Control_c, 0, 64, 72
2, 78083, Note_on_c, 0, 76, 0
2, 78100, Control_c, 0, 64, 81
2, 78118, Control_c, 0, 64, 94
2, 78127, Note_on_c, 0, 49, 0
2, 78138, Control_c, 0, 64, 116
2, 78155, Control_c, 0, 64, 127
2, 78351, Control_c, 0, 64, 97
2, 78351, Note_on_c, 0, 76, 83
2, 78356, Note_on_c, 0, 45, 66
2, 78361, Note_on_c, 0, 73, 75
2, 78367, Control_c, 0, 64, 74
2, 78382, Note_on_c, 0, 52, 0
2, 78387, Control_c, 0, 64, 60
2, 78405, Control_c, 0, 64, 40
2, 78427, Control_c, 0, 64, 0
2, 78483, Control_c, 0, 64, 25
2, 78502, Control_c, 0, 64, 40
2, 78524, Control_c, 0, 64, 54
2, 78541, Control_c, 0, 64, 63
2, 78561, Control_c, 0, 64, 66
2, 78578, Control_c, 0, 64, 73
2, 78598, Control_c, 0, 64, 82
2, 78607, Note_on_c, 0, 49, 73
2, 78618, Control_c, 0, 64, 100
2, 78618, Note_on_c, 0, 76, 0
2, 78637, Control_c, 0, 64, 127
2, 78642, Note_on_c, 0, 73, 0
2, 78803, Note_on_c, 0, 45, 0
2, 78866, Note_on_c, 0, 76, 89
2, 78868, Control_c, 0, 64, 90
2, 78868, Note_on_c, 0, 49, 0
2, 78874, Note_on_c, 0, 52, 74
2, 78874, Note_on_c, 0, 73, 79
2, 78888, Control_c, 0, 64, 69
2, 78906, Control_c, 0, 64, 58
2, 78924, Control_c, 0, 64, 54
2, 78943, Control_c, 0, 64, 59
2, 78962, Control_c, 0, 64, 64
2, 78983, Control_c, 0, 64, 70
2, 79001, Control_c, 0, 64, 83
2, 79020, Control_c, 0, 64, 127
2, 79120, Note_on_c, 0, 44, 81
2, 79120, Note_on_c, 0, 76, 0
2, 79143, Note_on_c, 0, 73, 0
2, 79182, Note_on_c, 0, 52, 0
2, 79347, Control_c, 0, 64, 113
2, 79365, Control_c, 0, 64, 107
2, 79384, Control_c, 0, 64, 101
2, 79403, Control_c, 0, 64, 91
2, 79423, Control_c, 0, 64, 78
2, 79427, Note_on_c, 0, 49, 72
2, 79440, Note_on_c, 0, 76, 87
2, 79444, Control_c, 0, 64, 66
2, 79444, Note_on_c, 0, 73, 78
2, 79461, Control_c, 0, 64, 54
2, 79479, Control_c, 0, 64, 33
2, 79501, Control_c, 0, 64, 0
2, 79731, Control_c, 0, 64, 24
2, 79750, Control_c, 0, 64, 46
2, 79759, Note_on_c, 0, 52, 82
2, 79771, Control_c, 0, 64, 60
2, 79791, Control_c, 0, 64, 65
2, 79799, Note_on_c, 0, 76, 0
2, 79810, Control_c, 0, 64, 68
2, 79825, Control_c, 0, 64, 72
2, 79845, Control_c, 0, 64, 80
2, 79855, Note_on_c, 0, 73, 0
2, 79870, Control_c, 0, 64, 95
2, 79883, Control_c, 0, 64, 127
2, 79888, Note_on_c, 0, 49, 0
2, 79904, Note_on_c, 0, 44, 0
2, 80133, Control_c, 0, 64, 115
2, 80154, Control_c, 0, 64, 104
2, 80171, Control_c, 0, 64, 96
2, 80192, Control_c, 0, 64, 88
2, 80201, Note_on_c, 0, 43, 70
2, 80205, Note_on_c, 0, 76, 82
2, 80211, Control_c, 0, 64, 80
2, 80216, Note_on_c, 0, 73, 73
2, 80230, Control_c, 0, 64, 74
2, 80248, Control_c, 0, 64, 68
2, 80268, Control_c, 0, 64, 62
2, 80288, Control_c, 0, 64, 58
2, 80308, Control_c, 0, 64, 54
2, 80326, Control_c, 0, 64, 52
2, 80341, Note_on_c, 0, 52, 0
2, 80346, Control_c, 0, 64, 49
2, 80364, Control_c, 0, 64, 40
2, 80383, Control_c, 0, 64, 25
2, 80403, Control_c, 0, 64, 0
2, 80590, Note_on_c, 0, 71, 65
2, 80662, Note_on_c, 0, 73, 0
2, 80868, Note_on_c, 0, 70, 66
2, 81027, Note_on_c, 0, 71, 0
2, 81136, Note_on_c, 0, 73, 70
2, 81195, Note_on_c, 0, 70, 0
2, 81401, Note_on_c, 0, 71, 60
2, 81554, Control_c, 0, 64, 19
2, 81572, Control_c, 0, 64, 40
2, 81592, Control_c, 0, 64, 56
2, 81615, Control_c, 0, 64, 62
2, 81630, Control_c, 0, 64, 64
2, 81649, Control_c, 0, 64, 66
2, 81656, Note_on_c, 0, 68, 62
2, 81670, Control_c, 0, 64, 71
2, 81681, Note_on_c, 0, 71, 0
2, 81690, Control_c, 0, 64, 79
2, 81708, Control_c, 0, 64, 90
2, 81727, Control_c, 0, 64, 99
2, 81746, Control_c, 0, 64, 101
2, 81750, Note_on_c, 0, 68, 0
2, 81755, Note_on_c, 0, 73, 0
2, 81824, Control_c, 0, 64, 102
2, 81860, Control_c, 0, 64, 100
2, 81881, Control_c, 0, 64, 94
2, 81900, Control_c, 0, 64, 88
2, 81918, Control_c, 0, 64, 82
2, 81940, Control_c, 0, 64, 77
2, 81949, Note_on_c, 0, 70, 66
2, 81960, Control_c, 0, 64, 71
2, 81980, Control_c, 0, 64, 65
2, 81995, Control_c, 0, 64, 60
2, 82014, Control_c, 0, 64, 54
2, 82035, Control_c, 0, 64, 47
2, 82054, Control_c, 0, 64, 36
2, 82074, Control_c, 0, 64, 0
2, 82213, Note_on_c, 0, 75, 71
2, 82359, Note_on_c, 0, 76, 0
2, 82419, Control_c, 0, 64, 40
2, 82436, Control_c, 0, 64, 57
2, 82457, Control_c, 0, 64, 63
2, 82477, Control_c, 0, 64, 64
2, 82496, Control_c, 0, 64, 65
2, 82500, Note_on_c, 0, 73, 76
2, 82514, Control_c, 0, 64, 69
2, 82533, Control_c, 0, 64, 78
2, 82538, Note_on_c, 0, 43, 0
2, 82553, Note_on_c, 0, 75, 0
2, 82557, Control_c, 0, 64, 91
2, 82572, Control_c, 0, 64, 106
2, 82592, Control_c, 0, 64, 127
2, 82780, Note_on_c, 0, 55, 45
2, 82790, Note_on_c, 0, 82, 78
2, 82802, Control_c, 0, 64, 118
2, 82822, Control_c, 0, 64, 93
2, 82842, Control_c, 0, 64, 71
2, 82860, Control_c, 0, 64, 59
2, 82878, Control_c, 0, 64, 42
2, 82887, Note_on_c, 0, 73, 0
2, 82900, Control_c, 0, 64, 13
2, 82917, Control_c, 0, 64, 0
2, 83063, Note_on_c, 0, 76, 76
2, 83067, Note_on_c, 0, 56, 49
2, 83070, Note_on_c, 0, 55, 0
2, 83164, Note_on_c, 0, 82, 0
2, 83188, Control_c, 0, 64, 32
2, 83206, Control_c, 0, 64, 49
2, 83227, Control_c, 0, 64, 61
2, 83243, Control_c, 0, 64, 66
2, 83262, Control_c, 0, 64, 70
2, 83283, Control_c, 0, 64, 76
2, 83301, Control_c, 0, 64, 87
2, 83322, Note_on_c, 0, 56, 0
2, 83326, Control_c, 0, 64, 106
2, 83340, Control_c, 0, 64, 127
2, 83340, Note_on_c, 0, 73, 80
2, 83349, Note_on_c, 0, 58, 55
2, 83366, Note_on_c, 0, 76, 0
2, 83572, Note_on_c, 0, 58, 0
2, 83653, Note_on_c, 0, 75, 71
2, 83660, Note_on_c, 0, 47, 47
2, 83666, Control_c, 0, 64, 112
2, 83686, Control_c, 0, 64, 90
2, 83706, Control_c, 0, 64, 72
2, 83711, Note_on_c, 0, 73, 0
2, 83724, Control_c, 0, 64, 59
2, 83742, Control_c, 0, 64, 40
2, 83762, Control_c, 0, 64, 0
2, 83916, Control_c, 0, 64, 25
2, 83920, Note_on_c, 0, 73, 72
2, 83937, Control_c, 0, 64, 44
2, 83954, Control_c, 0, 64, 56
2, 83963, Note_on_c, 0, 70, 0
2, 83972, Control_c, 0, 64, 61
2, 83992, Control_c, 0, 64, 62
2, 84012, Control_c, 0, 64, 63
2, 84030, Control_c, 0, 64, 65
2, 84050, Control_c, 0, 64, 68
2, 84070, Control_c, 0, 64, 72
2, 84089, Control_c, 0, 64, 76
2, 84126, Control_c, 0, 64, 75
2, 84147, Control_c, 0, 64, 74
2, 84174, Note_on_c, 0, 71, 67
2, 84185, Note_on_c, 0, 68, 55
2, 84188, Control_c, 0, 64, 73
2, 84201, Note_on_c, 0, 75, 0
2, 84206, Control_c, 0, 64, 70
2, 84226, Control_c, 0, 64, 67
2, 84245, Control_c, 0, 64, 64
2, 84264, Control_c, 0, 64, 61
2, 84283, Control_c, 0, 64, 59
2, 84302, Control_c, 0, 64, 54
2, 84322, Control_c, 0, 64, 46
2, 84340, Control_c, 0, 64, 32
2, 84349, Note_on_c, 0, 73, 0
2, 84360, Control_c, 0, 64, 10
2, 84380, Control_c, 0, 64, 0
2, 84400, Control_c, 0, 64, 11
2, 84418, Control_c, 0, 64, 23
2, 84440, Control_c, 0, 64, 34
2, 84456, Control_c, 0, 64, 45
2, 84465, Note_on_c, 0, 75, 64
2, 84475, Note_on_c, 0, 71, 0
2, 84479, Control_c, 0, 64, 55
2, 84495, Control_c, 0, 64, 61
2, 84552, Control_c, 0, 64, 62
2, 84687, Control_c, 0, 64, 61
2, 84707, Control_c, 0, 64, 60
2, 84725, Control_c, 0, 64, 58
2, 84729, Note_on_c, 0, 52, 46
2, 84729, Note_on_c, 0, 73, 65
2, 84742, Note_on_c, 0, 47, 0
2, 84747, Control_c, 0, 64, 55
2, 84765, Control_c, 0, 64, 48
2, 84785, Control_c, 0, 64, 39
2, 84785, Note_on_c, 0, 75, 0
2, 84802, Control_c, 0, 64, 29
2, 84820, Control_c, 0, 64, 22
2, 84859, Control_c, 0, 64, 28
2, 84879, Control_c, 0, 64, 38
2, 84897, Control_c, 0, 64, 48
2, 84915, Control_c, 0, 64, 58
2, 84938, Control_c, 0, 64, 61
2, 84957, Control_c, 0, 64, 62
2, 84988, Note_on_c, 0, 73, 0
2, 84990, Note_on_c, 0, 70, 65
2, 84995, Control_c, 0, 64, 64
2, 85013, Control_c, 0, 64, 65
2, 85033, Control_c, 0, 64, 66
2, 85185, Control_c, 0, 64, 65
2, 85224, Control_c, 0, 64, 64
2, 85244, Control_c, 0, 64, 63
2, 85264, Control_c, 0, 64, 61
2, 85275, Note_on_c, 0, 49, 47
2, 85283, Control_c, 0, 64, 56
2, 85296, Note_on_c, 0, 71, 63
2, 85301, Control_c, 0, 64, 49
2, 85319, Control_c, 0, 64, 28
2, 85342, Control_c, 0, 64, 0
2, 85370, Note_on_c, 0, 52, 0
2, 85370, Note_on_c, 0, 68, 0
2, 85413, Note_on_c, 0, 70, 0
2, 85533, Control_c, 0, 64, 18
2, 85552, Control_c, 0, 64, 39
2, 85570, Control_c, 0, 64, 52
2, 85584, Note_on_c, 0, 70, 66
2, 85588, Control_c, 0, 64, 60
2, 85608, Control_c, 0, 64, 61
2, 85628, Control_c, 0, 64, 60
2, 85635, Note_on_c, 0, 49, 0
2, 85661, Note_on_c, 0, 71, 0
2, 85723, Control_c, 0, 64, 59
2, 85743, Control_c, 0, 64, 58
2, 85762, Control_c, 0, 64, 55
2, 85783, Control_c, 0, 64, 49
2, 85799, Control_c, 0, 64, 39
2, 85821, Control_c, 0, 64, 10
2, 85840, Control_c, 0, 64, 0
2, 85851, Note_on_c, 0, 51, 60
2, 85862, Note_on_c, 0, 68, 71
2, 86024, Note_on_c, 0, 70, 0
2, 86088, Control_c, 0, 64, 32
2, 86110, Control_c, 0, 64, 47
2, 86126, Control_c, 0, 64, 55
2, 86146, Control_c, 0, 64, 59
2, 86157, Note_on_c, 0, 71, 70
2, 86195, Note_on_c, 0, 68, 0
2, 86204, Control_c, 0, 64, 60
2, 86339, Control_c, 0, 64, 59
2, 86393, Note_on_c, 0, 51, 0
2, 86421, Control_c, 0, 64, 58
2, 86430, Note_on_c, 0, 70, 69
2, 86437, Control_c, 0, 64, 57
2, 86442, Note_on_c, 0, 39, 53
2, 86455, Control_c, 0, 64, 54
2, 86474, Control_c, 0, 64, 45
2, 86494, Control_c, 0, 64, 25
2, 86513, Control_c, 0, 64, 0
2, 86548, Note_on_c, 0, 71, 0
2, 86725, Note_on_c, 0, 67, 74
2, 86783, Control_c, 0, 64, 21
2, 86802, Control_c, 0, 64, 38
2, 86817, Note_on_c, 0, 70, 0
2, 86821, Control_c, 0, 64, 50
2, 86841, Control_c, 0, 64, 59
2, 86859, Control_c, 0, 64, 61
2, 86878, Control_c, 0, 64, 62
2, 86917, Control_c, 0, 64, 64
2, 86937, Control_c, 0, 64, 65
2, 86954, Control_c, 0, 64, 67
2, 86975, Control_c, 0, 64, 69
2, 87050, Control_c, 0, 64, 68
2, 87054, Note_on_c, 0, 44, 42
2, 87096, Note_on_c, 0, 68, 74
2, 87110, Control_c, 0, 64, 67
2, 87129, Control_c, 0, 64, 65
2, 87144, Note_on_c, 0, 39, 0
2, 87150, Control_c, 0, 64, 62
2, 87160, Note_on_c, 0, 67, 0
2, 87168, Control_c, 0, 64, 56
2, 87186, Control_c, 0, 64, 45
2, 87205, Control_c, 0, 64, 25
2, 87224, Control_c, 0, 64, 0
2, 87282, Control_c, 0, 64, 25
2, 87301, Control_c, 0, 64, 39
2, 87320, Control_c, 0, 64, 50
2, 87339, Control_c, 0, 64, 57
2, 87359, Control_c, 0, 64, 60
2, 87395, Note_on_c, 0, 46, 49
2, 87399, Control_c, 0, 64, 61
2, 87416, Control_c, 0, 64, 62
2, 87476, Note_on_c, 0, 44, 0
2, 87512, Control_c, 0, 64, 61
2, 87589, Control_c, 0, 64, 60
2, 87607, Control_c, 0, 64, 59
2, 87658, Note_on_c, 0, 46, 0
2, 87658, Note_on_c, 0, 66, 61
2, 87667, Control_c, 0, 64, 58
2, 87676, Note_on_c, 0, 48, 46
2, 87703, Control_c, 0, 64, 57
2, 87724, Control_c, 0, 64, 56
2, 87742, Control_c, 0, 64, 55
2, 87780, Control_c, 0, 64, 54
2, 87801, Control_c, 0, 64, 53
2, 87820, Control_c, 0, 64, 52
2, 87840, Control_c, 0, 64, 51
2, 87876, Control_c, 0, 64, 50
2, 87920, Note_on_c, 0, 44, 56
2, 87935, Control_c, 0, 64, 49
2, 87939, Note_on_c, 0, 48, 0
2, 87953, Control_c, 0, 64, 48
2, 87974, Control_c, 0, 64, 47
2, 87993, Control_c, 0, 64, 46
2, 88030, Control_c, 0, 64, 45
2, 88049, Control_c, 0, 64, 44
2, 88066, Control_c, 0, 64, 43
2, 88087, Control_c, 0, 64, 42
2, 88104, Control_c, 0, 64, 41
2, 88123, Control_c, 0, 64, 40
2, 88144, Control_c, 0, 64, 39
2, 88161, Control_c, 0, 64, 38
2, 88180, Control_c, 0, 64, 37
2, 88202, Note_on_c, 0, 48, 56
2, 88202, Note_on_c, 0, 63, 63
2, 88206, Control_c, 0, 64, 35
2, 88224, Note_on_c, 0, 44, 0
2, 88240, Control_c, 0, 64, 33
2, 88258, Control_c, 0, 64, 32
2, 88275, Control_c, 0, 64, 31
2, 88296, Control_c, 0, 64, 30
2, 88314, Control_c, 0, 64, 29
2, 88334, Control_c, 0, 64, 28
2, 88373, Control_c, 0, 64, 26
2, 88393, Control_c, 0, 64, 25
2, 88451, Control_c, 0, 64, 24
2, 88471, Note_on_c, 0, 51, 66
2, 88528, Control_c, 0, 64, 23
2, 88566, Note_on_c, 0, 48, 0
2, 88586, Control_c, 0, 64, 22
2, 88698, Control_c, 0, 64, 21
2, 88718, Control_c, 0, 64, 20
2, 88757, Control_c, 0, 64, 19
2, 88777, Note_on_c, 0, 61, 51
2, 88782, Control_c, 0, 64, 18
2, 88782, Note_on_c, 0, 54, 57
2, 88793, Note_on_c, 0, 66, 0
2, 88822, Note_on_c, 0, 63, 0
2, 88843, Note_on_c, 0, 51, 0
2, 88856, Control_c, 0, 64, 17
2, 88873, Control_c, 0, 64, 16
2, 88893, Control_c, 0, 64, 15
2, 88948, Control_c, 0, 64, 14
2, 88968, Control_c, 0, 64, 13
2, 89053, Note_on_c, 0, 60, 61
2, 89066, Control_c, 0, 64, 12
2, 89071, Note_on_c, 0, 61, 0
2, 89322, Note_on_c, 0, 52, 55
2, 89339, Note_on_c, 0, 61, 56
2, 89406, Note_on_c, 0, 60, 0
2, 89480, Note_on_c, 0, 54, 0
2, 89606, Note_on_c, 0, 63, 60
2, 89652, Note_on_c, 0, 61, 0
2, 89874, Note_on_c, 0, 51, 54
2, 89878, Note_on_c, 0, 64, 59
2, 89903, Note_on_c, 0, 63, 0
2, 89950, Note_on_c, 0, 52, 0
2, 90151, Note_on_c, 0, 66, 58
2, 90175, Note_on_c, 0, 64, 0
2, 90439, Note_on_c, 0, 49, 41
2, 90455, Note_on_c, 0, 64, 52
2, 90487, Control_c, 0, 64, 13
2, 90487, Note_on_c, 0, 66, 0
2, 90507, Note_on_c, 0, 51, 0
2, 90640, Control_c, 0, 64, 14
2, 90657, Control_c, 0, 64, 15
2, 90728, Note_on_c, 0, 64, 0
2, 90747, Note_on_c, 0, 63, 46
2, 90772, Control_c, 0, 64, 16
2, 91015, Note_on_c, 0, 63, 0
2, 91019, Note_on_c, 0, 61, 47
2, 91321, Note_on_c, 0, 64, 55
2, 91336, Note_on_c, 0, 61, 0
2, 91623, Note_on_c, 0, 61, 54
2, 91685, Note_on_c, 0, 64, 0
2, 91714, Control_c, 0, 64, 17
2, 91732, Control_c, 0, 64, 18
2, 91771, Control_c, 0, 64, 19
2, 91809, Control_c, 0, 64, 20
2, 91847, Control_c, 0, 64, 21
2, 91866, Control_c, 0, 64, 22
2, 91886, Control_c, 0, 64, 24
2, 91908, Control_c, 0, 64, 25
2, 91944, Control_c, 0, 64, 26
2, 91957, Note_on_c, 0, 58, 51
2, 91963, Control_c, 0, 64, 27
2, 92024, Note_on_c, 0, 61, 0
2, 92060, Control_c, 0, 64, 28
2, 92192, Control_c, 0, 64, 29
2, 92250, Control_c, 0, 64, 30
2, 92311, Note_on_c, 0, 55, 38
2, 92347, Control_c, 0, 64, 31
2, 92404, Control_c, 0, 64, 32
2, 92663, Note_on_c, 0, 64, 57
2, 92770, Control_c, 0, 64, 31
2, 92845, Control_c, 0, 64, 30
2, 92922, Control_c, 0, 64, 29
2, 92962, Control_c, 0, 64, 28
2, 93000, Control_c, 0, 64, 27
2, 93041, Control_c, 0, 64, 26
2, 93041, Note_on_c, 0, 64, 0
2, 93045, Note_on_c, 0, 56, 35
2, 93053, Note_on_c, 0, 63, 51
2, 93059, Control_c, 0, 64, 25
2, 93077, Control_c, 0, 64, 23
2, 93095, Control_c, 0, 64, 22
2, 93119, Control_c, 0, 64, 19
2, 93119, Control_c, 0, 67, 17
2, 93139, Control_c, 0, 64, 16
2, 93139, Control_c, 0, 67, 33
2, 93157, Control_c, 0, 64, 11
2, 93157, Control_c, 0, 67, 50
2, 93168, Note_on_c, 0, 55, 0
2, 93175, Control_c, 0, 64, 0
2, 93175, Control_c, 0, 67, 70
2, 93192, Control_c, 0, 67, 92
2, 93214, Control_c, 0, 67, 119
2, 93232, Control_c, 0, 67, 127
2, 93465, Note_on_c, 0, 61, 49
2, 93565, Note_on_c, 0, 63, 0
2, 93619, Note_on_c, 0, 58, 0
2, 93900, Note_on_c, 0, 58, 37
2, 93917, Note_on_c, 0, 60, 47
2, 93960, Note_on_c, 0, 61, 0
2, 94019, Note_on_c, 0, 56, 0
2, 94443, Note_on_c, 0, 61, 49
2, 94485, Note_on_c, 0, 60, 0
2, 94652, Control_c, 0, 64, 27
2, 94670, Control_c, 0, 64, 42
2, 94690, Control_c, 0, 64, 55
2, 94712, Control_c, 0, 64, 61
2, 94728, Control_c, 0, 64, 63
2, 94746, Control_c, 0, 64, 66
2, 94765, Control_c, 0, 64, 72
2, 94786, Control_c, 0, 64, 87
2, 94805, Control_c, 0, 64, 109
2, 94826, Control_c, 0, 64, 127
2, 94895, Note_on_c, 0, 68, 0
2, 94899, Note_on_c, 0, 58, 0
2, 95006, Note_on_c, 0, 49, 0
2, 95220, Note_on_c, 0, 61, 0
2, 95470, Note_on_c, 0, 44, 40
2, 95474, Note_on_c, 0, 63, 47
2, 95480, Note_on_c, 0, 60, 43
2, 95573, Control_c, 0, 64, 98
2, 95592, Control_c, 0, 64, 81
2, 95610, Control_c, 0, 64, 69
2, 95633, Control_c, 0, 64, 60
2, 95650, Control_c, 0, 64, 49
2, 95668, Control_c, 0, 64, 41
2, 95686, Control_c, 0, 64, 36
2, 95708, Control_c, 0, 64, 30
2, 95726, Control_c, 0, 64, 19
2, 95746, Control_c, 0, 64, 0
2, 96073, Control_c, 0, 64, 8
2, 96090, Control_c, 0, 64, 15
2, 96110, Control_c, 0, 64, 19
2, 96128, Control_c, 0, 64, 23
2, 96149, Control_c, 0, 64, 25
2, 96167, Control_c, 0, 64, 28
2, 96186, Control_c, 0, 64, 31
2, 96204, Control_c, 0, 64, 34
2, 96226, Control_c, 0, 64, 38
2, 96247, Control_c, 0, 64, 41
2, 96264, Control_c, 0, 64, 44
2, 96282, Control_c, 0, 64, 47
2, 96301, Control_c, 0, 64, 50
2, 96319, Control_c, 0, 64, 53
2, 96336, Control_c, 0, 64, 55
2, 96358, Control_c, 0, 64, 56
2, 96376, Control_c, 0, 64, 57
2, 96397, Control_c, 0, 64, 58
2, 96414, Control_c, 0, 64, 59
2, 96433, Control_c, 0, 64, 60
2, 96474, Control_c, 0, 64, 61
2, 96494, Control_c, 0, 64, 62
2, 96512, Control_c, 0, 64, 63
2, 96529, Control_c, 0, 64, 64
2, 96550, Control_c, 0, 64, 65
2, 96566, Control_c, 0, 64, 66
2, 96588, Control_c, 0, 64, 67
2, 96606, Control_c, 0, 64, 69
2, 96625, Control_c, 0, 64, 72
2, 96645, Control_c, 0, 64, 75
2, 96665, Control_c, 0, 64, 80
2, 96684, Control_c, 0, 64, 84
2, 96703, Control_c, 0, 64, 86
2, 96722, Control_c, 0, 64, 87
2, 96760, Control_c, 0, 64, 88
2, 96778, Control_c, 0, 64, 92
2, 96798, Control_c, 0, 64, 98
2, 96818, Control_c, 0, 64, 104
2, 96838, Control_c, 0, 64, 106
2, 96876, Control_c, 0, 64, 107
2, 96912, Control_c, 0, 64, 108
2, 97048, Control_c, 0, 64, 106
2, 97066, Control_c, 0, 64, 104
2, 97106, Control_c, 0, 64, 103
2, 97145, Control_c, 0, 64, 102
2, 97166, Control_c, 0, 64, 101
2, 97183, Control_c, 0, 64, 100
2, 97202, Control_c, 0, 64, 99
2, 97413, Control_c, 0, 64, 98
2, 97453, Control_c, 0, 64, 97
2, 97508, Control_c, 0, 64, 96
2, 97550, Control_c, 0, 64, 95
2, 97586, Control_c, 0, 64, 94
2, 98180, Control_c, 0, 64, 93
2, 98238, Control_c, 0, 64, 92
2, 98297, Control_c, 0, 64, 91
2, 98315, Control_c, 0, 64, 90
2, 98412, Control_c, 0, 64, 89
2, 98449, Control_c, 0, 64, 88
2, 98508, Control_c, 0, 64, 87
2, 98641, Control_c, 0, 64, 86
2, 98646, Note_on_c, 0, 60, 0
2, 98739, Note_on_c, 0, 63, 0
2, 98761, Note_on_c, 0, 44, 0
2, 98797, Control_c, 0, 64, 85
2, 98987, Control_c, 0, 64, 84
2, 99024, Control_c, 0, 64, 83
2, 99087, Control_c, 0, 64, 82
2, 99141, Control_c, 0, 64, 81
2, 99275, Control_c, 0, 64, 80
2, 99332, Control_c, 0, 64, 79
2, 99354, Control_c, 0, 64, 78
2, 99391, Control_c, 0, 64, 77
2, 99409, Control_c, 0, 64, 76
2, 99428, Control_c, 0, 64, 74
2, 99450, Control_c, 0, 64, 73
2, 99466, Control_c, 0, 64, 72
2, 99524, Control_c, 0, 64, 71
2, 99544, Control_c, 0, 64, 69
2, 99566, Control_c, 0, 64, 67
2, 99583, Control_c, 0, 64, 66
2, 99640, Control_c, 0, 64, 65
2, 99679, Control_c, 0, 64, 63
2, 99699, Control_c, 0, 64, 62
2, 99720, Control_c, 0, 64, 61
2, 99796, Control_c, 0, 67, 119
2, 99816, Control_c, 0, 64, 60
2, 99816, Control_c, 0, 67, 107
2, 99832, Control_c, 0, 64, 59
2, 99837, Control_c, 0, 67, 96
2, 99854, Control_c, 0, 64, 57
2, 99854, Control_c, 0, 67, 86
2, 99872, Control_c, 0, 64, 55
2, 99872, Control_c, 0, 67, 80
2, 99892, Control_c, 0, 64, 54
2, 99892, Control_c, 0, 67, 77
2, 99910, Control_c, 0, 64, 52
2, 99910, Control_c, 0, 67, 74
2, 99931, Control_c, 0, 64, 51
2, 99931, Control_c, 0, 67, 72
2, 99948, Control_c, 0, 64, 50
2, 99948, Control_c, 0, 67, 70
2, 99968, Control_c, 0, 64, 49
2, 99968, Control_c, 0, 67, 67
2, 99986, Control_c, 0, 64, 48
2, 99986, Control_c, 0, 67, 65
2, 100007, Control_c, 0, 67, 64
2, 100061, Control_c, 0, 67, 63
2, 100178, Control_c, 0, 64, 47
2, 100253, Control_c, 0, 64, 46
2, 100294, Control_c, 0, 64, 45
2, 100312, Control_c, 0, 64, 43
2, 100331, Control_c, 0, 64, 42
2, 100350, Control_c, 0, 64, 41
2, 100388, Control_c, 0, 64, 40
2, 100426, Control_c, 0, 64, 39
2, 100484, Control_c, 0, 64, 38
2, 100542, Control_c, 0, 64, 37
2, 100600, Control_c, 0, 64, 36
2, 100754, Control_c, 0, 64, 35
2, 101484, Control_c, 0, 67, 64
2, 102366, Control_c, 0, 64, 36
2, 102712, Control_c, 0, 64, 37
2, 103019, Control_c, 0, 67, 65
2, 103057, Control_c, 0, 64, 38
2, 103808, Control_c, 0, 64, 39
2, 104176,End_track
0, 0, End_of_file
