0, 0, Header, 1, 2, 480
1, 0, Start_track
1, 0, Tempo, 500000
1, 0, Time_signature, 4, 2, 24, 8
1, 1, End_track
2, 0, Start_track
2, 0, Program_c, 0, 0
2, 0, Control_c, 0, 64, 0
2, 0, Control_c, 0, 67, 0
2, 248, Control_c, 0, 64, 9
2, 268, Control_c, 0, 64, 11
2, 288, Control_c, 0, 64, 15
2, 306, Control_c, 0, 64, 21
2, 324, Control_c, 0, 64, 28
2, 344, Control_c, 0, 64, 35
2, 365, Control_c, 0, 64, 42
2, 381, Control_c, 0, 64, 47
2, 401, Control_c, 0, 64, 51
2, 420, Control_c, 0, 64, 54
2, 439, Control_c, 0, 64, 56
2, 459, Control_c, 0, 64, 58
2, 478, Control_c, 0, 64, 60
2, 499, Control_c, 0, 64, 61
2, 517, Control_c, 0, 64, 62
2, 534, Control_c, 0, 64, 63
2, 556, Control_c, 0, 64, 64
2, 576, Control_c, 0, 64, 65
2, 595, Control_c, 0, 64, 67
2, 613, Control_c, 0, 64, 69
2, 633, Control_c, 0, 64, 74
2, 654, Control_c, 0, 64, 79
2, 674, Control_c, 0, 64, 82
2, 692, Control_c, 0, 64, 83
2, 711, Control_c, 0, 64, 84
2, 738, Control_c, 0, 64, 85
2, 755, Control_c, 0, 64, 86
2, 775, Control_c, 0, 64, 88
2, 796, Control_c, 0, 64, 89
2, 814, Control_c, 0, 64, 90
2, 977, Control_c, 0, 64, 89
2, 999, Control_c, 0, 64, 88
2, 999, Note_on_c, 0, 59, 44
2, 1012, Note_on_c, 0, 56, 37
2, 1016, Note_on_c, 0, 68, 49
2, 1036, Control_c, 0, 64, 87
2, 1054, Control_c, 0, 64, 86
2, 1075, Control_c, 0, 64, 84
2, 1094, Control_c, 0, 64, 81
2, 1114, Control_c, 0, 64, 78
2, 1130, Control_c, 0, 64, 76
2, 1150, Control_c, 0, 64, 74
2, 1171, Control_c, 0, 64, 73
2, 1191, Control_c, 0, 64, 70
2, 1209, Control_c, 0, 64, 68
2, 1226, Control_c, 0, 64, 65
2, 1248, Control_c, 0, 64, 64
2, 1266, Control_c, 0, 64, 62
2, 1284, Control_c, 0, 64, 61
2, 1303, Control_c, 0, 64, 60
2, 1325, Control_c, 0, 64, 59
2, 1351, Note_on_c, 0, 70, 52
2, 1360, Control_c, 0, 64, 58
2, 1422, Control_c, 0, 64, 57
2, 1439, Control_c, 0, 64, 56
2, 1456, Control_c, 0, 64, 55
2, 1516, Control_c, 0, 64, 54
2, 1536, Control_c, 0, 64, 52
2, 1554, Control_c, 0, 64, 50
2, 1574, Control_c, 0, 64, 47
2, 1592, Control_c, 0, 64, 44
2, 1610, Control_c, 0, 64, 42
2, 1630, Control_c, 0, 64, 41
2, 1635, Note_on_c, 0, 71, 55
2, 1644, Note_on_c, 0, 63, 32
2, 1650, Control_c, 0, 64, 39
2, 1662, Note_on_c, 0, 68, 0
2, 1671, Control_c, 0, 64, 35
2, 1690, Control_c, 0, 64, 30
2, 1690, Note_on_c, 0, 70, 0
2, 1711, Control_c, 0, 64, 24
2, 1711, Note_on_c, 0, 59, 0
2, 1726, Control_c, 0, 64, 21
2, 1746, Control_c, 0, 64, 20
2, 1764, Control_c, 0, 64, 18
2, 1785, Control_c, 0, 64, 15
2, 1803, Control_c, 0, 64, 0
2, 1925, Note_on_c, 0, 68, 62
2, 1972, Note_on_c, 0, 71, 0
2, 2194, Note_on_c, 0, 70, 67
2, 2210, Note_on_c, 0, 61, 40
2, 2314, Note_on_c, 0, 63, 0
2, 2383, Note_on_c, 0, 68, 0
2, 2471, Note_on_c, 0, 73, 76
2, 2722, Note_on_c, 0, 70, 0
2, 2780, Note_on_c, 0, 76, 70
2, 2785, Note_on_c, 0, 56, 0
2, 2798, Note_on_c, 0, 55, 33
2, 2890, Note_on_c, 0, 73, 0
2, 2906, Note_on_c, 0, 61, 0
2, 3361, Note_on_c, 0, 75, 60
2, 3366, Note_on_c, 0, 59, 37
2, 3431, Note_on_c, 0, 76, 0
2, 3922, Note_on_c, 0, 55, 0
2, 3933, Note_on_c, 0, 73, 55
2, 3954, Note_on_c, 0, 58, 27
2, 4076, Note_on_c, 0, 59, 0
2, 4076, Note_on_c, 0, 75, 0
2, 4500, Note_on_c, 0, 71, 48
2, 4504, Note_on_c, 0, 56, 42
2, 4545, Note_on_c, 0, 58, 0
2, 4556, Note_on_c, 0, 73, 0
2, 4790, Note_on_c, 0, 58, 58
2, 4858, Note_on_c, 0, 56, 0
2, 5077, Note_on_c, 0, 80, 76
2, 5081, Note_on_c, 0, 59, 45
2, 5086, Note_on_c, 0, 75, 54
2, 5124, Note_on_c, 0, 58, 0
2, 5248, Note_on_c, 0, 71, 0
2, 5340, Note_on_c, 0, 56, 56
2, 5349, Note_on_c, 0, 59, 0
2, 5605, Note_on_c, 0, 73, 69
2, 5609, Note_on_c, 0, 70, 53
2, 5616, Note_on_c, 0, 58, 63
2, 5654, Note_on_c, 0, 75, 0
2, 5664, Note_on_c, 0, 56, 0
2, 5819, Control_c, 0, 64, 21
2, 5838, Control_c, 0, 64, 41
2, 5860, Control_c, 0, 64, 55
2, 5873, Note_on_c, 0, 80, 0
2, 5878, Control_c, 0, 64, 62
2, 5883, Note_on_c, 0, 61, 64
2, 5897, Control_c, 0, 64, 63
2, 5915, Control_c, 0, 64, 64
2, 5936, Control_c, 0, 64, 67
2, 5953, Control_c, 0, 64, 72
2, 5973, Control_c, 0, 64, 78
2, 5991, Control_c, 0, 64, 81
2, 5995, Note_on_c, 0, 58, 0
2, 6014, Control_c, 0, 64, 82
2, 6041, Note_on_c, 0, 70, 0
2, 6107, Control_c, 0, 64, 81
2, 6145, Control_c, 0, 64, 80
2, 6164, Control_c, 0, 64, 78
2, 6184, Control_c, 0, 64, 76
2, 6202, Control_c, 0, 64, 73
2, 6224, Control_c, 0, 64, 71
2, 6224, Note_on_c, 0, 79, 60
2, 6232, Note_on_c, 0, 64, 55
2, 6241, Control_c, 0, 64, 68
2, 6264, Control_c, 0, 64, 64
2, 6264, Note_on_c, 0, 73, 0
2, 6284, Control_c, 0, 64, 60
2, 6295, Note_on_c, 0, 61, 0
2, 6300, Control_c, 0, 64, 55
2, 6318, Control_c, 0, 64, 47
2, 6338, Control_c, 0, 64, 38
2, 6358, Control_c, 0, 64, 25
2, 6375, Control_c, 0, 64, 0
2, 6790, Note_on_c, 0, 71, 49
2, 6806, Note_on_c, 0, 63, 45
2, 6897, Note_on_c, 0, 64, 0
2, 7347, Note_on_c, 0, 61, 41
2, 7366, Note_on_c, 0, 70, 50
2, 7403, Note_on_c, 0, 63, 0
2, 7467, Note_on_c, 0, 71, 0
2, 7491, Note_on_c, 0, 79, 0
2, 7547, Control_c, 0, 64, 31
2, 7560, Note_on_c, 0, 70, 0
2, 7568, Control_c, 0, 64, 51
2, 7588, Control_c, 0, 64, 63
2, 7605, Control_c, 0, 64, 68
2, 7624, Control_c, 0, 64, 76
2, 7643, Control_c, 0, 64, 90
2, 7662, Control_c, 0, 64, 127
2, 7918, Note_on_c, 0, 59, 46
2, 7927, Note_on_c, 0, 80, 68
2, 7952, Note_on_c, 0, 75, 45
2, 7981, Note_on_c, 0, 61, 0
2, 8008, Control_c, 0, 64, 106
2, 8027, Control_c, 0, 64, 91
2, 8048, Control_c, 0, 64, 79
2, 8065, Control_c, 0, 64, 69
2, 8085, Control_c, 0, 64, 61
2, 8104, Control_c, 0, 64, 48
2, 8122, Control_c, 0, 64, 35
2, 8142, Control_c, 0, 64, 20
2, 8161, Control_c, 0, 64, 0
2, 8214, Note_on_c, 0, 82, 71
2, 8403, Note_on_c, 0, 80, 0
2, 8506, Note_on_c, 0, 68, 51
2, 8510, Note_on_c, 0, 83, 69
2, 8568, Note_on_c, 0, 75, 0
2, 8599, Note_on_c, 0, 82, 0
2, 8790, Note_on_c, 0, 75, 74
2, 9057, Note_on_c, 0, 61, 45
2, 9057, Note_on_c, 0, 76, 71
2, 9103, Note_on_c, 0, 83, 0
2, 9124, Note_on_c, 0, 75, 0
2, 9133, Note_on_c, 0, 59, 0
2, 9316, Note_on_c, 0, 80, 75
2, 9428, Note_on_c, 0, 76, 0
2, 9609, Note_on_c, 0, 58, 36
2, 9618, Note_on_c, 0, 78, 68
2, 9656, Note_on_c, 0, 68, 0
2, 9662, Note_on_c, 0, 80, 0
2, 9883, Note_on_c, 0, 80, 66
2, 9946, Note_on_c, 0, 78, 0
2, 10138, Note_on_c, 0, 61, 0
2, 10164, Note_on_c, 0, 82, 61
2, 10180, Note_on_c, 0, 66, 33
2, 10429, Note_on_c, 0, 73, 63
2, 10694, Note_on_c, 0, 59, 46
2, 10699, Note_on_c, 0, 80, 0
2, 10710, Note_on_c, 0, 75, 64
2, 10733, Note_on_c, 0, 58, 0
2, 10763, Note_on_c, 0, 82, 0
2, 10955, Note_on_c, 0, 78, 67
2, 10999, Note_on_c, 0, 75, 0
2, 11120, Note_on_c, 0, 73, 0
2, 11229, Note_on_c, 0, 56, 34
2, 11255, Note_on_c, 0, 76, 57
2, 11296, Note_on_c, 0, 66, 0
2, 11300, Note_on_c, 0, 78, 0
2, 11408, Control_c, 0, 64, 29
2, 11427, Control_c, 0, 64, 41
2, 11444, Control_c, 0, 64, 49
2, 11464, Control_c, 0, 64, 54
2, 11483, Control_c, 0, 64, 56
2, 11505, Control_c, 0, 64, 57
2, 11517, Note_on_c, 0, 78, 58
2, 11560, Note_on_c, 0, 76, 0
2, 11601, Control_c, 0, 64, 56
2, 11675, Control_c, 0, 64, 55
2, 11694, Control_c, 0, 64, 54
2, 11712, Control_c, 0, 64, 52
2, 11732, Control_c, 0, 64, 51
2, 11752, Control_c, 0, 64, 49
2, 11769, Control_c, 0, 64, 47
2, 11778, Note_on_c, 0, 59, 0
2, 11784, Note_on_c, 0, 80, 54
2, 11789, Control_c, 0, 64, 43
2, 11794, Note_on_c, 0, 64, 38
2, 11812, Control_c, 0, 64, 38
2, 11830, Control_c, 0, 64, 36
2, 11867, Control_c, 0, 64, 40
2, 11869, Note_on_c, 0, 56, 0
2, 11886, Control_c, 0, 64, 46
2, 11907, Control_c, 0, 64, 52
2, 11917, Note_on_c, 0, 78, 0
2, 11924, Control_c, 0, 64, 57
2, 11946, Control_c, 0, 64, 58
2, 11984, Control_c, 0, 64, 59
2, 12039, Control_c, 0, 64, 58
2, 12067, Note_on_c, 0, 71, 42
2, 12135, Control_c, 0, 64, 57
2, 12251, Control_c, 0, 64, 56
2, 12308, Control_c, 0, 64, 55
2, 12317, Note_on_c, 0, 52, 38
2, 12340, Note_on_c, 0, 73, 52
2, 12367, Control_c, 0, 64, 54
2, 12404, Control_c, 0, 64, 53
2, 12422, Control_c, 0, 64, 52
2, 12462, Control_c, 0, 64, 51
2, 12484, Control_c, 0, 64, 49
2, 12500, Control_c, 0, 64, 46
2, 12519, Control_c, 0, 64, 38
2, 12536, Note_on_c, 0, 71, 0
2, 12540, Control_c, 0, 64, 31
2, 12558, Control_c, 0, 64, 27
2, 12592, Note_on_c, 0, 76, 56
2, 12635, Control_c, 0, 64, 28
2, 12653, Control_c, 0, 64, 30
2, 12673, Control_c, 0, 64, 35
2, 12684, Note_on_c, 0, 73, 0
2, 12693, Control_c, 0, 64, 41
2, 12713, Control_c, 0, 64, 48
2, 12729, Control_c, 0, 64, 53
2, 12749, Control_c, 0, 64, 55
2, 12846, Control_c, 0, 64, 54
2, 12885, Control_c, 0, 64, 53
2, 12885, Note_on_c, 0, 70, 55
2, 12893, Note_on_c, 0, 54, 49
2, 12926, Control_c, 0, 64, 52
2, 12942, Control_c, 0, 64, 51
2, 12964, Control_c, 0, 64, 49
2, 12980, Control_c, 0, 64, 48
2, 12984, Note_on_c, 0, 52, 0
2, 12994, Note_on_c, 0, 76, 0
2, 13000, Control_c, 0, 64, 45
2, 13007, Note_on_c, 0, 80, 0
2, 13019, Control_c, 0, 64, 41
2, 13019, Note_on_c, 0, 64, 0
2, 13038, Control_c, 0, 64, 37
2, 13058, Control_c, 0, 64, 33
2, 13076, Control_c, 0, 64, 31
2, 13095, Control_c, 0, 64, 29
2, 13117, Control_c, 0, 64, 27
2, 13133, Control_c, 0, 64, 23
2, 13154, Control_c, 0, 64, 18
2, 13158, Note_on_c, 0, 71, 63
2, 13172, Control_c, 0, 64, 11
2, 13191, Control_c, 0, 64, 0
2, 13259, Note_on_c, 0, 70, 0
2, 13439, Note_on_c, 0, 56, 55
2, 13439, Note_on_c, 0, 63, 47
2, 13446, Note_on_c, 0, 54, 0
2, 13450, Note_on_c, 0, 73, 63
2, 13506, Note_on_c, 0, 71, 0
2, 13716, Note_on_c, 0, 66, 62
2, 13756, Note_on_c, 0, 73, 0
2, 13948, Note_on_c, 0, 56, 0
2, 14002, Note_on_c, 0, 58, 42
2, 14002, Note_on_c, 0, 61, 46
2, 14008, Note_on_c, 0, 73, 65
2, 14106, Note_on_c, 0, 63, 0
2, 14216, Note_on_c, 0, 66, 0
2, 14273, Note_on_c, 0, 76, 64
2, 14284, Note_on_c, 0, 73, 0
2, 14575, Note_on_c, 0, 59, 42
2, 14575, Note_on_c, 0, 75, 62
2, 14612, Note_on_c, 0, 61, 0
2, 14616, Note_on_c, 0, 58, 0
2, 14616, Note_on_c, 0, 76, 0
2, 14851, Note_on_c, 0, 76, 70
2, 14879, Note_on_c, 0, 61, 44
2, 14918, Note_on_c, 0, 75, 0
2, 14937, Note_on_c, 0, 59, 0
2, 15120, Note_on_c, 0, 78, 74
2, 15138, Note_on_c, 0, 63, 51
2, 15180, Note_on_c, 0, 76, 0
2, 15218, Note_on_c, 0, 61, 0
2, 15382, Note_on_c, 0, 59, 53
2, 15391, Note_on_c, 0, 75, 68
2, 15457, Note_on_c, 0, 63, 0
2, 15498, Note_on_c, 0, 78, 0
2, 15654, Note_on_c, 0, 61, 61
2, 15670, Note_on_c, 0, 76, 73
2, 15733, Note_on_c, 0, 59, 0
2, 15741, Note_on_c, 0, 75, 0
2, 15931, Note_on_c, 0, 64, 70
2, 15934, Note_on_c, 0, 80, 72
2, 15988, Note_on_c, 0, 76, 0
2, 15992, Note_on_c, 0, 61, 0
2, 16267, Note_on_c, 0, 68, 61
2, 16267, Note_on_c, 0, 71, 61
2, 16295, Note_on_c, 0, 80, 0
2, 16367, Note_on_c, 0, 64, 0
2, 16551, Note_on_c, 0, 70, 63
2, 16625, Note_on_c, 0, 71, 0
2, 16813, Note_on_c, 0, 71, 53
2, 16817, Note_on_c, 0, 66, 60
2, 16844, Note_on_c, 0, 70, 0
2, 16878, Note_on_c, 0, 68, 0
2, 17088, Note_on_c, 0, 70, 67
2, 17112, Note_on_c, 0, 71, 0
2, 17367, Note_on_c, 0, 64, 61
2, 17371, Note_on_c, 0, 71, 64
2, 17391, Note_on_c, 0, 70, 0
2, 17405, Note_on_c, 0, 66, 0
2, 17472, Control_c, 0, 64, 13
2, 17493, Control_c, 0, 64, 41
2, 17510, Control_c, 0, 64, 56
2, 17531, Control_c, 0, 64, 63
2, 17552, Control_c, 0, 64, 64
2, 17571, Control_c, 0, 64, 65
2, 17588, Control_c, 0, 64, 68
2, 17607, Control_c, 0, 64, 75
2, 17627, Control_c, 0, 64, 83
2, 17651, Control_c, 0, 64, 88
2, 17651, Note_on_c, 0, 71, 0
2, 17651, Note_on_c, 0, 73, 63
2, 17664, Control_c, 0, 64, 89
2, 17685, Control_c, 0, 64, 88
2, 17704, Control_c, 0, 64, 86
2, 17723, Control_c, 0, 64, 85
2, 17741, Control_c, 0, 64, 83
2, 17800, Control_c, 0, 64, 81
2, 17819, Control_c, 0, 64, 79
2, 17838, Control_c, 0, 64, 77
2, 17857, Control_c, 0, 64, 74
2, 17878, Control_c, 0, 64, 73
2, 17895, Control_c, 0, 64, 70
2, 17914, Control_c, 0, 64, 66
2, 17930, Note_on_c, 0, 47, 51
2, 17930, Note_on_c, 0, 63, 56
2, 17934, Control_c, 0, 64, 61
2, 17954, Control_c, 0, 64, 53
2, 17972, Control_c, 0, 64, 46
2, 17990, Note_on_c, 0, 64, 0
2, 17994, Control_c, 0, 64, 42
2, 18013, Control_c, 0, 64, 43
2, 18030, Control_c, 0, 64, 44
2, 18051, Control_c, 0, 64, 48
2, 18069, Control_c, 0, 64, 53
2, 18089, Control_c, 0, 64, 57
2, 18106, Control_c, 0, 64, 58
2, 18112, Note_on_c, 0, 73, 0
2, 18147, Control_c, 0, 64, 59
2, 18205, Note_on_c, 0, 64, 60
2, 18209, Note_on_c, 0, 49, 49
2, 18260, Control_c, 0, 64, 58
2, 18265, Note_on_c, 0, 63, 0
2, 18267, Note_on_c, 0, 47, 0
2, 18376, Control_c, 0, 64, 57
2, 18458, Note_on_c, 0, 51, 54
2, 18458, Note_on_c, 0, 71, 62
2, 18474, Control_c, 0, 64, 56
2, 18474, Note_on_c, 0, 66, 55
2, 18488, Note_on_c, 0, 49, 0
2, 18493, Control_c, 0, 64, 55
2, 18528, Control_c, 0, 64, 54
2, 18546, Note_on_c, 0, 64, 0
2, 18590, Control_c, 0, 64, 53
2, 18605, Control_c, 0, 64, 52
2, 18627, Control_c, 0, 64, 51
2, 18643, Control_c, 0, 64, 49
2, 18664, Control_c, 0, 64, 48
2, 18683, Control_c, 0, 64, 47
2, 18688, Note_on_c, 0, 51, 0
2, 18703, Control_c, 0, 64, 45
2, 18717, Note_on_c, 0, 47, 50
2, 18726, Control_c, 0, 64, 43
2, 18726, Note_on_c, 0, 66, 0
2, 18730, Note_on_c, 0, 63, 56
2, 18740, Control_c, 0, 64, 42
2, 18800, Control_c, 0, 64, 41
2, 18816, Control_c, 0, 64, 40
2, 18835, Control_c, 0, 64, 38
2, 18855, Control_c, 0, 64, 37
2, 18875, Control_c, 0, 64, 36
2, 18989, Control_c, 0, 64, 35
2, 18998, Note_on_c, 0, 49, 56
2, 19011, Note_on_c, 0, 64, 60
2, 19020, Note_on_c, 0, 63, 0
2, 19040, Note_on_c, 0, 47, 0
2, 19066, Control_c, 0, 64, 34
2, 19124, Control_c, 0, 64, 33
2, 19240, Control_c, 0, 64, 32
2, 19279, Note_on_c, 0, 52, 65
2, 19279, Note_on_c, 0, 68, 57
2, 19288, Note_on_c, 0, 64, 0
2, 19326, Note_on_c, 0, 49, 0
2, 19346, Note_on_c, 0, 71, 0
2, 19374, Control_c, 0, 64, 31
2, 19507, Control_c, 0, 64, 30
2, 19549, Note_on_c, 0, 68, 0
2, 19583, Note_on_c, 0, 56, 63
2, 19604, Note_on_c, 0, 61, 48
2, 19641, Note_on_c, 0, 52, 0
2, 19680, Control_c, 0, 64, 29
2, 19836, Control_c, 0, 64, 28
2, 19850, Note_on_c, 0, 71, 63
2, 20119, Note_on_c, 0, 54, 63
2, 20124, Note_on_c, 0, 71, 0
2, 20126, Note_on_c, 0, 70, 62
2, 20160, Control_c, 0, 64, 27
2, 20181, Control_c, 0, 64, 26
2, 20199, Control_c, 0, 64, 25
2, 20218, Control_c, 0, 64, 24
2, 20238, Control_c, 0, 64, 22
2, 20257, Control_c, 0, 64, 18
2, 20267, Note_on_c, 0, 56, 0
2, 20276, Control_c, 0, 64, 11
2, 20296, Control_c, 0, 64, 0
2, 20400, Note_on_c, 0, 71, 71
2, 20445, Note_on_c, 0, 70, 0
2, 20687, Note_on_c, 0, 52, 53
2, 20691, Note_on_c, 0, 73, 69
2, 20746, Note_on_c, 0, 54, 0
2, 20782, Note_on_c, 0, 71, 0
2, 20951, Note_on_c, 0, 70, 68
2, 21013, Note_on_c, 0, 73, 0
2, 21233, Note_on_c, 0, 66, 69
2, 21238, Note_on_c, 0, 51, 46
2, 21245, Note_on_c, 0, 70, 0
2, 21271, Note_on_c, 0, 52, 0
2, 21501, Note_on_c, 0, 52, 47
2, 21562, Note_on_c, 0, 51, 0
2, 21589, Note_on_c, 0, 61, 0
2, 21791, Note_on_c, 0, 54, 43
2, 21796, Note_on_c, 0, 59, 54
2, 21845, Note_on_c, 0, 52, 0
2, 21908, Control_c, 0, 67, 10
2, 21929, Control_c, 0, 67, 14
2, 21948, Control_c, 0, 67, 15
2, 21966, Control_c, 0, 67, 17
2, 21986, Control_c, 0, 67, 18
2, 22004, Control_c, 0, 67, 20
2, 22022, Control_c, 0, 67, 23
2, 22046, Control_c, 0, 67, 25
2, 22046, Note_on_c, 0, 59, 0
2, 22048, Note_on_c, 0, 54, 0
2, 22054, Note_on_c, 0, 51, 54
2, 22065, Control_c, 0, 67, 26
2, 22065, Note_on_c, 0, 57, 46
2, 22084, Control_c, 0, 67, 27
2, 22119, Control_c, 0, 67, 28
2, 22137, Control_c, 0, 67, 33
2, 22158, Control_c, 0, 67, 37
2, 22175, Control_c, 0, 67, 41
2, 22196, Control_c, 0, 67, 42
2, 22235, Control_c, 0, 67, 43
2, 22310, Note_on_c, 0, 53, 57
2, 22326, Note_on_c, 0, 61, 54
2, 22330, Note_on_c, 0, 57, 0
2, 22334, Control_c, 0, 67, 42
2, 22426, Note_on_c, 0, 51, 0
2, 22540, Control_c, 0, 64, 22
2, 22560, Control_c, 0, 64, 42
2, 22579, Control_c, 0, 64, 54
2, 22586, Note_on_c, 0, 59, 63
2, 22586, Note_on_c, 0, 61, 0
2, 22590, Note_on_c, 0, 56, 66
2, 22603, Control_c, 0, 64, 60
2, 22603, Control_c, 0, 67, 41
2, 22636, Note_on_c, 0, 53, 0
2, 22640, Control_c, 0, 64, 61
2, 22675, Control_c, 0, 64, 62
2, 22691, Note_on_c, 0, 59, 0
2, 22695, Control_c, 0, 64, 63
2, 22756, Control_c, 0, 64, 62
2, 22869, Control_c, 0, 64, 61
2, 22884, Note_on_c, 0, 59, 65
2, 22889, Control_c, 0, 64, 60
2, 22904, Note_on_c, 0, 62, 61
2, 22909, Control_c, 0, 64, 59
2, 22945, Control_c, 0, 64, 58
2, 22967, Control_c, 0, 64, 55
2, 22969, Note_on_c, 0, 56, 0
2, 22986, Control_c, 0, 64, 52
2, 23001, Control_c, 0, 64, 49
2, 23022, Control_c, 0, 64, 47
2, 23042, Control_c, 0, 64, 46
2, 23060, Control_c, 0, 64, 47
2, 23078, Control_c, 0, 64, 48
2, 23100, Control_c, 0, 64, 53
2, 23118, Control_c, 0, 64, 58
2, 23136, Control_c, 0, 64, 61
2, 23156, Note_on_c, 0, 66, 0
2, 23161, Control_c, 0, 64, 62
2, 23161, Note_on_c, 0, 65, 56
2, 23176, Control_c, 0, 64, 63
2, 23195, Control_c, 0, 64, 64
2, 23199, Control_c, 0, 67, 42
2, 23215, Control_c, 0, 64, 66
2, 23233, Control_c, 0, 64, 67
2, 23256, Control_c, 0, 67, 43
2, 23275, Control_c, 0, 67, 44
2, 23292, Control_c, 0, 64, 66
2, 23292, Control_c, 0, 67, 46
2, 23311, Control_c, 0, 67, 56
2, 23330, Control_c, 0, 67, 70
2, 23349, Control_c, 0, 64, 65
2, 23349, Control_c, 0, 67, 84
2, 23370, Control_c, 0, 67, 94
2, 23387, Control_c, 0, 64, 64
2, 23392, Control_c, 0, 67, 101
2, 23408, Control_c, 0, 64, 63
2, 23408, Control_c, 0, 67, 105
2, 23424, Control_c, 0, 67, 109
2, 23435, Note_on_c, 0, 57, 61
2, 23444, Control_c, 0, 67, 111
2, 23455, Note_on_c, 0, 66, 55
2, 23459, Note_on_c, 0, 61, 51
2, 23469, Control_c, 0, 64, 62
2, 23469, Control_c, 0, 67, 112
2, 23483, Control_c, 0, 64, 60
2, 23489, Note_on_c, 0, 62, 0
2, 23492, Note_on_c, 0, 65, 0
2, 23502, Control_c, 0, 64, 58
2, 23502, Control_c, 0, 67, 113
2, 23521, Control_c, 0, 64, 56
2, 23521, Control_c, 0, 67, 117
2, 23542, Note_on_c, 0, 59, 0
2, 23547, Control_c, 0, 64, 55
2, 23547, Control_c, 0, 67, 125
2, 23560, Control_c, 0, 64, 53
2, 23564, Control_c, 0, 67, 127
2, 23579, Control_c, 0, 64, 49
2, 23598, Control_c, 0, 64, 40
2, 23616, Control_c, 0, 64, 23
2, 23636, Control_c, 0, 64, 0
2, 23693, Control_c, 0, 64, 17
2, 23716, Control_c, 0, 64, 29
2, 23720, Note_on_c, 0, 65, 55
2, 23736, Control_c, 0, 64, 41
2, 23752, Control_c, 0, 64, 51
2, 23769, Control_c, 0, 64, 58
2, 23774, Note_on_c, 0, 66, 0
2, 23790, Control_c, 0, 64, 60
2, 23846, Control_c, 0, 64, 61
2, 23887, Control_c, 0, 64, 60
2, 23942, Control_c, 0, 64, 59
2, 23964, Control_c, 0, 64, 57
2, 23975, Note_on_c, 0, 66, 54
2, 23982, Control_c, 0, 64, 53
2, 23986, Note_on_c, 0, 59, 48
2, 23992, Note_on_c, 0, 56, 51
2, 24002, Control_c, 0, 64, 48
2, 24002, Note_on_c, 0, 61, 0
2, 24022, Control_c, 0, 64, 41
2, 24022, Note_on_c, 0, 57, 0
2, 24038, Control_c, 0, 64, 30
2, 24055, Note_on_c, 0, 65, 0
2, 24060, Control_c, 0, 64, 18
2, 24077, Control_c, 0, 64, 13
2, 24098, Control_c, 0, 67, 125
2, 24117, Control_c, 0, 67, 117
2, 24136, Control_c, 0, 64, 17
2, 24136, Control_c, 0, 67, 105
2, 24157, Control_c, 0, 64, 23
2, 24157, Control_c, 0, 67, 92
2, 24175, Control_c, 0, 64, 30
2, 24175, Control_c, 0, 67, 78
2, 24198, Control_c, 0, 64, 37
2, 24198, Control_c, 0, 67, 60
2, 24212, Control_c, 0, 64, 45
2, 24217, Control_c, 0, 67, 41
2, 24232, Control_c, 0, 64, 52
2, 24232, Control_c, 0, 67, 23
2, 24244, Note_on_c, 0, 59, 0
2, 24255, Control_c, 0, 64, 58
2, 24255, Control_c, 0, 67, 0
2, 24272, Control_c, 0, 64, 59
2, 24272, Note_on_c, 0, 68, 60
2, 24424, Control_c, 0, 64, 58
2, 24460, Control_c, 0, 64, 57
2, 24481, Control_c, 0, 64, 56
2, 24502, Control_c, 0, 64, 55
2, 24521, Control_c, 0, 64, 53
2, 24523, Note_on_c, 0, 56, 0
2, 24540, Control_c, 0, 64, 50
2, 24549, Note_on_c, 0, 54, 43
2, 24558, Control_c, 0, 64, 46
2, 24558, Note_on_c, 0, 61, 46
2, 24578, Control_c, 0, 64, 38
2, 24597, Control_c, 0, 64, 22
2, 24616, Control_c, 0, 64, 0
2, 24839, Note_on_c, 0, 63, 57
2, 24858, Note_on_c, 0, 68, 0
2, 25088, Note_on_c, 0, 57, 50
2, 25097, Note_on_c, 0, 64, 61
2, 25138, Note_on_c, 0, 61, 0
2, 25173, Note_on_c, 0, 63, 0
2, 25357, Note_on_c, 0, 56, 51
2, 25357, Note_on_c, 0, 61, 53
2, 25377, Note_on_c, 0, 64, 0
2, 25386, Note_on_c, 0, 57, 0
2, 25477, Note_on_c, 0, 54, 0
2, 25527, Note_on_c, 0, 66, 0
2, 25622, Note_on_c, 0, 56, 0
2, 25622, Note_on_c, 0, 57, 49
2, 25627, Note_on_c, 0, 63, 65
2, 25888, Note_on_c, 0, 66, 70
2, 25893, Note_on_c, 0, 54, 53
2, 25895, Note_on_c, 0, 57, 0
2, 25969, Note_on_c, 0, 61, 0
2, 26031, Note_on_c, 0, 63, 0
2, 26186, Note_on_c, 0, 69, 68
2, 26197, Note_on_c, 0, 60, 59
2, 26250, Note_on_c, 0, 54, 0
2, 26315, Note_on_c, 0, 66, 0
2, 26455, Note_on_c, 0, 54, 64
2, 26733, Note_on_c, 0, 52, 54
2, 26735, Note_on_c, 0, 68, 67
2, 26742, Note_on_c, 0, 61, 60
2, 26763, Note_on_c, 0, 54, 0
2, 26798, Note_on_c, 0, 69, 0
2, 26826, Note_on_c, 0, 60, 0
2, 27002, Note_on_c, 0, 51, 55
2, 27065, Note_on_c, 0, 52, 0
2, 27272, Note_on_c, 0, 66, 65
2, 27279, Note_on_c, 0, 49, 50
2, 27286, Note_on_c, 0, 63, 59
2, 27290, Note_on_c, 0, 51, 0
2, 27342, Note_on_c, 0, 68, 0
2, 27382, Note_on_c, 0, 61, 0
2, 27554, Note_on_c, 0, 48, 48
2, 27593, Note_on_c, 0, 49, 0
2, 27799, Note_on_c, 0, 48, 0
2, 27817, Note_on_c, 0, 49, 49
2, 27826, Note_on_c, 0, 64, 59
2, 27830, Note_on_c, 0, 56, 45
2, 27846, Note_on_c, 0, 63, 0
2, 28081, Note_on_c, 0, 56, 0
2, 28096, Note_on_c, 0, 58, 58
2, 28200, Note_on_c, 0, 66, 0
2, 28374, Note_on_c, 0, 59, 58
2, 28399, Note_on_c, 0, 58, 0
2, 28639, Note_on_c, 0, 56, 61
2, 28710, Note_on_c, 0, 59, 0
2, 28914, Note_on_c, 0, 56, 0
2, 28921, Note_on_c, 0, 58, 52
2, 28930, Note_on_c, 0, 73, 82
2, 29050, Control_c, 0, 64, 27
2, 29069, Control_c, 0, 64, 49
2, 29087, Control_c, 0, 64, 64
2, 29107, Control_c, 0, 64, 74
2, 29116, Note_on_c, 0, 58, 0
2, 29128, Control_c, 0, 64, 98
2, 29147, Control_c, 0, 64, 127
2, 29171, Note_on_c, 0, 49, 0
2, 29200, Note_on_c, 0, 61, 57
2, 29215, Note_on_c, 0, 64, 0
2, 29228, Note_on_c, 0, 73, 0
2, 29307, Note_on_c, 0, 61, 0
2, 29479, Note_on_c, 0, 43, 48
2, 29491, Control_c, 0, 64, 84
2, 29509, Note_on_c, 0, 70, 73
2, 29514, Control_c, 0, 64, 64
2, 29525, Note_on_c, 0, 64, 61
2, 29529, Control_c, 0, 64, 48
2, 29549, Control_c, 0, 64, 35
2, 29571, Control_c, 0, 64, 43
2, 29589, Control_c, 0, 64, 59
2, 29607, Control_c, 0, 64, 69
2, 29611, Note_on_c, 0, 43, 0
2, 29629, Control_c, 0, 64, 81
2, 29645, Control_c, 0, 64, 127
2, 29796, Note_on_c, 0, 61, 55
2, 29839, Control_c, 0, 64, 110
2, 29857, Control_c, 0, 64, 92
2, 29876, Control_c, 0, 64, 83
2, 29894, Control_c, 0, 64, 77
2, 29913, Control_c, 0, 64, 71
2, 29934, Control_c, 0, 64, 66
2, 29954, Control_c, 0, 64, 62
2, 29972, Control_c, 0, 64, 59
2, 29990, Control_c, 0, 64, 57
2, 30010, Control_c, 0, 64, 55
2, 30032, Control_c, 0, 64, 53
2, 30049, Control_c, 0, 64, 49
2, 30062, Note_on_c, 0, 59, 52
2, 30062, Note_on_c, 0, 63, 61
2, 30068, Control_c, 0, 64, 44
2, 30086, Control_c, 0, 64, 36
2, 30106, Control_c, 0, 64, 25
2, 30123, Note_on_c, 0, 61, 0
2, 30125, Control_c, 0, 64, 0
2, 30162, Note_on_c, 0, 64, 0
2, 30326, Note_on_c, 0, 58, 49
2, 30333, Note_on_c, 0, 59, 0
2, 30585, Note_on_c, 0, 58, 0
2, 30596, Note_on_c, 0, 61, 55
2, 30610, Note_on_c, 0, 56, 47
2, 30628, Note_on_c, 0, 63, 0
2, 30876, Note_on_c, 0, 55, 39
2, 30904, Note_on_c, 0, 56, 0
2, 31123, Note_on_c, 0, 61, 0
2, 31130, Note_on_c, 0, 56, 41
2, 31143, Note_on_c, 0, 59, 57
2, 31206, Note_on_c, 0, 55, 0
2, 31421, Note_on_c, 0, 68, 61
2, 31697, Note_on_c, 0, 67, 63
2, 31726, Note_on_c, 0, 70, 0
2, 31957, Note_on_c, 0, 70, 72
2, 31984, Note_on_c, 0, 67, 0
2, 32049, Note_on_c, 0, 68, 0
2, 32258, Note_on_c, 0, 68, 73
2, 32526, Note_on_c, 0, 65, 63
2, 32591, Note_on_c, 0, 59, 0
2, 32801, Note_on_c, 0, 62, 66
2, 32812, Note_on_c, 0, 58, 52
2, 32845, Note_on_c, 0, 56, 0
2, 32857, Note_on_c, 0, 65, 0
2, 32966, Note_on_c, 0, 68, 0
2, 33042, Note_on_c, 0, 70, 0
2, 33066, Note_on_c, 0, 56, 60
2, 33328, Note_on_c, 0, 63, 71
2, 33339, Note_on_c, 0, 54, 54
2, 33360, Note_on_c, 0, 56, 0
2, 33425, Note_on_c, 0, 62, 0
2, 33583, Note_on_c, 0, 54, 0
2, 33597, Note_on_c, 0, 53, 55
2, 33876, Note_on_c, 0, 65, 70
2, 33890, Note_on_c, 0, 51, 51
2, 33940, Note_on_c, 0, 53, 0
2, 34045, Note_on_c, 0, 63, 0
2, 34143, Note_on_c, 0, 50, 53
2, 34152, Note_on_c, 0, 51, 0
2, 34443, Note_on_c, 0, 66, 75
2, 34460, Note_on_c, 0, 51, 49
2, 34469, Note_on_c, 0, 50, 0
2, 34576, Note_on_c, 0, 65, 0
2, 34726, Note_on_c, 0, 53, 54
2, 34743, Note_on_c, 0, 51, 0
2, 34997, Note_on_c, 0, 63, 67
2, 35007, Note_on_c, 0, 54, 52
2, 35068, Note_on_c, 0, 58, 0
2, 35090, Note_on_c, 0, 53, 0
2, 35242, Note_on_c, 0, 46, 57
2, 35310, Note_on_c, 0, 54, 0
2, 35511, Note_on_c, 0, 56, 66
2, 35536, Note_on_c, 0, 47, 52
2, 35540, Note_on_c, 0, 63, 0
2, 35577, Note_on_c, 0, 46, 0
2, 35778, Note_on_c, 0, 51, 55
2, 35873, Note_on_c, 0, 47, 0
2, 36048, Note_on_c, 0, 65, 58
2, 36076, Note_on_c, 0, 49, 45
2, 36076, Note_on_c, 0, 51, 0
2, 36180, Note_on_c, 0, 66, 0
2, 36318, Note_on_c, 0, 51, 48
2, 36401, Note_on_c, 0, 49, 0
2, 36578, Note_on_c, 0, 56, 0
2, 36607, Note_on_c, 0, 51, 0
2, 36607, Note_on_c, 0, 61, 54
2, 36622, Note_on_c, 0, 53, 38
2, 36849, Note_on_c, 0, 44, 48
2, 37077, Note_on_c, 0, 53, 0
2, 37114, Note_on_c, 0, 44, 0
2, 37119, Note_on_c, 0, 46, 47
2, 37125, Note_on_c, 0, 54, 51
2, 37176, Note_on_c, 0, 61, 0
2, 37228, Control_c, 0, 64, 11
2, 37245, Control_c, 0, 64, 23
2, 37265, Control_c, 0, 64, 35
2, 37283, Control_c, 0, 64, 47
2, 37304, Control_c, 0, 64, 55
2, 37323, Control_c, 0, 64, 58
2, 37362, Control_c, 0, 64, 59
2, 37370, Note_on_c, 0, 49, 44
2, 37381, Control_c, 0, 64, 60
2, 37400, Control_c, 0, 64, 61
2, 37414, Note_on_c, 0, 46, 0
2, 37418, Control_c, 0, 64, 62
2, 37550, Note_on_c, 0, 54, 0
2, 37656, Note_on_c, 0, 63, 50
2, 37663, Note_on_c, 0, 47, 44
2, 37667, Control_c, 0, 64, 61
2, 37687, Control_c, 0, 64, 57
2, 37701, Note_on_c, 0, 49, 0
2, 37706, Control_c, 0, 64, 53
2, 37726, Control_c, 0, 64, 46
2, 37743, Control_c, 0, 64, 38
2, 37764, Control_c, 0, 64, 33
2, 37782, Control_c, 0, 64, 34
2, 37802, Control_c, 0, 64, 39
2, 37821, Control_c, 0, 64, 46
2, 37840, Control_c, 0, 64, 54
2, 37858, Control_c, 0, 64, 58
2, 37879, Control_c, 0, 64, 60
2, 37899, Control_c, 0, 64, 61
2, 37899, Note_on_c, 0, 49, 43
2, 37916, Control_c, 0, 64, 62
2, 37936, Control_c, 0, 64, 63
2, 37975, Note_on_c, 0, 47, 0
2, 37996, Control_c, 0, 64, 62
2, 38053, Note_on_c, 0, 65, 0
2, 38091, Control_c, 0, 64, 61
2, 38148, Control_c, 0, 64, 60
2, 38162, Note_on_c, 0, 49, 0
2, 38162, Note_on_c, 0, 63, 0
2, 38179, Note_on_c, 0, 51, 51
2, 38179, Note_on_c, 0, 59, 51
2, 38225, Control_c, 0, 64, 61
2, 38429, Note_on_c, 0, 42, 45
2, 38440, Note_on_c, 0, 63, 60
2, 38448, Note_on_c, 0, 51, 0
2, 38515, Control_c, 0, 64, 60
2, 38532, Control_c, 0, 64, 59
2, 38551, Control_c, 0, 64, 58
2, 38571, Control_c, 0, 64, 55
2, 38589, Control_c, 0, 64, 52
2, 38610, Control_c, 0, 64, 48
2, 38630, Control_c, 0, 64, 43
2, 38646, Control_c, 0, 64, 35
2, 38665, Control_c, 0, 64, 22
2, 38686, Control_c, 0, 64, 0
2, 38698, Note_on_c, 0, 44, 53
2, 38707, Note_on_c, 0, 65, 60
2, 38798, Note_on_c, 0, 42, 0
2, 38962, Note_on_c, 0, 47, 48
2, 38967, Note_on_c, 0, 63, 0
2, 38975, Note_on_c, 0, 66, 64
2, 39028, Note_on_c, 0, 65, 0
2, 39073, Note_on_c, 0, 44, 0
2, 39271, Note_on_c, 0, 38, 45
2, 39271, Note_on_c, 0, 68, 66
2, 39312, Note_on_c, 0, 47, 0
2, 39316, Note_on_c, 0, 59, 0
2, 39324, Note_on_c, 0, 66, 0
2, 39399, Control_c, 0, 64, 10
2, 39415, Control_c, 0, 64, 32
2, 39437, Control_c, 0, 64, 46
2, 39454, Control_c, 0, 64, 58
2, 39472, Control_c, 0, 64, 64
2, 39490, Control_c, 0, 64, 66
2, 39503, Note_on_c, 0, 38, 0
2, 39510, Control_c, 0, 64, 68
2, 39529, Control_c, 0, 64, 72
2, 39543, Note_on_c, 0, 59, 65
2, 39552, Control_c, 0, 64, 78
2, 39568, Control_c, 0, 64, 84
2, 39588, Control_c, 0, 64, 86
2, 39625, Control_c, 0, 64, 85
2, 39654, Note_on_c, 0, 68, 0
2, 39663, Note_on_c, 0, 59, 0
2, 39742, Control_c, 0, 64, 83
2, 39761, Control_c, 0, 64, 80
2, 39779, Control_c, 0, 64, 77
2, 39800, Control_c, 0, 64, 72
2, 39805, Note_on_c, 0, 50, 60
2, 39819, Note_on_c, 0, 58, 65
2, 39824, Control_c, 0, 64, 64
2, 39839, Control_c, 0, 64, 55
2, 39859, Control_c, 0, 64, 41
2, 39876, Control_c, 0, 64, 23
2, 39894, Control_c, 0, 64, 15
2, 39914, Control_c, 0, 64, 20
2, 39934, Control_c, 0, 64, 30
2, 39951, Control_c, 0, 64, 42
2, 39972, Control_c, 0, 64, 53
2, 39991, Control_c, 0, 64, 60
2, 40009, Control_c, 0, 64, 63
2, 40033, Note_on_c, 0, 50, 0
2, 40048, Control_c, 0, 64, 64
2, 40061, Note_on_c, 0, 62, 66
2, 40071, Control_c, 0, 64, 65
2, 40086, Control_c, 0, 64, 66
2, 40105, Control_c, 0, 64, 67
2, 40152, Note_on_c, 0, 58, 0
2, 40220, Control_c, 0, 64, 66
2, 40279, Control_c, 0, 64, 65
2, 40318, Control_c, 0, 64, 64
2, 40322, Note_on_c, 0, 46, 59
2, 40339, Control_c, 0, 64, 63
2, 40339, Note_on_c, 0, 65, 61
2, 40355, Control_c, 0, 64, 61
2, 40373, Control_c, 0, 64, 60
2, 40380, Note_on_c, 0, 62, 0
2, 40394, Control_c, 0, 64, 57
2, 40414, Control_c, 0, 64, 52
2, 40432, Control_c, 0, 64, 41
2, 40451, Control_c, 0, 64, 0
2, 40589, Note_on_c, 0, 68, 69
2, 40630, Note_on_c, 0, 65, 0
2, 40849, Note_on_c, 0, 51, 61
2, 40874, Note_on_c, 0, 66, 69
2, 40931, Note_on_c, 0, 46, 0
2, 41131, Note_on_c, 0, 53, 65
2, 41137, Note_on_c, 0, 58, 70
2, 41182, Note_on_c, 0, 51, 0
2, 41397, Note_on_c, 0, 54, 65
2, 41397, Note_on_c, 0, 63, 74
2, 41447, Note_on_c, 0, 68, 0
2, 41453, Note_on_c, 0, 66, 0
2, 41472, Note_on_c, 0, 53, 0
2, 41553, Note_on_c, 0, 58, 0
2, 41662, Note_on_c, 0, 51, 71
2, 41666, Note_on_c, 0, 66, 78
2, 41720, Note_on_c, 0, 54, 0
2, 41852, Note_on_c, 0, 63, 0
2, 41938, Note_on_c, 0, 53, 71
2, 41940, Note_on_c, 0, 68, 75
2, 41993, Note_on_c, 0, 51, 0
2, 42212, Note_on_c, 0, 56, 80
2, 42218, Note_on_c, 0, 66, 0
2, 42218, Note_on_c, 0, 71, 79
2, 42258, Control_c, 0, 64, 28
2, 42260, Note_on_c, 0, 53, 0
2, 42275, Control_c, 0, 64, 45
2, 42296, Control_c, 0, 64, 59
2, 42313, Control_c, 0, 64, 66
2, 42333, Control_c, 0, 64, 71
2, 42352, Control_c, 0, 64, 80
2, 42362, Note_on_c, 0, 56, 0
2, 42376, Control_c, 0, 64, 92
2, 42391, Control_c, 0, 64, 109
2, 42409, Control_c, 0, 64, 127
2, 42567, Note_on_c, 0, 62, 77
2, 42570, Note_on_c, 0, 59, 73
2, 42570, Note_on_c, 0, 66, 75
2, 42583, Control_c, 0, 64, 120
2, 42592, Note_on_c, 0, 68, 0
2, 42596, Note_on_c, 0, 68, 18
2, 42605, Control_c, 0, 64, 104
2, 42621, Control_c, 0, 64, 93
2, 42642, Control_c, 0, 64, 79
2, 42642, Note_on_c, 0, 71, 0
2, 42660, Control_c, 0, 64, 64
2, 42679, Control_c, 0, 64, 51
2, 42698, Control_c, 0, 64, 33
2, 42716, Control_c, 0, 64, 18
2, 42735, Control_c, 0, 64, 20
2, 42755, Control_c, 0, 64, 25
2, 42775, Control_c, 0, 64, 33
2, 42794, Control_c, 0, 64, 43
2, 42813, Note_on_c, 0, 65, 71
2, 42817, Control_c, 0, 64, 52
2, 42817, Note_on_c, 0, 66, 0
2, 42822, Note_on_c, 0, 68, 0
2, 42833, Control_c, 0, 64, 59
2, 42852, Control_c, 0, 64, 61
2, 42910, Control_c, 0, 64, 62
2, 42917, Note_on_c, 0, 65, 0
2, 42917, Note_on_c, 0, 66, 70
2, 42957, Note_on_c, 0, 68, 38
2, 42996, Note_on_c, 0, 65, 69
2, 42998, Note_on_c, 0, 68, 0
2, 43002, Note_on_c, 0, 66, 0
2, 43043, Control_c, 0, 64, 61
2, 43063, Note_on_c, 0, 66, 66
2, 43072, Note_on_c, 0, 65, 0
2, 43088, Note_on_c, 0, 68, 58
2, 43124, Control_c, 0, 64, 60
2, 43135, Note_on_c, 0, 65, 72
2, 43139, Note_on_c, 0, 68, 0
2, 43144, Control_c, 0, 64, 58
2, 43156, Note_on_c, 0, 58, 62
2, 43161, Control_c, 0, 64, 55
2, 43173, Note_on_c, 0, 59, 0
2, 43178, Control_c, 0, 64, 50
2, 43197, Control_c, 0, 64, 40
2, 43217, Control_c, 0, 64, 21
2, 43236, Note_on_c, 0, 66, 0
2, 43238, Control_c, 0, 64, 0
2, 43743, Note_on_c, 0, 56, 50
2, 43789, Note_on_c, 0, 58, 0
2, 43872, Control_c, 0, 64, 11
2, 43887, Control_c, 0, 64, 27
2, 43909, Control_c, 0, 64, 37
2, 43925, Note_on_c, 0, 62, 0
2, 43927, Control_c, 0, 64, 45
2, 43945, Control_c, 0, 64, 53
2, 43965, Control_c, 0, 64, 59
2, 43984, Control_c, 0, 64, 61
2, 44003, Control_c, 0, 64, 62
2, 44021, Control_c, 0, 64, 65
2, 44042, Control_c, 0, 64, 68
2, 44060, Control_c, 0, 64, 75
2, 44081, Control_c, 0, 64, 86
2, 44101, Control_c, 0, 64, 101
2, 44121, Control_c, 0, 64, 127
2, 44221, Note_on_c, 0, 65, 0
2, 44400, Note_on_c, 0, 63, 42
2, 44411, Note_on_c, 0, 56, 0
2, 44418, Note_on_c, 0, 54, 37
2, 44446, Control_c, 0, 64, 109
2, 44463, Control_c, 0, 64, 94
2, 44483, Control_c, 0, 64, 85
2, 44502, Control_c, 0, 64, 77
2, 44521, Control_c, 0, 64, 69
2, 44542, Control_c, 0, 64, 63
2, 44561, Control_c, 0, 64, 56
2, 44578, Control_c, 0, 64, 49
2, 44598, Control_c, 0, 64, 46
2, 44638, Control_c, 0, 64, 45
2, 44658, Control_c, 0, 64, 43
2, 44674, Control_c, 0, 64, 41
2, 44699, Control_c, 0, 64, 39
2, 44699, Note_on_c, 0, 65, 49
2, 44704, Note_on_c, 0, 54, 0
2, 44704, Note_on_c, 0, 56, 45
2, 44714, Control_c, 0, 64, 36
2, 44733, Control_c, 0, 64, 35
2, 44751, Control_c, 0, 64, 34
2, 44771, Control_c, 0, 64, 31
2, 44790, Control_c, 0, 64, 27
2, 44811, Control_c, 0, 64, 23
2, 44828, Control_c, 0, 64, 20
2, 44885, Control_c, 0, 64, 19
2, 44894, Note_on_c, 0, 63, 0
2, 44907, Control_c, 0, 64, 17
2, 44928, Control_c, 0, 64, 16
2, 44967, Note_on_c, 0, 66, 54
2, 44974, Note_on_c, 0, 58, 41
2, 44999, Note_on_c, 0, 65, 0
2, 45096, Note_on_c, 0, 56, 0
2, 45208, Note_on_c, 0, 58, 0
2, 45243, Note_on_c, 0, 54, 41
2, 45247, Note_on_c, 0, 63, 57
2, 45303, Note_on_c, 0, 66, 0
2, 45513, Note_on_c, 0, 56, 42
2, 45524, Note_on_c, 0, 65, 60
2, 45590, Note_on_c, 0, 54, 0
2, 45634, Control_c, 0, 64, 18
2, 45655, Control_c, 0, 64, 20
2, 45674, Control_c, 0, 64, 22
2, 45692, Control_c, 0, 64, 25
2, 45712, Control_c, 0, 64, 32
2, 45734, Control_c, 0, 64, 41
2, 45751, Control_c, 0, 64, 51
2, 45760, Note_on_c, 0, 56, 0
2, 45767, Note_on_c, 0, 63, 0
2, 45768, Control_c, 0, 64, 58
2, 45784, Note_on_c, 0, 59, 53
2, 45789, Note_on_c, 0, 68, 73
2, 45793, Control_c, 0, 64, 61
2, 45809, Control_c, 0, 64, 62
2, 45830, Control_c, 0, 64, 63
2, 45847, Control_c, 0, 64, 65
2, 45867, Control_c, 0, 64, 67
2, 45885, Control_c, 0, 64, 70
2, 45905, Control_c, 0, 64, 72
2, 45924, Control_c, 0, 64, 74
2, 45981, Control_c, 0, 64, 73
2, 46059, Control_c, 0, 64, 72
2, 46077, Control_c, 0, 64, 71
2, 46081, Note_on_c, 0, 71, 71
2, 46093, Note_on_c, 0, 50, 45
2, 46097, Control_c, 0, 64, 69
2, 46115, Control_c, 0, 64, 66
2, 46136, Control_c, 0, 64, 62
2, 46149, Note_on_c, 0, 59, 0
2, 46153, Control_c, 0, 64, 56
2, 46172, Control_c, 0, 64, 49
2, 46193, Control_c, 0, 64, 41
2, 46193, Note_on_c, 0, 65, 0
2, 46211, Control_c, 0, 64, 36
2, 46224, Note_on_c, 0, 68, 0
2, 46230, Control_c, 0, 64, 37
2, 46250, Control_c, 0, 64, 41
2, 46268, Control_c, 0, 64, 48
2, 46288, Control_c, 0, 64, 56
2, 46308, Control_c, 0, 64, 61
2, 46327, Control_c, 0, 64, 63
2, 46346, Note_on_c, 0, 51, 57
2, 46348, Control_c, 0, 64, 64
2, 46361, Note_on_c, 0, 50, 0
2, 46366, Control_c, 0, 64, 66
2, 46385, Control_c, 0, 64, 67
2, 46402, Control_c, 0, 64, 69
2, 46498, Control_c, 0, 64, 68
2, 46541, Control_c, 0, 64, 66
2, 46559, Control_c, 0, 64, 65
2, 46575, Control_c, 0, 64, 64
2, 46615, Note_on_c, 0, 51, 0
2, 46636, Control_c, 0, 64, 62
2, 46636, Note_on_c, 0, 53, 46
2, 46636, Note_on_c, 0, 70, 67
2, 46655, Control_c, 0, 64, 61
2, 46729, Control_c, 0, 64, 60
2, 46749, Control_c, 0, 64, 59
2, 46759, Note_on_c, 0, 71, 0
2, 46768, Control_c, 0, 64, 57
2, 46829, Control_c, 0, 64, 56
2, 46845, Control_c, 0, 64, 54
2, 46863, Control_c, 0, 64, 50
2, 46884, Control_c, 0, 64, 44
2, 46903, Note_on_c, 0, 46, 41
2, 46904, Control_c, 0, 64, 37
2, 46920, Control_c, 0, 64, 30
2, 46941, Control_c, 0, 64, 26
2, 46962, Control_c, 0, 64, 20
2, 46968, Note_on_c, 0, 53, 0
2, 46979, Control_c, 0, 64, 9
2, 46997, Control_c, 0, 64, 0
2, 47183, Note_on_c, 0, 68, 65
2, 47195, Note_on_c, 0, 50, 45
2, 47241, Note_on_c, 0, 70, 0
2, 47250, Control_c, 0, 64, 20
2, 47267, Control_c, 0, 64, 38
2, 47281, Note_on_c, 0, 46, 0
2, 47286, Control_c, 0, 64, 51
2, 47305, Control_c, 0, 64, 60
2, 47324, Control_c, 0, 64, 63
2, 47345, Control_c, 0, 64, 64
2, 47363, Control_c, 0, 64, 66
2, 47382, Control_c, 0, 64, 71
2, 47402, Control_c, 0, 64, 83
2, 47422, Control_c, 0, 64, 102
2, 47440, Control_c, 0, 64, 127
2, 47445, Note_on_c, 0, 50, 0
2, 47461, Note_on_c, 0, 53, 51
2, 47531, Note_on_c, 0, 53, 0
2, 47635, Control_c, 0, 64, 108
2, 47651, Control_c, 0, 64, 99
2, 47670, Control_c, 0, 64, 93
2, 47690, Control_c, 0, 64, 89
2, 47709, Control_c, 0, 64, 85
2, 47727, Control_c, 0, 64, 80
2, 47740, Note_on_c, 0, 51, 54
2, 47748, Control_c, 0, 64, 75
2, 47757, Note_on_c, 0, 66, 53
2, 47768, Control_c, 0, 64, 71
2, 47780, Note_on_c, 0, 63, 40
2, 47787, Control_c, 0, 64, 67
2, 47804, Control_c, 0, 64, 63
2, 47828, Control_c, 0, 64, 59
2, 47828, Note_on_c, 0, 68, 0
2, 47845, Control_c, 0, 64, 55
2, 47865, Control_c, 0, 64, 50
2, 47882, Control_c, 0, 64, 43
2, 47900, Control_c, 0, 64, 34
2, 47919, Control_c, 0, 64, 22
2, 47939, Control_c, 0, 64, 0
2, 48031, Note_on_c, 0, 61, 47
2, 48115, Note_on_c, 0, 63, 0
2, 48292, Note_on_c, 0, 59, 57
2, 48325, Note_on_c, 0, 61, 0
2, 48568, Note_on_c, 0, 63, 59
2, 48575, Note_on_c, 0, 59, 0
2, 48829, Note_on_c, 0, 61, 54
2, 48897, Note_on_c, 0, 63, 0
2, 48919, Control_c, 0, 64, 17
2, 48938, Control_c, 0, 64, 33
2, 48956, Control_c, 0, 64, 44
2, 48975, Control_c, 0, 64, 56
2, 48995, Control_c, 0, 64, 61
2, 49015, Control_c, 0, 64, 63
2, 49034, Control_c, 0, 64, 64
2, 49052, Control_c, 0, 64, 66
2, 49063, Note_on_c, 0, 51, 0
2, 49072, Control_c, 0, 64, 69
2, 49095, Control_c, 0, 64, 77
2, 49095, Note_on_c, 0, 68, 60
2, 49100, Note_on_c, 0, 58, 56
2, 49100, Note_on_c, 0, 61, 0
2, 49113, Control_c, 0, 64, 91
2, 49130, Control_c, 0, 64, 107
2, 49151, Control_c, 0, 64, 127
2, 49160, Note_on_c, 0, 58, 0
2, 49183, Note_on_c, 0, 66, 0
2, 49380, Control_c, 0, 64, 105
2, 49389, Note_on_c, 0, 49, 52
2, 49396, Note_on_c, 0, 55, 56
2, 49401, Control_c, 0, 64, 84
2, 49401, Note_on_c, 0, 70, 60
2, 49419, Control_c, 0, 64, 69
2, 49438, Control_c, 0, 64, 60
2, 49458, Control_c, 0, 64, 49
2, 49474, Control_c, 0, 64, 42
2, 49494, Control_c, 0, 64, 41
2, 49514, Control_c, 0, 64, 40
2, 49533, Control_c, 0, 64, 39
2, 49552, Control_c, 0, 64, 38
2, 49589, Control_c, 0, 64, 42
2, 49611, Control_c, 0, 64, 50
2, 49628, Control_c, 0, 64, 57
2, 49648, Control_c, 0, 64, 60
2, 49659, Note_on_c, 0, 68, 0
2, 49662, Note_on_c, 0, 71, 60
2, 49688, Note_on_c, 0, 70, 0
2, 49705, Control_c, 0, 64, 61
2, 49743, Control_c, 0, 64, 60
2, 49820, Control_c, 0, 64, 59
2, 49841, Control_c, 0, 64, 58
2, 49861, Control_c, 0, 64, 56
2, 49879, Control_c, 0, 64, 55
2, 49898, Control_c, 0, 64, 54
2, 49917, Control_c, 0, 64, 52
2, 49937, Note_on_c, 0, 56, 56
2, 49942, Control_c, 0, 64, 49
2, 49942, Note_on_c, 0, 73, 65
2, 49955, Control_c, 0, 64, 45
2, 49973, Control_c, 0, 64, 41
2, 49995, Control_c, 0, 64, 36
2, 50006, Note_on_c, 0, 55, 0
2, 50013, Control_c, 0, 64, 32
2, 50013, Note_on_c, 0, 71, 0
2, 50032, Control_c, 0, 64, 28
2, 50049, Control_c, 0, 64, 25
2, 50069, Control_c, 0, 64, 20
2, 50090, Control_c, 0, 64, 15
2, 50110, Control_c, 0, 64, 11
2, 50205, Note_on_c, 0, 70, 60
2, 50310, Note_on_c, 0, 73, 0
2, 50321, Control_c, 0, 64, 13
2, 50338, Control_c, 0, 64, 15
2, 50361, Control_c, 0, 64, 16
2, 50377, Control_c, 0, 64, 17
2, 50415, Control_c, 0, 64, 18
2, 50435, Control_c, 0, 64, 19
2, 50455, Control_c, 0, 64, 21
2, 50473, Control_c, 0, 64, 23
2, 50481, Note_on_c, 0, 58, 53
2, 50481, Note_on_c, 0, 71, 64
2, 50493, Control_c, 0, 64, 25
2, 50531, Note_on_c, 0, 56, 0
2, 50552, Note_on_c, 0, 70, 0
2, 50589, Control_c, 0, 64, 26
2, 50611, Control_c, 0, 64, 27
2, 50647, Control_c, 0, 64, 28
2, 50669, Control_c, 0, 64, 29
2, 50687, Control_c, 0, 64, 30
2, 50703, Control_c, 0, 64, 34
2, 50725, Control_c, 0, 64, 39
2, 50745, Control_c, 0, 64, 45
2, 50747, Note_on_c, 0, 73, 69
2, 50763, Control_c, 0, 64, 50
2, 50781, Control_c, 0, 64, 54
2, 50795, Note_on_c, 0, 71, 0
2, 50802, Control_c, 0, 64, 56
2, 50821, Control_c, 0, 64, 58
2, 50841, Control_c, 0, 64, 60
2, 50857, Control_c, 0, 64, 61
2, 50879, Control_c, 0, 64, 62
2, 51019, Note_on_c, 0, 47, 49
2, 51028, Note_on_c, 0, 75, 65
2, 51032, Control_c, 0, 64, 61
2, 51053, Control_c, 0, 64, 60
2, 51053, Note_on_c, 0, 58, 0
2, 51068, Control_c, 0, 64, 56
2, 51080, Note_on_c, 0, 49, 0
2, 51088, Control_c, 0, 64, 51
2, 51111, Control_c, 0, 64, 44
2, 51111, Note_on_c, 0, 73, 0
2, 51128, Control_c, 0, 64, 38
2, 51145, Control_c, 0, 64, 34
2, 51183, Control_c, 0, 64, 37
2, 51203, Control_c, 0, 64, 42
2, 51222, Control_c, 0, 64, 49
2, 51242, Control_c, 0, 64, 56
2, 51260, Control_c, 0, 64, 59
2, 51270, Note_on_c, 0, 73, 63
2, 51281, Control_c, 0, 64, 60
2, 51300, Control_c, 0, 64, 62
2, 51318, Control_c, 0, 64, 63
2, 51338, Control_c, 0, 64, 64
2, 51358, Control_c, 0, 64, 65
2, 51378, Control_c, 0, 64, 66
2, 51396, Control_c, 0, 64, 67
2, 51473, Control_c, 0, 64, 66
2, 51511, Control_c, 0, 64, 65
2, 51530, Control_c, 0, 64, 64
2, 51536, Note_on_c, 0, 56, 53
2, 51551, Control_c, 0, 64, 61
2, 51555, Note_on_c, 0, 71, 66
2, 51555, Note_on_c, 0, 75, 0
2, 51567, Control_c, 0, 64, 56
2, 51586, Control_c, 0, 64, 50
2, 51607, Control_c, 0, 64, 42
2, 51627, Control_c, 0, 64, 35
2, 51644, Control_c, 0, 64, 33
2, 51683, Control_c, 0, 64, 37
2, 51702, Control_c, 0, 64, 42
2, 51719, Control_c, 0, 64, 49
2, 51743, Control_c, 0, 64, 57
2, 51760, Control_c, 0, 64, 60
2, 51768, Note_on_c, 0, 73, 0
2, 51782, Control_c, 0, 64, 62
2, 51798, Control_c, 0, 64, 64
2, 51802, Note_on_c, 0, 71, 0
2, 51818, Control_c, 0, 64, 67
2, 51818, Note_on_c, 0, 75, 65
2, 51836, Control_c, 0, 64, 71
2, 51855, Control_c, 0, 64, 78
2, 51875, Control_c, 0, 64, 88
2, 51895, Control_c, 0, 64, 96
2, 51915, Control_c, 0, 64, 100
2, 51933, Control_c, 0, 64, 101
2, 52048, Control_c, 0, 64, 99
2, 52068, Control_c, 0, 64, 96
2, 52085, Control_c, 0, 64, 91
2, 52105, Control_c, 0, 64, 82
2, 52114, Note_on_c, 0, 64, 65
2, 52114, Note_on_c, 0, 73, 72
2, 52127, Control_c, 0, 64, 70
2, 52148, Control_c, 0, 64, 57
2, 52161, Control_c, 0, 64, 44
2, 52182, Control_c, 0, 64, 37
2, 52202, Control_c, 0, 64, 42
2, 52221, Control_c, 0, 64, 50
2, 52227, Note_on_c, 0, 56, 0
2, 52240, Control_c, 0, 64, 58
2, 52258, Control_c, 0, 64, 62
2, 52278, Control_c, 0, 64, 64
2, 52297, Control_c, 0, 64, 67
2, 52315, Control_c, 0, 64, 73
2, 52336, Control_c, 0, 64, 85
2, 52357, Control_c, 0, 64, 103
2, 52377, Control_c, 0, 64, 127
2, 52377, Note_on_c, 0, 70, 69
2, 52586, Control_c, 0, 64, 111
2, 52604, Control_c, 0, 64, 100
2, 52623, Control_c, 0, 64, 86
2, 52642, Control_c, 0, 64, 71
2, 52651, Note_on_c, 0, 67, 69
2, 52659, Note_on_c, 0, 46, 48
2, 52663, Control_c, 0, 64, 61
2, 52681, Control_c, 0, 64, 51
2, 52694, Note_on_c, 0, 47, 0
2, 52701, Control_c, 0, 64, 44
2, 52723, Control_c, 0, 64, 46
2, 52736, Note_on_c, 0, 70, 0
2, 52740, Control_c, 0, 64, 48
2, 52745, Note_on_c, 0, 75, 0
2, 52759, Control_c, 0, 64, 52
2, 52779, Control_c, 0, 64, 56
2, 52800, Control_c, 0, 64, 59
2, 52800, Note_on_c, 0, 73, 0
2, 52817, Control_c, 0, 64, 60
2, 52835, Control_c, 0, 64, 61
2, 52876, Control_c, 0, 64, 62
2, 52896, Note_on_c, 0, 64, 0
2, 52900, Note_on_c, 0, 49, 52
2, 52945, Note_on_c, 0, 46, 0
2, 53027, Control_c, 0, 64, 61
2, 53047, Control_c, 0, 64, 60
2, 53065, Control_c, 0, 64, 58
2, 53088, Control_c, 0, 64, 52
2, 53103, Control_c, 0, 64, 31
2, 53123, Control_c, 0, 64, 0
2, 53182, Note_on_c, 0, 68, 74
2, 53186, Note_on_c, 0, 47, 51
2, 53193, Note_on_c, 0, 63, 58
2, 53260, Note_on_c, 0, 67, 0
2, 53275, Note_on_c, 0, 49, 0
2, 53410, Control_c, 0, 64, 34
2, 53430, Control_c, 0, 64, 53
2, 53451, Control_c, 0, 64, 63
2, 53451, Note_on_c, 0, 46, 57
2, 53469, Control_c, 0, 64, 64
2, 53486, Control_c, 0, 64, 65
2, 53508, Note_on_c, 0, 47, 0
2, 53512, Control_c, 0, 64, 69
2, 53517, Note_on_c, 0, 63, 0
2, 53526, Control_c, 0, 64, 80
2, 53545, Control_c, 0, 64, 94
2, 53567, Control_c, 0, 64, 98
2, 53584, Control_c, 0, 64, 97
2, 53602, Control_c, 0, 64, 94
2, 53642, Control_c, 0, 64, 93
2, 53662, Control_c, 0, 64, 91
2, 53679, Control_c, 0, 64, 87
2, 53700, Control_c, 0, 64, 79
2, 53718, Note_on_c, 0, 70, 72
2, 53720, Control_c, 0, 64, 68
2, 53734, Note_on_c, 0, 44, 59
2, 53734, Note_on_c, 0, 61, 53
2, 53741, Control_c, 0, 64, 59
2, 53753, Note_on_c, 0, 46, 0
2, 53758, Control_c, 0, 64, 46
2, 53777, Control_c, 0, 64, 32
2, 53795, Control_c, 0, 64, 26
2, 53816, Control_c, 0, 64, 28
2, 53830, Note_on_c, 0, 68, 0
2, 53835, Control_c, 0, 64, 35
2, 53853, Control_c, 0, 64, 45
2, 53871, Control_c, 0, 64, 55
2, 53891, Control_c, 0, 64, 62
2, 53911, Control_c, 0, 64, 64
2, 53930, Control_c, 0, 64, 66
2, 53948, Control_c, 0, 64, 69
2, 53968, Control_c, 0, 64, 74
2, 53986, Control_c, 0, 64, 82
2, 53995, Note_on_c, 0, 44, 0
2, 54000, Note_on_c, 0, 43, 57
2, 54007, Control_c, 0, 64, 88
2, 54028, Control_c, 0, 64, 90
2, 54028, Note_on_c, 0, 61, 0
2, 54046, Control_c, 0, 64, 91
2, 54064, Control_c, 0, 64, 92
2, 54084, Control_c, 0, 64, 93
2, 54121, Control_c, 0, 64, 92
2, 54141, Control_c, 0, 64, 90
2, 54161, Control_c, 0, 64, 88
2, 54178, Note_on_c, 0, 70, 0
2, 54180, Control_c, 0, 64, 85
2, 54199, Control_c, 0, 64, 83
2, 54219, Control_c, 0, 64, 79
2, 54236, Control_c, 0, 64, 75
2, 54240, Note_on_c, 0, 43, 0
2, 54256, Control_c, 0, 64, 71
2, 54263, Note_on_c, 0, 44, 60
2, 54275, Note_on_c, 0, 71, 65
2, 54280, Control_c, 0, 64, 67
2, 54287, Note_on_c, 0, 59, 63
2, 54295, Control_c, 0, 64, 63
2, 54316, Control_c, 0, 64, 60
2, 54335, Control_c, 0, 64, 58
2, 54353, Control_c, 0, 64, 55
2, 54370, Control_c, 0, 64, 51
2, 54390, Control_c, 0, 64, 43
2, 54408, Control_c, 0, 64, 27
2, 54431, Control_c, 0, 64, 0
2, 54541, Note_on_c, 0, 42, 57
2, 54550, Note_on_c, 0, 63, 68
2, 54621, Note_on_c, 0, 44, 0
2, 54628, Note_on_c, 0, 71, 0
2, 54812, Note_on_c, 0, 40, 52
2, 54818, Note_on_c, 0, 42, 0
2, 54818, Note_on_c, 0, 68, 73
2, 54847, Note_on_c, 0, 59, 0
2, 55046, Note_on_c, 0, 63, 0
2, 55050, Note_on_c, 0, 44, 62
2, 55061, Note_on_c, 0, 70, 74
2, 55155, Note_on_c, 0, 68, 0
2, 55204, Note_on_c, 0, 40, 0
2, 55314, Note_on_c, 0, 42, 62
2, 55336, Note_on_c, 0, 72, 80
2, 55349, Note_on_c, 0, 70, 0
2, 55377, Note_on_c, 0, 44, 0
2, 55540, Control_c, 0, 64, 34
2, 55558, Control_c, 0, 64, 52
2, 55577, Control_c, 0, 64, 62
2, 55588, Note_on_c, 0, 39, 60
2, 55597, Control_c, 0, 64, 63
2, 55597, Note_on_c, 0, 73, 74
2, 55617, Control_c, 0, 64, 64
2, 55622, Note_on_c, 0, 72, 0
2, 55625, Note_on_c, 0, 42, 0
2, 55637, Control_c, 0, 64, 65
2, 55655, Control_c, 0, 64, 67
2, 55673, Control_c, 0, 64, 70
2, 55693, Control_c, 0, 64, 73
2, 55750, Control_c, 0, 64, 72
2, 55770, Control_c, 0, 64, 71
2, 55808, Control_c, 0, 64, 69
2, 55825, Control_c, 0, 64, 68
2, 55845, Control_c, 0, 64, 67
2, 55862, Control_c, 0, 64, 65
2, 55884, Control_c, 0, 64, 64
2, 55891, Note_on_c, 0, 75, 70
2, 55895, Note_on_c, 0, 36, 59
2, 55899, Note_on_c, 0, 66, 62
2, 55904, Control_c, 0, 64, 63
2, 55922, Control_c, 0, 64, 62
2, 55930, Note_on_c, 0, 73, 0
2, 55939, Control_c, 0, 64, 60
2, 55951, Note_on_c, 0, 39, 0
2, 55960, Control_c, 0, 64, 59
2, 55979, Control_c, 0, 64, 58
2, 55998, Control_c, 0, 64, 57
2, 56017, Control_c, 0, 64, 56
2, 56035, Control_c, 0, 64, 54
2, 56055, Control_c, 0, 64, 51
2, 56074, Control_c, 0, 64, 49
2, 56092, Control_c, 0, 64, 47
2, 56111, Control_c, 0, 64, 45
2, 56133, Control_c, 0, 64, 44
2, 56166, Note_on_c, 0, 68, 64
2, 56171, Control_c, 0, 64, 43
2, 56188, Control_c, 0, 64, 42
2, 56207, Control_c, 0, 64, 41
2, 56227, Control_c, 0, 64, 40
2, 56250, Control_c, 0, 64, 39
2, 56266, Note_on_c, 0, 66, 0
2, 56363, Control_c, 0, 64, 38
2, 56400, Control_c, 0, 64, 37
2, 56426, Note_on_c, 0, 37, 61
2, 56428, Note_on_c, 0, 69, 60
2, 56448, Note_on_c, 0, 36, 0
2, 56448, Note_on_c, 0, 68, 0
2, 56660, Note_on_c, 0, 69, 0
2, 56689, Note_on_c, 0, 66, 65
2, 56727, Control_c, 0, 64, 36
2, 56958, Note_on_c, 0, 39, 63
2, 56958, Note_on_c, 0, 73, 68
2, 57009, Note_on_c, 0, 37, 0
2, 57068, Note_on_c, 0, 75, 0
2, 57213, Note_on_c, 0, 72, 73
2, 57253, Note_on_c, 0, 73, 0
2, 57417, Control_c, 0, 64, 35
2, 57491, Note_on_c, 0, 40, 50
2, 57493, Control_c, 0, 64, 34
2, 57501, Note_on_c, 0, 73, 72
2, 57538, Note_on_c, 0, 39, 0
2, 57610, Control_c, 0, 64, 33
2, 57705, Control_c, 0, 64, 32
2, 57738, Note_on_c, 0, 72, 0
2, 57758, Note_on_c, 0, 75, 70
2, 57763, Note_on_c, 0, 42, 60
2, 57776, Note_on_c, 0, 40, 0
2, 57883, Note_on_c, 0, 66, 0
2, 58029, Note_on_c, 0, 44, 60
2, 58029, Note_on_c, 0, 73, 0
2, 58034, Note_on_c, 0, 76, 73
2, 58049, Note_on_c, 0, 42, 0
2, 58099, Note_on_c, 0, 75, 0
2, 58294, Note_on_c, 0, 40, 57
2, 58296, Note_on_c, 0, 73, 77
2, 58364, Note_on_c, 0, 44, 0
2, 58391, Note_on_c, 0, 76, 0
2, 58455, Control_c, 0, 64, 31
2, 58548, Note_on_c, 0, 75, 73
2, 58553, Note_on_c, 0, 42, 59
2, 58607, Note_on_c, 0, 40, 0
2, 58760, Note_on_c, 0, 73, 0
2, 58805, Note_on_c, 0, 78, 79
2, 58807, Note_on_c, 0, 45, 55
2, 58872, Note_on_c, 0, 42, 0
2, 59076, Note_on_c, 0, 81, 77
2, 59080, Note_on_c, 0, 75, 0
2, 59087, Note_on_c, 0, 39, 52
2, 59098, Note_on_c, 0, 72, 63
2, 59113, Note_on_c, 0, 45, 0
2, 59167, Control_c, 0, 64, 30
2, 59209, Note_on_c, 0, 78, 0
2, 59244, Control_c, 0, 64, 29
2, 59302, Control_c, 0, 64, 28
2, 59363, Note_on_c, 0, 40, 54
2, 59420, Note_on_c, 0, 39, 0
2, 59654, Note_on_c, 0, 73, 75
2, 59654, Note_on_c, 0, 80, 75
2, 59658, Note_on_c, 0, 42, 58
2, 59679, Note_on_c, 0, 40, 0
2, 59715, Note_on_c, 0, 81, 0
2, 59721, Note_on_c, 0, 72, 0
2, 59744, Control_c, 0, 64, 27
2, 59764, Control_c, 0, 64, 26
2, 59840, Control_c, 0, 64, 25
2, 59910, Note_on_c, 0, 44, 67
2, 59957, Note_on_c, 0, 42, 0
2, 60183, Note_on_c, 0, 78, 79
2, 60192, Note_on_c, 0, 75, 77
2, 60204, Note_on_c, 0, 46, 63
2, 60214, Note_on_c, 0, 44, 0
2, 60274, Note_on_c, 0, 80, 0
2, 60334, Note_on_c, 0, 73, 0
2, 60463, Note_on_c, 0, 48, 64
2, 60491, Note_on_c, 0, 46, 0
2, 60758, Note_on_c, 0, 76, 82
2, 60770, Note_on_c, 0, 49, 54
2, 60781, Note_on_c, 0, 48, 0
2, 60893, Note_on_c, 0, 75, 0
2, 61019, Note_on_c, 0, 51, 63
2, 61022, Note_on_c, 0, 78, 0
2, 61124, Note_on_c, 0, 49, 0
2, 61288, Note_on_c, 0, 73, 77
2, 61293, Note_on_c, 0, 51, 0
2, 61300, Note_on_c, 0, 52, 56
2, 61550, Note_on_c, 0, 49, 60
2, 61550, Note_on_c, 0, 52, 0
2, 61824, Note_on_c, 0, 71, 75
2, 61839, Note_on_c, 0, 52, 58
2, 61870, Note_on_c, 0, 49, 0
2, 61897, Note_on_c, 0, 73, 0
2, 61991, Control_c, 0, 64, 26
2, 62090, Note_on_c, 0, 56, 64
2, 62097, Note_on_c, 0, 52, 0
2, 62360, Note_on_c, 0, 70, 74
2, 62369, Note_on_c, 0, 54, 55
2, 62373, Note_on_c, 0, 76, 0
2, 62405, Note_on_c, 0, 56, 0
2, 62474, Note_on_c, 0, 71, 0
2, 62547, Control_c, 0, 64, 25
2, 62566, Control_c, 0, 64, 23
2, 62588, Control_c, 0, 64, 18
2, 62604, Control_c, 0, 64, 0
2, 62628, Note_on_c, 0, 56, 63
2, 62680, Note_on_c, 0, 54, 0
2, 62894, Note_on_c, 0, 78, 85
2, 62896, Note_on_c, 0, 58, 51
2, 62936, Note_on_c, 0, 56, 0
2, 63131, Note_on_c, 0, 54, 66
2, 63197, Note_on_c, 0, 58, 0
2, 63412, Note_on_c, 0, 58, 59
2, 63425, Note_on_c, 0, 76, 82
2, 63479, Note_on_c, 0, 54, 0
2, 63496, Note_on_c, 0, 78, 0
2, 63526, Control_c, 0, 64, 9
2, 63548, Control_c, 0, 64, 34
2, 63565, Control_c, 0, 64, 53
2, 63587, Control_c, 0, 64, 62
2, 63604, Control_c, 0, 64, 66
2, 63620, Control_c, 0, 64, 71
2, 63641, Control_c, 0, 64, 86
2, 63658, Note_on_c, 0, 58, 0
2, 63660, Control_c, 0, 64, 127
2, 63688, Note_on_c, 0, 61, 53
2, 63730, Note_on_c, 0, 61, 0
2, 63945, Note_on_c, 0, 75, 72
2, 63947, Note_on_c, 0, 47, 50
2, 63988, Control_c, 0, 64, 77
2, 63988, Note_on_c, 0, 76, 0
2, 64007, Control_c, 0, 64, 63
2, 64024, Control_c, 0, 64, 52
2, 64045, Control_c, 0, 64, 48
2, 64068, Control_c, 0, 64, 53
2, 64082, Control_c, 0, 64, 59
2, 64103, Control_c, 0, 64, 62
2, 64141, Control_c, 0, 64, 63
2, 64161, Control_c, 0, 64, 64
2, 64199, Control_c, 0, 64, 63
2, 64212, Note_on_c, 0, 49, 49
2, 64294, Control_c, 0, 64, 62
2, 64388, Control_c, 0, 64, 61
2, 64410, Control_c, 0, 64, 60
2, 64428, Control_c, 0, 64, 59
2, 64478, Note_on_c, 0, 71, 63
2, 64486, Note_on_c, 0, 51, 51
2, 64490, Control_c, 0, 64, 58
2, 64499, Note_on_c, 0, 47, 0
2, 64519, Note_on_c, 0, 49, 0
2, 64524, Control_c, 0, 64, 56
2, 64544, Control_c, 0, 64, 55
2, 64564, Control_c, 0, 64, 53
2, 64564, Note_on_c, 0, 70, 0
2, 64585, Control_c, 0, 64, 51
2, 64603, Control_c, 0, 64, 50
2, 64621, Control_c, 0, 64, 49
2, 64640, Control_c, 0, 64, 48
2, 64659, Control_c, 0, 64, 47
2, 64677, Control_c, 0, 64, 46
2, 64697, Control_c, 0, 64, 44
2, 64717, Control_c, 0, 64, 40
2, 64739, Control_c, 0, 64, 37
2, 64743, Note_on_c, 0, 47, 50
2, 64755, Control_c, 0, 64, 34
2, 64755, Note_on_c, 0, 51, 0
2, 64775, Control_c, 0, 64, 33
2, 64812, Control_c, 0, 64, 32
2, 64831, Control_c, 0, 64, 30
2, 64851, Control_c, 0, 64, 28
2, 64870, Control_c, 0, 64, 27
2, 64889, Control_c, 0, 64, 26
2, 64907, Control_c, 0, 64, 25
2, 64930, Control_c, 0, 64, 24
2, 64948, Control_c, 0, 64, 22
2, 64966, Control_c, 0, 64, 21
2, 64985, Control_c, 0, 64, 20
2, 65005, Control_c, 0, 64, 19
2, 65029, Control_c, 0, 64, 18
2, 65029, Note_on_c, 0, 70, 65
2, 65035, Note_on_c, 0, 51, 58
2, 65043, Control_c, 0, 64, 17
2, 65062, Control_c, 0, 64, 16
2, 65085, Control_c, 0, 64, 15
2, 65087, Note_on_c, 0, 47, 0
2, 65091, Note_on_c, 0, 71, 0
2, 65102, Control_c, 0, 64, 12
2, 65122, Control_c, 0, 64, 10
2, 65139, Control_c, 0, 64, 9
2, 65158, Control_c, 0, 64, 8
2, 65273, Control_c, 0, 64, 0
2, 65296, Note_on_c, 0, 54, 59
2, 65377, Note_on_c, 0, 51, 0
2, 65566, Note_on_c, 0, 52, 62
2, 65566, Note_on_c, 0, 68, 68
2, 65596, Note_on_c, 0, 54, 0
2, 65630, Note_on_c, 0, 70, 0
2, 65742, Note_on_c, 0, 75, 0
2, 65775, Control_c, 0, 64, 8
2, 65790, Control_c, 0, 64, 10
2, 65811, Note_on_c, 0, 54, 61
2, 65833, Control_c, 0, 64, 11
2, 65850, Control_c, 0, 64, 13
2, 65854, Note_on_c, 0, 52, 0
2, 65871, Control_c, 0, 64, 15
2, 65887, Control_c, 0, 64, 18
2, 65905, Control_c, 0, 64, 20
2, 65926, Control_c, 0, 64, 22
2, 66102, Note_on_c, 0, 56, 50
2, 66102, Note_on_c, 0, 76, 70
2, 66137, Control_c, 0, 64, 21
2, 66155, Control_c, 0, 64, 20
2, 66176, Control_c, 0, 64, 19
2, 66181, Note_on_c, 0, 54, 0
2, 66195, Control_c, 0, 64, 18
2, 66212, Control_c, 0, 64, 17
2, 66233, Control_c, 0, 64, 16
2, 66253, Control_c, 0, 64, 15
2, 66272, Control_c, 0, 64, 13
2, 66293, Control_c, 0, 64, 10
2, 66313, Control_c, 0, 64, 0
2, 66362, Note_on_c, 0, 52, 56
2, 66447, Note_on_c, 0, 56, 0
2, 66621, Note_on_c, 0, 75, 69
2, 66625, Note_on_c, 0, 56, 48
2, 66663, Note_on_c, 0, 52, 0
2, 66675, Note_on_c, 0, 76, 0
2, 66736, Control_c, 0, 64, 15
2, 66752, Control_c, 0, 64, 28
2, 66774, Control_c, 0, 64, 41
2, 66789, Control_c, 0, 64, 52
2, 66809, Control_c, 0, 64, 61
2, 66829, Control_c, 0, 64, 64
2, 66847, Control_c, 0, 64, 66
2, 66866, Control_c, 0, 64, 71
2, 66887, Control_c, 0, 64, 81
2, 66908, Control_c, 0, 64, 99
2, 66914, Note_on_c, 0, 59, 54
2, 66918, Note_on_c, 0, 56, 0
2, 66926, Control_c, 0, 64, 127
2, 67028, Note_on_c, 0, 59, 0
2, 67186, Note_on_c, 0, 46, 45
2, 67190, Note_on_c, 0, 73, 64
2, 67215, Control_c, 0, 64, 122
2, 67235, Control_c, 0, 64, 89
2, 67235, Note_on_c, 0, 75, 0
2, 67255, Control_c, 0, 64, 70
2, 67275, Control_c, 0, 64, 59
2, 67293, Control_c, 0, 64, 46
2, 67311, Control_c, 0, 64, 42
2, 67331, Control_c, 0, 64, 46
2, 67349, Control_c, 0, 64, 53
2, 67368, Control_c, 0, 64, 58
2, 67390, Control_c, 0, 64, 60
2, 67409, Control_c, 0, 64, 62
2, 67425, Control_c, 0, 64, 64
2, 67439, Note_on_c, 0, 47, 46
2, 67446, Control_c, 0, 64, 66
2, 67468, Control_c, 0, 64, 68
2, 67510, Note_on_c, 0, 46, 0
2, 67541, Control_c, 0, 64, 67
2, 67618, Control_c, 0, 64, 66
2, 67656, Control_c, 0, 64, 65
2, 67696, Control_c, 0, 64, 64
2, 67719, Control_c, 0, 64, 63
2, 67719, Note_on_c, 0, 49, 47
2, 67727, Note_on_c, 0, 70, 53
2, 67753, Control_c, 0, 64, 62
2, 67759, Note_on_c, 0, 47, 0
2, 67766, Note_on_c, 0, 68, 0
2, 67793, Control_c, 0, 64, 61
2, 67810, Control_c, 0, 64, 59
2, 67829, Control_c, 0, 64, 57
2, 67849, Control_c, 0, 64, 56
2, 67886, Control_c, 0, 64, 55
2, 67905, Control_c, 0, 64, 54
2, 67927, Control_c, 0, 64, 52
2, 67937, Note_on_c, 0, 49, 0
2, 67944, Control_c, 0, 64, 49
2, 67963, Control_c, 0, 64, 47
2, 67971, Note_on_c, 0, 46, 47
2, 67987, Control_c, 0, 64, 45
2, 68041, Control_c, 0, 64, 44
2, 68062, Control_c, 0, 64, 43
2, 68080, Control_c, 0, 64, 41
2, 68118, Control_c, 0, 64, 40
2, 68194, Control_c, 0, 64, 39
2, 68234, Control_c, 0, 64, 38
2, 68259, Note_on_c, 0, 49, 45
2, 68259, Note_on_c, 0, 68, 57
2, 68293, Note_on_c, 0, 70, 0
2, 68321, Note_on_c, 0, 46, 0
2, 68348, Control_c, 0, 64, 39
2, 68370, Control_c, 0, 64, 42
2, 68387, Control_c, 0, 64, 49
2, 68405, Control_c, 0, 64, 55
2, 68427, Control_c, 0, 64, 57
2, 68446, Control_c, 0, 64, 59
2, 68464, Control_c, 0, 64, 60
2, 68483, Control_c, 0, 64, 62
2, 68503, Control_c, 0, 64, 63
2, 68533, Note_on_c, 0, 52, 46
2, 68562, Control_c, 0, 64, 62
2, 68562, Note_on_c, 0, 49, 0
2, 68580, Control_c, 0, 64, 61
2, 68636, Control_c, 0, 64, 60
2, 68656, Control_c, 0, 64, 59
2, 68674, Control_c, 0, 64, 57
2, 68693, Control_c, 0, 64, 56
2, 68751, Control_c, 0, 64, 55
2, 68785, Note_on_c, 0, 52, 0
2, 68789, Control_c, 0, 64, 54
2, 68800, Note_on_c, 0, 51, 54
2, 68809, Control_c, 0, 64, 53
2, 68814, Note_on_c, 0, 67, 51
2, 68830, Control_c, 0, 64, 52
2, 68849, Control_c, 0, 64, 51
2, 68867, Control_c, 0, 64, 49
2, 68884, Control_c, 0, 64, 47
2, 68906, Control_c, 0, 64, 45
2, 68924, Control_c, 0, 64, 41
2, 68945, Control_c, 0, 64, 38
2, 68945, Note_on_c, 0, 68, 0
2, 68961, Control_c, 0, 64, 34
2, 68982, Control_c, 0, 64, 28
2, 69002, Control_c, 0, 64, 17
2, 69019, Control_c, 0, 64, 0
2, 69070, Note_on_c, 0, 53, 48
2, 69138, Note_on_c, 0, 51, 0
2, 69364, Note_on_c, 0, 53, 0
2, 69369, Note_on_c, 0, 75, 68
2, 69379, Note_on_c, 0, 55, 46
2, 69469, Note_on_c, 0, 73, 0
2, 69616, Note_on_c, 0, 55, 0
2, 69622, Note_on_c, 0, 51, 52
2, 69906, Note_on_c, 0, 73, 65
2, 69913, Note_on_c, 0, 55, 43
2, 69924, Note_on_c, 0, 51, 0
2, 69982, Control_c, 0, 64, 9
2, 69990, Note_on_c, 0, 75, 0
2, 70000, Control_c, 0, 64, 31
2, 70018, Control_c, 0, 64, 44
2, 70041, Control_c, 0, 64, 58
2, 70056, Control_c, 0, 64, 63
2, 70072, Note_on_c, 0, 67, 0
2, 70077, Control_c, 0, 64, 65
2, 70096, Control_c, 0, 64, 66
2, 70113, Control_c, 0, 64, 68
2, 70133, Control_c, 0, 64, 73
2, 70153, Control_c, 0, 64, 80
2, 70165, Note_on_c, 0, 55, 0
2, 70176, Control_c, 0, 64, 87
2, 70183, Note_on_c, 0, 58, 46
2, 70193, Control_c, 0, 64, 89
2, 70230, Control_c, 0, 64, 88
2, 70345, Control_c, 0, 64, 86
2, 70363, Control_c, 0, 64, 85
2, 70385, Control_c, 0, 64, 84
2, 70403, Control_c, 0, 64, 83
2, 70423, Control_c, 0, 64, 82
2, 70441, Control_c, 0, 64, 80
2, 70459, Control_c, 0, 64, 78
2, 70464, Note_on_c, 0, 71, 56
2, 70473, Note_on_c, 0, 56, 47
2, 70476, Note_on_c, 0, 68, 48
2, 70481, Control_c, 0, 64, 75
2, 70499, Control_c, 0, 64, 71
2, 70517, Control_c, 0, 64, 66
2, 70539, Control_c, 0, 64, 61
2, 70542, Note_on_c, 0, 58, 0
2, 70557, Control_c, 0, 64, 53
2, 70576, Control_c, 0, 64, 44
2, 70595, Control_c, 0, 64, 39
2, 70653, Control_c, 0, 64, 41
2, 70672, Control_c, 0, 64, 44
2, 70692, Control_c, 0, 64, 48
2, 70709, Control_c, 0, 64, 53
2, 70720, Note_on_c, 0, 58, 45
2, 70725, Note_on_c, 0, 70, 58
2, 70729, Control_c, 0, 64, 57
2, 70740, Note_on_c, 0, 56, 0
2, 70744, Note_on_c, 0, 71, 0
2, 70749, Control_c, 0, 64, 58
2, 70767, Control_c, 0, 64, 59
2, 70772, Note_on_c, 0, 68, 0
2, 70786, Control_c, 0, 64, 60
2, 70806, Control_c, 0, 64, 61
2, 70825, Control_c, 0, 64, 62
2, 70877, Note_on_c, 0, 73, 0
2, 70980, Control_c, 0, 64, 61
2, 70997, Note_on_c, 0, 59, 47
2, 70997, Note_on_c, 0, 68, 65
2, 71011, Note_on_c, 0, 58, 0
2, 71022, Note_on_c, 0, 70, 0
2, 71075, Control_c, 0, 64, 60
2, 71170, Control_c, 0, 64, 59
2, 71240, Note_on_c, 0, 51, 47
2, 71248, Control_c, 0, 64, 58
2, 71250, Note_on_c, 0, 71, 64
2, 71286, Control_c, 0, 64, 56
2, 71304, Control_c, 0, 64, 55
2, 71401, Control_c, 0, 64, 54
2, 71439, Control_c, 0, 64, 53
2, 71453, Note_on_c, 0, 68, 0
2, 71504, Note_on_c, 0, 52, 48
2, 71504, Note_on_c, 0, 73, 66
2, 71518, Note_on_c, 0, 51, 0
2, 71547, Note_on_c, 0, 59, 0
2, 71557, Note_on_c, 0, 71, 0
2, 71651, Control_c, 0, 64, 52
2, 71752, Note_on_c, 0, 76, 65
2, 71760, Note_on_c, 0, 56, 48
2, 71780, Note_on_c, 0, 73, 0
2, 71804, Control_c, 0, 64, 51
2, 71871, Note_on_c, 0, 52, 0
2, 72019, Note_on_c, 0, 54, 49
2, 72033, Note_on_c, 0, 70, 63
2, 72063, Note_on_c, 0, 56, 0
2, 72111, Control_c, 0, 64, 52
2, 72121, Note_on_c, 0, 76, 0
2, 72188, Control_c, 0, 64, 53
2, 72227, Control_c, 0, 64, 54
2, 72247, Control_c, 0, 64, 55
2, 72279, Note_on_c, 0, 56, 46
2, 72284, Control_c, 0, 64, 56
2, 72290, Note_on_c, 0, 68, 65
2, 72323, Control_c, 0, 64, 57
2, 72341, Control_c, 0, 64, 58
2, 72352, Note_on_c, 0, 70, 0
2, 72359, Note_on_c, 0, 54, 0
2, 72551, Control_c, 0, 64, 57
2, 72563, Note_on_c, 0, 58, 49
2, 72563, Note_on_c, 0, 66, 63
2, 72586, Note_on_c, 0, 56, 0
2, 72591, Note_on_c, 0, 68, 0
2, 72649, Control_c, 0, 64, 56
2, 72705, Control_c, 0, 64, 55
2, 72804, Control_c, 0, 64, 54
2, 72819, Note_on_c, 0, 49, 45
2, 72828, Note_on_c, 0, 70, 61
2, 72879, Control_c, 0, 64, 53
2, 72958, Control_c, 0, 64, 52
2, 73069, Note_on_c, 0, 51, 54
2, 73074, Note_on_c, 0, 49, 0
2, 73078, Note_on_c, 0, 71, 68
2, 73111, Note_on_c, 0, 58, 0
2, 73166, Control_c, 0, 64, 53
2, 73254, Note_on_c, 0, 70, 0
2, 73264, Control_c, 0, 64, 52
2, 73327, Note_on_c, 0, 54, 53
2, 73336, Note_on_c, 0, 75, 66
2, 73362, Note_on_c, 0, 66, 0
2, 73366, Note_on_c, 0, 51, 0
2, 73398, Control_c, 0, 64, 51
2, 73474, Control_c, 0, 64, 50
2, 73485, Note_on_c, 0, 71, 0
2, 73555, Control_c, 0, 64, 49
2, 73580, Note_on_c, 0, 68, 64
2, 73590, Note_on_c, 0, 52, 56
2, 73607, Note_on_c, 0, 54, 0
2, 73612, Control_c, 0, 64, 48
2, 73636, Note_on_c, 0, 75, 0
2, 73762, Control_c, 0, 64, 49
2, 73821, Control_c, 0, 64, 50
2, 73834, Note_on_c, 0, 75, 68
2, 73838, Note_on_c, 0, 54, 54
2, 73842, Control_c, 0, 64, 51
2, 73842, Note_on_c, 0, 52, 0
2, 73879, Control_c, 0, 64, 52
2, 74086, Note_on_c, 0, 73, 72
2, 74090, Note_on_c, 0, 56, 53
2, 74121, Note_on_c, 0, 54, 0
2, 74138, Note_on_c, 0, 75, 0
2, 74149, Control_c, 0, 64, 51
2, 74346, Note_on_c, 0, 47, 48
2, 74346, Note_on_c, 0, 71, 68
2, 74357, Control_c, 0, 64, 50
2, 74457, Note_on_c, 0, 68, 0
2, 74473, Control_c, 0, 64, 49
2, 74493, Control_c, 0, 64, 48
2, 74512, Control_c, 0, 64, 47
2, 74514, Note_on_c, 0, 56, 0
2, 74551, Control_c, 0, 64, 46
2, 74568, Control_c, 0, 64, 44
2, 74589, Control_c, 0, 64, 41
2, 74605, Note_on_c, 0, 49, 54
2, 74605, Note_on_c, 0, 70, 69
2, 74610, Control_c, 0, 64, 37
2, 74616, Note_on_c, 0, 47, 0
2, 74629, Control_c, 0, 64, 35
2, 74644, Control_c, 0, 64, 34
2, 74664, Note_on_c, 0, 71, 0
2, 74718, Control_c, 0, 64, 33
2, 74778, Control_c, 0, 64, 35
2, 74795, Control_c, 0, 64, 39
2, 74817, Control_c, 0, 64, 47
2, 74834, Control_c, 0, 64, 55
2, 74855, Note_on_c, 0, 52, 56
2, 74859, Control_c, 0, 64, 61
2, 74859, Note_on_c, 0, 68, 70
2, 74871, Control_c, 0, 64, 63
2, 74891, Control_c, 0, 64, 65
2, 74913, Control_c, 0, 64, 67
2, 74913, Note_on_c, 0, 49, 0
2, 74930, Control_c, 0, 64, 72
2, 74930, Note_on_c, 0, 70, 0
2, 74950, Control_c, 0, 64, 78
2, 74969, Control_c, 0, 64, 83
2, 74990, Control_c, 0, 64, 84
2, 75026, Control_c, 0, 64, 83
2, 75047, Control_c, 0, 64, 82
2, 75084, Control_c, 0, 64, 80
2, 75096, Note_on_c, 0, 67, 68
2, 75105, Control_c, 0, 64, 78
2, 75105, Note_on_c, 0, 52, 0
2, 75116, Note_on_c, 0, 51, 55
2, 75123, Control_c, 0, 64, 74
2, 75129, Note_on_c, 0, 68, 0
2, 75144, Control_c, 0, 64, 69
2, 75160, Control_c, 0, 64, 66
2, 75180, Control_c, 0, 64, 63
2, 75199, Control_c, 0, 64, 61
2, 75221, Control_c, 0, 64, 59
2, 75221, Note_on_c, 0, 73, 0
2, 75237, Control_c, 0, 64, 56
2, 75257, Control_c, 0, 64, 51
2, 75276, Control_c, 0, 64, 41
2, 75296, Control_c, 0, 64, 31
2, 75315, Control_c, 0, 64, 19
2, 75334, Control_c, 0, 64, 0
2, 75356, Note_on_c, 0, 53, 55
2, 75363, Note_on_c, 0, 51, 0
2, 75363, Note_on_c, 0, 68, 70
2, 75582, Note_on_c, 0, 67, 0
2, 75632, Note_on_c, 0, 70, 65
2, 75645, Note_on_c, 0, 55, 51
2, 75676, Note_on_c, 0, 53, 0
2, 75726, Note_on_c, 0, 68, 0
2, 75893, Note_on_c, 0, 46, 53
2, 75898, Note_on_c, 0, 67, 69
2, 75963, Note_on_c, 0, 70, 0
2, 76178, Note_on_c, 0, 47, 56
2, 76178, Note_on_c, 0, 68, 72
2, 76196, Note_on_c, 0, 55, 0
2, 76213, Note_on_c, 0, 46, 0
2, 76432, Note_on_c, 0, 51, 57
2, 76443, Note_on_c, 0, 71, 74
2, 76479, Note_on_c, 0, 47, 0
2, 76503, Note_on_c, 0, 68, 0
2, 76537, Note_on_c, 0, 67, 0
2, 76724, Note_on_c, 0, 76, 74
2, 76735, Note_on_c, 0, 49, 49
2, 76744, Note_on_c, 0, 68, 60
2, 76749, Note_on_c, 0, 51, 0
2, 76751, Note_on_c, 0, 71, 0
2, 76966, Control_c, 0, 64, 28
2, 76983, Control_c, 0, 64, 45
2, 76994, Note_on_c, 0, 51, 67
2, 76999, Note_on_c, 0, 76, 0
2, 77003, Control_c, 0, 64, 57
2, 77023, Note_on_c, 0, 68, 0
2, 77027, Control_c, 0, 64, 63
2, 77042, Control_c, 0, 64, 65
2, 77061, Control_c, 0, 64, 68
2, 77061, Note_on_c, 0, 49, 0
2, 77080, Control_c, 0, 64, 75
2, 77102, Control_c, 0, 64, 87
2, 77119, Control_c, 0, 64, 109
2, 77141, Control_c, 0, 64, 127
2, 77263, Note_on_c, 0, 76, 77
2, 77275, Control_c, 0, 64, 103
2, 77275, Note_on_c, 0, 52, 59
2, 77278, Note_on_c, 0, 68, 72
2, 77295, Control_c, 0, 64, 81
2, 77312, Control_c, 0, 64, 65
2, 77329, Note_on_c, 0, 51, 0
2, 77332, Control_c, 0, 64, 49
2, 77349, Control_c, 0, 64, 28
2, 77368, Control_c, 0, 64, 14
2, 77388, Control_c, 0, 64, 15
2, 77408, Control_c, 0, 64, 21
2, 77427, Control_c, 0, 64, 31
2, 77445, Control_c, 0, 64, 42
2, 77465, Control_c, 0, 64, 55
2, 77487, Control_c, 0, 64, 61
2, 77502, Control_c, 0, 64, 63
2, 77510, Note_on_c, 0, 68, 0
2, 77524, Control_c, 0, 64, 65
2, 77529, Note_on_c, 0, 47, 62
2, 77542, Control_c, 0, 64, 68
2, 77554, Note_on_c, 0, 76, 0
2, 77562, Note_on_c, 0, 52, 0
2, 77564, Control_c, 0, 64, 74
2, 77580, Control_c, 0, 64, 84
2, 77600, Control_c, 0, 64, 98
2, 77618, Control_c, 0, 64, 106
2, 77754, Control_c, 0, 64, 101
2, 77772, Control_c, 0, 64, 93
2, 77790, Note_on_c, 0, 49, 63
2, 77794, Control_c, 0, 64, 81
2, 77794, Note_on_c, 0, 76, 83
2, 77802, Note_on_c, 0, 68, 75
2, 77810, Control_c, 0, 64, 69
2, 77831, Control_c, 0, 64, 58
2, 77831, Note_on_c, 0, 47, 0
2, 77851, Control_c, 0, 64, 42
2, 77867, Control_c, 0, 64, 14
2, 77886, Control_c, 0, 64, 0
2, 77944, Control_c, 0, 64, 15
2, 77963, Control_c, 0, 64, 28
2, 77982, Control_c, 0, 64, 40
2, 78002, Control_c, 0, 64, 51
2, 78021, Control_c, 0, 64, 60
2, 78042, Control_c, 0, 64, 64
2, 78061, Control_c, 0, 64, 67
2, 78078, Note_on_c, 0, 52, 73
2, 78078, Note_on_c, 0, 68, 0
2, 78079, Control_c, 0, 64, 72
2, 78083, Note_on_c, 0, 76, 0
2, 78100, Control_c, 0, 64, 81
2, 78118, Control_c, 0, 64, 94
2, 78127, Note_on_c, 0, 49, 0
2, 78138, Control_c, 0, 64, 116
2, 78155, Control_c, 0, 64, 127
2, 78351, Control_c, 0, 64, 97
2, 78351, Note_on_c, 0, 76, 83
2, 78356, Note_on_c, 0, 45, 66
2, 78361, Note_on_c, 0, 73, 75
2, 78367, Control_c, 0, 64, 74
2, 78382, Note_on_c, 0, 52, 0
2, 78387, Control_c, 0, 64, 60
2, 78405, Control_c, 0, 64, 40
2, 78427, Control_c, 0, 64, 0
2, 78483, Control_c, 0, 64, 25
2, 78502, Control_c, 0, 64, 40
2, 78524, Control_c, 0, 64, 54
2, 78541, Control_c, 0, 64, 63
2, 78561, Control_c, 0, 64, 66
2, 78578, Control_c, 0, 64, 73
2, 78598, Control_c, 0, 64, 82
2, 78607, Note_on_c, 0, 49, 73
2, 78618, Control_c, 0, 64, 100
2, 78618, Note_on_c, 0, 76, 0
2, 78637, Control_c, 0, 64, 127
2, 78642, Note_on_c, 0, 73, 0
2, 78803, Note_on_c, 0, 45, 0
2, 78866, Note_on_c, 0, 76, 89
2, 78868, Control_c, 0, 64, 90
2, 78868, Note_on_c, 0, 49, 0
2, 78874, Note_on_c, 0, 52, 74
2, 78874, Note_on_c, 0, 73, 79
2, 78888, Control_c, 0, 64, 69
2, 78906, Control_c, 0, 64, 58
2, 78924, Control_c, 0, 64, 54
2, 78943, Control_c, 0, 64, 59
2, 78962, Control_c, 0, 64, 64
2, 78983, Control_c, 0, 64, 70
2, 79001, Control_c, 0, 64, 83
2, 79020, Control_c, 0, 64, 127
2, 79120, Note_on_c, 0, 44, 81
2, 79120, Note_on_c, 0, 76, 0
2, 79143, Note_on_c, 0, 73, 0
2, 79182, Note_on_c, 0, 52, 0
2, 79347, Control_c, 0, 64, 113
2, 79365, Control_c, 0, 64, 107
2, 79384, Control_c, 0, 64, 101
2, 79403, Control_c, 0, 64, 91
2, 79423, Control_c, 0, 64, 78
2, 79427, Note_on_c, 0, 49, 72
2, 79440, Note_on_c, 0, 76, 87
2, 79444, Control_c, 0, 64, 66
2, 79444, Note_on_c, 0, 73, 78
2, 79461, Control_c, 0, 64, 54
2, 79479, Control_c, 0, 64, 33
2, 79501, Control_c, 0, 64, 0
2, 79731, Control_c, 0, 64, 24
2, 79750, Control_c, 0, 64, 46
2, 79759, Note_on_c, 0, 52, 82
2, 79771, Control_c, 0, 64, 60
2, 79791, Control_c, 0, 64, 65
2, 79799, Note_on_c, 0, 76, 0
2, 79810, Control_c, 0, 64, 68
2, 79825, Control_c, 0, 64, 72
2, 79845, Control_c, 0, 64, 80
2, 79855, Note_on_c, 0, 73, 0
2, 79870, Control_c, 0, 64, 95
2, 79883, Control_c, 0, 64, 127
2, 79888, Note_on_c, 0, 49, 0
2, 79904, Note_on_c, 0, 44, 0
2, 80133, Control_c, 0, 64, 115
2, 80154, Control_c, 0, 64, 104
2, 80171, Control_c, 0, 64, 96
2, 80192, Control_c, 0, 64, 88
2, 80201, Note_on_c, 0, 43, 70
2, 80205, Note_on_c, 0, 76, 82
2, 80211, Control_c, 0, 64, 80
2, 80216, Note_on_c, 0, 73, 73
2, 80230, Control_c, 0, 64, 74
2, 80248, Control_c, 0, 64, 68
2, 80268, Control_c, 0, 64, 62
2, 80288, Control_c, 0, 64, 58
2, 80308, Control_c, 0, 64, 54
2, 80326, Control_c, 0, 64, 52
2, 80341, Note_on_c, 0, 52, 0
2, 80346, Control_c, 0, 64, 49
2, 80364, Control_c, 0, 64, 40
2, 80383, Control_c, 0, 64, 25
2, 80403, Control_c, 0, 64, 0
2, 80590, Note_on_c, 0, 71, 65
2, 80662, Note_on_c, 0, 73, 0
2, 80868, Note_on_c, 0, 70, 66
2, 81027, Note_on_c, 0, 71, 0
2, 81136, Note_on_c, 0, 73, 70
2, 81195, Note_on_c, 0, 70, 0
2, 81401, Note_on_c, 0, 71, 60
2, 81554, Control_c, 0, 64, 19
2, 81572, Control_c, 0, 64, 40
2, 81592, Control_c, 0, 64, 56
2, 81615, Control_c, 0, 64, 62
2, 81630, Control_c, 0, 64, 64
2, 81649, Control_c, 0, 64, 66
2, 81656, Note_on_c, 0, 68, 62
2, 81670, Control_c, 0, 64, 71
2, 81681, Note_on_c, 0, 71, 0
2, 81690, Control_c, 0, 64, 79
2, 81708, Control_c, 0, 64, 90
2, 81727, Control_c, 0, 64, 99
2, 81746, Control_c, 0, 64, 101
2, 81750, Note_on_c, 0, 68, 0
2, 81755, Note_on_c, 0, 73, 0
2, 81824, Control_c, 0, 64, 102
2, 81860, Control_c, 0, 64, 100
2, 81881, Control_c, 0, 64, 94
2, 81900, Control_c, 0, 64, 88
2, 81918, Control_c, 0, 64, 82
2, 81940, Control_c, 0, 64, 77
2, 81949, Note_on_c, 0, 70, 66
2, 81960, Control_c, 0, 64, 71
2, 81980, Control_c, 0, 64, 65
2, 81995, Control_c, 0, 64, 60
2, 82014, Control_c, 0, 64, 54
2, 82035, Control_c, 0, 64, 47
2, 82054, Control_c, 0, 64, 36
2, 82074, Control_c, 0, 64, 0
2, 82213, Note_on_c, 0, 75, 71
2, 82359, Note_on_c, 0, 76, 0
2, 82419, Control_c, 0, 64, 40
2, 82436, Control_c, 0, 64, 57
2, 82457, Control_c, 0, 64, 63
2, 82477, Control_c, 0, 64, 64
2, 82496, Control_c, 0, 64, 65
2, 82500, Note_on_c, 0, 73, 76
2, 82514, Control_c, 0, 64, 69
2, 82533, Control_c, 0, 64, 78
2, 82538, Note_on_c, 0, 43, 0
2, 82553, Note_on_c, 0, 75, 0
2, 82557, Control_c, 0, 64, 91
2, 82572, Control_c, 0, 64, 106
2, 82592, Control_c, 0, 64, 127
2, 82780, Note_on_c, 0, 55, 45
2, 82790, Note_on_c, 0, 82, 78
2, 82802, Control_c, 0, 64, 118
2, 82822, Control_c, 0, 64, 93
2, 82842, Control_c, 0, 64, 71
2, 82860, Control_c, 0, 64, 59
2, 82878, Control_c, 0, 64, 42
2, 82887, Note_on_c, 0, 73, 0
2, 82900, Control_c, 0, 64, 13
2, 82917, Control_c, 0, 64, 0
2, 83063, Note_on_c, 0, 76, 76
2, 83067, Note_on_c, 0, 56, 49
2, 83070, Note_on_c, 0, 55, 0
2, 83164, Note_on_c, 0, 82, 0
2, 83188, Control_c, 0, 64, 32
2, 83206, Control_c, 0, 64, 49
2, 83227, Control_c, 0, 64, 61
2, 83243, Control_c, 0, 64, 66
2, 83262, Control_c, 0, 64, 70
2, 83283, Control_c, 0, 64, 76
2, 83301, Control_c, 0, 64, 87
2, 83322, Note_on_c, 0, 56, 0
2, 83326, Control_c, 0, 64, 106
2, 83340, Control_c, 0, 64, 127
2, 83340, Note_on_c, 0, 73, 80
2, 83349, Note_on_c, 0, 58, 55
2, 83366, Note_on_c, 0, 76, 0
2, 83572, Note_on_c, 0, 58, 0
2, 83653, Note_on_c, 0, 75, 71
2, 83660, Note_on_c, 0, 47, 47
2, 83666, Control_c, 0, 64, 112
2, 83686, Control_c, 0, 64, 90
2, 83706, Control_c, 0, 64, 72
2, 83711, Note_on_c, 0, 73, 0
2, 83724, Control_c, 0, 64, 59
2, 83742, Control_c, 0, 64, 40
2, 83762, Control_c, 0, 64, 0
2, 83916, Control_c, 0, 64, 25
2, 83920, Note_on_c, 0, 73, 72
2, 83937, Control_c, 0, 64, 44
2, 83954, Control_c, 0, 64, 56
2, 83963, Note_on_c, 0, 70, 0
2, 83972, Control_c, 0, 64, 61
2, 83992, Control_c, 0, 64, 62
2, 84012, Control_c, 0, 64, 63
2, 84030, Control_c, 0, 64, 65
2, 84050, Control_c, 0, 64, 68
2, 84070, Control_c, 0, 64, 72
2, 84089, Control_c, 0, 64, 76
2, 84126, Control_c, 0, 64, 75
2, 84147, Control_c, 0, 64, 74
2, 84174, Note_on_c, 0, 71, 67
2, 84185, Note_on_c, 0, 68, 55
2, 84188, Control_c, 0, 64, 73
2, 84201, Note_on_c, 0, 75, 0
2, 84206, Control_c, 0, 64, 70
2, 84226, Control_c, 0, 64, 67
2, 84245, Control_c, 0, 64, 64
2, 84264, Control_c, 0, 64, 61
2, 84283, Control_c, 0, 64, 59
2, 84302, Control_c, 0, 64, 54
2, 84322, Control_c, 0, 64, 46
2, 84340, Control_c, 0, 64, 32
2, 84349, Note_on_c, 0, 73, 0
2, 84360, Control_c, 0, 64, 10
2, 84380, Control_c, 0, 64, 0
2, 84400, Control_c, 0, 64, 11
2, 84418, Control_c, 0, 64, 23
2, 84440, Control_c, 0, 64, 34
2, 84456, Control_c, 0, 64, 45
2, 84465, Note_on_c, 0, 75, 64
2, 84475, Note_on_c, 0, 71, 0
2, 84479, Control_c, 0, 64, 55
2, 84495, Control_c, 0, 64, 61
2, 84552, Control_c, 0, 64, 62
2, 84687, Control_c, 0, 64, 61
2, 84707, Control_c, 0, 64, 60
2, 84725, Control_c, 0, 64, 58
2, 84729, Note_on_c, 0, 52, 46
2, 84729, Note_on_c, 0, 73, 65
2, 84742, Note_on_c, 0, 47, 0
2, 84747, Control_c, 0, 64, 55
2, 84765, Control_c, 0, 64, 48
2, 84785, Control_c, 0, 64, 39
2, 84785, Note_on_c, 0, 75, 0
2, 84802, Control_c, 0, 64, 29
2, 84820, Control_c, 0, 64, 22
2, 84859, Control_c, 0, 64, 28
2, 84879, Control_c, 0, 64, 38
2, 84897, Control_c, 0, 64, 48
2, 84915, Control_c, 0, 64, 58
2, 84938, Control_c, 0, 64, 61
2, 84957, Control_c, 0, 64, 62
2, 84988, Note_on_c, 0, 73, 0
2, 84990, Note_on_c, 0, 70, 65
2, 84995, Control_c, 0, 64, 64
2, 85013, Control_c, 0, 64, 65
2, 85033, Control_c, 0, 64, 66
2, 85185, Control_c, 0, 64, 65
2, 85224, Control_c, 0, 64, 64
2, 85244, Control_c, 0, 64, 63
2, 85264, Control_c, 0, 64, 61
2, 85275, Note_on_c, 0, 49, 47
2, 85283, Control_c, 0, 64, 56
2, 85296, Note_on_c, 0, 71, 63
2, 85301, Control_c, 0, 64, 49
2, 85319, Control_c, 0, 64, 28
2, 85342, Control_c, 0, 64, 0
2, 85370, Note_on_c, 0, 52, 0
2, 85370, Note_on_c, 0, 68, 0
2, 85413, Note_on_c, 0, 70, 0
2, 85533, Control_c, 0, 64, 18
2, 85552, Control_c, 0, 64, 39
2, 85570, Control_c, 0, 64, 52
2, 85584, Note_on_c, 0, 70, 66
2, 85588, Control_c, 0, 64, 60
2, 85608, Control_c, 0, 64, 61
2, 85628, Control_c, 0, 64, 60
2, 85635, Note_on_c, 0, 49, 0
2, 85661, Note_on_c, 0, 71, 0
2, 85723, Control_c, 0, 64, 59
2, 85743, Control_c, 0, 64, 58
2, 85762, Control_c, 0, 64, 55
2, 85783, Control_c, 0, 64, 49
2, 85799, Control_c, 0, 64, 39
2, 85821, Control_c, 0, 64, 10
2, 85840, Control_c, 0, 64, 0
2, 85851, Note_on_c, 0, 51, 60
2, 85862, Note_on_c, 0, 68, 71
2, 86024, Note_on_c, 0, 70, 0
2, 86088, Control_c, 0, 64, 32
2, 86110, Control_c, 0, 64, 47
2, 86126, Control_c, 0, 64, 55
2, 86146, Control_c, 0, 64, 59
2, 86157, Note_on_c, 0, 71, 70
2, 86195, Note_on_c, 0, 68, 0
2, 86204, Control_c, 0, 64, 60
2, 86339, Control_c, 0, 64, 59
2, 86393, Note_on_c, 0, 51, 0
2, 86421, Control_c, 0, 64, 58
2, 86430, Note_on_c, 0, 70, 69
2, 86437, Control_c, 0, 64, 57
2, 86442, Note_on_c, 0, 39, 53
2, 86455, Control_c, 0, 64, 54
2, 86474, Control_c, 0, 64, 45
2, 86494, Control_c, 0, 64, 25
2, 86513, Control_c, 0, 64, 0
2, 86548, Note_on_c, 0, 71, 0
2, 86725, Note_on_c, 0, 67, 74
2, 86783, Control_c, 0, 64, 21
2, 86802, Control_c, 0, 64, 38
2, 86817, Note_on_c, 0, 70, 0
2, 86821, Control_c, 0, 64, 50
2, 86841, Control_c, 0, 64, 59
2, 86859, Control_c, 0, 64, 61
2, 86878, Control_c, 0, 64, 62
2, 86917, Control_c, 0, 64, 64
2, 86937, Control_c, 0, 64, 65
2, 86954, Control_c, 0, 64, 67
2, 86975, Control_c, 0, 64, 69
2, 87050, Control_c, 0, 64, 68
2, 87054, Note_on_c, 0, 44, 42
2, 87096, Note_on_c, 0, 68, 74
2, 87110, Control_c, 0, 64, 67
2, 87129, Control_c, 0, 64, 65
2, 87144, Note_on_c, 0, 39, 0
2, 87150, Control_c, 0, 64, 62
2, 87160, Note_on_c, 0, 67, 0
2, 87168, Control_c, 0, 64, 56
2, 87186, Control_c, 0, 64, 45
2, 87205, Control_c, 0, 64, 25
2, 87224, Control_c, 0, 64, 0
2, 87282, Control_c, 0, 64, 25
2, 87301, Control_c, 0, 64, 39
2, 87320, Control_c, 0, 64, 50
2, 87339, Control_c, 0, 64, 57
2, 87359, Control_c, 0, 64, 60
2, 87395, Note_on_c, 0, 46, 49
2, 87399, Control_c, 0, 64, 61
2, 87416, Control_c, 0, 64, 62
2, 87476, Note_on_c, 0, 44, 0
2, 87512, Control_c, 0, 64, 61
2, 87589, Control_c, 0, 64, 60
2, 87607, Control_c, 0, 64, 59
2, 87658, Note_on_c, 0, 46, 0
2, 87658, Note_on_c, 0, 66, 61
2, 87667, Control_c, 0, 64, 58
2, 87676, Note_on_c, 0, 48, 46
2, 87703, Control_c, 0, 64, 57
2, 87724, Control_c, 0, 64, 56
2, 87742, Control_c, 0, 64, 55
2, 87780, Control_c, 0, 64, 54
2, 87801, Control_c, 0, 64, 53
2, 87820, Control_c, 0, 64, 52
2, 87840, Control_c, 0, 64, 51
2, 87876, Control_c, 0, 64, 50
2, 87920, Note_on_c, 0, 44, 56
2, 87935, Control_c, 0, 64, 49
2, 87939, Note_on_c, 0, 48, 0
2, 87953, Control_c, 0, 64, 48
2, 87974, Control_c, 0, 64, 47
2, 87993, Control_c, 0, 64, 46
2, 88030, Control_c, 0, 64, 45
2, 88049, Control_c, 0, 64, 44
2, 88066, Control_c, 0, 64, 43
2, 88087, Control_c, 0, 64, 42
2, 88104, Control_c, 0, 64, 41
2, 88123, Control_c, 0, 64, 40
2, 88144, Control_c, 0, 64, 39
2, 88161, Control_c, 0, 64, 38
2, 88180, Control_c, 0, 64, 37
2, 88202, Note_on_c, 0, 48, 56
2, 88202, Note_on_c, 0, 63, 63
2, 88206, Control_c, 0, 64, 35
2, 88224, Note_on_c, 0, 44, 0
2, 88240, Control_c, 0, 64, 33
2, 88258, Control_c, 0, 64, 32
2, 88275, Control_c, 0, 64, 31
2, 88296, Control_c, 0, 64, 30
2, 88314, Control_c, 0, 64, 29
2, 88334, Control_c, 0, 64, 28
2, 88373, Control_c, 0, 64, 26
2, 88393, Control_c, 0, 64, 25
2, 88451, Control_c, 0, 64, 24
2, 88471, Note_on_c, 0, 51, 66
2, 88528, Control_c, 0, 64, 23
2, 88566, Note_on_c, 0, 48, 0
2, 88586, Control_c, 0, 64, 22
2, 88698, Control_c, 0, 64, 21
2, 88718, Control_c, 0, 64, 20
2, 88757, Control_c, 0, 64, 19
2, 88777, Note_on_c, 0, 61, 51
2, 88782, Control_c, 0, 64, 18
2, 88782, Note_on_c, 0, 54, 57
2, 88793, Note_on_c, 0, 66, 0
2, 88822, Note_on_c, 0, 63, 0
2, 88843, Note_on_c, 0, 51, 0
2, 88856, Control_c, 0, 64, 17
2, 88873, Control_c, 0, 64, 16
2, 88893, Control_c, 0, 64, 15
2, 88948, Control_c, 0, 64, 14
2, 88968, Control_c, 0, 64, 13
2, 89053, Note_on_c, 0, 60, 61
2, 89066, Control_c, 0, 64, 12
2, 89071, Note_on_c, 0, 61, 0
2, 89322, Note_on_c, 0, 52, 55
2, 89339, Note_on_c, 0, 61, 56
2, 89406, Note_on_c, 0, 60, 0
2, 89480, Note_on_c, 0, 54, 0
2, 89606, Note_on_c, 0, 63, 60
2, 89652, Note_on_c, 0, 61, 0
2, 89874, Note_on_c, 0, 51, 54
2, 89878, Note_on_c, 0, 64, 59
2, 89903, Note_on_c, 0, 63, 0
2, 89950, Note_on_c, 0, 52, 0
2, 90151, Note_on_c, 0, 66, 58
2, 90175, Note_on_c, 0, 64, 0
2, 90439, Note_on_c, 0, 49, 41
2, 90455, Note_on_c, 0, 64, 52
2, 90487, Control_c, 0, 64, 13
2, 90487, Note_on_c, 0, 66, 0
2, 90507, Note_on_c, 0, 51, 0
2, 90640, Control_c, 0, 64, 14
2, 90657, Control_c, 0, 64, 15
2, 90728, Note_on_c, 0, 64, 0
2, 90747, Note_on_c, 0, 63, 46
2, 90772, Control_c, 0, 64, 16
2, 91015, Note_on_c, 0, 63, 0
2, 91019, Note_on_c, 0, 61, 47
2, 91321, Note_on_c, 0, 64, 55
2, 91336, Note_on_c, 0, 61, 0
2, 91623, Note_on_c, 0, 61, 54
2, 91685, Note_on_c, 0, 64, 0
2, 91714, Control_c, 0, 64, 17
2, 91732, Control_c, 0, 64, 18
2, 91771, Control_c, 0, 64, 19
2, 91809, Control_c, 0, 64, 20
2, 91847, Control_c, 0, 64, 21
2, 91866, Control_c, 0, 64, 22
2, 91886, Control_c, 0, 64, 24
2, 91908, Control_c, 0, 64, 25
2, 91944, Control_c, 0, 64, 26
2, 91957, Note_on_c, 0, 58, 51
2, 91963, Control_c, 0, 64, 27
2, 92024, Note_on_c, 0, 61, 0
2, 92060, Control_c, 0, 64, 28
2, 92192, Control_c, 0, 64, 29
2, 92250, Control_c, 0, 64, 30
2, 92311, Note_on_c, 0, 55, 38
2, 92347, Control_c, 0, 64, 31
2, 92404, Control_c, 0, 64, 32
2, 92663, Note_on_c, 0, 64, 57
2, 92770, Control_c, 0, 64, 31
2, 92845, Control_c, 0, 64, 30
2, 92922, Control_c, 0, 64, 29
2, 92962, Control_c, 0, 64, 28
2, 93000, Control_c, 0, 64, 27
2, 93041, Control_c, 0, 64, 26
2, 93041, Note_on_c, 0, 64, 0
2, 93045, Note_on_c, 0, 56, 35
2, 93053, Note_on_c, 0, 63, 51
2, 93059, Control_c, 0, 64, 25
2, 93077, Control_c, 0, 64, 23
2, 93095, Control_c, 0, 64, 22
2, 93119, Control_c, 0, 64, 19
2, 93119, Control_c, 0, 67, 17
2, 93139, Control_c, 0, 64, 16
2, 93139, Control_c, 0, 67, 33
2, 93157, Control_c, 0, 64, 11
2, 93157, Control_c, 0, 67, 50
2, 93168, Note_on_c, 0, 55, 0
2, 93175, Control_c, 0, 64, 0
2, 93175, Control_c, 0, 67, 70
2, 93192, Control_c, 0, 67, 92
2, 93214, Control_c, 0, 67, 119
2, 93232, Control_c, 0, 67, 127
2, 93465, Note_on_c, 0, 61, 49
2, 93565, Note_on_c, 0, 63, 0
2, 93619, Note_on_c, 0, 58, 0
2, 93900, Note_on_c, 0, 58, 37
2, 93917, Note_on_c, 0, 60, 47
2, 93960, Note_on_c, 0, 61, 0
2, 94019, Note_on_c, 0, 56, 0
2, 94443, Note_on_c, 0, 61, 49
2, 94485, Note_on_c, 0, 60, 0
2, 94652, Control_c, 0, 64, 27
2, 94670, Control_c, 0, 64, 42
2, 94690, Control_c, 0, 64, 55
2, 94712, Control_c, 0, 64, 61
2, 94728, Control_c, 0, 64, 63
2, 94746, Control_c, 0, 64, 66
2, 94765, Control_c, 0, 64, 72
2, 94786, Control_c, 0, 64, 87
2, 94805, Control_c, 0, 64, 109
2, 94826, Control_c, 0, 64, 127
2, 94895, Note_on_c, 0, 68, 0
2, 94899, Note_on_c, 0, 58, 0
2, 95006, Note_on_c, 0, 49, 0
2, 95220, Note_on_c, 0, 61, 0
2, 95470, Note_on_c, 0, 44, 40
2, 95474, Note_on_c, 0, 63, 47
2, 95480, Note_on_c, 0, 60, 43
2, 95573, Control_c, 0, 64, 98
2, 95592, Control_c, 0, 64, 81
2, 95610, Control_c, 0, 64, 69
2, 95633, Control_c, 0, 64, 60
2, 95650, Control_c, 0, 64, 49
2, 95668, Control_c, 0, 64, 41
2, 95686, Control_c, 0, 64, 36
2, 95708, Control_c, 0, 64, 30
2, 95726, Control_c, 0, 64, 19
2, 95746, Control_c, 0, 64, 0
2, 96073, Control_c, 0, 64, 8
2, 96090, Control_c, 0, 64, 15
2, 96110, Control_c, 0, 64, 19
2, 96128, Control_c, 0, 64, 23
2, 96149, Control_c, 0, 64, 25
2, 96167, Control_c, 0, 64, 28
2, 96186, Control_c, 0, 64, 31
2, 96204, Control_c, 0, 64, 34
2, 96226, Control_c, 0, 64, 38
2, 96247, Control_c, 0, 64, 41
2, 96264, Control_c, 0, 64, 44
2, 96282, Control_c, 0, 64, 47
2, 96301, Control_c, 0, 64, 50
2, 96319, Control_c, 0, 64, 53
2, 96336, Control_c, 0, 64, 55
2, 96358, Control_c, 0, 64, 56
2, 96376, Control_c, 0, 64, 57
2, 96397, Control_c, 0, 64, 58
2, 96414, Control_c, 0, 64, 59
2, 96433, Control_c, 0, 64, 60
2, 96474, Control_c, 0, 64, 61
2, 96494, Control_c, 0, 64, 62
2, 96512, Control_c, 0, 64, 63
2, 96529, Control_c, 0, 64, 64
2, 96550, Control_c, 0, 64, 65
2, 96566, Control_c, 0, 64, 66
2, 96588, Control_c, 0, 64, 67
2, 96606, Control_c, 0, 64, 69
2, 96625, Control_c, 0, 64, 72
2, 96645, Control_c, 0, 64, 75
2, 96665, Control_c, 0, 64, 80
2, 96684, Control_c, 0, 64, 84
2, 96703, Control_c, 0, 64, 86
2, 96722, Control_c, 0, 64, 87
2, 96760, Control_c, 0, 64, 88
2, 96778, Control_c, 0, 64, 92
2, 96798, Control_c, 0, 64, 98
2, 96818, Control_c, 0, 64, 104
2, 96838, Control_c, 0, 64, 106
2, 96876, Control_c, 0, 64, 107
2, 96912, Control_c, 0, 64, 108
2, 97048, Control_c, 0, 64, 106
2, 97066, Control_c, 0, 64, 104
2, 97106, Control_c, 0, 64, 103
2, 97145, Control_c, 0, 64, 102
2, 97166, Control_c, 0, 64, 101
2, 97183, Control_c, 0, 64, 100
2, 97202, Control_c, 0, 64, 99
2, 97413, Control_c, 0, 64, 98
2, 97453, Control_c, 0, 64, 97
2, 97508, Control_c, 0, 64, 96
2, 97550, Control_c, 0, 64, 95
2, 97586, Control_c, 0, 64, 94
2, 98180, Control_c, 0, 64, 93
2, 98238, Control_c, 0, 64, 92
2, 98297, Control_c, 0, 64, 91
2, 98315, Control_c, 0, 64, 90
2, 98412, Control_c, 0, 64, 89
2, 98449, Control_c, 0, 64, 88
2, 98508, Control_c, 0, 64, 87
2, 98641, Control_c, 0, 64, 86
2, 98646, Note_on_c, 0, 60, 0
2, 98739, Note_on_c, 0, 63, 0
2, 98761, Note_on_c, 0, 44, 0
2, 98797, Control_c, 0, 64, 85
2, 98987, Control_c, 0, 64, 84
2, 99024, Control_c, 0, 64, 83
2, 99087, Control_c, 0, 64, 82
2, 99141, Control_c, 0, 64, 81
2, 99275, Control_c, 0, 64, 80
2, 99332, Control_c, 0, 64, 79
2, 99354, Control_c, 0, 64, 78
2, 99391, Control_c, 0, 64, 77
2, 99409, Control_c, 0, 64, 76
2, 99428, Control_c, 0, 64, 74
2, 99450, Control_c, 0, 64, 73
2, 99466, Control_c, 0, 64, 72
2, 99524, Control_c, 0, 64, 71
2, 99544, Control_c, 0, 64, 69
2, 99566, Control_c, 0, 64, 67
2, 99583, Control_c, 0, 64, 66
2, 99640, Control_c, 0, 64, 65
2, 99679, Control_c, 0, 64, 63
2, 99699, Control_c, 0, 64, 62
2, 99720, Control_c, 0, 64, 61
2, 99796, Control_c, 0, 67, 119
2, 99816, Control_c, 0, 64, 60
2, 99816, Control_c, 0, 67, 107
2, 99832, Control_c, 0, 64, 59
2, 99837, Control_c, 0, 67, 96
2, 99854, Control_c, 0, 64, 57
2, 99854, Control_c, 0, 67, 86
2, 99872, Control_c, 0, 64, 55
2, 99872, Control_c, 0, 67, 80
2, 99892, Control_c, 0, 64, 54
2, 99892, Control_c, 0, 67, 77
2, 99910, Control_c, 0, 64, 52
2, 99910, Control_c, 0, 67, 74
2, 99931, Control_c, 0, 64, 51
2, 99931, Control_c, 0, 67, 72
2, 99948, Control_c, 0, 64, 50
2, 99948, Control_c, 0, 67, 70
2, 99968, Control_c, 0, 64, 49
2, 99968, Control_c, 0, 67, 67
2, 99986, Control_c, 0, 64, 48
2, 99986, Control_c, 0, 67, 65
2, 100007, Control_c, 0, 67, 64
2, 100061, Control_c, 0, 67, 63
2, 100178, Control_c, 0, 64, 47
2, 100253, Control_c, 0, 64, 46
2, 100294, Control_c, 0, 64, 45
2, 100312, Control_c, 0, 64, 43
2, 100331, Control_c, 0, 64, 42
2, 100350, Control_c, 0, 64, 41
2, 100388, Control_c, 0, 64, 40
2, 100426, Control_c, 0, 64, 39
2, 100484, Control_c, 0, 64, 38
2, 100542, Control_c, 0, 64, 37
2, 100600, Control_c, 0, 64, 36
2, 100754, Control_c, 0, 64, 35
2, 101484, Control_c, 0, 67, 64
2, 102366, Control_c, 0, 64, 36
2, 102712, Control_c, 0, 64, 37
2, 103019, Control_c, 0, 67, 65
2, 103057, Control_c, 0, 64, 38
2, 103808, Control_c, 0, 64, 39
2, 104176, Note_on_c, 0, 56, 52
2, 104268, Control_c, 0, 67, 66
2, 105171, Note_on_c, 0, 55, 41
2, 105226, Control_c, 0, 67, 67
2, 105292, Note_on_c, 0, 56, 0
2, 105362, Control_c, 0, 64, 38
2, 105515, Control_c, 0, 67, 68
2, 105689, Note_on_c, 0, 56, 48
2, 105751, Note_on_c, 0, 55, 0
2, 105912, Note_on_c, 0, 58, 57
2, 105920, Control_c, 0, 67, 69
2, 105988, Note_on_c, 0, 56, 0
2, 106197, Note_on_c, 0, 59, 54
2, 106266, Note_on_c, 0, 58, 0
2, 106697, Note_on_c, 0, 58, 57
2, 106795, Note_on_c, 0, 59, 0
2, 107193, Note_on_c, 0, 56, 58
2, 107267, Note_on_c, 0, 58, 0
2, 107679, Note_on_c, 0, 62, 67
2, 107783, Note_on_c, 0, 56, 0
2, 107820, Control_c, 0, 67, 70
2, 108050, Control_c, 0, 67, 71
2, 108166, Control_c, 0, 64, 39
2, 108187, Note_on_c, 0, 63, 62
2, 108252, Note_on_c, 0, 62, 0
2, 108415, Control_c, 0, 67, 72
2, 108683, Note_on_c, 0, 54, 56
2, 108764, Note_on_c, 0, 63, 0
2, 108913, Control_c, 0, 67, 73
2, 109195, Note_on_c, 0, 56, 58
2, 109223, Note_on_c, 0, 54, 0
2, 109240, Control_c, 0, 67, 74
2, 109395, Note_on_c, 0, 56, 0
2, 109508, Control_c, 0, 67, 73
2, 109668, Note_on_c, 0, 56, 56
2, 109890, Note_on_c, 0, 56, 0
2, 110167, Note_on_c, 0, 58, 46
2, 110403, Note_on_c, 0, 58, 0
2, 110671, Note_on_c, 0, 58, 41
2, 110795, Control_c, 0, 67, 74
2, 110898, Note_on_c, 0, 58, 0
2, 110948, Control_c, 0, 67, 75
2, 111170, Note_on_c, 0, 51, 47
2, 111217, Control_c, 0, 67, 76
2, 111673, Note_on_c, 0, 53, 56
2, 111770, Note_on_c, 0, 51, 0
2, 111812, Control_c, 0, 67, 75
2, 112230, Note_on_c, 0, 63, 68
2, 112256, Note_on_c, 0, 54, 42
2, 112314, Note_on_c, 0, 53, 0
2, 113181, Note_on_c, 0, 60, 50
2, 113276, Note_on_c, 0, 63, 0
2, 113463, Control_c, 0, 64, 38
2, 113653, Note_on_c, 0, 61, 60
2, 113658, Note_on_c, 0, 52, 48
2, 113658, Note_on_c, 0, 54, 0
2, 113881, Note_on_c, 0, 63, 68
2, 113885, Note_on_c, 0, 52, 0
2, 113885, Note_on_c, 0, 54, 54
2, 113977, Note_on_c, 0, 61, 0
2, 114014, Note_on_c, 0, 60, 0
2, 114155, Note_on_c, 0, 56, 51
2, 114157, Note_on_c, 0, 64, 72
2, 114212, Note_on_c, 0, 54, 0
2, 114227, Note_on_c, 0, 63, 0
2, 114640, Note_on_c, 0, 63, 66
2, 114661, Note_on_c, 0, 56, 0
2, 114665, Note_on_c, 0, 55, 46
2, 114711, Note_on_c, 0, 64, 0
2, 114788, Control_c, 0, 64, 37
2, 114827, Control_c, 0, 64, 36
2, 114844, Control_c, 0, 64, 34
2, 114865, Control_c, 0, 64, 29
2, 114881, Note_on_c, 0, 56, 54
2, 114885, Control_c, 0, 64, 23
2, 114906, Control_c, 0, 64, 12
2, 114906, Note_on_c, 0, 55, 0
2, 114922, Control_c, 0, 64, 0
2, 115136, Note_on_c, 0, 61, 60
2, 115155, Note_on_c, 0, 58, 51
2, 115174, Note_on_c, 0, 56, 0
2, 115201, Note_on_c, 0, 63, 0
2, 115606, Note_on_c, 0, 67, 69
2, 115615, Note_on_c, 0, 58, 0
2, 115621, Note_on_c, 0, 56, 47
2, 115691, Control_c, 0, 67, 74
2, 115748, Control_c, 0, 67, 73
2, 115755, Note_on_c, 0, 61, 0
2, 115772, Control_c, 0, 67, 72
2, 115786, Control_c, 0, 67, 71
2, 115806, Control_c, 0, 67, 70
2, 115827, Control_c, 0, 67, 67
2, 115838, Note_on_c, 0, 58, 57
2, 115845, Control_c, 0, 67, 65
2, 115865, Note_on_c, 0, 56, 0
2, 115871, Control_c, 0, 64, 31
2, 115871, Control_c, 0, 67, 64
2, 115884, Control_c, 0, 64, 47
2, 115888, Control_c, 0, 67, 61
2, 115905, Control_c, 0, 64, 59
2, 115905, Control_c, 0, 67, 60
2, 115922, Control_c, 0, 64, 63
2, 115926, Control_c, 0, 67, 49
2, 115943, Control_c, 0, 67, 34
2, 115959, Control_c, 0, 67, 21
2, 115980, Control_c, 0, 64, 64
2, 115980, Control_c, 0, 67, 10
2, 116000, Control_c, 0, 64, 66
2, 116000, Control_c, 0, 67, 8
2, 116017, Control_c, 0, 64, 67
2, 116022, Control_c, 0, 67, 9
2, 116037, Control_c, 0, 64, 68
2, 116055, Control_c, 0, 67, 10
2, 116085, Note_on_c, 0, 58, 0
2, 116094, Control_c, 0, 64, 67
2, 116112, Control_c, 0, 64, 66
2, 116126, Note_on_c, 0, 68, 72
2, 116133, Control_c, 0, 64, 65
2, 116137, Note_on_c, 0, 59, 46
2, 116151, Control_c, 0, 64, 62
2, 116170, Control_c, 0, 64, 56
2, 116179, Note_on_c, 0, 67, 0
2, 116191, Control_c, 0, 64, 47
2, 116207, Control_c, 0, 64, 33
2, 116231, Control_c, 0, 64, 18
2, 116250, Control_c, 0, 64, 16
2, 116268, Control_c, 0, 64, 26
2, 116286, Control_c, 0, 64, 43
2, 116307, Control_c, 0, 64, 56
2, 116325, Control_c, 0, 64, 64
2, 116329, Control_c, 0, 67, 9
2, 116343, Control_c, 0, 64, 68
2, 116343, Note_on_c, 0, 59, 0
2, 116362, Control_c, 0, 64, 73
2, 116382, Control_c, 0, 64, 78
2, 116404, Control_c, 0, 64, 83
2, 116421, Control_c, 0, 64, 86
2, 116459, Control_c, 0, 64, 85
2, 116479, Control_c, 0, 67, 10
2, 116517, Control_c, 0, 64, 84
2, 116535, Control_c, 0, 64, 82
2, 116556, Control_c, 0, 64, 78
2, 116574, Control_c, 0, 64, 73
2, 116578, Control_c, 0, 67, 11
2, 116591, Control_c, 0, 64, 68
2, 116612, Note_on_c, 0, 56, 48
2, 116617, Control_c, 0, 64, 64
2, 116617, Note_on_c, 0, 59, 72
2, 116634, Control_c, 0, 64, 60
2, 116634, Control_c, 0, 67, 12
2, 116650, Control_c, 0, 64, 56
2, 116671, Control_c, 0, 64, 50
2, 116691, Control_c, 0, 64, 39
2, 116695, Control_c, 0, 67, 13
2, 116709, Control_c, 0, 64, 21
2, 116729, Control_c, 0, 64, 0
2, 116746, Note_on_c, 0, 68, 0
2, 116750, Control_c, 0, 67, 14
2, 116843, Control_c, 0, 67, 15
2, 117114, Note_on_c, 0, 61, 58
2, 117116, Note_on_c, 0, 58, 48
2, 117149, Note_on_c, 0, 56, 0
2, 117171, Note_on_c, 0, 59, 0
2, 117304, Control_c, 0, 67, 16
2, 117340, Note_on_c, 0, 61, 0
2, 117532, Note_on_c, 0, 58, 0
2, 117585, Note_on_c, 0, 61, 55
2, 117917, Note_on_c, 0, 61, 0
2, 118085, Note_on_c, 0, 63, 53
2, 118087, Note_on_c, 0, 55, 41
2, 118377, Note_on_c, 0, 63, 0
2, 118580, Note_on_c, 0, 55, 0
2, 118597, Note_on_c, 0, 63, 46
2, 119064, Note_on_c, 0, 56, 49
2, 119151, Note_on_c, 0, 63, 0
2, 119359, Control_c, 0, 67, 15
2, 119414, Control_c, 0, 67, 14
2, 119438, Control_c, 0, 67, 13
2, 119454, Control_c, 0, 67, 12
2, 119472, Control_c, 0, 67, 11
2, 119494, Control_c, 0, 67, 10
2, 119512, Control_c, 0, 67, 9
2, 119549, Control_c, 0, 67, 0
2, 119586, Note_on_c, 0, 54, 60
2, 119681, Note_on_c, 0, 56, 0
2, 120073, Note_on_c, 0, 61, 37
2, 120073, Note_on_c, 0, 68, 73
2, 120086, Note_on_c, 0, 52, 46
2, 120157, Note_on_c, 0, 54, 0
2, 121007, Note_on_c, 0, 51, 41
2, 121013, Note_on_c, 0, 67, 57
2, 121034, Note_on_c, 0, 52, 0
2, 121064, Note_on_c, 0, 68, 0
2, 121483, Note_on_c, 0, 59, 50
2, 121485, Note_on_c, 0, 68, 75
2, 121492, Note_on_c, 0, 56, 45
2, 121496, Note_on_c, 0, 51, 0
2, 121498, Note_on_c, 0, 61, 0
2, 121707, Note_on_c, 0, 70, 77
2, 121729, Note_on_c, 0, 61, 42
2, 121736, Note_on_c, 0, 59, 0
2, 121792, Note_on_c, 0, 68, 0
2, 121856, Note_on_c, 0, 67, 0
2, 122007, Note_on_c, 0, 71, 77
2, 122025, Note_on_c, 0, 63, 52
2, 122049, Note_on_c, 0, 61, 0
2, 122062, Note_on_c, 0, 70, 0
2, 122490, Note_on_c, 0, 58, 47
2, 122496, Note_on_c, 0, 63, 0
2, 122502, Note_on_c, 0, 70, 71
2, 122507, Note_on_c, 0, 62, 47
2, 122579, Note_on_c, 0, 56, 0
2, 122579, Note_on_c, 0, 71, 0
2, 122745, Note_on_c, 0, 63, 63
2, 122757, Note_on_c, 0, 62, 0
2, 123001, Note_on_c, 0, 63, 0
2, 123005, Note_on_c, 0, 68, 76
2, 123007, Note_on_c, 0, 59, 53
2, 123024, Note_on_c, 0, 65, 47
2, 123047, Note_on_c, 0, 70, 0
2, 123067, Note_on_c, 0, 58, 0
2, 123476, Note_on_c, 0, 65, 0
2, 123483, Note_on_c, 0, 74, 83
2, 123492, Note_on_c, 0, 63, 45
2, 123630, Note_on_c, 0, 68, 0
2, 123641, Control_c, 0, 64, 37
2, 123659, Control_c, 0, 64, 57
2, 123668, Note_on_c, 0, 74, 0
2, 123679, Control_c, 0, 64, 67
2, 123699, Control_c, 0, 64, 75
2, 123699, Note_on_c, 0, 65, 59
2, 123716, Control_c, 0, 64, 91
2, 123737, Control_c, 0, 64, 115
2, 123756, Control_c, 0, 64, 127
2, 123830, Note_on_c, 0, 63, 0
2, 123859, Note_on_c, 0, 65, 0
2, 123921, Note_on_c, 0, 59, 0
2, 123985, Control_c, 0, 64, 93
2, 123996, Note_on_c, 0, 75, 78
2, 124006, Control_c, 0, 64, 73
2, 124006, Note_on_c, 0, 58, 53
2, 124011, Note_on_c, 0, 66, 64
2, 124022, Control_c, 0, 64, 60
2, 124045, Control_c, 0, 64, 39
2, 124064, Control_c, 0, 64, 0
2, 124139, Control_c, 0, 64, 23
2, 124158, Control_c, 0, 64, 37
2, 124178, Control_c, 0, 64, 50
2, 124196, Control_c, 0, 64, 60
2, 124215, Control_c, 0, 64, 64
2, 124236, Note_on_c, 0, 66, 0
2, 124254, Control_c, 0, 64, 65
2, 124275, Control_c, 0, 64, 67
2, 124291, Control_c, 0, 64, 69
2, 124311, Control_c, 0, 64, 71
2, 124331, Control_c, 0, 64, 72
2, 124426, Control_c, 0, 64, 71
2, 124445, Control_c, 0, 64, 70
2, 124465, Control_c, 0, 64, 69
2, 124484, Control_c, 0, 64, 67
2, 124503, Control_c, 0, 64, 63
2, 124512, Note_on_c, 0, 63, 58
2, 124512, Note_on_c, 0, 66, 70
2, 124523, Control_c, 0, 64, 54
2, 124546, Control_c, 0, 64, 31
2, 124559, Control_c, 0, 64, 0
2, 124638, Control_c, 0, 64, 24
2, 124654, Note_on_c, 0, 75, 0
2, 124658, Control_c, 0, 64, 41
2, 124676, Control_c, 0, 64, 57
2, 124695, Control_c, 0, 64, 64
2, 124715, Control_c, 0, 64, 66
2, 124723, Note_on_c, 0, 63, 0
2, 124734, Control_c, 0, 64, 68
2, 124752, Control_c, 0, 64, 70
2, 124773, Control_c, 0, 64, 74
2, 124789, Control_c, 0, 64, 77
2, 124809, Control_c, 0, 64, 79
2, 124868, Control_c, 0, 64, 78
2, 124889, Control_c, 0, 64, 77
2, 124906, Control_c, 0, 64, 75
2, 124927, Control_c, 0, 64, 72
2, 124947, Control_c, 0, 64, 66
2, 124965, Control_c, 0, 64, 60
2, 124985, Note_on_c, 0, 66, 0
2, 124990, Control_c, 0, 64, 49
2, 125004, Control_c, 0, 64, 27
2, 125004, Note_on_c, 0, 58, 0
2, 125004, Note_on_c, 0, 68, 61
2, 125008, Note_on_c, 0, 56, 55
2, 125013, Note_on_c, 0, 65, 47
2, 125021, Control_c, 0, 64, 0
2, 125218, Note_on_c, 0, 68, 0
2, 125511, Note_on_c, 0, 68, 68
2, 125552, Note_on_c, 0, 65, 0
2, 125900, Note_on_c, 0, 68, 0
2, 125959, Note_on_c, 0, 70, 58
2, 125979, Note_on_c, 0, 62, 51
2, 126115, Control_c, 0, 64, 27
2, 126138, Control_c, 0, 64, 48
2, 126154, Control_c, 0, 64, 62
2, 126174, Control_c, 0, 64, 67
2, 126178, Note_on_c, 0, 70, 0
2, 126192, Control_c, 0, 64, 69
2, 126211, Control_c, 0, 64, 71
2, 126232, Control_c, 0, 64, 73
2, 126250, Control_c, 0, 64, 76
2, 126270, Control_c, 0, 64, 77
2, 126308, Control_c, 0, 64, 76
2, 126326, Control_c, 0, 64, 75
2, 126349, Control_c, 0, 64, 73
2, 126366, Control_c, 0, 64, 70
2, 126387, Control_c, 0, 64, 65
2, 126403, Control_c, 0, 64, 61
2, 126424, Control_c, 0, 64, 58
2, 126442, Control_c, 0, 64, 57
2, 126461, Control_c, 0, 64, 55
2, 126461, Note_on_c, 0, 70, 66
2, 126484, Control_c, 0, 64, 52
2, 126500, Control_c, 0, 64, 41
2, 126520, Control_c, 0, 64, 0
2, 126976, Note_on_c, 0, 63, 63
2, 127042, Note_on_c, 0, 62, 0
2, 127042, Note_on_c, 0, 70, 0
2, 127446, Note_on_c, 0, 65, 64
2, 127458, Note_on_c, 0, 54, 59
2, 127465, Note_on_c, 0, 56, 0
2, 127575, Note_on_c, 0, 63, 0
2, 127687, Note_on_c, 0, 56, 73
2, 127752, Note_on_c, 0, 54, 0
2, 127964, Note_on_c, 0, 51, 73
2, 127968, Note_on_c, 0, 66, 70
2, 127996, Note_on_c, 0, 58, 23
2, 128001, Note_on_c, 0, 65, 0
2, 128016, Note_on_c, 0, 56, 0
2, 128118, Note_on_c, 0, 58, 0
2, 128209, Control_c, 0, 64, 32
2, 128226, Control_c, 0, 64, 48
2, 128249, Control_c, 0, 64, 59
2, 128267, Control_c, 0, 64, 62
2, 128287, Control_c, 0, 64, 63
2, 128324, Control_c, 0, 64, 64
2, 128344, Control_c, 0, 64, 65
2, 128419, Control_c, 0, 64, 64
2, 128441, Control_c, 0, 64, 63
2, 128459, Control_c, 0, 64, 59
2, 128470, Note_on_c, 0, 54, 53
2, 128474, Note_on_c, 0, 58, 58
2, 128479, Control_c, 0, 64, 53
2, 128497, Control_c, 0, 64, 43
2, 128518, Control_c, 0, 64, 35
2, 128536, Control_c, 0, 64, 39
2, 128554, Control_c, 0, 64, 48
2, 128573, Control_c, 0, 64, 58
2, 128593, Control_c, 0, 64, 63
2, 128597, Note_on_c, 0, 51, 0
2, 128613, Control_c, 0, 64, 66
2, 128631, Control_c, 0, 64, 71
2, 128649, Control_c, 0, 64, 82
2, 128668, Control_c, 0, 64, 109
2, 128691, Control_c, 0, 64, 127
2, 128881, Control_c, 0, 64, 110
2, 128889, Note_on_c, 0, 58, 0
2, 128903, Control_c, 0, 64, 95
2, 128921, Note_on_c, 0, 48, 60
2, 128926, Control_c, 0, 64, 85
2, 128926, Note_on_c, 0, 56, 60
2, 128939, Control_c, 0, 64, 73
2, 128960, Control_c, 0, 64, 63
2, 128971, Note_on_c, 0, 54, 0
2, 128975, Note_on_c, 0, 51, 37
2, 128980, Control_c, 0, 64, 53
2, 128996, Control_c, 0, 64, 39
2, 129014, Control_c, 0, 64, 23
2, 129034, Control_c, 0, 64, 0
2, 129096, Note_on_c, 0, 51, 0
2, 129096, Note_on_c, 0, 51, 3
2, 129375, Note_on_c, 0, 66, 0
2, 129380, Note_on_c, 0, 49, 61
2, 129388, Note_on_c, 0, 64, 68
2, 129399, Note_on_c, 0, 48, 0
2, 129420, Note_on_c, 0, 51, 0
2, 129608, Note_on_c, 0, 51, 68
2, 129616, Note_on_c, 0, 66, 69
2, 129663, Note_on_c, 0, 49, 0
2, 129670, Note_on_c, 0, 64, 0
2, 129888, Note_on_c, 0, 56, 0
2, 129901, Note_on_c, 0, 52, 68
2, 129901, Note_on_c, 0, 68, 70
2, 129962, Note_on_c, 0, 66, 0
2, 129973, Note_on_c, 0, 51, 0
2, 130359, Note_on_c, 0, 51, 66
2, 130373, Note_on_c, 0, 59, 48
2, 130384, Note_on_c, 0, 67, 68
2, 130388, Note_on_c, 0, 63, 59
2, 130402, Note_on_c, 0, 52, 0
2, 130422, Note_on_c, 0, 68, 0
2, 130560, Note_on_c, 0, 59, 0
2, 130569, Control_c, 0, 64, 8
2, 130591, Control_c, 0, 64, 37
2, 130608, Control_c, 0, 64, 54
2, 130617, Note_on_c, 0, 68, 72
2, 130629, Control_c, 0, 64, 60
2, 130647, Control_c, 0, 64, 61
2, 130685, Control_c, 0, 64, 62
2, 130723, Control_c, 0, 64, 63
2, 130781, Control_c, 0, 64, 62
2, 130833, Note_on_c, 0, 67, 0
2, 130858, Control_c, 0, 64, 61
2, 130878, Control_c, 0, 64, 60
2, 130882, Note_on_c, 0, 49, 63
2, 130886, Note_on_c, 0, 70, 67
2, 130900, Control_c, 0, 64, 58
2, 130906, Note_on_c, 0, 64, 52
2, 130915, Control_c, 0, 64, 55
2, 130934, Control_c, 0, 64, 49
2, 130941, Note_on_c, 0, 63, 0
2, 130954, Control_c, 0, 64, 34
2, 130959, Note_on_c, 0, 51, 0
2, 130961, Note_on_c, 0, 68, 0
2, 130975, Control_c, 0, 64, 0
2, 130979, Note_on_c, 0, 61, 27
2, 131357, Note_on_c, 0, 68, 72
2, 131359, Note_on_c, 0, 55, 71
2, 131393, Note_on_c, 0, 70, 0
2, 131412, Note_on_c, 0, 61, 0
2, 131448, Note_on_c, 0, 49, 0
2, 131591, Note_on_c, 0, 70, 74
2, 131635, Note_on_c, 0, 68, 0
2, 131872, Note_on_c, 0, 56, 64
2, 131877, Note_on_c, 0, 71, 70
2, 131886, Note_on_c, 0, 63, 59
2, 131922, Note_on_c, 0, 55, 0
2, 131933, Note_on_c, 0, 64, 0
2, 131957, Note_on_c, 0, 70, 0
2, 132373, Note_on_c, 0, 68, 66
2, 132389, Note_on_c, 0, 47, 55
2, 132453, Note_on_c, 0, 71, 0
2, 132507, Note_on_c, 0, 63, 0
2, 132511, Note_on_c, 0, 56, 0
2, 132869, Note_on_c, 0, 49, 50
2, 132874, Note_on_c, 0, 47, 0
2, 132874, Note_on_c, 0, 70, 67
2, 132876, Note_on_c, 0, 61, 48
2, 132876, Note_on_c, 0, 64, 56
2, 132935, Note_on_c, 0, 68, 0
2, 133110, Note_on_c, 0, 49, 0
2, 133324, Note_on_c, 0, 61, 0
2, 133337, Note_on_c, 0, 70, 0
2, 133345, Note_on_c, 0, 64, 0
2, 133366, Note_on_c, 0, 49, 53
2, 133707, Note_on_c, 0, 49, 0
2, 133876, Note_on_c, 0, 51, 43
2, 133878, Note_on_c, 0, 58, 43
2, 133878, Note_on_c, 0, 67, 55
2, 133883, Note_on_c, 0, 63, 49
2, 134133, Note_on_c, 0, 51, 0
2, 134344, Note_on_c, 0, 58, 0
2, 134349, Note_on_c, 0, 67, 0
2, 134356, Note_on_c, 0, 63, 0
2, 134374, Note_on_c, 0, 51, 57
2, 134868, Note_on_c, 0, 68, 62
2, 134877, Note_on_c, 0, 44, 37
2, 134881, Note_on_c, 0, 59, 50
2, 134884, Note_on_c, 0, 63, 47
2, 134915, Note_on_c, 0, 51, 0
2, 135369, Note_on_c, 0, 70, 73
2, 135408, Note_on_c, 0, 68, 0
2, 135670, Note_on_c, 0, 44, 0
2, 135836, Note_on_c, 0, 59, 0
2, 135867, Note_on_c, 0, 71, 72
2, 135925, Note_on_c, 0, 63, 0
2, 135958, Note_on_c, 0, 70, 0
2, 136325, Note_on_c, 0, 51, 51
2, 136330, Note_on_c, 0, 66, 64
2, 136334, Note_on_c, 0, 59, 55
2, 136399, Note_on_c, 0, 71, 0
2, 136427, Control_c, 0, 64, 29
2, 136444, Control_c, 0, 64, 49
2, 136463, Control_c, 0, 64, 62
2, 136468, Note_on_c, 0, 59, 0
2, 136483, Control_c, 0, 64, 67
2, 136506, Control_c, 0, 64, 70
2, 136521, Control_c, 0, 64, 74
2, 136525, Note_on_c, 0, 66, 0
2, 136541, Control_c, 0, 64, 80
2, 136560, Control_c, 0, 64, 88
2, 136579, Control_c, 0, 64, 99
2, 136597, Control_c, 0, 64, 113
2, 136617, Control_c, 0, 64, 122
2, 136656, Control_c, 0, 64, 120
2, 136733, Control_c, 0, 64, 116
2, 136753, Control_c, 0, 64, 111
2, 136775, Control_c, 0, 64, 106
2, 136790, Control_c, 0, 64, 100
2, 136810, Control_c, 0, 64, 94
2, 136829, Control_c, 0, 64, 86
2, 136845, Note_on_c, 0, 73, 79
2, 136849, Control_c, 0, 64, 73
2, 136856, Note_on_c, 0, 68, 67
2, 136861, Note_on_c, 0, 52, 49
2, 136868, Control_c, 0, 64, 61
2, 136875, Note_on_c, 0, 51, 0
2, 136875, Note_on_c, 0, 64, 55
2, 136886, Control_c, 0, 64, 43
2, 136910, Control_c, 0, 64, 0
2, 137088, Note_on_c, 0, 52, 0
2, 137281, Note_on_c, 0, 64, 0
2, 137310, Note_on_c, 0, 73, 0
2, 137328, Note_on_c, 0, 52, 65
2, 137332, Note_on_c, 0, 68, 0
2, 137659, Note_on_c, 0, 52, 0
2, 137798, Note_on_c, 0, 70, 76
2, 137812, Note_on_c, 0, 54, 45
2, 137812, Note_on_c, 0, 66, 61
2, 137816, Note_on_c, 0, 61, 53
2, 138071, Note_on_c, 0, 54, 0
2, 138217, Note_on_c, 0, 61, 0
2, 138281, Note_on_c, 0, 54, 60
2, 138281, Note_on_c, 0, 66, 0
2, 138309, Note_on_c, 0, 70, 0
2, 138765, Note_on_c, 0, 47, 36
2, 138790, Note_on_c, 0, 63, 40
2, 138794, Note_on_c, 0, 66, 43
2, 138799, Note_on_c, 0, 71, 43
2, 138838, Note_on_c, 0, 54, 0
2, 139222, Note_on_c, 0, 71, 0
2, 139247, Note_on_c, 0, 75, 58
2, 139269, Note_on_c, 0, 66, 0
2, 139467, Note_on_c, 0, 74, 66
2, 139523, Note_on_c, 0, 75, 0
2, 139587, Note_on_c, 0, 47, 0
2, 139742, Note_on_c, 0, 75, 62
2, 139790, Note_on_c, 0, 74, 0
2, 139868, Note_on_c, 0, 63, 0
2, 140182, Note_on_c, 0, 70, 58
2, 140200, Note_on_c, 0, 63, 44
2, 140201, Note_on_c, 0, 54, 40
2, 140266, Control_c, 0, 64, 29
2, 140281, Note_on_c, 0, 75, 0
2, 140286, Control_c, 0, 64, 48
2, 140304, Control_c, 0, 64, 61
2, 140322, Control_c, 0, 64, 66
2, 140327, Note_on_c, 0, 63, 0
2, 140342, Control_c, 0, 64, 68
2, 140361, Control_c, 0, 64, 71
2, 140375, Note_on_c, 0, 70, 0
2, 140381, Control_c, 0, 64, 76
2, 140400, Control_c, 0, 64, 82
2, 140421, Control_c, 0, 64, 89
2, 140439, Control_c, 0, 64, 94
2, 140515, Control_c, 0, 64, 97
2, 140534, Control_c, 0, 64, 102
2, 140554, Control_c, 0, 64, 110
2, 140574, Control_c, 0, 64, 115
2, 140591, Note_on_c, 0, 54, 0
2, 140595, Control_c, 0, 64, 113
2, 140613, Control_c, 0, 64, 108
2, 140632, Control_c, 0, 64, 102
2, 140650, Control_c, 0, 64, 93
2, 140665, Note_on_c, 0, 56, 41
2, 140665, Note_on_c, 0, 77, 73
2, 140669, Control_c, 0, 64, 81
2, 140684, Note_on_c, 0, 68, 59
2, 140688, Control_c, 0, 64, 67
2, 140696, Note_on_c, 0, 71, 54
2, 140708, Control_c, 0, 64, 55
2, 140725, Control_c, 0, 64, 24
2, 140747, Control_c, 0, 64, 0
2, 140891, Note_on_c, 0, 56, 0
2, 141151, Note_on_c, 0, 68, 0
2, 141151, Note_on_c, 0, 77, 0
2, 141164, Note_on_c, 0, 56, 60
2, 141169, Note_on_c, 0, 71, 0
2, 141460, Note_on_c, 0, 56, 0
2, 141653, Note_on_c, 0, 58, 54
2, 141653, Note_on_c, 0, 74, 72
2, 141670, Note_on_c, 0, 70, 57
2, 141678, Note_on_c, 0, 65, 47
2, 141907, Note_on_c, 0, 58, 0
2, 142084, Note_on_c, 0, 65, 0
2, 142138, Note_on_c, 0, 74, 0
2, 142163, Note_on_c, 0, 70, 0
2, 142165, Note_on_c, 0, 58, 66
2, 142621, Note_on_c, 0, 75, 74
2, 142629, Note_on_c, 0, 58, 0
2, 142635, Note_on_c, 0, 63, 47
2, 142635, Note_on_c, 0, 66, 66
2, 142638, Note_on_c, 0, 51, 51
2, 142801, Control_c, 0, 64, 13
2, 142822, Control_c, 0, 64, 35
2, 142837, Control_c, 0, 64, 50
2, 142860, Control_c, 0, 64, 61
2, 142869, Note_on_c, 0, 66, 0
2, 142878, Control_c, 0, 64, 64
2, 142896, Control_c, 0, 64, 65
2, 142916, Control_c, 0, 64, 66
2, 142937, Control_c, 0, 64, 70
2, 142954, Control_c, 0, 64, 76
2, 142973, Control_c, 0, 64, 85
2, 142992, Control_c, 0, 64, 93
2, 143010, Control_c, 0, 64, 94
2, 143049, Control_c, 0, 64, 92
2, 143069, Control_c, 0, 64, 87
2, 143087, Control_c, 0, 64, 78
2, 143096, Note_on_c, 0, 77, 85
2, 143100, Note_on_c, 0, 68, 76
2, 143109, Control_c, 0, 64, 65
2, 143130, Control_c, 0, 64, 52
2, 143143, Control_c, 0, 64, 37
2, 143187, Control_c, 0, 64, 47
2, 143198, Note_on_c, 0, 63, 0
2, 143203, Control_c, 0, 64, 58
2, 143223, Control_c, 0, 64, 63
2, 143241, Control_c, 0, 64, 65
2, 143263, Control_c, 0, 64, 70
2, 143279, Control_c, 0, 64, 78
2, 143300, Control_c, 0, 64, 91
2, 143320, Control_c, 0, 64, 111
2, 143335, Note_on_c, 0, 77, 0
2, 143342, Control_c, 0, 64, 127
2, 143388, Note_on_c, 0, 75, 0
2, 143402, Note_on_c, 0, 68, 0
2, 143471, Control_c, 0, 64, 112
2, 143491, Control_c, 0, 64, 106
2, 143511, Control_c, 0, 64, 103
2, 143529, Control_c, 0, 64, 99
2, 143548, Control_c, 0, 64, 96
2, 143566, Note_on_c, 0, 63, 73
2, 143568, Control_c, 0, 64, 90
2, 143571, Note_on_c, 0, 78, 76
2, 143588, Control_c, 0, 64, 81
2, 143588, Note_on_c, 0, 70, 64
2, 143605, Control_c, 0, 64, 70
2, 143624, Control_c, 0, 64, 61
2, 143639, Note_on_c, 0, 51, 0
2, 143645, Control_c, 0, 64, 49
2, 143668, Control_c, 0, 64, 28
2, 143683, Control_c, 0, 64, 0
2, 144074, Note_on_c, 0, 71, 58
2, 144099, Note_on_c, 0, 70, 0
2, 144294, Note_on_c, 0, 70, 62
2, 144310, Note_on_c, 0, 71, 0
2, 144558, Note_on_c, 0, 60, 60
2, 144566, Note_on_c, 0, 70, 0
2, 144571, Note_on_c, 0, 68, 67
2, 144626, Note_on_c, 0, 63, 0
2, 145024, Note_on_c, 0, 61, 58
2, 145033, Note_on_c, 0, 76, 73
2, 145040, Note_on_c, 0, 73, 65
2, 145076, Note_on_c, 0, 60, 0
2, 145092, Note_on_c, 0, 78, 0
2, 145101, Note_on_c, 0, 68, 0
2, 145256, Note_on_c, 0, 78, 78
2, 145263, Note_on_c, 0, 63, 70
2, 145329, Note_on_c, 0, 61, 0
2, 145367, Note_on_c, 0, 76, 0
2, 145542, Note_on_c, 0, 80, 73
2, 145551, Note_on_c, 0, 64, 72
2, 145606, Note_on_c, 0, 78, 0
2, 145611, Note_on_c, 0, 63, 0
2, 146017, Note_on_c, 0, 63, 64
2, 146017, Note_on_c, 0, 79, 73
2, 146022, Note_on_c, 0, 75, 57
2, 146066, Note_on_c, 0, 80, 0
2, 146110, Note_on_c, 0, 64, 0
2, 146112, Note_on_c, 0, 73, 0
2, 146252, Note_on_c, 0, 80, 76
2, 146504, Note_on_c, 0, 61, 64
2, 146513, Note_on_c, 0, 82, 73
2, 146518, Note_on_c, 0, 79, 0
2, 146520, Note_on_c, 0, 76, 67
2, 146562, Note_on_c, 0, 75, 0
2, 146593, Note_on_c, 0, 63, 0
2, 146600, Note_on_c, 0, 80, 0
2, 146969, Note_on_c, 0, 67, 75
2, 146969, Note_on_c, 0, 80, 77
2, 147015, Note_on_c, 0, 82, 0
2, 147057, Note_on_c, 0, 61, 0
2, 147198, Note_on_c, 0, 82, 79
2, 147295, Note_on_c, 0, 80, 0
2, 147468, Note_on_c, 0, 68, 73
2, 147472, Note_on_c, 0, 83, 72
2, 147481, Note_on_c, 0, 75, 67
2, 147517, Note_on_c, 0, 67, 0
2, 147542, Note_on_c, 0, 76, 0
2, 147567, Note_on_c, 0, 82, 0
2, 147931, Note_on_c, 0, 80, 72
2, 147954, Note_on_c, 0, 59, 65
2, 148010, Note_on_c, 0, 83, 0
2, 148021, Note_on_c, 0, 68, 0
2, 148423, Note_on_c, 0, 61, 61
2, 148425, Note_on_c, 0, 82, 74
2, 148436, Note_on_c, 0, 73, 68
2, 148457, Note_on_c, 0, 59, 0
2, 148492, Note_on_c, 0, 75, 0
2, 148496, Note_on_c, 0, 80, 0
2, 148679, Note_on_c, 0, 61, 0
2, 148906, Note_on_c, 0, 61, 61
2, 148940, Note_on_c, 0, 82, 0
2, 149202, Note_on_c, 0, 61, 0
2, 149383, Note_on_c, 0, 79, 76
2, 149398, Note_on_c, 0, 63, 52
2, 149678, Note_on_c, 0, 63, 0
2, 149872, Note_on_c, 0, 63, 62
2, 149886, Note_on_c, 0, 79, 0
2, 150354, Note_on_c, 0, 80, 70
2, 150366, Note_on_c, 0, 56, 45
2, 150423, Note_on_c, 0, 63, 0
2, 150557, Control_c, 0, 64, 10
2, 150575, Control_c, 0, 64, 21
2, 150595, Control_c, 0, 64, 29
2, 150615, Control_c, 0, 64, 37
2, 150634, Control_c, 0, 64, 46
2, 150653, Control_c, 0, 64, 55
2, 150672, Control_c, 0, 64, 61
2, 150690, Control_c, 0, 64, 64
2, 150710, Control_c, 0, 64, 66
2, 150730, Control_c, 0, 64, 71
2, 150748, Control_c, 0, 64, 80
2, 150768, Control_c, 0, 64, 92
2, 150789, Control_c, 0, 64, 107
2, 150807, Control_c, 0, 64, 127
2, 150812, Note_on_c, 0, 78, 73
2, 150863, Note_on_c, 0, 80, 0
2, 150905, Note_on_c, 0, 73, 0
2, 150947, Note_on_c, 0, 78, 0
2, 151040, Note_on_c, 0, 56, 0
2, 151056, Control_c, 0, 64, 116
2, 151058, Note_on_c, 0, 76, 75
2, 151078, Control_c, 0, 64, 108
2, 151094, Control_c, 0, 64, 101
2, 151114, Control_c, 0, 64, 94
2, 151132, Control_c, 0, 64, 88
2, 151151, Control_c, 0, 64, 82
2, 151171, Control_c, 0, 64, 78
2, 151191, Control_c, 0, 64, 75
2, 151208, Control_c, 0, 64, 73
2, 151227, Control_c, 0, 64, 71
2, 151247, Control_c, 0, 64, 69
2, 151266, Control_c, 0, 64, 66
2, 151288, Control_c, 0, 64, 63
2, 151307, Control_c, 0, 64, 59
2, 151313, Note_on_c, 0, 75, 72
2, 151324, Control_c, 0, 64, 53
2, 151324, Note_on_c, 0, 71, 68
2, 151345, Control_c, 0, 64, 46
2, 151359, Note_on_c, 0, 76, 0
2, 151364, Control_c, 0, 64, 37
2, 151382, Control_c, 0, 64, 16
2, 151401, Control_c, 0, 64, 0
2, 151770, Note_on_c, 0, 76, 84
2, 151774, Note_on_c, 0, 56, 58
2, 151831, Note_on_c, 0, 75, 0
2, 152245, Note_on_c, 0, 78, 84
2, 152254, Note_on_c, 0, 57, 67
2, 152255, Note_on_c, 0, 69, 59
2, 152284, Note_on_c, 0, 56, 0
2, 152286, Note_on_c, 0, 71, 0
2, 152315, Note_on_c, 0, 76, 0
2, 152498, Note_on_c, 0, 57, 0
2, 152720, Note_on_c, 0, 57, 69
2, 152759, Note_on_c, 0, 78, 0
2, 153049, Note_on_c, 0, 57, 0
2, 153199, Note_on_c, 0, 75, 68
2, 153216, Note_on_c, 0, 59, 54
2, 153523, Note_on_c, 0, 59, 0
2, 153686, Note_on_c, 0, 75, 0
2, 153690, Note_on_c, 0, 59, 56
2, 154181, Note_on_c, 0, 52, 43
2, 154181, Note_on_c, 0, 76, 67
2, 154259, Note_on_c, 0, 59, 0
2, 154660, Note_on_c, 0, 75, 62
2, 154869, Note_on_c, 0, 76, 0
2, 154895, Note_on_c, 0, 73, 68
2, 154938, Note_on_c, 0, 75, 0
2, 155166, Note_on_c, 0, 68, 56
2, 155172, Note_on_c, 0, 52, 0
2, 155178, Note_on_c, 0, 72, 67
2, 155223, Note_on_c, 0, 73, 0
2, 155253, Note_on_c, 0, 69, 0
2, 155641, Note_on_c, 0, 52, 50
2, 155647, Note_on_c, 0, 73, 64
2, 155681, Note_on_c, 0, 72, 0
2, 156137, Note_on_c, 0, 75, 63
2, 156145, Note_on_c, 0, 54, 50
2, 156145, Note_on_c, 0, 66, 49
2, 156148, Note_on_c, 0, 52, 0
2, 156185, Note_on_c, 0, 73, 0
2, 156204, Note_on_c, 0, 68, 0
2, 156417, Note_on_c, 0, 54, 0
2, 156620, Note_on_c, 0, 54, 55
2, 156631, Note_on_c, 0, 75, 0
2, 156904, Note_on_c, 0, 54, 0
2, 157081, Note_on_c, 0, 72, 58
2, 157086, Note_on_c, 0, 56, 42
2, 157372, Note_on_c, 0, 56, 0
2, 157483, Note_on_c, 0, 72, 0
2, 157560, Note_on_c, 0, 56, 51
2, 158048, Note_on_c, 0, 73, 60
2, 158050, Note_on_c, 0, 49, 43
2, 158121, Note_on_c, 0, 66, 0
2, 158130, Note_on_c, 0, 56, 0
2, 158554, Note_on_c, 0, 51, 57
2, 158554, Note_on_c, 0, 64, 63
2, 158645, Note_on_c, 0, 49, 0
2, 158775, Note_on_c, 0, 66, 66
2, 159050, Note_on_c, 0, 68, 65
2, 159057, Note_on_c, 0, 49, 57
2, 159057, Note_on_c, 0, 52, 51
2, 159092, Note_on_c, 0, 64, 0
2, 159105, Note_on_c, 0, 66, 0
2, 159117, Note_on_c, 0, 51, 0
2, 159536, Note_on_c, 0, 52, 0
2, 159547, Note_on_c, 0, 54, 56
2, 159551, Note_on_c, 0, 66, 55
2, 159608, Note_on_c, 0, 68, 0
2, 159783, Note_on_c, 0, 64, 65
2, 159796, Note_on_c, 0, 66, 0
2, 160064, Note_on_c, 0, 48, 58
2, 160068, Note_on_c, 0, 56, 49
2, 160074, Note_on_c, 0, 63, 63
2, 160107, Note_on_c, 0, 73, 0
2, 160114, Note_on_c, 0, 49, 0
2, 160119, Note_on_c, 0, 54, 0
2, 160126, Note_on_c, 0, 64, 0
2, 160532, Note_on_c, 0, 49, 61
2, 160539, Note_on_c, 0, 73, 70
2, 160554, Note_on_c, 0, 64, 62
2, 160558, Note_on_c, 0, 63, 0
2, 160565, Note_on_c, 0, 48, 0
2, 160769, Note_on_c, 0, 51, 74
2, 160769, Note_on_c, 0, 66, 70
2, 160813, Note_on_c, 0, 49, 0
2, 161010, Note_on_c, 0, 64, 0
2, 161060, Note_on_c, 0, 68, 69
2, 161067, Note_on_c, 0, 52, 70
2, 161118, Note_on_c, 0, 51, 0
2, 161128, Note_on_c, 0, 66, 0
2, 161132, Note_on_c, 0, 56, 0
2, 161232, Control_c, 0, 64, 13
2, 161248, Control_c, 0, 64, 26
2, 161270, Control_c, 0, 64, 35
2, 161288, Control_c, 0, 64, 43
2, 161308, Control_c, 0, 64, 50
2, 161326, Control_c, 0, 64, 55
2, 161345, Control_c, 0, 64, 57
2, 161366, Control_c, 0, 64, 58
2, 161386, Control_c, 0, 64, 59
2, 161405, Control_c, 0, 64, 60
2, 161519, Control_c, 0, 64, 59
2, 161528, Note_on_c, 0, 51, 70
2, 161528, Note_on_c, 0, 68, 0
2, 161530, Note_on_c, 0, 75, 62
2, 161532, Note_on_c, 0, 67, 60
2, 161541, Control_c, 0, 64, 56
2, 161550, Note_on_c, 0, 59, 54
2, 161559, Control_c, 0, 64, 48
2, 161577, Control_c, 0, 64, 26
2, 161590, Note_on_c, 0, 52, 0
2, 161597, Control_c, 0, 64, 0
2, 161640, Note_on_c, 0, 73, 0
2, 161730, Control_c, 0, 64, 8
2, 161742, Note_on_c, 0, 59, 0
2, 161751, Control_c, 0, 64, 32
2, 161767, Note_on_c, 0, 68, 72
2, 161772, Control_c, 0, 64, 46
2, 161788, Control_c, 0, 64, 57
2, 161806, Control_c, 0, 64, 62
2, 161828, Control_c, 0, 64, 63
2, 161828, Note_on_c, 0, 75, 0
2, 161845, Control_c, 0, 64, 64
2, 161866, Control_c, 0, 64, 65
2, 161887, Control_c, 0, 64, 66
2, 161902, Control_c, 0, 64, 67
2, 161962, Control_c, 0, 64, 66
2, 161980, Control_c, 0, 64, 65
2, 162001, Control_c, 0, 64, 64
2, 162020, Control_c, 0, 64, 62
2, 162030, Note_on_c, 0, 49, 64
2, 162039, Control_c, 0, 64, 56
2, 162044, Note_on_c, 0, 76, 66
2, 162046, Note_on_c, 0, 70, 59
2, 162059, Control_c, 0, 64, 46
2, 162059, Note_on_c, 0, 68, 0
2, 162064, Note_on_c, 0, 61, 43
2, 162079, Control_c, 0, 64, 24
2, 162079, Note_on_c, 0, 67, 0
2, 162097, Control_c, 0, 64, 0
2, 162109, Note_on_c, 0, 51, 0
2, 162502, Note_on_c, 0, 68, 67
2, 162506, Note_on_c, 0, 55, 69
2, 162513, Note_on_c, 0, 70, 0
2, 162568, Note_on_c, 0, 76, 0
2, 162590, Note_on_c, 0, 61, 0
2, 162638, Note_on_c, 0, 49, 0
2, 162745, Note_on_c, 0, 70, 73
2, 162786, Control_c, 0, 64, 23
2, 162806, Control_c, 0, 64, 36
2, 162827, Control_c, 0, 64, 42
2, 162832, Note_on_c, 0, 68, 0
2, 162845, Control_c, 0, 64, 45
2, 162862, Control_c, 0, 64, 47
2, 162959, Control_c, 0, 64, 46
2, 162978, Control_c, 0, 64, 44
2, 162996, Note_on_c, 0, 75, 68
2, 163000, Control_c, 0, 64, 38
2, 163000, Note_on_c, 0, 56, 68
2, 163008, Note_on_c, 0, 71, 67
2, 163018, Control_c, 0, 64, 27
2, 163037, Control_c, 0, 64, 0
2, 163037, Note_on_c, 0, 70, 0
2, 163059, Note_on_c, 0, 55, 0
2, 163480, Note_on_c, 0, 47, 60
2, 163480, Note_on_c, 0, 63, 56
2, 163484, Note_on_c, 0, 68, 65
2, 163550, Note_on_c, 0, 71, 0
2, 163561, Note_on_c, 0, 75, 0
2, 163632, Note_on_c, 0, 56, 0
2, 163651, Control_c, 0, 64, 15
2, 163669, Control_c, 0, 64, 33
2, 163691, Control_c, 0, 64, 46
2, 163708, Control_c, 0, 64, 56
2, 163730, Control_c, 0, 64, 60
2, 163730, Note_on_c, 0, 63, 0
2, 163766, Control_c, 0, 64, 61
2, 163785, Control_c, 0, 64, 62
2, 163804, Control_c, 0, 64, 63
2, 163824, Control_c, 0, 64, 64
2, 163919, Control_c, 0, 64, 63
2, 163951, Note_on_c, 0, 68, 0
2, 163959, Control_c, 0, 64, 62
2, 163959, Note_on_c, 0, 49, 59
2, 163970, Note_on_c, 0, 73, 65
2, 163979, Control_c, 0, 64, 61
2, 163986, Note_on_c, 0, 64, 58
2, 163986, Note_on_c, 0, 70, 59
2, 163996, Control_c, 0, 64, 60
2, 164009, Note_on_c, 0, 47, 0
2, 164019, Control_c, 0, 64, 56
2, 164035, Control_c, 0, 64, 48
2, 164054, Control_c, 0, 64, 26
2, 164073, Control_c, 0, 64, 0
2, 164264, Note_on_c, 0, 49, 0
2, 164433, Note_on_c, 0, 64, 0
2, 164444, Note_on_c, 0, 70, 0
2, 164464, Note_on_c, 0, 49, 61
2, 164774, Note_on_c, 0, 49, 0
2, 164950, Note_on_c, 0, 51, 60
2, 164950, Note_on_c, 0, 67, 59
2, 164957, Note_on_c, 0, 63, 51
2, 165245, Note_on_c, 0, 51, 0
2, 165411, Note_on_c, 0, 63, 0
2, 165418, Note_on_c, 0, 51, 56
2, 165433, Note_on_c, 0, 67, 0
2, 165903, Note_on_c, 0, 68, 52
2, 165912, Note_on_c, 0, 63, 43
2, 165916, Note_on_c, 0, 44, 44
2, 165947, Note_on_c, 0, 51, 0
2, 165992, Control_c, 0, 64, 36
2, 166011, Control_c, 0, 64, 52
2, 166024, Note_on_c, 0, 68, 0
2, 166024, Note_on_c, 0, 73, 0
2, 166029, Note_on_c, 0, 63, 0
2, 166033, Control_c, 0, 64, 62
2, 166052, Control_c, 0, 64, 65
2, 166070, Control_c, 0, 64, 67
2, 166088, Control_c, 0, 64, 69
2, 166108, Control_c, 0, 64, 76
2, 166128, Control_c, 0, 64, 85
2, 166147, Control_c, 0, 64, 97
2, 166165, Control_c, 0, 64, 106
2, 166186, Control_c, 0, 64, 107
2, 166244, Control_c, 0, 64, 111
2, 166262, Control_c, 0, 64, 127
2, 166392, Note_on_c, 0, 79, 73
2, 166398, Note_on_c, 0, 46, 49
2, 166437, Control_c, 0, 64, 108
2, 166456, Control_c, 0, 64, 89
2, 166464, Note_on_c, 0, 44, 0
2, 166474, Control_c, 0, 64, 75
2, 166494, Control_c, 0, 64, 65
2, 166510, Control_c, 0, 64, 56
2, 166529, Control_c, 0, 64, 39
2, 166550, Control_c, 0, 64, 0
2, 166868, Note_on_c, 0, 56, 43
2, 166875, Note_on_c, 0, 47, 44
2, 166881, Note_on_c, 0, 80, 73
2, 166912, Note_on_c, 0, 46, 0
2, 166983, Note_on_c, 0, 79, 0
2, 167028, Control_c, 0, 64, 39
2, 167050, Control_c, 0, 64, 57
2, 167069, Control_c, 0, 64, 64
2, 167088, Control_c, 0, 64, 65
2, 167106, Control_c, 0, 64, 66
2, 167125, Control_c, 0, 64, 68
2, 167148, Control_c, 0, 64, 70
2, 167204, Control_c, 0, 64, 69
2, 167220, Control_c, 0, 64, 68
2, 167259, Control_c, 0, 64, 67
2, 167279, Control_c, 0, 64, 66
2, 167297, Control_c, 0, 64, 64
2, 167320, Control_c, 0, 64, 61
2, 167337, Control_c, 0, 64, 55
2, 167357, Control_c, 0, 64, 45
2, 167377, Control_c, 0, 64, 29
2, 167377, Note_on_c, 0, 71, 62
2, 167390, Note_on_c, 0, 47, 0
2, 167390, Note_on_c, 0, 49, 45
2, 167395, Control_c, 0, 64, 0
2, 167483, Note_on_c, 0, 80, 0
2, 167510, Control_c, 0, 64, 15
2, 167528, Control_c, 0, 64, 41
2, 167548, Control_c, 0, 64, 58
2, 167569, Control_c, 0, 64, 66
2, 167586, Control_c, 0, 64, 70
2, 167606, Control_c, 0, 64, 74
2, 167625, Control_c, 0, 64, 79
2, 167648, Control_c, 0, 64, 86
2, 167665, Control_c, 0, 64, 95
2, 167682, Control_c, 0, 64, 109
2, 167693, Note_on_c, 0, 56, 0
2, 167703, Control_c, 0, 64, 127
2, 167759, Control_c, 0, 64, 115
2, 167779, Control_c, 0, 64, 106
2, 167799, Control_c, 0, 64, 97
2, 167817, Control_c, 0, 64, 87
2, 167836, Note_on_c, 0, 49, 0
2, 167840, Control_c, 0, 64, 74
2, 167856, Control_c, 0, 64, 63
2, 167862, Note_on_c, 0, 70, 61
2, 167872, Note_on_c, 0, 51, 42
2, 167872, Note_on_c, 0, 55, 42
2, 167875, Control_c, 0, 64, 51
2, 167894, Control_c, 0, 64, 21
2, 167915, Control_c, 0, 64, 0
2, 167939, Note_on_c, 0, 71, 0
2, 168306, Note_on_c, 0, 79, 82
2, 168328, Note_on_c, 0, 56, 56
2, 168355, Note_on_c, 0, 55, 0
2, 168414, Note_on_c, 0, 70, 0
2, 168543, Note_on_c, 0, 58, 66
2, 168590, Note_on_c, 0, 56, 0
2, 168828, Note_on_c, 0, 80, 82
2, 168831, Note_on_c, 0, 59, 53
2, 168833, Note_on_c, 0, 58, 0
2, 168996, Note_on_c, 0, 51, 0
2, 169007, Control_c, 0, 64, 43
2, 169029, Control_c, 0, 64, 63
2, 169048, Control_c, 0, 64, 75
2, 169066, Control_c, 0, 64, 102
2, 169086, Control_c, 0, 64, 127
2, 169088, Note_on_c, 0, 80, 0
2, 169097, Note_on_c, 0, 79, 0
2, 169306, Note_on_c, 0, 73, 75
2, 169318, Note_on_c, 0, 67, 59
2, 169322, Control_c, 0, 64, 101
2, 169326, Note_on_c, 0, 51, 47
2, 169337, Control_c, 0, 64, 73
2, 169337, Note_on_c, 0, 58, 52
2, 169351, Note_on_c, 0, 59, 0
2, 169356, Control_c, 0, 64, 59
2, 169378, Control_c, 0, 64, 39
2, 169394, Control_c, 0, 64, 0
2, 169413, Control_c, 0, 64, 16
2, 169431, Control_c, 0, 64, 32
2, 169452, Control_c, 0, 64, 47
2, 169471, Control_c, 0, 64, 60
2, 169490, Control_c, 0, 64, 68
2, 169508, Control_c, 0, 64, 78
2, 169529, Control_c, 0, 64, 98
2, 169546, Note_on_c, 0, 67, 0
2, 169548, Control_c, 0, 64, 127
2, 169759, Control_c, 0, 64, 118
2, 169780, Control_c, 0, 64, 100
2, 169780, Note_on_c, 0, 71, 81
2, 169788, Note_on_c, 0, 68, 69
2, 169793, Note_on_c, 0, 56, 55
2, 169798, Control_c, 0, 64, 87
2, 169806, Note_on_c, 0, 53, 49
2, 169806, Note_on_c, 0, 58, 0
2, 169817, Control_c, 0, 64, 73
2, 169837, Note_on_c, 0, 73, 0
2, 169841, Control_c, 0, 64, 59
2, 169857, Control_c, 0, 64, 36
2, 169875, Control_c, 0, 64, 0
2, 169879, Note_on_c, 0, 51, 0
2, 170264, Note_on_c, 0, 80, 88
2, 170268, Note_on_c, 0, 62, 52
2, 170393, Control_c, 0, 64, 14
2, 170412, Control_c, 0, 64, 43
2, 170427, Note_on_c, 0, 71, 0
2, 170432, Control_c, 0, 64, 61
2, 170449, Control_c, 0, 64, 72
2, 170455, Note_on_c, 0, 62, 0
2, 170470, Control_c, 0, 64, 91
2, 170488, Control_c, 0, 64, 127
2, 170538, Note_on_c, 0, 56, 0
2, 170732, Note_on_c, 0, 63, 51
2, 170732, Note_on_c, 0, 78, 86
2, 170744, Note_on_c, 0, 53, 0
2, 170748, Note_on_c, 0, 51, 49
2, 170757, Control_c, 0, 64, 84
2, 170776, Control_c, 0, 64, 65
2, 170795, Control_c, 0, 64, 42
2, 170815, Control_c, 0, 64, 0
2, 170834, Note_on_c, 0, 80, 0
2, 170931, Control_c, 0, 64, 22
2, 170948, Control_c, 0, 64, 41
2, 170969, Control_c, 0, 64, 55
2, 170986, Control_c, 0, 64, 63
2, 171008, Control_c, 0, 64, 66
2, 171010, Note_on_c, 0, 68, 0
2, 171028, Control_c, 0, 64, 68
2, 171046, Control_c, 0, 64, 71
2, 171065, Control_c, 0, 64, 75
2, 171082, Control_c, 0, 64, 78
2, 171122, Control_c, 0, 64, 76
2, 171144, Control_c, 0, 64, 72
2, 171162, Control_c, 0, 64, 66
2, 171182, Control_c, 0, 64, 60
2, 171200, Control_c, 0, 64, 51
2, 171204, Note_on_c, 0, 70, 69
2, 171213, Note_on_c, 0, 54, 59
2, 171218, Control_c, 0, 64, 35
2, 171227, Note_on_c, 0, 66, 48
2, 171237, Control_c, 0, 64, 0
2, 171289, Note_on_c, 0, 78, 0
2, 171385, Note_on_c, 0, 63, 0
2, 171540, Note_on_c, 0, 66, 0
2, 171669, Note_on_c, 0, 56, 60
2, 171669, Note_on_c, 0, 68, 72
2, 171673, Note_on_c, 0, 65, 50
2, 171694, Note_on_c, 0, 54, 0
2, 171699, Note_on_c, 0, 70, 0
2, 171940, Note_on_c, 0, 56, 0
2, 172124, Note_on_c, 0, 78, 80
2, 172135, Note_on_c, 0, 56, 55
2, 172189, Note_on_c, 0, 51, 0
2, 172223, Note_on_c, 0, 65, 0
2, 172253, Control_c, 0, 64, 29
2, 172272, Control_c, 0, 64, 50
2, 172295, Control_c, 0, 64, 65
2, 172311, Control_c, 0, 64, 78
2, 172332, Control_c, 0, 64, 127
2, 172386, Note_on_c, 0, 78, 0
2, 172424, Note_on_c, 0, 68, 0
2, 172470, Note_on_c, 0, 56, 0
2, 172582, Control_c, 0, 64, 118
2, 172600, Control_c, 0, 64, 88
2, 172605, Note_on_c, 0, 77, 75
2, 172607, Note_on_c, 0, 58, 40
2, 172614, Note_on_c, 0, 50, 41
2, 172620, Control_c, 0, 64, 69
2, 172639, Control_c, 0, 64, 55
2, 172658, Control_c, 0, 64, 30
2, 172677, Control_c, 0, 64, 0
2, 172812, Control_c, 0, 64, 29
2, 172833, Control_c, 0, 64, 47
2, 172851, Control_c, 0, 64, 60
2, 172869, Note_on_c, 0, 58, 0
2, 172872, Control_c, 0, 64, 62
2, 172967, Control_c, 0, 64, 61
2, 172983, Control_c, 0, 64, 60
2, 173003, Control_c, 0, 64, 59
2, 173022, Control_c, 0, 64, 58
2, 173042, Control_c, 0, 64, 56
2, 173053, Note_on_c, 0, 77, 0
2, 173062, Control_c, 0, 64, 54
2, 173071, Note_on_c, 0, 68, 62
2, 173079, Control_c, 0, 64, 53
2, 173079, Note_on_c, 0, 58, 42
2, 173100, Control_c, 0, 64, 54
2, 173108, Note_on_c, 0, 65, 41
2, 173157, Control_c, 0, 64, 56
2, 173177, Control_c, 0, 64, 58
2, 173196, Control_c, 0, 64, 60
2, 173216, Control_c, 0, 64, 62
2, 173234, Control_c, 0, 64, 63
2, 173252, Control_c, 0, 64, 64
2, 173271, Control_c, 0, 64, 66
2, 173292, Control_c, 0, 64, 68
2, 173311, Control_c, 0, 64, 72
2, 173332, Control_c, 0, 64, 76
2, 173348, Control_c, 0, 64, 78
2, 173406, Control_c, 0, 64, 77
2, 173444, Control_c, 0, 64, 76
2, 173467, Control_c, 0, 64, 75
2, 173482, Control_c, 0, 64, 74
2, 173504, Control_c, 0, 64, 73
2, 173522, Control_c, 0, 64, 72
2, 173540, Control_c, 0, 64, 70
2, 173559, Control_c, 0, 64, 69
2, 173578, Control_c, 0, 64, 65
2, 173585, Note_on_c, 0, 66, 61
2, 173592, Note_on_c, 0, 50, 0
2, 173592, Note_on_c, 0, 51, 41
2, 173599, Control_c, 0, 64, 60
2, 173617, Control_c, 0, 64, 53
2, 173630, Note_on_c, 0, 68, 0
2, 173640, Control_c, 0, 64, 43
2, 173659, Control_c, 0, 64, 33
2, 173659, Control_c, 0, 67, 10
2, 173679, Control_c, 0, 64, 30
2, 173679, Control_c, 0, 67, 14
2, 173693, Control_c, 0, 67, 19
2, 173700, Note_on_c, 0, 65, 0
2, 173716, Control_c, 0, 64, 33
2, 173716, Control_c, 0, 67, 24
2, 173734, Note_on_c, 0, 58, 0
2, 173740, Control_c, 0, 64, 39
2, 173740, Control_c, 0, 67, 30
2, 173753, Control_c, 0, 64, 46
2, 173756, Control_c, 0, 67, 37
2, 173773, Control_c, 0, 64, 53
2, 173773, Control_c, 0, 67, 44
2, 173793, Control_c, 0, 64, 58
2, 173793, Control_c, 0, 67, 49
2, 173810, Control_c, 0, 64, 59
2, 173815, Control_c, 0, 67, 54
2, 173832, Control_c, 0, 64, 60
2, 173832, Control_c, 0, 67, 59
2, 173850, Control_c, 0, 64, 61
2, 173850, Control_c, 0, 67, 64
2, 173868, Control_c, 0, 67, 70
2, 173890, Control_c, 0, 67, 77
2, 173906, Control_c, 0, 67, 83
2, 173924, Control_c, 0, 67, 89
2, 173944, Control_c, 0, 67, 95
2, 173963, Control_c, 0, 67, 102
2, 173982, Control_c, 0, 67, 110
2, 174002, Control_c, 0, 67, 120
2, 174021, Control_c, 0, 64, 60
2, 174025, Control_c, 0, 67, 127
2, 174043, Control_c, 0, 64, 58
2, 174050, Note_on_c, 0, 53, 40
2, 174059, Control_c, 0, 64, 55
2, 174064, Note_on_c, 0, 63, 60
2, 174078, Control_c, 0, 64, 49
2, 174097, Control_c, 0, 64, 35
2, 174119, Control_c, 0, 64, 0
2, 174161, Note_on_c, 0, 66, 0
2, 174195, Control_c, 0, 64, 8
2, 174213, Control_c, 0, 64, 29
2, 174233, Control_c, 0, 64, 42
2, 174252, Control_c, 0, 64, 55
2, 174271, Control_c, 0, 64, 62
2, 174278, Note_on_c, 0, 63, 0
2, 174290, Control_c, 0, 64, 64
2, 174295, Note_on_c, 0, 62, 60
2, 174310, Note_on_c, 0, 51, 0
2, 174328, Control_c, 0, 64, 65
2, 174350, Control_c, 0, 64, 67
2, 174354, Note_on_c, 0, 53, 0
2, 174365, Control_c, 0, 64, 69
2, 174384, Control_c, 0, 64, 70
2, 174406, Control_c, 0, 64, 69
2, 174426, Note_on_c, 0, 62, 0
2, 174520, Control_c, 0, 64, 68
2, 174560, Control_c, 0, 64, 67
2, 174567, Note_on_c, 0, 63, 52
2, 174576, Note_on_c, 0, 54, 42
2, 174581, Control_c, 0, 64, 66
2, 174598, Control_c, 0, 64, 65
2, 174655, Control_c, 0, 64, 64
2, 174675, Control_c, 0, 64, 63
2, 174693, Control_c, 0, 64, 62
2, 174712, Control_c, 0, 64, 61
2, 174730, Control_c, 0, 64, 60
2, 174750, Control_c, 0, 64, 58
2, 174771, Control_c, 0, 64, 56
2, 174789, Control_c, 0, 64, 52
2, 174810, Control_c, 0, 64, 46
2, 174810, Note_on_c, 0, 39, 51
2, 174829, Control_c, 0, 64, 37
2, 174846, Control_c, 0, 64, 21
2, 174868, Control_c, 0, 64, 0
2, 174954, Note_on_c, 0, 54, 0
2, 175043, Note_on_c, 0, 40, 46
2, 175101, Note_on_c, 0, 39, 0
2, 175282, Note_on_c, 0, 42, 57
2, 175289, Note_on_c, 0, 40, 0
2, 175441, Control_c, 0, 67, 121
2, 175461, Control_c, 0, 67, 112
2, 175481, Control_c, 0, 67, 104
2, 175501, Control_c, 0, 67, 96
2, 175518, Control_c, 0, 67, 86
2, 175537, Control_c, 0, 67, 74
2, 175551, Note_on_c, 0, 60, 56
2, 175557, Control_c, 0, 67, 63
2, 175569, Note_on_c, 0, 44, 51
2, 175576, Control_c, 0, 67, 52
2, 175595, Control_c, 0, 67, 42
2, 175595, Note_on_c, 0, 42, 0
2, 175614, Note_on_c, 0, 63, 0
2, 175620, Control_c, 0, 67, 33
2, 175634, Control_c, 0, 67, 23
2, 175655, Control_c, 0, 64, 28
2, 175655, Control_c, 0, 67, 9
2, 175673, Control_c, 0, 64, 49
2, 175673, Control_c, 0, 67, 0
2, 175690, Control_c, 0, 64, 64
2, 175712, Control_c, 0, 64, 70
2, 175716, Note_on_c, 0, 44, 0
2, 175726, Control_c, 0, 64, 80
2, 175746, Control_c, 0, 64, 92
2, 175768, Control_c, 0, 64, 111
2, 175788, Control_c, 0, 64, 127
2, 175975, Control_c, 0, 64, 106
2, 175997, Control_c, 0, 64, 96
2, 176015, Control_c, 0, 64, 87
2, 176035, Note_on_c, 0, 61, 59
2, 176037, Control_c, 0, 64, 79
2, 176041, Note_on_c, 0, 52, 54
2, 176046, Note_on_c, 0, 49, 44
2, 176053, Control_c, 0, 64, 72
2, 176073, Control_c, 0, 64, 65
2, 176092, Control_c, 0, 64, 57
2, 176109, Control_c, 0, 64, 44
2, 176131, Control_c, 0, 64, 26
2, 176148, Control_c, 0, 64, 0
2, 176261, Note_on_c, 0, 63, 69
2, 176265, Note_on_c, 0, 52, 0
2, 176269, Note_on_c, 0, 54, 53
2, 176319, Note_on_c, 0, 61, 0
2, 176372, Note_on_c, 0, 60, 0
2, 176536, Note_on_c, 0, 56, 53
2, 176536, Note_on_c, 0, 64, 72
2, 176542, Note_on_c, 0, 54, 0
2, 176553, Control_c, 0, 64, 13
2, 176572, Control_c, 0, 64, 32
2, 176577, Note_on_c, 0, 63, 0
2, 176591, Control_c, 0, 64, 50
2, 176604, Note_on_c, 0, 49, 0
2, 176611, Control_c, 0, 64, 63
2, 176627, Control_c, 0, 64, 69
2, 176649, Control_c, 0, 64, 78
2, 176667, Control_c, 0, 64, 93
2, 176686, Control_c, 0, 64, 127
2, 176855, Note_on_c, 0, 56, 0
2, 176878, Control_c, 0, 64, 99
2, 176896, Control_c, 0, 64, 87
2, 176917, Control_c, 0, 64, 79
2, 176937, Control_c, 0, 64, 72
2, 176955, Control_c, 0, 64, 66
2, 176975, Control_c, 0, 64, 59
2, 176983, Note_on_c, 0, 63, 62
2, 176988, Note_on_c, 0, 51, 37
2, 176996, Control_c, 0, 64, 52
2, 176996, Note_on_c, 0, 55, 48
2, 177015, Control_c, 0, 64, 46
2, 177033, Control_c, 0, 64, 36
2, 177038, Note_on_c, 0, 64, 0
2, 177053, Control_c, 0, 64, 9
2, 177072, Control_c, 0, 64, 0
2, 177181, Note_on_c, 0, 55, 0
2, 177211, Note_on_c, 0, 56, 54
2, 177474, Note_on_c, 0, 61, 62
2, 177476, Note_on_c, 0, 56, 0
2, 177480, Note_on_c, 0, 58, 48
2, 177498, Note_on_c, 0, 52, 47
2, 177519, Note_on_c, 0, 63, 0
2, 177523, Note_on_c, 0, 51, 0
2, 177957, Note_on_c, 0, 67, 68
2, 177981, Note_on_c, 0, 56, 48
2, 178001, Note_on_c, 0, 58, 0
2, 178031, Control_c, 0, 64, 34
2, 178051, Control_c, 0, 64, 52
2, 178070, Control_c, 0, 64, 62
2, 178088, Control_c, 0, 64, 65
2, 178109, Control_c, 0, 64, 68
2, 178127, Control_c, 0, 64, 75
2, 178145, Control_c, 0, 64, 88
2, 178158, Note_on_c, 0, 61, 0
2, 178165, Control_c, 0, 64, 127
2, 178191, Note_on_c, 0, 56, 0
2, 178198, Note_on_c, 0, 58, 60
2, 178306, Note_on_c, 0, 58, 0
2, 178414, Control_c, 0, 64, 122
2, 178434, Control_c, 0, 64, 87
2, 178446, Note_on_c, 0, 52, 0
2, 178455, Control_c, 0, 64, 68
2, 178474, Note_on_c, 0, 68, 74
2, 178478, Control_c, 0, 64, 53
2, 178483, Note_on_c, 0, 59, 47
2, 178489, Control_c, 0, 64, 10
2, 178502, Note_on_c, 0, 51, 43
2, 178508, Control_c, 0, 64, 0
2, 178534, Note_on_c, 0, 67, 0
2, 178700, Control_c, 0, 64, 17
2, 178717, Control_c, 0, 64, 41
2, 178734, Note_on_c, 0, 59, 0
2, 178739, Control_c, 0, 64, 58
2, 178757, Control_c, 0, 64, 65
2, 178777, Control_c, 0, 64, 67
2, 178794, Control_c, 0, 64, 68
2, 178817, Control_c, 0, 64, 70
2, 178837, Control_c, 0, 64, 72
2, 178855, Control_c, 0, 64, 75
2, 178891, Control_c, 0, 64, 74
2, 178915, Control_c, 0, 64, 73
2, 178932, Control_c, 0, 64, 70
2, 178949, Control_c, 0, 64, 66
2, 178957, Note_on_c, 0, 56, 46
2, 178962, Note_on_c, 0, 59, 68
2, 178968, Control_c, 0, 64, 58
2, 178991, Control_c, 0, 64, 43
2, 179007, Control_c, 0, 64, 0
2, 179083, Note_on_c, 0, 68, 0
2, 179087, Note_on_c, 0, 51, 0
2, 179463, Note_on_c, 0, 58, 37
2, 179472, Note_on_c, 0, 61, 56
2, 179478, Note_on_c, 0, 49, 36
2, 179510, Note_on_c, 0, 56, 0
2, 179524, Note_on_c, 0, 59, 0
2, 179768, Note_on_c, 0, 61, 0
2, 179915, Note_on_c, 0, 58, 0
2, 179941, Note_on_c, 0, 61, 49
2, 180291, Note_on_c, 0, 61, 0
2, 180414, Note_on_c, 0, 63, 53
2, 180419, Note_on_c, 0, 55, 41
2, 180696, Note_on_c, 0, 63, 0
2, 180899, Note_on_c, 0, 55, 0
2, 180901, Note_on_c, 0, 63, 48
2, 181377, Note_on_c, 0, 56, 43
2, 181379, Note_on_c, 0, 63, 0
2, 181836, Note_on_c, 0, 67, 47
2, 181846, Note_on_c, 0, 47, 35
2, 181874, Note_on_c, 0, 49, 0
2, 182053, Note_on_c, 0, 46, 54
2, 182073, Note_on_c, 0, 47, 0
2, 182315, Note_on_c, 0, 47, 48
2, 182317, Note_on_c, 0, 68, 57
2, 182376, Note_on_c, 0, 67, 0
2, 182380, Note_on_c, 0, 46, 0
2, 182547, Note_on_c, 0, 44, 54
2, 182576, Note_on_c, 0, 47, 0
2, 182825, Note_on_c, 0, 50, 61
2, 182829, Note_on_c, 0, 59, 50
2, 182861, Note_on_c, 0, 44, 0
2, 182876, Note_on_c, 0, 56, 0
2, 183313, Note_on_c, 0, 59, 0
2, 183331, Note_on_c, 0, 51, 55
2, 183352, Note_on_c, 0, 58, 47
2, 183403, Note_on_c, 0, 50, 0
2, 183776, Note_on_c, 0, 66, 52
2, 183792, Note_on_c, 0, 56, 54
2, 183906, Note_on_c, 0, 58, 0
2, 184003, Note_on_c, 0, 65, 59
2, 184017, Note_on_c, 0, 68, 0
2, 184022, Note_on_c, 0, 66, 0
2, 184252, Note_on_c, 0, 66, 60
2, 184258, Note_on_c, 0, 58, 54
2, 184258, Note_on_c, 0, 65, 0
2, 184298, Note_on_c, 0, 56, 0
2, 184478, Note_on_c, 0, 66, 0
2, 184487, Note_on_c, 0, 63, 60
2, 184739, Note_on_c, 0, 69, 61
2, 184745, Note_on_c, 0, 58, 0
2, 184751, Note_on_c, 0, 60, 52
2, 184804, Note_on_c, 0, 63, 0
2, 184901, Control_c, 0, 64, 34
2, 184921, Control_c, 0, 64, 54
2, 184939, Control_c, 0, 64, 64
2, 184961, Control_c, 0, 64, 68
2, 184977, Control_c, 0, 64, 71
2, 184997, Control_c, 0, 64, 74
2, 185016, Control_c, 0, 64, 79
2, 185036, Control_c, 0, 64, 84
2, 185055, Control_c, 0, 64, 87
2, 185094, Control_c, 0, 64, 85
2, 185113, Control_c, 0, 64, 83
2, 185151, Control_c, 0, 64, 82
2, 185170, Control_c, 0, 64, 81
2, 185188, Control_c, 0, 64, 77
2, 185204, Note_on_c, 0, 53, 46
2, 185209, Control_c, 0, 64, 73
2, 185209, Note_on_c, 0, 70, 54
2, 185227, Control_c, 0, 64, 70
2, 185243, Note_on_c, 0, 51, 0
2, 185248, Control_c, 0, 64, 67
2, 185252, Note_on_c, 0, 69, 0
2, 185267, Control_c, 0, 64, 64
2, 185284, Control_c, 0, 64, 62
2, 185305, Control_c, 0, 64, 60
2, 185323, Control_c, 0, 64, 59
2, 185383, Control_c, 0, 64, 58
2, 185400, Control_c, 0, 64, 57
2, 185419, Control_c, 0, 64, 56
2, 185440, Control_c, 0, 64, 55
2, 185459, Control_c, 0, 64, 54
2, 185516, Control_c, 0, 64, 53
2, 185536, Control_c, 0, 64, 52
2, 185555, Control_c, 0, 64, 50
2, 185572, Control_c, 0, 64, 48
2, 185592, Control_c, 0, 64, 45
2, 185612, Control_c, 0, 64, 43
2, 185629, Control_c, 0, 64, 42
2, 185650, Control_c, 0, 64, 41
2, 185669, Control_c, 0, 64, 39
2, 185684, Note_on_c, 0, 63, 52
2, 185691, Control_c, 0, 64, 37
2, 185691, Note_on_c, 0, 49, 42
2, 185707, Control_c, 0, 64, 34
2, 185729, Control_c, 0, 64, 32
2, 185745, Control_c, 0, 64, 31
2, 185767, Control_c, 0, 64, 30
2, 185785, Control_c, 0, 64, 29
2, 185803, Control_c, 0, 64, 28
2, 185825, Control_c, 0, 64, 26
2, 185845, Control_c, 0, 64, 24
2, 185861, Control_c, 0, 64, 22
2, 185881, Control_c, 0, 64, 20
2, 185899, Control_c, 0, 64, 18
2, 185908, Note_on_c, 0, 48, 53
2, 185919, Control_c, 0, 64, 17
2, 185939, Control_c, 0, 64, 16
2, 185953, Note_on_c, 0, 49, 0
2, 185957, Control_c, 0, 64, 14
2, 185980, Control_c, 0, 64, 11
2, 185994, Control_c, 0, 64, 10
2, 186017, Control_c, 0, 64, 0
2, 186128, Note_on_c, 0, 65, 59
2, 186139, Note_on_c, 0, 49, 57
2, 186186, Note_on_c, 0, 53, 0
2, 186190, Note_on_c, 0, 48, 0
2, 186190, Note_on_c, 0, 63, 0
2, 186377, Note_on_c, 0, 46, 62
2, 186441, Note_on_c, 0, 49, 0
2, 186642, Note_on_c, 0, 65, 0
2, 186642, Note_on_c, 0, 67, 58
2, 186649, Note_on_c, 0, 52, 69
2, 186685, Note_on_c, 0, 46, 0
2, 186746, Note_on_c, 0, 60, 0
2, 187127, Note_on_c, 0, 53, 62
2, 187127, Note_on_c, 0, 67, 0
2, 187145, Note_on_c, 0, 60, 56
2, 187188, Note_on_c, 0, 52, 0
2, 187377, Control_c, 0, 64, 15
2, 187397, Control_c, 0, 64, 24
2, 187417, Control_c, 0, 64, 30
2, 187435, Control_c, 0, 64, 36
2, 187453, Control_c, 0, 64, 39
2, 187476, Control_c, 0, 64, 42
2, 187492, Control_c, 0, 64, 45
2, 187513, Control_c, 0, 64, 47
2, 187531, Control_c, 0, 64, 49
2, 187552, Control_c, 0, 64, 51
2, 187571, Control_c, 0, 64, 52
2, 187583, Note_on_c, 0, 58, 69
2, 187589, Control_c, 0, 64, 51
2, 187608, Note_on_c, 0, 69, 60
2, 187647, Control_c, 0, 64, 50
2, 187684, Control_c, 0, 64, 49
2, 187709, Control_c, 0, 64, 47
2, 187709, Note_on_c, 0, 60, 0
2, 187725, Control_c, 0, 64, 45
2, 187742, Control_c, 0, 64, 43
2, 187747, Note_on_c, 0, 70, 0
2, 187765, Control_c, 0, 64, 39
2, 187781, Control_c, 0, 64, 35
2, 187801, Control_c, 0, 64, 25
2, 187817, Note_on_c, 0, 67, 70
2, 187821, Control_c, 0, 64, 0
2, 187857, Note_on_c, 0, 69, 0
2, 188051, Note_on_c, 0, 60, 66
2, 188065, Note_on_c, 0, 69, 65
2, 188093, Note_on_c, 0, 67, 0
2, 188097, Note_on_c, 0, 58, 0
2, 188222, Control_c, 0, 64, 27
2, 188242, Control_c, 0, 64, 45
2, 188260, Control_c, 0, 64, 60
2, 188279, Note_on_c, 0, 65, 72
2, 188283, Control_c, 0, 64, 63
2, 188283, Note_on_c, 0, 69, 0
2, 188300, Control_c, 0, 64, 64
2, 188336, Control_c, 0, 64, 65
2, 188355, Control_c, 0, 64, 67
2, 188378, Control_c, 0, 64, 68
2, 188412, Note_on_c, 0, 60, 0
2, 188417, Control_c, 0, 64, 67
2, 188472, Control_c, 0, 64, 66
2, 188492, Control_c, 0, 64, 65
2, 188513, Control_c, 0, 64, 64
2, 188531, Control_c, 0, 64, 60
2, 188536, Note_on_c, 0, 70, 75
2, 188553, Control_c, 0, 64, 51
2, 188553, Note_on_c, 0, 61, 61
2, 188557, Note_on_c, 0, 65, 0
2, 188569, Control_c, 0, 64, 34
2, 188588, Control_c, 0, 64, 0
2, 188701, Control_c, 0, 64, 30
2, 188721, Control_c, 0, 64, 46
2, 188740, Control_c, 0, 64, 59
2, 188749, Note_on_c, 0, 61, 0
2, 188760, Control_c, 0, 64, 64
2, 188779, Control_c, 0, 64, 65
2, 188798, Control_c, 0, 64, 66
2, 188819, Control_c, 0, 64, 67
2, 188836, Control_c, 0, 64, 69
2, 188857, Control_c, 0, 64, 70
2, 188934, Control_c, 0, 64, 69
2, 188971, Control_c, 0, 64, 67
2, 188990, Control_c, 0, 64, 66
2, 189011, Control_c, 0, 64, 65
2, 189013, Note_on_c, 0, 72, 79
2, 189022, Note_on_c, 0, 63, 65
2, 189029, Control_c, 0, 64, 64
2, 189048, Control_c, 0, 64, 63
2, 189068, Control_c, 0, 64, 61
2, 189087, Control_c, 0, 64, 57
2, 189091, Note_on_c, 0, 70, 0
2, 189107, Control_c, 0, 64, 51
2, 189128, Control_c, 0, 64, 44
2, 189145, Control_c, 0, 64, 35
2, 189164, Control_c, 0, 64, 26
2, 189183, Control_c, 0, 64, 19
2, 189202, Control_c, 0, 64, 0
2, 189487, Note_on_c, 0, 51, 63
2, 189702, Note_on_c, 0, 49, 61
2, 189737, Note_on_c, 0, 51, 0
2, 189959, Note_on_c, 0, 51, 72
2, 190011, Note_on_c, 0, 49, 0
2, 190086, Note_on_c, 0, 53, 0
2, 190165, Note_on_c, 0, 48, 69
2, 190227, Note_on_c, 0, 51, 0
2, 190420, Note_on_c, 0, 53, 79
2, 190450, Note_on_c, 0, 48, 0
2, 190565, Control_c, 0, 64, 10
2, 190585, Control_c, 0, 64, 22
2, 190604, Control_c, 0, 64, 33
2, 190624, Control_c, 0, 64, 41
2, 190642, Control_c, 0, 64, 49
2, 190664, Control_c, 0, 64, 57
2, 190681, Control_c, 0, 64, 61
2, 190700, Control_c, 0, 64, 62
2, 190720, Control_c, 0, 64, 63
2, 190756, Control_c, 0, 64, 64
2, 190795, Control_c, 0, 64, 63
2, 190812, Note_on_c, 0, 63, 0
2, 190911, Control_c, 0, 64, 62
2, 190917, Note_on_c, 0, 54, 74
2, 190933, Control_c, 0, 64, 61
2, 190948, Control_c, 0, 64, 57
2, 190969, Control_c, 0, 64, 50
2, 190978, Note_on_c, 0, 53, 0
2, 190987, Control_c, 0, 64, 36
2, 191006, Control_c, 0, 64, 0
2, 191083, Control_c, 0, 64, 18
2, 191103, Control_c, 0, 64, 37
2, 191121, Control_c, 0, 64, 50
2, 191141, Control_c, 0, 64, 59
2, 191159, Control_c, 0, 64, 62
2, 191180, Control_c, 0, 64, 63
2, 191199, Control_c, 0, 64, 64
2, 191219, Control_c, 0, 64, 65
2, 191237, Control_c, 0, 64, 66
2, 191335, Control_c, 0, 64, 65
2, 191366, Note_on_c, 0, 61, 63
2, 191371, Control_c, 0, 64, 64
2, 191375, Note_on_c, 0, 70, 71
2, 191389, Control_c, 0, 64, 63
2, 191409, Control_c, 0, 64, 61
2, 191430, Control_c, 0, 64, 57
2, 191434, Note_on_c, 0, 72, 0
2, 191448, Control_c, 0, 64, 54
2, 191468, Control_c, 0, 64, 51
2, 191486, Control_c, 0, 64, 47
2, 191506, Control_c, 0, 64, 39
2, 191526, Control_c, 0, 64, 24
2, 191544, Control_c, 0, 64, 0
2, 191591, Note_on_c, 0, 69, 74
2, 191595, Note_on_c, 0, 60, 67
2, 191630, Note_on_c, 0, 61, 0
2, 191638, Note_on_c, 0, 70, 0
2, 191821, Note_on_c, 0, 60, 0
2, 191832, Note_on_c, 0, 61, 59
2, 191832, Note_on_c, 0, 70, 83
2, 192063, Note_on_c, 0, 72, 85
2, 192146, Note_on_c, 0, 70, 0
2, 192235, Note_on_c, 0, 69, 0
2, 192316, Note_on_c, 0, 73, 84
2, 192325, Note_on_c, 0, 58, 63
2, 192408, Note_on_c, 0, 61, 0
2, 192447, Control_c, 0, 64, 37
2, 192456, Note_on_c, 0, 54, 0
2, 192466, Control_c, 0, 64, 54
2, 192474, Note_on_c, 0, 72, 0
2, 192485, Control_c, 0, 64, 64
2, 192503, Control_c, 0, 64, 67
2, 192523, Control_c, 0, 64, 72
2, 192541, Control_c, 0, 64, 82
2, 192546, Note_on_c, 0, 52, 69
2, 192561, Control_c, 0, 64, 99
2, 192580, Control_c, 0, 64, 127
2, 192635, Note_on_c, 0, 52, 0
2, 192640, Note_on_c, 0, 54, 20
2, 192707, Note_on_c, 0, 54, 0
2, 192793, Control_c, 0, 64, 111
2, 192796, Note_on_c, 0, 51, 79
2, 192812, Control_c, 0, 64, 93
2, 192832, Control_c, 0, 64, 77
2, 192832, Note_on_c, 0, 58, 0
2, 192850, Control_c, 0, 64, 62
2, 192869, Control_c, 0, 64, 34
2, 192890, Control_c, 0, 64, 0
2, 193014, Note_on_c, 0, 58, 63
2, 193241, Note_on_c, 0, 72, 87
2, 193256, Note_on_c, 0, 63, 63
2, 193270, Note_on_c, 0, 58, 0
2, 193301, Note_on_c, 0, 73, 0
2, 193407, Control_c, 0, 64, 26
2, 193424, Control_c, 0, 64, 47
2, 193437, Note_on_c, 0, 51, 0
2, 193444, Control_c, 0, 64, 64
2, 193464, Control_c, 0, 64, 76
2, 193486, Control_c, 0, 64, 110
2, 193486, Note_on_c, 0, 70, 85
2, 193497, Note_on_c, 0, 63, 0
2, 193505, Control_c, 0, 64, 127
2, 193514, Note_on_c, 0, 61, 51
2, 193551, Note_on_c, 0, 72, 0
2, 193618, Note_on_c, 0, 61, 0
2, 193827, Note_on_c, 0, 75, 85
2, 193844, Note_on_c, 0, 60, 39
2, 193852, Control_c, 0, 64, 93
2, 193858, Note_on_c, 0, 69, 55
2, 193865, Note_on_c, 0, 53, 40
2, 193869, Control_c, 0, 64, 67
2, 193887, Note_on_c, 0, 70, 0
2, 193892, Control_c, 0, 64, 50
2, 193909, Control_c, 0, 64, 0
2, 194077, Note_on_c, 0, 69, 0
2, 194090, Note_on_c, 0, 60, 0
2, 194090, Note_on_c, 0, 70, 63
2, 194106, Note_on_c, 0, 58, 49
2, 194356, Note_on_c, 0, 67, 58
2, 194364, Note_on_c, 0, 70, 0
2, 194366, Note_on_c, 0, 58, 0
2, 194377, Note_on_c, 0, 60, 45
2, 194524, Control_c, 0, 64, 25
2, 194543, Control_c, 0, 64, 48
2, 194552, Note_on_c, 0, 60, 0
2, 194563, Control_c, 0, 64, 64
2, 194567, Note_on_c, 0, 53, 0
2, 194576, Note_on_c, 0, 67, 0
2, 194581, Control_c, 0, 64, 77
2, 194592, Note_on_c, 0, 69, 62
2, 194601, Control_c, 0, 64, 127
2, 194664, Note_on_c, 0, 69, 0
2, 194896, Note_on_c, 0, 74, 73
2, 194903, Note_on_c, 0, 46, 46
2, 194910, Control_c, 0, 64, 89
2, 194910, Note_on_c, 0, 58, 48
2, 194918, Note_on_c, 0, 70, 55
2, 194927, Control_c, 0, 64, 65
2, 194945, Control_c, 0, 64, 45
2, 194964, Control_c, 0, 64, 0
2, 195006, Control_c, 0, 64, 40
2, 195023, Control_c, 0, 64, 60
2, 195030, Note_on_c, 0, 46, 0
2, 195032, Note_on_c, 0, 75, 0
2, 195041, Control_c, 0, 64, 70
2, 195060, Control_c, 0, 64, 93
2, 195081, Control_c, 0, 64, 127
2, 195093, Note_on_c, 0, 74, 0
2, 195323, Note_on_c, 0, 58, 0
2, 195397, Note_on_c, 0, 75, 77
2, 195418, Note_on_c, 0, 60, 58
2, 195541, Control_c, 0, 64, 99
2, 195562, Control_c, 0, 64, 77
2, 195581, Control_c, 0, 64, 66
2, 195599, Control_c, 0, 64, 59
2, 195618, Control_c, 0, 64, 48
2, 195629, Note_on_c, 0, 77, 87
2, 195638, Note_on_c, 0, 60, 0
2, 195638, Note_on_c, 0, 62, 61
2, 195640, Control_c, 0, 64, 21
2, 195659, Control_c, 0, 64, 0
2, 195701, Note_on_c, 0, 75, 0
2, 195893, Note_on_c, 0, 78, 83
2, 195910, Note_on_c, 0, 63, 63
2, 195931, Note_on_c, 0, 62, 0
2, 195964, Note_on_c, 0, 77, 0
2, 196380, Note_on_c, 0, 77, 76
2, 196387, Note_on_c, 0, 65, 60
2, 196416, Note_on_c, 0, 63, 0
2, 196745, Note_on_c, 0, 78, 0
2, 196863, Note_on_c, 0, 66, 63
2, 196870, Note_on_c, 0, 75, 74
2, 196922, Note_on_c, 0, 77, 0
2, 196948, Note_on_c, 0, 70, 0
2, 196959, Note_on_c, 0, 65, 0
2, 197073, Control_c, 0, 64, 33
2, 197093, Control_c, 0, 64, 48
2, 197112, Control_c, 0, 64, 58
2, 197131, Control_c, 0, 64, 62
2, 197152, Control_c, 0, 64, 63
2, 197170, Control_c, 0, 64, 64
2, 197190, Control_c, 0, 64, 65
2, 197209, Control_c, 0, 64, 69
2, 197228, Control_c, 0, 64, 74
2, 197246, Control_c, 0, 64, 79
2, 197266, Control_c, 0, 64, 82
2, 197285, Control_c, 0, 64, 83
2, 197323, Control_c, 0, 64, 82
2, 197344, Control_c, 0, 64, 80
2, 197362, Control_c, 0, 64, 73
2, 197366, Note_on_c, 0, 81, 80
2, 197376, Note_on_c, 0, 72, 69
2, 197381, Control_c, 0, 64, 64
2, 197400, Control_c, 0, 64, 54
2, 197421, Control_c, 0, 64, 38
2, 197439, Control_c, 0, 64, 18
2, 197458, Control_c, 0, 64, 22
2, 197478, Note_on_c, 0, 75, 0
2, 197482, Control_c, 0, 64, 34
2, 197495, Control_c, 0, 64, 50
2, 197515, Control_c, 0, 64, 61
2, 197532, Note_on_c, 0, 81, 0
2, 197536, Control_c, 0, 64, 68
2, 197553, Control_c, 0, 64, 76
2, 197572, Control_c, 0, 64, 95
2, 197594, Control_c, 0, 64, 127
2, 197859, Control_c, 0, 64, 105
2, 197863, Note_on_c, 0, 82, 84
2, 197872, Note_on_c, 0, 73, 73
2, 197879, Control_c, 0, 64, 74
2, 197898, Control_c, 0, 64, 57
2, 197919, Control_c, 0, 64, 37
2, 197939, Control_c, 0, 64, 18
2, 197957, Control_c, 0, 64, 24
2, 197977, Control_c, 0, 64, 35
2, 197994, Control_c, 0, 64, 47
2, 198017, Control_c, 0, 64, 58
2, 198033, Control_c, 0, 64, 64
2, 198044, Note_on_c, 0, 72, 0
2, 198054, Control_c, 0, 64, 68
2, 198072, Control_c, 0, 64, 76
2, 198090, Control_c, 0, 64, 90
2, 198099, Note_on_c, 0, 68, 74
2, 198110, Control_c, 0, 64, 122
2, 198129, Note_on_c, 0, 73, 0
2, 198130, Control_c, 0, 64, 127
2, 198134, Note_on_c, 0, 66, 0
2, 198284, Control_c, 0, 64, 110
2, 198301, Control_c, 0, 64, 80
2, 198324, Control_c, 0, 64, 62
2, 198342, Note_on_c, 0, 73, 84
2, 198346, Control_c, 0, 64, 46
2, 198350, Note_on_c, 0, 70, 70
2, 198354, Note_on_c, 0, 66, 60
2, 198364, Control_c, 0, 64, 27
2, 198372, Note_on_c, 0, 68, 0
2, 198381, Control_c, 0, 64, 29
2, 198398, Control_c, 0, 64, 38
2, 198418, Control_c, 0, 64, 49
2, 198436, Control_c, 0, 64, 58
2, 198456, Control_c, 0, 64, 63
2, 198475, Control_c, 0, 64, 66
2, 198496, Control_c, 0, 64, 70
2, 198512, Control_c, 0, 64, 77
2, 198533, Control_c, 0, 64, 87
2, 198553, Control_c, 0, 64, 96
2, 198571, Control_c, 0, 64, 99
2, 198576, Note_on_c, 0, 65, 67
2, 198580, Note_on_c, 0, 66, 0
2, 198585, Note_on_c, 0, 82, 0
2, 198613, Note_on_c, 0, 70, 0
2, 198666, Control_c, 0, 64, 97
2, 198686, Control_c, 0, 64, 94
2, 198706, Control_c, 0, 64, 90
2, 198725, Control_c, 0, 64, 84
2, 198745, Control_c, 0, 64, 78
2, 198763, Control_c, 0, 64, 68
2, 198785, Control_c, 0, 64, 58
2, 198803, Control_c, 0, 64, 37
2, 198803, Note_on_c, 0, 63, 63
2, 198821, Control_c, 0, 64, 0
2, 198828, Note_on_c, 0, 75, 82
2, 198833, Note_on_c, 0, 71, 72
2, 198842, Note_on_c, 0, 65, 0
2, 198949, Note_on_c, 0, 73, 0
2, 199035, Control_c, 0, 64, 37
2, 199045, Note_on_c, 0, 61, 65
2, 199054, Control_c, 0, 64, 54
2, 199070, Control_c, 0, 64, 63
2, 199079, Note_on_c, 0, 63, 0
2, 199090, Control_c, 0, 64, 66
2, 199108, Control_c, 0, 64, 69
2, 199114, Note_on_c, 0, 75, 0
2, 199128, Control_c, 0, 64, 71
2, 199148, Control_c, 0, 64, 75
2, 199166, Control_c, 0, 64, 78
2, 199203, Control_c, 0, 64, 77
2, 199224, Control_c, 0, 64, 74
2, 199246, Control_c, 0, 64, 70
2, 199264, Control_c, 0, 64, 65
2, 199283, Control_c, 0, 64, 56
2, 199296, Note_on_c, 0, 59, 62
2, 199296, Note_on_c, 0, 75, 79
2, 199301, Control_c, 0, 64, 41
2, 199306, Note_on_c, 0, 61, 0
2, 199319, Control_c, 0, 64, 0
2, 199523, Note_on_c, 0, 58, 72
2, 199573, Note_on_c, 0, 59, 0
2, 199780, Note_on_c, 0, 77, 87
2, 199791, Note_on_c, 0, 56, 64
2, 199811, Note_on_c, 0, 58, 0
2, 199912, Note_on_c, 0, 75, 0
2, 199934, Control_c, 0, 64, 32
2, 199956, Control_c, 0, 64, 52
2, 199973, Control_c, 0, 64, 64
2, 199991, Control_c, 0, 64, 69
2, 200011, Note_on_c, 0, 58, 72
2, 200015, Control_c, 0, 64, 77
2, 200031, Control_c, 0, 64, 85
2, 200040, Note_on_c, 0, 77, 0
2, 200051, Control_c, 0, 64, 91
2, 200055, Note_on_c, 0, 56, 0
2, 200068, Control_c, 0, 64, 93
2, 200108, Control_c, 0, 64, 91
2, 200126, Control_c, 0, 64, 88
2, 200148, Control_c, 0, 64, 85
2, 200166, Control_c, 0, 64, 79
2, 200183, Control_c, 0, 64, 72
2, 200204, Control_c, 0, 64, 64
2, 200224, Control_c, 0, 64, 56
2, 200245, Control_c, 0, 64, 46
2, 200256, Note_on_c, 0, 77, 87
2, 200263, Control_c, 0, 64, 33
2, 200263, Note_on_c, 0, 59, 68
2, 200280, Control_c, 0, 64, 0
2, 200296, Note_on_c, 0, 58, 0
2, 200504, Note_on_c, 0, 61, 70
2, 200537, Note_on_c, 0, 59, 0
2, 200788, Note_on_c, 0, 63, 54
2, 200788, Note_on_c, 0, 70, 70
2, 200801, Note_on_c, 0, 54, 53
2, 200847, Note_on_c, 0, 61, 0
2, 200853, Note_on_c, 0, 77, 0
2, 200861, Note_on_c, 0, 71, 0
2, 201282, Note_on_c, 0, 77, 87
2, 201289, Note_on_c, 0, 54, 0
2, 201289, Note_on_c, 0, 56, 60
2, 201777, Note_on_c, 0, 78, 85
2, 201792, Note_on_c, 0, 56, 0
2, 201792, Note_on_c, 0, 58, 52
2, 201799, Note_on_c, 0, 61, 54
2, 201803, Note_on_c, 0, 54, 44
2, 201823, Note_on_c, 0, 70, 0
2, 201836, Note_on_c, 0, 63, 0
2, 201871, Note_on_c, 0, 77, 0
2, 201989, Control_c, 0, 64, 38
2, 202002, Note_on_c, 0, 61, 0
2, 202011, Control_c, 0, 64, 56
2, 202028, Control_c, 0, 64, 67
2, 202045, Control_c, 0, 64, 75
2, 202066, Control_c, 0, 64, 89
2, 202085, Control_c, 0, 64, 109
2, 202102, Control_c, 0, 64, 127
2, 202276, Control_c, 0, 64, 85
2, 202287, Note_on_c, 0, 70, 76
2, 202294, Note_on_c, 0, 61, 59
2, 202298, Control_c, 0, 64, 62
2, 202318, Control_c, 0, 64, 45
2, 202335, Control_c, 0, 64, 39
2, 202353, Control_c, 0, 64, 50
2, 202366, Note_on_c, 0, 58, 0
2, 202372, Control_c, 0, 64, 62
2, 202382, Note_on_c, 0, 54, 0
2, 202394, Control_c, 0, 64, 67
2, 202415, Control_c, 0, 64, 74
2, 202430, Control_c, 0, 64, 84
2, 202449, Control_c, 0, 64, 127
2, 202533, Note_on_c, 0, 61, 0
2, 202719, Control_c, 0, 64, 111
2, 202737, Control_c, 0, 64, 98
2, 202756, Control_c, 0, 64, 90
2, 202779, Control_c, 0, 64, 83
2, 202779, Note_on_c, 0, 51, 67
2, 202783, Note_on_c, 0, 63, 59
2, 202787, Note_on_c, 0, 71, 72
2, 202793, Note_on_c, 0, 70, 0
2, 202795, Control_c, 0, 64, 77
2, 202800, Note_on_c, 0, 78, 0
2, 202817, Control_c, 0, 64, 70
2, 202837, Control_c, 0, 64, 63
2, 202852, Control_c, 0, 64, 52
2, 202870, Control_c, 0, 64, 41
2, 202891, Control_c, 0, 64, 20
2, 202911, Control_c, 0, 64, 0
2, 203279, Note_on_c, 0, 52, 67
2, 203279, Note_on_c, 0, 82, 81
2, 203299, Note_on_c, 0, 51, 0
2, 203519, Note_on_c, 0, 54, 74
2, 203535, Note_on_c, 0, 52, 0
2, 203762, Note_on_c, 0, 56, 70
2, 203762, Note_on_c, 0, 71, 0
2, 203769, Note_on_c, 0, 83, 74
2, 203828, Note_on_c, 0, 54, 0
2, 203858, Note_on_c, 0, 82, 0
2, 204000, Note_on_c, 0, 75, 76
2, 204245, Note_on_c, 0, 76, 82
2, 204250, Note_on_c, 0, 54, 72
2, 204283, Note_on_c, 0, 75, 0
2, 204294, Note_on_c, 0, 56, 0
2, 204462, Note_on_c, 0, 78, 85
2, 204589, Note_on_c, 0, 83, 0
2, 204741, Note_on_c, 0, 52, 62
2, 204747, Note_on_c, 0, 80, 77
2, 204795, Note_on_c, 0, 63, 0
2, 204795, Note_on_c, 0, 76, 0
2, 204813, Note_on_c, 0, 54, 0
2, 204822, Note_on_c, 0, 78, 0
2, 205212, Note_on_c, 0, 76, 82
2, 205215, Note_on_c, 0, 58, 65
2, 205261, Note_on_c, 0, 80, 0
2, 205292, Note_on_c, 0, 52, 0
2, 205717, Note_on_c, 0, 75, 72
2, 205722, Note_on_c, 0, 59, 60
2, 205763, Note_on_c, 0, 58, 0
2, 205772, Note_on_c, 0, 76, 0
2, 206206, Note_on_c, 0, 51, 55
2, 206213, Note_on_c, 0, 66, 62
2, 206661, Note_on_c, 0, 51, 0
2, 206686, Note_on_c, 0, 73, 65
2, 206690, Note_on_c, 0, 52, 53
2, 206690, Note_on_c, 0, 68, 58
2, 206693, Note_on_c, 0, 66, 0
2, 206737, Note_on_c, 0, 75, 0
2, 206830, Control_c, 0, 64, 30
2, 206848, Control_c, 0, 64, 50
2, 206861, Note_on_c, 0, 59, 0
2, 206868, Control_c, 0, 64, 62
2, 206886, Control_c, 0, 64, 66
2, 206905, Control_c, 0, 64, 69
2, 206909, Note_on_c, 0, 52, 0
2, 206927, Control_c, 0, 64, 73
2, 206948, Control_c, 0, 64, 78
2, 206964, Control_c, 0, 64, 85
2, 206983, Control_c, 0, 64, 89
2, 207003, Control_c, 0, 64, 90
2, 207081, Control_c, 0, 64, 91
2, 207138, Control_c, 0, 64, 88
2, 207157, Control_c, 0, 64, 82
2, 207164, Note_on_c, 0, 70, 65
2, 207178, Control_c, 0, 64, 74
2, 207178, Note_on_c, 0, 52, 42
2, 207195, Control_c, 0, 64, 65
2, 207215, Control_c, 0, 64, 57
2, 207232, Control_c, 0, 64, 44
2, 207252, Control_c, 0, 64, 15
2, 207269, Note_on_c, 0, 68, 0
2, 207273, Control_c, 0, 64, 0
2, 207392, Note_on_c, 0, 71, 65
2, 207428, Note_on_c, 0, 70, 0
2, 207642, Note_on_c, 0, 54, 49
2, 207647, Note_on_c, 0, 64, 62
2, 207654, Note_on_c, 0, 71, 0
2, 207658, Note_on_c, 0, 58, 47
2, 207669, Note_on_c, 0, 52, 0
2, 207732, Control_c, 0, 64, 24
2, 207751, Control_c, 0, 64, 46
2, 207773, Control_c, 0, 64, 61
2, 207792, Control_c, 0, 64, 66
2, 207792, Note_on_c, 0, 54, 0
2, 207810, Control_c, 0, 64, 70
2, 207831, Control_c, 0, 64, 73
2, 207846, Control_c, 0, 64, 76
2, 207868, Control_c, 0, 64, 80
2, 207888, Control_c, 0, 64, 82
2, 207984, Control_c, 0, 64, 81
2, 208002, Control_c, 0, 64, 80
2, 208020, Control_c, 0, 64, 79
2, 208040, Control_c, 0, 64, 76
2, 208059, Control_c, 0, 64, 73
2, 208080, Control_c, 0, 64, 67
2, 208097, Control_c, 0, 64, 58
2, 208115, Control_c, 0, 64, 43
2, 208123, Note_on_c, 0, 54, 47
2, 208136, Note_on_c, 0, 58, 0
2, 208138, Control_c, 0, 64, 0
2, 208232, Control_c, 0, 64, 22
2, 208250, Control_c, 0, 64, 44
2, 208271, Control_c, 0, 64, 60
2, 208288, Control_c, 0, 64, 69
2, 208301, Note_on_c, 0, 54, 0
2, 208310, Control_c, 0, 64, 78
2, 208327, Control_c, 0, 64, 91
2, 208346, Control_c, 0, 64, 107
2, 208365, Control_c, 0, 64, 127
2, 208580, Control_c, 0, 64, 97
2, 208596, Control_c, 0, 64, 78
2, 208616, Control_c, 0, 64, 65
2, 208616, Note_on_c, 0, 47, 43
2, 208635, Control_c, 0, 64, 53
2, 208653, Control_c, 0, 64, 46
2, 208672, Control_c, 0, 64, 48
2, 208695, Control_c, 0, 64, 53
2, 208710, Control_c, 0, 64, 58
2, 208730, Control_c, 0, 64, 61
2, 208750, Control_c, 0, 64, 64
2, 208768, Control_c, 0, 64, 68
2, 208786, Control_c, 0, 64, 80
2, 208811, Control_c, 0, 64, 97
2, 208828, Control_c, 0, 64, 127
2, 208866, Note_on_c, 0, 73, 0
2, 208883, Note_on_c, 0, 64, 0
2, 209037, Control_c, 0, 64, 112
2, 209056, Control_c, 0, 64, 104
2, 209065, Note_on_c, 0, 47, 0
2, 209078, Control_c, 0, 64, 97
2, 209078, Note_on_c, 0, 46, 45
2, 209095, Control_c, 0, 64, 92
2, 209095, Note_on_c, 0, 63, 53
2, 209115, Control_c, 0, 64, 86
2, 209133, Control_c, 0, 64, 80
2, 209151, Control_c, 0, 64, 73
2, 209172, Control_c, 0, 64, 67
2, 209191, Control_c, 0, 64, 61
2, 209212, Control_c, 0, 64, 57
2, 209229, Control_c, 0, 64, 53
2, 209250, Control_c, 0, 64, 49
2, 209269, Control_c, 0, 64, 43
2, 209287, Control_c, 0, 64, 36
2, 209306, Control_c, 0, 64, 21
2, 209321, Note_on_c, 0, 61, 56
2, 209321, Note_on_c, 0, 63, 0
2, 209325, Control_c, 0, 64, 0
2, 209568, Note_on_c, 0, 71, 56
2, 209579, Note_on_c, 0, 44, 48
2, 209586, Note_on_c, 0, 63, 50
2, 209612, Note_on_c, 0, 61, 0
2, 209631, Note_on_c, 0, 46, 0
2, 209805, Note_on_c, 0, 59, 59
2, 209809, Note_on_c, 0, 63, 0
2, 210059, Note_on_c, 0, 59, 0
2, 210072, Note_on_c, 0, 65, 57
2, 210081, Note_on_c, 0, 49, 53
2, 210129, Note_on_c, 0, 44, 0
2, 210550, Note_on_c, 0, 65, 0
2, 210553, Note_on_c, 0, 42, 54
2, 210555, Note_on_c, 0, 66, 54
2, 210716, Note_on_c, 0, 49, 0
2, 211010, Note_on_c, 0, 42, 0
2, 211021, Note_on_c, 0, 40, 41
2, 211021, Note_on_c, 0, 70, 62
2, 211071, Note_on_c, 0, 71, 0
2, 211249, Note_on_c, 0, 68, 67
2, 211294, Note_on_c, 0, 70, 0
2, 211481, Note_on_c, 0, 39, 50
2, 211506, Note_on_c, 0, 70, 67
2, 211556, Note_on_c, 0, 66, 0
2, 211565, Note_on_c, 0, 40, 0
2, 211573, Note_on_c, 0, 68, 0
2, 211706, Note_on_c, 0, 66, 72
2, 211771, Note_on_c, 0, 70, 0
2, 211973, Note_on_c, 0, 44, 62
2, 211973, Note_on_c, 0, 72, 74
2, 212036, Note_on_c, 0, 39, 0
2, 212454, Note_on_c, 0, 49, 60
2, 212469, Note_on_c, 0, 73, 70
2, 212508, Note_on_c, 0, 72, 0
2, 212517, Note_on_c, 0, 44, 0
2, 212928, Note_on_c, 0, 47, 64
2, 212930, Note_on_c, 0, 64, 66
2, 212930, Note_on_c, 0, 66, 0
2, 213033, Note_on_c, 0, 49, 0
2, 213151, Note_on_c, 0, 63, 70
2, 213171, Note_on_c, 0, 64, 0
2, 213397, Note_on_c, 0, 46, 65
2, 213397, Note_on_c, 0, 64, 68
2, 213425, Note_on_c, 0, 63, 0
2, 213430, Note_on_c, 0, 47, 0
2, 213607, Note_on_c, 0, 64, 0
2, 213616, Note_on_c, 0, 61, 68
2, 213885, Note_on_c, 0, 67, 65
2, 213894, Note_on_c, 0, 51, 69
2, 213914, Note_on_c, 0, 61, 0
2, 213961, Note_on_c, 0, 46, 0
2, 214375, Note_on_c, 0, 44, 67
2, 214379, Note_on_c, 0, 68, 70
2, 214391, Note_on_c, 0, 67, 0
2, 214536, Note_on_c, 0, 51, 0
2, 214825, Note_on_c, 0, 42, 60
2, 214829, Note_on_c, 0, 71, 70
2, 214895, Note_on_c, 0, 44, 0
2, 215060, Note_on_c, 0, 70, 78
2, 215101, Note_on_c, 0, 71, 0
2, 215150, Note_on_c, 0, 73, 0
2, 215304, Note_on_c, 0, 41, 61
2, 215304, Note_on_c, 0, 71, 75
2, 215357, Note_on_c, 0, 42, 0
2, 215370, Note_on_c, 0, 70, 0
2, 215383, Note_on_c, 0, 68, 0
2, 215523, Note_on_c, 0, 68, 79
2, 215617, Note_on_c, 0, 71, 0
2, 215800, Note_on_c, 0, 74, 82
2, 215804, Note_on_c, 0, 46, 67
2, 215848, Note_on_c, 0, 41, 0
2, 216310, Note_on_c, 0, 75, 76
2, 216323, Note_on_c, 0, 39, 57
2, 216361, Note_on_c, 0, 74, 0
2, 216365, Note_on_c, 0, 46, 0
2, 216546, Control_c, 0, 64, 17
2, 216563, Control_c, 0, 64, 41
2, 216583, Control_c, 0, 64, 58
2, 216603, Control_c, 0, 64, 65
2, 216620, Control_c, 0, 64, 71
2, 216641, Control_c, 0, 64, 78
2, 216656, Note_on_c, 0, 39, 0
2, 216660, Control_c, 0, 64, 88
2, 216680, Control_c, 0, 64, 106
2, 216700, Control_c, 0, 64, 127
2, 216802, Note_on_c, 0, 73, 77
2, 216845, Note_on_c, 0, 75, 0
2, 216888, Note_on_c, 0, 68, 0
2, 216937, Note_on_c, 0, 73, 0
2, 217031, Note_on_c, 0, 71, 80
2, 217080, Control_c, 0, 64, 118
2, 217100, Control_c, 0, 64, 100
2, 217118, Control_c, 0, 64, 91
2, 217137, Control_c, 0, 64, 85
2, 217156, Control_c, 0, 64, 79
2, 217177, Control_c, 0, 64, 69
2, 217194, Control_c, 0, 64, 61
2, 217213, Control_c, 0, 64, 49
2, 217231, Control_c, 0, 64, 30
2, 217253, Control_c, 0, 64, 0
2, 217304, Note_on_c, 0, 66, 66
2, 217304, Note_on_c, 0, 70, 70
2, 217343, Note_on_c, 0, 71, 0
2, 217778, Note_on_c, 0, 71, 80
2, 217784, Note_on_c, 0, 51, 65
2, 217810, Note_on_c, 0, 70, 0
2, 218244, Note_on_c, 0, 52, 67
2, 218255, Note_on_c, 0, 73, 77
2, 218270, Note_on_c, 0, 64, 65
2, 218292, Note_on_c, 0, 51, 0
2, 218299, Note_on_c, 0, 66, 0
2, 218315, Note_on_c, 0, 71, 0
2, 218549, Note_on_c, 0, 52, 0
2, 218727, Note_on_c, 0, 52, 68
2, 218727, Note_on_c, 0, 73, 0
2, 219142, Note_on_c, 0, 52, 0
2, 219211, Note_on_c, 0, 70, 69
2, 219216, Note_on_c, 0, 54, 51
2, 219497, Note_on_c, 0, 54, 0
2, 219681, Note_on_c, 0, 54, 61
2, 219708, Note_on_c, 0, 70, 0
2, 220167, Note_on_c, 0, 47, 29
2, 220171, Note_on_c, 0, 71, 55
2, 220205, Note_on_c, 0, 54, 0
2, 220554, Control_c, 0, 64, 8
2, 220575, Control_c, 0, 64, 11
2, 220592, Control_c, 0, 64, 18
2, 220613, Control_c, 0, 64, 28
2, 220630, Control_c, 0, 64, 36
2, 220641, Note_on_c, 0, 70, 54
2, 220651, Control_c, 0, 64, 43
2, 220671, Control_c, 0, 64, 49
2, 220689, Control_c, 0, 64, 53
2, 220708, Control_c, 0, 64, 55
2, 220730, Control_c, 0, 64, 57
2, 220730, Note_on_c, 0, 71, 0
2, 220751, Control_c, 0, 64, 60
2, 220769, Control_c, 0, 64, 62
2, 220785, Control_c, 0, 64, 63
2, 220804, Control_c, 0, 64, 64
2, 220843, Control_c, 0, 64, 65
2, 220849, Note_on_c, 0, 70, 0
2, 220860, Control_c, 0, 64, 66
2, 220872, Note_on_c, 0, 68, 60
2, 220883, Control_c, 0, 64, 67
2, 220977, Control_c, 0, 64, 68
2, 220996, Control_c, 0, 64, 67
2, 220998, Note_on_c, 0, 47, 0
2, 221015, Control_c, 0, 64, 66
2, 221071, Control_c, 0, 64, 65
2, 221103, Note_on_c, 0, 68, 0
2, 221112, Control_c, 0, 64, 64
2, 221134, Note_on_c, 0, 63, 53
2, 221134, Note_on_c, 0, 67, 56
2, 221150, Control_c, 0, 64, 63
2, 221188, Control_c, 0, 64, 62
2, 221199, Note_on_c, 0, 64, 0
2, 221211, Control_c, 0, 64, 60
2, 221225, Control_c, 0, 64, 55
2, 221246, Control_c, 0, 64, 43
2, 221264, Control_c, 0, 64, 0
2, 221616, Note_on_c, 0, 68, 60
2, 221641, Note_on_c, 0, 47, 44
2, 221645, Note_on_c, 0, 67, 0
2, 222085, Note_on_c, 0, 47, 0
2, 222097, Note_on_c, 0, 70, 58
2, 222101, Note_on_c, 0, 61, 45
2, 222106, Note_on_c, 0, 49, 45
2, 222130, Note_on_c, 0, 68, 0
2, 222146, Note_on_c, 0, 63, 0
2, 222399, Note_on_c, 0, 49, 0
2, 222578, Note_on_c, 0, 70, 0
2, 222588, Note_on_c, 0, 49, 43
2, 222999, Note_on_c, 0, 49, 0
2, 223059, Note_on_c, 0, 67, 52
2, 223074, Note_on_c, 0, 51, 44
2, 223368, Note_on_c, 0, 51, 0
2, 223551, Note_on_c, 0, 51, 48
2, 223551, Note_on_c, 0, 67, 0
2, 224019, Note_on_c, 0, 68, 61
2, 224023, Note_on_c, 0, 44, 47
2, 224064, Note_on_c, 0, 51, 0
2, 224501, Note_on_c, 0, 46, 53
2, 224503, Note_on_c, 0, 59, 62
2, 224513, Note_on_c, 0, 61, 0
2, 224581, Note_on_c, 0, 44, 0
2, 224626, Control_c, 0, 64, 38
2, 224643, Control_c, 0, 64, 54
2, 224664, Control_c, 0, 64, 61
2, 224683, Control_c, 0, 64, 63
2, 224703, Control_c, 0, 64, 64
2, 224719, Control_c, 0, 64, 66
2, 224726, Note_on_c, 0, 61, 58
2, 224740, Control_c, 0, 64, 71
2, 224759, Control_c, 0, 64, 81
2, 224781, Control_c, 0, 64, 96
2, 224796, Control_c, 0, 64, 127
2, 224816, Note_on_c, 0, 59, 0
2, 225011, Control_c, 0, 64, 113
2, 225024, Note_on_c, 0, 61, 0
2, 225035, Control_c, 0, 64, 97
2, 225035, Note_on_c, 0, 47, 56
2, 225035, Note_on_c, 0, 56, 74
2, 225035, Note_on_c, 0, 63, 50
2, 225050, Control_c, 0, 64, 79
2, 225068, Control_c, 0, 64, 64
2, 225068, Note_on_c, 0, 46, 0
2, 225085, Control_c, 0, 64, 50
2, 225104, Control_c, 0, 64, 17
2, 225123, Control_c, 0, 64, 0
2, 225315, Control_c, 0, 64, 18
2, 225335, Control_c, 0, 64, 40
2, 225355, Control_c, 0, 64, 56
2, 225373, Control_c, 0, 64, 64
2, 225392, Control_c, 0, 64, 67
2, 225413, Control_c, 0, 64, 71
2, 225430, Control_c, 0, 64, 76
2, 225449, Control_c, 0, 64, 82
2, 225468, Control_c, 0, 64, 88
2, 225489, Control_c, 0, 64, 90
2, 225529, Control_c, 0, 64, 88
2, 225529, Note_on_c, 0, 49, 56
2, 225544, Note_on_c, 0, 56, 0
2, 225548, Control_c, 0, 64, 83
2, 225560, Note_on_c, 0, 61, 52
2, 225567, Control_c, 0, 64, 72
2, 225579, Note_on_c, 0, 47, 0
2, 225583, Control_c, 0, 64, 62
2, 225603, Control_c, 0, 64, 50
2, 225624, Control_c, 0, 64, 40
2, 225642, Control_c, 0, 64, 41
2, 225660, Control_c, 0, 64, 49
2, 225680, Control_c, 0, 64, 58
2, 225699, Control_c, 0, 64, 64
2, 225719, Control_c, 0, 64, 67
2, 225739, Control_c, 0, 64, 72
2, 225739, Note_on_c, 0, 63, 0
2, 225759, Control_c, 0, 64, 81
2, 225779, Control_c, 0, 64, 93
2, 225781, Note_on_c, 0, 59, 63
2, 225796, Control_c, 0, 64, 105
2, 225814, Control_c, 0, 64, 118
2, 225834, Control_c, 0, 64, 127
2, 225858, Note_on_c, 0, 61, 0
2, 225932, Control_c, 0, 64, 120
2, 225951, Control_c, 0, 64, 111
2, 225967, Control_c, 0, 64, 104
2, 225987, Control_c, 0, 64, 98
2, 226008, Control_c, 0, 64, 93
2, 226024, Note_on_c, 0, 49, 0
2, 226028, Control_c, 0, 64, 86
2, 226036, Note_on_c, 0, 55, 64
2, 226046, Control_c, 0, 64, 77
2, 226054, Note_on_c, 0, 51, 55
2, 226056, Note_on_c, 0, 58, 61
2, 226064, Control_c, 0, 64, 66
2, 226080, Note_on_c, 0, 68, 0
2, 226085, Control_c, 0, 64, 56
2, 226102, Control_c, 0, 64, 37
2, 226105, Note_on_c, 0, 59, 0
2, 226121, Control_c, 0, 64, 0
2, 226510, Note_on_c, 0, 58, 0
2, 226518, Note_on_c, 0, 56, 63
2, 226523, Note_on_c, 0, 68, 69
2, 226531, Note_on_c, 0, 60, 62
2, 226538, Note_on_c, 0, 51, 0
2, 226547, Note_on_c, 0, 54, 49
2, 226563, Note_on_c, 0, 55, 0
2, 226758, Note_on_c, 0, 58, 74
2, 226771, Note_on_c, 0, 61, 57
2, 226776, Note_on_c, 0, 60, 0
2, 226801, Note_on_c, 0, 56, 0
2, 227010, Note_on_c, 0, 60, 70
2, 227019, Note_on_c, 0, 63, 64
2, 227040, Note_on_c, 0, 58, 0
2, 227076, Note_on_c, 0, 61, 0
2, 227217, Control_c, 0, 64, 20
2, 227235, Control_c, 0, 64, 44
2, 227257, Control_c, 0, 64, 60
2, 227266, Note_on_c, 0, 56, 59
2, 227275, Note_on_c, 0, 54, 0
2, 227279, Control_c, 0, 64, 66
2, 227294, Control_c, 0, 64, 70
2, 227315, Control_c, 0, 64, 74
2, 227324, Note_on_c, 0, 63, 0
2, 227331, Control_c, 0, 64, 78
2, 227350, Control_c, 0, 64, 84
2, 227370, Control_c, 0, 64, 89
2, 227389, Control_c, 0, 64, 90
2, 227486, Control_c, 0, 64, 87
2, 227491, Note_on_c, 0, 70, 73
2, 227500, Note_on_c, 0, 56, 0
2, 227507, Control_c, 0, 64, 76
2, 227507, Note_on_c, 0, 62, 63
2, 227509, Note_on_c, 0, 54, 51
2, 227509, Note_on_c, 0, 58, 61
2, 227525, Control_c, 0, 64, 63
2, 227543, Control_c, 0, 64, 48
2, 227564, Control_c, 0, 64, 12
2, 227576, Note_on_c, 0, 60, 0
2, 227582, Control_c, 0, 64, 0
2, 227619, Control_c, 0, 64, 8
2, 227639, Control_c, 0, 64, 42
2, 227659, Control_c, 0, 64, 58
2, 227676, Note_on_c, 0, 68, 0
2, 227681, Control_c, 0, 64, 67
2, 227699, Control_c, 0, 64, 75
2, 227715, Note_on_c, 0, 54, 0
2, 227720, Control_c, 0, 64, 93
2, 227722, Note_on_c, 0, 53, 64
2, 227727, Note_on_c, 0, 58, 0
2, 227737, Control_c, 0, 64, 127
2, 227758, Note_on_c, 0, 70, 0
2, 227840, Note_on_c, 0, 62, 0
2, 227956, Note_on_c, 0, 51, 57
2, 227969, Control_c, 0, 64, 106
2, 227982, Note_on_c, 0, 56, 63
2, 227982, Note_on_c, 0, 71, 80
2, 227986, Control_c, 0, 64, 75
2, 228003, Control_c, 0, 64, 60
2, 228011, Note_on_c, 0, 53, 0
2, 228011, Note_on_c, 0, 65, 55
2, 228023, Control_c, 0, 64, 43
2, 228044, Control_c, 0, 64, 31
2, 228051, Note_on_c, 0, 51, 0
2, 228060, Control_c, 0, 64, 38
2, 228080, Control_c, 0, 64, 50
2, 228099, Control_c, 0, 64, 60
2, 228121, Control_c, 0, 64, 66
2, 228137, Control_c, 0, 64, 73
2, 228158, Control_c, 0, 64, 93
2, 228176, Control_c, 0, 64, 127
2, 228183, Note_on_c, 0, 65, 0
2, 228199, Note_on_c, 0, 50, 63
2, 228220, Note_on_c, 0, 56, 0
2, 228293, Note_on_c, 0, 50, 0
2, 228447, Note_on_c, 0, 62, 81
2, 228467, Control_c, 0, 64, 79
2, 228467, Note_on_c, 0, 48, 59
2, 228484, Control_c, 0, 64, 62
2, 228500, Note_on_c, 0, 65, 42
2, 228504, Control_c, 0, 64, 41
2, 228521, Control_c, 0, 64, 0
2, 228553, Note_on_c, 0, 71, 0
2, 228599, Control_c, 0, 64, 30
2, 228618, Control_c, 0, 64, 48
2, 228640, Control_c, 0, 64, 61
2, 228655, Control_c, 0, 64, 67
2, 228675, Control_c, 0, 64, 72
2, 228679, Note_on_c, 0, 65, 0
2, 228683, Note_on_c, 0, 46, 67
2, 228699, Control_c, 0, 64, 81
2, 228699, Note_on_c, 0, 48, 0
2, 228715, Control_c, 0, 64, 93
2, 228732, Control_c, 0, 64, 127
2, 228927, Control_c, 0, 64, 102
2, 228941, Note_on_c, 0, 70, 73
2, 228947, Note_on_c, 0, 63, 73
2, 228949, Control_c, 0, 64, 74
2, 228949, Note_on_c, 0, 46, 0
2, 228954, Note_on_c, 0, 44, 60
2, 228966, Control_c, 0, 64, 59
2, 228966, Note_on_c, 0, 66, 55
2, 228985, Control_c, 0, 64, 34
2, 229002, Control_c, 0, 64, 0
2, 229063, Note_on_c, 0, 62, 0
2, 229162, Note_on_c, 0, 42, 67
2, 229209, Note_on_c, 0, 44, 0
2, 229423, Note_on_c, 0, 54, 77
2, 229451, Note_on_c, 0, 44, 41
2, 229495, Note_on_c, 0, 42, 0
2, 229538, Note_on_c, 0, 70, 0
2, 229575, Note_on_c, 0, 66, 0
2, 229598, Control_c, 0, 64, 29
2, 229615, Control_c, 0, 64, 50
2, 229624, Note_on_c, 0, 44, 0
2, 229635, Control_c, 0, 64, 63
2, 229656, Control_c, 0, 64, 72
2, 229660, Note_on_c, 0, 46, 58
2, 229674, Control_c, 0, 64, 94
2, 229693, Control_c, 0, 64, 127
2, 229704, Note_on_c, 0, 54, 0
2, 229948, Note_on_c, 0, 56, 67
2, 229953, Note_on_c, 0, 47, 55
2, 229953, Note_on_c, 0, 68, 71
2, 229966, Note_on_c, 0, 65, 59
2, 230001, Control_c, 0, 64, 79
2, 230016, Note_on_c, 0, 46, 0
2, 230020, Control_c, 0, 64, 60
2, 230040, Control_c, 0, 64, 32
2, 230058, Control_c, 0, 64, 0
2, 230087, Note_on_c, 0, 63, 0
2, 230268, Note_on_c, 0, 56, 0
2, 230438, Note_on_c, 0, 65, 0
2, 230458, Note_on_c, 0, 56, 69
2, 230795, Note_on_c, 0, 56, 0
2, 230956, Note_on_c, 0, 58, 63
2, 230961, Note_on_c, 0, 62, 58
2, 230977, Note_on_c, 0, 46, 49
2, 230984, Note_on_c, 0, 47, 0
2, 231152, Control_c, 0, 64, 33
2, 231172, Control_c, 0, 64, 50
2, 231191, Control_c, 0, 64, 62
2, 231211, Control_c, 0, 64, 66
2, 231222, Note_on_c, 0, 58, 0
2, 231230, Control_c, 0, 64, 67
2, 231285, Control_c, 0, 64, 65
2, 231306, Control_c, 0, 64, 64
2, 231325, Control_c, 0, 64, 63
2, 231344, Control_c, 0, 64, 62
2, 231362, Control_c, 0, 64, 61
2, 231384, Control_c, 0, 64, 59
2, 231403, Control_c, 0, 64, 57
2, 231421, Control_c, 0, 64, 56
2, 231441, Control_c, 0, 64, 55
2, 231454, Note_on_c, 0, 62, 0
2, 231460, Control_c, 0, 64, 54
2, 231464, Note_on_c, 0, 44, 49
2, 231464, Note_on_c, 0, 58, 61
2, 231482, Control_c, 0, 64, 48
2, 231492, Note_on_c, 0, 46, 0
2, 231501, Control_c, 0, 64, 36
2, 231518, Control_c, 0, 64, 0
2, 231937, Note_on_c, 0, 51, 43
2, 231951, Note_on_c, 0, 63, 59
2, 231955, Note_on_c, 0, 42, 46
2, 232032, Note_on_c, 0, 44, 0
2, 232419, Note_on_c, 0, 46, 46
2, 232428, Note_on_c, 0, 61, 52
2, 232428, Note_on_c, 0, 63, 0
2, 232437, Note_on_c, 0, 42, 0
2, 232505, Note_on_c, 0, 58, 0
2, 232597, Note_on_c, 0, 51, 0
2, 232650, Note_on_c, 0, 59, 60
2, 232663, Note_on_c, 0, 61, 0
2, 232965, Note_on_c, 0, 66, 65
2, 232970, Note_on_c, 0, 39, 38
2, 232977, Note_on_c, 0, 58, 53
2, 233001, Note_on_c, 0, 46, 0
2, 233033, Note_on_c, 0, 68, 0
2, 233064, Note_on_c, 0, 59, 0
2, 233437, Note_on_c, 0, 59, 57
2, 233441, Note_on_c, 0, 39, 0
2, 233441, Note_on_c, 0, 51, 50
2, 233448, Note_on_c, 0, 58, 0
2, 233975, Note_on_c, 0, 51, 0
2, 233989, Note_on_c, 0, 64, 57
2, 233996, Note_on_c, 0, 61, 46
2, 234000, Note_on_c, 0, 52, 37
2, 234050, Note_on_c, 0, 59, 0
2, 234068, Note_on_c, 0, 66, 0
2, 234260, Note_on_c, 0, 52, 0
2, 234489, Note_on_c, 0, 61, 0
2, 234498, Note_on_c, 0, 52, 49
2, 234875, Note_on_c, 0, 52, 0
2, 234971, Note_on_c, 0, 58, 49
2, 234977, Note_on_c, 0, 54, 40
2, 235275, Note_on_c, 0, 54, 0
2, 235411, Note_on_c, 0, 58, 0
2, 235448, Note_on_c, 0, 54, 46
2, 235897, Note_on_c, 0, 47, 33
2, 235931, Note_on_c, 0, 59, 54
2, 236010, Note_on_c, 0, 54, 0
2, 236171, Note_on_c, 0, 51, 54
2, 236196, Note_on_c, 0, 47, 0
2, 236404, Note_on_c, 0, 51, 0
2, 236413, Note_on_c, 0, 63, 69
2, 236422, Note_on_c, 0, 52, 49
2, 236471, Note_on_c, 0, 64, 0
2, 236630, Note_on_c, 0, 52, 0
2, 236642, Note_on_c, 0, 54, 57
2, 236950, Note_on_c, 0, 71, 77
2, 236976, Note_on_c, 0, 56, 40
2, 236992, Note_on_c, 0, 54, 0
2, 237058, Note_on_c, 0, 63, 0
2, 237121, Note_on_c, 0, 59, 0
2, 237455, Note_on_c, 0, 59, 52
2, 237457, Note_on_c, 0, 44, 44
2, 237922, Note_on_c, 0, 44, 0
2, 237939, Note_on_c, 0, 61, 55
2, 237944, Note_on_c, 0, 45, 38
2, 238012, Note_on_c, 0, 59, 0
2, 238123, Control_c, 0, 64, 30
2, 238133, Note_on_c, 0, 45, 0
2, 238142, Control_c, 0, 64, 53
2, 238160, Control_c, 0, 64, 65
2, 238178, Control_c, 0, 64, 70
2, 238189, Note_on_c, 0, 61, 0
2, 238198, Control_c, 0, 64, 79
2, 238220, Control_c, 0, 64, 87
2, 238237, Control_c, 0, 64, 98
2, 238254, Control_c, 0, 64, 107
2, 238275, Control_c, 0, 64, 110
2, 238314, Control_c, 0, 64, 109
2, 238371, Control_c, 0, 64, 98
2, 238390, Control_c, 0, 64, 83
2, 238410, Control_c, 0, 64, 68
2, 238424, Note_on_c, 0, 61, 60
2, 238430, Control_c, 0, 64, 57
2, 238439, Note_on_c, 0, 45, 42
2, 238448, Control_c, 0, 64, 42
2, 238467, Control_c, 0, 64, 28
2, 238487, Control_c, 0, 64, 24
2, 238505, Control_c, 0, 64, 28
2, 238525, Control_c, 0, 64, 37
2, 238543, Control_c, 0, 64, 50
2, 238563, Control_c, 0, 64, 60
2, 238583, Control_c, 0, 64, 65
2, 238603, Control_c, 0, 64, 70
2, 238606, Note_on_c, 0, 45, 0
2, 238620, Control_c, 0, 64, 82
2, 238633, Note_on_c, 0, 61, 0
2, 238640, Control_c, 0, 64, 127
2, 238890, Control_c, 0, 64, 115
2, 238904, Note_on_c, 0, 69, 65
2, 238908, Control_c, 0, 64, 76
2, 238915, Note_on_c, 0, 63, 59
2, 238917, Note_on_c, 0, 47, 47
2, 238925, Note_on_c, 0, 71, 0
2, 238929, Control_c, 0, 64, 57
2, 238934, Note_on_c, 0, 54, 44
2, 238947, Control_c, 0, 64, 30
2, 238967, Control_c, 0, 64, 0
2, 238981, Note_on_c, 0, 56, 0
2, 239061, Control_c, 0, 64, 27
2, 239081, Control_c, 0, 64, 44
2, 239099, Note_on_c, 0, 63, 0
2, 239101, Control_c, 0, 64, 57
2, 239107, Note_on_c, 0, 47, 0
2, 239121, Control_c, 0, 64, 64
2, 239139, Control_c, 0, 64, 68
2, 239160, Control_c, 0, 64, 73
2, 239178, Control_c, 0, 64, 82
2, 239200, Control_c, 0, 64, 95
2, 239215, Control_c, 0, 64, 107
2, 239237, Control_c, 0, 64, 116
2, 239333, Control_c, 0, 64, 111
2, 239350, Control_c, 0, 64, 101
2, 239369, Control_c, 0, 64, 83
2, 239389, Control_c, 0, 64, 66
2, 239400, Note_on_c, 0, 63, 59
2, 239407, Control_c, 0, 64, 53
2, 239418, Note_on_c, 0, 47, 45
2, 239431, Control_c, 0, 64, 34
2, 239447, Control_c, 0, 64, 30
2, 239465, Control_c, 0, 64, 42
2, 239485, Control_c, 0, 64, 53
2, 239503, Control_c, 0, 64, 60
2, 239507, Note_on_c, 0, 54, 0
2, 239524, Control_c, 0, 64, 64
2, 239542, Control_c, 0, 64, 68
2, 239562, Control_c, 0, 64, 77
2, 239581, Note_on_c, 0, 47, 0
2, 239586, Control_c, 0, 64, 104
2, 239600, Control_c, 0, 64, 127
2, 239850, Control_c, 0, 64, 104
2, 239869, Control_c, 0, 64, 83
2, 239887, Control_c, 0, 64, 65
2, 239894, Note_on_c, 0, 64, 66
2, 239896, Note_on_c, 0, 52, 43
2, 239908, Control_c, 0, 64, 52
2, 239910, Note_on_c, 0, 40, 35
2, 239917, Note_on_c, 0, 63, 0
2, 239926, Control_c, 0, 64, 23
2, 239946, Control_c, 0, 64, 0
2, 240127, Note_on_c, 0, 59, 64
2, 240159, Note_on_c, 0, 64, 0
2, 240329, Control_c, 0, 64, 17
2, 240352, Control_c, 0, 64, 32
2, 240366, Control_c, 0, 64, 41
2, 240371, Note_on_c, 0, 61, 68
2, 240387, Control_c, 0, 64, 50
2, 240393, Note_on_c, 0, 40, 0
2, 240406, Control_c, 0, 64, 59
2, 240425, Control_c, 0, 64, 65
2, 240444, Control_c, 0, 64, 69
2, 240466, Control_c, 0, 64, 80
2, 240484, Control_c, 0, 64, 103
2, 240495, Note_on_c, 0, 69, 0
2, 240505, Control_c, 0, 64, 127
2, 240534, Note_on_c, 0, 52, 0
2, 240558, Note_on_c, 0, 59, 0
2, 240606, Note_on_c, 0, 63, 70
2, 240680, Note_on_c, 0, 61, 0
2, 240832, Control_c, 0, 64, 102
2, 240851, Control_c, 0, 64, 86
2, 240871, Control_c, 0, 64, 73
2, 240880, Note_on_c, 0, 52, 64
2, 240880, Note_on_c, 0, 64, 79
2, 240889, Control_c, 0, 64, 61
2, 240893, Note_on_c, 0, 63, 0
2, 240911, Control_c, 0, 64, 39
2, 240928, Control_c, 0, 64, 0
2, 241353, Note_on_c, 0, 68, 80
2, 241379, Note_on_c, 0, 59, 61
2, 241426, Note_on_c, 0, 64, 0
2, 241820, Note_on_c, 0, 70, 82
2, 241825, Note_on_c, 0, 66, 69
2, 241831, Note_on_c, 0, 59, 0
2, 241831, Note_on_c, 0, 61, 53
2, 241867, Note_on_c, 0, 68, 0
2, 241965, Control_c, 0, 64, 33
2, 241985, Control_c, 0, 64, 55
2, 242004, Control_c, 0, 64, 69
2, 242022, Control_c, 0, 64, 88
2, 242040, Control_c, 0, 64, 127
2, 242067, Note_on_c, 0, 61, 0
2, 242080, Note_on_c, 0, 70, 0
2, 242320, Note_on_c, 0, 70, 83
2, 242331, Control_c, 0, 64, 93
2, 242331, Note_on_c, 0, 61, 59
2, 242350, Control_c, 0, 64, 67
2, 242369, Control_c, 0, 64, 47
2, 242390, Control_c, 0, 64, 22
2, 242406, Control_c, 0, 64, 16
2, 242425, Control_c, 0, 64, 32
2, 242445, Control_c, 0, 64, 48
2, 242450, Note_on_c, 0, 66, 0
2, 242463, Control_c, 0, 64, 61
2, 242482, Control_c, 0, 64, 70
2, 242503, Control_c, 0, 64, 98
2, 242521, Control_c, 0, 64, 127
2, 242532, Note_on_c, 0, 61, 0
2, 242569, Note_on_c, 0, 70, 0
2, 242630, Note_on_c, 0, 52, 0
2, 242791, Control_c, 0, 64, 77
2, 242795, Note_on_c, 0, 72, 84
2, 242802, Note_on_c, 0, 66, 72
2, 242806, Note_on_c, 0, 51, 56
2, 242811, Control_c, 0, 64, 58
2, 242811, Note_on_c, 0, 63, 50
2, 242830, Control_c, 0, 64, 24
2, 242851, Control_c, 0, 64, 0
2, 242904, Control_c, 0, 64, 34
2, 242924, Control_c, 0, 64, 53
2, 242943, Control_c, 0, 64, 66
2, 242963, Control_c, 0, 64, 78
2, 242982, Control_c, 0, 64, 127
2, 242991, Note_on_c, 0, 72, 0
2, 243078, Note_on_c, 0, 63, 0
2, 243289, Control_c, 0, 64, 107
2, 243303, Note_on_c, 0, 72, 80
2, 243310, Control_c, 0, 64, 70
2, 243317, Note_on_c, 0, 63, 51
2, 243321, Note_on_c, 0, 51, 0
2, 243321, Note_on_c, 0, 51, 19
2, 243328, Control_c, 0, 64, 48
2, 243349, Control_c, 0, 64, 0
2, 243386, Control_c, 0, 64, 23
2, 243405, Control_c, 0, 64, 46
2, 243423, Control_c, 0, 64, 62
2, 243428, Note_on_c, 0, 63, 0
2, 243442, Control_c, 0, 64, 73
2, 243462, Control_c, 0, 64, 127
2, 243480, Note_on_c, 0, 72, 0
2, 243560, Note_on_c, 0, 66, 0
2, 243606, Note_on_c, 0, 51, 0
2, 243800, Note_on_c, 0, 49, 45
2, 243800, Note_on_c, 0, 56, 47
2, 243805, Note_on_c, 0, 73, 72
2, 243847, Control_c, 0, 64, 86
2, 243864, Control_c, 0, 64, 65
2, 243884, Control_c, 0, 64, 43
2, 243904, Control_c, 0, 64, 0
2, 244057, Note_on_c, 0, 63, 69
2, 244305, Note_on_c, 0, 63, 0
2, 244309, Note_on_c, 0, 64, 75
2, 244313, Note_on_c, 0, 51, 62
2, 244327, Note_on_c, 0, 49, 0
2, 244546, Note_on_c, 0, 66, 77
2, 244607, Note_on_c, 0, 73, 0
2, 244813, Note_on_c, 0, 52, 61
2, 244818, Note_on_c, 0, 51, 0
2, 244824, Note_on_c, 0, 68, 80
2, 244903, Note_on_c, 0, 66, 0
2, 244908, Note_on_c, 0, 56, 0
2, 244941, Note_on_c, 0, 64, 0
2, 245341, Note_on_c, 0, 73, 80
2, 245348, Note_on_c, 0, 54, 53
2, 245355, Note_on_c, 0, 66, 57
2, 245374, Note_on_c, 0, 52, 0
2, 245429, Note_on_c, 0, 68, 0
2, 245554, Control_c, 0, 64, 20
2, 245574, Control_c, 0, 64, 44
2, 245574, Note_on_c, 0, 66, 0
2, 245594, Control_c, 0, 64, 60
2, 245610, Note_on_c, 0, 64, 54
2, 245613, Control_c, 0, 64, 69
2, 245634, Control_c, 0, 64, 79
2, 245650, Control_c, 0, 64, 106
2, 245662, Note_on_c, 0, 64, 0
2, 245671, Control_c, 0, 64, 127
2, 245876, Note_on_c, 0, 72, 74
2, 245884, Note_on_c, 0, 56, 48
2, 245905, Note_on_c, 0, 63, 56
2, 245920, Note_on_c, 0, 54, 0
2, 245920, Note_on_c, 0, 73, 0
2, 245925, Control_c, 0, 64, 83
2, 245939, Control_c, 0, 64, 62
2, 245961, Control_c, 0, 64, 42
2, 245977, Control_c, 0, 64, 19
2, 245997, Control_c, 0, 64, 29
2, 246017, Control_c, 0, 64, 46
2, 246034, Control_c, 0, 64, 60
2, 246056, Control_c, 0, 64, 68
2, 246073, Control_c, 0, 64, 83
2, 246093, Control_c, 0, 64, 127
2, 246128, Note_on_c, 0, 63, 0
2, 246360, Note_on_c, 0, 58, 54
2, 246360, Note_on_c, 0, 73, 86
2, 246373, Note_on_c, 0, 68, 63
2, 246383, Control_c, 0, 64, 90
2, 246401, Control_c, 0, 64, 70
2, 246401, Note_on_c, 0, 72, 0
2, 246418, Control_c, 0, 64, 57
2, 246440, Control_c, 0, 64, 37
2, 246457, Control_c, 0, 64, 0
2, 246593, Note_on_c, 0, 75, 86
2, 246599, Note_on_c, 0, 58, 0
2, 246601, Note_on_c, 0, 60, 58
2, 246667, Note_on_c, 0, 73, 0
2, 246868, Note_on_c, 0, 76, 83
2, 246872, Note_on_c, 0, 75, 0
2, 246882, Note_on_c, 0, 60, 0
2, 246886, Note_on_c, 0, 61, 56
2, 247072, Control_c, 0, 64, 23
2, 247093, Control_c, 0, 64, 42
2, 247110, Control_c, 0, 64, 60
2, 247129, Control_c, 0, 64, 71
2, 247148, Control_c, 0, 64, 87
2, 247168, Control_c, 0, 64, 127
2, 247340, Note_on_c, 0, 75, 80
2, 247345, Control_c, 0, 64, 115
2, 247358, Note_on_c, 0, 67, 69
2, 247363, Control_c, 0, 64, 77
2, 247367, Note_on_c, 0, 68, 0
2, 247367, Note_on_c, 0, 68, 11
2, 247375, Note_on_c, 0, 63, 51
2, 247379, Control_c, 0, 64, 61
2, 247399, Control_c, 0, 64, 40
2, 247401, Note_on_c, 0, 61, 0
2, 247405, Note_on_c, 0, 76, 0
2, 247417, Control_c, 0, 64, 0
2, 247429, Note_on_c, 0, 68, 0
2, 247495, Control_c, 0, 64, 27
2, 247514, Control_c, 0, 64, 45
2, 247532, Control_c, 0, 64, 59
2, 247552, Control_c, 0, 64, 66
2, 247569, Note_on_c, 0, 67, 0
2, 247573, Control_c, 0, 64, 74
2, 247587, Note_on_c, 0, 68, 74
2, 247591, Control_c, 0, 64, 98
2, 247610, Control_c, 0, 64, 127
2, 247658, Note_on_c, 0, 68, 0
2, 247839, Note_on_c, 0, 63, 0
2, 247852, Note_on_c, 0, 73, 81
2, 247863, Control_c, 0, 64, 76
2, 247866, Note_on_c, 0, 64, 54
2, 247866, Note_on_c, 0, 70, 68
2, 247878, Control_c, 0, 64, 57
2, 247891, Note_on_c, 0, 75, 0
2, 247897, Control_c, 0, 64, 0
2, 248013, Control_c, 0, 64, 13
2, 248031, Control_c, 0, 64, 36
2, 248051, Control_c, 0, 64, 51
2, 248069, Control_c, 0, 64, 63
2, 248089, Control_c, 0, 64, 72
2, 248108, Control_c, 0, 64, 91
2, 248116, Note_on_c, 0, 70, 0
2, 248127, Control_c, 0, 64, 127
2, 248332, Note_on_c, 0, 79, 90
2, 248340, Control_c, 0, 64, 122
2, 248340, Note_on_c, 0, 68, 79
2, 248352, Note_on_c, 0, 73, 0
2, 248359, Control_c, 0, 64, 76
2, 248377, Control_c, 0, 64, 61
2, 248397, Control_c, 0, 64, 46
2, 248415, Control_c, 0, 64, 45
2, 248434, Control_c, 0, 64, 54
2, 248454, Control_c, 0, 64, 62
2, 248476, Control_c, 0, 64, 68
2, 248496, Control_c, 0, 64, 79
2, 248511, Control_c, 0, 64, 127
2, 248558, Note_on_c, 0, 70, 86
2, 248583, Note_on_c, 0, 79, 0
2, 248592, Note_on_c, 0, 68, 0
2, 248666, Note_on_c, 0, 70, 0
2, 248838, Control_c, 0, 64, 81
2, 248851, Note_on_c, 0, 63, 56
2, 248851, Note_on_c, 0, 80, 86
2, 248858, Note_on_c, 0, 71, 71
2, 248862, Control_c, 0, 64, 60
2, 248870, Note_on_c, 0, 64, 0
2, 248877, Control_c, 0, 64, 18
2, 248896, Control_c, 0, 64, 0
2, 248993, Control_c, 0, 64, 10
2, 249011, Control_c, 0, 64, 38
2, 249030, Control_c, 0, 64, 54
2, 249048, Control_c, 0, 64, 63
2, 249072, Control_c, 0, 64, 68
2, 249090, Control_c, 0, 64, 78
2, 249105, Control_c, 0, 64, 102
2, 249128, Control_c, 0, 64, 127
2, 249128, Note_on_c, 0, 71, 0
2, 249338, Control_c, 0, 64, 88
2, 249356, Note_on_c, 0, 71, 79
2, 249357, Control_c, 0, 64, 65
2, 249366, Note_on_c, 0, 68, 71
2, 249377, Control_c, 0, 64, 43
2, 249396, Control_c, 0, 64, 27
2, 249413, Control_c, 0, 64, 38
2, 249433, Control_c, 0, 64, 52
2, 249452, Control_c, 0, 64, 62
2, 249471, Control_c, 0, 64, 66
2, 249493, Control_c, 0, 64, 73
2, 249509, Control_c, 0, 64, 90
2, 249529, Control_c, 0, 64, 127
2, 249536, Note_on_c, 0, 80, 0
2, 249557, Note_on_c, 0, 68, 0
2, 249818, Control_c, 0, 64, 80
2, 249834, Control_c, 0, 64, 62
2, 249839, Note_on_c, 0, 73, 85
2, 249846, Note_on_c, 0, 69, 62
2, 249850, Control_c, 0, 64, 36
2, 249850, Note_on_c, 0, 64, 58
2, 249869, Control_c, 0, 64, 0
2, 249882, Note_on_c, 0, 63, 0
2, 249886, Note_on_c, 0, 71, 0
2, 250024, Control_c, 0, 64, 23
2, 250042, Control_c, 0, 64, 30
2, 250064, Control_c, 0, 64, 48
2, 250079, Control_c, 0, 64, 61
2, 250088, Note_on_c, 0, 73, 0
2, 250100, Control_c, 0, 64, 67
2, 250119, Control_c, 0, 64, 73
2, 250139, Control_c, 0, 64, 82
2, 250161, Control_c, 0, 64, 95
2, 250175, Control_c, 0, 64, 127
2, 250295, Control_c, 0, 64, 106
2, 250311, Control_c, 0, 64, 89
2, 250331, Control_c, 0, 64, 74
2, 250337, Note_on_c, 0, 73, 85
2, 250350, Control_c, 0, 64, 60
2, 250369, Control_c, 0, 64, 44
2, 250387, Control_c, 0, 64, 0
2, 250407, Note_on_c, 0, 69, 0
2, 250441, Note_on_c, 0, 64, 0
2, 250804, Note_on_c, 0, 54, 62
2, 250809, Note_on_c, 0, 75, 81
2, 250811, Note_on_c, 0, 66, 54
2, 250815, Note_on_c, 0, 69, 65
2, 250865, Note_on_c, 0, 73, 0
2, 250917, Note_on_c, 0, 56, 0
2, 251002, Control_c, 0, 64, 24
2, 251023, Control_c, 0, 64, 47
2, 251041, Control_c, 0, 64, 61
2, 251060, Control_c, 0, 64, 67
2, 251079, Control_c, 0, 64, 73
2, 251096, Note_on_c, 0, 75, 0
2, 251098, Control_c, 0, 64, 86
2, 251118, Control_c, 0, 64, 116
2, 251138, Control_c, 0, 64, 127
2, 251201, Note_on_c, 0, 66, 0
2, 251310, Control_c, 0, 64, 75
2, 251328, Control_c, 0, 64, 58
2, 251332, Note_on_c, 0, 75, 85
2, 251349, Control_c, 0, 64, 28
2, 251369, Control_c, 0, 64, 0
2, 251384, Note_on_c, 0, 69, 0
2, 251812, Note_on_c, 0, 60, 57
2, 251827, Note_on_c, 0, 63, 70
2, 251829, Note_on_c, 0, 68, 81
2, 251901, Note_on_c, 0, 75, 0
2, 252026, Note_on_c, 0, 54, 0
2, 252309, Note_on_c, 0, 72, 87
2, 252489, Note_on_c, 0, 68, 0
2, 252577, Control_c, 0, 64, 11
2, 252594, Control_c, 0, 64, 37
2, 252602, Note_on_c, 0, 60, 0
2, 252615, Control_c, 0, 64, 54
2, 252635, Control_c, 0, 64, 64
2, 252655, Control_c, 0, 64, 66
2, 252670, Control_c, 0, 64, 68
2, 252692, Control_c, 0, 64, 69
2, 252712, Control_c, 0, 64, 72
2, 252731, Control_c, 0, 64, 77
2, 252751, Control_c, 0, 64, 79
2, 252769, Control_c, 0, 64, 77
2, 252788, Control_c, 0, 64, 73
2, 252809, Control_c, 0, 64, 67
2, 252809, Note_on_c, 0, 73, 84
2, 252829, Control_c, 0, 64, 55
2, 252848, Control_c, 0, 64, 28
2, 252865, Control_c, 0, 64, 0
2, 252881, Note_on_c, 0, 72, 0
2, 253068, Note_on_c, 0, 63, 0
2, 253285, Note_on_c, 0, 68, 83
2, 253297, Note_on_c, 0, 52, 64
2, 253301, Note_on_c, 0, 64, 70
2, 253403, Control_c, 0, 64, 15
2, 253422, Control_c, 0, 64, 44
2, 253441, Control_c, 0, 64, 61
2, 253460, Control_c, 0, 64, 69
2, 253464, Note_on_c, 0, 64, 0
2, 253478, Control_c, 0, 64, 77
2, 253498, Control_c, 0, 64, 92
2, 253516, Control_c, 0, 64, 127
2, 253765, Note_on_c, 0, 70, 82
2, 253769, Control_c, 0, 64, 92
2, 253770, Note_on_c, 0, 63, 72
2, 253772, Note_on_c, 0, 43, 69
2, 253787, Control_c, 0, 64, 69
2, 253798, Note_on_c, 0, 73, 0
2, 253807, Control_c, 0, 64, 56
2, 253820, Note_on_c, 0, 68, 0
2, 253824, Note_on_c, 0, 52, 0
2, 253829, Control_c, 0, 64, 32
2, 253842, Control_c, 0, 64, 0
2, 254054, Note_on_c, 0, 43, 0
2, 254254, Note_on_c, 0, 43, 76
2, 254272, Note_on_c, 0, 63, 0
2, 254305, Control_c, 0, 64, 32
2, 254305, Note_on_c, 0, 70, 0
2, 254326, Control_c, 0, 64, 51
2, 254341, Control_c, 0, 64, 61
2, 254364, Control_c, 0, 64, 63
2, 254384, Control_c, 0, 64, 62
2, 254438, Control_c, 0, 64, 61
2, 254496, Control_c, 0, 64, 60
2, 254556, Control_c, 0, 64, 59
2, 254631, Control_c, 0, 64, 58
2, 254669, Control_c, 0, 64, 56
2, 254689, Control_c, 0, 64, 54
2, 254706, Control_c, 0, 64, 49
2, 254727, Control_c, 0, 64, 36
2, 254738, Note_on_c, 0, 43, 0
2, 254747, Control_c, 0, 64, 0
2, 254752, Note_on_c, 0, 44, 60
2, 254762, Note_on_c, 0, 71, 83
2, 254768, Note_on_c, 0, 68, 74
2, 254775, Note_on_c, 0, 63, 64
2, 254939, Control_c, 0, 64, 14
2, 254957, Control_c, 0, 64, 36
2, 254976, Control_c, 0, 64, 55
2, 254995, Control_c, 0, 64, 65
2, 255016, Control_c, 0, 64, 69
2, 255036, Control_c, 0, 64, 72
2, 255054, Control_c, 0, 64, 76
2, 255054, Note_on_c, 0, 44, 0
2, 255071, Control_c, 0, 64, 82
2, 255093, Control_c, 0, 64, 90
2, 255111, Control_c, 0, 64, 97
2, 255131, Control_c, 0, 64, 98
2, 255148, Control_c, 0, 64, 97
2, 255187, Control_c, 0, 64, 95
2, 255205, Control_c, 0, 64, 93
2, 255226, Control_c, 0, 64, 85
2, 255239, Note_on_c, 0, 44, 72
2, 255239, Note_on_c, 0, 66, 85
2, 255245, Control_c, 0, 64, 70
2, 255263, Control_c, 0, 64, 58
2, 255284, Control_c, 0, 64, 34
2, 255303, Control_c, 0, 64, 0
2, 255376, Note_on_c, 0, 63, 0
2, 255399, Control_c, 0, 64, 21
2, 255418, Control_c, 0, 64, 41
2, 255437, Control_c, 0, 64, 55
2, 255459, Control_c, 0, 64, 62
2, 255477, Control_c, 0, 64, 64
2, 255494, Control_c, 0, 64, 65
2, 255515, Control_c, 0, 64, 67
2, 255534, Control_c, 0, 64, 71
2, 255552, Control_c, 0, 64, 79
2, 255571, Control_c, 0, 64, 91
2, 255591, Control_c, 0, 64, 101
2, 255609, Control_c, 0, 64, 105
2, 255649, Control_c, 0, 64, 104
2, 255666, Control_c, 0, 64, 103
2, 255688, Control_c, 0, 64, 100
2, 255706, Control_c, 0, 64, 88
2, 255728, Control_c, 0, 64, 70
2, 255738, Note_on_c, 0, 64, 81
2, 255750, Control_c, 0, 64, 54
2, 255750, Note_on_c, 0, 37, 66
2, 255750, Note_on_c, 0, 61, 67
2, 255766, Control_c, 0, 64, 0
2, 255787, Note_on_c, 0, 66, 0
2, 255841, Note_on_c, 0, 44, 0
2, 255892, Note_on_c, 0, 68, 0
2, 255917, Control_c, 0, 64, 24
2, 255936, Control_c, 0, 64, 45
2, 255957, Control_c, 0, 64, 58
2, 255975, Control_c, 0, 64, 65
2, 255994, Control_c, 0, 64, 69
2, 256012, Control_c, 0, 64, 75
2, 256032, Control_c, 0, 64, 85
2, 256051, Control_c, 0, 64, 100
2, 256071, Control_c, 0, 64, 127
2, 256105, Note_on_c, 0, 64, 0
2, 256206, Control_c, 0, 64, 108
2, 256224, Control_c, 0, 64, 88
2, 256246, Control_c, 0, 64, 71
2, 256246, Note_on_c, 0, 39, 71
2, 256250, Note_on_c, 0, 63, 82
2, 256263, Control_c, 0, 64, 55
2, 256283, Control_c, 0, 64, 25
2, 256295, Note_on_c, 0, 71, 0
2, 256302, Control_c, 0, 64, 0
2, 256313, Note_on_c, 0, 37, 0
2, 256394, Note_on_c, 0, 61, 0
2, 256724, Note_on_c, 0, 70, 81
2, 256738, Note_on_c, 0, 40, 64
2, 256738, Note_on_c, 0, 61, 65
2, 256769, Note_on_c, 0, 39, 0
2, 256809, Note_on_c, 0, 63, 0
2, 257226, Note_on_c, 0, 68, 88
2, 257239, Note_on_c, 0, 49, 55
2, 257275, Note_on_c, 0, 70, 0
2, 257357, Control_c, 0, 64, 33
2, 257377, Control_c, 0, 64, 49
2, 257394, Control_c, 0, 64, 62
2, 257414, Control_c, 0, 64, 72
2, 257436, Control_c, 0, 64, 86
2, 257453, Control_c, 0, 64, 127
2, 257513, Note_on_c, 0, 49, 0
2, 257722, Control_c, 0, 64, 116
2, 257728, Note_on_c, 0, 67, 86
2, 257744, Control_c, 0, 64, 71
2, 257744, Note_on_c, 0, 39, 63
2, 257761, Control_c, 0, 64, 49
2, 257769, Note_on_c, 0, 51, 43
2, 257780, Control_c, 0, 64, 0
2, 257783, Note_on_c, 0, 40, 0
2, 257806, Note_on_c, 0, 68, 0
2, 257934, Control_c, 0, 64, 30
2, 257953, Control_c, 0, 64, 42
2, 257962, Note_on_c, 0, 61, 0
2, 257967, Note_on_c, 0, 67, 0
2, 257971, Control_c, 0, 64, 56
2, 257990, Control_c, 0, 64, 66
2, 258011, Control_c, 0, 64, 77
2, 258033, Control_c, 0, 64, 127
2, 258232, Note_on_c, 0, 68, 89
2, 258239, Note_on_c, 0, 59, 83
2, 258278, Control_c, 0, 64, 90
2, 258301, Control_c, 0, 64, 63
2, 258317, Control_c, 0, 64, 17
2, 258336, Control_c, 0, 64, 0
2, 258811, Note_on_c, 0, 58, 80
2, 258874, Note_on_c, 0, 59, 0
2, 259427, Note_on_c, 0, 67, 82
2, 259508, Note_on_c, 0, 68, 0
2, 259680, Control_c, 0, 64, 24
2, 259701, Control_c, 0, 64, 47
2, 259718, Control_c, 0, 64, 60
2, 259738, Control_c, 0, 64, 66
2, 259757, Control_c, 0, 64, 73
2, 259778, Control_c, 0, 64, 98
2, 259794, Control_c, 0, 64, 127
2, 259838, Note_on_c, 0, 58, 0
2, 259913, Note_on_c, 0, 51, 0
2, 259986, Note_on_c, 0, 39, 0
2, 260431, Note_on_c, 0, 68, 83
2, 260449, Note_on_c, 0, 60, 62
2, 260455, Note_on_c, 0, 51, 46
2, 260464, Note_on_c, 0, 44, 46
2, 260503, Note_on_c, 0, 67, 0
2, 260546, Control_c, 0, 64, 83
2, 260565, Control_c, 0, 64, 61
2, 260583, Control_c, 0, 64, 26
2, 260602, Control_c, 0, 64, 0
2, 261187, Control_c, 0, 64, 12
2, 261206, Control_c, 0, 64, 20
2, 261224, Control_c, 0, 64, 24
2, 261243, Control_c, 0, 64, 27
2, 261262, Control_c, 0, 64, 31
2, 261285, Control_c, 0, 64, 35
2, 261302, Control_c, 0, 64, 38
2, 261319, Control_c, 0, 64, 42
2, 261339, Control_c, 0, 64, 46
2, 261362, Control_c, 0, 64, 49
2, 261377, Control_c, 0, 64, 52
2, 261397, Control_c, 0, 64, 54
2, 261416, Control_c, 0, 64, 55
2, 261436, Control_c, 0, 64, 57
2, 261454, Control_c, 0, 64, 59
2, 261474, Control_c, 0, 64, 60
2, 261494, Control_c, 0, 64, 61
2, 261514, Control_c, 0, 64, 62
2, 261531, Control_c, 0, 64, 63
2, 261551, Control_c, 0, 64, 64
2, 261571, Control_c, 0, 64, 67
2, 261589, Control_c, 0, 64, 70
2, 261607, Control_c, 0, 64, 77
2, 261628, Control_c, 0, 64, 84
2, 261648, Control_c, 0, 64, 93
2, 261667, Control_c, 0, 64, 102
2, 261686, Control_c, 0, 64, 127
2, 262964, Control_c, 0, 64, 118
2, 262982, Control_c, 0, 64, 115
2, 263059, Control_c, 0, 64, 113
2, 263078, Control_c, 0, 64, 112
2, 263175, Control_c, 0, 64, 113
2, 263192, Control_c, 0, 64, 115
2, 263211, Control_c, 0, 64, 118
2, 263233, Control_c, 0, 64, 122
2, 263254, Control_c, 0, 64, 127
2, 263581, Control_c, 0, 64, 122
2, 263597, Control_c, 0, 64, 120
2, 263617, Control_c, 0, 64, 118
2, 263691, Control_c, 0, 64, 116
2, 263719, Control_c, 0, 64, 115
2, 264046, Control_c, 0, 64, 116
2, 264089, Note_on_c, 0, 60, 0
2, 264093, Note_on_c, 0, 68, 0
2, 264350, Note_on_c, 0, 51, 0
2, 264381, Note_on_c, 0, 44, 0
2, 264603, Control_c, 0, 64, 115
2, 264622, Control_c, 0, 64, 113
2, 264680, Control_c, 0, 64, 112
2, 264699, Control_c, 0, 64, 109
2, 264716, Control_c, 0, 64, 107
2, 264737, Control_c, 0, 64, 105
2, 264759, Control_c, 0, 64, 103
2, 264775, Control_c, 0, 64, 102
2, 264794, Control_c, 0, 64, 100
2, 264816, Control_c, 0, 64, 96
2, 264833, Control_c, 0, 64, 90
2, 264852, Control_c, 0, 64, 84
2, 264871, Control_c, 0, 64, 81
2, 264894, Control_c, 0, 64, 80
2, 264929, Control_c, 0, 64, 79
2, 264967, Control_c, 0, 64, 78
2, 264988, Control_c, 0, 64, 77
2, 265005, Control_c, 0, 64, 76
2, 265025, Control_c, 0, 64, 75
2, 265045, Control_c, 0, 64, 74
2, 265065, Control_c, 0, 64, 73
2, 265103, Control_c, 0, 64, 72
2, 265122, Control_c, 0, 64, 71
2, 265141, Control_c, 0, 64, 70
2, 265159, Control_c, 0, 64, 69
2, 265179, Control_c, 0, 64, 67
2, 265197, Control_c, 0, 64, 66
2, 265217, Control_c, 0, 64, 65
2, 265235, Control_c, 0, 64, 64
2, 265256, Control_c, 0, 64, 63
2, 265274, Control_c, 0, 64, 62
2, 265314, Control_c, 0, 64, 61
2, 265336, Control_c, 0, 64, 60
2, 265371, Control_c, 0, 64, 58
2, 265390, Control_c, 0, 64, 57
2, 265410, Control_c, 0, 64, 55
2, 265430, Control_c, 0, 64, 54
2, 265447, Control_c, 0, 64, 53
2, 265485, Control_c, 0, 64, 52
2, 265505, Control_c, 0, 64, 51
2, 265523, Control_c, 0, 64, 49
2, 265544, Control_c, 0, 64, 48
2, 265564, Control_c, 0, 64, 47
2, 265580, Control_c, 0, 64, 46
2, 265620, Control_c, 0, 64, 45
2, 265641, Control_c, 0, 64, 44
2, 265657, Control_c, 0, 64, 43
2, 265676, Control_c, 0, 64, 41
2, 265696, Control_c, 0, 64, 40
2, 265716, Control_c, 0, 64, 39
2, 265775, Control_c, 0, 64, 38
2, 265815, Control_c, 0, 64, 37
2, 265928, Control_c, 0, 64, 36
2, 265986, Control_c, 0, 64, 35
2, 266100, Control_c, 0, 64, 34
2, 266101, End_track
0, 0, End_of_file
