0, 0, Header, 1, 2, 384
1, 0, Start_track
1, 0, Tempo, 500000
1, 0, Time_signature, 4, 2, 24, 8
1, 1, End_track
2, 0, Start_track
2, 0, Title_t, "7.6.13 Group 1"
2, 0, Program_c, 0, 0
2, 0, Control_c, 0, 64, 0
2, 0, Control_c, 0, 66, 0
2, 0, Control_c, 0, 67, 0
2, 790, Note_on_c, 0, 68, 64
2, 800, Note_on_c, 0, 59, 47
2, 811, Note_on_c, 0, 56, 45
2, 1012, Note_on_c, 0, 70, 68
2, 1061, Note_on_c, 0, 68, 0
2, 1217, Note_on_c, 0, 71, 76
2, 1218, Note_on_c, 0, 63, 43
2, 1220, Note_on_c, 0, 70, 0
2, 1285, Note_on_c, 0, 59, 0
2, 1413, Note_on_c, 0, 71, 0
2, 1425, Note_on_c, 0, 68, 73
2, 1614, Note_on_c, 0, 70, 75
2, 1617, Note_on_c, 0, 61, 52
2, 1618, Note_on_c, 0, 68, 0
2, 1683, Note_on_c, 0, 63, 0
2, 1807, Note_on_c, 0, 73, 86
2, 1810, Note_on_c, 0, 70, 0
2, 2030, Note_on_c, 0, 76, 81
2, 2031, Note_on_c, 0, 55, 48
2, 2032, Note_on_c, 0, 73, 0
2, 2074, Note_on_c, 0, 56, 0
2, 2461, Note_on_c, 0, 59, 48
2, 2463, Note_on_c, 0, 75, 72
2, 2500, Note_on_c, 0, 76, 0
2, 2523, Note_on_c, 0, 61, 0
2, 2867, Note_on_c, 0, 58, 51
2, 2882, Note_on_c, 0, 73, 66
2, 2906, Note_on_c, 0, 59, 0
2, 2911, Note_on_c, 0, 75, 0
2, 3299, Note_on_c, 0, 56, 58
2, 3306, Note_on_c, 0, 71, 69
2, 3310, Note_on_c, 0, 73, 0
2, 3324, Note_on_c, 0, 55, 0
2, 3333, Note_on_c, 0, 58, 0
2, 3511, Note_on_c, 0, 56, 0
2, 3515, Note_on_c, 0, 58, 67
2, 3717, Note_on_c, 0, 80, 87
2, 3724, Note_on_c, 0, 59, 57
2, 3727, Note_on_c, 0, 58, 0
2, 3736, Note_on_c, 0, 75, 65
2, 3805, Note_on_c, 0, 71, 0
2, 3920, Note_on_c, 0, 56, 73
2, 3969, Note_on_c, 0, 59, 0
2, 4114, Note_on_c, 0, 70, 64
2, 4114, Note_on_c, 0, 73, 79
2, 4119, Note_on_c, 0, 58, 76
2, 4130, Note_on_c, 0, 75, 0
2, 4150, Note_on_c, 0, 56, 0
2, 4311, Note_on_c, 0, 61, 84
2, 4323, Note_on_c, 0, 58, 0
2, 4337, Note_on_c, 0, 80, 0
2, 4526, Note_on_c, 0, 79, 81
2, 4532, Note_on_c, 0, 61, 0
2, 4532, Note_on_c, 0, 64, 70
2, 4881, Note_on_c, 0, 70, 0
2, 4938, Note_on_c, 0, 63, 64
2, 4948, Note_on_c, 0, 71, 64
2, 4954, Note_on_c, 0, 73, 0
2, 5004, Note_on_c, 0, 64, 0
2, 5361, Note_on_c, 0, 61, 66
2, 5371, Note_on_c, 0, 70, 56
2, 5420, Note_on_c, 0, 71, 0
2, 5559, Note_on_c, 0, 70, 0
2, 5785, Note_on_c, 0, 79, 0
2, 5789, Note_on_c, 0, 80, 72
2, 5804, Note_on_c, 0, 61, 0
2, 5807, Note_on_c, 0, 75, 53
2, 5809, Note_on_c, 0, 59, 49
2, 6008, Note_on_c, 0, 82, 82
2, 6030, Note_on_c, 0, 80, 0
2, 6210, Note_on_c, 0, 68, 68
2, 6212, Note_on_c, 0, 83, 89
2, 6231, Note_on_c, 0, 63, 0
2, 6232, Note_on_c, 0, 82, 0
2, 6233, Note_on_c, 0, 75, 0
2, 6399, Note_on_c, 0, 75, 87
2, 6399, Note_on_c, 0, 83, 0
2, 6595, Note_on_c, 0, 76, 80
2, 6599, Note_on_c, 0, 61, 63
2, 6626, Note_on_c, 0, 75, 0
2, 6639, Note_on_c, 0, 68, 0
2, 6792, Note_on_c, 0, 76, 0
2, 6801, Note_on_c, 0, 80, 85
2, 6989, Note_on_c, 0, 58, 56
2, 6994, Note_on_c, 0, 78, 75
2, 7001, Note_on_c, 0, 80, 0
2, 7033, Note_on_c, 0, 59, 0
2, 7199, Note_on_c, 0, 80, 80
2, 7211, Note_on_c, 0, 78, 0
2, 7387, Note_on_c, 0, 66, 62
2, 7391, Note_on_c, 0, 80, 0
2, 7393, Note_on_c, 0, 82, 80
2, 7451, Note_on_c, 0, 61, 0
2, 7583, Note_on_c, 0, 82, 0
2, 7592, Note_on_c, 0, 73, 75
2, 7791, Note_on_c, 0, 75, 73
2, 7792, Note_on_c, 0, 73, 0
2, 7804, Note_on_c, 0, 59, 52
2, 7811, Note_on_c, 0, 66, 0
2, 7989, Note_on_c, 0, 75, 0
2, 7998, Note_on_c, 0, 78, 73
2, 8183, Note_on_c, 0, 56, 54
2, 8202, Note_on_c, 0, 76, 66
2, 8203, Note_on_c, 0, 78, 0
2, 8212, Note_on_c, 0, 58, 0
2, 8411, Note_on_c, 0, 78, 69
2, 8416, Note_on_c, 0, 76, 0
2, 8606, Note_on_c, 0, 64, 60
2, 8613, Note_on_c, 0, 78, 0
2, 8618, Note_on_c, 0, 80, 69
2, 8662, Note_on_c, 0, 59, 0
2, 8795, Note_on_c, 0, 80, 0
2, 8811, Note_on_c, 0, 71, 69
2, 9010, Note_on_c, 0, 52, 57
2, 9011, Note_on_c, 0, 73, 70
2, 9013, Note_on_c, 0, 71, 0
2, 9058, Note_on_c, 0, 56, 0
2, 9202, Note_on_c, 0, 73, 0
2, 9220, Note_on_c, 0, 76, 65
2, 9407, Note_on_c, 0, 76, 0
2, 9416, Note_on_c, 0, 70, 65
2, 9422, Note_on_c, 0, 54, 67
2, 9455, Note_on_c, 0, 52, 0
2, 9623, Note_on_c, 0, 71, 70
2, 9632, Note_on_c, 0, 70, 0
2, 9825, Note_on_c, 0, 56, 60
2, 9835, Note_on_c, 0, 73, 71
2, 9839, Note_on_c, 0, 63, 61
2, 9842, Note_on_c, 0, 71, 0
2, 9854, Note_on_c, 0, 54, 0
2, 9870, Note_on_c, 0, 64, 0
2, 10007, Note_on_c, 0, 73, 0
2, 10026, Note_on_c, 0, 66, 63
2, 10229, Note_on_c, 0, 63, 0
2, 10236, Note_on_c, 0, 73, 67
2, 10238, Note_on_c, 0, 56, 0
2, 10240, Note_on_c, 0, 58, 55
2, 10241, Note_on_c, 0, 61, 54
2, 10247, Note_on_c, 0, 66, 0
2, 10421, Note_on_c, 0, 73, 0
2, 10449, Note_on_c, 0, 76, 57
2, 10648, Note_on_c, 0, 76, 0
2, 10656, Note_on_c, 0, 75, 68
2, 10661, Note_on_c, 0, 59, 63
2, 10665, Note_on_c, 0, 61, 0
2, 10696, Note_on_c, 0, 58, 0
2, 10866, Note_on_c, 0, 76, 79
2, 10867, Note_on_c, 0, 61, 65
2, 10873, Note_on_c, 0, 75, 0
2, 11039, Note_on_c, 0, 59, 0
2, 11051, Note_on_c, 0, 61, 0
2, 11053, Note_on_c, 0, 63, 73
2, 11059, Note_on_c, 0, 76, 0
2, 11060, Note_on_c, 0, 78, 88
2, 11248, Note_on_c, 0, 63, 0
2, 11258, Note_on_c, 0, 59, 71
2, 11262, Note_on_c, 0, 75, 86
2, 11275, Note_on_c, 0, 78, 0
2, 11462, Note_on_c, 0, 61, 82
2, 11467, Note_on_c, 0, 76, 82
2, 11480, Note_on_c, 0, 59, 0
2, 11488, Note_on_c, 0, 75, 0
2, 11659, Note_on_c, 0, 64, 90
2, 11665, Note_on_c, 0, 61, 0
2, 11677, Note_on_c, 0, 80, 85
2, 11678, Note_on_c, 0, 76, 0
2, 11857, Note_on_c, 0, 80, 0
2, 11869, Note_on_c, 0, 68, 86
2, 11879, Note_on_c, 0, 71, 69
2, 11898, Note_on_c, 0, 64, 0
2, 12071, Note_on_c, 0, 70, 60
2, 12072, Note_on_c, 0, 71, 0
2, 12281, Note_on_c, 0, 70, 0
2, 12285, Note_on_c, 0, 66, 65
2, 12286, Note_on_c, 0, 71, 69
2, 12324, Note_on_c, 0, 68, 0
2, 12483, Note_on_c, 0, 71, 0
2, 12493, Note_on_c, 0, 70, 61
2, 12680, Note_on_c, 0, 66, 0
2, 12686, Note_on_c, 0, 71, 62
2, 12695, Note_on_c, 0, 64, 55
2, 12767, Note_on_c, 0, 70, 0
2, 12891, Note_on_c, 0, 71, 0
2, 12902, Note_on_c, 0, 73, 65
2, 13086, Note_on_c, 0, 63, 51
2, 13089, Note_on_c, 0, 47, 58
2, 13108, Note_on_c, 0, 64, 0
2, 13307, Note_on_c, 0, 64, 58
2, 13311, Note_on_c, 0, 49, 71
2, 13346, Note_on_c, 0, 47, 0
2, 13354, Note_on_c, 0, 63, 0
2, 13397, Note_on_c, 0, 73, 0
2, 13512, Note_on_c, 0, 71, 78
2, 13527, Note_on_c, 0, 51, 71
2, 13527, Note_on_c, 0, 66, 59
2, 13533, Note_on_c, 0, 49, 0
2, 13533, Note_on_c, 0, 64, 0
2, 13726, Note_on_c, 0, 51, 0
2, 13733, Note_on_c, 0, 47, 73
2, 13737, Note_on_c, 0, 63, 67
2, 13747, Note_on_c, 0, 66, 0
2, 13928, Note_on_c, 0, 49, 79
2, 13931, Note_on_c, 0, 63, 0
2, 13943, Note_on_c, 0, 64, 73
2, 13956, Note_on_c, 0, 47, 0
2, 14135, Note_on_c, 0, 49, 0
2, 14135, Note_on_c, 0, 52, 80
2, 14145, Note_on_c, 0, 68, 72
2, 14149, Note_on_c, 0, 64, 0
2, 14346, Note_on_c, 0, 56, 80
2, 14346, Note_on_c, 0, 68, 0
2, 14358, Note_on_c, 0, 71, 0
2, 14360, Note_on_c, 0, 61, 61
2, 14376, Note_on_c, 0, 52, 0
2, 14560, Note_on_c, 0, 71, 82
2, 14755, Note_on_c, 0, 71, 0
2, 14761, Note_on_c, 0, 70, 72
2, 14768, Note_on_c, 0, 56, 0
2, 14770, Note_on_c, 0, 54, 64
2, 14962, Note_on_c, 0, 71, 75
2, 14977, Note_on_c, 0, 70, 0
2, 15156, Note_on_c, 0, 52, 52
2, 15165, Note_on_c, 0, 71, 0
2, 15186, Note_on_c, 0, 73, 74
2, 15217, Note_on_c, 0, 54, 0
2, 15376, Note_on_c, 0, 70, 65
2, 15396, Note_on_c, 0, 73, 0
2, 15575, Note_on_c, 0, 51, 47
2, 15579, Note_on_c, 0, 52, 0
2, 15581, Note_on_c, 0, 70, 0
2, 15582, Note_on_c, 0, 66, 73
2, 15793, Note_on_c, 0, 52, 56
2, 15802, Note_on_c, 0, 51, 0
2, 15991, Note_on_c, 0, 54, 66
2, 15993, Note_on_c, 0, 52, 0
2, 15999, Note_on_c, 0, 59, 68
2, 16002, Note_on_c, 0, 61, 0
2, 16191, Note_on_c, 0, 51, 64
2, 16194, Note_on_c, 0, 54, 0
2, 16196, Note_on_c, 0, 59, 0
2, 16200, Note_on_c, 0, 57, 71
2, 16238, Note_on_c, 0, 57, 0
2, 16404, Note_on_c, 0, 53, 66
2, 16410, Note_on_c, 0, 61, 77
2, 16426, Note_on_c, 0, 51, 0
2, 16605, Note_on_c, 0, 56, 65
2, 16605, Note_on_c, 0, 59, 84
2, 16630, Note_on_c, 0, 61, 0
2, 16649, Note_on_c, 0, 53, 0
2, 16660, Note_on_c, 0, 59, 0
2, 16829, Note_on_c, 0, 59, 57
2, 16835, Note_on_c, 0, 62, 80
2, 16870, Note_on_c, 0, 66, 0
2, 16992, Note_on_c, 0, 56, 0
2, 17049, Note_on_c, 0, 65, 73
2, 17259, Note_on_c, 0, 57, 45
2, 17259, Note_on_c, 0, 61, 64
2, 17259, Note_on_c, 0, 66, 72
2, 17271, Note_on_c, 0, 65, 0
2, 17272, Note_on_c, 0, 59, 0
2, 17290, Note_on_c, 0, 62, 0
2, 17458, Note_on_c, 0, 66, 0
2, 17460, Note_on_c, 0, 65, 67
2, 17665, Note_on_c, 0, 56, 53
2, 17673, Note_on_c, 0, 66, 61
2, 17674, Note_on_c, 0, 59, 54
2, 17676, Note_on_c, 0, 65, 0
2, 17710, Note_on_c, 0, 61, 0
2, 17720, Note_on_c, 0, 57, 0
2, 17875, Note_on_c, 0, 66, 0
2, 17886, Note_on_c, 0, 68, 63
2, 18070, Note_on_c, 0, 54, 48
2, 18086, Note_on_c, 0, 61, 57
2, 18086, Note_on_c, 0, 68, 0
2, 18100, Note_on_c, 0, 56, 0
2, 18298, Note_on_c, 0, 63, 62
2, 18327, Note_on_c, 0, 61, 0
2, 18497, Note_on_c, 0, 57, 56
2, 18500, Note_on_c, 0, 64, 76
2, 18509, Note_on_c, 0, 63, 0
2, 18510, Note_on_c, 0, 59, 0
2, 18678, Note_on_c, 0, 57, 0
2, 18687, Note_on_c, 0, 56, 58
2, 18693, Note_on_c, 0, 64, 0
2, 18710, Note_on_c, 0, 61, 80
2, 18896, Note_on_c, 0, 56, 0
2, 18906, Note_on_c, 0, 63, 85
2, 18909, Note_on_c, 0, 57, 57
2, 18926, Note_on_c, 0, 61, 0
2, 18930, Note_on_c, 0, 54, 0
2, 19111, Note_on_c, 0, 54, 61
2, 19122, Note_on_c, 0, 66, 89
2, 19125, Note_on_c, 0, 63, 0
2, 19138, Note_on_c, 0, 57, 0
2, 19329, Note_on_c, 0, 69, 83
2, 19335, Note_on_c, 0, 66, 0
2, 19342, Note_on_c, 0, 60, 68
2, 19359, Note_on_c, 0, 54, 0
2, 19517, Note_on_c, 0, 54, 58
2, 19725, Note_on_c, 0, 60, 0
2, 19730, Note_on_c, 0, 54, 0
2, 19730, Note_on_c, 0, 61, 59
2, 19731, Note_on_c, 0, 68, 74
2, 19736, Note_on_c, 0, 52, 57
2, 19770, Note_on_c, 0, 69, 0
2, 19938, Note_on_c, 0, 51, 56
2, 19938, Note_on_c, 0, 52, 0
2, 20131, Note_on_c, 0, 61, 0
2, 20132, Note_on_c, 0, 51, 0
2, 20138, Note_on_c, 0, 49, 51
2, 20142, Note_on_c, 0, 66, 61
2, 20146, Note_on_c, 0, 63, 54
2, 20153, Note_on_c, 0, 68, 0
2, 20332, Note_on_c, 0, 49, 0
2, 20342, Note_on_c, 0, 48, 56
2, 20528, Note_on_c, 0, 48, 0
2, 20548, Note_on_c, 0, 49, 48
2, 20551, Note_on_c, 0, 56, 57
2, 20572, Note_on_c, 0, 64, 63
2, 20613, Note_on_c, 0, 63, 0
2, 20613, Note_on_c, 0, 66, 0
2, 20768, Note_on_c, 0, 56, 0
2, 20776, Note_on_c, 0, 58, 67
2, 20980, Note_on_c, 0, 59, 75
2, 21011, Note_on_c, 0, 58, 0
2, 21181, Note_on_c, 0, 56, 78
2, 21192, Note_on_c, 0, 59, 0
2, 21386, Note_on_c, 0, 58, 74
2, 21397, Note_on_c, 0, 56, 0
2, 21414, Note_on_c, 0, 73, 84
2, 21430, Note_on_c, 0, 64, 0
2, 21582, Note_on_c, 0, 58, 0
2, 21603, Note_on_c, 0, 61, 88
2, 21613, Note_on_c, 0, 49, 0
2, 21626, Note_on_c, 0, 73, 0
2, 21799, Note_on_c, 0, 43, 61
2, 21809, Note_on_c, 0, 64, 81
2, 21818, Note_on_c, 0, 70, 83
2, 21845, Note_on_c, 0, 61, 0
2, 21910, Note_on_c, 0, 43, 0
2, 22014, Note_on_c, 0, 61, 79
2, 22228, Note_on_c, 0, 59, 66
2, 22229, Note_on_c, 0, 63, 73
2, 22236, Note_on_c, 0, 64, 0
2, 22242, Note_on_c, 0, 61, 0
2, 22432, Note_on_c, 0, 58, 55
2, 22433, Note_on_c, 0, 59, 0
2, 22635, Note_on_c, 0, 61, 66
2, 22641, Note_on_c, 0, 58, 0
2, 22642, Note_on_c, 0, 56, 45
2, 22655, Note_on_c, 0, 63, 0
2, 22843, Note_on_c, 0, 56, 0
2, 22849, Note_on_c, 0, 55, 51
2, 23044, Note_on_c, 0, 55, 0
2, 23046, Note_on_c, 0, 61, 0
2, 23061, Note_on_c, 0, 56, 47
2, 23061, Note_on_c, 0, 59, 44
2, 23266, Note_on_c, 0, 68, 56
2, 23301, Note_on_c, 0, 70, 0
2, 23441, Note_on_c, 0, 68, 0
2, 23457, Note_on_c, 0, 67, 56
2, 23650, Note_on_c, 0, 67, 0
2, 23674, Note_on_c, 0, 70, 64
2, 23874, Note_on_c, 0, 68, 65
2, 23907, Note_on_c, 0, 70, 0
2, 24080, Note_on_c, 0, 65, 64
2, 24101, Note_on_c, 0, 68, 0
2, 24286, Note_on_c, 0, 62, 59
2, 24294, Note_on_c, 0, 58, 57
2, 24302, Note_on_c, 0, 65, 0
2, 24335, Note_on_c, 0, 56, 0
2, 24359, Note_on_c, 0, 59, 0
2, 24518, Note_on_c, 0, 56, 59
2, 24723, Note_on_c, 0, 54, 60
2, 24725, Note_on_c, 0, 56, 0
2, 24733, Note_on_c, 0, 63, 75
2, 24766, Note_on_c, 0, 62, 0
2, 24924, Note_on_c, 0, 53, 69
2, 24940, Note_on_c, 0, 54, 0
2, 25130, Note_on_c, 0, 65, 81
2, 25148, Note_on_c, 0, 51, 66
2, 25159, Note_on_c, 0, 53, 0
2, 25160, Note_on_c, 0, 63, 0
2, 25347, Note_on_c, 0, 50, 65
2, 25355, Note_on_c, 0, 51, 0
2, 25551, Note_on_c, 0, 66, 84
2, 25567, Note_on_c, 0, 51, 51
2, 25574, Note_on_c, 0, 65, 0
2, 25587, Note_on_c, 0, 50, 0
2, 25768, Note_on_c, 0, 53, 60
2, 25777, Note_on_c, 0, 51, 0
2, 25968, Note_on_c, 0, 63, 57
2, 25982, Note_on_c, 0, 54, 49
2, 25988, Note_on_c, 0, 53, 0
2, 25992, Note_on_c, 0, 58, 0
2, 26179, Note_on_c, 0, 46, 52
2, 26183, Note_on_c, 0, 54, 0
2, 26379, Note_on_c, 0, 47, 52
2, 26379, Note_on_c, 0, 56, 53
2, 26417, Note_on_c, 0, 63, 0
2, 26436, Note_on_c, 0, 46, 0
2, 26599, Note_on_c, 0, 51, 47
2, 26603, Note_on_c, 0, 47, 0
2, 26807, Note_on_c, 0, 49, 48
2, 26808, Note_on_c, 0, 65, 61
2, 26811, Note_on_c, 0, 51, 0
2, 26853, Note_on_c, 0, 66, 0
2, 27014, Note_on_c, 0, 49, 0
2, 27018, Note_on_c, 0, 51, 50
2, 27220, Note_on_c, 0, 51, 0
2, 27224, Note_on_c, 0, 53, 41
2, 27226, Note_on_c, 0, 61, 59
2, 27263, Note_on_c, 0, 56, 0
2, 27420, Note_on_c, 0, 44, 48
2, 27420, Note_on_c, 0, 53, 0
2, 27633, Note_on_c, 0, 46, 53
2, 27639, Note_on_c, 0, 44, 0
2, 27645, Note_on_c, 0, 54, 56
2, 27679, Note_on_c, 0, 61, 0
2, 27818, Note_on_c, 0, 46, 0
2, 27835, Note_on_c, 0, 49, 46
2, 28021, Note_on_c, 0, 49, 0
2, 28024, Note_on_c, 0, 47, 51
2, 28030, Note_on_c, 0, 63, 66
2, 28121, Note_on_c, 0, 65, 0
2, 28223, Note_on_c, 0, 54, 0
2, 28245, Note_on_c, 0, 49, 60
2, 28254, Note_on_c, 0, 47, 0
2, 28451, Note_on_c, 0, 51, 67
2, 28456, Note_on_c, 0, 59, 62
2, 28458, Note_on_c, 0, 49, 0
2, 28462, Note_on_c, 0, 63, 0
2, 28649, Note_on_c, 0, 42, 71
2, 28650, Note_on_c, 0, 63, 82
2, 28669, Note_on_c, 0, 51, 0
2, 28839, Note_on_c, 0, 44, 74
2, 28850, Note_on_c, 0, 65, 83
2, 28863, Note_on_c, 0, 42, 0
2, 28879, Note_on_c, 0, 63, 0
2, 29050, Note_on_c, 0, 47, 77
2, 29063, Note_on_c, 0, 66, 86
2, 29084, Note_on_c, 0, 65, 0
2, 29086, Note_on_c, 0, 44, 0
2, 29261, Note_on_c, 0, 38, 72
2, 29276, Note_on_c, 0, 68, 86
2, 29295, Note_on_c, 0, 59, 0
2, 29313, Note_on_c, 0, 47, 0
2, 29314, Note_on_c, 0, 66, 0
2, 29488, Note_on_c, 0, 59, 61
2, 29679, Note_on_c, 0, 59, 0
2, 29703, Note_on_c, 0, 58, 65
2, 29707, Note_on_c, 0, 50, 61
2, 29813, Note_on_c, 0, 38, 0
2, 29910, Note_on_c, 0, 68, 0
2, 29918, Note_on_c, 0, 62, 61
2, 30116, Note_on_c, 0, 46, 61
2, 30123, Note_on_c, 0, 50, 0
2, 30124, Note_on_c, 0, 65, 64
2, 30128, Note_on_c, 0, 62, 0
2, 30309, Note_on_c, 0, 65, 0
2, 30320, Note_on_c, 0, 68, 64
2, 30529, Note_on_c, 0, 46, 0
2, 30531, Note_on_c, 0, 51, 61
2, 30531, Note_on_c, 0, 66, 58
2, 30547, Note_on_c, 0, 58, 0
2, 30659, Note_on_c, 0, 68, 0
2, 30743, Note_on_c, 0, 51, 0
2, 30748, Note_on_c, 0, 53, 71
2, 30752, Note_on_c, 0, 58, 59
2, 30940, Note_on_c, 0, 54, 77
2, 30947, Note_on_c, 0, 63, 76
2, 30955, Note_on_c, 0, 66, 0
2, 30957, Note_on_c, 0, 53, 0
2, 30972, Note_on_c, 0, 58, 0
2, 31140, Note_on_c, 0, 51, 77
2, 31140, Note_on_c, 0, 54, 0
2, 31155, Note_on_c, 0, 66, 86
2, 31356, Note_on_c, 0, 53, 85
2, 31360, Note_on_c, 0, 68, 83
2, 31386, Note_on_c, 0, 66, 0
2, 31388, Note_on_c, 0, 51, 0
2, 31553, Note_on_c, 0, 56, 87
2, 31559, Note_on_c, 0, 71, 86
2, 31564, Note_on_c, 0, 53, 0
2, 31565, Note_on_c, 0, 68, 0
2, 31582, Note_on_c, 0, 63, 0
2, 31768, Note_on_c, 0, 66, 61
2, 31770, Note_on_c, 0, 59, 77
2, 31770, Note_on_c, 0, 71, 0
2, 31773, Note_on_c, 0, 62, 55
2, 31776, Note_on_c, 0, 56, 0
2, 31835, Note_on_c, 0, 65, 63
2, 31856, Note_on_c, 0, 66, 0
2, 31888, Note_on_c, 0, 66, 57
2, 31893, Note_on_c, 0, 65, 0
2, 31959, Note_on_c, 0, 65, 55
2, 31961, Note_on_c, 0, 66, 0
2, 32182, Note_on_c, 0, 58, 67
2, 32248, Note_on_c, 0, 59, 0
2, 32604, Note_on_c, 0, 56, 59
2, 32655, Note_on_c, 0, 58, 0
2, 32840, Note_on_c, 0, 62, 0
2, 33019, Note_on_c, 0, 65, 0
2, 33035, Note_on_c, 0, 54, 45
2, 33038, Note_on_c, 0, 56, 0
2, 33041, Note_on_c, 0, 63, 54
2, 33242, Note_on_c, 0, 54, 0
2, 33246, Note_on_c, 0, 56, 56
2, 33252, Note_on_c, 0, 65, 60
2, 33288, Note_on_c, 0, 63, 0
2, 33426, Note_on_c, 0, 56, 0
2, 33439, Note_on_c, 0, 66, 65
2, 33440, Note_on_c, 0, 58, 54
2, 33445, Note_on_c, 0, 65, 0
2, 33633, Note_on_c, 0, 66, 0
2, 33646, Note_on_c, 0, 63, 70
2, 33649, Note_on_c, 0, 58, 0
2, 33651, Note_on_c, 0, 54, 58
2, 33845, Note_on_c, 0, 65, 78
2, 33855, Note_on_c, 0, 56, 64
2, 33860, Note_on_c, 0, 54, 0
2, 33860, Note_on_c, 0, 63, 0
2, 34042, Note_on_c, 0, 59, 66
2, 34051, Note_on_c, 0, 68, 85
2, 34066, Note_on_c, 0, 65, 0
2, 34080, Note_on_c, 0, 56, 0
2, 34254, Note_on_c, 0, 71, 82
2, 34258, Note_on_c, 0, 50, 56
2, 34270, Note_on_c, 0, 68, 0
2, 34277, Note_on_c, 0, 59, 0
2, 34470, Note_on_c, 0, 51, 61
2, 34471, Note_on_c, 0, 50, 0
2, 34671, Note_on_c, 0, 53, 52
2, 34671, Note_on_c, 0, 70, 67
2, 34683, Note_on_c, 0, 51, 0
2, 34715, Note_on_c, 0, 71, 0
2, 34881, Note_on_c, 0, 53, 0
2, 34882, Note_on_c, 0, 46, 51
2, 35064, Note_on_c, 0, 50, 58
2, 35066, Note_on_c, 0, 70, 0
2, 35070, Note_on_c, 0, 46, 0
2, 35077, Note_on_c, 0, 68, 60
2, 35282, Note_on_c, 0, 53, 67
2, 35284, Note_on_c, 0, 50, 0
2, 35343, Note_on_c, 0, 68, 0
2, 35485, Note_on_c, 0, 51, 57
2, 35496, Note_on_c, 0, 53, 0
2, 35496, Note_on_c, 0, 66, 65
2, 35507, Note_on_c, 0, 63, 48
2, 35713, Note_on_c, 0, 61, 66
2, 35891, Note_on_c, 0, 63, 0
2, 35908, Note_on_c, 0, 61, 0
2, 35925, Note_on_c, 0, 59, 70
2, 36128, Note_on_c, 0, 63, 74
2, 36147, Note_on_c, 0, 59, 0
2, 36334, Note_on_c, 0, 61, 85
2, 36371, Note_on_c, 0, 63, 0
2, 36532, Note_on_c, 0, 58, 74
2, 36537, Note_on_c, 0, 68, 81
2, 36559, Note_on_c, 0, 66, 0
2, 36570, Note_on_c, 0, 61, 0
2, 36741, Note_on_c, 0, 55, 72
2, 36746, Note_on_c, 0, 49, 65
2, 36750, Note_on_c, 0, 70, 87
2, 36755, Note_on_c, 0, 58, 0
2, 36756, Note_on_c, 0, 68, 0
2, 36789, Note_on_c, 0, 51, 0
2, 36942, Note_on_c, 0, 70, 0
2, 36955, Note_on_c, 0, 71, 86
2, 37160, Note_on_c, 0, 56, 73
2, 37165, Note_on_c, 0, 73, 86
2, 37189, Note_on_c, 0, 71, 0
2, 37200, Note_on_c, 0, 55, 0
2, 37368, Note_on_c, 0, 70, 86
2, 37378, Note_on_c, 0, 73, 0
2, 37567, Note_on_c, 0, 58, 72
2, 37572, Note_on_c, 0, 70, 0
2, 37574, Note_on_c, 0, 71, 83
2, 37589, Note_on_c, 0, 56, 0
2, 37775, Note_on_c, 0, 73, 90
2, 37811, Note_on_c, 0, 71, 0
2, 37978, Note_on_c, 0, 75, 88
2, 37979, Note_on_c, 0, 47, 71
2, 37988, Note_on_c, 0, 73, 0
2, 37992, Note_on_c, 0, 49, 0
2, 38190, Note_on_c, 0, 73, 91
2, 38215, Note_on_c, 0, 75, 0
2, 38268, Note_on_c, 0, 58, 0
2, 38396, Note_on_c, 0, 56, 87
2, 38398, Note_on_c, 0, 71, 84
2, 38410, Note_on_c, 0, 73, 0
2, 38609, Note_on_c, 0, 75, 91
2, 38610, Note_on_c, 0, 71, 0
2, 38799, Note_on_c, 0, 73, 85
2, 38801, Note_on_c, 0, 64, 85
2, 38834, Note_on_c, 0, 56, 0
2, 38842, Note_on_c, 0, 75, 0
2, 39008, Note_on_c, 0, 70, 88
2, 39044, Note_on_c, 0, 73, 0
2, 39209, Note_on_c, 0, 46, 78
2, 39220, Note_on_c, 0, 47, 0
2, 39224, Note_on_c, 0, 67, 83
2, 39233, Note_on_c, 0, 70, 0
2, 39419, Note_on_c, 0, 49, 79
2, 39434, Note_on_c, 0, 46, 0
2, 39622, Note_on_c, 0, 47, 78
2, 39635, Note_on_c, 0, 68, 85
2, 39639, Note_on_c, 0, 63, 81
2, 39642, Note_on_c, 0, 64, 0
2, 39645, Note_on_c, 0, 49, 0
2, 39652, Note_on_c, 0, 67, 0
2, 39840, Note_on_c, 0, 46, 77
2, 39852, Note_on_c, 0, 47, 0
2, 40047, Note_on_c, 0, 44, 73
2, 40051, Note_on_c, 0, 46, 0
2, 40055, Note_on_c, 0, 63, 0
2, 40060, Note_on_c, 0, 70, 86
2, 40062, Note_on_c, 0, 61, 81
2, 40077, Note_on_c, 0, 68, 0
2, 40249, Note_on_c, 0, 44, 0
2, 40257, Note_on_c, 0, 43, 75
2, 40285, Note_on_c, 0, 63, 36
2, 40290, Note_on_c, 0, 61, 0
2, 40464, Note_on_c, 0, 63, 0
2, 40471, Note_on_c, 0, 71, 89
2, 40473, Note_on_c, 0, 44, 77
2, 40475, Note_on_c, 0, 43, 0
2, 40475, Note_on_c, 0, 59, 83
2, 40495, Note_on_c, 0, 70, 0
2, 40690, Note_on_c, 0, 63, 86
2, 40691, Note_on_c, 0, 42, 82
2, 40691, Note_on_c, 0, 59, 0
2, 40719, Note_on_c, 0, 44, 0
2, 40886, Note_on_c, 0, 40, 79
2, 40899, Note_on_c, 0, 42, 0
2, 40902, Note_on_c, 0, 63, 0
2, 40904, Note_on_c, 0, 68, 92
2, 40904, Note_on_c, 0, 71, 0
2, 41099, Note_on_c, 0, 40, 0
2, 41100, Note_on_c, 0, 70, 86
2, 41108, Note_on_c, 0, 44, 92
2, 41316, Note_on_c, 0, 42, 90
2, 41318, Note_on_c, 0, 72, 89
2, 41325, Note_on_c, 0, 44, 0
2, 41338, Note_on_c, 0, 70, 0
2, 41520, Note_on_c, 0, 73, 89
2, 41523, Note_on_c, 0, 39, 83
2, 41535, Note_on_c, 0, 72, 0
2, 41548, Note_on_c, 0, 42, 0
2, 41734, Note_on_c, 0, 36, 83
2, 41743, Note_on_c, 0, 75, 92
2, 41747, Note_on_c, 0, 68, 0
2, 41765, Note_on_c, 0, 39, 0
2, 41766, Note_on_c, 0, 66, 61
2, 41774, Note_on_c, 0, 73, 0
2, 41961, Note_on_c, 0, 68, 66
2, 42015, Note_on_c, 0, 66, 0
2, 42163, Note_on_c, 0, 37, 81
2, 42176, Note_on_c, 0, 69, 72
2, 42190, Note_on_c, 0, 36, 0
2, 42193, Note_on_c, 0, 68, 0
2, 42361, Note_on_c, 0, 69, 0
2, 42379, Note_on_c, 0, 66, 75
2, 42588, Note_on_c, 0, 39, 76
2, 42600, Note_on_c, 0, 73, 77
2, 42607, Note_on_c, 0, 66, 0
2, 42613, Note_on_c, 0, 37, 0
2, 42809, Note_on_c, 0, 72, 81
2, 42829, Note_on_c, 0, 73, 0
2, 43015, Note_on_c, 0, 72, 0
2, 43024, Note_on_c, 0, 40, 71
2, 43025, Note_on_c, 0, 73, 79
2, 43033, Note_on_c, 0, 75, 0
2, 43059, Note_on_c, 0, 39, 0
2, 43229, Note_on_c, 0, 42, 73
2, 43233, Note_on_c, 0, 75, 85
2, 43258, Note_on_c, 0, 40, 0
2, 43426, Note_on_c, 0, 42, 0
2, 43426, Note_on_c, 0, 44, 70
2, 43435, Note_on_c, 0, 76, 90
2, 43445, Note_on_c, 0, 75, 0
2, 43490, Note_on_c, 0, 73, 0
2, 43646, Note_on_c, 0, 44, 0
2, 43649, Note_on_c, 0, 40, 68
2, 43651, Note_on_c, 0, 76, 0
2, 43655, Note_on_c, 0, 73, 92
2, 43858, Note_on_c, 0, 75, 94
2, 43859, Note_on_c, 0, 42, 69
2, 43867, Note_on_c, 0, 40, 0
2, 43886, Note_on_c, 0, 73, 0
2, 44058, Note_on_c, 0, 78, 95
2, 44068, Note_on_c, 0, 45, 63
2, 44074, Note_on_c, 0, 75, 0
2, 44092, Note_on_c, 0, 42, 0
2, 44269, Note_on_c, 0, 39, 61
2, 44269, Note_on_c, 0, 45, 0
2, 44279, Note_on_c, 0, 81, 88
2, 44292, Note_on_c, 0, 78, 0
2, 44296, Note_on_c, 0, 72, 65
2, 44498, Note_on_c, 0, 40, 71
2, 44513, Note_on_c, 0, 39, 0
2, 44706, Note_on_c, 0, 80, 84
2, 44708, Note_on_c, 0, 42, 71
2, 44709, Note_on_c, 0, 73, 83
2, 44716, Note_on_c, 0, 40, 0
2, 44718, Note_on_c, 0, 72, 0
2, 44750, Note_on_c, 0, 81, 0
2, 44907, Note_on_c, 0, 44, 73
2, 44917, Note_on_c, 0, 42, 0
2, 45110, Note_on_c, 0, 46, 71
2, 45113, Note_on_c, 0, 44, 0
2, 45113, Note_on_c, 0, 78, 87
2, 45124, Note_on_c, 0, 75, 78
2, 45137, Note_on_c, 0, 73, 0
2, 45143, Note_on_c, 0, 80, 0
2, 45337, Note_on_c, 0, 46, 0
2, 45343, Note_on_c, 0, 48, 65
2, 45540, Note_on_c, 0, 76, 87
2, 45547, Note_on_c, 0, 49, 59
2, 45577, Note_on_c, 0, 48, 0
2, 45577, Note_on_c, 0, 78, 0
2, 45760, Note_on_c, 0, 51, 59
2, 45781, Note_on_c, 0, 49, 0
2, 45962, Note_on_c, 0, 51, 0
2, 45962, Note_on_c, 0, 52, 51
2, 45974, Note_on_c, 0, 73, 82
2, 46009, Note_on_c, 0, 75, 0
2, 46175, Note_on_c, 0, 49, 54
2, 46190, Note_on_c, 0, 52, 0
2, 46396, Note_on_c, 0, 52, 49
2, 46408, Note_on_c, 0, 71, 75
2, 46410, Note_on_c, 0, 73, 0
2, 46447, Note_on_c, 0, 49, 0
2, 46598, Note_on_c, 0, 56, 54
2, 46601, Note_on_c, 0, 52, 0
2, 46812, Note_on_c, 0, 54, 54
2, 46812, Note_on_c, 0, 71, 0
2, 46820, Note_on_c, 0, 56, 0
2, 46824, Note_on_c, 0, 70, 61
2, 47031, Note_on_c, 0, 56, 55
2, 47036, Note_on_c, 0, 54, 0
2, 47239, Note_on_c, 0, 58, 44
2, 47240, Note_on_c, 0, 56, 0
2, 47240, Note_on_c, 0, 78, 86
2, 47262, Note_on_c, 0, 76, 0
2, 47444, Note_on_c, 0, 54, 55
2, 47445, Note_on_c, 0, 58, 0
2, 47657, Note_on_c, 0, 54, 0
2, 47658, Note_on_c, 0, 76, 82
2, 47659, Note_on_c, 0, 58, 63
2, 47703, Note_on_c, 0, 78, 0
2, 47868, Note_on_c, 0, 61, 61
2, 47870, Note_on_c, 0, 58, 0
2, 48072, Note_on_c, 0, 47, 52
2, 48092, Note_on_c, 0, 75, 76
2, 48092, Note_on_c, 0, 76, 0
2, 48096, Note_on_c, 0, 61, 0
2, 48300, Note_on_c, 0, 49, 59
2, 48319, Note_on_c, 0, 47, 0
2, 48501, Note_on_c, 0, 71, 72
2, 48502, Note_on_c, 0, 70, 0
2, 48507, Note_on_c, 0, 49, 0
2, 48509, Note_on_c, 0, 51, 56
2, 48714, Note_on_c, 0, 51, 0
2, 48719, Note_on_c, 0, 47, 52
2, 48915, Note_on_c, 0, 70, 70
2, 48923, Note_on_c, 0, 51, 56
2, 48951, Note_on_c, 0, 47, 0
2, 48951, Note_on_c, 0, 71, 0
2, 49119, Note_on_c, 0, 51, 0
2, 49127, Note_on_c, 0, 54, 63
2, 49325, Note_on_c, 0, 54, 0
2, 49327, Note_on_c, 0, 52, 51
2, 49327, Note_on_c, 0, 68, 65
2, 49347, Note_on_c, 0, 70, 0
2, 49535, Note_on_c, 0, 52, 0
2, 49539, Note_on_c, 0, 54, 61
2, 49725, Note_on_c, 0, 54, 0
2, 49747, Note_on_c, 0, 56, 53
2, 49753, Note_on_c, 0, 76, 76
2, 49768, Note_on_c, 0, 75, 0
2, 49941, Note_on_c, 0, 56, 0
2, 49955, Note_on_c, 0, 52, 49
2, 50150, Note_on_c, 0, 56, 54
2, 50154, Note_on_c, 0, 52, 0
2, 50160, Note_on_c, 0, 75, 74
2, 50203, Note_on_c, 0, 76, 0
2, 50337, Note_on_c, 0, 56, 0
2, 50369, Note_on_c, 0, 59, 48
2, 50584, Note_on_c, 0, 46, 41
2, 50590, Note_on_c, 0, 73, 64
2, 50594, Note_on_c, 0, 59, 0
2, 50620, Note_on_c, 0, 75, 0
2, 50796, Note_on_c, 0, 47, 50
2, 50846, Note_on_c, 0, 46, 0
2, 51010, Note_on_c, 0, 47, 0
2, 51018, Note_on_c, 0, 49, 55
2, 51018, Note_on_c, 0, 70, 64
2, 51050, Note_on_c, 0, 68, 0
2, 51221, Note_on_c, 0, 46, 56
2, 51235, Note_on_c, 0, 49, 0
2, 51441, Note_on_c, 0, 46, 0
2, 51441, Note_on_c, 0, 68, 67
2, 51450, Note_on_c, 0, 49, 53
2, 51469, Note_on_c, 0, 70, 0
2, 51646, Note_on_c, 0, 49, 0
2, 51655, Note_on_c, 0, 52, 59
2, 51841, Note_on_c, 0, 51, 54
2, 51845, Note_on_c, 0, 52, 0
2, 51856, Note_on_c, 0, 67, 61
2, 51865, Note_on_c, 0, 68, 0
2, 52068, Note_on_c, 0, 53, 57
2, 52073, Note_on_c, 0, 51, 0
2, 52273, Note_on_c, 0, 75, 65
2, 52284, Note_on_c, 0, 55, 40
2, 52288, Note_on_c, 0, 53, 0
2, 52293, Note_on_c, 0, 73, 0
2, 52474, Note_on_c, 0, 51, 54
2, 52517, Note_on_c, 0, 55, 0
2, 52678, Note_on_c, 0, 55, 53
2, 52681, Note_on_c, 0, 73, 71
2, 52686, Note_on_c, 0, 51, 0
2, 52730, Note_on_c, 0, 75, 0
2, 52859, Note_on_c, 0, 67, 0
2, 52877, Note_on_c, 0, 55, 0
2, 52890, Note_on_c, 0, 58, 61
2, 53090, Note_on_c, 0, 58, 0
2, 53092, Note_on_c, 0, 56, 56
2, 53094, Note_on_c, 0, 68, 58
2, 53094, Note_on_c, 0, 71, 66
2, 53096, Note_on_c, 0, 73, 0
2, 53295, Note_on_c, 0, 56, 0
2, 53302, Note_on_c, 0, 68, 0
2, 53305, Note_on_c, 0, 71, 0
2, 53308, Note_on_c, 0, 58, 57
2, 53309, Note_on_c, 0, 70, 70
2, 53501, Note_on_c, 0, 70, 0
2, 53513, Note_on_c, 0, 68, 70
2, 53517, Note_on_c, 0, 59, 61
2, 53529, Note_on_c, 0, 58, 0
2, 53719, Note_on_c, 0, 51, 55
2, 53721, Note_on_c, 0, 59, 0
2, 53723, Note_on_c, 0, 71, 82
2, 53734, Note_on_c, 0, 68, 0
2, 53922, Note_on_c, 0, 52, 63
2, 53935, Note_on_c, 0, 51, 0
2, 53935, Note_on_c, 0, 73, 78
2, 53939, Note_on_c, 0, 71, 0
2, 54122, Note_on_c, 0, 52, 0
2, 54129, Note_on_c, 0, 56, 65
2, 54129, Note_on_c, 0, 76, 79
2, 54132, Note_on_c, 0, 73, 0
2, 54339, Note_on_c, 0, 54, 66
2, 54339, Note_on_c, 0, 70, 71
2, 54345, Note_on_c, 0, 76, 0
2, 54359, Note_on_c, 0, 56, 0
2, 54549, Note_on_c, 0, 54, 0
2, 54550, Note_on_c, 0, 56, 65
2, 54553, Note_on_c, 0, 70, 0
2, 54554, Note_on_c, 0, 68, 71
2, 54737, Note_on_c, 0, 68, 0
2, 54749, Note_on_c, 0, 56, 0
2, 54749, Note_on_c, 0, 58, 69
2, 54755, Note_on_c, 0, 66, 68
2, 54951, Note_on_c, 0, 58, 0
2, 54957, Note_on_c, 0, 49, 64
2, 54960, Note_on_c, 0, 70, 78
2, 54981, Note_on_c, 0, 66, 0
2, 55167, Note_on_c, 0, 51, 70
2, 55172, Note_on_c, 0, 71, 80
2, 55176, Note_on_c, 0, 49, 0
2, 55181, Note_on_c, 0, 70, 0
2, 55370, Note_on_c, 0, 54, 72
2, 55398, Note_on_c, 0, 75, 82
2, 55402, Note_on_c, 0, 51, 0
2, 55402, Note_on_c, 0, 71, 0
2, 55583, Note_on_c, 0, 68, 72
2, 55584, Note_on_c, 0, 52, 70
2, 55589, Note_on_c, 0, 75, 0
2, 55602, Note_on_c, 0, 54, 0
2, 55789, Note_on_c, 0, 52, 0
2, 55789, Note_on_c, 0, 54, 77
2, 55800, Note_on_c, 0, 75, 81
2, 55810, Note_on_c, 0, 68, 0
2, 55999, Note_on_c, 0, 54, 0
2, 56001, Note_on_c, 0, 56, 74
2, 56008, Note_on_c, 0, 73, 82
2, 56030, Note_on_c, 0, 75, 0
2, 56210, Note_on_c, 0, 73, 0
2, 56211, Note_on_c, 0, 71, 80
2, 56212, Note_on_c, 0, 56, 0
2, 56213, Note_on_c, 0, 47, 68
2, 56415, Note_on_c, 0, 49, 70
2, 56417, Note_on_c, 0, 70, 84
2, 56419, Note_on_c, 0, 47, 0
2, 56440, Note_on_c, 0, 71, 0
2, 56612, Note_on_c, 0, 52, 69
2, 56621, Note_on_c, 0, 68, 82
2, 56641, Note_on_c, 0, 70, 0
2, 56656, Note_on_c, 0, 49, 0
2, 56829, Note_on_c, 0, 68, 0
2, 56830, Note_on_c, 0, 51, 75
2, 56836, Note_on_c, 0, 67, 79
2, 56862, Note_on_c, 0, 52, 0
2, 57037, Note_on_c, 0, 53, 77
2, 57040, Note_on_c, 0, 68, 87
2, 57064, Note_on_c, 0, 51, 0
2, 57064, Note_on_c, 0, 67, 0
2, 57235, Note_on_c, 0, 53, 0
2, 57244, Note_on_c, 0, 55, 72
2, 57246, Note_on_c, 0, 70, 86
2, 57256, Note_on_c, 0, 68, 0
2, 57449, Note_on_c, 0, 46, 59
2, 57449, Note_on_c, 0, 70, 0
2, 57451, Note_on_c, 0, 55, 0
2, 57461, Note_on_c, 0, 67, 74
2, 57656, Note_on_c, 0, 46, 0
2, 57656, Note_on_c, 0, 47, 55
2, 57657, Note_on_c, 0, 68, 72
2, 57669, Note_on_c, 0, 67, 0
2, 57862, Note_on_c, 0, 47, 0
2, 57866, Note_on_c, 0, 71, 70
2, 57871, Note_on_c, 0, 51, 56
2, 58066, Note_on_c, 0, 49, 54
2, 58070, Note_on_c, 0, 76, 68
2, 58075, Note_on_c, 0, 51, 0
2, 58101, Note_on_c, 0, 71, 0
2, 58247, Control_c, 0, 64, 24
2, 58262, Control_c, 0, 64, 46
2, 58274, Note_on_c, 0, 68, 0
2, 58277, Control_c, 0, 64, 54
2, 58287, Note_on_c, 0, 51, 71
2, 58292, Control_c, 0, 64, 57
2, 58299, Note_on_c, 0, 49, 0
2, 58302, Note_on_c, 0, 76, 0
2, 58307, Control_c, 0, 64, 58
2, 58322, Control_c, 0, 64, 59
2, 58336, Control_c, 0, 64, 61
2, 58351, Control_c, 0, 64, 63
2, 58367, Control_c, 0, 64, 64
2, 58443, Control_c, 0, 64, 62
2, 58458, Control_c, 0, 64, 57
2, 58474, Control_c, 0, 64, 48
2, 58478, Note_on_c, 0, 52, 67
2, 58489, Control_c, 0, 64, 35
2, 58495, Note_on_c, 0, 76, 80
2, 58501, Note_on_c, 0, 68, 67
2, 58504, Control_c, 0, 64, 10
2, 58510, Note_on_c, 0, 51, 0
2, 58520, Control_c, 0, 64, 0
2, 58642, Control_c, 0, 64, 34
2, 58657, Control_c, 0, 64, 55
2, 58672, Control_c, 0, 64, 62
2, 58687, Control_c, 0, 64, 65
2, 58693, Note_on_c, 0, 47, 74
2, 58702, Control_c, 0, 64, 69
2, 58708, Note_on_c, 0, 68, 0
2, 58718, Control_c, 0, 64, 75
2, 58721, Note_on_c, 0, 76, 0
2, 58733, Control_c, 0, 64, 90
2, 58744, Note_on_c, 0, 52, 0
2, 58748, Control_c, 0, 64, 127
2, 58895, Note_on_c, 0, 49, 78
2, 58899, Note_on_c, 0, 76, 88
2, 58907, Note_on_c, 0, 47, 0
2, 58909, Note_on_c, 0, 68, 78
2, 58930, Control_c, 0, 64, 96
2, 58945, Control_c, 0, 64, 74
2, 58968, Control_c, 0, 64, 60
2, 58983, Control_c, 0, 64, 0
2, 59059, Control_c, 0, 64, 45
2, 59075, Control_c, 0, 64, 63
2, 59089, Control_c, 0, 64, 71
2, 59099, Note_on_c, 0, 68, 0
2, 59104, Control_c, 0, 64, 88
2, 59120, Control_c, 0, 64, 127
2, 59120, Note_on_c, 0, 52, 84
2, 59138, Note_on_c, 0, 76, 0
2, 59160, Note_on_c, 0, 49, 0
2, 59314, Note_on_c, 0, 45, 79
2, 59331, Note_on_c, 0, 76, 90
2, 59332, Control_c, 0, 64, 90
2, 59335, Note_on_c, 0, 73, 88
2, 59344, Note_on_c, 0, 52, 0
2, 59347, Control_c, 0, 64, 69
2, 59363, Control_c, 0, 64, 51
2, 59378, Control_c, 0, 64, 0
2, 59500, Control_c, 0, 64, 44
2, 59516, Control_c, 0, 64, 54
2, 59528, Note_on_c, 0, 49, 79
2, 59531, Control_c, 0, 64, 60
2, 59546, Control_c, 0, 64, 63
2, 59549, Note_on_c, 0, 73, 0
2, 59562, Control_c, 0, 64, 67
2, 59568, Note_on_c, 0, 45, 0
2, 59577, Control_c, 0, 64, 73
2, 59589, Note_on_c, 0, 76, 0
2, 59592, Control_c, 0, 64, 79
2, 59607, Control_c, 0, 64, 83
2, 59622, Control_c, 0, 64, 84
2, 59668, Control_c, 0, 64, 85
2, 59683, Control_c, 0, 64, 85
2, 59698, Control_c, 0, 64, 86
2, 59727, Note_on_c, 0, 52, 83
2, 59736, Control_c, 0, 64, 85
2, 59738, Note_on_c, 0, 76, 92
2, 59745, Note_on_c, 0, 49, 0
2, 59749, Note_on_c, 0, 73, 86
2, 59751, Control_c, 0, 64, 77
2, 59767, Control_c, 0, 64, 64
2, 59782, Control_c, 0, 64, 0
2, 59827, Control_c, 0, 64, 20
2, 59843, Control_c, 0, 64, 59
2, 59858, Control_c, 0, 64, 66
2, 59874, Control_c, 0, 64, 75
2, 59888, Control_c, 0, 64, 90
2, 59903, Control_c, 0, 64, 112
2, 59916, Note_on_c, 0, 73, 0
2, 59919, Control_c, 0, 64, 127
2, 59928, Note_on_c, 0, 76, 0
2, 59929, Note_on_c, 0, 44, 89
2, 59943, Note_on_c, 0, 52, 0
2, 60132, Note_on_c, 0, 49, 90
2, 60140, Note_on_c, 0, 76, 94
2, 60152, Note_on_c, 0, 73, 89
2, 60159, Note_on_c, 0, 44, 0
2, 60161, Control_c, 0, 64, 76
2, 60176, Control_c, 0, 64, 56
2, 60191, Control_c, 0, 64, 0
2, 60238, Control_c, 0, 64, 54
2, 60253, Control_c, 0, 64, 75
2, 60268, Control_c, 0, 64, 127
2, 60321, Note_on_c, 0, 76, 0
2, 60332, Note_on_c, 0, 73, 0
2, 60347, Note_on_c, 0, 52, 91
2, 60384, Note_on_c, 0, 49, 0
2, 60618, Note_on_c, 0, 43, 89
2, 60631, Note_on_c, 0, 76, 95
2, 60640, Note_on_c, 0, 73, 85
2, 60670, Note_on_c, 0, 52, 0
2, 60674, Control_c, 0, 64, 99
2, 60689, Control_c, 0, 64, 75
2, 60704, Control_c, 0, 64, 65
2, 60720, Control_c, 0, 64, 56
2, 60734, Control_c, 0, 64, 43
2, 60750, Control_c, 0, 64, 27
2, 60765, Control_c, 0, 64, 0
2, 60882, Note_on_c, 0, 73, 0
2, 60884, Note_on_c, 0, 71, 79
2, 61086, Note_on_c, 0, 70, 78
2, 61126, Note_on_c, 0, 71, 0
2, 61298, Note_on_c, 0, 73, 83
2, 61302, Note_on_c, 0, 70, 0
2, 61493, Note_on_c, 0, 71, 78
2, 61499, Note_on_c, 0, 73, 0
2, 61711, Note_on_c, 0, 68, 71
2, 61714, Note_on_c, 0, 71, 0
2, 61905, Note_on_c, 0, 68, 0
2, 61916, Note_on_c, 0, 70, 70
2, 62136, Note_on_c, 0, 75, 82
2, 62177, Note_on_c, 0, 76, 0
2, 62337, Note_on_c, 0, 73, 94
2, 62358, Note_on_c, 0, 75, 0
2, 62541, Note_on_c, 0, 55, 71
2, 62551, Note_on_c, 0, 82, 88
2, 62584, Note_on_c, 0, 43, 0
2, 62589, Note_on_c, 0, 73, 0
2, 62756, Note_on_c, 0, 56, 71
2, 62760, Note_on_c, 0, 76, 87
2, 62802, Note_on_c, 0, 55, 0
2, 62808, Note_on_c, 0, 82, 0
2, 62982, Note_on_c, 0, 73, 89
2, 62983, Note_on_c, 0, 58, 74
2, 62989, Note_on_c, 0, 56, 0
2, 62995, Note_on_c, 0, 76, 0
2, 63204, Note_on_c, 0, 47, 53
2, 63205, Note_on_c, 0, 75, 78
2, 63236, Note_on_c, 0, 73, 0
2, 63272, Note_on_c, 0, 58, 0
2, 63405, Note_on_c, 0, 73, 84
2, 63419, Note_on_c, 0, 75, 0
2, 63463, Note_on_c, 0, 70, 0
2, 63618, Note_on_c, 0, 71, 77
2, 63621, Note_on_c, 0, 68, 63
2, 63643, Note_on_c, 0, 73, 0
2, 63835, Note_on_c, 0, 75, 75
2, 63840, Note_on_c, 0, 71, 0
2, 64036, Note_on_c, 0, 52, 65
2, 64037, Note_on_c, 0, 73, 76
2, 64043, Note_on_c, 0, 75, 0
2, 64131, Note_on_c, 0, 47, 0
2, 64248, Note_on_c, 0, 73, 0
2, 64251, Note_on_c, 0, 70, 67
2, 64468, Note_on_c, 0, 49, 57
2, 64469, Note_on_c, 0, 70, 0
2, 64471, Note_on_c, 0, 71, 66
2, 64480, Note_on_c, 0, 68, 0
2, 64563, Note_on_c, 0, 52, 0
2, 64673, Note_on_c, 0, 71, 0
2, 64682, Note_on_c, 0, 70, 64
2, 64872, Note_on_c, 0, 51, 49
2, 64891, Note_on_c, 0, 68, 63
2, 64899, Note_on_c, 0, 70, 0
2, 64956, Note_on_c, 0, 49, 0
2, 65080, Note_on_c, 0, 68, 0
2, 65092, Note_on_c, 0, 71, 63
2, 65309, Note_on_c, 0, 39, 43
2, 65326, Note_on_c, 0, 70, 59
2, 65348, Note_on_c, 0, 71, 0
2, 65368, Note_on_c, 0, 51, 0
2, 65517, Note_on_c, 0, 70, 0
2, 65536, Note_on_c, 0, 67, 61
2, 65771, Note_on_c, 0, 44, 47
2, 65781, Note_on_c, 0, 68, 65
2, 65820, Note_on_c, 0, 67, 0
2, 65825, Note_on_c, 0, 39, 0
2, 66021, Note_on_c, 0, 46, 52
2, 66059, Note_on_c, 0, 44, 0
2, 66231, Note_on_c, 0, 66, 63
2, 66237, Note_on_c, 0, 46, 0
2, 66242, Note_on_c, 0, 48, 53
2, 66440, Note_on_c, 0, 44, 66
2, 66455, Note_on_c, 0, 48, 0
2, 66655, Note_on_c, 0, 48, 76
2, 66662, Note_on_c, 0, 63, 63
2, 66671, Note_on_c, 0, 44, 0
2, 66690, Note_on_c, 0, 66, 0
2, 66861, Note_on_c, 0, 51, 84
2, 66863, Note_on_c, 0, 48, 0
2, 67095, Note_on_c, 0, 54, 79
2, 67098, Note_on_c, 0, 61, 59
2, 67137, Note_on_c, 0, 51, 0
2, 67178, Note_on_c, 0, 63, 0
2, 67295, Note_on_c, 0, 61, 0
2, 67315, Note_on_c, 0, 60, 57
2, 67519, Note_on_c, 0, 52, 67
2, 67533, Note_on_c, 0, 60, 0
2, 67535, Note_on_c, 0, 61, 59
2, 67572, Note_on_c, 0, 54, 0
2, 67754, Note_on_c, 0, 63, 64
2, 67772, Note_on_c, 0, 61, 0
2, 67941, Note_on_c, 0, 51, 56
2, 67959, Note_on_c, 0, 63, 0
2, 67968, Note_on_c, 0, 64, 60
2, 67980, Note_on_c, 0, 52, 0
2, 68167, Note_on_c, 0, 64, 0
2, 68176, Note_on_c, 0, 66, 59
2, 68397, Note_on_c, 0, 66, 0
2, 68402, Note_on_c, 0, 49, 44
2, 68402, Note_on_c, 0, 64, 56
2, 68498, Note_on_c, 0, 51, 0
2, 68646, Note_on_c, 0, 63, 59
2, 68667, Note_on_c, 0, 64, 0
2, 68855, Note_on_c, 0, 61, 66
2, 68867, Note_on_c, 0, 63, 0
2, 69067, Note_on_c, 0, 61, 0
2, 69069, Note_on_c, 0, 64, 74
2, 69292, Note_on_c, 0, 61, 65
2, 69324, Note_on_c, 0, 64, 0
2, 69508, Note_on_c, 0, 58, 60
2, 69510, Note_on_c, 0, 61, 0
2, 69744, Note_on_c, 0, 55, 65
2, 69797, Note_on_c, 0, 58, 0
2, 70002, Note_on_c, 0, 64, 57
2, 70249, Note_on_c, 0, 63, 57
2, 70254, Note_on_c, 0, 56, 54
2, 70271, Note_on_c, 0, 64, 0
2, 70305, Note_on_c, 0, 55, 0
2, 70514, Note_on_c, 0, 61, 60
2, 70551, Note_on_c, 0, 63, 0
2, 70809, Note_on_c, 0, 60, 50
2, 70809, Note_on_c, 0, 61, 0
2, 70812, Note_on_c, 0, 58, 42
2, 70889, Note_on_c, 0, 56, 0
2, 71191, Note_on_c, 0, 61, 46
2, 71277, Note_on_c, 0, 60, 0
2, 71876, Note_on_c, 0, 44, 36
2, 71877, Note_on_c, 0, 63, 40
2, 71893, Note_on_c, 0, 60, 30
2, 71914, Note_on_c, 0, 61, 0
2, 71971, Note_on_c, 0, 58, 0
2, 71992, Note_on_c, 0, 49, 0
2, 72992, Control_c, 0, 64, 27
2, 73007, Control_c, 0, 64, 37
2, 73022, Control_c, 0, 64, 42
2, 73038, Control_c, 0, 64, 46
2, 73052, Control_c, 0, 64, 50
2, 73068, Control_c, 0, 64, 54
2, 73083, Control_c, 0, 64, 56
2, 73098, Control_c, 0, 64, 58
2, 73114, Control_c, 0, 64, 60
2, 73128, Control_c, 0, 64, 61
2, 73143, Control_c, 0, 64, 63
2, 73159, Control_c, 0, 64, 65
2, 73173, Control_c, 0, 64, 66
2, 73189, Control_c, 0, 64, 68
2, 73204, Control_c, 0, 64, 70
2, 73219, Control_c, 0, 64, 72
2, 73235, Control_c, 0, 64, 74
2, 73249, Control_c, 0, 64, 76
2, 73264, Control_c, 0, 64, 78
2, 73280, Control_c, 0, 64, 80
2, 73294, Control_c, 0, 64, 81
2, 73310, Control_c, 0, 64, 81
2, 73341, Control_c, 0, 64, 82
2, 74750, Note_on_c, 0, 44, 0
2, 74777, Note_on_c, 0, 60, 0
2, 74821, Note_on_c, 0, 63, 0
2, 74832, Control_c, 0, 64, 81
2, 74877, Control_c, 0, 64, 81
2, 74908, Control_c, 0, 64, 80
2, 74937, Control_c, 0, 64, 80
2, 74968, Control_c, 0, 64, 79
2, 75031, Control_c, 0, 64, 79
2, 75098, Control_c, 0, 64, 78
2, 75174, Control_c, 0, 64, 78
2, 75236, Control_c, 0, 64, 77
2, 75265, Control_c, 0, 64, 77
2, 75311, Control_c, 0, 64, 76
2, 75341, Control_c, 0, 64, 76
2, 75371, Control_c, 0, 64, 75
2, 75402, Control_c, 0, 64, 75
2, 75423, Note_on_c, 0, 68, 0
2, 75447, Control_c, 0, 64, 74
2, 75478, Control_c, 0, 64, 74
2, 75523, Control_c, 0, 64, 73
2, 75554, Control_c, 0, 64, 73
2, 75600, Control_c, 0, 64, 72
2, 75630, Control_c, 0, 64, 72
2, 75660, Control_c, 0, 64, 71
2, 75691, Control_c, 0, 64, 71
2, 75705, Control_c, 0, 64, 70
2, 75736, Control_c, 0, 64, 70
2, 75767, Control_c, 0, 64, 69
2, 75781, Control_c, 0, 64, 69
2, 75797, Control_c, 0, 64, 68
2, 75813, Control_c, 0, 64, 68
2, 75844, Control_c, 0, 64, 67
2, 75866, Control_c, 0, 64, 66
2, 75882, Control_c, 0, 64, 65
2, 75896, Control_c, 0, 64, 65
2, 75912, Control_c, 0, 64, 64
2, 75927, Control_c, 0, 64, 64
2, 75942, Control_c, 0, 64, 63
2, 75958, Control_c, 0, 64, 63
2, 75972, Control_c, 0, 64, 62
2, 75988, Control_c, 0, 64, 61
2, 76004, Control_c, 0, 64, 61
2, 76018, Control_c, 0, 64, 60
2, 76034, Control_c, 0, 64, 60
2, 76064, Control_c, 0, 64, 59
2, 76080, Control_c, 0, 64, 59
2, 76095, Control_c, 0, 64, 58
2, 76111, Control_c, 0, 64, 56
2, 76126, Control_c, 0, 64, 56
2, 76140, Control_c, 0, 64, 55
2, 76156, Control_c, 0, 64, 54
2, 76171, Control_c, 0, 64, 53
2, 76186, Control_c, 0, 64, 52
2, 76202, Control_c, 0, 64, 52
2, 76216, Control_c, 0, 64, 51
2, 76232, Control_c, 0, 64, 50
2, 76247, Control_c, 0, 64, 49
2, 76261, Control_c, 0, 64, 47
2, 76277, Control_c, 0, 64, 45
2, 76292, Control_c, 0, 64, 42
2, 76308, Control_c, 0, 64, 35
2, 76323, Control_c, 0, 64, 21
2, 76337, Control_c, 0, 64, 0
2, 80152, Note_on_c, 0, 56, 69
2, 80963, Note_on_c, 0, 55, 72
2, 81038, Note_on_c, 0, 56, 0
2, 81400, Note_on_c, 0, 56, 70
2, 81430, Note_on_c, 0, 55, 0
2, 81598, Note_on_c, 0, 58, 77
2, 81632, Note_on_c, 0, 56, 0
2, 81801, Note_on_c, 0, 59, 74
2, 81843, Note_on_c, 0, 58, 0
2, 82205, Note_on_c, 0, 58, 76
2, 82248, Note_on_c, 0, 59, 0
2, 82624, Note_on_c, 0, 56, 77
2, 82635, Note_on_c, 0, 58, 0
2, 83040, Note_on_c, 0, 62, 79
2, 83083, Note_on_c, 0, 56, 0
2, 83442, Note_on_c, 0, 63, 80
2, 83462, Note_on_c, 0, 62, 0
2, 83857, Note_on_c, 0, 54, 76
2, 83885, Note_on_c, 0, 63, 0
2, 84252, Note_on_c, 0, 56, 76
2, 84276, Note_on_c, 0, 54, 0
2, 84431, Note_on_c, 0, 56, 0
2, 84644, Note_on_c, 0, 56, 77
2, 84800, Note_on_c, 0, 56, 0
2, 85051, Note_on_c, 0, 58, 70
2, 85200, Note_on_c, 0, 58, 0
2, 85461, Note_on_c, 0, 58, 70
2, 85574, Note_on_c, 0, 58, 0
2, 85841, Note_on_c, 0, 51, 57
2, 86241, Note_on_c, 0, 53, 60
2, 86265, Note_on_c, 0, 51, 0
2, 86663, Note_on_c, 0, 63, 79
2, 86666, Note_on_c, 0, 54, 50
2, 86696, Note_on_c, 0, 53, 0
2, 87420, Note_on_c, 0, 60, 75
2, 87429, Note_on_c, 0, 63, 0
2, 87818, Note_on_c, 0, 61, 73
2, 87826, Note_on_c, 0, 52, 54
2, 87833, Note_on_c, 0, 54, 0
2, 87845, Note_on_c, 0, 60, 0
2, 88004, Note_on_c, 0, 52, 0
2, 88008, Note_on_c, 0, 54, 56
2, 88011, Note_on_c, 0, 63, 80
2, 88028, Note_on_c, 0, 61, 0
2, 88205, Note_on_c, 0, 56, 58
2, 88213, Note_on_c, 0, 64, 84
2, 88229, Note_on_c, 0, 63, 0
2, 88257, Note_on_c, 0, 54, 0
2, 88604, Note_on_c, 0, 63, 81
2, 88610, Note_on_c, 0, 55, 58
2, 88621, Note_on_c, 0, 56, 0
2, 88627, Note_on_c, 0, 64, 0
2, 88799, Note_on_c, 0, 56, 63
2, 88808, Note_on_c, 0, 55, 0
2, 88998, Note_on_c, 0, 63, 0
2, 89001, Note_on_c, 0, 61, 82
2, 89007, Note_on_c, 0, 58, 66
2, 89051, Note_on_c, 0, 56, 0
2, 89403, Note_on_c, 0, 67, 85
2, 89409, Note_on_c, 0, 56, 60
2, 89419, Note_on_c, 0, 58, 0
2, 89428, Note_on_c, 0, 61, 0
2, 89592, Note_on_c, 0, 56, 0
2, 89592, Note_on_c, 0, 58, 65
2, 89801, Note_on_c, 0, 59, 57
2, 89802, Note_on_c, 0, 68, 85
2, 89812, Note_on_c, 0, 58, 0
2, 89821, Note_on_c, 0, 67, 0
2, 90095, Note_on_c, 0, 59, 0
2, 90174, Note_on_c, 0, 68, 0
2, 90184, Note_on_c, 0, 56, 56
2, 90192, Note_on_c, 0, 59, 77
2, 90587, Note_on_c, 0, 58, 51
2, 90600, Note_on_c, 0, 56, 0
2, 90601, Note_on_c, 0, 61, 71
2, 90609, Note_on_c, 0, 59, 0
2, 90772, Note_on_c, 0, 61, 0
2, 90928, Note_on_c, 0, 58, 0
2, 90977, Note_on_c, 0, 61, 69
2, 91147, Note_on_c, 0, 61, 0
2, 91373, Note_on_c, 0, 55, 52
2, 91382, Note_on_c, 0, 63, 61
2, 91551, Note_on_c, 0, 63, 0
2, 91784, Note_on_c, 0, 63, 60
2, 91830, Note_on_c, 0, 55, 0
2, 91930, Note_on_c, 0, 63, 0
2, 92181, Note_on_c, 0, 56, 60
2, 92555, Note_on_c, 0, 54, 57
2, 92969, Note_on_c, 0, 52, 56
2, 92970, Note_on_c, 0, 68, 86
2, 92983, Note_on_c, 0, 54, 0
2, 92987, Note_on_c, 0, 61, 72
2, 93014, Note_on_c, 0, 56, 0
2, 93736, Note_on_c, 0, 67, 79
2, 93740, Note_on_c, 0, 68, 0
2, 93748, Note_on_c, 0, 51, 62
2, 93749, Note_on_c, 0, 52, 0
2, 94122, Note_on_c, 0, 68, 75
2, 94124, Note_on_c, 0, 56, 55
2, 94124, Note_on_c, 0, 61, 0
2, 94126, Note_on_c, 0, 67, 0
2, 94127, Note_on_c, 0, 59, 54
2, 94167, Note_on_c, 0, 51, 0
2, 94323, Note_on_c, 0, 59, 0
2, 94323, Note_on_c, 0, 70, 83
2, 94329, Note_on_c, 0, 61, 74
2, 94331, Note_on_c, 0, 68, 0
2, 94522, Note_on_c, 0, 71, 88
2, 94523, Note_on_c, 0, 70, 0
2, 94583, Note_on_c, 0, 61, 0
2, 94881, Note_on_c, 0, 58, 63
2, 94886, Note_on_c, 0, 70, 81
2, 94892, Note_on_c, 0, 62, 66
2, 94908, Note_on_c, 0, 71, 0
2, 94958, Note_on_c, 0, 56, 0
2, 95094, Note_on_c, 0, 63, 65
2, 95099, Note_on_c, 0, 62, 0
2, 95296, Note_on_c, 0, 59, 73
2, 95298, Note_on_c, 0, 68, 83
2, 95302, Note_on_c, 0, 65, 71
2, 95310, Note_on_c, 0, 63, 0
2, 95315, Note_on_c, 0, 70, 0
2, 95322, Note_on_c, 0, 58, 0
2, 95689, Note_on_c, 0, 74, 85
2, 95691, Note_on_c, 0, 63, 78
2, 95701, Note_on_c, 0, 65, 0
2, 95717, Note_on_c, 0, 68, 0
2, 95884, Note_on_c, 0, 65, 80
2, 95920, Note_on_c, 0, 63, 0
2, 96076, Note_on_c, 0, 75, 84
2, 96077, Note_on_c, 0, 58, 61
2, 96082, Note_on_c, 0, 65, 0
2, 96085, Note_on_c, 0, 66, 72
2, 96102, Note_on_c, 0, 74, 0
2, 96110, Note_on_c, 0, 59, 0
2, 96378, Note_on_c, 0, 66, 0
2, 96468, Note_on_c, 0, 66, 77
2, 96472, Note_on_c, 0, 63, 70
2, 96478, Note_on_c, 0, 75, 0
2, 96855, Note_on_c, 0, 65, 63
2, 96857, Note_on_c, 0, 56, 65
2, 96859, Note_on_c, 0, 68, 72
2, 96868, Note_on_c, 0, 66, 0
2, 96872, Note_on_c, 0, 63, 0
2, 96889, Note_on_c, 0, 58, 0
2, 97029, Note_on_c, 0, 68, 0
2, 97253, Note_on_c, 0, 68, 72
2, 97400, Note_on_c, 0, 68, 0
2, 97408, Note_on_c, 0, 65, 0
2, 97629, Note_on_c, 0, 70, 70
2, 97637, Note_on_c, 0, 62, 59
2, 97843, Note_on_c, 0, 70, 0
2, 98038, Note_on_c, 0, 70, 65
2, 98168, Note_on_c, 0, 70, 0
2, 98175, Note_on_c, 0, 62, 0
2, 98407, Note_on_c, 0, 63, 64
2, 98805, Note_on_c, 0, 54, 56
2, 98805, Note_on_c, 0, 65, 62
2, 98814, Note_on_c, 0, 56, 0
2, 98961, Note_on_c, 0, 54, 0
2, 98973, Note_on_c, 0, 56, 62
2, 99172, Note_on_c, 0, 56, 0
2, 99175, Note_on_c, 0, 51, 78
2, 99194, Note_on_c, 0, 66, 74
2, 99196, Note_on_c, 0, 58, 61
2, 99207, Note_on_c, 0, 63, 0
2, 99218, Note_on_c, 0, 65, 0
2, 99520, Note_on_c, 0, 58, 0
2, 99581, Note_on_c, 0, 54, 56
2, 99596, Note_on_c, 0, 58, 49
2, 99882, Note_on_c, 0, 51, 0
2, 99977, Note_on_c, 0, 58, 0
2, 99985, Note_on_c, 0, 48, 70
2, 99992, Note_on_c, 0, 56, 66
2, 100009, Note_on_c, 0, 51, 59
2, 100032, Note_on_c, 0, 54, 0
2, 100360, Note_on_c, 0, 48, 0
2, 100366, Note_on_c, 0, 49, 62
2, 100376, Note_on_c, 0, 52, 71
2, 100380, Note_on_c, 0, 64, 70
2, 100382, Note_on_c, 0, 66, 0
2, 100389, Note_on_c, 0, 51, 0
2, 100399, Note_on_c, 0, 56, 0
2, 100544, Note_on_c, 0, 51, 78
2, 100566, Note_on_c, 0, 52, 0
2, 100570, Note_on_c, 0, 66, 67
2, 100584, Note_on_c, 0, 49, 0
2, 100596, Note_on_c, 0, 64, 0
2, 100759, Note_on_c, 0, 52, 81
2, 100766, Note_on_c, 0, 68, 79
2, 100771, Note_on_c, 0, 66, 0
2, 100786, Note_on_c, 0, 51, 0
2, 101130, Note_on_c, 0, 51, 79
2, 101137, Note_on_c, 0, 59, 75
2, 101143, Note_on_c, 0, 52, 0
2, 101145, Note_on_c, 0, 67, 78
2, 101151, Note_on_c, 0, 63, 70
2, 101171, Note_on_c, 0, 68, 0
2, 101330, Note_on_c, 0, 68, 76
2, 101361, Note_on_c, 0, 67, 0
2, 101408, Note_on_c, 0, 59, 0
2, 101527, Note_on_c, 0, 51, 0
2, 101529, Note_on_c, 0, 64, 74
2, 101529, Note_on_c, 0, 70, 86
2, 101530, Note_on_c, 0, 49, 74
2, 101530, Note_on_c, 0, 61, 83
2, 101538, Note_on_c, 0, 68, 0
2, 101549, Note_on_c, 0, 63, 0
2, 101898, Note_on_c, 0, 55, 84
2, 101902, Note_on_c, 0, 64, 0
2, 101920, Note_on_c, 0, 68, 71
2, 101923, Note_on_c, 0, 63, 60
2, 101931, Note_on_c, 0, 49, 0
2, 101951, Note_on_c, 0, 70, 0
2, 102097, Note_on_c, 0, 70, 70
2, 102137, Note_on_c, 0, 68, 0
2, 102292, Note_on_c, 0, 56, 82
2, 102302, Note_on_c, 0, 55, 0
2, 102305, Note_on_c, 0, 71, 82
2, 102310, Note_on_c, 0, 63, 0
2, 102318, Note_on_c, 0, 70, 0
2, 102320, Note_on_c, 0, 61, 0
2, 102676, Note_on_c, 0, 47, 70
2, 102691, Note_on_c, 0, 68, 80
2, 102698, Note_on_c, 0, 63, 67
2, 102702, Note_on_c, 0, 56, 0
2, 102714, Note_on_c, 0, 71, 0
2, 103006, Note_on_c, 0, 63, 0
2, 103056, Note_on_c, 0, 47, 0
2, 103056, Note_on_c, 0, 49, 68
2, 103082, Note_on_c, 0, 70, 76
2, 103084, Note_on_c, 0, 68, 0
2, 103091, Note_on_c, 0, 61, 62
2, 103096, Note_on_c, 0, 64, 66
2, 103222, Note_on_c, 0, 49, 0
2, 103409, Note_on_c, 0, 61, 0
2, 103409, Note_on_c, 0, 70, 0
2, 103433, Note_on_c, 0, 49, 72
2, 103436, Note_on_c, 0, 64, 0
2, 103605, Note_on_c, 0, 49, 0
2, 103820, Note_on_c, 0, 67, 65
2, 103821, Note_on_c, 0, 51, 64
2, 103833, Note_on_c, 0, 63, 51
2, 103834, Note_on_c, 0, 58, 47
2, 103981, Note_on_c, 0, 51, 0
2, 104196, Note_on_c, 0, 51, 66
2, 104255, Note_on_c, 0, 63, 0
2, 104257, Note_on_c, 0, 58, 0
2, 104279, Note_on_c, 0, 67, 0
2, 104351, Note_on_c, 0, 51, 0
2, 104579, Note_on_c, 0, 68, 59
2, 104590, Note_on_c, 0, 63, 50
2, 104592, Note_on_c, 0, 59, 49
2, 104593, Note_on_c, 0, 44, 47
2, 104975, Note_on_c, 0, 70, 73
2, 105006, Note_on_c, 0, 68, 0
2, 105364, Note_on_c, 0, 71, 82
2, 105370, Note_on_c, 0, 63, 0
2, 105382, Note_on_c, 0, 44, 0
2, 105391, Note_on_c, 0, 70, 0
2, 105396, Note_on_c, 0, 59, 0
2, 105725, Note_on_c, 0, 51, 74
2, 105751, Note_on_c, 0, 59, 62
2, 105769, Note_on_c, 0, 66, 56
2, 105887, Note_on_c, 0, 59, 0
2, 106120, Note_on_c, 0, 52, 74
2, 106123, Note_on_c, 0, 73, 87
2, 106125, Note_on_c, 0, 68, 68
2, 106130, Note_on_c, 0, 64, 72
2, 106131, Note_on_c, 0, 51, 0
2, 106133, Note_on_c, 0, 66, 0
2, 106146, Note_on_c, 0, 71, 0
2, 106322, Note_on_c, 0, 52, 0
2, 106436, Note_on_c, 0, 64, 0
2, 106492, Note_on_c, 0, 52, 81
2, 106501, Note_on_c, 0, 73, 0
2, 106510, Note_on_c, 0, 68, 0
2, 106676, Note_on_c, 0, 52, 0
2, 106872, Note_on_c, 0, 54, 80
2, 106884, Note_on_c, 0, 70, 88
2, 106893, Note_on_c, 0, 61, 74
2, 106893, Note_on_c, 0, 66, 77
2, 107034, Note_on_c, 0, 54, 0
2, 107241, Note_on_c, 0, 54, 88
2, 107252, Note_on_c, 0, 61, 0
2, 107296, Note_on_c, 0, 66, 0
2, 107322, Note_on_c, 0, 70, 0
2, 107414, Note_on_c, 0, 54, 0
2, 107632, Note_on_c, 0, 71, 80
2, 107637, Note_on_c, 0, 47, 71
2, 107638, Note_on_c, 0, 63, 76
2, 107641, Note_on_c, 0, 66, 77
2, 108006, Note_on_c, 0, 75, 84
2, 108024, Note_on_c, 0, 71, 0
2, 108187, Note_on_c, 0, 74, 78
2, 108230, Note_on_c, 0, 75, 0
2, 108391, Note_on_c, 0, 75, 90
2, 108400, Note_on_c, 0, 66, 0
2, 108410, Note_on_c, 0, 47, 0
2, 108418, Note_on_c, 0, 63, 0
2, 108429, Note_on_c, 0, 74, 0
2, 108764, Note_on_c, 0, 54, 87
2, 108779, Note_on_c, 0, 63, 66
2, 108780, Note_on_c, 0, 70, 55
2, 108906, Note_on_c, 0, 63, 0
2, 108925, Note_on_c, 0, 70, 0
2, 109111, Note_on_c, 0, 75, 0
2, 109139, Note_on_c, 0, 56, 83
2, 109151, Note_on_c, 0, 54, 0
2, 109154, Note_on_c, 0, 77, 94
2, 109164, Note_on_c, 0, 68, 80
2, 109166, Note_on_c, 0, 71, 80
2, 109277, Note_on_c, 0, 56, 0
2, 109521, Note_on_c, 0, 56, 88
2, 109532, Note_on_c, 0, 71, 0
2, 109537, Note_on_c, 0, 68, 0
2, 109569, Note_on_c, 0, 77, 0
2, 109688, Note_on_c, 0, 56, 0
2, 109899, Note_on_c, 0, 58, 88
2, 109914, Note_on_c, 0, 74, 93
2, 109924, Note_on_c, 0, 65, 77
2, 109926, Note_on_c, 0, 70, 80
2, 110036, Note_on_c, 0, 58, 0
2, 110277, Note_on_c, 0, 58, 87
2, 110399, Note_on_c, 0, 58, 0
2, 110417, Note_on_c, 0, 65, 0
2, 110442, Note_on_c, 0, 70, 0
2, 110448, Note_on_c, 0, 74, 0
2, 110672, Note_on_c, 0, 63, 88
2, 110677, Note_on_c, 0, 75, 84
2, 110679, Note_on_c, 0, 66, 80
2, 110682, Note_on_c, 0, 51, 77
2, 110940, Note_on_c, 0, 66, 0
2, 111068, Note_on_c, 0, 77, 89
2, 111072, Note_on_c, 0, 68, 88
2, 111084, Note_on_c, 0, 51, 0
2, 111097, Note_on_c, 0, 75, 0
2, 111117, Note_on_c, 0, 63, 0
2, 111449, Note_on_c, 0, 63, 91
2, 111484, Note_on_c, 0, 78, 78
2, 111491, Note_on_c, 0, 70, 68
2, 111505, Note_on_c, 0, 68, 0
2, 111506, Note_on_c, 0, 77, 0
2, 111839, Note_on_c, 0, 71, 72
2, 111842, Note_on_c, 0, 70, 0
2, 112026, Note_on_c, 0, 71, 0
2, 112048, Note_on_c, 0, 70, 66
2, 112230, Note_on_c, 0, 60, 81
2, 112234, Note_on_c, 0, 70, 0
2, 112252, Note_on_c, 0, 68, 65
2, 112255, Note_on_c, 0, 63, 0
2, 112600, Note_on_c, 0, 76, 78
2, 112601, Note_on_c, 0, 61, 82
2, 112614, Note_on_c, 0, 73, 71
2, 112624, Note_on_c, 0, 78, 0
2, 112628, Note_on_c, 0, 60, 0
2, 112631, Note_on_c, 0, 68, 0
2, 112791, Note_on_c, 0, 63, 83
2, 112799, Note_on_c, 0, 78, 83
2, 112806, Note_on_c, 0, 76, 0
2, 112807, Note_on_c, 0, 61, 0
2, 112996, Note_on_c, 0, 64, 91
2, 112998, Note_on_c, 0, 80, 84
2, 113004, Note_on_c, 0, 78, 0
2, 113005, Note_on_c, 0, 63, 0
2, 113362, Note_on_c, 0, 63, 87
2, 113383, Note_on_c, 0, 75, 84
2, 113386, Note_on_c, 0, 64, 0
2, 113386, Note_on_c, 0, 79, 75
2, 113391, Note_on_c, 0, 80, 0
2, 113396, Note_on_c, 0, 73, 0
2, 113568, Note_on_c, 0, 80, 82
2, 113582, Note_on_c, 0, 79, 0
2, 113754, Note_on_c, 0, 61, 84
2, 113758, Note_on_c, 0, 63, 0
2, 113759, Note_on_c, 0, 82, 88
2, 113770, Note_on_c, 0, 76, 76
2, 113777, Note_on_c, 0, 80, 0
2, 113791, Note_on_c, 0, 75, 0
2, 114132, Note_on_c, 0, 67, 86
2, 114147, Note_on_c, 0, 80, 85
2, 114180, Note_on_c, 0, 82, 0
2, 114207, Note_on_c, 0, 61, 0
2, 114329, Note_on_c, 0, 82, 86
2, 114359, Note_on_c, 0, 80, 0
2, 114517, Note_on_c, 0, 83, 88
2, 114525, Note_on_c, 0, 68, 85
2, 114527, Note_on_c, 0, 76, 0
2, 114540, Note_on_c, 0, 75, 69
2, 114546, Note_on_c, 0, 82, 0
2, 114550, Note_on_c, 0, 67, 0
2, 114902, Note_on_c, 0, 59, 67
2, 114903, Note_on_c, 0, 80, 82
2, 114913, Note_on_c, 0, 83, 0
2, 114924, Note_on_c, 0, 68, 0
2, 115282, Note_on_c, 0, 61, 67
2, 115288, Note_on_c, 0, 82, 84
2, 115293, Note_on_c, 0, 75, 0
2, 115300, Note_on_c, 0, 73, 66
2, 115300, Note_on_c, 0, 80, 0
2, 115306, Note_on_c, 0, 59, 0
2, 115471, Note_on_c, 0, 61, 0
2, 115661, Note_on_c, 0, 61, 72
2, 115741, Note_on_c, 0, 82, 0
2, 115823, Note_on_c, 0, 61, 0
2, 116030, Note_on_c, 0, 63, 67
2, 116033, Note_on_c, 0, 79, 82
2, 116214, Note_on_c, 0, 63, 0
2, 116413, Note_on_c, 0, 63, 77
2, 116582, Note_on_c, 0, 63, 0
2, 116589, Note_on_c, 0, 79, 0
2, 116807, Note_on_c, 0, 56, 56
2, 116817, Note_on_c, 0, 80, 70
2, 117196, Note_on_c, 0, 78, 75
2, 117228, Note_on_c, 0, 80, 0
2, 117388, Note_on_c, 0, 76, 80
2, 117408, Note_on_c, 0, 73, 0
2, 117429, Note_on_c, 0, 78, 0
2, 117582, Note_on_c, 0, 75, 81
2, 117587, Note_on_c, 0, 71, 69
2, 117590, Note_on_c, 0, 56, 0
2, 117593, Note_on_c, 0, 76, 0
2, 117934, Note_on_c, 0, 56, 60
2, 117940, Note_on_c, 0, 76, 70
2, 117947, Note_on_c, 0, 75, 0
2, 118128, Note_on_c, 0, 71, 0
2, 118128, Note_on_c, 0, 71, 6
2, 118327, Note_on_c, 0, 71, 0
2, 118330, Note_on_c, 0, 57, 46
2, 118333, Note_on_c, 0, 78, 69
2, 118335, Note_on_c, 0, 76, 0
2, 118341, Note_on_c, 0, 69, 57
2, 118351, Note_on_c, 0, 56, 0
2, 118533, Note_on_c, 0, 57, 0
2, 118709, Note_on_c, 0, 57, 63
2, 118786, Note_on_c, 0, 78, 0
2, 118898, Note_on_c, 0, 57, 0
2, 119104, Note_on_c, 0, 75, 68
2, 119107, Note_on_c, 0, 59, 58
2, 119305, Note_on_c, 0, 59, 0
2, 119484, Note_on_c, 0, 59, 65
2, 119657, Note_on_c, 0, 59, 0
2, 119676, Note_on_c, 0, 75, 0
2, 119877, Note_on_c, 0, 52, 32
2, 119883, Note_on_c, 0, 76, 61
2, 119954, Note_on_c, 0, 52, 0
2, 119954, Note_on_c, 0, 52, 3
2, 120256, Note_on_c, 0, 75, 68
2, 120295, Note_on_c, 0, 76, 0
2, 120448, Note_on_c, 0, 73, 79
2, 120460, Note_on_c, 0, 69, 0
2, 120476, Note_on_c, 0, 75, 0
2, 120637, Note_on_c, 0, 72, 75
2, 120639, Note_on_c, 0, 52, 0
2, 120646, Note_on_c, 0, 68, 60
2, 120655, Note_on_c, 0, 73, 0
2, 121000, Note_on_c, 0, 52, 50
2, 121002, Note_on_c, 0, 72, 0
2, 121006, Note_on_c, 0, 73, 77
2, 121384, Note_on_c, 0, 54, 51
2, 121397, Note_on_c, 0, 75, 64
2, 121406, Note_on_c, 0, 66, 50
2, 121410, Note_on_c, 0, 52, 0
2, 121410, Note_on_c, 0, 68, 0
2, 121433, Note_on_c, 0, 73, 0
2, 121544, Note_on_c, 0, 54, 0
2, 121742, Note_on_c, 0, 54, 73
2, 121847, Note_on_c, 0, 75, 0
2, 121917, Note_on_c, 0, 54, 0
2, 122133, Note_on_c, 0, 56, 60
2, 122145, Note_on_c, 0, 72, 68
2, 122321, Note_on_c, 0, 56, 0
2, 122511, Note_on_c, 0, 56, 65
2, 122660, Note_on_c, 0, 72, 0
2, 122679, Note_on_c, 0, 56, 0
2, 122903, Note_on_c, 0, 49, 45
2, 122904, Note_on_c, 0, 73, 64
2, 123260, Note_on_c, 0, 66, 0
2, 123267, Note_on_c, 0, 51, 51
2, 123284, Note_on_c, 0, 64, 48
2, 123310, Note_on_c, 0, 49, 0
2, 123456, Note_on_c, 0, 64, 0
2, 123477, Note_on_c, 0, 66, 49
2, 123649, Note_on_c, 0, 49, 70
2, 123656, Note_on_c, 0, 51, 0
2, 123662, Note_on_c, 0, 52, 59
2, 123662, Note_on_c, 0, 66, 0
2, 123670, Note_on_c, 0, 68, 68
2, 124026, Note_on_c, 0, 54, 68
2, 124034, Note_on_c, 0, 66, 50
2, 124036, Note_on_c, 0, 52, 0
2, 124044, Note_on_c, 0, 68, 0
2, 124171, Note_on_c, 0, 66, 0
2, 124225, Note_on_c, 0, 64, 50
2, 124384, Note_on_c, 0, 49, 0
2, 124389, Note_on_c, 0, 48, 72
2, 124405, Note_on_c, 0, 54, 0
2, 124414, Note_on_c, 0, 56, 61
2, 124420, Note_on_c, 0, 63, 57
2, 124423, Note_on_c, 0, 64, 0
2, 124446, Note_on_c, 0, 73, 0
2, 124767, Note_on_c, 0, 73, 80
2, 124770, Note_on_c, 0, 63, 0
2, 124772, Note_on_c, 0, 49, 71
2, 124779, Note_on_c, 0, 64, 64
2, 124797, Note_on_c, 0, 48, 0
2, 124948, Note_on_c, 0, 66, 76
2, 124955, Note_on_c, 0, 51, 76
2, 124960, Note_on_c, 0, 64, 0
2, 124977, Note_on_c, 0, 49, 0
2, 125146, Note_on_c, 0, 68, 70
2, 125147, Note_on_c, 0, 52, 80
2, 125152, Note_on_c, 0, 51, 0
2, 125192, Note_on_c, 0, 66, 0
2, 125383, Note_on_c, 0, 56, 0
2, 125533, Note_on_c, 0, 51, 75
2, 125533, Note_on_c, 0, 75, 81
2, 125541, Note_on_c, 0, 59, 73
2, 125542, Note_on_c, 0, 52, 0
2, 125545, Note_on_c, 0, 67, 67
2, 125545, Note_on_c, 0, 68, 0
2, 125554, Note_on_c, 0, 73, 0
2, 125722, Note_on_c, 0, 68, 56
2, 125817, Note_on_c, 0, 59, 0
2, 125875, Note_on_c, 0, 75, 0
2, 125904, Note_on_c, 0, 51, 0
2, 125918, Note_on_c, 0, 49, 71
2, 125924, Note_on_c, 0, 61, 80
2, 125924, Note_on_c, 0, 76, 79
2, 125930, Note_on_c, 0, 70, 70
2, 125935, Note_on_c, 0, 67, 0
2, 125939, Note_on_c, 0, 68, 0
2, 126295, Note_on_c, 0, 55, 84
2, 126315, Note_on_c, 0, 70, 0
2, 126343, Note_on_c, 0, 68, 52
2, 126353, Note_on_c, 0, 49, 0
2, 126481, Note_on_c, 0, 76, 0
2, 126487, Note_on_c, 0, 70, 51
2, 126658, Note_on_c, 0, 61, 0
2, 126685, Note_on_c, 0, 55, 0
2, 126685, Note_on_c, 0, 75, 85
2, 126690, Note_on_c, 0, 70, 0
2, 126691, Note_on_c, 0, 71, 68
2, 126696, Note_on_c, 0, 68, 0
2, 126697, Note_on_c, 0, 56, 67
2, 126709, Note_on_c, 0, 59, 72
2, 127055, Note_on_c, 0, 47, 67
2, 127067, Note_on_c, 0, 56, 0
2, 127068, Note_on_c, 0, 63, 54
2, 127077, Note_on_c, 0, 68, 52
2, 127080, Note_on_c, 0, 71, 0
2, 127211, Note_on_c, 0, 63, 0
2, 127220, Note_on_c, 0, 75, 0
2, 127444, Note_on_c, 0, 47, 0
2, 127444, Note_on_c, 0, 68, 0
2, 127448, Note_on_c, 0, 49, 64
2, 127448, Note_on_c, 0, 70, 67
2, 127448, Note_on_c, 0, 73, 72
2, 127469, Note_on_c, 0, 64, 53
2, 127479, Note_on_c, 0, 59, 0
2, 127614, Note_on_c, 0, 49, 0
2, 127817, Note_on_c, 0, 49, 69
2, 127888, Note_on_c, 0, 64, 0
2, 127979, Note_on_c, 0, 49, 0
2, 128171, Note_on_c, 0, 70, 0
2, 128199, Note_on_c, 0, 51, 62
2, 128202, Note_on_c, 0, 63, 52
2, 128204, Note_on_c, 0, 67, 55
2, 128359, Note_on_c, 0, 51, 0
2, 128586, Note_on_c, 0, 51, 66
2, 128728, Note_on_c, 0, 51, 0
2, 128745, Note_on_c, 0, 63, 0
2, 128765, Note_on_c, 0, 67, 0
2, 128958, Note_on_c, 0, 44, 54
2, 128966, Note_on_c, 0, 73, 0
2, 128985, Note_on_c, 0, 63, 49
2, 128987, Note_on_c, 0, 68, 50
2, 129091, Note_on_c, 0, 68, 0
2, 129105, Note_on_c, 0, 63, 0
2, 129341, Note_on_c, 0, 46, 62
2, 129342, Note_on_c, 0, 79, 78
2, 129390, Note_on_c, 0, 44, 0
2, 129715, Note_on_c, 0, 56, 84
2, 129741, Note_on_c, 0, 47, 57
2, 129752, Note_on_c, 0, 80, 72
2, 129753, Note_on_c, 0, 46, 0
2, 129757, Note_on_c, 0, 79, 0
2, 130110, Note_on_c, 0, 49, 67
2, 130111, Note_on_c, 0, 47, 0
2, 130115, Note_on_c, 0, 71, 62
2, 130480, Note_on_c, 0, 56, 0
2, 130486, Note_on_c, 0, 51, 68
2, 130491, Note_on_c, 0, 49, 0
2, 130492, Note_on_c, 0, 71, 0
2, 130498, Note_on_c, 0, 70, 75
2, 130500, Note_on_c, 0, 55, 74
2, 130880, Note_on_c, 0, 56, 78
2, 130883, Note_on_c, 0, 79, 80
2, 130906, Note_on_c, 0, 55, 0
2, 130923, Note_on_c, 0, 70, 0
2, 130932, Note_on_c, 0, 80, 0
2, 131057, Note_on_c, 0, 58, 82
2, 131096, Note_on_c, 0, 56, 0
2, 131268, Note_on_c, 0, 59, 86
2, 131270, Note_on_c, 0, 80, 79
2, 131271, Note_on_c, 0, 51, 0
2, 131275, Note_on_c, 0, 58, 0
2, 131303, Note_on_c, 0, 79, 0
2, 131637, Note_on_c, 0, 58, 86
2, 131651, Note_on_c, 0, 51, 71
2, 131663, Note_on_c, 0, 59, 0
2, 131674, Note_on_c, 0, 73, 68
2, 131685, Note_on_c, 0, 67, 54
2, 131767, Note_on_c, 0, 67, 0
2, 131896, Note_on_c, 0, 51, 0
2, 132025, Note_on_c, 0, 80, 0
2, 132032, Note_on_c, 0, 56, 81
2, 132042, Note_on_c, 0, 53, 72
2, 132043, Note_on_c, 0, 71, 70
2, 132044, Note_on_c, 0, 68, 63
2, 132049, Note_on_c, 0, 58, 0
2, 132068, Note_on_c, 0, 73, 0
2, 132406, Note_on_c, 0, 62, 87
2, 132419, Note_on_c, 0, 80, 77
2, 132459, Note_on_c, 0, 56, 0
2, 132576, Note_on_c, 0, 53, 0
2, 132783, Note_on_c, 0, 63, 82
2, 132791, Note_on_c, 0, 51, 65
2, 132805, Note_on_c, 0, 62, 0
2, 132805, Note_on_c, 0, 78, 76
2, 132818, Note_on_c, 0, 71, 0
2, 132846, Note_on_c, 0, 68, 0
2, 132991, Note_on_c, 0, 80, 0
2, 133170, Note_on_c, 0, 54, 82
2, 133174, Note_on_c, 0, 70, 63
2, 133175, Note_on_c, 0, 66, 54
2, 133191, Note_on_c, 0, 78, 0
2, 133201, Note_on_c, 0, 63, 0
2, 133374, Note_on_c, 0, 66, 0
2, 133562, Note_on_c, 0, 56, 71
2, 133570, Note_on_c, 0, 68, 71
2, 133574, Note_on_c, 0, 65, 61
2, 133575, Note_on_c, 0, 70, 0
2, 133584, Note_on_c, 0, 54, 0
2, 133794, Note_on_c, 0, 56, 0
2, 133934, Note_on_c, 0, 56, 61
2, 133944, Note_on_c, 0, 78, 81
2, 133965, Note_on_c, 0, 68, 0
2, 133995, Note_on_c, 0, 65, 0
2, 134095, Note_on_c, 0, 56, 0
2, 134305, Note_on_c, 0, 51, 0
2, 134320, Note_on_c, 0, 77, 74
2, 134326, Note_on_c, 0, 50, 62
2, 134332, Note_on_c, 0, 58, 64
2, 134381, Note_on_c, 0, 78, 0
2, 134507, Note_on_c, 0, 58, 0
2, 134662, Note_on_c, 0, 77, 0
2, 134687, Note_on_c, 0, 68, 62
2, 134691, Note_on_c, 0, 58, 70
2, 134701, Note_on_c, 0, 65, 53
2, 134789, Note_on_c, 0, 68, 0
2, 134848, Note_on_c, 0, 58, 0
2, 135096, Note_on_c, 0, 51, 54
2, 135097, Note_on_c, 0, 66, 55
2, 135133, Note_on_c, 0, 50, 0
2, 135469, Note_on_c, 0, 65, 0
2, 135479, Note_on_c, 0, 53, 51
2, 135488, Note_on_c, 0, 63, 57
2, 135514, Note_on_c, 0, 66, 0
2, 135644, Note_on_c, 0, 63, 0
2, 135659, Note_on_c, 0, 62, 61
2, 135760, Note_on_c, 0, 51, 0
2, 135856, Note_on_c, 0, 62, 0
2, 135858, Note_on_c, 0, 63, 82
2, 135875, Note_on_c, 0, 54, 63
2, 136009, Note_on_c, 0, 53, 0
2, 136053, Note_on_c, 0, 39, 51
2, 136074, Note_on_c, 0, 54, 0
2, 136111, Note_on_c, 0, 54, 4
2, 136237, Note_on_c, 0, 40, 60
2, 136258, Note_on_c, 0, 39, 0
2, 136452, Note_on_c, 0, 42, 66
2, 136455, Note_on_c, 0, 40, 0
2, 136638, Note_on_c, 0, 42, 0
2, 136641, Note_on_c, 0, 44, 64
2, 136643, Note_on_c, 0, 60, 82
2, 136651, Note_on_c, 0, 63, 0
2, 136872, Note_on_c, 0, 44, 0
2, 137013, Note_on_c, 0, 49, 60
2, 137016, Note_on_c, 0, 61, 75
2, 137018, Note_on_c, 0, 54, 0
2, 137018, Note_on_c, 0, 60, 0
2, 137025, Note_on_c, 0, 52, 55
2, 137187, Note_on_c, 0, 52, 0
2, 137200, Note_on_c, 0, 54, 63
2, 137209, Note_on_c, 0, 63, 81
2, 137217, Note_on_c, 0, 61, 0
2, 137398, Note_on_c, 0, 56, 66
2, 137406, Note_on_c, 0, 64, 87
2, 137410, Note_on_c, 0, 54, 0
2, 137412, Note_on_c, 0, 63, 0
2, 137649, Note_on_c, 0, 49, 0
2, 137780, Note_on_c, 0, 51, 53
2, 137780, Note_on_c, 0, 55, 59
2, 137780, Note_on_c, 0, 63, 83
2, 137789, Note_on_c, 0, 56, 0
2, 137799, Note_on_c, 0, 64, 0
2, 137949, Note_on_c, 0, 56, 64
2, 138043, Note_on_c, 0, 51, 0
2, 138043, Note_on_c, 0, 55, 0
2, 138157, Note_on_c, 0, 63, 0
2, 138160, Note_on_c, 0, 61, 83
2, 138166, Note_on_c, 0, 52, 52
2, 138166, Note_on_c, 0, 58, 60
2, 138172, Note_on_c, 0, 56, 0
2, 138538, Note_on_c, 0, 67, 84
2, 138542, Note_on_c, 0, 56, 59
2, 138543, Note_on_c, 0, 58, 0
2, 138563, Note_on_c, 0, 61, 0
2, 138702, Note_on_c, 0, 58, 59
2, 138713, Note_on_c, 0, 56, 0
2, 138758, Note_on_c, 0, 52, 0
2, 138931, Note_on_c, 0, 59, 58
2, 138932, Note_on_c, 0, 51, 56
2, 138932, Note_on_c, 0, 58, 0
2, 138932, Note_on_c, 0, 68, 85
2, 138945, Note_on_c, 0, 67, 0
2, 139135, Note_on_c, 0, 59, 0
2, 139307, Note_on_c, 0, 59, 74
2, 139310, Note_on_c, 0, 56, 62
2, 139315, Note_on_c, 0, 68, 0
2, 139544, Note_on_c, 0, 51, 0
2, 139673, Note_on_c, 0, 56, 0
2, 139686, Note_on_c, 0, 58, 53
2, 139689, Note_on_c, 0, 61, 72
2, 139697, Note_on_c, 0, 49, 46
2, 139697, Note_on_c, 0, 59, 0
2, 139849, Note_on_c, 0, 61, 0
2, 140062, Note_on_c, 0, 61, 69
2, 140219, Note_on_c, 0, 61, 0
2, 140279, Note_on_c, 0, 58, 0
2, 140435, Note_on_c, 0, 55, 52
2, 140440, Note_on_c, 0, 63, 59
2, 140593, Note_on_c, 0, 63, 0
2, 140822, Note_on_c, 0, 63, 63
2, 140951, Note_on_c, 0, 63, 0
2, 141055, Note_on_c, 0, 55, 0
2, 141213, Note_on_c, 0, 56, 49
2, 141577, Note_on_c, 0, 67, 57
2, 141578, Note_on_c, 0, 47, 46
2, 141585, Note_on_c, 0, 49, 0
2, 141740, Note_on_c, 0, 47, 0
2, 141748, Note_on_c, 0, 46, 53
2, 141953, Note_on_c, 0, 47, 52
2, 141957, Note_on_c, 0, 46, 0
2, 141960, Note_on_c, 0, 68, 66
2, 141968, Note_on_c, 0, 67, 0
2, 142108, Note_on_c, 0, 47, 0
2, 142113, Note_on_c, 0, 44, 55
2, 142314, Note_on_c, 0, 59, 64
2, 142318, Note_on_c, 0, 50, 63
2, 142337, Note_on_c, 0, 44, 0
2, 142340, Note_on_c, 0, 56, 0
2, 142685, Note_on_c, 0, 51, 69
2, 142693, Note_on_c, 0, 59, 0
2, 142714, Note_on_c, 0, 58, 56
2, 142726, Note_on_c, 0, 50, 0
2, 143045, Note_on_c, 0, 56, 65
2, 143052, Note_on_c, 0, 58, 0
2, 143059, Note_on_c, 0, 66, 65
2, 143222, Note_on_c, 0, 65, 71
2, 143226, Note_on_c, 0, 68, 0
2, 143258, Note_on_c, 0, 66, 0
2, 143410, Note_on_c, 0, 58, 78
2, 143413, Note_on_c, 0, 56, 0
2, 143418, Note_on_c, 0, 66, 78
2, 143426, Note_on_c, 0, 65, 0
2, 143593, Note_on_c, 0, 66, 0
2, 143595, Note_on_c, 0, 63, 78
2, 143797, Note_on_c, 0, 63, 0
2, 143797, Note_on_c, 0, 69, 85
2, 143803, Note_on_c, 0, 60, 75
2, 143817, Note_on_c, 0, 58, 0
2, 144168, Note_on_c, 0, 70, 79
2, 144171, Note_on_c, 0, 53, 67
2, 144194, Note_on_c, 0, 69, 0
2, 144304, Note_on_c, 0, 51, 0
2, 144557, Note_on_c, 0, 63, 63
2, 144558, Note_on_c, 0, 49, 64
2, 144590, Note_on_c, 0, 53, 0
2, 144595, Note_on_c, 0, 60, 0
2, 144738, Note_on_c, 0, 48, 73
2, 144756, Note_on_c, 0, 49, 0
2, 144924, Note_on_c, 0, 49, 74
2, 144937, Note_on_c, 0, 48, 0
2, 144937, Note_on_c, 0, 65, 75
2, 144976, Note_on_c, 0, 63, 0
2, 145112, Note_on_c, 0, 46, 76
2, 145119, Note_on_c, 0, 49, 0
2, 145310, Note_on_c, 0, 52, 85
2, 145311, Note_on_c, 0, 46, 0
2, 145321, Note_on_c, 0, 67, 74
2, 145337, Note_on_c, 0, 65, 0
2, 145686, Note_on_c, 0, 53, 87
2, 145697, Note_on_c, 0, 67, 0
2, 145706, Note_on_c, 0, 60, 70
2, 145711, Note_on_c, 0, 52, 0
2, 146073, Note_on_c, 0, 69, 79
2, 146075, Note_on_c, 0, 58, 78
2, 146097, Note_on_c, 0, 60, 0
2, 146097, Note_on_c, 0, 70, 0
2, 146250, Note_on_c, 0, 69, 0
2, 146256, Note_on_c, 0, 67, 82
2, 146441, Note_on_c, 0, 58, 0
2, 146442, Note_on_c, 0, 60, 86
2, 146445, Note_on_c, 0, 69, 86
2, 146448, Note_on_c, 0, 67, 0
2, 146624, Note_on_c, 0, 65, 84
2, 146628, Note_on_c, 0, 69, 0
2, 146810, Note_on_c, 0, 70, 92
2, 146815, Note_on_c, 0, 61, 87
2, 146818, Note_on_c, 0, 65, 0
2, 146888, Note_on_c, 0, 60, 0
2, 147191, Note_on_c, 0, 72, 91
2, 147200, Note_on_c, 0, 63, 78
2, 147217, Note_on_c, 0, 61, 0
2, 147235, Note_on_c, 0, 70, 0
2, 147586, Note_on_c, 0, 51, 71
2, 147618, Note_on_c, 0, 53, 0
2, 147761, Note_on_c, 0, 49, 77
2, 147783, Note_on_c, 0, 51, 0
2, 147946, Note_on_c, 0, 51, 86
2, 147973, Note_on_c, 0, 49, 0
2, 148131, Note_on_c, 0, 48, 85
2, 148144, Note_on_c, 0, 51, 0
2, 148333, Note_on_c, 0, 53, 91
2, 148350, Note_on_c, 0, 48, 0
2, 148723, Note_on_c, 0, 54, 98
2, 148747, Note_on_c, 0, 53, 0
2, 148793, Note_on_c, 0, 63, 0
2, 149113, Note_on_c, 0, 61, 82
2, 149124, Note_on_c, 0, 70, 77
2, 149161, Note_on_c, 0, 72, 0
2, 149297, Note_on_c, 0, 60, 69
2, 149297, Note_on_c, 0, 69, 86
2, 149300, Note_on_c, 0, 70, 0
2, 149305, Note_on_c, 0, 61, 0
2, 149477, Note_on_c, 0, 61, 82
2, 149477, Note_on_c, 0, 70, 90
2, 149489, Note_on_c, 0, 60, 0
2, 149511, Note_on_c, 0, 69, 0
2, 149660, Note_on_c, 0, 72, 88
2, 149694, Note_on_c, 0, 70, 0
2, 149851, Note_on_c, 0, 58, 75
2, 149852, Note_on_c, 0, 73, 95
2, 149862, Note_on_c, 0, 72, 0
2, 149873, Note_on_c, 0, 54, 0
2, 149891, Note_on_c, 0, 61, 0
2, 150017, Note_on_c, 0, 53, 58
2, 150146, Note_on_c, 0, 53, 0
2, 150197, Note_on_c, 0, 51, 72
2, 150216, Note_on_c, 0, 58, 0
2, 150229, Control_c, 0, 64, 25
2, 150245, Control_c, 0, 64, 52
2, 150259, Control_c, 0, 64, 60
2, 150275, Control_c, 0, 64, 64
2, 150290, Control_c, 0, 64, 69
2, 150305, Control_c, 0, 64, 77
2, 150321, Control_c, 0, 64, 86
2, 150336, Control_c, 0, 64, 100
2, 150360, Control_c, 0, 64, 127
2, 150394, Note_on_c, 0, 58, 75
2, 150575, Note_on_c, 0, 63, 77
2, 150582, Note_on_c, 0, 72, 85
2, 150592, Note_on_c, 0, 58, 0
2, 150617, Note_on_c, 0, 73, 0
2, 150752, Note_on_c, 0, 61, 69
2, 150752, Note_on_c, 0, 70, 85
2, 150763, Note_on_c, 0, 72, 0
2, 150774, Note_on_c, 0, 63, 0
2, 150778, Note_on_c, 0, 51, 0
2, 150891, Control_c, 0, 64, 110
2, 150906, Control_c, 0, 64, 71
2, 150922, Control_c, 0, 64, 33
2, 150933, Note_on_c, 0, 75, 92
2, 150937, Control_c, 0, 64, 0
2, 150942, Note_on_c, 0, 53, 66
2, 150949, Note_on_c, 0, 60, 74
2, 150952, Note_on_c, 0, 69, 74
2, 150954, Note_on_c, 0, 70, 0
2, 150957, Note_on_c, 0, 61, 0
2, 151113, Note_on_c, 0, 69, 0
2, 151129, Note_on_c, 0, 70, 65
2, 151130, Note_on_c, 0, 60, 0
2, 151142, Note_on_c, 0, 58, 64
2, 151309, Note_on_c, 0, 58, 0
2, 151314, Note_on_c, 0, 67, 77
2, 151315, Note_on_c, 0, 60, 78
2, 151317, Note_on_c, 0, 70, 0
2, 151326, Control_c, 0, 64, 30
2, 151341, Control_c, 0, 64, 59
2, 151357, Control_c, 0, 64, 65
2, 151372, Control_c, 0, 64, 73
2, 151387, Control_c, 0, 64, 83
2, 151402, Control_c, 0, 64, 101
2, 151417, Control_c, 0, 64, 127
2, 151461, Note_on_c, 0, 69, 79
2, 151486, Note_on_c, 0, 67, 0
2, 151499, Note_on_c, 0, 69, 0
2, 151536, Note_on_c, 0, 60, 0
2, 151660, Note_on_c, 0, 75, 0
2, 151662, Note_on_c, 0, 53, 0
2, 151663, Note_on_c, 0, 46, 75
2, 151665, Note_on_c, 0, 70, 86
2, 151665, Note_on_c, 0, 74, 92
2, 151666, Note_on_c, 0, 58, 83
2, 151691, Control_c, 0, 64, 105
2, 151705, Control_c, 0, 64, 77
2, 151721, Control_c, 0, 64, 65
2, 151736, Control_c, 0, 64, 55
2, 151752, Control_c, 0, 64, 39
2, 151767, Control_c, 0, 64, 33
2, 151900, Note_on_c, 0, 46, 0
2, 152063, Note_on_c, 0, 60, 81
2, 152064, Note_on_c, 0, 75, 89
2, 152087, Note_on_c, 0, 58, 0
2, 152089, Note_on_c, 0, 74, 0
2, 152183, Control_c, 0, 64, 33
2, 152199, Control_c, 0, 64, 32
2, 152229, Control_c, 0, 64, 31
2, 152232, Note_on_c, 0, 62, 88
2, 152234, Note_on_c, 0, 77, 91
2, 152236, Note_on_c, 0, 60, 0
2, 152252, Note_on_c, 0, 75, 0
2, 152274, Control_c, 0, 64, 31
2, 152431, Note_on_c, 0, 63, 89
2, 152440, Note_on_c, 0, 78, 93
2, 152442, Note_on_c, 0, 62, 0
2, 152450, Note_on_c, 0, 77, 0
2, 152547, Control_c, 0, 64, 30
2, 152640, Control_c, 0, 64, 30
2, 152816, Note_on_c, 0, 63, 0
2, 152822, Note_on_c, 0, 65, 93
2, 152831, Note_on_c, 0, 77, 85
2, 152860, Note_on_c, 0, 78, 0
2, 153202, Note_on_c, 0, 66, 90
2, 153211, Note_on_c, 0, 75, 83
2, 153228, Note_on_c, 0, 65, 0
2, 153231, Note_on_c, 0, 77, 0
2, 153289, Note_on_c, 0, 70, 0
2, 153572, Note_on_c, 0, 81, 88
2, 153581, Note_on_c, 0, 75, 0
2, 153582, Note_on_c, 0, 72, 77
2, 153953, Note_on_c, 0, 82, 92
2, 153974, Note_on_c, 0, 73, 65
2, 153975, Note_on_c, 0, 81, 0
2, 154130, Note_on_c, 0, 73, 0
2, 154135, Note_on_c, 0, 68, 71
2, 154137, Note_on_c, 0, 72, 0
2, 154146, Note_on_c, 0, 66, 0
2, 154339, Note_on_c, 0, 73, 86
2, 154345, Note_on_c, 0, 66, 68
2, 154347, Note_on_c, 0, 70, 76
2, 154353, Note_on_c, 0, 68, 0
2, 154383, Note_on_c, 0, 82, 0
2, 154507, Note_on_c, 0, 66, 0
2, 154513, Note_on_c, 0, 65, 77
2, 154547, Note_on_c, 0, 70, 0
2, 154699, Note_on_c, 0, 75, 83
2, 154700, Note_on_c, 0, 63, 62
2, 154701, Note_on_c, 0, 65, 0
2, 154703, Note_on_c, 0, 71, 76
2, 154703, Note_on_c, 0, 73, 0
2, 154836, Note_on_c, 0, 75, 0
2, 154876, Note_on_c, 0, 61, 65
2, 154890, Note_on_c, 0, 63, 0
2, 155059, Note_on_c, 0, 61, 0
2, 155064, Note_on_c, 0, 75, 85
2, 155066, Note_on_c, 0, 59, 61
2, 155234, Note_on_c, 0, 58, 61
2, 155239, Note_on_c, 0, 75, 0
2, 155273, Note_on_c, 0, 59, 0
2, 155421, Note_on_c, 0, 56, 60
2, 155427, Note_on_c, 0, 58, 0
2, 155435, Note_on_c, 0, 77, 73
2, 155594, Note_on_c, 0, 77, 0
2, 155621, Note_on_c, 0, 58, 60
2, 155784, Note_on_c, 0, 58, 0
2, 155805, Note_on_c, 0, 59, 63
2, 155807, Note_on_c, 0, 77, 76
2, 155942, Note_on_c, 0, 71, 0
2, 155962, Note_on_c, 0, 59, 0
2, 155988, Note_on_c, 0, 61, 62
2, 155993, Note_on_c, 0, 77, 0
2, 156175, Note_on_c, 0, 70, 68
2, 156186, Note_on_c, 0, 63, 51
2, 156188, Note_on_c, 0, 54, 48
2, 156192, Note_on_c, 0, 61, 0
2, 156206, Note_on_c, 0, 56, 0
2, 156557, Note_on_c, 0, 77, 76
2, 156565, Note_on_c, 0, 56, 67
2, 156566, Note_on_c, 0, 54, 0
2, 156847, Note_on_c, 0, 70, 0
2, 156936, Note_on_c, 0, 54, 75
2, 156940, Note_on_c, 0, 78, 82
2, 156954, Note_on_c, 0, 77, 0
2, 156956, Note_on_c, 0, 61, 67
2, 156970, Control_c, 0, 64, 29
2, 156970, Note_on_c, 0, 56, 0
2, 156972, Note_on_c, 0, 58, 53
2, 156977, Note_on_c, 0, 63, 0
2, 157165, Note_on_c, 0, 61, 0
2, 157177, Note_on_c, 0, 58, 0
2, 157321, Note_on_c, 0, 61, 59
2, 157339, Note_on_c, 0, 70, 54
2, 157518, Note_on_c, 0, 61, 0
2, 157643, Note_on_c, 0, 70, 0
2, 157681, Note_on_c, 0, 54, 0
2, 157685, Note_on_c, 0, 51, 75
2, 157704, Note_on_c, 0, 63, 59
2, 157710, Note_on_c, 0, 71, 54
2, 158035, Control_c, 0, 64, 29
2, 158051, Control_c, 0, 64, 27
2, 158066, Control_c, 0, 64, 22
2, 158076, Note_on_c, 0, 52, 76
2, 158076, Note_on_c, 0, 82, 84
2, 158080, Control_c, 0, 64, 0
2, 158106, Note_on_c, 0, 78, 0
2, 158112, Note_on_c, 0, 51, 0
2, 158158, Note_on_c, 0, 71, 0
2, 158261, Note_on_c, 0, 54, 81
2, 158281, Note_on_c, 0, 52, 0
2, 158439, Note_on_c, 0, 56, 87
2, 158454, Note_on_c, 0, 54, 0
2, 158455, Note_on_c, 0, 83, 81
2, 158478, Note_on_c, 0, 82, 0
2, 158631, Note_on_c, 0, 75, 56
2, 158807, Note_on_c, 0, 75, 0
2, 158808, Note_on_c, 0, 54, 84
2, 158825, Note_on_c, 0, 56, 0
2, 158832, Note_on_c, 0, 76, 52
2, 158954, Note_on_c, 0, 63, 0
2, 158954, Note_on_c, 0, 63, 3
2, 159030, Note_on_c, 0, 78, 58
2, 159058, Note_on_c, 0, 63, 0
2, 159182, Note_on_c, 0, 52, 74
2, 159186, Note_on_c, 0, 54, 0
2, 159186, Note_on_c, 0, 76, 0
2, 159196, Note_on_c, 0, 61, 58
2, 159211, Note_on_c, 0, 80, 69
2, 159217, Note_on_c, 0, 78, 0
2, 159567, Note_on_c, 0, 58, 85
2, 159580, Note_on_c, 0, 76, 64
2, 159583, Note_on_c, 0, 52, 0
2, 159701, Note_on_c, 0, 83, 0
2, 159720, Note_on_c, 0, 80, 0
2, 159959, Note_on_c, 0, 59, 81
2, 159960, Note_on_c, 0, 58, 0
2, 159983, Note_on_c, 0, 61, 0
2, 159983, Note_on_c, 0, 75, 68
2, 159983, Note_on_c, 0, 76, 0
2, 160252, Note_on_c, 0, 59, 0
2, 160317, Note_on_c, 0, 51, 73
2, 160327, Note_on_c, 0, 66, 59
2, 160340, Note_on_c, 0, 75, 0
2, 160357, Note_on_c, 0, 59, 51
2, 160614, Note_on_c, 0, 59, 0
2, 160666, Note_on_c, 0, 51, 0
2, 160717, Note_on_c, 0, 73, 81
2, 160719, Note_on_c, 0, 52, 67
2, 160735, Note_on_c, 0, 68, 62
2, 160742, Note_on_c, 0, 59, 56
2, 160744, Note_on_c, 0, 66, 0
2, 160920, Note_on_c, 0, 52, 0
2, 161083, Note_on_c, 0, 52, 67
2, 161112, Note_on_c, 0, 70, 62
2, 161137, Note_on_c, 0, 68, 0
2, 161267, Note_on_c, 0, 59, 0
2, 161283, Note_on_c, 0, 71, 70
2, 161293, Note_on_c, 0, 52, 0
2, 161294, Note_on_c, 0, 70, 0
2, 161441, Note_on_c, 0, 71, 0
2, 161464, Note_on_c, 0, 54, 63
2, 161467, Note_on_c, 0, 64, 63
2, 161471, Note_on_c, 0, 58, 57
2, 161639, Note_on_c, 0, 54, 0
2, 161864, Note_on_c, 0, 54, 55
2, 162112, Note_on_c, 0, 54, 0
2, 162177, Note_on_c, 0, 58, 0
2, 162220, Note_on_c, 0, 59, 53
2, 162223, Note_on_c, 0, 47, 52
2, 162593, Note_on_c, 0, 46, 54
2, 162597, Note_on_c, 0, 64, 0
2, 162611, Note_on_c, 0, 63, 54
2, 162620, Note_on_c, 0, 47, 0
2, 162653, Note_on_c, 0, 59, 0
2, 162774, Note_on_c, 0, 63, 0
2, 162779, Note_on_c, 0, 61, 57
2, 162801, Note_on_c, 0, 73, 0
2, 162968, Note_on_c, 0, 61, 0
2, 162968, Note_on_c, 0, 71, 64
2, 162971, Note_on_c, 0, 63, 47
2, 162974, Note_on_c, 0, 44, 55
2, 162987, Note_on_c, 0, 46, 0
2, 163106, Note_on_c, 0, 63, 0
2, 163156, Note_on_c, 0, 59, 52
2, 163333, Note_on_c, 0, 44, 0
2, 163348, Note_on_c, 0, 49, 64
2, 163348, Note_on_c, 0, 59, 0
2, 163348, Note_on_c, 0, 65, 68
2, 163733, Note_on_c, 0, 42, 64
2, 163745, Note_on_c, 0, 66, 73
2, 163752, Note_on_c, 0, 65, 0
2, 163758, Note_on_c, 0, 49, 0
2, 164102, Note_on_c, 0, 40, 64
2, 164102, Note_on_c, 0, 71, 0
2, 164103, Note_on_c, 0, 70, 71
2, 164133, Note_on_c, 0, 42, 0
2, 164300, Note_on_c, 0, 68, 75
2, 164313, Note_on_c, 0, 70, 0
2, 164467, Note_on_c, 0, 40, 0
2, 164468, Note_on_c, 0, 39, 71
2, 164471, Note_on_c, 0, 66, 0
2, 164475, Note_on_c, 0, 70, 80
2, 164490, Note_on_c, 0, 68, 0
2, 164633, Note_on_c, 0, 70, 0
2, 164648, Note_on_c, 0, 66, 76
2, 164847, Note_on_c, 0, 72, 87
2, 164856, Note_on_c, 0, 44, 77
2, 164863, Note_on_c, 0, 39, 0
2, 165222, Note_on_c, 0, 49, 76
2, 165225, Note_on_c, 0, 73, 88
2, 165232, Note_on_c, 0, 72, 0
2, 165251, Note_on_c, 0, 44, 0
2, 165590, Note_on_c, 0, 49, 0
2, 165592, Note_on_c, 0, 47, 71
2, 165600, Note_on_c, 0, 64, 80
2, 165615, Note_on_c, 0, 66, 0
2, 165782, Note_on_c, 0, 63, 80
2, 165782, Note_on_c, 0, 64, 0
2, 165966, Note_on_c, 0, 47, 0
2, 165967, Note_on_c, 0, 46, 83
2, 165972, Note_on_c, 0, 64, 86
2, 165982, Note_on_c, 0, 63, 0
2, 166133, Note_on_c, 0, 64, 0
2, 166145, Note_on_c, 0, 61, 82
2, 166329, Note_on_c, 0, 46, 0
2, 166336, Note_on_c, 0, 51, 87
2, 166337, Note_on_c, 0, 67, 84
2, 166354, Note_on_c, 0, 61, 0
2, 166706, Note_on_c, 0, 44, 85
2, 166712, Note_on_c, 0, 51, 0
2, 166722, Note_on_c, 0, 68, 83
2, 166741, Note_on_c, 0, 67, 0
2, 167079, Note_on_c, 0, 42, 85
2, 167088, Note_on_c, 0, 71, 85
2, 167095, Note_on_c, 0, 73, 0
2, 167103, Note_on_c, 0, 44, 0
2, 167267, Note_on_c, 0, 70, 85
2, 167293, Note_on_c, 0, 71, 0
2, 167333, Note_on_c, 0, 68, 0
2, 167446, Note_on_c, 0, 71, 92
2, 167448, Note_on_c, 0, 41, 81
2, 167449, Note_on_c, 0, 42, 0
2, 167465, Note_on_c, 0, 70, 0
2, 167629, Note_on_c, 0, 71, 0
2, 167633, Note_on_c, 0, 68, 90
2, 167818, Note_on_c, 0, 41, 0
2, 167821, Note_on_c, 0, 46, 89
2, 167822, Note_on_c, 0, 74, 93
2, 168233, Note_on_c, 0, 39, 82
2, 168238, Note_on_c, 0, 46, 0
2, 168238, Note_on_c, 0, 75, 92
2, 168254, Note_on_c, 0, 74, 0
2, 168620, Note_on_c, 0, 73, 82
2, 168652, Note_on_c, 0, 75, 0
2, 168802, Note_on_c, 0, 71, 85
2, 168817, Note_on_c, 0, 68, 0
2, 168833, Note_on_c, 0, 73, 0
2, 168992, Note_on_c, 0, 70, 87
2, 168999, Note_on_c, 0, 66, 75
2, 169012, Note_on_c, 0, 39, 0
2, 169020, Note_on_c, 0, 71, 0
2, 169340, Note_on_c, 0, 51, 67
2, 169356, Note_on_c, 0, 71, 81
2, 169370, Note_on_c, 0, 70, 0
2, 169730, Note_on_c, 0, 66, 0
2, 169734, Note_on_c, 0, 73, 79
2, 169737, Note_on_c, 0, 52, 62
2, 169740, Note_on_c, 0, 71, 0
2, 169755, Note_on_c, 0, 51, 0
2, 169756, Note_on_c, 0, 64, 59
2, 169928, Note_on_c, 0, 52, 0
2, 170104, Note_on_c, 0, 52, 69
2, 170188, Note_on_c, 0, 73, 0
2, 170285, Note_on_c, 0, 52, 0
2, 170496, Note_on_c, 0, 70, 71
2, 170500, Note_on_c, 0, 54, 61
2, 170687, Note_on_c, 0, 54, 0
2, 170876, Note_on_c, 0, 54, 72
2, 170972, Note_on_c, 0, 70, 0
2, 171030, Note_on_c, 0, 54, 0
2, 171258, Note_on_c, 0, 47, 47
2, 171264, Note_on_c, 0, 71, 67
2, 171630, Note_on_c, 0, 70, 73
2, 171656, Note_on_c, 0, 71, 0
2, 171807, Note_on_c, 0, 68, 75
2, 171819, Note_on_c, 0, 64, 0
2, 171834, Note_on_c, 0, 70, 0
2, 172010, Note_on_c, 0, 67, 73
2, 172019, Note_on_c, 0, 68, 0
2, 172024, Note_on_c, 0, 63, 55
2, 172025, Note_on_c, 0, 47, 0
2, 172384, Note_on_c, 0, 67, 0
2, 172393, Note_on_c, 0, 47, 42
2, 172394, Note_on_c, 0, 68, 66
2, 172755, Note_on_c, 0, 63, 0
2, 172765, Note_on_c, 0, 49, 49
2, 172765, Note_on_c, 0, 70, 62
2, 172768, Note_on_c, 0, 61, 48
2, 172781, Note_on_c, 0, 47, 0
2, 172785, Note_on_c, 0, 68, 0
2, 172925, Note_on_c, 0, 49, 0
2, 173134, Note_on_c, 0, 49, 54
2, 173194, Note_on_c, 0, 70, 0
2, 173295, Note_on_c, 0, 49, 0
2, 173502, Note_on_c, 0, 67, 63
2, 173510, Note_on_c, 0, 51, 49
2, 173689, Note_on_c, 0, 51, 0
2, 173880, Note_on_c, 0, 51, 61
2, 173999, Note_on_c, 0, 67, 0
2, 174008, Note_on_c, 0, 51, 0
2, 174261, Note_on_c, 0, 44, 44
2, 174269, Note_on_c, 0, 68, 59
2, 174617, Note_on_c, 0, 61, 0
2, 174646, Note_on_c, 0, 46, 51
2, 174652, Note_on_c, 0, 59, 41
2, 174664, Note_on_c, 0, 44, 0
2, 174849, Note_on_c, 0, 61, 51
2, 174872, Note_on_c, 0, 59, 0
2, 175032, Note_on_c, 0, 56, 79
2, 175056, Note_on_c, 0, 61, 0
2, 175058, Note_on_c, 0, 47, 50
2, 175062, Note_on_c, 0, 63, 62
2, 175076, Note_on_c, 0, 46, 0
2, 175394, Note_on_c, 0, 47, 0
2, 175398, Note_on_c, 0, 63, 0
2, 175410, Note_on_c, 0, 61, 49
2, 175415, Note_on_c, 0, 49, 52
2, 175555, Note_on_c, 0, 61, 0
2, 175613, Note_on_c, 0, 59, 46
2, 175755, Note_on_c, 0, 56, 0
2, 175778, Note_on_c, 0, 55, 78
2, 175795, Note_on_c, 0, 59, 0
2, 175801, Note_on_c, 0, 58, 62
2, 175804, Note_on_c, 0, 49, 0
2, 175818, Note_on_c, 0, 51, 54
2, 175902, Note_on_c, 0, 68, 0
2, 175978, Note_on_c, 0, 51, 0
2, 176156, Note_on_c, 0, 56, 78
2, 176166, Note_on_c, 0, 58, 0
2, 176172, Note_on_c, 0, 54, 59
2, 176173, Note_on_c, 0, 68, 69
2, 176187, Note_on_c, 0, 60, 59
2, 176204, Note_on_c, 0, 55, 0
2, 176340, Note_on_c, 0, 58, 78
2, 176346, Note_on_c, 0, 60, 0
2, 176354, Note_on_c, 0, 61, 67
2, 176369, Note_on_c, 0, 56, 0
2, 176535, Note_on_c, 0, 60, 86
2, 176547, Note_on_c, 0, 63, 68
2, 176569, Note_on_c, 0, 61, 0
2, 176572, Note_on_c, 0, 58, 0
2, 176705, Note_on_c, 0, 54, 0
2, 176724, Note_on_c, 0, 56, 53
2, 176900, Note_on_c, 0, 58, 72
2, 176901, Note_on_c, 0, 56, 0
2, 176902, Note_on_c, 0, 70, 81
2, 176904, Note_on_c, 0, 54, 64
2, 176909, Note_on_c, 0, 62, 67
2, 176910, Note_on_c, 0, 63, 0
2, 176930, Note_on_c, 0, 68, 0
2, 176933, Note_on_c, 0, 60, 0
2, 177053, Note_on_c, 0, 54, 0
2, 177098, Note_on_c, 0, 53, 60
2, 177102, Note_on_c, 0, 63, 44
2, 177242, Note_on_c, 0, 70, 0
2, 177260, Note_on_c, 0, 58, 0
2, 177263, Note_on_c, 0, 53, 0
2, 177275, Note_on_c, 0, 56, 77
2, 177288, Note_on_c, 0, 71, 77
2, 177294, Note_on_c, 0, 51, 53
2, 177298, Note_on_c, 0, 65, 69
2, 177305, Note_on_c, 0, 62, 0
2, 177324, Note_on_c, 0, 63, 0
2, 177459, Note_on_c, 0, 51, 0
2, 177461, Note_on_c, 0, 50, 58
2, 177640, Note_on_c, 0, 50, 0
2, 177648, Note_on_c, 0, 48, 60
2, 177650, Note_on_c, 0, 62, 87
2, 177675, Note_on_c, 0, 65, 0
2, 177676, Note_on_c, 0, 63, 52
2, 177738, Note_on_c, 0, 71, 0
2, 177749, Note_on_c, 0, 63, 0
2, 177787, Note_on_c, 0, 48, 0
2, 177828, Note_on_c, 0, 46, 57
2, 177830, Note_on_c, 0, 65, 53
2, 177835, Note_on_c, 0, 56, 0
2, 178017, Note_on_c, 0, 63, 78
2, 178024, Note_on_c, 0, 44, 61
2, 178026, Note_on_c, 0, 70, 69
2, 178029, Note_on_c, 0, 66, 68
2, 178039, Note_on_c, 0, 62, 0
2, 178044, Note_on_c, 0, 46, 0
2, 178052, Note_on_c, 0, 65, 0
2, 178194, Note_on_c, 0, 44, 0
2, 178204, Note_on_c, 0, 42, 65
2, 178302, Note_on_c, 0, 63, 0
2, 178383, Note_on_c, 0, 54, 85
2, 178384, Note_on_c, 0, 44, 68
2, 178410, Note_on_c, 0, 63, 64
2, 178430, Note_on_c, 0, 42, 0
2, 178500, Note_on_c, 0, 70, 0
2, 178577, Note_on_c, 0, 46, 64
2, 178578, Note_on_c, 0, 44, 0
2, 178699, Note_on_c, 0, 54, 0
2, 178767, Note_on_c, 0, 56, 85
2, 178780, Note_on_c, 0, 47, 64
2, 178780, Note_on_c, 0, 68, 71
2, 178785, Note_on_c, 0, 63, 0
2, 178787, Note_on_c, 0, 46, 0
2, 178790, Note_on_c, 0, 65, 64
2, 178802, Note_on_c, 0, 66, 0
2, 178939, Note_on_c, 0, 56, 0
2, 179149, Note_on_c, 0, 56, 83
2, 179330, Note_on_c, 0, 56, 0
2, 179520, Note_on_c, 0, 58, 77
2, 179524, Note_on_c, 0, 46, 61
2, 179527, Note_on_c, 0, 62, 63
2, 179572, Note_on_c, 0, 47, 0
2, 179637, Note_on_c, 0, 65, 0
2, 179742, Note_on_c, 0, 58, 0
2, 179907, Note_on_c, 0, 44, 54
2, 179911, Note_on_c, 0, 58, 68
2, 179924, Note_on_c, 0, 46, 0
2, 180096, Note_on_c, 0, 58, 0
2, 180282, Note_on_c, 0, 62, 0
2, 180287, Note_on_c, 0, 42, 57
2, 180287, Note_on_c, 0, 63, 58
2, 180305, Note_on_c, 0, 44, 0
2, 180305, Note_on_c, 0, 51, 45
2, 180415, Note_on_c, 0, 51, 0
2, 180473, Note_on_c, 0, 51, 17
2, 180663, Note_on_c, 0, 46, 55
2, 180663, Note_on_c, 0, 61, 56
2, 180716, Note_on_c, 0, 42, 0
2, 180747, Note_on_c, 0, 63, 0
2, 180824, Note_on_c, 0, 68, 0
2, 180830, Note_on_c, 0, 61, 0
2, 180849, Note_on_c, 0, 59, 60
2, 181048, Note_on_c, 0, 66, 70
2, 181053, Note_on_c, 0, 59, 0
2, 181056, Note_on_c, 0, 39, 49
2, 181057, Note_on_c, 0, 58, 57
2, 181087, Note_on_c, 0, 46, 0
2, 181142, Note_on_c, 0, 51, 0
2, 181415, Note_on_c, 0, 51, 79
2, 181425, Note_on_c, 0, 59, 63
2, 181426, Note_on_c, 0, 58, 0
2, 181487, Note_on_c, 0, 39, 0
2, 181796, Note_on_c, 0, 64, 76
2, 181801, Note_on_c, 0, 52, 60
2, 181810, Note_on_c, 0, 59, 0
2, 181817, Note_on_c, 0, 61, 62
2, 181843, Note_on_c, 0, 51, 0
2, 181844, Note_on_c, 0, 66, 0
2, 181978, Note_on_c, 0, 52, 0
2, 182187, Note_on_c, 0, 52, 74
2, 182353, Note_on_c, 0, 52, 0
2, 182555, Note_on_c, 0, 54, 68
2, 182566, Note_on_c, 0, 61, 0
2, 182569, Note_on_c, 0, 58, 63
2, 182748, Note_on_c, 0, 54, 0
2, 182939, Note_on_c, 0, 54, 74
2, 183106, Note_on_c, 0, 54, 0
2, 183182, Note_on_c, 0, 58, 0
2, 183316, Note_on_c, 0, 47, 50
2, 183320, Note_on_c, 0, 59, 60
2, 183495, Note_on_c, 0, 51, 65
2, 183519, Note_on_c, 0, 47, 0
2, 183688, Note_on_c, 0, 52, 73
2, 183693, Note_on_c, 0, 63, 83
2, 183723, Note_on_c, 0, 64, 0
2, 183724, Note_on_c, 0, 51, 0
2, 183861, Note_on_c, 0, 54, 83
2, 183864, Note_on_c, 0, 52, 0
2, 184057, Note_on_c, 0, 56, 77
2, 184062, Note_on_c, 0, 54, 0
2, 184062, Note_on_c, 0, 71, 88
2, 184066, Note_on_c, 0, 59, 0
2, 184074, Note_on_c, 0, 63, 0
2, 184436, Note_on_c, 0, 44, 75
2, 184444, Note_on_c, 0, 59, 73
2, 184796, Note_on_c, 0, 45, 82
2, 184815, Note_on_c, 0, 61, 83
2, 184833, Note_on_c, 0, 44, 0
2, 184836, Note_on_c, 0, 59, 0
2, 185003, Note_on_c, 0, 61, 0
2, 185030, Note_on_c, 0, 45, 0
2, 185185, Note_on_c, 0, 45, 82
2, 185197, Note_on_c, 0, 61, 85
2, 185416, Note_on_c, 0, 71, 0
2, 185437, Note_on_c, 0, 61, 0
2, 185445, Note_on_c, 0, 56, 0
2, 185455, Note_on_c, 0, 45, 0
2, 185565, Note_on_c, 0, 69, 89
2, 185568, Note_on_c, 0, 47, 76
2, 185574, Note_on_c, 0, 63, 81
2, 185576, Note_on_c, 0, 54, 82
2, 185751, Note_on_c, 0, 47, 0
2, 185756, Note_on_c, 0, 63, 0
2, 185948, Note_on_c, 0, 47, 83
2, 185959, Note_on_c, 0, 63, 83
2, 186134, Note_on_c, 0, 63, 0
2, 186204, Note_on_c, 0, 54, 0
2, 186275, Note_on_c, 0, 47, 0
2, 186345, Note_on_c, 0, 52, 73
2, 186346, Note_on_c, 0, 40, 68
2, 186348, Note_on_c, 0, 64, 79
2, 186529, Note_on_c, 0, 64, 0
2, 186533, Note_on_c, 0, 59, 75
2, 186714, Note_on_c, 0, 61, 84
2, 186731, Note_on_c, 0, 59, 0
2, 186877, Note_on_c, 0, 40, 0
2, 186884, Note_on_c, 0, 63, 86
2, 186900, Note_on_c, 0, 61, 0
2, 186924, Note_on_c, 0, 52, 0
2, 187008, Note_on_c, 0, 69, 0
2, 187077, Note_on_c, 0, 52, 78
2, 187080, Note_on_c, 0, 63, 0
2, 187082, Note_on_c, 0, 64, 90
2, 187456, Note_on_c, 0, 59, 88
2, 187459, Note_on_c, 0, 68, 91
2, 187632, Note_on_c, 0, 64, 0
2, 187827, Note_on_c, 0, 68, 0
2, 187832, Note_on_c, 0, 66, 81
2, 187832, Note_on_c, 0, 70, 91
2, 187833, Note_on_c, 0, 61, 85
2, 187848, Note_on_c, 0, 59, 0
2, 188028, Note_on_c, 0, 70, 0
2, 188044, Note_on_c, 0, 61, 0
2, 188208, Note_on_c, 0, 70, 90
2, 188218, Note_on_c, 0, 61, 91
2, 188389, Note_on_c, 0, 70, 0
2, 188425, Note_on_c, 0, 52, 0
2, 188481, Note_on_c, 0, 61, 0
2, 188578, Note_on_c, 0, 72, 88
2, 188584, Note_on_c, 0, 63, 84
2, 188591, Note_on_c, 0, 51, 73
2, 188744, Note_on_c, 0, 63, 0
2, 188762, Note_on_c, 0, 72, 0
2, 188955, Note_on_c, 0, 72, 90
2, 188957, Note_on_c, 0, 63, 85
2, 189153, Note_on_c, 0, 72, 0
2, 189327, Note_on_c, 0, 63, 0
2, 189333, Note_on_c, 0, 51, 0
2, 189334, Note_on_c, 0, 56, 70
2, 189338, Note_on_c, 0, 73, 92
2, 189339, Note_on_c, 0, 49, 67
2, 189367, Note_on_c, 0, 66, 0
2, 189539, Note_on_c, 0, 63, 65
2, 189718, Note_on_c, 0, 51, 79
2, 189724, Note_on_c, 0, 63, 0
2, 189729, Note_on_c, 0, 64, 74
2, 189748, Note_on_c, 0, 49, 0
2, 189902, Note_on_c, 0, 66, 72
2, 189971, Note_on_c, 0, 64, 0
2, 190039, Note_on_c, 0, 73, 0
2, 190093, Note_on_c, 0, 52, 77
2, 190102, Note_on_c, 0, 68, 89
2, 190124, Note_on_c, 0, 66, 0
2, 190128, Note_on_c, 0, 51, 0
2, 190473, Note_on_c, 0, 73, 97
2, 190476, Note_on_c, 0, 54, 80
2, 190491, Note_on_c, 0, 52, 0
2, 190499, Note_on_c, 0, 68, 0
2, 190505, Note_on_c, 0, 66, 65
2, 190662, Note_on_c, 0, 64, 72
2, 190698, Note_on_c, 0, 64, 0
2, 190724, Note_on_c, 0, 56, 0
2, 190810, Note_on_c, 0, 66, 0
2, 190856, Note_on_c, 0, 72, 84
2, 190866, Note_on_c, 0, 56, 87
2, 190869, Note_on_c, 0, 63, 85
2, 190884, Note_on_c, 0, 54, 0
2, 190941, Note_on_c, 0, 73, 0
2, 191139, Note_on_c, 0, 63, 0
2, 191232, Note_on_c, 0, 58, 76
2, 191236, Note_on_c, 0, 73, 85
2, 191242, Note_on_c, 0, 72, 0
2, 191249, Note_on_c, 0, 68, 74
2, 191426, Note_on_c, 0, 75, 91
2, 191430, Note_on_c, 0, 60, 81
2, 191447, Note_on_c, 0, 73, 0
2, 191618, Note_on_c, 0, 61, 78
2, 191619, Note_on_c, 0, 58, 0
2, 191621, Note_on_c, 0, 76, 89
2, 191633, Note_on_c, 0, 60, 0
2, 191643, Note_on_c, 0, 75, 0
2, 191932, Note_on_c, 0, 68, 0
2, 191979, Note_on_c, 0, 61, 0
2, 191986, Note_on_c, 0, 63, 93
2, 191996, Note_on_c, 0, 75, 84
2, 191997, Note_on_c, 0, 67, 82
2, 192059, Note_on_c, 0, 76, 0
2, 192174, Note_on_c, 0, 68, 76
2, 192272, Note_on_c, 0, 67, 0
2, 192292, Note_on_c, 0, 67, 28
2, 192292, Note_on_c, 0, 68, 0
2, 192351, Note_on_c, 0, 67, 0
2, 192369, Note_on_c, 0, 64, 86
2, 192369, Note_on_c, 0, 73, 91
2, 192381, Note_on_c, 0, 70, 81
2, 192394, Note_on_c, 0, 63, 0
2, 192412, Note_on_c, 0, 75, 0
2, 192755, Note_on_c, 0, 79, 90
2, 192764, Note_on_c, 0, 70, 0
2, 192767, Note_on_c, 0, 73, 0
2, 192770, Note_on_c, 0, 68, 76
2, 192927, Note_on_c, 0, 70, 77
2, 193000, Note_on_c, 0, 79, 0
2, 193083, Note_on_c, 0, 70, 0
2, 193115, Note_on_c, 0, 68, 0
2, 193119, Note_on_c, 0, 63, 73
2, 193123, Note_on_c, 0, 80, 93
2, 193126, Note_on_c, 0, 64, 0
2, 193128, Note_on_c, 0, 71, 78
2, 193445, Note_on_c, 0, 71, 0
2, 193506, Note_on_c, 0, 71, 77
2, 193521, Note_on_c, 0, 68, 79
2, 193530, Note_on_c, 0, 80, 0
2, 193762, Note_on_c, 0, 68, 0
2, 193890, Note_on_c, 0, 73, 89
2, 193895, Note_on_c, 0, 64, 72
2, 193895, Note_on_c, 0, 69, 77
2, 193906, Note_on_c, 0, 63, 0
2, 193906, Note_on_c, 0, 71, 0
2, 194090, Note_on_c, 0, 73, 0
2, 194274, Note_on_c, 0, 73, 88
2, 194509, Note_on_c, 0, 73, 0
2, 194540, Note_on_c, 0, 69, 0
2, 194629, Note_on_c, 0, 56, 0
2, 194650, Note_on_c, 0, 54, 69
2, 194653, Note_on_c, 0, 66, 78
2, 194656, Note_on_c, 0, 75, 89
2, 194661, Note_on_c, 0, 64, 0
2, 194662, Note_on_c, 0, 69, 73
2, 194834, Note_on_c, 0, 75, 0
2, 195042, Note_on_c, 0, 75, 82
2, 195182, Note_on_c, 0, 69, 0
2, 195219, Note_on_c, 0, 75, 0
2, 195345, Note_on_c, 0, 66, 0
2, 195422, Note_on_c, 0, 68, 78
2, 195423, Note_on_c, 0, 63, 81
2, 195429, Note_on_c, 0, 60, 71
2, 195815, Note_on_c, 0, 72, 84
2, 195877, Note_on_c, 0, 68, 0
2, 196181, Note_on_c, 0, 60, 0
2, 196186, Note_on_c, 0, 73, 90
2, 196195, Note_on_c, 0, 54, 0
2, 196203, Note_on_c, 0, 72, 0
2, 196237, Note_on_c, 0, 63, 0
2, 196547, Note_on_c, 0, 52, 80
2, 196566, Note_on_c, 0, 64, 53
2, 196576, Note_on_c, 0, 68, 39
2, 196608, Note_on_c, 0, 64, 0
2, 196908, Note_on_c, 0, 52, 0
2, 196913, Note_on_c, 0, 68, 0
2, 196923, Note_on_c, 0, 43, 80
2, 196929, Note_on_c, 0, 70, 71
2, 196943, Note_on_c, 0, 63, 55
2, 197109, Note_on_c, 0, 43, 0
2, 197304, Note_on_c, 0, 43, 84
2, 197424, Note_on_c, 0, 63, 0
2, 197455, Note_on_c, 0, 73, 0
2, 197457, Note_on_c, 0, 70, 0
2, 197522, Note_on_c, 0, 43, 0
2, 197683, Note_on_c, 0, 71, 89
2, 197690, Note_on_c, 0, 44, 85
2, 197699, Note_on_c, 0, 68, 70
2, 197702, Note_on_c, 0, 63, 75
2, 197847, Note_on_c, 0, 44, 0
2, 198095, Note_on_c, 0, 44, 83
2, 198110, Note_on_c, 0, 66, 81
2, 198128, Note_on_c, 0, 68, 0
2, 198256, Note_on_c, 0, 44, 0
2, 198335, Note_on_c, 0, 63, 0
2, 198477, Note_on_c, 0, 37, 78
2, 198477, Note_on_c, 0, 64, 76
2, 198482, Note_on_c, 0, 66, 0
2, 198484, Note_on_c, 0, 61, 68
2, 198872, Note_on_c, 0, 39, 79
2, 198886, Note_on_c, 0, 63, 81
2, 198914, Note_on_c, 0, 71, 0
2, 198943, Note_on_c, 0, 64, 0
2, 198989, Note_on_c, 0, 61, 0
2, 199011, Note_on_c, 0, 37, 0
2, 199272, Note_on_c, 0, 70, 86
2, 199276, Note_on_c, 0, 63, 0
2, 199283, Note_on_c, 0, 40, 77
2, 199295, Note_on_c, 0, 61, 67
2, 199341, Note_on_c, 0, 39, 0
2, 199671, Note_on_c, 0, 68, 85
2, 199672, Note_on_c, 0, 49, 85
2, 199707, Note_on_c, 0, 70, 0
2, 199991, Note_on_c, 0, 49, 0
2, 200087, Note_on_c, 0, 67, 87
2, 200089, Note_on_c, 0, 40, 0
2, 200094, Note_on_c, 0, 39, 76
2, 200099, Note_on_c, 0, 51, 80
2, 200111, Note_on_c, 0, 61, 0
2, 200122, Note_on_c, 0, 68, 0
2, 200551, Note_on_c, 0, 68, 90
2, 200575, Note_on_c, 0, 59, 68
2, 200576, Note_on_c, 0, 67, 0
2, 200716, Note_on_c, 0, 59, 0
2, 201111, Note_on_c, 0, 58, 72
2, 201796, Note_on_c, 0, 67, 76
2, 201884, Note_on_c, 0, 68, 0
2, 202204, Control_c, 0, 64, 21
2, 202219, Control_c, 0, 64, 36
2, 202234, Control_c, 0, 64, 45
2, 202250, Control_c, 0, 64, 51
2, 202265, Control_c, 0, 64, 55
2, 202280, Control_c, 0, 64, 57
2, 202295, Control_c, 0, 64, 60
2, 202310, Control_c, 0, 64, 63
2, 202326, Control_c, 0, 64, 65
2, 202340, Control_c, 0, 64, 68
2, 202355, Control_c, 0, 64, 71
2, 202371, Control_c, 0, 64, 75
2, 202386, Control_c, 0, 64, 78
2, 202401, Control_c, 0, 64, 83
2, 202417, Control_c, 0, 64, 92
2, 202432, Control_c, 0, 64, 101
2, 202447, Control_c, 0, 64, 117
2, 202462, Control_c, 0, 64, 127
2, 202462, Note_on_c, 0, 51, 0
2, 202523, Note_on_c, 0, 58, 0
2, 203181, Note_on_c, 0, 68, 50
2, 203185, Note_on_c, 0, 60, 47
2, 203187, Note_on_c, 0, 51, 39
2, 203192, Note_on_c, 0, 44, 38
2, 203223, Note_on_c, 0, 67, 0
2, 203228, Control_c, 0, 64, 109
2, 203243, Control_c, 0, 64, 92
2, 203258, Control_c, 0, 64, 79
2, 203273, Control_c, 0, 64, 72
2, 203288, Control_c, 0, 64, 67
2, 203304, Control_c, 0, 64, 63
2, 203319, Control_c, 0, 64, 58
2, 203342, Control_c, 0, 64, 49
2, 203357, Control_c, 0, 64, 36
2, 203371, Note_on_c, 0, 39, 0
2, 203373, Control_c, 0, 64, 0
2, 204495, Control_c, 0, 64, 16
2, 204510, Control_c, 0, 64, 22
2, 204525, Control_c, 0, 64, 26
2, 204540, Control_c, 0, 64, 29
2, 204555, Control_c, 0, 64, 33
2, 204571, Control_c, 0, 64, 37
2, 204586, Control_c, 0, 64, 41
2, 204601, Control_c, 0, 64, 44
2, 204617, Control_c, 0, 64, 46
2, 204632, Control_c, 0, 64, 47
2, 204648, Control_c, 0, 64, 49
2, 204662, Control_c, 0, 64, 51
2, 204677, Control_c, 0, 64, 53
2, 204693, Control_c, 0, 64, 55
2, 204708, Control_c, 0, 64, 56
2, 204723, Control_c, 0, 64, 57
2, 204738, Control_c, 0, 64, 57
2, 204753, Control_c, 0, 64, 58
2, 204769, Control_c, 0, 64, 59
2, 204783, Control_c, 0, 64, 60
2, 204798, Control_c, 0, 64, 61
2, 204814, Control_c, 0, 64, 61
2, 204829, Control_c, 0, 64, 62
2, 204844, Control_c, 0, 64, 63
2, 204867, Control_c, 0, 64, 64
2, 204882, Control_c, 0, 64, 65
2, 204898, Control_c, 0, 64, 67
2, 204913, Control_c, 0, 64, 69
2, 204929, Control_c, 0, 64, 71
2, 204943, Control_c, 0, 64, 74
2, 204958, Control_c, 0, 64, 78
2, 204974, Control_c, 0, 64, 84
2, 204988, Control_c, 0, 64, 92
2, 205003, Control_c, 0, 64, 107
2, 205019, Control_c, 0, 64, 127
2, 206691, Note_on_c, 0, 44, 0
2, 206732, Note_on_c, 0, 60, 0
2, 206763, Note_on_c, 0, 51, 0
2, 206844, Note_on_c, 0, 68, 0
2, 207442, Control_c, 0, 64, 118
2, 207458, Control_c, 0, 64, 114
2, 207473, Control_c, 0, 64, 111
2, 207488, Control_c, 0, 64, 108
2, 207504, Control_c, 0, 64, 105
2, 207519, Control_c, 0, 64, 102
2, 207533, Control_c, 0, 64, 100
2, 207549, Control_c, 0, 64, 98
2, 207564, Control_c, 0, 64, 96
2, 207580, Control_c, 0, 64, 93
2, 207595, Control_c, 0, 64, 91
2, 207609, Control_c, 0, 64, 89
2, 207625, Control_c, 0, 64, 87
2, 207640, Control_c, 0, 64, 86
2, 207656, Control_c, 0, 64, 84
2, 207671, Control_c, 0, 64, 82
2, 207687, Control_c, 0, 64, 81
2, 207702, Control_c, 0, 64, 80
2, 207717, Control_c, 0, 64, 79
2, 207732, Control_c, 0, 64, 78
2, 207762, Control_c, 0, 64, 78
2, 207793, Control_c, 0, 64, 77
2, 207808, Control_c, 0, 64, 77
2, 207823, Control_c, 0, 64, 76
2, 207838, Control_c, 0, 64, 75
2, 207853, Control_c, 0, 64, 75
2, 207869, Control_c, 0, 64, 74
2, 207884, Control_c, 0, 64, 73
2, 207899, Control_c, 0, 64, 72
2, 207914, Control_c, 0, 64, 72
2, 207938, Control_c, 0, 64, 71
2, 207953, Control_c, 0, 64, 70
2, 207967, Control_c, 0, 64, 70
2, 207983, Control_c, 0, 64, 69
2, 207998, Control_c, 0, 64, 69
2, 208029, Control_c, 0, 64, 68
2, 208043, Control_c, 0, 64, 68
2, 208059, Control_c, 0, 64, 67
2, 208074, Control_c, 0, 64, 67
2, 208089, Control_c, 0, 64, 66
2, 208105, Control_c, 0, 64, 65
2, 208119, Control_c, 0, 64, 65
2, 208150, Control_c, 0, 64, 64
2, 208164, Control_c, 0, 64, 64
2, 208195, Control_c, 0, 64, 63
2, 208226, Control_c, 0, 64, 63
2, 208328, Control_c, 0, 64, 62
2, 208404, Control_c, 0, 64, 62
2, 208449, Control_c, 0, 64, 61
2, 208496, Control_c, 0, 64, 61
2, 208511, Control_c, 0, 64, 60
2, 208526, Control_c, 0, 64, 60
2, 208602, Control_c, 0, 64, 59
2, 208633, Control_c, 0, 64, 59
2, 208678, Control_c, 0, 64, 58
2, 208762, Control_c, 0, 64, 58
2, 208793, Control_c, 0, 64, 57
2, 208807, Control_c, 0, 64, 57
2, 208838, Control_c, 0, 64, 56
2, 208853, Control_c, 0, 64, 55
2, 208869, Control_c, 0, 64, 54
2, 208884, Control_c, 0, 64, 53
2, 208899, Control_c, 0, 64, 52
2, 208915, Control_c, 0, 64, 52
2, 208930, Control_c, 0, 64, 50
2, 208945, Control_c, 0, 64, 47
2, 208946, End_track
0, 0, End_of_file
