0, 0, Header, 1, 2, 384
1, 0, Start_track
1, 0, Tempo, 500000
1, 0, Time_signature, 4, 2, 24, 8
1, 1, End_track
2,0,Start_track
2,0, Note_on_c, 0, 56, 69
2,811, Note_on_c, 0, 55, 72
2,886, Note_on_c, 0, 56, 0
2,1248, Note_on_c, 0, 56, 70
2,1278, Note_on_c, 0, 55, 0
2,1446, Note_on_c, 0, 58, 77
2,1480, Note_on_c, 0, 56, 0
2,1649, Note_on_c, 0, 59, 74
2,1691, Note_on_c, 0, 58, 0
2,2053, Note_on_c, 0, 58, 76
2,2096, Note_on_c, 0, 59, 0
2,2472, Note_on_c, 0, 56, 77
2,2483, Note_on_c, 0, 58, 0
2,2888, Note_on_c, 0, 62, 79
2,2931, Note_on_c, 0, 56, 0
2,3290, Note_on_c, 0, 63, 80
2,3310, Note_on_c, 0, 62, 0
2,3705, Note_on_c, 0, 54, 76
2,3733, Note_on_c, 0, 63, 0
2,4100, Note_on_c, 0, 56, 76
2,4124, Note_on_c, 0, 54, 0
2,4279, Note_on_c, 0, 56, 0
2,4492, Note_on_c, 0, 56, 77
2,4648, Note_on_c, 0, 56, 0
2,4899, Note_on_c, 0, 58, 70
2,5048, Note_on_c, 0, 58, 0
2,5309, Note_on_c, 0, 58, 70
2,5422, Note_on_c, 0, 58, 0
2,5689, Note_on_c, 0, 51, 57
2,6089, Note_on_c, 0, 53, 60
2,6113, Note_on_c, 0, 51, 0
2,6511, Note_on_c, 0, 63, 79
2,6514, Note_on_c, 0, 54, 50
2,6544, Note_on_c, 0, 53, 0
2,7268, Note_on_c, 0, 60, 75
2,7277, Note_on_c, 0, 63, 0
2,7666, Note_on_c, 0, 61, 73
2,7674, Note_on_c, 0, 52, 54
2,7681, Note_on_c, 0, 54, 0
2,7693, Note_on_c, 0, 60, 0
2,7852, Note_on_c, 0, 52, 0
2,7856, Note_on_c, 0, 54, 56
2,7859, Note_on_c, 0, 63, 80
2,7876, Note_on_c, 0, 61, 0
2,8053, Note_on_c, 0, 56, 58
2,8061, Note_on_c, 0, 64, 84
2,8077, Note_on_c, 0, 63, 0
2,8105, Note_on_c, 0, 54, 0
2,8452, Note_on_c, 0, 63, 81
2,8458, Note_on_c, 0, 55, 58
2,8469, Note_on_c, 0, 56, 0
2,8475, Note_on_c, 0, 64, 0
2,8647, Note_on_c, 0, 56, 63
2,8656, Note_on_c, 0, 55, 0
2,8846, Note_on_c, 0, 63, 0
2,8849, Note_on_c, 0, 61, 82
2,8855, Note_on_c, 0, 58, 66
2,8899, Note_on_c, 0, 56, 0
2,9251, Note_on_c, 0, 67, 85
2,9257, Note_on_c, 0, 56, 60
2,9267, Note_on_c, 0, 58, 0
2,9276, Note_on_c, 0, 61, 0
2,9440, Note_on_c, 0, 56, 0
2,9440, Note_on_c, 0, 58, 65
2,9649, Note_on_c, 0, 59, 57
2,9650, Note_on_c, 0, 68, 85
2,9660, Note_on_c, 0, 58, 0
2,9669, Note_on_c, 0, 67, 0
2,9943, Note_on_c, 0, 59, 0
2,10022, Note_on_c, 0, 68, 0
2,10032, Note_on_c, 0, 56, 56
2,10040, Note_on_c, 0, 59, 77
2,10435, Note_on_c, 0, 58, 51
2,10448, Note_on_c, 0, 56, 0
2,10449, Note_on_c, 0, 61, 71
2,10457, Note_on_c, 0, 59, 0
2,10620, Note_on_c, 0, 61, 0
2,10776, Note_on_c, 0, 58, 0
2,10825, Note_on_c, 0, 61, 69
2,10995, Note_on_c, 0, 61, 0
2,11221, Note_on_c, 0, 55, 52
2,11230, Note_on_c, 0, 63, 61
2,11399, Note_on_c, 0, 63, 0
2,11632, Note_on_c, 0, 63, 60
2,11678, Note_on_c, 0, 55, 0
2,11778, Note_on_c, 0, 63, 0
2,12029, Note_on_c, 0, 56, 60
2,12403, Note_on_c, 0, 54, 57
2,12817, Note_on_c, 0, 52, 56
2,12818, Note_on_c, 0, 68, 86
2,12831, Note_on_c, 0, 54, 0
2,12835, Note_on_c, 0, 61, 72
2,12862, Note_on_c, 0, 56, 0
2,13584, Note_on_c, 0, 67, 79
2,13588, Note_on_c, 0, 68, 0
2,13596, Note_on_c, 0, 51, 62
2,13597, Note_on_c, 0, 52, 0
2,13970, Note_on_c, 0, 68, 75
2,13972, Note_on_c, 0, 56, 55
2,13972, Note_on_c, 0, 61, 0
2,13974, Note_on_c, 0, 67, 0
2,13975, Note_on_c, 0, 59, 54
2,14015, Note_on_c, 0, 51, 0
2,14171, Note_on_c, 0, 59, 0
2,14171, Note_on_c, 0, 70, 83
2,14177, Note_on_c, 0, 61, 74
2,14179, Note_on_c, 0, 68, 0
2,14370, Note_on_c, 0, 71, 88
2,14371, Note_on_c, 0, 70, 0
2,14431, Note_on_c, 0, 61, 0
2,14729, Note_on_c, 0, 58, 63
2,14734, Note_on_c, 0, 70, 81
2,14740, Note_on_c, 0, 62, 66
2,14756, Note_on_c, 0, 71, 0
2,14806, Note_on_c, 0, 56, 0
2,14942, Note_on_c, 0, 63, 65
2,14947, Note_on_c, 0, 62, 0
2,15144, Note_on_c, 0, 59, 73
2,15146, Note_on_c, 0, 68, 83
2,15150, Note_on_c, 0, 65, 71
2,15158, Note_on_c, 0, 63, 0
2,15163, Note_on_c, 0, 70, 0
2,15170, Note_on_c, 0, 58, 0
2,15537, Note_on_c, 0, 74, 85
2,15539, Note_on_c, 0, 63, 78
2,15549, Note_on_c, 0, 65, 0
2,15565, Note_on_c, 0, 68, 0
2,15732, Note_on_c, 0, 65, 80
2,15768, Note_on_c, 0, 63, 0
2,15924, Note_on_c, 0, 75, 84
2,15925, Note_on_c, 0, 58, 61
2,15930, Note_on_c, 0, 65, 0
2,15933, Note_on_c, 0, 66, 72
2,15950, Note_on_c, 0, 74, 0
2,15958, Note_on_c, 0, 59, 0
2,16226, Note_on_c, 0, 66, 0
2,16316, Note_on_c, 0, 66, 77
2,16320, Note_on_c, 0, 63, 70
2,16326, Note_on_c, 0, 75, 0
2,16703, Note_on_c, 0, 65, 63
2,16705, Note_on_c, 0, 56, 65
2,16707, Note_on_c, 0, 68, 72
2,16716, Note_on_c, 0, 66, 0
2,16720, Note_on_c, 0, 63, 0
2,16737, Note_on_c, 0, 58, 0
2,16877, Note_on_c, 0, 68, 0
2,17101, Note_on_c, 0, 68, 72
2,17248, Note_on_c, 0, 68, 0
2,17256, Note_on_c, 0, 65, 0
2,17477, Note_on_c, 0, 70, 70
2,17485, Note_on_c, 0, 62, 59
2,17691, Note_on_c, 0, 70, 0
2,17886, Note_on_c, 0, 70, 65
2,18016, Note_on_c, 0, 70, 0
2,18023, Note_on_c, 0, 62, 0
2,18255, Note_on_c, 0, 63, 64
2,18653, Note_on_c, 0, 54, 56
2,18653, Note_on_c, 0, 65, 62
2,18662, Note_on_c, 0, 56, 0
2,18809, Note_on_c, 0, 54, 0
2,18821, Note_on_c, 0, 56, 62
2,19020, Note_on_c, 0, 56, 0
2,19023, Note_on_c, 0, 51, 78
2,19042, Note_on_c, 0, 66, 74
2,19044, Note_on_c, 0, 58, 61
2,19055, Note_on_c, 0, 63, 0
2,19066, Note_on_c, 0, 65, 0
2,19368, Note_on_c, 0, 58, 0
2,19429, Note_on_c, 0, 54, 56
2,19444, Note_on_c, 0, 58, 49
2,19730, Note_on_c, 0, 51, 0
2,19825, Note_on_c, 0, 58, 0
2,19833, Note_on_c, 0, 48, 70
2,19840, Note_on_c, 0, 56, 66
2,19857, Note_on_c, 0, 51, 59
2,19880, Note_on_c, 0, 54, 0
2,20208, Note_on_c, 0, 48, 0
2,20214, Note_on_c, 0, 49, 62
2,20224, Note_on_c, 0, 52, 71
2,20228, Note_on_c, 0, 64, 70
2,20230, Note_on_c, 0, 66, 0
2,20237, Note_on_c, 0, 51, 0
2,20247, Note_on_c, 0, 56, 0
2,20392, Note_on_c, 0, 51, 78
2,20414, Note_on_c, 0, 52, 0
2,20418, Note_on_c, 0, 66, 67
2,20432, Note_on_c, 0, 49, 0
2,20444, Note_on_c, 0, 64, 0
2,20607, Note_on_c, 0, 52, 81
2,20614, Note_on_c, 0, 68, 79
2,20619, Note_on_c, 0, 66, 0
2,20634, Note_on_c, 0, 51, 0
2,20978, Note_on_c, 0, 51, 79
2,20985, Note_on_c, 0, 59, 75
2,20991, Note_on_c, 0, 52, 0
2,20993, Note_on_c, 0, 67, 78
2,20999, Note_on_c, 0, 63, 70
2,21019, Note_on_c, 0, 68, 0
2,21178, Note_on_c, 0, 68, 76
2,21209, Note_on_c, 0, 67, 0
2,21256, Note_on_c, 0, 59, 0
2,21375, Note_on_c, 0, 51, 0
2,21377, Note_on_c, 0, 64, 74
2,21377, Note_on_c, 0, 70, 86
2,21378, Note_on_c, 0, 49, 74
2,21378, Note_on_c, 0, 61, 83
2,21386, Note_on_c, 0, 68, 0
2,21397, Note_on_c, 0, 63, 0
2,21746, Note_on_c, 0, 55, 84
2,21750, Note_on_c, 0, 64, 0
2,21768, Note_on_c, 0, 68, 71
2,21771, Note_on_c, 0, 63, 60
2,21779, Note_on_c, 0, 49, 0
2,21799, Note_on_c, 0, 70, 0
2,21945, Note_on_c, 0, 70, 70
2,21985, Note_on_c, 0, 68, 0
2,22140, Note_on_c, 0, 56, 82
2,22150, Note_on_c, 0, 55, 0
2,22153, Note_on_c, 0, 71, 82
2,22158, Note_on_c, 0, 63, 0
2,22166, Note_on_c, 0, 70, 0
2,22168, Note_on_c, 0, 61, 0
2,22524, Note_on_c, 0, 47, 70
2,22539, Note_on_c, 0, 68, 80
2,22546, Note_on_c, 0, 63, 67
2,22550, Note_on_c, 0, 56, 0
2,22562, Note_on_c, 0, 71, 0
2,22854, Note_on_c, 0, 63, 0
2,22904, Note_on_c, 0, 47, 0
2,22904, Note_on_c, 0, 49, 68
2,22930, Note_on_c, 0, 70, 76
2,22932, Note_on_c, 0, 68, 0
2,22939, Note_on_c, 0, 61, 62
2,22944, Note_on_c, 0, 64, 66
2,23070, Note_on_c, 0, 49, 0
2,23257, Note_on_c, 0, 61, 0
2,23257, Note_on_c, 0, 70, 0
2,23281, Note_on_c, 0, 49, 72
2,23284, Note_on_c, 0, 64, 0
2,23453, Note_on_c, 0, 49, 0
2,23668, Note_on_c, 0, 67, 65
2,23669, Note_on_c, 0, 51, 64
2,23681, Note_on_c, 0, 63, 51
2,23682, Note_on_c, 0, 58, 47
2,23829, Note_on_c, 0, 51, 0
2,24044, Note_on_c, 0, 51, 66
2,24103, Note_on_c, 0, 63, 0
2,24105, Note_on_c, 0, 58, 0
2,24127, Note_on_c, 0, 67, 0
2,24199, Note_on_c, 0, 51, 0
2,24427, Note_on_c, 0, 68, 59
2,24438, Note_on_c, 0, 63, 50
2,24440, Note_on_c, 0, 59, 49
2,24441, Note_on_c, 0, 44, 47
2,24823, Note_on_c, 0, 70, 73
2,24854, Note_on_c, 0, 68, 0
2,25212, Note_on_c, 0, 71, 82
2,25218, Note_on_c, 0, 63, 0
2,25230, Note_on_c, 0, 44, 0
2,25239, Note_on_c, 0, 70, 0
2,25244, Note_on_c, 0, 59, 0
2,25573, Note_on_c, 0, 51, 74
2,25599, Note_on_c, 0, 59, 62
2,25617, Note_on_c, 0, 66, 56
2,25735, Note_on_c, 0, 59, 0
2,25968, Note_on_c, 0, 52, 74
2,25971, Note_on_c, 0, 73, 87
2,25973, Note_on_c, 0, 68, 68
2,25978, Note_on_c, 0, 64, 72
2,25979, Note_on_c, 0, 51, 0
2,25981, Note_on_c, 0, 66, 0
2,25994, Note_on_c, 0, 71, 0
2,26170, Note_on_c, 0, 52, 0
2,26284, Note_on_c, 0, 64, 0
2,26340, Note_on_c, 0, 52, 81
2,26349, Note_on_c, 0, 73, 0
2,26358, Note_on_c, 0, 68, 0
2,26524, Note_on_c, 0, 52, 0
2,26720, Note_on_c, 0, 54, 80
2,26732, Note_on_c, 0, 70, 88
2,26741, Note_on_c, 0, 61, 74
2,26741, Note_on_c, 0, 66, 77
2,26882, Note_on_c, 0, 54, 0
2,27089, Note_on_c, 0, 54, 88
2,27100, Note_on_c, 0, 61, 0
2,27144, Note_on_c, 0, 66, 0
2,27170, Note_on_c, 0, 70, 0
2,27262, Note_on_c, 0, 54, 0
2,27480, Note_on_c, 0, 71, 80
2,27485, Note_on_c, 0, 47, 71
2,27486, Note_on_c, 0, 63, 76
2,27489, Note_on_c, 0, 66, 77
2,27854, Note_on_c, 0, 75, 84
2,27872, Note_on_c, 0, 71, 0
2,28035, Note_on_c, 0, 74, 78
2,28078, Note_on_c, 0, 75, 0
2,28239, Note_on_c, 0, 75, 90
2,28248, Note_on_c, 0, 66, 0
2,28258, Note_on_c, 0, 47, 0
2,28266, Note_on_c, 0, 63, 0
2,28277, Note_on_c, 0, 74, 0
2,28612, Note_on_c, 0, 54, 87
2,28627, Note_on_c, 0, 63, 66
2,28628, Note_on_c, 0, 70, 55
2,28754, Note_on_c, 0, 63, 0
2,28773, Note_on_c, 0, 70, 0
2,28959, Note_on_c, 0, 75, 0
2,28987, Note_on_c, 0, 56, 83
2,28999, Note_on_c, 0, 54, 0
2,29002, Note_on_c, 0, 77, 94
2,29012, Note_on_c, 0, 68, 80
2,29014, Note_on_c, 0, 71, 80
2,29125, Note_on_c, 0, 56, 0
2,29369, Note_on_c, 0, 56, 88
2,29380, Note_on_c, 0, 71, 0
2,29385, Note_on_c, 0, 68, 0
2,29417, Note_on_c, 0, 77, 0
2,29536, Note_on_c, 0, 56, 0
2,29747, Note_on_c, 0, 58, 88
2,29762, Note_on_c, 0, 74, 93
2,29772, Note_on_c, 0, 65, 77
2,29774, Note_on_c, 0, 70, 80
2,29884, Note_on_c, 0, 58, 0
2,30125, Note_on_c, 0, 58, 87
2,30247, Note_on_c, 0, 58, 0
2,30265, Note_on_c, 0, 65, 0
2,30290, Note_on_c, 0, 70, 0
2,30296, Note_on_c, 0, 74, 0
2,30520, Note_on_c, 0, 63, 88
2,30525, Note_on_c, 0, 75, 84
2,30527, Note_on_c, 0, 66, 80
2,30530, Note_on_c, 0, 51, 77
2,30788, Note_on_c, 0, 66, 0
2,30916, Note_on_c, 0, 77, 89
2,30920, Note_on_c, 0, 68, 88
2,30932, Note_on_c, 0, 51, 0
2,30945, Note_on_c, 0, 75, 0
2,30965, Note_on_c, 0, 63, 0
2,31297, Note_on_c, 0, 63, 91
2,31332, Note_on_c, 0, 78, 78
2,31339, Note_on_c, 0, 70, 68
2,31353, Note_on_c, 0, 68, 0
2,31354, Note_on_c, 0, 77, 0
2,31687, Note_on_c, 0, 71, 72
2,31690, Note_on_c, 0, 70, 0
2,31874, Note_on_c, 0, 71, 0
2,31896, Note_on_c, 0, 70, 66
2,32078, Note_on_c, 0, 60, 81
2,32082, Note_on_c, 0, 70, 0
2,32100, Note_on_c, 0, 68, 65
2,32103, Note_on_c, 0, 63, 0
2,32448, Note_on_c, 0, 76, 78
2,32449, Note_on_c, 0, 61, 82
2,32462, Note_on_c, 0, 73, 71
2,32472, Note_on_c, 0, 78, 0
2,32476, Note_on_c, 0, 60, 0
2,32479, Note_on_c, 0, 68, 0
2,32639, Note_on_c, 0, 63, 83
2,32647, Note_on_c, 0, 78, 83
2,32654, Note_on_c, 0, 76, 0
2,32655, Note_on_c, 0, 61, 0
2,32844, Note_on_c, 0, 64, 91
2,32846, Note_on_c, 0, 80, 84
2,32852, Note_on_c, 0, 78, 0
2,32853, Note_on_c, 0, 63, 0
2,33210, Note_on_c, 0, 63, 87
2,33231, Note_on_c, 0, 75, 84
2,33234, Note_on_c, 0, 64, 0
2,33234, Note_on_c, 0, 79, 75
2,33239, Note_on_c, 0, 80, 0
2,33244, Note_on_c, 0, 73, 0
2,33416, Note_on_c, 0, 80, 82
2,33430, Note_on_c, 0, 79, 0
2,33602, Note_on_c, 0, 61, 84
2,33606, Note_on_c, 0, 63, 0
2,33607, Note_on_c, 0, 82, 88
2,33618, Note_on_c, 0, 76, 76
2,33625, Note_on_c, 0, 80, 0
2,33639, Note_on_c, 0, 75, 0
2,33980, Note_on_c, 0, 67, 86
2,33995, Note_on_c, 0, 80, 85
2,34028, Note_on_c, 0, 82, 0
2,34055, Note_on_c, 0, 61, 0
2,34177, Note_on_c, 0, 82, 86
2,34207, Note_on_c, 0, 80, 0
2,34365, Note_on_c, 0, 83, 88
2,34373, Note_on_c, 0, 68, 85
2,34375, Note_on_c, 0, 76, 0
2,34388, Note_on_c, 0, 75, 69
2,34394, Note_on_c, 0, 82, 0
2,34398, Note_on_c, 0, 67, 0
2,34750, Note_on_c, 0, 59, 67
2,34751, Note_on_c, 0, 80, 82
2,34761, Note_on_c, 0, 83, 0
2,34772, Note_on_c, 0, 68, 0
2,35130, Note_on_c, 0, 61, 67
2,35136, Note_on_c, 0, 82, 84
2,35141, Note_on_c, 0, 75, 0
2,35148, Note_on_c, 0, 73, 66
2,35148, Note_on_c, 0, 80, 0
2,35154, Note_on_c, 0, 59, 0
2,35319, Note_on_c, 0, 61, 0
2,35509, Note_on_c, 0, 61, 72
2,35589, Note_on_c, 0, 82, 0
2,35671, Note_on_c, 0, 61, 0
2,35878, Note_on_c, 0, 63, 67
2,35881, Note_on_c, 0, 79, 82
2,36062, Note_on_c, 0, 63, 0
2,36261, Note_on_c, 0, 63, 77
2,36430, Note_on_c, 0, 63, 0
2,36437, Note_on_c, 0, 79, 0
2,36655, Note_on_c, 0, 56, 56
2,36665, Note_on_c, 0, 80, 70
2,37044, Note_on_c, 0, 78, 75
2,37076, Note_on_c, 0, 80, 0
2,37236, Note_on_c, 0, 76, 80
2,37256, Note_on_c, 0, 73, 0
2,37277, Note_on_c, 0, 78, 0
2,37430, Note_on_c, 0, 75, 81
2,37435, Note_on_c, 0, 71, 69
2,37438, Note_on_c, 0, 56, 0
2,37441, Note_on_c, 0, 76, 0
2,37782, Note_on_c, 0, 56, 60
2,37788, Note_on_c, 0, 76, 70
2,37795, Note_on_c, 0, 75, 0
2,37976, Note_on_c, 0, 71, 0
2,37976, Note_on_c, 0, 71, 6
2,38175, Note_on_c, 0, 71, 0
2,38178, Note_on_c, 0, 57, 46
2,38181, Note_on_c, 0, 78, 69
2,38183, Note_on_c, 0, 76, 0
2,38189, Note_on_c, 0, 69, 57
2,38199, Note_on_c, 0, 56, 0
2,38381, Note_on_c, 0, 57, 0
2,38557, Note_on_c, 0, 57, 63
2,38634, Note_on_c, 0, 78, 0
2,38746, Note_on_c, 0, 57, 0
2,38952, Note_on_c, 0, 75, 68
2,38955, Note_on_c, 0, 59, 58
2,39153, Note_on_c, 0, 59, 0
2,39332, Note_on_c, 0, 59, 65
2,39505, Note_on_c, 0, 59, 0
2,39524, Note_on_c, 0, 75, 0
2,39725, Note_on_c, 0, 52, 32
2,39731, Note_on_c, 0, 76, 61
2,39802, Note_on_c, 0, 52, 0
2,39802, Note_on_c, 0, 52, 3
2,40104, Note_on_c, 0, 75, 68
2,40143, Note_on_c, 0, 76, 0
2,40296, Note_on_c, 0, 73, 79
2,40308, Note_on_c, 0, 69, 0
2,40324, Note_on_c, 0, 75, 0
2,40485, Note_on_c, 0, 72, 75
2,40487, Note_on_c, 0, 52, 0
2,40494, Note_on_c, 0, 68, 60
2,40503, Note_on_c, 0, 73, 0
2,40848, Note_on_c, 0, 52, 50
2,40850, Note_on_c, 0, 72, 0
2,40854, Note_on_c, 0, 73, 77
2,41232, Note_on_c, 0, 54, 51
2,41245, Note_on_c, 0, 75, 64
2,41254, Note_on_c, 0, 66, 50
2,41258, Note_on_c, 0, 52, 0
2,41258, Note_on_c, 0, 68, 0
2,41281, Note_on_c, 0, 73, 0
2,41392, Note_on_c, 0, 54, 0
2,41590, Note_on_c, 0, 54, 73
2,41695, Note_on_c, 0, 75, 0
2,41765, Note_on_c, 0, 54, 0
2,41981, Note_on_c, 0, 56, 60
2,41993, Note_on_c, 0, 72, 68
2,42169, Note_on_c, 0, 56, 0
2,42359, Note_on_c, 0, 56, 65
2,42508, Note_on_c, 0, 72, 0
2,42527, Note_on_c, 0, 56, 0
2,42751, Note_on_c, 0, 49, 45
2,42752, Note_on_c, 0, 73, 64
2,43108, Note_on_c, 0, 66, 0
2,43115, Note_on_c, 0, 51, 51
2,43132, Note_on_c, 0, 64, 48
2,43158, Note_on_c, 0, 49, 0
2,43304, Note_on_c, 0, 64, 0
2,43325, Note_on_c, 0, 66, 49
2,43497, Note_on_c, 0, 49, 70
2,43504, Note_on_c, 0, 51, 0
2,43510, Note_on_c, 0, 52, 59
2,43510, Note_on_c, 0, 66, 0
2,43518, Note_on_c, 0, 68, 68
2,43874, Note_on_c, 0, 54, 68
2,43882, Note_on_c, 0, 66, 50
2,43884, Note_on_c, 0, 52, 0
2,43892, Note_on_c, 0, 68, 0
2,44019, Note_on_c, 0, 66, 0
2,44073, Note_on_c, 0, 64, 50
2,44232, Note_on_c, 0, 49, 0
2,44237, Note_on_c, 0, 48, 72
2,44253, Note_on_c, 0, 54, 0
2,44262, Note_on_c, 0, 56, 61
2,44268, Note_on_c, 0, 63, 57
2,44271, Note_on_c, 0, 64, 0
2,44294, Note_on_c, 0, 73, 0
2,44615, Note_on_c, 0, 73, 80
2,44618, Note_on_c, 0, 63, 0
2,44620, Note_on_c, 0, 49, 71
2,44627, Note_on_c, 0, 64, 64
2,44645, Note_on_c, 0, 48, 0
2,44796, Note_on_c, 0, 66, 76
2,44803, Note_on_c, 0, 51, 76
2,44808, Note_on_c, 0, 64, 0
2,44825, Note_on_c, 0, 49, 0
2,44994, Note_on_c, 0, 68, 70
2,44995, Note_on_c, 0, 52, 80
2,45000, Note_on_c, 0, 51, 0
2,45040, Note_on_c, 0, 66, 0
2,45231, Note_on_c, 0, 56, 0
2,45381, Note_on_c, 0, 51, 75
2,45381, Note_on_c, 0, 75, 81
2,45389, Note_on_c, 0, 59, 73
2,45390, Note_on_c, 0, 52, 0
2,45393, Note_on_c, 0, 67, 67
2,45393, Note_on_c, 0, 68, 0
2,45402, Note_on_c, 0, 73, 0
2,45570, Note_on_c, 0, 68, 56
2,45665, Note_on_c, 0, 59, 0
2,45723, Note_on_c, 0, 75, 0
2,45752, Note_on_c, 0, 51, 0
2,45766, Note_on_c, 0, 49, 71
2,45772, Note_on_c, 0, 61, 80
2,45772, Note_on_c, 0, 76, 79
2,45778, Note_on_c, 0, 70, 70
2,45783, Note_on_c, 0, 67, 0
2,45787, Note_on_c, 0, 68, 0
2,46143, Note_on_c, 0, 55, 84
2,46163, Note_on_c, 0, 70, 0
2,46191, Note_on_c, 0, 68, 52
2,46201, Note_on_c, 0, 49, 0
2,46329, Note_on_c, 0, 76, 0
2,46335, Note_on_c, 0, 70, 51
2,46506, Note_on_c, 0, 61, 0
2,46533, Note_on_c, 0, 55, 0
2,46533, Note_on_c, 0, 75, 85
2,46538, Note_on_c, 0, 70, 0
2,46539, Note_on_c, 0, 71, 68
2,46544, Note_on_c, 0, 68, 0
2,46545, Note_on_c, 0, 56, 67
2,46557, Note_on_c, 0, 59, 72
2,46903, Note_on_c, 0, 47, 67
2,46915, Note_on_c, 0, 56, 0
2,46916, Note_on_c, 0, 63, 54
2,46925, Note_on_c, 0, 68, 52
2,46928, Note_on_c, 0, 71, 0
2,47059, Note_on_c, 0, 63, 0
2,47068, Note_on_c, 0, 75, 0
2,47292, Note_on_c, 0, 47, 0
2,47292, Note_on_c, 0, 68, 0
2,47296, Note_on_c, 0, 49, 64
2,47296, Note_on_c, 0, 70, 67
2,47296, Note_on_c, 0, 73, 72
2,47317, Note_on_c, 0, 64, 53
2,47327, Note_on_c, 0, 59, 0
2,47462, Note_on_c, 0, 49, 0
2,47665, Note_on_c, 0, 49, 69
2,47736, Note_on_c, 0, 64, 0
2,47827, Note_on_c, 0, 49, 0
2,48019, Note_on_c, 0, 70, 0
2,48047, Note_on_c, 0, 51, 62
2,48050, Note_on_c, 0, 63, 52
2,48052, Note_on_c, 0, 67, 55
2,48207, Note_on_c, 0, 51, 0
2,48434, Note_on_c, 0, 51, 66
2,48576, Note_on_c, 0, 51, 0
2,48593, Note_on_c, 0, 63, 0
2,48613, Note_on_c, 0, 67, 0
2,48806, Note_on_c, 0, 44, 54
2,48814, Note_on_c, 0, 73, 0
2,48833, Note_on_c, 0, 63, 49
2,48835, Note_on_c, 0, 68, 50
2,48939, Note_on_c, 0, 68, 0
2,48953, Note_on_c, 0, 63, 0
2,49189, Note_on_c, 0, 46, 62
2,49190, Note_on_c, 0, 79, 78
2,49238, Note_on_c, 0, 44, 0
2,49563, Note_on_c, 0, 56, 84
2,49589, Note_on_c, 0, 47, 57
2,49600, Note_on_c, 0, 80, 72
2,49601, Note_on_c, 0, 46, 0
2,49605, Note_on_c, 0, 79, 0
2,49958, Note_on_c, 0, 49, 67
2,49959, Note_on_c, 0, 47, 0
2,49963, Note_on_c, 0, 71, 62
2,50328, Note_on_c, 0, 56, 0
2,50334, Note_on_c, 0, 51, 68
2,50339, Note_on_c, 0, 49, 0
2,50340, Note_on_c, 0, 71, 0
2,50346, Note_on_c, 0, 70, 75
2,50348, Note_on_c, 0, 55, 74
2,50728, Note_on_c, 0, 56, 78
2,50731, Note_on_c, 0, 79, 80
2,50754, Note_on_c, 0, 55, 0
2,50771, Note_on_c, 0, 70, 0
2,50780, Note_on_c, 0, 80, 0
2,50905, Note_on_c, 0, 58, 82
2,50944, Note_on_c, 0, 56, 0
2,51116, Note_on_c, 0, 59, 86
2,51118, Note_on_c, 0, 80, 79
2,51119, Note_on_c, 0, 51, 0
2,51123, Note_on_c, 0, 58, 0
2,51151, Note_on_c, 0, 79, 0
2,51485, Note_on_c, 0, 58, 86
2,51499, Note_on_c, 0, 51, 71
2,51511, Note_on_c, 0, 59, 0
2,51522, Note_on_c, 0, 73, 68
2,51533, Note_on_c, 0, 67, 54
2,51615, Note_on_c, 0, 67, 0
2,51744, Note_on_c, 0, 51, 0
2,51873, Note_on_c, 0, 80, 0
2,51880, Note_on_c, 0, 56, 81
2,51890, Note_on_c, 0, 53, 72
2,51891, Note_on_c, 0, 71, 70
2,51892, Note_on_c, 0, 68, 63
2,51897, Note_on_c, 0, 58, 0
2,51916, Note_on_c, 0, 73, 0
2,52254, Note_on_c, 0, 62, 87
2,52267, Note_on_c, 0, 80, 77
2,52307, Note_on_c, 0, 56, 0
2,52424, Note_on_c, 0, 53, 0
2,52631, Note_on_c, 0, 63, 82
2,52639, Note_on_c, 0, 51, 65
2,52653, Note_on_c, 0, 62, 0
2,52653, Note_on_c, 0, 78, 76
2,52666, Note_on_c, 0, 71, 0
2,52694, Note_on_c, 0, 68, 0
2,52839, Note_on_c, 0, 80, 0
2,53018, Note_on_c, 0, 54, 82
2,53022, Note_on_c, 0, 70, 63
2,53023, Note_on_c, 0, 66, 54
2,53039, Note_on_c, 0, 78, 0
2,53049, Note_on_c, 0, 63, 0
2,53222, Note_on_c, 0, 66, 0
2,53410, Note_on_c, 0, 56, 71
2,53418, Note_on_c, 0, 68, 71
2,53422, Note_on_c, 0, 65, 61
2,53423, Note_on_c, 0, 70, 0
2,53432, Note_on_c, 0, 54, 0
2,53642, Note_on_c, 0, 56, 0
2,53782, Note_on_c, 0, 56, 61
2,53792, Note_on_c, 0, 78, 81
2,53813, Note_on_c, 0, 68, 0
2,53843, Note_on_c, 0, 65, 0
2,53943, Note_on_c, 0, 56, 0
2,54153, Note_on_c, 0, 51, 0
2,54168, Note_on_c, 0, 77, 74
2,54174, Note_on_c, 0, 50, 62
2,54180, Note_on_c, 0, 58, 64
2,54229, Note_on_c, 0, 78, 0
2,54355, Note_on_c, 0, 58, 0
2,54510, Note_on_c, 0, 77, 0
2,54535, Note_on_c, 0, 68, 62
2,54539, Note_on_c, 0, 58, 70
2,54549, Note_on_c, 0, 65, 53
2,54637, Note_on_c, 0, 68, 0
2,54696, Note_on_c, 0, 58, 0
2,54944, Note_on_c, 0, 51, 54
2,54945, Note_on_c, 0, 66, 55
2,54981, Note_on_c, 0, 50, 0
2,55317, Note_on_c, 0, 65, 0
2,55327, Note_on_c, 0, 53, 51
2,55336, Note_on_c, 0, 63, 57
2,55362, Note_on_c, 0, 66, 0
2,55492, Note_on_c, 0, 63, 0
2,55507, Note_on_c, 0, 62, 61
2,55608, Note_on_c, 0, 51, 0
2,55704, Note_on_c, 0, 62, 0
2,55706, Note_on_c, 0, 63, 82
2,55723, Note_on_c, 0, 54, 63
2,55857, Note_on_c, 0, 53, 0
2,55901, Note_on_c, 0, 39, 51
2,55922, Note_on_c, 0, 54, 0
2,55959, Note_on_c, 0, 54, 4
2,56085, Note_on_c, 0, 40, 60
2,56106, Note_on_c, 0, 39, 0
2,56300, Note_on_c, 0, 42, 66
2,56303, Note_on_c, 0, 40, 0
2,56486, Note_on_c, 0, 42, 0
2,56489, Note_on_c, 0, 44, 64
2,56491, Note_on_c, 0, 60, 82
2,56499, Note_on_c, 0, 63, 0
2,56720, Note_on_c, 0, 44, 0
2,56861, Note_on_c, 0, 49, 60
2,56864, Note_on_c, 0, 61, 75
2,56866, Note_on_c, 0, 54, 0
2,56866, Note_on_c, 0, 60, 0
2,56873, Note_on_c, 0, 52, 55
2,57035, Note_on_c, 0, 52, 0
2,57048, Note_on_c, 0, 54, 63
2,57057, Note_on_c, 0, 63, 81
2,57065, Note_on_c, 0, 61, 0
2,57246, Note_on_c, 0, 56, 66
2,57254, Note_on_c, 0, 64, 87
2,57258, Note_on_c, 0, 54, 0
2,57260, Note_on_c, 0, 63, 0
2,57497, Note_on_c, 0, 49, 0
2,57628, Note_on_c, 0, 51, 53
2,57628, Note_on_c, 0, 55, 59
2,57628, Note_on_c, 0, 63, 83
2,57637, Note_on_c, 0, 56, 0
2,57647, Note_on_c, 0, 64, 0
2,57797, Note_on_c, 0, 56, 64
2,57891, Note_on_c, 0, 51, 0
2,57891, Note_on_c, 0, 55, 0
2,58005, Note_on_c, 0, 63, 0
2,58008, Note_on_c, 0, 61, 83
2,58014, Note_on_c, 0, 52, 52
2,58014, Note_on_c, 0, 58, 60
2,58020, Note_on_c, 0, 56, 0
2,58386, Note_on_c, 0, 67, 84
2,58390, Note_on_c, 0, 56, 59
2,58391, Note_on_c, 0, 58, 0
2,58411, Note_on_c, 0, 61, 0
2,58550, Note_on_c, 0, 58, 59
2,58561, Note_on_c, 0, 56, 0
2,58606, Note_on_c, 0, 52, 0
2,58779, Note_on_c, 0, 59, 58
2,58780, Note_on_c, 0, 51, 56
2,58780, Note_on_c, 0, 58, 0
2,58780, Note_on_c, 0, 68, 85
2,58793, Note_on_c, 0, 67, 0
2,58983, Note_on_c, 0, 59, 0
2,59155, Note_on_c, 0, 59, 74
2,59158, Note_on_c, 0, 56, 62
2,59163, Note_on_c, 0, 68, 0
2,59392, Note_on_c, 0, 51, 0
2,59521, Note_on_c, 0, 56, 0
2,59534, Note_on_c, 0, 58, 53
2,59537, Note_on_c, 0, 61, 72
2,59545, Note_on_c, 0, 49, 46
2,59545, Note_on_c, 0, 59, 0
2,59697, Note_on_c, 0, 61, 0
2,59910, Note_on_c, 0, 61, 69
2,60067, Note_on_c, 0, 61, 0
2,60127, Note_on_c, 0, 58, 0
2,60283, Note_on_c, 0, 55, 52
2,60288, Note_on_c, 0, 63, 59
2,60441, Note_on_c, 0, 63, 0
2,60670, Note_on_c, 0, 63, 63
2,60799, Note_on_c, 0, 63, 0
2,60903, Note_on_c, 0, 55, 0
2,61061, Note_on_c, 0, 56, 49
2,61425, Note_on_c, 0, 67, 57
2,61426, Note_on_c, 0, 47, 46
2,61433, Note_on_c, 0, 49, 0
2,61588, Note_on_c, 0, 47, 0
2,61596, Note_on_c, 0, 46, 53
2,61801, Note_on_c, 0, 47, 52
2,61805, Note_on_c, 0, 46, 0
2,61808, Note_on_c, 0, 68, 66
2,61816, Note_on_c, 0, 67, 0
2,61956, Note_on_c, 0, 47, 0
2,61961, Note_on_c, 0, 44, 55
2,62162, Note_on_c, 0, 59, 64
2,62166, Note_on_c, 0, 50, 63
2,62185, Note_on_c, 0, 44, 0
2,62188, Note_on_c, 0, 56, 0
2,62533, Note_on_c, 0, 51, 69
2,62541, Note_on_c, 0, 59, 0
2,62562, Note_on_c, 0, 58, 56
2,62574, Note_on_c, 0, 50, 0
2,62893, Note_on_c, 0, 56, 65
2,62900, Note_on_c, 0, 58, 0
2,62907, Note_on_c, 0, 66, 65
2,63070, Note_on_c, 0, 65, 71
2,63074, Note_on_c, 0, 68, 0
2,63106, Note_on_c, 0, 66, 0
2,63258, Note_on_c, 0, 58, 78
2,63261, Note_on_c, 0, 56, 0
2,63266, Note_on_c, 0, 66, 78
2,63274, Note_on_c, 0, 65, 0
2,63441, Note_on_c, 0, 66, 0
2,63443, Note_on_c, 0, 63, 78
2,63645, Note_on_c, 0, 63, 0
2,63645, Note_on_c, 0, 69, 85
2,63651, Note_on_c, 0, 60, 75
2,63665, Note_on_c, 0, 58, 0
2,64016, Note_on_c, 0, 70, 79
2,64019, Note_on_c, 0, 53, 67
2,64042, Note_on_c, 0, 69, 0
2,64152, Note_on_c, 0, 51, 0
2,64405, Note_on_c, 0, 63, 63
2,64406, Note_on_c, 0, 49, 64
2,64438, Note_on_c, 0, 53, 0
2,64443, Note_on_c, 0, 60, 0
2,64586, Note_on_c, 0, 48, 73
2,64604, Note_on_c, 0, 49, 0
2,64772, Note_on_c, 0, 49, 74
2,64785, Note_on_c, 0, 48, 0
2,64785, Note_on_c, 0, 65, 75
2,64824, Note_on_c, 0, 63, 0
2,64960, Note_on_c, 0, 46, 76
2,64967, Note_on_c, 0, 49, 0
2,65158, Note_on_c, 0, 52, 85
2,65159, Note_on_c, 0, 46, 0
2,65169, Note_on_c, 0, 67, 74
2,65185, Note_on_c, 0, 65, 0
2,65534, Note_on_c, 0, 53, 87
2,65545, Note_on_c, 0, 67, 0
2,65554, Note_on_c, 0, 60, 70
2,65559, Note_on_c, 0, 52, 0
2,65921, Note_on_c, 0, 69, 79
2,65923, Note_on_c, 0, 58, 78
2,65945, Note_on_c, 0, 60, 0
2,65945, Note_on_c, 0, 70, 0
2,66098, Note_on_c, 0, 69, 0
2,66104, Note_on_c, 0, 67, 82
2,66289, Note_on_c, 0, 58, 0
2,66290, Note_on_c, 0, 60, 86
2,66293, Note_on_c, 0, 69, 86
2,66296, Note_on_c, 0, 67, 0
2,66472, Note_on_c, 0, 65, 84
2,66476, Note_on_c, 0, 69, 0
2,66658, Note_on_c, 0, 70, 92
2,66663, Note_on_c, 0, 61, 87
2,66666, Note_on_c, 0, 65, 0
2,66736, Note_on_c, 0, 60, 0
2,67039, Note_on_c, 0, 72, 91
2,67048, Note_on_c, 0, 63, 78
2,67065, Note_on_c, 0, 61, 0
2,67083, Note_on_c, 0, 70, 0
2,67434, Note_on_c, 0, 51, 71
2,67466, Note_on_c, 0, 53, 0
2,67609, Note_on_c, 0, 49, 77
2,67631, Note_on_c, 0, 51, 0
2,67794, Note_on_c, 0, 51, 86
2,67821, Note_on_c, 0, 49, 0
2,67979, Note_on_c, 0, 48, 85
2,67992, Note_on_c, 0, 51, 0
2,68181, Note_on_c, 0, 53, 91
2,68198, Note_on_c, 0, 48, 0
2,68571, Note_on_c, 0, 54, 98
2,68595, Note_on_c, 0, 53, 0
2,68641, Note_on_c, 0, 63, 0
2,68961, Note_on_c, 0, 61, 82
2,68972, Note_on_c, 0, 70, 77
2,69009, Note_on_c, 0, 72, 0
2,69145, Note_on_c, 0, 60, 69
2,69145, Note_on_c, 0, 69, 86
2,69148, Note_on_c, 0, 70, 0
2,69153, Note_on_c, 0, 61, 0
2,69325, Note_on_c, 0, 61, 82
2,69325, Note_on_c, 0, 70, 90
2,69337, Note_on_c, 0, 60, 0
2,69359, Note_on_c, 0, 69, 0
2,69508, Note_on_c, 0, 72, 88
2,69542, Note_on_c, 0, 70, 0
2,69699, Note_on_c, 0, 58, 75
2,69700, Note_on_c, 0, 73, 95
2,69710, Note_on_c, 0, 72, 0
2,69721, Note_on_c, 0, 54, 0
2,69739, Note_on_c, 0, 61, 0
2,69865, Note_on_c, 0, 53, 58
2,69994, Note_on_c, 0, 53, 0
2,70045, Note_on_c, 0, 51, 72
2,70064, Note_on_c, 0, 58, 0
2,70077, Control_c, 0, 64, 25
2,70093, Control_c, 0, 64, 52
2,70107, Control_c, 0, 64, 60
2,70123, Control_c, 0, 64, 64
2,70138, Control_c, 0, 64, 69
2,70153, Control_c, 0, 64, 77
2,70169, Control_c, 0, 64, 86
2,70184, Control_c, 0, 64, 100
2,70208, Control_c, 0, 64, 127
2,70242, Note_on_c, 0, 58, 75
2,70423, Note_on_c, 0, 63, 77
2,70430, Note_on_c, 0, 72, 85
2,70440, Note_on_c, 0, 58, 0
2,70465, Note_on_c, 0, 73, 0
2,70600, Note_on_c, 0, 61, 69
2,70600, Note_on_c, 0, 70, 85
2,70611, Note_on_c, 0, 72, 0
2,70622, Note_on_c, 0, 63, 0
2,70626, Note_on_c, 0, 51, 0
2,70739, Control_c, 0, 64, 110
2,70754, Control_c, 0, 64, 71
2,70770, Control_c, 0, 64, 33
2,70781, Note_on_c, 0, 75, 92
2,70785, Control_c, 0, 64, 0
2,70790, Note_on_c, 0, 53, 66
2,70797, Note_on_c, 0, 60, 74
2,70800, Note_on_c, 0, 69, 74
2,70802, Note_on_c, 0, 70, 0
2,70805, Note_on_c, 0, 61, 0
2,70961, Note_on_c, 0, 69, 0
2,70977, Note_on_c, 0, 70, 65
2,70978, Note_on_c, 0, 60, 0
2,70990, Note_on_c, 0, 58, 64
2,71157, Note_on_c, 0, 58, 0
2,71162, Note_on_c, 0, 67, 77
2,71163, Note_on_c, 0, 60, 78
2,71165, Note_on_c, 0, 70, 0
2,71174, Control_c, 0, 64, 30
2,71189, Control_c, 0, 64, 59
2,71205, Control_c, 0, 64, 65
2,71220, Control_c, 0, 64, 73
2,71235, Control_c, 0, 64, 83
2,71250, Control_c, 0, 64, 101
2,71265, Control_c, 0, 64, 127
2,71309, Note_on_c, 0, 69, 79
2,71334, Note_on_c, 0, 67, 0
2,71347, Note_on_c, 0, 69, 0
2,71384, Note_on_c, 0, 60, 0
2,71508, Note_on_c, 0, 75, 0
2,71510, Note_on_c, 0, 53, 0
2,71511, Note_on_c, 0, 46, 75
2,71513, Note_on_c, 0, 70, 86
2,71513, Note_on_c, 0, 74, 92
2,71514, Note_on_c, 0, 58, 83
2,71539, Control_c, 0, 64, 105
2,71553, Control_c, 0, 64, 77
2,71569, Control_c, 0, 64, 65
2,71584, Control_c, 0, 64, 55
2,71600, Control_c, 0, 64, 39
2,71615, Control_c, 0, 64, 33
2,71748, Note_on_c, 0, 46, 0
2,71911, Note_on_c, 0, 60, 81
2,71912, Note_on_c, 0, 75, 89
2,71935, Note_on_c, 0, 58, 0
2,71937, Note_on_c, 0, 74, 0
2,72031, Control_c, 0, 64, 33
2,72047, Control_c, 0, 64, 32
2,72077, Control_c, 0, 64, 31
2,72080, Note_on_c, 0, 62, 88
2,72082, Note_on_c, 0, 77, 91
2,72084, Note_on_c, 0, 60, 0
2,72100, Note_on_c, 0, 75, 0
2,72122, Control_c, 0, 64, 31
2,72279, Note_on_c, 0, 63, 89
2,72288, Note_on_c, 0, 78, 93
2,72290, Note_on_c, 0, 62, 0
2,72298, Note_on_c, 0, 77, 0
2,72395, Control_c, 0, 64, 30
2,72488, Control_c, 0, 64, 30
2,72664, Note_on_c, 0, 63, 0
2,72670, Note_on_c, 0, 65, 93
2,72679, Note_on_c, 0, 77, 85
2,72708, Note_on_c, 0, 78, 0
2,73050, Note_on_c, 0, 66, 90
2,73059, Note_on_c, 0, 75, 83
2,73076, Note_on_c, 0, 65, 0
2,73079, Note_on_c, 0, 77, 0
2,73137, Note_on_c, 0, 70, 0
2,73420, Note_on_c, 0, 81, 88
2,73429, Note_on_c, 0, 75, 0
2,73430, Note_on_c, 0, 72, 77
2,73801, Note_on_c, 0, 82, 92
2,73822, Note_on_c, 0, 73, 65
2,73823, Note_on_c, 0, 81, 0
2,73978, Note_on_c, 0, 73, 0
2,73983, Note_on_c, 0, 68, 71
2,73985, Note_on_c, 0, 72, 0
2,73994, Note_on_c, 0, 66, 0
2,74187, Note_on_c, 0, 73, 86
2,74193, Note_on_c, 0, 66, 68
2,74195, Note_on_c, 0, 70, 76
2,74201, Note_on_c, 0, 68, 0
2,74231, Note_on_c, 0, 82, 0
2,74355, Note_on_c, 0, 66, 0
2,74361, Note_on_c, 0, 65, 77
2,74395, Note_on_c, 0, 70, 0
2,74547, Note_on_c, 0, 75, 83
2,74548, Note_on_c, 0, 63, 62
2,74549, Note_on_c, 0, 65, 0
2,74551, Note_on_c, 0, 71, 76
2,74551, Note_on_c, 0, 73, 0
2,74684, Note_on_c, 0, 75, 0
2,74724, Note_on_c, 0, 61, 65
2,74738, Note_on_c, 0, 63, 0
2,74907, Note_on_c, 0, 61, 0
2,74912, Note_on_c, 0, 75, 85
2,74914, Note_on_c, 0, 59, 61
2,75082, Note_on_c, 0, 58, 61
2,75087, Note_on_c, 0, 75, 0
2,75121, Note_on_c, 0, 59, 0
2,75269, Note_on_c, 0, 56, 60
2,75275, Note_on_c, 0, 58, 0
2,75283, Note_on_c, 0, 77, 73
2,75442, Note_on_c, 0, 77, 0
2,75469, Note_on_c, 0, 58, 60
2,75632, Note_on_c, 0, 58, 0
2,75653, Note_on_c, 0, 59, 63
2,75655, Note_on_c, 0, 77, 76
2,75790, Note_on_c, 0, 71, 0
2,75810, Note_on_c, 0, 59, 0
2,75836, Note_on_c, 0, 61, 62
2,75841, Note_on_c, 0, 77, 0
2,76023, Note_on_c, 0, 70, 68
2,76034, Note_on_c, 0, 63, 51
2,76036, Note_on_c, 0, 54, 48
2,76040, Note_on_c, 0, 61, 0
2,76054, Note_on_c, 0, 56, 0
2,76405, Note_on_c, 0, 77, 76
2,76413, Note_on_c, 0, 56, 67
2,76414, Note_on_c, 0, 54, 0
2,76695, Note_on_c, 0, 70, 0
2,76784, Note_on_c, 0, 54, 75
2,76788, Note_on_c, 0, 78, 82
2,76802, Note_on_c, 0, 77, 0
2,76804, Note_on_c, 0, 61, 67
2,76818, Control_c, 0, 64, 29
2,76818, Note_on_c, 0, 56, 0
2,76820, Note_on_c, 0, 58, 53
2,76825, Note_on_c, 0, 63, 0
2,77013, Note_on_c, 0, 61, 0
2,77025, Note_on_c, 0, 58, 0
2,77169, Note_on_c, 0, 61, 59
2,77187, Note_on_c, 0, 70, 54
2,77366, Note_on_c, 0, 61, 0
2,77491, Note_on_c, 0, 70, 0
2,77529, Note_on_c, 0, 54, 0
2,77533, Note_on_c, 0, 51, 75
2,77552, Note_on_c, 0, 63, 59
2,77558, Note_on_c, 0, 71, 54
2,77883, Control_c, 0, 64, 29
2,77899, Control_c, 0, 64, 27
2,77914, Control_c, 0, 64, 22
2,77924, Note_on_c, 0, 52, 76
2,77924, Note_on_c, 0, 82, 84
2,77928, Control_c, 0, 64, 0
2,77954, Note_on_c, 0, 78, 0
2,77960, Note_on_c, 0, 51, 0
2,78006, Note_on_c, 0, 71, 0
2,78109, Note_on_c, 0, 54, 81
2,78129, Note_on_c, 0, 52, 0
2,78287, Note_on_c, 0, 56, 87
2,78302, Note_on_c, 0, 54, 0
2,78303, Note_on_c, 0, 83, 81
2,78326, Note_on_c, 0, 82, 0
2,78479, Note_on_c, 0, 75, 56
2,78655, Note_on_c, 0, 75, 0
2,78656, Note_on_c, 0, 54, 84
2,78673, Note_on_c, 0, 56, 0
2,78680, Note_on_c, 0, 76, 52
2,78802, Note_on_c, 0, 63, 0
2,78802, Note_on_c, 0, 63, 3
2,78878, Note_on_c, 0, 78, 58
2,78906, Note_on_c, 0, 63, 0
2,79030, Note_on_c, 0, 52, 74
2,79034, Note_on_c, 0, 54, 0
2,79034, Note_on_c, 0, 76, 0
2,79044, Note_on_c, 0, 61, 58
2,79059, Note_on_c, 0, 80, 69
2,79065, Note_on_c, 0, 78, 0
2,79415, Note_on_c, 0, 58, 85
2,79428, Note_on_c, 0, 76, 64
2,79431, Note_on_c, 0, 52, 0
2,79549, Note_on_c, 0, 83, 0
2,79568, Note_on_c, 0, 80, 0
2,79807, Note_on_c, 0, 59, 81
2,79808, Note_on_c, 0, 58, 0
2,79831, Note_on_c, 0, 61, 0
2,79831, Note_on_c, 0, 75, 68
2,79831, Note_on_c, 0, 76, 0
2,80100, Note_on_c, 0, 59, 0
2,80165, Note_on_c, 0, 51, 73
2,80175, Note_on_c, 0, 66, 59
2,80188, Note_on_c, 0, 75, 0
2,80205, Note_on_c, 0, 59, 51
2,80462, Note_on_c, 0, 59, 0
2,80514, Note_on_c, 0, 51, 0
2,80565, Note_on_c, 0, 73, 81
2,80567, Note_on_c, 0, 52, 67
2,80583, Note_on_c, 0, 68, 62
2,80590, Note_on_c, 0, 59, 56
2,80592, Note_on_c, 0, 66, 0
2,80768, Note_on_c, 0, 52, 0
2,80931, Note_on_c, 0, 52, 67
2,80960, Note_on_c, 0, 70, 62
2,80985, Note_on_c, 0, 68, 0
2,81115, Note_on_c, 0, 59, 0
2,81131, Note_on_c, 0, 71, 70
2,81141, Note_on_c, 0, 52, 0
2,81142, Note_on_c, 0, 70, 0
2,81289, Note_on_c, 0, 71, 0
2,81312, Note_on_c, 0, 54, 63
2,81315, Note_on_c, 0, 64, 63
2,81319, Note_on_c, 0, 58, 57
2,81487, Note_on_c, 0, 54, 0
2,81712, Note_on_c, 0, 54, 55
2,81960, Note_on_c, 0, 54, 0
2,82025, Note_on_c, 0, 58, 0
2,82068, Note_on_c, 0, 59, 53
2,82071, Note_on_c, 0, 47, 52
2,82441, Note_on_c, 0, 46, 54
2,82445, Note_on_c, 0, 64, 0
2,82459, Note_on_c, 0, 63, 54
2,82468, Note_on_c, 0, 47, 0
2,82501, Note_on_c, 0, 59, 0
2,82622, Note_on_c, 0, 63, 0
2,82627, Note_on_c, 0, 61, 57
2,82649, Note_on_c, 0, 73, 0
2,82816, Note_on_c, 0, 61, 0
2,82816, Note_on_c, 0, 71, 64
2,82819, Note_on_c, 0, 63, 47
2,82822, Note_on_c, 0, 44, 55
2,82835, Note_on_c, 0, 46, 0
2,82954, Note_on_c, 0, 63, 0
2,83004, Note_on_c, 0, 59, 52
2,83181, Note_on_c, 0, 44, 0
2,83196, Note_on_c, 0, 49, 64
2,83196, Note_on_c, 0, 59, 0
2,83196, Note_on_c, 0, 65, 68
2,83581, Note_on_c, 0, 42, 64
2,83593, Note_on_c, 0, 66, 73
2,83600, Note_on_c, 0, 65, 0
2,83606, Note_on_c, 0, 49, 0
2,83950, Note_on_c, 0, 40, 64
2,83950, Note_on_c, 0, 71, 0
2,83951, Note_on_c, 0, 70, 71
2,83981, Note_on_c, 0, 42, 0
2,84148, Note_on_c, 0, 68, 75
2,84161, Note_on_c, 0, 70, 0
2,84315, Note_on_c, 0, 40, 0
2,84316, Note_on_c, 0, 39, 71
2,84319, Note_on_c, 0, 66, 0
2,84323, Note_on_c, 0, 70, 80
2,84338, Note_on_c, 0, 68, 0
2,84481, Note_on_c, 0, 70, 0
2,84496, Note_on_c, 0, 66, 76
2,84695, Note_on_c, 0, 72, 87
2,84704, Note_on_c, 0, 44, 77
2,84711, Note_on_c, 0, 39, 0
2,85070, Note_on_c, 0, 49, 76
2,85073, Note_on_c, 0, 73, 88
2,85080, Note_on_c, 0, 72, 0
2,85099, Note_on_c, 0, 44, 0
2,85438, Note_on_c, 0, 49, 0
2,85440, Note_on_c, 0, 47, 71
2,85448, Note_on_c, 0, 64, 80
2,85463, Note_on_c, 0, 66, 0
2,85630, Note_on_c, 0, 63, 80
2,85630, Note_on_c, 0, 64, 0
2,85814, Note_on_c, 0, 47, 0
2,85815, Note_on_c, 0, 46, 83
2,85820, Note_on_c, 0, 64, 86
2,85830, Note_on_c, 0, 63, 0
2,85981, Note_on_c, 0, 64, 0
2,85993, Note_on_c, 0, 61, 82
2,86177, Note_on_c, 0, 46, 0
2,86184, Note_on_c, 0, 51, 87
2,86185, Note_on_c, 0, 67, 84
2,86202, Note_on_c, 0, 61, 0
2,86554, Note_on_c, 0, 44, 85
2,86560, Note_on_c, 0, 51, 0
2,86570, Note_on_c, 0, 68, 83
2,86589, Note_on_c, 0, 67, 0
2,86927, Note_on_c, 0, 42, 85
2,86936, Note_on_c, 0, 71, 85
2,86943, Note_on_c, 0, 73, 0
2,86951, Note_on_c, 0, 44, 0
2,87115, Note_on_c, 0, 70, 85
2,87141, Note_on_c, 0, 71, 0
2,87181, Note_on_c, 0, 68, 0
2,87294, Note_on_c, 0, 71, 92
2,87296, Note_on_c, 0, 41, 81
2,87297, Note_on_c, 0, 42, 0
2,87313, Note_on_c, 0, 70, 0
2,87477, Note_on_c, 0, 71, 0
2,87481, Note_on_c, 0, 68, 90
2,87666, Note_on_c, 0, 41, 0
2,87669, Note_on_c, 0, 46, 89
2,87670, Note_on_c, 0, 74, 93
2,88081, Note_on_c, 0, 39, 82
2,88086, Note_on_c, 0, 46, 0
2,88086, Note_on_c, 0, 75, 92
2,88102, Note_on_c, 0, 74, 0
2,88468, Note_on_c, 0, 73, 82
2,88500, Note_on_c, 0, 75, 0
2,88650, Note_on_c, 0, 71, 85
2,88665, Note_on_c, 0, 68, 0
2,88681, Note_on_c, 0, 73, 0
2,88840, Note_on_c, 0, 70, 87
2,88847, Note_on_c, 0, 66, 75
2,88860, Note_on_c, 0, 39, 0
2,88868, Note_on_c, 0, 71, 0
2,89188, Note_on_c, 0, 51, 67
2,89204, Note_on_c, 0, 71, 81
2,89218, Note_on_c, 0, 70, 0
2,89578, Note_on_c, 0, 66, 0
2,89582, Note_on_c, 0, 73, 79
2,89585, Note_on_c, 0, 52, 62
2,89588, Note_on_c, 0, 71, 0
2,89603, Note_on_c, 0, 51, 0
2,89604, Note_on_c, 0, 64, 59
2,89776, Note_on_c, 0, 52, 0
2,89952, Note_on_c, 0, 52, 69
2,90036, Note_on_c, 0, 73, 0
2,90133, Note_on_c, 0, 52, 0
2,90344, Note_on_c, 0, 70, 71
2,90348, Note_on_c, 0, 54, 61
2,90535, Note_on_c, 0, 54, 0
2,90724, Note_on_c, 0, 54, 72
2,90820, Note_on_c, 0, 70, 0
2,90878, Note_on_c, 0, 54, 0
2,91106, Note_on_c, 0, 47, 47
2,91112, Note_on_c, 0, 71, 67
2,91478, Note_on_c, 0, 70, 73
2,91504, Note_on_c, 0, 71, 0
2,91655, Note_on_c, 0, 68, 75
2,91667, Note_on_c, 0, 64, 0
2,91682, Note_on_c, 0, 70, 0
2,91858, Note_on_c, 0, 67, 73
2,91867, Note_on_c, 0, 68, 0
2,91872, Note_on_c, 0, 63, 55
2,91873, Note_on_c, 0, 47, 0
2,92232, Note_on_c, 0, 67, 0
2,92241, Note_on_c, 0, 47, 42
2,92242, Note_on_c, 0, 68, 66
2,92603, Note_on_c, 0, 63, 0
2,92613, Note_on_c, 0, 49, 49
2,92613, Note_on_c, 0, 70, 62
2,92616, Note_on_c, 0, 61, 48
2,92629, Note_on_c, 0, 47, 0
2,92633, Note_on_c, 0, 68, 0
2,92773, Note_on_c, 0, 49, 0
2,92982, Note_on_c, 0, 49, 54
2,93042, Note_on_c, 0, 70, 0
2,93143, Note_on_c, 0, 49, 0
2,93350, Note_on_c, 0, 67, 63
2,93358, Note_on_c, 0, 51, 49
2,93537, Note_on_c, 0, 51, 0
2,93728, Note_on_c, 0, 51, 61
2,93847, Note_on_c, 0, 67, 0
2,93856, Note_on_c, 0, 51, 0
2,94109, Note_on_c, 0, 44, 44
2,94117, Note_on_c, 0, 68, 59
2,94465, Note_on_c, 0, 61, 0
2,94494, Note_on_c, 0, 46, 51
2,94500, Note_on_c, 0, 59, 41
2,94512, Note_on_c, 0, 44, 0
2,94697, Note_on_c, 0, 61, 51
2,94720, Note_on_c, 0, 59, 0
2,94880, Note_on_c, 0, 56, 79
2,94904, Note_on_c, 0, 61, 0
2,94906, Note_on_c, 0, 47, 50
2,94910, Note_on_c, 0, 63, 62
2,94924, Note_on_c, 0, 46, 0
2,95242, Note_on_c, 0, 47, 0
2,95246, Note_on_c, 0, 63, 0
2,95258, Note_on_c, 0, 61, 49
2,95263, Note_on_c, 0, 49, 52
2,95403, Note_on_c, 0, 61, 0
2,95461, Note_on_c, 0, 59, 46
2,95603, Note_on_c, 0, 56, 0
2,95626, Note_on_c, 0, 55, 78
2,95643, Note_on_c, 0, 59, 0
2,95649, Note_on_c, 0, 58, 62
2,95652, Note_on_c, 0, 49, 0
2,95666, Note_on_c, 0, 51, 54
2,95750, Note_on_c, 0, 68, 0
2,95826, Note_on_c, 0, 51, 0
2,96004, Note_on_c, 0, 56, 78
2,96014, Note_on_c, 0, 58, 0
2,96020, Note_on_c, 0, 54, 59
2,96021, Note_on_c, 0, 68, 69
2,96035, Note_on_c, 0, 60, 59
2,96052, Note_on_c, 0, 55, 0
2,96188, Note_on_c, 0, 58, 78
2,96194, Note_on_c, 0, 60, 0
2,96202, Note_on_c, 0, 61, 67
2,96217, Note_on_c, 0, 56, 0
2,96383, Note_on_c, 0, 60, 86
2,96395, Note_on_c, 0, 63, 68
2,96417, Note_on_c, 0, 61, 0
2,96420, Note_on_c, 0, 58, 0
2,96553, Note_on_c, 0, 54, 0
2,96572, Note_on_c, 0, 56, 53
2,96748, Note_on_c, 0, 58, 72
2,96749, Note_on_c, 0, 56, 0
2,96750, Note_on_c, 0, 70, 81
2,96752, Note_on_c, 0, 54, 64
2,96757, Note_on_c, 0, 62, 67
2,96758, Note_on_c, 0, 63, 0
2,96778, Note_on_c, 0, 68, 0
2,96781, Note_on_c, 0, 60, 0
2,96901, Note_on_c, 0, 54, 0
2,96946, Note_on_c, 0, 53, 60
2,96950, Note_on_c, 0, 63, 44
2,97090, Note_on_c, 0, 70, 0
2,97108, Note_on_c, 0, 58, 0
2,97111, Note_on_c, 0, 53, 0
2,97123, Note_on_c, 0, 56, 77
2,97136, Note_on_c, 0, 71, 77
2,97142, Note_on_c, 0, 51, 53
2,97146, Note_on_c, 0, 65, 69
2,97153, Note_on_c, 0, 62, 0
2,97172, Note_on_c, 0, 63, 0
2,97307, Note_on_c, 0, 51, 0
2,97309, Note_on_c, 0, 50, 58
2,97488, Note_on_c, 0, 50, 0
2,97496, Note_on_c, 0, 48, 60
2,97498, Note_on_c, 0, 62, 87
2,97523, Note_on_c, 0, 65, 0
2,97524, Note_on_c, 0, 63, 52
2,97586, Note_on_c, 0, 71, 0
2,97597, Note_on_c, 0, 63, 0
2,97635, Note_on_c, 0, 48, 0
2,97676, Note_on_c, 0, 46, 57
2,97678, Note_on_c, 0, 65, 53
2,97683, Note_on_c, 0, 56, 0
2,97865, Note_on_c, 0, 63, 78
2,97872, Note_on_c, 0, 44, 61
2,97874, Note_on_c, 0, 70, 69
2,97877, Note_on_c, 0, 66, 68
2,97887, Note_on_c, 0, 62, 0
2,97892, Note_on_c, 0, 46, 0
2,97900, Note_on_c, 0, 65, 0
2,98042, Note_on_c, 0, 44, 0
2,98052, Note_on_c, 0, 42, 65
2,98150, Note_on_c, 0, 63, 0
2,98231, Note_on_c, 0, 54, 85
2,98232, Note_on_c, 0, 44, 68
2,98258, Note_on_c, 0, 63, 64
2,98278, Note_on_c, 0, 42, 0
2,98348, Note_on_c, 0, 70, 0
2,98425, Note_on_c, 0, 46, 64
2,98426, Note_on_c, 0, 44, 0
2,98547, Note_on_c, 0, 54, 0
2,98615, Note_on_c, 0, 56, 85
2,98628, Note_on_c, 0, 47, 64
2,98628, Note_on_c, 0, 68, 71
2,98633, Note_on_c, 0, 63, 0
2,98635, Note_on_c, 0, 46, 0
2,98638, Note_on_c, 0, 65, 64
2,98650, Note_on_c, 0, 66, 0
2,98787, Note_on_c, 0, 56, 0
2,98997, Note_on_c, 0, 56, 83
2,99178, Note_on_c, 0, 56, 0
2,99368, Note_on_c, 0, 58, 77
2,99372, Note_on_c, 0, 46, 61
2,99375, Note_on_c, 0, 62, 63
2,99420, Note_on_c, 0, 47, 0
2,99485, Note_on_c, 0, 65, 0
2,99590, Note_on_c, 0, 58, 0
2,99755, Note_on_c, 0, 44, 54
2,99759, Note_on_c, 0, 58, 68
2,99772, Note_on_c, 0, 46, 0
2,99944, Note_on_c, 0, 58, 0
2,100130, Note_on_c, 0, 62, 0
2,100135, Note_on_c, 0, 42, 57
2,100135, Note_on_c, 0, 63, 58
2,100153, Note_on_c, 0, 44, 0
2,100153, Note_on_c, 0, 51, 45
2,100263, Note_on_c, 0, 51, 0
2,100321, Note_on_c, 0, 51, 17
2,100511, Note_on_c, 0, 46, 55
2,100511, Note_on_c, 0, 61, 56
2,100564, Note_on_c, 0, 42, 0
2,100595, Note_on_c, 0, 63, 0
2,100672, Note_on_c, 0, 68, 0
2,100678, Note_on_c, 0, 61, 0
2,100697, Note_on_c, 0, 59, 60
2,100896, Note_on_c, 0, 66, 70
2,100901, Note_on_c, 0, 59, 0
2,100904, Note_on_c, 0, 39, 49
2,100905, Note_on_c, 0, 58, 57
2,100935, Note_on_c, 0, 46, 0
2,100990, Note_on_c, 0, 51, 0
2,101263, Note_on_c, 0, 51, 79
2,101273, Note_on_c, 0, 59, 63
2,101274, Note_on_c, 0, 58, 0
2,101335, Note_on_c, 0, 39, 0
2,101644, Note_on_c, 0, 64, 76
2,101649, Note_on_c, 0, 52, 60
2,101658, Note_on_c, 0, 59, 0
2,101665, Note_on_c, 0, 61, 62
2,101691, Note_on_c, 0, 51, 0
2,101692, Note_on_c, 0, 66, 0
2,101826, Note_on_c, 0, 52, 0
2,102035, Note_on_c, 0, 52, 74
2,102201, Note_on_c, 0, 52, 0
2,102403, Note_on_c, 0, 54, 68
2,102414, Note_on_c, 0, 61, 0
2,102417, Note_on_c, 0, 58, 63
2,102596, Note_on_c, 0, 54, 0
2,102787, Note_on_c, 0, 54, 74
2,102954, Note_on_c, 0, 54, 0
2,103030, Note_on_c, 0, 58, 0
2,103164, Note_on_c, 0, 47, 50
2,103168, Note_on_c, 0, 59, 60
2,103343, Note_on_c, 0, 51, 65
2,103367, Note_on_c, 0, 47, 0
2,103536, Note_on_c, 0, 52, 73
2,103541, Note_on_c, 0, 63, 83
2,103571, Note_on_c, 0, 64, 0
2,103572, Note_on_c, 0, 51, 0
2,103709, Note_on_c, 0, 54, 83
2,103712, Note_on_c, 0, 52, 0
2,103905, Note_on_c, 0, 56, 77
2,103910, Note_on_c, 0, 54, 0
2,103910, Note_on_c, 0, 71, 88
2,103914, Note_on_c, 0, 59, 0
2,103922, Note_on_c, 0, 63, 0
2,104284, Note_on_c, 0, 44, 75
2,104292, Note_on_c, 0, 59, 73
2,104644, Note_on_c, 0, 45, 82
2,104663, Note_on_c, 0, 61, 83
2,104681, Note_on_c, 0, 44, 0
2,104684, Note_on_c, 0, 59, 0
2,104851, Note_on_c, 0, 61, 0
2,104878, Note_on_c, 0, 45, 0
2,105033, Note_on_c, 0, 45, 82
2,105045, Note_on_c, 0, 61, 85
2,105264, Note_on_c, 0, 71, 0
2,105285, Note_on_c, 0, 61, 0
2,105293, Note_on_c, 0, 56, 0
2,105303, Note_on_c, 0, 45, 0
2,105413, Note_on_c, 0, 69, 89
2,105416, Note_on_c, 0, 47, 76
2,105422, Note_on_c, 0, 63, 81
2,105424, Note_on_c, 0, 54, 82
2,105599, Note_on_c, 0, 47, 0
2,105604, Note_on_c, 0, 63, 0
2,105796, Note_on_c, 0, 47, 83
2,105807, Note_on_c, 0, 63, 83
2,105982, Note_on_c, 0, 63, 0
2,106052, Note_on_c, 0, 54, 0
2,106123, Note_on_c, 0, 47, 0
2,106193, Note_on_c, 0, 52, 73
2,106194, Note_on_c, 0, 40, 68
2,106196, Note_on_c, 0, 64, 79
2,106377, Note_on_c, 0, 64, 0
2,106381, Note_on_c, 0, 59, 75
2,106562, Note_on_c, 0, 61, 84
2,106579, Note_on_c, 0, 59, 0
2,106725, Note_on_c, 0, 40, 0
2,106732, Note_on_c, 0, 63, 86
2,106748, Note_on_c, 0, 61, 0
2,106772, Note_on_c, 0, 52, 0
2,106856, Note_on_c, 0, 69, 0
2,106925, Note_on_c, 0, 52, 78
2,106928, Note_on_c, 0, 63, 0
2,106930, Note_on_c, 0, 64, 90
2,107304, Note_on_c, 0, 59, 88
2,107307, Note_on_c, 0, 68, 91
2,107480, Note_on_c, 0, 64, 0
2,107675, Note_on_c, 0, 68, 0
2,107680, Note_on_c, 0, 66, 81
2,107680, Note_on_c, 0, 70, 91
2,107681, Note_on_c, 0, 61, 85
2,107696, Note_on_c, 0, 59, 0
2,107876, Note_on_c, 0, 70, 0
2,107892, Note_on_c, 0, 61, 0
2,108056, Note_on_c, 0, 70, 90
2,108066, Note_on_c, 0, 61, 91
2,108237, Note_on_c, 0, 70, 0
2,108273, Note_on_c, 0, 52, 0
2,108329, Note_on_c, 0, 61, 0
2,108426, Note_on_c, 0, 72, 88
2,108432, Note_on_c, 0, 63, 84
2,108439, Note_on_c, 0, 51, 73
2,108592, Note_on_c, 0, 63, 0
2,108610, Note_on_c, 0, 72, 0
2,108803, Note_on_c, 0, 72, 90
2,108805, Note_on_c, 0, 63, 85
2,109001, Note_on_c, 0, 72, 0
2,109175, Note_on_c, 0, 63, 0
2,109181, Note_on_c, 0, 51, 0
2,109182, Note_on_c, 0, 56, 70
2,109186, Note_on_c, 0, 73, 92
2,109187, Note_on_c, 0, 49, 67
2,109215, Note_on_c, 0, 66, 0
2,109387, Note_on_c, 0, 63, 65
2,109566, Note_on_c, 0, 51, 79
2,109572, Note_on_c, 0, 63, 0
2,109577, Note_on_c, 0, 64, 74
2,109596, Note_on_c, 0, 49, 0
2,109750, Note_on_c, 0, 66, 72
2,109819, Note_on_c, 0, 64, 0
2,109887, Note_on_c, 0, 73, 0
2,109941, Note_on_c, 0, 52, 77
2,109950, Note_on_c, 0, 68, 89
2,109972, Note_on_c, 0, 66, 0
2,109976, Note_on_c, 0, 51, 0
2,110321, Note_on_c, 0, 73, 97
2,110324, Note_on_c, 0, 54, 80
2,110339, Note_on_c, 0, 52, 0
2,110347, Note_on_c, 0, 68, 0
2,110353, Note_on_c, 0, 66, 65
2,110510, Note_on_c, 0, 64, 72
2,110546, Note_on_c, 0, 64, 0
2,110572, Note_on_c, 0, 56, 0
2,110658, Note_on_c, 0, 66, 0
2,110704, Note_on_c, 0, 72, 84
2,110714, Note_on_c, 0, 56, 87
2,110717, Note_on_c, 0, 63, 85
2,110732, Note_on_c, 0, 54, 0
2,110789, Note_on_c, 0, 73, 0
2,110987, Note_on_c, 0, 63, 0
2,111080, Note_on_c, 0, 58, 76
2,111084, Note_on_c, 0, 73, 85
2,111090, Note_on_c, 0, 72, 0
2,111097, Note_on_c, 0, 68, 74
2,111274, Note_on_c, 0, 75, 91
2,111278, Note_on_c, 0, 60, 81
2,111295, Note_on_c, 0, 73, 0
2,111466, Note_on_c, 0, 61, 78
2,111467, Note_on_c, 0, 58, 0
2,111469, Note_on_c, 0, 76, 89
2,111481, Note_on_c, 0, 60, 0
2,111491, Note_on_c, 0, 75, 0
2,111780, Note_on_c, 0, 68, 0
2,111827, Note_on_c, 0, 61, 0
2,111834, Note_on_c, 0, 63, 93
2,111844, Note_on_c, 0, 75, 84
2,111845, Note_on_c, 0, 67, 82
2,111907, Note_on_c, 0, 76, 0
2,112022, Note_on_c, 0, 68, 76
2,112120, Note_on_c, 0, 67, 0
2,112140, Note_on_c, 0, 67, 28
2,112140, Note_on_c, 0, 68, 0
2,112199, Note_on_c, 0, 67, 0
2,112217, Note_on_c, 0, 64, 86
2,112217, Note_on_c, 0, 73, 91
2,112229, Note_on_c, 0, 70, 81
2,112242, Note_on_c, 0, 63, 0
2,112260, Note_on_c, 0, 75, 0
2,112603, Note_on_c, 0, 79, 90
2,112612, Note_on_c, 0, 70, 0
2,112615, Note_on_c, 0, 73, 0
2,112618, Note_on_c, 0, 68, 76
2,112775, Note_on_c, 0, 70, 77
2,112848, Note_on_c, 0, 79, 0
2,112931, Note_on_c, 0, 70, 0
2,112963, Note_on_c, 0, 68, 0
2,112967, Note_on_c, 0, 63, 73
2,112971, Note_on_c, 0, 80, 93
2,112974, Note_on_c, 0, 64, 0
2,112976, Note_on_c, 0, 71, 78
2,113293, Note_on_c, 0, 71, 0
2,113354, Note_on_c, 0, 71, 77
2,113369, Note_on_c, 0, 68, 79
2,113378, Note_on_c, 0, 80, 0
2,113610, Note_on_c, 0, 68, 0
2,113738, Note_on_c, 0, 73, 89
2,113743, Note_on_c, 0, 64, 72
2,113743, Note_on_c, 0, 69, 77
2,113754, Note_on_c, 0, 63, 0
2,113754, Note_on_c, 0, 71, 0
2,113938, Note_on_c, 0, 73, 0
2,114122, Note_on_c, 0, 73, 88
2,114357, Note_on_c, 0, 73, 0
2,114388, Note_on_c, 0, 69, 0
2,114477, Note_on_c, 0, 56, 0
2,114498, Note_on_c, 0, 54, 69
2,114501, Note_on_c, 0, 66, 78
2,114504, Note_on_c, 0, 75, 89
2,114509, Note_on_c, 0, 64, 0
2,114510, Note_on_c, 0, 69, 73
2,114682, Note_on_c, 0, 75, 0
2,114890, Note_on_c, 0, 75, 82
2,115030, Note_on_c, 0, 69, 0
2,115067, Note_on_c, 0, 75, 0
2,115193, Note_on_c, 0, 66, 0
2,115270, Note_on_c, 0, 68, 78
2,115271, Note_on_c, 0, 63, 81
2,115277, Note_on_c, 0, 60, 71
2,115663, Note_on_c, 0, 72, 84
2,115725, Note_on_c, 0, 68, 0
2,116029, Note_on_c, 0, 60, 0
2,116034, Note_on_c, 0, 73, 90
2,116043, Note_on_c, 0, 54, 0
2,116051, Note_on_c, 0, 72, 0
2,116085, Note_on_c, 0, 63, 0
2,116395, Note_on_c, 0, 52, 80
2,116414, Note_on_c, 0, 64, 53
2,116424, Note_on_c, 0, 68, 39
2,116456, Note_on_c, 0, 64, 0
2,116756, Note_on_c, 0, 52, 0
2,116761, Note_on_c, 0, 68, 0
2,116771, Note_on_c, 0, 43, 80
2,116777, Note_on_c, 0, 70, 71
2,116791, Note_on_c, 0, 63, 55
2,116957, Note_on_c, 0, 43, 0
2,117152, Note_on_c, 0, 43, 84
2,117272, Note_on_c, 0, 63, 0
2,117303, Note_on_c, 0, 73, 0
2,117305, Note_on_c, 0, 70, 0
2,117370, Note_on_c, 0, 43, 0
2,117531, Note_on_c, 0, 71, 89
2,117538, Note_on_c, 0, 44, 85
2,117547, Note_on_c, 0, 68, 70
2,117550, Note_on_c, 0, 63, 75
2,117695, Note_on_c, 0, 44, 0
2,117943, Note_on_c, 0, 44, 83
2,117958, Note_on_c, 0, 66, 81
2,117976, Note_on_c, 0, 68, 0
2,118104, Note_on_c, 0, 44, 0
2,118183, Note_on_c, 0, 63, 0
2,118325, Note_on_c, 0, 37, 78
2,118325, Note_on_c, 0, 64, 76
2,118330, Note_on_c, 0, 66, 0
2,118332, Note_on_c, 0, 61, 68
2,118720, Note_on_c, 0, 39, 79
2,118734, Note_on_c, 0, 63, 81
2,118762, Note_on_c, 0, 71, 0
2,118791, Note_on_c, 0, 64, 0
2,118837, Note_on_c, 0, 61, 0
2,118859, Note_on_c, 0, 37, 0
2,119120, Note_on_c, 0, 70, 86
2,119124, Note_on_c, 0, 63, 0
2,119131, Note_on_c, 0, 40, 77
2,119143, Note_on_c, 0, 61, 67
2,119189, Note_on_c, 0, 39, 0
2,119519, Note_on_c, 0, 68, 85
2,119520, Note_on_c, 0, 49, 85
2,119555, Note_on_c, 0, 70, 0
2,119839, Note_on_c, 0, 49, 0
2,119935, Note_on_c, 0, 67, 87
2,119937, Note_on_c, 0, 40, 0
2,119942, Note_on_c, 0, 39, 76
2,119947, Note_on_c, 0, 51, 80
2,119959, Note_on_c, 0, 61, 0
2,119970, Note_on_c, 0, 68, 0
2,120399, Note_on_c, 0, 68, 90
2,120423, Note_on_c, 0, 59, 68
2,120424, Note_on_c, 0, 67, 0
2,120564, Note_on_c, 0, 59, 0
2,120959, Note_on_c, 0, 58, 72
2,121644, Note_on_c, 0, 67, 76
2,121732, Note_on_c, 0, 68, 0
2,122052, Control_c, 0, 64, 21
2,122067, Control_c, 0, 64, 36
2,122082, Control_c, 0, 64, 45
2,122098, Control_c, 0, 64, 51
2,122113, Control_c, 0, 64, 55
2,122128, Control_c, 0, 64, 57
2,122143, Control_c, 0, 64, 60
2,122158, Control_c, 0, 64, 63
2,122174, Control_c, 0, 64, 65
2,122188, Control_c, 0, 64, 68
2,122203, Control_c, 0, 64, 71
2,122219, Control_c, 0, 64, 75
2,122234, Control_c, 0, 64, 78
2,122249, Control_c, 0, 64, 83
2,122265, Control_c, 0, 64, 92
2,122280, Control_c, 0, 64, 101
2,122295, Control_c, 0, 64, 117
2,122310, Control_c, 0, 64, 127
2,122310, Note_on_c, 0, 51, 0
2,122371, Note_on_c, 0, 58, 0
2,123029, Note_on_c, 0, 68, 50
2,123033, Note_on_c, 0, 60, 47
2,123035, Note_on_c, 0, 51, 39
2,123040, Note_on_c, 0, 44, 38
2,123071, Note_on_c, 0, 67, 0
2,123076, Control_c, 0, 64, 109
2,123091, Control_c, 0, 64, 92
2,123106, Control_c, 0, 64, 79
2,123121, Control_c, 0, 64, 72
2,123136, Control_c, 0, 64, 67
2,123152, Control_c, 0, 64, 63
2,123167, Control_c, 0, 64, 58
2,123190, Control_c, 0, 64, 49
2,123205, Control_c, 0, 64, 36
2,123219, Note_on_c, 0, 39, 0
2,123221, Control_c, 0, 64, 0
2,124343, Control_c, 0, 64, 16
2,124358, Control_c, 0, 64, 22
2,124373, Control_c, 0, 64, 26
2,124388, Control_c, 0, 64, 29
2,124403, Control_c, 0, 64, 33
2,124419, Control_c, 0, 64, 37
2,124434, Control_c, 0, 64, 41
2,124449, Control_c, 0, 64, 44
2,124465, Control_c, 0, 64, 46
2,124480, Control_c, 0, 64, 47
2,124496, Control_c, 0, 64, 49
2,124510, Control_c, 0, 64, 51
2,124525, Control_c, 0, 64, 53
2,124541, Control_c, 0, 64, 55
2,124556, Control_c, 0, 64, 56
2,124571, Control_c, 0, 64, 57
2,124586, Control_c, 0, 64, 57
2,124601, Control_c, 0, 64, 58
2,124617, Control_c, 0, 64, 59
2,124631, Control_c, 0, 64, 60
2,124646, Control_c, 0, 64, 61
2,124662, Control_c, 0, 64, 61
2,124677, Control_c, 0, 64, 62
2,124692, Control_c, 0, 64, 63
2,124715, Control_c, 0, 64, 64
2,124730, Control_c, 0, 64, 65
2,124746, Control_c, 0, 64, 67
2,124761, Control_c, 0, 64, 69
2,124777, Control_c, 0, 64, 71
2,124791, Control_c, 0, 64, 74
2,124806, Control_c, 0, 64, 78
2,124822, Control_c, 0, 64, 84
2,124836, Control_c, 0, 64, 92
2,124851, Control_c, 0, 64, 107
2,124867, Control_c, 0, 64, 127
2,126539, Note_on_c, 0, 44, 0
2,126580, Note_on_c, 0, 60, 0
2,126611, Note_on_c, 0, 51, 0
2,126692, Note_on_c, 0, 68, 0
2,127290, Control_c, 0, 64, 118
2,127306, Control_c, 0, 64, 114
2,127321, Control_c, 0, 64, 111
2,127336, Control_c, 0, 64, 108
2,127352, Control_c, 0, 64, 105
2,127367, Control_c, 0, 64, 102
2,127381, Control_c, 0, 64, 100
2,127397, Control_c, 0, 64, 98
2,127412, Control_c, 0, 64, 96
2,127428, Control_c, 0, 64, 93
2,127443, Control_c, 0, 64, 91
2,127457, Control_c, 0, 64, 89
2,127473, Control_c, 0, 64, 87
2,127488, Control_c, 0, 64, 86
2,127504, Control_c, 0, 64, 84
2,127519, Control_c, 0, 64, 82
2,127535, Control_c, 0, 64, 81
2,127550, Control_c, 0, 64, 80
2,127565, Control_c, 0, 64, 79
2,127580, Control_c, 0, 64, 78
2,127610, Control_c, 0, 64, 78
2,127641, Control_c, 0, 64, 77
2,127656, Control_c, 0, 64, 77
2,127671, Control_c, 0, 64, 76
2,127686, Control_c, 0, 64, 75
2,127701, Control_c, 0, 64, 75
2,127717, Control_c, 0, 64, 74
2,127732, Control_c, 0, 64, 73
2,127747, Control_c, 0, 64, 72
2,127762, Control_c, 0, 64, 72
2,127786, Control_c, 0, 64, 71
2,127801, Control_c, 0, 64, 70
2,127815, Control_c, 0, 64, 70
2,127831, Control_c, 0, 64, 69
2,127846, Control_c, 0, 64, 69
2,127877, Control_c, 0, 64, 68
2,127891, Control_c, 0, 64, 68
2,127907, Control_c, 0, 64, 67
2,127922, Control_c, 0, 64, 67
2,127937, Control_c, 0, 64, 66
2,127953, Control_c, 0, 64, 65
2,127967, Control_c, 0, 64, 65
2,127998, Control_c, 0, 64, 64
2,128012, Control_c, 0, 64, 64
2,128043, Control_c, 0, 64, 63
2,128074, Control_c, 0, 64, 63
2,128176, Control_c, 0, 64, 62
2,128252, Control_c, 0, 64, 62
2,128297, Control_c, 0, 64, 61
2,128344, Control_c, 0, 64, 61
2,128359, Control_c, 0, 64, 60
2,128374, Control_c, 0, 64, 60
2,128450, Control_c, 0, 64, 59
2,128481, Control_c, 0, 64, 59
2,128526, Control_c, 0, 64, 58
2,128610, Control_c, 0, 64, 58
2,128641, Control_c, 0, 64, 57
2,128655, Control_c, 0, 64, 57
2,128686, Control_c, 0, 64, 56
2,128701, Control_c, 0, 64, 55
2,128717, Control_c, 0, 64, 54
2,128732, Control_c, 0, 64, 53
2,128747, Control_c, 0, 64, 52
2,128763, Control_c, 0, 64, 52
2,128778, Control_c, 0, 64, 50
2,128793, Control_c, 0, 64, 47
2,128794, End_track
0, 0, End_of_file
